<?xml version="1.0" encoding="UTF-8"?>
<svg id="_레이어_1" data-name="레이어_1" xmlns="http://www.w3.org/2000/svg" version="1.1" viewBox="0 0 472 472">
  <!-- Generator: Adobe Illustrator 29.0.1, SVG Export Plug-In . SVG Version: 2.1.0 Build 192)  -->
  <defs>
    <style>
      .st0 {
        fill: #d4efff;
      }

      .st1 {
        fill: #7c63b0;
      }
    </style>
  </defs>
  <rect class="st0" y="0" width="472" height="472" rx="16" ry="16"/>
  <path class="st1" d="M433.7,36.2v-1.2c0-.3.1-.5.5-.5h1.2c.3,0,.5.1.5.5v1c0,.2-.1.4-.3.5h3c.3,0,.5.1.5.5v1.1c0,.3-.1.4-.5.4h-2.6s0,3.9,0,3.9c0,2.1,1.3,3.9,2.8,4.1.3,0,.4.2.4.5v1.1c0,.3-.1.4-.4.4-1.7-.2-3.3-1.6-3.8-3.3-.5,1.7-2,3-3.8,3.3-.3,0-.5-.1-.5-.4v-1.1c0-.3.1-.5.4-.5,1.5-.2,2.8-2.1,2.8-4.1v-3.9s-2.7,0-2.7,0c-.3,0-.5-.1-.5-.4v-1.1c0-.3.1-.5.5-.5h2.2c.3,0,.4,0,.4-.3ZM428.4,50.5c0,.3-.2.5-.5.5h-1.1c-.3,0-.5-.2-.5-.5v-15c0-.3.2-.5.5-.5h1.1c.3,0,.5.2.5.5v15ZM420,41c1.1,0,1.9-.8,1.9-2s-.7-1.9-1.9-1.9-1.9.7-1.9,1.9.7,2,1.9,2ZM410.9,50.5v-.9c0-.3.2-.4.5-.4,1.4.2,3.4.3,4.6.3,3.7,0,4.5,0,4.5-.7s-.5-.7-3.5-.7-3.9,0-5.2,0c-.3,0-.4-.1-.4-.4v-.8c0-.3.1-.4.4-.4h.6c-.7-.3-1.2-.9-1.2-1.6s.5-1.4,1.6-1.4c2.3,0,6.2,0,8.9.2.3,0,.4.1.4.4v.9c0,.3-.1.4-.4.4-2-.1-5.8-.3-7.6-.3s-.9.2-.9.6.3.6.9.6c1,0,1.9,0,2.8,0,4.2,0,5.5.5,5.5,2.3s-1.4,2.4-6.6,2.4-3.3-.1-4.8-.3c-.3,0-.4-.2-.4-.4ZM420,35.3c2.4,0,3.9,1.5,3.9,3.7s-1.5,3.8-3.9,3.8-4-1.5-4-3.8,1.5-3.7,4-3.7ZM413.5,42.2c0,.3-.2.5-.5.5h-1.1c-.3,0-.5-.2-.5-.5v-6.7c0-.3.2-.5.5-.5h1.1c.3,0,.5.2.5.5v.4c0,.3.1.5.5.5h1.3c.3,0,.5.1.5.5v1c0,.3-.1.5-.5.5h-1c-.3,0-.6-.1-.7-.3v1.4c0,.3.1.5.5.5h1.3c.3,0,.5.1.5.5v1c0,.3-.1.4-.5.4h-1c-.3,0-.6-.1-.7-.3v.9ZM406.8,41.4c0-.8-.5-1.1-1.9-1.1s-1.9.4-1.9,1.1.5,1.1,1.9,1.1,1.9-.4,1.9-1.1ZM404.9,44.4c-2.6,0-3.9-1-3.9-3s1.3-3,3.9-3,3.9,1,3.9,3-1.3,3-3.9,3ZM396.8,41.8c0-.4-.2-.6-.6-.6h-1.2c-.3,0-.5-.1-.5-.4v-1c0-.3.1-.5.5-.5h1.1c.4,0,.6.1.7.4v-4.2c0-.3.2-.5.5-.5h1.1c.3,0,.5.2.5.5v10.1c0,.3-.2.5-.5.5h-1.1c-.3,0-.5-.2-.5-.5v-3.8ZM403.8,35.3v-.6c0-.3.1-.5.5-.5h1.2c.3,0,.5.1.5.5v.5c0,.2-.1.4-.3.5h3.3c.3,0,.5.1.5.5v1c0,.3-.1.5-.5.5h-8c-.3,0-.4-.1-.4-.5v-1c0-.3.1-.5.4-.5h2.6c.3,0,.4,0,.4-.3ZM407.5,47.9c0,2.1-1.5,3.3-4,3.3s-5-.1-6.7-.3c-.3,0-.4-.2-.4-.5v-1c0-.3.3-.5.5-.4,2.1.2,3.7.3,6.7.3s1.8-.6,1.8-1.7,0-1-.1-1.4c0-.3.2-.5.5-.5h1.1c.3,0,.5.2.5.5,0,.4.1,1,.1,1.6ZM381.3,46.3c-2.8,0-3.8.6-3.8,1.5s1,1.5,3.8,1.5,3.8-.6,3.8-1.5-1-1.5-3.8-1.5ZM382.9,43.1h-1.2c-.3,0-.4-.1-.5-.4-.3-1.2-.7-2.8-.7-3.8,0-2.4,1-3.4,3.4-3.4s2.5.1,3.9.3c.3,0,.4.2.4.5v1c0,.3-.2.5-.5.5-1.2-.2-1.9-.3-3.8-.3s-1.4.4-1.4,1.4.3,2.6.7,3.8c0,.3-.1.5-.4.5ZM381.3,51.3c-3.9,0-5.9-1.2-5.9-3.4s2-3.4,5.9-3.4,5.9,1.2,5.9,3.4-2,3.4-5.9,3.4ZM377.8,43.1c0,.3-.2.5-.5.5h-1.1c-.3,0-.5-.2-.5-.5v-7.6c0-.3.2-.5.5-.5h1.1c.3,0,.5.2.5.5v.5c0,.4.1.5.5.5h1.2c.3,0,.4.1.4.5v1c0,.3-.1.5-.4.5h-1c-.3,0-.6-.1-.7-.4v1.6c0,.4.1.5.5.5h1.2c.3,0,.4.1.4.5v1c0,.3-.1.5-.4.5h-1c-.3,0-.6-.1-.7-.4v1.4ZM365.2,51.3c-4.1,0-6.2-1.2-6.2-3.4s2.1-3.4,6.2-3.4,6.2,1.2,6.2,3.4-2.1,3.4-6.2,3.4ZM359.9,35h1.1c.3,0,.4.1.4.5v2.6s.9,0,.9,0c.3,0,.5.1.6.3v-2.7c0-.3.1-.5.5-.5h1.1c.3,0,.4.1.4.5v7.1c0,.3-.1.5-.4.5h-1.1c-.3,0-.5-.1-.5-.5v-2.3c0-.4-.1-.5-.5-.5h-1s0,3.1,0,3.1c0,.3-.1.5-.4.5h-1.1c-.3,0-.4-.1-.4-.5v-7.7c0-.3.1-.5.4-.5ZM370.9,37.3v1.1c0,1.6.9,2.8,2.3,2.8s.4.1.4.5v1c0,.3-.1.5-.4.5-1.4,0-2.8-.9-3.3-2.2-.5,1.3-1.9,2.2-3.3,2.2s-.4-.2-.4-.5v-1c0-.3.1-.5.5-.5,1.4,0,2.3-1.2,2.3-2.8v-1.1s-2.2,0-2.2,0c-.3,0-.4-.1-.4-.5v-1c0-.3.1-.5.4-.5h6.4c.3,0,.5.1.5.5v1c0,.3-.1.5-.5.5h-2.2ZM365.2,46.3c-3,0-4.1.6-4.1,1.5s1.1,1.5,4.1,1.5,4.1-.6,4.1-1.5-1.1-1.5-4.1-1.5ZM352.9,49.9c-1.7,0-3.2,0-4.4-.3-.3,0-.5-.2-.5-.5v-1c0-.3.2-.5.5-.4.7.1,2,.2,3.4.2s.6-.2.6-.6v-4.5c0-.3.2-.5.5-.5h1.1c.3,0,.5.2.5.5v4.4c0,.4-.2.6-.4.8,1,0,1.9-.1,2.8-.3.3,0,.5,0,.5.4v1.1c0,.3-.1.4-.5.5-1.2.2-2.4.3-4.1.3ZM350.7,39.6c0,1.3.1,2.9.5,4.4,0,.3,0,.4-.3.4l-1.2.2c-.3,0-.4,0-.5-.3-.3-1.5-.5-3.4-.5-5.1s.9-3.5,3.5-3.5,3,.1,3.9.3c.3,0,.4.2.4.5v1.1c0,.3-.2.5-.4.4-1.2-.2-2.4-.3-3.7-.3s-1.7.5-1.7,1.9ZM344.9,43.9c0-.4-.2-.6-.6-.6h-1.2c-.3,0-.5-.1-.5-.4v-1.1c0-.3.1-.5.5-.5h1.1c.4,0,.6.1.7.4v-6.2c0-.3.2-.5.5-.5h1.1c.3,0,.5.2.5.5v15c0,.3-.2.5-.5.5h-1.1c-.3,0-.5-.2-.5-.5v-6.6ZM328.5,48.5c-.3,0-.4-.1-.4-.4v-1.1c0-.3.1-.5.4-.5,1.5-.2,2.8-2.1,2.8-4.1v-5.8c0-.3.2-.5.5-.5h1.1c.3,0,.5.2.5.5v5.8c0,2.1,1.3,3.9,2.8,4.1.3,0,.4.2.4.5v1.1c0,.3-.1.4-.4.4-1.7-.2-3.3-1.6-3.8-3.3-.4,1.7-2,3-3.8,3.3ZM324.2,43.9c0-.4-.2-.6-.6-.6h-1.2c-.3,0-.4-.1-.4-.4v-1.1c0-.3.1-.5.4-.5h1.1c.4,0,.6.1.7.4v-6.2c0-.3.2-.5.5-.5h1.1c.3,0,.5.2.5.5v15c0,.3-.2.5-.5.5h-1.1c-.3,0-.5-.2-.5-.5v-6.6ZM317.4,45.5v1.7c0,.4-.2.6-.4.8,1.3,0,2.8-.1,3.7-.3.3,0,.5,0,.5.4v1.1c0,.3-.1.4-.5.5-1.2.2-2.6.3-4.3.3s-3.4,0-4.6-.3c-.3,0-.5-.2-.5-.5v-1c0-.3.2-.5.5-.4.7.1,1.7.2,2.9.2s.6-.2.6-.6v-1.9c-1.8-.3-2.8-1.3-2.8-3s1.4-3.1,3.9-3.1,3.9,1.1,3.9,3.1-1,2.8-3,3.1ZM308.2,35.5c0-.3.2-.5.5-.5h1.1c.3,0,.5.2.5.5v15c0,.3-.2.5-.5.5h-1.1c-.3,0-.5-.2-.5-.5v-15ZM315.4,36v-.8c0-.3.1-.5.4-.5h1.2c.3,0,.4.1.4.5v.7c0,.2-.1.4-.3.5h3.3c.3,0,.4.1.4.4v1.1c0,.3-.1.5-.4.5h-8c-.3,0-.4-.1-.4-.5v-1.1c0-.3.1-.4.4-.4h2.6c.3,0,.4,0,.4-.3ZM316.5,41.2c-1.2,0-1.9.4-1.9,1.2s.7,1.3,1.9,1.3,1.9-.5,1.9-1.3-.6-1.2-1.9-1.2ZM302.7,37.3v.7c0,2,1.2,3.5,2.7,3.5s.4.1.4.5v1c0,.3-.1.4-.4.4-1.9,0-3.3-1.2-3.8-2.7-.5,1.4-1.9,2.7-3.8,2.7s-.4-.1-.4-.4v-1c0-.3.1-.5.4-.5,1.6,0,2.7-1.5,2.7-3.5v-.7s-2.7,0-2.7,0c-.3,0-.4-.1-.4-.5v-1c0-.3.1-.5.4-.5h7.4c.3,0,.4.1.4.5v1c0,.3-.1.5-.4.5h-2.6ZM293.3,47.7c0-2,1-2.9,3.5-2.9s5.3.1,7.2.3c.3,0,.5.2.5.5v1c0,.3-.1.5-.5.4-2.2-.2-4.4-.3-7-.3s-1.7.3-1.7,1.5,0,1.7,0,2.3c0,.3-.2.5-.5.5h-1.1c-.3,0-.5-.2-.5-.5,0-.6,0-1.6,0-2.8ZM295.3,37.9c0,.4.2.6.6.6h1.4c.3,0,.4.1.4.5v1c0,.3-.1.5-.4.5h-1.3c-.4,0-.6-.1-.7-.4v3.1c0,.3-.2.5-.5.5h-1.1c-.3,0-.5-.2-.5-.5v-7.6c0-.3.2-.5.5-.5h1.1c.3,0,.5.2.5.5v2.4ZM278.7,46.3c-2.8,0-3.8.6-3.8,1.5s1,1.5,3.8,1.5,3.8-.6,3.8-1.5-1-1.5-3.8-1.5ZM278.7,51.3c-3.9,0-5.9-1.2-5.9-3.4s2-3.4,5.9-3.4,5.9,1.2,5.9,3.4-2,3.4-5.9,3.4ZM281.1,35.4h1.1c.3,0,.5.2.5.5v2c0,1.9,1.2,3.3,2.7,3.3s.5.1.5.5v1c0,.3-.1.5-.5.5-1.9,0-3.3-1.2-3.8-2.6-.5,1.4-1.9,2.6-3.8,2.6s-.4-.1-.4-.5v-1c0-.3.1-.5.4-.5,1.6,0,2.7-1.4,2.7-3.3v-2c0-.3.2-.5.5-.5ZM275.3,37c0,.4.2.6.6.6h2c.3,0,.4.1.4.5v1c0,.3-.1.5-.4.5h-1.9c-.4,0-.6-.1-.7-.4v4c0,.3-.2.5-.5.5h-1.1c-.3,0-.5-.2-.5-.5v-7.6c0-.3.2-.5.5-.5h1.1c.3,0,.5.2.5.5v1.5ZM263.7,46.8c-2.7,0-3.8.3-3.8,1.3s1.1,1.3,3.8,1.3,3.8-.3,3.8-1.3-1.1-1.3-3.8-1.3ZM263.9,44c-2.5,0-5.1,0-6.4-.2-.3,0-.4-.2-.4-.5v-1c0-.3.2-.5.5-.4,1.3.1,4.3.2,5.7.1.3,0,.5-.2.5-.4v-2c0-.3.2-.5.5-.5h1.1c.3,0,.5.2.5.5v1.9c0,.2-.1.4-.3.5,1.7,0,3.3,0,4.6-.2.3,0,.5.1.5.4v1c0,.3-.1.5-.4.5-1.1.1-3,.2-6.3.2ZM260.7,40.6c0,.3,0,.4-.3.4l-1.2.2c-.3,0-.4,0-.5-.3-.2-.7-.2-1.4-.2-2.4,0-2.1,1.2-3,3.7-3s4.7.1,6.6.3c.3,0,.4.2.4.5v1c0,.3-.2.5-.4.4-2.2-.2-4.1-.3-6.4-.3s-1.8.5-1.8,1.7,0,1,.2,1.6ZM263.7,51.3c-4,0-5.9-1-5.9-3.2s1.9-3.2,5.9-3.2,5.9,1,5.9,3.2-1.9,3.2-5.9,3.2ZM248.1,36.9c-2.7,0-3.5.3-3.5,1.1s.8,1.1,3.5,1.1,3.5-.3,3.5-1.1-.8-1.1-3.5-1.1ZM242.1,50.5v-.8c0-.3.2-.4.5-.4,1.3.2,3.4.3,4.8.3,3.7,0,4.4,0,4.4-.6s-.4-.6-3.4-.6-4.2,0-5.3,0c-.3,0-.4-.1-.4-.4v-.7c0-.3.1-.4.4-.4h.6c-.7-.2-1.2-.8-1.2-1.5s.4-1.3,1.7-1.3c2.3,0,6.2,0,8.9.2.3,0,.4.1.4.4v.8c0,.3-.1.4-.4.4-2-.1-5.8-.3-7.7-.3s-.8.2-.8.6.2.5.9.5c.9,0,2,0,3,0,4.3,0,5.4.5,5.4,2.2s-1.2,2.3-6.5,2.3-3.5-.1-4.9-.3c-.3,0-.4-.2-.4-.4ZM248.2,41.6c2.1,0,4.6,0,6.3-.2.3,0,.4.1.4.4v.9c0,.3-.1.4-.4.4-1.1.1-3.1.2-6.4.2-2.5,0-5.1,0-6.4-.2-.3,0-.4-.2-.4-.5v-.9c0-.3.2-.4.4-.4,1.4.1,3.4.2,6.4.2ZM248.1,40.8c-4,0-5.6-.8-5.6-2.8s1.6-2.8,5.6-2.8,5.6.8,5.6,2.8-1.6,2.8-5.6,2.8ZM227.6,46.3c-2.8,0-3.6.6-3.6,1.5s.9,1.5,3.6,1.5,3.6-.6,3.6-1.5-.9-1.5-3.6-1.5ZM228.7,43.1h-1.2c-.3,0-.4-.1-.5-.4-.3-1.2-.7-2.8-.7-3.8,0-2.4,1-3.4,3.4-3.4s2.7.1,4.1.3c.3,0,.4.2.4.5v1c0,.3-.2.5-.5.5-1.2-.2-2-.3-4-.3s-1.4.4-1.4,1.4.3,2.6.7,3.8c0,.3-.1.5-.4.5ZM227.6,51.3c-3.8,0-5.7-1.2-5.7-3.4s1.9-3.4,5.7-3.4,5.7,1.2,5.7,3.4-1.9,3.4-5.7,3.4ZM222.3,40.5c0-.4-.2-.6-.6-.6h-1.2c-.3,0-.4-.1-.4-.5v-1c0-.3.1-.5.4-.5h1.1c.4,0,.6.1.7.4v-2.9c0-.3.2-.5.5-.5h1.1c.3,0,.5.2.5.5v7.6c0,.3-.2.5-.5.5h-1.1c-.3,0-.5-.2-.5-.5v-2.6ZM216.6,36c.3,0,.4.1.4.4v1.1c0,.3-.1.5-.4.5h-3.8s0,1,0,1c0,2.2,1.7,3.8,4.1,3.8s.5.1.5.4v1.1c0,.5-.3.5-.6.5-2.1,0-4.2-1.2-4.9-3-.8,1.8-2.8,3-4.9,3s-.6,0-.6-.5v-1.1c0-.3.1-.4.5-.4,2.4,0,4.1-1.6,4.1-3.8v-1s-3.8,0-3.8,0c-.3,0-.5-.1-.5-.5v-1.1c0-.3.1-.4.5-.4h9.7ZM211.9,49.6c-2.8,0-5.1-.1-6.4-.3-.3,0-.5-.2-.5-.5v-1c0-.3.2-.5.5-.4,1.2.2,3.1.3,4.6.3s.6-.2.6-.6v-2.2c0-.3.2-.5.5-.5h1.1c.3,0,.5.2.5.5v2.1c0,.4-.2.6-.5.8,2,0,4.4-.2,5.7-.3.3,0,.5.1.5.4v1c0,.3-.1.4-.4.5-1.4.2-3.5.3-6.3.3ZM197.2,44.1c0,1.6.7,2.5,1.9,2.5s1.9-.8,1.9-2.5-.7-2.4-1.9-2.4-1.9.8-1.9,2.4ZM199.1,39.6c2.5,0,3.9,1.6,3.9,4.4s-1.5,4.4-3.9,4.4-3.9-1.6-3.9-4.4,1.5-4.4,3.9-4.4ZM191,43.9c0-.4-.2-.6-.6-.6h-1.2c-.3,0-.5-.1-.5-.4v-1.1c0-.3.1-.5.5-.5h1.1c.4,0,.6.1.7.4v-6.2c0-.3.2-.5.5-.5h1.1c.3,0,.5.2.5.5v15c0,.3-.2.5-.5.5h-1.1c-.3,0-.5-.2-.5-.5v-6.6ZM198,36.2v-1.2c0-.3.1-.5.4-.5h1.2c.3,0,.5.1.5.5v1c0,.2-.1.4-.3.5h3.3c.3,0,.4.1.4.5v1.1c0,.3-.1.4-.4.4h-8c-.3,0-.5-.1-.5-.4v-1.1c0-.3.1-.5.5-.5h2.6c.3,0,.4,0,.4-.3ZM179.4,40c0-2.8,1-3.9,3.5-3.9s2.6.1,3.9.3c.3,0,.4.2.4.5v1c0,.3-.2.5-.5.5-1.2-.2-2.2-.3-3.5-.3s-1.8.5-1.8,2.1c0,2.6.2,5.2.7,7.8,0,.3-.1.5-.5.5h-1.2c-.3,0-.4-.1-.5-.4-.4-2.6-.7-5.2-.7-8.1ZM177,50.5c0,.3-.2.5-.5.5h-1.1c-.3,0-.5-.2-.5-.5v-15c0-.3.2-.5.5-.5h1.1c.3,0,.5.2.5.5v15ZM165.6,49.6c-2.8,0-5.1-.1-6.4-.3-.3,0-.4-.2-.4-.5v-1c0-.3.2-.5.5-.4,1.2.2,3.1.3,4.6.3s.6-.2.6-.6v-2.3s-2,0-2,0c-1.3,0-2.2-.7-2.2-1.9l-.3-6.5c0-.3.2-.5.5-.5h1.1c.3,0,.4.2.5.5v1.8c0,0,6.8,0,6.8,0v-1.8c0-.3.3-.5.5-.5h1.1c.3,0,.5.2.5.5l-.3,6.5c0,1.2-.9,1.9-2.2,1.9h-2s0,2.1,0,2.1c0,.4-.2.6-.4.8,2,0,4.4-.2,5.7-.3.3,0,.5.1.5.4v1c0,.3-.1.4-.5.5-1.3.2-3.5.3-6.3.3ZM162.2,40.1v2c0,.5.4.7.9.7h4.9c.5,0,.8-.3.8-.7v-2c0,0-6.6,0-6.6,0ZM151.6,38.1c-.9,0-1.5,0-2.3.2-.3,0-.5-.1-.5-.5v-1.1c0-.3.1-.4.5-.5.7-.1,1.4-.1,2.4-.1,3.4,0,5,1.9,5,6.3s-1.6,6.3-4.9,6.3-2.2-.3-3.3-.7c-.4-.1-.5-.3-.4-.6l.3-1c0-.3.2-.4.3-.4s.1,0,.2,0c1.1.5,2,.7,2.7.7,2,0,2.9-1.4,2.9-4.3s-.8-4.3-3.1-4.3ZM144.7,43.9c0-.4-.2-.6-.6-.6h-1.2c-.3,0-.4-.1-.4-.4v-1.1c0-.3.1-.5.4-.5h1.1c.4,0,.6.1.7.4v-6.2c0-.3.2-.5.5-.5h1.1c.3,0,.5.2.5.5v15c0,.3-.2.5-.5.5h-1.1c-.3,0-.5-.2-.5-.5v-6.6ZM132.2,42.1c1.2,0,2-1,2-2.5s-.8-2.5-2-2.5-2,1-2,2.5.8,2.5,2,2.5ZM132.2,35.3c2.4,0,4,1.7,4,4.4s-1.6,4.4-4,4.4-4.1-1.7-4.1-4.4,1.6-4.4,4.1-4.4ZM124,41.8c0-.4-.2-.6-.6-.6h-1.2c-.3,0-.4-.1-.4-.4v-1c0-.3.1-.5.4-.5h1.1c.4,0,.6.1.7.4v-4.2c0-.3.2-.5.5-.5h1.1c.3,0,.5.2.5.5v10.1c0,.3-.2.5-.5.5h-1.1c-.3,0-.5-.2-.5-.5v-3.8ZM134.7,47.9c0,2.1-1.5,3.3-4,3.3s-5-.1-6.7-.3c-.3,0-.4-.2-.4-.5v-1c0-.3.3-.5.5-.4,2.1.2,3.7.3,6.7.3s1.8-.6,1.8-1.7,0-1.3-.1-1.8c0-.3.2-.5.5-.5h1.1c.3,0,.5.2.5.5,0,.5.1,1.2.1,2ZM113.6,45.3c-2.5,0-5.1,0-6.4-.2-.3,0-.5-.2-.5-.5v-1c0-.3.2-.5.5-.4,1.3.1,3.4.2,4.8.1.3,0,.5-.2.5-.5v-.8c-3.3-.2-4.7-1.3-4.7-3.4s1.7-3.4,5.6-3.4,5.6,1.1,5.6,3.4-1.4,3.2-4.4,3.4v.8c0,.2-.1.4-.3.5,1.8,0,4.2,0,5.5-.2.3,0,.5.1.5.4v1c0,.3-.1.5-.4.5-1.1.1-3,.2-6.3.2ZM119.1,48c0,2.1-1.4,3.3-3.8,3.3s-5.6-.1-7.4-.3c-.3,0-.4-.2-.4-.5v-1c0-.3.3-.5.5-.4,2.1.2,4.2.3,7.4.3s1.7-.5,1.7-1.5,0-.9-.1-1.3c0-.3.1-.5.4-.5h1.1c.3,0,.5.2.5.5,0,.4.1.8.1,1.4ZM116.9,38.7c0-1.1-.9-1.6-3.5-1.6s-3.5.5-3.5,1.6.9,1.6,3.5,1.6,3.5-.5,3.5-1.6ZM102.6,41.4c0-.8-.5-1.1-1.9-1.1s-1.9.4-1.9,1.1.5,1.1,1.9,1.1,1.9-.4,1.9-1.1ZM100.8,44.4c-2.6,0-3.9-1-3.9-3s1.3-3,3.9-3,3.9,1,3.9,3-1.3,3-3.9,3ZM92.7,41.8c0-.4-.2-.6-.6-.6h-1.2c-.3,0-.5-.1-.5-.4v-1c0-.3.1-.5.5-.5h1.1c.4,0,.6.1.7.4v-4.2c0-.3.2-.5.5-.5h1.1c.3,0,.5.2.5.5v10.1c0,.3-.2.5-.5.5h-1.1c-.3,0-.5-.2-.5-.5v-3.8ZM99.7,35.3v-.6c0-.3.1-.5.4-.5h1.2c.3,0,.4.1.4.5v.5c0,.2-.1.4-.3.5h3.3c.3,0,.4.1.4.5v1c0,.3-.1.5-.4.5h-8c-.3,0-.4-.1-.4-.5v-1c0-.3.1-.5.4-.5h2.6c.3,0,.4,0,.4-.3ZM103.3,47.9c0,2.1-1.5,3.3-4,3.3s-5-.1-6.7-.3c-.3,0-.5-.2-.4-.5v-1c0-.3.3-.5.5-.4,2.1.2,3.7.3,6.7.3s1.8-.6,1.8-1.7,0-1-.1-1.4c0-.3.2-.5.5-.5h1.1c.3,0,.5.2.5.5,0,.4.1,1,.1,1.6ZM74.6,49.3c.4,0,.5-.1.5-.5v-3c0-.3-.2-.4-.6-.4-.7,0-1,.4-1,1.7s.4,2.3,1,2.3ZM77.4,50.5l.2-.9c0-.3.2-.4.5-.3.6.1,1.2.2,1.9.2s1.2-.2,1.2-.7-.3-.6-.9-.6-1.5,0-2.1,0c-.3,0-.4-.1-.4-.4v-.8c0-.3.1-.4.4-.4h.6c-.7-.3-1.1-.8-1.1-1.6,0-1.4,1.1-1.4,2.2-1.4s1.6,0,2.5.2c.3,0,.4.1.4.4v1c0,.3-.1.4-.4.4-.9-.2-1.5-.3-1.9-.3s-.8.2-.8.6.3.6.8.6c1.8,0,2.7.7,2.7,2.3s-1,2.5-3.4,2.5-1.6-.1-2.2-.3c-.3,0-.3-.2-.3-.5ZM77,44.5v5.4c0,.8-.5,1.2-1.5,1.2h-3.5c-.3,0-.5-.1-.5-.5v-1c0-.3.1-.5.5-.5h.8c-.6-.5-1.2-1.6-1.2-3s.8-2.5,2.2-2.5h2.4c.5,0,.7.3.7.8ZM79.5,35.4h1.1c.3,0,.5.2.5.5v1.6c0,1.8,1.2,3.2,2.7,3.2s.5.1.5.4v1c0,.3-.1.5-.5.5-1.9,0-3.3-1.2-3.8-2.5-.5,1.3-1.9,2.5-3.8,2.5s-.4-.1-.4-.5v-1c0-.3.1-.4.4-.4,1.6,0,2.7-1.4,2.7-3.2v-1.6c0-.3.2-.5.5-.5ZM72,40.1c0-.4-.2-.6-.6-.6h-1.2c-.3,0-.5-.1-.5-.5v-1c0-.3.1-.5.5-.5h1.1c.4,0,.6.1.7.4v-2.5c0-.3.2-.5.5-.5h1.1c.3,0,.5.2.5.5v6.7c0,.3-.2.5-.5.5h-1.1c-.3,0-.5-.2-.5-.5v-2.1ZM61.4,36.9c-2.7,0-3.5.3-3.5,1.1s.8,1.1,3.5,1.1,3.5-.3,3.5-1.1-.8-1.1-3.5-1.1ZM55.4,50.5v-.8c0-.3.2-.4.5-.4,1.4.2,3.4.3,4.8.3,3.7,0,4.4,0,4.4-.6s-.4-.6-3.4-.6-4.2,0-5.3,0c-.3,0-.4-.1-.4-.4v-.7c0-.3.1-.4.4-.4h.6c-.7-.2-1.2-.8-1.2-1.5s.5-1.3,1.7-1.3c2.3,0,6.2,0,8.9.2.3,0,.4.1.4.4v.8c0,.3-.1.4-.4.4-2-.1-5.9-.3-7.7-.3s-.8.2-.8.6.2.5.9.5c.9,0,2,0,3,0,4.3,0,5.4.5,5.4,2.2s-1.2,2.3-6.5,2.3-3.5-.1-4.9-.3c-.3,0-.4-.2-.4-.4ZM61.5,41.6c2.1,0,4.6,0,6.3-.2.3,0,.5.1.5.4v.9c0,.3-.1.4-.4.4-1.1.1-3.1.2-6.4.2-2.5,0-5.1,0-6.4-.2-.3,0-.4-.2-.4-.5v-.9c0-.3.2-.4.5-.4,1.4.1,3.4.2,6.4.2ZM61.4,40.8c-4,0-5.6-.8-5.6-2.8s1.6-2.8,5.6-2.8,5.6.8,5.6,2.8-1.6,2.8-5.6,2.8ZM433.1,70.1v3.7c.1.5.4.7.9.7h1.9c.5,0,.8-.2.8-.7v-3.7c.1,0-3.5,0-3.5,0ZM431.3,64.2h1.1c.3,0,.5.2.5.4v3.5c0,0,3.9,0,3.9,0v-3.5c0-.3.3-.4.6-.4h1.1c.3,0,.5.2.5.5l-.3,9.9c0,1.2-.8,1.9-2.2,1.9h-3.2c-1.4,0-2.2-.7-2.2-1.9l-.3-9.9c0-.3.2-.5.5-.5ZM426.7,71.9c0-.4-.2-.6-.6-.6h-1.2c-.3,0-.5-.1-.5-.5v-1.1c0-.3.1-.5.5-.5h1.1c.4,0,.6.1.7.4v-6.2c0-.3.2-.5.5-.5h1.1c.3,0,.5.2.5.5v15c0,.3-.2.5-.5.5h-1.1c-.3,0-.5-.2-.5-.5v-6.6ZM421.1,73c0-1.3-.8-1.8-2.9-1.8s-1.5,0-2.5,0-.4-.1-.4-.4v-1c0-.3.1-.4.4-.4h.6c-.7-.6-1.1-1.5-1.1-2.6,0-1.7,1.1-2.6,3.3-2.6s2.4,0,3.7.2c.3,0,.4.2.4.4v1.2c0,.3-.2.4-.5.4-1.4-.2-2.5-.3-3.2-.3-1.2,0-1.7.5-1.7,1.6s.5,1.6,1.6,1.6c2.9,0,4.3,1.2,4.3,3.6s-1.4,3.8-4.3,3.8-2.5-.2-3.9-.7c-.3-.1-.4-.3-.3-.6l.3-1.1c0-.2.2-.3.3-.3s.1,0,.2,0c1,.4,2.1.7,3,.7,1.9,0,2.6-.5,2.6-1.8ZM411.1,71.9c0-.4-.2-.6-.6-.6h-1.2c-.3,0-.5-.1-.5-.5v-1.1c0-.3.1-.5.5-.5h1.1c.4,0,.6.1.7.4v-6.2c0-.3.2-.5.5-.5h1.1c.3,0,.5.2.5.5v15c0,.3-.2.5-.5.5h-1.1c-.3,0-.5-.2-.5-.5v-6.6ZM405.9,66.8c0,2.1-1.3,3.3-3.7,3.3s-5.3-.1-7.1-.3c-.3,0-.5-.2-.4-.5v-1c0-.3.3-.5.5-.4,2.1.2,4,.3,6.8.3s1.7-.5,1.7-1.5,0-2-.1-2.8c0-.3.1-.5.4-.5h1.1c.3,0,.5.2.5.5,0,.8.1,2.2.1,2.9ZM406.2,76c0,2.1-1.4,3.3-3.8,3.3s-5.6-.1-7.4-.3c-.3,0-.4-.2-.4-.4v-1c0-.3.3-.5.5-.4,2.1.2,4.2.3,7.4.3s1.7-.5,1.7-1.5,0-.9-.1-1.3c0-.3.1-.5.4-.5h1.1c.3,0,.5.2.5.5,0,.4.1.8.1,1.4ZM407.4,71.5v1c0,.3-.1.4-.5.5-1.1.1-3,.2-6.3.2-2.5,0-5.1,0-6.4-.2-.3,0-.4-.2-.4-.5v-1c0-.3.2-.5.5-.4,1.3.1,3.4.2,6.3.2s4.6,0,6.3-.2c.3,0,.5.1.5.4ZM379,76.5c-.3,0-.5-.1-.5-.4v-1.1c0-.3.1-.4.4-.5,1.5-.2,2.8-2.1,2.8-4.1v-5.8c0-.3.2-.5.5-.5h1.1c.3,0,.5.2.5.5v5.8c0,2.1,1.3,3.9,2.8,4.1.3,0,.4.2.4.5v1.1c0,.3-.1.4-.4.4-1.7-.2-3.3-1.6-3.8-3.3-.5,1.7-2,3-3.8,3.3ZM374.7,71.9c0-.4-.2-.6-.6-.6h-1.2c-.3,0-.5-.1-.5-.5v-1.1c0-.3.1-.5.5-.5h1.1c.4,0,.6.1.7.4v-6.2c0-.3.2-.5.5-.5h1.1c.3,0,.5.2.5.5v15c0,.3-.2.5-.5.5h-1.1c-.3,0-.5-.2-.5-.5v-6.6ZM367.1,77.2c.4,0,.7-.2.7-.6v-1.4c0-.3-.2-.4-.4-.4h-5.2c-.8,0-1.2.2-1.2.9s.7,1.5,1.6,1.5h4.5ZM362.6,70.4l.3-1c0-.2.2-.3.3-.3s.1,0,.2,0c.9.3,2.2.6,3.1.6,2,0,2.5-.1,2.5-.7s-.7-.8-3-.8-1.4,0-2.3,0c-.3,0-.4-.1-.4-.4v-.9c0-.3.1-.4.4-.4h.4c-.6-.4-1-.9-1-1.6,0-1.2.8-1.6,3.1-1.6,1.6,0,2.6,0,3.9.2.3,0,.4.2.4.5v1c0,.3-.2.4-.5.4-1.4-.2-2.7-.3-3.4-.3-1.1,0-1.4.1-1.4.6s.4.6,1.3.6c3.3,0,4.6.7,4.6,2.6s-1.2,2.6-4.2,2.6-3.1-.3-4-.6c-.3-.1-.4-.3-.3-.6ZM358.9,74.8c0-1.3.8-1.9,2.2-1.9h7.9c.5,0,.8.3.8.8v3.8c0,1-.7,1.6-1.9,1.6h-8.9c-.3,0-.4-.1-.4-.4v-1c0-.3.1-.5.4-.5h1.3c-.9-.5-1.5-1.4-1.5-2.4ZM359,68.5c0-.4-.2-.6-.6-.6h-1.2c-.3,0-.4-.1-.4-.4v-1c0-.3.1-.4.4-.4h1.1c.4,0,.6.1.7.4v-2.9c0-.3.2-.5.5-.5h1.1c.3,0,.5.2.5.5v7.6c0,.3-.2.5-.5.5h-1.1c-.3,0-.5-.2-.5-.5v-2.6ZM342.5,78.5v-.8c0-.3.2-.4.5-.4,1.3.2,3.4.3,4.8.3,3.7,0,4.4,0,4.4-.6s-.4-.6-3.4-.6-4.2,0-5.3,0c-.3,0-.4-.1-.4-.4v-.7c0-.3.1-.4.4-.4h.6c-.7-.2-1.2-.8-1.2-1.5s.4-1.3,1.7-1.3c2.3,0,6.2,0,8.9.2.3,0,.4.1.4.4v.8c0,.3-.1.4-.4.4-2-.1-5.8-.3-7.7-.3s-.8.2-.8.6.2.5.9.5c.9,0,2,0,3,0,4.3,0,5.4.5,5.4,2.2s-1.2,2.3-6.5,2.3-3.5-.1-4.9-.3c-.3,0-.4-.2-.4-.4ZM348.6,69.6c2.1,0,4.6,0,6.3-.2.3,0,.4.1.4.4v.9c0,.3-.1.4-.4.4-1.1.1-3.1.2-6.4.2-2.5,0-5.1,0-6.4-.2-.3,0-.4-.2-.4-.4v-.9c0-.3.2-.4.4-.4,1.4.1,3.4.2,6.4.2ZM343.4,64.9v-.9c0-.3.1-.4.4-.4,2.3-.1,3.1-.2,4.1-.2,4.7,0,6.3.6,6.3,2.7s-1.5,2.7-6,2.7-2.6-.1-4.6-.3c-.3,0-.4-.1-.4-.4v-.9c0-.3.2-.4.5-.4,1.6.2,3.3.3,4.8.3,2.9,0,3.7-.2,3.7-1s-.9-1-4.1-1-1.9,0-4.2.2c-.3,0-.4-.1-.4-.4ZM335.9,64c2.8,0,4,2,4,6.4,0,4.4-1.3,6.5-4,6.5s-4-2-4-6.5c0-4.5,1.2-6.4,4-6.4ZM333.9,70.4c0,3.2.6,4.5,2,4.5s2-1.3,2-4.5-.6-4.5-2-4.5-2,1.3-2,4.5ZM329.4,78.5c0,.3-.2.5-.5.5h-1.1c-.3,0-.5-.2-.5-.5v-15c0-.3.2-.5.5-.5h1.1c.3,0,.5.2.5.5v15ZM306.8,78.5v-.8c0-.3.2-.4.5-.4,1.4.2,3.4.3,4.8.3,3.7,0,4.4,0,4.4-.6s-.4-.6-3.4-.6-4.2,0-5.3,0c-.3,0-.4-.1-.4-.4v-.7c0-.3.1-.4.4-.4h.6c-.7-.2-1.2-.8-1.2-1.5s.4-1.3,1.7-1.3c2.3,0,6.2,0,8.9.2.3,0,.4.1.4.4v.8c0,.3-.1.4-.4.4-2-.1-5.9-.3-7.7-.3s-.8.2-.8.6.2.5.9.5c.9,0,2,0,3,0,4.3,0,5.4.5,5.4,2.2s-1.2,2.3-6.5,2.3-3.5-.1-4.9-.3c-.3,0-.4-.2-.4-.4ZM312.9,69.6c2.1,0,4.6,0,6.3-.2.3,0,.4.1.4.4v.9c0,.3-.1.4-.4.4-1.1.1-3.1.2-6.4.2-2.5,0-5.1,0-6.4-.2-.3,0-.4-.2-.4-.4v-.9c0-.3.2-.4.4-.4,1.4.1,3.4.2,6.4.2ZM318.2,65.8c0,2-1.2,3-3.5,3s-5.5-.1-7.2-.3c-.3,0-.4-.2-.4-.4v-1c0-.3.3-.5.5-.4,2.1.2,4.2.3,7,.3s1.5-.4,1.5-1.3,0-1.2-.1-1.7c0-.3.1-.5.4-.5h1.1c.3,0,.5.2.5.5,0,.5.1,1.2.1,1.9ZM297.3,77.6c-2.8,0-5.2-.1-6.4-.3-.3,0-.4-.2-.4-.5v-1c0-.3.2-.5.5-.4,1.2.1,3.6.3,5.5.3s.6-.2.6-.6v-4.1c0-.3.2-.5.5-.5h1.1c.3,0,.5.2.5.5v4c0,.4-.2.6-.4.8,1.5,0,3.3-.2,4.8-.3.3,0,.5.1.5.4v1c0,.3-.1.4-.4.5-1.3.2-3.5.3-6.3.3ZM296.4,65.9c-1.9,0-2.6.8-2.6,2.8s.1,2.5.3,3.4c0,.3,0,.4-.3.5l-1.2.2c-.3,0-.4,0-.5-.3-.3-1.3-.3-2.4-.3-4.1,0-2.8,1.5-4.4,4.2-4.4s4.1,0,6.1.3c.3,0,.5.2.5.5v1.1c0,.3-.2.5-.5.4-1.8-.2-3.6-.3-5.7-.3ZM279.5,69.6c1.2,0,2-.9,2-2.2s-.8-2.2-2-2.2-2,.8-2,2.2.8,2.2,2,2.2ZM273.8,77.2c-.5,1.1-1.7,1.9-3,1.9s-.6,0-.6-.5v-1c0-.3.1-.4.4-.4,1.3,0,2.2-1,2.2-2.3v-1.7c0-.3.2-.5.5-.5h1.1c.3,0,.5.2.5.5v2.1c0,1.1.6,1.9,1.7,1.9s1.7-.8,1.7-1.9v-2.1c0-.3.2-.5.5-.5h1.1c.3,0,.5.2.5.5v1.7c0,1.3.9,2.3,2.2,2.3s.4.1.4.4v1c0,.4-.3.5-.6.5-1.4,0-2.5-.8-3-1.9-.4,1.1-1.5,1.9-2.7,1.9s-2.3-.8-2.7-1.9ZM279.5,63.3c2.5,0,4,1.6,4,4.1s-1.6,4.1-4,4.1-4.1-1.6-4.1-4.1,1.6-4.1,4.1-4.1ZM273.1,70.9c0,.3-.2.5-.5.5h-1.1c-.3,0-.5-.2-.5-.5v-7.4c0-.3.2-.5.5-.5h1.1c.3,0,.5.2.5.5v7.4ZM263.3,66.1c-.9,0-1.5,0-2.3.2-.3,0-.5-.1-.5-.4v-1.1c0-.3.1-.4.5-.5.7-.1,1.4-.1,2.4-.1,3.4,0,5,1.9,5,6.3,0,4.1-1.6,6.3-4.9,6.3s-2.2-.3-3.3-.7c-.4-.1-.5-.3-.4-.6l.3-1c0-.3.2-.4.3-.4s.1,0,.2,0c1.1.4,2,.7,2.7.7,2,0,2.9-1.4,2.9-4.3s-.8-4.3-3.1-4.3ZM256.4,71.9c0-.4-.2-.6-.6-.6h-1.2c-.3,0-.4-.1-.4-.5v-1.1c0-.3.1-.5.4-.5h1.1c.4,0,.6.1.7.4v-6.2c0-.3.2-.5.5-.5h1.1c.3,0,.5.2.5.5v15c0,.3-.2.5-.5.5h-1.1c-.3,0-.5-.2-.5-.5v-6.6ZM251.4,79.4c-.8,0-1.4-.5-1.4-1.3s.6-1.3,1.4-1.3,1.3.5,1.3,1.3-.6,1.3-1.3,1.3ZM235.1,75.4l.3-1c0-.3.2-.4.3-.4s.1,0,.2,0c1,.4,1.9.7,2.7.7,1.8,0,2.5-.8,2.5-3s-.1-4.6-.4-7c0-.3.1-.5.5-.5h1.1c.3,0,.5.1.5.4.3,2.2.4,4.2.4,6.9s-1.5,5.2-4.4,5.2-2.1-.2-3.3-.7c-.4-.1-.5-.3-.4-.6ZM232.9,67.8c0,.4.2.6.6.6h3.1c.3,0,.4.1.4.5v1.1c0,.3-.1.5-.4.5h-3c-.4,0-.6-.1-.7-.4v8.5c0,.3-.2.5-.5.5h-1.1c-.3,0-.5-.2-.5-.5v-15c0-.3.2-.5.5-.5h1.1c.3,0,.5.2.5.5v4.3ZM224,69.1c.4,0,.7-.2.7-.6v-2.8c0-.3-.2-.4-.4-.4h-4.7c-1.1,0-1.5.3-1.5,1.4,0,1.4.7,2.4,1.8,2.4h4.1ZM215.1,74.3c-.3,0-.4-.2-.4-.5v-1c0-.3.2-.5.5-.4,1.4.2,3.8.3,6.3.3s4.6-.1,6.3-.3c.3,0,.5.1.5.4v1c0,.3-.1.5-.4.5-1.3.2-3.8.3-5.8.3.3.1.5.4.5.8v2.5c0,.3-.2.5-.5.5h-1.1c-.3,0-.5-.2-.5-.5v-2.7c0-.4-.2-.6-.6-.6-1.5,0-3.5-.1-4.7-.3ZM216,65.8c0-1.6.8-2.4,2.6-2.4h7.3c.5,0,.8.3.8.8v5.1c0,1-.7,1.6-1.9,1.6h-8.7c-.3,0-.4-.1-.4-.4v-1c0-.3.1-.5.4-.5h1.5c-1-.6-1.7-1.8-1.7-3.3ZM199.6,79.3c-4.1,0-6.2-1.1-6.2-3.2s2.1-3.2,6.2-3.2,6.2,1.1,6.2,3.2-2.1,3.2-6.2,3.2ZM194.2,63h1.1c.3,0,.5.1.5.5v2.8s.9,0,.9,0c.3,0,.5.1.6.3v-2.9c0-.3.1-.5.4-.5h1.1c.3,0,.4.1.4.5v7.5c0,.3-.1.4-.4.4h-1.1c-.3,0-.4-.1-.4-.4v-2.4c0-.4-.1-.5-.5-.5h-1s0,3.3,0,3.3c0,.3-.1.4-.5.4h-1.1c-.3,0-.5-.1-.5-.4v-8c0-.3.1-.5.5-.5ZM204.4,71.7c-2.1,0-3.3-1-3.3-2.7s1.2-2.7,3.3-2.7,3.3,1,3.3,2.7-1.2,2.7-3.3,2.7ZM199.6,74.7c-3,0-4.1.5-4.1,1.3s1,1.3,4.1,1.3,4.1-.5,4.1-1.3-1-1.3-4.1-1.3ZM203.8,62.2h1.1c.3,0,.5.1.5.5v.5c0,.2-.1.4-.3.5h2.7c.3,0,.4.1.4.5v1c0,.3-.1.5-.4.5h-6.9c-.3,0-.4-.1-.4-.5v-1c0-.3.1-.5.4-.5h2.1c.3,0,.4,0,.4-.3v-.6c0-.3.1-.5.5-.5ZM205.8,69c0-.6-.5-.9-1.4-.9s-1.4.3-1.4.9.5.9,1.4.9,1.4-.3,1.4-.9ZM179.2,67.9l-.3-4c0-.3.2-.5.5-.5h1.1c.3,0,.4.2.5.5v.7s6.9,0,6.9,0v-.7c0-.3.2-.5.5-.5h1.1c.3,0,.5.2.5.5l-.3,4c0,1.1-.8,1.7-2,1.7h-2.2s0,.9,0,.9c0,.2-.1.4-.3.5,1.8,0,4.2,0,5.5-.2.3,0,.5.1.5.4v1c0,.3-.1.5-.5.5-1.1.1-3,.2-6.3.2-2.5,0-5.1,0-6.4-.2-.3,0-.5-.2-.5-.5v-1c0-.3.2-.5.5-.4,1.3.1,3.4.2,4.8.1.3,0,.5-.2.5-.4v-1s-2.2,0-2.2,0c-1.3,0-2-.6-2-1.7ZM178.7,76.5c0-2.1.9-2.8,3.4-2.8s5,.1,7.4.3c.3,0,.5.2.5.5v1c0,.3-.1.5-.5.4-2.5-.2-4.9-.3-7.3-.3s-1.5.3-1.5,1.5,0,1,0,1.5c0,.3-.2.5-.5.5h-1.1c-.3,0-.5-.2-.5-.5,0-.6-.1-1.1-.1-2.1ZM181.2,66.4v.7c0,.5.3.7.9.7h4.9c.5,0,.8-.2.8-.7v-.7c0,0-6.5,0-6.5,0ZM169.8,72.1c0,1.6.7,2.5,1.9,2.5s1.9-.8,1.9-2.5-.7-2.4-1.9-2.4-1.9.8-1.9,2.4ZM171.7,67.6c2.5,0,3.9,1.6,3.9,4.4s-1.5,4.4-3.9,4.4-3.9-1.6-3.9-4.4,1.5-4.4,3.9-4.4ZM163.6,71.9c0-.4-.2-.6-.6-.6h-1.2c-.3,0-.5-.1-.5-.5v-1.1c0-.3.1-.5.5-.5h1.1c.4,0,.6.1.7.4v-6.2c0-.3.2-.5.5-.5h1.1c.3,0,.5.2.5.5v15c0,.3-.2.5-.5.5h-1.1c-.3,0-.5-.2-.5-.5v-6.6ZM170.6,64.2v-1.2c0-.3.1-.5.4-.5h1.2c.3,0,.4.1.4.5v1c0,.2-.1.4-.3.5h3.3c.3,0,.4.1.4.5v1.1c0,.3-.1.5-.4.5h-8c-.3,0-.4-.1-.4-.5v-1.1c0-.3.1-.5.4-.5h2.6c.3,0,.4,0,.4-.3ZM152.4,68c0-2.8,1-3.9,3.5-3.9s2.4.1,3.8.3c.3,0,.4.2.4.5v1c0,.3-.2.5-.5.5-1.2-.2-2-.3-3.3-.3s-1.8.5-1.8,2.1c0,2.6.2,5.2.7,7.8,0,.3-.1.5-.5.5h-1.2c-.3,0-.5-.1-.5-.4-.4-2.6-.7-5.2-.7-8.1ZM149.6,68.7c0,.4.2.6.6.6h.9c.3,0,.4.1.4.4v1.1c0,.3-.1.5-.4.5h-.8c-.4,0-.6-.1-.7-.4v7.6c0,.3-.2.5-.5.5h-1.1c-.3,0-.5-.2-.5-.5v-15c0-.3.2-.5.5-.5h1.1c.3,0,.5.2.5.5v5.2ZM136.9,75.4l.3-1c0-.3.2-.4.3-.4s.1,0,.2,0c1,.4,1.9.7,2.7.7,1.8,0,2.5-.8,2.5-3s-.1-4.6-.4-7c0-.3.1-.5.5-.5h1.1c.3,0,.5.1.5.4.3,2.2.4,4.2.4,6.9s-1.5,5.2-4.4,5.2-2.1-.2-3.3-.7c-.4-.1-.5-.3-.4-.6ZM133,71.9c0-.4-.2-.6-.6-.6h-1.2c-.3,0-.5-.1-.5-.5v-1.1c0-.3.1-.5.5-.5h1.1c.4,0,.6.1.7.4v-6.2c0-.3.2-.5.5-.5h1.1c.3,0,.5.2.5.5v15c0,.3-.2.5-.5.5h-1.1c-.3,0-.5-.2-.5-.5v-6.6ZM111.4,78.5v-.8c0-.3.2-.4.5-.4,1.4.2,3.4.3,4.8.3,3.7,0,4.4,0,4.4-.6s-.4-.6-3.4-.6-4.2,0-5.3,0c-.3,0-.4-.1-.4-.4v-.7c0-.3.1-.4.4-.4h.6c-.7-.2-1.2-.8-1.2-1.5s.5-1.3,1.7-1.3c.8,0,1.9,0,3.1,0v-.4c0-.3-.1-.5-.4-.5-1.4,0-3.6,0-4.9-.2-.3,0-.4-.2-.4-.5v-.9c0-.3.2-.4.4-.4,1.3.1,3.9.2,6.4.2,3.3,0,5.2,0,6.3-.2.3,0,.5.1.5.4v.9c0,.3-.1.4-.4.4-1.4.1-3.8.2-5.6.2.1,0,.2.3.2.5v.5c1.3,0,2.6.1,3.8.2.3,0,.4.1.4.4v.8c0,.3-.1.4-.4.4-2-.1-5.9-.3-7.7-.3s-.8.2-.8.6.2.5.9.5c.9,0,2,0,3,0,4.3,0,5.4.5,5.4,2.2s-1.2,2.3-6.5,2.3-3.5-.1-4.9-.3c-.3,0-.4-.2-.4-.4ZM112.2,67.2l-.3-3.3c0-.3.2-.5.5-.5h1.1c.3,0,.5.2.5.5v.4s6.9,0,6.9,0v-.4c0-.3.2-.5.5-.5h1.1c.3,0,.5.2.5.5l-.3,3.3c0,1-.7,1.5-1.8,1.5h-6.9c-1.1,0-1.7-.5-1.8-1.5ZM114.2,65.9v.5c0,.4.3.6.7.6h5.1c.5,0,.6-.1.7-.6v-.5s-6.5,0-6.5,0ZM100.7,79.3c-4.1,0-6.2-1.1-6.2-3.2s2.1-3.2,6.2-3.2,6.2,1.1,6.2,3.2-2.1,3.2-6.2,3.2ZM95.3,63h1.1c.3,0,.4.1.4.5v2.8s.9,0,.9,0c.3,0,.5.1.6.3v-2.9c0-.3.1-.5.5-.5h1.1c.3,0,.5.1.5.5v7.5c0,.3-.1.4-.5.4h-1.1c-.3,0-.5-.1-.5-.4v-2.4c0-.4-.1-.5-.5-.5h-1s0,3.3,0,3.3c0,.3-.1.4-.4.4h-1.1c-.3,0-.4-.1-.4-.4v-8c0-.3.1-.5.4-.5ZM105.5,71.7c-2.1,0-3.3-1-3.3-2.7s1.2-2.7,3.3-2.7,3.3,1,3.3,2.7-1.2,2.7-3.3,2.7ZM100.7,74.7c-3,0-4.1.5-4.1,1.3s1,1.3,4.1,1.3,4.1-.5,4.1-1.3-1-1.3-4.1-1.3ZM104.9,62.2h1.1c.3,0,.4.1.4.5v.5c0,.2-.1.4-.3.5h2.7c.3,0,.5.1.5.5v1c0,.3-.1.5-.5.5h-6.9c-.3,0-.5-.1-.5-.5v-1c0-.3.1-.5.5-.5h2.1c.3,0,.4,0,.4-.3v-.6c0-.3.1-.5.4-.5ZM106.8,69c0-.6-.5-.9-1.4-.9s-1.4.3-1.4.9.5.9,1.4.9,1.4-.3,1.4-.9ZM86.5,72.1c0,1.6.7,2.5,1.9,2.5s1.9-.8,1.9-2.5-.7-2.4-1.9-2.4-1.9.8-1.9,2.4ZM88.4,67.6c2.5,0,3.9,1.6,3.9,4.4s-1.5,4.4-3.9,4.4-3.9-1.6-3.9-4.4,1.5-4.4,3.9-4.4ZM80.3,71.9c0-.4-.2-.6-.6-.6h-1.2c-.3,0-.5-.1-.5-.5v-1.1c0-.3.1-.5.5-.5h1.1c.4,0,.6.1.7.4v-6.2c0-.3.2-.5.5-.5h1.1c.3,0,.5.2.5.5v15c0,.3-.2.5-.5.5h-1.1c-.3,0-.5-.2-.5-.5v-6.6ZM87.3,64.2v-1.2c0-.3.1-.5.4-.5h1.2c.3,0,.4.1.4.5v1c0,.2-.1.4-.3.5h3.3c.3,0,.4.1.4.5v1.1c0,.3-.1.5-.4.5h-8c-.3,0-.4-.1-.4-.5v-1.1c0-.3.1-.5.4-.5h2.6c.3,0,.4,0,.4-.3ZM73.8,66.1v4.3c0,2.1,1.3,3.9,2.8,4.1.3,0,.4.2.4.5v1.1c0,.3-.1.4-.4.4-1.7-.2-3.3-1.6-3.8-3.3-.5,1.7-2,3-3.8,3.3-.3,0-.5-.1-.5-.4v-1.1c0-.3.1-.4.4-.5,1.5-.2,2.8-2.1,2.8-4.1v-4.3s-2.7,0-2.7,0c-.3,0-.5-.1-.5-.5v-1.1c0-.3.1-.5.5-.5h7.4c.3,0,.4.1.4.5v1.1c0,.3-.1.5-.4.5h-2.6ZM66.4,78.5c0,.3-.2.5-.5.5h-1.1c-.3,0-.5-.2-.5-.5v-15c0-.3.2-.5.5-.5h1.1c.3,0,.5.2.5.5v15ZM432.7,106.5v-1.1c0-.3.3-.4.6-.3.5.1,1.3.3,1.8.3s.9-.3.9-.8c0-1.3,0-2.6-.1-3.6,0-.3.1-.4.4-.4h1.2c.3,0,.5.1.5.4,0,1,.1,2.4.1,4s-.9,2.5-2.9,2.5-1.5-.1-2.1-.3c-.3,0-.4-.2-.4-.5ZM434.9,97.1c1.2,0,2-.8,2-2.1s-.8-2-2-2-2,.8-2,2,.8,2.1,2,2.1ZM429.1,104.4c-.8,0-1.2.2-1.2.6s.4.6,1.2.6,1.2-.2,1.2-.6-.4-.6-1.2-.6ZM428.1,100.1v-.4c0-.3.1-.4.5-.4h1.1c.3,0,.5.1.5.4h0c0,.4-.1.7-.3.8h2.4c.3,0,.4.1.4.4v.9c0,.3-.2.4-.4.4h-6.3c-.3,0-.4-.1-.4-.4v-.9c0-.3.2-.4.4-.4h1.8c.3,0,.4-.1.4-.3ZM434.9,91.3c2.5,0,4,1.5,4,3.8s-1.6,3.9-4,3.9-4-1.5-4-3.9,1.6-3.8,4-3.8ZM426.7,96.1c0-.4-.2-.6-.6-.6h-1.2c-.3,0-.5-.1-.5-.5v-1c0-.3.1-.4.5-.4h1.1c.4,0,.6.1.7.4v-2.5c0-.3.2-.5.5-.5h1.1c.3,0,.5.2.5.5v6.7c0,.3-.2.5-.5.5h-1.1c-.3,0-.5-.2-.5-.5v-2.1ZM429.1,107.3c-2,0-3.1-.8-3.1-2.3s1.1-2.2,3.1-2.2,3.1.8,3.1,2.3-1.1,2.2-3.1,2.2ZM421.8,104c0,2.1-1.4,3.3-3.8,3.3s-5.6-.1-7.4-.3c-.3,0-.5-.2-.4-.4v-1c0-.3.3-.5.5-.4,2.1.2,4.2.3,7.4.3s1.7-.5,1.7-1.5,0-.9-.1-1.3c0-.3.1-.5.4-.5h1.1c.3,0,.5.2.5.5,0,.4.1.8.1,1.4ZM423.1,99.5v1c0,.3-.1.4-.5.5-1.1.1-3,.2-6.3.2-2.5,0-5.1,0-6.4-.2-.3,0-.5-.2-.5-.5v-1c0-.3.2-.5.5-.4,1.3.1,3.4.2,6.3.2s4.6,0,6.3-.2c.3,0,.5.1.5.4ZM416.1,98.1c-3.9,0-5.6-1.1-5.6-3.4s1.7-3.4,5.6-3.4,5.6,1.1,5.6,3.4-1.7,3.4-5.6,3.4ZM419.7,94.7c0-1.1-.9-1.6-3.5-1.6s-3.5.4-3.5,1.6.9,1.6,3.5,1.6,3.5-.5,3.5-1.6ZM395.5,107.3c-3.9,0-5.9-1.2-5.9-3.4s2-3.4,5.9-3.4,5.9,1.2,5.9,3.4-2,3.4-5.9,3.4ZM401.6,93.3l-.2,4c.5,0,.9,0,1.2-.1.3,0,.4.1.4.5v1c0,.3-.1.4-.4.4-.9.1-2.4.2-4.1.2s-3.1-.1-3.9-.2c-.3,0-.4-.1-.4-.4v-1c0-.3.1-.5.4-.5.3,0,.7,0,1,0l-.2-4h-.8c-.3,0-.4-.1-.4-.4v-1c0-.3.1-.5.4-.5h7.7c.3,0,.4.1.4.5v1c0,.3-.1.4-.4.4h-.8ZM392.1,99.1c0,.3-.2.5-.5.5h-1.1c-.3,0-.5-.2-.5-.5v-7.6c0-.3.2-.5.5-.5h1.1c.3,0,.5.2.5.5v.6c0,.4.1.5.5.5h.9c.3,0,.4.1.4.4v1c0,.3-.1.4-.4.4h-.6c-.3,0-.6-.1-.7-.4v1.4c0,.4.1.5.5.5h.9c.3,0,.4.1.4.4v1c0,.3-.1.4-.4.4h-.6c-.3,0-.6-.1-.7-.4v1.5ZM395.5,102.3c-2.8,0-3.8.6-3.8,1.5s1,1.5,3.8,1.5,3.8-.6,3.8-1.5-1-1.5-3.8-1.5ZM399.6,93.3h-2.1s.2,4.1.2,4.1c.3,0,.5,0,.8,0s.5,0,.8,0l.2-4.1ZM383.5,105.2c.4,0,.7-.2.7-.6v-1.8c0-.3-.2-.4-.4-.4h-5.5c-.8,0-1.2.3-1.2,1.1s.7,1.7,1.6,1.7h4.9ZM381.9,95.1v1.6c0,.4.3.6.7.6h2.1c.4,0,.6-.2.6-.6v-1.6c0,0-3.4,0-3.4,0ZM374.9,102.6c0-1.3.8-2.1,2.2-2.1h8.3c.5,0,.8.3.8.8v4.1c0,1-.7,1.6-1.9,1.6h-9.3c-.3,0-.4-.1-.4-.4v-1c0-.3.1-.5.4-.5h1.3c-.9-.5-1.5-1.5-1.5-2.6ZM382,99.1c-1.3,0-2-.7-2.1-1.8l-.3-5.4c0-.3.2-.5.5-.5h1.1c.3,0,.5.1.5.4v1.3h3.7s0-1.3,0-1.3c0-.3.2-.4.5-.4h1.1c.3,0,.5.2.5.5l-.3,5.4c0,1.1-.8,1.8-2.1,1.8h-3.2ZM377.1,93.5c0,.4.2.6.6.6h.9c.3,0,.5.1.5.4v1c0,.3-.1.4-.5.4h-.8c-.4,0-.6-.1-.7-.4v3.1c0,.3-.2.5-.5.5h-1.1c-.3,0-.5-.2-.5-.5v-7.2c0-.3.2-.5.5-.5h1.1c.3,0,.5.2.5.5v2ZM366.7,100.1c0,1.6.7,2.5,1.9,2.5s1.9-.8,1.9-2.5-.7-2.4-1.9-2.4-1.9.8-1.9,2.4ZM368.6,95.6c2.5,0,3.9,1.6,3.9,4.4s-1.5,4.4-3.9,4.4-3.9-1.6-3.9-4.4,1.5-4.4,3.9-4.4ZM360.5,99.9c0-.4-.2-.6-.6-.6h-1.2c-.3,0-.4-.1-.4-.5v-1.1c0-.3.1-.5.4-.5h1.1c.4,0,.6.1.7.4v-6.2c0-.3.2-.5.5-.5h1.1c.3,0,.5.2.5.5v15c0,.3-.2.5-.5.5h-1.1c-.3,0-.5-.2-.5-.5v-6.6ZM367.5,92.2v-1.2c0-.3.1-.5.4-.5h1.2c.3,0,.5.1.5.5v1c0,.2-.1.4-.3.5h3.3c.3,0,.4.1.4.5v1.1c0,.3-.1.5-.4.5h-8c-.3,0-.4-.1-.4-.5v-1.1c0-.3.1-.5.4-.5h2.6c.3,0,.4,0,.4-.3ZM350,105.6c-2.8,0-5.2-.1-6.4-.3-.3,0-.4-.2-.4-.5v-1c0-.3.2-.5.5-.4,1.2.1,3.6.3,5.5.3s.6-.2.6-.6v-4.1c0-.3.2-.5.5-.5h1.1c.3,0,.5.2.5.5v4c0,.4-.2.6-.4.8,1.5,0,3.3-.2,4.8-.3.3,0,.5.1.5.4v1c0,.3-.1.4-.4.5-1.4.2-3.5.3-6.3.3ZM349.2,93.9c-1.9,0-2.6.8-2.6,2.8s.1,2.5.3,3.4c0,.3,0,.4-.3.5l-1.2.2c-.3,0-.4,0-.5-.3-.3-1.3-.3-2.4-.3-4.1,0-2.8,1.5-4.4,4.2-4.4s4.1,0,6.1.3c.3,0,.4.2.4.5v1.1c0,.3-.2.5-.4.4-1.8-.2-3.6-.3-5.7-.3ZM331.8,97.1c.4,0,.7-.2.7-.6v-2.8c0-.3-.2-.4-.4-.4h-4.7c-1.1,0-1.5.3-1.5,1.4s.7,2.4,1.8,2.4h4.1ZM323,102.3c-.3,0-.5-.2-.5-.5v-1c0-.3.2-.5.5-.4,1.4.2,3.8.3,6.3.3s4.6-.1,6.3-.3c.3,0,.5.1.5.4v1c0,.3-.1.5-.5.5-1.3.2-3.8.3-5.8.3.3.1.5.4.5.8v2.5c0,.3-.2.5-.5.5h-1.1c-.3,0-.5-.2-.5-.5v-2.7c0-.4-.2-.6-.6-.6-1.5,0-3.5-.1-4.7-.3ZM323.8,93.8c0-1.6.8-2.4,2.6-2.4h7.3c.5,0,.8.3.8.8v5.1c0,1-.7,1.6-1.9,1.6h-8.7c-.3,0-.4-.1-.4-.4v-1c0-.3.1-.5.4-.5h1.5c-1-.6-1.7-1.8-1.7-3.3ZM312.1,98.1l.2-.8c0-.3.2-.4.5-.3,1.1.3,2.1.4,3,.4,1.9,0,2.6-.2,2.6-.9s-.7-.9-3-.9-1.6,0-2.1.1c-.3,0-.5,0-.5-.4v-.8c0-.3.1-.4.4-.5.7,0,1.5-.2,2.3-.2,3.7,0,5,.7,5,2.6s-1.3,2.6-4.6,2.6-2.3-.2-3.5-.5c-.3,0-.4-.3-.3-.5ZM308,106.5v-.8c0-.3.2-.4.5-.4,1.4.2,3.2.3,4.5.3,3.7,0,4.3,0,4.3-.6s-.4-.6-3.3-.6-3.8,0-5.1,0c-.3,0-.4-.1-.4-.4v-.8c0-.3.1-.4.4-.4h.6c-.7-.3-1.2-.8-1.2-1.5s.5-1.3,1.6-1.3c2.3,0,5.9,0,8.6.2.3,0,.4.1.4.4v.8c0,.3-.1.4-.4.4-2-.1-5.5-.3-7.3-.3s-.9.2-.9.6.3.5.9.5c1,0,1.7,0,2.6,0,4.1,0,5.3.5,5.3,2.2s-1.3,2.3-6.4,2.3-3.1-.1-4.6-.3c-.3,0-.4-.2-.4-.4ZM312.9,93.1c-.3,0-.4-.1-.4-.4v-.8c0-.3.1-.4.4-.4h7c.3,0,.4.1.4.4v.8c0,.3-.1.4-.4.4h-7ZM308.4,96.3c0-.4-.2-.6-.6-.6h-1.2c-.3,0-.4-.1-.4-.5v-1c0-.3.1-.5.4-.5h1.1c.4,0,.6.1.7.4v-2.7c0-.3.2-.5.5-.5h1.1c.3,0,.5.2.5.5v7.1c0,.3-.2.5-.5.5h-1.1c-.3,0-.5-.2-.5-.5v-2.3ZM302.7,97.4c0-.8-.5-1.1-1.9-1.1s-1.9.4-1.9,1.1.5,1.1,1.9,1.1,1.9-.4,1.9-1.1ZM300.9,100.4c-2.6,0-3.9-1-3.9-3s1.3-3,3.9-3,3.9,1,3.9,3-1.3,3-3.9,3ZM292.8,97.8c0-.4-.2-.6-.6-.6h-1.2c-.3,0-.5-.1-.5-.5v-1c0-.3.1-.4.5-.4h1.1c.4,0,.6.1.7.4v-4.2c0-.3.2-.5.5-.5h1.1c.3,0,.5.2.5.5v10.1c0,.3-.2.5-.5.5h-1.1c-.3,0-.5-.2-.5-.5v-3.8ZM299.8,91.3v-.6c0-.3.1-.4.5-.4h1.2c.3,0,.4.1.4.4v.4c0,.2-.1.4-.3.5h3.3c.3,0,.5.1.5.5v1c0,.3-.1.4-.5.4h-8c-.3,0-.4-.1-.4-.4v-1c0-.3.1-.5.4-.5h2.6c.3,0,.4,0,.4-.3ZM303.4,103.9c0,2.1-1.5,3.3-4,3.3s-5-.1-6.7-.3c-.3,0-.4-.2-.4-.4v-1c0-.3.3-.5.5-.4,2.1.2,3.7.3,6.7.3s1.8-.6,1.8-1.7,0-1-.1-1.4c0-.3.2-.5.5-.5h1.1c.3,0,.5.2.5.5,0,.5.1,1,.1,1.6ZM281.5,92.7c0-.7.4-1.2,1.1-1.3-.1-.3-.3-.4-.7-.4s-.2,0-.2-.2v-.4c0-.1,0-.2.2-.2,1.4,0,2.3.9,2.3,2.3s-.5,1.4-1.4,1.4-1.4-.5-1.4-1.3ZM273.8,98.4c0,3.2.6,4.5,2,4.5s2-1.3,2-4.5-.6-4.5-2-4.5-2,1.3-2,4.5ZM275.7,92c2.8,0,4,2,4,6.4s-1.3,6.5-4,6.5-4.1-2-4.1-6.5,1.2-6.4,4.1-6.4ZM267.6,99.9c0-.4-.2-.6-.6-.6h-1.2c-.3,0-.4-.1-.4-.5v-1.1c0-.3.1-.5.4-.5h1.1c.4,0,.6.1.7.4v-6.2c0-.3.2-.5.5-.5h1.1c.3,0,.5.2.5.5v15c0,.3-.2.5-.5.5h-1.1c-.3,0-.5-.2-.5-.5v-6.6ZM261.9,91.4c.3,0,.4.1.4.5v1.1c0,.3-.1.4-.4.4h-3.8c0,2.1,1.7,3.5,4.1,3.5s.4.1.4.4v1.1c0,.5-.3.5-.6.5-2.1,0-4.1-1.2-4.9-2.9-.8,1.7-2.8,2.9-4.9,2.9s-.6,0-.6-.5v-1.1c0-.3.1-.4.5-.4,2.4,0,4-1.5,4.1-3.5h-3.8c-.3,0-.4-.1-.4-.4v-1.1c0-.3.1-.5.4-.5h9.7ZM250.7,102.3c-.3,0-.4-.2-.4-.5v-1c0-.3.2-.5.5-.4,1.4.2,3.8.3,6.3.3s4.6-.1,6.3-.3c.3,0,.5.1.5.4v1c0,.3-.1.5-.4.5-1.3.2-3.8.3-5.8.3.3.1.5.4.5.8v2.5c0,.3-.2.5-.5.5h-1.1c-.3,0-.5-.2-.5-.5v-2.7c0-.4-.2-.6-.6-.6-1.5,0-3.5-.1-4.7-.3ZM236.4,105.6c-2.8,0-5.1-.1-6.4-.3-.3,0-.4-.2-.4-.5v-1c0-.3.2-.5.5-.4,1.2.2,3.1.3,4.6.3s.6-.2.6-.6v-2.3s-2,0-2,0c-1.3,0-2.2-.7-2.2-1.9l-.3-6.5c0-.3.2-.5.5-.5h1.1c.3,0,.4.2.5.5v1.8c0,0,6.8,0,6.8,0v-1.8c0-.3.3-.5.5-.5h1.1c.3,0,.5.2.5.5l-.3,6.5c0,1.2-.9,1.9-2.2,1.9h-2s0,2.1,0,2.1c0,.4-.2.6-.4.8,2,0,4.4-.2,5.7-.3.3,0,.5.1.5.4v1c0,.3-.1.4-.5.5-1.3.2-3.5.3-6.3.3ZM233.1,96.1v2c0,.5.4.7.9.7h4.9c.5,0,.8-.3.8-.7v-2c0,0-6.6,0-6.6,0ZM220.7,93.8c4.4,0,5.5.5,5.5,2.1s-.9,2.1-4.5,2.2v.6c0,.2-.1.4-.3.5,1.8,0,4.2,0,5.6-.2.3,0,.5.1.5.4v.9c0,.3-.1.4-.4.5-1.1.1-3.1.2-6.4.2-2.5,0-5.1,0-6.4-.2-.3,0-.4-.2-.4-.5v-.9c0-.3.1-.5.5-.4,1.3.1,3.5.2,4.9.1.3,0,.4-.2.4-.4v-.6c-1.5,0-2.8,0-4.1-.2-.3,0-.4-.2-.4-.4v-.8c0-.3.2-.4.5-.4,1.2.2,2.8.2,5.1.2s3.5-.1,3.5-.6-.5-.5-3.3-.5-3.1,0-5,.1c-.3,0-.4-.1-.4-.4v-.8c0-.3,0-.4.4-.4,1.1,0,2.9-.1,4.9-.1ZM220.6,107.3c-4,0-5.9-.8-5.9-2.8s1.9-2.8,5.9-2.8,5.9.8,5.9,2.8-1.9,2.8-5.9,2.8ZM226.1,91.8v.8c0,.3-.1.4-.4.4h-9.8c-.3,0-.4-.1-.4-.4v-.8c0-.3.1-.4.4-.4h9.8c.3,0,.4.1.4.4ZM220.6,103.3c-2.7,0-3.8.3-3.8,1.1s1.1,1.2,3.8,1.2,3.8-.3,3.8-1.2-1.1-1.1-3.8-1.1ZM207.7,104c1.7,0,3.1-.1,4.3-.3.3,0,.5,0,.5.4v1.1c0,.3-.1.4-.4.5-1.2.2-2.6.3-4.3.3s-3.4,0-4.6-.3c-.3,0-.5-.2-.5-.5v-1c0-.3.2-.4.5-.4,1.2.2,2.9.3,4.6.3ZM207.7,101.3c-2.5,0-4-1.9-4-4.9s1.6-4.8,4-4.8,4.1,1.9,4.1,4.8-1.6,4.9-4.1,4.9ZM209.6,96.5c0-1.7-.8-2.9-2-2.9s-2,1.2-2,2.9.8,2.9,2,2.9,2-1.2,2-2.9ZM199.5,91.5c0-.3.2-.5.5-.5h1.1c.3,0,.5.2.5.5v15c0,.3-.2.5-.5.5h-1.1c-.3,0-.5-.2-.5-.5v-15ZM186.1,100.1c0,1.6.7,2.5,1.9,2.5s1.9-.8,1.9-2.5-.7-2.4-1.9-2.4-1.9.8-1.9,2.4ZM188,95.6c2.5,0,3.9,1.6,3.9,4.4s-1.5,4.4-3.9,4.4-3.9-1.6-3.9-4.4,1.5-4.4,3.9-4.4ZM179.9,99.9c0-.4-.2-.6-.6-.6h-1.2c-.3,0-.4-.1-.4-.5v-1.1c0-.3.1-.5.4-.5h1.1c.4,0,.6.1.7.4v-6.2c0-.3.2-.5.5-.5h1.1c.3,0,.5.2.5.5v15c0,.3-.2.5-.5.5h-1.1c-.3,0-.5-.2-.5-.5v-6.6ZM186.9,92.2v-1.2c0-.3.1-.5.5-.5h1.2c.3,0,.5.1.5.5v1c0,.2-.1.4-.3.5h3.3c.3,0,.5.1.5.5v1.1c0,.3-.1.5-.5.5h-8c-.3,0-.5-.1-.5-.5v-1.1c0-.3.1-.5.5-.5h2.6c.3,0,.4,0,.4-.3ZM163.1,102.5c-.3,0-.4-.2-.4-.5v-1c0-.3.2-.5.5-.4,1.4.2,3.8.3,6.3.3s4.6-.1,6.3-.3c.3,0,.5.1.5.4v1c0,.3-.1.5-.5.5-1.3.2-3.8.3-5.8.3.3.1.5.4.5.8v2.3c0,.3-.2.5-.5.5h-1.1c-.3,0-.5-.2-.5-.5v-2.5c0-.4-.2-.6-.6-.6-1.5,0-3.5-.1-4.7-.3ZM163.9,92.9c0-1,.7-1.5,2.1-1.5,4.3,0,6.5,0,8,.3.3,0,.4.2.4.4v1c0,.3-.2.4-.4.4-1.9-.3-4.1-.3-6.8-.3s-1.1.2-1.1.6.3.5,1.2.5h2.2c4.2,0,5.3.5,5.3,2.4s-1.2,2.6-6.4,2.6-3-.1-4.5-.4c-.2,0-.4-.2-.3-.5l.2-1c0-.3.2-.4.4-.3,1.3.2,2.8.3,4.3.3,3.5,0,4.3,0,4.3-.7s-.6-.7-3.3-.7-3.2,0-4.9,0-.4-.2-.4-.4v-.8c0-.3.1-.4.4-.4h.8c-.9-.3-1.3-.8-1.3-1.7ZM155.2,90.8c-.2-.3,0-.5.3-.5h1.1c.3,0,.5,0,.6.3,1.7,2.5,2.6,5.3,2.6,8.5s-.9,6-2.6,8.5c-.2.3-.3.3-.6.3h-1.1c-.3,0-.5-.2-.3-.5,1.9-2.9,2.7-5.4,2.7-8.3s-.8-5.5-2.7-8.3ZM140.3,106.5v-.8c0-.3.2-.4.5-.4,1.4.2,3.4.3,4.8.3,3.7,0,4.4,0,4.4-.6s-.4-.6-3.4-.6-4.2,0-5.3,0c-.3,0-.4-.1-.4-.4v-.7c0-.3.1-.4.4-.4h.6c-.7-.2-1.2-.8-1.2-1.5s.4-1.3,1.7-1.3c.8,0,1.9,0,3.1,0v-.4c0-.3-.1-.5-.5-.5-1.4,0-3.6,0-4.9-.2-.3,0-.4-.2-.4-.5v-.9c0-.3.2-.4.4-.4,1.3.1,3.9.2,6.4.2,3.3,0,5.2,0,6.3-.2.3,0,.5.1.5.4v.9c0,.3-.1.4-.4.4-1.4.1-3.8.2-5.6.2.1,0,.2.3.2.5v.5c1.3,0,2.6.1,3.8.2.3,0,.4.1.4.4v.8c0,.3-.1.4-.4.4-2-.1-5.8-.3-7.7-.3s-.8.2-.8.6.2.5.9.5c.9,0,2,0,3,0,4.3,0,5.4.5,5.4,2.2s-1.2,2.3-6.5,2.3-3.5-.1-4.9-.3c-.3,0-.4-.2-.4-.4ZM146.4,94.6c-.8,1.3-2.9,2.2-5.1,2.1-.3,0-.4-.1-.4-.4v-.9c0-.3.1-.4.4-.4,2.4,0,3.9-.7,4.1-1.8h-3.8c-.3,0-.4-.1-.4-.4v-.9c0-.3.1-.4.4-.4h9.7c.3,0,.4.1.4.4v.9c0,.3-.1.4-.4.4h-3.8c.1,1.1,1.7,1.8,4.1,1.8s.4.1.4.4v.9c0,.3-.1.4-.4.4-2.2.1-4.4-.8-5.1-2.1ZM132,98.4c0,3.2.6,4.5,1.9,4.5s1.9-1.3,1.9-4.5-.5-4.5-1.9-4.5-1.9,1.3-1.9,4.5ZM133.8,92c2.8,0,3.9,2,3.9,6.4s-1.2,6.5-3.9,6.5-4-2-4-6.5,1.2-6.4,4-6.4ZM127.9,94.4h.9c.3,0,.5.1.5.4v1.1c0,.3-.1.4-.5.4h-.8c-.4,0-.6-.1-.7-.4v3.4c0,.4.2.6.6.6h.9c.3,0,.5.1.5.5v1.1c0,.3-.1.4-.5.4h-.8c-.4,0-.6-.1-.7-.4v4.9c0,.3-.2.5-.5.5h-1.1c-.3,0-.5-.2-.5-.5v-15c0-.3.2-.5.5-.5h1.1c.3,0,.5.2.5.5v2.3c0,.4.2.6.6.6ZM114.9,104.5c-.3,0-.4-.1-.4-.4v-1.1c0-.3.1-.4.4-.5,1.5-.2,2.8-2.1,2.8-4.1v-5.8c0-.3.2-.5.5-.5h1.1c.3,0,.5.2.5.5v5.8c0,2.1,1.3,3.9,2.8,4.1.3,0,.4.2.4.5v1.1c0,.3-.1.4-.5.4-1.7-.2-3.3-1.6-3.8-3.3-.4,1.7-2,3-3.8,3.3ZM112.3,95.8c0,.4.2.6.6.6h2c.3,0,.4.1.4.5v1.1c0,.3-.1.5-.4.5h-1.9c-.4,0-.6-.1-.7-.4v8.5c0,.3-.2.5-.5.5h-1.1c-.3,0-.5-.2-.5-.5v-15c0-.3.2-.5.5-.5h1.1c.3,0,.5.2.5.5v4.3ZM96.8,98.4c0,3.2.6,4.5,2,4.5s2-1.3,2-4.5-.6-4.5-2-4.5-2,1.3-2,4.5ZM98.8,92c2.8,0,4,2,4,6.4s-1.3,6.5-4,6.5-4-2-4-6.5,1.2-6.4,4-6.4ZM90.7,99.9c0-.4-.2-.6-.6-.6h-1.2c-.3,0-.5-.1-.5-.5v-1.1c0-.3.1-.5.5-.5h1.1c.4,0,.6.1.7.4v-6.2c0-.3.2-.5.5-.5h1.1c.3,0,.5.2.5.5v15c0,.3-.2.5-.5.5h-1.1c-.3,0-.5-.2-.5-.5v-6.6ZM80.2,105.6c-2.8,0-5.1-.1-6.4-.3-.3,0-.5-.2-.5-.5v-1c0-.3.2-.5.5-.4,1.2.2,3.1.3,4.6.3s.6-.2.6-.6v-2.3s-2,0-2,0c-1.3,0-2.2-.7-2.2-1.9l-.3-6.5c0-.3.2-.5.5-.5h1.1c.3,0,.5.2.5.5v1.8c0,0,6.8,0,6.8,0v-1.8c0-.3.3-.5.5-.5h1.1c.3,0,.5.2.5.5l-.3,6.5c0,1.2-.9,1.9-2.2,1.9h-2s0,2.1,0,2.1c0,.4-.2.6-.5.8,2,0,4.4-.2,5.7-.3.3,0,.5.1.5.4v1c0,.3-.1.4-.4.5-1.4.2-3.5.3-6.3.3ZM76.9,96.1v2c0,.5.4.7.9.7h4.9c.5,0,.8-.3.8-.7v-2c0,0-6.6,0-6.6,0ZM65.6,100.1c0,1.6.7,2.5,1.9,2.5s1.9-.8,1.9-2.5-.7-2.4-1.9-2.4-1.9.8-1.9,2.4ZM67.4,95.6c2.5,0,3.9,1.6,3.9,4.4s-1.5,4.4-3.9,4.4-3.9-1.6-3.9-4.4,1.5-4.4,3.9-4.4ZM59.3,99.9c0-.4-.2-.6-.6-.6h-1.2c-.3,0-.5-.1-.5-.5v-1.1c0-.3.1-.5.5-.5h1.1c.4,0,.6.1.7.4v-6.2c0-.3.2-.5.5-.5h1.1c.3,0,.5.2.5.5v15c0,.3-.2.5-.5.5h-1.1c-.3,0-.5-.2-.5-.5v-6.6ZM66.3,92.2v-1.2c0-.3.1-.5.4-.5h1.2c.3,0,.5.1.5.5v1c0,.2-.1.4-.3.5h3.3c.3,0,.4.1.4.5v1.1c0,.3-.1.5-.4.5h-8c-.3,0-.4-.1-.4-.5v-1.1c0-.3.1-.5.4-.5h2.6c.3,0,.4,0,.4-.3ZM55.8,107.4c.2.3,0,.5-.3.5h-1.1c-.3,0-.5,0-.6-.3-1.7-2.5-2.6-5.3-2.6-8.5s.9-6,2.6-8.5c.2-.3.3-.3.6-.3h1.1c.3,0,.5.2.3.5-1.9,2.9-2.7,5.4-2.7,8.3s.8,5.5,2.7,8.3ZM48.5,91.5c0,.7-.5,1.2-1.1,1.3.1.3.3.4.7.4s.2,0,.2.2v.4c0,.1,0,.2-.2.2-1.4,0-2.3-.9-2.3-2.3s.5-1.4,1.4-1.4,1.4.5,1.4,1.3ZM30.9,106.5v-.8c0-.3.2-.4.5-.3,1.3.2,3.4.3,4.8.3,3.9,0,4.4-.1,4.4-.6s-.4-.5-3.4-.5-4.3,0-5.3,0c-.3,0-.4-.1-.4-.4v-.8c0-.2.1-.3.4-.3h.6c-.7-.2-1.2-.8-1.2-1.5s.4-1.1,1.7-1.2c2.4,0,6.3,0,8.9.2.3,0,.4.1.4.4v.8c0,.3-.1.4-.4.4-1.9-.1-5.7-.2-7.7-.2s-.8.1-.8.4.2.4.9.5c.9,0,2,0,3,0,4.3,0,5.4.4,5.4,2.1s-1.1,2.1-6.5,2.1-3.6-.1-4.9-.3c-.3,0-.4-.1-.3-.4ZM37.1,98.3c2.1,0,4.7,0,6.4-.2.3,0,.4.1.4.4v.8c0,.3-.1.4-.4.4-1.1.1-3.1.2-6.4.2-2.5,0-5.1,0-6.4-.2-.3,0-.4-.2-.4-.5v-.8c0-.3.1-.4.4-.4,1.4.1,3.5.2,6.4.2ZM31.7,94.9v-.7c0-.2.1-.3.3-.3h.7c-.7-.2-1.2-.7-1.2-1.4s.4-1,1.7-1c2.4,0,5.7,0,8.4.2.3,0,.4.1.4.4v.7c0,.3,0,.4-.3.4-1.9-.1-5.2-.2-7.2-.2s-.8,0-.8.4.2.4.9.4c.9,0,1.7,0,2.7,0,4.1,0,5.1.4,5.1,1.9s-1.1,1.9-6.2,1.9-3.4-.1-4.6-.3c-.3,0-.3-.1-.3-.4v-.7c0-.3.2-.4.5-.3,1.3.2,3.1.3,4.5.3,3.6,0,4.1,0,4.1-.5s-.4-.5-3.1-.5-4.1,0-5.1,0c-.2,0-.3,0-.3-.3ZM436.5,122.7c0-1-.7-1.6-2-1.6s-2,.6-2,1.6.7,1.6,2,1.6,2-.6,2-1.6ZM439.5,127.2v1.1c0,.3-.1.4-.5.5-.8,0-2.6.1-3.9.1.2,0,.3.2.3.5v1.5c0,.3-.2.5-.5.5h-1.1c-.3,0-.5-.2-.5-.5v-1.6c0-.3-.2-.4-.5-.4-1.2,0-2.4,0-3,0-.3,0-.5-.2-.5-.5v-1c0-.3.2-.4.5-.4,1.2,0,3.1.1,4.8.1s3.3,0,4.4-.1c.3,0,.5,0,.5.4ZM434.5,126.1c-2.6,0-4-1.2-4-3.4s1.5-3.4,4-3.4,4,1.2,4,3.4-1.5,3.4-4,3.4ZM428.4,128.9c0,.4.2.6.6.6h2.3c.3,0,.5.1.5.4v1c0,.3-.1.5-.5.5h-2.2c-.4,0-.6-.1-.7-.4v.4c0,.3-.2.5-.5.5h-1.1c-.3,0-.5-.2-.5-.5v-11.9c0-.3.2-.5.5-.5h1.1c.3,0,.5.2.5.5v9.4ZM438.1,132c0,2.1-1.4,3.3-3.8,3.3s-6.2-.1-8-.3c-.3,0-.5-.2-.4-.4v-1c0-.3.3-.5.5-.4,2.1.2,4.5.3,7.9.3s1.7-.5,1.7-1.5,0-.9-.1-1.3c0-.3.1-.5.4-.5h1.1c.3,0,.5.2.5.5,0,.4.1.8.1,1.4ZM421.7,125.4c0-.8-.5-1.1-1.9-1.1s-1.9.4-1.9,1.1.5,1.1,1.9,1.1,1.9-.4,1.9-1.1ZM419.9,128.4c-2.6,0-3.9-1-3.9-3s1.3-3,3.9-3,3.9,1,3.9,3-1.3,3-3.9,3ZM411.8,125.8c0-.4-.2-.6-.6-.6h-1.2c-.3,0-.5-.1-.5-.5v-1c0-.3.1-.4.5-.4h1.1c.4,0,.6.1.7.4v-4.2c0-.3.2-.5.5-.5h1.1c.3,0,.5.2.5.5v10.1c0,.3-.2.5-.5.5h-1.1c-.3,0-.5-.2-.5-.5v-3.8ZM418.8,119.3v-.6c0-.3.1-.4.5-.4h1.2c.3,0,.4.1.4.4v.4c0,.2-.1.4-.3.5h3.3c.3,0,.5.1.5.5v1c0,.3-.1.4-.5.4h-8c-.3,0-.5-.1-.5-.4v-1c0-.3.1-.5.5-.5h2.6c.3,0,.4,0,.4-.3ZM422.4,131.9c0,2.1-1.5,3.3-4,3.3s-5-.1-6.7-.3c-.3,0-.5-.2-.4-.4v-1c0-.3.3-.5.5-.4,2.1.2,3.7.3,6.7.3s1.8-.6,1.8-1.7,0-1-.1-1.4c0-.3.2-.5.5-.5h1.1c.3,0,.5.2.5.5,0,.4.1,1,.1,1.6ZM403.1,122.1c-.9,0-1.5,0-2.3.2-.3,0-.5-.1-.5-.4v-1.1c0-.3.1-.4.5-.5.7-.1,1.3-.1,2.4-.1,3.4,0,5,1.9,5,6.3,0,4.1-1.6,6.3-4.9,6.3s-2.2-.3-3.3-.7c-.4-.1-.5-.3-.4-.6l.3-1c0-.3.2-.4.3-.4s.1,0,.2,0c1.1.4,2,.7,2.7.7,2,0,2.9-1.4,2.9-4.3s-.8-4.3-3.1-4.3ZM396.1,127.9c0-.4-.2-.6-.6-.6h-1.2c-.3,0-.4-.1-.4-.5v-1.1c0-.3.1-.5.4-.5h1.1c.4,0,.6.1.7.4v-6.2c0-.3.2-.5.5-.5h1.1c.3,0,.5.2.5.5v15c0,.3-.2.5-.5.5h-1.1c-.3,0-.5-.2-.5-.5v-6.6ZM391.1,135.4c-.8,0-1.4-.5-1.4-1.3s.6-1.3,1.4-1.3,1.4.5,1.4,1.3-.6,1.3-1.4,1.3ZM380,122.1v4.3c0,2.1,1.3,3.9,2.8,4.1.3,0,.4.2.4.5v1.1c0,.3-.1.4-.4.4-1.7-.2-3.3-1.6-3.8-3.3-.5,1.7-2,3-3.8,3.3-.3,0-.5-.1-.5-.4v-1.1c0-.3.1-.4.4-.5,1.5-.2,2.8-2.1,2.8-4.1v-4.3s-2.7,0-2.7,0c-.3,0-.4-.1-.4-.5v-1.1c0-.3.1-.5.4-.5h7.4c.3,0,.5.1.5.5v1.1c0,.3-.1.5-.5.5h-2.6ZM370.9,127.9c0-.4-.2-.6-.6-.6h-1.2c-.3,0-.4-.1-.4-.5v-1.1c0-.3.1-.5.4-.5h1.1c.4,0,.6.1.7.4v-6.2c0-.3.2-.5.5-.5h1.1c.3,0,.5.2.5.5v15c0,.3-.2.5-.5.5h-1.1c-.3,0-.5-.2-.5-.5v-6.6ZM358.8,126.4l.3-1c0-.2.2-.3.3-.3s.1,0,.2,0c.9.3,2.2.6,3.1.6,2,0,2.5-.1,2.5-.7s-.7-.8-3-.8-1.4,0-2.3,0c-.3,0-.4-.1-.4-.4v-.9c0-.3.1-.4.4-.4h.4c-.6-.4-1-.9-1-1.6,0-1.2.8-1.6,3.1-1.6,1.6,0,2.6,0,3.9.2.3,0,.4.2.4.5v1c0,.3-.2.4-.5.4-1.4-.2-2.7-.3-3.4-.3-1.1,0-1.4.1-1.4.6s.4.6,1.3.6c3.3,0,4.6.7,4.6,2.6s-1.2,2.6-4.2,2.6-3.1-.3-4-.6c-.3-.1-.4-.3-.3-.6ZM360.5,130.7c-2.8,0-3.6.4-3.6,1.4s.9,1.3,3.6,1.3,3.6-.4,3.6-1.3-.9-1.4-3.6-1.4ZM355.2,124.7c0-.4-.2-.6-.6-.6h-1.2c-.3,0-.5-.1-.5-.4v-1c0-.3.1-.4.5-.4h1.1c.4,0,.6.1.7.4v-3.1c0-.3.2-.5.5-.5h1.1c.3,0,.5.2.5.5v8c0,.3-.2.5-.5.5h-1.1c-.3,0-.5-.2-.5-.5v-2.7ZM360.5,135.3c-3.8,0-5.7-1-5.7-3.2s1.9-3.2,5.7-3.2,5.7,1,5.7,3.2-1.9,3.2-5.7,3.2ZM344.6,129c-3.6,0-5.6-1.7-5.6-4.6s2.1-4.6,5.6-4.6,5.6,1.7,5.6,4.6-2,4.6-5.6,4.6ZM348.2,124.4c0-1.7-1.2-2.7-3.5-2.7s-3.5.9-3.5,2.7,1.2,2.7,3.5,2.7,3.5-1,3.5-2.7ZM351.6,131.8v1c0,.3-.1.4-.5.5-1.3.2-3.5.3-6.3.3s-5.1-.1-6.4-.3c-.3,0-.4-.2-.4-.5v-1c0-.3.2-.5.5-.4,1.4.2,3.8.3,6.3.3s4.6-.1,6.3-.3c.3,0,.5.1.5.4ZM329.1,133.6c-2.8,0-5.1-.1-6.4-.3-.3,0-.4-.2-.4-.5v-1c0-.3.2-.5.5-.4,1.2.2,3.1.3,4.6.3s.6-.2.6-.6v-2s0,0,0,0c-1.3,0-3.1-.1-4.5-.4-.2,0-.4-.2-.3-.5l.2-1c0-.3.2-.4.4-.3,1.3.2,2.9.3,4.3.3,3.5,0,4.3-.2,4.3-1s-.7-.9-3.3-.9-3.2,0-4.9,0-.4-.2-.4-.4v-.9c0-.3.1-.4.4-.4h.8c-.9-.3-1.4-1-1.4-2s.7-1.7,2.1-1.7c.7,0,1.4,0,2.2,0,2.1,0,4.3.1,5.8.3.3,0,.4.2.4.4v1.1c0,.3-.2.4-.4.4-1.8-.2-4.5-.3-6.8-.3s-1.1.2-1.1.8.4.9,1.2.9h2.2c4.1,0,5.3.6,5.3,2.7s-1,2.7-4.3,2.9v1.9c0,.4-.2.6-.4.8,2,0,4.4-.2,5.7-.3.3,0,.5.1.5.4v1c0,.3-.1.4-.4.5-1.4.2-3.5.3-6.3.3ZM307.3,124c0-2.8,1-3.9,3.5-3.9s2.6.1,3.9.3c.3,0,.4.2.4.5v1c0,.3-.2.5-.5.5-1.2-.2-2.2-.3-3.5-.3s-1.8.5-1.8,2.1c0,2.6.2,5.2.7,7.8,0,.3-.1.5-.4.5h-1.2c-.3,0-.4-.1-.5-.4-.4-2.6-.7-5.2-.7-8.1ZM303.2,127.9c0-.4-.2-.6-.6-.6h-1.2c-.3,0-.4-.1-.4-.5v-1.1c0-.3.1-.5.4-.5h1.1c.4,0,.6.1.7.4v-6.2c0-.3.2-.5.5-.5h1.1c.3,0,.5.2.5.5v15c0,.3-.2.5-.5.5h-1.1c-.3,0-.5-.2-.5-.5v-6.6ZM287,132.5c0-2.1.9-2.8,3.4-2.8s5,.1,7.4.3c.3,0,.4.2.4.5v1c0,.3-.1.4-.4.4-2.5-.2-4.9-.3-7.3-.3s-1.5.3-1.5,1.5,0,1,0,1.5c0,.3-.2.5-.5.5h-1.1c-.3,0-.5-.2-.5-.5,0-.6-.1-1.1-.1-2.1ZM299.5,127.1v1c0,.3-.1.4-.4.5-1.1.1-3,.2-6.3.2-2.5,0-5.1,0-6.4-.2-.3,0-.4-.2-.4-.5v-1c0-.3.2-.5.5-.4,1.3.1,3.4.2,6.3.2s4.6,0,6.3-.2c.3,0,.5.1.5.4ZM287.6,121v-1c0-.3.1-.5.4-.5,2.3-.1,3.1-.2,4.1-.2,4.6,0,6.3.8,6.3,3.1s-1.6,3.2-6,3.2-2.6-.1-4.6-.3c-.3,0-.5-.2-.4-.5v-1c0-.3.3-.5.5-.4,1.6.2,3.3.3,4.8.3,2.9,0,3.7-.3,3.7-1.3s-.9-1.2-4.1-1.2-2,0-4.1.2c-.3,0-.5-.1-.5-.4ZM281.8,125.4c0-.8-.5-1.1-1.9-1.1s-1.9.4-1.9,1.1.5,1.1,1.9,1.1,1.9-.4,1.9-1.1ZM280,128.4c-2.6,0-3.9-1-3.9-3s1.3-3,3.9-3,3.9,1,3.9,3-1.3,3-3.9,3ZM271.9,125.8c0-.4-.2-.6-.6-.6h-1.2c-.3,0-.5-.1-.5-.5v-1c0-.3.1-.4.5-.4h1.1c.4,0,.6.1.7.4v-4.2c0-.3.2-.5.5-.5h1.1c.3,0,.5.2.5.5v10.1c0,.3-.2.5-.5.5h-1.1c-.3,0-.5-.2-.5-.5v-3.8ZM278.9,119.3v-.6c0-.3.1-.4.5-.4h1.2c.3,0,.4.1.4.4v.4c0,.2-.1.4-.3.5h3.3c.3,0,.5.1.5.5v1c0,.3-.1.4-.5.4h-8c-.3,0-.4-.1-.4-.4v-1c0-.3.1-.5.4-.5h2.6c.3,0,.4,0,.4-.3ZM282.5,131.9c0,2.1-1.5,3.3-4,3.3s-5-.1-6.7-.3c-.3,0-.4-.2-.4-.4v-1c0-.3.3-.5.5-.4,2.1.2,3.7.3,6.7.3s1.8-.6,1.8-1.7,0-1-.1-1.4c0-.3.2-.5.5-.5h1.1c.3,0,.5.2.5.5,0,.4.1,1,.1,1.6ZM256.4,133.6c-2.8,0-5.1-.1-6.4-.3-.3,0-.4-.2-.4-.5v-1c0-.3.2-.5.5-.4,1.2.2,3.1.3,4.6.3s.6-.2.6-.6v-2.2c0-.3.2-.5.5-.5h1.1c.3,0,.5.2.5.5v2.1c0,.4-.2.6-.5.8,2,0,4.4-.2,5.7-.3.3,0,.5.1.5.4v1c0,.3-.1.4-.4.5-1.4.2-3.5.3-6.3.3ZM251.4,128.7c-.3,0-.6,0-.6-.4v-1.1c0-.3.1-.4.4-.4,2.4,0,4.1-1.6,4.1-3.8v-2.5c0-.3.2-.5.5-.5h1.1c.3,0,.5.2.5.5v2.5c0,2.2,1.7,3.8,4.1,3.8s.4.1.4.4v1.1c0,.4-.3.4-.6.4-2.1,0-4.2-1.2-4.9-3-.8,1.8-2.8,3-4.9,3ZM234.7,134.5v-.9c0-.3.2-.4.5-.4,1.4.2,3.4.3,4.6.3,3.7,0,4.5,0,4.5-.7s-.5-.7-3.5-.7-3.9,0-5.2,0c-.3,0-.4-.1-.4-.4v-.8c0-.3.1-.4.4-.4h.6c-.7-.3-1.2-.9-1.2-1.6s.5-1.4,1.6-1.4c2.3,0,6.2,0,8.9.2.3,0,.4.1.4.4v.9c0,.3-.1.4-.4.4-2-.1-5.8-.3-7.6-.3s-.9.2-.9.6.3.6.9.6c1,0,1.9,0,2.8,0,4.2,0,5.5.5,5.5,2.3s-1.4,2.4-6.6,2.4-3.3-.1-4.8-.3c-.3,0-.4-.2-.4-.5ZM243,119.4h1.1c.3,0,.5.2.5.5v1.6c0,1.8,1.2,3.2,2.7,3.2s.4.1.4.4v1c0,.3-.1.4-.4.4-1.9,0-3.3-1.2-3.8-2.5-.5,1.3-1.9,2.5-3.8,2.5s-.4-.1-.4-.4v-1c0-.3.1-.4.4-.4,1.6,0,2.7-1.3,2.7-3.2v-1.6c0-.3.2-.5.5-.5ZM237.2,126.2c0,.3-.2.5-.5.5h-1.1c-.3,0-.5-.2-.5-.5v-6.7c0-.3.2-.5.5-.5h1.1c.3,0,.5.2.5.5v.4c0,.3,0,.4.4.4h1.6c.3,0,.4.1.4.4v.8c0,.3-.1.4-.4.4h-1.3c-.3,0-.6-.1-.7-.3v.7c0,.3,0,.4.4.4h1.6c.3,0,.4.1.4.4v.8c0,.3-.1.4-.4.4h-1.3c-.3,0-.6-.1-.7-.3v2.2ZM229.8,130.5c.4,0,.7-.2.7-.6v-7.4c0-.3-.2-.4-.4-.4h-1.5c-1.4,0-1.8,1-1.8,4s.8,4.4,2,4.4h1.1ZM231.8,120.2c.5,0,.8.3.8.8v9.9c0,1-.7,1.6-1.9,1.6h-5.5c-.3,0-.4-.1-.4-.4v-1.1c0-.3.1-.4.4-.4h1.1c-1-1.2-1.7-3.3-1.7-5.9s.9-4.5,3.4-4.5h3.7ZM222.3,134.5c0,.3-.2.5-.5.5h-1.1c-.3,0-.5-.2-.5-.5v-15c0-.3.2-.5.5-.5h1.1c.3,0,.5.2.5.5v15ZM212.6,122.1c-.9,0-1.5,0-2.3.2-.3,0-.5-.1-.5-.4v-1.1c0-.3.1-.4.5-.5.7-.1,1.4-.1,2.4-.1,3.4,0,5,1.9,5,6.3s-1.6,6.3-4.9,6.3-2.2-.3-3.3-.7c-.4-.1-.5-.3-.4-.6l.3-1c0-.3.2-.4.3-.4s.1,0,.2,0c1.1.4,2,.7,2.7.7,2,0,2.9-1.4,2.9-4.3s-.8-4.3-3.1-4.3ZM207.3,134.5c0,.3-.2.5-.5.5h-1.1c-.3,0-.5-.2-.5-.5v-15c0-.3.2-.5.5-.5h1.1c.3,0,.5.2.5.5v15ZM197.1,126.4c0,3.2.6,4.5,1.9,4.5s1.9-1.3,1.9-4.5-.5-4.5-1.9-4.5-1.9,1.3-1.9,4.5ZM199,120c2.8,0,3.9,2,3.9,6.4s-1.2,6.5-3.9,6.5-4-2-4-6.5,1.2-6.4,4-6.4ZM192.4,124.7c0,.4.2.6.6.6h.9c.3,0,.4.1.4.4v1.1c0,.3-.1.5-.4.5h-.8c-.4,0-.6-.1-.7-.4v7.6c0,.3-.2.5-.5.5h-1.1c-.3,0-.5-.2-.5-.5v-15c0-.3.2-.5.5-.5h1.1c.3,0,.5.2.5.5v5.2ZM179.6,127.2c-.3,0-.5-.1-.6-.3v7.6c0,.3-.1.4-.4.4h-1.1c-.3,0-.4-.1-.4-.4v-14.9c0-.3.1-.4.4-.4h1.1c.3,0,.4.1.4.4v5.1c0,.4.1.5.5.5h1.5c.2-3.6,1.3-5.3,3.6-5.3s3.6,2,3.6,6.4-1.2,6.5-3.6,6.5-3.4-1.8-3.6-5.7h-1.4ZM174.3,119h1.1c.3,0,.4.1.4.4v15c0,.3-.1.4-.4.4h-1.1c-.3,0-.4-.1-.4-.4v-15c0-.3.1-.4.4-.4ZM182.9,126.4c0,3.2.5,4.5,1.6,4.5s1.6-1.3,1.6-4.5-.5-4.5-1.6-4.5-1.6,1.3-1.6,4.5ZM163.3,122.1v4.3c0,2.1,1.3,3.9,2.8,4.1.3,0,.4.2.4.5v1.1c0,.3-.1.4-.4.4-1.7-.2-3.3-1.6-3.8-3.3-.5,1.7-2,3-3.8,3.3-.3,0-.4-.1-.4-.4v-1.1c0-.3.1-.4.4-.5,1.5-.2,2.8-2.1,2.8-4.1v-4.3s-2.7,0-2.7,0c-.3,0-.5-.1-.5-.5v-1.1c0-.3.1-.5.5-.5h7.4c.3,0,.4.1.4.5v1.1c0,.3-.1.5-.4.5h-2.6ZM155.9,134.5c0,.3-.2.5-.5.5h-1.1c-.3,0-.5-.2-.5-.5v-15c0-.3.2-.5.5-.5h1.1c.3,0,.5.2.5.5v15ZM146.3,119.6v-.9c0-.3.1-.4.4-.4h1.2c.3,0,.5.1.5.4v.7c0,.2-.1.4-.3.5h3c.3,0,.5.1.5.4v1c0,.3-.1.5-.5.5h-2.6s0,.7,0,.7c0,2,1.2,3.5,2.7,3.5s.4.1.4.4v1c0,.3-.1.4-.4.4-1.9,0-3.3-1.2-3.8-2.7-.5,1.4-1.9,2.7-3.8,2.7s-.5-.1-.5-.4v-1c0-.3.1-.4.5-.4,1.6,0,2.7-1.5,2.7-3.5v-.7s-2.7,0-2.7,0c-.3,0-.4-.1-.4-.5v-1c0-.3.1-.4.4-.4h2.2c.3,0,.4,0,.4-.3ZM149.9,131.9c0,2.1-1.5,3.3-4,3.3s-5.3-.1-7.1-.3c-.3,0-.5-.2-.4-.4v-1c0-.3.3-.5.5-.4,2.1.2,3.9.3,7.1.3s1.8-.6,1.8-1.7,0-1.4-.1-1.8c0-.3.2-.5.5-.5h1.1c.3,0,.5.2.5.5,0,.4.1,1.2.1,2ZM141,129.6c0,.3-.2.5-.5.5h-1.1c-.3,0-.5-.2-.5-.5v-10.1c0-.3.2-.5.5-.5h1.1c.3,0,.5.2.5.5v10.1ZM123.6,132.5c-.3,0-.5-.1-.5-.4v-1.1c0-.3.1-.4.4-.5,1.5-.2,2.8-2.1,2.8-4.1v-5.8c0-.3.2-.5.5-.5h1.1c.3,0,.5.2.5.5v5.8c0,2.1,1.3,3.9,2.8,4.1.3,0,.4.2.4.5v1.1c0,.3-.1.4-.5.4-1.7-.2-3.3-1.6-3.8-3.3-.5,1.7-2,3-3.8,3.3ZM119.3,127.9c0-.4-.2-.6-.6-.6h-1.2c-.3,0-.4-.1-.4-.5v-1.1c0-.3.1-.5.4-.5h1.1c.4,0,.6.1.7.4v-6.2c0-.3.2-.5.5-.5h1.1c.3,0,.5.2.5.5v15c0,.3-.2.5-.5.5h-1.1c-.3,0-.5-.2-.5-.5v-6.6ZM111.7,133.2c.4,0,.7-.2.7-.6v-1.4c0-.3-.2-.4-.4-.4h-5.2c-.8,0-1.2.2-1.2.9s.7,1.5,1.6,1.5h4.5ZM107.2,126.4l.3-1c0-.2.2-.3.3-.3s.1,0,.2,0c.9.3,2.2.6,3.1.6,2,0,2.5-.1,2.5-.7s-.7-.8-3-.8-1.4,0-2.3,0c-.3,0-.4-.1-.4-.4v-.9c0-.3.1-.4.4-.4h.4c-.6-.4-1-.9-1-1.6,0-1.2.8-1.6,3.1-1.6,1.6,0,2.6,0,3.9.2.3,0,.4.2.4.5v1c0,.3-.2.4-.5.4-1.4-.2-2.7-.3-3.4-.3-1.1,0-1.4.1-1.4.6s.4.6,1.3.6c3.3,0,4.6.7,4.6,2.6s-1.2,2.6-4.2,2.6-3.1-.3-4-.6c-.3-.1-.4-.3-.3-.6ZM103.5,130.8c0-1.3.8-1.9,2.2-1.9h7.9c.5,0,.8.3.8.8v3.8c0,1-.7,1.6-1.9,1.6h-8.9c-.3,0-.5-.1-.5-.4v-1c0-.3.1-.4.5-.4h1.3c-.9-.5-1.5-1.4-1.5-2.4ZM103.6,124.5c0-.4-.2-.6-.6-.6h-1.2c-.3,0-.5-.1-.5-.4v-1c0-.3.1-.4.5-.4h1.1c.4,0,.6.1.7.4v-2.9c0-.3.2-.5.5-.5h1.1c.3,0,.5.2.5.5v7.6c0,.3-.2.5-.5.5h-1.1c-.3,0-.5-.2-.5-.5v-2.6ZM87.1,134.5v-.8c0-.3.2-.4.5-.4,1.4.2,3.4.3,4.8.3,3.7,0,4.4,0,4.4-.6s-.4-.6-3.4-.6-4.2,0-5.3,0c-.3,0-.4-.1-.4-.4v-.7c0-.3.1-.4.4-.4h.6c-.7-.2-1.2-.8-1.2-1.5s.5-1.3,1.7-1.3c2.3,0,6.2,0,8.9.2.3,0,.4.1.4.4v.8c0,.3-.1.4-.4.4-2-.1-5.9-.3-7.7-.3s-.8.2-.8.6.2.5.9.5c.9,0,2,0,3,0,4.3,0,5.4.5,5.4,2.2s-1.2,2.3-6.5,2.3-3.5-.1-4.9-.3c-.3,0-.4-.2-.4-.5ZM93.2,125.6c2.1,0,4.6,0,6.3-.2.3,0,.5.1.5.4v.9c0,.3-.1.4-.4.4-1.1.1-3.1.2-6.4.2-2.5,0-5.1,0-6.4-.2-.3,0-.4-.2-.4-.4v-.9c0-.3.2-.4.4-.4,1.4.1,3.4.2,6.4.2ZM88,120.9v-.9c0-.3.1-.4.4-.4,2.3-.1,3.1-.2,4.1-.2,4.7,0,6.3.6,6.3,2.7s-1.5,2.7-6,2.7-2.6-.1-4.6-.3c-.3,0-.4-.1-.4-.4v-.9c0-.3.2-.4.5-.4,1.6.2,3.3.3,4.8.3,2.9,0,3.7-.2,3.7-1s-.9-1-4.1-1-1.9,0-4.2.2c-.3,0-.4-.1-.4-.4ZM76.1,127.2c-.3,0-.5-.1-.6-.3v7.6c0,.3-.1.4-.4.4h-1.1c-.3,0-.4-.1-.4-.4v-14.9c0-.3.1-.4.4-.4h1.1c.3,0,.4.1.4.4v5.1c0,.4.1.5.5.5h1.5c.2-3.6,1.4-5.3,3.6-5.3s3.6,2,3.6,6.4-1.2,6.5-3.6,6.5-3.4-1.8-3.6-5.7h-1.4ZM70.8,119h1.1c.3,0,.5.1.5.4v15c0,.3-.1.4-.5.4h-1.1c-.3,0-.5-.1-.5-.4v-15c0-.3.1-.4.5-.4ZM79.5,126.4c0,3.2.5,4.5,1.6,4.5s1.6-1.3,1.6-4.5-.5-4.5-1.6-4.5-1.6,1.3-1.6,4.5ZM61.3,127.2c0,0-.1,0-.2,0h-1.5c-.3,0-.5-.1-.6-.3v7.6c0,.3-.1.4-.4.4h-1.1c-.3,0-.4-.1-.4-.4v-14.9c0-.3.1-.4.4-.4h1.1c.3,0,.4.1.4.4v5.1c0,.4.1.5.5.5h1.6c0-.5,0-1.1,0-1.6,0-2.6.8-3.5,3.2-3.5s2.4.1,3.4.3c.3,0,.5.2.5.5v1c0,.3-.2.5-.5.5-.8-.2-2-.3-3.1-.3s-1.5.4-1.5,1.7c0,2.6.2,5.6.7,8.2,0,.3-.1.4-.4.4h-1.1c-.3,0-.4-.1-.5-.4-.3-1.5-.5-3.2-.6-4.9ZM54.4,119h1.1c.3,0,.4.1.4.4v15c0,.3-.1.4-.4.4h-1.1c-.3,0-.4-.1-.4-.4v-15c0-.3.1-.4.4-.4ZM431.9,149.8c4.4,0,5.5.6,5.5,2.3s-1,2.4-5.5,2.4-3.6,0-5.3-.2c-.3,0-.4-.2-.4-.4v-.9c0-.3.2-.4.5-.4,1.2.2,2.8.2,5.1.2s3.5-.2,3.5-.7-.5-.6-3.3-.6-3.1,0-5,.1c-.3,0-.4-.1-.4-.4v-.9c0-.3,0-.4.4-.4,1.1,0,2.9-.1,4.9-.1ZM437.3,147.8v.8c0,.3-.1.4-.4.4h-9.8c-.3,0-.4-.1-.4-.4v-.8c0-.3.1-.4.4-.4h9.8c.3,0,.4.1.4.4ZM438.7,155.7v.9c0,.3-.1.4-.4.5-1.1.1-3.1.2-6.4.2-2.5,0-5.1,0-6.4-.2-.3,0-.4-.2-.4-.5v-.9c0-.3.1-.5.5-.4,1.3.1,3.4.2,6.4.2s4.7,0,6.3-.2c.3,0,.4.1.4.4ZM426.2,160.9c0-2.1.9-2.8,3.4-2.8s5,.1,7.4.3c.3,0,.4.2.4.5v1c0,.3-.1.4-.4.4-2.5-.2-4.9-.3-7.3-.3s-1.5.3-1.5,1.5,0,.7,0,1.2c0,.3-.2.5-.5.5h-1.1c-.3,0-.5-.2-.5-.5,0-.5-.1-1.1-.1-1.7ZM417.6,150.8v1.5c0,.4.3.5.6.5h2.1c.4,0,.6-.1.6-.5v-1.5c0,0-3.4,0-3.4,0ZM410.2,162.5v-.9c0-.3.2-.4.5-.4,1.4.2,3.4.3,4.6.3,3.7,0,4.5,0,4.5-.7s-.5-.7-3.5-.7-3.9,0-5.2,0c-.3,0-.4-.1-.4-.4v-.8c0-.3.1-.4.4-.4h.6c-.7-.3-1.2-.9-1.2-1.6s.5-1.4,1.6-1.4c2.3,0,6.2,0,8.9.2.3,0,.4.1.4.4v.9c0,.3-.1.4-.4.4-2-.1-5.8-.3-7.6-.3s-.9.2-.9.6.3.6.9.6c1,0,1.9,0,2.8,0,4.2,0,5.5.5,5.5,2.3s-1.4,2.4-6.6,2.4-3.3-.1-4.8-.3c-.3,0-.4-.2-.4-.5ZM417.6,154.6c-1.2,0-1.9-.6-2-1.7l-.3-4.9c0-.3.2-.5.5-.5h1.1c.3,0,.5.1.5.4v1.1h3.7s0-1.1,0-1.1c0-.3.2-.4.5-.4h1.1c.3,0,.5.2.5.5l-.3,4.9c0,1.1-.8,1.7-2,1.7h-3.4ZM412.8,154.2c0,.3-.2.5-.5.5h-1.1c-.3,0-.5-.2-.5-.5v-6.7c0-.3.2-.5.5-.5h1.1c.3,0,.5.2.5.5v.4c0,.3.1.5.5.5h1.1c.3,0,.5.1.5.4v1c0,.3-.1.4-.5.4h-.9c-.3,0-.6-.1-.7-.3v1.4c0,.3.1.5.5.5h1.1c.3,0,.5.1.5.4v1c0,.3-.1.5-.5.5h-.9c-.3,0-.6-.1-.7-.3v.9ZM406.1,153.4c0-.8-.5-1.1-1.9-1.1s-1.9.4-1.9,1.1.5,1.1,1.9,1.1,1.9-.4,1.9-1.1ZM404.2,156.4c-2.6,0-3.9-1-3.9-3s1.3-3,3.9-3,3.9,1,3.9,3-1.3,3-3.9,3ZM396.1,153.8c0-.4-.2-.6-.6-.6h-1.2c-.3,0-.4-.1-.4-.4v-1c0-.3.1-.5.4-.5h1.1c.4,0,.6.1.7.4v-4.2c0-.3.2-.5.5-.5h1.1c.3,0,.5.2.5.5v10.1c0,.3-.2.5-.5.5h-1.1c-.3,0-.5-.2-.5-.5v-3.8ZM403.1,147.3v-.6c0-.3.1-.4.4-.4h1.2c.3,0,.4.1.4.4v.5c0,.2-.1.4-.3.5h3.3c.3,0,.5.1.5.4v1c0,.3-.1.4-.5.4h-8c-.3,0-.5-.1-.5-.4v-1c0-.3.1-.4.5-.4h2.6c.3,0,.4,0,.4-.3ZM406.8,159.9c0,2.1-1.5,3.3-4,3.3s-5-.1-6.7-.3c-.3,0-.5-.2-.4-.4v-1c0-.3.3-.5.5-.4,2.1.2,3.7.3,6.7.3s1.8-.6,1.8-1.7,0-1-.1-1.4c0-.3.2-.5.5-.5h1.1c.3,0,.5.2.5.5,0,.4.1,1,.1,1.6ZM381.6,156.1c0,1.6.7,2.5,1.9,2.5s1.9-.8,1.9-2.5-.7-2.4-1.9-2.4-1.9.8-1.9,2.4ZM383.5,151.6c2.5,0,3.9,1.6,3.9,4.4s-1.5,4.4-3.9,4.4-3.9-1.6-3.9-4.4,1.5-4.4,3.9-4.4ZM375.4,155.9c0-.4-.2-.6-.6-.6h-1.2c-.3,0-.4-.1-.4-.4v-1.1c0-.3.1-.4.4-.4h1.1c.4,0,.6.1.7.4v-6.2c0-.3.2-.5.5-.5h1.1c.3,0,.5.2.5.5v15c0,.3-.2.5-.5.5h-1.1c-.3,0-.5-.2-.5-.5v-6.6ZM382.4,148.2v-1.2c0-.3.1-.4.4-.4h1.2c.3,0,.4.1.4.4v1c0,.2-.1.4-.3.5h3.3c.3,0,.4.1.4.4v1.1c0,.3-.1.4-.4.4h-8c-.3,0-.5-.1-.5-.4v-1.1c0-.3.1-.4.5-.4h2.6c.3,0,.4,0,.4-.3ZM358.6,158.5c-.3,0-.5-.2-.5-.5v-1c0-.3.2-.4.5-.4,1.4.2,3.8.3,6.3.3s4.6-.1,6.3-.3c.3,0,.5.1.5.4v1c0,.3-.1.5-.4.5-1.3.2-3.8.3-5.8.3.3.1.5.4.5.8v2.3c0,.3-.2.5-.5.5h-1.1c-.3,0-.5-.2-.5-.5v-2.5c0-.4-.2-.6-.6-.6-1.5,0-3.5-.1-4.7-.3ZM359.5,148.9c0-1,.7-1.5,2.1-1.5,4.3,0,6.5,0,8,.3.3,0,.4.2.4.4v1c0,.3-.2.4-.4.4-1.9-.3-4.1-.3-6.8-.3s-1.1.2-1.1.6.3.5,1.2.5h2.2c4.2,0,5.3.5,5.3,2.4s-1.2,2.6-6.4,2.6-3-.1-4.5-.4c-.2,0-.4-.2-.3-.5l.2-1c0-.3.2-.4.4-.3,1.3.2,2.8.3,4.3.3,3.5,0,4.3,0,4.3-.7s-.6-.7-3.3-.7-3.2,0-4.9,0-.4-.2-.4-.4v-.8c0-.3.1-.4.4-.4h.8c-.9-.3-1.3-.8-1.3-1.7ZM349.3,161.6c-2.8,0-5.1-.1-6.4-.3-.3,0-.4-.2-.4-.5v-1c0-.3.2-.5.5-.4,1.2.2,3.1.3,4.6.3s.6-.2.6-.6v-2.3s-2,0-2,0c-1.3,0-2.2-.7-2.2-1.9l-.3-6.5c0-.3.2-.5.5-.5h1.1c.3,0,.4.2.5.5v1.8c0,0,6.8,0,6.8,0v-1.8c0-.3.3-.5.5-.5h1.1c.3,0,.5.2.5.5l-.3,6.5c0,1.2-.9,1.9-2.2,1.9h-2s0,2.1,0,2.1c0,.4-.2.6-.4.8,2,0,4.4-.2,5.7-.3.3,0,.5.1.5.4v1c0,.3-.1.4-.4.5-1.3.2-3.5.3-6.3.3ZM346,152.1v2c0,.5.4.7.9.7h4.9c.5,0,.8-.3.8-.7v-2c0,0-6.6,0-6.6,0ZM335.4,150.1c-.9,0-1.5,0-2.3.2-.3,0-.5-.1-.5-.4v-1.1c0-.3.1-.4.5-.5.7-.1,1.4-.1,2.4-.1,3.4,0,5,1.9,5,6.3,0,4.1-1.6,6.3-4.9,6.3s-2.2-.3-3.3-.7c-.4-.1-.5-.3-.4-.6l.3-1c0-.3.2-.4.3-.4s.1,0,.2,0c1.1.4,2,.7,2.7.7,2,0,2.9-1.4,2.9-4.3s-.8-4.3-3.1-4.3ZM328.4,155.9c0-.4-.2-.6-.6-.6h-1.2c-.3,0-.4-.1-.4-.4v-1.1c0-.3.1-.4.4-.4h1.1c.4,0,.6.1.7.4v-6.2c0-.3.2-.5.5-.5h1.1c.3,0,.5.2.5.5v15c0,.3-.2.5-.5.5h-1.1c-.3,0-.5-.2-.5-.5v-6.6ZM315.9,153c1.2,0,2-.8,2-2s-.8-1.9-2-1.9-2,.7-2,1.9.8,2,2,2ZM306.9,162.5v-.9c0-.3.2-.4.5-.4,1.4.2,3.4.3,4.6.3,3.7,0,4.5,0,4.5-.7s-.5-.7-3.5-.7-3.9,0-5.2,0c-.3,0-.4-.1-.4-.4v-.8c0-.3.1-.4.4-.4h.6c-.7-.3-1.2-.9-1.2-1.6s.5-1.4,1.6-1.4c2.3,0,6.2,0,8.9.2.3,0,.4.1.4.4v.9c0,.3-.1.4-.4.4-2-.1-5.8-.3-7.6-.3s-.9.2-.9.6.3.6.9.6c1,0,1.9,0,2.8,0,4.2,0,5.5.5,5.5,2.3s-1.4,2.4-6.6,2.4-3.3-.1-4.8-.3c-.3,0-.4-.2-.4-.5ZM315.9,147.3c2.5,0,4,1.5,4,3.7s-1.6,3.8-4,3.8-4.1-1.5-4.1-3.8,1.6-3.7,4.1-3.7ZM309.4,154.2c0,.3-.2.5-.5.5h-1.1c-.3,0-.5-.2-.5-.5v-6.7c0-.3.2-.5.5-.5h1.1c.3,0,.5.2.5.5v6.7ZM298.1,158.3c-2.8,0-3.6.6-3.6,1.5s.9,1.5,3.6,1.5,3.6-.6,3.6-1.5-.9-1.5-3.6-1.5ZM298.1,163.3c-3.8,0-5.7-1.2-5.7-3.4s1.9-3.4,5.7-3.4,5.7,1.2,5.7,3.4-1.9,3.4-5.7,3.4ZM300.3,147.4h1.1c.3,0,.5.2.5.5v2c0,1.9,1.2,3.3,2.7,3.3s.4.1.4.5v1c0,.3-.1.4-.4.4-1.9,0-3.3-1.2-3.8-2.6-.5,1.4-1.9,2.6-3.8,2.6s-.4-.1-.4-.4v-1c0-.3.1-.5.4-.5,1.6,0,2.7-1.4,2.7-3.3v-2c0-.3.2-.5.5-.5ZM292.8,152.5c0-.4-.2-.6-.6-.6h-1.2c-.3,0-.5-.1-.5-.4v-1c0-.3.1-.4.5-.4h1.1c.4,0,.6.1.7.4v-2.9c0-.3.2-.5.5-.5h1.1c.3,0,.5.2.5.5v7.6c0,.3-.2.5-.5.5h-1.1c-.3,0-.5-.2-.5-.5v-2.6ZM282.2,148.9c-2.7,0-3.5.3-3.5,1.1s.8,1.1,3.5,1.1,3.5-.3,3.5-1.1-.8-1.1-3.5-1.1ZM276.2,162.5v-.8c0-.3.2-.4.5-.4,1.4.2,3.4.3,4.8.3,3.7,0,4.4,0,4.4-.6s-.4-.6-3.4-.6-4.2,0-5.3,0c-.3,0-.4-.1-.4-.4v-.7c0-.3.1-.4.4-.4h.6c-.7-.2-1.2-.8-1.2-1.5s.5-1.3,1.7-1.3c2.3,0,6.2,0,8.9.2.3,0,.4.1.4.4v.8c0,.3-.1.4-.4.4-2-.1-5.9-.3-7.7-.3s-.8.2-.8.6.2.5.9.5c.9,0,2,0,3,0,4.3,0,5.4.5,5.4,2.2s-1.2,2.3-6.5,2.3-3.5-.1-4.9-.3c-.3,0-.4-.2-.4-.5ZM282.3,153.6c2.1,0,4.6,0,6.3-.2.3,0,.4.1.4.4v.9c0,.3-.1.4-.4.4-1.1.1-3.1.2-6.4.2-2.5,0-5.1,0-6.4-.2-.3,0-.4-.2-.4-.4v-.9c0-.3.2-.4.4-.4,1.4.1,3.4.2,6.4.2ZM282.2,152.8c-4,0-5.6-.8-5.6-2.8s1.6-2.8,5.6-2.8,5.6.8,5.6,2.8-1.6,2.8-5.6,2.8ZM260.5,163.3c-4.1,0-6.2-1.1-6.2-3.2s2.1-3.2,6.2-3.2,6.2,1.1,6.2,3.2-2.1,3.2-6.2,3.2ZM255.1,147h1.1c.3,0,.4.1.4.4v2.8s.9,0,.9,0c.3,0,.5.1.6.3v-2.9c0-.3.1-.4.4-.4h1.1c.3,0,.4.1.4.4v7.5c0,.3-.1.4-.4.4h-1.1c-.3,0-.4-.1-.4-.4v-2.4c0-.4-.1-.5-.5-.5h-1s0,3.3,0,3.3c0,.3-.1.4-.4.4h-1.1c-.3,0-.4-.1-.4-.4v-8c0-.3.1-.4.4-.4ZM265.3,155.7c-2.1,0-3.3-1-3.3-2.7s1.2-2.7,3.3-2.7,3.3,1,3.3,2.7-1.2,2.7-3.3,2.7ZM260.5,158.7c-3,0-4.1.5-4.1,1.4s1,1.3,4.1,1.3,4.1-.5,4.1-1.3-1-1.4-4.1-1.4ZM264.7,146.2h1.1c.3,0,.4.1.4.4v.5c0,.2-.1.4-.3.5h2.7c.3,0,.4.1.4.4v1c0,.3-.1.4-.4.4h-6.9c-.3,0-.4-.1-.4-.4v-1c0-.3.1-.4.4-.4h2.1c.3,0,.4,0,.4-.3v-.6c0-.3.1-.4.4-.4ZM266.6,153c0-.6-.5-.9-1.4-.9s-1.4.3-1.4.9.5.9,1.4.9,1.4-.3,1.4-.9ZM240.1,151.9l-.3-4c0-.3.2-.5.5-.5h1.1c.3,0,.5.2.5.5v.7s6.9,0,6.9,0v-.7c0-.3.2-.5.5-.5h1.1c.3,0,.5.2.5.5l-.3,4c0,1.1-.8,1.7-2,1.7h-2.2s0,.9,0,.9c0,.2-.1.4-.3.5,1.8,0,4.2,0,5.5-.2.3,0,.5.1.5.4v1c0,.3-.1.4-.4.5-1.1.1-3,.2-6.3.2-2.5,0-5.1,0-6.4-.2-.3,0-.4-.2-.4-.5v-1c0-.3.2-.5.5-.4,1.3.1,3.4.2,4.8.1.3,0,.4-.2.4-.5v-1s-2.2,0-2.2,0c-1.3,0-2-.6-2-1.7ZM239.6,160.5c0-2.1.9-2.8,3.4-2.8s5,.1,7.4.3c.3,0,.4.2.4.5v1c0,.3-.1.4-.4.4-2.5-.2-4.9-.3-7.3-.3s-1.5.3-1.5,1.5,0,1,0,1.5c0,.3-.2.5-.5.5h-1.1c-.3,0-.5-.2-.5-.5,0-.6-.1-1.1-.1-2.1ZM242,150.4v.7c0,.5.3.7.9.7h4.9c.5,0,.8-.2.8-.7v-.7c0,0-6.5,0-6.5,0ZM229.5,157c-3.6,0-5.6-1.7-5.6-4.6s2.1-4.6,5.6-4.6,5.6,1.7,5.6,4.6-2,4.6-5.6,4.6ZM233.1,152.4c0-1.7-1.2-2.7-3.5-2.7s-3.5.9-3.5,2.7,1.2,2.7,3.5,2.7,3.5-1,3.5-2.7ZM236.4,159.8v1c0,.3-.1.4-.4.5-1.4.2-3.5.3-6.3.3s-5.1-.1-6.4-.3c-.3,0-.4-.2-.4-.5v-1c0-.3.2-.5.5-.4,1.4.2,3.8.3,6.3.3s4.6-.1,6.3-.3c.3,0,.5.1.5.4ZM214,161.6c-2.8,0-5.1-.1-6.4-.3-.3,0-.4-.2-.4-.5v-1c0-.3.2-.5.5-.4,1.2.2,3.1.3,4.6.3s.6-.2.6-.6v-2s0,0,0,0c-1.3,0-3.1-.1-4.5-.4-.2,0-.4-.2-.3-.5l.2-1c0-.3.2-.4.4-.3,1.3.2,2.9.3,4.3.3,3.5,0,4.3-.2,4.3-1s-.7-.9-3.3-.9-3.2,0-4.9,0-.4-.2-.4-.4v-.9c0-.3.1-.4.4-.4h.8c-.9-.3-1.4-1-1.4-2s.7-1.7,2.1-1.7c.7,0,1.4,0,2.2,0,2.1,0,4.3.1,5.8.3.3,0,.4.2.4.4v1.1c0,.3-.2.4-.4.4-1.8-.2-4.5-.3-6.8-.3s-1.1.2-1.1.8.4.9,1.2.9h2.2c4.1,0,5.3.6,5.3,2.7s-1,2.7-4.3,2.9v1.9c0,.4-.2.6-.4.8,2,0,4.4-.2,5.7-.3.3,0,.5.1.5.4v1c0,.3-.1.4-.4.5-1.4.2-3.5.3-6.3.3ZM194.5,154.4c0,3.2.6,4.5,1.9,4.5s1.9-1.3,1.9-4.5-.5-4.5-1.9-4.5-1.9,1.3-1.9,4.5ZM196.3,148c2.8,0,3.9,2,3.9,6.4s-1.2,6.5-3.9,6.5-4-2-4-6.5,1.2-6.4,4-6.4ZM190.4,150.4h.9c.3,0,.5.1.5.5v1.1c0,.3-.1.5-.5.5h-.8c-.4,0-.6-.1-.7-.4v3.4c0,.4.2.6.6.6h.9c.3,0,.5.1.5.4v1.1c0,.3-.1.4-.5.4h-.8c-.4,0-.6-.1-.7-.4v4.9c0,.3-.2.5-.5.5h-1.1c-.3,0-.5-.2-.5-.5v-15c0-.3.2-.5.5-.5h1.1c.3,0,.5.2.5.5v2.3c0,.4.2.6.6.6ZM177.3,152c0-2.8,1-3.9,3.5-3.9s2.6.1,3.9.3c.3,0,.5.2.5.5v1c0,.3-.2.5-.5.5-1.2-.2-2.2-.3-3.5-.3s-1.8.5-1.8,2.1c0,2.6.2,5.2.7,7.8,0,.3-.1.5-.4.5h-1.2c-.3,0-.5-.1-.5-.4-.5-2.6-.7-5.2-.7-8.1ZM174.9,162.5c0,.3-.2.5-.5.5h-1.1c-.3,0-.5-.2-.5-.5v-15c0-.3.2-.5.5-.5h1.1c.3,0,.5.2.5.5v15ZM168.7,150.8c0,2.1-1.3,3.3-3.7,3.3s-5.3-.1-7.1-.3c-.3,0-.5-.2-.4-.4v-1c0-.3.3-.5.5-.4,2.1.2,4,.3,6.8.3s1.7-.5,1.7-1.5,0-2-.1-2.8c0-.3.1-.5.4-.5h1.1c.3,0,.5.2.5.5,0,.8.1,2.2.1,2.9ZM169,160c0,2.1-1.4,3.3-3.8,3.3s-5.6-.1-7.4-.3c-.3,0-.5-.2-.4-.4v-1c0-.3.3-.5.5-.4,2.1.2,4.2.3,7.4.3s1.7-.5,1.7-1.5,0-.9-.1-1.3c0-.3.1-.5.4-.5h1.1c.3,0,.5.2.5.5,0,.4.1.8.1,1.4ZM170.2,155.5v1c0,.3-.1.4-.5.5-1.1.1-3,.2-6.3.2-2.5,0-5.1,0-6.4-.2-.3,0-.5-.2-.5-.5v-1c0-.3.2-.5.5-.4,1.3.1,3.4.2,6.3.2s4.6,0,6.3-.2c.3,0,.5.1.5.4ZM141.6,152c0-2.8,1-3.9,3.5-3.9s2.6.1,3.9.3c.3,0,.4.2.4.5v1c0,.3-.2.5-.5.5-1.2-.2-2.2-.3-3.5-.3s-1.8.5-1.8,2.1c0,2.6.2,5.2.7,7.8,0,.3-.1.5-.5.5h-1.2c-.3,0-.4-.1-.5-.4-.4-2.6-.7-5.2-.7-8.1ZM137.5,155.9c0-.4-.2-.6-.6-.6h-1.2c-.3,0-.4-.1-.4-.4v-1.1c0-.3.1-.4.4-.4h1.1c.4,0,.6.1.7.4v-6.2c0-.3.2-.5.5-.5h1.1c.3,0,.5.2.5.5v15c0,.3-.2.5-.5.5h-1.1c-.3,0-.5-.2-.5-.5v-6.6ZM128.8,148.2v-1.2c0-.3.1-.4.5-.4h1.2c.3,0,.5.1.5.4v1c0,.2-.1.4-.3.5h3c.3,0,.4.1.4.4v1.1c0,.3-.1.4-.4.4h-2.6s0,3.9,0,3.9c0,2.1,1.3,3.9,2.8,4.1.3,0,.4.2.4.5v1.1c0,.3-.1.4-.4.4-1.7-.2-3.3-1.6-3.8-3.3-.5,1.7-2,3-3.8,3.3-.3,0-.5-.1-.5-.4v-1.1c0-.3.1-.4.4-.5,1.5-.2,2.8-2.1,2.8-4.1v-3.9s-2.7,0-2.7,0c-.3,0-.5-.1-.5-.4v-1.1c0-.3.1-.4.5-.4h2.2c.3,0,.4,0,.4-.3ZM123.5,162.5c0,.3-.2.5-.5.5h-1.1c-.3,0-.5-.2-.5-.5v-15c0-.3.2-.5.5-.5h1.1c.3,0,.5.2.5.5v15ZM119.2,155.1c.3,0,.5,0,.5.4v1.1c0,.3-.1.4-.5.5-1.2,0-2.6.1-4.3.1s-3.4,0-4.6-.1c-.3,0-.4-.2-.4-.5v-1c0-.3.2-.4.5-.4.7,0,2.5,0,3.7,0s.5-.1.5-.4v-2.4c0-.3.2-.5.5-.5h1.1c.3,0,.5.2.5.5v2.4c0,.3-.1.4-.3.5,1.2,0,2.1,0,2.9-.2ZM112.7,150.8c0,.6.1,1.7.4,2.6,0,.3,0,.4-.3.4l-1.2.2c-.3,0-.4,0-.5-.3-.3-1-.4-2.3-.4-3.2,0-2.1,1.1-3.1,3.3-3.1s3.2.1,4.1.3c.3,0,.5.2.5.5v1.1c0,.3-.2.5-.5.4-1.2-.2-2.4-.3-3.9-.3s-1.5.5-1.5,1.4ZM106.9,153.8c0-.4-.2-.6-.6-.6h-1.2c-.3,0-.5-.1-.5-.4v-1c0-.3.1-.5.5-.5h1.1c.4,0,.6.1.7.4v-4.2c0-.3.2-.5.5-.5h1.1c.3,0,.5.2.5.5v10.5c0,.3-.2.5-.5.5h-1.1c-.3,0-.5-.2-.5-.5v-4.2ZM117.9,160c0,2.1-1.4,3.3-3.8,3.3s-5.5-.1-7.2-.3c-.3,0-.4-.2-.4-.4v-1c0-.3.3-.5.5-.4,2.1.2,4,.3,7.2.3s1.7-.5,1.7-1.5,0-1.1-.1-1.4c0-.3.1-.5.4-.5h1.1c.3,0,.5.2.5.5,0,.4.1,1,.1,1.5ZM99.4,148c2.8,0,4,2,4,6.4s-1.3,6.5-4,6.5-4.1-2-4.1-6.5,1.2-6.4,4.1-6.4ZM97.4,154.4c0,3.2.6,4.5,2,4.5s2-1.3,2-4.5-.6-4.5-2-4.5-2,1.3-2,4.5ZM92.9,162.5c0,.3-.2.5-.5.5h-1.1c-.3,0-.5-.2-.5-.5v-15c0-.3.2-.5.5-.5h1.1c.3,0,.5.2.5.5v15ZM76.5,161.6c-2.8,0-5.1-.1-6.4-.3-.3,0-.5-.2-.5-.5v-1c0-.3.2-.5.5-.4,1.2.2,3.1.3,4.6.3s.6-.2.6-.6v-2.1c-3-.3-4.7-1.9-4.7-4.6s2.1-4.6,5.6-4.6,5.6,1.7,5.6,4.6-1.6,4.2-4.4,4.5v2c0,.4-.2.6-.4.8,2,0,4.4-.2,5.7-.3.3,0,.5.1.5.4v1c0,.3-.1.4-.5.5-1.3.2-3.5.3-6.3.3ZM79.9,152.4c0-1.7-1.2-2.7-3.5-2.7s-3.5.9-3.5,2.7,1.2,2.7,3.5,2.7,3.5-1,3.5-2.7ZM61.8,156.1c0,1.6.7,2.5,1.9,2.5s1.9-.8,1.9-2.5-.7-2.4-1.9-2.4-1.9.8-1.9,2.4ZM63.7,151.6c2.5,0,3.9,1.6,3.9,4.4s-1.5,4.4-3.9,4.4-3.9-1.6-3.9-4.4,1.5-4.4,3.9-4.4ZM57.3,162.5c0,.3-.2.5-.5.5h-1.1c-.3,0-.5-.2-.5-.5v-15c0-.3.2-.5.5-.5h1.1c.3,0,.5.2.5.5v15ZM62.6,148.2v-1.2c0-.3.1-.4.4-.4h1.2c.3,0,.4.1.4.4v1c0,.2-.1.4-.3.5h3.3c.3,0,.4.1.4.4v1.1c0,.3-.1.4-.4.4h-8c-.3,0-.4-.1-.4-.4v-1.1c0-.3.1-.4.4-.4h2.6c.3,0,.4,0,.4-.3ZM50.6,157c0-1.3-.7-1.8-2.7-1.8s-1.5,0-2.5,0-.4-.1-.4-.4v-1c0-.3.1-.4.4-.4h.6c-.7-.6-1.1-1.5-1.1-2.6,0-1.7,1.1-2.6,3.3-2.6s2.2,0,3.5.2c.3,0,.4.2.4.4v1.2c0,.3-.2.4-.5.4-1.4-.2-2.3-.3-3-.3-1.2,0-1.7.5-1.7,1.6s.5,1.6,1.6,1.6c2.8,0,4.1,1.2,4.1,3.6s-1.4,3.8-4.3,3.8-2.3-.2-3.7-.7c-.3-.1-.4-.3-.3-.6l.3-1.1c0-.2.2-.3.3-.3s.1,0,.2,0c1,.5,1.9.7,2.8.7,1.9,0,2.6-.5,2.6-1.8ZM43,150.4h.9c.3,0,.4.1.4.5v1.1c0,.3-.1.5-.4.5h-.8c-.4,0-.6-.1-.7-.4v3c0,.4.2.6.6.6h.9c.3,0,.4.1.4.4v1.1c0,.3-.1.5-.4.5h-.8c-.4,0-.6-.1-.7-.4v5.3c0,.3-.2.5-.5.5h-1.1c-.3,0-.5-.2-.5-.5v-15c0-.3.2-.5.5-.5h1.1c.3,0,.5.2.5.5v2.3c0,.4.2.6.6.6ZM433.7,178.1c-.9,0-1.5,0-2.3.2-.3,0-.5-.1-.5-.4v-1.1c0-.3.1-.4.5-.5.7-.1,1.4-.1,2.4-.1,3.4,0,5,1.9,5,6.3,0,4.1-1.6,6.3-4.9,6.3s-2.2-.3-3.3-.7c-.4-.1-.5-.3-.4-.6l.3-1c0-.3.2-.4.3-.4s.1,0,.2,0c1.1.4,2,.7,2.7.7,2,0,2.9-1.4,2.9-4.3s-.8-4.3-3.1-4.3ZM428.4,180.7c0,.4.2.6.6.6h2.7c.3,0,.5.1.5.4v1.1c0,.3-.1.4-.5.4h-2.6c-.4,0-.6-.1-.7-.4v7.6c0,.3-.2.5-.5.5h-1.1c-.3,0-.5-.2-.5-.5v-15c0-.3.2-.5.5-.5h1.1c.3,0,.5.2.5.5v5.2ZM412,177.8c4.4,0,5.5.6,5.5,2.3s-1,2.4-5.5,2.4-3.6,0-5.3-.2c-.3,0-.4-.2-.4-.4v-.9c0-.3.2-.4.5-.4,1.2.2,2.8.2,5.1.2s3.5-.2,3.5-.7-.5-.6-3.3-.6-3.1,0-5,.1c-.3,0-.4-.1-.4-.4v-.9c0-.3,0-.4.4-.4,1.1,0,2.9-.1,4.9-.1ZM417.4,175.8v.8c0,.3-.1.4-.4.4h-9.8c-.3,0-.4-.1-.4-.4v-.8c0-.3.1-.4.4-.4h9.8c.3,0,.4.1.4.4ZM418.7,183.7v.9c0,.3-.1.4-.4.5-1.1.1-3.1.2-6.4.2-2.5,0-5.1,0-6.4-.2-.3,0-.4-.2-.4-.5v-.9c0-.3.1-.5.4-.4,1.3.1,3.4.2,6.4.2s4.7,0,6.3-.2c.3,0,.5.1.5.4ZM406.2,188.9c0-2.1.9-2.8,3.4-2.8s5,.1,7.4.3c.3,0,.5.2.5.5v1c0,.3-.1.4-.5.4-2.5-.2-4.9-.3-7.3-.3s-1.5.3-1.5,1.5,0,.7,0,1.2c0,.3-.2.5-.5.5h-1.1c-.3,0-.5-.2-.5-.5,0-.5-.1-1.1-.1-1.7ZM397.6,178.8v1.5c0,.4.3.5.6.5h2.1c.4,0,.6-.1.6-.5v-1.5c0,0-3.4,0-3.4,0ZM390.2,190.5v-.9c0-.3.2-.4.5-.4,1.4.2,3.4.3,4.6.3,3.7,0,4.5,0,4.5-.7s-.5-.7-3.5-.7-3.9,0-5.2,0c-.3,0-.4-.1-.4-.4v-.8c0-.3.1-.4.4-.4h.6c-.7-.3-1.2-.9-1.2-1.6s.5-1.4,1.6-1.4c2.3,0,6.2,0,8.9.2.3,0,.4.1.4.4v.9c0,.3-.1.4-.4.4-2-.1-5.8-.3-7.6-.3s-.9.2-.9.6.3.6.9.6c1,0,1.9,0,2.8,0,4.2,0,5.5.5,5.5,2.3s-1.4,2.4-6.6,2.4-3.3-.1-4.8-.3c-.3,0-.4-.2-.4-.5ZM397.6,182.6c-1.2,0-1.9-.6-2-1.7l-.3-4.9c0-.3.2-.5.5-.5h1.1c.3,0,.5.1.5.4v1.1h3.7s0-1.1,0-1.1c0-.3.2-.4.5-.4h1.1c.3,0,.5.2.5.5l-.3,4.9c0,1.1-.8,1.7-2,1.7h-3.4ZM392.8,182.2c0,.3-.2.5-.5.5h-1.1c-.3,0-.5-.2-.5-.5v-6.7c0-.3.2-.5.5-.5h1.1c.3,0,.5.2.5.5v.4c0,.3.1.5.4.5h1.1c.3,0,.5.1.5.4v1c0,.3-.1.4-.5.4h-.9c-.3,0-.6-.1-.7-.3v1.4c0,.3.1.5.4.5h1.1c.3,0,.5.1.5.4v1c0,.3-.1.5-.5.5h-.9c-.3,0-.6-.1-.7-.3v.9ZM374.7,175h1.1c.3,0,.4.1.4.4v5.9s1,0,1,0c.3,0,.5.1.6.3v-6c0-.3.1-.4.4-.4h1.1c.3,0,.5.1.5.4v14.9c0,.3-.1.4-.5.4h-1.1c-.3,0-.4-.1-.4-.4v-6.7c0-.4-.1-.5-.5-.5h-1.1s0,7.2,0,7.2c0,.3-.1.4-.4.4h-1.1c-.3,0-.4-.1-.4-.4v-15c0-.3.1-.4.4-.4ZM385,179.6c2.2,0,3.4,1.6,3.4,4.4s-1.2,4.4-3.4,4.4-3.4-1.6-3.4-4.4,1.2-4.4,3.4-4.4ZM384,176.2v-1.2c0-.3.1-.4.4-.4h1.1c.3,0,.4.1.4.4v1c0,.2-.1.4-.3.5h2.8c.3,0,.4.1.4.4v1.1c0,.3-.1.4-.4.4h-7c-.3,0-.4-.1-.4-.4v-1.1c0-.3.1-.4.4-.4h2.1c.3,0,.4,0,.4-.3ZM383.5,184.1c0,1.7.5,2.5,1.4,2.5s1.4-.8,1.4-2.5-.5-2.4-1.4-2.4-1.4.8-1.4,2.4ZM368.8,177.3v1.1c0,2,1.2,3.5,2.7,3.5s.4.1.4.4v1c0,.3-.1.4-.4.4-1.9,0-3.3-1.2-3.8-2.7-.5,1.4-1.9,2.7-3.8,2.7s-.4-.1-.4-.4v-1c0-.3.1-.4.4-.4,1.6,0,2.7-1.5,2.7-3.5v-1.1s-2.7,0-2.7,0c-.3,0-.4-.1-.4-.4v-1c0-.3.1-.4.4-.4h7.4c.3,0,.5.1.5.4v1c0,.3-.1.4-.5.4h-2.6ZM370.3,187.9c0,2.1-1.5,3.3-4,3.3s-5.3-.1-7.1-.3c-.3,0-.4-.2-.4-.4v-1c0-.3.3-.5.5-.4,2.1.2,3.9.3,7.1.3s1.8-.6,1.8-1.7,0-1.4-.1-1.8c0-.3.2-.5.5-.5h1.1c.3,0,.5.2.5.5,0,.4.1,1.2.1,2ZM361.4,185.6c0,.3-.2.5-.5.5h-1.1c-.3,0-.5-.2-.5-.5v-10.1c0-.3.2-.5.5-.5h1.1c.3,0,.5.2.5.5v10.1ZM346.5,183.5h-1.2c-.3,0-.4-.1-.5-.4-.3-1.2-.7-3.2-.7-4.2,0-2.4,1-3.4,3.4-3.4s2.5.1,3.9.3c.3,0,.4.2.4.5v1c0,.3-.2.5-.5.5-1.2-.2-1.9-.3-3.8-.3s-1.4.4-1.4,1.4.3,3,.7,4.2c0,.3-.1.5-.4.5ZM341.4,177.7c0,.4.2.6.6.6h.9c.3,0,.4.1.4.5v1c0,.3-.1.4-.4.4h-.8c-.4,0-.6-.1-.7-.4v4.6c0,.3-.2.5-.5.5h-1.1c-.3,0-.5-.2-.5-.5v-8.9c0-.3.2-.5.5-.5h1.1c.3,0,.5.2.5.5v2.2ZM344.9,188.4c-.9,1.7-3.3,2.8-5.4,2.7-.3,0-.4-.1-.4-.4v-1c0-.3.1-.4.4-.4,2.4,0,4.3-1.4,4.3-3.2v-.7c0-.3.2-.5.5-.5h1.1c.3,0,.5.2.5.5v.7c0,1.7,2,3.2,4.4,3.2s.4.1.4.4v1c0,.3-.1.4-.4.4-2.1.1-4.5-1-5.4-2.7ZM332.9,176c2.8,0,4,2,4,6.4s-1.3,6.5-4,6.5-4-2-4-6.5,1.2-6.4,4-6.4ZM330.9,182.4c0,3.2.6,4.5,2,4.5s2-1.3,2-4.5-.6-4.5-2-4.5-2,1.3-2,4.5ZM326.5,190.5c0,.3-.2.5-.5.5h-1.1c-.3,0-.5-.2-.5-.5v-15c0-.3.2-.5.5-.5h1.1c.3,0,.5.2.5.5v15ZM316.7,178.1c-.9,0-1.5,0-2.3.2-.3,0-.5-.1-.5-.4v-1.1c0-.3.1-.4.5-.5.7-.1,1.3-.1,2.4-.1,3.4,0,5,1.9,5,6.3,0,4.1-1.6,6.3-4.9,6.3s-2.2-.3-3.3-.7c-.4-.1-.5-.3-.4-.6l.3-1c0-.3.2-.4.3-.4s.1,0,.2,0c1.1.4,2,.7,2.7.7,2,0,2.9-1.4,2.9-4.3s-.8-4.3-3.1-4.3ZM309.8,183.9c0-.4-.2-.6-.6-.6h-1.2c-.3,0-.5-.1-.5-.4v-1.1c0-.3.1-.4.5-.4h1.1c.4,0,.6.1.7.4v-6.2c0-.3.2-.5.5-.5h1.1c.3,0,.5.2.5.5v15c0,.3-.2.5-.5.5h-1.1c-.3,0-.5-.2-.5-.5v-6.6ZM304.7,191.4c-.8,0-1.4-.5-1.4-1.3s.6-1.3,1.4-1.3,1.4.5,1.4,1.3-.6,1.3-1.4,1.3ZM284.5,189.4l-.3-4.6c0-.3.2-.5.5-.5h1.1c.3,0,.4.2.5.5v.8s7.2,0,7.2,0v-.8c0-.3.2-.5.5-.5h1.1c.3,0,.5.2.5.5l-.3,4.6c0,1.1-.8,1.7-2,1.7h-6.8c-1.3,0-2-.6-2-1.7ZM293.7,177.3v.5c0,1.9,1.2,3.3,2.7,3.3s.4.1.4.4v1c0,.3-.1.4-.4.4-1.9,0-3.3-1.2-3.8-2.6-.5,1.4-1.9,2.6-3.8,2.6s-.4-.1-.4-.4v-1c0-.3.1-.4.4-.4,1.6,0,2.7-1.4,2.7-3.3v-.5s-2.7,0-2.7,0c-.3,0-.4-.1-.4-.4v-1c0-.3.1-.4.4-.4h7.4c.3,0,.5.1.5.4v1c0,.3-.1.4-.5.4h-2.6ZM286.3,182.6c0,.3-.2.5-.5.5h-1.1c-.3,0-.5-.2-.5-.5v-7.1c0-.3.2-.5.5-.5h1.1c.3,0,.5.2.5.5v7.1ZM286.4,187.4v1.2c0,.5.3.7.9.7h5.2c.5,0,.8-.2.8-.7v-1.2c0,0-6.9,0-6.9,0ZM274.7,176.9c-2.7,0-3.5.3-3.5,1.1s.8,1.1,3.5,1.1,3.5-.3,3.5-1.1-.8-1.1-3.5-1.1ZM268.7,190.5v-.8c0-.3.2-.4.5-.4,1.3.2,3.4.3,4.8.3,3.7,0,4.4,0,4.4-.6s-.4-.6-3.4-.6-4.2,0-5.3,0c-.3,0-.4-.1-.4-.4v-.7c0-.3.1-.4.4-.4h.6c-.7-.2-1.2-.8-1.2-1.5s.5-1.3,1.7-1.3c2.3,0,6.2,0,8.9.2.3,0,.4.1.4.4v.8c0,.3-.1.4-.4.4-2-.1-5.9-.3-7.7-.3s-.8.2-.8.6.2.5.9.5c.9,0,2,0,3,0,4.3,0,5.4.5,5.4,2.2s-1.2,2.3-6.5,2.3-3.5-.1-4.9-.3c-.3,0-.4-.2-.4-.5ZM274.9,181.6c2.1,0,4.6,0,6.3-.2.3,0,.4.1.4.4v.9c0,.3-.1.4-.4.4-1.1.1-3.1.2-6.4.2-2.5,0-5.1,0-6.4-.2-.3,0-.4-.2-.4-.4v-.9c0-.3.2-.4.4-.4,1.4.1,3.4.2,6.4.2ZM274.7,180.8c-4,0-5.6-.8-5.6-2.8s1.6-2.8,5.6-2.8,5.6.8,5.6,2.8-1.6,2.8-5.6,2.8ZM254.1,191.3c-3.9,0-5.9-1.2-5.9-3.4s2-3.4,5.9-3.4,5.9,1.2,5.9,3.4-2,3.4-5.9,3.4ZM255.9,175.6v-.9c0-.3.1-.4.4-.4h1.2c.3,0,.4.1.4.4v.7c0,.2-.1.4-.3.5h3c.3,0,.4.1.4.4v1c0,.3-.1.4-.4.4h-2.6s0,.2,0,.2c0,1.9,1.2,3.3,2.7,3.3s.4.1.4.4v1c0,.3-.1.5-.4.5-1.9,0-3.3-1.2-3.8-2.6-.5,1.4-1.9,2.6-3.8,2.6s-.4-.1-.4-.5v-1c0-.3.1-.4.4-.4,1.6,0,2.7-1.4,2.7-3.3v-.2s-2.7,0-2.7,0c-.3,0-.4-.1-.4-.4v-1c0-.3.1-.4.4-.4h2.2c.3,0,.4,0,.4-.3ZM250.6,178c0,.4.2.6.6.6h1.4c.3,0,.4.1.4.4v1c0,.3-.1.4-.4.4h-1.3c-.4,0-.6-.1-.7-.4v3c0,.3-.2.5-.5.5h-1.1c-.3,0-.5-.2-.5-.5v-7.6c0-.3.2-.5.5-.5h1.1c.3,0,.5.2.5.5v2.4ZM254.1,186.3c-2.8,0-3.8.6-3.8,1.5s1,1.5,3.8,1.5,3.8-.6,3.8-1.5-1-1.5-3.8-1.5ZM239.2,189.6c-2.8,0-5.1-.1-6.4-.3-.3,0-.5-.2-.5-.5v-1c0-.3.2-.5.5-.4,1.2.2,3.1.3,4.6.3s.6-.2.6-.6v-2.2c0-.3.2-.5.5-.5h1.1c.3,0,.5.2.5.5v2.1c0,.4-.2.6-.4.8,2,0,4.4-.2,5.7-.3.3,0,.5.1.5.4v1c0,.3-.1.4-.5.5-1.3.2-3.5.3-6.3.3ZM234.2,184.7c-.3,0-.6,0-.6-.4v-1.1c0-.3.1-.4.4-.4,2.4,0,4.1-1.6,4.1-3.8v-2.5c0-.3.2-.5.5-.5h1.1c.3,0,.5.2.5.5v2.5c0,2.2,1.7,3.8,4.1,3.8s.4.1.4.4v1.1c0,.4-.3.4-.6.4-2.1,0-4.2-1.2-4.9-3-.8,1.8-2.8,3-4.9,3ZM224.6,184.1c0,1.6.7,2.5,1.9,2.5s1.9-.8,1.9-2.5-.7-2.4-1.9-2.4-1.9.8-1.9,2.4ZM226.4,179.6c2.5,0,3.9,1.6,3.9,4.4s-1.5,4.4-3.9,4.4-3.9-1.6-3.9-4.4,1.5-4.4,3.9-4.4ZM218.3,183.9c0-.4-.2-.6-.6-.6h-1.2c-.3,0-.4-.1-.4-.4v-1.1c0-.3.1-.4.4-.4h1.1c.4,0,.6.1.7.4v-6.2c0-.3.2-.5.5-.5h1.1c.3,0,.5.2.5.5v15c0,.3-.2.5-.5.5h-1.1c-.3,0-.5-.2-.5-.5v-6.6ZM225.3,176.2v-1.2c0-.3.1-.4.5-.4h1.2c.3,0,.4.1.4.4v1c0,.2-.1.4-.3.5h3.3c.3,0,.5.1.5.4v1.1c0,.3-.1.4-.5.4h-8c-.3,0-.5-.1-.5-.4v-1.1c0-.3.1-.4.5-.4h2.6c.3,0,.4,0,.4-.3ZM207.1,180c0-2.8,1-3.9,3.5-3.9s2.4.1,3.8.3c.3,0,.4.2.4.5v1c0,.3-.2.5-.5.5-1.2-.2-2-.3-3.3-.3s-1.8.5-1.8,2.1c0,2.6.2,5.2.7,7.8,0,.3-.1.5-.4.5h-1.2c-.3,0-.4-.1-.5-.4-.5-2.6-.7-5.2-.7-8.1ZM204.4,180.7c0,.4.2.6.6.6h.9c.3,0,.5.1.5.4v1.1c0,.3-.1.4-.5.4h-.8c-.4,0-.6-.1-.7-.4v7.6c0,.3-.2.5-.5.5h-1.1c-.3,0-.5-.2-.5-.5v-15c0-.3.2-.5.5-.5h1.1c.3,0,.5.2.5.5v5.2ZM191.6,187.4l.3-1c0-.3.2-.4.3-.4s.1,0,.2,0c1,.4,1.9.7,2.7.7,1.8,0,2.5-.8,2.5-3s-.1-4.6-.4-7c0-.3.1-.5.5-.5h1.1c.3,0,.5.1.5.4.3,2.2.4,4.2.4,6.9s-1.5,5.2-4.4,5.2-2.1-.2-3.3-.7c-.4-.1-.5-.3-.4-.6ZM187.7,183.9c0-.4-.2-.6-.6-.6h-1.2c-.3,0-.4-.1-.4-.4v-1.1c0-.3.1-.4.4-.4h1.1c.4,0,.6.1.7.4v-6.2c0-.3.2-.5.5-.5h1.1c.3,0,.5.2.5.5v15c0,.3-.2.5-.5.5h-1.1c-.3,0-.5-.2-.5-.5v-6.6ZM173.2,182.4c0,3.2.6,4.5,2,4.5s2-1.3,2-4.5-.6-4.5-2-4.5-2,1.3-2,4.5ZM175.2,176c2.8,0,4,2,4,6.4s-1.3,6.5-4,6.5-4.1-2-4.1-6.5,1.2-6.4,4.1-6.4ZM167,183.9c0-.4-.2-.6-.6-.6h-1.2c-.3,0-.4-.1-.4-.4v-1.1c0-.3.1-.4.4-.4h1.1c.4,0,.6.1.7.4v-6.2c0-.3.2-.5.5-.5h1.1c.3,0,.5.2.5.5v15c0,.3-.2.5-.5.5h-1.1c-.3,0-.5-.2-.5-.5v-6.6ZM150.9,186.6c0-1.3.8-2.1,2.2-2.1h8.3c.5,0,.8.3.8.8v4.1c0,1-.7,1.6-1.9,1.6h-9.3c-.3,0-.4-.1-.4-.4v-1c0-.3.1-.4.4-.4h1.3c-.9-.5-1.5-1.5-1.5-2.6ZM158.3,175.6v-.9c0-.3.1-.4.5-.4h1.2c.3,0,.5.1.5.4v.7c0,.2-.1.4-.3.5h3c.3,0,.5.1.5.4v1c0,.3-.1.4-.5.4h-2.6s0,.2,0,.2c0,1.9,1.2,3.3,2.7,3.3s.4.1.4.4v1c0,.3-.1.5-.4.5-1.9,0-3.3-1.2-3.8-2.6-.5,1.4-1.9,2.6-3.8,2.6s-.4-.1-.4-.5v-1c0-.3.1-.4.4-.4,1.6,0,2.7-1.4,2.7-3.3v-.2s-2.7,0-2.7,0c-.3,0-.5-.1-.5-.4v-1c0-.3.1-.4.5-.4h2.2c.3,0,.4,0,.4-.3ZM159.4,189.2c.4,0,.7-.2.7-.6v-1.8c0-.3-.2-.4-.4-.4h-5.5c-.8,0-1.2.3-1.2,1.1s.7,1.7,1.6,1.7h4.9ZM153.1,182.7c0,.3-.2.5-.5.5h-1.1c-.3,0-.5-.2-.5-.5v-7.2c0-.3.2-.5.5-.5h1.1c.3,0,.5.2.5.5v7.2ZM145.7,186.5c.4,0,.7-.2.7-.6v-7.4c0-.3-.2-.4-.4-.4h-1.5c-1.3,0-1.8,1-1.8,4s.8,4.4,2,4.4h1.1ZM147.6,176.2c.5,0,.8.3.8.8v9.9c0,1-.7,1.6-1.9,1.6h-5.5c-.3,0-.5-.1-.5-.4v-1.1c0-.3.1-.4.5-.4h1.1c-1-1.2-1.7-3.3-1.7-5.9s.9-4.5,3.4-4.5h3.7ZM136.4,183.9c0-.4-.2-.6-.6-.6h-1.2c-.3,0-.4-.1-.4-.4v-1.1c0-.3.1-.4.4-.4h1.1c.4,0,.6.1.7.4v-6.2c0-.3.2-.5.5-.5h1.1c.3,0,.5.2.5.5v15c0,.3-.2.5-.5.5h-1.1c-.3,0-.5-.2-.5-.5v-6.6ZM127.7,178.1c-.9,0-1.5,0-2.3.2-.3,0-.5-.1-.5-.4v-1.1c0-.3.1-.4.5-.5.7-.1,1.4-.1,2.4-.1,3.4,0,5,1.9,5,6.3s-1.6,6.3-4.9,6.3-2.2-.3-3.3-.7c-.4-.1-.5-.3-.4-.6l.3-1c0-.3.2-.4.3-.4s.1,0,.2,0c1.1.4,2,.7,2.7.7,2,0,2.9-1.4,2.9-4.3s-.8-4.3-3.1-4.3ZM120.7,183.9c0-.4-.2-.6-.6-.6h-1.2c-.3,0-.5-.1-.5-.4v-1.1c0-.3.1-.4.5-.4h1.1c.4,0,.6.1.7.4v-6.2c0-.3.2-.5.5-.5h1.1c.3,0,.5.2.5.5v15c0,.3-.2.5-.5.5h-1.1c-.3,0-.5-.2-.5-.5v-6.6ZM109.7,178.1v4.8c0,2.2,1,3.4,2.3,3.6.3,0,.4.1.4.4v1.1c0,.3-.1.5-.4.4-1.6-.2-2.8-1.2-3.3-2.7-.5,1.5-1.8,2.5-3.3,2.7-.3,0-.5-.1-.5-.4v-1.1c0-.3.1-.4.5-.4,1.4-.2,2.4-1.4,2.4-3.6v-4.8s-2.3,0-2.3,0c-.3,0-.4-.1-.4-.4v-1.1c0-.3.1-.4.4-.4h6.5c.3,0,.4.1.4.4v1.1c0,.3-.1.4-.4.4h-2.2ZM105.9,181.6v1.1c0,.3-.1.4-.4.4h-1.6c-.3,0-.5-.1-.6-.3v7.7c0,.3-.1.4-.5.4h-1.1c-.3,0-.5-.1-.5-.4v-14.9c0-.3.1-.4.5-.4h1.1c.3,0,.5.1.5.4v5c0,.4.1.5.5.5h1.6c.3,0,.4.1.4.4ZM98.6,175h1.1c.3,0,.5.1.5.4v15c0,.3-.1.4-.5.4h-1.1c-.3,0-.5-.1-.5-.4v-15c0-.3.1-.4.5-.4ZM87.9,188.5c-.3,0-.4-.1-.4-.4v-1.1c0-.3.1-.4.4-.5,1.5-.2,2.8-2.1,2.8-4.1v-5.8c0-.3.2-.5.5-.5h1.1c.3,0,.5.2.5.5v5.8c0,2.1,1.3,3.9,2.8,4.1.3,0,.4.2.4.5v1.1c0,.3-.1.4-.4.4-1.7-.2-3.3-1.6-3.8-3.3-.5,1.7-2,3-3.8,3.3ZM85.3,190.5c0,.3-.2.5-.5.5h-1.1c-.3,0-.5-.2-.5-.5v-15c0-.3.2-.5.5-.5h1.1c.3,0,.5.2.5.5v15ZM75.1,183.8h-1.2c-.3,0-.5-.1-.5-.4-.4-1.4-.7-3.4-.7-4.5,0-2.5,1-3.5,3.5-3.5s2.6.1,4,.3c.3,0,.5.2.5.5v1c0,.3-.2.5-.5.5-1.2-.2-1.9-.3-3.9-.3s-1.5.5-1.5,1.5.3,3,.7,4.4c0,.3,0,.5-.4.5ZM68.6,181.8c0-.4-.2-.6-.6-.6h-1.2c-.3,0-.5-.1-.5-.4v-1c0-.3.1-.5.5-.5h1.1c.4,0,.6.1.7.4v-4.2c0-.3.2-.5.5-.5h1.1c.3,0,.5.2.5.5v10.1c0,.3-.2.5-.5.5h-1.1c-.3,0-.5-.2-.5-.5v-3.8ZM79.3,187.9c0,2.1-1.5,3.3-4,3.3s-5-.1-6.7-.3c-.3,0-.5-.2-.4-.4v-1c0-.3.3-.5.5-.4,2.1.2,3.7.3,6.7.3s1.8-.6,1.8-1.7,0-1.4-.1-1.8c0-.3.2-.5.5-.5h1.1c.3,0,.5.2.5.5,0,.4.1,1.2.1,2ZM56.8,183.2c-.3,0-.5-.1-.6-.3v7.6c0,.3-.1.4-.4.4h-1.1c-.3,0-.4-.1-.4-.4v-14.9c0-.3.1-.4.4-.4h1.1c.3,0,.4.1.4.4v5.1c0,.4.1.5.5.5h1.5c.2-3.6,1.4-5.3,3.6-5.3s3.6,2,3.6,6.4-1.2,6.5-3.6,6.5-3.4-1.8-3.6-5.7h-1.4ZM51.5,175h1.1c.3,0,.4.1.4.4v15c0,.3-.1.4-.4.4h-1.1c-.3,0-.4-.1-.4-.4v-15c0-.3.1-.4.4-.4ZM60.1,182.4c0,3.2.5,4.5,1.6,4.5s1.6-1.3,1.6-4.5-.5-4.5-1.6-4.5-1.6,1.3-1.6,4.5ZM434.9,209c1.2,0,2-.8,2-2s-.8-1.9-2-1.9-2,.7-2,1.9.8,2,2,2ZM425.9,218.5v-.9c0-.3.2-.4.5-.4,1.4.2,3.4.3,4.6.3,3.7,0,4.5,0,4.5-.7s-.5-.7-3.5-.7-3.9,0-5.2,0c-.3,0-.4-.1-.4-.4v-.8c0-.3.1-.4.4-.4h.6c-.7-.3-1.2-.9-1.2-1.6s.5-1.4,1.6-1.4c2.3,0,6.2,0,8.9.2.3,0,.4.1.4.4v.9c0,.3-.1.4-.4.4-2-.1-5.8-.3-7.6-.3s-.9.2-.9.6.3.6.9.6c1,0,1.9,0,2.8,0,4.2,0,5.5.5,5.5,2.3s-1.4,2.4-6.6,2.4-3.3-.1-4.8-.3c-.3,0-.4-.2-.4-.5ZM434.9,203.3c2.5,0,4,1.5,4,3.7s-1.6,3.8-4,3.8-4-1.5-4-3.8,1.6-3.7,4-3.7ZM428.4,210.2c0,.3-.2.5-.5.5h-1.1c-.3,0-.5-.2-.5-.5v-6.7c0-.3.2-.5.5-.5h1.1c.3,0,.5.2.5.5v6.7ZM418.2,210.4c0,3.2.6,4.5,1.9,4.5s1.9-1.3,1.9-4.5-.5-4.5-1.9-4.5-1.9,1.3-1.9,4.5ZM420,204c2.8,0,3.9,2,3.9,6.4s-1.2,6.5-3.9,6.5-4-2-4-6.5,1.2-6.4,4-6.4ZM413.5,208.7c0,.4.2.6.6.6h.9c.3,0,.5.1.5.4v1.1c0,.3-.1.4-.5.4h-.8c-.4,0-.6-.1-.7-.4v7.6c0,.3-.2.5-.5.5h-1.1c-.3,0-.5-.2-.5-.5v-15c0-.3.2-.5.5-.5h1.1c.3,0,.5.2.5.5v5.2ZM400.8,215.4l.3-1c0-.3.2-.4.3-.4s.1,0,.2,0c1,.4,1.9.7,2.7.7,1.8,0,2.5-.8,2.5-3s-.1-4.6-.4-7c0-.3.1-.5.5-.5h1.1c.3,0,.5.1.5.4.3,2.2.4,4.2.4,6.9s-1.5,5.2-4.4,5.2-2.1-.2-3.3-.7c-.4-.1-.5-.3-.4-.6ZM396.8,211.9c0-.4-.2-.6-.6-.6h-1.2c-.3,0-.5-.1-.5-.4v-1.1c0-.3.1-.4.5-.4h1.1c.4,0,.6.1.7.4v-6.2c0-.3.2-.5.5-.5h1.1c.3,0,.5.2.5.5v15c0,.3-.2.5-.5.5h-1.1c-.3,0-.5-.2-.5-.5v-6.6ZM391.7,206.8c0,2.1-1.3,3.3-3.7,3.3s-5.3-.1-7.1-.3c-.3,0-.4-.2-.4-.4v-1c0-.3.3-.5.5-.4,2.1.2,4,.3,6.8.3s1.7-.5,1.7-1.5,0-2-.1-2.8c0-.3.1-.5.4-.5h1.1c.3,0,.5.2.5.5,0,.8.1,2.2.1,2.9ZM391.9,216c0,2.1-1.4,3.3-3.8,3.3s-5.6-.1-7.4-.3c-.3,0-.5-.2-.4-.4v-1c0-.3.3-.5.5-.4,2.1.2,4.2.3,7.4.3s1.7-.5,1.7-1.5,0-.9-.1-1.3c0-.3.1-.5.4-.5h1.1c.3,0,.5.2.5.5,0,.4.1.8.1,1.4ZM393.2,211.5v1c0,.3-.1.4-.5.5-1.1.1-3,.2-6.3.2-2.5,0-5.1,0-6.4-.2-.3,0-.5-.2-.5-.5v-1c0-.3.2-.5.5-.4,1.3.1,3.4.2,6.3.2s4.6,0,6.3-.2c.3,0,.5.1.5.4ZM367.3,211.5h-1.2c-.3,0-.4-.1-.5-.4-.3-1.2-.7-3.2-.7-4.2,0-2.4,1-3.4,3.4-3.4s2.5.1,3.9.3c.3,0,.4.2.4.5v1c0,.3-.2.5-.5.5-1.2-.2-1.9-.3-3.8-.3s-1.4.4-1.4,1.4.3,3,.7,4.2c0,.3-.1.5-.5.5ZM362.2,205.7c0,.4.2.6.6.6h.9c.3,0,.5.1.5.5v1c0,.3-.1.4-.5.4h-.8c-.4,0-.6-.1-.7-.4v4.6c0,.3-.2.5-.5.5h-1.1c-.3,0-.5-.2-.5-.5v-8.9c0-.3.2-.5.5-.5h1.1c.3,0,.5.2.5.5v2.2ZM365.7,216.4c-.9,1.7-3.3,2.8-5.4,2.7-.3,0-.5-.1-.5-.4v-1c0-.3.1-.4.5-.4,2.4,0,4.3-1.4,4.3-3.2v-.7c0-.3.2-.5.5-.5h1.1c.3,0,.5.2.5.5v.7c0,1.7,2,3.2,4.4,3.2s.5.1.5.4v1c0,.3-.1.4-.5.4-2.1.1-4.5-1-5.4-2.7ZM340.5,205v-1c0-.3.1-.4.4-.5,2.3-.1,3.1-.2,4.1-.2,4.6,0,6.3.8,6.3,2.9s-1.6,3-6,3-2.6-.1-4.6-.3c-.3,0-.4-.2-.4-.4v-1c0-.3.3-.5.5-.4,1.6.2,3.3.3,4.8.3,2.9,0,3.7-.2,3.7-1.1s-.9-1-4.1-1-2,0-4.1.2c-.3,0-.5-.1-.5-.4ZM345.5,219.3c-4,0-5.9-1-5.9-3.1s1.9-3.1,5.9-3.1,5.9,1,5.9,3.1-1.9,3.1-5.9,3.1ZM345.5,214.9c-2.7,0-3.8.3-3.8,1.2s1.1,1.2,3.8,1.2,3.8-.4,3.8-1.2-1.1-1.2-3.8-1.2ZM352.5,210.6v1c0,.3-.1.4-.5.5-1.1.1-3,.2-6.3.2-2.5,0-5.1,0-6.4-.2-.3,0-.4-.2-.4-.5v-1c0-.3.2-.5.5-.4,1.3.1,3.4.2,6.3.2s4.6,0,6.3-.2c.3,0,.5.1.5.4ZM323.3,215.4l.3-1c0-.2.2-.3.4-.3s.1,0,.2,0c1.1.4,2.1.6,2.8.6,1.7,0,2.7-.9,2.7-2.5s-1-2.6-3.1-2.6-1.3,0-2,.1c-.3,0-.5-.1-.5-.4v-1c0-.3.1-.5.4-.5.6-.1,1.4-.2,2.3-.2,3.3,0,4.9,1.5,4.9,4.6s-1.7,4.5-4.5,4.5-2.6-.3-3.7-.7c-.3-.1-.4-.3-.3-.6ZM319.8,211.9c0-.4-.2-.6-.6-.6h-1.2c-.3,0-.5-.1-.5-.4v-1.1c0-.3.1-.4.5-.4h1.1c.4,0,.6.1.7.4v-6.2c0-.3.2-.5.5-.5h1.1c.3,0,.5.2.5.5v15c0,.3-.2.5-.5.5h-1.1c-.3,0-.5-.2-.5-.5v-6.6ZM324.3,206.1c-.3,0-.4-.1-.4-.4v-1.1c0-.3.1-.4.4-.4h6.9c.3,0,.4.1.4.4v1.1c0,.3-.1.4-.4.4h-6.9ZM314.8,215.9c0,2.1-1.5,3.3-4,3.3s-5.3-.1-7.1-.3c-.3,0-.5-.2-.4-.4v-1c0-.3.3-.5.5-.4,2.1.2,3.9.3,7.1.3s1.8-.6,1.8-1.7,0-1.4-.1-1.8c0-.3.2-.5.5-.5h1.1c.3,0,.5.2.5.5,0,.4.1,1.2.1,2ZM305.8,213.6c0,.3-.2.5-.5.5h-1.1c-.3,0-.5-.2-.5-.5v-10.1c0-.3.2-.5.5-.5h1.1c.3,0,.5.2.5.5v10.1ZM312.3,203.3c2.4,0,4,1.7,4,4.4s-1.6,4.4-4,4.4-4.1-1.7-4.1-4.4,1.6-4.4,4.1-4.4ZM312.3,210.1c1.2,0,2-1,2-2.5s-.8-2.5-2-2.5-2,1-2,2.5.8,2.5,2,2.5ZM294.2,204.9c-2.7,0-3.5.3-3.5,1.1s.8,1.1,3.5,1.1,3.5-.3,3.5-1.1-.8-1.1-3.5-1.1ZM288.3,218.5v-.8c0-.3.2-.4.5-.4,1.4.2,3.4.3,4.8.3,3.7,0,4.4,0,4.4-.6s-.4-.6-3.4-.6-4.2,0-5.3,0c-.3,0-.4-.1-.4-.4v-.7c0-.3.1-.4.4-.4h.6c-.7-.2-1.2-.8-1.2-1.5s.5-1.3,1.7-1.3c2.3,0,6.2,0,8.9.2.3,0,.4.1.4.4v.8c0,.3-.1.4-.4.4-2-.1-5.9-.3-7.7-.3s-.8.2-.8.6.2.5.9.5c.9,0,2,0,3,0,4.3,0,5.4.5,5.4,2.2s-1.2,2.3-6.5,2.3-3.5-.1-4.9-.3c-.3,0-.4-.2-.4-.5ZM294.4,209.6c2.1,0,4.6,0,6.3-.2.3,0,.4.1.4.4v.9c0,.3-.1.4-.4.4-1.1.1-3.1.2-6.4.2-2.5,0-5.1,0-6.4-.2-.3,0-.4-.2-.4-.4v-.9c0-.3.2-.4.4-.4,1.4.1,3.4.2,6.4.2ZM294.2,208.8c-4,0-5.6-.8-5.6-2.8s1.6-2.8,5.6-2.8,5.6.8,5.6,2.8-1.6,2.8-5.6,2.8ZM276.3,216c1.7,0,3.1-.1,4.3-.3.3,0,.5,0,.5.4v1.1c0,.3-.1.4-.4.5-1.2.2-2.6.3-4.3.3s-3.4,0-4.6-.3c-.3,0-.4-.2-.4-.5v-1c0-.3.2-.5.5-.4,1.2.2,2.9.3,4.6.3ZM276.3,213.3c-2.5,0-4.1-1.9-4.1-4.9s1.6-4.8,4.1-4.8,4.1,1.9,4.1,4.8-1.6,4.9-4.1,4.9ZM278.2,208.5c0-1.7-.8-2.9-2-2.9s-2,1.2-2,2.9.8,2.9,2,2.9,2-1.2,2-2.9ZM268.1,203.5c0-.3.2-.5.5-.5h1.1c.3,0,.5.2.5.5v15c0,.3-.2.5-.5.5h-1.1c-.3,0-.5-.2-.5-.5v-15ZM253.2,215.7c0-2,1-2.9,3.5-2.9s5.3.1,7.2.3c.3,0,.4.2.4.5v1c0,.3-.1.5-.4.4-2.2-.2-4.4-.3-7-.3s-1.7.3-1.7,1.5,0,1.7,0,2.3c0,.3-.2.5-.5.5h-1.1c-.3,0-.5-.2-.5-.5,0-.6,0-1.6,0-2.8ZM261,203.4h1.1c.3,0,.5.2.5.5v2.1c0,2,1.2,3.5,2.7,3.5s.4.1.4.5v1c0,.3-.1.4-.4.4-1.9,0-3.3-1.2-3.8-2.7-.5,1.4-1.9,2.7-3.8,2.7s-.4-.1-.4-.4v-1c0-.3.1-.5.4-.5,1.6,0,2.7-1.5,2.7-3.5v-2.1c0-.3.2-.5.5-.5ZM255.2,211.1c0,.3-.2.5-.5.5h-1.1c-.3,0-.5-.2-.5-.5v-7.6c0-.3.2-.5.5-.5h1.1c.3,0,.5.2.5.5v7.6ZM244.8,212.1c0,1.6.7,2.5,1.9,2.5s1.9-.8,1.9-2.5-.7-2.4-1.9-2.4-1.9.8-1.9,2.4ZM246.7,207.6c2.5,0,3.9,1.6,3.9,4.4s-1.5,4.4-3.9,4.4-3.9-1.6-3.9-4.4,1.5-4.4,3.9-4.4ZM238.6,211.9c0-.4-.2-.6-.6-.6h-1.2c-.3,0-.5-.1-.5-.4v-1.1c0-.3.1-.4.5-.4h1.1c.4,0,.6.1.7.4v-6.2c0-.3.2-.5.5-.5h1.1c.3,0,.5.2.5.5v15c0,.3-.2.5-.5.5h-1.1c-.3,0-.5-.2-.5-.5v-6.6ZM245.6,204.2v-1.2c0-.3.1-.4.5-.4h1.2c.3,0,.4.1.4.4v1c0,.2-.1.4-.3.5h3.3c.3,0,.5.1.5.4v1.1c0,.3-.1.4-.5.4h-8c-.3,0-.4-.1-.4-.4v-1.1c0-.3.1-.4.4-.4h2.6c.3,0,.4,0,.4-.3ZM232,206.1v4.3c0,2.1,1.3,3.9,2.8,4.1.3,0,.4.2.4.5v1.1c0,.3-.1.4-.4.4-1.7-.2-3.3-1.6-3.8-3.3-.4,1.7-2,3-3.8,3.3-.3,0-.4-.1-.4-.4v-1.1c0-.3.1-.4.4-.5,1.5-.2,2.8-2.1,2.8-4.1v-4.3s-2.7,0-2.7,0c-.3,0-.4-.1-.4-.4v-1.1c0-.3.1-.4.4-.4h7.4c.3,0,.4.1.4.4v1.1c0,.3-.1.4-.4.4h-2.6ZM224.6,218.5c0,.3-.2.5-.5.5h-1.1c-.3,0-.5-.2-.5-.5v-15c0-.3.2-.5.5-.5h1.1c.3,0,.5.2.5.5v15ZM209,218.5v-1.1c0-.3.3-.4.6-.3.5.1,1.3.3,1.8.3s.9-.3.9-.8c0-1.3,0-2.6-.1-3.6,0-.3.1-.4.4-.4h1.2c.3,0,.5.1.5.4,0,1,.1,2.4.1,4s-.9,2.5-2.9,2.5-1.5-.1-2.1-.3c-.3,0-.4-.2-.4-.5ZM211.1,209.1c1.2,0,2-.8,2-2.1s-.8-2-2-2-2,.8-2,2,.8,2.1,2,2.1ZM205.3,216.4c-.8,0-1.2.2-1.2.6s.4.6,1.2.6,1.2-.2,1.2-.6-.4-.6-1.2-.6ZM204.3,212.1v-.4c0-.3.1-.4.5-.4h1.1c.3,0,.5.1.5.4h0c0,.5-.1.7-.3.8h2.4c.3,0,.4.1.4.4v.9c0,.3-.2.4-.4.4h-6.3c-.3,0-.4-.1-.4-.4v-.9c0-.3.2-.4.4-.4h1.8c.3,0,.4-.1.4-.3ZM211.1,203.3c2.5,0,4,1.5,4,3.8s-1.6,3.9-4,3.9-4-1.5-4-3.9,1.6-3.8,4-3.8ZM202.9,208.1c0-.4-.2-.6-.6-.6h-1.2c-.3,0-.5-.1-.5-.4v-1c0-.3.1-.4.5-.4h1.1c.4,0,.6.1.7.4v-2.5c0-.3.2-.5.5-.5h1.1c.3,0,.5.2.5.5v6.7c0,.3-.2.5-.5.5h-1.1c-.3,0-.5-.2-.5-.5v-2.1ZM205.3,219.3c-2,0-3.1-.8-3.1-2.3s1.1-2.2,3.1-2.2,3.1.8,3.1,2.3-1.1,2.2-3.1,2.2ZM192.5,217.6c-2.8,0-5.2-.1-6.4-.3s-.5-.2-.5-.5v-1c0-.3.2-.5.5-.4,1.2.1,3.6.3,5.5.3s.6-.2.6-.6v-4.1c0-.3.2-.5.5-.5h1.1c.3,0,.5.2.5.5v4c0,.4-.2.6-.5.8,1.5,0,3.3-.2,4.8-.3.3,0,.5.1.5.4v1c0,.3-.1.4-.4.5-1.4.2-3.5.3-6.3.3ZM191.7,205.9c-1.9,0-2.6.8-2.6,2.8s.1,2.5.3,3.4c0,.3,0,.4-.3.4l-1.2.2c-.3,0-.4,0-.5-.3-.3-1.3-.3-2.4-.3-4.1,0-2.8,1.5-4.4,4.2-4.4s4.1,0,6.1.3c.3,0,.5.2.5.5v1.1c0,.3-.2.5-.5.4-1.8-.2-3.6-.3-5.7-.3ZM166.8,212.7c-.3,0-.6,0-.6-.4v-1.1c0-.3.1-.4.4-.4,2.4,0,4.1-1.6,4.1-3.8v-2.5c0-.3.2-.5.5-.5h1.1c.3,0,.5.2.5.5v2.5c0,2.2,1.7,3.8,4.1,3.8s.4.1.4.4v1.1c0,.4-.3.4-.6.4-2.1,0-4.2-1.2-4.9-3-.8,1.8-2.8,3-4.9,3ZM178.6,215.8v1c0,.3-.1.4-.4.5-1.4.2-3.5.3-6.3.3s-5.1-.1-6.4-.3c-.3,0-.5-.2-.5-.5v-1c0-.3.2-.5.5-.4,1.4.2,3.8.3,6.3.3s4.6-.1,6.3-.3c.3,0,.5.1.5.4ZM151.1,212.7c-.3,0-.6,0-.6-.4v-1.1c0-.3.1-.4.5-.4,2.4,0,4.1-1.6,4.1-3.8v-2.5c0-.3.2-.5.5-.5h1.1c.3,0,.5.2.5.5v2.5c0,2.2,1.7,3.8,4.1,3.8s.5.1.5.4v1.1c0,.4-.3.4-.6.4-2.1,0-4.2-1.2-4.9-3-.8,1.8-2.8,3-4.9,3ZM162.9,215.8v1c0,.3-.1.4-.5.5-1.3.2-3.5.3-6.3.3s-5.1-.1-6.4-.3c-.3,0-.4-.2-.4-.5v-1c0-.3.2-.5.5-.4,1.4.2,3.8.3,6.3.3s4.6-.1,6.3-.3c.3,0,.5.1.5.4ZM140.5,217.6c-2.8,0-5.1-.1-6.4-.3-.3,0-.5-.2-.5-.5v-1c0-.3.2-.5.5-.4,1.2.2,3.1.3,4.6.3s.6-.2.6-.6v-2s0,0,0,0c-1.3,0-3.1-.1-4.5-.4-.2,0-.4-.2-.3-.5l.2-1c0-.3.2-.4.4-.3,1.3.2,2.9.3,4.3.3,3.5,0,4.3-.2,4.3-1s-.7-.9-3.3-.9-3.2,0-4.9,0-.4-.2-.4-.4v-.9c0-.3.1-.4.4-.4h.8c-.9-.3-1.3-1-1.3-2s.7-1.7,2.1-1.7c.7,0,1.4,0,2.2,0,2.1,0,4.3.1,5.9.3.3,0,.4.2.4.4v1.1c0,.3-.2.4-.4.4-1.8-.2-4.5-.3-6.8-.3s-1.1.2-1.1.8.4.9,1.2.9h2.2c4.1,0,5.3.6,5.3,2.7s-1,2.7-4.3,2.9v1.9c0,.4-.2.6-.5.8,2,0,4.4-.2,5.7-.3.3,0,.5.1.5.4v1c0,.3-.1.4-.5.5-1.4.2-3.5.3-6.3.3ZM123.4,211.2c-.3,0-.5-.1-.6-.3v7.6c0,.3-.1.4-.4.4h-1.1c-.3,0-.4-.1-.4-.4v-14.9c0-.3.1-.4.4-.4h1.1c.3,0,.4.1.4.4v5.1c0,.4.1.5.5.5h1.5c.2-3.6,1.4-5.3,3.6-5.3s3.6,2,3.6,6.4-1.2,6.5-3.6,6.5-3.4-1.8-3.6-5.7h-1.4ZM118.1,203h1.1c.3,0,.5.1.5.4v15c0,.3-.1.4-.5.4h-1.1c-.3,0-.5-.1-.5-.4v-15c0-.3.1-.4.5-.4ZM126.8,210.4c0,3.2.5,4.5,1.6,4.5s1.6-1.3,1.6-4.5-.5-4.5-1.6-4.5-1.6,1.3-1.6,4.5ZM108.6,211.2c0,0-.1,0-.2,0h-1.5c-.3,0-.5-.1-.6-.3v7.6c0,.3-.1.4-.4.4h-1.1c-.3,0-.4-.1-.4-.4v-14.9c0-.3.1-.4.4-.4h1.1c.3,0,.4.1.4.4v5.1c0,.4.1.5.5.5h1.6c0-.5,0-1.1,0-1.6,0-2.6.8-3.5,3.2-3.5s2.4.1,3.4.3c.3,0,.5.2.5.5v1c0,.3-.2.5-.5.5-.8-.2-2-.3-3.1-.3s-1.5.4-1.5,1.7c0,2.6.2,5.6.7,8.2,0,.3-.1.4-.4.4h-1.1c-.3,0-.4-.1-.5-.4-.3-1.5-.5-3.2-.6-4.9ZM101.6,203h1.1c.3,0,.4.1.4.4v15c0,.3-.1.4-.4.4h-1.1c-.3,0-.5-.1-.5-.4v-15c0-.3.1-.4.5-.4ZM81.5,217.4l-.3-4.6c0-.3.2-.5.5-.5h1.1c.3,0,.5.2.5.5v.8s7.2,0,7.2,0v-.8c0-.3.2-.5.5-.5h1.1c.3,0,.5.2.5.5l-.3,4.6c0,1.1-.8,1.7-2,1.7h-6.8c-1.3,0-2-.6-2-1.7ZM90.7,205.3v.5c0,1.9,1.2,3.3,2.7,3.3s.4.1.4.4v1c0,.3-.1.4-.4.4-1.9,0-3.3-1.2-3.8-2.6-.5,1.4-1.9,2.6-3.8,2.6s-.4-.1-.4-.4v-1c0-.3.1-.4.4-.4,1.6,0,2.7-1.4,2.7-3.3v-.5s-2.7,0-2.7,0c-.3,0-.5-.1-.5-.4v-1c0-.3.1-.4.5-.4h7.4c.3,0,.5.1.5.4v1c0,.3-.1.4-.5.4h-2.6ZM83.3,210.6c0,.3-.2.5-.5.5h-1.1c-.3,0-.5-.2-.5-.5v-7.1c0-.3.2-.5.5-.5h1.1c.3,0,.5.2.5.5v7.1ZM83.5,215.4v1.2c0,.5.3.7.9.7h5.2c.5,0,.8-.2.8-.7v-1.2c0,0-6.9,0-6.9,0ZM71.7,219.3c-4,0-5.9-1-5.9-3.1s1.6-2.9,5-3.1v-.6c0-.3-.1-.4-.5-.4-1.4,0-3.5,0-4.9-.2-.3,0-.5-.2-.5-.5v-1c0-.3.2-.5.5-.4,1.3.1,3.8.2,6.3.2,3.3,0,5.1,0,6.3-.2.3,0,.5.1.5.4v1c0,.3-.1.5-.4.5-1.4.1-3.7.2-5.5.2.1,0,.2.3.2.4v.6c3.2.2,4.7,1.2,4.7,3s-1.9,3.1-5.9,3.1ZM71.8,207c-.8,1.3-2.9,2.4-5.1,2.2-.3,0-.4-.1-.4-.4v-1c0-.3.1-.4.4-.4,2.4,0,3.9-.9,4.1-2h-3.8c-.3,0-.5-.1-.5-.4v-1c0-.3.1-.4.5-.4h9.7c.3,0,.5.1.5.4v1c0,.3-.1.4-.5.4h-3.8c.1,1.2,1.7,2,4.1,2s.4.1.4.4v1c0,.3-.1.4-.4.4-2.2.1-4.3-1-5.1-2.3ZM71.7,214.9c-2.7,0-3.8.3-3.8,1.2s1.1,1.2,3.8,1.2,3.8-.4,3.8-1.2-1.1-1.2-3.8-1.2ZM57.2,212.1c0,1.6.7,2.5,1.9,2.5s1.9-.8,1.9-2.5-.7-2.4-1.9-2.4-1.9.8-1.9,2.4ZM59.1,207.6c2.5,0,3.9,1.6,3.9,4.4s-1.5,4.4-3.9,4.4-3.9-1.6-3.9-4.4,1.5-4.4,3.9-4.4ZM51,211.9c0-.4-.2-.6-.6-.6h-1.2c-.3,0-.5-.1-.5-.4v-1.1c0-.3.1-.4.5-.4h1.1c.4,0,.6.1.7.4v-6.2c0-.3.2-.5.5-.5h1.1c.3,0,.5.2.5.5v15c0,.3-.2.5-.5.5h-1.1c-.3,0-.5-.2-.5-.5v-6.6ZM58,204.2v-1.2c0-.3.1-.4.4-.4h1.2c.3,0,.5.1.5.4v1c0,.2-.1.4-.3.5h3.3c.3,0,.4.1.4.4v1.1c0,.3-.1.4-.4.4h-8c-.3,0-.4-.1-.4-.4v-1.1c0-.3.1-.4.4-.4h2.6c.3,0,.4,0,.4-.3ZM45.8,206.8c0,2.1-1.3,3.3-3.7,3.3s-5.3-.1-7.1-.3c-.3,0-.4-.2-.4-.4v-1c0-.3.3-.5.5-.4,2.1.2,4,.3,6.8.3s1.7-.5,1.7-1.5,0-2-.1-2.8c0-.3.1-.5.4-.5h1.1c.3,0,.5.2.5.5,0,.8.1,2.2.1,2.9ZM46.1,216c0,2.1-1.4,3.3-3.8,3.3s-5.6-.1-7.4-.3c-.3,0-.5-.2-.4-.4v-1c0-.3.3-.5.5-.4,2.1.2,4.2.3,7.4.3s1.7-.5,1.7-1.5,0-.9-.1-1.3c0-.3.1-.5.4-.5h1.1c.3,0,.5.2.5.5,0,.4.1.8.1,1.4ZM47.3,211.5v1c0,.3-.1.4-.5.5-1.1.1-3,.2-6.3.2-2.5,0-5.1,0-6.4-.2-.3,0-.4-.2-.4-.5v-1c0-.3.2-.5.5-.4,1.3.1,3.4.2,6.3.2s4.6,0,6.3-.2c.3,0,.5.1.5.4ZM425.6,242.5c-.3,0-.5-.2-.5-.5v-1c0-.3.2-.4.5-.4,1.4.2,3.8.3,6.3.3s4.6-.1,6.3-.3c.3,0,.5.1.5.4v1c0,.3-.1.5-.4.5-1.3.2-3.8.3-5.8.3.3.1.5.4.5.8v2.3c0,.3-.2.5-.5.5h-1.1c-.3,0-.5-.2-.5-.5v-2.5c0-.4-.2-.6-.6-.6-1.5,0-3.5-.1-4.7-.3ZM426.4,232.9c0-1,.7-1.5,2.1-1.5,4.3,0,6.5,0,8,.3.3,0,.4.2.4.4v1c0,.3-.2.4-.4.4-1.9-.3-4.1-.3-6.8-.3s-1.1.2-1.1.6.3.5,1.2.5h2.2c4.2,0,5.3.5,5.3,2.4s-1.2,2.6-6.4,2.6-3-.1-4.5-.4c-.2,0-.4-.2-.3-.5l.2-1c0-.3.2-.4.4-.3,1.3.2,2.8.3,4.3.3,3.5,0,4.3,0,4.3-.7s-.6-.7-3.3-.7-3.2,0-4.9,0-.4-.2-.4-.4v-.8c0-.3.1-.4.4-.4h.8c-.9-.3-1.3-.8-1.3-1.7ZM412.8,241.6c0,.3-.2.5-.5.5h-1.1c-.3,0-.5-.2-.5-.5v-10.1c0-.3.2-.5.5-.5h1.1c.3,0,.5.2.5.5v10.1ZM414.7,239.2l.2-.9c0-.3.2-.4.6-.3,1.1.3,2,.4,3,.4,1.9,0,2.6-.4,2.6-1.2s-.7-1.1-3-1.1-1.5,0-2.1.1c-.3,0-.5,0-.5-.4v-.9c0-.3.1-.5.4-.5.7-.1,1.4-.2,2.3-.2,3.7,0,5,.9,5,3.1s-1.3,3-4.6,3-2.3-.2-3.5-.5c-.3-.1-.5-.3-.4-.6ZM415.6,233.3c-.3,0-.4-.1-.4-.4v-.9c0-.3.1-.4.4-.4h6.9c.3,0,.5.1.5.4v.9c0,.3-.1.4-.5.4h-6.9ZM421.7,243.9c0,2.1-1.5,3.3-4,3.3s-5.3-.1-7.1-.3c-.3,0-.5-.2-.4-.4v-1c0-.3.3-.5.5-.4,2.1.2,3.9.3,7.1.3s1.8-.6,1.8-1.7,0-1-.1-1.4c0-.3.2-.5.5-.5h1.1c.3,0,.5.2.5.5,0,.4.1,1,.1,1.6ZM401.2,232.9c-2.7,0-3.5.3-3.5,1.1s.8,1.1,3.5,1.1,3.5-.3,3.5-1.1-.8-1.1-3.5-1.1ZM395.2,246.5v-.8c0-.3.2-.4.5-.4,1.3.2,3.4.3,4.8.3,3.7,0,4.4,0,4.4-.6s-.4-.6-3.4-.6-4.2,0-5.3,0c-.3,0-.4-.1-.4-.4v-.7c0-.3.1-.4.4-.4h.6c-.7-.2-1.2-.8-1.2-1.5s.4-1.3,1.7-1.3c2.3,0,6.2,0,8.9.2.3,0,.4.1.4.4v.8c0,.3-.1.4-.4.4-2-.1-5.9-.3-7.7-.3s-.8.2-.8.6.2.5.9.5c.9,0,2,0,3,0,4.3,0,5.4.5,5.4,2.2s-1.2,2.3-6.5,2.3-3.5-.1-4.9-.3c-.3,0-.4-.2-.4-.5ZM401.3,237.6c2.1,0,4.6,0,6.3-.2.3,0,.5.1.5.4v.9c0,.3-.1.4-.4.4-1.1.1-3.1.2-6.4.2-2.5,0-5.1,0-6.4-.2-.3,0-.4-.2-.4-.4v-.9c0-.3.2-.4.5-.4,1.4.1,3.4.2,6.4.2ZM401.2,236.8c-4,0-5.6-.8-5.6-2.8s1.6-2.8,5.6-2.8,5.6.8,5.6,2.8-1.6,2.8-5.6,2.8ZM381.8,242.4v.2c0,1.5,1.8,2.6,4.2,2.6s.4.1.4.4v1c0,.3-.1.4-.4.4-2,.1-4.3-.9-5.2-2.3-.8,1.4-3.2,2.4-5.2,2.3-.3,0-.5-.1-.5-.4v-1c0-.3.1-.4.5-.4,2.4,0,4.1-1.1,4.1-2.6v-.2s-3.9,0-3.9,0c-.3,0-.4-.1-.4-.4v-1c0-.3.1-.4.4-.4h9.8c.3,0,.5.1.5.4v1c0,.3-.1.4-.5.4h-3.9ZM382.4,231.6v-.9c0-.3.1-.4.4-.4h1.2c.3,0,.5.1.5.4v.7c0,.2-.1.4-.3.5h3c.3,0,.5.1.5.4v1c0,.3-.1.4-.5.4h-2.6s0,.2,0,.2c0,1.9,1.2,3.3,2.7,3.3s.4.1.4.4v1c0,.3-.1.5-.4.5-1.9,0-3.3-1.2-3.8-2.6-.5,1.4-1.9,2.6-3.8,2.6s-.5-.1-.5-.5v-1c0-.3.1-.4.5-.4,1.6,0,2.7-1.4,2.7-3.3v-.2s-2.7,0-2.7,0c-.3,0-.5-.1-.5-.4v-1c0-.3.1-.4.5-.4h2.2c.3,0,.4,0,.4-.3ZM375.4,236.4c0-.4-.2-.6-.6-.6h-1.2c-.3,0-.4-.1-.4-.5v-1c0-.3.1-.5.4-.5h1.1c.4,0,.6.1.7.4v-2.8c0-.3.2-.5.5-.5h1.1c.3,0,.5.2.5.5v7.2c0,.3-.2.5-.5.5h-1.1c-.3,0-.5-.2-.5-.5v-2.4ZM365.9,238.4c0,3.2.6,4.5,2,4.5s2-1.3,2-4.5-.6-4.5-2-4.5-2,1.3-2,4.5ZM367.9,232c2.8,0,4,2,4,6.4,0,4.4-1.3,6.5-4,6.5s-4.1-2-4.1-6.5c0-4.5,1.2-6.4,4.1-6.4ZM359.8,239.9c0-.4-.2-.6-.6-.6h-1.2c-.3,0-.4-.1-.4-.4v-1.1c0-.3.1-.4.4-.4h1.1c.4,0,.6.1.7.4v-6.2c0-.3.2-.5.5-.5h1.1c.3,0,.5.2.5.5v15c0,.3-.2.5-.5.5h-1.1c-.3,0-.5-.2-.5-.5v-6.6ZM343,243.4l.3-1c0-.3.2-.4.3-.4s.1,0,.2,0c1,.4,1.9.7,2.7.7,1.8,0,2.5-.8,2.5-3s-.1-4.6-.4-7c0-.3.1-.5.5-.5h1.1c.3,0,.5.1.5.4.3,2.2.4,4.2.4,6.9s-1.5,5.2-4.4,5.2-2.1-.2-3.3-.7c-.4-.1-.5-.3-.4-.6ZM339,239.9c0-.4-.2-.6-.6-.6h-1.2c-.3,0-.5-.1-.5-.4v-1.1c0-.3.1-.4.5-.4h1.1c.4,0,.6.1.7.4v-6.2c0-.3.2-.5.5-.5h1.1c.3,0,.5.2.5.5v15c0,.3-.2.5-.5.5h-1.1c-.3,0-.5-.2-.5-.5v-6.6ZM327.5,236c0-2.8,1-3.9,3.5-3.9s2.6.1,3.9.3c.3,0,.4.2.4.5v1c0,.3-.2.5-.5.5-1.2-.2-2.2-.3-3.5-.3s-1.8.5-1.8,2.1c0,2.6.2,5.2.7,7.8,0,.3-.1.5-.4.5h-1.2c-.3,0-.4-.1-.5-.4-.4-2.6-.7-5.2-.7-8.1ZM323.4,239.9c0-.4-.2-.6-.6-.6h-1.2c-.3,0-.4-.1-.4-.4v-1.1c0-.3.1-.4.4-.4h1.1c.4,0,.6.1.7.4v-6.2c0-.3.2-.5.5-.5h1.1c.3,0,.5.2.5.5v15c0,.3-.2.5-.5.5h-1.1c-.3,0-.5-.2-.5-.5v-6.6ZM318.2,234.8c0,2.1-1.3,3.3-3.7,3.3s-5.3-.1-7.1-.3c-.3,0-.4-.2-.4-.4v-1c0-.3.3-.5.5-.4,2.1.2,4,.3,6.8.3s1.7-.5,1.7-1.5,0-2-.1-2.8c0-.3.1-.5.4-.5h1.1c.3,0,.5.2.5.5,0,.8.1,2.2.1,2.9ZM318.5,244c0,2.1-1.4,3.3-3.8,3.3s-5.6-.1-7.4-.3c-.3,0-.4-.2-.4-.4v-1c0-.3.3-.5.5-.4,2.1.2,4.2.3,7.4.3s1.7-.5,1.7-1.5,0-.9-.1-1.3c0-.3.1-.5.4-.5h1.1c.3,0,.5.2.5.5,0,.4.1.8.1,1.4ZM319.7,239.5v1c0,.3-.1.4-.4.5-1.1.1-3,.2-6.3.2-2.5,0-5.1,0-6.4-.2-.3,0-.4-.2-.4-.5v-1c0-.3.2-.5.5-.4,1.3.1,3.4.2,6.3.2s4.6,0,6.3-.2c.3,0,.5.1.5.4ZM297,241c0-1.3-.8-1.8-2.9-1.8s-1.5,0-2.5,0-.4-.1-.4-.4v-1c0-.3.1-.4.4-.4h.6c-.7-.6-1.1-1.5-1.1-2.6,0-1.7,1.1-2.6,3.3-2.6s2.4,0,3.7.2c.3,0,.4.2.4.4v1.2c0,.3-.2.4-.4.4-1.4-.2-2.5-.3-3.2-.3-1.2,0-1.7.5-1.7,1.6s.5,1.6,1.6,1.6c2.9,0,4.3,1.2,4.3,3.6s-1.4,3.8-4.3,3.8-2.5-.2-3.9-.7c-.3-.1-.4-.3-.3-.6l.3-1.1c0-.2.2-.3.3-.3s.1,0,.2,0c1,.5,2.1.7,3,.7,1.9,0,2.6-.5,2.6-1.8ZM287,239.9c0-.4-.2-.6-.6-.6h-1.2c-.3,0-.4-.1-.4-.4v-1.1c0-.3.1-.4.4-.4h1.1c.4,0,.6.1.7.4v-6.2c0-.3.2-.5.5-.5h1.1c.3,0,.5.2.5.5v15c0,.3-.2.5-.5.5h-1.1c-.3,0-.5-.2-.5-.5v-6.6ZM279.5,232c2.8,0,4,2,4,6.4,0,4.4-1.3,6.5-4,6.5s-4.1-2-4.1-6.5c0-4.5,1.2-6.4,4.1-6.4ZM277.5,238.4c0,3.2.6,4.5,2,4.5s2-1.3,2-4.5-.6-4.5-2-4.5-2,1.3-2,4.5ZM273.1,246.5c0,.3-.2.5-.5.5h-1.1c-.3,0-.5-.2-.5-.5v-15c0-.3.2-.5.5-.5h1.1c.3,0,.5.2.5.5v15ZM265.6,233.9l-.4,5c.7,0,1.3,0,1.7-.1.3,0,.4.1.4.4v1.2c0,.3-.1.4-.4.4-1,.1-2.9.2-5.3.2s-4.3-.1-5.3-.2c-.3,0-.4-.2-.4-.4v-1.2c0-.3.2-.4.5-.4.4,0,1,0,1.7.1l-.4-5h-1c-.3,0-.4-.1-.4-.4v-1c0-.3.1-.4.4-.4h10c.3,0,.5.1.5.4v1c0,.3-.1.4-.5.4h-1ZM268.4,243.8v1c0,.3-.1.4-.4.5-1.4.2-3.5.3-6.3.3s-5.1-.1-6.4-.3c-.3,0-.4-.2-.4-.5v-1c0-.3.2-.5.5-.4,1.4.2,3.8.3,6.3.3s4.6-.1,6.3-.3c.3,0,.5.1.5.4ZM263.1,238.9l.4-5h-3.9s.4,5,.4,5c.5,0,1,0,1.5,0s1,0,1.5,0ZM241,240.7c-.3,0-.6,0-.6-.4v-1.1c0-.3.1-.4.4-.4,2.4,0,4.1-1.6,4.1-3.8v-2.5c0-.3.2-.5.5-.5h1.1c.3,0,.5.2.5.5v2.5c0,2.2,1.7,3.8,4.1,3.8s.4.1.4.4v1.1c0,.4-.3.4-.6.4-2.1,0-4.2-1.2-4.9-3-.8,1.8-2.8,3-4.9,3ZM252.7,243.8v1c0,.3-.1.4-.4.5-1.4.2-3.5.3-6.3.3s-5.1-.1-6.4-.3c-.3,0-.4-.2-.4-.5v-1c0-.3.2-.5.5-.4,1.4.2,3.8.3,6.3.3s4.6-.1,6.3-.3c.3,0,.5.1.5.4ZM228.7,243.4l.3-1c0-.2.2-.3.4-.3s.1,0,.2,0c1.1.4,2.1.6,2.8.6,1.7,0,2.7-.9,2.7-2.5s-1-2.6-3.1-2.6-1.3,0-2,.1c-.3,0-.5-.1-.5-.4v-1c0-.3.1-.5.4-.5.6-.1,1.4-.2,2.3-.2,3.3,0,4.9,1.5,4.9,4.6s-1.7,4.5-4.5,4.5-2.6-.3-3.7-.7c-.3-.1-.4-.3-.3-.6ZM225.1,239.9c0-.4-.2-.6-.6-.6h-1.2c-.3,0-.5-.1-.5-.4v-1.1c0-.3.1-.4.5-.4h1.1c.4,0,.6.1.7.4v-6.2c0-.3.2-.5.5-.5h1.1c.3,0,.5.2.5.5v15c0,.3-.2.5-.5.5h-1.1c-.3,0-.5-.2-.5-.5v-6.6ZM229.6,234.1c-.3,0-.4-.1-.4-.4v-1.1c0-.3.1-.4.4-.4h6.9c.3,0,.4.1.4.4v1.1c0,.3-.1.4-.4.4h-6.9ZM217.6,237c1.2,0,2-.8,2-2s-.8-1.9-2-1.9-2,.7-2,1.9.8,2,2,2ZM208.6,246.5v-.9c0-.3.2-.4.5-.4,1.4.2,3.4.3,4.6.3,3.7,0,4.5,0,4.5-.7s-.5-.7-3.5-.7-3.9,0-5.2,0c-.3,0-.4-.1-.4-.4v-.8c0-.3.1-.4.4-.4h.6c-.7-.3-1.2-.9-1.2-1.6s.5-1.4,1.6-1.4c2.3,0,6.2,0,8.9.2.3,0,.4.1.4.4v.9c0,.3-.1.4-.4.4-2-.1-5.8-.3-7.6-.3s-.9.2-.9.6.3.6.9.6c1,0,1.9,0,2.8,0,4.2,0,5.5.5,5.5,2.3s-1.4,2.4-6.6,2.4-3.3-.1-4.8-.3c-.3,0-.4-.2-.4-.5ZM217.6,231.3c2.5,0,4,1.5,4,3.7s-1.6,3.8-4,3.8-4.1-1.5-4.1-3.8,1.6-3.7,4.1-3.7ZM211.1,238.2c0,.3-.2.5-.5.5h-1.1c-.3,0-.5-.2-.5-.5v-6.7c0-.3.2-.5.5-.5h1.1c.3,0,.5.2.5.5v6.7ZM202.7,232c2.8,0,4,2,4,6.4s-1.3,6.5-4,6.5-4.1-2-4.1-6.5,1.2-6.4,4.1-6.4ZM200.7,238.4c0,3.2.6,4.5,2,4.5s2-1.3,2-4.5-.6-4.5-2-4.5-2,1.3-2,4.5ZM196.2,246.5c0,.3-.2.5-.5.5h-1.1c-.3,0-.5-.2-.5-.5v-15c0-.3.2-.5.5-.5h1.1c.3,0,.5.2.5.5v15ZM180.8,238.1v3.7c.1.5.4.7.9.7h1.9c.5,0,.8-.2.8-.7v-3.7c.1,0-3.5,0-3.5,0ZM179.1,232.2h1.1c.3,0,.5.2.5.4v3.5c0,0,3.9,0,3.9,0v-3.5c0-.3.3-.4.6-.4h1.1c.3,0,.5.2.5.5l-.3,9.9c0,1.2-.8,1.9-2.2,1.9h-3.1c-1.4,0-2.2-.7-2.2-1.9l-.3-9.9c0-.3.2-.5.5-.5ZM174.5,239.9c0-.4-.2-.6-.6-.6h-1.2c-.3,0-.5-.1-.5-.4v-1.1c0-.3.1-.4.5-.4h1.1c.4,0,.6.1.7.4v-6.2c0-.3.2-.5.5-.5h1.1c.3,0,.5.2.5.5v15c0,.3-.2.5-.5.5h-1.1c-.3,0-.5-.2-.5-.5v-6.6ZM164.1,245.6c-2.8,0-5.1-.1-6.4-.3-.3,0-.4-.2-.4-.5v-1c0-.3.2-.5.5-.4,1.2.2,3.1.3,4.6.3s.6-.2.6-.6v-2s0,0,0,0c-1.3,0-3.1-.1-4.5-.4-.2,0-.4-.2-.3-.5l.2-1c0-.3.2-.4.4-.3,1.3.2,2.9.3,4.3.3,3.5,0,4.3-.2,4.3-1s-.7-.9-3.3-.9-3.2,0-4.9,0-.4-.2-.4-.4v-.9c0-.3.1-.4.4-.4h.8c-.9-.3-1.4-1-1.4-2s.7-1.7,2.1-1.7c.7,0,1.4,0,2.2,0,2.1,0,4.3.1,5.9.3.3,0,.4.2.4.4v1.1c0,.3-.2.4-.4.4-1.8-.2-4.5-.3-6.8-.3s-1.1.2-1.1.8.4.9,1.2.9h2.2c4.1,0,5.3.6,5.3,2.7s-1,2.7-4.3,2.9v1.9c0,.4-.2.6-.4.8,2,0,4.4-.2,5.7-.3.3,0,.5.1.5.4v1c0,.3-.1.4-.5.5-1.3.2-3.5.3-6.3.3ZM147.5,232.7c0-.7.5-1.2,1.1-1.3-.1-.3-.3-.4-.7-.4s-.2,0-.2-.2v-.4c0-.1,0-.2.2-.2,1.4,0,2.3.9,2.3,2.3s-.5,1.4-1.4,1.4-1.4-.5-1.4-1.3ZM139.8,238.4c0,3.2.6,4.5,2,4.5s2-1.3,2-4.5-.6-4.5-2-4.5-2,1.3-2,4.5ZM141.8,232c2.8,0,4,2,4,6.4s-1.3,6.5-4,6.5-4-2-4-6.5,1.2-6.4,4-6.4ZM133.6,239.9c0-.4-.2-.6-.6-.6h-1.2c-.3,0-.5-.1-.5-.4v-1.1c0-.3.1-.4.5-.4h1.1c.4,0,.6.1.7.4v-6.2c0-.3.2-.5.5-.5h1.1c.3,0,.5.2.5.5v15c0,.3-.2.5-.5.5h-1.1c-.3,0-.5-.2-.5-.5v-6.6ZM123.2,245.6c-2.8,0-5.1-.1-6.4-.3-.3,0-.5-.2-.5-.5v-1c0-.3.2-.5.5-.4,1.2.2,3.1.3,4.6.3s.6-.2.6-.6v-2.3s-2,0-2,0c-1.3,0-2.2-.7-2.2-1.9l-.3-6.5c0-.3.2-.5.5-.5h1.1c.3,0,.5.2.5.5v1.8c0,0,6.8,0,6.8,0v-1.8c0-.3.3-.5.5-.5h1.1c.3,0,.5.2.5.5l-.3,6.5c0,1.2-.9,1.9-2.2,1.9h-2s0,2.1,0,2.1c0,.4-.2.6-.5.8,2,0,4.4-.2,5.7-.3.3,0,.5.1.5.4v1c0,.3-.1.4-.4.5-1.4.2-3.5.3-6.3.3ZM119.8,236.1v2c0,.5.4.7.9.7h4.9c.5,0,.8-.3.8-.7v-2c0,0-6.6,0-6.6,0ZM108.5,240.1c0,1.6.7,2.5,1.9,2.5s1.9-.8,1.9-2.5-.7-2.4-1.9-2.4-1.9.8-1.9,2.4ZM110.4,235.6c2.5,0,3.9,1.6,3.9,4.4s-1.5,4.4-3.9,4.4-3.9-1.6-3.9-4.4,1.5-4.4,3.9-4.4ZM102.3,239.9c0-.4-.2-.6-.6-.6h-1.2c-.3,0-.5-.1-.5-.4v-1.1c0-.3.1-.4.5-.4h1.1c.4,0,.6.1.7.4v-6.2c0-.3.2-.5.5-.5h1.1c.3,0,.5.2.5.5v15c0,.3-.2.5-.5.5h-1.1c-.3,0-.5-.2-.5-.5v-6.6ZM109.3,232.2v-1.2c0-.3.1-.4.4-.4h1.2c.3,0,.5.1.5.4v1c0,.2-.1.4-.3.5h3.3c.3,0,.4.1.4.4v1.1c0,.3-.1.4-.4.4h-8c-.3,0-.4-.1-.4-.4v-1.1c0-.3.1-.4.4-.4h2.6c.3,0,.4,0,.4-.3ZM98.8,231.5c0,.7-.4,1.2-1.1,1.3.1.3.3.4.7.4s.2,0,.2.2v.4c0,.1,0,.2-.2.2-1.4,0-2.3-.9-2.3-2.3s.5-1.4,1.4-1.4,1.3.5,1.3,1.3ZM90.3,232c2.8,0,4,2,4,6.4s-1.3,6.5-4,6.5-4-2-4-6.5,1.2-6.4,4-6.4ZM88.3,238.4c0,3.2.6,4.5,2,4.5s2-1.3,2-4.5-.6-4.5-2-4.5-2,1.3-2,4.5ZM83.8,246.5c0,.3-.2.5-.5.5h-1.1c-.3,0-.5-.2-.5-.5v-15c0-.3.2-.5.5-.5h1.1c.3,0,.5.2.5.5v15ZM74.1,234.1c-.9,0-1.5,0-2.3.2-.3,0-.5-.1-.5-.4v-1.1c0-.3.1-.4.5-.5.7-.1,1.4-.1,2.4-.1,3.4,0,5,1.9,5,6.3s-1.6,6.3-4.9,6.3-2.2-.3-3.3-.7c-.4-.1-.5-.3-.4-.6l.3-1c0-.3.2-.4.3-.4s.1,0,.2,0c1.1.4,2,.7,2.7.7,2,0,2.9-1.4,2.9-4.3s-.8-4.3-3.1-4.3ZM67.2,239.9c0-.4-.2-.6-.6-.6h-1.2c-.3,0-.4-.1-.4-.4v-1.1c0-.3.1-.4.4-.4h1.1c.4,0,.6.1.7.4v-6.2c0-.3.2-.5.5-.5h1.1c.3,0,.5.2.5.5v15c0,.3-.2.5-.5.5h-1.1c-.3,0-.5-.2-.5-.5v-6.6ZM62.1,247.4c-.8,0-1.4-.5-1.4-1.3s.6-1.3,1.4-1.3,1.4.5,1.4,1.3-.6,1.3-1.4,1.3Z"/>
</svg>