<?xml version="1.0" encoding="UTF-8"?>
<svg id="_레이어_1" data-name="레이어_1" xmlns="http://www.w3.org/2000/svg" version="1.1" viewBox="0 0 360 610">
  <!-- Generator: Adobe Illustrator 29.0.1, SVG Export Plug-In . SVG Version: 2.1.0 Build 192)  -->
  <defs>
    <style>
      .st0 {
        fill: #d4efff;
      }

      .st1 {
        fill: #7c63b0;
      }
    </style>
  </defs>
  <rect class="st0" y="0" width="360" height="610" rx="16" ry="16"/>
  <path class="st1" d="M320.7,36.8v-1.1c0-.3.1-.4.4-.4h1.1c.3,0,.4.1.4.4v.9c0,.2-.1.4-.3.5h2.8c.3,0,.4.1.4.4v1c0,.3-.1.4-.4.4h-2.5s0,3.7,0,3.7c0,2,1.2,3.7,2.6,3.9.3,0,.4.2.4.5v1c0,.3-.1.4-.4.4-1.6-.2-3.1-1.5-3.6-3.1-.4,1.6-1.9,2.9-3.6,3.1-.3,0-.4-.1-.4-.4v-1c0-.3.1-.4.4-.5,1.4-.2,2.6-1.9,2.6-3.9v-3.7s-2.5,0-2.5,0c-.3,0-.4-.1-.4-.4v-1c0-.3.1-.4.4-.4h2.1c.3,0,.4,0,.4-.3ZM315.7,50.3c0,.3-.2.5-.4.5h-1.1c-.3,0-.4-.2-.4-.5v-14.1c0-.3.2-.5.4-.5h1.1c.3,0,.4.2.4.5v14.1ZM307.8,41.4c1.1,0,1.8-.7,1.8-1.9s-.7-1.8-1.8-1.8-1.8.7-1.8,1.8.7,1.9,1.8,1.9ZM299.2,50.3v-.9c0-.3.2-.4.5-.3,1.4.2,3.2.3,4.4.3,3.5,0,4.2,0,4.2-.6s-.5-.6-3.3-.6-3.7,0-4.9,0c-.3,0-.4-.1-.4-.4v-.8c0-.3.1-.4.4-.4h.6c-.7-.2-1.1-.8-1.1-1.5s.5-1.3,1.5-1.4c2.2,0,5.9,0,8.4.2.3,0,.4.1.4.4v.8c0,.3-.1.4-.4.4-1.9-.1-5.5-.2-7.2-.2s-.8.2-.8.6.3.5.9.5c.9,0,1.8,0,2.7,0,3.9,0,5.2.5,5.2,2.2s-1.3,2.3-6.2,2.3-3.1-.1-4.5-.3c-.3,0-.4-.2-.4-.4ZM307.8,36c2.3,0,3.7,1.4,3.7,3.5s-1.5,3.6-3.7,3.6-3.7-1.4-3.7-3.6,1.5-3.5,3.7-3.5ZM301.6,42.5c0,.3-.2.5-.4.5h-1.1c-.3,0-.4-.2-.4-.5v-6.3c0-.3.2-.5.4-.5h1.1c.3,0,.4.2.4.5v.4c0,.3.1.4.4.4h1.2c.3,0,.4.1.4.4v.9c0,.3-.1.4-.4.4h-1c-.3,0-.5-.1-.6-.3v1.3c0,.3.1.4.4.4h1.2c.3,0,.4.1.4.4v.9c0,.3-.1.4-.4.4h-1c-.3,0-.5-.1-.6-.3v.9ZM295.3,41.8c0-.7-.5-1.1-1.8-1.1s-1.8.4-1.8,1.1.5,1.1,1.8,1.1,1.8-.4,1.8-1.1ZM293.5,44.6c-2.5,0-3.7-1-3.7-2.8s1.2-2.8,3.7-2.8,3.7,1,3.7,2.8-1.2,2.8-3.7,2.8ZM285.9,42.2c0-.4-.2-.5-.6-.5h-1.1c-.3,0-.4-.1-.4-.4v-.9c0-.3.1-.4.4-.4h1c.3,0,.6.1.7.3v-4c0-.3.2-.5.4-.5h1.1c.3,0,.4.2.4.5v9.6c0,.3-.2.5-.4.5h-1.1c-.3,0-.4-.2-.4-.5v-3.6ZM292.5,36v-.6c0-.3.1-.4.4-.4h1.1c.3,0,.4.1.4.4v.4c0,.2-.1.4-.3.5h3.1c.3,0,.4.1.4.4v.9c0,.3-.1.4-.4.4h-7.6c-.3,0-.4-.1-.4-.4v-.9c0-.3.1-.4.4-.4h2.4c.3,0,.4,0,.4-.3ZM295.9,47.9c0,2-1.4,3.2-3.7,3.2s-4.7-.1-6.4-.3c-.3,0-.4-.2-.4-.4v-.9c0-.3.2-.4.5-.4,2,.2,3.5.3,6.4.3s1.7-.5,1.7-1.6,0-.9-.1-1.3c0-.3.2-.5.4-.5h1c.3,0,.4.2.5.4,0,.4.1.9.1,1.5ZM271.2,46.4c-2.7,0-3.6.6-3.6,1.4s.9,1.4,3.6,1.4,3.6-.6,3.6-1.4-.9-1.4-3.6-1.4ZM272.7,43.4h-1.1c-.3,0-.4-.1-.5-.4-.3-1.2-.6-2.7-.6-3.6,0-2.3.9-3.2,3.2-3.2s2.4.1,3.7.3c.3,0,.4.2.4.5v1c0,.3-.2.5-.4.4-1.1-.2-1.8-.3-3.6-.3s-1.3.4-1.3,1.3.3,2.5.6,3.6c0,.3-.1.5-.4.5ZM271.2,51.1c-3.7,0-5.6-1.1-5.6-3.2s1.9-3.2,5.6-3.2,5.6,1.1,5.6,3.2-1.9,3.2-5.6,3.2ZM267.9,43.4c0,.3-.2.5-.4.5h-1.1c-.3,0-.4-.2-.4-.5v-7.2c0-.3.2-.5.4-.5h1.1c.3,0,.4.2.4.5v.5c0,.3.1.5.5.5h1.2c.3,0,.4.1.4.4v.9c0,.3-.1.4-.4.4h-1c-.3,0-.6-.1-.7-.3v1.5c0,.3.1.5.5.5h1.2c.3,0,.4.1.4.4v.9c0,.3-.1.4-.4.4h-1c-.3,0-.6-.1-.7-.3v1.3ZM256,51.1c-3.9,0-5.8-1.1-5.8-3.2s1.9-3.2,5.8-3.2,5.8,1.1,5.8,3.2-1.9,3.2-5.8,3.2ZM251,35.7h1c.3,0,.4.1.4.4v2.4s.9,0,.9,0c.2,0,.5.1.6.3v-2.6c0-.3.1-.4.4-.4h1c.3,0,.4.1.4.4v6.7c0,.3-.1.4-.4.4h-1c-.3,0-.4-.1-.4-.4v-2.1c0-.3-.1-.5-.5-.5h-.9s0,2.9,0,2.9c0,.3-.1.4-.4.4h-1c-.3,0-.4-.1-.4-.4v-7.2c0-.3.1-.4.4-.4ZM261.4,37.9v1.1c0,1.5.9,2.6,2.2,2.6s.4.1.4.4v.9c0,.3-.1.4-.4.4-1.3,0-2.7-.8-3.1-2.1-.5,1.3-1.8,2.1-3.1,2.1s-.4-.2-.4-.4v-.9c0-.3.1-.4.4-.4,1.3,0,2.2-1.1,2.2-2.6v-1.1s-2.1,0-2.1,0c-.3,0-.4-.1-.4-.4v-.9c0-.3.1-.4.4-.4h6.1c.3,0,.4.1.4.4v.9c0,.3-.1.4-.4.4h-2.1ZM256,46.4c-2.8,0-3.9.6-3.9,1.4s1,1.4,3.9,1.4,3.9-.6,3.9-1.4-1-1.4-3.9-1.4ZM244.4,49.8c-1.6,0-3,0-4.2-.2-.3,0-.4-.2-.4-.5v-1c0-.3.2-.4.4-.4.6.1,1.9.2,3.2.2s.6-.2.6-.5v-4.3c0-.3.2-.5.4-.5h1.1c.3,0,.4.2.4.5v4.1c0,.3-.2.6-.4.7,1,0,1.8-.1,2.7-.3.3,0,.5,0,.5.4v1c0,.3-.1.4-.4.4-1.1.2-2.2.3-3.9.3ZM242.3,40.1c0,1.2.1,2.7.5,4.2,0,.3,0,.4-.3.4l-1.2.2c-.3,0-.4,0-.5-.3-.3-1.4-.5-3.2-.5-4.8s.8-3.3,3.3-3.3,2.8.1,3.7.3c.3,0,.4.2.4.4v1c0,.3-.2.5-.4.4-1.1-.2-2.3-.3-3.5-.3s-1.6.5-1.6,1.8ZM236.8,44.1c0-.4-.2-.5-.6-.5h-1.1c-.3,0-.4-.1-.4-.4v-1c0-.3.1-.4.4-.4h1c.3,0,.6.1.7.3v-5.8c0-.3.2-.5.4-.5h1.1c.3,0,.4.2.4.5v14.1c0,.3-.2.5-.4.5h-1.1c-.3,0-.4-.2-.4-.5v-6.2ZM221.3,48.5c-.3,0-.4-.1-.4-.4v-1c0-.3.1-.4.4-.5,1.4-.2,2.6-1.9,2.6-3.9v-5.5c0-.3.2-.5.4-.5h1.1c.3,0,.4.2.4.5v5.5c0,2,1.2,3.7,2.6,3.9.3,0,.4.2.4.5v1c0,.3-.1.4-.4.4-1.6-.2-3.1-1.5-3.6-3.1-.4,1.6-1.9,2.9-3.6,3.1ZM217.2,44.1c0-.4-.2-.5-.6-.5h-1.1c-.3,0-.4-.1-.4-.4v-1c0-.3.1-.4.4-.4h1c.3,0,.6.1.7.3v-5.8c0-.3.2-.5.4-.5h1.1c.3,0,.4.2.4.5v14.1c0,.3-.2.5-.4.5h-1.1c-.3,0-.4-.2-.4-.5v-6.2ZM210.8,45.7v1.6c0,.3-.2.6-.4.7,1.2,0,2.6-.1,3.5-.3.3,0,.5,0,.5.4v1c0,.3-.1.4-.4.4-1.1.2-2.4.3-4.1.3s-3.2,0-4.4-.2c-.3,0-.4-.2-.4-.5v-1c0-.3.2-.4.4-.4.6.1,1.6.2,2.7.2s.6-.2.6-.5v-1.8c-1.7-.3-2.7-1.3-2.7-2.9s1.3-2.9,3.7-2.9,3.7,1,3.7,2.9-1,2.7-2.8,2.9ZM202.1,36.2c0-.3.2-.5.4-.5h1.1c.3,0,.4.2.4.5v14.1c0,.3-.2.5-.4.5h-1.1c-.3,0-.4-.2-.4-.5v-14.1ZM208.9,36.7v-.8c0-.3.1-.4.4-.4h1.1c.3,0,.4.1.4.4v.6c0,.2-.1.4-.3.5h3.1c.3,0,.4.1.4.4v1c0,.3-.1.4-.4.4h-7.6c-.3,0-.4-.1-.4-.4v-1c0-.3.1-.4.4-.4h2.4c.3,0,.4,0,.4-.3ZM209.9,41.6c-1.2,0-1.8.4-1.8,1.1s.6,1.2,1.8,1.2,1.8-.4,1.8-1.2-.6-1.1-1.8-1.1ZM196.9,37.9v.7c0,1.9,1.1,3.3,2.6,3.3s.4.1.4.4v.9c0,.3-.1.4-.4.4-1.8,0-3.1-1.2-3.6-2.5-.5,1.3-1.8,2.5-3.6,2.5s-.4-.1-.4-.4v-.9c0-.3.1-.4.4-.4,1.5,0,2.6-1.4,2.6-3.3v-.7s-2.5,0-2.5,0c-.3,0-.4-.1-.4-.4v-.9c0-.3.1-.4.4-.4h7c.3,0,.4.1.4.4v.9c0,.3-.1.4-.4.4h-2.5ZM188.1,47.8c0-1.9,1-2.7,3.3-2.7s5,.1,6.8.3c.3,0,.4.2.4.4v.9c0,.3-.1.4-.4.4-2.1-.2-4.1-.3-6.6-.3s-1.6.3-1.6,1.4,0,1.6,0,2.2c0,.3-.2.5-.4.5h-1c-.3,0-.5-.2-.5-.4,0-.6,0-1.5,0-2.7ZM190,38.5c0,.4.2.5.6.5h1.3c.3,0,.4.1.4.4v.9c0,.3-.1.4-.4.4h-1.2c-.3,0-.6-.1-.7-.3v2.9c0,.3-.2.5-.4.5h-1.1c-.3,0-.4-.2-.4-.5v-7.2c0-.3.2-.5.4-.5h1.1c.3,0,.4.2.4.5v2.3ZM174.3,46.4c-2.7,0-3.6.6-3.6,1.4s.9,1.4,3.6,1.4,3.6-.6,3.6-1.4-.9-1.4-3.6-1.4ZM174.3,51.1c-3.7,0-5.6-1.1-5.6-3.2s1.9-3.2,5.6-3.2,5.6,1.1,5.6,3.2-1.9,3.2-5.6,3.2ZM176.6,36.1h1.1c.3,0,.4.2.4.5v1.9c0,1.8,1.1,3.2,2.6,3.2s.4.1.4.4v.9c0,.3-.1.4-.4.4-1.8,0-3.1-1.1-3.6-2.4-.5,1.3-1.8,2.4-3.6,2.4s-.4-.1-.4-.4v-.9c0-.3.1-.4.4-.4,1.5,0,2.6-1.3,2.6-3.2v-1.9c0-.3.2-.5.4-.5ZM171.1,37.6c0,.4.2.5.6.5h1.9c.3,0,.4.1.4.4v.9c0,.3-.1.4-.4.4h-1.8c-.3,0-.6-.1-.7-.3v3.8c0,.3-.2.5-.4.5h-1.1c-.3,0-.4-.2-.4-.5v-7.2c0-.3.2-.5.4-.5h1.1c.3,0,.4.2.4.5v1.4ZM160.1,46.8c-2.6,0-3.6.3-3.6,1.2s1.1,1.3,3.6,1.3,3.6-.3,3.6-1.3-1-1.2-3.6-1.2ZM160.3,44.2c-2.4,0-4.8,0-6-.2s-.4-.2-.4-.5v-.9c0-.3.2-.4.5-.4,1.2.1,4.1.2,5.4.1.3,0,.4-.2.4-.4v-1.9c0-.3.2-.5.4-.5h1.1c.3,0,.4.2.4.5v1.8c0,.2-.1.4-.3.5,1.6,0,3.1,0,4.4-.2.3,0,.5.1.5.4v.9c0,.3-.1.4-.4.5-1,.1-2.9.2-6,.2ZM157.2,41c0,.3,0,.4-.3.4l-1.2.2c-.3,0-.4,0-.5-.3-.2-.7-.2-1.3-.2-2.3,0-2,1.1-2.9,3.5-2.9s4.4.1,6.3.3c.3,0,.4.2.4.4v1c0,.3-.2.4-.4.4-2.1-.2-3.9-.3-6.1-.3s-1.7.4-1.7,1.6,0,1,.2,1.5ZM160.1,51.1c-3.8,0-5.6-.9-5.6-3s1.8-3,5.6-3,5.6.9,5.6,3-1.8,3-5.6,3ZM145.3,37.5c-2.6,0-3.3.3-3.3,1.1s.8,1.1,3.3,1.1,3.3-.3,3.3-1.1-.8-1.1-3.3-1.1ZM139.7,50.3v-.8c0-.3.2-.4.5-.3,1.3.2,3.2.3,4.5.3,3.5,0,4.1,0,4.1-.6s-.4-.6-3.2-.6-4,0-5,0c-.2,0-.4-.1-.4-.4v-.7c0-.3.1-.4.4-.4h.6c-.7-.2-1.1-.8-1.1-1.4s.4-1.2,1.6-1.2c2.2,0,5.8,0,8.4.2.3,0,.4.1.4.4v.8c0,.3-.1.4-.4.4-1.9-.1-5.5-.2-7.2-.2s-.8.2-.8.5.2.5.9.5c.9,0,1.9,0,2.8,0,4,0,5.1.5,5.1,2.1s-1.2,2.2-6.1,2.2-3.3-.1-4.6-.3c-.3,0-.4-.2-.3-.4ZM145.5,41.9c2,0,4.4,0,6-.2.3,0,.4.1.4.4v.8c0,.3-.1.4-.4.4-1,.1-2.9.2-6,.2-2.4,0-4.8,0-6.1-.2-.3,0-.4-.2-.4-.4v-.8c0-.3.2-.4.4-.4,1.3.1,3.2.2,6,.2ZM145.3,41.2c-3.8,0-5.3-.7-5.3-2.6s1.5-2.6,5.3-2.6,5.3.7,5.3,2.6-1.5,2.6-5.3,2.6ZM126,46.4c-2.6,0-3.4.6-3.4,1.4s.8,1.4,3.4,1.4,3.4-.6,3.4-1.4-.8-1.4-3.4-1.4ZM127.1,43.4h-1.1c-.3,0-.4-.1-.5-.4-.3-1.2-.6-2.7-.6-3.6,0-2.3.9-3.2,3.2-3.2s2.6.1,3.9.3c.3,0,.4.2.4.5v1c0,.3-.2.5-.4.4-1.1-.2-1.9-.3-3.8-.3s-1.3.4-1.3,1.3.3,2.5.6,3.6c0,.3-.1.5-.4.5ZM126,51.1c-3.6,0-5.4-1.1-5.4-3.2s1.8-3.2,5.4-3.2,5.4,1.1,5.4,3.2-1.8,3.2-5.4,3.2ZM121,41c0-.4-.2-.5-.6-.5h-1.1c-.3,0-.4-.1-.4-.4v-.9c0-.3.1-.4.4-.4h1c.3,0,.6.1.7.3v-2.8c0-.3.2-.5.4-.5h1.1c.3,0,.4.2.4.5v7.2c0,.3-.2.5-.4.5h-1.1c-.3,0-.4-.2-.4-.5v-2.4ZM115.6,36.6c.3,0,.4.1.4.4v1c0,.3-.1.4-.4.4h-3.6s0,1,0,1c0,2.1,1.6,3.6,3.8,3.6s.4.1.4.4v1.1c0,.4-.3.4-.6.4-2,0-3.9-1.2-4.7-2.8-.7,1.7-2.6,2.8-4.6,2.8s-.6,0-.6-.4v-1.1c0-.3.1-.4.4-.4,2.3,0,3.8-1.5,3.8-3.6v-1s-3.6,0-3.6,0c-.3,0-.4-.1-.4-.4v-1c0-.3.1-.4.4-.4h9.1ZM111.1,49.5c-2.6,0-4.9-.1-6-.3-.3,0-.4-.2-.4-.5v-.9c0-.3.2-.4.5-.4,1.2.2,2.9.3,4.4.3s.6-.2.6-.5v-2.1c0-.3.2-.5.4-.5h1.1c.3,0,.4.2.4.5v2c0,.3-.2.6-.4.7,1.9,0,4.2-.2,5.4-.3.3,0,.5.1.5.4v.9c0,.3-.1.4-.4.5-1.3.2-3.3.3-6,.3ZM97.3,44.3c0,1.5.7,2.3,1.8,2.3s1.8-.8,1.8-2.3-.6-2.3-1.8-2.3-1.8.8-1.8,2.3ZM99.1,40.1c2.3,0,3.7,1.5,3.7,4.2s-1.4,4.2-3.7,4.2-3.7-1.5-3.7-4.2,1.4-4.2,3.7-4.2ZM91.4,44.1c0-.4-.2-.5-.6-.5h-1.1c-.3,0-.4-.1-.4-.4v-1c0-.3.1-.4.4-.4h1c.3,0,.6.1.7.3v-5.8c0-.3.2-.5.4-.5h1.1c.3,0,.4.2.4.5v14.1c0,.3-.2.5-.4.5h-1.1c-.3,0-.4-.2-.4-.5v-6.2ZM98,36.8v-1.1c0-.3.1-.4.4-.4h1.1c.3,0,.4.1.4.4v.9c0,.2-.1.4-.3.5h3.1c.3,0,.4.1.4.4v1c0,.3-.1.4-.4.4h-7.6c-.3,0-.4-.1-.4-.4v-1c0-.3.1-.4.4-.4h2.4c.3,0,.4,0,.4-.3ZM80.5,40.5c0-2.6,1-3.7,3.3-3.7s2.4.1,3.7.3c.3,0,.4.2.4.5v1c0,.3-.2.5-.4.4-1.1-.2-2.1-.3-3.3-.3s-1.7.5-1.7,2c0,2.5.2,4.9.6,7.4,0,.3-.1.5-.4.5h-1.1c-.3,0-.4-.1-.5-.4-.4-2.5-.6-4.9-.6-7.6ZM78.2,50.3c0,.3-.2.5-.4.5h-1.1c-.3,0-.4-.2-.4-.5v-14.1c0-.3.2-.5.4-.5h1.1c.3,0,.4.2.4.5v14.1ZM67.5,49.5c-2.6,0-4.9-.1-6-.3-.3,0-.4-.2-.4-.5v-.9c0-.3.2-.4.5-.4,1.2.2,2.9.3,4.4.3s.6-.2.6-.5v-2.2s-1.9,0-1.9,0c-1.3,0-2-.7-2.1-1.8l-.3-6.1c0-.3.2-.4.4-.4h1.1c.3,0,.4.2.4.4v1.7c0,0,6.5,0,6.5,0v-1.7c0-.3.2-.4.5-.4h1.1c.3,0,.5.2.4.4l-.3,6.1c0,1.1-.8,1.8-2.1,1.8h-1.9s0,2,0,2c0,.3-.2.6-.4.7,1.9,0,4.2-.2,5.4-.3.3,0,.5.1.5.4v.9c0,.3-.1.4-.4.5-1.3.2-3.3.3-6,.3ZM64.3,40.6v1.9c0,.5.4.7.9.7h4.6c.5,0,.7-.2.8-.7v-1.9c0,0-6.2,0-6.2,0ZM54.3,38.7c-.9,0-1.4,0-2.1.2-.3,0-.4-.1-.4-.4v-1c0-.3.1-.4.4-.4.6-.1,1.3-.1,2.3-.1,3.2,0,4.8,1.8,4.8,5.9s-1.5,5.9-4.6,5.9-2-.2-3.1-.7c-.3-.1-.4-.3-.4-.5l.3-1c0-.2.2-.4.3-.4s.1,0,.2,0c1,.4,1.9.6,2.6.6,1.9,0,2.8-1.3,2.8-4s-.8-4.1-2.9-4.1ZM47.7,44.1c0-.4-.2-.5-.6-.5h-1.1c-.3,0-.4-.1-.4-.4v-1c0-.3.1-.4.4-.4h1c.3,0,.6.1.7.3v-5.8c0-.3.2-.5.4-.5h1.1c.3,0,.4.2.4.5v14.1c0,.3-.2.5-.4.5h-1.1c-.3,0-.4-.2-.4-.5v-6.2ZM321.8,70.5c1.1,0,1.9-.9,1.9-2.4s-.7-2.3-1.9-2.3-1.9.9-1.9,2.3.7,2.4,1.9,2.4ZM321.8,64c2.3,0,3.8,1.6,3.8,4.1s-1.5,4.1-3.8,4.1-3.8-1.6-3.8-4.1,1.5-4.1,3.8-4.1ZM314.1,70.2c0-.4-.2-.5-.6-.5h-1.1c-.3,0-.4-.1-.4-.4v-.9c0-.3.1-.4.4-.4h1c.3,0,.6.1.7.3v-4c0-.3.2-.5.4-.5h1.1c.3,0,.4.2.4.5v9.6c0,.3-.2.5-.4.5h-1.1c-.3,0-.4-.2-.4-.5v-3.6ZM324.1,75.9c0,2-1.4,3.2-3.7,3.2s-4.7-.1-6.4-.3c-.3,0-.4-.2-.4-.4v-.9c0-.3.2-.4.5-.4,2,.2,3.5.3,6.4.3s1.7-.5,1.7-1.6,0-1.3-.1-1.7c0-.3.2-.5.4-.5h1c.3,0,.4.2.5.4,0,.4.1,1.2.1,1.9ZM304.2,73.4c-2.4,0-4.8,0-6-.2-.3,0-.4-.2-.4-.5v-.9c0-.3.2-.4.5-.4,1.2.1,3.2.2,4.6.1.3,0,.4-.2.4-.4v-.8c-3.1-.2-4.5-1.2-4.5-3.2s1.6-3.2,5.3-3.2,5.3,1,5.3,3.2-1.3,3-4.2,3.2v.8c0,.2-.1.4-.3.5,1.7,0,3.9,0,5.2-.2.3,0,.5.1.5.4v.9c0,.3-.1.4-.4.5-1,.1-2.9.2-6,.2ZM309.5,76c0,2-1.3,3.1-3.6,3.1s-5.3-.1-7-.3c-.3,0-.4-.2-.4-.4v-.9c0-.3.2-.4.5-.4,2,.2,3.9.3,7,.3s1.6-.4,1.6-1.4,0-.8-.1-1.2c0-.3.1-.5.4-.5h1c.3,0,.5.2.5.4,0,.3.1.8.1,1.3ZM307.4,67.2c0-1.1-.9-1.5-3.3-1.5s-3.3.4-3.3,1.5.9,1.5,3.3,1.5,3.3-.4,3.3-1.5ZM293.9,69.8c0-.7-.5-1.1-1.8-1.1s-1.8.4-1.8,1.1.5,1.1,1.8,1.1,1.8-.4,1.8-1.1ZM292.2,72.6c-2.5,0-3.7-1-3.7-2.8s1.2-2.8,3.7-2.8,3.7,1,3.7,2.8-1.2,2.8-3.7,2.8ZM284.5,70.2c0-.4-.2-.5-.6-.5h-1.1c-.3,0-.4-.1-.4-.4v-.9c0-.3.1-.4.4-.4h1c.3,0,.6.1.7.3v-4c0-.3.2-.5.4-.5h1.1c.3,0,.4.2.4.5v9.6c0,.3-.2.5-.4.5h-1.1c-.3,0-.4-.2-.4-.5v-3.6ZM291.1,64v-.6c0-.3.1-.4.4-.4h1.1c.3,0,.4.1.4.4v.4c0,.2-.1.4-.3.5h3.1c.3,0,.4.1.4.4v.9c0,.3-.1.4-.4.4h-7.6c-.3,0-.4-.1-.4-.4v-.9c0-.3.1-.4.4-.4h2.4c.3,0,.4,0,.4-.3ZM294.6,75.9c0,2-1.4,3.2-3.7,3.2s-4.7-.1-6.4-.3c-.3,0-.4-.2-.4-.4v-.9c0-.3.2-.4.5-.4,2,.2,3.5.3,6.4.3s1.7-.5,1.7-1.6,0-.9-.1-1.3c0-.3.2-.5.4-.5h1c.3,0,.4.2.5.4,0,.4.1.9.1,1.5ZM267.4,77.2c.3,0,.5-.1.5-.4v-2.9c0-.3-.2-.4-.5-.4-.7,0-.9.4-.9,1.6s.4,2.1,1,2.1ZM270.1,78.3l.2-.8c0-.3.2-.3.5-.3.5.1,1.2.2,1.8.2s1.2-.2,1.2-.6-.3-.6-.8-.6-1.4,0-2,0c-.3,0-.4-.1-.4-.4v-.8c0-.3.1-.4.4-.4h.6c-.7-.2-1.1-.8-1.1-1.5,0-1.3,1.1-1.4,2.1-1.4s1.5,0,2.4.2c.3,0,.4.1.4.4v.9c0,.3-.1.4-.4.3-.8-.2-1.4-.2-1.8-.2s-.7.2-.7.6.2.5.8.5c1.7,0,2.6.7,2.6,2.2s-.9,2.3-3.2,2.3-1.5-.1-2.1-.3c-.3,0-.3-.2-.3-.5ZM269.7,72.7v5.1c0,.8-.4,1.1-1.4,1.1h-3.3c-.3,0-.4-.1-.4-.4v-.9c0-.3.1-.4.4-.4h.8c-.6-.5-1.1-1.5-1.1-2.8s.8-2.3,2.1-2.3h2.3c.5,0,.7.2.7.7ZM272,64.1h1.1c.3,0,.4.2.4.5v1.5c0,1.7,1.1,3,2.6,3s.4.1.4.4v.9c0,.3-.1.4-.4.4-1.8,0-3.1-1.2-3.6-2.4-.5,1.2-1.8,2.4-3.6,2.4s-.4-.1-.4-.4v-.9c0-.3.1-.4.4-.4,1.5,0,2.6-1.3,2.6-3v-1.5c0-.3.2-.5.4-.5ZM264.9,68.5c0-.4-.2-.5-.6-.5h-1.1c-.3,0-.4-.1-.4-.4v-.9c0-.3.1-.4.4-.4h1c.3,0,.6.1.7.3v-2.3c0-.3.2-.5.4-.5h1.1c.3,0,.4.2.4.5v6.3c0,.3-.2.5-.4.5h-1.1c-.3,0-.4-.2-.4-.5v-2ZM254.9,65.5c-2.6,0-3.3.3-3.3,1.1s.8,1.1,3.3,1.1,3.3-.3,3.3-1.1-.8-1.1-3.3-1.1ZM249.3,78.3v-.8c0-.3.2-.4.5-.3,1.3.2,3.2.3,4.5.3,3.5,0,4.1,0,4.1-.6s-.4-.6-3.2-.6-4,0-5,0c-.2,0-.4-.1-.4-.4v-.7c0-.3.1-.4.4-.4h.6c-.7-.2-1.1-.8-1.1-1.4s.4-1.2,1.6-1.2c2.2,0,5.8,0,8.4.2.3,0,.4.1.4.4v.8c0,.3-.1.4-.4.4-1.9-.1-5.5-.2-7.2-.2s-.8.2-.8.5.2.5.8.5c.9,0,1.9,0,2.8,0,4,0,5.1.5,5.1,2.1s-1.2,2.2-6.1,2.2-3.3-.1-4.6-.3c-.3,0-.4-.2-.3-.4ZM255.1,69.9c2,0,4.4,0,6-.2.3,0,.4.1.4.4v.8c0,.3-.1.4-.4.4-1,.1-2.9.2-6,.2-2.4,0-4.8,0-6.1-.2-.3,0-.4-.2-.4-.4v-.8c0-.3.2-.4.4-.4,1.3.1,3.2.2,6,.2ZM254.9,69.2c-3.8,0-5.3-.7-5.3-2.6s1.5-2.6,5.3-2.6,5.3.7,5.3,2.6-1.5,2.6-5.3,2.6ZM236.6,70.4v3.5c.1.5.4.7.9.7h1.8c.5,0,.7-.2.7-.7v-3.5c.1,0-3.3,0-3.3,0ZM234.9,64.8h1c.3,0,.5.2.5.4v3.3c0,0,3.6,0,3.6,0v-3.3c0-.3.3-.4.6-.4h1c.3,0,.5.2.5.5l-.3,9.4c0,1.1-.8,1.8-2.1,1.8h-3c-1.3,0-2-.7-2.1-1.8l-.3-9.4c0-.3.2-.5.5-.5ZM230.6,72.1c0-.4-.2-.5-.6-.5h-1.1c-.3,0-.4-.1-.4-.4v-1c0-.3.1-.4.4-.4h1c.3,0,.6.1.7.3v-5.8c0-.3.2-.5.4-.5h1.1c.3,0,.4.2.4.5v14.1c0,.3-.2.5-.4.5h-1.1c-.3,0-.4-.2-.4-.5v-6.2ZM225.2,73.2c0-1.2-.7-1.7-2.7-1.7s-1.4,0-2.3,0-.4-.1-.4-.4v-.9c0-.3.1-.4.4-.4h.5c-.7-.5-1.1-1.4-1.1-2.5,0-1.6,1.1-2.5,3.1-2.5s2.2,0,3.5.2c.3,0,.4.2.4.4v1.1c0,.3-.2.4-.4.4-1.4-.2-2.4-.3-3-.3-1.1,0-1.6.5-1.6,1.5s.5,1.5,1.5,1.5c2.8,0,4.1,1.1,4.1,3.4s-1.3,3.6-4,3.6-2.3-.2-3.7-.7c-.3-.1-.4-.3-.3-.5l.3-1c0-.2.2-.3.3-.3s.1,0,.2,0c1,.4,1.9.6,2.8.6,1.8,0,2.5-.5,2.5-1.7ZM215.8,72.1c0-.4-.2-.5-.6-.5h-1.1c-.3,0-.4-.1-.4-.4v-1c0-.3.1-.4.4-.4h1c.3,0,.6.1.7.3v-5.8c0-.3.2-.5.4-.5h1.1c.3,0,.4.2.4.5v14.1c0,.3-.2.5-.4.5h-1.1c-.3,0-.4-.2-.4-.5v-6.2ZM210.9,67.3c0,2-1.2,3.1-3.5,3.1s-5-.1-6.7-.3c-.3,0-.4-.2-.4-.4v-.9c0-.3.2-.4.5-.4,2,.2,3.8.3,6.4.3s1.6-.4,1.6-1.4,0-1.9-.1-2.6c0-.3.1-.5.4-.5h1c.3,0,.5.2.5.4,0,.8.1,2.1.1,2.7ZM211.2,76c0,2-1.3,3.1-3.6,3.1s-5.3-.1-7-.3c-.3,0-.4-.2-.4-.4v-.9c0-.3.2-.4.5-.4,2,.2,3.9.3,7,.3s1.6-.4,1.6-1.4,0-.8-.1-1.2c0-.3.1-.5.4-.5h1c.3,0,.5.2.5.4,0,.3.1.8.1,1.3ZM212.3,71.8v.9c0,.3-.1.4-.4.5-1,.1-2.9.2-6,.2-2.4,0-4.8,0-6-.2-.3,0-.4-.2-.4-.5v-.9c0-.3.2-.4.5-.4,1.3.1,3.2.2,6,.2s4.4,0,5.9-.2c.3,0,.5.1.5.4ZM185.5,76.5c-.3,0-.4-.1-.4-.4v-1c0-.3.1-.4.4-.5,1.4-.2,2.6-1.9,2.6-3.9v-5.5c0-.3.2-.5.4-.5h1.1c.3,0,.4.2.4.5v5.5c0,2,1.2,3.7,2.6,3.9.3,0,.4.2.4.5v1c0,.3-.1.4-.4.4-1.6-.2-3.1-1.5-3.6-3.1-.4,1.6-1.9,2.9-3.6,3.1ZM181.5,72.1c0-.4-.2-.5-.6-.5h-1.1c-.3,0-.4-.1-.4-.4v-1c0-.3.1-.4.4-.4h1c.3,0,.6.1.7.3v-5.8c0-.3.2-.5.4-.5h1.1c.3,0,.4.2.4.5v14.1c0,.3-.2.5-.4.5h-1.1c-.3,0-.4-.2-.4-.5v-6.2ZM174.3,77.1c.4,0,.7-.2.7-.5v-1.3c0-.3-.2-.4-.4-.4h-4.9c-.8,0-1.1.2-1.1.9s.7,1.4,1.5,1.4h4.2ZM170.1,70.7l.2-.9c0-.2.2-.3.3-.3s.1,0,.2,0c.9.3,2.1.5,2.9.5,1.9,0,2.4-.1,2.4-.7s-.6-.7-2.9-.7-1.4,0-2.2,0c-.3,0-.4-.1-.4-.4v-.8c0-.3.1-.4.4-.4h.4c-.6-.3-.9-.8-.9-1.5,0-1.1.8-1.5,3-1.5,1.5,0,2.5,0,3.6.2.3,0,.4.2.4.4v.9c0,.3-.2.4-.4.4-1.3-.2-2.6-.2-3.2-.2-1,0-1.4.1-1.4.5s.4.6,1.3.6c3.2,0,4.3.6,4.3,2.4s-1.1,2.5-3.9,2.5-2.9-.3-3.8-.6c-.3-.1-.4-.3-.3-.5ZM166.5,74.8c0-1.2.7-1.8,2.1-1.8h7.5c.5,0,.8.3.8.8v3.6c0,.9-.7,1.5-1.8,1.5h-8.4c-.3,0-.4-.1-.4-.4v-.9c0-.3.1-.4.4-.4h1.2c-.8-.4-1.4-1.3-1.4-2.3ZM166.7,69c0-.4-.2-.5-.6-.5h-1.1c-.3,0-.4-.1-.4-.4v-.9c0-.3.1-.4.4-.4h1c.3,0,.6.1.7.3v-2.8c0-.3.2-.5.4-.5h1.1c.3,0,.4.2.4.5v7.2c0,.3-.2.5-.4.5h-1.1c-.3,0-.4-.2-.4-.5v-2.4ZM151,78.3v-.8c0-.3.2-.4.5-.3,1.3.2,3.2.3,4.5.3,3.5,0,4.1,0,4.1-.6s-.4-.6-3.2-.6-4,0-5,0c-.2,0-.4-.1-.4-.4v-.7c0-.3.1-.4.4-.4h.6c-.7-.2-1.1-.8-1.1-1.4s.4-1.2,1.6-1.2c2.2,0,5.8,0,8.4.2.3,0,.4.1.4.4v.8c0,.3-.1.4-.4.4-1.9-.1-5.5-.2-7.2-.2s-.8.2-.8.5.2.5.8.5c.9,0,1.9,0,2.8,0,4,0,5.1.5,5.1,2.1s-1.2,2.2-6.1,2.2-3.3-.1-4.6-.3c-.3,0-.4-.2-.3-.4ZM156.8,69.9c2,0,4.4,0,6-.2.3,0,.4.1.4.4v.8c0,.3-.1.4-.4.4-1,.1-2.9.2-6,.2-2.4,0-4.8,0-6.1-.2-.3,0-.4-.2-.4-.4v-.8c0-.3.2-.4.4-.4,1.3.1,3.2.2,6,.2ZM151.9,65.5v-.8c0-.3.1-.4.4-.4,2.1-.1,3-.2,3.9-.2,4.5,0,5.9.6,5.9,2.5s-1.4,2.6-5.7,2.6-2.5-.1-4.4-.3c-.3,0-.4-.1-.4-.4v-.8c0-.3.2-.4.5-.4,1.5.2,3.2.3,4.5.3,2.8,0,3.5-.2,3.5-1s-.9-.9-3.9-.9-1.8,0-3.9.2c-.3,0-.4-.1-.4-.4ZM144.8,64.6c2.6,0,3.8,1.9,3.8,6.1s-1.2,6.1-3.8,6.1-3.8-1.9-3.8-6.1,1.2-6.1,3.8-6.1ZM142.9,70.7c0,3,.6,4.2,1.9,4.2s1.9-1.2,1.9-4.2-.6-4.2-1.9-4.2-1.9,1.2-1.9,4.2ZM138.7,78.3c0,.3-.2.5-.4.5h-1.1c-.3,0-.4-.2-.4-.5v-14.1c0-.3.2-.5.4-.5h1.1c.3,0,.4.2.4.5v14.1ZM117.3,78.3v-.8c0-.3.2-.4.5-.3,1.3.2,3.2.3,4.5.3,3.5,0,4.1,0,4.1-.6s-.4-.6-3.2-.6-4,0-5,0c-.2,0-.4-.1-.4-.4v-.7c0-.3.1-.4.4-.4h.6c-.7-.2-1.1-.8-1.1-1.4s.4-1.2,1.6-1.2c2.2,0,5.8,0,8.4.2.3,0,.4.1.4.4v.8c0,.3-.1.4-.4.4-1.9-.1-5.5-.2-7.2-.2s-.8.2-.8.5.2.5.9.5c.9,0,1.9,0,2.8,0,4,0,5.1.5,5.1,2.1s-1.2,2.2-6.1,2.2-3.3-.1-4.6-.3c-.3,0-.4-.2-.3-.4ZM123.1,69.9c2,0,4.4,0,6-.2.3,0,.4.1.4.4v.8c0,.3-.1.4-.4.4-1,.1-2.9.2-6,.2-2.4,0-4.8,0-6.1-.2-.3,0-.4-.2-.4-.4v-.8c0-.3.2-.4.4-.4,1.3.1,3.2.2,6,.2ZM128.1,66.4c0,1.9-1.1,2.8-3.3,2.8s-5.2-.1-6.8-.3c-.3,0-.4-.2-.4-.4v-.9c0-.3.2-.4.5-.4,2,.2,3.9.3,6.6.3s1.4-.4,1.4-1.2,0-1.1-.1-1.6c0-.3.1-.5.4-.5h1c.3,0,.5.2.5.4,0,.5.1,1.1.1,1.8ZM108.3,77.5c-2.7,0-4.9-.1-6-.3-.3,0-.4-.2-.4-.5v-.9c0-.3.2-.4.5-.4,1.1.1,3.4.3,5.2.3s.6-.2.6-.5v-3.9c0-.3.2-.5.4-.5h1.1c.3,0,.4.2.4.5v3.7c0,.3-.2.6-.4.7,1.4,0,3.1-.2,4.6-.3.3,0,.5.1.5.4v.9c0,.3-.1.4-.4.5-1.3.2-3.3.3-6,.3ZM107.5,66.5c-1.8,0-2.4.7-2.4,2.6s.1,2.3.3,3.2c0,.3,0,.4-.3.4l-1.2.2c-.3,0-.4,0-.5-.3-.2-1.2-.3-2.2-.3-3.9,0-2.7,1.4-4.1,4-4.1s3.9,0,5.8.3c.3,0,.4.2.4.4v1c0,.3-.2.4-.4.4-1.7-.2-3.4-.3-5.4-.3ZM91.6,69.9c1.1,0,1.9-.8,1.9-2.1s-.7-2.1-1.9-2.1-1.9.8-1.9,2.1.7,2.1,1.9,2.1ZM86.2,77.1c-.5,1-1.6,1.8-2.9,1.8s-.6,0-.6-.4v-1c0-.3.1-.4.4-.4,1.2,0,2.1-1,2.1-2.2v-1.6c0-.3.2-.5.4-.5h1.1c.3,0,.4.2.4.5v2c0,1.1.6,1.8,1.6,1.8s1.6-.7,1.6-1.8v-2c0-.3.2-.5.4-.5h1.1c.3,0,.4.2.4.5v1.6c0,1.2.8,2.2,2.1,2.2s.4.1.4.4v1c0,.4-.3.4-.6.4-1.3,0-2.4-.8-2.9-1.8-.4,1-1.4,1.8-2.6,1.8s-2.2-.7-2.6-1.8ZM91.6,64c2.3,0,3.8,1.5,3.8,3.9s-1.5,3.9-3.8,3.9-3.8-1.5-3.8-3.9,1.5-3.9,3.8-3.9ZM85.5,71.2c0,.3-.2.5-.4.5h-1.1c-.3,0-.4-.2-.4-.5v-7c0-.3.2-.5.4-.5h1.1c.3,0,.4.2.4.5v7ZM76.3,66.7c-.9,0-1.4,0-2.1.2-.3,0-.4-.1-.4-.4v-1c0-.3.1-.4.4-.4.6-.1,1.3-.1,2.3-.1,3.2,0,4.8,1.8,4.8,5.9s-1.5,5.9-4.6,5.9-2-.2-3.1-.7c-.3-.1-.4-.3-.4-.5l.3-1c0-.2.2-.4.3-.4s.1,0,.2,0c1,.4,1.9.6,2.6.6,1.9,0,2.8-1.3,2.8-4s-.8-4.1-2.9-4.1ZM69.7,72.1c0-.4-.2-.5-.6-.5h-1.1c-.3,0-.4-.1-.4-.4v-1c0-.3.1-.4.4-.4h1c.3,0,.6.1.7.3v-5.8c0-.3.2-.5.4-.5h1.1c.3,0,.4.2.4.5v14.1c0,.3-.2.5-.4.5h-1.1c-.3,0-.4-.2-.4-.5v-6.2ZM65,79.2c-.8,0-1.3-.5-1.3-1.2s.5-1.2,1.3-1.2,1.3.5,1.3,1.2-.5,1.2-1.3,1.2ZM49.6,75.5l.3-1c0-.2.2-.4.3-.4s.1,0,.2,0c1,.4,1.8.6,2.6.6,1.7,0,2.4-.8,2.4-2.9s-.1-4.4-.4-6.6c0-.3.1-.5.5-.5h1c.3,0,.4.1.5.4.3,2.1.4,3.9.4,6.6s-1.4,4.9-4.2,4.9-2-.2-3.1-.7c-.3-.1-.4-.3-.4-.5ZM47.5,68.2c0,.4.2.5.6.5h2.9c.3,0,.4.1.4.4v1c0,.3-.1.4-.4.4h-2.8c-.3,0-.6-.1-.7-.3v8c0,.3-.2.5-.4.5h-1.1c-.3,0-.4-.2-.4-.5v-14.1c0-.3.2-.5.4-.5h1.1c.3,0,.4.2.4.5v4ZM39.1,69.5c.4,0,.7-.2.7-.5v-2.6c0-.3-.2-.4-.4-.4h-4.5c-1.1,0-1.4.3-1.4,1.3,0,1.4.7,2.2,1.7,2.2h3.9ZM30.7,74.4c-.3,0-.4-.2-.4-.5v-.9c0-.3.2-.4.5-.4,1.3.2,3.6.3,6,.3s4.3-.1,5.9-.3c.3,0,.5.1.5.4v.9c0,.3-.1.4-.4.5-1.2.2-3.6.3-5.5.3.3.1.4.4.4.7v2.3c0,.3-.2.5-.4.5h-1.1c-.3,0-.4-.2-.4-.5v-2.6c0-.4-.2-.5-.6-.5-1.5,0-3.3-.1-4.4-.3ZM31.5,66.4c0-1.5.7-2.2,2.5-2.2h6.9c.5,0,.8.3.8.8v4.8c0,.9-.7,1.5-1.8,1.5h-8.2c-.3,0-.4-.1-.4-.4v-.9c0-.3.1-.4.4-.4h1.4c-1-.5-1.6-1.7-1.6-3.1ZM317.9,107.1c-3.9,0-5.8-1-5.8-3.1s1.9-3.1,5.8-3.1,5.8,1,5.8,3.1-1.9,3.1-5.8,3.1ZM312.9,91.7h1c.3,0,.4.1.4.4v2.6s.9,0,.9,0c.2,0,.5.1.6.3v-2.7c0-.3.1-.4.4-.4h1c.3,0,.4.1.4.4v7.1c0,.3-.1.4-.4.4h-1c-.3,0-.4-.1-.4-.4v-2.3c0-.3-.1-.5-.5-.5h-.9s0,3.1,0,3.1c0,.3-.1.4-.4.4h-1c-.3,0-.4-.1-.4-.4v-7.6c0-.3.1-.4.4-.4ZM322.4,99.9c-2,0-3.2-.9-3.2-2.5s1.1-2.5,3.2-2.5,3.2.9,3.2,2.5-1.1,2.5-3.2,2.5ZM317.9,102.7c-2.9,0-3.9.5-3.9,1.3s1,1.3,3.9,1.3,3.9-.5,3.9-1.3-1-1.3-3.9-1.3ZM321.9,91h1c.3,0,.4.1.4.4v.4c0,.2-.1.4-.3.5h2.6c.3,0,.4.1.4.4v.9c0,.3-.1.4-.4.4h-6.5c-.3,0-.4-.1-.4-.4v-.9c0-.3.1-.4.4-.4h2c.3,0,.4,0,.4-.3v-.6c0-.3.1-.4.4-.4ZM323.7,97.4c0-.5-.5-.8-1.3-.8s-1.3.3-1.3.8.5.8,1.3.8,1.3-.3,1.3-.8ZM298.6,96.4l-.3-3.8c0-.3.2-.4.4-.4h1.1c.3,0,.4.2.4.4v.6h6.5s0-.6,0-.6c0-.3.2-.4.4-.4h1.1c.3,0,.5.2.4.4l-.3,3.8c0,1-.7,1.6-1.9,1.6h-2.1s0,.9,0,.9c0,.2-.1.4-.3.5,1.7,0,3.9,0,5.2-.2.3,0,.5.1.5.4v.9c0,.3-.1.4-.4.5-1,.1-2.9.2-6,.2-2.4,0-4.8,0-6-.2-.3,0-.4-.2-.4-.5v-.9c0-.3.2-.4.5-.4,1.2.1,3.2.2,4.6.1.3,0,.4-.2.4-.4v-.9s-2.1,0-2.1,0c-1.2,0-1.9-.6-1.9-1.6ZM298.2,104.5c0-2,.9-2.7,3.2-2.7s4.7.1,7,.3c.3,0,.4.2.4.4v.9c0,.3-.1.4-.4.4-2.3-.2-4.7-.3-6.9-.3s-1.4.3-1.4,1.4,0,1,0,1.4c0,.3-.2.5-.4.5h-1c-.3,0-.5-.2-.5-.4,0-.5-.1-1-.1-2ZM300.5,94.9v.6c0,.4.3.6.8.6h4.6c.5,0,.7-.2.8-.6v-.6c0,0-6.2,0-6.2,0ZM289.8,100.3c0,1.5.7,2.3,1.8,2.3s1.8-.8,1.8-2.3-.6-2.3-1.8-2.3-1.8.8-1.8,2.3ZM291.6,96.1c2.3,0,3.7,1.5,3.7,4.2s-1.4,4.2-3.7,4.2-3.7-1.5-3.7-4.2,1.4-4.2,3.7-4.2ZM283.9,100.1c0-.4-.2-.5-.6-.5h-1.1c-.3,0-.4-.1-.4-.4v-1c0-.3.1-.4.4-.4h1c.3,0,.6.1.7.3v-5.8c0-.3.2-.5.4-.5h1.1c.3,0,.4.2.4.5v14.1c0,.3-.2.5-.4.5h-1.1c-.3,0-.4-.2-.4-.5v-6.2ZM290.5,92.8v-1.1c0-.3.1-.4.4-.4h1.1c.3,0,.4.1.4.4v.9c0,.2-.1.4-.3.5h3.1c.3,0,.4.1.4.4v1c0,.3-.1.4-.4.4h-7.6c-.3,0-.4-.1-.4-.4v-1c0-.3.1-.4.4-.4h2.4c.3,0,.4,0,.4-.3ZM273.3,96.5c0-2.6,1-3.7,3.3-3.7s2.2.1,3.6.3c.3,0,.4.2.4.5v1c0,.3-.2.5-.4.4-1.1-.2-1.9-.3-3.2-.3s-1.7.5-1.7,2c0,2.5.2,4.9.6,7.4,0,.3-.1.5-.4.5h-1.1c-.3,0-.4-.1-.5-.4-.4-2.5-.6-4.9-.6-7.6ZM270.7,97.1c0,.4.2.5.6.5h.9c.3,0,.4.1.4.4v1c0,.3-.1.4-.4.4h-.8c-.3,0-.6-.1-.7-.3v7.2c0,.3-.2.5-.4.5h-1.1c-.3,0-.4-.2-.4-.5v-14.1c0-.3.2-.5.4-.5h1.1c.3,0,.4.2.4.5v4.9ZM258.7,103.5l.3-1c0-.2.2-.4.3-.4s.1,0,.2,0c1,.4,1.8.6,2.6.6,1.7,0,2.4-.8,2.4-2.9s-.1-4.4-.4-6.6c0-.3.1-.5.5-.5h1c.3,0,.4.1.5.4.3,2.1.4,3.9.4,6.6s-1.4,4.9-4.2,4.9-2-.2-3.1-.7c-.3-.1-.4-.3-.4-.5ZM255,100.1c0-.4-.2-.5-.6-.5h-1.1c-.3,0-.4-.1-.4-.4v-1c0-.3.1-.4.4-.4h1c.3,0,.6.1.7.3v-5.8c0-.3.2-.5.4-.5h1.1c.3,0,.4.2.4.5v14.1c0,.3-.2.5-.4.5h-1.1c-.3,0-.4-.2-.4-.5v-6.2ZM234.6,106.3v-.8c0-.3.2-.4.5-.3,1.3.2,3.2.3,4.5.3,3.5,0,4.1,0,4.1-.6s-.4-.6-3.2-.6-4,0-5,0c-.2,0-.4-.1-.4-.4v-.7c0-.3.1-.4.4-.4h.6c-.7-.2-1.1-.8-1.1-1.4s.4-1.2,1.6-1.2c.8,0,1.8,0,2.9,0v-.4c0-.3-.1-.4-.4-.4-1.3,0-3.4,0-4.6-.2-.3,0-.4-.2-.4-.4v-.8c0-.3.2-.4.4-.4,1.2.1,3.6.2,6,.2,3.1,0,4.9,0,6-.2.3,0,.4.1.4.4v.8c0,.3-.1.4-.4.4-1.3.1-3.6.2-5.3.2.1,0,.2.2.2.4v.5c1.3,0,2.5.1,3.6.2.3,0,.4.1.4.4v.8c0,.3-.1.4-.4.4-1.9-.1-5.5-.2-7.2-.2s-.8.2-.8.5.2.5.8.5c.9,0,1.9,0,2.8,0,4,0,5.1.5,5.1,2.1s-1.2,2.2-6.1,2.2-3.3-.1-4.6-.3c-.3,0-.4-.2-.3-.4ZM235.4,95.7l-.3-3.1c0-.3.2-.4.4-.4h1.1c.3,0,.4.2.4.4v.4h6.5s0-.4,0-.4c0-.3.2-.4.4-.4h1.1c.3,0,.5.2.4.4l-.3,3.1c0,1-.6,1.4-1.7,1.4h-6.5c-1.1,0-1.6-.5-1.7-1.4ZM237.2,94.5v.5c0,.4.2.5.7.5h4.9c.4,0,.6-.1.6-.5v-.5s-6.2,0-6.2,0ZM224.5,107.1c-3.9,0-5.8-1-5.8-3.1s1.9-3.1,5.8-3.1,5.8,1,5.8,3.1-1.9,3.1-5.8,3.1ZM219.4,91.7h1c.3,0,.4.1.4.4v2.6s.9,0,.9,0c.2,0,.5.1.6.3v-2.7c0-.3.1-.4.4-.4h1c.3,0,.4.1.4.4v7.1c0,.3-.1.4-.4.4h-1c-.3,0-.4-.1-.4-.4v-2.3c0-.3-.1-.5-.5-.5h-.9s0,3.1,0,3.1c0,.3-.1.4-.4.4h-1c-.3,0-.4-.1-.4-.4v-7.6c0-.3.1-.4.4-.4ZM229,99.9c-2,0-3.2-.9-3.2-2.5s1.1-2.5,3.2-2.5,3.2.9,3.2,2.5-1.1,2.5-3.2,2.5ZM224.5,102.7c-2.9,0-3.9.5-3.9,1.3s1,1.3,3.9,1.3,3.9-.5,3.9-1.3-1-1.3-3.9-1.3ZM228.5,91h1c.3,0,.4.1.4.4v.4c0,.2-.1.4-.3.5h2.6c.3,0,.4.1.4.4v.9c0,.3-.1.4-.4.4h-6.5c-.3,0-.4-.1-.4-.4v-.9c0-.3.1-.4.4-.4h2c.3,0,.4,0,.4-.3v-.6c0-.3.1-.4.4-.4ZM230.3,97.4c0-.5-.5-.8-1.3-.8s-1.3.3-1.3.8.5.8,1.3.8,1.3-.3,1.3-.8ZM211.1,100.3c0,1.5.7,2.3,1.8,2.3s1.8-.8,1.8-2.3-.6-2.3-1.8-2.3-1.8.8-1.8,2.3ZM212.9,96.1c2.3,0,3.7,1.5,3.7,4.2s-1.4,4.2-3.7,4.2-3.7-1.5-3.7-4.2,1.4-4.2,3.7-4.2ZM205.3,100.1c0-.4-.2-.5-.6-.5h-1.1c-.3,0-.4-.1-.4-.4v-1c0-.3.1-.4.4-.4h1c.3,0,.6.1.7.3v-5.8c0-.3.2-.5.4-.5h1.1c.3,0,.4.2.4.5v14.1c0,.3-.2.5-.4.5h-1.1c-.3,0-.4-.2-.4-.5v-6.2ZM211.9,92.8v-1.1c0-.3.1-.4.4-.4h1.1c.3,0,.4.1.4.4v.9c0,.2-.1.4-.3.5h3.1c.3,0,.4.1.4.4v1c0,.3-.1.4-.4.4h-7.6c-.3,0-.4-.1-.4-.4v-1c0-.3.1-.4.4-.4h2.4c.3,0,.4,0,.4-.3ZM199.1,94.7v4c0,2,1.2,3.7,2.6,3.9.3,0,.4.2.4.5v1c0,.3-.1.4-.4.4-1.6-.2-3.1-1.5-3.6-3.1-.4,1.6-1.9,2.9-3.6,3.1-.3,0-.4-.1-.4-.4v-1c0-.3.1-.4.4-.5,1.4-.2,2.6-1.9,2.6-3.9v-4s-2.5,0-2.5,0c-.3,0-.4-.1-.4-.4v-1c0-.3.1-.4.4-.4h7c.3,0,.4.1.4.4v1c0,.3-.1.4-.4.4h-2.5ZM192.1,106.3c0,.3-.2.5-.4.5h-1.1c-.3,0-.4-.2-.4-.5v-14.1c0-.3.2-.5.4-.5h1.1c.3,0,.4.2.4.5v14.1ZM177.3,106.3v-1c0-.3.3-.4.5-.3.5.1,1.2.3,1.7.3s.8-.2.8-.8c0-1.2,0-2.5-.1-3.4,0-.3.1-.4.4-.4h1.1c.3,0,.5.1.5.4,0,.9.1,2.3.1,3.7s-.8,2.3-2.7,2.3-1.4-.1-2-.3c-.3,0-.4-.2-.4-.4ZM179.3,97.5c1.1,0,1.9-.8,1.9-1.9s-.7-1.9-1.9-1.9-1.9.7-1.9,1.9.7,1.9,1.9,1.9ZM173.8,104.4c-.8,0-1.1.2-1.1.6s.4.6,1.1.6,1.1-.2,1.1-.6-.4-.6-1.1-.6ZM172.9,100.3v-.4c0-.3.1-.4.4-.4h1.1c.3,0,.4.1.4.4h0c0,.4-.1.6-.3.7h2.2c.2,0,.4.1.4.4v.9c0,.2-.2.4-.4.4h-6c-.2,0-.4-.1-.4-.4v-.9c0-.2.2-.4.4-.4h1.7c.3,0,.4-.1.4-.3ZM179.3,92c2.3,0,3.8,1.4,3.8,3.6s-1.5,3.6-3.8,3.6-3.8-1.5-3.8-3.6,1.5-3.6,3.8-3.6ZM171.6,96.5c0-.4-.2-.5-.6-.5h-1.1c-.3,0-.4-.1-.4-.4v-.9c0-.3.1-.4.4-.4h1c.3,0,.6.1.7.3v-2.3c0-.3.2-.5.4-.5h1.1c.3,0,.4.2.4.5v6.3c0,.3-.2.5-.4.5h-1.1c-.3,0-.4-.2-.4-.5v-2ZM173.8,107.1c-1.9,0-2.9-.8-2.9-2.1s1-2.1,2.9-2.1,2.9.8,2.9,2.1-1,2.1-2.9,2.1ZM167,104c0,2-1.3,3.1-3.6,3.1s-5.3-.1-7-.3c-.3,0-.4-.2-.4-.4v-.9c0-.3.2-.4.5-.4,2,.2,3.9.3,7,.3s1.6-.4,1.6-1.4,0-.8-.1-1.2c0-.3.1-.5.4-.5h1c.3,0,.5.2.5.4,0,.3.1.8.1,1.3ZM168.1,99.8v.9c0,.3-.1.4-.4.5-1,.1-2.9.2-6,.2-2.4,0-4.8,0-6-.2-.3,0-.4-.2-.4-.5v-.9c0-.3.2-.4.5-.4,1.3.1,3.2.2,6,.2s4.4,0,5.9-.2c.3,0,.5.1.5.4ZM161.6,98.4c-3.7,0-5.3-1-5.3-3.2s1.6-3.2,5.3-3.2,5.3,1,5.3,3.2-1.6,3.2-5.3,3.2ZM164.9,95.2c0-1.1-.9-1.5-3.3-1.5s-3.3.4-3.3,1.5.9,1.5,3.3,1.5,3.3-.4,3.3-1.5ZM142.1,107.1c-3.7,0-5.6-1.1-5.6-3.2s1.9-3.2,5.6-3.2,5.6,1.1,5.6,3.2-1.9,3.2-5.6,3.2ZM147.9,93.9l-.2,3.8c.4,0,.8,0,1.2-.1.3,0,.4.1.4.4v.9c0,.3-.1.4-.4.4-.9.1-2.2.2-3.8.2s-3-.1-3.7-.2c-.3,0-.4-.1-.4-.4v-.9c0-.3.1-.5.4-.4.3,0,.6,0,1,0l-.2-3.7h-.7c-.3,0-.4-.1-.4-.4v-.9c0-.3.1-.4.4-.4h7.2c.3,0,.4.1.4.4v.9c0,.3-.1.4-.4.4h-.7ZM138.9,99.4c0,.3-.2.5-.4.5h-1.1c-.3,0-.4-.2-.4-.5v-7.2c0-.3.2-.5.4-.5h1.1c.3,0,.4.2.4.5v.6c0,.3.1.5.5.5h.8c.3,0,.4.1.4.4v.9c0,.3-.1.4-.4.4h-.6c-.3,0-.6-.1-.7-.3v1.4c0,.3.1.5.5.5h.8c.3,0,.4.1.4.4v.9c0,.3-.1.4-.4.4h-.6c-.3,0-.6-.1-.7-.3v1.4ZM142.1,102.4c-2.7,0-3.6.6-3.6,1.4s.9,1.4,3.6,1.4,3.6-.6,3.6-1.4-.9-1.4-3.6-1.4ZM146,93.9h-2s.2,3.8.2,3.8c.3,0,.5,0,.8,0s.5,0,.8,0l.2-3.8ZM130.7,105.1c.4,0,.7-.2.7-.5v-1.7c0-.3-.2-.4-.4-.4h-5.2c-.8,0-1.1.3-1.1,1.1s.7,1.6,1.5,1.6h4.6ZM129.3,95.6v1.5c0,.4.3.5.6.5h2c.4,0,.6-.2.6-.5v-1.5c0,0-3.2,0-3.2,0ZM122.7,102.7c0-1.3.7-2,2.1-2h7.8c.5,0,.8.3.8.8v3.9c0,.9-.7,1.5-1.8,1.5h-8.8c-.3,0-.4-.1-.4-.4v-.9c0-.3.1-.4.4-.4h1.2c-.9-.5-1.4-1.4-1.4-2.4ZM129.4,99.4c-1.2,0-1.9-.6-2-1.7l-.3-5.1c0-.3.2-.5.4-.5h1.1c.3,0,.5.1.5.4v1.2h3.5s0-1.2,0-1.2c0-.3.2-.4.5-.4h1.1c.3,0,.5.2.4.5l-.3,5.1c0,1.1-.7,1.7-2,1.7h-3ZM124.7,94.1c0,.4.2.5.6.5h.9c.3,0,.4.1.4.4v.9c0,.3-.1.4-.4.4h-.8c-.3,0-.6-.1-.7-.3v3c0,.3-.2.5-.4.5h-1.1c-.3,0-.4-.2-.4-.5v-6.8c0-.3.2-.5.4-.5h1.1c.3,0,.4.2.4.5v1.9ZM114.9,100.3c0,1.5.7,2.3,1.8,2.3s1.8-.8,1.8-2.3-.6-2.3-1.8-2.3-1.8.8-1.8,2.3ZM116.7,96.1c2.3,0,3.7,1.5,3.7,4.2s-1.4,4.2-3.7,4.2-3.7-1.5-3.7-4.2,1.4-4.2,3.7-4.2ZM109,100.1c0-.4-.2-.5-.6-.5h-1.1c-.3,0-.4-.1-.4-.4v-1c0-.3.1-.4.4-.4h1c.3,0,.6.1.7.3v-5.8c0-.3.2-.5.4-.5h1.1c.3,0,.4.2.4.5v14.1c0,.3-.2.5-.4.5h-1.1c-.3,0-.4-.2-.4-.5v-6.2ZM115.6,92.8v-1.1c0-.3.1-.4.4-.4h1.1c.3,0,.4.1.4.4v.9c0,.2-.1.4-.3.5h3.1c.3,0,.4.1.4.4v1c0,.3-.1.4-.4.4h-7.6c-.3,0-.4-.1-.4-.4v-1c0-.3.1-.4.4-.4h2.4c.3,0,.4,0,.4-.3ZM99.2,105.5c-2.7,0-4.9-.1-6-.3-.3,0-.4-.2-.4-.5v-.9c0-.3.2-.4.5-.4,1.1.1,3.4.3,5.2.3s.6-.2.6-.5v-3.9c0-.3.2-.5.4-.5h1.1c.3,0,.4.2.4.5v3.7c0,.3-.2.6-.4.7,1.4,0,3.1-.2,4.6-.3.3,0,.5.1.5.4v.9c0,.3-.1.4-.4.5-1.3.2-3.3.3-6,.3ZM98.4,94.5c-1.8,0-2.4.7-2.4,2.6s.1,2.3.3,3.2c0,.3,0,.4-.3.4l-1.2.2c-.3,0-.4,0-.5-.3-.2-1.2-.3-2.2-.3-3.9,0-2.7,1.4-4.1,4-4.1s3.9,0,5.8.3c.3,0,.4.2.4.4v1c0,.3-.2.4-.4.4-1.7-.2-3.4-.3-5.4-.3ZM82,97.5c.4,0,.7-.2.7-.5v-2.6c0-.3-.2-.4-.4-.4h-4.5c-1.1,0-1.4.3-1.4,1.3,0,1.4.7,2.2,1.7,2.2h3.9ZM73.6,102.4c-.3,0-.4-.2-.4-.5v-.9c0-.3.2-.4.5-.4,1.3.2,3.6.3,6,.3s4.3-.1,5.9-.3c.3,0,.5.1.5.4v.9c0,.3-.1.4-.4.5-1.2.2-3.6.3-5.5.3.3.1.4.4.4.7v2.3c0,.3-.2.5-.4.5h-1.1c-.3,0-.4-.2-.4-.5v-2.6c0-.4-.2-.5-.6-.5-1.5,0-3.3-.1-4.4-.3ZM74.4,94.4c0-1.5.7-2.2,2.5-2.2h6.9c.5,0,.8.3.8.8v4.8c0,.9-.7,1.5-1.8,1.5h-8.2c-.3,0-.4-.1-.4-.4v-.9c0-.3.1-.4.4-.4h1.4c-1-.5-1.6-1.7-1.6-3.1ZM63.3,98.4l.2-.7c0-.3.2-.4.5-.3,1,.3,1.9.4,2.8.4,1.8,0,2.5-.2,2.5-.9s-.7-.8-2.9-.8-1.5,0-2,.1c-.3,0-.4,0-.4-.3v-.8c0-.3.1-.4.4-.4.7,0,1.4-.2,2.2-.2,3.5,0,4.7.6,4.7,2.5s-1.3,2.4-4.4,2.4-2.2-.2-3.3-.5c-.3,0-.4-.2-.3-.5ZM59.4,106.3v-.8c0-.3.2-.4.5-.3,1.4.2,3.1.3,4.2.3,3.5,0,4,0,4-.6s-.4-.6-3.1-.6-3.6,0-4.8,0c-.3,0-.4-.1-.4-.4v-.7c0-.3.1-.4.4-.4h.6c-.7-.2-1.1-.8-1.1-1.5s.5-1.2,1.5-1.3c2.2,0,5.6,0,8.1.2.3,0,.4.1.4.4v.8c0,.3-.1.4-.4.4-1.9-.1-5.2-.2-6.9-.2s-.8.2-.8.5.3.5.9.5c.9,0,1.6,0,2.5,0,3.9,0,5,.4,5,2.1s-1.3,2.2-6,2.2-2.9-.1-4.3-.3c-.3,0-.4-.2-.4-.4ZM64.1,93.7c-.3,0-.4-.1-.4-.4v-.8c0-.3.1-.4.4-.4h6.6c.3,0,.4.1.4.4v.8c0,.3-.1.4-.4.4h-6.6ZM59.9,96.7c0-.4-.2-.5-.6-.5h-1.1c-.3,0-.4-.1-.4-.4v-.9c0-.3.1-.4.4-.4h1c.3,0,.6.1.7.3v-2.5c0-.3.2-.5.4-.5h1.1c.3,0,.4.2.4.5v6.7c0,.3-.2.5-.4.5h-1.1c-.3,0-.4-.2-.4-.5v-2.2ZM54.5,97.8c0-.7-.5-1.1-1.8-1.1s-1.8.4-1.8,1.1.5,1.1,1.8,1.1,1.8-.4,1.8-1.1ZM52.7,100.6c-2.5,0-3.7-1-3.7-2.8s1.2-2.8,3.7-2.8,3.7,1,3.7,2.8-1.2,2.8-3.7,2.8ZM45.1,98.2c0-.4-.2-.5-.6-.5h-1.1c-.3,0-.4-.1-.4-.4v-.9c0-.3.1-.4.4-.4h1c.3,0,.6.1.7.3v-4c0-.3.2-.5.4-.5h1.1c.3,0,.4.2.4.5v9.6c0,.3-.2.5-.4.5h-1.1c-.3,0-.4-.2-.4-.5v-3.6ZM51.7,92v-.6c0-.3.1-.4.4-.4h1.1c.3,0,.4.1.4.4v.4c0,.2-.1.4-.3.5h3.1c.3,0,.4.1.4.4v.9c0,.3-.1.4-.4.4h-7.6c-.3,0-.4-.1-.4-.4v-.9c0-.3.1-.4.4-.4h2.4c.3,0,.4,0,.4-.3ZM55.2,103.9c0,2-1.4,3.2-3.7,3.2s-4.7-.1-6.4-.3c-.3,0-.4-.2-.4-.4v-.9c0-.3.2-.4.5-.4,2,.2,3.5.3,6.4.3s1.7-.5,1.7-1.6,0-.9-.1-1.3c0-.3.2-.5.4-.5h1c.3,0,.4.2.5.4,0,.4.1.9.1,1.5ZM323,121.3c0-.6.4-1.1,1-1.2-.1-.3-.3-.4-.7-.4s-.2,0-.2-.2v-.4c0-.1,0-.2.2-.2,1.3,0,2.2.9,2.2,2.2s-.5,1.4-1.3,1.4-1.3-.5-1.3-1.2ZM315.7,126.7c0,3,.6,4.2,1.9,4.2s1.9-1.2,1.9-4.2-.6-4.2-1.9-4.2-1.9,1.2-1.9,4.2ZM317.5,120.6c2.6,0,3.8,1.9,3.8,6.1s-1.2,6.1-3.8,6.1-3.8-1.9-3.8-6.1,1.2-6.1,3.8-6.1ZM309.8,128.1c0-.4-.2-.5-.6-.5h-1.1c-.3,0-.4-.1-.4-.4v-1c0-.3.1-.4.4-.4h1c.3,0,.6.1.7.3v-5.8c0-.3.2-.5.4-.5h1.1c.3,0,.4.2.4.5v14.1c0,.3-.2.5-.4.5h-1.1c-.3,0-.4-.2-.4-.5v-6.2ZM304.4,120.1c.3,0,.4.1.4.4v1c0,.3-.1.4-.4.4h-3.6c0,1.9,1.6,3.3,3.8,3.3s.4.1.4.4v1.1c0,.4-.3.4-.6.4-2,0-3.9-1.1-4.6-2.7-.7,1.6-2.6,2.7-4.6,2.7s-.6,0-.6-.4v-1.1c0-.3.1-.4.4-.4,2.3,0,3.8-1.4,3.8-3.3h-3.6c-.3,0-.4-.1-.4-.4v-1c0-.3.1-.4.4-.4h9.1ZM293.9,130.4c-.3,0-.4-.2-.4-.5v-.9c0-.3.2-.4.5-.4,1.3.2,3.6.3,6,.3s4.3-.1,5.9-.3c.3,0,.5.1.5.4v.9c0,.3-.1.4-.4.5-1.2.2-3.6.3-5.5.3.3.1.4.4.4.7v2.3c0,.3-.2.5-.4.5h-1.1c-.3,0-.4-.2-.4-.5v-2.6c0-.4-.2-.5-.6-.5-1.5,0-3.3-.1-4.4-.3ZM280.4,133.5c-2.6,0-4.9-.1-6-.3-.3,0-.4-.2-.4-.5v-.9c0-.3.2-.4.5-.4,1.2.2,2.9.3,4.4.3s.6-.2.6-.5v-2.2s-1.9,0-1.9,0c-1.3,0-2-.7-2.1-1.8l-.3-6.1c0-.3.2-.4.4-.4h1.1c.3,0,.4.2.4.4v1.7c0,0,6.5,0,6.5,0v-1.7c0-.3.2-.4.5-.4h1.1c.3,0,.5.2.4.4l-.3,6.1c0,1.1-.8,1.8-2.1,1.8h-1.9s0,2,0,2c0,.3-.2.6-.4.7,1.9,0,4.2-.2,5.4-.3.3,0,.5.1.5.4v.9c0,.3-.1.4-.4.5-1.3.2-3.3.3-6,.3ZM277.2,124.6v1.9c0,.5.4.7.8.7h4.6c.5,0,.7-.2.8-.7v-1.9c0,0-6.2,0-6.2,0ZM265.6,122.3c4.1,0,5.2.5,5.2,2s-.8,2-4.3,2.1v.5c0,.2-.1.4-.3.5,1.7,0,4,0,5.3-.2.3,0,.4.1.4.4v.8c0,.3-.1.4-.4.4-1,.1-2.9.2-6,.2-2.4,0-4.8,0-6.1-.2-.3,0-.4-.2-.4-.4v-.8c0-.3.1-.4.4-.4,1.2.1,3.3.2,4.6.1.3,0,.4-.2.4-.4v-.6c-1.4,0-2.7,0-3.9-.2-.3,0-.4-.2-.4-.4v-.8c0-.3.2-.4.5-.3,1.1.2,2.7.2,4.8.2s3.3-.1,3.3-.6-.5-.5-3.1-.5-2.9,0-4.7.1c-.3,0-.4-.1-.4-.4v-.8c0-.3,0-.4.3-.4,1.1,0,2.7-.1,4.6-.1ZM265.5,135.1c-3.8,0-5.6-.8-5.6-2.7s1.8-2.7,5.6-2.7,5.6.8,5.6,2.7-1.8,2.7-5.6,2.7ZM270.7,120.5v.7c0,.3-.1.4-.4.4h-9.3c-.3,0-.4-.1-.4-.4v-.7c0-.3.1-.4.4-.4h9.3c.3,0,.4.1.4.4ZM265.5,131.3c-2.6,0-3.6.3-3.6,1.1s1.1,1.1,3.6,1.1,3.6-.3,3.6-1.1-1-1.1-3.6-1.1ZM253.3,132c1.6,0,2.9-.1,4-.3.3,0,.5,0,.5.4v1c0,.3-.1.4-.4.4-1.1.2-2.4.3-4.1.3s-3.2,0-4.4-.2c-.3,0-.4-.2-.4-.5v-1c0-.3.2-.4.4-.4,1.1.2,2.7.3,4.3.3ZM253.2,129.5c-2.3,0-3.8-1.8-3.8-4.6s1.5-4.6,3.8-4.6,3.8,1.8,3.8,4.6-1.5,4.6-3.8,4.6ZM255.1,124.9c0-1.6-.7-2.8-1.9-2.8s-1.9,1.1-1.9,2.8.7,2.8,1.9,2.8,1.9-1.1,1.9-2.8ZM245.5,120.2c0-.3.2-.5.4-.5h1.1c.3,0,.4.2.4.5v14.1c0,.3-.2.5-.4.5h-1.1c-.3,0-.4-.2-.4-.5v-14.1ZM232.9,128.3c0,1.5.7,2.3,1.8,2.3s1.8-.8,1.8-2.3-.6-2.3-1.8-2.3-1.8.8-1.8,2.3ZM234.7,124.1c2.3,0,3.7,1.5,3.7,4.2s-1.4,4.2-3.7,4.2-3.7-1.5-3.7-4.2,1.4-4.2,3.7-4.2ZM227,128.1c0-.4-.2-.5-.6-.5h-1.1c-.3,0-.4-.1-.4-.4v-1c0-.3.1-.4.4-.4h1c.3,0,.6.1.7.3v-5.8c0-.3.2-.5.4-.5h1.1c.3,0,.4.2.4.5v14.1c0,.3-.2.5-.4.5h-1.1c-.3,0-.4-.2-.4-.5v-6.2ZM233.6,120.8v-1.1c0-.3.1-.4.4-.4h1.1c.3,0,.4.1.4.4v.9c0,.2-.1.4-.3.5h3.1c.3,0,.4.1.4.4v1c0,.3-.1.4-.4.4h-7.6c-.3,0-.4-.1-.4-.4v-1c0-.3.1-.4.4-.4h2.4c.3,0,.4,0,.4-.3ZM211.1,130.6c-.3,0-.4-.2-.4-.5v-.9c0-.3.2-.4.5-.4,1.3.2,3.6.3,6,.3s4.3-.1,5.9-.3c.3,0,.5.1.5.4v.9c0,.3-.1.4-.4.5-1.2.2-3.6.3-5.5.3.3.1.4.4.4.7v2.2c0,.3-.2.5-.4.5h-1.1c-.3,0-.4-.2-.4-.5v-2.4c0-.4-.2-.5-.6-.5-1.5,0-3.3-.1-4.4-.3ZM211.9,121.6c0-.9.7-1.4,1.9-1.4,4,0,6.2,0,7.6.3.2,0,.3.2.3.4v1c0,.3-.2.4-.4.4-1.8-.2-3.8-.3-6.4-.3s-1.1.2-1.1.6.3.5,1.1.5h2.1c4,0,5,.5,5,2.3s-1.1,2.4-6,2.4-2.9-.1-4.3-.3c-.2,0-.4-.2-.3-.4l.2-.9c0-.3.2-.4.4-.3,1.2.2,2.7.3,4,.3,3.3,0,4,0,4-.6s-.5-.6-3.1-.6-3.1,0-4.6,0-.4-.2-.4-.4v-.8c0-.2.1-.4.4-.4h.7c-.8-.3-1.3-.8-1.3-1.6ZM203.7,119.5c-.2-.2,0-.4.3-.4h1.1c.3,0,.4,0,.6.3,1.6,2.3,2.5,5,2.5,8s-.9,5.6-2.5,8c-.2.2-.3.3-.6.3h-1.1c-.3,0-.5-.2-.3-.4,1.8-2.7,2.6-5.1,2.6-7.9,0-2.8-.8-5.2-2.6-7.9ZM189.7,134.3v-.8c0-.3.2-.4.5-.3,1.3.2,3.2.3,4.5.3,3.5,0,4.1,0,4.1-.6s-.4-.6-3.2-.6-4,0-5,0c-.2,0-.4-.1-.4-.4v-.7c0-.3.1-.4.4-.4h.6c-.7-.2-1.1-.8-1.1-1.4s.4-1.2,1.6-1.2c.8,0,1.8,0,2.9,0v-.4c0-.3-.1-.4-.4-.4-1.3,0-3.4,0-4.6-.2-.3,0-.4-.2-.4-.4v-.8c0-.3.2-.4.4-.4,1.2.1,3.6.2,6,.2,3.1,0,4.9,0,6-.2.3,0,.4.1.4.4v.8c0,.3-.1.4-.4.4-1.3.1-3.6.2-5.3.2.1,0,.2.2.2.4v.5c1.3,0,2.5.1,3.6.2.3,0,.4.1.4.4v.8c0,.3-.1.4-.4.4-1.9-.1-5.5-.2-7.2-.2s-.8.2-.8.5.2.5.9.5c.9,0,1.9,0,2.8,0,4,0,5.1.5,5.1,2.1s-1.2,2.2-6.1,2.2-3.3-.1-4.6-.3c-.3,0-.4-.2-.3-.4ZM195.4,123.2c-.7,1.2-2.7,2-4.8,1.9-.3,0-.4-.1-.4-.4v-.9c0-.3.1-.4.4-.4,2.3,0,3.7-.7,3.8-1.7h-3.6c-.3,0-.4-.1-.4-.4v-.8c0-.3.1-.4.4-.4h9.2c.3,0,.4.1.4.4v.8c0,.3-.1.4-.4.4h-3.6c.1,1,1.6,1.7,3.8,1.7s.4.1.4.4v.9c0,.3-.1.4-.4.4-2.1.1-4.1-.7-4.8-1.9ZM181.7,126.7c0,3,.5,4.2,1.8,4.2s1.8-1.2,1.8-4.2-.5-4.2-1.8-4.2-1.8,1.2-1.8,4.2ZM183.5,120.6c2.6,0,3.7,1.9,3.7,6.1s-1.1,6.1-3.7,6.1-3.7-1.9-3.7-6.1,1.1-6.1,3.7-6.1ZM177.9,122.9h.9c.3,0,.4.1.4.4v1c0,.3-.1.4-.4.4h-.8c-.3,0-.6-.1-.7-.3v3.2c0,.4.2.5.6.5h.9c.3,0,.4.1.4.4v1c0,.3-.1.4-.4.4h-.8c-.3,0-.6-.1-.7-.3v4.6c0,.3-.2.5-.4.5h-1.1c-.3,0-.4-.2-.4-.5v-14.1c0-.3.2-.5.4-.5h1.1c.3,0,.4.2.4.5v2.2c0,.4.2.5.6.5ZM165.7,132.5c-.3,0-.4-.1-.4-.4v-1c0-.3.1-.4.4-.5,1.4-.2,2.6-1.9,2.6-3.9v-5.5c0-.3.2-.5.4-.5h1.1c.3,0,.4.2.4.5v5.5c0,2,1.2,3.7,2.6,3.9.3,0,.4.2.4.5v1c0,.3-.1.4-.4.4-1.6-.2-3.1-1.5-3.6-3.1-.4,1.6-1.9,2.9-3.6,3.1ZM163.2,124.2c0,.4.2.5.6.5h1.9c.3,0,.4.1.4.4v1c0,.3-.1.4-.4.4h-1.8c-.3,0-.6-.1-.7-.3v8c0,.3-.2.5-.4.5h-1.1c-.3,0-.4-.2-.4-.5v-14.1c0-.3.2-.5.4-.5h1.1c.3,0,.4.2.4.5v4ZM148.6,126.7c0,3,.6,4.2,1.9,4.2s1.9-1.2,1.9-4.2-.6-4.2-1.9-4.2-1.9,1.2-1.9,4.2ZM150.5,120.6c2.6,0,3.8,1.9,3.8,6.1s-1.2,6.1-3.8,6.1-3.8-1.9-3.8-6.1,1.2-6.1,3.8-6.1ZM142.7,128.1c0-.4-.2-.5-.6-.5h-1.1c-.3,0-.4-.1-.4-.4v-1c0-.3.1-.4.4-.4h1c.3,0,.6.1.7.3v-5.8c0-.3.2-.5.4-.5h1.1c.3,0,.4.2.4.5v14.1c0,.3-.2.5-.4.5h-1.1c-.3,0-.4-.2-.4-.5v-6.2ZM132.9,133.5c-2.6,0-4.9-.1-6-.3-.3,0-.4-.2-.4-.5v-.9c0-.3.2-.4.5-.4,1.2.2,2.9.3,4.4.3s.6-.2.6-.5v-2.2s-1.9,0-1.9,0c-1.3,0-2-.7-2.1-1.8l-.3-6.1c0-.3.2-.4.4-.4h1.1c.3,0,.4.2.4.4v1.7c0,0,6.5,0,6.5,0v-1.7c0-.3.2-.4.5-.4h1.1c.3,0,.5.2.4.4l-.3,6.1c0,1.1-.8,1.8-2.1,1.8h-1.9s0,2,0,2c0,.3-.2.6-.4.7,1.9,0,4.2-.2,5.4-.3.3,0,.5.1.5.4v.9c0,.3-.1.4-.4.5-1.3.2-3.3.3-6,.3ZM129.7,124.6v1.9c0,.5.4.7.9.7h4.6c.5,0,.7-.2.8-.7v-1.9c0,0-6.2,0-6.2,0ZM119,128.3c0,1.5.7,2.3,1.8,2.3s1.8-.8,1.8-2.3-.6-2.3-1.8-2.3-1.8.8-1.8,2.3ZM120.8,124.1c2.3,0,3.7,1.5,3.7,4.2s-1.4,4.2-3.7,4.2-3.7-1.5-3.7-4.2,1.4-4.2,3.7-4.2ZM113.2,128.1c0-.4-.2-.5-.6-.5h-1.1c-.3,0-.4-.1-.4-.4v-1c0-.3.1-.4.4-.4h1c.3,0,.6.1.7.3v-5.8c0-.3.2-.5.4-.5h1.1c.3,0,.4.2.4.5v14.1c0,.3-.2.5-.4.5h-1.1c-.3,0-.4-.2-.4-.5v-6.2ZM119.8,120.8v-1.1c0-.3.1-.4.4-.4h1.1c.3,0,.4.1.4.4v.9c0,.2-.1.4-.3.5h3.1c.3,0,.4.1.4.4v1c0,.3-.1.4-.4.4h-7.6c-.3,0-.4-.1-.4-.4v-1c0-.3.1-.4.4-.4h2.4c.3,0,.4,0,.4-.3ZM109.8,135.2c.2.2,0,.4-.3.4h-1.1c-.3,0-.4,0-.6-.3-1.6-2.3-2.5-5-2.5-8s.9-5.6,2.5-8c.2-.2.3-.3.6-.3h1.1c.3,0,.5.2.3.4-1.8,2.7-2.6,5.1-2.6,7.9s.8,5.2,2.6,7.9ZM102.9,120.2c0,.6-.4,1.1-1,1.2.1.3.3.4.7.4s.2,0,.2.2v.4c0,.1,0,.2-.2.2-1.3,0-2.2-.8-2.2-2.2s.5-1.4,1.3-1.4,1.3.5,1.3,1.2ZM86.3,134.4v-.7c0-.3.2-.4.4-.3,1.2.2,3.2.3,4.5.3,3.7,0,4.1-.1,4.1-.5s-.4-.5-3.2-.5-4.1,0-5,0c-.2,0-.4-.1-.4-.4v-.8c0-.2.1-.2.4-.2h.6c-.7-.2-1.1-.7-1.1-1.4s.4-1.1,1.6-1.1c2.2,0,5.9,0,8.4.2.3,0,.4.1.4.4v.7c0,.3-.1.4-.4.4-1.8-.1-5.4-.2-7.3-.2s-.8.1-.8.4.2.4.8.4c.9,0,1.9,0,2.8,0,4.1,0,5.1.4,5.1,2s-1,2-6.1,2-3.4-.1-4.6-.3c-.3,0-.3-.1-.3-.4ZM92.1,126.6c2,0,4.4,0,6-.2.3,0,.4.1.4.4v.7c0,.3-.1.4-.4.4-1,.1-2.9.2-6,.2-2.4,0-4.9,0-6.1-.2-.3,0-.4-.2-.4-.4v-.7c0-.3.1-.4.4-.4,1.3.1,3.3.2,6.1.2ZM87.1,123.4v-.7c0-.2.1-.3.3-.3h.7c-.7-.2-1.1-.7-1.1-1.3s.4-1,1.6-1c2.2,0,5.4,0,7.9.2.3,0,.3.1.3.3v.7c0,.2,0,.4-.3.3-1.8-.1-4.9-.2-6.8-.2s-.8,0-.8.4.2.4.9.4c.9,0,1.6,0,2.5,0,3.8,0,4.9.3,4.9,1.8s-1,1.8-5.8,1.8-3.2-.1-4.4-.3c-.3,0-.3-.1-.3-.4v-.7c0-.2.2-.3.4-.3,1.2.2,3,.3,4.3.3,3.4,0,3.9,0,3.9-.5s-.4-.4-2.9-.4-3.9,0-4.8,0c-.2,0-.3,0-.3-.3ZM76.9,123.2c0-.9-.7-1.5-1.9-1.5s-1.9.5-1.9,1.5.7,1.5,1.9,1.5,1.9-.5,1.9-1.5ZM79.7,127.5v1c0,.3-.1.4-.4.4-.8,0-2.4.1-3.7.1.2,0,.3.2.3.5v1.4c0,.3-.2.5-.4.5h-1.1c-.3,0-.4-.2-.4-.5v-1.5c0-.3-.2-.4-.5-.4-1.2,0-2.2,0-2.9,0-.3,0-.4-.2-.4-.5v-1c0-.3.2-.4.4-.4,1.1,0,2.9.1,4.5.1s3.1,0,4.2-.1c.3,0,.5,0,.5.4ZM75,126.4c-2.4,0-3.8-1.2-3.8-3.2s1.4-3.2,3.8-3.2,3.8,1.2,3.8,3.2-1.4,3.2-3.8,3.2ZM69.2,129.1c0,.4.2.5.6.5h2.2c.3,0,.4.1.4.4v.9c0,.3-.1.4-.4.4h-2.1c-.3,0-.6-.1-.7-.3v.4c0,.3-.2.5-.4.5h-1.1c-.3,0-.4-.2-.4-.5v-11.3c0-.3.2-.5.4-.5h1.1c.3,0,.4.2.4.5v8.9ZM78.4,132c0,2-1.3,3.1-3.6,3.1s-5.8-.1-7.5-.3c-.3,0-.4-.2-.4-.4v-.9c0-.3.2-.4.5-.4,2,.2,4.3.3,7.5.3s1.6-.4,1.6-1.4,0-.8-.1-1.2c0-.3.1-.5.4-.5h1c.3,0,.5.2.5.4,0,.3.1.8.1,1.3ZM62.9,125.8c0-.7-.5-1.1-1.8-1.1s-1.8.4-1.8,1.1.5,1.1,1.8,1.1,1.8-.4,1.8-1.1ZM61.2,128.6c-2.5,0-3.7-1-3.7-2.8s1.2-2.8,3.7-2.8,3.7,1,3.7,2.8-1.2,2.8-3.7,2.8ZM53.5,126.2c0-.4-.2-.5-.6-.5h-1.1c-.3,0-.4-.1-.4-.4v-.9c0-.3.1-.4.4-.4h1c.3,0,.6.1.7.3v-4c0-.3.2-.5.4-.5h1.1c.3,0,.4.2.4.5v9.6c0,.3-.2.5-.4.5h-1.1c-.3,0-.4-.2-.4-.5v-3.6ZM60.1,120v-.6c0-.3.1-.4.4-.4h1.1c.3,0,.4.1.4.4v.4c0,.2-.1.4-.3.5h3.1c.3,0,.4.1.4.4v.9c0,.3-.1.4-.4.4h-7.6c-.3,0-.4-.1-.4-.4v-.9c0-.3.1-.4.4-.4h2.4c.3,0,.4,0,.4-.3ZM63.6,131.9c0,2-1.4,3.2-3.7,3.2s-4.7-.1-6.4-.3c-.3,0-.4-.2-.4-.4v-.9c0-.3.2-.4.5-.4,2,.2,3.5.3,6.4.3s1.7-.5,1.7-1.6,0-.9-.1-1.3.2-.5.4-.5h1c.3,0,.4.2.5.4,0,.4.1.9.1,1.5ZM45.3,122.7c-.9,0-1.4,0-2.1.2-.3,0-.4-.1-.4-.4v-1c0-.3.1-.4.4-.4.6-.1,1.3-.1,2.3-.1,3.2,0,4.8,1.8,4.8,5.9s-1.5,5.9-4.6,5.9-2-.2-3.1-.7c-.3-.1-.4-.3-.4-.5l.3-1c0-.2.2-.4.3-.4s.1,0,.2,0c1,.4,1.9.6,2.6.6,1.9,0,2.8-1.3,2.8-4s-.8-4.1-2.9-4.1ZM38.7,128.1c0-.4-.2-.5-.6-.5h-1.1c-.3,0-.4-.1-.4-.4v-1c0-.3.1-.4.4-.4h1c.3,0,.6.1.7.3v-5.8c0-.3.2-.5.4-.5h1.1c.3,0,.4.2.4.5v14.1c0,.3-.2.5-.4.5h-1.1c-.3,0-.4-.2-.4-.5v-6.2ZM34,135.2c-.8,0-1.3-.5-1.3-1.2s.5-1.2,1.3-1.2,1.3.5,1.3,1.2-.5,1.2-1.3,1.2ZM322.7,150.7v4c0,2,1.2,3.7,2.6,3.9.3,0,.4.2.4.5v1c0,.3-.1.4-.4.4-1.6-.2-3.1-1.5-3.6-3.1-.4,1.6-1.9,2.9-3.6,3.1-.3,0-.4-.1-.4-.4v-1c0-.3.1-.4.4-.5,1.4-.2,2.6-1.9,2.6-3.9v-4s-2.5,0-2.5,0c-.3,0-.4-.1-.4-.4v-1c0-.3.1-.4.4-.4h7c.3,0,.4.1.4.4v1c0,.3-.1.4-.4.4h-2.5ZM314.1,156.1c0-.4-.2-.5-.6-.5h-1.1c-.3,0-.4-.1-.4-.4v-1c0-.3.1-.4.4-.4h1c.3,0,.6.1.7.3v-5.8c0-.3.2-.5.4-.5h1.1c.3,0,.4.2.4.5v14.1c0,.3-.2.5-.4.5h-1.1c-.3,0-.4-.2-.4-.5v-6.2ZM302.7,154.7l.2-.9c0-.2.2-.3.3-.3s.1,0,.2,0c.8.3,2.1.5,2.9.5,1.9,0,2.4-.1,2.4-.7s-.6-.7-2.9-.7-1.4,0-2.2,0c-.3,0-.4-.1-.4-.4v-.8c0-.3.1-.4.4-.4h.4c-.6-.3-.9-.8-.9-1.5,0-1.1.8-1.5,3-1.5,1.5,0,2.5,0,3.6.2.3,0,.4.2.4.4v.9c0,.3-.2.4-.4.4-1.3-.2-2.6-.2-3.2-.2-1,0-1.4.1-1.4.5s.4.6,1.3.6c3.2,0,4.3.6,4.3,2.4s-1.1,2.5-3.9,2.5-2.9-.3-3.8-.6c-.3-.1-.4-.3-.3-.5ZM304.3,158.7c-2.6,0-3.4.4-3.4,1.3s.8,1.3,3.4,1.3,3.4-.4,3.4-1.3-.8-1.3-3.4-1.3ZM299.3,153.1c0-.4-.2-.5-.6-.5h-1.1c-.3,0-.4-.1-.4-.4v-.9c0-.3.1-.4.4-.4h1c.3,0,.6.1.7.3v-2.9c0-.3.2-.5.4-.5h1.1c.3,0,.4.2.4.5v7.5c0,.3-.2.5-.4.5h-1.1c-.3,0-.4-.2-.4-.5v-2.6ZM304.3,163.1c-3.6,0-5.4-.9-5.4-3.1s1.8-3.1,5.4-3.1,5.4.9,5.4,3.1-1.8,3.1-5.4,3.1ZM289.3,157.1c-3.4,0-5.3-1.6-5.3-4.3s1.9-4.3,5.3-4.3,5.3,1.6,5.3,4.3-1.9,4.3-5.3,4.3ZM292.6,152.8c0-1.6-1.1-2.5-3.3-2.5s-3.3.9-3.3,2.5,1.2,2.5,3.3,2.5,3.3-.9,3.3-2.5ZM295.8,159.8v.9c0,.3-.1.4-.4.5-1.3.2-3.3.3-6,.3s-4.9-.1-6-.3c-.3,0-.4-.2-.4-.5v-.9c0-.3.2-.4.5-.4,1.3.2,3.6.3,6,.3s4.3-.1,5.9-.3c.3,0,.5.1.5.4ZM274.6,161.5c-2.6,0-4.9-.1-6-.3-.3,0-.4-.2-.4-.5v-.9c0-.3.2-.4.5-.4,1.2.2,2.9.3,4.4.3s.6-.2.6-.5v-1.9s0,0,0,0c-1.2,0-2.9-.1-4.3-.3-.2,0-.4-.2-.3-.4l.2-1c0-.3.2-.4.4-.3,1.2.2,2.7.3,4,.3,3.3,0,4-.2,4-.9s-.7-.9-3.1-.9-3.1,0-4.6,0-.4-.2-.4-.4v-.9c0-.2.1-.4.4-.4h.8c-.8-.3-1.3-1-1.3-1.9s.6-1.6,1.9-1.6c.6,0,1.3,0,2,0,2,0,4.1.1,5.5.3.2,0,.3.2.3.4v1c0,.3-.2.4-.4.4-1.7-.2-4.2-.3-6.4-.3s-1.1.2-1.1.7.4.8,1.1.8h2.1c3.9,0,5,.6,5,2.6s-.9,2.6-4,2.7v1.8c0,.3-.2.6-.4.7,1.9,0,4.2-.2,5.4-.3.3,0,.5.1.5.4v.9c0,.3-.1.4-.4.5-1.3.2-3.3.3-6,.3ZM254,152.5c0-2.6,1-3.7,3.3-3.7s2.4.1,3.7.3c.3,0,.4.2.4.5v1c0,.3-.2.5-.4.4-1.1-.2-2.1-.3-3.3-.3s-1.7.5-1.7,2c0,2.5.2,4.9.6,7.4,0,.3-.1.5-.4.5h-1.1c-.3,0-.4-.1-.5-.4-.4-2.5-.6-4.9-.6-7.6ZM250.2,156.1c0-.4-.2-.5-.6-.5h-1.1c-.3,0-.4-.1-.4-.4v-1c0-.3.1-.4.4-.4h1c.3,0,.6.1.7.3v-5.8c0-.3.2-.5.4-.5h1.1c.3,0,.4.2.4.5v14.1c0,.3-.2.5-.4.5h-1.1c-.3,0-.4-.2-.4-.5v-6.2ZM234.8,160.5c0-2,.8-2.7,3.2-2.7s4.7.1,7,.3c.3,0,.4.2.4.4v.9c0,.3-.1.4-.4.4-2.3-.2-4.7-.3-6.9-.3s-1.4.3-1.4,1.4,0,1,0,1.4c0,.3-.2.5-.4.5h-1c-.3,0-.5-.2-.5-.4,0-.5-.1-1-.1-2ZM246.7,155.4v.9c0,.3-.1.4-.4.5-1,.1-2.9.2-6,.2-2.4,0-4.8,0-6-.2-.3,0-.4-.2-.4-.5v-.9c0-.3.2-.4.5-.4,1.3.1,3.2.2,6,.2s4.4,0,5.9-.2c.3,0,.5.1.5.4ZM235.4,149.6v-.9c0-.3.1-.4.4-.4,2.1-.1,2.9-.2,3.9-.2,4.4,0,5.9.8,5.9,2.9s-1.5,3-5.7,3-2.5-.1-4.4-.3c-.3,0-.4-.2-.4-.4v-.9c0-.3.2-.4.5-.4,1.5.2,3.1.3,4.5.3,2.7,0,3.5-.3,3.5-1.2s-.9-1.2-3.9-1.2-1.9,0-3.9.2c-.3,0-.4-.1-.4-.4ZM230,153.8c0-.7-.5-1.1-1.8-1.1s-1.8.4-1.8,1.1.5,1.1,1.8,1.1,1.8-.4,1.8-1.1ZM228.2,156.6c-2.5,0-3.7-1-3.7-2.8s1.2-2.8,3.7-2.8,3.7,1,3.7,2.8-1.2,2.8-3.7,2.8ZM220.6,154.2c0-.4-.2-.5-.6-.5h-1.1c-.3,0-.4-.1-.4-.4v-.9c0-.3.1-.4.4-.4h1c.3,0,.6.1.7.3v-4c0-.3.2-.5.4-.5h1.1c.3,0,.4.2.4.5v9.6c0,.3-.2.5-.4.5h-1.1c-.3,0-.4-.2-.4-.5v-3.6ZM227.2,148v-.6c0-.3.1-.4.4-.4h1.1c.3,0,.4.1.4.4v.4c0,.2-.1.4-.3.5h3.1c.3,0,.4.1.4.4v.9c0,.3-.1.4-.4.4h-7.6c-.3,0-.4-.1-.4-.4v-.9c0-.3.1-.4.4-.4h2.4c.3,0,.4,0,.4-.3ZM230.6,159.9c0,2-1.4,3.2-3.7,3.2s-4.7-.1-6.4-.3c-.3,0-.4-.2-.4-.4v-.9c0-.3.2-.4.5-.4,2,.2,3.5.3,6.4.3s1.7-.5,1.7-1.6,0-.9-.1-1.3c0-.3.2-.5.4-.5h1c.3,0,.4.2.5.4,0,.4.1.9.1,1.5ZM205.9,161.5c-2.6,0-4.9-.1-6-.3-.3,0-.4-.2-.4-.5v-.9c0-.3.2-.4.5-.4,1.2.2,2.9.3,4.4.3s.6-.2.6-.5v-2.1c0-.3.2-.5.4-.5h1.1c.3,0,.4.2.4.5v2c0,.3-.2.6-.4.7,1.9,0,4.2-.2,5.4-.3.3,0,.5.1.5.4v.9c0,.3-.1.4-.4.5-1.3.2-3.3.3-6,.3ZM201.2,156.9c-.3,0-.6,0-.6-.4v-1.1c0-.3.1-.4.4-.4,2.3,0,3.8-1.5,3.8-3.6v-2.4c0-.3.2-.5.4-.5h1.1c.3,0,.4.2.4.5v2.4c0,2.1,1.6,3.6,3.8,3.6s.4.1.4.4v1.1c0,.4-.3.4-.6.4-2,0-3.9-1.2-4.7-2.8-.7,1.7-2.6,2.8-4.6,2.8ZM185.4,162.3v-.8c0-.3.2-.4.5-.3,1.4.2,3.2.3,4.4.3,3.5,0,4.2,0,4.2-.6s-.5-.6-3.3-.6-3.7,0-4.9,0c-.3,0-.4-.1-.4-.4v-.8c0-.3.1-.4.4-.4h.6c-.7-.2-1.1-.8-1.1-1.5s.5-1.3,1.5-1.4c2.2,0,5.9,0,8.4.2.3,0,.4.1.4.4v.9c0,.3-.1.4-.4.4-1.9-.1-5.5-.2-7.2-.2s-.8.2-.8.6.3.5.9.5c.9,0,1.8,0,2.7,0,3.9,0,5.2.5,5.2,2.2s-1.3,2.3-6.2,2.3-3.1-.1-4.5-.3c-.3,0-.4-.2-.4-.4ZM193.3,148.1h1.1c.3,0,.4.2.4.5v1.5c0,1.7,1.1,3,2.6,3s.4.1.4.4v.9c0,.3-.1.4-.4.4-1.8,0-3.1-1.2-3.6-2.4-.5,1.2-1.8,2.4-3.6,2.4s-.4-.1-.4-.4v-.9c0-.3.1-.4.4-.4,1.5,0,2.6-1.3,2.6-3v-1.5c0-.3.2-.5.4-.5ZM187.8,154.5c0,.3-.2.5-.4.5h-1.1c-.3,0-.4-.2-.4-.5v-6.3c0-.3.2-.5.4-.5h1.1c.3,0,.4.2.4.5v.3c0,.3,0,.4.4.4h1.5c.3,0,.4.1.4.4v.8c0,.3-.1.4-.4.4h-1.2c-.3,0-.6-.1-.7-.3v.7c0,.3,0,.4.4.4h1.5c.3,0,.4.1.4.4v.8c0,.3-.1.4-.4.4h-1.2c-.3,0-.6-.1-.7-.3v2.1ZM180.8,158.6c.4,0,.7-.2.7-.5v-7c0-.3-.2-.4-.4-.4h-1.4c-1.3,0-1.7.9-1.7,3.8s.7,4.2,1.9,4.2h1ZM182.7,148.8c.5,0,.8.3.8.8v9.4c0,.9-.7,1.5-1.8,1.5h-5.2c-.3,0-.4-.1-.4-.4v-1c0-.3.1-.4.4-.4h1.1c-1-1.1-1.6-3.1-1.6-5.6s.8-4.2,3.2-4.2h3.5ZM173.7,162.3c0,.3-.2.5-.4.5h-1.1c-.3,0-.4-.2-.4-.5v-14.1c0-.3.2-.5.4-.5h1.1c.3,0,.4.2.4.5v14.1ZM164.5,150.7c-.9,0-1.4,0-2.1.2-.3,0-.4-.1-.4-.4v-1c0-.3.1-.4.4-.4.6-.1,1.3-.1,2.3-.1,3.2,0,4.8,1.8,4.8,5.9s-1.5,5.9-4.6,5.9-2-.2-3.1-.7c-.3-.1-.4-.3-.4-.5l.3-1c0-.2.2-.4.3-.4s.1,0,.2,0c1,.4,1.9.6,2.6.6,1.9,0,2.8-1.3,2.8-4s-.8-4.1-2.9-4.1ZM159.6,162.3c0,.3-.2.5-.4.5h-1.1c-.3,0-.4-.2-.4-.5v-14.1c0-.3.2-.5.4-.5h1.1c.3,0,.4.2.4.5v14.1ZM149.9,154.7c0,3,.5,4.2,1.8,4.2s1.8-1.2,1.8-4.2-.5-4.2-1.8-4.2-1.8,1.2-1.8,4.2ZM151.7,148.6c2.6,0,3.7,1.9,3.7,6.1s-1.1,6.1-3.7,6.1-3.7-1.9-3.7-6.1,1.1-6.1,3.7-6.1ZM145.5,153.1c0,.4.2.5.6.5h.9c.3,0,.4.1.4.4v1c0,.3-.1.4-.4.4h-.8c-.3,0-.6-.1-.7-.3v7.2c0,.3-.2.5-.4.5h-1.1c-.3,0-.4-.2-.4-.5v-14.1c0-.3.2-.5.4-.5h1.1c.3,0,.4.2.4.5v4.9ZM133.4,155.5c-.2,0-.5-.1-.6-.3v7.2c0,.3-.1.4-.4.4h-1c-.3,0-.4-.1-.4-.4v-14c0-.3.1-.4.4-.4h1c.3,0,.4.1.4.4v4.8c0,.3.1.5.5.5h1.4c.2-3.4,1.3-5,3.4-5s3.4,1.9,3.4,6.1-1.1,6.1-3.4,6.1-3.2-1.7-3.4-5.3h-1.3ZM128.4,147.7h1c.3,0,.4.1.4.4v14.2c0,.3-.1.4-.4.4h-1c-.3,0-.4-.1-.4-.4v-14.2c0-.3.1-.4.4-.4ZM136.6,154.7c0,3,.5,4.2,1.5,4.2s1.5-1.3,1.5-4.2-.5-4.2-1.5-4.2-1.5,1.2-1.5,4.2ZM118.1,150.7v4c0,2,1.2,3.7,2.6,3.9.3,0,.4.2.4.5v1c0,.3-.1.4-.4.4-1.6-.2-3.1-1.5-3.6-3.1-.4,1.6-1.9,2.9-3.6,3.1-.3,0-.4-.1-.4-.4v-1c0-.3.1-.4.4-.5,1.4-.2,2.6-1.9,2.6-3.9v-4s-2.5,0-2.5,0c-.3,0-.4-.1-.4-.4v-1c0-.3.1-.4.4-.4h7c.3,0,.4.1.4.4v1c0,.3-.1.4-.4.4h-2.5ZM111.1,162.3c0,.3-.2.5-.4.5h-1.1c-.3,0-.4-.2-.4-.5v-14.1c0-.3.2-.5.4-.5h1.1c.3,0,.4.2.4.5v14.1ZM101.9,148.3v-.8c0-.3.1-.4.4-.4h1.1c.3,0,.4.1.4.4v.7c0,.2-.1.4-.3.5h2.8c.3,0,.4.1.4.4v.9c0,.3-.1.4-.4.4h-2.5s0,.7,0,.7c0,1.9,1.1,3.3,2.6,3.3s.4.1.4.4v.9c0,.3-.1.4-.4.4-1.8,0-3.1-1.2-3.6-2.5-.5,1.3-1.8,2.5-3.6,2.5s-.4-.1-.4-.4v-.9c0-.3.1-.4.4-.4,1.5,0,2.6-1.4,2.6-3.3v-.7s-2.5,0-2.5,0c-.3,0-.4-.1-.4-.4v-.9c0-.3.1-.4.4-.4h2.1c.3,0,.4,0,.4-.3ZM105.4,159.9c0,2-1.4,3.2-3.7,3.2s-5-.1-6.7-.3c-.3,0-.4-.2-.4-.4v-.9c0-.3.2-.4.5-.4,2,.2,3.7.3,6.7.3s1.7-.5,1.7-1.6,0-1.3-.1-1.7.2-.5.4-.5h1c.3,0,.4.2.5.4,0,.4.1,1.2.1,1.9ZM97,157.8c0,.3-.2.5-.4.5h-1.1c-.3,0-.4-.2-.4-.5v-9.6c0-.3.2-.5.4-.5h1.1c.3,0,.4.2.4.5v9.6ZM80.5,160.5c-.3,0-.4-.1-.4-.4v-1c0-.3.1-.4.4-.5,1.4-.2,2.6-1.9,2.6-3.9v-5.5c0-.3.2-.5.4-.5h1.1c.3,0,.4.2.4.5v5.5c0,2,1.2,3.7,2.6,3.9.3,0,.4.2.4.5v1c0,.3-.1.4-.4.4-1.6-.2-3.1-1.5-3.6-3.1-.4,1.6-1.9,2.9-3.6,3.1ZM76.5,156.1c0-.4-.2-.5-.6-.5h-1.1c-.3,0-.4-.1-.4-.4v-1c0-.3.1-.4.4-.4h1c.3,0,.6.1.7.3v-5.8c0-.3.2-.5.4-.5h1.1c.3,0,.4.2.4.5v14.1c0,.3-.2.5-.4.5h-1.1c-.3,0-.4-.2-.4-.5v-6.2ZM69.3,161.1c.4,0,.7-.2.7-.5v-1.3c0-.3-.2-.4-.4-.4h-4.9c-.8,0-1.1.2-1.1.9s.7,1.4,1.5,1.4h4.2ZM65.1,154.7l.2-.9c0-.2.2-.3.3-.3s.1,0,.2,0c.9.3,2.1.5,2.9.5,1.9,0,2.4-.1,2.4-.7s-.6-.7-2.9-.7-1.4,0-2.2,0c-.3,0-.4-.1-.4-.4v-.8c0-.3.1-.4.4-.4h.4c-.6-.3-.9-.8-.9-1.5,0-1.1.8-1.5,3-1.5,1.5,0,2.5,0,3.6.2.3,0,.4.2.4.4v.9c0,.3-.2.4-.4.4-1.3-.2-2.6-.2-3.2-.2-1,0-1.4.1-1.4.5s.4.6,1.3.6c3.2,0,4.3.6,4.3,2.4s-1.1,2.5-3.9,2.5-2.9-.3-3.8-.6c-.3-.1-.4-.3-.3-.5ZM61.6,158.8c0-1.2.7-1.8,2.1-1.8h7.5c.5,0,.8.3.8.8v3.6c0,.9-.7,1.5-1.8,1.5h-8.4c-.3,0-.4-.1-.4-.4v-.9c0-.3.1-.4.4-.4h1.2c-.8-.4-1.4-1.3-1.4-2.3ZM61.7,153c0-.4-.2-.5-.6-.5h-1.1c-.3,0-.4-.1-.4-.4v-.9c0-.3.1-.4.4-.4h1c.3,0,.6.1.7.3v-2.8c0-.3.2-.5.4-.5h1.1c.3,0,.4.2.4.5v7.2c0,.3-.2.5-.4.5h-1.1c-.3,0-.4-.2-.4-.5v-2.4ZM46,162.3v-.8c0-.3.2-.4.5-.3,1.3.2,3.2.3,4.5.3,3.5,0,4.1,0,4.1-.6s-.4-.6-3.2-.6-4,0-5,0c-.2,0-.4-.1-.4-.4v-.7c0-.3.1-.4.4-.4h.6c-.7-.2-1.1-.8-1.1-1.4s.4-1.2,1.6-1.2c2.2,0,5.8,0,8.4.2.3,0,.4.1.4.4v.8c0,.3-.1.4-.4.4-1.9-.1-5.5-.2-7.2-.2s-.8.2-.8.5.2.5.9.5c.9,0,1.9,0,2.8,0,4,0,5.1.5,5.1,2.1s-1.2,2.2-6.1,2.2-3.3-.1-4.6-.3c-.3,0-.4-.2-.3-.4ZM51.8,153.9c2,0,4.4,0,6-.2.3,0,.4.1.4.4v.8c0,.3-.1.4-.4.4-1,.1-2.9.2-6,.2-2.4,0-4.8,0-6.1-.2-.3,0-.4-.2-.4-.4v-.8c0-.3.2-.4.4-.4,1.3.1,3.2.2,6,.2ZM46.9,149.5v-.8c0-.3.1-.4.4-.4,2.1-.1,3-.2,3.9-.2,4.5,0,5.9.6,5.9,2.5s-1.4,2.6-5.7,2.6-2.5-.1-4.4-.3c-.3,0-.4-.1-.4-.4v-.8c0-.3.2-.4.5-.4,1.5.2,3.2.3,4.5.3,2.8,0,3.5-.2,3.5-1s-.9-.9-3.9-.9-1.8,0-3.9.2c-.3,0-.4-.1-.4-.4ZM35.7,155.5c-.2,0-.5-.1-.6-.3v7.2c0,.3-.1.4-.4.4h-1c-.3,0-.4-.1-.4-.4v-14c0-.3.1-.4.4-.4h1c.3,0,.4.1.4.4v4.8c0,.3.1.5.5.5h1.4c.2-3.4,1.3-5,3.4-5s3.4,1.9,3.4,6.1-1.1,6.1-3.4,6.1-3.2-1.7-3.4-5.3h-1.3ZM30.7,147.7h1c.3,0,.4.1.4.4v14.2c0,.3-.1.4-.4.4h-1c-.3,0-.4-.1-.4-.4v-14.2c0-.3.1-.4.4-.4ZM38.9,154.7c0,3,.5,4.2,1.5,4.2s1.5-1.3,1.5-4.2-.5-4.2-1.5-4.2-1.5,1.2-1.5,4.2ZM319.3,183.5c0,0-.1,0-.2,0h-1.4c-.2,0-.5-.1-.6-.3v7.2c0,.3-.1.4-.4.4h-1c-.3,0-.4-.1-.4-.4v-14c0-.3.1-.4.4-.4h1c.3,0,.4.1.4.4v4.8c0,.3.1.5.5.5h1.5c0-.5,0-1,0-1.5,0-2.4.8-3.3,3-3.3s2.2.1,3.2.3c.3,0,.4.2.4.5v1c0,.3-.2.5-.4.4-.8-.2-1.9-.3-2.9-.3s-1.4.3-1.4,1.6c0,2.5.2,5.3.6,7.8,0,.3-.1.4-.4.4h-1c-.3,0-.4-.1-.5-.4-.3-1.5-.4-3-.5-4.6ZM312.7,175.7h1c.3,0,.4.1.4.4v14.2c0,.3-.1.4-.4.4h-1c-.3,0-.4-.1-.4-.4v-14.2c0-.3.1-.4.4-.4ZM298.7,178.4c4.1,0,5.2.6,5.2,2.1s-1,2.2-5.2,2.2-3.4,0-5-.2c-.3,0-.4-.2-.4-.4v-.8c0-.3.2-.4.5-.3,1.1.2,2.7.2,4.8.2s3.3-.2,3.3-.7-.5-.6-3.1-.6-2.9,0-4.7.1c-.3,0-.4-.1-.4-.4v-.8c0-.3,0-.4.3-.4,1.1,0,2.7-.1,4.6-.1ZM303.8,176.5v.8c0,.3-.1.4-.4.4h-9.3c-.3,0-.4-.1-.4-.4v-.8c0-.3.1-.4.4-.4h9.3c.3,0,.4.1.4.4ZM305.1,183.9v.8c0,.3-.1.4-.4.5-1,.1-2.9.2-6,.2-2.4,0-4.8,0-6.1-.2-.3,0-.4-.2-.4-.5v-.8c0-.3.1-.4.4-.4,1.3.1,3.2.2,6,.2s4.4,0,6-.2c.3,0,.4.1.4.4ZM293.2,188.8c0-2,.8-2.7,3.2-2.7s4.7.1,7,.3c.3,0,.4.2.4.4v.9c0,.3-.1.4-.4.4-2.3-.2-4.7-.3-6.9-.3s-1.4.3-1.4,1.4,0,.7,0,1.1c0,.3-.2.5-.4.5h-1c-.3,0-.4-.2-.5-.4,0-.4-.1-1-.1-1.6ZM285.1,179.3v1.4c0,.4.2.5.6.5h2c.4,0,.5-.1.5-.5v-1.4c0,0-3.2,0-3.2,0ZM278.2,190.3v-.8c0-.3.2-.4.5-.3,1.4.2,3.2.3,4.4.3,3.5,0,4.2,0,4.2-.6s-.5-.6-3.3-.6-3.7,0-4.9,0c-.3,0-.4-.1-.4-.4v-.8c0-.3.1-.4.4-.4h.6c-.7-.2-1.1-.8-1.1-1.5s.5-1.3,1.5-1.4c2.2,0,5.9,0,8.4.2.3,0,.4.1.4.4v.9c0,.3-.1.4-.4.4-1.9-.1-5.5-.2-7.2-.2s-.8.2-.8.6.3.5.9.5c.9,0,1.8,0,2.7,0,3.9,0,5.2.5,5.2,2.2s-1.3,2.3-6.2,2.3-3.1-.1-4.5-.3c-.3,0-.4-.2-.4-.4ZM285.2,182.9c-1.2,0-1.8-.6-1.9-1.6l-.3-4.7c0-.3.2-.5.4-.5h1.1c.3,0,.5.1.5.4v1.1h3.5s0-1.1,0-1.1c0-.3.2-.4.5-.4h1.1c.3,0,.5.2.4.5l-.3,4.7c0,1-.7,1.6-1.9,1.6h-3.2ZM280.6,182.5c0,.3-.2.5-.4.5h-1.1c-.3,0-.4-.2-.4-.5v-6.3c0-.3.2-.5.4-.5h1.1c.3,0,.4.2.4.5v.4c0,.3.1.4.4.4h1c.3,0,.4.1.4.4v.9c0,.3-.1.4-.4.4h-.8c-.3,0-.5-.1-.6-.3v1.3c0,.3.1.4.4.4h1c.3,0,.4.1.4.4v.9c0,.3-.1.4-.4.4h-.8c-.3,0-.5-.1-.6-.3v.9ZM274.3,181.8c0-.7-.5-1.1-1.8-1.1s-1.8.4-1.8,1.1.5,1.1,1.8,1.1,1.8-.4,1.8-1.1ZM272.5,184.6c-2.5,0-3.7-1-3.7-2.8s1.2-2.8,3.7-2.8,3.7,1,3.7,2.8-1.2,2.8-3.7,2.8ZM264.9,182.2c0-.4-.2-.5-.6-.5h-1.1c-.3,0-.4-.1-.4-.4v-.9c0-.3.1-.4.4-.4h1c.3,0,.6.1.7.3v-4c0-.3.2-.5.4-.5h1.1c.3,0,.4.2.4.5v9.6c0,.3-.2.5-.4.5h-1.1c-.3,0-.4-.2-.4-.5v-3.6ZM271.5,176v-.6c0-.3.1-.4.4-.4h1.1c.3,0,.4.1.4.4v.4c0,.2-.1.4-.3.5h3.1c.3,0,.4.1.4.4v.9c0,.3-.1.4-.4.4h-7.6c-.3,0-.4-.1-.4-.4v-.9c0-.3.1-.4.4-.4h2.4c.3,0,.4,0,.4-.3ZM274.9,187.9c0,2-1.4,3.2-3.7,3.2s-4.7-.1-6.4-.3c-.3,0-.4-.2-.4-.4v-.9c0-.3.2-.4.5-.4,2,.2,3.5.3,6.4.3s1.7-.5,1.7-1.6,0-.9-.1-1.3c0-.3.2-.5.4-.5h1c.3,0,.4.2.5.4,0,.4.1.9.1,1.5ZM251.2,184.3c0,1.5.7,2.3,1.8,2.3s1.8-.8,1.8-2.3-.6-2.3-1.8-2.3-1.8.8-1.8,2.3ZM253,180.1c2.3,0,3.7,1.5,3.7,4.2s-1.4,4.2-3.7,4.2-3.7-1.5-3.7-4.2,1.4-4.2,3.7-4.2ZM245.3,184.1c0-.4-.2-.5-.6-.5h-1.1c-.3,0-.4-.1-.4-.4v-1c0-.3.1-.4.4-.4h1c.3,0,.6.1.7.3v-5.8c0-.3.2-.5.4-.5h1.1c.3,0,.4.2.4.5v14.1c0,.3-.2.5-.4.5h-1.1c-.3,0-.4-.2-.4-.5v-6.2ZM251.9,176.8v-1.1c0-.3.1-.4.4-.4h1.1c.3,0,.4.1.4.4v.9c0,.2-.1.4-.3.5h3.1c.3,0,.4.1.4.4v1c0,.3-.1.4-.4.4h-7.6c-.3,0-.4-.1-.4-.4v-1c0-.3.1-.4.4-.4h2.4c.3,0,.4,0,.4-.3ZM229.4,186.6c-.3,0-.4-.2-.4-.5v-.9c0-.3.2-.4.5-.4,1.3.2,3.6.3,6,.3s4.3-.1,5.9-.3c.3,0,.5.1.5.4v.9c0,.3-.1.4-.4.5-1.2.2-3.6.3-5.5.3.3.1.4.4.4.7v2.2c0,.3-.2.5-.4.5h-1.1c-.3,0-.4-.2-.4-.5v-2.4c0-.4-.2-.5-.6-.5-1.5,0-3.3-.1-4.4-.3ZM230.2,177.6c0-.9.7-1.4,1.9-1.4,4,0,6.2,0,7.6.3.2,0,.3.2.3.4v1c0,.3-.2.4-.4.4-1.8-.2-3.8-.3-6.4-.3s-1.1.2-1.1.6.3.5,1.1.5h2.1c4,0,5,.5,5,2.3s-1.1,2.4-6,2.4-2.9-.1-4.3-.3c-.2,0-.4-.2-.3-.4l.2-.9c0-.3.2-.4.4-.3,1.2.2,2.7.3,4,.3,3.3,0,4,0,4-.6s-.5-.6-3.1-.6-3.1,0-4.6,0-.4-.2-.4-.4v-.8c0-.2.1-.4.4-.4h.7c-.8-.3-1.3-.8-1.3-1.6ZM220.7,189.5c-2.6,0-4.9-.1-6-.3-.3,0-.4-.2-.4-.5v-.9c0-.3.2-.4.5-.4,1.2.2,2.9.3,4.4.3s.6-.2.6-.5v-2.2s-1.9,0-1.9,0c-1.3,0-2-.7-2.1-1.8l-.3-6.1c0-.3.2-.4.4-.4h1.1c.3,0,.4.2.4.4v1.7c0,0,6.5,0,6.5,0v-1.7c0-.3.2-.4.5-.4h1.1c.3,0,.5.2.4.4l-.3,6.1c0,1.1-.8,1.8-2.1,1.8h-1.9s0,2,0,2c0,.3-.2.6-.4.7,1.9,0,4.2-.2,5.4-.3.3,0,.5.1.5.4v.9c0,.3-.1.4-.4.5-1.3.2-3.3.3-6,.3ZM217.5,180.6v1.9c0,.5.4.7.9.7h4.6c.5,0,.7-.2.8-.7v-1.9c0,0-6.2,0-6.2,0ZM207.5,178.7c-.9,0-1.4,0-2.1.2-.3,0-.4-.1-.4-.4v-1c0-.3.1-.4.4-.4.6-.1,1.3-.1,2.3-.1,3.2,0,4.8,1.8,4.8,5.9s-1.5,5.9-4.6,5.9-2-.2-3.1-.7c-.3-.1-.4-.3-.4-.5l.3-1c0-.2.2-.4.3-.4s.1,0,.2,0c1,.4,1.9.6,2.6.6,1.9,0,2.8-1.3,2.8-4s-.8-4.1-2.9-4.1ZM200.9,184.1c0-.4-.2-.5-.6-.5h-1.1c-.3,0-.4-.1-.4-.4v-1c0-.3.1-.4.4-.4h1c.3,0,.6.1.7.3v-5.8c0-.3.2-.5.4-.5h1.1c.3,0,.4.2.4.5v14.1c0,.3-.2.5-.4.5h-1.1c-.3,0-.4-.2-.4-.5v-6.2ZM189.1,181.4c1.1,0,1.9-.7,1.9-1.9s-.7-1.8-1.9-1.8-1.9.7-1.9,1.8.7,1.9,1.9,1.9ZM180.6,190.3v-.8c0-.3.2-.4.5-.3,1.4.2,3.2.3,4.4.3,3.5,0,4.2,0,4.2-.6s-.5-.6-3.3-.6-3.7,0-4.9,0c-.3,0-.4-.1-.4-.4v-.8c0-.3.1-.4.4-.4h.6c-.7-.2-1.1-.8-1.1-1.5s.5-1.3,1.5-1.4c2.2,0,5.9,0,8.4.2.3,0,.4.1.4.4v.9c0,.3-.1.4-.4.4-1.9-.1-5.5-.2-7.2-.2s-.8.2-.8.6.3.5.9.5c.9,0,1.8,0,2.7,0,3.9,0,5.2.5,5.2,2.2s-1.3,2.3-6.2,2.3-3.1-.1-4.5-.3c-.3,0-.4-.2-.4-.4ZM189.1,176c2.3,0,3.8,1.4,3.8,3.5s-1.5,3.6-3.8,3.6-3.8-1.4-3.8-3.6,1.5-3.5,3.8-3.5ZM183,182.5c0,.3-.2.5-.4.5h-1.1c-.3,0-.4-.2-.4-.5v-6.3c0-.3.2-.5.4-.5h1.1c.3,0,.4.2.4.5v6.3ZM172.3,186.4c-2.6,0-3.4.6-3.4,1.4s.8,1.4,3.4,1.4,3.4-.6,3.4-1.4-.8-1.4-3.4-1.4ZM172.3,191.1c-3.6,0-5.4-1.1-5.4-3.2s1.8-3.2,5.4-3.2,5.4,1.1,5.4,3.2-1.8,3.2-5.4,3.2ZM174.4,176.1h1.1c.3,0,.4.2.4.5v1.9c0,1.8,1.1,3.2,2.6,3.2s.4.1.4.4v.9c0,.3-.1.4-.4.4-1.8,0-3.1-1.1-3.6-2.4-.5,1.3-1.8,2.4-3.6,2.4s-.4-.1-.4-.4v-.9c0-.3.1-.4.4-.4,1.5,0,2.6-1.3,2.6-3.2v-1.9c0-.3.2-.5.4-.5ZM167.3,181c0-.4-.2-.5-.6-.5h-1.1c-.3,0-.4-.1-.4-.4v-.9c0-.3.1-.4.4-.4h1c.3,0,.6.1.7.3v-2.8c0-.3.2-.5.4-.5h1.1c.3,0,.4.2.4.5v7.2c0,.3-.2.5-.4.5h-1.1c-.3,0-.4-.2-.4-.5v-2.4ZM157.2,177.5c-2.6,0-3.3.3-3.3,1.1s.8,1.1,3.3,1.1,3.3-.3,3.3-1.1-.8-1.1-3.3-1.1ZM151.6,190.3v-.8c0-.3.2-.4.5-.3,1.3.2,3.2.3,4.5.3,3.5,0,4.1,0,4.1-.6s-.4-.6-3.2-.6-4,0-5,0c-.2,0-.4-.1-.4-.4v-.7c0-.3.1-.4.4-.4h.6c-.7-.2-1.1-.8-1.1-1.4s.4-1.2,1.6-1.2c2.2,0,5.8,0,8.4.2.3,0,.4.1.4.4v.8c0,.3-.1.4-.4.4-1.9-.1-5.5-.2-7.2-.2s-.8.2-.8.5.2.5.9.5c.9,0,1.9,0,2.8,0,4,0,5.1.5,5.1,2.1s-1.2,2.2-6.1,2.2-3.3-.1-4.6-.3c-.3,0-.4-.2-.3-.4ZM157.4,181.9c2,0,4.4,0,6-.2.3,0,.4.1.4.4v.8c0,.3-.1.4-.4.4-1,.1-2.9.2-6,.2-2.4,0-4.8,0-6.1-.2-.3,0-.4-.2-.4-.4v-.8c0-.3.2-.4.4-.4,1.3.1,3.2.2,6,.2ZM157.2,181.2c-3.8,0-5.3-.7-5.3-2.6s1.5-2.6,5.3-2.6,5.3.7,5.3,2.6-1.5,2.6-5.3,2.6ZM136.7,191.1c-3.9,0-5.8-1-5.8-3.1s1.9-3.1,5.8-3.1,5.8,1,5.8,3.1-1.9,3.1-5.8,3.1ZM131.7,175.7h1c.3,0,.4.1.4.4v2.6s.9,0,.9,0c.2,0,.5.1.6.3v-2.7c0-.3.1-.4.4-.4h1c.3,0,.4.1.4.4v7.1c0,.3-.1.4-.4.4h-1c-.3,0-.4-.1-.4-.4v-2.3c0-.3-.1-.5-.5-.5h-.9s0,3.1,0,3.1c0,.3-.1.4-.4.4h-1c-.3,0-.4-.1-.4-.4v-7.6c0-.3.1-.4.4-.4ZM141.3,183.9c-2,0-3.2-.9-3.2-2.5s1.1-2.5,3.2-2.5,3.2.9,3.2,2.5-1.1,2.5-3.2,2.5ZM136.7,186.7c-2.9,0-3.9.5-3.9,1.3s1,1.3,3.9,1.3,3.9-.5,3.9-1.3-1-1.3-3.9-1.3ZM140.7,175h1c.3,0,.4.1.4.4v.4c0,.2-.1.4-.3.5h2.6c.3,0,.4.1.4.4v.9c0,.3-.1.4-.4.4h-6.5c-.3,0-.4-.1-.4-.4v-.9c0-.3.1-.4.4-.4h2c.3,0,.4,0,.4-.3v-.6c0-.3.1-.4.4-.4ZM142.6,181.4c0-.5-.5-.8-1.3-.8s-1.3.3-1.3.8.5.8,1.3.8,1.3-.3,1.3-.8ZM117.5,180.4l-.3-3.8c0-.3.2-.4.4-.4h1.1c.3,0,.4.2.4.4v.6h6.5s0-.6,0-.6c0-.3.2-.4.4-.4h1.1c.3,0,.5.2.4.4l-.3,3.8c0,1-.7,1.6-1.9,1.6h-2.1s0,.9,0,.9c0,.2-.1.4-.3.5,1.7,0,3.9,0,5.2-.2.3,0,.5.1.5.4v.9c0,.3-.1.4-.4.5-1,.1-2.9.2-6,.2-2.4,0-4.8,0-6-.2-.3,0-.4-.2-.4-.5v-.9c0-.3.2-.4.5-.4,1.2.1,3.2.2,4.6.1.3,0,.4-.2.4-.4v-.9s-2.1,0-2.1,0c-1.2,0-1.9-.6-1.9-1.6ZM117,188.5c0-2,.8-2.7,3.2-2.7s4.7.1,7,.3c.3,0,.4.2.4.4v.9c0,.3-.1.4-.4.4-2.3-.2-4.7-.3-6.9-.3s-1.4.3-1.4,1.4,0,1,0,1.4c0,.3-.2.5-.4.5h-1c-.3,0-.5-.2-.5-.4,0-.5-.1-1-.1-2ZM119.3,178.9v.6c0,.4.3.6.8.6h4.6c.5,0,.7-.2.8-.6v-.6c0,0-6.2,0-6.2,0ZM107.5,185.1c-3.4,0-5.3-1.6-5.3-4.3s1.9-4.3,5.3-4.3,5.3,1.6,5.3,4.3-1.9,4.3-5.3,4.3ZM110.9,180.8c0-1.6-1.1-2.5-3.3-2.5s-3.3.9-3.3,2.5,1.2,2.5,3.3,2.5,3.3-.9,3.3-2.5ZM114.1,187.8v.9c0,.3-.1.4-.4.5-1.3.2-3.3.3-6,.3s-4.9-.1-6-.3c-.3,0-.4-.2-.4-.5v-.9c0-.3.2-.4.5-.4,1.3.2,3.6.3,6,.3s4.3-.1,5.9-.3c.3,0,.5.1.5.4ZM92.9,189.5c-2.6,0-4.9-.1-6-.3-.3,0-.4-.2-.4-.5v-.9c0-.3.2-.4.5-.4,1.2.2,2.9.3,4.4.3s.6-.2.6-.5v-1.9s0,0,0,0c-1.2,0-2.9-.1-4.3-.3-.2,0-.4-.2-.3-.4l.2-1c0-.3.2-.4.4-.3,1.2.2,2.7.3,4,.3,3.3,0,4-.2,4-.9s-.7-.9-3.1-.9-3.1,0-4.6,0-.4-.2-.4-.4v-.9c0-.2.1-.4.4-.4h.8c-.8-.3-1.3-1-1.3-1.9s.6-1.6,1.9-1.6c.6,0,1.3,0,2,0,2,0,4.1.1,5.5.3.2,0,.3.2.3.4v1c0,.3-.2.4-.4.4-1.7-.2-4.2-.3-6.4-.3s-1.1.2-1.1.7.4.8,1.1.8h2.1c3.9,0,5,.6,5,2.6s-.9,2.6-4,2.7v1.8c0,.3-.2.6-.4.7,1.9,0,4.2-.2,5.4-.3.3,0,.5.1.5.4v.9c0,.3-.1.4-.4.5-1.3.2-3.3.3-6,.3ZM74.4,182.7c0,3,.5,4.2,1.8,4.2s1.8-1.2,1.8-4.2-.5-4.2-1.8-4.2-1.8,1.2-1.8,4.2ZM76.2,176.6c2.6,0,3.7,1.9,3.7,6.1s-1.1,6.1-3.7,6.1-3.7-1.9-3.7-6.1,1.1-6.1,3.7-6.1ZM70.6,178.9h.9c.3,0,.4.1.4.4v1c0,.3-.1.4-.4.4h-.8c-.3,0-.6-.1-.7-.3v3.2c0,.4.2.5.6.5h.9c.3,0,.4.1.4.4v1c0,.3-.1.4-.4.4h-.8c-.3,0-.6-.1-.7-.3v4.6c0,.3-.2.5-.4.5h-1.1c-.3,0-.4-.2-.4-.5v-14.1c0-.3.2-.5.4-.5h1.1c.3,0,.4.2.4.5v2.2c0,.4.2.5.6.5ZM58.1,180.5c0-2.6,1-3.7,3.3-3.7s2.4.1,3.7.3c.3,0,.4.2.4.5v1c0,.3-.2.5-.4.4-1.1-.2-2.1-.3-3.3-.3s-1.7.5-1.7,2c0,2.5.2,4.9.6,7.4,0,.3-.1.5-.4.5h-1.1c-.3,0-.4-.1-.5-.4-.4-2.5-.6-4.9-.6-7.6ZM55.9,190.3c0,.3-.2.5-.4.5h-1.1c-.3,0-.4-.2-.4-.5v-14.1c0-.3.2-.5.4-.5h1.1c.3,0,.4.2.4.5v14.1ZM50.1,179.3c0,2-1.2,3.1-3.5,3.1s-5-.1-6.7-.3c-.3,0-.4-.2-.4-.4v-.9c0-.3.2-.4.5-.4,2,.2,3.8.3,6.4.3s1.6-.4,1.6-1.4,0-1.9-.1-2.6c0-.3.1-.5.4-.5h1c.3,0,.5.2.5.4,0,.8.1,2.1.1,2.7ZM50.3,188c0,2-1.3,3.1-3.6,3.1s-5.3-.1-7-.3c-.3,0-.4-.2-.4-.4v-.9c0-.3.2-.4.5-.4,2,.2,3.9.3,7,.3s1.6-.4,1.6-1.4,0-.8-.1-1.2c0-.3.1-.5.4-.5h1c.3,0,.5.2.5.4,0,.3.1.8.1,1.3ZM51.5,183.8v.9c0,.3-.1.4-.4.5-1,.1-2.9.2-6,.2-2.4,0-4.8,0-6-.2-.3,0-.4-.2-.4-.5v-.9c0-.3.2-.4.5-.4,1.3.1,3.2.2,6,.2s4.4,0,5.9-.2c.3,0,.5.1.5.4ZM318,208.5c0-2.6,1-3.7,3.3-3.7s2.4.1,3.7.3c.3,0,.4.2.4.5v1c0,.3-.2.5-.4.4-1.1-.2-2.1-.3-3.3-.3s-1.7.5-1.7,2c0,2.5.2,4.9.6,7.4,0,.3-.1.5-.4.5h-1.1c-.3,0-.4-.1-.5-.4-.4-2.5-.6-4.9-.6-7.6ZM314.1,212.1c0-.4-.2-.5-.6-.5h-1.1c-.3,0-.4-.1-.4-.4v-1c0-.3.1-.4.4-.4h1c.3,0,.6.1.7.3v-5.8c0-.3.2-.5.4-.5h1.1c.3,0,.4.2.4.5v14.1c0,.3-.2.5-.4.5h-1.1c-.3,0-.4-.2-.4-.5v-6.2ZM305.9,204.8v-1.1c0-.3.1-.4.4-.4h1.1c.3,0,.4.1.4.4v.9c0,.2-.1.4-.3.5h2.8c.3,0,.4.1.4.4v1c0,.3-.1.4-.4.4h-2.5s0,3.7,0,3.7c0,2,1.2,3.7,2.6,3.9.3,0,.4.2.4.5v1c0,.3-.1.4-.4.4-1.6-.2-3.1-1.5-3.6-3.1-.4,1.6-1.9,2.9-3.6,3.1-.3,0-.4-.1-.4-.4v-1c0-.3.1-.4.4-.5,1.4-.2,2.6-1.9,2.6-3.9v-3.7s-2.5,0-2.5,0c-.3,0-.4-.1-.4-.4v-1c0-.3.1-.4.4-.4h2.1c.3,0,.4,0,.4-.3ZM300.9,218.3c0,.3-.2.5-.4.5h-1.1c-.3,0-.4-.2-.4-.5v-14.1c0-.3.2-.5.4-.5h1.1c.3,0,.4.2.4.5v14.1ZM296.8,211.3c.3,0,.5,0,.5.4v1c0,.3-.1.4-.4.4-1.1,0-2.4.1-4.1.1s-3.2,0-4.4-.1c-.3,0-.4-.2-.4-.5v-1c0-.3.2-.4.4-.4.6,0,2.3,0,3.5,0s.5-.1.5-.4v-2.3c0-.3.2-.5.4-.5h1.1c.3,0,.4.2.4.5v2.3c0,.2-.1.4-.3.5,1.1,0,2,0,2.7-.2ZM290.7,207.3c0,.6.1,1.6.4,2.4,0,.3,0,.4-.3.4l-1.2.2c-.3,0-.4,0-.5-.3-.3-.9-.4-2.2-.4-3,0-1.9,1-2.9,3.1-2.9s3,.1,3.9.3c.3,0,.4.2.4.4v1c0,.3-.2.5-.4.4-1.1-.2-2.3-.3-3.7-.3s-1.4.5-1.4,1.3ZM285.2,210.2c0-.4-.2-.5-.6-.5h-1.1c-.3,0-.4-.1-.4-.4v-.9c0-.3.1-.4.4-.4h1c.3,0,.6.1.7.3v-4c0-.3.2-.5.4-.5h1.1c.3,0,.4.2.4.5v9.9c0,.3-.2.5-.4.5h-1.1c-.3,0-.4-.2-.4-.5v-3.9ZM295.6,216c0,2-1.3,3.1-3.6,3.1s-5.2-.1-6.8-.3c-.3,0-.4-.2-.4-.4v-.9c0-.3.2-.4.5-.4,2,.2,3.8.3,6.8.3s1.6-.4,1.6-1.4,0-1-.1-1.4c0-.3.1-.5.4-.5h1c.3,0,.5.2.5.4,0,.3.1,1,.1,1.5ZM278.1,204.6c2.6,0,3.8,1.9,3.8,6.1s-1.2,6.1-3.8,6.1-3.8-1.9-3.8-6.1,1.2-6.1,3.8-6.1ZM276.2,210.7c0,3,.6,4.2,1.9,4.2s1.9-1.2,1.9-4.2-.6-4.2-1.9-4.2-1.9,1.2-1.9,4.2ZM272,218.3c0,.3-.2.5-.4.5h-1.1c-.3,0-.4-.2-.4-.5v-14.1c0-.3.2-.5.4-.5h1.1c.3,0,.4.2.4.5v14.1ZM256.4,217.5c-2.6,0-4.9-.1-6-.3-.3,0-.4-.2-.4-.5v-.9c0-.3.2-.4.5-.4,1.2.2,2.9.3,4.4.3s.6-.2.6-.5v-2c-2.8-.3-4.5-1.8-4.5-4.3s1.9-4.3,5.3-4.3,5.3,1.6,5.3,4.3-1.5,4-4.2,4.3v1.9c0,.3-.2.6-.4.7,1.9,0,4.2-.2,5.4-.3.3,0,.5.1.5.4v.9c0,.3-.1.4-.4.5-1.3.2-3.3.3-6,.3ZM259.6,208.8c0-1.6-1.1-2.5-3.3-2.5s-3.3.9-3.3,2.5,1.2,2.5,3.3,2.5,3.3-.9,3.3-2.5ZM242.6,212.3c0,1.5.7,2.3,1.8,2.3s1.8-.8,1.8-2.3-.6-2.3-1.8-2.3-1.8.8-1.8,2.3ZM244.4,208.1c2.3,0,3.7,1.5,3.7,4.2s-1.4,4.2-3.7,4.2-3.7-1.5-3.7-4.2,1.4-4.2,3.7-4.2ZM238.3,218.3c0,.3-.2.5-.4.5h-1.1c-.3,0-.4-.2-.4-.5v-14.1c0-.3.2-.5.4-.5h1.1c.3,0,.4.2.4.5v14.1ZM243.3,204.8v-1.1c0-.3.1-.4.4-.4h1.1c.3,0,.4.1.4.4v.9c0,.2-.1.4-.3.5h3.1c.3,0,.4.1.4.4v1c0,.3-.1.4-.4.4h-7.6c-.3,0-.4-.1-.4-.4v-1c0-.3.1-.4.4-.4h2.4c.3,0,.4,0,.4-.3ZM232,213.2c0-1.2-.6-1.7-2.5-1.7s-1.4,0-2.3,0-.4-.1-.4-.4v-.9c0-.3.1-.4.4-.4h.5c-.7-.5-1.1-1.4-1.1-2.5,0-1.6,1.1-2.5,3.1-2.5s2.1,0,3.3.2c.3,0,.4.2.4.4v1.1c0,.3-.2.4-.4.4-1.4-.2-2.2-.3-2.8-.3-1.1,0-1.6.5-1.6,1.5s.5,1.5,1.5,1.5c2.7,0,3.9,1.1,3.9,3.4s-1.3,3.6-4,3.6-2.2-.2-3.5-.7c-.3-.1-.4-.3-.3-.5l.3-1c0-.2.2-.3.3-.3s.1,0,.2,0c1,.4,1.8.6,2.6.6,1.8,0,2.5-.5,2.5-1.7ZM224.8,206.9h.9c.3,0,.4.1.4.4v1c0,.3-.1.4-.4.4h-.8c-.3,0-.6-.1-.7-.3v2.9c0,.4.2.5.6.5h.9c.3,0,.4.1.4.4v1c0,.3-.1.4-.4.4h-.8c-.3,0-.6-.1-.7-.3v5c0,.3-.2.5-.4.5h-1.1c-.3,0-.4-.2-.4-.5v-14.1c0-.3.2-.5.4-.5h1.1c.3,0,.4.2.4.5v2.2c0,.4.2.5.6.5ZM210.3,206.7c-.9,0-1.4,0-2.1.2-.3,0-.4-.1-.4-.4v-1c0-.3.1-.4.4-.4.6-.1,1.3-.1,2.3-.1,3.2,0,4.8,1.8,4.8,5.9s-1.5,5.9-4.6,5.9-2-.2-3.1-.7c-.3-.1-.4-.3-.4-.5l.3-1c0-.2.2-.4.3-.4s.1,0,.2,0c1,.4,1.9.6,2.6.6,1.9,0,2.8-1.3,2.8-4s-.8-4.1-2.9-4.1ZM205.3,209.1c0,.4.2.5.6.5h2.6c.3,0,.4.1.4.4v1c0,.3-.1.4-.4.4h-2.5c-.3,0-.6-.1-.7-.3v7.2c0,.3-.2.5-.4.5h-1.1c-.3,0-.4-.2-.4-.5v-14.1c0-.3.2-.5.4-.5h1.1c.3,0,.4.2.4.5v4.9ZM189.8,206.4c4.1,0,5.2.6,5.2,2.1s-1,2.2-5.2,2.2-3.4,0-5-.2c-.3,0-.4-.2-.4-.4v-.8c0-.3.2-.4.5-.3,1.1.2,2.7.2,4.8.2s3.3-.2,3.3-.7-.5-.6-3.1-.6-2.9,0-4.7.1c-.3,0-.4-.1-.4-.4v-.8c0-.3,0-.4.3-.4,1.1,0,2.7-.1,4.6-.1ZM194.9,204.5v.8c0,.3-.1.4-.4.4h-9.3c-.3,0-.4-.1-.4-.4v-.8c0-.3.1-.4.4-.4h9.3c.3,0,.4.1.4.4ZM196.2,211.9v.8c0,.3-.1.4-.4.5-1,.1-2.9.2-6,.2-2.4,0-4.8,0-6.1-.2-.3,0-.4-.2-.4-.5v-.8c0-.3.1-.4.4-.4,1.3.1,3.2.2,6,.2s4.4,0,6-.2c.3,0,.4.1.4.4ZM184.3,216.8c0-2,.8-2.7,3.2-2.7s4.7.1,7,.3c.3,0,.4.2.4.4v.9c0,.3-.1.4-.4.4-2.3-.2-4.7-.3-6.9-.3s-1.4.3-1.4,1.4,0,.7,0,1.1c0,.3-.2.5-.4.5h-1c-.3,0-.4-.2-.5-.4,0-.4-.1-1-.1-1.6ZM176.2,207.3v1.4c0,.4.2.5.6.5h2c.4,0,.5-.1.5-.5v-1.4c0,0-3.2,0-3.2,0ZM169.3,218.3v-.8c0-.3.2-.4.5-.3,1.4.2,3.2.3,4.4.3,3.5,0,4.2,0,4.2-.6s-.5-.6-3.3-.6-3.7,0-4.9,0c-.3,0-.4-.1-.4-.4v-.8c0-.3.1-.4.4-.4h.6c-.7-.2-1.1-.8-1.1-1.5s.5-1.3,1.5-1.4c2.2,0,5.9,0,8.4.2.3,0,.4.1.4.4v.9c0,.3-.1.4-.4.4-1.9-.1-5.5-.2-7.2-.2s-.8.2-.8.6.3.5.9.5c.9,0,1.8,0,2.7,0,3.9,0,5.2.5,5.2,2.2s-1.3,2.3-6.2,2.3-3.1-.1-4.5-.3c-.3,0-.4-.2-.4-.4ZM176.3,210.9c-1.2,0-1.8-.6-1.9-1.6l-.3-4.7c0-.3.2-.5.4-.5h1.1c.3,0,.5.1.5.4v1.1h3.5s0-1.1,0-1.1c0-.3.2-.4.5-.4h1.1c.3,0,.5.2.4.5l-.3,4.7c0,1-.7,1.6-1.9,1.6h-3.2ZM171.7,210.5c0,.3-.2.5-.4.5h-1.1c-.3,0-.4-.2-.4-.5v-6.3c0-.3.2-.5.4-.5h1.1c.3,0,.4.2.4.5v.4c0,.3.1.4.4.4h1c.3,0,.4.1.4.4v.9c0,.3-.1.4-.4.4h-.8c-.3,0-.5-.1-.6-.3v1.3c0,.3.1.4.4.4h1c.3,0,.4.1.4.4v.9c0,.3-.1.4-.4.4h-.8c-.3,0-.5-.1-.6-.3v.9ZM154.6,203.7h1c.3,0,.4.1.4.4v5.5s1,0,1,0c.2,0,.5.1.6.3v-5.7c0-.3.1-.4.4-.4h1c.3,0,.4.1.4.4v14c0,.3-.1.4-.4.4h-1c-.3,0-.4-.1-.4-.4v-6.4c0-.3-.1-.5-.5-.5h-1s0,6.8,0,6.8c0,.3-.1.4-.4.4h-1c-.3,0-.4-.1-.4-.4v-14.2c0-.3.1-.4.4-.4ZM164.3,208.1c2.1,0,3.2,1.5,3.2,4.2s-1.1,4.2-3.2,4.2-3.2-1.5-3.2-4.2,1.1-4.2,3.2-4.2ZM163.3,204.8v-1.1c0-.3.1-.4.4-.4h1c.3,0,.4.1.4.4v.9c0,.2-.1.4-.3.5h2.6c.3,0,.4.1.4.4v1c0,.3-.1.4-.4.4h-6.6c-.3,0-.4-.1-.4-.4v-1c0-.3.1-.4.4-.4h2c.3,0,.4,0,.4-.3ZM162.9,212.3c0,1.6.4,2.3,1.3,2.3s1.3-.8,1.3-2.3-.4-2.3-1.3-2.3-1.3.8-1.3,2.3ZM149,205.9v1c0,1.9,1.1,3.3,2.6,3.3s.4.1.4.4v.9c0,.3-.1.4-.4.4-1.8,0-3.1-1.2-3.6-2.5-.5,1.3-1.8,2.5-3.6,2.5s-.4-.1-.4-.4v-.9c0-.3.1-.4.4-.4,1.5,0,2.6-1.4,2.6-3.3v-1s-2.5,0-2.5,0c-.3,0-.4-.1-.4-.4v-.9c0-.3.1-.4.4-.4h7c.3,0,.4.1.4.4v.9c0,.3-.1.4-.4.4h-2.5ZM150.5,215.9c0,2-1.4,3.2-3.7,3.2s-5-.1-6.7-.3c-.3,0-.4-.2-.4-.4v-.9c0-.3.2-.4.5-.4,2,.2,3.7.3,6.7.3s1.7-.5,1.7-1.6,0-1.3-.1-1.7.2-.5.4-.5h1c.3,0,.4.2.5.4,0,.4.1,1.2.1,1.9ZM142,213.8c0,.3-.2.5-.4.5h-1.1c-.3,0-.4-.2-.4-.5v-9.6c0-.3.2-.5.4-.5h1.1c.3,0,.4.2.4.5v9.6ZM127.9,211.7h-1.1c-.3,0-.4-.1-.5-.4-.3-1.2-.6-3-.6-4,0-2.3.9-3.2,3.2-3.2s2.4.1,3.7.3c.3,0,.4.2.4.5v1c0,.3-.2.5-.4.4-1.1-.2-1.8-.3-3.6-.3s-1.3.4-1.3,1.3.3,2.8.6,3.9c0,.3-.1.5-.4.5ZM123.1,206.3c0,.4.2.5.6.5h.9c.3,0,.4.1.4.4v.9c0,.3-.1.4-.4.4h-.8c-.3,0-.6-.1-.7-.3v4.3c0,.3-.2.5-.4.5h-1.1c-.3,0-.4-.2-.4-.5v-8.4c0-.3.2-.5.4-.5h1.1c.3,0,.4.2.4.5v2.1ZM126.4,216.4c-.8,1.6-3.1,2.6-5.1,2.5-.3,0-.4-.1-.4-.4v-1c0-.3.1-.4.4-.4,2.2,0,4.1-1.3,4.1-3v-.6c0-.3.2-.5.4-.5h1.1c.3,0,.4.2.4.5v.6c0,1.6,1.9,3,4.1,3s.4.1.4.4v1c0,.3-.1.4-.4.4-2,.1-4.2-.9-5.1-2.5ZM115.1,204.6c2.6,0,3.8,1.9,3.8,6.1s-1.2,6.1-3.8,6.1-3.8-1.9-3.8-6.1,1.2-6.1,3.8-6.1ZM113.3,210.7c0,3,.6,4.2,1.9,4.2s1.9-1.2,1.9-4.2-.6-4.2-1.9-4.2-1.9,1.2-1.9,4.2ZM109,218.3c0,.3-.2.5-.4.5h-1.1c-.3,0-.4-.2-.4-.5v-14.1c0-.3.2-.5.4-.5h1.1c.3,0,.4.2.4.5v14.1ZM99.8,206.7c-.9,0-1.4,0-2.1.2-.3,0-.4-.1-.4-.4v-1c0-.3.1-.4.4-.4.6-.1,1.3-.1,2.3-.1,3.2,0,4.8,1.8,4.8,5.9s-1.5,5.9-4.6,5.9-2-.2-3.1-.7c-.3-.1-.4-.3-.4-.5l.3-1c0-.2.2-.4.3-.4s.1,0,.2,0c1,.4,1.9.6,2.6.6,1.9,0,2.8-1.3,2.8-4s-.8-4.1-2.9-4.1ZM93.3,212.1c0-.4-.2-.5-.6-.5h-1.1c-.3,0-.4-.1-.4-.4v-1c0-.3.1-.4.4-.4h1c.3,0,.6.1.7.3v-5.8c0-.3.2-.5.4-.5h1.1c.3,0,.4.2.4.5v14.1c0,.3-.2.5-.4.5h-1.1c-.3,0-.4-.2-.4-.5v-6.2ZM88.5,219.2c-.8,0-1.3-.5-1.3-1.2s.5-1.2,1.3-1.2,1.3.5,1.3,1.2-.5,1.2-1.3,1.2ZM69.4,217.3l-.2-4.4c0-.3.2-.4.4-.4h1.1c.3,0,.4.2.4.4v.8s6.8,0,6.8,0v-.8c0-.3.2-.4.5-.4h1.1c.3,0,.5.2.4.4l-.2,4.4c0,1-.7,1.6-1.9,1.6h-6.4c-1.2,0-1.9-.6-1.9-1.6ZM78.1,205.9v.4c0,1.8,1.1,3.1,2.6,3.1s.4.1.4.4v.9c0,.3-.1.4-.4.4-1.8,0-3.1-1.1-3.6-2.4-.5,1.3-1.8,2.4-3.6,2.4s-.4-.1-.4-.4v-.9c0-.3.1-.4.4-.4,1.5,0,2.6-1.3,2.6-3.1v-.4s-2.5,0-2.5,0c-.3,0-.4-.1-.4-.4v-.9c0-.3.1-.4.4-.4h7c.3,0,.4.1.4.4v.9c0,.3-.1.4-.4.4h-2.5ZM71.1,210.9c0,.3-.2.5-.4.5h-1.1c-.3,0-.4-.2-.4-.5v-6.7c0-.3.2-.5.4-.5h1.1c.3,0,.4.2.4.5v6.7ZM71.2,215.4v1.1c0,.4.3.6.8.6h4.9c.5,0,.7-.2.8-.6v-1.1c0,0-6.5,0-6.5,0ZM60.1,205.5c-2.5,0-3.3.3-3.3,1.1s.8,1.1,3.3,1.1,3.3-.3,3.3-1.1-.8-1.1-3.3-1.1ZM54.5,218.3v-.8c0-.3.2-.4.5-.3,1.3.2,3.2.3,4.5.3,3.5,0,4.1,0,4.1-.6s-.4-.6-3.2-.6-4,0-5,0c-.2,0-.4-.1-.4-.4v-.7c0-.3.1-.4.4-.4h.6c-.7-.2-1.1-.8-1.1-1.4s.4-1.2,1.6-1.2c2.2,0,5.8,0,8.4.2.3,0,.4.1.4.4v.8c0,.3-.1.4-.4.4-1.9-.1-5.5-.2-7.2-.2s-.8.2-.8.5.2.5.9.5c.9,0,1.9,0,2.8,0,4,0,5.1.5,5.1,2.1s-1.2,2.2-6.1,2.2-3.3-.1-4.6-.3c-.3,0-.4-.2-.3-.4ZM60.3,209.9c2,0,4.4,0,6-.2.3,0,.4.1.4.4v.8c0,.3-.1.4-.4.4-1,.1-2.9.2-6,.2-2.4,0-4.8,0-6.1-.2-.3,0-.4-.2-.4-.4v-.8c0-.3.2-.4.4-.4,1.3.1,3.2.2,6,.2ZM60.1,209.2c-3.8,0-5.3-.7-5.3-2.6s1.5-2.6,5.3-2.6,5.3.7,5.3,2.6-1.5,2.6-5.3,2.6ZM40.7,219.1c-3.7,0-5.6-1.1-5.6-3.2s1.9-3.2,5.6-3.2,5.6,1.1,5.6,3.2-1.9,3.2-5.6,3.2ZM42.4,204.3v-.8c0-.3.1-.4.4-.4h1.1c.3,0,.4.1.4.4v.7c0,.2-.1.4-.3.5h2.8c.3,0,.4.1.4.4v.9c0,.3-.1.4-.4.4h-2.5s0,.2,0,.2c0,1.8,1.1,3.2,2.6,3.2s.4.1.4.4v.9c0,.3-.1.4-.4.4-1.8,0-3.1-1.1-3.6-2.4-.5,1.3-1.8,2.4-3.6,2.4s-.4-.1-.4-.4v-.9c0-.3.1-.4.4-.4,1.5,0,2.6-1.3,2.6-3.2v-.2s-2.5,0-2.5,0c-.3,0-.4-.1-.4-.4v-.9c0-.3.1-.4.4-.4h2.1c.3,0,.4,0,.4-.3ZM37.4,206.5c0,.4.2.5.6.5h1.3c.3,0,.4.1.4.4v.9c0,.3-.1.4-.4.4h-1.2c-.3,0-.6-.1-.7-.3v2.9c0,.3-.2.5-.4.5h-1.1c-.3,0-.4-.2-.4-.5v-7.2c0-.3.2-.5.4-.5h1.1c.3,0,.4.2.4.5v2.3ZM40.7,214.4c-2.7,0-3.6.6-3.6,1.4s.9,1.4,3.6,1.4,3.6-.6,3.6-1.4-.9-1.4-3.6-1.4ZM319,245.5c-2.6,0-4.9-.1-6-.3-.3,0-.4-.2-.4-.5v-.9c0-.3.2-.4.5-.4,1.2.2,2.9.3,4.4.3s.6-.2.6-.5v-2.1c0-.3.2-.5.4-.5h1.1c.3,0,.4.2.4.5v2c0,.3-.2.6-.4.7,1.9,0,4.2-.2,5.4-.3.3,0,.5.1.5.4v.9c0,.3-.1.4-.4.5-1.3.2-3.3.3-6,.3ZM314.3,240.9c-.3,0-.6,0-.6-.4v-1.1c0-.3.1-.4.4-.4,2.3,0,3.8-1.5,3.8-3.6v-2.4c0-.3.2-.5.4-.5h1.1c.3,0,.4.2.4.5v2.4c0,2.1,1.6,3.6,3.8,3.6s.4.1.4.4v1.1c0,.4-.3.4-.6.4-2,0-3.9-1.2-4.7-2.8-.7,1.7-2.6,2.8-4.6,2.8ZM305.2,240.3c0,1.5.7,2.3,1.8,2.3s1.8-.8,1.8-2.3-.6-2.3-1.8-2.3-1.8.8-1.8,2.3ZM306.9,236.1c2.3,0,3.7,1.5,3.7,4.2s-1.4,4.2-3.7,4.2-3.7-1.5-3.7-4.2,1.4-4.2,3.7-4.2ZM299.3,240.1c0-.4-.2-.5-.6-.5h-1.1c-.3,0-.4-.1-.4-.4v-1c0-.3.1-.4.4-.4h1c.3,0,.6.1.7.3v-5.8c0-.3.2-.5.4-.5h1.1c.3,0,.4.2.4.5v14.1c0,.3-.2.5-.4.5h-1.1c-.3,0-.4-.2-.4-.5v-6.2ZM305.9,232.8v-1.1c0-.3.1-.4.4-.4h1.1c.3,0,.4.1.4.4v.9c0,.2-.1.4-.3.5h3.1c.3,0,.4.1.4.4v1c0,.3-.1.4-.4.4h-7.6c-.3,0-.4-.1-.4-.4v-1c0-.3.1-.4.4-.4h2.4c.3,0,.4,0,.4-.3ZM288.7,236.5c0-2.6,1-3.7,3.3-3.7s2.2.1,3.6.3c.3,0,.4.2.4.5v1c0,.3-.2.5-.4.4-1.1-.2-1.9-.3-3.2-.3s-1.7.5-1.7,2c0,2.5.2,4.9.6,7.4,0,.3-.1.5-.4.5h-1.1c-.3,0-.4-.1-.5-.4-.4-2.5-.6-4.9-.6-7.6ZM286.1,237.1c0,.4.2.5.6.5h.9c.3,0,.4.1.4.4v1c0,.3-.1.4-.4.4h-.8c-.3,0-.6-.1-.7-.3v7.2c0,.3-.2.5-.4.5h-1.1c-.3,0-.4-.2-.4-.5v-14.1c0-.3.2-.5.4-.5h1.1c.3,0,.4.2.4.5v4.9ZM274.1,243.5l.3-1c0-.2.2-.4.3-.4s.1,0,.2,0c1,.4,1.8.6,2.6.6,1.7,0,2.4-.8,2.4-2.9s-.1-4.4-.4-6.6c0-.3.1-.5.5-.5h1c.3,0,.4.1.5.4.3,2.1.4,3.9.4,6.6s-1.4,4.9-4.2,4.9-2-.2-3.1-.7c-.3-.1-.4-.3-.4-.5ZM270.4,240.1c0-.4-.2-.5-.6-.5h-1.1c-.3,0-.4-.1-.4-.4v-1c0-.3.1-.4.4-.4h1c.3,0,.6.1.7.3v-5.8c0-.3.2-.5.4-.5h1.1c.3,0,.4.2.4.5v14.1c0,.3-.2.5-.4.5h-1.1c-.3,0-.4-.2-.4-.5v-6.2ZM256.7,238.7c0,3,.6,4.2,1.9,4.2s1.9-1.2,1.9-4.2-.6-4.2-1.9-4.2-1.9,1.2-1.9,4.2ZM258.6,232.6c2.6,0,3.8,1.9,3.8,6.1s-1.2,6.1-3.8,6.1-3.8-1.9-3.8-6.1,1.2-6.1,3.8-6.1ZM250.8,240.1c0-.4-.2-.5-.6-.5h-1.1c-.3,0-.4-.1-.4-.4v-1c0-.3.1-.4.4-.4h1c.3,0,.6.1.7.3v-5.8c0-.3.2-.5.4-.5h1.1c.3,0,.4.2.4.5v14.1c0,.3-.2.5-.4.5h-1.1c-.3,0-.4-.2-.4-.5v-6.2ZM235.6,242.7c0-1.3.7-2,2.1-2h7.8c.5,0,.8.3.8.8v3.9c0,.9-.7,1.5-1.8,1.5h-8.8c-.3,0-.4-.1-.4-.4v-.9c0-.3.1-.4.4-.4h1.2c-.8-.5-1.4-1.4-1.4-2.4ZM242.6,232.3v-.8c0-.3.1-.4.4-.4h1.1c.3,0,.4.1.4.4v.7c0,.2-.1.4-.3.5h2.8c.3,0,.4.1.4.4v.9c0,.3-.1.4-.4.4h-2.5s0,.2,0,.2c0,1.8,1.1,3.2,2.6,3.2s.4.1.4.4v.9c0,.3-.1.4-.4.4-1.8,0-3.1-1.1-3.6-2.4-.5,1.3-1.8,2.4-3.6,2.4s-.4-.1-.4-.4v-.9c0-.3.1-.4.4-.4,1.5,0,2.6-1.3,2.6-3.2v-.2s-2.5,0-2.5,0c-.3,0-.4-.1-.4-.4v-.9c0-.3.1-.4.4-.4h2.1c.3,0,.4,0,.4-.3ZM243.7,245.1c.4,0,.7-.2.7-.5v-1.7c0-.3-.2-.4-.4-.4h-5.2c-.8,0-1.1.3-1.1,1.1s.7,1.6,1.5,1.6h4.6ZM237.7,239c0,.3-.2.5-.4.5h-1.1c-.3,0-.4-.2-.4-.5v-6.8c0-.3.2-.5.4-.5h1.1c.3,0,.4.2.4.5v6.8ZM230.7,242.6c.4,0,.7-.2.7-.5v-7c0-.3-.2-.4-.4-.4h-1.4c-1.3,0-1.7.9-1.7,3.8s.7,4.2,1.9,4.2h1ZM232.5,232.8c.5,0,.8.3.8.8v9.4c0,.9-.7,1.5-1.8,1.5h-5.2c-.3,0-.4-.1-.4-.4v-1c0-.3.1-.4.4-.4h1.1c-1-1.1-1.6-3.1-1.6-5.6s.8-4.2,3.2-4.2h3.5ZM221.9,240.1c0-.4-.2-.5-.6-.5h-1.1c-.3,0-.4-.1-.4-.4v-1c0-.3.1-.4.4-.4h1c.3,0,.6.1.7.3v-5.8c0-.3.2-.5.4-.5h1.1c.3,0,.4.2.4.5v14.1c0,.3-.2.5-.4.5h-1.1c-.3,0-.4-.2-.4-.5v-6.2ZM213.7,234.7c-.9,0-1.4,0-2.1.2-.3,0-.4-.1-.4-.4v-1c0-.3.1-.4.4-.4.6-.1,1.3-.1,2.3-.1,3.2,0,4.8,1.8,4.8,5.9,0,3.8-1.5,5.9-4.6,5.9s-2-.2-3.1-.7c-.3-.1-.4-.3-.4-.5l.3-1c0-.2.2-.4.3-.4s.1,0,.2,0c1,.4,1.9.6,2.6.6,1.9,0,2.8-1.3,2.8-4s-.8-4.1-2.9-4.1ZM207.1,240.1c0-.4-.2-.5-.6-.5h-1.1c-.3,0-.4-.1-.4-.4v-1c0-.3.1-.4.4-.4h1c.3,0,.6.1.7.3v-5.8c0-.3.2-.5.4-.5h1.1c.3,0,.4.2.4.5v14.1c0,.3-.2.5-.4.5h-1.1c-.3,0-.4-.2-.4-.5v-6.2ZM196.7,234.7v4.5c0,2.1.9,3.2,2.2,3.4.3,0,.4.1.4.4v1c0,.3-.1.5-.4.4-1.5-.2-2.7-1.1-3.1-2.5-.5,1.4-1.7,2.3-3.2,2.5-.3,0-.4-.1-.4-.4v-1c0-.3.1-.4.4-.4,1.3-.2,2.2-1.4,2.2-3.4v-4.5s-2.1,0-2.1,0c-.3,0-.4-.1-.4-.4v-1c0-.3.1-.4.4-.4h6.1c.3,0,.4.1.4.4v1c0,.3-.1.4-.4.4h-2.1ZM193.1,238v1c0,.3-.1.4-.4.4h-1.5c-.2,0-.5-.1-.6-.3v7.3c0,.3-.1.4-.4.4h-1c-.3,0-.4-.1-.4-.4v-14c0-.3.1-.4.4-.4h1c.3,0,.4.1.4.4v4.7c0,.3.1.5.5.5h1.5c.3,0,.4.1.4.4ZM186.2,231.7h1c.3,0,.4.1.4.4v14.2c0,.3-.1.4-.4.4h-1c-.3,0-.4-.1-.4-.4v-14.2c0-.3.1-.4.4-.4ZM176.1,244.5c-.3,0-.4-.1-.4-.4v-1c0-.3.1-.4.4-.5,1.4-.2,2.6-1.9,2.6-3.9v-5.5c0-.3.2-.5.4-.5h1.1c.3,0,.4.2.4.5v5.5c0,2,1.2,3.7,2.6,3.9.3,0,.4.2.4.5v1c0,.3-.1.4-.4.4-1.6-.2-3.1-1.5-3.6-3.1-.4,1.6-1.9,2.9-3.6,3.1ZM173.6,246.3c0,.3-.2.5-.4.5h-1.1c-.3,0-.4-.2-.4-.5v-14.1c0-.3.2-.5.4-.5h1.1c.3,0,.4.2.4.5v14.1ZM164,240.1h-1.1c-.3,0-.4-.1-.5-.4-.3-1.4-.6-3.2-.6-4.2,0-2.3,1-3.3,3.3-3.3s2.5.1,3.8.3c.3,0,.4.2.4.5v1c0,.3-.2.5-.4.4-1.1-.2-1.8-.3-3.7-.3s-1.4.4-1.4,1.4.3,2.9.6,4.2c0,.3,0,.5-.4.5ZM157.9,238.2c0-.4-.2-.5-.6-.5h-1.1c-.3,0-.4-.1-.4-.4v-.9c0-.3.1-.4.4-.4h1c.3,0,.6.1.7.3v-4c0-.3.2-.5.4-.5h1.1c.3,0,.4.2.4.5v9.6c0,.3-.2.5-.4.5h-1.1c-.3,0-.4-.2-.4-.5v-3.6ZM168,243.9c0,2-1.4,3.2-3.7,3.2s-4.7-.1-6.4-.3c-.3,0-.4-.2-.4-.4v-.9c0-.3.2-.4.5-.4,2,.2,3.5.3,6.4.3s1.7-.5,1.7-1.6,0-1.3-.1-1.7.2-.5.4-.5h1c.3,0,.4.2.5.4,0,.4.1,1.2.1,1.9ZM146.7,239.5c-.2,0-.5-.1-.6-.3v7.2c0,.3-.1.4-.4.4h-1c-.3,0-.4-.1-.4-.4v-14c0-.3.1-.4.4-.4h1c.3,0,.4.1.4.4v4.8c0,.3.1.5.5.5h1.4c.2-3.4,1.3-5,3.4-5s3.4,1.9,3.4,6.1-1.1,6.1-3.4,6.1-3.2-1.7-3.4-5.3h-1.3ZM141.7,231.7h1c.3,0,.4.1.4.4v14.2c0,.3-.1.4-.4.4h-1c-.3,0-.4-.1-.4-.4v-14.2c0-.3.1-.4.4-.4ZM149.9,238.7c0,3,.5,4.2,1.5,4.2s1.5-1.3,1.5-4.2-.5-4.2-1.5-4.2-1.5,1.2-1.5,4.2ZM130.5,237.4c1.1,0,1.9-.7,1.9-1.9s-.7-1.8-1.9-1.8-1.9.7-1.9,1.8.7,1.9,1.9,1.9ZM122,246.3v-.8c0-.3.2-.4.5-.3,1.4.2,3.2.3,4.4.3,3.5,0,4.2,0,4.2-.6s-.5-.6-3.3-.6-3.7,0-4.9,0c-.3,0-.4-.1-.4-.4v-.8c0-.3.1-.4.4-.4h.6c-.7-.2-1.1-.8-1.1-1.5s.5-1.3,1.5-1.4c2.2,0,5.9,0,8.4.2.3,0,.4.1.4.4v.9c0,.3-.1.4-.4.4-1.9-.1-5.5-.2-7.2-.2s-.8.2-.8.6.3.5.9.5c.9,0,1.8,0,2.7,0,3.9,0,5.2.5,5.2,2.2s-1.3,2.3-6.2,2.3-3.1-.1-4.5-.3c-.3,0-.4-.2-.4-.4ZM130.5,232c2.3,0,3.8,1.4,3.8,3.5s-1.5,3.6-3.8,3.6-3.8-1.4-3.8-3.6,1.5-3.5,3.8-3.5ZM124.4,238.5c0,.3-.2.5-.4.5h-1.1c-.3,0-.4-.2-.4-.5v-6.3c0-.3.2-.5.4-.5h1.1c.3,0,.4.2.4.5v6.3ZM114.7,238.7c0,3,.5,4.2,1.8,4.2s1.8-1.2,1.8-4.2-.5-4.2-1.8-4.2-1.8,1.2-1.8,4.2ZM116.5,232.6c2.6,0,3.7,1.9,3.7,6.1s-1.1,6.1-3.7,6.1-3.7-1.9-3.7-6.1,1.1-6.1,3.7-6.1ZM110.3,237.1c0,.4.2.5.6.5h.9c.3,0,.4.1.4.4v1c0,.3-.1.4-.4.4h-.8c-.3,0-.6-.1-.7-.3v7.2c0,.3-.2.5-.4.5h-1.1c-.3,0-.4-.2-.4-.5v-14.1c0-.3.2-.5.4-.5h1.1c.3,0,.4.2.4.5v4.9ZM98.3,243.5l.3-1c0-.2.2-.4.3-.4s.1,0,.2,0c1,.4,1.8.6,2.6.6,1.7,0,2.4-.8,2.4-2.9s-.1-4.4-.4-6.6c0-.3.1-.5.5-.5h1c.3,0,.4.1.5.4.3,2.1.4,3.9.4,6.6s-1.4,4.9-4.2,4.9-2-.2-3.1-.7c-.3-.1-.4-.3-.4-.5ZM94.6,240.1c0-.4-.2-.5-.6-.5h-1.1c-.3,0-.4-.1-.4-.4v-1c0-.3.1-.4.4-.4h1c.3,0,.6.1.7.3v-5.8c0-.3.2-.5.4-.5h1.1c.3,0,.4.2.4.5v14.1c0,.3-.2.5-.4.5h-1.1c-.3,0-.4-.2-.4-.5v-6.2ZM89.7,235.3c0,2-1.2,3.1-3.5,3.1s-5-.1-6.7-.3c-.3,0-.4-.2-.4-.4v-.9c0-.3.2-.4.5-.4,2,.2,3.8.3,6.4.3s1.6-.4,1.6-1.4,0-1.9-.1-2.6c0-.3.1-.5.4-.5h1c.3,0,.5.2.5.4,0,.8.1,2.1.1,2.7ZM90,244c0,2-1.3,3.1-3.6,3.1s-5.3-.1-7-.3c-.3,0-.4-.2-.4-.4v-.9c0-.3.2-.4.5-.4,2,.2,3.9.3,7,.3s1.6-.4,1.6-1.4,0-.8-.1-1.2c0-.3.1-.5.4-.5h1c.3,0,.5.2.5.4,0,.3.1.8.1,1.3ZM91.1,239.8v.9c0,.3-.1.4-.4.5-1,.1-2.9.2-6,.2-2.4,0-4.8,0-6-.2-.3,0-.4-.2-.4-.5v-.9c0-.3.2-.4.5-.4,1.3.1,3.2.2,6,.2s4.4,0,5.9-.2c.3,0,.5.1.5.4ZM66.6,239.7h-1.1c-.3,0-.4-.1-.5-.4-.3-1.2-.6-3-.6-4,0-2.3.9-3.2,3.2-3.2s2.4.1,3.7.3c.3,0,.4.2.4.5v1c0,.3-.2.5-.4.4-1.1-.2-1.8-.3-3.6-.3s-1.3.4-1.3,1.3.3,2.8.6,3.9c0,.3-.1.5-.4.5ZM61.8,234.3c0,.4.2.5.6.5h.9c.3,0,.4.1.4.4v.9c0,.3-.1.4-.4.4h-.8c-.3,0-.6-.1-.7-.3v4.3c0,.3-.2.5-.4.5h-1.1c-.3,0-.4-.2-.4-.5v-8.4c0-.3.2-.5.4-.5h1.1c.3,0,.4.2.4.5v2.1ZM65.1,244.4c-.8,1.6-3.1,2.6-5.1,2.5-.3,0-.4-.1-.4-.4v-1c0-.3.1-.4.4-.4,2.2,0,4.1-1.3,4.1-3v-.6c0-.3.2-.5.4-.5h1.1c.3,0,.4.2.4.5v.6c0,1.6,1.9,3,4.1,3s.4.1.4.4v1c0,.3-.1.4-.4.4-2,.1-4.2-.9-5.1-2.5ZM41.4,233.6v-.9c0-.3.1-.4.4-.4,2.1-.1,2.9-.2,3.9-.2,4.4,0,5.9.7,5.9,2.8s-1.5,2.8-5.7,2.8-2.5-.1-4.4-.3c-.3,0-.4-.2-.4-.4v-.9c0-.3.2-.4.5-.4,1.5.2,3.1.3,4.5.3,2.7,0,3.5-.2,3.5-1s-.9-1-3.9-1-1.9,0-3.9.2c-.3,0-.4-.1-.4-.4ZM46.1,247.1c-3.8,0-5.6-1-5.6-2.9s1.8-2.9,5.6-2.9,5.6.9,5.6,2.9-1.8,2.9-5.6,2.9ZM46.1,243c-2.6,0-3.6.3-3.6,1.2s1.1,1.2,3.6,1.2,3.6-.3,3.6-1.2-1-1.2-3.6-1.2ZM52.7,238.9v.9c0,.3-.1.4-.4.5-1,.1-2.9.2-6,.2-2.4,0-4.8,0-6-.2-.3,0-.4-.2-.4-.5v-.9c0-.3.2-.4.5-.4,1.3.1,3.2.2,6,.2s4.4,0,5.9-.2c.3,0,.5.1.5.4ZM317.5,271.4l.3-.9c0-.2.2-.3.4-.3s.1,0,.2,0c1.1.4,2,.6,2.7.6,1.6,0,2.5-.9,2.5-2.3s-.9-2.4-2.9-2.4-1.2,0-1.9.1c-.3,0-.4-.1-.4-.4v-1c0-.3.1-.4.4-.5.6-.1,1.3-.2,2.2-.2,3.1,0,4.6,1.4,4.6,4.3s-1.6,4.2-4.3,4.2-2.4-.3-3.5-.7c-.3-.1-.4-.3-.3-.6ZM314.1,268.1c0-.4-.2-.5-.6-.5h-1.1c-.3,0-.4-.1-.4-.4v-1c0-.3.1-.4.4-.4h1c.3,0,.6.1.7.3v-5.8c0-.3.2-.5.4-.5h1.1c.3,0,.4.2.4.5v14.1c0,.3-.2.5-.4.5h-1.1c-.3,0-.4-.2-.4-.5v-6.2ZM318.4,262.7c-.3,0-.4-.1-.4-.4v-1c0-.3.1-.4.4-.4h6.5c.3,0,.4.1.4.4v1c0,.3-.1.4-.4.4h-6.5ZM309.4,271.9c0,2-1.4,3.2-3.7,3.2s-5-.1-6.7-.3c-.3,0-.4-.2-.4-.4v-.9c0-.3.2-.4.5-.4,2,.2,3.7.3,6.7.3s1.7-.5,1.7-1.6,0-1.3-.1-1.7.2-.5.4-.5h1c.3,0,.4.2.5.4,0,.4.1,1.2.1,1.9ZM300.9,269.8c0,.3-.2.5-.4.5h-1.1c-.3,0-.4-.2-.4-.5v-9.6c0-.3.2-.5.4-.5h1.1c.3,0,.4.2.4.5v9.6ZM307,260c2.3,0,3.8,1.6,3.8,4.1s-1.5,4.1-3.8,4.1-3.8-1.6-3.8-4.1,1.5-4.1,3.8-4.1ZM307,266.5c1.1,0,1.9-.9,1.9-2.4s-.7-2.3-1.9-2.3-1.9.9-1.9,2.3.7,2.4,1.9,2.4ZM290,261.5c-2.5,0-3.3.3-3.3,1.1s.8,1.1,3.3,1.1,3.3-.3,3.3-1.1-.8-1.1-3.3-1.1ZM284.3,274.3v-.8c0-.3.2-.4.5-.3,1.3.2,3.2.3,4.5.3,3.5,0,4.1,0,4.1-.6s-.4-.6-3.2-.6-4,0-5,0c-.2,0-.4-.1-.4-.4v-.7c0-.3.1-.4.4-.4h.6c-.7-.2-1.1-.8-1.1-1.4s.4-1.2,1.6-1.2c2.2,0,5.8,0,8.4.2.3,0,.4.1.4.4v.8c0,.3-.1.4-.4.4-1.9-.1-5.5-.2-7.2-.2s-.8.2-.8.5.2.5.8.5c.9,0,1.9,0,2.8,0,4,0,5.1.5,5.1,2.1s-1.2,2.2-6.1,2.2-3.3-.1-4.6-.3c-.3,0-.4-.2-.3-.4ZM290.1,265.9c2,0,4.4,0,6-.2.3,0,.4.1.4.4v.8c0,.3-.1.4-.4.4-1,.1-2.9.2-6,.2-2.4,0-4.8,0-6.1-.2-.3,0-.4-.2-.4-.4v-.8c0-.3.2-.4.4-.4,1.3.1,3.2.2,6,.2ZM290,265.2c-3.8,0-5.3-.7-5.3-2.6s1.5-2.6,5.3-2.6,5.3.7,5.3,2.6-1.5,2.6-5.3,2.6ZM273.1,272c1.6,0,2.9-.1,4-.3.3,0,.5,0,.5.4v1c0,.3-.1.4-.4.4-1.1.2-2.4.3-4.1.3s-3.2,0-4.4-.2c-.3,0-.4-.2-.4-.5v-1c0-.3.2-.4.4-.4,1.1.2,2.7.3,4.3.3ZM273,269.5c-2.3,0-3.8-1.8-3.8-4.6s1.5-4.6,3.8-4.6,3.8,1.8,3.8,4.6-1.5,4.6-3.8,4.6ZM274.9,264.9c0-1.6-.7-2.8-1.9-2.8s-1.9,1.1-1.9,2.8.7,2.8,1.9,2.8,1.9-1.1,1.9-2.8ZM265.3,260.2c0-.3.2-.5.4-.5h1.1c.3,0,.4.2.4.5v14.1c0,.3-.2.5-.4.5h-1.1c-.3,0-.4-.2-.4-.5v-14.1ZM251.2,271.8c0-1.9,1-2.7,3.3-2.7s5,.1,6.8.3c.3,0,.4.2.4.4v.9c0,.3-.1.4-.4.4-2.1-.2-4.1-.3-6.6-.3s-1.6.3-1.6,1.4,0,1.6,0,2.2c0,.3-.2.5-.4.5h-1c-.3,0-.5-.2-.5-.4,0-.6,0-1.5,0-2.7ZM258.6,260.1h1.1c.3,0,.4.2.4.5v2c0,1.9,1.1,3.3,2.6,3.3s.4.1.4.4v.9c0,.3-.1.4-.4.4-1.8,0-3.1-1.2-3.6-2.5-.5,1.3-1.8,2.5-3.6,2.5s-.4-.1-.4-.4v-.9c0-.3.1-.4.4-.4,1.5,0,2.6-1.4,2.6-3.3v-2c0-.3.2-.5.4-.5ZM253.1,267.4c0,.3-.2.5-.4.5h-1.1c-.3,0-.4-.2-.4-.5v-7.2c0-.3.2-.5.4-.5h1.1c.3,0,.4.2.4.5v7.2ZM243.3,268.3c0,1.5.7,2.3,1.8,2.3s1.8-.8,1.8-2.3-.6-2.3-1.8-2.3-1.8.8-1.8,2.3ZM245.1,264.1c2.3,0,3.7,1.5,3.7,4.2s-1.4,4.2-3.7,4.2-3.7-1.5-3.7-4.2,1.4-4.2,3.7-4.2ZM237.4,268.1c0-.4-.2-.5-.6-.5h-1.1c-.3,0-.4-.1-.4-.4v-1c0-.3.1-.4.4-.4h1c.3,0,.6.1.7.3v-5.8c0-.3.2-.5.4-.5h1.1c.3,0,.4.2.4.5v14.1c0,.3-.2.5-.4.5h-1.1c-.3,0-.4-.2-.4-.5v-6.2ZM244,260.8v-1.1c0-.3.1-.4.4-.4h1.1c.3,0,.4.1.4.4v.9c0,.2-.1.4-.3.5h3.1c.3,0,.4.1.4.4v1c0,.3-.1.4-.4.4h-7.6c-.3,0-.4-.1-.4-.4v-1c0-.3.1-.4.4-.4h2.4c.3,0,.4,0,.4-.3ZM231.2,262.7v4c0,2,1.2,3.7,2.6,3.9.3,0,.4.2.4.5v1c0,.3-.1.4-.4.4-1.6-.2-3.1-1.5-3.6-3.1-.4,1.6-1.9,2.9-3.6,3.1-.3,0-.4-.1-.4-.4v-1c0-.3.1-.4.4-.5,1.4-.2,2.6-1.9,2.6-3.9v-4s-2.5,0-2.5,0c-.3,0-.4-.1-.4-.4v-1c0-.3.1-.4.4-.4h7c.3,0,.4.1.4.4v1c0,.3-.1.4-.4.4h-2.5ZM224.2,274.3c0,.3-.2.5-.4.5h-1.1c-.3,0-.4-.2-.4-.5v-14.1c0-.3.2-.5.4-.5h1.1c.3,0,.4.2.4.5v14.1ZM209.4,274.3v-1c0-.3.3-.4.5-.3.5.1,1.2.3,1.7.3s.8-.2.8-.8c0-1.2,0-2.5-.1-3.4,0-.3.1-.4.4-.4h1.1c.3,0,.5.1.5.4,0,.9.1,2.3.1,3.7s-.8,2.3-2.7,2.3-1.4-.1-2-.3c-.3,0-.4-.2-.4-.4ZM211.5,265.5c1.1,0,1.9-.8,1.9-1.9s-.7-1.9-1.9-1.9-1.9.7-1.9,1.9.7,1.9,1.9,1.9ZM205.9,272.4c-.8,0-1.1.2-1.1.6s.4.6,1.1.6,1.1-.2,1.1-.6-.4-.6-1.1-.6ZM205,268.3v-.4c0-.3.1-.4.4-.4h1.1c.3,0,.4.1.4.4h0c0,.4-.1.6-.3.7h2.2c.2,0,.4.1.4.4v.9c0,.2-.2.4-.4.4h-6c-.2,0-.4-.1-.4-.4v-.9c0-.2.2-.4.4-.4h1.7c.3,0,.4-.1.4-.3ZM211.5,260c2.3,0,3.8,1.4,3.8,3.6s-1.5,3.6-3.8,3.6-3.8-1.5-3.8-3.6,1.5-3.6,3.8-3.6ZM203.7,264.5c0-.4-.2-.5-.6-.5h-1.1c-.3,0-.4-.1-.4-.4v-.9c0-.3.1-.4.4-.4h1c.3,0,.6.1.7.3v-2.3c0-.3.2-.5.4-.5h1.1c.3,0,.4.2.4.5v6.3c0,.3-.2.5-.4.5h-1.1c-.3,0-.4-.2-.4-.5v-2ZM205.9,275.1c-1.9,0-2.9-.8-2.9-2.1s1-2.1,2.9-2.1,2.9.8,2.9,2.1-1,2.1-2.9,2.1ZM193.9,273.5c-2.7,0-4.9-.1-6-.3-.3,0-.4-.2-.4-.5v-.9c0-.3.2-.4.5-.4,1.1.1,3.4.3,5.2.3s.6-.2.6-.5v-3.9c0-.3.2-.5.4-.5h1.1c.3,0,.4.2.4.5v3.7c0,.3-.2.6-.4.7,1.4,0,3.1-.2,4.6-.3.3,0,.5.1.5.4v.9c0,.3-.1.4-.4.5-1.3.2-3.3.3-6,.3ZM193.1,262.5c-1.8,0-2.4.7-2.4,2.6s.1,2.3.3,3.2c0,.3,0,.4-.3.4l-1.2.2c-.3,0-.4,0-.5-.3-.2-1.2-.3-2.2-.3-3.9,0-2.7,1.4-4.1,4-4.1s3.9,0,5.8.3c.3,0,.4.2.4.4v1c0,.3-.2.4-.4.4-1.7-.2-3.4-.3-5.4-.3ZM169.6,268.9c-.3,0-.6,0-.6-.4v-1.1c0-.3.1-.4.4-.4,2.3,0,3.8-1.5,3.8-3.6v-2.4c0-.3.2-.5.4-.5h1.1c.3,0,.4.2.4.5v2.4c0,2.1,1.6,3.6,3.8,3.6s.4.1.4.4v1.1c0,.4-.3.4-.6.4-2,0-3.9-1.2-4.7-2.8-.7,1.7-2.6,2.8-4.6,2.8ZM180.7,271.8v.9c0,.3-.1.4-.4.5-1.3.2-3.3.3-6,.3s-4.9-.1-6-.3c-.3,0-.4-.2-.4-.5v-.9c0-.3.2-.4.5-.4,1.3.2,3.6.3,6,.3s4.3-.1,5.9-.3c.3,0,.5.1.5.4ZM154.8,268.9c-.3,0-.6,0-.6-.4v-1.1c0-.3.1-.4.4-.4,2.3,0,3.8-1.5,3.8-3.6v-2.4c0-.3.2-.5.4-.5h1.1c.3,0,.4.2.4.5v2.4c0,2.1,1.6,3.6,3.8,3.6s.4.1.4.4v1.1c0,.4-.3.4-.6.4-2,0-3.9-1.2-4.7-2.8-.7,1.7-2.6,2.8-4.6,2.8ZM165.9,271.8v.9c0,.3-.1.4-.4.5-1.3.2-3.3.3-6,.3s-4.9-.1-6-.3c-.3,0-.4-.2-.4-.5v-.9c0-.3.2-.4.5-.4,1.3.2,3.6.3,6,.3s4.3-.1,5.9-.3c.3,0,.5.1.5.4ZM144.7,273.5c-2.6,0-4.9-.1-6-.3-.3,0-.4-.2-.4-.5v-.9c0-.3.2-.4.5-.4,1.2.2,2.9.3,4.4.3s.6-.2.6-.5v-1.9s0,0,0,0c-1.2,0-2.9-.1-4.3-.3-.2,0-.4-.2-.3-.4l.2-1c0-.3.2-.4.4-.3,1.2.2,2.7.3,4,.3,3.3,0,4-.2,4-.9s-.7-.9-3.1-.9-3.1,0-4.6,0-.4-.2-.4-.4v-.9c0-.2.1-.4.4-.4h.8c-.8-.3-1.3-1-1.3-1.9s.6-1.6,1.9-1.6c.6,0,1.3,0,2,0,2,0,4.1.1,5.5.3.2,0,.3.2.3.4v1c0,.3-.2.4-.4.4-1.7-.2-4.2-.3-6.4-.3s-1.1.2-1.1.7.4.8,1.1.8h2.1c3.9,0,5,.6,5,2.6s-.9,2.5-4,2.7v1.8c0,.3-.2.6-.4.7,1.9,0,4.2-.2,5.4-.3.3,0,.5.1.5.4v.9c0,.3-.1.4-.4.5-1.3.2-3.3.3-6,.3ZM128.6,267.5c-.2,0-.5-.1-.6-.3v7.2c0,.3-.1.4-.4.4h-1c-.3,0-.4-.1-.4-.4v-14c0-.3.1-.4.4-.4h1c.3,0,.4.1.4.4v4.8c0,.3.1.5.5.5h1.4c.2-3.4,1.3-5,3.4-5s3.4,1.9,3.4,6.1-1.1,6.1-3.4,6.1-3.2-1.7-3.4-5.3h-1.3ZM123.6,259.7h1c.3,0,.4.1.4.4v14.2c0,.3-.1.4-.4.4h-1c-.3,0-.4-.1-.4-.4v-14.2c0-.3.1-.4.4-.4ZM131.8,266.7c0,3,.5,4.2,1.5,4.2s1.5-1.3,1.5-4.2-.5-4.2-1.5-4.2-1.5,1.2-1.5,4.2ZM114.6,267.5c0,0-.1,0-.2,0h-1.4c-.2,0-.5-.1-.6-.3v7.2c0,.3-.1.4-.4.4h-1c-.3,0-.4-.1-.4-.4v-14c0-.3.1-.4.4-.4h1c.3,0,.4.1.4.4v4.8c0,.3.1.5.5.5h1.5c0-.5,0-1,0-1.5,0-2.4.8-3.3,3-3.3s2.2.1,3.2.3c.3,0,.4.2.4.5v1c0,.3-.2.5-.4.4-.8-.2-1.9-.3-2.9-.3s-1.4.3-1.4,1.6c0,2.5.2,5.3.6,7.8,0,.3-.1.4-.4.4h-1c-.3,0-.4-.1-.5-.4-.3-1.5-.4-3-.5-4.6ZM108.1,259.7h1c.3,0,.4.1.4.4v14.2c0,.3-.1.4-.4.4h-1c-.3,0-.4-.1-.4-.4v-14.2c0-.3.1-.4.4-.4ZM89,273.3l-.2-4.4c0-.3.2-.4.4-.4h1.1c.3,0,.4.2.4.4v.8s6.8,0,6.8,0v-.8c0-.3.2-.4.5-.4h1.1c.3,0,.5.2.4.4l-.2,4.4c0,1-.7,1.6-1.9,1.6h-6.4c-1.2,0-1.9-.6-1.9-1.6ZM97.7,261.9v.4c0,1.8,1.1,3.1,2.6,3.1s.4.1.4.4v.9c0,.3-.1.4-.4.4-1.8,0-3.1-1.1-3.6-2.4-.5,1.3-1.8,2.4-3.6,2.4s-.4-.1-.4-.4v-.9c0-.3.1-.4.4-.4,1.5,0,2.6-1.3,2.6-3.1v-.4s-2.5,0-2.5,0c-.3,0-.4-.1-.4-.4v-.9c0-.3.1-.4.4-.4h7c.3,0,.4.1.4.4v.9c0,.3-.1.4-.4.4h-2.5ZM90.7,266.9c0,.3-.2.5-.4.5h-1.1c-.3,0-.4-.2-.4-.5v-6.7c0-.3.2-.5.4-.5h1.1c.3,0,.4.2.4.5v6.7ZM90.9,271.4v1.1c0,.4.3.6.8.6h4.9c.5,0,.7-.2.8-.6v-1.1c0,0-6.5,0-6.5,0ZM79.8,275.1c-3.8,0-5.6-1-5.6-2.9s1.5-2.8,4.7-2.9v-.6c0-.3-.1-.4-.4-.4-1.3,0-3.3,0-4.6-.2-.3,0-.4-.2-.4-.5v-.9c0-.3.2-.4.5-.4,1.2.1,3.6.2,6,.2,3.1,0,4.9,0,5.9-.2.3,0,.5.1.5.4v.9c0,.3-.1.4-.4.5-1.3.1-3.5.2-5.2.2.1,0,.2.2.2.4v.6c3,.2,4.5,1.1,4.5,2.9s-1.8,2.9-5.6,2.9ZM79.9,263.5c-.7,1.2-2.7,2.2-4.8,2.1-.3,0-.4-.1-.4-.4v-1c0-.3.1-.4.4-.4,2.2,0,3.7-.8,3.8-1.9h-3.6c-.3,0-.4-.1-.4-.4v-.9c0-.3.1-.4.4-.4h9.1c.3,0,.4.1.4.4v.9c0,.3-.1.4-.4.4h-3.6c.1,1.1,1.6,1.9,3.8,1.9s.4.1.4.4v1c0,.3-.1.4-.4.4-2.1.1-4.1-.9-4.8-2.1ZM79.8,271c-2.6,0-3.6.3-3.6,1.2s1.1,1.2,3.6,1.2,3.6-.3,3.6-1.2-1-1.2-3.6-1.2ZM66.1,268.3c0,1.5.7,2.3,1.8,2.3s1.8-.8,1.8-2.3-.6-2.3-1.8-2.3-1.8.8-1.8,2.3ZM67.9,264.1c2.3,0,3.7,1.5,3.7,4.2s-1.4,4.2-3.7,4.2-3.7-1.5-3.7-4.2,1.4-4.2,3.7-4.2ZM60.2,268.1c0-.4-.2-.5-.6-.5h-1.1c-.3,0-.4-.1-.4-.4v-1c0-.3.1-.4.4-.4h1c.3,0,.6.1.7.3v-5.8c0-.3.2-.5.4-.5h1.1c.3,0,.4.2.4.5v14.1c0,.3-.2.5-.4.5h-1.1c-.3,0-.4-.2-.4-.5v-6.2ZM66.8,260.8v-1.1c0-.3.1-.4.4-.4h1.1c.3,0,.4.1.4.4v.9c0,.2-.1.4-.3.5h3.1c.3,0,.4.1.4.4v1c0,.3-.1.4-.4.4h-7.6c-.3,0-.4-.1-.4-.4v-1c0-.3.1-.4.4-.4h2.4c.3,0,.4,0,.4-.3ZM55.4,263.3c0,2-1.2,3.1-3.5,3.1s-5-.1-6.7-.3c-.3,0-.4-.2-.4-.4v-.9c0-.3.2-.4.5-.4,2,.2,3.8.3,6.4.3s1.6-.4,1.6-1.4,0-1.9-.1-2.6c0-.3.1-.5.4-.5h1c.3,0,.5.2.5.4,0,.8.1,2.1.1,2.7ZM55.6,272c0,2-1.3,3.1-3.6,3.1s-5.3-.1-7-.3c-.3,0-.4-.2-.4-.4v-.9c0-.3.2-.4.5-.4,2,.2,3.9.3,7,.3s1.6-.4,1.6-1.4,0-.8-.1-1.2c0-.3.1-.5.4-.5h1c.3,0,.5.2.5.4,0,.3.1.8.1,1.3ZM56.8,267.8v.9c0,.3-.1.4-.4.5-1,.1-2.9.2-6,.2-2.4,0-4.8,0-6-.2-.3,0-.4-.2-.4-.5v-.9c0-.3.2-.4.5-.4,1.3.1,3.2.2,6,.2s4.4,0,5.9-.2c.3,0,.5.1.5.4ZM313,298.6c-.3,0-.4-.2-.4-.5v-.9c0-.3.2-.4.5-.4,1.3.2,3.6.3,6,.3s4.3-.1,5.9-.3c.3,0,.5.1.5.4v.9c0,.3-.1.4-.4.5-1.2.2-3.6.3-5.5.3.3.1.4.4.4.7v2.2c0,.3-.2.5-.4.5h-1.1c-.3,0-.4-.2-.4-.5v-2.4c0-.4-.2-.5-.6-.5-1.5,0-3.3-.1-4.4-.3ZM313.8,289.6c0-.9.7-1.4,1.9-1.4,4,0,6.2,0,7.6.3.2,0,.3.2.3.4v1c0,.3-.2.4-.4.4-1.8-.2-3.8-.3-6.4-.3s-1.1.2-1.1.6.3.5,1.1.5h2.1c4,0,5,.5,5,2.3s-1.1,2.4-6,2.4-2.9-.1-4.3-.3c-.2,0-.4-.2-.3-.4l.2-.9c0-.3.2-.4.4-.3,1.2.2,2.7.3,4,.3,3.3,0,4,0,4-.6s-.5-.6-3.1-.6-3.1,0-4.6,0-.4-.2-.4-.4v-.8c0-.2.1-.4.4-.4h.7c-.8-.3-1.3-.8-1.3-1.6ZM300.9,297.8c0,.3-.2.5-.4.5h-1.1c-.3,0-.4-.2-.4-.5v-9.6c0-.3.2-.5.4-.5h1.1c.3,0,.4.2.4.5v9.6ZM302.7,295.5l.2-.8c0-.3.2-.4.6-.3,1.1.3,1.9.4,2.8.4,1.8,0,2.5-.4,2.5-1.1s-.7-1.1-2.9-1.1-1.4,0-2,.1c-.3,0-.5,0-.5-.4v-.9c0-.3.1-.4.4-.5.6-.1,1.4-.2,2.1-.2,3.5,0,4.7.8,4.7,2.9s-1.3,2.8-4.4,2.8-2.2-.2-3.3-.5c-.3-.1-.4-.3-.3-.6ZM303.6,289.9c-.3,0-.4-.1-.4-.4v-.9c0-.3.1-.4.4-.4h6.5c.3,0,.4.1.4.4v.9c0,.3-.1.4-.4.4h-6.5ZM309.4,299.9c0,2-1.4,3.2-3.7,3.2s-5-.1-6.7-.3c-.3,0-.4-.2-.4-.4v-.9c0-.3.2-.4.5-.4,2,.2,3.7.3,6.7.3s1.7-.5,1.7-1.6,0-.9-.1-1.3.2-.5.4-.5h1c.3,0,.4.2.5.4,0,.4.1.9.1,1.5ZM290,289.5c-2.5,0-3.3.3-3.3,1.1s.8,1.1,3.3,1.1,3.3-.3,3.3-1.1-.8-1.1-3.3-1.1ZM284.3,302.3v-.8c0-.3.2-.4.5-.3,1.3.2,3.2.3,4.5.3,3.5,0,4.1,0,4.1-.6s-.4-.6-3.2-.6-4,0-5,0c-.2,0-.4-.1-.4-.4v-.7c0-.3.1-.4.4-.4h.6c-.7-.2-1.1-.8-1.1-1.4s.4-1.2,1.6-1.2c2.2,0,5.8,0,8.4.2.3,0,.4.1.4.4v.8c0,.3-.1.4-.4.4-1.9-.1-5.5-.2-7.2-.2s-.8.2-.8.5.2.5.8.5c.9,0,1.9,0,2.8,0,4,0,5.1.5,5.1,2.1s-1.2,2.2-6.1,2.2-3.3-.1-4.6-.3c-.3,0-.4-.2-.3-.4ZM290.1,293.9c2,0,4.4,0,6-.2.3,0,.4.1.4.4v.8c0,.3-.1.4-.4.4-1,.1-2.9.2-6,.2-2.4,0-4.8,0-6.1-.2-.3,0-.4-.2-.4-.4v-.8c0-.3.2-.4.4-.4,1.3.1,3.2.2,6,.2ZM290,293.2c-3.8,0-5.3-.7-5.3-2.6s1.5-2.6,5.3-2.6,5.3.7,5.3,2.6-1.5,2.6-5.3,2.6ZM271.7,298.5v.2c0,1.4,1.7,2.5,3.9,2.5s.4.1.4.4v1c0,.3-.1.4-.4.4-1.9.1-4.1-.8-4.9-2.2-.8,1.4-3,2.3-4.9,2.2-.3,0-.4-.1-.4-.4v-1c0-.3.1-.4.4-.4,2.3,0,3.9-1,3.9-2.5v-.2s-3.7,0-3.7,0c-.3,0-.4-.1-.4-.4v-.9c0-.3.1-.4.4-.4h9.3c.3,0,.4.1.4.4v.9c0,.3-.1.4-.4.4h-3.7ZM272.2,288.3v-.8c0-.3.1-.4.4-.4h1.1c.3,0,.4.1.4.4v.7c0,.2-.1.4-.3.5h2.8c.3,0,.4.1.4.4v.9c0,.3-.1.4-.4.4h-2.5s0,.2,0,.2c0,1.8,1.1,3.2,2.6,3.2s.4.1.4.4v.9c0,.3-.1.4-.4.4-1.8,0-3.1-1.1-3.6-2.4-.5,1.3-1.8,2.4-3.6,2.4s-.4-.1-.4-.4v-.9c0-.3.1-.4.4-.4,1.5,0,2.6-1.3,2.6-3.2v-.2s-2.5,0-2.5,0c-.3,0-.4-.1-.4-.4v-.9c0-.3.1-.4.4-.4h2.1c.3,0,.4,0,.4-.3ZM265.6,292.8c0-.4-.2-.5-.6-.5h-1.1c-.3,0-.4-.1-.4-.4v-.9c0-.3.1-.4.4-.4h1c.3,0,.6.1.7.3v-2.6c0-.3.2-.5.4-.5h1.1c.3,0,.4.2.4.5v6.8c0,.3-.2.5-.4.5h-1.1c-.3,0-.4-.2-.4-.5v-2.2ZM256.7,294.7c0,3,.6,4.2,1.9,4.2s1.9-1.2,1.9-4.2-.6-4.2-1.9-4.2-1.9,1.2-1.9,4.2ZM258.6,288.6c2.6,0,3.8,1.9,3.8,6.1s-1.2,6.1-3.8,6.1-3.8-1.9-3.8-6.1,1.2-6.1,3.8-6.1ZM250.8,296.1c0-.4-.2-.5-.6-.5h-1.1c-.3,0-.4-.1-.4-.4v-1c0-.3.1-.4.4-.4h1c.3,0,.6.1.7.3v-5.8c0-.3.2-.5.4-.5h1.1c.3,0,.4.2.4.5v14.1c0,.3-.2.5-.4.5h-1.1c-.3,0-.4-.2-.4-.5v-6.2ZM235,299.5l.3-1c0-.2.2-.4.3-.4s.1,0,.2,0c1,.4,1.8.6,2.6.6,1.7,0,2.4-.8,2.4-2.9s-.1-4.4-.4-6.6c0-.3.1-.5.5-.5h1c.3,0,.4.1.5.4.3,2.1.4,3.9.4,6.6s-1.4,4.9-4.2,4.9-2-.2-3.1-.7c-.3-.1-.4-.3-.4-.5ZM231.3,296.1c0-.4-.2-.5-.6-.5h-1.1c-.3,0-.4-.1-.4-.4v-1c0-.3.1-.4.4-.4h1c.3,0,.6.1.7.3v-5.8c0-.3.2-.5.4-.5h1.1c.3,0,.4.2.4.5v14.1c0,.3-.2.5-.4.5h-1.1c-.3,0-.4-.2-.4-.5v-6.2ZM220.4,292.5c0-2.6,1-3.7,3.3-3.7s2.4.1,3.7.3c.3,0,.4.2.4.5v1c0,.3-.2.5-.4.4-1.1-.2-2.1-.3-3.3-.3s-1.7.5-1.7,2c0,2.5.2,4.9.6,7.4,0,.3-.1.5-.4.5h-1.1c-.3,0-.4-.1-.5-.4-.4-2.5-.6-4.9-.6-7.6ZM216.5,296.1c0-.4-.2-.5-.6-.5h-1.1c-.3,0-.4-.1-.4-.4v-1c0-.3.1-.4.4-.4h1c.3,0,.6.1.7.3v-5.8c0-.3.2-.5.4-.5h1.1c.3,0,.4.2.4.5v14.1c0,.3-.2.5-.4.5h-1.1c-.3,0-.4-.2-.4-.5v-6.2ZM211.6,291.3c0,2-1.2,3.1-3.5,3.1s-5-.1-6.7-.3c-.3,0-.4-.2-.4-.4v-.9c0-.3.2-.4.5-.4,2,.2,3.8.3,6.4.3s1.6-.4,1.6-1.4,0-1.9-.1-2.6c0-.3.1-.5.4-.5h1c.3,0,.5.2.5.4,0,.8.1,2.1.1,2.7ZM211.9,300c0,2-1.3,3.1-3.6,3.1s-5.3-.1-7-.3c-.3,0-.4-.2-.4-.4v-.9c0-.3.2-.4.5-.4,2,.2,3.9.3,7,.3s1.6-.4,1.6-1.4,0-.8-.1-1.2c0-.3.1-.5.4-.5h1c.3,0,.5.2.5.4,0,.3.1.8.1,1.3ZM213,295.8v.9c0,.3-.1.4-.4.5-1,.1-2.9.2-6,.2-2.4,0-4.8,0-6-.2-.3,0-.4-.2-.4-.5v-.9c0-.3.2-.4.5-.4,1.3.1,3.2.2,6,.2s4.4,0,5.9-.2c.3,0,.5.1.5.4ZM191.6,297.2c0-1.2-.7-1.7-2.7-1.7s-1.4,0-2.3,0-.4-.1-.4-.4v-.9c0-.3.1-.4.4-.4h.5c-.7-.5-1.1-1.4-1.1-2.5,0-1.6,1.1-2.5,3.1-2.5s2.2,0,3.5.2c.3,0,.4.2.4.4v1.1c0,.3-.2.4-.4.4-1.4-.2-2.4-.3-3-.3-1.1,0-1.6.5-1.6,1.5s.5,1.5,1.5,1.5c2.8,0,4.1,1.1,4.1,3.4s-1.3,3.6-4,3.6-2.3-.2-3.7-.7c-.3-.1-.4-.3-.3-.5l.3-1c0-.2.2-.3.3-.3s.1,0,.2,0c1,.4,1.9.6,2.8.6,1.8,0,2.5-.5,2.5-1.7ZM182.1,296.1c0-.4-.2-.5-.6-.5h-1.1c-.3,0-.4-.1-.4-.4v-1c0-.3.1-.4.4-.4h1c.3,0,.6.1.7.3v-5.8c0-.3.2-.5.4-.5h1.1c.3,0,.4.2.4.5v14.1c0,.3-.2.5-.4.5h-1.1c-.3,0-.4-.2-.4-.5v-6.2ZM175.1,288.6c2.6,0,3.8,1.9,3.8,6.1s-1.2,6.1-3.8,6.1-3.8-1.9-3.8-6.1,1.2-6.1,3.8-6.1ZM173.2,294.7c0,3,.6,4.2,1.9,4.2s1.9-1.2,1.9-4.2-.6-4.2-1.9-4.2-1.9,1.2-1.9,4.2ZM169,302.3c0,.3-.2.5-.4.5h-1.1c-.3,0-.4-.2-.4-.5v-14.1c0-.3.2-.5.4-.5h1.1c.3,0,.4.2.4.5v14.1ZM161.9,290.5l-.4,4.7c.7,0,1.2,0,1.6-.1.3,0,.4.1.4.3v1.1c0,.2-.1.4-.4.4-1,.1-2.7.2-5,.2s-4-.1-5-.2c-.3,0-.4-.2-.4-.4v-1.1c0-.2.2-.4.4-.3.4,0,.9,0,1.6.1l-.4-4.7h-.9c-.3,0-.4-.1-.4-.4v-1c0-.3.1-.4.4-.4h9.4c.3,0,.4.1.4.4v1c0,.3-.1.4-.4.4h-.9ZM164.6,299.8v.9c0,.3-.1.4-.4.5-1.3.2-3.3.3-6,.3s-4.9-.1-6-.3c-.3,0-.4-.2-.4-.5v-.9c0-.3.2-.4.5-.4,1.3.2,3.6.3,6,.3s4.3-.1,5.9-.3c.3,0,.5.1.5.4ZM159.5,295.2l.4-4.7h-3.7s.4,4.7.4,4.7c.4,0,.9,0,1.4,0s1,0,1.4,0ZM138.6,296.9c-.3,0-.6,0-.6-.4v-1.1c0-.3.1-.4.4-.4,2.3,0,3.8-1.5,3.8-3.6v-2.4c0-.3.2-.5.4-.5h1.1c.3,0,.4.2.4.5v2.4c0,2.1,1.6,3.6,3.8,3.6s.4.1.4.4v1.1c0,.4-.3.4-.6.4-2,0-3.9-1.2-4.7-2.8-.7,1.7-2.6,2.8-4.6,2.8ZM149.8,299.8v.9c0,.3-.1.4-.4.5-1.3.2-3.3.3-6,.3s-4.9-.1-6-.3c-.3,0-.4-.2-.4-.5v-.9c0-.3.2-.4.5-.4,1.3.2,3.6.3,6,.3s4.3-.1,5.9-.3c.3,0,.5.1.5.4ZM127,299.4l.3-.9c0-.2.2-.3.4-.3s.1,0,.2,0c1.1.4,2,.6,2.7.6,1.6,0,2.6-.9,2.6-2.3s-.9-2.4-2.9-2.4-1.2,0-1.9.1c-.3,0-.4-.1-.4-.4v-1c0-.3.1-.4.4-.5.6-.1,1.3-.2,2.2-.2,3.1,0,4.6,1.4,4.6,4.3s-1.6,4.2-4.3,4.2-2.4-.3-3.5-.7c-.3-.1-.4-.3-.3-.6ZM123.6,296.1c0-.4-.2-.5-.6-.5h-1.1c-.3,0-.4-.1-.4-.4v-1c0-.3.1-.4.4-.4h1c.3,0,.6.1.7.3v-5.8c0-.3.2-.5.4-.5h1.1c.3,0,.4.2.4.5v14.1c0,.3-.2.5-.4.5h-1.1c-.3,0-.4-.2-.4-.5v-6.2ZM127.9,290.7c-.3,0-.4-.1-.4-.4v-1c0-.3.1-.4.4-.4h6.5c.3,0,.4.1.4.4v1c0,.3-.1.4-.4.4h-6.5ZM116.6,293.4c1.1,0,1.9-.7,1.9-1.9s-.7-1.8-1.9-1.8-1.9.7-1.9,1.8.7,1.9,1.9,1.9ZM108.1,302.3v-.9c0-.3.2-.4.5-.3,1.4.2,3.2.3,4.4.3,3.5,0,4.2,0,4.2-.6s-.5-.6-3.3-.6-3.7,0-4.9,0c-.3,0-.4-.1-.4-.4v-.8c0-.3.1-.4.4-.4h.6c-.7-.2-1.1-.8-1.1-1.5s.5-1.3,1.5-1.4c2.2,0,5.9,0,8.4.2.3,0,.4.1.4.4v.9c0,.3-.1.4-.4.4-1.9-.1-5.5-.2-7.2-.2s-.8.2-.8.6.3.5.9.5c.9,0,1.8,0,2.7,0,3.9,0,5.2.5,5.2,2.2s-1.3,2.3-6.2,2.3-3.1-.1-4.5-.3c-.3,0-.4-.2-.4-.4ZM116.6,288c2.3,0,3.8,1.4,3.8,3.5s-1.5,3.6-3.8,3.6-3.8-1.4-3.8-3.6,1.5-3.5,3.8-3.5ZM110.5,294.5c0,.3-.2.5-.4.5h-1.1c-.3,0-.4-.2-.4-.5v-6.3c0-.3.2-.5.4-.5h1.1c.3,0,.4.2.4.5v6.3ZM102.5,288.6c2.6,0,3.8,1.9,3.8,6.1s-1.2,6.1-3.8,6.1-3.8-1.9-3.8-6.1,1.2-6.1,3.8-6.1ZM100.6,294.7c0,3,.6,4.2,1.9,4.2s1.9-1.2,1.9-4.2-.6-4.2-1.9-4.2-1.9,1.2-1.9,4.2ZM96.4,302.3c0,.3-.2.5-.4.5h-1.1c-.3,0-.4-.2-.4-.5v-14.1c0-.3.2-.5.4-.5h1.1c.3,0,.4.2.4.5v14.1ZM81.9,294.4v3.5c.1.5.4.7.9.7h1.8c.5,0,.7-.2.7-.7v-3.5c.1,0-3.3,0-3.3,0ZM80.2,288.8h1c.3,0,.5.2.5.4v3.3c0,0,3.6,0,3.6,0v-3.3c0-.3.3-.4.6-.4h1c.3,0,.5.2.5.5l-.3,9.4c0,1.1-.8,1.8-2.1,1.8h-3c-1.3,0-2-.7-2.1-1.8l-.3-9.4c0-.3.2-.5.5-.5ZM75.9,296.1c0-.4-.2-.5-.6-.5h-1.1c-.3,0-.4-.1-.4-.4v-1c0-.3.1-.4.4-.4h1c.3,0,.6.1.7.3v-5.8c0-.3.2-.5.4-.5h1.1c.3,0,.4.2.4.5v14.1c0,.3-.2.5-.4.5h-1.1c-.3,0-.4-.2-.4-.5v-6.2ZM66,301.5c-2.6,0-4.9-.1-6-.3-.3,0-.4-.2-.4-.5v-.9c0-.3.2-.4.5-.4,1.2.2,2.9.3,4.4.3s.6-.2.6-.5v-1.9s0,0,0,0c-1.2,0-2.9-.1-4.3-.3-.2,0-.4-.2-.3-.4l.2-1c0-.3.2-.4.4-.3,1.2.2,2.7.3,4,.3,3.3,0,4-.2,4-.9s-.7-.9-3.1-.9-3.1,0-4.6,0-.4-.2-.4-.4v-.9c0-.2.1-.4.4-.4h.8c-.8-.3-1.3-1-1.3-1.9s.6-1.6,1.9-1.6c.6,0,1.3,0,2,0,2,0,4.1.1,5.5.3.2,0,.3.2.3.4v1c0,.3-.2.4-.4.4-1.7-.2-4.2-.3-6.4-.3s-1.1.2-1.1.7.4.8,1.1.8h2.1c3.9,0,5,.6,5,2.6s-.9,2.5-4,2.7v1.8c0,.3-.2.6-.4.7,1.9,0,4.2-.2,5.4-.3.3,0,.5.1.5.4v.9c0,.3-.1.4-.4.5-1.3.2-3.3.3-6,.3ZM50.4,289.3c0-.6.4-1.1,1-1.2-.1-.3-.3-.4-.7-.4s-.2,0-.2-.2v-.4c0-.1,0-.2.2-.2,1.3,0,2.2.9,2.2,2.2s-.5,1.4-1.3,1.4-1.3-.5-1.3-1.2ZM43.1,294.7c0,3,.6,4.2,1.9,4.2s1.9-1.2,1.9-4.2-.6-4.2-1.9-4.2-1.9,1.2-1.9,4.2ZM45,288.6c2.6,0,3.8,1.9,3.8,6.1s-1.2,6.1-3.8,6.1-3.8-1.9-3.8-6.1,1.2-6.1,3.8-6.1ZM37.3,296.1c0-.4-.2-.5-.6-.5h-1.1c-.3,0-.4-.1-.4-.4v-1c0-.3.1-.4.4-.4h1c.3,0,.6.1.7.3v-5.8c0-.3.2-.5.4-.5h1.1c.3,0,.4.2.4.5v14.1c0,.3-.2.5-.4.5h-1.1c-.3,0-.4-.2-.4-.5v-6.2ZM319,329.5c-2.6,0-4.9-.1-6-.3-.3,0-.4-.2-.4-.5v-.9c0-.3.2-.4.5-.4,1.2.2,2.9.3,4.4.3s.6-.2.6-.5v-2.2s-1.9,0-1.9,0c-1.3,0-2-.7-2.1-1.8l-.3-6.1c0-.3.2-.4.4-.4h1.1c.3,0,.4.2.4.4v1.7c0,0,6.5,0,6.5,0v-1.7c0-.3.2-.4.5-.4h1.1c.3,0,.5.2.4.4l-.3,6.1c0,1.1-.8,1.8-2.1,1.8h-1.9s0,2,0,2c0,.3-.2.6-.4.7,1.9,0,4.2-.2,5.4-.3.3,0,.5.1.5.4v.9c0,.3-.1.4-.4.5-1.3.2-3.3.3-6,.3ZM315.9,320.6v1.9c0,.5.4.7.9.7h4.6c.5,0,.7-.2.8-.7v-1.9c0,0-6.2,0-6.2,0ZM305.2,324.3c0,1.5.7,2.3,1.8,2.3s1.8-.8,1.8-2.3-.6-2.3-1.8-2.3-1.8.8-1.8,2.3ZM306.9,320.1c2.3,0,3.7,1.5,3.7,4.2s-1.4,4.2-3.7,4.2-3.7-1.5-3.7-4.2,1.4-4.2,3.7-4.2ZM299.3,324.1c0-.4-.2-.5-.6-.5h-1.1c-.3,0-.4-.1-.4-.4v-1c0-.3.1-.4.4-.4h1c.3,0,.6.1.7.3v-5.8c0-.3.2-.5.4-.5h1.1c.3,0,.4.2.4.5v14.1c0,.3-.2.5-.4.5h-1.1c-.3,0-.4-.2-.4-.5v-6.2ZM305.9,316.8v-1.1c0-.3.1-.4.4-.4h1.1c.3,0,.4.1.4.4v.9c0,.2-.1.4-.3.5h3.1c.3,0,.4.1.4.4v1c0,.3-.1.4-.4.4h-7.6c-.3,0-.4-.1-.4-.4v-1c0-.3.1-.4.4-.4h2.4c.3,0,.4,0,.4-.3ZM296,316.2c0,.6-.4,1.1-1,1.2.1.3.3.4.7.4s.2,0,.2.2v.4c0,.1,0,.2-.2.2-1.3,0-2.2-.9-2.2-2.2s.5-1.4,1.3-1.4,1.3.5,1.3,1.2ZM288,316.6c2.6,0,3.8,1.9,3.8,6.1s-1.2,6.1-3.8,6.1-3.8-1.9-3.8-6.1,1.2-6.1,3.8-6.1ZM286.1,322.7c0,3,.6,4.2,1.9,4.2s1.9-1.2,1.9-4.2-.6-4.2-1.9-4.2-1.9,1.2-1.9,4.2ZM281.8,330.3c0,.3-.2.5-.4.5h-1.1c-.3,0-.4-.2-.4-.5v-14.1c0-.3.2-.5.4-.5h1.1c.3,0,.4.2.4.5v14.1ZM272.7,318.7c-.9,0-1.4,0-2.1.2-.3,0-.4-.1-.4-.4v-1c0-.3.1-.4.4-.4.6-.1,1.3-.1,2.3-.1,3.2,0,4.8,1.8,4.8,5.9,0,3.8-1.5,5.9-4.6,5.9s-2-.2-3.1-.7c-.3-.1-.4-.3-.4-.5l.3-1c0-.2.2-.4.3-.4s.1,0,.2,0c1,.4,1.9.6,2.6.6,1.9,0,2.8-1.3,2.8-4s-.8-4.1-2.9-4.1ZM266.1,324.1c0-.4-.2-.5-.6-.5h-1.1c-.3,0-.4-.1-.4-.4v-1c0-.3.1-.4.4-.4h1c.3,0,.6.1.7.3v-5.8c0-.3.2-.5.4-.5h1.1c.3,0,.4.2.4.5v14.1c0,.3-.2.5-.4.5h-1.1c-.3,0-.4-.2-.4-.5v-6.2ZM261.3,331.2c-.8,0-1.3-.5-1.3-1.2s.5-1.2,1.3-1.2,1.3.5,1.3,1.2-.5,1.2-1.3,1.2Z"/>
</svg>