<?xml version="1.0" encoding="UTF-8"?>
<svg id="_레이어_1" data-name="레이어_1" xmlns="http://www.w3.org/2000/svg" version="1.1" viewBox="0 0 360 610">
  <!-- Generator: Adobe Illustrator 29.0.1, SVG Export Plug-In . SVG Version: 2.1.0 Build 192)  -->
  <defs>
    <style>
      .st0 {
        fill: #d4efff;
      }

      .st1 {
        fill: #7c63b0;
      }
    </style>
  </defs>
  <rect class="st0" y="0" width="360" height="610" rx="16" ry="16"/>
  <path class="st1" d="M321.5,36.2v-1.2c0-.3.1-.5.5-.5h1.2c.3,0,.5.1.5.5v1c0,.2-.1.4-.3.5h3c.3,0,.5.1.5.5v1.1c0,.3-.1.4-.5.4h-2.6s0,3.9,0,3.9c0,2.1,1.3,3.9,2.8,4.1.3,0,.4.2.4.5v1.1c0,.3-.1.4-.4.4-1.7-.2-3.3-1.6-3.8-3.3-.5,1.7-2,3-3.8,3.3-.3,0-.5-.1-.5-.4v-1.1c0-.3.1-.5.4-.5,1.5-.2,2.8-2.1,2.8-4.1v-3.9s-2.7,0-2.7,0c-.3,0-.5-.1-.5-.4v-1.1c0-.3.1-.5.5-.5h2.2c.3,0,.4,0,.4-.3ZM316.2,50.5c0,.3-.2.5-.5.5h-1.1c-.3,0-.5-.2-.5-.5v-15c0-.3.2-.5.5-.5h1.1c.3,0,.5.2.5.5v15ZM307.8,41c1.1,0,1.9-.8,1.9-2s-.7-1.9-1.9-1.9-1.9.7-1.9,1.9.7,2,1.9,2ZM298.7,50.5v-.9c0-.3.2-.4.5-.4,1.4.2,3.4.3,4.6.3,3.7,0,4.5,0,4.5-.7s-.5-.7-3.5-.7-3.9,0-5.2,0c-.3,0-.4-.1-.4-.4v-.8c0-.3.1-.4.4-.4h.6c-.7-.3-1.2-.9-1.2-1.6s.5-1.4,1.6-1.4c2.3,0,6.2,0,8.9.2.3,0,.4.1.4.4v.9c0,.3-.1.4-.4.4-2-.1-5.8-.3-7.6-.3s-.9.2-.9.6.3.6.9.6c1,0,1.9,0,2.8,0,4.2,0,5.5.5,5.5,2.3s-1.4,2.4-6.6,2.4-3.3-.1-4.8-.3c-.3,0-.4-.2-.4-.4ZM307.8,35.3c2.4,0,3.9,1.5,3.9,3.7s-1.5,3.8-3.9,3.8-4-1.5-4-3.8,1.5-3.7,4-3.7ZM301.3,42.2c0,.3-.2.5-.5.5h-1.1c-.3,0-.5-.2-.5-.5v-6.7c0-.3.2-.5.5-.5h1.1c.3,0,.5.2.5.5v.4c0,.3.1.5.5.5h1.3c.3,0,.5.1.5.5v1c0,.3-.1.5-.5.5h-1c-.3,0-.6-.1-.7-.3v1.4c0,.3.1.5.5.5h1.3c.3,0,.5.1.5.5v1c0,.3-.1.4-.5.4h-1c-.3,0-.6-.1-.7-.3v.9ZM294.6,41.4c0-.8-.5-1.1-1.9-1.1s-1.9.4-1.9,1.1.5,1.1,1.9,1.1,1.9-.4,1.9-1.1ZM292.7,44.4c-2.6,0-3.9-1-3.9-3s1.3-3,3.9-3,3.9,1,3.9,3-1.3,3-3.9,3ZM284.6,41.8c0-.4-.2-.6-.6-.6h-1.2c-.3,0-.5-.1-.5-.4v-1c0-.3.1-.5.5-.5h1.1c.4,0,.6.1.7.4v-4.2c0-.3.2-.5.5-.5h1.1c.3,0,.5.2.5.5v10.1c0,.3-.2.5-.5.5h-1.1c-.3,0-.5-.2-.5-.5v-3.8ZM291.6,35.3v-.6c0-.3.1-.5.5-.5h1.2c.3,0,.5.1.5.5v.5c0,.2-.1.4-.3.5h3.3c.3,0,.5.1.5.5v1c0,.3-.1.5-.5.5h-8c-.3,0-.4-.1-.4-.5v-1c0-.3.1-.5.4-.5h2.6c.3,0,.4,0,.4-.3ZM295.3,47.9c0,2.1-1.5,3.3-4,3.3s-5-.1-6.7-.3c-.3,0-.4-.2-.4-.5v-1c0-.3.3-.5.5-.4,2.1.2,3.7.3,6.7.3s1.8-.6,1.8-1.7,0-1-.1-1.4c0-.3.2-.5.5-.5h1.1c.3,0,.5.2.5.5,0,.4.1,1,.1,1.6ZM269,46.3c-2.8,0-3.8.6-3.8,1.5s1,1.5,3.8,1.5,3.8-.6,3.8-1.5-1-1.5-3.8-1.5ZM270.7,43.1h-1.2c-.3,0-.4-.1-.5-.4-.3-1.2-.7-2.8-.7-3.8,0-2.4,1-3.4,3.4-3.4s2.5.1,3.9.3c.3,0,.4.2.4.5v1c0,.3-.2.5-.5.5-1.2-.2-1.9-.3-3.8-.3s-1.4.4-1.4,1.4.3,2.6.7,3.8c0,.3-.1.5-.4.5ZM269,51.3c-3.9,0-5.9-1.2-5.9-3.4s2-3.4,5.9-3.4,5.9,1.2,5.9,3.4-2,3.4-5.9,3.4ZM265.6,43.1c0,.3-.2.5-.5.5h-1.1c-.3,0-.5-.2-.5-.5v-7.6c0-.3.2-.5.5-.5h1.1c.3,0,.5.2.5.5v.5c0,.4.1.5.5.5h1.2c.3,0,.4.1.4.5v1c0,.3-.1.5-.4.5h-1c-.3,0-.6-.1-.7-.4v1.6c0,.4.1.5.5.5h1.2c.3,0,.4.1.4.5v1c0,.3-.1.5-.4.5h-1c-.3,0-.6-.1-.7-.4v1.4ZM253,51.3c-4.1,0-6.2-1.2-6.2-3.4s2.1-3.4,6.2-3.4,6.2,1.2,6.2,3.4-2.1,3.4-6.2,3.4ZM247.7,35h1.1c.3,0,.4.1.4.5v2.6s.9,0,.9,0c.3,0,.5.1.6.3v-2.7c0-.3.1-.5.5-.5h1.1c.3,0,.4.1.4.5v7.1c0,.3-.1.5-.4.5h-1.1c-.3,0-.5-.1-.5-.5v-2.3c0-.4-.1-.5-.5-.5h-1s0,3.1,0,3.1c0,.3-.1.5-.4.5h-1.1c-.3,0-.4-.1-.4-.5v-7.7c0-.3.1-.5.4-.5ZM258.7,37.3v1.1c0,1.6.9,2.8,2.3,2.8s.4.1.4.5v1c0,.3-.1.5-.4.5-1.4,0-2.8-.9-3.3-2.2-.5,1.3-1.9,2.2-3.3,2.2s-.4-.2-.4-.5v-1c0-.3.1-.5.5-.5,1.4,0,2.3-1.2,2.3-2.8v-1.1s-2.2,0-2.2,0c-.3,0-.4-.1-.4-.5v-1c0-.3.1-.5.4-.5h6.4c.3,0,.5.1.5.5v1c0,.3-.1.5-.5.5h-2.2ZM253,46.3c-3,0-4.1.6-4.1,1.5s1.1,1.5,4.1,1.5,4.1-.6,4.1-1.5-1.1-1.5-4.1-1.5ZM240.7,49.9c-1.7,0-3.2,0-4.4-.3-.3,0-.5-.2-.5-.5v-1c0-.3.2-.5.5-.4.7.1,2,.2,3.4.2s.6-.2.6-.6v-4.5c0-.3.2-.5.5-.5h1.1c.3,0,.5.2.5.5v4.4c0,.4-.2.6-.4.8,1,0,1.9-.1,2.8-.3.3,0,.5,0,.5.4v1.1c0,.3-.1.4-.5.5-1.2.2-2.4.3-4.1.3ZM238.5,39.6c0,1.3.1,2.9.5,4.4,0,.3,0,.4-.3.4l-1.2.2c-.3,0-.4,0-.5-.3-.3-1.5-.5-3.4-.5-5.1s.9-3.5,3.5-3.5,3,.1,3.9.3c.3,0,.4.2.4.5v1.1c0,.3-.2.5-.4.4-1.2-.2-2.4-.3-3.7-.3s-1.7.5-1.7,1.9ZM232.7,43.9c0-.4-.2-.6-.6-.6h-1.2c-.3,0-.5-.1-.5-.4v-1.1c0-.3.1-.5.5-.5h1.1c.4,0,.6.1.7.4v-6.2c0-.3.2-.5.5-.5h1.1c.3,0,.5.2.5.5v15c0,.3-.2.5-.5.5h-1.1c-.3,0-.5-.2-.5-.5v-6.6ZM216.3,48.5c-.3,0-.4-.1-.4-.4v-1.1c0-.3.1-.5.4-.5,1.5-.2,2.8-2.1,2.8-4.1v-5.8c0-.3.2-.5.5-.5h1.1c.3,0,.5.2.5.5v5.8c0,2.1,1.3,3.9,2.8,4.1.3,0,.4.2.4.5v1.1c0,.3-.1.4-.4.4-1.7-.2-3.3-1.6-3.8-3.3-.4,1.7-2,3-3.8,3.3ZM212,43.9c0-.4-.2-.6-.6-.6h-1.2c-.3,0-.4-.1-.4-.4v-1.1c0-.3.1-.5.4-.5h1.1c.4,0,.6.1.7.4v-6.2c0-.3.2-.5.5-.5h1.1c.3,0,.5.2.5.5v15c0,.3-.2.5-.5.5h-1.1c-.3,0-.5-.2-.5-.5v-6.6ZM205.2,45.5v1.7c0,.4-.2.6-.4.8,1.3,0,2.8-.1,3.7-.3.3,0,.5,0,.5.4v1.1c0,.3-.1.4-.5.5-1.2.2-2.6.3-4.3.3s-3.4,0-4.6-.3c-.3,0-.5-.2-.5-.5v-1c0-.3.2-.5.5-.4.7.1,1.7.2,2.9.2s.6-.2.6-.6v-1.9c-1.8-.3-2.8-1.3-2.8-3s1.4-3.1,3.9-3.1,3.9,1.1,3.9,3.1-1,2.8-3,3.1ZM196,35.5c0-.3.2-.5.5-.5h1.1c.3,0,.5.2.5.5v15c0,.3-.2.5-.5.5h-1.1c-.3,0-.5-.2-.5-.5v-15ZM203.2,36v-.8c0-.3.1-.5.4-.5h1.2c.3,0,.4.1.4.5v.7c0,.2-.1.4-.3.5h3.3c.3,0,.4.1.4.4v1.1c0,.3-.1.5-.4.5h-8c-.3,0-.4-.1-.4-.5v-1.1c0-.3.1-.4.4-.4h2.6c.3,0,.4,0,.4-.3ZM204.2,41.2c-1.2,0-1.9.4-1.9,1.2s.7,1.3,1.9,1.3,1.9-.5,1.9-1.3-.6-1.2-1.9-1.2ZM190.5,37.3v.7c0,2,1.2,3.5,2.7,3.5s.4.1.4.5v1c0,.3-.1.4-.4.4-1.9,0-3.3-1.2-3.8-2.7-.5,1.4-1.9,2.7-3.8,2.7s-.4-.1-.4-.4v-1c0-.3.1-.5.4-.5,1.6,0,2.7-1.5,2.7-3.5v-.7s-2.7,0-2.7,0c-.3,0-.4-.1-.4-.5v-1c0-.3.1-.5.4-.5h7.4c.3,0,.4.1.4.5v1c0,.3-.1.5-.4.5h-2.6ZM181.1,47.7c0-2,1-2.9,3.5-2.9s5.3.1,7.2.3c.3,0,.5.2.5.5v1c0,.3-.1.5-.5.4-2.2-.2-4.4-.3-7-.3s-1.7.3-1.7,1.5,0,1.7,0,2.3c0,.3-.2.5-.5.5h-1.1c-.3,0-.5-.2-.5-.5,0-.6,0-1.6,0-2.8ZM183.1,37.9c0,.4.2.6.6.6h1.4c.3,0,.4.1.4.5v1c0,.3-.1.5-.4.5h-1.3c-.4,0-.6-.1-.7-.4v3.1c0,.3-.2.5-.5.5h-1.1c-.3,0-.5-.2-.5-.5v-7.6c0-.3.2-.5.5-.5h1.1c.3,0,.5.2.5.5v2.4ZM166.5,46.3c-2.8,0-3.8.6-3.8,1.5s1,1.5,3.8,1.5,3.8-.6,3.8-1.5-1-1.5-3.8-1.5ZM166.5,51.3c-3.9,0-5.9-1.2-5.9-3.4s2-3.4,5.9-3.4,5.9,1.2,5.9,3.4-2,3.4-5.9,3.4ZM168.9,35.4h1.1c.3,0,.5.2.5.5v2c0,1.9,1.2,3.3,2.7,3.3s.5.1.5.5v1c0,.3-.1.5-.5.5-1.9,0-3.3-1.2-3.8-2.6-.5,1.4-1.9,2.6-3.8,2.6s-.4-.1-.4-.5v-1c0-.3.1-.5.4-.5,1.6,0,2.7-1.4,2.7-3.3v-2c0-.3.2-.5.5-.5ZM163.1,37c0,.4.2.6.6.6h2c.3,0,.4.1.4.5v1c0,.3-.1.5-.4.5h-1.9c-.4,0-.6-.1-.7-.4v4c0,.3-.2.5-.5.5h-1.1c-.3,0-.5-.2-.5-.5v-7.6c0-.3.2-.5.5-.5h1.1c.3,0,.5.2.5.5v1.5ZM151.5,46.8c-2.7,0-3.8.3-3.8,1.3s1.1,1.3,3.8,1.3,3.8-.3,3.8-1.3-1.1-1.3-3.8-1.3ZM151.7,44c-2.5,0-5.1,0-6.4-.2-.3,0-.4-.2-.4-.5v-1c0-.3.2-.5.5-.4,1.3.1,4.3.2,5.7.1.3,0,.5-.2.5-.4v-2c0-.3.2-.5.5-.5h1.1c.3,0,.5.2.5.5v1.9c0,.2-.1.4-.3.5,1.7,0,3.3,0,4.6-.2.3,0,.5.1.5.4v1c0,.3-.1.5-.4.5-1.1.1-3,.2-6.3.2ZM148.4,40.6c0,.3,0,.4-.3.4l-1.2.2c-.3,0-.4,0-.5-.3-.2-.7-.2-1.4-.2-2.4,0-2.1,1.2-3,3.7-3s4.7.1,6.6.3c.3,0,.4.2.4.5v1c0,.3-.2.5-.4.4-2.2-.2-4.1-.3-6.4-.3s-1.8.5-1.8,1.7,0,1,.2,1.6ZM151.5,51.3c-4,0-5.9-1-5.9-3.2s1.9-3.2,5.9-3.2,5.9,1,5.9,3.2-1.9,3.2-5.9,3.2ZM135.8,36.9c-2.7,0-3.5.3-3.5,1.1s.8,1.1,3.5,1.1,3.5-.3,3.5-1.1-.8-1.1-3.5-1.1ZM129.9,50.5v-.8c0-.3.2-.4.5-.4,1.3.2,3.4.3,4.8.3,3.7,0,4.4,0,4.4-.6s-.4-.6-3.4-.6-4.2,0-5.3,0c-.3,0-.4-.1-.4-.4v-.7c0-.3.1-.4.4-.4h.6c-.7-.2-1.2-.8-1.2-1.5s.4-1.3,1.7-1.3c2.3,0,6.2,0,8.9.2.3,0,.4.1.4.4v.8c0,.3-.1.4-.4.4-2-.1-5.8-.3-7.7-.3s-.8.2-.8.6.2.5.9.5c.9,0,2,0,3,0,4.3,0,5.4.5,5.4,2.2s-1.2,2.3-6.5,2.3-3.5-.1-4.9-.3c-.3,0-.4-.2-.4-.4ZM136,41.6c2.1,0,4.6,0,6.3-.2.3,0,.4.1.4.4v.9c0,.3-.1.4-.4.4-1.1.1-3.1.2-6.4.2-2.5,0-5.1,0-6.4-.2-.3,0-.4-.2-.4-.5v-.9c0-.3.2-.4.4-.4,1.4.1,3.4.2,6.4.2ZM135.8,40.8c-4,0-5.6-.8-5.6-2.8s1.6-2.8,5.6-2.8,5.6.8,5.6,2.8-1.6,2.8-5.6,2.8ZM115.4,46.3c-2.8,0-3.6.6-3.6,1.5s.9,1.5,3.6,1.5,3.6-.6,3.6-1.5-.9-1.5-3.6-1.5ZM116.5,43.1h-1.2c-.3,0-.4-.1-.5-.4-.3-1.2-.7-2.8-.7-3.8,0-2.4,1-3.4,3.4-3.4s2.7.1,4.1.3c.3,0,.4.2.4.5v1c0,.3-.2.5-.5.5-1.2-.2-2-.3-4-.3s-1.4.4-1.4,1.4.3,2.6.7,3.8c0,.3-.1.5-.4.5ZM115.4,51.3c-3.8,0-5.7-1.2-5.7-3.4s1.9-3.4,5.7-3.4,5.7,1.2,5.7,3.4-1.9,3.4-5.7,3.4ZM110.1,40.5c0-.4-.2-.6-.6-.6h-1.2c-.3,0-.4-.1-.4-.5v-1c0-.3.1-.5.4-.5h1.1c.4,0,.6.1.7.4v-2.9c0-.3.2-.5.5-.5h1.1c.3,0,.5.2.5.5v7.6c0,.3-.2.5-.5.5h-1.1c-.3,0-.5-.2-.5-.5v-2.6ZM104.4,36c.3,0,.4.1.4.4v1.1c0,.3-.1.5-.4.5h-3.8s0,1,0,1c0,2.2,1.7,3.8,4.1,3.8s.5.1.5.4v1.1c0,.5-.3.5-.6.5-2.1,0-4.2-1.2-4.9-3-.8,1.8-2.8,3-4.9,3s-.6,0-.6-.5v-1.1c0-.3.1-.4.5-.4,2.4,0,4.1-1.6,4.1-3.8v-1s-3.8,0-3.8,0c-.3,0-.5-.1-.5-.5v-1.1c0-.3.1-.4.5-.4h9.7ZM99.6,49.6c-2.8,0-5.1-.1-6.4-.3-.3,0-.5-.2-.5-.5v-1c0-.3.2-.5.5-.4,1.2.2,3.1.3,4.6.3s.6-.2.6-.6v-2.2c0-.3.2-.5.5-.5h1.1c.3,0,.5.2.5.5v2.1c0,.4-.2.6-.5.8,2,0,4.4-.2,5.7-.3.3,0,.5.1.5.4v1c0,.3-.1.4-.4.5-1.4.2-3.5.3-6.3.3ZM85,44.1c0,1.6.7,2.5,1.9,2.5s1.9-.8,1.9-2.5-.7-2.4-1.9-2.4-1.9.8-1.9,2.4ZM86.8,39.6c2.5,0,3.9,1.6,3.9,4.4s-1.5,4.4-3.9,4.4-3.9-1.6-3.9-4.4,1.5-4.4,3.9-4.4ZM78.7,43.9c0-.4-.2-.6-.6-.6h-1.2c-.3,0-.5-.1-.5-.4v-1.1c0-.3.1-.5.5-.5h1.1c.4,0,.6.1.7.4v-6.2c0-.3.2-.5.5-.5h1.1c.3,0,.5.2.5.5v15c0,.3-.2.5-.5.5h-1.1c-.3,0-.5-.2-.5-.5v-6.6ZM85.8,36.2v-1.2c0-.3.1-.5.4-.5h1.2c.3,0,.5.1.5.5v1c0,.2-.1.4-.3.5h3.3c.3,0,.4.1.4.5v1.1c0,.3-.1.4-.4.4h-8c-.3,0-.5-.1-.5-.4v-1.1c0-.3.1-.5.5-.5h2.6c.3,0,.4,0,.4-.3ZM67.2,40c0-2.8,1-3.9,3.5-3.9s2.6.1,3.9.3c.3,0,.4.2.4.5v1c0,.3-.2.5-.5.5-1.2-.2-2.2-.3-3.5-.3s-1.8.5-1.8,2.1c0,2.6.2,5.2.7,7.8,0,.3-.1.5-.5.5h-1.2c-.3,0-.4-.1-.5-.4-.4-2.6-.7-5.2-.7-8.1ZM64.8,50.5c0,.3-.2.5-.5.5h-1.1c-.3,0-.5-.2-.5-.5v-15c0-.3.2-.5.5-.5h1.1c.3,0,.5.2.5.5v15ZM53.4,49.6c-2.8,0-5.1-.1-6.4-.3-.3,0-.4-.2-.4-.5v-1c0-.3.2-.5.5-.4,1.2.2,3.1.3,4.6.3s.6-.2.6-.6v-2.3s-2,0-2,0c-1.3,0-2.2-.7-2.2-1.9l-.3-6.5c0-.3.2-.5.5-.5h1.1c.3,0,.4.2.5.5v1.8c0,0,6.8,0,6.8,0v-1.8c0-.3.3-.5.5-.5h1.1c.3,0,.5.2.5.5l-.3,6.5c0,1.2-.9,1.9-2.2,1.9h-2s0,2.1,0,2.1c0,.4-.2.6-.4.8,2,0,4.4-.2,5.7-.3.3,0,.5.1.5.4v1c0,.3-.1.4-.5.5-1.3.2-3.5.3-6.3.3ZM50,40.1v2c0,.5.4.7.9.7h4.9c.5,0,.8-.3.8-.7v-2c0,0-6.6,0-6.6,0ZM39.4,38.1c-.9,0-1.5,0-2.3.2-.3,0-.5-.1-.5-.5v-1.1c0-.3.1-.4.5-.5.7-.1,1.4-.1,2.4-.1,3.4,0,5,1.9,5,6.3s-1.6,6.3-4.9,6.3-2.2-.3-3.3-.7c-.4-.1-.5-.3-.4-.6l.3-1c0-.3.2-.4.3-.4s.1,0,.2,0c1.1.5,2,.7,2.7.7,2,0,2.9-1.4,2.9-4.3s-.8-4.3-3.1-4.3ZM32.5,43.9c0-.4-.2-.6-.6-.6h-1.2c-.3,0-.4-.1-.4-.4v-1.1c0-.3.1-.5.4-.5h1.1c.4,0,.6.1.7.4v-6.2c0-.3.2-.5.5-.5h1.1c.3,0,.5.2.5.5v15c0,.3-.2.5-.5.5h-1.1c-.3,0-.5-.2-.5-.5v-6.6ZM322.7,70.1c1.2,0,2-1,2-2.5s-.8-2.5-2-2.5-2,1-2,2.5.8,2.5,2,2.5ZM322.7,63.3c2.4,0,4,1.7,4,4.4s-1.6,4.4-4,4.4-4-1.7-4-4.4,1.6-4.4,4-4.4ZM314.5,69.8c0-.4-.2-.6-.6-.6h-1.2c-.3,0-.5-.1-.5-.5v-1c0-.3.1-.4.5-.4h1.1c.4,0,.6.1.7.4v-4.2c0-.3.2-.5.5-.5h1.1c.3,0,.5.2.5.5v10.1c0,.3-.2.5-.5.5h-1.1c-.3,0-.5-.2-.5-.5v-3.8ZM325.2,75.9c0,2.1-1.5,3.3-4,3.3s-5-.1-6.7-.3c-.3,0-.5-.2-.4-.4v-1c0-.3.3-.5.5-.4,2.1.2,3.7.3,6.7.3s1.8-.6,1.8-1.7,0-1.3-.1-1.8c0-.3.2-.5.5-.5h1.1c.3,0,.5.2.5.5,0,.5.1,1.2.1,2ZM304.1,73.3c-2.5,0-5.1,0-6.4-.2-.3,0-.5-.2-.5-.5v-1c0-.3.2-.5.5-.4,1.3.1,3.4.2,4.8.1.3,0,.5-.2.5-.4v-.8c-3.3-.2-4.7-1.3-4.7-3.4s1.7-3.4,5.6-3.4,5.6,1.1,5.6,3.4-1.3,3.2-4.4,3.4v.8c0,.2-.1.4-.3.5,1.8,0,4.2,0,5.5-.2.3,0,.5.1.5.4v1c0,.3-.1.5-.5.5-1.1.1-3,.2-6.3.2ZM309.6,76c0,2.1-1.4,3.3-3.8,3.3s-5.6-.1-7.4-.3c-.3,0-.5-.2-.4-.4v-1c0-.3.3-.5.5-.4,2.1.2,4.2.3,7.4.3s1.7-.5,1.7-1.5,0-.9-.1-1.3c0-.3.1-.5.4-.5h1.1c.3,0,.5.2.5.5,0,.4.1.8.1,1.4ZM307.4,66.7c0-1.1-.9-1.6-3.5-1.6s-3.5.4-3.5,1.6.9,1.6,3.5,1.6,3.5-.5,3.5-1.6ZM293.1,69.4c0-.8-.5-1.1-1.9-1.1s-1.9.4-1.9,1.1.5,1.1,1.9,1.1,1.9-.4,1.9-1.1ZM291.3,72.4c-2.6,0-3.9-1-3.9-3s1.3-3,3.9-3,3.9,1,3.9,3-1.3,3-3.9,3ZM283.2,69.8c0-.4-.2-.6-.6-.6h-1.2c-.3,0-.5-.1-.5-.5v-1c0-.3.1-.4.5-.4h1.1c.4,0,.6.1.7.4v-4.2c0-.3.2-.5.5-.5h1.1c.3,0,.5.2.5.5v10.1c0,.3-.2.5-.5.5h-1.1c-.3,0-.5-.2-.5-.5v-3.8ZM290.2,63.3v-.6c0-.3.1-.5.5-.5h1.2c.3,0,.4.1.4.5v.5c0,.2-.1.4-.3.5h3.3c.3,0,.5.1.5.5v1c0,.3-.1.4-.5.4h-8c-.3,0-.4-.1-.4-.4v-1c0-.3.1-.5.4-.5h2.6c.3,0,.4,0,.4-.3ZM293.8,75.9c0,2.1-1.5,3.3-4,3.3s-5-.1-6.7-.3c-.3,0-.4-.2-.4-.4v-1c0-.3.3-.5.5-.4,2.1.2,3.7.3,6.7.3s1.8-.6,1.8-1.7,0-1-.1-1.4c0-.3.2-.5.5-.5h1.1c.3,0,.5.2.5.5,0,.5.1,1,.1,1.6ZM265.1,77.3c.4,0,.5-.1.5-.5v-3c0-.3-.2-.4-.6-.4-.7,0-1,.4-1,1.7s.4,2.3,1,2.3ZM267.9,78.5l.2-.9c0-.3.2-.4.5-.3.6.1,1.2.2,1.9.2s1.2-.2,1.2-.7-.3-.6-.9-.6-1.5,0-2.1,0c-.3,0-.4-.1-.4-.4v-.8c0-.3.1-.4.4-.4h.6c-.7-.3-1.1-.8-1.1-1.6,0-1.4,1.1-1.4,2.2-1.4s1.6,0,2.5.2c.3,0,.4.1.4.4v1c0,.3-.1.4-.4.4-.9-.2-1.5-.3-1.9-.3s-.8.2-.8.6.3.6.8.6c1.8,0,2.7.7,2.7,2.3s-1,2.5-3.4,2.5-1.6-.1-2.2-.3c-.3,0-.3-.2-.3-.5ZM267.5,72.5v5.4c0,.8-.5,1.2-1.5,1.2h-3.5c-.3,0-.4-.1-.4-.4v-1c0-.3.1-.5.4-.5h.8c-.6-.5-1.2-1.6-1.2-3s.8-2.5,2.2-2.5h2.4c.5,0,.7.3.7.8ZM270,63.4h1.1c.3,0,.5.2.5.5v1.6c0,1.8,1.2,3.2,2.7,3.2s.4.1.4.4v1c0,.3-.1.4-.4.4-1.9,0-3.3-1.2-3.8-2.5-.5,1.3-1.9,2.5-3.8,2.5s-.5-.1-.5-.4v-1c0-.3.1-.4.5-.4,1.6,0,2.7-1.3,2.7-3.2v-1.6c0-.3.2-.5.5-.5ZM262.5,68.1c0-.4-.2-.6-.6-.6h-1.2c-.3,0-.5-.1-.5-.5v-1c0-.3.1-.4.5-.4h1.1c.4,0,.6.1.7.4v-2.5c0-.3.2-.5.5-.5h1.1c.3,0,.5.2.5.5v6.7c0,.3-.2.5-.5.5h-1.1c-.3,0-.5-.2-.5-.5v-2.1ZM251.9,64.9c-2.7,0-3.5.3-3.5,1.1s.8,1.1,3.5,1.1,3.5-.3,3.5-1.1-.8-1.1-3.5-1.1ZM245.9,78.5v-.8c0-.3.2-.4.5-.4,1.3.2,3.4.3,4.8.3,3.7,0,4.4,0,4.4-.6s-.4-.6-3.4-.6-4.2,0-5.3,0c-.3,0-.4-.1-.4-.4v-.7c0-.3.1-.4.4-.4h.6c-.7-.2-1.2-.8-1.2-1.5s.4-1.3,1.7-1.3c2.3,0,6.2,0,8.9.2.3,0,.4.1.4.4v.8c0,.3-.1.4-.4.4-2-.1-5.8-.3-7.7-.3s-.8.2-.8.6.2.5.9.5c.9,0,2,0,3,0,4.3,0,5.4.5,5.4,2.2s-1.2,2.3-6.5,2.3-3.5-.1-4.9-.3c-.3,0-.4-.2-.4-.4ZM252,69.6c2.1,0,4.6,0,6.3-.2.3,0,.5.1.5.4v.9c0,.3-.1.4-.4.4-1.1.1-3.1.2-6.4.2-2.5,0-5.1,0-6.4-.2-.3,0-.4-.2-.4-.4v-.9c0-.3.2-.4.5-.4,1.4.1,3.4.2,6.4.2ZM251.9,68.8c-4,0-5.6-.8-5.6-2.8s1.6-2.8,5.6-2.8,5.6.8,5.6,2.8-1.6,2.8-5.6,2.8ZM232.4,70.1v3.7c.1.5.4.7.9.7h1.9c.5,0,.8-.2.8-.7v-3.7c.1,0-3.5,0-3.5,0ZM230.7,64.2h1.1c.3,0,.5.2.5.4v3.5c0,0,3.9,0,3.9,0v-3.5c0-.3.3-.4.6-.4h1.1c.3,0,.5.2.5.5l-.3,9.9c0,1.2-.8,1.9-2.2,1.9h-3.2c-1.4,0-2.2-.7-2.2-1.9l-.3-9.9c0-.3.2-.5.5-.5ZM226.1,71.9c0-.4-.2-.6-.6-.6h-1.2c-.3,0-.4-.1-.4-.5v-1.1c0-.3.1-.5.4-.5h1.1c.4,0,.6.1.7.4v-6.2c0-.3.2-.5.5-.5h1.1c.3,0,.5.2.5.5v15c0,.3-.2.5-.5.5h-1.1c-.3,0-.5-.2-.5-.5v-6.6ZM220.4,73c0-1.3-.8-1.8-2.9-1.8s-1.5,0-2.5,0-.4-.1-.4-.4v-1c0-.3.1-.4.4-.4h.6c-.7-.6-1.1-1.5-1.1-2.6,0-1.7,1.1-2.6,3.3-2.6s2.4,0,3.7.2c.3,0,.4.2.4.4v1.2c0,.3-.2.4-.4.4-1.4-.2-2.5-.3-3.2-.3-1.2,0-1.7.5-1.7,1.6s.5,1.6,1.6,1.6c2.9,0,4.3,1.2,4.3,3.6s-1.4,3.8-4.3,3.8-2.5-.2-3.9-.7c-.3-.1-.4-.3-.3-.6l.3-1.1c0-.2.2-.3.3-.3s.1,0,.2,0c1,.4,2.1.7,3,.7,1.9,0,2.6-.5,2.6-1.8ZM210.4,71.9c0-.4-.2-.6-.6-.6h-1.2c-.3,0-.4-.1-.4-.5v-1.1c0-.3.1-.5.4-.5h1.1c.4,0,.6.1.7.4v-6.2c0-.3.2-.5.5-.5h1.1c.3,0,.5.2.5.5v15c0,.3-.2.5-.5.5h-1.1c-.3,0-.5-.2-.5-.5v-6.6ZM205.3,66.8c0,2.1-1.3,3.3-3.7,3.3s-5.3-.1-7.1-.3c-.3,0-.4-.2-.4-.5v-1c0-.3.3-.5.5-.4,2.1.2,4,.3,6.8.3s1.7-.5,1.7-1.5,0-2-.1-2.8c0-.3.1-.5.4-.5h1.1c.3,0,.5.2.5.5,0,.8.1,2.2.1,2.9ZM205.5,76c0,2.1-1.4,3.3-3.8,3.3s-5.6-.1-7.4-.3c-.3,0-.4-.2-.4-.4v-1c0-.3.3-.5.5-.4,2.1.2,4.2.3,7.4.3s1.7-.5,1.7-1.5,0-.9-.1-1.3c0-.3.1-.5.4-.5h1.1c.3,0,.5.2.5.5,0,.4.1.8.1,1.4ZM206.8,71.5v1c0,.3-.1.4-.4.5-1.1.1-3,.2-6.3.2-2.5,0-5.1,0-6.4-.2-.3,0-.4-.2-.4-.5v-1c0-.3.2-.5.5-.4,1.3.1,3.4.2,6.3.2s4.6,0,6.3-.2c.3,0,.5.1.5.4ZM178.4,76.5c-.3,0-.4-.1-.4-.4v-1.1c0-.3.1-.4.4-.5,1.5-.2,2.8-2.1,2.8-4.1v-5.8c0-.3.2-.5.5-.5h1.1c.3,0,.5.2.5.5v5.8c0,2.1,1.3,3.9,2.8,4.1.3,0,.4.2.4.5v1.1c0,.3-.1.4-.4.4-1.7-.2-3.3-1.6-3.8-3.3-.5,1.7-2,3-3.8,3.3ZM174.1,71.9c0-.4-.2-.6-.6-.6h-1.2c-.3,0-.4-.1-.4-.5v-1.1c0-.3.1-.5.4-.5h1.1c.4,0,.6.1.7.4v-6.2c0-.3.2-.5.5-.5h1.1c.3,0,.5.2.5.5v15c0,.3-.2.5-.5.5h-1.1c-.3,0-.5-.2-.5-.5v-6.6ZM166.5,77.2c.4,0,.7-.2.7-.6v-1.4c0-.3-.2-.4-.4-.4h-5.2c-.8,0-1.2.2-1.2.9s.7,1.5,1.6,1.5h4.5ZM162,70.4l.3-1c0-.2.2-.3.3-.3s.1,0,.2,0c.9.3,2.2.6,3.1.6,2,0,2.5-.1,2.5-.7s-.7-.8-3-.8-1.4,0-2.3,0c-.3,0-.4-.1-.4-.4v-.9c0-.3.1-.4.4-.4h.4c-.6-.4-1-.9-1-1.6,0-1.2.8-1.6,3.1-1.6,1.6,0,2.6,0,3.9.2.3,0,.4.2.4.5v1c0,.3-.2.4-.5.4-1.4-.2-2.7-.3-3.4-.3-1.1,0-1.4.1-1.4.6s.4.6,1.3.6c3.3,0,4.6.7,4.6,2.6s-1.2,2.6-4.2,2.6-3.1-.3-4-.6c-.3-.1-.4-.3-.3-.6ZM158.3,74.8c0-1.3.8-1.9,2.2-1.9h7.9c.5,0,.8.3.8.8v3.8c0,1-.7,1.6-1.9,1.6h-8.9c-.3,0-.4-.1-.4-.4v-1c0-.3.1-.5.4-.5h1.3c-.9-.5-1.5-1.4-1.5-2.4ZM158.4,68.5c0-.4-.2-.6-.6-.6h-1.2c-.3,0-.5-.1-.5-.4v-1c0-.3.1-.4.5-.4h1.1c.4,0,.6.1.7.4v-2.9c0-.3.2-.5.5-.5h1.1c.3,0,.5.2.5.5v7.6c0,.3-.2.5-.5.5h-1.1c-.3,0-.5-.2-.5-.5v-2.6ZM141.8,78.5v-.8c0-.3.2-.4.5-.4,1.4.2,3.4.3,4.8.3,3.7,0,4.4,0,4.4-.6s-.4-.6-3.4-.6-4.2,0-5.3,0c-.3,0-.4-.1-.4-.4v-.7c0-.3.1-.4.4-.4h.6c-.7-.2-1.2-.8-1.2-1.5s.4-1.3,1.7-1.3c2.3,0,6.2,0,8.9.2.3,0,.4.1.4.4v.8c0,.3-.1.4-.4.4-2-.1-5.9-.3-7.7-.3s-.8.2-.8.6.2.5.9.5c.9,0,2,0,3,0,4.3,0,5.4.5,5.4,2.2s-1.2,2.3-6.5,2.3-3.5-.1-4.9-.3c-.3,0-.4-.2-.4-.4ZM148,69.6c2.1,0,4.6,0,6.3-.2.3,0,.4.1.4.4v.9c0,.3-.1.4-.4.4-1.1.1-3.1.2-6.4.2-2.5,0-5.1,0-6.4-.2-.3,0-.4-.2-.4-.4v-.9c0-.3.2-.4.4-.4,1.4.1,3.4.2,6.4.2ZM142.8,64.9v-.9c0-.3.1-.4.4-.4,2.3-.1,3.1-.2,4.1-.2,4.7,0,6.3.6,6.3,2.7s-1.5,2.7-6,2.7-2.6-.1-4.6-.3c-.3,0-.4-.1-.4-.4v-.9c0-.3.2-.4.5-.4,1.6.2,3.3.3,4.8.3,2.9,0,3.7-.2,3.7-1s-.9-1-4.1-1-1.9,0-4.2.2c-.3,0-.4-.1-.4-.4ZM135.3,64c2.8,0,4,2,4,6.4s-1.3,6.5-4,6.5-4.1-2-4.1-6.5,1.2-6.4,4.1-6.4ZM133.3,70.4c0,3.2.6,4.5,2,4.5s2-1.3,2-4.5-.6-4.5-2-4.5-2,1.3-2,4.5ZM128.8,78.5c0,.3-.2.5-.5.5h-1.1c-.3,0-.5-.2-.5-.5v-15c0-.3.2-.5.5-.5h1.1c.3,0,.5.2.5.5v15ZM106.2,78.5v-.8c0-.3.2-.4.5-.4,1.3.2,3.4.3,4.8.3,3.7,0,4.4,0,4.4-.6s-.4-.6-3.4-.6-4.2,0-5.3,0c-.3,0-.4-.1-.4-.4v-.7c0-.3.1-.4.4-.4h.6c-.7-.2-1.2-.8-1.2-1.5s.4-1.3,1.7-1.3c2.3,0,6.2,0,8.9.2.3,0,.4.1.4.4v.8c0,.3-.1.4-.4.4-2-.1-5.9-.3-7.7-.3s-.8.2-.8.6.2.5.9.5c.9,0,2,0,3,0,4.3,0,5.4.5,5.4,2.2s-1.2,2.3-6.5,2.3-3.5-.1-4.9-.3c-.3,0-.4-.2-.4-.4ZM112.3,69.6c2.1,0,4.6,0,6.3-.2.3,0,.4.1.4.4v.9c0,.3-.1.4-.4.4-1.1.1-3.1.2-6.4.2-2.5,0-5.1,0-6.4-.2-.3,0-.4-.2-.4-.4v-.9c0-.3.2-.4.4-.4,1.4.1,3.4.2,6.4.2ZM117.6,65.8c0,2-1.2,3-3.5,3s-5.5-.1-7.2-.3c-.3,0-.5-.2-.4-.4v-1c0-.3.3-.5.5-.4,2.1.2,4.2.3,7,.3s1.5-.4,1.5-1.3,0-1.2-.1-1.7c0-.3.1-.5.4-.5h1.1c.3,0,.5.2.5.5,0,.5.1,1.2.1,1.9ZM96.7,77.6c-2.8,0-5.2-.1-6.4-.3s-.5-.2-.5-.5v-1c0-.3.2-.5.5-.4,1.2.1,3.6.3,5.5.3s.6-.2.6-.6v-4.1c0-.3.2-.5.5-.5h1.1c.3,0,.5.2.5.5v4c0,.4-.2.6-.5.8,1.5,0,3.3-.2,4.8-.3.3,0,.5.1.5.4v1c0,.3-.1.4-.4.5-1.4.2-3.5.3-6.3.3ZM95.8,65.9c-1.9,0-2.6.8-2.6,2.8s.1,2.5.3,3.4c0,.3,0,.4-.3.5l-1.2.2c-.3,0-.4,0-.5-.3-.3-1.3-.3-2.4-.3-4.1,0-2.8,1.5-4.4,4.2-4.4s4.1,0,6.1.3c.3,0,.4.2.4.5v1.1c0,.3-.2.5-.4.4-1.8-.2-3.6-.3-5.7-.3ZM78.9,69.6c1.2,0,2-.9,2-2.2s-.8-2.2-2-2.2-2,.8-2,2.2.8,2.2,2,2.2ZM73.2,77.2c-.5,1.1-1.7,1.9-3,1.9s-.6,0-.6-.5v-1c0-.3.1-.4.5-.4,1.3,0,2.2-1,2.2-2.3v-1.7c0-.3.2-.5.5-.5h1.1c.3,0,.5.2.5.5v2.1c0,1.1.6,1.9,1.7,1.9s1.7-.8,1.7-1.9v-2.1c0-.3.2-.5.5-.5h1.1c.3,0,.5.2.5.5v1.7c0,1.3.9,2.3,2.2,2.3s.5.1.5.4v1c0,.4-.3.5-.6.5-1.4,0-2.5-.8-3-1.9-.4,1.1-1.5,1.9-2.7,1.9s-2.3-.8-2.7-1.9ZM78.9,63.3c2.5,0,4,1.6,4,4.1s-1.6,4.1-4,4.1-4.1-1.6-4.1-4.1,1.6-4.1,4.1-4.1ZM72.4,70.9c0,.3-.2.5-.5.5h-1.1c-.3,0-.5-.2-.5-.5v-7.4c0-.3.2-.5.5-.5h1.1c.3,0,.5.2.5.5v7.4ZM62.7,66.1c-.9,0-1.5,0-2.3.2-.3,0-.5-.1-.5-.4v-1.1c0-.3.1-.4.5-.5.7-.1,1.3-.1,2.4-.1,3.4,0,5,1.9,5,6.3s-1.6,6.3-4.9,6.3-2.2-.3-3.3-.7c-.4-.1-.5-.3-.4-.6l.3-1c0-.3.2-.4.3-.4s.1,0,.2,0c1.1.4,2,.7,2.7.7,2,0,2.9-1.4,2.9-4.3s-.8-4.3-3.1-4.3ZM55.8,71.9c0-.4-.2-.6-.6-.6h-1.2c-.3,0-.5-.1-.5-.5v-1.1c0-.3.1-.5.5-.5h1.1c.4,0,.6.1.7.4v-6.2c0-.3.2-.5.5-.5h1.1c.3,0,.5.2.5.5v15c0,.3-.2.5-.5.5h-1.1c-.3,0-.5-.2-.5-.5v-6.6ZM50.7,79.4c-.8,0-1.4-.5-1.4-1.3s.6-1.3,1.4-1.3,1.4.5,1.4,1.3-.6,1.3-1.4,1.3ZM318.4,103.4l.3-1c0-.3.2-.4.3-.4s.1,0,.2,0c1,.4,1.9.7,2.7.7,1.8,0,2.5-.8,2.5-3s-.1-4.6-.4-7c0-.3.1-.5.5-.5h1.1c.3,0,.5.1.5.4.3,2.2.4,4.2.4,6.9s-1.5,5.2-4.4,5.2-2.1-.2-3.3-.7c-.4-.1-.5-.3-.4-.6ZM316.2,95.8c0,.4.2.6.6.6h3.1c.3,0,.4.1.4.5v1.1c0,.3-.1.5-.4.5h-3c-.4,0-.6-.1-.7-.4v8.5c0,.3-.2.5-.5.5h-1.1c-.3,0-.5-.2-.5-.5v-15c0-.3.2-.5.5-.5h1.1c.3,0,.5.2.5.5v4.3ZM307.3,97.1c.4,0,.7-.2.7-.6v-2.8c0-.3-.2-.4-.4-.4h-4.7c-1.1,0-1.5.3-1.5,1.4s.7,2.4,1.8,2.4h4.1ZM298.4,102.3c-.3,0-.5-.2-.5-.5v-1c0-.3.2-.5.5-.4,1.4.2,3.8.3,6.3.3s4.6-.1,6.3-.3c.3,0,.5.1.5.4v1c0,.3-.1.5-.4.5-1.3.2-3.8.3-5.8.3.3.1.5.4.5.8v2.5c0,.3-.2.5-.5.5h-1.1c-.3,0-.5-.2-.5-.5v-2.7c0-.4-.2-.6-.6-.6-1.5,0-3.5-.1-4.7-.3ZM299.3,93.8c0-1.6.8-2.4,2.6-2.4h7.3c.5,0,.8.3.8.8v5.1c0,1-.7,1.6-1.9,1.6h-8.7c-.3,0-.5-.1-.5-.4v-1c0-.3.1-.5.5-.5h1.5c-1-.6-1.7-1.8-1.7-3.3ZM282.9,107.3c-4.1,0-6.2-1.1-6.2-3.2s2.1-3.2,6.2-3.2,6.2,1.1,6.2,3.2-2.1,3.2-6.2,3.2ZM277.6,91h1.1c.3,0,.4.1.4.4v2.8s.9,0,.9,0c.3,0,.5.1.6.3v-2.9c0-.3.1-.4.4-.4h1.1c.3,0,.4.1.4.4v7.5c0,.3-.1.4-.4.4h-1.1c-.3,0-.4-.1-.4-.4v-2.4c0-.4-.1-.5-.5-.5h-1s0,3.3,0,3.3c0,.3-.1.4-.4.4h-1.1c-.3,0-.4-.1-.4-.4v-8c0-.3.1-.4.4-.4ZM287.7,99.7c-2.1,0-3.3-1-3.3-2.7s1.2-2.7,3.3-2.7,3.3,1,3.3,2.7-1.2,2.7-3.3,2.7ZM282.9,102.7c-3,0-4.1.5-4.1,1.3s1,1.3,4.1,1.3,4.1-.5,4.1-1.3-1-1.3-4.1-1.3ZM287.2,90.2h1.1c.3,0,.4.1.4.4v.4c0,.2-.1.4-.3.5h2.7c.3,0,.4.1.4.5v1c0,.3-.1.5-.4.5h-6.9c-.3,0-.4-.1-.4-.5v-1c0-.3.1-.5.4-.5h2.1c.3,0,.4,0,.4-.3v-.6c0-.3.1-.4.4-.4ZM289.1,97c0-.6-.5-.9-1.4-.9s-1.4.3-1.4.9.5.9,1.4.9,1.4-.3,1.4-.9ZM262.5,95.9l-.3-4c0-.3.2-.5.5-.5h1.1c.3,0,.5.2.5.5v.7s6.9,0,6.9,0v-.7c0-.3.2-.5.5-.5h1.1c.3,0,.5.2.5.5l-.3,4c0,1.1-.8,1.7-2,1.7h-2.2s0,.9,0,.9c0,.2-.1.4-.3.5,1.8,0,4.2,0,5.5-.2.3,0,.5.1.5.4v1c0,.3-.1.5-.5.5-1.1.1-3,.2-6.3.2-2.5,0-5.1,0-6.4-.2-.3,0-.4-.2-.4-.5v-1c0-.3.2-.5.5-.4,1.3.1,3.4.2,4.8.1.3,0,.5-.2.5-.4v-1s-2.2,0-2.2,0c-1.3,0-2-.6-2-1.7ZM262,104.5c0-2.1.9-2.8,3.4-2.8s5,.1,7.4.3c.3,0,.4.2.4.5v1c0,.3-.1.5-.4.4-2.5-.2-4.9-.3-7.3-.3s-1.5.3-1.5,1.5,0,1,0,1.5c0,.3-.2.5-.5.5h-1.1c-.3,0-.5-.2-.5-.5,0-.6-.1-1.1-.1-2.1ZM264.5,94.4v.7c0,.5.3.7.9.7h4.9c.5,0,.8-.2.8-.7v-.7c0,0-6.5,0-6.5,0ZM253.1,100.1c0,1.6.7,2.5,1.9,2.5s1.9-.8,1.9-2.5-.7-2.4-1.9-2.4-1.9.8-1.9,2.4ZM255,95.6c2.5,0,3.9,1.6,3.9,4.4s-1.5,4.4-3.9,4.4-3.9-1.6-3.9-4.4,1.5-4.4,3.9-4.4ZM246.9,99.9c0-.4-.2-.6-.6-.6h-1.2c-.3,0-.5-.1-.5-.5v-1.1c0-.3.1-.5.5-.5h1.1c.4,0,.6.1.7.4v-6.2c0-.3.2-.5.5-.5h1.1c.3,0,.5.2.5.5v15c0,.3-.2.5-.5.5h-1.1c-.3,0-.5-.2-.5-.5v-6.6ZM253.9,92.2v-1.2c0-.3.1-.5.5-.5h1.2c.3,0,.4.1.4.5v1c0,.2-.1.4-.3.5h3.3c.3,0,.4.1.4.5v1.1c0,.3-.1.5-.4.5h-8c-.3,0-.4-.1-.4-.5v-1.1c0-.3.1-.5.4-.5h2.6c.3,0,.4,0,.4-.3ZM235.7,96c0-2.8,1-3.9,3.5-3.9s2.4.1,3.8.3c.3,0,.4.2.4.5v1c0,.3-.2.5-.5.5-1.2-.2-2-.3-3.3-.3s-1.8.5-1.8,2.1c0,2.6.2,5.2.7,7.8,0,.3-.1.5-.4.5h-1.2c-.3,0-.4-.1-.5-.4-.5-2.6-.7-5.2-.7-8.1ZM232.9,96.7c0,.4.2.6.6.6h.9c.3,0,.4.1.4.4v1.1c0,.3-.1.5-.4.5h-.8c-.4,0-.6-.1-.7-.4v7.6c0,.3-.2.5-.5.5h-1.1c-.3,0-.5-.2-.5-.5v-15c0-.3.2-.5.5-.5h1.1c.3,0,.5.2.5.5v5.2ZM220.2,103.4l.3-1c0-.3.2-.4.3-.4s.1,0,.2,0c1,.4,1.9.7,2.7.7,1.8,0,2.5-.8,2.5-3s-.1-4.6-.4-7c0-.3.1-.5.5-.5h1.1c.3,0,.5.1.5.4.3,2.2.4,4.2.4,6.9s-1.5,5.2-4.4,5.2-2.1-.2-3.3-.7c-.4-.1-.5-.3-.4-.6ZM216.3,99.9c0-.4-.2-.6-.6-.6h-1.2c-.3,0-.4-.1-.4-.5v-1.1c0-.3.1-.5.4-.5h1.1c.4,0,.6.1.7.4v-6.2c0-.3.2-.5.5-.5h1.1c.3,0,.5.2.5.5v15c0,.3-.2.5-.5.5h-1.1c-.3,0-.5-.2-.5-.5v-6.6ZM194.7,106.5v-.8c0-.3.2-.4.5-.4,1.4.2,3.4.3,4.8.3,3.7,0,4.4,0,4.4-.6s-.4-.6-3.4-.6-4.2,0-5.3,0c-.3,0-.4-.1-.4-.4v-.7c0-.3.1-.4.4-.4h.6c-.7-.2-1.2-.8-1.2-1.5s.4-1.3,1.7-1.3c.8,0,1.9,0,3.1,0v-.4c0-.3-.1-.5-.5-.5-1.4,0-3.6,0-4.9-.2-.3,0-.4-.2-.4-.5v-.9c0-.3.2-.4.4-.4,1.3.1,3.9.2,6.4.2,3.3,0,5.2,0,6.3-.2.3,0,.4.1.4.4v.9c0,.3-.1.4-.4.4-1.4.1-3.8.2-5.6.2.1,0,.2.3.2.5v.5c1.3,0,2.6.1,3.8.2.3,0,.4.1.4.4v.8c0,.3-.1.4-.4.4-2-.1-5.8-.3-7.7-.3s-.8.2-.8.6.2.5.9.5c.9,0,2,0,3,0,4.3,0,5.4.5,5.4,2.2s-1.2,2.3-6.5,2.3-3.5-.1-4.9-.3c-.3,0-.4-.2-.4-.4ZM195.5,95.2l-.3-3.3c0-.3.2-.5.5-.5h1.1c.3,0,.4.2.5.5v.4s6.9,0,6.9,0v-.4c0-.3.2-.5.5-.5h1.1c.3,0,.5.2.5.5l-.3,3.3c0,1-.7,1.5-1.8,1.5h-6.9c-1.1,0-1.7-.5-1.8-1.5ZM197.5,93.9v.5c0,.4.3.6.7.6h5.1c.5,0,.6-.1.7-.6v-.5s-6.5,0-6.5,0ZM184,107.3c-4.1,0-6.2-1.1-6.2-3.2s2.1-3.2,6.2-3.2,6.2,1.1,6.2,3.2-2.1,3.2-6.2,3.2ZM178.6,91h1.1c.3,0,.4.1.4.4v2.8s.9,0,.9,0c.3,0,.5.1.6.3v-2.9c0-.3.1-.4.4-.4h1.1c.3,0,.4.1.4.4v7.5c0,.3-.1.4-.4.4h-1.1c-.3,0-.4-.1-.4-.4v-2.4c0-.4-.1-.5-.5-.5h-1s0,3.3,0,3.3c0,.3-.1.4-.4.4h-1.1c-.3,0-.4-.1-.4-.4v-8c0-.3.1-.4.4-.4ZM188.8,99.7c-2.1,0-3.3-1-3.3-2.7s1.2-2.7,3.3-2.7,3.3,1,3.3,2.7-1.2,2.7-3.3,2.7ZM184,102.7c-3,0-4.1.5-4.1,1.3s1,1.3,4.1,1.3,4.1-.5,4.1-1.3-1-1.3-4.1-1.3ZM188.2,90.2h1.1c.3,0,.4.1.4.4v.4c0,.2-.1.4-.3.5h2.7c.3,0,.4.1.4.5v1c0,.3-.1.5-.4.5h-6.9c-.3,0-.4-.1-.4-.5v-1c0-.3.1-.5.4-.5h2.1c.3,0,.4,0,.4-.3v-.6c0-.3.1-.4.4-.4ZM190.2,97c0-.6-.5-.9-1.4-.9s-1.4.3-1.4.9.5.9,1.4.9,1.4-.3,1.4-.9ZM169.9,100.1c0,1.6.7,2.5,1.9,2.5s1.9-.8,1.9-2.5-.7-2.4-1.9-2.4-1.9.8-1.9,2.4ZM171.7,95.6c2.5,0,3.9,1.6,3.9,4.4s-1.5,4.4-3.9,4.4-3.9-1.6-3.9-4.4,1.5-4.4,3.9-4.4ZM163.6,99.9c0-.4-.2-.6-.6-.6h-1.2c-.3,0-.4-.1-.4-.5v-1.1c0-.3.1-.5.4-.5h1.1c.4,0,.6.1.7.4v-6.2c0-.3.2-.5.5-.5h1.1c.3,0,.5.2.5.5v15c0,.3-.2.5-.5.5h-1.1c-.3,0-.5-.2-.5-.5v-6.6ZM170.6,92.2v-1.2c0-.3.1-.5.4-.5h1.2c.3,0,.5.1.5.5v1c0,.2-.1.4-.3.5h3.3c.3,0,.4.1.4.5v1.1c0,.3-.1.5-.4.5h-8c-.3,0-.4-.1-.4-.5v-1.1c0-.3.1-.5.4-.5h2.6c.3,0,.4,0,.4-.3ZM157.1,94.1v4.3c0,2.1,1.3,3.9,2.8,4.1.3,0,.4.2.4.5v1.1c0,.3-.1.4-.5.4-1.7-.2-3.3-1.6-3.8-3.3-.4,1.7-2,3-3.8,3.3-.3,0-.4-.1-.4-.4v-1.1c0-.3.1-.4.4-.5,1.5-.2,2.8-2.1,2.8-4.1v-4.3s-2.7,0-2.7,0c-.3,0-.5-.1-.5-.5v-1.1c0-.3.1-.5.5-.5h7.4c.3,0,.4.1.4.5v1.1c0,.3-.1.5-.4.5h-2.6ZM149.7,106.5c0,.3-.2.5-.5.5h-1.1c-.3,0-.5-.2-.5-.5v-15c0-.3.2-.5.5-.5h1.1c.3,0,.5.2.5.5v15ZM134,106.5v-1.1c0-.3.3-.4.6-.3.5.1,1.3.3,1.8.3s.9-.3.9-.8c0-1.3,0-2.6-.1-3.6,0-.3.1-.4.4-.4h1.2c.3,0,.5.1.5.4,0,1,.1,2.4.1,4s-.9,2.5-2.9,2.5-1.5-.1-2.1-.3c-.3,0-.4-.2-.4-.5ZM136.2,97.1c1.2,0,2-.8,2-2.1s-.8-2-2-2-2,.8-2,2,.8,2.1,2,2.1ZM130.3,104.4c-.8,0-1.2.2-1.2.6s.4.6,1.2.6,1.2-.2,1.2-.6-.4-.6-1.2-.6ZM129.4,100.1v-.4c0-.3.1-.4.5-.4h1.1c.3,0,.4.1.4.4h0c0,.4-.1.7-.3.8h2.4c.3,0,.4.1.4.4v.9c0,.3-.2.4-.4.4h-6.3c-.3,0-.4-.1-.4-.4v-.9c0-.3.2-.4.4-.4h1.8c.3,0,.4-.1.4-.3ZM136.2,91.3c2.5,0,4,1.5,4,3.8s-1.6,3.9-4,3.9-4.1-1.5-4.1-3.9,1.6-3.8,4.1-3.8ZM128,96.1c0-.4-.2-.6-.6-.6h-1.2c-.3,0-.4-.1-.4-.5v-1c0-.3.1-.4.4-.4h1.1c.4,0,.6.1.7.4v-2.5c0-.3.2-.5.5-.5h1.1c.3,0,.5.2.5.5v6.7c0,.3-.2.5-.5.5h-1.1c-.3,0-.5-.2-.5-.5v-2.1ZM130.3,107.3c-2,0-3.1-.8-3.1-2.3s1.1-2.2,3.1-2.2,3.1.8,3.1,2.3-1.1,2.2-3.1,2.2ZM123.1,104c0,2.1-1.4,3.3-3.8,3.3s-5.6-.1-7.4-.3c-.3,0-.4-.2-.4-.4v-1c0-.3.3-.5.5-.4,2.1.2,4.2.3,7.4.3s1.7-.5,1.7-1.5,0-.9-.1-1.3c0-.3.1-.5.4-.5h1.1c.3,0,.5.2.5.5,0,.4.1.8.1,1.4ZM124.3,99.5v1c0,.3-.1.4-.4.5-1.1.1-3,.2-6.3.2-2.5,0-5.1,0-6.4-.2-.3,0-.4-.2-.4-.5v-1c0-.3.2-.5.5-.4,1.3.1,3.4.2,6.3.2s4.6,0,6.3-.2c.3,0,.5.1.5.4ZM117.4,98.1c-3.9,0-5.6-1.1-5.6-3.4s1.7-3.4,5.6-3.4,5.6,1.1,5.6,3.4-1.7,3.4-5.6,3.4ZM120.9,94.7c0-1.1-.9-1.6-3.5-1.6s-3.5.4-3.5,1.6.9,1.6,3.5,1.6,3.5-.5,3.5-1.6ZM96.7,107.3c-3.9,0-5.9-1.2-5.9-3.4s2-3.4,5.9-3.4,5.9,1.2,5.9,3.4-2,3.4-5.9,3.4ZM102.9,93.3l-.2,4c.5,0,.9,0,1.2-.1.3,0,.4.1.4.5v1c0,.3-.1.4-.4.4-.9.1-2.4.2-4.1.2s-3.1-.1-3.9-.2c-.3,0-.5-.1-.5-.4v-1c0-.3.1-.5.5-.5.3,0,.7,0,1,0l-.2-4h-.8c-.3,0-.4-.1-.4-.4v-1c0-.3.1-.5.4-.5h7.7c.3,0,.4.1.4.5v1c0,.3-.1.4-.4.4h-.8ZM93.3,99.1c0,.3-.2.5-.5.5h-1.1c-.3,0-.5-.2-.5-.5v-7.6c0-.3.2-.5.5-.5h1.1c.3,0,.5.2.5.5v.6c0,.4.1.5.5.5h.9c.3,0,.5.1.5.4v1c0,.3-.1.4-.5.4h-.6c-.3,0-.6-.1-.7-.4v1.4c0,.4.1.5.5.5h.9c.3,0,.5.1.5.4v1c0,.3-.1.4-.5.4h-.6c-.3,0-.6-.1-.7-.4v1.5ZM96.7,102.3c-2.8,0-3.8.6-3.8,1.5s1,1.5,3.8,1.5,3.8-.6,3.8-1.5-1-1.5-3.8-1.5ZM100.8,93.3h-2.1s.2,4.1.2,4.1c.3,0,.5,0,.8,0s.5,0,.8,0l.2-4.1ZM84.7,105.2c.4,0,.7-.2.7-.6v-1.8c0-.3-.2-.4-.4-.4h-5.5c-.8,0-1.2.3-1.2,1.1s.7,1.7,1.6,1.7h4.9ZM83.2,95.1v1.6c0,.4.3.6.7.6h2.1c.4,0,.6-.2.6-.6v-1.6c0,0-3.4,0-3.4,0ZM76.2,102.6c0-1.3.8-2.1,2.2-2.1h8.3c.5,0,.8.3.8.8v4.1c0,1-.7,1.6-1.9,1.6h-9.3c-.3,0-.4-.1-.4-.4v-1c0-.3.1-.5.4-.5h1.3c-.9-.5-1.5-1.5-1.5-2.6ZM83.3,99.1c-1.3,0-2-.7-2.1-1.8l-.3-5.4c0-.3.2-.5.5-.5h1.1c.3,0,.5.1.5.4v1.3h3.7s0-1.3,0-1.3c0-.3.2-.4.5-.4h1.1c.3,0,.5.2.5.5l-.3,5.4c0,1.1-.8,1.8-2.1,1.8h-3.2ZM78.4,93.5c0,.4.2.6.6.6h.9c.3,0,.4.1.4.4v1c0,.3-.1.4-.4.4h-.8c-.4,0-.6-.1-.7-.4v3.1c0,.3-.2.5-.5.5h-1.1c-.3,0-.5-.2-.5-.5v-7.2c0-.3.2-.5.5-.5h1.1c.3,0,.5.2.5.5v2ZM68,100.1c0,1.6.7,2.5,1.9,2.5s1.9-.8,1.9-2.5-.7-2.4-1.9-2.4-1.9.8-1.9,2.4ZM69.8,95.6c2.5,0,3.9,1.6,3.9,4.4s-1.5,4.4-3.9,4.4-3.9-1.6-3.9-4.4,1.5-4.4,3.9-4.4ZM61.7,99.9c0-.4-.2-.6-.6-.6h-1.2c-.3,0-.4-.1-.4-.5v-1.1c0-.3.1-.5.4-.5h1.1c.4,0,.6.1.7.4v-6.2c0-.3.2-.5.5-.5h1.1c.3,0,.5.2.5.5v15c0,.3-.2.5-.5.5h-1.1c-.3,0-.5-.2-.5-.5v-6.6ZM68.7,92.2v-1.2c0-.3.1-.5.5-.5h1.2c.3,0,.5.1.5.5v1c0,.2-.1.4-.3.5h3.3c.3,0,.5.1.5.5v1.1c0,.3-.1.5-.5.5h-8c-.3,0-.5-.1-.5-.5v-1.1c0-.3.1-.5.5-.5h2.6c.3,0,.4,0,.4-.3ZM51.3,105.6c-2.8,0-5.2-.1-6.4-.3s-.5-.2-.5-.5v-1c0-.3.2-.5.5-.4,1.2.1,3.6.3,5.5.3s.6-.2.6-.6v-4.1c0-.3.2-.5.5-.5h1.1c.3,0,.5.2.5.5v4c0,.4-.2.6-.5.8,1.5,0,3.3-.2,4.8-.3.3,0,.5.1.5.4v1c0,.3-.1.4-.4.5-1.4.2-3.5.3-6.3.3ZM50.4,93.9c-1.9,0-2.6.8-2.6,2.8s.1,2.5.3,3.4c0,.3,0,.4-.3.5l-1.2.2c-.3,0-.4,0-.5-.3-.3-1.3-.3-2.4-.3-4.1,0-2.8,1.5-4.4,4.2-4.4s4.1,0,6.1.3c.3,0,.5.2.5.5v1.1c0,.3-.2.5-.5.4-1.8-.2-3.6-.3-5.7-.3ZM322.2,125.1c.4,0,.7-.2.7-.6v-2.8c0-.3-.2-.4-.4-.4h-4.7c-1.1,0-1.5.3-1.5,1.4s.7,2.4,1.8,2.4h4.1ZM313.4,130.3c-.3,0-.5-.2-.5-.5v-1c0-.3.2-.4.5-.4,1.4.2,3.8.3,6.3.3s4.6-.1,6.3-.3c.3,0,.5.1.5.4v1c0,.3-.1.5-.4.5-1.3.2-3.8.3-5.8.3.3.1.5.4.5.8v2.5c0,.3-.2.5-.5.5h-1.1c-.3,0-.5-.2-.5-.5v-2.7c0-.4-.2-.6-.6-.6-1.5,0-3.5-.1-4.7-.3ZM314.2,121.8c0-1.6.8-2.4,2.6-2.4h7.3c.5,0,.8.3.8.8v5.1c0,1-.7,1.6-1.9,1.6h-8.7c-.3,0-.4-.1-.4-.4v-1c0-.3.1-.5.4-.5h1.5c-1-.6-1.7-1.8-1.7-3.3ZM303,126.1l.2-.8c0-.3.2-.4.5-.3,1.1.3,2.1.4,3,.4,1.9,0,2.6-.2,2.6-.9s-.7-.9-3-.9-1.6,0-2.1.1c-.3,0-.5,0-.5-.4v-.8c0-.3.1-.4.4-.5.7,0,1.5-.2,2.3-.2,3.7,0,5,.7,5,2.6s-1.3,2.6-4.6,2.6-2.3-.2-3.5-.5c-.3,0-.4-.3-.3-.5ZM298.9,134.5v-.8c0-.3.2-.4.5-.4,1.4.2,3.2.3,4.5.3,3.7,0,4.3,0,4.3-.6s-.4-.6-3.3-.6-3.8,0-5.1,0c-.3,0-.4-.1-.4-.4v-.8c0-.3.1-.4.4-.4h.6c-.7-.3-1.2-.8-1.2-1.5s.5-1.3,1.6-1.3c2.3,0,5.9,0,8.6.2.3,0,.4.1.4.4v.8c0,.3-.1.4-.4.4-2-.1-5.5-.3-7.3-.3s-.9.2-.9.6.3.5.9.5c1,0,1.7,0,2.6,0,4.1,0,5.3.5,5.3,2.2s-1.3,2.3-6.4,2.3-3.1-.1-4.6-.3c-.3,0-.4-.2-.4-.5ZM303.8,121.1c-.3,0-.4-.1-.4-.4v-.8c0-.3.1-.4.4-.4h7c.3,0,.4.1.4.4v.8c0,.3-.1.4-.4.4h-7ZM299.4,124.3c0-.4-.2-.6-.6-.6h-1.2c-.3,0-.4-.1-.4-.5v-1c0-.3.1-.5.4-.5h1.1c.4,0,.6.1.7.4v-2.7c0-.3.2-.5.5-.5h1.1c.3,0,.5.2.5.5v7.1c0,.3-.2.5-.5.5h-1.1c-.3,0-.5-.2-.5-.5v-2.3ZM294.2,125.4c0-.8-.5-1.1-1.9-1.1s-1.9.4-1.9,1.1.5,1.1,1.9,1.1,1.9-.4,1.9-1.1ZM292.4,128.4c-2.6,0-3.9-1-3.9-3s1.3-3,3.9-3,3.9,1,3.9,3-1.3,3-3.9,3ZM284.3,125.8c0-.4-.2-.6-.6-.6h-1.2c-.3,0-.4-.1-.4-.5v-1c0-.3.1-.4.4-.4h1.1c.4,0,.6.1.7.4v-4.2c0-.3.2-.5.5-.5h1.1c.3,0,.5.2.5.5v10.1c0,.3-.2.5-.5.5h-1.1c-.3,0-.5-.2-.5-.5v-3.8ZM291.3,119.3v-.6c0-.3.1-.4.4-.4h1.2c.3,0,.4.1.4.4v.4c0,.2-.1.4-.3.5h3.3c.3,0,.5.1.5.5v1c0,.3-.1.4-.5.4h-8c-.3,0-.5-.1-.5-.4v-1c0-.3.1-.5.5-.5h2.6c.3,0,.4,0,.4-.3ZM294.9,131.9c0,2.1-1.5,3.3-4,3.3s-5-.1-6.7-.3c-.3,0-.4-.2-.4-.4v-1c0-.3.3-.5.5-.4,2.1.2,3.7.3,6.7.3s1.8-.6,1.8-1.7,0-1-.1-1.4c0-.3.2-.5.5-.5h1.1c.3,0,.5.2.5.5,0,.4.1,1,.1,1.6ZM274,120.7c0-.7.5-1.2,1.1-1.3-.1-.3-.3-.4-.7-.4s-.2,0-.2-.2v-.4c0-.1,0-.2.2-.2,1.4,0,2.3.9,2.3,2.3s-.5,1.4-1.4,1.4-1.4-.5-1.4-1.3ZM266.9,126.4c0,3.2.6,4.5,2,4.5s2-1.3,2-4.5-.6-4.5-2-4.5-2,1.3-2,4.5ZM268.8,120c2.8,0,4,2,4,6.4s-1.3,6.5-4,6.5-4-2-4-6.5,1.2-6.4,4-6.4ZM260.7,127.9c0-.4-.2-.6-.6-.6h-1.2c-.3,0-.4-.1-.4-.5v-1.1c0-.3.1-.5.4-.5h1.1c.4,0,.6.1.7.4v-6.2c0-.3.2-.5.5-.5h1.1c.3,0,.5.2.5.5v15c0,.3-.2.5-.5.5h-1.1c-.3,0-.5-.2-.5-.5v-6.6ZM255.5,119.4c.3,0,.5.1.5.5v1.1c0,.3-.1.4-.5.4h-3.8c0,2.1,1.7,3.5,4.1,3.5s.4.1.4.4v1.1c0,.5-.3.5-.6.5-2.1,0-4.1-1.2-4.9-2.9-.8,1.7-2.8,2.9-4.9,2.9s-.6,0-.6-.5v-1.1c0-.3.1-.4.4-.4,2.4,0,4-1.5,4.1-3.5h-3.8c-.3,0-.5-.1-.5-.4v-1.1c0-.3.1-.5.5-.5h9.7ZM244.4,130.3c-.3,0-.5-.2-.5-.5v-1c0-.3.2-.4.5-.4,1.4.2,3.8.3,6.3.3s4.6-.1,6.3-.3c.3,0,.5.1.5.4v1c0,.3-.1.5-.4.5-1.3.2-3.8.3-5.8.3.3.1.5.4.5.8v2.5c0,.3-.2.5-.5.5h-1.1c-.3,0-.5-.2-.5-.5v-2.7c0-.4-.2-.6-.6-.6-1.5,0-3.5-.1-4.7-.3ZM231.1,133.6c-2.8,0-5.1-.1-6.4-.3-.3,0-.4-.2-.4-.5v-1c0-.3.2-.5.5-.4,1.2.2,3.1.3,4.6.3s.6-.2.6-.6v-2.3s-2,0-2,0c-1.3,0-2.2-.7-2.2-1.9l-.3-6.5c0-.3.2-.5.5-.5h1.1c.3,0,.5.2.5.5v1.8c0,0,6.8,0,6.8,0v-1.8c0-.3.3-.5.5-.5h1.1c.3,0,.5.2.5.5l-.3,6.5c0,1.2-.9,1.9-2.2,1.9h-2s0,2.1,0,2.1c0,.4-.2.6-.4.8,2,0,4.4-.2,5.7-.3.3,0,.5.1.5.4v1c0,.3-.1.4-.5.5-1.3.2-3.5.3-6.3.3ZM227.8,124.1v2c0,.5.4.7.9.7h4.9c.5,0,.8-.3.8-.7v-2c0,0-6.6,0-6.6,0ZM216,121.8c4.4,0,5.5.5,5.5,2.1s-.9,2.1-4.5,2.2v.6c0,.2-.1.4-.3.5,1.8,0,4.2,0,5.6-.2.3,0,.4.1.4.4v.9c0,.3-.1.4-.4.5-1.1.1-3.1.2-6.4.2-2.5,0-5.1,0-6.4-.2-.3,0-.4-.2-.4-.5v-.9c0-.3.1-.5.4-.4,1.3.1,3.5.2,4.9.1.3,0,.5-.2.5-.4v-.6c-1.5,0-2.8,0-4.1-.2-.3,0-.4-.2-.4-.4v-.8c0-.3.2-.4.5-.4,1.2.2,2.8.2,5.1.2s3.5-.1,3.5-.6-.5-.5-3.3-.5-3.1,0-5,.1c-.3,0-.4-.1-.4-.4v-.8c0-.3,0-.4.4-.4,1.1,0,2.9-.1,4.9-.1ZM215.8,135.3c-4,0-5.9-.8-5.9-2.8s1.9-2.8,5.9-2.8,5.9.8,5.9,2.8-1.9,2.8-5.9,2.8ZM221.4,119.8v.8c0,.3-.1.4-.4.4h-9.8c-.3,0-.4-.1-.4-.4v-.8c0-.3.1-.4.4-.4h9.8c.3,0,.4.1.4.4ZM215.8,131.3c-2.7,0-3.8.3-3.8,1.1s1.1,1.2,3.8,1.2,3.8-.3,3.8-1.2-1.1-1.1-3.8-1.1ZM203.5,132c1.7,0,3.1-.1,4.3-.3.3,0,.5,0,.5.4v1.1c0,.3-.1.4-.4.5-1.2.2-2.6.3-4.3.3s-3.4,0-4.6-.3c-.3,0-.4-.2-.4-.5v-1c0-.3.2-.5.5-.4,1.2.2,2.9.3,4.6.3ZM203.5,129.3c-2.5,0-4.1-1.9-4.1-4.9s1.6-4.8,4.1-4.8,4.1,1.9,4.1,4.8-1.6,4.9-4.1,4.9ZM205.4,124.5c0-1.7-.8-2.9-2-2.9s-2,1.2-2,2.9.8,2.9,2,2.9,2-1.2,2-2.9ZM195.3,119.5c0-.3.2-.5.5-.5h1.1c.3,0,.5.2.5.5v15c0,.3-.2.5-.5.5h-1.1c-.3,0-.5-.2-.5-.5v-15ZM183,128.1c0,1.6.7,2.5,1.9,2.5s1.9-.8,1.9-2.5-.7-2.4-1.9-2.4-1.9.8-1.9,2.4ZM184.9,123.6c2.5,0,3.9,1.6,3.9,4.4s-1.5,4.4-3.9,4.4-3.9-1.6-3.9-4.4,1.5-4.4,3.9-4.4ZM176.8,127.9c0-.4-.2-.6-.6-.6h-1.2c-.3,0-.5-.1-.5-.5v-1.1c0-.3.1-.5.5-.5h1.1c.4,0,.6.1.7.4v-6.2c0-.3.2-.5.5-.5h1.1c.3,0,.5.2.5.5v15c0,.3-.2.5-.5.5h-1.1c-.3,0-.5-.2-.5-.5v-6.6ZM183.8,120.2v-1.2c0-.3.1-.5.5-.5h1.2c.3,0,.4.1.4.5v1c0,.2-.1.4-.3.5h3.3c.3,0,.5.1.5.5v1.1c0,.3-.1.5-.5.5h-8c-.3,0-.4-.1-.4-.5v-1.1c0-.3.1-.5.4-.5h2.6c.3,0,.4,0,.4-.3ZM160.5,130.5c-.3,0-.5-.2-.5-.5v-1c0-.3.2-.4.5-.4,1.4.2,3.8.3,6.3.3s4.6-.1,6.3-.3c.3,0,.5.1.5.4v1c0,.3-.1.5-.5.5-1.3.2-3.8.3-5.8.3.3.1.5.4.5.8v2.3c0,.3-.2.5-.5.5h-1.1c-.3,0-.5-.2-.5-.5v-2.5c0-.4-.2-.6-.6-.6-1.5,0-3.5-.1-4.7-.3ZM161.3,120.9c0-1,.7-1.5,2.1-1.5,4.3,0,6.5,0,8,.3.3,0,.4.2.4.4v1c0,.3-.2.4-.4.4-1.9-.3-4.1-.3-6.8-.3s-1.1.2-1.1.6.3.5,1.2.5h2.2c4.2,0,5.3.5,5.3,2.4s-1.2,2.6-6.4,2.6-3-.1-4.5-.4c-.2,0-.4-.2-.3-.5l.2-1c0-.3.2-.4.4-.3,1.3.2,2.8.3,4.3.3,3.5,0,4.3,0,4.3-.7s-.6-.7-3.3-.7-3.2,0-4.9,0-.4-.2-.4-.4v-.8c0-.3.1-.4.4-.4h.8c-.9-.3-1.3-.8-1.3-1.7ZM153.2,118.8c-.2-.3,0-.5.3-.5h1.1c.3,0,.5,0,.6.3,1.7,2.5,2.6,5.3,2.6,8.5s-.9,6-2.6,8.5c-.2.3-.3.3-.6.3h-1.1c-.3,0-.5-.2-.3-.5,1.9-2.9,2.7-5.4,2.7-8.3s-.8-5.5-2.7-8.3ZM138.8,134.5v-.8c0-.3.2-.4.5-.4,1.4.2,3.4.3,4.8.3,3.7,0,4.4,0,4.4-.6s-.4-.6-3.4-.6-4.2,0-5.3,0c-.3,0-.4-.1-.4-.4v-.7c0-.3.1-.4.4-.4h.6c-.7-.2-1.2-.8-1.2-1.5s.4-1.3,1.7-1.3c.8,0,1.9,0,3.1,0v-.4c0-.3-.1-.5-.4-.5-1.4,0-3.6,0-4.9-.2-.3,0-.4-.2-.4-.5v-.9c0-.3.2-.4.4-.4,1.3.1,3.9.2,6.4.2,3.3,0,5.2,0,6.3-.2.3,0,.4.1.4.4v.9c0,.3-.1.4-.4.4-1.4.1-3.8.2-5.6.2.1,0,.2.3.2.5v.5c1.3,0,2.6.1,3.8.2.3,0,.4.1.4.4v.8c0,.3-.1.4-.4.4-2-.1-5.9-.3-7.7-.3s-.8.2-.8.6.2.5.9.5c.9,0,2,0,3,0,4.3,0,5.4.5,5.4,2.2s-1.2,2.3-6.5,2.3-3.5-.1-4.9-.3c-.3,0-.4-.2-.4-.5ZM144.9,122.6c-.8,1.3-2.9,2.2-5.1,2.1-.3,0-.4-.1-.4-.4v-.9c0-.3.1-.4.4-.4,2.4,0,3.9-.7,4.1-1.8h-3.8c-.3,0-.4-.1-.4-.4v-.9c0-.3.1-.4.4-.4h9.7c.3,0,.4.1.4.4v.9c0,.3-.1.4-.4.4h-3.8c.1,1.1,1.7,1.8,4.1,1.8s.4.1.4.4v.9c0,.3-.1.4-.4.4-2.2.1-4.4-.8-5.1-2.1ZM131,126.4c0,3.2.6,4.5,1.9,4.5s1.9-1.3,1.9-4.5-.5-4.5-1.9-4.5-1.9,1.3-1.9,4.5ZM132.9,120c2.8,0,3.9,2,3.9,6.4s-1.2,6.5-3.9,6.5-4-2-4-6.5,1.2-6.4,4-6.4ZM127,122.4h.9c.3,0,.4.1.4.4v1.1c0,.3-.1.4-.4.4h-.8c-.4,0-.6-.1-.7-.4v3.4c0,.4.2.6.6.6h.9c.3,0,.4.1.4.4v1.1c0,.3-.1.4-.4.4h-.8c-.4,0-.6-.1-.7-.4v4.9c0,.3-.2.5-.5.5h-1.1c-.3,0-.5-.2-.5-.5v-15c0-.3.2-.5.5-.5h1.1c.3,0,.5.2.5.5v2.3c0,.4.2.6.6.6ZM114.5,132.5c-.3,0-.4-.1-.4-.4v-1.1c0-.3.1-.4.4-.5,1.5-.2,2.8-2.1,2.8-4.1v-5.8c0-.3.2-.5.5-.5h1.1c.3,0,.5.2.5.5v5.8c0,2.1,1.3,3.9,2.8,4.1.3,0,.4.2.4.5v1.1c0,.3-.1.4-.5.4-1.7-.2-3.3-1.6-3.8-3.3-.4,1.7-2,3-3.8,3.3ZM111.9,123.8c0,.4.2.6.6.6h2c.3,0,.4.1.4.5v1.1c0,.3-.1.5-.4.5h-1.9c-.4,0-.6-.1-.7-.4v8.5c0,.3-.2.5-.5.5h-1.1c-.3,0-.5-.2-.5-.5v-15c0-.3.2-.5.5-.5h1.1c.3,0,.5.2.5.5v4.3ZM97.5,126.4c0,3.2.6,4.5,2,4.5s2-1.3,2-4.5-.6-4.5-2-4.5-2,1.3-2,4.5ZM99.5,120c2.8,0,4,2,4,6.4s-1.3,6.5-4,6.5-4.1-2-4.1-6.5,1.2-6.4,4.1-6.4ZM91.3,127.9c0-.4-.2-.6-.6-.6h-1.2c-.3,0-.4-.1-.4-.5v-1.1c0-.3.1-.5.4-.5h1.1c.4,0,.6.1.7.4v-6.2c0-.3.2-.5.5-.5h1.1c.3,0,.5.2.5.5v15c0,.3-.2.5-.5.5h-1.1c-.3,0-.5-.2-.5-.5v-6.6ZM81.4,133.6c-2.8,0-5.1-.1-6.4-.3-.3,0-.4-.2-.4-.5v-1c0-.3.2-.5.5-.4,1.2.2,3.1.3,4.6.3s.6-.2.6-.6v-2.3s-2,0-2,0c-1.3,0-2.2-.7-2.2-1.9l-.3-6.5c0-.3.2-.5.5-.5h1.1c.3,0,.5.2.5.5v1.8c0,0,6.8,0,6.8,0v-1.8c0-.3.3-.5.5-.5h1.1c.3,0,.5.2.5.5l-.3,6.5c0,1.2-.9,1.9-2.2,1.9h-2s0,2.1,0,2.1c0,.4-.2.6-.5.8,2,0,4.4-.2,5.7-.3.3,0,.5.1.5.4v1c0,.3-.1.4-.5.5-1.4.2-3.5.3-6.3.3ZM78.1,124.1v2c0,.5.4.7.9.7h4.9c.5,0,.8-.3.8-.7v-2c0,0-6.6,0-6.6,0ZM67.3,128.1c0,1.6.7,2.5,1.9,2.5s1.9-.8,1.9-2.5-.7-2.4-1.9-2.4-1.9.8-1.9,2.4ZM69.2,123.6c2.5,0,3.9,1.6,3.9,4.4s-1.5,4.4-3.9,4.4-3.9-1.6-3.9-4.4,1.5-4.4,3.9-4.4ZM61.1,127.9c0-.4-.2-.6-.6-.6h-1.2c-.3,0-.5-.1-.5-.5v-1.1c0-.3.1-.5.5-.5h1.1c.4,0,.6.1.7.4v-6.2c0-.3.2-.5.5-.5h1.1c.3,0,.5.2.5.5v15c0,.3-.2.5-.5.5h-1.1c-.3,0-.5-.2-.5-.5v-6.6ZM68.1,120.2v-1.2c0-.3.1-.5.4-.5h1.2c.3,0,.5.1.5.5v1c0,.2-.1.4-.3.5h3.3c.3,0,.4.1.4.5v1.1c0,.3-.1.5-.4.5h-8c-.3,0-.4-.1-.4-.5v-1.1c0-.3.1-.5.4-.5h2.6c.3,0,.4,0,.4-.3ZM58.1,135.4c.2.3,0,.5-.3.5h-1.1c-.3,0-.5,0-.6-.3-1.7-2.5-2.6-5.3-2.6-8.5s.9-6,2.6-8.5c.2-.3.3-.3.6-.3h1.1c.3,0,.5.2.3.5-1.9,2.9-2.7,5.4-2.7,8.3s.8,5.5,2.7,8.3ZM51.3,119.5c0,.7-.4,1.2-1.1,1.3.1.3.3.4.7.4s.2,0,.2.2v.4c0,.1,0,.2-.2.2-1.4,0-2.3-.9-2.3-2.3s.5-1.4,1.4-1.4,1.4.5,1.4,1.3ZM34.3,134.5v-.8c0-.3.2-.4.5-.3,1.3.2,3.4.3,4.8.3,3.9,0,4.4-.1,4.4-.6s-.4-.5-3.4-.5-4.3,0-5.3,0c-.3,0-.4-.1-.4-.4v-.8c0-.2.1-.3.4-.3h.6c-.7-.2-1.2-.8-1.2-1.5s.4-1.1,1.7-1.2c2.4,0,6.3,0,8.9.2.3,0,.4.1.4.4v.8c0,.3-.1.4-.4.4-1.9-.1-5.7-.2-7.7-.2s-.8.1-.8.4.2.5.9.5c.9,0,2,0,3,0,4.3,0,5.4.4,5.4,2.1s-1.1,2.1-6.5,2.1-3.6-.1-4.9-.3c-.3,0-.4-.1-.3-.4ZM40.4,126.3c2.1,0,4.7,0,6.4-.2.3,0,.4.1.4.4v.8c0,.3-.1.4-.4.4-1.1.1-3.1.2-6.4.2-2.5,0-5.1,0-6.4-.2-.3,0-.4-.2-.4-.5v-.8c0-.3.1-.4.4-.4,1.4.1,3.5.2,6.4.2ZM35.1,122.9v-.7c0-.2.1-.3.3-.3h.7c-.7-.2-1.2-.7-1.2-1.4s.4-1,1.7-1c2.4,0,5.7,0,8.4.2.3,0,.4.1.4.4v.7c0,.3,0,.4-.3.4-1.9-.1-5.2-.2-7.2-.2s-.8,0-.8.4.2.4.9.4c.9,0,1.7,0,2.7,0,4.1,0,5.1.4,5.1,1.9s-1.1,1.9-6.2,1.9-3.4-.1-4.6-.3c-.3,0-.3-.1-.3-.4v-.7c0-.3.2-.4.5-.3,1.3.2,3.1.3,4.5.3,3.6,0,4.1,0,4.1-.5s-.4-.5-3.1-.5-4.1,0-5.1,0c-.2,0-.3,0-.3-.3ZM324.3,150.7c0-1-.7-1.6-2-1.6s-2,.6-2,1.6.7,1.6,2,1.6,2-.6,2-1.6ZM327.3,155.2v1.1c0,.3-.1.4-.5.5-.8,0-2.6.1-3.9.1.2,0,.3.2.3.5v1.5c0,.3-.2.5-.5.5h-1.1c-.3,0-.5-.2-.5-.5v-1.6c0-.3-.2-.4-.5-.4-1.2,0-2.4,0-3,0-.3,0-.5-.2-.5-.5v-1c0-.3.2-.4.5-.4,1.2,0,3.1.1,4.8.1s3.3,0,4.4-.1c.3,0,.5,0,.5.4ZM322.3,154.1c-2.6,0-4-1.2-4-3.4s1.5-3.4,4-3.4,4,1.2,4,3.4-1.5,3.4-4,3.4ZM316.2,156.9c0,.4.2.6.6.6h2.3c.3,0,.5.1.5.4v1c0,.3-.1.5-.5.5h-2.2c-.4,0-.6-.1-.7-.4v.4c0,.3-.2.5-.5.5h-1.1c-.3,0-.5-.2-.5-.5v-11.9c0-.3.2-.5.5-.5h1.1c.3,0,.5.2.5.5v9.4ZM325.9,160c0,2.1-1.4,3.3-3.8,3.3s-6.2-.1-8-.3c-.3,0-.5-.2-.4-.4v-1c0-.3.3-.5.5-.4,2.1.2,4.5.3,7.9.3s1.7-.5,1.7-1.5,0-.9-.1-1.3c0-.3.1-.5.4-.5h1.1c.3,0,.5.2.5.5,0,.4.1.8.1,1.4ZM309.5,153.4c0-.8-.5-1.1-1.9-1.1s-1.9.4-1.9,1.1.5,1.1,1.9,1.1,1.9-.4,1.9-1.1ZM307.7,156.4c-2.6,0-3.9-1-3.9-3s1.3-3,3.9-3,3.9,1,3.9,3-1.3,3-3.9,3ZM299.6,153.8c0-.4-.2-.6-.6-.6h-1.2c-.3,0-.5-.1-.5-.4v-1c0-.3.1-.5.5-.5h1.1c.4,0,.6.1.7.4v-4.2c0-.3.2-.5.5-.5h1.1c.3,0,.5.2.5.5v10.1c0,.3-.2.5-.5.5h-1.1c-.3,0-.5-.2-.5-.5v-3.8ZM306.6,147.3v-.6c0-.3.1-.4.5-.4h1.2c.3,0,.4.1.4.4v.5c0,.2-.1.4-.3.5h3.3c.3,0,.5.1.5.4v1c0,.3-.1.4-.5.4h-8c-.3,0-.5-.1-.5-.4v-1c0-.3.1-.4.5-.4h2.6c.3,0,.4,0,.4-.3ZM310.2,159.9c0,2.1-1.5,3.3-4,3.3s-5-.1-6.7-.3c-.3,0-.5-.2-.4-.4v-1c0-.3.3-.5.5-.4,2.1.2,3.7.3,6.7.3s1.8-.6,1.8-1.7,0-1-.1-1.4c0-.3.2-.5.5-.5h1.1c.3,0,.5.2.5.5,0,.4.1,1,.1,1.6ZM290.8,150.1c-.9,0-1.5,0-2.3.2-.3,0-.5-.1-.5-.4v-1.1c0-.3.1-.4.5-.5.7-.1,1.3-.1,2.4-.1,3.4,0,5,1.9,5,6.3,0,4.1-1.6,6.3-4.9,6.3s-2.2-.3-3.3-.7c-.4-.1-.5-.3-.4-.6l.3-1c0-.3.2-.4.3-.4s.1,0,.2,0c1.1.4,2,.7,2.7.7,2,0,2.9-1.4,2.9-4.3s-.8-4.3-3.1-4.3ZM283.9,155.9c0-.4-.2-.6-.6-.6h-1.2c-.3,0-.4-.1-.4-.4v-1.1c0-.3.1-.4.4-.4h1.1c.4,0,.6.1.7.4v-6.2c0-.3.2-.5.5-.5h1.1c.3,0,.5.2.5.5v15c0,.3-.2.5-.5.5h-1.1c-.3,0-.5-.2-.5-.5v-6.6ZM278.8,163.4c-.8,0-1.4-.5-1.4-1.3s.6-1.3,1.4-1.3,1.4.5,1.4,1.3-.6,1.3-1.4,1.3ZM267.8,150.1v4.3c0,2.1,1.3,3.9,2.8,4.1.3,0,.4.2.4.5v1.1c0,.3-.1.4-.4.4-1.7-.2-3.3-1.6-3.8-3.3-.5,1.7-2,3-3.8,3.3-.3,0-.5-.1-.5-.4v-1.1c0-.3.1-.4.4-.5,1.5-.2,2.8-2.1,2.8-4.1v-4.3s-2.7,0-2.7,0c-.3,0-.4-.1-.4-.4v-1.1c0-.3.1-.4.4-.4h7.4c.3,0,.5.1.5.4v1.1c0,.3-.1.4-.5.4h-2.6ZM258.7,155.9c0-.4-.2-.6-.6-.6h-1.2c-.3,0-.4-.1-.4-.4v-1.1c0-.3.1-.4.4-.4h1.1c.4,0,.6.1.7.4v-6.2c0-.3.2-.5.5-.5h1.1c.3,0,.5.2.5.5v15c0,.3-.2.5-.5.5h-1.1c-.3,0-.5-.2-.5-.5v-6.6ZM246.6,154.4l.3-1c0-.2.2-.3.3-.3s.1,0,.2,0c.9.3,2.2.6,3.1.6,2,0,2.5-.1,2.5-.7s-.7-.8-3-.8-1.4,0-2.3,0c-.3,0-.4-.1-.4-.4v-.9c0-.3.1-.4.4-.4h.4c-.6-.4-1-.9-1-1.6,0-1.2.8-1.6,3.1-1.6,1.6,0,2.6,0,3.9.2.3,0,.4.2.4.5v1c0,.3-.2.4-.5.4-1.4-.2-2.7-.3-3.4-.3-1.1,0-1.4.1-1.4.6s.4.6,1.3.6c3.3,0,4.6.7,4.6,2.6s-1.2,2.6-4.2,2.6-3.1-.3-4-.6c-.3-.1-.4-.3-.3-.6ZM248.3,158.7c-2.8,0-3.6.4-3.6,1.4s.9,1.3,3.6,1.3,3.6-.4,3.6-1.3-.9-1.4-3.6-1.4ZM243,152.7c0-.4-.2-.6-.6-.6h-1.2c-.3,0-.5-.1-.5-.4v-1c0-.3.1-.5.5-.5h1.1c.4,0,.6.1.7.4v-3.1c0-.3.2-.5.5-.5h1.1c.3,0,.5.2.5.5v8c0,.3-.2.5-.5.5h-1.1c-.3,0-.5-.2-.5-.5v-2.7ZM248.3,163.3c-3.8,0-5.7-1-5.7-3.2s1.9-3.2,5.7-3.2,5.7,1,5.7,3.2-1.9,3.2-5.7,3.2ZM232.4,157c-3.6,0-5.6-1.7-5.6-4.6s2.1-4.6,5.6-4.6,5.6,1.7,5.6,4.6-2,4.6-5.6,4.6ZM236,152.4c0-1.7-1.2-2.7-3.5-2.7s-3.5.9-3.5,2.7,1.2,2.7,3.5,2.7,3.5-1,3.5-2.7ZM239.3,159.8v1c0,.3-.1.4-.5.5-1.3.2-3.5.3-6.3.3s-5.1-.1-6.4-.3c-.3,0-.4-.2-.4-.5v-1c0-.3.2-.5.5-.4,1.4.2,3.8.3,6.3.3s4.6-.1,6.3-.3c.3,0,.5.1.5.4ZM216.9,161.6c-2.8,0-5.1-.1-6.4-.3-.3,0-.4-.2-.4-.5v-1c0-.3.2-.5.5-.4,1.2.2,3.1.3,4.6.3s.6-.2.6-.6v-2s0,0,0,0c-1.3,0-3.1-.1-4.5-.4-.2,0-.4-.2-.3-.5l.2-1c0-.3.2-.4.4-.3,1.3.2,2.9.3,4.3.3,3.5,0,4.3-.2,4.3-1s-.7-.9-3.3-.9-3.2,0-4.9,0-.4-.2-.4-.4v-.9c0-.3.1-.4.4-.4h.8c-.9-.3-1.4-1-1.4-2s.7-1.7,2.1-1.7c.7,0,1.4,0,2.2,0,2.1,0,4.3.1,5.8.3.3,0,.4.2.4.4v1.1c0,.3-.2.4-.4.4-1.8-.2-4.5-.3-6.8-.3s-1.1.2-1.1.8.4.9,1.2.9h2.2c4.1,0,5.3.6,5.3,2.7s-1,2.7-4.3,2.9v1.9c0,.4-.2.6-.4.8,2,0,4.4-.2,5.7-.3.3,0,.5.1.5.4v1c0,.3-.1.4-.4.5-1.4.2-3.5.3-6.3.3ZM195.1,152c0-2.8,1-3.9,3.5-3.9s2.6.1,3.9.3c.3,0,.4.2.4.5v1c0,.3-.2.5-.5.5-1.2-.2-2.2-.3-3.5-.3s-1.8.5-1.8,2.1c0,2.6.2,5.2.7,7.8,0,.3-.1.5-.4.5h-1.2c-.3,0-.4-.1-.5-.4-.4-2.6-.7-5.2-.7-8.1ZM191,155.9c0-.4-.2-.6-.6-.6h-1.2c-.3,0-.4-.1-.4-.4v-1.1c0-.3.1-.4.4-.4h1.1c.4,0,.6.1.7.4v-6.2c0-.3.2-.5.5-.5h1.1c.3,0,.5.2.5.5v15c0,.3-.2.5-.5.5h-1.1c-.3,0-.5-.2-.5-.5v-6.6ZM174.8,160.5c0-2.1.9-2.8,3.4-2.8s5,.1,7.4.3c.3,0,.4.2.4.5v1c0,.3-.1.4-.4.4-2.5-.2-4.9-.3-7.3-.3s-1.5.3-1.5,1.5,0,1,0,1.5c0,.3-.2.5-.5.5h-1.1c-.3,0-.5-.2-.5-.5,0-.6-.1-1.1-.1-2.1ZM187.3,155.1v1c0,.3-.1.4-.4.5-1.1.1-3,.2-6.3.2-2.5,0-5.1,0-6.4-.2-.3,0-.4-.2-.4-.5v-1c0-.3.2-.5.5-.4,1.3.1,3.4.2,6.3.2s4.6,0,6.3-.2c.3,0,.5.1.5.4ZM175.4,149v-1c0-.3.1-.4.4-.5,2.3-.1,3.1-.2,4.1-.2,4.6,0,6.3.8,6.3,3.1s-1.6,3.2-6,3.2-2.6-.1-4.6-.3c-.3,0-.5-.2-.4-.4v-1c0-.3.3-.5.5-.4,1.6.2,3.3.3,4.8.3,2.9,0,3.7-.3,3.7-1.3s-.9-1.2-4.1-1.2-2,0-4.1.2c-.3,0-.5-.1-.5-.4ZM169.6,153.4c0-.8-.5-1.1-1.9-1.1s-1.9.4-1.9,1.1.5,1.1,1.9,1.1,1.9-.4,1.9-1.1ZM167.8,156.4c-2.6,0-3.9-1-3.9-3s1.3-3,3.9-3,3.9,1,3.9,3-1.3,3-3.9,3ZM159.7,153.8c0-.4-.2-.6-.6-.6h-1.2c-.3,0-.5-.1-.5-.4v-1c0-.3.1-.5.5-.5h1.1c.4,0,.6.1.7.4v-4.2c0-.3.2-.5.5-.5h1.1c.3,0,.5.2.5.5v10.1c0,.3-.2.5-.5.5h-1.1c-.3,0-.5-.2-.5-.5v-3.8ZM166.7,147.3v-.6c0-.3.1-.4.5-.4h1.2c.3,0,.4.1.4.4v.5c0,.2-.1.4-.3.5h3.3c.3,0,.5.1.5.4v1c0,.3-.1.4-.5.4h-8c-.3,0-.4-.1-.4-.4v-1c0-.3.1-.4.4-.4h2.6c.3,0,.4,0,.4-.3ZM170.3,159.9c0,2.1-1.5,3.3-4,3.3s-5-.1-6.7-.3c-.3,0-.4-.2-.4-.4v-1c0-.3.3-.5.5-.4,2.1.2,3.7.3,6.7.3s1.8-.6,1.8-1.7,0-1-.1-1.4c0-.3.2-.5.5-.5h1.1c.3,0,.5.2.5.5,0,.4.1,1,.1,1.6ZM144.2,161.6c-2.8,0-5.1-.1-6.4-.3-.3,0-.4-.2-.4-.5v-1c0-.3.2-.5.5-.4,1.2.2,3.1.3,4.6.3s.6-.2.6-.6v-2.2c0-.3.2-.5.5-.5h1.1c.3,0,.5.2.5.5v2.1c0,.4-.2.6-.5.8,2,0,4.4-.2,5.7-.3.3,0,.5.1.5.4v1c0,.3-.1.4-.4.5-1.4.2-3.5.3-6.3.3ZM139.2,156.7c-.3,0-.6,0-.6-.4v-1.1c0-.3.1-.4.4-.4,2.4,0,4.1-1.6,4.1-3.8v-2.5c0-.3.2-.5.5-.5h1.1c.3,0,.5.2.5.5v2.5c0,2.2,1.7,3.8,4.1,3.8s.4.1.4.4v1.1c0,.4-.3.4-.6.4-2.1,0-4.2-1.2-4.9-3-.8,1.8-2.8,3-4.9,3ZM122.4,162.5v-.9c0-.3.2-.4.5-.4,1.4.2,3.4.3,4.6.3,3.7,0,4.5,0,4.5-.7s-.5-.7-3.5-.7-3.9,0-5.2,0c-.3,0-.4-.1-.4-.4v-.8c0-.3.1-.4.4-.4h.6c-.7-.3-1.2-.9-1.2-1.6s.5-1.4,1.6-1.4c2.3,0,6.2,0,8.9.2.3,0,.4.1.4.4v.9c0,.3-.1.4-.4.4-2-.1-5.8-.3-7.6-.3s-.9.2-.9.6.3.6.9.6c1,0,1.9,0,2.8,0,4.2,0,5.5.5,5.5,2.3s-1.4,2.4-6.6,2.4-3.3-.1-4.8-.3c-.3,0-.4-.2-.4-.5ZM130.8,147.4h1.1c.3,0,.5.2.5.5v1.6c0,1.8,1.2,3.2,2.7,3.2s.4.1.4.4v1c0,.3-.1.4-.4.4-1.9,0-3.3-1.2-3.8-2.5-.5,1.3-1.9,2.5-3.8,2.5s-.4-.1-.4-.4v-1c0-.3.1-.4.4-.4,1.6,0,2.7-1.4,2.7-3.2v-1.6c0-.3.2-.5.5-.5ZM125,154.2c0,.3-.2.5-.5.5h-1.1c-.3,0-.5-.2-.5-.5v-6.7c0-.3.2-.5.5-.5h1.1c.3,0,.5.2.5.5v.4c0,.3,0,.4.4.4h1.6c.3,0,.4.1.4.4v.8c0,.3-.1.4-.4.4h-1.3c-.3,0-.6-.1-.7-.3v.7c0,.3,0,.4.4.4h1.6c.3,0,.4.1.4.4v.8c0,.3-.1.4-.4.4h-1.3c-.3,0-.6-.1-.7-.3v2.2ZM117.6,158.5c.4,0,.7-.2.7-.6v-7.4c0-.3-.2-.4-.4-.4h-1.5c-1.4,0-1.8,1-1.8,4s.8,4.4,2,4.4h1.1ZM119.5,148.2c.5,0,.8.3.8.8v9.9c0,1-.7,1.6-1.9,1.6h-5.5c-.3,0-.4-.1-.4-.4v-1.1c0-.3.1-.4.4-.4h1.1c-1-1.2-1.7-3.3-1.7-5.9s.9-4.5,3.4-4.5h3.7ZM110.1,162.5c0,.3-.2.5-.5.5h-1.1c-.3,0-.5-.2-.5-.5v-15c0-.3.2-.5.5-.5h1.1c.3,0,.5.2.5.5v15ZM100.3,150.1c-.9,0-1.5,0-2.3.2-.3,0-.5-.1-.5-.4v-1.1c0-.3.1-.4.5-.5.7-.1,1.4-.1,2.4-.1,3.4,0,5,1.9,5,6.3s-1.6,6.3-4.9,6.3-2.2-.3-3.3-.7c-.4-.1-.5-.3-.4-.6l.3-1c0-.3.2-.4.3-.4s.1,0,.2,0c1.1.4,2,.7,2.7.7,2,0,2.9-1.4,2.9-4.3s-.8-4.3-3.1-4.3ZM95.1,162.5c0,.3-.2.5-.5.5h-1.1c-.3,0-.5-.2-.5-.5v-15c0-.3.2-.5.5-.5h1.1c.3,0,.5.2.5.5v15ZM84.8,154.4c0,3.2.6,4.5,1.9,4.5s1.9-1.3,1.9-4.5-.5-4.5-1.9-4.5-1.9,1.3-1.9,4.5ZM86.7,148c2.8,0,3.9,2,3.9,6.4s-1.2,6.5-3.9,6.5-4-2-4-6.5,1.2-6.4,4-6.4ZM80.2,152.7c0,.4.2.6.6.6h.9c.3,0,.4.1.4.4v1.1c0,.3-.1.4-.4.4h-.8c-.4,0-.6-.1-.7-.4v7.6c0,.3-.2.5-.5.5h-1.1c-.3,0-.5-.2-.5-.5v-15c0-.3.2-.5.5-.5h1.1c.3,0,.5.2.5.5v5.2ZM67.3,155.2c-.3,0-.5-.1-.6-.3v7.6c0,.3-.1.4-.4.4h-1.1c-.3,0-.4-.1-.4-.4v-14.9c0-.3.1-.4.4-.4h1.1c.3,0,.4.1.4.4v5.1c0,.4.1.5.5.5h1.5c.2-3.6,1.3-5.3,3.6-5.3s3.6,2,3.6,6.4-1.2,6.5-3.6,6.5-3.4-1.8-3.6-5.7h-1.4ZM62.1,147h1.1c.3,0,.4.1.4.4v15c0,.3-.1.4-.4.4h-1.1c-.3,0-.4-.1-.4-.4v-15c0-.3.1-.4.4-.4ZM70.7,154.4c0,3.2.5,4.5,1.6,4.5s1.6-1.3,1.6-4.5-.5-4.5-1.6-4.5-1.6,1.3-1.6,4.5ZM323.6,178.1v4.3c0,2.1,1.3,3.9,2.8,4.1.3,0,.4.2.4.5v1.1c0,.3-.1.4-.4.4-1.7-.2-3.3-1.6-3.8-3.3-.5,1.7-2,3-3.8,3.3-.3,0-.5-.1-.5-.4v-1.1c0-.3.1-.4.4-.5,1.5-.2,2.8-2.1,2.8-4.1v-4.3s-2.7,0-2.7,0c-.3,0-.5-.1-.5-.4v-1.1c0-.3.1-.4.5-.4h7.4c.3,0,.5.1.5.4v1.1c0,.3-.1.4-.5.4h-2.6ZM316.2,190.5c0,.3-.2.5-.5.5h-1.1c-.3,0-.5-.2-.5-.5v-15c0-.3.2-.5.5-.5h1.1c.3,0,.5.2.5.5v15ZM306.5,175.6v-.9c0-.3.1-.4.5-.4h1.2c.3,0,.5.1.5.4v.7c0,.2-.1.4-.3.5h3c.3,0,.4.1.4.4v1c0,.3-.1.4-.4.4h-2.6s0,.7,0,.7c0,2,1.2,3.5,2.7,3.5s.4.1.4.4v1c0,.3-.1.5-.4.5-1.9,0-3.3-1.2-3.8-2.7-.5,1.4-1.9,2.7-3.8,2.7s-.5-.1-.5-.5v-1c0-.3.1-.4.5-.4,1.6,0,2.7-1.5,2.7-3.5v-.7s-2.7,0-2.7,0c-.3,0-.5-.1-.5-.4v-1c0-.3.1-.4.5-.4h2.2c.3,0,.4,0,.4-.3ZM310.2,187.9c0,2.1-1.5,3.3-4,3.3s-5.3-.1-7.1-.3c-.3,0-.4-.2-.4-.4v-1c0-.3.3-.5.5-.4,2.1.2,3.9.3,7.1.3s1.8-.6,1.8-1.7,0-1.4-.1-1.8c0-.3.2-.5.5-.5h1.1c.3,0,.5.2.5.5,0,.4.1,1.2.1,2ZM301.3,185.6c0,.3-.2.5-.5.5h-1.1c-.3,0-.5-.2-.5-.5v-10.1c0-.3.2-.5.5-.5h1.1c.3,0,.5.2.5.5v10.1ZM283.9,188.5c-.3,0-.4-.1-.4-.4v-1.1c0-.3.1-.4.4-.5,1.5-.2,2.8-2.1,2.8-4.1v-5.8c0-.3.2-.5.5-.5h1.1c.3,0,.5.2.5.5v5.8c0,2.1,1.3,3.9,2.8,4.1.3,0,.4.2.4.5v1.1c0,.3-.1.4-.4.4-1.7-.2-3.3-1.6-3.8-3.3-.5,1.7-2,3-3.8,3.3ZM279.6,183.9c0-.4-.2-.6-.6-.6h-1.2c-.3,0-.5-.1-.5-.4v-1.1c0-.3.1-.4.5-.4h1.1c.4,0,.6.1.7.4v-6.2c0-.3.2-.5.5-.5h1.1c.3,0,.5.2.5.5v15c0,.3-.2.5-.5.5h-1.1c-.3,0-.5-.2-.5-.5v-6.6ZM272,189.2c.4,0,.7-.2.7-.6v-1.4c0-.3-.2-.4-.4-.4h-5.2c-.8,0-1.2.2-1.2.9s.7,1.5,1.6,1.5h4.5ZM267.5,182.4l.3-1c0-.2.2-.3.3-.3s.1,0,.2,0c.9.3,2.2.6,3.1.6,2,0,2.5-.1,2.5-.7s-.7-.8-3-.8-1.4,0-2.3,0c-.3,0-.4-.1-.4-.4v-.9c0-.3.1-.4.4-.4h.4c-.6-.4-1-.9-1-1.6,0-1.2.8-1.6,3.1-1.6,1.6,0,2.6,0,3.9.2.3,0,.4.2.4.5v1c0,.3-.2.4-.5.4-1.4-.2-2.7-.3-3.4-.3-1.1,0-1.4.1-1.4.6s.4.6,1.3.6c3.3,0,4.6.7,4.6,2.6s-1.2,2.6-4.2,2.6-3.1-.3-4-.6c-.3-.1-.4-.3-.3-.6ZM263.8,186.8c0-1.3.8-1.9,2.2-1.9h7.9c.5,0,.8.3.8.8v3.8c0,1-.7,1.6-1.9,1.6h-8.9c-.3,0-.5-.1-.5-.4v-1c0-.3.1-.4.5-.4h1.3c-.9-.5-1.5-1.4-1.5-2.4ZM263.9,180.5c0-.4-.2-.6-.6-.6h-1.2c-.3,0-.5-.1-.5-.4v-1c0-.3.1-.4.5-.4h1.1c.4,0,.6.1.7.4v-2.9c0-.3.2-.5.5-.5h1.1c.3,0,.5.2.5.5v7.6c0,.3-.2.5-.5.5h-1.1c-.3,0-.5-.2-.5-.5v-2.6ZM247.3,190.5v-.8c0-.3.2-.4.5-.4,1.4.2,3.4.3,4.8.3,3.7,0,4.4,0,4.4-.6s-.4-.6-3.4-.6-4.2,0-5.3,0c-.3,0-.4-.1-.4-.4v-.7c0-.3.1-.4.4-.4h.6c-.7-.2-1.2-.8-1.2-1.5s.5-1.3,1.7-1.3c2.3,0,6.2,0,8.9.2.3,0,.4.1.4.4v.8c0,.3-.1.4-.4.4-2-.1-5.8-.3-7.7-.3s-.8.2-.8.6.2.5.9.5c.9,0,2,0,3,0,4.3,0,5.4.5,5.4,2.2s-1.2,2.3-6.5,2.3-3.5-.1-4.9-.3c-.3,0-.4-.2-.4-.5ZM253.5,181.6c2.1,0,4.6,0,6.3-.2.3,0,.5.1.5.4v.9c0,.3-.1.4-.4.4-1.1.1-3.1.2-6.4.2-2.5,0-5.1,0-6.4-.2-.3,0-.4-.2-.4-.4v-.9c0-.3.2-.4.5-.4,1.4.1,3.4.2,6.4.2ZM248.3,176.9v-.9c0-.3.1-.4.4-.4,2.3-.1,3.2-.2,4.1-.2,4.7,0,6.3.6,6.3,2.7s-1.5,2.7-6,2.7-2.6-.1-4.6-.3c-.3,0-.4-.1-.4-.4v-.9c0-.3.2-.4.5-.4,1.6.2,3.3.3,4.8.3,2.9,0,3.7-.2,3.7-1s-.9-1-4.1-1-1.9,0-4.2.2c-.3,0-.4-.1-.4-.4ZM236.4,183.2c-.3,0-.5-.1-.6-.3v7.6c0,.3-.1.4-.5.4h-1.1c-.3,0-.4-.1-.4-.4v-14.9c0-.3.1-.4.4-.4h1.1c.3,0,.5.1.5.4v5.1c0,.4.1.5.5.5h1.5c.2-3.6,1.3-5.3,3.6-5.3s3.6,2,3.6,6.4-1.2,6.5-3.6,6.5-3.4-1.8-3.6-5.7h-1.4ZM231.1,175h1.1c.3,0,.5.1.5.4v15c0,.3-.1.4-.5.4h-1.1c-.3,0-.5-.1-.5-.4v-15c0-.3.1-.4.5-.4ZM239.8,182.4c0,3.2.5,4.5,1.6,4.5s1.6-1.3,1.6-4.5-.5-4.5-1.6-4.5-1.6,1.3-1.6,4.5ZM221.6,183.2c0,0-.1,0-.2,0h-1.5c-.3,0-.5-.1-.6-.3v7.6c0,.3-.1.4-.4.4h-1.1c-.3,0-.4-.1-.4-.4v-14.9c0-.3.1-.4.4-.4h1.1c.3,0,.4.1.4.4v5.1c0,.4.1.5.5.5h1.6c0-.5,0-1.1,0-1.6,0-2.6.8-3.5,3.2-3.5s2.4.1,3.4.3c.3,0,.4.2.4.5v1c0,.3-.2.5-.5.5-.8-.2-2-.3-3.1-.3s-1.5.4-1.5,1.7c0,2.6.2,5.6.7,8.2,0,.3-.1.4-.4.4h-1.1c-.3,0-.4-.1-.5-.4-.3-1.5-.5-3.2-.6-4.9ZM214.6,175h1.1c.3,0,.4.1.4.4v15c0,.3-.1.4-.4.4h-1.1c-.3,0-.4-.1-.4-.4v-15c0-.3.1-.4.4-.4ZM199.8,177.8c4.4,0,5.5.6,5.5,2.3s-1,2.4-5.5,2.4-3.6,0-5.3-.2c-.3,0-.4-.2-.4-.4v-.9c0-.3.2-.4.5-.4,1.2.2,2.8.2,5.1.2s3.5-.2,3.5-.7-.5-.6-3.3-.6-3.1,0-5,.1c-.3,0-.4-.1-.4-.4v-.9c0-.3,0-.4.4-.4,1.1,0,2.9-.1,4.9-.1ZM205.2,175.8v.8c0,.3-.1.4-.4.4h-9.8c-.3,0-.4-.1-.4-.4v-.8c0-.3.1-.4.4-.4h9.8c.3,0,.4.1.4.4ZM206.6,183.7v.9c0,.3-.1.4-.4.5-1.1.1-3.1.2-6.4.2-2.5,0-5.1,0-6.4-.2-.3,0-.4-.2-.4-.5v-.9c0-.3.1-.5.4-.4,1.3.1,3.4.2,6.4.2s4.7,0,6.3-.2c.3,0,.4.1.4.4ZM194,188.9c0-2.1.9-2.8,3.4-2.8s5,.1,7.4.3c.3,0,.4.2.4.5v1c0,.3-.1.4-.4.4-2.5-.2-4.9-.3-7.3-.3s-1.5.3-1.5,1.5,0,.7,0,1.2c0,.3-.2.5-.5.5h-1.1c-.3,0-.5-.2-.5-.5,0-.5-.1-1.1-.1-1.7ZM185.5,178.8v1.5c0,.4.3.5.6.5h2.1c.4,0,.6-.1.6-.5v-1.5c0,0-3.4,0-3.4,0ZM178.1,190.5v-.9c0-.3.2-.4.5-.4,1.4.2,3.4.3,4.6.3,3.7,0,4.5,0,4.5-.7s-.5-.7-3.5-.7-3.9,0-5.2,0c-.3,0-.4-.1-.4-.4v-.8c0-.3.1-.4.4-.4h.6c-.7-.3-1.2-.9-1.2-1.6s.5-1.4,1.6-1.4c2.3,0,6.2,0,8.9.2.3,0,.4.1.4.4v.9c0,.3-.1.4-.4.4-2-.1-5.8-.3-7.6-.3s-.9.2-.9.6.3.6.9.6c1,0,1.9,0,2.8,0,4.2,0,5.5.5,5.5,2.3s-1.4,2.4-6.6,2.4-3.3-.1-4.8-.3c-.3,0-.4-.2-.4-.5ZM185.5,182.6c-1.2,0-1.9-.6-2-1.7l-.3-4.9c0-.3.2-.5.5-.5h1.1c.3,0,.5.1.5.4v1.1h3.7s0-1.1,0-1.1c0-.3.2-.4.5-.4h1.1c.3,0,.5.2.5.5l-.3,4.9c0,1.1-.8,1.7-2,1.7h-3.4ZM180.7,182.2c0,.3-.2.5-.5.5h-1.1c-.3,0-.5-.2-.5-.5v-6.7c0-.3.2-.5.5-.5h1.1c.3,0,.5.2.5.5v.4c0,.3.1.5.4.5h1.1c.3,0,.5.1.5.4v1c0,.3-.1.4-.5.4h-.9c-.3,0-.6-.1-.7-.3v1.4c0,.3.1.5.4.5h1.1c.3,0,.5.1.5.4v1c0,.3-.1.5-.5.5h-.9c-.3,0-.6-.1-.7-.3v.9ZM174,181.4c0-.8-.5-1.1-1.9-1.1s-1.9.4-1.9,1.1.5,1.1,1.9,1.1,1.9-.4,1.9-1.1ZM172.1,184.4c-2.6,0-3.9-1-3.9-3s1.3-3,3.9-3,3.9,1,3.9,3-1.3,3-3.9,3ZM164,181.8c0-.4-.2-.6-.6-.6h-1.2c-.3,0-.4-.1-.4-.4v-1c0-.3.1-.5.4-.5h1.1c.4,0,.6.1.7.4v-4.2c0-.3.2-.5.5-.5h1.1c.3,0,.5.2.5.5v10.1c0,.3-.2.5-.5.5h-1.1c-.3,0-.5-.2-.5-.5v-3.8ZM171,175.3v-.6c0-.3.1-.4.4-.4h1.2c.3,0,.4.1.4.4v.5c0,.2-.1.4-.3.5h3.3c.3,0,.4.1.4.4v1c0,.3-.1.4-.4.4h-8c-.3,0-.4-.1-.4-.4v-1c0-.3.1-.4.4-.4h2.6c.3,0,.4,0,.4-.3ZM174.7,187.9c0,2.1-1.5,3.3-4,3.3s-5-.1-6.7-.3c-.3,0-.4-.2-.4-.4v-1c0-.3.3-.5.5-.4,2.1.2,3.7.3,6.7.3s1.8-.6,1.8-1.7,0-1-.1-1.4c0-.3.2-.5.5-.5h1.1c.3,0,.5.2.5.5,0,.4.1,1,.1,1.6ZM149.5,184.1c0,1.6.7,2.5,1.9,2.5s1.9-.8,1.9-2.5-.7-2.4-1.9-2.4-1.9.8-1.9,2.4ZM151.4,179.6c2.5,0,3.9,1.6,3.9,4.4s-1.5,4.4-3.9,4.4-3.9-1.6-3.9-4.4,1.5-4.4,3.9-4.4ZM143.3,183.9c0-.4-.2-.6-.6-.6h-1.2c-.3,0-.4-.1-.4-.4v-1.1c0-.3.1-.4.4-.4h1.1c.4,0,.6.1.7.4v-6.2c0-.3.2-.5.5-.5h1.1c.3,0,.5.2.5.5v15c0,.3-.2.5-.5.5h-1.1c-.3,0-.5-.2-.5-.5v-6.6ZM150.3,176.2v-1.2c0-.3.1-.4.4-.4h1.2c.3,0,.4.1.4.4v1c0,.2-.1.4-.3.5h3.3c.3,0,.4.1.4.4v1.1c0,.3-.1.4-.4.4h-8c-.3,0-.4-.1-.4-.4v-1.1c0-.3.1-.4.4-.4h2.6c.3,0,.4,0,.4-.3ZM126.5,186.5c-.3,0-.4-.2-.4-.5v-1c0-.3.2-.4.5-.4,1.4.2,3.8.3,6.3.3s4.6-.1,6.3-.3c.3,0,.5.1.5.4v1c0,.3-.1.5-.4.5-1.3.2-3.8.3-5.8.3.3.1.5.4.5.8v2.3c0,.3-.2.5-.5.5h-1.1c-.3,0-.5-.2-.5-.5v-2.5c0-.4-.2-.6-.6-.6-1.5,0-3.5-.1-4.7-.3ZM127.3,176.9c0-1,.7-1.5,2.1-1.5,4.3,0,6.5,0,8,.3.3,0,.4.2.4.4v1c0,.3-.2.4-.4.4-1.9-.3-4.1-.3-6.8-.3s-1.1.2-1.1.6.3.5,1.2.5h2.2c4.2,0,5.3.5,5.3,2.4s-1.2,2.6-6.4,2.6-3-.1-4.5-.4c-.2,0-.4-.2-.3-.5l.2-1c0-.3.2-.4.4-.3,1.3.2,2.8.3,4.3.3,3.5,0,4.3,0,4.3-.7s-.6-.7-3.3-.7-3.2,0-4.9,0-.4-.2-.4-.4v-.8c0-.3.1-.4.4-.4h.8c-.9-.3-1.3-.8-1.3-1.7ZM117.2,189.6c-2.8,0-5.1-.1-6.4-.3-.3,0-.5-.2-.5-.5v-1c0-.3.2-.5.5-.4,1.2.2,3.1.3,4.6.3s.6-.2.6-.6v-2.3s-2,0-2,0c-1.3,0-2.2-.7-2.2-1.9l-.3-6.5c0-.3.2-.5.5-.5h1.1c.3,0,.4.2.5.5v1.8c0,0,6.8,0,6.8,0v-1.8c0-.3.3-.5.5-.5h1.1c.3,0,.5.2.5.5l-.3,6.5c0,1.2-.9,1.9-2.2,1.9h-2s0,2.1,0,2.1c0,.4-.2.6-.4.8,2,0,4.4-.2,5.7-.3.3,0,.5.1.5.4v1c0,.3-.1.4-.5.5-1.3.2-3.5.3-6.3.3ZM113.8,180.1v2c0,.5.4.7.9.7h4.9c.5,0,.8-.3.8-.7v-2c0,0-6.6,0-6.6,0ZM103.2,178.1c-.9,0-1.5,0-2.3.2-.3,0-.5-.1-.5-.4v-1.1c0-.3.1-.4.5-.5.7-.1,1.4-.1,2.4-.1,3.4,0,5,1.9,5,6.3s-1.6,6.3-4.9,6.3-2.2-.3-3.3-.7c-.4-.1-.5-.3-.4-.6l.3-1c0-.3.2-.4.3-.4s.1,0,.2,0c1.1.4,2,.7,2.7.7,2,0,2.9-1.4,2.9-4.3s-.8-4.3-3.1-4.3ZM96.3,183.9c0-.4-.2-.6-.6-.6h-1.2c-.3,0-.5-.1-.5-.4v-1.1c0-.3.1-.4.5-.4h1.1c.4,0,.6.1.7.4v-6.2c0-.3.2-.5.5-.5h1.1c.3,0,.5.2.5.5v15c0,.3-.2.5-.5.5h-1.1c-.3,0-.5-.2-.5-.5v-6.6ZM83.8,181c1.2,0,2-.8,2-2s-.8-1.9-2-1.9-2,.7-2,1.9.8,2,2,2ZM74.8,190.5v-.9c0-.3.2-.4.5-.4,1.4.2,3.4.3,4.6.3,3.7,0,4.5,0,4.5-.7s-.5-.7-3.5-.7-3.9,0-5.2,0c-.3,0-.4-.1-.4-.4v-.8c0-.3.1-.4.4-.4h.6c-.7-.3-1.2-.9-1.2-1.6s.5-1.4,1.6-1.4c2.3,0,6.2,0,8.9.2.3,0,.4.1.4.4v.9c0,.3-.1.4-.4.4-2-.1-5.8-.3-7.6-.3s-.9.2-.9.6.3.6.9.6c1,0,1.9,0,2.8,0,4.2,0,5.5.5,5.5,2.3s-1.4,2.4-6.6,2.4-3.3-.1-4.8-.3c-.3,0-.4-.2-.4-.5ZM83.8,175.3c2.5,0,4,1.5,4,3.7s-1.6,3.8-4,3.8-4-1.5-4-3.8,1.6-3.7,4-3.7ZM77.3,182.2c0,.3-.2.5-.5.5h-1.1c-.3,0-.5-.2-.5-.5v-6.7c0-.3.2-.5.5-.5h1.1c.3,0,.5.2.5.5v6.7ZM66,186.3c-2.8,0-3.6.6-3.6,1.5s.9,1.5,3.6,1.5,3.6-.6,3.6-1.5-.9-1.5-3.6-1.5ZM66,191.3c-3.8,0-5.7-1.2-5.7-3.4s1.9-3.4,5.7-3.4,5.7,1.2,5.7,3.4-1.9,3.4-5.7,3.4ZM68.2,175.4h1.1c.3,0,.5.2.5.5v2c0,1.9,1.2,3.3,2.7,3.3s.4.1.4.5v1c0,.3-.1.4-.4.4-1.9,0-3.3-1.2-3.8-2.6-.5,1.4-1.9,2.6-3.8,2.6s-.5-.1-.5-.4v-1c0-.3.1-.5.5-.5,1.6,0,2.7-1.4,2.7-3.3v-2c0-.3.2-.5.5-.5ZM60.7,180.5c0-.4-.2-.6-.6-.6h-1.2c-.3,0-.4-.1-.4-.4v-1c0-.3.1-.4.4-.4h1.1c.4,0,.6.1.7.4v-2.9c0-.3.2-.5.5-.5h1.1c.3,0,.5.2.5.5v7.6c0,.3-.2.5-.5.5h-1.1c-.3,0-.5-.2-.5-.5v-2.6ZM50.1,176.9c-2.7,0-3.5.3-3.5,1.1s.8,1.1,3.5,1.1,3.5-.3,3.5-1.1-.8-1.1-3.5-1.1ZM44.1,190.5v-.8c0-.3.2-.4.5-.4,1.3.2,3.4.3,4.8.3,3.7,0,4.4,0,4.4-.6s-.4-.6-3.4-.6-4.2,0-5.3,0c-.3,0-.4-.1-.4-.4v-.7c0-.3.1-.4.4-.4h.6c-.7-.2-1.2-.8-1.2-1.5s.4-1.3,1.7-1.3c2.3,0,6.2,0,8.9.2.3,0,.4.1.4.4v.8c0,.3-.1.4-.4.4-2-.1-5.8-.3-7.7-.3s-.8.2-.8.6.2.5.9.5c.9,0,2,0,3,0,4.3,0,5.4.5,5.4,2.2s-1.2,2.3-6.5,2.3-3.5-.1-4.9-.3c-.3,0-.4-.2-.4-.5ZM50.2,181.6c2.1,0,4.6,0,6.3-.2.3,0,.5.1.5.4v.9c0,.3-.1.4-.4.4-1.1.1-3.1.2-6.4.2-2.5,0-5.1,0-6.4-.2-.3,0-.4-.2-.4-.4v-.9c0-.3.2-.4.5-.4,1.4.1,3.4.2,6.4.2ZM50.1,180.8c-4,0-5.6-.8-5.6-2.8s1.6-2.8,5.6-2.8,5.6.8,5.6,2.8-1.6,2.8-5.6,2.8ZM318.6,219.3c-4.1,0-6.2-1.1-6.2-3.2s2.1-3.2,6.2-3.2,6.2,1.1,6.2,3.2-2.1,3.2-6.2,3.2ZM313.2,203h1.1c.3,0,.5.1.5.4v2.8s.9,0,.9,0c.3,0,.5.1.6.3v-2.9c0-.3.1-.4.5-.4h1.1c.3,0,.5.1.5.4v7.5c0,.3-.1.4-.5.4h-1.1c-.3,0-.5-.1-.5-.4v-2.4c0-.4-.1-.5-.5-.5h-1s0,3.3,0,3.3c0,.3-.1.4-.5.4h-1.1c-.3,0-.5-.1-.5-.4v-8c0-.3.1-.4.5-.4ZM323.4,211.7c-2.1,0-3.3-1-3.3-2.7s1.2-2.7,3.3-2.7,3.3,1,3.3,2.7-1.2,2.7-3.3,2.7ZM318.6,214.7c-3,0-4.1.5-4.1,1.4s1,1.3,4.1,1.3,4.1-.5,4.1-1.3-1-1.4-4.1-1.4ZM322.8,202.2h1.1c.3,0,.5.1.5.4v.5c0,.2-.1.4-.3.5h2.7c.3,0,.5.1.5.4v1c0,.3-.1.4-.5.4h-6.9c-.3,0-.5-.1-.5-.4v-1c0-.3.1-.4.5-.4h2.1c.3,0,.4,0,.4-.3v-.6c0-.3.1-.4.4-.4ZM324.7,209c0-.6-.5-.9-1.4-.9s-1.4.3-1.4.9.5.9,1.4.9,1.4-.3,1.4-.9ZM298.2,207.9l-.3-4c0-.3.2-.5.5-.5h1.1c.3,0,.5.2.5.5v.7s6.9,0,6.9,0v-.7c0-.3.2-.5.5-.5h1.1c.3,0,.5.2.5.5l-.3,4c0,1.1-.8,1.7-2,1.7h-2.2s0,.9,0,.9c0,.2-.1.4-.3.5,1.8,0,4.2,0,5.5-.2.3,0,.5.1.5.4v1c0,.3-.1.4-.4.5-1.1.1-3,.2-6.3.2-2.5,0-5.1,0-6.4-.2-.3,0-.5-.2-.5-.5v-1c0-.3.2-.5.5-.4,1.3.1,3.4.2,4.8.1.3,0,.5-.2.5-.5v-1s-2.2,0-2.2,0c-1.3,0-2-.6-2-1.7ZM297.7,216.5c0-2.1.9-2.8,3.4-2.8s5,.1,7.4.3c.3,0,.5.2.5.5v1c0,.3-.1.4-.5.4-2.5-.2-4.9-.3-7.3-.3s-1.5.3-1.5,1.5,0,1,0,1.5c0,.3-.2.5-.5.5h-1.1c-.3,0-.5-.2-.5-.5,0-.6-.1-1.1-.1-2.1ZM300.1,206.4v.7c0,.5.3.7.9.7h4.9c.5,0,.8-.2.8-.7v-.7c0,0-6.5,0-6.5,0ZM287.6,213c-3.6,0-5.6-1.7-5.6-4.6s2.1-4.6,5.6-4.6,5.6,1.7,5.6,4.6-2,4.6-5.6,4.6ZM291.2,208.4c0-1.7-1.2-2.7-3.5-2.7s-3.5.9-3.5,2.7,1.2,2.7,3.5,2.7,3.5-1,3.5-2.7ZM294.5,215.8v1c0,.3-.1.4-.5.5-1.4.2-3.5.3-6.3.3s-5.1-.1-6.4-.3c-.3,0-.5-.2-.5-.5v-1c0-.3.2-.5.5-.4,1.4.2,3.8.3,6.3.3s4.6-.1,6.3-.3c.3,0,.5.1.5.4ZM272.1,217.6c-2.8,0-5.1-.1-6.4-.3-.3,0-.4-.2-.4-.5v-1c0-.3.2-.5.5-.4,1.2.2,3.1.3,4.6.3s.6-.2.6-.6v-2s0,0,0,0c-1.3,0-3.1-.1-4.5-.4-.2,0-.4-.2-.3-.5l.2-1c0-.3.2-.4.4-.3,1.3.2,2.9.3,4.3.3,3.5,0,4.3-.2,4.3-1s-.7-.9-3.3-.9-3.2,0-4.9,0-.4-.2-.4-.4v-.9c0-.3.1-.4.4-.4h.8c-.9-.3-1.3-1-1.3-2s.7-1.7,2.1-1.7c.7,0,1.4,0,2.2,0,2.1,0,4.3.1,5.8.3.3,0,.4.2.4.4v1.1c0,.3-.2.4-.4.4-1.8-.2-4.5-.3-6.8-.3s-1.1.2-1.1.8.4.9,1.2.9h2.2c4.1,0,5.3.6,5.3,2.7s-1,2.7-4.3,2.9v1.9c0,.4-.2.6-.4.8,2,0,4.4-.2,5.7-.3.3,0,.5.1.5.4v1c0,.3-.1.4-.4.5-1.3.2-3.5.3-6.3.3ZM252.6,210.4c0,3.2.6,4.5,1.9,4.5s1.9-1.3,1.9-4.5-.5-4.5-1.9-4.5-1.9,1.3-1.9,4.5ZM254.4,204c2.8,0,3.9,2,3.9,6.4s-1.2,6.5-3.9,6.5-4-2-4-6.5,1.2-6.4,4-6.4ZM248.5,206.4h.9c.3,0,.4.1.4.5v1.1c0,.3-.1.5-.4.5h-.8c-.4,0-.6-.1-.7-.4v3.4c0,.4.2.6.6.6h.9c.3,0,.4.1.4.4v1.1c0,.3-.1.4-.4.4h-.8c-.4,0-.6-.1-.7-.4v4.9c0,.3-.2.5-.5.5h-1.1c-.3,0-.5-.2-.5-.5v-15c0-.3.2-.5.5-.5h1.1c.3,0,.5.2.5.5v2.3c0,.4.2.6.6.6ZM235.3,208c0-2.8,1-3.9,3.5-3.9s2.6.1,3.9.3c.3,0,.4.2.4.5v1c0,.3-.2.5-.5.5-1.2-.2-2.2-.3-3.5-.3s-1.8.5-1.8,2.1c0,2.6.2,5.2.7,7.8,0,.3-.1.5-.4.5h-1.2c-.3,0-.4-.1-.5-.4-.5-2.6-.7-5.2-.7-8.1ZM232.9,218.5c0,.3-.2.5-.5.5h-1.1c-.3,0-.5-.2-.5-.5v-15c0-.3.2-.5.5-.5h1.1c.3,0,.5.2.5.5v15ZM226.8,206.8c0,2.1-1.3,3.3-3.7,3.3s-5.3-.1-7.1-.3c-.3,0-.4-.2-.4-.4v-1c0-.3.3-.5.5-.4,2.1.2,4,.3,6.8.3s1.7-.5,1.7-1.5,0-2-.1-2.8c0-.3.1-.5.4-.5h1.1c.3,0,.5.2.5.5,0,.8.1,2.2.1,2.9ZM227.1,216c0,2.1-1.4,3.3-3.8,3.3s-5.6-.1-7.4-.3c-.3,0-.4-.2-.4-.4v-1c0-.3.3-.5.5-.4,2.1.2,4.2.3,7.4.3s1.7-.5,1.7-1.5,0-.9-.1-1.3c0-.3.1-.5.4-.5h1.1c.3,0,.5.2.5.5,0,.4.1.8.1,1.4ZM228.3,211.5v1c0,.3-.1.4-.4.5-1.1.1-3,.2-6.3.2-2.5,0-5.1,0-6.4-.2-.3,0-.4-.2-.4-.5v-1c0-.3.2-.5.5-.4,1.3.1,3.4.2,6.3.2s4.6,0,6.3-.2c.3,0,.5.1.5.4ZM199.7,208c0-2.8,1-3.9,3.5-3.9s2.6.1,3.9.3c.3,0,.4.2.4.5v1c0,.3-.2.5-.5.5-1.2-.2-2.2-.3-3.5-.3s-1.8.5-1.8,2.1c0,2.6.2,5.2.7,7.8,0,.3-.1.5-.4.5h-1.2c-.3,0-.4-.1-.5-.4-.5-2.6-.7-5.2-.7-8.1ZM195.6,211.9c0-.4-.2-.6-.6-.6h-1.2c-.3,0-.4-.1-.4-.4v-1.1c0-.3.1-.4.4-.4h1.1c.4,0,.6.1.7.4v-6.2c0-.3.2-.5.5-.5h1.1c.3,0,.5.2.5.5v15c0,.3-.2.5-.5.5h-1.1c-.3,0-.5-.2-.5-.5v-6.6ZM186.9,204.2v-1.2c0-.3.1-.4.5-.4h1.2c.3,0,.4.1.4.4v1c0,.2-.1.4-.3.5h3c.3,0,.4.1.4.4v1.1c0,.3-.1.4-.4.4h-2.6s0,3.9,0,3.9c0,2.1,1.3,3.9,2.8,4.1.3,0,.4.2.4.5v1.1c0,.3-.1.4-.5.4-1.7-.2-3.3-1.6-3.8-3.3-.4,1.7-2,3-3.8,3.3-.3,0-.4-.1-.4-.4v-1.1c0-.3.1-.4.4-.5,1.5-.2,2.8-2.1,2.8-4.1v-3.9s-2.7,0-2.7,0c-.3,0-.5-.1-.5-.4v-1.1c0-.3.1-.4.5-.4h2.2c.3,0,.4,0,.4-.3ZM181.6,218.5c0,.3-.2.5-.5.5h-1.1c-.3,0-.5-.2-.5-.5v-15c0-.3.2-.5.5-.5h1.1c.3,0,.5.2.5.5v15ZM177.3,211.1c.3,0,.5,0,.5.4v1.1c0,.3-.1.4-.4.5-1.2,0-2.6.1-4.3.1s-3.4,0-4.6-.1c-.3,0-.4-.2-.4-.5v-1c0-.3.2-.4.5-.4.7,0,2.5,0,3.7,0s.5-.1.5-.4v-2.4c0-.3.2-.5.5-.5h1.1c.3,0,.5.2.5.5v2.4c0,.3-.1.4-.3.5,1.2,0,2.1,0,2.9-.2ZM170.8,206.8c0,.6.1,1.7.4,2.6,0,.3,0,.4-.3.4l-1.2.2c-.3,0-.4,0-.5-.3-.3-1-.4-2.3-.4-3.2,0-2.1,1.1-3.1,3.3-3.1s3.2.1,4.1.3c.3,0,.4.2.4.5v1.1c0,.3-.2.5-.4.4-1.2-.2-2.4-.3-3.9-.3s-1.5.5-1.5,1.4ZM165,209.8c0-.4-.2-.6-.6-.6h-1.2c-.3,0-.4-.1-.4-.4v-1c0-.3.1-.5.4-.5h1.1c.4,0,.6.1.7.4v-4.2c0-.3.2-.5.5-.5h1.1c.3,0,.5.2.5.5v10.5c0,.3-.2.5-.5.5h-1.1c-.3,0-.5-.2-.5-.5v-4.2ZM176,216c0,2.1-1.4,3.3-3.8,3.3s-5.5-.1-7.2-.3c-.3,0-.4-.2-.4-.4v-1c0-.3.3-.5.5-.4,2.1.2,4,.3,7.2.3s1.7-.5,1.7-1.5,0-1.1-.1-1.4c0-.3.1-.5.4-.5h1.1c.3,0,.5.2.5.5,0,.4.1,1,.1,1.5ZM157.5,204c2.8,0,4,2,4,6.4s-1.3,6.5-4,6.5-4-2-4-6.5,1.2-6.4,4-6.4ZM155.5,210.4c0,3.2.6,4.5,2,4.5s2-1.3,2-4.5-.6-4.5-2-4.5-2,1.3-2,4.5ZM151,218.5c0,.3-.2.5-.5.5h-1.1c-.3,0-.5-.2-.5-.5v-15c0-.3.2-.5.5-.5h1.1c.3,0,.5.2.5.5v15ZM134.6,217.6c-2.8,0-5.1-.1-6.4-.3-.3,0-.4-.2-.4-.5v-1c0-.3.2-.5.5-.4,1.2.2,3.1.3,4.6.3s.6-.2.6-.6v-2.1c-3-.3-4.7-1.9-4.7-4.6s2.1-4.6,5.6-4.6,5.6,1.7,5.6,4.6-1.6,4.2-4.4,4.5v2c0,.4-.2.6-.4.8,2,0,4.4-.2,5.7-.3.3,0,.5.1.5.4v1c0,.3-.1.4-.4.5-1.3.2-3.5.3-6.3.3ZM137.9,208.4c0-1.7-1.2-2.7-3.5-2.7s-3.5.9-3.5,2.7,1.2,2.7,3.5,2.7,3.5-1,3.5-2.7ZM119.9,212.1c0,1.6.7,2.5,1.9,2.5s1.9-.8,1.9-2.5-.7-2.4-1.9-2.4-1.9.8-1.9,2.4ZM121.8,207.6c2.5,0,3.9,1.6,3.9,4.4s-1.5,4.4-3.9,4.4-3.9-1.6-3.9-4.4,1.5-4.4,3.9-4.4ZM115.4,218.5c0,.3-.2.5-.5.5h-1.1c-.3,0-.5-.2-.5-.5v-15c0-.3.2-.5.5-.5h1.1c.3,0,.5.2.5.5v15ZM120.7,204.2v-1.2c0-.3.1-.4.4-.4h1.2c.3,0,.5.1.5.4v1c0,.2-.1.4-.3.5h3.3c.3,0,.4.1.4.4v1.1c0,.3-.1.4-.4.4h-8c-.3,0-.4-.1-.4-.4v-1.1c0-.3.1-.4.4-.4h2.6c.3,0,.4,0,.4-.3ZM108.7,213c0-1.3-.7-1.8-2.7-1.8s-1.5,0-2.5,0-.4-.1-.4-.4v-1c0-.3.1-.4.4-.4h.6c-.7-.6-1.1-1.5-1.1-2.6,0-1.7,1.1-2.6,3.3-2.6s2.2,0,3.5.2c.3,0,.4.2.4.4v1.2c0,.3-.2.4-.4.4-1.4-.2-2.3-.3-3-.3-1.2,0-1.7.5-1.7,1.6s.5,1.6,1.6,1.6c2.8,0,4.1,1.2,4.1,3.6s-1.4,3.8-4.3,3.8-2.3-.2-3.7-.7c-.3-.1-.4-.3-.3-.6l.3-1.1c0-.2.2-.3.3-.3s.1,0,.2,0c1,.5,1.9.7,2.8.7,1.9,0,2.6-.5,2.6-1.8ZM101.1,206.4h.9c.3,0,.4.1.4.5v1.1c0,.3-.1.5-.4.5h-.8c-.4,0-.6-.1-.7-.4v3c0,.4.2.6.6.6h.9c.3,0,.4.1.4.4v1.1c0,.3-.1.5-.4.5h-.8c-.4,0-.6-.1-.7-.4v5.3c0,.3-.2.5-.5.5h-1.1c-.3,0-.5-.2-.5-.5v-15c0-.3.2-.5.5-.5h1.1c.3,0,.5.2.5.5v2.3c0,.4.2.6.6.6ZM85.7,206.1c-.9,0-1.5,0-2.3.2-.3,0-.5-.1-.5-.4v-1.1c0-.3.1-.4.5-.5.7-.1,1.3-.1,2.4-.1,3.4,0,5,1.9,5,6.3s-1.6,6.3-4.9,6.3-2.2-.3-3.3-.7c-.4-.1-.5-.3-.4-.6l.3-1c0-.3.2-.4.3-.4s.1,0,.2,0c1.1.4,2,.7,2.7.7,2,0,2.9-1.4,2.9-4.3s-.8-4.3-3.1-4.3ZM80.5,208.7c0,.4.2.6.6.6h2.7c.3,0,.4.1.4.4v1.1c0,.3-.1.4-.4.4h-2.6c-.4,0-.6-.1-.7-.4v7.6c0,.3-.2.5-.5.5h-1.1c-.3,0-.5-.2-.5-.5v-15c0-.3.2-.5.5-.5h1.1c.3,0,.5.2.5.5v5.2ZM319.7,233.8c4.4,0,5.5.6,5.5,2.3s-1,2.4-5.5,2.4-3.6,0-5.3-.2c-.3,0-.4-.2-.4-.4v-.9c0-.3.2-.4.5-.4,1.2.2,2.8.2,5.1.2s3.5-.2,3.5-.7-.5-.6-3.3-.6-3.1,0-5,.1c-.3,0-.4-.1-.4-.4v-.9c0-.3,0-.4.4-.4,1.1,0,2.9-.1,4.9-.1ZM325.1,231.8v.8c0,.3-.1.4-.4.4h-9.8c-.3,0-.4-.1-.4-.4v-.8c0-.3.1-.4.4-.4h9.8c.3,0,.4.1.4.4ZM326.5,239.7v.9c0,.3-.1.4-.4.5-1.1.1-3.1.2-6.4.2-2.5,0-5.1,0-6.4-.2-.3,0-.4-.2-.4-.5v-.9c0-.3.1-.5.5-.4,1.3.1,3.4.2,6.4.2s4.7,0,6.3-.2c.3,0,.4.1.4.4ZM313.9,244.9c0-2.1.9-2.8,3.4-2.8s5,.1,7.4.3c.3,0,.4.2.4.5v1c0,.3-.1.4-.4.4-2.5-.2-4.9-.3-7.3-.3s-1.5.3-1.5,1.5,0,.7,0,1.2c0,.3-.2.5-.5.5h-1.1c-.3,0-.5-.2-.5-.5,0-.5-.1-1.1-.1-1.7ZM305.4,234.8v1.5c0,.4.3.5.6.5h2.1c.4,0,.6-.1.6-.5v-1.5c0,0-3.4,0-3.4,0ZM298,246.5v-.9c0-.3.2-.4.5-.4,1.4.2,3.4.3,4.6.3,3.7,0,4.5,0,4.5-.7s-.5-.7-3.5-.7-3.9,0-5.2,0c-.3,0-.4-.1-.4-.4v-.8c0-.3.1-.4.4-.4h.6c-.7-.3-1.2-.9-1.2-1.6s.5-1.4,1.6-1.4c2.3,0,6.2,0,8.9.2.3,0,.4.1.4.4v.9c0,.3-.1.4-.4.4-2-.1-5.8-.3-7.6-.3s-.9.2-.9.6.3.6.9.6c1,0,1.9,0,2.8,0,4.2,0,5.5.5,5.5,2.3s-1.4,2.4-6.6,2.4-3.3-.1-4.8-.3c-.3,0-.4-.2-.4-.5ZM305.4,238.6c-1.2,0-1.9-.6-2-1.7l-.3-4.9c0-.3.2-.5.5-.5h1.1c.3,0,.5.1.5.4v1.1h3.7s0-1.1,0-1.1c0-.3.2-.4.5-.4h1.1c.3,0,.5.2.5.5l-.3,4.9c0,1.1-.8,1.7-2,1.7h-3.4ZM300.6,238.2c0,.3-.2.5-.5.5h-1.1c-.3,0-.5-.2-.5-.5v-6.7c0-.3.2-.5.5-.5h1.1c.3,0,.5.2.5.5v.4c0,.3.1.5.5.5h1.1c.3,0,.5.1.5.4v1c0,.3-.1.4-.5.4h-.9c-.3,0-.6-.1-.7-.3v1.4c0,.3.1.5.5.5h1.1c.3,0,.5.1.5.4v1c0,.3-.1.5-.5.5h-.9c-.3,0-.6-.1-.7-.3v.9ZM282.4,231h1.1c.3,0,.5.1.5.4v5.9s1,0,1,0c.3,0,.5.1.6.3v-6c0-.3.1-.4.5-.4h1.1c.3,0,.5.1.5.4v14.9c0,.3-.1.4-.5.4h-1.1c-.3,0-.5-.1-.5-.4v-6.7c0-.4-.1-.5-.5-.5h-1.1s0,7.2,0,7.2c0,.3-.1.4-.5.4h-1.1c-.3,0-.4-.1-.4-.4v-15c0-.3.1-.4.4-.4ZM292.7,235.6c2.2,0,3.4,1.6,3.4,4.4s-1.2,4.4-3.4,4.4-3.4-1.6-3.4-4.4,1.2-4.4,3.4-4.4ZM291.7,232.2v-1.2c0-.3.1-.4.5-.4h1.1c.3,0,.5.1.5.4v1c0,.2-.1.4-.3.5h2.8c.3,0,.5.1.5.4v1.1c0,.3-.1.4-.5.4h-7c-.3,0-.4-.1-.4-.4v-1.1c0-.3.1-.4.4-.4h2.1c.3,0,.4,0,.4-.3ZM291.3,240.1c0,1.7.5,2.5,1.4,2.5s1.4-.8,1.4-2.5-.5-2.4-1.4-2.4-1.4.8-1.4,2.4ZM276.5,233.3v1.1c0,2,1.2,3.5,2.7,3.5s.4.1.4.4v1c0,.3-.1.4-.4.4-1.9,0-3.3-1.2-3.8-2.7-.5,1.4-1.9,2.7-3.8,2.7s-.5-.1-.5-.4v-1c0-.3.1-.4.5-.4,1.6,0,2.7-1.5,2.7-3.5v-1.1s-2.7,0-2.7,0c-.3,0-.4-.1-.4-.4v-1c0-.3.1-.4.4-.4h7.4c.3,0,.5.1.5.4v1c0,.3-.1.4-.5.4h-2.6ZM278.1,243.9c0,2.1-1.5,3.3-4,3.3s-5.3-.1-7.1-.3c-.3,0-.4-.2-.4-.4v-1c0-.3.3-.5.5-.4,2.1.2,3.9.3,7.1.3s1.8-.6,1.8-1.7,0-1.4-.1-1.8c0-.3.2-.5.5-.5h1.1c.3,0,.5.2.5.5,0,.4.1,1.2.1,2ZM269.1,241.6c0,.3-.2.5-.5.5h-1.1c-.3,0-.5-.2-.5-.5v-10.1c0-.3.2-.5.5-.5h1.1c.3,0,.5.2.5.5v10.1ZM254.2,239.5h-1.2c-.3,0-.4-.1-.5-.4-.3-1.2-.7-3.2-.7-4.2,0-2.4,1-3.4,3.4-3.4s2.5.1,3.9.3c.3,0,.5.2.5.5v1c0,.3-.2.5-.5.5-1.2-.2-1.9-.3-3.8-.3s-1.4.4-1.4,1.4.3,3,.7,4.2c0,.3-.1.5-.4.5ZM249.2,233.7c0,.4.2.6.6.6h.9c.3,0,.4.1.4.5v1c0,.3-.1.4-.4.4h-.8c-.4,0-.6-.1-.7-.4v4.6c0,.3-.2.5-.5.5h-1.1c-.3,0-.5-.2-.5-.5v-8.9c0-.3.2-.5.5-.5h1.1c.3,0,.5.2.5.5v2.2ZM252.6,244.4c-.9,1.7-3.3,2.8-5.4,2.7-.3,0-.4-.1-.4-.4v-1c0-.3.1-.4.4-.4,2.4,0,4.3-1.4,4.3-3.2v-.7c0-.3.2-.5.5-.5h1.1c.3,0,.5.2.5.5v.7c0,1.7,2,3.2,4.4,3.2s.4.1.4.4v1c0,.3-.1.4-.4.4-2.1.1-4.5-1-5.4-2.7ZM240.7,232c2.8,0,4,2,4,6.4,0,4.4-1.3,6.5-4,6.5s-4.1-2-4.1-6.5c0-4.5,1.2-6.4,4.1-6.4ZM238.7,238.4c0,3.2.6,4.5,2,4.5s2-1.3,2-4.5-.6-4.5-2-4.5-2,1.3-2,4.5ZM234.2,246.5c0,.3-.2.5-.5.5h-1.1c-.3,0-.5-.2-.5-.5v-15c0-.3.2-.5.5-.5h1.1c.3,0,.5.2.5.5v15ZM224.5,234.1c-.9,0-1.5,0-2.3.2-.3,0-.5-.1-.5-.4v-1.1c0-.3.1-.4.5-.5.7-.1,1.3-.1,2.4-.1,3.4,0,5,1.9,5,6.3,0,4.1-1.6,6.3-4.9,6.3s-2.2-.3-3.3-.7c-.4-.1-.5-.3-.4-.6l.3-1c0-.3.2-.4.3-.4s.1,0,.2,0c1.1.4,2,.7,2.7.7,2,0,2.9-1.4,2.9-4.3s-.8-4.3-3.1-4.3ZM217.6,239.9c0-.4-.2-.6-.6-.6h-1.2c-.3,0-.5-.1-.5-.4v-1.1c0-.3.1-.4.5-.4h1.1c.4,0,.6.1.7.4v-6.2c0-.3.2-.5.5-.5h1.1c.3,0,.5.2.5.5v15c0,.3-.2.5-.5.5h-1.1c-.3,0-.5-.2-.5-.5v-6.6ZM212.5,247.4c-.8,0-1.4-.5-1.4-1.3s.6-1.3,1.4-1.3,1.4.5,1.4,1.3-.6,1.3-1.4,1.3ZM192.2,245.4l-.3-4.6c0-.3.2-.5.5-.5h1.1c.3,0,.4.2.5.5v.8s7.2,0,7.2,0v-.8c0-.3.2-.5.5-.5h1.1c.3,0,.5.2.5.5l-.3,4.6c0,1.1-.8,1.7-2,1.7h-6.8c-1.3,0-2-.6-2-1.7ZM201.4,233.3v.5c0,1.9,1.2,3.3,2.7,3.3s.4.1.4.4v1c0,.3-.1.4-.4.4-1.9,0-3.3-1.2-3.8-2.6-.5,1.4-1.9,2.6-3.8,2.6s-.5-.1-.5-.4v-1c0-.3.1-.4.5-.4,1.6,0,2.7-1.4,2.7-3.3v-.5s-2.7,0-2.7,0c-.3,0-.4-.1-.4-.4v-1c0-.3.1-.4.4-.4h7.4c.3,0,.4.1.4.4v1c0,.3-.1.4-.4.4h-2.6ZM194,238.6c0,.3-.2.5-.5.5h-1.1c-.3,0-.5-.2-.5-.5v-7.1c0-.3.2-.5.5-.5h1.1c.3,0,.5.2.5.5v7.1ZM194.2,243.4v1.2c0,.5.3.7.9.7h5.2c.5,0,.8-.2.8-.7v-1.2c0,0-6.9,0-6.9,0ZM182.5,232.9c-2.7,0-3.5.3-3.5,1.1s.8,1.1,3.5,1.1,3.5-.3,3.5-1.1-.8-1.1-3.5-1.1ZM176.5,246.5v-.8c0-.3.2-.4.5-.4,1.3.2,3.4.3,4.8.3,3.7,0,4.4,0,4.4-.6s-.4-.6-3.4-.6-4.2,0-5.3,0c-.3,0-.4-.1-.4-.4v-.7c0-.3.1-.4.4-.4h.6c-.7-.2-1.2-.8-1.2-1.5s.5-1.3,1.7-1.3c2.3,0,6.2,0,8.9.2.3,0,.4.1.4.4v.8c0,.3-.1.4-.4.4-2-.1-5.9-.3-7.7-.3s-.8.2-.8.6.2.5.9.5c.9,0,2,0,3,0,4.3,0,5.4.5,5.4,2.2s-1.2,2.3-6.5,2.3-3.5-.1-4.9-.3c-.3,0-.4-.2-.4-.5ZM182.6,237.6c2.1,0,4.6,0,6.3-.2.3,0,.4.1.4.4v.9c0,.3-.1.4-.4.4-1.1.1-3.1.2-6.4.2-2.5,0-5.1,0-6.4-.2-.3,0-.4-.2-.4-.4v-.9c0-.3.2-.4.4-.4,1.4.1,3.4.2,6.4.2ZM182.5,236.8c-4,0-5.6-.8-5.6-2.8s1.6-2.8,5.6-2.8,5.6.8,5.6,2.8-1.6,2.8-5.6,2.8ZM161.8,247.3c-3.9,0-5.9-1.2-5.9-3.4s2-3.4,5.9-3.4,5.9,1.2,5.9,3.4-2,3.4-5.9,3.4ZM163.7,231.6v-.9c0-.3.1-.4.4-.4h1.2c.3,0,.4.1.4.4v.7c0,.2-.1.4-.3.5h3c.3,0,.4.1.4.4v1c0,.3-.1.4-.4.4h-2.6s0,.2,0,.2c0,1.9,1.2,3.3,2.7,3.3s.4.1.4.4v1c0,.3-.1.5-.4.5-1.9,0-3.3-1.2-3.8-2.6-.5,1.4-1.9,2.6-3.8,2.6s-.4-.1-.4-.5v-1c0-.3.1-.4.4-.4,1.6,0,2.7-1.4,2.7-3.3v-.2s-2.7,0-2.7,0c-.3,0-.4-.1-.4-.4v-1c0-.3.1-.4.4-.4h2.2c.3,0,.4,0,.4-.3ZM158.4,234c0,.4.2.6.6.6h1.4c.3,0,.4.1.4.4v1c0,.3-.1.4-.4.4h-1.3c-.4,0-.6-.1-.7-.4v3c0,.3-.2.5-.5.5h-1.1c-.3,0-.5-.2-.5-.5v-7.6c0-.3.2-.5.5-.5h1.1c.3,0,.5.2.5.5v2.4ZM161.8,242.3c-2.8,0-3.8.6-3.8,1.5s1,1.5,3.8,1.5,3.8-.6,3.8-1.5-1-1.5-3.8-1.5ZM147,245.6c-2.8,0-5.1-.1-6.4-.3-.3,0-.4-.2-.4-.5v-1c0-.3.2-.5.5-.4,1.2.2,3.1.3,4.6.3s.6-.2.6-.6v-2.2c0-.3.2-.5.5-.5h1.1c.3,0,.5.2.5.5v2.1c0,.4-.2.6-.4.8,2,0,4.4-.2,5.7-.3.3,0,.5.1.5.4v1c0,.3-.1.4-.4.5-1.4.2-3.5.3-6.3.3ZM141.9,240.7c-.3,0-.6,0-.6-.4v-1.1c0-.3.1-.4.4-.4,2.4,0,4.1-1.6,4.1-3.8v-2.5c0-.3.2-.5.5-.5h1.1c.3,0,.5.2.5.5v2.5c0,2.2,1.7,3.8,4.1,3.8s.4.1.4.4v1.1c0,.4-.3.4-.6.4-2.1,0-4.2-1.2-4.9-3-.8,1.8-2.8,3-4.9,3ZM132.3,240.1c0,1.6.7,2.5,1.9,2.5s1.9-.8,1.9-2.5-.7-2.4-1.9-2.4-1.9.8-1.9,2.4ZM134.2,235.6c2.5,0,3.9,1.6,3.9,4.4s-1.5,4.4-3.9,4.4-3.9-1.6-3.9-4.4,1.5-4.4,3.9-4.4ZM126.1,239.9c0-.4-.2-.6-.6-.6h-1.2c-.3,0-.4-.1-.4-.4v-1.1c0-.3.1-.4.4-.4h1.1c.4,0,.6.1.7.4v-6.2c0-.3.2-.5.5-.5h1.1c.3,0,.5.2.5.5v15c0,.3-.2.5-.5.5h-1.1c-.3,0-.5-.2-.5-.5v-6.6ZM133.1,232.2v-1.2c0-.3.1-.4.4-.4h1.2c.3,0,.4.1.4.4v1c0,.2-.1.4-.3.5h3.3c.3,0,.4.1.4.4v1.1c0,.3-.1.4-.4.4h-8c-.3,0-.4-.1-.4-.4v-1.1c0-.3.1-.4.4-.4h2.6c.3,0,.4,0,.4-.3ZM114.9,236c0-2.8,1-3.9,3.5-3.9s2.4.1,3.8.3c.3,0,.4.2.4.5v1c0,.3-.2.5-.5.5-1.2-.2-2-.3-3.3-.3s-1.8.5-1.8,2.1c0,2.6.2,5.2.7,7.8,0,.3-.1.5-.4.5h-1.2c-.3,0-.4-.1-.5-.4-.5-2.6-.7-5.2-.7-8.1ZM112.1,236.7c0,.4.2.6.6.6h.9c.3,0,.4.1.4.4v1.1c0,.3-.1.4-.4.4h-.8c-.4,0-.6-.1-.7-.4v7.6c0,.3-.2.5-.5.5h-1.1c-.3,0-.5-.2-.5-.5v-15c0-.3.2-.5.5-.5h1.1c.3,0,.5.2.5.5v5.2ZM99.4,243.4l.3-1c0-.3.2-.4.3-.4s.1,0,.2,0c1,.4,1.9.7,2.7.7,1.8,0,2.5-.8,2.5-3s-.1-4.6-.4-7c0-.3.1-.5.5-.5h1.1c.3,0,.5.1.5.4.3,2.2.4,4.2.4,6.9s-1.5,5.2-4.4,5.2-2.1-.2-3.3-.7c-.4-.1-.5-.3-.4-.6ZM95.5,239.9c0-.4-.2-.6-.6-.6h-1.2c-.3,0-.4-.1-.4-.4v-1.1c0-.3.1-.4.4-.4h1.1c.4,0,.6.1.7.4v-6.2c0-.3.2-.5.5-.5h1.1c.3,0,.5.2.5.5v15c0,.3-.2.5-.5.5h-1.1c-.3,0-.5-.2-.5-.5v-6.6ZM320.7,266.4c0,3.2.6,4.5,2,4.5s2-1.3,2-4.5-.6-4.5-2-4.5-2,1.3-2,4.5ZM322.7,260c2.8,0,4,2,4,6.4s-1.3,6.5-4,6.5-4-2-4-6.5,1.2-6.4,4-6.4ZM314.5,267.9c0-.4-.2-.6-.6-.6h-1.2c-.3,0-.5-.1-.5-.5v-1.1c0-.3.1-.5.5-.5h1.1c.4,0,.6.1.7.4v-6.2c0-.3.2-.5.5-.5h1.1c.3,0,.5.2.5.5v15c0,.3-.2.5-.5.5h-1.1c-.3,0-.5-.2-.5-.5v-6.6ZM298.4,270.6c0-1.3.8-2.1,2.2-2.1h8.3c.5,0,.8.3.8.8v4.1c0,1-.7,1.6-1.9,1.6h-9.3c-.3,0-.4-.1-.4-.5v-1c0-.3.1-.4.4-.4h1.3c-.9-.5-1.5-1.5-1.5-2.6ZM305.8,259.6v-.9c0-.3.1-.4.4-.4h1.2c.3,0,.5.1.5.4v.7c0,.2-.1.4-.3.5h3c.3,0,.5.1.5.5v1c0,.3-.1.5-.5.5h-2.6s0,.2,0,.2c0,1.9,1.2,3.3,2.7,3.3s.5.1.5.5v1c0,.3-.1.5-.5.5-1.9,0-3.3-1.2-3.8-2.6-.5,1.4-1.9,2.6-3.8,2.6s-.4-.1-.4-.5v-1c0-.3.1-.5.4-.5,1.6,0,2.7-1.4,2.7-3.3v-.2s-2.7,0-2.7,0c-.3,0-.5-.1-.5-.5v-1c0-.3.1-.5.5-.5h2.2c.3,0,.4,0,.4-.3ZM306.9,273.2c.4,0,.7-.2.7-.6v-1.8c0-.3-.2-.4-.4-.4h-5.5c-.8,0-1.2.3-1.2,1.1s.7,1.7,1.6,1.7h4.9ZM300.6,266.7c0,.3-.2.5-.5.5h-1.1c-.3,0-.5-.2-.5-.5v-7.2c0-.3.2-.5.5-.5h1.1c.3,0,.5.2.5.5v7.2ZM293.2,270.5c.4,0,.7-.2.7-.6v-7.4c0-.3-.2-.4-.4-.4h-1.5c-1.3,0-1.8,1-1.8,4s.8,4.4,2,4.4h1.1ZM295.1,260.2c.5,0,.8.3.8.8v9.9c0,1-.7,1.6-1.9,1.6h-5.5c-.3,0-.5-.1-.5-.5v-1.1c0-.3.1-.5.5-.5h1.1c-1-1.2-1.7-3.3-1.7-5.9s.9-4.5,3.4-4.5h3.7ZM283.9,267.9c0-.4-.2-.6-.6-.6h-1.2c-.3,0-.4-.1-.4-.5v-1.1c0-.3.1-.5.4-.5h1.1c.4,0,.6.1.7.4v-6.2c0-.3.2-.5.5-.5h1.1c.3,0,.5.2.5.5v15c0,.3-.2.5-.5.5h-1.1c-.3,0-.5-.2-.5-.5v-6.6ZM275.2,262.1c-.9,0-1.5,0-2.3.2-.3,0-.5-.1-.5-.5v-1.1c0-.3.1-.4.5-.5.7-.1,1.3-.1,2.4-.1,3.4,0,5,1.9,5,6.3s-1.6,6.3-4.9,6.3-2.2-.3-3.3-.7c-.4-.1-.5-.3-.4-.6l.3-1c0-.3.2-.4.3-.4s.1,0,.2,0c1.1.5,2,.7,2.7.7,2,0,2.9-1.4,2.9-4.3s-.8-4.3-3.1-4.3ZM268.2,267.9c0-.4-.2-.6-.6-.6h-1.2c-.3,0-.4-.1-.4-.5v-1.1c0-.3.1-.5.4-.5h1.1c.4,0,.6.1.7.4v-6.2c0-.3.2-.5.5-.5h1.1c.3,0,.5.2.5.5v15c0,.3-.2.5-.5.5h-1.1c-.3,0-.5-.2-.5-.5v-6.6ZM257.2,262.1v4.8c0,2.2,1,3.4,2.3,3.6.3,0,.4.1.4.5v1.1c0,.3-.1.5-.4.5-1.6-.2-2.8-1.2-3.3-2.7-.5,1.5-1.8,2.5-3.3,2.7-.3,0-.5-.1-.5-.5v-1.1c0-.3.1-.4.5-.5,1.4-.2,2.4-1.4,2.4-3.6v-4.8s-2.3,0-2.3,0c-.3,0-.4-.1-.4-.4v-1.1c0-.3.1-.4.4-.4h6.5c.3,0,.5.1.5.4v1.1c0,.3-.1.4-.5.4h-2.3ZM253.4,265.6v1.1c0,.3-.1.5-.5.5h-1.6c-.3,0-.5-.1-.6-.3v7.7c0,.3-.1.5-.4.5h-1.1c-.3,0-.4-.1-.4-.5v-14.9c0-.3.1-.5.4-.5h1.1c.3,0,.4.1.4.5v5c0,.4.1.5.5.5h1.6c.3,0,.5.1.5.4ZM246.1,259h1.1c.3,0,.5.1.5.4v15c0,.3-.1.5-.5.5h-1.1c-.3,0-.4-.1-.4-.5v-15c0-.3.1-.4.4-.4ZM235.4,272.5c-.3,0-.5-.1-.5-.4v-1.1c0-.3.1-.5.4-.5,1.5-.2,2.8-2.1,2.8-4.1v-5.8c0-.3.2-.5.5-.5h1.1c.3,0,.5.2.5.5v5.8c0,2.1,1.3,3.9,2.8,4.1.3,0,.4.2.4.5v1.1c0,.3-.1.5-.4.4-1.7-.2-3.3-1.6-3.8-3.3-.4,1.7-2,3-3.8,3.3ZM232.8,274.5c0,.3-.2.5-.5.5h-1.1c-.3,0-.5-.2-.5-.5v-15c0-.3.2-.5.5-.5h1.1c.3,0,.5.2.5.5v15ZM222.6,267.8h-1.2c-.3,0-.5-.1-.5-.4-.4-1.4-.7-3.4-.7-4.5,0-2.5,1-3.5,3.5-3.5s2.6.1,4,.3c.3,0,.4.2.4.5v1c0,.3-.2.5-.5.5-1.2-.2-1.9-.3-3.9-.3s-1.5.5-1.5,1.5.3,3,.7,4.4c0,.3,0,.5-.4.5ZM216.1,265.8c0-.4-.2-.6-.6-.6h-1.2c-.3,0-.5-.1-.5-.4v-1c0-.3.1-.4.5-.4h1.1c.4,0,.6.1.7.4v-4.2c0-.3.2-.5.5-.5h1.1c.3,0,.5.2.5.5v10.1c0,.3-.2.5-.5.5h-1.1c-.3,0-.5-.2-.5-.5v-3.8ZM226.8,271.9c0,2.1-1.5,3.3-4,3.3s-5-.1-6.7-.3c-.3,0-.5-.2-.4-.4v-1c0-.3.3-.5.5-.4,2.1.2,3.7.3,6.7.3s1.8-.6,1.8-1.7,0-1.4-.1-1.8c0-.3.2-.5.5-.5h1.1c.3,0,.5.2.5.5,0,.4.1,1.2.1,2ZM204.3,267.2c-.3,0-.5-.1-.6-.3v7.6c0,.3-.1.5-.4.5h-1.1c-.3,0-.4-.1-.4-.5v-14.9c0-.3.1-.5.4-.5h1.1c.3,0,.4.1.4.5v5.1c0,.4.1.5.5.5h1.5c.2-3.6,1.4-5.3,3.6-5.3s3.6,2,3.6,6.4-1.2,6.5-3.6,6.5-3.4-1.8-3.6-5.7h-1.4ZM199,259h1.1c.3,0,.5.1.5.4v15c0,.3-.1.5-.5.5h-1.1c-.3,0-.5-.1-.5-.5v-15c0-.3.1-.4.5-.4ZM207.6,266.4c0,3.2.5,4.5,1.6,4.5s1.6-1.3,1.6-4.5-.5-4.5-1.6-4.5-1.6,1.3-1.6,4.5ZM187.1,265c1.2,0,2-.8,2-2s-.8-1.9-2-1.9-2,.7-2,1.9.8,2,2,2ZM178.1,274.5v-.9c0-.3.2-.4.5-.4,1.4.2,3.4.3,4.6.3,3.7,0,4.5,0,4.5-.7s-.5-.7-3.5-.7-3.9,0-5.2,0c-.3,0-.4-.1-.4-.4v-.8c0-.3.1-.4.4-.4h.6c-.7-.3-1.2-.9-1.2-1.6s.5-1.4,1.6-1.4c2.3,0,6.2,0,8.9.2.3,0,.4.1.4.4v.9c0,.3-.1.4-.4.4-2-.1-5.8-.3-7.6-.3s-.9.2-.9.6.3.6.9.6c1,0,1.9,0,2.8,0,4.2,0,5.5.5,5.5,2.3s-1.4,2.4-6.6,2.4-3.3-.1-4.8-.3c-.3,0-.4-.2-.4-.4ZM187.1,259.3c2.5,0,4,1.5,4,3.7s-1.6,3.8-4,3.8-4.1-1.5-4.1-3.8,1.6-3.7,4.1-3.7ZM180.7,266.2c0,.3-.2.5-.5.5h-1.1c-.3,0-.5-.2-.5-.5v-6.7c0-.3.2-.5.5-.5h1.1c.3,0,.5.2.5.5v6.7ZM170.4,266.4c0,3.2.6,4.5,1.9,4.5s1.9-1.3,1.9-4.5-.5-4.5-1.9-4.5-1.9,1.3-1.9,4.5ZM172.3,260c2.8,0,3.9,2,3.9,6.4s-1.2,6.5-3.9,6.5-4-2-4-6.5,1.2-6.4,4-6.4ZM165.7,264.7c0,.4.2.6.6.6h.9c.3,0,.4.1.4.5v1.1c0,.3-.1.5-.4.5h-.8c-.4,0-.6-.1-.7-.4v7.6c0,.3-.2.5-.5.5h-1.1c-.3,0-.5-.2-.5-.5v-15c0-.3.2-.5.5-.5h1.1c.3,0,.5.2.5.5v5.2ZM153,271.4l.3-1c0-.3.2-.4.3-.4s.1,0,.2,0c1,.5,1.9.7,2.7.7,1.8,0,2.5-.8,2.5-3s-.1-4.6-.4-7c0-.3.1-.5.5-.5h1.1c.3,0,.5.1.5.4.3,2.2.4,4.2.4,6.9s-1.5,5.2-4.4,5.2-2.1-.2-3.3-.7c-.4-.1-.5-.3-.4-.6ZM149.1,267.9c0-.4-.2-.6-.6-.6h-1.2c-.3,0-.5-.1-.5-.5v-1.1c0-.3.1-.5.5-.5h1.1c.4,0,.6.1.7.4v-6.2c0-.3.2-.5.5-.5h1.1c.3,0,.5.2.5.5v15c0,.3-.2.5-.5.5h-1.1c-.3,0-.5-.2-.5-.5v-6.6ZM143.9,262.8c0,2.1-1.3,3.3-3.7,3.3s-5.3-.1-7.1-.3c-.3,0-.4-.2-.4-.4v-1c0-.3.3-.5.5-.4,2.1.2,4,.3,6.8.3s1.7-.5,1.7-1.5,0-2-.1-2.8c0-.3.1-.5.4-.5h1.1c.3,0,.5.2.5.5,0,.8.1,2.2.1,2.9ZM144.2,272c0,2.1-1.4,3.3-3.8,3.3s-5.6-.1-7.4-.3c-.3,0-.4-.2-.4-.4v-1c0-.3.3-.5.5-.4,2.1.2,4.2.3,7.4.3s1.7-.5,1.7-1.5,0-.9-.1-1.3c0-.3.1-.5.4-.5h1.1c.3,0,.5.2.5.5,0,.4.1.8.1,1.4ZM145.4,267.5v1c0,.3-.1.5-.4.5-1.1.1-3,.2-6.3.2-2.5,0-5.1,0-6.4-.2-.3,0-.4-.2-.4-.5v-1c0-.3.2-.5.5-.4,1.3.1,3.4.2,6.3.2s4.6,0,6.3-.2c.3,0,.5.1.5.4ZM119.5,267.5h-1.2c-.3,0-.4-.1-.5-.4-.3-1.2-.7-3.2-.7-4.2,0-2.4,1-3.4,3.4-3.4s2.5.1,3.9.3c.3,0,.4.2.4.5v1c0,.3-.2.5-.5.5-1.2-.2-1.9-.3-3.8-.3s-1.4.4-1.4,1.4.3,3,.7,4.2c0,.3-.1.5-.4.5ZM114.4,261.7c0,.4.2.6.6.6h.9c.3,0,.4.1.4.5v1c0,.3-.1.5-.4.5h-.8c-.4,0-.6-.1-.7-.4v4.6c0,.3-.2.5-.5.5h-1.1c-.3,0-.5-.2-.5-.5v-8.9c0-.3.2-.5.5-.5h1.1c.3,0,.5.2.5.5v2.2ZM117.9,272.4c-.9,1.7-3.3,2.8-5.4,2.7-.3,0-.4-.1-.4-.5v-1c0-.3.1-.4.4-.4,2.4,0,4.3-1.4,4.3-3.1v-.7c0-.3.2-.5.5-.5h1.1c.3,0,.5.2.5.5v.7c0,1.7,2,3.1,4.4,3.1s.4.1.4.4v1c0,.3-.1.4-.4.5-2.1.1-4.5-1-5.4-2.7ZM92.7,261v-1c0-.3.1-.5.5-.5,2.3-.1,3.1-.2,4.1-.2,4.6,0,6.3.8,6.3,2.9s-1.6,3-6,3-2.6-.1-4.6-.3c-.3,0-.5-.2-.4-.4v-1c0-.3.3-.5.5-.4,1.6.2,3.3.3,4.8.3,2.9,0,3.7-.2,3.7-1.1s-.9-1-4.1-1-2,0-4.1.2c-.3,0-.5-.1-.5-.4ZM97.8,275.3c-4,0-5.9-1-5.9-3.1s1.9-3.1,5.9-3.1,5.9,1,5.9,3.1-1.9,3.1-5.9,3.1ZM97.8,270.9c-2.7,0-3.8.3-3.8,1.2s1.1,1.2,3.8,1.2,3.8-.4,3.8-1.2-1.1-1.2-3.8-1.2ZM104.7,266.6v1c0,.3-.1.5-.4.5-1.1.1-3,.2-6.3.2-2.5,0-5.1,0-6.4-.2-.3,0-.5-.2-.5-.5v-1c0-.3.2-.5.5-.4,1.3.1,3.4.2,6.3.2s4.6,0,6.3-.2c.3,0,.5.1.5.4ZM75.6,271.4l.3-1c0-.2.2-.3.4-.3s.1,0,.2,0c1.1.4,2.1.6,2.8.6,1.7,0,2.7-.9,2.7-2.5s-1-2.6-3.1-2.6-1.3,0-2,.1c-.3,0-.5-.1-.5-.4v-1c0-.3.1-.5.4-.5.6-.1,1.4-.2,2.3-.2,3.3,0,4.9,1.5,4.9,4.6s-1.7,4.5-4.5,4.5-2.6-.3-3.7-.7c-.3-.1-.4-.3-.3-.6ZM72,267.9c0-.4-.2-.6-.6-.6h-1.2c-.3,0-.5-.1-.5-.5v-1.1c0-.3.1-.5.5-.5h1.1c.4,0,.6.1.7.4v-6.2c0-.3.2-.5.5-.5h1.1c.3,0,.5.2.5.5v15c0,.3-.2.5-.5.5h-1.1c-.3,0-.5-.2-.5-.5v-6.6ZM76.5,262.1c-.3,0-.4-.1-.4-.4v-1.1c0-.3.1-.4.4-.4h6.9c.3,0,.4.1.4.4v1.1c0,.3-.1.4-.4.4h-6.9ZM67,271.9c0,2.1-1.5,3.3-4,3.3s-5.3-.1-7.1-.3c-.3,0-.5-.2-.4-.4v-1c0-.3.3-.5.5-.4,2.1.2,3.9.3,7.1.3s1.8-.6,1.8-1.7,0-1.4-.1-1.8c0-.3.2-.5.5-.5h1.1c.3,0,.5.2.5.5,0,.4.1,1.2.1,2ZM58,269.6c0,.3-.2.5-.5.5h-1.1c-.3,0-.5-.2-.5-.5v-10.1c0-.3.2-.5.5-.5h1.1c.3,0,.5.2.5.5v10.1ZM64.5,259.3c2.4,0,4,1.7,4,4.4s-1.6,4.4-4,4.4-4-1.7-4-4.4,1.6-4.4,4-4.4ZM64.5,266.1c1.2,0,2-1,2-2.5s-.8-2.5-2-2.5-2,1-2,2.5.8,2.5,2,2.5ZM46.5,260.9c-2.7,0-3.5.3-3.5,1.1s.8,1.1,3.5,1.1,3.5-.3,3.5-1.1-.8-1.1-3.5-1.1ZM40.5,274.5v-.8c0-.3.2-.4.5-.4,1.4.2,3.4.3,4.8.3,3.7,0,4.4,0,4.4-.6s-.4-.6-3.4-.6-4.2,0-5.3,0c-.3,0-.4-.1-.4-.4v-.7c0-.3.1-.4.4-.4h.6c-.7-.2-1.2-.8-1.2-1.5s.4-1.3,1.7-1.3c2.3,0,6.2,0,8.9.2.3,0,.4.1.4.4v.8c0,.3-.1.4-.4.4-2-.1-5.8-.3-7.7-.3s-.8.2-.8.6.2.5.9.5c.9,0,2,0,3,0,4.3,0,5.4.5,5.4,2.2s-1.2,2.3-6.5,2.3-3.5-.1-4.9-.3c-.3,0-.4-.2-.4-.4ZM46.6,265.6c2.1,0,4.6,0,6.3-.2.3,0,.5.1.5.4v.9c0,.3-.1.4-.4.4-1.1.1-3.1.2-6.4.2-2.5,0-5.1,0-6.4-.2-.3,0-.4-.2-.4-.5v-.9c0-.3.2-.4.4-.4,1.4.1,3.4.2,6.4.2ZM46.5,264.8c-4,0-5.6-.8-5.6-2.8s1.6-2.8,5.6-2.8,5.6.8,5.6,2.8-1.6,2.8-5.6,2.8ZM322.4,300c1.7,0,3.1-.1,4.3-.3.3,0,.5,0,.5.4v1.1c0,.3-.1.4-.5.5-1.2.2-2.6.3-4.3.3s-3.4,0-4.6-.3c-.3,0-.5-.2-.5-.5v-1c0-.3.2-.5.5-.4,1.2.2,2.9.3,4.6.3ZM322.3,297.3c-2.5,0-4-1.9-4-4.9s1.6-4.8,4-4.8,4,1.9,4,4.8-1.6,4.9-4,4.9ZM324.3,292.5c0-1.7-.8-2.9-2-2.9s-2,1.2-2,2.9.8,2.9,2,2.9,2-1.2,2-2.9ZM314.1,287.5c0-.3.2-.5.5-.5h1.1c.3,0,.5.2.5.5v15c0,.3-.2.5-.5.5h-1.1c-.3,0-.5-.2-.5-.5v-15ZM299.3,299.7c0-2,1-2.9,3.5-2.9s5.3.1,7.2.3c.3,0,.4.2.4.5v1c0,.3-.1.5-.4.4-2.2-.2-4.4-.3-7-.3s-1.7.3-1.7,1.5,0,1.7,0,2.3c0,.3-.2.5-.5.5h-1.1c-.3,0-.5-.2-.5-.5,0-.6,0-1.6,0-2.8ZM307.1,287.4h1.1c.3,0,.5.2.5.5v2.1c0,2,1.2,3.5,2.7,3.5s.4.1.4.4v1c0,.3-.1.4-.4.4-1.9,0-3.3-1.2-3.8-2.7-.5,1.4-1.9,2.7-3.8,2.7s-.5-.1-.5-.4v-1c0-.3.1-.4.5-.4,1.6,0,2.7-1.5,2.7-3.5v-2.1c0-.3.2-.5.5-.5ZM301.3,295.1c0,.3-.2.5-.5.5h-1.1c-.3,0-.5-.2-.5-.5v-7.6c0-.3.2-.5.5-.5h1.1c.3,0,.5.2.5.5v7.6ZM290.9,296.1c0,1.6.7,2.5,1.9,2.5s1.9-.8,1.9-2.5-.7-2.4-1.9-2.4-1.9.8-1.9,2.4ZM292.7,291.6c2.5,0,3.9,1.6,3.9,4.4s-1.5,4.4-3.9,4.4-3.9-1.6-3.9-4.4,1.5-4.4,3.9-4.4ZM284.6,295.9c0-.4-.2-.6-.6-.6h-1.2c-.3,0-.5-.1-.5-.5v-1.1c0-.3.1-.5.5-.5h1.1c.4,0,.6.1.7.4v-6.2c0-.3.2-.5.5-.5h1.1c.3,0,.5.2.5.5v15c0,.3-.2.5-.5.5h-1.1c-.3,0-.5-.2-.5-.5v-6.6ZM291.6,288.2v-1.2c0-.3.1-.5.5-.5h1.2c.3,0,.5.1.5.5v1c0,.2-.1.4-.3.5h3.3c.3,0,.5.1.5.5v1.1c0,.3-.1.5-.5.5h-8c-.3,0-.4-.1-.4-.5v-1.1c0-.3.1-.5.4-.5h2.6c.3,0,.4,0,.4-.3ZM278.1,290.1v4.3c0,2.1,1.3,3.9,2.8,4.1.3,0,.4.2.4.5v1.1c0,.3-.1.5-.5.4-1.7-.2-3.3-1.6-3.8-3.3-.4,1.7-2,3-3.8,3.3-.3,0-.4-.1-.4-.4v-1.1c0-.3.1-.5.4-.5,1.5-.2,2.8-2.1,2.8-4.1v-4.3s-2.7,0-2.7,0c-.3,0-.4-.1-.4-.4v-1.1c0-.3.1-.4.4-.4h7.4c.3,0,.4.1.4.4v1.1c0,.3-.1.4-.4.4h-2.6ZM270.7,302.5c0,.3-.2.5-.5.5h-1.1c-.3,0-.5-.2-.5-.5v-15c0-.3.2-.5.5-.5h1.1c.3,0,.5.2.5.5v15ZM255,302.5v-1.1c0-.3.3-.4.6-.3.5.1,1.3.3,1.8.3s.9-.3.9-.8c0-1.3,0-2.6-.1-3.6,0-.3.1-.5.4-.5h1.2c.3,0,.5.1.5.4,0,1,.1,2.4.1,4s-.9,2.5-2.9,2.5-1.5-.1-2.1-.3c-.3,0-.4-.2-.4-.5ZM257.1,293.1c1.2,0,2-.8,2-2.1s-.8-2-2-2-2,.8-2,2,.8,2.1,2,2.1ZM251.3,300.4c-.8,0-1.2.2-1.2.6s.4.6,1.2.6,1.2-.2,1.2-.6-.4-.6-1.2-.6ZM250.4,296.1v-.4c0-.3.1-.4.5-.4h1.1c.3,0,.5.1.5.4h0c0,.5-.1.7-.3.8h2.4c.3,0,.4.1.4.4v.9c0,.3-.2.4-.4.4h-6.3c-.3,0-.4-.1-.4-.4v-.9c0-.3.2-.4.4-.4h1.8c.3,0,.4-.1.4-.3ZM257.1,287.3c2.5,0,4,1.5,4,3.8s-1.6,3.9-4,3.9-4.1-1.5-4.1-3.9,1.6-3.8,4.1-3.8ZM249,292.1c0-.4-.2-.6-.6-.6h-1.2c-.3,0-.5-.1-.5-.5v-1c0-.3.1-.5.5-.5h1.1c.4,0,.6.1.7.4v-2.5c0-.3.2-.5.5-.5h1.1c.3,0,.5.2.5.5v6.7c0,.3-.2.5-.5.5h-1.1c-.3,0-.5-.2-.5-.5v-2.1ZM251.3,303.3c-2,0-3.1-.8-3.1-2.3s1.1-2.2,3.1-2.2,3.1.8,3.1,2.3-1.1,2.2-3.1,2.2ZM238.5,301.6c-2.8,0-5.2-.1-6.4-.3-.3,0-.5-.2-.5-.5v-1c0-.3.2-.5.5-.4,1.2.1,3.6.3,5.5.3s.6-.2.6-.6v-4.1c0-.3.2-.5.5-.5h1.1c.3,0,.5.2.5.5v4c0,.4-.2.6-.4.8,1.5,0,3.3-.2,4.8-.3.3,0,.5.1.5.4v1c0,.3-.1.4-.4.5-1.4.2-3.5.3-6.3.3ZM237.7,289.9c-1.9,0-2.6.8-2.6,2.8s.1,2.5.3,3.4c0,.3,0,.4-.3.4l-1.2.2c-.3,0-.4,0-.5-.3-.3-1.3-.3-2.4-.3-4.1,0-2.8,1.5-4.4,4.2-4.4s4.1,0,6.1.3c.3,0,.4.2.4.5v1.1c0,.3-.2.5-.4.4-1.8-.2-3.6-.3-5.7-.3ZM212.8,296.7c-.3,0-.6,0-.6-.5v-1.1c0-.3.1-.4.4-.4,2.4,0,4.1-1.6,4.1-3.8v-2.5c0-.3.2-.5.5-.5h1.1c.3,0,.5.2.5.5v2.5c0,2.2,1.7,3.8,4.1,3.8s.4.1.4.4v1.1c0,.5-.3.5-.6.5-2.1,0-4.2-1.2-4.9-3-.8,1.8-2.8,3-4.9,3ZM224.6,299.8v1c0,.3-.1.4-.4.5-1.4.2-3.5.3-6.3.3s-5.1-.1-6.4-.3c-.3,0-.4-.2-.4-.5v-1c0-.3.2-.5.5-.4,1.4.2,3.8.3,6.3.3s4.6-.1,6.3-.3c.3,0,.5.1.5.4ZM197.1,296.7c-.3,0-.6,0-.6-.5v-1.1c0-.3.1-.4.4-.4,2.4,0,4.1-1.6,4.1-3.8v-2.5c0-.3.2-.5.5-.5h1.1c.3,0,.5.2.5.5v2.5c0,2.2,1.7,3.8,4.1,3.8s.4.1.4.4v1.1c0,.5-.3.5-.6.5-2.1,0-4.2-1.2-4.9-3-.8,1.8-2.8,3-4.9,3ZM208.9,299.8v1c0,.3-.1.4-.5.5-1.3.2-3.5.3-6.3.3s-5.1-.1-6.4-.3c-.3,0-.5-.2-.5-.5v-1c0-.3.2-.5.5-.4,1.4.2,3.8.3,6.3.3s4.6-.1,6.3-.3c.3,0,.5.1.5.4ZM186.5,301.6c-2.8,0-5.1-.1-6.4-.3-.3,0-.4-.2-.4-.5v-1c0-.3.2-.5.5-.4,1.2.2,3.1.3,4.6.3s.6-.2.6-.6v-2s0,0,0,0c-1.3,0-3.1-.1-4.5-.4-.2,0-.4-.2-.3-.5l.2-1c0-.3.2-.4.4-.3,1.3.2,2.9.3,4.3.3,3.5,0,4.3-.2,4.3-1s-.7-.9-3.3-.9-3.2,0-4.9,0-.4-.2-.4-.4v-.9c0-.3.1-.4.4-.4h.8c-.9-.3-1.3-1-1.3-2s.7-1.7,2.1-1.7c.7,0,1.4,0,2.2,0,2.1,0,4.3.1,5.8.3.3,0,.4.2.4.4v1.1c0,.3-.2.4-.4.4-1.8-.2-4.5-.3-6.8-.3s-1.1.2-1.1.8.4.9,1.2.9h2.2c4.1,0,5.3.6,5.3,2.7s-1,2.7-4.3,2.9v1.9c0,.4-.2.6-.4.8,2,0,4.4-.2,5.7-.3.3,0,.5.1.5.4v1c0,.3-.1.4-.4.5-1.4.2-3.5.3-6.3.3ZM169.4,295.2c-.3,0-.5-.1-.6-.3v7.6c0,.3-.1.5-.4.5h-1.1c-.3,0-.5-.1-.5-.5v-14.9c0-.3.1-.5.5-.5h1.1c.3,0,.4.1.4.5v5.1c0,.4.1.5.5.5h1.5c.2-3.6,1.4-5.3,3.6-5.3s3.6,2,3.6,6.4-1.2,6.5-3.6,6.5-3.4-1.8-3.6-5.7h-1.4ZM164.1,287h1.1c.3,0,.4.1.4.4v15c0,.3-.1.5-.4.5h-1.1c-.3,0-.4-.1-.4-.5v-15c0-.3.1-.4.4-.4ZM172.8,294.4c0,3.2.5,4.5,1.6,4.5s1.6-1.3,1.6-4.5-.5-4.5-1.6-4.5-1.6,1.3-1.6,4.5ZM154.6,295.2c0,0-.1,0-.2,0h-1.5c-.3,0-.5-.1-.6-.3v7.6c0,.3-.1.5-.4.5h-1.1c-.3,0-.4-.1-.4-.5v-14.9c0-.3.1-.5.4-.5h1.1c.3,0,.4.1.4.5v5.1c0,.4.1.5.5.5h1.6c0-.5,0-1.1,0-1.6,0-2.6.8-3.5,3.2-3.5s2.4.1,3.4.3c.3,0,.4.2.4.5v1c0,.3-.2.5-.5.5-.8-.2-2-.3-3.1-.3s-1.5.4-1.5,1.7c0,2.6.2,5.6.7,8.2,0,.3-.1.5-.4.5h-1.1c-.3,0-.4-.1-.5-.4-.3-1.5-.5-3.2-.6-4.9ZM147.7,287h1.1c.3,0,.4.1.4.4v15c0,.3-.1.5-.4.5h-1.1c-.3,0-.4-.1-.4-.5v-15c0-.3.1-.4.4-.4ZM127.5,301.4l-.3-4.6c0-.3.2-.5.5-.5h1.1c.3,0,.4.2.5.5v.8s7.2,0,7.2,0v-.8c0-.3.2-.5.5-.5h1.1c.3,0,.5.2.5.5l-.3,4.6c0,1.1-.8,1.7-2,1.7h-6.8c-1.3,0-2-.6-2-1.7ZM136.7,289.3v.5c0,1.9,1.2,3.3,2.7,3.3s.5.1.5.5v1c0,.3-.1.4-.5.4-1.9,0-3.3-1.2-3.8-2.6-.5,1.4-1.9,2.6-3.8,2.6s-.4-.1-.4-.4v-1c0-.3.1-.5.4-.5,1.6,0,2.7-1.4,2.7-3.3v-.5s-2.7,0-2.7,0c-.3,0-.4-.1-.4-.4v-1c0-.3.1-.4.4-.4h7.4c.3,0,.4.1.4.4v1c0,.3-.1.4-.4.4h-2.6ZM129.3,294.6c0,.3-.2.5-.5.5h-1.1c-.3,0-.5-.2-.5-.5v-7.1c0-.3.2-.5.5-.5h1.1c.3,0,.5.2.5.5v7.1ZM129.5,299.4v1.2c0,.5.3.7.9.7h5.2c.5,0,.8-.2.8-.7v-1.2c0,0-6.9,0-6.9,0ZM117.8,303.3c-4,0-5.9-1-5.9-3.1s1.6-2.9,5-3.1v-.6c0-.3-.1-.4-.4-.4-1.4,0-3.5,0-4.9-.2-.3,0-.4-.2-.4-.5v-1c0-.3.2-.5.5-.4,1.3.1,3.8.2,6.3.2,3.3,0,5.1,0,6.3-.2.3,0,.5.1.5.4v1c0,.3-.1.5-.4.5-1.4.1-3.7.2-5.5.2.1,0,.2.3.2.4v.6c3.2.2,4.7,1.2,4.7,3s-1.9,3.1-5.9,3.1ZM117.8,291c-.8,1.3-2.9,2.4-5.1,2.2-.3,0-.4-.1-.4-.4v-1c0-.3.1-.4.4-.4,2.4,0,3.9-.9,4.1-2h-3.8c-.3,0-.4-.1-.4-.5v-1c0-.3.1-.5.4-.5h9.7c.3,0,.4.1.4.5v1c0,.3-.1.5-.4.5h-3.8c.1,1.2,1.7,2,4.1,2s.4.1.4.4v1c0,.3-.1.4-.4.4-2.2.1-4.3-1-5.1-2.3ZM117.8,298.9c-2.7,0-3.8.3-3.8,1.2s1.1,1.2,3.8,1.2,3.8-.4,3.8-1.2-1.1-1.2-3.8-1.2ZM103.3,296.1c0,1.6.7,2.5,1.9,2.5s1.9-.8,1.9-2.5-.7-2.4-1.9-2.4-1.9.8-1.9,2.4ZM105.1,291.6c2.5,0,3.9,1.6,3.9,4.4s-1.5,4.4-3.9,4.4-3.9-1.6-3.9-4.4,1.5-4.4,3.9-4.4ZM97,295.9c0-.4-.2-.6-.6-.6h-1.2c-.3,0-.5-.1-.5-.5v-1.1c0-.3.1-.5.5-.5h1.1c.4,0,.6.1.7.4v-6.2c0-.3.2-.5.5-.5h1.1c.3,0,.5.2.5.5v15c0,.3-.2.5-.5.5h-1.1c-.3,0-.5-.2-.5-.5v-6.6ZM104,288.2v-1.2c0-.3.1-.5.4-.5h1.2c.3,0,.4.1.4.5v1c0,.2-.1.4-.3.5h3.3c.3,0,.4.1.4.5v1.1c0,.3-.1.5-.4.5h-8c-.3,0-.4-.1-.4-.5v-1.1c0-.3.1-.5.4-.5h2.6c.3,0,.4,0,.4-.3ZM91.9,290.8c0,2.1-1.3,3.3-3.7,3.3s-5.3-.1-7.1-.3c-.3,0-.5-.2-.4-.4v-1c0-.3.3-.5.5-.4,2.1.2,4,.3,6.8.3s1.7-.5,1.7-1.5,0-2-.1-2.8c0-.3.1-.5.4-.5h1.1c.3,0,.5.2.5.5,0,.8.1,2.2.1,2.9ZM92.1,300c0,2.1-1.4,3.3-3.8,3.3s-5.6-.1-7.4-.3c-.3,0-.4-.2-.4-.4v-1c0-.3.3-.5.5-.4,2.1.2,4.2.3,7.4.3s1.7-.5,1.7-1.5,0-.9-.1-1.3c0-.3.1-.5.4-.5h1.1c.3,0,.5.2.5.5,0,.4.1.8.1,1.4ZM93.4,295.5v1c0,.3-.1.5-.4.5-1.1.1-3,.2-6.3.2-2.5,0-5.1,0-6.4-.2-.3,0-.5-.2-.5-.5v-1c0-.3.2-.5.5-.4,1.3.1,3.4.2,6.3.2s4.6,0,6.3-.2c.3,0,.5.1.5.4ZM313.4,326.5c-.3,0-.5-.2-.5-.5v-1c0-.3.2-.4.5-.4,1.4.2,3.8.3,6.3.3s4.6-.1,6.3-.3c.3,0,.5.1.5.4v1c0,.3-.1.5-.4.5-1.3.2-3.8.3-5.8.3.3.1.5.4.5.8v2.3c0,.3-.2.5-.5.5h-1.1c-.3,0-.5-.2-.5-.5v-2.5c0-.4-.2-.6-.6-.6-1.5,0-3.5-.1-4.7-.3ZM314.2,316.9c0-1,.7-1.5,2.1-1.5,4.3,0,6.5,0,8,.3.3,0,.4.2.4.4v1c0,.3-.2.4-.4.4-1.9-.3-4.1-.3-6.8-.3s-1.1.2-1.1.6.3.5,1.2.5h2.2c4.2,0,5.3.5,5.3,2.4s-1.2,2.6-6.4,2.6-3-.1-4.5-.4c-.2,0-.4-.2-.3-.5l.2-1c0-.3.2-.4.4-.3,1.3.2,2.8.3,4.3.3,3.5,0,4.3,0,4.3-.7s-.6-.7-3.3-.7-3.2,0-4.9,0-.4-.2-.4-.4v-.8c0-.3.1-.4.4-.4h.8c-.9-.3-1.3-.8-1.3-1.7ZM300.6,325.6c0,.3-.2.5-.5.5h-1.1c-.3,0-.5-.2-.5-.5v-10.1c0-.3.2-.5.5-.5h1.1c.3,0,.5.2.5.5v10.1ZM302.4,323.2l.2-.9c0-.3.2-.4.6-.3,1.1.3,2,.4,3,.4,1.9,0,2.6-.4,2.6-1.2s-.7-1.1-3-1.1-1.5,0-2.1.1c-.3,0-.5,0-.5-.4v-.9c0-.3.1-.5.4-.5.7-.1,1.4-.2,2.3-.2,3.7,0,5,.9,5,3.1s-1.3,3-4.6,3-2.3-.2-3.5-.5c-.3-.1-.5-.3-.4-.6ZM303.4,317.3c-.3,0-.4-.1-.4-.5v-.9c0-.3.1-.4.4-.4h6.9c.3,0,.5.1.5.4v.9c0,.3-.1.5-.5.5h-6.9ZM309.5,327.9c0,2.1-1.5,3.3-4,3.3s-5.3-.1-7.1-.3c-.3,0-.5-.2-.4-.4v-1c0-.3.3-.5.5-.4,2.1.2,3.9.3,7.1.3s1.8-.6,1.8-1.7,0-1-.1-1.4c0-.3.2-.5.5-.5h1.1c.3,0,.5.2.5.5,0,.5.1,1,.1,1.6ZM289,316.9c-2.7,0-3.5.3-3.5,1.1s.8,1.1,3.5,1.1,3.5-.3,3.5-1.1-.8-1.1-3.5-1.1ZM283,330.5v-.8c0-.3.2-.4.5-.4,1.3.2,3.4.3,4.8.3,3.7,0,4.4,0,4.4-.6s-.4-.6-3.4-.6-4.2,0-5.3,0c-.3,0-.4-.1-.4-.4v-.7c0-.3.1-.4.4-.4h.6c-.7-.2-1.2-.8-1.2-1.5s.4-1.3,1.7-1.3c2.3,0,6.2,0,8.9.2.3,0,.4.1.4.4v.8c0,.3-.1.4-.4.4-2-.1-5.9-.3-7.7-.3s-.8.2-.8.6.2.5.9.5c.9,0,2,0,3,0,4.3,0,5.4.5,5.4,2.2s-1.2,2.3-6.5,2.3-3.5-.1-4.9-.3c-.3,0-.4-.2-.4-.4ZM289.1,321.6c2.1,0,4.6,0,6.3-.2.3,0,.5.1.5.4v.9c0,.3-.1.4-.4.4-1.1.1-3.1.2-6.4.2-2.5,0-5.1,0-6.4-.2-.3,0-.4-.2-.4-.5v-.9c0-.3.2-.4.5-.4,1.4.1,3.4.2,6.4.2ZM289,320.8c-4,0-5.6-.8-5.6-2.8s1.6-2.8,5.6-2.8,5.6.8,5.6,2.8-1.6,2.8-5.6,2.8ZM269.6,326.4v.2c0,1.5,1.8,2.6,4.2,2.6s.4.1.4.4v1c0,.3-.1.4-.4.5-2,.1-4.3-.9-5.2-2.3-.8,1.4-3.2,2.4-5.2,2.3-.3,0-.5-.1-.5-.5v-1c0-.3.1-.4.5-.4,2.4,0,4.1-1.1,4.1-2.6v-.2s-3.9,0-3.9,0c-.3,0-.4-.1-.4-.5v-1c0-.3.1-.5.4-.5h9.8c.3,0,.5.1.5.5v1c0,.3-.1.5-.5.5h-3.9ZM270.2,315.6v-.9c0-.3.1-.4.4-.4h1.2c.3,0,.5.1.5.4v.7c0,.2-.1.4-.3.5h3c.3,0,.5.1.5.5v1c0,.3-.1.5-.5.5h-2.6s0,.2,0,.2c0,1.9,1.2,3.3,2.7,3.3s.4.1.4.5v1c0,.3-.1.5-.4.5-1.9,0-3.3-1.2-3.8-2.6-.5,1.4-1.9,2.6-3.8,2.6s-.5-.1-.5-.5v-1c0-.3.1-.5.5-.5,1.6,0,2.7-1.4,2.7-3.3v-.2s-2.7,0-2.7,0c-.3,0-.5-.1-.5-.5v-1c0-.3.1-.5.5-.5h2.2c.3,0,.4,0,.4-.3ZM263.2,320.4c0-.4-.2-.6-.6-.6h-1.2c-.3,0-.4-.1-.4-.4v-1c0-.3.1-.4.4-.4h1.1c.4,0,.6.1.7.4v-2.8c0-.3.2-.5.5-.5h1.1c.3,0,.5.2.5.5v7.2c0,.3-.2.5-.5.5h-1.1c-.3,0-.5-.2-.5-.5v-2.4ZM253.7,322.4c0,3.2.6,4.5,2,4.5s2-1.3,2-4.5-.6-4.5-2-4.5-2,1.3-2,4.5ZM255.7,316c2.8,0,4,2,4,6.4s-1.3,6.5-4,6.5-4.1-2-4.1-6.5,1.2-6.4,4.1-6.4ZM247.5,323.9c0-.4-.2-.6-.6-.6h-1.2c-.3,0-.4-.1-.4-.5v-1.1c0-.3.1-.5.4-.5h1.1c.4,0,.6.1.7.4v-6.2c0-.3.2-.5.5-.5h1.1c.3,0,.5.2.5.5v15c0,.3-.2.5-.5.5h-1.1c-.3,0-.5-.2-.5-.5v-6.6ZM230.7,327.4l.3-1c0-.3.2-.4.3-.4s.1,0,.2,0c1,.5,1.9.7,2.7.7,1.8,0,2.5-.8,2.5-3s-.1-4.6-.4-7c0-.3.1-.5.5-.5h1.1c.3,0,.5.1.5.4.3,2.2.4,4.2.4,6.9s-1.5,5.2-4.4,5.2-2.1-.2-3.3-.7c-.4-.1-.5-.3-.4-.6ZM226.8,323.9c0-.4-.2-.6-.6-.6h-1.2c-.3,0-.5-.1-.5-.5v-1.1c0-.3.1-.5.5-.5h1.1c.4,0,.6.1.7.4v-6.2c0-.3.2-.5.5-.5h1.1c.3,0,.5.2.5.5v15c0,.3-.2.5-.5.5h-1.1c-.3,0-.5-.2-.5-.5v-6.6ZM215.3,320c0-2.8,1-3.9,3.5-3.9s2.6.1,3.9.3c.3,0,.4.2.4.5v1c0,.3-.2.5-.5.5-1.2-.2-2.2-.3-3.5-.3s-1.8.5-1.8,2.1c0,2.6.2,5.2.7,7.8,0,.3-.1.5-.4.5h-1.2c-.3,0-.4-.1-.5-.4-.4-2.6-.7-5.2-.7-8.1ZM211.2,323.9c0-.4-.2-.6-.6-.6h-1.2c-.3,0-.4-.1-.4-.5v-1.1c0-.3.1-.5.4-.5h1.1c.4,0,.6.1.7.4v-6.2c0-.3.2-.5.5-.5h1.1c.3,0,.5.2.5.5v15c0,.3-.2.5-.5.5h-1.1c-.3,0-.5-.2-.5-.5v-6.6ZM206,318.8c0,2.1-1.3,3.3-3.7,3.3s-5.3-.1-7.1-.3c-.3,0-.4-.2-.4-.4v-1c0-.3.3-.5.5-.4,2.1.2,4,.3,6.8.3s1.7-.5,1.7-1.5,0-2-.1-2.8c0-.3.1-.5.4-.5h1.1c.3,0,.5.2.5.5,0,.8.1,2.2.1,2.9ZM206.3,328c0,2.1-1.4,3.3-3.8,3.3s-5.6-.1-7.4-.3c-.3,0-.4-.2-.4-.4v-1c0-.3.3-.5.5-.4,2.1.2,4.2.3,7.4.3s1.7-.5,1.7-1.5,0-.9-.1-1.3c0-.3.1-.5.4-.5h1.1c.3,0,.5.2.5.5,0,.4.1.8.1,1.4ZM207.5,323.5v1c0,.3-.1.5-.4.5-1.1.1-3,.2-6.3.2-2.5,0-5.1,0-6.4-.2-.3,0-.4-.2-.4-.5v-1c0-.3.2-.5.5-.4,1.3.1,3.4.2,6.3.2s4.6,0,6.3-.2c.3,0,.5.1.5.4ZM184.8,325c0-1.3-.8-1.8-2.9-1.8s-1.5,0-2.5,0-.4-.1-.4-.4v-1c0-.3.1-.4.4-.4h.6c-.7-.6-1.1-1.5-1.1-2.6,0-1.7,1.1-2.6,3.3-2.6s2.4,0,3.7.2c.3,0,.4.2.4.4v1.2c0,.3-.2.4-.4.4-1.4-.2-2.5-.3-3.2-.3-1.2,0-1.7.5-1.7,1.6s.5,1.6,1.6,1.6c2.9,0,4.3,1.2,4.3,3.6s-1.4,3.8-4.3,3.8-2.5-.2-3.9-.7c-.3-.1-.4-.3-.3-.6l.3-1.1c0-.2.2-.3.3-.3s.1,0,.2,0c1,.4,2.1.7,3,.7,1.9,0,2.6-.5,2.6-1.8ZM174.8,323.9c0-.4-.2-.6-.6-.6h-1.2c-.3,0-.4-.1-.4-.5v-1.1c0-.3.1-.5.4-.5h1.1c.4,0,.6.1.7.4v-6.2c0-.3.2-.5.5-.5h1.1c.3,0,.5.2.5.5v15c0,.3-.2.5-.5.5h-1.1c-.3,0-.5-.2-.5-.5v-6.6ZM167.3,316c2.8,0,4,2,4,6.4,0,4.4-1.3,6.5-4,6.5s-4.1-2-4.1-6.5c0-4.5,1.2-6.4,4.1-6.4ZM165.3,322.4c0,3.2.6,4.5,2,4.5s2-1.3,2-4.5-.6-4.5-2-4.5-2,1.3-2,4.5ZM160.8,330.5c0,.3-.2.5-.5.5h-1.1c-.3,0-.5-.2-.5-.5v-15c0-.3.2-.5.5-.5h1.1c.3,0,.5.2.5.5v15ZM153.4,317.9l-.4,4.9c.7,0,1.3,0,1.7-.1.3,0,.4.1.4.4v1.2c0,.3-.1.4-.4.4-1,.1-2.9.2-5.3.2s-4.3-.1-5.3-.2c-.3,0-.4-.2-.4-.4v-1.2c0-.3.2-.4.5-.4.4,0,1,0,1.7.1l-.4-4.9h-1c-.3,0-.4-.1-.4-.5v-1c0-.3.1-.4.4-.4h10c.3,0,.5.1.5.4v1c0,.3-.1.5-.5.5h-1ZM156.2,327.8v1c0,.3-.1.4-.4.5-1.4.2-3.5.3-6.3.3s-5.1-.1-6.4-.3c-.3,0-.4-.2-.4-.5v-1c0-.3.2-.5.5-.4,1.4.2,3.8.3,6.3.3s4.6-.1,6.3-.3c.3,0,.5.1.5.4ZM150.8,322.9l.4-5h-3.9s.4,5,.4,5c.5,0,1,0,1.5,0s1,0,1.5,0ZM128.7,324.7c-.3,0-.6,0-.6-.5v-1.1c0-.3.1-.4.4-.4,2.4,0,4.1-1.6,4.1-3.8v-2.5c0-.3.2-.5.5-.5h1.1c.3,0,.5.2.5.5v2.5c0,2.2,1.7,3.8,4.1,3.8s.4.1.4.4v1.1c0,.5-.3.5-.6.5-2.1,0-4.2-1.2-4.9-3-.8,1.8-2.8,3-4.9,3ZM140.5,327.8v1c0,.3-.1.4-.4.5-1.4.2-3.5.3-6.3.3s-5.1-.1-6.4-.3c-.3,0-.4-.2-.4-.5v-1c0-.3.2-.5.5-.4,1.4.2,3.8.3,6.3.3s4.6-.1,6.3-.3c.3,0,.5.1.5.4ZM116.4,327.4l.3-1c0-.2.2-.3.4-.3s.1,0,.2,0c1.1.4,2.1.6,2.8.6,1.7,0,2.7-.9,2.7-2.5s-1-2.6-3.1-2.6-1.3,0-2,.1c-.3,0-.5-.1-.5-.4v-1c0-.3.1-.5.4-.5.6-.1,1.4-.2,2.3-.2,3.3,0,4.9,1.5,4.9,4.6s-1.7,4.5-4.5,4.5-2.6-.3-3.7-.7c-.3-.1-.4-.3-.3-.6ZM112.9,323.9c0-.4-.2-.6-.6-.6h-1.2c-.3,0-.5-.1-.5-.5v-1.1c0-.3.1-.5.5-.5h1.1c.4,0,.6.1.7.4v-6.2c0-.3.2-.5.5-.5h1.1c.3,0,.5.2.5.5v15c0,.3-.2.5-.5.5h-1.1c-.3,0-.5-.2-.5-.5v-6.6ZM117.4,318.1c-.3,0-.4-.1-.4-.4v-1.1c0-.3.1-.4.4-.4h6.9c.3,0,.4.1.4.4v1.1c0,.3-.1.4-.4.4h-6.9ZM105.4,321c1.2,0,2-.8,2-2s-.8-1.9-2-1.9-2,.7-2,1.9.8,2,2,2ZM96.4,330.5v-.9c0-.3.2-.4.5-.4,1.4.2,3.4.3,4.6.3,3.7,0,4.5,0,4.5-.7s-.5-.7-3.5-.7-3.9,0-5.2,0c-.3,0-.4-.1-.4-.4v-.8c0-.3.1-.4.4-.4h.6c-.7-.3-1.2-.9-1.2-1.6s.5-1.4,1.6-1.4c2.3,0,6.2,0,8.9.2.3,0,.4.1.4.4v.9c0,.3-.1.4-.4.4-2-.1-5.8-.3-7.6-.3s-.9.2-.9.6.3.6.9.6c1,0,1.9,0,2.8,0,4.2,0,5.5.5,5.5,2.3s-1.4,2.4-6.6,2.4-3.3-.1-4.8-.3c-.3,0-.4-.2-.4-.4ZM105.4,315.3c2.5,0,4,1.5,4,3.7s-1.6,3.8-4,3.8-4.1-1.5-4.1-3.8,1.6-3.7,4.1-3.7ZM98.9,322.2c0,.3-.2.5-.5.5h-1.1c-.3,0-.5-.2-.5-.5v-6.7c0-.3.2-.5.5-.5h1.1c.3,0,.5.2.5.5v6.7ZM90.4,316c2.8,0,4,2,4,6.4,0,4.4-1.3,6.5-4,6.5s-4.1-2-4.1-6.5c0-4.5,1.2-6.4,4.1-6.4ZM88.5,322.4c0,3.2.6,4.5,2,4.5s2-1.3,2-4.5-.6-4.5-2-4.5-2,1.3-2,4.5ZM84,330.5c0,.3-.2.5-.5.5h-1.1c-.3,0-.5-.2-.5-.5v-15c0-.3.2-.5.5-.5h1.1c.3,0,.5.2.5.5v15ZM68.6,322.1v3.7c.1.5.4.7.9.7h1.9c.5,0,.8-.2.8-.7v-3.7c.1,0-3.5,0-3.5,0ZM66.9,316.2h1.1c.3,0,.5.2.5.4v3.5c0,0,3.9,0,3.9,0v-3.5c0-.3.3-.4.6-.4h1.1c.3,0,.5.2.5.5l-.3,9.9c0,1.2-.8,1.9-2.2,1.9h-3.1c-1.4,0-2.2-.7-2.2-1.9l-.3-9.9c0-.3.2-.5.5-.5ZM62.3,323.9c0-.4-.2-.6-.6-.6h-1.2c-.3,0-.5-.1-.5-.5v-1.1c0-.3.1-.5.5-.5h1.1c.4,0,.6.1.7.4v-6.2c0-.3.2-.5.5-.5h1.1c.3,0,.5.2.5.5v15c0,.3-.2.5-.5.5h-1.1c-.3,0-.5-.2-.5-.5v-6.6ZM51.8,329.6c-2.8,0-5.1-.1-6.4-.3-.3,0-.4-.2-.4-.5v-1c0-.3.2-.5.5-.4,1.2.2,3.1.3,4.6.3s.6-.2.6-.6v-2s0,0,0,0c-1.3,0-3.1-.1-4.5-.4-.2,0-.4-.2-.3-.5l.2-1c0-.3.2-.4.4-.3,1.3.2,2.9.3,4.3.3,3.5,0,4.3-.2,4.3-1s-.7-.9-3.3-.9-3.2,0-4.9,0-.4-.2-.4-.4v-.9c0-.3.1-.4.4-.4h.8c-.9-.3-1.4-1-1.4-2s.7-1.7,2.1-1.7c.7,0,1.4,0,2.2,0,2.1,0,4.3.1,5.9.3.3,0,.4.2.4.4v1.1c0,.3-.2.4-.4.4-1.8-.2-4.5-.3-6.8-.3s-1.1.2-1.1.8.4.9,1.2.9h2.2c4.1,0,5.3.6,5.3,2.7s-1,2.7-4.3,2.9v1.9c0,.4-.2.6-.4.8,2,0,4.4-.2,5.7-.3.3,0,.5.1.5.4v1c0,.3-.1.4-.5.5-1.3.2-3.5.3-6.3.3ZM323.9,344.7c0-.7.5-1.2,1.1-1.3-.1-.3-.3-.4-.7-.4s-.2,0-.2-.2v-.4c0-.1,0-.2.2-.2,1.4,0,2.3.9,2.3,2.3s-.5,1.4-1.4,1.4-1.3-.5-1.3-1.3ZM316.2,350.4c0,3.2.6,4.5,2,4.5s2-1.3,2-4.5-.6-4.5-2-4.5-2,1.3-2,4.5ZM318.2,344c2.8,0,4,2,4,6.4s-1.3,6.5-4,6.5-4-2-4-6.5,1.2-6.4,4-6.4ZM310,351.9c0-.4-.2-.6-.6-.6h-1.2c-.3,0-.4-.1-.4-.5v-1.1c0-.3.1-.5.4-.5h1.1c.4,0,.6.1.7.4v-6.2c0-.3.2-.5.5-.5h1.1c.3,0,.5.2.5.5v15c0,.3-.2.5-.5.5h-1.1c-.3,0-.5-.2-.5-.5v-6.6ZM299.5,357.6c-2.8,0-5.1-.1-6.4-.3-.3,0-.4-.2-.4-.5v-1c0-.3.2-.5.5-.4,1.2.2,3.1.3,4.6.3s.6-.2.6-.6v-2.3s-2,0-2,0c-1.3,0-2.2-.7-2.2-1.9l-.3-6.5c0-.3.2-.5.5-.5h1.1c.3,0,.5.2.5.5v1.8c0,0,6.8,0,6.8,0v-1.8c0-.3.3-.5.5-.5h1.1c.3,0,.5.2.5.5l-.3,6.5c0,1.2-.9,1.9-2.2,1.9h-2s0,2.1,0,2.1c0,.4-.2.6-.5.8,2,0,4.4-.2,5.7-.3.3,0,.5.1.5.4v1c0,.3-.1.4-.4.5-1.4.2-3.5.3-6.3.3ZM296.2,348.1v2c0,.5.4.7.9.7h4.9c.5,0,.8-.3.8-.7v-2c0,0-6.6,0-6.6,0ZM284.9,352.1c0,1.6.7,2.5,1.9,2.5s1.9-.8,1.9-2.5-.7-2.4-1.9-2.4-1.9.8-1.9,2.4ZM286.8,347.6c2.5,0,3.9,1.6,3.9,4.4s-1.5,4.4-3.9,4.4-3.9-1.6-3.9-4.4,1.5-4.4,3.9-4.4ZM278.7,351.9c0-.4-.2-.6-.6-.6h-1.2c-.3,0-.5-.1-.5-.5v-1.1c0-.3.1-.5.5-.5h1.1c.4,0,.6.1.7.4v-6.2c0-.3.2-.5.5-.5h1.1c.3,0,.5.2.5.5v15c0,.3-.2.5-.5.5h-1.1c-.3,0-.5-.2-.5-.5v-6.6ZM285.7,344.2v-1.2c0-.3.1-.5.5-.5h1.2c.3,0,.4.1.4.5v1c0,.2-.1.4-.3.5h3.3c.3,0,.5.1.5.5v1.1c0,.3-.1.5-.5.5h-8c-.3,0-.4-.1-.4-.5v-1.1c0-.3.1-.5.4-.5h2.6c.3,0,.4,0,.4-.3ZM275.1,343.5c0,.7-.4,1.2-1.1,1.3.1.3.3.4.7.4s.2,0,.2.2v.4c0,.1,0,.2-.2.2-1.4,0-2.3-.9-2.3-2.3s.5-1.4,1.4-1.4,1.3.5,1.3,1.3ZM266.7,344c2.8,0,4,2,4,6.4s-1.3,6.5-4,6.5-4.1-2-4.1-6.5,1.2-6.4,4.1-6.4ZM264.7,350.4c0,3.2.6,4.5,2,4.5s2-1.3,2-4.5-.6-4.5-2-4.5-2,1.3-2,4.5ZM260.2,358.5c0,.3-.2.5-.5.5h-1.1c-.3,0-.5-.2-.5-.5v-15c0-.3.2-.5.5-.5h1.1c.3,0,.5.2.5.5v15ZM250.5,346.1c-.9,0-1.5,0-2.3.2-.3,0-.5-.1-.5-.5v-1.1c0-.3.1-.4.5-.5.7-.1,1.4-.1,2.4-.1,3.4,0,5,1.9,5,6.3s-1.6,6.3-4.9,6.3-2.2-.3-3.3-.7c-.4-.1-.5-.3-.4-.6l.3-1c0-.3.2-.4.3-.4s.1,0,.2,0c1.1.5,2,.7,2.7.7,2,0,2.9-1.4,2.9-4.3s-.8-4.3-3.1-4.3ZM243.5,351.9c0-.4-.2-.6-.6-.6h-1.2c-.3,0-.5-.1-.5-.5v-1.1c0-.3.1-.5.5-.5h1.1c.4,0,.6.1.7.4v-6.2c0-.3.2-.5.5-.5h1.1c.3,0,.5.2.5.5v15c0,.3-.2.5-.5.5h-1.1c-.3,0-.5-.2-.5-.5v-6.6ZM238.5,359.4c-.8,0-1.4-.5-1.4-1.3s.6-1.3,1.4-1.3,1.3.5,1.3,1.3-.6,1.3-1.3,1.3Z"/>
</svg>