<?xml version="1.0" encoding="UTF-8"?>
<svg id="_레이어_1" data-name="레이어_1" xmlns="http://www.w3.org/2000/svg" version="1.1" viewBox="0 0 472 472">
  <!-- Generator: Adobe Illustrator 29.0.1, SVG Export Plug-In . SVG Version: 2.1.0 Build 192)  -->
  <defs>
    <style>
      .st0 {
        fill: #e06644;
      }

      .st1 {
        fill: #f7dd79;
      }
    </style>
  </defs>
  <rect class="st0" y="0" width="472" height="472" rx="16" ry="16"/>
  <path class="st1" d="M437.4,41.4c1.1,0,1.8-.7,1.8-1.9s-.7-1.8-1.8-1.8-1.8.7-1.8,1.8.7,1.9,1.8,1.9ZM428.8,50.3v-.9c0-.3.2-.4.5-.3,1.4.2,3.2.3,4.4.3,3.5,0,4.2,0,4.2-.6s-.5-.6-3.3-.6-3.7,0-4.9,0c-.3,0-.4-.1-.4-.4v-.8c0-.3.1-.4.4-.4h.6c-.7-.2-1.1-.8-1.1-1.5s.5-1.3,1.5-1.4c2.2,0,5.9,0,8.4.2.3,0,.4.1.4.4v.8c0,.3-.1.4-.4.4-1.9-.1-5.5-.2-7.2-.2s-.8.2-.8.6.3.5.9.5c.9,0,1.8,0,2.7,0,3.9,0,5.2.5,5.2,2.2s-1.3,2.3-6.2,2.3-3.1-.1-4.5-.3c-.3,0-.4-.2-.4-.4ZM437.4,36c2.3,0,3.7,1.4,3.7,3.5s-1.5,3.6-3.7,3.6-3.7-1.4-3.7-3.6,1.5-3.5,3.7-3.5ZM431.2,37.8c0,.4.2.5.6.5h.9c.3,0,.4.1.4.4v.9c0,.3-.1.4-.4.4h-.8c-.3,0-.6-.1-.7-.3v2.7c0,.3-.2.5-.4.5h-1.1c-.3,0-.4-.2-.4-.5v-6.3c0-.3.2-.5.4-.5h1.1c.3,0,.4.2.4.5v1.6ZM417.4,41c.9,0,2,0,3,0,3.1,0,4.9,0,6-.2.3,0,.4.1.4.4v.8c0,.3-.1.4-.4.4-1.3.1-3.6.2-5.3.2.1,0,.2.2.2.4v.8c1.3,0,2.5.1,3.6.2.3,0,.4.1.4.4v.9c0,.3-.1.4-.4.4-1.9-.1-5.5-.2-7.2-.2s-.8.2-.8.6.2.5.9.5c.9,0,1.9,0,2.8,0,4,0,5.1.6,5.1,2.2s-1.2,2.3-6.1,2.3-3.3-.1-4.6-.3c-.3,0-.4-.2-.3-.4v-.9c0-.3.2-.4.5-.3,1.3.2,3.2.3,4.5.3,3.5,0,4.1,0,4.1-.6s-.4-.6-3.2-.6-4,0-5,0c-.2,0-.4-.1-.4-.4v-.8c0-.3.1-.4.4-.4h.6c-.7-.2-1.1-.8-1.1-1.5s.4-1.3,1.6-1.4c.8,0,1.8,0,2.9,0v-.8c0-.3-.1-.4-.4-.4-1.3,0-3.4,0-4.6-.2-.3,0-.4-.2-.4-.4v-.8c0-.3.2-.4.4-.4.3,0,.6,0,1,0-.1-.6-.2-1.2-.2-2,0-2,1.1-2.9,3.5-2.9s4.4.1,6.3.3c.3,0,.4.2.4.4v1c0,.3-.2.4-.4.4-2.1-.2-3.9-.3-6.1-.3s-1.7.4-1.7,1.6.1,1,.2,1.5ZM405.5,37.5c-2.5,0-3.3.3-3.3,1.1s.8,1.1,3.3,1.1,3.3-.3,3.3-1.1-.8-1.1-3.3-1.1ZM399.8,50.3v-.8c0-.3.2-.4.5-.3,1.3.2,3.2.3,4.5.3,3.5,0,4.1,0,4.1-.6s-.4-.6-3.2-.6-4,0-5,0c-.2,0-.4-.1-.4-.4v-.7c0-.3.1-.4.4-.4h.6c-.7-.2-1.1-.8-1.1-1.4s.4-1.2,1.6-1.2c2.2,0,5.8,0,8.4.2.3,0,.4.1.4.4v.8c0,.3-.1.4-.4.4-1.9-.1-5.5-.2-7.2-.2s-.8.2-.8.5.2.5.8.5c.9,0,1.9,0,2.8,0,4,0,5.1.5,5.1,2.1s-1.2,2.2-6.1,2.2-3.3-.1-4.6-.3c-.3,0-.4-.2-.3-.4ZM405.6,41.9c2,0,4.4,0,6-.2.3,0,.4.1.4.4v.8c0,.3-.1.4-.4.4-1,.1-2.9.2-6,.2-2.4,0-4.8,0-6.1-.2-.3,0-.4-.2-.4-.4v-.8c0-.3.2-.4.4-.4,1.3.1,3.2.2,6,.2ZM405.5,41.2c-3.8,0-5.3-.7-5.3-2.6s1.5-2.6,5.3-2.6,5.3.7,5.3,2.6-1.5,2.6-5.3,2.6ZM391.2,47.9c0,2-1.4,3.2-3.7,3.2s-5-.1-6.7-.3c-.3,0-.4-.2-.4-.4v-.9c0-.3.2-.4.5-.4,2,.2,3.7.3,6.7.3s1.7-.5,1.7-1.6,0-1.3-.1-1.7c0-.3.2-.5.4-.5h1c.3,0,.4.2.5.4,0,.4.1,1.2.1,1.9ZM382.8,45.8c0,.3-.2.5-.4.5h-1.1c-.3,0-.4-.2-.4-.5v-9.6c0-.3.2-.5.4-.5h1.1c.3,0,.4.2.4.5v9.6ZM388.9,36c2.3,0,3.8,1.6,3.8,4.1s-1.5,4.1-3.8,4.1-3.8-1.6-3.8-4.1,1.5-4.1,3.8-4.1ZM388.9,42.5c1.1,0,1.9-.9,1.9-2.4s-.7-2.3-1.9-2.3-1.9.9-1.9,2.3.7,2.4,1.9,2.4ZM366.8,47.8c0-1.9,1-2.7,3.3-2.7s5,.1,6.8.3c.3,0,.4.2.4.4v.9c0,.3-.1.4-.4.4-2.1-.2-4.1-.3-6.6-.3s-1.6.3-1.6,1.4,0,1.6,0,2.2c0,.3-.2.5-.4.5h-1c-.3,0-.5-.2-.5-.4,0-.6,0-1.5,0-2.7ZM374.1,36.1h1.1c.3,0,.4.2.4.5v2c0,1.9,1.1,3.3,2.6,3.3s.4.1.4.4v.9c0,.3-.1.4-.4.4-1.8,0-3.1-1.2-3.6-2.5-.5,1.3-1.8,2.5-3.6,2.5s-.4-.1-.4-.4v-.9c0-.3.1-.4.4-.4,1.5,0,2.6-1.4,2.6-3.3v-2c0-.3.2-.5.4-.5ZM368.7,43.4c0,.3-.2.5-.4.5h-1.1c-.3,0-.4-.2-.4-.5v-7.2c0-.3.2-.5.4-.5h1.1c.3,0,.4.2.4.5v7.2ZM351.5,35.7h1c.3,0,.4.1.4.4v5.5s1,0,1,0c.2,0,.5.1.6.3v-5.7c0-.3.1-.4.4-.4h1c.3,0,.4.1.4.4v14c0,.3-.1.4-.4.4h-1c-.3,0-.4-.1-.4-.4v-6.4c0-.3-.1-.5-.5-.5h-1s0,6.8,0,6.8c0,.3-.1.4-.4.4h-1c-.3,0-.4-.1-.4-.4v-14.2c0-.3.1-.4.4-.4ZM361.3,40.1c2.1,0,3.2,1.5,3.2,4.2s-1.1,4.2-3.2,4.2-3.2-1.5-3.2-4.2,1.1-4.2,3.2-4.2ZM360.3,36.8v-1.1c0-.3.1-.4.4-.4h1c.3,0,.4.1.4.4v.9c0,.2-.1.4-.3.5h2.6c.3,0,.4.1.4.4v1c0,.3-.1.4-.4.4h-6.6c-.3,0-.4-.1-.4-.4v-1c0-.3.1-.4.4-.4h2c.3,0,.4,0,.4-.3ZM359.9,44.3c0,1.6.4,2.3,1.3,2.3s1.3-.8,1.3-2.3-.4-2.3-1.3-2.3-1.3.8-1.3,2.3ZM336.7,48.5c-.3,0-.4-.1-.4-.4v-1c0-.3.1-.4.4-.5,1.4-.2,2.6-1.9,2.6-3.9v-5.5c0-.3.2-.5.4-.5h1.1c.3,0,.4.2.4.5v5.5c0,2,1.2,3.7,2.6,3.9.3,0,.4.2.4.5v1c0,.3-.1.4-.4.4-1.6-.2-3.1-1.5-3.6-3.1-.4,1.6-1.9,2.9-3.6,3.1ZM332.6,44.1c0-.4-.2-.5-.6-.5h-1.1c-.3,0-.4-.1-.4-.4v-1c0-.3.1-.4.4-.4h1c.3,0,.6.1.7.3v-5.8c0-.3.2-.5.4-.5h1.1c.3,0,.4.2.4.5v14.1c0,.3-.2.5-.4.5h-1.1c-.3,0-.4-.2-.4-.5v-6.2ZM325.9,38.9c0-.8-.9-1.2-3.3-1.2s-3.3.3-3.3,1.2.9,1.2,3.3,1.2,3.3-.3,3.3-1.2ZM321,42.2c0,.3-.1.5-.4.6,1.2,0,2.7,0,3.4,0,.3,0,.4-.1.4-.4v-.8c-.5,0-1.2.1-1.9.1s-1.1,0-1.6,0v.5ZM322.6,47c-2.6,0-3.6.3-3.6,1.2s1.1,1.2,3.6,1.2,3.6-.3,3.6-1.2-1-1.2-3.6-1.2ZM316.8,42.6c.6,0,1.3.1,1.9.1s.4-.1.4-.4v-1.1c-1.2-.5-1.7-1.3-1.7-2.4,0-2,1.6-2.9,5.3-2.9s5.3.9,5.3,2.9-.5,1.8-1.5,2.3v1c0,.3-.1.5-.3.6.9,0,1.7,0,2.6-.1.3,0,.5.1.5.4v.9c0,.3-.1.4-.4.5-1,.1-2.9.2-6,.2-2.4,0-4.8,0-6-.2s-.4-.2-.4-.5v-.9c0-.3.2-.4.5-.4ZM322.6,51.1c-3.8,0-5.6-1-5.6-2.9s1.8-2.9,5.6-2.9,5.6.9,5.6,2.9-1.8,2.9-5.6,2.9ZM311.6,38.7v4c0,2,1.2,3.7,2.6,3.9.3,0,.4.2.4.5v1c0,.3-.1.4-.4.4-1.6-.2-3.1-1.5-3.6-3.1-.4,1.6-1.9,2.9-3.6,3.1-.3,0-.4-.1-.4-.4v-1c0-.3.1-.4.4-.5,1.4-.2,2.6-1.9,2.6-3.9v-4s-2.5,0-2.5,0c-.3,0-.4-.1-.4-.4v-1c0-.3.1-.4.4-.4h7c.3,0,.4.1.4.4v1c0,.3-.1.4-.4.4h-2.5ZM303,44.1c0-.4-.2-.5-.6-.5h-1.1c-.3,0-.4-.1-.4-.4v-1c0-.3.1-.4.4-.4h1c.3,0,.6.1.7.3v-5.8c0-.3.2-.5.4-.5h1.1c.3,0,.4.2.4.5v14.1c0,.3-.2.5-.4.5h-1.1c-.3,0-.4-.2-.4-.5v-6.2ZM287.4,50.4v-.7c0-.3.2-.4.4-.3,1.2.2,3.2.3,4.5.3,3.7,0,4.1-.1,4.1-.5s-.4-.5-3.2-.5-4.1,0-5,0c-.2,0-.4-.1-.4-.4v-.8c0-.2.1-.2.4-.2h.6c-.7-.2-1.1-.7-1.1-1.4s.4-1.1,1.6-1.1c2.2,0,5.9,0,8.4.2.3,0,.4.1.4.4v.7c0,.3-.1.4-.4.4-1.8-.1-5.4-.2-7.3-.2s-.8.1-.8.4.2.4.9.4c.9,0,1.9,0,2.8,0,4.1,0,5.1.4,5.1,2s-1,2-6.1,2-3.4-.1-4.6-.3c-.3,0-.3-.1-.3-.4ZM293.2,42.6c2,0,4.4,0,6-.2.3,0,.4.1.4.4v.7c0,.3-.1.4-.4.4-1,.1-2.9.2-6,.2-2.4,0-4.9,0-6.1-.2-.3,0-.4-.2-.4-.4v-.7c0-.3.1-.4.4-.4,1.3.1,3.3.2,6.1.2ZM288.1,39.4v-.7c0-.2.1-.3.3-.3h.7c-.7-.2-1.1-.7-1.1-1.3s.4-1,1.6-1c2.2,0,5.4,0,7.9.2.3,0,.3.1.3.3v.7c0,.2,0,.4-.3.3-1.8-.1-4.9-.2-6.8-.2s-.8,0-.8.4.2.4.8.4c.9,0,1.6,0,2.5,0,3.8,0,4.9.3,4.9,1.8s-1,1.8-5.8,1.8-3.2-.1-4.4-.3c-.3,0-.3-.1-.3-.4v-.7c0-.2.2-.3.4-.3,1.2.2,3,.3,4.3.3,3.4,0,3.9,0,3.9-.5s-.4-.4-2.9-.4-3.9,0-4.8,0c-.2,0-.3,0-.3-.3ZM268.4,47.8c0-1.9,1-2.7,3.3-2.7s5,.1,6.8.3c.3,0,.4.2.4.4v.9c0,.3-.1.4-.4.4-2.1-.2-4.1-.3-6.6-.3s-1.6.3-1.6,1.4,0,1.6,0,2.2c0,.3-.2.5-.4.5h-1c-.3,0-.5-.2-.5-.4,0-.6,0-1.5,0-2.7ZM275.8,36.1h1.1c.3,0,.4.2.4.5v2c0,1.9,1.1,3.3,2.6,3.3s.4.1.4.4v.9c0,.3-.1.4-.4.4-1.8,0-3.1-1.2-3.6-2.5-.5,1.3-1.8,2.5-3.6,2.5s-.4-.1-.4-.4v-.9c0-.3.1-.4.4-.4,1.5,0,2.6-1.4,2.6-3.3v-2c0-.3.2-.5.4-.5ZM270.3,43.4c0,.3-.2.5-.4.5h-1.1c-.3,0-.4-.2-.4-.5v-7.2c0-.3.2-.5.4-.5h1.1c.3,0,.4.2.4.5v7.2ZM260.7,39.3v1.4c0,.4.2.5.6.5h2c.4,0,.5-.1.5-.5v-1.4c0,0-3.2,0-3.2,0ZM253.8,50.3v-.9c0-.3.2-.4.5-.3,1.4.2,3.2.3,4.4.3,3.5,0,4.2,0,4.2-.6s-.5-.6-3.3-.6-3.7,0-4.9,0c-.3,0-.4-.1-.4-.4v-.8c0-.3.1-.4.4-.4h.6c-.7-.2-1.1-.8-1.1-1.5s.5-1.3,1.5-1.4c2.2,0,5.9,0,8.4.2.3,0,.4.1.4.4v.8c0,.3-.1.4-.4.4-1.9-.1-5.5-.2-7.2-.2s-.8.2-.8.6.3.5.9.5c.9,0,1.8,0,2.7,0,3.9,0,5.2.5,5.2,2.2s-1.3,2.3-6.2,2.3-3.1-.1-4.5-.3c-.3,0-.4-.2-.4-.4ZM260.8,42.9c-1.2,0-1.8-.6-1.9-1.6l-.3-4.7c0-.3.2-.5.4-.5h1.1c.3,0,.5.1.5.4v1.1h3.5s0-1.1,0-1.1c0-.3.2-.4.5-.4h1.1c.3,0,.5.2.4.5l-.3,4.7c0,1-.7,1.6-1.9,1.6h-3.2ZM256.2,42.5c0,.3-.2.5-.4.5h-1.1c-.3,0-.4-.2-.4-.5v-6.3c0-.3.2-.5.4-.5h1.1c.3,0,.4.2.4.5v.4c0,.3.1.4.4.4h1c.3,0,.4.1.4.4v.9c0,.3-.1.4-.4.4h-.8c-.3,0-.5-.1-.6-.3v1.3c0,.3.1.4.4.4h1c.3,0,.4.1.4.4v.9c0,.3-.1.4-.4.4h-.8c-.3,0-.5-.1-.6-.3v.9ZM246.3,44.3c0,1.5.7,2.3,1.8,2.3s1.8-.8,1.8-2.3-.6-2.3-1.8-2.3-1.8.8-1.8,2.3ZM248.1,40.1c2.3,0,3.7,1.5,3.7,4.2s-1.4,4.2-3.7,4.2-3.7-1.5-3.7-4.2,1.4-4.2,3.7-4.2ZM240.5,44.1c0-.4-.2-.5-.6-.5h-1.1c-.3,0-.4-.1-.4-.4v-1c0-.3.1-.4.4-.4h1c.3,0,.6.1.7.3v-5.8c0-.3.2-.5.4-.5h1.1c.3,0,.4.2.4.5v14.1c0,.3-.2.5-.4.5h-1.1c-.3,0-.4-.2-.4-.5v-6.2ZM247.1,36.8v-1.1c0-.3.1-.4.4-.4h1.1c.3,0,.4.1.4.4v.9c0,.2-.1.4-.3.5h3.1c.3,0,.4.1.4.4v1c0,.3-.1.4-.4.4h-7.6c-.3,0-.4-.1-.4-.4v-1c0-.3.1-.4.4-.4h2.4c.3,0,.4,0,.4-.3ZM235.6,39.3c0,2-1.2,3.1-3.5,3.1s-5-.1-6.7-.3c-.3,0-.4-.2-.4-.4v-.9c0-.3.2-.4.5-.4,2,.2,3.8.3,6.4.3s1.6-.4,1.6-1.4,0-1.9-.1-2.6c0-.3.1-.5.4-.5h1c.3,0,.5.2.5.4,0,.8.1,2.1.1,2.7ZM235.8,48c0,2-1.3,3.1-3.6,3.1s-5.3-.1-7-.3c-.3,0-.4-.2-.4-.4v-.9c0-.3.2-.4.5-.4,2,.2,3.9.3,7,.3s1.6-.4,1.6-1.4,0-.8-.1-1.2c0-.3.1-.5.4-.5h1c.3,0,.5.2.5.4,0,.3.1.8.1,1.3ZM237,43.8v.9c0,.3-.1.4-.4.5-1,.1-2.9.2-6,.2-2.4,0-4.8,0-6-.2-.3,0-.4-.2-.4-.5v-.9c0-.3.2-.4.5-.4,1.3.1,3.2.2,6,.2s4.4,0,5.9-.2c.3,0,.5.1.5.4ZM215,37.3c0-.6.4-1.1,1-1.2-.1-.3-.3-.4-.7-.4s-.2,0-.2-.2v-.4c0-.1,0-.2.2-.2,1.3,0,2.2.8,2.2,2.2s-.5,1.4-1.3,1.4-1.3-.5-1.3-1.2ZM209.6,41.4c1.1,0,1.8-.7,1.8-1.9s-.7-1.8-1.8-1.8-1.8.7-1.8,1.8.7,1.9,1.8,1.9ZM201,50.3v-.9c0-.3.2-.4.5-.3,1.4.2,3.2.3,4.4.3,3.5,0,4.2,0,4.2-.6s-.5-.6-3.3-.6-3.7,0-4.9,0c-.3,0-.4-.1-.4-.4v-.8c0-.3.1-.4.4-.4h.6c-.7-.2-1.1-.8-1.1-1.5s.5-1.3,1.5-1.4c2.2,0,5.9,0,8.4.2.3,0,.4.1.4.4v.8c0,.3-.1.4-.4.4-1.9-.1-5.5-.2-7.2-.2s-.8.2-.8.6.3.5.9.5c.9,0,1.8,0,2.7,0,3.9,0,5.2.5,5.2,2.2s-1.3,2.3-6.2,2.3-3.1-.1-4.5-.3c-.3,0-.4-.2-.4-.4ZM209.6,36c2.3,0,3.7,1.4,3.7,3.5s-1.5,3.6-3.7,3.6-3.7-1.4-3.7-3.6,1.5-3.5,3.7-3.5ZM203.5,37.8c0,.4.2.5.6.5h.9c.3,0,.4.1.4.4v.9c0,.3-.1.4-.4.4h-.8c-.3,0-.6-.1-.7-.3v2.7c0,.3-.2.5-.4.5h-1.1c-.3,0-.4-.2-.4-.5v-6.3c0-.3.2-.5.4-.5h1.1c.3,0,.4.2.4.5v1.6ZM189.7,41c.9,0,2,0,3,0,3.1,0,4.9,0,6-.2.3,0,.4.1.4.4v.8c0,.3-.1.4-.4.4-1.3.1-3.6.2-5.3.2.1,0,.2.2.2.4v.8c1.3,0,2.5.1,3.6.2.3,0,.4.1.4.4v.9c0,.3-.1.4-.4.4-1.9-.1-5.5-.2-7.2-.2s-.8.2-.8.6.2.5.9.5c.9,0,1.9,0,2.8,0,4,0,5.1.6,5.1,2.2s-1.2,2.3-6.1,2.3-3.3-.1-4.6-.3c-.3,0-.4-.2-.3-.4v-.9c0-.3.2-.4.5-.3,1.3.2,3.2.3,4.5.3,3.5,0,4.1,0,4.1-.6s-.4-.6-3.2-.6-4,0-5,0c-.2,0-.4-.1-.4-.4v-.8c0-.3.1-.4.4-.4h.6c-.7-.2-1.1-.8-1.1-1.5s.4-1.3,1.6-1.4c.8,0,1.8,0,2.9,0v-.8c0-.3-.1-.4-.4-.4-1.3,0-3.4,0-4.6-.2-.3,0-.4-.2-.4-.4v-.8c0-.3.2-.4.4-.4s.6,0,1,0c-.1-.6-.2-1.2-.2-2,0-2,1.1-2.9,3.5-2.9s4.4.1,6.3.3c.3,0,.4.2.4.4v1c0,.3-.2.4-.4.4-2.1-.2-3.9-.3-6.1-.3s-1.7.4-1.7,1.6.1,1,.2,1.5ZM178.2,47.9c0,2-1.4,3.2-3.7,3.2s-5-.1-6.7-.3c-.3,0-.4-.2-.4-.4v-.9c0-.3.2-.4.5-.4,2,.2,3.7.3,6.7.3s1.7-.5,1.7-1.6,0-1.3-.1-1.7c0-.3.2-.5.4-.5h1c.3,0,.4.2.5.4,0,.4.1,1.2.1,1.9ZM169.8,45.8c0,.3-.2.5-.4.5h-1.1c-.3,0-.4-.2-.4-.5v-9.6c0-.3.2-.5.4-.5h1.1c.3,0,.4.2.4.5v9.6ZM175.9,36c2.3,0,3.8,1.6,3.8,4.1s-1.5,4.1-3.8,4.1-3.8-1.6-3.8-4.1,1.5-4.1,3.8-4.1ZM175.9,42.5c1.1,0,1.9-.9,1.9-2.4s-.7-2.3-1.9-2.3-1.9.9-1.9,2.3.7,2.4,1.9,2.4ZM153.8,47.8c0-1.9,1-2.7,3.3-2.7s5,.1,6.8.3c.3,0,.4.2.4.4v.9c0,.3-.1.4-.4.4-2.1-.2-4.1-.3-6.6-.3s-1.6.3-1.6,1.4,0,1.6,0,2.2c0,.3-.2.5-.4.5h-1c-.3,0-.5-.2-.5-.4,0-.6,0-1.5,0-2.7ZM161.2,36.1h1.1c.3,0,.4.2.4.5v2c0,1.9,1.1,3.3,2.6,3.3s.4.1.4.4v.9c0,.3-.1.4-.4.4-1.8,0-3.1-1.2-3.6-2.5-.5,1.3-1.8,2.5-3.6,2.5s-.4-.1-.4-.4v-.9c0-.3.1-.4.4-.4,1.5,0,2.6-1.4,2.6-3.3v-2c0-.3.2-.5.4-.5ZM155.7,43.4c0,.3-.2.5-.4.5h-1.1c-.3,0-.4-.2-.4-.5v-7.2c0-.3.2-.5.4-.5h1.1c.3,0,.4.2.4.5v7.2ZM135.1,46.7c0-1.3.7-2,2.1-2h7.5c.5,0,.8.3.8.8v3.9c0,.9-.7,1.5-1.8,1.5h-8.4c-.3,0-.4-.1-.4-.4v-.9c0-.3.1-.4.4-.4h1.2c-.9-.5-1.4-1.4-1.4-2.4ZM143.8,37.9v.5c0,1.8,1.1,3.2,2.6,3.2s.4.1.4.4v.9c0,.3-.1.4-.4.4-1.8,0-3.1-1.1-3.6-2.4-.5,1.3-1.8,2.4-3.6,2.4s-.4-.1-.4-.4v-.9c0-.3.1-.4.4-.4,1.5,0,2.6-1.3,2.6-3.2v-.5s-2.5,0-2.5,0c-.3,0-.4-.1-.4-.4v-.9c0-.3.1-.4.4-.4h7c.3,0,.4.1.4.4v.9c0,.3-.1.4-.4.4h-2.5ZM135.2,40.8c0-.4-.2-.5-.6-.5h-1.1c-.3,0-.4-.1-.4-.4v-.9c0-.3.1-.4.4-.4h1c.3,0,.6.1.7.3v-2.6c0-.3.2-.5.4-.5h1.1c.3,0,.4.2.4.5v6.8c0,.3-.2.5-.4.5h-1.1c-.3,0-.4-.2-.4-.5v-2.2ZM142.8,49.1c.4,0,.7-.2.7-.5v-1.7c0-.3-.2-.4-.4-.4h-4.9c-.8,0-1.1.3-1.1,1.1s.7,1.6,1.5,1.6h4.2ZM119.9,46.7c0-1.2.7-1.9,1.9-1.9h8c.5,0,.7.3.7.8v3.9c0,.9-.6,1.5-1.7,1.5h-8.8c-.3,0-.4-.1-.4-.4v-.9c0-.3.1-.4.4-.4h1.1c-.7-.4-1.3-1.4-1.3-2.4ZM131.7,41.9v.9c0,.3-.1.4-.4.5-1,.1-2.9.2-6,.2-2.4,0-4.8,0-6-.2-.3,0-.4-.2-.4-.5v-.9c0-.3.2-.4.5-.4.3,0,.7,0,1.1,0-.2-.7-.3-1.6-.3-2.5,0-2,1.2-3,3.6-3s4.4.1,6.2.3c.3,0,.4.2.4.4v1c0,.3-.2.4-.4.4-2.1-.2-3.8-.3-6-.3s-1.8.5-1.8,1.7.2,1.4.4,2.1c.8,0,1.8,0,2.8,0,2,0,4.4,0,5.9-.2.3,0,.5.1.5.4ZM128,49.1c.4,0,.6-.2.6-.5v-1.7c0-.3-.1-.4-.4-.4h-5.5c-.6,0-.9.4-.9,1.1s.5,1.5,1.3,1.5h4.9ZM99.4,35.7h1c.3,0,.4.1.4.4v5.5s1,0,1,0c.2,0,.5.1.6.3v-5.7c0-.3.1-.4.4-.4h1c.3,0,.4.1.4.4v14c0,.3-.1.4-.4.4h-1c-.3,0-.4-.1-.4-.4v-6.4c0-.3-.1-.5-.5-.5h-1s0,6.8,0,6.8c0,.3-.1.4-.4.4h-1c-.3,0-.4-.1-.4-.4v-14.2c0-.3.1-.4.4-.4ZM109.2,40.1c2.1,0,3.2,1.5,3.2,4.2s-1.1,4.2-3.2,4.2-3.2-1.5-3.2-4.2,1.1-4.2,3.2-4.2ZM108.2,36.8v-1.1c0-.3.1-.4.4-.4h1c.3,0,.4.1.4.4v.9c0,.2-.1.4-.3.5h2.6c.3,0,.4.1.4.4v1c0,.3-.1.4-.4.4h-6.6c-.3,0-.4-.1-.4-.4v-1c0-.3.1-.4.4-.4h2c.3,0,.4,0,.4-.3ZM107.8,44.3c0,1.6.4,2.3,1.3,2.3s1.3-.8,1.3-2.3-.4-2.3-1.3-2.3-1.3.8-1.3,2.3ZM94.4,38.7v4.5c0,2.1.9,3.2,2.2,3.4.3,0,.4.1.4.4v1c0,.3-.1.5-.4.4-1.5-.2-2.7-1.1-3.1-2.5-.5,1.4-1.7,2.3-3.2,2.5-.3,0-.4-.1-.4-.4v-1c0-.3.1-.4.4-.4,1.3-.2,2.2-1.4,2.2-3.4v-4.5s-2.1,0-2.1,0c-.3,0-.4-.1-.4-.4v-1c0-.3.1-.4.4-.4h6.1c.3,0,.4.1.4.4v1c0,.3-.1.4-.4.4h-2.1ZM90.8,42v1c0,.3-.1.4-.4.4h-1.5c-.2,0-.5-.1-.6-.3v7.3c0,.3-.1.4-.4.4h-1c-.3,0-.4-.1-.4-.4v-14c0-.3.1-.4.4-.4h1c.3,0,.4.1.4.4v4.7c0,.3.1.5.5.5h1.5c.3,0,.4.1.4.4ZM83.9,35.7h1c.3,0,.4.1.4.4v14.2c0,.3-.1.4-.4.4h-1c-.3,0-.4-.1-.4-.4v-14.2c0-.3.1-.4.4-.4ZM81.2,36.2c0,.6-.4,1.1-1,1.2.1.3.3.4.7.4s.2,0,.2.2v.4c0,.1,0,.2-.2.2-1.3,0-2.2-.8-2.2-2.2s.5-1.4,1.3-1.4,1.3.5,1.3,1.2ZM75.5,51.2c-.8,0-1.3-.5-1.3-1.2s.5-1.2,1.3-1.2,1.3.5,1.3,1.2-.5,1.2-1.3,1.2ZM56.6,44.9c-.3,0-.6,0-.6-.4v-1.1c0-.3.1-.4.4-.4,2.3,0,3.8-1.5,3.8-3.6v-2.4c0-.3.2-.5.4-.5h1.1c.3,0,.4.2.4.5v2.4c0,2.1,1.6,3.6,3.8,3.6s.4.1.4.4v1.1c0,.4-.3.4-.6.4-2,0-3.9-1.2-4.7-2.8-.7,1.7-2.6,2.8-4.6,2.8ZM67.8,47.8v.9c0,.3-.1.4-.4.5-1.3.2-3.3.3-6,.3s-4.9-.1-6-.3c-.3,0-.4-.2-.4-.5v-.9c0-.3.2-.4.5-.4,1.3.2,3.6.3,6,.3s4.3-.1,5.9-.3c.3,0,.5.1.5.4ZM50.4,46.6c.4,0,.7-.2.7-.5v-7c0-.3-.2-.4-.4-.4h-1.4c-1.3,0-1.7.9-1.7,3.8s.7,4.2,1.9,4.2h1ZM52.2,36.8c.5,0,.8.3.8.8v9.4c0,.9-.7,1.5-1.8,1.5h-5.2c-.3,0-.4-.1-.4-.4v-1c0-.3.1-.4.4-.4h1.1c-1-1.1-1.6-3.1-1.6-5.6s.8-4.2,3.2-4.2h3.5ZM41.6,44.1c0-.4-.2-.5-.6-.5h-1.1c-.3,0-.4-.1-.4-.4v-1c0-.3.1-.4.4-.4h1c.3,0,.6.1.7.3v-5.8c0-.3.2-.5.4-.5h1.1c.3,0,.4.2.4.5v14.1c0,.3-.2.5-.4.5h-1.1c-.3,0-.4-.2-.4-.5v-6.2ZM434.5,67.5c3.8,0,5.2.8,5.2,2.9s-1.3,3-5.2,3-3.5,0-4.9-.2c-.3,0-.4-.2-.4-.4v-1c.1-.3.3-.4.5-.4,1.2.2,2.7.2,4.7.2s3.3-.3,3.3-1.2-.7-1.1-3.1-1.1-3.1,0-4.7.1c-.3,0-.4-.1-.4-.4v-1c0-.3.1-.4.4-.4,1,0,2.7-.1,4.6-.1ZM430,66.4c-.3,0-.4-.1-.4-.4v-.9c0-.3.1-.4.4-.4h9.2c.3,0,.4.1.4.4v.9c0,.3-.1.4-.4.4h-9.2ZM440.9,75.8v.9c0,.3-.1.4-.4.5-1.3.2-3.3.3-6,.3s-4.9-.1-6-.3c-.3,0-.4-.2-.4-.5v-.9c0-.3.2-.4.5-.4,1.3.2,3.6.3,6,.3s4.3-.1,5.9-.3c.3,0,.5.1.5.4ZM423.4,65.8l-.4,2.8c.7,0,1.2,0,1.6-.1.3,0,.4.1.4.3v1c0,.2-.1.4-.4.4-.8,0-2.2.2-4,.2v.8c0,.2-.1.4-.3.5,1.7,0,3.9,0,5.2-.2.3,0,.5.1.5.4v.9c0,.3-.1.4-.4.5-1,.1-2.9.2-6,.2-2.4,0-4.8,0-6-.2-.3,0-.4-.2-.4-.5v-.9c0-.3.2-.4.5-.4,1.2.1,3.2.2,4.6.1.3,0,.4-.2.4-.4v-.8c-1.8,0-3.2-.1-4.1-.2-.3,0-.4-.2-.4-.4v-1c0-.2.2-.4.4-.3.4,0,.9,0,1.6.1l-.4-2.8h-1c-.3,0-.4-.1-.4-.4v-.9c0-.3.1-.4.4-.4h9.4c.3,0,.4.1.4.4v.9c0,.3-.1.4-.4.4h-1ZM425,76c0,2-1.3,3.1-3.6,3.1s-5.3-.1-7-.3c-.3,0-.4-.2-.4-.4v-.9c0-.3.2-.4.5-.4,2,.2,3.9.3,7,.3s1.6-.4,1.6-1.4,0-.8-.1-1.2c0-.3.1-.5.4-.5h1c.3,0,.5.2.5.4,0,.3.1.8.1,1.3ZM421.1,68.6l.4-2.8h-3.6s.4,2.8.4,2.8c.5,0,.9,0,1.4,0s1,0,1.4,0ZM403.6,71.5c-.2,0-.5-.1-.6-.3v7.2c0,.3-.1.4-.4.4h-1c-.3,0-.4-.1-.4-.4v-14c0-.3.1-.4.4-.4h1c.3,0,.4.1.4.4v4.8c0,.3.1.5.5.5h1.4c.2-3.4,1.3-5,3.4-5s3.4,1.9,3.4,6.1-1.1,6.1-3.4,6.1-3.2-1.7-3.4-5.3h-1.3ZM398.6,63.7h1c.3,0,.4.1.4.4v14.2c0,.3-.1.4-.4.4h-1c-.3,0-.4-.1-.4-.4v-14.2c0-.3.1-.4.4-.4ZM406.8,70.7c0,3,.5,4.2,1.5,4.2s1.5-1.3,1.5-4.2-.5-4.2-1.5-4.2-1.5,1.2-1.5,4.2ZM381.8,75.7v.8c0,.4.3.6.8.6h4.6c.5,0,.7-.2.8-.6v-.8c0,0-6.2,0-6.2,0ZM380,77.3l-.2-4.1c0-.3.2-.4.4-.4h1.1c.3,0,.4.2.4.4v.8c0,0,6.5,0,6.5,0v-.8c0-.3.2-.4.5-.4h1.1c.3,0,.5.2.4.4l-.2,4.1c0,1-.7,1.6-1.9,1.6h-6.1c-1.2,0-1.9-.6-1.9-1.6ZM383.1,70.7l.2-.8c0-.3.2-.4.6-.3,1.1.3,1.9.4,2.8.4,1.8,0,2.5-.1,2.5-.8s-.7-.8-2.9-.8-1.4,0-2,.1c-.3,0-.5,0-.5-.4v-.9c0-.3.1-.4.4-.5.6-.1,1.4-.2,2.1-.2,3.5,0,4.7.6,4.7,2.6s-1.3,2.6-4.4,2.6-2.2-.2-3.3-.5c-.3-.1-.4-.3-.3-.6ZM384,65.9c-.3,0-.4-.1-.4-.4v-.9c0-.3.1-.4.4-.4h6.5c.3,0,.4.1.4.4v.9c0,.3-.1.4-.4.4h-6.5ZM379.7,68.9c0-.4-.2-.5-.6-.5h-1.1c-.3,0-.4-.1-.4-.4v-.9c0-.3.1-.4.4-.4h1c.3,0,.6.1.7.3v-2.7c0-.3.2-.5.4-.5h1.1c.3,0,.4.2.4.5v7c0,.3-.2.5-.4.5h-1.1c-.3,0-.4-.2-.4-.5v-2.3ZM363.5,63.7h1c.3,0,.4.1.4.4v5.5s1,0,1,0c.2,0,.5.1.6.3v-5.7c0-.3.1-.4.4-.4h1c.3,0,.4.1.4.4v14c0,.3-.1.4-.4.4h-1c-.3,0-.4-.1-.4-.4v-6.4c0-.3-.1-.5-.5-.5h-1s0,6.8,0,6.8c0,.3-.1.4-.4.4h-1c-.3,0-.4-.1-.4-.4v-14.2c0-.3.1-.4.4-.4ZM374.1,66.7v4.5c0,2.1.9,3.2,2.2,3.4.3,0,.4.1.4.4v1c0,.3-.1.5-.4.4-1.5-.2-2.7-1.1-3.1-2.5-.5,1.4-1.7,2.3-3.2,2.5-.3,0-.4-.1-.4-.4v-1c0-.3.1-.4.4-.4,1.3-.2,2.2-1.4,2.2-3.4v-4.5s-2.1,0-2.1,0c-.3,0-.4-.1-.4-.4v-1c0-.3.1-.4.4-.4h6.1c.3,0,.4.1.4.4v1c0,.3-.1.4-.4.4h-2.1ZM352.7,69.4l.2-.9c0-.3.2-.4.5-.3.9.3,1.8.4,2.4.4,2.2,0,2.7-.3,2.7-1.4s-.6-1.4-2.9-1.4-1.4,0-2,.2c-.3,0-.4-.1-.4-.4v-.9c0-.3.1-.4.4-.5.5-.1,1.2-.2,2.2-.2,3.3,0,4.7.9,4.7,3.2s-.8,2.7-2.8,3v.8c0,.2-.1.4-.3.5,1.3,0,2.8,0,3.5-.2.3,0,.5,0,.5.4v1c0,.3-.1.4-.4.4-1.1,0-2.6.1-4.2.1s-3.4,0-4.5-.1c-.3,0-.4-.2-.4-.5v-1c0-.3.2-.4.4-.4.6,0,1.9,0,3,0s.5-.1.5-.4v-.8c-.7,0-1.8-.2-2.8-.5-.3,0-.4-.3-.3-.5ZM359.8,76c0,2-1.3,3.1-3.6,3.1s-5.5-.1-7.2-.3c-.3,0-.4-.2-.4-.4v-.9c0-.3.2-.4.5-.4,2,.2,3.9.3,7.1.3s1.6-.4,1.6-1.4,0-.8-.1-1.2c0-.3.1-.5.4-.5h1c.3,0,.5.2.5.4,0,.3.1.8.1,1.3ZM349,64.2c0-.3.2-.5.4-.5h1.1c.3,0,.4.2.4.5v9.9c0,.3-.2.5-.4.5h-1.1c-.3,0-.4-.2-.4-.5v-9.9ZM338.2,64.6c2.6,0,3.8,1.9,3.8,6.1s-1.2,6.1-3.8,6.1-3.8-1.9-3.8-6.1,1.2-6.1,3.8-6.1ZM336.3,70.7c0,3,.6,4.2,1.9,4.2s1.9-1.2,1.9-4.2-.6-4.2-1.9-4.2-1.9,1.2-1.9,4.2ZM332.1,78.3c0,.3-.2.5-.4.5h-1.1c-.3,0-.4-.2-.4-.5v-14.1c0-.3.2-.5.4-.5h1.1c.3,0,.4.2.4.5v14.1ZM315.5,68.5c0-2.6,1-3.7,3.3-3.7s2.4.1,3.7.3c.3,0,.4.2.4.5v1c0,.3-.2.5-.4.4-1.1-.2-2.1-.3-3.3-.3s-1.7.5-1.7,2c0,2.5.2,4.9.6,7.4,0,.3-.1.5-.4.5h-1.1c-.3,0-.4-.1-.5-.4-.4-2.5-.6-4.9-.6-7.6ZM313.2,78.3c0,.3-.2.5-.4.5h-1.1c-.3,0-.4-.2-.4-.5v-14.1c0-.3.2-.5.4-.5h1.1c.3,0,.4.2.4.5v14.1ZM302.3,79.1c-3.8,0-5.6-1-5.6-2.9s1.8-2.9,5.6-2.9,5.6.9,5.6,2.9-1.8,2.9-5.6,2.9ZM302.3,75c-2.6,0-3.6.3-3.6,1.2s1.1,1.2,3.6,1.2,3.6-.3,3.6-1.2-1-1.2-3.6-1.2ZM308.8,70.9v.9c0,.3-.1.4-.4.5-1,.1-2.9.2-6,.2-2.4,0-4.8,0-6-.2-.3,0-.4-.2-.4-.5v-.9c0-.3.2-.4.5-.4,1.3.1,3.2.2,6,.2s4.4,0,5.9-.2c.3,0,.5.1.5.4ZM307.4,66.7c0,1.9-1.2,3-3.4,3s-5.1-.1-6.7-.3c-.3,0-.4-.2-.4-.4v-.9c0-.3.2-.4.5-.4,2,.2,3.9.3,6.5.3s1.5-.4,1.5-1.3,0-1.4-.1-2c0-.3.1-.5.4-.5h1c.3,0,.5.2.5.4,0,.6.1,1.5.1,2.1ZM292.9,76c0,2-1.3,3.1-3.6,3.1s-5.3-.1-7-.3c-.3,0-.4-.2-.4-.4v-.9c0-.3.2-.4.5-.4,2,.2,3.9.3,7,.3s1.6-.4,1.6-1.4,0-.8-.1-1.2c0-.3.1-.5.4-.5h1c.3,0,.5.2.5.4,0,.3.1.8.1,1.3ZM294,71.8v.9c0,.3-.1.4-.4.5-1,.1-2.9.2-6,.2-2.4,0-4.8,0-6-.2-.3,0-.4-.2-.4-.5v-.9c0-.3.2-.4.5-.4,1.3.1,3.2.2,6,.2s4.4,0,5.9-.2c.3,0,.5.1.5.4ZM287.5,70.4c-3.7,0-5.3-1-5.3-3.2s1.6-3.2,5.3-3.2,5.3,1,5.3,3.2-1.6,3.2-5.3,3.2ZM290.8,67.2c0-1.1-.9-1.5-3.3-1.5s-3.3.4-3.3,1.5.9,1.5,3.3,1.5,3.3-.4,3.3-1.5ZM274.1,66.7l-.3,7.8c.4,0,.8,0,1.1-.1.3,0,.4.1.4.4v1c0,.3-.1.4-.4.4-.9.1-2.1.2-3.4.2s-2.7-.1-3.4-.2c-.3,0-.4-.1-.4-.4v-1c0-.3.1-.5.4-.4.3,0,.7,0,1.1.1l-.3-7.8h-.6c-.3,0-.4-.1-.4-.4v-1c0-.3.1-.4.4-.4h6.4c.3,0,.4.1.4.4v1c0,.3-.1.4-.4.4h-.6ZM268.6,70.1v1c0,.3-.1.4-.4.4h-1.4c-.2,0-.5-.1-.6-.3v7.2c0,.3-.1.4-.4.4h-1c-.3,0-.4-.1-.4-.4v-14c0-.3.1-.4.4-.4h1c.3,0,.4.1.4.4v4.8c0,.3.1.5.5.5h1.5c.3,0,.4.1.4.4ZM261.8,63.7h1c.3,0,.4.1.4.4v14.2c0,.3-.1.4-.4.4h-1c-.3,0-.4-.1-.4-.4v-14.2c0-.3.1-.4.4-.4ZM272.3,66.7h-1.6s.3,7.9.3,7.9h1s.3-7.9.3-7.9ZM255.3,64.6c2.6,0,3.8,1.9,3.8,6.1s-1.2,6.1-3.8,6.1-3.8-1.9-3.8-6.1,1.2-6.1,3.8-6.1ZM253.4,70.7c0,3,.6,4.2,1.9,4.2s1.9-1.2,1.9-4.2-.6-4.2-1.9-4.2-1.9,1.2-1.9,4.2ZM249.2,78.3c0,.3-.2.5-.4.5h-1.1c-.3,0-.4-.2-.4-.5v-14.1c0-.3.2-.5.4-.5h1.1c.3,0,.4.2.4.5v14.1ZM233.7,72.9c-.3,0-.6,0-.6-.4v-1.1c0-.3.1-.4.4-.4,2.3,0,3.8-1.5,3.8-3.6v-2.4c0-.3.2-.5.4-.5h1.1c.3,0,.4.2.4.5v2.4c0,2.1,1.6,3.6,3.8,3.6s.4.1.4.4v1.1c0,.4-.3.4-.6.4-2,0-3.9-1.2-4.7-2.8-.7,1.7-2.6,2.8-4.6,2.8ZM244.8,75.8v.9c0,.3-.1.4-.4.5-1.3.2-3.3.3-6,.3s-4.9-.1-6-.3c-.3,0-.4-.2-.4-.5v-.9c0-.3.2-.4.5-.4,1.3.2,3.6.3,6,.3s4.3-.1,5.9-.3c.3,0,.5.1.5.4ZM223.4,75.4l.3-.9c0-.2.2-.3.4-.3s.2,0,.2,0c.8.4,1.5.6,2.2.6,1.4,0,2-.8,2-2.3s-.7-2.4-2.4-2.4-.8,0-1.6.1c-.3,0-.4-.1-.4-.4v-1c0-.3.1-.4.4-.5.6-.1,1.1-.2,1.9-.2,2.8,0,4.1,1.3,4.1,4.3s-1.4,4.2-3.8,4.2-2-.2-3-.7c-.3-.1-.4-.3-.3-.6ZM223.9,71.5v1c0,.3-.1.4-.4.4h-1.1c-.2,0-.5-.1-.6-.3v5.7c0,.3-.1.4-.4.4h-1c-.3,0-.4-.1-.4-.4v-14c0-.3.1-.4.4-.4h1c.3,0,.4.1.4.4v6.3c0,.3.1.5.5.5h1.2c.3,0,.4.1.4.4ZM217.3,63.7h1c.3,0,.4.1.4.4v14.2c0,.3-.1.4-.4.4h-1c-.3,0-.4-.1-.4-.4v-14.2c0-.3.1-.4.4-.4ZM224.1,66.7c-.3,0-.4-.1-.4-.4v-1c0-.3.1-.4.4-.4h5.7c.3,0,.4.1.4.4v1c0,.3-.1.4-.4.4h-5.7ZM207.3,66.5c-1.8,0-2.4.7-2.4,2.5,2.8,0,5.9.1,7.6.3.3,0,.4.2.4.4v1c0,.3-.1.4-.4.4-1.9-.2-5-.3-7.6-.3,0,.6.1,1.2.2,1.6,0,.3,0,.4-.3.4l-1.2.2c-.3,0-.4,0-.5-.3-.2-1.2-.3-2.4-.3-4.1,0-2.7,1.4-4.1,4-4.1s3.9,0,5.8.3c.3,0,.4.2.4.4v1c0,.3-.2.4-.4.4-1.7-.2-3.4-.3-5.4-.3ZM214.5,75.8v.9c0,.3-.1.4-.4.5-1.3.2-3.3.3-6,.3s-4.9-.1-6-.3c-.3,0-.4-.2-.4-.5v-.9c0-.3.2-.4.5-.4,1.3.2,3.6.3,6,.3s4.3-.1,5.9-.3c.3,0,.5.1.5.4ZM195.8,76c1.6,0,2.9-.1,4-.3.3,0,.5,0,.5.4v1c0,.3-.1.4-.4.4-1.1.2-2.4.3-4.1.3s-3.2,0-4.4-.2c-.3,0-.4-.2-.4-.5v-1c0-.3.2-.4.4-.4,1.1.2,2.7.3,4.3.3ZM195.7,73.5c-2.3,0-3.8-1.8-3.8-4.6s1.5-4.6,3.8-4.6,3.8,1.8,3.8,4.6-1.5,4.6-3.8,4.6ZM197.6,68.9c0-1.6-.7-2.8-1.9-2.8s-1.9,1.1-1.9,2.8.7,2.8,1.9,2.8,1.9-1.1,1.9-2.8ZM188,64.2c0-.3.2-.5.4-.5h1.1c.3,0,.4.2.4.5v14.1c0,.3-.2.5-.4.5h-1.1c-.3,0-.4-.2-.4-.5v-14.1ZM168.1,63.7h1c.3,0,.4.1.4.4v5.5s1,0,1,0c.2,0,.5.1.6.3v-5.7c0-.3.1-.4.4-.4h1c.3,0,.4.1.4.4v14c0,.3-.1.4-.4.4h-1c-.3,0-.4-.1-.4-.4v-6.4c0-.3-.1-.5-.5-.5h-1s0,6.8,0,6.8c0,.3-.1.4-.4.4h-1c-.3,0-.4-.1-.4-.4v-14.2c0-.3.1-.4.4-.4ZM176.6,66.7c-.6,0-1.1,0-1.6.2-.3,0-.4-.1-.4-.4v-1c0-.3,0-.4.4-.4.5-.1,1-.1,1.8-.1,3,0,4.3,1.9,4.3,5.9s-1.4,5.9-4.2,5.9-1.8-.2-2.6-.5c-.3-.1-.4-.3-.3-.5l.2-1c0-.2.2-.3.3-.3s.1,0,.2,0c.7.3,1.4.4,2,.4,1.6,0,2.4-1.3,2.4-4s-.7-4.1-2.6-4.1ZM162.6,66.5l-.4,4.7c.7,0,1.2,0,1.6-.1.3,0,.4.1.4.3v1.1c0,.2-.1.4-.4.4-.4,0-.9,0-1.4.1v2c0,.3-.2.6-.4.7.9,0,1.9-.2,2.8-.3.3,0,.5.1.5.4v.9c0,.3-.1.4-.4.5-1.3.2-3.3.3-6,.3s-4.9-.1-6-.3c-.3,0-.4-.2-.4-.5v-.9c0-.3.2-.4.5-.4.3,0,1.3.2,1.8.2s.6-.2.6-.5v-2.1c-.6,0-1.1,0-1.5-.1-.3,0-.4-.2-.4-.4v-1.1c0-.2.2-.4.4-.3.4,0,.9,0,1.6.1l-.4-4.7h-.9c-.3,0-.4-.1-.4-.4v-1c0-.3.1-.4.4-.4h9.4c.3,0,.4.1.4.4v1c0,.3-.1.4-.4.4h-.9ZM160.2,71.2l.4-4.7h-3.7s.4,4.7.4,4.7c.4,0,.9,0,1.4,0s1,0,1.4,0ZM157.2,74.9c0,.4-.2.6-.5.7,1,0,2.2,0,3,0,.4,0,.6-.2.6-.5v-2.1c-.5,0-1,0-1.6,0s-1.1,0-1.5,0v1.9ZM147.7,65.9v.7c0,1.9,1.1,3.3,2.6,3.3s.4.1.4.4v.9c0,.3-.1.4-.4.4-1.8,0-3.1-1.2-3.6-2.5-.5,1.3-1.8,2.5-3.6,2.5s-.4-.1-.4-.4v-.9c0-.3.1-.4.4-.4,1.5,0,2.6-1.4,2.6-3.3v-.7s-2.5,0-2.5,0c-.3,0-.4-.1-.4-.4v-.9c0-.3.1-.4.4-.4h7c.3,0,.4.1.4.4v.9c0,.3-.1.4-.4.4h-2.5ZM138.8,75.8c0-1.9,1-2.7,3.3-2.7s5,.1,6.8.3c.3,0,.4.2.4.4v.9c0,.3-.1.4-.4.4-2.1-.2-4.1-.3-6.6-.3s-1.6.3-1.6,1.4,0,1.6,0,2.2c0,.3-.2.5-.4.5h-1c-.3,0-.5-.2-.5-.4,0-.6,0-1.5,0-2.7ZM140.7,66.5c0,.4.2.5.6.5h1.3c.3,0,.4.1.4.4v.9c0,.3-.1.4-.4.4h-1.2c-.3,0-.6-.1-.7-.3v2.9c0,.3-.2.5-.4.5h-1.1c-.3,0-.4-.2-.4-.5v-7.2c0-.3.2-.5.4-.5h1.1c.3,0,.4.2.4.5v2.3ZM135.1,75.9c0,2-1.4,3.2-3.7,3.2s-5-.1-6.7-.3c-.3,0-.4-.2-.4-.4v-.9c0-.3.2-.4.5-.4,2,.2,3.7.3,6.7.3s1.7-.5,1.7-1.6,0-1.3-.1-1.7c0-.3.2-.5.4-.5h1c.3,0,.4.2.5.4,0,.4.1,1.2.1,1.9ZM126.6,73.8c0,.3-.2.5-.4.5h-1.1c-.3,0-.4-.2-.4-.5v-9.6c0-.3.2-.5.4-.5h1.1c.3,0,.4.2.4.5v9.6ZM132.7,64c2.3,0,3.8,1.6,3.8,4.1s-1.5,4.1-3.8,4.1-3.8-1.6-3.8-4.1,1.5-4.1,3.8-4.1ZM132.7,70.5c1.1,0,1.9-.9,1.9-2.4s-.7-2.3-1.9-2.3-1.9.9-1.9,2.3.7,2.4,1.9,2.4ZM110.2,76.5c-.3,0-.4-.1-.4-.4v-1c0-.3.1-.4.4-.5,1.4-.2,2.6-1.9,2.6-3.9v-5.5c0-.3.2-.5.4-.5h1.1c.3,0,.4.2.4.5v5.5c0,2,1.2,3.7,2.6,3.9.3,0,.4.2.4.5v1c0,.3-.1.4-.4.4-1.6-.2-3.1-1.5-3.6-3.1-.4,1.6-1.9,2.9-3.6,3.1ZM106.1,72.1c0-.4-.2-.5-.6-.5h-1.1c-.3,0-.4-.1-.4-.4v-1c0-.3.1-.4.4-.4h1c.3,0,.6.1.7.3v-5.8c0-.3.2-.5.4-.5h1.1c.3,0,.4.2.4.5v14.1c0,.3-.2.5-.4.5h-1.1c-.3,0-.4-.2-.4-.5v-6.2ZM101.2,73.2c0-1.2-.5-1.7-1.8-1.7s-1.9,0-2.5,0-.4-.1-.4-.4v-.9c0-.3.1-.4.4-.4h.7c-.7-.5-1.1-1.4-1.1-2.5,0-1.6.9-2.5,3.1-2.5s1.7,0,2.4.2c.3,0,.4.2.4.4v1.1c0,.3-.2.4-.4.4-1-.2-1.4-.3-2-.3-1.1,0-1.6.4-1.6,1.5s.5,1.5,1.5,1.5c2.2,0,3.1,1.1,3.1,3.4s-1.3,3.6-3.8,3.6-1.9-.2-2.9-.6c-.3-.1-.4-.3-.3-.5l.3-1c0-.2.2-.3.3-.3s.1,0,.2,0c.8.3,1.6.5,2.2.5,1.5,0,2-.5,2-1.7ZM94.8,71.7h1c.3,0,.4.1.4.4v1c0,.3-.1.4-.4.4h-1c-.2,0-.4,0-.5-.2v5.1c0,.3-.1.4-.4.4h-1c-.3,0-.4-.1-.4-.4v-14c0-.3.1-.4.4-.4h1c.3,0,.4.1.4.4v2.2c0,.3.2.4.4.4h.9c.3,0,.4.1.4.4v1c0,.3-.1.4-.4.4h-.8c-.2,0-.4,0-.5-.2v2.7c0,.3.2.4.4.4ZM89.9,63.7h1c.3,0,.4.1.4.4v14.2c0,.3-.1.4-.4.4h-1c-.3,0-.4-.1-.4-.4v-14.2c0-.3.1-.4.4-.4ZM83.5,64.6c2.6,0,3.8,1.9,3.8,6.1s-1.2,6.1-3.8,6.1-3.8-1.9-3.8-6.1,1.2-6.1,3.8-6.1ZM81.6,70.7c0,3,.6,4.2,1.9,4.2s1.9-1.2,1.9-4.2-.6-4.2-1.9-4.2-1.9,1.2-1.9,4.2ZM77.4,78.3c0,.3-.2.5-.4.5h-1.1c-.3,0-.4-.2-.4-.5v-14.1c0-.3.2-.5.4-.5h1.1c.3,0,.4.2.4.5v14.1ZM68.2,66.7c-.9,0-1.4,0-2.1.2-.3,0-.4-.1-.4-.4v-1c0-.3.1-.4.4-.4.6-.1,1.3-.1,2.3-.1,3.2,0,4.8,1.8,4.8,5.9s-1.5,5.9-4.6,5.9-2-.2-3.1-.7c-.3-.1-.4-.3-.4-.5l.3-1c0-.2.2-.4.3-.4s.1,0,.2,0c1,.4,1.9.6,2.6.6,1.9,0,2.8-1.3,2.8-4s-.8-4.1-2.9-4.1ZM61.7,72.1c0-.4-.2-.5-.6-.5h-1.1c-.3,0-.4-.1-.4-.4v-1c0-.3.1-.4.4-.4h1c.3,0,.6.1.7.3v-5.8c0-.3.2-.5.4-.5h1.1c.3,0,.4.2.4.5v14.1c0,.3-.2.5-.4.5h-1.1c-.3,0-.4-.2-.4-.5v-6.2ZM56.9,79.2c-.8,0-1.3-.5-1.3-1.2s.5-1.2,1.3-1.2,1.3.5,1.3,1.2-.5,1.2-1.3,1.2ZM41.9,76.5c-.3,0-.4-.1-.4-.4v-1c0-.3.1-.4.4-.5,1.4-.2,2.6-1.9,2.6-3.9v-5.5c0-.3.2-.5.4-.5h1.1c.3,0,.4.2.4.5v5.5c0,2,1.2,3.7,2.6,3.9.3,0,.4.2.4.5v1c0,.3-.1.4-.4.4-1.6-.2-3.1-1.5-3.6-3.1-.4,1.6-1.9,2.9-3.6,3.1ZM37.9,72.1c0-.4-.2-.5-.6-.5h-1.1c-.3,0-.4-.1-.4-.4v-1c0-.3.1-.4.4-.4h1c.3,0,.6.1.7.3v-5.8c0-.3.2-.5.4-.5h1.1c.3,0,.4.2.4.5v14.1c0,.3-.2.5-.4.5h-1.1c-.3,0-.4-.2-.4-.5v-6.2ZM437.2,105.1c.4,0,.7-.2.7-.5v-1.3c0-.3-.2-.4-.4-.4h-4.9c-.8,0-1.1.2-1.1.9s.7,1.4,1.5,1.4h4.2ZM433,98.7l.2-.9c0-.2.2-.3.3-.3s.1,0,.2,0c.8.3,2.1.5,2.9.5,1.9,0,2.4-.1,2.4-.7s-.6-.7-2.9-.7-1.4,0-2.2,0c-.3,0-.4-.1-.4-.4v-.8c0-.3.1-.4.4-.4h.4c-.6-.3-.9-.8-.9-1.5,0-1.1.8-1.5,3-1.5,1.5,0,2.5,0,3.6.2.3,0,.4.2.4.4v.9c0,.3-.2.4-.4.4-1.3-.2-2.6-.2-3.2-.2-1,0-1.4.1-1.4.5s.4.6,1.3.6c3.2,0,4.3.6,4.3,2.4s-1.1,2.5-3.9,2.5-2.9-.3-3.8-.6c-.3-.1-.4-.3-.3-.5ZM429.5,102.8c0-1.2.7-1.8,2.1-1.8h7.5c.5,0,.8.3.8.8v3.6c0,.9-.7,1.5-1.8,1.5h-8.4c-.3,0-.4-.1-.4-.4v-.9c0-.3.1-.4.4-.4h1.2c-.8-.4-1.4-1.3-1.4-2.3ZM429.6,97c0-.4-.2-.5-.6-.5h-1.1c-.3,0-.4-.1-.4-.4v-.9c0-.3.1-.4.4-.4h1c.3,0,.6.1.7.3v-2.8c0-.3.2-.5.4-.5h1.1c.3,0,.4.2.4.5v7.2c0,.3-.2.5-.4.5h-1.1c-.3,0-.4-.2-.4-.5v-2.4ZM419.6,93.5c-2.5,0-3.3.3-3.3,1.1s.8,1.1,3.3,1.1,3.3-.3,3.3-1.1-.8-1.1-3.3-1.1ZM414,106.3v-.8c0-.3.2-.4.5-.3,1.3.2,3.2.3,4.5.3,3.5,0,4.1,0,4.1-.6s-.4-.6-3.2-.6-4,0-5,0c-.2,0-.4-.1-.4-.4v-.7c0-.3.1-.4.4-.4h.6c-.7-.2-1.1-.8-1.1-1.4s.4-1.2,1.6-1.2c2.2,0,5.8,0,8.4.2.3,0,.4.1.4.4v.8c0,.3-.1.4-.4.4-1.9-.1-5.5-.2-7.2-.2s-.8.2-.8.5.2.5.8.5c.9,0,1.9,0,2.8,0,4,0,5.1.5,5.1,2.1s-1.2,2.2-6.1,2.2-3.3-.1-4.6-.3c-.3,0-.4-.2-.3-.4ZM419.8,97.9c2,0,4.4,0,6-.2.3,0,.4.1.4.4v.8c0,.3-.1.4-.4.4-1,.1-2.9.2-6,.2-2.4,0-4.8,0-6.1-.2-.3,0-.4-.2-.4-.4v-.8c0-.3.2-.4.4-.4,1.3.1,3.2.2,6,.2ZM419.6,97.2c-3.8,0-5.3-.7-5.3-2.6s1.5-2.6,5.3-2.6,5.3.7,5.3,2.6-1.5,2.6-5.3,2.6ZM404,98.3c.4,0,.7-.2.7-.5v-3.4c0-.3-.2-.4-.4-.4h-1.7c-1,0-1.4.7-1.4,1.9s.7,2.5,1.8,2.5h1.1ZM399.3,99.6v-.9c0-.3.1-.4.4-.4h1.1c-1-.6-1.7-1.9-1.7-3.4s.8-2.8,2.4-2.8h4.3c.5,0,.8.3.8.8v5.6c0,.9-.7,1.5-1.8,1.5h-5.2c-.3,0-.4-.1-.4-.4ZM395.3,98.2c0-.4-.2-.5-.6-.5h-1.1c-.3,0-.4-.1-.4-.4v-.9c0-.3.1-.4.4-.4h1c.3,0,.6.1.7.3v-4c0-.3.2-.5.4-.5h1.1c.3,0,.4.2.4.5v9.6c0,.3-.2.5-.4.5h-1.1c-.3,0-.4-.2-.4-.5v-3.6ZM405.3,103.9c0,2-1.4,3.2-3.7,3.2s-4.7-.1-6.4-.3c-.3,0-.4-.2-.4-.4v-.9c0-.3.2-.4.5-.4,2,.2,3.5.3,6.4.3s1.7-.5,1.7-1.6,0-1.3-.1-1.7c0-.3.2-.5.4-.5h1c.3,0,.4.2.5.4,0,.4.1,1.2.1,1.9ZM380,106.3v-.8c0-.3.2-.4.5-.3,1.4.2,3.1.3,4.2.3,3.5,0,4,0,4-.6s-.4-.6-3.1-.6-3.6,0-4.8,0c-.3,0-.4-.1-.4-.4v-.8c0-.3.1-.4.4-.4h.6c-.7-.2-1.1-.8-1.1-1.5s.5-1.3,1.5-1.4c2.2,0,5.6,0,8.1.2.3,0,.4.1.4.4v.8c0,.3-.1.4-.4.4-1.9-.1-5.2-.2-6.9-.2s-.8.2-.8.6.3.5.9.5c.9,0,1.6,0,2.5,0,3.9,0,5,.5,5,2.2s-1.3,2.3-6,2.3-2.9-.1-4.3-.3c-.3,0-.4-.2-.4-.4ZM384.1,97.9l.3-.9c0-.3.2-.4.5-.3,1.1.4,2.6.6,3.5.6s1.6-.4,1.6-1.4-.2-2.2-.4-3.3c0-.3.1-.5.4-.5h1c.3,0,.4.1.5.4.3,1.2.4,2.2.4,3.3,0,2-1.2,3.2-3.4,3.2s-2.8-.2-4-.6c-.3-.1-.4-.3-.4-.5ZM380.5,96.5c0-.4-.2-.5-.6-.5h-1.1c-.3,0-.4-.1-.4-.4v-.9c0-.3.1-.4.4-.4h1c.3,0,.6.1.7.3v-2.3c0-.3.2-.5.4-.5h1.1c.3,0,.4.2.4.5v6.3c0,.3-.2.5-.4.5h-1.1c-.3,0-.4-.2-.4-.5v-2ZM359.5,91.7h1c.3,0,.4.1.4.4v5.5s.8,0,.8,0c.2,0,.5.1.6.3v-5.7c0-.3.1-.4.4-.4h1c.3,0,.4.1.4.4v14c0,.3-.1.4-.4.4h-1c-.3,0-.4-.1-.4-.4v-6.4c0-.3-.1-.5-.5-.5h-.9s0,6.8,0,6.8c0,.3-.1.4-.4.4h-1c-.3,0-.4-.1-.4-.4v-14.2c0-.3.1-.4.4-.4ZM368.2,104c-.4.4-.9.6-1.6.6s-1.1,0-1.6-.2c-.2,0-.4-.2-.3-.5v-1.2c.2-.2.3-.3.4-.3s.1,0,.2,0c.3.1.8.2,1,.2.9,0,1.1-.9,1.1-4s-.3-4.1-1.1-4.1-.6,0-.7,0c-.2,0-.4,0-.4-.3v-1.2c0-.2,0-.3.3-.4.2,0,.8,0,1,0,2,0,2.7,1.6,2.7,5.9s0,2.9-.3,3.8c.3.2.6.2.8.2,1,0,1.3-1,1.3-4s-.2-4.1-1-4.1-.2,0-.4,0c-.2,0-.4,0-.4-.3v-1.2c0-.2,0-.3.3-.4.1,0,.4,0,.6,0,1.9,0,2.6,1.4,2.6,5.9s-.7,5.9-2.7,5.9-1.8-.1-1.8-.6ZM344.5,96.5c0-2.6,1-3.7,3.3-3.7s2.4.1,3.7.3c.3,0,.4.2.4.5v1c0,.3-.2.5-.4.4-1.1-.2-2.1-.3-3.3-.3s-1.7.5-1.7,2c0,2.5.2,4.9.6,7.4,0,.3-.1.5-.4.5h-1.1c-.3,0-.4-.1-.5-.4-.4-2.5-.6-4.9-.6-7.6ZM340.6,100.1c0-.4-.2-.5-.6-.5h-1.1c-.3,0-.4-.1-.4-.4v-1c0-.3.1-.4.4-.4h1c.3,0,.6.1.7.3v-5.8c0-.3.2-.5.4-.5h1.1c.3,0,.4.2.4.5v14.1c0,.3-.2.5-.4.5h-1.1c-.3,0-.4-.2-.4-.5v-6.2ZM330.8,107.1c-3.6,0-5.4-1.1-5.4-3.2s1.8-3.2,5.4-3.2,5.4,1.1,5.4,3.2-1.8,3.2-5.4,3.2ZM334.4,93.9v.5c0,1.8,1.1,3.2,2.6,3.2s.4.1.4.4v.9c0,.3-.1.4-.4.4-1.8,0-3.1-1.1-3.6-2.4-.5,1.3-1.8,2.4-3.6,2.4s-.4-.1-.4-.4v-.9c0-.3.1-.4.4-.4,1.5,0,2.6-1.3,2.6-3.2v-.5s-2.5,0-2.5,0c-.3,0-.4-.1-.4-.4v-.9c0-.3.1-.4.4-.4h7c.3,0,.4.1.4.4v.9c0,.3-.1.4-.4.4h-2.5ZM325.8,97c0-.4-.2-.5-.6-.5h-1.1c-.3,0-.4-.1-.4-.4v-.9c0-.3.1-.4.4-.4h1c.3,0,.6.1.7.3v-2.8c0-.3.2-.5.4-.5h1.1c.3,0,.4.2.4.5v7.2c0,.3-.2.5-.4.5h-1.1c-.3,0-.4-.2-.4-.5v-2.4ZM330.8,102.4c-2.6,0-3.4.6-3.4,1.4s.8,1.4,3.4,1.4,3.4-.6,3.4-1.4-.8-1.4-3.4-1.4ZM315,98.3c.4,0,.7-.2.7-.5v-3.4c0-.3-.2-.4-.4-.4h-1.5c-1,0-1.4.7-1.4,1.9s.7,2.5,1.8,2.5h1ZM310.4,99.6v-.9c0-.3.1-.4.4-.4h1.1c-1-.6-1.6-1.9-1.6-3.4s.8-2.8,2.4-2.8h4.1c.5,0,.8.3.8.8v5.6c0,.9-.7,1.5-1.8,1.5h-5c-.3,0-.4-.1-.4-.4ZM307.9,94.4c0,.4.2.5.6.5h.9c.3,0,.4.1.4.4v.9c0,.3-.1.4-.4.4h-.8c-.3,0-.6-.1-.7-.3v5.3c0,.3-.2.5-.4.5h-1.1c-.3,0-.4-.2-.4-.5v-9.6c0-.3.2-.5.4-.5h1.1c.3,0,.4.2.4.5v2.2ZM316.3,103.9c0,2-1.4,3.2-3.7,3.2s-5-.1-6.7-.3c-.3,0-.4-.2-.4-.4v-.9c0-.3.2-.4.5-.4,2,.2,3.7.3,6.7.3s1.7-.5,1.7-1.6,0-1.3-.1-1.7c0-.3.2-.5.4-.5h1c.3,0,.4.2.5.4,0,.4.1,1.2.1,1.9ZM300.7,94.7v4c0,2,1.2,3.7,2.6,3.9.3,0,.4.2.4.5v1c0,.3-.1.4-.4.4-1.6-.2-3.1-1.5-3.6-3.1-.4,1.6-1.9,2.9-3.6,3.1-.3,0-.4-.1-.4-.4v-1c0-.3.1-.4.4-.5,1.4-.2,2.6-1.9,2.6-3.9v-4s-2.5,0-2.5,0c-.3,0-.4-.1-.4-.4v-1c0-.3.1-.4.4-.4h7c.3,0,.4.1.4.4v1c0,.3-.1.4-.4.4h-2.5ZM293.8,97c0,.4.2.5.6.5h1.9c.3,0,.4.1.4.4v1c0,.3-.1.4-.4.4h-1.8c-.3,0-.6-.1-.7-.3v7.3c0,.3-.2.5-.4.5h-1.1c-.3,0-.4-.2-.4-.5v-14.1c0-.3.2-.5.4-.5h1.1c.3,0,.4.2.4.5v4.8ZM281.1,97.4c1.1,0,1.8-.7,1.8-1.9s-.7-1.8-1.8-1.8-1.8.7-1.8,1.8.7,1.9,1.8,1.9ZM272.5,106.3v-.8c0-.3.2-.4.5-.3,1.4.2,3.2.3,4.4.3,3.5,0,4.2,0,4.2-.6s-.5-.6-3.3-.6-3.7,0-4.9,0c-.3,0-.4-.1-.4-.4v-.8c0-.3.1-.4.4-.4h.6c-.7-.2-1.1-.8-1.1-1.5s.5-1.3,1.5-1.4c2.2,0,5.9,0,8.4.2.3,0,.4.1.4.4v.8c0,.3-.1.4-.4.4-1.9-.1-5.5-.2-7.2-.2s-.8.2-.8.6.3.5.9.5c.9,0,1.8,0,2.7,0,3.9,0,5.2.5,5.2,2.2s-1.3,2.3-6.2,2.3-3.1-.1-4.5-.3c-.3,0-.4-.2-.4-.4ZM281.1,92c2.3,0,3.7,1.4,3.7,3.5s-1.5,3.6-3.7,3.6-3.7-1.4-3.7-3.6,1.5-3.5,3.7-3.5ZM274.9,93.8c0,.4.2.5.6.5h.9c.3,0,.4.1.4.4v.9c0,.3-.1.4-.4.4h-.8c-.3,0-.6-.1-.7-.3v2.7c0,.3-.2.5-.4.5h-1.1c-.3,0-.4-.2-.4-.5v-6.3c0-.3.2-.5.4-.5h1.1c.3,0,.4.2.4.5v1.6ZM261.1,97c.9,0,2,0,3,0,3.1,0,4.9,0,6-.2.3,0,.4.1.4.4v.8c0,.3-.1.4-.4.4-1.3.1-3.6.2-5.3.2.1,0,.2.2.2.4v.8c1.3,0,2.5.1,3.6.2.3,0,.4.1.4.4v.8c0,.3-.1.4-.4.4-1.9-.1-5.5-.2-7.2-.2s-.8.2-.8.6.2.5.9.5c.9,0,1.9,0,2.8,0,4,0,5.1.6,5.1,2.2s-1.2,2.3-6.1,2.3-3.3-.1-4.6-.3c-.3,0-.4-.2-.3-.4v-.8c0-.3.2-.4.5-.3,1.3.2,3.2.3,4.5.3,3.5,0,4.1,0,4.1-.6s-.4-.6-3.2-.6-4,0-5,0c-.2,0-.4-.1-.4-.4v-.8c0-.3.1-.4.4-.4h.6c-.7-.2-1.1-.8-1.1-1.5s.4-1.3,1.6-1.4c.8,0,1.8,0,2.9,0v-.8c0-.3-.1-.4-.4-.4-1.3,0-3.4,0-4.6-.2-.3,0-.4-.2-.4-.4v-.8c0-.3.2-.4.4-.4.3,0,.6,0,1,0-.1-.6-.2-1.2-.2-2,0-2,1.1-2.9,3.5-2.9s4.4.1,6.3.3c.3,0,.4.2.4.4v1c0,.3-.2.4-.4.4-2.1-.2-3.9-.3-6.1-.3s-1.7.4-1.7,1.6.1,1,.2,1.5ZM252,105.8c-1.6,0-3,0-4.2-.2-.3,0-.4-.2-.4-.5v-1c0-.3.2-.4.4-.4.6.1,1.9.2,3.2.2s.6-.2.6-.5v-4.3c0-.3.2-.5.4-.5h1.1c.3,0,.4.2.4.5v4.1c0,.3-.2.6-.4.7,1,0,1.8-.1,2.7-.3.3,0,.5,0,.5.4v1c0,.3-.1.4-.4.4-1.1.2-2.2.3-3.9.3ZM249.9,96.1c0,1.2.1,2.7.5,4.2,0,.3,0,.4-.3.4l-1.2.2c-.3,0-.4,0-.5-.3-.3-1.4-.5-3.2-.5-4.8s.8-3.3,3.3-3.3,2.8.1,3.7.3c.3,0,.4.2.4.4v1c0,.3-.2.5-.4.4-1.1-.2-2.3-.3-3.5-.3s-1.6.5-1.6,1.8ZM244.4,100.1c0-.4-.2-.5-.6-.5h-1.1c-.3,0-.4-.1-.4-.4v-1c0-.3.1-.4.4-.4h1c.3,0,.6.1.7.3v-5.8c0-.3.2-.5.4-.5h1.1c.3,0,.4.2.4.5v14.1c0,.3-.2.5-.4.5h-1.1c-.3,0-.4-.2-.4-.5v-6.2ZM233.5,94.5l-.4,4.7c.7,0,1.2,0,1.6-.1.3,0,.4.1.4.3v1.1c0,.2-.1.4-.4.4-.4,0-.8,0-1.4.1v2c0,.3-.2.6-.4.7.9,0,1.9-.2,2.8-.3.3,0,.5.1.5.4v.9c0,.3-.1.4-.4.5-1.3.2-3.3.3-6,.3s-4.9-.1-6-.3c-.3,0-.4-.2-.4-.5v-.9c0-.3.2-.4.5-.4.3,0,1.3.2,1.8.2s.6-.2.6-.5v-2.1c-.6,0-1.1,0-1.5-.1-.3,0-.4-.2-.4-.4v-1.1c0-.2.2-.4.4-.3.4,0,.9,0,1.6.1l-.4-4.7h-.9c-.3,0-.4-.1-.4-.4v-1c0-.3.1-.4.4-.4h9.4c.3,0,.4.1.4.4v1c0,.3-.1.4-.4.4h-.9ZM231.1,99.2l.4-4.7h-3.7s.4,4.7.4,4.7c.4,0,.9,0,1.4,0s1,0,1.4,0ZM228.1,102.9c0,.4-.2.6-.5.7,1,0,2.2,0,3,0,.4,0,.6-.2.6-.5v-2.1c-.5,0-1,0-1.6,0s-1.1,0-1.5,0v1.9ZM214.9,107.1c-3.7,0-5.6-1.1-5.6-3.2s1.9-3.2,5.6-3.2,5.6,1.1,5.6,3.2-1.9,3.2-5.6,3.2ZM218.6,93.9v.5c0,1.8,1.1,3.2,2.6,3.2s.4.1.4.4v.9c0,.3-.1.4-.4.4-1.8,0-3.1-1.1-3.6-2.4-.5,1.3-1.8,2.4-3.6,2.4s-.4-.1-.4-.4v-.9c0-.3.1-.4.4-.4,1.5,0,2.6-1.3,2.6-3.2v-.5s-2.5,0-2.5,0c-.3,0-.4-.1-.4-.4v-.9c0-.3.1-.4.4-.4h7c.3,0,.4.1.4.4v.9c0,.3-.1.4-.4.4h-2.5ZM211.6,94.3c0,.4.2.5.6.5h1.3c.3,0,.4.1.4.4v.9c0,.3-.1.4-.4.4h-1.2c-.3,0-.6-.1-.7-.3v3.1c0,.3-.2.5-.4.5h-1.1c-.3,0-.4-.2-.4-.5v-7.2c0-.3.2-.5.4-.5h1.1c.3,0,.4.2.4.5v2.1ZM214.9,102.4c-2.7,0-3.6.6-3.6,1.4s.9,1.4,3.6,1.4,3.6-.6,3.6-1.4-.9-1.4-3.6-1.4ZM200.7,93.5c-2.6,0-3.3.3-3.3,1.1s.8,1.1,3.3,1.1,3.3-.3,3.3-1.1-.8-1.1-3.3-1.1ZM195,106.3v-.8c0-.3.2-.4.5-.3,1.3.2,3.2.3,4.5.3,3.5,0,4.1,0,4.1-.6s-.4-.6-3.2-.6-4,0-5,0c-.2,0-.4-.1-.4-.4v-.7c0-.3.1-.4.4-.4h.6c-.7-.2-1.1-.8-1.1-1.4s.4-1.2,1.6-1.2c2.2,0,5.8,0,8.4.2.3,0,.4.1.4.4v.8c0,.3-.1.4-.4.4-1.9-.1-5.5-.2-7.2-.2s-.8.2-.8.5.2.5.9.5c.9,0,1.9,0,2.8,0,4,0,5.1.5,5.1,2.1s-1.2,2.2-6.1,2.2-3.3-.1-4.6-.3c-.3,0-.4-.2-.3-.4ZM200.8,97.9c2,0,4.4,0,6-.2.3,0,.4.1.4.4v.8c0,.3-.1.4-.4.4-1,.1-2.9.2-6,.2-2.4,0-4.8,0-6.1-.2-.3,0-.4-.2-.4-.4v-.8c0-.3.2-.4.4-.4,1.3.1,3.2.2,6,.2ZM200.7,97.2c-3.8,0-5.3-.7-5.3-2.6s1.5-2.6,5.3-2.6,5.3.7,5.3,2.6-1.5,2.6-5.3,2.6ZM175.9,106.3v-.8c0-.3.2-.4.5-.3,1.4.2,3.1.3,4.2.3,3.5,0,4,0,4-.6s-.4-.6-3.1-.6-3.6,0-4.8,0c-.3,0-.4-.1-.4-.4v-.8c0-.3.1-.4.4-.4h.6c-.7-.2-1.1-.8-1.1-1.5s.5-1.3,1.5-1.4c2.2,0,5.6,0,8.1.2.3,0,.4.1.4.4v.8c0,.3-.1.4-.4.4-1.9-.1-5.2-.2-6.9-.2s-.8.2-.8.6.3.5.9.5c.9,0,1.6,0,2.5,0,3.9,0,5,.5,5,2.2s-1.3,2.3-6,2.3-2.9-.1-4.3-.3c-.3,0-.4-.2-.4-.4ZM183.4,92.1h1.1c.3,0,.4.2.4.5v1.5c0,1.7,1.1,3,2.6,3s.4.1.4.4v.9c0,.3-.1.4-.4.4-1.8,0-3.1-1.2-3.6-2.4-.5,1.2-1.8,2.4-3.6,2.4s-.4-.1-.4-.4v-.9c0-.3.1-.4.4-.4,1.5,0,2.6-1.3,2.6-3v-1.5c0-.3.2-.5.4-.5ZM176.3,96.5c0-.4-.2-.5-.6-.5h-1.1c-.3,0-.4-.1-.4-.4v-.9c0-.3.1-.4.4-.4h1c.3,0,.6.1.7.3v-2.3c0-.3.2-.5.4-.5h1.1c.3,0,.4.2.4.5v6.3c0,.3-.2.5-.4.5h-1.1c-.3,0-.4-.2-.4-.5v-2ZM172.1,94.7l-.3,7.9c.5,0,1,0,1.4-.1.3,0,.4.1.4.4v1c0,.3-.1.4-.4.4-.9.1-2.4.2-4,.2s-3.3-.1-4-.2c-.3,0-.4-.1-.4-.4v-1c0-.3.1-.5.4-.4.4,0,.9,0,1.4.1l-.3-7.9h-.9c-.3,0-.4-.1-.4-.4v-1c0-.3.1-.4.4-.4h7.6c.3,0,.4.1.4.4v1c0,.3-.1.4-.4.4h-.9ZM163.2,106.3c0,.3-.2.5-.4.5h-1.1c-.3,0-.4-.2-.4-.5v-14.1c0-.3.2-.5.4-.5h1.1c.3,0,.4.2.4.5v14.1ZM170.2,94.7h-2.1s.3,7.9.3,7.9h1.4s.3-7.9.3-7.9ZM158.8,99.4v.9c0,.3-.1.4-.4.5-1,.1-2.9.2-6,.2-2.4,0-4.8,0-6-.2-.3,0-.4-.2-.4-.5v-.9c0-.3.2-.4.5-.4,1.3.1,3.2.2,6,.2s4.4,0,5.9-.2c.3,0,.5.1.5.4ZM147.5,93.6v-.9c0-.3.1-.4.4-.4,2.1-.1,2.9-.2,3.9-.2,4.4,0,5.9.8,5.9,2.9s-1.5,3-5.7,3-2.5-.1-4.4-.3c-.3,0-.4-.2-.4-.4v-.9c0-.3.2-.4.5-.4,1.5.2,3.1.3,4.5.3,2.7,0,3.5-.3,3.5-1.2s-.9-1.2-3.9-1.2-1.9,0-3.9.2c-.3,0-.4-.1-.4-.4ZM152.3,104.6c-.7,1.3-3,2.4-5.1,2.3-.3,0-.4-.1-.4-.4v-1c0-.3.1-.4.4-.4,2.4,0,4.1-1.1,4.1-2.6v-.4c0-.3.2-.5.4-.5h1.1c.3,0,.4.2.4.5v.4c0,1.5,1.7,2.6,4.1,2.6s.4.1.4.4v1c0,.3-.1.4-.4.4-2.1.1-4.3-1-5.1-2.3ZM140.4,92.6c2.6,0,3.8,1.9,3.8,6.1,0,4.2-1.2,6.1-3.8,6.1s-3.8-1.9-3.8-6.1c0-4.2,1.2-6.1,3.8-6.1ZM138.5,98.7c0,3,.6,4.2,1.9,4.2s1.9-1.2,1.9-4.2-.6-4.2-1.9-4.2-1.9,1.2-1.9,4.2ZM134.3,106.3c0,.3-.2.5-.4.5h-1.1c-.3,0-.4-.2-.4-.5v-14.1c0-.3.2-.5.4-.5h1.1c.3,0,.4.2.4.5v14.1ZM129.8,106c0,.6-.4,1.1-1,1.2.1.3.3.4.7.4s.2,0,.2.2v.4c0,.1,0,.2-.2.2-1.3,0-2.2-.8-2.2-2.2s.5-1.4,1.3-1.4,1.3.5,1.3,1.2ZM119.6,103.9c0,2-1.4,3.2-3.7,3.2s-5-.1-6.7-.3c-.3,0-.4-.2-.4-.4v-.9c0-.3.2-.4.5-.4,2,.2,3.7.3,6.7.3s1.7-.5,1.7-1.6,0-1.3-.1-1.7c0-.3.2-.5.4-.5h1c.3,0,.4.2.5.4,0,.4.1,1.2.1,1.9ZM111.1,101.8c0,.3-.2.5-.4.5h-1.1c-.3,0-.4-.2-.4-.5v-9.6c0-.3.2-.5.4-.5h1.1c.3,0,.4.2.4.5v9.6ZM117.2,92c2.3,0,3.8,1.6,3.8,4.1s-1.5,4.1-3.8,4.1-3.8-1.6-3.8-4.1,1.5-4.1,3.8-4.1ZM117.2,98.5c1.1,0,1.9-.9,1.9-2.4s-.7-2.3-1.9-2.3-1.9.9-1.9,2.3.7,2.4,1.9,2.4ZM100.2,102.8c-2.6,0-3.6.3-3.6,1.2s1.1,1.3,3.6,1.3,3.6-.3,3.6-1.3-1-1.2-3.6-1.2ZM100.3,100.2c-2.4,0-4.8,0-6-.2-.3,0-.4-.2-.4-.5v-.9c0-.3.2-.4.5-.4,1.2.1,4.1.2,5.4.1.3,0,.4-.2.4-.4v-1.9c0-.3.2-.5.4-.5h1.1c.3,0,.4.2.4.5v1.8c0,.2-.1.4-.3.5,1.6,0,3.1,0,4.4-.2.3,0,.5.1.5.4v.9c0,.3-.1.4-.4.5-1,.1-2.9.2-6,.2ZM97.3,97c0,.3,0,.4-.3.4l-1.2.2c-.3,0-.4,0-.5-.3-.2-.7-.2-1.3-.2-2.3,0-2,1.1-2.9,3.5-2.9s4.4.1,6.3.3c.3,0,.4.2.4.4v1c0,.3-.2.4-.4.4-2.1-.2-3.9-.3-6.1-.3s-1.7.4-1.7,1.6,0,1,.2,1.5ZM100.2,107.1c-3.8,0-5.6-.9-5.6-3s1.8-3,5.6-3,5.6.9,5.6,3-1.8,3-5.6,3ZM89.2,94.7v4c0,2,1.2,3.7,2.6,3.9.3,0,.4.2.4.5v1c0,.3-.1.4-.4.4-1.6-.2-3.1-1.5-3.6-3.1-.4,1.6-1.9,2.9-3.6,3.1-.3,0-.4-.1-.4-.4v-1c0-.3.1-.4.4-.5,1.4-.2,2.6-1.9,2.6-3.9v-4s-2.5,0-2.5,0c-.3,0-.4-.1-.4-.4v-1c0-.3.1-.4.4-.4h7c.3,0,.4.1.4.4v1c0,.3-.1.4-.4.4h-2.5ZM82.2,106.3c0,.3-.2.5-.4.5h-1.1c-.3,0-.4-.2-.4-.5v-14.1c0-.3.2-.5.4-.5h1.1c.3,0,.4.2.4.5v14.1ZM71.3,107.1c-3.8,0-5.6-1-5.6-2.9s1.8-2.9,5.6-2.9,5.6.9,5.6,2.9-1.8,2.9-5.6,2.9ZM71.3,103c-2.6,0-3.6.3-3.6,1.2s1.1,1.2,3.6,1.2,3.6-.3,3.6-1.2-1-1.2-3.6-1.2ZM77.8,98.9v.9c0,.3-.1.4-.4.5-1,.1-2.9.2-6,.2-2.4,0-4.8,0-6-.2-.3,0-.4-.2-.4-.5v-.9c0-.3.2-.4.5-.4,1.3.1,3.2.2,6,.2s4.4,0,5.9-.2c.3,0,.5.1.5.4ZM76.4,94.7c0,1.9-1.2,3-3.4,3s-5.1-.1-6.7-.3c-.3,0-.4-.2-.4-.4v-.9c0-.3.2-.4.5-.4,2,.2,3.9.3,6.5.3s1.5-.4,1.5-1.3,0-1.4-.1-2c0-.3.1-.5.4-.5h1c.3,0,.5.2.5.4,0,.6.1,1.5.1,2.1ZM59.4,92.6c2.6,0,3.8,1.9,3.8,6.1,0,4.2-1.2,6.1-3.8,6.1s-3.8-1.9-3.8-6.1c0-4.2,1.2-6.1,3.8-6.1ZM57.5,98.7c0,3,.6,4.2,1.9,4.2s1.9-1.2,1.9-4.2-.6-4.2-1.9-4.2-1.9,1.2-1.9,4.2ZM53.3,106.3c0,.3-.2.5-.4.5h-1.1c-.3,0-.4-.2-.4-.5v-14.1c0-.3.2-.5.4-.5h1.1c.3,0,.4.2.4.5v14.1ZM40.1,105.1c.4,0,.7-.2.7-.5v-1.7c0-.3-.2-.4-.4-.4h-4.9c-.8,0-1.1.3-1.1,1.1s.7,1.6,1.5,1.6h4.2ZM38.9,99.4h-1.1c-.3,0-.4-.1-.5-.4-.3-1.2-.6-2.7-.6-3.6,0-2.3.9-3.2,3.2-3.2s2.5.1,3.9.3c.3,0,.4.2.4.5v1c0,.3-.2.5-.4.4-1.1-.2-1.9-.3-3.8-.3s-1.3.4-1.3,1.3.3,2.5.6,3.6c0,.3-.1.5-.4.5ZM32.4,102.7c0-1.3.7-2,2.1-2h7.5c.5,0,.8.3.8.8v3.9c0,.9-.7,1.5-1.8,1.5h-8.4c-.3,0-.4-.1-.4-.4v-.9c0-.3.1-.4.4-.4h1.2c-.9-.5-1.4-1.4-1.4-2.4ZM32.8,96.8c0-.4-.2-.5-.6-.5h-1.1c-.3,0-.4-.1-.4-.4v-.9c0-.3.1-.4.4-.4h1c.3,0,.6.1.7.3v-2.6c0-.3.2-.5.4-.5h1.1c.3,0,.4.2.4.5v6.8c0,.3-.2.5-.4.5h-1.1c-.3,0-.4-.2-.4-.5v-2.2ZM434.5,135.1c-3.7,0-5.6-1.1-5.6-3.2s1.9-3.2,5.6-3.2,5.6,1.1,5.6,3.2-1.9,3.2-5.6,3.2ZM438.2,121.9v.5c0,1.8,1.1,3.2,2.6,3.2s.4.1.4.4v.9c0,.3-.1.4-.4.4-1.8,0-3.1-1.1-3.6-2.4-.5,1.3-1.8,2.4-3.6,2.4s-.4-.1-.4-.4v-.9c0-.3.1-.4.4-.4,1.5,0,2.6-1.3,2.6-3.2v-.5s-2.5,0-2.5,0c-.3,0-.4-.1-.4-.4v-.9c0-.3.1-.4.4-.4h7c.3,0,.4.1.4.4v.9c0,.3-.1.4-.4.4h-2.5ZM431.2,122.3c0,.4.2.5.6.5h1.3c.3,0,.4.1.4.4v.9c0,.3-.1.4-.4.4h-1.2c-.3,0-.6-.1-.7-.3v3.1c0,.3-.2.5-.4.5h-1.1c-.3,0-.4-.2-.4-.5v-7.2c0-.3.2-.5.4-.5h1.1c.3,0,.4.2.4.5v2.1ZM434.5,130.4c-2.7,0-3.6.6-3.6,1.4s.9,1.4,3.6,1.4,3.6-.6,3.6-1.4-.9-1.4-3.6-1.4ZM420.3,121.5c-2.5,0-3.3.3-3.3,1.1s.8,1.1,3.3,1.1,3.3-.3,3.3-1.1-.8-1.1-3.3-1.1ZM414.6,134.3v-.8c0-.3.2-.4.5-.3,1.3.2,3.2.3,4.5.3,3.5,0,4.1,0,4.1-.6s-.4-.6-3.2-.6-4,0-5,0c-.2,0-.4-.1-.4-.4v-.7c0-.3.1-.4.4-.4h.6c-.7-.2-1.1-.8-1.1-1.4s.4-1.2,1.6-1.2c2.2,0,5.8,0,8.4.2.3,0,.4.1.4.4v.8c0,.3-.1.4-.4.4-1.9-.1-5.5-.2-7.2-.2s-.8.2-.8.5.2.5.9.5c.9,0,1.9,0,2.8,0,4,0,5.1.5,5.1,2.1s-1.2,2.2-6.1,2.2-3.3-.1-4.6-.3c-.3,0-.4-.2-.3-.4ZM420.4,125.9c2,0,4.4,0,6-.2.3,0,.4.1.4.4v.8c0,.3-.1.4-.4.4-1,.1-2.9.2-6,.2-2.4,0-4.8,0-6.1-.2-.3,0-.4-.2-.4-.4v-.8c0-.3.2-.4.4-.4,1.3.1,3.2.2,6,.2ZM420.3,125.2c-3.8,0-5.3-.7-5.3-2.6s1.5-2.6,5.3-2.6,5.3.7,5.3,2.6-1.5,2.6-5.3,2.6ZM406,131.9c0,2-1.4,3.2-3.7,3.2s-5-.1-6.7-.3c-.3,0-.4-.2-.4-.4v-.9c0-.3.2-.4.5-.4,2,.2,3.7.3,6.7.3s1.7-.5,1.7-1.6,0-1.3-.1-1.7c0-.3.2-.5.4-.5h1c.3,0,.4.2.5.4,0,.4.1,1.2.1,1.9ZM397.6,129.8c0,.3-.2.5-.4.5h-1.1c-.3,0-.4-.2-.4-.5v-9.6c0-.3.2-.5.4-.5h1.1c.3,0,.4.2.4.5v9.6ZM403.7,120c2.3,0,3.8,1.6,3.8,4.1s-1.5,4.1-3.8,4.1-3.8-1.6-3.8-4.1,1.5-4.1,3.8-4.1ZM403.7,126.5c1.1,0,1.9-.9,1.9-2.4s-.7-2.3-1.9-2.3-1.9.9-1.9,2.3.7,2.4,1.9,2.4ZM381.5,131.8c0-1.9,1-2.7,3.3-2.7s5,.1,6.8.3c.3,0,.4.2.4.4v.9c0,.3-.1.4-.4.4-2.1-.2-4.1-.3-6.6-.3s-1.6.3-1.6,1.4,0,1.6,0,2.2c0,.3-.2.5-.4.5h-1c-.3,0-.5-.2-.5-.4,0-.6,0-1.5,0-2.7ZM388.9,120.1h1.1c.3,0,.4.2.4.5v2c0,1.9,1.1,3.3,2.6,3.3s.4.1.4.4v.9c0,.3-.1.4-.4.4-1.8,0-3.1-1.2-3.6-2.5-.5,1.3-1.8,2.5-3.6,2.5s-.4-.1-.4-.4v-.9c0-.3.1-.4.4-.4,1.5,0,2.6-1.4,2.6-3.3v-2c0-.3.2-.5.4-.5ZM383.5,127.4c0,.3-.2.5-.4.5h-1.1c-.3,0-.4-.2-.4-.5v-7.2c0-.3.2-.5.4-.5h1.1c.3,0,.4.2.4.5v7.2ZM373.6,128.3c0,1.5.7,2.3,1.8,2.3s1.8-.8,1.8-2.3-.6-2.3-1.8-2.3-1.8.8-1.8,2.3ZM375.4,124.1c2.3,0,3.7,1.5,3.7,4.2s-1.4,4.2-3.7,4.2-3.7-1.5-3.7-4.2,1.4-4.2,3.7-4.2ZM367.7,128.1c0-.4-.2-.5-.6-.5h-1.1c-.3,0-.4-.1-.4-.4v-1c0-.3.1-.4.4-.4h1c.3,0,.6.1.7.3v-5.8c0-.3.2-.5.4-.5h1.1c.3,0,.4.2.4.5v14.1c0,.3-.2.5-.4.5h-1.1c-.3,0-.4-.2-.4-.5v-6.2ZM374.3,120.8v-1.1c0-.3.1-.4.4-.4h1.1c.3,0,.4.1.4.4v.9c0,.2-.1.4-.3.5h3.1c.3,0,.4.1.4.4v1c0,.3-.1.4-.4.4h-7.6c-.3,0-.4-.1-.4-.4v-1c0-.3.1-.4.4-.4h2.4c.3,0,.4,0,.4-.3ZM357.9,133.5c-2.7,0-4.9-.1-6-.3-.3,0-.4-.2-.4-.5v-.9c0-.3.2-.4.5-.4,1.1.1,3.4.3,5.2.3s.6-.2.6-.5v-3.9c0-.3.2-.5.4-.5h1.1c.3,0,.4.2.4.5v3.7c0,.3-.2.6-.4.7,1.4,0,3.1-.2,4.6-.3.3,0,.5.1.5.4v.9c0,.3-.1.4-.4.5-1.3.2-3.3.3-6,.3ZM357.1,122.5c-1.8,0-2.4.7-2.4,2.6s.1,2.3.3,3.2c0,.3,0,.4-.3.4l-1.2.2c-.3,0-.4,0-.5-.3-.2-1.2-.3-2.2-.3-3.9,0-2.7,1.4-4.1,4-4.1s3.9,0,5.8.3c.3,0,.4.2.4.4v1c0,.3-.2.4-.4.4-1.7-.2-3.4-.3-5.4-.3ZM349.4,134c0,.6-.4,1.1-1,1.2.1.3.3.4.7.4s.2,0,.2.2v.4c0,.1,0,.2-.2.2-1.3,0-2.2-.8-2.2-2.2s.5-1.4,1.3-1.4,1.3.5,1.3,1.2ZM333.2,132.5c-.3,0-.4-.1-.4-.4v-1c0-.3.1-.4.4-.5,1.4-.2,2.6-1.9,2.6-3.9v-5.5c0-.3.2-.5.4-.5h1.1c.3,0,.4.2.4.5v5.5c0,2,1.2,3.7,2.6,3.9.3,0,.4.2.4.5v1c0,.3-.1.4-.4.4-1.6-.2-3.1-1.5-3.6-3.1-.4,1.6-1.9,2.9-3.6,3.1ZM329.1,128.1c0-.4-.2-.5-.6-.5h-1.1c-.3,0-.4-.1-.4-.4v-1c0-.3.1-.4.4-.4h1c.3,0,.6.1.7.3v-5.8c0-.3.2-.5.4-.5h1.1c.3,0,.4.2.4.5v14.1c0,.3-.2.5-.4.5h-1.1c-.3,0-.4-.2-.4-.5v-6.2ZM321.9,133.1c.4,0,.7-.2.7-.5v-1.3c0-.3-.2-.4-.4-.4h-4.9c-.8,0-1.1.2-1.1.9s.7,1.4,1.5,1.4h4.2ZM317.7,126.7l.2-.9c0-.2.2-.3.3-.3s.1,0,.2,0c.8.3,2.1.5,2.9.5,1.9,0,2.4-.1,2.4-.7s-.6-.7-2.9-.7-1.4,0-2.2,0c-.3,0-.4-.1-.4-.4v-.8c0-.3.1-.4.4-.4h.4c-.6-.3-.9-.8-.9-1.5,0-1.1.8-1.5,3-1.5,1.5,0,2.5,0,3.6.2.3,0,.4.2.4.4v.9c0,.3-.2.4-.4.4-1.3-.2-2.6-.2-3.2-.2-1,0-1.4.1-1.4.5s.4.6,1.3.6c3.2,0,4.3.6,4.3,2.4s-1.1,2.5-3.9,2.5-2.9-.3-3.8-.6c-.3-.1-.4-.3-.3-.5ZM314.2,130.8c0-1.2.7-1.8,2.1-1.8h7.5c.5,0,.8.3.8.8v3.6c0,.9-.7,1.5-1.8,1.5h-8.4c-.3,0-.4-.1-.4-.4v-.9c0-.3.1-.4.4-.4h1.2c-.8-.4-1.4-1.3-1.4-2.3ZM314.3,125c0-.4-.2-.5-.6-.5h-1.1c-.3,0-.4-.1-.4-.4v-.9c0-.3.1-.4.4-.4h1c.3,0,.6.1.7.3v-2.8c0-.3.2-.5.4-.5h1.1c.3,0,.4.2.4.5v7.2c0,.3-.2.5-.4.5h-1.1c-.3,0-.4-.2-.4-.5v-2.4ZM307,132c1.6,0,2.9-.1,4-.3.3,0,.5,0,.5.4v1c0,.3-.1.4-.4.4-1.1.2-2.4.3-4.1.3s-3.2,0-4.4-.2c-.3,0-.4-.2-.4-.5v-1c0-.3.2-.4.4-.4,1.1.2,2.7.3,4.3.3ZM306.9,129.5c-2.3,0-3.8-1.8-3.8-4.6s1.5-4.6,3.8-4.6,3.8,1.8,3.8,4.6-1.5,4.6-3.8,4.6ZM308.8,124.9c0-1.6-.7-2.8-1.9-2.8s-1.9,1.1-1.9,2.8.7,2.8,1.9,2.8,1.9-1.1,1.9-2.8ZM299.2,120.2c0-.3.2-.5.4-.5h1.1c.3,0,.4.2.4.5v14.1c0,.3-.2.5-.4.5h-1.1c-.3,0-.4-.2-.4-.5v-14.1ZM289.3,122.5l-.4,4.7c.7,0,1.2,0,1.6-.1.3,0,.4.1.4.3v1.1c0,.2-.1.4-.4.4-.4,0-.9,0-1.4.1v2c0,.3-.2.6-.4.7.9,0,1.9-.2,2.8-.3.3,0,.5.1.5.4v.9c0,.3-.1.4-.4.5-1.3.2-3.3.3-6,.3s-4.9-.1-6-.3c-.3,0-.4-.2-.4-.5v-.9c0-.3.2-.4.5-.4.3,0,1.3.2,1.8.2s.6-.2.6-.5v-2.1c-.6,0-1.1,0-1.5-.1-.3,0-.4-.2-.4-.4v-1.1c0-.2.2-.4.4-.3.4,0,.9,0,1.6.1l-.4-4.7h-.9c-.3,0-.4-.1-.4-.4v-1c0-.3.1-.4.4-.4h9.4c.3,0,.4.1.4.4v1c0,.3-.1.4-.4.4h-.9ZM286.9,127.2l.4-4.7h-3.7s.4,4.7.4,4.7c.4,0,.9,0,1.4,0s1,0,1.4,0ZM284,130.9c0,.4-.2.6-.5.7,1,0,2.2,0,3,0,.4,0,.6-.2.6-.5v-2.1c-.5,0-1,0-1.6,0s-1.1,0-1.5,0v1.9ZM270.7,135.1c-3.7,0-5.6-1.1-5.6-3.2s1.9-3.2,5.6-3.2,5.6,1.1,5.6,3.2-1.9,3.2-5.6,3.2ZM274.5,121.9v.5c0,1.8,1.1,3.2,2.6,3.2s.4.1.4.4v.9c0,.3-.1.4-.4.4-1.8,0-3.1-1.1-3.6-2.4-.5,1.3-1.8,2.4-3.6,2.4s-.4-.1-.4-.4v-.9c0-.3.1-.4.4-.4,1.5,0,2.6-1.3,2.6-3.2v-.5s-2.5,0-2.5,0c-.3,0-.4-.1-.4-.4v-.9c0-.3.1-.4.4-.4h7c.3,0,.4.1.4.4v.9c0,.3-.1.4-.4.4h-2.5ZM267.5,122.3c0,.4.2.5.6.5h1.3c.3,0,.4.1.4.4v.9c0,.3-.1.4-.4.4h-1.2c-.3,0-.6-.1-.7-.3v3.1c0,.3-.2.5-.4.5h-1.1c-.3,0-.4-.2-.4-.5v-7.2c0-.3.2-.5.4-.5h1.1c.3,0,.4.2.4.5v2.1ZM270.7,130.4c-2.7,0-3.6.6-3.6,1.4s.9,1.4,3.6,1.4,3.6-.6,3.6-1.4-.9-1.4-3.6-1.4ZM256.5,121.5c-2.6,0-3.3.3-3.3,1.1s.8,1.1,3.3,1.1,3.3-.3,3.3-1.1-.8-1.1-3.3-1.1ZM250.9,134.3v-.8c0-.3.2-.4.5-.3,1.3.2,3.2.3,4.5.3,3.5,0,4.1,0,4.1-.6s-.4-.6-3.2-.6-4,0-5,0c-.2,0-.4-.1-.4-.4v-.7c0-.3.1-.4.4-.4h.6c-.7-.2-1.1-.8-1.1-1.4s.4-1.2,1.6-1.2c2.2,0,5.8,0,8.4.2.3,0,.4.1.4.4v.8c0,.3-.1.4-.4.4-1.9-.1-5.5-.2-7.2-.2s-.8.2-.8.5.2.5.9.5c.9,0,1.9,0,2.8,0,4,0,5.1.5,5.1,2.1s-1.2,2.2-6.1,2.2-3.3-.1-4.6-.3c-.3,0-.4-.2-.3-.4ZM256.7,125.9c2,0,4.4,0,6-.2.3,0,.4.1.4.4v.8c0,.3-.1.4-.4.4-1,.1-2.9.2-6,.2-2.4,0-4.8,0-6.1-.2-.3,0-.4-.2-.4-.4v-.8c0-.3.2-.4.4-.4,1.3.1,3.2.2,6,.2ZM256.5,125.2c-3.8,0-5.3-.7-5.3-2.6s1.5-2.6,5.3-2.6,5.3.7,5.3,2.6-1.5,2.6-5.3,2.6ZM233.4,124.3c1.6,0,2.1-.3,2.1-1.2s-.5-1.2-2.1-1.2-.7,0-1,0c-.3,0-.4,0-.4-.4v-.9c0-.3.1-.4.4-.5.3,0,.6,0,1,0,2.7,0,3.9.9,3.9,3s0,.7-.1,1c.4.1.9.2,1.4.2,1.5,0,2-.3,2-1.2s-.4-1.2-1.8-1.2-.5,0-.9,0c-.3,0-.4,0-.4-.4v-.9c0-.3.1-.4.4-.5.3,0,.6,0,1,0,2.4,0,3.5.9,3.5,3s-1.1,3-3.7,3-.6,0-.8,0v.8c0,.2-.1.4-.3.5,1.7,0,3.9,0,5.2-.2.3,0,.5.1.5.4v.9c0,.3-.1.4-.4.5-1,.1-2.9.2-6,.2-2.4,0-4.8,0-6-.2-.3,0-.4-.2-.4-.5v-.9c0-.3.2-.4.5-.4,1.2.1,3.2.2,4.6.1.3,0,.4-.2.4-.4v-1.2c-.6.3-1.4.4-2.5.4s-1,0-1.6-.2c-.2,0-.4-.3-.3-.5v-.9c.1-.3.3-.4.6-.3.4,0,.8.1,1.2.1ZM231.7,132.5c0-2,.9-2.7,3.2-2.7s4.7.1,7,.3c.3,0,.4.2.4.4v.9c0,.3-.1.4-.4.4-2.3-.2-4.7-.3-6.9-.3s-1.4.3-1.4,1.4,0,1,0,1.4c0,.3-.2.5-.4.5h-1c-.3,0-.5-.2-.5-.4,0-.5-.1-1-.1-2ZM223.5,126.9h-1.1c-.3,0-.4-.1-.5-.4-.2-.8-.6-2.2-.6-3.3,0-2.2.8-3,3-3s2.7.1,4,.3c.3,0,.4.2.4.5v1c0,.3-.2.5-.4.4-1.1-.2-2-.3-3.9-.3s-1.1.3-1.1,1.1.3,2.2.6,3.3c0,.3-.1.5-.4.5ZM227.5,128.3v.8c0,.3-.1.4-.4.4h-9.4c-.3,0-.4-.1-.4-.4v-.8c0-.3.1-.4.4-.4h9.4c.3,0,.4.1.4.4ZM217.4,124.5c0-.4-.2-.5-.6-.5h-1.1c-.3,0-.4-.1-.4-.4v-.9c0-.3.1-.4.4-.4h1c.3,0,.6.1.7.3v-2.3c0-.3.2-.5.4-.5h1.1c.3,0,.4.2.4.5v6.3c0,.3-.2.5-.4.5h-1.1c-.3,0-.4-.2-.4-.5v-2ZM222.3,130.4c3.9,0,5.3.6,5.3,2.3s-1.3,2.4-5.3,2.4-3.8-.1-5-.2c-.3,0-.4-.2-.4-.4v-.9c0-.3.2-.4.5-.3,1.2.2,2.7.2,4.9.2s3.4-.2,3.4-.8-.7-.7-3.2-.7-3,0-4.8.1c-.3,0-.4-.1-.4-.4v-.8c0-.3,0-.4.3-.4,1.1,0,2.8-.1,4.7-.1ZM210.3,120.6c2.6,0,3.8,1.9,3.8,6.1s-1.2,6.1-3.8,6.1-3.8-1.9-3.8-6.1,1.2-6.1,3.8-6.1ZM208.5,126.7c0,3,.6,4.2,1.9,4.2s1.9-1.2,1.9-4.2-.6-4.2-1.9-4.2-1.9,1.2-1.9,4.2ZM204.2,134.3c0,.3-.2.5-.4.5h-1.1c-.3,0-.4-.2-.4-.5v-14.1c0-.3.2-.5.4-.5h1.1c.3,0,.4.2.4.5v14.1ZM191.9,130.8c1.2,0,1.7-1.1,1.7-4s-.3-4.1-1.4-4.1-.4,0-.6,0c-.3,0-.4,0-.4-.4v-1c0-.3.1-.4.4-.5.2,0,.5,0,.8,0,2.2,0,3.1,1.6,3.1,5.9s-1.2,5.9-3.3,5.9-1.2-.1-1.8-.3c-.2,0-.4-.3-.3-.5v-.3c-.5.7-1.2,1.1-2,1.1s-1.1,0-1.5-.3c-.2,0-.4-.3-.3-.5l.2-1c0-.2.1-.4.3-.4s.1,0,.2,0c.4.1.7.2,1,.2,1.1,0,1.5-1,1.5-4s-.3-4.1-1.4-4.1-.5,0-.7,0c-.3,0-.4,0-.4-.4v-1c0-.3.1-.4.4-.5.2,0,.5,0,.9,0,2.3,0,3.1,1.6,3.1,5.9s-.2,2.8-.5,3.7c0,0,0,0,0,0,.5.2.9.3,1.2.3ZM183.4,128.1c0-.4-.2-.5-.6-.5h-.8c-.3,0-.4-.1-.4-.4v-1c0-.3.1-.4.4-.4h.7c.3,0,.6.1.7.3v-5.8c0-.3.2-.5.4-.5h1.1c.3,0,.4.2.4.5v14.1c0,.3-.2.5-.4.5h-1.1c-.3,0-.4-.2-.4-.5v-6.2ZM178.4,129.2c0-1.2-.7-1.7-2.7-1.7s-1.4,0-2.3,0-.4-.1-.4-.4v-.9c0-.3.1-.4.4-.4h.5c-.7-.5-1.1-1.4-1.1-2.5,0-1.6,1.1-2.5,3.1-2.5s2.2,0,3.5.2c.3,0,.4.2.4.4v1.1c0,.3-.2.4-.4.4-1.4-.2-2.4-.3-3-.3-1.1,0-1.6.5-1.6,1.5s.5,1.5,1.5,1.5c2.8,0,4.1,1.1,4.1,3.4s-1.3,3.6-4,3.6-2.3-.2-3.7-.7c-.3-.1-.4-.3-.3-.5l.3-1c0-.2.2-.3.3-.3s.1,0,.2,0c1,.4,1.9.6,2.8.6,1.8,0,2.5-.5,2.5-1.7ZM168.9,128.1c0-.4-.2-.5-.6-.5h-1.1c-.3,0-.4-.1-.4-.4v-1c0-.3.1-.4.4-.4h1c.3,0,.6.1.7.3v-5.8c0-.3.2-.5.4-.5h1.1c.3,0,.4.2.4.5v14.1c0,.3-.2.5-.4.5h-1.1c-.3,0-.4-.2-.4-.5v-6.2ZM160,128.3c0,1.5.7,2.3,1.8,2.3s1.8-.8,1.8-2.3-.6-2.3-1.8-2.3-1.8.8-1.8,2.3ZM161.8,124.1c2.3,0,3.7,1.5,3.7,4.2s-1.4,4.2-3.7,4.2-3.7-1.5-3.7-4.2,1.4-4.2,3.7-4.2ZM154.1,128.1c0-.4-.2-.5-.6-.5h-1.1c-.3,0-.4-.1-.4-.4v-1c0-.3.1-.4.4-.4h1c.3,0,.6.1.7.3v-5.8c0-.3.2-.5.4-.5h1.1c.3,0,.4.2.4.5v14.1c0,.3-.2.5-.4.5h-1.1c-.3,0-.4-.2-.4-.5v-6.2ZM160.8,120.8v-1.1c0-.3.1-.4.4-.4h1.1c.3,0,.4.1.4.4v.9c0,.2-.1.4-.3.5h3.1c.3,0,.4.1.4.4v1c0,.3-.1.4-.4.4h-7.6c-.3,0-.4-.1-.4-.4v-1c0-.3.1-.4.4-.4h2.4c.3,0,.4,0,.4-.3ZM148.1,130.6c.4,0,.7-.2.7-.5v-7c0-.3-.2-.4-.4-.4h-1.3c-1.3,0-1.7.9-1.7,3.8s.7,4.2,1.9,4.2h.8ZM149.9,120.8c.5,0,.8.3.8.8v9.4c0,.9-.7,1.5-1.8,1.5h-5c-.3,0-.4-.1-.4-.4v-1c0-.3.1-.4.4-.4h1.1c-1-1.1-1.6-3.1-1.6-5.6s.8-4.2,3.2-4.2h3.3ZM141.6,122.9h.9c.3,0,.4.1.4.4v1c0,.3-.1.4-.4.4h-.8c-.3,0-.6-.1-.7-.3v3.2c0,.4.2.5.6.5h.9c.3,0,.4.1.4.4v1c0,.3-.1.4-.4.4h-.8c-.3,0-.6-.1-.7-.3v4.6c0,.3-.2.5-.4.5h-1.1c-.3,0-.4-.2-.4-.5v-14.1c0-.3.2-.5.4-.5h1.1c.3,0,.4.2.4.5v2.2c0,.4.2.5.6.5ZM130.5,131.9c0,2-1.4,3.2-3.7,3.2s-5-.1-6.7-.3c-.3,0-.4-.2-.4-.4v-.9c0-.3.2-.4.5-.4,2,.2,3.7.3,6.7.3s1.7-.5,1.7-1.6,0-1.3-.1-1.7.2-.5.4-.5h1c.3,0,.4.2.5.4,0,.4.1,1.2.1,1.9ZM122.1,129.8c0,.3-.2.5-.4.5h-1.1c-.3,0-.4-.2-.4-.5v-9.6c0-.3.2-.5.4-.5h1.1c.3,0,.4.2.4.5v9.6ZM128.2,120c2.3,0,3.8,1.6,3.8,4.1s-1.5,4.1-3.8,4.1-3.8-1.6-3.8-4.1,1.5-4.1,3.8-4.1ZM128.2,126.5c1.1,0,1.9-.9,1.9-2.4s-.7-2.3-1.9-2.3-1.9.9-1.9,2.3.7,2.4,1.9,2.4ZM112.5,128.1h-1.1c-.3,0-.4-.1-.5-.4-.3-1.4-.6-3.2-.6-4.2,0-2.3,1-3.3,3.3-3.3s2.5.1,3.8.3c.3,0,.4.2.4.5v1c0,.3-.2.5-.4.4-1.1-.2-1.8-.3-3.7-.3s-1.4.4-1.4,1.4.3,2.9.6,4.2c0,.3,0,.5-.4.5ZM106.4,126.2c0-.4-.2-.5-.6-.5h-1.1c-.3,0-.4-.1-.4-.4v-.9c0-.3.1-.4.4-.4h1c.3,0,.6.1.7.3v-4c0-.3.2-.5.4-.5h1.1c.3,0,.4.2.4.5v9.6c0,.3-.2.5-.4.5h-1.1c-.3,0-.4-.2-.4-.5v-3.6ZM116.4,131.9c0,2-1.4,3.2-3.7,3.2s-4.7-.1-6.4-.3c-.3,0-.4-.2-.4-.4v-.9c0-.3.2-.4.5-.4,2,.2,3.5.3,6.4.3s1.7-.5,1.7-1.6,0-1.3-.1-1.7c0-.3.2-.5.4-.5h1c.3,0,.4.2.5.4,0,.4.1,1.2.1,1.9ZM99.2,133.8c-1.6,0-3,0-4.2-.2-.3,0-.4-.2-.4-.5v-1c0-.3.2-.4.4-.4.6.1,1.9.2,3.2.2s.6-.2.6-.5v-4.3c0-.3.2-.5.4-.5h1.1c.3,0,.4.2.4.5v4.1c0,.3-.2.6-.4.7,1,0,1.8-.1,2.7-.3.3,0,.5,0,.5.4v1c0,.3-.1.4-.4.4-1.1.2-2.2.3-3.9.3ZM97.1,124.1c0,1.2.1,2.7.5,4.2,0,.3,0,.4-.3.4l-1.2.2c-.3,0-.4,0-.5-.3-.3-1.4-.5-3.2-.5-4.8s.8-3.3,3.3-3.3,2.8.1,3.7.3c.3,0,.4.2.4.4v1c0,.3-.2.5-.4.4-1.1-.2-2.3-.3-3.5-.3s-1.6.5-1.6,1.8ZM91.6,128.1c0-.4-.2-.5-.6-.5h-1.1c-.3,0-.4-.1-.4-.4v-1c0-.3.1-.4.4-.4h1c.3,0,.6.1.7.3v-5.8c0-.3.2-.5.4-.5h1.1c.3,0,.4.2.4.5v14.1c0,.3-.2.5-.4.5h-1.1c-.3,0-.4-.2-.4-.5v-6.2ZM76.9,133.5c-2.6,0-4.9-.1-6-.3-.3,0-.4-.2-.4-.5v-.9c0-.3.2-.4.5-.4,1.2.2,2.9.3,4.4.3s.6-.2.6-.5v-2.1c0-.3.2-.5.4-.5h1.1c.3,0,.4.2.4.5v2c0,.3-.2.6-.4.7,1.9,0,4.2-.2,5.4-.3.3,0,.5.1.5.4v.9c0,.3-.1.4-.4.5-1.3.2-3.3.3-6,.3ZM72.2,128.9c-.3,0-.6,0-.6-.4v-1.1c0-.3.1-.4.4-.4,2.3,0,3.8-1.5,3.8-3.6v-2.4c0-.3.2-.5.4-.5h1.1c.3,0,.4.2.4.5v2.4c0,2.1,1.6,3.6,3.8,3.6s.4.1.4.4v1.1c0,.4-.3.4-.6.4-2,0-3.9-1.2-4.7-2.8-.7,1.7-2.6,2.8-4.6,2.8ZM62.2,122.3c4.1,0,5.2.5,5.2,2s-.8,2-4.3,2.1v.5c0,.2-.1.4-.3.5,1.7,0,4,0,5.3-.2.3,0,.4.1.4.4v.8c0,.3-.1.4-.4.4-1,.1-2.9.2-6,.2-2.4,0-4.8,0-6.1-.2-.3,0-.4-.2-.4-.4v-.8c0-.3.1-.4.4-.4,1.2.1,3.3.2,4.6.1.3,0,.4-.2.4-.4v-.6c-1.4,0-2.7,0-3.9-.2-.3,0-.4-.2-.4-.4v-.8c0-.3.2-.4.5-.3,1.1.2,2.7.2,4.8.2s3.3-.1,3.3-.6-.5-.5-3.1-.5-2.9,0-4.7.1c-.3,0-.4-.1-.4-.4v-.8c0-.3,0-.4.3-.4,1.1,0,2.7-.1,4.6-.1ZM62,135.1c-3.8,0-5.6-.8-5.6-2.7s1.8-2.7,5.6-2.7,5.6.8,5.6,2.7-1.8,2.7-5.6,2.7ZM67.3,120.5v.7c0,.3-.1.4-.4.4h-9.3c-.3,0-.4-.1-.4-.4v-.7c0-.3.1-.4.4-.4h9.3c.3,0,.4.1.4.4ZM62,131.3c-2.6,0-3.6.3-3.6,1.1s1.1,1.1,3.6,1.1,3.6-.3,3.6-1.1-1-1.1-3.6-1.1ZM48.3,128.3c0,1.5.7,2.3,1.8,2.3s1.8-.8,1.8-2.3-.6-2.3-1.8-2.3-1.8.8-1.8,2.3ZM50.1,124.1c2.3,0,3.7,1.5,3.7,4.2s-1.4,4.2-3.7,4.2-3.7-1.5-3.7-4.2,1.4-4.2,3.7-4.2ZM42.4,128.1c0-.4-.2-.5-.6-.5h-1.1c-.3,0-.4-.1-.4-.4v-1c0-.3.1-.4.4-.4h1c.3,0,.6.1.7.3v-5.8c0-.3.2-.5.4-.5h1.1c.3,0,.4.2.4.5v14.1c0,.3-.2.5-.4.5h-1.1c-.3,0-.4-.2-.4-.5v-6.2ZM49,120.8v-1.1c0-.3.1-.4.4-.4h1.1c.3,0,.4.1.4.4v.9c0,.2-.1.4-.3.5h3.1c.3,0,.4.1.4.4v1c0,.3-.1.4-.4.4h-7.6c-.3,0-.4-.1-.4-.4v-1c0-.3.1-.4.4-.4h2.4c.3,0,.4,0,.4-.3ZM439.5,151.3c0,2-1.2,3.1-3.5,3.1s-5-.1-6.7-.3c-.3,0-.4-.2-.4-.4v-.9c0-.3.2-.4.5-.4,2,.2,3.8.3,6.4.3s1.6-.4,1.6-1.4,0-1.9-.1-2.6c0-.3.1-.5.4-.5h1c.3,0,.5.2.5.4,0,.8.1,2.1.1,2.7ZM439.8,160c0,2-1.3,3.1-3.6,3.1s-5.3-.1-7-.3c-.3,0-.4-.2-.4-.4v-.9c0-.3.2-.4.5-.4,2,.2,3.9.3,7,.3s1.6-.4,1.6-1.4,0-.8-.1-1.2c0-.3.1-.5.4-.5h1c.3,0,.5.2.5.4,0,.3.1.8.1,1.3ZM440.9,155.8v.9c0,.3-.1.4-.4.5-1,.1-2.9.2-6,.2-2.4,0-4.8,0-6-.2-.3,0-.4-.2-.4-.5v-.9c0-.3.2-.4.5-.4,1.3.1,3.2.2,6,.2s4.4,0,5.9-.2c.3,0,.5.1.5.4ZM413.9,152.5c0-2.6,1-3.7,3.3-3.7s2.4.1,3.7.3c.3,0,.4.2.4.5v1c0,.3-.2.5-.4.4-1.1-.2-2.1-.3-3.3-.3s-1.7.5-1.7,2c0,2.5.2,4.9.6,7.4,0,.3-.1.5-.4.5h-1.1c-.3,0-.4-.1-.5-.4-.4-2.5-.6-4.9-.6-7.6ZM411.7,162.3c0,.3-.2.5-.4.5h-1.1c-.3,0-.4-.2-.4-.5v-14.1c0-.3.2-.5.4-.5h1.1c.3,0,.4.2.4.5v14.1ZM395.1,162.3v-.8c0-.3.2-.4.5-.3,1.3.2,3.2.3,4.5.3,3.5,0,4.1,0,4.1-.6s-.4-.6-3.2-.6-4,0-5,0c-.2,0-.4-.1-.4-.4v-.7c0-.3.1-.4.4-.4h.6c-.7-.2-1.1-.8-1.1-1.4s.4-1.2,1.6-1.2c.8,0,1.8,0,2.9,0v-.4c0-.3-.1-.4-.4-.4-1.3,0-3.4,0-4.6-.2-.3,0-.4-.2-.4-.4v-.8c0-.3.2-.4.4-.4,1.2.1,3.6.2,6,.2,3.1,0,4.9,0,6-.2.3,0,.4.1.4.4v.8c0,.3-.1.4-.4.4-1.3.1-3.6.2-5.3.2.1,0,.2.2.2.4v.5c1.3,0,2.5.1,3.6.2.3,0,.4.1.4.4v.8c0,.3-.1.4-.4.4-1.9-.1-5.5-.2-7.2-.2s-.8.2-.8.5.2.5.9.5c.9,0,1.9,0,2.8,0,4,0,5.1.5,5.1,2.1s-1.2,2.2-6.1,2.2-3.3-.1-4.6-.3c-.3,0-.4-.2-.3-.4ZM401.3,148.1c.3,0,.4.2.4.5v.2c0,1.4,1.5,2.7,3.9,2.7s.4.1.4.4v.9c0,.3-.1.4-.4.4-2,.1-4.1-1.1-4.8-2.3-.7,1.3-2.8,2.4-4.8,2.3-.3,0-.4-.1-.4-.4v-.9c0-.3,0-.4.4-.4,2.3,0,3.9-1.2,3.9-2.7v-.2c0-.3.2-.5.4-.5h1.1ZM388.9,148.6c2.6,0,3.8,1.9,3.8,6.1,0,4.2-1.2,6.1-3.8,6.1s-3.8-1.9-3.8-6.1c0-4.2,1.2-6.1,3.8-6.1ZM387,154.7c0,3,.6,4.2,1.9,4.2s1.9-1.2,1.9-4.2-.6-4.2-1.9-4.2-1.9,1.2-1.9,4.2ZM382.8,162.3c0,.3-.2.5-.4.5h-1.1c-.3,0-.4-.2-.4-.5v-14.1c0-.3.2-.5.4-.5h1.1c.3,0,.4.2.4.5v14.1ZM373.2,150.7l-.3,7.8c.4,0,.8,0,1.1-.1.3,0,.4.1.4.4v1c0,.3-.1.4-.4.4-.9.1-2.1.2-3.4.2s-2.7-.1-3.4-.2c-.3,0-.4-.1-.4-.4v-1c0-.3.1-.5.4-.4.3,0,.7,0,1.1.1l-.3-7.8h-.6c-.3,0-.4-.1-.4-.4v-1c0-.3.1-.4.4-.4h6.4c.3,0,.4.1.4.4v1c0,.3-.1.4-.4.4h-.6ZM367.7,154.1v1c0,.3-.1.4-.4.4h-1.4c-.2,0-.5-.1-.6-.3v7.2c0,.3-.1.4-.4.4h-1c-.3,0-.4-.1-.4-.4v-14c0-.3.1-.4.4-.4h1c.3,0,.4.1.4.4v4.8c0,.3.1.5.5.5h1.5c.3,0,.4.1.4.4ZM360.9,147.7h1c.3,0,.4.1.4.4v14.2c0,.3-.1.4-.4.4h-1c-.3,0-.4-.1-.4-.4v-14.2c0-.3.1-.4.4-.4ZM371.4,150.7h-1.6s.3,7.9.3,7.9h1s.3-7.9.3-7.9ZM354.4,148.6c2.6,0,3.8,1.9,3.8,6.1,0,4.2-1.2,6.1-3.8,6.1s-3.8-1.9-3.8-6.1c0-4.2,1.2-6.1,3.8-6.1ZM352.6,154.7c0,3,.6,4.2,1.9,4.2s1.9-1.2,1.9-4.2-.6-4.2-1.9-4.2-1.9,1.2-1.9,4.2ZM348.3,162.3c0,.3-.2.5-.4.5h-1.1c-.3,0-.4-.2-.4-.5v-14.1c0-.3.2-.5.4-.5h1.1c.3,0,.4.2.4.5v14.1ZM332.8,156.9c-.3,0-.6,0-.6-.4v-1.1c0-.3.1-.4.4-.4,2.3,0,3.8-1.5,3.8-3.6v-2.4c0-.3.2-.5.4-.5h1.1c.3,0,.4.2.4.5v2.4c0,2.1,1.6,3.6,3.8,3.6s.4.1.4.4v1.1c0,.4-.3.4-.6.4-2,0-3.9-1.2-4.7-2.8-.7,1.7-2.6,2.8-4.6,2.8ZM343.9,159.8v.9c0,.3-.1.4-.4.5-1.3.2-3.3.3-6,.3s-4.9-.1-6-.3c-.3,0-.4-.2-.4-.5v-.9c0-.3.2-.4.5-.4,1.3.2,3.6.3,6,.3s4.3-.1,5.9-.3c.3,0,.5.1.5.4ZM322.5,159.4l.3-.9c0-.2.2-.3.4-.3s.2,0,.2,0c.8.4,1.5.6,2.2.6,1.4,0,2-.8,2-2.3s-.7-2.4-2.4-2.4-.8,0-1.6.1c-.3,0-.4-.1-.4-.4v-1c0-.3.1-.4.4-.5.6-.1,1.1-.2,1.9-.2,2.8,0,4.1,1.3,4.1,4.3,0,2.7-1.4,4.2-3.8,4.2s-2-.2-3-.7c-.3-.1-.4-.3-.3-.6ZM323,155.5v1c0,.3-.1.4-.4.4h-1.1c-.2,0-.5-.1-.6-.3v5.7c0,.3-.1.4-.4.4h-1c-.3,0-.4-.1-.4-.4v-14c0-.3.1-.4.4-.4h1c.3,0,.4.1.4.4v6.3c0,.3.1.5.5.5h1.2c.3,0,.4.1.4.4ZM316.4,147.7h1c.3,0,.4.1.4.4v14.2c0,.3-.1.4-.4.4h-1c-.3,0-.4-.1-.4-.4v-14.2c0-.3.1-.4.4-.4ZM323.2,150.7c-.3,0-.4-.1-.4-.4v-1c0-.3.1-.4.4-.4h5.7c.3,0,.4.1.4.4v1c0,.3-.1.4-.4.4h-5.7ZM306.4,150.5c-1.8,0-2.4.7-2.4,2.5,2.8,0,5.9.1,7.6.3.3,0,.4.2.4.4v1c0,.3-.1.4-.4.4-1.9-.2-5-.3-7.6-.3,0,.6.1,1.2.2,1.6,0,.3,0,.4-.3.4l-1.2.2c-.3,0-.4,0-.5-.3-.2-1.2-.3-2.4-.3-4.1,0-2.7,1.4-4.1,4-4.1s3.9,0,5.8.3c.3,0,.4.2.4.4v1c0,.3-.2.4-.4.4-1.7-.2-3.4-.3-5.4-.3ZM313.6,159.8v.9c0,.3-.1.4-.4.5-1.3.2-3.3.3-6,.3s-4.9-.1-6-.3c-.3,0-.4-.2-.4-.5v-.9c0-.3.2-.4.5-.4,1.3.2,3.6.3,6,.3s4.3-.1,5.9-.3c.3,0,.5.1.5.4ZM295.2,148.6c2.6,0,3.8,1.9,3.8,6.1,0,4.2-1.2,6.1-3.8,6.1s-3.8-1.9-3.8-6.1c0-4.2,1.2-6.1,3.8-6.1ZM293.3,154.7c0,3,.6,4.2,1.9,4.2s1.9-1.2,1.9-4.2-.6-4.2-1.9-4.2-1.9,1.2-1.9,4.2ZM289.1,162.3c0,.3-.2.5-.4.5h-1.1c-.3,0-.4-.2-.4-.5v-14.1c0-.3.2-.5.4-.5h1.1c.3,0,.4.2.4.5v14.1ZM279.9,150.7c-.9,0-1.4,0-2.1.2-.3,0-.4-.1-.4-.4v-1c0-.3.1-.4.4-.4.6-.1,1.3-.1,2.3-.1,3.2,0,4.8,1.8,4.8,5.9s-1.5,5.9-4.6,5.9-2-.2-3.1-.7c-.3-.1-.4-.3-.4-.5l.3-1c0-.2.2-.4.3-.4s.1,0,.2,0c1,.4,1.9.6,2.6.6,1.9,0,2.8-1.3,2.8-4s-.8-4.1-2.9-4.1ZM273.4,156.1c0-.4-.2-.5-.6-.5h-1.1c-.3,0-.4-.1-.4-.4v-1c0-.3.1-.4.4-.4h1c.3,0,.6.1.7.3v-5.8c0-.3.2-.5.4-.5h1.1c.3,0,.4.2.4.5v14.1c0,.3-.2.5-.4.5h-1.1c-.3,0-.4-.2-.4-.5v-6.2ZM268.6,163.2c-.8,0-1.3-.5-1.3-1.2s.5-1.2,1.3-1.2,1.3.5,1.3,1.2-.5,1.2-1.3,1.2ZM249.1,158.7c0-1.3.7-2,2.1-2h7.8c.5,0,.8.3.8.8v3.9c0,.9-.7,1.5-1.8,1.5h-8.8c-.3,0-.4-.1-.4-.4v-.9c0-.3.1-.4.4-.4h1.2c-.9-.5-1.4-1.4-1.4-2.4ZM258.1,149.9v.5c0,1.8,1.1,3.2,2.6,3.2s.4.1.4.4v.9c0,.3-.1.4-.4.4-1.8,0-3.1-1.1-3.6-2.4-.5,1.3-1.8,2.4-3.6,2.4s-.4-.1-.4-.4v-.9c0-.3.1-.4.4-.4,1.5,0,2.6-1.3,2.6-3.2v-.5s-2.5,0-2.5,0c-.3,0-.4-.1-.4-.4v-.9c0-.3.1-.4.4-.4h7c.3,0,.4.1.4.4v.9c0,.3-.1.4-.4.4h-2.5ZM251.2,150.3c0,.4.2.5.6.5h1.3c.3,0,.4.1.4.4v.9c0,.3-.1.4-.4.4h-1.2c-.3,0-.6-.1-.7-.3v2.8c0,.3-.2.5-.4.5h-1.1c-.3,0-.4-.2-.4-.5v-6.8c0-.3.2-.5.4-.5h1.1c.3,0,.4.2.4.5v2.1ZM257.2,161.1c.4,0,.7-.2.7-.5v-1.7c0-.3-.2-.4-.4-.4h-5.2c-.8,0-1.1.3-1.1,1.1s.7,1.6,1.5,1.6h4.6ZM235,158.7c0-1.3.7-2,2.1-2h7.8c.5,0,.8.3.8.8v3.9c0,.9-.7,1.5-1.8,1.5h-8.8c-.3,0-.4-.1-.4-.4v-.9c0-.3.1-.4.4-.4h1.2c-.9-.5-1.4-1.4-1.4-2.4ZM244,149.9v.5c0,1.8,1.1,3.2,2.6,3.2s.4.1.4.4v.9c0,.3-.1.4-.4.4-1.8,0-3.1-1.1-3.6-2.4-.5,1.3-1.8,2.4-3.6,2.4s-.4-.1-.4-.4v-.9c0-.3.1-.4.4-.4,1.5,0,2.6-1.3,2.6-3.2v-.5s-2.5,0-2.5,0c-.3,0-.4-.1-.4-.4v-.9c0-.3.1-.4.4-.4h7c.3,0,.4.1.4.4v.9c0,.3-.1.4-.4.4h-2.5ZM237,150.3c0,.4.2.5.6.5h1.3c.3,0,.4.1.4.4v.9c0,.3-.1.4-.4.4h-1.2c-.3,0-.6-.1-.7-.3v2.8c0,.3-.2.5-.4.5h-1.1c-.3,0-.4-.2-.4-.5v-6.8c0-.3.2-.5.4-.5h1.1c.3,0,.4.2.4.5v2.1ZM243,161.1c.4,0,.7-.2.7-.5v-1.7c0-.3-.2-.4-.4-.4h-5.2c-.8,0-1.1.3-1.1,1.1s.7,1.6,1.5,1.6h4.6ZM223.1,150.7c-.9,0-1.4,0-2.1.2-.3,0-.4-.1-.4-.4v-1c0-.3.1-.4.4-.4.6-.1,1.3-.1,2.3-.1,3.2,0,4.8,1.8,4.8,5.9s-1.5,5.9-4.6,5.9-2-.2-3.1-.7c-.3-.1-.4-.3-.4-.5l.3-1c0-.2.2-.4.3-.4s.1,0,.2,0c1,.4,1.9.6,2.6.6,1.9,0,2.8-1.3,2.8-4s-.8-4.1-2.9-4.1ZM218.2,153.1c0,.4.2.5.6.5h2.6c.3,0,.4.1.4.4v1c0,.3-.1.4-.4.4h-2.5c-.3,0-.6-.1-.7-.3v7.2c0,.3-.2.5-.4.5h-1.1c-.3,0-.4-.2-.4-.5v-14.1c0-.3.2-.5.4-.5h1.1c.3,0,.4.2.4.5v4.9ZM201.7,160.5c-.3,0-.4-.1-.4-.4v-1c0-.3.1-.4.4-.5,1.4-.2,2.6-1.9,2.6-3.9v-5.5c0-.3.2-.5.4-.5h1.1c.3,0,.4.2.4.5v5.5c0,2,1.2,3.7,2.6,3.9.3,0,.4.2.4.5v1c0,.3-.1.4-.4.4-1.6-.2-3.1-1.5-3.6-3.1-.4,1.6-1.9,2.9-3.6,3.1ZM197.7,156.1c0-.4-.2-.5-.6-.5h-1.1c-.3,0-.4-.1-.4-.4v-1c0-.3.1-.4.4-.4h1c.3,0,.6.1.7.3v-5.8c0-.3.2-.5.4-.5h1.1c.3,0,.4.2.4.5v14.1c0,.3-.2.5-.4.5h-1.1c-.3,0-.4-.2-.4-.5v-6.2ZM191.3,157.7v1.6c0,.3-.2.6-.4.7,1.2,0,2.6-.1,3.5-.3.3,0,.5,0,.5.4v1c0,.3-.1.4-.4.4-1.1.2-2.4.3-4.1.3s-3.2,0-4.4-.2c-.3,0-.4-.2-.4-.5v-1c0-.3.2-.4.4-.4.6.1,1.6.2,2.7.2s.6-.2.6-.5v-1.8c-1.7-.3-2.7-1.3-2.7-2.9s1.3-2.9,3.7-2.9,3.7,1,3.7,2.9-1,2.7-2.8,2.9ZM182.5,148.2c0-.3.2-.5.4-.5h1.1c.3,0,.4.2.4.5v14.1c0,.3-.2.5-.4.5h-1.1c-.3,0-.4-.2-.4-.5v-14.1ZM189.4,148.7v-.8c0-.3.1-.4.4-.4h1.1c.3,0,.4.1.4.4v.6c0,.2-.1.4-.3.5h3.1c.3,0,.4.1.4.4v1c0,.3-.1.4-.4.4h-7.6c-.3,0-.4-.1-.4-.4v-1c0-.3.1-.4.4-.4h2.4c.3,0,.4,0,.4-.3ZM190.4,153.6c-1.2,0-1.8.4-1.8,1.1s.6,1.2,1.8,1.2,1.8-.4,1.8-1.2-.6-1.1-1.8-1.1ZM177.4,149.9v.7c0,1.9,1.1,3.3,2.6,3.3s.4.1.4.4v.9c0,.3-.1.4-.4.4-1.8,0-3.1-1.2-3.6-2.5-.5,1.3-1.8,2.5-3.6,2.5s-.4-.1-.4-.4v-.9c0-.3.1-.4.4-.4,1.5,0,2.6-1.4,2.6-3.3v-.7s-2.5,0-2.5,0c-.3,0-.4-.1-.4-.4v-.9c0-.3.1-.4.4-.4h7c.3,0,.4.1.4.4v.9c0,.3-.1.4-.4.4h-2.5ZM168.5,159.8c0-1.9,1-2.7,3.3-2.7s5,.1,6.8.3c.3,0,.4.2.4.4v.9c0,.3-.1.4-.4.4-2.1-.2-4.1-.3-6.6-.3s-1.6.3-1.6,1.4,0,1.6,0,2.2c0,.3-.2.5-.4.5h-1c-.3,0-.5-.2-.5-.4,0-.6,0-1.5,0-2.7ZM170.4,150.5c0,.4.2.5.6.5h1.3c.3,0,.4.1.4.4v.9c0,.3-.1.4-.4.4h-1.2c-.3,0-.6-.1-.7-.3v2.9c0,.3-.2.5-.4.5h-1.1c-.3,0-.4-.2-.4-.5v-7.2c0-.3.2-.5.4-.5h1.1c.3,0,.4.2.4.5v2.3ZM157.7,154.5c1.1,0,1.8-.9,1.8-2.4s-.7-2.3-1.8-2.3-1.8.9-1.8,2.3.7,2.4,1.8,2.4ZM157.7,148c2.3,0,3.7,1.6,3.7,4.1s-1.5,4.1-3.7,4.1-3.7-1.6-3.7-4.1,1.5-4.1,3.7-4.1ZM149.6,148.2c0-.3.2-.5.4-.5h1.1c.3,0,.4.2.4.5v.7c0,.3.1.5.5.5h1.2c.3,0,.4.1.4.4v.9c0,.3-.1.4-.4.4h-1c-.3,0-.6-.1-.7-.3v1.8c0,.3.1.5.5.5h1.2c.3,0,.4.1.4.4v.9c0,.3-.1.4-.4.4h-1c-.3,0-.6-.1-.7-.3v3.2c0,.3-.2.5-.4.5h-1.1c-.3,0-.4-.2-.4-.5v-9.6ZM160,159.9c0,2-1.4,3.2-3.7,3.2s-5-.1-6.7-.3c-.3,0-.4-.2-.4-.4v-.9c0-.3.2-.4.5-.4,2,.2,3.7.3,6.7.3s1.7-.5,1.7-1.6,0-1.3-.1-1.7.2-.5.4-.5h1c.3,0,.4.2.5.4,0,.4.1,1.2.1,1.9ZM142.2,154.9h-1.1c-.3,0-.4-.1-.5-.4-.2-.8-.6-2.2-.6-3.3,0-2.2.8-3,3-3s2.6.1,3.9.3c.3,0,.4.2.4.5v1c0,.3-.2.5-.4.4-1.1-.2-1.8-.3-3.8-.3s-1.1.3-1.1,1.1.3,2.2.6,3.3c0,.3-.1.5-.4.5ZM135,162.3v-.8c0-.3.2-.4.5-.3,1.4.2,3.2.3,4.4.3,3.5,0,4.2,0,4.2-.6s-.5-.6-3.3-.6-3.7,0-4.9,0c-.3,0-.4-.1-.4-.4v-.8c0-.3.1-.4.4-.4h.6c-.7-.2-1.1-.8-1.1-1.5s.5-1.3,1.5-1.4c2.2,0,5.9,0,8.4.2.3,0,.4.1.4.4v.9c0,.3-.1.4-.4.4-1.9-.1-5.5-.2-7.2-.2s-.8.2-.8.6.3.5.9.5c.9,0,1.8,0,2.7,0,3.9,0,5.2.5,5.2,2.2s-1.3,2.3-6.2,2.3-3.1-.1-4.5-.3c-.3,0-.4-.2-.4-.4ZM137.4,154.5c0,.3-.2.5-.4.5h-1.1c-.3,0-.4-.2-.4-.5v-6.3c0-.3.2-.5.4-.5h1.1c.3,0,.4.2.4.5v.4c0,.3.1.4.4.4h1.2c.3,0,.4.1.4.4v.9c0,.3-.1.4-.4.4h-1c-.3,0-.5-.1-.6-.3v1.3c0,.3.1.4.4.4h1.2c.3,0,.4.1.4.4v.9c0,.3-.1.4-.4.4h-1c-.3,0-.5-.1-.6-.3v.9ZM126.6,161.5c-2.7,0-4.9-.1-6-.3-.3,0-.4-.2-.4-.5v-.9c0-.3.2-.4.5-.4,1.1.1,3.4.3,5.2.3s.6-.2.6-.5v-3.9c0-.3.2-.5.4-.5h1.1c.3,0,.4.2.4.5v3.7c0,.3-.2.6-.4.7,1.4,0,3.1-.2,4.6-.3.3,0,.5.1.5.4v.9c0,.3-.1.4-.4.5-1.3.2-3.3.3-6,.3ZM125.8,150.5c-1.8,0-2.4.7-2.4,2.6s.1,2.3.3,3.2c0,.3,0,.4-.3.4l-1.2.2c-.3,0-.4,0-.5-.3-.2-1.2-.3-2.2-.3-3.9,0-2.7,1.4-4.1,4-4.1s3.9,0,5.8.3c.3,0,.4.2.4.4v1c0,.3-.2.4-.4.4-1.7-.2-3.4-.3-5.4-.3ZM116.3,157.2c0-1.2-.7-1.7-2.7-1.7s-1.4,0-2.3,0-.4-.1-.4-.4v-.9c0-.3.1-.4.4-.4h.5c-.7-.5-1.1-1.4-1.1-2.5,0-1.6,1.1-2.5,3.1-2.5s2.2,0,3.5.2c.3,0,.4.2.4.4v1.1c0,.3-.2.4-.4.4-1.4-.2-2.4-.3-3-.3-1.1,0-1.6.5-1.6,1.5s.5,1.5,1.5,1.5c2.8,0,4.1,1.1,4.1,3.4s-1.3,3.6-4,3.6-2.3-.2-3.7-.7c-.3-.1-.4-.3-.3-.5l.3-1c0-.2.2-.3.3-.3s.1,0,.2,0c1,.4,1.9.6,2.8.6,1.8,0,2.5-.5,2.5-1.7ZM108.5,162.3c0,.3-.2.5-.4.5h-1.1c-.3,0-.4-.2-.4-.5v-14.1c0-.3.2-.5.4-.5h1.1c.3,0,.4.2.4.5v14.1ZM96.6,152.5c0-2.6,1-3.7,3.3-3.7s2.4.1,3.7.3c.3,0,.4.2.4.5v1c0,.3-.2.5-.4.4-1.1-.2-2.1-.3-3.3-.3s-1.7.5-1.7,2c0,2.5.2,4.9.6,7.4,0,.3-.1.5-.4.5h-1.1c-.3,0-.4-.1-.5-.4-.4-2.5-.6-4.9-.6-7.6ZM92.8,156.1c0-.4-.2-.5-.6-.5h-1.1c-.3,0-.4-.1-.4-.4v-1c0-.3.1-.4.4-.4h1c.3,0,.6.1.7.3v-5.8c0-.3.2-.5.4-.5h1.1c.3,0,.4.2.4.5v14.1c0,.3-.2.5-.4.5h-1.1c-.3,0-.4-.2-.4-.5v-6.2ZM83.1,153.3c0,2.5-1.4,3.8-4.1,3.8s-4.2,0-6-.3c-.3,0-.4-.2-.4-.4v-1c0-.3.2-.4.5-.4,1.6.2,3.7.3,5.9.3s2.1-.6,2.1-1.9,0-3-.1-4.2c0-.3.1-.5.4-.5h1c.3,0,.5.2.5.4,0,1.1.1,2.9.1,4.2ZM84.5,159.8v.9c0,.3-.1.4-.4.5-1.3.2-3.3.3-6,.3s-4.9-.1-6-.3c-.3,0-.4-.2-.4-.5v-.9c0-.3.2-.4.5-.4,1.3.2,3.6.3,6,.3s4.3-.1,5.9-.3c.3,0,.5.1.5.4ZM69.7,155.8v.9c0,.3-.1.4-.4.5-1,.1-2.9.2-6,.2-2.4,0-4.8,0-6-.2-.3,0-.4-.2-.4-.5v-.9c0-.3.2-.4.5-.4,1.3.1,3.2.2,6,.2s4.4,0,5.9-.2c.3,0,.5.1.5.4ZM58.4,154.3c-.3,0-.4-.1-.4-.4v-1c0-.3.1-.4.4-.4,2.3,0,3.8-1.3,3.8-3.1v-.9c0-.3.2-.5.4-.5h1.1c.3,0,.4.2.4.5v.9c0,1.8,1.6,3.1,3.8,3.1s.4.1.4.4v1c0,.3-.1.4-.4.4-2.1.1-4.1-1-4.8-2.5-.7,1.5-2.7,2.6-4.8,2.5ZM68.6,160c0,2-1.3,3.1-3.6,3.1s-5.3-.1-7-.3c-.3,0-.4-.2-.4-.4v-.9c0-.3.2-.4.5-.4,2,.2,3.9.3,7,.3s1.6-.4,1.6-1.4,0-.8-.1-1.2c0-.3.1-.5.4-.5h1c.3,0,.5.2.5.4,0,.3.1.8.1,1.3ZM42.2,147.7h1c.3,0,.4.1.4.4v5.5s1,0,1,0c.2,0,.5.1.6.3v-5.7c0-.3.1-.4.4-.4h1c.3,0,.4.1.4.4v14c0,.3-.1.4-.4.4h-1c-.3,0-.4-.1-.4-.4v-6.4c0-.3-.1-.5-.5-.5h-1s0,6.8,0,6.8c0,.3-.1.4-.4.4h-1c-.3,0-.4-.1-.4-.4v-14.2c0-.3.1-.4.4-.4ZM52,152.1c2.1,0,3.2,1.5,3.2,4.2s-1.1,4.2-3.2,4.2-3.2-1.5-3.2-4.2,1.1-4.2,3.2-4.2ZM51,148.8v-1.1c0-.3.1-.4.4-.4h1c.3,0,.4.1.4.4v.9c0,.2-.1.4-.3.5h2.6c.3,0,.4.1.4.4v1c0,.3-.1.4-.4.4h-6.6c-.3,0-.4-.1-.4-.4v-1c0-.3.1-.4.4-.4h2c.3,0,.4,0,.4-.3ZM50.6,156.3c0,1.6.4,2.3,1.3,2.3s1.3-.8,1.3-2.3-.4-2.3-1.3-2.3-1.3.8-1.3,2.3ZM438.2,178.7v4c0,2,1.2,3.7,2.6,3.9.3,0,.4.2.4.5v1c0,.3-.1.4-.4.4-1.6-.2-3.1-1.5-3.6-3.1-.4,1.6-1.9,2.9-3.6,3.1-.3,0-.4-.1-.4-.4v-1c0-.3.1-.4.4-.5,1.4-.2,2.6-1.9,2.6-3.9v-4s-2.5,0-2.5,0c-.3,0-.4-.1-.4-.4v-1c0-.3.1-.4.4-.4h7c.3,0,.4.1.4.4v1c0,.3-.1.4-.4.4h-2.5ZM431.2,190.3c0,.3-.2.5-.4.5h-1.1c-.3,0-.4-.2-.4-.5v-14.1c0-.3.2-.5.4-.5h1.1c.3,0,.4.2.4.5v14.1ZM425.4,179.3c0,2-1.2,3.1-3.5,3.1s-5-.1-6.7-.3c-.3,0-.4-.2-.4-.4v-.9c0-.3.2-.4.5-.4,2,.2,3.8.3,6.4.3s1.6-.4,1.6-1.4,0-1.9-.1-2.6c0-.3.1-.5.4-.5h1c.3,0,.5.2.5.4,0,.8.1,2.1.1,2.7ZM425.7,188c0,2-1.3,3.1-3.6,3.1s-5.3-.1-7-.3c-.3,0-.4-.2-.4-.4v-.9c0-.3.2-.4.5-.4,2,.2,3.9.3,7,.3s1.6-.4,1.6-1.4,0-.8-.1-1.2c0-.3.1-.5.4-.5h1c.3,0,.5.2.5.4,0,.3.1.8.1,1.3ZM426.8,183.8v.9c0,.3-.1.4-.4.5-1,.1-2.9.2-6,.2-2.4,0-4.8,0-6-.2-.3,0-.4-.2-.4-.5v-.9c0-.3.2-.4.5-.4,1.3.1,3.2.2,6,.2s4.4,0,5.9-.2c.3,0,.5.1.5.4ZM399.1,186.9c0,.4-.2.6-.5.7,1,0,2.5,0,3.3,0,.4,0,.6-.2.6-.5v-2.2c-.6.1-1.2.2-1.9.2s-1.1,0-1.6-.1v1.9ZM404.1,180.8c0-1.6-1.1-2.5-3.3-2.5s-3.3.9-3.3,2.5,1.2,2.5,3.3,2.5,3.3-.9,3.3-2.5ZM404.5,184.1c0,0,0,.1,0,.2v2.7c0,.3-.2.6-.4.7.9,0,1.7-.2,2.7-.3.3,0,.5.1.5.4v.9c0,.3-.1.4-.4.5-1.3.2-3.3.3-6,.3s-4.9-.1-6-.3c-.3,0-.4-.2-.4-.5v-.9c0-.3.2-.4.5-.4.3,0,1.2.2,1.7.2s.6-.2.6-.5v-2.8c-1.1-.7-1.7-1.9-1.7-3.5,0-2.8,1.9-4.3,5.3-4.3s5.3,1.6,5.3,4.3-.5,2.6-1.5,3.3ZM380.6,187c0-1,.7-1.7,1.9-1.7h8c.5,0,.7.3.7.8v3.4c0,.9-.6,1.5-1.7,1.5h-8.8c-.3,0-.4-.1-.4-.4v-.9c0-.3.1-.4.4-.4h1.1c-.7-.4-1.2-1.3-1.2-2.1ZM386,179.5c-.7,1.2-2.7,2.2-4.8,2.1-.3,0-.4-.1-.4-.4v-1c0-.3.1-.4.4-.4,2.2,0,3.7-.8,3.8-1.9h-3.6c-.3,0-.4-.1-.4-.4v-.9c0-.3.1-.4.4-.4h9.1c.3,0,.4.1.4.4v.9c0,.3-.1.4-.4.4h-3.6c.1,1.1,1.6,1.9,3.8,1.9s.4.1.4.4v1c0,.3-.1.4-.4.4-2.1.1-4.1-.9-4.8-2.1ZM392.5,182.9v.9c0,.3-.1.4-.4.5-1,.1-2.9.2-6,.2-2.4,0-4.8,0-6-.2-.3,0-.4-.2-.4-.5v-.9c0-.3.2-.4.5-.4,1.3.1,3.2.2,6,.2s4.4,0,5.9-.2c.3,0,.5.1.5.4ZM388.7,189.1c.4,0,.6-.2.6-.5v-1.2c0-.3-.1-.4-.4-.4h-5.5c-.6,0-.9.3-.9.8,0,.7.6,1.3,1.3,1.3h4.9ZM377.7,190c0,.6-.4,1.1-1,1.2.1.3.3.4.7.4s.2,0,.2.2v.4c0,.1,0,.2-.2.2-1.3,0-2.2-.8-2.2-2.2s.5-1.4,1.3-1.4,1.3.5,1.3,1.2ZM367.4,187.9c0,2-1.4,3.2-3.7,3.2s-5-.1-6.7-.3c-.3,0-.4-.2-.4-.4v-.9c0-.3.2-.4.5-.4,2,.2,3.7.3,6.7.3s1.7-.5,1.7-1.6,0-1.3-.1-1.7c0-.3.2-.5.4-.5h1c.3,0,.4.2.5.4,0,.4.1,1.2.1,1.9ZM358.9,185.8c0,.3-.2.5-.4.5h-1.1c-.3,0-.4-.2-.4-.5v-9.6c0-.3.2-.5.4-.5h1.1c.3,0,.4.2.4.5v9.6ZM365.1,176c2.3,0,3.8,1.6,3.8,4.1s-1.5,4.1-3.8,4.1-3.8-1.6-3.8-4.1,1.5-4.1,3.8-4.1ZM365.1,182.5c1.1,0,1.9-.9,1.9-2.4s-.7-2.3-1.9-2.3-1.9.9-1.9,2.3.7,2.4,1.9,2.4ZM349.3,184.1h-1.1c-.3,0-.4-.1-.5-.4-.3-1.4-.6-3.2-.6-4.2,0-2.3,1-3.3,3.3-3.3s2.5.1,3.8.3c.3,0,.4.2.4.5v1c0,.3-.2.5-.4.4-1.1-.2-1.8-.3-3.7-.3s-1.4.4-1.4,1.4.3,2.9.6,4.2c0,.3,0,.5-.4.5ZM343.2,182.2c0-.4-.2-.5-.6-.5h-1.1c-.3,0-.4-.1-.4-.4v-.9c0-.3.1-.4.4-.4h1c.3,0,.6.1.7.3v-4c0-.3.2-.5.4-.5h1.1c.3,0,.4.2.4.5v9.6c0,.3-.2.5-.4.5h-1.1c-.3,0-.4-.2-.4-.5v-3.6ZM353.3,187.9c0,2-1.4,3.2-3.7,3.2s-4.7-.1-6.4-.3c-.3,0-.4-.2-.4-.4v-.9c0-.3.2-.4.5-.4,2,.2,3.5.3,6.4.3s1.7-.5,1.7-1.6,0-1.3-.1-1.7c0-.3.2-.5.4-.5h1c.3,0,.4.2.5.4,0,.4.1,1.2.1,1.9ZM333.4,189.5c-2.6,0-4.9-.1-6-.3-.3,0-.4-.2-.4-.5v-.9c0-.3.2-.4.5-.4,1.2.2,2.9.3,4.4.3s.6-.2.6-.5v-2.2s-1.9,0-1.9,0c-1.3,0-2-.7-2.1-1.8l-.3-6.1c0-.3.2-.4.4-.4h1.1c.3,0,.4.2.4.4v1.7c0,0,6.5,0,6.5,0v-1.7c0-.3.2-.4.5-.4h1.1c.3,0,.5.2.4.4l-.3,6.1c0,1.1-.8,1.8-2.1,1.8h-1.9s0,2,0,2c0,.3-.2.6-.4.7,1.9,0,4.2-.2,5.4-.3.3,0,.5.1.5.4v.9c0,.3-.1.4-.4.5-1.3.2-3.3.3-6,.3ZM330.2,180.6v1.9c0,.5.4.7.9.7h4.6c.5,0,.7-.2.8-.7v-1.9c0,0-6.2,0-6.2,0ZM320.2,178.7c-.9,0-1.4,0-2.1.2-.3,0-.4-.1-.4-.4v-1c0-.3.1-.4.4-.4.6-.1,1.3-.1,2.3-.1,3.2,0,4.8,1.8,4.8,5.9s-1.5,5.9-4.6,5.9-2-.2-3.1-.7c-.3-.1-.4-.3-.4-.5l.3-1c0-.2.2-.4.3-.4s.1,0,.2,0c1,.4,1.9.6,2.6.6,1.9,0,2.8-1.3,2.8-4s-.8-4.1-2.9-4.1ZM313.6,184.1c0-.4-.2-.5-.6-.5h-1.1c-.3,0-.4-.1-.4-.4v-1c0-.3.1-.4.4-.4h1c.3,0,.6.1.7.3v-5.8c0-.3.2-.5.4-.5h1.1c.3,0,.4.2.4.5v14.1c0,.3-.2.5-.4.5h-1.1c-.3,0-.4-.2-.4-.5v-6.2ZM300.6,178.7c-.9,0-1.4,0-2.1.2-.3,0-.4-.1-.4-.4v-1c0-.3.1-.4.4-.4.6-.1,1.3-.1,2.3-.1,3.2,0,4.8,1.8,4.8,5.9s-1.5,5.9-4.6,5.9-2-.2-3.1-.7c-.3-.1-.4-.3-.4-.5l.3-1c0-.2.2-.4.3-.4s.1,0,.2,0c1,.4,1.9.6,2.6.6,1.9,0,2.8-1.3,2.8-4s-.8-4.1-2.9-4.1ZM295.7,181.1c0,.4.2.5.6.5h2.6c.3,0,.4.1.4.4v1c0,.3-.1.4-.4.4h-2.5c-.3,0-.6-.1-.7-.3v7.2c0,.3-.2.5-.4.5h-1.1c-.3,0-.4-.2-.4-.5v-14.1c0-.3.2-.5.4-.5h1.1c.3,0,.4.2.4.5v4.9ZM285.3,187.9c0,2-1.4,3.2-3.7,3.2s-5-.1-6.7-.3c-.3,0-.4-.2-.4-.4v-.9c0-.3.2-.4.5-.4,2,.2,3.7.3,6.7.3s1.7-.5,1.7-1.6,0-1.3-.1-1.7c0-.3.2-.5.4-.5h1c.3,0,.4.2.5.4,0,.4.1,1.2.1,1.9ZM276.8,185.8c0,.3-.2.5-.4.5h-1.1c-.3,0-.4-.2-.4-.5v-9.6c0-.3.2-.5.4-.5h1.1c.3,0,.4.2.4.5v9.6ZM282.9,176c2.3,0,3.8,1.6,3.8,4.1s-1.5,4.1-3.8,4.1-3.8-1.6-3.8-4.1,1.5-4.1,3.8-4.1ZM282.9,182.5c1.1,0,1.9-.9,1.9-2.4s-.7-2.3-1.9-2.3-1.9.9-1.9,2.3.7,2.4,1.9,2.4ZM267.2,184.1h-1.1c-.3,0-.4-.1-.5-.4-.3-1.4-.6-3.2-.6-4.2,0-2.3,1-3.3,3.3-3.3s2.5.1,3.8.3c.3,0,.4.2.4.5v1c0,.3-.2.5-.4.4-1.1-.2-1.8-.3-3.7-.3s-1.4.4-1.4,1.4.3,2.9.6,4.2c0,.3,0,.5-.4.5ZM261.1,182.2c0-.4-.2-.5-.6-.5h-1.1c-.3,0-.4-.1-.4-.4v-.9c0-.3.1-.4.4-.4h1c.3,0,.6.1.7.3v-4c0-.3.2-.5.4-.5h1.1c.3,0,.4.2.4.5v9.6c0,.3-.2.5-.4.5h-1.1c-.3,0-.4-.2-.4-.5v-3.6ZM271.2,187.9c0,2-1.4,3.2-3.7,3.2s-4.7-.1-6.4-.3c-.3,0-.4-.2-.4-.4v-.9c0-.3.2-.4.5-.4,2,.2,3.5.3,6.4.3s1.7-.5,1.7-1.6,0-1.3-.1-1.7.2-.5.4-.5h1c.3,0,.4.2.5.4,0,.4.1,1.2.1,1.9ZM252.9,176.8v-1.1c0-.3.1-.4.4-.4h1.1c.3,0,.4.1.4.4v.9c0,.2-.1.4-.3.5h2.8c.3,0,.4.1.4.4v1c0,.3-.1.4-.4.4h-2.5s0,3.7,0,3.7c0,2,1.2,3.7,2.6,3.9.3,0,.4.2.4.5v1c0,.3-.1.4-.4.4-1.6-.2-3.1-1.5-3.6-3.1-.4,1.6-1.9,2.9-3.6,3.1-.3,0-.4-.1-.4-.4v-1c0-.3.1-.4.4-.5,1.4-.2,2.6-1.9,2.6-3.9v-3.7s-2.5,0-2.5,0c-.3,0-.4-.1-.4-.4v-1c0-.3.1-.4.4-.4h2.1c.3,0,.4,0,.4-.3ZM247.9,181.3c0,.4.2.5.6.5h1.9c.3,0,.4.1.4.4v1c0,.3-.1.4-.4.4h-1.8c-.3,0-.6-.1-.7-.3v7c0,.3-.2.5-.4.5h-1.1c-.3,0-.4-.2-.4-.5v-14.1c0-.3.2-.5.4-.5h1.1c.3,0,.4.2.4.5v5ZM239.8,189.1c.4,0,.7-.2.7-.5v-1.3c0-.3-.2-.4-.4-.4h-5.2c-.8,0-1.1.2-1.1.9s.7,1.4,1.5,1.4h4.6ZM235.8,182.7l.2-.9c0-.2.2-.3.3-.3s.1,0,.2,0c.9.3,1.9.5,2.7.5,1.9,0,2.4-.1,2.4-.7s-.6-.7-2.7-.7-1.4,0-2.2,0c-.3,0-.4-.1-.4-.4v-.8c0-.3.1-.4.4-.4h.4c-.6-.3-.9-.8-.9-1.5,0-1.1.8-1.5,3-1.5,1.4,0,2.3,0,3.5.2.3,0,.4.2.4.4v.9c0,.3-.2.4-.4.4-1.3-.2-2.4-.2-3.1-.2-1,0-1.4.1-1.4.5s.4.6,1.3.6c3.1,0,4.1.6,4.1,2.4s-1.1,2.5-3.9,2.5-2.8-.3-3.6-.6c-.3-.1-.4-.3-.3-.5ZM231.7,186.8c0-1.2.7-1.8,2.1-1.8h7.8c.5,0,.8.3.8.8v3.6c0,.9-.7,1.5-1.8,1.5h-8.8c-.3,0-.4-.1-.4-.4v-.9c0-.3.1-.4.4-.4h1.2c-.8-.4-1.4-1.3-1.4-2.3ZM233.8,178.1c0,.4.2.5.6.5h.9c.3,0,.4.1.4.4v.9c0,.3-.1.4-.4.4h-.8c-.3,0-.6-.1-.7-.3v3.3c0,.3-.2.5-.4.5h-1.1c-.3,0-.4-.2-.4-.5v-7.2c0-.3.2-.5.4-.5h1.1c.3,0,.4.2.4.5v1.9ZM211.9,175.7h1c.3,0,.4.1.4.4v5.5s1,0,1,0c.2,0,.5.1.6.3v-5.7c0-.3.1-.4.4-.4h1c.3,0,.4.1.4.4v14c0,.3-.1.4-.4.4h-1c-.3,0-.4-.1-.4-.4v-6.4c0-.3-.1-.5-.5-.5h-1s0,6.8,0,6.8c0,.3-.1.4-.4.4h-1c-.3,0-.4-.1-.4-.4v-14.2c0-.3.1-.4.4-.4ZM220.5,178.7c-.6,0-1.1,0-1.6.2-.3,0-.4-.1-.4-.4v-1c0-.3,0-.4.4-.4.5-.1,1-.1,1.8-.1,3,0,4.3,1.9,4.3,5.9s-1.4,5.9-4.2,5.9-1.8-.2-2.6-.5c-.3-.1-.4-.3-.3-.5l.2-1c0-.2.2-.3.3-.3s.1,0,.2,0c.7.3,1.4.4,2,.4,1.6,0,2.4-1.3,2.4-4s-.7-4.1-2.6-4.1ZM196.4,175.7h1c.3,0,.4.1.4.4v5.5s1,0,1,0c.2,0,.5.1.6.3v-5.7c0-.3.1-.4.4-.4h1c.3,0,.4.1.4.4v14c0,.3-.1.4-.4.4h-1c-.3,0-.4-.1-.4-.4v-6.4c0-.3-.1-.5-.5-.5h-1s0,6.8,0,6.8c0,.3-.1.4-.4.4h-1c-.3,0-.4-.1-.4-.4v-14.2c0-.3.1-.4.4-.4ZM206.1,180.1c2.1,0,3.2,1.5,3.2,4.2s-1.1,4.2-3.2,4.2-3.2-1.5-3.2-4.2,1.1-4.2,3.2-4.2ZM205.1,176.8v-1.1c0-.3.1-.4.4-.4h1c.3,0,.4.1.4.4v.9c0,.2-.1.4-.3.5h2.6c.3,0,.4.1.4.4v1c0,.3-.1.4-.4.4h-6.6c-.3,0-.4-.1-.4-.4v-1c0-.3.1-.4.4-.4h2c.3,0,.4,0,.4-.3ZM204.7,184.3c0,1.6.4,2.3,1.3,2.3s1.3-.8,1.3-2.3-.4-2.3-1.3-2.3-1.3.8-1.3,2.3ZM191.6,176.1c.3,0,.4.1.4.4v1c0,.3-.1.4-.4.4h-3.6c0,1.9,1.6,3.3,3.8,3.3s.4.1.4.4v1.1c0,.4-.3.4-.6.4-2,0-3.9-1.1-4.6-2.7-.7,1.6-2.6,2.7-4.6,2.7s-.6,0-.6-.4v-1.1c0-.3.1-.4.4-.4,2.3,0,3.8-1.4,3.8-3.3h-3.6c-.3,0-.4-.1-.4-.4v-1c0-.3.1-.4.4-.4h9.1ZM181.1,186.4c-.3,0-.4-.2-.4-.5v-.9c0-.3.2-.4.5-.4,1.3.2,3.6.3,6,.3s4.3-.1,5.9-.3c.3,0,.5.1.5.4v.9c0,.3-.1.4-.4.5-1.2.2-3.6.3-5.5.3.3.1.4.4.4.7v2.3c0,.3-.2.5-.4.5h-1.1c-.3,0-.4-.2-.4-.5v-2.6c0-.4-.2-.5-.6-.5-1.5,0-3.3-.1-4.4-.3ZM177.3,179.3c0,2-1.2,3.1-3.5,3.1s-5-.1-6.7-.3c-.3,0-.4-.2-.4-.4v-.9c0-.3.2-.4.5-.4,2,.2,3.8.3,6.4.3s1.6-.4,1.6-1.4,0-1.9-.1-2.6c0-.3.1-.5.4-.5h1c.3,0,.5.2.5.4,0,.8.1,2.1.1,2.7ZM177.6,188c0,2-1.3,3.1-3.6,3.1s-5.3-.1-7-.3c-.3,0-.4-.2-.4-.4v-.9c0-.3.2-.4.5-.4,2,.2,3.9.3,7,.3s1.6-.4,1.6-1.4,0-.8-.1-1.2c0-.3.1-.5.4-.5h1c.3,0,.5.2.5.4,0,.3.1.8.1,1.3ZM178.7,183.8v.9c0,.3-.1.4-.4.5-1,.1-2.9.2-6,.2-2.4,0-4.8,0-6-.2-.3,0-.4-.2-.4-.5v-.9c0-.3.2-.4.5-.4,1.3.1,3.2.2,6,.2s4.4,0,5.9-.2c.3,0,.5.1.5.4ZM158.8,178.7l-.3,7.8c.4,0,.8,0,1.1-.1.3,0,.4.1.4.4v1c0,.3-.1.4-.4.4-.9.1-2.1.2-3.4.2s-2.7-.1-3.4-.2c-.3,0-.4-.1-.4-.4v-1c0-.3.1-.5.4-.4.3,0,.7,0,1.1.1l-.3-7.8h-.6c-.3,0-.4-.1-.4-.4v-1c0-.3.1-.4.4-.4h6.4c.3,0,.4.1.4.4v1c0,.3-.1.4-.4.4h-.6ZM153.3,182.1v1c0,.3-.1.4-.4.4h-1.4c-.2,0-.5-.1-.6-.3v7.2c0,.3-.1.4-.4.4h-1c-.3,0-.4-.1-.4-.4v-14c0-.3.1-.4.4-.4h1c.3,0,.4.1.4.4v4.8c0,.3.1.5.5.5h1.5c.3,0,.4.1.4.4ZM146.5,175.7h1c.3,0,.4.1.4.4v14.2c0,.3-.1.4-.4.4h-1c-.3,0-.4-.1-.4-.4v-14.2c0-.3.1-.4.4-.4ZM157,178.7h-1.6s.3,7.9.3,7.9h1s.3-7.9.3-7.9ZM140,176.6c2.6,0,3.8,1.9,3.8,6.1s-1.2,6.1-3.8,6.1-3.8-1.9-3.8-6.1,1.2-6.1,3.8-6.1ZM138.1,182.7c0,3,.6,4.2,1.9,4.2s1.9-1.2,1.9-4.2-.6-4.2-1.9-4.2-1.9,1.2-1.9,4.2ZM133.9,190.3c0,.3-.2.5-.4.5h-1.1c-.3,0-.4-.2-.4-.5v-14.1c0-.3.2-.5.4-.5h1.1c.3,0,.4.2.4.5v14.1ZM118.4,184.9c-.3,0-.6,0-.6-.4v-1.1c0-.3.1-.4.4-.4,2.3,0,3.8-1.5,3.8-3.6v-2.4c0-.3.2-.5.4-.5h1.1c.3,0,.4.2.4.5v2.4c0,2.1,1.6,3.6,3.8,3.6s.4.1.4.4v1.1c0,.4-.3.4-.6.4-2,0-3.9-1.2-4.7-2.8-.7,1.7-2.6,2.8-4.6,2.8ZM129.5,187.8v.9c0,.3-.1.4-.4.5-1.3.2-3.3.3-6,.3s-4.9-.1-6-.3c-.3,0-.4-.2-.4-.5v-.9c0-.3.2-.4.5-.4,1.3.2,3.6.3,6,.3s4.3-.1,5.9-.3c.3,0,.5.1.5.4ZM108.1,187.4l.3-.9c0-.2.2-.3.4-.3s.2,0,.2,0c.8.4,1.5.6,2.2.6,1.4,0,2-.8,2-2.3s-.7-2.4-2.4-2.4-.8,0-1.6.1c-.3,0-.4-.1-.4-.4v-1c0-.3.1-.4.4-.5.6-.1,1.1-.2,1.9-.2,2.8,0,4.1,1.3,4.1,4.3s-1.4,4.2-3.8,4.2-2-.2-3-.7c-.3-.1-.4-.3-.3-.6ZM108.6,183.5v1c0,.3-.1.4-.4.4h-1.1c-.2,0-.5-.1-.6-.3v5.7c0,.3-.1.4-.4.4h-1c-.3,0-.4-.1-.4-.4v-14c0-.3.1-.4.4-.4h1c.3,0,.4.1.4.4v6.3c0,.3.1.5.5.5h1.2c.3,0,.4.1.4.4ZM102,175.7h1c.3,0,.4.1.4.4v14.2c0,.3-.1.4-.4.4h-1c-.3,0-.4-.1-.4-.4v-14.2c0-.3.1-.4.4-.4ZM108.8,178.7c-.3,0-.4-.1-.4-.4v-1c0-.3.1-.4.4-.4h5.7c.3,0,.4.1.4.4v1c0,.3-.1.4-.4.4h-5.7ZM92,178.5c-1.8,0-2.4.7-2.4,2.5,2.8,0,5.9.1,7.6.3.3,0,.4.2.4.4v1c0,.3-.1.4-.4.4-1.9-.2-5-.3-7.6-.3,0,.6.1,1.2.2,1.6,0,.3,0,.4-.3.4l-1.2.2c-.3,0-.4,0-.5-.3-.2-1.2-.3-2.4-.3-4.1,0-2.7,1.4-4.1,4-4.1s3.9,0,5.8.3c.3,0,.4.2.4.4v1c0,.3-.2.4-.4.4-1.7-.2-3.4-.3-5.4-.3ZM99.2,187.8v.9c0,.3-.1.4-.4.5-1.3.2-3.3.3-6,.3s-4.9-.1-6-.3c-.3,0-.4-.2-.4-.5v-.9c0-.3.2-.4.5-.4,1.3.2,3.6.3,6,.3s4.3-.1,5.9-.3c.3,0,.5.1.5.4ZM72.2,180.5c0-2.6,1-3.7,3.3-3.7s2.4.1,3.7.3c.3,0,.4.2.4.5v1c0,.3-.2.5-.4.4-1.1-.2-2.1-.3-3.3-.3s-1.7.5-1.7,2c0,2.5.2,4.9.6,7.4,0,.3-.1.5-.4.5h-1.1c-.3,0-.4-.1-.5-.4-.4-2.5-.6-4.9-.6-7.6ZM69.9,190.3c0,.3-.2.5-.4.5h-1.1c-.3,0-.4-.2-.4-.5v-14.1c0-.3.2-.5.4-.5h1.1c.3,0,.4.2.4.5v14.1ZM53.3,190.3v-.8c0-.3.2-.4.5-.3,1.3.2,3.2.3,4.5.3,3.5,0,4.1,0,4.1-.6s-.4-.6-3.2-.6-4,0-5,0c-.2,0-.4-.1-.4-.4v-.7c0-.3.1-.4.4-.4h.6c-.7-.2-1.1-.8-1.1-1.4s.4-1.2,1.6-1.2c.8,0,1.8,0,2.9,0v-.4c0-.3-.1-.4-.4-.4-1.3,0-3.4,0-4.6-.2-.3,0-.4-.2-.4-.4v-.8c0-.3.2-.4.4-.4,1.2.1,3.6.2,6,.2,3.1,0,4.9,0,6-.2.3,0,.4.1.4.4v.8c0,.3-.1.4-.4.4-1.3.1-3.6.2-5.3.2.1,0,.2.2.2.4v.5c1.3,0,2.5.1,3.6.2.3,0,.4.1.4.4v.8c0,.3-.1.4-.4.4-1.9-.1-5.5-.2-7.2-.2s-.8.2-.8.5.2.5.9.5c.9,0,1.9,0,2.8,0,4,0,5.1.5,5.1,2.1s-1.2,2.2-6.1,2.2-3.3-.1-4.6-.3c-.3,0-.4-.2-.3-.4ZM59.5,176.1c.3,0,.4.2.4.5v.2c0,1.4,1.5,2.7,3.9,2.7s.4.1.4.4v.9c0,.3-.1.4-.4.4-2,.1-4.1-1.1-4.8-2.3-.7,1.3-2.8,2.4-4.8,2.3-.3,0-.4-.1-.4-.4v-.9c0-.3,0-.4.4-.4,2.3,0,3.9-1.2,3.9-2.7v-.2c0-.3.2-.5.4-.5h1.1ZM49.5,188c0,2-1.3,3.1-3.6,3.1s-5.3-.1-7-.3c-.3,0-.4-.2-.4-.4v-.9c0-.3.2-.4.5-.4,2,.2,3.9.3,7,.3s1.6-.4,1.6-1.4,0-.8-.1-1.2c0-.3.1-.5.4-.5h1c.3,0,.5.2.5.4,0,.3.1.8.1,1.3ZM50.7,183.8v.9c0,.3-.1.4-.4.5-1,.1-2.9.2-6,.2-2.4,0-4.8,0-6-.2-.3,0-.4-.2-.4-.5v-.9c0-.3.2-.4.5-.4,1.3.1,3.2.2,6,.2s4.4,0,5.9-.2c.3,0,.5.1.5.4ZM44.2,182.4c-3.7,0-5.3-1-5.3-3.2s1.6-3.2,5.3-3.2,5.3,1,5.3,3.2-1.6,3.2-5.3,3.2ZM47.5,179.2c0-1.1-.9-1.5-3.3-1.5s-3.3.4-3.3,1.5.9,1.5,3.3,1.5,3.3-.4,3.3-1.5ZM434.5,217.5c-2.6,0-4.9-.1-6-.3-.3,0-.4-.2-.4-.5v-.9c0-.3.2-.4.5-.4,1.2.2,2.9.3,4.4.3s.6-.2.6-.5v-2.1c0-.3.2-.5.4-.5h1.1c.3,0,.4.2.4.5v2c0,.3-.2.6-.4.7,1.9,0,4.2-.2,5.4-.3.3,0,.5.1.5.4v.9c0,.3-.1.4-.4.5-1.3.2-3.3.3-6,.3ZM429.8,212.9c-.3,0-.6,0-.6-.4v-1.1c0-.3.1-.4.4-.4,2.3,0,3.8-1.5,3.8-3.6v-2.4c0-.3.2-.5.4-.5h1.1c.3,0,.4.2.4.5v2.4c0,2.1,1.6,3.6,3.8,3.6s.4.1.4.4v1.1c0,.4-.3.4-.6.4-2,0-3.9-1.2-4.7-2.8-.7,1.7-2.6,2.8-4.6,2.8ZM420.8,210.4v3.5c.1.5.4.7.9.7h1.8c.5,0,.7-.2.7-.7v-3.5c.1,0-3.3,0-3.3,0ZM419.2,204.8h1c.3,0,.5.2.5.4v3.3c0,0,3.6,0,3.6,0v-3.3c0-.3.3-.4.6-.4h1c.3,0,.5.2.5.5l-.3,9.4c0,1.1-.8,1.8-2.1,1.8h-3c-1.3,0-2-.7-2.1-1.8l-.3-9.4c0-.3.2-.5.5-.5ZM416.4,218.3c0,.3-.2.5-.4.5h-1.1c-.3,0-.4-.2-.4-.5v-14.1c0-.3.2-.5.4-.5h1.1c.3,0,.4.2.4.5v14.1ZM400,216.5c-.3,0-.4-.1-.4-.4v-1c0-.3.1-.4.4-.5,1.4-.2,2.6-1.9,2.6-3.9v-5.5c0-.3.2-.5.4-.5h1.1c.3,0,.4.2.4.5v5.5c0,2,1.2,3.7,2.6,3.9.3,0,.4.2.4.5v1c0,.3-.1.4-.4.4-1.6-.2-3.1-1.5-3.6-3.1-.4,1.6-1.9,2.9-3.6,3.1ZM397.6,218.3c0,.3-.2.5-.4.5h-1.1c-.3,0-.4-.2-.4-.5v-14.1c0-.3.2-.5.4-.5h1.1c.3,0,.4.2.4.5v14.1ZM386.9,219.1c-3.6,0-5.4-1.1-5.4-3.2s1.8-3.2,5.4-3.2,5.4,1.1,5.4,3.2-1.8,3.2-5.4,3.2ZM390.4,205.9v.5c0,1.8,1.1,3.2,2.6,3.2s.4.1.4.4v.9c0,.3-.1.4-.4.4-1.8,0-3.1-1.1-3.6-2.4-.5,1.3-1.8,2.4-3.6,2.4s-.4-.1-.4-.4v-.9c0-.3.1-.4.4-.4,1.5,0,2.6-1.3,2.6-3.2v-.5s-2.5,0-2.5,0c-.3,0-.4-.1-.4-.4v-.9c0-.3.1-.4.4-.4h7c.3,0,.4.1.4.4v.9c0,.3-.1.4-.4.4h-2.5ZM381.8,209c0-.4-.2-.5-.6-.5h-1.1c-.3,0-.4-.1-.4-.4v-.9c0-.3.1-.4.4-.4h1c.3,0,.6.1.7.3v-2.8c0-.3.2-.5.4-.5h1.1c.3,0,.4.2.4.5v7.2c0,.3-.2.5-.4.5h-1.1c-.3,0-.4-.2-.4-.5v-2.4ZM386.9,214.4c-2.6,0-3.4.6-3.4,1.4s.8,1.4,3.4,1.4,3.4-.6,3.4-1.4-.8-1.4-3.4-1.4ZM371.8,205.5c-2.6,0-3.3.3-3.3,1.1s.8,1.1,3.3,1.1,3.3-.3,3.3-1.1-.8-1.1-3.3-1.1ZM366.2,218.3v-.8c0-.3.2-.4.5-.3,1.3.2,3.2.3,4.5.3,3.5,0,4.1,0,4.1-.6s-.4-.6-3.2-.6-4,0-5,0c-.2,0-.4-.1-.4-.4v-.7c0-.3.1-.4.4-.4h.6c-.7-.2-1.1-.8-1.1-1.4s.4-1.2,1.6-1.2c2.2,0,5.8,0,8.4.2.3,0,.4.1.4.4v.8c0,.3-.1.4-.4.4-1.9-.1-5.5-.2-7.2-.2s-.8.2-.8.5.2.5.9.5c.9,0,1.9,0,2.8,0,4,0,5.1.5,5.1,2.1s-1.2,2.2-6.1,2.2-3.3-.1-4.6-.3c-.3,0-.4-.2-.3-.4ZM372,209.9c2,0,4.4,0,6-.2.3,0,.4.1.4.4v.8c0,.3-.1.4-.4.4-1,.1-2.9.2-6,.2-2.4,0-4.8,0-6.1-.2-.3,0-.4-.2-.4-.4v-.8c0-.3.2-.4.4-.4,1.3.1,3.2.2,6,.2ZM371.8,209.2c-3.8,0-5.3-.7-5.3-2.6s1.5-2.6,5.3-2.6,5.3.7,5.3,2.6-1.5,2.6-5.3,2.6ZM355.1,217.1c.4,0,.7-.2.7-.5v-1.7c0-.3-.2-.4-.4-.4h-5.2c-.8,0-1.1.3-1.1,1.1s.7,1.6,1.5,1.6h4.6ZM347,214.7c0-1.3.7-2,2.1-2h7.8c.5,0,.8.3.8.8v3.9c0,.9-.7,1.5-1.8,1.5h-8.8c-.3,0-.4-.1-.4-.4v-.9c0-.3.1-.4.4-.4h1.2c-.8-.5-1.4-1.4-1.4-2.4ZM351.1,210.4l.3-.9c0-.3.2-.4.5-.3,1.1.4,2.5.6,3.3.6,1.2,0,1.7-.5,1.7-1.5s-.1-1.9-.4-3.6c0-.3.1-.5.5-.5h1c.3,0,.4.1.5.4.3,1.2.4,2.2.4,3.5,0,2.3-1.3,3.5-3.7,3.5s-2.5-.2-3.7-.6c-.3-.1-.4-.3-.4-.5ZM349.1,205.3c0,.4.2.5.6.5h2.9c.3,0,.4.1.4.4v.9c0,.3-.1.4-.4.4h-2.8c-.3,0-.6-.1-.7-.3v3.7c0,.3-.2.5-.4.5h-1.1c-.3,0-.4-.2-.4-.5v-6.8c0-.3.2-.5.4-.5h1.1c.3,0,.4.2.4.5v1.1ZM339.4,210.7c0,3,.5,4.2,1.8,4.2s1.8-1.2,1.8-4.2-.5-4.2-1.8-4.2-1.8,1.2-1.8,4.2ZM341.2,204.6c2.6,0,3.7,1.9,3.7,6.1s-1.1,6.1-3.7,6.1-3.7-1.9-3.7-6.1,1.1-6.1,3.7-6.1ZM335,209.1c0,.4.2.5.6.5h.9c.3,0,.4.1.4.4v1c0,.3-.1.4-.4.4h-.8c-.3,0-.6-.1-.7-.3v7.2c0,.3-.2.5-.4.5h-1.1c-.3,0-.4-.2-.4-.5v-14.1c0-.3.2-.5.4-.5h1.1c.3,0,.4.2.4.5v4.9ZM324.6,215.9c0,2-1.4,3.2-3.7,3.2s-5-.1-6.7-.3c-.3,0-.4-.2-.4-.4v-.9c0-.3.2-.4.5-.4,2,.2,3.7.3,6.7.3s1.7-.5,1.7-1.6,0-1.3-.1-1.7.2-.5.4-.5h1c.3,0,.4.2.5.4,0,.4.1,1.2.1,1.9ZM316.1,213.8c0,.3-.2.5-.4.5h-1.1c-.3,0-.4-.2-.4-.5v-9.6c0-.3.2-.5.4-.5h1.1c.3,0,.4.2.4.5v9.6ZM322.2,204c2.3,0,3.8,1.6,3.8,4.1s-1.5,4.1-3.8,4.1-3.8-1.6-3.8-4.1,1.5-4.1,3.8-4.1ZM322.2,210.5c1.1,0,1.9-.9,1.9-2.4s-.7-2.3-1.9-2.3-1.9.9-1.9,2.3.7,2.4,1.9,2.4ZM309.2,215.5v2.2c0,.3-.2.5-.4.5h-1.1c-.3,0-.4-.2-.4-.5v-2.4c0-.4-.2-.5-.6-.5-1,0-2.4,0-3.8,0,.3.1.4.4.4.7v2.2c0,.3-.2.5-.4.5h-1.1c-.3,0-.4-.2-.4-.5v-2.5c0-.4-.2-.5-.6-.5-.3,0-1.1-.1-1.4-.2-.3,0-.4-.2-.4-.5v-.9c0-.3.2-.4.5-.4,1.3.2,3.6.3,6,.3s4.3-.1,5.9-.3c.3,0,.5.1.5.4v.9c0,.3-.1.4-.4.5-.7,0-1.6.2-2.5.2.3.1.5.4.5.7ZM300.1,205.6c0-.9.7-1.4,1.9-1.4,4,0,6.2,0,7.6.3.2,0,.3.2.3.4v1c0,.3-.2.4-.4.4-1.8-.2-3.8-.3-6.4-.3s-1.1.2-1.1.6.3.5,1.1.5h2.1c4,0,5,.5,5,2.3s-1.1,2.4-6,2.4-2.9-.1-4.3-.3c-.2,0-.4-.2-.3-.4l.2-.9c0-.3.2-.4.4-.3,1.2.2,2.7.3,4,.3,3.3,0,4,0,4-.6s-.5-.6-3.1-.6-3.1,0-4.6,0-.4-.2-.4-.4v-.8c0-.2.1-.4.4-.4h.7c-.8-.3-1.3-.8-1.3-1.6ZM293,216c1.6,0,2.9-.1,4-.3.3,0,.5,0,.5.4v1c0,.3-.1.4-.4.4-1.1.2-2.4.3-4.1.3s-3.2,0-4.4-.2c-.3,0-.4-.2-.4-.5v-1c0-.3.2-.4.4-.4,1.1.2,2.7.3,4.3.3ZM293,213.5c-2.3,0-3.8-1.8-3.8-4.6s1.5-4.6,3.8-4.6,3.8,1.8,3.8,4.6-1.5,4.6-3.8,4.6ZM294.8,208.9c0-1.6-.7-2.8-1.9-2.8s-1.9,1.1-1.9,2.8.7,2.8,1.9,2.8,1.9-1.1,1.9-2.8ZM285.3,204.2c0-.3.2-.5.4-.5h1.1c.3,0,.4.2.4.5v14.1c0,.3-.2.5-.4.5h-1.1c-.3,0-.4-.2-.4-.5v-14.1ZM269.2,217.2c.3,0,.5-.1.5-.4v-2.9c0-.3-.2-.4-.5-.4-.7,0-.9.4-.9,1.6s.4,2.1,1,2.1ZM271.9,218.3l.2-.8c0-.3.2-.3.5-.3.5.1,1.2.2,1.8.2s1.2-.2,1.2-.6-.3-.6-.8-.6-1.4,0-2,0c-.3,0-.4-.1-.4-.4v-.8c0-.3.1-.4.4-.4h.6c-.7-.2-1.1-.8-1.1-1.5,0-1.3,1.1-1.4,2.1-1.4s1.5,0,2.4.2c.3,0,.4.1.4.4v.9c0,.3-.1.4-.4.3-.8-.2-1.4-.2-1.8-.2s-.7.2-.7.6.2.5.8.5c1.7,0,2.5.7,2.5,2.2s-.9,2.3-3.2,2.3-1.5-.1-2.1-.3c-.3,0-.3-.2-.3-.5ZM271.5,212.7v5.1c0,.8-.4,1.1-1.4,1.1h-3.3c-.3,0-.4-.1-.4-.4v-.9c0-.3.1-.4.4-.4h.8c-.6-.5-1.1-1.5-1.1-2.8s.8-2.3,2.1-2.3h2.3c.5,0,.7.2.7.7ZM273.8,204.1h1.1c.3,0,.4.2.4.5v1.5c0,1.7,1.1,3,2.6,3s.4.1.4.4v.9c0,.3-.1.4-.4.4-1.8,0-3.1-1.2-3.6-2.4-.5,1.2-1.8,2.4-3.6,2.4s-.4-.1-.4-.4v-.9c0-.3.1-.4.4-.4,1.5,0,2.6-1.3,2.6-3v-1.5c0-.3.2-.5.4-.5ZM266.7,208.5c0-.4-.2-.5-.6-.5h-1.1c-.3,0-.4-.1-.4-.4v-.9c0-.3.1-.4.4-.4h1c.3,0,.6.1.7.3v-2.3c0-.3.2-.5.4-.5h1.1c.3,0,.4.2.4.5v6.3c0,.3-.2.5-.4.5h-1.1c-.3,0-.4-.2-.4-.5v-2ZM256.7,205.5c-2.6,0-3.3.3-3.3,1.1s.8,1.1,3.3,1.1,3.3-.3,3.3-1.1-.8-1.1-3.3-1.1ZM251.1,218.3v-.8c0-.3.2-.4.5-.3,1.3.2,3.2.3,4.5.3,3.5,0,4.1,0,4.1-.6s-.4-.6-3.2-.6-4,0-5,0c-.2,0-.4-.1-.4-.4v-.7c0-.3.1-.4.4-.4h.6c-.7-.2-1.1-.8-1.1-1.4s.4-1.2,1.6-1.2c2.2,0,5.8,0,8.4.2.3,0,.4.1.4.4v.8c0,.3-.1.4-.4.4-1.9-.1-5.5-.2-7.2-.2s-.8.2-.8.5.2.5.9.5c.9,0,1.9,0,2.8,0,4,0,5.1.5,5.1,2.1s-1.2,2.2-6.1,2.2-3.3-.1-4.6-.3c-.3,0-.4-.2-.3-.4ZM256.9,209.9c2,0,4.4,0,6-.2.3,0,.4.1.4.4v.8c0,.3-.1.4-.4.4-1,.1-2.9.2-6,.2-2.4,0-4.8,0-6.1-.2-.3,0-.4-.2-.4-.4v-.8c0-.3.2-.4.4-.4,1.3.1,3.2.2,6,.2ZM256.7,209.2c-3.8,0-5.3-.7-5.3-2.6s1.5-2.6,5.3-2.6,5.3.7,5.3,2.6-1.5,2.6-5.3,2.6ZM238.4,210.4v3.5c.1.5.4.7.9.7h1.8c.5,0,.7-.2.7-.7v-3.5c.1,0-3.3,0-3.3,0ZM236.7,204.8h1c.3,0,.5.2.5.4v3.3c0,0,3.6,0,3.6,0v-3.3c0-.3.3-.4.6-.4h1c.3,0,.5.2.5.5l-.3,9.4c0,1.1-.8,1.8-2.1,1.8h-3c-1.3,0-2-.7-2.1-1.8l-.3-9.4c0-.3.2-.5.5-.5ZM232.4,212.1c0-.4-.2-.5-.6-.5h-1.1c-.3,0-.4-.1-.4-.4v-1c0-.3.1-.4.4-.4h1c.3,0,.6.1.7.3v-5.8c0-.3.2-.5.4-.5h1.1c.3,0,.4.2.4.5v14.1c0,.3-.2.5-.4.5h-1.1c-.3,0-.4-.2-.4-.5v-6.2ZM216.7,218.3v-.8c0-.3.2-.4.5-.3,1.3.2,3.2.3,4.5.3,3.5,0,4.1,0,4.1-.6s-.4-.6-3.2-.6-4,0-5,0c-.2,0-.4-.1-.4-.4v-.8c0-.3.1-.4.4-.4h.6c-.7-.2-1.1-.8-1.1-1.5s.4-1.3,1.6-1.4c.8,0,1.8,0,2.9,0v-.8c0-.3-.1-.4-.4-.4-1.3,0-3.4,0-4.6-.2-.3,0-.4-.2-.4-.4v-.8c0-.3.2-.4.4-.4s.6,0,1,0c-.2-.7-.3-1.6-.3-2.3,0-1.6,1-2.5,2.9-2.5s1.7.1,2.4.3c.3,0,.4.2.4.5h0c.5-.5,1.3-.8,2.4-.8s1.4.1,2.1.3c.3,0,.4.2.4.5v1c0,.3-.2.4-.4.3-.8-.2-1.4-.3-1.9-.3s-1,.3-1,1,.2,1.5.3,2.1c1.9,0,3.1,0,3.9-.2.3,0,.4.1.4.4v.8c0,.3-.1.4-.4.4-1.3.1-3.6.2-5.3.2.1,0,.2.2.2.4v.8c1.3,0,2.5.1,3.6.2.3,0,.4.1.4.4v.8c0,.3-.1.4-.4.4-1.9-.1-5.5-.2-7.2-.2s-.8.2-.8.6.2.5.9.5c.9,0,1.9,0,2.8,0,4,0,5.1.6,5.1,2.2s-1.2,2.3-6.1,2.3-3.3-.1-4.6-.3c-.3,0-.4-.2-.3-.4ZM222.3,206.6c0-.1,0-.3,0-.4-.7-.2-1.6-.3-2.2-.3s-1,.3-1,1,.2,1.5.4,2.1c1,0,2,0,3.1,0h.2c-.2-.7-.3-1.7-.3-2.4ZM204.4,211.7h-1.1c-.3,0-.4-.1-.5-.4-.3-1.2-.6-3-.6-4,0-2.3.9-3.2,3.2-3.2s2.4.1,3.7.3c.3,0,.4.2.4.5v1c0,.3-.2.5-.4.4-1.1-.2-1.8-.3-3.6-.3s-1.3.4-1.3,1.3.3,2.8.6,3.9c0,.3-.1.5-.4.5ZM199.6,206.3c0,.4.2.5.6.5h.9c.3,0,.4.1.4.4v.9c0,.3-.1.4-.4.4h-.8c-.3,0-.6-.1-.7-.3v4.3c0,.3-.2.5-.4.5h-1.1c-.3,0-.4-.2-.4-.5v-8.4c0-.3.2-.5.4-.5h1.1c.3,0,.4.2.4.5v2.1ZM202.9,216.4c-.8,1.6-3.1,2.6-5.1,2.5-.3,0-.4-.1-.4-.4v-1c0-.3.1-.4.4-.4,2.2,0,4.1-1.3,4.1-3v-.6c0-.3.2-.5.4-.5h1.1c.3,0,.4.2.4.5v.6c0,1.6,1.9,3,4.1,3s.4.1.4.4v1c0,.3-.1.4-.4.4-2,.1-4.2-.9-5.1-2.5ZM191.6,204.6c2.6,0,3.8,1.9,3.8,6.1s-1.2,6.1-3.8,6.1-3.8-1.9-3.8-6.1,1.2-6.1,3.8-6.1ZM189.8,210.7c0,3,.6,4.2,1.9,4.2s1.9-1.2,1.9-4.2-.6-4.2-1.9-4.2-1.9,1.2-1.9,4.2ZM185.5,218.3c0,.3-.2.5-.4.5h-1.1c-.3,0-.4-.2-.4-.5v-14.1c0-.3.2-.5.4-.5h1.1c.3,0,.4.2.4.5v14.1ZM176.3,206.7c-.9,0-1.4,0-2.1.2-.3,0-.4-.1-.4-.4v-1c0-.3.1-.4.4-.4.6-.1,1.3-.1,2.3-.1,3.2,0,4.8,1.8,4.8,5.9s-1.5,5.9-4.6,5.9-2-.2-3.1-.7c-.3-.1-.4-.3-.4-.5l.3-1c0-.2.2-.4.3-.4s.1,0,.2,0c1,.4,1.9.6,2.6.6,1.9,0,2.8-1.3,2.8-4s-.8-4.1-2.9-4.1ZM169.8,212.1c0-.4-.2-.5-.6-.5h-1.1c-.3,0-.4-.1-.4-.4v-1c0-.3.1-.4.4-.4h1c.3,0,.6.1.7.3v-5.8c0-.3.2-.5.4-.5h1.1c.3,0,.4.2.4.5v14.1c0,.3-.2.5-.4.5h-1.1c-.3,0-.4-.2-.4-.5v-6.2ZM165,219.2c-.8,0-1.3-.5-1.3-1.2s.5-1.2,1.3-1.2,1.3.5,1.3,1.2-.5,1.2-1.3,1.2Z"/>
</svg>