<?xml version="1.0" encoding="UTF-8"?>
<svg id="_레이어_1" data-name="레이어_1" xmlns="http://www.w3.org/2000/svg" version="1.1" viewBox="0 0 360 610">
  <!-- Generator: Adobe Illustrator 29.0.1, SVG Export Plug-In . SVG Version: 2.1.0 Build 192)  -->
  <defs>
    <style>
      .st0 {
        fill: #e06644;
      }

      .st1 {
        fill: #f7dd79;
      }
    </style>
  </defs>
  <rect class="st0" y="0" width="360" height="610" rx="16" ry="16"/>
  <path class="st1" d="M321.5,41c1.1,0,1.9-.8,1.9-2s-.7-1.9-1.9-1.9-1.9.7-1.9,1.9.7,2,1.9,2ZM312.4,50.5v-.9c0-.3.2-.4.5-.4,1.4.2,3.4.3,4.6.3,3.7,0,4.5,0,4.5-.7s-.5-.7-3.5-.7-3.9,0-5.2,0c-.3,0-.4-.1-.4-.4v-.8c0-.3.1-.4.4-.4h.6c-.7-.3-1.2-.9-1.2-1.6s.5-1.4,1.6-1.4c2.3,0,6.2,0,8.9.2.3,0,.4.1.4.4v.9c0,.3-.1.4-.4.4-2-.1-5.8-.3-7.6-.3s-.9.2-.9.6.3.6.9.6c1,0,1.9,0,2.8,0,4.2,0,5.5.5,5.5,2.3s-1.4,2.4-6.6,2.4-3.3-.1-4.8-.3c-.3,0-.4-.2-.4-.4ZM321.5,35.3c2.4,0,3.9,1.5,3.9,3.7s-1.5,3.8-3.9,3.8-4-1.5-4-3.8,1.5-3.7,4-3.7ZM315,37.2c0,.4.2.6.6.6h.9c.3,0,.4.1.4.5v1c0,.3-.1.5-.4.5h-.8c-.4,0-.6-.1-.7-.4v2.9c0,.3-.2.5-.5.5h-1.1c-.3,0-.5-.2-.5-.5v-6.7c0-.3.2-.5.5-.5h1.1c.3,0,.5.2.5.5v1.7ZM300.4,40.6c1,0,2.1,0,3.2,0,3.3,0,5.2,0,6.3-.2.3,0,.4.1.4.4v.9c0,.3-.1.4-.4.4-1.4.1-3.8.2-5.6.2.1,0,.2.3.2.5v.9c1.3,0,2.6.1,3.8.2.3,0,.4.1.4.4v.9c0,.3-.1.4-.4.4-2-.1-5.8-.3-7.7-.3s-.8.2-.8.6.2.6.9.6c.9,0,2,0,3,0,4.3,0,5.4.6,5.4,2.3s-1.2,2.4-6.5,2.4-3.5-.1-4.9-.3c-.3,0-.4-.2-.4-.4v-.9c0-.3.2-.4.5-.4,1.3.2,3.4.3,4.8.3,3.7,0,4.4,0,4.4-.7s-.4-.7-3.4-.7-4.2,0-5.3,0c-.3,0-.4-.1-.4-.4v-.8c0-.3.1-.4.4-.4h.6c-.7-.3-1.2-.9-1.2-1.6s.4-1.4,1.7-1.4c.8,0,1.9,0,3.1,0v-.8c0-.3-.1-.5-.5-.5-1.4,0-3.6,0-4.9-.2-.3,0-.4-.2-.4-.5v-.9c0-.3.2-.4.5-.4.3,0,.6,0,1,0-.1-.6-.2-1.3-.2-2.1,0-2.1,1.2-3,3.7-3s4.7.1,6.6.3c.3,0,.5.2.5.5v1c0,.3-.2.5-.5.4-2.2-.2-4.1-.3-6.4-.3s-1.8.5-1.8,1.7.1,1.1.3,1.6ZM287.7,36.9c-2.7,0-3.5.3-3.5,1.1s.8,1.1,3.5,1.1,3.5-.3,3.5-1.1-.8-1.1-3.5-1.1ZM281.8,50.5v-.8c0-.3.2-.4.5-.4,1.3.2,3.4.3,4.8.3,3.7,0,4.4,0,4.4-.6s-.4-.6-3.4-.6-4.2,0-5.3,0c-.3,0-.4-.1-.4-.4v-.7c0-.3.1-.4.4-.4h.6c-.7-.2-1.2-.8-1.2-1.5s.4-1.3,1.7-1.3c2.3,0,6.2,0,8.9.2.3,0,.4.1.4.4v.8c0,.3-.1.4-.4.4-2-.1-5.9-.3-7.7-.3s-.8.2-.8.6.2.5.9.5c.9,0,2,0,3,0,4.3,0,5.4.5,5.4,2.2s-1.2,2.3-6.5,2.3-3.5-.1-4.9-.3c-.3,0-.4-.2-.4-.4ZM287.9,41.6c2.1,0,4.6,0,6.3-.2.3,0,.5.1.5.4v.9c0,.3-.1.4-.4.4-1.1.1-3.1.2-6.4.2-2.5,0-5.1,0-6.4-.2-.3,0-.4-.2-.4-.5v-.9c0-.3.2-.4.5-.4,1.4.1,3.4.2,6.4.2ZM287.7,40.8c-4,0-5.6-.8-5.6-2.8s1.6-2.8,5.6-2.8,5.6.8,5.6,2.8-1.6,2.8-5.6,2.8ZM272.6,47.9c0,2.1-1.5,3.3-4,3.3s-5.3-.1-7.1-.3c-.3,0-.4-.2-.4-.5v-1c0-.3.3-.5.5-.4,2.1.2,3.9.3,7.1.3s1.8-.6,1.8-1.7,0-1.3-.1-1.8c0-.3.2-.5.5-.5h1.1c.3,0,.5.2.5.5,0,.5.1,1.2.1,2ZM263.7,45.6c0,.3-.2.5-.5.5h-1.1c-.3,0-.5-.2-.5-.5v-10.1c0-.3.2-.5.5-.5h1.1c.3,0,.5.2.5.5v10.1ZM270.1,35.3c2.4,0,4,1.7,4,4.4s-1.6,4.4-4,4.4-4-1.7-4-4.4,1.6-4.4,4-4.4ZM270.1,42.1c1.2,0,2-1,2-2.5s-.8-2.5-2-2.5-2,1-2,2.5.8,2.5,2,2.5ZM246.7,47.7c0-2,1-2.9,3.5-2.9s5.3.1,7.2.3c.3,0,.5.2.5.5v1c0,.3-.1.5-.5.4-2.2-.2-4.4-.3-7-.3s-1.7.3-1.7,1.5,0,1.7,0,2.3c0,.3-.2.5-.5.5h-1.1c-.3,0-.5-.2-.5-.5,0-.6,0-1.6,0-2.8ZM254.5,35.4h1.1c.3,0,.5.2.5.5v2.1c0,2,1.2,3.5,2.7,3.5s.5.1.5.5v1c0,.3-.1.4-.5.4-1.9,0-3.3-1.2-3.8-2.7-.5,1.4-1.9,2.7-3.8,2.7s-.4-.1-.4-.4v-1c0-.3.1-.5.4-.5,1.6,0,2.7-1.5,2.7-3.5v-2.1c0-.3.2-.5.5-.5ZM248.7,43.1c0,.3-.2.5-.5.5h-1.1c-.3,0-.5-.2-.5-.5v-7.6c0-.3.2-.5.5-.5h1.1c.3,0,.5.2.5.5v7.6ZM230.6,35h1.1c.3,0,.5.1.5.5v5.8s1,0,1,0c.3,0,.5.1.6.3v-6c0-.3.1-.5.5-.5h1.1c.3,0,.5.1.5.5v14.9c0,.3-.1.5-.5.5h-1.1c-.3,0-.5-.1-.5-.5v-6.7c0-.4-.1-.5-.5-.5h-1.1s0,7.2,0,7.2c0,.3-.1.5-.5.5h-1.1c-.3,0-.5-.1-.5-.5v-15c0-.3.1-.5.5-.5ZM240.9,39.6c2.2,0,3.4,1.6,3.4,4.4s-1.2,4.4-3.4,4.4-3.4-1.6-3.4-4.4,1.2-4.4,3.4-4.4ZM239.9,36.2v-1.2c0-.3.1-.5.5-.5h1.1c.3,0,.5.1.5.5v1c0,.2-.1.4-.3.5h2.8c.3,0,.4.1.4.5v1.1c0,.3-.1.4-.4.4h-7c-.3,0-.4-.1-.4-.4v-1.1c0-.3.1-.5.4-.5h2.1c.3,0,.4,0,.4-.3ZM239.5,44.1c0,1.7.5,2.5,1.4,2.5s1.4-.8,1.4-2.5-.4-2.4-1.4-2.4-1.4.8-1.4,2.4ZM214.9,48.5c-.3,0-.5-.1-.5-.4v-1.1c0-.3.1-.5.4-.5,1.5-.2,2.8-2.1,2.8-4.1v-5.8c0-.3.2-.5.5-.5h1.1c.3,0,.5.2.5.5v5.8c0,2.1,1.3,3.9,2.8,4.1.3,0,.4.2.4.5v1.1c0,.3-.1.4-.4.4-1.7-.2-3.3-1.6-3.8-3.3-.4,1.7-2,3-3.8,3.3ZM210.6,43.9c0-.4-.2-.6-.6-.6h-1.2c-.3,0-.4-.1-.4-.4v-1.1c0-.3.1-.5.4-.5h1.1c.4,0,.6.1.7.4v-6.2c0-.3.2-.5.5-.5h1.1c.3,0,.5.2.5.5v15c0,.3-.2.5-.5.5h-1.1c-.3,0-.5-.2-.5-.5v-6.6ZM203.5,38.3c0-.9-.9-1.2-3.5-1.2s-3.5.3-3.5,1.2.9,1.2,3.5,1.2,3.5-.4,3.5-1.2ZM198.3,41.9c0,.3-.1.5-.4.6,1.3,0,2.8,0,3.6,0,.3,0,.4-.1.4-.4v-.8c-.6,0-1.2.1-2,.1s-1.2,0-1.7,0v.6ZM200,46.9c-2.7,0-3.8.3-3.8,1.2s1.1,1.2,3.8,1.2,3.8-.4,3.8-1.2-1.1-1.2-3.8-1.2ZM193.8,42.3c.6,0,1.4.1,2,.1s.4-.1.4-.4v-1.2c-1.3-.5-1.8-1.3-1.8-2.6,0-2.1,1.7-3.1,5.6-3.1s5.6,1,5.6,3.1-.5,1.9-1.6,2.4v1.1c0,.3-.1.5-.3.6.9,0,1.8,0,2.7-.1.3,0,.5.1.5.4v1c0,.3-.1.5-.5.5-1.1.1-3,.2-6.3.2-2.5,0-5.1,0-6.4-.2-.3,0-.5-.2-.5-.5v-1c0-.3.2-.5.5-.4ZM200,51.3c-4,0-5.9-1-5.9-3.1s1.9-3.1,5.9-3.1,5.9,1,5.9,3.1-1.9,3.1-5.9,3.1ZM188.4,38.1v4.3c0,2.1,1.3,3.9,2.8,4.1.3,0,.4.2.4.5v1.1c0,.3-.1.4-.4.4-1.7-.2-3.3-1.6-3.8-3.3-.4,1.7-2,3-3.8,3.3-.3,0-.4-.1-.4-.4v-1.1c0-.3.1-.5.4-.5,1.5-.2,2.8-2.1,2.8-4.1v-4.3s-2.7,0-2.7,0c-.3,0-.5-.1-.5-.5v-1.1c0-.3.1-.5.5-.5h7.4c.3,0,.5.1.5.5v1.1c0,.3-.1.5-.5.5h-2.6ZM179.2,43.9c0-.4-.2-.6-.6-.6h-1.2c-.3,0-.4-.1-.4-.4v-1.1c0-.3.1-.5.4-.5h1.1c.4,0,.6.1.7.4v-6.2c0-.3.2-.5.5-.5h1.1c.3,0,.5.2.5.5v15c0,.3-.2.5-.5.5h-1.1c-.3,0-.5-.2-.5-.5v-6.6ZM162.7,50.5v-.8c0-.3.2-.4.5-.3,1.3.2,3.4.3,4.8.3,3.9,0,4.4-.1,4.4-.6s-.4-.5-3.4-.5-4.3,0-5.3,0c-.3,0-.4-.1-.4-.4v-.8c0-.2.1-.3.4-.3h.6c-.7-.2-1.2-.8-1.2-1.5s.4-1.1,1.7-1.2c2.4,0,6.3,0,8.9.2.3,0,.4.1.4.4v.8c0,.3-.1.4-.4.4-1.9-.1-5.7-.2-7.7-.2s-.8.1-.8.5.2.5.9.5c.9,0,2,0,3,0,4.3,0,5.4.4,5.4,2.1s-1.1,2.1-6.5,2.1-3.6-.1-4.9-.3c-.3,0-.4-.1-.3-.4ZM168.8,42.3c2.1,0,4.7,0,6.4-.2.3,0,.4.1.4.4v.8c0,.3-.1.4-.4.4-1.1.1-3.1.2-6.4.2-2.5,0-5.1,0-6.4-.2-.3,0-.4-.2-.4-.5v-.8c0-.3.1-.4.4-.4,1.4.1,3.5.2,6.4.2ZM163.4,38.9v-.7c0-.2.1-.3.3-.3h.7c-.7-.2-1.2-.7-1.2-1.4s.4-1,1.7-1c2.4,0,5.7,0,8.4.2.3,0,.4.1.4.4v.7c0,.3,0,.4-.3.4-1.9-.1-5.2-.2-7.2-.2s-.8,0-.8.4.2.5.9.5c.9,0,1.7,0,2.7,0,4.1,0,5.1.4,5.1,1.9s-1.1,1.9-6.2,1.9-3.4-.1-4.6-.3c-.3,0-.3-.1-.3-.4v-.7c0-.3.2-.4.4-.3,1.3.2,3.1.3,4.5.3,3.6,0,4.1,0,4.1-.5s-.4-.5-3.1-.5-4.1,0-5.1,0c-.2,0-.3,0-.3-.3ZM142.6,47.7c0-2,1-2.9,3.5-2.9s5.3.1,7.2.3c.3,0,.4.2.4.5v1c0,.3-.1.5-.4.4-2.2-.2-4.4-.3-7-.3s-1.7.3-1.7,1.5,0,1.7,0,2.3c0,.3-.2.5-.5.5h-1.1c-.3,0-.5-.2-.5-.5,0-.6,0-1.6,0-2.8ZM150.4,35.4h1.1c.3,0,.5.2.5.5v2.1c0,2,1.2,3.5,2.7,3.5s.4.1.4.5v1c0,.3-.1.4-.4.4-1.9,0-3.3-1.2-3.8-2.7-.5,1.4-1.9,2.7-3.8,2.7s-.4-.1-.4-.4v-1c0-.3.1-.5.4-.5,1.6,0,2.7-1.5,2.7-3.5v-2.1c0-.3.2-.5.5-.5ZM144.6,43.1c0,.3-.2.5-.5.5h-1.1c-.3,0-.5-.2-.5-.5v-7.6c0-.3.2-.5.5-.5h1.1c.3,0,.5.2.5.5v7.6ZM134.4,38.8v1.5c0,.4.3.5.6.5h2.1c.4,0,.6-.1.6-.5v-1.5c0,0-3.4,0-3.4,0ZM127.1,50.5v-.9c0-.3.2-.4.5-.4,1.4.2,3.4.3,4.6.3,3.7,0,4.5,0,4.5-.7s-.5-.7-3.5-.7-3.9,0-5.2,0c-.3,0-.4-.1-.4-.4v-.8c0-.3.1-.4.4-.4h.6c-.7-.3-1.2-.9-1.2-1.6s.5-1.4,1.6-1.4c2.3,0,6.2,0,8.9.2.3,0,.4.1.4.4v.9c0,.3-.1.4-.4.4-2-.1-5.8-.3-7.6-.3s-.9.2-.9.6.3.6.9.6c1,0,1.9,0,2.8,0,4.2,0,5.5.5,5.5,2.3s-1.4,2.4-6.6,2.4-3.3-.1-4.8-.3c-.3,0-.4-.2-.4-.4ZM134.5,42.6c-1.2,0-1.9-.6-2-1.7l-.3-4.9c0-.3.2-.5.5-.5h1.1c.3,0,.5.1.5.4v1.1h3.7s0-1.1,0-1.1c0-.3.2-.4.5-.4h1.1c.3,0,.5.2.5.5l-.3,4.9c0,1.1-.8,1.7-2,1.7h-3.4ZM129.6,42.2c0,.3-.2.5-.5.5h-1.1c-.3,0-.5-.2-.5-.5v-6.7c0-.3.2-.5.5-.5h1.1c.3,0,.5.2.5.5v.4c0,.3.1.5.4.5h1.1c.3,0,.4.1.4.5v1c0,.3-.1.5-.4.5h-.9c-.3,0-.6-.1-.7-.3v1.4c0,.3.1.5.4.5h1.1c.3,0,.4.1.4.5v1c0,.3-.1.4-.4.4h-.9c-.3,0-.6-.1-.7-.3v.9ZM119.2,44.1c0,1.6.7,2.5,1.9,2.5s1.9-.8,1.9-2.5-.7-2.4-1.9-2.4-1.9.8-1.9,2.4ZM121.1,39.6c2.5,0,3.9,1.6,3.9,4.4s-1.5,4.4-3.9,4.4-3.9-1.6-3.9-4.4,1.5-4.4,3.9-4.4ZM113,43.9c0-.4-.2-.6-.6-.6h-1.2c-.3,0-.4-.1-.4-.4v-1.1c0-.3.1-.5.4-.5h1.1c.4,0,.6.1.7.4v-6.2c0-.3.2-.5.5-.5h1.1c.3,0,.5.2.5.5v15c0,.3-.2.5-.5.5h-1.1c-.3,0-.5-.2-.5-.5v-6.6ZM120,36.2v-1.2c0-.3.1-.5.4-.5h1.2c.3,0,.5.1.5.5v1c0,.2-.1.4-.3.5h3.3c.3,0,.4.1.4.5v1.1c0,.3-.1.4-.4.4h-8c-.3,0-.5-.1-.5-.4v-1.1c0-.3.1-.5.5-.5h2.6c.3,0,.4,0,.4-.3ZM107.8,38.8c0,2.1-1.3,3.3-3.7,3.3s-5.3-.1-7.1-.3c-.3,0-.4-.2-.4-.4v-1c0-.3.3-.5.5-.4,2.1.2,4,.3,6.8.3s1.7-.5,1.7-1.5,0-2-.1-2.8c0-.3.1-.5.4-.5h1.1c.3,0,.5.2.5.5,0,.8.1,2.2.1,2.9ZM108.1,48c0,2.1-1.4,3.3-3.8,3.3s-5.6-.1-7.4-.3c-.3,0-.5-.2-.4-.5v-1c0-.3.3-.5.5-.4,2.1.2,4.2.3,7.4.3s1.7-.5,1.7-1.5,0-.9-.1-1.3c0-.3.1-.5.4-.5h1.1c.3,0,.5.2.5.5,0,.4.1.8.1,1.4ZM109.3,43.5v1c0,.3-.1.5-.4.5-1.1.1-3,.2-6.3.2-2.5,0-5.1,0-6.4-.2-.3,0-.4-.2-.4-.5v-1c0-.3.2-.5.5-.4,1.3.1,3.4.2,6.3.2s4.6,0,6.3-.2c.3,0,.5.1.5.4ZM322.7,64.7c0-.7.5-1.2,1.1-1.3-.1-.3-.3-.4-.7-.4s-.2,0-.2-.2v-.4c0-.1,0-.2.2-.2,1.4,0,2.3.9,2.3,2.3s-.5,1.4-1.4,1.4-1.3-.5-1.3-1.3ZM317,69c1.1,0,1.9-.8,1.9-2s-.7-1.9-1.9-1.9-1.9.7-1.9,1.9.7,2,1.9,2ZM307.9,78.5v-.9c0-.3.2-.4.5-.4,1.4.2,3.4.3,4.6.3,3.7,0,4.5,0,4.5-.7s-.5-.7-3.5-.7-3.9,0-5.2,0c-.3,0-.4-.1-.4-.4v-.8c0-.3.1-.4.4-.4h.6c-.7-.3-1.2-.9-1.2-1.6s.5-1.4,1.6-1.4c2.3,0,6.2,0,8.9.2.3,0,.4.1.4.4v.9c0,.3-.1.4-.4.4-2-.1-5.8-.3-7.6-.3s-.9.2-.9.6.3.6.9.6c1,0,1.9,0,2.8,0,4.2,0,5.5.5,5.5,2.3s-1.4,2.4-6.6,2.4-3.3-.1-4.8-.3c-.3,0-.4-.2-.4-.4ZM317,63.3c2.4,0,3.9,1.5,3.9,3.7s-1.5,3.8-3.9,3.8-4-1.5-4-3.8,1.5-3.7,4-3.7ZM310.5,65.2c0,.4.2.6.6.6h.9c.3,0,.5.1.5.5v1c0,.3-.1.5-.5.5h-.8c-.4,0-.6-.1-.7-.4v2.9c0,.3-.2.5-.5.5h-1.1c-.3,0-.5-.2-.5-.5v-6.7c0-.3.2-.5.5-.5h1.1c.3,0,.5.2.5.5v1.7ZM295.9,68.6c1,0,2.1,0,3.2,0,3.3,0,5.2,0,6.3-.2.3,0,.5.1.5.4v.9c0,.3-.1.4-.4.4-1.4.1-3.8.2-5.6.2.1,0,.2.3.2.5v.9c1.3,0,2.6.1,3.8.2.3,0,.4.1.4.4v.9c0,.3-.1.4-.4.4-2-.1-5.8-.3-7.7-.3s-.8.2-.8.6.2.6.9.6c.9,0,2,0,3,0,4.3,0,5.4.6,5.4,2.3s-1.2,2.4-6.5,2.4-3.5-.1-4.9-.3c-.3,0-.4-.2-.4-.4v-.9c0-.3.2-.4.5-.4,1.3.2,3.4.3,4.8.3,3.7,0,4.4,0,4.4-.7s-.4-.7-3.4-.7-4.2,0-5.3,0c-.3,0-.4-.1-.4-.4v-.8c0-.3.1-.4.4-.4h.6c-.7-.3-1.2-.9-1.2-1.6s.5-1.4,1.7-1.4c.8,0,1.9,0,3.1,0v-.8c0-.3-.1-.5-.5-.5-1.4,0-3.6,0-4.9-.2-.3,0-.4-.2-.4-.5v-.9c0-.3.2-.4.5-.4.3,0,.6,0,1,0-.1-.6-.2-1.3-.2-2.1,0-2.1,1.2-3,3.7-3s4.7.1,6.6.3c.3,0,.4.2.4.5v1c0,.3-.2.5-.4.4-2.2-.2-4.1-.3-6.4-.3s-1.8.5-1.8,1.7.1,1.1.3,1.6ZM283.8,75.9c0,2.1-1.5,3.3-4,3.3s-5.3-.1-7.1-.3c-.3,0-.4-.2-.4-.4v-1c0-.3.3-.5.5-.4,2.1.2,3.9.3,7.1.3s1.8-.6,1.8-1.7,0-1.3-.1-1.8c0-.3.2-.5.5-.5h1.1c.3,0,.5.2.5.5,0,.5.1,1.2.1,2ZM274.8,73.6c0,.3-.2.5-.5.5h-1.1c-.3,0-.5-.2-.5-.5v-10.1c0-.3.2-.5.5-.5h1.1c.3,0,.5.2.5.5v10.1ZM281.3,63.3c2.4,0,4,1.7,4,4.4s-1.6,4.4-4,4.4-4-1.7-4-4.4,1.6-4.4,4-4.4ZM281.3,70.1c1.2,0,2-1,2-2.5s-.8-2.5-2-2.5-2,1-2,2.5.8,2.5,2,2.5ZM257.9,75.7c0-2,1-2.9,3.5-2.9s5.3.1,7.2.3c.3,0,.5.2.5.5v1c0,.3-.1.5-.5.4-2.2-.2-4.4-.3-7-.3s-1.7.3-1.7,1.5,0,1.7,0,2.3c0,.3-.2.5-.5.5h-1.1c-.3,0-.5-.2-.5-.5,0-.6,0-1.6,0-2.8ZM265.7,63.4h1.1c.3,0,.5.2.5.5v2.1c0,2,1.2,3.5,2.7,3.5s.5.1.5.4v1c0,.3-.1.5-.5.5-1.9,0-3.3-1.2-3.8-2.7-.5,1.4-1.9,2.7-3.8,2.7s-.4-.1-.4-.5v-1c0-.3.1-.4.4-.4,1.6,0,2.7-1.5,2.7-3.5v-2.1c0-.3.2-.5.5-.5ZM259.9,71.1c0,.3-.2.5-.5.5h-1.1c-.3,0-.5-.2-.5-.5v-7.6c0-.3.2-.5.5-.5h1.1c.3,0,.5.2.5.5v7.6ZM238.1,74.6c0-1.3.8-2.1,2.2-2.1h7.9c.5,0,.8.3.8.8v4.1c0,1-.7,1.6-1.9,1.6h-8.9c-.3,0-.4-.1-.4-.4v-1c0-.3.1-.5.4-.5h1.3c-.9-.5-1.5-1.5-1.5-2.6ZM247.3,65.3v.6c0,1.9,1.2,3.3,2.7,3.3s.4.1.4.4v1c0,.3-.1.5-.4.5-1.9,0-3.3-1.2-3.8-2.6-.5,1.4-1.9,2.6-3.8,2.6s-.5-.1-.5-.5v-1c0-.3.1-.4.5-.4,1.6,0,2.7-1.4,2.7-3.3v-.6s-2.7,0-2.7,0c-.3,0-.5-.1-.5-.4v-1c0-.3.1-.5.5-.5h7.4c.3,0,.5.1.5.5v1c0,.3-.1.4-.5.4h-2.6ZM238.2,68.4c0-.4-.2-.6-.6-.6h-1.2c-.3,0-.4-.1-.4-.4v-1c0-.3.1-.4.4-.4h1.1c.4,0,.6.1.7.4v-2.8c0-.3.2-.5.5-.5h1.1c.3,0,.5.2.5.5v7.2c0,.3-.2.5-.5.5h-1.1c-.3,0-.5-.2-.5-.5v-2.4ZM246.2,77.2c.4,0,.7-.2.7-.6v-1.8c0-.3-.2-.4-.4-.4h-5.2c-.8,0-1.2.3-1.2,1.1s.7,1.7,1.6,1.7h4.5ZM222,74.6c0-1.3.8-2,2-2h8.5c.5,0,.8.3.8.8v4.1c0,1-.7,1.5-1.8,1.5h-9.3c-.3,0-.5-.1-.5-.4v-1c0-.3.1-.5.5-.5h1.1c-.8-.5-1.3-1.4-1.3-2.5ZM234.5,69.5v1c0,.3-.1.5-.4.5-1.1.1-3,.2-6.3.2-2.5,0-5.1,0-6.4-.2-.3,0-.4-.2-.4-.5v-1c0-.3.2-.5.5-.4.3,0,.7,0,1.2,0-.2-.7-.3-1.7-.3-2.6,0-2.1,1.2-3.1,3.8-3.1s4.6.1,6.6.3c.3,0,.5.2.5.5v1c0,.3-.2.5-.5.4-2.2-.2-4-.3-6.3-.3s-1.9.5-1.9,1.8.2,1.5.4,2.2c.9,0,1.9,0,3,0,2.1,0,4.6,0,6.3-.2.3,0,.5.1.5.4ZM230.5,77.2c.4,0,.7-.2.7-.5v-1.8c0-.3-.1-.4-.4-.4h-5.8c-.6,0-1,.4-1,1.1s.6,1.6,1.4,1.6h5.1ZM200.3,63h1.1c.3,0,.5.1.5.5v5.8s1,0,1,0c.3,0,.5.1.6.3v-6c0-.3.1-.5.4-.5h1.1c.3,0,.4.1.4.5v14.9c0,.3-.1.5-.4.5h-1.1c-.3,0-.4-.1-.4-.5v-6.7c0-.4-.1-.5-.5-.5h-1.1s0,7.2,0,7.2c0,.3-.1.5-.5.5h-1.1c-.3,0-.5-.1-.5-.5v-15c0-.3.1-.5.5-.5ZM210.6,67.6c2.2,0,3.4,1.6,3.4,4.4s-1.2,4.4-3.4,4.4-3.4-1.6-3.4-4.4c0-2.9,1.2-4.4,3.4-4.4ZM209.6,64.2v-1.2c0-.3.1-.5.4-.5h1.1c.3,0,.4.1.4.5v1c0,.2-.1.4-.3.5h2.8c.3,0,.4.1.4.5v1.1c0,.3-.1.5-.4.5h-7c-.3,0-.4-.1-.4-.5v-1.1c0-.3.1-.5.4-.5h2.1c.3,0,.4,0,.4-.3ZM209.2,72.1c0,1.7.5,2.5,1.4,2.5s1.4-.8,1.4-2.5-.4-2.4-1.4-2.4-1.4.8-1.4,2.4ZM195,66.1v4.8c0,2.2,1,3.4,2.3,3.6.3,0,.4.1.4.4v1.1c0,.3-.1.5-.4.5-1.6-.2-2.8-1.2-3.3-2.7-.5,1.5-1.8,2.5-3.3,2.7-.3,0-.5-.1-.5-.5v-1.1c0-.3.1-.4.5-.4,1.4-.2,2.4-1.4,2.4-3.6v-4.8s-2.3,0-2.3,0c-.3,0-.4-.1-.4-.5v-1.1c0-.3.1-.5.4-.5h6.5c.3,0,.4.1.4.5v1.1c0,.3-.1.5-.4.5h-2.2ZM191.2,69.6v1.1c0,.3-.1.4-.4.4h-1.6c-.3,0-.5-.1-.6-.3v7.7c0,.3-.1.5-.5.5h-1.1c-.3,0-.4-.1-.4-.5v-14.9c0-.3.1-.5.4-.5h1.1c.3,0,.5.1.5.5v5c0,.4.1.5.5.5h1.6c.3,0,.4.1.4.4ZM183.9,63h1.1c.3,0,.4.1.4.5v15c0,.3-.1.5-.4.5h-1.1c-.3,0-.4-.1-.4-.5v-15c0-.3.1-.5.4-.5ZM181,63.5c0,.7-.4,1.2-1.1,1.3.1.3.3.4.7.4s.2,0,.2.2v.4c0,.1,0,.2-.2.2-1.4,0-2.3-.9-2.3-2.3s.5-1.4,1.4-1.4,1.4.5,1.4,1.3ZM175,79.4c-.8,0-1.4-.5-1.4-1.3s.6-1.3,1.4-1.3,1.4.5,1.4,1.3-.6,1.3-1.4,1.3ZM155,72.7c-.3,0-.6,0-.6-.4v-1.1c0-.3.1-.4.4-.4,2.4,0,4.1-1.6,4.1-3.8v-2.5c0-.3.2-.5.5-.5h1.1c.3,0,.5.2.5.5v2.5c0,2.2,1.7,3.8,4.1,3.8s.5.1.5.4v1.1c0,.4-.3.4-.6.4-2.1,0-4.2-1.2-4.9-3-.8,1.8-2.8,3-4.9,3ZM166.8,75.8v1c0,.3-.1.4-.4.5-1.4.2-3.5.3-6.3.3s-5.1-.1-6.4-.3c-.3,0-.4-.2-.4-.5v-1c0-.3.2-.5.5-.4,1.4.2,3.8.3,6.3.3s4.6-.1,6.3-.3c.3,0,.5.1.5.4ZM148.4,74.5c.4,0,.7-.2.7-.6v-7.4c0-.3-.2-.4-.4-.4h-1.5c-1.4,0-1.8,1-1.8,4s.8,4.4,2,4.4h1.1ZM150.3,64.2c.5,0,.8.3.8.8v9.9c0,1-.7,1.6-1.9,1.6h-5.5c-.3,0-.4-.1-.4-.5v-1.1c0-.3.1-.4.4-.4h1.1c-1-1.2-1.7-3.3-1.7-5.9s.9-4.5,3.4-4.5h3.7ZM139.1,71.9c0-.4-.2-.6-.6-.6h-1.2c-.3,0-.4-.1-.4-.5v-1.1c0-.3.1-.5.4-.5h1.1c.4,0,.6.1.7.4v-6.2c0-.3.2-.5.5-.5h1.1c.3,0,.5.2.5.5v15c0,.3-.2.5-.5.5h-1.1c-.3,0-.5-.2-.5-.5v-6.6ZM128.7,67c4.1,0,5.5.8,5.5,3s-1.3,3.1-5.5,3.1-3.7,0-5.2-.3c-.3,0-.4-.2-.4-.5v-1.1c.1-.3.3-.4.6-.4,1.3.2,2.8.3,4.9.3s3.5-.3,3.5-1.2-.8-1.1-3.3-1.1-3.2,0-4.9.1c-.3,0-.4-.1-.4-.4v-1.1c0-.3.1-.4.4-.4,1.1,0,2.8-.1,4.8-.1ZM123.9,65.9c-.3,0-.4-.1-.4-.4v-1c0-.3.1-.5.4-.5h9.7c.3,0,.5.1.5.5v1c0,.3-.1.4-.5.4h-9.7ZM135.5,75.8v1c0,.3-.1.4-.4.5-1.4.2-3.5.3-6.3.3s-5.1-.1-6.4-.3c-.3,0-.4-.2-.4-.5v-1c0-.3.2-.5.5-.4,1.4.2,3.8.3,6.3.3s4.6-.1,6.3-.3c.3,0,.5.1.5.4ZM116.9,65.2l-.4,2.9c.7,0,1.3,0,1.7-.1.3,0,.4.1.4.4v1.1c0,.3-.1.4-.4.4-.9,0-2.3.2-4.2.2v.8c0,.2-.1.4-.3.5,1.8,0,4.2,0,5.5-.2.3,0,.5.1.5.4v1c0,.3-.1.5-.4.5-1.1.1-3,.2-6.3.2-2.5,0-5.1,0-6.4-.2-.3,0-.4-.2-.4-.5v-1c0-.3.2-.5.5-.4,1.3.1,3.4.2,4.8.1.3,0,.4-.2.4-.4v-.9c-1.9,0-3.4-.1-4.3-.2-.3,0-.4-.2-.4-.4v-1.1c0-.3.2-.4.5-.4.4,0,1,0,1.7.1l-.4-2.9h-1c-.3,0-.4-.1-.4-.4v-1c0-.3.1-.5.4-.5h10c.3,0,.4.1.4.5v1c0,.3-.1.4-.4.4h-1ZM118.6,76c0,2.1-1.4,3.3-3.8,3.3s-5.6-.1-7.4-.3c-.3,0-.4-.2-.4-.4v-1c0-.3.3-.5.5-.4,2.1.2,4.2.3,7.4.3s1.7-.5,1.7-1.5,0-.9-.1-1.3c0-.3.1-.5.4-.5h1.1c.3,0,.5.2.5.5,0,.4.1.8.1,1.4ZM114.5,68.2l.4-3h-3.8s.4,3,.4,3c.5,0,1,0,1.5,0s1,0,1.5,0ZM96,71.2c-.3,0-.5-.1-.6-.3v7.6c0,.3-.1.5-.5.5h-1.1c-.3,0-.5-.1-.5-.5v-14.9c0-.3.1-.5.5-.5h1.1c.3,0,.5.1.5.5v5.1c0,.4.1.5.5.5h1.5c.2-3.6,1.4-5.3,3.6-5.3s3.6,2,3.6,6.4-1.2,6.5-3.6,6.5-3.4-1.8-3.6-5.7h-1.4ZM90.7,63h1.1c.3,0,.5.1.5.5v15c0,.3-.1.5-.5.5h-1.1c-.3,0-.5-.1-.5-.5v-15c0-.3.1-.5.5-.5ZM99.3,70.4c0,3.2.5,4.5,1.6,4.5s1.6-1.3,1.6-4.5-.5-4.5-1.6-4.5-1.6,1.3-1.6,4.5ZM72.9,75.6v.9c0,.5.3.7.9.7h4.8c.5,0,.8-.2.8-.7v-.9c0,0-6.5,0-6.5,0ZM70.9,77.4l-.3-4.4c0-.3.2-.5.5-.5h1.1c.3,0,.5.2.5.5v.8c0,0,6.8,0,6.8,0v-.8c0-.3.2-.5.5-.5h1.1c.3,0,.5.2.5.5l-.3,4.4c0,1.1-.8,1.7-2,1.7h-6.5c-1.3,0-2-.6-2-1.7ZM74.2,70.3l.2-.9c0-.3.2-.4.6-.3,1.1.3,2,.4,3,.4,1.9,0,2.6-.1,2.6-.9s-.7-.8-3-.8-1.5,0-2.1.1c-.3,0-.5,0-.5-.4v-.9c0-.3.1-.5.4-.5.7-.1,1.4-.2,2.3-.2,3.7,0,5,.6,5,2.8s-1.4,2.7-4.6,2.7-2.3-.2-3.5-.5c-.3-.1-.5-.3-.4-.6ZM75.1,65.3c-.3,0-.5-.1-.5-.5v-.9c0-.3.1-.5.5-.5h6.9c.3,0,.5.1.5.5v.9c0,.3-.1.5-.5.5h-6.9ZM70.6,68.5c0-.4-.2-.6-.6-.6h-1.2c-.3,0-.4-.1-.4-.5v-1c0-.3.1-.4.4-.4h1.1c.4,0,.6.1.7.4v-2.9c0-.3.2-.5.5-.5h1.1c.3,0,.5.2.5.5v7.4c0,.3-.2.5-.5.5h-1.1c-.3,0-.5-.2-.5-.5v-2.4ZM53.5,63h1.1c.3,0,.5.1.5.5v5.8s1,0,1,0c.3,0,.5.1.6.3v-6c0-.3.1-.5.5-.5h1.1c.3,0,.5.1.5.5v14.9c0,.3-.1.5-.5.5h-1.1c-.3,0-.5-.1-.5-.5v-6.7c0-.4-.1-.5-.5-.5h-1.1s0,7.2,0,7.2c0,.3-.1.5-.5.5h-1.1c-.3,0-.5-.1-.5-.5v-15c0-.3.1-.5.5-.5ZM64.7,66.1v4.8c0,2.2,1,3.4,2.3,3.6.3,0,.5.1.5.4v1.1c0,.3-.1.5-.5.5-1.6-.2-2.8-1.2-3.3-2.7-.5,1.5-1.8,2.5-3.3,2.7-.3,0-.4-.1-.4-.5v-1.1c0-.3.1-.4.4-.4,1.4-.2,2.4-1.4,2.4-3.6v-4.8s-2.3,0-2.3,0c-.3,0-.4-.1-.4-.5v-1.1c0-.3.1-.5.4-.5h6.5c.3,0,.4.1.4.5v1.1c0,.3-.1.5-.4.5h-2.2ZM42,69.1l.3-1c0-.3.3-.4.5-.3.9.3,1.9.5,2.6.5,2.3,0,2.9-.3,2.9-1.5s-.7-1.5-3.1-1.5-1.5,0-2.1.2c-.3,0-.5-.1-.5-.4v-1c0-.3.1-.4.4-.5.6-.1,1.2-.2,2.3-.2,3.5,0,5,.9,5,3.3s-.9,2.9-3,3.2v.9c0,.3-.1.4-.3.5,1.3,0,2.9,0,3.7-.2.3,0,.5,0,.5.4v1.1c0,.3-.1.5-.4.5-1.2,0-2.7.1-4.5.1s-3.6,0-4.8-.1c-.3,0-.5-.2-.5-.5v-1c0-.3.2-.4.5-.4.7,0,2,0,3.2,0s.5-.1.5-.4v-.8c-.8,0-1.9-.2-2.9-.5-.3,0-.4-.3-.3-.6ZM49.5,76c0,2.1-1.4,3.3-3.8,3.3s-5.8-.1-7.6-.3c-.3,0-.5-.2-.4-.4v-1c0-.3.3-.5.5-.4,2.1.2,4.2.3,7.5.3s1.7-.5,1.7-1.5,0-.9-.1-1.3c0-.3.1-.5.4-.5h1.1c.3,0,.5.2.5.5,0,.4.1.8.1,1.4ZM38.1,63.5c0-.3.2-.5.5-.5h1.1c.3,0,.5.2.5.5v10.5c0,.3-.2.5-.5.5h-1.1c-.3,0-.5-.2-.5-.5v-10.5ZM321.4,92c2.8,0,4,2,4,6.4,0,4.4-1.3,6.5-4,6.5s-4-2-4-6.5c0-4.5,1.2-6.4,4-6.4ZM319.5,98.4c0,3.2.6,4.5,2,4.5s2-1.3,2-4.5-.6-4.5-2-4.5-2,1.3-2,4.5ZM315,106.5c0,.3-.2.5-.5.5h-1.1c-.3,0-.5-.2-.5-.5v-15c0-.3.2-.5.5-.5h1.1c.3,0,.5.2.5.5v15ZM298.1,96c0-2.8,1-3.9,3.5-3.9s2.6.1,3.9.3c.3,0,.5.2.5.5v1c0,.3-.2.5-.5.5-1.2-.2-2.2-.3-3.5-.3s-1.8.5-1.8,2.1c0,2.6.2,5.2.7,7.8,0,.3-.1.5-.5.5h-1.2c-.3,0-.5-.1-.5-.4-.4-2.6-.7-5.2-.7-8.1ZM295.7,106.5c0,.3-.2.5-.5.5h-1.1c-.3,0-.5-.2-.5-.5v-15c0-.3.2-.5.5-.5h1.1c.3,0,.5.2.5.5v15ZM284.5,107.3c-4,0-5.9-1-5.9-3.1s1.9-3.1,5.9-3.1,5.9,1,5.9,3.1-1.9,3.1-5.9,3.1ZM284.5,102.9c-2.7,0-3.8.3-3.8,1.2s1.1,1.2,3.8,1.2,3.8-.4,3.8-1.2-1.1-1.2-3.8-1.2ZM291.4,98.6v1c0,.3-.1.5-.4.5-1.1.1-3,.2-6.3.2-2.5,0-5.1,0-6.4-.2-.3,0-.4-.2-.4-.5v-1c0-.3.2-.5.5-.4,1.3.1,3.4.2,6.3.2s4.6,0,6.3-.2c.3,0,.5.1.5.4ZM289.9,94.2c0,2-1.3,3.2-3.6,3.2s-5.4-.1-7.1-.3c-.3,0-.4-.2-.4-.5v-1c0-.3.3-.5.5-.4,2.1.2,4.1.3,6.9.3s1.6-.4,1.6-1.4,0-1.5-.1-2.2c0-.3.1-.5.4-.5h1.1c.3,0,.5.2.5.5,0,.6.1,1.5.1,2.3ZM274.9,104c0,2.1-1.4,3.3-3.8,3.3s-5.6-.1-7.4-.3c-.3,0-.4-.2-.4-.4v-1c0-.3.3-.5.5-.4,2.1.2,4.2.3,7.4.3s1.7-.5,1.7-1.5,0-.9-.1-1.3c0-.3.1-.5.4-.5h1.1c.3,0,.5.2.5.5,0,.4.1.8.1,1.4ZM276.1,99.5v1c0,.3-.1.4-.4.5-1.1.1-3,.2-6.3.2-2.5,0-5.1,0-6.4-.2-.3,0-.4-.2-.4-.5v-1c0-.3.2-.5.5-.4,1.3.1,3.4.2,6.3.2s4.6,0,6.3-.2c.3,0,.5.1.5.4ZM269.2,98.1c-3.9,0-5.6-1.1-5.6-3.4s1.7-3.4,5.6-3.4,5.6,1.1,5.6,3.4-1.7,3.4-5.6,3.4ZM272.7,94.7c0-1.1-.9-1.6-3.5-1.6s-3.5.4-3.5,1.6.9,1.6,3.5,1.6,3.5-.5,3.5-1.6ZM255.7,94.1l-.3,8.3c.4,0,.8,0,1.2-.1.3,0,.5.1.5.5v1.1c0,.3-.1.4-.5.4-.9.1-2.3.2-3.6.2s-2.9-.1-3.6-.2c-.3,0-.5-.1-.5-.4v-1.1c0-.3.1-.5.5-.5.3,0,.7,0,1.2.1l-.3-8.3h-.6c-.3,0-.5-.1-.5-.5v-1.1c0-.3.1-.5.5-.5h6.8c.3,0,.4.1.4.5v1.1c0,.3-.1.5-.4.5h-.6ZM249.9,97.7v1.1c0,.3-.1.5-.4.5h-1.5c-.3,0-.5-.1-.6-.3v7.6c0,.3-.1.5-.5.5h-1.1c-.3,0-.4-.1-.4-.5v-14.9c0-.3.1-.4.4-.4h1.1c.3,0,.5.1.5.4v5.1c0,.4.1.5.5.5h1.5c.3,0,.4.1.4.4ZM242.7,91h1.1c.3,0,.5.1.5.4v15c0,.3-.1.5-.5.5h-1.1c-.3,0-.5-.1-.5-.5v-15c0-.3.1-.4.5-.4ZM253.8,94.1h-1.7s.3,8.4.3,8.4h1.1s.3-8.4.3-8.4ZM236.2,92c2.8,0,4,2,4,6.4,0,4.4-1.3,6.5-4,6.5s-4-2-4-6.5c0-4.5,1.2-6.4,4-6.4ZM234.2,98.4c0,3.2.6,4.5,2,4.5s2-1.3,2-4.5-.6-4.5-2-4.5-2,1.3-2,4.5ZM229.7,106.5c0,.3-.2.5-.5.5h-1.1c-.3,0-.5-.2-.5-.5v-15c0-.3.2-.5.5-.5h1.1c.3,0,.5.2.5.5v15ZM213.6,100.7c-.3,0-.6,0-.6-.4v-1.1c0-.3.1-.4.4-.4,2.4,0,4.1-1.6,4.1-3.8v-2.5c0-.3.2-.5.5-.5h1.1c.3,0,.5.2.5.5v2.5c0,2.2,1.7,3.8,4.1,3.8s.4.1.4.4v1.1c0,.4-.3.4-.6.4-2.1,0-4.2-1.2-4.9-3-.8,1.8-2.8,3-4.9,3ZM225.4,103.8v1c0,.3-.1.4-.4.5-1.4.2-3.5.3-6.3.3s-5.1-.1-6.4-.3c-.3,0-.4-.2-.4-.5v-1c0-.3.2-.5.5-.4,1.4.2,3.8.3,6.3.3s4.6-.1,6.3-.3c.3,0,.5.1.5.4ZM203.1,103.4l.3-1c0-.2.2-.3.4-.3s.2,0,.3,0c.8.4,1.6.6,2.3.6,1.4,0,2.2-.8,2.2-2.5s-.7-2.6-2.6-2.6-.8,0-1.7.1c-.3,0-.4-.1-.4-.4v-1c0-.3.1-.5.4-.5.7-.1,1.2-.2,2-.2,3,0,4.4,1.4,4.4,4.6s-1.4,4.5-4,4.5-2.1-.3-3.2-.7c-.3-.1-.4-.3-.3-.6ZM203.6,99.2v1.1c0,.3-.1.5-.5.5h-1.2c-.3,0-.5-.1-.6-.3v6.1c0,.3-.1.5-.4.5h-1.1c-.3,0-.4-.1-.4-.5v-14.9c0-.3.1-.4.4-.4h1.1c.3,0,.4.1.4.4v6.6c0,.4.1.5.5.5h1.3c.3,0,.5.1.5.5ZM196.7,91h1.1c.3,0,.5.1.5.4v15c0,.3-.1.5-.5.5h-1.1c-.3,0-.4-.1-.4-.5v-15c0-.3.1-.4.4-.4ZM203.8,94.1c-.3,0-.4-.1-.4-.5v-1.1c0-.3.1-.5.4-.5h6.1c.3,0,.5.1.5.5v1.1c0,.3-.1.5-.5.5h-6.1ZM186.4,93.9c-1.9,0-2.6.7-2.6,2.7,2.9,0,6.2.1,8.1.3.3,0,.4.2.4.5v1.1c0,.3-.1.5-.4.4-2-.2-5.3-.3-8-.3,0,.6.1,1.2.2,1.7,0,.3,0,.4-.3.5l-1.2.2c-.3,0-.4,0-.5-.3-.3-1.3-.3-2.6-.3-4.3,0-2.8,1.5-4.4,4.2-4.4s4.1,0,6.1.3c.3,0,.4.2.4.5v1.1c0,.3-.2.5-.4.4-1.8-.2-3.6-.3-5.7-.3ZM194,103.8v1c0,.3-.1.4-.4.5-1.4.2-3.5.3-6.3.3s-5.1-.1-6.4-.3c-.3,0-.5-.2-.5-.5v-1c0-.3.2-.5.5-.4,1.4.2,3.8.3,6.3.3s4.6-.1,6.3-.3c.3,0,.5.1.5.4ZM174.6,104c1.7,0,3.1-.1,4.3-.3.3,0,.5,0,.5.4v1.1c0,.3-.1.4-.5.5-1.2.2-2.6.3-4.3.3s-3.4,0-4.6-.3c-.3,0-.5-.2-.5-.5v-1c0-.3.2-.4.5-.4,1.2.2,2.9.3,4.6.3ZM174.5,101.3c-2.5,0-4.1-1.9-4.1-4.9s1.6-4.8,4.1-4.8,4.1,1.9,4.1,4.8-1.6,4.9-4.1,4.9ZM176.5,96.5c0-1.7-.8-2.9-2-2.9s-2,1.2-2,2.9.8,2.9,2,2.9,2-1.2,2-2.9ZM166.4,91.5c0-.3.2-.5.5-.5h1.1c.3,0,.5.2.5.5v15c0,.3-.2.5-.5.5h-1.1c-.3,0-.5-.2-.5-.5v-15ZM146,91h1.1c.3,0,.5.1.5.4v5.8s1,0,1,0c.3,0,.5.1.6.3v-6c0-.3.1-.4.4-.4h1.1c.3,0,.4.1.4.4v14.9c0,.3-.1.5-.4.5h-1.1c-.3,0-.4-.1-.4-.5v-6.7c0-.4-.1-.5-.5-.5h-1.1s0,7.2,0,7.2c0,.3-.1.5-.5.5h-1.1c-.3,0-.5-.1-.5-.5v-15c0-.3.1-.4.5-.4ZM155,94.1c-.7,0-1.1,0-1.7.2-.3,0-.5-.1-.5-.4v-1.1c0-.3,0-.4.5-.5.5-.1,1-.1,1.9-.1,3.1,0,4.6,2,4.6,6.3s-1.5,6.3-4.4,6.3-1.9-.2-2.7-.5c-.3-.1-.4-.3-.3-.6l.2-1.1c0-.2.2-.3.3-.3s.1,0,.2,0c.8.3,1.5.5,2.1.5,1.7,0,2.6-1.4,2.6-4.3s-.7-4.3-2.8-4.3ZM140.5,93.9l-.4,4.9c.7,0,1.3,0,1.7-.1.3,0,.4.1.4.4v1.2c0,.3-.1.4-.4.4-.4,0-.9,0-1.5.1v2.1c0,.3-.2.6-.4.8,1,0,2-.2,3-.3.3,0,.5.1.5.4v1c0,.3-.1.4-.4.5-1.4.2-3.5.3-6.3.3s-5.1-.1-6.4-.3c-.3,0-.4-.2-.4-.5v-1c0-.3.2-.5.5-.4.3,0,1.4.2,1.9.2s.6-.2.6-.6v-2.2c-.6,0-1.2,0-1.6-.1-.3,0-.4-.2-.4-.4v-1.2c0-.3.2-.4.4-.4.4,0,1,0,1.7.1l-.4-4.9h-1c-.3,0-.4-.1-.4-.4v-1c0-.3.1-.5.4-.5h10c.3,0,.4.1.4.5v1c0,.3-.1.4-.4.4h-1ZM138,98.9l.5-5h-3.9s.4,5,.4,5c.5,0,1,0,1.5,0s1,0,1.5,0ZM134.9,102.8c0,.4-.2.7-.5.8,1,0,2.3,0,3.2,0,.4,0,.6-.2.6-.6v-2.2c-.5,0-1.1,0-1.7,0s-1.1,0-1.6,0v2ZM125.2,93.3v.7c0,2,1.2,3.5,2.7,3.5s.4.1.4.4v1c0,.3-.1.5-.4.5-1.9,0-3.3-1.2-3.8-2.7-.5,1.4-1.9,2.7-3.8,2.7s-.4-.1-.4-.5v-1c0-.3.1-.4.4-.4,1.6,0,2.7-1.5,2.7-3.5v-.7s-2.7,0-2.7,0c-.3,0-.4-.1-.4-.4v-1c0-.3.1-.5.4-.5h7.4c.3,0,.5.1.5.5v1c0,.3-.1.4-.5.4h-2.6ZM115.7,103.7c0-2,1-2.9,3.5-2.9s5.3.1,7.2.3c.3,0,.4.2.4.5v1c0,.3-.1.5-.4.4-2.2-.2-4.4-.3-7-.3s-1.7.3-1.7,1.5,0,1.7,0,2.3c0,.3-.2.5-.5.5h-1.1c-.3,0-.5-.2-.5-.5,0-.6,0-1.6,0-2.8ZM117.8,93.9c0,.4.2.6.6.6h1.4c.3,0,.4.1.4.5v1c0,.3-.1.4-.4.4h-1.3c-.4,0-.6-.1-.7-.4v3.1c0,.3-.2.5-.5.5h-1.1c-.3,0-.5-.2-.5-.5v-7.6c0-.3.2-.5.5-.5h1.1c.3,0,.5.2.5.5v2.4ZM112.1,103.9c0,2.1-1.5,3.3-4,3.3s-5.3-.1-7.1-.3c-.3,0-.4-.2-.4-.4v-1c0-.3.3-.5.5-.4,2.1.2,3.9.3,7.1.3s1.8-.6,1.8-1.7,0-1.3-.1-1.8c0-.3.2-.5.5-.5h1.1c.3,0,.5.2.5.5,0,.5.1,1.2.1,2ZM103.2,101.6c0,.3-.2.5-.5.5h-1.1c-.3,0-.5-.2-.5-.5v-10.1c0-.3.2-.5.5-.5h1.1c.3,0,.5.2.5.5v10.1ZM109.6,91.3c2.4,0,4,1.7,4,4.4s-1.6,4.4-4,4.4-4.1-1.7-4.1-4.4,1.6-4.4,4.1-4.4ZM109.6,98.1c1.2,0,2-1,2-2.5s-.8-2.5-2-2.5-2,1-2,2.5.8,2.5,2,2.5ZM86.5,104.5c-.3,0-.5-.1-.5-.4v-1.1c0-.3.1-.4.4-.5,1.5-.2,2.8-2.1,2.8-4.1v-5.8c0-.3.2-.5.5-.5h1.1c.3,0,.5.2.5.5v5.8c0,2.1,1.3,3.9,2.8,4.1.3,0,.4.2.4.5v1.1c0,.3-.1.4-.5.4-1.7-.2-3.3-1.6-3.8-3.3-.5,1.7-2,3-3.8,3.3ZM82.2,99.9c0-.4-.2-.6-.6-.6h-1.2c-.3,0-.4-.1-.4-.5v-1.1c0-.3.1-.5.4-.5h1.1c.4,0,.6.1.7.4v-6.2c0-.3.2-.5.5-.5h1.1c.3,0,.5.2.5.5v15c0,.3-.2.5-.5.5h-1.1c-.3,0-.5-.2-.5-.5v-6.6ZM77.3,101c0-1.3-.5-1.8-1.9-1.8s-2.1,0-2.7,0-.4-.1-.4-.4v-1c0-.3.1-.4.4-.4h.8c-.7-.6-1.1-1.5-1.1-2.6,0-1.7,1-2.6,3.3-2.6s1.8,0,2.6.2c.3,0,.4.2.4.4v1.2c0,.3-.2.4-.5.4-1-.2-1.5-.3-2.2-.3-1.2,0-1.7.4-1.7,1.6s.5,1.6,1.6,1.6c2.3,0,3.3,1.1,3.3,3.6s-1.3,3.8-4,3.8-2.1-.2-3-.6c-.3-.1-.4-.3-.3-.6l.3-1.1c0-.2.2-.3.3-.3s.1,0,.2,0c.8.4,1.7.6,2.4.6,1.5,0,2.2-.5,2.2-1.8ZM70.6,99.4h1.1c.3,0,.5.1.5.4v1.1c0,.3-.1.4-.5.4h-1.1c-.2,0-.4,0-.5-.2v5.4c0,.3-.1.5-.5.5h-1.1c-.3,0-.5-.1-.5-.5v-14.9c0-.3.1-.4.5-.4h1.1c.3,0,.5.1.5.4v2.3c0,.3.2.4.4.4h.9c.3,0,.5.1.5.4v1.1c0,.3-.1.4-.5.4h-.9c-.2,0-.4,0-.5-.2v2.9c0,.3.2.4.4.4ZM65.4,91h1.1c.3,0,.4.1.4.4v15c0,.3-.1.5-.4.5h-1.1c-.3,0-.4-.1-.4-.5v-15c0-.3.1-.4.4-.4ZM59,92c2.8,0,4,2,4,6.4s-1.3,6.5-4,6.5-4.1-2-4.1-6.5,1.2-6.4,4.1-6.4ZM57,98.4c0,3.2.6,4.5,2,4.5s2-1.3,2-4.5-.6-4.5-2-4.5-2,1.3-2,4.5ZM52.5,106.5c0,.3-.2.5-.5.5h-1.1c-.3,0-.5-.2-.5-.5v-15c0-.3.2-.5.5-.5h1.1c.3,0,.5.2.5.5v15ZM43.1,94.1c-.9,0-1.5,0-2.3.2-.3,0-.5-.1-.5-.4v-1.1c0-.3.1-.4.5-.5.7-.1,1.4-.1,2.4-.1,3.4,0,5,1.9,5,6.3s-1.6,6.3-4.9,6.3-2.2-.3-3.3-.7c-.4-.1-.5-.3-.4-.6l.3-1c0-.3.2-.4.3-.4s.1,0,.2,0c1.1.4,2,.7,2.7.7,2,0,2.9-1.4,2.9-4.3s-.8-4.3-3.1-4.3ZM36.2,99.9c0-.4-.2-.6-.6-.6h-1.2c-.3,0-.4-.1-.4-.5v-1.1c0-.3.1-.5.4-.5h1.1c.4,0,.6.1.7.4v-6.2c0-.3.2-.5.5-.5h1.1c.3,0,.5.2.5.5v15c0,.3-.2.5-.5.5h-1.1c-.3,0-.5-.2-.5-.5v-6.6ZM31.5,107.4c-.8,0-1.4-.5-1.4-1.3s.6-1.3,1.4-1.3,1.4.5,1.4,1.3-.6,1.3-1.4,1.3ZM317.6,132.5c-.3,0-.5-.1-.5-.4v-1.1c0-.3.1-.4.4-.5,1.5-.2,2.8-2.1,2.8-4.1v-5.8c0-.3.2-.5.5-.5h1.1c.3,0,.5.2.5.5v5.8c0,2.1,1.3,3.9,2.8,4.1.3,0,.4.2.4.5v1.1c0,.3-.1.4-.4.4-1.7-.2-3.3-1.6-3.8-3.3-.5,1.7-2,3-3.8,3.3ZM313.3,127.9c0-.4-.2-.6-.6-.6h-1.2c-.3,0-.5-.1-.5-.5v-1.1c0-.3.1-.5.5-.5h1.1c.4,0,.6.1.7.4v-6.2c0-.3.2-.5.5-.5h1.1c.3,0,.5.2.5.5v15c0,.3-.2.5-.5.5h-1.1c-.3,0-.5-.2-.5-.5v-6.6ZM305.7,133.2c.4,0,.7-.2.7-.6v-1.4c0-.3-.2-.4-.4-.4h-5.2c-.8,0-1.2.2-1.2.9s.7,1.5,1.6,1.5h4.5ZM301.2,126.4l.3-1c0-.2.2-.3.3-.3s.1,0,.2,0c.9.3,2.2.6,3.1.6,2,0,2.5-.1,2.5-.7s-.7-.8-3-.8-1.4,0-2.3,0c-.3,0-.4-.1-.4-.4v-.9c0-.3.1-.4.4-.4h.4c-.6-.4-1-.9-1-1.6,0-1.2.8-1.6,3.1-1.6,1.6,0,2.6,0,3.9.2.3,0,.4.2.4.5v1c0,.3-.2.4-.5.4-1.4-.2-2.7-.3-3.4-.3-1.1,0-1.4.1-1.4.6s.4.6,1.3.6c3.3,0,4.6.7,4.6,2.6s-1.2,2.6-4.2,2.6-3.1-.3-4-.6c-.3-.1-.4-.3-.3-.6ZM297.5,130.8c0-1.3.8-1.9,2.2-1.9h7.9c.5,0,.8.3.8.8v3.8c0,1-.7,1.6-1.9,1.6h-8.9c-.3,0-.5-.1-.5-.4v-1c0-.3.1-.4.5-.4h1.3c-.9-.5-1.5-1.4-1.5-2.4ZM297.6,124.5c0-.4-.2-.6-.6-.6h-1.2c-.3,0-.5-.1-.5-.4v-1c0-.3.1-.4.5-.4h1.1c.4,0,.6.1.7.4v-2.9c0-.3.2-.5.5-.5h1.1c.3,0,.5.2.5.5v7.6c0,.3-.2.5-.5.5h-1.1c-.3,0-.5-.2-.5-.5v-2.6ZM287,120.9c-2.7,0-3.5.3-3.5,1.1s.8,1.1,3.5,1.1,3.5-.3,3.5-1.1-.8-1.1-3.5-1.1ZM281,134.5v-.8c0-.3.2-.4.5-.4,1.3.2,3.4.3,4.8.3,3.7,0,4.4,0,4.4-.6s-.4-.6-3.4-.6-4.2,0-5.3,0c-.3,0-.4-.1-.4-.4v-.7c0-.3.1-.4.4-.4h.6c-.7-.2-1.2-.8-1.2-1.5s.4-1.3,1.7-1.3c2.3,0,6.2,0,8.9.2.3,0,.4.1.4.4v.8c0,.3-.1.4-.4.4-2-.1-5.8-.3-7.7-.3s-.8.2-.8.6.2.5.9.5c.9,0,2,0,3,0,4.3,0,5.4.5,5.4,2.2s-1.2,2.3-6.5,2.3-3.5-.1-4.9-.3c-.3,0-.4-.2-.4-.5ZM287.2,125.6c2.1,0,4.6,0,6.3-.2.3,0,.5.1.5.4v.9c0,.3-.1.4-.4.4-1.1.1-3.1.2-6.4.2-2.5,0-5.1,0-6.4-.2-.3,0-.4-.2-.4-.4v-.9c0-.3.2-.4.4-.4,1.4.1,3.4.2,6.4.2ZM287,124.8c-4,0-5.6-.8-5.6-2.8s1.6-2.8,5.6-2.8,5.6.8,5.6,2.8-1.6,2.8-5.6,2.8ZM270.5,126c.4,0,.7-.2.7-.6v-3.6c0-.3-.2-.4-.4-.4h-1.8c-1,0-1.5.7-1.5,2s.8,2.6,1.9,2.6h1.1ZM265.5,127.4v-1c0-.3.1-.4.4-.4h1.2c-1-.6-1.8-2-1.8-3.6s.9-3,2.5-3h4.5c.5,0,.8.3.8.8v6c0,1-.7,1.6-1.9,1.6h-5.5c-.3,0-.4-.1-.4-.5ZM261.2,125.8c0-.4-.2-.6-.6-.6h-1.2c-.3,0-.5-.1-.5-.5v-1c0-.3.1-.4.5-.4h1.1c.4,0,.6.1.7.4v-4.2c0-.3.2-.5.5-.5h1.1c.3,0,.5.2.5.5v10.1c0,.3-.2.5-.5.5h-1.1c-.3,0-.5-.2-.5-.5v-3.8ZM271.9,131.9c0,2.1-1.5,3.3-4,3.3s-5-.1-6.7-.3c-.3,0-.4-.2-.4-.4v-1c0-.3.3-.5.5-.4,2.1.2,3.7.3,6.7.3s1.8-.6,1.8-1.7,0-1.4-.1-1.8c0-.3.2-.5.5-.5h1.1c.3,0,.5.2.5.5,0,.4.1,1.2.1,2ZM245.1,134.5v-.9c0-.3.2-.4.5-.4,1.4.2,3.2.3,4.5.3,3.7,0,4.3,0,4.3-.7s-.4-.7-3.3-.7-3.8,0-5.1,0c-.3,0-.4-.1-.4-.4v-.8c0-.3.1-.4.4-.4h.6c-.7-.3-1.2-.9-1.2-1.6s.5-1.4,1.6-1.4c2.3,0,5.9,0,8.6.2.3,0,.4.1.4.4v.9c0,.3-.1.4-.4.4-2-.1-5.5-.3-7.3-.3s-.9.2-.9.6.3.6.9.6c1,0,1.7,0,2.6,0,4.1,0,5.3.5,5.3,2.3s-1.3,2.4-6.4,2.4-3.1-.1-4.6-.3c-.3,0-.4-.2-.4-.5ZM249.4,125.6l.3-1c0-.3.2-.4.5-.3,1.2.4,2.8.6,3.7.6s1.7-.4,1.7-1.4-.2-2.3-.4-3.5c0-.3.1-.5.4-.5h1.1c.3,0,.5.1.5.4.3,1.2.4,2.3.4,3.5,0,2.2-1.3,3.3-3.6,3.3s-3-.2-4.2-.6c-.3-.1-.4-.3-.4-.6ZM245.6,124.1c0-.4-.2-.6-.6-.6h-1.2c-.3,0-.4-.1-.4-.5v-1c0-.3.1-.4.4-.4h1.1c.4,0,.6.1.7.4v-2.5c0-.3.2-.5.5-.5h1.1c.3,0,.5.2.5.5v6.7c0,.3-.2.5-.5.5h-1.1c-.3,0-.5-.2-.5-.5v-2.1ZM223.4,119h1.1c.3,0,.4.1.4.4v5.8s.8,0,.8,0c.3,0,.5.1.6.3v-6c0-.3.1-.4.4-.4h1.1c.3,0,.5.1.5.4v14.9c0,.3-.1.4-.5.4h-1.1c-.3,0-.4-.1-.4-.4v-6.7c0-.4-.1-.5-.5-.5h-.9s0,7.2,0,7.2c0,.3-.1.4-.4.4h-1.1c-.3,0-.4-.1-.4-.4v-15c0-.3.1-.4.4-.4ZM232.6,132c-.4.5-1,.7-1.7.7s-1.1,0-1.7-.2c-.3,0-.4-.2-.3-.5v-1.2c.2-.2.3-.3.4-.3s.1,0,.2,0c.3.1.8.2,1.1.2.9,0,1.1-1,1.1-4.3s-.3-4.3-1.1-4.3-.6,0-.8,0c-.2,0-.4,0-.4-.3v-1.3c0-.3,0-.4.4-.4.3,0,.8,0,1,0,2.1,0,2.8,1.7,2.8,6.3s0,3.1-.3,4.1c.4.2.7.2.9.2,1,0,1.3-1.1,1.3-4.3s-.3-4.3-1-4.3-.3,0-.4,0c-.2,0-.4,0-.4-.3v-1.3c0-.3,0-.4.4-.4.1,0,.4,0,.6,0,2,0,2.7,1.5,2.7,6.3s-.8,6.3-2.9,6.3-1.9-.1-1.9-.7ZM207.5,124c0-2.8,1-3.9,3.5-3.9s2.6.1,3.9.3c.3,0,.4.2.4.5v1c0,.3-.2.5-.5.5-1.2-.2-2.2-.3-3.5-.3s-1.8.5-1.8,2.1c0,2.6.2,5.2.7,7.8,0,.3-.1.5-.4.5h-1.2c-.3,0-.4-.1-.5-.4-.5-2.6-.7-5.2-.7-8.1ZM203.4,127.9c0-.4-.2-.6-.6-.6h-1.2c-.3,0-.4-.1-.4-.5v-1.1c0-.3.1-.5.4-.5h1.1c.4,0,.6.1.7.4v-6.2c0-.3.2-.5.5-.5h1.1c.3,0,.5.2.5.5v15c0,.3-.2.5-.5.5h-1.1c-.3,0-.5-.2-.5-.5v-6.6ZM193,135.3c-3.8,0-5.7-1.2-5.7-3.4s1.9-3.4,5.7-3.4,5.7,1.2,5.7,3.4-1.9,3.4-5.7,3.4ZM196.8,121.3v.6c0,1.9,1.2,3.3,2.7,3.3s.5.1.5.4v1c0,.3-.1.5-.5.5-1.9,0-3.3-1.2-3.8-2.6-.5,1.4-1.9,2.6-3.8,2.6s-.4-.1-.4-.5v-1c0-.3.1-.4.4-.4,1.6,0,2.7-1.4,2.7-3.3v-.6s-2.7,0-2.7,0c-.3,0-.5-.1-.5-.4v-1c0-.3.1-.5.5-.5h7.4c.3,0,.4.1.4.5v1c0,.3-.1.4-.4.4h-2.6ZM187.7,124.5c0-.4-.2-.6-.6-.6h-1.2c-.3,0-.4-.1-.4-.4v-1c0-.3.1-.4.4-.4h1.1c.4,0,.6.1.7.4v-2.9c0-.3.2-.5.5-.5h1.1c.3,0,.5.2.5.5v7.6c0,.3-.2.5-.5.5h-1.1c-.3,0-.5-.2-.5-.5v-2.6ZM193,130.3c-2.8,0-3.6.6-3.6,1.5s.9,1.5,3.6,1.5,3.6-.6,3.6-1.5-.9-1.5-3.6-1.5ZM176.2,126c.4,0,.7-.2.7-.6v-3.6c0-.3-.2-.4-.4-.4h-1.6c-1,0-1.5.7-1.5,2s.7,2.6,1.9,2.6h1ZM171.4,127.4v-1c0-.3.1-.4.4-.4h1.1c-1-.6-1.7-2-1.7-3.6s.9-3,2.5-3h4.4c.5,0,.8.3.8.8v6c0,1-.7,1.6-1.9,1.6h-5.3c-.3,0-.4-.1-.4-.5ZM168.7,121.9c0,.4.2.6.6.6h.9c.3,0,.5.1.5.4v1c0,.3-.1.4-.5.4h-.8c-.4,0-.6-.1-.7-.4v5.7c0,.3-.2.5-.5.5h-1.1c-.3,0-.5-.2-.5-.5v-10.1c0-.3.2-.5.5-.5h1.1c.3,0,.5.2.5.5v2.4ZM177.6,131.9c0,2.1-1.5,3.3-4,3.3s-5.3-.1-7.1-.3c-.3,0-.4-.2-.4-.4v-1c0-.3.3-.5.5-.4,2.1.2,3.9.3,7.1.3s1.8-.6,1.8-1.7,0-1.4-.1-1.8c0-.3.2-.5.5-.5h1.1c.3,0,.5.2.5.5,0,.4.1,1.2.1,2ZM161.2,122.1v4.3c0,2.1,1.3,3.9,2.8,4.1.3,0,.4.2.4.5v1.1c0,.3-.1.4-.4.4-1.7-.2-3.3-1.6-3.8-3.3-.4,1.7-2,3-3.8,3.3-.3,0-.4-.1-.4-.4v-1.1c0-.3.1-.4.4-.5,1.5-.2,2.8-2.1,2.8-4.1v-4.3s-2.7,0-2.7,0c-.3,0-.5-.1-.5-.5v-1.1c0-.3.1-.5.5-.5h7.4c.3,0,.5.1.5.5v1.1c0,.3-.1.5-.5.5h-2.6ZM153.8,124.6c0,.4.2.6.6.6h2c.3,0,.5.1.5.4v1.1c0,.3-.1.4-.5.4h-1.9c-.4,0-.6-.1-.7-.4v7.7c0,.3-.2.5-.5.5h-1.1c-.3,0-.5-.2-.5-.5v-15c0-.3.2-.5.5-.5h1.1c.3,0,.5.2.5.5v5.1ZM140.3,125c1.1,0,1.9-.8,1.9-2s-.7-1.9-1.9-1.9-1.9.7-1.9,1.9.7,2,1.9,2ZM131.2,134.5v-.9c0-.3.2-.4.5-.4,1.4.2,3.4.3,4.6.3,3.7,0,4.5,0,4.5-.7s-.5-.7-3.5-.7-3.9,0-5.2,0c-.3,0-.4-.1-.4-.4v-.8c0-.3.1-.4.4-.4h.6c-.7-.3-1.2-.9-1.2-1.6s.5-1.4,1.6-1.4c2.3,0,6.2,0,8.9.2.3,0,.4.1.4.4v.9c0,.3-.1.4-.4.4-2-.1-5.8-.3-7.6-.3s-.9.2-.9.6.3.6.9.6c1,0,1.9,0,2.8,0,4.2,0,5.5.5,5.5,2.3s-1.4,2.4-6.6,2.4-3.3-.1-4.8-.3c-.3,0-.4-.2-.4-.5ZM140.3,119.3c2.4,0,3.9,1.5,3.9,3.7s-1.5,3.8-3.9,3.8-4-1.5-4-3.8,1.5-3.7,4-3.7ZM133.8,121.2c0,.4.2.6.6.6h.9c.3,0,.4.1.4.5v1c0,.3-.1.5-.4.5h-.8c-.4,0-.6-.1-.7-.4v2.9c0,.3-.2.5-.5.5h-1.1c-.3,0-.5-.2-.5-.5v-6.7c0-.3.2-.5.5-.5h1.1c.3,0,.5.2.5.5v1.7ZM119.2,124.6c1,0,2.1,0,3.2,0,3.3,0,5.2,0,6.3-.2.3,0,.4.1.4.4v.9c0,.3-.1.4-.4.4-1.4.1-3.8.2-5.6.2.1,0,.2.3.2.5v.9c1.3,0,2.6.1,3.8.2.3,0,.4.1.4.4v.9c0,.3-.1.4-.4.4-2-.1-5.9-.3-7.7-.3s-.8.2-.8.6.2.6.9.6c.9,0,2,0,3,0,4.3,0,5.4.6,5.4,2.3s-1.2,2.4-6.5,2.4-3.5-.1-4.9-.3c-.3,0-.4-.2-.4-.5v-.9c0-.3.2-.4.5-.4,1.3.2,3.4.3,4.8.3,3.7,0,4.4,0,4.4-.7s-.4-.7-3.4-.7-4.2,0-5.3,0c-.3,0-.4-.1-.4-.4v-.8c0-.3.1-.4.4-.4h.6c-.7-.3-1.2-.9-1.2-1.6s.4-1.4,1.7-1.4c.8,0,1.9,0,3.1,0v-.8c0-.3-.1-.5-.4-.5-1.4,0-3.6,0-4.9-.2-.3,0-.4-.2-.4-.5v-.9c0-.3.2-.4.4-.4.3,0,.6,0,1,0-.1-.6-.2-1.3-.2-2.1,0-2.1,1.2-3,3.7-3s4.7.1,6.6.3c.3,0,.4.2.4.5v1c0,.3-.2.5-.4.4-2.2-.2-4.1-.3-6.4-.3s-1.8.5-1.8,1.7.1,1.1.3,1.6ZM109.5,133.9c-1.7,0-3.2,0-4.4-.3-.3,0-.4-.2-.4-.5v-1c0-.3.2-.5.5-.4.7.1,2,.2,3.4.2s.6-.2.6-.6v-4.5c0-.3.2-.5.5-.5h1.1c.3,0,.5.2.5.5v4.4c0,.4-.2.6-.4.8,1,0,1.9-.1,2.8-.3.3,0,.5,0,.5.4v1.1c0,.3-.1.4-.4.5-1.2.2-2.4.3-4.1.3ZM107.3,123.6c0,1.3.1,2.9.5,4.4,0,.3,0,.4-.3.5l-1.2.2c-.3,0-.4,0-.5-.3-.3-1.5-.5-3.4-.5-5.1s.9-3.5,3.5-3.5,3,.1,3.9.3c.3,0,.4.2.4.5v1.1c0,.3-.2.5-.4.4-1.2-.2-2.4-.3-3.7-.3s-1.7.5-1.7,1.9ZM101.5,127.9c0-.4-.2-.6-.6-.6h-1.2c-.3,0-.4-.1-.4-.5v-1.1c0-.3.1-.5.4-.5h1.1c.4,0,.6.1.7.4v-6.2c0-.3.2-.5.5-.5h1.1c.3,0,.5.2.5.5v15c0,.3-.2.5-.5.5h-1.1c-.3,0-.5-.2-.5-.5v-6.6ZM89.9,121.9l-.4,4.9c.7,0,1.3,0,1.7-.1.3,0,.5.1.5.4v1.2c0,.3-.1.4-.4.4-.4,0-.9,0-1.5.1v2.1c0,.3-.2.6-.4.8,1,0,2-.2,3-.3.3,0,.5.1.5.4v1c0,.3-.1.4-.5.5-1.4.2-3.5.3-6.3.3s-5.1-.1-6.4-.3c-.3,0-.5-.2-.5-.5v-1c0-.3.2-.5.5-.4.3,0,1.4.2,1.9.2s.6-.2.6-.6v-2.2c-.6,0-1.2,0-1.6-.1-.3,0-.4-.2-.4-.4v-1.2c0-.3.2-.4.5-.4.4,0,1,0,1.7.1l-.4-4.9h-1c-.3,0-.4-.1-.4-.4v-1c0-.3.1-.5.4-.5h10c.3,0,.4.1.4.5v1c0,.3-.1.4-.4.4h-1ZM87.4,126.9l.4-5h-3.9s.5,5,.5,5c.5,0,1,0,1.5,0s1,0,1.5,0ZM84.3,130.8c0,.4-.2.7-.5.8,1,0,2.3,0,3.2,0,.4,0,.6-.2.6-.6v-2.2c-.5,0-1.1,0-1.7,0s-1.1,0-1.6,0v2ZM70.2,135.3c-3.9,0-5.9-1.2-5.9-3.4s2-3.4,5.9-3.4,5.9,1.2,5.9,3.4-2,3.4-5.9,3.4ZM74.2,121.3v.6c0,1.9,1.2,3.3,2.7,3.3s.4.1.4.4v1c0,.3-.1.5-.4.5-1.9,0-3.3-1.2-3.8-2.6-.5,1.4-1.9,2.6-3.8,2.6s-.5-.1-.5-.5v-1c0-.3.1-.4.5-.4,1.6,0,2.7-1.4,2.7-3.3v-.6s-2.7,0-2.7,0c-.3,0-.5-.1-.5-.4v-1c0-.3.1-.5.5-.5h7.4c.3,0,.4.1.4.5v1c0,.3-.1.4-.4.4h-2.6ZM66.8,121.7c0,.4.2.6.6.6h1.4c.3,0,.5.1.5.5v1c0,.3-.1.5-.5.5h-1.3c-.4,0-.6-.1-.7-.4v3.3c0,.3-.2.5-.5.5h-1.1c-.3,0-.5-.2-.5-.5v-7.6c0-.3.2-.5.5-.5h1.1c.3,0,.5.2.5.5v2.2ZM70.2,130.3c-2.8,0-3.8.6-3.8,1.5s1,1.5,3.8,1.5,3.8-.6,3.8-1.5-1-1.5-3.8-1.5ZM55.2,120.9c-2.7,0-3.5.3-3.5,1.1s.8,1.1,3.5,1.1,3.5-.3,3.5-1.1-.8-1.1-3.5-1.1ZM49.2,134.5v-.8c0-.3.2-.4.5-.4,1.4.2,3.4.3,4.8.3,3.7,0,4.4,0,4.4-.6s-.4-.6-3.4-.6-4.2,0-5.3,0c-.3,0-.4-.1-.4-.4v-.7c0-.3.1-.4.4-.4h.6c-.7-.2-1.2-.8-1.2-1.5s.5-1.3,1.7-1.3c2.3,0,6.2,0,8.9.2.3,0,.4.1.4.4v.8c0,.3-.1.4-.4.4-2-.1-5.9-.3-7.7-.3s-.8.2-.8.6.2.5.9.5c.9,0,2,0,3,0,4.3,0,5.4.5,5.4,2.2s-1.2,2.3-6.5,2.3-3.5-.1-4.9-.3c-.3,0-.4-.2-.4-.5ZM55.4,125.6c2.1,0,4.6,0,6.3-.2.3,0,.5.1.5.4v.9c0,.3-.1.4-.4.4-1.1.1-3.1.2-6.4.2-2.5,0-5.1,0-6.4-.2-.3,0-.4-.2-.4-.4v-.9c0-.3.2-.4.4-.4,1.4.1,3.4.2,6.4.2ZM55.2,124.8c-4,0-5.6-.8-5.6-2.8s1.6-2.8,5.6-2.8,5.6.8,5.6,2.8-1.6,2.8-5.6,2.8ZM312.8,162.5v-.9c0-.3.2-.4.5-.4,1.4.2,3.2.3,4.5.3,3.7,0,4.3,0,4.3-.7s-.4-.7-3.3-.7-3.8,0-5.1,0c-.3,0-.4-.1-.4-.4v-.8c0-.3.1-.4.4-.4h.6c-.7-.3-1.2-.9-1.2-1.6s.5-1.4,1.6-1.4c2.3,0,5.9,0,8.6.2.3,0,.4.1.4.4v.9c0,.3-.1.4-.4.4-2-.1-5.5-.3-7.3-.3s-.9.2-.9.6.3.6.9.6c1,0,1.7,0,2.6,0,4.1,0,5.3.5,5.3,2.3s-1.3,2.4-6.4,2.4-3.1-.1-4.6-.3c-.3,0-.4-.2-.4-.5ZM320.8,147.4h1.1c.3,0,.5.2.5.5v1.6c0,1.8,1.2,3.2,2.7,3.2s.4.1.4.4v1c0,.3-.1.4-.4.4-1.9,0-3.3-1.2-3.8-2.5-.5,1.3-1.9,2.5-3.8,2.5s-.5-.1-.5-.4v-1c0-.3.1-.4.5-.4,1.6,0,2.7-1.4,2.7-3.2v-1.6c0-.3.2-.5.5-.5ZM313.3,152.1c0-.4-.2-.6-.6-.6h-1.2c-.3,0-.5-.1-.5-.4v-1c0-.3.1-.4.5-.4h1.1c.4,0,.6.1.7.4v-2.5c0-.3.2-.5.5-.5h1.1c.3,0,.5.2.5.5v6.7c0,.3-.2.5-.5.5h-1.1c-.3,0-.5-.2-.5-.5v-2.1ZM308.7,150.1l-.3,8.3c.5,0,1,0,1.5-.1.3,0,.5.1.5.4v1.1c0,.3-.1.4-.5.4-.9.1-2.5.2-4.2.2s-3.5-.1-4.2-.2c-.3,0-.5-.1-.5-.4v-1.1c0-.3.1-.5.5-.4.4,0,.9,0,1.5.1l-.3-8.3h-.9c-.3,0-.5-.1-.5-.4v-1.1c0-.3.1-.4.5-.4h8c.3,0,.5.1.5.4v1.1c0,.3-.1.4-.5.4h-.9ZM299.3,162.5c0,.3-.2.5-.5.5h-1.1c-.3,0-.5-.2-.5-.5v-15c0-.3.2-.5.5-.5h1.1c.3,0,.5.2.5.5v15ZM306.7,150.1h-2.2s.3,8.4.3,8.4h1.5s.3-8.4.3-8.4ZM294.7,155.1v1c0,.3-.1.4-.5.5-1.1.1-3,.2-6.3.2-2.5,0-5.1,0-6.4-.2-.3,0-.5-.2-.5-.5v-1c0-.3.2-.5.5-.4,1.3.1,3.4.2,6.3.2s4.6,0,6.3-.2c.3,0,.5.1.5.4ZM282.7,149v-1c0-.3.1-.4.5-.5,2.3-.1,3.1-.2,4.1-.2,4.6,0,6.3.8,6.3,3.1s-1.6,3.2-6,3.2-2.6-.1-4.6-.3c-.3,0-.5-.2-.4-.4v-1c0-.3.3-.5.5-.4,1.6.2,3.3.3,4.8.3,2.9,0,3.7-.3,3.7-1.3s-.9-1.2-4.1-1.2-2,0-4.1.2c-.3,0-.5-.1-.5-.4ZM287.8,160.7c-.8,1.4-3.2,2.5-5.4,2.4-.3,0-.5-.1-.5-.4v-1c0-.3.1-.4.5-.4,2.5,0,4.3-1.2,4.3-2.7v-.4c0-.3.2-.5.5-.5h1.1c.3,0,.5.2.5.5v.4c0,1.5,1.8,2.7,4.4,2.7s.4.1.4.4v1c0,.3-.1.4-.4.4-2.2.1-4.6-1-5.4-2.4ZM275.2,148c2.8,0,4,2,4,6.4s-1.3,6.5-4,6.5-4-2-4-6.5,1.2-6.4,4-6.4ZM273.2,154.4c0,3.2.6,4.5,2,4.5s2-1.3,2-4.5-.6-4.5-2-4.5-2,1.3-2,4.5ZM268.7,162.5c0,.3-.2.5-.5.5h-1.1c-.3,0-.5-.2-.5-.5v-15c0-.3.2-.5.5-.5h1.1c.3,0,.5.2.5.5v15ZM264,162.1c0,.7-.4,1.2-1.1,1.3.1.3.3.4.7.4s.2,0,.2.2v.4c0,.1,0,.2-.2.2-1.4,0-2.3-.9-2.3-2.3s.5-1.4,1.4-1.4,1.3.5,1.3,1.3ZM253.2,159.9c0,2.1-1.5,3.3-4,3.3s-5.3-.1-7.1-.3c-.3,0-.4-.2-.4-.4v-1c0-.3.3-.5.5-.4,2.1.2,3.9.3,7.1.3s1.8-.6,1.8-1.7,0-1.4-.1-1.8c0-.3.2-.5.5-.5h1.1c.3,0,.5.2.5.5,0,.4.1,1.2.1,2ZM244.2,157.6c0,.3-.2.5-.5.5h-1.1c-.3,0-.5-.2-.5-.5v-10.1c0-.3.2-.5.5-.5h1.1c.3,0,.5.2.5.5v10.1ZM250.7,147.3c2.4,0,4,1.7,4,4.4s-1.6,4.4-4,4.4-4.1-1.7-4.1-4.4,1.6-4.4,4.1-4.4ZM250.7,154.1c1.2,0,2-1,2-2.5s-.8-2.5-2-2.5-2,1-2,2.5.8,2.5,2,2.5ZM232.6,158.8c-2.7,0-3.8.3-3.8,1.3s1.1,1.3,3.8,1.3,3.8-.3,3.8-1.3-1.1-1.3-3.8-1.3ZM232.8,156c-2.5,0-5.1,0-6.4-.2-.3,0-.4-.2-.4-.5v-1c0-.3.2-.5.5-.4,1.3.1,4.3.2,5.7.1.3,0,.5-.2.5-.4v-2c0-.3.2-.5.5-.5h1.1c.3,0,.5.2.5.5v1.9c0,.2-.1.4-.3.5,1.7,0,3.3,0,4.6-.2.3,0,.5.1.5.4v1c0,.3-.1.4-.5.5-1.1.1-3,.2-6.3.2ZM229.6,152.6c0,.3,0,.4-.3.4l-1.2.2c-.3,0-.4,0-.5-.3-.2-.7-.2-1.4-.2-2.4,0-2.1,1.2-3,3.7-3s4.7.1,6.6.3c.3,0,.4.2.4.5v1c0,.3-.2.5-.4.4-2.2-.2-4.1-.3-6.4-.3s-1.8.5-1.8,1.7,0,1,.2,1.6ZM232.6,163.3c-4,0-5.9-1-5.9-3.2s1.9-3.2,5.9-3.2,5.9,1,5.9,3.2-1.9,3.2-5.9,3.2ZM221,150.1v4.3c0,2.1,1.3,3.9,2.8,4.1.3,0,.4.2.4.5v1.1c0,.3-.1.4-.5.4-1.7-.2-3.3-1.6-3.8-3.3-.4,1.7-2,3-3.8,3.3-.3,0-.4-.1-.4-.4v-1.1c0-.3.1-.4.4-.5,1.5-.2,2.8-2.1,2.8-4.1v-4.3s-2.7,0-2.7,0c-.3,0-.4-.1-.4-.4v-1.1c0-.3.1-.4.4-.4h7.4c.3,0,.4.1.4.4v1.1c0,.3-.1.4-.4.4h-2.6ZM213.6,162.5c0,.3-.2.5-.5.5h-1.1c-.3,0-.5-.2-.5-.5v-15c0-.3.2-.5.5-.5h1.1c.3,0,.5.2.5.5v15ZM202,163.3c-4,0-5.9-1-5.9-3.1s1.9-3.1,5.9-3.1,5.9,1,5.9,3.1-1.9,3.1-5.9,3.1ZM202,158.9c-2.7,0-3.8.3-3.8,1.2s1.1,1.2,3.8,1.2,3.8-.4,3.8-1.2-1.1-1.2-3.8-1.2ZM209,154.6v1c0,.3-.1.4-.4.5-1.1.1-3,.2-6.3.2-2.5,0-5.1,0-6.4-.2-.3,0-.4-.2-.4-.5v-1c0-.3.2-.5.5-.4,1.3.1,3.4.2,6.3.2s4.6,0,6.3-.2c.3,0,.5.1.5.4ZM207.5,150.2c0,2-1.3,3.2-3.6,3.2s-5.4-.1-7.1-.3c-.3,0-.4-.2-.4-.4v-1c0-.3.3-.5.5-.4,2.1.2,4.1.3,6.9.3s1.6-.4,1.6-1.4,0-1.5-.1-2.2c0-.3.1-.5.4-.5h1.1c.3,0,.5.2.5.5,0,.6.1,1.5.1,2.3ZM189.5,148c2.8,0,4,2,4,6.4s-1.3,6.5-4,6.5-4-2-4-6.5,1.2-6.4,4-6.4ZM187.5,154.4c0,3.2.6,4.5,2,4.5s2-1.3,2-4.5-.6-4.5-2-4.5-2,1.3-2,4.5ZM183,162.5c0,.3-.2.5-.5.5h-1.1c-.3,0-.5-.2-.5-.5v-15c0-.3.2-.5.5-.5h1.1c.3,0,.5.2.5.5v15ZM169,161.2c.4,0,.7-.2.7-.6v-1.8c0-.3-.2-.4-.4-.4h-5.2c-.8,0-1.2.3-1.2,1.1s.7,1.7,1.6,1.7h4.5ZM167.7,155.1h-1.2c-.3,0-.4-.1-.5-.4-.3-1.2-.7-2.8-.7-3.8,0-2.4,1-3.4,3.4-3.4s2.7.1,4.1.3c.3,0,.5.2.5.5v1c0,.3-.2.5-.5.5-1.2-.2-2-.3-4-.3s-1.4.4-1.4,1.4.3,2.6.7,3.8c0,.3-.1.5-.4.5ZM160.8,158.6c0-1.3.8-2.1,2.2-2.1h7.9c.5,0,.8.3.8.8v4.1c0,1-.7,1.6-1.9,1.6h-8.9c-.3,0-.4-.1-.4-.4v-1c0-.3.1-.4.4-.4h1.3c-.9-.5-1.5-1.5-1.5-2.6ZM161.3,152.4c0-.4-.2-.6-.6-.6h-1.2c-.3,0-.4-.1-.4-.5v-1c0-.3.1-.5.4-.5h1.1c.4,0,.6.1.7.4v-2.8c0-.3.2-.5.5-.5h1.1c.3,0,.5.2.5.5v7.2c0,.3-.2.5-.5.5h-1.1c-.3,0-.5-.2-.5-.5v-2.4ZM150.8,163.3c-3.9,0-5.9-1.2-5.9-3.4s2-3.4,5.9-3.4,5.9,1.2,5.9,3.4-2,3.4-5.9,3.4ZM154.8,149.3v.6c0,1.9,1.2,3.3,2.7,3.3s.4.1.4.5v1c0,.3-.1.4-.4.4-1.9,0-3.3-1.2-3.8-2.6-.5,1.4-1.9,2.6-3.8,2.6s-.4-.1-.4-.4v-1c0-.3.1-.5.4-.5,1.6,0,2.7-1.4,2.7-3.3v-.6s-2.7,0-2.7,0c-.3,0-.4-.1-.4-.4v-1c0-.3.1-.4.4-.4h7.4c.3,0,.4.1.4.4v1c0,.3-.1.4-.4.4h-2.6ZM147.4,149.7c0,.4.2.6.6.6h1.4c.3,0,.5.1.5.4v1c0,.3-.1.4-.5.4h-1.3c-.4,0-.6-.1-.7-.4v3.3c0,.3-.2.5-.5.5h-1.1c-.3,0-.5-.2-.5-.5v-7.6c0-.3.2-.5.5-.5h1.1c.3,0,.5.2.5.5v2.2ZM150.8,158.3c-2.8,0-3.8.6-3.8,1.5s1,1.5,3.8,1.5,3.8-.6,3.8-1.5-1-1.5-3.8-1.5ZM135.8,148.9c-2.7,0-3.5.3-3.5,1.1s.8,1.1,3.5,1.1,3.5-.3,3.5-1.1-.8-1.1-3.5-1.1ZM129.8,162.5v-.8c0-.3.2-.4.5-.4,1.4.2,3.4.3,4.8.3,3.7,0,4.4,0,4.4-.6s-.4-.6-3.4-.6-4.2,0-5.3,0c-.3,0-.4-.1-.4-.4v-.7c0-.3.1-.4.4-.4h.6c-.7-.2-1.2-.8-1.2-1.5s.5-1.3,1.7-1.3c2.3,0,6.2,0,8.9.2.3,0,.4.1.4.4v.8c0,.3-.1.4-.4.4-2-.1-5.9-.3-7.7-.3s-.8.2-.8.6.2.5.9.5c.9,0,2,0,3,0,4.3,0,5.4.5,5.4,2.2s-1.2,2.3-6.5,2.3-3.5-.1-4.9-.3c-.3,0-.4-.2-.4-.5ZM135.9,153.6c2.1,0,4.6,0,6.3-.2.3,0,.4.1.4.4v.9c0,.3-.1.4-.4.4-1.1.1-3.1.2-6.4.2-2.5,0-5.1,0-6.4-.2-.3,0-.4-.2-.4-.4v-.9c0-.3.2-.4.4-.4,1.4.1,3.4.2,6.4.2ZM135.8,152.8c-4,0-5.6-.8-5.6-2.8s1.6-2.8,5.6-2.8,5.6.8,5.6,2.8-1.6,2.8-5.6,2.8ZM120.7,159.9c0,2.1-1.5,3.3-4,3.3s-5.3-.1-7.1-.3c-.3,0-.5-.2-.4-.4v-1c0-.3.3-.5.5-.4,2.1.2,3.9.3,7.1.3s1.8-.6,1.8-1.7,0-1.4-.1-1.8c0-.3.2-.5.5-.5h1.1c.3,0,.5.2.5.5,0,.4.1,1.2.1,2ZM111.7,157.6c0,.3-.2.5-.5.5h-1.1c-.3,0-.5-.2-.5-.5v-10.1c0-.3.2-.5.5-.5h1.1c.3,0,.5.2.5.5v10.1ZM118.2,147.3c2.4,0,4,1.7,4,4.4s-1.6,4.4-4,4.4-4.1-1.7-4.1-4.4,1.6-4.4,4.1-4.4ZM118.2,154.1c1.2,0,2-1,2-2.5s-.8-2.5-2-2.5-2,1-2,2.5.8,2.5,2,2.5ZM94.8,159.7c0-2,1-2.9,3.5-2.9s5.3.1,7.2.3c.3,0,.4.2.4.5v1c0,.3-.1.5-.4.4-2.2-.2-4.4-.3-7-.3s-1.7.3-1.7,1.5,0,1.7,0,2.3c0,.3-.2.5-.5.5h-1.1c-.3,0-.5-.2-.5-.5,0-.6,0-1.6,0-2.8ZM102.6,147.4h1.1c.3,0,.5.2.5.5v2.1c0,2,1.2,3.5,2.7,3.5s.4.1.4.5v1c0,.3-.1.4-.4.4-1.9,0-3.3-1.2-3.8-2.7-.5,1.4-1.9,2.7-3.8,2.7s-.4-.1-.4-.4v-1c0-.3.1-.5.4-.5,1.6,0,2.7-1.5,2.7-3.5v-2.1c0-.3.2-.5.5-.5ZM96.8,155.1c0,.3-.2.5-.5.5h-1.1c-.3,0-.5-.2-.5-.5v-7.6c0-.3.2-.5.5-.5h1.1c.3,0,.5.2.5.5v7.6ZM86.3,156.1c0,1.6.7,2.5,1.9,2.5s1.9-.8,1.9-2.5-.7-2.4-1.9-2.4-1.9.8-1.9,2.4ZM88.2,151.6c2.5,0,3.9,1.6,3.9,4.4s-1.5,4.4-3.9,4.4-3.9-1.6-3.9-4.4,1.5-4.4,3.9-4.4ZM80.1,155.9c0-.4-.2-.6-.6-.6h-1.2c-.3,0-.4-.1-.4-.4v-1.1c0-.3.1-.4.4-.4h1.1c.4,0,.6.1.7.4v-6.2c0-.3.2-.5.5-.5h1.1c.3,0,.5.2.5.5v15c0,.3-.2.5-.5.5h-1.1c-.3,0-.5-.2-.5-.5v-6.6ZM87.1,148.2v-1.2c0-.3.1-.4.5-.4h1.2c.3,0,.5.1.5.4v1c0,.2-.1.4-.3.5h3.3c.3,0,.5.1.5.4v1.1c0,.3-.1.4-.5.4h-8c-.3,0-.5-.1-.5-.4v-1.1c0-.3.1-.4.5-.4h2.6c.3,0,.4,0,.4-.3ZM69.7,161.6c-2.8,0-5.2-.1-6.4-.3-.3,0-.4-.2-.4-.5v-1c0-.3.2-.5.5-.4,1.2.1,3.6.3,5.5.3s.6-.2.6-.6v-4.1c0-.3.2-.5.5-.5h1.1c.3,0,.5.2.5.5v4c0,.4-.2.6-.5.8,1.5,0,3.3-.2,4.8-.3.3,0,.5.1.5.4v1c0,.3-.1.4-.5.5-1.3.2-3.5.3-6.3.3ZM68.8,149.9c-1.9,0-2.6.8-2.6,2.8s.1,2.5.3,3.4c0,.3,0,.4-.3.4l-1.2.2c-.3,0-.4,0-.5-.3-.3-1.3-.3-2.4-.3-4.1,0-2.8,1.5-4.4,4.2-4.4s4.1,0,6.1.3c.3,0,.5.2.5.5v1.1c0,.3-.2.5-.5.4-1.8-.2-3.6-.3-5.7-.3ZM60.7,162.1c0,.7-.5,1.2-1.1,1.3.1.3.3.4.7.4s.2,0,.2.2v.4c0,.1,0,.2-.2.2-1.4,0-2.3-.9-2.3-2.3s.5-1.4,1.4-1.4,1.4.5,1.4,1.3ZM317.6,188.5c-.3,0-.5-.1-.5-.4v-1.1c0-.3.1-.4.4-.5,1.5-.2,2.8-2.1,2.8-4.1v-5.8c0-.3.2-.5.5-.5h1.1c.3,0,.5.2.5.5v5.8c0,2.1,1.3,3.9,2.8,4.1.3,0,.4.2.4.5v1.1c0,.3-.1.4-.4.4-1.7-.2-3.3-1.6-3.8-3.3-.5,1.7-2,3-3.8,3.3ZM313.3,183.9c0-.4-.2-.6-.6-.6h-1.2c-.3,0-.5-.1-.5-.4v-1.1c0-.3.1-.4.5-.4h1.1c.4,0,.6.1.7.4v-6.2c0-.3.2-.5.5-.5h1.1c.3,0,.5.2.5.5v15c0,.3-.2.5-.5.5h-1.1c-.3,0-.5-.2-.5-.5v-6.6ZM305.7,189.2c.4,0,.7-.2.7-.6v-1.4c0-.3-.2-.4-.4-.4h-5.2c-.8,0-1.2.2-1.2.9s.7,1.5,1.6,1.5h4.5ZM301.2,182.4l.3-1c0-.2.2-.3.3-.3s.1,0,.2,0c.9.3,2.2.6,3.1.6,2,0,2.5-.1,2.5-.7s-.7-.8-3-.8-1.4,0-2.3,0c-.3,0-.4-.1-.4-.4v-.9c0-.3.1-.4.4-.4h.4c-.6-.4-1-.9-1-1.6,0-1.2.8-1.6,3.1-1.6,1.6,0,2.6,0,3.9.2.3,0,.4.2.4.5v1c0,.3-.2.4-.5.4-1.4-.2-2.7-.3-3.4-.3-1.1,0-1.4.1-1.4.6s.4.6,1.3.6c3.3,0,4.6.7,4.6,2.6s-1.2,2.6-4.2,2.6-3.1-.3-4-.6c-.3-.1-.4-.3-.3-.6ZM297.5,186.8c0-1.3.8-1.9,2.2-1.9h7.9c.5,0,.8.3.8.8v3.8c0,1-.7,1.6-1.9,1.6h-8.9c-.3,0-.5-.1-.5-.4v-1c0-.3.1-.4.5-.4h1.3c-.9-.5-1.5-1.4-1.5-2.4ZM297.6,180.5c0-.4-.2-.6-.6-.6h-1.2c-.3,0-.5-.1-.5-.4v-1c0-.3.1-.4.5-.4h1.1c.4,0,.6.1.7.4v-2.9c0-.3.2-.5.5-.5h1.1c.3,0,.5.2.5.5v7.6c0,.3-.2.5-.5.5h-1.1c-.3,0-.5-.2-.5-.5v-2.6ZM289.8,188c1.7,0,3.1-.1,4.3-.3.3,0,.5,0,.5.4v1.1c0,.3-.1.4-.5.5-1.2.2-2.6.3-4.3.3s-3.4,0-4.6-.3c-.3,0-.5-.2-.5-.5v-1c0-.3.2-.5.5-.4,1.2.2,2.9.3,4.6.3ZM289.7,185.3c-2.5,0-4-1.9-4-4.9s1.6-4.8,4-4.8,4.1,1.9,4.1,4.8-1.6,4.9-4.1,4.9ZM291.7,180.5c0-1.7-.8-2.9-2-2.9s-2,1.2-2,2.9.8,2.9,2,2.9,2-1.2,2-2.9ZM281.6,175.5c0-.3.2-.5.5-.5h1.1c.3,0,.5.2.5.5v15c0,.3-.2.5-.5.5h-1.1c-.3,0-.5-.2-.5-.5v-15ZM271.1,177.9l-.4,5c.7,0,1.3,0,1.7-.1.3,0,.4.1.4.4v1.2c0,.3-.1.4-.4.4-.4,0-.9,0-1.5.1v2.1c0,.3-.2.6-.4.8,1,0,2-.2,3-.3.3,0,.5.1.5.4v1c0,.3-.1.4-.4.5-1.4.2-3.5.3-6.3.3s-5.1-.1-6.4-.3c-.3,0-.5-.2-.5-.5v-1c0-.3.2-.5.5-.4.3,0,1.4.2,1.9.2s.6-.2.6-.6v-2.2c-.6,0-1.2,0-1.6-.1-.3,0-.4-.2-.4-.4v-1.2c0-.3.2-.4.4-.4.4,0,1,0,1.7.1l-.4-5h-1c-.3,0-.5-.1-.5-.4v-1c0-.3.1-.4.5-.4h10c.3,0,.5.1.5.4v1c0,.3-.1.4-.5.4h-1ZM268.6,182.9l.4-5h-3.9s.4,5,.4,5c.5,0,1,0,1.5,0s1,0,1.5,0ZM265.5,186.8c0,.4-.2.7-.5.8,1,0,2.3,0,3.2,0,.4,0,.6-.2.6-.6v-2.2c-.5,0-1.1,0-1.7,0s-1.1,0-1.6,0v2ZM251.4,191.3c-3.9,0-5.9-1.2-5.9-3.4s2-3.4,5.9-3.4,5.9,1.2,5.9,3.4-2,3.4-5.9,3.4ZM255.4,177.3v.6c0,1.9,1.2,3.3,2.7,3.3s.4.1.4.5v1c0,.3-.1.4-.4.4-1.9,0-3.3-1.2-3.8-2.6-.5,1.4-1.9,2.6-3.8,2.6s-.4-.1-.4-.4v-1c0-.3.1-.5.4-.5,1.6,0,2.7-1.4,2.7-3.3v-.6s-2.7,0-2.7,0c-.3,0-.5-.1-.5-.4v-1c0-.3.1-.4.5-.4h7.4c.3,0,.5.1.5.4v1c0,.3-.1.4-.5.4h-2.6ZM248,177.7c0,.4.2.6.6.6h1.4c.3,0,.4.1.4.4v1c0,.3-.1.4-.4.4h-1.3c-.4,0-.6-.1-.7-.4v3.3c0,.3-.2.5-.5.5h-1.1c-.3,0-.5-.2-.5-.5v-7.6c0-.3.2-.5.5-.5h1.1c.3,0,.5.2.5.5v2.2ZM251.4,186.3c-2.8,0-3.8.6-3.8,1.5s1,1.5,3.8,1.5,3.8-.6,3.8-1.5-1-1.5-3.8-1.5ZM236.4,176.9c-2.7,0-3.5.3-3.5,1.1s.8,1.1,3.5,1.1,3.5-.3,3.5-1.1-.8-1.1-3.5-1.1ZM230.4,190.5v-.8c0-.3.2-.4.5-.4,1.3.2,3.4.3,4.8.3,3.7,0,4.4,0,4.4-.6s-.4-.6-3.4-.6-4.2,0-5.3,0c-.3,0-.4-.1-.4-.4v-.7c0-.3.1-.4.4-.4h.6c-.7-.2-1.2-.8-1.2-1.5s.4-1.3,1.7-1.3c2.3,0,6.2,0,8.9.2.3,0,.4.1.4.4v.8c0,.3-.1.4-.4.4-2-.1-5.8-.3-7.7-.3s-.8.2-.8.6.2.5.9.5c.9,0,2,0,3,0,4.3,0,5.4.5,5.4,2.2s-1.2,2.3-6.5,2.3-3.5-.1-4.9-.3c-.3,0-.4-.2-.4-.5ZM236.6,181.6c2.1,0,4.6,0,6.3-.2.3,0,.4.1.4.4v.9c0,.3-.1.4-.4.4-1.1.1-3.1.2-6.4.2-2.5,0-5.1,0-6.4-.2-.3,0-.4-.2-.4-.4v-.9c0-.3.2-.4.4-.4,1.4.1,3.4.2,6.4.2ZM236.4,180.8c-4,0-5.6-.8-5.6-2.8s1.6-2.8,5.6-2.8,5.6.8,5.6,2.8-1.6,2.8-5.6,2.8ZM212,179.8c1.7,0,2.3-.3,2.3-1.3s-.6-1.3-2.2-1.3-.7,0-1,0c-.3,0-.5,0-.5-.4v-1c0-.3.1-.5.4-.5.3,0,.7,0,1.1,0,2.9,0,4.1.9,4.1,3.1s0,.7-.1,1.1c.4.1,1,.2,1.5.2,1.6,0,2.1-.3,2.1-1.3s-.4-1.3-1.9-1.3-.5,0-.9,0c-.3,0-.5,0-.5-.4v-1c0-.3.1-.4.4-.5.3,0,.6,0,1.1,0,2.6,0,3.7,1,3.7,3.1s-1.2,3.1-3.9,3.1-.6,0-.9,0v.9c0,.2-.1.4-.3.5,1.8,0,4.2,0,5.5-.2.3,0,.5.1.5.4v1c0,.3-.1.4-.5.5-1.1.1-3,.2-6.3.2-2.5,0-5.1,0-6.4-.2-.3,0-.5-.2-.5-.5v-1c0-.3.2-.5.5-.4,1.3.1,3.4.2,4.8.1.3,0,.5-.2.5-.5v-1.3c-.6.3-1.5.4-2.7.4s-1.1,0-1.7-.2c-.3,0-.4-.3-.3-.5v-1c.1-.3.3-.4.6-.3.4,0,.8.1,1.2.1ZM210.1,188.5c0-2.1.9-2.8,3.4-2.8s5,.1,7.4.3c.3,0,.4.2.4.5v1c0,.3-.1.4-.4.4-2.5-.2-4.9-.3-7.3-.3s-1.5.3-1.5,1.5,0,1,0,1.5c0,.3-.2.5-.5.5h-1.1c-.3,0-.5-.2-.5-.5,0-.6-.1-1.1-.1-2.1ZM201.4,182.6h-1.2c-.3,0-.4-.1-.5-.4-.2-.8-.7-2.3-.7-3.5,0-2.3.9-3.2,3.2-3.2s2.9.1,4.3.3c.3,0,.4.2.4.5v1c0,.3-.2.5-.5.5-1.2-.2-2.1-.3-4.2-.3s-1.2.3-1.2,1.2.3,2.3.7,3.5c0,.3-.1.5-.5.5ZM205.7,184.1v.9c0,.3-.1.4-.4.4h-10c-.3,0-.4-.1-.4-.4v-.9c0-.3.1-.4.4-.4h10c.3,0,.4.1.4.4ZM195,180.1c0-.4-.2-.6-.6-.6h-1.2c-.3,0-.4-.1-.4-.4v-1c0-.3.1-.4.4-.4h1.1c.4,0,.6.1.7.4v-2.5c0-.3.2-.5.5-.5h1.1c.3,0,.5.2.5.5v6.7c0,.3-.2.5-.5.5h-1.1c-.3,0-.5-.2-.5-.5v-2.1ZM200.2,186.3c4.2,0,5.6.6,5.6,2.4s-1.3,2.5-5.6,2.5-4-.1-5.3-.2c-.3,0-.4-.2-.4-.4v-.9c0-.3.2-.4.5-.4,1.2.2,2.8.2,5.2.2s3.6-.2,3.6-.8-.8-.7-3.4-.7-3.2,0-5.1.1c-.3,0-.4-.1-.4-.4v-.9c0-.3,0-.4.4-.4,1.2,0,2.9-.1,5-.1ZM187.5,176c2.8,0,4,2,4,6.4s-1.3,6.5-4,6.5-4.1-2-4.1-6.5,1.2-6.4,4.1-6.4ZM185.5,182.4c0,3.2.6,4.5,2,4.5s2-1.3,2-4.5-.6-4.5-2-4.5-2,1.3-2,4.5ZM181,190.5c0,.3-.2.5-.5.5h-1.1c-.3,0-.5-.2-.5-.5v-15c0-.3.2-.5.5-.5h1.1c.3,0,.5.2.5.5v15ZM168,186.7c1.3,0,1.8-1.1,1.8-4.3s-.3-4.3-1.5-4.3-.4,0-.7,0c-.3,0-.5,0-.5-.4v-1.1c0-.3.1-.4.4-.5.3,0,.6,0,.9,0,2.4,0,3.3,1.7,3.3,6.3s-1.2,6.3-3.5,6.3-1.2-.1-1.9-.4c-.3,0-.4-.3-.3-.5v-.3c-.5.8-1.2,1.2-2.2,1.2s-1.1,0-1.6-.3c-.3,0-.4-.3-.3-.5l.2-1c0-.3.1-.4.3-.4s.1,0,.2,0c.4.1.7.2,1,.2,1.2,0,1.6-1,1.6-4.3s-.3-4.3-1.5-4.3-.5,0-.8,0c-.3,0-.5,0-.5-.4v-1.1c0-.3.1-.4.5-.5.3,0,.6,0,1,0,2.4,0,3.3,1.7,3.3,6.3s-.2,3-.5,4c0,0,0,0,0,0,.5.2.9.3,1.3.3ZM159,183.9c0-.4-.2-.6-.6-.6h-.8c-.3,0-.4-.1-.4-.4v-1.1c0-.3.1-.4.4-.4h.7c.4,0,.6.1.7.4v-6.2c0-.3.2-.5.5-.5h1.1c.3,0,.5.2.5.5v15c0,.3-.2.5-.5.5h-1.1c-.3,0-.5-.2-.5-.5v-6.6ZM153.7,185c0-1.3-.8-1.8-2.9-1.8s-1.5,0-2.5,0-.4-.1-.4-.4v-1c0-.3.1-.4.4-.4h.6c-.7-.6-1.1-1.5-1.1-2.6,0-1.7,1.1-2.6,3.3-2.6s2.4,0,3.7.2c.3,0,.4.2.4.4v1.2c0,.3-.2.4-.4.4-1.4-.2-2.5-.3-3.2-.3-1.2,0-1.7.5-1.7,1.6s.5,1.6,1.6,1.6c2.9,0,4.3,1.2,4.3,3.6s-1.4,3.8-4.3,3.8-2.5-.2-3.9-.7c-.3-.1-.4-.3-.3-.6l.3-1.1c0-.2.2-.3.3-.3s.1,0,.2,0c1,.5,2.1.7,3,.7,1.9,0,2.6-.5,2.6-1.8ZM143.7,183.9c0-.4-.2-.6-.6-.6h-1.2c-.3,0-.5-.1-.5-.4v-1.1c0-.3.1-.4.5-.4h1.1c.4,0,.6.1.7.4v-6.2c0-.3.2-.5.5-.5h1.1c.3,0,.5.2.5.5v15c0,.3-.2.5-.5.5h-1.1c-.3,0-.5-.2-.5-.5v-6.6ZM134.2,184.1c0,1.6.7,2.5,1.9,2.5s1.9-.8,1.9-2.5-.7-2.4-1.9-2.4-1.9.8-1.9,2.4ZM136.1,179.6c2.5,0,3.9,1.6,3.9,4.4s-1.5,4.4-3.9,4.4-3.9-1.6-3.9-4.4,1.5-4.4,3.9-4.4ZM128,183.9c0-.4-.2-.6-.6-.6h-1.2c-.3,0-.4-.1-.4-.4v-1.1c0-.3.1-.4.4-.4h1.1c.4,0,.6.1.7.4v-6.2c0-.3.2-.5.5-.5h1.1c.3,0,.5.2.5.5v15c0,.3-.2.5-.5.5h-1.1c-.3,0-.5-.2-.5-.5v-6.6ZM135,176.2v-1.2c0-.3.1-.4.4-.4h1.2c.3,0,.4.1.4.4v1c0,.2-.1.4-.3.5h3.3c.3,0,.4.1.4.4v1.1c0,.3-.1.4-.4.4h-8c-.3,0-.4-.1-.4-.4v-1.1c0-.3.1-.4.4-.4h2.6c.3,0,.4,0,.4-.3ZM121.6,186.5c.4,0,.7-.2.7-.6v-7.4c0-.3-.2-.4-.4-.4h-1.3c-1.4,0-1.8,1-1.8,4s.8,4.4,2,4.4h.9ZM123.6,176.2c.5,0,.8.3.8.8v9.9c0,1-.7,1.6-1.9,1.6h-5.3c-.3,0-.4-.1-.4-.4v-1.1c0-.3.1-.4.4-.4h1.1c-1-1.2-1.7-3.3-1.7-5.9s.9-4.5,3.4-4.5h3.5ZM114.7,178.4h.9c.3,0,.4.1.4.5v1.1c0,.3-.1.5-.4.5h-.8c-.4,0-.6-.1-.7-.4v3.4c0,.4.2.6.6.6h.9c.3,0,.4.1.4.4v1.1c0,.3-.1.4-.4.4h-.8c-.4,0-.6-.1-.7-.4v4.9c0,.3-.2.5-.5.5h-1.1c-.3,0-.5-.2-.5-.5v-15c0-.3.2-.5.5-.5h1.1c.3,0,.5.2.5.5v2.3c0,.4.2.6.6.6ZM103,187.9c0,2.1-1.5,3.3-4,3.3s-5.3-.1-7.1-.3c-.3,0-.4-.2-.4-.4v-1c0-.3.3-.5.5-.4,2.1.2,3.9.3,7.1.3s1.8-.6,1.8-1.7,0-1.4-.1-1.8c0-.3.2-.5.5-.5h1.1c.3,0,.5.2.5.5,0,.4.1,1.2.1,2ZM94.1,185.6c0,.3-.2.5-.5.5h-1.1c-.3,0-.5-.2-.5-.5v-10.1c0-.3.2-.5.5-.5h1.1c.3,0,.5.2.5.5v10.1ZM100.5,175.3c2.4,0,4,1.7,4,4.4s-1.6,4.4-4,4.4-4-1.7-4-4.4,1.6-4.4,4-4.4ZM100.5,182.1c1.2,0,2-1,2-2.5s-.8-2.5-2-2.5-2,1-2,2.5.8,2.5,2,2.5ZM83.9,183.8h-1.2c-.3,0-.5-.1-.5-.4-.4-1.4-.7-3.4-.7-4.5,0-2.5,1-3.5,3.5-3.5s2.6.1,4,.3c.3,0,.4.2.4.5v1c0,.3-.2.5-.5.5-1.2-.2-1.9-.3-3.9-.3s-1.5.5-1.5,1.5.3,3,.7,4.4c0,.3,0,.5-.4.5ZM77.4,181.8c0-.4-.2-.6-.6-.6h-1.2c-.3,0-.4-.1-.4-.4v-1c0-.3.1-.5.4-.5h1.1c.4,0,.6.1.7.4v-4.2c0-.3.2-.5.5-.5h1.1c.3,0,.5.2.5.5v10.1c0,.3-.2.5-.5.5h-1.1c-.3,0-.5-.2-.5-.5v-3.8ZM88.1,187.9c0,2.1-1.5,3.3-4,3.3s-5-.1-6.7-.3c-.3,0-.4-.2-.4-.4v-1c0-.3.3-.5.5-.4,2.1.2,3.7.3,6.7.3s1.8-.6,1.8-1.7,0-1.4-.1-1.8c0-.3.2-.5.5-.5h1.1c.3,0,.5.2.5.5,0,.4.1,1.2.1,2ZM69.8,189.9c-1.7,0-3.2,0-4.4-.3-.3,0-.5-.2-.5-.5v-1c0-.3.2-.5.5-.4.7.1,2,.2,3.4.2s.6-.2.6-.6v-4.5c0-.3.2-.5.5-.5h1.1c.3,0,.5.2.5.5v4.4c0,.4-.2.6-.4.8,1,0,1.9-.1,2.8-.3.3,0,.5,0,.5.4v1.1c0,.3-.1.4-.5.5-1.2.2-2.4.3-4.1.3ZM67.6,179.6c0,1.3.1,2.9.5,4.4,0,.3,0,.4-.3.5l-1.2.2c-.3,0-.4,0-.5-.3-.3-1.5-.5-3.4-.5-5.1s.9-3.5,3.5-3.5,3,.1,3.9.3c.3,0,.4.2.4.5v1.1c0,.3-.2.5-.4.4-1.2-.2-2.4-.3-3.7-.3s-1.7.5-1.7,1.9ZM61.8,183.9c0-.4-.2-.6-.6-.6h-1.2c-.3,0-.5-.1-.5-.4v-1.1c0-.3.1-.4.5-.4h1.1c.4,0,.6.1.7.4v-6.2c0-.3.2-.5.5-.5h1.1c.3,0,.5.2.5.5v15c0,.3-.2.5-.5.5h-1.1c-.3,0-.5-.2-.5-.5v-6.6ZM318.5,217.6c-2.8,0-5.1-.1-6.4-.3-.3,0-.5-.2-.5-.5v-1c0-.3.2-.5.5-.4,1.2.2,3.1.3,4.6.3s.6-.2.6-.6v-2.2c0-.3.2-.5.5-.5h1.1c.3,0,.5.2.5.5v2.1c0,.4-.2.6-.5.8,2,0,4.4-.2,5.7-.3.3,0,.5.1.5.4v1c0,.3-.1.4-.4.5-1.4.2-3.5.3-6.3.3ZM313.5,212.7c-.3,0-.6,0-.6-.4v-1.1c0-.3.1-.4.5-.4,2.4,0,4.1-1.6,4.1-3.8v-2.5c0-.3.2-.5.5-.5h1.1c.3,0,.5.2.5.5v2.5c0,2.2,1.7,3.8,4.1,3.8s.4.1.4.4v1.1c0,.4-.3.4-.6.4-2.1,0-4.2-1.2-4.9-3-.8,1.8-2.8,3-4.9,3ZM302.8,205.8c4.4,0,5.5.5,5.5,2.1s-.9,2.1-4.5,2.2v.6c0,.2-.1.4-.3.5,1.8,0,4.2,0,5.6-.2.3,0,.5.1.5.4v.9c0,.3-.1.4-.4.5-1.1.1-3.1.2-6.4.2-2.5,0-5.1,0-6.4-.2-.3,0-.4-.2-.4-.5v-.9c0-.3.1-.4.5-.4,1.3.1,3.5.2,4.9.1.3,0,.5-.2.5-.4v-.6c-1.5,0-2.8,0-4.1-.2-.3,0-.4-.2-.4-.4v-.8c0-.3.2-.4.5-.4,1.2.2,2.8.2,5.1.2s3.5-.1,3.5-.6-.5-.5-3.3-.5-3.1,0-5,.1c-.3,0-.4-.1-.4-.4v-.8c0-.3,0-.4.4-.4,1.1,0,2.9-.1,4.9-.1ZM302.7,219.3c-4,0-5.9-.8-5.9-2.8s1.9-2.8,5.9-2.8,5.9.8,5.9,2.8-1.9,2.8-5.9,2.8ZM308.2,203.8v.8c0,.3-.1.4-.4.4h-9.8c-.3,0-.4-.1-.4-.4v-.8c0-.3.1-.4.4-.4h9.8c.3,0,.4.1.4.4ZM302.7,215.3c-2.7,0-3.8.3-3.8,1.1s1.1,1.2,3.8,1.2,3.8-.3,3.8-1.2-1.1-1.1-3.8-1.1ZM288.2,212.1c0,1.6.7,2.5,1.9,2.5s1.9-.8,1.9-2.5-.7-2.4-1.9-2.4-1.9.8-1.9,2.4ZM290.1,207.6c2.5,0,3.9,1.6,3.9,4.4s-1.5,4.4-3.9,4.4-3.9-1.6-3.9-4.4,1.5-4.4,3.9-4.4ZM282,211.9c0-.4-.2-.6-.6-.6h-1.2c-.3,0-.5-.1-.5-.4v-1.1c0-.3.1-.4.5-.4h1.1c.4,0,.6.1.7.4v-6.2c0-.3.2-.5.5-.5h1.1c.3,0,.5.2.5.5v15c0,.3-.2.5-.5.5h-1.1c-.3,0-.5-.2-.5-.5v-6.6ZM289,204.2v-1.2c0-.3.1-.4.5-.4h1.2c.3,0,.4.1.4.4v1c0,.2-.1.4-.3.5h3.3c.3,0,.5.1.5.4v1.1c0,.3-.1.4-.5.4h-8c-.3,0-.4-.1-.4-.4v-1.1c0-.3.1-.4.4-.4h2.6c.3,0,.4,0,.4-.3ZM276.8,206.8c0,2.1-1.3,3.3-3.7,3.3s-5.3-.1-7.1-.3c-.3,0-.5-.2-.4-.4v-1c0-.3.3-.5.5-.4,2.1.2,4,.3,6.8.3s1.7-.5,1.7-1.5,0-2-.1-2.8c0-.3.1-.5.4-.5h1.1c.3,0,.5.2.5.5,0,.8.1,2.2.1,2.9ZM277.1,216c0,2.1-1.4,3.3-3.8,3.3s-5.6-.1-7.4-.3c-.3,0-.4-.2-.4-.4v-1c0-.3.3-.5.5-.4,2.1.2,4.2.3,7.4.3s1.7-.5,1.7-1.5,0-.9-.1-1.3c0-.3.1-.5.4-.5h1.1c.3,0,.5.2.5.5,0,.4.1.8.1,1.4ZM278.3,211.5v1c0,.3-.1.4-.5.5-1.1.1-3,.2-6.3.2-2.5,0-5.1,0-6.4-.2-.3,0-.4-.2-.4-.5v-1c0-.3.2-.5.5-.4,1.3.1,3.4.2,6.3.2s4.6,0,6.3-.2c.3,0,.5.1.5.4ZM249.7,208c0-2.8,1-3.9,3.5-3.9s2.6.1,3.9.3c.3,0,.4.2.4.5v1c0,.3-.2.5-.5.5-1.2-.2-2.2-.3-3.5-.3s-1.8.5-1.8,2.1c0,2.6.2,5.2.7,7.8,0,.3-.1.5-.5.5h-1.2c-.3,0-.5-.1-.5-.4-.4-2.6-.7-5.2-.7-8.1ZM247.3,218.5c0,.3-.2.5-.5.5h-1.1c-.3,0-.5-.2-.5-.5v-15c0-.3.2-.5.5-.5h1.1c.3,0,.5.2.5.5v15ZM229.7,218.5v-.8c0-.3.2-.4.5-.4,1.3.2,3.4.3,4.8.3,3.7,0,4.4,0,4.4-.6s-.4-.6-3.4-.6-4.2,0-5.3,0c-.3,0-.4-.1-.4-.4v-.7c0-.3.1-.4.4-.4h.6c-.7-.2-1.2-.8-1.2-1.5s.4-1.3,1.7-1.3c.8,0,1.9,0,3.1,0v-.4c0-.3-.1-.4-.4-.4-1.4,0-3.6,0-4.9-.2-.3,0-.4-.2-.4-.4v-.9c0-.3.2-.4.4-.4,1.3.1,3.9.2,6.4.2,3.3,0,5.2,0,6.3-.2.3,0,.4.1.4.4v.9c0,.3-.1.4-.4.4-1.4.1-3.8.2-5.6.2.1,0,.2.3.2.4v.5c1.3,0,2.6.1,3.8.2.3,0,.4.1.4.4v.8c0,.3-.1.4-.4.4-2-.1-5.9-.3-7.7-.3s-.8.2-.8.6.2.5.9.5c.9,0,2,0,3,0,4.3,0,5.4.5,5.4,2.2s-1.2,2.3-6.5,2.3-3.5-.1-4.9-.3c-.3,0-.4-.2-.4-.5ZM236.3,203.4c.3,0,.5.2.5.5v.2c0,1.5,1.6,2.8,4.1,2.8s.4.1.4.4v.9c0,.3-.1.4-.4.4-2.1.1-4.3-1.1-5.1-2.4-.8,1.3-3,2.6-5.1,2.4-.3,0-.4-.1-.4-.4v-.9c0-.3,0-.4.4-.4,2.4,0,4.1-1.3,4.1-2.8v-.2c0-.3.2-.5.5-.5h1.1ZM223.2,204c2.8,0,4,2,4,6.4s-1.3,6.5-4,6.5-4.1-2-4.1-6.5,1.2-6.4,4.1-6.4ZM221.2,210.4c0,3.2.6,4.5,2,4.5s2-1.3,2-4.5-.6-4.5-2-4.5-2,1.3-2,4.5ZM216.7,218.5c0,.3-.2.5-.5.5h-1.1c-.3,0-.5-.2-.5-.5v-15c0-.3.2-.5.5-.5h1.1c.3,0,.5.2.5.5v15ZM206.6,206.1l-.3,8.3c.4,0,.8,0,1.2-.1.3,0,.4.1.4.4v1.1c0,.3-.1.4-.4.4-.9.1-2.3.2-3.6.2s-2.9-.1-3.6-.2c-.3,0-.4-.1-.4-.4v-1.1c0-.3.1-.5.4-.4.3,0,.7,0,1.2.1l-.3-8.3h-.6c-.3,0-.5-.1-.5-.4v-1.1c0-.3.1-.4.5-.4h6.8c.3,0,.4.1.4.4v1.1c0,.3-.1.4-.4.4h-.6ZM200.7,209.7v1.1c0,.3-.1.4-.4.4h-1.5c-.3,0-.5-.1-.6-.3v7.6c0,.3-.1.4-.5.4h-1.1c-.3,0-.4-.1-.4-.4v-14.9c0-.3.1-.4.4-.4h1.1c.3,0,.5.1.5.4v5.1c0,.4.1.5.5.5h1.5c.3,0,.4.1.4.4ZM193.5,203h1.1c.3,0,.4.1.4.4v15c0,.3-.1.4-.4.4h-1.1c-.3,0-.4-.1-.4-.4v-15c0-.3.1-.4.4-.4ZM204.7,206.1h-1.7s.3,8.4.3,8.4h1.1s.3-8.4.3-8.4ZM186.7,204c2.8,0,4,2,4,6.4s-1.3,6.5-4,6.5-4.1-2-4.1-6.5,1.2-6.4,4.1-6.4ZM184.7,210.4c0,3.2.6,4.5,2,4.5s2-1.3,2-4.5-.6-4.5-2-4.5-2,1.3-2,4.5ZM180.2,218.5c0,.3-.2.5-.5.5h-1.1c-.3,0-.5-.2-.5-.5v-15c0-.3.2-.5.5-.5h1.1c.3,0,.5.2.5.5v15ZM163.8,212.7c-.3,0-.6,0-.6-.4v-1.1c0-.3.1-.4.4-.4,2.4,0,4.1-1.6,4.1-3.8v-2.5c0-.3.2-.5.5-.5h1.1c.3,0,.5.2.5.5v2.5c0,2.2,1.7,3.8,4.1,3.8s.5.1.5.4v1.1c0,.4-.3.4-.6.4-2.1,0-4.2-1.2-4.9-3-.8,1.8-2.8,3-4.9,3ZM175.6,215.8v1c0,.3-.1.4-.4.5-1.4.2-3.5.3-6.3.3s-5.1-.1-6.4-.3c-.3,0-.4-.2-.4-.5v-1c0-.3.2-.5.5-.4,1.4.2,3.8.3,6.3.3s4.6-.1,6.3-.3c.3,0,.5.1.5.4ZM152.9,215.4l.3-1c0-.2.2-.3.4-.3s.2,0,.3,0c.8.4,1.6.6,2.3.6,1.4,0,2.2-.8,2.2-2.5s-.7-2.6-2.6-2.6-.8,0-1.7.1c-.3,0-.4-.1-.4-.4v-1c0-.3.1-.5.4-.5.7-.1,1.2-.2,2-.2,3,0,4.4,1.4,4.4,4.6s-1.4,4.5-4,4.5-2.1-.3-3.2-.7c-.3-.1-.4-.3-.3-.6ZM153.4,211.2v1.1c0,.3-.1.4-.4.4h-1.2c-.3,0-.5-.1-.6-.3v6.1c0,.3-.1.4-.4.4h-1.1c-.3,0-.4-.1-.4-.4v-14.9c0-.3.1-.4.4-.4h1.1c.3,0,.4.1.4.4v6.6c0,.4.1.5.5.5h1.3c.3,0,.4.1.4.4ZM146.4,203h1.1c.3,0,.4.1.4.4v15c0,.3-.1.4-.4.4h-1.1c-.3,0-.4-.1-.4-.4v-15c0-.3.1-.4.4-.4ZM153.6,206.1c-.3,0-.4-.1-.4-.4v-1.1c0-.3.1-.4.4-.4h6.1c.3,0,.4.1.4.4v1.1c0,.3-.1.4-.4.4h-6.1ZM135.8,205.9c-1.9,0-2.6.7-2.6,2.7,2.9,0,6.2.1,8.1.3.3,0,.4.2.4.5v1.1c0,.3-.1.5-.4.4-2-.2-5.3-.3-8-.3,0,.6.1,1.2.2,1.7,0,.3,0,.4-.3.4l-1.2.2c-.3,0-.4,0-.5-.3-.3-1.3-.3-2.6-.3-4.3,0-2.8,1.5-4.4,4.2-4.4s4.1,0,6.1.3c.3,0,.4.2.4.5v1.1c0,.3-.2.5-.4.4-1.8-.2-3.6-.3-5.7-.3ZM143.4,215.8v1c0,.3-.1.4-.5.5-1.3.2-3.5.3-6.3.3s-5.1-.1-6.4-.3c-.3,0-.5-.2-.5-.5v-1c0-.3.2-.5.5-.4,1.4.2,3.8.3,6.3.3s4.6-.1,6.3-.3c.3,0,.5.1.5.4ZM124,204c2.8,0,4,2,4,6.4s-1.3,6.5-4,6.5-4-2-4-6.5,1.2-6.4,4-6.4ZM122,210.4c0,3.2.6,4.5,2,4.5s2-1.3,2-4.5-.6-4.5-2-4.5-2,1.3-2,4.5ZM117.5,218.5c0,.3-.2.5-.5.5h-1.1c-.3,0-.5-.2-.5-.5v-15c0-.3.2-.5.5-.5h1.1c.3,0,.5.2.5.5v15ZM107.8,206.1c-.9,0-1.5,0-2.3.2-.3,0-.5-.1-.5-.4v-1.1c0-.3.1-.4.5-.5.7-.1,1.3-.1,2.4-.1,3.4,0,5,1.9,5,6.3s-1.6,6.3-4.9,6.3-2.2-.3-3.3-.7c-.4-.1-.5-.3-.4-.6l.3-1c0-.3.2-.4.3-.4s.1,0,.2,0c1.1.4,2,.7,2.7.7,2,0,2.9-1.4,2.9-4.3s-.8-4.3-3.1-4.3ZM100.8,211.9c0-.4-.2-.6-.6-.6h-1.2c-.3,0-.4-.1-.4-.4v-1.1c0-.3.1-.4.4-.4h1.1c.4,0,.6.1.7.4v-6.2c0-.3.2-.5.5-.5h1.1c.3,0,.5.2.5.5v15c0,.3-.2.5-.5.5h-1.1c-.3,0-.5-.2-.5-.5v-6.6ZM95.8,219.4c-.8,0-1.4-.5-1.4-1.3s.6-1.3,1.4-1.3,1.3.5,1.3,1.3-.6,1.3-1.3,1.3ZM75.1,214.6c0-1.3.8-2.1,2.2-2.1h8.3c.5,0,.8.3.8.8v4.1c0,1-.7,1.6-1.9,1.6h-9.3c-.3,0-.4-.1-.4-.4v-1c0-.3.1-.4.4-.4h1.3c-.9-.5-1.5-1.5-1.5-2.6ZM84.7,205.3v.6c0,1.9,1.2,3.3,2.7,3.3s.4.1.4.5v1c0,.3-.1.4-.4.4-1.9,0-3.3-1.2-3.8-2.6-.5,1.4-1.9,2.6-3.8,2.6s-.5-.1-.5-.4v-1c0-.3.1-.5.5-.5,1.6,0,2.7-1.4,2.7-3.3v-.6s-2.7,0-2.7,0c-.3,0-.5-.1-.5-.4v-1c0-.3.1-.4.5-.4h7.4c.3,0,.4.1.4.4v1c0,.3-.1.4-.4.4h-2.6ZM77.3,205.7c0,.4.2.6.6.6h1.4c.3,0,.5.1.5.4v1c0,.3-.1.4-.5.4h-1.3c-.4,0-.6-.1-.7-.4v2.9c0,.3-.2.5-.5.5h-1.1c-.3,0-.5-.2-.5-.5v-7.2c0-.3.2-.5.5-.5h1.1c.3,0,.5.2.5.5v2.2ZM83.7,217.2c.4,0,.7-.2.7-.6v-1.8c0-.3-.2-.4-.4-.4h-5.5c-.8,0-1.2.3-1.2,1.1s.7,1.7,1.6,1.7h4.9ZM60.2,214.6c0-1.3.8-2.1,2.2-2.1h8.3c.5,0,.8.3.8.8v4.1c0,1-.7,1.6-1.9,1.6h-9.3c-.3,0-.5-.1-.5-.4v-1c0-.3.1-.4.5-.4h1.3c-.9-.5-1.5-1.5-1.5-2.6ZM69.8,205.3v.6c0,1.9,1.2,3.3,2.7,3.3s.5.1.5.5v1c0,.3-.1.4-.5.4-1.9,0-3.3-1.2-3.8-2.6-.5,1.4-1.9,2.6-3.8,2.6s-.5-.1-.5-.4v-1c0-.3.1-.5.5-.5,1.6,0,2.7-1.4,2.7-3.3v-.6s-2.7,0-2.7,0c-.3,0-.4-.1-.4-.4v-1c0-.3.1-.4.4-.4h7.4c.3,0,.5.1.5.4v1c0,.3-.1.4-.5.4h-2.6ZM62.4,205.7c0,.4.2.6.6.6h1.4c.3,0,.5.1.5.4v1c0,.3-.1.4-.5.4h-1.3c-.4,0-.6-.1-.7-.4v2.9c0,.3-.2.5-.5.5h-1.1c-.3,0-.5-.2-.5-.5v-7.2c0-.3.2-.5.5-.5h1.1c.3,0,.5.2.5.5v2.2ZM68.7,217.2c.4,0,.7-.2.7-.6v-1.8c0-.3-.2-.4-.4-.4h-5.5c-.8,0-1.2.3-1.2,1.1s.7,1.7,1.6,1.7h4.9ZM47.6,206.1c-.9,0-1.5,0-2.3.2-.3,0-.5-.1-.5-.4v-1.1c0-.3.1-.4.5-.5.7-.1,1.4-.1,2.4-.1,3.4,0,5,1.9,5,6.3s-1.6,6.3-4.9,6.3-2.2-.3-3.3-.7c-.4-.1-.5-.3-.4-.6l.3-1c0-.3.2-.4.3-.4s.1,0,.2,0c1.1.4,2,.7,2.7.7,2,0,2.9-1.4,2.9-4.3s-.8-4.3-3.1-4.3ZM42.4,208.7c0,.4.2.6.6.6h2.7c.3,0,.5.1.5.4v1.1c0,.3-.1.4-.5.4h-2.6c-.4,0-.6-.1-.7-.4v7.6c0,.3-.2.5-.5.5h-1.1c-.3,0-.5-.2-.5-.5v-15c0-.3.2-.5.5-.5h1.1c.3,0,.5.2.5.5v5.2ZM317.6,244.5c-.3,0-.5-.1-.5-.4v-1.1c0-.3.1-.4.4-.5,1.5-.2,2.8-2.1,2.8-4.1v-5.8c0-.3.2-.5.5-.5h1.1c.3,0,.5.2.5.5v5.8c0,2.1,1.3,3.9,2.8,4.1.3,0,.4.2.4.5v1.1c0,.3-.1.4-.4.4-1.7-.2-3.3-1.6-3.8-3.3-.5,1.7-2,3-3.8,3.3ZM313.3,239.9c0-.4-.2-.6-.6-.6h-1.2c-.3,0-.5-.1-.5-.4v-1.1c0-.3.1-.4.5-.4h1.1c.4,0,.6.1.7.4v-6.2c0-.3.2-.5.5-.5h1.1c.3,0,.5.2.5.5v15c0,.3-.2.5-.5.5h-1.1c-.3,0-.5-.2-.5-.5v-6.6ZM306.5,241.5v1.7c0,.4-.2.6-.5.8,1.3,0,2.8-.1,3.7-.3.3,0,.5,0,.5.4v1.1c0,.3-.1.4-.5.5-1.2.2-2.6.3-4.3.3s-3.4,0-4.6-.3c-.3,0-.5-.2-.5-.5v-1c0-.3.2-.5.5-.4.7.1,1.7.2,2.9.2s.6-.2.6-.6v-1.9c-1.8-.3-2.8-1.3-2.8-3s1.4-3.1,3.9-3.1,3.9,1.1,3.9,3.1-1,2.8-3,3.1ZM297.3,231.5c0-.3.2-.5.5-.5h1.1c.3,0,.5.2.5.5v15c0,.3-.2.5-.5.5h-1.1c-.3,0-.5-.2-.5-.5v-15ZM304.5,232v-.8c0-.3.1-.4.5-.4h1.2c.3,0,.4.1.4.4v.7c0,.2-.1.4-.3.5h3.3c.3,0,.5.1.5.5v1.1c0,.3-.1.5-.5.5h-8c-.3,0-.5-.1-.5-.5v-1.1c0-.3.1-.5.5-.5h2.6c.3,0,.4,0,.4-.3ZM305.5,237.2c-1.2,0-1.9.4-1.9,1.2s.7,1.3,1.9,1.3,1.9-.4,1.9-1.3-.6-1.2-1.9-1.2ZM291.8,233.3v.7c0,2,1.2,3.5,2.7,3.5s.5.1.5.5v1c0,.3-.1.4-.5.4-1.9,0-3.3-1.2-3.8-2.7-.5,1.4-1.9,2.7-3.8,2.7s-.4-.1-.4-.4v-1c0-.3.1-.5.4-.5,1.6,0,2.7-1.5,2.7-3.5v-.7s-2.7,0-2.7,0c-.3,0-.5-.1-.5-.4v-1c0-.3.1-.4.5-.4h7.4c.3,0,.5.1.5.4v1c0,.3-.1.4-.5.4h-2.6ZM282.4,243.7c0-2,1-2.9,3.5-2.9s5.3.1,7.2.3c.3,0,.5.2.5.5v1c0,.3-.1.5-.5.4-2.2-.2-4.4-.3-7-.3s-1.7.3-1.7,1.5,0,1.7,0,2.3c0,.3-.2.5-.5.5h-1.1c-.3,0-.5-.2-.5-.5,0-.6,0-1.6,0-2.8ZM284.4,233.9c0,.4.2.6.6.6h1.4c.3,0,.4.1.4.4v1c0,.3-.1.4-.4.4h-1.3c-.4,0-.6-.1-.7-.4v3.1c0,.3-.2.5-.5.5h-1.1c-.3,0-.5-.2-.5-.5v-7.6c0-.3.2-.5.5-.5h1.1c.3,0,.5.2.5.5v2.4ZM270.9,238.1c1.2,0,1.9-1,1.9-2.5s-.7-2.5-1.9-2.5-1.9,1-1.9,2.5.7,2.5,1.9,2.5ZM270.9,231.3c2.4,0,3.9,1.7,3.9,4.4s-1.5,4.4-3.9,4.4-4-1.7-4-4.4,1.6-4.4,4-4.4ZM262.3,231.5c0-.3.2-.5.5-.5h1.1c.3,0,.5.2.5.5v.8c0,.4.1.5.5.5h1.2c.3,0,.4.1.4.4v1c0,.3-.1.4-.4.4h-1c-.3,0-.6-.1-.7-.4v1.9c0,.4.1.5.5.5h1.2c.3,0,.4.1.4.4v1c0,.3-.1.4-.4.4h-1c-.3,0-.6-.1-.7-.4v3.4c0,.3-.2.5-.5.5h-1.1c-.3,0-.5-.2-.5-.5v-10.1ZM273.3,243.9c0,2.1-1.5,3.3-4,3.3s-5.3-.1-7.1-.3c-.3,0-.5-.2-.4-.4v-1c0-.3.3-.5.5-.4,2.1.2,3.9.3,7.1.3s1.8-.6,1.8-1.7,0-1.4-.1-1.8c0-.3.2-.5.5-.5h1.1c.3,0,.5.2.5.5,0,.4.1,1.2.1,2ZM254.5,238.6h-1.2c-.3,0-.4-.1-.5-.4-.2-.8-.7-2.3-.7-3.5,0-2.3.9-3.2,3.2-3.2s2.7.1,4.1.3c.3,0,.5.2.5.5v1c0,.3-.2.5-.5.5-1.2-.2-1.9-.3-4-.3s-1.2.3-1.2,1.2.3,2.3.7,3.5c0,.3-.1.5-.4.5ZM246.9,246.5v-.9c0-.3.2-.4.5-.4,1.4.2,3.4.3,4.6.3,3.7,0,4.5,0,4.5-.7s-.5-.7-3.5-.7-3.9,0-5.2,0c-.3,0-.4-.1-.4-.4v-.8c0-.3.1-.4.4-.4h.6c-.7-.3-1.2-.9-1.2-1.6s.5-1.4,1.6-1.4c2.3,0,6.2,0,8.9.2.3,0,.4.1.4.4v.9c0,.3-.1.4-.4.4-2-.1-5.8-.3-7.6-.3s-.9.2-.9.6.3.6.9.6c1,0,1.9,0,2.8,0,4.2,0,5.5.5,5.5,2.3s-1.4,2.4-6.6,2.4-3.3-.1-4.8-.3c-.3,0-.4-.2-.4-.5ZM249.5,238.2c0,.3-.2.5-.5.5h-1.1c-.3,0-.5-.2-.5-.5v-6.7c0-.3.2-.5.5-.5h1.1c.3,0,.5.2.5.5v.4c0,.3.1.5.4.5h1.3c.3,0,.4.1.4.4v1c0,.3-.1.4-.4.4h-1c-.3,0-.6-.1-.7-.3v1.4c0,.3.1.5.4.5h1.3c.3,0,.4.1.4.4v1c0,.3-.1.5-.4.5h-1c-.3,0-.6-.1-.7-.3v.9ZM238,245.6c-2.8,0-5.2-.1-6.4-.3-.3,0-.5-.2-.5-.5v-1c0-.3.2-.5.5-.4,1.2.1,3.6.3,5.5.3s.6-.2.6-.6v-4.1c0-.3.2-.5.5-.5h1.1c.3,0,.5.2.5.5v4c0,.4-.2.6-.5.8,1.5,0,3.3-.2,4.8-.3.3,0,.5.1.5.4v1c0,.3-.1.4-.5.5-1.3.2-3.5.3-6.3.3ZM237.2,233.9c-1.9,0-2.6.8-2.6,2.8s.1,2.5.3,3.4c0,.3,0,.4-.3.4l-1.2.2c-.3,0-.4,0-.5-.3-.3-1.3-.3-2.4-.3-4.1,0-2.8,1.5-4.4,4.2-4.4s4.1,0,6.1.3c.3,0,.4.2.4.5v1.1c0,.3-.2.5-.4.4-1.8-.2-3.6-.3-5.7-.3ZM227.1,241c0-1.3-.8-1.8-2.9-1.8s-1.5,0-2.5,0-.4-.1-.4-.4v-1c0-.3.1-.4.4-.4h.6c-.7-.6-1.1-1.5-1.1-2.6,0-1.7,1.1-2.6,3.3-2.6s2.4,0,3.7.2c.3,0,.4.2.4.4v1.2c0,.3-.2.4-.4.4-1.4-.2-2.5-.3-3.2-.3-1.2,0-1.7.5-1.7,1.6s.5,1.6,1.6,1.6c2.9,0,4.3,1.2,4.3,3.6s-1.4,3.8-4.3,3.8-2.5-.2-3.9-.7c-.3-.1-.4-.3-.3-.6l.3-1.1c0-.2.2-.3.3-.3s.1,0,.2,0c1,.5,2.1.7,3,.7,1.9,0,2.6-.5,2.6-1.8ZM218.9,246.5c0,.3-.2.5-.5.5h-1.1c-.3,0-.5-.2-.5-.5v-15c0-.3.2-.5.5-.5h1.1c.3,0,.5.2.5.5v15ZM206.3,236c0-2.8,1-3.9,3.5-3.9s2.6.1,3.9.3c.3,0,.4.2.4.5v1c0,.3-.2.5-.5.5-1.2-.2-2.2-.3-3.5-.3s-1.8.5-1.8,2.1c0,2.6.2,5.2.7,7.8,0,.3-.1.5-.5.5h-1.2c-.3,0-.4-.1-.5-.4-.4-2.6-.7-5.2-.7-8.1ZM202.2,239.9c0-.4-.2-.6-.6-.6h-1.2c-.3,0-.4-.1-.4-.4v-1.1c0-.3.1-.4.4-.4h1.1c.4,0,.6.1.7.4v-6.2c0-.3.2-.5.5-.5h1.1c.3,0,.5.2.5.5v15c0,.3-.2.5-.5.5h-1.1c-.3,0-.5-.2-.5-.5v-6.6ZM192,236.9c0,2.6-1.5,4-4.4,4s-4.5,0-6.3-.3c-.3,0-.4-.2-.4-.4v-1.1c0-.3.3-.5.5-.4,1.7.2,3.9.3,6.3.3s2.3-.7,2.3-2,0-3.1-.1-4.4c0-.3.1-.5.4-.5h1.1c.3,0,.5.2.5.5,0,1.2.1,3,.1,4.4ZM193.5,243.8v1c0,.3-.1.4-.4.5-1.4.2-3.5.3-6.3.3s-5.1-.1-6.4-.3c-.3,0-.5-.2-.5-.5v-1c0-.3.2-.5.5-.4,1.4.2,3.8.3,6.3.3s4.6-.1,6.3-.3c.3,0,.5.1.5.4ZM177.8,239.5v1c0,.3-.1.4-.4.5-1.1.1-3,.2-6.3.2-2.5,0-5.1,0-6.4-.2-.3,0-.4-.2-.4-.5v-1c0-.3.2-.5.5-.4,1.3.1,3.4.2,6.3.2s4.6,0,6.3-.2c.3,0,.5.1.5.4ZM165.9,238c-.3,0-.4-.1-.4-.4v-1c0-.3.1-.4.4-.4,2.4,0,4.1-1.3,4.1-3.2v-.9c0-.3.2-.5.5-.5h1.1c.3,0,.5.2.5.5v.9c0,1.9,1.7,3.2,4.1,3.2s.5.1.5.4v1c0,.3-.1.4-.5.4-2.2.1-4.3-1-5.1-2.6-.8,1.6-2.9,2.7-5.1,2.6ZM176.6,244c0,2.1-1.4,3.3-3.8,3.3s-5.6-.1-7.4-.3c-.3,0-.4-.2-.4-.4v-1c0-.3.3-.5.5-.4,2.1.2,4.2.3,7.4.3s1.7-.5,1.7-1.5,0-.9-.1-1.3c0-.3.1-.5.4-.5h1.1c.3,0,.5.2.5.5,0,.4.1.8.1,1.4ZM148.7,231h1.1c.3,0,.4.1.4.4v5.9s1,0,1,0c.3,0,.5.1.6.3v-6c0-.3.1-.4.4-.4h1.1c.3,0,.4.1.4.4v14.9c0,.3-.1.4-.4.4h-1.1c-.3,0-.4-.1-.4-.4v-6.7c0-.4-.1-.5-.5-.5h-1.1s0,7.2,0,7.2c0,.3-.1.4-.4.4h-1.1c-.3,0-.4-.1-.4-.4v-15c0-.3.1-.4.4-.4ZM159,235.6c2.2,0,3.4,1.6,3.4,4.4s-1.2,4.4-3.4,4.4-3.4-1.6-3.4-4.4,1.2-4.4,3.4-4.4ZM158,232.2v-1.2c0-.3.1-.4.4-.4h1.1c.3,0,.4.1.4.4v1c0,.2-.1.4-.3.5h2.8c.3,0,.4.1.4.4v1.1c0,.3-.1.4-.4.4h-7c-.3,0-.4-.1-.4-.4v-1.1c0-.3.1-.4.4-.4h2.1c.3,0,.4,0,.4-.3ZM157.6,240.1c0,1.7.5,2.5,1.4,2.5s1.4-.8,1.4-2.5-.5-2.4-1.4-2.4-1.4.8-1.4,2.4ZM142.8,234.1v4.3c0,2.1,1.3,3.9,2.8,4.1.3,0,.4.2.4.5v1.1c0,.3-.1.4-.5.4-1.7-.2-3.3-1.6-3.8-3.3-.4,1.7-2,3-3.8,3.3-.3,0-.4-.1-.4-.4v-1.1c0-.3.1-.4.4-.5,1.5-.2,2.8-2.1,2.8-4.1v-4.3s-2.7,0-2.7,0c-.3,0-.5-.1-.5-.4v-1.1c0-.3.1-.4.5-.4h7.4c.3,0,.4.1.4.4v1.1c0,.3-.1.4-.4.4h-2.6ZM135.4,246.5c0,.3-.2.5-.5.5h-1.1c-.3,0-.5-.2-.5-.5v-15c0-.3.2-.5.5-.5h1.1c.3,0,.5.2.5.5v15ZM129.3,234.8c0,2.1-1.3,3.3-3.7,3.3s-5.3-.1-7.1-.3c-.3,0-.4-.2-.4-.4v-1c0-.3.3-.5.5-.4,2.1.2,4,.3,6.8.3s1.7-.5,1.7-1.5,0-2-.1-2.8c0-.3.1-.5.4-.5h1.1c.3,0,.5.2.5.5,0,.8.1,2.2.1,2.9ZM129.5,244c0,2.1-1.4,3.3-3.8,3.3s-5.6-.1-7.4-.3c-.3,0-.5-.2-.4-.4v-1c0-.3.3-.5.5-.4,2.1.2,4.2.3,7.4.3s1.7-.5,1.7-1.5,0-.9-.1-1.3c0-.3.1-.5.4-.5h1.1c.3,0,.5.2.5.5,0,.4.1.8.1,1.4ZM130.7,239.5v1c0,.3-.1.4-.5.5-1.1.1-3,.2-6.3.2-2.5,0-5.1,0-6.4-.2-.3,0-.5-.2-.5-.5v-1c0-.3.2-.5.5-.4,1.3.1,3.4.2,6.3.2s4.6,0,6.3-.2c.3,0,.5.1.5.4ZM101.4,242.8c0,.4-.2.7-.5.8,1.1,0,2.7,0,3.5,0,.4,0,.6-.2.6-.6v-2.3c-.6.1-1.3.2-2,.2s-1.2,0-1.7-.1v2ZM106.7,236.4c0-1.7-1.2-2.7-3.5-2.7s-3.5.9-3.5,2.7,1.2,2.7,3.5,2.7,3.5-1,3.5-2.7ZM107.1,239.9c0,0,0,.1,0,.2v2.9c0,.3-.2.6-.4.8.9,0,1.8-.2,2.8-.3.3,0,.5.1.5.4v1c0,.3-.1.4-.4.5-1.4.2-3.5.3-6.3.3s-5.1-.1-6.4-.3c-.3,0-.4-.2-.4-.5v-1c0-.3.2-.5.5-.4.3,0,1.2.2,1.8.2s.6-.2.6-.6v-2.9c-1.2-.8-1.8-2-1.8-3.7,0-2.9,2.1-4.6,5.6-4.6s5.6,1.7,5.6,4.6-.6,2.7-1.6,3.5ZM81.8,242.9c0-1.1.8-1.8,2-1.8h8.5c.5,0,.8.3.8.8v3.6c0,1-.7,1.5-1.8,1.5h-9.3c-.3,0-.4-.1-.4-.4v-1c0-.3.1-.4.4-.4h1.1c-.8-.4-1.3-1.3-1.3-2.3ZM87.5,235c-.8,1.3-2.9,2.4-5.1,2.2-.3,0-.4-.1-.4-.4v-1c0-.3.1-.4.4-.4,2.4,0,3.9-.9,4.1-2h-3.8c-.3,0-.5-.1-.5-.4v-1c0-.3.1-.4.5-.4h9.7c.3,0,.5.1.5.4v1c0,.3-.1.4-.5.4h-3.8c.1,1.2,1.7,2,4.1,2s.4.1.4.4v1c0,.3-.1.4-.4.4-2.2.1-4.3-1-5.1-2.3ZM94.4,238.6v1c0,.3-.1.4-.4.5-1.1.1-3,.2-6.3.2-2.5,0-5.1,0-6.4-.2-.3,0-.5-.2-.5-.5v-1c0-.3.2-.5.5-.4,1.3.1,3.4.2,6.3.2s4.6,0,6.3-.2c.3,0,.5.1.5.4ZM90.4,245.2c.4,0,.7-.2.7-.5v-1.3c0-.3-.1-.4-.4-.4h-5.8c-.6,0-1,.3-1,.8,0,.8.6,1.4,1.4,1.4h5.1ZM78.7,246.1c0,.7-.4,1.2-1.1,1.3.1.3.3.4.7.4s.2,0,.2.2v.4c0,.1,0,.2-.2.2-1.4,0-2.3-.9-2.3-2.3s.5-1.4,1.4-1.4,1.3.5,1.3,1.3ZM323.9,271.9c0,2.1-1.5,3.3-4,3.3s-5.3-.1-7.1-.3c-.3,0-.5-.2-.4-.4v-1c0-.3.3-.5.5-.4,2.1.2,3.9.3,7.1.3s1.8-.6,1.8-1.7,0-1.4-.1-1.8.2-.5.5-.5h1.1c.3,0,.5.2.5.5,0,.4.1,1.2.1,2ZM315,269.6c0,.3-.2.5-.5.5h-1.1c-.3,0-.5-.2-.5-.5v-10.1c0-.3.2-.5.5-.5h1.1c.3,0,.5.2.5.5v10.1ZM321.4,259.3c2.4,0,4,1.7,4,4.4s-1.6,4.4-4,4.4-4-1.7-4-4.4,1.6-4.4,4-4.4ZM321.4,266.1c1.2,0,2-1,2-2.5s-.8-2.5-2-2.5-2,1-2,2.5.8,2.5,2,2.5ZM304.8,267.8h-1.2c-.3,0-.5-.1-.5-.4-.4-1.4-.7-3.4-.7-4.5,0-2.5,1-3.5,3.5-3.5s2.6.1,4,.3c.3,0,.4.2.4.5v1c0,.3-.2.5-.5.5-1.2-.2-1.9-.3-3.9-.3s-1.5.5-1.5,1.5.3,3,.7,4.4c0,.3,0,.5-.4.5ZM298.3,265.8c0-.4-.2-.6-.6-.6h-1.2c-.3,0-.5-.1-.5-.4v-1c0-.3.1-.4.5-.4h1.1c.4,0,.6.1.7.4v-4.2c0-.3.2-.5.5-.5h1.1c.3,0,.5.2.5.5v10.1c0,.3-.2.5-.5.5h-1.1c-.3,0-.5-.2-.5-.5v-3.8ZM309,271.9c0,2.1-1.5,3.3-4,3.3s-5-.1-6.7-.3c-.3,0-.5-.2-.4-.4v-1c0-.3.3-.5.5-.4,2.1.2,3.7.3,6.7.3s1.8-.6,1.8-1.7,0-1.4-.1-1.8.2-.5.5-.5h1.1c.3,0,.5.2.5.5,0,.4.1,1.2.1,2ZM287.9,273.6c-2.8,0-5.1-.1-6.4-.3-.3,0-.5-.2-.5-.5v-1c0-.3.2-.5.5-.4,1.2.2,3.1.3,4.6.3s.6-.2.6-.6v-2.3s-2,0-2,0c-1.3,0-2.2-.7-2.2-1.9l-.3-6.5c0-.3.2-.5.5-.5h1.1c.3,0,.4.2.5.5v1.8c0,0,6.8,0,6.8,0v-1.8c0-.3.3-.5.5-.5h1.1c.3,0,.5.2.5.5l-.3,6.5c0,1.2-.9,1.9-2.2,1.9h-2s0,2.1,0,2.1c0,.4-.2.6-.4.8,2,0,4.4-.2,5.7-.3.3,0,.5.1.5.4v1c0,.3-.1.4-.5.5-1.3.2-3.5.3-6.3.3ZM284.5,264.1v2c0,.5.4.7.9.7h4.9c.5,0,.8-.3.8-.7v-2c0,0-6.6,0-6.6,0ZM273.9,262.1c-.9,0-1.5,0-2.3.2-.3,0-.5-.1-.5-.5v-1.1c0-.3.1-.4.5-.5.7-.1,1.3-.1,2.4-.1,3.4,0,5,1.9,5,6.3s-1.6,6.3-4.9,6.3-2.2-.3-3.3-.7c-.4-.1-.5-.3-.4-.6l.3-1c0-.3.2-.4.3-.4s.1,0,.2,0c1.1.5,2,.7,2.7.7,2,0,2.9-1.4,2.9-4.3s-.8-4.3-3.1-4.3ZM267,267.9c0-.4-.2-.6-.6-.6h-1.2c-.3,0-.4-.1-.4-.5v-1.1c0-.3.1-.5.4-.5h1.1c.4,0,.6.1.7.4v-6.2c0-.3.2-.5.5-.5h1.1c.3,0,.5.2.5.5v15c0,.3-.2.5-.5.5h-1.1c-.3,0-.5-.2-.5-.5v-6.6ZM253.2,262.1c-.9,0-1.5,0-2.3.2-.3,0-.5-.1-.5-.5v-1.1c0-.3.1-.4.5-.5.7-.1,1.3-.1,2.4-.1,3.4,0,5,1.9,5,6.3s-1.6,6.3-4.9,6.3-2.2-.3-3.3-.7c-.4-.1-.5-.3-.4-.6l.3-1c0-.3.2-.4.3-.4s.1,0,.2,0c1.1.5,2,.7,2.7.7,2,0,2.9-1.4,2.9-4.3s-.8-4.3-3.1-4.3ZM248,264.7c0,.4.2.6.6.6h2.7c.3,0,.4.1.4.5v1.1c0,.3-.1.5-.4.5h-2.6c-.4,0-.6-.1-.7-.4v7.6c0,.3-.2.5-.5.5h-1.1c-.3,0-.5-.2-.5-.5v-15c0-.3.2-.5.5-.5h1.1c.3,0,.5.2.5.5v5.2ZM237,271.9c0,2.1-1.5,3.3-4,3.3s-5.3-.1-7.1-.3c-.3,0-.4-.2-.4-.4v-1c0-.3.3-.5.5-.4,2.1.2,3.9.3,7.1.3s1.8-.6,1.8-1.7,0-1.4-.1-1.8c0-.3.2-.5.5-.5h1.1c.3,0,.5.2.5.5,0,.4.1,1.2.1,2ZM228,269.6c0,.3-.2.5-.5.5h-1.1c-.3,0-.5-.2-.5-.5v-10.1c0-.3.2-.5.5-.5h1.1c.3,0,.5.2.5.5v10.1ZM234.5,259.3c2.4,0,4,1.7,4,4.4s-1.6,4.4-4,4.4-4.1-1.7-4.1-4.4,1.6-4.4,4.1-4.4ZM234.5,266.1c1.2,0,2-1,2-2.5s-.8-2.5-2-2.5-2,1-2,2.5.8,2.5,2,2.5ZM217.8,267.8h-1.2c-.3,0-.5-.1-.5-.4-.4-1.4-.7-3.4-.7-4.5,0-2.5,1-3.5,3.5-3.5s2.6.1,4,.3c.3,0,.4.2.4.5v1c0,.3-.2.5-.5.5-1.2-.2-1.9-.3-3.9-.3s-1.5.5-1.5,1.5.3,3,.7,4.4c0,.3,0,.5-.4.5ZM211.4,265.8c0-.4-.2-.6-.6-.6h-1.2c-.3,0-.5-.1-.5-.4v-1c0-.3.1-.4.5-.4h1.1c.4,0,.6.1.7.4v-4.2c0-.3.2-.5.5-.5h1.1c.3,0,.5.2.5.5v10.1c0,.3-.2.5-.5.5h-1.1c-.3,0-.5-.2-.5-.5v-3.8ZM222,271.9c0,2.1-1.5,3.3-4,3.3s-5-.1-6.7-.3c-.3,0-.5-.2-.4-.4v-1c0-.3.3-.5.5-.4,2.1.2,3.7.3,6.7.3s1.8-.6,1.8-1.7,0-1.4-.1-1.8c0-.3.2-.5.5-.5h1.1c.3,0,.5.2.5.5,0,.4.1,1.2.1,2ZM202.7,260.2v-1.2c0-.3.1-.5.4-.5h1.2c.3,0,.4.1.4.5v1c0,.2-.1.4-.3.5h3c.3,0,.4.1.4.5v1.1c0,.3-.1.5-.4.5h-2.6s0,3.9,0,3.9c0,2.1,1.3,3.9,2.8,4.1.3,0,.4.2.4.5v1.1c0,.3-.1.5-.4.4-1.7-.2-3.3-1.6-3.8-3.3-.4,1.7-2,3-3.8,3.3-.3,0-.4-.1-.4-.4v-1.1c0-.3.1-.5.4-.5,1.5-.2,2.8-2.1,2.8-4.1v-3.9s-2.7,0-2.7,0c-.3,0-.5-.1-.5-.5v-1.1c0-.3.1-.5.5-.5h2.2c.3,0,.4,0,.4-.3ZM197.4,264.9c0,.4.2.6.6.6h2c.3,0,.4.1.4.5v1.1c0,.3-.1.5-.4.5h-1.9c-.4,0-.6-.1-.7-.4v7.4c0,.3-.2.5-.5.5h-1.1c-.3,0-.5-.2-.5-.5v-15c0-.3.2-.5.5-.5h1.1c.3,0,.5.2.5.5v5.3ZM188.8,273.2c.4,0,.7-.2.7-.6v-1.4c0-.3-.2-.4-.4-.4h-5.5c-.8,0-1.2.2-1.2.9s.7,1.5,1.6,1.5h4.9ZM184.6,266.4l.3-1c0-.2.2-.3.3-.3s.1,0,.2,0c.9.3,2,.6,2.9.6,2,0,2.5-.1,2.5-.7s-.6-.8-2.9-.8-1.4,0-2.3,0c-.3,0-.4-.1-.4-.4v-.9c0-.3.1-.4.4-.4h.4c-.6-.4-1-.9-1-1.6,0-1.2.8-1.6,3.1-1.6,1.5,0,2.5,0,3.7.2.3,0,.4.2.4.5v1c0,.3-.2.4-.5.4-1.4-.2-2.6-.3-3.3-.3-1.1,0-1.4.1-1.4.6s.4.6,1.3.6c3.3,0,4.4.7,4.4,2.6s-1.2,2.6-4.2,2.6-2.9-.3-3.8-.6c-.3-.1-.4-.3-.3-.6ZM180.3,270.8c0-1.3.8-1.9,2.2-1.9h8.3c.5,0,.8.3.8.8v3.8c0,1-.7,1.6-1.9,1.6h-9.3c-.3,0-.4-.1-.4-.5v-1c0-.3.1-.4.4-.4h1.3c-.9-.5-1.5-1.4-1.5-2.4ZM182.5,261.5c0,.4.2.6.6.6h.9c.3,0,.4.1.4.5v1c0,.3-.1.4-.4.4h-.8c-.4,0-.6-.1-.7-.4v3.5c0,.3-.2.5-.5.5h-1.1c-.3,0-.5-.2-.5-.5v-7.6c0-.3.2-.5.5-.5h1.1c.3,0,.5.2.5.5v2ZM159.3,259h1.1c.3,0,.4.1.4.4v5.9s1,0,1,0c.3,0,.5.1.6.3v-6c0-.3.1-.5.5-.5h1.1c.3,0,.4.1.4.5v14.9c0,.3-.1.5-.4.5h-1.1c-.3,0-.5-.1-.5-.5v-6.7c0-.4-.1-.5-.5-.5h-1.1s0,7.2,0,7.2c0,.3-.1.5-.4.5h-1.1c-.3,0-.4-.1-.4-.5v-15c0-.3.1-.4.4-.4ZM168.3,262.1c-.7,0-1.1,0-1.7.2-.3,0-.5-.1-.5-.5v-1.1c0-.3,0-.4.5-.5.5-.1,1-.1,1.9-.1,3.1,0,4.6,2,4.6,6.3s-1.5,6.3-4.4,6.3-1.9-.2-2.7-.5c-.3-.1-.4-.3-.3-.6l.2-1.1c0-.2.2-.3.3-.3s.1,0,.2,0c.8.3,1.5.5,2.1.5,1.7,0,2.6-1.4,2.6-4.3s-.7-4.3-2.8-4.3ZM142.8,259h1.1c.3,0,.5.1.5.4v5.9s1,0,1,0c.3,0,.5.1.6.3v-6c0-.3.1-.5.4-.5h1.1c.3,0,.4.1.4.5v14.9c0,.3-.1.5-.4.5h-1.1c-.3,0-.4-.1-.4-.5v-6.7c0-.4-.1-.5-.5-.5h-1.1s0,7.2,0,7.2c0,.3-.1.5-.5.5h-1.1c-.3,0-.5-.1-.5-.5v-15c0-.3.1-.4.5-.4ZM153.1,263.6c2.2,0,3.4,1.6,3.4,4.4s-1.2,4.4-3.4,4.4-3.4-1.6-3.4-4.4,1.2-4.4,3.4-4.4ZM152.1,260.2v-1.2c0-.3.1-.5.4-.5h1.1c.3,0,.4.1.4.5v1c0,.2-.1.4-.3.5h2.8c.3,0,.5.1.5.5v1.1c0,.3-.1.5-.5.5h-7c-.3,0-.5-.1-.5-.5v-1.1c0-.3.1-.5.5-.5h2.1c.3,0,.4,0,.4-.3ZM151.7,268.1c0,1.7.5,2.5,1.4,2.5s1.4-.8,1.4-2.5-.4-2.4-1.4-2.4-1.4.8-1.4,2.4ZM137.8,259.4c.3,0,.4.1.4.4v1.1c0,.3-.1.4-.4.4h-3.8c0,2.1,1.7,3.5,4.1,3.5s.5.1.5.4v1.1c0,.4-.3.4-.6.4-2.1,0-4.1-1.2-4.9-2.9-.8,1.7-2.8,2.9-4.9,2.9s-.6,0-.6-.4v-1.1c0-.3.1-.4.4-.4,2.4,0,4-1.5,4.1-3.5h-3.8c-.3,0-.5-.1-.5-.4v-1.1c0-.3.1-.4.5-.4h9.7ZM126.7,270.3c-.3,0-.4-.2-.4-.5v-1c0-.3.2-.4.5-.4,1.4.2,3.8.3,6.3.3s4.6-.1,6.3-.3c.3,0,.5.1.5.4v1c0,.3-.1.5-.4.5-1.3.2-3.8.3-5.8.3.3.1.5.4.5.8v2.5c0,.3-.2.5-.5.5h-1.1c-.3,0-.5-.2-.5-.5v-2.7c0-.4-.2-.6-.6-.6-1.5,0-3.5-.1-4.7-.3ZM122.7,262.8c0,2.1-1.3,3.3-3.7,3.3s-5.3-.1-7.1-.3c-.3,0-.5-.2-.4-.4v-1c0-.3.3-.5.5-.4,2.1.2,4,.3,6.8.3s1.7-.5,1.7-1.5,0-2-.1-2.8c0-.3.1-.5.4-.5h1.1c.3,0,.5.2.5.5,0,.8.1,2.2.1,2.9ZM122.9,272c0,2.1-1.4,3.3-3.8,3.3s-5.6-.1-7.4-.3c-.3,0-.4-.2-.4-.4v-1c0-.3.3-.5.5-.4,2.1.2,4.2.3,7.4.3s1.7-.5,1.7-1.5,0-.9-.1-1.3c0-.3.1-.5.4-.5h1.1c.3,0,.5.2.5.5,0,.4.1.8.1,1.4ZM124.2,267.5v1c0,.3-.1.5-.4.5-1.1.1-3,.2-6.3.2-2.5,0-5.1,0-6.4-.2-.3,0-.4-.2-.4-.5v-1c0-.3.2-.5.5-.4,1.3.1,3.4.2,6.3.2s4.6,0,6.3-.2c.3,0,.5.1.5.4ZM324.9,290.1l-.3,8.3c.4,0,.8,0,1.2-.1.3,0,.5.1.5.5v1.1c0,.3-.1.4-.5.5-.9.1-2.3.2-3.6.2s-2.9-.1-3.6-.2c-.3,0-.5-.1-.5-.5v-1.1c0-.3.1-.5.5-.5.3,0,.7,0,1.2.1l-.3-8.3h-.6c-.3,0-.5-.1-.5-.4v-1.1c0-.3.1-.4.5-.4h6.8c.3,0,.4.1.4.4v1.1c0,.3-.1.4-.4.4h-.6ZM319,293.7v1.1c0,.3-.1.5-.5.5h-1.5c-.3,0-.5-.1-.6-.3v7.6c0,.3-.1.5-.5.5h-1.1c-.3,0-.4-.1-.4-.5v-14.9c0-.3.1-.5.4-.5h1.1c.3,0,.5.1.5.5v5.1c0,.4.1.5.5.5h1.5c.3,0,.5.1.5.5ZM311.8,287h1.1c.3,0,.5.1.5.4v15c0,.3-.1.5-.5.5h-1.1c-.3,0-.5-.1-.5-.5v-15c0-.3.1-.4.5-.4ZM322.9,290.1h-1.7s.3,8.4.3,8.4h1.1s.3-8.4.3-8.4ZM305,288c2.8,0,4,2,4,6.4s-1.3,6.5-4,6.5-4-2-4-6.5,1.2-6.4,4-6.4ZM303,294.4c0,3.2.6,4.5,2,4.5s2-1.3,2-4.5-.6-4.5-2-4.5-2,1.3-2,4.5ZM298.5,302.5c0,.3-.2.5-.5.5h-1.1c-.3,0-.5-.2-.5-.5v-15c0-.3.2-.5.5-.5h1.1c.3,0,.5.2.5.5v15ZM282.1,296.7c-.3,0-.6,0-.6-.5v-1.1c0-.3.1-.4.4-.4,2.4,0,4.1-1.6,4.1-3.8v-2.5c0-.3.2-.5.5-.5h1.1c.3,0,.5.2.5.5v2.5c0,2.2,1.7,3.8,4.1,3.8s.5.1.5.4v1.1c0,.5-.3.5-.6.5-2.1,0-4.2-1.2-4.9-3-.8,1.8-2.8,3-4.9,3ZM293.9,299.8v1c0,.3-.1.4-.5.5-1.4.2-3.5.3-6.3.3s-5.1-.1-6.4-.3c-.3,0-.4-.2-.4-.5v-1c0-.3.2-.5.5-.4,1.4.2,3.8.3,6.3.3s4.6-.1,6.3-.3c.3,0,.5.1.5.4ZM271.2,299.4l.3-1c0-.2.2-.3.4-.3s.2,0,.3,0c.8.4,1.6.6,2.3.6,1.4,0,2.2-.8,2.2-2.5s-.7-2.6-2.6-2.6-.8,0-1.7.1c-.3,0-.4-.1-.4-.4v-1c0-.3.1-.5.4-.5.7-.1,1.2-.2,2-.2,3,0,4.4,1.4,4.4,4.6s-1.4,4.5-4,4.5-2.1-.3-3.2-.7c-.3-.1-.4-.3-.3-.6ZM271.7,295.2v1.1c0,.3-.1.5-.4.5h-1.2c-.3,0-.5-.1-.6-.3v6.1c0,.3-.1.5-.5.5h-1.1c-.3,0-.5-.1-.5-.5v-14.9c0-.3.1-.5.5-.5h1.1c.3,0,.5.1.5.5v6.6c0,.4.1.5.5.5h1.3c.3,0,.4.1.4.5ZM264.7,287h1.1c.3,0,.4.1.4.4v15c0,.3-.1.5-.4.5h-1.1c-.3,0-.5-.1-.5-.5v-15c0-.3.1-.4.5-.4ZM271.9,290.1c-.3,0-.5-.1-.5-.4v-1.1c0-.3.1-.4.5-.4h6.1c.3,0,.4.1.4.4v1.1c0,.3-.1.4-.4.4h-6.1ZM254.1,289.9c-1.9,0-2.6.7-2.6,2.7,2.9,0,6.2.1,8.1.3.3,0,.4.2.4.5v1.1c0,.3-.1.5-.4.4-2-.2-5.3-.3-8-.3,0,.6.1,1.2.2,1.7,0,.3,0,.4-.3.5l-1.2.2c-.3,0-.4,0-.5-.3-.3-1.3-.3-2.6-.3-4.3,0-2.8,1.5-4.4,4.2-4.4s4.1,0,6.1.3c.3,0,.4.2.4.5v1.1c0,.3-.2.5-.4.4-1.8-.2-3.6-.3-5.7-.3ZM261.7,299.8v1c0,.3-.1.4-.5.5-1.3.2-3.5.3-6.3.3s-5.1-.1-6.4-.3c-.3,0-.5-.2-.5-.5v-1c0-.3.2-.5.5-.4,1.4.2,3.8.3,6.3.3s4.6-.1,6.3-.3c.3,0,.5.1.5.4ZM233.1,292c0-2.8,1-3.9,3.5-3.9s2.6.1,3.9.3c.3,0,.4.2.4.5v1c0,.3-.2.5-.5.5-1.2-.2-2.2-.3-3.5-.3s-1.8.5-1.8,2.1c0,2.6.2,5.2.7,7.8,0,.3-.1.5-.5.5h-1.2c-.3,0-.4-.1-.5-.4-.4-2.6-.7-5.2-.7-8.1ZM230.7,302.5c0,.3-.2.5-.5.5h-1.1c-.3,0-.5-.2-.5-.5v-15c0-.3.2-.5.5-.5h1.1c.3,0,.5.2.5.5v15ZM213.2,302.5v-.8c0-.3.2-.4.5-.4,1.3.2,3.4.3,4.8.3,3.7,0,4.4,0,4.4-.6s-.4-.6-3.4-.6-4.2,0-5.3,0c-.3,0-.4-.1-.4-.4v-.7c0-.3.1-.4.4-.4h.6c-.7-.2-1.2-.8-1.2-1.5s.5-1.3,1.7-1.3c.8,0,1.9,0,3.1,0v-.5c0-.3-.1-.5-.4-.5-1.4,0-3.6,0-4.9-.2-.3,0-.4-.2-.4-.5v-.9c0-.3.2-.4.4-.4,1.3.1,3.9.2,6.4.2,3.3,0,5.2,0,6.3-.2.3,0,.4.1.4.4v.9c0,.3-.1.4-.4.4-1.4.1-3.8.2-5.6.2.1,0,.2.3.2.5v.5c1.3,0,2.6.1,3.8.2.3,0,.4.1.4.4v.8c0,.3-.1.4-.4.4-2-.1-5.9-.3-7.7-.3s-.8.2-.8.6.2.5.9.5c.9,0,2,0,3,0,4.3,0,5.4.5,5.4,2.2s-1.2,2.3-6.5,2.3-3.5-.1-4.9-.3c-.3,0-.4-.2-.4-.4ZM219.8,287.4c.3,0,.5.2.5.5v.2c0,1.5,1.6,2.8,4.1,2.8s.4.1.4.4v.9c0,.3-.1.4-.4.4-2.1.1-4.3-1.1-5.1-2.4-.8,1.3-3,2.6-5.1,2.4-.3,0-.4-.1-.4-.4v-.9c0-.3,0-.4.4-.4,2.4,0,4.1-1.3,4.1-2.8v-.2c0-.3.2-.5.5-.5h1.1ZM209.2,300c0,2.1-1.4,3.3-3.8,3.3s-5.6-.1-7.4-.3c-.3,0-.4-.2-.4-.4v-1c0-.3.3-.5.5-.4,2.1.2,4.2.3,7.4.3s1.7-.5,1.7-1.5,0-.9-.1-1.3c0-.3.1-.5.4-.5h1.1c.3,0,.5.2.5.5,0,.4.1.8.1,1.4ZM210.4,295.5v1c0,.3-.1.5-.4.5-1.1.1-3,.2-6.3.2-2.5,0-5.1,0-6.4-.2-.3,0-.4-.2-.4-.5v-1c0-.3.2-.5.5-.4,1.3.1,3.4.2,6.3.2s4.6,0,6.3-.2c.3,0,.5.1.5.4ZM203.5,294.1c-3.9,0-5.6-1.1-5.6-3.4s1.7-3.4,5.6-3.4,5.6,1.1,5.6,3.4-1.7,3.4-5.6,3.4ZM207,290.7c0-1.1-.9-1.6-3.5-1.6s-3.5.4-3.5,1.6.9,1.6,3.5,1.6,3.5-.5,3.5-1.6ZM182.9,301.6c-2.8,0-5.1-.1-6.4-.3-.3,0-.5-.2-.5-.5v-1c0-.3.2-.5.5-.4,1.2.2,3.1.3,4.6.3s.6-.2.6-.6v-2.2c0-.3.2-.5.5-.5h1.1c.3,0,.5.2.5.5v2.1c0,.4-.2.6-.4.8,2,0,4.4-.2,5.7-.3.3,0,.5.1.5.4v1c0,.3-.1.4-.5.5-1.3.2-3.5.3-6.3.3ZM177.9,296.7c-.3,0-.6,0-.6-.5v-1.1c0-.3.1-.4.4-.4,2.4,0,4.1-1.6,4.1-3.8v-2.5c0-.3.2-.5.5-.5h1.1c.3,0,.5.2.5.5v2.5c0,2.2,1.7,3.8,4.1,3.8s.4.1.4.4v1.1c0,.5-.3.5-.6.5-2.1,0-4.2-1.2-4.9-3-.8,1.8-2.8,3-4.9,3ZM168.4,294.1v3.7c.1.5.4.7.9.7h1.9c.5,0,.8-.2.8-.7v-3.7c.1,0-3.5,0-3.5,0ZM166.7,288.2h1.1c.3,0,.5.2.5.4v3.5c0,0,3.9,0,3.9,0v-3.5c0-.3.3-.4.6-.4h1.1c.3,0,.5.2.5.5l-.3,9.9c0,1.2-.8,1.9-2.2,1.9h-3.2c-1.4,0-2.2-.7-2.2-1.9l-.3-9.9c0-.3.2-.5.5-.5ZM163.8,302.5c0,.3-.2.5-.5.5h-1.1c-.3,0-.5-.2-.5-.5v-15c0-.3.2-.5.5-.5h1.1c.3,0,.5.2.5.5v15ZM146.4,300.5c-.3,0-.5-.1-.5-.4v-1.1c0-.3.1-.5.4-.5,1.5-.2,2.8-2.1,2.8-4.1v-5.8c0-.3.2-.5.5-.5h1.1c.3,0,.5.2.5.5v5.8c0,2.1,1.3,3.9,2.8,4.1.3,0,.4.2.4.5v1.1c0,.3-.1.5-.4.4-1.7-.2-3.3-1.6-3.8-3.3-.4,1.7-2,3-3.8,3.3ZM143.8,302.5c0,.3-.2.5-.5.5h-1.1c-.3,0-.5-.2-.5-.5v-15c0-.3.2-.5.5-.5h1.1c.3,0,.5.2.5.5v15ZM132.4,303.3c-3.8,0-5.7-1.2-5.7-3.4s1.9-3.4,5.7-3.4,5.7,1.2,5.7,3.4-1.9,3.4-5.7,3.4ZM136.2,289.3v.6c0,1.9,1.2,3.3,2.7,3.3s.4.1.4.5v1c0,.3-.1.5-.4.5-1.9,0-3.3-1.2-3.8-2.6-.5,1.4-1.9,2.6-3.8,2.6s-.4-.1-.4-.5v-1c0-.3.1-.5.4-.5,1.6,0,2.7-1.4,2.7-3.3v-.6s-2.7,0-2.7,0c-.3,0-.4-.1-.4-.4v-1c0-.3.1-.4.4-.4h7.4c.3,0,.4.1.4.4v1c0,.3-.1.4-.4.4h-2.6ZM127.1,292.5c0-.4-.2-.6-.6-.6h-1.2c-.3,0-.5-.1-.5-.4v-1c0-.3.1-.5.5-.5h1.1c.4,0,.6.1.7.4v-2.9c0-.3.2-.5.5-.5h1.1c.3,0,.5.2.5.5v7.6c0,.3-.2.5-.5.5h-1.1c-.3,0-.5-.2-.5-.5v-2.6ZM132.4,298.3c-2.8,0-3.6.6-3.6,1.5s.9,1.5,3.6,1.5,3.6-.6,3.6-1.5-.9-1.5-3.6-1.5ZM116.5,288.9c-2.7,0-3.5.3-3.5,1.1s.8,1.1,3.5,1.1,3.5-.3,3.5-1.1-.8-1.1-3.5-1.1ZM110.5,302.5v-.8c0-.3.2-.4.5-.4,1.4.2,3.4.3,4.8.3,3.7,0,4.4,0,4.4-.6s-.4-.6-3.4-.6-4.2,0-5.3,0c-.3,0-.4-.1-.4-.4v-.7c0-.3.1-.4.4-.4h.6c-.7-.2-1.2-.8-1.2-1.5s.5-1.3,1.7-1.3c2.3,0,6.2,0,8.9.2.3,0,.4.1.4.4v.8c0,.3-.1.4-.4.4-2-.1-5.9-.3-7.7-.3s-.8.2-.8.6.2.5.9.5c.9,0,2,0,3,0,4.3,0,5.4.5,5.4,2.2s-1.2,2.3-6.5,2.3-3.5-.1-4.9-.3c-.3,0-.4-.2-.4-.4ZM116.7,293.6c2.1,0,4.6,0,6.3-.2.3,0,.4.1.4.4v.9c0,.3-.1.4-.4.4-1.1.1-3.1.2-6.4.2-2.5,0-5.1,0-6.4-.2-.3,0-.4-.2-.4-.5v-.9c0-.3.2-.4.4-.4,1.4.1,3.4.2,6.4.2ZM116.5,292.8c-4,0-5.6-.8-5.6-2.8s1.6-2.8,5.6-2.8,5.6.8,5.6,2.8-1.6,2.8-5.6,2.8ZM98.8,301.2c.4,0,.7-.2.7-.6v-1.8c0-.3-.2-.4-.4-.4h-5.5c-.8,0-1.2.3-1.2,1.1s.7,1.7,1.6,1.7h4.9ZM90.3,298.6c0-1.3.8-2.1,2.2-2.1h8.3c.5,0,.8.3.8.8v4.1c0,1-.7,1.6-1.9,1.6h-9.3c-.3,0-.4-.1-.4-.5v-1c0-.3.1-.4.4-.4h1.3c-.9-.5-1.5-1.5-1.5-2.6ZM94.6,294.1l.3-1c0-.3.2-.4.5-.3,1.2.4,2.6.6,3.5.6,1.3,0,1.8-.5,1.8-1.6s-.1-2.1-.4-3.8c0-.3.1-.5.5-.5h1.1c.3,0,.4.1.5.4.3,1.2.4,2.3.4,3.7,0,2.4-1.3,3.7-3.9,3.7s-2.7-.2-3.9-.6c-.3-.1-.5-.3-.4-.6ZM92.5,288.7c0,.4.2.6.6.6h3.1c.3,0,.5.1.5.4v1c0,.3-.1.4-.5.4h-3c-.4,0-.6-.1-.7-.4v3.9c0,.3-.2.5-.5.5h-1.1c-.3,0-.5-.2-.5-.5v-7.2c0-.3.2-.5.5-.5h1.1c.3,0,.5.2.5.5v1.2ZM82.2,294.4c0,3.2.6,4.5,1.9,4.5s1.9-1.3,1.9-4.5-.5-4.5-1.9-4.5-1.9,1.3-1.9,4.5ZM84.1,288c2.8,0,3.9,2,3.9,6.4,0,4.4-1.2,6.5-3.9,6.5s-4-2-4-6.5c0-4.5,1.2-6.4,4-6.4ZM77.5,292.7c0,.4.2.6.6.6h.9c.3,0,.5.1.5.5v1.1c0,.3-.1.5-.5.5h-.8c-.4,0-.6-.1-.7-.4v7.6c0,.3-.2.5-.5.5h-1.1c-.3,0-.5-.2-.5-.5v-15c0-.3.2-.5.5-.5h1.1c.3,0,.5.2.5.5v5.2ZM323.9,327.9c0,2.1-1.5,3.3-4,3.3s-5.3-.1-7.1-.3c-.3,0-.5-.2-.4-.4v-1c0-.3.3-.5.5-.4,2.1.2,3.9.3,7.1.3s1.8-.6,1.8-1.7,0-1.4-.1-1.8.2-.5.5-.5h1.1c.3,0,.5.2.5.5,0,.4.1,1.2.1,2ZM315,325.6c0,.3-.2.5-.5.5h-1.1c-.3,0-.5-.2-.5-.5v-10.1c0-.3.2-.5.5-.5h1.1c.3,0,.5.2.5.5v10.1ZM321.4,315.3c2.4,0,4,1.7,4,4.4s-1.6,4.4-4,4.4-4-1.7-4-4.4,1.6-4.4,4-4.4ZM321.4,322.1c1.2,0,2-1,2-2.5s-.8-2.5-2-2.5-2,1-2,2.5.8,2.5,2,2.5ZM307.7,327.5v2.4c0,.3-.2.5-.5.5h-1.1c-.3,0-.5-.2-.5-.5v-2.5c0-.4-.2-.6-.6-.6-1,0-2.6,0-4,0,.3.1.4.4.4.8v2.3c0,.3-.2.5-.5.5h-1.1c-.3,0-.5-.2-.5-.5v-2.6c0-.4-.2-.5-.6-.6-.4,0-1.1-.1-1.5-.2-.3,0-.5-.2-.5-.5v-1c0-.3.2-.4.5-.4,1.4.2,3.8.3,6.3.3s4.6-.1,6.3-.3c.3,0,.5.1.5.4v1c0,.3-.1.5-.4.5-.8,0-1.7.2-2.6.2.3.1.5.4.5.8ZM298,316.9c0-1,.7-1.5,2.1-1.5,4.3,0,6.5,0,8,.3.3,0,.4.2.4.4v1c0,.3-.2.4-.4.4-1.9-.3-4.1-.3-6.8-.3s-1.1.2-1.1.6.3.5,1.2.5h2.2c4.2,0,5.3.5,5.3,2.4s-1.2,2.6-6.4,2.6-3-.1-4.5-.4c-.2,0-.4-.2-.3-.5l.2-1c0-.3.2-.4.4-.3,1.3.2,2.8.3,4.3.3,3.5,0,4.3,0,4.3-.7s-.6-.7-3.3-.7-3.2,0-4.9,0-.4-.2-.4-.4v-.8c0-.3.1-.4.4-.4h.8c-.9-.3-1.3-.8-1.3-1.7ZM290.5,328c1.7,0,3.1-.1,4.3-.3.3,0,.5,0,.5.4v1.1c0,.3-.1.4-.4.5-1.2.2-2.6.3-4.3.3s-3.4,0-4.6-.3c-.3,0-.4-.2-.4-.5v-1c0-.3.2-.5.5-.4,1.2.2,2.9.3,4.6.3ZM290.5,325.3c-2.5,0-4.1-1.9-4.1-4.9s1.6-4.8,4.1-4.8,4,1.9,4,4.8-1.6,4.9-4,4.9ZM292.4,320.5c0-1.7-.8-2.9-2-2.9s-2,1.2-2,2.9.8,2.9,2,2.9,2-1.2,2-2.9ZM282.3,315.5c0-.3.2-.5.5-.5h1.1c.3,0,.5.2.5.5v15c0,.3-.2.5-.5.5h-1.1c-.3,0-.5-.2-.5-.5v-15ZM265.3,329.3c.4,0,.5-.1.5-.5v-3c0-.3-.2-.4-.6-.4-.7,0-1,.4-1,1.7s.4,2.3,1,2.3ZM268.1,330.5l.2-.9c0-.3.2-.4.5-.3.6.1,1.2.2,1.9.2s1.2-.2,1.2-.7-.3-.6-.9-.6-1.5,0-2.1,0c-.3,0-.4-.1-.4-.4v-.8c0-.3.1-.4.4-.4h.6c-.7-.3-1.1-.8-1.1-1.6,0-1.4,1.1-1.4,2.2-1.4s1.6,0,2.5.2c.3,0,.4.1.4.4v1c0,.3-.1.4-.4.4-.9-.2-1.5-.3-1.9-.3s-.8.2-.8.6.3.6.8.6c1.8,0,2.7.7,2.7,2.3s-1,2.5-3.4,2.5-1.6-.1-2.2-.3c-.3,0-.3-.2-.3-.5ZM267.7,324.5v5.4c0,.8-.5,1.2-1.5,1.2h-3.5c-.3,0-.5-.1-.5-.5v-1c0-.3.1-.4.5-.4h.8c-.6-.5-1.2-1.6-1.2-3s.8-2.5,2.2-2.5h2.4c.5,0,.7.3.7.8ZM270.2,315.4h1.1c.3,0,.5.2.5.5v1.6c0,1.8,1.2,3.2,2.7,3.2s.5.1.5.5v1c0,.3-.1.5-.5.5-1.9,0-3.3-1.2-3.8-2.5-.5,1.3-1.9,2.5-3.8,2.5s-.4-.1-.4-.5v-1c0-.3.1-.5.4-.5,1.6,0,2.7-1.3,2.7-3.2v-1.6c0-.3.2-.5.5-.5ZM262.7,320.1c0-.4-.2-.6-.6-.6h-1.2c-.3,0-.5-.1-.5-.5v-1c0-.3.1-.5.5-.5h1.1c.4,0,.6.1.7.4v-2.5c0-.3.2-.5.5-.5h1.1c.3,0,.5.2.5.5v6.7c0,.3-.2.5-.5.5h-1.1c-.3,0-.5-.2-.5-.5v-2.1ZM252.1,316.9c-2.7,0-3.5.3-3.5,1.1s.8,1.1,3.5,1.1,3.5-.3,3.5-1.1-.8-1.1-3.5-1.1ZM246.1,330.5v-.8c0-.3.2-.4.5-.4,1.4.2,3.4.3,4.8.3,3.7,0,4.4,0,4.4-.6s-.4-.6-3.4-.6-4.2,0-5.3,0c-.3,0-.4-.1-.4-.4v-.7c0-.3.1-.4.4-.4h.6c-.7-.2-1.2-.8-1.2-1.5s.5-1.3,1.7-1.3c2.3,0,6.2,0,8.9.2.3,0,.4.1.4.4v.8c0,.3-.1.4-.4.4-2-.1-5.8-.3-7.7-.3s-.8.2-.8.6.2.5.9.5c.9,0,2,0,3,0,4.3,0,5.4.5,5.4,2.2s-1.2,2.3-6.5,2.3-3.5-.1-4.9-.3c-.3,0-.4-.2-.4-.4ZM252.2,321.6c2.1,0,4.6,0,6.3-.2.3,0,.5.1.5.4v.9c0,.3-.1.4-.4.4-1.1.1-3.1.2-6.4.2-2.5,0-5.1,0-6.4-.2-.3,0-.4-.2-.4-.5v-.9c0-.3.2-.4.5-.4,1.4.1,3.4.2,6.4.2ZM252.1,320.8c-4,0-5.6-.8-5.6-2.8s1.6-2.8,5.6-2.8,5.6.8,5.6,2.8-1.6,2.8-5.6,2.8ZM232.7,322.1v3.7c.1.5.4.7.9.7h1.9c.5,0,.8-.2.8-.7v-3.7c.1,0-3.5,0-3.5,0ZM230.9,316.2h1.1c.3,0,.5.2.5.4v3.5c0,0,3.9,0,3.9,0v-3.5c0-.3.3-.4.6-.4h1.1c.3,0,.5.2.5.5l-.3,9.9c0,1.2-.8,1.9-2.2,1.9h-3.2c-1.4,0-2.2-.7-2.2-1.9l-.3-9.9c0-.3.2-.5.5-.5ZM226.3,323.9c0-.4-.2-.6-.6-.6h-1.2c-.3,0-.5-.1-.5-.5v-1.1c0-.3.1-.5.5-.5h1.1c.4,0,.6.1.7.4v-6.2c0-.3.2-.5.5-.5h1.1c.3,0,.5.2.5.5v15c0,.3-.2.5-.5.5h-1.1c-.3,0-.5-.2-.5-.5v-6.6ZM209.7,330.5v-.9c0-.3.2-.4.5-.4,1.4.2,3.4.3,4.8.3,3.7,0,4.4,0,4.4-.7s-.4-.7-3.4-.7-4.2,0-5.3,0c-.3,0-.4-.1-.4-.4v-.8c0-.3.1-.4.4-.4h.6c-.7-.3-1.2-.9-1.2-1.6s.4-1.4,1.7-1.4c.8,0,1.9,0,3.1,0v-.8c0-.3-.1-.4-.5-.4-1.4,0-3.6,0-4.9-.2-.3,0-.4-.2-.4-.4v-.9c0-.3.2-.4.5-.4.3,0,.6,0,1,0-.2-.8-.3-1.7-.3-2.5,0-1.7,1.1-2.6,3-2.6s1.8.1,2.6.3c.3,0,.4.3.4.5h0c.5-.5,1.3-.8,2.5-.8s1.4.1,2.2.3c.3,0,.4.3.4.5v1c0,.3-.2.4-.5.3-.8-.2-1.5-.3-2-.3s-1.1.3-1.1,1.1.2,1.6.4,2.2c2,0,3.2,0,4.1-.2.3,0,.5.1.5.4v.9c0,.3-.1.4-.4.4-1.4.1-3.8.2-5.6.2.1,0,.2.3.2.4v.9c1.3,0,2.6.1,3.8.2.3,0,.4.1.4.4v.9c0,.3-.1.4-.4.4-2-.1-5.8-.3-7.7-.3s-.8.2-.8.6.2.6.9.6c.9,0,2,0,3,0,4.3,0,5.4.6,5.4,2.3s-1.2,2.4-6.5,2.4-3.5-.1-4.9-.3c-.3,0-.4-.2-.4-.4ZM215.7,318c0-.1,0-.3,0-.4-.7-.2-1.7-.3-2.3-.3s-1.1.3-1.1,1.1.2,1.6.4,2.2c1,0,2.1,0,3.2,0h.2c-.2-.8-.4-1.8-.4-2.6ZM196.7,323.5h-1.2c-.3,0-.4-.1-.5-.4-.3-1.2-.7-3.2-.7-4.2,0-2.4,1-3.4,3.4-3.4s2.5.1,3.9.3c.3,0,.4.2.4.5v1c0,.3-.2.5-.5.5-1.2-.2-1.9-.3-3.8-.3s-1.4.4-1.4,1.4.3,3,.7,4.2c0,.3-.1.5-.5.5ZM191.7,317.7c0,.4.2.6.6.6h.9c.3,0,.5.1.5.5v1c0,.3-.1.5-.5.5h-.8c-.4,0-.6-.1-.7-.4v4.6c0,.3-.2.5-.5.5h-1.1c-.3,0-.5-.2-.5-.5v-8.9c0-.3.2-.5.5-.5h1.1c.3,0,.5.2.5.5v2.2ZM195.2,328.4c-.9,1.7-3.3,2.8-5.4,2.7-.3,0-.5-.1-.5-.5v-1c0-.3.1-.4.5-.4,2.4,0,4.3-1.4,4.3-3.1v-.7c0-.3.2-.5.5-.5h1.1c.3,0,.5.2.5.5v.7c0,1.7,2,3.1,4.4,3.1s.5.1.5.4v1c0,.3-.1.4-.5.5-2.1.1-4.5-1-5.4-2.7ZM183.2,316c2.8,0,4,2,4,6.4s-1.3,6.5-4,6.5-4-2-4-6.5,1.2-6.4,4-6.4ZM181.2,322.4c0,3.2.6,4.5,2,4.5s2-1.3,2-4.5-.6-4.5-2-4.5-2,1.3-2,4.5ZM176.7,330.5c0,.3-.2.5-.5.5h-1.1c-.3,0-.5-.2-.5-.5v-15c0-.3.2-.5.5-.5h1.1c.3,0,.5.2.5.5v15ZM167,318.1c-.9,0-1.5,0-2.3.2-.3,0-.5-.1-.5-.5v-1.1c0-.3.1-.4.5-.5.7-.1,1.4-.1,2.4-.1,3.4,0,5,1.9,5,6.3s-1.6,6.3-4.9,6.3-2.2-.3-3.3-.7c-.4-.1-.5-.3-.4-.6l.3-1c0-.3.2-.4.3-.4s.1,0,.2,0c1.1.5,2,.7,2.7.7,2,0,2.9-1.4,2.9-4.3s-.8-4.3-3.1-4.3ZM160.1,323.9c0-.4-.2-.6-.6-.6h-1.2c-.3,0-.4-.1-.4-.5v-1.1c0-.3.1-.5.4-.5h1.1c.4,0,.6.1.7.4v-6.2c0-.3.2-.5.5-.5h1.1c.3,0,.5.2.5.5v15c0,.3-.2.5-.5.5h-1.1c-.3,0-.5-.2-.5-.5v-6.6ZM155,331.4c-.8,0-1.4-.5-1.4-1.3s.6-1.3,1.4-1.3,1.3.5,1.3,1.3-.6,1.3-1.3,1.3Z"/>
</svg>