<?xml version="1.0" encoding="UTF-8"?>
<svg id="_레이어_1" data-name="레이어_1" xmlns="http://www.w3.org/2000/svg" version="1.1" viewBox="0 0 360 610">
  <!-- Generator: Adobe Illustrator 29.0.1, SVG Export Plug-In . SVG Version: 2.1.0 Build 192)  -->
  <defs>
    <style>
      .st0 {
        fill: #e06644;
      }

      .st1 {
        fill: #f7dd79;
      }
    </style>
  </defs>
  <rect class="st0" y="0" width="360" height="610" rx="16" ry="16"/>
  <path class="st1" d="M323.2,41.4c1.1,0,1.8-.7,1.8-1.9s-.7-1.8-1.8-1.8-1.8.7-1.8,1.8.7,1.9,1.8,1.9ZM314.6,50.3v-.9c0-.3.2-.4.5-.3,1.4.2,3.2.3,4.4.3,3.5,0,4.2,0,4.2-.6s-.5-.6-3.3-.6-3.7,0-4.9,0c-.3,0-.4-.1-.4-.4v-.8c0-.3.1-.4.4-.4h.6c-.7-.2-1.1-.8-1.1-1.5s.5-1.3,1.5-1.4c2.2,0,5.9,0,8.4.2.3,0,.4.1.4.4v.8c0,.3-.1.4-.4.4-1.9-.1-5.5-.2-7.2-.2s-.8.2-.8.6.3.5.9.5c.9,0,1.8,0,2.7,0,3.9,0,5.2.5,5.2,2.2s-1.3,2.3-6.2,2.3-3.1-.1-4.5-.3c-.3,0-.4-.2-.4-.4ZM323.2,36c2.3,0,3.7,1.4,3.7,3.5s-1.5,3.6-3.7,3.6-3.7-1.4-3.7-3.6,1.5-3.5,3.7-3.5ZM317,37.8c0,.4.2.5.6.5h.9c.3,0,.4.1.4.4v.9c0,.3-.1.4-.4.4h-.8c-.3,0-.6-.1-.7-.3v2.7c0,.3-.2.5-.4.5h-1.1c-.3,0-.4-.2-.4-.5v-6.3c0-.3.2-.5.4-.5h1.1c.3,0,.4.2.4.5v1.6ZM303.2,41c.9,0,2,0,3,0,3.1,0,4.9,0,6-.2.3,0,.4.1.4.4v.8c0,.3-.1.4-.4.4-1.3.1-3.6.2-5.3.2.1,0,.2.2.2.4v.8c1.3,0,2.5.1,3.6.2.3,0,.4.1.4.4v.9c0,.3-.1.4-.4.4-1.9-.1-5.5-.2-7.2-.2s-.8.2-.8.6.2.5.9.5c.9,0,1.9,0,2.8,0,4,0,5.1.6,5.1,2.2s-1.2,2.3-6.1,2.3-3.3-.1-4.6-.3c-.3,0-.4-.2-.3-.4v-.9c0-.3.2-.4.5-.3,1.3.2,3.2.3,4.5.3,3.5,0,4.1,0,4.1-.6s-.4-.6-3.2-.6-4,0-5,0c-.2,0-.4-.1-.4-.4v-.8c0-.3.1-.4.4-.4h.6c-.7-.2-1.1-.8-1.1-1.5s.4-1.3,1.6-1.4c.8,0,1.8,0,2.9,0v-.8c0-.3-.1-.4-.4-.4-1.3,0-3.4,0-4.6-.2-.3,0-.4-.2-.4-.4v-.8c0-.3.2-.4.4-.4.3,0,.6,0,1,0-.1-.6-.2-1.2-.2-2,0-2,1.1-2.9,3.5-2.9s4.4.1,6.3.3c.3,0,.4.2.4.4v1c0,.3-.2.4-.4.4-2.1-.2-3.9-.3-6.1-.3s-1.7.4-1.7,1.6.1,1,.2,1.5ZM291.3,37.5c-2.5,0-3.3.3-3.3,1.1s.8,1.1,3.3,1.1,3.3-.3,3.3-1.1-.8-1.1-3.3-1.1ZM285.6,50.3v-.8c0-.3.2-.4.5-.3,1.3.2,3.2.3,4.5.3,3.5,0,4.1,0,4.1-.6s-.4-.6-3.2-.6-4,0-5,0c-.2,0-.4-.1-.4-.4v-.7c0-.3.1-.4.4-.4h.6c-.7-.2-1.1-.8-1.1-1.4s.4-1.2,1.6-1.2c2.2,0,5.8,0,8.4.2.3,0,.4.1.4.4v.8c0,.3-.1.4-.4.4-1.9-.1-5.5-.2-7.2-.2s-.8.2-.8.5.2.5.8.5c.9,0,1.9,0,2.8,0,4,0,5.1.5,5.1,2.1s-1.2,2.2-6.1,2.2-3.3-.1-4.6-.3c-.3,0-.4-.2-.3-.4ZM291.4,41.9c2,0,4.4,0,6-.2.3,0,.4.1.4.4v.8c0,.3-.1.4-.4.4-1,.1-2.9.2-6,.2-2.4,0-4.8,0-6.1-.2-.3,0-.4-.2-.4-.4v-.8c0-.3.2-.4.4-.4,1.3.1,3.2.2,6,.2ZM291.3,41.2c-3.8,0-5.3-.7-5.3-2.6s1.5-2.6,5.3-2.6,5.3.7,5.3,2.6-1.5,2.6-5.3,2.6ZM277,47.9c0,2-1.4,3.2-3.7,3.2s-5-.1-6.7-.3c-.3,0-.4-.2-.4-.4v-.9c0-.3.2-.4.5-.4,2,.2,3.7.3,6.7.3s1.7-.5,1.7-1.6,0-1.3-.1-1.7c0-.3.2-.5.4-.5h1c.3,0,.4.2.5.4,0,.4.1,1.2.1,1.9ZM268.5,45.8c0,.3-.2.5-.4.5h-1.1c-.3,0-.4-.2-.4-.5v-9.6c0-.3.2-.5.4-.5h1.1c.3,0,.4.2.4.5v9.6ZM274.7,36c2.3,0,3.8,1.6,3.8,4.1s-1.5,4.1-3.8,4.1-3.8-1.6-3.8-4.1,1.5-4.1,3.8-4.1ZM274.7,42.5c1.1,0,1.9-.9,1.9-2.4s-.7-2.3-1.9-2.3-1.9.9-1.9,2.3.7,2.4,1.9,2.4ZM252.5,47.8c0-1.9,1-2.7,3.3-2.7s5,.1,6.8.3c.3,0,.4.2.4.4v.9c0,.3-.1.4-.4.4-2.1-.2-4.1-.3-6.6-.3s-1.6.3-1.6,1.4,0,1.6,0,2.2c0,.3-.2.5-.4.5h-1c-.3,0-.5-.2-.5-.4,0-.6,0-1.5,0-2.7ZM259.9,36.1h1.1c.3,0,.4.2.4.5v2c0,1.9,1.1,3.3,2.6,3.3s.4.1.4.4v.9c0,.3-.1.4-.4.4-1.8,0-3.1-1.2-3.6-2.5-.5,1.3-1.8,2.5-3.6,2.5s-.4-.1-.4-.4v-.9c0-.3.1-.4.4-.4,1.5,0,2.6-1.4,2.6-3.3v-2c0-.3.2-.5.4-.5ZM254.4,43.4c0,.3-.2.5-.4.5h-1.1c-.3,0-.4-.2-.4-.5v-7.2c0-.3.2-.5.4-.5h1.1c.3,0,.4.2.4.5v7.2ZM237.3,35.7h1c.3,0,.4.1.4.4v5.5s1,0,1,0c.2,0,.5.1.6.3v-5.7c0-.3.1-.4.4-.4h1c.3,0,.4.1.4.4v14c0,.3-.1.4-.4.4h-1c-.3,0-.4-.1-.4-.4v-6.4c0-.3-.1-.5-.5-.5h-1s0,6.8,0,6.8c0,.3-.1.4-.4.4h-1c-.3,0-.4-.1-.4-.4v-14.2c0-.3.1-.4.4-.4ZM247,40.1c2.1,0,3.2,1.5,3.2,4.2s-1.1,4.2-3.2,4.2-3.2-1.5-3.2-4.2,1.1-4.2,3.2-4.2ZM246.1,36.8v-1.1c0-.3.1-.4.4-.4h1c.3,0,.4.1.4.4v.9c0,.2-.1.4-.3.5h2.6c.3,0,.4.1.4.4v1c0,.3-.1.4-.4.4h-6.6c-.3,0-.4-.1-.4-.4v-1c0-.3.1-.4.4-.4h2c.3,0,.4,0,.4-.3ZM245.7,44.3c0,1.6.4,2.3,1.3,2.3s1.3-.8,1.3-2.3-.4-2.3-1.3-2.3-1.3.8-1.3,2.3ZM222.5,48.5c-.3,0-.4-.1-.4-.4v-1c0-.3.1-.4.4-.5,1.4-.2,2.6-1.9,2.6-3.9v-5.5c0-.3.2-.5.4-.5h1.1c.3,0,.4.2.4.5v5.5c0,2,1.2,3.7,2.6,3.9.3,0,.4.2.4.5v1c0,.3-.1.4-.4.4-1.6-.2-3.1-1.5-3.6-3.1-.4,1.6-1.9,2.9-3.6,3.1ZM218.4,44.1c0-.4-.2-.5-.6-.5h-1.1c-.3,0-.4-.1-.4-.4v-1c0-.3.1-.4.4-.4h1c.3,0,.6.1.7.3v-5.8c0-.3.2-.5.4-.5h1.1c.3,0,.4.2.4.5v14.1c0,.3-.2.5-.4.5h-1.1c-.3,0-.4-.2-.4-.5v-6.2ZM211.7,38.9c0-.8-.9-1.2-3.3-1.2s-3.3.3-3.3,1.2.9,1.2,3.3,1.2,3.3-.3,3.3-1.2ZM206.8,42.2c0,.3-.1.5-.4.6,1.2,0,2.7,0,3.4,0,.3,0,.4-.1.4-.4v-.8c-.5,0-1.2.1-1.9.1s-1.1,0-1.6,0v.5ZM208.4,47c-2.6,0-3.6.3-3.6,1.2s1.1,1.2,3.6,1.2,3.6-.3,3.6-1.2-1-1.2-3.6-1.2ZM202.5,42.6c.6,0,1.3.1,1.9.1s.4-.1.4-.4v-1.1c-1.2-.5-1.7-1.3-1.7-2.4,0-2,1.6-2.9,5.3-2.9s5.3.9,5.3,2.9-.5,1.8-1.5,2.3v1c0,.3-.1.5-.3.6.9,0,1.7,0,2.6-.1.3,0,.5.1.5.4v.9c0,.3-.1.4-.4.5-1,.1-2.9.2-6,.2-2.4,0-4.8,0-6-.2s-.4-.2-.4-.5v-.9c0-.3.2-.4.5-.4ZM208.4,51.1c-3.8,0-5.6-1-5.6-2.9s1.8-2.9,5.6-2.9,5.6.9,5.6,2.9-1.8,2.9-5.6,2.9ZM197.4,38.7v4c0,2,1.2,3.7,2.6,3.9.3,0,.4.2.4.5v1c0,.3-.1.4-.4.4-1.6-.2-3.1-1.5-3.6-3.1-.4,1.6-1.9,2.9-3.6,3.1-.3,0-.4-.1-.4-.4v-1c0-.3.1-.4.4-.5,1.4-.2,2.6-1.9,2.6-3.9v-4s-2.5,0-2.5,0c-.3,0-.4-.1-.4-.4v-1c0-.3.1-.4.4-.4h7c.3,0,.4.1.4.4v1c0,.3-.1.4-.4.4h-2.5ZM188.8,44.1c0-.4-.2-.5-.6-.5h-1.1c-.3,0-.4-.1-.4-.4v-1c0-.3.1-.4.4-.4h1c.3,0,.6.1.7.3v-5.8c0-.3.2-.5.4-.5h1.1c.3,0,.4.2.4.5v14.1c0,.3-.2.5-.4.5h-1.1c-.3,0-.4-.2-.4-.5v-6.2ZM173.1,50.4v-.7c0-.3.2-.4.4-.3,1.2.2,3.2.3,4.5.3,3.7,0,4.1-.1,4.1-.5s-.4-.5-3.2-.5-4.1,0-5,0c-.2,0-.4-.1-.4-.4v-.8c0-.2.1-.2.4-.2h.6c-.7-.2-1.1-.7-1.1-1.4s.4-1.1,1.6-1.1c2.2,0,5.9,0,8.4.2.3,0,.4.1.4.4v.7c0,.3-.1.4-.4.4-1.8-.1-5.4-.2-7.3-.2s-.8.1-.8.4.2.4.9.4c.9,0,1.9,0,2.8,0,4.1,0,5.1.4,5.1,2s-1,2-6.1,2-3.4-.1-4.6-.3c-.3,0-.3-.1-.3-.4ZM178.9,42.6c2,0,4.4,0,6-.2.3,0,.4.1.4.4v.7c0,.3-.1.4-.4.4-1,.1-2.9.2-6,.2-2.4,0-4.9,0-6.1-.2-.3,0-.4-.2-.4-.4v-.7c0-.3.1-.4.4-.4,1.3.1,3.3.2,6.1.2ZM173.9,39.4v-.7c0-.2.1-.3.3-.3h.7c-.7-.2-1.1-.7-1.1-1.3s.4-1,1.6-1c2.2,0,5.4,0,7.9.2.3,0,.3.1.3.3v.7c0,.2,0,.4-.3.3-1.8-.1-4.9-.2-6.8-.2s-.8,0-.8.4.2.4.8.4c.9,0,1.6,0,2.5,0,3.8,0,4.9.3,4.9,1.8s-1,1.8-5.8,1.8-3.2-.1-4.4-.3c-.3,0-.3-.1-.3-.4v-.7c0-.2.2-.3.4-.3,1.2.2,3,.3,4.3.3,3.4,0,3.9,0,3.9-.5s-.4-.4-2.9-.4-3.9,0-4.8,0c-.2,0-.3,0-.3-.3ZM154.2,47.8c0-1.9,1-2.7,3.3-2.7s5,.1,6.8.3c.3,0,.4.2.4.4v.9c0,.3-.1.4-.4.4-2.1-.2-4.1-.3-6.6-.3s-1.6.3-1.6,1.4,0,1.6,0,2.2c0,.3-.2.5-.4.5h-1c-.3,0-.5-.2-.5-.4,0-.6,0-1.5,0-2.7ZM161.5,36.1h1.1c.3,0,.4.2.4.5v2c0,1.9,1.1,3.3,2.6,3.3s.4.1.4.4v.9c0,.3-.1.4-.4.4-1.8,0-3.1-1.2-3.6-2.5-.5,1.3-1.8,2.5-3.6,2.5s-.4-.1-.4-.4v-.9c0-.3.1-.4.4-.4,1.5,0,2.6-1.4,2.6-3.3v-2c0-.3.2-.5.4-.5ZM156.1,43.4c0,.3-.2.5-.4.5h-1.1c-.3,0-.4-.2-.4-.5v-7.2c0-.3.2-.5.4-.5h1.1c.3,0,.4.2.4.5v7.2ZM146.5,39.3v1.4c0,.4.2.5.6.5h2c.4,0,.5-.1.5-.5v-1.4c0,0-3.2,0-3.2,0ZM139.5,50.3v-.9c0-.3.2-.4.5-.3,1.4.2,3.2.3,4.4.3,3.5,0,4.2,0,4.2-.6s-.5-.6-3.3-.6-3.7,0-4.9,0c-.3,0-.4-.1-.4-.4v-.8c0-.3.1-.4.4-.4h.6c-.7-.2-1.1-.8-1.1-1.5s.5-1.3,1.5-1.4c2.2,0,5.9,0,8.4.2.3,0,.4.1.4.4v.8c0,.3-.1.4-.4.4-1.9-.1-5.5-.2-7.2-.2s-.8.2-.8.6.3.5.9.5c.9,0,1.8,0,2.7,0,3.9,0,5.2.5,5.2,2.2s-1.3,2.3-6.2,2.3-3.1-.1-4.5-.3c-.3,0-.4-.2-.4-.4ZM146.5,42.9c-1.2,0-1.8-.6-1.9-1.6l-.3-4.7c0-.3.2-.5.4-.5h1.1c.3,0,.5.1.5.4v1.1h3.5s0-1.1,0-1.1c0-.3.2-.4.5-.4h1.1c.3,0,.5.2.4.5l-.3,4.7c0,1-.7,1.6-1.9,1.6h-3.2ZM142,42.5c0,.3-.2.5-.4.5h-1.1c-.3,0-.4-.2-.4-.5v-6.3c0-.3.2-.5.4-.5h1.1c.3,0,.4.2.4.5v.4c0,.3.1.4.4.4h1c.3,0,.4.1.4.4v.9c0,.3-.1.4-.4.4h-.8c-.3,0-.5-.1-.6-.3v1.3c0,.3.1.4.4.4h1c.3,0,.4.1.4.4v.9c0,.3-.1.4-.4.4h-.8c-.3,0-.5-.1-.6-.3v.9ZM132.1,44.3c0,1.5.7,2.3,1.8,2.3s1.8-.8,1.8-2.3-.6-2.3-1.8-2.3-1.8.8-1.8,2.3ZM133.9,40.1c2.3,0,3.7,1.5,3.7,4.2s-1.4,4.2-3.7,4.2-3.7-1.5-3.7-4.2,1.4-4.2,3.7-4.2ZM126.2,44.1c0-.4-.2-.5-.6-.5h-1.1c-.3,0-.4-.1-.4-.4v-1c0-.3.1-.4.4-.4h1c.3,0,.6.1.7.3v-5.8c0-.3.2-.5.4-.5h1.1c.3,0,.4.2.4.5v14.1c0,.3-.2.5-.4.5h-1.1c-.3,0-.4-.2-.4-.5v-6.2ZM132.8,36.8v-1.1c0-.3.1-.4.4-.4h1.1c.3,0,.4.1.4.4v.9c0,.2-.1.4-.3.5h3.1c.3,0,.4.1.4.4v1c0,.3-.1.4-.4.4h-7.6c-.3,0-.4-.1-.4-.4v-1c0-.3.1-.4.4-.4h2.4c.3,0,.4,0,.4-.3ZM121.4,39.3c0,2-1.2,3.1-3.5,3.1s-5-.1-6.7-.3c-.3,0-.4-.2-.4-.4v-.9c0-.3.2-.4.5-.4,2,.2,3.8.3,6.4.3s1.6-.4,1.6-1.4,0-1.9-.1-2.6c0-.3.1-.5.4-.5h1c.3,0,.5.2.5.4,0,.8.1,2.1.1,2.7ZM121.6,48c0,2-1.3,3.1-3.6,3.1s-5.3-.1-7-.3c-.3,0-.4-.2-.4-.4v-.9c0-.3.2-.4.5-.4,2,.2,3.9.3,7,.3s1.6-.4,1.6-1.4,0-.8-.1-1.2c0-.3.1-.5.4-.5h1c.3,0,.5.2.5.4,0,.3.1.8.1,1.3ZM122.8,43.8v.9c0,.3-.1.4-.4.5-1,.1-2.9.2-6,.2-2.4,0-4.8,0-6-.2-.3,0-.4-.2-.4-.5v-.9c0-.3.2-.4.5-.4,1.3.1,3.2.2,6,.2s4.4,0,5.9-.2c.3,0,.5.1.5.4ZM100.8,37.3c0-.6.4-1.1,1-1.2-.1-.3-.3-.4-.7-.4s-.2,0-.2-.2v-.4c0-.1,0-.2.2-.2,1.3,0,2.2.8,2.2,2.2s-.5,1.4-1.3,1.4-1.3-.5-1.3-1.2ZM95.4,41.4c1.1,0,1.8-.7,1.8-1.9s-.7-1.8-1.8-1.8-1.8.7-1.8,1.8.7,1.9,1.8,1.9ZM86.8,50.3v-.9c0-.3.2-.4.5-.3,1.4.2,3.2.3,4.4.3,3.5,0,4.2,0,4.2-.6s-.5-.6-3.3-.6-3.7,0-4.9,0c-.3,0-.4-.1-.4-.4v-.8c0-.3.1-.4.4-.4h.6c-.7-.2-1.1-.8-1.1-1.5s.5-1.3,1.5-1.4c2.2,0,5.9,0,8.4.2.3,0,.4.1.4.4v.8c0,.3-.1.4-.4.4-1.9-.1-5.5-.2-7.2-.2s-.8.2-.8.6.3.5.9.5c.9,0,1.8,0,2.7,0,3.9,0,5.2.5,5.2,2.2s-1.3,2.3-6.2,2.3-3.1-.1-4.5-.3c-.3,0-.4-.2-.4-.4ZM95.4,36c2.3,0,3.7,1.4,3.7,3.5s-1.5,3.6-3.7,3.6-3.7-1.4-3.7-3.6,1.5-3.5,3.7-3.5ZM89.2,37.8c0,.4.2.5.6.5h.9c.3,0,.4.1.4.4v.9c0,.3-.1.4-.4.4h-.8c-.3,0-.6-.1-.7-.3v2.7c0,.3-.2.5-.4.5h-1.1c-.3,0-.4-.2-.4-.5v-6.3c0-.3.2-.5.4-.5h1.1c.3,0,.4.2.4.5v1.6ZM75.4,41c.9,0,2,0,3,0,3.1,0,4.9,0,6-.2.3,0,.4.1.4.4v.8c0,.3-.1.4-.4.4-1.3.1-3.6.2-5.3.2.1,0,.2.2.2.4v.8c1.3,0,2.5.1,3.6.2.3,0,.4.1.4.4v.9c0,.3-.1.4-.4.4-1.9-.1-5.5-.2-7.2-.2s-.8.2-.8.6.2.5.9.5c.9,0,1.9,0,2.8,0,4,0,5.1.6,5.1,2.2s-1.2,2.3-6.1,2.3-3.3-.1-4.6-.3c-.3,0-.4-.2-.3-.4v-.9c0-.3.2-.4.5-.3,1.3.2,3.2.3,4.5.3,3.5,0,4.1,0,4.1-.6s-.4-.6-3.2-.6-4,0-5,0c-.2,0-.4-.1-.4-.4v-.8c0-.3.1-.4.4-.4h.6c-.7-.2-1.1-.8-1.1-1.5s.4-1.3,1.6-1.4c.8,0,1.8,0,2.9,0v-.8c0-.3-.1-.4-.4-.4-1.3,0-3.4,0-4.6-.2-.3,0-.4-.2-.4-.4v-.8c0-.3.2-.4.4-.4s.6,0,1,0c-.1-.6-.2-1.2-.2-2,0-2,1.1-2.9,3.5-2.9s4.4.1,6.3.3c.3,0,.4.2.4.4v1c0,.3-.2.4-.4.4-2.1-.2-3.9-.3-6.1-.3s-1.7.4-1.7,1.6.1,1,.2,1.5ZM64,47.9c0,2-1.4,3.2-3.7,3.2s-5-.1-6.7-.3c-.3,0-.4-.2-.4-.4v-.9c0-.3.2-.4.5-.4,2,.2,3.7.3,6.7.3s1.7-.5,1.7-1.6,0-1.3-.1-1.7c0-.3.2-.5.4-.5h1c.3,0,.4.2.5.4,0,.4.1,1.2.1,1.9ZM55.6,45.8c0,.3-.2.5-.4.5h-1.1c-.3,0-.4-.2-.4-.5v-9.6c0-.3.2-.5.4-.5h1.1c.3,0,.4.2.4.5v9.6ZM61.7,36c2.3,0,3.8,1.6,3.8,4.1s-1.5,4.1-3.8,4.1-3.8-1.6-3.8-4.1,1.5-4.1,3.8-4.1ZM61.7,42.5c1.1,0,1.9-.9,1.9-2.4s-.7-2.3-1.9-2.3-1.9.9-1.9,2.3.7,2.4,1.9,2.4ZM39.6,47.8c0-1.9,1-2.7,3.3-2.7s5,.1,6.8.3c.3,0,.4.2.4.4v.9c0,.3-.1.4-.4.4-2.1-.2-4.1-.3-6.6-.3s-1.6.3-1.6,1.4,0,1.6,0,2.2c0,.3-.2.5-.4.5h-1c-.3,0-.5-.2-.5-.4,0-.6,0-1.5,0-2.7ZM46.9,36.1h1.1c.3,0,.4.2.4.5v2c0,1.9,1.1,3.3,2.6,3.3s.4.1.4.4v.9c0,.3-.1.4-.4.4-1.8,0-3.1-1.2-3.6-2.5-.5,1.3-1.8,2.5-3.6,2.5s-.4-.1-.4-.4v-.9c0-.3.1-.4.4-.4,1.5,0,2.6-1.4,2.6-3.3v-2c0-.3.2-.5.4-.5ZM41.5,43.4c0,.3-.2.5-.4.5h-1.1c-.3,0-.4-.2-.4-.5v-7.2c0-.3.2-.5.4-.5h1.1c.3,0,.4.2.4.5v7.2ZM315.3,74.7c0-1.3.7-2,2.1-2h7.5c.5,0,.8.3.8.8v3.9c0,.9-.7,1.5-1.8,1.5h-8.4c-.3,0-.4-.1-.4-.4v-.9c0-.3.1-.4.4-.4h1.2c-.8-.5-1.4-1.4-1.4-2.4ZM324,65.9v.5c0,1.8,1.1,3.2,2.6,3.2s.4.1.4.4v.9c0,.3-.1.4-.4.4-1.8,0-3.1-1.1-3.6-2.4-.5,1.3-1.8,2.4-3.6,2.4s-.4-.1-.4-.4v-.9c0-.3.1-.4.4-.4,1.5,0,2.6-1.3,2.6-3.2v-.5s-2.5,0-2.5,0c-.3,0-.4-.1-.4-.4v-.9c0-.3.1-.4.4-.4h7c.3,0,.4.1.4.4v.9c0,.3-.1.4-.4.4h-2.5ZM315.4,68.8c0-.4-.2-.5-.6-.5h-1.1c-.3,0-.4-.1-.4-.4v-.9c0-.3.1-.4.4-.4h1c.3,0,.6.1.7.3v-2.6c0-.3.2-.5.4-.5h1.1c.3,0,.4.2.4.5v6.8c0,.3-.2.5-.4.5h-1.1c-.3,0-.4-.2-.4-.5v-2.2ZM323,77.1c.4,0,.7-.2.7-.5v-1.7c0-.3-.2-.4-.4-.4h-4.9c-.8,0-1.1.3-1.1,1.1s.7,1.6,1.5,1.6h4.2ZM300.1,74.7c0-1.2.7-1.9,1.9-1.9h8c.5,0,.7.3.7.8v3.9c0,.9-.6,1.5-1.7,1.5h-8.8c-.3,0-.4-.1-.4-.4v-.9c0-.3.1-.4.4-.4h1.1c-.7-.4-1.3-1.4-1.3-2.4ZM311.9,69.9v.9c0,.3-.1.4-.4.5-1,.1-2.9.2-6,.2-2.4,0-4.8,0-6-.2-.3,0-.4-.2-.4-.5v-.9c0-.3.2-.4.5-.4.3,0,.7,0,1.1,0-.2-.7-.3-1.6-.3-2.5,0-2,1.2-3,3.6-3s4.4.1,6.2.3c.3,0,.4.2.4.4v1c0,.3-.2.4-.4.4-2.1-.2-3.8-.3-6-.3s-1.8.5-1.8,1.7.2,1.4.4,2.1c.8,0,1.8,0,2.8,0,2,0,4.4,0,5.9-.2.3,0,.5.1.5.4ZM308.2,77.1c.4,0,.6-.2.6-.5v-1.7c0-.3-.1-.4-.4-.4h-5.5c-.6,0-.9.4-.9,1.1s.5,1.5,1.3,1.5h4.9ZM279.7,63.7h1c.3,0,.4.1.4.4v5.5s1,0,1,0c.2,0,.5.1.6.3v-5.7c0-.3.1-.4.4-.4h1c.3,0,.4.1.4.4v14c0,.3-.1.4-.4.4h-1c-.3,0-.4-.1-.4-.4v-6.4c0-.3-.1-.5-.5-.5h-1s0,6.8,0,6.8c0,.3-.1.4-.4.4h-1c-.3,0-.4-.1-.4-.4v-14.2c0-.3.1-.4.4-.4ZM289.4,68.1c2.1,0,3.2,1.5,3.2,4.2s-1.1,4.2-3.2,4.2-3.2-1.5-3.2-4.2,1.1-4.2,3.2-4.2ZM288.4,64.8v-1.1c0-.3.1-.4.4-.4h1c.3,0,.4.1.4.4v.9c0,.2-.1.4-.3.5h2.6c.3,0,.4.1.4.4v1c0,.3-.1.4-.4.4h-6.6c-.3,0-.4-.1-.4-.4v-1c0-.3.1-.4.4-.4h2c.3,0,.4,0,.4-.3ZM288,72.3c0,1.6.4,2.3,1.3,2.3s1.3-.8,1.3-2.3-.4-2.3-1.3-2.3-1.3.8-1.3,2.3ZM274.6,66.7v4.5c0,2.1.9,3.2,2.2,3.4.3,0,.4.1.4.4v1c0,.3-.1.5-.4.4-1.5-.2-2.7-1.1-3.1-2.5-.5,1.4-1.7,2.3-3.2,2.5-.3,0-.4-.1-.4-.4v-1c0-.3.1-.4.4-.4,1.3-.2,2.2-1.4,2.2-3.4v-4.5s-2.1,0-2.1,0c-.3,0-.4-.1-.4-.4v-1c0-.3.1-.4.4-.4h6.1c.3,0,.4.1.4.4v1c0,.3-.1.4-.4.4h-2.1ZM271,70v1c0,.3-.1.4-.4.4h-1.5c-.2,0-.5-.1-.6-.3v7.3c0,.3-.1.4-.4.4h-1c-.3,0-.4-.1-.4-.4v-14c0-.3.1-.4.4-.4h1c.3,0,.4.1.4.4v4.7c0,.3.1.5.5.5h1.5c.3,0,.4.1.4.4ZM264.1,63.7h1c.3,0,.4.1.4.4v14.2c0,.3-.1.4-.4.4h-1c-.3,0-.4-.1-.4-.4v-14.2c0-.3.1-.4.4-.4ZM261.4,64.2c0,.6-.4,1.1-1,1.2.1.3.3.4.7.4s.2,0,.2.2v.4c0,.1,0,.2-.2.2-1.3,0-2.2-.8-2.2-2.2s.5-1.4,1.3-1.4,1.3.5,1.3,1.2ZM255.7,79.2c-.8,0-1.3-.5-1.3-1.2s.5-1.2,1.3-1.2,1.3.5,1.3,1.2-.5,1.2-1.3,1.2ZM236.8,72.9c-.3,0-.6,0-.6-.4v-1.1c0-.3.1-.4.4-.4,2.3,0,3.8-1.5,3.8-3.6v-2.4c0-.3.2-.5.4-.5h1.1c.3,0,.4.2.4.5v2.4c0,2.1,1.6,3.6,3.8,3.6s.4.1.4.4v1.1c0,.4-.3.4-.6.4-2,0-3.9-1.2-4.7-2.8-.7,1.7-2.6,2.8-4.6,2.8ZM248,75.8v.9c0,.3-.1.4-.4.5-1.3.2-3.3.3-6,.3s-4.9-.1-6-.3c-.3,0-.4-.2-.4-.5v-.9c0-.3.2-.4.5-.4,1.3.2,3.6.3,6,.3s4.3-.1,5.9-.3c.3,0,.5.1.5.4ZM230.6,74.6c.4,0,.7-.2.7-.5v-7c0-.3-.2-.4-.4-.4h-1.4c-1.3,0-1.7.9-1.7,3.8,0,2.6.7,4.2,1.9,4.2h1ZM232.4,64.8c.5,0,.8.3.8.8v9.4c0,.9-.7,1.5-1.8,1.5h-5.2c-.3,0-.4-.1-.4-.4v-1c0-.3.1-.4.4-.4h1.1c-1-1.1-1.6-3.1-1.6-5.6s.8-4.2,3.2-4.2h3.5ZM221.8,72.1c0-.4-.2-.5-.6-.5h-1.1c-.3,0-.4-.1-.4-.4v-1c0-.3.1-.4.4-.4h1c.3,0,.6.1.7.3v-5.8c0-.3.2-.5.4-.5h1.1c.3,0,.4.2.4.5v14.1c0,.3-.2.5-.4.5h-1.1c-.3,0-.4-.2-.4-.5v-6.2ZM212,67.5c3.8,0,5.2.8,5.2,2.9s-1.3,3-5.2,3-3.5,0-4.9-.2c-.3,0-.4-.2-.4-.4v-1c.1-.3.3-.4.5-.4,1.2.2,2.7.2,4.7.2s3.3-.3,3.3-1.2-.7-1.1-3.1-1.1-3.1,0-4.7.1c-.3,0-.4-.1-.4-.4v-1c0-.3.1-.4.4-.4,1,0,2.7-.1,4.6-.1ZM207.5,66.4c-.3,0-.4-.1-.4-.4v-.9c0-.3.1-.4.4-.4h9.2c.3,0,.4.1.4.4v.9c0,.3-.1.4-.4.4h-9.2ZM218.4,75.8v.9c0,.3-.1.4-.4.5-1.3.2-3.3.3-6,.3s-4.9-.1-6-.3c-.3,0-.4-.2-.4-.5v-.9c0-.3.2-.4.5-.4,1.3.2,3.6.3,6,.3s4.3-.1,5.9-.3c.3,0,.5.1.5.4ZM200.9,65.8l-.4,2.8c.7,0,1.2,0,1.6-.1.3,0,.4.1.4.3v1c0,.2-.1.4-.4.4-.8,0-2.2.2-4,.2v.8c0,.2-.1.4-.3.5,1.7,0,3.9,0,5.2-.2.3,0,.5.1.5.4v.9c0,.3-.1.4-.4.5-1,.1-2.9.2-6,.2-2.4,0-4.8,0-6-.2-.3,0-.4-.2-.4-.5v-.9c0-.3.2-.4.5-.4,1.2.1,3.2.2,4.6.1.3,0,.4-.2.4-.4v-.8c-1.8,0-3.2-.1-4.1-.2-.3,0-.4-.2-.4-.4v-1c0-.2.2-.4.4-.3.4,0,.9,0,1.6.1l-.4-2.8h-1c-.3,0-.4-.1-.4-.4v-.9c0-.3.1-.4.4-.4h9.4c.3,0,.4.1.4.4v.9c0,.3-.1.4-.4.4h-1ZM202.4,76c0,2-1.3,3.1-3.6,3.1s-5.3-.1-7-.3c-.3,0-.4-.2-.4-.4v-.9c0-.3.2-.4.5-.4,2,.2,3.9.3,7,.3s1.6-.4,1.6-1.4,0-.8-.1-1.2c0-.3.1-.5.4-.5h1c.3,0,.5.2.5.4,0,.3.1.8.1,1.3ZM198.6,68.6l.4-2.8h-3.6s.4,2.8.4,2.8c.5,0,.9,0,1.4,0s1,0,1.4,0ZM181.1,71.5c-.2,0-.5-.1-.6-.3v7.2c0,.3-.1.4-.4.4h-1c-.3,0-.4-.1-.4-.4v-14c0-.3.1-.4.4-.4h1c.3,0,.4.1.4.4v4.8c0,.3.1.5.5.5h1.4c.2-3.4,1.3-5,3.4-5s3.4,1.9,3.4,6.1-1.1,6.1-3.4,6.1-3.2-1.7-3.4-5.3h-1.3ZM176.1,63.7h1c.3,0,.4.1.4.4v14.2c0,.3-.1.4-.4.4h-1c-.3,0-.4-.1-.4-.4v-14.2c0-.3.1-.4.4-.4ZM184.2,70.7c0,3,.5,4.2,1.5,4.2s1.5-1.3,1.5-4.2-.5-4.2-1.5-4.2-1.5,1.2-1.5,4.2ZM159.3,75.7v.8c0,.4.3.6.8.6h4.6c.5,0,.7-.2.8-.6v-.8c0,0-6.2,0-6.2,0ZM157.4,77.3l-.2-4.1c0-.3.2-.4.4-.4h1.1c.3,0,.4.2.4.4v.8c0,0,6.5,0,6.5,0v-.8c0-.3.2-.4.5-.4h1.1c.3,0,.5.2.4.4l-.2,4.1c0,1-.7,1.6-1.9,1.6h-6.1c-1.2,0-1.9-.6-1.9-1.6ZM160.5,70.7l.2-.8c0-.3.2-.4.6-.3,1.1.3,1.9.4,2.8.4,1.8,0,2.5-.1,2.5-.8s-.7-.8-2.9-.8-1.4,0-2,.1c-.3,0-.5,0-.5-.4v-.9c0-.3.1-.4.4-.5.6-.1,1.4-.2,2.1-.2,3.5,0,4.7.6,4.7,2.6s-1.3,2.6-4.4,2.6-2.2-.2-3.3-.5c-.3-.1-.4-.3-.3-.6ZM161.4,65.9c-.3,0-.4-.1-.4-.4v-.9c0-.3.1-.4.4-.4h6.5c.3,0,.4.1.4.4v.9c0,.3-.1.4-.4.4h-6.5ZM157.1,68.9c0-.4-.2-.5-.6-.5h-1.1c-.3,0-.4-.1-.4-.4v-.9c0-.3.1-.4.4-.4h1c.3,0,.6.1.7.3v-2.7c0-.3.2-.5.4-.5h1.1c.3,0,.4.2.4.5v7c0,.3-.2.5-.4.5h-1.1c-.3,0-.4-.2-.4-.5v-2.3ZM141,63.7h1c.3,0,.4.1.4.4v5.5s1,0,1,0c.2,0,.5.1.6.3v-5.7c0-.3.1-.4.4-.4h1c.3,0,.4.1.4.4v14c0,.3-.1.4-.4.4h-1c-.3,0-.4-.1-.4-.4v-6.4c0-.3-.1-.5-.5-.5h-1s0,6.8,0,6.8c0,.3-.1.4-.4.4h-1c-.3,0-.4-.1-.4-.4v-14.2c0-.3.1-.4.4-.4ZM151.5,66.7v4.5c0,2.1.9,3.2,2.2,3.4.3,0,.4.1.4.4v1c0,.3-.1.5-.4.4-1.5-.2-2.7-1.1-3.1-2.5-.5,1.4-1.7,2.3-3.2,2.5-.3,0-.4-.1-.4-.4v-1c0-.3.1-.4.4-.4,1.3-.2,2.2-1.4,2.2-3.4v-4.5s-2.1,0-2.1,0c-.3,0-.4-.1-.4-.4v-1c0-.3.1-.4.4-.4h6.1c.3,0,.4.1.4.4v1c0,.3-.1.4-.4.4h-2.1ZM130.1,69.4l.2-.9c0-.3.2-.4.5-.3.9.3,1.8.4,2.4.4,2.2,0,2.7-.3,2.7-1.4s-.6-1.4-2.9-1.4-1.4,0-2,.2c-.3,0-.4-.1-.4-.4v-.9c0-.3.1-.4.4-.5.5-.1,1.2-.2,2.2-.2,3.3,0,4.7.9,4.7,3.2s-.8,2.7-2.8,3v.8c0,.2-.1.4-.3.5,1.3,0,2.8,0,3.5-.2.3,0,.5,0,.5.4v1c0,.3-.1.4-.4.4-1.1,0-2.6.1-4.2.1s-3.4,0-4.5-.1c-.3,0-.4-.2-.4-.5v-1c0-.3.2-.4.4-.4.6,0,1.9,0,3,0s.5-.1.5-.4v-.8c-.7,0-1.8-.2-2.8-.5-.3,0-.4-.3-.3-.5ZM137.2,76c0,2-1.3,3.1-3.6,3.1s-5.5-.1-7.2-.3c-.3,0-.4-.2-.4-.4v-.9c0-.3.2-.4.5-.4,2,.2,3.9.3,7.1.3s1.6-.4,1.6-1.4,0-.8-.1-1.2c0-.3.1-.5.4-.5h1c.3,0,.5.2.5.4,0,.3.1.8.1,1.3ZM126.5,64.2c0-.3.2-.5.4-.5h1.1c.3,0,.4.2.4.5v9.9c0,.3-.2.5-.4.5h-1.1c-.3,0-.4-.2-.4-.5v-9.9ZM115.6,64.6c2.6,0,3.8,1.9,3.8,6.1s-1.2,6.1-3.8,6.1-3.8-1.9-3.8-6.1,1.2-6.1,3.8-6.1ZM113.8,70.7c0,3,.6,4.2,1.9,4.2s1.9-1.2,1.9-4.2-.6-4.2-1.9-4.2-1.9,1.2-1.9,4.2ZM109.5,78.3c0,.3-.2.5-.4.5h-1.1c-.3,0-.4-.2-.4-.5v-14.1c0-.3.2-.5.4-.5h1.1c.3,0,.4.2.4.5v14.1ZM92.9,68.5c0-2.6,1-3.7,3.3-3.7s2.4.1,3.7.3c.3,0,.4.2.4.5v1c0,.3-.2.5-.4.4-1.1-.2-2.1-.3-3.3-.3s-1.7.5-1.7,2c0,2.5.2,4.9.6,7.4,0,.3-.1.5-.4.5h-1.1c-.3,0-.4-.1-.5-.4-.4-2.5-.6-4.9-.6-7.6ZM90.7,78.3c0,.3-.2.5-.4.5h-1.1c-.3,0-.4-.2-.4-.5v-14.1c0-.3.2-.5.4-.5h1.1c.3,0,.4.2.4.5v14.1ZM79.7,79.1c-3.8,0-5.6-1-5.6-2.9s1.8-2.9,5.6-2.9,5.6.9,5.6,2.9-1.8,2.9-5.6,2.9ZM79.7,75c-2.6,0-3.6.3-3.6,1.2s1.1,1.2,3.6,1.2,3.6-.3,3.6-1.2-1-1.2-3.6-1.2ZM86.3,70.9v.9c0,.3-.1.4-.4.5-1,.1-2.9.2-6,.2-2.4,0-4.8,0-6-.2-.3,0-.4-.2-.4-.5v-.9c0-.3.2-.4.5-.4,1.3.1,3.2.2,6,.2s4.4,0,5.9-.2c.3,0,.5.1.5.4ZM84.8,66.7c0,1.9-1.2,3-3.4,3s-5.1-.1-6.7-.3c-.3,0-.4-.2-.4-.4v-.9c0-.3.2-.4.5-.4,2,.2,3.9.3,6.5.3s1.5-.4,1.5-1.3,0-1.4-.1-2c0-.3.1-.5.4-.5h1c.3,0,.5.2.5.4,0,.6.1,1.5.1,2.1ZM70.3,76c0,2-1.3,3.1-3.6,3.1s-5.3-.1-7-.3c-.3,0-.4-.2-.4-.4v-.9c0-.3.2-.4.5-.4,2,.2,3.9.3,7,.3s1.6-.4,1.6-1.4,0-.8-.1-1.2c0-.3.1-.5.4-.5h1c.3,0,.5.2.5.4,0,.3.1.8.1,1.3ZM71.5,71.8v.9c0,.3-.1.4-.4.5-1,.1-2.9.2-6,.2-2.4,0-4.8,0-6-.2-.3,0-.4-.2-.4-.5v-.9c0-.3.2-.4.5-.4,1.3.1,3.2.2,6,.2s4.4,0,5.9-.2c.3,0,.5.1.5.4ZM64.9,70.4c-3.7,0-5.3-1-5.3-3.2s1.6-3.2,5.3-3.2,5.3,1,5.3,3.2-1.6,3.2-5.3,3.2ZM68.3,67.2c0-1.1-.9-1.5-3.3-1.5s-3.3.4-3.3,1.5.9,1.5,3.3,1.5,3.3-.4,3.3-1.5ZM51.5,66.7l-.3,7.8c.4,0,.8,0,1.1-.1.3,0,.4.1.4.4v1c0,.3-.1.4-.4.4-.9.1-2.1.2-3.4.2s-2.7-.1-3.4-.2c-.3,0-.4-.1-.4-.4v-1c0-.3.1-.5.4-.4.3,0,.7,0,1.1.1l-.3-7.8h-.6c-.3,0-.4-.1-.4-.4v-1c0-.3.1-.4.4-.4h6.4c.3,0,.4.1.4.4v1c0,.3-.1.4-.4.4h-.6ZM46,70.1v1c0,.3-.1.4-.4.4h-1.4c-.2,0-.5-.1-.6-.3v7.2c0,.3-.1.4-.4.4h-1c-.3,0-.4-.1-.4-.4v-14c0-.3.1-.4.4-.4h1c.3,0,.4.1.4.4v4.8c0,.3.1.5.5.5h1.5c.3,0,.4.1.4.4ZM39.2,63.7h1c.3,0,.4.1.4.4v14.2c0,.3-.1.4-.4.4h-1c-.3,0-.4-.1-.4-.4v-14.2c0-.3.1-.4.4-.4ZM49.7,66.7h-1.6s.3,7.9.3,7.9h1s.3-7.9.3-7.9ZM323.1,92.6c2.6,0,3.8,1.9,3.8,6.1s-1.2,6.1-3.8,6.1-3.8-1.9-3.8-6.1,1.2-6.1,3.8-6.1ZM321.2,98.7c0,3,.6,4.2,1.9,4.2s1.9-1.2,1.9-4.2-.6-4.2-1.9-4.2-1.9,1.2-1.9,4.2ZM317,106.3c0,.3-.2.5-.4.5h-1.1c-.3,0-.4-.2-.4-.5v-14.1c0-.3.2-.5.4-.5h1.1c.3,0,.4.2.4.5v14.1ZM301.5,100.9c-.3,0-.6,0-.6-.4v-1.1c0-.3.1-.4.4-.4,2.3,0,3.8-1.5,3.8-3.6v-2.4c0-.3.2-.5.4-.5h1.1c.3,0,.4.2.4.5v2.4c0,2.1,1.6,3.6,3.8,3.6s.4.1.4.4v1.1c0,.4-.3.4-.6.4-2,0-3.9-1.2-4.7-2.8-.7,1.7-2.6,2.8-4.6,2.8ZM312.6,103.8v.9c0,.3-.1.4-.4.5-1.3.2-3.3.3-6,.3s-4.9-.1-6-.3c-.3,0-.4-.2-.4-.5v-.9c0-.3.2-.4.5-.4,1.3.2,3.6.3,6,.3s4.3-.1,5.9-.3c.3,0,.5.1.5.4ZM291.2,103.4l.3-.9c0-.2.2-.3.4-.3s.2,0,.2,0c.8.4,1.5.6,2.2.6,1.4,0,2-.8,2-2.3s-.7-2.4-2.4-2.4-.8,0-1.6.1c-.3,0-.4-.1-.4-.4v-1c0-.3.1-.4.4-.5.6-.1,1.1-.2,1.9-.2,2.8,0,4.1,1.3,4.1,4.3s-1.4,4.2-3.8,4.2-2-.2-3-.7c-.3-.1-.4-.3-.3-.6ZM291.7,99.5v1c0,.3-.1.4-.4.4h-1.1c-.2,0-.5-.1-.6-.3v5.7c0,.3-.1.4-.4.4h-1c-.3,0-.4-.1-.4-.4v-14c0-.3.1-.4.4-.4h1c.3,0,.4.1.4.4v6.3c0,.3.1.5.5.5h1.2c.3,0,.4.1.4.4ZM285.1,91.7h1c.3,0,.4.1.4.4v14.2c0,.3-.1.4-.4.4h-1c-.3,0-.4-.1-.4-.4v-14.2c0-.3.1-.4.4-.4ZM291.9,94.7c-.3,0-.4-.1-.4-.4v-1c0-.3.1-.4.4-.4h5.7c.3,0,.4.1.4.4v1c0,.3-.1.4-.4.4h-5.7ZM275.1,94.5c-1.8,0-2.4.7-2.4,2.5,2.8,0,5.9.1,7.6.3.3,0,.4.2.4.4v1c0,.3-.1.4-.4.4-1.9-.2-5-.3-7.6-.3,0,.6.1,1.2.2,1.6,0,.3,0,.4-.3.4l-1.2.2c-.3,0-.4,0-.5-.3-.2-1.2-.3-2.4-.3-4.1,0-2.7,1.4-4.1,4-4.1s3.9,0,5.8.3c.3,0,.4.2.4.4v1c0,.3-.2.4-.4.4-1.7-.2-3.4-.3-5.4-.3ZM282.3,103.8v.9c0,.3-.1.4-.4.5-1.3.2-3.3.3-6,.3s-4.9-.1-6-.3c-.3,0-.4-.2-.4-.5v-.9c0-.3.2-.4.5-.4,1.3.2,3.6.3,6,.3s4.3-.1,5.9-.3c.3,0,.5.1.5.4ZM263.6,104c1.6,0,2.9-.1,4-.3.3,0,.5,0,.5.4v1c0,.3-.1.4-.4.4-1.1.2-2.4.3-4.1.3s-3.2,0-4.4-.2c-.3,0-.4-.2-.4-.5v-1c0-.3.2-.4.4-.4,1.1.2,2.7.3,4.3.3ZM263.5,101.5c-2.3,0-3.8-1.8-3.8-4.6s1.5-4.6,3.8-4.6,3.8,1.8,3.8,4.6-1.5,4.6-3.8,4.6ZM265.4,96.9c0-1.6-.7-2.8-1.9-2.8s-1.9,1.1-1.9,2.8.7,2.8,1.9,2.8,1.9-1.1,1.9-2.8ZM255.8,92.2c0-.3.2-.5.4-.5h1.1c.3,0,.4.2.4.5v14.1c0,.3-.2.5-.4.5h-1.1c-.3,0-.4-.2-.4-.5v-14.1ZM235.9,91.7h1c.3,0,.4.1.4.4v5.5s1,0,1,0c.2,0,.5.1.6.3v-5.7c0-.3.1-.4.4-.4h1c.3,0,.4.1.4.4v14c0,.3-.1.4-.4.4h-1c-.3,0-.4-.1-.4-.4v-6.4c0-.3-.1-.5-.5-.5h-1s0,6.8,0,6.8c0,.3-.1.4-.4.4h-1c-.3,0-.4-.1-.4-.4v-14.2c0-.3.1-.4.4-.4ZM244.4,94.7c-.6,0-1.1,0-1.6.2-.3,0-.4-.1-.4-.4v-1c0-.3,0-.4.4-.4.5-.1,1-.1,1.8-.1,3,0,4.3,1.9,4.3,5.9s-1.4,5.9-4.2,5.9-1.8-.2-2.6-.5c-.3-.1-.4-.3-.3-.5l.2-1c0-.2.2-.3.3-.3s.1,0,.2,0c.7.3,1.4.4,2,.4,1.6,0,2.4-1.3,2.4-4s-.7-4.1-2.6-4.1ZM230.4,94.5l-.4,4.7c.7,0,1.2,0,1.6-.1.3,0,.4.1.4.3v1.1c0,.2-.1.4-.4.4-.4,0-.9,0-1.4.1v2c0,.3-.2.6-.4.7.9,0,1.9-.2,2.8-.3.3,0,.5.1.5.4v.9c0,.3-.1.4-.4.5-1.3.2-3.3.3-6,.3s-4.9-.1-6-.3c-.3,0-.4-.2-.4-.5v-.9c0-.3.2-.4.5-.4.3,0,1.3.2,1.8.2s.6-.2.6-.5v-2.1c-.6,0-1.1,0-1.5-.1-.3,0-.4-.2-.4-.4v-1.1c0-.2.2-.4.4-.3.4,0,.9,0,1.6.1l-.4-4.7h-.9c-.3,0-.4-.1-.4-.4v-1c0-.3.1-.4.4-.4h9.4c.3,0,.4.1.4.4v1c0,.3-.1.4-.4.4h-.9ZM228,99.2l.4-4.7h-3.7s.4,4.7.4,4.7c.4,0,.9,0,1.4,0s1,0,1.4,0ZM225,102.9c0,.4-.2.6-.5.7,1,0,2.2,0,3,0,.4,0,.6-.2.6-.5v-2.1c-.5,0-1,0-1.6,0s-1.1,0-1.5,0v1.9ZM215.5,93.9v.7c0,1.9,1.1,3.3,2.6,3.3s.4.1.4.4v.9c0,.3-.1.4-.4.4-1.8,0-3.1-1.2-3.6-2.5-.5,1.3-1.8,2.5-3.6,2.5s-.4-.1-.4-.4v-.9c0-.3.1-.4.4-.4,1.5,0,2.6-1.4,2.6-3.3v-.7s-2.5,0-2.5,0c-.3,0-.4-.1-.4-.4v-.9c0-.3.1-.4.4-.4h7c.3,0,.4.1.4.4v.9c0,.3-.1.4-.4.4h-2.5ZM206.6,103.8c0-1.9,1-2.7,3.3-2.7s5,.1,6.8.3c.3,0,.4.2.4.4v.9c0,.3-.1.4-.4.4-2.1-.2-4.1-.3-6.6-.3s-1.6.3-1.6,1.4,0,1.6,0,2.2c0,.3-.2.5-.4.5h-1c-.3,0-.5-.2-.5-.4,0-.6,0-1.5,0-2.7ZM208.5,94.5c0,.4.2.5.6.5h1.3c.3,0,.4.1.4.4v.9c0,.3-.1.4-.4.4h-1.2c-.3,0-.6-.1-.7-.3v2.9c0,.3-.2.5-.4.5h-1.1c-.3,0-.4-.2-.4-.5v-7.2c0-.3.2-.5.4-.5h1.1c.3,0,.4.2.4.5v2.3ZM202.9,103.9c0,2-1.4,3.2-3.7,3.2s-5-.1-6.7-.3c-.3,0-.4-.2-.4-.4v-.9c0-.3.2-.4.5-.4,2,.2,3.7.3,6.7.3s1.7-.5,1.7-1.6,0-1.3-.1-1.7c0-.3.2-.5.4-.5h1c.3,0,.4.2.5.4,0,.4.1,1.2.1,1.9ZM194.4,101.8c0,.3-.2.5-.4.5h-1.1c-.3,0-.4-.2-.4-.5v-9.6c0-.3.2-.5.4-.5h1.1c.3,0,.4.2.4.5v9.6ZM200.5,92c2.3,0,3.8,1.6,3.8,4.1s-1.5,4.1-3.8,4.1-3.8-1.6-3.8-4.1,1.5-4.1,3.8-4.1ZM200.5,98.5c1.1,0,1.9-.9,1.9-2.4s-.7-2.3-1.9-2.3-1.9.9-1.9,2.3.7,2.4,1.9,2.4ZM178,104.5c-.3,0-.4-.1-.4-.4v-1c0-.3.1-.4.4-.5,1.4-.2,2.6-1.9,2.6-3.9v-5.5c0-.3.2-.5.4-.5h1.1c.3,0,.4.2.4.5v5.5c0,2,1.2,3.7,2.6,3.9.3,0,.4.2.4.5v1c0,.3-.1.4-.4.4-1.6-.2-3.1-1.5-3.6-3.1-.4,1.6-1.9,2.9-3.6,3.1ZM173.9,100.1c0-.4-.2-.5-.6-.5h-1.1c-.3,0-.4-.1-.4-.4v-1c0-.3.1-.4.4-.4h1c.3,0,.6.1.7.3v-5.8c0-.3.2-.5.4-.5h1.1c.3,0,.4.2.4.5v14.1c0,.3-.2.5-.4.5h-1.1c-.3,0-.4-.2-.4-.5v-6.2ZM169,101.2c0-1.2-.5-1.7-1.8-1.7s-1.9,0-2.5,0-.4-.1-.4-.4v-.9c0-.3.1-.4.4-.4h.7c-.7-.5-1.1-1.4-1.1-2.5,0-1.6.9-2.5,3.1-2.5s1.7,0,2.4.2c.3,0,.4.2.4.4v1.1c0,.3-.2.4-.4.4-1-.2-1.4-.3-2-.3-1.1,0-1.6.4-1.6,1.5s.5,1.5,1.5,1.5c2.2,0,3.1,1.1,3.1,3.4s-1.3,3.6-3.8,3.6-1.9-.2-2.9-.6c-.3-.1-.4-.3-.3-.5l.3-1c0-.2.2-.3.3-.3s.1,0,.2,0c.8.3,1.6.5,2.2.5,1.5,0,2-.5,2-1.7ZM162.6,99.7h1c.3,0,.4.1.4.4v1c0,.3-.1.4-.4.4h-1c-.2,0-.4,0-.5-.2v5.1c0,.3-.1.4-.4.4h-1c-.3,0-.4-.1-.4-.4v-14c0-.3.1-.4.4-.4h1c.3,0,.4.1.4.4v2.2c0,.3.2.4.4.4h.9c.3,0,.4.1.4.4v1c0,.3-.1.4-.4.4h-.8c-.2,0-.4,0-.5-.2v2.7c0,.3.2.4.4.4ZM157.7,91.7h1c.3,0,.4.1.4.4v14.2c0,.3-.1.4-.4.4h-1c-.3,0-.4-.1-.4-.4v-14.2c0-.3.1-.4.4-.4ZM151.3,92.6c2.6,0,3.8,1.9,3.8,6.1s-1.2,6.1-3.8,6.1-3.8-1.9-3.8-6.1,1.2-6.1,3.8-6.1ZM149.4,98.7c0,3,.6,4.2,1.9,4.2s1.9-1.2,1.9-4.2-.6-4.2-1.9-4.2-1.9,1.2-1.9,4.2ZM145.2,106.3c0,.3-.2.5-.4.5h-1.1c-.3,0-.4-.2-.4-.5v-14.1c0-.3.2-.5.4-.5h1.1c.3,0,.4.2.4.5v14.1ZM136,94.7c-.9,0-1.4,0-2.1.2-.3,0-.4-.1-.4-.4v-1c0-.3.1-.4.4-.4.6-.1,1.3-.1,2.3-.1,3.2,0,4.8,1.8,4.8,5.9s-1.5,5.9-4.6,5.9-2-.2-3.1-.7c-.3-.1-.4-.3-.4-.5l.3-1c0-.2.2-.4.3-.4s.1,0,.2,0c1,.4,1.9.6,2.6.6,1.9,0,2.8-1.3,2.8-4s-.8-4.1-2.9-4.1ZM129.5,100.1c0-.4-.2-.5-.6-.5h-1.1c-.3,0-.4-.1-.4-.4v-1c0-.3.1-.4.4-.4h1c.3,0,.6.1.7.3v-5.8c0-.3.2-.5.4-.5h1.1c.3,0,.4.2.4.5v14.1c0,.3-.2.5-.4.5h-1.1c-.3,0-.4-.2-.4-.5v-6.2ZM124.7,107.2c-.8,0-1.3-.5-1.3-1.2s.5-1.2,1.3-1.2,1.3.5,1.3,1.2-.5,1.2-1.3,1.2ZM109.7,104.5c-.3,0-.4-.1-.4-.4v-1c0-.3.1-.4.4-.5,1.4-.2,2.6-1.9,2.6-3.9v-5.5c0-.3.2-.5.4-.5h1.1c.3,0,.4.2.4.5v5.5c0,2,1.2,3.7,2.6,3.9.3,0,.4.2.4.5v1c0,.3-.1.4-.4.4-1.6-.2-3.1-1.5-3.6-3.1-.4,1.6-1.9,2.9-3.6,3.1ZM105.6,100.1c0-.4-.2-.5-.6-.5h-1.1c-.3,0-.4-.1-.4-.4v-1c0-.3.1-.4.4-.4h1c.3,0,.6.1.7.3v-5.8c0-.3.2-.5.4-.5h1.1c.3,0,.4.2.4.5v14.1c0,.3-.2.5-.4.5h-1.1c-.3,0-.4-.2-.4-.5v-6.2ZM98.5,105.1c.4,0,.7-.2.7-.5v-1.3c0-.3-.2-.4-.4-.4h-4.9c-.8,0-1.1.2-1.1.9s.7,1.4,1.5,1.4h4.2ZM94.3,98.7l.2-.9c0-.2.2-.3.3-.3s.1,0,.2,0c.9.3,2.1.5,2.9.5,1.9,0,2.4-.1,2.4-.7s-.6-.7-2.9-.7-1.4,0-2.2,0c-.3,0-.4-.1-.4-.4v-.8c0-.3.1-.4.4-.4h.4c-.6-.3-.9-.8-.9-1.5,0-1.1.8-1.5,3-1.5,1.5,0,2.5,0,3.6.2.3,0,.4.2.4.4v.9c0,.3-.2.4-.4.4-1.3-.2-2.6-.2-3.2-.2-1,0-1.4.1-1.4.5s.4.6,1.3.6c3.2,0,4.3.6,4.3,2.4s-1.1,2.5-3.9,2.5-2.9-.3-3.8-.6c-.3-.1-.4-.3-.3-.5ZM90.7,102.8c0-1.2.7-1.8,2.1-1.8h7.5c.5,0,.8.3.8.8v3.6c0,.9-.7,1.5-1.8,1.5h-8.4c-.3,0-.4-.1-.4-.4v-.9c0-.3.1-.4.4-.4h1.2c-.8-.4-1.4-1.3-1.4-2.3ZM90.9,97c0-.4-.2-.5-.6-.5h-1.1c-.3,0-.4-.1-.4-.4v-.9c0-.3.1-.4.4-.4h1c.3,0,.6.1.7.3v-2.8c0-.3.2-.5.4-.5h1.1c.3,0,.4.2.4.5v7.2c0,.3-.2.5-.4.5h-1.1c-.3,0-.4-.2-.4-.5v-2.4ZM80.8,93.5c-2.5,0-3.3.3-3.3,1.1s.8,1.1,3.3,1.1,3.3-.3,3.3-1.1-.8-1.1-3.3-1.1ZM75.2,106.3v-.8c0-.3.2-.4.5-.3,1.3.2,3.2.3,4.5.3,3.5,0,4.1,0,4.1-.6s-.4-.6-3.2-.6-4,0-5,0c-.2,0-.4-.1-.4-.4v-.7c0-.3.1-.4.4-.4h.6c-.7-.2-1.1-.8-1.1-1.4s.4-1.2,1.6-1.2c2.2,0,5.8,0,8.4.2.3,0,.4.1.4.4v.8c0,.3-.1.4-.4.4-1.9-.1-5.5-.2-7.2-.2s-.8.2-.8.5.2.5.9.5c.9,0,1.9,0,2.8,0,4,0,5.1.5,5.1,2.1s-1.2,2.2-6.1,2.2-3.3-.1-4.6-.3c-.3,0-.4-.2-.3-.4ZM81,97.9c2,0,4.4,0,6-.2.3,0,.4.1.4.4v.8c0,.3-.1.4-.4.4-1,.1-2.9.2-6,.2-2.4,0-4.8,0-6.1-.2-.3,0-.4-.2-.4-.4v-.8c0-.3.2-.4.4-.4,1.3.1,3.2.2,6,.2ZM80.8,97.2c-3.8,0-5.3-.7-5.3-2.6s1.5-2.6,5.3-2.6,5.3.7,5.3,2.6-1.5,2.6-5.3,2.6ZM65.2,98.3c.4,0,.7-.2.7-.5v-3.4c0-.3-.2-.4-.4-.4h-1.7c-1,0-1.4.7-1.4,1.9s.7,2.5,1.8,2.5h1.1ZM60.5,99.6v-.9c0-.3.1-.4.4-.4h1.1c-1-.6-1.7-1.9-1.7-3.4s.8-2.8,2.4-2.8h4.3c.5,0,.8.3.8.8v5.6c0,.9-.7,1.5-1.8,1.5h-5.2c-.3,0-.4-.1-.4-.4ZM56.5,98.2c0-.4-.2-.5-.6-.5h-1.1c-.3,0-.4-.1-.4-.4v-.9c0-.3.1-.4.4-.4h1c.3,0,.6.1.7.3v-4c0-.3.2-.5.4-.5h1.1c.3,0,.4.2.4.5v9.6c0,.3-.2.5-.4.5h-1.1c-.3,0-.4-.2-.4-.5v-3.6ZM66.6,103.9c0,2-1.4,3.2-3.7,3.2s-4.7-.1-6.4-.3c-.3,0-.4-.2-.4-.4v-.9c0-.3.2-.4.5-.4,2,.2,3.5.3,6.4.3s1.7-.5,1.7-1.6,0-1.3-.1-1.7c0-.3.2-.5.4-.5h1c.3,0,.4.2.5.4,0,.4.1,1.2.1,1.9ZM41.3,106.3v-.8c0-.3.2-.4.5-.3,1.4.2,3.1.3,4.2.3,3.5,0,4,0,4-.6s-.4-.6-3.1-.6-3.6,0-4.8,0c-.3,0-.4-.1-.4-.4v-.8c0-.3.1-.4.4-.4h.6c-.7-.2-1.1-.8-1.1-1.5s.5-1.3,1.5-1.4c2.2,0,5.6,0,8.1.2.3,0,.4.1.4.4v.8c0,.3-.1.4-.4.4-1.9-.1-5.2-.2-6.9-.2s-.8.2-.8.6.3.5.9.5c.9,0,1.6,0,2.5,0,3.9,0,5,.5,5,2.2s-1.3,2.3-6,2.3-2.9-.1-4.3-.3c-.3,0-.4-.2-.4-.4ZM45.4,97.9l.3-.9c0-.3.2-.4.5-.3,1.1.4,2.6.6,3.5.6s1.6-.4,1.6-1.4-.2-2.2-.4-3.3c0-.3.1-.5.4-.5h1c.3,0,.4.1.5.4.3,1.2.4,2.2.4,3.3,0,2-1.2,3.2-3.4,3.2s-2.8-.2-4-.6c-.3-.1-.4-.3-.4-.5ZM41.7,96.5c0-.4-.2-.5-.6-.5h-1.1c-.3,0-.4-.1-.4-.4v-.9c0-.3.1-.4.4-.4h1c.3,0,.6.1.7.3v-2.3c0-.3.2-.5.4-.5h1.1c.3,0,.4.2.4.5v6.3c0,.3-.2.5-.4.5h-1.1c-.3,0-.4-.2-.4-.5v-2ZM314,119.7h1c.3,0,.4.1.4.4v5.5s.8,0,.8,0c.2,0,.5.1.6.3v-5.7c0-.3.1-.4.4-.4h1c.3,0,.4.1.4.4v14c0,.3-.1.4-.4.4h-1c-.3,0-.4-.1-.4-.4v-6.4c0-.3-.1-.5-.5-.5h-.8s0,6.8,0,6.8c0,.3-.1.4-.4.4h-1c-.3,0-.4-.1-.4-.4v-14.2c0-.3.1-.4.4-.4ZM322.7,132c-.4.4-.9.6-1.6.6s-1.1,0-1.6-.2c-.2,0-.4-.2-.3-.5v-1.2c.2-.2.3-.3.4-.3s.1,0,.2,0c.3.1.8.2,1,.2.9,0,1.1-.9,1.1-4s-.3-4.1-1.1-4.1-.6,0-.7,0c-.2,0-.4,0-.4-.3v-1.2c0-.2,0-.3.3-.4.2,0,.8,0,1,0,2,0,2.7,1.6,2.7,5.9s0,2.9-.3,3.8c.3.2.6.2.8.2,1,0,1.3-1,1.3-4s-.2-4.1-1-4.1-.2,0-.4,0c-.2,0-.4,0-.4-.3v-1.2c0-.2,0-.3.3-.4.1,0,.4,0,.6,0,1.9,0,2.6,1.4,2.6,5.9s-.7,5.9-2.7,5.9-1.8-.1-1.8-.6ZM298.9,124.5c0-2.6,1-3.7,3.3-3.7s2.4.1,3.7.3c.3,0,.4.2.4.5v1c0,.3-.2.5-.4.4-1.1-.2-2.1-.3-3.3-.3s-1.7.5-1.7,2c0,2.5.2,4.9.6,7.4,0,.3-.1.5-.4.5h-1.1c-.3,0-.4-.1-.5-.4-.4-2.5-.6-4.9-.6-7.6ZM295.1,128.1c0-.4-.2-.5-.6-.5h-1.1c-.3,0-.4-.1-.4-.4v-1c0-.3.1-.4.4-.4h1c.3,0,.6.1.7.3v-5.8c0-.3.2-.5.4-.5h1.1c.3,0,.4.2.4.5v14.1c0,.3-.2.5-.4.5h-1.1c-.3,0-.4-.2-.4-.5v-6.2ZM285.3,135.1c-3.6,0-5.4-1.1-5.4-3.2s1.8-3.2,5.4-3.2,5.4,1.1,5.4,3.2-1.8,3.2-5.4,3.2ZM288.9,121.9v.5c0,1.8,1.1,3.2,2.6,3.2s.4.1.4.4v.9c0,.3-.1.4-.4.4-1.8,0-3.1-1.1-3.6-2.4-.5,1.3-1.8,2.4-3.6,2.4s-.4-.1-.4-.4v-.9c0-.3.1-.4.4-.4,1.5,0,2.6-1.3,2.6-3.2v-.5s-2.5,0-2.5,0c-.3,0-.4-.1-.4-.4v-.9c0-.3.1-.4.4-.4h7c.3,0,.4.1.4.4v.9c0,.3-.1.4-.4.4h-2.5ZM280.3,125c0-.4-.2-.5-.6-.5h-1.1c-.3,0-.4-.1-.4-.4v-.9c0-.3.1-.4.4-.4h1c.3,0,.6.1.7.3v-2.8c0-.3.2-.5.4-.5h1.1c.3,0,.4.2.4.5v7.2c0,.3-.2.5-.4.5h-1.1c-.3,0-.4-.2-.4-.5v-2.4ZM285.3,130.4c-2.6,0-3.4.6-3.4,1.4s.8,1.4,3.4,1.4,3.4-.6,3.4-1.4-.8-1.4-3.4-1.4ZM269.5,126.3c.4,0,.7-.2.7-.5v-3.4c0-.3-.2-.4-.4-.4h-1.5c-1,0-1.4.7-1.4,1.9s.7,2.5,1.8,2.5h1ZM264.9,127.6v-.9c0-.3.1-.4.4-.4h1.1c-1-.6-1.6-1.9-1.6-3.4s.8-2.8,2.4-2.8h4.1c.5,0,.8.3.8.8v5.6c0,.9-.7,1.5-1.8,1.5h-5c-.3,0-.4-.1-.4-.4ZM262.3,122.4c0,.4.2.5.6.5h.9c.3,0,.4.1.4.4v.9c0,.3-.1.4-.4.4h-.8c-.3,0-.6-.1-.7-.3v5.3c0,.3-.2.5-.4.5h-1.1c-.3,0-.4-.2-.4-.5v-9.6c0-.3.2-.5.4-.5h1.1c.3,0,.4.2.4.5v2.2ZM270.8,131.9c0,2-1.4,3.2-3.7,3.2s-5-.1-6.7-.3c-.3,0-.4-.2-.4-.4v-.9c0-.3.2-.4.5-.4,2,.2,3.7.3,6.7.3s1.7-.5,1.7-1.6,0-1.3-.1-1.7c0-.3.2-.5.4-.5h1c.3,0,.4.2.5.4,0,.4.1,1.2.1,1.9ZM255.2,122.7v4c0,2,1.2,3.7,2.6,3.9.3,0,.4.2.4.5v1c0,.3-.1.4-.4.4-1.6-.2-3.1-1.5-3.6-3.1-.4,1.6-1.9,2.9-3.6,3.1-.3,0-.4-.1-.4-.4v-1c0-.3.1-.4.4-.5,1.4-.2,2.6-1.9,2.6-3.9v-4s-2.5,0-2.5,0c-.3,0-.4-.1-.4-.4v-1c0-.3.1-.4.4-.4h7c.3,0,.4.1.4.4v1c0,.3-.1.4-.4.4h-2.5ZM248.2,125c0,.4.2.5.6.5h1.9c.3,0,.4.1.4.4v1c0,.3-.1.4-.4.4h-1.8c-.3,0-.6-.1-.7-.3v7.3c0,.3-.2.5-.4.5h-1.1c-.3,0-.4-.2-.4-.5v-14.1c0-.3.2-.5.4-.5h1.1c.3,0,.4.2.4.5v4.8ZM235.5,125.4c1.1,0,1.8-.7,1.8-1.9s-.7-1.8-1.8-1.8-1.8.7-1.8,1.8.7,1.9,1.8,1.9ZM226.9,134.3v-.8c0-.3.2-.4.5-.3,1.4.2,3.2.3,4.4.3,3.5,0,4.2,0,4.2-.6s-.5-.6-3.3-.6-3.7,0-4.9,0c-.3,0-.4-.1-.4-.4v-.8c0-.3.1-.4.4-.4h.6c-.7-.2-1.1-.8-1.1-1.5s.5-1.3,1.5-1.4c2.2,0,5.9,0,8.4.2.3,0,.4.1.4.4v.9c0,.3-.1.4-.4.4-1.9-.1-5.5-.2-7.2-.2s-.8.2-.8.6.3.5.9.5c.9,0,1.8,0,2.7,0,3.9,0,5.2.5,5.2,2.2s-1.3,2.3-6.2,2.3-3.1-.1-4.5-.3c-.3,0-.4-.2-.4-.4ZM235.5,120c2.3,0,3.7,1.4,3.7,3.5s-1.5,3.6-3.7,3.6-3.7-1.4-3.7-3.6,1.5-3.5,3.7-3.5ZM229.4,121.8c0,.4.2.5.6.5h.9c.3,0,.4.1.4.4v.9c0,.3-.1.4-.4.4h-.8c-.3,0-.6-.1-.7-.3v2.7c0,.3-.2.5-.4.5h-1.1c-.3,0-.4-.2-.4-.5v-6.3c0-.3.2-.5.4-.5h1.1c.3,0,.4.2.4.5v1.6ZM215.5,125c.9,0,2,0,3,0,3.1,0,4.9,0,6-.2.3,0,.4.1.4.4v.8c0,.3-.1.4-.4.4-1.3.1-3.6.2-5.3.2.1,0,.2.2.2.4v.8c1.3,0,2.5.1,3.6.2.3,0,.4.1.4.4v.8c0,.3-.1.4-.4.4-1.9-.1-5.5-.2-7.2-.2s-.8.2-.8.6.2.5.8.5c.9,0,1.9,0,2.8,0,4,0,5.1.6,5.1,2.2s-1.2,2.3-6.1,2.3-3.3-.1-4.6-.3c-.3,0-.4-.2-.3-.4v-.8c0-.3.2-.4.5-.3,1.3.2,3.2.3,4.5.3,3.5,0,4.1,0,4.1-.6s-.4-.6-3.2-.6-4,0-5,0c-.2,0-.4-.1-.4-.4v-.8c0-.3.1-.4.4-.4h.6c-.7-.2-1.1-.8-1.1-1.5s.4-1.3,1.6-1.4c.8,0,1.8,0,2.9,0v-.8c0-.3-.1-.4-.4-.4-1.3,0-3.4,0-4.6-.2-.3,0-.4-.2-.4-.4v-.8c0-.3.2-.4.4-.4.3,0,.6,0,1,0-.1-.6-.2-1.2-.2-2,0-2,1.1-2.9,3.5-2.9s4.4.1,6.3.3c.3,0,.4.2.4.4v1c0,.3-.2.4-.4.4-2.1-.2-3.9-.3-6.1-.3s-1.7.4-1.7,1.6.1,1,.2,1.5ZM206.4,133.8c-1.6,0-3,0-4.2-.2-.3,0-.4-.2-.4-.5v-1c0-.3.2-.4.4-.4.6.1,1.9.2,3.2.2s.6-.2.6-.5v-4.3c0-.3.2-.5.4-.5h1.1c.3,0,.4.2.4.5v4.1c0,.3-.2.6-.4.7,1,0,1.8-.1,2.7-.3.3,0,.5,0,.5.4v1c0,.3-.1.4-.4.4-1.1.2-2.2.3-3.9.3ZM204.3,124.1c0,1.2.1,2.7.5,4.2,0,.3,0,.4-.3.4l-1.2.2c-.3,0-.4,0-.5-.3-.3-1.4-.5-3.2-.5-4.8s.8-3.3,3.3-3.3,2.8.1,3.7.3c.3,0,.4.2.4.4v1c0,.3-.2.5-.4.4-1.1-.2-2.3-.3-3.5-.3s-1.6.5-1.6,1.8ZM198.8,128.1c0-.4-.2-.5-.6-.5h-1.1c-.3,0-.4-.1-.4-.4v-1c0-.3.1-.4.4-.4h1c.3,0,.6.1.7.3v-5.8c0-.3.2-.5.4-.5h1.1c.3,0,.4.2.4.5v14.1c0,.3-.2.5-.4.5h-1.1c-.3,0-.4-.2-.4-.5v-6.2ZM187.9,122.5l-.4,4.7c.7,0,1.2,0,1.6-.1.3,0,.4.1.4.3v1.1c0,.2-.1.4-.4.4-.4,0-.9,0-1.4.1v2c0,.3-.2.6-.4.7.9,0,1.9-.2,2.8-.3.3,0,.5.1.5.4v.9c0,.3-.1.4-.4.5-1.3.2-3.3.3-6,.3s-4.9-.1-6-.3c-.3,0-.4-.2-.4-.5v-.9c0-.3.2-.4.5-.4.3,0,1.3.2,1.8.2s.6-.2.6-.5v-2.1c-.6,0-1.1,0-1.5-.1-.3,0-.4-.2-.4-.4v-1.1c0-.2.2-.4.4-.3.4,0,.9,0,1.6.1l-.4-4.7h-.9c-.3,0-.4-.1-.4-.4v-1c0-.3.1-.4.4-.4h9.4c.3,0,.4.1.4.4v1c0,.3-.1.4-.4.4h-.9ZM185.6,127.2l.4-4.7h-3.7s.4,4.7.4,4.7c.4,0,.9,0,1.4,0s1,0,1.4,0ZM182.6,130.9c0,.4-.2.6-.5.7,1,0,2.2,0,3,0,.4,0,.6-.2.6-.5v-2.1c-.5,0-1,0-1.6,0s-1.1,0-1.5,0v1.9ZM169.3,135.1c-3.7,0-5.6-1.1-5.6-3.2s1.9-3.2,5.6-3.2,5.6,1.1,5.6,3.2-1.9,3.2-5.6,3.2ZM173.1,121.9v.5c0,1.8,1.1,3.2,2.6,3.2s.4.1.4.4v.9c0,.3-.1.4-.4.4-1.8,0-3.1-1.1-3.6-2.4-.5,1.3-1.8,2.4-3.6,2.4s-.4-.1-.4-.4v-.9c0-.3.1-.4.4-.4,1.5,0,2.6-1.3,2.6-3.2v-.5s-2.5,0-2.5,0c-.3,0-.4-.1-.4-.4v-.9c0-.3.1-.4.4-.4h7c.3,0,.4.1.4.4v.9c0,.3-.1.4-.4.4h-2.5ZM166.1,122.3c0,.4.2.5.6.5h1.3c.3,0,.4.1.4.4v.9c0,.3-.1.4-.4.4h-1.2c-.3,0-.6-.1-.7-.3v3.1c0,.3-.2.5-.4.5h-1.1c-.3,0-.4-.2-.4-.5v-7.2c0-.3.2-.5.4-.5h1.1c.3,0,.4.2.4.5v2.1ZM169.3,130.4c-2.7,0-3.6.6-3.6,1.4s.9,1.4,3.6,1.4,3.6-.6,3.6-1.4-.9-1.4-3.6-1.4ZM155.2,121.5c-2.6,0-3.3.3-3.3,1.1s.8,1.1,3.3,1.1,3.3-.3,3.3-1.1-.8-1.1-3.3-1.1ZM149.5,134.3v-.8c0-.3.2-.4.5-.3,1.3.2,3.2.3,4.5.3,3.5,0,4.1,0,4.1-.6s-.4-.6-3.2-.6-4,0-5,0c-.2,0-.4-.1-.4-.4v-.7c0-.3.1-.4.4-.4h.6c-.7-.2-1.1-.8-1.1-1.4s.4-1.2,1.6-1.2c2.2,0,5.8,0,8.4.2.3,0,.4.1.4.4v.8c0,.3-.1.4-.4.4-1.9-.1-5.5-.2-7.2-.2s-.8.2-.8.5.2.5.9.5c.9,0,1.9,0,2.8,0,4,0,5.1.5,5.1,2.1s-1.2,2.2-6.1,2.2-3.3-.1-4.6-.3c-.3,0-.4-.2-.3-.4ZM155.3,125.9c2,0,4.4,0,6-.2.3,0,.4.1.4.4v.8c0,.3-.1.4-.4.4-1,.1-2.9.2-6,.2-2.4,0-4.8,0-6.1-.2-.3,0-.4-.2-.4-.4v-.8c0-.3.2-.4.4-.4,1.3.1,3.2.2,6,.2ZM155.2,125.2c-3.8,0-5.3-.7-5.3-2.6s1.5-2.6,5.3-2.6,5.3.7,5.3,2.6-1.5,2.6-5.3,2.6ZM130.4,134.3v-.8c0-.3.2-.4.5-.3,1.4.2,3.1.3,4.2.3,3.5,0,4,0,4-.6s-.4-.6-3.1-.6-3.6,0-4.8,0c-.3,0-.4-.1-.4-.4v-.8c0-.3.1-.4.4-.4h.6c-.7-.2-1.1-.8-1.1-1.5s.5-1.3,1.5-1.4c2.2,0,5.6,0,8.1.2.3,0,.4.1.4.4v.9c0,.3-.1.4-.4.4-1.9-.1-5.2-.2-6.9-.2s-.8.2-.8.6.3.5.9.5c.9,0,1.6,0,2.5,0,3.9,0,5,.5,5,2.2s-1.3,2.3-6,2.3-2.9-.1-4.3-.3c-.3,0-.4-.2-.4-.4ZM137.9,120.1h1.1c.3,0,.4.2.4.5v1.5c0,1.7,1.1,3,2.6,3s.4.1.4.4v.9c0,.3-.1.4-.4.4-1.8,0-3.1-1.2-3.6-2.4-.5,1.2-1.8,2.4-3.6,2.4s-.4-.1-.4-.4v-.9c0-.3.1-.4.4-.4,1.5,0,2.6-1.3,2.6-3v-1.5c0-.3.2-.5.4-.5ZM130.8,124.5c0-.4-.2-.5-.6-.5h-1.1c-.3,0-.4-.1-.4-.4v-.9c0-.3.1-.4.4-.4h1c.3,0,.6.1.7.3v-2.3c0-.3.2-.5.4-.5h1.1c.3,0,.4.2.4.5v6.3c0,.3-.2.5-.4.5h-1.1c-.3,0-.4-.2-.4-.5v-2ZM126.5,122.7l-.3,7.9c.5,0,1,0,1.4-.1.3,0,.4.1.4.4v1c0,.3-.1.4-.4.4-.9.1-2.4.2-4,.2s-3.3-.1-4-.2c-.3,0-.4-.1-.4-.4v-1c0-.3.1-.5.4-.4.4,0,.9,0,1.4.1l-.3-7.9h-.8c-.3,0-.4-.1-.4-.4v-1c0-.3.1-.4.4-.4h7.6c.3,0,.4.1.4.4v1c0,.3-.1.4-.4.4h-.8ZM117.6,134.3c0,.3-.2.5-.4.5h-1.1c-.3,0-.4-.2-.4-.5v-14.1c0-.3.2-.5.4-.5h1.1c.3,0,.4.2.4.5v14.1ZM124.6,122.7h-2.1s.3,7.9.3,7.9h1.4s.3-7.9.3-7.9ZM113.2,127.4v.9c0,.3-.1.4-.4.5-1,.1-2.9.2-6,.2-2.4,0-4.8,0-6-.2-.3,0-.4-.2-.4-.5v-.9c0-.3.2-.4.5-.4,1.3.1,3.2.2,6,.2s4.4,0,5.9-.2c.3,0,.5.1.5.4ZM101.9,121.6v-.9c0-.3.1-.4.4-.4,2.1-.1,2.9-.2,3.9-.2,4.4,0,5.9.8,5.9,2.9s-1.5,3-5.7,3-2.5-.1-4.4-.3c-.3,0-.4-.2-.4-.4v-.9c0-.3.2-.4.5-.4,1.5.2,3.1.3,4.5.3,2.7,0,3.5-.3,3.5-1.2s-.9-1.2-3.9-1.2-1.9,0-3.9.2c-.3,0-.4-.1-.4-.4ZM106.8,132.6c-.7,1.3-3,2.4-5.1,2.3-.3,0-.4-.1-.4-.4v-1c0-.3.1-.4.4-.4,2.4,0,4.1-1.1,4.1-2.5v-.4c0-.3.2-.5.4-.5h1.1c.3,0,.4.2.4.5v.4c0,1.5,1.7,2.5,4.1,2.5s.4.1.4.4v1c0,.3-.1.4-.4.4-2.1.1-4.3-1-5.1-2.3ZM94.8,120.6c2.6,0,3.8,1.9,3.8,6.1s-1.2,6.1-3.8,6.1-3.8-1.9-3.8-6.1,1.2-6.1,3.8-6.1ZM93,126.7c0,3,.6,4.2,1.9,4.2s1.9-1.2,1.9-4.2-.6-4.2-1.9-4.2-1.9,1.2-1.9,4.2ZM88.7,134.3c0,.3-.2.5-.4.5h-1.1c-.3,0-.4-.2-.4-.5v-14.1c0-.3.2-.5.4-.5h1.1c.3,0,.4.2.4.5v14.1ZM84.3,134c0,.6-.4,1.1-1,1.2.1.3.3.4.7.4s.2,0,.2.2v.4c0,.1,0,.2-.2.2-1.3,0-2.2-.8-2.2-2.2s.5-1.4,1.3-1.4,1.3.5,1.3,1.2ZM74,131.9c0,2-1.4,3.2-3.7,3.2s-5-.1-6.7-.3c-.3,0-.4-.2-.4-.4v-.9c0-.3.2-.4.5-.4,2,.2,3.7.3,6.7.3s1.7-.5,1.7-1.6,0-1.3-.1-1.7.2-.5.4-.5h1c.3,0,.4.2.5.4,0,.4.1,1.2.1,1.9ZM65.6,129.8c0,.3-.2.5-.4.5h-1.1c-.3,0-.4-.2-.4-.5v-9.6c0-.3.2-.5.4-.5h1.1c.3,0,.4.2.4.5v9.6ZM71.7,120c2.3,0,3.8,1.6,3.8,4.1s-1.5,4.1-3.8,4.1-3.8-1.6-3.8-4.1,1.5-4.1,3.8-4.1ZM71.7,126.5c1.1,0,1.9-.9,1.9-2.4s-.7-2.3-1.9-2.3-1.9.9-1.9,2.3.7,2.4,1.9,2.4ZM54.6,130.8c-2.6,0-3.6.3-3.6,1.2s1.1,1.3,3.6,1.3,3.6-.3,3.6-1.3-1-1.2-3.6-1.2ZM54.8,128.2c-2.4,0-4.8,0-6-.2-.3,0-.4-.2-.4-.5v-.9c0-.3.2-.4.5-.4,1.2.1,4.1.2,5.4.1.3,0,.4-.2.4-.4v-1.9c0-.3.2-.5.4-.5h1.1c.3,0,.4.2.4.5v1.8c0,.2-.1.4-.3.5,1.6,0,3.1,0,4.4-.2.3,0,.5.1.5.4v.9c0,.3-.1.4-.4.5-1,.1-2.9.2-6,.2ZM51.8,125c0,.3,0,.4-.3.4l-1.2.2c-.3,0-.4,0-.5-.3-.2-.7-.2-1.3-.2-2.3,0-2,1.1-2.9,3.5-2.9s4.4.1,6.3.3c.3,0,.4.2.4.4v1c0,.3-.2.4-.4.4-2.1-.2-3.9-.3-6.1-.3s-1.7.4-1.7,1.6,0,1,.2,1.5ZM54.6,135.1c-3.8,0-5.6-.9-5.6-3s1.8-3,5.6-3,5.6.9,5.6,3-1.8,3-5.6,3ZM43.7,122.7v4c0,2,1.2,3.7,2.6,3.9.3,0,.4.2.4.5v1c0,.3-.1.4-.4.4-1.6-.2-3.1-1.5-3.6-3.1-.4,1.6-1.9,2.9-3.6,3.1-.3,0-.4-.1-.4-.4v-1c0-.3.1-.4.4-.5,1.4-.2,2.6-1.9,2.6-3.9v-4s-2.5,0-2.5,0c-.3,0-.4-.1-.4-.4v-1c0-.3.1-.4.4-.4h7c.3,0,.4.1.4.4v1c0,.3-.1.4-.4.4h-2.5ZM36.7,134.3c0,.3-.2.5-.4.5h-1.1c-.3,0-.4-.2-.4-.5v-14.1c0-.3.2-.5.4-.5h1.1c.3,0,.4.2.4.5v14.1ZM320.2,163.1c-3.8,0-5.6-1-5.6-2.9s1.8-2.9,5.6-2.9,5.6.9,5.6,2.9-1.8,2.9-5.6,2.9ZM320.2,159c-2.6,0-3.6.3-3.6,1.2s1.1,1.2,3.6,1.2,3.6-.3,3.6-1.2-1-1.2-3.6-1.2ZM326.7,154.9v.9c0,.3-.1.4-.4.5-1,.1-2.9.2-6,.2-2.4,0-4.8,0-6-.2-.3,0-.4-.2-.4-.5v-.9c0-.3.2-.4.5-.4,1.3.1,3.2.2,6,.2s4.4,0,5.9-.2c.3,0,.5.1.5.4ZM325.3,150.7c0,1.9-1.2,3-3.4,3s-5.1-.1-6.7-.3c-.3,0-.4-.2-.4-.4v-.9c0-.3.2-.4.5-.4,2,.2,3.9.3,6.5.3s1.5-.4,1.5-1.3,0-1.4-.1-2c0-.3.1-.5.4-.5h1c.3,0,.5.2.5.4,0,.6.1,1.5.1,2.1ZM308.3,148.6c2.6,0,3.8,1.9,3.8,6.1s-1.2,6.1-3.8,6.1-3.8-1.9-3.8-6.1,1.2-6.1,3.8-6.1ZM306.4,154.7c0,3,.6,4.2,1.9,4.2s1.9-1.2,1.9-4.2-.6-4.2-1.9-4.2-1.9,1.2-1.9,4.2ZM302.2,162.3c0,.3-.2.5-.4.5h-1.1c-.3,0-.4-.2-.4-.5v-14.1c0-.3.2-.5.4-.5h1.1c.3,0,.4.2.4.5v14.1ZM289,161.1c.4,0,.7-.2.7-.5v-1.7c0-.3-.2-.4-.4-.4h-4.9c-.8,0-1.1.3-1.1,1.1s.7,1.6,1.5,1.6h4.2ZM287.8,155.4h-1.1c-.3,0-.4-.1-.5-.4-.3-1.2-.6-2.7-.6-3.6,0-2.3.9-3.2,3.2-3.2s2.6.1,3.9.3c.3,0,.4.2.4.5v1c0,.3-.2.5-.4.4-1.1-.2-1.9-.3-3.8-.3s-1.3.4-1.3,1.3.3,2.5.6,3.6c0,.3-.1.5-.4.5ZM281.3,158.7c0-1.3.7-2,2.1-2h7.5c.5,0,.8.3.8.8v3.9c0,.9-.7,1.5-1.8,1.5h-8.4c-.3,0-.4-.1-.4-.4v-.9c0-.3.1-.4.4-.4h1.2c-.8-.5-1.4-1.4-1.4-2.4ZM281.7,152.8c0-.4-.2-.5-.6-.5h-1.1c-.3,0-.4-.1-.4-.4v-.9c0-.3.1-.4.4-.4h1c.3,0,.6.1.7.3v-2.6c0-.3.2-.5.4-.5h1.1c.3,0,.4.2.4.5v6.8c0,.3-.2.5-.4.5h-1.1c-.3,0-.4-.2-.4-.5v-2.2ZM271.8,163.1c-3.7,0-5.6-1.1-5.6-3.2s1.9-3.2,5.6-3.2,5.6,1.1,5.6,3.2-1.9,3.2-5.6,3.2ZM275.5,149.9v.5c0,1.8,1.1,3.2,2.6,3.2s.4.1.4.4v.9c0,.3-.1.4-.4.4-1.8,0-3.1-1.1-3.6-2.4-.5,1.3-1.8,2.4-3.6,2.4s-.4-.1-.4-.4v-.9c0-.3.1-.4.4-.4,1.5,0,2.6-1.3,2.6-3.2v-.5s-2.5,0-2.5,0c-.3,0-.4-.1-.4-.4v-.9c0-.3.1-.4.4-.4h7c.3,0,.4.1.4.4v.9c0,.3-.1.4-.4.4h-2.5ZM268.5,150.3c0,.4.2.5.6.5h1.3c.3,0,.4.1.4.4v.9c0,.3-.1.4-.4.4h-1.2c-.3,0-.6-.1-.7-.3v3.1c0,.3-.2.5-.4.5h-1.1c-.3,0-.4-.2-.4-.5v-7.2c0-.3.2-.5.4-.5h1.1c.3,0,.4.2.4.5v2.1ZM271.8,158.4c-2.7,0-3.6.6-3.6,1.4s.9,1.4,3.6,1.4,3.6-.6,3.6-1.4-.9-1.4-3.6-1.4ZM257.6,149.5c-2.6,0-3.3.3-3.3,1.1s.8,1.1,3.3,1.1,3.3-.3,3.3-1.1-.8-1.1-3.3-1.1ZM252,162.3v-.8c0-.3.2-.4.5-.3,1.3.2,3.2.3,4.5.3,3.5,0,4.1,0,4.1-.6s-.4-.6-3.2-.6-4,0-5,0c-.2,0-.4-.1-.4-.4v-.7c0-.3.1-.4.4-.4h.6c-.7-.2-1.1-.8-1.1-1.4s.4-1.2,1.6-1.2c2.2,0,5.8,0,8.4.2.3,0,.4.1.4.4v.8c0,.3-.1.4-.4.4-1.9-.1-5.5-.2-7.2-.2s-.8.2-.8.5.2.5.9.5c.9,0,1.9,0,2.8,0,4,0,5.1.5,5.1,2.1s-1.2,2.2-6.1,2.2-3.3-.1-4.6-.3c-.3,0-.4-.2-.3-.4ZM257.8,153.9c2,0,4.4,0,6-.2.3,0,.4.1.4.4v.8c0,.3-.1.4-.4.4-1,.1-2.9.2-6,.2-2.4,0-4.8,0-6.1-.2-.3,0-.4-.2-.4-.4v-.8c0-.3.2-.4.4-.4,1.3.1,3.2.2,6,.2ZM257.6,153.2c-3.8,0-5.3-.7-5.3-2.6s1.5-2.6,5.3-2.6,5.3.7,5.3,2.6-1.5,2.6-5.3,2.6ZM243.3,159.9c0,2-1.4,3.2-3.7,3.2s-5-.1-6.7-.3c-.3,0-.4-.2-.4-.4v-.9c0-.3.2-.4.5-.4,2,.2,3.7.3,6.7.3s1.7-.5,1.7-1.6,0-1.3-.1-1.7c0-.3.2-.5.4-.5h1c.3,0,.4.2.5.4,0,.4.1,1.2.1,1.9ZM234.9,157.8c0,.3-.2.5-.4.5h-1.1c-.3,0-.4-.2-.4-.5v-9.6c0-.3.2-.5.4-.5h1.1c.3,0,.4.2.4.5v9.6ZM241,148c2.3,0,3.8,1.6,3.8,4.1s-1.5,4.1-3.8,4.1-3.8-1.6-3.8-4.1,1.5-4.1,3.8-4.1ZM241,154.5c1.1,0,1.9-.9,1.9-2.4s-.7-2.3-1.9-2.3-1.9.9-1.9,2.3.7,2.4,1.9,2.4ZM218.9,159.8c0-1.9,1-2.7,3.3-2.7s5,.1,6.8.3c.3,0,.4.2.4.4v.9c0,.3-.1.4-.4.4-2.1-.2-4.1-.3-6.6-.3s-1.6.3-1.6,1.4,0,1.6,0,2.2c0,.3-.2.5-.4.5h-1c-.3,0-.5-.2-.5-.4,0-.6,0-1.5,0-2.7ZM226.2,148.1h1.1c.3,0,.4.2.4.5v2c0,1.9,1.1,3.3,2.6,3.3s.4.1.4.4v.9c0,.3-.1.4-.4.4-1.8,0-3.1-1.2-3.6-2.5-.5,1.3-1.8,2.5-3.6,2.5s-.4-.1-.4-.4v-.9c0-.3.1-.4.4-.4,1.5,0,2.6-1.4,2.6-3.3v-2c0-.3.2-.5.4-.5ZM220.8,155.4c0,.3-.2.5-.4.5h-1.1c-.3,0-.4-.2-.4-.5v-7.2c0-.3.2-.5.4-.5h1.1c.3,0,.4.2.4.5v7.2ZM210.9,156.3c0,1.5.7,2.3,1.8,2.3s1.8-.8,1.8-2.3-.6-2.3-1.8-2.3-1.8.8-1.8,2.3ZM212.7,152.1c2.3,0,3.7,1.5,3.7,4.2s-1.4,4.2-3.7,4.2-3.7-1.5-3.7-4.2,1.4-4.2,3.7-4.2ZM205,156.1c0-.4-.2-.5-.6-.5h-1.1c-.3,0-.4-.1-.4-.4v-1c0-.3.1-.4.4-.4h1c.3,0,.6.1.7.3v-5.8c0-.3.2-.5.4-.5h1.1c.3,0,.4.2.4.5v14.1c0,.3-.2.5-.4.5h-1.1c-.3,0-.4-.2-.4-.5v-6.2ZM211.7,148.8v-1.1c0-.3.1-.4.4-.4h1.1c.3,0,.4.1.4.4v.9c0,.2-.1.4-.3.5h3.1c.3,0,.4.1.4.4v1c0,.3-.1.4-.4.4h-7.6c-.3,0-.4-.1-.4-.4v-1c0-.3.1-.4.4-.4h2.4c.3,0,.4,0,.4-.3ZM195.2,161.5c-2.7,0-4.9-.1-6-.3-.3,0-.4-.2-.4-.5v-.9c0-.3.2-.4.5-.4,1.1.1,3.4.3,5.2.3s.6-.2.6-.5v-3.9c0-.3.2-.5.4-.5h1.1c.3,0,.4.2.4.5v3.7c0,.3-.2.6-.4.7,1.4,0,3.1-.2,4.6-.3.3,0,.5.1.5.4v.9c0,.3-.1.4-.4.5-1.3.2-3.3.3-6,.3ZM194.4,150.5c-1.8,0-2.4.7-2.4,2.6s.1,2.3.3,3.2c0,.3,0,.4-.3.4l-1.2.2c-.3,0-.4,0-.5-.3-.2-1.2-.3-2.2-.3-3.9,0-2.7,1.4-4.1,4-4.1s3.9,0,5.8.3c.3,0,.4.2.4.4v1c0,.3-.2.4-.4.4-1.7-.2-3.4-.3-5.4-.3ZM186.7,162c0,.6-.4,1.1-1,1.2.1.3.3.4.7.4s.2,0,.2.2v.4c0,.1,0,.2-.2.2-1.3,0-2.2-.8-2.2-2.2s.5-1.4,1.3-1.4,1.3.5,1.3,1.2ZM170.5,160.5c-.3,0-.4-.1-.4-.4v-1c0-.3.1-.4.4-.5,1.4-.2,2.6-1.9,2.6-3.9v-5.5c0-.3.2-.5.4-.5h1.1c.3,0,.4.2.4.5v5.5c0,2,1.2,3.7,2.6,3.9.3,0,.4.2.4.5v1c0,.3-.1.4-.4.4-1.6-.2-3.1-1.5-3.6-3.1-.4,1.6-1.9,2.9-3.6,3.1ZM166.4,156.1c0-.4-.2-.5-.6-.5h-1.1c-.3,0-.4-.1-.4-.4v-1c0-.3.1-.4.4-.4h1c.3,0,.6.1.7.3v-5.8c0-.3.2-.5.4-.5h1.1c.3,0,.4.2.4.5v14.1c0,.3-.2.5-.4.5h-1.1c-.3,0-.4-.2-.4-.5v-6.2ZM159.3,161.1c.4,0,.7-.2.7-.5v-1.3c0-.3-.2-.4-.4-.4h-4.9c-.8,0-1.1.2-1.1.9s.7,1.4,1.5,1.4h4.2ZM155,154.7l.2-.9c0-.2.2-.3.3-.3s.1,0,.2,0c.9.3,2.1.5,2.9.5,1.9,0,2.4-.1,2.4-.7s-.6-.7-2.9-.7-1.4,0-2.2,0c-.3,0-.4-.1-.4-.4v-.8c0-.3.1-.4.4-.4h.4c-.6-.3-.9-.8-.9-1.5,0-1.1.8-1.5,3-1.5,1.5,0,2.5,0,3.6.2.3,0,.4.2.4.4v.9c0,.3-.2.4-.4.4-1.3-.2-2.6-.2-3.2-.2-1,0-1.4.1-1.4.5s.4.6,1.3.6c3.2,0,4.3.6,4.3,2.4s-1.1,2.5-3.9,2.5-2.9-.3-3.8-.6c-.3-.1-.4-.3-.3-.5ZM151.5,158.8c0-1.2.7-1.8,2.1-1.8h7.5c.5,0,.8.3.8.8v3.6c0,.9-.7,1.5-1.8,1.5h-8.4c-.3,0-.4-.1-.4-.4v-.9c0-.3.1-.4.4-.4h1.2c-.8-.4-1.4-1.3-1.4-2.3ZM151.6,153c0-.4-.2-.5-.6-.5h-1.1c-.3,0-.4-.1-.4-.4v-.9c0-.3.1-.4.4-.4h1c.3,0,.6.1.7.3v-2.8c0-.3.2-.5.4-.5h1.1c.3,0,.4.2.4.5v7.2c0,.3-.2.5-.4.5h-1.1c-.3,0-.4-.2-.4-.5v-2.4ZM144.3,160c1.6,0,2.9-.1,4-.3.3,0,.5,0,.5.4v1c0,.3-.1.4-.4.4-1.1.2-2.4.3-4.1.3s-3.2,0-4.4-.2c-.3,0-.4-.2-.4-.5v-1c0-.3.2-.4.4-.4,1.1.2,2.7.3,4.3.3ZM144.2,157.5c-2.3,0-3.8-1.8-3.8-4.6s1.5-4.6,3.8-4.6,3.8,1.8,3.8,4.6-1.5,4.6-3.8,4.6ZM146.1,152.9c0-1.6-.7-2.8-1.9-2.8s-1.9,1.1-1.9,2.8.7,2.8,1.9,2.8,1.9-1.1,1.9-2.8ZM136.5,148.2c0-.3.2-.5.4-.5h1.1c.3,0,.4.2.4.5v14.1c0,.3-.2.5-.4.5h-1.1c-.3,0-.4-.2-.4-.5v-14.1ZM126.6,150.5l-.4,4.7c.7,0,1.2,0,1.6-.1.3,0,.4.1.4.3v1.1c0,.2-.1.4-.4.4-.4,0-.9,0-1.4.1v2c0,.3-.2.6-.4.7.9,0,1.9-.2,2.8-.3.3,0,.5.1.5.4v.9c0,.3-.1.4-.4.5-1.3.2-3.3.3-6,.3s-4.9-.1-6-.3c-.3,0-.4-.2-.4-.5v-.9c0-.3.2-.4.5-.4.3,0,1.3.2,1.8.2s.6-.2.6-.5v-2.1c-.6,0-1.1,0-1.5-.1-.3,0-.4-.2-.4-.4v-1.1c0-.2.2-.4.4-.3.4,0,.9,0,1.6.1l-.4-4.7h-.9c-.3,0-.4-.1-.4-.4v-1c0-.3.1-.4.4-.4h9.4c.3,0,.4.1.4.4v1c0,.3-.1.4-.4.4h-.9ZM124.2,155.2l.4-4.7h-3.7s.4,4.7.4,4.7c.4,0,.9,0,1.4,0s1,0,1.4,0ZM121.3,158.9c0,.4-.2.6-.5.7,1,0,2.2,0,3,0,.4,0,.6-.2.6-.5v-2.1c-.5,0-1,0-1.6,0s-1.1,0-1.5,0v1.9ZM108,163.1c-3.7,0-5.6-1.1-5.6-3.2s1.9-3.2,5.6-3.2,5.6,1.1,5.6,3.2-1.9,3.2-5.6,3.2ZM111.8,149.9v.5c0,1.8,1.1,3.2,2.6,3.2s.4.1.4.4v.9c0,.3-.1.4-.4.4-1.8,0-3.1-1.1-3.6-2.4-.5,1.3-1.8,2.4-3.6,2.4s-.4-.1-.4-.4v-.9c0-.3.1-.4.4-.4,1.5,0,2.6-1.3,2.6-3.2v-.5s-2.5,0-2.5,0c-.3,0-.4-.1-.4-.4v-.9c0-.3.1-.4.4-.4h7c.3,0,.4.1.4.4v.9c0,.3-.1.4-.4.4h-2.5ZM104.8,150.3c0,.4.2.5.6.5h1.3c.3,0,.4.1.4.4v.9c0,.3-.1.4-.4.4h-1.2c-.3,0-.6-.1-.7-.3v3.1c0,.3-.2.5-.4.5h-1.1c-.3,0-.4-.2-.4-.5v-7.2c0-.3.2-.5.4-.5h1.1c.3,0,.4.2.4.5v2.1ZM108,158.4c-2.7,0-3.6.6-3.6,1.4s.9,1.4,3.6,1.4,3.6-.6,3.6-1.4-.9-1.4-3.6-1.4ZM93.8,149.5c-2.6,0-3.3.3-3.3,1.1s.8,1.1,3.3,1.1,3.3-.3,3.3-1.1-.8-1.1-3.3-1.1ZM88.2,162.3v-.8c0-.3.2-.4.5-.3,1.3.2,3.2.3,4.5.3,3.5,0,4.1,0,4.1-.6s-.4-.6-3.2-.6-4,0-5,0c-.2,0-.4-.1-.4-.4v-.7c0-.3.1-.4.4-.4h.6c-.7-.2-1.1-.8-1.1-1.4s.4-1.2,1.6-1.2c2.2,0,5.8,0,8.4.2.3,0,.4.1.4.4v.8c0,.3-.1.4-.4.4-1.9-.1-5.5-.2-7.2-.2s-.8.2-.8.5.2.5.9.5c.9,0,1.9,0,2.8,0,4,0,5.1.5,5.1,2.1s-1.2,2.2-6.1,2.2-3.3-.1-4.6-.3c-.3,0-.4-.2-.3-.4ZM94,153.9c2,0,4.4,0,6-.2.3,0,.4.1.4.4v.8c0,.3-.1.4-.4.4-1,.1-2.9.2-6,.2-2.4,0-4.8,0-6.1-.2-.3,0-.4-.2-.4-.4v-.8c0-.3.2-.4.4-.4,1.3.1,3.2.2,6,.2ZM93.8,153.2c-3.8,0-5.3-.7-5.3-2.6s1.5-2.6,5.3-2.6,5.3.7,5.3,2.6-1.5,2.6-5.3,2.6ZM70.7,152.3c1.6,0,2.1-.3,2.1-1.2s-.5-1.2-2.1-1.2-.7,0-1,0c-.3,0-.4,0-.4-.4v-.9c0-.3.1-.4.4-.5.3,0,.6,0,1,0,2.7,0,3.9.9,3.9,3s0,.7-.1,1c.4.1.9.2,1.4.2,1.5,0,2-.3,2-1.2s-.4-1.2-1.8-1.2-.5,0-.9,0c-.3,0-.4,0-.4-.4v-.9c0-.3.1-.4.4-.5.3,0,.6,0,1,0,2.4,0,3.5.9,3.5,3s-1.1,3-3.7,3-.6,0-.8,0v.8c0,.2-.1.4-.3.5,1.7,0,3.9,0,5.2-.2.3,0,.5.1.5.4v.9c0,.3-.1.4-.4.5-1,.1-2.9.2-6,.2-2.4,0-4.8,0-6-.2-.3,0-.4-.2-.4-.5v-.9c0-.3.2-.4.5-.4,1.2.1,3.2.2,4.6.1.3,0,.4-.2.4-.4v-1.2c-.6.3-1.4.4-2.5.4s-1,0-1.6-.2c-.2,0-.4-.3-.3-.5v-.9c.1-.3.3-.4.6-.3.4,0,.8.1,1.2.1ZM69,160.5c0-2,.9-2.7,3.2-2.7s4.7.1,7,.3c.3,0,.4.2.4.4v.9c0,.3-.1.4-.4.4-2.3-.2-4.7-.3-6.9-.3s-1.4.3-1.4,1.4,0,1,0,1.4c0,.3-.2.5-.4.5h-1c-.3,0-.5-.2-.5-.4,0-.5-.1-1-.1-2ZM60.8,154.9h-1.1c-.3,0-.4-.1-.5-.4-.2-.8-.6-2.2-.6-3.3,0-2.2.8-3,3-3s2.7.1,4,.3c.3,0,.4.2.4.5v1c0,.3-.2.5-.4.4-1.1-.2-2-.3-3.9-.3s-1.1.3-1.1,1.1.3,2.2.6,3.3c0,.3-.1.5-.4.5ZM64.8,156.3v.8c0,.3-.1.4-.4.4h-9.4c-.3,0-.4-.1-.4-.4v-.8c0-.3.1-.4.4-.4h9.4c.3,0,.4.1.4.4ZM54.7,152.5c0-.4-.2-.5-.6-.5h-1.1c-.3,0-.4-.1-.4-.4v-.9c0-.3.1-.4.4-.4h1c.3,0,.6.1.7.3v-2.3c0-.3.2-.5.4-.5h1.1c.3,0,.4.2.4.5v6.3c0,.3-.2.5-.4.5h-1.1c-.3,0-.4-.2-.4-.5v-2ZM59.6,158.4c3.9,0,5.3.6,5.3,2.3s-1.3,2.4-5.3,2.4-3.8-.1-5-.2c-.3,0-.4-.2-.4-.4v-.9c0-.3.2-.4.5-.3,1.2.2,2.7.2,4.9.2s3.4-.2,3.4-.8-.7-.7-3.2-.7-3,0-4.8.1c-.3,0-.4-.1-.4-.4v-.8c0-.3,0-.4.3-.4,1.1,0,2.8-.1,4.7-.1ZM47.6,148.6c2.6,0,3.8,1.9,3.8,6.1s-1.2,6.1-3.8,6.1-3.8-1.9-3.8-6.1,1.2-6.1,3.8-6.1ZM45.8,154.7c0,3,.6,4.2,1.9,4.2s1.9-1.2,1.9-4.2-.6-4.2-1.9-4.2-1.9,1.2-1.9,4.2ZM41.5,162.3c0,.3-.2.5-.4.5h-1.1c-.3,0-.4-.2-.4-.5v-14.1c0-.3.2-.5.4-.5h1.1c.3,0,.4.2.4.5v14.1ZM323.6,186.8c1.2,0,1.7-1.1,1.7-4s-.3-4.1-1.4-4.1-.4,0-.6,0c-.3,0-.4,0-.4-.4v-1c0-.3.1-.4.4-.5.2,0,.5,0,.8,0,2.2,0,3.1,1.6,3.1,5.9s-1.2,5.9-3.3,5.9-1.2-.1-1.8-.3c-.2,0-.4-.3-.3-.5v-.3c-.5.7-1.2,1.1-2,1.1s-1.1,0-1.5-.3c-.2,0-.4-.3-.3-.5l.2-1c0-.2.1-.4.3-.4s.1,0,.2,0c.4.1.7.2,1,.2,1.1,0,1.5-1,1.5-4s-.3-4.1-1.4-4.1-.5,0-.7,0c-.3,0-.4,0-.4-.4v-1c0-.3.1-.4.4-.5.2,0,.5,0,.9,0,2.3,0,3.1,1.6,3.1,5.9s-.2,2.8-.5,3.7c0,0,0,0,0,0,.5.2.9.3,1.2.3ZM315.1,184.1c0-.4-.2-.5-.6-.5h-.8c-.3,0-.4-.1-.4-.4v-1c0-.3.1-.4.4-.4h.7c.3,0,.6.1.7.3v-5.8c0-.3.2-.5.4-.5h1.1c.3,0,.4.2.4.5v14.1c0,.3-.2.5-.4.5h-1.1c-.3,0-.4-.2-.4-.5v-6.2ZM310,185.2c0-1.2-.7-1.7-2.7-1.7s-1.4,0-2.3,0-.4-.1-.4-.4v-.9c0-.3.1-.4.4-.4h.5c-.7-.5-1.1-1.4-1.1-2.5,0-1.6,1.1-2.5,3.1-2.5s2.2,0,3.5.2c.3,0,.4.2.4.4v1.1c0,.3-.2.4-.4.4-1.4-.2-2.4-.3-3-.3-1.1,0-1.6.5-1.6,1.5s.5,1.5,1.5,1.5c2.8,0,4.1,1.1,4.1,3.4s-1.3,3.6-4,3.6-2.3-.2-3.7-.7c-.3-.1-.4-.3-.3-.5l.3-1c0-.2.2-.3.3-.3s.1,0,.2,0c1,.4,1.9.6,2.8.6,1.8,0,2.5-.5,2.5-1.7ZM300.6,184.1c0-.4-.2-.5-.6-.5h-1.1c-.3,0-.4-.1-.4-.4v-1c0-.3.1-.4.4-.4h1c.3,0,.6.1.7.3v-5.8c0-.3.2-.5.4-.5h1.1c.3,0,.4.2.4.5v14.1c0,.3-.2.5-.4.5h-1.1c-.3,0-.4-.2-.4-.5v-6.2ZM291.7,184.3c0,1.5.7,2.3,1.8,2.3s1.8-.8,1.8-2.3-.6-2.3-1.8-2.3-1.8.8-1.8,2.3ZM293.5,180.1c2.3,0,3.7,1.5,3.7,4.2s-1.4,4.2-3.7,4.2-3.7-1.5-3.7-4.2,1.4-4.2,3.7-4.2ZM285.8,184.1c0-.4-.2-.5-.6-.5h-1.1c-.3,0-.4-.1-.4-.4v-1c0-.3.1-.4.4-.4h1c.3,0,.6.1.7.3v-5.8c0-.3.2-.5.4-.5h1.1c.3,0,.4.2.4.5v14.1c0,.3-.2.5-.4.5h-1.1c-.3,0-.4-.2-.4-.5v-6.2ZM292.4,176.8v-1.1c0-.3.1-.4.4-.4h1.1c.3,0,.4.1.4.4v.9c0,.2-.1.4-.3.5h3.1c.3,0,.4.1.4.4v1c0,.3-.1.4-.4.4h-7.6c-.3,0-.4-.1-.4-.4v-1c0-.3.1-.4.4-.4h2.4c.3,0,.4,0,.4-.3ZM279.8,186.6c.4,0,.7-.2.7-.5v-7c0-.3-.2-.4-.4-.4h-1.3c-1.3,0-1.7.9-1.7,3.8s.7,4.2,1.9,4.2h.8ZM281.6,176.8c.5,0,.8.3.8.8v9.4c0,.9-.7,1.5-1.8,1.5h-5c-.3,0-.4-.1-.4-.4v-1c0-.3.1-.4.4-.4h1.1c-1-1.1-1.6-3.1-1.6-5.6s.8-4.2,3.2-4.2h3.3ZM273.2,178.9h.9c.3,0,.4.1.4.4v1c0,.3-.1.4-.4.4h-.8c-.3,0-.6-.1-.7-.3v3.2c0,.4.2.5.6.5h.9c.3,0,.4.1.4.4v1c0,.3-.1.4-.4.4h-.8c-.3,0-.6-.1-.7-.3v4.6c0,.3-.2.5-.4.5h-1.1c-.3,0-.4-.2-.4-.5v-14.1c0-.3.2-.5.4-.5h1.1c.3,0,.4.2.4.5v2.2c0,.4.2.5.6.5ZM262.2,187.9c0,2-1.4,3.2-3.7,3.2s-5-.1-6.7-.3c-.3,0-.4-.2-.4-.4v-.9c0-.3.2-.4.5-.4,2,.2,3.7.3,6.7.3s1.7-.5,1.7-1.6,0-1.3-.1-1.7c0-.3.2-.5.4-.5h1c.3,0,.4.2.5.4,0,.4.1,1.2.1,1.9ZM253.8,185.8c0,.3-.2.5-.4.5h-1.1c-.3,0-.4-.2-.4-.5v-9.6c0-.3.2-.5.4-.5h1.1c.3,0,.4.2.4.5v9.6ZM259.9,176c2.3,0,3.8,1.6,3.8,4.1s-1.5,4.1-3.8,4.1-3.8-1.6-3.8-4.1,1.5-4.1,3.8-4.1ZM259.9,182.5c1.1,0,1.9-.9,1.9-2.4s-.7-2.3-1.9-2.3-1.9.9-1.9,2.3.7,2.4,1.9,2.4ZM244.1,184.1h-1.1c-.3,0-.4-.1-.5-.4-.3-1.4-.6-3.2-.6-4.2,0-2.3,1-3.3,3.3-3.3s2.5.1,3.8.3c.3,0,.4.2.4.5v1c0,.3-.2.5-.4.4-1.1-.2-1.8-.3-3.7-.3s-1.4.4-1.4,1.4.3,2.9.6,4.2c0,.3,0,.5-.4.5ZM238,182.2c0-.4-.2-.5-.6-.5h-1.1c-.3,0-.4-.1-.4-.4v-.9c0-.3.1-.4.4-.4h1c.3,0,.6.1.7.3v-4c0-.3.2-.5.4-.5h1.1c.3,0,.4.2.4.5v9.6c0,.3-.2.5-.4.5h-1.1c-.3,0-.4-.2-.4-.5v-3.6ZM248.1,187.9c0,2-1.4,3.2-3.7,3.2s-4.7-.1-6.4-.3c-.3,0-.4-.2-.4-.4v-.9c0-.3.2-.4.5-.4,2,.2,3.5.3,6.4.3s1.7-.5,1.7-1.6,0-1.3-.1-1.7c0-.3.2-.5.4-.5h1c.3,0,.4.2.5.4,0,.4.1,1.2.1,1.9ZM230.8,189.8c-1.6,0-3,0-4.2-.2-.3,0-.4-.2-.4-.5v-1c0-.3.2-.4.4-.4.6.1,1.9.2,3.2.2s.6-.2.6-.5v-4.3c0-.3.2-.5.4-.5h1.1c.3,0,.4.2.4.5v4.1c0,.3-.2.6-.4.7,1,0,1.8-.1,2.7-.3.3,0,.5,0,.5.4v1c0,.3-.1.4-.4.4-1.1.2-2.2.3-3.9.3ZM228.7,180.1c0,1.2.1,2.7.5,4.2,0,.3,0,.4-.3.4l-1.2.2c-.3,0-.4,0-.5-.3-.3-1.4-.5-3.2-.5-4.8s.8-3.3,3.3-3.3,2.8.1,3.7.3c.3,0,.4.2.4.4v1c0,.3-.2.5-.4.4-1.1-.2-2.3-.3-3.5-.3s-1.6.5-1.6,1.8ZM223.2,184.1c0-.4-.2-.5-.6-.5h-1.1c-.3,0-.4-.1-.4-.4v-1c0-.3.1-.4.4-.4h1c.3,0,.6.1.7.3v-5.8c0-.3.2-.5.4-.5h1.1c.3,0,.4.2.4.5v14.1c0,.3-.2.5-.4.5h-1.1c-.3,0-.4-.2-.4-.5v-6.2ZM208.6,189.5c-2.6,0-4.9-.1-6-.3-.3,0-.4-.2-.4-.5v-.9c0-.3.2-.4.5-.4,1.2.2,2.9.3,4.4.3s.6-.2.6-.5v-2.1c0-.3.2-.5.4-.5h1.1c.3,0,.4.2.4.5v2c0,.3-.2.6-.4.7,1.9,0,4.2-.2,5.4-.3.3,0,.5.1.5.4v.9c0,.3-.1.4-.4.5-1.3.2-3.3.3-6,.3ZM203.9,184.9c-.3,0-.6,0-.6-.4v-1.1c0-.3.1-.4.4-.4,2.3,0,3.8-1.5,3.8-3.6v-2.4c0-.3.2-.5.4-.5h1.1c.3,0,.4.2.4.5v2.4c0,2.1,1.6,3.6,3.8,3.6s.4.1.4.4v1.1c0,.4-.3.4-.6.4-2,0-3.9-1.2-4.7-2.8-.7,1.7-2.6,2.8-4.6,2.8ZM193.8,178.3c4.1,0,5.2.5,5.2,2s-.8,2-4.3,2.1v.5c0,.2-.1.4-.3.5,1.7,0,4,0,5.3-.2.3,0,.4.1.4.4v.8c0,.3-.1.4-.4.4-1,.1-2.9.2-6,.2-2.4,0-4.8,0-6.1-.2-.3,0-.4-.2-.4-.4v-.8c0-.3.1-.4.4-.4,1.2.1,3.3.2,4.6.1.3,0,.4-.2.4-.4v-.6c-1.4,0-2.7,0-3.9-.2-.3,0-.4-.2-.4-.4v-.8c0-.3.2-.4.5-.3,1.1.2,2.7.2,4.8.2s3.3-.1,3.3-.6-.5-.5-3.1-.5-2.9,0-4.7.1c-.3,0-.4-.1-.4-.4v-.8c0-.3,0-.4.3-.4,1.1,0,2.7-.1,4.6-.1ZM193.7,191.1c-3.8,0-5.6-.8-5.6-2.7s1.8-2.7,5.6-2.7,5.6.8,5.6,2.7-1.8,2.7-5.6,2.7ZM198.9,176.5v.7c0,.3-.1.4-.4.4h-9.3c-.3,0-.4-.1-.4-.4v-.7c0-.3.1-.4.4-.4h9.3c.3,0,.4.1.4.4ZM193.7,187.3c-2.6,0-3.6.3-3.6,1.1s1.1,1.1,3.6,1.1,3.6-.3,3.6-1.1-1-1.1-3.6-1.1ZM180,184.3c0,1.5.7,2.3,1.8,2.3s1.8-.8,1.8-2.3-.6-2.3-1.8-2.3-1.8.8-1.8,2.3ZM181.7,180.1c2.3,0,3.7,1.5,3.7,4.2s-1.4,4.2-3.7,4.2-3.7-1.5-3.7-4.2,1.4-4.2,3.7-4.2ZM174.1,184.1c0-.4-.2-.5-.6-.5h-1.1c-.3,0-.4-.1-.4-.4v-1c0-.3.1-.4.4-.4h1c.3,0,.6.1.7.3v-5.8c0-.3.2-.5.4-.5h1.1c.3,0,.4.2.4.5v14.1c0,.3-.2.5-.4.5h-1.1c-.3,0-.4-.2-.4-.5v-6.2ZM180.7,176.8v-1.1c0-.3.1-.4.4-.4h1.1c.3,0,.4.1.4.4v.9c0,.2-.1.4-.3.5h3.1c.3,0,.4.1.4.4v1c0,.3-.1.4-.4.4h-7.6c-.3,0-.4-.1-.4-.4v-1c0-.3.1-.4.4-.4h2.4c.3,0,.4,0,.4-.3ZM169.2,179.3c0,2-1.2,3.1-3.5,3.1s-5-.1-6.7-.3c-.3,0-.4-.2-.4-.4v-.9c0-.3.2-.4.5-.4,2,.2,3.8.3,6.4.3s1.6-.4,1.6-1.4,0-1.9-.1-2.6c0-.3.1-.5.4-.5h1c.3,0,.5.2.5.4,0,.8.1,2.1.1,2.7ZM169.5,188c0,2-1.3,3.1-3.6,3.1s-5.3-.1-7-.3c-.3,0-.4-.2-.4-.4v-.9c0-.3.2-.4.5-.4,2,.2,3.9.3,7,.3s1.6-.4,1.6-1.4,0-.8-.1-1.2c0-.3.1-.5.4-.5h1c.3,0,.5.2.5.4,0,.3.1.8.1,1.3ZM170.6,183.8v.9c0,.3-.1.4-.4.5-1,.1-2.9.2-6,.2-2.4,0-4.8,0-6-.2-.3,0-.4-.2-.4-.5v-.9c0-.3.2-.4.5-.4,1.3.1,3.2.2,6,.2s4.4,0,5.9-.2c.3,0,.5.1.5.4ZM143.6,180.5c0-2.6,1-3.7,3.3-3.7s2.4.1,3.7.3c.3,0,.4.2.4.5v1c0,.3-.2.5-.4.4-1.1-.2-2.1-.3-3.3-.3s-1.7.5-1.7,2c0,2.5.2,4.9.6,7.4,0,.3-.1.5-.4.5h-1.1c-.3,0-.4-.1-.5-.4-.4-2.5-.6-4.9-.6-7.6ZM141.4,190.3c0,.3-.2.5-.4.5h-1.1c-.3,0-.4-.2-.4-.5v-14.1c0-.3.2-.5.4-.5h1.1c.3,0,.4.2.4.5v14.1ZM124.8,190.3v-.8c0-.3.2-.4.5-.3,1.3.2,3.2.3,4.5.3,3.5,0,4.1,0,4.1-.6s-.4-.6-3.2-.6-4,0-5,0c-.2,0-.4-.1-.4-.4v-.7c0-.3.1-.4.4-.4h.6c-.7-.2-1.1-.8-1.1-1.4s.4-1.2,1.6-1.2c.8,0,1.8,0,2.9,0v-.4c0-.3-.1-.4-.4-.4-1.3,0-3.4,0-4.6-.2-.3,0-.4-.2-.4-.4v-.8c0-.3.2-.4.4-.4,1.2.1,3.6.2,6,.2,3.1,0,4.9,0,6-.2.3,0,.4.1.4.4v.8c0,.3-.1.4-.4.4-1.3.1-3.6.2-5.3.2.1,0,.2.2.2.4v.5c1.3,0,2.5.1,3.6.2.3,0,.4.1.4.4v.8c0,.3-.1.4-.4.4-1.9-.1-5.5-.2-7.2-.2s-.8.2-.8.5.2.5.9.5c.9,0,1.9,0,2.8,0,4,0,5.1.5,5.1,2.1s-1.2,2.2-6.1,2.2-3.3-.1-4.6-.3c-.3,0-.4-.2-.3-.4ZM131,176.1c.3,0,.4.2.4.5v.2c0,1.4,1.5,2.7,3.9,2.7s.4.1.4.4v.9c0,.3-.1.4-.4.4-2,.1-4.1-1.1-4.8-2.3-.7,1.3-2.8,2.4-4.8,2.3-.3,0-.4-.1-.4-.4v-.9c0-.3,0-.4.4-.4,2.3,0,3.9-1.2,3.9-2.7v-.2c0-.3.2-.5.4-.5h1.1ZM118.6,176.6c2.6,0,3.8,1.9,3.8,6.1s-1.2,6.1-3.8,6.1-3.8-1.9-3.8-6.1,1.2-6.1,3.8-6.1ZM116.7,182.7c0,3,.6,4.2,1.9,4.2s1.9-1.2,1.9-4.2-.6-4.2-1.9-4.2-1.9,1.2-1.9,4.2ZM112.5,190.3c0,.3-.2.5-.4.5h-1.1c-.3,0-.4-.2-.4-.5v-14.1c0-.3.2-.5.4-.5h1.1c.3,0,.4.2.4.5v14.1ZM102.9,178.7l-.3,7.8c.4,0,.8,0,1.1-.1.3,0,.4.1.4.4v1c0,.3-.1.4-.4.4-.9.1-2.1.2-3.4.2s-2.7-.1-3.4-.2c-.3,0-.4-.1-.4-.4v-1c0-.3.1-.5.4-.4.3,0,.7,0,1.1.1l-.3-7.8h-.6c-.3,0-.4-.1-.4-.4v-1c0-.3.1-.4.4-.4h6.4c.3,0,.4.1.4.4v1c0,.3-.1.4-.4.4h-.6ZM97.4,182.1v1c0,.3-.1.4-.4.4h-1.4c-.2,0-.5-.1-.6-.3v7.2c0,.3-.1.4-.4.4h-1c-.3,0-.4-.1-.4-.4v-14c0-.3.1-.4.4-.4h1c.3,0,.4.1.4.4v4.8c0,.3.1.5.5.5h1.5c.3,0,.4.1.4.4ZM90.6,175.7h1c.3,0,.4.1.4.4v14.2c0,.3-.1.4-.4.4h-1c-.3,0-.4-.1-.4-.4v-14.2c0-.3.1-.4.4-.4ZM101.1,178.7h-1.6s.3,7.9.3,7.9h1s.3-7.9.3-7.9ZM84.1,176.6c2.6,0,3.8,1.9,3.8,6.1s-1.2,6.1-3.8,6.1-3.8-1.9-3.8-6.1,1.2-6.1,3.8-6.1ZM82.3,182.7c0,3,.6,4.2,1.9,4.2s1.9-1.2,1.9-4.2-.6-4.2-1.9-4.2-1.9,1.2-1.9,4.2ZM78,190.3c0,.3-.2.5-.4.5h-1.1c-.3,0-.4-.2-.4-.5v-14.1c0-.3.2-.5.4-.5h1.1c.3,0,.4.2.4.5v14.1ZM62.5,184.9c-.3,0-.6,0-.6-.4v-1.1c0-.3.1-.4.4-.4,2.3,0,3.8-1.5,3.8-3.6v-2.4c0-.3.2-.5.4-.5h1.1c.3,0,.4.2.4.5v2.4c0,2.1,1.6,3.6,3.8,3.6s.4.1.4.4v1.1c0,.4-.3.4-.6.4-2,0-3.9-1.2-4.7-2.8-.7,1.7-2.6,2.8-4.6,2.8ZM73.6,187.8v.9c0,.3-.1.4-.4.5-1.3.2-3.3.3-6,.3s-4.9-.1-6-.3c-.3,0-.4-.2-.4-.5v-.9c0-.3.2-.4.5-.4,1.3.2,3.6.3,6,.3s4.3-.1,5.9-.3c.3,0,.5.1.5.4ZM52.2,187.4l.3-.9c0-.2.2-.3.4-.3s.2,0,.2,0c.8.4,1.5.6,2.2.6,1.4,0,2-.8,2-2.3s-.7-2.4-2.4-2.4-.8,0-1.6.1c-.3,0-.4-.1-.4-.4v-1c0-.3.1-.4.4-.5.6-.1,1.1-.2,1.9-.2,2.8,0,4.1,1.3,4.1,4.3s-1.4,4.2-3.8,4.2-2-.2-3-.7c-.3-.1-.4-.3-.3-.6ZM52.7,183.5v1c0,.3-.1.4-.4.4h-1.1c-.2,0-.5-.1-.6-.3v5.7c0,.3-.1.4-.4.4h-1c-.3,0-.4-.1-.4-.4v-14c0-.3.1-.4.4-.4h1c.3,0,.4.1.4.4v6.3c0,.3.1.5.5.5h1.2c.3,0,.4.1.4.4ZM46.1,175.7h1c.3,0,.4.1.4.4v14.2c0,.3-.1.4-.4.4h-1c-.3,0-.4-.1-.4-.4v-14.2c0-.3.1-.4.4-.4ZM52.9,178.7c-.3,0-.4-.1-.4-.4v-1c0-.3.1-.4.4-.4h5.7c.3,0,.4.1.4.4v1c0,.3-.1.4-.4.4h-5.7ZM36.1,178.5c-1.8,0-2.4.7-2.4,2.5,2.8,0,5.9.1,7.6.3.3,0,.4.2.4.4v1c0,.3-.1.4-.4.4-1.9-.2-5-.3-7.6-.3,0,.6.1,1.2.2,1.6,0,.3,0,.4-.3.4l-1.2.2c-.3,0-.4,0-.5-.3-.2-1.2-.3-2.4-.3-4.1,0-2.7,1.4-4.1,4-4.1s3.9,0,5.8.3c.3,0,.4.2.4.4v1c0,.3-.2.4-.4.4-1.7-.2-3.4-.3-5.4-.3ZM43.3,187.8v.9c0,.3-.1.4-.4.5-1.3.2-3.3.3-6,.3s-4.9-.1-6-.3c-.3,0-.4-.2-.4-.5v-.9c0-.3.2-.4.5-.4,1.3.2,3.6.3,6,.3s4.3-.1,5.9-.3c.3,0,.5.1.5.4ZM323.1,204.6c2.6,0,3.8,1.9,3.8,6.1s-1.2,6.1-3.8,6.1-3.8-1.9-3.8-6.1,1.2-6.1,3.8-6.1ZM321.2,210.7c0,3,.6,4.2,1.9,4.2s1.9-1.2,1.9-4.2-.6-4.2-1.9-4.2-1.9,1.2-1.9,4.2ZM317,218.3c0,.3-.2.5-.4.5h-1.1c-.3,0-.4-.2-.4-.5v-14.1c0-.3.2-.5.4-.5h1.1c.3,0,.4.2.4.5v14.1ZM307.8,206.7c-.9,0-1.4,0-2.1.2-.3,0-.4-.1-.4-.4v-1c0-.3.1-.4.4-.4.6-.1,1.3-.1,2.3-.1,3.2,0,4.8,1.8,4.8,5.9s-1.5,5.9-4.6,5.9-2-.2-3.1-.7c-.3-.1-.4-.3-.4-.5l.3-1c0-.2.2-.4.3-.4s.1,0,.2,0c1,.4,1.9.6,2.6.6,1.9,0,2.8-1.3,2.8-4s-.8-4.1-2.9-4.1ZM301.3,212.1c0-.4-.2-.5-.6-.5h-1.1c-.3,0-.4-.1-.4-.4v-1c0-.3.1-.4.4-.4h1c.3,0,.6.1.7.3v-5.8c0-.3.2-.5.4-.5h1.1c.3,0,.4.2.4.5v14.1c0,.3-.2.5-.4.5h-1.1c-.3,0-.4-.2-.4-.5v-6.2ZM296.5,219.2c-.8,0-1.3-.5-1.3-1.2s.5-1.2,1.3-1.2,1.3.5,1.3,1.2-.5,1.2-1.3,1.2ZM277,214.7c0-1.3.7-2,2.1-2h7.8c.5,0,.8.3.8.8v3.9c0,.9-.7,1.5-1.8,1.5h-8.8c-.3,0-.4-.1-.4-.4v-.9c0-.3.1-.4.4-.4h1.2c-.8-.5-1.4-1.4-1.4-2.4ZM286.1,205.9v.5c0,1.8,1.1,3.2,2.6,3.2s.4.1.4.4v.9c0,.3-.1.4-.4.4-1.8,0-3.1-1.1-3.6-2.4-.5,1.3-1.8,2.4-3.6,2.4s-.4-.1-.4-.4v-.9c0-.3.1-.4.4-.4,1.5,0,2.6-1.3,2.6-3.2v-.5s-2.5,0-2.5,0c-.3,0-.4-.1-.4-.4v-.9c0-.3.1-.4.4-.4h7c.3,0,.4.1.4.4v.9c0,.3-.1.4-.4.4h-2.5ZM279.1,206.3c0,.4.2.5.6.5h1.3c.3,0,.4.1.4.4v.9c0,.3-.1.4-.4.4h-1.2c-.3,0-.6-.1-.7-.3v2.8c0,.3-.2.5-.4.5h-1.1c-.3,0-.4-.2-.4-.5v-6.8c0-.3.2-.5.4-.5h1.1c.3,0,.4.2.4.5v2.1ZM285.1,217.1c.4,0,.7-.2.7-.5v-1.7c0-.3-.2-.4-.4-.4h-5.2c-.8,0-1.1.3-1.1,1.1s.7,1.6,1.5,1.6h4.6ZM262.9,214.7c0-1.3.7-2,2.1-2h7.8c.5,0,.8.3.8.8v3.9c0,.9-.7,1.5-1.8,1.5h-8.8c-.3,0-.4-.1-.4-.4v-.9c0-.3.1-.4.4-.4h1.2c-.8-.5-1.4-1.4-1.4-2.4ZM271.9,205.9v.5c0,1.8,1.1,3.2,2.6,3.2s.4.1.4.4v.9c0,.3-.1.4-.4.4-1.8,0-3.1-1.1-3.6-2.4-.5,1.3-1.8,2.4-3.6,2.4s-.4-.1-.4-.4v-.9c0-.3.1-.4.4-.4,1.5,0,2.6-1.3,2.6-3.2v-.5s-2.5,0-2.5,0c-.3,0-.4-.1-.4-.4v-.9c0-.3.1-.4.4-.4h7c.3,0,.4.1.4.4v.9c0,.3-.1.4-.4.4h-2.5ZM265,206.3c0,.4.2.5.6.5h1.3c.3,0,.4.1.4.4v.9c0,.3-.1.4-.4.4h-1.2c-.3,0-.6-.1-.7-.3v2.8c0,.3-.2.5-.4.5h-1.1c-.3,0-.4-.2-.4-.5v-6.8c0-.3.2-.5.4-.5h1.1c.3,0,.4.2.4.5v2.1ZM271,217.1c.4,0,.7-.2.7-.5v-1.7c0-.3-.2-.4-.4-.4h-5.2c-.8,0-1.1.3-1.1,1.1s.7,1.6,1.5,1.6h4.6ZM251,206.7c-.9,0-1.4,0-2.1.2-.3,0-.4-.1-.4-.4v-1c0-.3.1-.4.4-.4.6-.1,1.3-.1,2.3-.1,3.2,0,4.8,1.8,4.8,5.9s-1.5,5.9-4.6,5.9-2-.2-3.1-.7c-.3-.1-.4-.3-.4-.5l.3-1c0-.2.2-.4.3-.4s.1,0,.2,0c1,.4,1.9.6,2.6.6,1.9,0,2.8-1.3,2.8-4s-.8-4.1-2.9-4.1ZM246.1,209.1c0,.4.2.5.6.5h2.6c.3,0,.4.1.4.4v1c0,.3-.1.4-.4.4h-2.5c-.3,0-.6-.1-.7-.3v7.2c0,.3-.2.5-.4.5h-1.1c-.3,0-.4-.2-.4-.5v-14.1c0-.3.2-.5.4-.5h1.1c.3,0,.4.2.4.5v4.9ZM229.7,216.5c-.3,0-.4-.1-.4-.4v-1c0-.3.1-.4.4-.5,1.4-.2,2.6-1.9,2.6-3.9v-5.5c0-.3.2-.5.4-.5h1.1c.3,0,.4.2.4.5v5.5c0,2,1.2,3.7,2.6,3.9.3,0,.4.2.4.5v1c0,.3-.1.4-.4.4-1.6-.2-3.1-1.5-3.6-3.1-.4,1.6-1.9,2.9-3.6,3.1ZM225.6,212.1c0-.4-.2-.5-.6-.5h-1.1c-.3,0-.4-.1-.4-.4v-1c0-.3.1-.4.4-.4h1c.3,0,.6.1.7.3v-5.8c0-.3.2-.5.4-.5h1.1c.3,0,.4.2.4.5v14.1c0,.3-.2.5-.4.5h-1.1c-.3,0-.4-.2-.4-.5v-6.2ZM219.2,213.7v1.6c0,.3-.2.6-.4.7,1.2,0,2.6-.1,3.5-.3.3,0,.5,0,.5.4v1c0,.3-.1.4-.4.4-1.1.2-2.4.3-4.1.3s-3.2,0-4.4-.2c-.3,0-.4-.2-.4-.5v-1c0-.3.2-.4.4-.4.6.1,1.6.2,2.7.2s.6-.2.6-.5v-1.8c-1.7-.3-2.7-1.3-2.7-2.9s1.3-2.9,3.7-2.9,3.7,1,3.7,2.9-1,2.7-2.8,2.9ZM210.5,204.2c0-.3.2-.5.4-.5h1.1c.3,0,.4.2.4.5v14.1c0,.3-.2.5-.4.5h-1.1c-.3,0-.4-.2-.4-.5v-14.1ZM217.3,204.7v-.8c0-.3.1-.4.4-.4h1.1c.3,0,.4.1.4.4v.6c0,.2-.1.4-.3.5h3.1c.3,0,.4.1.4.4v1c0,.3-.1.4-.4.4h-7.6c-.3,0-.4-.1-.4-.4v-1c0-.3.1-.4.4-.4h2.4c.3,0,.4,0,.4-.3ZM218.3,209.6c-1.2,0-1.8.4-1.8,1.1s.6,1.2,1.8,1.2,1.8-.4,1.8-1.2-.6-1.1-1.8-1.1ZM205.3,205.9v.7c0,1.9,1.1,3.3,2.6,3.3s.4.1.4.4v.9c0,.3-.1.4-.4.4-1.8,0-3.1-1.2-3.6-2.5-.5,1.3-1.8,2.5-3.6,2.5s-.4-.1-.4-.4v-.9c0-.3.1-.4.4-.4,1.5,0,2.6-1.4,2.6-3.3v-.7s-2.5,0-2.5,0c-.3,0-.4-.1-.4-.4v-.9c0-.3.1-.4.4-.4h7c.3,0,.4.1.4.4v.9c0,.3-.1.4-.4.4h-2.5ZM196.4,215.8c0-1.9,1-2.7,3.3-2.7s5,.1,6.8.3c.3,0,.4.2.4.4v.9c0,.3-.1.4-.4.4-2.1-.2-4.1-.3-6.6-.3s-1.6.3-1.6,1.4,0,1.6,0,2.2c0,.3-.2.5-.4.5h-1c-.3,0-.5-.2-.5-.4,0-.6,0-1.5,0-2.7ZM198.3,206.5c0,.4.2.5.6.5h1.3c.3,0,.4.1.4.4v.9c0,.3-.1.4-.4.4h-1.2c-.3,0-.6-.1-.7-.3v2.9c0,.3-.2.5-.4.5h-1.1c-.3,0-.4-.2-.4-.5v-7.2c0-.3.2-.5.4-.5h1.1c.3,0,.4.2.4.5v2.3ZM185.6,210.5c1.1,0,1.8-.9,1.8-2.4s-.7-2.3-1.8-2.3-1.8.9-1.8,2.3.7,2.4,1.8,2.4ZM185.6,204c2.3,0,3.7,1.6,3.7,4.1s-1.5,4.1-3.7,4.1-3.7-1.6-3.7-4.1,1.5-4.1,3.7-4.1ZM177.5,204.2c0-.3.2-.5.4-.5h1.1c.3,0,.4.2.4.5v.7c0,.3.1.5.5.5h1.2c.3,0,.4.1.4.4v.9c0,.3-.1.4-.4.4h-1c-.3,0-.6-.1-.7-.3v1.8c0,.3.1.5.5.5h1.2c.3,0,.4.1.4.4v.9c0,.3-.1.4-.4.4h-1c-.3,0-.6-.1-.7-.3v3.2c0,.3-.2.5-.4.5h-1.1c-.3,0-.4-.2-.4-.5v-9.6ZM187.9,215.9c0,2-1.4,3.2-3.7,3.2s-5-.1-6.7-.3c-.3,0-.4-.2-.4-.4v-.9c0-.3.2-.4.5-.4,2,.2,3.7.3,6.7.3s1.7-.5,1.7-1.6,0-1.3-.1-1.7c0-.3.2-.5.4-.5h1c.3,0,.4.2.5.4,0,.4.1,1.2.1,1.9ZM170.1,210.9h-1.1c-.3,0-.4-.1-.5-.4-.2-.8-.6-2.2-.6-3.3,0-2.2.8-3,3-3s2.6.1,3.9.3c.3,0,.4.2.4.5v1c0,.3-.2.5-.4.4-1.1-.2-1.8-.3-3.8-.3s-1.1.3-1.1,1.1.3,2.2.6,3.3c0,.3-.1.5-.4.5ZM162.9,218.3v-.8c0-.3.2-.4.5-.3,1.4.2,3.2.3,4.4.3,3.5,0,4.2,0,4.2-.6s-.5-.6-3.3-.6-3.7,0-4.9,0c-.3,0-.4-.1-.4-.4v-.8c0-.3.1-.4.4-.4h.6c-.7-.2-1.1-.8-1.1-1.5s.5-1.3,1.5-1.4c2.2,0,5.9,0,8.4.2.3,0,.4.1.4.4v.9c0,.3-.1.4-.4.4-1.9-.1-5.5-.2-7.2-.2s-.8.2-.8.6.3.5.9.5c.9,0,1.8,0,2.7,0,3.9,0,5.2.5,5.2,2.2s-1.3,2.3-6.2,2.3-3.1-.1-4.5-.3c-.3,0-.4-.2-.4-.4ZM165.3,210.5c0,.3-.2.5-.4.5h-1.1c-.3,0-.4-.2-.4-.5v-6.3c0-.3.2-.5.4-.5h1.1c.3,0,.4.2.4.5v.4c0,.3.1.4.4.4h1.2c.3,0,.4.1.4.4v.9c0,.3-.1.4-.4.4h-1c-.3,0-.5-.1-.6-.3v1.3c0,.3.1.4.4.4h1.2c.3,0,.4.1.4.4v.9c0,.3-.1.4-.4.4h-1c-.3,0-.5-.1-.6-.3v.9ZM154.5,217.5c-2.7,0-4.9-.1-6-.3-.3,0-.4-.2-.4-.5v-.9c0-.3.2-.4.5-.4,1.1.1,3.4.3,5.2.3s.6-.2.6-.5v-3.9c0-.3.2-.5.4-.5h1.1c.3,0,.4.2.4.5v3.7c0,.3-.2.6-.4.7,1.4,0,3.1-.2,4.6-.3.3,0,.5.1.5.4v.9c0,.3-.1.4-.4.5-1.3.2-3.3.3-6,.3ZM153.7,206.5c-1.8,0-2.4.7-2.4,2.6s.1,2.3.3,3.2c0,.3,0,.4-.3.4l-1.2.2c-.3,0-.4,0-.5-.3-.2-1.2-.3-2.2-.3-3.9,0-2.7,1.4-4.1,4-4.1s3.9,0,5.8.3c.3,0,.4.2.4.4v1c0,.3-.2.4-.4.4-1.7-.2-3.4-.3-5.4-.3ZM144.2,213.2c0-1.2-.7-1.7-2.7-1.7s-1.4,0-2.3,0-.4-.1-.4-.4v-.9c0-.3.1-.4.4-.4h.5c-.7-.5-1.1-1.4-1.1-2.5,0-1.6,1.1-2.5,3.1-2.5s2.2,0,3.5.2c.3,0,.4.2.4.4v1.1c0,.3-.2.4-.4.4-1.4-.2-2.4-.3-3-.3-1.1,0-1.6.5-1.6,1.5s.5,1.5,1.5,1.5c2.8,0,4.1,1.1,4.1,3.4s-1.3,3.6-4,3.6-2.3-.2-3.7-.7c-.3-.1-.4-.3-.3-.5l.3-1c0-.2.2-.3.3-.3s.1,0,.2,0c1,.4,1.9.6,2.8.6,1.8,0,2.5-.5,2.5-1.7ZM136.4,218.3c0,.3-.2.5-.4.5h-1.1c-.3,0-.4-.2-.4-.5v-14.1c0-.3.2-.5.4-.5h1.1c.3,0,.4.2.4.5v14.1ZM124.6,208.5c0-2.6,1-3.7,3.3-3.7s2.4.1,3.7.3c.3,0,.4.2.4.5v1c0,.3-.2.5-.4.4-1.1-.2-2.1-.3-3.3-.3s-1.7.5-1.7,2c0,2.5.2,4.9.6,7.4,0,.3-.1.5-.4.5h-1.1c-.3,0-.4-.1-.5-.4-.4-2.5-.6-4.9-.6-7.6ZM120.7,212.1c0-.4-.2-.5-.6-.5h-1.1c-.3,0-.4-.1-.4-.4v-1c0-.3.1-.4.4-.4h1c.3,0,.6.1.7.3v-5.8c0-.3.2-.5.4-.5h1.1c.3,0,.4.2.4.5v14.1c0,.3-.2.5-.4.5h-1.1c-.3,0-.4-.2-.4-.5v-6.2ZM111,209.3c0,2.5-1.4,3.8-4.1,3.8s-4.2,0-6-.3c-.3,0-.4-.2-.4-.4v-1c0-.3.2-.4.5-.4,1.6.2,3.7.3,5.9.3s2.1-.6,2.1-1.9,0-3-.1-4.2c0-.3.1-.5.4-.5h1c.3,0,.5.2.5.4,0,1.1.1,2.9.1,4.2ZM112.5,215.8v.9c0,.3-.1.4-.4.5-1.3.2-3.3.3-6,.3s-4.9-.1-6-.3c-.3,0-.4-.2-.4-.5v-.9c0-.3.2-.4.5-.4,1.3.2,3.6.3,6,.3s4.3-.1,5.9-.3c.3,0,.5.1.5.4ZM97.7,211.8v.9c0,.3-.1.4-.4.5-1,.1-2.9.2-6,.2-2.4,0-4.8,0-6-.2-.3,0-.4-.2-.4-.5v-.9c0-.3.2-.4.5-.4,1.3.1,3.2.2,6,.2s4.4,0,5.9-.2c.3,0,.5.1.5.4ZM86.4,210.3c-.3,0-.4-.1-.4-.4v-1c0-.3.1-.4.4-.4,2.3,0,3.8-1.3,3.8-3.1v-.9c0-.3.2-.5.4-.5h1.1c.3,0,.4.2.4.5v.9c0,1.8,1.6,3.1,3.8,3.1s.4.1.4.4v1c0,.3-.1.4-.4.4-2.1.1-4.1-1-4.8-2.5-.7,1.5-2.7,2.6-4.8,2.5ZM96.5,216c0,2-1.3,3.1-3.6,3.1s-5.3-.1-7-.3c-.3,0-.4-.2-.4-.4v-.9c0-.3.2-.4.5-.4,2,.2,3.9.3,7,.3s1.6-.4,1.6-1.4,0-.8-.1-1.2c0-.3.1-.5.4-.5h1c.3,0,.5.2.5.4,0,.3.1.8.1,1.3ZM70.2,203.7h1c.3,0,.4.1.4.4v5.5s1,0,1,0c.2,0,.5.1.6.3v-5.7c0-.3.1-.4.4-.4h1c.3,0,.4.1.4.4v14c0,.3-.1.4-.4.4h-1c-.3,0-.4-.1-.4-.4v-6.4c0-.3-.1-.5-.5-.5h-1s0,6.8,0,6.8c0,.3-.1.4-.4.4h-1c-.3,0-.4-.1-.4-.4v-14.2c0-.3.1-.4.4-.4ZM79.9,208.1c2.1,0,3.2,1.5,3.2,4.2s-1.1,4.2-3.2,4.2-3.2-1.5-3.2-4.2,1.1-4.2,3.2-4.2ZM78.9,204.8v-1.1c0-.3.1-.4.4-.4h1c.3,0,.4.1.4.4v.9c0,.2-.1.4-.3.5h2.6c.3,0,.4.1.4.4v1c0,.3-.1.4-.4.4h-6.6c-.3,0-.4-.1-.4-.4v-1c0-.3.1-.4.4-.4h2c.3,0,.4,0,.4-.3ZM78.5,212.3c0,1.6.4,2.3,1.3,2.3s1.3-.8,1.3-2.3-.4-2.3-1.3-2.3-1.3.8-1.3,2.3ZM64.6,206.7v4c0,2,1.2,3.7,2.6,3.9.3,0,.4.2.4.5v1c0,.3-.1.4-.4.4-1.6-.2-3.1-1.5-3.6-3.1-.4,1.6-1.9,2.9-3.6,3.1-.3,0-.4-.1-.4-.4v-1c0-.3.1-.4.4-.5,1.4-.2,2.6-1.9,2.6-3.9v-4s-2.5,0-2.5,0c-.3,0-.4-.1-.4-.4v-1c0-.3.1-.4.4-.4h7c.3,0,.4.1.4.4v1c0,.3-.1.4-.4.4h-2.5ZM57.6,218.3c0,.3-.2.5-.4.5h-1.1c-.3,0-.4-.2-.4-.5v-14.1c0-.3.2-.5.4-.5h1.1c.3,0,.4.2.4.5v14.1ZM51.8,207.3c0,2-1.2,3.1-3.5,3.1s-5-.1-6.7-.3c-.3,0-.4-.2-.4-.4v-.9c0-.3.2-.4.5-.4,2,.2,3.8.3,6.4.3s1.6-.4,1.6-1.4,0-1.9-.1-2.6c0-.3.1-.5.4-.5h1c.3,0,.5.2.5.4,0,.8.1,2.1.1,2.7ZM52,216c0,2-1.3,3.1-3.6,3.1s-5.3-.1-7-.3c-.3,0-.4-.2-.4-.4v-.9c0-.3.2-.4.5-.4,2,.2,3.9.3,7,.3s1.6-.4,1.6-1.4,0-.8-.1-1.2c0-.3.1-.5.4-.5h1c.3,0,.5.2.5.4,0,.3.1.8.1,1.3ZM53.2,211.8v.9c0,.3-.1.4-.4.5-1,.1-2.9.2-6,.2-2.4,0-4.8,0-6-.2-.3,0-.4-.2-.4-.5v-.9c0-.3.2-.4.5-.4,1.3.1,3.2.2,6,.2s4.4,0,5.9-.2c.3,0,.5.1.5.4ZM318.6,242.9c0,.4-.2.6-.5.7,1,0,2.5,0,3.3,0,.4,0,.6-.2.6-.5v-2.2c-.6.1-1.2.2-1.9.2s-1.1,0-1.6-.1v1.9ZM323.5,236.8c0-1.6-1.1-2.5-3.3-2.5s-3.3.9-3.3,2.5,1.2,2.5,3.3,2.5,3.3-.9,3.3-2.5ZM324,240.1c0,0,0,.1,0,.2v2.7c0,.3-.2.6-.4.7.9,0,1.7-.2,2.7-.3.3,0,.5.1.5.4v.9c0,.3-.1.4-.4.5-1.3.2-3.3.3-6,.3s-4.9-.1-6-.3c-.3,0-.4-.2-.4-.5v-.9c0-.3.2-.4.5-.4.3,0,1.2.2,1.7.2s.6-.2.6-.5v-2.8c-1.1-.7-1.7-1.9-1.7-3.5,0-2.8,1.9-4.3,5.3-4.3s5.3,1.6,5.3,4.3-.5,2.6-1.5,3.3ZM300.1,243c0-1,.7-1.7,1.9-1.7h8c.5,0,.7.3.7.8v3.4c0,.9-.6,1.5-1.7,1.5h-8.8c-.3,0-.4-.1-.4-.4v-.9c0-.3.1-.4.4-.4h1.1c-.7-.4-1.2-1.3-1.2-2.1ZM305.4,235.5c-.7,1.2-2.7,2.2-4.8,2.1-.3,0-.4-.1-.4-.4v-1c0-.3.1-.4.4-.4,2.2,0,3.7-.8,3.8-1.9h-3.6c-.3,0-.4-.1-.4-.4v-.9c0-.3.1-.4.4-.4h9.1c.3,0,.4.1.4.4v.9c0,.3-.1.4-.4.4h-3.6c.1,1.1,1.6,1.9,3.8,1.9s.4.1.4.4v1c0,.3-.1.4-.4.4-2.1.1-4.1-.9-4.8-2.1ZM311.9,238.9v.9c0,.3-.1.4-.4.5-1,.1-2.9.2-6,.2-2.4,0-4.8,0-6-.2-.3,0-.4-.2-.4-.5v-.9c0-.3.2-.4.5-.4,1.3.1,3.2.2,6,.2s4.4,0,5.9-.2c.3,0,.5.1.5.4ZM308.2,245.1c.4,0,.6-.2.6-.5v-1.2c0-.3-.1-.4-.4-.4h-5.5c-.6,0-.9.3-.9.8s.6,1.3,1.3,1.3h4.9ZM297.1,246c0,.6-.4,1.1-1,1.2.1.3.3.4.7.4s.2,0,.2.2v.4c0,.1,0,.2-.2.2-1.3,0-2.2-.8-2.2-2.2s.5-1.4,1.3-1.4,1.3.5,1.3,1.2ZM286.8,243.9c0,2-1.4,3.2-3.7,3.2s-5-.1-6.7-.3c-.3,0-.4-.2-.4-.4v-.9c0-.3.2-.4.5-.4,2,.2,3.7.3,6.7.3s1.7-.5,1.7-1.6,0-1.3-.1-1.7c0-.3.2-.5.4-.5h1c.3,0,.4.2.5.4,0,.4.1,1.2.1,1.9ZM278.4,241.8c0,.3-.2.5-.4.5h-1.1c-.3,0-.4-.2-.4-.5v-9.6c0-.3.2-.5.4-.5h1.1c.3,0,.4.2.4.5v9.6ZM284.5,232c2.3,0,3.8,1.6,3.8,4.1s-1.5,4.1-3.8,4.1-3.8-1.6-3.8-4.1,1.5-4.1,3.8-4.1ZM284.5,238.5c1.1,0,1.9-.9,1.9-2.4s-.7-2.3-1.9-2.3-1.9.9-1.9,2.3.7,2.4,1.9,2.4ZM268.8,240.1h-1.1c-.3,0-.4-.1-.5-.4-.3-1.4-.6-3.2-.6-4.2,0-2.3,1-3.3,3.3-3.3s2.5.1,3.8.3c.3,0,.4.2.4.5v1c0,.3-.2.5-.4.4-1.1-.2-1.8-.3-3.7-.3s-1.4.4-1.4,1.4.3,2.9.6,4.2c0,.3,0,.5-.4.5ZM262.7,238.2c0-.4-.2-.5-.6-.5h-1.1c-.3,0-.4-.1-.4-.4v-.9c0-.3.1-.4.4-.4h1c.3,0,.6.1.7.3v-4c0-.3.2-.5.4-.5h1.1c.3,0,.4.2.4.5v9.6c0,.3-.2.5-.4.5h-1.1c-.3,0-.4-.2-.4-.5v-3.6ZM272.7,243.9c0,2-1.4,3.2-3.7,3.2s-4.7-.1-6.4-.3c-.3,0-.4-.2-.4-.4v-.9c0-.3.2-.4.5-.4,2,.2,3.5.3,6.4.3s1.7-.5,1.7-1.6,0-1.3-.1-1.7c0-.3.2-.5.4-.5h1c.3,0,.4.2.5.4,0,.4.1,1.2.1,1.9ZM252.8,245.5c-2.6,0-4.9-.1-6-.3-.3,0-.4-.2-.4-.5v-.9c0-.3.2-.4.5-.4,1.2.2,2.9.3,4.4.3s.6-.2.6-.5v-2.2s-1.9,0-1.9,0c-1.3,0-2-.7-2.1-1.8l-.3-6.1c0-.3.2-.4.4-.4h1.1c.3,0,.4.2.4.4v1.7c0,0,6.5,0,6.5,0v-1.7c0-.3.2-.4.5-.4h1.1c.3,0,.5.2.4.4l-.3,6.1c0,1.1-.8,1.8-2.1,1.8h-1.9s0,2,0,2c0,.3-.2.6-.4.7,1.9,0,4.2-.2,5.4-.3.3,0,.5.1.5.4v.9c0,.3-.1.4-.4.5-1.3.2-3.3.3-6,.3ZM249.6,236.6v1.9c0,.5.4.7.8.7h4.6c.5,0,.7-.2.8-.7v-1.9c0,0-6.2,0-6.2,0ZM239.6,234.7c-.9,0-1.4,0-2.1.2-.3,0-.4-.1-.4-.4v-1c0-.3.1-.4.4-.4.6-.1,1.3-.1,2.3-.1,3.2,0,4.8,1.8,4.8,5.9,0,3.8-1.5,5.9-4.6,5.9s-2-.2-3.1-.7c-.3-.1-.4-.3-.4-.5l.3-1c0-.2.2-.4.3-.4s.1,0,.2,0c1,.4,1.9.6,2.6.6,1.9,0,2.8-1.3,2.8-4s-.8-4.1-2.9-4.1ZM233.1,240.1c0-.4-.2-.5-.6-.5h-1.1c-.3,0-.4-.1-.4-.4v-1c0-.3.1-.4.4-.4h1c.3,0,.6.1.7.3v-5.8c0-.3.2-.5.4-.5h1.1c.3,0,.4.2.4.5v14.1c0,.3-.2.5-.4.5h-1.1c-.3,0-.4-.2-.4-.5v-6.2ZM220.1,234.7c-.9,0-1.4,0-2.1.2-.3,0-.4-.1-.4-.4v-1c0-.3.1-.4.4-.4.6-.1,1.3-.1,2.3-.1,3.2,0,4.8,1.8,4.8,5.9,0,3.8-1.5,5.9-4.6,5.9s-2-.2-3.1-.7c-.3-.1-.4-.3-.4-.5l.3-1c0-.2.2-.4.3-.4s.1,0,.2,0c1,.4,1.9.6,2.6.6,1.9,0,2.8-1.3,2.8-4s-.8-4.1-2.9-4.1ZM215.1,237.1c0,.4.2.5.6.5h2.6c.3,0,.4.1.4.4v1c0,.3-.1.4-.4.4h-2.5c-.3,0-.6-.1-.7-.3v7.2c0,.3-.2.5-.4.5h-1.1c-.3,0-.4-.2-.4-.5v-14.1c0-.3.2-.5.4-.5h1.1c.3,0,.4.2.4.5v4.9ZM204.7,243.9c0,2-1.4,3.2-3.7,3.2s-5-.1-6.7-.3c-.3,0-.4-.2-.4-.4v-.9c0-.3.2-.4.5-.4,2,.2,3.7.3,6.7.3s1.7-.5,1.7-1.6,0-1.3-.1-1.7c0-.3.2-.5.4-.5h1c.3,0,.4.2.5.4,0,.4.1,1.2.1,1.9ZM196.3,241.8c0,.3-.2.5-.4.5h-1.1c-.3,0-.4-.2-.4-.5v-9.6c0-.3.2-.5.4-.5h1.1c.3,0,.4.2.4.5v9.6ZM202.4,232c2.3,0,3.8,1.6,3.8,4.1s-1.5,4.1-3.8,4.1-3.8-1.6-3.8-4.1,1.5-4.1,3.8-4.1ZM202.4,238.5c1.1,0,1.9-.9,1.9-2.4s-.7-2.3-1.9-2.3-1.9.9-1.9,2.3.7,2.4,1.9,2.4ZM186.6,240.1h-1.1c-.3,0-.4-.1-.5-.4-.3-1.4-.6-3.2-.6-4.2,0-2.3,1-3.3,3.3-3.3s2.5.1,3.8.3c.3,0,.4.2.4.5v1c0,.3-.2.5-.4.4-1.1-.2-1.8-.3-3.7-.3s-1.4.4-1.4,1.4.3,2.9.6,4.2c0,.3,0,.5-.4.5ZM180.5,238.2c0-.4-.2-.5-.6-.5h-1.1c-.3,0-.4-.1-.4-.4v-.9c0-.3.1-.4.4-.4h1c.3,0,.6.1.7.3v-4c0-.3.2-.5.4-.5h1.1c.3,0,.4.2.4.5v9.6c0,.3-.2.5-.4.5h-1.1c-.3,0-.4-.2-.4-.5v-3.6ZM190.6,243.9c0,2-1.4,3.2-3.7,3.2s-4.7-.1-6.4-.3c-.3,0-.4-.2-.4-.4v-.9c0-.3.2-.4.5-.4,2,.2,3.5.3,6.4.3s1.7-.5,1.7-1.6,0-1.3-.1-1.7.2-.5.4-.5h1c.3,0,.4.2.5.4,0,.4.1,1.2.1,1.9ZM172.3,232.8v-1.1c0-.3.1-.4.4-.4h1.1c.3,0,.4.1.4.4v.9c0,.2-.1.4-.3.5h2.8c.3,0,.4.1.4.4v1c0,.3-.1.4-.4.4h-2.5s0,3.7,0,3.7c0,2,1.2,3.7,2.6,3.9.3,0,.4.2.4.5v1c0,.3-.1.4-.4.4-1.6-.2-3.1-1.5-3.6-3.1-.4,1.6-1.9,2.9-3.6,3.1-.3,0-.4-.1-.4-.4v-1c0-.3.1-.4.4-.5,1.4-.2,2.6-1.9,2.6-3.9v-3.7s-2.5,0-2.5,0c-.3,0-.4-.1-.4-.4v-1c0-.3.1-.4.4-.4h2.1c.3,0,.4,0,.4-.3ZM167.4,237.3c0,.4.2.5.6.5h1.9c.3,0,.4.1.4.4v1c0,.3-.1.4-.4.4h-1.8c-.3,0-.6-.1-.7-.3v7c0,.3-.2.5-.4.5h-1.1c-.3,0-.4-.2-.4-.5v-14.1c0-.3.2-.5.4-.5h1.1c.3,0,.4.2.4.5v5ZM159.3,245.1c.4,0,.7-.2.7-.5v-1.3c0-.3-.2-.4-.4-.4h-5.2c-.8,0-1.1.2-1.1.9s.7,1.4,1.5,1.4h4.6ZM155.2,238.7l.2-.9c0-.2.2-.3.3-.3s.1,0,.2,0c.9.3,1.9.5,2.7.5,1.9,0,2.4-.1,2.4-.7s-.6-.7-2.7-.7-1.4,0-2.2,0c-.3,0-.4-.1-.4-.4v-.8c0-.3.1-.4.4-.4h.4c-.6-.3-.9-.8-.9-1.5,0-1.1.8-1.5,3-1.5,1.4,0,2.3,0,3.5.2.3,0,.4.2.4.4v.9c0,.3-.2.4-.4.4-1.3-.2-2.4-.2-3.1-.2-1,0-1.4.1-1.4.5s.4.6,1.3.6c3.1,0,4.1.6,4.1,2.4s-1.1,2.5-3.9,2.5-2.8-.3-3.6-.6c-.3-.1-.4-.3-.3-.5ZM151.2,242.8c0-1.2.7-1.8,2.1-1.8h7.8c.5,0,.8.3.8.8v3.6c0,.9-.7,1.5-1.8,1.5h-8.8c-.3,0-.4-.1-.4-.4v-.9c0-.3.1-.4.4-.4h1.2c-.8-.4-1.4-1.3-1.4-2.3ZM153.2,234.1c0,.4.2.5.6.5h.9c.3,0,.4.1.4.4v.9c0,.3-.1.4-.4.4h-.8c-.3,0-.6-.1-.7-.3v3.3c0,.3-.2.5-.4.5h-1.1c-.3,0-.4-.2-.4-.5v-7.2c0-.3.2-.5.4-.5h1.1c.3,0,.4.2.4.5v1.9ZM131.4,231.7h1c.3,0,.4.1.4.4v5.5s1,0,1,0c.2,0,.5.1.6.3v-5.7c0-.3.1-.4.4-.4h1c.3,0,.4.1.4.4v14c0,.3-.1.4-.4.4h-1c-.3,0-.4-.1-.4-.4v-6.4c0-.3-.1-.5-.5-.5h-1s0,6.8,0,6.8c0,.3-.1.4-.4.4h-1c-.3,0-.4-.1-.4-.4v-14.2c0-.3.1-.4.4-.4ZM139.9,234.7c-.6,0-1.1,0-1.6.2-.3,0-.4-.1-.4-.4v-1c0-.3,0-.4.4-.4.5-.1,1-.1,1.8-.1,3,0,4.3,1.9,4.3,5.9s-1.4,5.9-4.2,5.9-1.8-.2-2.6-.5c-.3-.1-.4-.3-.3-.5l.2-1c0-.2.2-.3.3-.3s.1,0,.2,0c.7.3,1.4.4,2,.4,1.6,0,2.4-1.3,2.4-4s-.7-4.1-2.6-4.1ZM115.8,231.7h1c.3,0,.4.1.4.4v5.5s1,0,1,0c.2,0,.5.1.6.3v-5.7c0-.3.1-.4.4-.4h1c.3,0,.4.1.4.4v14c0,.3-.1.4-.4.4h-1c-.3,0-.4-.1-.4-.4v-6.4c0-.3-.1-.5-.5-.5h-1s0,6.8,0,6.8c0,.3-.1.4-.4.4h-1c-.3,0-.4-.1-.4-.4v-14.2c0-.3.1-.4.4-.4ZM125.5,236.1c2.1,0,3.2,1.5,3.2,4.2s-1.1,4.2-3.2,4.2-3.2-1.5-3.2-4.2,1.1-4.2,3.2-4.2ZM124.6,232.8v-1.1c0-.3.1-.4.4-.4h1c.3,0,.4.1.4.4v.9c0,.2-.1.4-.3.5h2.6c.3,0,.4.1.4.4v1c0,.3-.1.4-.4.4h-6.6c-.3,0-.4-.1-.4-.4v-1c0-.3.1-.4.4-.4h2c.3,0,.4,0,.4-.3ZM124.2,240.3c0,1.6.4,2.3,1.3,2.3s1.3-.8,1.3-2.3-.4-2.3-1.3-2.3-1.3.8-1.3,2.3ZM111,232.1c.3,0,.4.1.4.4v1c0,.3-.1.4-.4.4h-3.6c0,1.9,1.6,3.3,3.8,3.3s.4.1.4.4v1.1c0,.4-.3.4-.6.4-2,0-3.9-1.1-4.6-2.7-.7,1.6-2.6,2.7-4.6,2.7s-.6,0-.6-.4v-1.1c0-.3.1-.4.4-.4,2.3,0,3.8-1.4,3.8-3.3h-3.6c-.3,0-.4-.1-.4-.4v-1c0-.3.1-.4.4-.4h9.1ZM100.6,242.4c-.3,0-.4-.2-.4-.5v-.9c0-.3.2-.4.5-.4,1.3.2,3.6.3,6,.3s4.3-.1,5.9-.3c.3,0,.5.1.5.4v.9c0,.3-.1.4-.4.5-1.2.2-3.6.3-5.5.3.3.1.4.4.4.7v2.3c0,.3-.2.5-.4.5h-1.1c-.3,0-.4-.2-.4-.5v-2.6c0-.4-.2-.5-.6-.5-1.5,0-3.3-.1-4.4-.3ZM96.8,235.3c0,2-1.2,3.1-3.5,3.1s-5-.1-6.7-.3c-.3,0-.4-.2-.4-.4v-.9c0-.3.2-.4.5-.4,2,.2,3.8.3,6.4.3s1.6-.4,1.6-1.4,0-1.9-.1-2.6c0-.3.1-.5.4-.5h1c.3,0,.5.2.5.4,0,.8.1,2.1.1,2.7ZM97,244c0,2-1.3,3.1-3.6,3.1s-5.3-.1-7-.3c-.3,0-.4-.2-.4-.4v-.9c0-.3.2-.4.5-.4,2,.2,3.9.3,7,.3s1.6-.4,1.6-1.4,0-.8-.1-1.2c0-.3.1-.5.4-.5h1c.3,0,.5.2.5.4,0,.3.1.8.1,1.3ZM98.2,239.8v.9c0,.3-.1.4-.4.5-1,.1-2.9.2-6,.2-2.4,0-4.8,0-6-.2-.3,0-.4-.2-.4-.5v-.9c0-.3.2-.4.5-.4,1.3.1,3.2.2,6,.2s4.4,0,5.9-.2c.3,0,.5.1.5.4ZM78.2,234.7l-.3,7.8c.4,0,.8,0,1.1-.1.3,0,.4.1.4.4v1c0,.3-.1.4-.4.4-.9.1-2.1.2-3.4.2s-2.7-.1-3.4-.2c-.3,0-.4-.1-.4-.4v-1c0-.3.1-.5.4-.4.3,0,.7,0,1.1.1l-.3-7.8h-.6c-.3,0-.4-.1-.4-.4v-1c0-.3.1-.4.4-.4h6.4c.3,0,.4.1.4.4v1c0,.3-.1.4-.4.4h-.6ZM72.7,238.1v1c0,.3-.1.4-.4.4h-1.4c-.2,0-.5-.1-.6-.3v7.2c0,.3-.1.4-.4.4h-1c-.3,0-.4-.1-.4-.4v-14c0-.3.1-.4.4-.4h1c.3,0,.4.1.4.4v4.8c0,.3.1.5.5.5h1.5c.3,0,.4.1.4.4ZM65.9,231.7h1c.3,0,.4.1.4.4v14.2c0,.3-.1.4-.4.4h-1c-.3,0-.4-.1-.4-.4v-14.2c0-.3.1-.4.4-.4ZM76.4,234.7h-1.6s.3,7.9.3,7.9h1s.3-7.9.3-7.9ZM59.5,232.6c2.6,0,3.8,1.9,3.8,6.1s-1.2,6.1-3.8,6.1-3.8-1.9-3.8-6.1,1.2-6.1,3.8-6.1ZM57.6,238.7c0,3,.6,4.2,1.9,4.2s1.9-1.2,1.9-4.2-.6-4.2-1.9-4.2-1.9,1.2-1.9,4.2ZM53.4,246.3c0,.3-.2.5-.4.5h-1.1c-.3,0-.4-.2-.4-.5v-14.1c0-.3.2-.5.4-.5h1.1c.3,0,.4.2.4.5v14.1ZM37.8,240.9c-.3,0-.6,0-.6-.4v-1.1c0-.3.1-.4.4-.4,2.3,0,3.8-1.5,3.8-3.6v-2.4c0-.3.2-.5.4-.5h1.1c.3,0,.4.2.4.5v2.4c0,2.1,1.6,3.6,3.8,3.6s.4.1.4.4v1.1c0,.4-.3.4-.6.4-2,0-3.9-1.2-4.7-2.8-.7,1.7-2.6,2.8-4.6,2.8ZM49,243.8v.9c0,.3-.1.4-.4.5-1.3.2-3.3.3-6,.3s-4.9-.1-6-.3c-.3,0-.4-.2-.4-.5v-.9c0-.3.2-.4.5-.4,1.3.2,3.6.3,6,.3s4.3-.1,5.9-.3c.3,0,.5.1.5.4ZM320.1,271.4l.3-.9c0-.2.2-.3.4-.3s.2,0,.2,0c.8.4,1.5.6,2.2.6,1.4,0,2-.8,2-2.3s-.7-2.4-2.4-2.4-.8,0-1.6.1c-.3,0-.4-.1-.4-.4v-1c0-.3.1-.4.4-.5.6-.1,1.1-.2,1.9-.2,2.8,0,4.1,1.3,4.1,4.3s-1.4,4.2-3.8,4.2-2-.2-3-.7c-.3-.1-.4-.3-.3-.6ZM320.6,267.5v1c0,.3-.1.4-.4.4h-1.1c-.2,0-.5-.1-.6-.3v5.7c0,.3-.1.4-.4.4h-1c-.3,0-.4-.1-.4-.4v-14c0-.3.1-.4.4-.4h1c.3,0,.4.1.4.4v6.3c0,.3.1.5.5.5h1.2c.3,0,.4.1.4.4ZM314,259.7h1c.3,0,.4.1.4.4v14.2c0,.3-.1.4-.4.4h-1c-.3,0-.4-.1-.4-.4v-14.2c0-.3.1-.4.4-.4ZM320.8,262.7c-.3,0-.4-.1-.4-.4v-1c0-.3.1-.4.4-.4h5.7c.3,0,.4.1.4.4v1c0,.3-.1.4-.4.4h-5.7ZM304,262.5c-1.8,0-2.4.7-2.4,2.5,2.8,0,5.9.1,7.6.3.3,0,.4.2.4.4v1c0,.3-.1.4-.4.4-1.9-.2-5-.3-7.6-.3,0,.6.1,1.2.2,1.6,0,.3,0,.4-.3.4l-1.2.2c-.3,0-.4,0-.5-.3-.2-1.2-.3-2.4-.3-4.1,0-2.7,1.4-4.1,4-4.1s3.9,0,5.8.3c.3,0,.4.2.4.4v1c0,.3-.2.4-.4.4-1.7-.2-3.4-.3-5.4-.3ZM311.2,271.8v.9c0,.3-.1.4-.4.5-1.3.2-3.3.3-6,.3s-4.9-.1-6-.3c-.3,0-.4-.2-.4-.5v-.9c0-.3.2-.4.5-.4,1.3.2,3.6.3,6,.3s4.3-.1,5.9-.3c.3,0,.5.1.5.4ZM284.2,264.5c0-2.6,1-3.7,3.3-3.7s2.4.1,3.7.3c.3,0,.4.2.4.5v1c0,.3-.2.5-.4.4-1.1-.2-2.1-.3-3.3-.3s-1.7.5-1.7,2c0,2.5.2,4.9.6,7.4,0,.3-.1.5-.4.5h-1.1c-.3,0-.4-.1-.5-.4-.4-2.5-.6-4.9-.6-7.6ZM281.9,274.3c0,.3-.2.5-.4.5h-1.1c-.3,0-.4-.2-.4-.5v-14.1c0-.3.2-.5.4-.5h1.1c.3,0,.4.2.4.5v14.1ZM265.3,274.3v-.8c0-.3.2-.4.5-.3,1.3.2,3.2.3,4.5.3,3.5,0,4.1,0,4.1-.6s-.4-.6-3.2-.6-4,0-5,0c-.2,0-.4-.1-.4-.4v-.7c0-.3.1-.4.4-.4h.6c-.7-.2-1.1-.8-1.1-1.4s.4-1.2,1.6-1.2c.8,0,1.8,0,2.9,0v-.4c0-.3-.1-.4-.4-.4-1.3,0-3.4,0-4.6-.2-.3,0-.4-.2-.4-.4v-.8c0-.3.2-.4.4-.4,1.2.1,3.6.2,6,.2,3.1,0,4.9,0,6-.2.3,0,.4.1.4.4v.8c0,.3-.1.4-.4.4-1.3.1-3.6.2-5.3.2.1,0,.2.2.2.4v.5c1.3,0,2.5.1,3.6.2.3,0,.4.1.4.4v.8c0,.3-.1.4-.4.4-1.9-.1-5.5-.2-7.2-.2s-.8.2-.8.5.2.5.8.5c.9,0,1.9,0,2.8,0,4,0,5.1.5,5.1,2.1s-1.2,2.2-6.1,2.2-3.3-.1-4.6-.3c-.3,0-.4-.2-.3-.4ZM271.5,260.1c.3,0,.4.2.4.5v.2c0,1.4,1.5,2.7,3.9,2.7s.4.1.4.4v.9c0,.3-.1.4-.4.4-2,.1-4.1-1.1-4.8-2.3-.7,1.3-2.8,2.4-4.8,2.3-.3,0-.4-.1-.4-.4v-.9c0-.3,0-.4.4-.4,2.3,0,3.9-1.2,3.9-2.7v-.2c0-.3.2-.5.4-.5h1.1ZM261.5,272c0,2-1.3,3.1-3.6,3.1s-5.3-.1-7-.3c-.3,0-.4-.2-.4-.4v-.9c0-.3.2-.4.5-.4,2,.2,3.9.3,7,.3s1.6-.4,1.6-1.4,0-.8-.1-1.2c0-.3.1-.5.4-.5h1c.3,0,.5.2.5.4,0,.3.1.8.1,1.3ZM262.7,267.8v.9c0,.3-.1.4-.4.5-1,.1-2.9.2-6,.2-2.4,0-4.8,0-6-.2-.3,0-.4-.2-.4-.5v-.9c0-.3.2-.4.5-.4,1.3.1,3.2.2,6,.2s4.4,0,5.9-.2c.3,0,.5.1.5.4ZM256.2,266.4c-3.7,0-5.3-1-5.3-3.2s1.6-3.2,5.3-3.2,5.3,1,5.3,3.2-1.6,3.2-5.3,3.2ZM259.5,263.2c0-1.1-.9-1.5-3.3-1.5s-3.3.4-3.3,1.5.9,1.5,3.3,1.5,3.3-.4,3.3-1.5ZM236.8,273.5c-2.6,0-4.9-.1-6-.3-.3,0-.4-.2-.4-.5v-.9c0-.3.2-.4.5-.4,1.2.2,2.9.3,4.4.3s.6-.2.6-.5v-2.1c0-.3.2-.5.4-.5h1.1c.3,0,.4.2.4.5v2c0,.3-.2.6-.4.7,1.9,0,4.2-.2,5.4-.3.3,0,.5.1.5.4v.9c0,.3-.1.4-.4.5-1.3.2-3.3.3-6,.3ZM232,268.9c-.3,0-.6,0-.6-.4v-1.1c0-.3.1-.4.4-.4,2.3,0,3.8-1.5,3.8-3.6v-2.4c0-.3.2-.5.4-.5h1.1c.3,0,.4.2.4.5v2.4c0,2.1,1.6,3.6,3.8,3.6s.4.1.4.4v1.1c0,.4-.3.4-.6.4-2,0-3.9-1.2-4.7-2.8-.7,1.7-2.6,2.8-4.6,2.8ZM223,266.4v3.5c.1.5.4.7.9.7h1.8c.5,0,.7-.2.7-.7v-3.5c.1,0-3.3,0-3.3,0ZM221.4,260.8h1c.3,0,.5.2.5.4v3.3c0,0,3.6,0,3.6,0v-3.3c0-.3.3-.4.6-.4h1c.3,0,.5.2.5.5l-.3,9.4c0,1.1-.8,1.8-2.1,1.8h-3c-1.3,0-2-.7-2.1-1.8l-.3-9.4c0-.3.2-.5.5-.5ZM218.6,274.3c0,.3-.2.5-.4.5h-1.1c-.3,0-.4-.2-.4-.5v-14.1c0-.3.2-.5.4-.5h1.1c.3,0,.4.2.4.5v14.1ZM202.2,272.5c-.3,0-.4-.1-.4-.4v-1c0-.3.1-.4.4-.5,1.4-.2,2.6-1.9,2.6-3.9v-5.5c0-.3.2-.5.4-.5h1.1c.3,0,.4.2.4.5v5.5c0,2,1.2,3.7,2.6,3.9.3,0,.4.2.4.5v1c0,.3-.1.4-.4.4-1.6-.2-3.1-1.5-3.6-3.1-.4,1.6-1.9,2.9-3.6,3.1ZM199.8,274.3c0,.3-.2.5-.4.5h-1.1c-.3,0-.4-.2-.4-.5v-14.1c0-.3.2-.5.4-.5h1.1c.3,0,.4.2.4.5v14.1ZM189.1,275.1c-3.6,0-5.4-1.1-5.4-3.2s1.8-3.2,5.4-3.2,5.4,1.1,5.4,3.2-1.8,3.2-5.4,3.2ZM192.6,261.9v.5c0,1.8,1.1,3.2,2.6,3.2s.4.1.4.4v.9c0,.3-.1.4-.4.4-1.8,0-3.1-1.1-3.6-2.4-.5,1.3-1.8,2.4-3.6,2.4s-.4-.1-.4-.4v-.9c0-.3.1-.4.4-.4,1.5,0,2.6-1.3,2.6-3.2v-.5s-2.5,0-2.5,0c-.3,0-.4-.1-.4-.4v-.9c0-.3.1-.4.4-.4h7c.3,0,.4.1.4.4v.9c0,.3-.1.4-.4.4h-2.5ZM184,265c0-.4-.2-.5-.6-.5h-1.1c-.3,0-.4-.1-.4-.4v-.9c0-.3.1-.4.4-.4h1c.3,0,.6.1.7.3v-2.8c0-.3.2-.5.4-.5h1.1c.3,0,.4.2.4.5v7.2c0,.3-.2.5-.4.5h-1.1c-.3,0-.4-.2-.4-.5v-2.4ZM189.1,270.4c-2.6,0-3.4.6-3.4,1.4s.8,1.4,3.4,1.4,3.4-.6,3.4-1.4-.8-1.4-3.4-1.4ZM174,261.5c-2.6,0-3.3.3-3.3,1.1s.8,1.1,3.3,1.1,3.3-.3,3.3-1.1-.8-1.1-3.3-1.1ZM168.4,274.3v-.8c0-.3.2-.4.5-.3,1.3.2,3.2.3,4.5.3,3.5,0,4.1,0,4.1-.6s-.4-.6-3.2-.6-4,0-5,0c-.2,0-.4-.1-.4-.4v-.7c0-.3.1-.4.4-.4h.6c-.7-.2-1.1-.8-1.1-1.4s.4-1.2,1.6-1.2c2.2,0,5.8,0,8.4.2.3,0,.4.1.4.4v.8c0,.3-.1.4-.4.4-1.9-.1-5.5-.2-7.2-.2s-.8.2-.8.5.2.5.9.5c.9,0,1.9,0,2.8,0,4,0,5.1.5,5.1,2.1s-1.2,2.2-6.1,2.2-3.3-.1-4.6-.3c-.3,0-.4-.2-.3-.4ZM174.2,265.9c2,0,4.4,0,6-.2.3,0,.4.1.4.4v.8c0,.3-.1.4-.4.4-1,.1-2.9.2-6,.2-2.4,0-4.8,0-6.1-.2-.3,0-.4-.2-.4-.4v-.8c0-.3.2-.4.4-.4,1.3.1,3.2.2,6,.2ZM174,265.2c-3.8,0-5.3-.7-5.3-2.6s1.5-2.6,5.3-2.6,5.3.7,5.3,2.6-1.5,2.6-5.3,2.6ZM157.3,273.1c.4,0,.7-.2.7-.5v-1.7c0-.3-.2-.4-.4-.4h-5.2c-.8,0-1.1.3-1.1,1.1s.7,1.6,1.5,1.6h4.6ZM149.2,270.7c0-1.3.7-2,2.1-2h7.8c.5,0,.8.3.8.8v3.9c0,.9-.7,1.5-1.8,1.5h-8.8c-.3,0-.4-.1-.4-.4v-.9c0-.3.1-.4.4-.4h1.2c-.9-.5-1.4-1.4-1.4-2.4ZM153.3,266.4l.3-.9c0-.3.2-.4.5-.3,1.1.4,2.5.6,3.3.6,1.2,0,1.7-.5,1.7-1.5s-.1-1.9-.4-3.6c0-.3.1-.5.5-.5h1c.3,0,.4.1.5.4.3,1.2.4,2.2.4,3.5,0,2.3-1.3,3.5-3.7,3.5s-2.5-.2-3.7-.6c-.3-.1-.4-.3-.4-.5ZM151.3,261.3c0,.4.2.5.6.5h2.9c.3,0,.4.1.4.4v.9c0,.3-.1.4-.4.4h-2.8c-.3,0-.6-.1-.7-.3v3.7c0,.3-.2.5-.4.5h-1.1c-.3,0-.4-.2-.4-.5v-6.8c0-.3.2-.5.4-.5h1.1c.3,0,.4.2.4.5v1.1ZM141.6,266.7c0,3,.5,4.2,1.8,4.2s1.8-1.2,1.8-4.2-.5-4.2-1.8-4.2-1.8,1.2-1.8,4.2ZM143.4,260.6c2.6,0,3.7,1.9,3.7,6.1s-1.1,6.1-3.7,6.1-3.7-1.9-3.7-6.1,1.1-6.1,3.7-6.1ZM137.2,265.1c0,.4.2.5.6.5h.9c.3,0,.4.1.4.4v1c0,.3-.1.4-.4.4h-.8c-.3,0-.6-.1-.7-.3v7.2c0,.3-.2.5-.4.5h-1.1c-.3,0-.4-.2-.4-.5v-14.1c0-.3.2-.5.4-.5h1.1c.3,0,.4.2.4.5v4.9ZM126.8,271.9c0,2-1.4,3.2-3.7,3.2s-5-.1-6.7-.3c-.3,0-.4-.2-.4-.4v-.9c0-.3.2-.4.5-.4,2,.2,3.7.3,6.7.3s1.7-.5,1.7-1.6,0-1.3-.1-1.7c0-.3.2-.5.4-.5h1c.3,0,.4.2.5.4,0,.4.1,1.2.1,1.9ZM118.3,269.8c0,.3-.2.5-.4.5h-1.1c-.3,0-.4-.2-.4-.5v-9.6c0-.3.2-.5.4-.5h1.1c.3,0,.4.2.4.5v9.6ZM124.4,260c2.3,0,3.8,1.6,3.8,4.1s-1.5,4.1-3.8,4.1-3.8-1.6-3.8-4.1,1.5-4.1,3.8-4.1ZM124.4,266.5c1.1,0,1.9-.9,1.9-2.4s-.7-2.3-1.9-2.3-1.9.9-1.9,2.3.7,2.4,1.9,2.4ZM111.5,271.5v2.2c0,.3-.2.5-.4.5h-1.1c-.3,0-.4-.2-.4-.5v-2.4c0-.4-.2-.5-.6-.5-1,0-2.4,0-3.8,0,.3.1.4.4.4.7v2.2c0,.3-.2.5-.4.5h-1.1c-.3,0-.4-.2-.4-.5v-2.5c0-.4-.2-.5-.6-.5-.3,0-1.1-.1-1.4-.2-.3,0-.4-.2-.4-.5v-.9c0-.3.2-.4.5-.4,1.3.2,3.6.3,6,.3s4.3-.1,5.9-.3c.3,0,.5.1.5.4v.9c0,.3-.1.4-.4.5-.7,0-1.6.2-2.5.2.3.1.5.4.5.7ZM102.3,261.6c0-.9.7-1.4,1.9-1.4,4,0,6.2,0,7.6.3.2,0,.3.2.3.4v1c0,.3-.2.4-.4.4-1.8-.2-3.8-.3-6.4-.3s-1.1.2-1.1.6.3.5,1.1.5h2.1c4,0,5,.5,5,2.3s-1.1,2.4-6,2.4-2.9-.1-4.3-.3c-.2,0-.4-.2-.3-.4l.2-.9c0-.3.2-.4.4-.3,1.2.2,2.7.3,4,.3,3.3,0,4,0,4-.6s-.5-.6-3.1-.6-3.1,0-4.6,0-.4-.2-.4-.4v-.8c0-.2.1-.4.4-.4h.7c-.8-.3-1.3-.8-1.3-1.6ZM95.2,272c1.6,0,2.9-.1,4-.3.3,0,.5,0,.5.4v1c0,.3-.1.4-.4.4-1.1.2-2.4.3-4.1.3s-3.2,0-4.4-.2c-.3,0-.4-.2-.4-.5v-1c0-.3.2-.4.4-.4,1.1.2,2.7.3,4.3.3ZM95.2,269.5c-2.3,0-3.8-1.8-3.8-4.6s1.5-4.6,3.8-4.6,3.8,1.8,3.8,4.6-1.5,4.6-3.8,4.6ZM97,264.9c0-1.6-.7-2.8-1.9-2.8s-1.9,1.1-1.9,2.8.7,2.8,1.9,2.8,1.9-1.1,1.9-2.8ZM87.5,260.2c0-.3.2-.5.4-.5h1.1c.3,0,.4.2.4.5v14.1c0,.3-.2.5-.4.5h-1.1c-.3,0-.4-.2-.4-.5v-14.1ZM71.4,273.2c.3,0,.5-.1.5-.4v-2.9c0-.3-.2-.4-.5-.4-.7,0-.9.4-.9,1.6s.4,2.1,1,2.1ZM74.1,274.3l.2-.8c0-.3.2-.3.5-.3.5.1,1.2.2,1.8.2s1.2-.2,1.2-.6-.3-.6-.8-.6-1.4,0-2,0c-.3,0-.4-.1-.4-.4v-.8c0-.3.1-.4.4-.4h.6c-.7-.2-1.1-.8-1.1-1.5,0-1.3,1.1-1.4,2.1-1.4s1.5,0,2.4.2c.3,0,.4.1.4.4v.9c0,.3-.1.4-.4.3-.8-.2-1.4-.2-1.8-.2s-.7.2-.7.6.2.5.8.5c1.7,0,2.5.7,2.5,2.2s-.9,2.3-3.2,2.3-1.5-.1-2.1-.3c-.3,0-.3-.2-.3-.5ZM73.7,268.7v5.1c0,.8-.4,1.1-1.4,1.1h-3.3c-.3,0-.4-.1-.4-.4v-.9c0-.3.1-.4.4-.4h.8c-.6-.5-1.1-1.5-1.1-2.8s.8-2.3,2.1-2.3h2.3c.5,0,.7.2.7.7ZM76,260.1h1.1c.3,0,.4.2.4.5v1.5c0,1.7,1.1,3,2.6,3s.4.1.4.4v.9c0,.3-.1.4-.4.4-1.8,0-3.1-1.2-3.6-2.4-.5,1.2-1.8,2.4-3.6,2.4s-.4-.1-.4-.4v-.9c0-.3.1-.4.4-.4,1.5,0,2.6-1.3,2.6-3v-1.5c0-.3.2-.5.4-.5ZM68.9,264.5c0-.4-.2-.5-.6-.5h-1.1c-.3,0-.4-.1-.4-.4v-.9c0-.3.1-.4.4-.4h1c.3,0,.6.1.7.3v-2.3c0-.3.2-.5.4-.5h1.1c.3,0,.4.2.4.5v6.3c0,.3-.2.5-.4.5h-1.1c-.3,0-.4-.2-.4-.5v-2ZM58.9,261.5c-2.5,0-3.3.3-3.3,1.1s.8,1.1,3.3,1.1,3.3-.3,3.3-1.1-.8-1.1-3.3-1.1ZM53.3,274.3v-.8c0-.3.2-.4.5-.3,1.3.2,3.2.3,4.5.3,3.5,0,4.1,0,4.1-.6s-.4-.6-3.2-.6-4,0-5,0c-.2,0-.4-.1-.4-.4v-.7c0-.3.1-.4.4-.4h.6c-.7-.2-1.1-.8-1.1-1.4s.4-1.2,1.6-1.2c2.2,0,5.8,0,8.4.2.3,0,.4.1.4.4v.8c0,.3-.1.4-.4.4-1.9-.1-5.5-.2-7.2-.2s-.8.2-.8.5.2.5.9.5c.9,0,1.9,0,2.8,0,4,0,5.1.5,5.1,2.1s-1.2,2.2-6.1,2.2-3.3-.1-4.6-.3c-.3,0-.4-.2-.3-.4ZM59.1,265.9c2,0,4.4,0,6-.2.3,0,.4.1.4.4v.8c0,.3-.1.4-.4.4-1,.1-2.9.2-6,.2-2.4,0-4.8,0-6.1-.2-.3,0-.4-.2-.4-.4v-.8c0-.3.2-.4.4-.4,1.3.1,3.2.2,6,.2ZM58.9,265.2c-3.8,0-5.3-.7-5.3-2.6s1.5-2.6,5.3-2.6,5.3.7,5.3,2.6-1.5,2.6-5.3,2.6ZM40.6,266.4v3.5c.1.5.4.7.9.7h1.8c.5,0,.7-.2.7-.7v-3.5c.1,0-3.3,0-3.3,0ZM38.9,260.8h1c.3,0,.5.2.5.4v3.3c0,0,3.6,0,3.6,0v-3.3c0-.3.3-.4.6-.4h1c.3,0,.5.2.5.5l-.3,9.4c0,1.1-.8,1.8-2.1,1.8h-3c-1.3,0-2-.7-2.1-1.8l-.3-9.4c0-.3.2-.5.5-.5ZM34.6,268.1c0-.4-.2-.5-.6-.5h-1.1c-.3,0-.4-.1-.4-.4v-1c0-.3.1-.4.4-.4h1c.3,0,.6.1.7.3v-5.8c0-.3.2-.5.4-.5h1.1c.3,0,.4.2.4.5v14.1c0,.3-.2.5-.4.5h-1.1c-.3,0-.4-.2-.4-.5v-6.2ZM314.5,302.3v-.9c0-.3.2-.4.5-.3,1.3.2,3.2.3,4.5.3,3.5,0,4.1,0,4.1-.6s-.4-.6-3.2-.6-4,0-5,0c-.2,0-.4-.1-.4-.4v-.8c0-.3.1-.4.4-.4h.6c-.7-.2-1.1-.8-1.1-1.5s.4-1.3,1.6-1.4c.8,0,1.8,0,2.9,0v-.8c0-.3-.1-.4-.4-.4-1.3,0-3.4,0-4.6-.2-.3,0-.4-.2-.4-.4v-.8c0-.3.2-.4.4-.4.3,0,.6,0,1,0-.2-.7-.3-1.6-.3-2.3,0-1.6,1-2.5,2.9-2.5s1.7.1,2.4.3c.3,0,.4.2.4.5h0c.5-.5,1.3-.8,2.4-.8s1.4.1,2.1.3c.3,0,.4.2.4.5v1c0,.3-.2.4-.4.3-.8-.2-1.4-.3-1.9-.3s-1,.3-1,1,.2,1.5.3,2.1c1.9,0,3.1,0,3.9-.2.3,0,.4.1.4.4v.8c0,.3-.1.4-.4.4-1.3.1-3.6.2-5.3.2.1,0,.2.2.2.4v.8c1.3,0,2.5.1,3.6.2.3,0,.4.1.4.4v.9c0,.3-.1.4-.4.4-1.9-.1-5.5-.2-7.2-.2s-.8.2-.8.6.2.5.8.5c.9,0,1.9,0,2.8,0,4,0,5.1.6,5.1,2.2s-1.2,2.3-6.1,2.3-3.3-.1-4.6-.3c-.3,0-.4-.2-.3-.4ZM320.1,290.6c0-.1,0-.3,0-.4-.7-.2-1.6-.3-2.2-.3s-1,.3-1,1,.2,1.5.4,2.1c1,0,2,0,3.1,0h.2c-.2-.7-.3-1.7-.3-2.4ZM302.2,295.7h-1.1c-.3,0-.4-.1-.5-.4-.3-1.2-.6-3-.6-4,0-2.3.9-3.2,3.2-3.2s2.4.1,3.7.3c.3,0,.4.2.4.5v1c0,.3-.2.5-.4.4-1.1-.2-1.8-.3-3.6-.3s-1.3.4-1.3,1.3.3,2.8.6,3.9c0,.3-.1.5-.4.5ZM297.5,290.3c0,.4.2.5.6.5h.9c.3,0,.4.1.4.4v.9c0,.3-.1.4-.4.4h-.8c-.3,0-.6-.1-.7-.3v4.3c0,.3-.2.5-.4.5h-1.1c-.3,0-.4-.2-.4-.5v-8.4c0-.3.2-.5.4-.5h1.1c.3,0,.4.2.4.5v2.1ZM300.7,300.4c-.8,1.6-3.1,2.6-5.1,2.5-.3,0-.4-.1-.4-.4v-1c0-.3.1-.4.4-.4,2.2,0,4.1-1.3,4.1-3v-.6c0-.3.2-.5.4-.5h1.1c.3,0,.4.2.4.5v.6c0,1.6,1.9,3,4.1,3s.4.1.4.4v1c0,.3-.1.4-.4.4-2,.1-4.2-.9-5.1-2.5ZM289.4,288.6c2.6,0,3.8,1.9,3.8,6.1s-1.2,6.1-3.8,6.1-3.8-1.9-3.8-6.1,1.2-6.1,3.8-6.1ZM287.6,294.7c0,3,.6,4.2,1.9,4.2s1.9-1.2,1.9-4.2-.6-4.2-1.9-4.2-1.9,1.2-1.9,4.2ZM283.3,302.3c0,.3-.2.5-.4.5h-1.1c-.3,0-.4-.2-.4-.5v-14.1c0-.3.2-.5.4-.5h1.1c.3,0,.4.2.4.5v14.1ZM274.2,290.7c-.9,0-1.4,0-2.1.2-.3,0-.4-.1-.4-.4v-1c0-.3.1-.4.4-.4.6-.1,1.3-.1,2.3-.1,3.2,0,4.8,1.8,4.8,5.9,0,3.8-1.5,5.9-4.6,5.9s-2-.2-3.1-.7c-.3-.1-.4-.3-.4-.5l.3-1c0-.2.2-.4.3-.4s.1,0,.2,0c1,.4,1.9.6,2.6.6,1.9,0,2.8-1.3,2.8-4s-.8-4.1-2.9-4.1ZM267.6,296.1c0-.4-.2-.5-.6-.5h-1.1c-.3,0-.4-.1-.4-.4v-1c0-.3.1-.4.4-.4h1c.3,0,.6.1.7.3v-5.8c0-.3.2-.5.4-.5h1.1c.3,0,.4.2.4.5v14.1c0,.3-.2.5-.4.5h-1.1c-.3,0-.4-.2-.4-.5v-6.2ZM262.8,303.2c-.8,0-1.3-.5-1.3-1.2s.5-1.2,1.3-1.2,1.3.5,1.3,1.2-.5,1.2-1.3,1.2Z"/>
</svg>