<?xml version="1.0" encoding="UTF-8"?>
<svg id="_레이어_1" data-name="레이어_1" xmlns="http://www.w3.org/2000/svg" version="1.1" viewBox="0 0 360 610">
  <!-- Generator: Adobe Illustrator 29.0.1, SVG Export Plug-In . SVG Version: 2.1.0 Build 192)  -->
  <defs>
    <style>
      .st0 {
        fill: #f7dd79;
      }

      .st1 {
        fill: #7c63b0;
      }
    </style>
  </defs>
  <rect class="st1" y="0" width="360" height="610" rx="16" ry="16"/>
  <path class="st0" d="M321.3,49.5c-2.6,0-4.9-.1-6-.3-.3,0-.4-.2-.4-.5v-.9c0-.3.2-.4.5-.4,1.2.2,2.9.3,4.4.3s.6-.2.6-.5v-2.1c-1,0-2.1-.1-3.6-.3-.3,0-.4-.2-.4-.4v-1c0-.3.2-.4.5-.4,1.5.2,3.1.3,4.5.3,2.7,0,3.5-.7,3.5-2.3s-.9-2.3-3.9-2.3-1.9,0-3.9.2c-.3,0-.4-.1-.4-.4v-1c0-.3.1-.4.4-.4,2.1-.1,2.9-.2,3.9-.2,4.4,0,5.9,1.5,5.9,4.2s-1.2,3.9-4.5,4.2v2c0,.3-.2.6-.4.7,1.9,0,4.2-.2,5.4-.3.3,0,.5.1.5.4v.9c0,.3-.1.4-.4.5-1.3.2-3.3.3-6,.3ZM312.1,38.7l-.3,7.9c.5,0,1,0,1.4-.1.3,0,.4.1.4.4v1c0,.3-.1.4-.4.4-.9.1-2.4.2-4,.2s-3.3-.1-4-.2c-.3,0-.4-.1-.4-.4v-1c0-.3.1-.5.4-.4.4,0,.9,0,1.4.1l-.3-7.9h-.8c-.3,0-.4-.1-.4-.4v-1c0-.3.1-.4.4-.4h7.6c.3,0,.4.1.4.4v1c0,.3-.1.4-.4.4h-.9ZM301.6,44.1c0-.4-.2-.5-.6-.5h-1.1c-.3,0-.4-.1-.4-.4v-1c0-.3.1-.4.4-.4h1c.3,0,.6.1.7.3v-5.8c0-.3.2-.5.4-.5h1.1c.3,0,.4.2.4.5v14.1c0,.3-.2.5-.4.5h-1.1c-.3,0-.4-.2-.4-.5v-6.2ZM310.2,38.7h-2.1s.3,7.9.3,7.9h1.4s.3-7.9.3-7.9ZM295.5,42.3c.4,0,.7-.2.7-.5v-3.4c0-.3-.2-.4-.4-.4h-1.7c-1,0-1.4.7-1.4,1.9s.7,2.5,1.8,2.5h1.1ZM290.8,43.6v-.9c0-.3.1-.4.4-.4h1.1c-1-.6-1.7-1.9-1.7-3.4s.8-2.8,2.4-2.8h4.3c.5,0,.8.3.8.8v5.6c0,.9-.7,1.5-1.8,1.5h-5.2c-.3,0-.4-.1-.4-.4ZM288.4,45.8c0,.3-.2.5-.4.5h-1.1c-.3,0-.4-.2-.4-.5v-9.6c0-.3.2-.5.4-.5h1.1c.3,0,.4.2.4.5v9.6ZM296.8,47.9c0,2-1.4,3.2-3.7,3.2s-5-.1-6.7-.3c-.3,0-.4-.2-.4-.4v-.9c0-.3.2-.4.5-.4,2,.2,3.7.3,6.7.3s1.7-.5,1.7-1.6,0-1.3-.1-1.7c0-.3.2-.5.4-.5h1c.3,0,.4.2.5.4,0,.4.1,1.2.1,1.9ZM277.4,37.5c-2.5,0-3.3.3-3.3,1.1s.8,1.1,3.3,1.1,3.3-.3,3.3-1.1-.8-1.1-3.3-1.1ZM271.8,50.3v-.8c0-.3.2-.4.5-.3,1.3.2,3.2.3,4.5.3,3.5,0,4.1,0,4.1-.6s-.4-.6-3.2-.6-4,0-5,0c-.2,0-.4-.1-.4-.4v-.7c0-.3.1-.4.4-.4h.6c-.7-.2-1.1-.8-1.1-1.4s.4-1.2,1.6-1.2c2.2,0,5.8,0,8.4.2.3,0,.4.1.4.4v.8c0,.3-.1.4-.4.4-1.9-.1-5.5-.2-7.2-.2s-.8.2-.8.5.2.5.8.5c.9,0,1.9,0,2.8,0,4,0,5.1.5,5.1,2.1s-1.2,2.2-6.1,2.2-3.3-.1-4.6-.3c-.3,0-.4-.2-.3-.4ZM277.6,41.9c2,0,4.4,0,6-.2.3,0,.4.1.4.4v.8c0,.3-.1.4-.4.4-1,.1-2.9.2-6,.2-2.4,0-4.8,0-6.1-.2-.3,0-.4-.2-.4-.4v-.8c0-.3.2-.4.4-.4,1.3.1,3.2.2,6,.2ZM277.4,41.2c-3.8,0-5.3-.7-5.3-2.6s1.5-2.6,5.3-2.6,5.3.7,5.3,2.6-1.5,2.6-5.3,2.6ZM261.7,38.7v4c0,2,1.2,3.7,2.6,3.9.3,0,.4.2.4.5v1c0,.3-.1.4-.4.4-1.6-.2-3.1-1.5-3.6-3.1-.4,1.6-1.9,2.9-3.6,3.1-.3,0-.4-.1-.4-.4v-1c0-.3.1-.4.4-.5,1.4-.2,2.6-1.9,2.6-3.9v-4s-2.5,0-2.5,0c-.3,0-.4-.1-.4-.4v-1c0-.3.1-.4.4-.4h7c.3,0,.4.1.4.4v1c0,.3-.1.4-.4.4h-2.5ZM253.1,44.1c0-.4-.2-.5-.6-.5h-1.1c-.3,0-.4-.1-.4-.4v-1c0-.3.1-.4.4-.4h1c.3,0,.6.1.7.3v-5.8c0-.3.2-.5.4-.5h1.1c.3,0,.4.2.4.5v14.1c0,.3-.2.5-.4.5h-1.1c-.3,0-.4-.2-.4-.5v-6.2ZM249.6,42.4v.9c0,.3-.1.4-.4.5-1,.1-2.9.2-6,.2-2.4,0-4.8,0-6-.2-.3,0-.4-.2-.4-.5v-.9c0-.3.2-.4.5-.4.3,0,.7,0,1.2,0-.2-.8-.4-1.9-.4-2.9,0-2,1.2-3,3.7-3s4.3.1,6.1.3c.3,0,.4.2.4.4v1c0,.3-.2.4-.4.4-2.1-.2-3.7-.3-5.9-.3s-1.9.5-1.9,1.8.2,1.6.4,2.4c0,0,0,0,0,.1.8,0,1.7,0,2.8,0,2,0,4.4,0,5.9-.2.3,0,.5.1.5.4ZM237.8,48c0-2,.8-2.7,3.2-2.7s4.7.1,7,.3c.3,0,.4.2.4.4v.9c0,.3-.1.4-.4.4-2.3-.2-4.7-.3-6.9-.3s-1.4.3-1.4,1.4,0,1.5,0,2c0,.3-.2.5-.4.5h-1c-.3,0-.5-.2-.5-.4,0-.5-.1-1.3-.1-2.5ZM229.4,44.3c0,1.5.7,2.3,1.8,2.3s1.8-.8,1.8-2.3-.6-2.3-1.8-2.3-1.8.8-1.8,2.3ZM231.2,40.1c2.3,0,3.7,1.5,3.7,4.2s-1.4,4.2-3.7,4.2-3.7-1.5-3.7-4.2,1.4-4.2,3.7-4.2ZM223.5,44.1c0-.4-.2-.5-.6-.5h-1.1c-.3,0-.4-.1-.4-.4v-1c0-.3.1-.4.4-.4h1c.3,0,.6.1.7.3v-5.8c0-.3.2-.5.4-.5h1.1c.3,0,.4.2.4.5v14.1c0,.3-.2.5-.4.5h-1.1c-.3,0-.4-.2-.4-.5v-6.2ZM230.1,36.8v-1.1c0-.3.1-.4.4-.4h1.1c.3,0,.4.1.4.4v.9c0,.2-.1.4-.3.5h3.1c.3,0,.4.1.4.4v1c0,.3-.1.4-.4.4h-7.6c-.3,0-.4-.1-.4-.4v-1c0-.3.1-.4.4-.4h2.4c.3,0,.4,0,.4-.3ZM218.6,39.3c0,2-1.2,3.1-3.5,3.1s-5-.1-6.7-.3c-.3,0-.4-.2-.4-.4v-.9c0-.3.2-.4.5-.4,2,.2,3.8.3,6.4.3s1.6-.4,1.6-1.4,0-1.9-.1-2.6c0-.3.1-.5.4-.5h1c.3,0,.5.2.5.4,0,.8.1,2.1.1,2.7ZM218.9,48c0,2-1.3,3.1-3.6,3.1s-5.3-.1-7-.3c-.3,0-.4-.2-.4-.4v-.9c0-.3.2-.4.5-.4,2,.2,3.9.3,7,.3s1.6-.4,1.6-1.4,0-.8-.1-1.2c0-.3.1-.5.4-.5h1c.3,0,.5.2.5.4,0,.3.1.8.1,1.3ZM220,43.8v.9c0,.3-.1.4-.4.5-1,.1-2.9.2-6,.2-2.4,0-4.8,0-6-.2-.3,0-.4-.2-.4-.5v-.9c0-.3.2-.4.5-.4,1.3.1,3.2.2,6,.2s4.4,0,5.9-.2c.3,0,.5.1.5.4ZM198,47.3v2.4c0,.3-.2.5-.4.5h-1.1c-.3,0-.4-.2-.4-.5v-2.6c0-.4-.2-.5-.6-.5-1,0-2.4,0-3.8,0,.3.1.4.4.4.7v2.4c0,.3-.2.5-.4.5h-1.1c-.3,0-.4-.2-.4-.5v-2.7c0-.4-.2-.5-.6-.5-.3,0-1.1-.1-1.4-.2-.3,0-.4-.2-.4-.5v-.9c0-.3.2-.4.5-.4,1.3.2,3.6.3,6,.3s4.3-.1,5.9-.3c.3,0,.5.1.5.4v.9c0,.3-.1.4-.4.5-.7,0-1.6.2-2.5.2.3.1.5.4.5.7ZM197.3,39.7c0-1.3-1-1.9-3.3-1.9s-3.3.6-3.3,1.9,1.1,1.9,3.3,1.9,3.3-.6,3.3-1.9ZM193.9,43.4c-3.5,0-5.3-1.3-5.3-3.7s1.8-3.7,5.3-3.7,5.3,1.3,5.3,3.7-1.8,3.7-5.3,3.7ZM183.2,47.5v2.2c0,.3-.2.5-.4.5h-1.1c-.3,0-.4-.2-.4-.5v-2.4c0-.4-.2-.5-.6-.5-1,0-2.4,0-3.8,0,.3.1.4.4.4.7v2.2c0,.3-.2.5-.4.5h-1.1c-.3,0-.4-.2-.4-.5v-2.5c0-.4-.2-.5-.6-.5-.3,0-1.1-.1-1.4-.2-.3,0-.4-.2-.4-.5v-.9c0-.3.2-.4.5-.4,1.3.2,3.6.3,6,.3s4.3-.1,5.9-.3c.3,0,.5.1.5.4v.9c0,.3-.1.4-.4.5-.7,0-1.6.2-2.5.2.3.1.5.4.5.7ZM179.3,38.7c4,0,5.2.6,5.2,2.4s-1.2,2.5-5.2,2.5-3.5,0-4.9-.2c-.3,0-.4-.2-.4-.4v-.9c.1-.3.3-.4.5-.4,1.3.2,2.8.2,4.7.2s3.3-.2,3.3-.8-.5-.7-3.1-.7-3.1,0-4.7.1c-.3,0-.4-.1-.4-.4v-.9c0-.3.1-.4.4-.4.9,0,2.2-.1,4.6-.1ZM174.8,37.8c-.3,0-.4-.1-.4-.4v-.9c0-.3.1-.4.4-.4h9.2c.3,0,.4.1.4.4v.9c0,.3-.1.4-.4.4h-9.2ZM161.4,40.6v1.9c0,.5.4.7.9.7h4.6c.5,0,.7-.2.8-.7v-1.9c0,0-6.2,0-6.2,0ZM159.5,43.2l-.3-6.1c0-.3.2-.4.4-.4h1.1c.3,0,.4.2.4.4v1.7c0,0,6.5,0,6.5,0v-1.7c0-.3.2-.4.5-.4h1.1c.3,0,.5.2.4.4l-.3,6.1c0,1.1-.8,1.8-2.1,1.8h-5.7c-1.3,0-2-.7-2.1-1.8ZM170.9,47.8v.9c0,.3-.1.4-.4.5-1.3.2-3.3.3-6,.3s-4.9-.1-6-.3c-.3,0-.4-.2-.4-.5v-.9c0-.3.2-.4.5-.4,1.3.2,3.6.3,6,.3s4.3-.1,5.9-.3c.3,0,.5.1.5.4ZM145,45.1c-2.4,0-4.8,0-6-.2s-.4-.2-.4-.5v-.9c0-.3.2-.4.5-.4,1.2.1,3.2.2,4.6.1.3,0,.4-.2.4-.4v-1c0-.3.2-.5.4-.5h1.1c.3,0,.4.2.4.5v1c0,.2-.1.4-.3.5,1.7,0,3.9,0,5.2-.2.3,0,.5.1.5.4v.9c0,.3-.1.4-.4.5-1,.1-2.9.2-6,.2ZM140,41.9c-.3,0-.4-.1-.4-.4v-1c0-.3.1-.4.4-.4,2.3,0,3.8-1.2,3.8-2.9v-.7c0-.3.2-.5.4-.5h1.1c.3,0,.4.2.4.5v.7c0,1.7,1.6,2.9,3.8,2.9s.4.1.4.4v1c0,.3-.1.4-.4.4-2.1.1-4.1-.9-4.8-2.4-.7,1.5-2.7,2.5-4.8,2.4ZM139.5,48.5c0-2,.9-2.7,3.2-2.7s4.7.1,7,.3c.3,0,.4.2.4.4v.9c0,.3-.1.4-.4.4-2.3-.2-4.7-.3-6.9-.3s-1.4.3-1.4,1.4,0,1,0,1.4c0,.3-.2.5-.4.5h-1c-.3,0-.5-.2-.5-.4,0-.5-.1-1-.1-2ZM128.1,49.8c-1.6,0-3,0-4.2-.2-.3,0-.4-.2-.4-.5v-1c0-.3.2-.4.4-.4.6.1,1.4.2,2.6.2s.6-.2.6-.5v-1.8c-1.8-.2-2.8-1.2-2.8-2.9s1.3-2.9,3.7-2.9,3.7,1,3.7,2.9-.9,2.6-2.6,2.9v1.6c0,.3-.2.6-.4.7,1.2,0,2.4-.1,3.3-.3.3,0,.5,0,.5.4v1c0,.3-.1.4-.4.4-1.1.2-2.2.3-3.9.3ZM120.5,44.1c0-.4-.2-.5-.6-.5h-1.1c-.3,0-.4-.1-.4-.4v-1c0-.3.1-.4.4-.4h1c.3,0,.6.1.7.3v-5.8c0-.3.2-.5.4-.5h1.1c.3,0,.4.2.4.5v14.1c0,.3-.2.5-.4.5h-1.1c-.3,0-.4-.2-.4-.5v-6.2ZM126.9,36.7v-.8c0-.3.1-.4.4-.4h1.1c.3,0,.4.1.4.4v.6c0,.2-.1.4-.3.5h3.1c.3,0,.4.1.4.4v1c0,.3-.1.4-.4.4h-7.6c-.3,0-.4-.1-.4-.4v-1c0-.3.1-.4.4-.4h2.4c.3,0,.4,0,.4-.3ZM127.9,41.6c-1.2,0-1.8.4-1.8,1.1s.6,1.2,1.8,1.2,1.8-.4,1.8-1.2-.6-1.1-1.8-1.1ZM115.1,45.2c0-1.2-.6-1.7-2.5-1.7s-1.4,0-2.3,0-.4-.1-.4-.4v-.9c0-.3.1-.4.4-.4h.5c-.7-.5-1.1-1.4-1.1-2.5,0-1.6,1.1-2.5,3.1-2.5s2.1,0,3.3.2c.3,0,.4.2.4.4v1.1c0,.3-.2.4-.4.4-1.4-.2-2.2-.3-2.8-.3-1.1,0-1.6.5-1.6,1.5s.5,1.5,1.5,1.5c2.7,0,3.9,1.1,3.9,3.4s-1.3,3.6-4,3.6-2.2-.2-3.5-.7c-.3-.1-.4-.3-.3-.5l.3-1c0-.2.2-.3.3-.3s.1,0,.2,0c1,.4,1.8.6,2.6.6,1.8,0,2.5-.5,2.5-1.7ZM107.9,38.9h.9c.3,0,.4.1.4.4v1c0,.3-.1.4-.4.4h-.8c-.3,0-.6-.1-.7-.3v2.9c0,.4.2.5.6.5h.9c.3,0,.4.1.4.4v1c0,.3-.1.4-.4.4h-.8c-.3,0-.6-.1-.7-.3v5c0,.3-.2.5-.4.5h-1.1c-.3,0-.4-.2-.4-.5v-14.1c0-.3.2-.5.4-.5h1.1c.3,0,.4.2.4.5v2.2c0,.4.2.5.6.5ZM101,41.8c0-.7-.5-1.1-1.8-1.1s-1.8.4-1.8,1.1.5,1.1,1.8,1.1,1.8-.4,1.8-1.1ZM99.2,44.6c-2.5,0-3.7-1-3.7-2.8s1.2-2.8,3.7-2.8,3.7,1,3.7,2.8-1.2,2.8-3.7,2.8ZM91.6,42.2c0-.4-.2-.5-.6-.5h-1.1c-.3,0-.4-.1-.4-.4v-.9c0-.3.1-.4.4-.4h1c.3,0,.6.1.7.3v-4c0-.3.2-.5.4-.5h1.1c.3,0,.4.2.4.5v9.6c0,.3-.2.5-.4.5h-1.1c-.3,0-.4-.2-.4-.5v-3.6ZM98.2,36v-.6c0-.3.1-.4.4-.4h1.1c.3,0,.4.1.4.4v.4c0,.2-.1.4-.3.5h3.1c.3,0,.4.1.4.4v.9c0,.3-.1.4-.4.4h-7.6c-.3,0-.4-.1-.4-.4v-.9c0-.3.1-.4.4-.4h2.4c.3,0,.4,0,.4-.3ZM101.6,47.9c0,2-1.4,3.2-3.7,3.2s-4.7-.1-6.4-.3c-.3,0-.4-.2-.4-.4v-.9c0-.3.2-.4.5-.4,2,.2,3.5.3,6.4.3s1.7-.5,1.7-1.6,0-.9-.1-1.3c0-.3.2-.5.4-.5h1c.3,0,.4.2.5.4,0,.4.1.9.1,1.5ZM77,46.4c-2.7,0-3.6.6-3.6,1.4s.9,1.4,3.6,1.4,3.6-.6,3.6-1.4-.9-1.4-3.6-1.4ZM79.8,41.8c1.1,0,1.8-.8,1.8-2s-.7-2-1.8-2-1.8.8-1.8,2,.7,2,1.8,2ZM77,51.1c-3.7,0-5.6-1.1-5.6-3.2s1.9-3.2,5.6-3.2,5.6,1.1,5.6,3.2-1.9,3.2-5.6,3.2ZM79.8,36c2.3,0,3.7,1.5,3.7,3.8s-1.5,3.8-3.7,3.8-3.7-1.5-3.7-3.8,1.5-3.8,3.7-3.8ZM73.6,43.4c0,.3-.2.5-.4.5h-1.1c-.3,0-.4-.2-.4-.5v-7.2c0-.3.2-.5.4-.5h1.1c.3,0,.4.2.4.5v.5c0,.3.1.5.5.5h1.2c.3,0,.4.1.4.4v.9c0,.3-.1.4-.4.4h-1c-.3,0-.6-.1-.7-.3v1.5c0,.3.1.5.5.5h1.2c.3,0,.4.1.4.4v.9c0,.3-.1.4-.4.4h-1c-.3,0-.6-.1-.7-.3v1.3ZM62.9,46.4c-2.6,0-3.4.6-3.4,1.4s.8,1.4,3.4,1.4,3.4-.6,3.4-1.4-.8-1.4-3.4-1.4ZM62.9,51.1c-3.6,0-5.4-1.1-5.4-3.2s1.8-3.2,5.4-3.2,5.4,1.1,5.4,3.2-1.8,3.2-5.4,3.2ZM65,36.1h1.1c.3,0,.4.2.4.5v1.9c0,1.8,1.1,3.2,2.6,3.2s.4.1.4.4v.9c0,.3-.1.4-.4.4-1.8,0-3.1-1.1-3.6-2.4-.5,1.3-1.8,2.4-3.6,2.4s-.4-.1-.4-.4v-.9c0-.3.1-.4.4-.4,1.5,0,2.6-1.3,2.6-3.2v-1.9c0-.3.2-.5.4-.5ZM57.9,41c0-.4-.2-.5-.6-.5h-1.1c-.3,0-.4-.1-.4-.4v-.9c0-.3.1-.4.4-.4h1c.3,0,.6.1.7.3v-2.8c0-.3.2-.5.4-.5h1.1c.3,0,.4.2.4.5v7.2c0,.3-.2.5-.4.5h-1.1c-.3,0-.4-.2-.4-.5v-2.4ZM43.1,51.1c-3.8,0-5.6-1-5.6-2.9s1.5-2.8,4.7-2.9v-.6c0-.3-.1-.4-.4-.4-1.3,0-3.3,0-4.6-.2-.3,0-.4-.2-.4-.5v-.9c0-.3.2-.4.5-.4,1.2.1,3.6.2,6,.2,3.1,0,4.9,0,5.9-.2.3,0,.5.1.5.4v.9c0,.3-.1.4-.4.5-1.3.1-3.5.2-5.2.2.1,0,.2.2.2.4v.6c3,.2,4.5,1.1,4.5,2.9s-1.8,2.9-5.6,2.9ZM43.2,39.5c-.7,1.2-2.7,2.2-4.8,2.1-.3,0-.4-.1-.4-.4v-1c0-.3.1-.4.4-.4,2.2,0,3.7-.8,3.8-1.9h-3.6c-.3,0-.4-.1-.4-.4v-.9c0-.3.1-.4.4-.4h9.1c.3,0,.4.1.4.4v.9c0,.3-.1.4-.4.4h-3.6c.1,1.1,1.6,1.9,3.8,1.9s.4.1.4.4v1c0,.3-.1.4-.4.4-2.1.1-4.1-.9-4.8-2.1ZM43.1,47c-2.6,0-3.6.3-3.6,1.2s1.1,1.2,3.6,1.2,3.6-.3,3.6-1.2-1-1.2-3.6-1.2ZM322.2,70.7c0,3,.6,4.2,1.9,4.2s1.9-1.2,1.9-4.2-.6-4.2-1.9-4.2-1.9,1.2-1.9,4.2ZM324.1,64.6c2.6,0,3.8,1.9,3.8,6.1s-1.2,6.1-3.8,6.1-3.8-1.9-3.8-6.1,1.2-6.1,3.8-6.1ZM316.4,72.1c0-.4-.2-.5-.6-.5h-1.1c-.3,0-.4-.1-.4-.4v-1c0-.3.1-.4.4-.4h1c.3,0,.6.1.7.3v-5.8c0-.3.2-.5.4-.5h1.1c.3,0,.4.2.4.5v14.1c0,.3-.2.5-.4.5h-1.1c-.3,0-.4-.2-.4-.5v-6.2ZM305.4,68.5c0-2.6,1-3.7,3.3-3.7s2.4.1,3.7.3c.3,0,.4.2.4.5v1c0,.3-.2.5-.4.4-1.1-.2-2.1-.3-3.3-.3s-1.7.5-1.7,2c0,2.5.2,4.9.6,7.4,0,.3-.1.5-.4.5h-1.1c-.3,0-.4-.1-.5-.4-.4-2.5-.6-4.9-.6-7.6ZM303.2,78.3c0,.3-.2.5-.4.5h-1.1c-.3,0-.4-.2-.4-.5v-14.1c0-.3.2-.5.4-.5h1.1c.3,0,.4.2.4.5v14.1ZM283.9,71.2c1.7,0,2.1-.6,2.1-2.4s-.5-2.4-2.1-2.4-.7,0-1,0-.4,0-.4-.4v-1c0-.3.1-.4.4-.5.3,0,.7,0,1,0,2.6,0,3.9,1.5,3.9,4.2s-.1,1.5-.3,2.1c.5.2,1,.3,1.6.3,1.4,0,2-.7,2-2.4s-.5-2.4-1.8-2.4-.5,0-.9,0c-.3,0-.4,0-.4-.4v-1c0-.3.1-.4.4-.5.3,0,.6,0,1,0,2.3,0,3.5,1.5,3.5,4.2s-1.2,4.2-3.7,4.2-.6,0-.8,0v1.9c0,.3-.2.6-.4.7,1.9,0,4.2-.2,5.4-.3.3,0,.5.1.5.4v.9c0,.3-.1.4-.4.5-1.3.2-3.3.3-6,.3s-4.9-.1-6-.3c-.3,0-.4-.2-.4-.5v-.9c0-.3.2-.4.5-.4,1.2.2,2.9.3,4.4.3s.6-.2.6-.5v-2.7c-.6.5-1.4.7-2.5.7s-1.1,0-1.6-.2c-.2,0-.4-.3-.3-.5v-1c.1-.3.3-.4.6-.3.4,0,.8.1,1.2.1ZM277.8,67.3c0,2-1.2,3.1-3.5,3.1s-5-.1-6.7-.3c-.3,0-.4-.2-.4-.4v-.9c0-.3.2-.4.5-.4,2,.2,3.8.3,6.4.3s1.6-.4,1.6-1.4,0-1.9-.1-2.6c0-.3.1-.5.4-.5h1c.3,0,.5.2.5.4,0,.8.1,2.1.1,2.7ZM278.1,76c0,2-1.3,3.1-3.6,3.1s-5.3-.1-7-.3c-.3,0-.4-.2-.4-.4v-.9c0-.3.2-.4.5-.4,2,.2,3.9.3,7,.3s1.6-.4,1.6-1.4,0-.8-.1-1.2c0-.3.1-.5.4-.5h1c.3,0,.5.2.5.4,0,.3.1.8.1,1.3ZM279.2,71.8v.9c0,.3-.1.4-.4.5-1,.1-2.9.2-6,.2-2.4,0-4.8,0-6-.2-.3,0-.4-.2-.4-.5v-.9c0-.3.2-.4.5-.4,1.3.1,3.2.2,6,.2s4.4,0,5.9-.2c.3,0,.5.1.5.4ZM253.4,74.4c-2.6,0-3.4.6-3.4,1.4s.8,1.4,3.4,1.4,3.4-.6,3.4-1.4-.8-1.4-3.4-1.4ZM254.4,71.4h-1.1c-.3,0-.4-.1-.5-.4-.3-1.2-.6-2.7-.6-3.6,0-2.3.9-3.2,3.2-3.2s2.5.1,3.9.3c.3,0,.4.2.4.5v1c0,.3-.2.5-.4.4-1.1-.2-1.9-.3-3.8-.3s-1.3.4-1.3,1.3.3,2.5.6,3.6c0,.3-.1.5-.4.5ZM253.4,79.1c-3.6,0-5.4-1.1-5.4-3.2s1.8-3.2,5.4-3.2,5.4,1.1,5.4,3.2-1.8,3.2-5.4,3.2ZM248.3,69c0-.4-.2-.5-.6-.5h-1.1c-.3,0-.4-.1-.4-.4v-.9c0-.3.1-.4.4-.4h1c.3,0,.6.1.7.3v-2.8c0-.3.2-.5.4-.5h1.1c.3,0,.4.2.4.5v7.2c0,.3-.2.5-.4.5h-1.1c-.3,0-.4-.2-.4-.5v-2.4ZM239.4,70.7c0,3,.6,4.2,1.9,4.2s1.9-1.2,1.9-4.2-.6-4.2-1.9-4.2-1.9,1.2-1.9,4.2ZM241.3,64.6c2.6,0,3.8,1.9,3.8,6.1s-1.2,6.1-3.8,6.1-3.8-1.9-3.8-6.1,1.2-6.1,3.8-6.1ZM233.5,72.1c0-.4-.2-.5-.6-.5h-1.1c-.3,0-.4-.1-.4-.4v-1c0-.3.1-.4.4-.4h1c.3,0,.6.1.7.3v-5.8c0-.3.2-.5.4-.5h1.1c.3,0,.4.2.4.5v14.1c0,.3-.2.5-.4.5h-1.1c-.3,0-.4-.2-.4-.5v-6.2ZM227.4,66.7v4c0,2,1.2,3.7,2.6,3.9.3,0,.4.2.4.5v1c0,.3-.1.4-.4.4-1.6-.2-3.1-1.5-3.6-3.1-.4,1.6-1.9,2.9-3.6,3.1-.3,0-.4-.1-.4-.4v-1c0-.3.1-.4.4-.5,1.4-.2,2.6-1.9,2.6-3.9v-4s-2.5,0-2.5,0c-.3,0-.4-.1-.4-.4v-1c0-.3.1-.4.4-.4h7c.3,0,.4.1.4.4v1c0,.3-.1.4-.4.4h-2.5ZM220.4,78.3c0,.3-.2.5-.4.5h-1.1c-.3,0-.4-.2-.4-.5v-14.1c0-.3.2-.5.4-.5h1.1c.3,0,.4.2.4.5v14.1ZM204.9,74.4c-2.7,0-3.6.6-3.6,1.4s.9,1.4,3.6,1.4,3.6-.6,3.6-1.4-.9-1.4-3.6-1.4ZM207.7,69.8c1.1,0,1.8-.8,1.8-2s-.7-2-1.8-2-1.8.8-1.8,2,.7,2,1.8,2ZM204.9,79.1c-3.7,0-5.6-1.1-5.6-3.2s1.9-3.2,5.6-3.2,5.6,1.1,5.6,3.2-1.9,3.2-5.6,3.2ZM207.7,64c2.3,0,3.7,1.5,3.7,3.8s-1.5,3.8-3.7,3.8-3.7-1.5-3.7-3.8,1.5-3.8,3.7-3.8ZM201.5,71.4c0,.3-.2.5-.4.5h-1.1c-.3,0-.4-.2-.4-.5v-7.2c0-.3.2-.5.4-.5h1.1c.3,0,.4.2.4.5v.5c0,.3.1.5.5.5h1.2c.3,0,.4.1.4.4v.9c0,.3-.1.4-.4.4h-1c-.3,0-.6-.1-.7-.3v1.5c0,.3.1.5.5.5h1.2c.3,0,.4.1.4.4v.9c0,.3-.1.4-.4.4h-1c-.3,0-.6-.1-.7-.3v1.3ZM190.8,74.4c-2.6,0-3.4.6-3.4,1.4s.8,1.4,3.4,1.4,3.4-.6,3.4-1.4-.8-1.4-3.4-1.4ZM190.8,79.1c-3.6,0-5.4-1.1-5.4-3.2s1.8-3.2,5.4-3.2,5.4,1.1,5.4,3.2-1.8,3.2-5.4,3.2ZM192.9,64.1h1.1c.3,0,.4.2.4.5v1.9c0,1.8,1.1,3.2,2.6,3.2s.4.1.4.4v.9c0,.3-.1.4-.4.4-1.8,0-3.1-1.1-3.6-2.4-.5,1.3-1.8,2.4-3.6,2.4s-.4-.1-.4-.4v-.9c0-.3.1-.4.4-.4,1.5,0,2.6-1.3,2.6-3.2v-1.9c0-.3.2-.5.4-.5ZM185.8,69c0-.4-.2-.5-.6-.5h-1.1c-.3,0-.4-.1-.4-.4v-.9c0-.3.1-.4.4-.4h1c.3,0,.6.1.7.3v-2.8c0-.3.2-.5.4-.5h1.1c.3,0,.4.2.4.5v7.2c0,.3-.2.5-.4.5h-1.1c-.3,0-.4-.2-.4-.5v-2.4ZM174.6,71.5c-.2,0-.5-.1-.6-.3v7.2c0,.3-.1.4-.4.4h-1c-.3,0-.4-.1-.4-.4v-14c0-.3.1-.4.4-.4h1c.3,0,.4.1.4.4v4.8c0,.3.1.5.5.5h1.4c.2-3.4,1.3-5,3.4-5s3.4,1.9,3.4,6.1-1.1,6.1-3.4,6.1-3.2-1.7-3.4-5.3h-1.3ZM169.6,63.7h1c.3,0,.4.1.4.4v14.2c0,.3-.1.4-.4.4h-1c-.3,0-.4-.1-.4-.4v-14.2c0-.3.1-.4.4-.4ZM177.8,70.7c0,3,.5,4.2,1.5,4.2s1.5-1.3,1.5-4.2-.5-4.2-1.5-4.2-1.5,1.2-1.5,4.2ZM150.6,69.2c-.2-.8-.4-1.8-.4-2.6,0-1.6,1-2.5,2.9-2.5s1.7.1,2.4.3c.3,0,.4.2.4.5h0c.5-.5,1.3-.8,2.4-.8s1.4.1,2.1.3c.3,0,.4.2.4.5v1c0,.3-.2.4-.4.3-.8-.2-1.4-.3-1.9-.3s-1,.3-1,1,.2,1.9.4,2.3c1.4,0,2.7,0,3.8-.1.3,0,.4.1.4.4v.8c0,.3-.1.4-.4.4-1,.1-2.9.2-6,.2-2.4,0-4.8,0-6.1-.2-.3,0-.4-.2-.4-.4v-.8c0-.3.2-.4.4-.4.3,0,.6,0,1,0ZM149.8,78.3v-.8c0-.3.2-.4.5-.3,1.3.2,3.2.3,4.5.3,3.5,0,4.1,0,4.1-.6s-.4-.6-3.2-.6-4,0-5,0c-.2,0-.4-.1-.4-.4v-.8c0-.3.1-.4.4-.4h.6c-.7-.2-1.1-.8-1.1-1.5s.4-1.3,1.6-1.4c2.2,0,5.8,0,8.4.2.3,0,.4.1.4.4v.8c0,.3-.1.4-.4.4-1.9-.1-5.5-.2-7.2-.2s-.8.2-.8.6.2.5.9.5c.9,0,1.9,0,2.8,0,4,0,5.1.6,5.1,2.2s-1.2,2.3-6.1,2.3-3.3-.1-4.6-.3c-.3,0-.4-.2-.3-.4ZM155.4,66.6c0-.1,0-.3,0-.4-.7-.2-1.6-.3-2.2-.3s-1,.3-1,1,.2,1.9.4,2.3c.9,0,1.9,0,3,0h.2c-.2-.8-.4-1.8-.4-2.7ZM139.3,71.4l.2-.9c0-.2.2-.3.3-.3s.1,0,.2,0c.8.3,2.1.5,2.9.5,1.9,0,2.4-.2,2.4-.8s-.6-.9-2.9-.9-1.4,0-2.2,0c-.3,0-.4-.1-.4-.4v-.8c0-.3.1-.4.4-.4h.4c-.6-.4-.9-.9-.9-1.7,0-1.2.8-1.7,3-1.7,1.5,0,2.5,0,3.6.2.3,0,.4.2.4.4v.9c0,.3-.2.4-.4.4-1.3-.2-2.6-.2-3.2-.2-1,0-1.4.2-1.4.7s.4.8,1.3.8c3.2,0,4.3.7,4.3,2.6s-1.1,2.6-3.9,2.6-2.9-.3-3.8-.6c-.3-.1-.4-.3-.3-.5ZM137.5,73.8c0,.3-.2.5-.4.5h-1.1c-.3,0-.4-.2-.4-.5v-9.6c0-.3.2-.5.4-.5h1.1c.3,0,.4.2.4.5v9.6ZM145.9,75.9c0,2-1.4,3.2-3.7,3.2s-5-.1-6.7-.3c-.3,0-.4-.2-.4-.4v-.9c0-.3.2-.4.5-.4,2,.2,3.7.3,6.7.3s1.7-.5,1.7-1.6,0-.9-.1-1.3c0-.3.2-.5.4-.5h1c.3,0,.4.2.5.4,0,.4.1.9.1,1.5ZM125.6,65.9v.7c0,1.9,1.1,3.3,2.6,3.3s.4.1.4.4v.9c0,.3-.1.4-.4.4-1.8,0-3.1-1.2-3.6-2.5-.5,1.3-1.8,2.5-3.6,2.5s-.4-.1-.4-.4v-.9c0-.3.1-.4.4-.4,1.5,0,2.6-1.4,2.6-3.3v-.7s-2.5,0-2.5,0c-.3,0-.4-.1-.4-.4v-.9c0-.3.1-.4.4-.4h7c.3,0,.4.1.4.4v.9c0,.3-.1.4-.4.4h-2.5ZM116.7,75.8c0-1.9,1-2.7,3.3-2.7s5,.1,6.8.3c.3,0,.4.2.4.4v.9c0,.3-.1.4-.4.4-2.1-.2-4.1-.3-6.6-.3s-1.6.3-1.6,1.4,0,1.6,0,2.2c0,.3-.2.5-.4.5h-1c-.3,0-.5-.2-.5-.4,0-.6,0-1.5,0-2.7ZM118.6,66.5c0,.4.2.5.6.5h1.3c.3,0,.4.1.4.4v.9c0,.3-.1.4-.4.4h-1.2c-.3,0-.6-.1-.7-.3v2.9c0,.3-.2.5-.4.5h-1.1c-.3,0-.4-.2-.4-.5v-7.2c0-.3.2-.5.4-.5h1.1c.3,0,.4.2.4.5v2.3ZM105.8,69.9c1.1,0,1.9-.8,1.9-2.1s-.7-2.1-1.9-2.1-1.9.8-1.9,2.1.7,2.1,1.9,2.1ZM100.4,77.1c-.5,1-1.6,1.8-2.9,1.8s-.6,0-.6-.4v-1c0-.3.1-.4.4-.4,1.2,0,2.1-1,2.1-2.2v-1.6c0-.3.2-.5.4-.5h1.1c.3,0,.4.2.4.5v2c0,1.1.6,1.8,1.6,1.8s1.6-.7,1.6-1.8v-2c0-.3.2-.5.4-.5h1.1c.3,0,.4.2.4.5v1.6c0,1.2.8,2.2,2.1,2.2s.4.1.4.4v1c0,.4-.3.4-.6.4-1.3,0-2.4-.8-2.9-1.8-.4,1-1.4,1.8-2.6,1.8s-2.2-.7-2.6-1.8ZM105.8,64c2.3,0,3.8,1.5,3.8,3.9s-1.5,3.9-3.8,3.9-3.8-1.5-3.8-3.9,1.5-3.9,3.8-3.9ZM99.7,71.2c0,.3-.2.5-.4.5h-1.1c-.3,0-.4-.2-.4-.5v-7c0-.3.2-.5.4-.5h1.1c.3,0,.4.2.4.5v7ZM90.5,66.7c-.9,0-1.4,0-2.1.2-.3,0-.4-.1-.4-.4v-1c0-.3.1-.4.4-.4.6-.1,1.3-.1,2.3-.1,3.2,0,4.8,1.8,4.8,5.9s-1.5,5.9-4.6,5.9-2-.2-3.1-.7c-.3-.1-.4-.3-.4-.5l.3-1c0-.2.2-.4.3-.4s.1,0,.2,0c1,.4,1.9.6,2.6.6,1.9,0,2.8-1.3,2.8-4s-.8-4.1-2.9-4.1ZM84,72.1c0-.4-.2-.5-.6-.5h-1.1c-.3,0-.4-.1-.4-.4v-1c0-.3.1-.4.4-.4h1c.3,0,.6.1.7.3v-5.8c0-.3.2-.5.4-.5h1.1c.3,0,.4.2.4.5v14.1c0,.3-.2.5-.4.5h-1.1c-.3,0-.4-.2-.4-.5v-6.2ZM77.9,70.3c.4,0,.7-.2.7-.5v-3.4c0-.3-.2-.4-.4-.4h-1.5c-1,0-1.4.7-1.4,1.9s.7,2.5,1.8,2.5h1ZM73.4,71.6v-.9c0-.3.1-.4.4-.4h1.1c-1-.6-1.6-1.9-1.6-3.4s.8-2.8,2.4-2.8h4.1c.5,0,.8.3.8.8v5.6c0,.9-.7,1.5-1.8,1.5h-5c-.3,0-.4-.1-.4-.4ZM68.9,64.2c0-.3.2-.5.4-.5h1.1c.3,0,.4.2.4.5v.7c0,.3.1.5.5.5h1c.3,0,.4.1.4.4v.9c0,.3-.1.4-.4.4h-.8c-.3,0-.6-.1-.7-.3v1.8c0,.3.1.5.5.5h1c.3,0,.4.1.4.4v.9c0,.3-.1.4-.4.4h-.8c-.3,0-.6-.1-.7-.3v3.2c0,.3-.2.5-.4.5h-1.1c-.3,0-.4-.2-.4-.5v-9.6ZM79.3,75.9c0,2-1.4,3.2-3.7,3.2s-5-.1-6.7-.3c-.3,0-.4-.2-.4-.4v-.9c0-.3.2-.4.5-.4,2,.2,3.7.3,6.7.3s1.7-.5,1.7-1.6,0-1.3-.1-1.7c0-.3.2-.5.4-.5h1c.3,0,.4.2.5.4,0,.4.1,1.2.1,1.9ZM59.2,65.3c0-.6.4-1.1,1-1.2-.1-.3-.3-.4-.7-.4s-.2,0-.2-.2v-.4c0-.1,0-.2.2-.2,1.3,0,2.2.8,2.2,2.2s-.5,1.4-1.3,1.4-1.3-.5-1.3-1.2ZM53.4,69.5c.4,0,.7-.2.7-.5v-2.6c0-.3-.2-.4-.4-.4h-4.5c-1.1,0-1.4.3-1.4,1.3,0,1.4.7,2.2,1.7,2.2h3.9ZM45,74.4c-.3,0-.4-.2-.4-.5v-.9c0-.3.2-.4.5-.4,1.3.2,3.6.3,6,.3s4.3-.1,5.9-.3c.3,0,.5.1.5.4v.9c0,.3-.1.4-.4.5-1.2.2-3.6.3-5.5.3.3.1.4.4.4.7v2.3c0,.3-.2.5-.4.5h-1.1c-.3,0-.4-.2-.4-.5v-2.6c0-.4-.2-.5-.6-.5-1.5,0-3.3-.1-4.4-.3ZM45.8,66.4c0-1.5.7-2.2,2.5-2.2h6.9c.5,0,.8.3.8.8v4.8c0,.9-.7,1.5-1.8,1.5h-8.2c-.3,0-.4-.1-.4-.4v-.9c0-.3.1-.4.4-.4h1.4c-1-.5-1.6-1.7-1.6-3.1ZM315,91.7h1c.3,0,.4.1.4.4v5.5s1,0,1,0c.2,0,.5.1.6.3v-5.7c0-.3.1-.4.4-.4h1c.3,0,.4.1.4.4v14c0,.3-.1.4-.4.4h-1c-.3,0-.4-.1-.4-.4v-6.4c0-.3-.1-.5-.5-.5h-1s0,6.8,0,6.8c0,.3-.1.4-.4.4h-1c-.3,0-.4-.1-.4-.4v-14.2c0-.3.1-.4.4-.4ZM324.7,96.1c2.1,0,3.2,1.5,3.2,4.2s-1.1,4.2-3.2,4.2-3.2-1.5-3.2-4.2,1.1-4.2,3.2-4.2ZM323.7,92.8v-1.1c0-.3.1-.4.4-.4h1c.3,0,.4.1.4.4v.9c0,.2-.1.4-.3.5h2.6c.3,0,.4.1.4.4v1c0,.3-.1.4-.4.4h-6.6c-.3,0-.4-.1-.4-.4v-1c0-.3.1-.4.4-.4h2c.3,0,.4,0,.4-.3ZM323.3,100.3c0,1.6.4,2.3,1.3,2.3s1.3-.8,1.3-2.3-.4-2.3-1.3-2.3-1.3.8-1.3,2.3ZM304.4,99.1l.2-.9c0-.2.2-.3.3-.3s.1,0,.2,0c.8.3,1.9.5,2.7.5,1.9,0,2.4-.2,2.4-.8s-.6-.8-2.7-.8-1.4,0-2.2,0c-.3,0-.4-.1-.4-.4v-.8c0-.3.1-.4.4-.4h.4c-.6-.3-.9-.9-.9-1.6,0-1.1.8-1.6,3-1.6,1.4,0,2.3,0,3.5.2.3,0,.4.2.4.4v.9c0,.3-.2.4-.4.4-1.3-.2-2.4-.2-3.1-.2-1,0-1.4.2-1.4.6s.4.7,1.3.7c3.1,0,4.1.7,4.1,2.5s-1.1,2.5-3.9,2.5-2.8-.3-3.6-.6c-.3-.1-.4-.3-.3-.5ZM300.5,92.2c0-.3.2-.5.4-.5h1.1c.3,0,.4.2.4.5v.6c0,.3.1.5.5.5h.8c.3,0,.4.1.4.4v.9c0,.3-.1.4-.4.4h-.6c-.3,0-.6-.1-.7-.3v1.6c0,.3.1.5.5.5h.8c.3,0,.4.1.4.4v.9c0,.3-.1.4-.4.4h-.6c-.3,0-.6-.1-.7-.3v1.4c0,.3-.2.5-.4.5h-1.1c-.3,0-.4-.2-.4-.5v-7.5ZM300.5,104.1c0-1.9,1-2.7,3.3-2.7s5,.1,6.8.3c.3,0,.4.2.4.4v.9c0,.3-.1.4-.4.4-2.1-.2-4.1-.3-6.6-.3s-1.6.3-1.6,1.4,0,1.3,0,1.8c0,.3-.2.5-.4.5h-1c-.3,0-.5-.2-.5-.4,0-.6,0-1.3,0-2.3ZM298.1,92.2c0,.6-.4,1.1-1,1.2.1.3.3.4.7.4s.2,0,.2.2v.4c0,.1,0,.2-.2.2-1.3,0-2.2-.8-2.2-2.2s.5-1.4,1.3-1.4,1.3.5,1.3,1.2ZM286,99.5c-.2,0-.5-.1-.6-.3v7.2c0,.3-.1.4-.4.4h-1c-.3,0-.4-.1-.4-.4v-14c0-.3.1-.4.4-.4h1c.3,0,.4.1.4.4v4.8c0,.3.1.5.5.5h1.4c.2-3.4,1.3-5,3.4-5s3.4,1.9,3.4,6.1-1.1,6.1-3.4,6.1-3.2-1.7-3.4-5.3h-1.3ZM281,91.7h1c.3,0,.4.1.4.4v14.2c0,.3-.1.4-.4.4h-1c-.3,0-.4-.1-.4-.4v-14.2c0-.3.1-.4.4-.4ZM289.2,98.7c0,3,.5,4.2,1.5,4.2s1.5-1.3,1.5-4.2-.5-4.2-1.5-4.2-1.5,1.2-1.5,4.2ZM271.1,98.4v4c0,.2.1.3.3.3h.3c.2,0,.3-.1.3-.3v-4c0,0-1,0-1,0ZM266.1,98.4v4c0,.2.1.3.3.3h.3c.2,0,.3-.1.3-.3v-4c0,0-1,0-1,0ZM269.5,103.3v-10.1c-.1-.2,0-.4.3-.4h.9c.2,0,.4.1.4.3v3.4h1.1s0-3.4,0-3.4c0-.2.1-.3.4-.3h.9c.2,0,.4.2.4.4v10.1c-.1.8-.6,1.2-1.4,1.2h-1.6c-.8,0-1.3-.4-1.3-1.2ZM264.5,103.3v-10.1c-.1-.2,0-.4.3-.4h.9c.2,0,.4.1.4.3v3.4h1.1s0-3.4,0-3.4c0-.2.1-.3.4-.3h.9c.2,0,.4.2.4.4v10.1c-.1.8-.6,1.2-1.4,1.2h-1.6c-.8,0-1.3-.4-1.3-1.2ZM261.5,100.1c0-.4-.2-.5-.6-.5h-.8c-.3,0-.4-.1-.4-.4v-1c0-.3.1-.4.4-.4h.7c.3,0,.6.1.7.3v-5.8c0-.3.2-.5.4-.5h1c.3,0,.4.2.4.5v14.1c0,.3-.2.5-.4.5h-1c-.3,0-.4-.2-.4-.5v-6.2ZM255.6,93.9v1c0,1.9,1.1,3.3,2.6,3.3s.4.1.4.4v.9c0,.3-.1.4-.4.4-1.8,0-3.1-1.2-3.6-2.5-.5,1.3-1.8,2.5-3.6,2.5s-.4-.1-.4-.4v-.9c0-.3.1-.4.4-.4,1.5,0,2.6-1.4,2.6-3.3v-1s-2.5,0-2.5,0c-.3,0-.4-.1-.4-.4v-.9c0-.3.1-.4.4-.4h7c.3,0,.4.1.4.4v.9c0,.3-.1.4-.4.4h-2.5ZM257,103.9c0,2-1.4,3.2-3.7,3.2s-5-.1-6.7-.3c-.3,0-.4-.2-.4-.4v-.9c0-.3.2-.4.5-.4,2,.2,3.7.3,6.7.3s1.7-.5,1.7-1.6,0-1.3-.1-1.7c0-.3.2-.5.4-.5h1c.3,0,.4.2.5.4,0,.4.1,1.2.1,1.9ZM248.6,101.8c0,.3-.2.5-.4.5h-1.1c-.3,0-.4-.2-.4-.5v-9.6c0-.3.2-.5.4-.5h1.1c.3,0,.4.2.4.5v9.6ZM234.5,99.7h-1.1c-.3,0-.4-.1-.5-.4-.3-1.2-.6-3-.6-4,0-2.3.9-3.2,3.2-3.2s2.4.1,3.7.3c.3,0,.4.2.4.5v1c0,.3-.2.5-.4.4-1.1-.2-1.8-.3-3.6-.3s-1.3.4-1.3,1.3.3,2.8.6,3.9c0,.3-.1.5-.4.5ZM229.7,94.3c0,.4.2.5.6.5h.9c.3,0,.4.1.4.4v.9c0,.3-.1.4-.4.4h-.8c-.3,0-.6-.1-.7-.3v4.3c0,.3-.2.5-.4.5h-1.1c-.3,0-.4-.2-.4-.5v-8.4c0-.3.2-.5.4-.5h1.1c.3,0,.4.2.4.5v2.1ZM233,104.4c-.8,1.6-3.1,2.6-5.1,2.5-.3,0-.4-.1-.4-.4v-1c0-.3.1-.4.4-.4,2.2,0,4.1-1.3,4.1-3v-.6c0-.3.2-.5.4-.5h1.1c.3,0,.4.2.4.5v.6c0,1.6,1.9,3,4.1,3s.4.1.4.4v1c0,.3-.1.4-.4.4-2,.1-4.2-.9-5.1-2.5ZM221.7,92.6c2.6,0,3.8,1.9,3.8,6.1s-1.2,6.1-3.8,6.1-3.8-1.9-3.8-6.1,1.2-6.1,3.8-6.1ZM219.8,98.7c0,3,.6,4.2,1.9,4.2s1.9-1.2,1.9-4.2-.6-4.2-1.9-4.2-1.9,1.2-1.9,4.2ZM215.6,106.3c0,.3-.2.5-.4.5h-1.1c-.3,0-.4-.2-.4-.5v-14.1c0-.3.2-.5.4-.5h1.1c.3,0,.4.2.4.5v14.1ZM206.4,94.7c-.9,0-1.4,0-2.1.2-.3,0-.4-.1-.4-.4v-1c0-.3.1-.4.4-.4.6-.1,1.3-.1,2.3-.1,3.2,0,4.8,1.8,4.8,5.9s-1.5,5.9-4.6,5.9-2-.2-3.1-.7c-.3-.1-.4-.3-.4-.5l.3-1c0-.2.2-.4.3-.4s.1,0,.2,0c1,.4,1.9.6,2.6.6,1.9,0,2.8-1.3,2.8-4s-.8-4.1-2.9-4.1ZM199.9,100.1c0-.4-.2-.5-.6-.5h-1.1c-.3,0-.4-.1-.4-.4v-1c0-.3.1-.4.4-.4h1c.3,0,.6.1.7.3v-5.8c0-.3.2-.5.4-.5h1.1c.3,0,.4.2.4.5v14.1c0,.3-.2.5-.4.5h-1.1c-.3,0-.4-.2-.4-.5v-6.2ZM195.1,107.2c-.8,0-1.3-.5-1.3-1.2s.5-1.2,1.3-1.2,1.3.5,1.3,1.2-.5,1.2-1.3,1.2ZM183.3,97.5c.4,0,.7-.2.7-.5v-2.6c0-.3-.2-.4-.4-.4h-4.5c-1.1,0-1.4.3-1.4,1.3s.7,2.2,1.7,2.2h3.9ZM175,102.4c-.3,0-.4-.2-.4-.5v-.9c0-.3.2-.4.5-.4,1.3.2,3.6.3,6,.3s4.3-.1,5.9-.3c.3,0,.5.1.5.4v.9c0,.3-.1.4-.4.5-1.2.2-3.6.3-5.5.3.3.1.4.4.4.7v2.3c0,.3-.2.5-.4.5h-1.1c-.3,0-.4-.2-.4-.5v-2.6c0-.4-.2-.5-.6-.5-1.5,0-3.3-.1-4.4-.3ZM175.8,94.4c0-1.5.7-2.2,2.5-2.2h6.9c.5,0,.8.3.8.8v4.8c0,.9-.7,1.5-1.8,1.5h-8.2c-.3,0-.4-.1-.4-.4v-.9c0-.3.1-.4.4-.4h1.4c-1-.5-1.6-1.7-1.6-3.1ZM159.9,91.7h1c.3,0,.4.1.4.4v5.5s1,0,1,0c.2,0,.5.1.6.3v-5.7c0-.3.1-.4.4-.4h1c.3,0,.4.1.4.4v14c0,.3-.1.4-.4.4h-1c-.3,0-.4-.1-.4-.4v-6.4c0-.3-.1-.5-.5-.5h-1s0,6.8,0,6.8c0,.3-.1.4-.4.4h-1c-.3,0-.4-.1-.4-.4v-14.2c0-.3.1-.4.4-.4ZM169.6,96.1c2.1,0,3.2,1.5,3.2,4.2s-1.1,4.2-3.2,4.2-3.2-1.5-3.2-4.2,1.1-4.2,3.2-4.2ZM168.6,92.8v-1.1c0-.3.1-.4.4-.4h1c.3,0,.4.1.4.4v.9c0,.2-.1.4-.3.5h2.6c.3,0,.4.1.4.4v1c0,.3-.1.4-.4.4h-6.6c-.3,0-.4-.1-.4-.4v-1c0-.3.1-.4.4-.4h2c.3,0,.4,0,.4-.3ZM168.2,100.3c0,1.6.4,2.3,1.3,2.3s1.3-.8,1.3-2.3-.4-2.3-1.3-2.3-1.3.8-1.3,2.3ZM149.3,99.1l.2-.9c0-.2.2-.3.3-.3s.1,0,.2,0c.8.3,1.9.5,2.7.5,1.9,0,2.4-.2,2.4-.8s-.6-.8-2.7-.8-1.4,0-2.2,0c-.3,0-.4-.1-.4-.4v-.8c0-.3.1-.4.4-.4h.4c-.6-.3-.9-.9-.9-1.6,0-1.1.8-1.6,3-1.6,1.4,0,2.3,0,3.5.2.3,0,.4.2.4.4v.9c0,.3-.2.4-.4.4-1.3-.2-2.4-.2-3.1-.2-1,0-1.4.2-1.4.6s.4.7,1.3.7c3.1,0,4.1.7,4.1,2.5s-1.1,2.5-3.9,2.5-2.8-.3-3.6-.6c-.3-.1-.4-.3-.3-.5ZM145.4,92.2c0-.3.2-.5.4-.5h1.1c.3,0,.4.2.4.5v.6c0,.3.1.5.5.5h.8c.3,0,.4.1.4.4v.9c0,.3-.1.4-.4.4h-.6c-.3,0-.6-.1-.7-.3v1.6c0,.3.1.5.5.5h.8c.3,0,.4.1.4.4v.9c0,.3-.1.4-.4.4h-.6c-.3,0-.6-.1-.7-.3v1.4c0,.3-.2.5-.4.5h-1.1c-.3,0-.4-.2-.4-.5v-7.5ZM145.4,104.1c0-1.9,1-2.7,3.3-2.7s5,.1,6.8.3c.3,0,.4.2.4.4v.9c0,.3-.1.4-.4.4-2.1-.2-4.1-.3-6.6-.3s-1.6.3-1.6,1.4,0,1.3,0,1.8c0,.3-.2.5-.4.5h-1c-.3,0-.5-.2-.5-.4,0-.6,0-1.3,0-2.3ZM139.3,92.6c2.6,0,3.8,1.9,3.8,6.1s-1.2,6.1-3.8,6.1-3.8-1.9-3.8-6.1,1.2-6.1,3.8-6.1ZM137.4,98.7c0,3,.6,4.2,1.9,4.2s1.9-1.2,1.9-4.2-.6-4.2-1.9-4.2-1.9,1.2-1.9,4.2ZM133.2,106.3c0,.3-.2.5-.4.5h-1.1c-.3,0-.4-.2-.4-.5v-14.1c0-.3.2-.5.4-.5h1.1c.3,0,.4.2.4.5v14.1ZM120.9,99.4l.2-.9c0-.2.2-.3.3-.3s.1,0,.2,0c.9.3,2.1.5,2.9.5,1.9,0,2.4-.2,2.4-.8s-.6-.9-2.9-.9-1.4,0-2.2,0c-.3,0-.4-.1-.4-.4v-.8c0-.3.1-.4.4-.4h.4c-.6-.4-.9-.9-.9-1.7,0-1.2.8-1.7,3-1.7,1.5,0,2.5,0,3.6.2.3,0,.4.2.4.4v.9c0,.3-.2.4-.4.4-1.3-.2-2.6-.2-3.2-.2-1,0-1.4.2-1.4.7s.4.8,1.3.8c3.2,0,4.3.7,4.3,2.6s-1.1,2.6-3.9,2.6-2.9-.3-3.8-.6c-.3-.1-.4-.3-.3-.5ZM117.5,98.2c0-.4-.2-.5-.6-.5h-1.1c-.3,0-.4-.1-.4-.4v-.9c0-.3.1-.4.4-.4h1c.3,0,.6.1.7.3v-4c0-.3.2-.5.4-.5h1.1c.3,0,.4.2.4.5v9.6c0,.3-.2.5-.4.5h-1.1c-.3,0-.4-.2-.4-.5v-3.6ZM127.5,103.9c0,2-1.4,3.2-3.7,3.2s-4.7-.1-6.4-.3c-.3,0-.4-.2-.4-.4v-.9c0-.3.2-.4.5-.4,2,.2,3.5.3,6.4.3s1.7-.5,1.7-1.6,0-.9-.1-1.3c0-.3.2-.5.4-.5h1c.3,0,.4.2.5.4,0,.4.1.9.1,1.5ZM106.5,93.9v.7c0,1.9,1.1,3.3,2.6,3.3s.4.1.4.4v.9c0,.3-.1.4-.4.4-1.8,0-3.1-1.2-3.6-2.5-.5,1.3-1.8,2.5-3.6,2.5s-.4-.1-.4-.4v-.9c0-.3.1-.4.4-.4,1.5,0,2.6-1.4,2.6-3.3v-.7s-2.5,0-2.5,0c-.3,0-.4-.1-.4-.4v-.9c0-.3.1-.4.4-.4h7c.3,0,.4.1.4.4v.9c0,.3-.1.4-.4.4h-2.5ZM98,103.8c0-1.9,1-2.7,3.3-2.7s4.6.1,6.4.3c.3,0,.4.2.4.4v.9c0,.3-.1.4-.4.4-2.1-.2-4-.3-6.2-.3s-1.6.3-1.6,1.4,0,1.6,0,2.2c0,.3-.2.5-.4.5h-1c-.3,0-.5-.2-.5-.4,0-.6,0-1.5,0-2.7ZM97.9,97c0-.4-.2-.5-.6-.5h-1.1c-.3,0-.4-.1-.4-.4v-.9c0-.3.1-.4.4-.4h1c.3,0,.6.1.7.3v-2.8c0-.3.2-.5.4-.5h1.1c.3,0,.4.2.4.5v7.2c0,.3-.2.5-.4.5h-1.1c-.3,0-.4-.2-.4-.5v-2.4ZM88.1,105.5c-2.7,0-4.9-.1-6-.3-.3,0-.4-.2-.4-.5v-.9c0-.3.2-.4.5-.4,1.1.1,3.4.3,5.2.3s.6-.2.6-.5v-3.9c0-.3.2-.5.4-.5h1.1c.3,0,.4.2.4.5v3.7c0,.3-.2.6-.4.7,1.4,0,3.1-.2,4.6-.3.3,0,.5.1.5.4v.9c0,.3-.1.4-.4.5-1.3.2-3.3.3-6,.3ZM87.3,94.5c-1.8,0-2.4.7-2.4,2.6s.1,2.3.3,3.2c0,.3,0,.4-.3.4l-1.2.2c-.3,0-.4,0-.5-.3-.2-1.2-.3-2.2-.3-3.9,0-2.7,1.4-4.1,4-4.1s3.9,0,5.8.3c.3,0,.4.2.4.4v1c0,.3-.2.4-.4.4-1.7-.2-3.4-.3-5.4-.3ZM79.6,106c0,.6-.4,1.1-1,1.2.1.3.3.4.7.4s.2,0,.2.2v.4c0,.1,0,.2-.2.2-1.3,0-2.2-.8-2.2-2.2s.5-1.4,1.3-1.4,1.3.5,1.3,1.2ZM64.8,95.8c0,1.2.1,2.7.5,4.2,0,0,0,0,0,0,.5,0,1,0,1.4,0,1.6,0,3.1,0,4.2-.3.3,0,.5,0,.5.4v1c0,.3-.1.4-.4.4-.9.1-2.4.2-3.7.3.3.1.5.4.5.7v3.5c0,.3-.2.5-.4.5h-1.1c-.3,0-.4-.2-.4-.5v-3.7c0-.4-.2-.5-.6-.5-1,0-2.3-.1-3-.2-.3,0-.4-.2-.4-.5v-1c0-.3.2-.4.4-.4.3,0,.7,0,1,.1-.3-1.4-.4-3-.4-4.5,0-2.1.8-3.3,3.3-3.3s2.8.1,3.7.3c.3,0,.4.2.4.4v1c0,.3-.2.5-.4.4-1.1-.2-2.3-.3-3.5-.3s-1.6.5-1.6,1.8ZM59,92.2c0-.3.2-.5.4-.5h1.1c.3,0,.4.2.4.5v14.1c0,.3-.2.5-.4.5h-1.1c-.3,0-.4-.2-.4-.5v-14.1ZM53,97.6c1.1,0,1.8-.8,1.8-1.9s-.7-1.9-1.8-1.9-1.8.7-1.8,1.9.7,1.9,1.8,1.9ZM47,103.4v1.1c0,.4.3.6.8.6h4.9c.5,0,.7-.2.8-.6v-1.1c0,0-6.5,0-6.5,0ZM45.1,105.3l-.2-4.4c0-.3.2-.4.4-.4h1.1c.3,0,.4.2.4.4v.8s6.8,0,6.8,0v-.8c0-.3.2-.4.5-.4h1.1c.3,0,.5.2.4.4l-.2,4.4c0,1-.7,1.6-1.9,1.6h-6.4c-1.2,0-1.9-.6-1.9-1.6ZM53,92c2.3,0,3.7,1.5,3.7,3.7s-1.5,3.7-3.7,3.7-3.7-1.5-3.7-3.7,1.5-3.7,3.7-3.7ZM46.8,98.9c0,.3-.2.5-.4.5h-1.1c-.3,0-.4-.2-.4-.5v-6.7c0-.3.2-.5.4-.5h1.1c.3,0,.4.2.4.5v.4c0,.3.1.5.5.5h1.2c.3,0,.4.1.4.4v.9c0,.3-.1.4-.4.4h-1c-.3,0-.6-.1-.7-.3v1.5c0,.3.1.5.5.5h1.2c.3,0,.4.1.4.4v.9c0,.3-.1.4-.4.4h-1c-.3,0-.6-.1-.7-.3v.9ZM321.3,133.5c-2.7,0-4.9-.1-6-.3-.3,0-.4-.2-.4-.5v-.9c0-.3.2-.4.5-.4,1.1.1,3.4.3,5.2.3s.6-.2.6-.5v-3.9c0-.3.2-.5.4-.5h1.1c.3,0,.4.2.4.5v3.7c0,.3-.2.6-.4.7,1.4,0,3.1-.2,4.6-.3.3,0,.5.1.5.4v.9c0,.3-.1.4-.4.5-1.3.2-3.3.3-6,.3ZM320.5,122.5c-1.8,0-2.4.7-2.4,2.6s.1,2.3.3,3.2c0,.3,0,.4-.3.4l-1.2.2c-.3,0-.4,0-.5-.3-.2-1.2-.3-2.2-.3-3.9,0-2.7,1.4-4.1,4-4.1s3.9,0,5.8.3c.3,0,.4.2.4.4v1c0,.3-.2.4-.4.4-1.7-.2-3.4-.3-5.4-.3ZM312.8,134c0,.6-.4,1.1-1,1.2.1.3.3.4.7.4s.2,0,.2.2v.4c0,.1,0,.2-.2.2-1.3,0-2.2-.8-2.2-2.2s.5-1.4,1.3-1.4,1.3.5,1.3,1.2ZM298.1,129.5v1.9c0,.3-.2.5-.4.5h-1.1c-.3,0-.4-.2-.4-.5v-1.9c0-.3-.1-.4-.4-.4-1,0-3,0-4.2-.2-.3,0-.4-.2-.4-.5v-.9c0-.3.2-.4.5-.4,1.2.1,3.6.2,6,.2,3.1,0,4.9,0,5.9-.2.3,0,.5.1.5.4v.9c0,.3-.1.4-.4.5-1.3.1-3.6.2-5.6.2.1,0,.2.2.2.4ZM292.5,126.3c-.3,0-.4-.1-.4-.4v-1c0-.3.1-.4.4-.4,2.3,0,3.8-1.3,3.8-3.1v-.9c0-.3.2-.5.4-.5h1.1c.3,0,.4.2.4.5v.9c0,1.8,1.6,3.1,3.8,3.1s.4.1.4.4v1c0,.3-.1.4-.4.4-2.1.1-4.1-1-4.8-2.5-.7,1.5-2.7,2.6-4.8,2.5ZM302.7,132c0,2-1.3,3.1-3.6,3.1s-5.3-.1-7-.3c-.3,0-.4-.2-.4-.4v-.9c0-.3.2-.4.5-.4,2,.2,3.9.3,7,.3s1.6-.4,1.6-1.4,0-.8-.1-1.2c0-.3.1-.5.4-.5h1c.3,0,.5.2.5.4,0,.3.1.8.1,1.3ZM276.6,130.4c-.3,0-.4-.2-.4-.5v-.9c0-.3.2-.4.5-.4,1.3.2,3.6.3,6,.3s4.3-.1,5.9-.3c.3,0,.5.1.5.4v.9c0,.3-.1.4-.4.5-1.2.2-3.6.3-5.5.3.3.1.4.4.4.7v2.3c0,.3-.2.5-.4.5h-1.1c-.3,0-.4-.2-.4-.5v-2.6c0-.4-.2-.5-.6-.5-1.5,0-3.3-.1-4.4-.3ZM277.9,127.2c-.3,0-.6,0-.6-.4v-1.1c0-.3.1-.4.4-.4,2.3,0,3.8-1.4,3.8-3.4v-1.4c0-.3.2-.5.4-.5h1.1c.3,0,.4.2.4.5v1.4c0,2,1.6,3.4,3.8,3.4s.4.1.4.4v1.1c0,.4-.3.4-.6.4-2,0-3.9-1.1-4.6-2.7-.7,1.6-2.6,2.7-4.6,2.7ZM272.3,125.8c0-.7-.5-1.1-1.8-1.1s-1.8.4-1.8,1.1.5,1.1,1.8,1.1,1.8-.4,1.8-1.1ZM270.6,128.6c-2.5,0-3.7-1-3.7-2.8s1.2-2.8,3.7-2.8,3.7,1,3.7,2.8-1.2,2.8-3.7,2.8ZM262.9,126.2c0-.4-.2-.5-.6-.5h-1.1c-.3,0-.4-.1-.4-.4v-.9c0-.3.1-.4.4-.4h1c.3,0,.6.1.7.3v-4c0-.3.2-.5.4-.5h1.1c.3,0,.4.2.4.5v9.6c0,.3-.2.5-.4.5h-1.1c-.3,0-.4-.2-.4-.5v-3.6ZM269.6,120v-.6c0-.3.1-.4.4-.4h1.1c.3,0,.4.1.4.4v.4c0,.2-.1.4-.3.5h3.1c.3,0,.4.1.4.4v.9c0,.3-.1.4-.4.4h-7.6c-.3,0-.4-.1-.4-.4v-.9c0-.3.1-.4.4-.4h2.4c.3,0,.4,0,.4-.3ZM273,131.9c0,2-1.4,3.2-3.7,3.2s-4.7-.1-6.4-.3c-.3,0-.4-.2-.4-.4v-.9c0-.3.2-.4.5-.4,2,.2,3.5.3,6.4.3s1.7-.5,1.7-1.6,0-.9-.1-1.3c0-.3.2-.5.4-.5h1c.3,0,.4.2.5.4,0,.4.1.9.1,1.5ZM249.8,127.7h-1.1c-.3,0-.4-.1-.5-.4-.3-1.2-.6-3-.6-4,0-2.3.9-3.2,3.2-3.2s2.4.1,3.7.3c.3,0,.4.2.4.5v1c0,.3-.2.5-.4.4-1.1-.2-1.8-.3-3.6-.3s-1.3.4-1.3,1.3.3,2.8.6,3.9c0,.3-.1.5-.4.5ZM245,122.3c0,.4.2.5.6.5h.9c.3,0,.4.1.4.4v.9c0,.3-.1.4-.4.4h-.8c-.3,0-.6-.1-.7-.3v4.3c0,.3-.2.5-.4.5h-1.1c-.3,0-.4-.2-.4-.5v-8.4c0-.3.2-.5.4-.5h1.1c.3,0,.4.2.4.5v2.1ZM248.3,132.4c-.8,1.6-3.1,2.6-5.1,2.5-.3,0-.4-.1-.4-.4v-1c0-.3.1-.4.4-.4,2.2,0,4.1-1.3,4.1-3v-.6c0-.3.2-.5.4-.5h1.1c.3,0,.4.2.4.5v.6c0,1.6,1.9,3,4.1,3s.4.1.4.4v1c0,.3-.1.4-.4.4-2,.1-4.2-.9-5.1-2.5ZM228.4,134.3v-.8c0-.3.2-.4.5-.3,1.3.2,3.2.3,4.5.3,3.5,0,4.1,0,4.1-.6s-.4-.6-3.2-.6-4,0-5,0c-.2,0-.4-.1-.4-.4v-.7c0-.3.1-.4.4-.4h.6c-.7-.2-1.1-.8-1.1-1.4s.4-1.2,1.6-1.2c2.2,0,5.8,0,8.4.2.3,0,.4.1.4.4v.8c0,.3-.1.4-.4.4-1.9-.1-5.5-.2-7.2-.2s-.8.2-.8.5.2.5.8.5c.9,0,1.9,0,2.8,0,4,0,5.1.5,5.1,2.1s-1.2,2.2-6.1,2.2-3.3-.1-4.6-.3c-.3,0-.4-.2-.3-.4ZM234.2,125.9c2,0,4.4,0,6-.2.3,0,.4.1.4.4v.8c0,.3-.1.4-.4.4-1,.1-2.9.2-6,.2-2.4,0-4.8,0-6.1-.2-.3,0-.4-.2-.4-.4v-.8c0-.3.2-.4.4-.4,1.3.1,3.2.2,6,.2ZM229.3,121.5v-.8c0-.3.1-.4.4-.4,2.1-.1,3-.2,3.9-.2,4.5,0,5.9.6,5.9,2.5s-1.4,2.6-5.7,2.6-2.5-.1-4.4-.3c-.3,0-.4-.1-.4-.4v-.8c0-.3.2-.4.5-.4,1.5.2,3.2.3,4.5.3,2.8,0,3.5-.2,3.5-1s-.8-.9-3.9-.9-1.8,0-3.9.2c-.3,0-.4-.1-.4-.4ZM219.3,121.5c-2.6,0-3.3.3-3.3,1.1s.8,1.1,3.3,1.1,3.3-.3,3.3-1.1-.8-1.1-3.3-1.1ZM213.6,134.3v-.8c0-.3.2-.4.5-.3,1.3.2,3.2.3,4.5.3,3.5,0,4.1,0,4.1-.6s-.4-.6-3.2-.6-4,0-5,0c-.2,0-.4-.1-.4-.4v-.7c0-.3.1-.4.4-.4h.6c-.7-.2-1.1-.8-1.1-1.4s.4-1.2,1.6-1.2c2.2,0,5.8,0,8.4.2.3,0,.4.1.4.4v.8c0,.3-.1.4-.4.4-1.9-.1-5.5-.2-7.2-.2s-.8.2-.8.5.2.5.9.5c.9,0,1.9,0,2.8,0,4,0,5.1.5,5.1,2.1s-1.2,2.2-6.1,2.2-3.3-.1-4.6-.3c-.3,0-.4-.2-.3-.4ZM219.4,125.9c2,0,4.4,0,6-.2.3,0,.4.1.4.4v.8c0,.3-.1.4-.4.4-1,.1-2.9.2-6,.2-2.4,0-4.8,0-6.1-.2-.3,0-.4-.2-.4-.4v-.8c0-.3.2-.4.4-.4,1.3.1,3.2.2,6,.2ZM219.3,125.2c-3.8,0-5.3-.7-5.3-2.6s1.5-2.6,5.3-2.6,5.3.7,5.3,2.6-1.5,2.6-5.3,2.6ZM199.7,135.1c-3.9,0-5.4-.5-5.4-2s1.5-2,5.4-2,5.4.5,5.4,2-1.5,2-5.4,2ZM199.8,123.2c-.7,1.2-2.7,2-4.8,1.9-.3,0-.4-.1-.4-.4v-.9c0-.3.1-.4.4-.4,2.3,0,3.7-.7,3.8-1.7h-3.6c-.3,0-.4-.1-.4-.4v-.8c0-.3.1-.4.4-.4h9.2c.3,0,.4.1.4.4v.8c0,.3-.1.4-.4.4h-3.6c.1,1,1.6,1.7,3.8,1.7s.4.1.4.4v.9c0,.3-.1.4-.4.4-2.1.1-4.1-.7-4.8-1.9ZM193.4,127.1v-.8c0-.3.2-.4.4-.4,1.2.1,3.3.2,4.6.1.3,0,.4-.2.4-.4v-.6c0-.3.2-.5.4-.5h1.1c.3,0,.4.2.4.5v.6c0,.2-.1.4-.3.5,1.7,0,4,0,5.3-.2.3,0,.4.1.4.4v.8c0,.3-.1.4-.4.4-1,.1-2.9.2-6,.2-2.4,0-4.8,0-6.1-.2-.3,0-.4-.2-.4-.4ZM199,128.8v-.4c0-.3.1-.4.4-.4h1.2c.3,0,.4.1.4.4v.3c0,.2,0,.3-.2.4h4.4c.2,0,.4.1.4.4v.7c0,.2-.2.4-.4.4h-10.9c-.2,0-.4-.1-.4-.4v-.7c0-.2.2-.4.4-.4h4.4c.3,0,.3,0,.3-.3ZM199.7,132.6c-2.8,0-3.4.1-3.4.5s.6.5,3.4.5,3.4-.1,3.4-.5-.6-.5-3.4-.5ZM186,126.7c0,3,.6,4.2,1.9,4.2s1.9-1.2,1.9-4.2-.6-4.2-1.9-4.2-1.9,1.2-1.9,4.2ZM187.9,120.6c2.6,0,3.8,1.9,3.8,6.1s-1.2,6.1-3.8,6.1-3.8-1.9-3.8-6.1,1.2-6.1,3.8-6.1ZM180.1,128.1c0-.4-.2-.5-.6-.5h-1.1c-.3,0-.4-.1-.4-.4v-1c0-.3.1-.4.4-.4h1c.3,0,.6.1.7.3v-5.8c0-.3.2-.5.4-.5h1.1c.3,0,.4.2.4.5v14.1c0,.3-.2.5-.4.5h-1.1c-.3,0-.4-.2-.4-.5v-6.2ZM171.2,128.3c0,1.5.7,2.3,1.8,2.3s1.8-.8,1.8-2.3-.6-2.3-1.8-2.3-1.8.8-1.8,2.3ZM173,124.1c2.3,0,3.7,1.5,3.7,4.2s-1.4,4.2-3.7,4.2-3.7-1.5-3.7-4.2,1.4-4.2,3.7-4.2ZM165.3,128.1c0-.4-.2-.5-.6-.5h-1.1c-.3,0-.4-.1-.4-.4v-1c0-.3.1-.4.4-.4h1c.3,0,.6.1.7.3v-5.8c0-.3.2-.5.4-.5h1.1c.3,0,.4.2.4.5v14.1c0,.3-.2.5-.4.5h-1.1c-.3,0-.4-.2-.4-.5v-6.2ZM172,120.8v-1.1c0-.3.1-.4.4-.4h1.1c.3,0,.4.1.4.4v.9c0,.2-.1.4-.3.5h3.1c.3,0,.4.1.4.4v1c0,.3-.1.4-.4.4h-7.6c-.3,0-.4-.1-.4-.4v-1c0-.3.1-.4.4-.4h2.4c.3,0,.4,0,.4-.3ZM160.5,123.3c0,2-1.2,3.1-3.5,3.1s-5-.1-6.7-.3c-.3,0-.4-.2-.4-.4v-.9c0-.3.2-.4.5-.4,2,.2,3.8.3,6.4.3s1.6-.4,1.6-1.4,0-1.9-.1-2.6c0-.3.1-.5.4-.5h1c.3,0,.5.2.5.4,0,.8.1,2.1.1,2.7ZM160.7,132c0,2-1.3,3.1-3.6,3.1s-5.3-.1-7-.3c-.3,0-.4-.2-.4-.4v-.9c0-.3.2-.4.5-.4,2,.2,3.9.3,7,.3s1.6-.4,1.6-1.4,0-.8-.1-1.2c0-.3.1-.5.4-.5h1c.3,0,.5.2.5.4,0,.3.1.8.1,1.3ZM161.9,127.8v.9c0,.3-.1.4-.4.5-1,.1-2.9.2-6,.2-2.4,0-4.8,0-6-.2-.3,0-.4-.2-.4-.5v-.9c0-.3.2-.4.5-.4,1.3.1,3.2.2,6,.2s4.4,0,5.9-.2c.3,0,.5.1.5.4ZM140.4,125.8c0-.7-.5-1.1-1.8-1.1s-1.8.4-1.8,1.1.5,1.1,1.8,1.1,1.8-.4,1.8-1.1ZM138.6,128.6c-2.5,0-3.7-1-3.7-2.8s1.2-2.8,3.7-2.8,3.7,1,3.7,2.8-1.2,2.8-3.7,2.8ZM130.7,120.2c0-.3.2-.5.4-.5h1.1c.3,0,.4.2.4.5v1.6c0,.3.1.5.5.5h.7c.3,0,.4.1.4.4v.9c0,.3-.1.4-.4.4h-.5c-.3,0-.6-.1-.7-.3v1.5c0,.3.1.5.5.5h.7c.3,0,.4.1.4.4v.9c0,.3-.1.4-.4.4h-.5c-.3,0-.6-.1-.7-.3v2.7c0,.3-.2.5-.4.5h-1.1c-.3,0-.4-.2-.4-.5v-9.6ZM137.6,120v-.6c0-.3.1-.4.4-.4h1.1c.3,0,.4.1.4.4v.4c0,.2-.1.4-.3.5h3.1c.3,0,.4.1.4.4v.9c0,.3-.1.4-.4.4h-7.5c-.3,0-.4-.1-.4-.4v-.9c0-.3.1-.4.4-.4h2.3c.3,0,.4,0,.4-.3ZM141.1,131.9c0,2-1.4,3.2-3.7,3.2s-5-.1-6.7-.3c-.3,0-.4-.2-.4-.4v-.9c0-.3.2-.4.5-.4,2,.2,3.7.3,6.7.3s1.7-.5,1.7-1.6,0-.9-.1-1.3.2-.5.4-.5h1c.3,0,.4.2.5.4,0,.4.1.9.1,1.5ZM121.9,130.4c-2.6,0-3.4.6-3.4,1.4s.8,1.4,3.4,1.4,3.4-.6,3.4-1.4-.8-1.4-3.4-1.4ZM121.9,135.1c-3.6,0-5.4-1.1-5.4-3.2s1.8-3.2,5.4-3.2,5.4,1.1,5.4,3.2-1.8,3.2-5.4,3.2ZM124,120.1h1.1c.3,0,.4.2.4.5v1.9c0,1.8,1.1,3.2,2.6,3.2s.4.1.4.4v.9c0,.3-.1.4-.4.4-1.8,0-3.1-1.1-3.6-2.4-.5,1.3-1.8,2.4-3.6,2.4s-.4-.1-.4-.4v-.9c0-.3.1-.4.4-.4,1.5,0,2.6-1.3,2.6-3.2v-1.9c0-.3.2-.5.4-.5ZM116.9,125c0-.4-.2-.5-.6-.5h-1.1c-.3,0-.4-.1-.4-.4v-.9c0-.3.1-.4.4-.4h1c.3,0,.6.1.7.3v-2.8c0-.3.2-.5.4-.5h1.1c.3,0,.4.2.4.5v7.2c0,.3-.2.5-.4.5h-1.1c-.3,0-.4-.2-.4-.5v-2.4ZM109.8,120.6c2.6,0,3.8,1.9,3.8,6.1s-1.2,6.1-3.8,6.1-3.8-1.9-3.8-6.1,1.2-6.1,3.8-6.1ZM107.9,126.7c0,3,.6,4.2,1.9,4.2s1.9-1.2,1.9-4.2-.6-4.2-1.9-4.2-1.9,1.2-1.9,4.2ZM103.7,134.3c0,.3-.2.5-.4.5h-1.1c-.3,0-.4-.2-.4-.5v-14.1c0-.3.2-.5.4-.5h1.1c.3,0,.4.2.4.5v14.1ZM94.5,122.7c-.9,0-1.4,0-2.1.2-.3,0-.4-.1-.4-.4v-1c0-.3.1-.4.4-.4.6-.1,1.3-.1,2.3-.1,3.2,0,4.8,1.8,4.8,5.9s-1.5,5.9-4.6,5.9-2-.2-3.1-.7c-.3-.1-.4-.3-.4-.5l.3-1c0-.2.2-.4.3-.4s.1,0,.2,0c1,.4,1.9.6,2.6.6,1.9,0,2.8-1.3,2.8-4s-.8-4.1-2.9-4.1ZM88,128.1c0-.4-.2-.5-.6-.5h-1.1c-.3,0-.4-.1-.4-.4v-1c0-.3.1-.4.4-.4h1c.3,0,.6.1.7.3v-5.8c0-.3.2-.5.4-.5h1.1c.3,0,.4.2.4.5v14.1c0,.3-.2.5-.4.5h-1.1c-.3,0-.4-.2-.4-.5v-6.2ZM83.2,135.2c-.8,0-1.3-.5-1.3-1.2s.5-1.2,1.3-1.2,1.3.5,1.3,1.2-.5,1.2-1.3,1.2ZM67.8,127.5c-.2,0-.5-.1-.6-.3v7.2c0,.3-.1.4-.4.4h-1c-.3,0-.4-.1-.4-.4v-14c0-.3.1-.4.4-.4h1c.3,0,.4.1.4.4v4.8c0,.3.1.5.5.5h1.4c.2-3.4,1.3-5,3.4-5s3.4,1.9,3.4,6.1-1.1,6.1-3.4,6.1-3.2-1.7-3.4-5.3h-1.3ZM62.8,119.7h1c.3,0,.4.1.4.4v14.2c0,.3-.1.4-.4.4h-1c-.3,0-.4-.1-.4-.4v-14.2c0-.3.1-.4.4-.4ZM70.9,126.7c0,3,.5,4.2,1.5,4.2s1.5-1.3,1.5-4.2-.5-4.2-1.5-4.2-1.5,1.2-1.5,4.2ZM54.8,126.4v3.5c.1.5.4.7.9.7h1.6c.5,0,.7-.2.7-.7v-3.5c.1,0-3.2,0-3.2,0ZM53.1,120.8h1c.3,0,.5.2.5.4v3.3c0,0,3.5,0,3.5,0v-3.3c0-.3.3-.4.6-.4h1c.3,0,.5.2.5.5l-.3,9.4c0,1.1-.8,1.8-2.1,1.8h-2.8c-1.3,0-2-.7-2.1-1.8l-.3-9.4c0-.3.2-.5.5-.5ZM50.2,125.1c0,.4.2.5.6.5h.9c.3,0,.4.1.4.4v1c0,.3-.1.4-.4.4h-.8c-.3,0-.6-.1-.7-.3v7.2c0,.3-.2.5-.4.5h-1.1c-.3,0-.4-.2-.4-.5v-14.1c0-.3.2-.5.4-.5h1.1c.3,0,.4.2.4.5v4.9ZM33.3,119.7h1c.3,0,.4.1.4.4v3.8s.9,0,.9,0c.2,0,.5.1.6.3v-3.9c0-.3.1-.4.4-.4h1c.3,0,.4.1.4.4v9.5c0,.3-.1.4-.4.4h-1c-.3,0-.4-.1-.4-.4v-3.5c0-.3-.1-.5-.5-.5h-.9s0,4,0,4c0,.3-.1.4-.4.4h-1c-.3,0-.4-.1-.4-.4v-9.6c0-.3.1-.4.4-.4ZM39.3,127.5l.2-.9c0-.2.2-.3.3-.3s.1,0,.2,0c.8.3,1.5.4,2.3.4,1.6,0,2-.2,2-.8s-.5-.9-2.3-.9-1.3,0-1.9,0-.4-.1-.4-.4v-.8c0-.3.1-.4.4-.4h.4c-.6-.4-.9-.9-.9-1.7,0-1.7,1.7-1.7,3-1.7s1.7,0,2.7.2c.3,0,.4.2.4.4v.9c0,.3-.2.4-.4.4-1-.2-2-.2-2.7-.2s-1.1.2-1.1.7.4.8,1,.8c2.7,0,3.7.7,3.7,2.6s-1.1,2.6-3.8,2.6-2-.2-2.9-.5c-.3-.1-.4-.3-.3-.5ZM44,131.9c0,2-1.4,3.2-3.7,3.2s-5.7-.1-7.4-.3c-.3,0-.4-.2-.4-.4v-.9c0-.3.2-.4.5-.4,2,.2,4.2.3,7.4.3s1.7-.5,1.7-1.6,0-.9-.1-1.3.2-.5.4-.5h1c.3,0,.4.2.5.4,0,.4.1.9.1,1.5ZM316.6,150.2v-1c0-.3.1-.4.4-.4,2.1-.1,2.9-.2,3.9-.2,4.4,0,5.9,1.5,5.9,4.2s-1.5,4.2-5.7,4.2-2.5-.1-4.4-.3c-.3,0-.4-.2-.4-.4v-1c0-.3.2-.4.5-.4,1.5.2,3.1.3,4.5.3,2.7,0,3.5-.7,3.5-2.3s-.9-2.3-3.9-2.3-1.9,0-3.9.2c-.3,0-.4-.1-.4-.4ZM327.7,159.8v.9c0,.3-.1.4-.4.5-1.3.2-3.3.3-6,.3s-4.9-.1-6-.3c-.3,0-.4-.2-.4-.5v-.9c0-.3.2-.4.5-.4,1.3.2,3.6.3,6,.3s4.3-.1,5.9-.3c.3,0,.5.1.5.4ZM309,160c1.6,0,2.9-.1,4-.3.3,0,.5,0,.5.4v1c0,.3-.1.4-.4.4-1.1.2-2.4.3-4.1.3s-3.2,0-4.4-.2c-.3,0-.4-.2-.4-.5v-1c0-.3.2-.4.4-.4,1.1.2,2.7.3,4.3.3ZM308.9,157.5c-2.3,0-3.8-1.8-3.8-4.6s1.5-4.6,3.8-4.6,3.8,1.8,3.8,4.6-1.5,4.6-3.8,4.6ZM310.8,152.9c0-1.6-.7-2.8-1.9-2.8s-1.9,1.1-1.9,2.8.7,2.8,1.9,2.8,1.9-1.1,1.9-2.8ZM301.2,148.2c0-.3.2-.5.4-.5h1.1c.3,0,.4.2.4.5v14.1c0,.3-.2.5-.4.5h-1.1c-.3,0-.4-.2-.4-.5v-14.1ZM291.3,150l-.4,3.5c.6,0,1.2,0,1.6-.1.3,0,.4.1.4.3v1.1c0,.2-.1.4-.4.4-1,.1-2.7.2-5,.2s-4-.1-5-.2c-.3,0-.4-.2-.4-.4v-1.1c0-.2.2-.4.4-.3.4,0,.9,0,1.6.1l-.4-3.5h-.9c-.3,0-.4-.1-.4-.4v-1c0-.3.1-.4.4-.4h9.4c.3,0,.4.1.4.4v1c0,.3-.1.4-.4.4h-.9ZM281.6,158.4c-.3,0-.4-.2-.4-.5v-.9c0-.3.2-.4.5-.4,1.3.2,3.6.3,6,.3s4.3-.1,5.9-.3c.3,0,.5.1.5.4v.9c0,.3-.1.4-.4.5-1.2.2-3.6.3-5.5.3.3.1.4.4.4.7v2.3c0,.3-.2.5-.4.5h-1.1c-.3,0-.4-.2-.4-.5v-2.6c0-.4-.2-.5-.6-.5-1.5,0-3.3-.1-4.4-.3ZM289,153.5l.4-3.6h-3.6s.4,3.6.4,3.6c.4,0,.9,0,1.4,0s1,0,1.4,0ZM273.9,154.4v3.5c.1.5.4.7.8.7h1.8c.5,0,.7-.2.7-.7v-3.5c.1,0-3.3,0-3.3,0ZM272.2,148.8h1c.3,0,.5.2.5.4v3.3c0,0,3.6,0,3.6,0v-3.3c0-.3.3-.4.6-.4h1c.3,0,.5.2.5.5l-.3,9.4c0,1.1-.8,1.8-2.1,1.8h-3c-1.3,0-2-.7-2.1-1.8l-.3-9.4c0-.3.2-.5.5-.5ZM267.9,156.1c0-.4-.2-.5-.6-.5h-1.1c-.3,0-.4-.1-.4-.4v-1c0-.3.1-.4.4-.4h1c.3,0,.6.1.7.3v-5.8c0-.3.2-.5.4-.5h1.1c.3,0,.4.2.4.5v14.1c0,.3-.2.5-.4.5h-1.1c-.3,0-.4-.2-.4-.5v-6.2ZM258,161.5c-2.6,0-4.9-.1-6-.3-.3,0-.4-.2-.4-.5v-.9c0-.3.2-.4.5-.4,1.2.2,2.9.3,4.4.3s.6-.2.6-.5v-2c-2.8-.3-4.5-1.8-4.5-4.3s1.9-4.3,5.3-4.3,5.3,1.6,5.3,4.3-1.5,4-4.2,4.3v1.9c0,.3-.2.6-.4.7,1.9,0,4.2-.2,5.4-.3.3,0,.5.1.5.4v.9c0,.3-.1.4-.4.5-1.3.2-3.3.3-6,.3ZM261.2,152.8c0-1.6-1.1-2.5-3.3-2.5s-3.3.9-3.3,2.5,1.2,2.5,3.3,2.5,3.3-.9,3.3-2.5ZM249.6,162c0,.6-.4,1.1-1,1.2.1.3.3.4.7.4s.2,0,.2.2v.4c0,.1,0,.2-.2.2-1.3,0-2.2-.8-2.2-2.2s.5-1.4,1.3-1.4,1.3.5,1.3,1.2ZM238,158.6c.4,0,.7-.2.7-.5v-7c0-.3-.2-.4-.4-.4h-1.4c-1.3,0-1.7.9-1.7,3.8s.7,4.2,1.9,4.2h1ZM239.9,148.8c.5,0,.8.3.8.8v9.4c0,.9-.7,1.5-1.8,1.5h-5.2c-.3,0-.4-.1-.4-.4v-1c0-.3.1-.4.4-.4h1.1c-1-1.1-1.6-3.1-1.6-5.6s.8-4.2,3.2-4.2h3.5ZM230.9,162.3c0,.3-.2.5-.4.5h-1.1c-.3,0-.4-.2-.4-.5v-14.1c0-.3.2-.5.4-.5h1.1c.3,0,.4.2.4.5v14.1ZM218.9,159.5l.3-1c0-.2.2-.4.3-.4s.1,0,.2,0c1,.4,1.8.6,2.6.6,1.7,0,2.4-.8,2.4-2.9s-.1-4.4-.4-6.6c0-.3.1-.5.5-.5h1c.3,0,.4.1.5.4.3,2.1.4,3.9.4,6.6,0,3.2-1.4,4.9-4.2,4.9s-2-.2-3.1-.7c-.3-.1-.4-.3-.4-.5ZM216.8,162.3c0,.3-.2.5-.4.5h-1.1c-.3,0-.4-.2-.4-.5v-14.1c0-.3.2-.5.4-.5h1.1c.3,0,.4.2.4.5v14.1ZM207.1,154.7c0,3,.5,4.2,1.8,4.2s1.8-1.2,1.8-4.2-.5-4.2-1.8-4.2-1.8,1.2-1.8,4.2ZM208.9,148.6c2.6,0,3.7,1.9,3.7,6.1s-1.1,6.1-3.7,6.1-3.7-1.9-3.7-6.1,1.1-6.1,3.7-6.1ZM202.7,153.1c0,.4.2.5.6.5h.9c.3,0,.4.1.4.4v1c0,.3-.1.4-.4.4h-.8c-.3,0-.6-.1-.7-.3v7.2c0,.3-.2.5-.4.5h-1.1c-.3,0-.4-.2-.4-.5v-14.1c0-.3.2-.5.4-.5h1.1c.3,0,.4.2.4.5v4.9ZM193.5,148.8v-1.1c0-.3.1-.4.4-.4h1.1c.3,0,.4.1.4.4v.9c0,.2-.1.4-.3.5h2.8c.3,0,.4.1.4.4v1c0,.3-.1.4-.4.4h-2.5s0,3.7,0,3.7c0,2,1.2,3.7,2.6,3.9.3,0,.4.2.4.5v1c0,.3-.1.4-.4.4-1.6-.2-3.1-1.5-3.6-3.1-.4,1.6-1.9,2.9-3.6,3.1-.3,0-.4-.1-.4-.4v-1c0-.3.1-.4.4-.5,1.4-.2,2.6-1.9,2.6-3.9v-3.7s-2.5,0-2.5,0c-.3,0-.4-.1-.4-.4v-1c0-.3.1-.4.4-.4h2.1c.3,0,.4,0,.4-.3ZM188.6,153.3c0,.4.2.5.6.5h1.9c.3,0,.4.1.4.4v1c0,.3-.1.4-.4.4h-1.8c-.3,0-.6-.1-.7-.3v7c0,.3-.2.5-.4.5h-1.1c-.3,0-.4-.2-.4-.5v-14.1c0-.3.2-.5.4-.5h1.1c.3,0,.4.2.4.5v5ZM173,161.5c-2.6,0-4.9-.1-6-.3-.3,0-.4-.2-.4-.5v-.9c0-.3.2-.4.5-.4,1.2.2,2.9.3,4.4.3s.6-.2.6-.5v-2.1c0-.3.2-.5.4-.5h1.1c.3,0,.4.2.4.5v2c0,.3-.2.6-.4.7,1.9,0,4.2-.2,5.4-.3.3,0,.5.1.5.4v.9c0,.3-.1.4-.4.5-1.3.2-3.3.3-6,.3ZM168.3,156.9c-.3,0-.6,0-.6-.4v-1.1c0-.3.1-.4.4-.4,2.3,0,3.8-1.5,3.8-3.6v-2.4c0-.3.2-.5.4-.5h1.1c.3,0,.4.2.4.5v2.4c0,2.1,1.6,3.6,3.8,3.6s.4.1.4.4v1.1c0,.4-.3.4-.6.4-2,0-3.9-1.2-4.7-2.8-.7,1.7-2.6,2.8-4.6,2.8ZM162.7,157.3c.5,0,.7.3.7.8v3.4c0,.9-.6,1.5-1.7,1.5h-8.8c-.3,0-.4-.1-.4-.4v-.9c0-.3.1-.4.4-.4h1.1c-.7-.4-1.2-1.3-1.2-2.1s.7-1.7,1.9-1.7h2.6s0-.6,0-.6c0-.3-.1-.4-.4-.4-1.3,0-3.3,0-4.6-.2-.3,0-.4-.2-.4-.5v-.9c0-.3.2-.4.5-.4,1.2.1,3.6.2,6,.2,3.1,0,4.9,0,5.9-.2.3,0,.5.1.5.4v.9c0,.3-.1.4-.4.5-1.3.1-3.5.2-5.2.2.1,0,.2.2.2.4v.6s3.5,0,3.5,0ZM161.9,149.8l-.3,2.1c.6,0,1.2,0,1.5-.1.3,0,.4.1.4.3v1c0,.2-.1.4-.4.4-1,.1-2.7.2-5,.2s-4-.1-5-.2c-.3,0-.4-.2-.4-.4v-1c0-.2.2-.4.4-.3.4,0,.9,0,1.5.1l-.3-2.1h-1c-.3,0-.4-.1-.4-.4v-.9c0-.3.1-.4.4-.4h9.4c.3,0,.4.1.4.4v.9c0,.3-.1.4-.4.4h-1ZM160.9,161.1c.4,0,.6-.2.6-.5v-1.2c0-.3-.1-.4-.4-.4h-5.5c-.6,0-.9.3-.9.8s.6,1.3,1.3,1.3h4.9ZM159.6,151.9l.3-2.2h-3.5s.3,2.2.3,2.2c.5,0,1,0,1.5,0s1,0,1.5,0ZM149.8,162c0,.6-.4,1.1-1,1.2.1.3.3.4.7.4s.2,0,.2.2v.4c0,.1,0,.2-.2.2-1.3,0-2.2-.8-2.2-2.2s.5-1.4,1.3-1.4,1.3.5,1.3,1.2ZM128.1,147.7h1c.3,0,.4.1.4.4v5.5s1,0,1,0c.2,0,.5.1.6.3v-5.7c0-.3.1-.4.4-.4h1c.3,0,.4.1.4.4v14c0,.3-.1.4-.4.4h-1c-.3,0-.4-.1-.4-.4v-6.4c0-.3-.1-.5-.5-.5h-1s0,6.8,0,6.8c0,.3-.1.4-.4.4h-1c-.3,0-.4-.1-.4-.4v-14.2c0-.3.1-.4.4-.4ZM136.6,150.7c-.6,0-1.1,0-1.6.2-.3,0-.4-.1-.4-.4v-1c0-.3,0-.4.4-.4.5-.1,1-.1,1.8-.1,3,0,4.3,1.9,4.3,5.9s-1.4,5.9-4.2,5.9-1.8-.2-2.5-.5c-.3-.1-.4-.3-.3-.5l.2-1c0-.2.2-.3.3-.3s.1,0,.2,0c.7.3,1.4.4,2,.4,1.6,0,2.4-1.3,2.4-4s-.7-4.1-2.6-4.1ZM118.7,163.1c-3.8,0-5.6-1-5.6-2.9s1.5-2.8,4.7-2.9v-.6c0-.3-.1-.4-.4-.4-1.3,0-3.3,0-4.6-.2-.3,0-.4-.2-.4-.5v-.9c0-.3.2-.4.5-.4,1.2.1,3.6.2,6,.2,3.1,0,4.9,0,5.9-.2.3,0,.5.1.5.4v.9c0,.3-.1.4-.4.5-1.3.1-3.5.2-5.2.2.1,0,.2.2.2.4v.6c3,.2,4.5,1.1,4.5,2.9s-1.8,2.9-5.6,2.9ZM117.7,148.1v-.8c0-.3.1-.4.4-.4h1.1c.3,0,.4.1.4.4v.5c0,.3-.1.5-.3.6h3.9c.3,0,.4.1.4.4v.9c0,.3-.1.4-.4.4h-3.5c.4.9,1.8,1.6,3.7,1.6s.4.1.4.4v1c0,.3-.1.4-.4.4-2.1.1-4.1-.9-4.8-2.1-.7,1.2-2.7,2.2-4.8,2.1-.3,0-.4-.1-.4-.4v-1c0-.3.1-.4.4-.4,2,0,3.4-.7,3.7-1.6h-3.5c-.3,0-.4-.1-.4-.4v-.9c0-.3.1-.4.4-.4h3.2c.3,0,.4-.1.4-.3ZM118.7,159c-2.6,0-3.6.3-3.6,1.2s1.1,1.2,3.6,1.2,3.6-.3,3.6-1.2-1-1.2-3.6-1.2ZM98.5,150.5c-1.8,0-2.4.7-2.4,2.6s.1,2.3.3,3.2c0,.3,0,.4-.3.4l-1.2.2c-.3,0-.4,0-.5-.3-.2-1.2-.3-2.2-.3-3.9,0-2.7,1.4-4.1,4-4.1s3.9,0,5.8.3c.3,0,.4.2.4.4v1c0,.3-.2.4-.4.4-1.7-.2-3.4-.3-5.4-.3ZM105.7,159.8v.9c0,.3-.1.4-.4.5-1.3.2-3.3.3-6,.3s-4.9-.1-6-.3c-.3,0-.4-.2-.4-.5v-.9c0-.3.2-.4.5-.4,1.3.2,3.6.3,6,.3s4.3-.1,5.9-.3c.3,0,.5.1.5.4ZM82.9,155.4l.2-.9c0-.2.2-.3.3-.3s.1,0,.2,0c.9.3,2.1.5,2.9.5,1.9,0,2.4-.2,2.4-.9s-.6-.9-2.9-.9-1.4,0-2.2,0c-.3,0-.4-.1-.4-.4v-.8c0-.3.1-.4.4-.4h.4c-.6-.4-.9-.9-.9-1.7,0-1.2.8-1.7,3-1.7,1.5,0,2.5,0,3.6.2.3,0,.4.2.4.4v.9c0,.3-.2.4-.4.4-1.3-.2-2.6-.2-3.2-.2-1,0-1.4.2-1.4.7s.4.8,1.3.8c3.2,0,4.3.7,4.3,2.6s-1.1,2.6-3.9,2.6-2.9-.3-3.8-.6c-.3-.1-.4-.3-.3-.5ZM81.2,157.8c0,.3-.2.5-.4.5h-1.1c-.3,0-.4-.2-.4-.5v-9.6c0-.3.2-.5.4-.5h1.1c.3,0,.4.2.4.5v9.6ZM89.6,159.9c0,2-1.4,3.2-3.7,3.2s-5-.1-6.7-.3c-.3,0-.4-.2-.4-.4v-.9c0-.3.2-.4.5-.4,2,.2,3.7.3,6.7.3s1.7-.5,1.7-1.6,0-.9-.1-1.3c0-.3.2-.5.4-.5h1c.3,0,.4.2.5.4,0,.4.1.9.1,1.5ZM72,155.4v.9c0,.3-.1.4-.4.5-1,.1-2.9.2-6,.2-2.4,0-4.8,0-6-.2-.3,0-.4-.2-.4-.5v-.9c0-.3.2-.4.5-.4,1.3.1,3.2.2,6,.2s4.4,0,5.9-.2c.3,0,.5.1.5.4ZM60.7,149.6v-.9c0-.3.1-.4.4-.4,2.1-.1,2.9-.2,3.9-.2,4.4,0,5.9.8,5.9,2.9s-1.5,3-5.7,3-2.5-.1-4.4-.3c-.3,0-.4-.2-.4-.4v-.9c0-.3.2-.4.5-.4,1.5.2,3.1.3,4.5.3,2.7,0,3.5-.3,3.5-1.2s-.9-1.2-3.9-1.2-1.9,0-3.9.2c-.3,0-.4-.1-.4-.4ZM65.5,160.6c-.7,1.3-3,2.4-5.1,2.3-.3,0-.4-.1-.4-.4v-1c0-.3.1-.4.4-.4,2.4,0,4.1-1.1,4.1-2.5v-.4c0-.3.2-.5.4-.5h1.1c.3,0,.4.2.4.5v.4c0,1.5,1.7,2.5,4.1,2.5s.4.1.4.4v1c0,.3-.1.4-.4.4-2.1.1-4.3-1-5.1-2.3ZM55.3,153.8c0-.7-.5-1.1-1.8-1.1s-1.8.4-1.8,1.1.5,1.1,1.8,1.1,1.8-.4,1.8-1.1ZM53.5,156.6c-2.5,0-3.7-1-3.7-2.8s1.2-2.8,3.7-2.8,3.7,1,3.7,2.8-1.2,2.8-3.7,2.8ZM45.9,154.2c0-.4-.2-.5-.6-.5h-1.1c-.3,0-.4-.1-.4-.4v-.9c0-.3.1-.4.4-.4h1c.3,0,.6.1.7.3v-4c0-.3.2-.5.4-.5h1.1c.3,0,.4.2.4.5v9.6c0,.3-.2.5-.4.5h-1.1c-.3,0-.4-.2-.4-.5v-3.6ZM52.5,148v-.6c0-.3.1-.4.4-.4h1.1c.3,0,.4.1.4.4v.4c0,.2-.1.4-.3.5h3.1c.3,0,.4.1.4.4v.9c0,.3-.1.4-.4.4h-7.6c-.3,0-.4-.1-.4-.4v-.9c0-.3.1-.4.4-.4h2.4c.3,0,.4,0,.4-.3ZM55.9,159.9c0,2-1.4,3.2-3.7,3.2s-4.7-.1-6.4-.3c-.3,0-.4-.2-.4-.4v-.9c0-.3.2-.4.5-.4,2,.2,3.5.3,6.4.3s1.7-.5,1.7-1.6,0-.9-.1-1.3c0-.3.2-.5.4-.5h1c.3,0,.4.2.5.4,0,.4.1.9.1,1.5ZM315,175.7h1c.3,0,.4.1.4.4v5.5s1,0,1,0c.2,0,.5.1.6.3v-5.7c0-.3.1-.4.4-.4h1c.3,0,.4.1.4.4v14c0,.3-.1.4-.4.4h-1c-.3,0-.4-.1-.4-.4v-6.4c0-.3-.1-.5-.5-.5h-1s0,6.8,0,6.8c0,.3-.1.4-.4.4h-1c-.3,0-.4-.1-.4-.4v-14.2c0-.3.1-.4.4-.4ZM321.2,180.1c0-2.4.8-3.3,3-3.3s2.2.1,3.2.3c.3,0,.4.2.4.5v1c0,.3-.2.5-.4.4-.8-.2-1.9-.3-2.9-.3s-1.4.3-1.4,1.6,0,1.2,0,1.9c1.6,0,3,.1,4.1.2.3,0,.4.2.4.4v.9c0,.3-.1.4-.4.4-1.2-.1-2.6-.2-4-.2.1,1.4.3,2.8.5,4.1,0,.3-.1.4-.4.4h-1c-.3,0-.4-.1-.5-.4-.4-2.5-.6-5.3-.6-8ZM304.2,183.1l.2-.9c0-.2.2-.3.3-.3s.1,0,.2,0c.8.3,2.1.5,2.9.5,1.9,0,2.4-.2,2.4-.8s-.6-.8-2.9-.8-1.4,0-2.2,0c-.3,0-.4-.1-.4-.4v-.8c0-.3.1-.4.4-.4h.4c-.6-.3-.9-.9-.9-1.6,0-1.1.8-1.6,3-1.6,1.5,0,2.5,0,3.6.2.3,0,.4.2.4.4v.9c0,.3-.2.4-.4.4-1.3-.2-2.6-.2-3.2-.2-1,0-1.4.2-1.4.6s.4.7,1.3.7c3.2,0,4.3.7,4.3,2.5s-1.1,2.6-3.9,2.6-2.9-.3-3.8-.6c-.3-.1-.4-.3-.3-.5ZM302.4,183.7c0,.3-.2.5-.4.5h-1.1c-.3,0-.4-.2-.4-.5v-7.5c0-.3.2-.5.4-.5h1.1c.3,0,.4.2.4.5v7.5ZM300.5,188.1c0-1.9,1-2.7,3.3-2.7s5,.1,6.8.3c.3,0,.4.2.4.4v.9c0,.3-.1.4-.4.4-2.1-.2-4.1-.3-6.6-.3s-1.6.3-1.6,1.4,0,1.3,0,1.8c0,.3-.2.5-.4.5h-1c-.3,0-.5-.2-.5-.4,0-.6,0-1.3,0-2.3ZM290.1,187.4l.3-.9c0-.2.2-.3.4-.3s.1,0,.2,0c1.1.4,2,.6,2.7.6,1.6,0,2.5-.9,2.5-2.3s-.9-2.4-2.9-2.4-1.2,0-1.9.1c-.3,0-.4-.1-.4-.4v-1c0-.3.1-.4.4-.5.6-.1,1.3-.2,2.2-.2,3.1,0,4.6,1.4,4.6,4.3s-1.6,4.2-4.3,4.2-2.4-.3-3.5-.7c-.3-.1-.4-.3-.3-.6ZM288.3,182.4c0,.4.2.5.6.5h1.2c.3,0,.4.1.4.4v1c0,.3-.1.4-.4.4h-1.1c-.3,0-.6-.1-.7-.3v5.9c0,.3-.2.5-.4.5h-1.1c-.3,0-.4-.2-.4-.5v-14.1c0-.3.2-.5.4-.5h1.1c.3,0,.4.2.4.5v6.2ZM291,178.7c-.3,0-.4-.1-.4-.4v-1c0-.3.1-.4.4-.4h6.5c.3,0,.4.1.4.4v1c0,.3-.1.4-.4.4h-6.5ZM267.8,177.6v-.9c0-.3.1-.4.4-.4,2.1-.1,2.9-.2,3.9-.2,4.4,0,5.9.7,5.9,2.8s-1.5,2.8-5.7,2.8-2.5-.1-4.4-.3c-.3,0-.4-.2-.4-.4v-.9c0-.3.2-.4.5-.4,1.5.2,3.1.3,4.5.3,2.7,0,3.5-.2,3.5-1s-.9-1-3.9-1-1.9,0-3.9.2c-.3,0-.4-.1-.4-.4ZM272.6,191.1c-3.8,0-5.6-1-5.6-2.9s1.8-2.9,5.6-2.9,5.6.9,5.6,2.9-1.8,2.9-5.6,2.9ZM272.6,187c-2.6,0-3.6.3-3.6,1.2s1.1,1.2,3.6,1.2,3.6-.3,3.6-1.2-1-1.2-3.6-1.2ZM279.1,182.9v.9c0,.3-.1.4-.4.5-1,.1-2.9.2-6,.2-2.4,0-4.8,0-6-.2-.3,0-.4-.2-.4-.5v-.9c0-.3.2-.4.5-.4,1.3.1,3.2.2,6,.2s4.4,0,5.9-.2c.3,0,.5.1.5.4ZM253.3,186.4c-2.6,0-3.4.6-3.4,1.4s.8,1.4,3.4,1.4,3.4-.6,3.4-1.4-.8-1.4-3.4-1.4ZM256,181.8c1.1,0,1.9-.8,1.9-2s-.7-2-1.9-2-1.9.8-1.9,2,.7,2,1.9,2ZM253.3,191.1c-3.6,0-5.4-1.1-5.4-3.2s1.8-3.2,5.4-3.2,5.4,1.1,5.4,3.2-1.8,3.2-5.4,3.2ZM256,176c2.3,0,3.8,1.5,3.8,3.8s-1.5,3.8-3.8,3.8-3.8-1.5-3.8-3.8,1.5-3.8,3.8-3.8ZM248.3,181c0-.4-.2-.5-.6-.5h-1.1c-.3,0-.4-.1-.4-.4v-.9c0-.3.1-.4.4-.4h1c.3,0,.6.1.7.3v-2.8c0-.3.2-.5.4-.5h1.1c.3,0,.4.2.4.5v7.2c0,.3-.2.5-.4.5h-1.1c-.3,0-.4-.2-.4-.5v-2.4ZM238.2,191.1c-3.8,0-5.6-1-5.6-2.9s1.8-2.9,5.6-2.9,5.6.9,5.6,2.9-1.8,2.9-5.6,2.9ZM238.3,179.5c-.7,1.2-2.7,2.2-4.8,2.1-.3,0-.4-.1-.4-.4v-1c0-.3.1-.4.4-.4,2.2,0,3.7-.8,3.8-1.9h-3.6c-.3,0-.4-.1-.4-.4v-.9c0-.3.1-.4.4-.4h9.1c.3,0,.4.1.4.4v.9c0,.3-.1.4-.4.4h-3.6c.1,1.1,1.6,1.9,3.8,1.9s.4.1.4.4v1c0,.3-.1.4-.4.4-2.1.1-4.1-.9-4.8-2.1ZM244.8,182.9v.9c0,.3-.1.4-.4.5-1,.1-2.9.2-6,.2-2.4,0-4.8,0-6-.2-.3,0-.4-.2-.4-.5v-.9c0-.3.2-.4.5-.4,1.3.1,3.2.2,6,.2s4.4,0,5.9-.2c.3,0,.5.1.5.4ZM238.2,187c-2.6,0-3.6.3-3.6,1.2s1.1,1.2,3.6,1.2,3.6-.3,3.6-1.2-1-1.2-3.6-1.2ZM222.7,183v-.9c0-.3.1-.4.4-.4h1.1c-1-.5-1.6-1.7-1.6-3s.8-2.4,2.4-2.4h4.3c.5,0,.8.3.8.8v5c0,.9-.7,1.5-1.8,1.5h-5.2c-.3,0-.4-.1-.4-.4ZM224.7,186.5v.2c0,1.4,1.7,2.5,3.9,2.5s.4.1.4.4v1c0,.3-.1.4-.4.4-1.9.1-4.1-.8-4.9-2.2-.8,1.4-3,2.3-4.9,2.2-.3,0-.4-.1-.4-.4v-1c0-.3.1-.4.4-.4,2.3,0,3.9-1,3.9-2.5v-.2s-3.7,0-3.7,0c-.3,0-.4-.1-.4-.4v-.9c0-.3.1-.4.4-.4h9.3c.3,0,.4.1.4.4v.9c0,.3-.1.4-.4.4h-3.7ZM218.7,180.8c0-.4-.2-.5-.6-.5h-1.1c-.3,0-.4-.1-.4-.4v-.9c0-.3.1-.4.4-.4h1c.3,0,.6.1.7.3v-2.6c0-.3.2-.5.4-.5h1.1c.3,0,.4.2.4.5v6.8c0,.3-.2.5-.4.5h-1.1c-.3,0-.4-.2-.4-.5v-2.2ZM227.4,181.6c.4,0,.7-.2.7-.5v-2.7c0-.3-.2-.4-.4-.4h-1.7c-1,0-1.4.5-1.4,1.5s.7,2.1,1.8,2.1h1.1ZM208.8,189.5c-2.7,0-4.9-.1-6-.3-.3,0-.4-.2-.4-.5v-.9c0-.3.2-.4.5-.4,1.1.1,3.4.3,5.2.3s.6-.2.6-.5v-3.9c0-.3.2-.5.4-.5h1.1c.3,0,.4.2.4.5v3.7c0,.3-.2.6-.4.7,1.4,0,3.1-.2,4.6-.3.3,0,.5.1.5.4v.9c0,.3-.1.4-.4.5-1.3.2-3.3.3-6,.3ZM208,178.5c-1.8,0-2.4.7-2.4,2.6s.1,2.3.3,3.2c0,.3,0,.4-.3.4l-1.2.2c-.3,0-.4,0-.5-.3-.2-1.2-.3-2.2-.3-3.9,0-2.7,1.4-4.1,4-4.1s3.9,0,5.8.3c.3,0,.4.2.4.4v1c0,.3-.2.4-.4.4-1.7-.2-3.4-.3-5.4-.3ZM183.9,186.7c0-1.3.7-2,2.1-2h7.5c.5,0,.8.3.8.8v3.9c0,.9-.7,1.5-1.8,1.5h-8.4c-.3,0-.4-.1-.4-.4v-.9c0-.3.1-.4.4-.4h1.2c-.8-.5-1.4-1.4-1.4-2.4ZM191.4,178.6c0-.1,0-.3,0-.4-.6-.2-1.1-.2-1.5-.2s-.8.2-.8.8c0,1.2.2,2.9.5,4.1,0,.3-.1.5-.4.5h-1.1c-.3,0-.4-.1-.5-.4-.3-1.3-.5-2.9-.5-4.4s.8-2.5,2.4-2.5,1.3,0,1.9.2c.3,0,.4.2.4.4.4-.5,1-.7,1.9-.7s1.2.1,1.8.3c.3.1.4.2.4.5v.9c0,.3-.2.5-.4.4-.6-.2-1.1-.3-1.4-.3-.5,0-.7.2-.7.8,0,1.1.2,2.8.5,4.1,0,.3-.1.5-.4.5h-1.1c-.3,0-.4-.1-.5-.4-.3-1.2-.5-3-.5-4.4ZM184,180.8c0-.4-.2-.5-.6-.5h-.8c-.3,0-.4-.1-.4-.4v-.9c0-.3.1-.4.4-.4h.7c.3,0,.6.1.7.3v-2.6c0-.3.2-.5.4-.5h1.1c.3,0,.4.2.4.5v6.8c0,.3-.2.5-.4.5h-1.1c-.3,0-.4-.2-.4-.5v-2.2ZM191.6,189.1c.4,0,.7-.2.7-.5v-1.7c0-.3-.2-.4-.4-.4h-4.9c-.8,0-1.1.3-1.1,1.1s.7,1.6,1.5,1.6h4.2ZM175.9,177.9v2.2c0,1.2.3,1.8.9,1.8s.9-.6.9-1.8v-2.2s-1.8,0-1.8,0ZM169.1,187.8c0-1.9,1-2.7,3.3-2.7s5.2.1,7,.3c.3,0,.4.2.4.4v.9c0,.3-.1.4-.4.4-2.1-.2-4.3-.3-6.7-.3s-1.6.3-1.6,1.4,0,1.6,0,2.2c0,.3-.2.5-.4.5h-1c-.3,0-.5-.2-.5-.4,0-.6,0-1.5,0-2.7ZM174.9,181.8c-.3,1.1-1.2,1.9-2.4,1.9s-.4-.1-.4-.4v-.9c0-.3.1-.4.4-.4,1,0,1.4-.8,1.4-2.1v-1.9s-1.3,0-1.3,0c-.3,0-.4-.1-.4-.4v-.9c0-.3.1-.4.4-.4h8.4c.3,0,.4.1.4.4v.9c0,.3-.1.4-.4.4h-1.3s0,1.9,0,1.9c0,1.3.5,2.1,1.4,2.1.3,0,.4.1.4.4v.9c0,.3-.1.4-.4.4-1.2,0-2.1-.8-2.4-1.9-.3,1.2-1,1.9-1.9,1.9s-1.6-.7-1.9-1.9ZM171,183.4c0,.3-.2.5-.4.5h-1.1c-.3,0-.4-.2-.4-.5v-7.2c0-.3.2-.5.4-.5h1.1c.3,0,.4.2.4.5v7.2ZM161.1,184.3c0,1.5.7,2.3,1.8,2.3s1.8-.8,1.8-2.3-.6-2.3-1.8-2.3-1.8.8-1.8,2.3ZM162.9,180.1c2.3,0,3.7,1.5,3.7,4.2s-1.4,4.2-3.7,4.2-3.7-1.5-3.7-4.2,1.4-4.2,3.7-4.2ZM155.2,184.1c0-.4-.2-.5-.6-.5h-1.1c-.3,0-.4-.1-.4-.4v-1c0-.3.1-.4.4-.4h1c.3,0,.6.1.7.3v-5.8c0-.3.2-.5.4-.5h1.1c.3,0,.4.2.4.5v14.1c0,.3-.2.5-.4.5h-1.1c-.3,0-.4-.2-.4-.5v-6.2ZM161.9,176.8v-1.1c0-.3.1-.4.4-.4h1.1c.3,0,.4.1.4.4v.9c0,.2-.1.4-.3.5h3.1c.3,0,.4.1.4.4v1c0,.3-.1.4-.4.4h-7.6c-.3,0-.4-.1-.4-.4v-1c0-.3.1-.4.4-.4h2.4c.3,0,.4,0,.4-.3ZM144.7,180.5c0-2.6,1-3.7,3.3-3.7s2.2.1,3.6.3c.3,0,.4.2.4.5v1c0,.3-.2.5-.4.4-1.1-.2-1.9-.3-3.2-.3s-1.7.5-1.7,2c0,2.5.2,4.9.6,7.4,0,.3-.1.5-.4.5h-1.1c-.3,0-.4-.1-.5-.4-.4-2.5-.6-4.9-.6-7.6ZM142.1,181.1c0,.4.2.5.6.5h.9c.3,0,.4.1.4.4v1c0,.3-.1.4-.4.4h-.8c-.3,0-.6-.1-.7-.3v7.2c0,.3-.2.5-.4.5h-1.1c-.3,0-.4-.2-.4-.5v-14.1c0-.3.2-.5.4-.5h1.1c.3,0,.4.2.4.5v4.9ZM130,187.5l.3-1c0-.2.2-.4.3-.4s.1,0,.2,0c1,.4,1.8.6,2.6.6,1.7,0,2.4-.8,2.4-2.9s-.1-4.4-.4-6.6c0-.3.1-.5.5-.5h1c.3,0,.4.1.5.4.3,2.1.4,3.9.4,6.6s-1.4,4.9-4.2,4.9-2-.2-3.1-.7c-.3-.1-.4-.3-.4-.5ZM126.3,184.1c0-.4-.2-.5-.6-.5h-1.1c-.3,0-.4-.1-.4-.4v-1c0-.3.1-.4.4-.4h1c.3,0,.6.1.7.3v-5.8c0-.3.2-.5.4-.5h1.1c.3,0,.4.2.4.5v14.1c0,.3-.2.5-.4.5h-1.1c-.3,0-.4-.2-.4-.5v-6.2ZM112.3,179.8c0,1.2.1,2.7.5,4.2,0,0,0,0,0,0,.5,0,1,0,1.4,0,1.6,0,3.1,0,4.2-.3.3,0,.5,0,.5.4v1c0,.3-.1.4-.4.4-.9.1-2.4.2-3.7.3.3.1.5.4.5.7v3.5c0,.3-.2.5-.4.5h-1.1c-.3,0-.4-.2-.4-.5v-3.7c0-.4-.2-.5-.6-.5-1,0-2.3-.1-3-.2-.3,0-.4-.2-.4-.5v-1c0-.3.2-.4.4-.4.3,0,.7,0,1,.1-.3-1.4-.4-3-.4-4.5,0-2.1.8-3.3,3.3-3.3s2.8.1,3.7.3c.3,0,.4.2.4.4v1c0,.3-.2.5-.4.4-1.1-.2-2.3-.3-3.5-.3s-1.6.5-1.6,1.8ZM106.4,176.2c0-.3.2-.5.4-.5h1.1c.3,0,.4.2.4.5v14.1c0,.3-.2.5-.4.5h-1.1c-.3,0-.4-.2-.4-.5v-14.1ZM100.5,181.6c1.1,0,1.8-.8,1.8-1.9s-.7-1.9-1.8-1.9-1.8.7-1.8,1.9.7,1.9,1.8,1.9ZM94.4,187.4v1.1c0,.4.3.6.8.6h4.9c.5,0,.7-.2.8-.6v-1.1c0,0-6.5,0-6.5,0ZM92.6,189.3l-.2-4.4c0-.3.2-.4.4-.4h1.1c.3,0,.4.2.4.4v.8s6.8,0,6.8,0v-.8c0-.3.2-.4.5-.4h1.1c.3,0,.5.2.4.4l-.2,4.4c0,1-.7,1.6-1.9,1.6h-6.4c-1.2,0-1.9-.6-1.9-1.6ZM100.5,176c2.3,0,3.7,1.5,3.7,3.7s-1.5,3.7-3.7,3.7-3.7-1.5-3.7-3.7,1.5-3.7,3.7-3.7ZM94.3,182.9c0,.3-.2.5-.4.5h-1.1c-.3,0-.4-.2-.4-.5v-6.7c0-.3.2-.5.4-.5h1.1c.3,0,.4.2.4.5v.4c0,.3.1.5.5.5h1.2c.3,0,.4.1.4.4v.9c0,.3-.1.4-.4.4h-1c-.3,0-.6-.1-.7-.3v1.5c0,.3.1.5.5.5h1.2c.3,0,.4.1.4.4v.9c0,.3-.1.4-.4.4h-1c-.3,0-.6-.1-.7-.3v.9ZM83.5,189.5c-2.7,0-4.9-.1-6-.3-.3,0-.4-.2-.4-.5v-.9c0-.3.2-.4.5-.4,1.1.1,3.4.3,5.2.3s.6-.2.6-.5v-3.9c0-.3.2-.5.4-.5h1.1c.3,0,.4.2.4.5v3.7c0,.3-.2.6-.4.7,1.4,0,3.1-.2,4.6-.3.3,0,.5.1.5.4v.9c0,.3-.1.4-.4.5-1.3.2-3.3.3-6,.3ZM82.7,178.5c-1.8,0-2.4.7-2.4,2.6s.1,2.3.3,3.2c0,.3,0,.4-.3.4l-1.2.2c-.3,0-.4,0-.5-.3-.2-1.2-.3-2.2-.3-3.9,0-2.7,1.4-4.1,4-4.1s3.9,0,5.8.3c.3,0,.4.2.4.4v1c0,.3-.2.4-.4.4-1.7-.2-3.4-.3-5.4-.3ZM63.1,188.5c-.3,0-.4-.1-.4-.4v-1c0-.3.1-.4.4-.5,1.4-.2,2.6-1.9,2.6-3.9v-5.5c0-.3.2-.5.4-.5h1.1c.3,0,.4.2.4.5v5.5c0,2,1.2,3.7,2.6,3.9.3,0,.4.2.4.5v1c0,.3-.1.4-.4.4-1.6-.2-3.1-1.5-3.6-3.1-.4,1.6-1.9,2.9-3.6,3.1ZM60.6,180.2c0,.4.2.5.6.5h1.9c.3,0,.4.1.4.4v1c0,.3-.1.4-.4.4h-1.8c-.3,0-.6-.1-.7-.3v8c0,.3-.2.5-.4.5h-1.1c-.3,0-.4-.2-.4-.5v-14.1c0-.3.2-.5.4-.5h1.1c.3,0,.4.2.4.5v4ZM50.4,186.1v1.5c0,.3-.2.5-.4.5h-1.1c-.3,0-.4-.2-.4-.5v-1.5c0-.3-.1-.4-.4-.4-1,0-3,0-4.3-.2-.3,0-.4-.2-.4-.5v-.8c0-.3.1-.4.4-.4,1.2.1,3.6.2,6,.2,3.1,0,4.9,0,6-.2.3,0,.4.1.4.4v.8c0,.3-.1.4-.4.5-1.3.1-3.6.2-5.6.2.1,0,.2.2.2.4ZM49.8,178.4c4.1,0,5.2.7,5.2,2.3s-1,2.4-5.2,2.4-3.4,0-5-.2c-.3,0-.4-.2-.4-.4v-.8c0-.3.2-.4.5-.3,1.1.2,2.7.2,4.8.2s3.3-.3,3.3-.8-.5-.7-3.1-.7-2.9,0-4.7.1c-.3,0-.4-.1-.4-.4v-.8c0-.3,0-.4.3-.4,1.1,0,2.7-.1,4.6-.1ZM54.9,176.5v.8c0,.3-.1.4-.4.4h-9.3c-.3,0-.4-.1-.4-.4v-.8c0-.3.1-.4.4-.4h9.3c.3,0,.4.1.4.4ZM55.1,188.2c0,1.9-1.3,2.9-3.6,2.9s-5.3-.1-7-.3c-.3,0-.4-.2-.4-.4v-.9c0-.3.2-.4.5-.4,2,.2,3.9.3,7,.3s1.6-.4,1.6-1.2,0-.7-.1-1c0-.3.1-.5.4-.5h1c.3,0,.5.2.5.4,0,.3.1.7.1,1.1ZM321.3,217.5c-2.6,0-4.9-.1-6-.3-.3,0-.4-.2-.4-.5v-.9c0-.3.2-.4.5-.4,1.2.2,2.9.3,4.4.3s.6-.2.6-.5v-2.2s-4,0-4,0c-.3,0-.4-.1-.4-.4v-.9c0-.3.1-.5.4-.5h1.5c-1-.6-1.7-2.1-1.7-3.7s.9-2.8,2.7-2.8h6.7c.5,0,.8.3.8.8v6c0,.9-.7,1.5-1.8,1.5h-2.3s0,2,0,2c0,.3-.2.6-.4.7,1.9,0,4.2-.2,5.4-.3.3,0,.5.1.5.4v.9c0,.3-.1.4-.4.5-1.3.2-3.3.3-6,.3ZM323.6,211.1c.4,0,.7-.2.7-.5v-3.7c0-.3-.2-.4-.4-.4h-4.3c-1.1,0-1.6.6-1.6,1.9s.9,2.8,1.9,2.8h3.7ZM303.1,215.9v.6c0,.4.3.6.8.6h5c.5,0,.7-.2.8-.6v-.6c0,0-6.6,0-6.6,0ZM301.3,217.3l-.3-3.9c0-.3.2-.4.4-.4h1.1c.3,0,.4.2.4.4v.7c0,0,7,0,7,0v-.7c0-.3.2-.4.5-.4h1.1c.3,0,.5.2.4.4l-.3,3.9c0,1-.7,1.6-1.9,1.6h-6.5c-1.2,0-1.9-.6-1.9-1.6ZM312.9,210.7v.9c0,.3-.1.4-.4.5-1,.1-2.9.2-6,.2-2.4,0-4.8,0-6-.2-.3,0-.4-.2-.4-.5v-.9c0-.3.2-.4.5-.4,1.3.1,3.2.2,6,.2s4.4,0,5.9-.2c.3,0,.5.1.5.4ZM301.6,209.4c-.3,0-.4-.1-.4-.4v-1c0-.3.1-.4.4-.4,2.3,0,3.8-1,3.8-2.6v-.4c0-.3.2-.5.4-.5h1.1c.3,0,.4.2.4.5v.4c0,1.6,1.6,2.6,3.8,2.6s.4.1.4.4v1c0,.3-.1.4-.4.4-2.1.1-4.1-.9-4.8-2.3-.7,1.4-2.7,2.4-4.8,2.3ZM290.4,211.5c-.2,0-.5-.1-.6-.3v7.2c0,.3-.1.4-.4.4h-1c-.3,0-.4-.1-.4-.4v-14c0-.3.1-.4.4-.4h1c.3,0,.4.1.4.4v4.8c0,.3.1.5.5.5h1.4c.2-3.4,1.3-5,3.4-5s3.4,1.9,3.4,6.1-1.1,6.1-3.4,6.1-3.2-1.7-3.4-5.3h-1.3ZM285.4,203.7h1c.3,0,.4.1.4.4v14.2c0,.3-.1.4-.4.4h-1c-.3,0-.4-.1-.4-.4v-14.2c0-.3.1-.4.4-.4ZM293.6,210.7c0,3,.5,4.2,1.5,4.2s1.5-1.3,1.5-4.2-.5-4.2-1.5-4.2-1.5,1.2-1.5,4.2ZM275.3,216.5c-.3,0-.4-.1-.4-.4v-1c0-.3.1-.4.4-.5,1.4-.2,2.6-1.9,2.6-3.9v-5.5c0-.3.2-.5.4-.5h1.1c.3,0,.4.2.4.5v5.5c0,2,1.2,3.7,2.6,3.9.3,0,.4.2.4.5v1c0,.3-.1.4-.4.4-1.6-.2-3.1-1.5-3.6-3.1-.4,1.6-1.9,2.9-3.6,3.1ZM272.8,208.2c0,.4.2.5.6.5h1.9c.3,0,.4.1.4.4v1c0,.3-.1.4-.4.4h-1.8c-.3,0-.6-.1-.7-.3v8c0,.3-.2.5-.4.5h-1.1c-.3,0-.4-.2-.4-.5v-14.1c0-.3.2-.5.4-.5h1.1c.3,0,.4.2.4.5v4ZM259.6,209.5c.4,0,.7-.2.7-.5v-2.6c0-.3-.2-.4-.4-.4h-4.5c-1.1,0-1.4.3-1.4,1.3s.7,2.2,1.7,2.2h3.9ZM251.2,214.4c-.3,0-.4-.2-.4-.5v-.9c0-.3.2-.4.5-.4,1.3.2,3.6.3,6,.3s4.3-.1,5.9-.3c.3,0,.5.1.5.4v.9c0,.3-.1.4-.4.5-1.2.2-3.6.3-5.5.3.3.1.4.4.4.7v2.3c0,.3-.2.5-.4.5h-1.1c-.3,0-.4-.2-.4-.5v-2.6c0-.4-.2-.5-.6-.5-1.5,0-3.3-.1-4.4-.3ZM252.1,206.4c0-1.5.7-2.2,2.5-2.2h6.9c.5,0,.8.3.8.8v4.8c0,.9-.7,1.5-1.8,1.5h-8.2c-.3,0-.4-.1-.4-.4v-.9c0-.3.1-.4.4-.4h1.4c-1-.5-1.6-1.7-1.6-3.1ZM236.1,203.7h1c.3,0,.4.1.4.4v5.5s1,0,1,0c.2,0,.5.1.6.3v-5.7c0-.3.1-.4.4-.4h1c.3,0,.4.1.4.4v14c0,.3-.1.4-.4.4h-1c-.3,0-.4-.1-.4-.4v-6.4c0-.3-.1-.5-.5-.5h-1s0,6.8,0,6.8c0,.3-.1.4-.4.4h-1c-.3,0-.4-.1-.4-.4v-14.2c0-.3.1-.4.4-.4ZM245.9,208.1c2.1,0,3.2,1.5,3.2,4.2s-1.1,4.2-3.2,4.2-3.2-1.5-3.2-4.2,1.1-4.2,3.2-4.2ZM244.9,204.8v-1.1c0-.3.1-.4.4-.4h1c.3,0,.4.1.4.4v.9c0,.2-.1.4-.3.5h2.6c.3,0,.4.1.4.4v1c0,.3-.1.4-.4.4h-6.6c-.3,0-.4-.1-.4-.4v-1c0-.3.1-.4.4-.4h2c.3,0,.4,0,.4-.3ZM244.5,212.3c0,1.6.4,2.3,1.3,2.3s1.3-.8,1.3-2.3-.4-2.3-1.3-2.3-1.3.8-1.3,2.3ZM225.6,211.1l.2-.9c0-.2.2-.3.3-.3s.1,0,.2,0c.8.3,1.9.5,2.7.5,1.9,0,2.4-.2,2.4-.8s-.6-.8-2.7-.8-1.4,0-2.2,0c-.3,0-.4-.1-.4-.4v-.8c0-.3.1-.4.4-.4h.4c-.6-.3-.9-.9-.9-1.6,0-1.1.8-1.6,3-1.6,1.4,0,2.3,0,3.5.2.3,0,.4.2.4.4v.9c0,.3-.2.4-.4.4-1.3-.2-2.4-.2-3.1-.2-1,0-1.4.2-1.4.6s.4.7,1.3.7c3.1,0,4.1.7,4.1,2.5s-1.1,2.6-3.9,2.6-2.8-.3-3.6-.6c-.3-.1-.4-.3-.3-.5ZM221.6,204.2c0-.3.2-.5.4-.5h1.1c.3,0,.4.2.4.5v.6c0,.3.1.5.5.5h.8c.3,0,.4.1.4.4v.9c0,.3-.1.4-.4.4h-.6c-.3,0-.6-.1-.7-.3v1.6c0,.3.1.5.5.5h.8c.3,0,.4.1.4.4v.9c0,.3-.1.4-.4.4h-.6c-.3,0-.6-.1-.7-.3v1.4c0,.3-.2.5-.4.5h-1.1c-.3,0-.4-.2-.4-.5v-7.5ZM221.7,216.1c0-1.9,1-2.7,3.3-2.7s5,.1,6.8.3c.3,0,.4.2.4.4v.9c0,.3-.1.4-.4.4-2.1-.2-4.1-.3-6.6-.3s-1.6.3-1.6,1.4,0,1.3,0,1.8c0,.3-.2.5-.4.5h-1c-.3,0-.5-.2-.5-.4,0-.6,0-1.3,0-2.3ZM212.7,205.5c-2.6,0-3.3.3-3.3,1.1s.8,1.1,3.3,1.1,3.3-.3,3.3-1.1-.8-1.1-3.3-1.1ZM207,218.3v-.8c0-.3.2-.4.5-.3,1.3.2,3.2.3,4.5.3,3.5,0,4.1,0,4.1-.6s-.4-.6-3.2-.6-4,0-5,0c-.2,0-.4-.1-.4-.4v-.7c0-.3.1-.4.4-.4h.6c-.7-.2-1.1-.8-1.1-1.4s.4-1.2,1.6-1.2c2.2,0,5.8,0,8.4.2.3,0,.4.1.4.4v.8c0,.3-.1.4-.4.4-1.9-.1-5.5-.2-7.2-.2s-.8.2-.8.5.2.5.8.5c.9,0,1.9,0,2.8,0,4,0,5.1.5,5.1,2.1s-1.2,2.2-6.1,2.2-3.3-.1-4.6-.3c-.3,0-.4-.2-.3-.4ZM212.8,209.9c2,0,4.4,0,6-.2.3,0,.4.1.4.4v.8c0,.3-.1.4-.4.4-1,.1-2.9.2-6,.2-2.4,0-4.8,0-6.1-.2-.3,0-.4-.2-.4-.4v-.8c0-.3.2-.4.4-.4,1.3.1,3.2.2,6,.2ZM212.7,209.2c-3.8,0-5.3-.7-5.3-2.6s1.5-2.6,5.3-2.6,5.3.7,5.3,2.6-1.5,2.6-5.3,2.6ZM198.2,209.3c0,2.5-1.4,3.8-4.1,3.8s-4.2,0-6-.3c-.3,0-.4-.2-.4-.4v-1c0-.3.2-.4.5-.4,1.6.2,3.7.3,5.9.3s2.1-.6,2.1-1.9,0-3-.1-4.2c0-.3.1-.5.4-.5h1c.3,0,.5.2.5.4,0,1.1.1,2.9.1,4.2ZM199.6,215.8v.9c0,.3-.1.4-.4.5-1.3.2-3.3.3-6,.3s-4.9-.1-6-.3c-.3,0-.4-.2-.4-.5v-.9c0-.3.2-.4.5-.4,1.3.2,3.6.3,6,.3s4.3-.1,5.9-.3c.3,0,.5.1.5.4ZM180.7,206.7c0-.2,0-.3,0-.4-.6-.2-1.1-.2-1.5-.2s-.8.2-.8.8c0,1.4.2,3.5.5,4.8,0,.3-.1.5-.4.5h-1.1c-.3,0-.4-.1-.5-.4-.3-1.4-.5-3.4-.5-5s.8-2.5,2.4-2.5,1.3,0,1.9.2c.3,0,.4.2.4.5.4-.5,1-.7,1.9-.7s1.2.1,1.8.3c.3.1.4.2.4.5v.9c0,.3-.2.5-.4.4-.6-.2-1.1-.3-1.4-.3-.5,0-.7.2-.7.8,0,1.3.2,3.4.5,4.8,0,.3-.1.5-.4.5h-1.1c-.3,0-.4-.1-.5-.4-.3-1.5-.5-3.5-.5-5ZM183.6,215.9c0,2-1.4,3.2-3.7,3.2s-5.2-.1-6.9-.3c-.3,0-.4-.2-.4-.4v-.9c0-.3.2-.4.5-.4,2,.2,3.9.3,6.9.3s1.7-.5,1.7-1.6,0-1.3-.1-1.7c0-.3.2-.5.4-.5h1c.3,0,.4.2.5.4,0,.4.1,1.2.1,1.9ZM175,213.8c0,.3-.2.5-.4.5h-1.1c-.3,0-.4-.2-.4-.5v-9.6c0-.3.2-.5.4-.5h1.1c.3,0,.4.2.4.5v9.6ZM165.8,206.7c-.9,0-1.4,0-2.1.2-.3,0-.4-.1-.4-.4v-1c0-.3.1-.4.4-.4.6-.1,1.3-.1,2.3-.1,3.2,0,4.8,1.8,4.8,5.9s-1.5,5.9-4.6,5.9-2-.2-3.1-.7c-.3-.1-.4-.3-.4-.5l.3-1c0-.2.2-.4.3-.4s.1,0,.2,0c1,.4,1.9.6,2.6.6,1.9,0,2.8-1.3,2.8-4s-.8-4.1-2.9-4.1ZM159.3,212.1c0-.4-.2-.5-.6-.5h-1.1c-.3,0-.4-.1-.4-.4v-1c0-.3.1-.4.4-.4h1c.3,0,.6.1.7.3v-5.8c0-.3.2-.5.4-.5h1.1c.3,0,.4.2.4.5v14.1c0,.3-.2.5-.4.5h-1.1c-.3,0-.4-.2-.4-.5v-6.2ZM154.5,219.2c-.8,0-1.3-.5-1.3-1.2s.5-1.2,1.3-1.2,1.3.5,1.3,1.2-.5,1.2-1.3,1.2ZM144,206.7v4c0,2,1.2,3.7,2.6,3.9.3,0,.4.2.4.5v1c0,.3-.1.4-.4.4-1.6-.2-3.1-1.5-3.6-3.1-.4,1.6-1.9,2.9-3.6,3.1-.3,0-.4-.1-.4-.4v-1c0-.3.1-.4.4-.5,1.4-.2,2.6-1.9,2.6-3.9v-4s-2.5,0-2.5,0c-.3,0-.4-.1-.4-.4v-1c0-.3.1-.4.4-.4h7c.3,0,.4.1.4.4v1c0,.3-.1.4-.4.4h-2.5ZM135.4,212.1c0-.4-.2-.5-.6-.5h-1.1c-.3,0-.4-.1-.4-.4v-1c0-.3.1-.4.4-.4h1c.3,0,.6.1.7.3v-5.8c0-.3.2-.5.4-.5h1.1c.3,0,.4.2.4.5v14.1c0,.3-.2.5-.4.5h-1.1c-.3,0-.4-.2-.4-.5v-6.2ZM132,210.4v.9c0,.3-.1.4-.4.5-1,.1-2.9.2-6,.2-2.4,0-4.8,0-6-.2-.3,0-.4-.2-.4-.5v-.9c0-.3.2-.4.5-.4.3,0,.7,0,1.2,0-.2-.8-.4-1.9-.4-2.9,0-2,1.2-3,3.7-3s4.3.1,6.1.3c.3,0,.4.2.4.4v1c0,.3-.2.4-.4.4-2.1-.2-3.7-.3-5.9-.3s-1.9.5-1.9,1.8.2,1.6.4,2.4c0,0,0,0,0,.1.8,0,1.7,0,2.8,0,2,0,4.4,0,5.9-.2.3,0,.5.1.5.4ZM120.1,216c0-2,.8-2.7,3.2-2.7s4.7.1,7,.3c.3,0,.4.2.4.4v.9c0,.3-.1.4-.4.4-2.3-.2-4.7-.3-6.9-.3s-1.4.3-1.4,1.4,0,1.5,0,2c0,.3-.2.5-.4.5h-1c-.3,0-.5-.2-.5-.4,0-.5-.1-1.3-.1-2.5ZM113.6,204.6c2.6,0,3.8,1.9,3.8,6.1s-1.2,6.1-3.8,6.1-3.8-1.9-3.8-6.1,1.2-6.1,3.8-6.1ZM111.7,210.7c0,3,.6,4.2,1.9,4.2s1.9-1.2,1.9-4.2-.6-4.2-1.9-4.2-1.9,1.2-1.9,4.2ZM107.5,218.3c0,.3-.2.5-.4.5h-1.1c-.3,0-.4-.2-.4-.5v-14.1c0-.3.2-.5.4-.5h1.1c.3,0,.4.2.4.5v14.1ZM90.6,211.1l.3-.9c0-.3.2-.4.5-.3,1.1.4,2.5.6,3.3.6,1.2,0,1.7-.5,1.7-1.5s-.1-2.4-.4-4.3c0-.3.1-.5.5-.5h1c.3,0,.4.1.5.4.3,1.3.4,2.7.4,4.2,0,2.3-1.3,3.5-3.7,3.5s-2.5-.2-3.7-.6c-.3-.1-.4-.3-.4-.5ZM87,210.2c0-.4-.2-.5-.6-.5h-1.1c-.3,0-.4-.1-.4-.4v-.9c0-.3.1-.4.4-.4h1c.3,0,.6.1.7.3v-4c0-.3.2-.5.4-.5h1.1c.3,0,.4.2.4.5v9.6c0,.3-.2.5-.4.5h-1.1c-.3,0-.4-.2-.4-.5v-3.6ZM97,215.9c0,2-1.4,3.2-3.7,3.2s-4.7-.1-6.4-.3c-.3,0-.4-.2-.4-.4v-.9c0-.3.2-.4.5-.4,2,.2,3.5.3,6.4.3s1.7-.5,1.7-1.6,0-1.3-.1-1.7.2-.5.4-.5h1c.3,0,.4.2.5.4,0,.4.1,1.2.1,1.9ZM79.5,209.5c.4,0,.7-.2.7-.5v-2.6c0-.3-.2-.4-.4-.4h-4.5c-1.1,0-1.4.3-1.4,1.3,0,1.4.7,2.2,1.7,2.2h3.9ZM71.1,214.4c-.3,0-.4-.2-.4-.5v-.9c0-.3.2-.4.5-.4,1.3.2,3.6.3,6,.3s4.3-.1,5.9-.3c.3,0,.5.1.5.4v.9c0,.3-.1.4-.4.5-1.2.2-3.6.3-5.5.3.3.1.4.4.4.7v2.3c0,.3-.2.5-.4.5h-1.1c-.3,0-.4-.2-.4-.5v-2.6c0-.4-.2-.5-.6-.5-1.5,0-3.3-.1-4.4-.3ZM71.9,206.4c0-1.5.7-2.2,2.5-2.2h6.9c.5,0,.8.3.8.8v4.8c0,.9-.7,1.5-1.8,1.5h-8.2c-.3,0-.4-.1-.4-.4v-.9c0-.3.1-.4.4-.4h1.4c-1-.5-1.6-1.7-1.6-3.1ZM63.3,212.3c0,1.5.7,2.3,1.8,2.3s1.8-.8,1.8-2.3-.6-2.3-1.8-2.3-1.8.8-1.8,2.3ZM65,208.1c2.3,0,3.7,1.5,3.7,4.2s-1.4,4.2-3.7,4.2-3.7-1.5-3.7-4.2,1.4-4.2,3.7-4.2ZM57.4,212.1c0-.4-.2-.5-.6-.5h-1.1c-.3,0-.4-.1-.4-.4v-1c0-.3.1-.4.4-.4h1c.3,0,.6.1.7.3v-5.8c0-.3.2-.5.4-.5h1.1c.3,0,.4.2.4.5v14.1c0,.3-.2.5-.4.5h-1.1c-.3,0-.4-.2-.4-.5v-6.2ZM64,204.8v-1.1c0-.3.1-.4.4-.4h1.1c.3,0,.4.1.4.4v.9c0,.2-.1.4-.3.5h3.1c.3,0,.4.1.4.4v1c0,.3-.1.4-.4.4h-7.6c-.3,0-.4-.1-.4-.4v-1c0-.3.1-.4.4-.4h2.4c.3,0,.4,0,.4-.3ZM52.5,207.3c0,2-1.2,3.1-3.5,3.1s-5-.1-6.7-.3c-.3,0-.4-.2-.4-.4v-.9c0-.3.2-.4.5-.4,2,.2,3.8.3,6.4.3s1.6-.4,1.6-1.4,0-1.9-.1-2.6c0-.3.1-.5.4-.5h1c.3,0,.5.2.5.4,0,.8.1,2.1.1,2.7ZM52.8,216c0,2-1.3,3.1-3.6,3.1s-5.3-.1-7-.3c-.3,0-.4-.2-.4-.4v-.9c0-.3.2-.4.5-.4,2,.2,3.9.3,7,.3s1.6-.4,1.6-1.4,0-.8-.1-1.2c0-.3.1-.5.4-.5h1c.3,0,.5.2.5.4,0,.3.1.8.1,1.3ZM53.9,211.8v.9c0,.3-.1.4-.4.5-1,.1-2.9.2-6,.2-2.4,0-4.8,0-6-.2-.3,0-.4-.2-.4-.5v-.9c0-.3.2-.4.5-.4,1.3.1,3.2.2,6,.2s4.4,0,5.9-.2c.3,0,.5.1.5.4ZM320.4,244.5c-.3,0-.4-.1-.4-.4v-1c0-.3.1-.4.4-.5,1.4-.2,2.6-1.9,2.6-3.9v-5.5c0-.3.2-.5.4-.5h1.1c.3,0,.4.2.4.5v5.5c0,2,1.2,3.7,2.6,3.9.3,0,.4.2.4.5v1c0,.3-.1.4-.4.4-1.6-.2-3.1-1.5-3.6-3.1-.4,1.6-1.9,2.9-3.6,3.1ZM318,246.3c0,.3-.2.5-.4.5h-1.1c-.3,0-.4-.2-.4-.5v-14.1c0-.3.2-.5.4-.5h1.1c.3,0,.4.2.4.5v14.1ZM300.8,231.7h1c.3,0,.4.1.4.4v5.5s1,0,1,0c.2,0,.5.1.6.3v-5.7c0-.3.1-.4.4-.4h1c.3,0,.4.1.4.4v14c0,.3-.1.4-.4.4h-1c-.3,0-.4-.1-.4-.4v-6.4c0-.3-.1-.5-.5-.5h-1s0,6.8,0,6.8c0,.3-.1.4-.4.4h-1c-.3,0-.4-.1-.4-.4v-14.2c0-.3.1-.4.4-.4ZM309.4,234.7c-.6,0-1.1,0-1.6.2-.3,0-.4-.1-.4-.4v-1c0-.3,0-.4.4-.4.5-.1,1-.1,1.8-.1,3,0,4.3,1.9,4.3,5.9s-1.4,5.9-4.2,5.9-1.8-.2-2.5-.5c-.3-.1-.4-.3-.3-.5l.2-1c0-.2.2-.3.3-.3s.1,0,.2,0c.7.3,1.4.4,2,.4,1.6,0,2.4-1.3,2.4-4s-.7-4.1-2.6-4.1ZM290.3,239.5c-.2,0-.5-.1-.6-.3v7.2c0,.3-.1.4-.4.4h-1c-.3,0-.4-.1-.4-.4v-14c0-.3.1-.4.4-.4h1c.3,0,.4.1.4.4v4.8c0,.3.1.5.5.5h1.4c.2-3.4,1.3-5,3.4-5s3.4,1.9,3.4,6.1-1.1,6.1-3.4,6.1-3.2-1.7-3.4-5.3h-1.3ZM285.3,231.7h1c.3,0,.4.1.4.4v14.2c0,.3-.1.4-.4.4h-1c-.3,0-.4-.1-.4-.4v-14.2c0-.3.1-.4.4-.4ZM293.5,238.7c0,3,.5,4.2,1.5,4.2s1.5-1.3,1.5-4.2-.5-4.2-1.5-4.2-1.5,1.2-1.5,4.2ZM275.1,242.6c.4,0,.7-.2.7-.5v-7c0-.3-.2-.4-.4-.4h-1.4c-1.3,0-1.7.9-1.7,3.8s.7,4.2,1.9,4.2h1ZM276.9,232.8c.5,0,.8.3.8.8v9.4c0,.9-.7,1.5-1.8,1.5h-5.2c-.3,0-.4-.1-.4-.4v-1c0-.3.1-.4.4-.4h1.1c-1-1.1-1.6-3.1-1.6-5.6s.8-4.2,3.2-4.2h3.5ZM266.4,240.1c0-.4-.2-.5-.6-.5h-1.1c-.3,0-.4-.1-.4-.4v-1c0-.3.1-.4.4-.4h1c.3,0,.6.1.7.3v-5.8c0-.3.2-.5.4-.5h1.1c.3,0,.4.2.4.5v14.1c0,.3-.2.5-.4.5h-1.1c-.3,0-.4-.2-.4-.5v-6.2ZM259.7,234.9c0-.8-.9-1.2-3.3-1.2s-3.3.3-3.3,1.2.9,1.2,3.3,1.2,3.3-.3,3.3-1.2ZM259.2,245.1c.4,0,.6-.2.6-.5v-1.2c0-.3-.1-.4-.4-.4h-5.5c-.6,0-.9.3-.9.8s.6,1.3,1.3,1.3h4.9ZM262.9,238.9v.9c0,.3-.1.4-.4.5-1,.1-2.9.2-6,.2-2.4,0-4.8,0-6-.2-.3,0-.4-.2-.4-.5v-.9c0-.3.2-.4.5-.4,1.3.1,3.2.2,6,.2s4.4,0,5.9-.2c.3,0,.5.1.5.4ZM256.4,237.8c-3.7,0-5.3-.9-5.3-2.9s1.6-2.9,5.3-2.9,5.3.9,5.3,2.9-1.6,2.9-5.3,2.9ZM251,243c0-1,.7-1.7,1.9-1.7h8c.5,0,.7.3.7.8v3.4c0,.9-.6,1.5-1.7,1.5h-8.8c-.3,0-.4-.1-.4-.4v-.9c0-.3.1-.4.4-.4h1.1c-.7-.4-1.2-1.3-1.2-2.1ZM241.6,233.5c-2.6,0-3.3.3-3.3,1.1s.8,1.1,3.3,1.1,3.3-.3,3.3-1.1-.8-1.1-3.3-1.1ZM235.9,246.3v-.8c0-.3.2-.4.5-.3,1.3.2,3.2.3,4.5.3,3.5,0,4.1,0,4.1-.6s-.4-.6-3.2-.6-4,0-5,0c-.2,0-.4-.1-.4-.4v-.7c0-.3.1-.4.4-.4h.6c-.7-.2-1.1-.8-1.1-1.4s.4-1.2,1.6-1.2c2.2,0,5.8,0,8.4.2.3,0,.4.1.4.4v.8c0,.3-.1.4-.4.4-1.9-.1-5.5-.2-7.2-.2s-.8.2-.8.5.2.5.9.5c.9,0,1.9,0,2.8,0,4,0,5.1.5,5.1,2.1s-1.2,2.2-6.1,2.2-3.3-.1-4.6-.3c-.3,0-.4-.2-.3-.4ZM241.7,237.9c2,0,4.4,0,6-.2.3,0,.4.1.4.4v.8c0,.3-.1.4-.4.4-1,.1-2.9.2-6,.2-2.4,0-4.8,0-6.1-.2-.3,0-.4-.2-.4-.4v-.8c0-.3.2-.4.4-.4,1.3.1,3.2.2,6,.2ZM241.6,237.2c-3.8,0-5.3-.7-5.3-2.6s1.5-2.6,5.3-2.6,5.3.7,5.3,2.6-1.5,2.6-5.3,2.6ZM223.8,232.8v-1.1c0-.3.1-.4.4-.4h1.1c.3,0,.4.1.4.4v.9c0,.2-.1.4-.3.5h2.8c.3,0,.4.1.4.4v1c0,.3-.1.4-.4.4h-2.5s0,3.7,0,3.7c0,2,1.2,3.7,2.6,3.9.3,0,.4.2.4.5v1c0,.3-.1.4-.4.4-1.6-.2-3.1-1.5-3.6-3.1-.4,1.6-1.9,2.9-3.6,3.1-.3,0-.4-.1-.4-.4v-1c0-.3.1-.4.4-.5,1.4-.2,2.6-1.9,2.6-3.9v-3.7s-2.5,0-2.5,0c-.3,0-.4-.1-.4-.4v-1c0-.3.1-.4.4-.4h2.1c.3,0,.4,0,.4-.3ZM218.8,246.3c0,.3-.2.5-.4.5h-1.1c-.3,0-.4-.2-.4-.5v-14.1c0-.3.2-.5.4-.5h1.1c.3,0,.4.2.4.5v14.1ZM212,243.3v2.4c0,.3-.2.5-.4.5h-1.1c-.3,0-.4-.2-.4-.5v-2.6c0-.4-.2-.5-.6-.5-1,0-2.4,0-3.8,0,.3.1.4.4.4.7v2.4c0,.3-.2.5-.4.5h-1.1c-.3,0-.4-.2-.4-.5v-2.7c0-.4-.2-.5-.6-.5-.3,0-1.1-.1-1.4-.2-.3,0-.4-.2-.4-.5v-.9c0-.3.2-.4.5-.4,1.3.2,3.6.3,6,.3s4.3-.1,5.9-.3c.3,0,.5.1.5.4v.9c0,.3-.1.4-.4.5-.7,0-1.6.2-2.5.2.3.1.5.4.5.7ZM211.2,235.7c0-1.3-1-1.9-3.3-1.9s-3.3.6-3.3,1.9,1.1,1.9,3.3,1.9,3.3-.6,3.3-1.9ZM207.9,239.4c-3.5,0-5.3-1.3-5.3-3.7s1.8-3.7,5.3-3.7,5.3,1.3,5.3,3.7-1.8,3.7-5.3,3.7ZM186.9,231.7h1c.3,0,.4.1.4.4v5.5s1,0,1,0c.2,0,.5.1.6.3v-5.7c0-.3.1-.4.4-.4h1c.3,0,.4.1.4.4v14c0,.3-.1.4-.4.4h-1c-.3,0-.4-.1-.4-.4v-6.4c0-.3-.1-.5-.5-.5h-1s0,6.8,0,6.8c0,.3-.1.4-.4.4h-1c-.3,0-.4-.1-.4-.4v-14.2c0-.3.1-.4.4-.4ZM196.7,236.1c2.1,0,3.2,1.5,3.2,4.2s-1.1,4.2-3.2,4.2-3.2-1.5-3.2-4.2,1.1-4.2,3.2-4.2ZM195.7,232.8v-1.1c0-.3.1-.4.4-.4h1c.3,0,.4.1.4.4v.9c0,.2-.1.4-.3.5h2.6c.3,0,.4.1.4.4v1c0,.3-.1.4-.4.4h-6.6c-.3,0-.4-.1-.4-.4v-1c0-.3.1-.4.4-.4h2c.3,0,.4,0,.4-.3ZM195.3,240.3c0,1.6.4,2.3,1.3,2.3s1.3-.8,1.3-2.3-.4-2.3-1.3-2.3-1.3.8-1.3,2.3ZM177.4,232.1c.3,0,.4.1.4.4v1c0,.3-.1.4-.4.4h-3.6c0,1.9,1.6,3.3,3.8,3.3s.4.1.4.4v1.1c0,.4-.3.4-.6.4-2,0-3.9-1.1-4.6-2.7-.7,1.6-2.6,2.7-4.6,2.7s-.6,0-.6-.4v-1.1c0-.3.1-.4.4-.4,2.3,0,3.8-1.4,3.8-3.3h-3.6c-.3,0-.4-.1-.4-.4v-1c0-.3.1-.4.4-.4h9.1ZM166.9,242.4c-.3,0-.4-.2-.4-.5v-.9c0-.3.2-.4.5-.4,1.3.2,3.6.3,6,.3s4.3-.1,5.9-.3c.3,0,.5.1.5.4v.9c0,.3-.1.4-.4.5-1.2.2-3.6.3-5.5.3.3.1.4.4.4.7v2.3c0,.3-.2.5-.4.5h-1.1c-.3,0-.4-.2-.4-.5v-2.6c0-.4-.2-.5-.6-.5-1.5,0-3.3-.1-4.4-.3ZM158.1,245.5c-2.7,0-4.9-.1-6-.3-.3,0-.4-.2-.4-.5v-.9c0-.3.2-.4.5-.4,1.1.1,3.4.3,5.2.3s.6-.2.6-.5v-3.9c0-.3.2-.5.4-.5h1.1c.3,0,.4.2.4.5v3.7c0,.3-.2.6-.4.7,1.4,0,3.1-.2,4.6-.3.3,0,.5.1.5.4v.9c0,.3-.1.4-.4.5-1.3.2-3.3.3-6,.3ZM157.3,234.5c-1.8,0-2.4.7-2.4,2.6s.1,2.3.3,3.2c0,.3,0,.4-.3.4l-1.2.2c-.3,0-.4,0-.5-.3-.2-1.2-.3-2.2-.3-3.9,0-2.7,1.4-4.1,4-4.1s3.9,0,5.8.3c.3,0,.4.2.4.4v1c0,.3-.2.4-.4.4-1.7-.2-3.4-.3-5.4-.3ZM137.5,247.1c-3.9,0-5.8-1.1-5.8-3.2s1.9-3.2,5.8-3.2,5.8,1.1,5.8,3.2-1.9,3.2-5.8,3.2ZM132.4,231.7h1c.3,0,.4.1.4.4v2.4s.9,0,.9,0c.2,0,.5.1.6.3v-2.6c0-.3.1-.4.4-.4h1c.3,0,.4.1.4.4v6.7c0,.3-.1.4-.4.4h-1c-.3,0-.4-.1-.4-.4v-2.1c0-.3-.1-.5-.5-.5h-.9s0,2.9,0,2.9c0,.3-.1.4-.4.4h-1c-.3,0-.4-.1-.4-.4v-7.2c0-.3.1-.4.4-.4ZM138.8,239.4c-.3,0-.4-.2-.4-.4v-.9c0-.3.1-.4.4-.4,1.3,0,2.2-1.1,2.2-2.7v-2.3c0-.3.1-.4.4-.4h1c.3,0,.4.1.4.4v2.3c0,1.6.9,2.7,2.2,2.7s.4.1.4.4v.9c0,.3-.1.4-.4.4-1.3,0-2.7-.9-3.1-2.1-.5,1.3-1.8,2.1-3.1,2.1ZM137.5,242.4c-2.8,0-3.9.6-3.9,1.4s1,1.4,3.9,1.4,3.9-.6,3.9-1.4-1-1.4-3.9-1.4ZM124.3,239.7h-1.1c-.3,0-.4-.1-.5-.4-.3-1.2-.6-3-.6-4,0-2.3.9-3.2,3.2-3.2s2.6.1,3.9.3c.3,0,.4.2.4.5v1c0,.3-.2.5-.4.4-1.1-.2-1.9-.3-3.8-.3s-1.3.4-1.3,1.3.3,2.8.6,3.9c0,.3-.1.5-.4.5ZM118.3,243.8c0-1.9,1-2.7,3.3-2.7s4.6.1,6.4.3c.3,0,.4.2.4.4v.9c0,.3-.1.4-.4.4-2.1-.2-4-.3-6.2-.3s-1.6.3-1.6,1.4,0,1.6,0,2.2c0,.3-.2.5-.4.5h-1c-.3,0-.5-.2-.5-.4,0-.6,0-1.5,0-2.7ZM118.3,237c0-.4-.2-.5-.6-.5h-1.1c-.3,0-.4-.1-.4-.4v-.9c0-.3.1-.4.4-.4h1c.3,0,.6.1.7.3v-2.8c0-.3.2-.5.4-.5h1.1c.3,0,.4.2.4.5v7.2c0,.3-.2.5-.4.5h-1.1c-.3,0-.4-.2-.4-.5v-2.4ZM108.2,233.5c-2.6,0-3.3.3-3.3,1.1s.8,1.1,3.3,1.1,3.3-.3,3.3-1.1-.8-1.1-3.3-1.1ZM102.6,246.3v-.8c0-.3.2-.4.5-.3,1.3.2,3.2.3,4.5.3,3.5,0,4.1,0,4.1-.6s-.4-.6-3.2-.6-4,0-5,0c-.2,0-.4-.1-.4-.4v-.7c0-.3.1-.4.4-.4h.6c-.7-.2-1.1-.8-1.1-1.4s.4-1.2,1.6-1.2c2.2,0,5.8,0,8.4.2.3,0,.4.1.4.4v.8c0,.3-.1.4-.4.4-1.9-.1-5.5-.2-7.2-.2s-.8.2-.8.5.2.5.9.5c.9,0,1.9,0,2.8,0,4,0,5.1.5,5.1,2.1s-1.2,2.2-6.1,2.2-3.3-.1-4.6-.3c-.3,0-.4-.2-.3-.4ZM108.4,237.9c2,0,4.4,0,6-.2.3,0,.4.1.4.4v.8c0,.3-.1.4-.4.4-1,.1-2.9.2-6,.2-2.4,0-4.8,0-6.1-.2-.3,0-.4-.2-.4-.4v-.8c0-.3.2-.4.4-.4,1.3.1,3.2.2,6,.2ZM108.2,237.2c-3.8,0-5.3-.7-5.3-2.6s1.5-2.6,5.3-2.6,5.3.7,5.3,2.6-1.5,2.6-5.3,2.6ZM88.8,247.1c-3.7,0-5.6-1.1-5.6-3.2s1.9-3.2,5.6-3.2,5.6,1.1,5.6,3.2-1.9,3.2-5.6,3.2ZM92.5,233.9v.5c0,1.8,1.1,3.2,2.6,3.2s.4.1.4.4v.9c0,.3-.1.4-.4.4-1.8,0-3.1-1.1-3.6-2.4-.5,1.3-1.8,2.4-3.6,2.4s-.4-.1-.4-.4v-.9c0-.3.1-.4.4-.4,1.5,0,2.6-1.3,2.6-3.2v-.5s-2.5,0-2.5,0c-.3,0-.4-.1-.4-.4v-.9c0-.3.1-.4.4-.4h7c.3,0,.4.1.4.4v.9c0,.3-.1.4-.4.4h-2.5ZM85.5,234.3c0,.4.2.5.6.5h1.3c.3,0,.4.1.4.4v.9c0,.3-.1.4-.4.4h-1.2c-.3,0-.6-.1-.7-.3v3.1c0,.3-.2.5-.4.5h-1.1c-.3,0-.4-.2-.4-.5v-7.2c0-.3.2-.5.4-.5h1.1c.3,0,.4.2.4.5v2.1ZM88.8,242.4c-2.7,0-3.6.6-3.6,1.4s.9,1.4,3.6,1.4,3.6-.6,3.6-1.4-.9-1.4-3.6-1.4ZM77.4,245.8c-1.6,0-3,0-4.2-.2-.3,0-.4-.2-.4-.5v-1c0-.3.2-.4.4-.4.6.1,1.4.2,2.6.2s.6-.2.6-.5v-1.8c-1.8-.2-2.8-1.2-2.8-2.9s1.3-2.9,3.7-2.9,3.7,1,3.7,2.9-.9,2.6-2.6,2.9v1.6c0,.3-.2.6-.4.7,1.2,0,2.4-.1,3.3-.3.3,0,.5,0,.5.4v1c0,.3-.1.4-.4.4-1.1.2-2.2.3-3.9.3ZM69.8,240.1c0-.4-.2-.5-.6-.5h-1.1c-.3,0-.4-.1-.4-.4v-1c0-.3.1-.4.4-.4h1c.3,0,.6.1.7.3v-5.8c0-.3.2-.5.4-.5h1.1c.3,0,.4.2.4.5v14.1c0,.3-.2.5-.4.5h-1.1c-.3,0-.4-.2-.4-.5v-6.2ZM76.3,232.7v-.8c0-.3.1-.4.4-.4h1.1c.3,0,.4.1.4.4v.6c0,.2-.1.4-.3.5h3.1c.3,0,.4.1.4.4v1c0,.3-.1.4-.4.4h-7.6c-.3,0-.4-.1-.4-.4v-1c0-.3.1-.4.4-.4h2.4c.3,0,.4,0,.4-.3ZM77.3,237.6c-1.2,0-1.8.4-1.8,1.1s.6,1.2,1.8,1.2,1.8-.4,1.8-1.2-.6-1.1-1.8-1.1ZM53.6,231.7h1c.3,0,.4.1.4.4v5.5s1,0,1,0c.2,0,.5.1.6.3v-5.7c0-.3.1-.4.4-.4h1c.3,0,.4.1.4.4v14c0,.3-.1.4-.4.4h-1c-.3,0-.4-.1-.4-.4v-6.4c0-.3-.1-.5-.5-.5h-1s0,6.8,0,6.8c0,.3-.1.4-.4.4h-1c-.3,0-.4-.1-.4-.4v-14.2c0-.3.1-.4.4-.4ZM63.3,236.1c2.1,0,3.2,1.5,3.2,4.2s-1.1,4.2-3.2,4.2-3.2-1.5-3.2-4.2,1.1-4.2,3.2-4.2ZM62.4,232.8v-1.1c0-.3.1-.4.4-.4h1c.3,0,.4.1.4.4v.9c0,.2-.1.4-.3.5h2.6c.3,0,.4.1.4.4v1c0,.3-.1.4-.4.4h-6.6c-.3,0-.4-.1-.4-.4v-1c0-.3.1-.4.4-.4h2c.3,0,.4,0,.4-.3ZM62,240.3c0,1.6.4,2.3,1.3,2.3s1.3-.8,1.3-2.3-.4-2.3-1.3-2.3-1.3.8-1.3,2.3ZM44.1,232.1c.3,0,.4.1.4.4v1c0,.3-.1.4-.4.4h-3.6c0,1.9,1.6,3.3,3.8,3.3s.4.1.4.4v1.1c0,.4-.3.4-.6.4-2,0-3.9-1.1-4.6-2.7-.7,1.6-2.6,2.7-4.6,2.7s-.6,0-.6-.4v-1.1c0-.3.1-.4.4-.4,2.3,0,3.8-1.4,3.8-3.3h-3.6c-.3,0-.4-.1-.4-.4v-1c0-.3.1-.4.4-.4h9.1ZM33.6,242.4c-.3,0-.4-.2-.4-.5v-.9c0-.3.2-.4.5-.4,1.3.2,3.6.3,6,.3s4.3-.1,5.9-.3c.3,0,.5.1.5.4v.9c0,.3-.1.4-.4.5-1.2.2-3.6.3-5.5.3.3.1.4.4.4.7v2.3c0,.3-.2.5-.4.5h-1.1c-.3,0-.4-.2-.4-.5v-2.6c0-.4-.2-.5-.6-.5-1.5,0-3.3-.1-4.4-.3ZM326.3,263.3c0,2-1.2,3.1-3.5,3.1s-5-.1-6.7-.3c-.3,0-.4-.2-.4-.4v-.9c0-.3.2-.4.5-.4,2,.2,3.8.3,6.4.3s1.6-.4,1.6-1.4,0-1.9-.1-2.6c0-.3.1-.5.4-.5h1c.3,0,.5.2.5.4,0,.8.1,2.1.1,2.7ZM326.5,272c0,2-1.3,3.1-3.6,3.1s-5.3-.1-7-.3c-.3,0-.4-.2-.4-.4v-.9c0-.3.2-.4.5-.4,2,.2,3.9.3,7,.3s1.6-.4,1.6-1.4,0-.8-.1-1.2c0-.3.1-.5.4-.5h1c.3,0,.5.2.5.4,0,.3.1.8.1,1.3ZM327.7,267.8v.9c0,.3-.1.4-.4.5-1,.1-2.9.2-6,.2-2.4,0-4.8,0-6-.2-.3,0-.4-.2-.4-.5v-.9c0-.3.2-.4.5-.4,1.3.1,3.2.2,6,.2s4.4,0,5.9-.2c.3,0,.5.1.5.4ZM306.2,260.1c.3,0,.4.1.4.4v.9c0,.3-.1.4-.4.4h-3.6s0,.2,0,.2c0,1.2,1.5,2.4,3.8,2.4s.4.1.4.4v1c0,.3-.1.4-.4.4-2.1.1-4.1-1-4.8-2.3-.7,1.3-2.7,2.4-4.8,2.3-.3,0-.4-.1-.4-.4v-1c0-.3.1-.4.4-.4,2.3,0,3.8-1.2,3.8-2.4v-.2s-3.6,0-3.6,0c-.3,0-.4-.1-.4-.4v-.9c0-.3.1-.4.4-.4h9.1ZM301.7,269.4c-2.4,0-4.8,0-6-.2s-.4-.2-.4-.5v-.9c0-.3.2-.4.5-.4,1.2.1,3.2.2,4.6.1.3,0,.4-.2.4-.4v-1.1c0-.3.2-.5.4-.5h1.1c.3,0,.4.2.4.5v1.1c0,.2-.1.4-.3.5,1.7,0,3.9,0,5.2-.2.3,0,.5.1.5.4v.9c0,.3-.1.4-.4.5-1,.1-2.9.2-6,.2ZM307,272c0,2-1.3,3.1-3.6,3.1s-5.3-.1-7-.3c-.3,0-.4-.2-.4-.4v-.9c0-.3.2-.4.5-.4,2,.2,3.9.3,7,.3s1.6-.4,1.6-1.4,0-.8-.1-1.2c0-.3.1-.5.4-.5h1c.3,0,.5.2.5.4,0,.3.1.8.1,1.3ZM280.6,259.7h1c.3,0,.4.1.4.4v5.5s1,0,1,0c.2,0,.5.1.6.3v-5.7c0-.3.1-.4.4-.4h1c.3,0,.4.1.4.4v14c0,.3-.1.4-.4.4h-1c-.3,0-.4-.1-.4-.4v-6.4c0-.3-.1-.5-.5-.5h-1s0,6.8,0,6.8c0,.3-.1.4-.4.4h-1c-.3,0-.4-.1-.4-.4v-14.2c0-.3.1-.4.4-.4ZM291.1,262.7v4.5c0,2.1.9,3.2,2.2,3.4.3,0,.4.1.4.4v1c0,.3-.1.5-.4.4-1.5-.2-2.7-1.1-3.1-2.5-.5,1.4-1.7,2.3-3.2,2.5-.3,0-.4-.1-.4-.4v-1c0-.3.1-.4.4-.4,1.3-.2,2.2-1.4,2.2-3.4v-4.5s-2.1,0-2.1,0c-.3,0-.4-.1-.4-.4v-1c0-.3.1-.4.4-.4h6.1c.3,0,.4.1.4.4v1c0,.3-.1.4-.4.4h-2.1ZM276.4,263.3c0,2-1.2,3.1-3.5,3.1s-5-.1-6.7-.3c-.3,0-.4-.2-.4-.4v-.9c0-.3.2-.4.5-.4,2,.2,3.8.3,6.4.3s1.6-.4,1.6-1.4,0-1.9-.1-2.6c0-.3.1-.5.4-.5h1c.3,0,.5.2.5.4,0,.8.1,2.1.1,2.7ZM276.6,272c0,2-1.3,3.1-3.6,3.1s-5.3-.1-7-.3c-.3,0-.4-.2-.4-.4v-.9c0-.3.2-.4.5-.4,2,.2,3.9.3,7,.3s1.6-.4,1.6-1.4,0-.8-.1-1.2c0-.3.1-.5.4-.5h1c.3,0,.5.2.5.4,0,.3.1.8.1,1.3ZM277.8,267.8v.9c0,.3-.1.4-.4.5-1,.1-2.9.2-6,.2-2.4,0-4.8,0-6-.2-.3,0-.4-.2-.4-.5v-.9c0-.3.2-.4.5-.4,1.3.1,3.2.2,6,.2s4.4,0,5.9-.2c.3,0,.5.1.5.4ZM251,262.5c-1.8,0-2.4.7-2.4,2.6s.1,2.3.3,3.2c0,.3,0,.4-.3.4l-1.2.2c-.3,0-.4,0-.5-.3-.2-1.2-.3-2.2-.3-3.9,0-2.7,1.4-4.1,4-4.1s3.9,0,5.8.3c.3,0,.4.2.4.4v1c0,.3-.2.4-.4.4-1.7-.2-3.4-.3-5.4-.3ZM258.2,271.8v.9c0,.3-.1.4-.4.5-1.3.2-3.3.3-6,.3s-4.9-.1-6-.3c-.3,0-.4-.2-.4-.5v-.9c0-.3.2-.4.5-.4,1.3.2,3.6.3,6,.3s4.3-.1,5.9-.3c.3,0,.5.1.5.4ZM235.9,262.7v4c0,2,1.2,3.7,2.6,3.9.3,0,.4.2.4.5v1c0,.3-.1.4-.4.4-1.6-.2-3.1-1.5-3.6-3.1-.4,1.6-1.9,2.9-3.6,3.1-.3,0-.4-.1-.4-.4v-1c0-.3.1-.4.4-.5,1.4-.2,2.6-1.9,2.6-3.9v-4s-2.5,0-2.5,0c-.3,0-.4-.1-.4-.4v-1c0-.3.1-.4.4-.4h7c.3,0,.4.1.4.4v1c0,.3-.1.4-.4.4h-2.5ZM227.3,268.1c0-.4-.2-.5-.6-.5h-1.1c-.3,0-.4-.1-.4-.4v-1c0-.3.1-.4.4-.4h1c.3,0,.6.1.7.3v-5.8c0-.3.2-.5.4-.5h1.1c.3,0,.4.2.4.5v14.1c0,.3-.2.5-.4.5h-1.1c-.3,0-.4-.2-.4-.5v-6.2ZM220.2,259.3h1c.3,0,.4.1.4.4v.9c0,.2-.1.4-.3.5h2.4c.3,0,.4.1.4.4v1c0,.3-.1.4-.4.4h-2.1s0,4.2,0,4.2c0,2.1.9,3.2,2.2,3.4.3,0,.4.1.4.4v1c0,.3-.1.5-.4.4-1.5-.2-2.7-1.1-3.1-2.5-.5,1.4-1.7,2.3-3.2,2.5-.3,0-.4-.1-.4-.4v-1c0-.3.1-.4.4-.4,1.3-.2,2.2-1.4,2.2-3.4v-4.2s-2.1,0-2.1,0c-.3,0-.4-.1-.4-.4v-1c0-.3.1-.4.4-.4h1.8c.3,0,.4,0,.4-.3v-1.1c0-.3.1-.4.4-.4ZM218,266.2v1c0,.3-.1.4-.4.4h-1.5c-.2,0-.5-.1-.6-.3v7c0,.3-.1.4-.4.4h-1c-.3,0-.4-.1-.4-.4v-14c0-.3.1-.4.4-.4h1c.3,0,.4.1.4.4v5c0,.3.1.5.5.5h1.5c.3,0,.4.1.4.4ZM211.1,259.7h1c.3,0,.4.1.4.4v14.2c0,.3-.1.4-.4.4h-1c-.3,0-.4-.1-.4-.4v-14.2c0-.3.1-.4.4-.4ZM201.9,273.5c-2.6,0-4.9-.1-6-.3-.3,0-.4-.2-.4-.5v-.9c0-.3.2-.4.5-.4,1.2.2,2.9.3,4.4.3s.6-.2.6-.5v-1.9s0,0,0,0c-1.2,0-2.9-.1-4.3-.3-.2,0-.4-.2-.3-.4l.2-1c0-.3.2-.4.4-.3,1.2.2,2.7.3,4,.3,3.3,0,4-.2,4-.9s-.7-.9-3.1-.9-3.1,0-4.6,0-.4-.2-.4-.4v-.9c0-.2.1-.4.4-.4h.8c-.8-.3-1.3-1-1.3-1.9s.6-1.6,1.9-1.6c.6,0,1.3,0,2,0,2,0,4.1.1,5.5.3.2,0,.3.2.3.4v1c0,.3-.2.4-.4.4-1.7-.2-4.2-.3-6.4-.3s-1.1.2-1.1.7.4.8,1.1.8h2.1c3.9,0,5,.6,5,2.6s-.9,2.5-4,2.7v1.8c0,.3-.2.6-.4.7,1.9,0,4.2-.2,5.4-.3.3,0,.5.1.5.4v.9c0,.3-.1.4-.4.5-1.3.2-3.3.3-6,.3ZM187.1,273.5c-2.6,0-4.9-.1-6-.3-.3,0-.4-.2-.4-.5v-.9c0-.3.2-.4.5-.4,1.2.2,2.9.3,4.4.3s.6-.2.6-.5v-2.1c-1,0-2.1-.1-3.6-.3-.3,0-.4-.2-.4-.4v-1c0-.3.2-.4.5-.4,1.5.2,3.1.3,4.5.3,2.7,0,3.5-.7,3.5-2.3s-.9-2.3-3.9-2.3-1.9,0-3.9.2c-.3,0-.4-.1-.4-.4v-1c0-.3.1-.4.4-.4,2.1-.1,2.9-.2,3.9-.2,4.4,0,5.9,1.5,5.9,4.2s-1.2,3.9-4.5,4.2v2c0,.3-.2.6-.4.7,1.9,0,4.2-.2,5.4-.3.3,0,.5.1.5.4v.9c0,.3-.1.4-.4.5-1.3.2-3.3.3-6,.3ZM170.3,273.1c.4,0,.7-.2.7-.5v-1.3c0-.3-.2-.4-.4-.4h-5.2c-.8,0-1.1.2-1.1.9s.7,1.4,1.5,1.4h4.6ZM172,265.4c0-.6-.5-.8-1.8-.8s-1.8.2-1.8.8.5.8,1.8.8,1.8-.2,1.8-.8ZM162.2,270.8c0-1.2.7-1.8,2.1-1.8h7.8c.5,0,.8.3.8.8v3.6c0,.9-.7,1.5-1.8,1.5h-8.8c-.3,0-.4-.1-.4-.4v-.9c0-.3.1-.4.4-.4h1.2c-.8-.4-1.4-1.3-1.4-2.3ZM170.3,267.9c-2.5,0-3.7-.9-3.7-2.5s1.2-2.5,3.7-2.5,3.7.9,3.7,2.5-1.2,2.5-3.7,2.5ZM169.3,260v-.6c0-.3.1-.4.4-.4h1.1c.3,0,.4.1.4.4v.4c0,.2-.1.4-.3.5h3.1c.3,0,.4.1.4.4v.9c0,.3-.1.4-.4.4h-7.6c-.3,0-.4-.1-.4-.4v-.9c0-.3.1-.4.4-.4h2.4c.3,0,.4,0,.4-.3ZM164.3,267.4c0,.3-.2.5-.4.5h-1.1c-.3,0-.4-.2-.4-.5v-7.2c0-.3.2-.5.4-.5h1.1c.3,0,.4.2.4.5v7.2ZM153.3,261.5c-2.6,0-3.3.3-3.3,1.1s.8,1.1,3.3,1.1,3.3-.3,3.3-1.1-.8-1.1-3.3-1.1ZM147.7,274.3v-.8c0-.3.2-.4.5-.3,1.3.2,3.2.3,4.5.3,3.5,0,4.1,0,4.1-.6s-.4-.6-3.2-.6-4,0-5,0c-.2,0-.4-.1-.4-.4v-.7c0-.3.1-.4.4-.4h.6c-.7-.2-1.1-.8-1.1-1.4s.4-1.2,1.6-1.2c2.2,0,5.8,0,8.4.2.3,0,.4.1.4.4v.8c0,.3-.1.4-.4.4-1.9-.1-5.5-.2-7.2-.2s-.8.2-.8.5.2.5.9.5c.9,0,1.9,0,2.8,0,4,0,5.1.5,5.1,2.1s-1.2,2.2-6.1,2.2-3.3-.1-4.6-.3c-.3,0-.4-.2-.3-.4ZM153.5,265.9c2,0,4.4,0,6-.2.3,0,.4.1.4.4v.8c0,.3-.1.4-.4.4-1,.1-2.9.2-6,.2-2.4,0-4.8,0-6.1-.2-.3,0-.4-.2-.4-.4v-.8c0-.3.2-.4.4-.4,1.3.1,3.2.2,6,.2ZM153.3,265.2c-3.8,0-5.3-.7-5.3-2.6s1.5-2.6,5.3-2.6,5.3.7,5.3,2.6-1.5,2.6-5.3,2.6ZM132.8,264.5c0-2.6,1-3.7,3.3-3.7s2.4.1,3.7.3c.3,0,.4.2.4.5v1c0,.3-.2.5-.4.4-1.1-.2-2.1-.3-3.3-.3s-1.7.5-1.7,2c0,2.5.2,4.9.6,7.4,0,.3-.1.5-.4.5h-1.1c-.3,0-.4-.1-.5-.4-.4-2.5-.6-4.9-.6-7.6ZM129,268.1c0-.4-.2-.5-.6-.5h-1.1c-.3,0-.4-.1-.4-.4v-1c0-.3.1-.4.4-.4h1c.3,0,.6.1.7.3v-5.8c0-.3.2-.5.4-.5h1.1c.3,0,.4.2.4.5v14.1c0,.3-.2.5-.4.5h-1.1c-.3,0-.4-.2-.4-.5v-6.2ZM122.8,261.9v1c0,1.9,1.1,3.3,2.6,3.3s.4.1.4.4v.9c0,.3-.1.4-.4.4-1.8,0-3.1-1.2-3.6-2.5-.5,1.3-1.8,2.5-3.6,2.5s-.4-.1-.4-.4v-.9c0-.3.1-.4.4-.4,1.5,0,2.6-1.4,2.6-3.3v-1s-2.5,0-2.5,0c-.3,0-.4-.1-.4-.4v-.9c0-.3.1-.4.4-.4h7c.3,0,.4.1.4.4v.9c0,.3-.1.4-.4.4h-2.5ZM124.2,271.9c0,2-1.4,3.2-3.7,3.2s-5-.1-6.7-.3c-.3,0-.4-.2-.4-.4v-.9c0-.3.2-.4.5-.4,2,.2,3.7.3,6.7.3s1.7-.5,1.7-1.6,0-1.3-.1-1.7c0-.3.2-.5.4-.5h1c.3,0,.4.2.5.4,0,.4.1,1.2.1,1.9ZM115.8,269.8c0,.3-.2.5-.4.5h-1.1c-.3,0-.4-.2-.4-.5v-9.6c0-.3.2-.5.4-.5h1.1c.3,0,.4.2.4.5v9.6ZM106.6,262.7c-.9,0-1.4,0-2.1.2-.3,0-.4-.1-.4-.4v-1c0-.3.1-.4.4-.4.6-.1,1.3-.1,2.3-.1,3.2,0,4.8,1.8,4.8,5.9,0,3.8-1.5,5.9-4.6,5.9s-2-.2-3.1-.7c-.3-.1-.4-.3-.4-.5l.3-1c0-.2.2-.4.3-.4s.1,0,.2,0c1,.4,1.9.6,2.6.6,1.9,0,2.8-1.3,2.8-4s-.8-4.1-2.9-4.1ZM100.1,268.1c0-.4-.2-.5-.6-.5h-1.1c-.3,0-.4-.1-.4-.4v-1c0-.3.1-.4.4-.4h1c.3,0,.6.1.7.3v-5.8c0-.3.2-.5.4-.5h1.1c.3,0,.4.2.4.5v14.1c0,.3-.2.5-.4.5h-1.1c-.3,0-.4-.2-.4-.5v-6.2ZM95.3,275.2c-.8,0-1.3-.5-1.3-1.2s.5-1.2,1.3-1.2,1.3.5,1.3,1.2-.5,1.2-1.3,1.2ZM83.5,265.5c.4,0,.7-.2.7-.5v-2.6c0-.3-.2-.4-.4-.4h-4.5c-1.1,0-1.4.3-1.4,1.3s.7,2.2,1.7,2.2h3.9ZM75.2,270.4c-.3,0-.4-.2-.4-.5v-.9c0-.3.2-.4.5-.4,1.3.2,3.6.3,6,.3s4.3-.1,5.9-.3c.3,0,.5.1.5.4v.9c0,.3-.1.4-.4.5-1.2.2-3.6.3-5.5.3.3.1.4.4.4.7v2.3c0,.3-.2.5-.4.5h-1.1c-.3,0-.4-.2-.4-.5v-2.6c0-.4-.2-.5-.6-.5-1.5,0-3.3-.1-4.4-.3ZM76,262.4c0-1.5.7-2.2,2.5-2.2h6.9c.5,0,.8.3.8.8v4.8c0,.9-.7,1.5-1.8,1.5h-8.2c-.3,0-.4-.1-.4-.4v-.9c0-.3.1-.4.4-.4h1.4c-1-.5-1.6-1.7-1.6-3.1ZM60.1,259.7h1c.3,0,.4.1.4.4v5.5s1,0,1,0c.2,0,.5.1.6.3v-5.7c0-.3.1-.4.4-.4h1c.3,0,.4.1.4.4v14c0,.3-.1.4-.4.4h-1c-.3,0-.4-.1-.4-.4v-6.4c0-.3-.1-.5-.5-.5h-1s0,6.8,0,6.8c0,.3-.1.4-.4.4h-1c-.3,0-.4-.1-.4-.4v-14.2c0-.3.1-.4.4-.4ZM69.8,264.1c2.1,0,3.2,1.5,3.2,4.2s-1.1,4.2-3.2,4.2-3.2-1.5-3.2-4.2,1.1-4.2,3.2-4.2ZM68.8,260.8v-1.1c0-.3.1-.4.4-.4h1c.3,0,.4.1.4.4v.9c0,.2-.1.4-.3.5h2.6c.3,0,.4.1.4.4v1c0,.3-.1.4-.4.4h-6.6c-.3,0-.4-.1-.4-.4v-1c0-.3.1-.4.4-.4h2c.3,0,.4,0,.4-.3ZM68.4,268.3c0,1.6.4,2.3,1.3,2.3s1.3-.8,1.3-2.3-.4-2.3-1.3-2.3-1.3.8-1.3,2.3ZM49.5,267.1l.2-.9c0-.2.2-.3.3-.3s.1,0,.2,0c.9.3,1.9.5,2.7.5,1.9,0,2.4-.2,2.4-.8s-.6-.8-2.7-.8-1.4,0-2.2,0c-.3,0-.4-.1-.4-.4v-.8c0-.3.1-.4.4-.4h.4c-.6-.3-.9-.9-.9-1.6,0-1.1.8-1.6,3-1.6,1.4,0,2.3,0,3.5.2.3,0,.4.2.4.4v.9c0,.3-.2.4-.4.4-1.3-.2-2.4-.2-3.1-.2-1,0-1.4.2-1.4.6s.4.7,1.3.7c3.1,0,4.1.7,4.1,2.5s-1.1,2.6-3.9,2.6-2.8-.3-3.6-.6c-.3-.1-.4-.3-.3-.5ZM45.6,260.2c0-.3.2-.5.4-.5h1.1c.3,0,.4.2.4.5v.6c0,.3.1.5.5.5h.8c.3,0,.4.1.4.4v.9c0,.3-.1.4-.4.4h-.6c-.3,0-.6-.1-.7-.3v1.6c0,.3.1.5.5.5h.8c.3,0,.4.1.4.4v.9c0,.3-.1.4-.4.4h-.6c-.3,0-.6-.1-.7-.3v1.4c0,.3-.2.5-.4.5h-1.1c-.3,0-.4-.2-.4-.5v-7.5ZM45.6,272.1c0-1.9,1-2.7,3.3-2.7s5,.1,6.8.3c.3,0,.4.2.4.4v.9c0,.3-.1.4-.4.4-2.1-.2-4.1-.3-6.6-.3s-1.6.3-1.6,1.4,0,1.3,0,1.8c0,.3-.2.5-.4.5h-1c-.3,0-.5-.2-.5-.4,0-.6,0-1.3,0-2.3ZM42,272c0,2-1.3,3.1-3.6,3.1s-5.3-.1-7-.3c-.3,0-.4-.2-.4-.4v-.9c0-.3.2-.4.5-.4,2,.2,3.9.3,7,.3s1.6-.4,1.6-1.4,0-.8-.1-1.2c0-.3.1-.5.4-.5h1c.3,0,.5.2.5.4,0,.3.1.8.1,1.3ZM43.1,267.8v.9c0,.3-.1.4-.4.5-1,.1-2.9.2-6,.2-2.4,0-4.8,0-6-.2-.3,0-.4-.2-.4-.5v-.9c0-.3.2-.4.5-.4,1.3.1,3.2.2,6,.2s4.4,0,5.9-.2c.3,0,.5.1.5.4ZM36.6,266.4c-3.7,0-5.3-1-5.3-3.2s1.6-3.2,5.3-3.2,5.3,1,5.3,3.2-1.6,3.2-5.3,3.2ZM39.9,263.2c0-1.1-.9-1.5-3.3-1.5s-3.3.4-3.3,1.5.9,1.5,3.3,1.5,3.3-.4,3.3-1.5ZM316.3,292.4l-.3-3.8c0-.3.2-.4.4-.4h1.1c.3,0,.4.2.4.4v.6h6.5s0-.6,0-.6c0-.3.2-.4.4-.4h1.1c.3,0,.5.2.4.4l-.3,3.8c0,1-.7,1.6-1.9,1.6h-2.1s0,.9,0,.9c0,.2-.1.4-.3.5,1.7,0,3.9,0,5.2-.2.3,0,.5.1.5.4v.9c0,.3-.1.4-.4.5-1,.1-2.9.2-6,.2-2.4,0-4.8,0-6-.2s-.4-.2-.4-.5v-.9c0-.3.2-.4.5-.4,1.2.1,3.2.2,4.6.1.3,0,.4-.2.4-.4v-.9s-2.1,0-2.1,0c-1.2,0-1.9-.6-1.9-1.6ZM315.8,300.5c0-2,.8-2.7,3.2-2.7s4.7.1,7,.3c.3,0,.4.2.4.4v.9c0,.3-.1.4-.4.4-2.3-.2-4.7-.3-6.9-.3s-1.4.3-1.4,1.4,0,1,0,1.4c0,.3-.2.5-.4.5h-1c-.3,0-.5-.2-.5-.4,0-.5-.1-1-.1-2ZM318.2,290.9v.6c0,.4.3.6.8.6h4.6c.5,0,.7-.2.8-.6v-.6c0,0-6.2,0-6.2,0ZM301.8,301.3l-.2-4.4c0-.3.2-.4.4-.4h1.1c.3,0,.4.2.4.4v.8h6.5s0-.8,0-.8c0-.3.2-.4.4-.4h1.1c.3,0,.5.2.4.4l-.2,4.4c0,1-.7,1.6-1.9,1.6h-6.1c-1.2,0-1.9-.6-1.9-1.6ZM310.2,289.9v.4c0,1.8,1.1,3.1,2.6,3.1s.4.1.4.4v.9c0,.3-.1.4-.4.4-1.8,0-3.1-1.1-3.6-2.4-.5,1.3-1.8,2.4-3.6,2.4s-.4-.1-.4-.4v-.9c0-.3.1-.4.4-.4,1.5,0,2.6-1.3,2.6-3.1v-.4s-2.5,0-2.5,0c-.3,0-.4-.1-.4-.4v-.9c0-.3.1-.4.4-.4h7c.3,0,.4.1.4.4v.9c0,.3-.1.4-.4.4h-2.5ZM301.6,292.7c0-.4-.2-.5-.6-.5h-1.1c-.3,0-.4-.1-.4-.4v-.9c0-.3.1-.4.4-.4h1c.3,0,.6.1.7.3v-2.5c0-.3.2-.5.4-.5h1.1c.3,0,.4.2.4.5v6.7c0,.3-.2.5-.4.5h-1.1c-.3,0-.4-.2-.4-.5v-2.1ZM303.7,299.4v1.1c0,.4.3.6.8.6h4.6c.5,0,.7-.2.8-.6v-1.1c0,0-6.2,0-6.2,0ZM296.2,293.8c0-.7-.5-1.1-1.8-1.1s-1.8.4-1.8,1.1.5,1.1,1.8,1.1,1.8-.4,1.8-1.1ZM294.4,296.6c-2.5,0-3.7-1-3.7-2.8s1.2-2.8,3.7-2.8,3.7,1,3.7,2.8-1.2,2.8-3.7,2.8ZM286.8,294.2c0-.4-.2-.5-.6-.5h-1.1c-.3,0-.4-.1-.4-.4v-.9c0-.3.1-.4.4-.4h1c.3,0,.6.1.7.3v-4c0-.3.2-.5.4-.5h1.1c.3,0,.4.2.4.5v9.6c0,.3-.2.5-.4.5h-1.1c-.3,0-.4-.2-.4-.5v-3.6ZM293.4,288v-.6c0-.3.1-.4.4-.4h1.1c.3,0,.4.1.4.4v.4c0,.2-.1.4-.3.5h3.1c.3,0,.4.1.4.4v.9c0,.3-.1.4-.4.4h-7.6c-.3,0-.4-.1-.4-.4v-.9c0-.3.1-.4.4-.4h2.4c.3,0,.4,0,.4-.3ZM296.8,299.9c0,2-1.4,3.2-3.7,3.2s-4.7-.1-6.4-.3c-.3,0-.4-.2-.4-.4v-.9c0-.3.2-.4.5-.4,2,.2,3.5.3,6.4.3s1.7-.5,1.7-1.6,0-.9-.1-1.3.2-.5.4-.5h1c.3,0,.4.2.5.4,0,.4.1.9.1,1.5ZM276.6,293.8c0-.7-.5-1.1-1.8-1.1s-1.8.4-1.8,1.1.5,1.1,1.8,1.1,1.8-.4,1.8-1.1ZM274.9,296.6c-2.5,0-3.7-1-3.7-2.8s1.2-2.8,3.7-2.8,3.7,1,3.7,2.8-1.2,2.8-3.7,2.8ZM266.9,288.2c0-.3.2-.5.4-.5h1.1c.3,0,.4.2.4.5v1.6c0,.3.1.5.5.5h.7c.3,0,.4.1.4.4v.9c0,.3-.1.4-.4.4h-.5c-.3,0-.6-.1-.7-.3v1.5c0,.3.1.5.5.5h.7c.3,0,.4.1.4.4v.9c0,.3-.1.4-.4.4h-.5c-.3,0-.6-.1-.7-.3v2.7c0,.3-.2.5-.4.5h-1.1c-.3,0-.4-.2-.4-.5v-9.6ZM273.8,288v-.6c0-.3.1-.4.4-.4h1.1c.3,0,.4.1.4.4v.4c0,.2-.1.4-.3.5h3.1c.3,0,.4.1.4.4v.9c0,.3-.1.4-.4.4h-7.5c-.3,0-.4-.1-.4-.4v-.9c0-.3.1-.4.4-.4h2.3c.3,0,.4,0,.4-.3ZM277.3,299.9c0,2-1.4,3.2-3.7,3.2s-5-.1-6.7-.3c-.3,0-.4-.2-.4-.4v-.9c0-.3.2-.4.5-.4,2,.2,3.7.3,6.7.3s1.7-.5,1.7-1.6,0-.9-.1-1.3c0-.3.2-.5.4-.5h1c.3,0,.4.2.5.4,0,.4.1.9.1,1.5ZM252.3,302.3v-.9c0-.3.2-.4.5-.3,1.4.2,3.2.3,4.4.3,3.5,0,4.2,0,4.2-.6s-.5-.6-3.3-.6-3.7,0-4.9,0c-.3,0-.4-.1-.4-.4v-.8c0-.3.1-.4.4-.4h.6c-.7-.2-1.1-.8-1.1-1.5s.5-1.3,1.5-1.4c2.2,0,5.9,0,8.4.2.3,0,.4.1.4.4v.9c0,.3-.1.4-.4.4-1.9-.1-5.5-.2-7.2-.2s-.8.2-.8.6.3.5.9.5c.9,0,1.8,0,2.7,0,3.9,0,5.2.5,5.2,2.2s-1.3,2.3-6.2,2.3-3.1-.1-4.5-.3c-.3,0-.4-.2-.4-.4ZM260.2,288.1h1.1c.3,0,.4.2.4.5v1.5c0,1.7,1.1,3,2.6,3s.4.1.4.4v.9c0,.3-.1.4-.4.4-1.8,0-3.1-1.2-3.6-2.4-.5,1.2-1.8,2.4-3.6,2.4s-.4-.1-.4-.4v-.9c0-.3.1-.4.4-.4,1.5,0,2.6-1.3,2.6-3v-1.5c0-.3.2-.5.4-.5ZM254.7,294.5c0,.3-.2.5-.4.5h-1.1c-.3,0-.4-.2-.4-.5v-6.3c0-.3.2-.5.4-.5h1.1c.3,0,.4.2.4.5v6.3ZM242.6,295.5c-.2,0-.5-.1-.6-.3v7.2c0,.3-.1.4-.4.4h-1c-.3,0-.4-.1-.4-.4v-14c0-.3.1-.4.4-.4h1c.3,0,.4.1.4.4v4.8c0,.3.1.5.5.5h1.4c.2-3.4,1.3-5,3.4-5s3.4,1.9,3.4,6.1-1.1,6.1-3.4,6.1-3.2-1.7-3.4-5.3h-1.3ZM237.6,287.7h1c.3,0,.4.1.4.4v14.2c0,.3-.1.4-.4.4h-1c-.3,0-.4-.1-.4-.4v-14.2c0-.3.1-.4.4-.4ZM245.8,294.7c0,3,.5,4.2,1.5,4.2s1.5-1.3,1.5-4.2-.5-4.2-1.5-4.2-1.5,1.2-1.5,4.2ZM227.5,300.5c-.3,0-.4-.1-.4-.4v-1c0-.3.1-.4.4-.5,1.4-.2,2.6-1.9,2.6-3.9v-5.5c0-.3.2-.5.4-.5h1.1c.3,0,.4.2.4.5v5.5c0,2,1.2,3.7,2.6,3.9.3,0,.4.2.4.5v1c0,.3-.1.4-.4.4-1.6-.2-3.1-1.5-3.6-3.1-.4,1.6-1.9,2.9-3.6,3.1ZM225,292.2c0,.4.2.5.6.5h1.9c.3,0,.4.1.4.4v1c0,.3-.1.4-.4.4h-1.8c-.3,0-.6-.1-.7-.3v8c0,.3-.2.5-.4.5h-1.1c-.3,0-.4-.2-.4-.5v-14.1c0-.3.2-.5.4-.5h1.1c.3,0,.4.2.4.5v4ZM204.4,298.7c0-1.3.7-2,2.1-2h7.5c.5,0,.8.3.8.8v3.9c0,.9-.7,1.5-1.8,1.5h-8.4c-.3,0-.4-.1-.4-.4v-.9c0-.3.1-.4.4-.4h1.2c-.8-.5-1.4-1.4-1.4-2.4ZM213.2,289.9v.5c0,1.8,1.1,3.2,2.6,3.2s.4.1.4.4v.9c0,.3-.1.4-.4.4-1.8,0-3.1-1.1-3.6-2.4-.5,1.3-1.8,2.4-3.6,2.4s-.4-.1-.4-.4v-.9c0-.3.1-.4.4-.4,1.5,0,2.6-1.3,2.6-3.2v-.5s-2.5,0-2.5,0c-.3,0-.4-.1-.4-.4v-.9c0-.3.1-.4.4-.4h7c.3,0,.4.1.4.4v.9c0,.3-.1.4-.4.4h-2.5ZM204.6,292.8c0-.4-.2-.5-.6-.5h-1.1c-.3,0-.4-.1-.4-.4v-.9c0-.3.1-.4.4-.4h1c.3,0,.6.1.7.3v-2.6c0-.3.2-.5.4-.5h1.1c.3,0,.4.2.4.5v6.8c0,.3-.2.5-.4.5h-1.1c-.3,0-.4-.2-.4-.5v-2.2ZM212.2,301.1c.4,0,.7-.2.7-.5v-1.7c0-.3-.2-.4-.4-.4h-4.9c-.8,0-1.1.3-1.1,1.1s.7,1.6,1.5,1.6h4.2ZM193.8,300.5c-.3,0-.4-.1-.4-.4v-1c0-.3.1-.4.4-.5,1.4-.2,2.6-1.9,2.6-3.9v-5.5c0-.3.2-.5.4-.5h1.1c.3,0,.4.2.4.5v5.5c0,2,1.2,3.7,2.6,3.9.3,0,.4.2.4.5v1c0,.3-.1.4-.4.4-1.6-.2-3.1-1.5-3.6-3.1-.4,1.6-1.9,2.9-3.6,3.1ZM191.4,302.3c0,.3-.2.5-.4.5h-1.1c-.3,0-.4-.2-.4-.5v-14.1c0-.3.2-.5.4-.5h1.1c.3,0,.4.2.4.5v14.1ZM180.3,297.3c.5,0,.7.3.7.8v3.4c0,.9-.6,1.5-1.7,1.5h-8.8c-.3,0-.4-.1-.4-.4v-.9c0-.3.1-.4.4-.4h1.1c-.7-.4-1.2-1.3-1.2-2.1s.7-1.7,1.9-1.7h2.6s0-.6,0-.6c0-.3-.1-.4-.4-.4-1.3,0-3.3,0-4.6-.2-.3,0-.4-.2-.4-.5v-.9c0-.3.2-.4.5-.4,1.2.1,3.6.2,6,.2,3.1,0,4.9,0,5.9-.2.3,0,.5.1.5.4v.9c0,.3-.1.4-.4.5-1.3.1-3.5.2-5.2.2.1,0,.2.2.2.4v.6s3.5,0,3.5,0ZM170.9,293.6c-.3,0-.4-.1-.4-.4v-1c0-.3.1-.4.4-.4,2.3,0,3.8-1.1,3.8-2.7v-.5c0-.3.2-.5.4-.5h1.1c.3,0,.4.2.4.5v.5c0,1.6,1.6,2.7,3.8,2.7s.4.1.4.4v1c0,.3-.1.4-.4.4-2.1.1-4.1-.9-4.8-2.3-.7,1.5-2.7,2.4-4.8,2.3ZM178.5,301.1c.4,0,.6-.2.6-.5v-1.2c0-.3-.1-.4-.4-.4h-5.5c-.6,0-.9.3-.9.8,0,.7.6,1.3,1.3,1.3h4.9ZM160.9,289.5c-2.6,0-3.3.3-3.3,1.1s.8,1.1,3.3,1.1,3.3-.3,3.3-1.1-.8-1.1-3.3-1.1ZM155.2,302.3v-.8c0-.3.2-.4.5-.3,1.3.2,3.2.3,4.5.3,3.5,0,4.1,0,4.1-.6s-.4-.6-3.2-.6-4,0-5,0c-.2,0-.4-.1-.4-.4v-.7c0-.3.1-.4.4-.4h.6c-.7-.2-1.1-.8-1.1-1.4s.4-1.2,1.6-1.2c2.2,0,5.8,0,8.4.2.3,0,.4.1.4.4v.8c0,.3-.1.4-.4.4-1.9-.1-5.5-.2-7.2-.2s-.8.2-.8.5.2.5.8.5c.9,0,1.9,0,2.8,0,4,0,5.1.5,5.1,2.1s-1.2,2.2-6.1,2.2-3.3-.1-4.6-.3c-.3,0-.4-.2-.3-.4ZM161,293.9c2,0,4.4,0,6-.2.3,0,.4.1.4.4v.8c0,.3-.1.4-.4.4-1,.1-2.9.2-6,.2-2.4,0-4.8,0-6.1-.2-.3,0-.4-.2-.4-.4v-.8c0-.3.2-.4.4-.4,1.3.1,3.2.2,6,.2ZM160.9,293.2c-3.8,0-5.3-.7-5.3-2.6s1.5-2.6,5.3-2.6,5.3.7,5.3,2.6-1.5,2.6-5.3,2.6ZM141.5,301.5c-2.7,0-4.9-.1-6-.3-.3,0-.4-.2-.4-.5v-.9c0-.3.2-.4.5-.4,1.1.1,3.4.3,5.2.3s.6-.2.6-.5v-3.9c0-.3.2-.5.4-.5h1.1c.3,0,.4.2.4.5v3.7c0,.3-.2.6-.4.7,1.4,0,3.1-.2,4.6-.3.3,0,.5.1.5.4v.9c0,.3-.1.4-.4.5-1.3.2-3.3.3-6,.3ZM140.7,290.5c-1.8,0-2.4.7-2.4,2.6s.1,2.3.3,3.2c0,.3,0,.4-.3.4l-1.2.2c-.3,0-.4,0-.5-.3-.2-1.2-.3-2.2-.3-3.9,0-2.7,1.4-4.1,4-4.1s3.9,0,5.8.3c.3,0,.4.2.4.4v1c0,.3-.2.4-.4.4-1.7-.2-3.4-.3-5.4-.3ZM120.9,302.4v-.7c0-.3.2-.4.4-.3,1.2.2,3.2.3,4.5.3,3.7,0,4.1-.1,4.1-.5s-.4-.5-3.2-.5-4.1,0-5,0c-.2,0-.4-.1-.4-.4v-.8c0-.2.1-.2.4-.2h.6c-.7-.2-1.1-.7-1.1-1.4s.4-1.1,1.6-1.1c2.2,0,5.9,0,8.4.2.3,0,.4.1.4.4v.7c0,.3-.1.4-.4.4-1.8-.1-5.4-.2-7.3-.2s-.8.1-.8.4.2.4.9.4c.9,0,1.9,0,2.8,0,4.1,0,5.1.4,5.1,2s-1,2-6.1,2-3.4-.1-4.6-.3c-.3,0-.3-.1-.3-.4ZM126.7,294.6c2,0,4.4,0,6-.2.3,0,.4.1.4.4v.7c0,.3-.1.4-.4.4-1,.1-2.9.2-6,.2-2.4,0-4.9,0-6.1-.2-.3,0-.4-.2-.4-.4v-.7c0-.3.1-.4.4-.4,1.3.1,3.3.2,6.1.2ZM121.6,291.4v-.7c0-.2.1-.3.3-.3h.7c-.7-.2-1.1-.7-1.1-1.3s.4-1,1.6-1c2.2,0,5.4,0,7.9.2.3,0,.3.1.3.3v.7c0,.2,0,.4-.3.3-1.8-.1-4.9-.2-6.8-.2s-.8,0-.8.4.2.4.9.4c.9,0,1.6,0,2.5,0,3.8,0,4.9.3,4.9,1.8s-1,1.8-5.8,1.8-3.2-.1-4.4-.3c-.3,0-.3-.1-.3-.4v-.7c0-.2.2-.3.4-.3,1.2.2,3,.3,4.3.3,3.4,0,3.9,0,3.9-.5s-.4-.4-2.9-.4-3.9,0-4.8,0c-.2,0-.3,0-.3-.3ZM101.1,298.4c-.3,0-.4-.2-.4-.5v-.9c0-.3.2-.4.5-.4,1.3.2,3.6.3,6,.3s4.3-.1,5.9-.3c.3,0,.5.1.5.4v.9c0,.3-.1.4-.4.5-1.2.2-3.6.3-5.5.3.3.1.4.4.4.7v2.3c0,.3-.2.5-.4.5h-1.1c-.3,0-.4-.2-.4-.5v-2.6c0-.4-.2-.5-.6-.5-1.5,0-3.3-.1-4.4-.3ZM102.4,295.2c-.3,0-.6,0-.6-.4v-1.1c0-.3.1-.4.4-.4,2.3,0,3.8-1.4,3.8-3.4v-1.4c0-.3.2-.5.4-.5h1.1c.3,0,.4.2.4.5v1.4c0,2,1.6,3.4,3.8,3.4s.4.1.4.4v1.1c0,.4-.3.4-.6.4-2,0-3.9-1.1-4.6-2.7-.7,1.6-2.6,2.7-4.6,2.7ZM90.4,293.9c1.1,0,1.9-.8,1.9-2.1s-.7-2.1-1.9-2.1-1.9.8-1.9,2.1.7,2.1,1.9,2.1ZM85,301.1c-.5,1-1.6,1.8-2.9,1.8s-.6,0-.6-.4v-1c0-.3.1-.4.4-.4,1.2,0,2.1-1,2.1-2.2v-1.6c0-.3.2-.5.4-.5h1.1c.3,0,.4.2.4.5v2c0,1.1.6,1.8,1.6,1.8s1.6-.7,1.6-1.8v-2c0-.3.2-.5.4-.5h1.1c.3,0,.4.2.4.5v1.6c0,1.2.8,2.2,2.1,2.2s.4.1.4.4v1c0,.4-.3.4-.6.4-1.3,0-2.4-.8-2.9-1.8-.4,1-1.4,1.8-2.6,1.8s-2.2-.7-2.6-1.8ZM90.4,288c2.3,0,3.8,1.5,3.8,3.9s-1.5,3.9-3.8,3.9-3.8-1.5-3.8-3.9,1.5-3.9,3.8-3.9ZM84.2,295.2c0,.3-.2.5-.4.5h-1.1c-.3,0-.4-.2-.4-.5v-7c0-.3.2-.5.4-.5h1.1c.3,0,.4.2.4.5v7ZM78.4,291.3c0,2-1.2,3.1-3.5,3.1s-5-.1-6.7-.3c-.3,0-.4-.2-.4-.4v-.9c0-.3.2-.4.5-.4,2,.2,3.8.3,6.4.3s1.6-.4,1.6-1.4,0-1.9-.1-2.6c0-.3.1-.5.4-.5h1c.3,0,.5.2.5.4,0,.8.1,2.1.1,2.7ZM78.7,300c0,2-1.3,3.1-3.6,3.1s-5.3-.1-7-.3c-.3,0-.4-.2-.4-.4v-.9c0-.3.2-.4.5-.4,2,.2,3.9.3,7,.3s1.6-.4,1.6-1.4,0-.8-.1-1.2c0-.3.1-.5.4-.5h1c.3,0,.5.2.5.4,0,.3.1.8.1,1.3ZM79.8,295.8v.9c0,.3-.1.4-.4.5-1,.1-2.9.2-6,.2-2.4,0-4.8,0-6-.2-.3,0-.4-.2-.4-.5v-.9c0-.3.2-.4.5-.4,1.3.1,3.2.2,6,.2s4.4,0,5.9-.2c.3,0,.5.1.5.4ZM52.7,299.5l.3-1c0-.2.2-.4.3-.4s.1,0,.2,0c1,.4,1.8.6,2.6.6,1.7,0,2.4-.8,2.4-2.9s-.1-4.4-.4-6.6c0-.3.1-.5.5-.5h1c.3,0,.4.1.5.4.3,2.1.4,3.9.4,6.6s-1.4,4.9-4.2,4.9-2-.2-3.1-.7c-.3-.1-.4-.3-.4-.5ZM49,296.1c0-.4-.2-.5-.6-.5h-1.1c-.3,0-.4-.1-.4-.4v-1c0-.3.1-.4.4-.4h1c.3,0,.6.1.7.3v-5.8c0-.3.2-.5.4-.5h1.1c.3,0,.4.2.4.5v14.1c0,.3-.2.5-.4.5h-1.1c-.3,0-.4-.2-.4-.5v-6.2ZM42.9,294.3c.4,0,.7-.2.7-.5v-3.4c0-.3-.2-.4-.4-.4h-1.7c-1,0-1.4.7-1.4,1.9s.7,2.5,1.8,2.5h1.1ZM38.2,295.6v-.9c0-.3.1-.4.4-.4h1.1c-1-.6-1.7-1.9-1.7-3.4s.8-2.8,2.4-2.8h4.3c.5,0,.8.3.8.8v5.6c0,.9-.7,1.5-1.8,1.5h-5.2c-.3,0-.4-.1-.4-.4ZM34.2,294.2c0-.4-.2-.5-.6-.5h-1.1c-.3,0-.4-.1-.4-.4v-.9c0-.3.1-.4.4-.4h1c.3,0,.6.1.7.3v-4c0-.3.2-.5.4-.5h1.1c.3,0,.4.2.4.5v9.6c0,.3-.2.5-.4.5h-1.1c-.3,0-.4-.2-.4-.5v-3.6ZM44.2,299.9c0,2-1.4,3.2-3.7,3.2s-4.7-.1-6.4-.3c-.3,0-.4-.2-.4-.4v-.9c0-.3.2-.4.5-.4,2,.2,3.5.3,6.4.3s1.7-.5,1.7-1.6,0-1.3-.1-1.7c0-.3.2-.5.4-.5h1c.3,0,.4.2.5.4,0,.4.1,1.2.1,1.9ZM323.8,328c1.6,0,2.9-.1,4-.3.3,0,.5,0,.5.4v1c0,.3-.1.4-.4.4-1.1.2-2.4.3-4.1.3s-3.2,0-4.4-.2c-.3,0-.4-.2-.4-.5v-1c0-.3.2-.4.4-.4,1.1.2,2.7.3,4.3.3ZM323.7,325.5c-2.3,0-3.8-1.8-3.8-4.6,0-2.8,1.5-4.6,3.8-4.6s3.8,1.8,3.8,4.6c0,2.8-1.5,4.6-3.8,4.6ZM325.6,320.9c0-1.6-.7-2.8-1.9-2.8s-1.9,1.1-1.9,2.8.7,2.8,1.9,2.8,1.9-1.1,1.9-2.8ZM316,316.2c0-.3.2-.5.4-.5h1.1c.3,0,.4.2.4.5v14.1c0,.3-.2.5-.4.5h-1.1c-.3,0-.4-.2-.4-.5v-14.1ZM306.1,317.9v.7c0,1.9,1.1,3.3,2.6,3.3s.4.1.4.4v.9c0,.3-.1.4-.4.4-1.8,0-3.1-1.2-3.6-2.5-.5,1.3-1.8,2.5-3.6,2.5s-.4-.1-.4-.4v-.9c0-.3.1-.4.4-.4,1.5,0,2.6-1.4,2.6-3.3v-.7s-2.5,0-2.5,0c-.3,0-.4-.1-.4-.4v-.9c0-.3.1-.4.4-.4h7c.3,0,.4.1.4.4v.9c0,.3-.1.4-.4.4h-2.5ZM297.5,327.8c0-1.9,1-2.7,3.3-2.7s4.6.1,6.4.3c.3,0,.4.2.4.4v.9c0,.3-.1.4-.4.4-2.1-.2-4-.3-6.2-.3s-1.6.3-1.6,1.4,0,1.6,0,2.2c0,.3-.2.5-.4.5h-1c-.3,0-.5-.2-.5-.4,0-.6,0-1.5,0-2.7ZM297.5,321c0-.4-.2-.5-.6-.5h-1.1c-.3,0-.4-.1-.4-.4v-.9c0-.3.1-.4.4-.4h1c.3,0,.6.1.7.3v-2.8c0-.3.2-.5.4-.5h1.1c.3,0,.4.2.4.5v7.2c0,.3-.2.5-.4.5h-1.1c-.3,0-.4-.2-.4-.5v-2.4ZM287.6,329.5c-2.7,0-4.9-.1-6-.3-.3,0-.4-.2-.4-.5v-.9c0-.3.2-.4.5-.4,1.1.1,3.4.3,5.2.3s.6-.2.6-.5v-3.9c0-.3.2-.5.4-.5h1.1c.3,0,.4.2.4.5v3.7c0,.3-.2.6-.4.7,1.4,0,3.1-.2,4.6-.3.3,0,.5.1.5.4v.9c0,.3-.1.4-.4.5-1.3.2-3.3.3-6,.3ZM286.8,318.5c-1.8,0-2.4.7-2.4,2.6s.1,2.3.3,3.2c0,.3,0,.4-.3.4l-1.2.2c-.3,0-.4,0-.5-.3-.2-1.2-.3-2.2-.3-3.9,0-2.7,1.4-4.1,4-4.1s3.9,0,5.8.3c.3,0,.4.2.4.4v1c0,.3-.2.4-.4.4-1.7-.2-3.4-.3-5.4-.3ZM268.1,329.5c-2.6,0-4.9-.1-6-.3-.3,0-.4-.2-.4-.5v-.9c0-.3.2-.4.5-.4,1.2.2,2.9.3,4.4.3s.6-.2.6-.5v-2.1c0-.3.2-.5.4-.5h1.1c.3,0,.4.2.4.5v2c0,.3-.2.6-.4.7,1.9,0,4.2-.2,5.4-.3.3,0,.5.1.5.4v.9c0,.3-.1.4-.4.5-1.3.2-3.3.3-6,.3ZM263.3,324.9c-.3,0-.6,0-.6-.4v-1.1c0-.3.1-.4.4-.4,2.3,0,3.8-1.5,3.8-3.6v-2.4c0-.3.2-.5.4-.5h1.1c.3,0,.4.2.4.5v2.4c0,2.1,1.6,3.6,3.8,3.6s.4.1.4.4v1.1c0,.4-.3.4-.6.4-2,0-3.9-1.2-4.7-2.8-.7,1.7-2.6,2.8-4.6,2.8ZM253.1,331.1c-3.8,0-5.6-1-5.6-2.9s1.5-2.8,4.7-2.9v-.6c0-.3-.1-.4-.4-.4-1.3,0-3.3,0-4.6-.2-.3,0-.4-.2-.4-.5v-.9c0-.3.2-.4.5-.4,1.2.1,3.6.2,6,.2,3.1,0,4.9,0,5.9-.2.3,0,.5.1.5.4v.9c0,.3-.1.4-.4.5-1.3.1-3.5.2-5.2.2.1,0,.2.2.2.4v.6c3,.2,4.5,1.1,4.5,2.9s-1.8,2.9-5.6,2.9ZM253.2,319.5c-.7,1.2-2.7,2.2-4.8,2.1-.3,0-.4-.1-.4-.4v-1c0-.3.1-.4.4-.4,2.2,0,3.7-.8,3.8-1.9h-3.6c-.3,0-.4-.1-.4-.4v-.9c0-.3.1-.4.4-.4h9.1c.3,0,.4.1.4.4v.9c0,.3-.1.4-.4.4h-3.6c.1,1.1,1.6,1.9,3.8,1.9s.4.1.4.4v1c0,.3-.1.4-.4.4-2.1.1-4.1-.9-4.8-2.1ZM253.1,327c-2.6,0-3.6.3-3.6,1.2s1.1,1.2,3.6,1.2,3.6-.3,3.6-1.2-1-1.2-3.6-1.2ZM242.9,321.8c0-.7-.5-1.1-1.8-1.1s-1.8.4-1.8,1.1.5,1.1,1.8,1.1,1.8-.4,1.8-1.1ZM241.2,324.6c-2.5,0-3.7-1-3.7-2.8s1.2-2.8,3.7-2.8,3.7,1,3.7,2.8-1.2,2.8-3.7,2.8ZM233.5,322.2c0-.4-.2-.5-.6-.5h-1.1c-.3,0-.4-.1-.4-.4v-.9c0-.3.1-.4.4-.4h1c.3,0,.6.1.7.3v-4c0-.3.2-.5.4-.5h1.1c.3,0,.4.2.4.5v9.6c0,.3-.2.5-.4.5h-1.1c-.3,0-.4-.2-.4-.5v-3.6ZM240.2,316v-.6c0-.3.1-.4.4-.4h1.1c.3,0,.4.1.4.4v.4c0,.2-.1.4-.3.5h3.1c.3,0,.4.1.4.4v.9c0,.3-.1.4-.4.4h-7.6c-.3,0-.4-.1-.4-.4v-.9c0-.3.1-.4.4-.4h2.4c.3,0,.4,0,.4-.3ZM243.6,327.9c0,2-1.4,3.2-3.7,3.2s-4.7-.1-6.4-.3c-.3,0-.4-.2-.4-.4v-.9c0-.3.2-.4.5-.4,2,.2,3.5.3,6.4.3s1.7-.5,1.7-1.6,0-.9-.1-1.3c0-.3.2-.5.4-.5h1c.3,0,.4.2.5.4,0,.4.1.9.1,1.5ZM218.9,329.5c-2.6,0-4.9-.1-6-.3-.3,0-.4-.2-.4-.5v-.9c0-.3.2-.4.5-.4,1.2.2,2.9.3,4.4.3s.6-.2.6-.5v-2.1c-1,0-2.1-.1-3.6-.3-.3,0-.4-.2-.4-.4v-1c0-.3.2-.4.5-.4,1.5.2,3.1.3,4.5.3,2.7,0,3.5-.7,3.5-2.3s-.9-2.3-3.9-2.3-1.9,0-3.9.2c-.3,0-.4-.1-.4-.4v-1c0-.3.1-.4.4-.4,2.1-.1,2.9-.2,3.9-.2,4.4,0,5.9,1.5,5.9,4.2s-1.2,3.9-4.5,4.2v2c0,.3-.2.6-.4.7,1.9,0,4.2-.2,5.4-.3.3,0,.5.1.5.4v.9c0,.3-.1.4-.4.5-1.3.2-3.3.3-6,.3ZM209.7,318.7l-.3,7.9c.5,0,1,0,1.4-.1.3,0,.4.1.4.4v1c0,.3-.1.4-.4.4-.9.1-2.4.2-4,.2s-3.3-.1-4-.2c-.3,0-.4-.1-.4-.4v-1c0-.3.1-.5.4-.4.4,0,.9,0,1.4.1l-.3-7.9h-.8c-.3,0-.4-.1-.4-.4v-1c0-.3.1-.4.4-.4h7.6c.3,0,.4.1.4.4v1c0,.3-.1.4-.4.4h-.9ZM200.8,330.3c0,.3-.2.5-.4.5h-1.1c-.3,0-.4-.2-.4-.5v-14.1c0-.3.2-.5.4-.5h1.1c.3,0,.4.2.4.5v14.1ZM207.8,318.7h-2.1s.3,7.9.3,7.9h1.4s.3-7.9.3-7.9ZM191.7,316.8v-1.1c0-.3.1-.4.4-.4h1.1c.3,0,.4.1.4.4v.9c0,.2-.1.4-.3.5h2.8c.3,0,.4.1.4.4v1c0,.3-.1.4-.4.4h-2.5s0,3.7,0,3.7c0,2,1.2,3.7,2.6,3.9.3,0,.4.2.4.5v1c0,.3-.1.4-.4.4-1.6-.2-3.1-1.5-3.6-3.1-.4,1.6-1.9,2.9-3.6,3.1-.3,0-.4-.1-.4-.4v-1c0-.3.1-.4.4-.5,1.4-.2,2.6-1.9,2.6-3.9v-3.7s-2.5,0-2.5,0c-.3,0-.4-.1-.4-.4v-1c0-.3.1-.4.4-.4h2.1c.3,0,.4,0,.4-.3ZM186.7,321.3c0,.4.2.5.6.5h1.9c.3,0,.4.1.4.4v1c0,.3-.1.4-.4.4h-1.8c-.3,0-.6-.1-.7-.3v7c0,.3-.2.5-.4.5h-1.1c-.3,0-.4-.2-.4-.5v-14.1c0-.3.2-.5.4-.5h1.1c.3,0,.4.2.4.5v5ZM174.8,320.5c0-2.6,1-3.7,3.3-3.7s2.4.1,3.7.3c.3,0,.4.2.4.5v1c0,.3-.2.5-.4.4-1.1-.2-2.1-.3-3.3-.3s-1.7.5-1.7,2c0,2.5.2,4.9.6,7.4,0,.3-.1.5-.4.5h-1.1c-.3,0-.4-.1-.5-.4-.4-2.5-.6-4.9-.6-7.6ZM171,324.1c0-.4-.2-.5-.6-.5h-1.1c-.3,0-.4-.1-.4-.4v-1c0-.3.1-.4.4-.4h1c.3,0,.6.1.7.3v-5.8c0-.3.2-.5.4-.5h1.1c.3,0,.4.2.4.5v14.1c0,.3-.2.5-.4.5h-1.1c-.3,0-.4-.2-.4-.5v-6.2ZM157.3,322.7c0,3,.6,4.2,1.9,4.2s1.9-1.2,1.9-4.2-.6-4.2-1.9-4.2-1.9,1.2-1.9,4.2ZM159.1,316.6c2.6,0,3.8,1.9,3.8,6.1s-1.2,6.1-3.8,6.1-3.8-1.9-3.8-6.1,1.2-6.1,3.8-6.1ZM151.4,324.1c0-.4-.2-.5-.6-.5h-1.1c-.3,0-.4-.1-.4-.4v-1c0-.3.1-.4.4-.4h1c.3,0,.6.1.7.3v-5.8c0-.3.2-.5.4-.5h1.1c.3,0,.4.2.4.5v14.1c0,.3-.2.5-.4.5h-1.1c-.3,0-.4-.2-.4-.5v-6.2ZM135.8,330.3v-.9c0-.3.2-.4.5-.3,1.4.2,3.2.3,4.4.3,3.5,0,4.2,0,4.2-.6s-.5-.6-3.3-.6-3.7,0-4.9,0c-.3,0-.4-.1-.4-.4v-.8c0-.3.1-.4.4-.4h.6c-.7-.2-1.1-.8-1.1-1.5s.5-1.3,1.5-1.4c2.2,0,5.9,0,8.4.2.3,0,.4.1.4.4v.9c0,.3-.1.4-.4.4-1.9-.1-5.5-.2-7.2-.2s-.8.2-.8.6.3.5.9.5c.9,0,1.8,0,2.7,0,3.9,0,5.2.5,5.2,2.2s-1.3,2.3-6.2,2.3-3.1-.1-4.5-.3c-.3,0-.4-.2-.4-.4ZM140.3,321.9l.3-.9c0-.3.2-.4.5-.3,1.1.4,2.6.6,3.5.6s1.6-.4,1.6-1.4-.2-2.2-.4-3.3c0-.3.1-.5.4-.5h1c.3,0,.4.1.5.4.3,1.2.4,2.2.4,3.3,0,2-1.2,3.2-3.4,3.2s-2.8-.2-4-.6c-.3-.1-.4-.3-.4-.5ZM138.2,322.5c0,.3-.2.5-.4.5h-1.1c-.3,0-.4-.2-.4-.5v-6.3c0-.3.2-.5.4-.5h1.1c.3,0,.4.2.4.5v6.3ZM129.6,319.5c0-.2,0-.4,0-.5-.6-.2-1.1-.3-1.5-.3s-.8.3-.8,1c0,2.4.2,5.5.6,8.4,0,.3-.1.5-.4.5h-1.1c-.3,0-.4-.1-.5-.4-.5-3.4-.6-5.8-.6-8.6s.8-2.7,2.4-2.7,2.2.2,2.4.7c.4-.4,1-.7,1.8-.7s1.2.1,1.8.3c.3.1.4.2.4.5v.9c0,.3-.2.5-.4.4-.6-.2-1.1-.3-1.4-.3-.5,0-.7.3-.7,1,0,2.4.2,5.5.6,8.4,0,.3-.1.5-.4.5h-1.1c-.3,0-.4-.1-.5-.4-.4-3.4-.6-5.8-.6-8.6ZM122.2,324.1c0-.4-.2-.5-.6-.5h-.8c-.3,0-.4-.1-.4-.4v-1c0-.3.1-.4.4-.4h.7c.3,0,.6.1.7.3v-5.8c0-.3.2-.5.4-.5h1.1c.3,0,.4.2.4.5v14.1c0,.3-.2.5-.4.5h-1.1c-.3,0-.4-.2-.4-.5v-6.2ZM117.7,331.2c-.8,0-1.3-.5-1.3-1.2s.5-1.2,1.3-1.2,1.3.5,1.3,1.2-.5,1.2-1.3,1.2Z"/>
</svg>