<svg width="283" height="483" viewBox="0 0 283 483" fill="none" xmlns="http://www.w3.org/2000/svg">
<rect width="283" height="483" rx="5.88052" fill="#F4B8FF"/>
<rect x="9.75" y="9.74982" width="263.5" height="463.5" rx="5.13052" stroke="black" stroke-width="1.5"/>
<rect x="76" y="30.9998" width="130" height="30" rx="15" fill="black"/>
<path d="M112.514 44.3518C111.31 44.3518 110.862 44.8278 110.862 46.0738C110.862 47.1518 111.324 47.7258 112.192 47.7258C112.892 47.7258 113.48 47.6138 114.054 47.3618C114.138 47.3198 114.208 47.3058 114.278 47.3058C114.46 47.3058 114.6 47.4178 114.656 47.6278L114.922 48.5798C115.006 48.8738 114.922 49.0278 114.628 49.1538C113.872 49.4758 113.074 49.6158 111.996 49.6158C110.078 49.6158 108.972 48.3698 108.972 46.0458C108.972 43.5258 110.022 42.4478 112.29 42.4478C112.976 42.4478 113.48 42.4898 113.914 42.5598C114.194 42.6018 114.306 42.7418 114.306 43.0498V44.0858C114.306 44.3798 114.138 44.5338 113.844 44.4778C113.354 44.3938 112.906 44.3518 112.514 44.3518ZM116 46.5498C115.902 46.6758 115.734 46.7598 115.538 46.7598H114.88C114.6 46.7598 114.446 46.6058 114.446 46.3258V45.2338C114.446 44.9538 114.6 44.7998 114.88 44.7998H115.566C115.846 44.7998 116 44.6598 116 44.3938V39.4098C116 39.1158 116.14 38.9758 116.434 38.9758H117.456C117.75 38.9758 117.89 39.1158 117.89 39.4098V50.9458C117.89 51.2398 117.75 51.3798 117.456 51.3798H116.434C116.14 51.3798 116 51.2398 116 50.9458V46.5498ZM118.66 39.2698C118.66 38.9758 118.8 38.8358 119.094 38.8358H120.116C120.41 38.8358 120.55 38.9758 120.55 39.2698V50.9458C120.55 51.2398 120.41 51.3798 120.116 51.3798H119.094C118.8 51.3798 118.66 51.2398 118.66 50.9458V39.2698ZM114.236 39.7178C114.53 39.7178 114.698 39.8858 114.698 40.1798V41.1458C114.698 41.4398 114.53 41.6078 114.236 41.6078H109.588C109.294 41.6078 109.126 41.4398 109.126 41.1458V40.1798C109.126 39.8858 109.294 39.7178 109.588 39.7178H114.236ZM127.67 44.3378C127.124 45.5978 125.71 46.5358 123.834 46.5358C123.512 46.5358 123.134 46.5358 123.134 46.1018V45.0518C123.134 44.7858 123.288 44.6458 123.596 44.6458C125.584 44.6458 126.662 43.5258 126.662 41.9718V40.0258C126.662 39.7318 126.83 39.5638 127.124 39.5638H128.23C128.524 39.5638 128.692 39.7318 128.692 40.0258V41.9718C128.692 43.5258 129.756 44.6458 131.73 44.6458C132.038 44.6458 132.192 44.7858 132.192 45.0518V46.1018C132.192 46.5358 131.814 46.5358 131.492 46.5358C129.616 46.5358 128.202 45.5978 127.67 44.3378ZM122.574 48.2858C123.792 48.4398 125.64 48.5238 127.6 48.5238C129.784 48.5238 131.772 48.4258 132.64 48.2858C132.934 48.2298 133.102 48.4118 133.102 48.7058V49.7418C133.102 49.9938 132.962 50.1338 132.64 50.1898C131.772 50.3438 129.784 50.4278 127.6 50.4278C125.64 50.4278 123.792 50.3578 122.574 50.1898C122.252 50.1478 122.112 50.0078 122.112 49.7418V48.7058C122.112 48.4118 122.28 48.2438 122.574 48.2858ZM135.813 39.5778H143.583C143.877 39.5778 144.045 39.7458 144.045 40.0398V40.8658C144.045 41.1598 143.877 41.3278 143.583 41.3278H135.813C135.519 41.3278 135.351 41.1598 135.351 40.8658V40.0398C135.351 39.7458 135.519 39.5778 135.813 39.5778ZM143.639 42.1118C143.947 42.1398 144.073 42.2658 144.073 42.5458V43.4278C144.073 43.7078 143.905 43.8758 143.639 43.8618C142.337 43.7918 141.133 43.7078 139.999 43.7078C137.745 43.7078 137.269 43.8898 137.269 44.4358C137.269 44.9958 137.605 45.1638 139.635 45.1638C140.713 45.1638 142.393 45.0518 143.751 44.9118C144.017 44.8838 144.157 45.0238 144.185 45.3458L144.255 46.2278C144.283 46.4938 144.143 46.6338 143.821 46.6618C141.721 46.8438 140.643 46.9138 139.845 46.9138C136.303 46.9138 135.239 46.2838 135.239 44.4358C135.239 42.6018 136.373 41.9578 140.041 41.9578C141.441 41.9578 142.449 41.9998 143.639 42.1118ZM134.749 48.2858C135.967 48.4398 137.815 48.5238 139.775 48.5238C141.959 48.5238 143.947 48.4258 144.815 48.2858C145.109 48.2298 145.277 48.4118 145.277 48.7058V49.7418C145.277 49.9938 145.137 50.1338 144.815 50.1898C143.947 50.3438 141.959 50.4278 139.775 50.4278C137.815 50.4278 135.967 50.3578 134.749 50.1898C134.427 50.1478 134.287 50.0078 134.287 49.7418V48.7058C134.287 48.4118 134.455 48.2438 134.749 48.2858ZM155.454 49.2798C153.396 49.2798 153.032 49.3638 153.032 49.6578C153.032 49.9658 153.466 50.0218 156.224 50.0218C157.372 50.0218 159.122 49.9378 160.046 49.7698C160.27 49.7278 160.424 49.8398 160.438 50.0638L160.508 50.9738C160.522 51.1698 160.396 51.3098 160.186 51.3378C159.178 51.4778 157.386 51.5898 156.238 51.5898C152.192 51.5898 151.002 51.1138 151.002 49.6298C151.002 48.1598 152.374 47.7118 155.426 47.7118C156.196 47.7118 157.078 47.6978 157.694 47.6978C158.058 47.6978 158.212 47.5998 158.212 47.4038C158.212 47.1938 158.072 47.0958 157.722 47.0958C156.392 47.0958 153.298 47.1938 151.646 47.3338C151.422 47.3478 151.282 47.2218 151.282 46.9978V46.0878C151.282 45.8778 151.394 45.7658 151.646 45.7518C153.76 45.5978 156.658 45.5138 158.828 45.5838C159.724 45.6118 160.228 46.0038 160.228 46.6758C160.228 47.2218 159.92 47.6558 159.416 47.8378H159.752C159.962 47.8378 160.116 47.9638 160.116 48.1598V48.9858C160.116 49.1818 159.976 49.3218 159.752 49.3218C158.73 49.3218 158.016 49.2798 155.454 49.2798ZM155.174 44.8558H154.04C153.718 44.8558 153.592 44.6878 153.69 44.4218C153.998 43.5258 154.194 42.5738 154.194 41.9158C154.194 41.2298 153.97 41.0478 153.256 41.0478C152.094 41.0478 151.296 41.2018 150.372 41.2998C150.106 41.3278 149.938 41.1598 149.938 40.8658V39.8438C149.938 39.5778 150.064 39.4518 150.372 39.4098C151.688 39.2278 152.472 39.1578 153.564 39.1578C155.44 39.1578 156.238 39.8998 156.238 41.6778C156.238 42.6018 155.986 43.8338 155.72 44.5198C155.622 44.7718 155.482 44.8558 155.174 44.8558ZM158.1 39.3538V39.2978C158.1 39.0038 158.268 38.8358 158.562 38.8358H159.668C159.962 38.8358 160.13 39.0038 160.13 39.2978V44.4778C160.13 44.7718 159.962 44.9398 159.668 44.9398H158.562C158.268 44.9398 158.1 44.7718 158.1 44.4778V43.8758C157.974 44.0858 157.736 44.1838 157.358 44.1838H157.022C156.742 44.1838 156.616 44.0578 156.616 43.7778V42.9238C156.616 42.6438 156.742 42.5178 157.022 42.5178H157.624C157.988 42.5178 158.1 42.3498 158.1 42.0278V41.2018C157.96 41.4118 157.708 41.5098 157.358 41.5098H157.022C156.742 41.5098 156.616 41.3838 156.616 41.1038V40.2498C156.616 39.9698 156.742 39.8438 157.022 39.8438H157.624C158.058 39.8438 158.1 39.7038 158.1 39.3538ZM161.693 50.3298C161.371 50.2878 161.231 50.1478 161.231 49.8818V48.8458C161.231 48.5518 161.399 48.3838 161.693 48.4258C162.407 48.5238 162.869 48.6078 163.667 48.6358C163.429 48.5238 163.303 48.2438 163.303 47.9078V45.0798C163.303 44.7858 163.471 44.6178 163.765 44.6178H164.885C165.179 44.6178 165.333 44.7858 165.333 45.0798V48.0198C165.333 48.3978 165.529 48.6078 165.935 48.6078C166.607 48.6078 167.629 48.5518 168.315 48.4258C168.609 48.3698 168.791 48.5518 168.791 48.8458V49.8818C168.791 50.1338 168.651 50.2598 168.329 50.3298C167.741 50.4558 166.313 50.5398 164.969 50.5398C163.429 50.5398 162.631 50.4698 161.693 50.3298ZM168.035 46.2138C167.993 46.4938 167.811 46.5918 167.531 46.5498L166.439 46.3818C166.131 46.3398 166.033 46.1858 166.089 45.9058C166.271 44.9818 166.383 43.7778 166.383 42.7418C166.383 41.8738 165.865 41.3418 165.025 41.3418C164.339 41.3418 163.387 41.4538 162.421 41.5798C162.155 41.6078 161.973 41.4398 161.973 41.1878V40.0818C161.973 39.8438 162.155 39.7038 162.421 39.6618C163.149 39.5498 164.381 39.4238 165.627 39.4238C167.433 39.4238 168.399 40.4038 168.399 42.2238C168.399 43.4278 168.245 44.8278 168.035 46.2138ZM171.465 50.9178C171.465 51.2118 171.297 51.3798 171.003 51.3798H169.897C169.603 51.3798 169.435 51.2118 169.435 50.9178V39.2978C169.435 39.0038 169.603 38.8358 169.897 38.8358H171.003C171.297 38.8358 171.465 39.0038 171.465 39.2978V43.9878C171.619 43.7498 171.941 43.5958 172.333 43.5958H172.781C173.061 43.5958 173.215 43.7498 173.215 44.0298V45.1218C173.215 45.4018 173.061 45.5558 172.781 45.5558H172.277C171.801 45.5558 171.465 45.8778 171.465 46.3258V50.9178Z" fill="white"/>
<rect x="28.75" y="61.7498" width="224.5" height="58.5" rx="29.25" fill="white"/>
<rect x="28.75" y="61.7498" width="224.5" height="58.5" rx="29.25" stroke="black" stroke-width="1.5"/>
<path d="M87.8928 86.9998V85.3338H90.1328V78.7818H88.2428V77.5078C89.2928 77.3118 89.9928 77.0458 90.6648 76.6398H92.1908V85.3338H94.1368V86.9998H87.8928ZM100.211 83.1218C98.9366 83.1218 98.3486 81.8758 97.4666 81.8758C97.0326 81.8758 96.6406 82.1978 96.3046 82.7998L95.2266 81.9878C95.9406 80.8398 96.7386 80.4058 97.4946 80.4058C98.7966 80.4058 99.3706 81.6518 100.239 81.6518C100.687 81.6518 101.079 81.3298 101.415 80.7278L102.493 81.5398C101.765 82.6878 100.981 83.1218 100.211 83.1218ZM106.536 87.1958C104.898 87.1958 103.792 86.5938 103.064 85.7538L104.044 84.4518C104.66 85.0538 105.402 85.5298 106.34 85.5298C107.404 85.5298 108.118 84.9978 108.118 84.0738C108.118 83.0518 107.516 82.4218 105.262 82.4218V80.9378C107.166 80.9378 107.782 80.2938 107.782 79.3698C107.782 78.5578 107.278 78.0678 106.396 78.0678C105.654 78.0678 105.052 78.4178 104.436 78.9918L103.386 77.7178C104.282 76.9478 105.276 76.4578 106.48 76.4578C108.482 76.4578 109.84 77.4378 109.84 79.2158C109.84 80.3218 109.224 81.1478 108.118 81.5678V81.6378C109.294 81.9738 110.19 82.8278 110.19 84.1998C110.19 86.1038 108.524 87.1958 106.536 87.1958ZM117.384 78.7258H120.716V80.2098H117.384V78.7258ZM120.24 75.2958H122.102V84.8578H120.24V75.2958ZM113.52 86.5378H122.382V88.0218H113.52V86.5378ZM113.52 83.9198H115.396V87.3918H113.52V83.9198ZM111.798 76.1358H113.646V78.1098H116.11V76.1358H117.93V82.8278H111.798V76.1358ZM113.646 79.5238V81.3578H116.11V79.5238H113.646ZM133.757 78.2638H136.221V79.7758H133.757V78.2638ZM135.731 75.2818H137.593V82.7718H135.731V75.2818ZM128.955 83.3038H137.593V88.1058H128.955V83.3038ZM135.773 84.7598H130.789V86.6358H135.773V84.7598ZM129.739 76.4858H131.251V77.2978C131.251 79.7478 130.103 81.9878 127.611 82.7998L126.673 81.3298C128.815 80.6298 129.739 78.9358 129.739 77.2978V76.4858ZM130.131 76.4858H131.629V77.2978C131.629 78.8098 132.511 80.4058 134.555 81.0918L133.645 82.5618C131.237 81.7638 130.131 79.6078 130.131 77.2978V76.4858ZM127.177 75.9398H134.149V77.4098H127.177V75.9398ZM144.228 75.6598H145.866V76.2618C145.866 78.7538 143.906 80.8678 140.504 81.3718L139.776 79.8738C142.758 79.4818 144.228 77.7878 144.228 76.2618V75.6598ZM144.578 75.6598H146.202V76.2618C146.202 77.7738 147.686 79.4818 150.654 79.8738L149.94 81.3718C146.538 80.8678 144.578 78.7538 144.578 76.2618V75.6598ZM144.242 83.4998H146.09V88.2458H144.242V83.4998ZM139.356 82.3238H151.074V83.8358H139.356V82.3238ZM151.941 81.0918H163.687V82.4498H151.941V81.0918ZM153.257 83.0938H162.287V86.1738H155.133V87.2798H153.285V84.9978H160.453V84.3538H153.257V83.0938ZM153.285 86.8878H162.651V88.1478H153.285V86.8878ZM153.383 75.5058H162.259V78.5578H155.245V79.6218H153.397V77.3958H160.425V76.7518H153.383V75.5058ZM153.397 79.2298H162.497V80.4898H153.397V79.2298ZM167.446 85.2358H179.178V86.7478H167.446V85.2358ZM172.36 82.3658H174.222V85.5858H172.36V82.3658ZM168.664 76.2338H177.89V82.6038H168.664V76.2338ZM176.07 77.7178H170.498V81.1338H176.07V77.7178ZM181.514 79.8598H190.418V81.3438H181.514V79.8598ZM180.03 82.6178H191.776V84.1158H180.03V82.6178ZM184.93 83.4858H186.778V88.2318H184.93V83.4858ZM181.514 75.9678H190.292V77.4518H183.418V80.5738H181.514V75.9678ZM72.5673 103.626H73.6173C75.9133 103.626 77.4113 103.57 79.0913 103.262L79.2733 104.76C77.5373 105.082 75.9833 105.152 73.6173 105.152H72.5673V103.626ZM72.5673 96.4298H78.4333V97.9138H74.4293V104.2H72.5673V96.4298ZM80.9813 95.2818H82.8433V108.288H80.9813V95.2818ZM77.8033 99.7478H81.7653V101.26H77.8033V99.7478ZM92.8942 95.2958H94.7562V104.984H92.8942V95.2958ZM94.2242 99.2438H96.4782V100.77H94.2242V99.2438ZM84.5502 96.6398H92.1802V98.0958H84.5502V96.6398ZM88.3722 98.5578C90.2342 98.5578 91.5502 99.5798 91.5502 101.064C91.5502 102.548 90.2342 103.556 88.3722 103.556C86.4962 103.556 85.1802 102.548 85.1802 101.064C85.1802 99.5798 86.4962 98.5578 88.3722 98.5578ZM88.3722 99.9718C87.5462 99.9718 86.9722 100.364 86.9722 101.064C86.9722 101.764 87.5462 102.142 88.3722 102.142C89.1982 102.142 89.7722 101.764 89.7722 101.064C89.7722 100.364 89.1982 99.9718 88.3722 99.9718ZM87.4342 95.2678H89.2962V97.3538H87.4342V95.2678ZM86.3982 106.538H95.2182V108.022H86.3982V106.538ZM86.3982 104.256H88.2602V107.182H86.3982V104.256ZM108.385 95.2818H110.247V102.31H108.385V95.2818ZM109.729 97.9698H111.969V99.4958H109.729V97.9698ZM104.647 95.9538H106.677C106.677 99.4258 104.591 101.582 100.657 102.464L99.971 100.966C103.233 100.28 104.647 98.7538 104.647 96.9898V95.9538ZM100.587 95.9538H105.851V97.4378H100.587V95.9538ZM101.301 102.968H103.023V104.172H104.297V102.968H105.991V108.064H101.301V102.968ZM103.023 105.544V106.664H104.297V105.544H103.023ZM107.839 102.814H109.267V103.78C109.267 105.642 108.539 107.434 106.733 108.19L105.767 106.804C107.237 106.16 107.839 104.956 107.839 103.78V102.814ZM108.217 102.814H109.617V103.766C109.617 104.998 110.219 106.216 111.689 106.804L110.723 108.19C108.903 107.448 108.217 105.698 108.217 103.766V102.814ZM118.506 95.4638C121.46 95.4638 123.196 96.2478 123.196 97.6758C123.196 99.1038 121.46 99.8878 118.506 99.8878C115.538 99.8878 113.816 99.1038 113.816 97.6758C113.816 96.2478 115.538 95.4638 118.506 95.4638ZM118.506 96.8218C116.63 96.8218 115.748 97.1018 115.748 97.6758C115.748 98.2778 116.63 98.5298 118.506 98.5298C120.382 98.5298 121.264 98.2778 121.264 97.6758C121.264 97.1018 120.382 96.8218 118.506 96.8218ZM112.64 100.49H124.358V101.96H112.64V100.49ZM113.984 102.688H122.944V106.02H115.832V107.168H113.998V104.732H121.11V104.074H113.984V102.688ZM113.998 106.762H123.28V108.162H113.998V106.762ZM131.071 101.204H132.933V103.066H131.071V101.204ZM136.559 95.2958H138.421V104.116H136.559V95.2958ZM137.763 98.9918H140.045V100.518H137.763V98.9918ZM128.187 103.864L127.977 102.422C130.301 102.422 133.367 102.408 135.985 102.086L136.125 103.36C133.423 103.822 130.455 103.85 128.187 103.864ZM129.629 104.634H138.421V108.246H136.559V106.062H129.629V104.634ZM128.313 96.2338H135.663V97.5638H128.313V96.2338ZM131.995 97.8718C133.899 97.8718 135.145 98.6138 135.145 99.8038C135.145 100.994 133.899 101.736 131.995 101.736C130.077 101.736 128.831 100.994 128.831 99.8038C128.831 98.6138 130.077 97.8718 131.995 97.8718ZM131.995 99.0898C131.113 99.0898 130.595 99.3138 130.595 99.8038C130.595 100.266 131.113 100.518 131.995 100.518C132.863 100.518 133.381 100.266 133.381 99.8038C133.381 99.3138 132.863 99.0898 131.995 99.0898ZM131.071 95.1838H132.933V96.8358H131.071V95.1838ZM149.634 95.2958H151.51V104.606H149.634V95.2958ZM142.872 106.538H151.832V108.022H142.872V106.538ZM142.872 103.668H144.734V107.14H142.872V103.668ZM144.454 96.1078C146.442 96.1078 147.968 97.4798 147.968 99.3978C147.968 101.302 146.442 102.688 144.454 102.688C142.466 102.688 140.926 101.302 140.926 99.3978C140.926 97.4798 142.466 96.1078 144.454 96.1078ZM144.454 97.7178C143.488 97.7178 142.746 98.3338 142.746 99.3978C142.746 100.448 143.488 101.064 144.454 101.064C145.406 101.064 146.148 100.448 146.148 99.3978C146.148 98.3338 145.406 97.7178 144.454 97.7178ZM153.314 97.2278H159.516V98.7118H153.314V97.2278ZM156.436 99.2858C158.088 99.2858 159.278 100.56 159.278 102.38C159.278 104.186 158.088 105.46 156.436 105.46C154.798 105.46 153.594 104.186 153.594 102.38C153.594 100.56 154.798 99.2858 156.436 99.2858ZM156.436 100.84C155.736 100.84 155.246 101.4 155.246 102.38C155.246 103.36 155.736 103.906 156.436 103.906C157.136 103.906 157.64 103.36 157.64 102.38C157.64 101.4 157.136 100.84 156.436 100.84ZM162.694 95.2818H164.472V108.246H162.694V95.2818ZM161.14 100.546H163.282V102.044H161.14V100.546ZM159.978 95.5198H161.714V107.7H159.978V95.5198ZM155.526 95.6318H157.36V98.1658H155.526V95.6318ZM173.621 96.7238H175.231V97.1018C175.231 99.3838 173.369 101.246 170.079 101.694L169.393 100.238C172.249 99.8878 173.621 98.4318 173.621 97.1018V96.7238ZM174.153 96.7238H175.763V97.1018C175.763 98.4318 177.135 99.8878 179.991 100.238L179.319 101.694C176.015 101.246 174.153 99.3838 174.153 97.1018V96.7238ZM173.719 103.5H175.567V108.26H173.719V103.5ZM168.833 102.436H180.551V103.92H168.833V102.436ZM169.869 95.9398H179.487V97.4098H169.869V95.9398ZM186.528 99.6358H188.67V101.148H186.528V99.6358ZM183.756 96.4018H185.184V98.5858C185.184 101.526 184.372 104.396 182.3 105.67L181.18 104.27C183.084 103.094 183.756 100.784 183.756 98.5858V96.4018ZM184.162 96.4018H185.562V98.5018C185.562 100.616 186.108 102.772 187.872 103.92L186.864 105.376C184.806 104.102 184.162 101.302 184.162 98.5018V96.4018ZM190.784 95.2818H192.562V108.246H190.784V95.2818ZM188.152 95.4778H189.888V107.658H188.152V95.4778ZM196.607 101.862H198.455V105.502H196.607V101.862ZM201.311 101.862H203.173V105.502H201.311V101.862ZM194.031 105.236H205.763V106.748H194.031V105.236ZM199.883 95.9118C202.669 95.9118 204.727 97.2838 204.727 99.3978C204.727 101.512 202.669 102.87 199.883 102.87C197.083 102.87 195.039 101.512 195.039 99.3978C195.039 97.2838 197.083 95.9118 199.883 95.9118ZM199.883 97.3678C198.077 97.3678 196.873 98.1098 196.873 99.3978C196.873 100.672 198.077 101.428 199.883 101.428C201.689 101.428 202.893 100.672 202.893 99.3978C202.893 98.1098 201.689 97.3678 199.883 97.3678ZM208.324 107.196C207.582 107.196 207.05 106.622 207.05 105.852C207.05 105.082 207.582 104.522 208.324 104.522C209.052 104.522 209.612 105.082 209.612 105.852C209.612 106.622 209.052 107.196 208.324 107.196Z" fill="black"/>
<path d="M33.985 169.266C31.325 169.266 28.931 167.119 28.931 162.16C28.931 156.935 31.534 154.693 34.384 154.693C36.094 154.693 37.348 155.396 38.203 156.289L36.702 157.942C36.227 157.391 35.353 156.935 34.555 156.935C32.845 156.935 31.496 158.246 31.496 162.16C31.496 165.808 32.56 167.157 33.947 167.157C34.992 167.157 35.847 166.283 35.847 164.573C35.847 162.901 35.049 162.141 33.852 162.141C33.073 162.141 32.18 162.559 31.477 163.718L31.363 161.818C32.104 160.773 33.415 160.165 34.365 160.165C36.721 160.165 38.412 161.552 38.412 164.573C38.412 167.461 36.379 169.266 33.985 169.266ZM46.256 163.737C44.527 163.737 43.729 162.046 42.532 162.046C41.943 162.046 41.411 162.483 40.955 163.3L39.492 162.198C40.461 160.64 41.544 160.051 42.57 160.051C44.337 160.051 45.116 161.742 46.294 161.742C46.902 161.742 47.434 161.305 47.89 160.488L49.353 161.59C48.365 163.148 47.301 163.737 46.256 163.737ZM53.1691 169C53.4351 164.136 54.2331 161.001 56.9311 157.277H50.6041V154.94H59.9331V156.631C56.6651 160.621 56.2471 163.509 56.0001 169H53.1691ZM70.7601 157.144H74.1041V159.196H70.7601V157.144ZM73.4391 153.097H75.9661V163.262H73.4391V153.097ZM64.2431 163.984H75.9661V170.501H64.2431V163.984ZM73.4961 165.96H66.7321V168.506H73.4961V165.96ZM65.3071 154.731H67.3591V155.833C67.3591 159.158 65.8011 162.198 62.4191 163.3L61.1461 161.305C64.0531 160.355 65.3071 158.056 65.3071 155.833V154.731ZM65.8391 154.731H67.8721V155.833C67.8721 157.885 69.0691 160.051 71.8431 160.982L70.6081 162.977C67.3401 161.894 65.8391 158.968 65.8391 155.833V154.731ZM61.8301 153.99H71.2921V155.985H61.8301V153.99ZM32.62 187.78H33.88V190.72H32.62V187.78ZM32.62 183.01H33.625V183.31C33.625 185.68 32.08 187.51 29.8 188.23L29.23 187.255C31.24 186.655 32.62 185.14 32.62 183.31V183.01ZM32.86 183.01H33.865V183.31C33.865 185.065 35.29 186.535 37.285 187.12L36.715 188.08C34.435 187.405 32.86 185.605 32.86 183.31V183.01ZM29.545 182.38H37V183.385H29.545V182.38ZM32.62 180.7H33.88V182.815H32.62V180.7ZM38.545 180.595H39.79V194.185H38.545V180.595ZM28.99 191.395L28.81 190.345C31.285 190.345 34.705 190.33 37.66 189.88L37.765 190.795C34.72 191.365 31.405 191.38 28.99 191.395ZM52.1038 180.625H53.3638V190.555H52.1038V180.625ZM44.6488 192.85H53.7688V193.87H44.6488V192.85ZM44.6488 189.64H45.8788V193.33H44.6488V189.64ZM45.7738 181.36H46.8088V182.74C46.8088 185.38 45.3088 187.69 43.0288 188.62L42.3838 187.615C44.4238 186.82 45.7738 184.84 45.7738 182.74V181.36ZM45.9988 181.36H47.0188V182.74C47.0188 184.78 48.3838 186.625 50.4088 187.36L49.7488 188.365C47.4988 187.495 45.9988 185.32 45.9988 182.74V181.36ZM62.1321 181.435H63.1521V183.1C63.1521 185.755 61.6821 187.87 59.4021 188.755L58.7421 187.765C60.8121 187.03 62.1321 185.2 62.1321 183.1V181.435ZM62.3421 181.435H63.3621V183.145C63.3621 184.99 64.7121 186.73 66.6921 187.435L66.0771 188.41C63.8421 187.6 62.3421 185.53 62.3421 183.145V181.435ZM68.0721 180.595H69.3171V190.615H68.0721V180.595ZM68.9271 184.765H71.3271V185.8H68.9271V184.765ZM60.9021 192.85H69.9171V193.87H60.9021V192.85ZM60.9021 189.67H62.1471V193.345H60.9021V189.67ZM79.111 183.835H82.756V184.87H79.111V183.835ZM75.991 181.225C78.016 181.225 79.486 182.515 79.486 184.375C79.486 186.235 78.016 187.51 75.991 187.51C73.966 187.51 72.496 186.235 72.496 184.375C72.496 182.515 73.966 181.225 75.991 181.225ZM75.991 182.275C74.656 182.275 73.696 183.13 73.696 184.375C73.696 185.605 74.656 186.475 75.991 186.475C77.326 186.475 78.286 185.605 78.286 184.375C78.286 183.13 77.326 182.275 75.991 182.275ZM82.201 180.61H83.446V187.885H82.201V180.61ZM74.761 188.56H76.006V190.27H82.216V188.56H83.446V193.99H74.761V188.56ZM76.006 191.26V192.985H82.216V191.26H76.006ZM98.6943 180.595H99.9393V194.185H98.6943V180.595ZM92.7843 181.645C94.7943 181.645 96.2343 183.49 96.2343 186.37C96.2343 189.265 94.7943 191.11 92.7843 191.11C90.7893 191.11 89.3493 189.265 89.3493 186.37C89.3493 183.49 90.7893 181.645 92.7843 181.645ZM92.7843 182.77C91.4643 182.77 90.5343 184.18 90.5343 186.37C90.5343 188.575 91.4643 190.015 92.7843 190.015C94.1193 190.015 95.0343 188.575 95.0343 186.37C95.0343 184.18 94.1193 182.77 92.7843 182.77ZM105.458 188.785H106.703V194.275H105.458V188.785ZM110.273 188.785H111.518V194.275H110.273V188.785ZM102.338 188.35H114.638V189.385H102.338V188.35ZM107.828 181.09H108.923V181.84C108.923 184.45 106.283 186.325 103.478 186.835L102.983 185.815C105.443 185.425 107.828 183.79 107.828 181.84V181.09ZM108.053 181.09H109.133V181.84C109.133 183.76 111.548 185.44 113.993 185.815L113.483 186.835C110.693 186.325 108.053 184.42 108.053 181.84V181.09ZM121.342 185.875H123.907V186.91H121.342V185.875ZM126.172 180.61H127.372V194.17H126.172V180.61ZM123.487 180.895H124.672V193.495H123.487V180.895ZM118.897 181.735C120.652 181.735 121.792 183.55 121.792 186.46C121.792 189.37 120.652 191.185 118.897 191.185C117.142 191.185 116.017 189.37 116.017 186.46C116.017 183.55 117.142 181.735 118.897 181.735ZM118.897 182.89C117.832 182.89 117.157 184.27 117.157 186.46C117.157 188.65 117.832 190.03 118.897 190.03C119.977 190.03 120.652 188.65 120.652 186.46C120.652 184.27 119.977 182.89 118.897 182.89ZM133.125 181.66H139.125V182.68H133.125V181.66ZM135.165 184.69H136.395V188.08H135.165V184.69ZM138.63 181.66H139.86V182.38C139.86 183.265 139.86 184.615 139.5 186.4L138.285 186.265C138.63 184.48 138.63 183.25 138.63 182.38V181.66ZM141.705 180.61H142.95V190.825H141.705V180.61ZM142.38 185.02H144.885V186.055H142.38V185.02ZM134.385 192.85H143.385V193.87H134.385V192.85ZM134.385 189.88H135.615V193.165H134.385V189.88ZM132.435 188.665L132.3 187.645C134.715 187.645 138.045 187.585 140.79 187.21L140.88 188.11C138.06 188.605 134.82 188.665 132.435 188.665ZM155.759 180.625H157.019V188.32H155.759V180.625ZM148.259 189.1H157.019V193.99H148.259V189.1ZM155.789 190.09H149.474V192.985H155.789V190.09ZM149.429 181.135H150.464V182.455C150.464 184.975 148.904 187.135 146.609 187.99L145.994 187C148.034 186.265 149.429 184.435 149.429 182.455V181.135ZM149.654 181.135H150.674V182.455C150.674 184.375 152.084 186.07 154.094 186.745L153.479 187.72C151.214 186.94 149.654 184.915 149.654 182.455V181.135ZM169.243 180.595H170.488V194.185H169.243V180.595ZM163.333 181.645C165.343 181.645 166.783 183.49 166.783 186.37C166.783 189.265 165.343 191.11 163.333 191.11C161.338 191.11 159.898 189.265 159.898 186.37C159.898 183.49 161.338 181.645 163.333 181.645ZM163.333 182.77C162.013 182.77 161.083 184.18 161.083 186.37C161.083 188.575 162.013 190.015 163.333 190.015C164.668 190.015 165.583 188.575 165.583 186.37C165.583 184.18 164.668 182.77 163.333 182.77ZM185.226 180.61H186.471V187.525H185.226V180.61ZM185.931 183.655H188.481V184.69H185.931V183.655ZM176.511 181.495H182.736V187.03H176.511V181.495ZM181.521 182.5H177.726V186.04H181.521V182.5ZM177.366 192.79H178.011C178.821 192.79 180.126 192.715 181.281 192.325L181.491 193.33C180.186 193.75 178.941 193.81 178.011 193.81H177.366V192.79ZM177.366 188.77H178.581V193.06H177.366V188.77ZM180.996 188.905H187.806V189.835H180.996V188.905ZM184.416 190.33C185.886 190.33 186.921 191.08 186.921 192.235C186.921 193.42 185.886 194.155 184.416 194.155C182.931 194.155 181.896 193.42 181.896 192.235C181.896 191.08 182.931 190.33 184.416 190.33ZM184.416 191.215C183.576 191.215 183.006 191.62 183.006 192.235C183.006 192.865 183.576 193.27 184.416 193.27C185.226 193.27 185.811 192.865 185.811 192.235C185.811 191.62 185.226 191.215 184.416 191.215ZM183.801 187.72H185.016V189.565H183.801V187.72ZM189.44 187.735H201.695V188.755H189.44V187.735ZM191.03 192.85H200.345V193.87H191.03V192.85ZM191.03 189.94H192.275V193.165H191.03V189.94ZM195.575 181.06C198.47 181.06 200.345 182.08 200.345 183.775C200.345 185.455 198.47 186.475 195.575 186.475C192.665 186.475 190.805 185.455 190.805 183.775C190.805 182.08 192.665 181.06 195.575 181.06ZM195.575 182.08C193.445 182.08 192.08 182.71 192.08 183.775C192.08 184.84 193.445 185.47 195.575 185.47C197.705 185.47 199.07 184.84 199.07 183.775C199.07 182.71 197.705 182.08 195.575 182.08ZM215.293 180.61H216.538V188.665H215.293V180.61ZM216.178 184.135H218.533V185.17H216.178V184.135ZM212.203 188.95C214.948 188.95 216.658 189.925 216.658 191.56C216.658 193.195 214.948 194.155 212.203 194.155C209.458 194.155 207.748 193.195 207.748 191.56C207.748 189.925 209.458 188.95 212.203 188.95ZM212.203 189.97C210.193 189.97 208.963 190.54 208.963 191.56C208.963 192.55 210.193 193.135 212.203 193.135C214.213 193.135 215.443 192.55 215.443 191.56C215.443 190.54 214.213 189.97 212.203 189.97ZM206.608 186.58H207.658C210.463 186.58 212.038 186.49 213.853 186.115L214.003 187.135C212.128 187.51 210.523 187.6 207.658 187.6H206.608V186.58ZM206.608 181.645H212.593V182.665H207.838V187.24H206.608V181.645ZM229.362 180.625H230.622V190.555H229.362V180.625ZM221.907 192.85H231.027V193.87H221.907V192.85ZM221.907 189.64H223.137V193.33H221.907V189.64ZM223.032 181.36H224.067V182.74C224.067 185.38 222.567 187.69 220.287 188.62L219.642 187.615C221.682 186.82 223.032 184.84 223.032 182.74V181.36ZM223.257 181.36H224.277V182.74C224.277 184.78 225.642 186.625 227.667 187.36L227.007 188.365C224.757 187.495 223.257 185.32 223.257 182.74V181.36ZM233.366 195.85L233.051 195.055C233.981 194.635 234.551 193.885 234.551 192.97L234.401 191.74L235.061 192.73C234.881 192.955 234.641 193.03 234.371 193.03C233.846 193.03 233.381 192.685 233.381 192.07C233.381 191.47 233.846 191.11 234.401 191.11C235.121 191.11 235.556 191.725 235.556 192.715C235.556 194.17 234.731 195.295 233.366 195.85ZM39.55 206.65V214.255H36.985V204.325H42.475V206.65H39.55ZM37.48 204.82V213.76H39.055V206.17H41.98V204.82H37.48ZM45.025 211.915H54.34V212.92H45.025V211.915ZM43.45 215.395H55.735V216.43H43.45V215.395ZM45.025 205.765H54.19V206.785H46.285V212.23H45.025V205.765ZM45.88 208.795H53.905V209.785H45.88V208.795ZM57.5638 211.705H58.4338C60.3238 211.705 61.7188 211.66 63.3688 211.33L63.5038 212.32C61.7938 212.65 60.3688 212.725 58.4338 212.725H57.5638V211.705ZM57.5338 205.705H62.3338V209.62H58.7638V212.2H57.5638V208.66H61.1188V206.71H57.5338V205.705ZM62.8588 208.36H65.3638V209.38H62.8588V208.36ZM67.1788 204.61H68.3638V214.81H67.1788V204.61ZM64.5238 204.865H65.6938V214.465H64.5238V204.865ZM59.5288 216.85H68.7838V217.87H59.5288V216.85ZM59.5288 213.805H60.7738V217.495H59.5288V213.805ZM71.9927 211.105H81.3077V212.125H71.9927V211.105ZM70.4477 215.305H82.7327V216.34H70.4477V215.305ZM71.9927 205.855H81.1727V206.89H73.2377V211.555H71.9927V205.855ZM88.456 205.93H97.066V206.95H88.456V205.93ZM86.986 215.305H99.241V216.325H86.986V215.305ZM96.556 205.93H97.771V207.22C97.771 208.87 97.771 210.73 97.216 213.505L95.971 213.355C96.556 210.73 96.556 208.825 96.556 207.22V205.93ZM96.826 209.185V210.13L88.276 210.61L88.081 209.53L96.826 209.185ZM91.756 211.795H93.001V215.68H91.756V211.795ZM110.37 204.595H111.615V218.185H110.37V204.595ZM101.28 213.88H102.405C104.67 213.88 106.695 213.79 109.095 213.4L109.23 214.42C106.77 214.825 104.73 214.915 102.405 214.915H101.28V213.88ZM101.25 205.87H107.52V210.715H102.525V214.27H101.28V209.695H106.26V206.89H101.25V205.87ZM117.599 205.645C119.594 205.645 121.004 207.49 121.004 210.37C121.004 213.265 119.594 215.11 117.599 215.11C115.604 215.11 114.194 213.265 114.194 210.37C114.194 207.49 115.604 205.645 117.599 205.645ZM117.599 206.77C116.279 206.77 115.379 208.18 115.379 210.37C115.379 212.575 116.279 214.015 117.599 214.015C118.904 214.015 119.819 212.575 119.819 210.37C119.819 208.18 118.904 206.77 117.599 206.77ZM123.164 204.61H124.424V218.17H123.164V204.61ZM124.124 210.025H126.644V211.075H124.124V210.025ZM130.462 217V216.205C133.912 213.19 135.487 210.985 135.487 209.11C135.487 207.85 134.842 206.92 133.477 206.92C132.577 206.92 131.797 207.475 131.182 208.195L130.387 207.43C131.287 206.455 132.247 205.81 133.642 205.81C135.607 205.81 136.837 207.085 136.837 209.05C136.837 211.255 135.112 213.49 132.517 215.935C133.102 215.875 133.762 215.83 134.317 215.83H137.362V217H130.462ZM141.992 217.21C139.892 217.21 138.557 215.305 138.557 211.465C138.557 207.655 139.892 205.81 141.992 205.81C144.062 205.81 145.397 207.655 145.397 211.465C145.397 215.305 144.062 217.21 141.992 217.21ZM141.992 216.1C143.237 216.1 144.077 214.705 144.077 211.465C144.077 208.27 143.237 206.905 141.992 206.905C140.732 206.905 139.877 208.27 139.877 211.465C139.877 214.705 140.732 216.1 141.992 216.1ZM146.503 217V216.205C149.953 213.19 151.528 210.985 151.528 209.11C151.528 207.85 150.883 206.92 149.518 206.92C148.618 206.92 147.838 207.475 147.223 208.195L146.428 207.43C147.328 206.455 148.288 205.81 149.683 205.81C151.648 205.81 152.878 207.085 152.878 209.05C152.878 211.255 151.153 213.49 148.558 215.935C149.143 215.875 149.803 215.83 150.358 215.83H153.403V217H146.503ZM157.778 217.21C156.068 217.21 155.018 216.49 154.268 215.74L154.958 214.84C155.573 215.485 156.383 216.07 157.643 216.07C158.948 216.07 159.983 215.065 159.983 213.475C159.983 211.9 159.083 210.955 157.718 210.955C156.983 210.955 156.518 211.195 155.888 211.615L155.153 211.15L155.498 206.005H160.853V207.175H156.698L156.413 210.355C156.908 210.085 157.403 209.92 158.063 209.92C159.893 209.92 161.378 211 161.378 213.43C161.378 215.83 159.623 217.21 157.778 217.21ZM165.318 215.965V208.36H167.883V218.29H162.393V215.965H165.318ZM167.388 217.795V208.855H165.813V216.445H162.888V217.795H167.388ZM175.623 209.875H178.188V210.91H175.623V209.875ZM180.453 204.61H181.653V218.17H180.453V204.61ZM177.768 204.895H178.953V217.495H177.768V204.895ZM173.178 205.735C174.933 205.735 176.073 207.55 176.073 210.46C176.073 213.37 174.933 215.185 173.178 215.185C171.423 215.185 170.298 213.37 170.298 210.46C170.298 207.55 171.423 205.735 173.178 205.735ZM173.178 206.89C172.113 206.89 171.438 208.27 171.438 210.46C171.438 212.65 172.113 214.03 173.178 214.03C174.258 214.03 174.933 212.65 174.933 210.46C174.933 208.27 174.258 206.89 173.178 206.89ZM197.007 204.61H198.207V218.17H197.007V204.61ZM191.127 210.145H194.547V211.15H191.127V210.145ZM194.187 204.955H195.357V217.48H194.187V204.955ZM191.292 206.32H192.492C192.492 209.875 191.067 213.07 187.407 215.245L186.672 214.36C189.867 212.44 191.292 209.74 191.292 206.545V206.32ZM187.272 206.32H191.757V207.34H187.272V206.32ZM210.55 204.61H211.735V218.17H210.55V204.61ZM208.405 210.07H211.015V211.12H208.405V210.07ZM207.595 204.895H208.765V217.495H207.595V204.895ZM202.975 206.71H203.95V208.27C203.95 211.525 202.885 214.135 200.8 215.38L200.035 214.42C201.985 213.34 202.975 211.03 202.975 208.27V206.71ZM203.2 206.71H204.175V208.27C204.175 210.76 205.18 212.965 207.085 213.94L206.35 214.9C204.28 213.76 203.2 211.255 203.2 208.27V206.71ZM200.35 206.2H206.65V207.235H200.35V206.2ZM214.944 209.035H221.484V210.055H214.944V209.035ZM217.554 209.65H218.799V212.365H217.554V209.65ZM214.944 205.495H221.394V206.515H216.189V209.485H214.944V205.495ZM223.524 204.61H224.769V214.75H223.524V204.61ZM216.009 216.85H225.219V217.87H216.009V216.85ZM216.009 214.09H217.239V217.285H216.009V214.09ZM213.909 213.04L213.744 212.02C216.354 212.02 219.654 211.96 222.444 211.63L222.519 212.545C219.654 212.965 216.444 213.04 213.909 213.04ZM183.568 230.02H184.768C184.768 233.935 183.388 237.565 178.498 239.965L177.823 238.99C182.113 236.89 183.568 233.86 183.568 230.155V230.02ZM178.558 230.02H184.198V231.025H178.558V230.02ZM183.388 233.38V234.34L178.093 234.835L177.883 233.74L183.388 233.38ZM187.438 228.61H188.683V242.17H187.438V228.61ZM194.741 236.185H195.971V241.75H194.741V236.185ZM200.951 228.61H202.196V242.185H200.951V228.61ZM191.171 236.8L191.006 235.75C193.571 235.75 196.976 235.735 199.916 235.315L199.991 236.245C196.961 236.755 193.691 236.8 191.171 236.8ZM197.876 237.865H201.266V238.84H197.876V237.865ZM195.431 229.285C197.426 229.285 198.821 230.35 198.821 231.955C198.821 233.56 197.426 234.625 195.431 234.625C193.406 234.625 192.026 233.56 192.026 231.955C192.026 230.35 193.406 229.285 195.431 229.285ZM195.431 230.245C194.111 230.245 193.181 230.95 193.181 231.955C193.181 232.975 194.111 233.665 195.431 233.665C196.721 233.665 197.651 232.975 197.651 231.955C197.651 230.95 196.721 230.245 195.431 230.245ZM206.11 235.105H215.425V236.125H206.11V235.105ZM204.565 239.305H216.85V240.34H204.565V239.305ZM206.11 229.855H215.29V230.89H207.355V235.555H206.11V229.855ZM223.554 233.875H226.119V234.91H223.554V233.875ZM228.384 228.61H229.584V242.17H228.384V228.61ZM225.699 228.895H226.884V241.495H225.699V228.895ZM221.109 229.735C222.864 229.735 224.004 231.55 224.004 234.46C224.004 237.37 222.864 239.185 221.109 239.185C219.354 239.185 218.229 237.37 218.229 234.46C218.229 231.55 219.354 229.735 221.109 229.735ZM221.109 230.89C220.044 230.89 219.369 232.27 219.369 234.46C219.369 236.65 220.044 238.03 221.109 238.03C222.189 238.03 222.864 236.65 222.864 234.46C222.864 232.27 222.189 230.89 221.109 230.89ZM34.18 253.945H35.26V254.515C35.26 256.945 32.68 258.73 29.95 259.195L29.47 258.205C31.855 257.86 34.18 256.3 34.18 254.515V253.945ZM34.495 253.945H35.56V254.515C35.56 256.3 37.9 257.86 40.27 258.205L39.805 259.195C37.06 258.73 34.495 256.945 34.495 254.515V253.945ZM34.225 260.995H35.455V266.17H34.225V260.995ZM28.75 260.335H41.005V261.355H28.75V260.335ZM29.89 253.45H39.82V254.455H29.89V253.45ZM43.8088 253.165H52.9288V257.785H43.8088V253.165ZM51.6988 254.17H45.0238V256.78H51.6988V254.17ZM42.2338 259.48H54.4888V260.485H42.2338V259.48ZM47.7538 257.515H48.9838V259.855H47.7538V257.515ZM43.5988 261.88H52.9738V266.17H51.7288V262.9H43.5988V261.88ZM55.7177 254.92H62.4377V255.94H55.7177V254.92ZM59.0777 256.84C60.7727 256.84 62.0027 258.115 62.0027 259.945C62.0027 261.76 60.7727 263.035 59.0777 263.035C57.3977 263.035 56.1677 261.76 56.1677 259.945C56.1677 258.115 57.3977 256.84 59.0777 256.84ZM59.0777 257.905C58.0427 257.905 57.2927 258.745 57.2927 259.945C57.2927 261.145 58.0427 261.985 59.0777 261.985C60.1277 261.985 60.8927 261.145 60.8927 259.945C60.8927 258.745 60.1277 257.905 59.0777 257.905ZM66.0227 252.61H67.2227V266.17H66.0227V252.61ZM63.8627 258.31H66.4277V259.345H63.8627V258.31ZM63.1277 252.91H64.2977V265.51H63.1277V252.91ZM58.4777 253H59.7077V255.55H58.4777V253ZM72.301 263.41H84.586V264.445H72.301V263.41ZM77.791 260.17H79.036V263.71H77.791V260.17ZM73.741 253.57H74.971V255.985H81.886V253.57H83.116V260.5H73.741V253.57ZM74.971 256.99V259.48H81.886V256.99H74.971ZM91.1398 257.455H93.7348V258.49H91.1398V257.455ZM88.6048 253.885H89.5798V256.465C89.5798 259.3 88.3948 262.045 86.4148 263.26L85.6348 262.315C87.4948 261.22 88.6048 258.79 88.6048 256.465V253.885ZM88.8448 253.885H89.8048V256.42C89.8048 258.595 90.8248 260.905 92.6098 261.985L91.8898 262.96C89.9398 261.76 88.8448 259.06 88.8448 256.42V253.885ZM96.1198 252.61H97.3198V266.17H96.1198V252.61ZM93.3748 252.895H94.5448V265.495H93.3748V252.895ZM102.299 259.585H103.529V263.65H102.299V259.585ZM107.309 259.585H108.554V263.65H107.309V259.585ZM99.2986 263.41H111.584V264.445H99.2986V263.41ZM105.419 253.465C108.284 253.465 110.339 254.83 110.339 256.96C110.339 259.075 108.284 260.44 105.419 260.44C102.539 260.44 100.484 259.075 100.484 256.96C100.484 254.83 102.539 253.465 105.419 253.465ZM105.419 254.455C103.244 254.455 101.684 255.445 101.684 256.96C101.684 258.46 103.244 259.45 105.419 259.45C107.594 259.45 109.139 258.46 109.139 256.96C109.139 255.445 107.594 254.455 105.419 254.455ZM113.997 261.685L113.802 255.34L113.772 253.765H115.152L115.122 255.34L114.927 261.685H113.997ZM114.447 265.21C113.907 265.21 113.472 264.775 113.472 264.16C113.472 263.53 113.907 263.11 114.447 263.11C115.002 263.11 115.452 263.53 115.452 264.16C115.452 264.775 115.002 265.21 114.447 265.21Z" fill="black"/>
<path d="M38.755 228.445H40.66V242.335H38.755V228.445ZM34.69 233.5H36.55V235.255H34.69V233.5ZM35.995 228.715H37.87V241.69H35.995V228.715ZM28.705 230.005H35.02V231.595H28.705V230.005ZM28.675 239.185L28.465 237.565C30.205 237.565 33.13 237.52 35.23 237.235L35.365 238.675C33.205 239.14 30.385 239.185 28.675 239.185ZM29.56 231.025H31.345V237.985H29.56V231.025ZM32.35 231.025H34.15V237.985H32.35V231.025ZM51.6238 228.43H53.6338V242.365H51.6238V228.43ZM46.1488 229.405C48.2488 229.405 49.7938 231.325 49.7938 234.355C49.7938 237.415 48.2488 239.335 46.1488 239.335C44.0488 239.335 42.5038 237.415 42.5038 234.355C42.5038 231.325 44.0488 229.405 46.1488 229.405ZM46.1488 231.22C45.1138 231.22 44.4088 232.315 44.4088 234.355C44.4088 236.425 45.1138 237.535 46.1488 237.535C47.1838 237.535 47.8738 236.425 47.8738 234.355C47.8738 232.315 47.1838 231.22 46.1488 231.22ZM60.7577 229.24H62.4977V230.245C62.4977 233.26 60.3527 235.93 56.7527 236.635L55.8977 234.985C59.0327 234.445 60.7577 232.24 60.7577 230.245V229.24ZM61.1627 229.24H62.8877V230.245C62.8877 232.285 64.5977 234.445 67.7477 234.985L66.8927 236.635C63.2927 235.93 61.1627 233.305 61.1627 230.245V229.24ZM55.6127 239.02H68.1827V240.64H55.6127V239.02ZM74.7515 233.5H77.2115V235.105H74.7515V233.5ZM69.5015 237.685H70.4465C72.3965 237.685 73.6565 237.655 75.1715 237.4L75.3365 238.99C73.7765 239.26 72.4415 239.29 70.4465 239.29H69.5015V237.685ZM69.5015 229.975H74.6615V231.55H71.3915V238.27H69.5015V229.975ZM70.8515 233.71H74.1365V235.24H70.8515V233.71ZM79.1315 228.445H81.0365V242.335H79.1315V228.445ZM76.2665 228.685H78.1265V241.72H76.2665V228.685ZM84.0203 229.66H92.7653V231.25H84.0203V229.66ZM82.6103 239.065H95.1653V240.7H82.6103V239.065ZM91.9253 229.66H93.8903V231.265C93.8903 233.29 93.8903 235.21 93.2453 238.24L91.2803 238.06C91.9253 235.255 91.9253 233.23 91.9253 231.265V229.66ZM92.3453 233.47V234.94L83.8553 235.36L83.6153 233.755L92.3453 233.47ZM96.7391 244.21L96.2891 243.01C97.4591 242.575 98.1041 241.78 98.0891 240.895L98.0141 239.335L98.7941 240.625C98.5691 240.85 98.2691 240.955 97.9391 240.955C97.2191 240.955 96.5591 240.475 96.5591 239.65C96.5591 238.855 97.2041 238.345 97.9991 238.345C99.0041 238.345 99.5741 239.155 99.5741 240.505C99.5741 242.275 98.5691 243.61 96.7391 244.21ZM109.981 237.085C112.981 237.085 114.901 238.075 114.901 239.725C114.901 241.345 112.981 242.335 109.981 242.335C106.981 242.335 105.061 241.345 105.061 239.725C105.061 238.075 106.981 237.085 109.981 237.085ZM109.981 238.585C108.106 238.585 107.041 238.975 107.041 239.725C107.041 240.46 108.106 240.835 109.981 240.835C111.856 240.835 112.921 240.46 112.921 239.725C112.921 238.975 111.856 238.585 109.981 238.585ZM105.211 229.06H114.001V230.635H105.211V229.06ZM103.801 234.64H116.311V236.23H103.801V234.64ZM108.436 232.225H110.416V235.045H108.436V232.225ZM112.846 229.06H114.826V230.2C114.826 231.295 114.826 232.48 114.451 233.92L112.471 233.71C112.846 232.285 112.846 231.28 112.846 230.2V229.06ZM120.644 229.99H122.294V231.16C122.294 233.785 121.019 236.155 118.349 237.025L117.329 235.465C119.639 234.715 120.644 232.915 120.644 231.16V229.99ZM121.049 229.99H122.684V231.16C122.684 232.81 123.674 234.505 125.939 235.225L124.919 236.77C122.309 235.945 121.049 233.68 121.049 231.16V229.99ZM117.854 229.435H125.414V231.01H117.854V229.435ZM126.809 228.46H128.819V238.48H126.809V228.46ZM119.564 240.505H129.164V242.095H119.564V240.505ZM119.564 237.58H121.559V241.3H119.564V237.58ZM133.978 236.665H135.973V238.915H133.978V236.665ZM139.813 228.445H141.823V242.335H139.813V228.445ZM141.118 234.085H143.563V235.735H141.118V234.085ZM130.858 240.025L130.618 238.42C133.018 238.42 136.318 238.405 139.123 238.015L139.273 239.455C136.348 240.025 133.198 240.025 130.858 240.025ZM130.873 229.975H139.048V231.535H130.873V229.975ZM134.983 232.09C136.963 232.09 138.373 233.14 138.373 234.685C138.373 236.245 136.963 237.295 134.983 237.295C132.988 237.295 131.593 236.245 131.593 234.685C131.593 233.14 132.988 232.09 134.983 232.09ZM134.983 233.59C134.068 233.59 133.483 233.98 133.483 234.685C133.483 235.405 134.068 235.795 134.983 235.795C135.883 235.795 136.483 235.405 136.483 234.685C136.483 233.98 135.883 233.59 134.983 233.59ZM133.978 228.52H135.973V231.145H133.978V228.52ZM154.805 232.03H158.045V233.635H154.805V232.03ZM156.995 228.46H158.99V238.585H156.995V228.46ZM149.825 240.505H159.305V242.095H149.825V240.505ZM149.825 237.73H151.82V241.45H149.825V237.73ZM150.575 230.275H152.195V231.145C152.195 233.755 150.965 236.17 148.295 237.055L147.29 235.465C149.585 234.715 150.575 232.9 150.575 231.145V230.275ZM150.995 230.275H152.6V231.145C152.6 232.765 153.545 234.49 155.735 235.225L154.76 236.785C152.18 235.93 150.995 233.62 150.995 231.145V230.275ZM147.83 229.39H155.3V230.965H147.83V229.39ZM171.229 230.35H173.629V231.985H171.229V230.35ZM171.229 233.32H173.629V234.94H171.229V233.32ZM161.359 234.79H162.529C165.259 234.79 166.939 234.73 168.859 234.37L169.039 235.96C167.089 236.335 165.334 236.41 162.529 236.41H161.359V234.79ZM161.344 229.21H167.689V233.485H163.339V235.555H161.359V232H165.724V230.8H161.344V229.21ZM169.804 228.46H171.799V236.89H169.804V228.46ZM162.529 237.52H171.799V242.335H169.804V239.11H162.529V237.52Z" fill="#7C63B0"/>
<rect width="1" height="226" transform="translate(28 292) rotate(-90)" fill="black"/>
<path d="M33.586 332.266C30.888 332.266 28.893 330.727 28.893 328.523C28.893 326.718 29.995 325.521 31.287 324.837V324.761C30.223 323.982 29.425 322.899 29.425 321.417C29.425 319.156 31.23 317.712 33.681 317.712C36.17 317.712 37.766 319.194 37.766 321.436C37.766 322.842 36.873 324.001 35.961 324.666V324.761C37.253 325.464 38.317 326.585 38.317 328.523C38.317 330.651 36.417 332.266 33.586 332.266ZM34.479 323.982C35.163 323.26 35.486 322.462 35.486 321.626C35.486 320.467 34.783 319.669 33.624 319.669C32.655 319.669 31.895 320.296 31.895 321.417C31.895 322.728 32.997 323.393 34.479 323.982ZM33.643 330.29C34.859 330.29 35.714 329.625 35.714 328.409C35.714 326.946 34.403 326.357 32.598 325.597C31.819 326.205 31.287 327.155 31.287 328.2C31.287 329.473 32.332 330.29 33.643 330.29ZM46.256 326.737C44.527 326.737 43.729 325.046 42.532 325.046C41.943 325.046 41.411 325.483 40.955 326.3L39.492 325.198C40.461 323.64 41.544 323.051 42.57 323.051C44.337 323.051 45.116 324.742 46.294 324.742C46.902 324.742 47.434 324.305 47.89 323.488L49.353 324.59C48.365 326.148 47.301 326.737 46.256 326.737ZM54.4991 332.266C52.7321 332.266 51.4781 331.544 50.6231 330.67L52.1051 328.979C52.6371 329.568 53.4921 330.005 54.3281 330.005C55.9811 330.005 57.3301 328.675 57.3301 324.647C57.3301 321.056 56.2471 319.783 54.8791 319.783C53.8151 319.783 52.9601 320.638 52.9601 322.386C52.9601 324.02 53.7581 324.818 54.9551 324.818C55.7531 324.818 56.6271 324.381 57.3111 323.222L57.4631 325.122C56.7031 326.167 55.4301 326.794 54.4421 326.794C52.0861 326.794 50.4141 325.369 50.4141 322.386C50.4141 319.479 52.4281 317.693 54.8221 317.693C57.5011 317.693 59.8951 319.783 59.8951 324.647C59.8951 329.967 57.2921 332.266 54.4991 332.266ZM70.7601 320.144H74.1041V322.196H70.7601V320.144ZM73.4391 316.097H75.9661V326.262H73.4391V316.097ZM64.2431 326.984H75.9661V333.501H64.2431V326.984ZM73.4961 328.96H66.7321V331.506H73.4961V328.96ZM65.3071 317.731H67.3591V318.833C67.3591 322.158 65.8011 325.198 62.4191 326.3L61.1461 324.305C64.0531 323.355 65.3071 321.056 65.3071 318.833V317.731ZM65.8391 317.731H67.8721V318.833C67.8721 320.885 69.0691 323.051 71.8431 323.982L70.6081 325.977C67.3401 324.894 65.8391 321.968 65.8391 318.833V317.731ZM61.8301 316.99H71.2921V318.985H61.8301V316.99ZM32.065 344.78H33.085V347.21C33.085 350.21 31.465 353.135 29.32 354.275L28.555 353.285C30.52 352.295 32.065 349.685 32.065 347.21V344.78ZM32.29 344.78H33.295V347.21C33.295 349.595 34.81 352.07 36.73 353.03L35.965 354.02C33.865 352.895 32.29 350.12 32.29 347.21V344.78ZM37.915 343.61H39.175V357.17H37.915V343.61ZM38.875 349.1H41.395V350.15H38.875V349.1ZM51.5188 343.625H52.7638V351.695H51.5188V343.625ZM52.3888 347.075H54.7738V348.125H52.3888V347.075ZM44.2138 352.37H52.7638V356.99H44.2138V352.37ZM51.5488 353.36H45.4438V355.985H51.5488V353.36ZM42.8338 349.97H43.8988C46.3588 349.97 48.1138 349.91 50.2288 349.535L50.3338 350.555C48.1888 350.915 46.4038 351.005 43.8988 351.005H42.8338V349.97ZM42.8038 344.345H48.9088V348.065H44.0488V350.555H42.8338V347.105H47.6788V345.365H42.8038V344.345ZM56.3477 345.095H62.4827V346.1H56.3477V345.095ZM58.4627 348.965H59.6927V353.555H58.4627V348.965ZM61.9727 345.095H63.1877V345.815C63.1877 346.925 63.1877 348.695 62.7977 351.215L61.5677 351.095C61.9727 348.65 61.9727 346.91 61.9727 345.815V345.095ZM64.8977 343.61H66.1277V357.17H64.8977V343.61ZM65.7977 349.28H68.3027V350.33H65.7977V349.28ZM55.7477 354.215L55.5977 353.165C58.0577 353.165 61.3277 353.12 64.0727 352.775L64.1327 353.69C61.3277 354.14 58.1477 354.2 55.7477 354.215ZM75.646 345.545H76.636V347.75C76.636 350.57 74.911 353.48 72.796 354.56L72.076 353.57C74.011 352.625 75.646 350.045 75.646 347.75V345.545ZM75.871 345.545H76.861V347.75C76.861 349.895 78.391 352.31 80.356 353.24L79.651 354.23C77.506 353.165 75.871 350.435 75.871 347.75V345.545ZM72.556 344.99H79.861V346.04H72.556V344.99ZM81.466 343.61H82.726V357.17H81.466V343.61ZM82.426 349.085H84.946V350.135H82.426V349.085ZM92.0698 345.725H96.1498V346.745H92.0698V345.725ZM92.0698 348.98H96.1498V350H92.0698V348.98ZM95.6998 343.625H96.9448V353.645H95.6998V343.625ZM88.2898 355.85H97.3198V356.87H88.2898V355.85ZM88.2898 352.61H89.5348V356.3H88.2898V352.61ZM89.4898 344.48C91.4848 344.48 92.9848 345.875 92.9848 347.87C92.9848 349.865 91.4848 351.26 89.4898 351.26C87.4948 351.26 85.9948 349.865 85.9948 347.87C85.9948 345.875 87.4948 344.48 89.4898 344.48ZM89.4898 345.575C88.1698 345.575 87.1948 346.535 87.1948 347.87C87.1948 349.22 88.1698 350.18 89.4898 350.18C90.8098 350.18 91.7998 349.22 91.7998 347.87C91.7998 346.535 90.8098 345.575 89.4898 345.575ZM104.789 348.875H107.354V349.91H104.789V348.875ZM109.619 343.61H110.819V357.17H109.619V343.61ZM106.934 343.895H108.119V356.495H106.934V343.895ZM102.344 344.735C104.099 344.735 105.239 346.55 105.239 349.46C105.239 352.37 104.099 354.185 102.344 354.185C100.589 354.185 99.4636 352.37 99.4636 349.46C99.4636 346.55 100.589 344.735 102.344 344.735ZM102.344 345.89C101.279 345.89 100.604 347.27 100.604 349.46C100.604 351.65 101.279 353.03 102.344 353.03C103.424 353.03 104.099 351.65 104.099 349.46C104.099 347.27 103.424 345.89 102.344 345.89ZM116.572 344.66H122.572V345.68H116.572V344.66ZM118.612 347.69H119.842V351.08H118.612V347.69ZM122.077 344.66H123.307V345.38C123.307 346.265 123.307 347.615 122.947 349.4L121.732 349.265C122.077 347.48 122.077 346.25 122.077 345.38V344.66ZM125.152 343.61H126.397V353.825H125.152V343.61ZM125.827 348.02H128.332V349.055H125.827V348.02ZM117.832 355.85H126.832V356.87H117.832V355.85ZM117.832 352.88H119.062V356.165H117.832V352.88ZM115.882 351.665L115.747 350.645C118.162 350.645 121.492 350.585 124.237 350.21L124.327 351.11C121.507 351.605 118.267 351.665 115.882 351.665ZM139.206 343.625H140.466V351.32H139.206V343.625ZM131.706 352.1H140.466V356.99H131.706V352.1ZM139.236 353.09H132.921V355.985H139.236V353.09ZM132.876 344.135H133.911V345.455C133.911 347.975 132.351 350.135 130.056 350.99L129.441 350C131.481 349.265 132.876 347.435 132.876 345.455V344.135ZM133.101 344.135H134.121V345.455C134.121 347.375 135.531 349.07 137.541 349.745L136.926 350.72C134.661 349.94 133.101 347.915 133.101 345.455V344.135ZM152.69 343.595H153.935V357.185H152.69V343.595ZM146.78 344.645C148.79 344.645 150.23 346.49 150.23 349.37C150.23 352.265 148.79 354.11 146.78 354.11C144.785 354.11 143.345 352.265 143.345 349.37C143.345 346.49 144.785 344.645 146.78 344.645ZM146.78 345.77C145.46 345.77 144.53 347.18 144.53 349.37C144.53 351.575 145.46 353.015 146.78 353.015C148.115 353.015 149.03 351.575 149.03 349.37C149.03 347.18 148.115 345.77 146.78 345.77ZM168.673 343.61H169.918V350.525H168.673V343.61ZM169.378 346.655H171.928V347.69H169.378V346.655ZM159.958 344.495H166.183V350.03H159.958V344.495ZM164.968 345.5H161.173V349.04H164.968V345.5ZM160.813 355.79H161.458C162.268 355.79 163.573 355.715 164.728 355.325L164.938 356.33C163.633 356.75 162.388 356.81 161.458 356.81H160.813V355.79ZM160.813 351.77H162.028V356.06H160.813V351.77ZM164.443 351.905H171.253V352.835H164.443V351.905ZM167.863 353.33C169.333 353.33 170.368 354.08 170.368 355.235C170.368 356.42 169.333 357.155 167.863 357.155C166.378 357.155 165.343 356.42 165.343 355.235C165.343 354.08 166.378 353.33 167.863 353.33ZM167.863 354.215C167.023 354.215 166.453 354.62 166.453 355.235C166.453 355.865 167.023 356.27 167.863 356.27C168.673 356.27 169.258 355.865 169.258 355.235C169.258 354.62 168.673 354.215 167.863 354.215ZM167.248 350.72H168.463V352.565H167.248V350.72ZM172.887 350.735H185.142V351.755H172.887V350.735ZM174.477 355.85H183.792V356.87H174.477V355.85ZM174.477 352.94H175.722V356.165H174.477V352.94ZM179.022 344.06C181.917 344.06 183.792 345.08 183.792 346.775C183.792 348.455 181.917 349.475 179.022 349.475C176.112 349.475 174.252 348.455 174.252 346.775C174.252 345.08 176.112 344.06 179.022 344.06ZM179.022 345.08C176.892 345.08 175.527 345.71 175.527 346.775C175.527 347.84 176.892 348.47 179.022 348.47C181.152 348.47 182.517 347.84 182.517 346.775C182.517 345.71 181.152 345.08 179.022 345.08ZM198.74 343.61H199.985V351.665H198.74V343.61ZM199.625 347.135H201.98V348.17H199.625V347.135ZM195.65 351.95C198.395 351.95 200.105 352.925 200.105 354.56C200.105 356.195 198.395 357.155 195.65 357.155C192.905 357.155 191.195 356.195 191.195 354.56C191.195 352.925 192.905 351.95 195.65 351.95ZM195.65 352.97C193.64 352.97 192.41 353.54 192.41 354.56C192.41 355.55 193.64 356.135 195.65 356.135C197.66 356.135 198.89 355.55 198.89 354.56C198.89 353.54 197.66 352.97 195.65 352.97ZM190.055 349.58H191.105C193.91 349.58 195.485 349.49 197.3 349.115L197.45 350.135C195.575 350.51 193.97 350.6 191.105 350.6H190.055V349.58ZM190.055 344.645H196.04V345.665H191.285V350.24H190.055V344.645ZM212.809 343.625H214.069V353.555H212.809V343.625ZM205.354 355.85H214.474V356.87H205.354V355.85ZM205.354 352.64H206.584V356.33H205.354V352.64ZM206.479 344.36H207.514V345.74C207.514 348.38 206.014 350.69 203.734 351.62L203.089 350.615C205.129 349.82 206.479 347.84 206.479 345.74V344.36ZM206.704 344.36H207.724V345.74C207.724 347.78 209.089 349.625 211.114 350.36L210.454 351.365C208.204 350.495 206.704 348.32 206.704 345.74V344.36ZM216.813 358.85L216.498 358.055C217.428 357.635 217.998 356.885 217.998 355.97L217.848 354.74L218.508 355.73C218.328 355.955 218.088 356.03 217.818 356.03C217.293 356.03 216.828 355.685 216.828 355.07C216.828 354.47 217.293 354.11 217.848 354.11C218.568 354.11 219.003 354.725 219.003 355.715C219.003 357.17 218.178 358.295 216.813 358.85ZM39.55 369.65V377.255H36.985V367.325H42.475V369.65H39.55ZM37.48 367.82V376.76H39.055V369.17H41.98V367.82H37.48ZM45.025 374.915H54.34V375.92H45.025V374.915ZM43.45 378.395H55.735V379.43H43.45V378.395ZM45.025 368.765H54.19V369.785H46.285V375.23H45.025V368.765ZM45.88 371.795H53.905V372.785H45.88V371.795ZM57.5638 374.705H58.4338C60.3238 374.705 61.7188 374.66 63.3688 374.33L63.5038 375.32C61.7938 375.65 60.3688 375.725 58.4338 375.725H57.5638V374.705ZM57.5338 368.705H62.3338V372.62H58.7638V375.2H57.5638V371.66H61.1188V369.71H57.5338V368.705ZM62.8588 371.36H65.3638V372.38H62.8588V371.36ZM67.1788 367.61H68.3638V377.81H67.1788V367.61ZM64.5238 367.865H65.6938V377.465H64.5238V367.865ZM59.5288 379.85H68.7838V380.87H59.5288V379.85ZM59.5288 376.805H60.7738V380.495H59.5288V376.805ZM71.9927 374.105H81.3077V375.125H71.9927V374.105ZM70.4477 378.305H82.7327V379.34H70.4477V378.305ZM71.9927 368.855H81.1727V369.89H73.2377V374.555H71.9927V368.855ZM88.456 368.93H97.066V369.95H88.456V368.93ZM86.986 378.305H99.241V379.325H86.986V378.305ZM96.556 368.93H97.771V370.22C97.771 371.87 97.771 373.73 97.216 376.505L95.971 376.355C96.556 373.73 96.556 371.825 96.556 370.22V368.93ZM96.826 372.185V373.13L88.276 373.61L88.081 372.53L96.826 372.185ZM91.756 374.795H93.001V378.68H91.756V374.795ZM110.37 367.595H111.615V381.185H110.37V367.595ZM101.28 376.88H102.405C104.67 376.88 106.695 376.79 109.095 376.4L109.23 377.42C106.77 377.825 104.73 377.915 102.405 377.915H101.28V376.88ZM101.25 368.87H107.52V373.715H102.525V377.27H101.28V372.695H106.26V369.89H101.25V368.87ZM117.599 368.645C119.594 368.645 121.004 370.49 121.004 373.37C121.004 376.265 119.594 378.11 117.599 378.11C115.604 378.11 114.194 376.265 114.194 373.37C114.194 370.49 115.604 368.645 117.599 368.645ZM117.599 369.77C116.279 369.77 115.379 371.18 115.379 373.37C115.379 375.575 116.279 377.015 117.599 377.015C118.904 377.015 119.819 375.575 119.819 373.37C119.819 371.18 118.904 369.77 117.599 369.77ZM123.164 367.61H124.424V381.17H123.164V367.61ZM124.124 373.025H126.644V374.075H124.124V373.025ZM130.462 380V379.205C133.912 376.19 135.487 373.985 135.487 372.11C135.487 370.85 134.842 369.92 133.477 369.92C132.577 369.92 131.797 370.475 131.182 371.195L130.387 370.43C131.287 369.455 132.247 368.81 133.642 368.81C135.607 368.81 136.837 370.085 136.837 372.05C136.837 374.255 135.112 376.49 132.517 378.935C133.102 378.875 133.762 378.83 134.317 378.83H137.362V380H130.462ZM141.992 380.21C139.892 380.21 138.557 378.305 138.557 374.465C138.557 370.655 139.892 368.81 141.992 368.81C144.062 368.81 145.397 370.655 145.397 374.465C145.397 378.305 144.062 380.21 141.992 380.21ZM141.992 379.1C143.237 379.1 144.077 377.705 144.077 374.465C144.077 371.27 143.237 369.905 141.992 369.905C140.732 369.905 139.877 371.27 139.877 374.465C139.877 377.705 140.732 379.1 141.992 379.1ZM146.503 380V379.205C149.953 376.19 151.528 373.985 151.528 372.11C151.528 370.85 150.883 369.92 149.518 369.92C148.618 369.92 147.838 370.475 147.223 371.195L146.428 370.43C147.328 369.455 148.288 368.81 149.683 368.81C151.648 368.81 152.878 370.085 152.878 372.05C152.878 374.255 151.153 376.49 148.558 378.935C149.143 378.875 149.803 378.83 150.358 378.83H153.403V380H146.503ZM157.778 380.21C156.068 380.21 155.018 379.49 154.268 378.74L154.958 377.84C155.573 378.485 156.383 379.07 157.643 379.07C158.948 379.07 159.983 378.065 159.983 376.475C159.983 374.9 159.083 373.955 157.718 373.955C156.983 373.955 156.518 374.195 155.888 374.615L155.153 374.15L155.498 369.005H160.853V370.175H156.698L156.413 373.355C156.908 373.085 157.403 372.92 158.063 372.92C159.893 372.92 161.378 374 161.378 376.43C161.378 378.83 159.623 380.21 157.778 380.21ZM165.318 378.965V371.36H167.883V381.29H162.393V378.965H165.318ZM167.388 380.795V371.855H165.813V379.445H162.888V380.795H167.388ZM175.623 372.875H178.188V373.91H175.623V372.875ZM180.453 367.61H181.653V381.17H180.453V367.61ZM177.768 367.895H178.953V380.495H177.768V367.895ZM173.178 368.735C174.933 368.735 176.073 370.55 176.073 373.46C176.073 376.37 174.933 378.185 173.178 378.185C171.423 378.185 170.298 376.37 170.298 373.46C170.298 370.55 171.423 368.735 173.178 368.735ZM173.178 369.89C172.113 369.89 171.438 371.27 171.438 373.46C171.438 375.65 172.113 377.03 173.178 377.03C174.258 377.03 174.933 375.65 174.933 373.46C174.933 371.27 174.258 369.89 173.178 369.89ZM197.007 367.61H198.207V381.17H197.007V367.61ZM191.127 373.145H194.547V374.15H191.127V373.145ZM194.187 367.955H195.357V380.48H194.187V367.955ZM191.292 369.32H192.492C192.492 372.875 191.067 376.07 187.407 378.245L186.672 377.36C189.867 375.44 191.292 372.74 191.292 369.545V369.32ZM187.272 369.32H191.757V370.34H187.272V369.32ZM210.55 367.61H211.735V381.17H210.55V367.61ZM208.405 373.07H211.015V374.12H208.405V373.07ZM207.595 367.895H208.765V380.495H207.595V367.895ZM202.975 369.71H203.95V371.27C203.95 374.525 202.885 377.135 200.8 378.38L200.035 377.42C201.985 376.34 202.975 374.03 202.975 371.27V369.71ZM203.2 369.71H204.175V371.27C204.175 373.76 205.18 375.965 207.085 376.94L206.35 377.9C204.28 376.76 203.2 374.255 203.2 371.27V369.71ZM200.35 369.2H206.65V370.235H200.35V369.2ZM214.944 372.035H221.484V373.055H214.944V372.035ZM217.554 372.65H218.799V375.365H217.554V372.65ZM214.944 368.495H221.394V369.515H216.189V372.485H214.944V368.495ZM223.524 367.61H224.769V377.75H223.524V367.61ZM216.009 379.85H225.219V380.87H216.009V379.85ZM216.009 377.09H217.239V380.285H216.009V377.09ZM213.909 376.04L213.744 375.02C216.354 375.02 219.654 374.96 222.444 374.63L222.519 375.545C219.654 375.965 216.444 376.04 213.909 376.04ZM190.452 393.02H191.652C191.652 396.935 190.272 400.565 185.382 402.965L184.707 401.99C188.997 399.89 190.452 396.86 190.452 393.155V393.02ZM185.442 393.02H191.082V394.025H185.442V393.02ZM190.272 396.38V397.34L184.977 397.835L184.767 396.74L190.272 396.38ZM194.322 391.61H195.567V405.17H194.322V391.61ZM201.626 399.185H202.856V404.75H201.626V399.185ZM207.836 391.61H209.081V405.185H207.836V391.61ZM198.056 399.8L197.891 398.75C200.456 398.75 203.861 398.735 206.801 398.315L206.876 399.245C203.846 399.755 200.576 399.8 198.056 399.8ZM204.761 400.865H208.151V401.84H204.761V400.865ZM202.316 392.285C204.311 392.285 205.706 393.35 205.706 394.955C205.706 396.56 204.311 397.625 202.316 397.625C200.291 397.625 198.911 396.56 198.911 394.955C198.911 393.35 200.291 392.285 202.316 392.285ZM202.316 393.245C200.996 393.245 200.066 393.95 200.066 394.955C200.066 395.975 200.996 396.665 202.316 396.665C203.606 396.665 204.536 395.975 204.536 394.955C204.536 393.95 203.606 393.245 202.316 393.245ZM212.995 398.105H222.31V399.125H212.995V398.105ZM211.45 402.305H223.735V403.34H211.45V402.305ZM212.995 392.855H222.175V393.89H214.24V398.555H212.995V392.855ZM230.439 396.875H233.004V397.91H230.439V396.875ZM235.269 391.61H236.469V405.17H235.269V391.61ZM232.584 391.895H233.769V404.495H232.584V391.895ZM227.994 392.735C229.749 392.735 230.889 394.55 230.889 397.46C230.889 400.37 229.749 402.185 227.994 402.185C226.239 402.185 225.114 400.37 225.114 397.46C225.114 394.55 226.239 392.735 227.994 392.735ZM227.994 393.89C226.929 393.89 226.254 395.27 226.254 397.46C226.254 399.65 226.929 401.03 227.994 401.03C229.074 401.03 229.749 399.65 229.749 397.46C229.749 395.27 229.074 393.89 227.994 393.89ZM34.18 416.945H35.26V417.515C35.26 419.945 32.68 421.73 29.95 422.195L29.47 421.205C31.855 420.86 34.18 419.3 34.18 417.515V416.945ZM34.495 416.945H35.56V417.515C35.56 419.3 37.9 420.86 40.27 421.205L39.805 422.195C37.06 421.73 34.495 419.945 34.495 417.515V416.945ZM34.225 423.995H35.455V429.17H34.225V423.995ZM28.75 423.335H41.005V424.355H28.75V423.335ZM29.89 416.45H39.82V417.455H29.89V416.45ZM43.8088 416.165H52.9288V420.785H43.8088V416.165ZM51.6988 417.17H45.0238V419.78H51.6988V417.17ZM42.2338 422.48H54.4888V423.485H42.2338V422.48ZM47.7538 420.515H48.9838V422.855H47.7538V420.515ZM43.5988 424.88H52.9738V429.17H51.7288V425.9H43.5988V424.88ZM55.7177 417.92H62.4377V418.94H55.7177V417.92ZM59.0777 419.84C60.7727 419.84 62.0027 421.115 62.0027 422.945C62.0027 424.76 60.7727 426.035 59.0777 426.035C57.3977 426.035 56.1677 424.76 56.1677 422.945C56.1677 421.115 57.3977 419.84 59.0777 419.84ZM59.0777 420.905C58.0427 420.905 57.2927 421.745 57.2927 422.945C57.2927 424.145 58.0427 424.985 59.0777 424.985C60.1277 424.985 60.8927 424.145 60.8927 422.945C60.8927 421.745 60.1277 420.905 59.0777 420.905ZM66.0227 415.61H67.2227V429.17H66.0227V415.61ZM63.8627 421.31H66.4277V422.345H63.8627V421.31ZM63.1277 415.91H64.2977V428.51H63.1277V415.91ZM58.4777 416H59.7077V418.55H58.4777V416ZM72.301 426.41H84.586V427.445H72.301V426.41ZM77.791 423.17H79.036V426.71H77.791V423.17ZM73.741 416.57H74.971V418.985H81.886V416.57H83.116V423.5H73.741V416.57ZM74.971 419.99V422.48H81.886V419.99H74.971ZM91.1398 420.455H93.7348V421.49H91.1398V420.455ZM88.6048 416.885H89.5798V419.465C89.5798 422.3 88.3948 425.045 86.4148 426.26L85.6348 425.315C87.4948 424.22 88.6048 421.79 88.6048 419.465V416.885ZM88.8448 416.885H89.8048V419.42C89.8048 421.595 90.8248 423.905 92.6098 424.985L91.8898 425.96C89.9398 424.76 88.8448 422.06 88.8448 419.42V416.885ZM96.1198 415.61H97.3198V429.17H96.1198V415.61ZM93.3748 415.895H94.5448V428.495H93.3748V415.895ZM102.299 422.585H103.529V426.65H102.299V422.585ZM107.309 422.585H108.554V426.65H107.309V422.585ZM99.2986 426.41H111.584V427.445H99.2986V426.41ZM105.419 416.465C108.284 416.465 110.339 417.83 110.339 419.96C110.339 422.075 108.284 423.44 105.419 423.44C102.539 423.44 100.484 422.075 100.484 419.96C100.484 417.83 102.539 416.465 105.419 416.465ZM105.419 417.455C103.244 417.455 101.684 418.445 101.684 419.96C101.684 421.46 103.244 422.45 105.419 422.45C107.594 422.45 109.139 421.46 109.139 419.96C109.139 418.445 107.594 417.455 105.419 417.455ZM113.997 424.685L113.802 418.34L113.772 416.765H115.152L115.122 418.34L114.927 424.685H113.997ZM114.447 428.21C113.907 428.21 113.472 427.775 113.472 427.16C113.472 426.53 113.907 426.11 114.447 426.11C115.002 426.11 115.452 426.53 115.452 427.16C115.452 427.775 115.002 428.21 114.447 428.21Z" fill="black"/>
<path d="M29.89 392.72H38.695V394.295H29.89V392.72ZM28.615 401.9H41.17V403.52H28.615V401.9ZM37.645 392.72H39.625V394.37C39.625 396.32 39.625 398.21 39.13 401.06L37.135 400.895C37.645 398.225 37.645 396.245 37.645 394.37V392.72ZM51.0088 391.43H52.9888V405.365H51.0088V391.43ZM52.5388 396.68H54.9988V398.33H52.5388V396.68ZM42.6688 400.505H43.8388C46.1938 400.505 48.0238 400.43 50.0638 400.07L50.2588 401.675C48.1588 402.05 46.2538 402.14 43.8388 402.14H42.6688V400.505ZM42.6538 392.615H49.0438V398H44.6488V401.12H42.6688V396.41H47.0638V394.205H42.6538V392.615ZM65.6327 391.445H67.5377V405.335H65.6327V391.445ZM60.3527 396.515H63.5777V398.12H60.3527V396.515ZM62.7677 391.685H64.6277V404.72H62.7677V391.685ZM56.0027 400.61H56.9627C58.9277 400.61 60.2327 400.565 61.7627 400.265L61.9127 401.885C60.3677 402.2 58.9877 402.26 56.9627 402.26H56.0027V400.61ZM56.0027 393.005H61.2977V394.595H57.9677V401.3H56.0027V393.005ZM78.6215 391.43H80.6315V405.365H78.6215V391.43ZM73.1465 392.405C75.2465 392.405 76.7915 394.325 76.7915 397.355C76.7915 400.415 75.2465 402.335 73.1465 402.335C71.0465 402.335 69.5015 400.415 69.5015 397.355C69.5015 394.325 71.0465 392.405 73.1465 392.405ZM73.1465 394.22C72.1115 394.22 71.4065 395.315 71.4065 397.355C71.4065 399.425 72.1115 400.535 73.1465 400.535C74.1815 400.535 74.8715 399.425 74.8715 397.355C74.8715 395.315 74.1815 394.22 73.1465 394.22ZM89.9303 393.245H92.6903V394.85H89.9303V393.245ZM89.9303 395.93H92.6903V397.52H89.9303V395.93ZM85.7753 392.24H87.3803V393.83C87.3803 396.71 86.2103 399.2 83.5853 400.175L82.5203 398.615C84.8153 397.805 85.7753 395.855 85.7753 393.83V392.24ZM86.1953 392.24H87.8003V393.83C87.8003 395.735 88.7003 397.64 90.8903 398.465L89.7953 400.01C87.3353 399.035 86.1953 396.59 86.1953 393.83V392.24ZM92.2253 391.46H94.2203V401.735H92.2253V391.46ZM85.0253 403.505H94.5203V405.095H85.0253V403.505ZM85.0253 400.79H87.0353V404.51H85.0253V400.79ZM96.8591 404V392.9H99.0791V397.715H99.1091L102.799 392.9H105.244L101.839 397.265L105.829 404H103.414L100.534 399.02L99.0791 400.88V404H96.8591ZM106.722 407.21L106.272 406.01C107.442 405.575 108.087 404.78 108.072 403.895L107.997 402.335L108.777 403.625C108.552 403.85 108.252 403.955 107.922 403.955C107.202 403.955 106.542 403.475 106.542 402.65C106.542 401.855 107.187 401.345 107.982 401.345C108.987 401.345 109.557 402.155 109.557 403.505C109.557 405.275 108.552 406.61 106.722 407.21ZM123.324 391.445H125.334V405.335H123.324V391.445ZM119.229 392.885H121.209C121.209 397.13 119.769 400.61 114.834 402.995L113.799 401.405C117.789 399.485 119.229 396.965 119.229 393.245V392.885ZM114.534 392.885H120.174V394.46H114.534V392.885ZM127.853 392.885H139.163V394.46H127.853V392.885ZM127.268 400.43H139.838V402.035H127.268V400.43ZM132.533 401.84H134.528V405.35H132.533V401.84ZM133.538 395C136.523 395 138.293 395.84 138.293 397.385C138.293 398.915 136.523 399.77 133.538 399.77C130.538 399.77 128.768 398.915 128.768 397.385C128.768 395.84 130.538 395 133.538 395ZM133.538 396.485C131.723 396.485 130.838 396.755 130.838 397.385C130.838 398.015 131.723 398.285 133.538 398.285C135.353 398.285 136.238 398.015 136.238 397.385C136.238 396.755 135.353 396.485 133.538 396.485ZM132.533 391.43H134.528V393.935H132.533V391.43ZM149.691 391.445H151.686V399.185H149.691V391.445ZM151.131 394.46H153.531V396.095H151.131V394.46ZM145.701 392.24H147.831C147.831 395.93 145.521 398.435 141.381 399.515L140.601 397.94C144.006 397.085 145.701 395.315 145.701 393.23V392.24ZM141.261 392.24H146.901V393.815H141.261V392.24ZM142.671 399.74H151.686V405.185H142.671V399.74ZM149.721 401.315H144.636V403.61H149.721V401.315ZM159.485 391.85H161.24V392.495C161.24 395.165 159.14 397.43 155.495 397.97L154.715 396.365C157.91 395.945 159.485 394.13 159.485 392.495V391.85ZM159.86 391.85H161.6V392.495C161.6 394.115 163.19 395.945 166.37 396.365L165.605 397.97C161.96 397.43 159.86 395.165 159.86 392.495V391.85ZM159.5 400.25H161.48V405.335H159.5V400.25ZM154.265 398.99H166.82V400.61H154.265V398.99ZM170.974 392.165H172.639V393.41C172.639 396.2 171.394 398.645 168.664 399.56L167.629 397.955C169.999 397.19 170.974 395.315 170.974 393.41V392.165ZM171.394 392.165H172.999V393.32C172.999 395.165 173.899 396.875 176.104 397.58L175.069 399.14C172.504 398.255 171.394 396.02 171.394 393.32V392.165ZM177.379 391.445H179.374V399.575H177.379V391.445ZM174.664 399.935C177.604 399.935 179.419 400.94 179.419 402.635C179.419 404.345 177.604 405.335 174.664 405.335C171.724 405.335 169.909 404.345 169.909 402.635C169.909 400.94 171.724 399.935 174.664 399.935ZM174.664 401.48C172.864 401.48 171.904 401.855 171.904 402.635C171.904 403.415 172.864 403.805 174.664 403.805C176.479 403.805 177.439 403.415 177.439 402.635C177.439 401.855 176.479 401.48 174.664 401.48ZM174.844 393.965H177.664V395.585H174.844V393.965Z" fill="#7C63B0"/>
</svg>
