<svg width="283" height="483" viewBox="0 0 283 483" fill="none" xmlns="http://www.w3.org/2000/svg">
<rect width="283" height="483" rx="5.88052" fill="#F4B8FF"/>
<rect x="9.75" y="9.74983" width="263.5" height="463.5" rx="5.13052" stroke="black" stroke-width="1.5"/>
<rect x="28" y="31.1949" width="38.8322" height="38.8322" rx="19.4161" fill="black"/>
<rect x="30.2295" y="28.9998" width="36.8322" height="36.8322" rx="18.4161" fill="white"/>
<rect x="30.2295" y="28.9998" width="36.8322" height="36.8322" rx="18.4161" stroke="black" stroke-width="2"/>
<path d="M48.7468 48.832C48.3389 48.832 48.1145 48.6076 48.1145 48.1997V46.609C48.1145 46.2011 48.3389 45.9767 48.7468 45.9767C51.2349 45.9767 52.1935 45.4465 52.1935 44.0392C52.1935 42.9991 51.1737 42.4077 49.3994 42.4077C47.5027 42.4077 46.6053 42.9175 46.6053 43.978C46.6053 44.4063 46.3606 44.6511 45.9323 44.6511H44.3211C43.8928 44.6511 43.6481 44.4063 43.6481 43.978C43.6481 41.1636 45.7284 39.5524 49.3994 39.5524C53.0093 39.5524 55.1507 41.0412 55.1507 43.5294C55.1507 45.1202 54.2533 46.4662 52.8869 47.0576C54.7224 47.5471 55.9665 49.1175 55.9665 51.1774C55.9665 54.155 53.5395 55.9905 49.6034 55.9905C45.6468 55.9905 43.2402 54.3181 43.2402 51.5649C43.2402 51.1366 43.485 50.8918 43.9132 50.8918H45.5244C45.9527 50.8918 46.1974 51.1366 46.1974 51.5649C46.1974 52.5846 47.4007 53.1353 49.6034 53.1353C51.8672 53.1353 53.0093 52.401 53.0093 50.9734C53.0093 49.3418 52.0099 48.832 48.7468 48.832Z" fill="black"/>
<path d="M35.146 91.1139H38.53V93.0219H35.146V91.1139ZM35.056 95.2719H38.458V97.1799H35.056V95.2719ZM40.798 86.7219H43.084V103.39H40.798V86.7219ZM37.36 87.0819H39.592V102.652H37.36V87.0819ZM33.598 88.6839H35.902C35.902 93.4179 34.48 97.1979 29.836 99.9339L28.486 98.2599C32.248 95.9739 33.598 93.2019 33.598 89.1699V88.6839ZM29.44 88.6839H34.408V90.5919H29.44V88.6839ZM49.0226 87.7479H50.9846V89.5479C50.9846 92.8599 49.4906 95.7039 46.3046 96.8019L45.0266 94.9299C47.8526 94.0299 49.0226 91.7979 49.0226 89.5479V87.7479ZM49.4906 87.7479H51.4346V89.5659C51.4346 91.6539 52.5686 93.7419 55.2506 94.6239L54.0266 96.4779C50.9306 95.4519 49.4906 92.6979 49.4906 89.5659V87.7479ZM56.0066 86.7219H58.4006V98.9079H56.0066V86.7219ZM57.7166 91.5459H60.6146V93.5259H57.7166V91.5459ZM47.6546 101.194H58.9946V103.102H47.6546V101.194ZM47.6546 97.7559H50.0666V102.202H47.6546V97.7559ZM72.2513 95.0919H74.6453V98.0259H72.2513V95.0919ZM65.9153 94.2999H80.9813V96.1899H65.9153V94.2999ZM73.4213 97.3779C77.0213 97.3779 79.1993 98.4579 79.1993 100.384C79.1993 102.31 77.0213 103.39 73.4213 103.39C69.8033 103.39 67.6253 102.31 67.6253 100.384C67.6253 98.4579 69.8033 97.3779 73.4213 97.3779ZM73.4213 99.1779C71.1893 99.1779 70.0553 99.5559 70.0553 100.384C70.0553 101.194 71.1893 101.59 73.4213 101.59C75.6533 101.59 76.7873 101.194 76.7873 100.384C76.7873 99.5559 75.6533 99.1779 73.4213 99.1779ZM71.8013 88.2879H73.9253V88.7019C73.9253 91.2039 71.6753 93.2559 67.3733 93.6519L66.5453 91.7799C70.1993 91.4739 71.8013 89.9979 71.8013 88.7019V88.2879ZM72.9713 88.2879H75.0953V88.7019C75.0953 90.0159 76.6793 91.4739 80.3513 91.7799L79.5233 93.6519C75.2393 93.2559 72.9713 91.2219 72.9713 88.7019V88.2879ZM67.2833 87.4059H79.6313V89.2959H67.2833V87.4059ZM90.566 89.3499H92.474V91.2219C92.474 95.0739 90.908 98.8359 87.776 100.258L86.426 98.3679C89.216 97.1259 90.566 94.0479 90.566 91.2219V89.3499ZM91.106 89.3499H92.996V91.2219C92.996 93.9219 94.328 96.8019 97.118 97.9539L95.822 99.8439C92.654 98.4759 91.106 94.9299 91.106 91.2219V89.3499ZM87.092 88.3239H96.434V90.2859H87.092V88.3239ZM97.982 86.7219H100.394V103.39H97.982V86.7219ZM113.821 86.7219H116.233V95.7579H113.821V86.7219ZM115.567 90.3039H118.447V92.2659H115.567V90.3039ZM109.033 87.6039H111.661C111.661 92.0499 108.943 94.8219 103.903 95.9559L103.021 94.0299C107.215 93.1479 109.033 91.1859 109.033 88.9179V87.6039ZM103.885 87.6039H110.635V89.4939H103.885V87.6039ZM105.361 96.4059H107.737V97.9899H113.857V96.4059H116.233V103.21H105.361V96.4059ZM107.737 99.8439V101.302H113.857V99.8439H107.737ZM127.211 86.9559C131.009 86.9559 133.241 87.9639 133.241 89.7999C133.241 91.6359 131.009 92.6439 127.211 92.6439C123.395 92.6439 121.181 91.6359 121.181 89.7999C121.181 87.9639 123.395 86.9559 127.211 86.9559ZM127.211 88.7019C124.799 88.7019 123.665 89.0619 123.665 89.7999C123.665 90.5739 124.799 90.8979 127.211 90.8979C129.623 90.8979 130.757 90.5739 130.757 89.7999C130.757 89.0619 129.623 88.7019 127.211 88.7019ZM119.669 93.4179H134.735V95.3079H119.669V93.4179ZM121.397 96.2439H132.917V100.528H123.773V102.004H121.415V98.8719H130.559V98.0259H121.397V96.2439ZM121.415 101.482H133.349V103.282H121.415V101.482ZM30.628 116.608H42.076V118.516H30.628V116.608ZM28.72 120.154H43.822V122.08H28.72V120.154ZM35.02 121.27H37.396V127.372H35.02V121.27ZM30.628 111.604H41.914V113.512H33.076V117.526H30.628V111.604ZM46.8266 112.126H57.3926V114.052H46.8266V112.126ZM45.2966 123.448H60.3626V125.392H45.2966V123.448ZM50.6246 117.724H53.0186V124.402H50.6246V117.724ZM56.5286 112.126H58.9226V113.728C58.9226 115.816 58.9226 118.156 58.2566 121.72L55.8626 121.45C56.5286 118.138 56.5286 115.726 56.5286 113.728V112.126ZM65.9153 119.29H80.9813V121.198H65.9153V119.29ZM72.2333 116.95H74.6273V120.154H72.2333V116.95ZM67.7333 125.194H79.2893V127.102H67.7333V125.194ZM67.7333 122.26H70.1273V125.842H67.7333V122.26ZM73.4573 111.136C77.0753 111.136 79.4873 112.468 79.4873 114.574C79.4873 116.716 77.0753 118.012 73.4573 118.012C69.8213 118.012 67.4273 116.716 67.4273 114.574C67.4273 112.468 69.8213 111.136 73.4573 111.136ZM73.4573 113.044C71.2073 113.044 69.8933 113.566 69.8933 114.574C69.8933 115.6 71.2073 116.104 73.4573 116.104C75.7073 116.104 77.0213 115.6 77.0213 114.574C77.0213 113.566 75.7073 113.044 73.4573 113.044ZM90.296 112H92.24V114.43C92.24 118.552 90.8 122.422 87.65 123.97L86.21 122.044C89.018 120.73 90.296 117.526 90.296 114.43V112ZM90.782 112H92.69V114.43C92.69 117.418 93.878 120.46 96.542 121.756L95.102 123.664C92.096 122.134 90.782 118.426 90.782 114.43V112ZM97.208 110.722H99.62V127.39H97.208V110.722ZM99.08 117.13H102.032V119.128H99.08V117.13ZM114.559 110.722H116.971V119.146H114.559V110.722ZM105.847 119.884H116.971V124.402H108.223V126.076H105.883V122.674H114.595V121.702H105.847V119.884ZM105.883 125.428H117.385V127.282H105.883V125.428ZM107.017 111.1H108.997V112.36C108.997 115.438 107.449 118.228 104.191 119.218L103.039 117.328C105.829 116.482 107.017 114.394 107.017 112.36V111.1ZM107.503 111.1H109.465V112.36C109.465 114.34 110.635 116.284 113.353 117.058L112.201 118.912C108.997 117.976 107.503 115.366 107.503 112.36V111.1ZM127.211 110.956C131.009 110.956 133.241 111.964 133.241 113.8C133.241 115.636 131.009 116.644 127.211 116.644C123.395 116.644 121.181 115.636 121.181 113.8C121.181 111.964 123.395 110.956 127.211 110.956ZM127.211 112.702C124.799 112.702 123.665 113.062 123.665 113.8C123.665 114.574 124.799 114.898 127.211 114.898C129.623 114.898 130.757 114.574 130.757 113.8C130.757 113.062 129.623 112.702 127.211 112.702ZM119.669 117.418H134.735V119.308H119.669V117.418ZM121.397 120.244H132.917V124.528H123.773V126.004H121.415V122.872H130.559V122.026H121.397V120.244ZM121.415 125.482H133.349V127.282H121.415V125.482ZM41.14 134.704H43.426V151.372H41.14V134.704ZM39.07 141.04H42.04V142.966H39.07V141.04ZM30.826 136.648H32.824C32.824 140.77 32.374 144.334 30.286 147.502L28.45 146.458C30.376 143.596 30.826 140.86 30.826 136.846V136.648ZM29.026 136.648H32.05V138.556H29.026V136.648ZM34.696 136.648H36.748C36.748 140.968 36.388 145 34.21 148.474L32.32 147.466C34.408 144.262 34.696 141.04 34.696 136.864V136.648ZM33.328 136.648H35.974V138.556H33.328V136.648ZM37.666 134.992H39.898V150.652H37.666V134.992ZM45.8546 140.77H47.2406C50.7146 140.77 52.6046 140.662 54.7106 140.23L54.9626 142.084C52.8206 142.57 50.8046 142.642 47.2406 142.642H45.8546V140.77ZM45.8546 135.586H53.3066V137.458H48.2306V141.814H45.8546V135.586ZM56.0066 134.722H58.4006V143.002H56.0066V134.722ZM57.7346 137.854H60.6146V139.798H57.7346V137.854ZM47.3846 143.686H58.4006V148.294H49.7966V150.292H47.4206V146.53H56.0426V145.558H47.3846V143.686ZM47.4206 149.32H58.8866V151.21H47.4206V149.32ZM61.8372 143.218H76.9032V145.126H61.8372V143.218ZM63.6552 149.194H75.2112V151.102H63.6552V149.194ZM63.6552 146.242H66.0492V149.806H63.6552V146.242ZM69.3792 135.208C72.9972 135.208 75.4092 136.522 75.4092 138.646C75.4092 140.77 72.9972 142.084 69.3792 142.084C65.7432 142.084 63.3492 140.77 63.3492 138.646C63.3492 136.522 65.7432 135.208 69.3792 135.208ZM69.3792 137.116C67.1292 137.116 65.8152 137.638 65.8152 138.646C65.8152 139.672 67.1292 140.176 69.3792 140.176C71.6292 140.176 72.9432 139.672 72.9432 138.646C72.9432 137.638 71.6292 137.116 69.3792 137.116ZM93.2199 134.722H95.6319V144.334H93.2199V134.722ZM94.9299 138.664H97.8099V140.608H94.9299V138.664ZM90.1599 144.64C93.5799 144.64 95.7939 145.918 95.7939 148.024C95.7939 150.148 93.5799 151.408 90.1599 151.408C86.7219 151.408 84.5079 150.148 84.5079 148.024C84.5079 145.918 86.7219 144.64 90.1599 144.64ZM90.1599 146.548C88.0359 146.548 86.8659 147.016 86.8659 148.024C86.8659 149.014 88.0359 149.5 90.1599 149.5C92.2659 149.5 93.4359 149.014 93.4359 148.024C93.4359 147.016 92.2659 146.548 90.1599 146.548ZM83.0499 141.562H84.4359C88.1079 141.562 89.9259 141.472 91.9239 141.04L92.1579 142.948C90.1239 143.398 88.1979 143.47 84.4359 143.47H83.0499V141.562ZM83.0499 135.838H90.5019V137.746H85.4259V142.858H83.0499V135.838ZM110.481 134.74H112.893V146.89H110.481V134.74ZM101.787 149.194H113.307V151.102H101.787V149.194ZM101.787 145.72H104.181V150.184H101.787V145.72ZM102.938 135.64H104.919V137.26C104.919 140.518 103.425 143.524 100.185 144.658L98.9785 142.75C101.769 141.796 102.938 139.474 102.938 137.26V135.64ZM103.425 135.64H105.387V137.26C105.387 139.438 106.521 141.58 109.257 142.462L108.033 144.37C104.883 143.308 103.425 140.482 103.425 137.26V135.64ZM120.955 135.82C123.583 135.82 125.545 137.53 125.545 139.924C125.545 142.336 123.583 144.046 120.955 144.046C118.345 144.046 116.347 142.336 116.347 139.924C116.347 137.53 118.345 135.82 120.955 135.82ZM120.955 137.872C119.677 137.872 118.705 138.628 118.705 139.924C118.705 141.238 119.677 141.994 120.955 141.994C122.233 141.994 123.205 141.238 123.205 139.924C123.205 138.628 122.233 137.872 120.955 137.872ZM127.111 134.704H129.505V151.426H127.111V134.704ZM115.951 148.042L115.663 146.116C118.597 146.116 122.683 146.08 126.193 145.558L126.373 147.286C122.755 148.006 118.831 148.042 115.951 148.042ZM148.162 134.722H150.43V145.162H148.162V134.722ZM146.128 138.826H148.792V140.77H146.128V138.826ZM144.706 135.046H146.938V144.622H144.706V135.046ZM136.156 136.432H144.238V138.268H136.156V136.432ZM140.224 138.808C142.312 138.808 143.824 139.996 143.824 141.724C143.824 143.452 142.312 144.622 140.224 144.622C138.136 144.622 136.624 143.452 136.624 141.724C136.624 139.996 138.136 138.808 140.224 138.808ZM140.224 140.518C139.342 140.518 138.748 140.95 138.748 141.724C138.748 142.498 139.342 142.93 140.224 142.93C141.088 142.93 141.682 142.498 141.682 141.724C141.682 140.95 141.088 140.518 140.224 140.518ZM139.018 134.884H141.376V137.692H139.018V134.884ZM144.796 145.342C148.36 145.342 150.52 146.422 150.52 148.366C150.52 150.292 148.36 151.39 144.796 151.39C141.214 151.39 139.054 150.292 139.054 148.366C139.054 146.422 141.214 145.342 144.796 145.342ZM144.796 147.124C142.564 147.124 141.448 147.502 141.448 148.366C141.448 149.212 142.564 149.608 144.796 149.608C147.01 149.608 148.126 149.212 148.126 148.366C148.126 147.502 147.01 147.124 144.796 147.124ZM152.804 142.552H167.888V144.46H152.804V142.552ZM159.158 140.05H161.534V143.29H159.158V140.05ZM154.622 139.294H166.178V141.184H154.622V139.294ZM154.622 135.442H166.088V137.314H156.998V140.5H154.622V135.442ZM160.292 145.288C163.892 145.288 166.07 146.386 166.07 148.348C166.07 150.31 163.892 151.408 160.292 151.408C156.692 151.408 154.496 150.31 154.496 148.348C154.496 146.386 156.692 145.288 160.292 145.288ZM160.292 147.088C158.06 147.088 156.926 147.502 156.926 148.348C156.926 149.212 158.06 149.59 160.292 149.59C162.524 149.59 163.658 149.212 163.658 148.348C163.658 147.502 162.524 147.088 160.292 147.088ZM169.345 143.218H184.411V145.126H169.345V143.218ZM171.163 149.194H182.719V151.102H171.163V149.194ZM171.163 146.242H173.557V149.806H171.163V146.242ZM176.887 135.208C180.505 135.208 182.917 136.522 182.917 138.646C182.917 140.77 180.505 142.084 176.887 142.084C173.251 142.084 170.857 140.77 170.857 138.646C170.857 136.522 173.251 135.208 176.887 135.208ZM176.887 137.116C174.637 137.116 173.323 137.638 173.323 138.646C173.323 139.672 174.637 140.176 176.887 140.176C179.137 140.176 180.451 139.672 180.451 138.646C180.451 137.638 179.137 137.116 176.887 137.116ZM188.352 145.252C187.92 142.354 190.998 141.202 190.998 139.492C190.998 138.574 190.404 138.016 189.468 138.016C188.676 138.016 188.046 138.412 187.452 139.024L185.994 137.674C186.93 136.612 188.208 135.874 189.774 135.874C191.952 135.874 193.536 136.99 193.536 139.312C193.536 141.868 190.404 142.714 190.674 145.252H188.352ZM189.522 150.04C188.568 150.04 187.884 149.302 187.884 148.312C187.884 147.322 188.568 146.602 189.522 146.602C190.458 146.602 191.178 147.322 191.178 148.312C191.178 149.302 190.458 150.04 189.522 150.04Z" fill="black"/>
<circle cx="33.5131" cy="176.062" r="1.47013" fill="black"/>
<path d="M50.07 171.159H51.27V184.719H50.07V171.159ZM47.925 176.529H50.52V177.549H47.925V176.529ZM47.07 171.444H48.255V184.044H47.07V171.444ZM40.23 172.719H45.405V181.089H40.23V172.719ZM44.235 173.709H41.4V180.099H44.235V173.709ZM56.5788 172.614H57.5988V173.709C57.5988 176.199 56.0988 178.284 53.8188 179.109L53.1888 178.119C55.2288 177.399 56.5788 175.644 56.5788 173.709V172.614ZM56.8038 172.614H57.8238V173.694C57.8238 175.464 59.1138 177.054 61.1088 177.714L60.5088 178.689C58.2438 177.939 56.8038 176.004 56.8038 173.694V172.614ZM53.5638 172.164H60.8088V173.184H53.5638V172.164ZM62.5188 171.159H63.7638V179.334H62.5188V171.159ZM63.4188 174.594H65.7738V175.644H63.4188V174.594ZM59.4438 179.694C62.2038 179.694 63.8988 180.609 63.8988 182.184C63.8988 183.774 62.2038 184.689 59.4438 184.689C56.6838 184.689 54.9888 183.774 54.9888 182.184C54.9888 180.609 56.6838 179.694 59.4438 179.694ZM59.4438 180.699C57.4338 180.699 56.2038 181.239 56.2038 182.184C56.2038 183.144 57.4338 183.714 59.4438 183.714C61.4538 183.714 62.6838 183.144 62.6838 182.184C62.6838 181.239 61.4538 180.699 59.4438 180.699ZM72.8677 171.384C75.8527 171.384 77.6377 172.224 77.6377 173.739C77.6377 175.254 75.8527 176.094 72.8677 176.094C69.8677 176.094 68.0977 175.254 68.0977 173.739C68.0977 172.224 69.8677 171.384 72.8677 171.384ZM72.8677 172.329C70.6477 172.329 69.3727 172.839 69.3727 173.739C69.3727 174.639 70.6477 175.149 72.8677 175.149C75.0727 175.149 76.3477 174.639 76.3477 173.739C76.3477 172.839 75.0727 172.329 72.8677 172.329ZM66.7327 176.994H78.9877V177.999H66.7327V176.994ZM68.2177 179.154H77.4277V182.214H69.4777V183.864H68.2477V181.314H76.1977V180.114H68.2177V179.154ZM68.2477 183.594H77.8327V184.569H68.2477V183.594ZM92.571 171.159H93.816V179.319H92.571V171.159ZM93.471 174.759H95.826V175.794H93.471V174.759ZM85.296 180.084H93.816V184.539H85.296V180.084ZM92.601 181.089H86.511V183.534H92.601V181.089ZM83.331 172.584H91.341V173.604H83.331V172.584ZM87.336 174.264C89.271 174.264 90.576 175.224 90.576 176.694C90.576 178.164 89.271 179.094 87.336 179.094C85.386 179.094 84.081 178.164 84.081 176.694C84.081 175.224 85.386 174.264 87.336 174.264ZM87.336 175.224C86.091 175.224 85.266 175.794 85.266 176.694C85.266 177.579 86.091 178.149 87.336 178.149C88.551 178.149 89.391 177.579 89.391 176.694C89.391 175.794 88.551 175.224 87.336 175.224ZM86.706 171.039H87.951V173.109H86.706V171.039ZM99.0648 172.779H100.115C100.115 175.689 99.7248 178.884 97.7898 181.524L96.8148 180.954C98.6748 178.539 99.0648 175.704 99.0648 172.869V172.779ZM97.0998 172.779H99.6798V173.814H97.0998V172.779ZM102.05 172.779H103.115C103.115 175.644 102.935 179.454 100.805 182.394L99.8148 181.824C101.885 179.124 102.05 175.599 102.05 172.884V172.779ZM100.565 172.779H102.71V173.814H100.565V172.779ZM107.165 171.159H108.365V184.719H107.165V171.159ZM102.485 176.484H104.915V177.504H102.485V176.484ZM104.66 171.504H105.83V184.029H104.66V171.504ZM119.548 179.664C122.308 179.664 124.003 180.594 124.003 182.184C124.003 183.774 122.308 184.704 119.548 184.704C116.788 184.704 115.093 183.774 115.093 182.184C115.093 180.594 116.788 179.664 119.548 179.664ZM119.548 180.669C117.538 180.669 116.308 181.224 116.308 182.184C116.308 183.159 117.538 183.714 119.548 183.714C121.558 183.714 122.788 183.159 122.788 182.184C122.788 181.224 121.558 180.669 119.548 180.669ZM122.623 171.159H123.868V179.304H122.623V171.159ZM123.523 174.564H125.878V175.614H123.523V174.564ZM113.908 172.014H115.138V174.039H118.963V172.014H120.178V178.269H113.908V172.014ZM115.138 175.029V177.264H118.963V175.029H115.138ZM126.837 178.089H139.122V179.109H126.837V178.089ZM132.447 178.719H133.692V181.839H132.447V178.719ZM128.412 171.789H137.532V176.559H128.412V171.789ZM136.302 172.794H129.627V175.554H136.302V172.794ZM128.397 183.399H137.757V184.419H128.397V183.399ZM128.397 180.534H129.627V183.759H128.397V180.534ZM149.621 171.174H150.866V181.344H149.621V171.174ZM150.476 175.614H152.876V176.664H150.476V175.614ZM140.381 172.809H148.391V173.814H140.381V172.809ZM144.386 174.564C146.306 174.564 147.626 175.569 147.626 177.099C147.626 178.614 146.306 179.619 144.386 179.619C142.451 179.619 141.131 178.614 141.131 177.099C141.131 175.569 142.451 174.564 144.386 174.564ZM144.386 175.539C143.156 175.539 142.316 176.154 142.316 177.099C142.316 178.029 143.156 178.644 144.386 178.644C145.601 178.644 146.441 178.029 146.441 177.099C146.441 176.154 145.601 175.539 144.386 175.539ZM143.756 171.159H145.001V173.334H143.756V171.159ZM142.421 183.399H151.481V184.419H142.421V183.399ZM142.421 180.534H143.666V183.834H142.421V180.534ZM166.759 171.174H168.019V181.194H166.759V171.174ZM159.304 183.399H168.424V184.419H159.304V183.399ZM159.304 180.249H160.534V183.939H159.304V180.249ZM160.579 173.754H161.599V174.324C161.599 176.754 160.054 178.764 157.789 179.544L157.174 178.569C159.184 177.909 160.579 176.199 160.579 174.324V173.754ZM160.789 173.754H161.809V174.324C161.809 176.094 163.219 177.699 165.244 178.329L164.644 179.304C162.349 178.569 160.789 176.649 160.789 174.324V173.754ZM157.489 172.974H164.869V173.979H157.489V172.974ZM160.579 171.219H161.809V173.454H160.579V171.219ZM171.933 172.044H180.408V173.049H171.933V172.044ZM170.403 177.864H182.658V178.884H170.403V177.864ZM175.878 178.539H177.123V184.734H175.878V178.539ZM179.823 172.044H181.038V173.214C181.038 174.624 181.038 176.214 180.528 178.509L179.298 178.344C179.823 176.154 179.823 174.579 179.823 173.214V172.044ZM189.392 176.424H191.957V177.459H189.392V176.424ZM194.222 171.159H195.422V184.719H194.222V171.159ZM191.537 171.444H192.722V184.044H191.537V171.444ZM186.947 172.284C188.702 172.284 189.842 174.099 189.842 177.009C189.842 179.919 188.702 181.734 186.947 181.734C185.192 181.734 184.067 179.919 184.067 177.009C184.067 174.099 185.192 172.284 186.947 172.284ZM186.947 173.439C185.882 173.439 185.207 174.819 185.207 177.009C185.207 179.199 185.882 180.579 186.947 180.579C188.027 180.579 188.702 179.199 188.702 177.009C188.702 174.819 188.027 173.439 186.947 173.439ZM207.721 171.159H208.921V184.719H207.721V171.159ZM201.841 176.694H205.261V177.699H201.841V176.694ZM204.901 171.504H206.071V184.029H204.901V171.504ZM202.006 172.869H203.206C203.206 176.424 201.781 179.619 198.121 181.794L197.386 180.909C200.581 178.989 202.006 176.289 202.006 173.094V172.869ZM197.986 172.869H202.471V173.889H197.986V172.869ZM213.954 178.299H226.209V179.304H213.954V178.299ZM219.459 176.079H220.689V178.809H219.459V176.079ZM215.499 175.509H224.799V176.529H215.499V175.509ZM215.499 171.834H224.679V172.854H216.744V175.944H215.499V171.834ZM215.514 183.399H224.919V184.419H215.514V183.399ZM215.514 180.519H216.759V183.744H215.514V180.519ZM233.573 171.384C236.558 171.384 238.343 172.224 238.343 173.739C238.343 175.254 236.558 176.094 233.573 176.094C230.573 176.094 228.803 175.254 228.803 173.739C228.803 172.224 230.573 171.384 233.573 171.384ZM233.573 172.329C231.353 172.329 230.078 172.839 230.078 173.739C230.078 174.639 231.353 175.149 233.573 175.149C235.778 175.149 237.053 174.639 237.053 173.739C237.053 172.839 235.778 172.329 233.573 172.329ZM227.438 176.994H239.693V177.999H227.438V176.994ZM228.923 179.154H238.133V182.214H230.183V183.864H228.953V181.314H236.903V180.114H228.923V179.154ZM228.953 183.594H238.538V184.569H228.953V183.594ZM49.605 193.159H50.85V200.224H49.605V193.159ZM42.09 200.929H50.865V204.154H43.335V206.059H42.12V203.224H49.635V201.919H42.09V200.929ZM42.12 205.594H51.315V206.569H42.12V205.594ZM40.455 193.699H41.67V195.664H45.57V193.699H46.8V199.639H40.455V193.699ZM41.67 196.624V198.634H45.57V196.624H41.67ZM63.1038 193.174H64.3488V203.164H63.1038V193.174ZM55.5138 205.399H64.7238V206.419H55.5138V205.399ZM55.5138 202.369H56.7588V205.909H55.5138V202.369ZM53.9388 200.209H55.0338C57.5988 200.209 59.3838 200.119 61.4838 199.759L61.6188 200.779C59.4588 201.154 57.6588 201.229 55.0338 201.229H53.9388V200.209ZM53.9088 194.119H60.0588V198.049H55.1538V200.524H53.9388V197.089H58.8438V195.139H53.9088V194.119ZM75.9127 193.144H77.1727V206.734H75.9127V193.144ZM76.8727 198.499H79.3927V199.549H76.8727V198.499ZM67.3177 202.309H68.3827C70.8877 202.309 72.6427 202.219 74.6677 201.844L74.8027 202.894C72.7177 203.284 70.9327 203.359 68.3827 203.359H67.3177V202.309ZM67.3177 194.464H73.6177V195.484H68.5477V202.774H67.3177V194.464ZM81.5665 205.759C81.0265 205.759 80.5915 205.324 80.5915 204.709C80.5915 204.079 81.0265 203.659 81.5665 203.659C82.1215 203.659 82.5715 204.079 82.5715 204.709C82.5715 205.324 82.1215 205.759 81.5665 205.759ZM90.0108 208.504C88.6158 206.254 87.7908 203.854 87.7908 200.899C87.7908 197.959 88.6158 195.529 90.0108 193.279L90.8508 193.684C89.5608 195.814 88.9308 198.349 88.9308 200.899C88.9308 203.449 89.5608 205.984 90.8508 208.114L90.0108 208.504ZM95.3641 205.759C93.2641 205.759 91.9291 203.854 91.9291 200.014C91.9291 196.204 93.2641 194.359 95.3641 194.359C97.4341 194.359 98.7691 196.204 98.7691 200.014C98.7691 203.854 97.4341 205.759 95.3641 205.759ZM95.3641 204.649C96.6091 204.649 97.4491 203.254 97.4491 200.014C97.4491 196.819 96.6091 195.454 95.3641 195.454C94.1041 195.454 93.2491 196.819 93.2491 200.014C93.2491 203.254 94.1041 204.649 95.3641 204.649ZM107.194 196.549H110.209V197.584H107.194V196.549ZM109.864 193.159H111.109V201.094H109.864V193.159ZM102.319 201.754H111.109V206.539H102.319V201.754ZM109.894 202.744H103.534V205.534H109.894V202.744ZM103.414 194.449H104.434V195.544C104.434 198.019 102.904 200.134 100.639 200.974L99.9945 199.984C102.019 199.264 103.414 197.464 103.414 195.544V194.449ZM103.654 194.449H104.659V195.529C104.659 197.284 105.979 198.979 107.944 199.669L107.314 200.659C105.109 199.864 103.654 197.809 103.654 195.529V194.449ZM100.384 194.029H107.629V195.034H100.384V194.029ZM114.198 208.504L113.343 208.114C114.633 205.984 115.263 203.449 115.263 200.899C115.263 198.349 114.633 195.814 113.343 193.684L114.198 193.279C115.578 195.529 116.403 197.959 116.403 200.899C116.403 203.854 115.578 206.254 114.198 208.504Z" fill="black"/>
<circle cx="33.5131" cy="230.062" r="1.47013" fill="black"/>
<path d="M39.75 232.299H52.005V233.304H39.75V232.299ZM45.255 230.079H46.485V232.809H45.255V230.079ZM41.295 229.509H50.595V230.529H41.295V229.509ZM41.295 225.834H50.475V226.854H42.54V229.944H41.295V225.834ZM41.31 237.399H50.715V238.419H41.31V237.399ZM41.31 234.519H42.555V237.744H41.31V234.519ZM59.3688 225.384C62.3538 225.384 64.1388 226.224 64.1388 227.739C64.1388 229.254 62.3538 230.094 59.3688 230.094C56.3688 230.094 54.5988 229.254 54.5988 227.739C54.5988 226.224 56.3688 225.384 59.3688 225.384ZM59.3688 226.329C57.1488 226.329 55.8738 226.839 55.8738 227.739C55.8738 228.639 57.1488 229.149 59.3688 229.149C61.5738 229.149 62.8488 228.639 62.8488 227.739C62.8488 226.839 61.5738 226.329 59.3688 226.329ZM53.2338 230.994H65.4888V231.999H53.2338V230.994ZM54.7188 233.154H63.9288V236.214H55.9788V237.864H54.7488V235.314H62.6988V234.114H54.7188V233.154ZM54.7488 237.594H64.3338V238.569H54.7488V237.594ZM73.3871 227.094H74.3921V229.299C74.3921 232.164 72.6671 235.044 70.5071 236.109L69.7871 235.119C71.7521 234.189 73.3871 231.639 73.3871 229.299V227.094ZM73.6271 227.094H74.6321V229.299C74.6321 231.594 76.2671 233.934 78.2621 234.789L77.5571 235.779C75.3671 234.759 73.6271 232.119 73.6271 229.299V227.094ZM70.2371 226.539H77.8121V227.589H70.2371V226.539ZM79.6421 225.159H80.8871V238.719H79.6421V225.159ZM88.791 231.669H90.021V233.739H88.791V231.669ZM84.921 225.369H86.151V226.629H92.706V225.369H93.951V229.839H84.921V225.369ZM86.151 227.589V228.879H92.706V227.589H86.151ZM83.286 230.949H95.541V231.954H83.286V230.949ZM84.771 233.274H93.981V236.289H86.031V237.969H84.801V235.389H92.751V234.219H84.771V233.274ZM84.801 237.609H94.386V238.569H84.801V237.609ZM105.98 225.159H107.225V238.719H105.98V225.159ZM106.925 230.724H109.445V231.774H106.925V230.724ZM96.7248 227.319H104.72V228.339H96.7248V227.319ZM100.775 229.464C102.695 229.464 104.075 230.754 104.075 232.584C104.075 234.414 102.695 235.704 100.775 235.704C98.8698 235.704 97.4748 234.414 97.4748 232.584C97.4748 230.754 98.8698 229.464 100.775 229.464ZM100.775 230.499C99.5448 230.499 98.6598 231.354 98.6598 232.584C98.6598 233.799 99.5448 234.669 100.775 234.669C102.005 234.669 102.89 233.799 102.89 232.584C102.89 231.354 102.005 230.499 100.775 230.499ZM100.13 225.324H101.375V227.784H100.13V225.324ZM111.949 229.224H121.159V230.244H111.949V229.224ZM110.284 232.059H122.584V233.079H110.284V232.059ZM111.949 225.654H113.179V229.734H111.949V225.654ZM111.859 237.369H121.234V238.389H111.859V237.369ZM111.859 234.429H113.089V237.639H111.859V234.429ZM137.157 225.159H138.357V238.719H137.157V225.159ZM134.862 230.589H137.472V231.624H134.862V230.589ZM134.082 225.459H135.252V238.029H134.082V225.459ZM127.332 234.339H128.217C130.197 234.339 131.547 234.264 133.122 233.934L133.242 234.969C131.622 235.314 130.257 235.374 128.217 235.374H127.332V234.339ZM127.332 226.809H132.372V227.829H128.562V234.804H127.332V226.809ZM150.206 225.174H151.466V235.104H150.206V225.174ZM142.751 237.399H151.871V238.419H142.751V237.399ZM142.751 234.189H143.981V237.879H142.751V234.189ZM143.876 225.909H144.911V227.289C144.911 229.929 143.411 232.239 141.131 233.169L140.486 232.164C142.526 231.369 143.876 229.389 143.876 227.289V225.909ZM144.101 225.909H145.121V227.289C145.121 229.329 146.486 231.174 148.511 231.909L147.851 232.914C145.601 232.044 144.101 229.869 144.101 227.289V225.909ZM166.069 225.144H167.329V238.719H166.069V225.144ZM166.984 230.649H169.489V231.684H166.984V230.649ZM162.604 226.614H163.819C163.819 230.469 162.049 233.949 157.669 236.154L156.979 235.194C160.729 233.289 162.604 230.394 162.604 226.809V226.614ZM157.609 226.614H163.249V227.634H157.609V226.614ZM173.988 227.094H174.993V229.299C174.993 232.164 173.268 235.044 171.108 236.109L170.388 235.119C172.353 234.189 173.988 231.639 173.988 229.299V227.094ZM174.228 227.094H175.233V229.299C175.233 231.594 176.868 233.934 178.863 234.789L178.158 235.779C175.968 234.759 174.228 232.119 174.228 229.299V227.094ZM170.838 226.539H178.413V227.589H170.838V226.539ZM180.243 225.159H181.488V238.719H180.243V225.159ZM185.192 226.509H193.922V227.544H185.192V226.509ZM183.902 235.794H196.157V236.829H183.902V235.794ZM188.657 230.949H189.902V236.304H188.657V230.949ZM193.457 226.509H194.687V227.859C194.687 229.539 194.687 231.399 194.192 234.144L192.947 233.979C193.457 231.384 193.457 229.479 193.457 227.859V226.509ZM203.83 233.499H204.79V234.234C204.79 236.004 203.68 237.789 201.73 238.539L201.1 237.609C202.81 236.994 203.83 235.539 203.83 234.234V233.499ZM204.1 233.499H205.03V234.234C205.03 235.599 205.84 237.054 207.46 237.714L206.935 238.659C204.985 237.894 204.1 236.034 204.1 234.234V233.499ZM208.84 233.499H209.77V234.234C209.77 235.824 208.87 237.834 206.935 238.659L206.41 237.714C208.015 236.979 208.84 235.404 208.84 234.234V233.499ZM209.095 233.499H210.055V234.234C210.055 235.629 211.06 237.024 212.785 237.609L212.155 238.539C210.175 237.819 209.095 236.109 209.095 234.234V233.499ZM210.31 225.174H211.57V232.914H210.31V225.174ZM204.295 225.954C206.35 225.954 207.82 227.244 207.82 229.119C207.82 230.994 206.35 232.269 204.295 232.269C202.24 232.269 200.755 230.994 200.755 229.119C200.755 227.244 202.24 225.954 204.295 225.954ZM204.295 226.989C202.945 226.989 201.97 227.859 201.97 229.119C201.97 230.379 202.945 231.234 204.295 231.234C205.645 231.234 206.62 230.379 206.62 229.119C206.62 227.859 205.645 226.989 204.295 226.989ZM214.719 232.059H215.739C218.244 232.059 219.834 231.969 221.679 231.609L221.799 232.629C219.909 232.989 218.289 233.079 215.739 233.079H214.719V232.059ZM214.719 226.269H220.929V227.289H215.949V232.374H214.719V226.269ZM223.854 225.159H225.099V235.059H223.854V225.159ZM220.059 228.909H224.139V229.914H220.059V228.909ZM216.429 237.489H225.459V238.509H216.429V237.489ZM216.429 234.324H217.674V238.074H216.429V234.324ZM230.507 235.929H242.792V236.964H230.507V235.929ZM235.967 232.644H237.197V236.274H235.967V232.644ZM235.937 226.059H237.017V227.109C237.017 230.004 234.242 232.239 231.512 232.809L230.987 231.774C233.372 231.339 235.937 229.344 235.937 227.109V226.059ZM236.162 226.059H237.242V227.109C237.242 229.359 239.822 231.339 242.207 231.774L241.667 232.809C238.937 232.239 236.162 230.004 236.162 227.109V226.059ZM247.591 227.094H248.596V229.299C248.596 232.164 246.871 235.044 244.711 236.109L243.991 235.119C245.956 234.189 247.591 231.639 247.591 229.299V227.094ZM247.831 227.094H248.836V229.299C248.836 231.594 250.471 233.934 252.466 234.789L251.761 235.779C249.571 234.759 247.831 232.119 247.831 229.299V227.094ZM244.441 226.539H252.016V227.589H244.441V226.539ZM253.846 225.159H255.091V238.719H253.846V225.159ZM45.255 254.359H46.485V256.699H45.255V254.359ZM39.735 253.699H51.99V254.719H39.735V253.699ZM40.875 247.579H50.835V248.599H40.875V247.579ZM40.935 251.434H50.775V252.454H40.935V251.434ZM42.93 248.029H44.175V252.094H42.93V248.029ZM47.55 248.029H48.78V252.094H47.55V248.029ZM41.235 256.294H50.49V260.539H41.235V256.294ZM49.275 257.284H42.465V259.534H49.275V257.284ZM59.3688 247.384C62.3538 247.384 64.1388 248.224 64.1388 249.739C64.1388 251.254 62.3538 252.094 59.3688 252.094C56.3688 252.094 54.5988 251.254 54.5988 249.739C54.5988 248.224 56.3688 247.384 59.3688 247.384ZM59.3688 248.329C57.1488 248.329 55.8738 248.839 55.8738 249.739C55.8738 250.639 57.1488 251.149 59.3688 251.149C61.5738 251.149 62.8488 250.639 62.8488 249.739C62.8488 248.839 61.5738 248.329 59.3688 248.329ZM53.2338 252.994H65.4888V253.999H53.2338V252.994ZM54.7188 255.154H63.9288V258.214H55.9788V259.864H54.7488V257.314H62.6988V256.114H54.7188V255.154ZM54.7488 259.594H64.3338V260.569H54.7488V259.594ZM70.3571 248.104H76.5821V253.729H70.3571V248.104ZM75.3671 249.109H71.5721V252.724H75.3671V249.109ZM79.0721 247.159H80.3171V254.464H79.0721V247.159ZM79.9721 250.279H82.3271V251.329H79.9721V250.279ZM71.8121 255.199H80.3921V256.114H73.0571V260.104H71.8121V255.199ZM71.8121 259.624H80.7071V260.539H71.8121V259.624ZM72.6371 257.374H80.2571V258.274H72.6371V257.374ZM93.156 247.159H94.401V257.014H93.156V247.159ZM89.166 248.179H90.471C90.471 251.704 87.996 254.314 84.021 255.559L83.511 254.539C87.006 253.474 89.166 251.359 89.166 248.704V248.179ZM84.231 248.179H89.871V249.214H84.231V248.179ZM85.611 259.399H94.746V260.434H85.611V259.399ZM85.611 256.219H86.856V259.774H85.611V256.219ZM105.965 247.144H107.225V260.734H105.965V247.144ZM106.925 252.499H109.445V253.549H106.925V252.499ZM97.3698 256.309H98.4348C100.94 256.309 102.695 256.219 104.72 255.844L104.855 256.894C102.77 257.284 100.985 257.359 98.4348 257.359H97.3698V256.309ZM97.3698 248.464H103.67V249.484H98.5998V256.774H97.3698V248.464ZM111.619 259.759C111.079 259.759 110.644 259.324 110.644 258.709C110.644 258.079 111.079 257.659 111.619 257.659C112.174 257.659 112.624 258.079 112.624 258.709C112.624 259.324 112.174 259.759 111.619 259.759ZM120.063 262.504C118.668 260.254 117.843 257.854 117.843 254.899C117.843 251.959 118.668 249.529 120.063 247.279L120.903 247.684C119.613 249.814 118.983 252.349 118.983 254.899C118.983 257.449 119.613 259.984 120.903 262.114L120.063 262.504ZM122.566 259.549V258.409H125.011V250.219H123.046V249.334C124.036 249.169 124.741 248.914 125.326 248.554H126.376V258.409H128.596V259.549H122.566ZM137.247 250.549H140.262V251.584H137.247V250.549ZM139.917 247.159H141.162V255.094H139.917V247.159ZM132.372 255.754H141.162V260.539H132.372V255.754ZM139.947 256.744H133.587V259.534H139.947V256.744ZM133.467 248.449H134.487V249.544C134.487 252.019 132.957 254.134 130.692 254.974L130.047 253.984C132.072 253.264 133.467 251.464 133.467 249.544V248.449ZM133.707 248.449H134.712V249.529C134.712 251.284 136.032 252.979 137.997 253.669L137.367 254.659C135.162 253.864 133.707 251.809 133.707 249.529V248.449ZM130.437 248.029H137.682V249.034H130.437V248.029ZM144.25 262.504L143.395 262.114C144.685 259.984 145.315 257.449 145.315 254.899C145.315 252.349 144.685 249.814 143.395 247.684L144.25 247.279C145.63 249.529 146.455 251.959 146.455 254.899C146.455 257.854 145.63 260.254 144.25 262.504Z" fill="black"/>
<circle cx="33.5131" cy="284.062" r="1.47013" fill="black"/>
<path d="M42.915 288.474H44.175V292.749H42.915V288.474ZM47.58 288.474H48.825V292.749H47.58V288.474ZM40.38 280.659H51.285V281.664H40.38V280.659ZM39.75 287.829H52.035V288.849H39.75V287.829ZM45.87 282.429C48.63 282.429 50.265 283.239 50.265 284.664C50.265 286.104 48.63 286.914 45.87 286.914C43.095 286.914 41.46 286.104 41.46 284.664C41.46 283.239 43.095 282.429 45.87 282.429ZM45.87 283.374C43.89 283.374 42.75 283.839 42.75 284.664C42.75 285.504 43.89 285.969 45.87 285.969C47.85 285.969 48.99 285.504 48.99 284.664C48.99 283.839 47.85 283.374 45.87 283.374ZM45.24 279.084H46.485V281.379H45.24V279.084ZM63.5538 279.159H64.7538V292.719H63.5538V279.159ZM61.2588 284.589H63.8688V285.624H61.2588V284.589ZM60.4788 279.459H61.6488V292.029H60.4788V279.459ZM53.7288 288.339H54.6138C56.5938 288.339 57.9438 288.264 59.5188 287.934L59.6388 288.969C58.0188 289.314 56.6538 289.374 54.6138 289.374H53.7288V288.339ZM53.7288 280.809H58.7688V281.829H54.9588V288.804H53.7288V280.809ZM67.8727 279.774H77.8327V280.779H67.8727V279.774ZM67.9327 283.854H77.7727V284.859H67.9327V283.854ZM69.9277 280.239H71.1727V284.304H69.9277V280.239ZM74.5477 280.239H75.7777V284.304H74.5477V280.239ZM66.7327 286.494H78.9877V287.514H66.7327V286.494ZM72.2527 284.529H73.4827V287.124H72.2527V284.529ZM68.3227 291.399H77.6377V292.419H68.3227V291.399ZM68.3227 288.684H69.5677V291.729H68.3227V288.684ZM86.3665 279.384C89.3515 279.384 91.1365 280.224 91.1365 281.739C91.1365 283.254 89.3515 284.094 86.3665 284.094C83.3665 284.094 81.5965 283.254 81.5965 281.739C81.5965 280.224 83.3665 279.384 86.3665 279.384ZM86.3665 280.329C84.1465 280.329 82.8715 280.839 82.8715 281.739C82.8715 282.639 84.1465 283.149 86.3665 283.149C88.5715 283.149 89.8465 282.639 89.8465 281.739C89.8465 280.839 88.5715 280.329 86.3665 280.329ZM80.2315 284.994H92.4865V285.999H80.2315V284.994ZM81.7165 287.154H90.9265V290.214H82.9765V291.864H81.7465V289.314H89.6965V288.114H81.7165V287.154ZM81.7465 291.594H91.3315V292.569H81.7465V291.594ZM106.655 279.159H107.9V292.719H106.655V279.159ZM103.595 284.454H107.09V285.474H103.595V284.454ZM99.7098 280.614H100.85C100.85 283.884 100.16 287.049 97.7298 289.674L96.7248 288.969C98.9598 286.644 99.7098 283.824 99.7098 280.749V280.614ZM97.1598 280.614H100.175V281.649H97.1598V280.614ZM103.37 280.614H104.525C104.525 283.899 104.06 287.619 101.57 290.574L100.565 289.884C102.86 287.229 103.37 283.869 103.37 280.734V280.614ZM101.255 280.614H103.88V281.649H101.255V280.614ZM120.589 279.159H121.789V292.719H120.589V279.159ZM118.309 284.679H120.919V285.699H118.309V284.679ZM117.514 279.459H118.684V292.029H117.514V279.459ZM110.944 280.794H112.189V288.624H110.944V280.794ZM110.944 288.129H111.814C113.209 288.129 114.769 288.039 116.539 287.694L116.674 288.774C114.829 289.134 113.269 289.209 111.814 289.209H110.944V288.129ZM130.062 279.894C131.847 279.894 133.137 281.154 133.137 282.969C133.137 284.799 131.847 286.044 130.062 286.044C128.247 286.044 126.972 284.799 126.972 282.969C126.972 281.154 128.247 279.894 130.062 279.894ZM130.062 280.914C128.937 280.914 128.112 281.769 128.112 282.969C128.112 284.169 128.937 285.024 130.062 285.024C131.172 285.024 132.012 284.169 132.012 282.969C132.012 281.769 131.172 280.914 130.062 280.914ZM137.082 279.174H138.267V286.539H137.082V279.174ZM134.952 282.279H137.502V283.299H134.952V282.279ZM134.172 279.429H135.357V286.449H134.172V279.429ZM129.387 287.169H130.617V288.774H137.067V287.169H138.267V292.539H129.387V287.169ZM130.617 289.764V291.519H137.067V289.764H130.617ZM146.471 280.014C149.291 280.014 151.391 281.514 151.391 283.764C151.391 286.029 149.291 287.514 146.471 287.514C143.651 287.514 141.536 286.029 141.536 283.764C141.536 281.514 143.651 280.014 146.471 280.014ZM146.471 281.034C144.326 281.034 142.736 282.129 142.736 283.764C142.736 285.384 144.326 286.494 146.471 286.494C148.616 286.494 150.206 285.384 150.206 283.764C150.206 282.129 148.616 281.034 146.471 281.034ZM140.351 289.884H152.636V290.934H140.351V289.884ZM153.85 290.019H166.135V291.054H153.85V290.019ZM159.34 287.109H160.585V290.454H159.34V287.109ZM155.335 280.164H164.62V284.274H156.61V286.989H155.38V283.269H163.39V281.169H155.335V280.164ZM155.38 286.464H164.935V287.484H155.38V286.464ZM180.303 279.159H181.548V286.074H180.303V279.159ZM176.013 279.819H177.363C177.363 283.239 175.008 285.429 171.048 286.389L170.613 285.369C174.123 284.559 176.013 282.774 176.013 280.434V279.819ZM171.318 279.819H176.583V280.839H171.318V279.819ZM176.883 281.109H180.513V282.099H176.883V281.109ZM176.763 283.704H180.438V284.679H176.763V283.704ZM172.818 286.704H181.548V290.034H174.093V292.194H172.863V289.074H180.318V287.709H172.818V286.704ZM172.863 291.594H181.998V292.584H172.863V291.594ZM194.207 279.159H195.407V292.719H194.207V279.159ZM189.272 284.019H191.867V285.054H189.272V284.019ZM191.492 279.474H192.662V292.029H191.492V279.474ZM186.662 281.259H187.622V282.984C187.622 285.954 186.482 288.759 184.487 290.019L183.722 289.089C185.612 287.949 186.662 285.474 186.662 282.984V281.259ZM186.917 281.259H187.877V282.984C187.877 285.339 188.897 287.694 190.757 288.774L189.992 289.689C188.012 288.489 186.917 285.819 186.917 282.984V281.259ZM184.097 280.734H190.292V281.769H184.097V280.734ZM206.671 279.174H207.916V289.344H206.671V279.174ZM207.526 283.614H209.926V284.664H207.526V283.614ZM197.431 280.809H205.441V281.814H197.431V280.809ZM201.436 282.564C203.356 282.564 204.676 283.569 204.676 285.099C204.676 286.614 203.356 287.619 201.436 287.619C199.501 287.619 198.181 286.614 198.181 285.099C198.181 283.569 199.501 282.564 201.436 282.564ZM201.436 283.539C200.206 283.539 199.366 284.154 199.366 285.099C199.366 286.029 200.206 286.644 201.436 286.644C202.651 286.644 203.491 286.029 203.491 285.099C203.491 284.154 202.651 283.539 201.436 283.539ZM200.806 279.159H202.051V281.334H200.806V279.159ZM199.471 291.399H208.531V292.419H199.471V291.399ZM199.471 288.534H200.716V291.834H199.471V288.534ZM220.064 279.144H221.324V292.734H220.064V279.144ZM221.024 284.499H223.544V285.549H221.024V284.499ZM211.469 288.309H212.534C215.039 288.309 216.794 288.219 218.819 287.844L218.954 288.894C216.869 289.284 215.084 289.359 212.534 289.359H211.469V288.309ZM211.469 280.464H217.769V281.484H212.699V288.774H211.469V280.464ZM225.718 291.759C225.178 291.759 224.743 291.324 224.743 290.709C224.743 290.079 225.178 289.659 225.718 289.659C226.273 289.659 226.723 290.079 226.723 290.709C226.723 291.324 226.273 291.759 225.718 291.759ZM42.585 316.504C41.19 314.254 40.365 311.854 40.365 308.899C40.365 305.959 41.19 303.529 42.585 301.279L43.425 301.684C42.135 303.814 41.505 306.349 41.505 308.899C41.505 311.449 42.135 313.984 43.425 316.114L42.585 316.504ZM44.4284 313.549V312.754C47.8784 309.739 49.4534 307.534 49.4534 305.659C49.4534 304.399 48.8084 303.469 47.4434 303.469C46.5434 303.469 45.7634 304.024 45.1484 304.744L44.3534 303.979C45.2534 303.004 46.2134 302.359 47.6084 302.359C49.5734 302.359 50.8034 303.634 50.8034 305.599C50.8034 307.804 49.0784 310.039 46.4834 312.484C47.0684 312.424 47.7284 312.379 48.2834 312.379H51.3284V313.549H44.4284ZM59.7687 304.549H62.7837V305.584H59.7687V304.549ZM62.4387 301.159H63.6837V309.094H62.4387V301.159ZM54.8937 309.754H63.6837V314.539H54.8937V309.754ZM62.4687 310.744H56.1087V313.534H62.4687V310.744ZM55.9887 302.449H57.0087V303.544C57.0087 306.019 55.4787 308.134 53.2137 308.974L52.5687 307.984C54.5937 307.264 55.9887 305.464 55.9887 303.544V302.449ZM56.2287 302.449H57.2337V303.529C57.2337 305.284 58.5537 306.979 60.5187 307.669L59.8887 308.659C57.6837 307.864 56.2287 305.809 56.2287 303.529V302.449ZM52.9587 302.029H60.2037V303.034H52.9587V302.029ZM66.7725 316.504L65.9175 316.114C67.2075 313.984 67.8375 311.449 67.8375 308.899C67.8375 306.349 67.2075 303.814 65.9175 301.684L66.7725 301.279C68.1525 303.529 68.9775 305.959 68.9775 308.899C68.9775 311.854 68.1525 314.254 66.7725 316.504Z" fill="black"/>
<circle cx="33.5131" cy="338.062" r="1.47013" fill="black"/>
<path d="M49.02 333.144H50.265V342.969H49.02V333.144ZM49.89 337.179H52.275V338.214H49.89V337.179ZM40.365 339.549H41.415C44.205 339.549 45.78 339.474 47.595 339.099L47.73 340.104C45.87 340.494 44.265 340.584 41.415 340.584H40.365V339.549ZM40.365 334.314H46.35V335.349H41.595V340.104H40.365V334.314ZM41.82 345.399H50.88V346.419H41.82V345.399ZM41.82 341.994H43.065V345.864H41.82V341.994ZM63.1188 333.159H64.3638V346.719H63.1188V333.159ZM59.1438 334.614H60.3738C60.3738 338.544 58.6038 341.979 54.0738 344.199L53.4138 343.194C57.3288 341.304 59.1438 338.424 59.1438 334.824V334.614ZM54.0288 334.614H59.6838V335.634H54.0288V334.614ZM79.0721 333.159H80.3171V340.059H79.0721V333.159ZM79.7771 336.069H82.3121V337.104H79.7771V336.069ZM71.7071 340.704H80.3171V344.034H72.9671V346.059H71.7371V343.089H79.1021V341.694H71.7071V340.704ZM71.7371 345.534H80.8121V346.539H71.7371V345.534ZM73.5371 333.639C75.5771 333.639 77.0471 334.884 77.0471 336.654C77.0471 338.439 75.5771 339.684 73.5371 339.684C71.5271 339.684 70.0421 338.439 70.0421 336.654C70.0421 334.884 71.5271 333.639 73.5371 333.639ZM73.5371 334.659C72.2321 334.659 71.2571 335.484 71.2571 336.654C71.2571 337.839 72.2321 338.664 73.5371 338.664C74.8721 338.664 75.8471 337.839 75.8471 336.654C75.8471 335.484 74.8721 334.659 73.5371 334.659ZM92.466 333.159H93.726V346.719H92.466V333.159ZM93.426 338.484H95.946V339.549H93.426V338.484ZM83.826 334.299H85.056V337.884H88.926V334.299H90.156V343.464H83.826V334.299ZM85.056 338.874V342.444H88.926V338.874H85.056ZM96.7998 344.019H109.085V345.054H96.7998V344.019ZM102.29 341.109H103.535V344.454H102.29V341.109ZM98.2848 334.164H107.57V338.274H99.5598V340.989H98.3298V337.269H106.34V335.169H98.2848V334.164ZM98.3298 340.464H107.885V341.484H98.3298V340.464ZM117.208 335.529H118.228V335.709C118.228 337.704 116.758 339.264 114.463 339.834L113.953 338.844C115.888 338.409 117.208 337.149 117.208 335.709V335.529ZM117.433 335.529H118.453V335.709C118.453 337.074 119.758 338.229 121.678 338.664L121.168 339.639C118.903 339.099 117.433 337.614 117.433 335.709V335.529ZM114.238 334.689H121.423V335.679H114.238V334.689ZM117.193 333.189H118.453V335.349H117.193V333.189ZM117.223 340.914H118.468V346.329H117.223V340.914ZM123.223 333.159H124.453V346.734H123.223V333.159ZM113.488 341.829L113.323 340.779C115.888 340.779 119.293 340.764 122.263 340.344L122.353 341.259C119.308 341.784 116.008 341.829 113.488 341.829ZM130.452 334.554H131.487V335.634C131.487 338.124 129.957 340.209 127.677 341.019L127.032 340.044C129.072 339.324 130.452 337.554 130.452 335.634V334.554ZM130.692 334.554H131.727V335.634C131.727 337.464 133.137 339.114 135.147 339.789L134.502 340.764C132.252 339.999 130.692 338.004 130.692 335.634V334.554ZM136.707 333.159H137.967V341.364H136.707V333.159ZM128.907 342.084H137.967V346.719H136.707V343.104H128.907V342.084ZM127.362 334.104H134.787V335.109H127.362V334.104ZM149.621 333.174H150.866V343.344H149.621V333.174ZM150.476 337.614H152.876V338.664H150.476V337.614ZM140.381 334.809H148.391V335.814H140.381V334.809ZM144.386 336.564C146.306 336.564 147.626 337.569 147.626 339.099C147.626 340.614 146.306 341.619 144.386 341.619C142.451 341.619 141.131 340.614 141.131 339.099C141.131 337.569 142.451 336.564 144.386 336.564ZM144.386 337.539C143.156 337.539 142.316 338.154 142.316 339.099C142.316 340.029 143.156 340.644 144.386 340.644C145.601 340.644 146.441 340.029 146.441 339.099C146.441 338.154 145.601 337.539 144.386 337.539ZM143.756 333.159H145.001V335.334H143.756V333.159ZM142.421 345.399H151.481V346.419H142.421V345.399ZM142.421 342.534H143.666V345.834H142.421V342.534ZM163.015 333.144H164.275V346.734H163.015V333.144ZM163.975 338.499H166.495V339.549H163.975V338.499ZM154.42 342.309H155.485C157.99 342.309 159.745 342.219 161.77 341.844L161.905 342.894C159.82 343.284 158.035 343.359 155.485 343.359H154.42V342.309ZM154.42 334.464H160.72V335.484H155.65V342.774H154.42V334.464ZM168.668 345.759C168.128 345.759 167.693 345.324 167.693 344.709C167.693 344.079 168.128 343.659 168.668 343.659C169.223 343.659 169.673 344.079 169.673 344.709C169.673 345.324 169.223 345.759 168.668 345.759ZM177.113 348.504C175.718 346.254 174.893 343.854 174.893 340.899C174.893 337.959 175.718 335.529 177.113 333.279L177.953 333.684C176.663 335.814 176.033 338.349 176.033 340.899C176.033 343.449 176.663 345.984 177.953 348.114L177.113 348.504ZM182.241 345.759C180.516 345.759 179.451 345.039 178.731 344.244L179.421 343.344C180.066 344.019 180.891 344.619 182.151 344.619C183.456 344.619 184.386 343.824 184.386 342.564C184.386 341.244 183.501 340.374 180.966 340.374V339.309C183.231 339.309 183.996 338.409 183.996 337.209C183.996 336.159 183.291 335.469 182.151 335.469C181.266 335.469 180.486 335.919 179.871 336.549L179.136 335.664C179.961 334.914 180.936 334.359 182.196 334.359C184.041 334.359 185.391 335.364 185.391 337.119C185.391 338.454 184.611 339.339 183.441 339.759V339.819C184.731 340.134 185.781 341.109 185.781 342.624C185.781 344.574 184.206 345.759 182.241 345.759ZM194.296 336.549H197.311V337.584H194.296V336.549ZM196.966 333.159H198.211V341.094H196.966V333.159ZM189.421 341.754H198.211V346.539H189.421V341.754ZM196.996 342.744H190.636V345.534H196.996V342.744ZM190.516 334.449H191.536V335.544C191.536 338.019 190.006 340.134 187.741 340.974L187.096 339.984C189.121 339.264 190.516 337.464 190.516 335.544V334.449ZM190.756 334.449H191.761V335.529C191.761 337.284 193.081 338.979 195.046 339.669L194.416 340.659C192.211 339.864 190.756 337.809 190.756 335.529V334.449ZM187.486 334.029H194.731V335.034H187.486V334.029ZM201.3 348.504L200.445 348.114C201.735 345.984 202.365 343.449 202.365 340.899C202.365 338.349 201.735 335.814 200.445 333.684L201.3 333.279C202.68 335.529 203.505 337.959 203.505 340.899C203.505 343.854 202.68 346.254 201.3 348.504Z" fill="black"/>
<rect x="28.75" y="396.75" width="224.5" height="58.5" rx="29.25" fill="white"/>
<rect x="28.75" y="396.75" width="224.5" height="58.5" rx="29.25" stroke="black" stroke-width="1.5"/>
<path d="M78.9653 423.264H81.4293V424.776H78.9653V423.264ZM80.9393 420.282H82.8013V427.772H80.9393V420.282ZM74.1633 428.304H82.8013V433.106H74.1633V428.304ZM80.9813 429.76H75.9973V431.636H80.9813V429.76ZM74.9473 421.486H76.4593V422.298C76.4593 424.748 75.3113 426.988 72.8193 427.8L71.8813 426.33C74.0233 425.63 74.9473 423.936 74.9473 422.298V421.486ZM75.3393 421.486H76.8373V422.298C76.8373 423.81 77.7193 425.406 79.7633 426.092L78.8533 427.562C76.4453 426.764 75.3393 424.608 75.3393 422.298V421.486ZM72.3853 420.94H79.3573V422.41H72.3853V420.94ZM89.4362 420.66H91.0742V421.262C91.0742 423.754 89.1142 425.868 85.7122 426.372L84.9842 424.874C87.9662 424.482 89.4362 422.788 89.4362 421.262V420.66ZM89.7862 420.66H91.4102V421.262C91.4102 422.774 92.8942 424.482 95.8622 424.874L95.1482 426.372C91.7462 425.868 89.7862 423.754 89.7862 421.262V420.66ZM89.4502 428.5H91.2982V433.246H89.4502V428.5ZM84.5642 427.324H96.2822V428.836H84.5642V427.324ZM97.1491 426.092H108.895V427.45H97.1491V426.092ZM98.4651 428.094H107.495V431.174H100.341V432.28H98.4931V429.998H105.661V429.354H98.4651V428.094ZM98.4931 431.888H107.859V433.148H98.4931V431.888ZM98.5911 420.506H107.467V423.558H100.453V424.622H98.6051V422.396H105.633V421.752H98.5911V420.506ZM98.6051 424.23H107.705V425.49H98.6051V424.23ZM117.638 423.698H120.27V425.182H117.638V423.698ZM117.568 426.932H120.214V428.416H117.568V426.932ZM122.034 420.282H123.812V433.246H122.034V420.282ZM119.36 420.562H121.096V432.672H119.36V420.562ZM116.434 421.808H118.226C118.226 425.49 117.12 428.43 113.508 430.558L112.458 429.256C115.384 427.478 116.434 425.322 116.434 422.186V421.808ZM113.2 421.808H117.064V423.292H113.2V421.808ZM125.239 426.568H136.971V428.052H125.239V426.568ZM130.153 424.888H132.001V427.212H130.153V424.888ZM130.125 420.506H131.721V420.898C131.721 423.292 129.817 425.168 126.513 425.644L125.827 424.188C128.739 423.838 130.125 422.354 130.125 420.898V420.506ZM130.433 420.506H132.029V420.898C132.029 422.41 133.387 423.838 136.327 424.188L135.641 425.644C132.337 425.154 130.433 423.348 130.433 420.898V420.506ZM126.541 428.962H135.543V433.246H133.681V430.418H126.541V428.962ZM141.346 428.626H142.396C144.692 428.626 146.19 428.57 147.87 428.262L148.052 429.76C146.316 430.082 144.762 430.152 142.396 430.152H141.346V428.626ZM141.346 421.43H147.212V422.914H143.208V429.2H141.346V421.43ZM149.76 420.282H151.622V433.288H149.76V420.282ZM146.582 424.748H150.544V426.26H146.582V424.748ZM153.314 422.228H159.516V423.712H153.314V422.228ZM156.436 424.286C158.088 424.286 159.278 425.56 159.278 427.38C159.278 429.186 158.088 430.46 156.436 430.46C154.798 430.46 153.594 429.186 153.594 427.38C153.594 425.56 154.798 424.286 156.436 424.286ZM156.436 425.84C155.736 425.84 155.246 426.4 155.246 427.38C155.246 428.36 155.736 428.906 156.436 428.906C157.136 428.906 157.64 428.36 157.64 427.38C157.64 426.4 157.136 425.84 156.436 425.84ZM162.694 420.282H164.472V433.246H162.694V420.282ZM161.14 425.546H163.282V427.044H161.14V425.546ZM159.978 420.52H161.714V432.7H159.978V420.52ZM155.526 420.632H157.36V423.166H155.526V420.632ZM173.621 421.724H175.231V422.102C175.231 424.384 173.369 426.246 170.079 426.694L169.393 425.238C172.249 424.888 173.621 423.432 173.621 422.102V421.724ZM174.153 421.724H175.763V422.102C175.763 423.432 177.135 424.888 179.991 425.238L179.319 426.694C176.015 426.246 174.153 424.384 174.153 422.102V421.724ZM173.719 428.5H175.567V433.26H173.719V428.5ZM168.833 427.436H180.551V428.92H168.833V427.436ZM169.869 420.94H179.487V422.41H169.869V420.94ZM186.528 424.636H188.67V426.148H186.528V424.636ZM183.756 421.402H185.184V423.586C185.184 426.526 184.372 429.396 182.3 430.67L181.18 429.27C183.084 428.094 183.756 425.784 183.756 423.586V421.402ZM184.162 421.402H185.562V423.502C185.562 425.616 186.108 427.772 187.872 428.92L186.864 430.376C184.806 429.102 184.162 426.302 184.162 423.502V421.402ZM190.784 420.282H192.562V433.246H190.784V420.282ZM188.152 420.478H189.888V432.658H188.152V420.478ZM196.607 426.862H198.455V430.502H196.607V426.862ZM201.311 426.862H203.173V430.502H201.311V426.862ZM194.031 430.236H205.763V431.748H194.031V430.236ZM199.883 420.912C202.669 420.912 204.727 422.284 204.727 424.398C204.727 426.512 202.669 427.87 199.883 427.87C197.083 427.87 195.039 426.512 195.039 424.398C195.039 422.284 197.083 420.912 199.883 420.912ZM199.883 422.368C198.077 422.368 196.873 423.11 196.873 424.398C196.873 425.672 198.077 426.428 199.883 426.428C201.689 426.428 202.893 425.672 202.893 424.398C202.893 423.11 201.689 422.368 199.883 422.368ZM208.324 432.196C207.582 432.196 207.05 431.622 207.05 430.852C207.05 430.082 207.582 429.522 208.324 429.522C209.052 429.522 209.612 430.082 209.612 430.852C209.612 431.622 209.052 432.196 208.324 432.196Z" fill="black"/>
<path d="M159.573 64.6197C157.828 65.9968 157.531 68.5429 158.892 70.3124L201.984 125.846C202.497 126.271 202.801 126.327 202.961 126.191L202.993 126.167C203.361 125.782 202.913 124.245 202.873 124.125L187.852 86.2696L166.691 59.015L159.573 64.6277V64.6197Z" fill="#FFC536" stroke="black" stroke-width="0.843203" stroke-linecap="round" stroke-linejoin="round"/>
<path d="M186.891 74.5318L219.582 48.7665L206.924 32.449C205.555 30.6795 203.025 30.3672 201.279 31.7364L166.69 59.0149L187.852 86.2695L185.41 80.1124C184.617 78.1188 185.226 75.8529 186.899 74.5318H186.891Z" fill="#FFC536" stroke="black" stroke-width="0.843203" stroke-linecap="round" stroke-linejoin="round"/>
<path d="M234.579 77.7504L206.596 100.057C205.315 101.082 203.442 100.858 202.425 99.5525L172.992 62.0414C171.976 60.7444 172.184 58.8548 173.473 57.8299L201.456 35.5315C202.737 34.5066 204.611 34.7308 205.627 36.0359L235.052 73.547C236.069 74.844 235.86 76.7336 234.571 77.7584L234.579 77.7504Z" fill="#FFC536" stroke="black" stroke-width="0.843203" stroke-linecap="round" stroke-linejoin="round"/>
<path d="M176.419 58.4309C175.258 59.3597 175.066 61.0571 175.986 62.2341L202.929 96.5745C203.849 97.7515 205.539 97.9517 206.7 97.0309L211.4 93.2838L181.054 54.7319L176.419 58.4309Z" fill="#FFC536" stroke="black" stroke-width="0.843203" stroke-linecap="round" stroke-linejoin="round"/>
<path d="M181.055 54.7317L211.4 93.2836L219.198 87.0624L188.853 48.5185L181.055 54.7317Z" fill="#FFC536" stroke="black" stroke-width="0.843203" stroke-linecap="round" stroke-linejoin="round"/>
<path d="M201.354 41.5463L185.077 54.3179L212.845 89.7056L229.121 76.934L201.354 41.5463Z" fill="white" stroke="black" stroke-width="0.843203" stroke-linecap="round" stroke-linejoin="round"/>
<path d="M232.064 73.3472L205.122 39.0067C204.201 37.8298 202.512 37.6296 201.351 38.5504L188.853 48.5106L219.198 87.0625L231.632 77.1503C232.793 76.2216 232.985 74.5241 232.064 73.3472Z" fill="#FFC536" stroke="black" stroke-width="0.843203" stroke-linecap="round" stroke-linejoin="round"/>
<path d="M250.808 86.0135C251.248 87.1265 250.912 88.3915 249.983 89.1281L203.521 125.742L203 126.159C203.368 125.774 202.92 124.237 202.88 124.117L185.418 80.1047C184.625 78.111 185.233 75.8451 186.907 74.524L229.534 40.9122C230.815 39.9034 232.713 40.4158 233.313 41.9531L250.8 86.0216L250.808 86.0135Z" fill="#FFD536" stroke="black" stroke-width="0.843203" stroke-linecap="round" stroke-linejoin="round"/>
<path d="M249.047 89.4965L232.032 46.597C231.488 45.2279 229.799 44.7635 228.654 45.6683L190.502 75.7412C189.005 76.9181 188.468 78.9518 189.173 80.7293L206.171 123.573C206.171 123.573 206.179 123.613 206.187 123.637L249.135 89.7928C249.111 89.6967 249.079 89.5926 249.047 89.4965Z" fill="#FFD536" stroke="black" stroke-width="0.843203" stroke-linecap="round" stroke-linejoin="round"/>
</svg>
