<svg width="284" height="483" viewBox="0 0 284 483" fill="none" xmlns="http://www.w3.org/2000/svg">
<g clip-path="url(#clip0_1072_17822)">
<rect x="0.224609" width="283" height="483" rx="5.87755" fill="#F4B8FF"/>
<path d="M115.691 244.958H-9.40662C-24.3287 244.958 -36.4229 232.86 -36.4229 217.942C-36.4229 203.02 -24.325 190.926 -9.40662 190.926H115.691C130.613 190.926 142.707 203.023 142.707 217.942C142.707 232.86 130.609 244.958 115.691 244.958Z" fill="black"/>
<path d="M-9.40731 238.656C-24.0941 238.656 -36.0439 226.707 -36.0439 212.02C-36.0439 197.333 -24.0941 185.383 -9.40731 185.383H115.69C130.377 185.383 142.327 197.333 142.327 212.02C142.327 226.707 130.377 238.656 115.69 238.656H-9.40731Z" fill="white"/>
<path d="M115.691 185.759C130.169 185.759 141.948 197.538 141.948 212.016C141.948 226.494 130.169 238.273 115.691 238.273H-9.40662C-23.8846 238.273 -35.6636 226.494 -35.6636 212.016C-35.6636 197.538 -23.8846 185.759 -9.40662 185.759H115.691ZM115.691 185H-9.40662C-24.3287 185 -36.4229 197.098 -36.4229 212.016C-36.4229 226.938 -24.325 239.032 -9.40662 239.032H115.691C130.613 239.032 142.707 226.934 142.707 212.016C142.707 197.098 130.609 185 115.691 185Z" fill="black"/>
<path d="M28.4329 203.976C29.5186 209.552 31.4166 219.87 31.557 220.929C30.5549 221.32 27.9888 221.794 27.1499 221.821C26.9259 220.956 25.4493 213.288 24.3902 207.571C23.4146 213.288 22.0746 220.929 21.8544 221.791C20.9889 221.791 18.4228 221.343 17.4473 220.956C17.5574 219.896 19.3149 209.552 20.3208 203.976C19.1213 203.976 18.2027 203.949 17.8686 203.919C17.7282 203.304 17.7282 200.21 17.8686 199.626C19.4857 199.402 29.5793 199.402 31.0028 199.626C31.1433 200.157 31.1433 203.194 31.0028 203.919C30.5777 203.949 29.6325 203.949 28.4329 203.976ZM43.2943 222.546C42.4592 222.74 39.8096 222.74 38.7201 222.546C38.6936 221.905 38.6632 216.97 38.6632 211.784H36.9891C36.9891 216.803 36.9626 221.544 36.9056 222.185C36.0705 222.352 33.474 222.352 32.4149 222.185C32.3049 220.792 32.3049 200.434 32.4149 199.041C33.364 198.874 35.9566 198.874 36.9056 199.041C36.9626 199.599 36.9891 203.224 36.9891 207.461C37.5206 207.434 38.1052 207.434 38.6632 207.461C38.6632 203.167 38.6898 199.485 38.7201 198.927C39.6691 198.76 42.3453 198.76 43.2943 198.927C43.4614 200.324 43.4614 221.18 43.2943 222.546Z" fill="black"/>
<path d="M45.8347 199.569C47.3113 199.318 55.8713 199.318 57.3518 199.569C57.5188 200.992 57.5188 220.23 57.3518 221.737C55.9852 221.847 47.1746 221.847 45.8347 221.737C45.6411 220.287 45.6411 201.019 45.8347 199.569ZM52.8345 217.471C52.918 215.573 52.918 205.703 52.8345 203.835C52.3031 203.725 50.9669 203.725 50.4088 203.835C50.3253 205.703 50.3253 215.573 50.4088 217.471C50.9669 217.554 52.3031 217.554 52.8345 217.471ZM59.0524 198.927C60.0014 198.76 62.7345 198.76 63.6797 198.927C63.8733 200.32 63.8733 221.179 63.6797 222.546C62.8712 222.739 60.138 222.739 59.0524 222.546C58.8853 221.179 58.8853 200.324 59.0524 198.927Z" fill="black"/>
<path d="M81.5545 222.493C80.1614 222.603 66.8336 222.603 65.6872 222.493C65.4936 221.403 65.4936 219.202 65.6872 218.143C66.1351 218.086 68.4469 218.059 71.18 218.059V215.159C68.9214 215.159 66.9968 215.132 66.3021 215.075C66.1617 213.766 66.1617 206.208 66.3021 205.175C67.5852 205.118 74.9722 205.118 76.0617 205.175V203.642C75.0292 203.668 67.4751 203.668 66.1617 203.642C65.9947 202.64 65.9947 200.298 66.1617 199.318C67.3612 199.178 79.5199 199.178 80.7156 199.318C80.8561 200.658 80.8561 207.878 80.7156 209.245C79.5161 209.271 72.7402 209.271 71.1231 209.245V210.888C72.3492 210.831 79.9336 210.831 81.1597 210.888C81.3002 211.697 81.3268 214.149 81.1597 215.072C80.4347 215.129 78.4 215.155 76.0275 215.182V218.055C78.7037 218.055 81.0193 218.082 81.5469 218.139C81.7519 219.255 81.7785 221.487 81.5545 222.493Z" fill="black"/>
<path d="M108.104 222.493C106.711 222.603 88.9187 222.603 87.7761 222.493C87.5825 221.404 87.5825 219.285 87.7761 218.226C88.2506 218.169 91.6252 218.143 95.5009 218.143C95.5009 216.917 95.501 215.607 95.5275 214.491C92.0959 214.491 89.1123 214.434 88.4745 214.381C88.3075 212.065 88.3341 201.888 88.4745 199.352C89.2831 199.212 92.1567 199.212 93.1019 199.352C93.1284 200.161 93.1284 201.361 93.1284 202.67C95.444 202.613 100.436 202.613 102.748 202.644C102.748 201.361 102.748 200.161 102.774 199.352C103.776 199.212 106.509 199.212 107.401 199.352C107.542 201.862 107.542 212.57 107.401 214.381C106.843 214.438 103.833 214.464 100.348 214.491C100.375 215.577 100.375 216.943 100.375 218.143C104.194 218.143 107.512 218.169 108.1 218.226C108.297 219.338 108.324 221.487 108.104 222.493ZM93.1019 210.167C93.7168 210.224 102.163 210.224 102.778 210.167C102.778 209.86 102.751 208.524 102.751 206.85C100.436 206.876 95.444 206.876 93.1322 206.85C93.1284 208.52 93.1019 209.86 93.1019 210.167Z" fill="black"/>
<path d="M109.554 209.693C110.894 209.609 121.071 209.609 122.715 209.693C122.882 211.033 122.855 212.566 122.715 214.127C121.071 214.21 110.89 214.21 109.554 214.127C109.387 212.593 109.387 211.086 109.554 209.693ZM110.139 215.493C111.281 215.383 113.737 215.383 114.88 215.493C114.937 216.442 114.937 217.501 114.88 218.45C116.163 218.393 121.155 218.393 122.407 218.45C122.517 219.232 122.517 221.965 122.407 222.774C121.014 222.884 111.532 222.884 110.139 222.774C109.945 221.597 109.945 216.662 110.139 215.493ZM110.419 199.208C111.535 199.068 113.988 199.068 115.161 199.208C115.218 200.127 115.218 203.251 115.161 204.173C116.444 204.116 120.764 204.116 122.02 204.173C122.161 204.982 122.161 207.518 122.02 208.326C120.597 208.436 111.816 208.436 110.419 208.326C110.196 207.153 110.196 200.377 110.419 199.208Z" fill="black"/>
<path d="M329.205 298.557H204.111C189.189 298.557 177.095 286.459 177.095 271.541C177.095 256.619 189.193 244.525 204.111 244.525H329.209C344.131 244.525 356.225 256.623 356.225 271.541C356.225 286.463 344.127 298.557 329.205 298.557Z" fill="black"/>
<path d="M204.11 292.26C189.424 292.26 177.474 280.31 177.474 265.623C177.474 250.936 189.424 238.987 204.11 238.987H329.204C343.891 238.987 355.841 250.936 355.841 265.623C355.841 280.31 343.891 292.26 329.204 292.26H204.11Z" fill="white"/>
<path d="M329.205 239.362C343.683 239.362 355.462 251.141 355.462 265.619C355.462 280.097 343.683 291.876 329.205 291.876H204.111C189.633 291.876 177.854 280.097 177.854 265.619C177.854 251.141 189.633 239.362 204.111 239.362H329.205ZM329.205 238.603H204.111C189.189 238.603 177.095 250.701 177.095 265.619C177.095 280.541 189.193 292.636 204.111 292.636H329.209C344.131 292.636 356.225 280.538 356.225 265.619C356.225 250.697 344.127 238.603 329.205 238.603Z" fill="black"/>
<path d="M212.486 270.877C212.627 271.602 212.627 274.335 212.486 275.284C210.869 275.477 203.509 275.477 201.668 275.284C201.474 272.775 201.474 255.708 201.668 253.199C203.008 253.032 209.586 253.032 211.454 253.199C211.564 253.924 211.564 256.573 211.454 257.549C210.421 257.576 207.662 257.576 206.462 257.549C206.435 257.91 206.435 259.641 206.435 261.732C207.802 261.706 209.393 261.732 210.311 261.789C210.452 262.321 210.452 265.3 210.311 265.999C209.393 266.082 207.802 266.082 206.435 266.082C206.435 268.451 206.435 270.49 206.462 270.877C207.802 270.85 211.287 270.85 212.486 270.877ZM219.095 252.641C219.205 254.034 219.205 274.392 219.095 275.785C218.26 275.952 215.664 275.952 214.604 275.785C214.548 275.117 214.521 270.182 214.521 265.023C213.378 265.023 212.319 264.997 211.678 264.966C211.537 264.382 211.537 261.341 211.678 260.726C212.319 260.7 213.378 260.7 214.521 260.7C214.521 256.63 214.548 253.199 214.604 252.641C215.553 252.474 218.146 252.474 219.095 252.641ZM225.256 276.149C224.421 276.343 221.771 276.343 220.682 276.149C220.598 274.783 220.598 253.928 220.682 252.531C221.631 252.364 224.307 252.364 225.256 252.531C225.427 253.924 225.427 274.783 225.256 276.149Z" fill="black"/>
<path d="M227.242 271.799C228.384 271.659 243.386 271.689 244.779 271.799C244.973 272.915 245.003 275.09 244.779 276.092C243.386 276.203 228.384 276.203 227.242 276.092C227.044 275.007 227.044 272.858 227.242 271.799ZM227.325 267.506C228.635 264.074 232.792 255.013 234.018 252.644C234.826 252.561 237.195 252.561 238.003 252.644C239.23 255.013 243.386 264.078 244.696 267.506C244.138 268.147 241.405 269.123 240.346 269.347C239.761 268.204 236.47 260.506 236.022 259.17C235.547 260.51 232.287 268.204 231.698 269.347C230.613 269.123 227.91 268.147 227.325 267.506Z" fill="black"/>
<path d="M264.355 276.092C262.962 276.202 247.402 276.202 246.259 276.092C246.066 275.003 246.066 272.942 246.259 271.882C247.402 271.742 262.962 271.772 264.355 271.882C264.549 272.998 264.579 275.09 264.355 276.092ZM246.984 269.343C246.791 266.834 246.791 255.651 246.984 253.142C248.324 252.948 261.512 252.948 263.406 253.142C263.573 254.174 263.573 256.068 263.406 257.241C262.123 257.268 252.838 257.268 251.919 257.241C251.893 257.659 251.893 258.3 251.893 259.082C255.768 259.056 262.07 259.082 263.076 259.166C263.186 260.282 263.216 262.233 263.076 263.235C262.074 263.319 255.768 263.345 251.893 263.292C251.893 264.101 251.893 264.742 251.919 265.16C253.259 265.103 262.487 265.103 263.687 265.16C263.797 265.885 263.797 268.367 263.687 269.343C262.123 269.54 248.822 269.54 246.984 269.343Z" fill="black"/>
<path d="M75.1444 298.049C60.4577 298.049 48.5078 286.099 48.5078 271.413C48.5078 256.726 60.4577 244.776 75.1444 244.776H150.894C165.581 244.776 177.531 256.726 177.531 271.413C177.531 286.099 165.581 298.049 150.894 298.049H75.1444Z" fill="white"/>
<path d="M150.891 245.152C165.369 245.152 177.148 256.931 177.148 271.409C177.148 285.887 165.369 297.666 150.891 297.666H75.1451C60.6671 297.666 48.8881 285.887 48.8881 271.409C48.8881 256.931 60.6671 245.152 75.1451 245.152H150.891ZM150.891 244.393H75.1451C60.223 244.393 48.1289 256.49 48.1289 271.409C48.1289 286.331 60.2268 298.425 75.1451 298.425H150.895C165.817 298.425 177.911 286.327 177.911 271.409C177.907 256.487 165.813 244.393 150.891 244.393Z" fill="black"/>
<path d="M150.891 292.507H75.1451C60.223 292.507 48.1289 280.409 48.1289 265.491C48.1289 250.569 60.2268 238.475 75.1451 238.475H150.895C165.817 238.475 177.911 250.572 177.911 265.491C177.907 280.409 165.813 292.507 150.891 292.507Z" fill="black"/>
<path d="M76.8313 267.427C76.6643 266.425 76.6643 264.303 76.8313 263.27C77.1957 263.244 78.3915 263.213 79.982 263.187C79.9554 261.68 79.982 260.009 80.039 259.171C81.0411 259.03 83.6072 259.03 84.5562 259.171C84.6132 260.006 84.6397 261.68 84.6132 263.187C88.1814 263.187 91.78 263.213 92.5886 263.27C92.729 264.36 92.7556 266.447 92.5886 267.427C90.9677 267.51 78.1713 267.51 76.8313 267.427ZM77.6133 257.083C77.4728 255.716 77.4728 254.293 77.6133 252.926C79.3974 252.843 89.8251 252.786 91.4726 252.926C91.5826 254.266 91.5826 260.317 91.4726 261.683C90.6374 261.851 88.0713 261.851 86.9819 261.683C86.9249 259.732 86.9553 258.616 86.9819 257.109C86.0329 257.166 78.9495 257.14 77.6133 257.083ZM98.6091 271.751C98.7761 272.669 98.7761 275.402 98.6091 276.294C96.7111 276.404 80.0921 276.404 78.0878 276.294C77.9777 274.203 77.9474 270.745 78.0878 268.82C79.0368 268.653 81.8535 268.653 82.829 268.82C82.8556 269.712 82.886 271.022 82.829 271.747C84.1083 271.694 97.3829 271.694 98.6091 271.751ZM100.868 262.94C100.393 262.997 99.4442 263.05 98.4686 263.05C98.4686 266.482 98.4117 269.575 98.3281 270.16C97.5196 270.27 94.7865 270.27 93.7008 270.16C93.5907 268.793 93.5907 253.792 93.7008 252.398C94.6498 252.231 97.3829 252.231 98.3281 252.398C98.4117 252.956 98.4382 255.576 98.4686 258.673C99.4442 258.673 100.393 258.73 100.868 258.783C101.008 259.398 101.008 262.352 100.868 262.94Z" fill="white"/>
<path d="M101.43 262.101C101.988 261.125 107.257 254.376 108.874 252.649C109.849 252.565 112.692 252.565 113.668 252.649C115.285 254.376 120.554 261.125 121.112 262.101C120.554 262.853 118.436 264.584 117.43 264.975C116.815 264.36 112.689 259.034 111.269 257.166C109.845 259.034 105.719 264.36 105.108 264.975C104.106 264.584 101.988 262.856 101.43 262.101ZM102.963 266.06C104.44 265.893 125.356 265.893 126.833 266.06C127.026 267.427 127.026 274.954 126.833 276.294C125.493 276.435 104.303 276.435 102.963 276.294C102.766 274.958 102.766 267.427 102.963 266.06ZM122.175 272.392C122.232 271.5 122.232 270.858 122.175 269.993C121.116 269.936 108.65 269.909 107.648 269.993C107.591 270.858 107.591 271.5 107.648 272.392C108.68 272.476 121.142 272.476 122.175 272.392ZM122.228 252.398C123.177 252.231 125.88 252.231 126.829 252.398C127.022 253.792 127.022 263.692 126.829 265.085C126.02 265.195 123.318 265.195 122.228 265.085C122.091 263.718 122.091 253.792 122.228 252.398Z" fill="white"/>
<path d="M137.541 253.067C138.71 258.085 140.915 271.109 141.417 274.286C140.581 274.677 137.848 275.121 136.842 275.095C136.341 271.944 135.199 264.166 134.834 261.516C134.474 264.166 133.327 271.944 132.826 275.095C131.824 275.121 129.091 274.677 128.252 274.286C128.753 271.109 130.955 258.085 132.128 253.067C133.024 252.93 136.649 252.93 137.541 253.067ZM149.221 265.84C148.747 265.897 147.798 265.924 146.822 265.924C146.822 270.858 146.765 275.406 146.682 276.017C145.873 276.211 143.14 276.211 142.054 276.017C141.887 274.51 141.887 253.681 142.054 252.398C143.003 252.231 145.736 252.231 146.682 252.398C146.765 252.983 146.822 256.889 146.822 261.349C147.798 261.349 148.747 261.406 149.221 261.46C149.362 262.074 149.362 265.225 149.221 265.84Z" fill="white"/>
<path d="M163.739 134.762C163.6 132.982 163.6 128.127 163.739 126.347C164.699 126.266 172.214 126.266 172.773 126.347C172.832 126.867 172.832 128.567 172.773 129.265C172.451 129.286 167.795 129.286 167.135 129.265C167.076 129.785 167.076 131.104 167.135 131.802C168.116 131.764 172.853 131.764 173.711 131.802C173.792 132.301 173.792 134.082 173.711 134.758C172.553 134.843 165.055 134.843 163.739 134.762ZM178.786 139.558C178.786 142.155 176.706 143.555 171.314 143.555C165.917 143.555 163.841 142.155 163.841 139.558C163.841 136.962 165.917 135.562 171.314 135.562C176.706 135.562 178.786 136.962 178.786 139.558ZM175.31 139.558C175.31 138.818 174.511 138.421 171.314 138.421C168.116 138.421 167.317 138.818 167.317 139.558C167.317 140.298 168.116 140.696 171.314 140.696C174.511 140.7 175.31 140.298 175.31 139.558ZM180.106 132.225C179.767 132.263 179.086 132.305 178.389 132.305C178.368 133.705 178.351 134.902 178.287 135.261C177.708 135.342 175.771 135.342 174.989 135.261C174.887 134.28 174.887 127.087 174.989 126.089C175.669 125.97 177.606 125.97 178.287 126.089C178.346 126.469 178.368 127.709 178.389 129.168C179.086 129.168 179.767 129.206 180.106 129.248C180.203 129.688 180.203 131.806 180.106 132.225Z" fill="black"/>
<path d="M180.327 135.283C180.568 134.344 183.626 127.231 184.082 126.351C184.742 126.313 186.7 126.313 187.36 126.351C187.859 127.209 191.255 134.145 191.555 135.084C191.014 135.503 189.216 136.323 188.519 136.463C188.18 135.942 186.878 132.965 185.821 130.808C184.903 133.007 183.723 135.985 183.444 136.526C182.746 136.403 180.885 135.684 180.327 135.283ZM181.604 137.122C182.285 137.004 184.302 137.004 185 137.122C185.021 137.782 185.038 139.321 185 139.858C185.918 139.82 194.833 139.82 195.712 139.858C195.831 140.539 195.831 142.337 195.712 142.996C194.355 143.077 183.042 143.077 181.604 142.996C181.524 141.639 181.507 138.319 181.604 137.122ZM192.198 126.089C192.879 125.97 194.837 125.97 195.513 126.089C195.653 127.087 195.653 137.499 195.513 138.501C194.934 138.581 192.976 138.581 192.198 138.501C192.118 137.52 192.118 127.091 192.198 126.089Z" fill="black"/>
<path d="M196.954 134.403C196.954 128.728 199.432 126.33 203.107 126.33C206.964 126.33 209.265 128.948 209.265 134.403C209.265 140.078 206.787 142.476 203.107 142.476C199.272 142.476 196.954 139.88 196.954 134.403ZM205.805 134.403C205.805 130.944 204.668 129.468 203.107 129.468C201.45 129.468 200.409 131.045 200.409 134.403C200.409 137.879 201.547 139.338 203.107 139.338C204.769 139.338 205.805 137.74 205.805 134.403ZM210.225 126.089C210.906 125.97 212.864 125.97 213.54 126.089C213.68 127.087 213.68 142.036 213.54 143.017C212.961 143.157 211.003 143.157 210.225 143.017C210.102 142.036 210.102 127.091 210.225 126.089Z" fill="black"/>
<path d="M177.268 162.602C176.867 162.64 174.608 162.661 172.012 162.661C172.033 164.319 172.012 166.438 171.952 167.097C171.352 167.216 169.394 167.216 168.616 167.097C168.557 166.438 168.535 164.319 168.557 162.661C165.939 162.661 163.659 162.64 163.3 162.602C163.16 161.824 163.16 160.323 163.3 159.566C164.12 159.464 176.27 159.485 177.268 159.566C177.408 160.365 177.429 161.883 177.268 162.602ZM163.198 156.347C163.6 156.009 165.617 154.77 167.474 153.611C165.634 153.611 164.158 153.59 163.816 153.573C163.714 153.133 163.714 150.934 163.816 150.516C164.975 150.355 175.729 150.355 176.748 150.516C176.85 150.896 176.85 153.053 176.748 153.573C176.346 153.594 174.892 153.611 173.09 153.611C174.947 154.749 176.968 156.009 177.366 156.347C177.167 156.965 176.088 158.568 175.568 159.024C174.968 158.724 172.291 157.045 170.291 155.709C168.273 157.049 165.592 158.728 164.996 159.024C164.476 158.568 163.397 156.969 163.198 156.347Z" fill="black"/>
<path d="M190.158 161.266C188.961 161.325 179.285 161.325 178.309 161.266C178.207 160.107 178.207 159.265 178.309 158.246C178.689 158.225 180.448 158.225 182.487 158.225V157.286C180.706 157.286 179.23 157.248 178.871 157.206C178.731 156.106 178.731 151.37 178.871 150.253C179.89 150.135 188.585 150.135 189.604 150.253C189.744 151.374 189.744 156.111 189.604 157.206C189.245 157.244 187.765 157.286 185.988 157.286V158.225C187.989 158.225 189.706 158.225 190.167 158.246C190.26 159.227 190.239 160.086 190.158 161.266ZM189.718 162.124C189.799 162.945 189.799 166.539 189.718 167.22C188.898 167.301 187.139 167.301 186.301 167.22C186.301 166.802 186.28 165.461 186.301 164.903C185.401 164.924 179.628 164.924 178.727 164.903C178.626 164.404 178.626 162.666 178.727 162.124C179.746 162.023 188.839 162.023 189.718 162.124ZM182.106 154.411C182.804 154.47 185.642 154.47 186.344 154.411V152.994C185.625 152.956 182.787 152.956 182.106 152.994V154.411Z" fill="black"/>
<path d="M191.155 153.129C191.016 152.731 191.016 151.069 191.155 150.672C191.574 150.651 192.796 150.651 194.213 150.651C194.213 150.27 194.234 149.89 194.251 149.53C194.949 149.429 196.949 149.429 197.63 149.53C197.668 149.89 197.689 150.27 197.689 150.651C198.988 150.651 200.087 150.651 200.506 150.672C200.624 151.01 200.624 152.672 200.506 153.129C199.292 153.171 192.276 153.171 191.155 153.129ZM191.316 156.288C191.316 154.609 192.737 153.531 195.951 153.531C199.169 153.531 200.586 154.609 200.586 156.288C200.586 157.988 199.165 159.088 195.951 159.088C192.737 159.088 191.316 157.988 191.316 156.288ZM195.473 164.902C196.492 164.864 203.009 164.864 204.967 164.902C205.086 165.482 205.086 166.7 204.967 167.3C203.25 167.402 193.777 167.402 192.056 167.3C191.938 166.222 191.938 163.304 192.056 162.306C194.035 162.268 199.41 162.285 201.229 162.306V161.726C199.389 161.765 193.976 161.765 191.976 161.726C191.874 160.986 191.874 160.267 191.976 159.527C193.194 159.447 203.348 159.447 204.566 159.527C204.726 160.487 204.705 163.723 204.566 164.323C202.806 164.361 196.59 164.344 195.473 164.323V164.902ZM194.276 156.288C194.276 156.647 194.657 156.846 195.955 156.846C197.254 156.846 197.634 156.647 197.634 156.288C197.634 155.967 197.254 155.768 195.955 155.768C194.653 155.768 194.276 155.967 194.276 156.288ZM206.384 156.609C206.046 156.647 205.365 156.669 204.646 156.669C204.646 157.747 204.608 158.627 204.566 158.927C203.986 159.007 202.049 159.007 201.267 158.927C201.165 157.946 201.165 151.154 201.267 150.076C201.948 149.957 203.885 149.957 204.566 150.076C204.625 150.494 204.667 151.932 204.667 153.552C205.365 153.552 206.046 153.59 206.384 153.632C206.486 154.051 206.486 156.17 206.384 156.609Z" fill="black"/>
<path d="M210.826 159.967C210.687 159.007 210.687 151.374 210.826 150.393C211.884 150.274 220.921 150.274 221.978 150.393C222.118 151.374 222.118 159.007 221.978 159.967C221.018 160.065 211.782 160.065 210.826 159.967ZM226.791 163.841C226.909 164.522 226.909 166.319 226.791 166.979C225.433 167.059 212.721 167.059 211.283 166.979C211.203 165.621 211.182 162.302 211.283 161.105C211.964 160.986 213.981 160.986 214.679 161.105C214.7 161.765 214.717 163.304 214.679 163.841C215.601 163.803 225.911 163.803 226.791 163.841ZM214.104 157.13C214.882 157.168 218.003 157.168 218.722 157.13C218.781 156.491 218.781 153.873 218.722 153.252C217.982 153.231 214.806 153.214 214.104 153.252C214.04 153.869 214.04 156.487 214.104 157.13ZM228.411 157.426C228.072 157.464 227.391 157.506 226.694 157.506C226.694 159.904 226.655 162.061 226.592 162.484C226.013 162.564 224.055 162.564 223.277 162.484C223.196 161.502 223.196 151.074 223.277 150.071C223.957 149.953 225.915 149.953 226.592 150.071C226.651 150.452 226.672 152.249 226.694 154.368C227.391 154.368 228.072 154.406 228.411 154.448C228.512 154.888 228.512 157.007 228.411 157.426Z" fill="black"/>
<path d="M229.01 153.992C228.87 153.552 228.87 151.594 229.01 151.154C229.45 151.133 230.93 151.116 232.668 151.116C232.668 150.617 232.668 150.118 232.706 149.636C233.404 149.534 235.404 149.534 236.085 149.636C236.123 150.114 236.144 150.617 236.144 151.116C237.743 151.116 239.121 151.137 239.561 151.154C239.68 151.535 239.68 153.493 239.561 153.992C238.343 154.051 230.131 154.051 229.01 153.992ZM229.171 158.047C229.171 155.768 230.85 154.448 234.406 154.448C237.963 154.448 239.642 155.768 239.642 158.047C239.642 160.327 237.963 161.646 234.406 161.646C230.85 161.646 229.171 160.327 229.171 158.047ZM243.82 163.841C243.938 164.522 243.938 166.319 243.82 166.979C242.462 167.059 231.349 167.059 229.911 166.979C229.83 165.621 229.809 163.3 229.911 162.103C230.592 161.984 232.609 161.984 233.307 162.103C233.328 162.762 233.345 163.304 233.307 163.841C234.224 163.803 242.94 163.803 243.82 163.841ZM232.186 158.047C232.186 158.648 232.867 159.104 234.406 159.104C235.945 159.104 236.626 158.643 236.626 158.047C236.626 157.447 235.945 156.99 234.406 156.99C232.867 156.99 232.186 157.447 232.186 158.047ZM245.435 158.707C245.097 158.745 244.416 158.787 243.718 158.787C243.697 160.686 243.659 162.225 243.617 162.585C243.038 162.665 241.079 162.665 240.301 162.585C240.221 161.604 240.221 151.074 240.301 150.076C240.982 149.957 242.94 149.957 243.617 150.076C243.676 150.536 243.718 153.015 243.718 155.649C244.416 155.649 245.097 155.687 245.435 155.73C245.499 156.148 245.499 158.267 245.435 158.707Z" fill="black"/>
<path d="M163.659 177.911C163.6 177.133 163.579 175.572 163.638 174.773C164.336 174.735 165.279 174.714 166.137 174.714C170.273 174.714 172.032 176.473 172.032 179.53C172.032 181.607 171.593 183.108 170.332 184.648C169.571 185.586 168.594 186.686 167.812 187.405C169.47 187.367 171.25 187.384 172.307 187.405C172.366 188.225 172.366 189.803 172.307 190.522C171.068 190.602 164.792 190.602 163.393 190.522C163.291 189.562 163.291 188.424 163.393 187.523C164.331 186.584 165.769 184.884 166.509 184.026C168.129 182.148 168.666 181.049 168.666 179.767C168.666 178.486 167.888 177.89 165.947 177.89C165.177 177.894 164.336 177.911 163.659 177.911Z" fill="black"/>
<path d="M179.468 190.801C176.051 190.801 173.653 188.483 173.653 182.685C173.653 176.892 176.051 174.57 179.468 174.57C182.885 174.57 185.283 176.887 185.283 182.685C185.283 188.483 182.885 190.801 179.468 190.801ZM179.468 177.851C178.047 177.851 177.049 179.391 177.049 182.689C177.049 185.988 178.047 187.527 179.468 187.527C180.889 187.527 181.887 185.988 181.887 182.689C181.887 179.391 180.885 177.851 179.468 177.851Z" fill="black"/>
<path d="M186.681 177.911C186.622 177.133 186.601 175.572 186.66 174.773C187.358 174.735 188.301 174.714 189.16 174.714C193.296 174.714 195.055 176.473 195.055 179.53C195.055 181.607 194.615 183.108 193.355 184.648C192.594 185.586 191.617 186.686 190.834 187.405C192.492 187.367 194.272 187.384 195.33 187.405C195.389 188.225 195.389 189.803 195.33 190.522C194.091 190.602 187.815 190.602 186.415 190.522C186.313 189.562 186.313 188.424 186.415 187.523C187.354 186.584 188.792 184.884 189.532 184.026C191.151 182.148 191.689 181.049 191.689 179.767C191.689 178.486 190.91 177.89 188.969 177.89C188.2 177.894 187.358 177.911 186.681 177.911Z" fill="black"/>
<path d="M201.788 185.629C201.788 184.491 200.951 183.831 199.272 183.831C198.451 183.831 197.394 183.869 196.654 183.831C196.595 182.914 196.574 175.796 196.654 174.836C198.333 174.756 202.888 174.756 204.127 174.836C204.186 175.555 204.186 177.073 204.127 177.932C202.909 177.97 201.509 177.97 200.029 177.932C200.029 178.812 200.05 180.089 200.029 180.951C203.065 180.871 205.104 182.69 205.104 185.726C205.104 188.762 203.205 190.42 199.606 190.543C199.006 190.564 197.525 190.581 196.87 190.543C196.811 189.782 196.811 188.183 196.87 187.426C197.508 187.426 198.709 187.426 199.268 187.405C200.951 187.346 201.788 186.766 201.788 185.629Z" fill="black"/>
<path d="M206.685 184.686C206.567 183.468 206.567 175.513 206.685 174.494C207.544 174.392 209.282 174.392 210.103 174.494C210.162 175.433 210.162 180.588 210.103 181.73C210.821 181.692 214.319 181.692 215.237 181.73C215.338 182.309 215.338 184.106 215.237 184.686C214.243 184.808 207.688 184.808 206.685 184.686ZM221.415 190.962C220.058 191.042 208.546 191.042 207.104 190.962C207.024 189.604 207.003 186.885 207.104 185.684C207.785 185.565 209.823 185.565 210.521 185.684C210.542 186.344 210.559 187.244 210.521 187.781C211.439 187.743 220.535 187.743 221.411 187.781C221.533 188.466 221.533 190.302 221.415 190.962ZM217.837 178.452V177.674C216.34 177.695 214.539 177.674 213.701 177.653C213.6 177.255 213.6 175.276 213.701 174.875C214.522 174.815 216.361 174.794 217.88 174.815C217.88 174.435 217.901 174.177 217.901 174.054C218.582 173.936 220.54 173.936 221.216 174.054C221.356 175.052 221.356 185.244 221.216 186.246C220.637 186.327 218.679 186.327 217.901 186.246C217.863 185.828 217.842 183.709 217.842 181.349C216.345 181.37 214.543 181.349 213.706 181.29C213.604 180.892 213.604 178.913 213.706 178.49C214.522 178.452 216.34 178.431 217.837 178.452Z" fill="black"/>
<path d="M239.019 190.945C238.021 191.025 226.869 191.025 226.049 190.945C225.909 190.167 225.909 188.687 226.049 187.925C226.869 187.824 238.021 187.845 239.019 187.925C239.159 188.725 239.18 190.222 239.019 190.945ZM226.569 186.107C226.43 184.31 226.43 176.296 226.569 174.494C227.529 174.355 236.981 174.355 238.338 174.494C238.457 175.234 238.457 176.592 238.338 177.433C237.421 177.454 230.764 177.454 230.105 177.433C230.083 177.734 230.083 178.195 230.083 178.753C232.862 178.732 237.378 178.753 238.097 178.812C238.178 179.611 238.199 181.011 238.097 181.73C237.378 181.789 232.862 181.81 230.083 181.768C230.083 182.347 230.083 182.808 230.105 183.109C231.065 183.071 237.679 183.071 238.537 183.109C238.618 183.629 238.618 185.405 238.537 186.107C237.421 186.247 227.889 186.247 226.569 186.107Z" fill="black"/>
<path d="M240.603 184.529C240.501 183.531 240.501 179.653 240.603 178.253C241.504 178.215 243.859 178.215 244.781 178.253V177.116C243.88 177.137 241.444 177.137 240.522 177.116C240.421 176.338 240.421 175.077 240.522 174.337C241.381 174.278 247.098 174.278 247.936 174.337C248.037 175.335 248.037 179.433 247.936 180.634C247.094 180.672 245.136 180.672 243.88 180.634V181.755C244.54 181.717 248.397 181.717 249.298 181.755C249.399 182.356 249.399 183.933 249.298 184.534C247.957 184.61 241.939 184.61 240.603 184.529ZM258.069 190.962C256.711 191.042 242.4 191.042 240.962 190.962C240.882 189.604 240.861 186.783 240.962 185.587C241.643 185.468 243.66 185.468 244.358 185.587C244.379 186.246 244.396 187.287 244.358 187.824C245.678 187.786 257.189 187.786 258.069 187.824C258.187 188.505 258.187 190.302 258.069 190.962ZM248.837 180.013C248.756 179.175 248.756 177.674 248.837 177.057C249.276 177.036 249.856 177.019 250.435 177.019C250.456 175.538 250.473 174.401 250.494 174.143C251.175 174.041 252.973 174.041 253.653 174.143C253.713 174.98 253.713 185.274 253.653 186.234C253.074 186.352 251.277 186.352 250.494 186.234C250.456 185.773 250.435 182.897 250.435 180.059C249.856 180.051 249.276 180.03 248.837 180.013ZM254.63 186.305C254.609 185.345 254.609 174.934 254.63 174.054C255.311 173.936 257.189 173.936 257.87 174.054C258.009 174.934 258.009 185.345 257.87 186.305C257.231 186.386 255.349 186.386 254.63 186.305Z" fill="black"/>
<path d="M259.306 187.887C260.126 187.785 266.88 187.807 267.878 187.887C268.018 188.686 268.039 190.226 267.878 190.945C266.88 191.025 260.122 191.025 259.306 190.945C259.166 190.162 259.166 188.644 259.306 187.887ZM259.746 174.396C260.706 174.236 265.92 174.236 267.282 174.396C267.341 174.917 267.341 176.794 267.282 177.492C266.364 177.513 263.945 177.513 263.285 177.492C263.247 178.592 263.247 182.047 263.285 183.108C264.266 183.07 266.622 183.07 267.48 183.108C267.561 183.628 267.561 185.586 267.48 186.267C266.36 186.428 261.065 186.428 259.746 186.267C259.606 184.466 259.606 176.194 259.746 174.396Z" fill="black"/>
<path d="M171.17 198.519C171.25 199.339 171.25 213.528 171.17 214.348C170.35 214.407 168.59 214.407 167.774 214.348C167.753 213.709 167.753 211.07 167.753 208.351C166.112 208.372 164.218 208.351 163.617 208.292C163.499 207.873 163.499 205.674 163.617 205.234C164.218 205.196 166.138 205.175 167.753 205.196C167.753 203.458 167.753 202.058 167.774 201.619C166.857 201.64 164.797 201.64 163.896 201.619C163.816 201.039 163.816 199.102 163.896 198.523C164.899 198.438 170.151 198.46 171.17 198.519ZM176.11 214.965C175.509 215.105 173.551 215.105 172.773 214.965C172.654 213.984 172.654 199.039 172.773 198.037C173.471 197.918 175.433 197.918 176.11 198.037C176.228 199.039 176.228 213.984 176.11 214.965Z" fill="black"/>
<path d="M184.322 209.789C184.36 211.608 184.343 214.344 184.284 215.067C183.684 215.185 181.747 215.185 180.969 215.067C180.91 214.348 180.888 211.608 180.931 209.789C179.273 209.789 177.873 209.768 177.514 209.751C177.395 208.973 177.395 207.455 177.514 206.693C178.474 206.592 186.805 206.613 187.963 206.693C188.065 207.493 188.044 209.032 187.963 209.751C187.519 209.768 186.039 209.789 184.322 209.789ZM177.708 201.936C177.708 199.559 179.645 197.977 182.745 197.977C185.845 197.977 187.782 199.555 187.782 201.936C187.782 204.317 185.845 205.975 182.745 205.975C179.645 205.975 177.708 204.312 177.708 201.936ZM180.863 201.936C180.863 202.676 181.544 203.234 182.741 203.234C183.942 203.234 184.618 202.676 184.618 201.936C184.618 201.255 183.937 200.676 182.741 200.676C181.544 200.676 180.863 201.255 180.863 201.936ZM192.315 214.965C191.715 215.105 189.757 215.105 188.978 214.965C188.957 214.783 188.94 214.204 188.919 213.388C187.799 213.409 186.2 213.388 185.663 213.35C185.544 212.948 185.544 210.91 185.663 210.512C186.204 210.453 187.782 210.432 188.902 210.474C188.881 205.657 188.902 198.722 188.983 198.045C189.68 197.927 191.643 197.927 192.319 198.045C192.455 199.039 192.455 213.984 192.315 214.965Z" fill="black"/>
<path d="M193.757 211.87C194.577 211.768 201.331 211.789 202.329 211.87C202.469 212.669 202.49 214.208 202.329 214.927C201.331 215.008 194.573 215.008 193.757 214.927C193.617 214.145 193.617 212.627 193.757 211.87ZM194.197 198.379C195.157 198.218 200.371 198.218 201.733 198.379C201.792 198.899 201.792 200.777 201.733 201.475C200.815 201.496 198.396 201.496 197.737 201.475C197.698 202.574 197.698 206.029 197.737 207.091C198.718 207.053 201.073 207.053 201.932 207.091C202.012 207.611 202.012 209.569 201.932 210.25C200.811 210.411 195.516 210.411 194.197 210.25C194.057 208.448 194.057 200.176 194.197 198.379Z" fill="black"/>
<path d="M203.37 205.755C204.33 205.695 211.625 205.695 212.801 205.755C212.919 206.715 212.902 207.814 212.801 208.931C211.621 208.99 204.326 208.99 203.37 208.931C203.248 207.831 203.248 206.753 203.37 205.755ZM203.789 209.908C204.609 209.827 206.369 209.827 207.185 209.908C207.223 210.588 207.223 211.345 207.185 212.026C208.103 211.988 211.68 211.988 212.581 212.026C212.661 212.585 212.661 214.543 212.581 215.126C211.583 215.206 204.787 215.206 203.789 215.126C203.649 214.285 203.649 210.749 203.789 209.908ZM203.988 198.24C204.787 198.138 206.546 198.138 207.384 198.24C207.422 198.899 207.422 201.137 207.384 201.796C208.301 201.758 211.401 201.758 212.298 201.796C212.399 202.376 212.399 204.194 212.298 204.774C211.279 204.854 204.982 204.854 203.984 204.774C203.831 203.932 203.831 199.077 203.988 198.24Z" fill="black"/>
<path d="M228.592 211.071C228.211 211.109 226.553 211.109 224.633 211.13C224.654 212.568 224.633 214.407 224.574 215.067C223.974 215.185 222.016 215.185 221.237 215.067C221.178 214.407 221.157 212.568 221.178 211.13C219.22 211.13 217.562 211.109 217.22 211.071C217.08 210.293 217.08 208.791 217.22 208.034C218.04 207.933 227.594 207.954 228.592 208.034C228.731 208.829 228.748 210.347 228.592 211.071ZM217.66 206.694C217.541 205.653 217.541 199.517 217.66 198.481C218.717 198.299 227.112 198.299 228.173 198.481C228.313 199.521 228.313 205.653 228.173 206.694C227.213 206.774 218.62 206.774 217.66 206.694ZM221.018 203.793C221.817 203.852 224.037 203.852 224.836 203.793C224.874 203.272 224.874 201.894 224.836 201.374C224.037 201.293 221.817 201.293 221.018 201.374C220.975 201.894 220.975 203.277 221.018 203.793Z" fill="black"/>
<path d="M229.67 202.757C229.67 199.817 231.768 197.961 234.867 197.961C237.485 197.961 239.384 199.28 239.925 201.458C240.505 201.458 241.143 201.458 241.685 201.479C241.706 199.822 241.723 198.422 241.744 198.041C242.442 197.923 244.383 197.923 245.059 198.041C245.178 199.039 245.178 207.353 245.059 208.351C244.459 208.432 242.522 208.432 241.744 208.351C241.706 207.95 241.685 206.372 241.685 204.554C241.084 204.575 240.386 204.575 239.765 204.554C239.067 206.432 237.265 207.552 234.867 207.552C231.768 207.552 229.67 205.691 229.67 202.757ZM245.859 212.606C245.478 213.464 244.438 214.682 243.702 215.245C241.862 213.968 239.646 212.246 237.984 210.91C236.326 212.251 234.106 213.968 232.267 215.245C231.526 214.687 230.486 213.464 230.11 212.606C232.089 210.986 235.066 208.829 236.047 208.17C236.986 208.089 238.986 208.089 239.925 208.17C240.902 208.829 243.879 210.99 245.859 212.606ZM232.926 202.757C232.926 203.894 233.704 204.693 234.863 204.693C236.022 204.693 236.8 203.894 236.8 202.757C236.8 201.619 236.022 200.82 234.863 200.82C233.704 200.82 232.926 201.615 232.926 202.757Z" fill="black"/>
<path d="M247.055 205.332L247.795 205.273C249.334 205.154 249.973 204.372 249.973 203.315C249.973 202.194 249.174 201.598 248.133 201.555C247.613 201.534 247.173 201.555 246.573 201.555C246.514 200.794 246.514 199.217 246.573 198.46C247.19 198.422 247.892 198.422 248.45 198.439C251.648 198.557 253.386 200.219 253.386 203.293C253.386 205.311 252.366 206.829 250.569 207.51C250.569 208.229 250.531 209.007 250.468 209.688C249.706 209.768 247.871 209.768 247.152 209.688C247.017 208.03 246.974 206.034 247.055 205.332ZM246.797 213.067C246.797 211.946 247.698 211.066 248.814 211.066C249.931 211.066 250.831 211.946 250.831 213.067C250.831 214.187 249.931 215.067 248.814 215.067C247.698 215.067 246.797 214.187 246.797 213.067Z" fill="black"/>
<path d="M192.225 37.1159C192.225 84.6702 153.671 123.224 106.117 123.224C58.5544 123.224 20.001 84.6702 20.001 37.1159C20.001 31.5383 20.5324 26.0842 21.5457 20.8073C24.8701 3.46049 33.3972 -12.0367 45.4465 -23.9912C45.9779 -24.5226 46.5134 -25.0457 47.0613 -25.5524C48.0458 -26.4875 49.0509 -27.3897 50.0849 -28.2753L50.089 -28.2794H50.0973C65.1495 -41.2061 84.7249 -49 106.117 -49C129.964 -49 151.541 -39.3112 167.125 -23.6451C178.985 -11.7483 187.368 3.59231 190.663 20.7496C191.697 26.0471 192.225 31.5136 192.225 37.1159Z" fill="#D4EFFF" stroke="black" stroke-width="0.780825" stroke-miterlimit="10" stroke-linecap="round" stroke-linejoin="round"/>
<path d="M95.9741 59.3651C92.2296 62.3146 94.4541 64.9427 93.3048 68.8932C92.8764 70.3597 91.6694 71.5832 90.2111 72.024C88.8558 72.4359 87.0556 72.4277 86.5036 73.7335C86.24 74.3679 86.4089 75.0888 86.4748 75.7809C86.7096 78.4543 84.9877 81.1896 82.4666 82.1247C81.7004 82.4131 80.8601 82.5531 80.1515 82.9733C79.443 83.3853 78.8786 84.2174 79.1052 85.0083C79.2288 85.4285 79.5542 85.7539 79.7314 86.1494C80.4234 87.69 78.7427 89.2307 77.1979 89.8774C75.6449 90.5242 73.7418 91.1874 73.3669 92.8269C72.8891 94.9402 75.4596 96.8351 75.0559 98.9648C74.8664 99.9452 74.0631 100.748 74.026 101.741C74.0054 102.264 74.1949 102.788 74.0837 103.294C73.8777 104.266 72.6337 104.703 71.6821 104.398C70.7305 104.102 70.0302 103.315 69.3834 102.565C68.0488 101.012 66.6276 99.212 66.8253 97.1729C67.0107 95.3397 67.9458 93.7908 67.0848 91.9495C66.4381 90.5489 65.0581 89.519 64.6832 88.0237C64.5349 87.447 64.5596 86.8456 64.572 86.2482C64.6379 84.102 65.124 81.4821 64.5349 79.4224C64.1147 77.9724 63.4144 76.3864 63.2538 74.8828C63.1055 73.577 63.5916 72.1723 63.674 70.8664C63.7564 69.5935 63.5627 68.2218 62.7306 67.2496C62.3187 66.7635 61.7708 66.4092 61.2353 66.0632C59.7688 65.1199 58.6565 64.2301 57.4619 62.9695C55.5917 61.0005 54.2282 58.7266 52.4651 56.7204C52.2015 56.4197 51.9255 56.1025 51.8101 55.7194C51.7236 55.4393 51.7236 55.1386 51.7236 54.842C51.7318 53.2148 51.8843 51.5176 51.7524 49.9028C51.7154 49.3961 51.5547 48.9389 51.6412 48.4198C51.7442 47.7937 52.1932 47.2252 52.3703 46.6155C52.634 45.7175 52.5186 44.8236 52.9883 43.9627C53.2148 43.559 53.5197 43.1964 53.7998 42.8216C54.5001 41.8865 56.0407 40.0863 54.4712 39.3489C53.1242 38.7228 51.3323 39.3489 49.9399 39.4602C49.6104 39.489 49.2849 39.5137 48.9513 39.4808C48.1562 39.3942 47.4188 38.9493 46.908 38.3314C46.3931 37.7135 46.0965 36.9391 45.9853 36.144C45.7917 34.8629 45.1367 34.8835 44.0821 34.4551C43.0935 34.0555 42.4838 33.0463 41.5899 32.4654C39.489 31.1019 36.902 32.4119 34.7311 31.5756C34.2739 31.3985 33.8825 31.0978 33.5076 30.7888C32.4902 29.932 31.5715 28.9763 30.76 27.93C30.4593 27.5304 30.1627 27.1102 30.0226 26.6324C29.8826 26.1463 29.9114 25.6313 29.9402 25.1288C29.9691 24.6139 30.2863 23.2998 29.9691 22.8384C29.7466 22.5212 29.4748 22.6777 29.0546 22.5748C28.8404 22.5212 28.6715 22.377 28.5026 22.2287C28.136 21.9033 27.7652 21.5861 27.3903 21.2648C27.1679 21.0671 26.9331 20.8652 26.793 20.6016C26.6365 20.3214 26.5953 19.996 26.5582 19.6788C26.4717 18.9332 26.3729 18.1835 26.2863 17.4379C26.2328 17.0383 26.1834 16.6263 25.998 16.2721C25.2689 14.9086 24.2431 16.0744 24.309 17.133C24.3832 18.2247 24.3626 19.4193 23.6746 20.2638C23.1803 20.8734 22.2164 21.1041 21.5449 20.8075C24.8693 3.46076 33.3964 -12.0364 45.4415 -23.9909C45.8823 -23.9085 46.3272 -23.8343 46.768 -23.7561C47.2087 -23.6819 47.6536 -23.5995 48.0573 -23.4183C48.8771 -23.0517 49.4579 -22.306 50.2324 -21.8653C51.2581 -21.2762 52.4939 -21.268 53.6721 -21.268C54.1129 -21.2762 54.5495 -21.2762 54.9779 -21.3709C55.5958 -21.5028 56.2755 -21.7376 56.6957 -22.2031C58.6401 -22.1001 60.5885 -21.9971 62.5329 -21.8941C62.7595 -21.8776 63.0025 -21.8653 63.2332 -21.9229C63.4186 -21.9683 63.5875 -22.0548 63.7481 -22.1454C65.0746 -22.8622 66.3269 -23.8755 67.2496 -25.0784C67.9993 -25.0619 68.7614 -25.0331 69.5111 -24.9837C69.5194 -24.6871 69.5276 -24.4028 69.5317 -24.1062C69.54 -23.8426 69.5482 -23.5666 69.643 -23.3235C69.7459 -23.0723 69.9396 -22.7921 70.2032 -22.7839C71.5956 -22.7468 72.9879 -22.7097 74.3803 -22.6727C74.4627 -22.6644 74.5574 -22.6562 74.6151 -22.5985C74.6604 -22.545 74.6645 -22.4749 74.6727 -22.4049C74.7016 -22.0136 74.7304 -21.6181 74.7593 -21.2268C74.7757 -21.0208 74.7881 -20.8066 74.7057 -20.6212C74.5656 -20.2834 74.1661 -20.1269 73.956 -19.8344C73.8695 -19.715 73.7994 -19.5625 73.6594 -19.4966C73.5646 -19.4431 73.4534 -19.4513 73.3422 -19.4595C72.7737 -19.4966 72.2052 -19.5337 71.6409 -19.5708C71.3978 -19.5872 71.1342 -19.6078 70.9241 -19.7561C70.7264 -19.9044 70.5575 -20.2052 70.7264 -20.3905C70.1291 -20.5471 69.4576 -20.6871 68.9303 -20.3741C68.7697 -20.2875 68.6296 -20.1516 68.4895 -20.028C67.884 -19.4843 67.2578 -18.9529 66.6193 -18.4503C66.2074 -18.1331 65.779 -17.8241 65.2929 -17.6305C64.0777 -17.165 62.3434 -18.1166 61.2559 -17.3957C60.6215 -16.9756 59.9871 -16.5554 59.3527 -16.1352C59.2662 -16.0775 59.1674 -16.0116 59.1097 -15.921C59.0273 -15.7974 59.0232 -15.6326 59.0232 -15.4802C59.0149 -14.7058 58.9737 -13.9849 58.9573 -13.2187C60.4979 -12.23 62.0221 -11.2125 63.5257 -10.1827C63.5792 -10.1374 63.6369 -10.1003 63.6657 -10.0426C63.711 -9.9767 63.7028 -9.88608 63.6946 -9.80781C63.5998 -8.53903 63.4309 -7.29498 63.3568 -6.03444C63.3485 -5.96029 63.3403 -5.8779 63.3856 -5.82023C63.4392 -5.72548 63.5545 -5.69665 63.6657 -5.68017C64.3084 -5.57719 64.9633 -5.54835 65.6101 -5.59366C65.6678 -5.6019 65.7337 -5.61014 65.7707 -5.65133C65.8078 -5.68841 65.8078 -5.74608 65.8078 -5.79963C65.8078 -6.39694 65.4783 -7.77283 65.9932 -8.16417C66.4298 -8.4896 66.8541 -8.98393 67.3773 -9.12399C67.9664 -9.29288 68.6214 -9.01276 69.2351 -9.17754C69.7789 -9.32583 70.2238 -9.75425 70.5163 -10.2403C70.817 -10.7264 71.0024 -11.2702 71.2166 -11.7934C71.888 -13.4164 72.8437 -14.9529 73.8901 -16.3535C73.993 -16.4853 74.096 -16.6172 74.2526 -16.6996C74.4091 -16.7819 74.5904 -16.7819 74.7675 -16.7737C75.5255 -16.7531 76.2711 -16.6048 76.9796 -16.337C77.0661 -16.3 77.165 -16.2547 77.2144 -16.1764C77.2803 -16.0899 77.2721 -15.9622 77.2597 -15.851C77.2021 -15.3566 77.0991 -14.8541 77.1856 -14.3639C77.3627 -13.4288 78.3266 -12.9262 79.0929 -13.5688C79.2906 -13.7295 79.4306 -13.9437 79.5954 -14.1373C80.5099 -15.2495 82.1083 -15.7356 83.4883 -15.3237C83.8178 -14.7634 83.7231 -13.9766 83.2658 -13.5029C83.0022 -13.2434 82.685 -12.8685 82.8292 -12.5307C83.3441 -12.4772 83.8549 -12.4277 84.3698 -12.3701C84.4893 -12.3618 84.6128 -12.3495 84.6952 -12.2671C84.7694 -12.2012 84.8065 -12.1064 84.8353 -12.0076C84.9671 -11.6039 85.0948 -11.1301 84.8806 -10.7553C84.7117 -10.4463 84.3574 -10.298 84.0485 -10.1291C83.7313 -9.96023 83.4306 -9.74601 83.1628 -9.50297C82.2771 -8.71617 83.4059 -8.22184 84.1556 -8.55963C84.5675 -8.75324 84.9218 -9.06219 85.3626 -9.19402C85.9887 -9.37115 86.7261 -9.09103 87.0721 -8.53079C87.1545 -8.41133 87.2122 -8.27127 87.2122 -8.12709C87.2122 -7.91289 87.0886 -7.71515 86.9609 -7.53802C86.5036 -6.89539 85.8857 -6.39695 85.4285 -5.7708C85.0165 -5.19408 84.8394 -4.44435 84.1226 -4.11892C83.7313 -3.93355 83.274 -3.97886 82.8415 -4.03242C81.5686 -4.18071 80.2916 -4.32901 79.0187 -4.48143C76.6995 -4.74507 74.0754 -4.93868 72.2753 -3.44334C72.0528 -3.25797 71.8345 -3.00669 71.8716 -2.72245C72.6007 -2.44233 73.4864 -2.17869 74.1125 -2.63594C74.2608 -2.74716 74.3844 -2.89546 74.5492 -2.99021C74.9529 -3.24149 75.3607 -3.10967 75.8179 -2.98197C76.1063 -3.08495 76.3864 -2.776 76.4812 -2.48764C76.5759 -2.19929 76.613 -1.86149 76.8478 -1.66788C77.2391 -1.35069 77.8076 -1.64728 78.3061 -1.61021C79.1588 -1.5443 79.5666 -0.52681 79.719 0.321785C79.9415 1.53701 77.581 1.28572 76.7489 1.34752C75.2742 1.46698 73.7953 1.50405 72.3123 1.47934C71.8345 1.4711 71.3402 1.45874 70.8829 1.5988C70.0796 1.85832 69.6224 2.52566 68.988 3.02823C68.4195 3.469 67.781 3.5967 67.2125 4.05396C65.9808 5.0179 65.1034 6.54619 63.571 7.08995C62.673 7.40714 61.6555 7.85616 61.4248 8.7789C61.3136 9.20732 61.4083 9.64809 61.4042 10.0889C61.3959 11.7119 59.8718 13.1619 58.257 13.0878C58.0633 13.0796 57.8574 13.0507 57.6802 13.1249C57.5196 13.1908 57.3919 13.3226 57.2807 13.4503C56.877 13.8911 56.4568 14.373 56.3579 14.9621C56.1973 15.9137 57.0665 17.2237 56.6298 18.0929C56.3126 18.7272 55.9954 19.3616 55.6782 19.996C55.5011 20.342 55.324 20.6963 55.0232 20.9476C54.7266 21.1906 54.2859 21.3101 53.9563 21.1082C53.5073 20.8446 53.4826 20.2226 53.4702 19.7077C53.4414 18.4636 53.0954 17.1495 52.1644 16.3256C51.1922 15.4647 49.6515 15.3246 48.5393 16.0002C47.8843 16.3915 47.3818 17.03 46.6691 17.306C46.286 17.4461 45.8741 17.4749 45.4662 17.4997C44.5064 17.5573 43.559 17.4173 42.5909 17.4997C41.9194 17.5532 40.7784 17.4049 40.2099 17.7963C39.938 17.9899 39.7897 18.2988 39.6497 18.5995C39.0606 19.8807 38.5168 21.17 37.9978 22.4841C37.8206 22.9414 37.6435 23.3986 37.5776 23.8765C37.3552 25.4913 38.6445 26.9496 39.7815 27.9135C39.9586 28.0618 40.144 28.2018 40.3582 28.2678C42.2902 28.8486 43.2624 24.6139 45.4003 25.1205C46.3643 25.3471 46.7185 26.5706 46.5785 27.551C46.4384 28.5232 46.2242 29.6272 46.3066 30.6158C47.5383 30.9248 48.7535 31.2955 49.9481 31.7157C49.9564 33.0504 49.9687 34.3892 49.977 35.7239C49.9852 35.9587 49.9852 36.2017 50.0882 36.4077C50.3477 36.9226 51.048 36.9885 51.6206 36.9885C53.3013 36.9803 55.1427 36.935 56.8234 36.9308C57.4207 35.4108 59.2497 34.5004 60.8192 34.9329C60.9222 35.6044 60.4073 36.1852 60.0736 36.7661C59.7358 37.3551 59.6534 38.2779 60.2796 38.5415C60.8769 38.8011 61.4825 38.1502 61.7255 37.5405C61.9603 36.9308 62.1621 36.1935 62.7636 35.9422C63.0519 35.8227 63.3815 35.8557 63.6904 35.8845C65.4741 36.0452 67.2661 36.2141 69.0498 36.3788C69.404 36.4159 69.7707 36.453 70.0961 36.6054C70.6852 36.8938 71.0188 37.5117 71.4885 37.9607C72.2094 38.6404 73.2268 38.8752 74.1702 39.1677C76.6748 39.9545 78.8045 41.5487 80.6912 43.3818C80.8518 44.6877 80.7653 46.0265 80.4193 47.3035C80.3534 47.5383 80.2875 47.7813 80.2875 48.0244C80.3081 48.9677 81.445 49.4909 82.3884 49.462C83.3317 49.4332 84.2833 49.0872 85.2019 49.2684C85.5397 49.3261 85.8816 49.4909 86.034 49.7916C86.0999 49.9317 86.1205 50.0923 86.1453 50.2488C86.1906 50.6114 86.1453 50.9697 86.1906 51.3323C87.826 50.4837 89.9063 50.5743 91.4593 51.5588C92.7116 52.3456 93.6261 53.6432 94.9072 54.3682C95.9329 54.9367 97.3006 54.8337 97.6178 56.2755C97.9061 57.4907 96.9422 58.603 95.9741 59.3651Z" fill="#C8D87F" stroke="black" stroke-width="0.780825" stroke-miterlimit="10" stroke-linecap="round" stroke-linejoin="round"/>
<path d="M50.5364 23.4932C50.4622 23.5179 50.3881 23.5426 50.3304 23.5961C50.1038 23.8021 50.3222 24.177 50.5693 24.3582C51.2779 24.8773 52.1882 25.0132 53.0121 25.3222C54.1367 25.7465 55.1048 26.5085 56.2129 26.9658C57.321 27.4231 58.7298 27.5137 59.6073 26.6939C59.805 26.5127 59.9739 26.249 59.9121 25.9895C59.8627 25.7671 59.6649 25.6146 59.4796 25.4828C56.5507 23.4149 54.0914 22.3191 50.5364 23.4932Z" fill="#C8D87F" stroke="black" stroke-width="0.780825" stroke-miterlimit="10" stroke-linecap="round" stroke-linejoin="round"/>
<path d="M61.7259 27.0111C60.9515 27.1636 59.003 28.214 60.2635 29.2027C60.4654 29.3592 60.7414 29.3674 60.9968 29.3674C61.9813 29.3633 66.0307 30.0018 65.0997 27.8597C64.6136 26.7434 62.6981 26.8175 61.7259 27.0111Z" fill="#C8D87F" stroke="black" stroke-width="0.780825" stroke-miterlimit="10" stroke-linecap="round" stroke-linejoin="round"/>
<path d="M175.754 15.3248C176.644 15.4813 177.53 15.6419 178.424 15.8026C179.005 16.6141 179.75 17.6604 180.331 18.472C180.463 18.6573 180.595 18.8386 180.768 18.9951C181.41 19.5718 182.432 19.5101 183.186 19.0981C183.429 18.9581 183.672 18.7809 183.96 18.7521C184.401 18.715 184.78 19.0528 185.126 19.3329C186.675 20.5399 188.665 20.7994 190.667 20.7459C187.371 3.5886 178.988 -11.752 167.128 -23.6447C166.346 -23.5994 165.617 -23.4099 165.044 -22.9156C164.933 -22.8291 164.838 -22.7302 164.784 -22.6066C164.719 -22.446 164.739 -22.2606 164.756 -22.0835C164.822 -21.4038 164.805 -20.7282 164.504 -20.1226C163.936 -20.1144 163.372 -20.102 162.795 -20.0938C162.358 -20.0856 161.905 -20.0773 161.505 -19.8878C161.106 -19.6942 160.789 -19.2782 160.859 -18.8497C160.875 -18.7303 160.916 -18.6067 160.875 -18.4955C160.83 -18.376 160.715 -18.3183 160.612 -18.2607C160.426 -18.1494 160.266 -18.0259 160.134 -17.857C159.722 -17.7375 159.248 -17.8652 158.947 -18.1659C158.712 -18.4007 158.581 -18.7262 158.342 -18.961C158.008 -19.2946 157.518 -19.3976 157.052 -19.4265C156.83 -19.4347 156.603 -19.4347 156.389 -19.5006C156.167 -19.5583 155.948 -19.7642 155.948 -19.9949C155.948 -20.3616 156.031 -20.7405 156.175 -21.0783C156.212 -21.1607 156.257 -21.239 156.331 -21.2925C156.443 -21.379 156.603 -21.3667 156.743 -21.3502C157.51 -21.2678 158.276 -21.1525 159.034 -20.9959C159.643 -20.8641 160.266 -20.7158 160.883 -20.8106C161.493 -20.9136 162.127 -21.3626 162.218 -21.9805C161.592 -22.6643 160.937 -23.3811 160.08 -23.7436C159.372 -24.0443 158.593 -24.0896 157.827 -24.1267C156.154 -24.2132 154.482 -24.3038 152.809 -24.3862C150.84 -24.4892 148.875 -24.5922 146.906 -24.4974C146.523 -24.4768 146.14 -24.4439 145.778 -24.3121C145.394 -24.172 145.061 -23.9125 144.752 -23.6406C143.042 -22.1164 142.461 -19.1917 140.278 -18.4584C139.467 -18.1948 138.598 -18.0918 137.749 -18.1618C137.337 -18.1989 136.88 -18.2566 136.563 -18.0011C136.394 -17.8611 136.299 -17.6551 136.208 -17.4491C135.957 -16.8724 135.706 -16.2998 135.459 -15.7231C135.413 -15.6284 135.372 -15.5254 135.393 -15.4224C135.409 -15.3359 135.467 -15.2617 135.524 -15.1958C135.796 -14.8704 136.064 -14.5491 136.336 -14.2237C136.513 -14.0094 136.698 -13.787 136.941 -13.6469C137.345 -13.4121 137.84 -13.4245 138.313 -13.4492C138.82 -13.4698 139.339 -13.5028 139.846 -13.5234C140.212 -13.544 140.632 -13.544 140.876 -13.2638C141.024 -13.0949 141.069 -12.8601 141.102 -12.6377C141.189 -12.0857 141.271 -11.5007 141.58 -11.0394C141.881 -10.5698 142.56 -10.1249 143.084 -10.3226C143.767 -10.5862 144.455 -10.8458 145.139 -11.1094C145.242 -11.1465 145.345 -11.1918 145.419 -11.2701C145.53 -11.3936 145.53 -11.579 145.588 -11.7397C145.712 -12.1022 146.095 -12.2917 146.42 -12.4894C146.523 -12.5553 146.634 -12.6377 146.709 -12.7324C146.795 -12.8519 146.832 -12.9961 146.869 -13.1361C146.972 -13.5563 147.083 -13.993 147.038 -14.4255C146.993 -14.8622 146.75 -15.3029 146.346 -15.4554C146.12 -15.5501 145.839 -15.5583 145.691 -15.7561C145.609 -15.8673 145.588 -16.0074 145.572 -16.1474C145.518 -16.7736 145.58 -17.3997 145.683 -18.0135C146.404 -18.8456 147.615 -19.1546 148.253 -20.0567C148.319 -20.1515 148.385 -20.2545 148.488 -20.3162C148.583 -20.3698 148.702 -20.3739 148.805 -20.3739C149.197 -20.3739 149.666 -20.3574 150 -20.1679C149.926 -20.0114 150.082 -19.859 150.119 -19.6901C150.173 -19.4265 149.897 -19.2122 149.662 -19.0804C149.263 -18.8456 148.867 -18.6108 148.468 -18.3719C148.233 -18.2401 147.994 -18.1 147.821 -17.894C147.664 -17.7087 147.561 -17.4739 147.504 -17.2308C147.409 -16.8189 147.561 -16.4193 147.776 -16.0527C148.521 -15.9044 149.213 -15.4924 149.971 -15.4265C150.441 -15.3812 150.906 -15.4801 151.363 -15.5748C152.822 -15.8755 154.371 -16.2586 155.755 -15.7314C155.981 -15.649 156.204 -15.5336 156.323 -15.3277C156.443 -15.1217 156.426 -14.685 156.2 -14.6274C155.433 -14.4296 154.638 -14.582 153.847 -14.6068C153.065 -14.6356 152.196 -14.4955 151.697 -13.8859C151.631 -13.8117 151.574 -13.7252 151.565 -13.6263C151.545 -13.338 151.891 -13.1897 152.051 -12.9549C152.183 -12.7572 152.183 -12.44 152.023 -12.2546C151.52 -12.1434 150.968 -12.0321 150.511 -12.2711C150.387 -12.337 150.268 -12.4317 150.136 -12.4935C149.876 -12.613 149.592 -12.6047 149.312 -12.5965C149.188 -12.5883 149.053 -12.58 148.945 -12.51C148.851 -12.4441 148.789 -12.3329 148.752 -12.2216C148.463 -11.439 148.723 -10.5492 148.422 -9.77472C148.282 -9.40809 148.2 -8.86021 147.899 -8.60893C144.95 -8.33705 141.967 -8.47711 139.055 -9.01263C138.791 -9.05794 138.515 -9.11561 138.243 -9.09914C137.955 -9.08266 137.667 -8.99615 137.403 -8.89317C136.262 -8.45651 135.228 -7.72738 134.433 -6.80051C134.103 -6.41741 133.815 -5.98899 133.432 -5.65944C133.049 -5.32577 133.069 -5.16511 132.571 -5.22279C132.431 -5.12804 132.262 -5.12804 132.093 -5.10332C131.438 -5.01681 130.861 -4.63783 130.26 -4.36595C129.708 -4.10643 129.119 -3.95401 128.521 -3.87987C127.961 -3.80572 127.389 -3.98285 127.034 -3.47616C126.746 -3.07246 126.659 -2.05497 127.014 -1.69246C127.273 -1.44118 127.677 -1.42058 127.974 -1.20638C128.307 -0.963331 128.414 -0.526676 128.497 -0.131214C128.563 0.148905 128.616 0.445501 128.526 0.709143C128.414 1.04281 128.163 1.3806 127.817 1.45887C126.437 1.78431 124.913 0.742098 123.566 1.31057C122.66 1.68544 122.828 2.52579 122.791 3.36615C122.734 4.62668 122.68 5.87898 122.631 7.13951C122.622 7.28781 122.614 7.44847 122.697 7.57617C122.763 7.69975 122.894 7.7739 123.014 7.83981C123.426 8.06226 123.838 8.28883 124.254 8.51128C124.489 8.6431 124.723 8.7708 124.971 8.8779C126.952 9.77593 129.568 9.29808 131.063 7.71211C131.261 6.76877 131.912 5.92018 132.773 5.4794C133.362 5.17868 134.157 4.93976 134.284 4.28477C134.35 3.90167 134.198 3.39911 134.519 3.1849C134.713 3.06132 134.96 3.12723 135.174 3.19314C135.78 3.37027 136.418 3.54741 137.032 3.40734C137.753 3.23845 138.293 2.66997 138.795 2.12621C138.972 1.9326 139.355 1.85434 139.545 1.66896C139.714 1.49183 140.031 1.56598 140.192 1.75135C140.348 1.93672 140.398 2.188 140.443 2.43105C140.628 3.35379 140.892 4.26006 141.16 5.16633C141.769 5.2034 142.391 5.24871 143.009 5.28579C143.644 5.3311 144.41 5.3723 144.875 5.80071C144.904 6.41038 144.925 7.03241 144.958 7.64208C144.966 7.82745 144.978 8.02518 145.09 8.18172C145.193 8.30531 145.353 8.37534 145.51 8.42477C146.017 8.58542 146.527 8.42477 147.059 8.35886C147.413 8.0499 147.405 7.48143 147.244 7.04065C147.083 6.59164 146.803 6.19205 146.692 5.7348C146.647 5.52059 146.634 5.29815 146.56 5.09218C146.404 4.63492 145.988 4.30949 145.543 4.12C145.106 3.92227 144.628 3.81928 144.179 3.63391C143.252 3.25905 142.136 2.60406 142.087 1.60717C142.07 1.33529 142.058 1.06341 142.132 0.80389C142.198 0.544369 142.375 0.297205 142.635 0.214817C142.923 0.111832 143.232 0.235415 143.504 0.375473C143.907 0.581442 144.299 0.816248 144.661 1.09225C145.061 1.39296 145.436 1.73487 145.876 1.96144C146.297 2.17565 146.766 2.28687 147.195 2.50108C147.598 2.70705 147.953 3.00776 148.307 3.30436C148.501 3.46502 148.706 3.6957 148.632 3.93875C148.558 4.16531 148.435 4.3754 148.435 4.61845C148.138 4.97271 148.08 5.51648 148.303 5.9243C148.529 6.33624 149.02 6.58751 149.473 6.52984C149.67 6.50101 149.872 6.42686 150.062 6.47217C150.371 6.54632 150.536 6.90883 150.49 7.21778C150.453 7.53498 150.268 7.99223 150.086 8.24763C149.72 8.04166 149.349 8.61426 149.477 9.02208C149.6 9.43402 149.955 9.73885 150.066 10.1508C150.589 10.3197 151.149 10.3568 151.689 10.2703C151.813 10.2538 151.94 10.2167 152.027 10.1302C152.101 10.0478 152.13 9.93658 152.15 9.8336C152.282 9.25277 152.422 8.66369 152.554 8.07874C152.649 7.67916 152.739 7.26722 152.673 6.87175C152.608 6.46805 151.957 5.8625 151.553 5.78012C151.405 5.40525 151.693 4.96859 152.06 4.80794C152.426 4.6514 152.846 4.69671 153.254 4.74203C153.72 4.79558 154.189 4.84501 154.647 4.95624C155.293 5.11277 156.047 5.61946 155.878 6.2662C155.755 6.76877 155.133 7.00357 154.956 7.48966C154.762 8.00459 155.162 8.5813 155.672 8.78727C156.179 8.985 156.599 9.45873 157.147 9.38458C157.802 8.67605 158.865 8.45772 159.821 8.57307C160.78 8.69665 161.678 9.11683 162.556 9.53288C162.894 9.69354 163.256 9.87067 163.47 10.1796C163.676 10.4886 163.705 10.8799 163.705 11.2548C163.713 12.47 163.372 13.8253 162.333 14.4679C161.707 14.851 160.933 14.8963 160.195 14.9252C158.288 14.9911 156.373 14.9911 154.461 14.9252C154.025 14.9087 153.547 14.8675 153.258 14.5503C152.921 14.1672 153.007 13.5781 152.838 13.1003C152.521 12.1858 151.195 11.8933 150.42 12.4741C149.646 13.055 149.497 14.2414 149.955 15.0982C148.723 15.436 147.458 15.6667 146.181 15.7614C145.909 15.782 145.605 15.7902 145.399 15.6131C144.884 15.1765 145.493 14.3031 145.242 13.6811C143.533 12.6513 141.971 13.607 140.785 11.9057C140.591 11.6255 140.665 11.263 140.468 10.9829C140.307 10.7481 139.973 10.7234 139.85 10.3856C139.747 10.1343 139.73 9.82536 139.533 9.64822C139.376 9.5164 139.166 9.49169 138.964 9.47933C137.881 9.38459 136.789 9.28572 135.706 9.18274C134.466 9.07975 133.156 8.6019 132.287 9.48345C130.812 10.9706 128.505 11.2589 126.421 11.0735C126.054 11.0365 125.675 10.9911 125.321 11.0818C125.012 11.1477 124.74 11.3042 124.464 11.4566C123.463 12.0251 122.466 12.5936 121.473 13.158C120.752 13.5617 121.21 14.6904 121.107 15.5142C120.789 18.0065 117.568 18.3896 116.27 20.0827C115.587 20.9889 115.871 21.9487 115.591 22.958C115.364 23.7819 114.668 24.2844 114.639 25.236C114.594 26.4512 115.442 27.3863 115.191 28.6469C114.866 30.274 114.099 31.86 113.782 33.5325C113.362 35.7817 115.484 37.0999 117.424 37.5489C117.786 37.6313 118.198 37.7178 118.351 38.0556C118.956 39.3985 117.893 40.5849 119.043 41.8207C121.181 44.1193 124.863 43.522 127.628 43.3531C129.881 43.2131 129.918 40.8238 131.961 40.9886C132.538 41.0421 133.765 40.8938 134.247 41.2399C134.684 41.5488 134.416 41.969 134.705 42.3315C135.471 43.2831 136.641 43.8927 137.881 43.9545C138.338 43.9751 138.803 43.9257 139.228 44.0781C139.73 44.2635 140.089 44.7207 140.34 45.1904C139.994 46.8999 139.734 48.9761 139.73 50.7227C139.722 51.1058 139.739 51.5054 139.879 51.8638C140.056 52.3004 140.41 52.63 140.748 52.9554C141.329 53.4951 141.905 54.0306 142.478 54.5785C142.832 55.8472 143.141 57.3343 142.972 58.6402C142.853 59.5753 142.56 60.4816 142.42 61.4167C142.272 62.3682 142.301 63.3322 142.326 64.292C142.371 66.1251 142.42 67.9624 142.466 69.7955C142.486 70.4299 142.503 71.0766 142.709 71.6739C142.923 72.2713 143.314 72.7862 143.697 73.297C144.624 74.5287 144.801 74.5781 144.352 75.9581C144.117 76.679 143.615 77.6677 144.669 78.0343C145.036 78.1661 145.436 78.1455 145.811 78.2485C147.1 78.5781 147.911 80.3411 147.137 81.4822C144.365 85.5645 152.068 84.9302 153.827 84.7324C155.199 84.5841 155.891 83.4348 156.908 82.5079C159.812 79.8551 162.288 76.7367 164.212 73.3052C164.521 72.7532 164.735 71.538 164.838 70.9119C165.044 69.6142 165.407 68.2507 166.391 67.3898C167.289 66.6071 168.616 66.3146 169.233 65.2971C169.579 64.7369 169.633 64.0448 169.67 63.3898C169.773 61.5773 169.818 59.7565 169.802 57.944C169.794 55.806 169.588 53.6763 169.538 51.5466C169.501 50.0883 170.984 48.9514 172.175 48.111C175.511 45.7465 177.274 41.7424 180.393 39.0895C180.722 38.0597 180.895 37.0175 180.982 35.9423C180.261 35.7446 179.524 35.5757 178.786 35.448C178.486 35.3944 178.177 35.3532 177.88 35.4109C177.431 35.5057 177.077 35.8311 176.677 36.0659C175.47 36.7827 173.958 36.6467 172.558 36.4861C169.382 36.1236 166.906 31.7117 166.515 28.5356C166.42 27.7694 166.42 26.9744 166.115 26.2659C165.843 25.6315 165.365 25.1248 164.92 24.6057C163.924 23.4564 163.05 22.2041 162.313 20.8777C162.053 20.4122 161.806 19.9179 161.769 19.3906C161.687 18.0806 163.602 18.1383 164.443 18.6903C164.706 18.8592 164.863 19.1558 165.003 19.4359C165.86 21.129 166.692 22.8344 167.516 24.5357C167.919 25.3926 167.891 26.6366 168.039 27.5635C168.068 27.7612 168.105 27.9672 168.199 28.1443C168.496 28.6675 169.209 28.7416 169.674 29.1165C170.375 29.6932 170.321 30.7766 170.749 31.5758C171.227 32.482 172.269 32.9187 173.225 33.2853C174.082 33.6107 174.951 33.9403 175.862 33.9774C177.114 34.035 178.226 33.0999 179.252 32.379C180.137 31.7611 180.961 30.9949 182.008 30.7519C183.923 30.3029 185.167 28.4285 186.527 27.0074C186.992 26.513 187.478 25.9816 187.631 25.3184C187.791 24.5975 187.519 23.8354 187.651 23.1063C186.679 23.0115 185.699 22.9292 184.726 22.8344C184.623 22.3772 184.521 21.9117 184.409 21.4503C183.429 21.1331 181.979 20.5358 180.937 20.9271C180.245 21.1866 179.973 21.9817 179.322 22.2083C178.762 22.406 178.135 22.2618 177.555 22.1218C176.628 20.1403 175.792 18.1053 175.071 16.0415C175.005 15.8479 174.939 15.6378 175.05 15.4648C175.186 15.2588 175.503 15.2712 175.754 15.3248ZM167.569 4.00466C167.495 4.19827 167.334 4.33009 167.178 4.46191C166.815 4.75851 166.449 5.06746 166.012 5.24459C165.575 5.42173 165.06 5.45057 164.657 5.19928C164.331 5.00567 164.134 4.65964 163.854 4.396C162.955 3.55564 161.526 3.74925 160.348 4.09528C159.162 4.44131 157.938 4.78734 156.826 4.25594C156.377 3.25905 156.117 2.17977 156.088 1.08813C156.088 0.948067 156.088 0.80801 156.138 0.684427C156.183 0.564964 156.261 0.470219 156.344 0.375473C156.682 -0.0076313 157.024 -0.398975 157.361 -0.78208C157.555 -1.00865 157.765 -1.21049 158.033 -1.33408C158.408 -1.23109 158.783 -1.12811 159.153 -1.01688C159.207 -1.00865 159.256 -0.988047 159.285 -0.950972C159.314 -0.905659 159.306 -0.831511 159.293 -0.773838C159.256 -0.576107 159.19 -0.374258 159.108 -0.193005C159.05 -0.0447063 158.976 0.11595 159.026 0.264248C159.137 0.564964 159.578 0.499054 159.878 0.610279C160.121 0.692667 160.29 0.919231 160.504 1.07577C160.908 1.37237 161.448 1.39296 161.95 1.40532C162.239 1.41356 162.111 1.16228 162.062 0.873919C161.979 0.367233 161.942 -0.15181 161.967 -0.666733C161.967 -0.777956 161.975 -0.893301 162.033 -0.983929C162.189 -1.24345 162.585 -1.1899 162.836 -1.35055C163.264 -1.63067 163.021 -2.26506 163.507 -2.45455C164.014 -2.66052 165.312 -2.27742 165.86 -2.20327C165.942 -2.19503 166.02 -2.18267 166.082 -2.12088C166.148 -2.05497 166.156 -1.94375 166.156 -1.849C166.156 -1.67187 166.156 -1.49473 166.164 -1.3176C166.164 -1.13223 166.156 -0.926256 166.045 -0.786196C165.905 -0.6173 165.67 -0.580229 165.456 -0.559631C164.879 -0.506079 164.298 -0.456644 163.726 -0.403091C163.697 -0.139452 163.66 0.136547 163.718 0.400188C163.771 0.65971 163.932 0.915113 164.175 1.00986C164.36 1.08401 164.558 1.06753 164.756 1.06341C165.353 1.03457 165.971 1.09225 166.552 1.2323C166.898 1.83786 167.198 2.464 167.466 3.10251C167.582 3.38675 167.693 3.7163 167.569 4.00466Z" fill="#C8D87F" stroke="black" stroke-width="0.780825" stroke-miterlimit="10" stroke-linecap="round" stroke-linejoin="round"/>
<path d="M180.323 61.2267C180.068 60.926 179.615 60.9713 179.054 60.6211C178.886 60.514 178.725 60.3946 178.54 60.3287C178.354 60.2627 178.124 60.2669 177.979 60.3987C177.86 60.5058 177.815 60.6706 177.769 60.823C177.361 62.1082 176.303 63.0639 175.289 63.9537C174.791 63.9908 174.614 63.9372 174.115 63.9743C173.951 63.9867 173.778 64.0032 173.637 64.0897C173.357 64.2586 173.296 64.6334 173.267 64.963C173.131 66.5077 173.09 68.0608 173.143 69.6097C172.9 69.7909 172.558 69.7785 172.266 69.8651C171.574 70.0751 171.236 70.8331 170.98 71.5046C171.355 72.5591 171.656 72.831 172.084 73.865C172.126 73.968 172.171 74.0751 172.249 74.1533C172.344 74.2522 172.48 74.3058 172.612 74.3511C173.539 74.6847 174.49 74.9607 175.45 75.175C175.701 74.7795 175.944 74.3099 176.196 73.9185C176.282 73.7867 176.365 73.6508 176.414 73.5025C176.463 73.3418 176.468 73.1688 176.472 72.9999C176.505 71.6529 176.533 70.3017 176.566 68.9547C177.683 68.1308 178.737 67.2286 179.796 66.3306C179.998 66.1576 180.204 65.9805 180.331 65.7498C180.451 65.5356 180.5 65.2884 180.542 65.0454C180.719 64.0279 180.649 62.825 180.533 61.8075C180.492 61.5233 180.422 61.3461 180.323 61.2267Z" fill="#C8D87F" stroke="black" stroke-width="0.780825" stroke-miterlimit="10" stroke-linecap="round" stroke-linejoin="round"/>
<path d="M193.45 428.965C217.35 400.484 244.44 403.58 262.964 378.262C252.057 362.382 241.167 346.491 230.26 330.611C211.731 355.935 176.532 354.246 158.014 379.581C168.909 395.445 182.554 413.074 193.45 428.965Z" fill="white" stroke="black" stroke-width="1.10393" stroke-miterlimit="10" stroke-linecap="round" stroke-linejoin="round"/>
<path d="M233.315 379.868C232.575 382.037 231.847 384.239 231.135 386.475C230.516 386.282 229.915 386.099 229.291 385.906C229.998 383.66 230.715 381.424 231.444 379.227C232.067 379.432 232.68 379.647 233.315 379.868Z" fill="#272425"/>
<path d="M236.016 372.345C235.238 374.415 234.471 376.529 233.709 378.687C233.08 378.467 232.451 378.262 231.838 378.047C232.572 375.867 233.328 373.725 234.095 371.628C234.752 371.86 235.382 372.113 236.016 372.345Z" fill="#272425"/>
<path d="M236.563 380.994C235.807 383.119 235.062 385.289 234.339 387.496C233.715 387.292 233.108 387.094 232.484 386.9C233.202 384.681 233.936 382.485 234.681 380.332C235.299 380.542 235.929 380.762 236.563 380.994Z" fill="#272425"/>
<path d="M239.341 373.653C238.54 375.668 237.74 377.732 236.973 379.846C236.338 379.614 235.703 379.394 235.085 379.167C235.836 377.026 236.614 374.945 237.42 372.892C238.06 373.134 238.706 373.383 239.341 373.653Z" fill="#272425"/>
<path d="M239.842 382.192C239.063 384.262 238.302 386.387 237.562 388.557C236.938 388.352 236.32 388.126 235.696 387.933C236.425 385.742 237.181 383.6 237.943 381.486C238.561 381.712 239.201 381.944 239.842 382.192Z" fill="#272425"/>
<path d="M242.705 375.034C241.86 376.988 241.06 379.002 240.271 381.061C239.631 380.813 238.99 380.581 238.355 380.344C239.128 378.257 239.934 376.209 240.751 374.222C241.397 374.487 242.048 374.758 242.705 375.034Z" fill="#272425"/>
<path d="M184.346 371.174C182.757 375.949 181.073 380.541 179.279 384.885C178.633 384.625 177.977 384.349 177.325 384.073C179.152 379.807 180.858 375.27 182.481 370.545C183.093 370.76 183.722 370.97 184.346 371.174Z" fill="#272425"/>
<path d="M187.543 372.212C185.98 377.052 184.352 381.766 182.614 386.221C181.973 385.972 181.322 385.713 180.682 385.464C182.459 381.076 184.104 376.434 185.699 371.627C186.295 371.814 186.919 372.008 187.543 372.212Z" fill="#272425"/>
<path d="M190.713 373.183C189.179 378.096 187.595 382.881 185.906 387.457C185.271 387.225 184.631 386.988 183.99 386.74C185.707 382.23 187.324 377.494 188.875 372.62C189.482 372.825 190.1 373.007 190.713 373.183Z" fill="#272425"/>
<path d="M224.332 351.745C222.251 350.983 220.198 350.277 218.15 349.598C218.371 348.936 218.597 348.268 218.818 347.605C220.872 348.301 222.941 349.046 225.033 349.835C224.802 350.47 224.57 351.105 224.332 351.745Z" fill="#272425"/>
<path d="M231.788 354.633C229.663 353.761 227.543 352.938 225.457 352.166C225.689 351.531 225.926 350.891 226.164 350.267C228.261 351.067 230.375 351.928 232.533 352.834C232.285 353.424 232.036 354.037 231.788 354.633Z" fill="#272425"/>
<path d="M221.977 358.507C219.929 357.828 217.92 357.199 215.905 356.586C216.115 355.896 216.336 355.217 216.551 354.538C218.577 355.162 220.597 355.819 222.65 356.525C222.418 357.16 222.198 357.828 221.977 358.507Z" fill="#272425"/>
<path d="M229.278 361.058C227.192 360.285 225.133 359.562 223.085 358.883C223.306 358.221 223.532 357.553 223.758 356.901C225.817 357.608 227.887 358.353 229.985 359.159C229.758 359.777 229.515 360.417 229.278 361.058Z" fill="#272425"/>
<path d="M230.52 357.812C225.916 356.024 221.445 354.473 217.019 353.071C217.234 352.392 217.455 351.713 217.675 351.05C222.102 352.497 226.617 354.108 231.248 355.968C231 356.565 230.757 357.188 230.52 357.812Z" fill="#272425"/>
<path d="M195.048 405.579C192.967 404.817 190.88 404.028 188.761 403.172C189.004 402.565 189.246 401.941 189.5 401.312C191.603 402.129 193.684 402.902 195.754 403.636C195.511 404.287 195.279 404.927 195.048 405.579Z" fill="#272425"/>
<path d="M202.325 408.074C200.283 407.406 198.246 406.71 196.182 405.976C196.408 405.325 196.64 404.674 196.866 404.022C198.925 404.729 200.967 405.408 202.982 406.054C202.767 406.732 202.551 407.406 202.325 408.074Z" fill="#272425"/>
<path d="M203.458 404.585C199.059 403.211 194.588 401.704 190.018 399.949C190.255 399.325 190.492 398.69 190.724 398.05C195.267 399.734 199.716 401.185 204.104 402.538C203.883 403.217 203.673 403.906 203.458 404.585Z" fill="#272425"/>
<path d="M201.175 411.507C196.699 409.989 192.14 408.262 187.459 406.28C187.707 405.684 187.972 405.082 188.221 404.47C192.874 406.379 197.4 408.024 201.86 409.504C201.622 410.177 201.402 410.839 201.175 411.507Z" fill="#272425"/>
<path d="M204.595 367.681C198.628 371.838 196.067 380.211 198.949 386.73C198.971 386.785 198.993 386.84 199.009 386.879C199.031 386.934 199.053 386.989 199.087 387.022C200.632 390.185 204.27 391.217 207.261 389.219C210.286 387.188 211.522 382.827 210.026 379.549C208.531 376.27 209.751 371.92 212.792 369.878C215.778 367.864 219.421 368.912 220.966 372.075C217.892 365.606 210.556 363.514 204.595 367.681Z" fill="#DC627C"/>
<path d="M220.944 372.071C219.399 368.908 215.761 367.876 212.77 369.874C209.745 371.905 208.509 376.265 210.004 379.544C211.5 382.823 210.28 387.172 207.239 389.215C204.253 391.229 200.61 390.18 199.064 387.018C202.117 393.487 209.452 395.573 215.419 391.406C221.386 387.25 223.947 378.876 221.066 372.358C221.044 372.302 221.022 372.247 221.005 372.209C221.005 372.175 220.966 372.126 220.944 372.071Z" fill="#5B88CA"/>
<path d="M234.399 483.218L160.06 376.811C159.149 375.508 157.322 375.298 156.136 376.325C155.114 377.219 154.927 378.748 155.7 379.863L230.038 486.265C230.949 487.568 232.776 487.778 233.963 486.751C234.978 485.862 235.171 484.333 234.399 483.218Z" fill="#F2774C" stroke="black" stroke-width="1.10393" stroke-miterlimit="10" stroke-linecap="round" stroke-linejoin="round"/>
<path d="M50.4067 413.185C50.4067 413.185 33.6052 416.187 21.0724 428.472C4.42855 444.785 -5.7859 477.568 -5.77538 508.532H35.4399L46.5796 462.202L50.4067 413.185Z" fill="#7C63B0" stroke="#371F1D" stroke-width="0.786823" stroke-miterlimit="10" stroke-linecap="round" stroke-linejoin="round"/>
<path d="M101.265 413.185C101.265 413.185 118.066 416.187 130.599 428.472C147.243 444.785 159.918 472.532 159.902 503.49L116.231 508.532L105.092 462.202L101.265 413.185Z" fill="#7C63B0" stroke="#371F1D" stroke-width="0.786823" stroke-miterlimit="10" stroke-linecap="round" stroke-linejoin="round"/>
<path d="M63.1908 409.699C56.8193 411.113 50.863 412.648 45.8163 414.441C42.3413 415.387 39.5446 417.974 38.3302 421.359C27.1274 452.586 29.1409 481.773 27.8477 511.47H75.8498L128.015 511.77C128.015 473.924 126.239 434.786 110.967 416.039C103.234 413.389 95.7109 411.202 88.4982 409.699H63.1908Z" fill="#7C63B0"/>
<mask id="mask0_1072_17822" style="mask-type:luminance" maskUnits="userSpaceOnUse" x="-6" y="409" width="166" height="103">
<path d="M159.901 503.494C159.911 472.53 147.236 444.789 130.598 428.476C124.263 422.268 116.845 418.43 111.047 416.154C111.015 416.117 110.989 416.08 110.957 416.038C110.227 415.786 109.496 415.544 108.765 415.302C107.677 414.918 106.678 414.598 105.79 414.33C99.8703 412.442 94.0875 410.86 88.494 409.693H63.1866C57.4617 410.965 52.0784 412.332 47.3892 413.893C41.9902 415.355 30.3563 419.366 21.0724 428.471C4.42855 444.784 -5.7859 477.567 -5.77538 508.531H27.9644C27.9276 509.508 27.8908 510.486 27.8487 511.464H75.8508L127.854 511.448C127.854 510.97 127.854 507.579 127.854 507.101L159.901 503.494Z" fill="white"/>
</mask>
<g mask="url(#mask0_1072_17822)">
<path d="M159.787 433.423H-1.12598V451.897H159.787V433.423Z" fill="#A290D6"/>
</g>
<mask id="mask1_1072_17822" style="mask-type:luminance" maskUnits="userSpaceOnUse" x="-6" y="409" width="166" height="103">
<path d="M159.901 503.494C159.911 472.53 147.236 444.789 130.598 428.476C124.263 422.268 116.845 418.43 111.047 416.154C111.015 416.117 110.989 416.08 110.957 416.038C110.227 415.786 109.496 415.544 108.765 415.302C107.677 414.918 106.678 414.598 105.79 414.33C99.8703 412.442 94.0875 410.86 88.494 409.693H63.1866C57.4617 410.965 52.0784 412.332 47.3892 413.893C41.9902 415.355 30.3563 419.366 21.0724 428.471C4.42855 444.784 -5.7859 477.567 -5.77538 508.531H27.9644C27.9276 509.508 27.8908 510.486 27.8487 511.464H75.8508L127.854 511.448C127.854 510.97 127.854 507.579 127.854 507.101L159.901 503.494Z" fill="white"/>
</mask>
<g mask="url(#mask1_1072_17822)">
<path d="M178.784 465.065H-20.1377V483.538H178.784V465.065Z" fill="#A290D6"/>
</g>
<path d="M159.903 503.495C159.914 472.531 147.239 444.79 130.601 428.477C124.266 422.268 116.848 418.431 111.05 416.154C111.018 416.118 110.992 416.081 110.96 416.039C110.23 415.786 109.499 415.545 108.768 415.303C107.68 414.919 106.681 414.598 105.793 414.33C99.8732 412.443 94.0904 410.861 88.4969 409.693H63.1895C57.4646 410.966 52.0814 412.333 47.3921 413.894C41.9931 415.355 30.3592 419.366 21.0753 428.472C4.43148 444.784 -5.78297 477.567 -5.77245 508.531H27.9673C27.9305 509.509 27.8937 510.487 27.8516 511.465H75.8538L127.856 511.449C127.856 510.971 127.856 507.58 127.856 507.101L159.903 503.495Z" stroke="#371F1D" stroke-width="0.786823" stroke-miterlimit="10" stroke-linecap="round"/>
<path d="M111.771 416.438C103.402 413.069 95.9371 411.166 88.4984 409.699H63.191C56.2516 411.103 49.2545 412.964 42.0576 415.603" stroke="#371F1D" stroke-width="0.786823" stroke-miterlimit="10" stroke-linecap="round" stroke-linejoin="round"/>
<path d="M26.0977 445.9L28.027 511.466H127.9C127.9 488.944 127.774 445.679 127.774 445.679" stroke="#371F1D" stroke-width="0.786823" stroke-miterlimit="10" stroke-linecap="round" stroke-linejoin="round"/>
<path d="M88.7995 409.951L87.3539 393.218H64.3122L62.9033 409.951C65.7106 415.334 83.5845 417.022 88.7995 409.951Z" fill="#EEB8D3" stroke="#371F1D" stroke-width="0.786823" stroke-miterlimit="10" stroke-linecap="round" stroke-linejoin="round"/>
<path d="M77.4971 448.917H74.1431C73.2757 448.917 72.5713 448.212 72.5713 447.345V413.984H79.0637V447.345C79.069 448.212 78.3646 448.917 77.4971 448.917Z" fill="white" stroke="#371F1D" stroke-width="0.786823" stroke-miterlimit="10" stroke-linecap="round" stroke-linejoin="round"/>
<path d="M75.826 421.99C76.6506 421.99 77.319 421.321 77.319 420.497C77.319 419.672 76.6506 419.004 75.826 419.004C75.0014 419.004 74.333 419.672 74.333 420.497C74.333 421.321 75.0014 421.99 75.826 421.99Z" fill="#640010"/>
<path d="M75.826 432.945C76.6506 432.945 77.319 432.277 77.319 431.452C77.319 430.628 76.6506 429.959 75.826 429.959C75.0014 429.959 74.333 430.628 74.333 431.452C74.333 432.277 75.0014 432.945 75.826 432.945Z" fill="#640010"/>
<path d="M75.826 443.875C76.6506 443.875 77.319 443.207 77.319 442.382C77.319 441.557 76.6506 440.889 75.826 440.889C75.0014 440.889 74.333 441.557 74.333 442.382C74.333 443.207 75.0014 443.875 75.826 443.875Z" fill="#640010"/>
<path d="M103.719 384.044C105.553 385.133 107.767 385.769 110.148 385.769C117.098 385.769 121.067 379.287 121.598 373.741C121.929 370.287 120.794 363.358 112.435 363.358C108.376 363.358 105.674 366.376 105.674 366.376" fill="#EEB8D3"/>
<path d="M103.719 384.044C105.553 385.133 107.767 385.769 110.148 385.769C117.098 385.769 121.067 379.287 121.598 373.741C121.929 370.287 120.794 363.358 112.435 363.358C108.376 363.358 105.674 366.376 105.674 366.376" stroke="#371F1D" stroke-width="0.786823" stroke-miterlimit="10" stroke-linecap="round" stroke-linejoin="round"/>
<path d="M114.333 371.575L107.535 374.314" stroke="#371F1D" stroke-width="0.786823" stroke-miterlimit="10" stroke-linecap="round" stroke-linejoin="round"/>
<path d="M47.3723 384.044C45.5376 385.133 43.3244 385.769 40.943 385.769C33.9931 385.769 30.0241 379.287 29.4931 373.741C29.1619 370.287 30.2974 363.358 38.6561 363.358C42.7146 363.358 45.4167 366.376 45.4167 366.376" fill="#EEB8D3"/>
<path d="M47.3723 384.044C45.5376 385.133 43.3244 385.769 40.943 385.769C33.9931 385.769 30.0241 379.287 29.4931 373.741C29.1619 370.287 30.2974 363.358 38.6561 363.358C42.7146 363.358 45.4167 366.376 45.4167 366.376" stroke="#371F1D" stroke-width="0.786823" stroke-miterlimit="10" stroke-linecap="round" stroke-linejoin="round"/>
<path d="M36.7539 371.575L43.5513 374.314" stroke="#371F1D" stroke-width="0.786823" stroke-miterlimit="10" stroke-linecap="round" stroke-linejoin="round"/>
<path d="M107.03 366.67C107.03 392.266 92.7576 403.085 75.157 403.085C57.5564 403.085 43.5569 392.419 43.2835 366.67C43.0732 346.556 57.5564 330.254 75.157 330.254C92.7576 330.254 107.03 346.556 107.03 366.67Z" fill="#EEB8D3" stroke="#371F1D" stroke-width="0.786823" stroke-miterlimit="10" stroke-linecap="round" stroke-linejoin="round"/>
<path d="M65.4731 370.077C66.8551 370.077 67.9754 368.956 67.9754 367.574C67.9754 366.192 66.8551 365.072 65.4731 365.072C64.0911 365.072 62.9707 366.192 62.9707 367.574C62.9707 368.956 64.0911 370.077 65.4731 370.077Z" fill="#371F1D"/>
<path d="M85.4281 370.077C86.8101 370.077 87.9305 368.956 87.9305 367.574C87.9305 366.192 86.8101 365.072 85.4281 365.072C84.0461 365.072 82.9258 366.192 82.9258 367.574C82.9258 368.956 84.0461 370.077 85.4281 370.077Z" fill="#371F1D"/>
<path d="M78.5684 374.162C78.5684 374.162 77.7904 371.176 75.8243 371.176C73.9475 371.176 73.0801 374.162 73.0801 374.162" fill="#EEB8D3"/>
<path d="M78.5684 374.162C78.5684 374.162 77.7904 371.176 75.8243 371.176C73.9475 371.176 73.0801 374.162 73.0801 374.162" stroke="#371F1D" stroke-width="0.786823" stroke-miterlimit="10" stroke-linecap="round" stroke-linejoin="round"/>
<path d="M84.2824 376.369C84.2824 381.222 80.4921 383.461 75.8238 383.461C71.1556 383.461 67.3652 380.286 67.3652 376.369C67.3652 376.369 67.3652 376.364 67.3705 376.364" fill="#EEB8D3"/>
<path d="M84.2824 376.369C84.2824 381.222 80.4921 383.461 75.8238 383.461C71.1556 383.461 67.3652 380.286 67.3652 376.369C67.3652 376.369 67.3652 376.364 67.3705 376.364" stroke="#371F1D" stroke-width="0.786823" stroke-miterlimit="10" stroke-linecap="round" stroke-linejoin="round"/>
<path d="M91.0068 343.019C91.0068 343.019 92.3737 348.78 96.4689 354.39C100.564 359.999 105.711 361.029 107.004 365.214L111.168 363.784C111.168 363.784 112.697 349.837 109.364 341.799C106.026 333.761 98.2195 329.76 93.4776 330.244L91.0068 343.019Z" fill="#371F1D"/>
<path d="M66.4395 340.238C63.6638 342.309 64.5522 344.896 62.8963 350.542C61.2876 356.035 58.1597 359.473 55.4208 361.802C52.6818 364.131 49.0387 365.798 45.159 366.024C41.274 366.25 37.1946 364.92 34.8867 362.291C36.2904 362.465 37.6887 361.776 38.5509 360.83C39.413 359.884 39.8336 358.711 40.2016 357.555C42.0994 351.619 43.2349 340.532 45.9791 334.834C46.9884 332.741 48.2554 330.696 50.1322 329.082C52.0668 327.416 54.5796 326.286 57.2082 325.555C63.096 323.92 69.9249 324.288 75.5132 326.554C75.4449 328.578 76.2439 337.956 75.5132 339.213C75.5132 339.213 73.2579 338.303 71.807 338.466C69.804 338.682 67.9904 339.076 66.4395 340.238Z" fill="#371F1D"/>
<path d="M84.5351 340.238C87.3109 342.309 86.4224 344.896 88.0784 350.542C89.687 356.035 92.815 359.473 95.5539 361.802C98.2928 364.131 101.936 365.798 105.816 366.024C109.701 366.25 113.78 364.92 116.088 362.291C114.684 362.465 113.286 361.776 112.424 360.83C111.562 359.884 111.141 358.711 110.773 357.555C108.875 351.619 107.74 340.532 104.996 334.834C103.986 332.741 102.719 330.696 100.843 329.082C98.9079 327.416 96.395 326.286 93.7665 325.555C87.8786 323.92 81.0497 324.288 75.4615 326.554C75.5298 328.578 74.7307 337.956 75.4615 339.213C75.4615 339.213 77.7167 338.303 79.1677 338.466C81.1706 338.682 82.9843 339.076 84.5351 340.238Z" fill="#371F1D"/>
<path d="M75.7243 320.971C75.7243 320.971 67.6547 314.936 53.9653 323.988C40.276 333.041 35.245 341.657 36.0178 351.341C36.7905 361.019 37.7158 363.358 37.7158 363.358L43.283 366.675C43.283 366.675 40.9016 342.54 57.7031 335.559C74.4994 328.578 75.7295 330.255 75.7295 330.255L75.7243 320.971Z" fill="#371F1D"/>
<path d="M75.1205 320.971C75.1205 320.971 83.1901 314.936 96.8794 323.988C110.569 333.041 115.6 341.657 114.827 351.341C114.054 361.019 113.129 363.358 113.129 363.358L107.031 366.675C107.031 366.675 109.948 342.54 93.1417 335.559C76.3454 328.578 75.1152 330.255 75.1152 330.255V320.971H75.1205Z" fill="#371F1D"/>
<path d="M62.7719 404.6L57.8145 410.819L65.2532 425.307L75.7095 413.857L62.7719 404.6Z" fill="white" stroke="#371F1D" stroke-width="0.786823" stroke-miterlimit="10" stroke-linecap="round" stroke-linejoin="round"/>
<path d="M88.6719 404.6L93.6293 410.819L86.1958 425.307L75.708 413.857L88.6719 404.6Z" fill="white" stroke="#371F1D" stroke-width="0.786823" stroke-miterlimit="10" stroke-linecap="round" stroke-linejoin="round"/>
<path d="M45.5438 353.28C46.1067 353.28 46.5631 352.824 46.5631 352.261C46.5631 351.698 46.1067 351.241 45.5438 351.241C44.9808 351.241 44.5244 351.698 44.5244 352.261C44.5244 352.824 44.9808 353.28 45.5438 353.28Z" fill="white"/>
<path d="M60.2069 343.318C60.7698 343.318 61.2262 342.861 61.2262 342.298C61.2262 341.735 60.7698 341.279 60.2069 341.279C59.6439 341.279 59.1875 341.735 59.1875 342.298C59.1875 342.861 59.6439 343.318 60.2069 343.318Z" fill="white"/>
<path d="M104.811 353.28C105.374 353.28 105.831 352.824 105.831 352.261C105.831 351.698 105.374 351.241 104.811 351.241C104.248 351.241 103.792 351.698 103.792 352.261C103.792 352.824 104.248 353.28 104.811 353.28Z" fill="white"/>
<path d="M46.6912 379.433C47.2542 379.433 47.7106 378.977 47.7106 378.414C47.7106 377.851 47.2542 377.395 46.6912 377.395C46.1282 377.395 45.6719 377.851 45.6719 378.414C45.6719 378.977 46.1282 379.433 46.6912 379.433Z" fill="white"/>
<path d="M103.481 379.433C104.044 379.433 104.501 378.977 104.501 378.414C104.501 377.851 104.044 377.395 103.481 377.395C102.918 377.395 102.462 377.851 102.462 378.414C102.462 378.977 102.918 379.433 103.481 379.433Z" fill="white"/>
<path d="M90.1561 343.317C90.719 343.317 91.1754 342.861 91.1754 342.298C91.1754 341.735 90.719 341.279 90.1561 341.279C89.5931 341.279 89.1367 341.735 89.1367 342.298C89.1367 342.861 89.5931 343.317 90.1561 343.317Z" fill="white"/>
<path d="M75.588 372.446C76.2902 372.446 76.8595 371.877 76.8595 371.175C76.8595 370.473 76.2902 369.903 75.588 369.903C74.8857 369.903 74.3164 370.473 74.3164 371.175C74.3164 371.877 74.8857 372.446 75.588 372.446Z" fill="white"/>
<path d="M66.5096 385.169C67.0726 385.169 67.5289 384.712 67.5289 384.149C67.5289 383.586 67.0726 383.13 66.5096 383.13C65.9466 383.13 65.4902 383.586 65.4902 384.149C65.4902 384.712 65.9466 385.169 66.5096 385.169Z" fill="white"/>
<path d="M84.6512 385.168C85.2142 385.168 85.6705 384.712 85.6705 384.149C85.6705 383.586 85.2142 383.13 84.6512 383.13C84.0882 383.13 83.6318 383.586 83.6318 384.149C83.6318 384.712 84.0882 385.168 84.6512 385.168Z" fill="white"/>
<path d="M65.241 363.794C65.804 363.794 66.2604 363.337 66.2604 362.775C66.2604 362.212 65.804 361.755 65.241 361.755C64.6781 361.755 64.2217 362.212 64.2217 362.775C64.2217 363.337 64.6781 363.794 65.241 363.794Z" fill="white"/>
<path d="M55.1209 369.866C55.6839 369.866 56.1403 369.41 56.1403 368.847C56.1403 368.284 55.6839 367.827 55.1209 367.827C54.5579 367.827 54.1016 368.284 54.1016 368.847C54.1016 369.41 54.5579 369.866 55.1209 369.866Z" fill="white"/>
<path d="M95.7586 369.866C96.3216 369.866 96.778 369.41 96.778 368.847C96.778 368.284 96.3216 367.827 95.7586 367.827C95.1956 367.827 94.7393 368.284 94.7393 368.847C94.7393 369.41 95.1956 369.866 95.7586 369.866Z" fill="white"/>
<path d="M85.1922 363.794C85.7552 363.794 86.2116 363.338 86.2116 362.775C86.2116 362.212 85.7552 361.755 85.1922 361.755C84.6292 361.755 84.1729 362.212 84.1729 362.775C84.1729 363.338 84.6292 363.794 85.1922 363.794Z" fill="white"/>
<path d="M63.6443 399.594C64.2073 399.594 64.6637 399.138 64.6637 398.575C64.6637 398.012 64.2073 397.555 63.6443 397.555C63.0814 397.555 62.625 398.012 62.625 398.575C62.625 399.138 63.0814 399.594 63.6443 399.594Z" fill="white"/>
<path d="M86.786 399.594C87.3489 399.594 87.8053 399.138 87.8053 398.575C87.8053 398.012 87.3489 397.555 86.786 397.555C86.223 397.555 85.7666 398.012 85.7666 398.575C85.7666 399.138 86.223 399.594 86.786 399.594Z" fill="white"/>
<path d="M60.2059 342.299L45.5439 352.261L46.69 378.415L63.6913 398.575H86.9485L103.429 378.415L104.812 352.261L90.1553 342.299H60.2059Z" stroke="white" stroke-width="0.393385" stroke-miterlimit="10"/>
<path d="M66.5098 376.369L75.5887 371.175L84.6518 376.369V384.15H66.5098V376.369Z" stroke="white" stroke-width="0.393385" stroke-miterlimit="10"/>
<path d="M55.1221 368.836L65.2419 362.775L75.5825 371.265L66.5088 376.369L55.1221 368.836Z" stroke="white" stroke-width="0.393385" stroke-miterlimit="10"/>
<path d="M96.0694 368.836L85.9549 362.775L75.6143 371.265L84.6827 376.369L96.0694 368.836Z" stroke="white" stroke-width="0.393385" stroke-miterlimit="10"/>
<path d="M63.6924 398.575L66.5102 383.461" stroke="white" stroke-width="0.393385" stroke-miterlimit="10"/>
<path d="M86.7857 398.575L84.6514 383.461" stroke="white" stroke-width="0.393385" stroke-miterlimit="10"/>
<path d="M46.69 378.414L55.1223 368.836L45.5439 352.261" stroke="white" stroke-width="0.393385" stroke-miterlimit="10"/>
<path d="M65.2433 362.775L60.207 342.299" stroke="white" stroke-width="0.393385" stroke-miterlimit="10"/>
<path d="M85.1934 362.775L90.156 342.299" stroke="white" stroke-width="0.393385" stroke-miterlimit="10"/>
<path d="M104.811 352.261L95.7588 368.836L103.429 378.414" stroke="white" stroke-width="0.393385" stroke-miterlimit="10"/>
</g>
<defs>
<clipPath id="clip0_1072_17822">
<rect x="0.224609" width="283" height="483" rx="5.87755" fill="white"/>
</clipPath>
</defs>
</svg>
