<svg width="283" height="483" viewBox="0 0 283 483" fill="none" xmlns="http://www.w3.org/2000/svg">
<rect width="283" height="483" rx="5.88052" fill="#F4B8FF"/>
<rect x="9.75" y="9.74982" width="263.5" height="463.5" rx="5.13052" stroke="black" stroke-width="1.5"/>
<rect x="28" y="31.1948" width="38.8322" height="38.8322" rx="19.4161" fill="black"/>
<rect x="30.2295" y="28.9998" width="36.8322" height="36.8322" rx="18.4161" fill="white"/>
<rect x="30.2295" y="28.9998" width="36.8322" height="36.8322" rx="18.4161" stroke="black" stroke-width="2"/>
<path d="M55.2877 44.4471C55.2877 46.9352 53.7581 48.73 50.495 50.4839C48.741 51.4221 47.6805 52.1971 47.191 52.9313H55.2877C55.6956 52.9313 55.92 53.1556 55.92 53.5635V55.1543C55.92 55.5622 55.6956 55.7865 55.2877 55.7865H44.6621C43.8871 55.7865 43.4996 55.3786 43.4996 54.6036C43.4996 51.9931 44.9272 50.3004 48.6595 48.2609C51.3108 46.8129 52.3305 45.9155 52.3305 44.5899C52.3305 43.2438 51.2292 42.4076 49.5364 42.4076C47.8437 42.4076 46.7424 43.2438 46.7424 44.5899C46.7424 45.0181 46.4976 45.2629 46.0693 45.2629H44.4582C44.0299 45.2629 43.7851 45.0181 43.7851 44.5899C43.7851 41.3471 45.8654 39.5524 49.5364 39.5524C53.1667 39.5524 55.2877 41.3267 55.2877 44.4471Z" fill="black"/>
<path d="M40.762 86.7219H43.048V103.39H40.762V86.7219ZM38.764 93.0759H41.518V95.0019H38.764V93.0759ZM37.108 86.9739H39.358V102.634H37.108V86.9739ZM29.188 88.4319H35.776V99.2319H29.188V88.4319ZM33.544 90.3039H31.42V97.3599H33.544V90.3039ZM48.9866 88.5759H50.9486V89.6199C50.9486 92.8059 49.4546 95.6679 46.2326 96.7299L45.0446 94.8399C47.8166 93.9219 48.9866 91.7439 48.9866 89.6199V88.5759ZM49.4726 88.5759H51.4166V89.6199C51.4166 91.5639 52.5326 93.4719 55.2146 94.2819L54.0806 96.1539C50.9126 95.1999 49.4726 92.5899 49.4726 89.6199V88.5759ZM45.6746 87.8379H54.6746V89.7459H45.6746V87.8379ZM56.0066 86.7219H58.4006V96.6039H56.0066V86.7219ZM57.7346 90.5559H60.6146V92.5179H57.7346V90.5559ZM52.9646 96.9099C56.4206 96.9099 58.5986 98.1159 58.5986 100.15C58.5986 102.184 56.4206 103.39 52.9646 103.39C49.4906 103.39 47.3126 102.184 47.3126 100.15C47.3126 98.1159 49.4906 96.9099 52.9646 96.9099ZM52.9646 98.7819C50.8406 98.7819 49.6886 99.2139 49.6886 100.15C49.6886 101.086 50.8406 101.554 52.9646 101.554C55.0886 101.554 56.2226 101.086 56.2226 100.15C56.2226 99.2139 55.0886 98.7819 52.9646 98.7819ZM69.3792 86.9559C73.1772 86.9559 75.4092 87.9639 75.4092 89.7999C75.4092 91.6359 73.1772 92.6439 69.3792 92.6439C65.5632 92.6439 63.3492 91.6359 63.3492 89.7999C63.3492 87.9639 65.5632 86.9559 69.3792 86.9559ZM69.3792 88.7019C66.9672 88.7019 65.8332 89.0619 65.8332 89.7999C65.8332 90.5739 66.9672 90.8979 69.3792 90.8979C71.7912 90.8979 72.9252 90.5739 72.9252 89.7999C72.9252 89.0619 71.7912 88.7019 69.3792 88.7019ZM61.8372 93.4179H76.9032V95.3079H61.8372V93.4179ZM63.5652 96.2439H75.0852V100.528H65.9412V102.004H63.5832V98.8719H72.7272V98.0259H63.5652V96.2439ZM63.5832 101.482H75.5172V103.282H63.5832V101.482ZM84.2019 87.6939H94.6599V89.5839H84.2019V87.6939ZM82.4919 94.7859H97.5579V96.7119H82.4919V94.7859ZM88.7379 96.1359H91.1499V103.408H88.7379V96.1359ZM93.4359 87.6939H95.7939V89.1699C95.7939 90.9699 95.7939 92.9859 95.1459 95.9379L92.7879 95.6679C93.4359 92.8779 93.4359 90.8979 93.4359 89.1699V87.6939ZM107.061 89.3499H110.967V91.2579H107.061V89.3499ZM106.935 92.8059H110.841V94.7139H106.935V92.8059ZM110.589 86.7219H112.983V96.3159H110.589V86.7219ZM105.153 87.8559H107.709C107.709 92.3919 105.153 95.3079 100.095 96.6939L99.1585 94.8039C103.389 93.7059 105.153 91.6179 105.153 89.0079V87.8559ZM100.077 87.8559H106.827V89.7639H100.077V87.8559ZM107.457 96.5319C110.841 96.5319 113.091 97.8279 113.091 99.9159C113.091 102.004 110.841 103.318 107.457 103.318C104.073 103.318 101.823 102.004 101.823 99.9159C101.823 97.8279 104.073 96.5319 107.457 96.5319ZM107.457 98.3679C105.423 98.3679 104.199 98.8899 104.199 99.9159C104.199 100.942 105.423 101.446 107.457 101.446C109.509 101.446 110.733 100.942 110.733 99.9159C110.733 98.8899 109.509 98.3679 107.457 98.3679ZM126.005 95.0919H128.399V98.0259H126.005V95.0919ZM119.669 94.2999H134.735V96.1899H119.669V94.2999ZM127.175 97.3779C130.775 97.3779 132.953 98.4579 132.953 100.384C132.953 102.31 130.775 103.39 127.175 103.39C123.557 103.39 121.379 102.31 121.379 100.384C121.379 98.4579 123.557 97.3779 127.175 97.3779ZM127.175 99.1779C124.943 99.1779 123.809 99.5559 123.809 100.384C123.809 101.194 124.943 101.59 127.175 101.59C129.407 101.59 130.541 101.194 130.541 100.384C130.541 99.5559 129.407 99.1779 127.175 99.1779ZM125.555 88.2879H127.679V88.7019C127.679 91.2039 125.429 93.2559 121.127 93.6519L120.299 91.7799C123.953 91.4739 125.555 89.9979 125.555 88.7019V88.2879ZM126.725 88.2879H128.849V88.7019C128.849 90.0159 130.433 91.4739 134.105 91.7799L133.277 93.6519C128.993 93.2559 126.725 91.2219 126.725 88.7019V88.2879ZM121.037 87.4059H133.385V89.2959H121.037V87.4059ZM147.676 86.7399H150.088V98.7099H147.676V86.7399ZM138.982 101.194H150.502V103.102H138.982V101.194ZM138.982 97.5039H141.376V101.968H138.982V97.5039ZM141.016 87.7839C143.572 87.7839 145.534 89.5479 145.534 92.0139C145.534 94.4619 143.572 96.2439 141.016 96.2439C138.46 96.2439 136.48 94.4619 136.48 92.0139C136.48 89.5479 138.46 87.7839 141.016 87.7839ZM141.016 89.8539C139.774 89.8539 138.82 90.6459 138.82 92.0139C138.82 93.3639 139.774 94.1559 141.016 94.1559C142.24 94.1559 143.194 93.3639 143.194 92.0139C143.194 90.6459 142.24 89.8539 141.016 89.8539ZM39.466 110.722H41.878V120.334H39.466V110.722ZM41.176 114.664H44.056V116.608H41.176V114.664ZM36.406 120.64C39.826 120.64 42.04 121.918 42.04 124.024C42.04 126.148 39.826 127.408 36.406 127.408C32.968 127.408 30.754 126.148 30.754 124.024C30.754 121.918 32.968 120.64 36.406 120.64ZM36.406 122.548C34.282 122.548 33.112 123.016 33.112 124.024C33.112 125.014 34.282 125.5 36.406 125.5C38.512 125.5 39.682 125.014 39.682 124.024C39.682 123.016 38.512 122.548 36.406 122.548ZM29.296 117.562H30.682C34.354 117.562 36.172 117.472 38.17 117.04L38.404 118.948C36.37 119.398 34.444 119.47 30.682 119.47H29.296V117.562ZM29.296 111.838H36.748V113.746H31.672V118.858H29.296V111.838ZM56.7266 110.74H59.1386V122.89H56.7266V110.74ZM48.0326 125.194H59.5526V127.102H48.0326V125.194ZM48.0326 121.72H50.4266V126.184H48.0326V121.72ZM49.1846 111.64H51.1646V113.26C51.1646 116.518 49.6706 119.524 46.4306 120.658L45.2246 118.75C48.0146 117.796 49.1846 115.474 49.1846 113.26V111.64ZM49.6706 111.64H51.6326V113.26C51.6326 115.438 52.7666 117.58 55.5026 118.462L54.2786 120.37C51.1286 119.308 49.6706 116.482 49.6706 113.26V111.64ZM68.4972 116.86H71.2332V118.786H68.4972V116.86ZM73.8792 110.722H76.1652V127.39H73.8792V110.722ZM70.4772 110.974H72.7272V126.634H70.4772V110.974ZM65.5812 111.892C67.7952 111.892 69.2172 114.178 69.2172 117.94C69.2172 121.72 67.7952 124.006 65.5812 124.006C63.3852 124.006 61.9812 121.72 61.9812 117.94C61.9812 114.178 63.3852 111.892 65.5812 111.892ZM65.5812 114.142C64.6812 114.142 64.1592 115.402 64.1592 117.94C64.1592 120.496 64.6812 121.738 65.5812 121.738C66.5172 121.738 67.0392 120.496 67.0392 117.94C67.0392 115.402 66.5172 114.142 65.5812 114.142ZM90.4738 110.722H92.7598V127.39H90.4738V110.722ZM83.8678 117.112H87.4318V119.002H83.8678V117.112ZM86.9638 111.082H89.1958V126.652H86.9638V111.082ZM83.3278 112.684H85.6318C85.6318 117.436 84.2098 121.216 79.5298 123.934L78.1798 122.26C81.9778 119.974 83.3278 117.202 83.3278 113.17V112.684ZM79.1158 112.684H84.0838V114.592H79.1158V112.684ZM109.689 110.704H112.101V127.426H109.689V110.704ZM111.561 116.878H114.513V118.84H111.561V116.878ZM99.6805 121.432H101.085C103.893 121.432 106.107 121.342 108.555 120.91L108.789 122.89C106.269 123.34 103.983 123.412 101.085 123.412H99.6805V121.432ZM99.6805 112.252H107.457V114.178H102.057V122.386H99.6805V112.252ZM126.247 110.704H128.659V127.372H126.247V110.704ZM128.029 117.076H130.963V119.038H128.029V117.076ZM121.873 112.432H124.213C124.213 117.436 122.305 121.72 116.761 124.51L115.429 122.692C119.803 120.424 121.873 117.364 121.873 112.846V112.432ZM116.347 112.432H123.097V114.358H116.347V112.432ZM138.486 120.1H140.88V123.898H138.486V120.1ZM139.692 111.568C143.256 111.568 145.92 113.386 145.92 116.158C145.92 118.966 143.256 120.766 139.692 120.766C136.128 120.766 133.464 118.966 133.464 116.158C133.464 113.386 136.128 111.568 139.692 111.568ZM139.692 113.458C137.406 113.458 135.822 114.466 135.822 116.158C135.822 117.886 137.406 118.876 139.692 118.876C141.978 118.876 143.562 117.886 143.562 116.158C143.562 114.466 141.978 113.458 139.692 113.458ZM132.168 123.52H147.252V125.464H132.168V123.52ZM150.58 115.222H162.136V117.112H150.58V115.222ZM148.708 118.84H163.81V120.748H148.708V118.84ZM150.58 111.316H152.956V116.158H150.58V111.316ZM150.418 125.122H162.226V127.03H150.418V125.122ZM150.418 122.08H152.812V125.626H150.418V122.08ZM173.395 112.432H175.375V113.476C175.375 116.626 173.845 119.47 170.641 120.496L169.417 118.642C172.189 117.742 173.395 115.564 173.395 113.476V112.432ZM173.881 112.432H175.843V113.476C175.843 115.456 177.031 117.49 179.749 118.354L178.525 120.208C175.393 119.218 173.881 116.482 173.881 113.476V112.432ZM180.793 110.722H183.205V120.766H180.793V110.722ZM171.829 121.504H183.205V127.39H180.793V123.412H171.829V121.504ZM170.047 111.694H179.119V113.584H170.047V111.694ZM190.242 119.272H192.636V122.926H190.242V119.272ZM197.55 110.722H199.944V123.34H197.55V110.722ZM187.938 125.194H200.304V127.102H187.938V125.194ZM187.938 122.152H190.332V125.698H187.938V122.152ZM186.138 119.992L185.85 118.084C188.892 118.084 192.96 118.048 196.452 117.598L196.596 119.308C193.05 119.902 189.144 119.992 186.138 119.992ZM194.4 120.406H198.072V122.044H194.4V120.406ZM191.214 111.298C193.644 111.298 195.354 112.504 195.354 114.268C195.354 116.05 193.644 117.238 191.214 117.238C188.766 117.238 187.056 116.05 187.056 114.268C187.056 112.504 188.766 111.298 191.214 111.298ZM191.214 113.044C190.098 113.044 189.324 113.458 189.324 114.268C189.324 115.078 190.098 115.492 191.214 115.492C192.312 115.492 193.086 115.078 193.086 114.268C193.086 113.458 192.312 113.044 191.214 113.044ZM203.236 129.64L202.696 128.2C204.1 127.678 204.874 126.724 204.856 125.662L204.766 123.79L205.702 125.338C205.432 125.608 205.072 125.734 204.676 125.734C203.812 125.734 203.02 125.158 203.02 124.168C203.02 123.214 203.794 122.602 204.748 122.602C205.954 122.602 206.638 123.574 206.638 125.194C206.638 127.318 205.432 128.92 203.236 129.64ZM30.268 136.252H40.834V138.142H30.268V136.252ZM28.738 147.268H43.804V149.212H28.738V147.268ZM39.574 136.252H41.95V138.232C41.95 140.572 41.95 142.84 41.356 146.26L38.962 146.062C39.574 142.858 39.574 140.482 39.574 138.232V136.252ZM55.9346 134.704H58.3466V151.372H55.9346V134.704ZM57.7166 141.076H60.6506V143.038H57.7166V141.076ZM51.5606 136.432H53.9006C53.9006 141.436 51.9926 145.72 46.4486 148.51L45.1166 146.692C49.4906 144.424 51.5606 141.364 51.5606 136.846V136.432ZM46.0346 136.432H52.7846V138.358H46.0346V136.432ZM76.6613 134.722H79.0733V144.334H76.6613V134.722ZM78.3713 138.664H81.2513V140.608H78.3713V138.664ZM73.6013 144.64C77.0213 144.64 79.2353 145.918 79.2353 148.024C79.2353 150.148 77.0213 151.408 73.6013 151.408C70.1633 151.408 67.9493 150.148 67.9493 148.024C67.9493 145.918 70.1633 144.64 73.6013 144.64ZM73.6013 146.548C71.4773 146.548 70.3073 147.016 70.3073 148.024C70.3073 149.014 71.4773 149.5 73.6013 149.5C75.7073 149.5 76.8773 149.014 76.8773 148.024C76.8773 147.016 75.7073 146.548 73.6013 146.548ZM66.4913 141.562H67.8773C71.5493 141.562 73.3673 141.472 75.3653 141.04L75.5993 142.948C73.5653 143.398 71.6393 143.47 67.8773 143.47H66.4913V141.562ZM66.4913 135.838H73.9433V137.746H68.8673V142.858H66.4913V135.838ZM93.9219 134.74H96.3339V146.89H93.9219V134.74ZM85.2279 149.194H96.7479V151.102H85.2279V149.194ZM85.2279 145.72H87.6219V150.184H85.2279V145.72ZM86.3799 135.64H88.3599V137.26C88.3599 140.518 86.8659 143.524 83.6259 144.658L82.4199 142.75C85.2099 141.796 86.3799 139.474 86.3799 137.26V135.64ZM86.8659 135.64H88.8279V137.26C88.8279 139.438 89.9619 141.58 92.6979 142.462L91.4739 144.37C88.3239 143.308 86.8659 140.482 86.8659 137.26V135.64ZM105.693 140.86H108.429V142.786H105.693V140.86ZM111.075 134.722H113.361V151.39H111.075V134.722ZM107.673 134.974H109.923V150.634H107.673V134.974ZM102.777 135.892C104.991 135.892 106.413 138.178 106.413 141.94C106.413 145.72 104.991 148.006 102.777 148.006C100.581 148.006 99.1765 145.72 99.1765 141.94C99.1765 138.178 100.581 135.892 102.777 135.892ZM102.777 138.142C101.877 138.142 101.355 139.402 101.355 141.94C101.355 144.496 101.877 145.738 102.777 145.738C103.713 145.738 104.235 144.496 104.235 141.94C104.235 139.402 103.713 138.142 102.777 138.142ZM127.669 134.722H129.955V151.39H127.669V134.722ZM121.063 141.112H124.627V143.002H121.063V141.112ZM124.159 135.082H126.391V150.652H124.159V135.082ZM120.523 136.684H122.827C122.827 141.436 121.405 145.216 116.725 147.934L115.375 146.26C119.173 143.974 120.523 141.202 120.523 137.17V136.684ZM116.311 136.684H121.279V138.592H116.311V136.684ZM146.92 134.722H149.296V151.39H146.92V134.722ZM148.756 141.22H151.708V143.218H148.756V141.22ZM136.156 137.188H145.858V139.096H136.156V137.188ZM141.034 140.032C143.464 140.032 145.264 141.688 145.264 144.01C145.264 146.332 143.464 147.988 141.034 147.988C138.604 147.988 136.804 146.332 136.804 144.01C136.804 141.688 138.604 140.032 141.034 140.032ZM141.034 141.976C139.9 141.976 139.09 142.732 139.09 144.01C139.09 145.288 139.9 146.044 141.034 146.044C142.168 146.044 142.978 145.288 142.978 144.01C142.978 142.732 142.168 141.976 141.034 141.976ZM139.828 134.992H142.222V137.908H139.828V134.992ZM154.658 139.222H166.214V141.112H154.658V139.222ZM152.786 142.84H167.888V144.748H152.786V142.84ZM154.658 135.316H157.034V140.158H154.658V135.316ZM154.496 149.122H166.304V151.03H154.496V149.122ZM154.496 146.08H156.89V149.626H154.496V146.08ZM184.151 134.722H186.545V143.038H184.151V134.722ZM185.573 137.908H188.741V139.87H185.573V137.908ZM173.909 135.496H181.847V142.426H173.909V135.496ZM179.489 137.368H176.267V140.554H179.489V137.368ZM175.529 143.704H186.545V148.276H177.941V150.256H175.565V146.548H184.187V145.54H175.529V143.704ZM175.565 149.338H187.031V151.21H175.565V149.338ZM189.982 143.218H205.048V145.126H189.982V143.218ZM191.8 149.194H203.356V151.102H191.8V149.194ZM191.8 146.242H194.194V149.806H191.8V146.242ZM197.524 135.208C201.142 135.208 203.554 136.522 203.554 138.646C203.554 140.77 201.142 142.084 197.524 142.084C193.888 142.084 191.494 140.77 191.494 138.646C191.494 136.522 193.888 135.208 197.524 135.208ZM197.524 137.116C195.274 137.116 193.96 137.638 193.96 138.646C193.96 139.672 195.274 140.176 197.524 140.176C199.774 140.176 201.088 139.672 201.088 138.646C201.088 137.638 199.774 137.116 197.524 137.116ZM208.988 145.252C208.556 142.354 211.634 141.202 211.634 139.492C211.634 138.574 211.04 138.016 210.104 138.016C209.312 138.016 208.682 138.412 208.088 139.024L206.63 137.674C207.566 136.612 208.844 135.874 210.41 135.874C212.588 135.874 214.172 136.99 214.172 139.312C214.172 141.868 211.04 142.714 211.31 145.252H208.988ZM210.158 150.04C209.204 150.04 208.52 149.302 208.52 148.312C208.52 147.322 209.204 146.602 210.158 146.602C211.094 146.602 211.814 147.322 211.814 148.312C211.814 149.302 211.094 150.04 210.158 150.04Z" fill="black"/>
<circle cx="33.5131" cy="176.062" r="1.47013" fill="black"/>
<path d="M40.995 176.364C40.32 176.364 39.945 175.824 39.945 174.849C39.945 173.514 40.56 172.554 41.73 171.879L42.12 172.539C41.265 173.094 40.845 173.679 40.845 174.639L41.055 175.749L40.35 174.894C40.56 174.699 40.725 174.594 40.995 174.594C41.46 174.594 41.88 174.894 41.88 175.449C41.88 176.019 41.52 176.364 40.995 176.364ZM43.935 176.364C43.275 176.364 42.885 175.824 42.885 174.849C42.885 173.514 43.515 172.554 44.67 171.879L45.06 172.539C44.22 173.094 43.8 173.679 43.8 174.639L43.98 175.749L43.29 174.894C43.5 174.699 43.68 174.594 43.935 174.594C44.4 174.594 44.82 174.894 44.82 175.449C44.82 176.019 44.46 176.364 43.935 176.364ZM55.8245 171.144H57.0695V181.134H55.8245V171.144ZM56.6795 175.269H59.0795V176.304H56.6795V175.269ZM48.6245 183.399H57.6845V184.419H48.6245V183.399ZM48.6245 180.114H49.8695V183.804H48.6245V180.114ZM50.3345 172.104C52.3595 172.104 53.8745 173.499 53.8745 175.449C53.8745 177.414 52.3595 178.794 50.3345 178.794C48.3095 178.794 46.7945 177.414 46.7945 175.449C46.7945 173.499 48.3095 172.104 50.3345 172.104ZM50.3345 173.199C49.0145 173.199 48.0095 174.129 48.0095 175.449C48.0095 176.784 49.0145 177.699 50.3345 177.699C51.6545 177.699 52.6595 176.784 52.6595 175.449C52.6595 174.129 51.6545 173.199 50.3345 173.199ZM60.8633 171.969H62.0933V177.819H60.8633V171.969ZM60.8633 177.519H61.8833C64.2683 177.519 65.9183 177.444 67.7933 177.054L67.9583 178.059C66.0083 178.464 64.3283 178.554 61.8833 178.554H60.8633V177.519ZM69.9533 171.159H71.1983V179.469H69.9533V171.159ZM66.1583 172.749H70.2983V173.724H66.1583V172.749ZM66.1583 175.134H70.2983V176.124H66.1583V175.134ZM66.7433 179.589C69.5333 179.589 71.2583 180.534 71.2583 182.154C71.2583 183.774 69.5333 184.704 66.7433 184.704C63.9383 184.704 62.2133 183.774 62.2133 182.154C62.2133 180.534 63.9383 179.589 66.7433 179.589ZM66.7433 180.579C64.7033 180.579 63.4583 181.164 63.4583 182.154C63.4583 183.144 64.7033 183.714 66.7433 183.714C68.7833 183.714 70.0283 183.144 70.0283 182.154C70.0283 181.164 68.7833 180.579 66.7433 180.579ZM82.7321 171.159H83.9771V184.719H82.7321V171.159ZM83.6771 176.724H86.1971V177.774H83.6771V176.724ZM73.4771 173.319H81.4721V174.339H73.4771V173.319ZM77.5271 175.464C79.4471 175.464 80.8271 176.754 80.8271 178.584C80.8271 180.414 79.4471 181.704 77.5271 181.704C75.6221 181.704 74.2271 180.414 74.2271 178.584C74.2271 176.754 75.6221 175.464 77.5271 175.464ZM77.5271 176.499C76.2971 176.499 75.4121 177.354 75.4121 178.584C75.4121 179.799 76.2971 180.669 77.5271 180.669C78.7571 180.669 79.6421 179.799 79.6421 178.584C79.6421 177.354 78.7571 176.499 77.5271 176.499ZM76.8821 171.324H78.1271V173.784H76.8821V171.324ZM92.391 176.004H94.986V177.039H92.391V176.004ZM89.856 172.434H90.831V175.014C90.831 177.849 89.646 180.594 87.666 181.809L86.886 180.864C88.746 179.769 89.856 177.339 89.856 175.014V172.434ZM90.096 172.434H91.056V174.969C91.056 177.144 92.076 179.454 93.861 180.534L93.141 181.509C91.191 180.309 90.096 177.609 90.096 174.969V172.434ZM97.371 171.159H98.571V184.719H97.371V171.159ZM94.626 171.444H95.796V184.044H94.626V171.444ZM103.55 178.134H104.78V182.199H103.55V178.134ZM108.56 178.134H109.805V182.199H108.56V178.134ZM100.55 181.959H112.835V182.994H100.55V181.959ZM106.67 172.014C109.535 172.014 111.59 173.379 111.59 175.509C111.59 177.624 109.535 178.989 106.67 178.989C103.79 178.989 101.735 177.624 101.735 175.509C101.735 173.379 103.79 172.014 106.67 172.014ZM106.67 173.004C104.495 173.004 102.935 173.994 102.935 175.509C102.935 177.009 104.495 177.999 106.67 177.999C108.845 177.999 110.39 177.009 110.39 175.509C110.39 173.994 108.845 173.004 106.67 173.004ZM115.249 180.234L115.054 173.889L115.024 172.314H116.404L116.374 173.889L116.179 180.234H115.249ZM115.699 183.759C115.159 183.759 114.724 183.324 114.724 182.709C114.724 182.079 115.159 181.659 115.699 181.659C116.254 181.659 116.704 182.079 116.704 182.709C116.704 183.324 116.254 183.759 115.699 183.759ZM125.267 172.194C127.232 172.194 128.642 174.039 128.642 176.919C128.642 179.814 127.232 181.659 125.267 181.659C123.287 181.659 121.892 179.814 121.892 176.919C121.892 174.039 123.287 172.194 125.267 172.194ZM125.267 173.319C123.962 173.319 123.077 174.729 123.077 176.919C123.077 179.124 123.962 180.564 125.267 180.564C126.572 180.564 127.457 179.124 127.457 176.919C127.457 174.729 126.572 173.319 125.267 173.319ZM131.582 171.144H132.812V184.734H131.582V171.144ZM128.237 176.319H132.122V177.339H128.237V176.319ZM141.916 175.749H145.696V176.769H141.916V175.749ZM138.646 172.329H139.666V174.744C139.666 177.789 138.061 180.699 135.916 181.854L135.121 180.864C137.116 179.874 138.646 177.264 138.646 174.744V172.329ZM138.886 172.329H139.891V174.744C139.891 177.219 141.421 179.679 143.386 180.609L142.651 181.614C140.461 180.504 138.886 177.714 138.886 174.744V172.329ZM145.081 171.144H146.311V184.734H145.081V171.144ZM157.194 178.824H158.439V182.199H157.194V178.824ZM157.824 172.044C160.689 172.044 162.744 173.439 162.744 175.599C162.744 177.759 160.689 179.154 157.824 179.154C154.959 179.154 152.889 177.759 152.889 175.599C152.889 173.439 154.959 172.044 157.824 172.044ZM157.824 173.034C155.664 173.034 154.089 174.054 154.089 175.599C154.089 177.144 155.664 178.164 157.824 178.164C159.969 178.164 161.544 177.144 161.544 175.599C161.544 174.054 159.969 173.034 157.824 173.034ZM151.704 181.959H163.989V182.994H151.704V181.959ZM170.543 176.004H173.138V177.039H170.543V176.004ZM168.008 172.434H168.983V175.014C168.983 177.849 167.798 180.594 165.818 181.809L165.038 180.864C166.898 179.769 168.008 177.339 168.008 175.014V172.434ZM168.248 172.434H169.208V174.969C169.208 177.144 170.228 179.454 172.013 180.534L171.293 181.509C169.343 180.309 168.248 177.609 168.248 174.969V172.434ZM175.523 171.159H176.723V184.719H175.523V171.159ZM172.778 171.444H173.948V184.044H172.778V171.444ZM181.702 178.134H182.932V182.199H181.702V178.134ZM186.712 178.134H187.957V182.199H186.712V178.134ZM178.702 181.959H190.987V182.994H178.702V181.959ZM184.822 172.014C187.687 172.014 189.742 173.379 189.742 175.509C189.742 177.624 187.687 178.989 184.822 178.989C181.942 178.989 179.887 177.624 179.887 175.509C179.887 173.379 181.942 172.014 184.822 172.014ZM184.822 173.004C182.647 173.004 181.087 173.994 181.087 175.509C181.087 177.009 182.647 177.999 184.822 177.999C186.997 177.999 188.542 177.009 188.542 175.509C188.542 173.994 186.997 173.004 184.822 173.004ZM193.4 180.234L193.205 173.889L193.175 172.314H194.555L194.525 173.889L194.33 180.234H193.4ZM193.85 183.759C193.31 183.759 192.875 183.324 192.875 182.709C192.875 182.079 193.31 181.659 193.85 181.659C194.405 181.659 194.855 182.079 194.855 182.709C194.855 183.324 194.405 183.759 193.85 183.759ZM196.853 176.334L196.463 175.689C197.318 175.119 197.738 174.549 197.738 173.559L197.528 172.464L198.233 173.319C198.023 173.514 197.843 173.604 197.588 173.604C197.123 173.604 196.703 173.304 196.703 172.764C196.703 172.194 197.063 171.849 197.588 171.849C198.248 171.849 198.638 172.389 198.638 173.349C198.638 174.684 198.023 175.644 196.853 176.334ZM199.808 176.334L199.418 175.689C200.258 175.119 200.678 174.549 200.678 173.559L200.483 172.464L201.188 173.319C200.993 173.514 200.798 173.604 200.543 173.604C200.078 173.604 199.658 173.304 199.658 172.764C199.658 172.194 200.033 171.849 200.543 171.849C201.203 171.849 201.593 172.389 201.593 173.349C201.593 174.684 200.963 175.644 199.808 176.334ZM48.915 193.144H50.175V206.734H48.915V193.144ZM49.875 198.499H52.395V199.549H49.875V198.499ZM40.32 202.309H41.385C43.89 202.309 45.645 202.219 47.67 201.844L47.805 202.894C45.72 203.284 43.935 203.359 41.385 203.359H40.32V202.309ZM40.32 194.464H46.62V195.484H41.55V202.774H40.32V194.464ZM60.4788 196.669H63.5388V197.704H60.4788V196.669ZM63.1488 193.159H64.3938V201.244H63.1488V193.159ZM59.9388 201.649C62.7288 201.649 64.4538 202.594 64.4538 204.184C64.4538 205.789 62.7288 206.704 59.9388 206.704C57.1338 206.704 55.4088 205.789 55.4088 204.184C55.4088 202.594 57.1338 201.649 59.9388 201.649ZM59.9388 202.624C57.8988 202.624 56.6538 203.194 56.6538 204.184C56.6538 205.159 57.8988 205.729 59.9388 205.729C61.9788 205.729 63.2238 205.159 63.2238 204.184C63.2238 203.194 61.9788 202.624 59.9388 202.624ZM56.6988 194.524H57.7188V195.619C57.7188 198.124 56.1888 200.269 53.9388 201.109L53.2938 200.119C55.3038 199.384 56.6988 197.569 56.6988 195.619V194.524ZM56.9388 194.524H57.9438V195.619C57.9438 197.374 59.2638 199.054 61.2288 199.744L60.5988 200.734C58.3938 199.939 56.9388 197.899 56.9388 195.619V194.524ZM53.6688 194.149H60.9138V195.169H53.6688V194.149ZM76.0177 193.174H77.2627V203.344H76.0177V193.174ZM76.8727 197.614H79.2727V198.664H76.8727V197.614ZM66.7777 194.809H74.7877V195.814H66.7777V194.809ZM70.7827 196.564C72.7027 196.564 74.0227 197.569 74.0227 199.099C74.0227 200.614 72.7027 201.619 70.7827 201.619C68.8477 201.619 67.5277 200.614 67.5277 199.099C67.5277 197.569 68.8477 196.564 70.7827 196.564ZM70.7827 197.539C69.5527 197.539 68.7127 198.154 68.7127 199.099C68.7127 200.029 69.5527 200.644 70.7827 200.644C71.9977 200.644 72.8377 200.029 72.8377 199.099C72.8377 198.154 71.9977 197.539 70.7827 197.539ZM70.1527 193.159H71.3977V195.334H70.1527V193.159ZM68.8177 205.399H77.8777V206.419H68.8177V205.399ZM68.8177 202.534H70.0627V205.834H68.8177V202.534ZM93.156 193.174H94.416V203.074H93.156V193.174ZM85.701 205.399H94.821V206.419H85.701V205.399ZM85.701 202.054H86.931V205.744H85.701V202.054ZM87.141 194.104C89.166 194.104 90.666 195.484 90.666 197.449C90.666 199.399 89.166 200.794 87.141 200.794C85.116 200.794 83.601 199.399 83.601 197.449C83.601 195.484 85.116 194.104 87.141 194.104ZM87.141 195.184C85.821 195.184 84.816 196.114 84.816 197.449C84.816 198.769 85.821 199.699 87.141 199.699C88.461 199.699 89.466 198.769 89.466 197.449C89.466 196.114 88.461 195.184 87.141 195.184ZM100.115 194.329H101.135V196.759C101.135 199.759 99.5148 202.684 97.3698 203.824L96.6048 202.834C98.5698 201.844 100.115 199.234 100.115 196.759V194.329ZM100.34 194.329H101.345V196.759C101.345 199.144 102.86 201.619 104.78 202.579L104.015 203.569C101.915 202.444 100.34 199.669 100.34 196.759V194.329ZM105.965 193.159H107.225V206.719H105.965V193.159ZM106.925 198.649H109.445V199.699H106.925V198.649ZM110.284 199.459H122.584V200.404H110.284V199.459ZM111.739 201.499H121.039V204.394H113.014V205.984H111.784V203.539H119.824V202.384H111.739V201.499ZM111.784 205.654H121.474V206.554H111.784V205.654ZM111.844 193.549H120.994V196.369H113.104V197.839H111.874V195.529H119.779V194.434H111.844V193.549ZM111.874 197.539H121.249V198.439H111.874V197.539ZM136.752 193.159H137.997V203.179H136.752V193.159ZM133.827 197.344H136.992V198.379H133.827V197.344ZM132.567 194.209H133.872C133.872 197.704 131.412 200.359 127.587 201.634L127.047 200.629C130.362 199.519 132.567 197.389 132.567 194.704V194.209ZM127.722 194.209H133.377V195.229H127.722V194.209ZM129.432 205.399H138.342V206.419H129.432V205.399ZM129.432 202.174H130.677V205.909H129.432V202.174ZM150.641 193.159H151.826V203.179H150.641V193.159ZM145.046 196.309H148.541V197.329H145.046V196.309ZM147.926 193.429H149.096V202.804H147.926V193.429ZM143.066 205.399H152.276V206.434H143.066V205.399ZM143.066 201.994H144.311V205.954H143.066V201.994ZM141.056 194.329H142.301V199.984H141.056V194.329ZM141.056 199.729H141.911C143.456 199.729 144.926 199.669 146.666 199.324L146.831 200.359C145.016 200.689 143.531 200.764 141.911 200.764H141.056V199.729ZM163.015 193.144H164.275V206.734H163.015V193.144ZM163.975 198.499H166.495V199.549H163.975V198.499ZM154.42 202.309H155.485C157.99 202.309 159.745 202.219 161.77 201.844L161.905 202.894C159.82 203.284 158.035 203.359 155.485 203.359H154.42V202.309ZM154.42 194.464H160.72V195.484H155.65V202.774H154.42V194.464ZM168.668 205.759C168.128 205.759 167.693 205.324 167.693 204.709C167.693 204.079 168.128 203.659 168.668 203.659C169.223 203.659 169.673 204.079 169.673 204.709C169.673 205.324 169.223 205.759 168.668 205.759ZM177.113 208.504C175.718 206.254 174.893 203.854 174.893 200.899C174.893 197.959 175.718 195.529 177.113 193.279L177.953 193.684C176.663 195.814 176.033 198.349 176.033 200.899C176.033 203.449 176.663 205.984 177.953 208.114L177.113 208.504ZM182.466 205.759C180.366 205.759 179.031 203.854 179.031 200.014C179.031 196.204 180.366 194.359 182.466 194.359C184.536 194.359 185.871 196.204 185.871 200.014C185.871 203.854 184.536 205.759 182.466 205.759ZM182.466 204.649C183.711 204.649 184.551 203.254 184.551 200.014C184.551 196.819 183.711 195.454 182.466 195.454C181.206 195.454 180.351 196.819 180.351 200.014C180.351 203.254 181.206 204.649 182.466 204.649ZM194.296 196.549H197.311V197.584H194.296V196.549ZM196.966 193.159H198.211V201.094H196.966V193.159ZM189.421 201.754H198.211V206.539H189.421V201.754ZM196.996 202.744H190.636V205.534H196.996V202.744ZM190.516 194.449H191.536V195.544C191.536 198.019 190.006 200.134 187.741 200.974L187.096 199.984C189.121 199.264 190.516 197.464 190.516 195.544V194.449ZM190.756 194.449H191.761V195.529C191.761 197.284 193.081 198.979 195.046 199.669L194.416 200.659C192.211 199.864 190.756 197.809 190.756 195.529V194.449ZM187.486 194.029H194.731V195.034H187.486V194.029ZM201.3 208.504L200.445 208.114C201.735 205.984 202.365 203.449 202.365 200.899C202.365 198.349 201.735 195.814 200.445 193.684L201.3 193.279C202.68 195.529 203.505 197.959 203.505 200.899C203.505 203.854 202.68 206.254 201.3 208.504Z" fill="black"/>
<circle cx="33.5131" cy="230.062" r="1.47013" fill="black"/>
<path d="M40.995 230.364C40.32 230.364 39.945 229.824 39.945 228.849C39.945 227.514 40.56 226.554 41.73 225.879L42.12 226.539C41.265 227.094 40.845 227.679 40.845 228.639L41.055 229.749L40.35 228.894C40.56 228.699 40.725 228.594 40.995 228.594C41.46 228.594 41.88 228.894 41.88 229.449C41.88 230.019 41.52 230.364 40.995 230.364ZM43.935 230.364C43.275 230.364 42.885 229.824 42.885 228.849C42.885 227.514 43.515 226.554 44.67 225.879L45.06 226.539C44.22 227.094 43.8 227.679 43.8 228.639L43.98 229.749L43.29 228.894C43.5 228.699 43.68 228.594 43.935 228.594C44.4 228.594 44.82 228.894 44.82 229.449C44.82 230.019 44.46 230.364 43.935 230.364ZM52.0445 232.824H53.2895V236.199H52.0445V232.824ZM52.6745 226.044C55.5395 226.044 57.5945 227.439 57.5945 229.599C57.5945 231.759 55.5395 233.154 52.6745 233.154C49.8095 233.154 47.7395 231.759 47.7395 229.599C47.7395 227.439 49.8095 226.044 52.6745 226.044ZM52.6745 227.034C50.5145 227.034 48.9395 228.054 48.9395 229.599C48.9395 231.144 50.5145 232.164 52.6745 232.164C54.8195 232.164 56.3945 231.144 56.3945 229.599C56.3945 228.054 54.8195 227.034 52.6745 227.034ZM46.5545 235.959H58.8395V236.994H46.5545V235.959ZM61.7033 228.384H70.8983V229.404H61.7033V228.384ZM60.0383 230.709H72.3383V231.729H60.0383V230.709ZM61.7033 225.354H62.9183V228.849H61.7033V225.354ZM61.5683 232.944H70.7783V236.124H62.8283V237.879H61.5983V235.194H69.5333V233.904H61.5683V232.944ZM61.5983 237.564H71.2283V238.539H61.5983V237.564ZM86.4616 225.174H87.7216V235.104H86.4616V225.174ZM79.0066 237.399H88.1266V238.419H79.0066V237.399ZM79.0066 234.189H80.2366V237.879H79.0066V234.189ZM80.1316 225.909H81.1666V227.289C81.1666 229.929 79.6666 232.239 77.3866 233.169L76.7416 232.164C78.7816 231.369 80.1316 229.389 80.1316 227.289V225.909ZM80.3566 225.909H81.3766V227.289C81.3766 229.329 82.7416 231.174 84.7666 231.909L84.1066 232.914C81.8566 232.044 80.3566 229.869 80.3566 227.289V225.909ZM93.3905 225.864H94.4255V227.244C94.4255 229.854 92.9555 232.014 90.6905 232.899L90.0305 231.894C92.0705 231.144 93.3905 229.314 93.3905 227.244V225.864ZM93.6155 225.864H94.6355V227.334C94.6355 229.164 95.9855 230.859 97.9355 231.534L97.2755 232.509C95.1005 231.699 93.6155 229.689 93.6155 227.334V225.864ZM99.3755 225.159H100.62V233.379H99.3755V225.159ZM100.275 228.654H102.63V229.704H100.275V228.654ZM96.3005 233.754C99.0755 233.754 100.755 234.669 100.755 236.229C100.755 237.789 99.0755 238.689 96.3005 238.689C93.5255 238.689 91.8455 237.789 91.8455 236.229C91.8455 234.669 93.5255 233.754 96.3005 233.754ZM96.3005 234.744C94.2905 234.744 93.0605 235.284 93.0605 236.229C93.0605 237.174 94.2905 237.714 96.3005 237.714C98.3105 237.714 99.5405 237.174 99.5405 236.229C99.5405 235.284 98.3105 234.744 96.3005 234.744ZM109.109 232.359H110.339V234.699H109.109V232.359ZM103.589 231.699H115.844V232.719H103.589V231.699ZM104.729 225.579H114.689V226.599H104.729V225.579ZM104.789 229.434H114.629V230.454H104.789V229.434ZM106.784 226.029H108.029V230.094H106.784V226.029ZM111.404 226.029H112.634V230.094H111.404V226.029ZM105.089 234.294H114.344V238.539H105.089V234.294ZM113.129 235.284H106.319V237.534H113.129V235.284ZM126.943 225.144H128.188V238.734H126.943V225.144ZM121.033 226.194C123.043 226.194 124.483 228.039 124.483 230.919C124.483 233.814 123.043 235.659 121.033 235.659C119.038 235.659 117.598 233.814 117.598 230.919C117.598 228.039 119.038 226.194 121.033 226.194ZM121.033 227.319C119.713 227.319 118.783 228.729 118.783 230.919C118.783 233.124 119.713 234.564 121.033 234.564C122.368 234.564 123.283 233.124 123.283 230.919C123.283 228.729 122.368 227.319 121.033 227.319ZM143.736 230.559H146.241V231.609H143.736V230.559ZM142.821 225.144H144.081V238.719H142.821V225.144ZM134.181 226.479H135.426V234.879H134.181V226.479ZM134.181 234.234H135.261C137.271 234.234 139.326 234.099 141.561 233.634L141.711 234.669C139.401 235.149 137.316 235.284 135.261 235.284H134.181V234.234ZM156.41 225.174H157.655V233.409H156.41V225.174ZM157.13 228.804H159.635V229.854H157.13V228.804ZM150.32 234.024H151.28V234.354C151.28 236.169 150.185 237.864 148.22 238.554L147.62 237.624C149.33 237.069 150.32 235.704 150.32 234.354V234.024ZM150.605 234.024H151.52V234.354C151.52 235.644 152.315 237.099 153.935 237.729L153.425 238.674C151.46 237.924 150.605 236.064 150.605 234.354V234.024ZM155.315 234.024H156.23V234.354C156.23 236.049 155.345 237.909 153.425 238.674L152.885 237.729C154.505 237.069 155.315 235.614 155.315 234.354V234.024ZM155.555 234.024H156.53V234.354C156.53 235.734 157.52 237.084 159.23 237.624L158.63 238.554C156.65 237.864 155.555 236.214 155.555 234.354V234.024ZM150.65 230.169H151.895V232.329H150.65V230.169ZM147.275 232.854L147.125 231.849C149.51 231.849 152.81 231.819 155.57 231.399L155.66 232.284C152.825 232.794 149.615 232.839 147.275 232.854ZM151.235 225.609C153.215 225.609 154.58 226.599 154.58 228.099C154.58 229.599 153.215 230.589 151.235 230.589C149.27 230.589 147.905 229.599 147.905 228.099C147.905 226.599 149.27 225.609 151.235 225.609ZM151.235 226.539C149.96 226.539 149.075 227.154 149.075 228.099C149.075 229.044 149.96 229.659 151.235 229.659C152.525 229.659 153.41 229.044 153.41 228.099C153.41 227.154 152.525 226.539 151.235 226.539ZM162.199 233.289H163.429V234.864H170.059V233.289H171.304V238.539H162.199V233.289ZM163.429 235.824V237.534H170.059V235.824H163.429ZM160.639 231.339H172.894V232.344H160.639V231.339ZM166.144 225.309H167.209V225.909C167.209 228.264 164.584 229.959 161.794 230.379L161.344 229.404C163.789 229.074 166.144 227.619 166.144 225.909V225.309ZM166.339 225.309H167.404V225.909C167.404 227.589 169.789 229.074 172.204 229.404L171.739 230.379C168.979 229.959 166.339 228.234 166.339 225.909V225.309ZM184.008 225.159H185.253V238.719H184.008V225.159ZM175.008 226.479H176.238V234.879H175.008V226.479ZM175.008 234.144H176.118C178.173 234.144 180.318 233.994 182.613 233.514L182.763 234.579C180.408 235.059 178.263 235.224 176.118 235.224H175.008V234.144ZM196.817 225.144H198.077V238.734H196.817V225.144ZM197.777 230.499H200.297V231.549H197.777V230.499ZM188.222 234.309H189.287C191.792 234.309 193.547 234.219 195.572 233.844L195.707 234.894C193.622 235.284 191.837 235.359 189.287 235.359H188.222V234.309ZM188.222 226.464H194.522V227.484H189.452V234.774H188.222V226.464ZM202.471 237.759C201.931 237.759 201.496 237.324 201.496 236.709C201.496 236.079 201.931 235.659 202.471 235.659C203.026 235.659 203.476 236.079 203.476 236.709C203.476 237.324 203.026 237.759 202.471 237.759ZM203.957 230.334L203.567 229.689C204.422 229.119 204.842 228.549 204.842 227.559L204.632 226.464L205.337 227.319C205.127 227.514 204.947 227.604 204.692 227.604C204.227 227.604 203.807 227.304 203.807 226.764C203.807 226.194 204.167 225.849 204.692 225.849C205.352 225.849 205.742 226.389 205.742 227.349C205.742 228.684 205.127 229.644 203.957 230.334ZM206.912 230.334L206.522 229.689C207.362 229.119 207.782 228.549 207.782 227.559L207.587 226.464L208.292 227.319C208.097 227.514 207.902 227.604 207.647 227.604C207.182 227.604 206.762 227.304 206.762 226.764C206.762 226.194 207.137 225.849 207.647 225.849C208.307 225.849 208.697 226.389 208.697 227.349C208.697 228.684 208.067 229.644 206.912 230.334ZM49.605 247.174H50.865V257.104H49.605V247.174ZM42.15 259.399H51.27V260.419H42.15V259.399ZM42.15 256.189H43.38V259.879H42.15V256.189ZM43.275 247.909H44.31V249.289C44.31 251.929 42.81 254.239 40.53 255.169L39.885 254.164C41.925 253.369 43.275 251.389 43.275 249.289V247.909ZM43.5 247.909H44.52V249.289C44.52 251.329 45.885 253.174 47.91 253.909L47.25 254.914C45 254.044 43.5 251.869 43.5 249.289V247.909ZM54.7938 248.029H63.2688V249.049H54.7938V248.029ZM53.2488 253.939H65.5038V254.959H53.2488V253.939ZM56.3988 254.569H57.6438V260.719H56.3988V254.569ZM62.5938 248.029H63.8238V249.034C63.8238 250.309 63.8238 251.944 63.3588 254.269L62.1288 254.149C62.5938 251.899 62.5938 250.279 62.5938 249.034V248.029ZM61.0338 254.569H62.2788V260.719H61.0338V254.569ZM73.0871 247.864H74.1221V249.244C74.1221 251.854 72.6521 254.014 70.3871 254.899L69.7271 253.894C71.7671 253.144 73.0871 251.314 73.0871 249.244V247.864ZM73.3121 247.864H74.3321V249.334C74.3321 251.164 75.6821 252.859 77.6321 253.534L76.9721 254.509C74.7971 253.699 73.3121 251.689 73.3121 249.334V247.864ZM79.0721 247.159H80.3171V255.379H79.0721V247.159ZM79.9721 250.654H82.3271V251.704H79.9721V250.654ZM75.9971 255.754C78.7721 255.754 80.4521 256.669 80.4521 258.229C80.4521 259.789 78.7721 260.689 75.9971 260.689C73.2221 260.689 71.5421 259.789 71.5421 258.229C71.5421 256.669 73.2221 255.754 75.9971 255.754ZM75.9971 256.744C73.9871 256.744 72.7571 257.284 72.7571 258.229C72.7571 259.174 73.9871 259.714 75.9971 259.714C78.0071 259.714 79.2371 259.174 79.2371 258.229C79.2371 257.284 78.0071 256.744 75.9971 256.744ZM88.806 254.359H90.036V256.699H88.806V254.359ZM83.286 253.699H95.541V254.719H83.286V253.699ZM84.426 247.579H94.386V248.599H84.426V247.579ZM84.486 251.434H94.326V252.454H84.486V251.434ZM86.481 248.029H87.726V252.094H86.481V248.029ZM91.101 248.029H92.331V252.094H91.101V248.029ZM84.786 256.294H94.041V260.539H84.786V256.294ZM92.826 257.284H86.016V259.534H92.826V257.284ZM102.92 247.384C105.905 247.384 107.69 248.224 107.69 249.739C107.69 251.254 105.905 252.094 102.92 252.094C99.9198 252.094 98.1498 251.254 98.1498 249.739C98.1498 248.224 99.9198 247.384 102.92 247.384ZM102.92 248.329C100.7 248.329 99.4248 248.839 99.4248 249.739C99.4248 250.639 100.7 251.149 102.92 251.149C105.125 251.149 106.4 250.639 106.4 249.739C106.4 248.839 105.125 248.329 102.92 248.329ZM96.7848 252.994H109.04V253.999H96.7848V252.994ZM98.2698 255.154H107.48V258.214H99.5298V259.864H98.2998V257.314H106.25V256.114H98.2698V255.154ZM98.2998 259.594H107.885V260.569H98.2998V259.594ZM113.353 257.929H125.638V258.964H113.353V257.929ZM118.813 254.644H120.043V258.274H118.813V254.644ZM118.783 248.059H119.863V249.109C119.863 252.004 117.088 254.239 114.358 254.809L113.833 253.774C116.218 253.339 118.783 251.344 118.783 249.109V248.059ZM119.008 248.059H120.088V249.109C120.088 251.359 122.668 253.339 125.053 253.774L124.513 254.809C121.783 254.239 119.008 252.004 119.008 249.109V248.059ZM137.142 247.159H138.342V260.719H137.142V247.159ZM134.952 252.604H137.547V253.624H134.952V252.604ZM131.442 248.899H132.642C132.642 252.394 131.442 255.634 127.572 257.809L126.837 256.924C130.242 255.019 131.442 252.274 131.442 249.139V248.899ZM127.362 248.899H131.862V249.934H127.362V248.899ZM134.127 247.519H135.312V260.059H134.127V247.519ZM149.621 247.174H150.866V257.344H149.621V247.174ZM150.476 251.614H152.876V252.664H150.476V251.614ZM140.381 248.809H148.391V249.814H140.381V248.809ZM144.386 250.564C146.306 250.564 147.626 251.569 147.626 253.099C147.626 254.614 146.306 255.619 144.386 255.619C142.451 255.619 141.131 254.614 141.131 253.099C141.131 251.569 142.451 250.564 144.386 250.564ZM144.386 251.539C143.156 251.539 142.316 252.154 142.316 253.099C142.316 254.029 143.156 254.644 144.386 254.644C145.601 254.644 146.441 254.029 146.441 253.099C146.441 252.154 145.601 251.539 144.386 251.539ZM143.756 247.159H145.001V249.334H143.756V247.159ZM142.421 259.399H151.481V260.419H142.421V259.399ZM142.421 256.534H143.666V259.834H142.421V256.534ZM163.015 247.144H164.275V260.734H163.015V247.144ZM163.975 252.499H166.495V253.549H163.975V252.499ZM154.42 256.309H155.485C157.99 256.309 159.745 256.219 161.77 255.844L161.905 256.894C159.82 257.284 158.035 257.359 155.485 257.359H154.42V256.309ZM154.42 248.464H160.72V249.484H155.65V256.774H154.42V248.464ZM168.668 259.759C168.128 259.759 167.693 259.324 167.693 258.709C167.693 258.079 168.128 257.659 168.668 257.659C169.223 257.659 169.673 258.079 169.673 258.709C169.673 259.324 169.223 259.759 168.668 259.759ZM177.113 262.504C175.718 260.254 174.893 257.854 174.893 254.899C174.893 251.959 175.718 249.529 177.113 247.279L177.953 247.684C176.663 249.814 176.033 252.349 176.033 254.899C176.033 257.449 176.663 259.984 177.953 262.114L177.113 262.504ZM179.616 259.549V258.409H182.061V250.219H180.096V249.334C181.086 249.169 181.791 248.914 182.376 248.554H183.426V258.409H185.646V259.549H179.616ZM194.296 250.549H197.311V251.584H194.296V250.549ZM196.966 247.159H198.211V255.094H196.966V247.159ZM189.421 255.754H198.211V260.539H189.421V255.754ZM196.996 256.744H190.636V259.534H196.996V256.744ZM190.516 248.449H191.536V249.544C191.536 252.019 190.006 254.134 187.741 254.974L187.096 253.984C189.121 253.264 190.516 251.464 190.516 249.544V248.449ZM190.756 248.449H191.761V249.529C191.761 251.284 193.081 252.979 195.046 253.669L194.416 254.659C192.211 253.864 190.756 251.809 190.756 249.529V248.449ZM187.486 248.029H194.731V249.034H187.486V248.029ZM201.3 262.504L200.445 262.114C201.735 259.984 202.365 257.449 202.365 254.899C202.365 252.349 201.735 249.814 200.445 247.684L201.3 247.279C202.68 249.529 203.505 251.959 203.505 254.899C203.505 257.854 202.68 260.254 201.3 262.504Z" fill="black"/>
<circle cx="33.5131" cy="284.062" r="1.47013" fill="black"/>
<path d="M40.995 284.364C40.32 284.364 39.945 283.824 39.945 282.849C39.945 281.514 40.56 280.554 41.73 279.879L42.12 280.539C41.265 281.094 40.845 281.679 40.845 282.639L41.055 283.749L40.35 282.894C40.56 282.699 40.725 282.594 40.995 282.594C41.46 282.594 41.88 282.894 41.88 283.449C41.88 284.019 41.52 284.364 40.995 284.364ZM43.935 284.364C43.275 284.364 42.885 283.824 42.885 282.849C42.885 281.514 43.515 280.554 44.67 279.879L45.06 280.539C44.22 281.094 43.8 281.679 43.8 282.639L43.98 283.749L43.29 282.894C43.5 282.699 43.68 282.594 43.935 282.594C44.4 282.594 44.82 282.894 44.82 283.449C44.82 284.019 44.46 284.364 43.935 284.364ZM47.1845 280.314H58.0895V281.289H47.1845V280.314ZM52.6745 281.844C55.4645 281.844 57.0545 282.519 57.0545 283.809C57.0545 285.099 55.4645 285.774 52.6745 285.774C49.8845 285.774 48.2945 285.099 48.2945 283.809C48.2945 282.519 49.8845 281.844 52.6745 281.844ZM52.6745 282.714C50.6795 282.714 49.5695 283.104 49.5695 283.809C49.5695 284.499 50.6795 284.874 52.6745 284.874C54.6695 284.874 55.7795 284.499 55.7795 283.809C55.7795 283.104 54.6695 282.714 52.6745 282.714ZM52.0595 278.949H53.2895V280.899H52.0595V278.949ZM46.5395 286.854H58.7945V287.859H46.5395V286.854ZM52.0595 285.429H53.2895V287.319H52.0595V285.429ZM47.8745 288.939H57.1745V292.719H55.9445V289.914H47.8745V288.939ZM63.6233 280.329H64.6433V282.759C64.6433 285.879 62.9633 288.774 60.7433 289.899L59.9783 288.879C61.9883 287.919 63.6233 285.324 63.6233 282.759V280.329ZM63.8333 280.329H64.8533V282.759C64.8533 285.234 66.4733 287.724 68.4833 288.654L67.7333 289.644C65.5283 288.564 63.8333 285.774 63.8333 282.759V280.329ZM69.8933 279.144H71.1383V292.734H69.8933V279.144ZM86.4466 279.144H87.6916V292.734H86.4466V279.144ZM80.5366 280.194C82.5466 280.194 83.9866 282.039 83.9866 284.919C83.9866 287.814 82.5466 289.659 80.5366 289.659C78.5416 289.659 77.1016 287.814 77.1016 284.919C77.1016 282.039 78.5416 280.194 80.5366 280.194ZM80.5366 281.319C79.2166 281.319 78.2866 282.729 78.2866 284.919C78.2866 287.124 79.2166 288.564 80.5366 288.564C81.8716 288.564 82.7866 287.124 82.7866 284.919C82.7866 282.729 81.8716 281.319 80.5366 281.319ZM103.465 279.159H104.665V292.719H103.465V279.159ZM98.53 284.019H101.125V285.054H98.53V284.019ZM100.75 279.474H101.92V292.029H100.75V279.474ZM95.92 281.259H96.88V282.984C96.88 285.954 95.74 288.759 93.745 290.019L92.98 289.089C94.87 287.949 95.92 285.474 95.92 282.984V281.259ZM96.175 281.259H97.135V282.984C97.135 285.339 98.155 287.694 100.015 288.774L99.25 289.689C97.27 288.489 96.175 285.819 96.175 282.984V281.259ZM93.355 280.734H99.55V281.769H93.355V280.734ZM112.164 286.359H113.394V288.699H112.164V286.359ZM106.644 285.699H118.899V286.719H106.644V285.699ZM107.784 279.579H117.744V280.599H107.784V279.579ZM107.844 283.434H117.684V284.454H107.844V283.434ZM109.839 280.029H111.084V284.094H109.839V280.029ZM114.459 280.029H115.689V284.094H114.459V280.029ZM108.144 288.294H117.399V292.539H108.144V288.294ZM116.184 289.284H109.374V291.534H116.184V289.284ZM133.082 279.159H134.342V286.179H133.082V279.159ZM125.492 286.839H134.342V290.109H126.752V292.149H125.537V289.179H133.097V287.829H125.492V286.839ZM125.537 291.579H134.837V292.569H125.537V291.579ZM123.812 280.074H131.087V281.064H123.812V280.074ZM123.572 285.729L123.437 284.694C125.852 284.694 129.092 284.634 131.732 284.304L131.807 285.219C129.107 285.624 125.957 285.714 123.572 285.729ZM125.147 280.524H126.347V285.144H125.147V280.524ZM128.537 280.524H129.752V285.144H128.537V280.524ZM139.711 286.134H140.941V290.199H139.711V286.134ZM144.721 286.134H145.966V290.199H144.721V286.134ZM136.711 289.959H148.996V290.994H136.711V289.959ZM142.831 280.014C145.696 280.014 147.751 281.379 147.751 283.509C147.751 285.624 145.696 286.989 142.831 286.989C139.951 286.989 137.896 285.624 137.896 283.509C137.896 281.379 139.951 280.014 142.831 280.014ZM142.831 281.004C140.656 281.004 139.096 281.994 139.096 283.509C139.096 285.009 140.656 285.999 142.831 285.999C145.006 285.999 146.551 285.009 146.551 283.509C146.551 281.994 145.006 281.004 142.831 281.004ZM159.39 279.159H160.635V292.719H159.39V279.159ZM160.335 284.724H162.855V285.774H160.335V284.724ZM150.135 281.319H158.13V282.339H150.135V281.319ZM154.185 283.464C156.105 283.464 157.485 284.754 157.485 286.584C157.485 288.414 156.105 289.704 154.185 289.704C152.28 289.704 150.885 288.414 150.885 286.584C150.885 284.754 152.28 283.464 154.185 283.464ZM154.185 284.499C152.955 284.499 152.07 285.354 152.07 286.584C152.07 287.799 152.955 288.669 154.185 288.669C155.415 288.669 156.3 287.799 156.3 286.584C156.3 285.354 155.415 284.499 154.185 284.499ZM153.54 279.324H154.785V281.784H153.54V279.324ZM167.294 281.094H168.299V283.299C168.299 286.164 166.574 289.044 164.414 290.109L163.694 289.119C165.659 288.189 167.294 285.639 167.294 283.299V281.094ZM167.534 281.094H168.539V283.299C168.539 285.594 170.174 287.934 172.169 288.789L171.464 289.779C169.274 288.759 167.534 286.119 167.534 283.299V281.094ZM164.144 280.539H171.719V281.589H164.144V280.539ZM173.549 279.159H174.794V292.719H173.549V279.159ZM183.997 279.924C186.022 279.924 187.507 281.214 187.507 283.059C187.507 284.904 186.022 286.194 183.997 286.194C181.987 286.194 180.502 284.904 180.502 283.059C180.502 281.214 181.987 279.924 183.997 279.924ZM183.997 280.944C182.707 280.944 181.717 281.829 181.717 283.059C181.717 284.289 182.707 285.174 183.997 285.174C185.317 285.174 186.307 284.289 186.307 283.059C186.307 281.829 185.317 280.944 183.997 280.944ZM189.532 279.159H190.777V285.909H189.532V279.159ZM190.237 282.204H192.787V283.224H190.237V282.204ZM181.672 291.339H182.317C183.127 291.339 184.432 291.264 185.587 290.874L185.797 291.879C184.492 292.299 183.247 292.359 182.317 292.359H181.672V291.339ZM181.672 287.379H182.887V291.699H181.672V287.379ZM185.302 287.469H192.112V288.399H185.302V287.469ZM188.722 288.879C190.192 288.879 191.227 289.614 191.227 290.784C191.227 291.969 190.192 292.704 188.722 292.704C187.237 292.704 186.202 291.969 186.202 290.784C186.202 289.614 187.237 288.879 188.722 288.879ZM188.722 289.764C187.882 289.764 187.312 290.169 187.312 290.784C187.312 291.414 187.882 291.819 188.722 291.819C189.532 291.819 190.117 291.414 190.117 290.784C190.117 290.169 189.532 289.764 188.722 289.764ZM188.107 286.254H189.322V288.189H188.107V286.254ZM199.881 280.014C202.701 280.014 204.801 281.514 204.801 283.764C204.801 286.029 202.701 287.514 199.881 287.514C197.061 287.514 194.946 286.029 194.946 283.764C194.946 281.514 197.061 280.014 199.881 280.014ZM199.881 281.034C197.736 281.034 196.146 282.129 196.146 283.764C196.146 285.384 197.736 286.494 199.881 286.494C202.026 286.494 203.616 285.384 203.616 283.764C203.616 282.129 202.026 281.034 199.881 281.034ZM193.761 289.884H206.046V290.934H193.761V289.884ZM212.6 284.004H215.195V285.039H212.6V284.004ZM210.065 280.434H211.04V283.014C211.04 285.849 209.855 288.594 207.875 289.809L207.095 288.864C208.955 287.769 210.065 285.339 210.065 283.014V280.434ZM210.305 280.434H211.265V282.969C211.265 285.144 212.285 287.454 214.07 288.534L213.35 289.509C211.4 288.309 210.305 285.609 210.305 282.969V280.434ZM217.58 279.159H218.78V292.719H217.58V279.159ZM214.835 279.444H216.005V292.044H214.835V279.444ZM223.758 286.134H224.988V290.199H223.758V286.134ZM228.768 286.134H230.013V290.199H228.768V286.134ZM220.758 289.959H233.043V290.994H220.758V289.959ZM226.878 280.014C229.743 280.014 231.798 281.379 231.798 283.509C231.798 285.624 229.743 286.989 226.878 286.989C223.998 286.989 221.943 285.624 221.943 283.509C221.943 281.379 223.998 280.014 226.878 280.014ZM226.878 281.004C224.703 281.004 223.143 281.994 223.143 283.509C223.143 285.009 224.703 285.999 226.878 285.999C229.053 285.999 230.598 285.009 230.598 283.509C230.598 281.994 229.053 281.004 226.878 281.004ZM236.177 288.234C235.817 285.624 238.487 284.664 238.487 282.894C238.487 281.994 237.932 281.259 236.867 281.259C236.117 281.259 235.442 281.619 234.917 282.219L234.137 281.499C234.842 280.719 235.787 280.119 237.002 280.119C238.712 280.119 239.822 281.154 239.822 282.804C239.822 285.009 237.107 285.879 237.392 288.234H236.177ZM236.822 291.759C236.267 291.759 235.832 291.324 235.832 290.709C235.832 290.079 236.267 289.659 236.822 289.659C237.362 289.659 237.812 290.079 237.812 290.709C237.812 291.324 237.362 291.759 236.822 291.759ZM241.341 284.334L240.951 283.689C241.806 283.119 242.226 282.549 242.226 281.559L242.016 280.464L242.721 281.319C242.511 281.514 242.331 281.604 242.076 281.604C241.611 281.604 241.191 281.304 241.191 280.764C241.191 280.194 241.551 279.849 242.076 279.849C242.736 279.849 243.126 280.389 243.126 281.349C243.126 282.684 242.511 283.644 241.341 284.334ZM244.296 284.334L243.906 283.689C244.746 283.119 245.166 282.549 245.166 281.559L244.971 280.464L245.676 281.319C245.481 281.514 245.286 281.604 245.031 281.604C244.566 281.604 244.146 281.304 244.146 280.764C244.146 280.194 244.521 279.849 245.031 279.849C245.691 279.849 246.081 280.389 246.081 281.349C246.081 282.684 245.451 283.644 244.296 284.334ZM50.04 301.159H51.24V314.719H50.04V301.159ZM47.76 306.679H50.37V307.699H47.76V306.679ZM46.965 301.459H48.135V314.029H46.965V301.459ZM40.395 302.794H41.64V310.624H40.395V302.794ZM40.395 310.129H41.265C42.66 310.129 44.22 310.039 45.99 309.694L46.125 310.774C44.28 311.134 42.72 311.209 41.265 311.209H40.395V310.129ZM62.4138 301.144H63.6738V314.719H62.4138V301.144ZM63.3288 306.649H65.8338V307.684H63.3288V306.649ZM58.9488 302.614H60.1638C60.1638 306.469 58.3938 309.949 54.0138 312.154L53.3238 311.194C57.0738 309.289 58.9488 306.394 58.9488 302.809V302.614ZM53.9538 302.614H59.5938V303.634H53.9538V302.614ZM79.6721 301.159H80.9321V308.179H79.6721V301.159ZM72.0821 308.839H80.9321V312.109H73.3421V314.149H72.1271V311.179H79.6871V309.829H72.0821V308.839ZM72.1271 313.579H81.4271V314.569H72.1271V313.579ZM70.4021 302.074H77.6771V303.064H70.4021V302.074ZM70.1621 307.729L70.0271 306.694C72.4421 306.694 75.6821 306.634 78.3221 306.304L78.3971 307.219C75.6971 307.624 72.5471 307.714 70.1621 307.729ZM71.7371 302.524H72.9371V307.144H71.7371V302.524ZM75.1271 302.524H76.3421V307.144H75.1271V302.524ZM86.301 308.134H87.531V312.199H86.301V308.134ZM91.311 308.134H92.556V312.199H91.311V308.134ZM83.301 311.959H95.586V312.994H83.301V311.959ZM89.421 302.014C92.286 302.014 94.341 303.379 94.341 305.509C94.341 307.624 92.286 308.989 89.421 308.989C86.541 308.989 84.486 307.624 84.486 305.509C84.486 303.379 86.541 302.014 89.421 302.014ZM89.421 303.004C87.246 303.004 85.686 303.994 85.686 305.509C85.686 307.009 87.246 307.999 89.421 307.999C91.596 307.999 93.141 307.009 93.141 305.509C93.141 303.994 91.596 303.004 89.421 303.004ZM106.07 301.174H107.315V311.344H106.07V301.174ZM106.925 305.614H109.325V306.664H106.925V305.614ZM96.8298 302.809H104.84V303.814H96.8298V302.809ZM100.835 304.564C102.755 304.564 104.075 305.569 104.075 307.099C104.075 308.614 102.755 309.619 100.835 309.619C98.8998 309.619 97.5798 308.614 97.5798 307.099C97.5798 305.569 98.8998 304.564 100.835 304.564ZM100.835 305.539C99.6048 305.539 98.7648 306.154 98.7648 307.099C98.7648 308.029 99.6048 308.644 100.835 308.644C102.05 308.644 102.89 308.029 102.89 307.099C102.89 306.154 102.05 305.539 100.835 305.539ZM100.205 301.159H101.45V303.334H100.205V301.159ZM98.8698 313.399H107.93V314.419H98.8698V313.399ZM98.8698 310.534H100.115V313.834H98.8698V310.534ZM123.658 301.159H124.858V314.719H123.658V301.159ZM118.723 306.019H121.318V307.054H118.723V306.019ZM120.943 301.474H122.113V314.029H120.943V301.474ZM116.113 303.259H117.073V304.984C117.073 307.954 115.933 310.759 113.938 312.019L113.173 311.089C115.063 309.949 116.113 307.474 116.113 304.984V303.259ZM116.368 303.259H117.328V304.984C117.328 307.339 118.348 309.694 120.208 310.774L119.443 311.689C117.463 310.489 116.368 307.819 116.368 304.984V303.259ZM113.548 302.734H119.743V303.769H113.548V302.734ZM132.357 308.359H133.587V310.699H132.357V308.359ZM126.837 307.699H139.092V308.719H126.837V307.699ZM127.977 301.579H137.937V302.599H127.977V301.579ZM128.037 305.434H137.877V306.454H128.037V305.434ZM130.032 302.029H131.277V306.094H130.032V302.029ZM134.652 302.029H135.882V306.094H134.652V302.029ZM128.337 310.294H137.592V314.539H128.337V310.294ZM136.377 311.284H129.567V313.534H136.377V311.284ZM146.471 301.384C149.456 301.384 151.241 302.224 151.241 303.739C151.241 305.254 149.456 306.094 146.471 306.094C143.471 306.094 141.701 305.254 141.701 303.739C141.701 302.224 143.471 301.384 146.471 301.384ZM146.471 302.329C144.251 302.329 142.976 302.839 142.976 303.739C142.976 304.639 144.251 305.149 146.471 305.149C148.676 305.149 149.951 304.639 149.951 303.739C149.951 302.839 148.676 302.329 146.471 302.329ZM140.336 306.994H152.591V307.999H140.336V306.994ZM141.821 309.154H151.031V312.214H143.081V313.864H141.851V311.314H149.801V310.114H141.821V309.154ZM141.851 313.594H151.436V314.569H141.851V313.594ZM166.459 301.159H167.689V314.719H166.459V301.159ZM166.984 306.454H169.489V307.489H166.984V306.454ZM157.144 302.419H158.209V305.899H159.859V302.419H160.894V311.434H157.144V302.419ZM158.209 306.889V310.414H159.859V306.889H158.209ZM161.614 302.419H162.664V305.899H164.269V302.419H165.319V311.434H161.614V302.419ZM162.664 306.889V310.414H164.269V306.889H162.664ZM170.403 311.974H182.688V313.024H170.403V311.974ZM171.888 302.194H181.173V306.304H173.163V309.019H171.933V305.314H179.943V303.214H171.888V302.194ZM171.933 308.494H181.488V309.514H171.933V308.494ZM194.222 301.159H195.422V314.719H194.222V301.159ZM188.342 306.694H191.762V307.699H188.342V306.694ZM191.402 301.504H192.572V314.029H191.402V301.504ZM188.507 302.869H189.707C189.707 306.424 188.282 309.619 184.622 311.794L183.887 310.909C187.082 308.989 188.507 306.289 188.507 303.094V302.869ZM184.487 302.869H188.972V303.889H184.487V302.869ZM210.76 301.159H211.96V314.719H210.76V301.159ZM208.555 306.649H211.15V307.669H208.555V306.649ZM205.225 302.779H206.425C206.425 306.319 205.36 309.649 201.25 311.944L200.545 311.029C204.175 309.049 205.225 306.199 205.225 302.989V302.779ZM201.205 302.779H205.69V303.814H201.205V302.779ZM207.76 301.489H208.945V314.059H207.76V301.489ZM205.075 305.869V306.799L200.71 307.249L200.53 306.169L205.075 305.869ZM223.809 301.159H225.054V314.719H223.809V301.159ZM217.704 304.384H218.709V305.539C218.709 308.434 217.074 311.059 214.899 312.109L214.194 311.149C216.204 310.219 217.704 307.909 217.704 305.539V304.384ZM217.944 304.384H218.934V305.539C218.934 307.804 220.479 310.009 222.504 310.894L221.799 311.869C219.609 310.879 217.944 308.344 217.944 305.539V304.384ZM214.569 303.514H222.039V304.519H214.569V303.514ZM217.704 301.399H218.949V304.069H217.704V301.399ZM227.423 303.469H234.143V304.489H227.423V303.469ZM230.783 305.389C232.478 305.389 233.708 306.664 233.708 308.494C233.708 310.309 232.478 311.584 230.783 311.584C229.103 311.584 227.873 310.309 227.873 308.494C227.873 306.664 229.103 305.389 230.783 305.389ZM230.783 306.454C229.748 306.454 228.998 307.294 228.998 308.494C228.998 309.694 229.748 310.534 230.783 310.534C231.833 310.534 232.598 309.694 232.598 308.494C232.598 307.294 231.833 306.454 230.783 306.454ZM237.728 301.159H238.928V314.719H237.728V301.159ZM235.568 306.859H238.133V307.894H235.568V306.859ZM234.833 301.459H236.003V314.059H234.833V301.459ZM230.183 301.549H231.413V304.099H230.183V301.549ZM45.255 331.784H46.485V336.734H45.255V331.784ZM39.75 331.349H52.005V332.384H39.75V331.349ZM45.24 325.484H46.335V325.829C46.335 328.169 43.8 329.894 40.95 330.329L40.515 329.339C42.96 329.009 45.24 327.524 45.24 325.829V325.484ZM45.405 325.484H46.485V325.829C46.485 327.509 48.78 329.009 51.21 329.339L50.76 330.329C47.925 329.909 45.405 328.139 45.405 325.829V325.484ZM40.935 324.824H50.82V325.844H40.935V324.824ZM45.255 323.159H46.485V325.184H45.255V323.159ZM56.6238 325.709H57.6438V326.384C57.6438 328.829 56.1588 330.839 53.8938 331.634L53.2788 330.659C55.2888 329.969 56.6238 328.289 56.6238 326.384V325.709ZM56.8338 325.709H57.8688V326.384C57.8688 328.184 59.2488 329.774 61.2588 330.404L60.6438 331.394C58.3788 330.644 56.8338 328.724 56.8338 326.384V325.709ZM53.6238 324.974H60.8538V325.979H53.6238V324.974ZM56.6238 323.249H57.8688V325.349H56.6238V323.249ZM60.4038 327.329H63.8238V328.364H60.4038V327.329ZM63.1488 323.174H64.3938V333.284H63.1488V323.174ZM55.7388 335.399H64.7688V336.419H55.7388V335.399ZM55.7388 332.384H56.9838V335.954H55.7388V332.384ZM76.0177 323.174H77.2627V333.344H76.0177V323.174ZM76.8727 327.614H79.2727V328.664H76.8727V327.614ZM66.7777 324.809H74.7877V325.814H66.7777V324.809ZM70.7827 326.564C72.7027 326.564 74.0227 327.569 74.0227 329.099C74.0227 330.614 72.7027 331.619 70.7827 331.619C68.8477 331.619 67.5277 330.614 67.5277 329.099C67.5277 327.569 68.8477 326.564 70.7827 326.564ZM70.7827 327.539C69.5527 327.539 68.7127 328.154 68.7127 329.099C68.7127 330.029 69.5527 330.644 70.7827 330.644C71.9977 330.644 72.8377 330.029 72.8377 329.099C72.8377 328.154 71.9977 327.539 70.7827 327.539ZM70.1527 323.159H71.3977V325.334H70.1527V323.159ZM68.8177 335.399H77.8777V336.419H68.8177V335.399ZM68.8177 332.534H70.0627V335.834H68.8177V332.534ZM89.4115 323.144H90.6715V336.734H89.4115V323.144ZM90.3715 328.499H92.8915V329.549H90.3715V328.499ZM80.8165 332.309H81.8815C84.3865 332.309 86.1415 332.219 88.1665 331.844L88.3015 332.894C86.2165 333.284 84.4315 333.359 81.8815 333.359H80.8165V332.309ZM80.8165 324.464H87.1165V325.484H82.0465V332.774H80.8165V324.464ZM95.0653 335.759C94.5253 335.759 94.0903 335.324 94.0903 334.709C94.0903 334.079 94.5253 333.659 95.0653 333.659C95.6203 333.659 96.0703 334.079 96.0703 334.709C96.0703 335.324 95.6203 335.759 95.0653 335.759ZM103.51 338.504C102.115 336.254 101.29 333.854 101.29 330.899C101.29 327.959 102.115 325.529 103.51 323.279L104.35 323.684C103.06 325.814 102.43 328.349 102.43 330.899C102.43 333.449 103.06 335.984 104.35 338.114L103.51 338.504ZM105.353 335.549V334.754C108.803 331.739 110.378 329.534 110.378 327.659C110.378 326.399 109.733 325.469 108.368 325.469C107.468 325.469 106.688 326.024 106.073 326.744L105.278 325.979C106.178 325.004 107.138 324.359 108.533 324.359C110.498 324.359 111.728 325.634 111.728 327.599C111.728 329.804 110.003 332.039 107.408 334.484C107.993 334.424 108.653 334.379 109.208 334.379H112.253V335.549H105.353ZM120.693 326.549H123.708V327.584H120.693V326.549ZM123.363 323.159H124.608V331.094H123.363V323.159ZM115.818 331.754H124.608V336.539H115.818V331.754ZM123.393 332.744H117.033V335.534H123.393V332.744ZM116.913 324.449H117.933V325.544C117.933 328.019 116.403 330.134 114.138 330.974L113.493 329.984C115.518 329.264 116.913 327.464 116.913 325.544V324.449ZM117.153 324.449H118.158V325.529C118.158 327.284 119.478 328.979 121.443 329.669L120.813 330.659C118.608 329.864 117.153 327.809 117.153 325.529V324.449ZM113.883 324.029H121.128V325.034H113.883V324.029ZM127.697 338.504L126.842 338.114C128.132 335.984 128.762 333.449 128.762 330.899C128.762 328.349 128.132 325.814 126.842 323.684L127.697 323.279C129.077 325.529 129.902 327.959 129.902 330.899C129.902 333.854 129.077 336.254 127.697 338.504Z" fill="black"/>
<circle cx="33.5131" cy="360.062" r="1.47013" fill="black"/>
<path d="M50.04 355.159H51.24V368.719H50.04V355.159ZM47.76 360.679H50.37V361.699H47.76V360.679ZM46.965 355.459H48.135V368.029H46.965V355.459ZM40.395 356.794H41.64V364.624H40.395V356.794ZM40.395 364.129H41.265C42.66 364.129 44.22 364.039 45.99 363.694L46.125 364.774C44.28 365.134 42.72 365.209 41.265 365.209H40.395V364.129ZM62.4138 355.144H63.6738V368.719H62.4138V355.144ZM63.3288 360.649H65.8338V361.684H63.3288V360.649ZM58.9488 356.614H60.1638C60.1638 360.469 58.3938 363.949 54.0138 366.154L53.3238 365.194C57.0738 363.289 58.9488 360.394 58.9488 356.809V356.614ZM53.9538 356.614H59.5938V357.634H53.9538V356.614ZM70.4171 356.329H76.6121V362.644H70.4171V356.329ZM75.3821 357.334H71.6321V361.639H75.3821V357.334ZM79.7021 355.174H80.9471V365.074H79.7021V355.174ZM76.2521 358.924H80.0621V359.944H76.2521V358.924ZM72.2921 367.399H81.3221V368.419H72.2921V367.399ZM72.2921 364.159H73.5371V367.849H72.2921V364.159ZM93.216 355.144H94.446V368.734H93.216V355.144ZM90.291 360.094H93.576V361.114H90.291V360.094ZM86.736 357.094H87.741V359.119C87.741 362.044 86.061 364.939 83.916 366.049L83.181 365.059C85.131 364.099 86.736 361.534 86.736 359.119V357.094ZM86.991 357.094H87.981V359.119C87.981 361.384 89.556 363.859 91.521 364.789L90.786 365.764C88.641 364.699 86.991 361.909 86.991 359.119V357.094ZM83.676 356.539H91.056V357.574H83.676V356.539ZM103.454 356.554H104.489V357.634C104.489 360.124 102.959 362.209 100.679 363.019L100.034 362.044C102.074 361.324 103.454 359.554 103.454 357.634V356.554ZM103.694 356.554H104.729V357.634C104.729 359.464 106.139 361.114 108.149 361.789L107.504 362.764C105.254 361.999 103.694 360.004 103.694 357.634V356.554ZM109.709 355.159H110.969V363.364H109.709V355.159ZM101.909 364.084H110.969V368.719H109.709V365.104H101.909V364.084ZM100.364 356.104H107.789V357.109H100.364V356.104ZM117.193 361.984H118.438V364.999H117.193V361.984ZM123.208 355.159H124.453V365.479H123.208V355.159ZM115.198 367.399H124.783V368.419H115.198V367.399ZM115.198 364.474H116.443V367.684H115.198V364.474ZM113.443 362.449L113.278 361.429C115.783 361.429 119.143 361.399 122.023 361.024L122.113 361.939C119.188 362.404 115.903 362.449 113.443 362.449ZM120.448 363.169H123.523V364.084H120.448V363.169ZM117.688 355.714C119.668 355.714 121.018 356.644 121.018 358.069C121.018 359.509 119.668 360.439 117.688 360.439C115.693 360.439 114.343 359.509 114.343 358.069C114.343 356.644 115.693 355.714 117.688 355.714ZM117.688 356.644C116.413 356.644 115.528 357.199 115.528 358.069C115.528 358.939 116.413 359.494 117.688 359.494C118.948 359.494 119.833 358.939 119.833 358.069C119.833 357.199 118.948 356.644 117.688 356.644ZM132.342 360.424H134.907V361.459H132.342V360.424ZM137.172 355.159H138.372V368.719H137.172V355.159ZM134.487 355.444H135.672V368.044H134.487V355.444ZM129.897 356.284C131.652 356.284 132.792 358.099 132.792 361.009C132.792 363.919 131.652 365.734 129.897 365.734C128.142 365.734 127.017 363.919 127.017 361.009C127.017 358.099 128.142 356.284 129.897 356.284ZM129.897 357.439C128.832 357.439 128.157 358.819 128.157 361.009C128.157 363.199 128.832 364.579 129.897 364.579C130.977 364.579 131.652 363.199 131.652 361.009C131.652 358.819 130.977 357.439 129.897 357.439ZM150.671 355.159H151.871V368.719H150.671V355.159ZM144.791 360.694H148.211V361.699H144.791V360.694ZM147.851 355.504H149.021V368.029H147.851V355.504ZM144.956 356.869H146.156C146.156 360.424 144.731 363.619 141.071 365.794L140.336 364.909C143.531 362.989 144.956 360.289 144.956 357.094V356.869ZM140.936 356.869H145.421V357.889H140.936V356.869ZM166.174 355.159H167.419V362.059H166.174V355.159ZM166.879 358.069H169.414V359.104H166.879V358.069ZM157.459 355.924H163.684V361.354H157.459V355.924ZM162.469 356.914H158.674V360.364H162.469V356.914ZM158.809 362.704H167.419V366.034H160.069V368.059H158.839V365.089H166.204V363.694H158.809V362.704ZM158.839 367.534H167.914V368.539H158.839V367.534ZM176.523 355.384C179.508 355.384 181.293 356.224 181.293 357.739C181.293 359.254 179.508 360.094 176.523 360.094C173.523 360.094 171.753 359.254 171.753 357.739C171.753 356.224 173.523 355.384 176.523 355.384ZM176.523 356.329C174.303 356.329 173.028 356.839 173.028 357.739C173.028 358.639 174.303 359.149 176.523 359.149C178.728 359.149 180.003 358.639 180.003 357.739C180.003 356.839 178.728 356.329 176.523 356.329ZM170.388 360.994H182.643V361.999H170.388V360.994ZM171.873 363.154H181.083V366.214H173.133V367.864H171.903V365.314H179.853V364.114H171.873V363.154ZM171.903 367.594H181.488V368.569H171.903V367.594ZM196.856 355.159H198.101V365.179H196.856V355.159ZM193.931 359.344H197.096V360.379H193.931V359.344ZM192.671 356.209H193.976C193.976 359.704 191.516 362.359 187.691 363.634L187.151 362.629C190.466 361.519 192.671 359.389 192.671 356.704V356.209ZM187.826 356.209H193.481V357.229H187.826V356.209ZM189.536 367.399H198.446V368.419H189.536V367.399ZM189.536 364.174H190.781V367.909H189.536V364.174ZM209.62 355.144H210.88V368.734H209.62V355.144ZM210.58 360.499H213.1V361.549H210.58V360.499ZM201.025 364.309H202.09C204.595 364.309 206.35 364.219 208.375 363.844L208.51 364.894C206.425 365.284 204.64 365.359 202.09 365.359H201.025V364.309ZM201.025 356.464H207.325V357.484H202.255V364.774H201.025V356.464ZM215.274 367.759C214.734 367.759 214.299 367.324 214.299 366.709C214.299 366.079 214.734 365.659 215.274 365.659C215.829 365.659 216.279 366.079 216.279 366.709C216.279 367.324 215.829 367.759 215.274 367.759ZM223.718 370.504C222.323 368.254 221.498 365.854 221.498 362.899C221.498 359.959 222.323 357.529 223.718 355.279L224.558 355.684C223.268 357.814 222.638 360.349 222.638 362.899C222.638 365.449 223.268 367.984 224.558 370.114L223.718 370.504ZM228.847 367.759C227.122 367.759 226.057 367.039 225.337 366.244L226.027 365.344C226.672 366.019 227.497 366.619 228.757 366.619C230.062 366.619 230.992 365.824 230.992 364.564C230.992 363.244 230.107 362.374 227.572 362.374V361.309C229.837 361.309 230.602 360.409 230.602 359.209C230.602 358.159 229.897 357.469 228.757 357.469C227.872 357.469 227.092 357.919 226.477 358.549L225.742 357.664C226.567 356.914 227.542 356.359 228.802 356.359C230.647 356.359 231.997 357.364 231.997 359.119C231.997 360.454 231.217 361.339 230.047 361.759V361.819C231.337 362.134 232.387 363.109 232.387 364.624C232.387 366.574 230.812 367.759 228.847 367.759ZM240.902 358.549H243.917V359.584H240.902V358.549ZM243.572 355.159H244.817V363.094H243.572V355.159ZM236.027 363.754H244.817V368.539H236.027V363.754ZM243.602 364.744H237.242V367.534H243.602V364.744ZM237.122 356.449H238.142V357.544C238.142 360.019 236.612 362.134 234.347 362.974L233.702 361.984C235.727 361.264 237.122 359.464 237.122 357.544V356.449ZM237.362 356.449H238.367V357.529C238.367 359.284 239.687 360.979 241.652 361.669L241.022 362.659C238.817 361.864 237.362 359.809 237.362 357.529V356.449ZM234.092 356.029H241.337V357.034H234.092V356.029ZM247.906 370.504L247.051 370.114C248.341 367.984 248.971 365.449 248.971 362.899C248.971 360.349 248.341 357.814 247.051 355.684L247.906 355.279C249.286 357.529 250.111 359.959 250.111 362.899C250.111 365.854 249.286 368.254 247.906 370.504Z" fill="black"/>
<rect x="28.75" y="396.75" width="224.5" height="58.5" rx="29.25" fill="white"/>
<rect x="28.75" y="396.75" width="224.5" height="58.5" rx="29.25" stroke="black" stroke-width="1.5"/>
<path d="M95.8706 422V420.334H98.1106V413.782H96.2206V412.508C97.2706 412.312 97.9706 412.046 98.6426 411.64H100.169V420.334H102.115V422H95.8706ZM109.406 413.726H112.738V415.21H109.406V413.726ZM112.262 410.296H114.124V419.858H112.262V410.296ZM105.542 421.538H114.404V423.022H105.542V421.538ZM105.542 418.92H107.418V422.392H105.542V418.92ZM103.82 411.136H105.668V413.11H108.132V411.136H109.952V417.828H103.82V411.136ZM105.668 414.524V416.358H108.132V414.524H105.668ZM127.669 410.282H129.545V416.918H127.669V410.282ZM120.893 417.436H129.545V420.922H122.741V422.28H120.921V419.62H127.697V418.85H120.893V417.436ZM120.921 421.734H129.867V423.162H120.921V421.734ZM121.915 411.514H123.427V412.018C123.427 414.314 122.209 416.358 119.675 417.072L118.821 415.616C120.977 415.014 121.915 413.502 121.915 412.018V411.514ZM122.321 411.514H123.819V412.018C123.819 413.39 124.743 414.804 126.857 415.378L126.003 416.806C123.511 416.134 122.321 414.188 122.321 412.018V411.514ZM119.311 410.87H126.367V412.34H119.311V410.87ZM131.364 416.68H143.096V418.164H131.364V416.68ZM136.446 417.618H138.322V420.348H136.446V417.618ZM132.806 410.828H141.612V415.644H132.806V410.828ZM139.778 412.284H134.626V414.188H139.778V412.284ZM132.722 421.538H141.808V423.022H132.722V421.538ZM132.722 419.256H134.57V422.028H132.722V419.256ZM155.843 410.282H157.705V416.792H155.843V410.282ZM151.517 410.772H153.547C153.547 414.216 151.559 416.232 147.625 417.086L147.009 415.588C150.257 414.944 151.517 413.516 151.517 411.78V410.772ZM147.751 410.772H152.301V412.256H147.751V410.772ZM153.043 411.892H156.081V413.306H153.043V411.892ZM152.959 414.412H156.011V415.812H152.959V414.412ZM149.137 417.268H157.705V420.838H151.027V422.448H149.165V419.466H155.843V418.724H149.137V417.268ZM149.165 421.664H157.971V423.12H149.165V421.664ZM160 411.57H165.586V413.04H160V411.57ZM161.666 415.28H163.5V419.676H161.666V415.28ZM164.844 411.57H166.678V412.62C166.678 413.88 166.678 415.448 166.328 417.604L164.508 417.436C164.844 415.364 164.844 413.866 164.844 412.62V411.57ZM167.784 410.282H169.646V423.246H167.784V410.282ZM169.1 415.49H171.382V417.03H169.1V415.49ZM159.51 420.628L159.342 419.13C161.624 419.13 164.648 419.088 167.196 418.766L167.294 420.124C164.676 420.572 161.764 420.628 159.51 420.628ZM172.067 420.306H183.799V421.818H172.067V420.306ZM176.981 417.856H178.843V420.922H176.981V417.856ZM173.383 411.122H182.483V415.434H175.259V417.618H173.411V413.978H180.635V412.592H173.383V411.122ZM173.411 416.876H182.777V418.374H173.411V416.876ZM81.6253 435.182H83.9073V436.708H81.6253V435.182ZM80.2393 430.268H82.1153V443.232H80.2393V430.268ZM72.3433 431.514H74.2053V439.564H72.3433V431.514ZM72.3433 438.528H73.4633C75.3113 438.528 77.3133 438.402 79.3993 437.982L79.5953 439.508C77.4533 439.956 75.3673 440.068 73.4633 440.068H72.3433V438.528ZM84.5502 436.946H96.2682V438.43H84.5502V436.946ZM89.4642 435.126H91.3262V437.618H89.4642V435.126ZM85.9642 441.538H94.9522V443.022H85.9642V441.538ZM85.9642 439.256H87.8262V442.042H85.9642V439.256ZM90.4162 430.604C93.2302 430.604 95.1062 431.64 95.1062 433.278C95.1062 434.944 93.2302 435.952 90.4162 435.952C87.5882 435.952 85.7262 434.944 85.7262 433.278C85.7262 431.64 87.5882 430.604 90.4162 430.604ZM90.4162 432.088C88.6662 432.088 87.6442 432.494 87.6442 433.278C87.6442 434.076 88.6662 434.468 90.4162 434.468C92.1662 434.468 93.1882 434.076 93.1882 433.278C93.1882 432.494 92.1662 432.088 90.4162 432.088ZM107.055 433.264H109.519V434.776H107.055V433.264ZM109.029 430.282H110.891V437.772H109.029V430.282ZM102.253 438.304H110.891V443.106H102.253V438.304ZM109.071 439.76H104.087V441.636H109.071V439.76ZM103.037 431.486H104.549V432.298C104.549 434.748 103.401 436.988 100.909 437.8L99.971 436.33C102.113 435.63 103.037 433.936 103.037 432.298V431.486ZM103.429 431.486H104.927V432.298C104.927 433.81 105.809 435.406 107.853 436.092L106.943 437.562C104.535 436.764 103.429 434.608 103.429 432.298V431.486ZM100.475 430.94H107.447V432.41H100.475V430.94ZM117.526 430.66H119.164V431.262C119.164 433.754 117.204 435.868 113.802 436.372L113.074 434.874C116.056 434.482 117.526 432.788 117.526 431.262V430.66ZM117.876 430.66H119.5V431.262C119.5 432.774 120.984 434.482 123.952 434.874L123.238 436.372C119.836 435.868 117.876 433.754 117.876 431.262V430.66ZM117.54 438.5H119.388V443.246H117.54V438.5ZM112.654 437.324H124.372V438.836H112.654V437.324ZM125.239 436.092H136.985V437.45H125.239V436.092ZM126.555 438.094H135.585V441.174H128.431V442.28H126.583V439.998H133.751V439.354H126.555V438.094ZM126.583 441.888H135.949V443.148H126.583V441.888ZM126.681 430.506H135.557V433.558H128.543V434.622H126.695V432.396H133.723V431.752H126.681V430.506ZM126.695 434.23H135.795V435.49H126.695V434.23ZM141.346 438.626H142.396C144.692 438.626 146.19 438.57 147.87 438.262L148.052 439.76C146.316 440.082 144.762 440.152 142.396 440.152H141.346V438.626ZM141.346 431.43H147.212V432.914H143.208V439.2H141.346V431.43ZM149.76 430.282H151.622V443.288H149.76V430.282ZM146.582 434.748H150.544V436.26H146.582V434.748ZM153.314 432.228H159.516V433.712H153.314V432.228ZM156.436 434.286C158.088 434.286 159.278 435.56 159.278 437.38C159.278 439.186 158.088 440.46 156.436 440.46C154.798 440.46 153.594 439.186 153.594 437.38C153.594 435.56 154.798 434.286 156.436 434.286ZM156.436 435.84C155.736 435.84 155.246 436.4 155.246 437.38C155.246 438.36 155.736 438.906 156.436 438.906C157.136 438.906 157.64 438.36 157.64 437.38C157.64 436.4 157.136 435.84 156.436 435.84ZM162.694 430.282H164.472V443.246H162.694V430.282ZM161.14 435.546H163.282V437.044H161.14V435.546ZM159.978 430.52H161.714V442.7H159.978V430.52ZM155.526 430.632H157.36V433.166H155.526V430.632ZM173.621 431.724H175.231V432.102C175.231 434.384 173.369 436.246 170.079 436.694L169.393 435.238C172.249 434.888 173.621 433.432 173.621 432.102V431.724ZM174.153 431.724H175.763V432.102C175.763 433.432 177.135 434.888 179.991 435.238L179.319 436.694C176.015 436.246 174.153 434.384 174.153 432.102V431.724ZM173.719 438.5H175.567V443.26H173.719V438.5ZM168.833 437.436H180.551V438.92H168.833V437.436ZM169.869 430.94H179.487V432.41H169.869V430.94ZM186.528 434.636H188.67V436.148H186.528V434.636ZM183.756 431.402H185.184V433.586C185.184 436.526 184.372 439.396 182.3 440.67L181.18 439.27C183.084 438.094 183.756 435.784 183.756 433.586V431.402ZM184.162 431.402H185.562V433.502C185.562 435.616 186.108 437.772 187.872 438.92L186.864 440.376C184.806 439.102 184.162 436.302 184.162 433.502V431.402ZM190.784 430.282H192.562V443.246H190.784V430.282ZM188.152 430.478H189.888V442.658H188.152V430.478ZM196.607 436.862H198.455V440.502H196.607V436.862ZM201.311 436.862H203.173V440.502H201.311V436.862ZM194.031 440.236H205.763V441.748H194.031V440.236ZM199.883 430.912C202.669 430.912 204.727 432.284 204.727 434.398C204.727 436.512 202.669 437.87 199.883 437.87C197.083 437.87 195.039 436.512 195.039 434.398C195.039 432.284 197.083 430.912 199.883 430.912ZM199.883 432.368C198.077 432.368 196.873 433.11 196.873 434.398C196.873 435.672 198.077 436.428 199.883 436.428C201.689 436.428 202.893 435.672 202.893 434.398C202.893 433.11 201.689 432.368 199.883 432.368ZM208.324 442.196C207.582 442.196 207.05 441.622 207.05 440.852C207.05 440.082 207.582 439.522 208.324 439.522C209.052 439.522 209.612 440.082 209.612 440.852C209.612 441.622 209.052 442.196 208.324 442.196Z" fill="black"/>
<g clip-path="url(#clip0_1072_17182)">
<path d="M222.227 60.3895C222.227 63.6258 219.604 66.249 216.367 66.249H214.237C211 66.249 208.377 63.6258 208.377 60.3895C208.377 57.1532 211 54.5299 214.237 54.5299H216.367C219.604 54.5299 222.227 57.1532 222.227 60.3895Z" fill="#4E4347" stroke="black" stroke-width="0.713779" stroke-miterlimit="10"/>
<path d="M249.395 48.6705C249.395 52.2006 246.533 55.0627 243.003 55.0627C239.472 55.0627 236.61 52.2006 236.61 48.6705C236.61 45.1403 239.472 42.2782 243.003 42.2782C246.533 42.2782 249.395 45.1403 249.395 48.6705Z" fill="#F9CBCC" stroke="black" stroke-width="0.713779" stroke-miterlimit="10"/>
<path d="M219.563 48.6705C219.563 52.2006 216.701 55.0627 213.171 55.0627C209.64 55.0627 206.778 52.2006 206.778 48.6705C206.778 45.1403 209.64 42.2782 213.171 42.2782C216.701 42.2782 219.563 45.1403 219.563 48.6705Z" fill="#F9CBCC" stroke="black" stroke-width="0.713779" stroke-miterlimit="10"/>
<path d="M211.573 57.726C212.455 57.726 213.171 57.0106 213.171 56.128C213.171 55.2454 212.455 54.5299 211.573 54.5299C210.69 54.5299 209.975 55.2454 209.975 56.128C209.975 57.0106 210.69 57.726 211.573 57.726Z" fill="#ECECEC"/>
<path d="M244.6 57.726C245.483 57.726 246.198 57.0106 246.198 56.128C246.198 55.2454 245.483 54.5299 244.6 54.5299C243.717 54.5299 243.002 55.2454 243.002 56.128C243.002 57.0106 243.717 57.726 244.6 57.726Z" fill="#ECECEC" stroke="black" stroke-width="0.713779" stroke-miterlimit="10"/>
<path d="M241.936 74.7718H214.236V99.8081H241.936V74.7718Z" fill="#ECECEC" stroke="black" stroke-width="0.713779" stroke-miterlimit="10"/>
<path fill-rule="evenodd" clip-rule="evenodd" d="M217.966 70.5103L209.1 72.7577C203.193 74.2562 199.056 79.5726 199.056 85.6671V99.7955H223.293L217.966 70.5109V70.5103Z" fill="#AFC89B" stroke="black" stroke-width="0.713779" stroke-miterlimit="10"/>
<path fill-rule="evenodd" clip-rule="evenodd" d="M217.966 70.5103L209.1 72.7577C203.193 74.2562 199.056 79.5726 199.056 85.6671V99.7955H223.293L217.966 70.5109V70.5103Z" fill="#233044" stroke="black" stroke-width="0.713779" stroke-miterlimit="10"/>
<path d="M210.774 78.9164L217.966 69.328L223.293 99.6912L211.573 85.8413L215.835 82.1125L210.774 78.9164Z" fill="#364B6C" stroke="black" stroke-width="0.713779" stroke-miterlimit="10"/>
<path d="M223.292 65.7164H232.88V74.5674C232.88 75.05 232.749 75.5238 232.501 75.9376L228.086 83.2951L223.672 75.9376C223.424 75.5233 223.292 75.05 223.292 74.5674V65.7164Z" fill="#F1C7C8" stroke="black" stroke-width="0.713779" stroke-miterlimit="10"/>
<path d="M245.133 45.4741C245.133 57.2422 237.907 66.7816 228.087 66.7816C218.267 66.7816 211.041 57.2422 211.041 45.4741C211.041 33.706 217.202 24.1666 228.087 24.1666C238.972 24.1666 245.133 33.7066 245.133 45.4741Z" fill="#FBD4D5" stroke="black" stroke-width="0.713779" stroke-miterlimit="10"/>
<path d="M221.961 46.5397C222.696 46.5397 223.292 47.1357 223.292 47.8715V48.9368C223.292 49.6726 222.696 50.2685 221.961 50.2685C221.225 50.2685 220.629 49.6726 220.629 48.9368V47.8715C220.629 47.1357 221.225 46.5397 221.961 46.5397Z" fill="#46383D"/>
<path d="M234.213 46.5397C234.948 46.5397 235.544 47.1357 235.544 47.8715V48.9368C235.544 49.6726 234.948 50.2685 234.213 50.2685C233.477 50.2685 232.881 49.6726 232.881 48.9368V47.8715C232.881 47.1357 233.477 46.5397 234.213 46.5397Z" fill="#46383D"/>
<path fill-rule="evenodd" clip-rule="evenodd" d="M227.177 53.088C227.386 52.8799 227.723 52.8799 227.931 53.088L228.496 53.6531C228.704 53.8611 228.704 54.1985 228.496 54.4065C228.288 54.6145 227.951 54.6145 227.743 54.4065L227.177 53.8413C226.969 53.6333 226.969 53.296 227.177 53.088Z" fill="#E3A9AA"/>
<path fill-rule="evenodd" clip-rule="evenodd" d="M231.476 57.1674C231.684 57.3754 231.684 57.7127 231.476 57.9207C231.031 58.3659 230.502 58.7192 229.92 58.9602C229.338 59.2013 228.715 59.3251 228.085 59.3251C227.456 59.3251 226.832 59.2013 226.251 58.9602C225.669 58.7192 225.141 58.3665 224.695 57.9207C224.487 57.7127 224.487 57.3754 224.695 57.1674C224.903 56.9593 225.24 56.9593 225.448 57.1674C225.795 57.5135 226.206 57.7881 226.658 57.9757C227.11 58.1628 227.595 58.2592 228.085 58.2592C228.575 58.2592 229.059 58.1628 229.512 57.9757C229.964 57.7881 230.375 57.5135 230.721 57.1674C230.929 56.9593 231.267 56.9593 231.475 57.1674H231.476Z" fill="#E3A9AA"/>
<path fill-rule="evenodd" clip-rule="evenodd" d="M235.205 44.0794C234.55 43.9485 233.875 43.9485 233.22 44.0794L232.933 44.1372C232.789 44.1658 232.648 44.0723 232.62 43.9281C232.59 43.7839 232.684 43.6436 232.828 43.615L233.115 43.5572C233.84 43.4125 234.585 43.4125 235.309 43.5572L235.596 43.615C235.74 43.6436 235.834 43.7839 235.805 43.9281C235.776 44.0723 235.636 44.1658 235.492 44.1372L235.204 44.0794H235.205Z" fill="#4E4347"/>
<path fill-rule="evenodd" clip-rule="evenodd" d="M222.953 44.0794C222.298 43.9485 221.623 43.9485 220.968 44.0794L220.681 44.1372C220.537 44.1658 220.396 44.0723 220.368 43.9281C220.338 43.7839 220.433 43.6436 220.576 43.615L220.863 43.5572C221.588 43.4125 222.333 43.4125 223.057 43.5572L223.344 43.615C223.488 43.6436 223.582 43.7839 223.553 43.9281C223.524 44.0723 223.384 44.1658 223.24 44.1372L222.952 44.0794H222.953Z" fill="#4E4347"/>
<path fill-rule="evenodd" clip-rule="evenodd" d="M245.743 27.9492C238.614 20.2423 229.418 18.5738 225.156 21.2372C221.694 18.8401 212.695 24.2402 208.988 29.8136C205.239 35.4497 205.526 43.9298 207.39 46.0606L207.813 45.7304C209.225 47.0725 211.04 47.0731 211.04 47.0731C211.04 47.0731 216.322 45.5631 219.468 36.6384L222.589 34.2044C228.209 41.9944 245.132 47.0726 245.132 47.0726C245.909 47.2453 247.104 46.8024 248.113 45.7634L248.939 46.3269C250.537 44.1961 251.637 34.3205 245.743 27.9492H245.743Z" fill="#4E4347" stroke="black" stroke-width="0.713779" stroke-miterlimit="10"/>
<path d="M217.166 56.6608C218.784 56.6608 220.096 55.3491 220.096 53.731C220.096 52.1129 218.784 50.8012 217.166 50.8012C215.548 50.8012 214.236 52.1129 214.236 53.731C214.236 55.3491 215.548 56.6608 217.166 56.6608Z" fill="#F5BCBE"/>
<path d="M239.007 56.6608C240.625 56.6608 241.937 55.3491 241.937 53.731C241.937 52.1129 240.625 50.8012 239.007 50.8012C237.389 50.8012 236.077 52.1129 236.077 53.731C236.077 55.3491 237.389 56.6608 239.007 56.6608Z" fill="#F5BCBE"/>
<path fill-rule="evenodd" clip-rule="evenodd" d="M238.208 70.5103L247.074 72.7577C252.981 74.2556 257.118 79.5726 257.118 85.6666V99.7949H232.881L238.208 70.5103Z" fill="#233044" stroke="black" stroke-width="0.713779" stroke-miterlimit="10"/>
<path d="M245.399 79.0339L238.208 69.4456L232.881 99.8088L244.6 85.9589L240.338 82.2301L245.399 79.0339Z" fill="#364B6C" stroke="black" stroke-width="0.713779" stroke-miterlimit="10"/>
<path d="M223.292 67.8472C223.292 67.8472 224.624 68.9125 228.086 68.9125C231.549 68.9125 232.88 67.8472 232.88 67.8472V70.7769C232.88 70.7769 231.298 71.8423 228.086 71.8423C224.874 71.8423 223.292 70.7769 223.292 70.7769V67.8472Z" fill="#3F70AC" stroke="black" stroke-width="0.713779" stroke-miterlimit="10"/>
<path d="M207.845 72.9667C207.845 72.9667 220.629 67.9045 223.293 67.73V70.6103L228.087 83.178C228.087 83.178 220.896 72.7047 207.845 72.9667Z" fill="#F5F5F5" stroke="black" stroke-width="0.713779" stroke-miterlimit="10"/>
<path d="M248.329 73.0838C248.329 73.0838 235.545 68.0222 232.881 67.8472V70.7274L228.087 83.2951C228.087 83.2951 235.278 72.8219 248.329 73.0838Z" fill="#F5F5F5" stroke="black" stroke-width="0.713779" stroke-miterlimit="10"/>
<path d="M232 70.4772C232.382 65.0787 241.041 63.0558 241.041 63.0558C241.041 63.0558 238.315 71.2932 232 70.4772Z" fill="#3F70AC" stroke="black" stroke-width="0.713779" stroke-miterlimit="10"/>
<path d="M232.084 70.2063C236.284 73.7133 243.956 69.2845 243.956 69.2845C243.956 69.2845 235.951 65.3455 232.084 70.2063Z" fill="#3F70AC" stroke="black" stroke-width="0.713779" stroke-miterlimit="10"/>
</g>
<defs>
<clipPath id="clip0_1072_17182">
<rect width="58.173" height="80" fill="white" transform="translate(199 19.9998)"/>
</clipPath>
</defs>
</svg>
