<svg width="283" height="483" viewBox="0 0 283 483" fill="none" xmlns="http://www.w3.org/2000/svg">
<rect width="283" height="483" rx="5.88052" fill="#F4B8FF"/>
<rect x="9.75" y="9.74985" width="263.5" height="463.5" rx="5.13052" stroke="black" stroke-width="1.5"/>
<rect x="76" y="30.9998" width="130" height="30" rx="15" fill="black"/>
<path d="M112.514 44.3518C111.31 44.3518 110.862 44.8278 110.862 46.0738C110.862 47.1518 111.324 47.7258 112.192 47.7258C112.892 47.7258 113.48 47.6138 114.054 47.3618C114.138 47.3198 114.208 47.3058 114.278 47.3058C114.46 47.3058 114.6 47.4178 114.656 47.6278L114.922 48.5798C115.006 48.8738 114.922 49.0278 114.628 49.1538C113.872 49.4758 113.074 49.6158 111.996 49.6158C110.078 49.6158 108.972 48.3698 108.972 46.0458C108.972 43.5258 110.022 42.4478 112.29 42.4478C112.976 42.4478 113.48 42.4898 113.914 42.5598C114.194 42.6018 114.306 42.7418 114.306 43.0498V44.0858C114.306 44.3798 114.138 44.5338 113.844 44.4778C113.354 44.3938 112.906 44.3518 112.514 44.3518ZM116 46.5498C115.902 46.6758 115.734 46.7598 115.538 46.7598H114.88C114.6 46.7598 114.446 46.6058 114.446 46.3258V45.2338C114.446 44.9538 114.6 44.7998 114.88 44.7998H115.566C115.846 44.7998 116 44.6598 116 44.3938V39.4098C116 39.1158 116.14 38.9758 116.434 38.9758H117.456C117.75 38.9758 117.89 39.1158 117.89 39.4098V50.9458C117.89 51.2398 117.75 51.3798 117.456 51.3798H116.434C116.14 51.3798 116 51.2398 116 50.9458V46.5498ZM118.66 39.2698C118.66 38.9758 118.8 38.8358 119.094 38.8358H120.116C120.41 38.8358 120.55 38.9758 120.55 39.2698V50.9458C120.55 51.2398 120.41 51.3798 120.116 51.3798H119.094C118.8 51.3798 118.66 51.2398 118.66 50.9458V39.2698ZM114.236 39.7178C114.53 39.7178 114.698 39.8858 114.698 40.1798V41.1458C114.698 41.4398 114.53 41.6078 114.236 41.6078H109.588C109.294 41.6078 109.126 41.4398 109.126 41.1458V40.1798C109.126 39.8858 109.294 39.7178 109.588 39.7178H114.236ZM127.67 44.3378C127.124 45.5978 125.71 46.5358 123.834 46.5358C123.512 46.5358 123.134 46.5358 123.134 46.1018V45.0518C123.134 44.7858 123.288 44.6458 123.596 44.6458C125.584 44.6458 126.662 43.5258 126.662 41.9718V40.0258C126.662 39.7318 126.83 39.5638 127.124 39.5638H128.23C128.524 39.5638 128.692 39.7318 128.692 40.0258V41.9718C128.692 43.5258 129.756 44.6458 131.73 44.6458C132.038 44.6458 132.192 44.7858 132.192 45.0518V46.1018C132.192 46.5358 131.814 46.5358 131.492 46.5358C129.616 46.5358 128.202 45.5978 127.67 44.3378ZM122.574 48.2858C123.792 48.4398 125.64 48.5238 127.6 48.5238C129.784 48.5238 131.772 48.4258 132.64 48.2858C132.934 48.2298 133.102 48.4118 133.102 48.7058V49.7418C133.102 49.9938 132.962 50.1338 132.64 50.1898C131.772 50.3438 129.784 50.4278 127.6 50.4278C125.64 50.4278 123.792 50.3578 122.574 50.1898C122.252 50.1478 122.112 50.0078 122.112 49.7418V48.7058C122.112 48.4118 122.28 48.2438 122.574 48.2858ZM135.813 39.5778H143.583C143.877 39.5778 144.045 39.7458 144.045 40.0398V40.8658C144.045 41.1598 143.877 41.3278 143.583 41.3278H135.813C135.519 41.3278 135.351 41.1598 135.351 40.8658V40.0398C135.351 39.7458 135.519 39.5778 135.813 39.5778ZM143.639 42.1118C143.947 42.1398 144.073 42.2658 144.073 42.5458V43.4278C144.073 43.7078 143.905 43.8758 143.639 43.8618C142.337 43.7918 141.133 43.7078 139.999 43.7078C137.745 43.7078 137.269 43.8898 137.269 44.4358C137.269 44.9958 137.605 45.1638 139.635 45.1638C140.713 45.1638 142.393 45.0518 143.751 44.9118C144.017 44.8838 144.157 45.0238 144.185 45.3458L144.255 46.2278C144.283 46.4938 144.143 46.6338 143.821 46.6618C141.721 46.8438 140.643 46.9138 139.845 46.9138C136.303 46.9138 135.239 46.2838 135.239 44.4358C135.239 42.6018 136.373 41.9578 140.041 41.9578C141.441 41.9578 142.449 41.9998 143.639 42.1118ZM134.749 48.2858C135.967 48.4398 137.815 48.5238 139.775 48.5238C141.959 48.5238 143.947 48.4258 144.815 48.2858C145.109 48.2298 145.277 48.4118 145.277 48.7058V49.7418C145.277 49.9938 145.137 50.1338 144.815 50.1898C143.947 50.3438 141.959 50.4278 139.775 50.4278C137.815 50.4278 135.967 50.3578 134.749 50.1898C134.427 50.1478 134.287 50.0078 134.287 49.7418V48.7058C134.287 48.4118 134.455 48.2438 134.749 48.2858ZM155.454 49.2798C153.396 49.2798 153.032 49.3638 153.032 49.6578C153.032 49.9658 153.466 50.0218 156.224 50.0218C157.372 50.0218 159.122 49.9378 160.046 49.7698C160.27 49.7278 160.424 49.8398 160.438 50.0638L160.508 50.9738C160.522 51.1698 160.396 51.3098 160.186 51.3378C159.178 51.4778 157.386 51.5898 156.238 51.5898C152.192 51.5898 151.002 51.1138 151.002 49.6298C151.002 48.1598 152.374 47.7118 155.426 47.7118C156.196 47.7118 157.078 47.6978 157.694 47.6978C158.058 47.6978 158.212 47.5998 158.212 47.4038C158.212 47.1938 158.072 47.0958 157.722 47.0958C156.392 47.0958 153.298 47.1938 151.646 47.3338C151.422 47.3478 151.282 47.2218 151.282 46.9978V46.0878C151.282 45.8778 151.394 45.7658 151.646 45.7518C153.76 45.5978 156.658 45.5138 158.828 45.5838C159.724 45.6118 160.228 46.0038 160.228 46.6758C160.228 47.2218 159.92 47.6558 159.416 47.8378H159.752C159.962 47.8378 160.116 47.9638 160.116 48.1598V48.9858C160.116 49.1818 159.976 49.3218 159.752 49.3218C158.73 49.3218 158.016 49.2798 155.454 49.2798ZM155.174 44.8558H154.04C153.718 44.8558 153.592 44.6878 153.69 44.4218C153.998 43.5258 154.194 42.5738 154.194 41.9158C154.194 41.2298 153.97 41.0478 153.256 41.0478C152.094 41.0478 151.296 41.2018 150.372 41.2998C150.106 41.3278 149.938 41.1598 149.938 40.8658V39.8438C149.938 39.5778 150.064 39.4518 150.372 39.4098C151.688 39.2278 152.472 39.1578 153.564 39.1578C155.44 39.1578 156.238 39.8998 156.238 41.6778C156.238 42.6018 155.986 43.8338 155.72 44.5198C155.622 44.7718 155.482 44.8558 155.174 44.8558ZM158.1 39.3538V39.2978C158.1 39.0038 158.268 38.8358 158.562 38.8358H159.668C159.962 38.8358 160.13 39.0038 160.13 39.2978V44.4778C160.13 44.7718 159.962 44.9398 159.668 44.9398H158.562C158.268 44.9398 158.1 44.7718 158.1 44.4778V43.8758C157.974 44.0858 157.736 44.1838 157.358 44.1838H157.022C156.742 44.1838 156.616 44.0578 156.616 43.7778V42.9238C156.616 42.6438 156.742 42.5178 157.022 42.5178H157.624C157.988 42.5178 158.1 42.3498 158.1 42.0278V41.2018C157.96 41.4118 157.708 41.5098 157.358 41.5098H157.022C156.742 41.5098 156.616 41.3838 156.616 41.1038V40.2498C156.616 39.9698 156.742 39.8438 157.022 39.8438H157.624C158.058 39.8438 158.1 39.7038 158.1 39.3538ZM161.693 50.3298C161.371 50.2878 161.231 50.1478 161.231 49.8818V48.8458C161.231 48.5518 161.399 48.3838 161.693 48.4258C162.407 48.5238 162.869 48.6078 163.667 48.6358C163.429 48.5238 163.303 48.2438 163.303 47.9078V45.0798C163.303 44.7858 163.471 44.6178 163.765 44.6178H164.885C165.179 44.6178 165.333 44.7858 165.333 45.0798V48.0198C165.333 48.3978 165.529 48.6078 165.935 48.6078C166.607 48.6078 167.629 48.5518 168.315 48.4258C168.609 48.3698 168.791 48.5518 168.791 48.8458V49.8818C168.791 50.1338 168.651 50.2598 168.329 50.3298C167.741 50.4558 166.313 50.5398 164.969 50.5398C163.429 50.5398 162.631 50.4698 161.693 50.3298ZM168.035 46.2138C167.993 46.4938 167.811 46.5918 167.531 46.5498L166.439 46.3818C166.131 46.3398 166.033 46.1858 166.089 45.9058C166.271 44.9818 166.383 43.7778 166.383 42.7418C166.383 41.8738 165.865 41.3418 165.025 41.3418C164.339 41.3418 163.387 41.4538 162.421 41.5798C162.155 41.6078 161.973 41.4398 161.973 41.1878V40.0818C161.973 39.8438 162.155 39.7038 162.421 39.6618C163.149 39.5498 164.381 39.4238 165.627 39.4238C167.433 39.4238 168.399 40.4038 168.399 42.2238C168.399 43.4278 168.245 44.8278 168.035 46.2138ZM171.465 50.9178C171.465 51.2118 171.297 51.3798 171.003 51.3798H169.897C169.603 51.3798 169.435 51.2118 169.435 50.9178V39.2978C169.435 39.0038 169.603 38.8358 169.897 38.8358H171.003C171.297 38.8358 171.465 39.0038 171.465 39.2978V43.9878C171.619 43.7498 171.941 43.5958 172.333 43.5958H172.781C173.061 43.5958 173.215 43.7498 173.215 44.0298V45.1218C173.215 45.4018 173.061 45.5558 172.781 45.5558H172.277C171.801 45.5558 171.465 45.8778 171.465 46.3258V50.9178Z" fill="white"/>
<rect x="28.75" y="61.7498" width="224.5" height="58.5" rx="29.25" fill="white"/>
<rect x="28.75" y="61.7498" width="224.5" height="58.5" rx="29.25" stroke="black" stroke-width="1.5"/>
<path d="M87.8928 86.9998V85.3338H90.1328V78.7818H88.2428V77.5078C89.2928 77.3118 89.9928 77.0458 90.6648 76.6398H92.1908V85.3338H94.1368V86.9998H87.8928ZM100.211 83.1218C98.9366 83.1218 98.3486 81.8758 97.4666 81.8758C97.0326 81.8758 96.6406 82.1978 96.3046 82.7998L95.2266 81.9878C95.9406 80.8398 96.7386 80.4058 97.4946 80.4058C98.7966 80.4058 99.3706 81.6518 100.239 81.6518C100.687 81.6518 101.079 81.3298 101.415 80.7278L102.493 81.5398C101.765 82.6878 100.981 83.1218 100.211 83.1218ZM106.536 87.1958C104.898 87.1958 103.792 86.5938 103.064 85.7538L104.044 84.4518C104.66 85.0538 105.402 85.5298 106.34 85.5298C107.404 85.5298 108.118 84.9978 108.118 84.0738C108.118 83.0518 107.516 82.4218 105.262 82.4218V80.9378C107.166 80.9378 107.782 80.2938 107.782 79.3698C107.782 78.5578 107.278 78.0678 106.396 78.0678C105.654 78.0678 105.052 78.4178 104.436 78.9918L103.386 77.7178C104.282 76.9478 105.276 76.4578 106.48 76.4578C108.482 76.4578 109.84 77.4378 109.84 79.2158C109.84 80.3218 109.224 81.1478 108.118 81.5678V81.6378C109.294 81.9738 110.19 82.8278 110.19 84.1998C110.19 86.1038 108.524 87.1958 106.536 87.1958ZM117.384 78.7258H120.716V80.2098H117.384V78.7258ZM120.24 75.2958H122.102V84.8578H120.24V75.2958ZM113.52 86.5378H122.382V88.0218H113.52V86.5378ZM113.52 83.9198H115.396V87.3918H113.52V83.9198ZM111.798 76.1358H113.646V78.1098H116.11V76.1358H117.93V82.8278H111.798V76.1358ZM113.646 79.5238V81.3578H116.11V79.5238H113.646ZM133.757 78.2638H136.221V79.7758H133.757V78.2638ZM135.731 75.2818H137.593V82.7718H135.731V75.2818ZM128.955 83.3038H137.593V88.1058H128.955V83.3038ZM135.773 84.7598H130.789V86.6358H135.773V84.7598ZM129.739 76.4858H131.251V77.2978C131.251 79.7478 130.103 81.9878 127.611 82.7998L126.673 81.3298C128.815 80.6298 129.739 78.9358 129.739 77.2978V76.4858ZM130.131 76.4858H131.629V77.2978C131.629 78.8098 132.511 80.4058 134.555 81.0918L133.645 82.5618C131.237 81.7638 130.131 79.6078 130.131 77.2978V76.4858ZM127.177 75.9398H134.149V77.4098H127.177V75.9398ZM144.228 75.6598H145.866V76.2618C145.866 78.7538 143.906 80.8678 140.504 81.3718L139.776 79.8738C142.758 79.4818 144.228 77.7878 144.228 76.2618V75.6598ZM144.578 75.6598H146.202V76.2618C146.202 77.7738 147.686 79.4818 150.654 79.8738L149.94 81.3718C146.538 80.8678 144.578 78.7538 144.578 76.2618V75.6598ZM144.242 83.4998H146.09V88.2458H144.242V83.4998ZM139.356 82.3238H151.074V83.8358H139.356V82.3238ZM151.941 81.0918H163.687V82.4498H151.941V81.0918ZM153.257 83.0938H162.287V86.1738H155.133V87.2798H153.285V84.9978H160.453V84.3538H153.257V83.0938ZM153.285 86.8878H162.651V88.1478H153.285V86.8878ZM153.383 75.5058H162.259V78.5578H155.245V79.6218H153.397V77.3958H160.425V76.7518H153.383V75.5058ZM153.397 79.2298H162.497V80.4898H153.397V79.2298ZM167.446 85.2358H179.178V86.7478H167.446V85.2358ZM172.36 82.3658H174.222V85.5858H172.36V82.3658ZM168.664 76.2338H177.89V82.6038H168.664V76.2338ZM176.07 77.7178H170.498V81.1338H176.07V77.7178ZM181.514 79.8598H190.418V81.3438H181.514V79.8598ZM180.03 82.6178H191.776V84.1158H180.03V82.6178ZM184.93 83.4858H186.778V88.2318H184.93V83.4858ZM181.514 75.9678H190.292V77.4518H183.418V80.5738H181.514V75.9678ZM72.5673 103.626H73.6173C75.9133 103.626 77.4113 103.57 79.0913 103.262L79.2733 104.76C77.5373 105.082 75.9833 105.152 73.6173 105.152H72.5673V103.626ZM72.5673 96.4298H78.4333V97.9138H74.4293V104.2H72.5673V96.4298ZM80.9813 95.2818H82.8433V108.288H80.9813V95.2818ZM77.8033 99.7478H81.7653V101.26H77.8033V99.7478ZM92.8942 95.2958H94.7562V104.984H92.8942V95.2958ZM94.2242 99.2438H96.4782V100.77H94.2242V99.2438ZM84.5502 96.6398H92.1802V98.0958H84.5502V96.6398ZM88.3722 98.5578C90.2342 98.5578 91.5502 99.5798 91.5502 101.064C91.5502 102.548 90.2342 103.556 88.3722 103.556C86.4962 103.556 85.1802 102.548 85.1802 101.064C85.1802 99.5798 86.4962 98.5578 88.3722 98.5578ZM88.3722 99.9718C87.5462 99.9718 86.9722 100.364 86.9722 101.064C86.9722 101.764 87.5462 102.142 88.3722 102.142C89.1982 102.142 89.7722 101.764 89.7722 101.064C89.7722 100.364 89.1982 99.9718 88.3722 99.9718ZM87.4342 95.2678H89.2962V97.3538H87.4342V95.2678ZM86.3982 106.538H95.2182V108.022H86.3982V106.538ZM86.3982 104.256H88.2602V107.182H86.3982V104.256ZM108.385 95.2818H110.247V102.31H108.385V95.2818ZM109.729 97.9698H111.969V99.4958H109.729V97.9698ZM104.647 95.9538H106.677C106.677 99.4258 104.591 101.582 100.657 102.464L99.971 100.966C103.233 100.28 104.647 98.7538 104.647 96.9898V95.9538ZM100.587 95.9538H105.851V97.4378H100.587V95.9538ZM101.301 102.968H103.023V104.172H104.297V102.968H105.991V108.064H101.301V102.968ZM103.023 105.544V106.664H104.297V105.544H103.023ZM107.839 102.814H109.267V103.78C109.267 105.642 108.539 107.434 106.733 108.19L105.767 106.804C107.237 106.16 107.839 104.956 107.839 103.78V102.814ZM108.217 102.814H109.617V103.766C109.617 104.998 110.219 106.216 111.689 106.804L110.723 108.19C108.903 107.448 108.217 105.698 108.217 103.766V102.814ZM118.506 95.4638C121.46 95.4638 123.196 96.2478 123.196 97.6758C123.196 99.1038 121.46 99.8878 118.506 99.8878C115.538 99.8878 113.816 99.1038 113.816 97.6758C113.816 96.2478 115.538 95.4638 118.506 95.4638ZM118.506 96.8218C116.63 96.8218 115.748 97.1018 115.748 97.6758C115.748 98.2778 116.63 98.5298 118.506 98.5298C120.382 98.5298 121.264 98.2778 121.264 97.6758C121.264 97.1018 120.382 96.8218 118.506 96.8218ZM112.64 100.49H124.358V101.96H112.64V100.49ZM113.984 102.688H122.944V106.02H115.832V107.168H113.998V104.732H121.11V104.074H113.984V102.688ZM113.998 106.762H123.28V108.162H113.998V106.762ZM131.071 101.204H132.933V103.066H131.071V101.204ZM136.559 95.2958H138.421V104.116H136.559V95.2958ZM137.763 98.9918H140.045V100.518H137.763V98.9918ZM128.187 103.864L127.977 102.422C130.301 102.422 133.367 102.408 135.985 102.086L136.125 103.36C133.423 103.822 130.455 103.85 128.187 103.864ZM129.629 104.634H138.421V108.246H136.559V106.062H129.629V104.634ZM128.313 96.2338H135.663V97.5638H128.313V96.2338ZM131.995 97.8718C133.899 97.8718 135.145 98.6138 135.145 99.8038C135.145 100.994 133.899 101.736 131.995 101.736C130.077 101.736 128.831 100.994 128.831 99.8038C128.831 98.6138 130.077 97.8718 131.995 97.8718ZM131.995 99.0898C131.113 99.0898 130.595 99.3138 130.595 99.8038C130.595 100.266 131.113 100.518 131.995 100.518C132.863 100.518 133.381 100.266 133.381 99.8038C133.381 99.3138 132.863 99.0898 131.995 99.0898ZM131.071 95.1838H132.933V96.8358H131.071V95.1838ZM149.634 95.2958H151.51V104.606H149.634V95.2958ZM142.872 106.538H151.832V108.022H142.872V106.538ZM142.872 103.668H144.734V107.14H142.872V103.668ZM144.454 96.1078C146.442 96.1078 147.968 97.4798 147.968 99.3978C147.968 101.302 146.442 102.688 144.454 102.688C142.466 102.688 140.926 101.302 140.926 99.3978C140.926 97.4798 142.466 96.1078 144.454 96.1078ZM144.454 97.7178C143.488 97.7178 142.746 98.3338 142.746 99.3978C142.746 100.448 143.488 101.064 144.454 101.064C145.406 101.064 146.148 100.448 146.148 99.3978C146.148 98.3338 145.406 97.7178 144.454 97.7178ZM153.314 97.2278H159.516V98.7118H153.314V97.2278ZM156.436 99.2858C158.088 99.2858 159.278 100.56 159.278 102.38C159.278 104.186 158.088 105.46 156.436 105.46C154.798 105.46 153.594 104.186 153.594 102.38C153.594 100.56 154.798 99.2858 156.436 99.2858ZM156.436 100.84C155.736 100.84 155.246 101.4 155.246 102.38C155.246 103.36 155.736 103.906 156.436 103.906C157.136 103.906 157.64 103.36 157.64 102.38C157.64 101.4 157.136 100.84 156.436 100.84ZM162.694 95.2818H164.472V108.246H162.694V95.2818ZM161.14 100.546H163.282V102.044H161.14V100.546ZM159.978 95.5198H161.714V107.7H159.978V95.5198ZM155.526 95.6318H157.36V98.1658H155.526V95.6318ZM173.621 96.7238H175.231V97.1018C175.231 99.3838 173.369 101.246 170.079 101.694L169.393 100.238C172.249 99.8878 173.621 98.4318 173.621 97.1018V96.7238ZM174.153 96.7238H175.763V97.1018C175.763 98.4318 177.135 99.8878 179.991 100.238L179.319 101.694C176.015 101.246 174.153 99.3838 174.153 97.1018V96.7238ZM173.719 103.5H175.567V108.26H173.719V103.5ZM168.833 102.436H180.551V103.92H168.833V102.436ZM169.869 95.9398H179.487V97.4098H169.869V95.9398ZM186.528 99.6358H188.67V101.148H186.528V99.6358ZM183.756 96.4018H185.184V98.5858C185.184 101.526 184.372 104.396 182.3 105.67L181.18 104.27C183.084 103.094 183.756 100.784 183.756 98.5858V96.4018ZM184.162 96.4018H185.562V98.5018C185.562 100.616 186.108 102.772 187.872 103.92L186.864 105.376C184.806 104.102 184.162 101.302 184.162 98.5018V96.4018ZM190.784 95.2818H192.562V108.246H190.784V95.2818ZM188.152 95.4778H189.888V107.658H188.152V95.4778ZM196.607 101.862H198.455V105.502H196.607V101.862ZM201.311 101.862H203.173V105.502H201.311V101.862ZM194.031 105.236H205.763V106.748H194.031V105.236ZM199.883 95.9118C202.669 95.9118 204.727 97.2838 204.727 99.3978C204.727 101.512 202.669 102.87 199.883 102.87C197.083 102.87 195.039 101.512 195.039 99.3978C195.039 97.2838 197.083 95.9118 199.883 95.9118ZM199.883 97.3678C198.077 97.3678 196.873 98.1098 196.873 99.3978C196.873 100.672 198.077 101.428 199.883 101.428C201.689 101.428 202.893 100.672 202.893 99.3978C202.893 98.1098 201.689 97.3678 199.883 97.3678ZM208.324 107.196C207.582 107.196 207.05 106.622 207.05 105.852C207.05 105.082 207.582 104.522 208.324 104.522C209.052 104.522 209.612 105.082 209.612 105.852C209.612 106.622 209.052 107.196 208.324 107.196Z" fill="black"/>
<path d="M33.605 169.266C30.736 169.266 28.836 166.777 28.836 161.913C28.836 157.068 30.736 154.693 33.605 154.693C36.455 154.693 38.355 157.068 38.355 161.913C38.355 166.777 36.455 169.266 33.605 169.266ZM33.605 167.081C34.821 167.081 35.714 165.865 35.714 161.913C35.714 157.98 34.821 156.84 33.605 156.84C32.389 156.84 31.477 157.98 31.477 161.913C31.477 165.865 32.389 167.081 33.605 167.081ZM46.256 163.737C44.527 163.737 43.729 162.046 42.532 162.046C41.943 162.046 41.411 162.483 40.955 163.3L39.492 162.198C40.461 160.64 41.544 160.051 42.57 160.051C44.337 160.051 45.116 161.742 46.294 161.742C46.902 161.742 47.434 161.305 47.89 160.488L49.353 161.59C48.365 163.148 47.301 163.737 46.256 163.737ZM50.4521 169V167.404C54.2901 163.965 56.5321 161.324 56.5321 159.158C56.5321 157.752 55.7911 156.878 54.4421 156.878C53.3971 156.878 52.5801 157.543 51.8581 158.341L50.3191 156.821C51.6111 155.434 52.8841 154.693 54.8031 154.693C57.4441 154.693 59.2301 156.384 59.2301 159.006C59.2301 161.571 57.1021 164.307 54.5371 166.815C55.2401 166.739 56.1711 166.644 56.8361 166.644H59.8761V169H50.4521ZM70.7601 157.144H74.1041V159.196H70.7601V157.144ZM73.4391 153.097H75.9661V163.262H73.4391V153.097ZM64.2431 163.984H75.9661V170.501H64.2431V163.984ZM73.4961 165.96H66.7321V168.506H73.4961V165.96ZM65.3071 154.731H67.3591V155.833C67.3591 159.158 65.8011 162.198 62.4191 163.3L61.1461 161.305C64.0531 160.355 65.3071 158.056 65.3071 155.833V154.731ZM65.8391 154.731H67.8721V155.833C67.8721 157.885 69.0691 160.051 71.8431 160.982L70.6081 162.977C67.3401 161.894 65.8391 158.968 65.8391 155.833V154.731ZM61.8301 153.99H71.2921V155.985H61.8301V153.99ZM37.93 180.61H39.175V194.17H37.93V180.61ZM38.875 186.175H41.395V187.225H38.875V186.175ZM28.675 182.77H36.67V183.79H28.675V182.77ZM32.725 184.915C34.645 184.915 36.025 186.205 36.025 188.035C36.025 189.865 34.645 191.155 32.725 191.155C30.82 191.155 29.425 189.865 29.425 188.035C29.425 186.205 30.82 184.915 32.725 184.915ZM32.725 185.95C31.495 185.95 30.61 186.805 30.61 188.035C30.61 189.25 31.495 190.12 32.725 190.12C33.955 190.12 34.84 189.25 34.84 188.035C34.84 186.805 33.955 185.95 32.725 185.95ZM32.08 180.775H33.325V183.235H32.08V180.775ZM43.4038 181.15H52.7338V184.69H44.6938V187.03H43.4338V183.73H51.4888V182.155H43.4038V181.15ZM43.4338 186.415H53.0488V187.435H43.4338V186.415ZM41.9338 188.83H54.2338V189.865H41.9338V188.83ZM47.4388 189.22H48.6688V194.185H47.4388V189.22ZM64.3277 180.61H65.5727V194.17H64.3277V180.61ZM65.2727 186.175H67.7927V187.225H65.2727V186.175ZM55.0727 182.77H63.0677V183.79H55.0727V182.77ZM59.1227 184.915C61.0427 184.915 62.4227 186.205 62.4227 188.035C62.4227 189.865 61.0427 191.155 59.1227 191.155C57.2177 191.155 55.8227 189.865 55.8227 188.035C55.8227 186.205 57.2177 184.915 59.1227 184.915ZM59.1227 185.95C57.8927 185.95 57.0077 186.805 57.0077 188.035C57.0077 189.25 57.8927 190.12 59.1227 190.12C60.3527 190.12 61.2377 189.25 61.2377 188.035C61.2377 186.805 60.3527 185.95 59.1227 185.95ZM58.4777 180.775H59.7227V183.235H58.4777V180.775ZM69.8015 181.15H79.1315V184.69H71.0915V187.03H69.8315V183.73H77.8865V182.155H69.8015V181.15ZM69.8315 186.415H79.4465V187.435H69.8315V186.415ZM68.3315 188.83H80.6315V189.865H68.3315V188.83ZM73.8365 189.22H75.0665V194.185H73.8365V189.22ZM85.7998 186.73H95.1898V187.765H85.7998V186.73ZM84.2998 191.275H96.5848V192.31H84.2998V191.275ZM85.7998 181.795H87.0448V187.195H85.7998V181.795ZM107.369 180.61H108.599V194.17H107.369V180.61ZM100.514 182.065H101.669C101.669 185.305 100.904 188.5 98.4736 191.095L97.4836 190.36C99.6886 188.08 100.514 185.26 100.514 182.2V182.065ZM97.9786 182.065H100.979V183.1H97.9786V182.065ZM104.294 182.065H105.449C105.449 185.305 104.939 189.07 102.494 191.995L101.459 191.32C103.724 188.665 104.294 185.305 104.294 182.185V182.065ZM102.119 182.065H104.729V183.1H102.119V182.065ZM112.347 184.675H121.557V185.695H112.347V184.675ZM110.682 187.51H122.982V188.53H110.682V187.51ZM112.347 181.105H113.577V185.185H112.347V181.105ZM112.257 192.82H121.632V193.84H112.257V192.82ZM112.257 189.88H113.487V193.09H112.257V189.88ZM136.881 180.61H138.066V189.19H136.881V180.61ZM134.676 184.285H137.241V185.32H134.676V184.285ZM133.986 180.88H135.156V188.71H133.986V180.88ZM126.576 182.23H133.446V183.22H126.576V182.23ZM130.026 183.91C131.721 183.91 132.906 184.84 132.906 186.235C132.906 187.645 131.721 188.56 130.026 188.56C128.316 188.56 127.131 187.645 127.131 186.235C127.131 184.84 128.316 183.91 130.026 183.91ZM130.026 184.84C128.961 184.84 128.241 185.395 128.241 186.235C128.241 187.09 128.961 187.63 130.026 187.63C131.076 187.63 131.796 187.09 131.796 186.235C131.796 185.395 131.076 184.84 130.026 184.84ZM129.411 180.715H130.626V182.785H129.411V180.715ZM133.626 189.43C136.446 189.43 138.141 190.27 138.141 191.785C138.141 193.285 136.446 194.14 133.626 194.14C130.776 194.14 129.096 193.285 129.096 191.785C129.096 190.27 130.776 189.43 133.626 189.43ZM133.626 190.39C131.541 190.39 130.326 190.885 130.326 191.785C130.326 192.685 131.541 193.195 133.626 193.195C135.681 193.195 136.911 192.685 136.911 191.785C136.911 190.885 135.681 190.39 133.626 190.39ZM139.835 187.6H152.09V188.62H139.835V187.6ZM145.355 185.575H146.585V187.915H145.355V185.575ZM141.2 189.94H150.575V194.17H149.33V190.96H141.2V189.94ZM141.47 180.925H142.7V182.455H149.255V180.925H150.5V185.995H141.47V180.925ZM142.7 183.43V185.005H149.255V183.43H142.7ZM159.168 180.835C162.153 180.835 163.938 181.675 163.938 183.19C163.938 184.705 162.153 185.545 159.168 185.545C156.168 185.545 154.398 184.705 154.398 183.19C154.398 181.675 156.168 180.835 159.168 180.835ZM159.168 181.78C156.948 181.78 155.673 182.29 155.673 183.19C155.673 184.09 156.948 184.6 159.168 184.6C161.373 184.6 162.648 184.09 162.648 183.19C162.648 182.29 161.373 181.78 159.168 181.78ZM153.033 186.445H165.288V187.45H153.033V186.445ZM154.518 188.605H163.728V191.665H155.778V193.315H154.548V190.765H162.498V189.565H154.518V188.605ZM154.548 193.045H164.133V194.02H154.548V193.045ZM174.492 187.39H175.737V189.76H174.492V187.39ZM168.987 186.955H181.242V187.96H168.987V186.955ZM175.107 189.385C178.017 189.385 179.757 190.24 179.757 191.77C179.757 193.285 178.017 194.14 175.107 194.14C172.197 194.14 170.457 193.285 170.457 191.77C170.457 190.24 172.197 189.385 175.107 189.385ZM175.107 190.345C172.992 190.345 171.717 190.855 171.717 191.77C171.717 192.67 172.992 193.18 175.107 193.18C177.237 193.18 178.497 192.67 178.497 191.77C178.497 190.855 177.237 190.345 175.107 190.345ZM174.312 181.72H175.422V182.125C175.422 184.315 172.932 185.785 170.127 186.13L169.677 185.14C172.107 184.885 174.312 183.67 174.312 182.125V181.72ZM174.837 181.72H175.932V182.125C175.932 183.67 178.137 184.885 180.567 185.14L180.117 186.13C177.312 185.785 174.837 184.315 174.837 182.125V181.72ZM170.112 181.225H180.147V182.23H170.112V181.225ZM185.201 187.585H186.431V191.65H185.201V187.585ZM190.211 187.585H191.456V191.65H190.211V187.585ZM182.201 191.41H194.486V192.445H182.201V191.41ZM188.321 181.465C191.186 181.465 193.241 182.83 193.241 184.96C193.241 187.075 191.186 188.44 188.321 188.44C185.441 188.44 183.386 187.075 183.386 184.96C183.386 182.83 185.441 181.465 188.321 181.465ZM188.321 182.455C186.146 182.455 184.586 183.445 184.586 184.96C184.586 186.46 186.146 187.45 188.321 187.45C190.496 187.45 192.041 186.46 192.041 184.96C192.041 183.445 190.496 182.455 188.321 182.455ZM198.969 181.78H199.989V184.21C199.989 187.33 198.309 190.225 196.089 191.35L195.324 190.33C197.334 189.37 198.969 186.775 198.969 184.21V181.78ZM199.179 181.78H200.199V184.21C200.199 186.685 201.819 189.175 203.829 190.105L203.079 191.095C200.874 190.015 199.179 187.225 199.179 184.21V181.78ZM205.239 180.595H206.484V194.185H205.239V180.595ZM217.458 183.625H221.553V184.66H217.458V183.625ZM217.458 187.915H221.553V188.95H217.458V187.915ZM214.968 181.645C216.933 181.645 218.343 183.49 218.343 186.37C218.343 189.265 216.933 191.11 214.968 191.11C212.988 191.11 211.593 189.265 211.593 186.37C211.593 183.49 212.988 181.645 214.968 181.645ZM214.968 182.77C213.663 182.77 212.763 184.18 212.763 186.37C212.763 188.575 213.663 190.015 214.968 190.015C216.273 190.015 217.173 188.575 217.173 186.37C217.173 184.18 216.273 182.77 214.968 182.77ZM221.283 180.595H222.513V194.185H221.283V180.595ZM234.422 180.61H235.667V194.17H234.422V180.61ZM230.447 182.065H231.677C231.677 185.995 229.907 189.43 225.377 191.65L224.717 190.645C228.632 188.755 230.447 185.875 230.447 182.275V182.065ZM225.332 182.065H230.987V183.085H225.332V182.065ZM239.4 184.675H248.61V185.695H239.4V184.675ZM237.735 187.51H250.035V188.53H237.735V187.51ZM239.4 181.105H240.63V185.185H239.4V181.105ZM239.31 192.82H248.685V193.84H239.31V192.82ZM239.31 189.88H240.54V193.09H239.31V189.88ZM38.035 204.61H39.28V212.665H38.035V204.61ZM38.92 208.135H41.275V209.17H38.92V208.135ZM34.945 212.95C37.69 212.95 39.4 213.925 39.4 215.56C39.4 217.195 37.69 218.155 34.945 218.155C32.2 218.155 30.49 217.195 30.49 215.56C30.49 213.925 32.2 212.95 34.945 212.95ZM34.945 213.97C32.935 213.97 31.705 214.54 31.705 215.56C31.705 216.55 32.935 217.135 34.945 217.135C36.955 217.135 38.185 216.55 38.185 215.56C38.185 214.54 36.955 213.97 34.945 213.97ZM29.35 210.58H30.4C33.205 210.58 34.78 210.49 36.595 210.115L36.745 211.135C34.87 211.51 33.265 211.6 30.4 211.6H29.35V210.58ZM29.35 205.645H35.335V206.665H30.58V211.24H29.35V205.645ZM52.1038 204.625H53.3638V214.555H52.1038V204.625ZM44.6488 216.85H53.7688V217.87H44.6488V216.85ZM44.6488 213.64H45.8788V217.33H44.6488V213.64ZM45.7738 205.36H46.8088V206.74C46.8088 209.38 45.3088 211.69 43.0288 212.62L42.3838 211.615C44.4238 210.82 45.7738 208.84 45.7738 206.74V205.36ZM45.9988 205.36H47.0188V206.74C47.0188 208.78 48.3838 210.625 50.4088 211.36L49.7488 212.365C47.4988 211.495 45.9988 209.32 45.9988 206.74V205.36ZM56.1077 219.85L55.7927 219.055C56.7227 218.635 57.2927 217.885 57.2927 216.97L57.1427 215.74L57.8027 216.73C57.6227 216.955 57.3827 217.03 57.1127 217.03C56.5877 217.03 56.1227 216.685 56.1227 216.07C56.1227 215.47 56.5877 215.11 57.1427 215.11C57.8627 215.11 58.2977 215.725 58.2977 216.715C58.2977 218.17 57.4727 219.295 56.1077 219.85ZM66.277 206.65V214.255H63.712V204.325H69.202V206.65H66.277ZM64.207 204.82V213.76H65.782V206.17H68.707V204.82H64.207ZM71.752 211.915H81.067V212.92H71.752V211.915ZM70.177 215.395H82.462V216.43H70.177V215.395ZM71.752 205.765H80.917V206.785H73.012V212.23H71.752V205.765ZM72.607 208.795H80.632V209.785H72.607V208.795ZM84.2908 211.705H85.1608C87.0508 211.705 88.4458 211.66 90.0958 211.33L90.2308 212.32C88.5208 212.65 87.0958 212.725 85.1608 212.725H84.2908V211.705ZM84.2608 205.705H89.0608V209.62H85.4908V212.2H84.2908V208.66H87.8458V206.71H84.2608V205.705ZM89.5858 208.36H92.0908V209.38H89.5858V208.36ZM93.9058 204.61H95.0908V214.81H93.9058V204.61ZM91.2508 204.865H92.4208V214.465H91.2508V204.865ZM86.2558 216.85H95.5108V217.87H86.2558V216.85ZM86.2558 213.805H87.5008V217.495H86.2558V213.805ZM98.7196 211.105H108.035V212.125H98.7196V211.105ZM97.1746 215.305H109.46V216.34H97.1746V215.305ZM98.7196 205.855H107.9V206.89H99.9646V211.555H98.7196V205.855ZM115.183 205.93H123.793V206.95H115.183V205.93ZM113.713 215.305H125.968V216.325H113.713V215.305ZM123.283 205.93H124.498V207.22C124.498 208.87 124.498 210.73 123.943 213.505L122.698 213.355C123.283 210.73 123.283 208.825 123.283 207.22V205.93ZM123.553 209.185V210.13L115.003 210.61L114.808 209.53L123.553 209.185ZM118.483 211.795H119.728V215.68H118.483V211.795ZM137.097 204.595H138.342V218.185H137.097V204.595ZM128.007 213.88H129.132C131.397 213.88 133.422 213.79 135.822 213.4L135.957 214.42C133.497 214.825 131.457 214.915 129.132 214.915H128.007V213.88ZM127.977 205.87H134.247V210.715H129.252V214.27H128.007V209.695H132.987V206.89H127.977V205.87ZM144.326 205.645C146.321 205.645 147.731 207.49 147.731 210.37C147.731 213.265 146.321 215.11 144.326 215.11C142.331 215.11 140.921 213.265 140.921 210.37C140.921 207.49 142.331 205.645 144.326 205.645ZM144.326 206.77C143.006 206.77 142.106 208.18 142.106 210.37C142.106 212.575 143.006 214.015 144.326 214.015C145.631 214.015 146.546 212.575 146.546 210.37C146.546 208.18 145.631 206.77 144.326 206.77ZM149.891 204.61H151.151V218.17H149.891V204.61ZM150.851 210.025H153.371V211.075H150.851V210.025ZM157.189 217V216.205C160.639 213.19 162.214 210.985 162.214 209.11C162.214 207.85 161.569 206.92 160.204 206.92C159.304 206.92 158.524 207.475 157.909 208.195L157.114 207.43C158.014 206.455 158.974 205.81 160.369 205.81C162.334 205.81 163.564 207.085 163.564 209.05C163.564 211.255 161.839 213.49 159.244 215.935C159.829 215.875 160.489 215.83 161.044 215.83H164.089V217H157.189ZM168.719 217.21C166.619 217.21 165.284 215.305 165.284 211.465C165.284 207.655 166.619 205.81 168.719 205.81C170.789 205.81 172.124 207.655 172.124 211.465C172.124 215.305 170.789 217.21 168.719 217.21ZM168.719 216.1C169.964 216.1 170.804 214.705 170.804 211.465C170.804 208.27 169.964 206.905 168.719 206.905C167.459 206.905 166.604 208.27 166.604 211.465C166.604 214.705 167.459 216.1 168.719 216.1ZM173.23 217V216.205C176.68 213.19 178.255 210.985 178.255 209.11C178.255 207.85 177.61 206.92 176.245 206.92C175.345 206.92 174.565 207.475 173.95 208.195L173.155 207.43C174.055 206.455 175.015 205.81 176.41 205.81C178.375 205.81 179.605 207.085 179.605 209.05C179.605 211.255 177.88 213.49 175.285 215.935C175.87 215.875 176.53 215.83 177.085 215.83H180.13V217H173.23ZM184.505 217.21C182.795 217.21 181.745 216.49 180.995 215.74L181.685 214.84C182.3 215.485 183.11 216.07 184.37 216.07C185.675 216.07 186.71 215.065 186.71 213.475C186.71 211.9 185.81 210.955 184.445 210.955C183.71 210.955 183.245 211.195 182.615 211.615L181.88 211.15L182.225 206.005H187.58V207.175H183.425L183.14 210.355C183.635 210.085 184.13 209.92 184.79 209.92C186.62 209.92 188.105 211 188.105 213.43C188.105 215.83 186.35 217.21 184.505 217.21ZM192.045 215.965V208.36H194.61V218.29H189.12V215.965H192.045ZM194.115 217.795V208.855H192.54V216.445H189.615V217.795H194.115ZM205.35 209.875H207.915V210.91H205.35V209.875ZM210.18 204.61H211.38V218.17H210.18V204.61ZM207.495 204.895H208.68V217.495H207.495V204.895ZM202.905 205.735C204.66 205.735 205.8 207.55 205.8 210.46C205.8 213.37 204.66 215.185 202.905 215.185C201.15 215.185 200.025 213.37 200.025 210.46C200.025 207.55 201.15 205.735 202.905 205.735ZM202.905 206.89C201.84 206.89 201.165 208.27 201.165 210.46C201.165 212.65 201.84 214.03 202.905 214.03C203.985 214.03 204.66 212.65 204.66 210.46C204.66 208.27 203.985 206.89 202.905 206.89ZM224.333 204.61H225.533V218.17H224.333V204.61ZM218.453 210.145H221.873V211.15H218.453V210.145ZM221.513 204.955H222.683V217.48H221.513V204.955ZM218.618 206.32H219.818C219.818 209.875 218.393 213.07 214.733 215.245L213.998 214.36C217.193 212.44 218.618 209.74 218.618 206.545V206.32ZM214.598 206.32H219.083V207.34H214.598V206.32ZM236.677 204.61H237.862V218.17H236.677V204.61ZM234.532 210.07H237.142V211.12H234.532V210.07ZM233.722 204.895H234.892V217.495H233.722V204.895ZM229.102 206.71H230.077V208.27C230.077 211.525 229.012 214.135 226.927 215.38L226.162 214.42C228.112 213.34 229.102 211.03 229.102 208.27V206.71ZM229.327 206.71H230.302V208.27C230.302 210.76 231.307 212.965 233.212 213.94L232.477 214.9C230.407 213.76 229.327 211.255 229.327 208.27V206.71ZM226.477 206.2H232.777V207.235H226.477V206.2ZM239.871 209.035H246.411V210.055H239.871V209.035ZM242.481 209.65H243.726V212.365H242.481V209.65ZM239.871 205.495H246.321V206.515H241.116V209.485H239.871V205.495ZM248.451 204.61H249.696V214.75H248.451V204.61ZM240.936 216.85H250.146V217.87H240.936V216.85ZM240.936 214.09H242.166V217.285H240.936V214.09ZM238.836 213.04L238.671 212.02C241.281 212.02 244.581 211.96 247.371 211.63L247.446 212.545C244.581 212.965 241.371 213.04 238.836 213.04ZM201.644 230.02H202.844C202.844 233.935 201.464 237.565 196.574 239.965L195.899 238.99C200.189 236.89 201.644 233.86 201.644 230.155V230.02ZM196.634 230.02H202.274V231.025H196.634V230.02ZM201.464 233.38V234.34L196.169 234.835L195.959 233.74L201.464 233.38ZM205.514 228.61H206.759V242.17H205.514V228.61ZM212.818 236.185H214.048V241.75H212.818V236.185ZM219.028 228.61H220.273V242.185H219.028V228.61ZM209.248 236.8L209.083 235.75C211.648 235.75 215.053 235.735 217.993 235.315L218.068 236.245C215.038 236.755 211.768 236.8 209.248 236.8ZM215.953 237.865H219.343V238.84H215.953V237.865ZM213.508 229.285C215.503 229.285 216.898 230.35 216.898 231.955C216.898 233.56 215.503 234.625 213.508 234.625C211.483 234.625 210.103 233.56 210.103 231.955C210.103 230.35 211.483 229.285 213.508 229.285ZM213.508 230.245C212.188 230.245 211.258 230.95 211.258 231.955C211.258 232.975 212.188 233.665 213.508 233.665C214.798 233.665 215.728 232.975 215.728 231.955C215.728 230.95 214.798 230.245 213.508 230.245ZM224.187 235.105H233.502V236.125H224.187V235.105ZM222.642 239.305H234.927V240.34H222.642V239.305ZM224.187 229.855H233.367V230.89H225.432V235.555H224.187V229.855ZM241.631 233.875H244.196V234.91H241.631V233.875ZM246.461 228.61H247.661V242.17H246.461V228.61ZM243.776 228.895H244.961V241.495H243.776V228.895ZM239.186 229.735C240.941 229.735 242.081 231.55 242.081 234.46C242.081 237.37 240.941 239.185 239.186 239.185C237.431 239.185 236.306 237.37 236.306 234.46C236.306 231.55 237.431 229.735 239.186 229.735ZM239.186 230.89C238.121 230.89 237.446 232.27 237.446 234.46C237.446 236.65 238.121 238.03 239.186 238.03C240.266 238.03 240.941 236.65 240.941 234.46C240.941 232.27 240.266 230.89 239.186 230.89ZM34.18 253.945H35.26V254.515C35.26 256.945 32.68 258.73 29.95 259.195L29.47 258.205C31.855 257.86 34.18 256.3 34.18 254.515V253.945ZM34.495 253.945H35.56V254.515C35.56 256.3 37.9 257.86 40.27 258.205L39.805 259.195C37.06 258.73 34.495 256.945 34.495 254.515V253.945ZM34.225 260.995H35.455V266.17H34.225V260.995ZM28.75 260.335H41.005V261.355H28.75V260.335ZM29.89 253.45H39.82V254.455H29.89V253.45ZM43.8088 253.165H52.9288V257.785H43.8088V253.165ZM51.6988 254.17H45.0238V256.78H51.6988V254.17ZM42.2338 259.48H54.4888V260.485H42.2338V259.48ZM47.7538 257.515H48.9838V259.855H47.7538V257.515ZM43.5988 261.88H52.9738V266.17H51.7288V262.9H43.5988V261.88ZM55.7177 254.92H62.4377V255.94H55.7177V254.92ZM59.0777 256.84C60.7727 256.84 62.0027 258.115 62.0027 259.945C62.0027 261.76 60.7727 263.035 59.0777 263.035C57.3977 263.035 56.1677 261.76 56.1677 259.945C56.1677 258.115 57.3977 256.84 59.0777 256.84ZM59.0777 257.905C58.0427 257.905 57.2927 258.745 57.2927 259.945C57.2927 261.145 58.0427 261.985 59.0777 261.985C60.1277 261.985 60.8927 261.145 60.8927 259.945C60.8927 258.745 60.1277 257.905 59.0777 257.905ZM66.0227 252.61H67.2227V266.17H66.0227V252.61ZM63.8627 258.31H66.4277V259.345H63.8627V258.31ZM63.1277 252.91H64.2977V265.51H63.1277V252.91ZM58.4777 253H59.7077V255.55H58.4777V253ZM72.301 263.41H84.586V264.445H72.301V263.41ZM77.791 260.17H79.036V263.71H77.791V260.17ZM73.741 253.57H74.971V255.985H81.886V253.57H83.116V260.5H73.741V253.57ZM74.971 256.99V259.48H81.886V256.99H74.971ZM91.1398 257.455H93.7348V258.49H91.1398V257.455ZM88.6048 253.885H89.5798V256.465C89.5798 259.3 88.3948 262.045 86.4148 263.26L85.6348 262.315C87.4948 261.22 88.6048 258.79 88.6048 256.465V253.885ZM88.8448 253.885H89.8048V256.42C89.8048 258.595 90.8248 260.905 92.6098 261.985L91.8898 262.96C89.9398 261.76 88.8448 259.06 88.8448 256.42V253.885ZM96.1198 252.61H97.3198V266.17H96.1198V252.61ZM93.3748 252.895H94.5448V265.495H93.3748V252.895ZM102.299 259.585H103.529V263.65H102.299V259.585ZM107.309 259.585H108.554V263.65H107.309V259.585ZM99.2986 263.41H111.584V264.445H99.2986V263.41ZM105.419 253.465C108.284 253.465 110.339 254.83 110.339 256.96C110.339 259.075 108.284 260.44 105.419 260.44C102.539 260.44 100.484 259.075 100.484 256.96C100.484 254.83 102.539 253.465 105.419 253.465ZM105.419 254.455C103.244 254.455 101.684 255.445 101.684 256.96C101.684 258.46 103.244 259.45 105.419 259.45C107.594 259.45 109.139 258.46 109.139 256.96C109.139 255.445 107.594 254.455 105.419 254.455ZM113.997 261.685L113.802 255.34L113.772 253.765H115.152L115.122 255.34L114.927 261.685H113.997ZM114.447 265.21C113.907 265.21 113.472 264.775 113.472 264.16C113.472 263.53 113.907 263.11 114.447 263.11C115.002 263.11 115.452 263.53 115.452 264.16C115.452 264.775 115.002 265.21 114.447 265.21Z" fill="black"/>
<path d="M32.32 229.405C34.435 229.405 35.965 231.325 35.965 234.355C35.965 237.415 34.435 239.335 32.32 239.335C30.205 239.335 28.675 237.415 28.675 234.355C28.675 231.325 30.205 229.405 32.32 229.405ZM32.32 231.22C31.285 231.22 30.595 232.315 30.595 234.355C30.595 236.425 31.285 237.535 32.32 237.535C33.355 237.535 34.06 236.425 34.06 234.355C34.06 232.315 33.355 231.22 32.32 231.22ZM37.48 228.445H39.49V242.335H37.48V228.445ZM39.04 233.68H41.5V235.33H39.04V233.68ZM42.1138 239.11H54.6838V240.73H42.1138V239.11ZM47.3788 236.14H49.3738V239.5H47.3788V236.14ZM43.4338 229.33H45.4138V231.46H51.3388V229.33H53.3188V236.56H43.4338V229.33ZM45.4138 233.02V234.97H51.3388V233.02H45.4138ZM64.5077 228.445H66.4877V242.335H64.5077V228.445ZM66.0377 233.86H68.4977V235.525H66.0377V233.86ZM55.5377 230.5H63.6227V232.09H55.5377V230.5ZM59.6027 232.87C61.6277 232.87 63.1277 234.25 63.1277 236.185C63.1277 238.12 61.6277 239.5 59.6027 239.5C57.5777 239.5 56.0777 238.12 56.0777 236.185C56.0777 234.25 57.5777 232.87 59.6027 232.87ZM59.6027 234.49C58.6577 234.49 57.9827 235.12 57.9827 236.185C57.9827 237.25 58.6577 237.88 59.6027 237.88C60.5477 237.88 61.2227 237.25 61.2227 236.185C61.2227 235.12 60.5477 234.49 59.6027 234.49ZM58.5977 228.67H60.5927V231.1H58.5977V228.67ZM69.7415 244.21L69.2915 243.01C70.4615 242.575 71.1065 241.78 71.0915 240.895L71.0165 239.335L71.7965 240.625C71.5715 240.85 71.2715 240.955 70.9415 240.955C70.2215 240.955 69.5615 240.475 69.5615 239.65C69.5615 238.855 70.2065 238.345 71.0015 238.345C72.0065 238.345 72.5765 239.155 72.5765 240.505C72.5765 242.275 71.5715 243.61 69.7415 244.21ZM76.7729 236.215H89.3579V237.805H76.7729V236.215ZM82.0229 237.235H84.0029V242.335H82.0229V237.235ZM78.2279 229.12H87.8579V234.73H78.2279V229.12ZM85.8929 230.695H80.1929V233.155H85.8929V230.695ZM90.2567 230.53H96.9017V232.12H90.2567V230.53ZM93.6017 232.735C95.3717 232.735 96.6467 234.1 96.6467 236.05C96.6467 237.985 95.3717 239.35 93.6017 239.35C91.8467 239.35 90.5567 237.985 90.5567 236.05C90.5567 234.1 91.8467 232.735 93.6017 232.735ZM93.6017 234.4C92.8517 234.4 92.3267 235 92.3267 236.05C92.3267 237.1 92.8517 237.685 93.6017 237.685C94.3517 237.685 94.8917 237.1 94.8917 236.05C94.8917 235 94.3517 234.4 93.6017 234.4ZM100.307 228.445H102.212V242.335H100.307V228.445ZM98.6417 234.085H100.937V235.69H98.6417V234.085ZM97.3967 228.7H99.2567V241.75H97.3967V228.7ZM92.6267 228.82H94.5917V231.535H92.6267V228.82ZM104.296 235.06H105.361C107.941 235.06 109.291 235.015 110.866 234.73L111.061 236.305C109.441 236.605 108.016 236.65 105.361 236.65H104.296V235.06ZM104.281 229.24H110.386V233.62H106.276V236.11H104.296V232.135H108.406V230.815H104.281V229.24ZM113.401 228.46H115.396V237.01H113.401V228.46ZM111.181 230.365H113.761V231.955H111.181V230.365ZM111.181 233.32H113.761V234.91H111.181V233.32ZM105.886 237.64H115.396V242.35H113.401V239.23H105.886V237.64ZM117.914 244.21L117.464 243.01C118.634 242.575 119.279 241.78 119.264 240.895L119.189 239.335L119.969 240.625C119.744 240.85 119.444 240.955 119.114 240.955C118.394 240.955 117.734 240.475 117.734 239.65C117.734 238.855 118.379 238.345 119.174 238.345C120.179 238.345 120.749 239.155 120.749 240.505C120.749 242.275 119.744 243.61 117.914 244.21ZM128.561 235.57H130.556V238.615H128.561V235.57ZM134.651 228.445H136.646V238.96H134.651V228.445ZM126.641 240.505H136.946V242.095H126.641V240.505ZM126.641 237.97H128.636V240.925H126.641V237.97ZM125.141 236.17L124.901 234.58C127.436 234.58 130.826 234.55 133.736 234.175L133.856 235.6C130.901 236.095 127.646 236.17 125.141 236.17ZM132.026 236.515H135.086V237.88H132.026V236.515ZM129.371 228.925C131.396 228.925 132.821 229.93 132.821 231.4C132.821 232.885 131.396 233.875 129.371 233.875C127.331 233.875 125.906 232.885 125.906 231.4C125.906 229.93 127.331 228.925 129.371 228.925ZM129.371 230.38C128.441 230.38 127.796 230.725 127.796 231.4C127.796 232.075 128.441 232.42 129.371 232.42C130.286 232.42 130.931 232.075 130.931 231.4C130.931 230.725 130.286 230.38 129.371 230.38ZM138.46 239.155H151.03V240.79H138.46V239.155ZM143.71 236.02H145.705V239.89H143.71V236.02ZM139.42 229.585H149.995V231.175H139.42V229.585ZM139.48 235.12H149.95V236.68H139.48V235.12ZM141.31 230.905H143.305V235.3H141.31V230.905ZM146.125 230.905H148.105V235.3H146.125V230.905ZM161.483 228.46H163.493V238.435H161.483V228.46ZM154.238 240.505H163.838V242.095H154.238V240.505ZM154.238 237.43H156.233V241.15H154.238V237.43ZM155.933 229.33C158.063 229.33 159.698 230.8 159.698 232.855C159.698 234.895 158.063 236.38 155.933 236.38C153.803 236.38 152.153 234.895 152.153 232.855C152.153 230.8 153.803 229.33 155.933 229.33ZM155.933 231.055C154.898 231.055 154.103 231.715 154.103 232.855C154.103 233.98 154.898 234.64 155.933 234.64C156.953 234.64 157.748 233.98 157.748 232.855C157.748 231.715 156.953 231.055 155.933 231.055ZM166.927 235.6H176.692V237.16H166.927V235.6ZM165.457 239.125H178.027V240.745H165.457V239.125ZM166.927 229.45H176.572V231.055H168.952V236.035H166.927V229.45ZM168.337 232.51H176.257V234.055H168.337V232.51ZM185.961 231.505H189.441V233.11H185.961V231.505ZM182.781 229.015C184.866 229.015 186.441 230.41 186.441 232.33C186.441 234.265 184.866 235.645 182.781 235.645C180.681 235.645 179.106 234.265 179.106 232.33C179.106 230.41 180.681 229.015 182.781 229.015ZM182.781 230.68C181.761 230.68 181.011 231.295 181.011 232.33C181.011 233.365 181.761 233.995 182.781 233.995C183.801 233.995 184.536 233.365 184.536 232.33C184.536 231.295 183.801 230.68 182.781 230.68ZM188.571 228.445H190.566V235.915H188.571V228.445ZM181.341 236.515H183.321V237.835H188.586V236.515H190.566V242.185H181.341V236.515ZM183.321 239.365V240.595H188.586V239.365H183.321Z" fill="#7C63B0"/>
<rect width="1" height="226" transform="translate(28 292) rotate(-90)" fill="black"/>
<path d="M33.187 332.266C30.964 332.266 29.463 331.449 28.475 330.309L29.805 328.542C30.641 329.359 31.648 330.005 32.921 330.005C34.365 330.005 35.334 329.283 35.334 328.029C35.334 326.642 34.517 325.787 31.458 325.787V323.773C34.042 323.773 34.878 322.899 34.878 321.645C34.878 320.543 34.194 319.878 32.997 319.878C31.99 319.878 31.173 320.353 30.337 321.132L28.912 319.403C30.128 318.358 31.477 317.693 33.111 317.693C35.828 317.693 37.671 319.023 37.671 321.436C37.671 322.937 36.835 324.058 35.334 324.628V324.723C36.93 325.179 38.146 326.338 38.146 328.2C38.146 330.784 35.885 332.266 33.187 332.266ZM46.256 326.737C44.527 326.737 43.729 325.046 42.532 325.046C41.943 325.046 41.411 325.483 40.955 326.3L39.492 325.198C40.461 323.64 41.544 323.051 42.57 323.051C44.337 323.051 45.116 324.742 46.294 324.742C46.902 324.742 47.434 324.305 47.89 323.488L49.353 324.59C48.365 326.148 47.301 326.737 46.256 326.737ZM54.8981 332.266C52.6751 332.266 51.1931 331.392 50.1291 330.347L51.4401 328.58C52.2191 329.359 53.2261 330.005 54.5181 330.005C56.0001 330.005 57.0071 329.074 57.0071 327.402C57.0071 325.768 56.0571 324.856 54.6511 324.856C53.8151 324.856 53.3591 325.065 52.5421 325.597L51.2501 324.761L51.6491 317.94H59.1731V320.277H54.0621L53.7961 323.26C54.3471 323.013 54.8411 322.88 55.4871 322.88C57.8431 322.88 59.8191 324.267 59.8191 327.345C59.8191 330.461 57.4821 332.266 54.8981 332.266ZM70.7601 320.144H74.1041V322.196H70.7601V320.144ZM73.4391 316.097H75.9661V326.262H73.4391V316.097ZM64.2431 326.984H75.9661V333.501H64.2431V326.984ZM73.4961 328.96H66.7321V331.506H73.4961V328.96ZM65.3071 317.731H67.3591V318.833C67.3591 322.158 65.8011 325.198 62.4191 326.3L61.1461 324.305C64.0531 323.355 65.3071 321.056 65.3071 318.833V317.731ZM65.8391 317.731H67.8721V318.833C67.8721 320.885 69.0691 323.051 71.8431 323.982L70.6081 325.977C67.3401 324.894 65.8391 321.968 65.8391 318.833V317.731ZM61.8301 316.99H71.2921V318.985H61.8301V316.99ZM38.83 349.01H41.335V350.06H38.83V349.01ZM37.915 343.595H39.175V357.17H37.915V343.595ZM29.275 344.93H30.52V353.33H29.275V344.93ZM29.275 352.685H30.355C32.365 352.685 34.42 352.55 36.655 352.085L36.805 353.12C34.495 353.6 32.41 353.735 30.355 353.735H29.275V352.685ZM42.8038 344.825H49.0288V351.11H42.8038V344.825ZM47.8138 345.83H44.0188V350.105H47.8138V345.83ZM51.5188 343.595H52.7638V353.54H51.5188V343.595ZM52.3738 347.735H54.7738V348.77H52.3738V347.735ZM44.3188 355.85H53.3788V356.87H44.3188V355.85ZM44.3188 352.595H45.5638V356.285H44.3188V352.595ZM60.1427 344.585C62.2577 344.585 63.7727 345.89 63.7727 347.78C63.7727 349.685 62.2577 350.99 60.1427 350.99C58.0277 350.99 56.4977 349.685 56.4977 347.78C56.4977 345.89 58.0277 344.585 60.1427 344.585ZM60.1427 345.665C58.7327 345.665 57.7127 346.52 57.7127 347.78C57.7127 349.04 58.7327 349.91 60.1427 349.91C61.5377 349.91 62.5577 349.04 62.5577 347.78C62.5577 346.52 61.5377 345.665 60.1427 345.665ZM65.5427 343.595H66.7877V357.185H65.5427V343.595ZM55.9877 354.215L55.8077 353.18C58.2827 353.18 61.7027 353.165 64.6577 352.7L64.7627 353.615C61.7177 354.2 58.4027 354.215 55.9877 354.215ZM72.286 350.765H84.541V351.785H72.286V350.765ZM73.651 353.075H82.966V357.17H81.721V354.095H73.651V353.075ZM73.906 348.53H83.101V349.505H73.906V348.53ZM73.906 343.97H83.041V344.945H75.136V348.98H73.906V343.97ZM74.776 346.22H82.681V347.165H74.776V346.22ZM92.1898 345.53H96.0148V346.505H92.1898V345.53ZM92.1898 348.005H96.0148V348.98H92.1898V348.005ZM95.6998 343.61H96.9448V350.675H95.6998V343.61ZM88.2148 351.35H96.9448V354.56H89.4598V356.645H88.2448V353.63H95.7148V352.34H88.2148V351.35ZM88.2448 356H97.4398V356.99H88.2448V356ZM86.4598 344.225H87.6898V346.175H91.3648V344.225H92.5798V350.15H86.4598V344.225ZM87.6898 347.15V349.145H91.3648V347.15H87.6898ZM108.569 343.625H109.814V353.795H108.569V343.625ZM109.424 348.065H111.824V349.115H109.424V348.065ZM99.3286 345.26H107.339V346.265H99.3286V345.26ZM103.334 347.015C105.254 347.015 106.574 348.02 106.574 349.55C106.574 351.065 105.254 352.07 103.334 352.07C101.399 352.07 100.079 351.065 100.079 349.55C100.079 348.02 101.399 347.015 103.334 347.015ZM103.334 347.99C102.104 347.99 101.264 348.605 101.264 349.55C101.264 350.48 102.104 351.095 103.334 351.095C104.549 351.095 105.389 350.48 105.389 349.55C105.389 348.605 104.549 347.99 103.334 347.99ZM102.704 343.61H103.949V345.785H102.704V343.61ZM101.369 355.85H110.429V356.87H101.369V355.85ZM101.369 352.985H102.614V356.285H101.369V352.985ZM119.707 345.98H120.727V346.16C120.727 348.155 119.257 349.715 116.962 350.285L116.452 349.295C118.387 348.86 119.707 347.6 119.707 346.16V345.98ZM119.932 345.98H120.952V346.16C120.952 347.525 122.257 348.68 124.177 349.115L123.667 350.09C121.402 349.55 119.932 348.065 119.932 346.16V345.98ZM116.737 345.14H123.922V346.13H116.737V345.14ZM119.692 343.64H120.952V345.8H119.692V343.64ZM119.722 351.365H120.967V356.78H119.722V351.365ZM125.722 343.61H126.952V357.185H125.722V343.61ZM115.987 352.28L115.822 351.23C118.387 351.23 121.792 351.215 124.762 350.795L124.852 351.71C121.807 352.235 118.507 352.28 115.987 352.28ZM139.491 345.95H141.846V346.985H139.491V345.95ZM139.491 348.845H141.846V349.88H139.491V348.845ZM138.621 343.61H139.866V352.34H138.621V343.61ZM135.606 352.46C138.351 352.46 140.016 353.315 140.016 354.8C140.016 356.285 138.351 357.14 135.606 357.14C132.876 357.14 131.196 356.285 131.196 354.8C131.196 353.315 132.876 352.46 135.606 352.46ZM135.606 353.42C133.626 353.42 132.426 353.93 132.426 354.8C132.426 355.685 133.626 356.18 135.606 356.18C137.601 356.18 138.801 355.685 138.801 354.8C138.801 353.93 137.601 353.42 135.606 353.42ZM129.381 345.14H137.391V346.13H129.381V345.14ZM133.386 346.82C135.321 346.82 136.626 347.75 136.626 349.205C136.626 350.675 135.321 351.605 133.386 351.605C131.436 351.605 130.131 350.675 130.131 349.205C130.131 347.75 131.436 346.82 133.386 346.82ZM133.386 347.765C132.141 347.765 131.316 348.335 131.316 349.205C131.316 350.09 132.141 350.66 133.386 350.66C134.601 350.66 135.441 350.09 135.441 349.205C135.441 348.335 134.601 347.765 133.386 347.765ZM132.756 343.49H134.001V345.695H132.756V343.49ZM148.97 343.835C151.955 343.835 153.74 344.675 153.74 346.19C153.74 347.705 151.955 348.545 148.97 348.545C145.97 348.545 144.2 347.705 144.2 346.19C144.2 344.675 145.97 343.835 148.97 343.835ZM148.97 344.78C146.75 344.78 145.475 345.29 145.475 346.19C145.475 347.09 146.75 347.6 148.97 347.6C151.175 347.6 152.45 347.09 152.45 346.19C152.45 345.29 151.175 344.78 148.97 344.78ZM142.835 349.445H155.09V350.45H142.835V349.445ZM144.32 351.605H153.53V354.665H145.58V356.315H144.35V353.765H152.3V352.565H144.32V351.605ZM144.35 356.045H153.935V357.02H144.35V356.045ZM168.568 343.595H169.828V357.17H168.568V343.595ZM169.483 349.1H171.988V350.135H169.483V349.1ZM165.103 345.065H166.318C166.318 348.92 164.548 352.4 160.168 354.605L159.478 353.645C163.228 351.74 165.103 348.845 165.103 345.26V345.065ZM160.108 345.065H165.748V346.085H160.108V345.065ZM176.502 345.095H177.537V346.475C177.537 348.965 176.007 351.05 173.727 351.875L173.082 350.885C175.122 350.165 176.502 348.41 176.502 346.475V345.095ZM176.742 345.095H177.777V346.475C177.777 348.305 179.187 349.955 181.197 350.63L180.552 351.605C178.302 350.84 176.742 348.86 176.742 346.475V345.095ZM173.412 344.735H180.837V345.74H173.412V344.735ZM182.757 343.625H184.017V353.54H182.757V343.625ZM175.302 355.85H184.422V356.87H175.302V355.85ZM175.302 352.61H176.532V356.3H175.302V352.61ZM198.74 343.61H199.985V351.665H198.74V343.61ZM199.625 347.135H201.98V348.17H199.625V347.135ZM195.65 351.95C198.395 351.95 200.105 352.925 200.105 354.56C200.105 356.195 198.395 357.155 195.65 357.155C192.905 357.155 191.195 356.195 191.195 354.56C191.195 352.925 192.905 351.95 195.65 351.95ZM195.65 352.97C193.64 352.97 192.41 353.54 192.41 354.56C192.41 355.55 193.64 356.135 195.65 356.135C197.66 356.135 198.89 355.55 198.89 354.56C198.89 353.54 197.66 352.97 195.65 352.97ZM190.055 349.58H191.105C193.91 349.58 195.485 349.49 197.3 349.115L197.45 350.135C195.575 350.51 193.97 350.6 191.105 350.6H190.055V349.58ZM190.055 344.645H196.04V345.665H191.285V350.24H190.055V344.645ZM212.809 343.625H214.069V353.555H212.809V343.625ZM205.354 355.85H214.474V356.87H205.354V355.85ZM205.354 352.64H206.584V356.33H205.354V352.64ZM206.479 344.36H207.514V345.74C207.514 348.38 206.014 350.69 203.734 351.62L203.089 350.615C205.129 349.82 206.479 347.84 206.479 345.74V344.36ZM206.704 344.36H207.724V345.74C207.724 347.78 209.089 349.625 211.114 350.36L210.454 351.365C208.204 350.495 206.704 348.32 206.704 345.74V344.36ZM216.813 358.85L216.498 358.055C217.428 357.635 217.998 356.885 217.998 355.97L217.848 354.74L218.508 355.73C218.328 355.955 218.088 356.03 217.818 356.03C217.293 356.03 216.828 355.685 216.828 355.07C216.828 354.47 217.293 354.11 217.848 354.11C218.568 354.11 219.003 354.725 219.003 355.715C219.003 357.17 218.178 358.295 216.813 358.85ZM39.55 369.65V377.255H36.985V367.325H42.475V369.65H39.55ZM37.48 367.82V376.76H39.055V369.17H41.98V367.82H37.48ZM45.025 374.915H54.34V375.92H45.025V374.915ZM43.45 378.395H55.735V379.43H43.45V378.395ZM45.025 368.765H54.19V369.785H46.285V375.23H45.025V368.765ZM45.88 371.795H53.905V372.785H45.88V371.795ZM57.5638 374.705H58.4338C60.3238 374.705 61.7188 374.66 63.3688 374.33L63.5038 375.32C61.7938 375.65 60.3688 375.725 58.4338 375.725H57.5638V374.705ZM57.5338 368.705H62.3338V372.62H58.7638V375.2H57.5638V371.66H61.1188V369.71H57.5338V368.705ZM62.8588 371.36H65.3638V372.38H62.8588V371.36ZM67.1788 367.61H68.3638V377.81H67.1788V367.61ZM64.5238 367.865H65.6938V377.465H64.5238V367.865ZM59.5288 379.85H68.7838V380.87H59.5288V379.85ZM59.5288 376.805H60.7738V380.495H59.5288V376.805ZM71.9927 374.105H81.3077V375.125H71.9927V374.105ZM70.4477 378.305H82.7327V379.34H70.4477V378.305ZM71.9927 368.855H81.1727V369.89H73.2377V374.555H71.9927V368.855ZM88.456 368.93H97.066V369.95H88.456V368.93ZM86.986 378.305H99.241V379.325H86.986V378.305ZM96.556 368.93H97.771V370.22C97.771 371.87 97.771 373.73 97.216 376.505L95.971 376.355C96.556 373.73 96.556 371.825 96.556 370.22V368.93ZM96.826 372.185V373.13L88.276 373.61L88.081 372.53L96.826 372.185ZM91.756 374.795H93.001V378.68H91.756V374.795ZM110.37 367.595H111.615V381.185H110.37V367.595ZM101.28 376.88H102.405C104.67 376.88 106.695 376.79 109.095 376.4L109.23 377.42C106.77 377.825 104.73 377.915 102.405 377.915H101.28V376.88ZM101.25 368.87H107.52V373.715H102.525V377.27H101.28V372.695H106.26V369.89H101.25V368.87ZM117.599 368.645C119.594 368.645 121.004 370.49 121.004 373.37C121.004 376.265 119.594 378.11 117.599 378.11C115.604 378.11 114.194 376.265 114.194 373.37C114.194 370.49 115.604 368.645 117.599 368.645ZM117.599 369.77C116.279 369.77 115.379 371.18 115.379 373.37C115.379 375.575 116.279 377.015 117.599 377.015C118.904 377.015 119.819 375.575 119.819 373.37C119.819 371.18 118.904 369.77 117.599 369.77ZM123.164 367.61H124.424V381.17H123.164V367.61ZM124.124 373.025H126.644V374.075H124.124V373.025ZM130.462 380V379.205C133.912 376.19 135.487 373.985 135.487 372.11C135.487 370.85 134.842 369.92 133.477 369.92C132.577 369.92 131.797 370.475 131.182 371.195L130.387 370.43C131.287 369.455 132.247 368.81 133.642 368.81C135.607 368.81 136.837 370.085 136.837 372.05C136.837 374.255 135.112 376.49 132.517 378.935C133.102 378.875 133.762 378.83 134.317 378.83H137.362V380H130.462ZM141.992 380.21C139.892 380.21 138.557 378.305 138.557 374.465C138.557 370.655 139.892 368.81 141.992 368.81C144.062 368.81 145.397 370.655 145.397 374.465C145.397 378.305 144.062 380.21 141.992 380.21ZM141.992 379.1C143.237 379.1 144.077 377.705 144.077 374.465C144.077 371.27 143.237 369.905 141.992 369.905C140.732 369.905 139.877 371.27 139.877 374.465C139.877 377.705 140.732 379.1 141.992 379.1ZM146.503 380V379.205C149.953 376.19 151.528 373.985 151.528 372.11C151.528 370.85 150.883 369.92 149.518 369.92C148.618 369.92 147.838 370.475 147.223 371.195L146.428 370.43C147.328 369.455 148.288 368.81 149.683 368.81C151.648 368.81 152.878 370.085 152.878 372.05C152.878 374.255 151.153 376.49 148.558 378.935C149.143 378.875 149.803 378.83 150.358 378.83H153.403V380H146.503ZM157.778 380.21C156.068 380.21 155.018 379.49 154.268 378.74L154.958 377.84C155.573 378.485 156.383 379.07 157.643 379.07C158.948 379.07 159.983 378.065 159.983 376.475C159.983 374.9 159.083 373.955 157.718 373.955C156.983 373.955 156.518 374.195 155.888 374.615L155.153 374.15L155.498 369.005H160.853V370.175H156.698L156.413 373.355C156.908 373.085 157.403 372.92 158.063 372.92C159.893 372.92 161.378 374 161.378 376.43C161.378 378.83 159.623 380.21 157.778 380.21ZM165.318 378.965V371.36H167.883V381.29H162.393V378.965H165.318ZM167.388 380.795V371.855H165.813V379.445H162.888V380.795H167.388ZM175.623 372.875H178.188V373.91H175.623V372.875ZM180.453 367.61H181.653V381.17H180.453V367.61ZM177.768 367.895H178.953V380.495H177.768V367.895ZM173.178 368.735C174.933 368.735 176.073 370.55 176.073 373.46C176.073 376.37 174.933 378.185 173.178 378.185C171.423 378.185 170.298 376.37 170.298 373.46C170.298 370.55 171.423 368.735 173.178 368.735ZM173.178 369.89C172.113 369.89 171.438 371.27 171.438 373.46C171.438 375.65 172.113 377.03 173.178 377.03C174.258 377.03 174.933 375.65 174.933 373.46C174.933 371.27 174.258 369.89 173.178 369.89ZM197.007 367.61H198.207V381.17H197.007V367.61ZM191.127 373.145H194.547V374.15H191.127V373.145ZM194.187 367.955H195.357V380.48H194.187V367.955ZM191.292 369.32H192.492C192.492 372.875 191.067 376.07 187.407 378.245L186.672 377.36C189.867 375.44 191.292 372.74 191.292 369.545V369.32ZM187.272 369.32H191.757V370.34H187.272V369.32ZM210.55 367.61H211.735V381.17H210.55V367.61ZM208.405 373.07H211.015V374.12H208.405V373.07ZM207.595 367.895H208.765V380.495H207.595V367.895ZM202.975 369.71H203.95V371.27C203.95 374.525 202.885 377.135 200.8 378.38L200.035 377.42C201.985 376.34 202.975 374.03 202.975 371.27V369.71ZM203.2 369.71H204.175V371.27C204.175 373.76 205.18 375.965 207.085 376.94L206.35 377.9C204.28 376.76 203.2 374.255 203.2 371.27V369.71ZM200.35 369.2H206.65V370.235H200.35V369.2ZM214.944 372.035H221.484V373.055H214.944V372.035ZM217.554 372.65H218.799V375.365H217.554V372.65ZM214.944 368.495H221.394V369.515H216.189V372.485H214.944V368.495ZM223.524 367.61H224.769V377.75H223.524V367.61ZM216.009 379.85H225.219V380.87H216.009V379.85ZM216.009 377.09H217.239V380.285H216.009V377.09ZM213.909 376.04L213.744 375.02C216.354 375.02 219.654 374.96 222.444 374.63L222.519 375.545C219.654 375.965 216.444 376.04 213.909 376.04ZM215.143 393.02H216.343C216.343 396.935 214.963 400.565 210.073 402.965L209.398 401.99C213.688 399.89 215.143 396.86 215.143 393.155V393.02ZM210.133 393.02H215.773V394.025H210.133V393.02ZM214.963 396.38V397.34L209.668 397.835L209.458 396.74L214.963 396.38ZM219.013 391.61H220.258V405.17H219.013V391.61ZM226.317 399.185H227.547V404.75H226.317V399.185ZM232.527 391.61H233.772V405.185H232.527V391.61ZM222.747 399.8L222.582 398.75C225.147 398.75 228.552 398.735 231.492 398.315L231.567 399.245C228.537 399.755 225.267 399.8 222.747 399.8ZM229.452 400.865H232.842V401.84H229.452V400.865ZM227.007 392.285C229.002 392.285 230.397 393.35 230.397 394.955C230.397 396.56 229.002 397.625 227.007 397.625C224.982 397.625 223.602 396.56 223.602 394.955C223.602 393.35 224.982 392.285 227.007 392.285ZM227.007 393.245C225.687 393.245 224.757 393.95 224.757 394.955C224.757 395.975 225.687 396.665 227.007 396.665C228.297 396.665 229.227 395.975 229.227 394.955C229.227 393.95 228.297 393.245 227.007 393.245ZM237.686 398.105H247.001V399.125H237.686V398.105ZM236.141 402.305H248.426V403.34H236.141V402.305ZM237.686 392.855H246.866V393.89H238.931V398.555H237.686V392.855ZM34.24 420.875H36.805V421.91H34.24V420.875ZM39.07 415.61H40.27V429.17H39.07V415.61ZM36.385 415.895H37.57V428.495H36.385V415.895ZM31.795 416.735C33.55 416.735 34.69 418.55 34.69 421.46C34.69 424.37 33.55 426.185 31.795 426.185C30.04 426.185 28.915 424.37 28.915 421.46C28.915 418.55 30.04 416.735 31.795 416.735ZM31.795 417.89C30.73 417.89 30.055 419.27 30.055 421.46C30.055 423.65 30.73 425.03 31.795 425.03C32.875 425.03 33.55 423.65 33.55 421.46C33.55 419.27 32.875 417.89 31.795 417.89ZM50.7333 416.945H51.8133V417.515C51.8133 419.945 49.2333 421.73 46.5033 422.195L46.0233 421.205C48.4083 420.86 50.7333 419.3 50.7333 417.515V416.945ZM51.0483 416.945H52.1133V417.515C52.1133 419.3 54.4533 420.86 56.8233 421.205L56.3583 422.195C53.6133 421.73 51.0483 419.945 51.0483 417.515V416.945ZM50.7783 423.995H52.0083V429.17H50.7783V423.995ZM45.3033 423.335H57.5583V424.355H45.3033V423.335ZM46.4433 416.45H56.3733V417.455H46.4433V416.45ZM60.3621 416.165H69.4821V420.785H60.3621V416.165ZM68.2521 417.17H61.5771V419.78H68.2521V417.17ZM58.7871 422.48H71.0421V423.485H58.7871V422.48ZM64.3071 420.515H65.5371V422.855H64.3071V420.515ZM60.1521 424.88H69.5271V429.17H68.2821V425.9H60.1521V424.88ZM72.271 417.92H78.991V418.94H72.271V417.92ZM75.631 419.84C77.326 419.84 78.556 421.115 78.556 422.945C78.556 424.76 77.326 426.035 75.631 426.035C73.951 426.035 72.721 424.76 72.721 422.945C72.721 421.115 73.951 419.84 75.631 419.84ZM75.631 420.905C74.596 420.905 73.846 421.745 73.846 422.945C73.846 424.145 74.596 424.985 75.631 424.985C76.681 424.985 77.446 424.145 77.446 422.945C77.446 421.745 76.681 420.905 75.631 420.905ZM82.576 415.61H83.776V429.17H82.576V415.61ZM80.416 421.31H82.981V422.345H80.416V421.31ZM79.681 415.91H80.851V428.51H79.681V415.91ZM75.031 416H76.261V418.55H75.031V416ZM88.8543 426.41H101.139V427.445H88.8543V426.41ZM94.3443 423.17H95.5893V426.71H94.3443V423.17ZM90.2943 416.57H91.5243V418.985H98.4393V416.57H99.6693V423.5H90.2943V416.57ZM91.5243 419.99V422.48H98.4393V419.99H91.5243ZM107.693 420.455H110.288V421.49H107.693V420.455ZM105.158 416.885H106.133V419.465C106.133 422.3 104.948 425.045 102.968 426.26L102.188 425.315C104.048 424.22 105.158 421.79 105.158 419.465V416.885ZM105.398 416.885H106.358V419.42C106.358 421.595 107.378 423.905 109.163 424.985L108.443 425.96C106.493 424.76 105.398 422.06 105.398 419.42V416.885ZM112.673 415.61H113.873V429.17H112.673V415.61ZM109.928 415.895H111.098V428.495H109.928V415.895ZM118.852 422.585H120.082V426.65H118.852V422.585ZM123.862 422.585H125.107V426.65H123.862V422.585ZM115.852 426.41H128.137V427.445H115.852V426.41ZM121.972 416.465C124.837 416.465 126.892 417.83 126.892 419.96C126.892 422.075 124.837 423.44 121.972 423.44C119.092 423.44 117.037 422.075 117.037 419.96C117.037 417.83 119.092 416.465 121.972 416.465ZM121.972 417.455C119.797 417.455 118.237 418.445 118.237 419.96C118.237 421.46 119.797 422.45 121.972 422.45C124.147 422.45 125.692 421.46 125.692 419.96C125.692 418.445 124.147 417.455 121.972 417.455ZM130.551 424.685L130.356 418.34L130.326 416.765H131.706L131.676 418.34L131.481 424.685H130.551ZM131.001 428.21C130.461 428.21 130.026 427.775 130.026 427.16C130.026 426.53 130.461 426.11 131.001 426.11C131.556 426.11 132.006 426.53 132.006 427.16C132.006 427.775 131.556 428.21 131.001 428.21Z" fill="black"/>
<path d="M33.865 396.515H35.845V398.54H33.865V396.515ZM34.885 391.64C37.945 391.64 39.91 392.66 39.91 394.34C39.91 396.02 37.945 397.04 34.885 397.04C31.825 397.04 29.86 396.02 29.86 394.34C29.86 392.66 31.825 391.64 34.885 391.64ZM34.885 393.17C32.98 393.17 31.915 393.56 31.915 394.34C31.915 395.135 32.98 395.51 34.885 395.51C36.775 395.51 37.855 395.135 37.855 394.34C37.855 393.56 36.775 393.17 34.885 393.17ZM30.055 400.445H39.655V405.185H30.055V400.445ZM37.705 402.02H32.02V403.61H37.705V402.02ZM28.6 397.97H41.155V399.545H28.6V397.97ZM51.7138 391.445H53.7088V405.335H51.7138V391.445ZM42.8338 392.765H44.8138V401.39H42.8338V392.765ZM42.8338 400.22H44.0638C46.0888 400.22 48.3388 400.07 50.6338 399.62L50.8588 401.27C48.4738 401.765 46.1788 401.915 44.0638 401.915H42.8338V400.22ZM55.6127 402.11H68.1827V403.73H55.6127V402.11ZM60.8777 399.14H62.8727V402.5H60.8777V399.14ZM56.9327 392.33H58.9127V394.46H64.8377V392.33H66.8177V399.56H56.9327V392.33ZM58.9127 396.02V397.97H64.8377V396.02H58.9127ZM72.9065 392.405C74.9765 392.405 76.4915 394.325 76.4915 397.355C76.4915 400.415 74.9765 402.335 72.9065 402.335C70.8215 402.335 69.3215 400.415 69.3215 397.355C69.3215 394.325 70.8215 392.405 72.9065 392.405ZM72.9065 394.22C71.9015 394.22 71.2265 395.315 71.2265 397.355C71.2265 399.425 71.9015 400.535 72.9065 400.535C73.9265 400.535 74.5865 399.425 74.5865 397.355C74.5865 395.315 73.9265 394.22 72.9065 394.22ZM78.7715 391.43H80.7515V405.365H78.7715V391.43ZM75.9065 396.44H79.6115V398.045H75.9065V396.44ZM83.2403 407.21L82.7903 406.01C83.9603 405.575 84.6053 404.78 84.5903 403.895L84.5153 402.335L85.2953 403.625C85.0703 403.85 84.7703 403.955 84.4403 403.955C83.7203 403.955 83.0603 403.475 83.0603 402.65C83.0603 401.855 83.7053 401.345 84.5003 401.345C85.5053 401.345 86.0753 402.155 86.0753 403.505C86.0753 405.275 85.0703 406.61 83.2403 407.21ZM91.7567 398.315H101.522V399.89H91.7567V398.315ZM90.2867 402.2H102.857V403.805H90.2867V402.2ZM95.5667 399.11H97.5617V402.905H95.5667V399.11ZM91.7567 392.39H101.402V393.98H93.7817V398.915H91.7567V392.39ZM93.1667 395.33H101.087V396.89H93.1667V395.33ZM104.371 392.48H111.856V394.085H104.371V392.48ZM104.221 399.26L104.011 397.64C106.336 397.64 109.636 397.595 112.366 397.235L112.516 398.675C109.726 399.2 106.516 399.26 104.221 399.26ZM105.466 393.755H107.371V398.39H105.466V393.755ZM108.826 393.755H110.761V398.39H108.826V393.755ZM113.311 391.46H115.321V399.815H113.311V391.46ZM110.641 400.085C113.581 400.085 115.411 401.045 115.411 402.695C115.411 404.375 113.581 405.335 110.641 405.335C107.701 405.335 105.901 404.375 105.901 402.695C105.901 401.045 107.701 400.085 110.641 400.085ZM110.641 401.6C108.826 401.6 107.881 401.96 107.881 402.695C107.881 403.46 108.826 403.82 110.641 403.82C112.471 403.82 113.416 403.46 113.416 402.695C113.416 401.96 112.471 401.6 110.641 401.6ZM123.959 393.635H127.214V395.225H123.959V393.635ZM123.854 396.515H127.109V398.105H123.854V396.515ZM126.899 391.445H128.894V399.44H126.899V391.445ZM122.369 392.39H124.499C124.499 396.17 122.369 398.6 118.154 399.755L117.374 398.18C120.899 397.265 122.369 395.525 122.369 393.35V392.39ZM118.139 392.39H123.764V393.98H118.139V392.39ZM124.289 399.62C127.109 399.62 128.984 400.7 128.984 402.44C128.984 404.18 127.109 405.275 124.289 405.275C121.469 405.275 119.594 404.18 119.594 402.44C119.594 400.7 121.469 399.62 124.289 399.62ZM124.289 401.15C122.594 401.15 121.574 401.585 121.574 402.44C121.574 403.295 122.594 403.715 124.289 403.715C125.999 403.715 127.019 403.295 127.019 402.44C127.019 401.585 125.999 401.15 124.289 401.15ZM140.803 391.445H142.693V405.335H140.803V391.445ZM136.228 396.185H138.523V397.805H136.228V396.185ZM137.998 391.67H139.858V404.705H137.998V391.67ZM133.228 393.71H134.728V395.135C134.728 398.255 133.873 401.36 131.668 402.74L130.483 401.27C132.523 399.995 133.228 397.505 133.228 395.135V393.71ZM133.678 393.71H135.163V395.135C135.163 397.445 135.853 399.785 137.863 400.955L136.693 402.41C134.488 401.105 133.678 398.195 133.678 395.135V393.71ZM131.008 392.84H137.203V394.445H131.008V392.84ZM144.912 407.21L144.462 406.01C145.632 405.575 146.277 404.78 146.262 403.895L146.187 402.335L146.967 403.625C146.742 403.85 146.442 403.955 146.112 403.955C145.392 403.955 144.732 403.475 144.732 402.65C144.732 401.855 145.377 401.345 146.172 401.345C147.177 401.345 147.747 402.155 147.747 403.505C147.747 405.275 146.742 406.61 144.912 407.21ZM157.208 398.12H159.203V400.055H157.208V398.12ZM151.943 396.95H164.498V398.51H151.943V396.95ZM153.488 391.85H162.908V396.215H153.488V391.85ZM160.943 393.395H155.453V394.685H160.943V393.395ZM153.383 399.38H162.983V402.95H155.363V404.18H153.398V401.57H161.018V400.865H153.383V399.38ZM153.398 403.745H163.343V405.245H153.398V403.745ZM168.667 392.165H170.332V393.41C170.332 396.2 169.087 398.645 166.357 399.56L165.322 397.955C167.692 397.19 168.667 395.315 168.667 393.41V392.165ZM169.087 392.165H170.692V393.32C170.692 395.165 171.592 396.875 173.797 397.58L172.762 399.14C170.197 398.255 169.087 396.02 169.087 393.32V392.165ZM175.072 391.445H177.067V399.575H175.072V391.445ZM172.357 399.935C175.297 399.935 177.112 400.94 177.112 402.635C177.112 404.345 175.297 405.335 172.357 405.335C169.417 405.335 167.602 404.345 167.602 402.635C167.602 400.94 169.417 399.935 172.357 399.935ZM172.357 401.48C170.557 401.48 169.597 401.855 169.597 402.635C169.597 403.415 170.557 403.805 172.357 403.805C174.172 403.805 175.132 403.415 175.132 402.635C175.132 401.855 174.172 401.48 172.357 401.48ZM172.537 393.965H175.357V395.585H172.537V393.965ZM188.976 391.445H190.881V405.335H188.976V391.445ZM187.311 396.74H189.606V398.345H187.311V396.74ZM185.931 391.655H187.806V404.705H185.931V391.655ZM179.331 392.87H184.821V401.87H179.331V392.87ZM182.961 394.43H181.191V400.31H182.961V394.43ZM192.965 398.06H194.03C196.61 398.06 197.96 398.015 199.535 397.73L199.73 399.305C198.11 399.605 196.685 399.65 194.03 399.65H192.965V398.06ZM192.95 392.24H199.055V396.62H194.945V399.11H192.965V395.135H197.075V393.815H192.95V392.24ZM202.07 391.46H204.065V400.01H202.07V391.46ZM199.85 393.365H202.43V394.955H199.85V393.365ZM199.85 396.32H202.43V397.91H199.85V396.32ZM194.555 400.64H204.065V405.35H202.07V402.23H194.555V400.64Z" fill="#7C63B0"/>
</svg>
