<?xml version="1.0" encoding="UTF-8"?>
<svg id="_레이어_1" data-name="레이어_1" xmlns="http://www.w3.org/2000/svg" version="1.1" viewBox="0 0 116 87">
  <!-- Generator: Adobe Illustrator 29.0.1, SVG Export Plug-In . SVG Version: 2.1.0 Build 192)  -->
  <defs>
    <style>
      .st0 {
        fill: #fff;
      }

      .st1 {
        fill: #be221d;
      }
    </style>
  </defs>
  <path class="st0" d="M8,87c4.4,0,8-3.6,8-8s-3.6-8-8-8-8,3.6-8,8,3.6,8,8,8Z"/>
  <path class="st0" d="M101.5,26c-5.3,0-9.9,2.8-12.4,7.1-2.6-4.2-7.2-7.1-12.4-7.1-8,0-14.6,6.6-14.6,14.7,0,17.1,27,34.3,27,34.3,0,0,27-19.6,27-34.3,0-8.1-6.5-14.7-14.5-14.7Z"/>
  <path class="st1" d="M51.2,0c-2.8,0-5.3,1.5-6.7,3.8-1.4-2.2-3.8-3.8-6.7-3.8-4.3,0-7.8,3.5-7.8,7.8,0,9.1,14.5,18.2,14.5,18.2,0,0,14.5-10.4,14.5-18.2s-3.5-7.8-7.8-7.8Z"/>
</svg>