<svg width="143" height="72" viewBox="0 0 143 72" fill="none" xmlns="http://www.w3.org/2000/svg">
<path d="M116.6 0H25.46C11.4 0 0 11.4 0 25.46C0 39.52 11.4 50.92 25.46 50.92H93.6L103.8 71.33L114 50.92H116.59C130.65 50.92 142.05 39.52 142.05 25.46C142.06 11.4 130.66 0 116.6 0Z" fill="white"/>
<path d="M42.0699 25.46C42.0699 28.06 39.9599 30.16 37.3699 30.16C34.7699 30.16 32.6699 28.05 32.6699 25.46C32.6699 22.86 34.7799 20.76 37.3699 20.76C39.9699 20.75 42.0699 22.86 42.0699 25.46Z" fill="#BE221D"/>
<path d="M71.0301 30.16C73.6258 30.16 75.7301 28.0558 75.7301 25.46C75.7301 22.8643 73.6258 20.76 71.0301 20.76C68.4343 20.76 66.3301 22.8643 66.3301 25.46C66.3301 28.0558 68.4343 30.16 71.0301 30.16Z" fill="#BE221D"/>
<path d="M109.4 25.46C109.4 28.06 107.29 30.16 104.7 30.16C102.11 30.16 100 28.05 100 25.46C100 22.86 102.11 20.76 104.7 20.76C107.29 20.76 109.4 22.86 109.4 25.46Z" fill="#BE221D"/>
</svg>
