<svg width="141" height="131" viewBox="0 0 141 131" fill="none" xmlns="http://www.w3.org/2000/svg">
<path d="M123.32 0H17.54C7.85001 0 0 7.85001 0 17.54V59.04V103.21V130.8L18.11 103.21H123.33C133.02 103.21 140.87 95.36 140.87 85.67V17.54C140.86 7.85001 133.01 0 123.32 0Z" fill="#BE221D"/>
<path d="M43.3781 52.7218C44.0038 48.6885 41.2415 44.9118 37.2082 44.2861C33.175 43.6604 29.3982 46.4228 28.7725 50.456C28.1469 54.4892 30.9092 58.266 34.9425 58.8917C38.9757 59.5174 42.7525 56.755 43.3781 52.7218Z" fill="#FAFAFA"/>
<path d="M75.651 56.8267C78.537 53.9407 78.537 49.2617 75.651 46.3757C72.7651 43.4898 68.086 43.4898 65.2001 46.3757C62.3141 49.2617 62.3141 53.9407 65.2001 56.8267C68.086 59.7126 72.7651 59.7126 75.651 56.8267Z" fill="#FAFAFA"/>
<path d="M110.011 56.8275C112.897 53.9415 112.897 49.2625 110.011 46.3765C107.125 43.4906 102.446 43.4906 99.5599 46.3765C96.674 49.2625 96.674 53.9415 99.56 56.8275C102.446 59.7134 107.125 59.7134 110.011 56.8275Z" fill="#FAFAFA"/>
</svg>
