<svg width="640" height="399" viewBox="0 0 640 399" fill="none" xmlns="http://www.w3.org/2000/svg">
<path d="M65.3296 142.16C68.9194 142.16 71.8296 139.25 71.8296 135.66C71.8296 132.07 68.9194 129.16 65.3296 129.16C61.7397 129.16 58.8296 132.07 58.8296 135.66C58.8296 139.25 61.7397 142.16 65.3296 142.16Z" fill="white"/>
<path d="M632.88 273.41C636.47 273.41 639.38 270.5 639.38 266.91C639.38 263.32 636.47 260.41 632.88 260.41C629.29 260.41 626.38 263.32 626.38 266.91C626.38 270.5 629.29 273.41 632.88 273.41Z" fill="white"/>
<path d="M157.47 249.29C161.06 249.29 163.97 246.38 163.97 242.79C163.97 239.2 161.06 236.29 157.47 236.29C153.88 236.29 150.97 239.2 150.97 242.79C150.97 246.38 153.88 249.29 157.47 249.29Z" fill="white"/>
<path d="M561.77 97.58C534.5 70.31 491.98 67.63 461.69 89.5L436.84 82.24L444.1 107.09C422.23 137.38 424.92 179.9 452.18 207.17C482.44 237.43 531.5 237.43 561.76 207.17C592.03 176.9 592.03 127.84 561.77 97.58Z" fill="white" stroke="#5D3100" stroke-width="1.5" stroke-miterlimit="10"/>
<path d="M522.5 122.13C515.93 122.13 510.17 125.62 506.98 130.85C503.79 125.62 498.03 122.13 491.46 122.13C481.43 122.13 473.29 130.26 473.29 140.29C473.29 161.4 506.98 182.61 506.98 182.61C506.98 182.61 540.66 158.46 540.66 140.29C540.67 130.26 532.53 122.13 522.5 122.13Z" fill="#FF7D3F"/>
<path d="M138.86 94C134.69 94 131.03 96.22 129 99.54C126.97 96.22 123.32 94 119.14 94C112.77 94 107.6 99.16 107.6 105.54C107.6 118.95 128.99 132.41 128.99 132.41C128.99 132.41 150.38 117.07 150.38 105.54C150.4 99.17 145.23 94 138.86 94Z" fill="white" stroke="#5D3100" stroke-width="1.5" stroke-miterlimit="10"/>
<path d="M117.4 177.48H26.2598C12.1998 177.48 0.799805 188.88 0.799805 202.94C0.799805 217 12.1998 228.4 26.2598 228.4H94.3998L104.6 248.81L114.8 228.4H117.39C131.45 228.4 142.85 217 142.85 202.94C142.86 188.88 131.46 177.48 117.4 177.48Z" fill="white" stroke="#5D3100" stroke-width="1.5" stroke-miterlimit="10"/>
<path d="M42.8697 202.94C42.8697 205.54 40.7597 207.64 38.1697 207.64C35.5697 207.64 33.4697 205.53 33.4697 202.94C33.4697 200.34 35.5797 198.24 38.1697 198.24C40.7697 198.23 42.8697 200.34 42.8697 202.94Z" fill="#FF7D3F"/>
<path d="M71.8299 207.64C74.4256 207.64 76.5299 205.536 76.5299 202.94C76.5299 200.344 74.4256 198.24 71.8299 198.24C69.2341 198.24 67.1299 200.344 67.1299 202.94C67.1299 205.536 69.2341 207.64 71.8299 207.64Z" fill="#FF7D3F"/>
<path d="M110.2 202.94C110.2 205.54 108.09 207.64 105.5 207.64C102.91 207.64 100.8 205.53 100.8 202.94C100.8 200.34 102.91 198.24 105.5 198.24C108.09 198.24 110.2 200.34 110.2 202.94Z" fill="#FF7D3F"/>
<path d="M210.36 265.13H104.58C94.89 265.13 87.04 272.98 87.04 282.67V324.17V368.34V395.93L105.15 368.34H210.37C220.06 368.34 227.91 360.49 227.91 350.8V282.67C227.9 272.98 220.05 265.13 210.36 265.13Z" fill="#FF7D3F" stroke="#5D3100" stroke-width="1.5" stroke-miterlimit="10"/>
<path d="M130.418 317.852C131.044 313.819 128.281 310.042 124.248 309.416C120.215 308.791 116.438 311.553 115.813 315.586C115.187 319.619 117.949 323.396 121.983 324.022C126.016 324.647 129.792 321.885 130.418 317.852Z" fill="#FAFAFA"/>
<path d="M162.691 321.957C165.577 319.071 165.577 314.392 162.691 311.506C159.805 308.62 155.126 308.62 152.24 311.506C149.354 314.392 149.354 319.071 152.24 321.957C155.126 324.843 159.805 324.843 162.691 321.957Z" fill="#FAFAFA"/>
<path d="M197.051 321.957C199.937 319.071 199.937 314.392 197.051 311.506C194.165 308.621 189.486 308.621 186.6 311.506C183.714 314.392 183.714 319.071 186.6 321.957C189.486 324.843 194.165 324.843 197.051 321.957Z" fill="#FAFAFA"/>
<path d="M99.3297 73.03C97.0797 73.03 95.1097 74.23 94.0097 76.02C92.9197 74.23 90.9497 73.03 88.6897 73.03C85.2497 73.03 82.4697 75.82 82.4697 79.25C82.4697 86.48 94.0097 93.74 94.0097 93.74C94.0097 93.74 105.55 85.47 105.55 79.25C105.55 75.81 102.76 73.03 99.3297 73.03Z" fill="#FF7D3F" stroke="#5D3100" stroke-width="1.5" stroke-miterlimit="10"/>
<path d="M414.09 60.11H472.96C472.96 27.6 446.6 1.23999 414.09 1.23999C381.58 1.23999 355.22 27.6 355.22 60.11C355.22 92.62 381.58 118.98 414.09 118.98V60.11Z" fill="#FFD92F" stroke="#5D3100" stroke-width="1.5" stroke-miterlimit="10"/>
<path d="M425.82 42.1799C428.056 42.1799 429.87 38.8221 429.87 34.6799C429.87 30.5378 428.056 27.1799 425.82 27.1799C423.583 27.1799 421.77 30.5378 421.77 34.6799C421.77 38.8221 423.583 42.1799 425.82 42.1799Z" fill="#5D3100"/>
<path d="M441.45 42.1799C443.687 42.1799 445.5 38.8221 445.5 34.6799C445.5 30.5378 443.687 27.1799 441.45 27.1799C439.213 27.1799 437.4 30.5378 437.4 34.6799C437.4 38.8221 439.213 42.1799 441.45 42.1799Z" fill="#5D3100"/>
<path d="M341.52 250.96C351.19 250.96 358.72 252.39 364.22 255.4C374.25 261.16 374.85 272.91 369.96 283.95H373.55V299.43H343.56V305.3H381.67V322.7H281.33V305.3H320.27V299.43H291V258.29H291.12C312.02 253.49 328.74 250.97 341.53 250.97H341.52V250.96ZM348.45 346.81C345.58 345.13 340.57 344.42 334.59 344.42C322.52 344.42 306.4 347.18 293.74 351.14L288.96 334.1C303.65 328.94 321.45 326.18 336.97 326.18C348.55 326.18 358.82 327.74 365.52 330.86C378.3 336.86 382.36 350.05 366.48 373.09L344.99 367.58C353.47 354.75 355.49 351.03 348.45 346.83V346.81ZM336.38 266.91C330.28 266.91 322.41 268 313.09 269.55V283.94H347.01C350.47 277.94 352.03 270.98 345.58 268.23C343.31 267.4 340.21 266.91 336.38 266.91Z" fill="#5D3100"/>
<path d="M467.9 317.67C456.19 317.67 448.07 310.11 444.25 299.2C432.67 311.56 418.68 320.44 404.59 325.59L394.2 304.95C418.09 296.56 434.09 281.55 443.53 256.13L465.87 263.56C463.96 268.83 461.69 273.87 459.18 278.55C460.14 285.38 463.11 294.75 471.36 294.75C474.7 294.75 478.76 293.07 484.86 286.59L497.04 303.63C487.01 313.83 476.49 317.67 467.9 317.67ZM496.32 333.38V354.37H395.98V333.38H433.49V317.67H457.97V333.38H496.32Z" fill="#5D3100"/>
<path d="M548.64 333.98C560.22 333.98 574.68 327.62 584.11 314.79V255.88H606.81V366.5H584.11V338.43C572.89 348.63 558.43 352.71 543.5 352.71C538.61 352.71 533.7 352.24 528.81 351.51C505.64 347.9 506.11 320.19 512.33 295.24H543.38C544.34 292 546.01 283.97 546.25 279.4H510.9V260.68H572.41C572.41 268.84 569.54 286.96 567.39 295.22H573.13V313.81H533.71C532.03 320.3 530.25 331.57 544.34 333.6C545.77 333.84 547.21 333.96 548.64 333.96V333.98Z" fill="#5D3100"/>
<path d="M341.52 246.79C351.19 246.79 358.72 248.22 364.22 251.23C374.25 256.99 374.85 268.74 369.96 279.78H373.55V295.26H343.56V301.13H381.67V318.53H281.33V301.13H320.27V295.26H291V254.12H291.12C312.02 249.32 328.74 246.8 341.53 246.8H341.52V246.79ZM348.45 342.64C345.58 340.96 340.57 340.25 334.59 340.25C322.52 340.25 306.4 343.01 293.74 346.97L288.96 329.93C303.65 324.77 321.45 322.01 336.97 322.01C348.55 322.01 358.82 323.57 365.52 326.69C378.3 332.69 382.36 345.88 366.48 368.92L344.99 363.41C353.47 350.58 355.49 346.86 348.45 342.66V342.64ZM336.38 262.74C330.28 262.74 322.41 263.83 313.09 265.38V279.77H347.01C350.47 273.77 352.03 266.81 345.58 264.06C343.31 263.22 340.21 262.74 336.38 262.74Z" fill="#FFD92F" stroke="#5D3100" stroke-width="1.5" stroke-miterlimit="10"/>
<path d="M467.9 313.49C456.19 313.49 448.07 305.93 444.25 295.02C432.67 307.38 418.68 316.26 404.59 321.41L394.2 300.77C418.09 292.38 434.09 277.37 443.53 251.95L465.87 259.38C463.96 264.65 461.69 269.69 459.18 274.37C460.14 281.2 463.11 290.57 471.36 290.57C474.7 290.57 478.76 288.89 484.86 282.41L497.04 299.45C487.01 309.65 476.49 313.49 467.9 313.49ZM496.32 329.21V350.2H395.98V329.21H433.49V313.5H457.97V329.21H496.32Z" fill="#FFD92F" stroke="#5D3100" stroke-width="1.5" stroke-miterlimit="10"/>
<path d="M548.64 329.81C560.22 329.81 574.68 323.45 584.11 310.62V251.7H606.81V362.32H584.11V334.25C572.89 344.45 558.43 348.53 543.5 348.53C538.61 348.53 533.7 348.06 528.81 347.33C505.64 343.72 506.11 316.01 512.33 291.06H543.38C544.34 287.82 546.01 279.79 546.25 275.22H510.9V256.5H572.41C572.41 264.66 569.54 282.78 567.39 291.04H573.13V309.63H533.71C532.03 316.12 530.25 327.39 544.34 329.42C545.77 329.66 547.21 329.78 548.64 329.78V329.81Z" fill="#FFD92F" stroke="#5D3100" stroke-width="1.5" stroke-miterlimit="10"/>
<path d="M209.17 147.43C223.62 148.15 242.73 146.34 255.76 142.75L259.22 160.38C250.14 161.94 239.28 163.5 228.04 164.46V169.73H266.15V187.13H165.81V169.73H204.75V165.05C200.21 164.81 195.8 164.45 191.61 163.85C180.75 162.29 174.29 154.5 173.33 143.57C172.86 138.3 173.45 133.26 174.52 118.62H255.86V136.38H196.14V137.1C196.14 143.59 198.88 146.96 209.17 147.43ZM232.93 211.26C230.06 209.58 225.04 208.87 219.07 208.87C207 208.87 190.88 211.63 178.22 215.59L173.44 198.55C188.13 193.39 205.94 190.63 221.45 190.63C233.03 190.63 243.3 192.19 250 195.31C262.78 201.31 266.84 214.5 250.96 237.54L229.45 232.03C237.93 219.2 239.97 215.48 232.91 211.28L232.93 211.26Z" fill="#5D3100"/>
<path d="M328.74 204.42C319.3 204.42 311.9 198.3 308.08 189.9C301.75 198.18 294.1 205.25 284.66 210.42L271.99 192.43C290.27 181.75 298.51 165.19 303.4 147.2H280.7V127.4H347.71V147.19H327.3C325.75 153.91 323.6 160.51 321.09 166.87C321.33 171.67 323.6 182.35 329.93 182.35C333.86 182.35 339.13 178.51 343.07 174.92L353.46 189.31V120.32H376.16V158.34H392.89V180.18H376.16V230.92H353.46V191.69C344.98 200.44 336.37 204.41 328.74 204.41V204.42Z" fill="#5D3100"/>
<path d="M209.17 143.26C223.62 143.98 242.73 142.17 255.76 138.58L259.22 156.21C250.14 157.77 239.28 159.33 228.04 160.29V165.57H266.15V182.97H165.81V165.57H204.75V160.89C200.21 160.65 195.8 160.29 191.61 159.69C180.75 158.13 174.29 150.34 173.33 139.41C172.86 134.14 173.45 129.1 174.52 114.46H255.86V132.22H196.14V132.94C196.14 139.41 198.88 142.78 209.17 143.26ZM232.93 207.08C230.06 205.4 225.04 204.69 219.07 204.69C207 204.69 190.88 207.45 178.22 211.41L173.44 194.37C188.13 189.21 205.94 186.45 221.45 186.45C233.03 186.45 243.3 188.01 250 191.13C262.78 197.13 266.84 210.32 250.96 233.36L229.45 227.85C237.93 215.02 239.97 211.3 232.91 207.1L232.93 207.08Z" fill="#FF7D3F" stroke="#5D3100" stroke-width="1.5" stroke-miterlimit="10"/>
<path d="M328.74 200.25C319.3 200.25 311.9 194.13 308.08 185.73C301.75 194.01 294.1 201.08 284.66 206.24L271.99 188.24C290.27 177.57 298.51 161 303.4 143.01H280.7V123.22H347.71V143.01H327.3C325.75 149.73 323.6 156.33 321.09 162.69C321.33 167.49 323.6 178.17 329.93 178.17C333.86 178.17 339.13 174.33 343.07 170.74L353.46 185.13V116.14H376.16V154.18H392.89V176.02H376.16V226.76H353.46V187.52C344.98 196.28 336.37 200.25 328.74 200.25Z" fill="#FF7D3F" stroke="#5D3100" stroke-width="1.5" stroke-miterlimit="10"/>
<path d="M632.21 234.42C628.99 230.1 623.11 223.71 614.09 220.04C609.47 218.15 605.28 217.51 602.07 217.31C603.76 214.57 605.66 210.77 606.78 205.89C609 196.38 607.19 187.89 605.52 182.75C605.01 181.22 606.17 179.74 607.7 179.98C618.19 181.64 627.7 188.14 633.5 197.67C633.9 198.32 633.79 199.16 633.28 199.72L630.85 202.35L634.4 201.87C635.15 201.77 635.89 202.17 636.19 202.87C640.61 213.12 640.4 224.68 635.71 234.24C635.04 235.63 633.17 235.72 632.21 234.42Z" fill="#FFD92F" stroke="#5D3100" stroke-linecap="round" stroke-linejoin="round"/>
<path d="M602.07 217.31L584.25 227.33" stroke="#5D3100" stroke-linecap="round" stroke-linejoin="round"/>
<path d="M184.95 67.0201C186.02 65.2501 186.71 63.2701 187.49 61.2501C189.29 56.8701 191.04 52.1601 192.21 47.4401C187.74 50.4501 183.6 54.0801 179.6 57.6501C179.7 57.1001 179.79 56.5301 179.87 55.9801C180.44 52.0101 180.32 47.9701 179.68 44.0001C178.82 38.7401 178.12 33.3101 176.46 28.3601C173.71 32.7801 171.76 37.8901 169.71 42.8201C168.46 45.8301 167.54 48.9901 167.04 52.2101C161.77 45.3401 154.75 39.6601 147.37 36.7501L145.73 36.1001L145.94 37.8701C146.9 45.7901 150.56 54.0601 155.85 60.9301C152.63 60.6201 149.37 60.7101 146.17 61.1901C140.92 61.9601 135.51 62.5701 130.58 64.1401C134.91 66.9901 139.95 69.0501 144.81 71.2101C148.46 72.8401 152.32 73.9601 156.29 74.4101C156.86 74.4701 157.4 74.5301 157.97 74.5701C153.52 77.5801 148.99 80.6801 144.97 84.2901C149.79 84.3301 154.79 83.8201 159.45 83.1701C161.58 82.9701 163.69 82.7401 165.66 82.1301C165.15 83.6601 164.67 85.1501 164.28 86.6701L162.82 92.0701L164.99 90.3601C167.14 88.6501 169.34 86.7701 171.2 85.0201C171.73 84.5301 172.27 84.0601 172.76 83.6401C174.58 82.0901 176.51 79.9101 176.7 76.4101C180.94 77.2701 184.29 74.8201 187.55 72.4401C188.58 71.6901 189.66 70.9101 190.73 70.2401H190.77L195.28 66.8601H192.53C189.97 66.8601 187.51 66.9401 185.02 67.1001L184.95 67.0201Z" fill="#FF7D3F" stroke="#5D3100" stroke-linecap="round" stroke-linejoin="round"/>
<path d="M192.44 66.76H195.19L190.68 70.12H190.64C189.57 70.79 188.49 71.57 187.46 72.34C184.2 74.72 180.84 77.15 176.61 76.31L145.7 36.04L147.34 36.69C154.72 39.62 161.74 45.29 167.01 52.15C167.52 48.93 168.44 45.79 169.68 42.76C171.73 37.83 173.68 32.72 176.43 28.3C178.09 33.25 178.79 38.67 179.65 43.94C180.29 47.91 180.41 51.93 179.84 55.92C179.76 56.49 179.66 57.04 179.57 57.59C183.57 54.02 187.71 50.38 192.18 47.38C191.01 52.09 189.25 56.83 187.46 61.19C186.68 63.21 186 65.2 184.92 66.97C187.42 66.81 189.86 66.73 192.43 66.73V66.76H192.44Z" fill="#FF7D3F" stroke="#5D3100" stroke-linecap="round" stroke-linejoin="round"/>
<path d="M176.609 76.28L187.869 90.5" stroke="#5D3100" stroke-linecap="round" stroke-linejoin="round"/>
</svg>
