<svg width="342" height="213" viewBox="0 0 342 213" fill="none" xmlns="http://www.w3.org/2000/svg">
<path d="M35.5216 76.1418C37.4306 76.1418 38.9782 74.5942 38.9782 72.6851C38.9782 70.7761 37.4306 69.2285 35.5216 69.2285C33.6125 69.2285 32.0649 70.7761 32.0649 72.6851C32.0649 74.5942 33.6125 76.1418 35.5216 76.1418Z" fill="white"/>
<path d="M337.338 145.939C339.247 145.939 340.795 144.392 340.795 142.482C340.795 140.573 339.247 139.026 337.338 139.026C335.429 139.026 333.881 140.573 333.881 142.482C333.881 144.392 335.429 145.939 337.338 145.939Z" fill="white"/>
<path d="M84.5206 133.112C86.4296 133.112 87.9772 131.565 87.9772 129.656C87.9772 127.747 86.4296 126.199 84.5206 126.199C82.6115 126.199 81.064 127.747 81.064 129.656C81.064 131.565 82.6115 133.112 84.5206 133.112Z" fill="white"/>
<path d="M299.522 52.4348C285.021 37.9329 262.409 36.5077 246.301 48.1379L233.086 44.2772L236.947 57.4921C225.317 73.5999 226.747 96.2115 241.244 110.713C257.336 126.805 283.425 126.805 299.517 110.713C315.614 94.6162 315.614 68.5267 299.522 52.4348Z" fill="white" stroke="#5D3100" stroke-width="0.797681" stroke-miterlimit="10"/>
<path d="M278.639 65.4902C275.145 65.4902 272.082 67.3462 270.386 70.1274C268.689 67.3462 265.626 65.4902 262.133 65.4902C256.799 65.4902 252.47 69.8137 252.47 75.1475C252.47 86.3735 270.386 97.6527 270.386 97.6527C270.386 97.6527 288.297 84.8101 288.297 75.1475C288.302 69.8137 283.973 65.4902 278.639 65.4902Z" fill="#FF7D3F"/>
<path d="M74.6242 50.531C72.4066 50.531 70.4603 51.7116 69.3807 53.4771C68.3012 51.7116 66.3602 50.531 64.1373 50.531C60.7498 50.531 58.0005 53.275 58.0005 56.6678C58.0005 63.7991 69.3754 70.957 69.3754 70.957C69.3754 70.957 80.7504 62.7993 80.7504 56.6678C80.761 53.2803 78.0117 50.531 74.6242 50.531Z" fill="white" stroke="#5D3100" stroke-width="0.797681" stroke-miterlimit="10"/>
<path d="M63.212 94.9246H14.7449C7.26795 94.9246 1.20557 100.987 1.20557 108.464C1.20557 115.941 7.26795 122.003 14.7449 122.003H50.9809L56.4051 132.857L61.8294 122.003H63.2067C70.6836 122.003 76.746 115.941 76.746 108.464C76.7513 100.987 70.6889 94.9246 63.212 94.9246Z" fill="white" stroke="#5D3100" stroke-width="0.797681" stroke-miterlimit="10"/>
<path d="M23.5779 108.464C23.5779 109.847 22.4558 110.964 21.0785 110.964C19.6959 110.964 18.5791 109.842 18.5791 108.464C18.5791 107.082 19.7012 105.965 21.0785 105.965C22.4611 105.96 23.5779 107.082 23.5779 108.464Z" fill="#FF7D3F"/>
<path d="M38.9784 110.964C40.3588 110.964 41.4778 109.845 41.4778 108.464C41.4778 107.084 40.3588 105.965 38.9784 105.965C37.598 105.965 36.479 107.084 36.479 108.464C36.479 109.845 37.598 110.964 38.9784 110.964Z" fill="#FF7D3F"/>
<path d="M59.3831 108.464C59.3831 109.847 58.261 110.964 56.8837 110.964C55.5063 110.964 54.3843 109.842 54.3843 108.464C54.3843 107.082 55.5063 105.965 56.8837 105.965C58.261 105.965 59.3831 107.082 59.3831 108.464Z" fill="#FF7D3F"/>
<path d="M112.647 141.536H56.3945C51.2414 141.536 47.0669 145.711 47.0669 150.864V172.933V196.422V211.094L56.6976 196.422H112.652C117.805 196.422 121.98 192.247 121.98 187.094V150.864C121.975 145.711 117.8 141.536 112.647 141.536Z" fill="#FF7D3F" stroke="#5D3100" stroke-width="0.797681" stroke-miterlimit="10"/>
<path d="M70.1352 169.573C70.4679 167.428 68.9989 165.42 66.8541 165.087C64.7093 164.754 62.7008 166.223 62.3681 168.368C62.0354 170.513 63.5044 172.521 65.6492 172.854C67.794 173.187 69.8024 171.718 70.1352 169.573Z" fill="#FAFAFA"/>
<path d="M87.2975 171.756C88.8322 170.221 88.8322 167.733 87.2975 166.198C85.7628 164.664 83.2745 164.664 81.7398 166.198C80.2051 167.733 80.2051 170.221 81.7398 171.756C83.2745 173.291 85.7627 173.291 87.2975 171.756Z" fill="#FAFAFA"/>
<path d="M105.57 171.756C107.105 170.222 107.105 167.733 105.57 166.199C104.035 164.664 101.547 164.664 100.012 166.199C98.4775 167.733 98.4775 170.222 100.012 171.756C101.547 173.291 104.035 173.291 105.57 171.756Z" fill="#FAFAFA"/>
<path d="M53.6027 39.3794C52.4061 39.3794 51.3585 40.0175 50.7735 40.9694C50.1939 40.0175 49.1463 39.3794 47.9444 39.3794C46.1151 39.3794 44.6367 40.8631 44.6367 42.6871C44.6367 46.5319 50.7735 50.3927 50.7735 50.3927C50.7735 50.3927 56.9104 45.9948 56.9104 42.6871C56.9104 40.8578 55.4267 39.3794 53.6027 39.3794Z" fill="#FF7D3F" stroke="#5D3100" stroke-width="0.797681" stroke-miterlimit="10"/>
<path d="M220.988 32.5087H252.294C252.294 15.2203 238.276 1.20239 220.988 1.20239C203.7 1.20239 189.682 15.2203 189.682 32.5087C189.682 49.7971 203.7 63.8151 220.988 63.8151V32.5087Z" fill="#FFD92F" stroke="#5D3100" stroke-width="0.797681" stroke-miterlimit="10"/>
<path d="M227.226 22.9739C228.415 22.9739 229.38 21.1882 229.38 18.9855C229.38 16.7827 228.415 14.9971 227.226 14.9971C226.036 14.9971 225.072 16.7827 225.072 18.9855C225.072 21.1882 226.036 22.9739 227.226 22.9739Z" fill="#5D3100"/>
<path d="M235.538 22.9739C236.727 22.9739 237.692 21.1882 237.692 18.9855C237.692 16.7827 236.727 14.9971 235.538 14.9971C234.348 14.9971 233.384 16.7827 233.384 18.9855C233.384 21.1882 234.348 22.9739 235.538 22.9739Z" fill="#5D3100"/>
<path d="M182.396 134C187.539 134 191.543 134.761 194.468 136.362C199.802 139.425 200.121 145.673 197.52 151.544H199.429V159.776H183.481V162.898H203.748V172.151H150.388V162.898H171.096V159.776H155.53V137.899H155.594C166.709 135.346 175.6 134.006 182.402 134.006H182.396V134ZM186.082 184.972C184.555 184.079 181.891 183.701 178.711 183.701C172.292 183.701 163.72 185.169 156.987 187.275L154.445 178.213C162.257 175.469 171.723 174.002 179.977 174.002C186.135 174.002 191.596 174.831 195.159 176.49C201.955 179.681 204.114 186.695 195.67 198.948L184.242 196.018C188.751 189.195 189.825 187.216 186.082 184.983V184.972ZM179.663 142.483C176.419 142.483 172.234 143.062 167.278 143.886V151.539H185.316C187.156 148.348 187.985 144.647 184.555 143.184C183.348 142.743 181.7 142.483 179.663 142.483Z" fill="#5D3100"/>
<path d="M249.604 169.476C243.376 169.476 239.058 165.456 237.027 159.654C230.869 166.227 223.429 170.949 215.936 173.688L210.411 162.712C223.115 158.25 231.624 150.268 236.644 136.75L248.524 140.701C247.508 143.503 246.301 146.184 244.966 148.672C245.477 152.305 247.056 157.287 251.444 157.287C253.22 157.287 255.379 156.394 258.623 152.948L265.1 162.01C259.766 167.434 254.172 169.476 249.604 169.476ZM264.717 177.83V188.993H211.357V177.83H231.305V169.476H244.323V177.83H264.717Z" fill="#5D3100"/>
<path d="M292.54 178.15C298.698 178.15 306.388 174.767 311.402 167.945V136.617H323.474V195.443H311.402V180.516C305.436 185.94 297.746 188.11 289.807 188.11C287.206 188.11 284.595 187.86 281.995 187.472C269.673 185.552 269.923 170.816 273.231 157.548H289.743C290.253 155.825 291.141 151.555 291.269 149.125H272.47V139.17H305.181C305.181 143.509 303.654 153.145 302.511 157.537H305.563V167.423H284.6C283.707 170.875 282.76 176.868 290.253 177.947C291.014 178.075 291.78 178.139 292.54 178.139V178.15Z" fill="#5D3100"/>
<path d="M182.396 131.783C187.539 131.783 191.543 132.543 194.468 134.144C199.802 137.207 200.121 143.456 197.52 149.327H199.429V157.559H183.481V160.68H203.748V169.933H150.388V160.68H171.096V157.559H155.53V135.681H155.594C166.709 133.128 175.6 131.788 182.402 131.788H182.396V131.783ZM186.082 182.755C184.555 181.861 181.891 181.484 178.711 181.484C172.292 181.484 163.72 182.952 156.987 185.057L154.445 175.996C162.257 173.252 171.723 171.784 179.977 171.784C186.135 171.784 191.596 172.614 195.159 174.273C201.955 177.464 204.114 184.478 195.67 196.73L184.242 193.8C188.751 186.977 189.825 184.999 186.082 182.765V182.755ZM179.663 140.265C176.419 140.265 172.234 140.845 167.278 141.669V149.321H185.316C187.156 146.131 187.985 142.429 184.555 140.967C183.348 140.52 181.7 140.265 179.663 140.265Z" fill="#FFD92F" stroke="#5D3100" stroke-width="0.797681" stroke-miterlimit="10"/>
<path d="M249.604 167.253C243.376 167.253 239.058 163.233 237.027 157.431C230.869 164.004 223.429 168.726 215.936 171.465L210.411 160.489C223.115 156.027 231.624 148.045 236.644 134.527L248.524 138.478C247.508 141.281 246.301 143.961 244.966 146.45C245.477 150.082 247.056 155.065 251.444 155.065C253.22 155.065 255.379 154.171 258.623 150.725L265.1 159.787C259.766 165.211 254.172 167.253 249.604 167.253ZM264.717 175.613V186.775H211.357V175.613H231.305V167.259H244.323V175.613H264.717Z" fill="#FFD92F" stroke="#5D3100" stroke-width="0.797681" stroke-miterlimit="10"/>
<path d="M292.54 175.932C298.698 175.932 306.388 172.55 311.402 165.727V134.394H323.474V193.22H311.402V178.293C305.436 183.717 297.746 185.887 289.807 185.887C287.206 185.887 284.595 185.637 281.995 185.249C269.673 183.329 269.923 168.593 273.231 155.325H289.743C290.253 153.602 291.141 149.332 291.269 146.902H272.47V136.947H305.181C305.181 141.286 303.654 150.922 302.511 155.315H305.563V165.2H284.6C283.707 168.652 282.76 174.645 290.253 175.725C291.014 175.852 291.78 175.916 292.54 175.916V175.932Z" fill="#FFD92F" stroke="#5D3100" stroke-width="0.797681" stroke-miterlimit="10"/>
<path d="M112.014 78.9443C119.698 79.3272 129.861 78.3647 136.79 76.4556L138.63 85.831C133.801 86.6606 128.026 87.4902 122.049 88.0007V90.8032H142.315V100.056H88.9556V90.8032H109.663V88.3144C107.249 88.1868 104.904 87.9954 102.676 87.6763C96.9005 86.8467 93.4651 82.7041 92.9546 76.8916C92.7047 74.0891 93.0184 71.4089 93.5874 63.6235H136.843V73.0681H105.085V73.451C105.085 76.9023 106.542 78.6944 112.014 78.9443ZM124.649 112.888C123.123 111.995 120.453 111.617 117.279 111.617C110.86 111.617 102.287 113.085 95.5551 115.191L93.0131 106.129C100.825 103.385 110.296 101.918 118.544 101.918C124.702 101.918 130.164 102.747 133.727 104.406C140.523 107.597 142.682 114.611 134.237 126.864L122.799 123.934C127.308 117.111 128.393 115.132 124.639 112.899L124.649 112.888Z" fill="#5D3100"/>
<path d="M175.6 109.251C170.58 109.251 166.644 105.996 164.613 101.529C161.247 105.933 157.178 109.692 152.158 112.442L145.421 102.875C155.142 97.1953 159.524 88.3889 162.124 78.822H150.053V68.2926H185.688V78.8167H174.834C174.01 82.3903 172.866 85.9001 171.531 89.2823C171.659 91.8349 172.866 97.5144 176.232 97.5144C178.322 97.5144 181.125 95.4723 183.22 93.5632L188.745 101.216V64.5276H200.817V84.7461H209.714V96.3604H200.817V123.343H188.745V102.481C184.236 107.134 179.657 109.246 175.6 109.246V109.251Z" fill="#5D3100"/>
<path d="M112.014 76.7269C119.698 77.1097 129.861 76.1472 136.79 74.2381L138.63 83.6135C133.801 84.4431 128.026 85.2727 122.049 85.7832V88.591H142.315V97.8441H88.9556V88.591H109.663V86.1023C107.249 85.9746 104.904 85.7832 102.676 85.4641C96.9005 84.6345 93.4651 80.4919 92.9546 74.6795C92.7047 71.877 93.0184 69.1967 93.5874 61.4114H136.843V70.8559H105.085V71.2388C105.085 74.6795 106.542 76.4716 112.014 76.7269ZM124.649 110.666C123.123 109.772 120.453 109.395 117.279 109.395C110.86 109.395 102.287 110.862 95.5551 112.968L93.0131 103.907C100.825 101.162 110.296 99.6948 118.544 99.6948C124.702 99.6948 130.164 100.524 133.727 102.184C140.523 105.374 142.682 112.389 134.237 124.641L122.799 121.711C127.308 114.888 128.393 112.91 124.639 110.676L124.649 110.666Z" fill="#FF7D3F" stroke="#5D3100" stroke-width="0.797681" stroke-miterlimit="10"/>
<path d="M175.6 107.033C170.58 107.033 166.644 103.779 164.613 99.3118C161.247 103.715 157.178 107.475 152.158 110.219L145.421 100.647C155.142 94.9724 159.524 86.1607 162.124 76.5938H150.053V66.0697H185.688V76.5938H174.834C174.01 80.1674 172.866 83.6772 171.531 87.0594C171.659 89.612 172.866 95.2915 176.232 95.2915C178.322 95.2915 181.125 93.2494 183.22 91.3403L188.745 98.9927V62.3047H200.817V82.5339H209.714V94.1481H200.817V121.131H188.745V100.264C184.236 104.922 179.657 107.033 175.6 107.033Z" fill="#FF7D3F" stroke="#5D3100" stroke-width="0.797681" stroke-miterlimit="10"/>
<path d="M336.982 125.205C335.269 122.907 332.142 119.509 327.346 117.558C324.889 116.552 322.661 116.212 320.954 116.106C321.852 114.649 322.863 112.628 323.458 110.033C324.639 104.975 323.676 100.461 322.788 97.7272C322.517 96.9136 323.134 96.1265 323.948 96.2542C329.526 97.1369 334.583 100.594 337.668 105.661C337.88 106.007 337.822 106.454 337.551 106.752L336.258 108.15L338.146 107.895C338.545 107.842 338.939 108.055 339.098 108.427C341.449 113.878 341.337 120.025 338.843 125.109C338.487 125.848 337.492 125.896 336.982 125.205Z" fill="#FFD92F" stroke="#5D3100" stroke-width="0.531788" stroke-linecap="round" stroke-linejoin="round"/>
<path d="M320.954 116.106L311.477 121.434" stroke="#5D3100" stroke-width="0.531788" stroke-linecap="round" stroke-linejoin="round"/>
<path d="M99.134 36.1834C99.703 35.2422 100.07 34.1892 100.485 33.115C101.442 30.7858 102.373 28.2811 102.995 25.771C100.618 27.3717 98.4161 29.3021 96.2889 31.2006C96.3421 30.9081 96.39 30.605 96.4325 30.3125C96.7356 28.2013 96.6718 26.0529 96.3315 23.9417C95.8741 21.1445 95.5019 18.2569 94.6191 15.6245C93.1567 17.975 92.1197 20.6924 91.0296 23.3142C90.3648 24.9148 89.8756 26.5953 89.6097 28.3076C86.8072 24.6543 83.074 21.6337 79.1494 20.0862L78.2773 19.7405L78.389 20.6818C78.8995 24.8936 80.8458 29.2914 83.659 32.9448C81.9466 32.78 80.213 32.8278 78.5113 33.0831C75.7194 33.4926 72.8424 33.817 70.2207 34.6519C72.5233 36.1675 75.2036 37.263 77.788 38.4116C79.7291 39.2784 81.7818 39.874 83.893 40.1133C84.1961 40.1452 84.4832 40.1771 84.7864 40.1984C82.4199 41.7991 80.0109 43.4476 77.8731 45.3674C80.4363 45.3887 83.0953 45.1174 85.5734 44.7718C86.7061 44.6654 87.8282 44.5431 88.8758 44.2187C88.6046 45.0324 88.3493 45.8247 88.1419 46.633L87.3655 49.5047L88.5195 48.5953C89.6629 47.686 90.8328 46.6862 91.8219 45.7556C92.1038 45.495 92.3909 45.2451 92.6515 45.0217C93.6194 44.1975 94.6457 43.0382 94.7467 41.1769C97.0015 41.6342 98.783 40.3314 100.517 39.0657C101.064 38.6669 101.639 38.2521 102.208 37.8958H102.229L104.627 36.0983H103.165C101.804 36.0983 100.495 36.1409 99.1712 36.226L99.134 36.1834Z" fill="#FF7D3F" stroke="#5D3100" stroke-width="0.531788" stroke-linecap="round" stroke-linejoin="round"/>
<path d="M103.117 36.0451H104.579L102.181 37.8319H102.16C101.591 38.1882 101.016 38.603 100.469 39.0125C98.7351 40.2781 96.9482 41.5704 94.6988 41.1237L78.2612 19.7086L79.1334 20.0542C83.058 21.6124 86.7911 24.6276 89.5936 28.2757C89.8648 26.5633 90.3541 24.8935 91.0135 23.2822C92.1037 20.6605 93.1406 17.943 94.6031 15.5925C95.4858 18.2249 95.8581 21.1072 96.3154 23.9097C96.6558 26.0209 96.7196 28.1587 96.4165 30.2805C96.3739 30.5836 96.3207 30.8761 96.2729 31.1686C98.4 29.2701 100.602 27.3344 102.979 25.739C102.357 28.2438 101.421 30.7644 100.469 33.083C100.054 34.1572 99.6923 35.2155 99.1179 36.1568C100.447 36.0717 101.745 36.0291 103.112 36.0291V36.0451H103.117Z" fill="#FF7D3F" stroke="#5D3100" stroke-width="0.531788" stroke-linecap="round" stroke-linejoin="round"/>
<path d="M94.6987 41.1077L100.687 48.6697" stroke="#5D3100" stroke-width="0.531788" stroke-linecap="round" stroke-linejoin="round"/>
</svg>
