<?xml version="1.0" encoding="UTF-8"?>
<svg id="_레이어_1" data-name="레이어 1" xmlns="http://www.w3.org/2000/svg" version="1.1" viewBox="0 0 915 620">
  <defs>
    <style>
      .cls-1 {
        fill: #857aff;
      }

      .cls-1, .cls-2, .cls-3, .cls-4, .cls-5, .cls-6, .cls-7, .cls-8, .cls-9, .cls-10 {
        stroke-width: 0px;
      }

      .cls-2 {
        fill: #ffb6d7;
      }

      .cls-3 {
        fill: #ff87f2;
      }

      .cls-4 {
        fill: #323232;
      }

      .cls-5 {
        fill: #ff8514;
      }

      .cls-6 {
        fill: #000;
      }

      .cls-7 {
        fill: #ffa0c6;
      }

      .cls-8 {
        fill: #00b21c;
      }

      .cls-9 {
        fill: #d90028;
      }

      .cls-10 {
        fill: #fff;
      }
    </style>
  </defs>
  <path class="cls-5" d="M299.1,212.8v-59.1c0-6.9,5.6-12.5,12.5-12.5h38.3c6.9,0,12.5,5.6,12.5,12.5s-5.6,12.5-12.5,12.5h-25.8v34.2h25.8c6.9,0,12.5,5.6,12.5,12.5s-5.6,12.5-12.5,12.5h-38.3c-6.9,0-12.5-5.6-12.5-12.5"/>
  <path class="cls-1" d="M347.4,237c0-9.2-7.5-16.7-16.7-16.7s-16.7,7.5-16.7,16.7,7.5,16.7,16.7,16.7,16.7-7.5,16.7-16.7"/>
  <path class="cls-8" d="M368.3,260.8h-75.2c-6.9,0-12.5-5.6-12.5-12.5s5.6-12.5,12.5-12.5h75.2c6.9,0,12.5,5.6,12.5,12.5s-5.6,12.5-12.5,12.5"/>
  <path class="cls-1" d="M350.7,338.6c-6.9,0-12.5-5.6-12.5-12.5v-26h-27.5c-6.9,0-12.5-5.6-12.5-12.5s5.6-12.5,12.5-12.5h40c6.9,0,12.5,5.6,12.5,12.5v38.4c0,6.9-5.6,12.5-12.5,12.5"/>
  <path class="cls-8" d="M413.9,169.1l-18.2,31c-6.3,10.7,1.4,24.2,13.9,24.2h36.5c12.4,0,20.2-13.5,13.9-24.2l-18.2-31c-6.2-10.6-21.5-10.6-27.7,0"/>
  <path class="cls-1" d="M454.5,168.6h-53.5c-6.9,0-12.5-5.6-12.5-12.5s5.6-12.5,12.5-12.5h53.5c6.9,0,12.5,5.6,12.5,12.5s-5.6,12.5-12.5,12.5"/>
  <path class="cls-8" d="M503.1,200.5c9.2,0,16.7-7.5,16.7-16.7s-7.5-16.7-16.7-16.7-16.7,7.5-16.7,16.7,7.5,16.7,16.7,16.7"/>
  <path class="cls-1" d="M491.7,223c-6.9,0-12.5-5.6-12.5-12.5v-53.5c0-6.9,5.6-12.5,12.5-12.5s12.5,5.6,12.5,12.5v53.5c0,6.9-5.6,12.5-12.5,12.5"/>
  <path class="cls-8" d="M689.9,363.7c-6.9,0-12.5-5.6-12.5-12.5v-77.5c0-6.9,5.6-12.5,12.5-12.5s12.5,5.6,12.5,12.5v77.5c0,6.9-5.6,12.5-12.5,12.5"/>
  <path class="cls-3" d="M529.4,269.1l-18.2,31c-6.3,10.7,1.4,24.2,13.9,24.2h36.5c12.4,0,20.2-13.5,13.9-24.2l-18.2-31c-6.2-10.6-21.5-10.6-27.7,0"/>
  <path class="cls-5" d="M598.3,351.7v-38.8c0-6.9,5.6-12.5,12.5-12.5h38.3c6.9,0,12.5,5.6,12.5,12.5s-5.6,12.5-12.5,12.5h-25.8v13.9h25.8c6.9,0,12.5,5.6,12.5,12.5s-5.6,12.5-12.5,12.5h-38.3c-6.9,0-12.5-5.6-12.5-12.5"/>
  <path class="cls-5" d="M661.6,312.7v-38.8c0-6.9-5.6-12.5-12.5-12.5h-38.3c-6.9,0-12.5,5.6-12.5,12.5s5.6,12.5,12.5,12.5h25.8v13.9h-25.8c-6.9,0-12.5,5.6-12.5,12.5s5.6,12.5,12.5,12.5h38.3c6.9,0,12.5-5.6,12.5-12.5"/>
  <path class="cls-3" d="M469.4,437.2c-6.9,0-12.5-5.6-12.5-12.5v-26h-27.5c-6.9,0-12.5-5.6-12.5-12.5s5.6-12.5,12.5-12.5h40c6.9,0,12.5,5.6,12.5,12.5v38.4c0,6.9-5.6,12.5-12.5,12.5"/>
  <path class="cls-1" d="M434.7,303h29.5v-20.5h-29.5v20.5ZM476.2,327.1h-53.6c-6.7,0-12-5.4-12-12v-44.6c0-6.7,5.4-12,12-12h53.6c6.7,0,12,5.4,12,12v44.6c0,6.7-5.4,12-12,12"/>
  <path class="cls-3" d="M466.2,338.1c0-9.2-7.5-16.7-16.7-16.7s-16.7,7.5-16.7,16.7,7.5,16.7,16.7,16.7,16.7-7.5,16.7-16.7"/>
  <path class="cls-8" d="M410.2,349.4c0-6.9,5.6-12.5,12.5-12.5h53.5c6.9,0,12.5,5.6,12.5,12.5s-5.6,12.5-12.5,12.5h-53.5c-6.9,0-12.5-5.6-12.5-12.5"/>
  <path class="cls-1" d="M560,338.1c0-9.2-7.5-16.7-16.7-16.7s-16.7,7.5-16.7,16.7,7.5,16.7,16.7,16.7,16.7-7.5,16.7-16.7"/>
  <path class="cls-8" d="M504.1,349.4c0-6.9,5.6-12.5,12.5-12.5h53.5c6.9,0,12.5,5.6,12.5,12.5s-5.6,12.5-12.5,12.5h-53.5c-6.9,0-12.5-5.6-12.5-12.5"/>
  <path class="cls-10" d="M903.8,387c-7.2-1.9-16.2.9-23.4,6.8-1.5-3.2-4.3-5.7-8.4-6.8-7.1-1.9-16.1.9-23.3,6.6-1.5-3.2-4.3-5.6-8.3-6.6-7.2-1.9-16.2.9-23.4,6.8-1.5-3.2-4.3-5.7-8.4-6.8-10.2-2.7-24.2,4.2-31.3,15.6-7.1,11.3-4.6,22.8,5.6,25.5,7.2,1.9,16.2-.9,23.4-6.8,1.5,3.2,4.3,5.7,8.4,6.8,7.1,1.9,16.1-.9,23.3-6.6,1.5,3.2,4.3,5.6,8.3,6.6,7.2,1.9,16.2-.9,23.4-6.8,1.5,3.2,4.3,5.7,8.4,6.8,10.2,2.7,24.2-4.2,31.3-15.6,7.1-11.3,4.6-22.8-5.6-25.5"/>
  <path class="cls-10" d="M547,2.1c-7.2-1.9-16.2.9-23.4,6.8-1.5-3.2-4.3-5.7-8.4-6.8-7.1-1.9-16.1.9-23.3,6.6-1.5-3.2-4.3-5.6-8.3-6.6-7.2-1.9-16.2.9-23.4,6.8-1.5-3.2-4.3-5.7-8.4-6.8-10.2-2.7-24.2,4.2-31.3,15.6-7.1,11.3-4.6,22.8,5.6,25.5,7.2,1.9,16.2-.9,23.4-6.8,1.5,3.2,4.3,5.7,8.4,6.8,7.1,1.9,16.1-.9,23.3-6.6,1.5,3.2,4.3,5.6,8.3,6.6,7.2,1.9,16.2-.9,23.4-6.8,1.5,3.2,4.3,5.7,8.4,6.8,10.2,2.7,24.2-4.2,31.3-15.6,7.1-11.3,4.6-22.8-5.6-25.5"/>
  <polygon class="cls-5" points="853.5 77.9 801.2 77.9 842.3 55.4 831.5 35.6 787.2 59.9 804.3 30.3 784.7 19 768.5 47.1 768.5 17.7 745.9 17.7 745.9 47.1 729.7 19 710.2 30.3 727.3 59.9 682.9 35.6 672.1 55.4 713.2 77.9 660.9 77.9 660.9 100.5 713.2 100.5 672.1 123 682.9 142.8 727.3 118.5 710.2 148.1 729.7 159.4 745.9 131.3 745.9 160.7 768.5 160.7 768.5 131.3 784.7 159.4 804.3 148.1 787.2 118.5 831.5 142.8 842.3 123 801.2 100.5 853.5 100.5 853.5 77.9"/>
  <path class="cls-10" d="M754.3,76.9c0,2.5-2,4.5-4.5,4.5s-4.5-2-4.5-4.5,2-4.5,4.5-4.5,4.5,2,4.5,4.5"/>
  <path class="cls-10" d="M770.4,76.9c0,2.5-2,4.5-4.5,4.5s-4.5-2-4.5-4.5,2-4.5,4.5-4.5,4.5,2,4.5,4.5"/>
  <path class="cls-10" d="M770.1,87c-1.7,1.7-3.6,3-5.7,3.8-2.1.9-4.3,1.3-6.5,1.3s-4.4-.4-6.5-1.3c-2.1-.8-4-2.1-5.7-3.8-2-1.9-5.1-1.9-7.1,0-1.9,2-1.9,5.1,0,7.1,2.7,2.6,5.7,4.6,9,5.9,3.3,1.3,6.7,2,10.2,2s7-.7,10.3-2c3.3-1.3,6.4-3.4,9.1-6.1,1.9-2,1.9-5.1,0-7.1-2-1.9-5.1-1.9-7.1,0Z"/>
  <path class="cls-10" d="M132.1,225.8c-7.2-1.9-16.2.9-23.4,6.8-1.5-3.2-4.3-5.7-8.4-6.8-7.1-1.9-16.1.9-23.3,6.6-1.5-3.2-4.3-5.6-8.3-6.6-7.2-1.9-16.2.9-23.4,6.8-1.5-3.2-4.3-5.7-8.4-6.8-10.2-2.7-24.2,4.2-31.3,15.6-7.1,11.3-4.6,22.8,5.6,25.5,7.2,1.9,16.2-.9,23.4-6.8,1.5,3.2,4.3,5.7,8.4,6.8,7.1,1.9,16.1-.9,23.3-6.6,1.5,3.2,4.3,5.6,8.3,6.6,7.2,1.9,16.2-.9,23.4-6.8,1.5,3.2,4.3,5.7,8.4,6.8,10.2,2.7,24.2-4.2,31.3-15.6,7.1-11.3,4.6-22.8-5.6-25.5"/>
  <path class="cls-3" d="M198.9,248.7c-8.9,0-17.1,4.7-23.7,12.5-6.6-7.9-14.8-12.5-23.7-12.5s-17.1,4.7-23.7,12.5c-6.6-7.9-14.8-12.5-23.7-12.5-21.9,0-39.7,28.4-39.7,63.4s19.9,63.4,55.2,63.4h63.6c35.3,0,55.5-28.4,55.5-63.4s-17.8-63.4-39.7-63.4"/>
  <path class="cls-10" d="M146.8,300c0,2.5-2,4.5-4.5,4.5s-4.5-2-4.5-4.5,2-4.5,4.5-4.5,4.5,2,4.5,4.5"/>
  <path class="cls-10" d="M162.9,300c0,2.5-2,4.5-4.5,4.5s-4.5-2-4.5-4.5,2-4.5,4.5-4.5,4.5,2,4.5,4.5"/>
  <path class="cls-10" d="M167.7,309.3c0,4.8-1.9,9.1-5.1,12.2-3.1,3.1-7.4,5.1-12.2,5.1-4.8,0-9.1-1.9-12.2-5.1-3.1-3.1-5.1-7.4-5.1-12.2,0-2.8-2.2-5-5-5s-5,2.2-5,5c0,7.5,3.1,14.4,8,19.3,4.9,4.9,11.8,8,19.3,8,7.5,0,14.4-3.1,19.3-8,4.9-4.9,8-11.8,8-19.3,0-2.8-2.2-5-5-5s-5,2.2-5,5Z"/>
  <path class="cls-8" d="M108.5,328.8l14.4,36.2c8.7,22,26.2,39.4,48.1,48.1l36.2,14.4-36.2,14.4c-22,8.7-39.4,26.2-48.1,48.1l-14.4,36.2-14.4-36.2c-8.7-22-26.2-39.4-48.1-48.1l-36.2-14.4,36.2-14.4c22-8.7,39.4-26.2,48.1-48.1l14.4-36.2Z"/>
  <path class="cls-10" d="M107.3,416.3c0,2.5-2,4.5-4.5,4.5s-4.5-2-4.5-4.5,2-4.5,4.5-4.5,4.5,2,4.5,4.5"/>
  <path class="cls-10" d="M123.5,416.3c0,2.5-2,4.5-4.5,4.5s-4.5-2-4.5-4.5,2-4.5,4.5-4.5,4.5,2,4.5,4.5"/>
  <path class="cls-10" d="M113,440.3h-5,4.1l-3.6-2.1c-.3.5-.6,1.3-.6,2.1h4.1l-3.6-2.1,3,1.8-2.3-2.7c-.2.2-.4.4-.7.9l3,1.8-2.3-2.7,1.5,1.7-1.2-2c0,0-.2.1-.3.2l1.5,1.7-1.2-2,.5.9-.5-.9h0s.5.9.5.9l-.5-.9.2.3-.2-.3h0s.2.3.2.3l-.2-.3h0c0,0-.5.2-1,.3-.5,0-1.2.1-1.9.1-.6,0-1.2,0-1.7-.1-.4,0-.7-.1-.9-.2-.2,0-.3,0-.3,0h0s-.9,1.9-.9,1.9l1.5-1.5c-.4-.4-.6-.5-.6-.5l-.9,1.9,1.5-1.5-2.7,2.6,3.4-1.6c-.2-.5-.5-.8-.7-1l-2.7,2.6,3.4-1.6-3.8,1.8h4.2c0-.7-.2-1.3-.4-1.8l-3.8,1.8h4.2-4.1l3.6,2.1c.3-.5.6-1.3.6-2.1h-4.1l3.6,2.1-3-1.8,2.3,2.7c.2-.2.4-.4.7-.9l-3-1.8,2.3,2.7-1.5-1.7,1.2,2c0,0,.2-.1.3-.2l-1.5-1.7,1.2,2-.5-.9.5.9h0s-.5-.9-.5-.9l.5.9-.2-.3.2.4h0s-.2-.4-.2-.4l.2.4h0c0,0,.5-.2,1-.3.5,0,1.2-.1,1.9-.1.6,0,1.2,0,1.7.1.4,0,.7.1.9.2.2,0,.3,0,.3,0h0s.9-1.9.9-1.9l-1.5,1.5c.4.4.6.5.6.5l.9-1.9-1.5,1.5,2.7-2.6-3.4,1.6c.2.5.5.8.7,1l2.7-2.6-3.4,1.6,3.8-1.8h-4.2c0,.7.2,1.3.4,1.8l3.8-1.8h-4.2,10c0-1.1-.4-2.2-.8-3-.4-.7-.9-1.2-1.3-1.6-.8-.7-1.5-1.1-2.2-1.4-1.1-.5-2.1-.7-3.3-.9-1.1-.2-2.3-.3-3.6-.3-1.1,0-2.1,0-3.1.2-.7.1-1.5.3-2.2.5-1.1.3-2.1.7-3.2,1.5-.6.4-1.1.9-1.7,1.7-.3.4-.5.9-.7,1.4-.2.6-.3,1.2-.3,1.8,0,1.1.4,2.2.8,3,.4.7.9,1.2,1.3,1.6.8.7,1.5,1.1,2.2,1.4,1.1.5,2.1.7,3.3.9,1.1.2,2.3.3,3.6.3,1.1,0,2.1,0,3.1-.2.8-.1,1.5-.3,2.2-.5,1.1-.3,2.1-.7,3.2-1.5.6-.4,1.1-.9,1.7-1.7.3-.4.5-.9.7-1.4.2-.6.3-1.2.3-1.8h-5Z"/>
  <path class="cls-8" d="M276.6,66.6c21.8,15.9,25.6,48,25.6,48,0,0-31.7,6.4-53.5-9.5-21.8-15.9-25.6-48-25.6-48,0,0,31.7-6.4,53.5,9.5"/>
  <path class="cls-10" d="M461.7,519c-20,18.2-52.2,15.3-52.2,15.3,0,0,.2-32.3,20.2-50.5,20-18.2,52.2-15.3,52.2-15.3,0,0-.2,32.3-20.2,50.5"/>
  <path class="cls-10" d="M598.8,82.2c-1,39.8-1.1,80,0,119.8,0,1.3-2,1.4-2,0,.9-29.8.9-60,.6-89.9l-.2-15c-.1-5-.2-10-.4-15,0-1.3,1.9-1.4,2,0"/>
  <path class="cls-10" d="M598.8,82.2h-.5c-.5,20.3-.8,40.7-.8,61.2,0,19.6.3,39.2.8,58.7h0c0,.2,0,.3-.1.4,0,0-.2.1-.4.1-.1,0-.2,0-.3-.1,0,0-.1-.2-.1-.4h-.5.5c.6-18.9.8-38,.8-57.1s0-21.9-.2-32.8l-.2-15h0c-.1-5-.2-10-.4-15h0s0,0,0,0h-.1s.1,0,.1,0h0s-.1,0-.1,0h.1c0-.2,0-.3.1-.3,0,0,.2-.1.4-.1.1,0,.2,0,.3.1,0,0,.1.2.1.4h.5s-.5,0-.5,0h.5s.5,0,.5,0c0-.5-.2-.9-.5-1.1-.3-.3-.6-.4-1-.4-.4,0-.7.1-1,.4-.3.2-.5.6-.5,1.1h0c.2,5,.2,10,.4,15h.5s-.5,0-.5,0l.2,15c.1,10.9.2,21.8.2,32.8,0,19-.2,38.1-.8,57.1h0c0,.5.2.9.5,1.1.3.3.6.4,1,.4.4,0,.7-.1,1-.4.3-.2.5-.6.5-1.1h0c-.5-19.5-.8-39.1-.8-58.7s.3-40.9.8-61.2h0s-.5,0-.5,0Z"/>
  <path class="cls-10" d="M543,141.1c36.5,1.3,73.1,1.4,109.6,0,1.2,0,1.4,1.9,0,2-36.6-1.4-73.2-1.3-109.7,0-1.3,0-1.4-2,0-2"/>
  <path class="cls-10" d="M543,141.1v.5c18.7.7,37.4,1,56.2,1s35.6-.3,53.5-1h0s0,0,0,0h0c0,0,0,0,0,0h0,0c0,0,0,0,0,0,.2,0,.3,0,.3.1,0,0,.1.2.1.4,0,.1,0,.2-.1.3,0,0-.1.1-.3.1v.5s0-.5,0-.5c-17.9-.7-35.7-1-53.6-1s-37.4.4-56.1,1v.5s0-.5,0-.5h0c-.2,0-.3,0-.3-.1,0,0-.1-.2-.1-.4,0-.1,0-.2.1-.3,0,0,.2-.1.4-.1v-.5.5s0-.5,0-.5v-.5c-.5,0-.9.2-1.1.5-.3.3-.4.6-.4,1,0,.4.1.7.4,1,.2.3.6.5,1.1.5h0c18.7-.7,37.4-1,56.1-1s35.7.3,53.6,1h0c.4,0,.8-.2,1-.5.2-.3.3-.6.3-1,0-.4-.1-.7-.4-1-.2-.3-.6-.5-1.1-.5h0s0,.5,0,.5v-.5c-17.8.7-35.6,1-53.4,1-18.7,0-37.4-.4-56.2-1h0v.5Z"/>
  <path class="cls-10" d="M571.5,113.1c17.2,19.5,35.3,38.5,54,56.6.9.9-.5,2.4-1.4,1.3-12.8-14.7-26.5-29-40.1-42.8-4-4.1-9.8-9.9-13.9-13.8-.9-.9.5-2.4,1.4-1.3"/>
  <path class="cls-10" d="M571.5,113.1l-.4.3c17.2,19.5,35.4,38.6,54.1,56.6.1.1.2.2.2.3,0,.1,0,.2-.2.4-.1.1-.2.2-.3.2,0,0-.2,0-.4-.2l-.4.3.4-.3c-12.9-14.7-26.5-29-40.2-42.9-4-4.1-9.8-9.9-13.9-13.8l-.3.4.3-.4c-.1-.1-.2-.2-.2-.3,0-.1,0-.3.2-.4.1-.1.2-.2.3-.2,0,0,.2,0,.3.2l.4-.3-.4.3.4-.3.4-.3c-.3-.3-.7-.5-1.1-.5-.4,0-.8.2-1.1.5-.3.3-.4.6-.4,1.1,0,.4.2.7.5,1h0c4.1,3.9,9.9,9.7,13.9,13.8,13.7,13.9,27.3,28.2,40.1,42.8h0c.3.3.7.5,1.1.5.4,0,.8-.2,1.1-.5.3-.3.4-.6.4-1.1,0-.4-.2-.8-.5-1-18.7-18.1-36.8-37.1-54-56.6h0s-.4.3-.4.3Z"/>
  <path class="cls-10" d="M625.5,114.5c-19,17.9-37,36.8-54,56.6-.8.9-2.3-.2-1.5-1.3,14.3-13.4,27.9-27.6,41.2-42,4.4-4.8,8.7-9.7,13-14.7.9-1,2.4.4,1.4,1.3"/>
  <path class="cls-10" d="M625.5,114.5l-.3-.4c-19,17.9-37,36.9-54.1,56.6-.1.1-.2.2-.3.2-.1,0-.3,0-.4-.2-.1,0-.2-.2-.2-.3,0,0,0-.2.1-.3l-.4-.3.3.4c14.3-13.5,27.9-27.6,41.2-42,4.4-4.8,8.7-9.7,13-14.7l-.4-.3.4.3c.1-.1.2-.2.3-.2.1,0,.3,0,.4.2.1.1.2.2.2.3,0,0,0,.2-.2.3l.4.4-.3-.4.3.4.4.4c.3-.3.5-.7.5-1.1,0-.4-.2-.8-.5-1.1-.3-.3-.6-.4-1.1-.4-.4,0-.8.2-1.1.5h0c-4.2,5-8.5,9.9-13,14.7-13.3,14.4-26.8,28.6-41.1,42h0s0,0,0,0c-.2.3-.4.6-.4.9,0,.4.2.8.5,1.1.3.3.6.4,1,.4.4,0,.8-.2,1.1-.5,17.1-19.8,35.1-38.6,54-56.6h0s-.4-.4-.4-.4Z"/>
  <path class="cls-10" d="M334.8,497.1c-1,39.8-1.1,80,0,119.8,0,1.3-2,1.4-2,0,.9-29.8.9-60,.6-89.9l-.2-15c-.1-5-.2-10-.4-15,0-1.3,2-1.4,2,0"/>
  <path class="cls-10" d="M334.8,497.1h-.5c-.5,20.3-.8,40.7-.8,61.2,0,19.6.3,39.2.8,58.7h.5s-.5,0-.5,0h0c0,.2,0,.3-.1.4,0,0-.2.1-.4.1-.1,0-.2,0-.3-.1,0,0-.1-.2-.1-.4h-.5.5c.6-18.9.8-38,.8-57.1s0-21.9-.2-32.8l-.2-15h0c-.1-5-.2-10-.4-15h0s0,0,0,0h-.1s.1,0,.1,0h0s-.1,0-.1,0h.1c0-.2,0-.3.1-.3,0,0,.2-.1.4-.1.1,0,.2,0,.3.1,0,0,.1.2.1.4h.5s-.5,0-.5,0h.5s.5,0,.5,0c0-.5-.2-.9-.5-1.1-.3-.3-.6-.4-1-.4-.4,0-.7.1-1,.4-.3.2-.5.6-.5,1.1h0c.2,5,.2,10,.4,15h.5s-.5,0-.5,0l.2,15c.1,10.9.2,21.8.2,32.8,0,19-.2,38.1-.8,57.1h0c0,.5.2.9.5,1.1.3.3.6.4,1,.4.4,0,.7-.1,1-.4.3-.2.5-.6.5-1.1h0c-.5-19.5-.8-39.1-.8-58.7s.3-40.9.8-61.2h0s-.5,0-.5,0Z"/>
  <path class="cls-10" d="M279,556.1c36.5,1.3,73.1,1.4,109.6,0,1.2,0,1.4,1.9,0,2-36.6-1.4-73.1-1.3-109.7,0-1.3,0-1.4-2,0-2"/>
  <path class="cls-10" d="M279,556.1v.5c18.7.7,37.4,1,56.2,1s35.6-.3,53.5-1h0s0,0,0,0h0c0,0,0,0,0,0h0,0c0,0,0,0,0,0,.2,0,.3,0,.3.1,0,0,.1.2.1.4,0,.1,0,.2-.1.3,0,0-.1.1-.3.1v.5s0-.5,0-.5c-17.9-.7-35.7-1-53.6-1s-37.4.4-56.1,1v.5s0-.5,0-.5h0c-.2,0-.3,0-.3-.1,0,0-.1-.2-.1-.4,0-.1,0-.2.1-.3,0,0,.2-.1.4-.1v-.5.5s0-.5,0-.5v-.5c-.5,0-.9.2-1.1.5-.3.3-.4.6-.4,1,0,.4.1.7.4,1,.2.3.6.5,1.1.5h0c18.7-.7,37.4-1,56.1-1s35.7.3,53.6,1h0c.4,0,.8-.2,1-.5.2-.3.3-.6.3-1,0-.4-.1-.7-.4-1-.2-.3-.6-.5-1.1-.5h0s0,.5,0,.5v-.5c-17.8.7-35.6,1-53.4,1-18.7,0-37.4-.4-56.2-1h0v.5Z"/>
  <path class="cls-10" d="M307.5,528.1c17.2,19.5,35.3,38.5,54,56.6.9.9-.5,2.4-1.4,1.3-12.8-14.7-26.5-29-40.1-42.8-4-4.1-9.8-9.9-13.9-13.8-.9-.9.5-2.4,1.4-1.3"/>
  <path class="cls-10" d="M307.5,528.1l-.4.3c17.2,19.5,35.4,38.6,54.1,56.6.1.1.2.2.2.3,0,.1,0,.2-.2.4-.1.1-.2.2-.3.2-.1,0-.2,0-.4-.2l-.4.3.4-.3c-12.9-14.7-26.5-29-40.1-42.9-4-4.1-9.8-9.9-13.9-13.8l-.3.4.4-.4c-.1-.1-.2-.2-.2-.3,0-.1,0-.3.2-.4.1-.1.2-.2.3-.2,0,0,.2,0,.3.2l.4-.3-.4.3.4-.3.4-.3c-.3-.3-.7-.5-1.1-.5-.4,0-.8.2-1.1.5-.3.3-.4.6-.4,1.1,0,.4.2.7.5,1h0c4.1,3.9,9.9,9.7,13.9,13.8,13.7,13.9,27.3,28.2,40.1,42.8h0c.3.3.7.5,1.1.5.4,0,.8-.2,1.1-.5.3-.3.4-.6.4-1.1,0-.4-.2-.8-.5-1-18.7-18.1-36.8-37.1-54-56.6h0s-.4.3-.4.3Z"/>
  <path class="cls-10" d="M361.5,529.4c-19,17.9-37,36.8-54,56.6-.8.9-2.3-.2-1.5-1.3,14.3-13.4,27.9-27.6,41.2-42,4.4-4.8,8.7-9.7,13-14.7.9-1,2.4.4,1.4,1.3"/>
  <path class="cls-10" d="M361.5,529.4l-.3-.4c-19,17.9-37,36.9-54.1,56.6-.1.1-.2.2-.3.2-.1,0-.3,0-.4-.2-.1,0-.2-.2-.2-.3,0,0,0-.2.1-.3l-.4-.3.3.4c14.3-13.5,27.9-27.6,41.2-42,4.4-4.8,8.7-9.7,13-14.7l-.4-.3.4.3c.1-.1.2-.2.3-.2.1,0,.3,0,.4.2.1.1.2.2.2.3,0,0,0,.2-.2.3l.4.4-.3-.4.3.4.4.4c.3-.3.5-.7.5-1.1,0-.4-.2-.8-.5-1.1-.3-.3-.6-.4-1.1-.4-.4,0-.8.2-1.1.5h0c-4.2,5-8.5,9.9-13,14.7-13.3,14.4-26.8,28.6-41.1,42h0s0,0,0,0c-.2.3-.4.6-.4.9,0,.4.2.8.5,1.1.3.3.6.4,1,.4.4,0,.8-.2,1.1-.5,17.1-19.8,35.1-38.6,54-56.6h0s-.4-.4-.4-.4Z"/>
  <path class="cls-6" d="M719.2,602.1c.9,0,1.9,0,2.8,0,0-.9,0-1.8,0-2.8-.9,0-1.9,0-2.8,0,0,.9,0,1.8,0,2.8M698.2,599.1c0-3.1,0-13.2,0-16.3,1.9,0,7.6,0,9.9,0,.1-.5.1-1.4,0-2-2.6-.1-9.4,0-12.1,0-.1,2.9-.2,17.3,0,20.3,2.6.1,11.1,0,13.4,0,.1-.6.1-1.4,0-2-2.5,0-9.1,0-11.2,0M717.5,589.3c-.8,0-1.7,0-2.8,0,0-4.1,0-7.9,0-9.3-.5-.1-1.7-.1-2.2,0,0,3.2,0,19.9,0,23,.6,0,1.7.1,2.2,0,0-1.6,0-6.6,0-11.7,1.1,0,2,0,2.8,0,0-.6,0-1.5,0-2M671.9,601.1c3.1.1,12.2,0,14.6,0,0-.6,0-1.4,0-2-2.4,0-10.2,0-12.3,0,0-3.7,0-14.7,0-18.4-.5,0-1.7-.1-2.2,0-.1,3.6-.1,15.8,0,20.4M689.7,603c.6,0,1.7.1,2.2,0,0-3.1.1-19.7,0-23-.5-.1-1.7-.1-2.2,0,0,3.2-.1,19.9,0,23M650.6,598.4c3.9,0,10.6,0,14.7,0v2.8c-2.6,0-11.9,0-14.7,0v-2.8ZM665.2,596.6c-4,0-10.8,0-14.7,0v-2.3c-.4,0-1.6,0-2.1,0-.1,2.2-.1,5.9,0,8.7,3,.2,15.9.2,18.8,0,.1-2.9,0-6.2,0-8.7-.5,0-1.4,0-2.1,0v2.3ZM668.9,590.4c-4.2,0-16.4,0-22,0-.1.5-.1,1.4,0,1.9,4.8.1,17.8,0,22,0,.1-.6.1-1.4,0-1.9M648.6,588.3c2.2-.8,6.3-2.3,9.4-3.6,3,1.2,7.2,2.7,9.4,3.5.3-.4.7-1.3.8-1.8-2.3-.9-6.2-2.3-9.1-3.4,0-1.1,0-2.3,0-3.2-.6-.1-1.8-.1-2.3,0,0,.9,0,2.2,0,3.3-2.9,1.1-6.7,2.5-9,3.4.1.5.5,1.5.8,1.8M640.4,596.8c0-1.1,0-2.6,0-3.3-.6-.1-1.7-.1-2.2,0,0,.7,0,2.2,0,3.3-1.3,1.4-3,3.4-3.6,4.1-.7-.8-2.4-2.7-3.7-4.1,0-1.1,0-2.6,0-3.3-.6-.1-1.7-.1-2.2,0,0,.7,0,2.2,0,3.4-1.7,1.7-3.8,3.8-4.9,5,.3.4,1,1,1.5,1.4,1.3-1.2,3.6-3.6,4.6-4.7.9,1,2.9,3.4,4,4.5.4,0,1.2,0,1.6,0,1.1-1,3.1-3.4,4-4.5.9,1.1,3.3,3.5,4.5,4.7.5-.3,1.1-.9,1.5-1.4-1.1-1.2-3.2-3.4-4.9-5M630.3,582.6c0,1.9,0,6.8,0,9.1.5.1,1.7.1,2.2,0,.1-2.7.1-8,0-11-2.2-.1-7.4-.1-9.3,0-.1.5-.1,1.4,0,1.9,1.8,0,5.8,0,7.2,0M637,586.7c0,2.4,0,4.8,0,5.7.6,0,1.6,0,2.1,0,0-1.8,0-10.4,0-12.3-.5-.1-1.6-.1-2.1,0,0,.7,0,2.5,0,4.6-1.2,0-2.7,0-3.4,0,0,.5,0,1.4,0,1.9.7,0,2.2,0,3.4,0M644.3,592.5c0-1.9,0-10.7,0-12.6-.5-.1-1.6-.1-2.1,0,0,1.7,0,10.7,0,12.6.6,0,1.7,0,2.1,0M599.4,580.9c-.1.5-.1,1.4,0,2,2.1,0,8.6,0,10.3,0,0,1.9,0,16,0,18.4.5.1,1.8.1,2.2,0,.2-2.8.1-17.3,0-20.4-2.7-.1-10.3-.1-12.5,0M621.9,589.3c-.8,0-1.7,0-2.8,0,0-4.1,0-7.9,0-9.3-.5-.1-1.7-.1-2.2,0,0,3.2,0,19.9,0,23,.6,0,1.7.1,2.2,0,0-1.6,0-6.6,0-11.7,1.1,0,2,0,2.8,0,0-.6,0-1.5,0-2M576.8,599.7c-3.2,0-4.5-1.8-4.5-8.7s1.4-8.7,4.5-8.7,4.5,1.8,4.5,8.7-1.2,8.7-4.5,8.7M576.8,580.3c-4.7,0-6.8,2.5-6.8,10.7s2.1,10.7,6.8,10.7,6.8-2.5,6.8-10.7-2.1-10.7-6.8-10.7M590.7,580c-.5-.1-1.7-.1-2.2,0,0,1.4,0,5.2,0,9.3-1.3,0-2.6,0-3.8,0,0,.5,0,1.5,0,2.1,1.1,0,2.4,0,3.8,0,0,5,0,10,0,11.6.6,0,1.7.1,2.2,0,0-3.1.1-19.7,0-23M547.3,603c3.2.2,17.7.1,19.3,0,0-.5,0-1.2,0-1.7h-17.2v-2.2h16.6c.1-1.1.1-4.6,0-5.7-3.6,0-13.2,0-18.7,0-.1.4-.1,1.2,0,1.8h16.5v2.1h-16.6c-.1,1.9,0,4.3,0,5.7M545.8,591.2c4.8.1,17.8,0,22,0,.1-.6.1-1.2,0-1.8-4.2,0-16.4,0-22,0-.1.5-.1,1.3,0,1.8M547.6,587.4c2.7,0,16,.1,18.3,0,0-.5,0-1.2,0-1.8-2.2,0-14.1,0-16.1,0v-3.5c1.9,0,13.8,0,15.9,0,.1-.6.1-1.2,0-1.8-2.3,0-15.4-.1-18,0-.1,1.7-.2,5.4,0,7.2M525.9,601c0-1.6,0-4.8,0-6.3-.5,0-1.7,0-2.2,0,0,1.6-.1,6.3,0,8.2,4,.1,15.9.1,18.5,0,0-.5,0-1.4,0-1.9-2.5,0-12.1,0-16.3,0M524.6,582.5c2.3,0,6.4,0,8.3,0,0,1.4,0,6.4,0,7.8-2,0-6.4,0-8.3,0,0-1.4,0-6.4,0-7.8M535,592.2c.1-2.4.1-8.8,0-11.6-2.2-.1-10.7-.1-12.6,0-.1,2.6-.1,8.8,0,11.6,2.3.1,10.6.1,12.6,0M544.5,586.4c-.5,0-1.7,0-2.7,0,0-2.7,0-5.1,0-6.4-.5-.1-1.7-.1-2.2,0,0,2.9,0,13.5,0,16.6.6,0,1.7.1,2.2,0,0-1.6,0-4.9,0-8.2,1,0,2.2,0,2.7,0,0-.6,0-1.4,0-2"/>
  <path class="cls-6" d="M657.3,561c3.2.2,17.7.1,19.3,0,0-.5,0-1.2,0-1.8h-17.2v-2.2h16.6c.1-1.1.1-4.7,0-5.7-3.6,0-13.2,0-18.7,0-.1.4-.1,1.3,0,1.8h16.5v2.2h-16.6c-.1,1.9,0,4.3,0,5.7M655.7,549.1c4.8,0,17.8,0,22,0,.1-.6.1-1.3,0-1.8-4.2,0-16.4,0-22,0-.1.5-.1,1.2,0,1.8M666.7,543.4c-6.3,0-7.4-.7-7.4-1.9s1.1-1.9,7.4-1.9,7.4.7,7.4,1.9-1.1,1.9-7.4,1.9M666.7,545.3c7.9,0,9.7-1.3,9.7-3.8s-1.8-3.7-9.7-3.7-9.7,1.2-9.7,3.7,1.8,3.8,9.7,3.8"/>
  <path class="cls-6" d="M603.1,517c0-1.3,0-3.2,0-4.5-.5,0-1.7,0-2.2,0,0,1.4-.1,4.7,0,6.4,4,.1,15.9.1,18.5,0,0-.5,0-1.4,0-1.9-2.5,0-12.1,0-16.3,0M601.7,506.2c0-2.1,1.3-3,4.8-3s4.8.9,4.8,3-1.3,3-4.8,3-4.8-.9-4.8-3M613.5,506.2c0-3.6-2.1-4.8-6.9-4.8s-6.9,1.2-6.9,4.8,2.1,4.8,6.9,4.8,6.9-1.2,6.9-4.8M621.8,503.7c-.5,0-1.7,0-2.7,0,0-3.2,0-6.2,0-7.7-.5-.1-1.7-.1-2.2,0,0,3,0,14.6,0,17.9.6,0,1.7,0,2.2,0,0-1.6,0-4.8,0-8.1,1,0,2.2,0,2.7,0,0-.6,0-1.4,0-2M613.9,500c0-.5,0-1.4,0-1.9-.9,0-3.5,0-6.2,0,0-.9,0-2.1,0-2.7-.6-.1-1.8-.1-2.3,0,0,.7,0,1.8,0,2.7-3,0-5.9,0-6.6,0,0,.5,0,1.3,0,1.9,1.8,0,13.2,0,15.2,0M576.6,511.4c0,.6,0,1.3,0,1.9,2.4,0,13.5,0,16.7,0,0,1.4,0,4.1,0,5.7.5,0,1.7,0,2.2,0,0-1.6.2-5.6,0-7.6-3-.1-16.5-.1-18.9,0M579.1,500.2c2.9,0,10.9,0,14,0v2.5c-2.3,0-11.5,0-14,0v-2.5ZM597.1,507.2c-2,0-5.8,0-9.9,0,0-.8,0-1.7,0-2.5,3.7,0,7.2,0,8,0,0-1.2,0-7,0-8.6-.5,0-1.6,0-2.1,0v2.4c-3.1,0-11.1,0-14,0v-2.4c-.5,0-1.6-.1-2.2,0,0,1.5,0,7,0,8.6.9,0,4.3,0,8,0,0,.8,0,1.7,0,2.5-3.7,0-7.4,0-9.9,0-.1.5-.1,1.3,0,1.9,4.8,0,17.8,0,22,0,.1-.6.1-1.4,0-1.9M563,517.5c-6.4,0-7.5-1-7.5-2.4s1.1-2.4,7.5-2.4,7.5,1,7.5,2.4-1.1,2.4-7.5,2.4M563,510.7c-7.4,0-9.8,1.4-9.8,4.3s2.2,4.3,9.8,4.3,9.8-1.4,9.8-4.3-2.2-4.3-9.8-4.3M553.6,504.8c0-1.5.9-2.4,3.4-2.4s3.4.9,3.4,2.4-.9,2.4-3.4,2.4-3.4-.9-3.4-2.4M562.5,504.8c0-2.9-1.7-4.3-5.5-4.3s-5.5,1.3-5.5,4.3,1.7,4.3,5.5,4.3,5.5-1.3,5.5-4.3M566.9,509.5c0-.9,0-3.3,0-5.9,1.1,0,2.3,0,3.5,0,0,2.8,0,5.4,0,6.3.6,0,1.7,0,2.1,0,0-2,0-12,0-14-.5-.1-1.6-.1-2.1,0,0,.8,0,3.1,0,5.7-1.2,0-2.4,0-3.5,0,0-2.4,0-4.7,0-5.6-.5-.1-1.6-.1-2.1,0,0,1.8-.1,11.4,0,13.4.6,0,1.6,0,2.1,0M562.9,499.4c0-.5,0-1.3,0-1.8-1,0-2.9,0-4.8,0,0-.8,0-1.7,0-2.1-.6-.1-1.7-.1-2.3,0,0,.5,0,1.4,0,2.1-2.1,0-4.1,0-4.8,0,0,.5,0,1.3,0,1.8,1.6,0,10.1,0,11.9,0M523.4,519c3.2.2,17.7.1,19.3,0,0-.5,0-1.2,0-1.7h-17.2v-2.3h16.6c.1-1.1.1-4.8,0-5.9-3.6,0-13.2,0-18.7,0-.1.4-.1,1.3,0,1.8h16.5v2.3h-16.6c-.1,1.9,0,4.4,0,5.9M521.8,506.7c4.8,0,17.8,0,22,0,.1-.6.1-1.4,0-1.9-4.2,0-16.4,0-22,0-.1.5-.1,1.3,0,1.9M523.7,502.4c2.6.1,16.3.1,18.5,0,0-.6,0-1.3,0-1.9-2.1,0-14.3,0-16.2,0,0-.9,0-3.2,0-4.4-.5,0-1.7,0-2.2,0,0,1.3-.1,4.5,0,6.2"/>
  <path class="cls-6" d="M707.3,473.7c-3.2,0-4.5-1.8-4.5-8.7s1.4-8.7,4.5-8.7,4.5,1.8,4.5,8.7-1.2,8.7-4.5,8.7M707.3,454.3c-4.7,0-6.8,2.5-6.8,10.7s2.1,10.7,6.8,10.7,6.8-2.5,6.8-10.7-2.1-10.7-6.8-10.7M721.3,454c-.5-.1-1.7-.1-2.2,0,0,.8,0,2.6,0,4.8-1.4,0-2.9,0-4.1,0,0,.5,0,1.4,0,2,1.1,0,2.7,0,4.1,0,0,2.3,0,4.9,0,7.3-1.4,0-2.9,0-4.1,0,0,.5,0,1.4,0,2,1.1,0,2.7,0,4.1,0,0,3.1,0,5.8,0,6.9.6,0,1.7.1,2.2,0,0-3.1.1-19.7,0-23M698.3,463.1c-4.2,0-16.4,0-22,0-.1.5-.1,1.3,0,1.8,2.2,0,6,0,9.9,0,0,.7,0,1.5,0,2.3-3,0-6,0-8.2,0-.1.4-.1,1.3,0,1.8h16.5v2.2h-16.6c-.1,1.9,0,4.3,0,5.7,3.2.2,17.7.1,19.3,0,0-.5,0-1.2,0-1.8h-17.2v-2.2h16.6c.1-1.1.1-4.7,0-5.7-1.7,0-4.8,0-8.2,0,0-.8,0-1.5,0-2.3,4.1,0,7.9,0,9.9,0,.1-.6.1-1.3,0-1.8M687.3,455.6c6.3,0,7.4.7,7.4,1.9s-1.1,1.9-7.4,1.9-7.4-.8-7.4-1.9,1.1-1.9,7.4-1.9M687.3,461.3c7.9,0,9.7-1.3,9.7-3.8s-1.8-3.7-9.7-3.7-9.7,1.3-9.7,3.7,1.8,3.8,9.7,3.8M662.9,475.3c.5.1,1.8.1,2.2,0,.2-2.8.1-17.3,0-20.4-2.8-.1-10.2-.1-12.3,0-.1.5-.1,1.4,0,2,2.1,0,8.5,0,10.2,0,0,1.9,0,16,0,18.4M671.2,477c.6,0,1.7.1,2.2,0,0-3.1.1-19.7,0-23-.5-.1-1.7-.1-2.2,0,0,3.2-.1,19.9,0,23M623,466.4c-.1.5-.1,1.3,0,1.9,1.5,0,4.3,0,7.2,0,0,2.7,0,6.7,0,8.5.6,0,1.7,0,2.2,0,0-1.8,0-5.8,0-8.5,3.2,0,6.1,0,7.2,0,0-.6,0-1.3,0-1.9-2.6,0-13.9,0-16.7,0M635.5,456.6c0,1.7,0,5.4,0,7.4.5.1,1.7.1,2.2,0,.1-2.4.1-6.6,0-9.3-2.8-.1-10.7-.1-13,0-.1.5-.1,1.4,0,1.9,2.3,0,9.2,0,10.9,0M643.9,454c-.5-.1-1.7-.1-2.2,0-.1,3.2-.1,19.9,0,23,.6.1,1.7.1,2.2,0,0-3.1,0-19.7,0-23M599.2,473.7c-2.2,0-3.3-1.4-3.3-8.7s1.1-8.7,3.3-8.7,3.3,1.4,3.3,8.7-1.1,8.7-3.3,8.7M607.9,454.1c0,1.3,0,5.1,0,9.2-1.1,0-2.2,0-3.2,0-.2-7.4-2.1-9-5.5-9s-5.5,2-5.5,10.7,1.9,10.7,5.5,10.7,5.5-1.9,5.5-10.4c1,0,2.1,0,3.1,0,0,4.9,0,9.9,0,11.5.6,0,1.7,0,2.1,0,0-3,0-19.4,0-22.7-.5-.1-1.6-.1-2.1,0M614.9,454c-.5-.1-1.6-.1-2.1,0,0,3.1,0,19.9,0,23.1.6,0,1.7,0,2.1,0,0-3.1,0-19.8,0-23.1M570.7,475.1c3.2.1,12,0,14,0,0-.6,0-1.4,0-1.9-2.2,0-9.6,0-11.9,0,0-1.6,0-5.5,0-7.1,2.1,0,7.5,0,10,0,.1-3,.1-8.1,0-11.1-2.9-.1-10.1-.1-12.1,0-.1.6-.1,1.4,0,2,2,0,8.1,0,9.9,0,0,1.6,0,5.5,0,7.2-1.4,0-7.2,0-10,0-.1,3-.1,8.1,0,11.1M588.5,477c.6,0,1.7.1,2.2,0,0-3.1.1-19.7,0-23-.5-.1-1.7-.1-2.2,0,0,3.2-.1,19.9,0,23M567.7,474.3c-1.3,0-5.4,0-9.9,0,0-2.1,0-5.4,0-6.7-.6,0-1.7-.1-2.2,0,0,1.2,0,4.6,0,6.7-4.1,0-8,0-9.9,0-.1.6-.1,1.3,0,1.9,3.3,0,19.3.1,22,0,.1-.6.1-1.4,0-1.9M547.9,468.1c2.1-1.4,6-4.1,8.9-6.3,2.9,2.1,6.9,4.8,8.9,6.1.4-.3,1.1-1.2,1.2-1.8-2.3-1.6-6.3-4.3-9.1-6.2,0-2,0-4.4,0-5.5-.6,0-1.7-.1-2.3,0,0,1.1,0,3.6,0,5.6-2.8,2-6.7,4.7-8.9,6.3.2.5.9,1.4,1.3,1.7M523.3,469.4c0,.6,0,1.3,0,1.9,2.4,0,13.5,0,16.7,0,0,1.4,0,4.1,0,5.7.5,0,1.7,0,2.2,0,0-1.6.2-5.6,0-7.6-3-.1-16.5-.1-18.9,0M525.8,456.1c1.7,0,12.6,0,14.1,0v4.4c-1.5,0-12.6,0-14.1,0v-4.4ZM543.8,465.2c-2,0-5.8,0-9.9,0,0-.9,0-1.8,0-2.8,3.7,0,7.1,0,8,0,.2-1.8.2-5.6,0-8-1.8,0-16.4-.1-18.3,0-.1,2.4-.2,5.8,0,8,.9,0,4.3,0,8,0,0,.9,0,1.9,0,2.8-3.7,0-7.4,0-9.9,0-.1.5-.1,1.4,0,1.9,4.8,0,17.8,0,22,0,.1-.6.1-1.4,0-1.9"/>
  <path class="cls-6" d="M646.9,433c3.5,0,14.5,0,16.8,0,.1-.6.1-1.3,0-1.9-2.7-.1-13.9-.1-16.8,0-.1.5-.1,1.3,0,1.9M655.3,424.1c-3.7,0-5-1.8-5-5s1.3-5,5-5,5,1.8,5,5-1.3,5-5,5M655.3,426.1c5.1,0,7.2-2.5,7.2-7s-2.1-7-7.2-7-7.2,2.5-7.2,7,2.1,7,7.2,7M665.6,435c.6,0,1.7.1,2.2,0,0-3.1,0-19.7,0-23-.5-.1-1.7-.1-2.2,0-.1,3.2-.1,19.9,0,23M626.8,433.1c0-1.1,0-3.4,0-4.9-.5,0-1.7,0-2.2,0,0,1.5-.1,4.9,0,6.8,2.4.1,17.1.1,19.5,0,.1-.5.1-1.4,0-1.9-2.4,0-13.2,0-17.3,0M645,424c-4.2,0-16.4,0-22,0-.1.5-.1,1.4,0,1.9,2.2,0,6.2,0,10.2,0,0,1.3,0,2.9,0,4,.6.1,1.7.1,2.2,0,0-1.2,0-2.7,0-4,3.9,0,7.6,0,9.5,0,.1-.6.1-1.4,0-1.9M641,419.5c-2.3,0-11.5,0-14,0v-3c2.9,0,10.9,0,14,0v3ZM643.1,421.3c0-1.3,0-7.7,0-9.4-.5,0-1.6,0-2.1,0v2.8c-3.1,0-11.1,0-14,0v-2.8c-.5,0-1.6-.1-2.2,0,0,1.6,0,7.7,0,9.4,2.1.1,16.5.1,18.3,0M602.3,431.1c0-1.6,0-5.5,0-7.1,1.9,0,6.7,0,9,0,.1-3,.1-8.1,0-11.1-2.6-.1-9.2-.1-11.1,0-.1.6-.1,1.4,0,2,1.9,0,7.2,0,8.9,0,0,1.6,0,5.5,0,7.2-1.3,0-6.4,0-9,0-.1,3-.1,8.1,0,11.1,3,.1,11.1,0,13,0,0-.6,0-1.4,0-1.9-2.1,0-8.7,0-10.8,0M620.1,412c-.5-.1-1.7-.1-2.2,0,0,1.4,0,5.2,0,9.4-1.7,0-3.5,0-4.8,0,0,.5,0,1.5,0,2,1.2,0,3,0,4.8,0,0,5,0,10,0,11.6.6,0,1.7.1,2.2,0,0-3.1.1-19.7,0-23M582.3,431.7c-3.2,0-4.5-1.8-4.5-8.7s1.4-8.7,4.5-8.7,4.5,1.8,4.5,8.7-1.2,8.7-4.5,8.7M582.3,412.3c-4.7,0-6.8,2.5-6.8,10.7s2.1,10.7,6.8,10.7,6.8-2.5,6.8-10.7-2.1-10.7-6.8-10.7M596.2,412c-.5-.1-1.7-.1-2.2,0,0,.8,0,2.6,0,4.8-1.4,0-2.9,0-4.1,0,0,.5,0,1.4,0,2,1.1,0,2.7,0,4.1,0,0,2.3,0,4.9,0,7.3-1.4,0-2.9,0-4.1,0,0,.5,0,1.4,0,2,1.1,0,2.7,0,4.1,0,0,3.1,0,5.8,0,6.9.6,0,1.7.1,2.2,0,0-3.1.1-19.7,0-23M554.2,414.8c2.5,0,4.8,0,5.7,0,0-.5,0-1.4,0-1.9-2.7,0-11.9,0-13.7,0-.1.5-.1,1.3,0,1.9.8,0,3.1,0,5.7,0,0,1.9,0,5,0,7.2-2.2,3.6-5,8.2-6.4,10.6.4.4,1.3.9,1.9,1,1.3-2.1,3.9-6.3,5.7-9.6,2,3,4.5,6.9,6.2,9.2.7-.2,1.4-.7,1.7-1.2-1.5-2.4-4.6-6.9-6.7-9.9,0-2.2,0-5.3,0-7.3M568.3,421.3c-.8,0-1.7,0-2.8,0,0-4.1,0-7.9,0-9.3-.5-.1-1.7-.1-2.2,0,0,3.2,0,19.9,0,23,.6,0,1.7.1,2.2,0,0-1.6,0-6.6,0-11.7,1.1,0,2,0,2.8,0,0-.6,0-1.5,0-2M523.3,427.4c0,.6,0,1.3,0,1.9,2.4,0,13.5,0,16.7,0,0,1.4,0,4.1,0,5.7.5,0,1.7,0,2.2,0,0-1.6.2-5.6,0-7.6-3-.1-16.5-.1-18.9,0M543.8,423.2c-2,0-5.8,0-9.9,0,0-.9,0-1.8,0-2.7,3.6,0,7,0,8,0,0-.5,0-1.3,0-1.9-2.2,0-14.1,0-16.1,0v-4.4c1.9,0,13.8,0,15.9,0,.1-.6.1-1.3,0-1.8-2.3,0-15.4-.1-18,0-.1,1.9-.2,6.2,0,8.1,1.2,0,4.5,0,8,0,0,.8,0,1.8,0,2.7-3.7,0-7.4,0-9.9,0-.1.5-.1,1.4,0,1.9,4.8,0,17.8,0,22,0,.1-.6.1-1.4,0-1.9"/>
  <g>
    <path class="cls-7" d="M570.4,535.3s-1.7-1.9-2.4-2.2-2.8-.1-3.1,1.4.2,2.6.5,3.2,2,3,2.8,3.9c.7.7,3.3,2.6,3.3,2.6,0,0,3.3-3.2,4.1-5s1-4.3.8-5.2-1.1-2-2.3-2.5-2.2.3-2.6.9-1.1,2.9-1.1,2.9Z"/>
    <g>
      <polygon class="cls-4" points="536.5 541.5 535.1 541.5 535.1 537.4 531.9 537.4 531.9 548.5 535.1 548.5 535.1 544.7 536.5 544.7 536.5 548.5 539.7 548.5 539.7 537.4 536.5 537.4 536.5 541.5"/>
      <polygon class="cls-4" points="555.1 539 551.6 539 551.6 542.2 555.1 542.2 555.1 544 551.6 544 551.6 547.2 555.1 547.2 555.1 548.5 558.5 548.5 558.5 537.4 555.1 537.4 555.1 539"/>
      <path class="cls-4" d="M573.7,547.5h-2.5c-.8-2.2-2.8-3.7-5.2-3.7s-5.5,2.5-5.5,5.5,2.5,5.5,5.5,5.5,4.8-1.8,5.4-4.2h2.3v4.2h3.1v-11.1h-3.1v3.7ZM566,551.1c-1,0-1.8-.8-1.8-1.8s.8-1.8,1.8-1.8,1.8.8,1.8,1.8-.8,1.8-1.8,1.8Z"/>
      <rect class="cls-4" x="578.3" y="543.8" width="3.1" height="11.1"/>
      <path class="cls-4" d="M549,551h0v12.3h9.3v-3.1h-5.1s0,0,0,0c-.5,0-.9-.4-1-.9h0v-1.2h5.7v-3.1h-5.7v-1.2h0c0-.5.4-.9,1-.9s0,0,0,0h0s5.1,0,5.1,0v-3.1h-8c-.6,0-1.2.5-1.2,1.1Z"/>
      <path class="cls-4" d="M589.8,551.7h4.3v1.5h-4.2v3.1h7.4c.7,0,1.2.6,1.2,1.2s0,0,0,.1h0v4.2h2c.6,0,1.1-.6,1.1-1.2v-7.4h-4.1v-1.5h4.2v-3.2h-12v3.2Z"/>
      <rect class="cls-4" x="640" y="548.5" width="12" height="3.2"/>
      <path class="cls-4" d="M526.1,544.2s0,0,0-.1h0v-6.7h-2c-.6,0-1.1.6-1.1,1.2v9.9h7.7v-3.1h-3.3c-.7,0-1.2-.6-1.2-1.2Z"/>
      <path class="cls-4" d="M613.9,554.9v-.4s0-3.5,0-3.5v-1.2h-2c-.6,0-1.1.6-1.1,1.2v7.9h8.5v-3.1h-4.4c-.7,0-.9-.3-.9-1Z"/>
      <path class="cls-4" d="M632.5,554.9v-.4s0-3.5,0-3.5v-1.2h-2c-.6,0-1.1.6-1.1,1.2v7.9h8.5v-3.1h-4.4c-.7,0-.9-.3-.9-1Z"/>
      <path class="cls-4" d="M549.5,547.3v-9.9h-7.7v3.1h3.3c.7,0,1.2.6,1.2,1.2s0,0,0,.1h0v6.7h2c.6,0,1.1-.6,1.1-1.2Z"/>
      <path class="cls-4" d="M598.5,541.8s0,0,0,.1h0v4.2h2c.6,0,1.1-.6,1.1-1.2v-7.4h-11.8v3.1h7.4c.7,0,1.2.6,1.2,1.2Z"/>
      <path class="cls-4" d="M648.7,541.8s0,0,0,.1h0v4.2h2c.6,0,1.1-.6,1.1-1.2v-7.4h-11.8v3.1h7.4c.7,0,1.2.6,1.2,1.2Z"/>
      <path class="cls-4" d="M634.7,538.9h-4.2c-1-.9-2.3-1.5-3.8-1.5-3.1,0-5.5,2.5-5.5,5.5s2.5,5.5,5.5,5.5,3-.7,4-1.7h3.9v1.7h3.3v-11.1h-3.3v1.5ZM626.8,544.8c-1,0-1.8-.8-1.8-1.8s.8-1.8,1.8-1.8,1.8.8,1.8,1.8-.8,1.8-1.8,1.8ZM632.3,543.6c0-.2,0-.4,0-.7s0-.6,0-.9h2.5v1.6h-2.4Z"/>
      <rect class="cls-4" x="616.2" y="537.5" width="3.3" height="11"/>
      <path class="cls-4" d="M613.1,548.5v-11h-8.2c-.6,0-1.1.4-1.1,1h0v10h9.3ZM607.8,545.3c-.3,0-.6-.3-.6-.6v-3.5c0-.3.3-.6.6-.6h1.9v4.6h-1.9Z"/>
      <path class="cls-4" d="M648.6,552.9h-7.6c-.6,0-1.1.4-1.1,1h0v8.3h12.1v-9.3h-3.4ZM643.8,559c-.3,0-.6-.3-.6-.6v-1.8c0-.3.3-.6.6-.6h4.8v2.9h-4.8Z"/>
    </g>
    <path class="cls-9" d="M570.4,535.3"/>
    <path class="cls-2" d="M573.4,531.9c.1-.1.5,0,.7,0,.3,0,.8.4,1,.7s.4.5.5.7.1.3.1.5,0,.3-.1.3c-.1,0-.5,0-.7,0-.3-.1-.7-.5-.9-.7s-.4-.4-.5-.6-.3-.7-.1-.9Z"/>
  </g>
</svg>