<?xml version="1.0" encoding="UTF-8"?>
<svg xmlns="http://www.w3.org/2000/svg" xmlns:xlink="http://www.w3.org/1999/xlink" version="1.1" viewBox="0 0 825 785">
  <defs>
    <style>
      .cls-1 {
        fill: #00d6c7;
      }

      .cls-1, .cls-2, .cls-3, .cls-4, .cls-5, .cls-6, .cls-7, .cls-8, .cls-9, .cls-10, .cls-11, .cls-12, .cls-13, .cls-14, .cls-15 {
        stroke-width: 0px;
      }

      .cls-16 {
        clip-path: url(#clippath);
      }

      .cls-2, .cls-17 {
        fill: none;
      }

      .cls-3 {
        fill: #ffb6d7;
      }

      .cls-4 {
        fill: #00d755;
      }

      .cls-5 {
        fill: #ffff5a;
      }

      .cls-6 {
        fill: #323232;
      }

      .cls-7 {
        fill: #ffa0c6;
      }

      .cls-17 {
        stroke: #000;
        stroke-linejoin: round;
        stroke-width: 3px;
      }

      .cls-8 {
        fill: #8b6cff;
      }

      .cls-9 {
        fill: #6f38f1;
      }

      .cls-10 {
        fill: #d8e144;
      }

      .cls-11 {
        fill: #00dc5f;
      }

      .cls-12 {
        fill: #d90028;
      }

      .cls-13 {
        fill: #303030;
      }

      .cls-18 {
        isolation: isolate;
      }

      .cls-14 {
        fill: #00dbb2;
      }

      .cls-15 {
        fill: #fff;
      }

      .cls-19 {
        mix-blend-mode: multiply;
        opacity: .5;
      }
    </style>
    <clipPath id="clippath">
      <rect class="cls-2" x="132.4" y="46.7" width="578.7" height="735.5"/>
    </clipPath>
  </defs>
  <g class="cls-18">
    <g id="_레이어_1" data-name="레이어 1">
      <g class="cls-19">
        <g class="cls-16">
          <polygon class="cls-10" points="141.7 72.7 167.7 779.7 702.2 762.1 676.1 55.2 141.7 72.7"/>
        </g>
      </g>
      <polygon class="cls-15" points="186.7 47.6 135.4 743.8 652.1 777.7 703.4 81.5 186.7 47.6"/>
      <path class="cls-5" d="M288.9,63.1c-6.7-17.2-20.5-32-41.4-40.3C191.1.2,113.7,21.6,68.2,59.2c-17.9,14.7-32.5,33.2-36.8,56.6-7.3,40.5,19.7,76.8,58.9,85,5.9,1.2,12,2,18,2.3l36.8,21.5-4.4-22.6c9.5-1.1,19.6-2.8,30.2-5.2,34.1-7.5,69-23.2,95.2-46.7,26.2-23.5,34-58.5,22.9-86.9"/>
      <path class="cls-17" d="M296,53.9c-6.7-17.2-20.5-32-41.4-40.3-56.5-22.5-133.8-1.1-179.4,36.4-17.9,14.7-32.5,33.2-36.8,56.6-7.3,40.5,19.7,76.8,58.9,85,5.9,1.2,12,2,18,2.3l36.8,21.5-4.4-22.6c9.5-1.1,19.6-2.8,30.2-5.2,34.1-7.5,69-23.2,95.2-46.7,26.2-23.5,34-58.5,22.9-86.9Z"/>
      <path class="cls-15" d="M462.7,510.9c15.6,0,23.5-7.5,23.5-22.2v-12.8c0-4.9-.9-9.1-2.7-12.4-3.4-1.5-7.5-2.2-12.3-2.2h-14.4v49.6h6ZM541.3,616.4c-3.9,0-6.6-.9-8.4-2.6h0c0-.1-.2-.2-.3-.3h0c0-.1-.2-.2-.3-.3h0c0-.1-.2-.2-.3-.3h0c0-.1-.2-.2-.3-.3h0c0-.1-.2-.2-.3-.3h0c0-.1-.2-.2-.3-.3h0c0,0-.2-.2-.3-.2h0c0-.1-.2-.2-.3-.3h0c-.1-.1-.2-.2-.3-.3h0c0,0-.2-.2-.3-.2h0c-.1-.1-.2-.2-.3-.3h0c0,0-.2-.2-.3-.3h0c0,0-.2-.2-.3-.2h0c0-.1-.2-.2-.3-.3h0c0-.1-.2-.2-.3-.3h0c-.1-.1-.2-.2-.3-.3h0c0,0-.2-.2-.3-.2h0c0-.1-.2-.2-.3-.3h0c0-.1-.2-.2-.3-.3h0c-.1-.1-.2-.2-.3-.3h0c0,0-.2-.2-.3-.2h0c0-.1-.2-.2-.3-.3h0c0-.1-.2-.2-.3-.3h0c0-.1-.2-.2-.3-.3h0c0-.1-.2-.2-.3-.3h0c0-.1-.2-.2-.3-.3-1.9-1.7-2.8-4.3-2.8-8.1v-108.1l-.5-6.1-2.2-2c-.7-.7-1.6-1.5-2.5-2.4,0,.5,0,1,0,1.5v17.4c0,25.3-17.1,40.4-45.7,40.4h-14.4v66.8c0,7.1-3.5,10.5-11.1,10.5s-6.7-.9-8.5-2.7c-.1-.1-.2-.2-.3-.3-.1-.1-.2-.2-.3-.3-.1-.1-.2-.2-.3-.3-.1-.1-.2-.2-.3-.3-.1-.1-.2-.2-.3-.3-.1-.1-.2-.2-.3-.3-.1-.1-.2-.2-.3-.3-.1-.1-.2-.2-.3-.3-.1-.1-.2-.2-.3-.3-.1-.1-.2-.2-.3-.3-.1-.1-.2-.2-.3-.3-.1-.1-.2-.2-.3-.3,0,0-.2-.2-.3-.2-.1-.1-.2-.2-.3-.3-.1-.1-.2-.2-.4-.3,0,0-.2-.2-.3-.2-.1-.1-.2-.2-.3-.3-.1-.1-.2-.2-.3-.3,0,0-.2-.2-.3-.2-.1-.1-.2-.2-.3-.3-.1-.1-.3-.2-.3-.3,0,0-.2-.2-.3-.2-.1-.1-.2-.2-.3-.3,0,0-.2-.2-.3-.3-.1-.1-.2-.2-.3-.3-.1-.1-.2-.2-.3-.3-2-1.7-2.9-4.4-2.9-8.1v-154.4c0-7.2,3.5-10.7,10.7-10.7h26c14.2,0,25.9,3.7,33.8,10.8l8.1,7.3c3.8,3.3,6.8,7.4,8.8,12.2.5-1,1.2-2.1,2-3.3h0c0,0,.5-.6.5-.6-.3-2.6-1.1-9.3-2.9-16.9h0c-.8-3.4-1.8-7.5-.1-11.2.4-.8.8-1.5,1.4-2.2.9-.9,1.9-1.6,3.1-2,.9-.3,1.9-.5,2.8-.5s2.6.3,3.9,1c.9.5,1.7,1.1,2.5,1.8h0c0,.1.2.2.2.3h0c0,.1.2.2.2.3h0c0,.1.2.2.3.3h0c0,.1.2.2.2.3h0c0,.1.2.2.2.3h0c0,.1.2.2.3.3h0c0,.1.2.2.2.3h0c0,.1.2.2.2.3h0c0,.1.2.2.3.3h0c0,.1.2.2.2.3h0c0,.1.2.2.2.3h0c0,.1.2.2.3.3h0c0,.1.2.2.2.3h0c0,.1.2.2.2.3h0c0,.1.2.2.3.3h0c0,.1.2.2.2.3h0c0,.1.2.2.2.3h0c0,.1.2.2.3.3h0c0,.1.2.2.2.3h0c0,.1.2.2.2.3h0c0,.1.2.2.3.3h0c0,.1.2.2.2.3h0c0,.1.2.2.3.3h0c0,.1.2.2.2.3h0c0,.1.2.2.2.3h0c0,.1.2.2.2.3,2,1.8,3.6,4.5,4.2,7.2.1.5.2,1,.3,1.6,0,0,.2,0,.3,0,.7,0,1.3,0,1.9.3,1.3.4,2.4,1.1,3.4,2,0,0,.2.2.3.3,0,0,.2.2.3.3,0,0,.2.2.3.3,0,0,.2.2.3.3,0,0,.2.2.3.3,0,0,.1,0,.2.2,2,.1,3.7.9,5,2.3h0c0,0,.2.2.3.3h0c0,.1.2.2.3.3h0c0,0,.2.2.3.3h0c0,.1.2.2.3.3h0c0,.1.2.2.3.3h0c0,0,.2.2.3.3h0c0,.1.2.2.3.3h0c0,0,.2.2.2.2h0c0,.1.2.2.3.3h0c0,0,.2.2.2.2h0c0,.1.2.2.3.3h0c0,0,.2.2.3.3h0c0,.1.2.2.3.3h0c0,.1.2.2.3.3h0c0,.1.2.2.3.3h0c0,0,.2.2.3.3h0c0,.1.2.2.3.3h0c0,.1.2.2.3.3h0c0,0,.2.2.3.3h0c0,.1.2.2.3.3h0c0,0,.2.2.2.2h0c.1.1.2.2.3.3h0c0,.1.2.2.3.3h0c0,0,.2.2.3.2h0c0,.1.2.2.3.3h0c0,.1.2.2.3.3.3.3.7.7,1,1,2.3,3,2.8,7.9,1.3,12.2-.3.9-.7,1.8-1.4,3,.1,1.3.2,3.7-.9,6.8-1.4,4.4-4.2,7.9-5.8,9.6-.3.3-.5.6-.7.8l-.9,5.8v107.5c0,7.2-3.4,10.5-10.9,10.5"/>
      <path class="cls-8" d="M457.9,462.6h13.2c4.4,0,8.3.7,11.4,1.9,1.6,3.1,2.4,6.9,2.4,11.4v12.8c0,13.9-7.5,20.9-22.2,20.9h-4.8v-47.1ZM520.1,425.6h0c-1.1,0-2.2.2-3.2.6-1.4.5-2.6,1.3-3.5,2.4-.7.7-1.2,1.6-1.7,2.5-1.9,4.1-.8,8.6,0,11.9h0c1.7,7.2,2.5,13.5,2.8,16.3h0c0,.1-.1.2-.2.3-.3.4-.6.9-.9,1.3-2-4-4.8-7.5-8.1-10.5h0c0-.1-.2-.2-.2-.3h0c0-.1-.2-.2-.2-.3h0c0-.1-.2-.2-.2-.3h0c0-.1-.2-.2-.2-.3h0c0-.1-.2-.2-.2-.3h0c0-.1-.2-.2-.2-.3h0c0-.1-.2-.2-.2-.3h0c0-.1-.2-.2-.2-.3h0c0-.1-.2-.2-.2-.3h0c0-.1-.2-.2-.2-.3h0c0-.1-.2-.2-.2-.3h0c0-.1-.2-.2-.2-.3h0c0-.1-.2-.2-.2-.3h0c0-.1-.2-.2-.2-.3h0c0-.1-.2-.2-.2-.3h0c0-.1-.2-.2-.2-.3h0c0-.1-.2-.2-.2-.3h0c0-.1-.2-.2-.2-.3h0c0-.1-.2-.2-.2-.3h0c0-.1-.2-.2-.2-.3h0c0-.1-.2-.2-.2-.3h0c0-.1-.2-.2-.2-.3h0c0-.1-.2-.2-.2-.3h0c0-.1-.2-.2-.2-.3h0c0-.1-.2-.2-.2-.3h0c0-.1-.2-.2-.2-.3-8.1-7.3-20.1-11.1-34.6-11.1h-26c-7.9,0-12,4-12,12v154.4c0,4.1,1.1,7.1,3.3,9,.1,0,.2.2.3.3.1,0,.2.2.3.3.1,0,.2.2.3.3h0c.1,0,.2.2.3.3.1,0,.2.2.3.3.1,0,.2.2.3.3.1,0,.2.2.3.3.1,0,.2.2.3.3.1,0,.2.2.3.3,0,0,.2.2.3.3,0,0,.2.2.3.3.1,0,.2.2.3.3.1,0,.2.2.3.3.1,0,.2.2.3.3.1,0,.2.2.3.3.1,0,.2.2.3.3.1,0,.2.2.3.3.1,0,.2.2.3.3,0,0,.2.2.3.3.1,0,.2.2.3.3.1,0,.2.2.3.3.1,0,.2.2.3.3,0,0,.2.2.3.3h0c.1,0,.2.2.3.3.1,0,.2.2.3.3,0,0,.2.2.3.3,2.1,2,5.1,3,9.4,3,8.3,0,12.4-3.8,12.4-11.7v-65.5h13.2c29.4,0,46.9-15.6,46.9-41.7v-15.9c.1.1.2.2.4.3h0s.3.3.3.3h0c0,0,.2.3.2.3,0,0,.2.2.3.3,0,0,.2.2.3.3l.3.3.2.2.5,5.5v108c0,4.1,1.1,7.1,3.2,9.1,0,0,.2.2.3.3h0c0,.1.2.2.3.3h0c0,.1.2.2.3.3h0c0,.1.2.2.3.3h0c0,.1.2.2.3.3h0c0,.1.2.2.3.3h0c0,.1.2.2.3.3h0c0,.1.2.2.3.3h0c0,.1.2.2.3.3h0c0,.1.2.2.3.3h0c0,.1.2.2.3.3h0c0,.1.2.2.3.3h0c0,.1.2.2.3.3h0c0,.1.2.2.3.3h0c0,.1.2.2.3.3h0c0,.1.2.2.3.3h0c0,.1.2.2.3.3h0c0,.1.2.2.3.3h0c0,.1.2.2.3.3h0c0,.1.2.2.3.3h0c0,.1.2.2.3.3h0c0,.1.2.2.3.3h0c0,.1.2.2.3.3h0c0,.1.2.2.3.3h0c0,.1.2.2.3.3h0c0,.1.2.2.3.3h0c2,2,5,3,9.2,3,8.2,0,12.2-3.8,12.2-11.7v-107.4l.8-5.3c.2-.2.3-.3.5-.5,1.6-1.8,4.6-5.4,6-10,1-2.9,1.1-5.3.9-6.8.7-1.1,1-2,1.3-2.9,1.7-4.8,1.1-10-1.5-13.4-.3-.4-.7-.8-1.1-1.2,0,0-.2-.2-.3-.3h0c0-.1-.2-.2-.3-.3h0c0-.1-.2-.2-.3-.3h0c0-.1-.2-.2-.3-.3h0c0-.1-.2-.2-.3-.3h0c0-.1-.2-.2-.3-.3h0c0-.1-.2-.2-.3-.3h0c0-.1-.2-.2-.3-.3h0c0-.1-.2-.2-.3-.3h0c0-.1-.2-.2-.3-.3h0c0-.1-.2-.2-.3-.3h0c0-.1-.2-.2-.3-.3h0c0-.1-.2-.2-.3-.3h0c0-.1-.2-.2-.3-.3h0c0-.1-.2-.2-.3-.3h0c0-.1-.2-.2-.3-.3h0c0-.1-.2-.2-.3-.3h0c0-.1-.2-.2-.3-.3h0c0-.1-.2-.2-.3-.3h0c0-.1-.2-.2-.3-.3h0c0-.1-.2-.2-.3-.3h0c0-.1-.2-.2-.3-.3h0c0-.1-.2-.2-.3-.3h0c0-.1-.2-.2-.3-.3h0c0-.1-.2-.2-.3-.3h0c0-.1-.2-.2-.3-.3h0c-1.4-1.5-3.3-2.3-5.3-2.5,0,0-.1-.1-.2-.2-.1,0-.2-.2-.3-.3-.1,0-.2-.2-.3-.3-.1,0-.2-.2-.3-.3-.1,0-.2-.2-.3-.3-1.1-1-2.4-1.8-3.9-2.3-.5-.2-1-.3-1.5-.3,0-.2,0-.5-.1-.7-.7-2.9-2.4-5.8-4.6-7.8,0,0-.2-.2-.3-.2h0c0-.1-.2-.2-.3-.3h0c0-.1-.2-.2-.3-.3h0c0-.1-.2-.2-.3-.3h0c0-.1-.2-.2-.2-.3h0c0-.1-.2-.2-.3-.3h0c0-.1-.2-.2-.3-.3h0c0-.1-.2-.2-.3-.3h0c0-.1-.2-.2-.2-.3h0c0-.1-.2-.2-.2-.3h0c0-.1-.2-.2-.3-.3h0c0-.1-.2-.2-.3-.3h0c0-.1-.2-.2-.2-.3h0c0-.1-.2-.2-.2-.3h0c0-.1-.2-.2-.3-.3h0c0-.1-.2-.2-.2-.3h0c0-.1-.2-.2-.3-.3h0c0-.1-.2-.2-.3-.3h0c0-.1-.2-.2-.3-.3h0c0-.1-.2-.2-.3-.3h0c0-.1-.2-.2-.3-.3h0c0-.1-.2-.2-.3-.3h0c0-.1-.2-.2-.3-.3h0c0-.1-.2-.2-.2-.3h0c0-.1-.2-.2-.2-.3h0c0-.1-.2-.2-.3-.3h0c-.8-.9-1.7-1.5-2.7-2-1.4-.8-3-1.2-4.5-1.2M455.4,512.2h7.3c15.3,0,24.7-7.3,24.7-23.5v-12.8c0-5.4-1.1-9.9-3.1-13.4-3.7-1.7-8.1-2.5-13.2-2.5h-15.7v52.1ZM520.1,428.2c1.1,0,2.2.3,3.3.9.8.4,1.5,1,2.2,1.6.1,0,.2.2.3.3.1,0,.2.2.3.3.1,0,.2.2.3.3.1,0,.2.2.3.3.1,0,.2.2.3.3.1,0,.2.2.3.3.1,0,.2.2.3.3.1,0,.2.2.3.3.1,0,.2.2.3.3.1,0,.2.2.3.3.1,0,.2.2.3.3.1,0,.2.2.3.3.1,0,.2.2.3.3.1,0,.2.2.3.3.1,0,.2.2.3.3.1,0,.2.2.3.3.1,0,.2.2.3.3.1,0,.2.2.3.3.1,0,.2.2.3.3.1,0,.2.2.3.3.1,0,.2.2.3.3.1,0,.2.2.3.3.1,0,.2.2.3.3.1,0,.2.2.3.3.1,0,.2.2.3.3.1,0,.2.2.3.3,2,1.8,3.4,4.4,3.8,6.5.2.9.3,1.8.4,2.8.4-.1.9-.2,1.4-.2s1,0,1.5.2c1.1.4,2.1.9,2.9,1.7.1,0,.2.2.3.3.1,0,.2.2.3.3.1,0,.2.2.3.3.1,0,.2.2.3.3.1,0,.2.2.3.3.1,0,.2.2.3.3,0,0,.2.1.3.2,1.8,0,3.4.7,4.6,1.9.1,0,.2.2.3.3.1,0,.2.2.3.3.1,0,.2.2.3.3.1,0,.2.2.3.3.1,0,.2.2.3.3.1,0,.2.2.3.3.1,0,.2.2.3.3.1,0,.2.2.3.3.1,0,.2.2.3.3.1,0,.2.2.3.3.1,0,.2.2.3.3.1,0,.2.2.3.3.1,0,.2.2.3.3.1,0,.2.2.3.3.1,0,.2.2.3.3.1,0,.2.2.3.3.1,0,.2.2.3.3.1,0,.2.2.3.3.1,0,.2.2.3.3.1,0,.2.2.3.3.1,0,.2.2.3.3.1,0,.2.2.3.3.1,0,.2.2.3.3.1,0,.2.2.3.3.1,0,.2.2.3.3.1,0,.2.2.3.3.3.3.6.6.9.9,2,2.6,2.5,7,1.1,11-.3.9-.7,1.8-1.4,2.8,0,0-.1.2-.2.3.2,1,.4,3.4-.7,6.7-1.3,4.2-4,7.5-5.5,9.1-.4.5-.8.8-1,1l-.9,6.3v107.6c0,6.3-2.5,9.2-9.6,9.2s-6-.7-7.5-2.3c-.1,0-.2-.2-.3-.3-.1,0-.2-.2-.3-.3-.1,0-.2-.2-.3-.3-.1,0-.2-.2-.3-.3-.1,0-.2-.2-.3-.3-.1,0-.2-.2-.3-.3-.1,0-.2-.2-.3-.3-.1,0-.2-.2-.3-.3-.1,0-.2-.2-.3-.3-.1,0-.2-.2-.3-.3-.1,0-.2-.2-.3-.3-.1,0-.2-.2-.3-.3-.1,0-.2-.2-.3-.3-.1,0-.2-.2-.3-.3-.1,0-.2-.2-.3-.3-.1,0-.2-.2-.3-.3-.1,0-.2-.2-.3-.3-.1,0-.2-.2-.3-.3-.1,0-.2-.2-.3-.3-.1,0-.2-.2-.3-.3-.1,0-.2-.2-.3-.3-.1,0-.2-.2-.3-.3-.1,0-.2-.2-.3-.3-.1,0-.2-.2-.3-.3-.1,0-.2-.2-.3-.3-.1,0-.2-.2-.3-.3-1.7-1.5-2.4-3.9-2.4-7.2v-108.1l-.6-6.6s0,0,0,0c-.1,0-.2-.2-.3-.3-.1,0-.2-.2-.3-.3-.1,0-.2-.2-.3-.3-.1,0-.2-.2-.3-.3-.1,0-.2-.2-.3-.3-.1,0-.2-.2-.3-.3-.1,0-.2-.2-.3-.3-.1,0-.2-.2-.3-.3-1.6-1.4-3.5-3.3-4.8-5.2.2,1.7.3,3.4.3,5.2v17.4c0,24.7-16.3,39.2-44.4,39.2h-15.7v68.1c0,6.3-2.7,9.2-9.8,9.2s-6.1-.8-7.7-2.3c-.1,0-.2-.2-.3-.3-.1,0-.2-.2-.3-.3-.1,0-.2-.2-.3-.3-.1,0-.2-.2-.3-.3-.1,0-.2-.2-.3-.3-.1,0-.2-.2-.3-.3-.1,0-.2-.2-.3-.3-.1,0-.2-.2-.3-.3-.1,0-.2-.2-.3-.3-.1,0-.2-.2-.3-.3-.1,0-.2-.2-.3-.3-.1,0-.2-.2-.3-.3-.1,0-.2-.2-.3-.3-.1,0-.2-.2-.3-.3-.1,0-.2-.2-.3-.3-.1,0-.2-.2-.3-.3-.1,0-.2-.2-.3-.3-.1,0-.2-.2-.3-.3-.1,0-.2-.2-.3-.3-.1,0-.2-.2-.3-.3-.1,0-.2-.2-.3-.3-.1,0-.2-.2-.3-.3-.1,0-.2-.2-.3-.3-.1,0-.2-.2-.3-.3-.1,0-.2-.2-.3-.3-.1,0-.2-.2-.3-.3-1.7-1.5-2.5-3.9-2.5-7.2v-154.4c0-6.5,2.9-9.4,9.4-9.4h26c14.2,0,25.3,3.7,32.9,10.5.1,0,.2.2.3.3.1,0,.2.2.3.3.1,0,.2.2.3.3.1,0,.2.2.3.3.1,0,.2.2.3.3.1,0,.2.2.3.3.1,0,.2.2.3.3.1,0,.2.2.3.3.1,0,.2.2.3.3.1,0,.2.2.3.3.1,0,.2.2.3.3.1,0,.2.2.3.3.1,0,.2.2.3.3.1,0,.2.2.3.3.1,0,.2.2.3.3.1,0,.2.2.3.3.1,0,.2.2.3.3.1,0,.2.2.3.3.1,0,.2.2.3.3.1,0,.2.2.3.3.1,0,.2.2.3.3.1,0,.2.2.3.3.1,0,.2.2.3.3.1,0,.2.2.3.3.1,0,.2.2.3.3.1,0,.2.2.3.3,4.4,3.9,7.7,8.8,9.6,14.7.5-1.8,1.5-3.7,3.1-6,0,0,0,0,0,0l.7-.9v-.2c-.3-2.3-1.1-9.4-3-17.4h0c-.8-3.2-1.7-7.1-.2-10.3.3-.7.7-1.3,1.2-1.8.7-.8,1.6-1.4,2.6-1.7.8-.3,1.6-.4,2.4-.4"/>
      <path class="cls-15" d="M125.8,587c3.1,1.4,6.7,2.1,10.7,2.1,14.1,0,22.2-8.2,22.2-22.6v-90.9c0-5.1-1-9.5-3-13-3.1-1.4-6.7-2.1-10.8-2.1-14.1,0-22.2,8.2-22.2,22.6v90.9c0,5.1,1,9.4,3,12.9M145,617.4c-13.3,0-24.5-3.8-32.4-11.1l-8.1-7.3c-8.1-7.3-12.4-17.7-12.4-30.3v-95.5c0-25.3,17-41.1,44.4-41.1s24.8,3.8,32.6,11l8.1,7.3c7.9,7.2,12.1,17.7,12.1,30.3v95.5c0,12.4-4.2,22.8-12.2,30.1-7.9,7.2-19,11-32.2,11"/>
      <path class="cls-8" d="M126.7,586c-1.8-3.3-2.7-7.3-2.7-12v-90.9c0-13.8,7.4-21.4,20.9-21.4s7,.6,9.9,1.8c1.7,3.2,2.6,7.3,2.6,12v90.9c0,13.8-7.4,21.4-20.9,21.4s-7-.6-9.9-1.8M136.6,430.9c-28.2,0-45.7,16.2-45.7,42.3v95.5c0,12.9,4.4,23.7,12.8,31.2,0,0,.1.1.2.2h0c0,.1.1.2.2.3h0c0,.1.1.2.2.3h0c0,.1.1.2.2.3h0c0,.1.1.2.2.3h0c0,.1.1.2.2.3h0c0,.1.1.2.2.3h0c0,.1.1.2.2.3h0c0,.1.1.2.2.3h0c0,.1.1.2.2.3h0c0,.1.1.2.2.3h0c0,.1.1.2.2.3h0c0,.1.1.2.2.3h0c0,.1.1.2.2.3h0c0,.1.1.2.2.3h0c0,.1.1.2.2.3h0c0,.1.1.2.2.3h0c0,.1.2.2.2.3h0c0,.1.1.2.2.3h0c0,.1.1.2.2.3h0c0,.1.1.2.2.3h0c0,.1.1.2.2.3h0c0,.1.1.2.2.3h0c0,.1.1.2.2.3h0c0,.1.1.2.2.3h0c0,.1.1.2.2.3h0c8.1,7.5,19.6,11.5,33.2,11.5s25-3.9,33.1-11.3c8.2-7.5,12.6-18.2,12.6-31v-95.5c0-13-4.3-23.8-12.6-31.2,0,0-.1-.1-.2-.2h-.1c0-.1-.1-.2-.2-.3h-.1c0-.1-.1-.2-.2-.3h-.1c0-.1-.1-.2-.2-.3h-.1c0-.1-.1-.2-.2-.3h-.1c0-.1-.1-.2-.2-.3h-.1c0-.1-.1-.2-.2-.3h-.1c0-.1-.1-.2-.2-.3h-.1c0-.1-.1-.2-.2-.3h-.1c0-.2-.1-.2-.2-.3h-.1c0-.1-.1-.2-.2-.3h-.1c0-.1-.1-.2-.2-.3h-.1c0-.1-.1-.2-.2-.3h-.1c0-.1-.1-.2-.2-.3h-.1c0-.1-.1-.2-.2-.3h-.1c0-.1-.1-.2-.2-.3h-.1c0-.1-.1-.2-.2-.3h-.1c0-.1-.1-.2-.2-.3h-.1c0-.1-.1-.2-.2-.3h-.1c0-.1-.1-.2-.2-.3h-.1c0-.1-.1-.2-.2-.3h-.1c0-.1-.1-.2-.2-.3h-.1c0-.1-.1-.2-.2-.3h-.1c0-.1-.1-.2-.2-.3h-.1c0-.1-.1-.2-.2-.3h-.1c0-.1-.1-.2-.2-.3h-.1c-8-7.5-19.6-11.5-33.4-11.5M136.6,590.3c14,0,23.5-8,23.5-23.9v-90.9c0-5.7-1.2-10.3-3.4-14-3.3-1.6-7.3-2.3-11.7-2.3-14,0-23.5,8-23.5,23.9v90.9c0,5.6,1.2,10.3,3.4,13.9,3.4,1.6,7.3,2.4,11.6,2.4M136.6,433.5c13.5,0,24.3,3.8,31.7,10.7.1,0,.2.2.3.3.1,0,.2.2.3.3.1,0,.2.2.3.3.1,0,.2.2.3.3.1,0,.2.2.3.3.1,0,.2.2.3.3.1,0,.2.2.3.3.1,0,.2.2.3.3.1,0,.2.2.3.3.1,0,.2.2.3.3.1,0,.2.2.3.3.1,0,.2.2.3.3.1,0,.2.2.3.3.1,0,.2.2.3.3.1,0,.2.2.3.3.1,0,.2.2.3.3.1,0,.2.2.3.3.1,0,.2.2.3.3.1,0,.2.2.3.3.1,0,.2.2.3.3.1,0,.2.2.3.3.1,0,.2.2.3.3.1,0,.2.2.3.3.1,0,.2.2.3.3.1,0,.2.2.3.3.1,0,.2.2.3.3,7.6,6.9,11.7,16.9,11.7,29.4v95.5c0,24.7-17,39.8-43.1,39.8s-24-3.8-31.5-10.7c-.1,0-.2-.2-.3-.3-.1,0-.2-.2-.3-.3-.1,0-.2-.2-.3-.3-.1,0-.2-.2-.3-.3-.1,0-.2-.2-.3-.3-.1,0-.2-.2-.3-.3-.1,0-.2-.2-.3-.3-.1,0-.2-.2-.3-.3-.1,0-.2-.2-.3-.3-.1,0-.2-.2-.3-.3-.1,0-.2-.2-.3-.3-.1,0-.2-.2-.3-.3-.1,0-.2-.2-.3-.3-.1,0-.2-.2-.3-.3-.1,0-.2-.2-.3-.3-.1,0-.2-.2-.3-.3-.1,0-.2-.2-.3-.3-.1,0-.2-.2-.3-.3-.1,0-.2-.2-.3-.3-.1,0-.2-.2-.3-.3-.1,0-.2-.2-.3-.3-.1,0-.2-.2-.3-.3-.1,0-.2-.2-.3-.3-.1,0-.2-.2-.3-.3-.1,0-.2-.2-.3-.3-.1,0-.2-.2-.3-.3-7.6-6.9-12-16.9-12-29.3v-95.5c0-24.7,16.3-39.8,43.1-39.8"/>
      <path class="cls-15" d="M279.7,616.8c-3.5,0-6.1-.9-8-2.8-.1,0-.2-.2-.3-.3,0,0-.2-.2-.3-.3-.1,0-.2-.2-.3-.3-.1,0-.2-.2-.3-.3,0,0-.2-.2-.3-.3-.1,0-.2-.2-.3-.3-.1,0-.2-.2-.3-.3-.1-.1-.2-.2-.3-.3-.1,0-.2-.2-.3-.3,0,0-.2-.2-.3-.3-.1-.1-.2-.2-.3-.3-.1,0-.2-.2-.3-.3,0,0-.2-.2-.3-.3-.1,0-.2-.2-.3-.3-.1,0-.2-.2-.3-.3-.1,0-.2-.2-.3-.3-.1,0-.2-.2-.3-.3-.1,0-.2-.2-.3-.3-.1,0-.2-.2-.3-.3-.1,0-.2-.2-.3-.3-.1,0-.2-.2-.3-.3,0,0-.2-.2-.3-.3-.1,0-.2-.2-.3-.3-.1,0-.2-.2-.3-.3,0,0-.2-.2-.3-.3-.1,0-.2-.2-.3-.3-2-1.7-3.1-4.3-4.1-6.9l-31.3-80.9c0,1.6,0,3.3,0,4.9v81.7c0,7.2-3.6,10.9-10.7,10.9s-6.4-.9-8.2-2.7h0c-.1,0-.2-.2-.3-.3h0c-.1,0-.2-.2-.3-.3h0c0,0-.2-.2-.3-.3h0c0-.1-.2-.2-.3-.3h0c-.1,0-.2-.2-.3-.3h0c0,0-.2-.2-.3-.2h0c-.1-.1-.2-.2-.3-.3h0c-.1,0-.2-.2-.3-.3h0c0,0-.2-.2-.3-.2h0c-.1-.1-.2-.2-.3-.3h0c-.1,0-.2-.2-.3-.3h0c0,0-.2-.2-.3-.2h0c-.1-.1-.2-.2-.3-.3h0c-.1,0-.2-.2-.3-.3h0c0,0-.2-.2-.3-.2h0c0-.1-.2-.2-.3-.3-.2-.1-.3-.2-.3-.3h0c0,0-.2-.2-.3-.2h0c0-.1-.2-.2-.3-.3-.2-.1-.3-.2-.3-.3h0c0,0-.2-.2-.3-.2-.2-.1-.3-.2-.3-.3h0c-.1,0-.2-.2-.3-.3h0c0,0-.2-.2-.3-.2h0c0-.1-.2-.2-.3-.3h0c-.1-.1-.2-.2-.3-.3-2-1.8-3-4.6-3-8.5v-155c0-6.5,3.6-9.6,10.9-9.6s6.1.9,8,2.8c.1,0,.2.2.3.3.1,0,.2.2.3.3h0c.1.1.2.2.3.3.1,0,.2.2.3.3.1,0,.2.2.3.3h0c0,.1.2.2.3.3.1,0,.2.2.3.3.1,0,.2.2.3.3.1,0,.2.2.3.3.1,0,.2.2.3.3.1,0,.2.2.3.3.1,0,.2.2.3.3h0c.1.1.2.2.3.3h0c0,0,.2.2.3.3.1,0,.2.2.3.3.1,0,.2.2.3.3.1,0,.2.2.3.3.1,0,.2.2.3.3.1,0,.2.2.3.3h0c0,.1.2.2.3.3.1,0,.2.2.3.3h0c.1.1.2.2.3.3.1,0,.2.2.3.3h0c0,.1.2.2.3.3.1,0,.2.2.3.3h0c0,.1.2.2.3.3,2,1.7,3.1,4.4,4.1,6.9l31.3,80.9c0-1.7,0-3.3,0-4.9v-81.7c0-7.2,3.7-10.9,10.9-10.9s6.3.9,8.1,2.7h0c0,0,.2.2.2.2h0c.1.1.2.2.3.3h0c.1,0,.2.2.3.3h0c0,0,.2.2.2.2h0c.1.1.2.2.3.3h0c0,.1.2.2.3.3h0c0,0,.2.2.2.2h0c0,.1.2.2.3.3h0c0,0,.2.2.2.2h0c0,.1.2.2.3.3h0c0,.1.2.2.3.3h0c0,0,.2.2.2.2h0c0,.1.2.2.3.3h0c0,.1.2.2.2.3h0c.1.1.2.2.3.3h0c0,.1.2.2.3.3h0c0,.1.2.2.3.3h0c.1,0,.2.2.3.3h0c0,.1.2.2.3.3h0c0,0,.2.2.2.2h0c.1.1.2.2.3.3h0c0,0,.2.2.2.2h0c0,.1.2.2.3.3h0c.1.1.2.2.3.3h0c0,0,.2.2.2.2h0c0,.1.2.2.3.3,2,1.8,3,4.6,3,8.5v155c0,6.5-3.6,9.6-10.9,9.6"/>
      <path class="cls-8" d="M209,432c-5.5,0-12.2,1.9-12.2,10.9v155c0,4.3,1.1,7.3,3.5,9.4,0,0,.2.2.3.3h0c0,.1.2.2.3.3h0c0,.1.2.2.3.3h0c0,.1.2.2.3.3h0c0,.1.2.2.3.3h0c0,.1.2.2.3.3h0c0,.1.2.2.3.3h0c0,.1.2.2.3.3h0c0,.1.2.2.3.3h0c0,.1.2.2.3.3h0c0,.1.2.2.3.3h0c0,.1.2.2.3.3h0c0,.1.2.2.3.3h0c0,.1.2.2.3.3h0c0,.1.2.2.3.3h0c0,.1.2.2.3.3h0c0,.1.2.2.3.3h0c0,.1.2.2.3.3h0c0,.1.2.2.3.3h0c0,.1.2.2.3.3h0c0,.1.2.2.3.3h0c0,.1.2.2.3.3h0c0,.1.2.2.3.3h0c0,.1.2.2.3.3h0c0,.1.2.2.3.3h0c0,.1.2.2.3.3h0c2.1,2.1,5,3,9,3,7.8,0,12-4.2,12-12.2v-79.7l28.8,74.5c1.1,2.7,2.3,5.5,4.5,7.4.1,0,.2.2.3.3h0c.1.1.2.2.3.3h0c0,0,.2.2.3.3h0c.1.1.2.2.3.3h0c0,0,.2.2.3.3h0c0,0,.2.2.3.3h0c0,0,.2.2.3.3h0c0,.1.2.2.3.3h0c.1.1.2.2.3.3h0c0,0,.2.2.3.3h0c0,.1.2.2.3.3h0c0,.1.2.2.3.3h0c0,0,.2.2.3.3h0c0,.1.2.2.3.3h0c0,.1.2.2.3.3h0c0,0,.2.2.3.3h0c0,.1.2.2.3.3h0c0,.1.2.2.3.3h0c0,0,.2.2.3.3h0c0,.1.2.2.3.3h0c0,.1.2.2.3.3h0c0,0,.2.2.3.3h0c.1.1.2.2.3.3h0c0,0,.2.2.3.3h0c0,0,.2.2.3.3h0c0,.1.2.2.3.3h0c2.2,2.1,5,3.1,8.9,3.1,5.5,0,12.2-1.9,12.2-10.9v-155c0-4.3-1.1-7.4-3.4-9.4,0,0-.2-.2-.3-.3h0c0-.1-.2-.2-.3-.3h0c0-.1-.2-.2-.3-.3h0c0-.1-.2-.2-.3-.3h0c0-.1-.2-.2-.3-.3h0c0-.1-.2-.2-.3-.3h0c0-.1-.2-.2-.3-.3h0c0-.1-.2-.2-.3-.3h0c0-.1-.2-.2-.3-.3h0c0-.1-.2-.2-.3-.3h0c0-.1-.2-.2-.3-.3h0c0-.1-.2-.2-.3-.3h0c0-.1-.2-.2-.3-.3h0c0-.1-.2-.2-.3-.3h0c0-.1-.2-.2-.3-.3h0c0-.1-.2-.2-.3-.3h0c0-.1-.2-.2-.3-.3h0c0-.1-.2-.2-.3-.3h0c0-.1-.2-.2-.3-.3h0c0-.1-.2-.2-.3-.3h0c0-.1-.2-.2-.3-.3h0c0-.1-.2-.2-.3-.3h0c0-.1-.2-.2-.3-.3h0c0-.1-.2-.2-.3-.3h0c0-.1-.2-.2-.3-.3h0c0-.1-.2-.2-.3-.3h0c-2-2-4.9-3-8.9-3-7.8,0-12.2,4.3-12.2,12.2v79.7l-28.8-74.5c-1.1-2.7-2.3-5.5-4.5-7.4-.1,0-.2-.2-.3-.3h0c-.1-.1-.2-.2-.3-.3h0c0,0-.2-.2-.3-.3h0c-.1-.1-.2-.2-.3-.3h0c0,0-.2-.2-.3-.3h0c0-.1-.2-.2-.3-.3h0c0-.1-.2-.2-.3-.3h0c-.1-.1-.2-.2-.3-.3h0c-.1,0-.2-.2-.3-.3h0c0,0-.2-.2-.3-.3h0c-.1-.1-.2-.2-.3-.3h0c0,0-.2-.2-.3-.3h0c0,0-.2-.2-.3-.3h0c0,0-.2-.2-.3-.3h0c0-.1-.2-.2-.3-.3h0c0-.1-.2-.2-.3-.3h0c0-.1-.2-.2-.3-.3h0c0,0-.2-.2-.3-.3h0c0,0-.2-.2-.3-.3h0c0,0-.2-.2-.3-.3h0c0-.1-.2-.2-.3-.3h0c0-.1-.2-.2-.3-.3h0c0-.1-.2-.2-.3-.3h0c0,0-.2-.2-.3-.3h0c0-.1-.2-.2-.3-.3h0c0,0-.2-.2-.3-.3h0c-2.2-2.1-5-3.1-8.9-3.1M209,434.5c3.4,0,5.6.9,7.1,2.4.1,0,.2.2.3.3.1,0,.2.2.3.3.1,0,.2.2.3.3.1,0,.2.2.3.3.1,0,.2.2.3.3.1,0,.2.2.3.3.1,0,.2.2.3.3.1,0,.2.2.3.3.1,0,.2.2.3.3.1,0,.2.2.3.3.1,0,.2.2.3.3.1,0,.2.2.3.3.1,0,.2.2.3.3.1,0,.2.2.3.3.1,0,.2.2.3.3.1,0,.2.2.3.3.1,0,.2.2.3.3.1,0,.2.2.3.3.1,0,.2.2.3.3.1,0,.2.2.3.3.1,0,.2.2.3.3.1,0,.2.2.3.3.1,0,.2.2.3.3.1,0,.2.2.3.3.1,0,.2.2.3.3.1,0,.2.2.3.3,1.7,1.5,2.8,3.7,3.9,6.5l33.9,87.8c-.2-3.8-.3-7.9-.3-12.2v-81.7c0-6.7,3.4-9.6,9.6-9.6s5.6.7,7.2,2.3c.1,0,.2.2.3.3.1,0,.2.2.3.3.1,0,.2.2.3.3.1,0,.2.2.3.3.1,0,.2.2.3.3.1,0,.2.2.3.3.1,0,.2.2.3.3.1,0,.2.2.3.3.1,0,.2.2.3.3.1,0,.2.2.3.3.1,0,.2.2.3.3.1,0,.2.2.3.3.1,0,.2.2.3.3.1,0,.2.2.3.3.1,0,.2.2.3.3.1,0,.2.2.3.3.1,0,.2.2.3.3.1,0,.2.2.3.3.1,0,.2.2.3.3.1,0,.2.2.3.3.1,0,.2.2.3.3.1,0,.2.2.3.3.1,0,.2.2.3.3.1,0,.2.2.3.3.1,0,.2.2.3.3.1,0,.2.2.3.3,1.7,1.6,2.6,4,2.6,7.6v155c0,5.7-2.9,8.4-9.6,8.4s-5.6-.9-7.1-2.4c-.1,0-.2-.2-.3-.3-.1,0-.2-.2-.3-.3-.1,0-.2-.2-.3-.3-.1,0-.2-.2-.3-.3-.1,0-.2-.2-.3-.3-.1,0-.2-.2-.3-.3-.1,0-.2-.2-.3-.3-.1,0-.2-.2-.3-.3-.1,0-.2-.2-.3-.3-.1,0-.2-.2-.3-.3-.1,0-.2-.2-.3-.3-.1,0-.2-.2-.3-.3-.1,0-.2-.2-.3-.3-.1,0-.2-.2-.3-.3-.1,0-.2-.2-.3-.3-.1,0-.2-.2-.3-.3-.1,0-.2-.2-.3-.3-.1,0-.2-.2-.3-.3-.1,0-.2-.2-.3-.3-.1,0-.2-.2-.3-.3-.1,0-.2-.2-.3-.3-.1,0-.2-.2-.3-.3-.1,0-.2-.2-.3-.3-.1,0-.2-.2-.3-.3-.1,0-.2-.2-.3-.3-.1,0-.2-.2-.3-.3-1.7-1.5-2.8-3.7-3.9-6.5l-33.9-87.8c.2,3.8.3,7.9.3,12.2v81.7c0,6.7-3.1,9.6-9.4,9.6s-5.7-.8-7.3-2.4c-.1,0-.2-.2-.3-.3-.1,0-.2-.2-.3-.3-.1,0-.2-.2-.3-.3-.1,0-.2-.2-.3-.3-.1,0-.2-.2-.3-.3-.1,0-.2-.2-.3-.3-.1,0-.2-.2-.3-.3-.1,0-.2-.2-.3-.3-.1,0-.2-.2-.3-.3-.1,0-.2-.2-.3-.3-.1,0-.2-.2-.3-.3-.1,0-.2-.2-.3-.3-.1,0-.2-.2-.3-.3-.1,0-.2-.2-.3-.3-.1,0-.2-.2-.3-.3-.1,0-.2-.2-.3-.3-.1,0-.2-.2-.3-.3-.1,0-.2-.2-.3-.3-.1,0-.2-.2-.3-.3-.1,0-.2-.2-.3-.3-.1,0-.2-.2-.3-.3-.1,0-.2-.2-.3-.3-.1,0-.2-.2-.3-.3-.1,0-.2-.2-.3-.3-.1,0-.2-.2-.3-.3-.1,0-.2-.2-.3-.3-1.8-1.6-2.7-4-2.7-7.6v-155c0-5.7,2.9-8.4,9.6-8.4"/>
      <path class="cls-15" d="M319.7,616.4c-3.7,0-6.3-.9-8.1-2.7h0c0,0-.2-.2-.2-.2h0c0-.1-.2-.2-.3-.3h0c0-.1-.2-.2-.2-.3h0c-.1-.1-.2-.2-.3-.3h0c0,0-.2-.2-.2-.2h0c0-.1-.2-.2-.2-.3h0c-.1-.1-.2-.2-.3-.3h0c0-.1-.2-.2-.3-.3h0c0,0-.2-.2-.2-.2h0c-.1-.1-.2-.2-.3-.3h0c0,0-.2-.2-.2-.2h0c0-.1-.2-.2-.3-.3h0c0-.1-.2-.2-.3-.3h0c0,0-.2-.2-.2-.2h0c0-.1-.2-.2-.3-.3h0c0-.1-.2-.2-.3-.3h0c0,0-.2-.2-.2-.2h0c0-.1-.2-.2-.3-.3h0c0-.1-.2-.2-.3-.3h0c0,0-.2-.2-.2-.2h0c0-.1-.2-.2-.3-.3h0c0-.1-.2-.2-.3-.3h0c0,0-.2-.2-.2-.2h0c-.1-.1-.2-.2-.3-.3h0c0-.1-.2-.2-.3-.3h0c0,0-.2-.2-.3-.2-2-1.8-3-4.6-3-8.5v-153.7c0-7.3,3.5-10.9,10.7-10.9h52.8c3,0,5.2.7,6.7,2.1.1,0,.2.2.3.3,0,0,.2.2.3.3,0,0,.2.2.3.3,0,0,.2.2.3.3,0,0,.2.2.3.3,0,0,.2.2.3.3,0,0,.2.2.3.3.1,0,.2.2.3.3,0,0,.2.2.3.3,0,0,.2.2.3.3,0,0,.2.2.3.3,0,0,.2.2.3.3,0,0,.2.2.3.3,0,0,.2.2.3.3,0,0,.2.2.3.3.1,0,.2.2.3.3,0,0,.2.2.3.3,0,0,.2.2.3.3,0,0,.2.2.3.3,0,0,.2.2.3.3,0,0,.2.2.3.3,0,0,.2.2.3.3,0,0,.2.2.3.3,0,0,.2.2.3.3.1,0,.2.2.3.3,0,0,.2.2.3.3,2,1.6,3,4.4,3,8.6,0,7.2-2.9,10.5-9.4,10.5h-41.3v44.1h28.2c3,0,5.2.7,6.7,2.1.1,0,.2.2.3.3,0,0,.2.2.3.3,0,0,.2.2.3.3.1,0,.2.2.3.3,0,0,.2.2.3.3,0,0,.2.2.3.3,0,0,.2.2.3.3,0,0,.2.2.3.3,0,0,.2.2.3.3,0,0,.2.2.3.3,0,0,.2.2.3.3,0,0,.2.2.3.3,0,0,.2.2.3.3,0,0,.2.2.3.3,0,0,.2.2.3.3,0,0,.2.2.3.3.1,0,.2.2.3.3,0,0,.2.2.3.3,0,0,.2.2.3.3,0,0,.2.2.3.3,0,0,.2.2.3.3,0,0,.2.2.3.3,0,0,.2.2.3.3,0,0,.2.2.3.3,0,0,.2.2.3.3,0,0,.2.2.3.3,2,1.6,3,4.4,3,8.6,0,7.2-2.9,10.5-9.4,10.5h-36.6v53.4h35.1c3,0,5.2.7,6.7,2.1.1,0,.2.2.3.3,0,0,.2.2.3.3,0,0,.2.2.3.3,0,0,.2.2.3.3,0,0,.2.2.3.3,0,0,.2.2.3.3,0,0,.2.2.3.3,0,0,.2.2.3.3,0,0,.2.2.3.3,0,0,.2.2.3.3,0,0,.2.2.3.3,0,0,.2.2.3.3,0,0,.2.2.3.3,0,0,.2.2.3.3,0,0,.2.2.3.3.1,0,.2.2.3.3,0,0,.2.2.3.3,0,0,.2.2.3.3,0,0,.2.2.3.3.1,0,.2.2.3.3,0,0,.2.2.3.3.1,0,.2.2.3.3.1,0,.2.2.3.3,0,0,.2.2.3.3,0,0,.2.2.3.3,0,0,.2.2.3.3,2,1.6,3,4.4,3,8.6,0,7.2-2.9,10.5-9.4,10.5h-55.1Z"/>
      <path class="cls-8" d="M364,432h-52.8c-7.9,0-12,4.1-12,12.2v153.7c0,4.3,1.1,7.4,3.4,9.4,0,0,.2.2.3.3h0c0,.1.2.2.3.3h0c0,.1.2.2.3.3h0c0,.1.2.2.3.3h0c0,.1.2.2.3.3h0c0,.1.2.2.3.3h0c0,.1.2.2.3.3h0c0,.1.2.2.3.3h0c0,.1.2.2.3.3h0c0,.1.2.2.3.3h0c0,.1.2.2.3.3h0c0,.1.2.2.3.3h0c0,.1.2.2.3.3h0c0,.1.2.2.3.3h0c0,.1.2.2.3.3h0c0,.1.2.2.3.3h0c0,.1.2.2.3.3h0c0,.1.2.2.3.3h0c0,.1.2.2.3.3h0c0,.1.2.2.3.3h0c0,.1.2.2.3.3h0c0,.1.2.2.3.3h0c0,.1.2.2.3.3h0c0,.1.2.2.3.3h0c0,.1.2.2.3.3h0c0,.1.2.2.3.3h0c2,2,4.9,3,8.9,3h55.1c7.2,0,10.7-3.8,10.7-11.7s-1.1-7.7-3.4-9.6c-.1,0-.2-.2-.3-.3-.1,0-.2-.2-.3-.3-.1,0-.2-.2-.3-.3-.1-.1-.2-.2-.3-.3-.1,0-.2-.2-.3-.3-.1-.1-.2-.2-.3-.3-.1-.1-.2-.2-.3-.3-.1-.1-.2-.2-.3-.3-.1,0-.2-.2-.3-.3-.1-.1-.2-.2-.3-.3-.1-.1-.2-.2-.3-.3-.1-.1-.2-.2-.3-.3-.1,0-.2-.2-.3-.3-.1-.1-.2-.2-.3-.3-.1,0-.2-.2-.3-.3-.1-.1-.2-.2-.3-.3-.1-.1-.2-.2-.3-.3-.1-.1-.2-.2-.3-.3-.1,0-.2-.2-.3-.3-.1,0-.2-.2-.3-.3-.1,0-.2-.2-.3-.3-.1-.1-.2-.2-.3-.3-.1-.1-.2-.2-.3-.3-.1,0-.2-.2-.3-.3-.1-.1-.2-.2-.3-.3-.1,0-.2-.2-.3-.3-1.8-1.6-4.3-2.4-7.6-2.4h-33.9v-50.8h35.4c7.2,0,10.7-3.8,10.7-11.7s-1.1-7.7-3.4-9.6c-.1,0-.2-.2-.3-.3-.1,0-.2-.2-.3-.3-.1-.1-.2-.2-.3-.3-.1,0-.2-.2-.3-.3-.1-.1-.2-.2-.3-.3-.1,0-.2-.2-.3-.3-.1-.1-.2-.2-.3-.3-.1,0-.2-.2-.3-.3-.1-.1-.2-.2-.3-.3-.1,0-.2-.2-.3-.3-.1-.1-.2-.2-.3-.3-.1,0-.2-.2-.3-.3-.1-.1-.2-.2-.3-.3-.1,0-.2-.2-.3-.3-.1-.1-.2-.2-.3-.3-.1,0-.2-.2-.3-.3-.1,0-.2-.2-.3-.3-.1,0-.2-.2-.3-.3-.1-.1-.2-.2-.3-.3-.1,0-.2-.2-.3-.3-.1-.1-.2-.2-.3-.3-.1,0-.2-.2-.3-.3-.1,0-.2-.2-.3-.3-.1-.1-.2-.2-.3-.3-.1-.1-.2-.2-.3-.3-.1-.1-.2-.2-.3-.3-1.8-1.6-4.3-2.4-7.6-2.4h-27v-41.6h40c7.2,0,10.7-3.8,10.7-11.7s-1.1-7.7-3.4-9.6c0,0-.2-.2-.3-.3-.1,0-.2-.2-.3-.3-.1-.1-.2-.2-.3-.3-.1,0-.2-.2-.3-.3-.1,0-.2-.2-.3-.3-.1,0-.2-.2-.3-.3-.1,0-.2-.2-.3-.3-.1,0-.2-.2-.3-.3-.1,0-.2-.2-.3-.3-.1,0-.2-.2-.3-.3-.1,0-.2-.2-.3-.3-.1-.1-.2-.2-.3-.3-.1,0-.2-.2-.3-.3-.1,0-.2-.2-.3-.3-.1,0-.2-.2-.3-.3-.1,0-.2-.2-.3-.3-.1-.1-.2-.2-.3-.3-.1-.1-.2-.2-.3-.3-.1,0-.2-.2-.3-.3-.1-.1-.2-.2-.3-.3-.1,0-.2-.2-.3-.3-.1,0-.2-.2-.3-.3-.1,0-.2-.2-.3-.3-.1,0-.2-.2-.3-.3-.1,0-.2-.2-.3-.3-.1-.1-.2-.2-.3-.3-1.8-1.6-4.3-2.4-7.6-2.4M364,434.5c2.6,0,4.6.6,5.9,1.8.1,0,.2.2.3.3.1,0,.2.2.3.3.1,0,.2.2.3.3.1,0,.2.2.3.3.1,0,.2.2.3.3.1,0,.2.2.3.3.1,0,.2.2.3.3.1,0,.2.2.3.3.1,0,.2.2.3.3.1,0,.2.2.3.3.1,0,.2.2.3.3.1,0,.2.2.3.3.1,0,.2.2.3.3.1,0,.2.2.3.3.1,0,.2.2.3.3.1,0,.2.2.3.3.1,0,.2.2.3.3.1,0,.2.2.3.3.1,0,.2.2.3.3.1,0,.2.2.3.3.1,0,.2.2.3.3.1,0,.2.2.3.3.1,0,.2.2.3.3.1,0,.2.2.3.3.1,0,.2.2.3.3.1,0,.2.2.3.3,1.8,1.4,2.6,3.9,2.6,7.7,0,6.7-2.5,9.2-8.2,9.2h-42.5v46.7h29.5c2.6,0,4.6.6,5.9,1.8.1,0,.2.2.3.3.1,0,.2.2.3.3.1,0,.2.2.3.3.1,0,.2.2.3.3.1,0,.2.2.3.3.1,0,.2.2.3.3.1,0,.2.2.3.3.1,0,.2.2.3.3.1,0,.2.2.3.3.1,0,.2.2.3.3.1,0,.2.2.3.3.1,0,.2.2.3.3.1,0,.2.2.3.3.1,0,.2.2.3.3.1,0,.2.2.3.3.1,0,.2.2.3.3.1,0,.2.2.3.3.1,0,.2.2.3.3.1,0,.2.2.3.3.1,0,.2.2.3.3.1,0,.2.2.3.3.1,0,.2.2.3.3.1,0,.2.2.3.3.1,0,.2.2.3.3.1,0,.2.2.3.3.1,0,.2.2.3.3,1.8,1.4,2.6,3.9,2.6,7.7,0,6.7-2.5,9.2-8.2,9.2h-37.9v55.9h36.4c2.6,0,4.6.6,5.9,1.8.1,0,.2.2.3.3.1,0,.2.2.3.3.1,0,.2.2.3.3.1,0,.2.2.3.3.1,0,.2.2.3.3.1,0,.2.2.3.3.1,0,.2.2.3.3.1,0,.2.2.3.3.1,0,.2.2.3.3.1,0,.2.2.3.3.1,0,.2.2.3.3.1,0,.2.2.3.3.1,0,.2.2.3.3.1,0,.2.2.3.3.1,0,.2.2.3.3.1,0,.2.2.3.3.1,0,.2.2.3.3.1,0,.2.2.3.3.1,0,.2.2.3.3.1,0,.2.2.3.3.1,0,.2.2.3.3.1,0,.2.2.3.3.1,0,.2.2.3.3.1,0,.2.2.3.3.1,0,.2.2.3.3.1,0,.2.2.3.3,1.8,1.4,2.6,3.9,2.6,7.7,0,6.7-2.5,9.2-8.2,9.2h-55.1c-3.3,0-5.6-.7-7.2-2.3-.1,0-.2-.2-.3-.3-.1,0-.2-.2-.3-.3-.1,0-.2-.2-.3-.3-.1,0-.2-.2-.3-.3-.1,0-.2-.2-.3-.3-.1,0-.2-.2-.3-.3-.1,0-.2-.2-.3-.3-.1,0-.2-.2-.3-.3-.1,0-.2-.2-.3-.3-.1,0-.2-.2-.3-.3-.1,0-.2-.2-.3-.3-.1,0-.2-.2-.3-.3-.1,0-.2-.2-.3-.3-.1,0-.2-.2-.3-.3-.1,0-.2-.2-.3-.3-.1,0-.2-.2-.3-.3-.1,0-.2-.2-.3-.3-.1,0-.2-.2-.3-.3-.1,0-.2-.2-.3-.3-.1,0-.2-.2-.3-.3-.1,0-.2-.2-.3-.3-.1,0-.2-.2-.3-.3-.1,0-.2-.2-.3-.3-.1,0-.2-.2-.3-.3-.1,0-.2-.2-.3-.3-.1,0-.2-.2-.3-.3-1.7-1.6-2.6-4-2.6-7.6v-153.7c0-6.7,2.9-9.6,9.4-9.6h52.8Z"/>
      <path class="cls-15" d="M611.7,617.4c-12.9,0-23.7-3.8-31.3-11h0c0-.1-.2-.2-.2-.3,0,0-1.5-1.3-1.6-1.4,0,0-.2-.2-.3-.3,0,0-.6-.5-.6-.6l-5.3-4.8c-7.9-7.3-12.1-17.8-12.1-30.3v-95.5c0-25.3,16.5-41.1,43.2-41.1s24,3.8,31.6,11c0,0,3.1,2.7,3.1,2.8,0,0,.9.8.9.8l4,3.6c7.8,7.2,11.9,17.7,11.9,30.4v6.7c0,7.2-3.5,10.5-11.1,10.5s-6.7-.9-8.6-2.7c0,0-.2-.2-.3-.2-.1-.1-.2-.2-.3-.3-.1-.1-.2-.2-.3-.3-.1-.1-.2-.2-.3-.3-.1-.1-.2-.2-.3-.3-.1-.1-.2-.2-.3-.3-.1-.1-.2-.2-.3-.3-.1-.1-.2-.2-.3-.3-.1-.1-.2-.2-.3-.3,0,0-.2-.2-.3-.3,0,0-.2-.2-.3-.2-.1-.1-.2-.2-.3-.3-.1,0-.2-.2-.3-.3,0,0-.2-.2-.3-.2-.1-.1-.2-.2-.3-.3-.1,0-.2-.2-.3-.3,0,0-.2-.2-.3-.2-.1-.1-.2-.2-.3-.3-.1,0-.2-.2-.3-.3,0,0-.2-.2-.3-.2-.1-.1-.2-.2-.3-.3h0c0,0-.2-.2-.3-.2-.1-.1-.2-.2-.3-.3,0,0-.2-.2-.3-.3,0,0-.2-.2-.3-.2-.1-.1-.2-.2-.3-.3-2-1.7-2.9-4.4-2.9-8.1v-4.4c0-5.2-1-9.7-3-13.2-2.8-1.2-6-1.8-9.5-1.8-13.3,0-20.9,8.2-20.9,22.6v90.9c0,5.2,1,9.7,3,13.2,2.8,1.2,6,1.8,9.5,1.8,13.3,0,20.9-8.2,20.9-22.6v-4.4c0-7.1,3.5-10.5,11.1-10.5s6.7.9,8.5,2.7c.1.1.2.2.3.3.1.1.2.2.3.3.1.1.2.2.3.3.1.1.2.2.3.3.1.1.2.2.3.3.1.1.2.2.3.3.1.1.2.2.3.3.1.1.2.2.3.3.1.1.2.2.3.3.1.1.2.2.3.3,0,0,.2.2.3.2.1.1.2.2.3.3.1.1.2.2.3.3,0,0,.2.2.3.2.1.1.2.2.3.3.1.1.2.2.3.3,0,0,.2.2.3.2.1.1.2.2.3.3.1.1.3.2.3.3,0,0,.2.2.3.2.1.1.2.2.3.3.1.1.2.2.3.3.1.1.2.2.3.3.1.1.2.2.3.3.1.1.2.2.3.3.1.1.2.2.3.3,2,1.7,2.9,4.4,2.9,8.1v6.7c0,12.4-4.1,22.8-11.8,30.1-7.6,7.2-18.5,11-31.3,11"/>
      <path class="cls-8" d="M603.2,430.9c-27.4,0-44.4,16.2-44.4,42.3v95.5c0,12.9,4.3,23.7,12.5,31.3,0,0,.1.1.2.2h.1c0,.1.1.2.2.3h.1c0,.1.1.2.2.3h.1c0,.1.1.2.2.3h0c0,.1.1.2.2.3h.1c0,.1.1.2.2.3h.1c0,.1.1.2.2.3h.1c0,.1.1.2.2.3h.1c0,.1.1.2.2.3h.1c0,.1.1.2.2.3h.1c0,.1.1.2.2.3h.1c0,.1.1.2.2.3h.1c0,.1.1.2.2.3h.1c0,.1.1.2.2.3h.1c0,.1.1.2.2.3h.1c0,.1.1.2.2.3h.1c0,.1.1.2.2.3h0c0,.1.1.2.2.3h.1c0,.1.1.2.2.3h.1c0,.1.1.2.2.3h.1c0,.1.1.2.2.3h0c0,.1.1.2.2.3h.1c0,.1.1.2.2.3h0c0,.1.1.2.2.3h.1c0,.1.1.2.2.3h.1c0,.1.1.2.2.3h0c7.9,7.5,19,11.4,32.2,11.4s24.3-3.9,32.2-11.3c8-7.5,12.2-18.2,12.2-31v-6.7c0-4.1-1.1-7.1-3.3-9-.1,0-.2-.2-.3-.3h0c-.1,0-.2-.2-.3-.3-.1,0-.2-.2-.3-.3-.1,0-.2-.2-.3-.3-.1,0-.2-.2-.3-.3-.1,0-.2-.2-.3-.3,0,0-.2-.2-.3-.3h0c-.1,0-.2-.2-.3-.3-.1,0-.2-.2-.3-.3-.1,0-.2-.2-.3-.3h0c-.1,0-.2-.2-.3-.3-.1,0-.2-.2-.3-.3,0,0-.2-.2-.3-.3h0c0,0-.2-.2-.3-.3-.1,0-.2-.2-.3-.3,0,0-.2-.2-.3-.3h0c0,0-.2-.2-.3-.3h0c0-.1-.2-.2-.3-.3h0c-.1,0-.2-.2-.3-.3-.1,0-.2-.2-.3-.3-.1,0-.2-.2-.3-.3-.1,0-.2-.2-.3-.3-.1,0-.2-.2-.3-.3h0c-.1,0-.2-.2-.3-.3-.1,0-.2-.2-.3-.3,0,0-.2-.2-.3-.3-2.1-2-5.1-3-9.4-3-8.3,0-12.4,3.8-12.4,11.7v4.4c0,7-1.8,12.5-5.4,16.1-3.3,3.4-8.3,5.2-14.2,5.2s-6.1-.5-8.6-1.5c-1.8-3.3-2.7-7.4-2.7-12.2v-90.9c0-7,1.8-12.5,5.4-16.1,3.3-3.4,8.3-5.2,14.2-5.2s6.1.5,8.6,1.5c1.7,3.3,2.6,7.4,2.6,12.2v4.4c0,4.1,1.1,7.1,3.3,9,.1,0,.2.2.3.3h0c0,0,.2.2.3.3h0c.1,0,.2.2.3.3,0,0,.2.2.3.3h0c0,0,.2.2.3.3h0c.1,0,.2.2.3.3.1,0,.2.2.3.3,0,0,.2.2.3.3h0c.1,0,.2.2.3.3.1,0,.2.2.3.3.1,0,.2.2.3.3.1,0,.2.2.3.3,0,0,.2.2.3.3,0,0,.2.2.3.3h0c.1.1.2.2.3.3.1,0,.2.2.3.3.1,0,.2.2.3.3.1,0,.2.2.3.3.1,0,.2.2.3.3,0,0,.2.2.3.3h0c.1,0,.2.2.3.3.1,0,.2.2.3.3.1,0,.2.2.3.3.1,0,.2.2.3.3.1,0,.2.2.3.3,0,0,.2.2.3.3,2.1,2,5.1,3,9.4,3,8.3,0,12.4-3.8,12.4-11.7v-6.7c0-13-4.3-23.8-12.3-31.3,0,0-.1-.1-.2-.2h0c0-.1-.1-.2-.2-.3h0c0-.1-.1-.2-.2-.3h0c0-.1-.1-.2-.2-.3h0c0-.1-.1-.2-.2-.3h0c0-.1-.1-.2-.2-.3h0c0-.1-.1-.2-.2-.3h0c0-.1-.1-.2-.2-.3h0c0-.1-.1-.2-.2-.3h0c0-.1-.1-.2-.2-.3h0c0-.1-.1-.2-.2-.3h0c0-.1-.1-.2-.2-.3h0c0-.1-.1-.2-.2-.3h0c0-.1-.1-.2-.2-.3h0c0-.1-.1-.2-.2-.3h0c0-.1-.1-.2-.2-.3h0c0-.1-.1-.2-.2-.3h0c0-.1-.1-.2-.2-.3h0c0-.1-.1-.2-.2-.3h0c0-.1-.1-.2-.2-.3h0c0-.1-.1-.2-.2-.3h0c0-.1-.1-.2-.2-.3h0c0-.1-.1-.2-.2-.3h0c0-.1-.1-.2-.2-.3h0c0-.1-.1-.2-.2-.3h0c0-.1-.1-.2-.2-.3h0c-7.8-7.5-19-11.4-32.4-11.4M603.2,433.5c13,0,23.5,3.8,30.7,10.6.1,0,.2.2.3.3.1,0,.2.2.3.3.1,0,.2.2.3.3.1,0,.2.2.3.3.1,0,.2.2.3.3.1,0,.2.2.3.3.1,0,.2.2.3.3.1,0,.2.2.3.3.1,0,.2.2.3.3.1,0,.2.2.3.3.1,0,.2.2.3.3.1,0,.2.2.3.3.1,0,.2.2.3.3.1,0,.2.2.3.3.1,0,.2.2.3.3.1,0,.2.2.3.3.1,0,.2.2.3.3.1,0,.2.2.3.3.1,0,.2.2.3.3.1,0,.2.2.3.3.1,0,.2.2.3.3.1,0,.2.2.3.3.1,0,.2.2.3.3.1,0,.2.2.3.3.1,0,.2.2.3.3.1,0,.2.2.3.3,7.4,6.9,11.5,16.9,11.5,29.4v6.7c0,6.3-2.7,9.2-9.8,9.2s-6.1-.8-7.7-2.3c-.1,0-.2-.2-.3-.3-.1,0-.2-.2-.3-.3-.1,0-.2-.2-.3-.3-.1,0-.2-.2-.3-.3-.1,0-.2-.2-.3-.3-.1,0-.2-.2-.3-.3-.1,0-.2-.2-.3-.3-.1,0-.2-.2-.3-.3-.1,0-.2-.2-.3-.3-.1,0-.2-.2-.3-.3-.1,0-.2-.2-.3-.3-.1,0-.2-.2-.3-.3-.1,0-.2-.2-.3-.3-.1,0-.2-.2-.3-.3-.1,0-.2-.2-.3-.3-.1,0-.2-.2-.3-.3-.1,0-.2-.2-.3-.3-.1,0-.2-.2-.3-.3-.1,0-.2-.2-.3-.3-.1,0-.2-.2-.3-.3-.1,0-.2-.2-.3-.3-.1,0-.2-.2-.3-.3-.1,0-.2-.2-.3-.3-.1,0-.2-.2-.3-.3-.1,0-.2-.2-.3-.3-.1,0-.2-.2-.3-.3-1.7-1.5-2.5-3.9-2.5-7.2v-4.4c0-5.8-1.2-10.5-3.4-14.2-3-1.4-6.5-2.1-10.4-2.1-13.2,0-22.2,8-22.2,23.9v90.9c0,5.8,1.2,10.5,3.4,14.2,3,1.4,6.5,2.1,10.4,2.1,13.2,0,22.2-8,22.2-23.9v-4.4c0-6.3,2.7-9.2,9.8-9.2s6.1.8,7.7,2.3c.1,0,.2.2.3.3.1,0,.2.2.3.3.1,0,.2.2.3.3.1,0,.2.2.3.3.1,0,.2.2.3.3.1,0,.2.2.3.3.1,0,.2.2.3.3.1,0,.2.2.3.3.1,0,.2.2.3.3.1,0,.2.2.3.3.1,0,.2.2.3.3.1,0,.2.2.3.3.1,0,.2.2.3.3.1,0,.2.2.3.3.1,0,.2.2.3.3.1,0,.2.2.3.3.1,0,.2.2.3.3.1,0,.2.2.3.3.1,0,.2.2.3.3.1,0,.2.2.3.3.1,0,.2.2.3.3.1,0,.2.2.3.3.1,0,.2.2.3.3.1,0,.2.2.3.3.1,0,.2.2.3.3.1,0,.2.2.3.3,1.7,1.5,2.5,3.9,2.5,7.2v6.7c0,24.7-16.5,39.8-41.9,39.8s-23.2-3.8-30.5-10.7c-.1,0-.2-.2-.3-.3-.1,0-.2-.2-.3-.3-.1,0-.2-.2-.3-.3-.1,0-.2-.2-.3-.3-.1,0-.2-.2-.3-.3-.1,0-.2-.2-.3-.3-.1,0-.2-.2-.3-.3-.1,0-.2-.2-.3-.3-.1,0-.2-.2-.3-.3-.1,0-.2-.2-.3-.3-.1,0-.2-.2-.3-.3-.1,0-.2-.2-.3-.3-.1,0-.2-.2-.3-.3-.1,0-.2-.2-.3-.3-.1,0-.2-.2-.3-.3-.1,0-.2-.2-.3-.3-.1,0-.2-.2-.3-.3-.1,0-.2-.2-.3-.3-.1,0-.2-.2-.3-.3-.1,0-.2-.2-.3-.3-.1,0-.2-.2-.3-.3-.1,0-.2-.2-.3-.3-.1,0-.2-.2-.3-.3-.1,0-.2-.2-.3-.3-.1,0-.2-.2-.3-.3-.1,0-.2-.2-.3-.3-7.5-6.9-11.7-16.9-11.7-29.4v-95.5c0-24.7,15.9-39.8,41.9-39.8"/>
      <path class="cls-15" d="M739.6,616.5c-2.2,0-4-.7-5.5-2-.2-.2-.5-.4-.7-.7h0c0-.1-.2-.2-.3-.3h0c0,0-.2-.2-.2-.2h0c0-.1-.2-.2-.3-.3h0c0-.1-.2-.2-.3-.3h0c0-.1-.2-.2-.3-.3h0c0,0-.2-.2-.3-.3h0c0-.1-.2-.2-.3-.3h0c0-.1-.2-.2-.3-.3h0c0-.1-.2-.2-.3-.3h0c0-.1-.2-.2-.3-.3h0c0-.1-.2-.2-.3-.3h0c0-.1-.2-.2-.3-.3h0c0,0-.2-.2-.3-.3h0c0-.1-.2-.2-.3-.3h0c0-.1-.2-.2-.3-.3h0c0-.1-.2-.2-.3-.3h0c0-.1-.2-.2-.3-.3h0c0-.1-.2-.2-.3-.3h0c0-.1-.2-.2-.3-.3h0c0-.1-.2-.2-.3-.3h0c0-.1-.2-.2-.3-.3h0c0,0-.2-.2-.3-.3h0c0-.1-.2-.2-.3-.3h0c0-.1-.2-.2-.3-.3h0c-.1-.1-.2-.2-.3-.3-1.2-1.1-2.3-2.8-3.1-5l-24.4-67.4h-5.4v71.4c0,7.1-3.5,10.5-11.1,10.5s-6.7-.9-8.5-2.7c-.1-.1-.2-.2-.3-.3-.1-.1-.2-.2-.3-.3-.1-.1-.2-.2-.3-.3-.1-.1-.2-.2-.3-.3-.1-.1-.2-.2-.3-.3-.1-.1-.2-.2-.3-.3-.1-.1-.2-.2-.3-.3-.1-.1-.2-.2-.3-.3-.1-.1-.2-.2-.3-.3-.1-.1-.2-.2-.3-.3-.1-.1-.2-.2-.3-.3-.1-.1-.2-.2-.3-.3,0,0-.2-.2-.3-.2-.1-.1-.2-.2-.3-.3-.1-.1-.2-.2-.4-.3,0,0-.2-.2-.3-.2-.1-.1-.2-.2-.3-.3-.1-.1-.2-.2-.3-.3,0,0-.2-.2-.3-.2-.1-.1-.2-.2-.3-.3-.1-.1-.3-.2-.3-.3,0,0-.2-.2-.3-.2-.1-.1-.2-.2-.3-.3,0,0-.2-.2-.3-.3-.1-.1-.2-.2-.3-.3-.1-.1-.2-.2-.3-.3-2-1.7-2.9-4.4-2.9-8.1v-154.6c0-7.1,3.5-10.5,11.1-10.5s6.7.9,8.5,2.7c.1.1.2.2.3.3.1,0,.2.2.3.3.1,0,.2.2.3.3,0,0,.2.2.3.3.1,0,.2.2.3.3,0,0,.2.2.3.2.1.1.2.2.3.3,0,0,.2.2.3.2.1.1.2.2.3.3.1.1.2.2.3.3.1.1.2.2.3.3.1.1.2.2.3.3.1.1.2.2.3.3.1.1.2.2.3.3.1.1.2.2.3.3.1.1.2.2.3.3.1.1.2.2.3.3.1.1.2.2.3.3.1.1.2.2.3.3.1.1.2.2.3.3h0c0,0,.2.2.3.2.1.1.2.2.3.3.1.1.2.2.3.3.1.1.2.2.3.3.1.1.2.2.3.3.1.1.2.2.3.3,2,1.7,2.9,4.4,2.9,8.1v54.6h2.4l23.6-65.8c1.7-4.8,4.6-7.3,8.8-7.3s3.4.3,5.4,1.1c2.2.8,3.9,1.7,5.1,2.9.1,0,.3.2.4.4,0,0,.2.2.3.3,0,0,.2.2.3.3,0,0,.2.2.3.3,0,0,.2.2.3.3,0,0,.2.2.3.3,0,0,.2.2.3.3,0,0,.2.2.3.3,0,0,.2.2.3.3,0,0,.2.2.3.3,0,0,.2.2.3.3,0,0,.2.2.3.3,0,0,.2.2.3.3,0,0,.2.2.3.3,0,0,.2.2.3.3,0,0,.2.2.3.3,0,0,.2.2.3.3,0,0,.2.2.3.3,0,0,.2.2.3.3,0,0,.2.2.3.3,0,0,.2.2.3.3,0,0,.2.2.3.3,0,0,.2.2.3.3,0,0,.2.2.3.3,0,0,.2.2.3.3.1.1.3.2.4.4,2.9,2.5,3.4,5.9,1.6,10.8l-24.8,68.9,28.5,78.1c1.2,3.3,1.3,6,.3,8.2-1.1,2.2-3.3,3.9-6.9,5.2-2.1.7-3.9,1.1-5.5,1.1h0Z"/>
      <path class="cls-8" d="M727.5,431.6c-4.8,0-8.1,2.7-10,8.1l-23.3,64.9h-.3v-53.4c0-4.1-1.1-7.1-3.3-9-.1,0-.2-.2-.3-.3h0c-.1,0-.2-.2-.3-.3-.1,0-.2-.2-.3-.3,0,0-.2-.2-.3-.3h0c-.1,0-.2-.2-.3-.3,0,0-.2-.2-.3-.3-.1,0-.2-.2-.3-.3-.1,0-.2-.2-.3-.3-.1,0-.2-.2-.3-.3-.1,0-.2-.2-.3-.3-.1,0-.2-.2-.3-.3,0,0-.2-.2-.3-.3-.1,0-.2-.2-.3-.3-.1,0-.2-.2-.3-.3-.1,0-.2-.2-.3-.3-.1,0-.2-.2-.3-.3,0,0-.2-.2-.3-.3-.1,0-.2-.2-.3-.3-.1,0-.2-.2-.3-.3-.1,0-.2-.2-.3-.3-.1,0-.2-.2-.3-.3-.1,0-.2-.2-.3-.3h0c-.1,0-.2-.2-.3-.3h0c-.1,0-.2-.2-.3-.3,0,0-.2-.2-.3-.3h0c0,0-.2-.2-.3-.3-2.1-2-5.1-3-9.4-3-8.3,0-12.4,3.8-12.4,11.7v154.6c0,4.1,1.1,7.1,3.3,9,.1,0,.2.2.3.3.1,0,.2.2.3.3,0,0,.2.2.3.3h0c.1,0,.2.2.3.3.1,0,.2.2.3.3.1,0,.2.2.3.3.1,0,.2.2.3.3.1,0,.2.2.3.3.1,0,.2.2.3.3.1,0,.2.2.3.3,0,0,.2.2.3.3.1,0,.2.2.3.3,0,0,.2.2.3.3.1,0,.2.2.3.3.1,0,.2.2.3.3.1,0,.2.2.3.3,0,0,.2.2.3.3.1,0,.2.2.3.3.1,0,.2.2.3.3,0,0,.2.2.3.3.1,0,.2.2.3.3.1,0,.2.2.3.3,0,0,.2.2.3.3h0c.1,0,.2.2.3.3,0,0,.2.2.3.3,0,0,.2.2.3.3,2.1,2,5.1,3,9.4,3,8.3,0,12.4-3.8,12.4-11.7v-70.2h3.2l24.1,66.6c.8,2.4,2,4.2,3.4,5.5.1.1.2.2.3.3h0c0,.1.2.2.3.3h0c0,.1.2.2.3.3h0c0,.1.2.2.3.3h0c0,.1.2.2.3.3h0c0,.1.2.2.3.3h0c0,.1.2.2.3.3h0c0,.1.2.2.3.3h0c0,.1.2.2.3.3h0c0,.1.2.2.3.3h0c0,.1.2.2.3.3h0c0,.1.2.2.3.3h0c0,.1.2.2.3.3h0c0,.1.2.2.3.3h0c0,.1.2.2.3.3h0c0,.1.2.2.3.3h0c0,.1.2.2.3.3h0c0,.1.2.2.3.3h0c0,.1.2.2.3.3h0c0,.1.2.2.3.3h0c0,.1.2.2.3.3h0c0,.1.2.2.3.3h0c0,.1.2.2.3.3h0c0,.1.2.2.3.3h0c0,.1.2.2.3.3h0c.2.3.5.5.8.7,1.7,1.5,3.8,2.2,6.3,2.2s3.7-.4,5.9-1.1c3.9-1.4,6.4-3.3,7.6-5.9,1.2-2.5,1.1-5.5-.2-9.1l-28.4-77.7,24.6-68.5c1.9-5.3,1.3-9.3-2-12.2-.1-.1-.3-.3-.4-.4-.1,0-.2-.2-.3-.3-.1,0-.2-.2-.3-.3-.1,0-.2-.2-.3-.3-.1,0-.2-.2-.3-.3-.1,0-.2-.2-.3-.3-.1,0-.2-.2-.3-.3-.1,0-.2-.2-.3-.3-.1,0-.2-.2-.3-.3-.1,0-.2-.2-.3-.3-.1,0-.2-.2-.3-.3-.1,0-.2-.2-.3-.3-.1,0-.2-.2-.3-.3-.1,0-.2-.2-.3-.3-.1,0-.2-.2-.3-.3-.1,0-.2-.2-.3-.3-.1,0-.2-.2-.3-.3-.1,0-.2-.2-.3-.3-.1,0-.2-.2-.3-.3-.1,0-.2-.2-.3-.3-.1,0-.2-.2-.3-.3-.1,0-.2-.2-.3-.3-.1,0-.2-.2-.3-.3-.1,0-.2-.2-.3-.3-.1,0-.2-.2-.3-.3-.1-.1-.3-.3-.4-.4-1.3-1.2-3.1-2.2-5.5-3.1-2.2-.8-4.1-1.1-5.8-1.1M727.5,434.1c1.5,0,3.1.3,5,1,2,.7,3.6,1.6,4.7,2.6.1.1.3.2.4.4.1,0,.2.2.3.3.1,0,.2.2.3.3.1,0,.2.2.3.3.1,0,.2.2.3.3.1,0,.2.2.3.3.1,0,.2.2.3.3.1,0,.2.2.3.3.1,0,.2.2.3.3.1,0,.2.2.3.3.1,0,.2.2.3.3.1,0,.2.2.3.3.1,0,.2.2.3.3.1,0,.2.2.3.3.1,0,.2.2.3.3.1,0,.2.2.3.3.1,0,.2.2.3.3.1,0,.2.2.3.3.1,0,.2.2.3.3.1,0,.2.2.3.3.1,0,.2.2.3.3.1,0,.2.2.3.3.1,0,.2.2.3.3.1,0,.2.2.3.3.1,0,.2.2.3.3.1.1.3.2.4.4,2.5,2.2,2.9,5.1,1.3,9.4l-24.9,69.3,28.7,78.5c2.1,5.9.6,9.4-5.9,11.7-1.9.7-3.6,1-5.1,1s-3.4-.5-4.7-1.7c-.2-.2-.4-.4-.7-.6-.1,0-.2-.2-.3-.3-.1,0-.2-.2-.3-.3-.1,0-.2-.2-.3-.3-.1,0-.2-.2-.3-.3-.1,0-.2-.2-.3-.3-.1,0-.2-.2-.3-.3-.1,0-.2-.2-.3-.3-.1,0-.2-.2-.3-.3-.1,0-.2-.2-.3-.3-.1,0-.2-.2-.3-.3-.1,0-.2-.2-.3-.3-.1,0-.2-.2-.3-.3-.1,0-.2-.2-.3-.3-.1,0-.2-.2-.3-.3-.1,0-.2-.2-.3-.3-.1,0-.2-.2-.3-.3-.1,0-.2-.2-.3-.3-.1,0-.2-.2-.3-.3-.1,0-.2-.2-.3-.3-.1,0-.2-.2-.3-.3-.1,0-.2-.2-.3-.3-.1,0-.2-.2-.3-.3-.1,0-.2-.2-.3-.3-.1,0-.2-.2-.3-.3-.1,0-.2-.2-.3-.3-1.1-1-2.1-2.5-2.8-4.5l-24.7-68.2h-7.5v72.7c0,6.3-2.7,9.2-9.8,9.2s-6.1-.8-7.7-2.3c-.1,0-.2-.2-.3-.3-.1,0-.2-.2-.3-.3-.1,0-.2-.2-.3-.3-.1,0-.2-.2-.3-.3-.1,0-.2-.2-.3-.3-.1,0-.2-.2-.3-.3-.1,0-.2-.2-.3-.3-.1,0-.2-.2-.3-.3-.1,0-.2-.2-.3-.3-.1,0-.2-.2-.3-.3-.1,0-.2-.2-.3-.3-.1,0-.2-.2-.3-.3-.1,0-.2-.2-.3-.3-.1,0-.2-.2-.3-.3-.1,0-.2-.2-.3-.3-.1,0-.2-.2-.3-.3-.1,0-.2-.2-.3-.3-.1,0-.2-.2-.3-.3-.1,0-.2-.2-.3-.3-.1,0-.2-.2-.3-.3-.1,0-.2-.2-.3-.3-.1,0-.2-.2-.3-.3-.1,0-.2-.2-.3-.3-.1,0-.2-.2-.3-.3-.1,0-.2-.2-.3-.3-.1,0-.2-.2-.3-.3-1.7-1.5-2.5-3.9-2.5-7.2v-154.6c0-6.3,2.7-9.2,9.8-9.2s6.1.8,7.7,2.3c.1,0,.2.2.3.3.1,0,.2.2.3.3.1,0,.2.2.3.3.1,0,.2.2.3.3.1,0,.2.2.3.3.1,0,.2.2.3.3.1,0,.2.2.3.3.1,0,.2.2.3.3.1,0,.2.2.3.3.1,0,.2.2.3.3.1,0,.2.2.3.3.1,0,.2.2.3.3.1,0,.2.2.3.3.1,0,.2.2.3.3.1,0,.2.2.3.3.1,0,.2.2.3.3.1,0,.2.2.3.3.1,0,.2.2.3.3.1,0,.2.2.3.3.1,0,.2.2.3.3.1,0,.2.2.3.3.1,0,.2.2.3.3.1,0,.2.2.3.3.1,0,.2.2.3.3.1,0,.2.2.3.3.1,0,.2.2.3.3,1.7,1.5,2.5,3.9,2.5,7.2v55.9h4.6l23.9-66.6c1.5-4.3,4-6.4,7.6-6.4"/>
      <path class="cls-15" d="M545.1,450.7s0,0,0-.2c-1-1.6-2.4-2.7-4.1-3.2-1.7-.5-3.3,0-4.3.5h0c-.9-.7-3.2-2.1-5.6-1.2-.5.2-1,.4-1.4.6.1-2.5.3-6.9-.5-10.3-.6-2.7-2.6-6.2-5.7-7.9-1.8-1-3.8-1.1-5.7-.4-1,.4-1.9,1-2.6,1.7-.5.5-.9,1.1-1.2,1.8-1.5,3.3-.5,7.1.2,10.2h0c2,8.1,2.7,15.2,3,17.5v.2s-.7.9-.7.9c0,0,0,0,0,0-4,5.6-4.5,9.5-1.8,14.1,2,3.4,6.5,7.1,8,8.2l-1.4,5.5c0,.3,0,.6.2.9.2.2.5.4.8.4l21,.6c.3,0,.6-.1.8-.3h0c0,0,0-.1.1-.2.1-.2.2-.4.1-.7l-.8-5.2c.2-.2.6-.6,1-1,1.5-1.6,4.2-4.9,5.5-9.1,1.1-3.3.9-5.7.7-6.7,0-.1.2-.2.2-.3.7-1.1,1.1-1.9,1.4-2.8,1.4-3.9,1-8.3-1.1-11-1.4-1.8-3.4-2.7-5.8-2.5,0,0-.1-.2-.2-.3"/>
      <path class="cls-8" d="M543,466.5c-.9,1.2-2,1.9-3.3,2.3-.1,0-.2,0-.3,0h0s0,0,0,0c0,0-.2,0-.3,0-.5,0-.9-.2-1-.5,0-.1,0-.2,0-.3,0,0,0,0,0,0h0c0,0,0,0,0,0,.5-.5,1-1,1.4-1.5.2-.3.5-.7.7-1,.4-.7.8-1.5,1.1-2.4.8-2.4.8-5.2,0-8-.6-2-1.5-3.9-2.8-5.4h0c-.2-.2-.2-.4,0-.5,0,0,.1-.1.3-.2.5-.1,1.1,0,1.6,0,1.3.4,2.3,1.2,3.1,2.4,0,0,0,.2.1.3,0,.1.1.3.2.4,1.6,2.9,2,6.5,1.1,10-.4,1.7-1.1,3.1-1.9,4.2"/>
      <path class="cls-8" d="M548.6,467c-.2.3-.4.5-.6.7h0s0,0,0,0c-.8.8-1.8,1.4-2.8,1.5-.3,0-.7,0-1,0-.3,0-.5-.2-.5-.4,0-.2,0-.4.2-.7,0,0,0,0,0-.1h0c0,0,0,0,0-.1h0c0,0,0,0,0,0,0,0,.1-.2.2-.3.2-.3.4-.6.6-.9.7-1.1,1.2-2.4,1.6-4,.8-3.1.7-6.2-.2-9h0,0c0-.3,0-.5,0-.6,0-.1.3-.2.5-.1,0,0,0,0,.1,0,0,0,0,0,0,0,1,.2,1.8.8,2.5,1.6,1.6,2.1,2,5.8.8,9.1-.2.5-.4,1.1-.7,1.6-.1.2-.5.9-1,1.6"/>
      <path class="cls-8" d="M538,465.4c-1.1,1.4-2.4,2.2-3.2,2.6-1.3.6-2.4.7-2.9.5-.1,0-.2,0-.4-.2,1.5-.9,2.7-1.8,3.5-2.9.2-.2.3-.4.5-.7.2-.3.4-.7.5-1.1.9-2.3.4-5.2-1.2-7.3-1.5-2-3.8-2.9-6.3-2.7-3.2.4-6.9,3.1-9.4,5.3-.7-6-1.7-11.7-3-17h0c-.7-3.1-1.5-6.4-.3-9.1.2-.3.3-.6.6-.9.6-.7,1.3-1.3,2.1-1.6,1.4-.5,2.7-.4,4.1.3,2.5,1.3,4.2,4.4,4.7,6.6,1.1,4.6.3,11.8.3,11.9,0,0,0,0,0,0h0c0,0,0,.4,0,.4,0,1.2-.2,2.6-.2,2.8,0,.1,0,.3.2.3,0,0,.3,0,.6-.3,0,0,0,0,0-.1.1-.2.3-.6.5-.9,0-.1.1-.2.2-.3,0-.1.1-.3.2-.4.2-.3.4-.8.6-1.1,0,0,.1-.2.2-.2.5-.3,1.1-.6,1.8-.9,1.5-.5,3.3.6,3.8,1h0c0,.1.2.2.4.3,0,0,0,0,0,0,3.5,3.1,5,8.5,3.6,12.8-.4,1.1-.9,2-1.5,2.9"/>
      <path class="cls-8" d="M523.4,488.2l1.3-5c0-.4,0-.8-.3-1,0,0-5.8-4.4-8-8.1-1.8-3.1-2.3-5.9,1-10.9,0,0,.2-.1.3-.2,0,0,6.5-6.9,11.2-7.5,2.5-.3,3.9,1.1,4.6,2,1.2,1.6,1.6,3.8.9,5.5-.2.5-.4.9-.8,1.3-1.4,1.9-3.9,2.9-5.9,3.8-.6.2-1.1.5-1.5.7-.7.3-1.6.8-2.3,1.7,0,0,0,0,0,0-.2.3-.5.8-.5,1.1,0,.1.1.2.2.2.3.1.6,0,.8-.2.1,0,.2-.1.4-.2,0,0,.1,0,.2,0,0,0,.5-.3.7-.3.1,0,.3-.1.4-.2,0,0,0,0,.1,0,0,0,.2-.1.3-.1h0c.1,0,.3-.2.5-.2.4-.2.9-.4,1.4-.6.2,0,.3-.1.5-.2.6,0,1.2.2,1.7.6h0c.6.4,1,1,1.3,1.6h0c0,0,0,.2,0,.2h0s0,0,0,0c.4,1,.8,2.3.9,3.2,0,.3.1.4.2.4,0,0,.2,0,.3-.2,0-.1.2-.3.2-.5.4-1.3.3-2.9.2-3.6h0c0-.5-.1-.7,0-.9,0,0,.2-.2.4-.3.4-.1.9-.3,1.3-.5,0,0,.2,0,.2-.1.6.5,1.8,1.3,3.6,1.2.1,0,.2,0,.3,0h0c.2,0,.3,0,.5-.1.4-.1.9-.3,1.3-.5,1.1.9,2.5,1.3,4,1.1.9-.1,1.8-.5,2.6-1,.1,0,.3,0,.4,0,.2.1.3.4.2.9-.1.9-.3,1.8-.6,2.7h0c-.7,2.1-1.8,4.3-3.4,6.4-1.2,1.6-2.4,2.7-2.7,3h0c-.1.1-.2.2-.3.3-.2.2-.2.5-.2.7l.7,4.7-18.7-.5Z"/>
      <path class="cls-8" d="M160,566.5v-90.9c0-15.9-9.4-23.9-23.5-23.9s-23.5,8-23.5,23.9v90.9c0,15.9,9.6,23.9,23.5,23.9s23.5-8,23.5-23.9M93.4,568.8v-95.5c0-24.7,16.3-39.8,43.1-39.8s43.1,15.1,43.1,39.8v95.5c0,24.7-17,39.8-43.1,39.8s-43.1-15.1-43.1-39.8"/>
      <path class="cls-8" d="M260.6,599.3l-36.4-94.3c-.8-2.3-6.5-17.2-7.1-21.8h-.2c.6,7.3,1.7,19.3,1.7,32.9v81.7c0,6.7-3.1,9.6-9.4,9.6s-9.6-2.9-9.6-9.6v-155c0-5.7,2.9-8.4,9.6-8.4s8.6,3.4,10.7,8.6l36.4,94.3c.8,2.3,6.5,17.2,7.1,21.8h.2c-.6-7.3-1.7-19.3-1.7-32.9v-81.7c0-6.7,3.4-9.6,9.6-9.6s9.4,2.9,9.4,9.6v155c0,5.7-2.9,8.4-9.6,8.4s-8.6-3.4-10.7-8.6"/>
      <path class="cls-8" d="M311.3,607.5c-6.5,0-9.4-2.9-9.4-9.6v-153.7c0-6.7,2.9-9.6,9.4-9.6h52.8c5.7,0,8.2,2.5,8.2,9.2s-2.5,9.2-8.2,9.2h-42.5v54.2h37.9c5.7,0,8.2,2.5,8.2,9.2s-2.5,9.2-8.2,9.2h-37.9v63.5h44.8c5.7,0,8.2,2.5,8.2,9.2s-2.5,9.2-8.2,9.2h-55.1Z"/>
      <path class="cls-8" d="M462.7,512.2c15.3,0,24.7-7.3,24.7-23.5v-12.8c0-16.1-9.4-23.5-24.7-23.5h-15.7v59.7h15.7ZM427.3,443.9c0-6.5,2.9-9.4,9.4-9.4h26c28.1,0,44.4,14.5,44.4,39.2v17.4c0,24.7-16.3,39.2-44.4,39.2h-15.7v68.1c0,6.3-2.7,9.2-9.8,9.2s-9.8-2.9-9.8-9.2v-154.4Z"/>
      <path class="cls-8" d="M523.2,598.3v-110.4c0-6.3,2.5-9.2,9.6-9.2s9.6,2.9,9.6,9.2v110.4c0,6.3-2.5,9.2-9.6,9.2s-9.6-2.9-9.6-9.2"/>
      <path class="cls-8" d="M625.4,475.6c0-15.9-9-23.9-22.2-23.9s-22.2,8-22.2,23.9v90.9c0,15.9,9.2,23.9,22.2,23.9s22.2-8,22.2-23.9v-4.4c0-6.3,2.7-9.2,9.8-9.2s9.8,2.9,9.8,9.2v6.7c0,24.7-16.5,39.8-41.9,39.8s-41.9-15.1-41.9-39.8v-95.5c0-24.7,15.9-39.8,41.9-39.8s41.9,15.1,41.9,39.8v6.7c0,6.3-2.7,9.2-9.8,9.2s-9.8-2.9-9.8-9.2v-4.4Z"/>
      <path class="cls-8" d="M742.1,594.9c2.1,5.9.6,9.4-5.9,11.7-6.7,2.3-10.5.6-12.6-5.2l-27.4-75.8h-13.2v72.7c0,6.3-2.7,9.2-9.8,9.2s-9.8-2.9-9.8-9.2v-154.6c0-6.3,2.7-9.2,9.8-9.2s9.8,2.9,9.8,9.2v63.5h13l23.9-66.6c2.1-6.1,6.1-7.8,12.6-5.4,6.3,2.3,8.2,5.7,5.9,11.9l-24.9,69.3,28.7,78.5Z"/>
      <polygon class="cls-11" points="2.4 387.7 9.3 407.2 36.9 417.5 30 397 2.4 387.7"/>
      <polygon class="cls-11" points="723.2 264.2 730.2 284.1 758.4 294.7 751.4 273.7 723.2 264.2"/>
      <rect class="cls-9" x="145.5" y="281.3" width="22.6" height="33.5" transform="translate(-134.1 128.4) rotate(-32)"/>
      <rect class="cls-9" x="606.2" y="357.6" width="36" height="18.7" transform="translate(126.3 892.7) rotate(-77)"/>
      <polygon class="cls-1" points="626.4 105.7 640.5 135.6 675.7 125 626.4 105.7"/>
      <polygon class="cls-1" points="512.4 719.2 500.4 744.7 470.4 735.7 512.4 719.2"/>
      <polygon class="cls-1" points="748.4 659.7 760.4 685.2 790.4 676.2 748.4 659.7"/>
      <polygon class="cls-4" points="396.4 108.2 408.4 120.2 420.4 103.7 396.4 108.2"/>
      <polygon class="cls-4" points="794.4 392.9 808.5 407 822.6 387.7 794.4 392.9"/>
      <polygon class="cls-9" points="56.1 245.8 69.9 259.6 83.7 240.7 56.1 245.8"/>
      <polygon class="cls-14" points="26.2 677.2 53.8 718.6 30.8 723.2 7.8 681.8 26.2 677.2"/>
      <path class="cls-13" d="M597.2,694.3c.9,0,1.3-.4,1.3-1.2v-1c0-.8-.4-1.2-1.3-1.2s-1.3.4-1.3,1.2v1c0,.8.4,1.2,1.3,1.2M597.2,688.1c.9,0,1.3-.4,1.3-1.2v-14.6c0-.8-.4-1.2-1.3-1.2s-1.3.4-1.3,1.2v14.6c0,.8.4,1.2,1.3,1.2M580.5,692.1v-19h5c.7,0,1.1-.3,1.1-1.2s-.3-1.2-1.1-1.2h-6.3c-.8,0-1.2.4-1.2,1.2v21.2c0,.8.4,1.2,1.2,1.2h7c.7,0,1.1-.3,1.1-1.2s-.3-1.2-1.1-1.2h-5.8ZM591.7,680.4v-9c0-.8-.4-1.2-1.3-1.2s-1.3.4-1.3,1.2v22.4c0,.8.4,1.2,1.3,1.2s1.3-.4,1.3-1.2v-11.1h1.1c.7,0,1.1-.3,1.1-1.2s-.3-1.2-1.1-1.2h-1.1ZM569.6,694.3c.7,0,1.1-.3,1.1-1.2s-.3-1.2-1.1-1.2h-5.4v-20c0-.8-.3-1.2-1.3-1.2s-1.3.4-1.3,1.2v21.2c0,.9.4,1.2,1.2,1.2h6.7ZM573.8,695.1c.9,0,1.3-.4,1.3-1.2v-22.4c0-.8-.3-1.2-1.3-1.2s-1.3.4-1.3,1.2v22.4c0,.8.3,1.2,1.3,1.2M548.5,690.2h7.8v2.6h-7.8v-2.6ZM557.5,685.1c-.9,0-1.2.4-1.2,1.2v1.6h-7.8v-1.6c0-.9-.4-1.2-1.2-1.2s-1.2.4-1.2,1.2v7.5c0,.9.4,1.2,1.2,1.2h10.3c.8,0,1.2-.4,1.2-1.2v-7.5c0-.9-.4-1.2-1.2-1.2M554.4,681.9c0-.8-.3-1.1-1.1-1.1h-6.4v-3.2h5.3c.8,0,1.2-.4,1.2-1.2v-4.4c0-.9-.4-1.2-1.3-1.2h-6.6c-.7,0-1.1.3-1.1,1.1s.3,1.1,1.1,1.1h5.5v2.5h-5.3c-.8,0-1.2.4-1.2,1.2v5.1c0,.9.4,1.2,1.2,1.2h7.6c.7,0,1.1-.3,1.1-1.1M557.5,670.3c-.9,0-1.3.4-1.3,1.2v11.4c0,.8.4,1.2,1.3,1.2s1.3-.4,1.3-1.2v-11.4c0-.8-.4-1.2-1.3-1.2M542.1,694.2c.7,0,1.1-.3,1.1-1.2s-.3-1.2-1.1-1.2h-12.8c-.7,0-1.1.3-1.1,1.2s.3,1.2,1.1,1.2h12.8ZM529.7,684c0,.8.4,1.2,1.2,1.2h9.9c.7,0,1.1-.3,1.1-1.2s-.3-1.2-1.1-1.2h-8.6v-9.8h8.3c.7,0,1.1-.3,1.1-1.2s-.3-1.2-1.1-1.2h-9.7c-.8,0-1.2.4-1.2,1.2v12ZM509.4,691.9v-20.1c0-.8-.4-1.2-1.2-1.2s-1.2.4-1.2,1.2v21.2c0,.9.3,1.2,1.2,1.2h4.9c.7,0,1.1-.3,1.1-1.2s-.3-1.2-1.1-1.2h-3.5ZM520.8,670.3c-.9,0-1.2.4-1.2,1.2v9h-1.8v-8.8c0-.8-.3-1.2-1.2-1.2s-1.2.4-1.2,1.2v22.1c0,.8.4,1.2,1.2,1.2s1.2-.4,1.2-1.2v-10.9h1.8v11.1c0,.8.4,1.2,1.2,1.2s1.2-.4,1.2-1.2v-22.4c0-.8-.4-1.2-1.2-1.2M498.4,691.9v-4.4c0-.8-.4-1.2-1.3-1.2s-1.3.4-1.3,1.2v4.4h-5.1c-.7,0-1.1.3-1.1,1.2s.3,1.2,1.1,1.2h12.8c.7,0,1.1-.3,1.1-1.2s-.3-1.2-1.1-1.2h-5.1ZM500.7,682.5h-7v-4.6h7v4.6ZM502,684.8c.8,0,1.2-.4,1.2-1.2v-11.7c0-.9-.4-1.2-1.3-1.2s-1.2.4-1.2,1.2v3.8h-7v-3.8c0-.9-.4-1.2-1.2-1.2s-1.3.4-1.3,1.2v11.7c0,.9.4,1.2,1.2,1.2h9.6ZM483,695.1c.7,0,1.1-.3,1.1-1.1s-.3-1.1-1.1-1.1h-9.5v-1.8h8.4c.8,0,1.2-.4,1.2-1.2v-3.5c0-.9-.4-1.2-1.3-1.2h-9.8c-.7,0-1.1.3-1.1,1.1s.3,1.1,1.1,1.1h8.6v1.8h-8.4c-.8,0-1.2.4-1.2,1.2v3.6c0,.9.4,1.2,1.2,1.2h10.7ZM483.5,683.3c.7,0,1.1-.3,1.1-1.2s-.3-1.2-1.1-1.2h-12.8c-.7,0-1.1.3-1.1,1.2s.3,1.2,1.1,1.2h12.8ZM476.2,677.2c-2,0-2.9-.9-2.9-2.3s.9-2.3,2.9-2.3h1.7c2,0,2.9.9,2.9,2.3s-.9,2.3-2.9,2.3h-1.7ZM478,679.4c3.3,0,5.4-1.7,5.4-4.5s-2-4.5-5.4-4.5h-1.7c-3.3,0-5.4,1.7-5.4,4.5s2,4.5,5.4,4.5h1.7ZM457.3,692.8v-5c0-.8-.4-1.2-1.3-1.2s-1.2.4-1.2,1.2v6.1c0,.9.4,1.2,1.3,1.2h10.7c.7,0,1.1-.3,1.1-1.2s-.3-1.2-1.1-1.2h-9.4ZM457,683.6c-.2.9.2,1.3.9,1.4.8.1,1.3,0,1.5-.9l2.4-11.4c.2-1.1-.3-1.9-1.5-1.9h-6.6c-.7,0-1.1.3-1.1,1.2s.3,1.2,1.1,1.2h5.5l-.8,3.6h-4.8c-.7,0-1.1.3-1.1,1.2s.3,1.2,1.1,1.2h4.3l-.9,4.5ZM466.1,688.5c.9,0,1.3-.4,1.3-1.2v-15.8c0-.8-.4-1.2-1.3-1.2s-1.3.4-1.3,1.2v15.8c0,.8.4,1.2,1.3,1.2M448.9,670.3c-.9,0-1.3.4-1.3,1.2v22.4c0,.8.4,1.2,1.3,1.2s1.3-.4,1.3-1.2v-22.4c0-.8-.4-1.2-1.3-1.2M442,674.9h2.7c.7,0,1.1-.3,1.1-1.2s-.3-1.2-1.1-1.2h-2.6v-1.6c0-.8-.4-1.2-1.3-1.2s-1.3.4-1.3,1.2v1.6h-2.6c-.7,0-1.1.3-1.1,1.2s.3,1.2,1.1,1.2h2.7v10.5l-3.7,7.1c-.4.7-.3,1.3.5,1.7.8.4,1.3.2,1.6-.5l2.8-5.4,2.8,5.4c.4.7.9.9,1.6.5.8-.4.9-1,.5-1.7l-3.7-7.1v-10.5ZM413.3,670.8c-.7,0-1.1.3-1.1,1.2s.3,1.2,1.1,1.2h.9l-1.7,20.2c0,.9.2,1.3,1,1.3.8,0,1.2-.1,1.3-1.2l1.8-21.1c0-1.1-.3-1.6-1.5-1.6h-1.8ZM423.8,670.4c-.9,0-1.2.4-1.2,1.2v8.8h-2.1l.6-8c0-1.1-.3-1.6-1.5-1.6h-1.6c-.7,0-1.1.3-1.1,1.2s.3,1.2,1.1,1.2h.8l-1.6,20.2c0,.9.2,1.3,1,1.3.8,0,1.2-.1,1.3-1.2l.9-10.7h2.2v10.9c0,.8.3,1.2,1.2,1.2s1.2-.4,1.2-1.2v-22.1c0-.8-.3-1.2-1.2-1.2M427.6,670.3c-.9,0-1.2.4-1.2,1.2v22.4c0,.8.3,1.2,1.2,1.2s1.2-.4,1.2-1.2v-22.4c0-.8-.4-1.2-1.2-1.2M400.1,692.7v-4.2c0-.8-.4-1.2-1.3-1.2s-1.3.4-1.3,1.2v5.3c0,.9.4,1.2,1.3,1.2h10c.7,0,1.1-.3,1.1-1.2s-.3-1.2-1.1-1.2h-8.8ZM397.1,682.8c-.7,0-1.1.3-1.1,1.2s.3,1.2,1.1,1.2h5.5v3.3c0,.8.4,1.2,1.3,1.2s1.3-.4,1.3-1.2v-3.3h4.7c.7,0,1.1-.3,1.1-1.2s-.3-1.2-1.1-1.2h-12.8ZM407,678.4h-7v-2.5h7v2.5ZM408.2,680.7c.8,0,1.2-.4,1.2-1.2v-7.7c0-.9-.4-1.2-1.2-1.2s-1.2.4-1.2,1.2v1.9h-7v-1.9c0-.9-.4-1.2-1.2-1.2s-1.2.4-1.2,1.2v7.7c0,.9.4,1.2,1.2,1.2h9.5ZM389.3,694.2c3.2,0,4.9-1.8,4.9-4.9v-4.1c0-3.1-1.6-4.8-4.7-4.8s-1.6.2-2.2.6l.6-6.9h4.8c.7,0,1.1-.3,1.1-1.2s-.3-1.2-1.1-1.2h-5.9c-.8,0-1.2.4-1.2,1.2l-.8,9.6c0,.5.2.8.8,1,.5.2,1.1.2,1.5-.1,1.1-.9,2.2-1.1,3.3-.7,1,.3,1.4,1.1,1.4,2.8v3.5c0,1.9-.8,2.8-2.3,2.8s-2.3-.9-2.3-2.8v-.3c0-.8-.4-1.2-1.2-1.2s-1.3.4-1.3,1.2v.6c0,3.1,1.7,4.9,4.9,4.9M380.7,694.1c.9,0,1.3-.4,1.3-1.2v-19.9c0-1.2-1.3-1.6-2.3-.8l-4.2,3.2c-.6.5-.8.9-.2,1.6.5.7.9.8,1.6.3l2.5-1.9v17.5c0,.8.4,1.2,1.3,1.2M358.9,692.8v-4.1c0-.8-.4-1.2-1.3-1.2s-1.2.4-1.2,1.2v5.1c0,.9.4,1.2,1.3,1.2h10.7c.7,0,1.1-.3,1.1-1.2s-.3-1.2-1.1-1.2h-9.5ZM365.6,684.4c0-.8-.3-1.2-1.1-1.2h-3.5v-2.6h2.4c.7,0,1.1-.3,1.1-1.1s-.3-1.1-1.1-1.1h-6v-5.5h5.6c.7,0,1.1-.3,1.1-1.1s-.3-1.1-1.1-1.1h-6.9c-.8,0-1.2.4-1.2,1.2v7.6c0,.9.4,1.2,1.2,1.2h2.4v2.6h-3.6c-.7,0-1.1.3-1.1,1.2s.3,1.2,1.1,1.2h9.6c.7,0,1.1-.3,1.1-1.2M367.8,689.7c.9,0,1.3-.4,1.3-1.2v-17c0-.8-.4-1.2-1.3-1.2s-1.3.4-1.3,1.2v17c0,.8.4,1.2,1.3,1.2M344.1,693c-1.9,0-3-1.1-3-2.8s1-2.8,3-2.8h2.5c1.9,0,3,1.1,3,2.8s-1,2.8-3,2.8h-2.5ZM344.1,685.1c-3.4,0-5.5,2.1-5.5,5s2.1,5,5.5,5h2.4c3.4,0,5.5-2.1,5.5-5s-2.1-5-5.5-5h-2.4ZM342.1,679.1l2.7,4c.4.6,1,.8,1.7.2.8-.5.8-1.1.3-1.7l-3.4-5v-3.5h2.3c.7,0,1.1-.3,1.1-1.1s-.3-1.2-1.1-1.2h-7.1c-.7,0-1.1.3-1.1,1.2s.3,1.1,1.1,1.1h2.3v3.5l-3.4,5c-.5.6-.5,1.2.3,1.7.7.5,1.2.4,1.7-.2l2.7-4ZM345.9,676.3c0,.9.3,1.2,1.1,1.2h2.2v5.8c0,.8.4,1.2,1.3,1.2s1.3-.4,1.3-1.2v-11.7c0-.8-.4-1.2-1.3-1.2s-1.3.4-1.3,1.2v3.6h-2.2c-.7,0-1.1.3-1.1,1.2M324.4,692.8v-5.3c0-.8-.4-1.2-1.3-1.2s-1.2.4-1.2,1.2v6.4c0,.9.4,1.2,1.3,1.2h10.7c.7,0,1.1-.3,1.1-1.2s-.3-1.2-1.1-1.2h-9.5ZM327.4,683.9c.5.6,1,.8,1.7.3.7-.6.8-1.1.3-1.8l-3.4-4.6v-5.9c0-.8-.4-1.2-1.3-1.2s-1.3.4-1.3,1.2v5.9l-3.4,4.6c-.5.7-.5,1.2.3,1.8.7.5,1.2.4,1.7-.3l2.7-3.7,2.7,3.7ZM332,677.6v9.6c0,.8.4,1.2,1.3,1.2s1.3-.4,1.3-1.2v-15.7c0-.8-.4-1.2-1.3-1.2s-1.3.4-1.3,1.2v3.8h-2.5c-.7,0-1.1.3-1.1,1.2s.3,1.2,1.1,1.2h2.5ZM302.8,690.4c0,1.4-.5,2.1-1.5,2.1s-1.5-.7-1.5-2.1v-10.6c0-1.4.5-2.1,1.5-2.1s1.5.7,1.5,2.1v10.6ZM301.4,675.5c-2.5,0-3.9,1.5-3.9,4.2v10.7c0,2.7,1.4,4.2,3.9,4.2s3.9-1.5,3.9-4.2v-10.7c0-2.7-1.4-4.2-3.9-4.2M312,670.3c-.9,0-1.2.4-1.2,1.2v9h-1.6v-8.8c0-.8-.3-1.2-1.2-1.2s-1.2.4-1.2,1.2v22.1c0,.8.4,1.2,1.2,1.2s1.2-.4,1.2-1.2v-10.9h1.6v11.1c0,.8.4,1.2,1.2,1.2s1.2-.4,1.2-1.2v-22.4c0-.8-.4-1.2-1.2-1.2M302.6,672.2v-1.3c0-.8-.4-1.2-1.2-1.2s-1.2.4-1.2,1.2v1.3h-2.3c-.7,0-1.1.3-1.1,1.1s.3,1.1,1.1,1.1h7.1c.7,0,1.1-.3,1.1-1.1s-.3-1.1-1.1-1.1h-2.2ZM286.5,693c-1.7,0-2.6-.9-2.6-2.2s.9-2.2,2.6-2.2h2.6c1.7,0,2.6.9,2.6,2.2s-.9,2.2-2.6,2.2h-2.6ZM286.7,686.3c-3.3,0-5.2,1.7-5.2,4.5s1.9,4.5,5.2,4.5h2.3c3.3,0,5.2-1.7,5.2-4.5s-1.9-4.5-5.2-4.5h-2.3ZM289.1,682.5v-1.7h3.9c.7,0,1.1-.3,1.1-1.1s-.3-1.1-1.1-1.1h-8.6v-1.8h8c.7,0,1.1-.3,1.1-1.1s-.3-1.1-1.1-1.1h-8v-1.7h8.4c.7,0,1.1-.3,1.1-1.1s-.3-1.1-1.1-1.1h-9.7c-.8,0-1.2.4-1.2,1.2v7.7c0,.9.4,1.2,1.2,1.2h3.5v1.7h-5.1c-.7,0-1.1.3-1.1,1.2s.3,1.2,1.1,1.2h12.8c.7,0,1.1-.3,1.1-1.2s-.3-1.2-1.1-1.2h-5.1ZM273.7,695.1c.7,0,1.1-.3,1.1-1.1s-.3-1.1-1.1-1.1h-9.5v-1.8h8.4c.8,0,1.2-.4,1.2-1.2v-3.5c0-.9-.4-1.2-1.3-1.2h-9.8c-.7,0-1.1.3-1.1,1.1s.3,1.1,1.1,1.1h8.6v1.8h-8.4c-.8,0-1.2.4-1.2,1.2v3.6c0,.9.4,1.2,1.2,1.2h10.7ZM274.2,683.3c.7,0,1.1-.3,1.1-1.2s-.3-1.2-1.1-1.2h-12.8c-.7,0-1.1.3-1.1,1.2s.3,1.2,1.1,1.2h12.8ZM266.9,677.2c-2,0-2.9-.9-2.9-2.3s.9-2.3,2.9-2.3h1.7c2,0,2.9.9,2.9,2.3s-.9,2.3-2.9,2.3h-1.7ZM268.6,679.4c3.3,0,5.4-1.7,5.4-4.5s-2-4.5-5.4-4.5h-1.7c-3.3,0-5.4,1.7-5.4,4.5s2,4.5,5.4,4.5h1.7ZM247.7,687.7h7.8v5.1h-7.8v-5.1ZM246.5,685.5c-.8,0-1.2.4-1.2,1.2v7.1c0,.9.4,1.2,1.2,1.2h10.3c.8,0,1.2-.4,1.2-1.2v-7.1c0-.9-.4-1.2-1.2-1.2h-10.3ZM256.8,670.3c-.9,0-1.3.4-1.3,1.2v4.4h-2.2c-.7,0-1.1.3-1.1,1.2s.3,1.2,1.1,1.2h2.2v5c0,.8.4,1.2,1.3,1.2s1.3-.4,1.3-1.2v-11.7c0-.8-.4-1.2-1.3-1.2M248.4,679.6l2.7,3.5c.5.6,1,.7,1.7.2.8-.6.7-1.1.2-1.8l-3.4-4.3v-2.8h2.4c.7,0,1.1-.3,1.1-1.2s-.3-1.2-1.1-1.2h-2.4v-1.1c0-.8-.4-1.2-1.3-1.2s-1.3.4-1.3,1.2v1.1h-2.4c-.7,0-1.1.3-1.1,1.2s.3,1.2,1.1,1.2h2.4v2.8l-3.4,4.3c-.5.6-.5,1.2.2,1.8.7.5,1.2.4,1.7-.2l2.7-3.5ZM228,685.9c-.7,0-1.1.3-1.1,1.2s.3,1.2,1.1,1.2h5.1v5.6c0,.8.4,1.2,1.3,1.2s1.3-.4,1.3-1.2v-5.6h5.1c.7,0,1.1-.3,1.1-1.2s-.3-1.2-1.1-1.2h-12.8ZM228.3,681.7c-.6.5-.7,1.1-.1,1.7.6.7,1.1.7,1.7.2l4.5-3.7,4.5,3.7c.6.5,1.1.5,1.7-.2.6-.7.5-1.2-.1-1.7l-4.8-4v-3.2h4.1c.7,0,1.1-.3,1.1-1.2s-.3-1.2-1.1-1.2h-4.1v-1.4c0-.8-.4-1.2-1.3-1.2s-1.3.4-1.3,1.2v1.4h-4.1c-.7,0-1.1.3-1.1,1.2s.3,1.2,1.1,1.2h4.1v3.2l-4.8,4Z"/>
      <path class="cls-13" d="M570.6,373.5c1.9,0,2.4-.8,2.4-2.7v-5.1c0-1.9-.5-2.7-2.4-2.7s-2.4.8-2.4,2.7v5.1c0,1.9.5,2.7,2.4,2.7M570.6,352.6c2.2,0,2.6-1,2.6-2.8v-6.4c0-5.4.9-8.4,3.5-11.5l5.8-7.1c4.7-5.6,5.3-7.4,5.3-16s-5.9-16.2-16.2-16.2-16.4,6.3-16.4,16.3v2.4c0,1.8.4,2.8,2.6,2.8s2.6-1,2.6-2.8v-1.5c0-7.6,4.3-12.4,11.2-12.4s11,4.7,11,12.3-.9,8.3-4.2,12.3l-5.7,7.2c-3.5,4.2-4.7,7.7-4.7,13.7v6.8c0,1.8.4,2.8,2.6,2.8M546.7,376.4c1.2,0,1.8-.6,1.8-2.3s-.7-2.2-1.8-2.2h-34.9v-20.1c0-1.8-.7-2.4-2.4-2.4s-2.5.7-2.5,2.4v22.2c0,1.8.8,2.5,2.4,2.5h37.4ZM550.1,337.9c1.2,0,1.8-.4,1.8-2.2s-.7-2.3-1.8-2.3h-46.9c-1.2,0-1.8.5-1.8,2.3s.7,2.2,1.8,2.2h46.9ZM523,318.5c-8.1,0-12.1-5-12.1-12.1s4-12.2,12.1-12.2h7.4c8.1,0,12.1,5,12.1,12.2s-4,12.1-12.1,12.1h-7.4ZM530,323.1c11.3,0,17.4-6.9,17.4-16.6s-6.1-16.7-17.4-16.7h-6.6c-11.3,0-17.4,6.9-17.4,16.7s6.1,16.6,17.4,16.6h6.6ZM452.1,346.2c-1.2,0-1.8.6-1.8,2.3s.7,2.2,1.8,2.2h36.8v23.2c0,1.7.7,2.4,2.4,2.4s2.5-.8,2.5-2.4v-25.3c0-1.8-.8-2.5-2.4-2.5h-39.3ZM480.9,333.8c0-1.8-.7-2.2-1.8-2.2h-6.1v-29.6c0-1.8-.5-2.3-2.4-2.3s-2.4.6-2.4,2.3v29.6h-12.5v-29.6c0-1.8-.5-2.3-2.4-2.3s-2.4.6-2.4,2.3v29.6h-4.9c-1.2,0-1.8.5-1.8,2.2s.7,2.1,1.8,2.1h33.2c1.2,0,1.8-.4,1.8-2.1M478.3,295.9c1.2,0,1.8-.5,1.8-2.2s-.7-2.2-1.8-2.2h-31.6c-1.2,0-1.8.5-1.8,2.2s.7,2.2,1.8,2.2h31.6ZM491.3,289.5c-1.9,0-2.5.7-2.5,2.4v46.8c0,1.7.7,2.4,2.5,2.4s2.5-.8,2.5-2.4v-46.8c0-1.8-.6-2.4-2.5-2.4M398.1,371.7v-13.4c0-1.8-.7-2.4-2.4-2.4s-2.5.7-2.5,2.4v15.6c0,1.8.8,2.5,2.4,2.5h39.9c1.2,0,1.8-.6,1.8-2.3s-.7-2.3-1.8-2.3h-37.4ZM400.5,350.1c0,1.7.7,2.4,2.5,2.4s2.5-.8,2.5-2.4v-12.2h18.1c1.2,0,1.8-.5,1.8-2.3s-.7-2.3-1.8-2.3h-37.4c-1.2,0-1.8.5-1.8,2.3s.7,2.3,1.8,2.3h14.2v12.2ZM391.8,305.4c0-7,4-10.3,10.3-10.3s10.3,3.3,10.3,10.3v6.3c0,7-4,10.3-10.3,10.3s-10.3-3.3-10.3-10.3v-6.3ZM402.1,326.6c9.6,0,15.2-5.4,15.2-14.3v-7.4c0-8.9-5.5-14.4-15.2-14.4s-15.2,5.5-15.2,14.4v7.4c0,8.9,5.5,14.3,15.2,14.3M430.7,311v45.3c0,1.7.7,2.4,2.5,2.4s2.5-.8,2.5-2.4v-64.4c0-1.8-.6-2.4-2.5-2.4s-2.5.7-2.5,2.4v14.5h-6.8c-1.2,0-1.8.5-1.8,2.3s.7,2.2,1.8,2.2h6.8ZM352.2,373c1.2,0,1.8-.5,1.8-2.3s-.7-2.3-1.8-2.3h-37.9c-1.2,0-1.8.5-1.8,2.3s.7,2.3,1.8,2.3h37.9ZM332.3,342c-7.3,0-10.9-3.9-10.9-10.9v-25.2c0-7,3.6-10.9,10.9-10.9s10.9,3.9,10.9,10.9v25.2c0,7-3.6,10.9-10.9,10.9M332.3,346.6c10.2,0,15.8-6,15.8-14.9v-26.3c0-8.9-5.5-15-15.8-15s-15.8,6.1-15.8,15v26.3c0,8.9,5.5,14.9,15.8,14.9M361.2,376.4c1.8,0,2.5-.8,2.5-2.4v-82c0-1.8-.6-2.4-2.5-2.4s-2.5.7-2.5,2.4v82c0,1.7.7,2.4,2.5,2.4M262.3,368.4v-74.8c0-1.8-.7-2.4-2.5-2.4s-2.5.7-2.5,2.4v76.9c0,1.8.8,2.5,2.4,2.5h26.8c1.2,0,1.8-.6,1.8-2.3s-.7-2.3-1.8-2.3h-24.1ZM301.7,326.5v-34.5c0-1.8-.6-2.4-2.5-2.4s-2.5.7-2.5,2.4v82c0,1.7.7,2.4,2.5,2.4s2.5-.8,2.5-2.4v-42.8h6.3c1.2,0,1.8-.6,1.8-2.3s-.7-2.3-1.8-2.3h-6.3Z"/>
      <path class="cls-13" d="M579.3,241.5c7.8,0,12.4,4.8,12.4,11.4s-4.6,11.4-12.4,11.4h-9.3c-7.8,0-12.4-4.8-12.4-11.4s4.6-11.4,12.4-11.4h9.3ZM551.1,221.4c-1.2,0-1.8.5-1.8,2.3s.7,2.2,1.8,2.2h20.9v11.1h-1.8c-11.1,0-17.4,6.6-17.4,15.9s6.1,15.9,17.2,15.9h9.1c11.1,0,17.2-6.6,17.2-15.9s-6.3-15.9-17.4-15.9h-1.8v-11.1h20.9c1.2,0,1.8-.4,1.8-2.2s-.7-2.3-1.8-2.3h-46.9ZM574.6,202.7l17.3,10.2c1.6,1,2.7,1.4,3.9-.2,1.1-1.4,1-2.5-.6-3.5l-18.1-10.6v-11.6h16.1c1.2,0,2-.5,2-2.3s-.9-2.2-2-2.2h-37.2c-1.2,0-2,.5-2,2.2s.9,2.3,2,2.3h16.1v11.6l-18.1,10.6c-1.6,1-1.7,2.1-.6,3.5,1.2,1.6,2.3,1.2,3.9.2l17.3-10.2ZM483.9,260c-1.2,0-1.8.6-1.8,2.4s.7,2.3,1.8,2.3h46.9c1.2,0,1.8-.5,1.8-2.3s-.7-2.4-1.8-2.4h-46.9ZM486,228.9c-1.2,1.2-1.3,2.1,0,3.5s2.3,1.2,3.5,0l17.8-16.6,17.8,16.6c1.2,1.1,2.3,1.1,3.5,0,1.4-1.4,1.3-2.3,0-3.5l-18.8-17.4v-18.3h17.3c1.2,0,2-.5,2-2.3s-.9-2.2-2-2.2h-17.3v-7.6c0-1.8-.7-2.3-2.6-2.3s-2.6.6-2.6,2.3v7.6h-17.3c-1.2,0-2,.5-2,2.2s.9,2.3,2,2.3h17.3v18.3l-18.8,17.4ZM433,263.5v-21c0-1.8-.7-2.4-2.4-2.4s-2.5.7-2.5,2.4v23.2c0,1.8.8,2.5,2.4,2.5h42.8c1.2,0,1.8-.6,1.8-2.3s-.7-2.3-1.8-2.3h-40.3ZM446.5,228.3c0-1.7-.7-2.2-1.8-2.2h-20.6v-17.4h16.1c1.2,0,1.8-.6,1.8-2.2s-.7-2.2-1.8-2.2h-16.1v-16.3h17.7c1.2,0,1.8-.6,1.8-2.2s-.7-2.3-1.8-2.3h-20.1c-1.7,0-2.5.8-2.5,2.6v42.3c0,1.8.9,2.4,2.5,2.4h23.1c1.2,0,1.8-.6,1.8-2.3M456.1,206.9v35.8c0,1.7.6,2.4,2.4,2.4s2.4-.8,2.4-2.4v-58.6c0-1.8-.5-2.4-2.4-2.4s-2.4.7-2.4,2.4v18.1h-8.3c-1.2,0-1.8.6-1.8,2.3s.7,2.3,1.8,2.3h8.3ZM471.8,247.4c1.8,0,2.5-.8,2.5-2.4v-61.2c0-1.8-.6-2.4-2.5-2.4s-2.4.7-2.4,2.4v61.2c0,1.7.6,2.4,2.4,2.4M372.1,263.6v-19.4c0-1.8-.7-2.4-2.4-2.4s-2.5.7-2.5,2.4v21.4c0,1.8.8,2.5,2.4,2.5h37.5c1.2,0,1.8-.6,1.8-2.3s-.7-2.2-1.8-2.2h-34.9ZM384.3,228.3v-14c0-1.4-.5-2.3-2.4-2.3s-2.4,1-2.4,2.3v14h-16c-1.2,0-1.8.5-1.8,2.3s.7,2.2,1.8,2.2h46.9c1.2,0,1.8-.4,1.8-2.2s-.7-2.3-1.8-2.3h-26.1ZM400.6,205.2l-.5,10.6c0,1.7.5,2.3,2.4,2.4,1.8,0,2.5-.6,2.6-2.2l1.4-29.7c0-2.9-.6-3.8-3.5-3.8h-34.2c-1.2,0-1.8.6-1.8,2.3s.7,2.2,1.8,2.2h32.6l-.6,13.5h-32.6c-1.2,0-1.8.6-1.8,2.3s.7,2.2,1.8,2.2h32.4ZM322.3,260.1v-15c0-1.7-.7-2.4-2.5-2.4s-2.5.8-2.5,2.4v15h-20.9c-1.2,0-1.8.5-1.8,2.3s.7,2.3,1.8,2.3h46.9c1.2,0,1.8-.5,1.8-2.3s-.7-2.3-1.8-2.3h-20.9ZM332.4,221c0,7.3-4.1,11.7-12.6,11.7s-12.6-4.4-12.6-11.7v-7c0-7.3,4.1-11.7,12.6-11.7s12.6,4.4,12.6,11.7v7ZM302.1,221.6c0,8.9,5.8,15.8,17.6,15.8s17.6-6.8,17.6-15.8v-8.2c0-8.9-5.8-15.8-17.6-15.8s-17.6,6.8-17.6,15.8v8.2ZM340.4,192.2c1.2,0,1.8-.5,1.8-2.2s-.7-2.2-1.8-2.2h-18.1v-7.2c0-1.8-.7-2.3-2.5-2.3s-2.5.6-2.5,2.3v7.2h-18.1c-1.2,0-1.8.5-1.8,2.2s.7,2.2,1.8,2.2h41.2ZM250.8,244.1h30.9v19.7h-30.9v-19.7ZM248.4,239.6c-1.7,0-2.4.7-2.4,2.5v23.5c0,1.8.8,2.5,2.4,2.5h35.6c1.7,0,2.4-.7,2.4-2.5v-23.5c0-1.8-.8-2.5-2.4-2.5h-35.6ZM281.3,209.8h-30.2v-12.2h30.2v12.2ZM268.8,225.8v-11.5h14.9c1.7,0,2.4-.7,2.4-2.5v-27.2c0-1.8-.5-2.4-2.4-2.4s-2.3.7-2.3,2.4v8.7h-30.2v-8.7c0-1.8-.5-2.4-2.3-2.4s-2.4.7-2.4,2.4v27.2c0,1.8.8,2.5,2.4,2.5h14.9v11.5h-20.9c-1.2,0-1.8.5-1.8,2.3s.7,2.2,1.8,2.2h46.9c1.2,0,1.8-.4,1.8-2.2s-.7-2.3-1.8-2.3h-20.9Z"/>
      <g>
        <path class="cls-7" d="M137.7,92.2s-3.3-1.8-4.4-1.8-4,1.2-3.6,3.4,1.5,3.5,2.2,4.2,4.3,3.3,5.9,4c1.4.6,5.9,2.1,5.9,2,0,0,3-6.1,3.3-9s-.7-6.5-1.5-7.7-2.6-2.3-4.4-2.4-2.9,1.5-3.2,2.6-.1,4.7-.1,4.7Z"/>
        <g>
          <polygon class="cls-6" points="93.2 117.7 91.1 118.5 89.1 112.8 84.7 114.3 90.2 129.9 94.6 128.3 92.7 122.9 94.8 122.2 96.7 127.6 101.1 126 95.6 110.4 91.2 112 93.2 117.7"/>
          <polygon class="cls-6" points="118 105 113.1 106.8 114.7 111.2 119.6 109.5 120.5 112 115.6 113.8 117.2 118.2 122.1 116.5 122.8 118.4 127.5 116.7 122 101.1 117.3 102.8 118 105"/>
          <path class="cls-6" d="M148.3,107.7l-3.4,1.2c-2.1-2.7-5.8-3.9-9.2-2.6s-6.6,6.2-5,10.5,6.2,6.6,10.5,5,5.8-4.9,5.5-8.6l3.3-1.2,2.1,5.9,4.3-1.5-5.5-15.6-4.3,1.5,1.9,5.2ZM139.3,116.7c-1.4.5-2.9-.2-3.4-1.6s.2-2.9,1.6-3.4,2.9.2,3.4,1.6-.2,2.9-1.6,3.4Z"/>
          <rect class="cls-6" x="155.6" y="99" width="4.6" height="16.5" transform="translate(-26.7 58.7) rotate(-19.5)"/>
          <path class="cls-6" d="M115.4,124.9h0s4.6,13,4.6,13l.4,1.1,1.1,3.2,13-4.6-1.5-4.3-7.2,2.5h0s0,0,0,0c-.7.3-1.5-.1-1.8-.8h0s-.6-1.7-.6-1.7l8-2.8-1.5-4.3-8,2.8-.6-1.7h0c-.2-.7.2-1.5.9-1.7s0,0,0,0h0s7.2-2.5,7.2-2.5l-1.5-4.3-11.3,4c-.9.3-1.4,1.3-1.2,2.2Z"/>
          <path class="cls-6" d="M173,105.7l6-2.1.7,2.1-5.9,2.1,1.5,4.3,10.3-3.7c1-.3,2,.2,2.4,1.1s0,.1,0,.2h0s1.5,4.1,1.5,4.1l.6,1.7,2.9-1h0c.9-.4,1.3-1.4,1-2.3l-3.7-10.3-2.2.8-2.2.8-1.3.4-.7-2.1,5.9-2.1-1.6-4.5-16.9,6,1.6,4.5Z"/>
          <rect class="cls-6" x="242.1" y="73.2" width="17.9" height="4.7" transform="translate(-10.8 87.9) rotate(-19.5)"/>
          <path class="cls-6" d="M79.9,126.7c0,0,0-.1,0-.2h0s-2.7-7.6-2.7-7.6l-.6-1.7-2.9,1h0c-.9.4-1.3,1.4-1,2.3l4.9,13.8,2.2-.8,2.2-.8,6.4-2.2-1.5-4.3-4.6,1.6c-1,.3-2-.2-2.4-1.1Z"/>
          <path class="cls-6" d="M208.5,98.2l-.2-.6-1.7-4.9-.6-1.7-2.9,1h0c-.9.4-1.3,1.4-1,2.3l3.9,11.1,2.2-.8,2.2-.8,7.5-2.6-1.5-4.3-6.2,2.2c-.9.3-1.4,0-1.7-.9Z"/>
          <path class="cls-6" d="M234.6,89l-.2-.6-1.7-4.9-.6-1.7-2.9,1h0c-.9.4-1.3,1.4-1,2.3l3.9,11.1,2.2-.8,2.2-.8,7.5-2.6-1.5-4.3-6.2,2.2c-.9.3-1.4,0-1.7-.9Z"/>
          <path class="cls-6" d="M114.2,119.5l-4.9-13.8-2.2.8-2.2.8-6.4,2.2,1.5,4.3,4.6-1.6c1-.3,2,.2,2.4,1.1s0,.1,0,.2h0s2.7,7.6,2.7,7.6l.6,1.7,2.9-1h0c.9-.4,1.3-1.4,1-2.3Z"/>
          <path class="cls-6" d="M180.4,87.5c0,0,0,.1,0,.2h0s1.5,4.1,1.5,4.1l.6,1.7,2.9-1h0c.9-.4,1.3-1.4,1-2.3l-3.7-10.3-2.2.8-2.2.8-12.1,4.3,1.5,4.3,10.3-3.7c1-.3,2,.2,2.4,1.1Z"/>
          <path class="cls-6" d="M250.8,62.6c0,0,0,.1,0,.2h0s1.5,4.1,1.5,4.1l.6,1.7,2.9-1h0c.9-.4,1.3-1.4,1-2.3l-3.7-10.3-2.2.8-2.2.8-12.1,4.3,1.5,4.3,10.3-3.7c1-.3,2,.2,2.4,1.1Z"/>
          <path class="cls-6" d="M229.8,65.4l-5.8,2.1c-1.8-.8-4-.9-6-.2-4.3,1.5-6.6,6.2-5,10.5s6.2,6.6,10.5,5,3.9-2.4,4.8-4.4l5.5-2,.8,2.4,4.6-1.6-5.5-15.6-4.6,1.6.7,2.1ZM221.6,77.6c-1.4.5-2.9-.2-3.4-1.6s.2-2.9,1.6-3.4,2.9.2,3.4,1.6-.2,2.9-1.6,3.4ZM228.7,73.3c0-.3-.2-.7-.3-1s-.3-.8-.6-1.2l3.4-1.2.8,2.2-3.4,1.2Z"/>
          <rect class="cls-6" x="205.6" y="71.4" width="4.9" height="16.4" transform="translate(-14.6 73.8) rotate(-19.5)"/>
          <path class="cls-6" d="M204.2,89.6l-5.4-15.4-1,.3-3.8,1.3-6.7,2.4c-.8.3-1.3,1.2-1.1,2h0s4.9,14,4.9,14l.8-.3,4-1.4,3.5-1.2,3.8-1.3,1-.3ZM195.1,87.8c-.4.2-.9,0-1.1-.5l-1.7-4.9c-.2-.4,0-.9.5-1.1l2.7-1,2.3,6.5-2.7,1Z"/>
          <path class="cls-6" d="M256.1,78.3l-10.7,3.8c-.8.3-1.3,1.2-1.1,2h0s4.1,11.6,4.1,11.6l.8-.3,4-1.4,7.5-2.6.8-.3,4-1.4-4.6-13-3.8,1.3-1,.3ZM252.5,89.2c-.4.2-.9,0-1.1-.5l-.9-2.5c-.2-.4,0-.9.5-1.1l6.7-2.4,1.5,4.1-6.7,2.4Z"/>
        </g>
        <path class="cls-12" d="M137.7,92.2"/>
        <path class="cls-3" d="M140.2,86c.1-.2.7-.3,1-.3.5,0,1.4.2,1.8.4s.8.5,1,.7.3.4.4.6,0,.4,0,.5c-.2.2-.7.4-1,.3-.4,0-1.2-.4-1.6-.5s-.7-.4-.9-.6-.8-.9-.6-1.2Z"/>
      </g>
    </g>
  </g>
</svg>