<?xml version="1.0" encoding="UTF-8"?>
<svg xmlns="http://www.w3.org/2000/svg" viewBox="0 0 880.19 304.14">
  <defs>
    <style>
      .cls-1 {
        fill: #e46589;
      }

      .cls-1, .cls-2, .cls-3, .cls-4, .cls-5, .cls-6, .cls-7, .cls-8, .cls-9, .cls-10, .cls-11, .cls-12, .cls-13, .cls-14, .cls-15, .cls-16, .cls-17 {
        stroke-width: 0px;
      }

      .cls-2 {
        fill: #ffbbad;
      }

      .cls-3 {
        fill: #ffde77;
      }

      .cls-18 {
        stroke-width: 2.08px;
      }

      .cls-18, .cls-19 {
        stroke: #500b02;
      }

      .cls-18, .cls-20, .cls-21, .cls-22 {
        fill: none;
      }

      .cls-18, .cls-23 {
        stroke-linejoin: round;
      }

      .cls-18, .cls-23, .cls-21 {
        stroke-linecap: round;
      }

      .cls-4 {
        fill: #fa6a4a;
      }

      .cls-5 {
        fill: #eb7967;
      }

      .cls-6 {
        fill: #827c62;
      }

      .cls-7 {
        fill: #47d6ca;
      }

      .cls-19 {
        fill: #500b02;
      }

      .cls-19, .cls-20, .cls-23, .cls-22 {
        stroke-width: 1.39px;
      }

      .cls-19, .cls-20, .cls-21, .cls-22 {
        stroke-miterlimit: 10;
      }

      .cls-8 {
        fill: #ffe600;
      }

      .cls-20 {
        stroke: #ffa4bd;
      }

      .cls-9 {
        fill: #914130;
      }

      .cls-10 {
        fill: #006aba;
      }

      .cls-23 {
        fill: #072d5c;
      }

      .cls-23, .cls-21, .cls-22 {
        stroke: #fff;
      }

      .cls-11 {
        fill: #672a23;
      }

      .cls-21 {
        stroke-width: 10.79px;
      }

      .cls-12 {
        fill: #fb88ca;
      }

      .cls-13 {
        fill: #0098e0;
      }

      .cls-14 {
        fill: #ea8d8d;
      }

      .cls-24 {
        isolation: isolate;
      }

      .cls-25 {
        mix-blend-mode: multiply;
        opacity: .3;
      }

      .cls-15 {
        fill: #fff;
      }

      .cls-16 {
        fill: #0080aa;
      }

      .cls-17 {
        fill: #d77367;
      }
    </style>
  </defs>
  <g class="cls-24">
    <g id="_레이어_2" data-name="레이어 2">
      <g id="_레이어_1-2" data-name="레이어 1">
        <path class="cls-13" d="M176.46,264.47c1.54-4.25,1.89-8.47.58-12.48-3.96-12.08-21.77-24.12-30.3-33.38-10.45-11.36-20.77-22.85-32.06-33.4-13.57-12.68-27.78-25.82-38.2-41.11-6.86-10.07-18.4-30.03-33.43-24.03-8.35,3.33-15.05,11.73-22.6,16.38-11.34,7-26.12,24.13-18.23,38.01,5.29,9.3,14.73,13.56,22.16,20.53,17.26,16.22,31.54,35.28,48.3,52.02,9.29,9.27,17.88,19.21,25.92,29.59,6.98,9.02,13.51,25.39,26.18,26.93,1.14.6,2.53.8,4.1.4,13.54-3.43,41.07-21.63,47.55-39.47h.03Z"/>
        <path class="cls-12" d="M208.34,251.66c1.54-4.25,1.89-8.47.58-12.48-3.96-12.08-21.77-24.12-30.29-33.38-10.45-11.36-20.77-22.85-32.06-33.4-13.56-12.68-27.78-25.82-38.19-41.11-6.86-10.06-18.4-30.03-33.43-24.03-8.34,3.33-15.05,11.73-22.6,16.38-11.33,6.98-26.1,24.13-18.22,38,5.29,9.3,14.73,13.56,22.16,20.53,17.26,16.22,31.54,35.28,48.3,52.02,9.29,9.27,17.88,19.22,25.92,29.59,6.98,9.01,13.51,25.39,26.18,26.93,1.14.6,2.53.8,4.1.4,13.54-3.43,41.07-21.63,47.55-39.47h0v.02Z"/>
        <path class="cls-15" d="M58.71,157.65c10.43-8.34,19.55-18.38,31.42-24.78,3.93-2.12.43-8.11-3.5-6-12.39,6.68-21.95,17.16-32.82,25.87-1.47,1.17-1.22,3.69,0,4.92,1.44,1.44,3.44,1.18,4.92,0h-.02Z"/>
        <path class="cls-15" d="M70.75,175.56c11.79,14.02,24.24,27.46,37.04,40.57,10.61,10.84,21.48,21.44,32.02,32.35,5.33,5.51,10.57,11.14,15.56,16.95,1.22,1.42,3.65,1.25,4.91,0,1.42-1.42,1.22-3.49,0-4.92-9.18-10.68-19.12-20.66-29.05-30.63-11.55-11.58-23.12-23.14-34.24-35.13-7.3-7.87-14.44-15.9-21.34-24.12-1.21-1.43-3.66-1.25-4.91,0-1.42,1.42-1.21,3.47,0,4.92h0Z"/>
        <path class="cls-15" d="M84.65,164.36c11.79,14.02,24.24,27.46,37.04,40.55,10.61,10.84,21.48,21.44,32.02,32.35,5.33,5.51,10.56,11.13,15.56,16.95,1.22,1.42,3.65,1.25,4.91,0,1.42-1.42,1.22-3.48,0-4.92-9.18-10.68-19.12-20.66-29.05-30.63-11.55-11.58-23.12-23.14-34.24-35.13-7.3-7.87-14.44-15.9-21.34-24.12-1.21-1.43-3.67-1.25-4.92,0-1.42,1.42-1.21,3.47,0,4.91h0l.02.04Z"/>
        <path class="cls-15" d="M97.24,153.97c11.79,14.02,24.24,27.46,37.04,40.56,10.61,10.84,21.48,21.44,32.02,32.36,5.33,5.51,10.57,11.14,15.56,16.95,1.22,1.42,3.65,1.25,4.92,0,1.42-1.42,1.22-3.48,0-4.91-9.18-10.68-19.12-20.66-29.05-30.63-11.55-11.58-23.12-23.14-34.24-35.13-7.3-7.87-14.44-15.9-21.34-24.12-1.21-1.43-3.67-1.25-4.92,0-1.42,1.42-1.21,3.47,0,4.91h0Z"/>
        <path class="cls-17" d="M170.41,262.34c.62,2.15.1,5.43.11,7.15,0,2-.05,4.08-.42,6.05-.32,1.71-1.03,4.01-2.71,2.04-1.11-1.3-1.82-2.87-2.49-4.44-.32-.75-.68-1.55-1.15-2.22-.79-1.11-2.19-4.62-2.05-5.96.26-2.48,5.76-6.04,7.86-4.12.4.36.67.89.85,1.5Z"/>
        <path class="cls-17" d="M122.9,204.05c6.16.67,13.13,9.23,14.99,13.73,1.76,4.29,4.18,8.1,7.14,11.65,3.71,4.46,6.75,9.61,10.04,14.4,4.35,6.33,8.7,12.65,13.06,18.97l-5.54,4.28s-32.03-33.75-40.1-44.15c-3.58-4.62-9.88-13.75-3.57-17.84,1.35-.86,2.68-1.15,3.97-1.01h0v-.03Z"/>
        <path class="cls-14" d="M177.63,254.45c-.54-.68-3.03-5.1-3.03-5.1l4.97-4.98s6.64,5.79,6.85,5.83c0,0,1.62,5.03-8.78,4.25h-.01Z"/>
        <path class="cls-17" d="M177.09,254.55c.92.46,5.93,1.14,7,1.32,1.97.32,4.04.58,6.04.53,1.73-.04,4.12-.39,2.43-2.36-2.35-2.72-8.64-7.29-12.41-7.05-2.04.12-3,.96-3.36,2.92-.17.92-.71,4.17.29,4.67h.01v-.03Z"/>
        <path class="cls-17" d="M126.81,198.69c-.29,6.19,7.62,12.65,11.79,15.18,3.97,2.4,7.62,7.04,10.66,10.5,3.83,4.36,7.65,8.27,11.87,12.26,5.58,5.28,11.15,10.55,16.72,15.84l5.08-4.82s-28.39-36.88-37.42-46.44c-4.01-4.26-12.05-11.9-17.06-6.29-1.07,1.19-1.55,2.46-1.62,3.76h-.02Z"/>
        <path class="cls-7" d="M128.88,189.08c-.18.18-4.44,4.4-7.29,7.6-2.79,2.55-8.6,7.27-8.71,7.39-.9.97,9.47,21.41,11.04,22.91l15.94-9.43c-.46-.61-3.71-4-4.33-4.89,1.4.71,4.62,4.76,5.69,5.22l12.29-14.08c-1.49-1.39-23.8-15.59-24.63-14.72h0Z"/>
        <path class="cls-17" d="M83.76,168.48l-4.11,22.28-10.97-1.19s7.83-21.9,10.33-26.64l4.75,5.55h0Z"/>
        <path class="cls-17" d="M101,171.51s1.48-1.48,5.64-.07c4.15,1.42,8.11,3.9,10.39-8.82.76-4.26,5.8-15.59,1.83-18.76-11.29-8.98-16.26,22.19-17.85,27.63h0v.02Z"/>
        <path class="cls-17" d="M111.96,205.51l-15.01-10.58c-2.8-1.97-5.71-3.03-7.76-5.58-2.99-3.71-2.37-6.6.32-9.98,3.05-3.85,3.91-8.76,8.75-11.14,1.11-.54,2.17-.88,3.22-1.58,3.1-2.11,5.57-4.08,9.37-2.32,3.76,1.75,6.32,5.65,9.15,8.53l10.77,16.85"/>
        <path class="cls-17" d="M92.14,158.78l22.08-5.11-1.68-10.9s-21.52,8.82-26.16,11.51l5.76,4.5h0Z"/>
        <path class="cls-8" d="M92.01,162.98c.8-6.71,5.64-17.63-1.4-23.55-3.3-2.79-7.14-.29-10.61-.93-7.61-1.4-13.19-11.12-22.26-6.15-3.75,2.05-8.57,6.79-7.84,11.59.92,6.1,4.51,4.19,8.66,6.6,4.32,2.5,5.71,8.47,10.15,10.09,4.19,1.54,9.09,2.85,13.2,5.69"/>
        <path class="cls-17" d="M96.88,176.76s-1.42,1.54.19,5.62c1.61,4.08,2.87,8.16-9.72,11.01-4.22.96-13.94,6.26-17.27,2.43-9.47-10.87,21.44-17.23,26.81-19.08h-.01v.02Z"/>
        <path class="cls-15" d="M94.73,179.77c6.22.14,9.7,1.29,12.77,2.15-2.33-3.4-1.47-12.83-1.47-12.83,0,0,12.13,1.43,12.86,2.44l3.76,5.48-21.59,20.35-4.61-2.78c-.5-4.64-2.9-10.21-1.72-14.81h0Z"/>
        <path class="cls-22" d="M96.18,181.31l-4.07-6.29"/>
        <path class="cls-22" d="M108.14,169.91l-9.66-1.88"/>
        <path class="cls-1" d="M105.15,187.46c.46.08.76.51.68.99-.08.46-.51.76-.99.68-.46-.08-.76-.53-.68-.99.08-.46.51-.76.99-.68Z"/>
        <path class="cls-1" d="M102.22,192.35c.46.08.76.51.68.99-.08.46-.53.76-.99.68-.46-.08-.76-.51-.68-.99.08-.46.53-.76.99-.68Z"/>
        <path class="cls-1" d="M98.43,188.06c.46.08.76.51.68.99-.08.46-.53.76-.99.68-.46-.08-.76-.53-.68-.99.08-.46.53-.76.99-.68Z"/>
        <path class="cls-1" d="M102.24,183.63c.46.08.76.51.68.99-.08.46-.53.76-.98.68-.46-.08-.76-.53-.68-.99.08-.46.53-.76.99-.68h0Z"/>
        <path class="cls-1" d="M97.34,182.46c.46.08.76.51.68.98-.08.46-.53.76-.99.68-.46-.08-.76-.53-.68-.99.08-.46.53-.76.99-.68h0Z"/>
        <path class="cls-1" d="M111.86,183.54c.46.08.76.51.68.99-.08.46-.53.76-.98.68-.46-.08-.76-.51-.68-.99.08-.46.53-.76.99-.68h0Z"/>
        <path class="cls-1" d="M107.58,183.68c.46.08.76.53.68.99-.08.46-.53.76-.99.68-.46-.08-.76-.53-.68-.99.08-.46.51-.76.99-.68Z"/>
        <path class="cls-1" d="M109.56,177.73c.46.08.76.53.68.99-.08.46-.51.76-.99.68-.46-.08-.76-.53-.68-.99s.53-.76.99-.68Z"/>
        <path class="cls-1" d="M115.96,178.87c.46.08.76.51.68.98-.08.46-.53.76-.99.68-.46-.08-.76-.51-.68-.99.08-.46.53-.76.99-.68h0Z"/>
        <path class="cls-1" d="M108.57,173.34c.46.08.76.53.68.98-.08.46-.51.76-.98.68-.46-.08-.76-.51-.68-.99.08-.46.53-.76.99-.68h0Z"/>
        <path class="cls-1" d="M113.01,175.63c.46.08.76.53.68.99-.08.46-.53.76-.99.68-.46-.08-.76-.53-.68-.99.08-.46.53-.76.99-.68Z"/>
        <path class="cls-1" d="M118.82,174.91c.46.08.76.53.68.99-.08.46-.53.76-.98.68-.46-.08-.76-.53-.68-.99.08-.46.51-.76.99-.68h0Z"/>
        <path class="cls-1" d="M112.11,170.37c.46.08.76.51.68.99-.08.46-.53.76-.98.68-.46-.08-.76-.53-.68-.99.08-.46.53-.76.99-.68h0Z"/>
        <path class="cls-1" d="M116.78,171.19c.46.08.76.51.68.99-.08.46-.53.76-.99.68-.46-.08-.76-.53-.68-.99.08-.46.53-.76.99-.68Z"/>
        <path class="cls-1" d="M98.56,194.1c.46.08.76.51.68.99-.08.46-.53.76-.99.68-.46-.08-.76-.53-.68-.99.08-.46.51-.76.99-.68Z"/>
        <path class="cls-5" d="M91.1,160.73s-.61-1.97,1.03-2.25c1.64-.29,2.97,1.71.86,4.35"/>
        <path class="cls-18" d="M92.35,159.83l-.04,1.08"/>
        <path class="cls-17" d="M99.07,169.17c1.64,1.67.62,3.33-1.03,4.97l-.38.38c-1.67,1.64-3.35,2.61-4.98.94l-3.96-4.03c-1.64-1.67-1.61-4.33.05-5.96l.38-.38c1.67-1.64,4.33-1.61,5.97.05l3.96,4.03h-.01,0Z"/>
        <path class="cls-6" d="M95.38,165.32s-1.12,4.25-3.03,4.66l6.57-.92-3.54-3.75h0Z"/>
        <path class="cls-17" d="M94.17,162.54c.15.25.29.5.4.75,1.37,3.03-.38,7.35-3.83,7.97-3.42.62-6.57-2.26-8.76-4.5-2.19-2.22-2.15-5.8.07-8l.51-.5c2.22-2.19,4.36-3.64,6.55-1.4,1.5,1.72,3.82,3.62,5.05,5.67h.01Z"/>
        <path class="cls-8" d="M86.37,157.04c-.07-.19,2.03.71,2.29.89,1.12.78,2.58,1.93,3.42,3.03,0,0,.15-.31.19-.35.03,0,.38.15.4.14-.86.33-1.9-3.07-2.21-3.54-4.42-6.93-13.47,1.47-10.19,7.57,1,1.86,2.71,3.82,4.72,4.6.17-.78-.5-.82-.85-1.44-1.17-2.11-.85-3.85.39-5.73.96-1.47,2.48-3.25,1.85-5.14h-.01v-.03Z"/>
        <path class="cls-17" d="M84.26,167.57s-1.96-.64-2.28.98c-.31,1.64,1.67,3,4.32.93"/>
        <path class="cls-18" d="M83.33,168.8l1.08-.03"/>
        <path class="cls-19" d="M85.99,165.32c-.53.11.04.82.3.92.62.24.25-.65-.18-.87l-.12-.04h0Z"/>
        <path class="cls-19" d="M89.52,161.86c-.53.11.04.82.31.92.62.24.25-.65-.18-.87l-.12-.04h-.01Z"/>
        <path class="cls-11" d="M90.15,166.91s.08.1.11.12c-.01-.03-.12-.15-.11-.12Z"/>
        <path class="cls-11" d="M90.01,166.61l.03.04-.08-.12.06.08h-.01Z"/>
        <path class="cls-11" d="M90.08,166.54c-.17-.18,0,.06-.07,0l-.04-.04.12.15s-.07-.15,0-.11h-.01,0Z"/>
        <path class="cls-11" d="M90.48,166.91c-.07-.07-.04-.07-.03,0h.03Z"/>
        <path class="cls-11" d="M90.46,166.83l.04.08s.06.04.08.07c-.01-.04-.06-.08-.12-.15Z"/>
        <path class="cls-11" d="M90.37,166.68v.03s.04.03,0-.03Z"/>
        <path class="cls-11" d="M90.41,166.79l-.04-.07s-.08-.08,0,.03c-.04-.05,0,0,.03.04h.01Z"/>
        <path class="cls-11" d="M90.38,166.76s-.07-.06-.11-.12c0,.04.11.18.11.12Z"/>
        <path class="cls-11" d="M89.92,166.34l-.05-.04.04.07s.06.04,0-.03h.01,0Z"/>
        <path class="cls-11" d="M90.63,166.86s-.1-.1-.14-.15l.03.06s.06.04.11.1h0Z"/>
        <path class="cls-11" d="M90.49,166.7l-.04-.08s0,.04.04.08Z"/>
        <path class="cls-11" d="M90.19,166.47l.1.17-.1-.17Z"/>
        <path class="cls-11" d="M90.7,166.8l.08.1-.11-.15.03.06h0Z"/>
        <path class="cls-11" d="M90.73,166.75c.06.08.12.11.17.17,0-.03-.04-.1-.1-.17.01.04,0,.04-.07,0Z"/>
        <path class="cls-11" d="M90.74,166.65s.04.06.07.1c0-.03-.03-.06-.07-.1Z"/>
        <path class="cls-11" d="M90.49,166.62s.08.08.11.1l-.11-.1Z"/>
        <path class="cls-11" d="M90.31,166.54c-.04-.07-.08-.15-.2-.24.06.08.12.12.2.24Z"/>
        <path class="cls-11" d="M90.35,166.48h-.04s.07.06.1.1l-.06-.1Z"/>
        <path class="cls-11" d="M90.34,166.44v.04h.03s-.03-.04-.03-.04h0Z"/>
        <path class="cls-11" d="M90.62,166.58s-.03-.07-.03-.08h-.06s.08.1.1.08h-.01Z"/>
        <path class="cls-11" d="M90.49,166.48s0,.01.03.06v-.04s-.03-.03-.01-.01h-.02Z"/>
        <path class="cls-11" d="M90.71,166.58s-.06-.03-.07-.04c.04.03.1.07.07.04Z"/>
        <path class="cls-11" d="M90.58,166.61s-.03-.04-.05-.07c0,0,0,.03.03.04l.03.03h-.01Z"/>
        <path class="cls-11" d="M89.99,165.75c.1.1.18.2.06.11.07.08.4.39.6.54-.04-.04-.08-.08-.12-.15-.06-.04-.17-.08-.24-.18-.03-.07.06.01.11.05-.14-.11-.17-.19-.36-.35l.06.07-.1-.1h-.01Z"/>
        <path class="cls-11" d="M90.6,166.41s.07.05.17.12c-.04-.06-.07-.1-.1-.12l-.06.03v-.03h-.01Z"/>
        <path class="cls-11" d="M90.59,166.47c-.1-.11-.12-.17-.25-.28,0,.03.07.1.11.15,0-.06.05.07.14.11v.04s.04.01.07.03c0,0-.03-.03,0-.01l-.04-.04.04.04h.01l-.03-.08s-.03,0-.03.03h-.03,0Z"/>
        <path class="cls-11" d="M89.99,166.12s.06.07.03.06c-.04-.03-.04-.06-.08-.1.03.03.05.1.12.14,0,0,.18.14.19.15-.1-.1-.17-.17-.25-.26h-.01Z"/>
        <path class="cls-11" d="M90.26,166.27l-.03-.07-.1-.08.05.06s.03.06.07.1h.01Z"/>
        <path class="cls-11" d="M90.73,166.45l.12.11-.15-.18.03.07Z"/>
        <path class="cls-11" d="M90.76,166.4l.11.08-.05-.07h-.06Z"/>
        <path class="cls-11" d="M90.55,164.38c.07-.11.18-.28.08-.15l-.08.12s.01,0,0,.03Z"/>
        <path class="cls-11" d="M89.51,164.73l-.03.04s.05-.08.08-.11l-.05.08h0Z"/>
        <path class="cls-11" d="M88.26,165.09l-.08.12s.04-.07.08-.12Z"/>
        <path class="cls-11" d="M91.08,165.72s.1-.06.11-.07c-.1.04-.22.03-.11.07Z"/>
        <path class="cls-11" d="M89.46,163.76s-.04.04-.06.07c.01-.01.04-.04.06-.07Z"/>
        <path class="cls-11" d="M91.21,165.51s-.03,0-.04.01c.03.03.04.07.01.1.07-.03.11-.07.01-.12h.02Z"/>
        <path class="cls-11" d="M90.45,165.94s-.03-.03-.06-.04c.03.03.04.04.06.04Z"/>
        <path class="cls-11" d="M90.96,166.25h-.01s.03.03.01,0Z"/>
        <path class="cls-11" d="M90.98,166.2h-.03.03v-.03.03Z"/>
        <path class="cls-11" d="M89.44,165.38c.08-.08.12-.12.12-.14l.03-.03-.19.19v.03l.29-.32-.25.26h0Z"/>
        <path class="cls-11" d="M88.48,165.09l-.05.12c-.14.18-.11.11-.2.28.24-.4.1,0,.33-.4l-.04.1h-.01c-.1.22.19-.28.18-.19,0,.04-.04.1-.07.14l.08-.08s-.04.08-.04.07h.05c.04-.06.11-.15.14-.2-.03.07-.03.04-.05.1l.08-.08c-.06.11-.12.21-.14.18-.22.42.07-.1-.03.17l-.04.04c-.12.24-.07.17-.12.32.04-.08.18-.39.25-.47,0,.03-.01.06.04-.03-.08.14-.05.11-.04.11l-.11.19s.1-.14.17-.22c0,.03-.08.18-.15.3,0,.04.12-.25.18-.26-.03.08.04.01.12-.08-.03.07-.07.11-.1.17l.1-.14s-.03.06-.04.07c.04-.05.11-.19.17-.24.12-.21-.15.33.01.1-.03.05-.07.11-.11.19.12-.14.1-.1.25-.29l-.06.14c.07-.15.19-.31.3-.43.04-.07.07-.14.08-.17l.1-.08s-.06.1-.11.17l.03-.04c-.03.07-.11.18-.18.28l.07-.12c-.07.11-.15.24-.24.35.01-.01.03-.04.04-.04-.01.03-.04.06-.06.08,0,.01.01-.01.06-.07l-.12.21.06-.08-.06.15c.15-.19.38-.49.47-.56-.11.14-.17.25-.28.43.11-.19-.08.07-.07,0,0,.03-.06.11-.08.14l.14-.15c-.1.15-.07.11-.1.18.18-.29.15-.18.22-.25-.07.1-.14.2-.14.17-.12.22.25-.32.14-.12,0,0,0-.01-.03.03.07-.08.04,0-.03.08,0,0,.04.04.24-.18-.03.03-.24.26-.28.32.21-.25.46-.47.7-.71-.18.18-.56.65-.68.72-.01.04-.03.08.06.03.01-.03.22-.29.25-.31-.17.24-.08.12-.21.33.03-.05.29-.35.29-.33-.04.04-.25.31-.28.33l.28-.28s-.21.26-.26.35c.04-.07.03.03.06,0l.04-.08c0,.07.36-.42.39-.37-.05.05-.3.39-.32.44.12-.15.61-.75.74-.85l-.07.1.11-.08c-.21.22-.62.69-.79.88-.04.08-.08.11-.06.11-.06.08-.11.12-.11.12,0,.03,0,.05-.01.07.14-.18.17-.17.28-.32l-.18.17c.14-.18.43-.51.42-.46-.05.07-.26.32-.32.38.06-.06.11-.11.07-.07l-.08.1s.18-.2.1-.1l.07-.07h-.01c.08-.07.18-.17.28-.25.2-.18.38-.36.46-.42,0,.01-.14.22-.24.3-.14.11-.49.35-.38.28h.03l.03-.04s.03-.01.06-.03c-.12.04.35-.15.39-.11-.06.01-.14.04-.17.06,0,.04-.12.05-.12.07-.03,0-.19-.03-.15-.01-.04,0,.04,0,.06,0-.19-.04,0,0-.07-.01h-.03s.05.03.08.03c.21.07.04,0-.04-.03.29.04.58.14.68.26.04.08-.18-.05-.15-.03-.07.04.43.28.21.25-.18-.07-.32-.18-.44-.24-.06-.05.12.03.12,0h-.08s-.08-.08-.04-.07c-.15-.06-.07.07-.22.01.05.04.1.08.17.12v-.03c.12.07.14.14.21.17.08.08.19.19.1.18l-.18-.12s.11.06.07,0c.07.07-.26-.14-.04.04l.12.07c.07.08.22.25.15.24.17.12-.01-.01.19.11-.25-.18.07-.07-.21-.24.24.15.12.04.35.15-.06-.04-.11-.07-.07-.07-.01,0-.04-.03-.04-.04-.03,0-.07-.03-.1-.04-.12-.11-.1-.14-.15-.19.04,0,.07.06.14.08l-.1-.08c.14.08.25.08.31.18l.03-.04c.08.01.14,0,.1-.06.04,0-.12-.12-.03-.05l-.05-.11h.04c.06-.07-.17-.24.12-.35-.03-.06-.08-.11-.04-.19l.14-.03s.08-.28-.05-.26c.32-.22-.1-.39-.1-.47l-.14.11s-.1-.06-.19-.06l-.11.11c-.11.07,0-.15-.05-.17.04-.04.04-.03.03,0,.17-.32-.25.12-.12-.1-.04.04-.04.01-.01-.01l.04-.07s-.04.06-.04.07c0,0-.03,0-.06.04l.1-.14s-.05.06-.12.17l-.07.07c.15-.22-.07.06.1-.17-.1.11-.1.07-.28.29l.04-.04s.03-.06-.03,0l.14-.17-.19.21c.08-.1.12-.15.25-.28-.18.18-.1.04-.29.21l.1-.1s-.15.12-.1.03c.12-.24-.1-.11-.01-.35-.21.35.07-.17-.1.1.06-.08.07-.14.12-.19-.08.06.04-.15-.12.06.06-.08.08-.11.11-.17,0,.01-.06.07-.03.01s.04-.07.07-.1c-.04,0-.19.24-.35.47.06-.12.04-.11-.07.04.04-.08.08-.17.12-.18,0-.01,0-.15-.11.04.03-.06,0-.03-.03,0-.01-.03,0-.04-.04-.04v.03c-.17.22-.06.04-.1.05v-.03c.07-.19-.06.07.03-.14l-.08.14c-.19.31.07-.21-.01-.1l-.04.08c-.07.1.22-.45.22-.49,0-.03.03-.04.04-.06.07-.19-.11.18-.17.21.05-.1.15-.25.15-.28.04-.08-.24.31-.15.1-.04.08-.08.17-.12.21-.03.01.12-.32-.03-.08l.03-.07s-.11.08-.19.21c.28-.5-.22.19.04-.26h-.06l.03-.04s-.08.06-.15.17c0-.03.04-.07.06-.1.01-.11,0-.1-.17.11l.08-.15c-.06.08.08-.26-.06-.11,0-.01.03-.04.04-.07-.14.15.14-.47-.19.05l-.11.11s-.14.24-.18.33c-.03.03.06-.18.1-.21v.03c.15-.28,0-.12.11-.32-.08-.03-.06-.22-.11-.28l-.12.22v-.03s.08-.18.08-.15c.07-.12-.08.08-.11.14.03-.11.17-.25.15-.26h-.03v.04c-.07.08-.12.18-.14.15.01-.06.07-.14.07-.15,0-.03,0-.01,0,0v-.04l-.11.18c-.07.08-.01-.03-.12.18.17-.31-.04-.17,0-.26-.1.11-.11.1-.12.07-.01.04-.12.24-.14.2.25-.39.07-.2.24-.49-.1.19-.08.01-.22.29,0-.04.1-.15.14-.25-.12.12-.01-.15-.08-.12-.03.06-.07.14-.14.21l.14-.28s-.2.29-.1.1c-.03.04-.07.11-.08.12.08-.31-.31.08-.07-.43-.06.11-.07.11-.08.11,0,.03-.08.12-.14.19l.1-.21c-.14.18-.04,0-.18.17l.03-.03c-.17.19-.32.49-.51.75.2-.22-.19.39.07.07-.03.05-.07.08-.11.15.08-.11.11-.12.1-.07l-.03.03s0,.14.01.25l.08-.14s-.03.07-.04.11c.15-.19-.03-.03.14-.25-.17.29.08.06-.11.39.01,0,.1-.17.11-.15l-.06.08.07-.11s-.07.14-.11.21h-.03c-.06.12.07.01.05.04v-.07c.11-.06.11.1.26-.04l.04-.07c.11-.1-.01.1.05.05,0,0,.08-.07.08-.05-.05.07-.07.17-.14.24.12-.11.08-.1.26-.32l-.05.11c.07-.1.1-.15.14-.17-.07.08-.08.18-.18.29-.11.26.21-.21.01.15.21-.29.07-.19.11-.25.06-.11.15-.22.15-.18,0,.01-.21.4-.18.42h-.01c-.03.1.08-.07.03.06.12-.18,0,.03.15-.21l-.07.04s.24-.32.18-.17c-.03.04-.08.1-.1.14-.03.07.04-.04,0,.04-.14.24-.07.03-.2.2-.05.11.14-.15-.03.1.21-.32,0,.05.18-.18l-.08.14s.07-.08.07-.07l-.12.18c.11-.15-.04.15.03.08-.04-.01.1-.18.14-.29.15-.17-.19.39-.1.35-.01.01.03-.1.07-.15,0,.04-.03.1-.07.18.05,0,.08-.15.15-.22-.1.18.06-.06.11-.11l-.08.14c-.01.11.18-.29.15-.17l-.14.19.04-.04-.1.17c.1-.11.08-.07.07-.01.06-.11.15-.26.18-.25-.04.1-.08.14-.06.12-.06.08-.12.2-.07.06l-.08.14c-.04.11.01.04.03.04v-.04l.15-.18s-.06.1-.08.14c.01,0,.06-.07.08-.08-.07.11-.14.24-.2.28l.11-.11s-.07.15-.1.19c-.03.08.18-.21.15-.1.01-.03.03-.04.04-.06,0,.04-.06.19.07.06l-.11.22s.14-.28.22-.33c.07-.05-.1.18-.12.25.07-.1.22-.3.14-.11-.03.04-.01,0-.03,0v.03l-.06-.03ZM88.78,165.15s-.08.11-.04.03c.1-.17.06-.08.04-.03ZM89.37,165.04s-.03.01,0-.04v.04ZM90.85,166.02s.04.03.06.04c-.03-.03-.03-.04-.01-.04-.04-.01-.07-.03-.04,0h0ZM88.55,163.34v.04s-.03,0,0-.04Z"/>
        <path class="cls-11" d="M89.21,165.19l.04-.08s-.03.05-.04.08Z"/>
        <path class="cls-11" d="M88.28,165.07l-.03.03.03-.03Z"/>
        <path class="cls-11" d="M90.94,166.4v-.06h-.07s.08.06.07.07h0Z"/>
        <path class="cls-11" d="M90.03,165.87v.03l.06.06s-.04-.06-.07-.07h.01v-.02Z"/>
        <path class="cls-11" d="M90.49,166.07c-.11-.08-.08-.04-.07-.01.15.12.11.07.07.01Z"/>
        <path class="cls-11" d="M90.42,166.05s.06.05,0,0h0Z"/>
        <path class="cls-11" d="M90.9,166.12s.15.1.1.08c.14.11-.14-.18-.1-.08Z"/>
        <path class="cls-11" d="M90.12,165.79l.14.1-.1-.08h-.04v-.02Z"/>
        <path class="cls-11" d="M90.28,165.79h-.06s.04.01.04.03c0,0,.05,0,0-.03h.02Z"/>
        <path class="cls-11" d="M90.1,165.73h.04s-.04.01-.04.01h0Z"/>
        <path class="cls-11" d="M90.42,165.58l-.04-.04s-.1-.03-.07,0c.04.01.06.04.11.06h0v-.02Z"/>
        <path class="cls-11" d="M89.96,165.44s.07.03.12.05l-.19-.1.07.04h0Z"/>
        <path class="cls-11" d="M89.94,165.4l-.07-.03s.03,0,.07.03Z"/>
        <path class="cls-11" d="M90.16,165.3l.28-.24-.28.24Z"/>
        <path class="cls-11" d="M89.45,165.8c-.03.08.14-.17.1-.07.06-.07.04-.08.08-.14-.07.05-.04.01-.18.21h0Z"/>
        <path class="cls-11" d="M89.63,165.61l.04-.04-.04.04Z"/>
        <path class="cls-11" d="M87.88,162.7l.03-.07-.06.1.03-.03Z"/>
        <path class="cls-11" d="M87.72,162.9l.12-.18-.12.17s.03-.01,0,.03h0v-.02Z"/>
        <path class="cls-11" d="M88.59,165.55l.03-.04s.03-.06.03-.07l-.06.11h0Z"/>
        <path class="cls-11" d="M88.49,165.3h0l.11-.17-.11.17Z"/>
        <path class="cls-11" d="M88.21,165.44s.03-.03.03,0c-.03.03.1-.21-.03,0Z"/>
        <path class="cls-11" d="M91.33,167.36l-.05-.03.14.07-.08-.04h-.01Z"/>
        <path class="cls-11" d="M91.31,167.38c.22.11-.03-.03.06,0l.05.03-.18-.08s.14.08.08.06h-.01,0Z"/>
        <path class="cls-11" d="M90.88,167.17s-.04-.03-.03-.01c0,0-.06-.04.04.01h-.01Z"/>
        <path class="cls-11" d="M91.03,167.27h-.03s-.03-.04.03,0Z"/>
        <path class="cls-11" d="M90.95,167.2l.07.04s.1.06-.03-.01c.07.04,0,0-.04-.03Z"/>
        <path class="cls-11" d="M90.98,167.23s.07.04.15.08c-.03-.03-.18-.11-.15-.08Z"/>
        <path class="cls-11" d="M91.55,167.51l.07.03-.07-.04s-.07-.01,0,.01Z"/>
        <path class="cls-11" d="M90.78,167.11s.11.08.17.12l-.06-.04s-.05-.04-.12-.08h.01,0Z"/>
        <path class="cls-11" d="M90.95,167.22l.07.06s-.03-.03-.07-.06Z"/>
        <path class="cls-11" d="M91.27,167.41l-.15-.11.15.11Z"/>
        <path class="cls-11" d="M90.77,167.09s-.06-.04-.04-.03c-.03-.03.06.04.1.07l-.06-.04Z"/>
        <path class="cls-11" d="M90.8,167.12s-.07-.06-.1-.08h-.01s.06.04.08.07c.01.02.03.03.04.03h-.01v-.02Z"/>
        <path class="cls-11" d="M90.84,167.16s-.06-.04-.08-.07c.01.01.04.04.08.07Z"/>
        <path class="cls-11" d="M91.01,167.26s-.1-.07-.12-.08l.12.08Z"/>
        <path class="cls-11" d="M91.16,167.36s.14.11.25.17c-.08-.06-.14-.1-.25-.17Z"/>
        <path class="cls-11" d="M91.15,167.37h.03s-.08-.04-.11-.07l.08.07Z"/>
        <path class="cls-11" d="M91.19,167.4l-.04-.03.04.03Z"/>
        <path class="cls-11" d="M90.95,167.25s.06.04.06.05c.03.01.04.03.04.03-.04-.03-.1-.08-.1-.08Z"/>
        <path class="cls-11" d="M90.98,167.31l.03.03-.03-.03Z"/>
        <path class="cls-11" d="M91.06,167.34l-.04-.04h.01s.03.04.03.03h0Z"/>
        <path class="cls-11" d="M90.88,167.2s.04.04.07.06c-.04-.03-.1-.08-.07-.06Z"/>
        <path class="cls-11" d="M90.96,167.25s.04.04.07.05c0,0-.01-.01-.04-.03,0,0-.03-.01-.03-.03h0Z"/>
        <path class="cls-11" d="M91.66,167.98c-.1-.1-.18-.2-.07-.1-.07-.08-.4-.38-.6-.54l.14.14c.05.06.14.11.22.19.04.06-.04-.03-.1-.07.12.11.17.18.35.36l-.06-.07.1.1h.02Z"/>
        <path class="cls-11" d="M91.02,167.34s-.05-.07-.14-.14l.11.11h.04v.03s0,0,0,0Z"/>
        <path class="cls-11" d="M91.02,167.31c.11.1.15.14.28.25,0-.01-.08-.08-.14-.14.01.03-.06-.05-.12-.11l-.03-.03s-.03-.03-.06-.04c0,0,.03.01.01.01l.04.04-.04-.04h-.01l.06.04h.01v.02Z"/>
        <path class="cls-11" d="M91.58,167.66s-.07-.06-.06-.04c.04.03.06.04.1.07-.03-.03-.08-.07-.15-.1h.01s-.21-.11-.22-.12c.11.07.19.12.3.21h.01v-.02Z"/>
        <path class="cls-11" d="M91.33,167.52l.04.06.11.07-.05-.04s-.04-.04-.1-.08h0Z"/>
        <path class="cls-11" d="M90.92,167.27l-.11-.11.17.15-.06-.04h0Z"/>
        <path class="cls-11" d="M90.94,167.29l-.1-.1.06.05.04.04h0Z"/>
        <path class="cls-11" d="M90.65,167.51c-.06-.11-.15-.29-.08-.15l.07.14h.01,0Z"/>
        <path class="cls-11" d="M90.6,168.48v.04s0-.1-.01-.14v.1h.01Z"/>
        <path class="cls-11" d="M90.87,167.41s-.06-.07-.07-.07c.06.07.14.17.07.07Z"/>
        <path class="cls-11" d="M90.8,167.36l.03.03s-.01-.04,0-.04c-.07-.08-.04-.06,0,0h-.03Z"/>
        <path class="cls-11" d="M91.27,167.7s.03.03.04.06c-.03-.03-.04-.04-.04-.06Z"/>
        <path class="cls-11" d="M90.91,167.31l-.03-.03.03.03Z"/>
        <path class="cls-11" d="M90.85,167.27s-.01-.01,0,0h0Z"/>
        <path class="cls-11" d="M91.17,169.11c-.05-.18-.04-.15-.03-.12l-.18-.4.19.53h.02Z"/>
        <path class="cls-11" d="M90.16,169.41l.03.14c0,.22-.03.15,0,.33-.04-.47.08-.06.03-.53l.03.1c.06.24-.03-.32.01-.26.01.03.03.1.03.15v-.12s.03.08.01.08l.03-.04s0-.18-.01-.22c.01.07,0,.06.01.11v-.11c.03.12.03.24.01.22.1.46,0-.12.08.14v.07c.05.26.04.17.1.32-.03-.08-.12-.4-.12-.53,0,.03.03.06.01-.04.03.17.04.12.04.11l.04.22s-.01-.18-.03-.28c.03.01.06.18.1.33.04.03-.07-.26-.06-.32.04.08.04-.01.04-.15.03.07.03.14.04.19l-.03-.18s.01.06.03.08c0-.07-.06-.22-.04-.28-.06-.24.12.33.08.07.01.06.03.12.06.21-.01-.18,0-.14-.06-.38l.06.14c-.06-.15-.1-.35-.12-.51-.03-.07-.06-.14-.06-.18v-.12s.01.11.04.19v-.05c.01.07.05.19.08.32l-.04-.12c.03.12.07.28.11.4v-.06s.01.07.03.08c0,.03,0-.03-.01-.08l.07.24-.03-.1.08.14c-.04-.25-.14-.6-.14-.71.06.17.1.28.17.49-.08-.21,0,.1-.04.07.01.01.04.11.06.15l-.03-.21c.06.17.06.12.08.19-.12-.33-.04-.22-.07-.33.04.11.07.22.04.21.11.24-.11-.39-.01-.19v.04c-.03-.1.03-.03.05.07,0,0,.1-.03-.01-.3,0,.04.12.33.15.39l-.33-.93c.1.24.35.79.38.93.03.03.04.07.03-.03-.01-.03-.15-.33-.15-.36.12.25.07.14.19.35-.03-.04-.18-.42-.17-.4.03.06.15.36.17.4l-.14-.36s.14.31.2.4c-.04-.07.03,0,.01-.04l-.06-.07s-.21-.51-.17-.5c.03.07.21.45.25.49-.08-.18-.39-.87-.46-1.01l.06.1-.04-.12c.14.26.4.85.49,1.08.06.07.07.12.08.1.06.1.07.15.06.15l.08.04c-.11-.21-.07-.22-.17-.39l.07.24c-.11-.21-.28-.6-.24-.57.06.08.19.36.24.43-.03-.07-.04-.15-.01-.1l.04.11s-.12-.28,0-.1c0,0,.17.25.1.12-.15-.22-.56-.93-.65-1.11,0,.01.15.21.22.32.11.18.25.43.35.58-.03-.05-.07-.12-.08-.15.03.04.1.17.1.14-.12-.21.04,0-.1-.18-.03-.07.04.03.06,0-.08-.12-.26-.44-.29-.51.03.06.08.11.1.14.03,0,.11.08.14.07.04.04.08.1.14.18-.01-.04-.07-.1-.05-.11.14.15,0,.04.15.24-.08-.11-.08-.17-.12-.25-.12-.17-.04-.01,0,.06-.17-.24-.33-.5-.4-.62-.03-.07.12.15.1.11.06.01-.29-.42-.15-.26.12.14.24.29.32.39.03.07-.1-.07-.1-.07l.07.06s.05.1.01.06c.11.12.07-.01.19.08-.04-.06-.07-.11-.12-.15v.03c-.1-.11-.11-.17-.17-.21-.06-.08-.17-.21-.1-.17l.15.15s-.1-.08-.06-.04c-.06-.07.22.19.03,0l-.11-.1c-.07-.08-.22-.25-.17-.21-.15-.14.01.01-.17-.15.22.21-.01,0,.21.24-.21-.19-.08-.08-.26-.25.04.06.1.1.07.07,0,.01.03.04.04.04.03.03.04.06.07.08.11.12.1.12.14.2-.03-.03-.06-.06-.1-.11l.07.1c-.1-.11-.18-.2-.22-.26,0,0-.08-.08-.04-.03-.03-.03.1.14.03.04l.06.08-.03-.03s.12.22-.06,0c.01.04.04.08,0,.04l-.08-.11s-.08-.1-.01.01c-.21-.3-.07-.06-.11-.1l.08.15s0,.04.03.11l.08.14c.06.11-.08-.08-.08-.07-.03-.06-.01-.04,0,0-.18-.3.08.25-.05.03,0,.04.03.05,0,0l-.04-.07s.03.06.04.07c0,0,0,.03.01.05l-.07-.15s.03.08.08.19c0,.03.03.06.04.1-.12-.24.03.08-.1-.17.06.12.01.11.14.37-.01-.04-.03-.06-.03-.06-.01-.03-.04-.06,0,.03l-.08-.2.1.26c-.06-.11-.1-.18-.15-.33.07.24.03.1.1.33l-.05-.12s.05.18,0,.08c-.11-.24-.08,0-.2-.22.14.38-.07-.17.03.12-.03-.1-.05-.14-.07-.22,0,.1-.07-.14,0,.12-.03-.1-.04-.14-.06-.19,0,.01.01.08,0,.03s-.01-.08-.03-.12c0,.01.07.31.15.57-.04-.12-.04-.1,0,.07-.03-.08-.05-.18-.05-.21,0,0-.07-.11-.01.1-.01,0-.03-.03-.03,0v.03c.07.26.01.06,0,.1v-.03c-.08-.18,0,.1-.07-.11l.04.17c.07.35-.07-.19-.05-.07l.03.1c.01.12-.12-.47-.14-.51v-.07c-.06-.21.04.21.03.26-.03-.11-.05-.29-.07-.32-.01-.1.04.39,0,.17.01.08.04.18.04.25,0,.03-.08-.33-.06-.06v-.07c0,.07-.03.12,0,.28-.07-.57-.03.29-.08-.24l-.03.03v-.06s-.01.1-.01.22v-.11c-.03-.11-.03-.08-.04.18v-.17c0,.1-.05-.26-.07-.07v-.08c-.03.21-.04-.47-.07.15l-.03.15s-.01.28,0,.38c0,.04-.01-.2,0-.22v.03c.01-.32-.03-.12,0-.35-.04,0-.07-.17-.1-.18l-.03.25c0-.08.03-.21.03-.21.01-.14-.03.11-.04.17,0-.11.05-.29.05-.29v.04c-.03.1-.04.21-.05.2,0-.06.03-.15.03-.17,0-.03,0-.01,0,0v-.03l-.04.2c-.03.1,0,0-.06.21.07-.35-.03-.14-.01-.24-.04.14-.06.12-.07.11,0,.04-.07.25-.08.22.15-.44.04-.19.15-.51-.07.21-.04.04-.14.35,0-.04.06-.17.1-.26-.08.17,0-.11-.03-.07-.03.06-.07.14-.11.22l.12-.28s-.17.3-.07.12c-.03.04-.06.11-.07.12.12-.26-.22.15.08-.32-.07.1-.08.1-.08.1-.01.03-.1.11-.15.18l.14-.18c-.15.17-.03,0-.18.15l.03-.03c-.18.18-.38.43-.6.68.21-.21-.24.38.06.07-.04.06-.07.08-.11.14.1-.11.12-.12.1-.06l-.03.03v.25l.08-.14s-.03.07-.04.11c.15-.19-.03-.03.14-.25-.17.29.08.06-.1.39.03.01.08-.17.11-.15l-.04.1.07-.11s-.06.14-.1.22h-.03c-.04.14.07.01.07.04v-.07c.11-.06.12.1.26-.07l.03-.07c.08-.12,0,.1.07.04,0,0,.06-.08.07-.07-.04.08-.03.18-.08.26.1-.12.06-.11.17-.38l-.03.12c.04-.11.06-.17.08-.19-.04.1-.04.19-.1.33-.03.28.14-.26.06.14.1-.35,0-.19.03-.28.01-.11.08-.25.08-.22,0,0-.07.44-.03.46v.03c-.01.1.04-.11.03.03.04-.21.03.01.07-.25l-.04.06s.1-.37.1-.22c0,.06-.03.12-.04.17,0,.08.03-.06.03.03-.04.28-.06.05-.11.25,0,.11.07-.2.01.1.07-.38.03.06.1-.22l-.03.17.03-.1-.04.21c.04-.18.03.17.06.07-.04,0,0-.19,0-.32.07-.21-.01.43.06.36,0,.03-.03-.1,0-.18,0,.04.01.1.01.18.04-.03,0-.17.03-.26,0,.19.03-.08.04-.14v.17c.03.11.03-.35.05-.22l-.03.24.03-.05v.19c.01-.14.01-.1.04-.04,0-.12,0-.3.03-.3,0,.1,0,.15.01.14,0,.11-.01.24-.03.08v.15c0,.11.03.03.03.03v-.04l.04-.24v.17s0-.1.03-.11c0,.14,0,.28-.01.35l.04-.15s.03.17.01.21c.03.08.04-.26.08-.17v-.07s.05.19.08,0l.04.24s-.04-.3,0-.4c.01-.08.03.21.04.28,0-.12,0-.38.04-.18,0,.04-.01,0-.01.03l-.1-.04-.03-.06ZM90.42,169.27s0,.14,0,.04c-.03-.2,0-.1,0-.04ZM90.71,168.79s0,.03-.03-.03c0-.01,0,0,.03.03ZM90.96,167.45l-.04-.06s.03.04.01.03c.03.03.06.06.03.03ZM89.59,167.87v.04-.04Z"/>
        <path class="cls-11" d="M90.74,169.01l-.03-.08s.01.05.03.08Z"/>
        <path class="cls-11" d="M91.56,168.77s-.03-.04-.05-.07c.01.04.04.07.05.07Z"/>
        <path class="cls-11" d="M90.83,167.2l.03.03s.03.01.04.04l-.07-.07Z"/>
        <path class="cls-11" d="M91.62,167.87h0l-.06-.07s.04.06.07.07h-.01Z"/>
        <path class="cls-11" d="M91.21,167.59c.1.1.07.06.06.04-.14-.14-.1-.08-.06-.04Z"/>
        <path class="cls-11" d="M90.92,167.37s-.11-.14-.08-.1c-.11-.14.12.17.08.1Z"/>
        <path class="cls-11" d="M91.55,167.92l-.12-.12.1.11h.03-.01Z"/>
        <path class="cls-11" d="M91.41,167.87l.04.03s-.03-.04-.04-.04c0,0-.04-.01,0,.01Z"/>
        <path class="cls-11" d="M91.56,167.98l-.03-.03h-.01l.04.03Z"/>
        <path class="cls-11" d="M91.28,167.94v.06s.08.07.07.05c-.03-.04-.03-.05-.07-.1h0Z"/>
        <path class="cls-11" d="M91.6,168.29s-.06-.05-.08-.1l.14.17-.04-.07h-.02Z"/>
        <path class="cls-11" d="M91.6,168.36s.08.15.1.12c-.03-.06-.06-.1-.1-.12Z"/>
        <path class="cls-11" d="M91.23,168.27l-.17-.31.17.31Z"/>
        <path class="cls-11" d="M91.41,169.13s-.08-.19-.03-.11c-.03-.08-.06-.07-.08-.14.03.08,0,.04.1.25h.01,0Z"/>
        <path class="cls-11" d="M91.31,168.88s0-.03-.01-.05c0,.03,0,.04.01.05Z"/>
        <path class="cls-11" d="M89.41,167.59l.06-.06-.08.08.03-.03h-.01Z"/>
        <path class="cls-11" d="M89.23,167.77l.15-.17-.14.14s.03-.01,0,.01h-.01v.02Z"/>
        <path class="cls-11" d="M90.56,169.7v-.05s-.03-.06-.04-.07l.04.12Z"/>
        <path class="cls-11" d="M90.31,169.58l-.03-.21.03.21Z"/>
        <path class="cls-11" d="M90.15,169.85s.01-.04.03-.03c-.01.04-.04-.22-.03.03Z"/>
        <path class="cls-20" d="M104.43,155.28l5.07-3.15"/>
        <path class="cls-20" d="M81.66,181.88l-2.85,5.8"/>
        <path class="cls-23" d="M93.89,162.32c.04-.15.07-.4.04-.57-.12-.76-1.89-2.78-1.89-2.78l-2.12,1.93s-.88.76-1.25,1.18c-.6.68.38,1.42.89,1.83.92.76,1.82,1.12,2.83.17.57-.55,1.5-1.33,1.5-1.76h0Z"/>
        <path class="cls-23" d="M86.58,169.26c-.15.04-.4.04-.57,0-.76-.15-2.68-2.03-2.68-2.03l2.04-2.03s.8-.83,1.25-1.18c.71-.55,1.39.44,1.79.97.72.94,1.03,1.87,0,2.83-.58.54-1.42,1.42-1.85,1.42h.01v.02Z"/>
        <g>
          <path class="cls-8" d="M114.53,211.9c-3.61-1.4-2.68,5.87,1.14,1.71-.11,5.51,6.32,2.75,2.1-.64,4.67,4.28,5.01-4.78-.72-1.82,6.33-2.26-5.19-10.14-2.31-.86-.47-1.93-2-2.03-3.37-.78.44,1.9,1.97,3.44,3.96,2.4"/>
          <path class="cls-8" d="M120.26,195.17c-.22-3.87-6.46,0-1.07,1.74-5.05,2.19.14,6.89,1.46,1.64-1.94,6.02,6.43,2.57,1.36-1.42,4.69,4.82,7.05-8.94-.18-2.44,1.55-1.24,1.01-2.65-.71-3.39-1.54,1.19-2.3,3.24-.53,4.6"/>
          <path class="cls-8" d="M132.14,205.87c-.22-3.87-6.46,0-1.07,1.74-5.05,2.19.14,6.89,1.46,1.64-1.94,6.03,6.43,2.57,1.36-1.42,4.69,4.82,7.05-8.94-.18-2.44,1.55-1.24,1.01-2.65-.71-3.39-1.54,1.19-2.3,3.24-.53,4.6"/>
          <path class="cls-8" d="M135.12,190.58c-.22-3.87-6.46,0-1.07,1.74-5.05,2.19.14,6.89,1.46,1.64-1.94,6.02,6.43,2.57,1.36-1.42,4.69,4.82,7.05-8.94-.18-2.44,1.55-1.24,1.01-2.65-.71-3.39-1.54,1.19-2.3,3.24-.54,4.6"/>
          <path class="cls-8" d="M146.61,207.12c-.22-3.87-6.46,0-1.07,1.73-5.05,2.19.14,6.89,1.46,1.64-1.94,6.03,6.43,2.57,1.36-1.42,4.69,4.82,7.05-8.94-.18-2.44,1.55-1.24,1.01-2.65-.71-3.39-1.54,1.19-2.3,3.23-.54,4.6"/>
          <path class="cls-8" d="M129.34,220.8c-.22-3.87-6.46,0-1.07,1.74-5.05,2.19.14,6.89,1.46,1.64-1.94,6.03,6.43,2.57,1.36-1.42,4.69,4.82,7.05-8.94-.18-2.44,1.55-1.24,1.01-2.65-.71-3.39-1.54,1.19-2.3,3.23-.53,4.6"/>
        </g>
        <path class="cls-13" d="M854.12,199.55c-1.96-29.6-25.25-52.89-54.85-57.53,1.58-.89,2.83-1.55,2.83-1.57-2.48-13.27-10.9-7.03-16.22.78-.8.02-1.6.06-2.4.11-36.73,2.52-64.64,32.72-62.34,67.43s33.93,60.76,70.67,58.22c13.78-.95,26.31-5.8,36.49-13.33,7.02,1.77,13.16.5,9.71-8.8,11.02-12.14,17.26-28.17,16.11-45.32v.02h0ZM818.77,202.01c.58,8.78-2.98,16.93-9.06,22.78-1.19-1.36-2.33-2.74-3.36-4.23.1-.15.21-.28.3-.43,2.97-4.9.88-7.12-2.35-10.98.17-.28.34-.56.51-.86,4.17-7.94,1.13-17.77-6.83-21.94-1.06-.56-2.16-.97-3.26-1.27.13-2.48.22-4.9-.54-6.73-.6-1.47-1.4-2.59-2.33-3.45,14.45,1.68,26.01,12.83,26.96,27.11h-.04ZM756.54,206.32c-.86-12.96,7.29-24.59,19.37-29.36v2.22c-1.36,2.05-2.29,4.49-2.44,7.14-.17,2.93.3,6.41,1.25,10.14-1.87,6.86.97,14.28,7.19,18.1,3.38,6.32,7.31,11.89,10.91,15.08.76-.62,1.71-1.25,2.74-1.86.84,1.21,1.75,2.35,2.68,3.43l-8.37,2.33s-.2,0-.28.02c-17.2,1.19-31.99-11.02-33.07-27.27l.02.02h0Z"/>
        <path class="cls-8" d="M817.74,251.42c36.71-2.55,64.62-32.74,62.31-67.45-2.31-34.71-33.93-60.76-70.66-58.22-36.71,2.54-64.63,32.74-62.32,67.45s33.93,60.76,70.67,58.22ZM815.51,218.01c-17.19,1.19-31.99-11.02-33.06-27.27-1.08-16.24,11.97-30.37,29.16-31.58,17.19-1.19,31.99,11,33.07,27.24s-11.97,30.37-29.17,31.58v.02h0Z"/>
        <path class="cls-21" d="M843.32,210.29c-4.29,9.77-27.96,25.91-48.86,13.65"/>
        <path class="cls-21" d="M852.72,189.84c-1.14,4.53-.99,6.1-2.31,10.51"/>
        <path class="cls-21" d="M814.76,135.33c.45-2.2-5.82-2.29-8.13-2.03-8.18.93-17.02,4.81-23,9.77"/>
        <path class="cls-2" d="M827.98,196.83c3.47,9.79,10.85,15.27,17.37,22.78,2.46,2.83,4.14,7.33,7.61,8.93,1.27.58,10.57-.32,10.57-.3,7.44,17.62-16.63,9.17-22.74,3.02-8.71-8.74-18.93-14.28-23.94-28.04"/>
        <path class="cls-2" d="M815.71,170.69c-2.53-10.07.6-18.72,1.9-28.58.49-3.73-.61-8.39,1.42-11.65.73-1.21,8.99-5.57,8.97-5.59-3.51-18.79-18.91,1.55-20.62,10.03-2.44,12.08-7.89,22.37-4.49,36.6"/>
        <path class="cls-4" d="M827.25,189.78c4.59,6.64,9.12,8.48,5.3,14.78-2.39,3.95-10.2,6.49-13.8,9.51-9.02-7.96-20.06-30.69-19.35-43.29.67-11.8,16.09-19.02,20.66-8,1.49,3.6-.28,9.49.8,13.61,1.64,6.21,6.47,11.2,6.28,17.8"/>
        <path class="cls-9" d="M801.92,177.59c-4.16,7.94-1.12,17.77,6.84,21.94,7.94,4.16,17.78,1.12,21.94-6.84,4.16-7.94,1.12-17.77-6.84-21.94-7.94-4.16-17.77-1.12-21.94,6.84Z"/>
        <path class="cls-13" d="M742.42,31.25c0,17.26-14.45,31.25-32.28,31.25s-32.29-14.01-32.29-31.25,14.46-31.25,32.29-31.25,32.28,13.99,32.28,31.25h0Z"/>
        <g>
          <path class="cls-15" d="M769.32,28.92c5.78,17.52-3.76,36.41-21.29,42.19-17.52,5.78-36.41-3.76-42.17-21.29-5.78-17.52,3.75-36.43,21.27-42.19,17.53-5.78,36.41,3.76,42.19,21.29h0Z"/>
          <path class="cls-12" d="M711.19,60.42s-3.77-19.54,22.45-36.81l7.58,3.67s8.86,26.91-2.7,45.54c0,0-8.68,1.97-17-1.95-3.84-1.81-7.1-6.94-10.33-10.44h0Z"/>
          <path class="cls-10" d="M771.26,43.52s-8.6-16.72-23.1-20.17c0,0,1.07-4.26,0-6.18,0,0,6.2-4.31,10.96-3.61,0,0,6.53,2.34,9.99,9,2.62,5.04,2.43,13.23,2.14,20.95v.02h.01Z"/>
          <path class="cls-3" d="M734.77,17.06s-10.19-5.01-22.76.59c0,0,3.97-8.77,12.41-11.81,3.47-1.25,9.36-1.52,14.01-.9,0,0,2.04,6.34.28,8.77,0,0-2.62-.15-3.94,3.35Z"/>
          <path class="cls-12" d="M748.96,18.45c1.43,4.34-.93,9-5.25,10.43-4.34,1.43-9-.93-10.43-5.27-1.42-4.34.93-9,5.27-10.43,4.32-1.43,9,.93,10.43,5.27h-.02Z"/>
        </g>
        <g class="cls-25">
          <path class="cls-16" d="M715.19,14.24c-9.3,17.31-7.48,39.88,14.11,45.74,21.94,5.93,32.23-4,45.44-18.81,8.99,25.07-21.19,47.63-42.12,49.83-18.98,2-33.26-7.25-43.8-22.54-11.51-16.75-3.92-30.03,5.75-45.95"/>
        </g>
        <path class="cls-15" d="M704.53,44.5c4.99,7.79,10.32,15.55,19.27,18.33,14.49,4.43,30.32-.77,41.77-10.26.56-.56,1.49-.56,2,.06l.97,1.18c.47.46.55,1.22.1,1.72-1.49,1.69-3.02,3.39-4.67,5.03-1.65,1.61-3.47,3.12-5.48,4.22,3.33-3.19,5.52-7.07,8.1-10.86l.1,1.72-1.18-1.1,2,.06c-12.89,14.21-38.3,20.64-53.55,6.58-4.76-4.76-7.47-10.72-9.45-16.69h.02Z"/>
      </g>
    </g>
  </g>
</svg>