<?xml version="1.0" encoding="UTF-8"?>
<svg id="_레이어_2" data-name="레이어 2" xmlns="http://www.w3.org/2000/svg" viewBox="0 0 2104.03 1932.96">
  <defs>
    <style>
      .cls-1 {
        fill: #fff;
        isolation: isolate;
        opacity: .35;
        stroke-width: 0px;
      }
    </style>
  </defs>
  <g id="_레이어_1-2" data-name="레이어 1">
    <path class="cls-1" d="M2097.54,135.07c-11.88-23.81-34.75-41.1-57.32-54.12-21.66-12.51-44.71-21.9-68.53-29.29-40.34-12.53-80.66-4.48-121.15,2.63-44.46,7.8-89.07,6.38-133.71.13-5.48-.77-10.91-1.67-16.34-2.65-.48-.59-1.13-1.13-1.92-1.59-24.75-13.56-51.69-19.48-78.52-14.08-1.14-2.5-3.76-4.35-7.31-3.6-3.86.8-7.62,1.78-11.27,2.88.46-4.17-3.04-8.83-7.9-7.15-41.26,14.26-79.8,46.58-125.47,47.43-19.86.39-24.57-10.47-40.44-16.91-20.71-8.44-50.84-2.65-72.55-.31-62.26,6.72-140.83-2.21-195.02,32.09-21.33,13.51-46.34,26.2-72.45,15.06-23.44-10.01-29.02-37.16-39.03-58.06-5.84-12.17-46.8-74.77-56.16-33.79-5.27,23.04,32.7,55.75,40.98,75.59,1.44,3.45,2.65,7.1,3.68,10.89-11.81-7.52-28.48-9.73-41.03-11.45-6.56-.9-13.04-2.14-19.53-3.4-.52-.26-1.11-.41-1.83-.41h-.28c-7.15-1.42-14.3-2.83-21.56-3.94-1.95-.28-3.94-.54-5.89-.8-.67-.82-1.65-1.42-2.88-1.42h-13.12c-11.45-.64-22.95-.59-34.42-.13-24.24.98-48.55,3.4-72.45,7.54-7,1.21-14.61,2.55-22.28,4.4-13.92-.93-28.09-.23-41.99,1.67-2.73-.1-5.43-.18-8.15-.21-3.5-1.05-7.02-1.93-10.57-2.65-.33-1.57-1.52-2.93-3.6-2.93-7.43,0-14.9.05-22.33.13-4.09-.1-8.21-.1-12.32.03-.82,0-1.67.08-2.49.1-.88-.1-1.78-.18-2.65-.26-.69-.05-1.29.08-1.83.36-5.81.1-11.65.18-17.47.31-12.63-2.47-25.8-2.42-38.57-1.8-4.81.23-9.62.54-14.43.95-9-.28-17.98-.44-26.99-.39-22.8.08-45.92,1.18-68.54,4.81-4.45.08-8.9.13-13.35.18-9.88-6.79-23.21-6.38-34.63-5.51-7.13.54-14.2,1.65-21.28,2.75-17.26-.23-34.53.62-51.64,3.06-1.18.18-2.01,1-2.44,2.03-24.13,2.06-48.11,4.86-72.06,8.44-2.88,0-5.76,0-8.67.1-1.18.03-2.08.46-2.7,1.11-2.65.18-5.3.46-7.92.8-.77-.41-1.49-.54-2.19-.44l-.72-1.08c-1.34-2.03-4.06-2.11-5.76-.98-3.55-.57-7.36-.49-10.83.1-17.57,2.93-34.65,11.71-50.43,20.33-.49-.05-1,0-1.57.23-19.35,7.21-38,16.06-55.78,26.56-5.15,2.68-10.11,5.82-14.82,9.14-6.51,4.27-12.79,8.98-18.24,14.33-11.71,10.22-22.43,21.75-31.28,34.41-.1.13-.18.28-.26.44-1.83,2.26-3.6,4.55-5.35,6.87-1-6.18-11.6-5.43-12.55,1.83-.03.28-.08.57-.1.85-.05,0-.13.05-.18.05-2.7-1.52-6.35-1.29-8.31,2.21-8.03,14.36-17.13,29.24-27.79,41.8-4.96,5.84-10.55,11.84-14.23,18.66-2.01.41-3.89,1.72-4.84,4.12-2.19,5.51-4.12,10.96-5.25,16.81-.49,2.52.54,4.76,2.19,6.25,1.54,5.12,8.08,6.79,11.45,1.78,1.13-1.73,2.34-3.4,3.58-5.05,2.55,1.13,5.84.72,8-2.32,3.94-5.53,8.62-10.55,13.46-15.47,2.16-1.36,4.5-2.44,7.07-3.14,10.42-2.86,16.29,7.49,18.45,15.73,2.08,8,2.39,16.39,4.14,24.5,1.6,7.49,6.38,14.85,11.84,20.1,11.53,11.14,27.91,12.1,42.84,9.01,19.24-3.99,36.38-14.05,47.7,8.52,2.16,6.41,3.73,12.89,4.73,19.07,2.78,30.42-1.52,60.66-11.55,89.69-3.86,6.25-6.77,13.1-8.33,20.51-.05.21-.05.41-.08.64-10.29,23.24-22.64,45.81-26.86,71.03-2.55,15.24-.9,30.5,2.29,45.5,3.06,14.34,6.15,27.51,6.48,41.77-1.41.59-2.65,1.85-2.8,3.53-.59,6.1-1.8,12.02-3.37,17.81-3.5,6.67-6.92,13.38-10.21,20.15-12.81,21.28-26.47,42.16-29.69,67.28-.28,2.16-.44,4.3-.57,6.43-.13.75-.28,1.49-.41,2.21-4.37,9.73-11.6,18.07-19.73,26.25-.85.85-1.13,1.98-1.03,3.09-.75.62-1.49,1.21-2.24,1.8-1.93,1.24-3.81,2.55-5.56,4.01-4.71,3.11-9.67,5.74-14.77,7.69-11.91,4.55-27.66,5.66-38.51,13.31-4.32.95-8.59,2.24-12.71,4.17-1.47.7-2.39,2.93-1.8,4.45,1.13,2.99,1.83,6.02,2.26,9.11-.28.51-.54,1-.82,1.52-1.11,2.14-.23,4.3,1.42,5.3.13,2.73.13,5.48.15,8.26,0,3.27,4.4,5.43,6.71,2.78,8.7-9.91,21.48-20.67,35.43-28.52,5.07-1.88,10.32-3.35,15.64-4.35,4.91-.64,9.98-.93,14.92-1.52,6.61-.08,13.17.67,19.45,2.37,9.47,8.03,15.87,19.92,23.13,30.45,1.44,5.43,2.49,10.96,3.76,16.45-.05,10.58-.62,21.15-2.29,31.71-.23,1.42.23,2.6,1.03,3.45-1.41,15.37-3.45,30.73-5.15,45.94-1.21,10.78-2.83,21.59-7.43,31.53-4.86,10.53-14.1,17.45-23.67,23.42-16.85,10.55-35.79,17.27-52.07,28.8-5.07,3.6-9.72,7.77-13.89,12.38-9.7,6.33-17.75,14.72-27.24,21.31-2.01,1.39-2.19,4.01-1.13,5.74-1.03,1.13-2.08,2.24-3.11,3.37-1.18.28-2.26,1.16-2.8,2.7-.05.15-.1.28-.13.44-.31.33-.62.67-.95.98-1.36,1.39-1.39,3.04-.72,4.35-1.65,5.92-2.62,11.94-2.7,18.09-2.44,10.81-3.27,22.01-1.93,32.89.44,3.5,5.38,5.87,7.33,1.98,2.73-5.43,4.24-11.22,5.74-17.04.8-1.21,1.57-2.45,2.34-3.68,1.77.88,4.42.44,5.58-1.34,11.27-17.32,20.71-35.72,32.26-52.86,1.29.52,2.75.34,3.91-1,14.15-16.65,30.56-29.21,49.27-38.4.18-.08.36-.15.54-.21,4.19-.98,8.34-2.14,12.4-3.55,6.38-1.34,13.04-2.01,20.12-1.88.98,0,1.75-.23,2.34-.67,4.5,1.41,8.98,3.4,13.4,5.92,16.13,9.16,29.38,22.96,43.14,35.21,14.64,13.02,32.44,22.44,46.1,36.47,7.64,7.85,13.35,17.99,19.66,26.95,6.84,9.68,13.04,19.64,18.21,30.32,3.88,8.03,6.35,16.39,6.82,24.73-.46,1.72-.95,3.45-1.39,5.2-9.65,22.06-26.04,42.39-44.2,55.59-.85.62-1.34,1.44-1.6,2.32-2.08,1.39-4.19,2.81-6.28,4.22-41.83,24.66-84.72,50.88-104.2,95.9-2.93,4.04-5.87,8.08-8.85,12.07-6.61,8.9-12.89,16.63-22.2,22.78-3.32,2.19-6.59,2.96-9.57,4.27-4.84-1.7-9.78-3.06-14.77-4.22-9.13-2.99-18.19-6.1-26.94-9.99-5.22-3.94-10.26-8.08-15.18-12.2-1.88-1.57-4.58-1-5.97.49-.02,0-.05-.03-.08-.05-3.91-2.7-7.49,2.99-4.79,6.2,1.13,1.34,2.32,2.57,3.52,3.78-3.01-.31-6.05-.36-9.13,0-2.57.31-4.19,2.55-3.86,4.68-1.7,1.93-1.54,5.25,1.77,6.23.77.23,1.54.49,2.32.72-3.09.64-4.4,5.38-1.16,7.28,13.07,7.7,30.36,12.04,47.7,12.17,3.01.93,5.97,1.93,8.9,3.04.15.1.28.23.44.34.26,1.31,1.13,2.42,2.73,2.73.41.08.8.13,1.21.21,10.86,7.9,22.59,15.52,30.87,25.86.34.88.85,1.49,1.47,1.88,10.65,14.62,8.08,33.12,3.14,49.47-3.27,4.09-6.51,8.18-9.03,12.84-.87,1.6-.93,3.27-.46,4.76,2.11,6.82-18.11,34.28-23.49,41.18-10.91,14-28.51,29.91-47.54,28.98-12.17-.59-23.75-11.53-35.09-4.74-5.38,3.22-15,24.32-13.99,30.45,3.14,19.38,33.91,19.64,49.27,25.87,77.11,31.24,196.81,94.53,153.54,198.05-8.28,19.84-46.26,52.55-40.98,75.59,9.36,41,50.35-21.62,56.16-33.8,10.01-20.89,15.62-48.05,39.03-58.06,26.14-11.17,51.12,1.55,72.45,15.06,54.18,34.31,132.75,25.38,195.01,32.09,21.71,2.34,51.82,8.11,72.55-.31,15.87-6.46,20.56-17.29,40.44-16.91,45.64.88,84.18,33.18,125.47,47.44,4.86,1.67,8.36-2.99,7.9-7.16,3.65,1.11,7.41,2.09,11.27,2.89,3.55.74,6.15-1.11,7.31-3.61,26.83,5.41,53.77-.49,78.52-14.08.82-.43,1.47-1,1.93-1.59,5.43-.98,10.86-1.88,16.34-2.65,44.61-6.23,89.25-7.67,133.71.13,40.49,7.1,80.78,15.16,121.15,2.62,5.71-1.77,11.37-3.68,17.01-5.69-.82.39-1.62.83-2.47,1.19-3.6,1.64-1.39,6.46,1.83,6.74,8.77.75,17.26,2.75,25.57,5.56.18,1.23.93,2.42,2.42,2.98.54.21,1.08.39,1.62.52,5.35,1.72,10.5,3.86,15.49,6.41.69.64,1.36,1.29,2.06,1.9-.64-.33-1.26-.67-1.9-.98-4.17-2.11-7.54,3.66-3.65,6.26,16.83,11.22,33.86,21.59,53.74,25.56,6.02,3.88,12.5,7.1,19.45,9.54.98.34,1.8.29,2.47-.05,33.45,18.87,77.48,23.63,110.27,5.46,1.18-.64,1.73-1.75,1.75-2.88,13.66-8.45,27.32-17.12,40.5-26.46,1.31,1.08,3.31,1.31,4.78-.18,3.24-3.3,6.33-6.72,9.31-10.27,16.88-13.1,32.5-27.64,45.59-44.68.03,0,.05-.05.08-.08.18-.23.39-.49.57-.72.41-.54.59-1.08.64-1.62,1.88,1.18,5.02.18,5.5-2.14,1.88-8.9,2.86-17.88,3.4-26.89,4.81-8.8,8.41-18.27,10.7-28.23,3.4-14.65,3.71-29.39,2.78-44.17,10.11-28.05,20.09-56.13,34.81-82.2.72-1.26.57-2.57-.02-3.6.54-.31,1.08-.62,1.64-.9,1.62-.85,2.03-2.65,1.57-4.17,2.83-2.68,5.46-5.58,7.74-8.78,17.4.93,34.02,6.67,48.06,20.85,11.45,11.56,24.29,21.95,37.08,32.3,3.8,3.78,7.53,7.67,10.98,11.78,1.57,1.91,3.55,4.22,5.38,6.8-.59,1.13-.62,2.49.08,3.76,2.88,5.19,4.24,9.9,3.65,15.87-.39,3.89,5.66,5.41,7.33,1.99.62-1.24,1.08-2.5,1.42-3.74.36.19.74.31,1.13.39,1.36,1.47,3.52,1.98,5.25-.05,2.29-2.7,4.68-5.28,7.15-7.8,1.67-1.11,3.29-2.26,4.84-3.52h.05c1.62.46,3.32.79,5.14.92,4.61.31,4.87-5.79,1.42-7.56.69-.88,1.36-1.83,1.98-2.81.59-.95.69-1.96.44-2.86.05-2.18-1.34-4.45-3.84-4.11-4.11.54-8.18-.6-11.91-2.35-14.38-6.79-26.83-17.52-38.46-28.2-11.24-10.32-22.56-20.59-33.78-30.96-13.61-12.53-28.92-28.54-25.27-48.72,2.47-13.69,10.19-24.58,21.74-32.22,23.49-15.49,52.23-20.26,76-35.21,11.45-7.18,22.59-16.96,27.02-30.16,3.03-9.08,2.72-18.61,3.98-28,2.89-21.49,13.87-40.95,32.03-52.86,12.97-8.49,28.82-15.18,34.99-30.52,7.34-18.27,2.55-39.17,7.44-58.11.82-3.16,1.72-6.1,2.34-8.93,6.1-12.59,10.5-26.64,11.4-40.43,2.03-10.37,3.32-20.87,3.8-31.37,1.7-6.38,2.45-12.94,2.89-19.59,8.92-34.56,16.49-58.5,8.85-94.92-6.92-32.92-20.12-67.12-8.08-100.55,10.11-28,17.21-44.52,18.62-74.74,1.7-36.08.7-72.04,3.81-107.99,2.73-31.55-11.65-62.23-43.25-75.38-.02,0-.07-.03-.1-.03-41.19-11.79-93.54-19.71-125.47-52.37-11.47-11.74-12.84-25.81-14.28-41.05-.85-9.01-9.11-34.87-7.15-41.98.31-1.16.28-2.5-.31-4.01-8.93-23.03-9.54-45.09-.15-67.95,2.98-2.26,6.07-4.4,9.26-6.41,2.31-.15,4.6-1.21,5.92-3.22.12-.18.25-.39.38-.59,4.4-2.52,8.85-4.89,13.33-7.15,15.54-7.88,31.54-14.72,47.31-22.06,35.12-16.29,50.17-36.06,66.79-70.8,9.36-19.56,12.14-44.34,14.28-65.91,5.71-57.91,19.34-83.36,65.91-117.23,9.7-7.05,19.78-13.46,30.18-19.23,15.56-4.38,31.49-7.51,47.52-9.39,35.29-4.2,92.36,5.22,125.67-11.51,8.49-4.27,15.77-10.45,21.59-17.81,15.54-19.71,20.4-47.92,9-70.78l-.18-.02h-.05ZM163.39,947.3c.1-1,.21-1.98.31-2.99.08.57.15,1.11.23,1.7.08.44.18.9.28,1.34-.28-.02-.54-.05-.82-.05h0ZM1234.34,132.81c25.29-8.93,51.02-11.3,75.61-21.77,19.09-8.13,37.03-13.69,58.05-12.82,21.45.88,67.12,13.69,79.9,32.07,12.02,17.27-5.14,38.53-15.51,56.44-10.11,17.45-12.35,29.73-13.35,50.01-1.93,38.4-5.38,81.59-56.24,60.15-25.73-10.84-35.04-23.47-63.29-18.58-23.93,4.14-37.41,1.83-61.41-6.9-38.08-13.82-90.23-36.29-92.16-83.67-1.54-37.91,62.78-45.86,88.4-54.9v-.03h0ZM1557.5,624.12c13.43-2.03,31-10.17,45.93-9.19.36.08.69.15,1.05.18,4.91,2.55,9.39,5.69,12.97,9.93,8.85,10.55,10.44,23.94,10.65,37.29,0,.18-.05.36-.05.54v14.19c0,1.24.31,2.24.79,3.11,2.29,25.43,5.43,61.38-26.62,67.3-8.26,1.52-16.52,1.67-24.68.75-6.38-1.83-12.68-3.96-18.75-6.72-12.35-6.82-24.67-13.67-36.3-21.7-6.54-4.5-13.35-9.52-19.5-15.21-.8-.77-1.6-1.57-2.4-2.37-1.08-1.39-2.16-2.78-3.16-4.17-.36-.49-.75-.9-1.16-1.26-.28-.46-.59-.9-.87-1.36-1.78-3.04-2.01-6.56-3.58-9.5-1.98-3.73-4.04-7.41-6.02-11.17-4.06-7.77-8.31-15.98-9.93-24.71v-.03c-.08-.46-.21-.9-.26-1.36-1.21-7.75.57-14.23,3.6-20.28,2.86-3.01,6.85-5.25,12.28-6.31,21.79-4.25,43.96,5.33,65.99,2.01l.02.03h0ZM1544,584.95s.05,0,.07-.03c6.56-2.34,29.9-11.84,38.88-5.97-12.2,7.28-25.4,7.51-38.95,6ZM1562.06,934.28c-3.37,26.61-9.52,52.84-16.06,78.93-3.93,15.8-9.83,30.76-15,46.15-2.7,8-5.37,16.29-6.97,24.68-.33.85-.69,1.7-1.03,2.55-6.74,17.63-7.97,35.11-8.69,53.84-.96,24.63,1.67,48.33,3.44,72.81,1.62,22.34-1.69,45.09-15.54,63.39-10.65,14.08-25.77,23.5-41.8,30.37-10.78,4.63-21.82,8.52-32.73,12.79-2.44.41-4.63,1.18-6.99,2.34-.6.28-1.03.64-1.37,1.05-1.05.44-2.11.88-3.14,1.34-1.67.72-3.52,1.57-5.53,2.47-33.32,8.24-71.34-9.06-96.63-34.28-8.03-19.17-18.29-37.5-29.41-55.18-5.12-8.13-9.7-16.21-13.56-24.6-3.42-12.82-7.1-25.56-10.93-38.24-2.65-22.52.46-44.32,1.31-66.99.05-1.36.05-2.75.08-4.14,6.95-20.74,13.66-41.64,16.31-63.39,2.88-23.65-.85-47.43.26-71.16.26-5.28.7-10.73,1.54-16.14.15-.88.31-1.72.44-2.6,2.14-11.76,6.35-23.11,14.77-31.71,9.83-10.04,22-17.22,33.78-24.86,2.65-1.67,5.27-3.45,7.84-5.28,2.65-1.85,5.23-3.78,7.75-5.79,6.53-5.15,12.78-10.65,18.73-16.37,12.24-10.81,24.75-21.41,38.82-29.7,2.39-1.42,4.84-2.78,7.31-4.12,1.82-.69,3.5-1.6,5.06-2.65,13.31-6.72,27.38-11.99,42.04-14.82,16.6-3.19,33.58-2.75,49.25,1.47,4.55,1.73,9.15,3.37,13.78,4.89,17.19,7.64,31.86,20.56,41.27,38.99.49.98.95,1.96,1.42,2.93,1.15,9.91,2.59,19.79,4.01,29.67-.67.64-1.13,1.54-1.13,2.75-.05,11.58-.88,23.06-2.19,34.46-.87,1.08-1.21,2.55-.49,4.12l-.02.03h0ZM1525.24,1252.93c.39.33.82.59,1.34.75-.57.41-1.11.93-1.62,1.47.1-.75.18-1.49.25-2.24l.03.03h0ZM1523.52,1115.65c.2-1.57.43-3.12.72-4.66.28-1.62.64-3.19,1-4.79.05,0,.1.05.15.05-.66,3.11-1.31,6.23-1.85,9.37l-.02.03h0ZM1347.39,1354.59c-2.83,5.48-11.55,1.7-15.46-.51-.7-.39-1.37-.8-2.04-1.21-.31-3.11-.72-6.18-1.18-9.27,1.65-3.11,4.71-5.77,8.34-6.82,3.88-1.13,7.15-.05,8.92,3.81,1.6,3.48,3.4,10.27,1.44,14h-.02ZM1032.8,1643.92c-2.75-2.01-5.38-3.99-7.92-5.95-12.97-45.37,72.6-109.35,109.29-110.26,33.08-.8,63.24,17.84,95.37,22.34,27.71,8.96,48.83,28.52,71.75,46.35,3.06,4.53,5.79,9.16,8.1,14.13.13,1.21.23,2.42.28,3.65.1,2.93-.28,5.48-1.08,7.77-5.33,15.08-58.35,30.55-73.35,35.8-16.77,5.87-33.86,11.07-50.99,16.06-26.01-.95-53.46,1.11-73.73-1.29-16.03-1.9-31.95-5.02-47.52-9.42-10.42-5.79-20.48-12.17-30.18-19.23l-.03.03v.02ZM1038.53,1672.26c-2.5-1-5.02-2.03-7.49-3.14.54-.8.93-1.75,1.11-2.78,1.36.54,2.75,1.08,4.14,1.6.36.31.72.62,1.08.93.1,1.18.51,2.37,1.18,3.4h-.03.01ZM990.29,1533.15c-7.85-4.68-17.34-17.4-25.75-27.2-2.13-15.7-5.48-31.68-11.94-45.17-16.62-34.74-31.67-54.51-66.79-70.8-15.8-7.34-31.8-14.18-47.31-22.06-4.48-2.26-8.93-4.63-13.33-7.15-.13-.21-.26-.39-.39-.59-1.34-1.98-3.63-3.06-5.92-3.22-3.19-2.01-6.28-4.14-9.26-6.41-9.39-22.86-8.77-44.91.15-67.95.59-1.49.62-2.86.31-4.02-1.95-7.1,6.3-32.97,7.15-41.98,1.44-15.24,2.8-29.32,14.28-41.05,31.93-32.66,84.26-40.61,125.47-52.37.03,0,.05,0,.1-.05,9.34-3.89,17.16-9.32,23.49-15.83-2.06,11.3-3.42,22.75-3.34,34.67.21,29.78,15.72,50.29,29.46,76.39,1.57,5.79,2.78,11.71,3.34,17.81.15,1.67,1.39,2.93,2.8,3.53-.33,14.26-3.45,27.43-6.48,41.77-3.19,15.01-4.84,30.27-2.29,45.5,4.22,25.22,16.57,47.79,26.86,71.03.03.21.03.41.08.64,1.59,7.41,4.5,14.26,8.33,20.51,9.21,14.98,24.31,74.61,13.1,90.29-12.43,17.37-46.39,13.13-62.18,3.68l.05.03h.01ZM1007.4,1586.47c-.31,8.65-6.02,17.48-13.58,21.8-8.23-10.53-14.05-21.72-18.27-34.85,3.65-1.91,7.77-2.91,12.25-2.6,8.72.59,19.99,5.28,19.6,15.65h0ZM938.48,1464.46c-.41-1.13-.82-2.29-1.21-3.42-.36-2.93-.82-5.84-1.47-8.73,1.13,4.02,1.98,8.08,2.68,12.15h0ZM906.99,1414.76c-.31.21-.59.41-.87.64-.7-.82-1.42-1.62-2.16-2.45,1,.59,2.03,1.18,3.01,1.78l.02.03h0ZM532.14,1041.47c-5.97-5.69-12.22-11.22-18.73-16.37-2.5-2.03-5.09-3.94-7.74-5.79-2.57-1.83-5.2-3.6-7.85-5.28-11.78-7.67-23.95-14.83-33.78-24.86-8.41-8.6-12.61-19.95-14.77-31.71-.15-.88-.28-1.72-.44-2.6-.85-5.4-1.31-10.86-1.54-16.14-1.11-23.7,2.62-47.51-.26-71.16-2.65-21.75-9.36-42.65-16.31-63.39,0-1.39,0-2.78-.08-4.14-.85-22.7-3.96-44.47-1.31-66.99,3.83-12.71,7.51-25.45,10.93-38.24,3.83-8.39,8.44-16.47,13.56-24.6,11.11-17.68,21.38-36.01,29.41-55.18,25.32-25.22,63.32-42.52,96.63-34.28,2.01.9,3.86,1.75,5.53,2.47,1.05.46,2.08.9,3.14,1.34.31.41.77.77,1.36,1.06,2.37,1.13,4.55,1.9,7,2.34,10.91,4.27,21.95,8.16,32.73,12.77,16.03,6.9,31.18,16.29,41.81,30.37,13.84,18.3,17.19,41.05,15.54,63.39-1.77,24.48-4.37,48.18-3.45,72.81.72,18.74,1.95,36.21,8.7,53.84.33.85.7,1.7,1.03,2.55,1.6,8.42,4.27,16.68,6.97,24.68,5.2,15.39,11.06,30.37,15,46.17,6.51,26.1,12.66,52.32,16.05,78.93-.72,1.57-.39,3.06.49,4.12,1.31,11.4,2.14,22.88,2.19,34.46,0,1.21.46,2.11,1.13,2.75-1.42,9.88-2.86,19.77-4.01,29.67-.46.98-.9,1.96-1.42,2.93-9.42,18.45-24.08,31.35-41.27,38.99-4.63,1.52-9.24,3.17-13.79,4.89-15.67,4.25-32.65,4.68-49.24,1.47-14.64-2.81-28.71-8.08-42.04-14.8-1.57-1.05-3.24-1.96-5.07-2.65-2.47-1.34-4.89-2.7-7.31-4.12-14.07-8.29-26.55-18.87-38.82-29.7h.03ZM553.16,1136.36c-.39.33-.8.67-1.18,1.03.05-.39.1-.77.16-1.16.26-.1.54-.18.77-.28.08.13.15.28.26.41h-.01ZM529.16,1148.72c-4.4,4.63-11.42,5.82-17.49,5.02-9.18-1.24-18.73-8.08-17.42-16.32,1.67-.26,3.32-.54,4.97-.85,4.5-.82,8.98-1.72,13.48-2.47,3.81-.62,20.53-4.2,22.66,1.13,1.65,4.12-3.73,10.86-6.23,13.46l.03.02h0ZM477.65,1097.42c-.28,4.25-1.96,8.6-3.91,11.89-3.19,5.4-5.74-1.88-6.71-5.12-.77-2.55-1.13-5.23-1.18-7.93.08-.1.15-.18.23-.28,1.62-2.37,3.32-4.63,5.17-6.8,1.62,1.03,3.14,2.88,4.01,4.04,1,1.34,1.8,2.75,2.42,4.19h-.03,0ZM357.3,201.78c-3.01-2.21-6.28-4.12-9.34-6.3-24.72-17.66-11.68-41.05,6.97-57.19,23.23-20.1,41.73-27.9,71.6-23.52,22.49,3.29,44.3-2.62,66.79-2.42,23.85.21,47.49,4.68,71.26,4.63,10.39,0,20.74-1.26,31-2.96h2.68c1,0,1.8-.36,2.42-.9,8.75-1.57,17.44-3.4,26.11-5.04,31.34-5.95,61.02-5.95,92.18.64,21.89,4.63,44.87,12.07,63.88,24.78,1.13,1.54,2.26,3.09,3.42,4.63.77,1.03,1.98,1.52,3.19,1.6,4.55,4.58,8.95,9.32,13.17,14.08,1.6,2.99,3.32,5.89,5.07,8.83.85,1.39,2.21,1.96,3.52,1.83,8.64,20.26,2.96,43.11-9.65,63.21-.21.31-.33.62-.41.93-9.62,7.9-19.06,15.96-27.73,24.71-32.65,32.94-79.19,20.46-116.98,7.36-20.3-7.03-39.62-10.73-61.05-9.88-16.21.64-32.42,2.78-48.11,6.95-15.38,4.09-29.69,13.26-45.82,14.36-12.86.9-23.31-5.71-34.37-11.25-18.63-9.29-36.82-19.4-55.31-28.95-18.45-9.52-36.43-19.89-54.52-30.14l.03.02h0ZM390.93,242.55c-15.18-6-28.58-15.91-41.58-26.28.28.08.59.1.87.1,5.87,4.86,12.01,9.01,16.36,11.97,7.8,5.28,15.98,9.88,24.31,14.21h.04ZM328.92,142.69c-.85,1.7-1.6,3.47-2.26,5.3-.08-.46-.26-.93-.57-1.42-.75-1.18-1.47-2.42-2.16-3.63,1.23-.49,2.26-1.67,2.55-3.06.72.67,1.47,1.34,2.24,1.98.08.28.15.54.21.82h0ZM990.22,474.59c18.24-3.94,31.72,8.26,36.07,24.84-3.19,8.29-3.73,17.53-2.88,26.97-.15.15-.31.34-.46.49-6.87,6.36-16.16,3.37-23.1-1.18-8.7-5.71-17.78-15.24-28.43-16.76-14.41-12.15,4.27-31.19,18.81-34.33v-.03h-.01ZM986.54,467.41c.49-.82.95-1.7,1.44-2.55,1.05.57,2.16,1.08,3.32,1.57-1.59.23-3.16.54-4.73,1l-.03-.03h0ZM1008.61,573.86c-.18-.13-.36-.26-.54-.39s-.39-.28-.62-.44c-1.49-1.11-3.14-2.55-4.6-4.19-1.26-1.6-1.96-3.29-.93-4.71,2.01-2.78,6.66-3.47,9.73-2.57,6.51,1.9,12.04,6.2,16.93,10.81,7.05,6.67,13.17,14.1,19.6,21.34,6.38,7.13,12.81,14.23,18.81,21.7,4.99,7.49,9.8,15.24,15.1,22.49.33.9.62,1.8.85,2.7-2.03-.1-4.01-.41-5.97-.85-9.06-7.72-18.01-15.57-26.78-23.6-13.43-12.3-27.37-24.73-39.9-38.19.28-1.44-.15-3.04-1.7-4.12l.03.03h0ZM1001.46,555.07c1.05-1.03,2.24-1.62,3.53-1.85.28.1.59.21.87.33-.49.1-.98.23-1.49.39-1.08.33-2.03.72-2.91,1.13h0ZM989.68,528c-.9-.34-1.8-.64-2.7-.95,0-.02,0-.08-.05-.13-.28-.64-.57-1.26-.88-1.88,1.24,1,2.47,1.98,3.65,2.93l-.03.03h.01ZM978.74,564.39c19.47,45.01,62.36,71.24,104.2,95.89,2.08,1.42,4.17,2.83,6.28,4.22.23.88.75,1.72,1.6,2.32,18.14,13.18,34.53,33.51,44.2,55.59.46,1.72.93,3.45,1.39,5.2-.49,8.36-2.93,16.7-6.82,24.73-5.17,10.68-11.37,20.64-18.21,30.32-6.3,8.93-12.02,19.1-19.66,26.95-21.46,22-48.65,36.13-68.92,59.76-11.89,13.85-28.94,24.99-44.69,16.11-.05-.15-.1-.28-.15-.44-12.04-33.43,1.16-67.64,8.08-100.55,7.67-36.44.08-60.35-8.85-94.92-.46-6.64-1.18-13.2-2.88-19.59-.49-10.5-1.78-21-3.78-31.4-.9-13.79-5.27-27.85-11.4-40.43-.62-2.83-1.52-5.76-2.34-8.93-4.45-17.24-.93-36.08-5.76-53.12,10.52-1,23.28,22.06,27.79,28.26l-.05.03h-.03ZM1088.86,633.59c.9.93,1.83,1.88,2.75,2.81-.21,0-.41.05-.62.1-.7-.9-1.39-1.8-2.06-2.73,0-.05-.05-.13-.08-.18h.01ZM1113.48,660.41c1.67,2.08,3.29,4.2,4.84,6.36h-.44c-1.18-1.83-2.44-3.58-3.78-5.25-.21-.36-.41-.75-.62-1.11ZM1147.95,770.23v-.23c.28,0,.57-.05.87-.03,5.53.28,7.82,5.58,5.79,11.09-1.67,4.5-6.48,4.04-10.06,1.67.31-.59.46-1.24.41-1.93,1.16-2.63,2.24-5.28,3.06-8.06.28-.93.21-1.78-.1-2.5l.03-.03v.02ZM1201.54,804.02c11.29,3.32,22.51,6.2,34.11,8.26,6.41,1.13,13.02,1.72,19.37,3.19,14.97,11.84,18.45,31.3,23.85,49.39-.8.85-1.21,2.06-.8,3.53,2.6,9.01,1.49,19.2-.98,28.62-1,2.09-2.16,4.3-3.45,6.54-1,1.52-1.93,3.06-2.8,4.63-4.17,6.46-9.29,12.97-14.9,18.07-10.7,4.25-22.02,5.56-34.99,4.43-.82-.08-1.54.18-2.19.64-5.89-2.21-11.94-5.04-16.16-9.7-5.87-6.46-7.9-15.37-10.7-23.4-2.99-8.54-6.69-17.58-13.84-23.52-6.84-5.69-14.66-9.39-22.74-12.97-15.44-6.79-31.39-16.19-36.89-33.2-.67-3.5-1.23-7-1.54-10.53.51-10.4,7.46-18.61,18.96-21.54,21.92-5.56,44.71,1.44,65.71,7.62l-.03-.05h.01ZM1169.92,772.21c.82.75,1.65,1.49,2.52,2.19-.31-.08-.59-.13-.88-.21-.44-.1-.82-.1-1.21-.08-.13-.64-.26-1.29-.44-1.93v.03h.01ZM1243.86,947.76c-.57-.44-1.18-.82-1.78-1.23,1.39.51,2.73,1.08,3.99,1.7-.18.1-.36.23-.49.36-.52-.41-1.11-.67-1.72-.82h0ZM1244.14,989.95c-1.41,2.47-3.06,4.86-4.94,7.13-2.24.7-4.42,1.47-6.61,2.45-.31.13-.57.31-.77.51h-6.3c-4.3-1.18-8.62-2.39-13.04-2.96-6.23-.8-12.3-1-18.42-1.72-1-3.24-1.8-6.51-2.32-9.73-.05-6.54,1-13.25,2.24-20.05,1.49-3.19,3.65-6.31,6.61-9.27,4.01-3.99,8.75-7.08,13.74-8.06,3.47.52,6.95.88,10.42,1.39.95.49,1.93,1.03,2.88,1.72,7.1,5.2,12.17,13.38,14.61,21.77,1.39,4.73,2.44,11.2,1.9,16.81h0ZM1131.18,975.82c-20.3,3.86-41.04,5.74-60.36,13.61-4.37,1.78-8.31,3.99-12.04,6.46-2.98,1.03-5.87,2.5-8.36,3.63-2.93,1.34-5.82,2.78-8.72,4.22-2.49.31-4.99.57-7.49.77-5.99,0-11.76-1.05-17.11-3.86-.36-.18-.72-.39-1.05-.59-.33-.18-.64-.36-.98-.57-.13-.08-.28-.18-.41-.26-1.85-1.21-3.68-2.65-5.4-4.35-7.59-11.71-10.06-25.14-4.58-39.61,6.2-16.37,17.55-30.14,28.58-43.49,23.72-28.7,54.57-61.12,95.14-44.04,17.19,7.23,33.52,18.56,45.64,32.79,10.27,12.04,20.92,30.47,11.45,46.1-11.01,18.2-34.66,25.45-54.36,29.18h.05,0ZM1143.58,1000.81c-.03.18-.08.39-.08.59-.75-.15-1.49-.33-2.26-.49.77-.03,1.54-.08,2.34-.1ZM1000.07,913.87c-.34-2.21-.62-4.45-.85-6.67.46-3.14.41-6.05-.16-9.24,3.58-6.2,12.61-10.22,14.74-2.08,1.8,6.9-5.48,23.81-13.74,17.99h0ZM1000.17,1013.83c-.39,0-.75,0-1.11.1-.1-1.11-.18-2.24-.28-3.35.44,1.11.9,2.19,1.41,3.27l-.03-.02h.01ZM1006.17,1070.48c-1.54,2.99-3.04,6-4.5,9.03.64-1.85,1.31-3.68,1.98-5.51.26-.54.49-1.08.75-1.62.51-.28,1-.7,1.36-1.29.13-.21.26-.41.39-.62h.03-.01ZM1016.12,885.61c.67.21,1.29.46,1.9.77.05.49.13,1,.18,1.49-.67-.88-1.36-1.62-2.08-2.26h0ZM1066.94,867.54c.98-.88,1.93-1.78,2.85-2.68.18.05.36.08.54.1.1.08.18.18.28.23-1.23.75-2.47,1.52-3.68,2.34h.01ZM1087.54,857.63c.36-.21.7-.39,1.03-.59.72-.21,1.44-.39,2.16-.57.31,0,.62,0,.95-.05,1.59-.28,3.19-.64,4.73-1.03,2.47-.39,4.99-.72,7.51-1.16.44.26.88.51,1.31.72-6.23.05-12.12,1-17.73,2.68h.04ZM998.4,1034.21c-.21-6.25-.36-12.53-.49-18.79.44,6.28.62,12.53.49,18.79ZM789.98,1087.88c-19.09-17.6-30.95-38.68-35.61-64.26-2.85-15.65-3.99-31.81-1.85-47.61,2.65-19.77,8.75-31.76,30.49-28.67,13.04,1.85,30.82,10.09,43.81,8.16,1.16-.18,2.29-.39,3.4-.62h.1c.1,0,.21-.05.33-.08.08,0,.15-.02.23-.05,20.2-3.68,40.7-15.08,55.91-28.64,13.76-12.28,31.33-42.26,53.92-34.15.13.05.23.1.36.13.98.36,1.93.8,2.86,1.41.75.49,1.47.67,2.16.64.36.28.77.54,1.29.69,2.19.75,4.17,1.67,5.99,2.73.44.46.95.8,1.54.98,10.68,7.18,15.44,20,21.64,31.53.39.72.95,1.18,1.57,1.49.33,1.21.64,2.42.98,3.65.75,4.58,1.16,9.19,1.34,13.61.59,16.16-1.85,32.27-1.7,48.44.08,8.65,1.65,16.76,3.6,24.89.41,3.71.95,7.39,1.7,11.04.23,1.11.88,1.85,1.7,2.32.08.28.13.59.21.88.93,7.08,1.67,14.15,2.26,21.29-.15,3.96-.23,8-.44,12.02-2.42,8.23-2.39,17.01-5.38,25.25-.49,1.36-1.08,2.73-1.7,4.04-4.55,6.33-9.24,12.43-14.85,17.81-8.64,4.3-18.34,7.05-25.98,8.98-4.94,1.26-10.03,2.37-15.18,3.29-1.42.05-2.83.1-4.27.18-1.24-.67-2.75-.88-4.5-.33-.82.26-1.62.46-2.44.67-16.62.8-33.21,1.44-49.68-1.85-27.86-5.61-53.07-20.72-73.78-39.82l-.03-.03h0ZM860.5,1146.48c-.67.28-1.31.59-1.96.9.13-.54.18-1.08.15-1.6.31.08.62.18.93.26.28.15.57.28.87.44h.01ZM828.7,1175.69c-.59.67-1.16,1.34-1.72,2.03.13-.59.26-1.18.39-1.78.44-.08.9-.15,1.34-.26h-.01ZM797.31,1245.36c-.21,13.36-1.78,26.74-10.65,37.29-3.58,4.25-8.03,7.39-12.97,9.93-.36.03-.72.1-1.06.18-14.92.98-32.52-7.15-45.92-9.19-22.02-3.32-44.2,6.25-65.99,2.01-5.43-1.05-9.42-3.27-12.27-6.31-3.04-6.05-4.81-12.53-3.6-20.28.08-.46.18-.9.26-1.36,1.65-8.72,5.87-16.93,9.93-24.71,1.96-3.73,4.01-7.44,6.02-11.17,1.57-2.93,1.8-6.46,3.58-9.5.28-.46.57-.93.88-1.36.41-.36.8-.77,1.16-1.26,1-1.41,2.08-2.8,3.16-4.17.8-.8,1.6-1.57,2.42-2.37,6.15-5.69,12.97-10.71,19.5-15.21,11.63-8.03,23.95-14.88,36.3-21.7,6.07-2.75,12.35-4.89,18.76-6.72,8.13-.95,16.41-.77,24.67.75,32.06,5.92,28.92,41.87,26.63,67.3-.49.85-.8,1.88-.8,3.11v14.18c0,.21.03.36.05.54h-.05v.02ZM752.16,1328.75c-8.98,5.87-32.31-3.63-38.87-5.97,0,0-.05,0-.08-.03,13.56-1.52,26.76-1.29,38.95,6h0ZM700.32,640.9c1.6-2.14,3.24-2.86,4.68-.39,1.57,2.7-.39,5.97-2.7,7.52-1.65,1.11-3.09-1.67-3.88-3.29-.33-.69-.62-1.44-.82-2.19,1-.13,2.01-.64,2.75-1.65h-.03,0ZM698.81,620.29c2.83.95,5.66,1.85,8.54,2.73h-.03c-2.6-.72-5.2-1.47-7.85-1.9-.21-.31-.44-.59-.67-.85v.03h.01ZM697.59,745.99c.62-22.85,4.79-45.89,16.96-65.58,14.43-23.32,38.1-32.48,61.15-44.89,5.69-3.06,10.96-6.61,15.93-10.5,5.35-2.26,9.96-5.69,14.18-9.63,3.99-2.68,7.77-5.58,11.35-8.67,9.8-8.54,17.42-16.16,24.67-27.15,5.82-8.8,13.12-17.09,22.64-21.93,4.89-2.47,10.21-4.01,15.67-4.53,5.22-.49,12.81,2.34,17.42,1.23,1.18.26,2.32.54,3.45.85,16.26,4.61,28.33,19.84,33.78,35.18,1.47,4.12,4.55,15.13,9.52,21.64.36,1.16.77,2.29,1.23,3.4,2.21,11.3,4.89,22.47,7.64,33.64.41,2.73.82,5.48,1.23,8.21,2.57,16.21,7.49,31.79,10.75,47.84.44,2.19.87,4.4,1.26,6.67,1.13,9.65,1.52,19.23,1.03,28.67-.9,4.66-1.83,9.29-2.78,13.92-.15.26-.28.54-.36.85-1.75,5.82-4.45,11.48-6.41,17.32-3.68,7.75-7.92,15.26-11.99,22.73-14.51,13.8-23.23,33.77-32.34,51.29-13.74,26.41-29.41,57.03-56.96,71.32-26.32,13.67-58.92,8.9-83.1-7.39-14.05-9.47-29.69-20.77-40.16-34.38-4.24-7.41-8.18-15.01-12.04-22.67-.08-.13-.15-.23-.23-.36-2.65-5.74-5.22-11.51-7.64-17.35-11.81-28.72-16.7-58.76-15.87-89.74h.02ZM712.18,657.4c.05-.44.1-.9.13-1.34.67.75,1.42,1.44,2.29,2.08-.31,0-.62.08-.93.15-.41-.41-.93-.72-1.49-.88v-.03.02ZM716.81,639.69c1.31.13,2.65-.39,3.47-1.96.95-1.85,2.13-3.45,3.52-4.81,6.9-.13,13.82-.39,19.84,2.78-3.24,2.81-5.94,6.25-8.85,9.47-3.52,2.32-6.95,4.81-10.19,7.59-4.3.82-8.03-2.11-8.39-7.31-.13-1.93.13-3.86.59-5.79v.03h.01ZM855,525.89c.49.82,1.08,1.54,1.8,2.19-.57,0-1.11.05-1.65.21-.05-.8-.08-1.57-.15-2.37v-.03h0ZM860.29,529.85c.28.05.57.15.85.18-.08.41-.1.8-.05,1.21-.13.05-.28.1-.41.18,0-.59-.13-1.11-.39-1.54v-.02h0ZM866.73,508.2c.44-.36.72-.75.95-1.13,1.13-.15,2.16.31,2.78,1.9.03.1.05.18.08.28v.36c0,.82.18,1.49.46,2.03.15,3.45-1.72,6.82-4.58,8.78-1,.69-2.08,1.29-3.24,1.65-.23.08-1.08.03-1.05.15-.51-.36-.75-1.57-.77-2.88-.08-4.25,2.16-8.49,5.38-11.14h-.01ZM865.54,466.64c.36-1.88.72-3.78,1.03-5.69.15.49.28.98.46,1.44-.44,1.42-.93,2.83-1.49,4.25h0ZM878.48,468.21c.08-.23.13-.44.2-.67.49,1.49,1.08,2.93,1.75,4.38-.67-1.24-1.31-2.47-1.93-3.73l-.02.03h0ZM944.04,577c.33-.23.64-.51.9-.88.03.1.08.18.1.28,0,.88,0,1.78.03,2.65-.36-.67-.72-1.36-1.03-2.08v.03ZM965.39,893.64c-.57-.46-1.13-.9-1.72-1.34.36-.59.72-1.24,1.03-1.85.21,1.08.44,2.14.67,3.19h.02,0ZM947.18,879.97c-11.47-4.3-13.51-19.95-12.97-30.4.08-1.6.23-3.14.46-4.66.59-3.99,1.75-7.72,3.58-11.58,3.06-6.43,8.98-11.02,12.71-17.04,6.46,54.28-.82,62.75-3.78,63.65v.03h0ZM750.85,1107.64c6.07,10.78-11.37,16.32-19.06,12.51-3.47-1.73-2.06-8.39,1.13-16.58v-.03c2.91-1.13,5.79-2.37,8.62-3.71,4.17.93,7.28,4.22,9.31,7.82v-.03.02ZM942.11,489.98c-8.95,6.07-18.42,10.17-29.1,9.73-17.39-11.97-27.94-30.99-30.74-51.96-1.26-9.37-.95-18.89-3.99-28-4.4-13.2-15.57-22.98-27.01-30.16-23.77-14.95-52.51-19.71-76-35.21-11.58-7.64-19.27-18.53-21.74-32.22-3.63-20.18,11.68-36.19,25.27-48.72,11.22-10.35,22.54-20.61,33.78-30.96,1.05-.98,2.14-1.93,3.19-2.91,21.28.26,40.37-3.42,59.51,9.19,40.6,26.77,26.06,75.85,49.52,112.24,22.74,35.31,66.81,95.41,17.34,128.94l-.03.05h0ZM840.46,135.59c0-.54-.05-1.05-.08-1.59.23-.16.49-.31.72-.49-.23.69-.44,1.39-.64,2.08h0ZM773.93,112.04c-.67-.31-1.34-.62-2.01-.95.57-.41,1.16-.8,1.75-1.21.28.72.8,1.36,1.44,1.83-.39.1-.8.21-1.18.31v.03h0ZM412.36,101.82c-3.96.46-7.92.98-11.89,1.57-.64-.08-1.26-.16-1.9-.26,4.55-.64,9.13-1.08,13.76-1.31h.03ZM480.79,96.44c-.77.39-1.57.82-2.32,1.26-.57.33-.98.8-1.26,1.31-2.29-.21-4.58-.36-6.89-.46-4.76-.75-9.52-1.47-14.33-2.09,1.8-.26,3.58-.51,5.38-.8,6.48.1,12.97.36,19.42.75v.03ZM378.71,103.65c-.95-.08-1.9-.13-2.86-.18.93-.1,1.85-.23,2.78-.34,0,.18.03.36.08.52ZM323.57,170s0-.03.03-.05c.18,2.8.59,5.53,1.18,8.24-.18,0-.36,0-.54.05-.21-.31-.39-.62-.59-.9-1.03-1.52-2.03-3.06-3.06-4.58,1.05-.82,2.06-1.75,2.98-2.75h0ZM329.72,197.25c3.5,2.6,6.77,5.46,9.83,8.62,1.29,1.57,2.68,3.14,4.19,4.63.93,1.11,1.8,2.27,2.68,3.45-.44-.36-.87-.7-1.29-1.05-5.04-5.05-10.14-10.01-15.41-14.77,0-.28,0-.59.03-.88h-.03ZM480.79,349.87c1.26-14.75,6.79-30.09,16.31-41.62,12.71-15.42,32.03-23.29,50.4-29.65,21.23-7.36,43.5-10.81,65.91-8.6,15.59,1.54,30.69,6.85,44.25,14.72.15.1.31.18.51.28,6.05,3.55,11.78,7.59,17.11,12.05,14.84,12.4,26.91,27.77,40.19,41.77,12.48,13.15,26.37,24.35,42.91,31.94,12.55,5.77,25.6,10.48,38.39,15.7,15.69,6.41,32.83,11.84,46.41,22.29,16.16,12.4,19.06,31.81,15.9,50.86-3.52,21.16-13.04,36.55-22.23,55.28-4.5,9.19-7.26,19.12-10.01,28.95-9.93,35.41-37.2,78.5-79.42,75.38-20.76-1.52-42.71-9.37-61.82-17.22-20.35-8.36-38.72-20.67-59.43-28.18-38.13-13.85-89.79-14.64-114.95-51.22-17.49-25.45-13.66-58.37-19.5-87.17-5.66-27.87-13.4-56.88-10.96-85.6l.03.03h0ZM694.46,654.8c-.1-.75-.18-1.49-.26-2.21.52.54,1.05,1.06,1.62,1.47-.51.15-.95.41-1.34.75h-.03.01ZM694.59,801.48s-.1.05-.15.05c-.36-1.57-.72-3.17-1-4.79-.28-1.54-.51-3.09-.72-4.66.54,3.14,1.18,6.25,1.85,9.37l.03.03h-.01ZM515.14,567.17c-1.75,3.86-5.04,4.94-8.93,3.81-3.63-1.06-6.69-3.68-8.33-6.82.46-3.06.88-6.15,1.21-9.24.67-.44,1.36-.82,2.03-1.21,3.91-2.21,12.63-5.97,15.46-.51,1.93,3.73.13,10.53-1.44,14v-.03h0ZM616.12,1131.99c8.05-2.5,16.31-4.53,24.49-6.43,11.7-2.73,23.59-4.86,35.58-5.84,8.62-.69,18.83-1.36,27.01,2.14.7,2.45,1.31,4.89,1.75,7.36-.36,2.7-.93,5.4-1.8,8.11-.15.44-.31.88-.46,1.31-6.41,6.97-14.1,12.61-21.12,19.35-13.22,4.19-26.34,8.36-40.65,6.2-8.46-1.29-16.31-5.66-22.18-11.81-5.94-6.23-5.97-13.56-2.62-20.43v.05h0ZM673.82,1341.67c22.59-14.23,56.88,3.14,80.86,12.64,2.24.88,4.5,1.88,6.71,3.04,2.16,1.11,8.67,20.62,11.83,24.81,7.46,9.88,17.8,16.88,28.3,23.16,21.04,12.59,46.98,17.99,66.48,33.05,45.95,35.41,11.94,88.53-22.61,116.51-15.98,12.92-32.78,23.91-52.74,29.44-39.98,11.04-85.16-2.16-124.06-11.61-23.36-5.66-46.75-11.09-70.72-13.38-16.08-1.54-32.18.23-48.29-.54-14-.67-30.74-3.4-39.31-15.8-4.32-6.25-6.46-15.75-3.4-22.98,2.99-7.05,10.45-11.14,16.83-14.62,16.75-9.09,33.75-17.14,48.96-28.85,16.52-12.71,29.43-29.31,40.62-46.76,5.53-8.62,10.24-17.73,14.38-27.08,11.29-25.51,20.99-45.19,46.13-61.02h.03ZM884.07,1403.05c1.52.7,3.04,1.41,4.55,2.14-.31.21-.62.44-.9.7-.46-.31-.9-.64-1.39-.93-.62-.39-1.26-.62-1.9-.8,0-.03-.05-.05-.08-.1,0-.05,0-.1-.03-.13-.08-.31-.18-.59-.26-.9v.03h.01ZM1066.24,1342.28c3.45,5.17,6.05,10.78,8.72,16.37,2.14,8.18,5.15,16.14,8.72,23.81,1.29,4.68,2.68,9.32,4.48,13.79,3.37,16.58,7.2,33.12,2.93,49.96-5.12,5.66-12.97,8.83-21.02,7.46-.08-.05-.13-.1-.21-.15-2.86-2.24-5.48-4.94-7.31-6.97-2.52-2.83-4.73-5.84-6.77-8.98,0-.05-.03-.1-.05-.16-.41-1.49-1.18-2.57-2.13-3.29-3.6-6.02-6.77-12.33-10.14-18.51-4.01-9.37-8.31-18.61-12.53-27.9-6.79-14.93-13.71-30.88-15.18-47.41-.1-1.16-.18-2.32-.23-3.47.72-.64,1.21-1.57,1.31-2.83.49-6.98,1.39-16.19,6.43-21.62.39-.41.8-.8,1.21-1.16,5.45-2.26,12.53-2.26,19.22.44,6.84,7.98,13.66,15.98,20.48,23.99.62,1.05,1.26,2.11,1.88,3.14-.54,1.08-.62,2.34.18,3.53v-.03h.01ZM1067.76,1498.66c1.8,1.7,3.89,1.88,5.71,1.16.34.08.64.1.98.13,5.58,4.3,12.38,6.12,18.03,10.22,8.26,5.97.9,11.14-4.91,14.26-.41.21-.82.46-1.23.67-.49.08-1.03.18-1.57.41-6.66,2.65-11.86-.1-15.28-4.79-.03-.1-.05-.18-.08-.28-.46-1.31-.9-2.65-1.34-4.01-.34-1.85-.49-3.81-.54-5.87-.05-1.9-.77-3.32-1.85-4.35.46-.85.77-1.83.8-3.01.03-2.11.15-3.04,1.23-4.56-.05.08-.02.08.03.03h.03-.01ZM1126.67,1490.07c-2.08-.1-4.12-.72-6.05-1.52-1.98-.82-2.52-2.34-1.44-.13-2.06-4.3-6.64-3.86-9.36-1.29-2.62-1.65-4.79-4.25-6.17-6.87-.75-1.41-1.34-2.8-1.67-4.43-.08-.36-.15-2.57-.23-2.21.28-1.34.1-2.09,2.03-2.21,7-.49,14.28,3.6,19.37,8.9,1.62,1.88,3.16,3.81,4.53,5.84.51.8.95,1.65,1,2.55-.1.05-.44,1.05-.7,1.29.23-.21-.93.1-1.31.08h0ZM1284.31,1520.61c-.72.44-1.44.9-2.16,1.31.75-.8,1.47-1.65,2.16-2.47-.05.41-.05.8,0,1.16ZM1299.07,1465.2c-5.69,19.61-10.39,40.79-26.63,54.69-22.95,19.61-55.73,11.48-80.01-1.18-29.35-15.31-54.31-36.19-71.83-63.93-.08-.28-.15-.59-.28-.88-4.12-8.8-7.64-17.86-10.91-27-1.44-5.38-2.6-10.86-3.58-16.42-.03-.54-.05-1.08-.1-1.62-.44-5.38-1.31-10.71-2.65-15.96-2.98-20.72-5.74-41.46-15.1-59.94-.13-.62-.39-1.21-.82-1.8-.08-.1-.15-.18-.26-.28-1.34-2.5-2.78-4.94-4.4-7.31-.54-.8-1.11-1.6-1.7-2.39-4.3-8.93-10.5-17.47-18.63-23.22-.28-.39-.62-.72-1.08-1.03-2.65-1.75-5.12-3.68-7.46-5.76-.54-.77-1.11-1.52-1.65-2.29-.67-.98-1.54-1.49-2.47-1.67-8-8.29-14.2-18.43-19.3-29.24-2.01-5.28-3.91-10.63-5.87-15.93-.18-1.26-.33-2.52-.51-3.78-2.57-15.85-7.74-31.35-15.85-45.01-7.95-28.85-12.68-58.37-8.77-87.94,2.26-6.25,4.86-12.38,7.67-18.38,7.26-15.49,16.39-31.66,27.79-44.5,32.42-36.55,101.85-45.63,142.53-18.27,4.58,3.09,9,6.49,13.15,10.17,6.23,7.64,12.79,15.01,19.35,22.39,1.29,2.01,2.52,4.07,3.65,6.18,10.03,18.56,14.36,40.23,18.6,60.74,4.68,22.6,8.41,45.43,14,67.82,5.53,22.16,13.79,42.67,22.85,63.57,15.38,35.49,30.13,71.11,38.51,108.97,3.96,17.84,7.38,35.98,4.81,54.28-2.29,16.14-8.52,31.37-12.99,46.94h-.05v-.02ZM1296.58,811.46c.05-2.7.41-5.38,1.18-7.93.98-3.24,3.52-10.53,6.71-5.12,1.96,3.29,3.63,7.64,3.91,11.89-.62,1.47-1.41,2.86-2.42,4.19-.85,1.13-2.37,2.99-4.01,4.04-1.85-2.16-3.55-4.43-5.17-6.8-.08-.1-.15-.18-.23-.28h.03,0ZM1342.4,753.99c6.07-.82,13.09.39,17.49,5.02,2.47,2.6,7.85,9.34,6.2,13.46-2.13,5.33-18.83,1.78-22.66,1.13-4.51-.75-9.01-1.65-13.51-2.47-1.65-.31-3.32-.59-4.97-.82-1.31-8.24,8.24-15.08,17.42-16.32h.03,0ZM1382.71,770.33c.39.36.8.69,1.19,1.03-.11.13-.18.28-.26.41-.26-.1-.52-.21-.77-.28-.03-.39-.11-.77-.16-1.16h0ZM1563.68,804.2v-.02c-3.19-8.16-4.61-14.85-1.13-16.58,7.69-3.83,25.13,1.72,19.06,12.51-2.01,3.6-5.15,6.9-9.31,7.82-2.83-1.34-5.72-2.57-8.62-3.71v-.03h0ZM1512.35,749.77c7.05,6.74,14.72,12.38,21.12,19.35.16.44.31.88.47,1.31.87,2.7,1.44,5.4,1.8,8.11-.44,2.5-1.06,4.94-1.75,7.36-8.18,3.47-18.4,2.83-27.02,2.14-11.98-.98-23.87-3.12-35.58-5.84-8.18-1.9-16.44-3.94-24.49-6.43-3.34-6.87-3.34-14.21,2.63-20.44,5.86-6.15,13.71-10.53,22.2-11.81,14.3-2.16,27.42,2.01,40.65,6.2,0,0-.03.05-.03.05ZM1456.93,673.1c-.48,10.84-2.1,21.57-3.7,32.27-7.41,10.73-16.85,20.15-27.61,25.76-9.82,4.84-19.11,6.18-29.66,4.27-10.21-3.63-21.89-3.78-32.54-5.51-1.16-.18-2.16.1-2.96.62-13.07-1.9-25.19,2.29-36.28,10.84-8.31,6.41-15.2,14.7-22.05,22.83-8.49,7.13-17.78,13.2-25.78,20.92-.82.8-1.31,1.75-1.57,2.81-.64.28-1.31.57-1.96.85-1.93.77-3.22,2.24-3.89,3.91-.13.1-.23.18-.33.28-.46-.05-.95,0-1.44.18-16.03,6.1-34.35,2.57-50.04-3.01-15.57-5.56-31.67-13.56-43.63-25.22-13.33-13-16.29-31.6-20.38-48.93-3.76-15.91-9.03-30.88-20.79-42.67-.31-.31-.62-.51-.95-.69-9.42-15.96-22.38-29.57-35.43-42.93-9.31-9.52-18.91-19.05-26.86-29.78-6.92-9.37-11.76-20.28-19.63-28.93-1.75-1.9-3.6-3.73-5.53-5.43.49-.77.59-1.8.1-2.96-.23-.54-.44-1.11-.67-1.65.02-.67,0-1.36-.21-2.14-1.8-6.51-4.07-13.64-5.76-20.92-1.31-11.35-.13-22.8,4.27-34.15,1.54-3.99,3.32-7.85,5.22-11.66,3.78-2.93,8.21-5.04,12.91-6.18,13.3-3.24,26.17.54,39,3.99,24.34,6.56,48.21,9.09,72.68,1.62,32.85-10.04,63.55-29.37,97.74-34.85,52.77-8.47,106.33.18,139.78,46.61,1.69,2.34,3.47,4.66,5.32,6.9.33.41.7.75,1.06,1.05,13.58,30.19,19.16,64.93,27.86,95.92,6.15,21.88,14.71,42.88,13.68,66.04v-.08l.03.02ZM1083.81,473.46c1.13,0,2.21.05,3.27.03,2.03,0,4.07,0,6.07-.05,1.96,1.26,3.99,2.39,6.07,3.47-5.09-1.34-10.26-2.57-15.44-3.45h.03,0ZM1135.81,483.24c.46-.57.87-1.21,1.13-1.96.77.69,1.6,1.36,2.42,2.01-1.18,0-2.37,0-3.55-.05h0ZM1171.57,448.91c.13-.41.31-.77.49-1.16.08-.08.15-.18.23-.28.57-.64,1.16-1.21,1.77-1.8,1.88-.64,3.78-1.31,5.66-1.93,10.21-3.4,20.61-6.25,31.1-8.83,2.26,3.27,3.22,5.64,2.55,8.26-1.08,1.36-2.08,2.81-3.04,4.32-.13.13-.26.23-.39.36-6.59,6.28-15.74,15.6-25.62,21.59-2.8-1.26-5.61-2.21-8.44-2.91-3.17-5.43-6.3-12.1-4.35-17.68l.03.05h.01ZM1238.9,409.07c.51-.28,1.05-.59,1.6-.85,2.96-1,5.89-2.06,8.82-3.19.82-.33,1.54-.75,2.14-1.26,1.13-.36,2.29-.72,3.42-1.05.57,1.13,1.23,2.24,2.03,3.29,1.11,1.49,2.44,2.5,3.86,2.99-1.67.69-3.11,1.54-4.4,2.52-1.93.23-3.83.51-5.76.8-3.68-1.93-7.64-2.91-11.73-3.27l.03.03h-.01ZM1281.3,374.32c-1.57-.44-3.19-.67-4.78-.8,2.49-2.26,4.86-4.63,7.05-7.18.13-.15.26-.31.39-.46.18,1.13.41,2.26.67,3.4-1.18,1.62-2.29,3.29-3.32,5.04h0ZM1283.87,439.08c-2.44.49-4.86,1.03-7.28,1.62.95-.67,1.88-1.34,2.83-2.03.85-.62,1.7-1.29,2.57-1.96.46.9,1.11,1.7,1.9,2.39l-.03-.03h.01ZM1097.29,155.51c.23.54.44,1.05.64,1.59-.41-.28-.82-.57-1.23-.85.18-.26.39-.49.57-.75h.03-.01ZM1065.73,132.55c.18.16.36.28.52.44-1.08,1-2.16,2.03-3.24,3.04-.62-.26-1.21-.51-1.83-.75,1.52-.9,3.04-1.8,4.55-2.73ZM1100.38,219.44c39.77,8.96,64.11,45.04,93.34,70.26,13.2,11.4,27.81,22.16,44.64,27.38,12.66,3.94,33.09,6.28,40.08,19.33,11.24,21-25.44,38.55-39.41,45.71-23.98,12.25-49.32,21.21-74.15,31.53-9.7,2.5-20.56,5.82-29.59,10.76-9.26,3.01-18.55,5.89-27.81,9.16-8.93,3.17-17.37,7.21-25.93,11.2-2.06.95-4.24,2.03-6.48,3.04-1.23-.13-2.49-.28-3.7-.41-.46-.49-1.05-.88-1.7-1.11-11.19-3.76-22.61-2.55-34.19-3.37-8.59-.62-16.47-3.17-23.95-6.82-2.24-2.16-4.58-4.2-7-6.02-4.27-6.23-8.03-12.95-11.89-19.02-10.11-16.01-20.09-32.17-31.26-47.51-2.86-3.94-6.12-8.47-9.75-13.12-1.39-4.4-2.52-8.88-3.24-13.36.51-4.92.8-9.86.98-14.8,7.87-13.3,20.94-22.42,32.18-32.99,12.4-11.63,24.23-23.86,36.82-35.31,22.02-20.05,50.17-41.69,81.97-34.54l.05.03v-.02ZM1025.51,102.46c1.67.67,3.29,1.39,4.81,2.21-1.62-.72-3.24-1.39-4.91-2.03.03-.05.08-.1.1-.18ZM919.31,86.77c-4.17.75-8.39,1.34-12.61,1.9-.08-.39-.18-.75-.36-1.11,4.32-.39,8.64-.64,12.99-.8h-.03.01ZM873.21,109.34c9.36-.85,18.76-3.55,26.27-7.75,13.17-.77,26.32-2.5,39.52-1.98,11.42,2.14,23.39,1.18,35.09,2.11.18,1.26,1.03,2.44,2.68,2.96,13.35,4.2,26.91,4.71,40.8,4.74.93,0,1.67-.26,2.26-.69,5.02,1.85,9.93,3.96,14.64,6.41,1.96,6.36,3.5,12.76,3.73,19.53.05,1.9,1.34,3.22,2.86,3.63-1.11,34-12.94,70.6-32.03,93.32-34.53,41.15-87.09-15.11-120.64-30.24-7.62-3.42-14.82-4.56-21.84-3.99-.28-1.62-1.47-2.96-3.7-2.83-.41.03-.82.1-1.21.15-7.36-6.69-12.68-15.7-15.26-26.43-3.83-16.03-.21-33.38,9.57-46.3,6.1-3.65,11.81-8,17.18-12.66l.08.03h0ZM300.03,113.79c1.26.67,2.47,1.21,3.68,1.67-.13.54-.1,1.08,0,1.62-.26-.02-.54-.02-.82,0-2.62.26-5.2.62-7.8,1,1.7-1.36,3.34-2.78,4.91-4.27l.03-.03h0ZM271.53,141.4c4.53-1.67,8.98-3.45,13.43-5.3,2.29-.46,4.48-.7,6.41-.64.41.05.82.13,1.23.21-8.82,5.38-18.96,9.37-28.63,12.77,2.55-2.34,5.02-4.81,7.56-7v-.03h0ZM267.72,154.99c11.78-4.48,23.46-9.68,33.99-16.7,11.63,4.73,26.58,15.39,15.85,26.97-.87.95-1.85,1.72-2.88,2.45-.9.15-1.75.67-2.34,1.42-10.86,5.56-27.45,2.11-37.41-1.67-4.99-1.9-9.83-4.76-13.64-8.6-.05-.46-.08-.93-.1-1.39,2.19-.82,4.37-1.62,6.53-2.45v-.03h0ZM309.35,178.21c1.05-.28,2.08-.59,3.11-.98.46.51.93,1,1.36,1.49-.44.18-.85.44-1.18.75-1.08-.44-2.19-.85-3.29-1.26h0ZM311.35,186.7c-.21.15-.41.33-.57.51-2.26-1.13-4.53-2.26-6.79-3.37,2.5.88,4.94,1.83,7.36,2.86ZM261.16,121.9c-1.36.98-2.7,2.01-3.99,3.09-.69-.08-1.42,0-2.08.31-1.21.51-2.42,1.05-3.63,1.6,3.19-1.72,6.43-3.37,9.7-4.97,0,0,0-.03,0-.03ZM205.97,174.55c1.16.72,2.67.93,3.99.21.46-.26.93-.52,1.39-.75.2.23.44.44.67.62-3.52.85-7.05,1.72-10.57,2.73,1.52-.93,3.03-1.85,4.53-2.81h0ZM190.41,166.16c-3.11,2.99-6.07,6.13-8.93,9.39-3.55,1.54-7.23,2.81-10.93,3.6,6.1-4.71,12.81-9.21,19.86-13h0ZM171.01,168.61c2.03-1.49,4.14-2.93,6.23-4.38-3.5,2.52-6.97,5.04-10.42,7.64-.05.05-.13.1-.18.13,1.42-1.16,2.85-2.29,4.37-3.4h0ZM159.05,187.52c1.49.15,2.98.18,4.45.15-4.12,2.29-8.28,4.5-12.53,6.54,2.65-2.29,5.32-4.5,8.05-6.69h.03ZM124.32,217.87c.98-1.29,2.01-2.57,3.04-3.83.85,1.03,2.11,1.57,3.65.93.98-.41,1.93-.82,2.91-1.26-3.53,4.63-6.82,9.42-10.42,14-.64-1.65-1.62-3.35-2.96-5.1,1.6-2.03,3.04-3.73,3.78-4.74h0ZM157.04,336.93c-13.48.93-23.69-9.96-27.73-21.88-2.32-6.82-3.06-17.01,2.91-20.59,1.13-.36,2.26-.75,3.4-1.16.54-.08,1.13-.1,1.72-.1,8.46,1.11,17.01,2.01,24.24,5.48,8.28,3.99,14.74,13.41,15.08,22.6.36,10.37-10.88,15.06-19.6,15.65h-.02ZM202.78,313.48c-.18-.23-.33-.46-.51-.67-4.48-6.02-9.62-11.43-15.15-16.47-10.21-9.37-22.85-18.17-36.58-21.23-8.9-1.98-18.5-2.03-26.91-5.84-.51-.23-.98-.46-1.42-.72-.75-1.11-1.41-2.26-2.03-3.42-.1-1.26-.21-2.52-.33-3.78.95-1.96,2.44-3.68,2.44-6,0-1.49-.44-3.01-1.13-4.53.98-4.25,2.37-8.21,3.09-12.1,9.47-8.78,14.02-22.6,24.52-30.24,16.59-12.1,38.13-19.56,57.78-25.07,5.02-1.41,10.26-2.62,15.69-3.63.28,0,.57-.08.87-.15,13.71-2.5,28.43-3.63,42.96-2.86,38.62,2.06,66.4,49.6,100.77,63.62,14.79,6.05,29.05,13.69,44.17,18.89,12.86,4.4,25.98,4.14,38.33,10.09,3.35,1.6,6.71,3.11,10.14,4.56,6.43,3.45,12.27,7.67,18.34,11.89.8,2.29,1.21,4.84,1.11,7.77-.05,1.21-.16,2.44-.26,3.65-2.32,4.97-5.04,9.6-8.1,14.13-22.92,17.86-44.07,37.39-71.75,46.35-32.13,4.53-62.31,23.16-95.37,22.34-27.27-.67-49.94-17.09-69.05-35-10.86-10.19-21.05-21.08-31.59-31.53l-.03-.05h0ZM453.57,388.3c-.69-.85-1.41-1.67-2.16-2.47.72.41,1.44.88,2.16,1.31-.05.36-.08.75,0,1.16ZM289.9,419.21c1.9-.8,3.96-1.42,6.05-1.52.39,0,1.54.28,1.31.08.26.23.59,1.23.69,1.29-.05.88-.49,1.75-1,2.55-1.39,2.03-2.93,3.96-4.53,5.84-5.09,5.3-12.37,9.39-19.37,8.9-1.93-.13-1.75-.88-2.03-2.21.08.36.15-1.85.23-2.21.33-1.62.93-3.01,1.67-4.43,1.39-2.62,3.58-5.2,6.17-6.87,2.73,2.55,7.31,3.01,9.36-1.31-1.08,2.24-.54.72,1.44-.1h.01ZM236.97,409.14c-1.11-1.52-1.21-2.44-1.23-4.55,0-1.18-.33-2.19-.8-3.01,1.08-1,1.8-2.45,1.85-4.35.05-2.06.23-4.02.54-5.87.41-1.36.85-2.7,1.34-4.01.03-.1.05-.18.08-.28,3.42-4.68,8.62-7.44,15.28-4.79.54.21,1.05.33,1.57.41.41.23.82.46,1.23.67,5.84,3.11,13.17,8.29,4.91,14.26-5.66,4.12-12.45,5.92-18.03,10.22-.33,0-.64.05-.98.13-1.83-.72-3.94-.54-5.71,1.16-.05-.05-.08-.05-.03.03h-.03v-.02ZM185.03,567.48c1.47-16.55,8.39-32.48,15.18-47.41,4.22-9.29,8.51-18.56,12.53-27.9,3.4-6.15,6.53-12.48,10.14-18.51.95-.72,1.72-1.83,2.14-3.29,0-.05.03-.1.05-.15,2.03-3.14,4.25-6.15,6.77-8.98,1.83-2.06,4.45-4.74,7.31-6.97.08-.05.13-.1.21-.15,8.03-1.34,15.87,1.8,21.02,7.46,4.27,16.83.44,33.38-2.93,49.96-1.83,4.48-3.22,9.11-4.48,13.79-3.58,7.67-6.59,15.62-8.72,23.81-2.68,5.58-5.3,11.2-8.72,16.37-.8,1.18-.72,2.44-.18,3.53-.64,1.06-1.26,2.08-1.88,3.14-6.82,8-13.61,16.01-20.45,23.99-6.69,2.7-13.79,2.7-19.22.44-.41-.36-.82-.75-1.21-1.16-5.02-5.43-5.94-14.64-6.43-21.62-.08-1.26-.59-2.21-1.31-2.83.05-1.16.13-2.32.23-3.47l-.02-.03-.03-.02ZM177.24,714.51c8.1-13.67,13.28-29.13,15.85-45.01.21-1.26.36-2.52.51-3.78,1.95-5.33,3.86-10.66,5.87-15.93,5.09-10.81,11.29-20.95,19.29-29.24.93-.18,1.8-.69,2.47-1.67.54-.77,1.11-1.52,1.65-2.29,2.34-2.08,4.81-4.01,7.46-5.76.46-.31.8-.64,1.08-1.03,8.13-5.76,14.3-14.31,18.6-23.21.57-.8,1.16-1.6,1.7-2.39,1.62-2.39,3.06-4.84,4.4-7.31.08-.1.15-.21.23-.31.46-.57.72-1.18.82-1.78,9.36-18.48,12.12-39.22,15.1-59.94,1.34-5.22,2.21-10.58,2.65-15.93.05-.54.08-1.08.1-1.62.98-5.53,2.14-11.02,3.58-16.42,3.27-9.14,6.79-18.17,10.91-27,.13-.31.21-.59.28-.88,17.52-27.72,42.48-48.59,71.83-63.93,24.31-12.69,57.06-20.8,80.01-1.18,16.26,13.87,20.94,35.08,26.63,54.69,4.5,15.57,10.73,30.81,12.99,46.92,2.6,18.3-.85,36.44-4.78,54.28-8.39,37.88-23.13,73.5-38.51,108.97-9.06,20.9-17.31,41.44-22.85,63.57-5.58,22.39-9.31,45.22-14,67.82-4.24,20.51-8.57,42.18-18.6,60.74-1.13,2.11-2.37,4.17-3.65,6.18-6.53,7.39-13.12,14.77-19.35,22.39-4.14,3.68-8.57,7.08-13.15,10.17-40.67,27.36-110.11,18.27-142.53-18.27-11.4-12.84-20.53-29.01-27.79-44.5-2.8-6-5.38-12.15-7.67-18.4-3.89-29.57.85-59.09,8.77-87.94l.08.03.02-.04ZM413.1,960.01c.62-.15,1.21-.41,1.72-.82.15.15.33.26.49.36-1.29.62-2.6,1.21-3.99,1.7.59-.41,1.18-.82,1.78-1.24ZM396.87,956.39c-.95.7-1.9,1.26-2.88,1.72-3.45.54-6.95.9-10.42,1.39-4.99-.98-9.75-4.07-13.74-8.06-2.98-2.96-5.12-6.05-6.61-9.27-1.23-6.79-2.29-13.51-2.24-20.05.49-3.24,1.31-6.49,2.32-9.75,6.12-.72,12.22-.9,18.42-1.72,4.4-.57,8.72-1.78,13.04-2.96h6.3c.23.21.49.39.77.51,2.19.95,4.37,1.75,6.61,2.45,1.88,2.26,3.52,4.66,4.94,7.13.54,5.59-.54,12.07-1.9,16.81-2.44,8.39-7.51,16.55-14.61,21.77,0,0,0,.03,0,.03ZM312.84,906.97c-.77-.03-1.54-.05-2.34-.1.75-.15,1.52-.31,2.26-.49,0,.21.03.39.08.59h0ZM175.44,837.28c-.13-.21-.26-.41-.39-.62-.36-.59-.85-1-1.36-1.29-.26-.54-.49-1.08-.75-1.62-.67-1.83-1.34-3.65-1.98-5.51,1.47,3.04,2.96,6.05,4.5,9.03h-.03,0ZM168.33,893.82c.36.08.75.13,1.11.1-.51,1.06-.98,2.16-1.41,3.27.1-1.11.21-2.24.28-3.35l.03-.03h0ZM183.08,1011.88c-2.13,8.16-11.16,4.12-14.74-2.09.59-3.19.64-6.1.15-9.24.21-2.24.51-4.45.85-6.67,8.26-5.82,15.54,11.12,13.74,17.99h0ZM187.3,1021.37c-.59.31-1.24.54-1.9.77.72-.62,1.44-1.39,2.08-2.26-.08.49-.13,1-.18,1.49h0ZM239.6,1042.79c-.18,0-.36.05-.54.1-.95-.9-1.9-1.8-2.86-2.68,1.21.8,2.44,1.6,3.68,2.34-.1.08-.18.15-.28.23h0ZM273.22,1053.54c-2.52-.41-5.04-.77-7.51-1.16-1.57-.36-3.14-.72-4.73-1.03-.33-.05-.64-.08-.95-.05-.72-.18-1.44-.36-2.16-.57-.33-.21-.69-.41-1.03-.59,5.61,1.67,11.5,2.63,17.73,2.68-.44.21-.87.46-1.31.72h-.04ZM202.55,996c-11.04-13.33-22.38-27.13-28.58-43.49-5.48-14.46-3.01-27.87,4.58-39.61,1.72-1.7,3.55-3.14,5.4-4.35.13-.08.28-.18.41-.26.31-.21.64-.39.98-.57.36-.21.69-.39,1.05-.59,5.35-2.81,11.11-3.86,17.11-3.86,2.47.18,4.96.46,7.49.77,2.88,1.44,5.79,2.86,8.72,4.22,2.5,1.16,5.38,2.6,8.36,3.63,3.7,2.47,7.64,4.68,12.04,6.46,19.32,7.85,40.03,9.75,60.36,13.62,19.68,3.73,43.32,10.99,54.36,29.19,9.47,15.62-1.18,34.05-11.45,46.1-12.12,14.23-28.45,25.53-45.64,32.79-40.57,17.09-71.42-15.36-95.14-44.04h-.05ZM305.07,1111.37c-11.5-2.93-18.45-11.14-18.96-21.54.31-3.53.87-7.03,1.54-10.53,5.51-17.04,21.46-26.41,36.89-33.2,8.08-3.55,15.9-7.28,22.74-12.95,7.15-5.95,10.86-14.98,13.84-23.52,2.8-8.03,4.86-16.96,10.7-23.39,4.24-4.66,10.27-7.49,16.16-9.7.62.44,1.36.7,2.19.64,12.97-1.13,24.26.18,34.96,4.43,5.63,5.1,10.75,11.58,14.92,18.07.87,1.6,1.83,3.14,2.8,4.63,1.29,2.24,2.47,4.45,3.47,6.54,2.47,9.42,3.58,19.61.98,28.62-.44,1.49,0,2.68.8,3.53-5.38,18.09-8.88,37.55-23.85,49.39-6.35,1.44-12.97,2.06-19.37,3.19-11.6,2.06-22.82,4.94-34.11,8.26-20.99,6.18-43.79,13.18-65.71,7.62v-.08h0ZM341.68,1133.38c-.87.72-1.7,1.44-2.52,2.19.15-.64.31-1.29.44-1.93.39.02.77,0,1.21-.08.31-.05.59-.13.9-.2l-.03.02ZM317.3,1135.05c-.82-2.78-1.88-5.46-3.06-8.06.05-.69-.13-1.36-.41-1.93,3.55-2.39,8.39-2.83,10.03,1.67,2.03,5.53-.26,10.81-5.79,11.09-.31,0-.59,0-.87-.03v-.23c.31-.72.39-1.57.1-2.5v-.03.02ZM283.34,1246.26c1.36-1.67,2.62-3.42,3.78-5.25h.44c-1.54,2.16-3.16,4.27-4.84,6.33.21-.36.41-.72.62-1.11v.03h0ZM300.65,1235.22c.33-.18.64-.39.95-.7,11.76-11.79,17.03-26.79,20.79-42.67,4.09-17.32,7.05-35.93,20.38-48.92,11.96-11.66,28.07-19.66,43.63-25.22,15.69-5.58,34.01-9.11,50.04-3.01.49.18.98.23,1.44.18.1.1.23.18.36.28.67,1.67,1.95,3.14,3.88,3.91.67.26,1.31.54,1.96.85.26,1.03.75,2.01,1.57,2.78,8,7.72,17.31,13.79,25.78,20.92,6.84,8.13,13.74,16.42,22.05,22.83,11.09,8.55,23.18,12.71,36.28,10.84.8.54,1.8.82,2.96.64,10.65-1.75,22.33-1.88,32.54-5.51,10.55-1.9,19.84-.57,29.66,4.27,10.73,5.61,20.17,15.01,27.61,25.76,1.62,10.73,3.24,21.44,3.7,32.27,1.03,23.14-7.54,44.14-13.69,66.04-8.7,30.96-14.28,65.73-27.86,95.92-.36.28-.72.64-1.05,1.03-1.88,2.24-3.65,4.56-5.33,6.9-33.44,46.43-87.01,55.05-139.78,46.61-34.22-5.48-64.88-24.84-97.74-34.85-24.47-7.46-48.34-4.92-72.68,1.62-12.84,3.45-25.73,7.21-39,3.99-4.71-1.13-9.16-3.27-12.92-6.2-1.93-3.81-3.7-7.67-5.22-11.66-4.37-11.35-5.56-22.8-4.27-34.15,1.7-7.28,3.96-14.41,5.76-20.92.21-.77.26-1.47.23-2.14.23-.54.44-1.11.64-1.65.49-1.18.39-2.19-.1-2.99,1.93-1.7,3.76-3.53,5.53-5.43,7.9-8.65,12.71-19.56,19.63-28.93,7.95-10.73,17.55-20.23,26.86-29.78,13.04-13.36,25.98-26.97,35.43-42.93h-.03v.02ZM450.54,1533.48c1.03,1.75,2.13,3.42,3.29,5.04-.23,1.13-.46,2.27-.64,3.4-.13-.15-.26-.31-.39-.49-2.19-2.52-4.53-4.92-7.05-7.18,1.62-.1,3.22-.36,4.79-.8v.03h0ZM445.83,1467.11c2.42.57,4.84,1.11,7.28,1.62-.8.7-1.44,1.49-1.9,2.39-.88-.67-1.72-1.34-2.57-1.96-.93-.7-1.88-1.36-2.8-2.03v-.03h-.01ZM430.03,1498.79c-1.42.51-2.75,1.49-3.86,2.98-.8,1.06-1.47,2.16-2.03,3.29-1.16-.33-2.29-.67-3.42-1.05-.62-.49-1.31-.93-2.14-1.23-2.91-1.13-5.87-2.21-8.82-3.19-.54-.28-1.05-.57-1.6-.85,4.09-.36,8.05-1.34,11.73-3.27,1.93.28,3.83.57,5.76.8,1.26.98,2.73,1.83,4.4,2.52h-.03,0ZM380.1,1472.85c-10.5-2.57-20.92-5.43-31.1-8.83-1.9-.62-3.78-1.29-5.66-1.93-.59-.59-1.18-1.16-1.78-1.8-.08-.08-.15-.18-.23-.28-.18-.36-.36-.75-.49-1.13-1.96-5.59,1.21-12.25,4.35-17.68,2.83-.7,5.63-1.65,8.44-2.91,9.88,6.02,19.04,15.31,25.62,21.59.13.13.26.23.39.36.95,1.52,1.96,2.96,3.04,4.35.64,2.63-.31,5.02-2.55,8.26h-.03ZM308.63,1424.49c-.82.64-1.65,1.31-2.42,2.01-.28-.72-.67-1.39-1.13-1.96,1.18-.03,2.37-.05,3.55-.05ZM268.52,1430.87c-2.08,1.05-4.12,2.21-6.07,3.45-2.03,0-4.06-.03-6.07-.05-1.05,0-2.16,0-3.27.03,5.17-.88,10.34-2.11,15.44-3.45l-.03.03h0ZM258.15,1273.98c.67-.93,1.36-1.83,2.06-2.73.21.05.41.1.62.1-.93.93-1.83,1.88-2.75,2.81,0-.05.05-.13.08-.18h-.01ZM172.12,1338.91c1.44-1.65,3.09-3.09,4.61-4.2.23-.15.44-.31.62-.44s.36-.26.54-.36c1.54-1.06,1.96-2.65,1.7-4.12,12.55-13.43,26.47-25.89,39.9-38.19,8.77-8.03,17.73-15.88,26.78-23.6,1.96-.44,3.96-.75,5.97-.85-.23.9-.51,1.83-.85,2.7-5.33,7.26-10.14,15.03-15.1,22.49-6.02,7.46-12.45,14.57-18.81,21.7-6.43,7.21-12.56,14.67-19.61,21.34-4.86,4.61-10.42,8.88-16.93,10.81-3.09.9-7.72.21-9.73-2.57-1-1.39-.33-3.09.93-4.71h-.03.01ZM175.1,1354.2c-.28.1-.59.23-.88.33-1.29-.23-2.47-.82-3.53-1.85.88.41,1.85.8,2.91,1.13.49.16.98.28,1.49.39h0ZM156.17,1380.84s0-.08.05-.13c.9-.31,1.83-.62,2.73-.95-1.18.95-2.39,1.96-3.65,2.93.31-.62.62-1.23.9-1.88l-.02.03h0ZM140.68,1398.83c10.65-1.54,19.73-11.04,28.43-16.76,6.95-4.55,16.21-7.57,23.1-1.21.15.15.31.33.46.49-.85,9.45-.31,18.68,2.88,26.97-4.32,16.57-17.8,28.8-36.07,24.84-14.54-3.14-33.21-22.18-18.81-34.33h0ZM160.54,1441.34c-1.16.49-2.26,1-3.32,1.54-.46-.85-.93-1.72-1.42-2.55,1.57.46,3.17.77,4.73,1h.01ZM234.99,1775.2c-1.52-.92-3.01-1.85-4.55-2.72.62-.24,1.21-.49,1.83-.75,1.08,1.03,2.14,2.03,3.24,3.04-.15.15-.33.28-.51.43h0ZM266.56,1752.25c-.18-.26-.39-.49-.57-.75.41-.28.82-.57,1.23-.85-.23.51-.44,1.06-.64,1.6h-.03,0ZM269.65,1688.32c-31.8,7.15-59.94-14.49-81.97-34.54-12.58-11.45-24.42-23.65-36.82-35.31-11.27-10.58-24.31-19.66-32.18-32.99-.18-4.94-.46-9.88-.98-14.8.75-4.48,1.85-8.96,3.24-13.36,3.63-4.66,6.87-9.19,9.75-13.13,11.14-15.34,21.12-31.48,31.26-47.51,3.83-6.07,7.59-12.79,11.89-19.02,2.42-1.83,4.73-3.86,7-6.02,7.46-3.65,15.36-6.2,23.95-6.82,11.58-.82,22.97.39,34.19-3.37.64-.23,1.23-.62,1.7-1.11,1.23-.13,2.47-.28,3.7-.41,2.24,1,4.43,2.08,6.48,3.04,8.57,3.99,17.01,8.03,25.93,11.2,9.26,3.29,18.55,6.18,27.81,9.16,9.03,4.92,19.89,8.24,29.59,10.73,24.83,10.32,50.14,19.28,74.15,31.53,14,7.16,50.66,24.68,39.41,45.71-6.97,13.05-27.43,15.39-40.08,19.33-16.83,5.25-31.44,16.01-44.64,27.38-29.23,25.22-53.56,61.3-93.34,70.26l-.05.06h0ZM617.2,1777.44c-12.79,18.38-58.45,31.2-79.91,32.07-21.02.85-38.95-4.68-58.04-12.82-24.6-10.47-50.32-12.84-75.61-21.77-25.62-9.06-89.94-16.99-88.37-54.9,1.93-47.38,54.1-69.85,92.15-83.67,24.03-8.72,37.51-11.04,61.41-6.9,28.25,4.89,37.56-7.72,63.29-18.58,50.86-21.44,54.34,21.75,56.24,60.15,1,20.26,3.27,32.56,13.35,49.98,10.37,17.91,27.53,39.17,15.49,56.44h0ZM1169.07,1852.77c1.72-.95,3.4-1.95,5.09-2.96.28,1.21,1.11,2.27,2.47,2.6,1.13.29,2.26.54,3.4.78.26.72.75,1.36,1.54,1.75.41.2.82.41,1.23.61.05.31.18.62.34.9-4.61-1.46-9.29-2.7-14.05-3.65l-.03-.03h.01ZM1180.91,1827.32c-27.04,12.79-56.45,22.75-86.57,22.96-37.02.25-73.07-11.33-109.8-14.52-39.8-3.45-81.27,1.57-120.51,8.08-25.6,4.25-51.3,11.46-77.28,14.13-5.35-1.46-10.57-3.34-15.64-5.5-22.59-9.66-42.81-24.2-63.32-37.84-7.33-8.54-13.99-17.65-20.35-26.94-2.88-4.53-5.74-9.06-8.9-13.41-.7-.96-1.52-1.65-2.42-2.09-2.34-4.94-5.45-9.98-9.42-15.08-22.64-29.06-50.89-57.65-25.14-98.26,23.28-36.7,68.02-22.98,103.76-24.63,31.9-1.47,63.91-8.47,93.31-21.05,19.68-8.42,39.54-27.31,62.18-25.15,37.84,3.6,49.76,25.43,68.82,51.53,22.41,30.68,55.7,35.11,86.24,52.2,19.68,10.99,44.04,12.22,66.09,10.16,34.71-3.24,55.16,6.72,89.2,13.85,51.15,10.71,50.89,36.7,32.67,61.56-15,20.46-42.17,40.18-62.93,50.01h.01ZM1197.22,1838.31c-.57.26-1.13.49-1.7.75.28-.62.54-1.26.8-1.88.31.38.62.77.9,1.16v-.03ZM1200.87,1848.14c-2.6-.05-5.12-.18-7.64-.38,2.96-1.16,5.87-2.45,8.77-3.74h.03c-.41,1.39-.8,2.76-1.16,4.12h0ZM1204.06,1835.22s-.15.08-.23.1c-.95-1.21-1.88-2.44-2.75-3.68.44-.3.87-.61,1.31-.92.93-.49,1.83-1.01,2.73-1.52-.39,2.03-.75,4.04-1.08,6.02h.03-.01ZM1217.39,1824.8c-.46.64-.9,1.31-1.36,1.95.44-1,.9-1.98,1.36-2.96v1.01ZM1231.92,1861.09c-1.31-3.71-2.44-7.49-3.42-11.33,0-.15.05-.28.08-.43.88,4.42,2.24,8.85,4.12,13.25.05.13.1.23.15.36-.31-.62-.64-1.24-.95-1.85h.02,0ZM1251.94,1888.83c-1.03-.98-2.03-1.98-3.01-3.01,1.72,1.03,3.47,2.06,5.25,3.11,1.54,1.09,3.14,2.11,4.76,3.09-2.34-1.03-4.68-2.08-7-3.19ZM1297.19,1914.65c-1.39-.65-2.75-1.34-4.12-2.04,2.75.88,5.51,1.62,8.31,2.22-.05.41-.03.82.05,1.23-1.41-.46-2.83-.93-4.22-1.41h-.03.01ZM1392,1882.94c-.39-.03-.8,0-1.21.1-1.98.46-3.99.98-5.94,1.49,3.93-1.67,7.84-3.39,11.68-5.14-1.52,1.18-3.01,2.36-4.53,3.57v-.02h0ZM1481.79,1831.85c-3.6,3.55-7.28,7-11.04,10.37.8-1.47,1.54-2.93,2.26-4.42,2.06-2.55,3.97-5.18,5.77-7.88,1.7-1.7,3.34-3.45,4.91-5.25.77,2.29,1.6,4.55,2.55,6.79-1.37-.79-3.17-.9-4.45.39h0ZM1488.79,1696.76c-4.28,16.47-5.95,33.43-6.95,50.49-3.73,15.34-7.67,30.63-13.07,45.33-6,16.34-14.59,31.78-25.01,46.12-7.15,7.46-14.84,14.51-22.97,21.23-.05.02-.1.05-.18.08-39.57,19.84-86.57,42.36-132.09,35.31-23.98-3.71-44.46-19.38-51.94-42.83-7.77-24.4,4.22-49.49,23.85-64.19,2.08-1.57,1.83-4.27.54-5.79,2.13-3.16,4.12-6.46,5.84-9.91,11.42-22.85,6.56-51.06-9.01-70.77-1.9-2.42-4.01-4.71-6.23-6.87,6.51-19.59,23.77-37.06,39.83-47.9,28.69-19.33,57.14-4.99,86.72,2.86,15.7,4.17,31.9,6.31,48.11,6.95,12.99.52,25.19-.64,37.33-3.22-.61,2.11.7,4.86,3.37,4.86h5.66c-.49.64-.79,1.36-.85,2.14-.1,1.44,1.16,3.29,2.65,3.5,8.83,1.21,13.02,15.62,14.57,22.49.05.21.07.44.12.65-.1,3.14-.2,6.28-.33,9.42l.03.05h0ZM1489.63,1668.19c-1.62-2.73-3.57-5.25-5.78-7.23.33-.1.66-.2,1.02-.28,1.88,2.37,3.48,4.84,4.84,7.36,0,.05-.02.1-.05.15h-.03,0ZM1497.79,1785.5c.03-1.13.05-2.24.08-3.37,1.49-7.54,2.65-15.19,3.47-22.86.41-1.46.82-2.93,1.23-4.4.34-.85.65-1.72.96-2.57-.52,11.32-2.27,22.52-5.74,33.22v-.02h0ZM1499.18,1657.1c.56-.13,1.13-.21,1.7-.31-.26.95-.52,1.91-.72,2.88-.31-.85-.65-1.73-.98-2.57ZM1502.39,1642.76c-.79-.15-1.62-.05-2.54.36-4.79,2.24-9.8,3.6-14.9,4.66.77-.26,1.55-.51,2.34-.8,5.38-1.85,10.94-3.71,16.62-5.43-.49.39-1,.77-1.52,1.18v.03h0ZM1508.34,1710.19c-.26-2.24-.54-4.53-.8-6.82,2.98-9.01,6.74-17.96,11.63-26.04-3.73,10.93-7.33,21.87-10.83,32.86ZM1539.29,1640.42c-.26.05-.52.1-.8.18.85-.77,1.78-1.44,2.5-1.54-.57.46-1.14.93-1.7,1.39v-.03ZM1674.07,1498.94c-13.58,10.42-30.72,15.85-46.41,22.29-12.79,5.22-25.83,9.93-38.38,15.7-16.55,7.59-30.44,18.79-42.92,31.94-13.27,14-25.34,29.37-40.18,41.77-5.33,4.45-11.07,8.49-17.11,12.05-.18.1-.34.21-.52.31-13.55,7.88-28.66,13.18-44.25,14.72-22.41,2.21-44.69-1.26-65.91-8.6-18.37-6.36-37.67-14.26-50.4-29.65-9.52-11.53-15.05-26.87-16.31-41.62-2.47-28.72,5.27-57.73,10.96-85.6,5.86-28.8,2.01-61.72,19.5-87.17,25.14-36.57,76.82-37.34,114.95-51.19,20.71-7.54,39.08-19.84,59.43-28.18,19.11-7.85,41.06-15.67,61.82-17.22,42.22-3.09,69.49,39.97,79.42,75.38,2.75,9.81,5.51,19.77,10.01,28.95,9.16,18.74,18.7,34.13,22.23,55.28,3.16,19.04.28,38.45-15.88,50.86l-.05-.03h0ZM1535.87,1267.16c-1.44,2.47-3.09,1.75-4.69-.39-.74-1-1.72-1.52-2.75-1.65.21-.75.49-1.49.82-2.19.83-1.62,2.27-4.4,3.89-3.29,2.31,1.54,4.27,4.81,2.7,7.52h.03ZM1538.16,1284.66h.02c-2.85.88-5.71,1.78-8.54,2.73.23-.28.46-.57.67-.85,2.65-.44,5.25-1.16,7.85-1.88ZM1543.04,1250.3c.57-.15,1.08-.46,1.5-.9.3.08.61.13.92.15-.85.64-1.62,1.34-2.29,2.08-.02-.46-.07-.9-.13-1.34h0ZM1547.08,1262.22c.34-5.2,4.09-8.13,8.39-7.31,3.22,2.78,6.66,5.28,10.19,7.59,2.91,3.22,5.61,6.67,8.85,9.47-6.02,3.17-12.94,2.91-19.84,2.78-1.39-1.36-2.54-2.96-3.52-4.81-.8-1.57-2.16-2.09-3.48-1.96-.48-1.91-.72-3.86-.59-5.79v.03h0ZM1685.86,1381.79c.07-.8.1-1.57.15-2.37.51.15,1.08.23,1.65.21-.7.62-1.32,1.36-1.8,2.16ZM1691.16,1377.83c.25-.44.41-.95.38-1.54.13.05.26.1.41.18-.02.39,0,.8.05,1.18-.28.03-.56.13-.84.18h0ZM1697.41,1446.72c-.31-1.9-.67-3.81-1.03-5.69.54,1.39,1.05,2.81,1.46,4.25-.15.49-.3.98-.46,1.44h.03ZM1701.37,1398.42s-.05.18-.08.28c-.62,1.6-1.64,2.06-2.78,1.91-.2-.39-.51-.77-.95-1.13-3.24-2.65-5.48-6.9-5.38-11.14.03-1.31.29-2.52.78-2.88-.05.13.82.08,1.05.15,1.16.36,2.24.95,3.24,1.65,2.86,1.96,4.74,5.35,4.58,8.78-.31.54-.49,1.21-.46,2.03v.36h0ZM1709.52,1440.14c-.07-.23-.12-.44-.2-.67.62-1.26,1.29-2.5,1.93-3.73-.67,1.44-1.26,2.91-1.75,4.38l.02.03h0ZM1738.6,1401.32c.49-.64.97-1.26,1.46-1.88.18.21.36.41.57.59-.67.44-1.36.88-2.03,1.31v-.03h0ZM1775.85,1331.27s-.08.18-.1.28c-.26-.36-.57-.64-.9-.85.31-.72.67-1.39,1.03-2.09v2.65h-.03ZM1797.25,1195.92c-.38,2.26-.82,4.48-1.26,6.67-3.26,16.06-8.15,31.6-10.72,47.84-.44,2.73-.85,5.46-1.26,8.21-2.76,11.17-5.43,22.34-7.62,33.64-.46,1.13-.87,2.27-1.23,3.4-4.97,6.51-8.06,17.5-9.52,21.64-5.46,15.34-17.52,30.58-33.78,35.18-1.14.31-2.29.59-3.45.85-4.61-1.11-12.2,1.75-17.42,1.23-5.48-.51-10.78-2.03-15.67-4.53-9.54-4.84-16.82-13.13-22.64-21.93-7.23-10.99-14.84-18.61-24.67-27.15-3.58-3.11-7.33-6.02-11.34-8.7-4.22-3.94-8.83-7.36-14.18-9.62-4.97-3.89-10.24-7.44-15.93-10.5-23.05-12.43-46.72-21.57-61.15-44.89-12.17-19.66-16.36-42.72-16.95-65.58-.83-30.99,4.06-61.02,15.87-89.74,2.39-5.84,4.99-11.63,7.64-17.35.08-.13.16-.21.21-.33,3.83-7.67,7.79-15.26,12.04-22.67,10.47-13.61,26.11-24.91,40.16-34.38,24.18-16.29,56.78-21.05,83.1-7.39,27.55,14.28,43.22,44.91,56.96,71.32,9.1,17.5,17.83,37.47,32.34,51.29,4.06,7.46,8.31,14.98,11.98,22.73,1.96,5.84,4.66,11.5,6.41,17.32.1.31.23.59.36.85.93,4.63,1.88,9.29,2.78,13.92.51,9.45.1,19.02-1.03,28.67h-.03,0ZM1777.99,1027.73c2.95.9,10.23,9.37,3.78,63.62-3.73-6.02-9.62-10.6-12.71-17.04-1.83-3.83-2.99-7.57-3.58-11.58-.23-1.49-.38-3.04-.46-4.66-.54-10.45,1.49-26.07,12.97-30.39v.05h0ZM1794.48,1015.4c.59-.41,1.15-.88,1.72-1.34-.23,1.06-.46,2.14-.67,3.19-.33-.64-.67-1.26-1.03-1.85h-.02,0ZM1691.31,761.22c-.28.15-.57.31-.87.44-.31.08-.62.18-.93.26,0-.54-.05-1.06-.16-1.6.65.31,1.32.62,1.96.9h0ZM1659.51,732.01c-.44-.1-.9-.18-1.34-.26-.13-.59-.23-1.18-.38-1.78.56.67,1.13,1.36,1.72,2.03h0ZM1694.55,779.99c16.47-3.32,33.06-2.65,49.68-1.85.82.21,1.62.41,2.44.67,1.75.54,3.27.31,4.51-.33,1.41.05,2.83.13,4.27.18,5.14.93,10.24,2.03,15.18,3.29,7.64,1.93,17.34,4.68,25.98,8.98,5.61,5.38,10.32,11.48,14.87,17.81.62,1.31,1.21,2.68,1.7,4.04,2.98,8.24,2.96,17.04,5.38,25.25.2,4.01.28,8.03.43,12.02-.59,7.13-1.36,14.21-2.26,21.28-.08.28-.13.59-.21.88-.82.44-1.46,1.21-1.69,2.32-.78,3.66-1.29,7.36-1.7,11.04-1.98,8.13-3.53,16.24-3.6,24.89-.16,16.16,2.31,32.27,1.69,48.44-.15,4.45-.59,9.03-1.33,13.61-.34,1.21-.65,2.42-.98,3.65-.62.31-1.18.77-1.57,1.49-6.17,11.53-10.96,24.35-21.64,31.53-.59.21-1.13.54-1.54.98-1.83,1.08-3.81,2.01-5.97,2.73-.51.18-.93.41-1.29.72-.66,0-1.38.15-2.16.64-.9.59-1.85,1.06-2.85,1.42-.13.03-.23.08-.36.13-22.59,8.11-40.16-21.85-53.93-34.13-15.2-13.56-35.71-24.97-55.9-28.65l-.23-.05s-.21-.05-.34-.08h-.1c-1.13-.23-2.26-.44-3.4-.62-12.99-1.93-30.77,6.31-43.81,8.16-21.74,3.09-27.84-8.9-30.49-28.67-2.13-15.8-.97-31.97,1.86-47.61,4.65-25.58,16.51-46.63,35.6-64.26,20.69-19.1,45.92-34.2,73.79-39.81l-.03-.08h0ZM1714.85,504.68c.1-.28.21-.57.26-.9,0-.05,0-.1.02-.15,0-.03.05-.05.08-.1.64-.15,1.29-.41,1.9-.77.49-.28.93-.62,1.39-.93.29.26.6.49.9.69-1.51.72-3.06,1.44-4.55,2.14v.03h0ZM1698.82,469.39c-19.5,15.03-45.43,20.46-66.48,33.05-10.49,6.28-20.81,13.28-28.3,23.16-3.16,4.19-9.67,23.7-11.83,24.81-2.24,1.13-4.5,2.14-6.72,3.04-23.97,9.5-58.27,26.87-80.86,12.64-25.11-15.83-34.81-35.52-46.1-61.02-4.14-9.34-8.85-18.45-14.38-27.07-11.19-17.45-24.11-34.05-40.62-46.76-15.21-11.71-32.22-19.77-48.99-28.85-6.41-3.47-13.84-7.57-16.83-14.62-3.06-7.21-.92-16.7,3.4-22.98,8.54-12.4,25.32-15.13,39.31-15.8,16.11-.77,32.21,1,48.29-.54,23.98-2.29,47.37-7.7,70.73-13.38,38.92-9.45,84.1-22.65,124.05-11.61,19.99,5.51,36.79,16.5,52.74,29.44,34.56,27.95,68.57,81.1,22.62,116.51h-.03v-.02ZM1734.74,494.75c.72-.8,1.46-1.62,2.16-2.45.26.23.56.46.87.64-1,.62-2,1.21-3.01,1.78l-.02.03ZM1766.56,455.42c.65-2.88,1.11-5.82,1.47-8.73.38-1.16.8-2.29,1.21-3.42-.7,4.07-1.57,8.16-2.68,12.15h0ZM1868.13,238.84l-1.08.93c-1.39.52-2.75,1.05-4.14,1.6-.18-1.03-.57-1.98-1.11-2.78,2.5-1.11,5-2.14,7.52-3.11-.67,1.03-1.06,2.21-1.19,3.4v-.03h0ZM2041.9,191.95c-34.04,7.13-54.5,17.09-89.2,13.85-22.05-2.06-46.44-.82-66.09,10.17-30.54,17.06-63.83,21.52-86.24,52.2-19.07,26.1-30.98,47.92-68.82,51.52-22.67,2.16-42.5-16.73-62.19-25.14-29.4-12.58-61.41-19.59-93.31-21.05-35.71-1.65-80.47,12.07-103.76-24.63-25.75-40.61,2.47-69.18,25.14-98.26,3.96-5.1,7.07-10.14,9.42-15.08.9-.46,1.72-1.13,2.41-2.09,3.17-4.35,6.05-8.88,8.91-13.41,6.35-9.32,13.01-18.4,20.35-26.95,20.5-13.64,40.72-28.18,63.31-37.83,5.07-2.16,10.29-4.04,15.64-5.51,25.99,2.65,51.69,9.86,77.29,14.13,39.23,6.51,80.7,11.56,120.5,8.08,36.74-3.19,72.79-14.77,109.81-14.52,30.12.21,59.53,10.17,86.57,22.96,20.76,9.83,47.93,29.55,62.93,50.01,18.24,24.89,18.47,50.88-32.67,61.56h0Z"/>
  </g>
</svg>