<svg width="1460" height="367" viewBox="0 0 1460 367" fill="none" xmlns="http://www.w3.org/2000/svg">
<g clip-path="url(#clip0_149_3253)">
<rect width="1460" height="367" fill="white"/>
<g clip-path="url(#clip1_149_3253)">
<path d="M1471 -326.99H-34.06V612.77H1471V-326.99Z" fill="#FFEAD9"/>
<path fill-rule="evenodd" clip-rule="evenodd" d="M1507 342.52C1507 342.52 1444.65 296.995 1259.34 317.309C1149.2 329.389 1121.69 347.617 1046.24 332.399C986.54 320.359 908.98 254.536 721.31 281.013C546.09 305.731 481.76 330.138 393.61 306.543C340.66 292.368 293.37 252.537 195.92 262.849C142.29 268.519 29.85 287.073 1.94 276.291V462.119H1507V342.52Z" fill="#F4E0D3"/>
<path fill-rule="evenodd" clip-rule="evenodd" d="M1507 345.514C1507 345.514 1435.24 302.848 1249.92 323.17C1139.78 335.25 1107.56 348.254 1032.12 333.036C972.42 320.996 895.9 259.234 708.23 285.703C533.01 310.421 472.14 330.584 383.98 306.989C331.03 292.814 288.95 257.307 191.5 267.611C137.87 273.281 29.84 289.191 1.94 278.409V468.585H1507V345.514Z" fill="white"/>
<path fill-rule="evenodd" clip-rule="evenodd" d="M1507 356.79C1507 356.79 1416.47 323.13 1231.16 343.444C1121.02 355.524 1076.6 353.016 1021.9 342.25C961.89 330.44 890.51 283.816 699.4 306.344C523.41 327.088 472.15 341.859 383.99 318.265C331.04 304.09 239.02 278.329 184.56 282.669C80 290.999 32.89 292.798 1.94 286.484V483.738H1507V356.79Z" fill="#81E5EF"/>
<path fill-rule="evenodd" clip-rule="evenodd" d="M1.94 369.101C43.1 378.131 142.79 372.302 209.12 360.071C316.39 340.299 381.68 362.356 441.06 377.048C521.48 396.948 598.03 391.677 764.37 377.048C930.71 362.42 954.14 385.354 989.28 397.999C1024.42 410.637 1075.97 424.182 1230.59 406.122C1385.22 388.061 1506.98 433.212 1506.98 433.212V450.548C1506.98 450.548 1405.05 399.369 1267.33 423.059C1129.61 446.758 1038.61 444.862 959.91 416.426C881.21 387.99 817.27 380.409 716.44 394.623C615.61 408.837 468.05 435.625 357.38 401.384C246.71 367.142 212.3 370.925 145.89 382.304C79.49 393.675 32.02 404.322 1.94 392.728V369.101Z" fill="#61D5DB"/>
<path fill-rule="evenodd" clip-rule="evenodd" d="M924.6 377.048C924.6 377.048 902.25 365.741 878.45 367.779C854.64 369.818 838.77 370.853 824.23 367.532C809.68 364.212 795.14 370.686 779.27 372.286C763.4 373.895 727.87 380.289 706.79 381.994C765.35 376.634 856.41 365.438 924.6 377.048Z" fill="white"/>
<path d="M449.65 379.079C449.65 379.079 395.33 364.22 386.52 360.135C377.71 356.05 389.44 356.32 377.72 357.802C366 359.275 366.35 355.763 362.57 354.592C358.79 353.422 305.91 349.464 270.2 352.761C270.2 352.761 314.89 351.383 346.68 357.515C378.47 363.631 442.55 377.534 449.65 379.079Z" fill="white"/>
<g opacity="0.5">
<path d="M1445.43 361.64C1451.55 361.64 1456.51 359.729 1456.51 357.372C1456.51 355.014 1451.55 353.103 1445.43 353.103C1439.31 353.103 1434.35 355.014 1434.35 357.372C1434.35 359.729 1439.31 361.64 1445.43 361.64Z" fill="white"/>
<path d="M817 319.3C825.61 319.3 832.59 316.608 832.59 313.288C832.59 309.967 825.61 307.275 817 307.275C808.39 307.275 801.41 309.967 801.41 313.288C801.41 316.608 808.39 319.3 817 319.3Z" fill="white"/>
<path d="M494.69 347.951C500.224 347.951 504.71 346.222 504.71 344.089C504.71 341.956 500.224 340.227 494.69 340.227C489.156 340.227 484.67 341.956 484.67 344.089C484.67 346.222 489.156 347.951 494.69 347.951Z" fill="white"/>
<path d="M533.38 351.813C538.914 351.813 543.4 350.084 543.4 347.951C543.4 345.818 538.914 344.089 533.38 344.089C527.846 344.089 523.36 345.818 523.36 347.951C523.36 350.084 527.846 351.813 533.38 351.813Z" fill="white"/>
<path d="M296.65 317.15C302.184 317.15 306.67 315.421 306.67 313.288C306.67 311.155 302.184 309.425 296.65 309.425C291.116 309.425 286.63 311.155 286.63 313.288C286.63 315.421 291.116 317.15 296.65 317.15Z" fill="white"/>
<path d="M141.28 303.764C146.814 303.764 151.3 302.035 151.3 299.902C151.3 297.769 146.814 296.039 141.28 296.039C135.746 296.039 131.26 297.769 131.26 299.902C131.26 302.035 135.746 303.764 141.28 303.764Z" fill="white"/>
<path d="M644.5 335.521C653.11 335.521 660.09 332.829 660.09 329.509C660.09 326.188 653.11 323.496 644.5 323.496C635.89 323.496 628.91 326.188 628.91 329.509C628.91 332.829 635.89 335.521 644.5 335.521Z" fill="white"/>
<path d="M1273.25 359.107C1277.56 359.107 1281.05 357.763 1281.05 356.105C1281.05 354.447 1277.56 353.103 1273.25 353.103C1268.94 353.103 1265.45 354.447 1265.45 356.105C1265.45 357.763 1268.94 359.107 1273.25 359.107Z" fill="white"/>
<path d="M1150.29 366.704C1154.6 366.704 1158.09 365.36 1158.09 363.702C1158.09 362.044 1154.6 360.7 1150.29 360.7C1145.98 360.7 1142.49 362.044 1142.49 363.702C1142.49 365.36 1145.98 366.704 1150.29 366.704Z" fill="white"/>
<path d="M857.92 322.692C862.228 322.692 865.72 321.348 865.72 319.69C865.72 318.032 862.228 316.688 857.92 316.688C853.612 316.688 850.12 318.032 850.12 319.69C850.12 321.348 853.612 322.692 857.92 322.692Z" fill="white"/>
<path d="M628.9 335.401C633.208 335.401 636.7 334.057 636.7 332.399C636.7 330.741 633.208 329.397 628.9 329.397C624.592 329.397 621.1 330.741 621.1 332.399C621.1 334.057 624.592 335.401 628.9 335.401Z" fill="white"/>
<path d="M700.93 322.692C705.238 322.692 708.73 321.348 708.73 319.69C708.73 318.032 705.238 316.688 700.93 316.688C696.622 316.688 693.13 318.032 693.13 319.69C693.13 321.348 696.622 322.692 700.93 322.692Z" fill="white"/>
<path d="M1139.64 368.305C1143.78 368.305 1147.13 367.011 1147.13 365.414C1147.13 363.818 1143.78 362.524 1139.64 362.524C1135.5 362.524 1132.15 363.818 1132.15 365.414C1132.15 367.011 1135.5 368.305 1139.64 368.305Z" fill="white"/>
<path d="M831.78 319.578C835.917 319.578 839.27 318.284 839.27 316.688C839.27 315.091 835.917 313.797 831.78 313.797C827.643 313.797 824.29 315.091 824.29 316.688C824.29 318.284 827.643 319.578 831.78 319.578Z" fill="white"/>
<path d="M753.05 319.578C757.187 319.578 760.54 318.284 760.54 316.688C760.54 315.091 757.187 313.797 753.05 313.797C748.913 313.797 745.56 315.091 745.56 316.688C745.56 318.284 748.913 319.578 753.05 319.578Z" fill="white"/>
<path fill-rule="evenodd" clip-rule="evenodd" d="M75.55 304.011C75.65 302.418 79.09 301.152 83.23 301.2C87.37 301.239 90.64 302.569 90.53 304.162C90.43 305.755 86.99 307.021 82.85 306.973C78.71 306.925 75.45 305.611 75.55 304.011Z" fill="white"/>
<path fill-rule="evenodd" clip-rule="evenodd" d="M26.6 307.475C26.67 306.384 29.03 305.516 31.86 305.547C34.7 305.571 36.94 306.487 36.86 307.578C36.79 308.669 34.43 309.537 31.6 309.505C28.77 309.481 26.53 308.573 26.6 307.475Z" fill="white"/>
<path d="M72.47 307.928C75.3088 307.928 77.61 307.041 77.61 305.946C77.61 304.851 75.3088 303.963 72.47 303.963C69.6313 303.963 67.33 304.851 67.33 305.946C67.33 307.041 69.6313 307.928 72.47 307.928Z" fill="white"/>
<path d="M316.9 325.097C321.037 325.097 324.39 323.803 324.39 322.206C324.39 320.61 321.037 319.316 316.9 319.316C312.763 319.316 309.41 320.61 309.41 322.206C309.41 323.803 312.763 325.097 316.9 325.097Z" fill="white"/>
<path d="M238.31 304.767C241.679 304.767 244.41 303.715 244.41 302.418C244.41 301.121 241.679 300.069 238.31 300.069C234.941 300.069 232.21 301.121 232.21 302.418C232.21 303.715 234.941 304.767 238.31 304.767Z" fill="white"/>
<path d="M208.3 304.767C211.669 304.767 214.4 303.715 214.4 302.418C214.4 301.121 211.669 300.069 208.3 300.069C204.931 300.069 202.2 301.121 202.2 302.418C202.2 303.715 204.931 304.767 208.3 304.767Z" fill="white"/>
<path fill-rule="evenodd" clip-rule="evenodd" d="M145.36 297.592C145.45 296.294 148.24 295.267 151.61 295.307C154.98 295.339 157.64 296.422 157.55 297.712C157.46 299.01 154.67 300.037 151.3 299.997C147.94 299.973 145.28 298.89 145.36 297.592Z" fill="white"/>
<path d="M282.81 312.316C286.947 312.316 290.3 311.022 290.3 309.426C290.3 307.829 286.947 306.535 282.81 306.535C278.673 306.535 275.32 307.829 275.32 309.426C275.32 311.022 278.673 312.316 282.81 312.316Z" fill="white"/>
<path d="M908.2 335.29C912.337 335.29 915.69 333.996 915.69 332.399C915.69 330.803 912.337 329.509 908.2 329.509C904.063 329.509 900.71 330.803 900.71 332.399C900.71 333.996 904.063 335.29 908.2 335.29Z" fill="white"/>
<path d="M1356.83 348.891C1360.97 348.891 1364.32 347.597 1364.32 346C1364.32 344.404 1360.97 343.11 1356.83 343.11C1352.69 343.11 1349.34 344.404 1349.34 346C1349.34 347.597 1352.69 348.891 1356.83 348.891Z" fill="white"/>
<path d="M1347.5 347.991C1349.65 347.991 1351.4 347.317 1351.4 346.486C1351.4 345.655 1349.65 344.981 1347.5 344.981C1345.35 344.981 1343.6 345.655 1343.6 346.486C1343.6 347.317 1345.35 347.991 1347.5 347.991Z" fill="white"/>
<path d="M1242.54 360.461C1246.41 360.461 1249.55 359.253 1249.55 357.762C1249.55 356.271 1246.41 355.062 1242.54 355.062C1238.67 355.062 1235.53 356.271 1235.53 357.762C1235.53 359.253 1238.67 360.461 1242.54 360.461Z" fill="white"/>
<path d="M1263.85 359.115C1266.35 359.115 1268.37 358.335 1268.37 357.372C1268.37 356.408 1266.35 355.628 1263.85 355.628C1261.35 355.628 1259.33 356.408 1259.33 357.372C1259.33 358.335 1261.35 359.115 1263.85 359.115Z" fill="white"/>
<path d="M1130.69 369.587C1133.19 369.587 1135.21 368.806 1135.21 367.843C1135.21 366.88 1133.19 366.099 1130.69 366.099C1128.19 366.099 1126.17 366.88 1126.17 367.843C1126.17 368.806 1128.19 369.587 1130.69 369.587Z" fill="white"/>
<path d="M1384.23 348.883C1386.79 348.883 1388.86 348.084 1388.86 347.099C1388.86 346.114 1386.79 345.315 1384.23 345.315C1381.67 345.315 1379.6 346.114 1379.6 347.099C1379.6 348.084 1381.67 348.883 1384.23 348.883Z" fill="white"/>
</g>
<path d="M541.016 92.8595C538.62 92.9501 530.371 92.9501 521.072 92.9501V102.443C529.322 102.534 536.406 102.637 538.141 102.832C538.53 106.859 538.426 127.567 538.141 130.921C535.175 131.206 529.71 131.206 526.641 130.921C526.55 127.762 526.55 117.025 526.641 112.804C521.849 112.998 495.676 112.998 491.363 112.804C490.884 111.275 490.884 104.658 491.363 102.832C493.371 102.637 500.856 102.547 509.287 102.443C509.196 99.4773 509.196 96.0194 509.287 92.9501C499.509 92.9501 490.884 92.9501 488.864 92.8595C488.475 89.8938 488.475 85.2833 488.864 82.1234C493.656 81.9291 535.162 81.9291 541.016 82.1234C541.392 85.2833 541.392 89.9844 541.016 92.8595ZM492.412 61.4153C492.024 59.6928 492.024 53.1657 492.412 51.1583C497.295 50.4849 532.87 50.4849 537.079 51.1583C537.468 55.186 537.273 74.5472 537.079 77.228C534.01 77.6165 528.648 77.6165 525.579 77.228C525.579 74.2623 525.488 65.5336 525.579 61.4153C520.878 61.6095 496.725 61.6095 492.412 61.4153Z" fill="#46C1BB"/>
<path d="M549.551 51.4432C554.627 50.8734 587.224 50.8734 592.301 51.4432C592.974 56.1443 592.974 89.1167 592.301 93.7142C587.703 94.1934 554.148 94.1934 549.551 93.7142C548.877 89.1167 548.877 56.1443 549.551 51.4432ZM552.141 100.047C554.446 99.4773 560.869 99.4773 563.55 100.047C563.55 103.79 563.641 115.096 563.55 118.929C569.974 118.839 612.53 118.839 616.842 118.929C617.321 121.234 617.321 127.075 616.842 129.38C610.328 129.665 557.412 129.769 552.141 129.38C551.856 123.242 551.752 105.409 552.141 100.047ZM581.37 84.2343C581.655 81.165 581.655 63.9147 581.37 60.9361C577.822 60.8454 563.926 60.7418 560.572 60.9361C560.287 63.9018 560.287 81.165 560.572 84.2343C564.314 84.4156 577.925 84.4156 581.37 84.2343ZM603.607 49.0474C605.912 48.4775 612.426 48.4775 614.731 49.0474C615.21 53.8391 615.21 103.777 614.731 108.582C612.815 108.97 606.3 108.97 603.607 108.582C603.322 103.88 603.322 53.8391 603.607 49.0474Z" fill="#46C1BB"/>
<path d="M624.133 74.353C624.133 59.3043 634.87 49.6172 651.641 49.6172C668.412 49.6172 679.148 59.3043 679.148 74.353C679.148 89.4017 668.412 99.0888 651.641 99.0888C634.87 99.0888 624.133 89.4017 624.133 74.353ZM710.022 129.38C703.508 129.665 634.3 129.769 629.016 129.38C628.731 123.242 628.627 108.297 629.016 102.922C631.023 102.352 637.745 102.352 640.425 102.922C640.425 106.756 640.516 115.096 640.425 118.929C648.002 118.839 705.71 118.839 710.022 118.929C710.501 121.234 710.501 127.075 710.022 129.38ZM635.439 74.353C635.439 83.0817 641.28 89.1168 651.641 89.1168C661.988 89.1168 667.842 83.0817 667.842 74.353C667.842 65.6242 661.988 59.5892 651.641 59.5892C641.293 59.5892 635.439 65.6372 635.439 74.353ZM696.696 83.1724C696.605 77.9015 696.696 72.4363 696.696 67.4503C691.71 67.5409 684.911 67.4503 682.411 67.3596C681.932 65.3523 681.932 59.6928 682.411 57.5819C684.911 57.4912 691.801 57.3876 696.696 57.4912C696.696 53.1787 696.787 50.1093 696.787 49.0603C699.092 48.4905 705.606 48.4905 707.911 49.0603C708.391 53.8521 708.391 103.79 707.911 108.595C705.995 108.983 699.48 108.983 696.787 108.595C696.696 107.157 696.696 100.928 696.696 93.1574C691.71 93.248 684.911 93.1574 682.411 92.9631C681.932 91.0464 681.932 85.2963 682.411 83.276C684.911 83.1724 691.71 83.0817 696.696 83.1724Z" fill="#46C1BB"/>
<path d="M716.64 80.4916C721.432 80.2973 764.855 80.2973 770.709 80.4916C770.994 83.6516 771.098 88.0677 770.709 90.9428C764.855 91.1371 721.432 91.1371 716.64 90.9428C716.265 88.0677 716.265 83.5609 716.64 80.4916ZM719.515 98.506C723.633 97.9361 763.806 97.9361 767.834 98.506C768.507 103.401 768.507 126.402 767.834 131.284C763.431 131.854 723.931 131.854 719.515 131.284C718.945 126.402 718.945 103.401 719.515 98.506ZM755.272 61.221C750.571 61.5059 726.133 61.5059 720.098 61.221C719.709 59.5892 719.709 53.075 720.098 51.1583C726.612 50.4849 762.563 50.4849 766.785 51.1583C767.174 55.186 766.979 72.3456 766.785 74.9358C763.716 75.3243 758.354 75.3243 755.285 74.9358C755.272 72.0478 755.181 65.3393 755.272 61.221ZM730.834 121.804C735.237 121.998 752.021 121.998 756.528 121.804V108.102C752.021 107.908 735.147 107.908 730.834 108.102V121.804Z" fill="#46C1BB"/>
<path d="M836.084 92.8595C830.23 93.0537 781.057 93.0537 776.265 92.8595C775.877 89.8938 775.877 85.4776 776.265 82.4083C778.091 82.3176 786.431 82.3176 796.39 82.3176C796.3 77.7202 796.39 71.8664 796.481 68.7971C798.877 68.4086 805.495 68.4086 807.891 68.7971C807.981 71.7628 808.085 77.6165 807.981 82.3176C820.828 82.3176 833.287 82.3176 836.071 82.4083C836.369 85.5683 836.473 89.9844 836.084 92.8595ZM834.647 115.86C834.647 126.881 824.584 133.214 806.181 133.214C787.778 133.214 777.715 126.881 777.715 115.86C777.715 104.93 787.778 98.506 806.181 98.506C824.584 98.506 834.647 104.93 834.647 115.86ZM779.723 61.221C779.334 59.5892 779.334 53.075 779.723 51.1583C786.237 50.4849 827.938 50.4849 832.16 51.1583C832.549 55.186 832.354 72.8248 832.16 75.5056C829.091 75.7905 823.729 75.7905 820.66 75.5056C820.66 72.5399 820.569 65.3393 820.66 61.221C815.959 61.5059 785.758 61.5059 779.723 61.221ZM822.952 115.86C822.952 111.353 817.681 108.193 806.181 108.193C794.681 108.193 789.41 111.353 789.41 115.86C789.41 120.457 794.681 123.527 806.181 123.527C817.681 123.527 822.952 120.457 822.952 115.86Z" fill="#46C1BB"/>
<path d="M844.619 94.4913C843.945 85.7625 843.945 59.8871 844.619 51.1583C849.216 50.7698 876.438 50.7698 882.966 51.1583C883.25 52.9844 883.25 58.6309 882.966 60.9361C878.549 61.0267 859.292 61.0267 856.119 60.9361C855.834 63.4356 855.834 81.165 856.119 84.6099C860.82 84.4156 882.383 84.4156 886.501 84.6099C886.786 86.436 886.786 92.2767 886.501 94.4783C880.958 94.8668 850.952 94.8668 844.619 94.4913ZM908.556 118.929C909.126 121.234 909.126 127.075 908.556 129.38C902.042 129.665 852.48 129.769 847.209 129.38C846.924 123.242 846.82 107.338 847.209 101.964C849.514 101.394 855.938 101.394 858.618 101.964C858.618 105.707 858.709 115.096 858.618 118.929C865.042 118.839 904.347 118.839 908.556 118.929ZM917.091 81.6442C914.98 81.8385 910.758 81.9291 906.924 81.9291C906.924 94.4913 906.73 106.38 906.536 108.582C904.528 108.97 898.105 108.97 895.411 108.582C895.126 103.88 895.126 53.8521 895.411 49.0474C897.716 48.4775 904.231 48.4775 906.536 49.0474C906.73 50.9641 906.821 60.5476 906.924 71.3873C910.758 71.3873 914.98 71.4779 917.091 71.6722C917.57 73.2004 917.57 80.2067 917.091 81.6442Z" fill="#46C1BB"/>
<path d="M920.069 115.769C923.514 115.381 976.728 115.484 980.847 115.769C981.235 118.45 981.326 123.436 980.847 126.026C976.728 126.22 923.527 126.22 920.069 126.026C919.59 123.242 919.59 118.359 920.069 115.769ZM921.792 76.3733C921.792 60.172 933.875 49.8244 950.076 49.8244C966.277 49.8244 978.451 60.0813 978.451 76.3733C978.451 92.6652 966.368 102.922 950.076 102.922C933.875 102.922 921.792 92.6652 921.792 76.3733ZM967.041 76.3733C967.041 66.1164 959.854 60.172 950.076 60.172C940.298 60.172 933.111 66.1164 933.111 76.3733C933.111 86.6302 940.298 92.6652 950.076 92.6652C959.854 92.6652 967.041 86.6302 967.041 76.3733ZM986.985 49.0474C989.291 48.4775 995.895 48.4775 998.201 49.0474C998.68 53.8391 998.68 125.547 998.201 130.235C996.284 130.909 989.575 130.909 986.985 130.235C986.597 125.638 986.597 53.8391 986.985 49.0474Z" fill="#46C1BB"/>
<path d="M425.872 217.03C426.351 220.864 426.442 228.336 425.872 231.794C420.316 232.079 371.518 232.079 366.92 231.794C366.35 228.051 366.35 220.67 366.92 217.03C368.837 216.836 378.226 216.746 388.962 216.746C388.962 210.516 388.962 203.134 389.247 200.169C392.99 199.599 402.094 199.599 404.969 200.169C405.254 203.134 405.254 210.516 405.254 216.746C415.239 216.746 423.761 216.836 425.872 217.03ZM368.073 199.301C369.316 196.711 375.843 184.926 381.011 175.718C375.066 175.718 370.559 175.627 369.213 175.524C368.733 173.413 368.733 162.871 369.213 160.475C371.323 160.19 379.275 159.996 388.483 159.905C388.483 156.266 388.574 152.238 388.768 150.218C392.032 149.739 402.185 149.739 405.539 150.218C405.733 152.225 405.824 156.253 405.824 159.905C414.838 159.996 422.414 160.19 424.227 160.475C424.706 162.677 424.706 173.037 424.227 175.524C422.699 175.614 418.477 175.614 413.102 175.718C418.179 184.822 424.603 196.322 425.846 198.912C423.346 201.114 415.498 206.204 412.235 207.343C410.227 204.663 402.068 189.614 397.095 179.733C392.019 189.601 383.769 205.038 381.658 207.719C378.42 206.579 370.559 201.503 368.073 199.301ZM445.621 233.905C442.837 234.579 433.448 234.579 429.705 233.905C429.135 229.204 429.135 157.509 429.705 152.717C432.969 152.148 442.358 152.148 445.621 152.717C446.295 157.496 446.295 229.204 445.621 233.905Z" fill="white" stroke="#61D5DB" stroke-width="2.9293" stroke-miterlimit="10" stroke-linecap="round" stroke-linejoin="round"/>
<path d="M450.607 196.802C451.76 192.295 466.42 158.17 468.635 153.948C471.795 153.754 481.197 153.754 484.357 153.948C486.753 158.066 503.045 191.336 504.482 195.843C501.892 197.851 493.267 201.788 489.913 202.461C488.281 199.974 482.052 185.69 476.975 175.329C472.572 185.871 466.912 200.156 465.566 202.746C462.211 202.176 453.301 198.718 450.607 196.802ZM456.746 205.621C460.01 205.051 469.684 205.051 473.038 205.621C473.129 208.781 473.232 216.163 473.038 218.753C477.441 218.559 520.204 218.559 524.413 218.753C524.983 222.017 524.983 230.642 524.413 233.802C517.899 234.19 463.636 234.19 456.733 233.802C456.371 227.287 456.267 211.371 456.746 205.621ZM507.552 152.705C510.815 152.135 520.204 152.135 523.468 152.705C524.141 157.496 524.141 207.434 523.468 212.239C520.684 212.627 511.294 212.627 507.552 212.239C507.176 207.538 507.176 157.496 507.552 152.705Z" fill="white" stroke="#61D5DB" stroke-width="2.9293" stroke-miterlimit="10" stroke-linecap="round" stroke-linejoin="round"/>
<path d="M608.891 211.177C607.842 211.267 604.384 211.371 599.501 211.371C599.592 219.996 599.501 231.211 599.216 234.371C596.536 234.954 587.613 234.954 584.077 234.371C583.792 231.211 583.688 219.996 583.792 211.462H571.813C571.903 219.996 571.813 231.211 571.528 234.371C568.847 234.954 559.924 234.954 556.389 234.371C556.104 231.211 556 219.996 556.104 211.371C551.118 211.371 547.673 211.28 546.714 211.177C546.041 207.434 546.041 200.156 546.714 196.504C550.651 196.025 604.138 196.115 608.929 196.504C609.551 200.35 609.655 207.732 608.891 211.177ZM549.551 190.184C548.786 186.156 548.786 157.691 549.551 153.663C553.384 153.184 562.113 153.184 566.127 153.663C566.322 156.823 566.322 172.169 566.127 175.329C570.544 175.135 602.363 175.135 606.676 175.329C607.155 178.114 607.155 187.412 606.676 190.184C601.794 190.572 554.342 190.572 549.551 190.184Z" fill="white" stroke="#61D5DB" stroke-width="2.9293" stroke-miterlimit="10" stroke-linecap="round" stroke-linejoin="round"/>
<path d="M613.967 218.947C617.891 218.468 669.474 218.559 674.265 218.947C674.939 222.781 675.03 230.253 674.265 233.711C669.474 234.099 617.904 234.099 613.967 233.711C613.294 229.968 613.294 222.586 613.967 218.947ZM614.252 204.183C618.759 192.398 633.044 161.239 637.252 153.093C640.037 152.808 648.183 152.808 650.954 153.093C655.176 161.239 669.461 192.398 673.955 204.183C672.038 206.385 662.649 209.739 658.997 210.516C656.989 206.592 645.67 180.134 644.142 175.524C642.51 180.121 631.295 206.579 629.288 210.516C625.571 209.739 616.272 206.385 614.252 204.183Z" fill="white" stroke="#61D5DB" stroke-width="2.9293" stroke-miterlimit="10" stroke-linecap="round" stroke-linejoin="round"/>
<path d="M679.64 190.378C684.341 190.287 727.091 190.287 732.751 190.378C733.139 192.295 733.036 196.802 732.751 198.809C727.091 199.003 684.341 199.003 679.64 198.809C679.252 196.905 679.252 192.398 679.64 190.378ZM682.904 215.982C691.917 215.891 711.279 215.982 718.181 215.982V211.099H682.528C682.049 208.509 682.049 206.022 682.528 203.523C688.278 203.238 723.646 203.238 729.306 203.523C729.979 207.641 729.979 219.815 729.306 222.599C721.73 222.794 699.973 222.69 694.132 222.599V227.78C699.403 227.689 723.362 227.689 731.611 227.78C732.181 229.696 732.181 233.62 731.611 235.641C724.035 236.12 690.972 236.12 682.917 235.641C682.321 231.211 682.321 220.579 682.904 215.982ZM683.564 166.51C687.98 166.419 713.286 166.419 716.821 166.51V161.524C712.703 161.615 687.488 161.615 682.981 161.524C682.502 159.517 682.502 155.683 682.981 153.663C687.203 153.378 723.724 153.378 727.842 153.663C728.231 157.017 728.231 170.149 727.842 173.503H694.87V178.489H729.759C730.148 180.315 730.238 184.434 729.759 186.065C724.294 186.35 690.078 186.35 683.551 186.065C682.994 182.621 682.994 170.253 683.564 166.51Z" fill="#46C1BB"/>
<path d="M754.223 197.281C759.688 188.073 774.737 164.399 782.119 153.469C784.515 153.184 791.132 153.184 793.619 153.469C801.001 164.399 816.049 188.073 821.515 197.281C819.986 199.197 814.612 202.655 811.931 203.51C807.903 197.656 792.285 172.739 787.869 165.746C783.453 172.739 767.834 197.669 763.806 203.51C761.126 202.655 755.751 199.197 754.223 197.281ZM820.945 222.301C821.515 224.982 821.515 229.968 820.945 232.558C817.306 232.843 757.681 232.843 754.702 232.558C754.223 229.774 754.223 224.892 754.702 222.301C756.049 222.107 768.404 222.016 782.209 222.016C782.015 213.871 782.119 198.433 782.3 195.17C784.696 194.885 791.21 194.885 793.606 195.17C793.891 198.433 793.891 213.858 793.8 222.016C807.23 222.107 819.404 222.211 820.945 222.301Z" fill="#46C1BB"/>
<path d="M854.591 155.877C854.979 160.669 854.979 225.954 854.591 230.266C852 230.745 846.354 230.745 843.375 230.266C843.285 224.607 843.181 172.649 843.375 166.523C837.146 166.717 830.632 166.717 826.319 166.523C825.931 164.516 825.931 157.988 826.319 155.877C831.785 155.489 850.563 155.489 854.591 155.877ZM898.209 233.996C896.201 234.566 889.972 234.566 887.188 233.996C887.097 231.691 886.993 212.912 886.993 194.017H875.389C875.389 212.329 875.299 230.344 875.195 232.649C873.188 233.219 866.959 233.219 864.368 232.649C864.084 227.857 864.084 157.885 864.368 153.08C866.674 152.51 872.903 152.51 875.195 153.08C875.286 155.087 875.389 168.414 875.389 183.657C879.029 183.566 883.25 183.566 886.993 183.657C886.993 168.219 887.084 154.712 887.188 152.692C889.778 152.122 895.813 152.122 898.209 152.692C898.688 157.496 898.688 229.295 898.209 233.996Z" fill="#46C1BB"/>
<path d="M906.847 168.336C906.277 166.808 906.277 160.566 906.847 159.037C909.437 158.843 917.104 158.752 925.534 158.752C925.534 155.787 925.534 152.42 925.729 150.322C927.93 149.842 934.742 149.842 937.035 150.322C937.229 152.433 937.229 155.787 937.229 158.752C945.181 158.752 952.187 158.843 954.764 159.037C955.334 160.475 955.334 166.614 954.764 168.336C948.25 168.53 913.076 168.53 906.847 168.336ZM908.09 185.871C908.09 177.622 916.042 171.781 931.388 171.781C946.825 171.781 954.777 177.622 954.777 185.871C954.777 194.108 946.825 199.962 931.388 199.962C916.042 199.962 908.09 194.121 908.09 185.871ZM972.222 202.94C972.61 207.253 972.701 227.961 972.222 233.996C967.715 234.475 916.909 234.566 911.638 233.996C911.069 226.044 911.25 207.343 911.638 202.94C913.555 202.655 920.458 202.655 922.659 202.94C922.75 204.378 922.75 206.774 922.75 209.558C931.66 209.467 952.757 209.364 961.097 209.467C961.097 206.683 961.097 204.287 961.188 202.953C963.596 202.655 970.02 202.655 972.222 202.94ZM918.541 185.871C918.541 189.225 922.659 191.336 931.388 191.336C940.208 191.336 944.326 189.225 944.326 185.871C944.326 182.608 940.208 180.406 931.388 180.406C922.659 180.406 918.541 182.621 918.541 185.871ZM961.201 225.086C961.201 223.933 961.11 221.252 961.11 217.989H922.763C922.763 221.252 922.672 223.933 922.672 225.086C925.249 225.28 958.701 225.28 961.201 225.086ZM982.854 184.149C980.743 184.343 976.534 184.434 972.597 184.434C972.597 191.427 972.506 197.281 972.312 199.003C970.305 199.392 963.881 199.392 961.291 199.003C960.903 194.302 960.903 157.496 961.291 152.705C963.596 152.135 970.02 152.135 972.312 152.705C972.506 154.906 972.701 164.205 972.701 173.982C976.534 173.982 980.756 173.982 982.867 174.177C983.333 175.809 983.333 182.711 982.854 184.149Z" fill="#46C1BB"/>
<path d="M989.575 155.398C992.166 155.204 998.006 155.204 1000.88 155.398C1000.97 161.731 1000.97 212.627 1000.88 218.857C1005.28 218.857 1019.19 218.857 1023.51 218.947C1023.79 221.058 1023.79 227.572 1023.51 229.593C1018.61 229.968 994.367 229.968 989.575 229.593C989.006 225.565 989.006 159.322 989.575 155.398ZM1031.76 152.705C1034.35 152.225 1040.48 152.225 1042.97 152.705C1043.36 157.496 1043.36 229.204 1042.97 233.892C1040.77 234.462 1034.63 234.462 1031.76 233.892C1031.47 229.204 1031.47 157.496 1031.76 152.705Z" fill="#46C1BB"/>
<path d="M1094.45 219.621C1094.84 221.537 1094.84 227.676 1094.45 229.968C1088.89 230.357 1060.89 230.357 1054.57 229.968C1053.9 220.955 1053.9 164.593 1054.57 155.58C1059.17 155.191 1084.39 155.191 1090.9 155.58C1091.29 157.496 1091.29 163.441 1090.9 165.836C1086.5 165.927 1069.24 165.927 1066.08 165.836C1065.79 168.427 1065.79 216.163 1066.08 219.608C1070.78 219.426 1090.33 219.426 1094.45 219.621ZM1125.22 196.517C1123.21 196.711 1118.99 196.711 1115.16 196.711C1115.16 214.635 1114.96 231.704 1114.77 233.905C1112.85 234.579 1106.24 234.579 1103.55 233.905C1103.17 229.204 1103.17 157.509 1103.55 152.717C1105.86 152.148 1112.46 152.148 1114.77 152.717C1114.96 154.828 1115.05 169.489 1115.16 185.793C1118.99 185.793 1123.21 185.884 1125.22 186.078C1125.61 187.607 1125.61 194.988 1125.22 196.517Z" fill="#46C1BB"/>
<g opacity="0.1">
<path d="M973.179 346.45C989.913 346.45 1003.48 332.884 1003.48 316.149C1003.48 299.414 989.913 285.848 973.179 285.848C956.444 285.848 942.878 299.414 942.878 316.149C942.878 332.884 956.444 346.45 973.179 346.45Z" fill="black"/>
</g>
<path d="M962.261 324.602C978.996 324.602 992.562 311.036 992.562 294.301C992.562 277.566 978.996 264 962.261 264C945.526 264 931.96 277.566 931.96 294.301C931.96 311.036 945.526 324.602 962.261 324.602Z" fill="white"/>
<path d="M973.355 282.238C954.475 285.056 941.28 300.326 935.469 308.476C940.538 318.048 950.601 324.589 962.185 324.614C981.795 308.514 973.355 282.238 973.355 282.238Z" fill="#FFD110"/>
<path d="M973.355 282.238C973.355 282.238 973.632 271.522 967.443 264.453C965.758 264.164 964.034 264.013 962.261 264.013C954.412 264.013 947.255 266.994 941.872 271.899C950.714 272.113 965.317 273.836 973.355 282.238Z" fill="#FFD110"/>
<path d="M990.134 282.402C985.681 281.559 980.009 281.182 973.355 282.238C981.153 285.144 987.857 292.917 992.184 299.068C992.423 297.521 992.562 295.923 992.562 294.301C992.562 290.087 991.706 286.062 990.134 282.402Z" fill="#FFD110"/>
<path d="M973.355 286.125C975.501 286.125 977.241 284.385 977.241 282.238C977.241 280.092 975.501 278.352 973.355 278.352C971.208 278.352 969.468 280.092 969.468 282.238C969.468 284.385 971.208 286.125 973.355 286.125Z" fill="#FFD110"/>
<g opacity="0.1">
<path fill-rule="evenodd" clip-rule="evenodd" d="M315 154.52C315 154.52 313.25 159.09 310.95 160.24C308.65 161.39 305.7 160.72 303.98 159.95C302.25 159.18 300.72 160.53 302.25 161.87C303.79 163.21 305.65 164.18 306.26 166.09C306.79 167.78 300.56 172.35 300.86 173.55C301.39 175.66 304.76 173.26 307.19 171.74C310.18 169.86 310.24 168.95 311.78 170.49C313.32 172.03 315.18 177.32 315.18 177.32C315.18 177.32 316.71 180.39 317.86 178.28C319.01 176.17 317.67 172.71 317.86 170.99C318.05 169.26 318.18 168.3 320.61 168.11C323.04 167.92 325.96 169.06 327.26 167.53C328.8 165.72 320.66 164.11 318.58 163.54C317 163.1 317.28 159.66 317.66 156.21C318.04 152.76 317.08 150.62 315 154.52Z" fill="black"/>
</g>
<path fill-rule="evenodd" clip-rule="evenodd" d="M314.24 154.1C314.24 154.1 312.49 158.67 310.19 159.82C307.89 160.97 304.94 160.3 303.22 159.53C301.49 158.76 299.96 160.11 301.49 161.45C303.03 162.79 304.89 163.76 305.5 165.67C306.03 167.36 299.8 171.93 300.1 173.13C300.63 175.24 304 172.84 306.43 171.32C309.42 169.44 309.48 168.53 311.02 170.07C312.56 171.61 314.42 176.9 314.42 176.9C314.42 176.9 315.95 179.97 317.1 177.86C318.25 175.75 316.91 172.29 317.1 170.57C317.29 168.84 317.42 167.88 319.85 167.69C322.28 167.5 325.2 168.64 326.5 167.11C328.04 165.3 319.9 163.69 317.82 163.12C316.24 162.68 316.52 159.24 316.9 155.79C317.29 152.33 316.33 150.2 314.24 154.1Z" fill="#EF922E"/>
<path fill-rule="evenodd" clip-rule="evenodd" d="M311.01 165.03C311.01 164.76 311.23 164.54 311.5 164.54C311.77 164.54 311.99 164.76 311.99 165.03C311.99 165.3 311.77 165.52 311.5 165.52C311.23 165.52 311.01 165.3 311.01 165.03Z" fill="#FFB871"/>
<path fill-rule="evenodd" clip-rule="evenodd" d="M313.84 163.88C313.86 163.71 314.01 163.59 314.18 163.61C314.35 163.63 314.47 163.78 314.45 163.95C314.43 164.12 314.28 164.24 314.11 164.22C313.94 164.2 313.82 164.05 313.84 163.88Z" fill="#FFB871"/>
<path fill-rule="evenodd" clip-rule="evenodd" d="M313.53 168.25C313.55 168.08 313.7 167.96 313.87 167.98C314.04 168 314.16 168.15 314.14 168.32C314.12 168.49 313.97 168.61 313.8 168.59C313.64 168.57 313.52 168.42 313.53 168.25Z" fill="#FFB871"/>
<path fill-rule="evenodd" clip-rule="evenodd" d="M315.13 175.27C315.15 175.1 315.3 174.98 315.47 175C315.64 175.02 315.76 175.17 315.74 175.34C315.72 175.51 315.57 175.63 315.4 175.61C315.24 175.59 315.11 175.44 315.13 175.27Z" fill="#FFB871"/>
<path fill-rule="evenodd" clip-rule="evenodd" d="M314.32 171.43C314.34 171.26 314.49 171.14 314.66 171.16C314.83 171.18 314.95 171.33 314.93 171.5C314.91 171.67 314.76 171.79 314.59 171.77C314.43 171.75 314.31 171.6 314.32 171.43Z" fill="#FFB871"/>
<path fill-rule="evenodd" clip-rule="evenodd" d="M308.82 166.6C308.84 166.43 308.99 166.31 309.16 166.33C309.33 166.35 309.45 166.5 309.43 166.67C309.41 166.84 309.26 166.96 309.09 166.94C308.92 166.92 308.8 166.77 308.82 166.6Z" fill="#FFB871"/>
<path fill-rule="evenodd" clip-rule="evenodd" d="M316.53 165.69C316.55 165.52 316.7 165.4 316.87 165.42C317.04 165.44 317.16 165.59 317.14 165.76C317.12 165.93 316.97 166.05 316.8 166.03C316.63 166.01 316.51 165.86 316.53 165.69Z" fill="#FFB871"/>
<path fill-rule="evenodd" clip-rule="evenodd" d="M319.46 165.69C319.48 165.52 319.63 165.4 319.8 165.42C319.97 165.44 320.09 165.59 320.07 165.76C320.05 165.93 319.9 166.05 319.73 166.03C319.56 166.01 319.44 165.86 319.46 165.69Z" fill="#FFB871"/>
<path fill-rule="evenodd" clip-rule="evenodd" d="M322.92 166.08C322.94 165.91 323.09 165.79 323.26 165.81C323.43 165.83 323.55 165.98 323.53 166.15C323.51 166.32 323.36 166.44 323.19 166.42C323.02 166.4 322.9 166.25 322.92 166.08Z" fill="#FFB871"/>
<path fill-rule="evenodd" clip-rule="evenodd" d="M303.48 161.15C303.5 160.98 303.65 160.86 303.82 160.88C303.99 160.9 304.11 161.05 304.09 161.22C304.07 161.39 303.92 161.51 303.75 161.49C303.58 161.47 303.46 161.32 303.48 161.15Z" fill="#FFB871"/>
<path fill-rule="evenodd" clip-rule="evenodd" d="M306.18 162.44C306.2 162.27 306.35 162.15 306.52 162.17C306.69 162.19 306.81 162.34 306.79 162.51C306.77 162.68 306.62 162.8 306.45 162.78C306.28 162.76 306.16 162.6 306.18 162.44Z" fill="#FFB871"/>
<path fill-rule="evenodd" clip-rule="evenodd" d="M313.39 159.81C313.41 159.64 313.56 159.52 313.73 159.54C313.9 159.56 314.02 159.71 314 159.88C313.98 160.05 313.83 160.17 313.66 160.15C313.49 160.13 313.37 159.97 313.39 159.81Z" fill="#FFB871"/>
<path fill-rule="evenodd" clip-rule="evenodd" d="M303.48 170.79C303.5 170.62 303.65 170.5 303.82 170.52C303.99 170.54 304.11 170.69 304.09 170.86C304.07 171.03 303.92 171.15 303.75 171.13C303.58 171.11 303.46 170.96 303.48 170.79Z" fill="#FFB871"/>
<path fill-rule="evenodd" clip-rule="evenodd" d="M306.18 168.56C306.2 168.39 306.35 168.27 306.52 168.29C306.69 168.31 306.81 168.46 306.79 168.63C306.77 168.8 306.62 168.92 306.45 168.9C306.28 168.88 306.16 168.73 306.18 168.56Z" fill="#FFB871"/>
<path fill-rule="evenodd" clip-rule="evenodd" d="M309.28 162.52C309.3 162.35 309.45 162.23 309.62 162.25C309.79 162.27 309.91 162.42 309.89 162.59C309.87 162.76 309.72 162.88 309.55 162.86C309.38 162.84 309.26 162.69 309.28 162.52Z" fill="#FFB871"/>
<path fill-rule="evenodd" clip-rule="evenodd" d="M314.54 156.73C314.56 156.56 314.71 156.44 314.88 156.46C315.05 156.48 315.17 156.63 315.15 156.8C315.13 156.97 314.98 157.09 314.81 157.07C314.65 157.05 314.53 156.9 314.54 156.73Z" fill="#FFB871"/>
<g opacity="0.1">
<path fill-rule="evenodd" clip-rule="evenodd" d="M352.68 126.37C352.68 126.37 355.53 130.35 355.22 132.91C354.91 135.47 352.73 137.55 351.13 138.57C349.54 139.59 349.81 141.61 351.78 141.07C353.75 140.53 355.59 139.51 357.51 140.06C359.21 140.55 359.59 148.26 360.76 148.67C362.81 149.39 362.67 145.25 362.74 142.4C362.82 138.87 362.1 138.32 364.23 137.88C366.36 137.45 371.8 138.81 371.8 138.81C371.8 138.81 375.21 139.22 374.08 137.1C372.95 134.98 369.33 134.19 368 133.08C366.67 131.97 365.93 131.33 367.11 129.2C368.29 127.07 370.85 125.26 370.3 123.33C369.64 121.05 363.81 126.95 362.18 128.37C360.94 129.45 358.23 127.32 355.56 125.09C352.89 122.86 350.58 122.49 352.68 126.37Z" fill="black"/>
</g>
<path fill-rule="evenodd" clip-rule="evenodd" d="M351.25 124.97C351.25 124.97 354.1 128.95 353.79 131.51C353.48 134.07 351.3 136.15 349.7 137.17C348.11 138.19 348.38 140.21 350.35 139.67C352.32 139.13 354.16 138.11 356.08 138.66C357.78 139.15 358.16 146.86 359.33 147.27C361.38 147.99 361.24 143.85 361.31 141C361.39 137.47 360.67 136.92 362.8 136.48C364.93 136.05 370.37 137.41 370.37 137.41C370.37 137.41 373.78 137.82 372.65 135.7C371.52 133.58 367.9 132.79 366.57 131.68C365.24 130.57 364.5 129.93 365.68 127.8C366.86 125.67 369.42 123.86 368.87 121.93C368.21 119.65 362.38 125.55 360.75 126.97C359.51 128.05 356.8 125.92 354.13 123.69C351.46 121.46 349.15 121.08 351.25 124.97Z" fill="#EDC92F"/>
<g opacity="0.1">
<path fill-rule="evenodd" clip-rule="evenodd" d="M1140.01 243.958C1140.01 243.958 1142.86 247.938 1142.55 250.498C1142.24 253.058 1140.06 255.138 1138.46 256.158C1136.87 257.178 1137.14 259.198 1139.11 258.658C1141.08 258.118 1142.92 257.098 1144.84 257.648C1146.54 258.138 1146.92 265.848 1148.09 266.258C1150.14 266.978 1150 262.838 1150.07 259.988C1150.15 256.458 1149.43 255.908 1151.56 255.468C1153.69 255.038 1159.13 256.398 1159.13 256.398C1159.13 256.398 1162.54 256.808 1161.41 254.688C1160.28 252.568 1156.66 251.778 1155.33 250.668C1154 249.558 1153.26 248.918 1154.44 246.788C1155.62 244.658 1158.18 242.848 1157.63 240.918C1156.97 238.638 1151.14 244.538 1149.51 245.958C1148.27 247.038 1145.56 244.908 1142.89 242.678C1140.22 240.448 1137.91 240.078 1140.01 243.958Z" fill="black"/>
</g>
<path fill-rule="evenodd" clip-rule="evenodd" d="M1138.58 242.558C1138.58 242.558 1141.43 246.538 1141.12 249.098C1140.81 251.658 1138.63 253.738 1137.03 254.758C1135.44 255.778 1135.71 257.798 1137.68 257.258C1139.65 256.718 1141.49 255.698 1143.41 256.248C1145.11 256.738 1145.49 264.448 1146.66 264.858C1148.71 265.578 1148.57 261.438 1148.64 258.588C1148.72 255.058 1148 254.508 1150.13 254.068C1152.26 253.638 1157.7 254.998 1157.7 254.998C1157.7 254.998 1161.11 255.408 1159.98 253.288C1158.85 251.168 1155.23 250.378 1153.9 249.268C1152.57 248.158 1151.83 247.518 1153.01 245.388C1154.19 243.258 1156.75 241.448 1156.2 239.518C1155.54 237.238 1149.71 243.138 1148.08 244.558C1146.84 245.638 1144.13 243.508 1141.46 241.278C1138.79 239.038 1136.48 238.668 1138.58 242.558Z" fill="#EDC92F"/>
<g opacity="0.07">
<path fill-rule="evenodd" clip-rule="evenodd" d="M263.16 116.35C272.86 135 295.84 142.26 314.49 132.56C333.14 122.86 340.4 99.88 330.7 81.23C321 62.58 298.02 55.32 279.37 65.02C260.72 74.71 253.46 97.7 263.16 116.35ZM284.14 105.43C280.47 98.37 283.22 89.67 290.28 86C297.34 82.33 306.04 85.08 309.71 92.14C313.38 99.2 310.63 107.9 303.57 111.57C296.52 115.24 287.82 112.49 284.14 105.43Z" fill="black"/>
</g>
<path fill-rule="evenodd" clip-rule="evenodd" d="M259.25 110.67C268.95 129.32 291.93 136.58 310.58 126.88C329.23 117.18 336.49 94.2 326.79 75.55C317.09 56.9 294.11 49.64 275.46 59.34C256.8 69.04 249.55 92.02 259.25 110.67ZM280.23 99.76C276.56 92.7 279.31 84 286.37 80.33C293.43 76.66 302.13 79.41 305.8 86.47C309.47 93.53 306.72 102.23 299.66 105.9C292.6 109.57 283.9 106.82 280.23 99.76Z" fill="white"/>
<g opacity="0.1">
<path fill-rule="evenodd" clip-rule="evenodd" d="M277.52 101.17C281.97 109.73 292.51 113.06 301.07 108.61C309.63 104.16 312.96 93.62 308.51 85.06C304.06 76.5 293.52 73.17 284.96 77.62C276.4 82.07 273.08 92.61 277.52 101.17ZM280.23 99.76C276.56 92.7 279.31 84 286.37 80.33C293.43 76.66 302.13 79.41 305.8 86.47C309.47 93.53 306.72 102.23 299.66 105.9C292.6 109.57 283.9 106.82 280.23 99.76Z" fill="black"/>
</g>
<path d="M286.37 80.33C288.32 79.32 290.39 78.79 292.44 78.71L288.95 55.25C284.37 55.74 279.79 57.08 275.46 59.33C271.12 61.59 267.4 64.56 264.37 68.03L281.57 84.36C282.81 82.74 284.42 81.34 286.37 80.33Z" fill="#ED8F29"/>
<path d="M299.66 105.9C297.71 106.91 295.64 107.44 293.59 107.52L297.08 130.98C301.66 130.49 306.24 129.15 310.57 126.9C314.91 124.64 318.63 121.67 321.66 118.2L304.46 101.87C303.23 103.49 301.61 104.88 299.66 105.9Z" fill="#ED8F29"/>
<path d="M318.09 64.46L301.76 81.66C303.4 82.91 304.79 84.52 305.8 86.47C306.81 88.42 307.34 90.49 307.42 92.54L330.88 89.05C330.39 84.47 329.05 79.89 326.8 75.56C324.53 71.21 321.56 67.49 318.09 64.46Z" fill="#ED8F29"/>
<path d="M280.23 99.76C279.22 97.81 278.69 95.74 278.61 93.69L255.15 97.18C255.64 101.76 256.98 106.34 259.23 110.67C261.49 115.01 264.46 118.73 267.93 121.76L284.26 104.56C282.64 103.32 281.25 101.71 280.23 99.76Z" fill="#ED8F29"/>
<g opacity="0.1">
<path d="M1242.99 106.236L1228.59 187.133L1385.7 215.108L1400.1 134.212L1242.99 106.236Z" fill="black"/>
</g>
<path d="M1241.74 104.455L1227.33 185.352L1384.44 213.327L1398.85 132.43L1241.74 104.455Z" fill="#6CA7D3"/>
<path opacity="0.1" d="M1361.46 185.911C1359.68 182.095 1358.95 176.558 1364.27 175.721C1366.42 175.46 1367.97 176.887 1367.81 181.654C1367.63 187.225 1367.89 188.006 1368.22 189.41C1368.22 189.41 1369.36 193.18 1366.13 193.611C1362.89 194.041 1362.08 187.259 1361.46 185.911Z" fill="black"/>
<path opacity="0.1" d="M1378.45 187.066C1377.8 182.899 1375.34 177.883 1370.45 180.148C1368.52 181.133 1368.03 183.171 1370.8 187.055C1374.04 191.584 1374.27 192.376 1374.78 193.735C1374.78 193.735 1375.92 197.506 1378.85 196.068C1381.77 194.618 1378.67 188.527 1378.45 187.066Z" fill="black"/>
<path d="M1377.91 186.602C1377.27 182.435 1374.81 177.419 1369.92 179.684C1367.98 180.669 1367.5 182.707 1370.27 186.591C1373.51 191.12 1373.73 191.912 1374.24 193.271C1374.24 193.271 1375.39 197.042 1378.32 195.604C1381.23 194.154 1378.14 188.074 1377.91 186.602Z" fill="#FFD62C"/>
<path d="M1378.51 188.334C1378.32 188.436 1378.11 188.357 1378.01 188.187C1376.89 186.013 1374.97 184.802 1373.41 183.986C1371.88 183.194 1371.43 182.39 1371.4 182.356C1371.3 182.175 1371.37 181.959 1371.54 181.858C1371.71 181.756 1371.93 181.824 1372.04 181.993C1372.05 182.016 1372.44 182.65 1373.73 183.33C1375.39 184.19 1377.45 185.481 1378.66 187.836C1378.75 188.017 1378.68 188.232 1378.51 188.334Z" fill="#555555"/>
<path d="M1371.73 188.742C1371.73 188.742 1371.72 188.742 1371.72 188.753C1371.54 188.844 1371.32 188.776 1371.23 188.595C1370.04 186.217 1371.96 182.831 1372.05 182.684C1372.15 182.514 1372.38 182.446 1372.55 182.548C1372.72 182.65 1372.78 182.877 1372.68 183.046C1372.66 183.08 1370.87 186.228 1371.89 188.266C1371.97 188.436 1371.9 188.651 1371.73 188.742Z" fill="#555555"/>
<path d="M1360.93 185.458C1359.15 181.642 1358.42 176.106 1363.74 175.268C1365.89 175.007 1367.44 176.434 1367.28 181.201C1367.1 186.772 1367.36 187.553 1367.69 188.957C1367.69 188.957 1368.83 192.728 1365.59 193.158C1362.36 193.588 1361.55 186.806 1360.93 185.458Z" fill="#FFD62C"/>
<path d="M1361.38 187.225C1361.19 187.236 1361.01 187.1 1360.99 186.908C1360.68 184.281 1361.68 182.061 1362.57 180.42C1363.28 179.129 1363.24 178.37 1363.24 178.359C1363.23 178.155 1363.39 177.985 1363.58 177.974C1363.78 177.962 1363.95 178.11 1363.96 178.302C1363.96 178.336 1364.03 179.253 1363.2 180.771C1362.36 182.31 1361.43 184.394 1361.7 186.817C1361.72 187.021 1361.57 187.202 1361.38 187.225C1361.39 187.225 1361.39 187.225 1361.38 187.225Z" fill="#555555"/>
<path d="M1367.25 183.805C1367.05 183.816 1366.88 183.681 1366.86 183.488C1366.58 181.235 1363.34 179.604 1363.31 179.593C1363.13 179.502 1363.06 179.287 1363.14 179.106C1363.23 178.925 1363.44 178.857 1363.62 178.936C1363.77 179.004 1367.25 180.759 1367.58 183.397C1367.6 183.601 1367.46 183.782 1367.26 183.805C1367.26 183.805 1367.26 183.805 1367.25 183.805Z" fill="#555555"/>
<path opacity="0.1" d="M1258.23 221.907C1258.43 222.031 1258.63 222.144 1258.82 222.235C1261.21 223.48 1263.16 223.197 1264.41 222.71C1265.14 222.427 1265.71 222.054 1266.11 221.737L1266.43 221.907C1266.67 222.031 1266.95 221.94 1267.07 221.703L1267.19 221.488C1267.68 221.612 1268.73 221.737 1269.38 220.797C1270.26 219.529 1271.24 217.253 1271.57 216.619C1271.73 216.313 1273.03 210.335 1263.98 205.59C1254.44 200.586 1250.1 204.956 1249.93 205.285C1249.6 205.919 1248.28 208.025 1247.75 209.463C1247.35 210.527 1248.04 211.32 1248.42 211.648L1248.31 211.863C1248.19 212.101 1248.28 212.384 1248.52 212.509L1248.83 212.678C1248.8 213.188 1248.81 213.867 1248.99 214.626C1249.33 216.041 1250.33 217.989 1253.17 219.246H1253.18C1253.4 219.336 1253.6 219.336 1253.81 219.291C1254.15 219.699 1254.05 220.05 1254.49 220.74C1255.12 221.703 1256.09 221.578 1256.09 221.578C1256.58 221.431 1257.13 221.363 1257.9 221.522C1257.97 221.68 1258.07 221.805 1258.23 221.907ZM1251.1 207.142C1251.52 206.451 1254.02 202.375 1263.14 207.153C1271.6 211.58 1269.67 215.996 1269.35 216.698C1268.72 218.136 1268.06 219.166 1268.06 219.166L1268.04 219.2C1267.99 219.144 1267.95 219.098 1267.88 219.076L1267.79 219.031C1267.84 218.759 1267.87 218.476 1267.83 218.181C1267.76 217.479 1267.42 216.89 1266.81 216.415C1265.73 215.566 1264.7 215.294 1263.51 214.988C1262.37 214.694 1261.1 214.365 1259.43 213.426L1259.42 213.414L1259.41 213.403C1257.69 212.576 1256.69 211.716 1255.8 210.946C1254.87 210.142 1254.06 209.451 1252.75 209.044C1252.01 208.817 1251.33 208.874 1250.71 209.214C1250.46 209.349 1250.24 209.531 1250.04 209.734L1249.94 209.678C1249.89 209.644 1249.82 209.633 1249.76 209.621L1249.78 209.587C1249.81 209.61 1250.28 208.489 1251.1 207.142Z" fill="black"/>
<path opacity="0.1" d="M1282.38 215.668L1282.14 215.543C1282.14 215.543 1281.11 215 1280.08 216.958C1279.27 218.51 1279.1 218.849 1279.1 218.849C1279.1 218.849 1276.54 225.077 1267.47 229.923C1267.47 229.923 1265.87 230.467 1262.77 231.146C1262.45 231.18 1261.91 231.225 1261.42 231.271L1261.06 229.606C1262.02 229.198 1262.31 228.564 1262.37 228.032C1262.4 227.862 1262.17 227.794 1262.09 227.942C1261.57 228.904 1260.44 229.029 1260.44 229.029L1259.87 229.153C1259.87 229.153 1258.82 229.504 1257.95 228.881C1257.81 228.78 1257.64 228.949 1257.73 229.085C1258.03 229.538 1258.57 230.014 1259.56 229.968L1259.87 231.418C1259.5 231.452 1259.2 231.474 1259.07 231.474C1258.57 231.497 1258.58 231.757 1258.67 232.222C1258.76 232.686 1258.92 233.558 1258.92 233.558C1258.92 233.558 1258.99 233.977 1259.51 233.999C1260.04 234.022 1263.13 233.456 1263.63 233.354C1263.63 233.354 1266.96 232.697 1269.17 231.995C1269.17 231.995 1277.62 227.002 1281.39 220.05C1281.39 220.05 1281.61 219.619 1282.37 218.159C1283.39 216.256 1282.38 215.668 1282.38 215.668Z" fill="black"/>
<path d="M1255.64 221.114C1255.64 221.114 1254.65 221.25 1254.04 220.276C1253.42 219.314 1253.88 218.997 1252.67 218.295C1251.46 217.593 1247.37 214.807 1249.04 211.116C1250.63 207.549 1253.01 209.18 1253.75 209.723C1254.53 210.312 1256.93 212.339 1258.06 212.939C1259.19 213.539 1262.02 214.796 1264.39 215.339C1266.02 215.871 1267.52 217.083 1267.01 218.691C1266.45 220.174 1264.59 222.235 1262.59 222.178C1260.54 222.11 1260.21 222.054 1258.66 221.431C1257.21 220.876 1256.34 220.899 1255.64 221.114Z" fill="white"/>
<path d="M1258.38 221.771C1258.19 221.669 1257.99 221.567 1257.8 221.442H1257.79C1257.2 221.057 1257.22 220.231 1257.26 219.359C1257.29 218.317 1257.27 217.559 1256.75 217.298H1256.74L1256.72 217.287C1256.71 217.287 1256.71 217.275 1256.7 217.275C1256.19 217.015 1255.57 217.423 1254.74 218.045C1254.04 218.566 1253.37 219.053 1252.73 218.793H1252.72C1249.87 217.536 1248.88 215.588 1248.54 214.173C1248.18 212.644 1248.48 211.41 1248.5 211.354C1248.53 211.274 1248.99 209.497 1250.3 208.761C1250.92 208.421 1251.6 208.364 1252.34 208.591C1253.66 208.998 1254.46 209.689 1255.39 210.493C1256.27 211.263 1257.28 212.124 1259 212.95L1259.01 212.961L1259.02 212.973C1260.68 213.913 1261.97 214.241 1263.1 214.535C1264.29 214.841 1265.32 215.102 1266.41 215.962C1267.02 216.438 1267.36 217.038 1267.42 217.728C1267.57 219.223 1266.37 220.627 1266.31 220.684C1266.28 220.718 1265.44 221.68 1263.98 222.258C1262.71 222.733 1260.76 223.016 1258.38 221.771ZM1258.25 220.718C1262.7 223.435 1265.53 220.253 1265.66 220.118C1265.67 220.106 1266.67 218.929 1266.56 217.796C1266.52 217.332 1266.29 216.947 1265.87 216.619C1264.93 215.883 1264.03 215.645 1262.88 215.351C1261.71 215.045 1260.36 214.705 1258.62 213.709C1256.8 212.837 1255.75 211.931 1254.83 211.138C1253.94 210.369 1253.24 209.757 1252.09 209.406C1251.58 209.248 1251.14 209.282 1250.73 209.508C1249.75 210.063 1249.34 211.557 1249.34 211.569C1249.3 211.739 1248.29 215.894 1253.07 218C1253.27 218.079 1253.84 217.66 1254.24 217.355C1255.08 216.732 1256.11 215.962 1257.14 216.539C1258.2 217.06 1258.15 218.351 1258.13 219.393C1258.09 219.891 1258.07 220.593 1258.25 220.718Z" fill="#6CA7D3"/>
<path d="M1268.92 216.234C1268.29 217.672 1267.63 218.702 1267.63 218.702L1266.46 220.933C1266.46 220.933 1268.06 221.589 1268.93 220.333C1269.8 219.064 1270.79 216.789 1271.12 216.155C1271.27 215.849 1272.58 209.87 1263.53 205.126C1253.98 200.121 1249.65 204.492 1249.48 204.82C1249.15 205.454 1247.82 207.56 1247.29 208.998C1246.75 210.436 1248.2 211.376 1248.2 211.376L1249.36 209.146C1249.36 209.146 1249.84 208.025 1250.66 206.677C1251.07 205.987 1253.58 201.91 1262.7 206.689C1271.16 211.116 1269.22 215.532 1268.92 216.234Z" fill="white"/>
<path d="M1249.9 209.417L1249.53 209.225C1249.3 209.1 1249.01 209.191 1248.89 209.429L1247.86 211.399C1247.73 211.637 1247.82 211.92 1248.06 212.044L1248.82 212.441L1249.9 209.417Z" fill="#6CA7D3"/>
<path d="M1267.08 218.419L1267.45 218.612C1267.68 218.736 1267.78 219.019 1267.65 219.257L1266.62 221.227C1266.5 221.465 1266.21 221.556 1265.98 221.431L1265.22 221.035L1267.08 218.419Z" fill="#6CA7D3"/>
<path d="M1280.97 219.585C1280.97 219.585 1281.19 219.155 1281.95 217.694C1282.95 215.792 1281.95 215.192 1281.95 215.192L1281.71 215.068C1281.71 215.068 1280.68 214.524 1279.65 216.483C1278.84 218.034 1278.67 218.374 1278.67 218.374L1280.97 219.585Z" fill="white"/>
<path d="M1278.67 218.374C1278.67 218.374 1276.11 224.601 1267.04 229.448L1268.74 231.52C1268.74 231.52 1277.18 226.526 1280.96 219.574L1278.67 218.374Z" fill="#6CA7D3"/>
<path d="M1267.04 229.448C1267.04 229.448 1265.44 229.991 1262.34 230.67L1263.21 232.878C1263.21 232.878 1266.54 232.222 1268.75 231.52L1267.04 229.448Z" fill="white"/>
<path d="M1261.66 227.466C1261.14 228.428 1260.01 228.553 1260.01 228.553L1259.44 228.678C1259.44 228.678 1258.39 229.029 1257.52 228.406C1257.38 228.304 1257.21 228.474 1257.3 228.61C1257.6 229.063 1258.14 229.538 1259.12 229.493L1259.53 231.338L1261.05 231.01L1260.64 229.142C1261.6 228.734 1261.89 228.1 1261.96 227.568C1261.97 227.398 1261.74 227.319 1261.66 227.466Z" fill="#6CA7D3"/>
<path d="M1262.33 230.67C1262.33 230.67 1259.15 230.987 1258.63 230.999C1258.13 231.021 1258.14 231.282 1258.23 231.746C1258.32 232.21 1258.48 233.082 1258.48 233.082C1258.48 233.082 1258.55 233.501 1259.07 233.524C1259.6 233.546 1262.69 232.98 1263.19 232.878C1262.91 231.712 1262.33 230.67 1262.33 230.67Z" fill="#6CA7D3"/>
<g opacity="0.1">
<path fill-rule="evenodd" clip-rule="evenodd" d="M1245.22 55.6869L1256.44 62.3447C1264.1 66.8965 1272.68 69.6819 1281.54 70.4972L1294.53 71.6974L1299.69 83.677C1303.22 91.8634 1308.52 99.1553 1315.21 105.032L1325.01 113.637L1322.15 126.364C1320.19 135.049 1320.19 144.073 1322.15 152.758L1325.01 165.485L1315.21 174.09C1308.52 179.967 1303.22 187.259 1299.69 195.445L1294.53 207.425L1281.54 208.625C1272.68 209.451 1264.1 212.237 1256.44 216.777L1245.22 223.435L1234 216.777C1226.35 212.225 1217.76 209.44 1208.9 208.625L1195.91 207.425L1190.75 195.445C1187.22 187.259 1181.93 179.967 1175.23 174.09L1165.43 165.485L1168.29 152.758C1170.25 144.073 1170.25 135.049 1168.29 126.364L1165.43 113.637L1175.23 105.032C1181.93 99.1553 1187.22 91.8634 1190.75 83.677L1195.91 71.6974L1208.9 70.4972C1217.76 69.6706 1226.35 66.8852 1234 62.3447L1245.22 55.6869Z" fill="black"/>
</g>
<path fill-rule="evenodd" clip-rule="evenodd" d="M1215.79 35L1227.01 41.6578C1234.67 46.2096 1243.25 48.9951 1252.12 49.8103L1265.1 51.0105L1270.27 62.9901C1273.79 71.1765 1279.09 78.4685 1285.78 84.345L1295.58 92.9504L1292.72 105.677C1290.76 114.362 1290.76 123.386 1292.72 132.071L1295.58 144.798L1285.78 153.403C1279.09 159.28 1273.79 166.572 1270.27 174.758L1265.1 186.738L1252.12 187.938C1243.25 188.765 1234.67 191.55 1227.01 196.09L1215.79 202.748L1204.57 196.09C1196.92 191.539 1188.33 188.753 1179.47 187.938L1166.48 186.738L1161.32 174.758C1157.8 166.572 1152.5 159.28 1145.81 153.403L1136 144.798L1138.86 132.071C1140.82 123.386 1140.82 114.362 1138.86 105.677L1136 92.9504L1145.81 84.345C1152.5 78.4685 1157.8 71.1765 1161.32 62.9901L1166.48 51.0105L1179.47 49.8103C1188.33 48.9837 1196.92 46.1983 1204.57 41.6578L1215.79 35Z" fill="white"/>
<path d="M1215.79 191.935L1205.04 185.549C1199.06 181.993 1192.23 179.785 1185.31 179.14L1172.86 177.985L1167.91 166.492C1165.16 160.106 1160.94 154.298 1155.71 149.712L1146.32 141.458L1149.07 129.252C1150.6 122.469 1150.6 115.29 1149.07 108.508L1146.32 96.302L1155.71 88.0476C1160.93 83.4619 1165.16 77.6532 1167.91 71.2671L1172.86 59.7744L1185.31 58.6195C1192.24 57.9741 1199.06 55.7661 1205.04 52.2107L1215.79 45.8246L1226.55 52.2107C1232.53 55.7661 1239.34 57.9741 1246.27 58.6195L1258.73 59.7744L1263.68 71.2671C1266.43 77.6532 1270.64 83.4619 1275.87 88.0476L1285.27 96.302L1282.52 108.508C1280.99 115.29 1280.99 122.469 1282.52 129.252L1285.27 141.458L1275.87 149.712C1270.65 154.298 1266.43 160.106 1263.68 166.492L1258.73 177.985L1246.27 179.14C1239.34 179.785 1232.53 181.993 1226.55 185.549L1215.79 191.935ZM1176.66 172.743L1185.82 173.592C1193.57 174.305 1201.2 176.785 1207.88 180.759L1215.79 185.458L1223.71 180.759C1230.4 176.785 1238.02 174.305 1245.76 173.592L1254.92 172.743L1258.56 164.296C1261.64 157.151 1266.35 150.663 1272.19 145.534L1279.11 139.465L1277.08 130.486C1275.37 122.899 1275.37 114.883 1277.08 107.296L1279.11 98.3175L1272.19 92.2484C1266.35 87.1191 1261.64 80.6311 1258.56 73.4864L1254.92 65.0396L1245.76 64.1903C1238.02 63.477 1230.39 60.9973 1223.71 57.023L1215.79 52.324L1207.88 57.023C1201.19 60.9973 1193.57 63.477 1185.82 64.1903L1176.66 65.0396L1173.03 73.4864C1169.95 80.6311 1165.24 87.1191 1159.39 92.2484L1152.49 98.3175L1154.51 107.296C1156.22 114.883 1156.22 122.899 1154.51 130.486L1152.49 139.465L1159.39 145.534C1165.24 150.663 1169.95 157.151 1173.03 164.296L1176.66 172.743Z" fill="#ED8F29"/>
<path d="M1215.79 172.709L1207.61 167.851C1203.37 165.337 1198.54 163.764 1193.63 163.311L1184.16 162.428L1180.39 153.686C1178.44 149.157 1175.45 145.047 1171.75 141.797L1164.59 135.513L1166.68 126.228C1167.77 121.427 1167.77 116.343 1166.68 111.543L1164.59 102.258L1171.75 95.9736C1175.45 92.724 1178.44 88.6138 1180.39 84.0846L1184.16 75.3434L1193.63 74.4602C1198.54 74.0073 1203.37 72.4334 1207.61 69.9197L1215.79 65.0622L1223.98 69.9197C1228.21 72.4334 1233.05 74.0073 1237.95 74.4602L1247.43 75.3434L1251.2 84.0846C1253.15 88.6138 1256.14 92.7126 1259.84 95.9736L1266.99 102.258L1264.9 111.543C1263.81 116.343 1263.81 121.427 1264.9 126.228L1266.99 135.513L1259.84 141.797C1256.14 145.047 1253.15 149.157 1251.2 153.686L1247.43 162.428L1237.95 163.311C1233.05 163.764 1228.21 165.337 1223.98 167.851L1215.79 172.709ZM1187.96 157.185L1194.14 157.762C1199.86 158.295 1205.5 160.129 1210.45 163.062L1215.79 166.232L1221.14 163.062C1226.08 160.129 1231.71 158.295 1237.44 157.762L1243.62 157.185L1246.08 151.478C1248.36 146.202 1251.83 141.401 1256.16 137.608L1260.82 133.509L1259.45 127.451C1258.19 121.846 1258.19 115.913 1259.45 110.308L1260.82 104.251L1256.16 100.152C1251.84 96.3586 1248.36 91.5577 1246.08 86.2812L1243.62 80.5745L1237.44 79.9971C1231.72 79.4649 1226.08 77.6306 1221.14 74.698L1215.79 71.5275L1210.45 74.698C1205.5 77.6306 1199.87 79.4649 1194.14 79.9971L1187.96 80.5745L1185.5 86.2812C1183.23 91.5577 1179.74 96.3586 1175.43 100.152L1170.76 104.251L1172.13 110.308C1173.4 115.913 1173.4 121.846 1172.13 127.451L1170.76 133.509L1175.43 137.608C1179.74 141.401 1183.23 146.202 1185.5 151.478L1187.96 157.185Z" fill="#ED8F29"/>
<path d="M1215.79 153.177L1210.21 149.87C1207.74 148.41 1204.93 147.493 1202.08 147.232L1195.63 146.632L1193.06 140.676C1191.92 138.049 1190.19 135.649 1188.03 133.758L1183.16 129.478L1184.59 123.149C1185.22 120.352 1185.22 117.396 1184.59 114.6L1183.16 108.27L1188.03 103.99C1190.18 102.099 1191.92 99.7102 1193.06 97.0719L1195.63 91.1161L1202.08 90.516C1204.93 90.2556 1207.74 89.3384 1210.21 87.8778L1215.79 84.5715L1221.37 87.8778C1223.84 89.3384 1226.65 90.2556 1229.5 90.516L1235.96 91.1161L1238.53 97.0719C1239.66 99.6988 1241.39 102.099 1243.56 103.99L1248.42 108.27L1247 114.6C1246.36 117.396 1246.36 120.352 1247 123.149L1248.42 129.478L1243.56 133.758C1241.4 135.649 1239.66 138.038 1238.53 140.676L1235.96 146.632L1229.5 147.232C1226.65 147.493 1223.84 148.41 1221.37 149.87L1215.79 153.177ZM1199.44 141.378L1202.6 141.673C1206.27 142.012 1209.89 143.19 1213.06 145.07L1215.79 146.689L1218.52 145.07C1221.69 143.19 1225.3 142.012 1228.98 141.673L1232.14 141.378L1233.4 138.468C1234.86 135.083 1237.09 132.003 1239.86 129.569L1242.25 127.474L1241.55 124.383C1240.74 120.782 1240.74 116.978 1241.55 113.388L1242.25 110.297L1239.86 108.202C1237.09 105.768 1234.86 102.688 1233.4 99.3025L1232.14 96.3926L1228.98 96.0982C1225.31 95.7585 1221.69 94.5809 1218.52 92.7013L1215.79 91.0821L1213.06 92.7013C1209.89 94.5809 1206.28 95.7585 1202.6 96.0982L1199.44 96.3926L1198.19 99.3025C1196.72 102.688 1194.49 105.768 1191.72 108.202L1189.33 110.297L1190.03 113.388C1190.85 116.989 1190.85 120.793 1190.03 124.383L1189.33 127.474L1191.72 129.569C1194.49 132.003 1196.72 135.083 1198.19 138.468L1199.44 141.378Z" fill="#ED8F29"/>
<path d="M1215.79 135.57L1212.57 133.656C1211.69 133.147 1210.71 132.818 1209.7 132.728L1205.96 132.377L1204.48 128.934C1204.08 128.006 1203.47 127.168 1202.71 126.5L1199.89 124.032L1200.72 120.374C1200.95 119.389 1200.95 118.348 1200.72 117.374L1199.89 113.717L1202.71 111.248C1203.47 110.58 1204.08 109.742 1204.48 108.814L1205.96 105.372L1209.7 105.021C1210.71 104.93 1211.69 104.602 1212.55 104.092L1215.78 102.179L1219.01 104.092C1219.88 104.602 1220.86 104.93 1221.86 105.021L1225.6 105.372L1227.08 108.814C1227.48 109.742 1228.09 110.58 1228.85 111.248L1231.67 113.717L1230.84 117.374C1230.61 118.359 1230.61 119.401 1230.84 120.386L1231.67 124.043L1228.85 126.511C1228.09 127.179 1227.48 128.017 1227.08 128.946L1225.6 132.388L1221.86 132.739C1220.85 132.83 1219.87 133.158 1219.01 133.667L1215.79 135.57ZM1209.79 127.134L1210.22 127.179C1212.04 127.349 1213.84 127.927 1215.42 128.867L1215.79 129.093L1216.17 128.867C1217.74 127.927 1219.54 127.349 1221.36 127.179L1221.79 127.134L1221.96 126.738C1222.69 125.062 1223.8 123.533 1225.17 122.322L1225.5 122.039L1225.41 121.609C1225 119.82 1225 117.94 1225.41 116.151L1225.5 115.721L1225.17 115.438C1223.8 114.226 1222.69 112.697 1221.96 111.022L1221.79 110.625L1221.36 110.58C1219.54 110.41 1217.74 109.833 1216.17 108.893L1215.79 108.667L1215.42 108.893C1213.84 109.833 1212.04 110.41 1210.22 110.58L1209.79 110.625L1209.62 111.022C1208.9 112.709 1207.79 114.226 1206.42 115.438L1206.09 115.721L1206.18 116.151C1206.59 117.94 1206.59 119.82 1206.18 121.609L1206.09 122.028L1206.42 122.311C1207.79 123.522 1208.9 125.051 1209.62 126.726L1209.79 127.134Z" fill="#ED8F29"/>
<g opacity="0.1">
<path d="M93.77 -6.81C112.01 5.23 132.39 13.67 153.81 18.06C158.2 39.47 166.64 59.85 178.68 78.1C166.64 96.34 158.2 116.72 153.81 138.14C132.4 142.53 112.02 150.97 93.77 163.01C75.53 150.97 55.15 142.53 33.73 138.14C29.35 116.72 20.91 96.34 8.87 78.1C20.91 59.86 29.35 39.48 33.74 18.06C55.15 13.68 75.53 5.23 93.77 -6.81Z" fill="black"/>
</g>
<path d="M63.75 -31.68C82 -19.63 102.38 -11.19 123.79 -6.80999C128.18 14.6 136.62 34.98 148.66 53.23C136.62 71.47 128.18 91.85 123.79 113.27C102.38 117.66 82 126.1 63.75 138.14C45.51 126.1 25.13 117.66 3.70998 113.27C-0.670025 91.85 -9.11002 71.47 -21.15 53.23C-9.11002 34.99 -0.670025 14.61 3.71997 -6.80999C25.13 -11.19 45.51 -19.63 63.75 -31.68Z" fill="white"/>
<path d="M61.8 53.23C61.8 52.15 62.68 51.27 63.76 51.27C64.84 51.27 65.72 52.15 65.72 53.23C65.72 54.31 64.84 55.19 63.76 55.19C62.67 55.19 61.8 54.31 61.8 53.23Z" fill="#F45656"/>
<path d="M63.75 -31.68C45.51 -19.63 25.13 -11.19 3.71997 -6.80999L63.76 53.23V-31.68H63.75Z" fill="#F45656"/>
<path d="M63.75 53.23H148.65C136.61 34.99 128.17 14.61 123.78 -6.81L63.75 53.23Z" fill="#F45656"/>
<path d="M63.75 53.23H-21.15C-9.11002 71.47 -0.670025 91.85 3.71997 113.26L63.75 53.23Z" fill="#F45656"/>
<path d="M63.75 53.23V138.13C81.99 126.09 102.37 117.65 123.79 113.26L63.75 53.23Z" fill="#F45656"/>
</g>
</g>
<defs>
<clipPath id="clip0_149_3253">
<rect width="1460" height="367" fill="white"/>
</clipPath>
<clipPath id="clip1_149_3253">
<rect width="1460" height="367" fill="white"/>
</clipPath>
</defs>
</svg>
