<svg width="1460" height="367" viewBox="0 0 1460 367" fill="none" xmlns="http://www.w3.org/2000/svg">
<g clip-path="url(#clip0_149_3255)">
<rect width="1460" height="367" fill="#FFAFB9"/>
<path d="M634.717 217.804L634.183 217.809C643.366 210.094 645.282 200.934 645.151 194.296C645.02 187.659 642.953 179.775 635.308 172.861C639.851 172.071 643.258 168.103 643.165 163.373L642.593 134.41C642.489 129.189 638.139 125.025 632.883 125.12L603.281 125.657C602.775 120.825 598.608 117.09 593.626 117.189L542.313 118.109C537.332 118.195 533.319 122.079 533.001 126.924L503.398 127.462C498.142 127.557 493.956 131.869 494.06 137.09L494.319 150.039C492.553 146.977 490.569 144.135 488.353 141.525C477.885 129.223 462.984 122.878 445.253 123.193C427.59 123.516 413 130.384 403.047 143.055C399.155 148.014 396.064 153.746 393.753 160.181C391.18 153.817 387.862 148.208 383.753 143.392C373.284 131.09 358.383 124.745 340.653 125.06C322.99 125.383 308.399 132.251 298.446 144.922C296.26 147.7 294.332 150.739 292.651 153.997C285.997 135.871 269.057 126.337 243.38 126.801C222.574 127.18 205.691 131.864 193.194 140.743C190.641 142.554 189.162 145.496 189.225 148.603L189.902 182.42C189.979 185.992 192.069 189.214 195.298 190.773C196.66 191.421 198.144 191.73 199.598 191.709C201.602 191.67 203.582 191.017 205.222 189.753C213.955 183.086 221.873 180.01 231.464 179.618C231.218 180.201 230.855 180.852 230.34 181.513C220.259 194.454 206.045 209.974 192.181 224.828C190.507 226.618 189.601 228.988 189.646 231.427L190.171 257.965C190.276 263.185 194.625 267.35 199.881 267.254L286.615 265.7C291.871 265.605 296.057 261.292 295.953 256.072L295.68 242.183C297.16 244.531 298.763 246.758 300.522 248.826C310.953 261.096 325.816 267.409 343.491 267.101C361.166 266.793 375.854 259.909 385.834 247.242C389.724 242.296 392.829 236.566 395.14 230.131C397.711 236.509 401.028 242.13 405.137 246.947C415.568 259.217 430.432 265.53 448.107 265.222C465.782 264.914 480.47 258.031 490.45 245.363C492.556 242.684 494.43 239.761 496.066 236.647L496.503 258.538C496.607 263.758 500.956 267.922 506.213 267.827L635.709 265.501C640.966 265.406 645.152 261.093 645.048 255.872L644.472 227.058C644.368 221.838 640.019 217.673 634.763 217.768L634.717 217.804Z" fill="#002904" stroke="white" stroke-width="3.14034" stroke-miterlimit="10"/>
<path d="M634.551 209.707L634.016 209.712C643.2 201.997 645.116 192.837 644.985 186.199C644.854 179.562 642.786 171.679 635.142 164.764C639.684 163.974 643.091 160.006 642.998 155.276L642.427 126.313C642.322 121.092 637.973 116.928 632.717 117.023L603.114 117.56C602.609 112.728 598.442 108.993 593.459 109.093L542.146 110.012C537.165 110.098 533.152 113.982 532.834 118.827L503.232 119.365C497.976 119.46 493.789 123.773 493.894 128.993L494.152 141.942C492.386 138.88 490.403 136.038 488.187 133.428C477.718 121.126 462.818 114.781 445.087 115.096C427.424 115.419 412.833 122.287 402.881 134.958C398.989 139.917 395.897 145.649 393.587 152.084C391.014 145.72 387.695 140.111 383.586 135.295C373.118 122.993 358.217 116.648 340.486 116.963C322.823 117.286 308.233 124.154 298.28 136.825C296.094 139.603 294.165 142.642 292.485 145.9C285.831 127.774 268.891 118.24 243.213 118.704C222.408 119.083 205.524 123.767 193.028 132.646C190.475 134.457 188.996 137.399 189.058 140.507L189.736 174.323C189.813 177.895 191.903 181.117 195.131 182.676C196.494 183.324 197.978 183.633 199.432 183.612C201.436 183.573 203.416 182.92 205.056 181.656C213.789 174.989 221.706 171.913 231.298 171.521C231.052 172.104 230.688 172.755 230.173 173.416C220.093 186.358 205.878 201.877 192.015 216.731C190.341 218.521 189.435 220.891 189.48 223.33L190.005 249.868C190.109 255.088 194.459 259.253 199.715 259.158L286.448 257.603C291.704 257.508 295.891 253.195 295.786 247.975L295.514 234.086C296.993 236.434 298.596 238.661 300.355 240.729C310.786 252.999 325.65 259.312 343.325 259.004C361 258.696 375.688 251.813 385.668 239.145C389.558 234.199 392.663 228.469 394.973 222.034C397.545 228.412 400.862 234.033 404.971 238.85C415.402 251.12 430.265 257.433 447.94 257.125C465.615 256.818 480.304 249.934 490.283 237.266C492.389 234.587 494.263 231.664 495.9 228.551L496.336 250.441C496.44 255.661 500.79 259.826 506.046 259.73L635.543 257.404C640.799 257.309 644.985 252.996 644.881 247.775L644.306 218.961C644.202 213.741 639.852 209.576 634.596 209.671L634.551 209.707Z" fill="#EFF916" stroke="#E16546" stroke-width="3.14034" stroke-linecap="round" stroke-linejoin="round"/>
<path d="M634.432 203.669L633.897 203.674C643.081 195.959 644.997 186.799 644.866 180.162C644.735 173.524 642.668 165.641 635.023 158.726C639.566 157.936 642.972 153.968 642.879 149.238L642.308 120.275C642.204 115.054 637.854 110.89 632.598 110.985L602.995 111.522C602.49 106.69 598.323 102.955 593.34 103.055L542.028 103.974C537.046 104.06 533.033 107.945 532.716 112.789L503.113 113.327C497.857 113.422 493.671 117.735 493.775 122.955L494.034 135.904C492.268 132.842 490.284 130.001 488.068 127.39C477.6 115.088 462.699 108.743 444.968 109.058C427.238 109.373 412.715 116.249 402.762 128.92C398.87 133.879 395.779 139.611 393.468 146.046C390.895 139.682 387.577 134.073 383.468 129.257C372.999 116.955 358.098 110.61 340.368 110.925C322.637 111.24 308.114 118.116 298.161 130.787C295.975 133.565 294.047 136.604 292.366 139.862C285.712 121.736 268.772 112.202 243.095 112.666C222.289 113.045 205.406 117.729 192.909 126.609C190.356 128.419 188.877 131.361 188.94 134.469L189.617 168.286C189.694 171.857 191.784 175.079 195.013 176.638C196.375 177.286 197.859 177.595 199.313 177.574C201.317 177.535 203.297 176.882 204.937 175.618C213.67 168.951 221.588 165.875 231.179 165.483C230.933 166.066 230.57 166.717 230.054 167.378C219.974 180.32 205.76 195.839 191.896 210.693C190.222 212.483 189.316 214.853 189.361 217.292L189.886 243.83C189.991 249.05 194.34 253.215 199.596 253.12L286.33 251.565C291.586 251.47 295.772 247.157 295.668 241.937L295.395 228.048C296.875 230.396 298.478 232.623 300.237 234.691C310.668 246.961 325.531 253.274 343.206 252.967C360.923 252.65 375.569 245.775 385.549 233.107C389.439 228.161 392.544 222.431 394.855 215.996C397.426 222.374 400.743 227.995 404.852 232.812C415.283 245.082 430.147 251.396 447.822 251.088C465.539 250.771 480.185 243.896 490.165 231.228C492.271 228.55 494.145 225.627 495.781 222.513L496.218 244.403C496.322 249.623 500.671 253.788 505.928 253.693L635.424 251.366C640.681 251.271 644.867 246.958 644.763 241.737L644.187 212.923C644.083 207.703 639.734 203.538 634.477 203.633L634.432 203.669Z" fill="white" stroke="#553835" stroke-width="3.14034" stroke-linecap="round" stroke-linejoin="round"/>
<path d="M199.392 243.699L198.867 217.162C214.421 200.492 227.726 185.846 237.563 173.229C240.685 169.228 241.515 164.81 241.145 161.639C240.77 158.155 237.206 155.945 232.169 156.038C220.408 156.246 210.096 159.778 199.108 168.167L198.43 134.35C208.075 127.504 222.183 122.538 243.249 122.163C271.19 121.663 285.488 133.54 285.978 158.265C286.306 174.499 276.655 188.932 263.944 202.356C259.457 207.137 251.223 215.629 245.983 220.88L249.214 222.181C252.815 218.779 258.512 213.364 262.421 210.257L285.477 209.841L286.112 242.143L199.379 243.698L199.392 243.699Z" fill="#34FD68" stroke="#553835" stroke-width="3.14034" stroke-linecap="round" stroke-linejoin="round"/>
<path d="M293.36 182.841C292.556 142.346 311.224 120.926 340.538 120.396C369.853 119.866 389.514 140.609 390.317 181.104C391.121 221.599 372.453 243.018 342.973 243.556C313.659 244.086 294.145 223.497 293.345 182.853L293.36 182.841ZM323.935 176.066L321.261 180.215C332.975 185.468 348.584 186.552 363.09 186.296L363.003 181.744C348.498 182 334.561 180.431 323.934 176.08L323.935 176.066Z" fill="#34FD68" stroke="#553835" stroke-width="3.14034" stroke-linecap="round" stroke-linejoin="round"/>
<path d="M397.962 180.96C397.158 140.465 415.826 119.046 445.141 118.516C474.619 117.991 494.116 138.728 494.919 179.223C495.723 219.718 477.055 241.138 447.576 241.676C418.261 242.206 398.747 221.616 397.947 180.972L397.962 180.96ZM428.538 174.186L425.863 178.335C437.577 183.588 453.186 184.671 467.692 184.416L467.606 179.864C453.1 180.119 439.163 178.551 428.536 174.199L428.538 174.186Z" fill="#34FD68" stroke="#553835" stroke-width="3.14034" stroke-linecap="round" stroke-linejoin="round"/>
<path d="M635.193 241.942L505.696 244.269L505.121 215.455L546.196 214.717L546.083 209.101C517.772 206.43 503.386 197.425 503.099 182.719C502.729 164.372 524.525 153.964 568.66 153.174C612.795 152.385 634.984 161.999 635.341 180.344C635.628 195.05 621.615 204.719 593.128 208.256L593.241 213.871L634.618 213.128L635.193 241.942ZM633.354 149.421L503.857 151.748L503.286 122.784L539.173 122.136C540.497 127.117 548.408 133.505 554.673 133.691L556.591 130.623C548.159 129.41 542.406 123.899 542.307 118.747L542.199 113.445L593.511 112.525L593.683 121.167L632.781 120.471L633.352 149.434L633.354 149.421ZM550.941 176.092L549.353 180.666C561.183 184.097 578.166 185.15 589.611 184.946L589.525 180.394C578.066 180.596 562.454 179.064 550.942 176.078L550.941 176.092Z" fill="#34FD68" stroke="#553835" stroke-width="3.14034" stroke-linecap="round" stroke-linejoin="round"/>
<path d="M270.007 135.871C270.774 133.927 268.403 131.181 264.71 129.737C261.017 128.294 257.402 128.699 256.634 130.643C255.866 132.586 258.237 135.332 261.93 136.776C265.623 138.22 269.239 137.814 270.007 135.871Z" fill="white"/>
<path d="M368.774 138.113C369.541 136.169 367.17 133.424 363.477 131.98C359.784 130.536 356.168 130.942 355.401 132.885C354.633 134.829 357.004 137.575 360.697 139.018C364.39 140.462 368.006 140.057 368.774 138.113Z" fill="white"/>
<path d="M473.385 136.232C474.152 134.289 471.781 131.543 468.088 130.099C464.395 128.655 460.78 129.061 460.012 131.004C459.244 132.948 461.615 135.694 465.308 137.138C469.001 138.581 472.617 138.176 473.385 136.232Z" fill="white"/>
<path d="M628.169 133.458C628.936 131.515 626.565 128.769 622.872 127.325C619.179 125.881 615.564 126.287 614.796 128.23C614.028 130.174 616.399 132.92 620.092 134.364C623.785 135.807 627.401 135.402 628.169 133.458Z" fill="white"/>
<path d="M614.078 169.14C614.845 167.196 612.474 164.45 608.781 163.007C605.089 161.563 601.473 161.968 600.705 163.912C599.937 165.856 602.309 168.602 606.001 170.045C609.694 171.489 613.31 171.083 614.078 169.14Z" fill="white"/>
<path d="M216.215 107.347C215.541 107.133 214.873 106.987 214.203 106.868C214.684 106.38 215.14 105.876 215.548 105.311C220.194 98.9306 218.753 90.0189 212.336 85.3824C205.903 80.7578 196.933 82.1746 192.275 88.5402C191.867 89.1047 191.511 89.6888 191.194 90.291C190.88 89.6969 190.525 89.098 190.112 88.5331C185.431 82.1543 176.446 80.7545 170.046 85.3807C163.631 90.0187 162.236 98.9401 166.904 105.304C167.318 105.869 167.778 106.385 168.257 106.862C167.586 106.974 166.911 107.127 166.243 107.335C158.701 109.774 154.586 117.822 157.055 125.316C159.524 132.811 167.633 136.91 175.176 134.471C175.845 134.249 176.479 133.983 177.089 133.687C176.997 134.356 176.931 135.042 176.932 135.736C176.946 143.611 183.392 150.005 191.321 150.004C199.251 150.002 205.678 143.611 205.664 135.736C205.663 135.043 205.592 134.354 205.492 133.69C206.1 133.992 206.739 134.27 207.412 134.485C214.963 136.914 223.055 132.811 225.489 125.316C227.923 117.822 223.779 109.778 216.228 107.349L216.215 107.347Z" fill="white"/>
<path d="M216.215 107.347C215.541 107.133 214.873 106.987 214.203 106.868C214.684 106.38 215.14 105.876 215.548 105.311C220.194 98.9306 218.753 90.0189 212.336 85.3824C205.903 80.7578 196.933 82.1746 192.275 88.5402C191.867 89.1047 191.511 89.6888 191.194 90.291C190.88 89.6969 190.525 89.098 190.112 88.5331C185.431 82.1543 176.446 80.7545 170.046 85.3807C163.631 90.0187 162.236 98.9401 166.904 105.304C167.318 105.869 167.778 106.385 168.257 106.862C167.586 106.974 166.911 107.127 166.243 107.335C158.701 109.774 154.586 117.822 157.055 125.316C159.524 132.811 167.633 136.91 175.176 134.471C175.845 134.249 176.479 133.983 177.089 133.687C176.997 134.356 176.931 135.042 176.932 135.736C176.946 143.611 183.392 150.005 191.321 150.004C199.251 150.002 205.678 143.611 205.664 135.736C205.663 135.043 205.592 134.354 205.492 133.69C206.1 133.992 206.739 134.27 207.412 134.485C214.963 136.914 223.055 132.811 225.489 125.316C227.923 117.822 223.779 109.778 216.228 107.349L216.215 107.347Z" stroke="#553835" stroke-width="3.14034" stroke-linecap="round" stroke-linejoin="round"/>
<path d="M197.158 119.715C200.342 116.468 200.269 111.269 196.994 108.101C193.719 104.934 188.484 104.998 185.3 108.245C182.116 111.492 182.189 116.692 185.464 119.86C188.738 123.027 193.974 122.963 197.158 119.715Z" fill="#FFC600" stroke="#553835" stroke-width="3.14034" stroke-linecap="round" stroke-linejoin="round"/>
<g clip-path="url(#clip1_149_3255)">
<path d="M908.1 138.094H843.438C842.784 138.094 842.13 138.172 841.522 138.344C840.915 138.187 840.277 138.094 839.607 138.094H803.454C801.788 138.094 800.262 138.641 799.017 139.563C797.771 138.641 796.245 138.094 794.579 138.094H758.924C758.099 138.094 757.32 138.219 756.573 138.469C755.841 138.219 755.047 138.094 754.222 138.094H689.934C685.792 138.094 682.444 141.469 682.444 145.609V177.563C682.444 181.609 685.636 184.922 689.653 185.078C691.21 185.141 692.783 185.172 694.34 185.172C699.992 185.172 705.457 184.797 710.688 184.031C709.053 201.953 702.031 206.109 689.14 207.469C685.325 207.875 682.429 211.094 682.429 214.953V247.266C682.429 249.344 683.285 251.328 684.796 252.75C686.197 254.063 688.034 254.797 689.934 254.797C690.089 254.797 690.245 254.797 690.401 254.797C713.024 253.406 730.524 246.641 742.42 234.703C745.876 231.234 748.881 227.312 751.419 222.953V247.297C751.419 251.453 754.782 254.813 758.908 254.813H794.564C798.705 254.813 802.053 251.438 802.053 247.297V245.016C806.708 250.594 814.727 254.813 828.366 254.813H908.084C912.226 254.813 915.573 251.438 915.573 247.297V200.859C915.573 200.281 915.511 199.719 915.386 199.188C915.511 198.656 915.573 198.094 915.573 197.516V145.625C915.573 141.469 912.21 138.109 908.084 138.109L908.1 138.094ZM694.029 177.641C694.947 177.641 695.866 177.641 696.769 177.609C695.959 177.625 695.15 177.641 694.34 177.641C694.231 177.641 694.122 177.641 694.029 177.641ZM708.867 176.688C709.567 176.594 710.252 176.484 710.937 176.375C710.252 176.484 709.552 176.594 708.867 176.688ZM701.782 177.391C702.592 177.344 703.402 177.281 704.196 177.203C703.386 177.281 702.592 177.328 701.782 177.391ZM705.441 177.078C706.157 177 706.874 176.922 707.574 176.844C706.874 176.938 706.157 177.016 705.441 177.078ZM718.567 174.828C717.524 175.094 716.48 175.328 715.422 175.547C716.48 175.328 717.539 175.094 718.567 174.828ZM714.378 175.75C713.647 175.891 712.93 176.031 712.183 176.156C712.915 176.031 713.647 175.891 714.378 175.75ZM873.192 226.328C871.744 226.406 870.265 226.453 868.77 226.453C870.28 226.453 871.759 226.406 873.192 226.328ZM842.488 222.016C841.476 221.625 840.464 221.203 839.514 220.75C840.479 221.203 841.476 221.609 842.488 222.016ZM844.029 218.391C844.169 218.453 844.31 218.5 844.45 218.563C844.31 218.516 844.169 218.453 844.029 218.391ZM850.989 220.594C851.145 220.641 851.3 220.672 851.472 220.703C851.316 220.656 851.145 220.625 850.989 220.594ZM858.089 222C858.245 222.031 858.416 222.047 858.572 222.078C858.416 222.063 858.245 222.031 858.089 222ZM861.763 222.469C861.966 222.484 862.153 222.516 862.355 222.531C862.153 222.516 861.966 222.5 861.763 222.469ZM865.516 222.766C865.671 222.766 865.843 222.766 865.998 222.781C865.843 222.781 865.671 222.781 865.516 222.766ZM868.365 226.469C867.306 226.469 866.216 226.438 865.142 226.391C866.232 226.438 867.306 226.453 868.365 226.469ZM864.846 226.391C863.741 226.344 862.62 226.266 861.483 226.172C862.604 226.266 863.725 226.344 864.846 226.391ZM860.891 226.109C859.786 226.016 858.696 225.891 857.591 225.734C858.681 225.875 859.786 226 860.891 226.109ZM856.999 225.656C855.878 225.5 854.741 225.328 853.636 225.109C854.757 225.312 855.878 225.484 856.999 225.656ZM853.371 225.062C852.281 224.859 851.207 224.625 850.148 224.375C851.207 224.625 852.297 224.859 853.371 225.062ZM845.96 223.25C844.932 222.938 843.936 222.594 842.955 222.219C843.936 222.594 844.932 222.922 845.96 223.25Z" fill="#002904"/>
<path d="M697.392 177.609C698.528 177.578 699.665 177.531 700.801 177.469M847.392 219.563C847.579 219.625 847.766 219.672 847.953 219.734M849.712 224.281C848.638 224.016 847.595 223.734 846.552 223.422M908.1 138.094H843.438C842.784 138.094 842.13 138.172 841.522 138.344C840.915 138.187 840.277 138.094 839.607 138.094H803.454C801.788 138.094 800.262 138.641 799.017 139.563C797.771 138.641 796.245 138.094 794.579 138.094H758.924C758.099 138.094 757.32 138.219 756.573 138.469C755.841 138.219 755.047 138.094 754.222 138.094H689.934C685.792 138.094 682.444 141.469 682.444 145.609V177.563C682.444 181.609 685.636 184.922 689.653 185.078C691.21 185.141 692.783 185.172 694.34 185.172C699.992 185.172 705.457 184.797 710.688 184.031C709.053 201.953 702.031 206.109 689.14 207.469C685.325 207.875 682.429 211.094 682.429 214.953V247.266C682.429 249.344 683.285 251.328 684.796 252.75C686.197 254.063 688.034 254.797 689.934 254.797C690.089 254.797 690.245 254.797 690.401 254.797C713.024 253.406 730.524 246.641 742.42 234.703C745.876 231.234 748.881 227.313 751.419 222.953V247.297C751.419 251.453 754.782 254.813 758.908 254.813H794.564C798.705 254.813 802.053 251.438 802.053 247.297V245.016C806.708 250.594 814.727 254.813 828.366 254.813H908.084C912.226 254.813 915.573 251.438 915.573 247.297V200.859C915.573 200.281 915.511 199.719 915.386 199.188C915.511 198.656 915.573 198.094 915.573 197.516V145.625C915.573 141.469 912.21 138.109 908.084 138.109L908.1 138.094ZM694.029 177.641C694.947 177.641 695.866 177.641 696.769 177.609C695.959 177.625 695.15 177.641 694.34 177.641C694.231 177.641 694.122 177.641 694.029 177.641ZM708.867 176.688C709.567 176.594 710.252 176.484 710.937 176.375C710.252 176.484 709.552 176.594 708.867 176.688ZM701.782 177.391C702.592 177.344 703.402 177.281 704.196 177.203C703.386 177.281 702.592 177.328 701.782 177.391ZM705.441 177.078C706.157 177 706.874 176.922 707.574 176.844C706.874 176.938 706.157 177.016 705.441 177.078ZM718.567 174.828C717.524 175.094 716.48 175.328 715.422 175.547C716.48 175.328 717.539 175.094 718.567 174.828ZM714.378 175.75C713.647 175.891 712.93 176.031 712.183 176.156C712.915 176.031 713.647 175.891 714.378 175.75ZM873.192 226.328C871.744 226.406 870.265 226.453 868.77 226.453C870.28 226.453 871.759 226.406 873.192 226.328ZM842.488 222.016C841.476 221.625 840.464 221.203 839.514 220.75C840.479 221.203 841.476 221.609 842.488 222.016ZM844.029 218.391C844.169 218.453 844.31 218.5 844.45 218.563C844.31 218.516 844.169 218.453 844.029 218.391ZM850.989 220.594C851.145 220.641 851.3 220.672 851.472 220.703C851.316 220.656 851.145 220.625 850.989 220.594ZM858.089 222C858.245 222.031 858.416 222.047 858.572 222.078C858.416 222.063 858.245 222.031 858.089 222ZM861.763 222.469C861.966 222.484 862.153 222.516 862.355 222.531C862.153 222.516 861.966 222.5 861.763 222.469ZM865.516 222.766C865.671 222.766 865.843 222.766 865.998 222.781C865.843 222.781 865.671 222.781 865.516 222.766ZM868.365 226.469C867.306 226.469 866.216 226.437 865.142 226.391C866.232 226.437 867.306 226.453 868.365 226.469ZM864.846 226.391C863.741 226.344 862.62 226.266 861.483 226.172C862.604 226.266 863.725 226.344 864.846 226.391ZM860.891 226.109C859.786 226.016 858.696 225.891 857.591 225.734C858.681 225.875 859.786 226 860.891 226.109ZM856.999 225.656C855.878 225.5 854.741 225.328 853.636 225.109C854.757 225.312 855.878 225.484 856.999 225.656ZM853.371 225.063C852.281 224.859 851.207 224.625 850.148 224.375C851.207 224.625 852.297 224.859 853.371 225.063ZM845.96 223.25C844.932 222.938 843.936 222.594 842.955 222.219C843.936 222.594 844.932 222.922 845.96 223.25Z" stroke="white" stroke-width="3.14" stroke-miterlimit="10"/>
<path d="M1269.56 145.625C1269.56 141.469 1266.19 138.109 1262.07 138.109H1157.44C1155.77 138.109 1154.24 138.656 1153 139.578C1151.75 138.656 1150.23 138.109 1148.56 138.109H1124.01C1123.48 138.109 1122.96 138.172 1122.47 138.266C1121.97 138.156 1121.45 138.109 1120.92 138.109H1096.37C1095.86 138.109 1095.37 138.156 1094.89 138.25C1094.41 138.156 1093.91 138.109 1093.41 138.109H1070.71C1070.01 138.109 1069.33 138.203 1068.67 138.391C1068.02 138.203 1067.35 138.109 1066.63 138.109H1043.93C1042.27 138.109 1040.74 138.656 1039.49 139.578C1038.25 138.656 1036.72 138.109 1035.06 138.109H999.402C995.26 138.109 991.912 141.484 991.912 145.625V149.25C985.093 140.609 975.221 136.234 962.516 136.234C949.017 136.234 938.71 141.219 931.89 151.047C925.04 160.922 921.708 175.75 921.708 196.375C921.708 217 925.04 231.828 931.89 241.703C938.71 251.531 949.017 256.516 962.516 256.516C975.206 256.516 985.093 252.125 991.912 243.469V247.266C991.912 251.422 995.276 254.781 999.402 254.781H1035.06C1039.2 254.781 1042.55 251.406 1042.55 247.266V235.359C1043.65 237.344 1044.93 239.188 1046.42 240.891C1055.76 251.563 1072.14 256.531 1097.99 256.531C1120.5 256.531 1135.25 254.891 1150.55 250.688C1150.62 250.672 1150.68 250.641 1150.76 250.609C1151.99 253.078 1154.52 254.781 1157.47 254.781H1262.1C1266.24 254.781 1269.59 251.406 1269.59 247.266V221.266C1269.59 220.609 1269.51 219.953 1269.34 219.344C1269.49 218.734 1269.59 218.094 1269.59 217.422V195.5C1269.59 194.859 1269.51 194.234 1269.35 193.641C1269.51 193.047 1269.59 192.422 1269.59 191.781V171.109C1269.59 170.484 1269.51 169.891 1269.37 169.312C1269.51 168.734 1269.59 168.141 1269.59 167.516V145.594L1269.56 145.625ZM1124.38 221.062C1124.01 221.094 1123.65 221.125 1123.28 221.156C1123.65 221.125 1124.02 221.094 1124.38 221.062ZM1121.36 221.281C1121.02 221.297 1120.68 221.328 1120.32 221.344C1120.66 221.328 1121.02 221.297 1121.36 221.281ZM1100.9 221.531C1103.47 221.609 1106.01 221.641 1108.53 221.641C1106.01 221.641 1103.46 221.594 1100.9 221.531ZM1118.01 221.453C1117.8 221.453 1117.56 221.469 1117.34 221.484C1117.58 221.484 1117.8 221.469 1118.01 221.453ZM1114.31 221.578C1114.06 221.578 1113.81 221.578 1113.54 221.578C1113.79 221.578 1114.04 221.578 1114.31 221.578ZM1111.24 221.625C1110.87 221.625 1110.49 221.625 1110.13 221.625C1110.51 221.625 1110.88 221.625 1111.24 221.625ZM1126.17 220.906C1126.53 220.875 1126.9 220.844 1127.26 220.797C1126.9 220.828 1126.53 220.875 1126.17 220.906ZM1129.11 220.594C1129.44 220.562 1129.77 220.516 1130.08 220.484C1129.75 220.531 1129.43 220.562 1129.11 220.594ZM1132.37 220.172C1132.52 220.156 1132.68 220.125 1132.82 220.109C1132.66 220.125 1132.51 220.156 1132.37 220.172ZM1135.5 219.672C1135.75 219.625 1136 219.578 1136.23 219.531C1135.98 219.578 1135.75 219.625 1135.5 219.672Z" fill="#002904"/>
<path d="M1138.1 219.172C1138.41 219.109 1138.72 219.031 1139.03 218.969M1140.62 218.594C1140.93 218.516 1141.26 218.438 1141.57 218.359M1143.1 217.938C1143.39 217.844 1143.7 217.766 1144 217.672M1145.56 217.172C1145.81 217.094 1146.05 217.016 1146.3 216.922M1269.56 145.625C1269.56 141.469 1266.19 138.109 1262.07 138.109H1157.44C1155.77 138.109 1154.24 138.656 1153 139.578C1151.75 138.656 1150.23 138.109 1148.56 138.109H1124.01C1123.48 138.109 1122.96 138.172 1122.47 138.266C1121.97 138.156 1121.45 138.109 1120.92 138.109H1096.37C1095.86 138.109 1095.37 138.156 1094.89 138.25C1094.41 138.156 1093.91 138.109 1093.41 138.109H1070.71C1070.01 138.109 1069.33 138.203 1068.67 138.391C1068.02 138.203 1067.35 138.109 1066.63 138.109H1043.93C1042.27 138.109 1040.74 138.656 1039.49 139.578C1038.25 138.656 1036.72 138.109 1035.06 138.109H999.402C995.26 138.109 991.912 141.484 991.912 145.625V149.25C985.093 140.609 975.221 136.234 962.516 136.234C949.017 136.234 938.71 141.219 931.89 151.047C925.04 160.922 921.708 175.75 921.708 196.375C921.708 217 925.04 231.828 931.89 241.703C938.71 251.531 949.017 256.516 962.516 256.516C975.206 256.516 985.093 252.125 991.912 243.469V247.266C991.912 251.422 995.276 254.781 999.402 254.781H1035.06C1039.2 254.781 1042.55 251.406 1042.55 247.266V235.359C1043.65 237.344 1044.93 239.188 1046.42 240.891C1055.76 251.563 1072.14 256.531 1097.99 256.531C1120.5 256.531 1135.25 254.891 1150.55 250.688C1150.62 250.672 1150.68 250.641 1150.76 250.609C1151.99 253.078 1154.52 254.781 1157.47 254.781H1262.1C1266.24 254.781 1269.59 251.406 1269.59 247.266V221.266C1269.59 220.609 1269.51 219.953 1269.34 219.344C1269.49 218.734 1269.59 218.094 1269.59 217.422V195.5C1269.59 194.859 1269.51 194.234 1269.35 193.641C1269.51 193.047 1269.59 192.422 1269.59 191.781V171.109C1269.59 170.484 1269.51 169.891 1269.37 169.312C1269.51 168.734 1269.59 168.141 1269.59 167.516V145.594L1269.56 145.625ZM1124.38 221.063C1124.01 221.094 1123.65 221.125 1123.28 221.156C1123.65 221.125 1124.02 221.094 1124.38 221.063ZM1121.36 221.281C1121.02 221.297 1120.68 221.328 1120.32 221.344C1120.66 221.328 1121.02 221.297 1121.36 221.281ZM1100.9 221.531C1103.47 221.609 1106.01 221.641 1108.53 221.641C1106.01 221.641 1103.46 221.594 1100.9 221.531ZM1118.01 221.453C1117.8 221.453 1117.56 221.469 1117.34 221.484C1117.58 221.484 1117.8 221.469 1118.01 221.453ZM1114.31 221.578C1114.06 221.578 1113.81 221.578 1113.54 221.578C1113.79 221.578 1114.04 221.578 1114.31 221.578ZM1111.24 221.625C1110.87 221.625 1110.49 221.625 1110.13 221.625C1110.51 221.625 1110.88 221.625 1111.24 221.625ZM1126.17 220.906C1126.53 220.875 1126.9 220.844 1127.26 220.797C1126.9 220.828 1126.53 220.875 1126.17 220.906ZM1129.11 220.594C1129.44 220.562 1129.77 220.516 1130.08 220.484C1129.75 220.531 1129.43 220.562 1129.11 220.594ZM1132.37 220.172C1132.52 220.156 1132.68 220.125 1132.82 220.109C1132.66 220.125 1132.51 220.156 1132.37 220.172ZM1135.5 219.672C1135.75 219.625 1136 219.578 1136.23 219.531C1135.98 219.578 1135.75 219.625 1135.5 219.672Z" stroke="white" stroke-width="3.14" stroke-miterlimit="10"/>
<path d="M908.1 130.578H843.438C842.784 130.578 842.13 130.656 841.522 130.828C840.915 130.672 840.277 130.578 839.607 130.578H803.454C801.788 130.578 800.262 131.125 799.017 132.047C797.771 131.125 796.245 130.578 794.579 130.578H758.924C758.099 130.578 757.32 130.703 756.573 130.953C755.841 130.703 755.047 130.578 754.222 130.578H689.934C685.792 130.578 682.444 133.953 682.444 138.094V170.047C682.444 174.094 685.636 177.406 689.653 177.562C691.21 177.625 692.783 177.656 694.34 177.656C699.992 177.656 705.457 177.281 710.688 176.516C709.053 194.437 702.031 198.594 689.14 199.953C685.325 200.359 682.429 203.578 682.429 207.437V239.75C682.429 241.828 683.285 243.812 684.796 245.234C686.197 246.547 688.034 247.281 689.934 247.281C690.089 247.281 690.245 247.281 690.401 247.281C713.024 245.891 730.524 239.125 742.42 227.187C745.876 223.719 748.881 219.797 751.419 215.437V239.781C751.419 243.938 754.782 247.297 758.908 247.297H794.564C798.705 247.297 802.053 243.922 802.053 239.781V237.5C806.708 243.078 814.727 247.297 828.366 247.297H908.084C912.226 247.297 915.573 243.922 915.573 239.781V193.344C915.573 192.766 915.511 192.203 915.386 191.672C915.511 191.141 915.573 190.578 915.573 190V138.094C915.573 133.937 912.21 130.578 908.084 130.578H908.1ZM694.029 170.125C694.947 170.125 695.866 170.125 696.769 170.094C695.959 170.109 695.15 170.125 694.34 170.125C694.231 170.125 694.122 170.125 694.029 170.125ZM708.867 169.172C709.567 169.078 710.252 168.969 710.937 168.859C710.252 168.969 709.552 169.078 708.867 169.172ZM701.782 169.875C702.592 169.828 703.402 169.766 704.196 169.687C703.386 169.766 702.592 169.812 701.782 169.875ZM705.441 169.562C706.157 169.484 706.874 169.406 707.574 169.328C706.874 169.422 706.157 169.5 705.441 169.562ZM718.567 167.312C717.524 167.578 716.48 167.812 715.422 168.031C716.48 167.812 717.539 167.578 718.567 167.312ZM714.378 168.234C713.647 168.375 712.93 168.516 712.183 168.641C712.915 168.516 713.647 168.375 714.378 168.234ZM873.192 218.812C871.744 218.891 870.265 218.937 868.77 218.937C870.28 218.937 871.759 218.891 873.192 218.812ZM842.488 214.5C841.476 214.109 840.464 213.687 839.514 213.234C840.479 213.687 841.476 214.094 842.488 214.5ZM844.029 210.875C844.169 210.937 844.31 210.984 844.45 211.047C844.31 211 844.169 210.937 844.029 210.875ZM850.989 213.078C851.145 213.125 851.3 213.156 851.472 213.187C851.316 213.141 851.145 213.109 850.989 213.078ZM858.089 214.484C858.245 214.516 858.416 214.531 858.572 214.562C858.416 214.547 858.245 214.516 858.089 214.484ZM861.763 214.953C861.966 214.969 862.153 215 862.355 215.016C862.153 215 861.966 214.984 861.763 214.953ZM865.516 215.25C865.671 215.25 865.843 215.25 865.998 215.266C865.843 215.266 865.671 215.266 865.516 215.25ZM868.365 218.953C867.306 218.953 866.216 218.922 865.142 218.875C866.232 218.922 867.306 218.937 868.365 218.953ZM864.846 218.875C863.741 218.828 862.62 218.75 861.483 218.656C862.604 218.75 863.725 218.828 864.846 218.875ZM860.891 218.594C859.786 218.5 858.696 218.375 857.591 218.219C858.681 218.359 859.786 218.484 860.891 218.594ZM856.999 218.141C855.878 217.984 854.741 217.812 853.636 217.594C854.757 217.797 855.878 217.969 856.999 218.141ZM853.371 217.547C852.281 217.344 851.207 217.109 850.148 216.859C851.207 217.109 852.297 217.344 853.371 217.547ZM845.96 215.734C844.932 215.422 843.936 215.078 842.955 214.703C843.936 215.078 844.932 215.406 845.96 215.734Z" fill="#EFF916"/>
<path d="M697.392 170.094C698.528 170.062 699.665 170.016 700.801 169.953M847.392 212.047C847.579 212.109 847.766 212.156 847.953 212.219M849.712 216.766C848.638 216.5 847.595 216.219 846.552 215.906M908.1 130.578H843.438C842.784 130.578 842.13 130.656 841.522 130.828C840.915 130.672 840.277 130.578 839.607 130.578H803.454C801.788 130.578 800.262 131.125 799.017 132.047C797.771 131.125 796.245 130.578 794.579 130.578H758.924C758.099 130.578 757.32 130.703 756.573 130.953C755.841 130.703 755.047 130.578 754.222 130.578H689.934C685.792 130.578 682.444 133.953 682.444 138.094V170.047C682.444 174.094 685.636 177.406 689.653 177.562C691.21 177.625 692.783 177.656 694.34 177.656C699.992 177.656 705.457 177.281 710.688 176.516C709.053 194.437 702.031 198.594 689.14 199.953C685.325 200.359 682.429 203.578 682.429 207.437V239.75C682.429 241.828 683.285 243.812 684.796 245.234C686.197 246.547 688.034 247.281 689.934 247.281C690.089 247.281 690.245 247.281 690.401 247.281C713.024 245.891 730.524 239.125 742.42 227.187C745.876 223.719 748.881 219.797 751.419 215.437V239.781C751.419 243.938 754.782 247.297 758.908 247.297H794.564C798.705 247.297 802.053 243.922 802.053 239.781V237.5C806.708 243.078 814.727 247.297 828.366 247.297H908.084C912.226 247.297 915.573 243.922 915.573 239.781V193.344C915.573 192.766 915.511 192.203 915.386 191.672C915.511 191.141 915.573 190.578 915.573 190V138.094C915.573 133.937 912.21 130.578 908.084 130.578H908.1ZM694.029 170.125C694.947 170.125 695.866 170.125 696.769 170.094C695.959 170.109 695.15 170.125 694.34 170.125C694.231 170.125 694.122 170.125 694.029 170.125ZM708.867 169.172C709.567 169.078 710.252 168.969 710.937 168.859C710.252 168.969 709.552 169.078 708.867 169.172ZM701.782 169.875C702.592 169.828 703.402 169.766 704.196 169.687C703.386 169.766 702.592 169.812 701.782 169.875ZM705.441 169.562C706.157 169.484 706.874 169.406 707.574 169.328C706.874 169.422 706.157 169.5 705.441 169.562ZM718.567 167.312C717.524 167.578 716.48 167.812 715.422 168.031C716.48 167.812 717.539 167.578 718.567 167.312ZM714.378 168.234C713.647 168.375 712.93 168.516 712.183 168.641C712.915 168.516 713.647 168.375 714.378 168.234ZM873.192 218.812C871.744 218.891 870.265 218.937 868.77 218.937C870.28 218.937 871.759 218.891 873.192 218.812ZM842.488 214.5C841.476 214.109 840.464 213.687 839.514 213.234C840.479 213.687 841.476 214.094 842.488 214.5ZM844.029 210.875C844.169 210.937 844.31 210.984 844.45 211.047C844.31 211 844.169 210.937 844.029 210.875ZM850.989 213.078C851.145 213.125 851.3 213.156 851.472 213.187C851.316 213.141 851.145 213.109 850.989 213.078ZM858.089 214.484C858.245 214.516 858.416 214.531 858.572 214.562C858.416 214.547 858.245 214.516 858.089 214.484ZM861.763 214.953C861.966 214.969 862.153 215 862.355 215.016C862.153 215 861.966 214.984 861.763 214.953ZM865.516 215.25C865.671 215.25 865.843 215.25 865.998 215.266C865.843 215.266 865.671 215.266 865.516 215.25ZM868.365 218.953C867.306 218.953 866.216 218.922 865.142 218.875C866.232 218.922 867.306 218.937 868.365 218.953ZM864.846 218.875C863.741 218.828 862.62 218.75 861.483 218.656C862.604 218.75 863.725 218.828 864.846 218.875ZM860.891 218.594C859.786 218.5 858.696 218.375 857.591 218.219C858.681 218.359 859.786 218.484 860.891 218.594ZM856.999 218.141C855.878 217.984 854.741 217.812 853.636 217.594C854.757 217.797 855.878 217.969 856.999 218.141ZM853.371 217.547C852.281 217.344 851.207 217.109 850.148 216.859C851.207 217.109 852.297 217.344 853.371 217.547ZM845.96 215.734C844.932 215.422 843.936 215.078 842.955 214.703C843.936 215.078 844.932 215.406 845.96 215.734Z" stroke="#E16546" stroke-width="3.14" stroke-linecap="round" stroke-linejoin="round"/>
<path d="M1269.56 138.094C1269.56 133.937 1266.19 130.578 1262.07 130.578H1157.44C1155.77 130.578 1154.24 131.125 1153 132.047C1151.75 131.125 1150.23 130.578 1148.56 130.578H1124.01C1123.48 130.578 1122.96 130.641 1122.47 130.734C1121.97 130.625 1121.45 130.578 1120.92 130.578H1096.37C1095.86 130.578 1095.37 130.625 1094.89 130.719C1094.41 130.625 1093.91 130.578 1093.41 130.578H1070.71C1070.01 130.578 1069.33 130.672 1068.67 130.859C1068.02 130.672 1067.35 130.578 1066.63 130.578H1043.93C1042.27 130.578 1040.74 131.125 1039.49 132.047C1038.25 131.125 1036.72 130.578 1035.06 130.578H999.402C995.26 130.578 991.912 133.953 991.912 138.094V141.719C985.093 133.078 975.221 128.703 962.516 128.703C949.017 128.703 938.71 133.687 931.89 143.516C925.04 153.391 921.708 168.219 921.708 188.844C921.708 209.469 925.04 224.297 931.89 234.172C938.71 244 949.017 248.984 962.516 248.984C975.206 248.984 985.093 244.594 991.912 235.937V239.734C991.912 243.891 995.276 247.25 999.402 247.25H1035.06C1039.2 247.25 1042.55 243.875 1042.55 239.734V227.828C1043.65 229.812 1044.93 231.656 1046.42 233.359C1055.76 244.031 1072.14 249 1097.99 249C1120.5 249 1135.25 247.359 1150.55 243.156C1150.62 243.141 1150.68 243.109 1150.76 243.078C1151.99 245.547 1154.52 247.25 1157.47 247.25H1262.1C1266.24 247.25 1269.59 243.875 1269.59 239.734V213.734C1269.59 213.078 1269.51 212.422 1269.34 211.812C1269.49 211.203 1269.59 210.562 1269.59 209.891V187.969C1269.59 187.328 1269.51 186.703 1269.35 186.109C1269.51 185.516 1269.59 184.891 1269.59 184.25V163.578C1269.59 162.953 1269.51 162.359 1269.37 161.781C1269.51 161.203 1269.59 160.609 1269.59 159.984V138.094H1269.56ZM1124.38 213.531C1124.01 213.562 1123.65 213.594 1123.28 213.625C1123.65 213.594 1124.02 213.562 1124.38 213.531ZM1121.36 213.75C1121.02 213.766 1120.68 213.797 1120.32 213.812C1120.66 213.797 1121.02 213.766 1121.36 213.75ZM1100.9 214C1103.47 214.078 1106.01 214.109 1108.53 214.109C1106.01 214.109 1103.46 214.062 1100.9 214ZM1118.01 213.922C1117.8 213.922 1117.56 213.938 1117.34 213.953C1117.58 213.953 1117.8 213.938 1118.01 213.922ZM1114.31 214.047C1114.06 214.047 1113.81 214.047 1113.54 214.047C1113.79 214.047 1114.04 214.047 1114.31 214.047ZM1111.24 214.094C1110.87 214.094 1110.49 214.094 1110.13 214.094C1110.51 214.094 1110.88 214.094 1111.24 214.094ZM1126.17 213.375C1126.53 213.344 1126.9 213.312 1127.26 213.266C1126.9 213.297 1126.53 213.344 1126.17 213.375ZM1129.11 213.062C1129.44 213.031 1129.77 212.984 1130.08 212.953C1129.75 213 1129.43 213.031 1129.11 213.062ZM1132.37 212.641C1132.52 212.625 1132.68 212.594 1132.82 212.578C1132.66 212.594 1132.51 212.625 1132.37 212.641ZM1135.5 212.141C1135.75 212.094 1136 212.047 1136.23 212C1135.98 212.047 1135.75 212.094 1135.5 212.141Z" fill="#EFF916"/>
<path d="M1138.1 211.641C1138.41 211.578 1138.72 211.5 1139.03 211.438M1140.62 211.062C1140.93 210.984 1141.26 210.906 1141.57 210.828M1143.1 210.406C1143.39 210.313 1143.7 210.234 1144 210.141M1145.56 209.641C1145.81 209.562 1146.05 209.484 1146.3 209.391M1269.56 138.094C1269.56 133.937 1266.19 130.578 1262.07 130.578H1157.44C1155.77 130.578 1154.24 131.125 1153 132.047C1151.75 131.125 1150.23 130.578 1148.56 130.578H1124.01C1123.48 130.578 1122.96 130.641 1122.47 130.734C1121.97 130.625 1121.45 130.578 1120.92 130.578H1096.37C1095.86 130.578 1095.37 130.625 1094.89 130.719C1094.41 130.625 1093.91 130.578 1093.41 130.578H1070.71C1070.01 130.578 1069.33 130.672 1068.67 130.859C1068.02 130.672 1067.35 130.578 1066.63 130.578H1043.93C1042.27 130.578 1040.74 131.125 1039.49 132.047C1038.25 131.125 1036.72 130.578 1035.06 130.578H999.402C995.26 130.578 991.912 133.953 991.912 138.094V141.719C985.093 133.078 975.221 128.703 962.516 128.703C949.017 128.703 938.71 133.687 931.89 143.516C925.04 153.391 921.708 168.219 921.708 188.844C921.708 209.469 925.04 224.297 931.89 234.172C938.71 244 949.017 248.984 962.516 248.984C975.206 248.984 985.093 244.594 991.912 235.937V239.734C991.912 243.891 995.276 247.25 999.402 247.25H1035.06C1039.2 247.25 1042.55 243.875 1042.55 239.734V227.828C1043.65 229.813 1044.93 231.656 1046.42 233.359C1055.76 244.031 1072.14 249 1097.99 249C1120.5 249 1135.25 247.359 1150.55 243.156C1150.62 243.141 1150.68 243.109 1150.76 243.078C1151.99 245.547 1154.52 247.25 1157.47 247.25H1262.1C1266.24 247.25 1269.59 243.875 1269.59 239.734V213.734C1269.59 213.078 1269.51 212.422 1269.34 211.812C1269.49 211.203 1269.59 210.562 1269.59 209.891V187.969C1269.59 187.328 1269.51 186.703 1269.35 186.109C1269.51 185.516 1269.59 184.891 1269.59 184.25V163.578C1269.59 162.953 1269.51 162.359 1269.37 161.781C1269.51 161.203 1269.59 160.609 1269.59 159.984V138.094H1269.56ZM1124.38 213.531C1124.01 213.563 1123.65 213.594 1123.28 213.625C1123.65 213.594 1124.02 213.563 1124.38 213.531ZM1121.36 213.75C1121.02 213.766 1120.68 213.797 1120.32 213.813C1120.66 213.797 1121.02 213.766 1121.36 213.75ZM1100.9 214C1103.47 214.078 1106.01 214.109 1108.53 214.109C1106.01 214.109 1103.46 214.063 1100.9 214ZM1118.01 213.922C1117.8 213.922 1117.56 213.938 1117.34 213.953C1117.58 213.953 1117.8 213.938 1118.01 213.922ZM1114.31 214.047C1114.06 214.047 1113.81 214.047 1113.54 214.047C1113.79 214.047 1114.04 214.047 1114.31 214.047ZM1111.24 214.094C1110.87 214.094 1110.49 214.094 1110.13 214.094C1110.51 214.094 1110.88 214.094 1111.24 214.094ZM1126.17 213.375C1126.53 213.344 1126.9 213.312 1127.26 213.266C1126.9 213.297 1126.53 213.344 1126.17 213.375ZM1129.11 213.063C1129.44 213.031 1129.77 212.984 1130.08 212.953C1129.75 213 1129.43 213.031 1129.11 213.063ZM1132.37 212.641C1132.52 212.625 1132.68 212.594 1132.82 212.578C1132.66 212.594 1132.51 212.625 1132.37 212.641ZM1135.5 212.141C1135.75 212.094 1136 212.047 1136.23 212C1135.98 212.047 1135.75 212.094 1135.5 212.141Z" stroke="#E16546" stroke-width="3.14" stroke-linecap="round" stroke-linejoin="round"/>
<path d="M908.1 124.312H843.438C842.784 124.312 842.13 124.391 841.522 124.563C840.915 124.406 840.277 124.312 839.607 124.312H803.454C801.788 124.312 800.262 124.859 799.017 125.781C797.771 124.859 796.245 124.312 794.579 124.312H758.924C758.099 124.312 757.32 124.438 756.573 124.688C755.841 124.438 755.047 124.312 754.222 124.312H689.934C685.808 124.312 682.444 127.672 682.444 131.828V163.781C682.444 167.828 685.636 171.141 689.653 171.297C691.21 171.359 692.783 171.391 694.34 171.391C699.992 171.391 705.457 171.016 710.688 170.25C709.053 188.172 702.031 192.328 689.14 193.688C685.325 194.094 682.429 197.313 682.429 201.172V233.484C682.429 235.562 683.285 237.547 684.796 238.969C686.197 240.281 688.034 241.016 689.934 241.016C690.089 241.016 690.245 241.016 690.401 241.016C713.024 239.625 730.524 232.859 742.42 220.922C745.876 217.453 748.881 213.531 751.419 209.172V233.516C751.419 237.672 754.782 241.031 758.908 241.031H794.564C798.705 241.031 802.053 237.656 802.053 233.516V231.234C806.708 236.813 814.727 241.031 828.366 241.031H908.084C912.226 241.031 915.573 237.656 915.573 233.516V187.078C915.573 186.5 915.511 185.938 915.386 185.406C915.511 184.875 915.573 184.313 915.573 183.734V131.828C915.573 127.672 912.21 124.312 908.084 124.312H908.1ZM694.029 163.859C694.947 163.859 695.866 163.859 696.769 163.828C695.959 163.844 695.15 163.859 694.34 163.859C694.231 163.859 694.122 163.859 694.029 163.859ZM708.867 162.906C709.567 162.812 710.252 162.703 710.937 162.594C710.252 162.703 709.552 162.812 708.867 162.906ZM701.782 163.609C702.592 163.563 703.402 163.5 704.196 163.422C703.386 163.5 702.592 163.547 701.782 163.609ZM705.441 163.297C706.157 163.219 706.874 163.141 707.574 163.062C706.874 163.156 706.157 163.234 705.441 163.297ZM718.567 161.047C717.524 161.313 716.48 161.547 715.422 161.766C716.48 161.547 717.539 161.313 718.567 161.047ZM714.378 161.969C713.647 162.109 712.93 162.25 712.183 162.375C712.915 162.25 713.647 162.109 714.378 161.969ZM873.192 212.547C871.744 212.625 870.265 212.672 868.77 212.672C870.28 212.672 871.759 212.625 873.192 212.547ZM842.488 208.234C841.476 207.844 840.464 207.422 839.514 206.969C840.479 207.422 841.476 207.828 842.488 208.234ZM844.029 204.609C844.169 204.672 844.31 204.719 844.45 204.781C844.31 204.734 844.169 204.672 844.029 204.609ZM850.989 206.813C851.145 206.859 851.3 206.891 851.472 206.922C851.316 206.875 851.145 206.844 850.989 206.813ZM858.089 208.219C858.245 208.25 858.416 208.266 858.572 208.297C858.416 208.281 858.245 208.25 858.089 208.219ZM861.763 208.688C861.966 208.703 862.153 208.734 862.355 208.75C862.153 208.734 861.966 208.719 861.763 208.688ZM865.516 208.984C865.671 208.984 865.843 208.984 865.998 209C865.843 209 865.671 209 865.516 208.984ZM868.365 212.688C867.306 212.688 866.216 212.656 865.142 212.609C866.232 212.656 867.306 212.672 868.365 212.688ZM864.846 212.609C863.741 212.563 862.62 212.484 861.483 212.391C862.604 212.484 863.725 212.563 864.846 212.609ZM860.891 212.328C859.786 212.234 858.696 212.109 857.591 211.953C858.681 212.094 859.786 212.219 860.891 212.328ZM856.999 211.875C855.878 211.719 854.741 211.547 853.636 211.328C854.757 211.531 855.878 211.703 856.999 211.875ZM853.371 211.281C852.281 211.078 851.207 210.844 850.148 210.594C851.207 210.844 852.297 211.078 853.371 211.281ZM845.96 209.469C844.932 209.156 843.936 208.813 842.955 208.438C843.936 208.813 844.932 209.141 845.96 209.469Z" fill="white"/>
<path d="M697.392 163.828C698.528 163.797 699.665 163.75 700.801 163.688M847.392 205.781C847.579 205.844 847.766 205.891 847.953 205.953M849.712 210.5C848.638 210.234 847.595 209.953 846.552 209.641M908.1 124.312H843.438C842.784 124.312 842.13 124.391 841.522 124.563C840.915 124.406 840.277 124.312 839.607 124.312H803.454C801.788 124.312 800.262 124.859 799.017 125.781C797.771 124.859 796.245 124.312 794.579 124.312H758.924C758.099 124.312 757.32 124.438 756.573 124.688C755.841 124.438 755.047 124.312 754.222 124.312H689.934C685.808 124.312 682.444 127.672 682.444 131.828V163.781C682.444 167.828 685.636 171.141 689.653 171.297C691.21 171.359 692.783 171.391 694.34 171.391C699.992 171.391 705.457 171.016 710.688 170.25C709.053 188.172 702.031 192.328 689.14 193.688C685.325 194.094 682.429 197.313 682.429 201.172V233.484C682.429 235.563 683.285 237.547 684.796 238.969C686.197 240.281 688.034 241.016 689.934 241.016C690.089 241.016 690.245 241.016 690.401 241.016C713.024 239.625 730.524 232.859 742.42 220.922C745.876 217.453 748.881 213.531 751.419 209.172V233.516C751.419 237.672 754.782 241.031 758.908 241.031H794.564C798.705 241.031 802.053 237.656 802.053 233.516V231.234C806.708 236.813 814.727 241.031 828.366 241.031H908.084C912.226 241.031 915.573 237.656 915.573 233.516V187.078C915.573 186.5 915.511 185.938 915.386 185.406C915.511 184.875 915.573 184.313 915.573 183.734V131.828C915.573 127.672 912.21 124.312 908.084 124.312H908.1ZM694.029 163.859C694.947 163.859 695.866 163.859 696.769 163.828C695.959 163.844 695.15 163.859 694.34 163.859C694.231 163.859 694.122 163.859 694.029 163.859ZM708.867 162.906C709.567 162.813 710.252 162.703 710.937 162.594C710.252 162.703 709.552 162.813 708.867 162.906ZM701.782 163.609C702.592 163.563 703.402 163.5 704.196 163.422C703.386 163.5 702.592 163.547 701.782 163.609ZM705.441 163.297C706.157 163.219 706.874 163.141 707.574 163.063C706.874 163.156 706.157 163.234 705.441 163.297ZM718.567 161.047C717.524 161.313 716.48 161.547 715.422 161.766C716.48 161.547 717.539 161.313 718.567 161.047ZM714.378 161.969C713.647 162.109 712.93 162.25 712.183 162.375C712.915 162.25 713.647 162.109 714.378 161.969ZM873.192 212.547C871.744 212.625 870.265 212.672 868.77 212.672C870.28 212.672 871.759 212.625 873.192 212.547ZM842.488 208.234C841.476 207.844 840.464 207.422 839.514 206.969C840.479 207.422 841.476 207.828 842.488 208.234ZM844.029 204.609C844.169 204.672 844.31 204.719 844.45 204.781C844.31 204.734 844.169 204.672 844.029 204.609ZM850.989 206.813C851.145 206.859 851.3 206.891 851.472 206.922C851.316 206.875 851.145 206.844 850.989 206.813ZM858.089 208.219C858.245 208.25 858.416 208.266 858.572 208.297C858.416 208.281 858.245 208.25 858.089 208.219ZM861.763 208.688C861.966 208.703 862.153 208.734 862.355 208.75C862.153 208.734 861.966 208.719 861.763 208.688ZM865.516 208.984C865.671 208.984 865.843 208.984 865.998 209C865.843 209 865.671 209 865.516 208.984ZM868.365 212.688C867.306 212.688 866.216 212.656 865.142 212.609C866.232 212.656 867.306 212.672 868.365 212.688ZM864.846 212.609C863.741 212.563 862.62 212.484 861.483 212.391C862.604 212.484 863.725 212.563 864.846 212.609ZM860.891 212.328C859.786 212.234 858.696 212.109 857.591 211.953C858.681 212.094 859.786 212.219 860.891 212.328ZM856.999 211.875C855.878 211.719 854.741 211.547 853.636 211.328C854.757 211.531 855.878 211.703 856.999 211.875ZM853.371 211.281C852.281 211.078 851.207 210.844 850.148 210.594C851.207 210.844 852.297 211.078 853.371 211.281ZM845.96 209.469C844.932 209.156 843.936 208.813 842.955 208.438C843.936 208.813 844.932 209.141 845.96 209.469Z" stroke="#553835" stroke-width="3.14" stroke-linecap="round" stroke-linejoin="round"/>
<path d="M1269.56 131.828C1269.56 127.672 1266.19 124.313 1262.07 124.313H1157.44C1155.77 124.313 1154.24 124.859 1153 125.781C1151.75 124.859 1150.23 124.313 1148.56 124.313H1124.01C1123.48 124.313 1122.96 124.375 1122.47 124.469C1121.97 124.359 1121.45 124.313 1120.92 124.313H1096.37C1095.86 124.313 1095.37 124.359 1094.89 124.453C1094.41 124.359 1093.91 124.313 1093.41 124.313H1070.71C1070.01 124.313 1069.33 124.406 1068.67 124.594C1068.02 124.406 1067.35 124.313 1066.63 124.313H1043.93C1042.27 124.313 1040.74 124.859 1039.49 125.781C1038.25 124.859 1036.72 124.313 1035.06 124.313H999.402C995.26 124.313 991.912 127.688 991.912 131.828V135.453C985.093 126.812 975.221 122.438 962.516 122.438C949.017 122.438 938.71 127.422 931.89 137.25C925.04 147.125 921.708 161.953 921.708 182.578C921.708 203.203 925.04 218.031 931.89 227.906C938.71 237.734 949.017 242.719 962.516 242.719C975.206 242.719 985.093 238.328 991.912 229.672V233.469C991.912 237.625 995.276 240.984 999.402 240.984H1035.06C1039.2 240.984 1042.55 237.609 1042.55 233.469V221.562C1043.65 223.547 1044.93 225.391 1046.42 227.094C1055.76 237.766 1072.14 242.734 1097.99 242.734C1120.5 242.734 1135.25 241.094 1150.55 236.891C1150.62 236.875 1150.68 236.844 1150.76 236.813C1151.99 239.281 1154.52 240.984 1157.47 240.984H1262.1C1266.24 240.984 1269.59 237.609 1269.59 233.469V207.469C1269.59 206.812 1269.51 206.156 1269.34 205.547C1269.49 204.938 1269.59 204.297 1269.59 203.625V181.703C1269.59 181.062 1269.51 180.437 1269.35 179.844C1269.51 179.25 1269.59 178.625 1269.59 177.984V157.312C1269.59 156.688 1269.51 156.094 1269.37 155.516C1269.51 154.938 1269.59 154.344 1269.59 153.719V131.828H1269.56ZM1124.38 207.266C1124.01 207.297 1123.65 207.328 1123.28 207.359C1123.65 207.328 1124.02 207.297 1124.38 207.266ZM1121.36 207.484C1121.02 207.5 1120.68 207.531 1120.32 207.547C1120.66 207.531 1121.02 207.5 1121.36 207.484ZM1100.9 207.734C1103.47 207.812 1106.01 207.844 1108.53 207.844C1106.01 207.844 1103.46 207.797 1100.9 207.734ZM1118.01 207.656C1117.8 207.656 1117.56 207.672 1117.34 207.688C1117.58 207.688 1117.8 207.672 1118.01 207.656ZM1114.31 207.781C1114.06 207.781 1113.81 207.781 1113.54 207.781C1113.79 207.781 1114.04 207.781 1114.31 207.781ZM1111.24 207.828C1110.87 207.828 1110.49 207.828 1110.13 207.828C1110.51 207.828 1110.88 207.828 1111.24 207.828ZM1126.17 207.109C1126.53 207.078 1126.9 207.047 1127.26 207C1126.9 207.031 1126.53 207.078 1126.17 207.109ZM1129.11 206.797C1129.44 206.766 1129.77 206.719 1130.08 206.688C1129.75 206.734 1129.43 206.766 1129.11 206.797ZM1132.37 206.375C1132.52 206.359 1132.68 206.328 1132.82 206.312C1132.66 206.328 1132.51 206.359 1132.37 206.375ZM1135.5 205.875C1135.75 205.828 1136 205.781 1136.23 205.734C1135.98 205.781 1135.75 205.828 1135.5 205.875Z" fill="white"/>
<path d="M1138.1 205.375C1138.41 205.312 1138.72 205.234 1139.03 205.172M1140.62 204.797C1140.93 204.719 1141.26 204.641 1141.57 204.562M1143.1 204.141C1143.39 204.047 1143.7 203.969 1144 203.875M1145.56 203.375C1145.81 203.297 1146.05 203.219 1146.3 203.125M1269.56 131.828C1269.56 127.672 1266.19 124.313 1262.07 124.313H1157.44C1155.77 124.313 1154.24 124.859 1153 125.781C1151.75 124.859 1150.23 124.313 1148.56 124.313H1124.01C1123.48 124.313 1122.96 124.375 1122.47 124.469C1121.97 124.359 1121.45 124.313 1120.92 124.313H1096.37C1095.86 124.313 1095.37 124.359 1094.89 124.453C1094.41 124.359 1093.91 124.313 1093.41 124.313H1070.71C1070.01 124.313 1069.33 124.406 1068.67 124.594C1068.02 124.406 1067.35 124.313 1066.63 124.313H1043.93C1042.27 124.313 1040.74 124.859 1039.49 125.781C1038.25 124.859 1036.72 124.313 1035.06 124.313H999.402C995.26 124.313 991.912 127.688 991.912 131.828V135.453C985.093 126.812 975.221 122.438 962.516 122.438C949.017 122.438 938.71 127.422 931.89 137.25C925.04 147.125 921.708 161.953 921.708 182.578C921.708 203.203 925.04 218.031 931.89 227.906C938.71 237.734 949.017 242.719 962.516 242.719C975.206 242.719 985.093 238.328 991.912 229.672V233.469C991.912 237.625 995.276 240.984 999.402 240.984H1035.06C1039.2 240.984 1042.55 237.609 1042.55 233.469V221.562C1043.65 223.547 1044.93 225.391 1046.42 227.094C1055.76 237.766 1072.14 242.734 1097.99 242.734C1120.5 242.734 1135.25 241.094 1150.55 236.891C1150.62 236.875 1150.68 236.844 1150.76 236.813C1151.99 239.281 1154.52 240.984 1157.47 240.984H1262.1C1266.24 240.984 1269.59 237.609 1269.59 233.469V207.469C1269.59 206.812 1269.51 206.156 1269.34 205.547C1269.49 204.937 1269.59 204.297 1269.59 203.625V181.703C1269.59 181.063 1269.51 180.437 1269.35 179.844C1269.51 179.25 1269.59 178.625 1269.59 177.984V157.312C1269.59 156.687 1269.51 156.094 1269.37 155.516C1269.51 154.938 1269.59 154.344 1269.59 153.719V131.828H1269.56ZM1124.38 207.266C1124.01 207.297 1123.65 207.328 1123.28 207.359C1123.65 207.328 1124.02 207.297 1124.38 207.266ZM1121.36 207.484C1121.02 207.5 1120.68 207.531 1120.32 207.547C1120.66 207.531 1121.02 207.5 1121.36 207.484ZM1100.9 207.734C1103.47 207.813 1106.01 207.844 1108.53 207.844C1106.01 207.844 1103.46 207.797 1100.9 207.734ZM1118.01 207.656C1117.8 207.656 1117.56 207.672 1117.34 207.687C1117.58 207.687 1117.8 207.672 1118.01 207.656ZM1114.31 207.781C1114.06 207.781 1113.81 207.781 1113.54 207.781C1113.79 207.781 1114.04 207.781 1114.31 207.781ZM1111.24 207.828C1110.87 207.828 1110.49 207.828 1110.13 207.828C1110.51 207.828 1110.88 207.828 1111.24 207.828ZM1126.17 207.109C1126.53 207.078 1126.9 207.047 1127.26 207C1126.9 207.031 1126.53 207.078 1126.17 207.109ZM1129.11 206.797C1129.44 206.766 1129.77 206.719 1130.08 206.687C1129.75 206.734 1129.43 206.766 1129.11 206.797ZM1132.37 206.375C1132.52 206.359 1132.68 206.328 1132.82 206.313C1132.66 206.328 1132.51 206.359 1132.37 206.375ZM1135.5 205.875C1135.75 205.828 1136 205.781 1136.23 205.734C1135.98 205.781 1135.75 205.828 1135.5 205.875Z" stroke="#553835" stroke-width="3.14" stroke-linecap="round" stroke-linejoin="round"/>
<path d="M689.934 233.5V201.188C711.031 198.953 718.567 187.813 718.567 161.063C709.676 163.297 699.805 164.156 689.934 163.781V131.828H754.222V164.516C754.222 211.203 730.042 231.016 689.934 233.484V233.5ZM794.564 233.5H758.908V131.828H794.564V233.5Z" fill="#5DFDF5" stroke="#553835" stroke-width="3.14" stroke-linecap="round" stroke-linejoin="round"/>
<path d="M803.454 131.828H839.607V159.688C839.607 162.781 841.834 164.016 845.29 164.016C852.811 164.016 861.203 163.391 868.863 162.406V181.844C855.037 183.203 841.725 183.828 824.941 183.828C812.594 183.828 803.47 177.266 803.47 165V131.828H803.454ZM803.454 187.047H908.084V233.484H828.366C811.706 233.484 803.438 226.547 803.438 212.188V187.047H803.454ZM839.483 206.984C849.23 211.562 862.308 213.172 873.176 212.562V208.969C862.931 209.594 850.475 207.734 841.087 203.391L839.483 206.984ZM843.438 131.828H908.1V183.719H872.444V160.938H843.453V147.438H872.444V145.328H843.453V131.828H843.438Z" fill="#5DFDF5" stroke="#553835" stroke-width="3.14" stroke-linecap="round" stroke-linejoin="round"/>
<path d="M929.15 182.609C929.15 143.359 941.606 129.984 962.47 129.984C983.333 129.984 995.914 143.359 995.914 182.609C995.914 221.859 983.458 235.234 962.47 235.234C941.481 235.234 929.15 221.859 929.15 182.609ZM950.87 176.172L948.644 179.516C956.787 183.234 966.907 185.094 976.156 185.094V181.375C966.907 181.375 958.141 179.141 950.855 176.172H950.87ZM1035.03 233.5H999.37V131.828H1035.03V233.5Z" fill="#5DFDF5" stroke="#553835" stroke-width="3.14" stroke-linecap="round" stroke-linejoin="round"/>
<path d="M1043.9 131.828H1066.6V142.969H1070.68V131.828H1093.38V149.281H1096.34V131.828H1120.89V199.812H1096.34V174.297H1093.38V191.016L1054.52 191.141C1047.12 191.141 1043.9 187.922 1043.9 180.484V131.828ZM1081.66 194.609C1081.66 202.531 1088.2 207.359 1100.9 207.734C1118.92 208.234 1136.2 207.234 1148.53 202.281V229.641C1134.1 233.609 1120.02 235.219 1097.94 235.219C1061.29 235.219 1041.92 225.062 1045.88 194.609H1081.66ZM1057.1 162.422C1064.02 165.641 1073.39 166.75 1080.91 166.75V163.031C1073.39 163.031 1065.37 161.547 1059.31 159.062L1057.09 162.406L1057.1 162.422ZM1123.98 131.844H1148.53V196.594C1141.13 198.703 1133.85 199.812 1123.98 199.812V131.828V131.844Z" fill="#5DFDF5" stroke="#553835" stroke-width="3.14" stroke-linecap="round" stroke-linejoin="round"/>
<path d="M1157.42 188.047V131.828H1262.05V153.75H1194.56V157.344H1262.05V178.016H1194.56V181.734H1262.05V203.656H1172.96C1163.09 203.656 1157.41 197.953 1157.41 188.047H1157.42ZM1262.05 233.484H1157.42V207.484H1262.05V233.484Z" fill="#5DFDF5" stroke="#553835" stroke-width="3.14" stroke-linecap="round" stroke-linejoin="round"/>
</g>
<path d="M68.3842 150.332L47.1346 133.908L27.8113 118.959L18.6666 111.888L0.357124 97.7266L-9.57828 90.0499L-26.9551 76.6156L-37.4988 68.4743C-44.048 63.444 -46.6231 54.8178 -43.9669 47.0198C-41.2904 39.2219 -33.9504 33.9694 -25.6777 33.9694L-12.3359 33.9492L9.66395 33.9088L22.2353 33.8886L45.4111 33.8482H56.9889L81.4624 33.7876L108.349 33.7472C110.944 33.7472 112.769 36.2926 111.938 38.7371L74.2846 148.595C73.4533 151.039 70.4321 151.949 68.3842 150.353V150.332Z" fill="white" stroke="#553835" stroke-width="3.14034" stroke-linecap="round" stroke-linejoin="round"/>
<path d="M72.865 152.757C59.8273 148.332 58.3471 118.272 69.5397 85.6256C80.7322 52.9794 100.36 30.1108 113.397 34.5552" fill="white"/>
<path d="M72.865 152.757C59.8273 148.332 58.3471 118.272 69.5397 85.6256C80.7322 52.9794 100.36 30.1108 113.397 34.5552" stroke="#553835" stroke-width="3.14034" stroke-linecap="round" stroke-linejoin="round"/>
<path d="M116.697 101.694C127.89 69.0486 126.406 38.9905 113.382 34.558C100.358 30.1254 80.7265 52.9968 69.5337 85.6428C58.3408 118.289 59.8252 148.347 72.849 152.779C85.8728 157.212 105.504 134.34 116.697 101.694Z" fill="white" stroke="#553835" stroke-width="3.14034" stroke-linecap="round" stroke-linejoin="round"/>
<path d="M110.223 99.4896C119.599 72.1439 119.958 47.5111 111.024 44.4707C102.091 41.4303 87.2486 61.1337 77.873 88.4794C68.4973 115.825 68.1388 140.458 77.0722 143.498C86.0055 146.539 100.848 126.835 110.223 99.4896Z" fill="#553835" stroke="#553835" stroke-width="3.14034" stroke-linecap="round" stroke-linejoin="round"/>
<g style="mix-blend-mode:darken">
<path d="M47.1349 133.928L27.8116 118.979C27.9535 105.181 31.0355 89.3428 36.206 74.2924C41.3764 59.242 48.6354 44.8178 57.0095 33.8078L81.483 33.7674C73.7172 39.2623 61.815 54.0097 52.9339 79.9691C44.0326 105.929 44.3976 124.838 47.1552 133.908L47.1349 133.928Z" fill="#D87686"/>
<path d="M18.6669 111.908L0.357422 97.7468C0.945435 87.1812 3.37859 75.5247 7.21082 64.4136C11.0228 53.2824 16.2338 42.5956 22.2558 33.8683L45.4317 33.8279C44.1137 34.9188 42.593 36.3936 40.8898 38.3936C34.4419 45.9087 28.2576 57.4844 23.9185 70.1106C19.5997 82.7368 17.3895 95.6458 17.8762 105.524C18.0181 108.131 18.302 110.232 18.6669 111.908Z" fill="#D87686"/>
<path d="M-9.57846 90.07L-26.9553 76.6358C-26.1442 69.6055 -24.4004 62.05 -21.8051 54.5349C-19.23 47.0198 -15.9858 39.9693 -12.3158 33.9088L9.68404 33.8683C5.36518 38.3128 -0.535221 46.9188 -5.09739 60.2116C-9.65956 73.5045 -10.2679 83.9085 -9.55818 90.0498L-9.57846 90.07Z" fill="#D87686"/>
</g>
<path d="M92.8575 117.019C93.9118 117.767 118.588 135.868 117.372 166.837L104.273 166.332C105.206 142.494 85.3552 127.747 85.1727 127.605L92.8575 117.019Z" fill="#FFC600" stroke="#553835" stroke-width="3.14034" stroke-linecap="round" stroke-linejoin="round"/>
<path d="M118.406 44.9391C118.954 44.2926 119.542 43.6865 120.19 43.1613C122.36 41.2825 125.3 40.5956 128.159 41.3431C131.606 42.232 134.708 45.1815 136.026 48.838C139.149 56.8178 137.446 66.7167 132.235 73.5045C139.392 78.0904 146.813 75.0601 150.24 73.1409C154.194 70.9187 157.742 67.545 160.398 63.5652C155.613 60.5551 151.639 56.1915 149.287 51.2825C146.651 46.3734 145.374 38.3734 148.01 32.4341C149.551 28.9593 152.328 26.5755 155.836 25.727C162.223 24.3735 168.245 29.727 170.78 35.4846C174.511 43.3835 174.45 51.6865 171.936 59.1612C174.511 59.5652 177.147 59.3026 179.661 58.2117C191.097 52.9794 196.125 39.1815 195.923 28.5755C195.841 22.2725 192.577 16.3938 189.394 11.4847C188.136 9.52511 188.704 6.93927 190.651 5.66655C192.617 4.41403 195.213 4.97969 196.49 6.91907C200.322 12.8382 204.236 20.0301 204.357 28.4341C204.601 42.1108 198.133 58.9996 183.108 65.8682C178.181 68.0096 173.051 68.1914 168.266 66.9591C164.778 72.6157 159.871 77.3631 154.397 80.4338C146.063 85.1004 134.972 86.5348 125.625 79.1005C119.947 81.9085 113.722 80.8378 107.781 79.1611C105.531 78.5348 104.233 76.2116 104.862 73.9692C105.49 71.7268 107.822 70.4339 110.073 71.0601C113.763 72.1106 116.825 72.6763 119.379 72.3126C119.197 72.0702 119.035 71.8076 118.852 71.545C118.812 71.4844 118.771 71.4036 118.731 71.3429C116.622 67.6864 115.284 63.4844 114.898 59.2218C114.412 53.1814 115.628 48.2926 118.426 44.9189L118.406 44.9391ZM126.233 67.444C129.193 62.9996 130.106 56.7572 128.139 51.7673C127.672 50.5148 126.719 49.6259 126.03 49.4643C125.848 49.4239 125.807 49.4239 125.625 49.5653C123.739 51.1006 122.928 54.3329 123.272 58.5147C123.556 61.4844 124.469 64.4541 125.949 67.0601C126.03 67.2016 126.131 67.3228 126.213 67.444H126.233ZM164.048 55.9087C165.751 50.434 165.711 44.4946 163.115 39.0401C163.095 38.9997 163.075 38.9593 163.055 38.8987C161.797 36.0098 158.979 33.6664 157.702 33.929C157.154 34.0704 156.343 34.4139 155.715 35.828C154.295 39.0199 155.106 44.3532 156.749 47.3431C156.789 47.4239 156.83 47.4845 156.85 47.5653C158.391 50.7976 160.966 53.7673 164.048 55.9087Z" fill="white" stroke="#553835" stroke-width="3.14034" stroke-linecap="round" stroke-linejoin="round"/>
<path d="M132.518 147.342C131.241 144.736 132.315 141.585 134.931 140.312C137.547 139.039 140.71 140.11 141.987 142.716C143.264 145.322 142.19 148.474 139.574 149.747C136.959 151.019 133.795 149.949 132.518 147.342Z" fill="#57C8FD" stroke="#553835" stroke-width="3.14034" stroke-linecap="round" stroke-linejoin="round"/>
<path d="M141.067 205.489L149.996 199.14L143.625 190.244L134.695 196.592L141.067 205.489Z" fill="#D87686" stroke="#553835" stroke-width="3.14034" stroke-linecap="round" stroke-linejoin="round"/>
<path d="M76.231 93.5852C76.7379 91.8882 77.3056 90.1913 77.8936 88.4741C79.3535 84.1913 80.9554 80.1105 82.6586 76.252C91.0935 79.2216 96.6898 84.2721 95.7165 88.5347C94.6419 93.1609 86.1867 95.2619 76.2513 93.5852H76.231Z" fill="#B28DFF" stroke="#553835" stroke-width="3.14034" stroke-linecap="round" stroke-linejoin="round"/>
<path d="M223.519 68.656C239.354 72.3126 244.606 60.8581 245.153 59.545L255.19 63.5248C252.25 70.9793 241.341 83.8277 221.085 79.1408L223.519 68.656Z" fill="#7AE26F" stroke="#553835" stroke-width="3.14034" stroke-linecap="round" stroke-linejoin="round"/>
<path d="M1294.95 308.764C1286 308.936 1277.87 305.831 1271.07 299.558C1265.18 294.131 1261.9 287.842 1260.49 284.58L1260.46 284.517C1259.23 281.851 1260.38 278.683 1263.05 277.413C1265.75 276.143 1268.97 277.287 1270.25 279.969C1270.28 280.032 1270.33 280.126 1270.39 280.299C1279.3 300.702 1296.25 298.334 1301.24 297.127C1304.14 296.421 1307.07 298.193 1307.77 301.079C1308.48 303.965 1306.7 306.882 1303.81 307.587C1300.79 308.325 1297.83 308.717 1294.95 308.779V308.764Z" fill="#FFC600" stroke="#553835" stroke-width="3.97623" stroke-linecap="round" stroke-linejoin="round"/>
<path d="M1327.36 337.699C1304 337.699 1284.26 320.275 1281.45 297.174C1281.34 296.311 1281.27 295.449 1281.2 294.555C1281.09 292.924 1281.08 291.308 1281.14 289.74C1282.05 266.074 1300.64 247.082 1324.4 245.545C1325.42 245.482 1326.43 245.451 1327.43 245.451C1351.74 245.451 1372.01 264.396 1373.59 288.595C1375.24 313.97 1355.86 335.958 1330.39 337.605C1329.37 337.668 1328.36 337.699 1327.36 337.699Z" fill="#FFC600"/>
<path d="M1327.43 246.627C1351.01 246.627 1370.86 264.898 1372.41 288.674C1374.01 313.453 1355.17 334.829 1330.31 336.429C1329.32 336.492 1328.33 336.523 1327.36 336.523C1304.63 336.523 1285.36 319.554 1282.62 297.033C1282.53 296.186 1282.43 295.339 1282.38 294.492C1282.27 292.908 1282.26 291.34 1282.32 289.803C1283.2 267.078 1301.19 248.227 1324.47 246.737C1325.47 246.674 1326.46 246.643 1327.43 246.643M1327.43 244.29C1326.4 244.29 1325.36 244.321 1324.32 244.384C1299.97 245.952 1280.89 265.447 1279.96 289.709C1279.9 291.308 1279.91 292.971 1280.02 294.649C1280.09 295.511 1280.16 296.39 1280.27 297.331C1283.15 321.028 1303.4 338.891 1327.36 338.891C1328.39 338.891 1329.43 338.86 1330.47 338.797C1356.6 337.103 1376.47 314.566 1374.77 288.532C1373.15 263.722 1352.37 244.29 1327.43 244.29Z" fill="#553835"/>
<path d="M1380.26 241.876L1379.52 244.354L1377.74 250.266L1374.81 260.052L1373.63 263.973L1370.64 273.963L1369.94 276.347C1365.91 280.911 1355.42 278.292 1346.51 270.497C1337.6 262.687 1333.65 252.666 1337.67 248.102L1340.23 247.082L1349.87 243.24L1354.87 241.248L1364.32 237.484L1369.67 235.351L1372.04 234.395C1376.86 232.466 1381.77 236.935 1380.28 241.891L1380.26 241.876Z" fill="white" stroke="#553835" stroke-width="3.97623" stroke-linecap="round" stroke-linejoin="round"/>
<g style="mix-blend-mode:darken">
<path d="M1373.63 263.972L1370.64 273.963C1364.82 273.335 1358.08 270.183 1351.88 264.741C1345.55 259.205 1341.52 252.822 1340.22 247.066L1349.85 243.224C1349.87 245.874 1352.1 251.504 1358.57 257.15C1365.1 262.875 1371.05 264.333 1373.65 263.957L1373.63 263.972Z" fill="#57C8FD"/>
</g>
<g style="mix-blend-mode:darken">
<path d="M1377.74 250.25L1374.81 260.036C1371.35 258.468 1367.83 256.194 1364.44 253.229C1360.14 249.465 1356.9 245.309 1354.86 241.216L1364.3 237.452C1365.67 239.914 1367.86 242.784 1371.13 245.654C1373.46 247.693 1375.71 249.183 1377.76 250.25H1377.74Z" fill="#57C8FD"/>
</g>
<g style="mix-blend-mode:darken">
<path d="M1380.26 241.875L1379.52 244.353C1377.99 243.318 1376.47 242.141 1374.99 240.84C1372.97 239.067 1371.18 237.217 1369.64 235.319L1372.01 234.363C1376.83 232.433 1381.74 236.903 1380.25 241.859L1380.26 241.875Z" fill="#57C8FD"/>
</g>
<path d="M1293.7 286.305C1293.31 282.259 1294.9 278.809 1297.24 278.589C1299.59 278.37 1301.81 281.459 1302.19 285.49" stroke="#553835" stroke-width="3.97623" stroke-linecap="round" stroke-linejoin="round"/>
<path d="M1311.16 285.176C1310.76 281.13 1312.35 277.679 1314.7 277.46C1317.05 277.24 1319.26 280.33 1319.64 284.361" stroke="#553835" stroke-width="3.97623" stroke-linecap="round" stroke-linejoin="round"/>
<path d="M1305.6 292.986C1303.21 293.143 1301.41 295.198 1301.56 297.566C1301.65 299.04 1302.47 300.279 1303.65 300.985C1302.58 301.832 1301.92 303.18 1302.01 304.639C1302.17 307.023 1304.23 308.811 1306.61 308.67" fill="#FFC600"/>
<path d="M1305.6 292.986C1303.21 293.143 1301.41 295.198 1301.56 297.566C1301.65 299.04 1302.47 300.279 1303.65 300.985C1302.58 301.832 1301.92 303.18 1302.01 304.639C1302.17 307.023 1304.23 308.811 1306.61 308.67" stroke="#553835" stroke-width="3.97623" stroke-linecap="round" stroke-linejoin="round"/>
<path d="M1333.6 290.148C1333.78 292.751 1330.44 295.072 1326.18 295.355C1321.91 295.637 1318.3 293.755 1318.13 291.151C1317.96 288.548 1321.3 286.227 1325.56 285.945C1329.83 285.662 1333.43 287.544 1333.6 290.148Z" fill="#FF9C92"/>
<path d="M1295.15 292.641C1295.32 295.245 1291.99 297.566 1287.72 297.848C1285.8 297.974 1284.02 297.66 1282.62 297.033C1282.53 296.186 1282.43 295.339 1282.38 294.492C1282.27 292.908 1282.26 291.34 1282.32 289.803C1283.61 289.066 1285.26 288.564 1287.11 288.438C1291.37 288.156 1294.98 290.054 1295.15 292.641Z" fill="#FF9C92"/>
<path d="M1355.72 297.785C1360.71 299.009 1377.66 301.392 1386.59 280.989C1386.65 280.832 1386.71 280.722 1386.73 280.659C1388.02 277.977 1391.23 276.833 1393.92 278.119C1396.6 279.389 1397.73 282.557 1396.51 285.223L1396.47 285.286C1395.04 288.548 1391.77 294.821 1385.88 300.248C1379.44 306.16 1371.81 309.265 1363.42 309.422C1360.1 309.485 1356.67 309.093 1353.14 308.23" fill="#FFC600"/>
<path d="M1355.72 297.785C1360.71 299.009 1377.66 301.392 1386.59 280.989C1386.65 280.832 1386.71 280.722 1386.73 280.659C1388.02 277.977 1391.23 276.833 1393.92 278.119C1396.6 279.389 1397.73 282.557 1396.51 285.223L1396.47 285.286C1395.04 288.548 1391.77 294.821 1385.88 300.248C1379.44 306.16 1371.81 309.265 1363.42 309.422C1360.1 309.485 1356.67 309.093 1353.14 308.23" stroke="#553835" stroke-width="3.97623" stroke-linecap="round" stroke-linejoin="round"/>
<path d="M1265.79 215.48C1261.35 216.719 1258.14 220.028 1256.82 224.012C1253.29 221.722 1248.71 221.142 1244.46 222.945C1238.04 225.674 1235.07 233.124 1237.38 239.679C1239.85 246.69 1245.22 252.32 1252.13 255.143L1270.45 262.639L1280.04 245.372C1283.66 238.864 1284.3 231.132 1281.83 224.106C1279.52 217.535 1272.51 213.598 1265.79 215.464V215.48Z" fill="url(#paint0_linear_149_3255)" stroke="#553835" stroke-width="3.97623" stroke-linecap="round" stroke-linejoin="round"/>
<path d="M147.33 319.321C144.806 313.686 141.817 308.978 137.832 305.033C133.881 301.088 129.132 298.104 123.52 295.552C129.165 292.999 133.881 290.016 137.832 286.071C141.784 282.126 144.773 277.385 147.33 271.782C149.853 277.418 152.842 282.126 156.827 286.071C160.779 290.016 165.527 292.999 171.173 295.552C165.527 298.071 160.812 301.055 156.827 305.033C152.875 308.978 149.887 313.686 147.33 319.321Z" fill="white"/>
<path d="M901.936 381.591C905.688 369.192 912.695 357.457 922.026 346.616C940.722 324.969 968.849 306.537 1002.79 295L1011.69 321.156C989.371 328.715 970.111 339.754 955.732 352.053C941.287 364.319 931.922 377.878 928.435 389.613C926.078 397.503 926.111 404.333 928.236 410.731L902.035 419.615C902.035 419.615 902.035 419.549 902.035 419.516C897.818 407.117 898.183 393.956 901.969 381.624L901.936 381.591Z" fill="white"/>
<path d="M264.534 -17.1288C250.255 -17.1288 238.666 -5.59218 238.666 8.69597C238.666 22.9841 250.222 34.5207 264.534 34.5207C278.847 34.5207 290.403 22.9841 290.403 8.69597C290.403 -5.59218 278.814 -17.1288 264.534 -17.1288ZM264.534 17.2821C259.786 17.2821 255.934 13.4366 255.934 8.69597C255.934 3.95536 259.786 0.0766716 264.534 0.0766716C269.283 0.0766716 273.168 3.9222 273.168 8.69597C273.168 13.4697 269.316 17.2821 264.534 17.2821Z" fill="#FFFCBA"/>
<path d="M1163.79 43L1129 72.2664L1143.66 89.6315L1178.45 60.3651L1163.79 43Z" fill="#57C8FD"/>
<path d="M55.2191 216L37 229.597L64.2394 265.973L82.4584 252.376L55.2191 216Z" fill="#00AE29"/>
<path d="M699.589 45.0661L688.697 53.5528L675.912 49.5084C670.765 48.3812 668.008 51.2654 669.37 56.3375L673.953 68.9349L665.95 80.14C663.492 84.7812 665.916 88.2289 671.927 88.03C672.458 88.03 684.081 87.6985 684.081 87.6985L691.486 97.7101C695.371 102.55 699.888 101.622 701.681 95.4227C701.847 94.8591 705.101 83.9524 705.101 83.9524C705.101 83.9524 715.894 80.2395 716.458 80.0406C722.568 77.9852 723.332 73.4435 718.318 69.7969L707.99 62.8351C707.99 62.8351 707.791 51.2322 707.791 50.7018C707.724 44.7014 704.205 42.4472 699.655 45.0993L699.589 45.0661Z" fill="#FFE25C"/>
<path d="M1131.59 337.066L1120.7 345.553L1107.91 341.508C1102.76 340.381 1100.01 343.265 1101.37 348.337L1105.95 360.935L1097.95 372.14C1095.49 376.781 1097.92 380.229 1103.93 380.03C1104.46 380.03 1116.08 379.698 1116.08 379.698L1123.49 389.71C1127.37 394.55 1131.89 393.622 1133.68 387.423C1133.85 386.859 1137.1 375.952 1137.1 375.952C1137.1 375.952 1147.89 372.239 1148.46 372.041C1154.57 369.985 1155.33 365.443 1150.32 361.797L1139.99 354.835C1139.99 354.835 1139.79 343.232 1139.79 342.702C1139.72 336.701 1136.2 334.447 1131.66 337.099L1131.59 337.066Z" fill="#FFE25C"/>
<path d="M333.759 324.977L334.689 340.525L322.734 349.84C318.384 353.918 319.314 358.294 324.892 360.316L339.57 364.128L344.883 378.748C347.639 383.986 352.421 383.953 356.074 378.251C356.406 377.753 363.546 366.747 363.546 366.747L377.626 366.25C384.633 365.753 386.625 360.946 382.009 355.31C381.577 354.813 373.508 344.768 373.508 344.768C373.508 344.768 376.962 332.336 377.128 331.706C379.153 324.711 375.401 321.098 368.759 323.419L355.676 328.557C355.676 328.557 344.717 321.297 344.219 320.965C338.607 317.186 334.224 319.043 333.759 324.944V324.977Z" fill="#FFE25C"/>
<path d="M801.66 36.4146L797.512 43.0431L790.001 43.3382C787.064 43.7241 786.167 45.7899 787.826 48.2642L792.624 54.1209L790.517 61.6574C790.113 64.6085 792.019 65.9932 795.158 64.7447C795.427 64.6312 801.503 62.2476 801.503 62.2476L807.31 66.1748C810.27 68.0363 812.489 66.6515 812.243 62.9968C812.243 62.6563 811.884 56.1866 811.884 56.1866C811.884 56.1866 816.884 52.1233 817.13 51.919C819.978 49.6489 819.507 47.0611 816.166 46.0623L809.395 44.3143C809.395 44.3143 807.086 38.1398 806.996 37.8447C805.83 34.644 803.543 34.1219 801.638 36.3919L801.66 36.4146Z" fill="#FFE25C"/>
<path d="M567 56.2161C566.781 55.8546 563.44 50.553 557.345 44.0946C551.25 37.6363 542.424 29.9007 530.746 25.1051C522.993 21.9241 513.85 20.165 504 21.394L506.341 39.8292C512.387 39.0822 517.873 40.0461 523.066 42.0703C528.259 44.0946 533.086 47.2515 537.182 50.6976C545.423 57.5415 550.689 65.4698 551.006 66L566.976 56.2161H567Z" fill="white"/>
<path d="M1308.64 66.9048C1313.35 66.9048 1317.17 63.0903 1317.17 58.385C1317.17 53.6796 1313.35 49.8651 1308.64 49.8651C1303.92 49.8651 1300.1 53.6796 1300.1 58.385C1300.1 63.0903 1303.92 66.9048 1308.64 66.9048Z" fill="#FFFF57"/>
<path d="M1199.77 311.851C1204.48 311.851 1208.3 308.037 1208.3 303.331C1208.3 298.626 1204.48 294.812 1199.77 294.812C1195.06 294.812 1191.24 298.626 1191.24 303.331C1191.24 308.037 1195.06 311.851 1199.77 311.851Z" fill="#FFFF57"/>
<path d="M375.534 52.0397C380.248 52.0397 384.069 48.2252 384.069 43.5199C384.069 38.8145 380.248 35 375.534 35C370.821 35 367 38.8145 367 43.5199C367 48.2252 370.821 52.0397 375.534 52.0397Z" fill="white"/>
<path d="M1387.53 136.04C1392.25 136.04 1396.07 132.225 1396.07 127.52C1396.07 122.814 1392.25 119 1387.53 119C1382.82 119 1379 122.814 1379 127.52C1379 132.225 1382.82 136.04 1387.53 136.04Z" fill="white"/>
<path d="M615.534 330.04C620.248 330.04 624.069 326.225 624.069 321.52C624.069 316.814 620.248 313 615.534 313C610.821 313 607 316.814 607 321.52C607 326.225 610.821 330.04 615.534 330.04Z" fill="white"/>
</g>
<defs>
<linearGradient id="paint0_linear_149_3255" x1="1240.59" y1="248.605" x2="1285" y2="232.934" gradientUnits="userSpaceOnUse">
<stop stop-color="#FFB9B9"/>
<stop offset="1" stop-color="#FF9F9F"/>
</linearGradient>
<clipPath id="clip0_149_3255">
<rect width="1460" height="367" fill="white"/>
</clipPath>
<clipPath id="clip1_149_3255">
<rect width="592" height="139" fill="white" transform="translate(680 120)"/>
</clipPath>
</defs>
</svg>
