<svg width="472" height="472" viewBox="0 0 472 472" fill="none" xmlns="http://www.w3.org/2000/svg">
<rect x="0.5" y="0.5" width="471" height="471" rx="9.5" fill="#FC6F30"/>
<rect x="0.5" y="0.5" width="471" height="471" rx="9.5" stroke="black"/>
<rect x="10.5" y="10.5" width="451" height="451" rx="9.5" fill="#FF85B1"/>
<rect x="10.5" y="10.5" width="451" height="451" rx="9.5" stroke="black"/>
<mask id="path-3-outside-1_82_3006" maskUnits="userSpaceOnUse" x="153" y="55" width="164" height="48" fill="black">
<rect fill="white" x="153" y="55" width="164" height="48"/>
<path d="M161.51 62.424L171.59 92.808L181.67 62.424C181.91 61.704 182.246 61.272 183.014 61.272H186.326C187.094 61.272 187.622 61.704 187.382 62.424L175.718 97.176C175.382 98.136 174.854 98.52 173.846 98.52H169.334C168.326 98.52 167.798 98.136 167.462 97.176L155.798 62.424C155.558 61.704 155.99 61.272 156.758 61.272H160.166C160.934 61.272 161.27 61.704 161.51 62.424ZM207.549 86.184H196.845V97.224C196.845 98.04 196.365 98.52 195.597 98.52H192.573C191.805 98.52 191.325 98.04 191.325 97.224V63.528C191.325 62.088 192.093 61.272 193.533 61.272H207.549C215.133 61.272 219.645 65.448 219.645 73.704C219.645 79.176 217.677 82.824 214.173 84.744L220.317 97.32C220.653 97.992 220.269 98.52 219.405 98.52H216.189C215.325 98.52 214.845 98.28 214.509 97.608L208.989 86.136C208.557 86.184 208.029 86.184 207.549 86.184ZM207.261 66.552H196.845V80.904H207.261C211.773 80.904 214.125 78.456 214.125 73.752C214.125 69 211.773 66.552 207.261 66.552ZM252.784 62.376H258.736C259.552 62.376 259.936 62.76 259.936 63.576V66.456C259.936 67.272 259.552 67.656 258.736 67.656H251.632V78.12C251.632 83.64 254.992 88.632 259.024 89.112C259.84 89.208 260.128 89.592 260.128 90.408V93.288C260.128 94.104 259.744 94.488 258.928 94.392C254.32 93.816 250.096 90.168 248.896 85.704C247.648 90.168 243.424 93.816 238.816 94.392C238 94.488 237.616 94.104 237.616 93.288V90.408C237.616 89.592 237.904 89.208 238.72 89.112C242.752 88.632 246.112 83.64 246.112 78.12V67.656H239.056C238.24 67.656 237.856 67.272 237.856 66.456V63.576C237.856 62.76 238.24 62.376 239.056 62.376H246.976C246.544 62.136 246.256 61.704 246.256 61.08V58.44C246.256 57.624 246.64 57.24 247.456 57.24H250.576C251.392 57.24 251.776 57.624 251.776 58.44V61.512C251.776 62.136 252.064 62.376 252.784 62.376ZM265.84 59.688C265.84 58.872 266.32 58.392 267.088 58.392H270.112C270.88 58.392 271.36 58.872 271.36 59.688V99.624C271.36 100.44 270.88 100.92 270.112 100.92H267.088C266.32 100.92 265.84 100.44 265.84 99.624V59.688ZM300.836 85.08C300.308 85.128 299.732 85.128 299.252 85.128C296.42 85.128 293.972 85.032 291.956 84.888V90.504C291.956 91.56 292.484 91.992 293.636 91.992C295.988 92.04 299.444 91.992 302.132 91.944C301.364 91.656 300.836 90.84 300.836 89.832V85.08ZM308.036 91.704C309.428 91.704 312.356 91.416 313.22 91.272C314.036 91.176 314.516 91.608 314.516 92.424V95.064C314.516 95.88 314.18 96.216 313.316 96.36C310.052 96.888 303.668 97.176 296.324 97.176C288.692 97.176 283.076 96.888 279.476 96.312C278.612 96.168 278.276 95.784 278.276 95.016V92.376C278.276 91.56 278.756 91.128 279.572 91.224C282.212 91.608 284.996 91.944 287.54 92.088C286.868 91.752 286.436 90.984 286.436 90.072V83.784C283.364 82.632 282.26 80.616 282.26 77.304C282.26 71.736 285.572 70.056 296.468 70.056H302.42C304.484 70.056 305.54 69.288 305.54 67.704C305.54 66.168 304.676 65.592 302.516 65.592C296.276 65.592 289.172 65.88 284.372 66.408C283.652 66.504 283.22 66.12 283.22 65.4V62.52C283.22 61.8 283.508 61.464 284.18 61.368C288.26 60.792 294.164 60.456 299.78 60.456C301.748 60.456 303.716 60.504 305.54 60.6C309.188 60.744 311.012 62.328 311.012 65.208C311.012 67.896 309.716 69.816 307.412 70.632H309.572C310.244 70.632 310.628 71.016 310.628 71.688V74.136C310.628 74.808 310.244 75.24 309.572 75.24C305.204 75.24 300.308 75.096 296.564 75.096C289.652 75.096 287.78 75.624 287.78 77.544C287.78 79.656 289.748 80.088 299.204 80.088C302.996 80.088 307.124 79.8 310.628 79.272C311.252 79.176 311.588 79.464 311.732 80.184L312.212 82.92C312.308 83.544 311.924 84.072 311.3 84.168C309.716 84.408 308.036 84.6 306.356 84.744V90.216C306.356 91.272 306.884 91.704 308.036 91.704Z"/>
</mask>
<path d="M161.51 62.424L171.59 92.808L181.67 62.424C181.91 61.704 182.246 61.272 183.014 61.272H186.326C187.094 61.272 187.622 61.704 187.382 62.424L175.718 97.176C175.382 98.136 174.854 98.52 173.846 98.52H169.334C168.326 98.52 167.798 98.136 167.462 97.176L155.798 62.424C155.558 61.704 155.99 61.272 156.758 61.272H160.166C160.934 61.272 161.27 61.704 161.51 62.424ZM207.549 86.184H196.845V97.224C196.845 98.04 196.365 98.52 195.597 98.52H192.573C191.805 98.52 191.325 98.04 191.325 97.224V63.528C191.325 62.088 192.093 61.272 193.533 61.272H207.549C215.133 61.272 219.645 65.448 219.645 73.704C219.645 79.176 217.677 82.824 214.173 84.744L220.317 97.32C220.653 97.992 220.269 98.52 219.405 98.52H216.189C215.325 98.52 214.845 98.28 214.509 97.608L208.989 86.136C208.557 86.184 208.029 86.184 207.549 86.184ZM207.261 66.552H196.845V80.904H207.261C211.773 80.904 214.125 78.456 214.125 73.752C214.125 69 211.773 66.552 207.261 66.552ZM252.784 62.376H258.736C259.552 62.376 259.936 62.76 259.936 63.576V66.456C259.936 67.272 259.552 67.656 258.736 67.656H251.632V78.12C251.632 83.64 254.992 88.632 259.024 89.112C259.84 89.208 260.128 89.592 260.128 90.408V93.288C260.128 94.104 259.744 94.488 258.928 94.392C254.32 93.816 250.096 90.168 248.896 85.704C247.648 90.168 243.424 93.816 238.816 94.392C238 94.488 237.616 94.104 237.616 93.288V90.408C237.616 89.592 237.904 89.208 238.72 89.112C242.752 88.632 246.112 83.64 246.112 78.12V67.656H239.056C238.24 67.656 237.856 67.272 237.856 66.456V63.576C237.856 62.76 238.24 62.376 239.056 62.376H246.976C246.544 62.136 246.256 61.704 246.256 61.08V58.44C246.256 57.624 246.64 57.24 247.456 57.24H250.576C251.392 57.24 251.776 57.624 251.776 58.44V61.512C251.776 62.136 252.064 62.376 252.784 62.376ZM265.84 59.688C265.84 58.872 266.32 58.392 267.088 58.392H270.112C270.88 58.392 271.36 58.872 271.36 59.688V99.624C271.36 100.44 270.88 100.92 270.112 100.92H267.088C266.32 100.92 265.84 100.44 265.84 99.624V59.688ZM300.836 85.08C300.308 85.128 299.732 85.128 299.252 85.128C296.42 85.128 293.972 85.032 291.956 84.888V90.504C291.956 91.56 292.484 91.992 293.636 91.992C295.988 92.04 299.444 91.992 302.132 91.944C301.364 91.656 300.836 90.84 300.836 89.832V85.08ZM308.036 91.704C309.428 91.704 312.356 91.416 313.22 91.272C314.036 91.176 314.516 91.608 314.516 92.424V95.064C314.516 95.88 314.18 96.216 313.316 96.36C310.052 96.888 303.668 97.176 296.324 97.176C288.692 97.176 283.076 96.888 279.476 96.312C278.612 96.168 278.276 95.784 278.276 95.016V92.376C278.276 91.56 278.756 91.128 279.572 91.224C282.212 91.608 284.996 91.944 287.54 92.088C286.868 91.752 286.436 90.984 286.436 90.072V83.784C283.364 82.632 282.26 80.616 282.26 77.304C282.26 71.736 285.572 70.056 296.468 70.056H302.42C304.484 70.056 305.54 69.288 305.54 67.704C305.54 66.168 304.676 65.592 302.516 65.592C296.276 65.592 289.172 65.88 284.372 66.408C283.652 66.504 283.22 66.12 283.22 65.4V62.52C283.22 61.8 283.508 61.464 284.18 61.368C288.26 60.792 294.164 60.456 299.78 60.456C301.748 60.456 303.716 60.504 305.54 60.6C309.188 60.744 311.012 62.328 311.012 65.208C311.012 67.896 309.716 69.816 307.412 70.632H309.572C310.244 70.632 310.628 71.016 310.628 71.688V74.136C310.628 74.808 310.244 75.24 309.572 75.24C305.204 75.24 300.308 75.096 296.564 75.096C289.652 75.096 287.78 75.624 287.78 77.544C287.78 79.656 289.748 80.088 299.204 80.088C302.996 80.088 307.124 79.8 310.628 79.272C311.252 79.176 311.588 79.464 311.732 80.184L312.212 82.92C312.308 83.544 311.924 84.072 311.3 84.168C309.716 84.408 308.036 84.6 306.356 84.744V90.216C306.356 91.272 306.884 91.704 308.036 91.704Z" fill="white"/>
<path d="M161.51 62.424L163.408 61.7942L163.408 61.7915L161.51 62.424ZM171.59 92.808L169.692 93.4378L171.59 99.1597L173.488 93.4378L171.59 92.808ZM181.67 62.424L179.773 61.7915L179.772 61.7942L181.67 62.424ZM187.382 62.424L189.278 63.0604L189.28 63.0565L187.382 62.424ZM175.718 97.176L177.606 97.8367L177.61 97.8246L177.614 97.8124L175.718 97.176ZM167.462 97.176L165.566 97.8124L165.57 97.8246L165.574 97.8367L167.462 97.176ZM155.798 62.424L153.901 63.0565L153.902 63.0604L155.798 62.424ZM159.612 63.0538L169.692 93.4378L173.488 92.1782L163.408 61.7942L159.612 63.0538ZM173.488 93.4378L183.568 63.0538L179.772 61.7942L169.692 92.1782L173.488 93.4378ZM183.568 63.0565C183.585 63.0037 183.6 62.965 183.611 62.9375C183.617 62.924 183.621 62.9141 183.625 62.9073C183.626 62.9039 183.627 62.9014 183.628 62.8998C183.629 62.8981 183.63 62.8973 183.63 62.8973C183.63 62.8973 183.629 62.8982 183.628 62.8998C183.627 62.9015 183.626 62.904 183.624 62.9072C183.62 62.9137 183.613 62.9233 183.604 62.9355C183.586 62.9601 183.557 62.9946 183.516 63.0332C183.427 63.1174 183.314 63.1882 183.193 63.2318C183.081 63.2725 183.01 63.272 183.014 63.272V59.272C182.214 59.272 181.416 59.5157 180.772 60.1228C180.202 60.6601 179.929 61.3236 179.773 61.7915L183.568 63.0565ZM183.014 63.272H186.326V59.272H183.014V63.272ZM186.326 63.272C186.392 63.272 186.122 63.2966 185.818 62.9922C185.649 62.8232 185.516 62.5909 185.464 62.3245C185.414 62.0687 185.456 61.8772 185.485 61.7915L189.28 63.0565C189.6 62.0958 189.463 60.9801 188.646 60.1638C187.946 59.4634 187.028 59.272 186.326 59.272V63.272ZM185.486 61.7876L173.822 96.5396L177.614 97.8124L189.278 63.0604L185.486 61.7876ZM173.83 96.5153C173.808 96.5785 173.79 96.6228 173.776 96.6522C173.762 96.6814 173.754 96.6929 173.755 96.6918C173.756 96.6902 173.765 96.6761 173.785 96.655C173.795 96.6446 173.807 96.633 173.82 96.6209C173.834 96.6087 173.849 96.5966 173.866 96.5849C173.882 96.5732 173.898 96.5626 173.915 96.5531C173.931 96.5435 173.947 96.5356 173.961 96.5292C173.989 96.5161 174.009 96.5106 174.014 96.5091C174.019 96.5078 174.01 96.5107 173.982 96.5138C173.953 96.517 173.909 96.52 173.846 96.52V100.52C174.592 100.52 175.442 100.379 176.203 99.8311C176.958 99.2872 177.363 98.5309 177.606 97.8367L173.83 96.5153ZM173.846 96.52H169.334V100.52H173.846V96.52ZM169.334 96.52C169.271 96.52 169.227 96.517 169.199 96.5138C169.171 96.5107 169.161 96.5078 169.166 96.5091C169.172 96.5106 169.191 96.5161 169.22 96.5292C169.234 96.5356 169.249 96.5435 169.266 96.5531C169.282 96.5626 169.299 96.5732 169.315 96.5849C169.331 96.5966 169.346 96.6087 169.36 96.6209C169.374 96.633 169.385 96.6445 169.395 96.655C169.415 96.6761 169.424 96.6902 169.426 96.6918C169.426 96.6929 169.419 96.6814 169.405 96.6522C169.391 96.6228 169.372 96.5785 169.35 96.5153L165.574 97.8367C165.817 98.5309 166.222 99.2872 166.978 99.8311C167.738 100.379 168.588 100.52 169.334 100.52V96.52ZM169.358 96.5396L157.694 61.7876L153.902 63.0604L165.566 97.8124L169.358 96.5396ZM157.696 61.7915C157.71 61.8341 157.751 61.9818 157.722 62.2025C157.69 62.4393 157.586 62.6895 157.403 62.8982C157.054 63.2953 156.689 63.272 156.758 63.272V59.272C156.059 59.272 155.095 59.4647 154.398 60.2578C153.624 61.138 153.626 62.2319 153.901 63.0565L157.696 61.7915ZM156.758 63.272H160.166V59.272H156.758V63.272ZM160.166 63.272C160.171 63.272 160.1 63.2725 159.987 63.2318C159.866 63.1882 159.754 63.1174 159.664 63.0332C159.623 62.9946 159.595 62.9601 159.576 62.9355C159.567 62.9233 159.561 62.9137 159.557 62.9072C159.555 62.904 159.553 62.9015 159.552 62.8998C159.551 62.8982 159.551 62.8973 159.551 62.8973C159.551 62.8973 159.551 62.8981 159.552 62.8998C159.553 62.9014 159.554 62.9039 159.556 62.9073C159.559 62.9141 159.563 62.924 159.569 62.9375C159.581 62.965 159.595 63.0037 159.613 63.0565L163.408 61.7915C163.252 61.3236 162.978 60.6601 162.408 60.1228C161.764 59.5157 160.967 59.272 160.166 59.272V63.272ZM196.845 86.184V84.184H194.845V86.184H196.845ZM214.173 84.744L213.212 82.99L211.539 83.9071L212.376 85.6219L214.173 84.744ZM220.317 97.32L218.52 98.1979L218.524 98.2062L218.528 98.2144L220.317 97.32ZM214.509 97.608L212.707 98.4752L212.714 98.4888L212.72 98.5024L214.509 97.608ZM208.989 86.136L210.792 85.2688L210.177 83.9917L208.768 84.1482L208.989 86.136ZM196.845 66.552V64.552H194.845V66.552H196.845ZM196.845 80.904H194.845V82.904H196.845V80.904ZM207.549 84.184H196.845V88.184H207.549V84.184ZM194.845 86.184V97.224H198.845V86.184H194.845ZM194.845 97.224C194.845 97.2417 194.847 97.0189 195.076 96.7833C195.311 96.5418 195.558 96.52 195.597 96.52V100.52C196.404 100.52 197.276 100.258 197.943 99.5727C198.604 98.8931 198.845 98.0223 198.845 97.224H194.845ZM195.597 96.52H192.573V100.52H195.597V96.52ZM192.573 96.52C192.612 96.52 192.86 96.5418 193.095 96.7833C193.324 97.0189 193.325 97.2417 193.325 97.224H189.325C189.325 98.0223 189.567 98.8931 190.228 99.5727C190.895 100.258 191.766 100.52 192.573 100.52V96.52ZM193.325 97.224V63.528H189.325V97.224H193.325ZM193.325 63.528C193.325 63.3419 193.351 63.2438 193.362 63.2096C193.371 63.1819 193.367 63.2093 193.326 63.2516C193.284 63.295 193.249 63.3071 193.259 63.3034C193.277 63.297 193.359 63.272 193.533 63.272V59.272C192.44 59.272 191.304 59.5895 190.453 60.4684C189.611 61.337 189.325 62.4679 189.325 63.528H193.325ZM193.533 63.272H207.549V59.272H193.533V63.272ZM207.549 63.272C210.985 63.272 213.434 64.2127 215.027 65.8062C216.62 67.3987 217.645 69.9304 217.645 73.704H221.645C221.645 69.2216 220.415 65.5373 217.856 62.9778C215.297 60.4193 211.698 59.272 207.549 59.272V63.272ZM217.645 73.704C217.645 78.661 215.907 81.5137 213.212 82.99L215.134 86.498C219.448 84.1343 221.645 79.691 221.645 73.704H217.645ZM212.376 85.6219L218.52 98.1979L222.114 96.4421L215.97 83.8661L212.376 85.6219ZM218.528 98.2144C218.468 98.0935 218.288 97.537 218.711 96.972C219.071 96.4927 219.494 96.52 219.405 96.52V100.52C220.181 100.52 221.228 100.283 221.911 99.372C222.659 98.375 222.503 97.2185 222.106 96.4256L218.528 98.2144ZM219.405 96.52H216.189V100.52H219.405V96.52ZM216.189 96.52C216.061 96.52 216.001 96.5107 215.987 96.5079C215.977 96.5061 216.022 96.5136 216.092 96.5513C216.168 96.5913 216.231 96.6436 216.276 96.6929C216.316 96.7369 216.319 96.7551 216.298 96.7136L212.72 98.5024C213.025 99.1106 213.487 99.6953 214.21 100.081C214.889 100.443 215.597 100.52 216.189 100.52V96.52ZM216.312 96.7408L210.792 85.2688L207.187 87.0032L212.707 98.4752L216.312 96.7408ZM208.768 84.1482C208.469 84.1815 208.061 84.184 207.549 84.184V88.184C207.997 88.184 208.646 88.1865 209.21 88.1238L208.768 84.1482ZM207.261 64.552H196.845V68.552H207.261V64.552ZM194.845 66.552V80.904H198.845V66.552H194.845ZM196.845 82.904H207.261V78.904H196.845V82.904ZM207.261 82.904C209.868 82.904 212.183 82.1906 213.828 80.4771C215.46 78.7777 216.125 76.4124 216.125 73.752H212.125C212.125 75.7956 211.615 77.0063 210.943 77.7069C210.284 78.3934 209.166 78.904 207.261 78.904V82.904ZM216.125 73.752C216.125 71.0725 215.462 68.6955 213.832 66.9885C212.186 65.2655 209.868 64.552 207.261 64.552V68.552C209.166 68.552 210.281 69.0625 210.939 69.7515C211.613 70.4565 212.125 71.6795 212.125 73.752H216.125ZM251.632 67.656V65.656H249.632V67.656H251.632ZM259.024 89.112L258.788 91.098L258.791 91.0983L259.024 89.112ZM258.928 94.392L258.68 96.3766L258.688 96.3775L258.695 96.3783L258.928 94.392ZM248.896 85.704L250.828 85.1848L248.934 78.1406L246.97 85.1655L248.896 85.704ZM238.816 94.392L239.05 96.3783L239.057 96.3775L239.065 96.3766L238.816 94.392ZM238.72 89.112L238.954 91.0983L238.957 91.098L238.72 89.112ZM246.112 67.656H248.112V65.656H246.112V67.656ZM246.976 62.376V64.376H254.695L247.948 60.6277L246.976 62.376ZM252.784 64.376H258.736V60.376H252.784V64.376ZM258.736 64.376C258.867 64.376 258.553 64.4085 258.228 64.0842C257.904 63.7599 257.936 63.4457 257.936 63.576H261.936C261.936 62.8903 261.777 61.9761 261.057 61.2558C260.336 60.5355 259.422 60.376 258.736 60.376V64.376ZM257.936 63.576V66.456H261.936V63.576H257.936ZM257.936 66.456C257.936 66.5863 257.904 66.2721 258.228 65.9478C258.553 65.6235 258.867 65.656 258.736 65.656V69.656C259.422 69.656 260.336 69.4965 261.057 68.7762C261.777 68.0559 261.936 67.1417 261.936 66.456H257.936ZM258.736 65.656H251.632V69.656H258.736V65.656ZM249.632 67.656V78.12H253.632V67.656H249.632ZM249.632 78.12C249.632 81.2698 250.587 84.2879 252.157 86.6223C253.711 88.933 256.017 90.7681 258.788 91.098L259.261 87.126C258 86.9759 256.61 86.075 255.476 84.3897C254.358 82.7281 253.632 80.4902 253.632 78.12H249.632ZM258.791 91.0983C258.953 91.1174 258.634 91.1183 258.342 90.766C258.076 90.4446 258.128 90.1773 258.128 90.408H262.128C262.128 89.8227 262.037 88.9554 261.422 88.214C260.783 87.4417 259.912 87.2026 259.258 87.1257L258.791 91.0983ZM258.128 90.408V93.288H262.128V90.408H258.128ZM258.128 93.288C258.128 93.4414 258.086 93.0806 258.465 92.7243C258.869 92.3446 259.268 92.4181 259.162 92.4057L258.695 96.3783C259.405 96.4619 260.404 96.3914 261.204 95.6397C261.979 94.9114 262.128 93.9506 262.128 93.288H258.128ZM259.177 92.4074C255.366 91.9311 251.814 88.8544 250.828 85.1848L246.965 86.2232C248.379 91.4816 253.275 95.7009 258.68 96.3766L259.177 92.4074ZM246.97 85.1655C245.939 88.8546 242.376 91.9315 238.568 92.4074L239.065 96.3766C244.473 95.7005 249.358 91.4814 250.823 86.2425L246.97 85.1655ZM238.583 92.4057C238.477 92.4181 238.876 92.3446 239.28 92.7243C239.659 93.0806 239.616 93.4414 239.616 93.288H235.616C235.616 93.9506 235.766 94.9114 236.541 95.6397C237.341 96.3914 238.34 96.4619 239.05 96.3783L238.583 92.4057ZM239.616 93.288V90.408H235.616V93.288H239.616ZM239.616 90.408C239.616 90.1773 239.669 90.4446 239.402 90.766C239.111 91.1183 238.792 91.1174 238.954 91.0983L238.487 87.1257C237.833 87.2026 236.962 87.4417 236.322 88.214C235.708 88.9554 235.616 89.8227 235.616 90.408H239.616ZM238.957 91.098C241.728 90.7681 244.034 88.933 245.588 86.6223C247.158 84.2879 248.112 81.2698 248.112 78.12H244.112C244.112 80.4902 243.387 82.7281 242.269 84.3897C241.135 86.075 239.745 86.9759 238.484 87.126L238.957 91.098ZM248.112 78.12V67.656H244.112V78.12H248.112ZM246.112 65.656H239.056V69.656H246.112V65.656ZM239.056 65.656C238.926 65.656 239.24 65.6235 239.565 65.9478C239.889 66.2721 239.856 66.5863 239.856 66.456H235.856C235.856 67.1417 236.016 68.0559 236.736 68.7762C237.457 69.4965 238.371 69.656 239.056 69.656V65.656ZM239.856 66.456V63.576H235.856V66.456H239.856ZM239.856 63.576C239.856 63.4457 239.889 63.7599 239.565 64.0842C239.24 64.4085 238.926 64.376 239.056 64.376V60.376C238.371 60.376 237.457 60.5355 236.736 61.2558C236.016 61.9761 235.856 62.8903 235.856 63.576H239.856ZM239.056 64.376H246.976V60.376H239.056V64.376ZM247.948 60.6277C248.018 60.6666 248.112 60.7434 248.182 60.8643C248.215 60.921 248.235 60.9741 248.246 61.0166C248.257 61.0584 248.256 61.0816 248.256 61.08H244.256C244.256 62.4186 244.928 63.5259 246.005 64.1243L247.948 60.6277ZM248.256 61.08V58.44H244.256V61.08H248.256ZM248.256 58.44C248.256 58.3097 248.289 58.6239 247.965 58.9482C247.64 59.2725 247.326 59.24 247.456 59.24V55.24C246.771 55.24 245.857 55.3995 245.136 56.1198C244.416 56.8401 244.256 57.7543 244.256 58.44H248.256ZM247.456 59.24H250.576V55.24H247.456V59.24ZM250.576 59.24C250.707 59.24 250.393 59.2725 250.068 58.9482C249.744 58.6239 249.776 58.3097 249.776 58.44H253.776C253.776 57.7543 253.617 56.8401 252.897 56.1198C252.176 55.3995 251.262 55.24 250.576 55.24V59.24ZM249.776 58.44V61.512H253.776V58.44H249.776ZM249.776 61.512C249.776 62.0897 249.909 63.0149 250.714 63.7005C251.434 64.3141 252.295 64.376 252.784 64.376V60.376C252.704 60.376 252.727 60.3681 252.811 60.3891C252.903 60.4124 253.1 60.4791 253.307 60.6555C253.788 61.0651 253.776 61.5583 253.776 61.512H249.776ZM267.84 59.688C267.84 59.6703 267.839 59.8931 267.61 60.1287C267.375 60.3702 267.127 60.392 267.088 60.392V56.392C266.281 56.392 265.41 56.6538 264.743 57.3393C264.082 58.0189 263.84 58.8897 263.84 59.688H267.84ZM267.088 60.392H270.112V56.392H267.088V60.392ZM270.112 60.392C270.073 60.392 269.826 60.3702 269.591 60.1287C269.362 59.8931 269.36 59.6703 269.36 59.688H273.36C273.36 58.8897 273.119 58.0189 272.458 57.3393C271.791 56.6538 270.919 56.392 270.112 56.392V60.392ZM269.36 59.688V99.624H273.36V59.688H269.36ZM269.36 99.624C269.36 99.6417 269.362 99.4189 269.591 99.1833C269.826 98.9418 270.073 98.92 270.112 98.92V102.92C270.919 102.92 271.791 102.658 272.458 101.973C273.119 101.293 273.36 100.422 273.36 99.624H269.36ZM270.112 98.92H267.088V102.92H270.112V98.92ZM267.088 98.92C267.127 98.92 267.375 98.9418 267.61 99.1833C267.839 99.4189 267.84 99.6417 267.84 99.624H263.84C263.84 100.422 264.082 101.293 264.743 101.973C265.41 102.658 266.281 102.92 267.088 102.92V98.92ZM267.84 99.624V59.688H263.84V99.624H267.84ZM300.836 85.08H302.836V82.8899L300.655 83.0882L300.836 85.08ZM291.956 84.888L292.099 82.8931L289.956 82.74V84.888H291.956ZM293.636 91.992L293.677 89.9924L293.657 89.992H293.636V91.992ZM302.132 91.944L302.168 93.9437L302.834 90.0713L302.132 91.944ZM313.22 91.272L312.987 89.2857L312.939 89.2913L312.891 89.2992L313.22 91.272ZM313.316 96.36L313.636 98.3344L313.645 98.3328L313.316 96.36ZM279.476 96.312L279.147 98.2848L279.16 98.2869L279.476 96.312ZM279.572 91.224L279.86 89.2448L279.833 89.2409L279.806 89.2377L279.572 91.224ZM287.54 92.088L287.427 94.0848L288.435 90.2991L287.54 92.088ZM286.436 83.784H288.436V82.398L287.138 81.9113L286.436 83.784ZM284.372 66.408L284.154 64.42L284.131 64.4225L284.108 64.4255L284.372 66.408ZM284.18 61.368L283.901 59.3876L283.897 59.3881L284.18 61.368ZM305.54 60.6L305.435 62.5972L305.448 62.5979L305.461 62.5984L305.54 60.6ZM307.412 70.632L306.745 68.7467L307.412 72.632V70.632ZM310.628 79.272L310.926 81.2497L310.932 81.2487L310.628 79.272ZM311.732 80.184L313.702 79.8384L313.698 79.815L313.693 79.7918L311.732 80.184ZM312.212 82.92L314.189 82.6159L314.186 82.5951L314.182 82.5744L312.212 82.92ZM311.3 84.168L311.6 86.1454L311.604 86.1447L311.3 84.168ZM306.356 84.744L306.185 82.7513L304.356 82.9081V84.744H306.356ZM300.655 83.0882C300.233 83.1266 299.749 83.128 299.252 83.128V87.128C299.715 87.128 300.383 87.1294 301.017 87.0718L300.655 83.0882ZM299.252 83.128C296.465 83.128 294.064 83.0335 292.099 82.8931L291.814 86.8829C293.88 87.0305 296.376 87.128 299.252 87.128V83.128ZM289.956 84.888V90.504H293.956V84.888H289.956ZM289.956 90.504C289.956 91.3406 290.17 92.3861 291.052 93.1532C291.869 93.8639 292.881 93.992 293.636 93.992V89.992C293.464 89.992 293.4 89.9748 293.408 89.9769C293.425 89.9813 293.54 90.0163 293.677 90.1348C293.821 90.2605 293.903 90.4059 293.94 90.5093C293.971 90.5947 293.956 90.6105 293.956 90.504H289.956ZM293.595 93.9916C295.992 94.0405 299.485 93.9916 302.168 93.9437L302.096 89.9443C299.403 89.9924 295.985 90.0395 293.677 89.9924L293.595 93.9916ZM302.834 90.0713C302.899 90.0957 302.91 90.127 302.894 90.1005C302.877 90.0731 302.836 89.988 302.836 89.832H298.836C298.836 91.5095 299.738 93.1822 301.43 93.8167L302.834 90.0713ZM302.836 89.832V85.08H298.836V89.832H302.836ZM308.036 93.704C309.554 93.704 312.593 93.4042 313.549 93.2448L312.891 89.2992C312.12 89.4278 309.303 89.704 308.036 89.704V93.704ZM313.454 93.2583C313.485 93.2546 313.173 93.2933 312.843 92.9986C312.514 92.7051 312.516 92.3927 312.516 92.424H316.516C316.516 91.6393 316.279 90.7029 315.505 90.0134C314.731 89.3227 313.771 89.1934 312.987 89.2857L313.454 93.2583ZM312.516 92.424V95.064H316.516V92.424H312.516ZM312.516 95.064C312.516 95.14 312.507 95.106 312.536 95.0105C312.57 94.8979 312.645 94.7407 312.784 94.5933C312.917 94.4519 313.044 94.3886 313.091 94.3686C313.129 94.3527 313.109 94.3669 312.987 94.3872L313.645 98.3328C314.221 98.2368 315.052 98.0191 315.697 97.3347C316.384 96.6042 316.516 95.7176 316.516 95.064H312.516ZM312.997 94.3857C309.908 94.8854 303.668 95.176 296.324 95.176V99.176C303.669 99.176 310.197 98.8906 313.636 98.3343L312.997 94.3857ZM296.324 95.176C288.71 95.176 283.227 94.8866 279.792 94.3371L279.16 98.2869C282.926 98.8894 288.675 99.176 296.324 99.176V95.176ZM279.805 94.3392C279.573 94.3005 279.787 94.2842 280.028 94.5485C280.299 94.8446 280.276 95.1248 280.276 95.016H276.276C276.276 95.6752 276.421 96.5314 277.076 97.2475C277.702 97.9318 278.516 98.1795 279.147 98.2848L279.805 94.3392ZM280.276 95.016V92.376H276.276V95.016H280.276ZM280.276 92.376C280.276 92.3447 280.279 92.6571 279.949 92.9506C279.619 93.2453 279.307 93.2066 279.339 93.2103L279.806 89.2377C279.021 89.1454 278.061 89.2747 277.287 89.9654C276.514 90.6549 276.276 91.5913 276.276 92.376H280.276ZM279.284 93.2032C281.951 93.591 284.8 93.9361 287.427 94.0848L287.653 90.0912C285.193 89.9519 282.474 89.625 279.86 89.2448L279.284 93.2032ZM288.435 90.2991C288.497 90.3302 288.504 90.3599 288.487 90.3298C288.47 90.2986 288.436 90.2148 288.436 90.072H284.436C284.436 91.5805 285.163 93.1356 286.646 93.8769L288.435 90.2991ZM288.436 90.072V83.784H284.436V90.072H288.436ZM287.138 81.9113C285.898 81.4463 285.263 80.8915 284.895 80.2983C284.506 79.6731 284.26 78.7591 284.26 77.304H280.26C280.26 79.1609 280.566 80.9109 281.497 82.4097C282.449 83.9405 283.902 84.9697 285.734 85.6567L287.138 81.9113ZM284.26 77.304C284.26 76.0923 284.443 75.2911 284.729 74.7328C284.993 74.215 285.416 73.7663 286.186 73.374C287.897 72.5023 290.99 72.056 296.468 72.056V68.056C291.05 68.056 287.04 68.4497 284.37 69.81C282.95 70.5337 281.864 71.549 281.167 72.9122C280.491 74.2349 280.26 75.7317 280.26 77.304H284.26ZM296.468 72.056H302.42V68.056H296.468V72.056ZM302.42 72.056C303.642 72.056 304.93 71.8391 305.951 71.0762C307.083 70.2309 307.54 68.9845 307.54 67.704H303.54C303.54 67.88 303.511 67.9374 303.516 67.9262C303.518 67.9207 303.525 67.9077 303.537 67.8927C303.549 67.8779 303.558 67.8711 303.557 67.8718C303.534 67.8889 303.263 68.056 302.42 68.056V72.056ZM307.54 67.704C307.54 66.542 307.187 65.2643 305.976 64.4269C304.959 63.724 303.67 63.592 302.516 63.592V67.592C302.978 67.592 303.293 67.6237 303.503 67.6661C303.712 67.7085 303.745 67.7479 303.701 67.7171C303.632 67.6694 303.564 67.586 303.531 67.5083C303.509 67.4581 303.54 67.4965 303.54 67.704H307.54ZM302.516 63.592C296.236 63.592 289.053 63.8811 284.154 64.42L284.591 68.396C289.292 67.8789 296.317 67.592 302.516 67.592V63.592ZM284.108 64.4255C284.133 64.4221 284.486 64.3912 284.846 64.7077C285.205 65.0227 285.22 65.3743 285.22 65.4H281.22C281.22 66.1457 281.451 67.0493 282.206 67.7123C282.962 68.3768 283.891 68.4899 284.637 68.3905L284.108 64.4255ZM285.22 65.4V62.52H281.22V65.4H285.22ZM285.22 62.52C285.22 62.3901 285.251 62.6723 284.981 62.9952C284.698 63.3326 284.386 63.3589 284.463 63.3479L283.897 59.3881C283.302 59.4731 282.511 59.7154 281.916 60.4248C281.333 61.1197 281.22 61.9299 281.22 62.52H285.22ZM284.46 63.3484C288.418 62.7896 294.222 62.456 299.78 62.456V58.456C294.106 58.456 288.103 58.7944 283.901 59.3876L284.46 63.3484ZM299.78 62.456C301.717 62.456 303.65 62.5033 305.435 62.5972L305.645 58.6028C303.783 58.5047 301.779 58.456 299.78 58.456V62.456ZM305.461 62.5984C307.051 62.6612 307.912 63.0309 308.35 63.4029C308.72 63.7168 309.012 64.2192 309.012 65.208H313.012C313.012 63.3168 312.392 61.5872 310.938 60.3531C309.553 59.1771 307.677 58.6828 305.619 58.6016L305.461 62.5984ZM309.012 65.208C309.012 66.2289 308.768 66.9782 308.412 67.5126C308.062 68.0384 307.528 68.4692 306.745 68.7467L308.08 72.5173C309.6 71.9788 310.867 71.0416 311.74 69.7314C312.608 68.4298 313.012 66.8751 313.012 65.208H309.012ZM307.412 72.632H309.572V68.632H307.412V72.632ZM309.572 72.632C309.532 72.632 309.23 72.6139 308.938 72.3222C308.646 72.0306 308.628 71.7282 308.628 71.688H312.628C312.628 70.9758 312.418 70.1454 311.766 69.4938C311.115 68.8421 310.284 68.632 309.572 68.632V72.632ZM308.628 71.688V74.136H312.628V71.688H308.628ZM308.628 74.136C308.628 74.0998 308.643 73.8393 308.893 73.5721C309.16 73.2872 309.465 73.24 309.572 73.24V77.24C310.351 77.24 311.184 76.9768 311.811 76.3079C312.422 75.6567 312.628 74.8442 312.628 74.136H308.628ZM309.572 73.24C307.407 73.24 305.107 73.2043 302.866 73.1683C300.634 73.1324 298.456 73.096 296.564 73.096V77.096C298.417 77.096 300.558 77.1316 302.802 77.1677C305.038 77.2037 307.37 77.24 309.572 77.24V73.24ZM296.564 73.096C293.151 73.096 290.68 73.2162 289.042 73.6737C288.196 73.91 287.329 74.2984 286.685 75.0241C285.992 75.8043 285.78 76.7183 285.78 77.544H289.78C289.78 77.4097 289.802 77.5377 289.677 77.6789C289.6 77.7656 289.632 77.662 290.118 77.5263C291.144 77.2398 293.066 77.096 296.564 77.096V73.096ZM285.78 77.544C285.78 78.4018 285.992 79.4047 286.81 80.2356C287.545 80.9819 288.538 81.3439 289.512 81.5604C291.444 81.9896 294.539 82.088 299.204 82.088V78.088C294.414 78.088 291.797 77.9704 290.38 77.6556C289.68 77.5001 289.59 77.3581 289.661 77.4294C289.814 77.5853 289.78 77.7422 289.78 77.544H285.78ZM299.204 82.088C303.085 82.088 307.313 81.7941 310.926 81.2497L310.33 77.2943C306.935 77.8059 302.907 78.088 299.204 78.088V82.088ZM310.932 81.2487C310.92 81.2507 310.811 81.2665 310.644 81.2325C310.462 81.1952 310.259 81.1078 310.08 80.9584C309.747 80.6808 309.736 80.4005 309.771 80.5762L313.693 79.7918C313.585 79.2475 313.334 78.4632 312.641 77.8856C311.875 77.2474 310.985 77.1936 310.324 77.2953L310.932 81.2487ZM309.762 80.5296L310.242 83.2656L314.182 82.5744L313.702 79.8384L309.762 80.5296ZM310.235 83.2241C310.208 83.0438 310.243 82.7924 310.411 82.5631C310.579 82.3329 310.81 82.2198 310.996 82.1913L311.604 86.1447C313.329 85.8794 314.452 84.3228 314.189 82.6159L310.235 83.2241ZM311.001 82.1906C309.466 82.4231 307.829 82.6104 306.185 82.7513L306.527 86.7367C308.243 86.5896 309.967 86.3929 311.6 86.1454L311.001 82.1906ZM304.356 84.744V90.216H308.356V84.744H304.356ZM304.356 90.216C304.356 91.0526 304.57 92.0981 305.452 92.8652C306.269 93.5759 307.281 93.704 308.036 93.704V89.704C307.864 89.704 307.8 89.6868 307.808 89.6889C307.825 89.6933 307.94 89.7283 308.077 89.8468C308.221 89.9725 308.303 90.1179 308.34 90.2213C308.371 90.3068 308.356 90.3225 308.356 90.216H304.356Z" fill="black" mask="url(#path-3-outside-1_82_3006)"/>
<g clip-path="url(#clip0_82_3006)">
<g clip-path="url(#clip1_82_3006)">
<path d="M274.094 315.735C272.98 323.06 266.139 328.083 258.822 326.969C251.504 325.854 246.485 319.007 247.599 311.682C248.712 304.357 255.553 299.334 262.871 300.449C270.189 301.563 275.207 308.41 274.094 315.735Z" fill="black" stroke="black" stroke-width="2" stroke-linecap="round" stroke-linejoin="round"/>
<path d="M280.891 329.748C280.038 335.35 274.817 339.186 269.22 338.332C263.623 337.478 259.79 332.252 260.644 326.65C261.497 321.048 266.718 317.212 272.315 318.066C277.912 318.92 281.744 324.146 280.891 329.748Z" fill="black" stroke="black" stroke-width="2" stroke-linecap="round" stroke-linejoin="round"/>
<path d="M291.55 341.937C290.696 347.539 285.475 351.375 279.879 350.521C274.282 349.667 270.449 344.441 271.302 338.839C272.156 333.237 277.377 329.401 282.974 330.255C288.57 331.109 292.403 336.335 291.55 341.937Z" fill="black" stroke="black" stroke-width="2" stroke-linecap="round" stroke-linejoin="round"/>
<path d="M186.076 315.735C187.19 323.06 194.03 328.083 201.348 326.969C208.666 325.854 213.685 319.007 212.571 311.682C211.457 304.357 204.617 299.334 197.299 300.449C189.981 301.563 184.963 308.41 186.076 315.735Z" fill="black" stroke="black" stroke-width="2" stroke-linecap="round" stroke-linejoin="round"/>
<path d="M179.279 329.748C180.132 335.35 185.353 339.186 190.95 338.332C196.547 337.478 200.379 332.252 199.526 326.65C198.673 321.048 193.452 317.212 187.855 318.066C182.258 318.92 178.426 324.146 179.279 329.748Z" fill="black" stroke="black" stroke-width="2" stroke-linecap="round" stroke-linejoin="round"/>
<path d="M168.606 341.937C169.459 347.539 174.68 351.375 180.277 350.521C185.874 349.667 189.706 344.441 188.853 338.839C188 333.237 182.779 329.401 177.182 330.255C171.585 331.109 167.753 336.335 168.606 341.937Z" fill="black" stroke="black" stroke-width="2" stroke-linecap="round" stroke-linejoin="round"/>
<path d="M272.995 369.904C259.082 368.153 248.669 356.254 248.669 342.212V314.316H211.486V342.212C211.486 356.254 201.088 368.153 187.161 369.904C186.944 369.933 186.713 369.962 186.496 369.977V386.957H273.645V369.977C273.414 369.948 273.197 369.919 272.98 369.904H272.995Z" fill="#FFB3A4" stroke="black" stroke-width="2" stroke-linecap="round" stroke-linejoin="round"/>
<path d="M190.097 271.598C190.097 271.598 182.229 267.689 183.097 278.792C184.428 295.888 193.177 297.104 193.177 297.104L190.097 271.598Z" fill="#FFB3A4" stroke="black" stroke-width="2" stroke-linecap="round" stroke-linejoin="round"/>
<path d="M270.059 271.598C270.059 271.598 277.926 267.689 277.058 278.792C275.728 295.888 266.978 297.104 266.978 297.104L270.059 271.598Z" fill="#FFB3A4" stroke="black" stroke-width="2" stroke-linecap="round" stroke-linejoin="round"/>
<path d="M271.259 260.813L267.716 292.834C265.59 312.029 249.378 326.563 230.07 326.563C210.763 326.563 194.566 312.044 192.44 292.834L190.082 271.598L188.882 260.813C186.394 238.361 203.952 218.746 226.527 218.746H233.614C256.175 218.746 273.732 238.375 271.245 260.813H271.259Z" fill="#FFB3A4" stroke="black" stroke-width="2" stroke-linecap="round" stroke-linejoin="round"/>
<path d="M230.085 218.746V234.872C202.925 242.747 190.111 271.598 190.111 271.598L188.911 260.813C186.423 238.361 203.98 218.746 226.556 218.746H230.099H230.085Z" fill="black" stroke="black" stroke-width="2" stroke-linecap="round" stroke-linejoin="round"/>
<path d="M230.085 218.746V234.872C257.245 242.747 270.059 271.598 270.059 271.598L271.259 260.813C273.747 238.361 256.189 218.746 233.614 218.746H230.07H230.085Z" fill="black" stroke="black" stroke-width="2" stroke-linecap="round" stroke-linejoin="round"/>
<path d="M243.014 281.528C244.652 281.528 245.979 279.305 245.979 276.563C245.979 273.821 244.652 271.598 243.014 271.598C241.377 271.598 240.049 273.821 240.049 276.563C240.049 279.305 241.377 281.528 243.014 281.528Z" fill="black" stroke="black" stroke-width="2" stroke-linecap="round" stroke-linejoin="round"/>
<path d="M217.156 281.528C218.793 281.528 220.12 279.305 220.12 276.563C220.12 273.821 218.793 271.598 217.156 271.598C215.518 271.598 214.191 273.821 214.191 276.563C214.191 279.305 215.518 281.528 217.156 281.528Z" fill="black" stroke="black" stroke-width="2" stroke-linecap="round" stroke-linejoin="round"/>
<path d="M241.539 248.45C224.343 246.54 230.071 234.872 230.071 234.872C230.071 234.872 221.856 241.372 226.064 248.45" stroke="black" stroke-width="2" stroke-linecap="round" stroke-linejoin="round"/>
<path d="M228.046 288.578C224.184 288.926 225.978 285.582 225.978 285.582" stroke="black" stroke-width="2" stroke-linecap="round" stroke-linejoin="round"/>
<path d="M234.192 285.596C234.192 285.596 235.986 288.94 232.124 288.592" stroke="black" stroke-width="2" stroke-linecap="round" stroke-linejoin="round"/>
<path d="M228.046 288.607C229.405 289.316 230.765 289.316 232.139 288.607" stroke="black" stroke-width="2" stroke-linecap="round" stroke-linejoin="round"/>
<path d="M212.152 287.362C212.152 289.476 209.447 291.184 206.121 291.184C202.795 291.184 200.09 289.476 200.09 287.362C200.09 285.249 202.795 283.541 206.121 283.541C209.447 283.541 212.152 285.249 212.152 287.362Z" fill="#F78879"/>
<path d="M248.004 287.362C248.004 289.476 250.708 291.184 254.034 291.184C257.361 291.184 260.065 289.476 260.065 287.362C260.065 285.249 257.361 283.541 254.034 283.541C250.708 283.541 248.004 285.249 248.004 287.362Z" fill="#F78879"/>
<path d="M257.187 239.359C252.183 239.359 246.413 245.164 241.163 246.308C233.874 247.9 226.281 247.9 218.992 246.308C213.743 245.164 207.972 239.359 202.968 239.359C189.764 239.359 186.929 254.603 186.929 266.256C186.929 277.909 197.632 287.347 210.836 287.347C216.519 287.347 221.74 285.581 225.833 282.657C228.393 280.833 231.748 280.833 234.308 282.657C238.401 285.596 243.622 287.347 249.305 287.347C262.509 287.347 273.211 277.909 273.211 266.256C273.211 254.603 270.377 239.359 257.173 239.359H257.187Z" fill="#B7BABC" stroke="black" stroke-width="2" stroke-linecap="round" stroke-linejoin="round"/>
<path d="M256.103 239.359C251.301 239.359 245.748 239.359 240.715 240.46C233.715 241.994 226.426 241.994 219.426 240.46C214.393 239.359 208.854 239.359 204.038 239.359C191.369 239.359 188.651 248.421 188.651 259.611C188.651 270.801 198.919 279.863 211.602 279.863C217.069 279.863 222.073 278.17 226.007 275.361C228.465 273.61 231.69 273.61 234.134 275.361C238.068 278.184 243.072 279.863 248.539 279.863C261.208 279.863 271.491 270.801 271.491 259.611C271.491 248.421 268.772 239.359 256.103 239.359Z" fill="white" stroke="black" stroke-width="2" stroke-linecap="round" stroke-linejoin="round"/>
<path d="M256.001 243.992L233.455 260.813" stroke="black" stroke-width="2" stroke-linecap="round" stroke-linejoin="round"/>
<path d="M241.539 248.45L218.992 265.272" stroke="black" stroke-width="2" stroke-linecap="round" stroke-linejoin="round"/>
<path d="M236.217 297.915C236.217 301.259 233.469 305.993 230.085 305.993C226.701 305.993 223.953 301.259 223.953 297.915C223.953 294.571 226.701 293.876 230.085 293.876C233.469 293.876 236.217 294.571 236.217 297.915Z" fill="#F78879" stroke="black" stroke-width="2" stroke-linecap="round" stroke-linejoin="round"/>
<path d="M207.35 356.355C207.35 356.355 173.754 347.423 143.065 380.588C112.376 413.752 81.4705 461.046 81.4705 461.046H220.858L226.122 375.217C226.122 375.217 212.195 371.627 207.35 356.355Z" fill="#3BAA57" stroke="black" stroke-width="2" stroke-linecap="round" stroke-linejoin="round"/>
<path d="M252.805 356.355C252.805 356.355 286.401 347.423 317.09 380.588C347.779 413.752 378.685 461.046 378.685 461.046H239.312L234.048 375.217C234.048 375.217 247.975 371.627 252.82 356.355H252.805Z" fill="#3BAA57" stroke="black" stroke-width="2" stroke-linecap="round" stroke-linejoin="round"/>
<path d="M225.399 386.957H234.756L239.312 461.046H221.219L225.399 386.957Z" fill="white" stroke="black" stroke-width="2" stroke-linecap="round" stroke-linejoin="round"/>
<path d="M363.89 234.872C353.202 234.756 353.304 234.669 353.419 245.353C353.535 234.655 353.622 234.756 342.949 234.872C353.636 234.988 353.535 235.075 353.419 224.391C353.304 235.089 353.217 234.988 363.89 234.872Z" fill="#6E91E0" stroke="black" stroke-width="2" stroke-linecap="round" stroke-linejoin="round"/>
<path d="M363.89 234.872C353.202 234.756 353.304 234.669 353.419 245.353C353.535 234.655 353.622 234.756 342.949 234.872C353.636 234.988 353.535 235.075 353.419 224.391C353.304 235.089 353.217 234.988 363.89 234.872Z" fill="white" stroke="black" stroke-width="2" stroke-linecap="round" stroke-linejoin="round"/>
<path d="M164.469 216.01C153.782 215.894 153.883 215.807 153.999 226.49C154.114 215.793 154.201 215.894 143.528 216.01C154.216 216.126 154.114 216.212 153.999 205.529C153.883 216.227 153.796 216.126 164.469 216.01Z" fill="#6E91E0" stroke="black" stroke-width="2" stroke-linecap="round" stroke-linejoin="round"/>
<path d="M164.469 216.01C153.782 215.894 153.883 215.807 153.999 226.49C154.114 215.793 154.201 215.894 143.528 216.01C154.216 216.126 154.114 216.212 153.999 205.529C153.883 216.227 153.796 216.126 164.469 216.01Z" fill="white" stroke="black" stroke-width="2" stroke-linecap="round" stroke-linejoin="round"/>
<path d="M306.374 171.525C295.686 171.409 295.787 171.322 295.903 182.006C296.019 171.308 296.105 171.409 285.432 171.525C296.12 171.641 296.019 171.728 295.903 161.044C295.787 171.742 295.7 171.641 306.374 171.525Z" fill="#6E91E0" stroke="black" stroke-width="2" stroke-linecap="round" stroke-linejoin="round"/>
<path d="M306.374 171.525C295.686 171.409 295.787 171.322 295.903 182.006C296.019 171.308 296.105 171.409 285.432 171.525C296.12 171.641 296.019 171.728 295.903 161.044C295.787 171.742 295.7 171.641 306.374 171.525Z" fill="white" stroke="black" stroke-width="2" stroke-linecap="round" stroke-linejoin="round"/>
<path d="M241.467 164.649C246.124 164.649 246.124 157.411 241.467 157.411C236.81 157.411 236.81 164.649 241.467 164.649Z" fill="black"/>
<path d="M320.431 238.491C325.088 238.491 325.088 231.253 320.431 231.253C315.774 231.253 315.774 238.491 320.431 238.491Z" fill="black"/>
<path d="M91.7821 250.347C96.4389 250.347 96.4389 243.109 91.7821 243.109C87.1252 243.109 87.1252 250.347 91.7821 250.347Z" fill="black"/>
<path d="M152.278 364.375C152.278 364.375 165.439 361.972 168.447 349.812C171.44 337.652 186.756 332.44 180.132 322.626C180.132 322.626 175.953 318.616 170.688 323.132C165.424 327.649 165.164 329.951 163.674 328.575C162.185 327.186 162.242 317.371 162.242 317.371C162.242 317.371 172.626 296.989 167.753 292.052C165.598 289.866 163.428 288.911 161.273 289.635C161.143 288.346 160.753 287.275 160.03 286.537C156.79 283.251 153.507 282.744 150.311 286.522C150.166 286.305 150.022 286.088 149.834 285.914C146.074 282.107 142.241 282.035 138.582 288.071C134.706 285.364 129.297 287.854 123.252 298.132C116.31 309.945 114.633 335.886 115.876 336.421L65.4463 461.046H127.113L152.263 364.389L152.278 364.375Z" fill="#FFB3A4" stroke="black" stroke-width="2" stroke-linecap="round" stroke-linejoin="round"/>
<path d="M161.273 289.62C161.273 289.62 154.577 303.59 154.201 309.699L161.273 289.62Z" fill="#FFB3A4"/>
<path d="M161.273 289.62C161.273 289.62 154.577 303.59 154.201 309.699" stroke="black" stroke-width="2" stroke-linecap="round" stroke-linejoin="round"/>
<path d="M150.311 286.522C150.311 286.522 144.136 300.362 143.687 308.729L150.311 286.522Z" fill="#FFB3A4"/>
<path d="M150.311 286.522C150.311 286.522 144.136 300.362 143.687 308.729" stroke="black" stroke-width="2" stroke-linecap="round" stroke-linejoin="round"/>
<path d="M138.597 288.071C138.597 288.071 133.188 301.056 133.781 308.251L138.597 288.071Z" fill="#FFB3A4"/>
<path d="M138.597 288.071C138.597 288.071 133.188 301.056 133.781 308.251" stroke="black" stroke-width="2" stroke-linecap="round" stroke-linejoin="round"/>
<path d="M157.296 327.2C157.296 327.2 143.282 329.791 140.231 337.507L157.296 327.2Z" fill="#FFB3A4"/>
<path d="M157.296 327.2C157.296 327.2 143.282 329.791 140.231 337.507" stroke="black" stroke-width="2" stroke-linecap="round" stroke-linejoin="round"/>
<path d="M406.554 461.552H344.178L317.828 407.658C317.828 407.658 304.45 407.933 299.085 396.598C293.719 385.278 277.68 383.223 282.222 372.279C282.222 372.279 285.519 367.516 291.564 370.903C297.609 374.276 298.347 376.491 299.518 374.826C300.704 373.176 298.694 363.564 298.694 363.564C298.694 363.564 284.478 345.657 288.267 339.838C289.959 337.276 291.882 335.9 294.138 336.175C294.008 334.873 294.182 333.758 294.731 332.889C297.248 329.024 300.372 327.881 304.248 330.935C304.334 330.689 304.45 330.457 304.595 330.24C307.516 325.753 311.247 324.928 316.049 330.11C319.317 326.694 325.102 328.04 333.071 336.914C342.24 347.105 349.023 372.206 347.909 372.974L406.539 461.524L406.554 461.552Z" fill="#FFB3A4" stroke="black" stroke-width="2" stroke-linecap="round" stroke-linejoin="round"/>
<path d="M294.138 336.176C294.138 336.176 303.481 348.524 305.072 354.444L294.138 336.176Z" fill="#FFB3A4"/>
<path d="M294.138 336.176C294.138 336.176 303.481 348.524 305.072 354.444" stroke="black" stroke-width="2" stroke-linecap="round" stroke-linejoin="round"/>
<path d="M304.262 330.949C304.262 330.949 313.069 343.283 315.167 351.39L304.262 330.949Z" fill="#FFB3A4"/>
<path d="M304.262 330.949C304.262 330.949 313.069 343.283 315.167 351.39" stroke="black" stroke-width="2" stroke-linecap="round" stroke-linejoin="round"/>
<path d="M316.063 330.139C316.063 330.139 323.931 341.778 324.798 348.958L316.063 330.139Z" fill="#FFB3A4"/>
<path d="M316.063 330.139C316.063 330.139 323.931 341.778 324.798 348.958" stroke="black" stroke-width="2" stroke-linecap="round" stroke-linejoin="round"/>
<path d="M305.506 372.206C305.506 372.206 319.751 371.946 324.292 378.909L305.506 372.206Z" fill="#FFB3A4"/>
<path d="M305.506 372.206C305.506 372.206 319.751 371.946 324.292 378.909" stroke="black" stroke-width="2" stroke-linecap="round" stroke-linejoin="round"/>
<path d="M338.682 280.225L338.653 294.267L326.317 287.145L326.36 273.103L338.682 280.225Z" fill="#53DEF1" stroke="black" stroke-width="2" stroke-linecap="round" stroke-linejoin="round"/>
<path d="M350.932 273.103L338.682 280.225L326.36 273.103L338.61 265.981L350.932 273.103Z" fill="#FC6F30" stroke="black" stroke-width="2" stroke-linecap="round" stroke-linejoin="round"/>
<path d="M350.932 273.103L350.888 287.145L338.653 294.267L338.682 280.225L350.932 273.103Z" fill="white" stroke="black" stroke-width="2" stroke-linecap="round" stroke-linejoin="round"/>
<path d="M191.991 164.692L191.948 178.734L179.626 171.612L179.669 157.57L191.991 164.692Z" fill="#53DEF1" stroke="black" stroke-width="2" stroke-linecap="round" stroke-linejoin="round"/>
<path d="M204.241 157.57L191.991 164.692L179.669 157.57L191.905 150.448L204.241 157.57Z" fill="#FC6F30" stroke="black" stroke-width="2" stroke-linecap="round" stroke-linejoin="round"/>
<path d="M204.241 157.57L204.197 171.612L191.948 178.734L191.991 164.692L204.241 157.57Z" fill="white" stroke="black" stroke-width="2" stroke-linecap="round" stroke-linejoin="round"/>
<path d="M115.746 212.449L115.703 226.49L103.381 219.368L103.424 205.326L115.746 212.449Z" fill="#53DEF1" stroke="black" stroke-width="2" stroke-linecap="round" stroke-linejoin="round"/>
<path d="M127.981 205.326L115.746 212.449L103.424 205.326L115.659 198.204L127.981 205.326Z" fill="#FC6F30" stroke="black" stroke-width="2" stroke-linecap="round" stroke-linejoin="round"/>
<path d="M127.981 205.326L127.952 219.368L115.703 226.49L115.746 212.449L127.981 205.326Z" fill="white" stroke="black" stroke-width="2" stroke-linecap="round" stroke-linejoin="round"/>
</g>
</g>
<defs>
<clipPath id="clip0_82_3006">
<rect width="452" height="332" fill="white" transform="translate(10 130)"/>
</clipPath>
<clipPath id="clip1_82_3006">
<rect width="344" height="314" fill="white" transform="translate(64 149)"/>
</clipPath>
</defs>
</svg>
