<svg width="980" height="596" viewBox="0 0 980 596" fill="none" xmlns="http://www.w3.org/2000/svg">
<g clip-path="url(#clip0_678_2554)">
<rect width="980" height="595.28" transform="translate(0 0.279297)" fill="#83DBCC"/>
<g clip-path="url(#clip1_678_2554)">
<path d="M229.799 346.59C292.903 346.59 344.059 295.434 344.059 232.33C344.059 169.226 292.903 118.07 229.799 118.07C166.695 118.07 115.539 169.226 115.539 232.33C115.539 295.434 166.695 346.59 229.799 346.59Z" fill="#D4F4EE"/>
<path d="M176.999 420.849C197.782 420.849 214.629 412.177 214.629 401.479C214.629 390.782 197.782 382.109 176.999 382.109C156.217 382.109 139.369 390.782 139.369 401.479C139.369 412.177 156.217 420.849 176.999 420.849Z" fill="#3F4C15"/>
<path d="M176.999 421.179C156.069 421.179 139.039 412.339 139.039 401.479C139.039 390.619 156.069 381.779 176.999 381.779C197.929 381.779 214.959 390.619 214.959 401.479C214.959 412.349 197.929 421.179 176.999 421.179ZM176.999 382.439C156.429 382.439 139.699 390.979 139.699 401.489C139.699 411.999 156.429 420.539 176.999 420.539C197.569 420.539 214.299 411.989 214.299 401.489C214.299 390.989 197.569 382.439 176.999 382.439Z" fill="#333333"/>
<path d="M163.03 317.871L149.73 406.711C154.97 409.141 163.19 412.181 173.67 413.091C186.03 414.161 195.99 411.791 201.87 409.901C203.82 385.071 205.77 360.251 207.72 335.421C207.72 335.421 214.1 326.911 212.51 316.801C196.01 317.171 179.52 317.521 163.03 317.871Z" fill="#FFD9DD"/>
<path d="M179.91 413.7C177.83 413.7 175.74 413.61 173.64 413.43C165.31 412.71 157.21 410.55 149.59 407.02C149.46 406.96 149.38 406.82 149.4 406.68L162.7 317.83C162.72 317.67 162.86 317.56 163.02 317.55L212.5 316.49C212.64 316.5 212.8 316.6 212.83 316.77C214.35 326.38 208.67 334.67 208.04 335.56L202.2 409.95C202.19 410.08 202.1 410.19 201.98 410.23C194.77 412.54 187.37 413.7 179.91 413.7ZM150.09 406.53C157.58 409.97 165.52 412.07 173.7 412.78C183.13 413.6 192.5 412.55 201.56 409.67L207.39 335.41L207.45 335.24C207.51 335.16 213.61 326.88 212.22 317.15L163.3 318.2L150.09 406.53Z" fill="#333333"/>
<path d="M198.353 244.672L197.961 299.662L213.221 299.771L213.613 244.781L198.353 244.672Z" fill="#BCE8E1"/>
<path d="M213.221 300.099L197.961 299.989C197.781 299.989 197.641 299.839 197.641 299.659L198.031 244.679L198.131 244.449L198.361 244.359L213.621 244.469C213.801 244.469 213.941 244.619 213.941 244.799L213.551 299.779L213.451 300.009L213.221 300.099ZM198.291 299.339L212.901 299.439L213.291 245.109L198.681 245.009L198.291 299.339Z" fill="#333333"/>
<path d="M249.44 186.982C249.628 160.622 232.61 139.13 211.43 138.979C190.25 138.828 172.928 160.075 172.74 186.436C172.553 212.797 189.57 234.288 210.75 234.439C231.931 234.59 249.253 213.343 249.44 186.982Z" fill="#FBFFDC"/>
<path d="M210.97 234.77H210.74C200.4 234.7 190.71 229.62 183.47 220.47C176.25 211.35 172.32 199.26 172.41 186.44C172.6 160.04 189.98 138.66 211.2 138.66H211.43C221.77 138.73 231.46 143.81 238.7 152.96C245.92 162.08 249.85 174.17 249.76 186.99C249.57 213.4 232.19 234.77 210.97 234.77ZM211.2 139.32C190.33 139.32 173.25 160.41 173.06 186.45C172.97 199.13 176.85 211.07 183.98 220.07C191.1 229.06 200.6 234.05 210.74 234.12H210.96C231.83 234.12 248.91 213.03 249.1 186.99C249.19 174.32 245.31 162.37 238.18 153.37C231.06 144.38 221.56 139.39 211.42 139.32H211.2Z" fill="#333333"/>
<path d="M239.962 186.984C240.15 160.624 223.132 139.132 201.952 138.981C180.772 138.83 163.45 160.077 163.262 186.438C163.074 212.799 180.092 234.29 201.272 234.441C222.452 234.592 239.774 213.345 239.962 186.984Z" fill="#E7EAC3"/>
<path d="M201.489 234.77H201.259C190.919 234.7 181.229 229.62 173.989 220.47C166.769 211.35 162.839 199.26 162.929 186.44C163.119 160.04 180.499 138.66 201.719 138.66H201.949C212.289 138.73 221.979 143.81 229.219 152.96C236.439 162.08 240.369 174.17 240.279 186.99C240.189 199.81 236.089 211.84 228.729 220.86C221.419 229.84 211.749 234.77 201.489 234.77ZM201.719 139.32C180.849 139.32 163.769 160.41 163.579 186.45C163.489 199.13 167.369 211.07 174.499 220.07C181.619 229.06 191.119 234.05 201.259 234.12H201.479C211.539 234.12 221.029 229.27 228.219 220.45C235.479 211.54 239.529 199.66 239.619 186.98C239.709 174.31 235.829 162.36 228.699 153.36C221.579 144.37 212.079 139.38 201.939 139.31L201.719 139.32Z" fill="#333333"/>
<path d="M232.292 186.929C232.443 165.843 218.829 148.651 201.885 148.531C184.941 148.41 171.083 165.406 170.932 186.492C170.782 207.578 184.396 224.77 201.34 224.891C218.284 225.011 232.142 208.016 232.292 186.929Z" fill="#83DBCC"/>
<path d="M201.511 225.231H201.331C184.241 225.111 170.451 207.731 170.601 186.501C170.751 165.341 184.691 148.211 201.701 148.211H201.881C218.971 148.331 232.761 165.711 232.611 186.941C232.461 208.101 218.531 225.231 201.511 225.231ZM201.701 148.861C185.041 148.861 171.401 165.701 171.251 186.501C171.101 207.371 184.601 224.451 201.331 224.571H201.511C218.171 224.571 231.811 207.731 231.961 186.931C232.111 166.061 218.611 148.981 201.881 148.861H201.701Z" fill="#333333"/>
<path d="M162.51 319.63L169.02 281.85L190.02 258.59C191.99 256.82 194.62 255.97 197.25 256.23L215.93 265.78C215.93 265.78 222.01 267.95 218.97 277.5C218.97 277.5 222.44 280.97 221.58 287.49L220.52 311.15C220.37 314.45 218.28 317.34 215.19 318.51L204.21 322.66C204.21 322.66 206.38 341.77 189.01 343.5" fill="#FFD9DD"/>
<path d="M189 343.84C188.84 343.84 188.69 343.71 188.68 343.55C188.66 343.37 188.79 343.21 188.97 343.19C193.71 342.72 197.41 340.87 199.96 337.72C204.83 331.69 203.89 322.8 203.88 322.71C203.86 322.56 203.95 322.42 204.09 322.37L215.07 318.22C218.04 317.1 220.05 314.32 220.19 311.15L221.25 287.49C222.09 281.2 218.77 277.78 218.74 277.75L218.66 277.42C221.56 268.3 216.06 266.19 215.82 266.1L197.16 256.56C194.65 256.32 192.13 257.16 190.24 258.84L169.33 282L162.83 319.69C162.8 319.87 162.62 319.98 162.45 319.96C162.27 319.93 162.15 319.76 162.18 319.58L168.69 281.8L168.77 281.64L189.77 258.38C191.83 256.53 194.56 255.64 197.27 255.92L197.39 255.95L216.07 265.5C216.09 265.51 222.29 267.84 219.33 277.43C219.99 278.17 222.68 281.61 221.89 287.54L220.83 311.17C220.68 314.6 218.5 317.61 215.29 318.82L204.54 322.89C204.66 324.42 205.03 332.47 200.46 338.13C197.8 341.43 193.95 343.35 189.02 343.85L189 343.84Z" fill="#333333"/>
<path d="M218.96 277.51L212.79 273.98C210.87 272.88 208.67 272.38 206.46 272.53L185.09 274.03" fill="#FFD9DD"/>
<path d="M218.96 277.84L218.8 277.8L212.63 274.27C210.76 273.2 208.63 272.72 206.48 272.87L185.11 274.37C184.93 274.37 184.77 274.25 184.76 274.07C184.75 273.89 184.88 273.73 185.06 273.72L206.43 272.22C208.71 272.06 210.96 272.58 212.94 273.71L219.11 277.24C219.27 277.33 219.32 277.53 219.23 277.68L218.96 277.84Z" fill="#333333"/>
<path d="M196.81 273.49L196.58 273.39C196.45 273.26 196.45 273.06 196.58 272.93L198.75 270.76C198.84 270.67 198.98 270.64 199.1 270.69L203.44 272.43C203.61 272.5 203.69 272.69 203.62 272.85C203.55 273.02 203.36 273.1 203.2 273.03L199.06 271.37L197.04 273.39L196.81 273.49Z" fill="#333333"/>
<path d="M221.131 288.8L213.421 284.24C212.231 283.53 210.831 283.24 209.451 283.39L188.561 285.76" fill="#FFD9DD"/>
<path d="M221.13 289.13L220.96 289.08L213.25 284.52C212.12 283.85 210.79 283.57 209.49 283.72L188.6 286.08C188.42 286.09 188.26 285.97 188.24 285.79C188.22 285.61 188.35 285.45 188.53 285.43L209.42 283.07C210.86 282.91 212.34 283.22 213.59 283.96L221.3 288.52C221.46 288.61 221.51 288.81 221.42 288.97L221.13 289.13Z" fill="#333333"/>
<path d="M220.261 297.919L215.051 294.879C213.311 293.909 211.351 293.589 209.401 294.009L194.641 297.049" fill="#FFD9DD"/>
<path d="M220.26 298.25L220.1 298.21L214.89 295.17C213.2 294.23 211.33 293.94 209.48 294.34L194.71 297.38C194.54 297.42 194.36 297.3 194.33 297.13C194.29 296.95 194.41 296.78 194.58 296.75L209.34 293.71C211.34 293.28 213.37 293.59 215.21 294.61L220.43 297.65C220.59 297.74 220.64 297.94 220.55 298.1L220.26 298.25Z" fill="#333333"/>
<path d="M211.679 201.091H89.6491C88.2091 201.091 87.0391 199.921 87.0391 198.481V170.161C87.0391 168.721 88.2091 167.551 89.6491 167.551H211.679C213.119 167.551 214.289 168.721 214.289 170.161V198.481C214.289 199.921 213.119 201.091 211.679 201.091Z" fill="#FFCC00"/>
<path d="M211.681 201.41H89.6507C88.0307 201.41 86.7207 200.09 86.7207 198.48V170.16C86.7207 168.54 88.0407 167.23 89.6507 167.23H211.681C213.301 167.23 214.611 168.55 214.611 170.16V198.48C214.611 200.1 213.301 201.41 211.681 201.41ZM89.6507 167.88C88.3907 167.88 87.3707 168.9 87.3707 170.16V198.48C87.3707 199.74 88.3907 200.76 89.6507 200.76H211.681C212.941 200.76 213.961 199.74 213.961 198.48V170.16C213.961 168.9 212.941 167.88 211.681 167.88H89.6507Z" fill="#333333"/>
<path d="M183.58 194.27H96.6695C94.7895 194.27 93.2695 192.75 93.2695 190.87V178.33C93.2695 176.45 94.7895 174.93 96.6695 174.93H183.58C185.46 174.93 186.98 176.45 186.98 178.33V190.87C186.98 192.75 185.45 194.27 183.58 194.27Z" fill="white"/>
<path d="M198.659 185.31C198.179 185.31 197.699 185.25 197.229 185.12C195.789 184.74 194.579 183.82 193.819 182.53C192.269 179.87 193.169 176.44 195.829 174.88C198.489 173.33 201.919 174.23 203.479 176.89C204.229 178.18 204.439 179.68 204.059 181.13C203.679 182.57 202.759 183.78 201.469 184.54C200.609 185.05 199.639 185.31 198.659 185.31ZM198.639 174.78C197.789 174.78 196.939 175 196.159 175.45C193.809 176.82 193.009 179.85 194.389 182.2C195.059 183.34 196.119 184.15 197.399 184.49C198.679 184.82 199.999 184.64 201.139 183.98C202.279 183.31 203.089 182.25 203.429 180.97C203.759 179.69 203.579 178.37 202.919 177.23C201.999 175.66 200.339 174.78 198.639 174.78Z" fill="#333333"/>
<path d="M198.66 183.73C197.28 183.73 195.93 183.02 195.19 181.74C194.07 179.83 194.72 177.37 196.63 176.25C197.55 175.71 198.64 175.56 199.67 175.83C200.71 176.1 201.57 176.76 202.11 177.69C202.65 178.61 202.8 179.69 202.53 180.73C202.26 181.77 201.6 182.63 200.67 183.17C200.04 183.55 199.35 183.73 198.66 183.73ZM198.65 176.36C198.06 176.36 197.48 176.52 196.96 176.82C195.36 177.75 194.82 179.81 195.75 181.41C196.68 183.01 198.75 183.55 200.34 182.62C201.11 182.17 201.67 181.44 201.89 180.57C202.12 179.7 201.99 178.8 201.54 178.02C201.09 177.25 200.36 176.69 199.49 176.47C199.22 176.4 198.93 176.36 198.65 176.36Z" fill="#333333"/>
<path d="M205.971 192.57L205.691 192.41L201.031 184.43C200.941 184.27 200.991 184.07 201.151 183.98C201.301 183.89 201.511 183.94 201.601 184.1L206.261 192.08C206.351 192.24 206.301 192.44 206.141 192.53L205.971 192.57Z" fill="#333333"/>
<path d="M169.151 184.89H100.891C100.711 184.89 100.561 184.74 100.561 184.56C100.561 184.38 100.711 184.23 100.891 184.23H169.151C169.331 184.23 169.481 184.38 169.481 184.56C169.481 184.74 169.331 184.89 169.151 184.89Z" fill="#333333"/>
<path d="M345.15 224.53C344.92 224.53 344.73 224.34 344.73 224.11V213.69C344.73 213.46 344.92 213.27 345.15 213.27C345.38 213.27 345.57 213.46 345.57 213.69V224.11C345.57 224.34 345.39 224.53 345.15 224.53Z" fill="#333333"/>
<path d="M547.84 426.25C617.146 426.25 673.33 370.066 673.33 300.76C673.33 231.453 617.146 175.27 547.84 175.27C478.533 175.27 422.35 231.453 422.35 300.76C422.35 370.066 478.533 426.25 547.84 426.25Z" fill="#D4F4EE"/>
<path d="M463.6 206.79C450.67 211.97 449.24 236.76 457.54 248.56L530.44 352.12C536.81 361.16 544.08 365.56 552.8 359.42L572.45 343.34C581.17 337.2 583.07 324.9 576.71 315.85L515.97 222.83C515.97 222.83 493.59 194.76 463.6 206.79Z" fill="#FFD9DD"/>
<path d="M544.839 362.68C543.409 362.68 541.989 362.4 540.589 361.85C537.039 360.45 533.619 357.35 530.099 352.36L457.199 248.8C452.059 241.5 450.459 229 453.399 219.09C455.279 212.75 458.849 208.25 463.439 206.4C493.369 194.41 516.059 222.29 516.289 222.57L577.059 315.62C583.539 324.83 581.579 337.42 572.689 343.68L553.069 359.74C550.289 361.7 547.539 362.68 544.839 362.68ZM463.599 206.79L463.759 207.18C459.399 208.93 456.009 213.24 454.209 219.33C451.339 229.02 452.889 241.21 457.889 248.32L530.789 351.88C534.199 356.73 537.509 359.74 540.899 361.07C544.709 362.57 548.519 361.92 552.569 359.08L572.189 343.02C580.729 337.01 582.589 324.94 576.369 316.1L515.619 223.07C515.419 222.82 493.109 195.42 463.759 207.19L463.599 206.79Z" fill="#333333"/>
<path d="M473.99 198.57H455.71L460.3 131.79L424.35 123.91L405.85 198.58H382.03C362.14 198.58 346.02 214.7 346.02 234.59V308.92C346.02 328.81 362.14 344.93 382.03 344.93H473.99C493.88 344.93 510 328.81 510 308.92V234.59C510 214.7 493.88 198.57 473.99 198.57Z" fill="#FFD9DD"/>
<path d="M473.99 345.35H382.03C361.94 345.35 345.6 329.01 345.6 308.92V234.59C345.6 214.5 361.94 198.16 382.03 198.16H405.53L423.95 123.81C424 123.59 424.22 123.45 424.45 123.5L460.4 131.38C460.6 131.42 460.74 131.61 460.73 131.82L456.17 198.16H474C494.09 198.16 510.43 214.5 510.43 234.59V308.92C510.42 329.01 494.08 345.35 473.99 345.35ZM382.03 198.99C362.4 198.99 346.44 214.96 346.44 234.58V308.91C346.44 328.54 362.41 344.5 382.03 344.5H473.99C493.62 344.5 509.59 328.53 509.59 308.91V234.58C509.59 214.95 493.62 198.99 473.99 198.99H455.71L455.4 198.86L455.29 198.54L459.85 132.12L424.65 124.4L406.25 198.67C406.2 198.86 406.04 198.99 405.84 198.99H382.03Z" fill="#333333"/>
<path d="M508.92 312.52L505.4 374.24H360.8L351.98 312.52H508.92Z" fill="#FFD9DD"/>
<path d="M505.4 374.659H360.8C360.59 374.659 360.41 374.509 360.39 374.299L351.57 312.579L351.67 312.249L351.99 312.109H508.93L509.23 312.239L509.34 312.549L505.81 374.269C505.8 374.479 505.62 374.659 505.4 374.659ZM361.16 373.819H505L508.48 312.939H352.47L361.16 373.819Z" fill="#333333"/>
<path d="M360.799 374.24C360.799 374.24 348.4 403.4 351.95 429.38C351.95 429.38 420.749 397.17 436.619 457.12C436.619 457.12 477.769 454.07 504.809 423.89C508.599 419.65 510.359 413.96 509.649 408.32L505.39 374.24H360.799Z" fill="#FFD9DD"/>
<path d="M436.629 457.531C436.439 457.531 436.269 457.401 436.229 457.221C432.129 441.721 424.069 431.071 412.279 425.561C386.959 413.731 352.489 429.591 352.139 429.751L351.759 429.741L351.549 429.431C348.019 403.631 360.299 374.371 360.419 374.071C360.489 373.911 360.639 373.811 360.809 373.811H505.399C505.609 373.811 505.789 373.971 505.819 374.181L510.079 408.261C510.799 414.051 508.999 419.851 505.129 424.161C478.289 454.121 437.069 457.501 436.659 457.531H436.629ZM390.519 420.351C397.979 420.351 405.639 421.541 412.619 424.801C424.559 430.381 432.739 441.101 436.939 456.661C440.969 456.271 479.189 451.851 504.499 423.601C508.209 419.471 509.929 413.911 509.239 408.361L505.029 374.651H361.079C359.889 377.561 349.209 404.611 352.299 428.761C355.449 427.381 372.389 420.351 390.519 420.351Z" fill="#333333"/>
<path d="M344.589 447.24L339.699 600.47H522.789L516.359 443.43L344.589 447.24Z" fill="#A3E5DB"/>
<path d="M522.789 600.89H339.699L339.399 600.76L339.279 600.46L344.169 447.24C344.179 447.02 344.359 446.84 344.579 446.83L516.349 443.01H516.359C516.579 443.01 516.769 443.19 516.779 443.41L523.209 600.45L523.089 600.76L522.789 600.89ZM340.139 600.05H522.359L515.969 443.86L344.999 447.65L340.139 600.05Z" fill="#333333"/>
<path d="M402.8 195.311C403.11 195.291 410.47 205.801 411.37 206.641C420.75 215.381 441.06 217.211 452.42 211.531C460.05 207.711 460.05 197.221 460.05 197.221L479.14 195.311C479.14 195.311 493.45 198.171 499.18 202.941C504.91 207.711 520.17 222.981 520.17 222.981L551.66 264.971L519.21 276.421L516.35 443.421L344.58 447.241L345.53 410.981L355.07 203.901C355.07 203.901 365.57 200.081 377.97 198.171C390.4 196.271 402.8 195.311 402.8 195.311Z" fill="#FFCC00"/>
<path d="M344.59 447.661L344.29 447.541L344.17 447.231L345.12 410.971L354.66 203.881C354.67 203.711 354.78 203.56 354.93 203.51C355.04 203.47 365.61 199.661 377.91 197.771C389.82 195.941 402.04 194.96 402.75 194.9C403.1 194.87 403.14 194.861 407.39 200.691C409.19 203.161 411.24 205.971 411.64 206.351C420.49 214.601 440.59 216.981 452.22 211.171C459.54 207.511 459.62 197.33 459.62 197.23C459.62 197.01 459.78 196.831 460 196.811L479.09 194.9L479.21 194.911C479.8 195.031 493.69 197.851 499.44 202.631C505.12 207.361 520.31 222.541 520.46 222.701L551.99 264.731L552.06 265.101L551.8 265.37L519.63 276.721L516.77 443.43C516.77 443.66 516.59 443.84 516.36 443.84L344.59 447.661ZM355.5 204.201L345.97 411.001L345.03 446.811L515.96 443.011L518.82 276.411C518.82 276.231 518.93 276.08 519.1 276.02L551.01 264.761L519.86 223.23C519.75 223.12 504.58 207.96 498.93 203.26C493.54 198.77 480.16 195.94 479.14 195.73L460.49 197.59C460.41 199.56 459.67 208.38 452.63 211.9C440.52 217.96 420.34 215.541 411.11 206.941C410.68 206.541 409.1 204.391 406.75 201.171C405.15 198.981 403.19 196.28 402.68 195.73C401.17 195.85 389.66 196.791 378.07 198.581C366.91 200.311 357.2 203.611 355.5 204.201Z" fill="#333333"/>
<path d="M431.289 223.919C402.219 223.919 393.149 197.119 393.059 196.839C392.989 196.619 393.109 196.379 393.329 196.309C393.559 196.239 393.789 196.359 393.859 196.579C393.949 196.859 403.549 225.079 434.659 222.969C434.899 222.979 453.969 223.329 463.879 213.269C468.089 208.999 470.089 203.439 469.829 196.729C469.819 196.499 469.999 196.299 470.229 196.289C470.459 196.299 470.659 196.459 470.669 196.689C470.939 203.639 468.849 209.419 464.479 213.849C454.299 224.169 434.859 223.799 434.679 223.789C433.519 223.879 432.389 223.919 431.289 223.919Z" fill="#333333"/>
<path d="M510.25 256.219C510.02 256.219 509.84 256.039 509.83 255.809L509.26 228.719C509.26 228.489 509.44 228.299 509.67 228.289H509.68C509.91 228.289 510.09 228.469 510.1 228.699L510.67 255.789C510.67 256.029 510.49 256.219 510.25 256.219Z" fill="#333333"/>
<path d="M348.979 207.479C364.349 201.789 384.879 253.319 387.359 270.059L409.999 385.809C411.899 398.639 409.219 408.169 396.699 409.719L366.659 411.269C354.139 412.819 342.459 403.679 340.559 390.839L316.969 262.569C316.969 262.579 313.339 220.679 348.979 207.479Z" fill="#FFD9DD"/>
<path d="M363.88 411.861C352.28 411.861 341.93 402.971 340.15 390.901L316.57 262.641C316.53 262.181 313.32 220.241 348.85 207.081C351.23 206.201 353.82 206.581 356.57 208.211C370.55 216.491 385.69 255.841 387.78 270.001L410.42 385.721C411.69 394.321 410.8 400.471 407.69 404.551C405.34 407.641 401.66 409.521 396.76 410.121L366.69 411.681C365.74 411.811 364.8 411.861 363.88 411.861ZM351.41 207.471C350.63 207.471 349.87 207.611 349.13 207.881C314.2 220.821 317.35 262.131 317.39 262.541L340.97 390.771C342.83 403.371 354.32 412.381 366.61 410.861L396.68 409.301C401.32 408.721 404.81 406.961 407.02 404.051C409.98 400.161 410.82 394.211 409.59 385.861L386.95 270.141C384.87 256.091 369.92 217.101 356.13 208.931C354.48 207.961 352.9 207.471 351.41 207.471Z" fill="#333333"/>
<path d="M471.111 214.289L466.451 211.539C466.451 211.539 461.261 212.689 462.971 218.439L466.521 221.199L471.111 214.289Z" fill="#D5E0D2"/>
<path d="M466.52 221.49L466.34 221.43L462.79 218.67L462.69 218.52C462.13 216.63 462.23 215 462.99 213.7C464.12 211.77 466.29 211.27 466.38 211.25L466.59 211.28L471.25 214.03L471.39 214.22L471.35 214.45L466.76 221.36L466.56 221.49H466.52ZM463.23 218.26L466.46 220.77L470.71 214.38L466.42 211.85C465.99 211.97 464.37 212.52 463.51 214C462.83 215.14 462.74 216.57 463.23 218.26Z" fill="#333333"/>
<path d="M568.05 279.66L568.26 279.84L568.38 279.94L569.1 280.65L580.65 292.09L578.62 295.26L563.49 288.97L562.65 288.62L562.32 288.44C563.01 283.37 568.05 279.66 568.05 279.66Z" fill="#D5E0D2"/>
<path d="M578.609 295.56L578.5 295.54L562.53 288.9L562.159 288.7L562.02 288.41C562.73 283.27 567.66 279.59 567.87 279.43L568.21 279.42L568.37 279.55L568.44 279.61L568.52 279.68L568.58 279.74L580.849 291.89L580.89 292.26L578.859 295.43L578.609 295.56ZM562.63 288.29L562.78 288.37L578.5 294.9L580.27 292.14L568.169 280.15L568.07 280.07L568.039 280.04C567.149 280.75 563.32 284.04 562.63 288.29Z" fill="#333333"/>
<path d="M467.52 223.019C465.13 221.369 464.53 218.099 466.18 215.709C467.83 213.319 471.1 212.719 473.49 214.369L568.04 279.659C568.04 279.659 563 283.369 562.31 288.439L562.07 288.309L467.52 223.019Z" fill="#6B8922"/>
<path d="M562.321 288.859L562.101 288.799L561.851 288.659L467.301 223.369C466.051 222.509 465.211 221.209 464.941 219.719C464.671 218.229 464.991 216.719 465.851 215.469C466.711 214.219 468.011 213.389 469.501 213.109C470.991 212.829 472.501 213.159 473.751 214.019L568.301 279.309L568.481 279.649L568.301 279.999C568.251 280.039 563.401 283.669 562.741 288.499L562.501 288.819L562.321 288.859ZM470.521 213.859C470.231 213.859 469.931 213.889 469.641 213.939C468.371 214.169 467.271 214.889 466.531 215.949C465.801 217.009 465.521 218.299 465.751 219.569C465.981 220.839 466.701 221.949 467.761 222.679L562.011 287.759C562.841 283.739 566.121 280.699 567.341 279.689L473.251 214.719C472.441 214.149 471.491 213.859 470.521 213.859Z" fill="#333333"/>
<path d="M483.229 220.33C483.229 220.33 477.119 223.16 476.609 230.04L476.819 232.83L510.239 255.81L516.569 257.25L480.159 232.44C480.159 232.44 480.129 227.98 486.029 222.74C486.039 222.73 485.839 221.06 483.229 220.33Z" fill="#D5E0D2"/>
<path d="M516.581 257.541L516.511 257.531L510.181 256.091L510.081 256.051L476.651 233.071L476.521 232.851L476.311 230.071C476.821 223.061 483.031 220.101 483.101 220.071L483.301 220.051C486.061 220.821 486.311 222.621 486.321 222.691L486.221 222.941C481.091 227.491 480.521 231.471 480.451 232.281L516.741 257.001L516.841 257.361L516.581 257.541ZM510.371 255.531L515.131 256.611L480.001 232.671L479.871 232.431C479.871 232.251 479.901 227.841 485.711 222.621C485.601 222.241 485.131 221.201 483.261 220.641C482.491 221.041 477.361 223.901 476.911 230.061L477.101 232.661L510.371 255.531Z" fill="#333333"/>
<path d="M580.639 292.09L578.609 295.26L583.019 297.68C583.019 297.68 585.759 299.15 586.609 298.03C586.609 298.03 587.099 297.28 584.859 295.32L580.639 292.09Z" fill="#333333"/>
<path d="M585.56 298.741C584.43 298.741 583.1 298.051 582.89 297.941L578.48 295.521L578.34 295.341L578.38 295.111L580.41 291.941L580.61 291.811L580.84 291.861L585.06 295.081C587.39 297.121 586.99 298.031 586.88 298.191C586.55 298.591 586.08 298.741 585.56 298.741ZM579.03 295.161L583.17 297.431C583.82 297.781 585.82 298.601 586.39 297.861C586.38 297.861 586.56 297.191 584.68 295.541L580.72 292.531L579.03 295.161Z" fill="#333333"/>
<path d="M365.091 348.95L477.871 287.44C491.231 277.28 496.731 283.39 506.481 296.31C516.241 309.23 516.211 323.54 502.851 333.7L392.441 418.06C379.081 428.22 358.441 421.52 348.691 408.6C348.691 408.6 342.661 402.86 341.711 395.23" fill="#FFD9DD"/>
<path d="M377.191 423.421C375.761 423.421 374.311 423.321 372.821 423.111C363.391 421.811 354.02 416.351 348.36 408.851C348.16 408.661 342.26 402.971 341.3 395.281C341.27 395.051 341.431 394.841 341.661 394.811C341.871 394.791 342.101 394.941 342.131 395.171C343.051 402.561 348.921 408.231 348.981 408.291C354.561 415.671 363.72 421.001 372.93 422.271C380.28 423.291 386.941 421.711 392.191 417.711L502.601 333.351C515.071 323.871 516.4 310.111 506.15 296.551C500.251 288.741 495.99 283.561 490.74 282.841C487.19 282.361 483.18 283.921 478.12 287.761L365.281 349.301C365.08 349.411 364.82 349.341 364.71 349.131C364.6 348.931 364.671 348.671 364.881 348.561L477.661 287.061C482.861 283.101 487.081 281.491 490.851 282.011C496.421 282.781 500.781 288.061 506.811 296.041C517.37 310.021 515.981 324.221 503.101 334.011L392.701 418.391C388.331 421.721 383.041 423.421 377.191 423.421Z" fill="#333333"/>
<path d="M477.881 287.45L483.951 266.87C487.061 256.32 496.201 248.66 507.141 247.45L531.411 244.75L572.551 268.26L551.391 310.58L534.931 307.05C534.931 307.05 520.151 326.27 502.851 333.71" fill="#FFD9DD"/>
<path d="M502.86 334.12C502.7 334.12 502.54 334.02 502.48 333.87C502.39 333.66 502.49 333.41 502.7 333.32C519.7 326.01 534.46 306.98 534.61 306.79C534.71 306.66 534.87 306.6 535.03 306.64L551.17 310.1L572 268.42L531.32 245.17L507.19 247.85C496.39 249.05 487.43 256.56 484.36 266.98L478.29 287.56C478.22 287.78 477.99 287.91 477.77 287.84C477.55 287.77 477.42 287.54 477.49 287.32L483.56 266.74C486.73 256 495.97 248.25 507.1 247.02L531.37 244.32L531.62 244.37L572.77 267.88C572.96 267.99 573.04 268.23 572.94 268.43L551.78 310.75C551.69 310.92 551.51 311.02 551.32 310.97L535.12 307.5C533.45 309.61 519.27 327.1 503.04 334.08L502.86 334.12Z" fill="#333333"/>
<path d="M544.479 268.671L544.359 268.651L531.649 264.711L514.539 266.031C514.259 266.071 514.109 265.871 514.089 265.651C514.069 265.421 514.239 265.221 514.469 265.201L531.659 263.881L531.819 263.901L544.599 267.871C544.819 267.941 544.939 268.171 544.869 268.391C544.829 268.561 544.659 268.671 544.479 268.671Z" fill="#333333"/>
<path d="M518.029 286.31C517.829 286.31 517.659 286.17 517.619 285.97C517.569 285.74 517.719 285.52 517.949 285.48L531.169 282.84L531.279 282.83L537.009 283.27C537.239 283.29 537.409 283.49 537.389 283.72C537.369 283.95 537.199 284.13 536.939 284.1L531.269 283.66L518.099 286.29L518.029 286.31Z" fill="#333333"/>
<path d="M521.559 304.821C521.379 304.821 521.209 304.701 521.159 304.511C521.099 304.291 521.229 304.061 521.449 303.991L529.389 301.791C529.609 301.741 529.839 301.861 529.909 302.081C529.969 302.301 529.839 302.531 529.619 302.601L521.679 304.801L521.559 304.821Z" fill="#333333"/>
<path d="M598.4 380.391L507.6 385.061C499.2 385.061 490.06 371.681 493.57 364.061L555.15 230.501C557.03 226.421 561.11 223.811 565.6 223.811H659.97C668.37 223.811 677.37 232.901 673.85 240.531L608.85 373.701C606.97 377.781 602.89 380.391 598.4 380.391Z" fill="white"/>
<path d="M507.621 385.49C503.451 385.49 498.691 382.24 495.471 377.21C492.411 372.42 491.551 367.45 493.191 363.9L554.771 230.34C556.711 226.13 560.961 223.41 565.601 223.41H659.971C664.881 223.41 670.301 226.52 673.141 230.96C675.241 234.23 675.621 237.7 674.231 240.72L609.211 373.9C607.271 378.1 603.031 380.82 598.391 380.83L507.621 385.49ZM565.611 224.23C561.301 224.23 557.341 226.76 555.541 230.68L493.961 364.24C492.471 367.48 493.321 372.28 496.181 376.75C499.251 381.55 503.731 384.65 507.601 384.65L598.381 379.97H598.401C602.711 379.97 606.671 377.44 608.471 373.52L673.491 240.34C674.751 237.59 674.391 234.41 672.451 231.39C669.751 227.17 664.621 224.23 659.981 224.23H565.611Z" fill="#333333"/>
<path d="M602.53 384.529H508.16C499.76 384.529 494.19 375.829 497.71 368.199L559.29 234.639C561.17 230.559 565.25 227.949 569.74 227.949H664.11C672.51 227.949 678.08 236.649 674.56 244.279L612.98 377.839C611.1 381.919 607.02 384.529 602.53 384.529Z" fill="#79E0EE"/>
<path d="M602.531 384.949H508.161C504.071 384.949 500.321 382.889 498.111 379.449C495.911 376.009 495.611 371.739 497.331 368.019L558.91 234.459C560.851 230.249 565.101 227.529 569.741 227.529H664.111C668.201 227.529 671.951 229.589 674.161 233.029C676.361 236.469 676.661 240.739 674.951 244.459L613.371 378.019C611.421 382.229 607.171 384.949 602.531 384.949ZM569.741 228.359C565.431 228.359 561.471 230.889 559.671 234.809L498.091 368.369C496.501 371.819 496.771 375.789 498.821 378.999C500.871 382.199 504.361 384.109 508.161 384.109H602.531C606.841 384.109 610.8 381.579 612.601 377.659L674.181 244.099C675.771 240.649 675.501 236.679 673.451 233.479C671.401 230.279 667.911 228.369 664.111 228.369H569.741V228.359Z" fill="#333333"/>
<path d="M650.639 325.31C650.349 324.33 650.009 323.36 649.669 322.39C651.699 320.22 654.029 313.18 653.279 310.3C652.529 307.42 650.849 304.89 649.189 302.42C643.239 293.54 631.069 297.35 621.349 295.5C621.349 295.5 609.589 295.5 613.869 308.33L598.899 311.54C598.899 311.54 590.349 320.09 601.039 327.57C601.039 327.57 589.279 340.4 599.969 346.81C599.969 346.81 592.489 357.5 604.249 363.91L624.559 368.19C624.559 368.19 639.259 367.12 637.119 355.36C637.179 355.71 642.659 351.62 642.959 351.29C647.209 346.51 645.179 339.24 649.189 335.38C650.839 333.79 651.459 331.35 651.329 329.05C651.269 327.78 650.999 326.53 650.639 325.31Z" fill="#FFD9DD"/>
<path d="M624.56 368.61L624.47 368.6L604.16 364.32L604.05 364.28C600.42 362.3 598.21 359.71 597.48 356.59C596.45 352.21 598.64 348.17 599.4 346.94C596.95 345.36 595.53 343.3 595.17 340.81C594.35 335.19 599.13 329.16 600.43 327.64C597.27 325.32 595.54 322.68 595.29 319.76C594.88 315.04 598.46 311.39 598.62 311.24L598.83 311.13L613.34 308.02C612.09 304 612.28 300.81 613.92 298.54C616.38 295.12 621.16 295.08 621.37 295.08C624.41 295.65 627.67 295.68 630.82 295.71C637.95 295.78 645.33 295.85 649.56 302.18C651.14 304.54 652.93 307.21 653.71 310.19C654.48 313.13 652.23 320.03 650.17 322.47C650.48 323.35 650.79 324.25 651.06 325.18C651.48 326.63 651.71 327.85 651.77 329.02C651.92 331.71 651.09 334.14 649.5 335.67C647.6 337.5 647.12 340.18 646.6 343.01C646.06 345.99 645.5 349.07 643.29 351.56C643.26 351.6 639.21 354.83 637.61 355.62C638.09 358.65 637.5 361.25 635.87 363.35C632.27 367.99 624.92 368.58 624.61 368.6L624.56 368.61ZM604.4 363.52L624.59 367.77C625.28 367.71 631.99 366.99 635.2 362.85C636.74 360.87 637.25 358.38 636.71 355.45C636.67 355.22 636.82 355 637.05 354.96H637.16C637.96 354.6 642.26 351.43 642.65 351.02C644.71 348.71 645.24 345.74 645.76 342.88C646.3 339.91 646.81 337.1 648.9 335.09C650.32 333.73 651.05 331.54 650.92 329.09C650.86 327.99 650.65 326.83 650.24 325.44C649.96 324.46 649.61 323.49 649.28 322.55L649.37 322.12C651.32 320.04 653.59 313.17 652.88 310.43C652.14 307.58 650.47 305.09 648.85 302.67C644.86 296.71 638.03 296.65 630.8 296.58C627.61 296.55 624.32 296.52 621.28 295.94C621.31 295.95 616.8 295.99 614.59 299.06C613.06 301.18 612.96 304.27 614.27 308.22L614.24 308.56L613.97 308.76L599.13 311.94C598.61 312.5 595.78 315.77 596.13 319.71C596.38 322.48 598.11 325.01 601.3 327.24L601.48 327.54L601.37 327.87C601.31 327.94 595.14 334.75 596.01 340.71C596.35 343.06 597.77 345 600.21 346.47L600.4 346.74L600.33 347.07C600.3 347.11 597.18 351.65 598.3 356.43C598.97 359.27 601.02 361.66 604.4 363.52Z" fill="#333333"/>
<path d="M649.94 323.13H649.9C649.67 323.11 649.5 322.9 649.52 322.67C650.14 316.06 641.14 314.5 641.05 314.49L613.77 308.74C613.54 308.69 613.4 308.47 613.45 308.24C613.5 308.02 613.71 307.87 613.95 307.92L641.21 313.67C641.29 313.68 651.05 315.37 650.36 322.75C650.34 322.97 650.16 323.13 649.94 323.13Z" fill="#333333"/>
<path d="M647.141 338.141C646.921 338.141 646.741 337.971 646.721 337.751C646.351 331.801 633.241 331.731 633.111 331.731L600.991 327.981C600.761 327.951 600.601 327.751 600.621 327.521C600.651 327.291 600.861 327.141 601.081 327.151L633.151 330.891H633.171C633.991 330.891 647.131 331.041 647.551 337.691C647.561 337.921 647.391 338.121 647.161 338.131H647.141V338.141Z" fill="#333333"/>
<path d="M637.52 355.38C637.35 355.38 637.19 355.28 637.13 355.11C635.25 350.22 623.99 349.77 623.88 349.77L599.93 347.23C599.7 347.21 599.53 347 599.56 346.77C599.58 346.54 599.79 346.38 600.02 346.4L623.94 348.94C624.4 348.95 635.84 349.41 637.92 354.82C638 355.04 637.9 355.28 637.68 355.36L637.52 355.38Z" fill="#333333"/>
<path d="M360.44 204.8C358.62 204.4 356.83 204.19 355.09 204.14C328.86 203.41 310.87 239.92 314.85 262.79L329.4 346.45C329.4 346.45 356.07 328.26 402.76 324.62L391.82 247.79" fill="#FFCC00"/>
<path d="M329.4 346.87L329.24 346.84L328.99 346.53L314.44 262.87C311.97 248.67 317.98 229.34 328.74 216.9C334.1 210.71 342.99 203.43 355.1 203.73C356.89 203.78 358.72 204 360.53 204.4C360.76 204.45 360.9 204.67 360.85 204.9C360.8 205.13 360.58 205.27 360.35 205.22C358.59 204.84 356.82 204.62 355.07 204.57C343.3 204.29 334.6 211.39 329.37 217.45C318.76 229.71 312.83 248.75 315.26 262.73C315.29 262.9 328.37 338.13 329.7 345.77C333.72 343.23 359.86 327.66 402.27 324.26L391.39 247.88C391.36 247.65 391.52 247.44 391.75 247.41C391.98 247.37 392.19 247.54 392.22 247.77L403.16 324.59L403.07 324.91L402.78 325.07C356.76 328.66 329.89 346.64 329.63 346.82L329.4 346.87Z" fill="#333333"/>
<path d="M327.179 330.499L326.869 330.359C326.719 330.189 326.729 329.919 326.899 329.769C327.149 329.539 352.639 307.059 399.949 309.449C400.179 309.459 400.359 309.659 400.349 309.889C400.339 310.119 400.179 310.279 399.909 310.289C352.949 307.869 327.709 330.169 327.459 330.389L327.179 330.499Z" fill="#333333"/>
<path d="M345.77 437.199C345.54 437.199 345.35 437.019 345.35 436.789C345.35 436.559 345.53 436.369 345.76 436.359L516.72 433.939H516.73C516.96 433.939 517.15 434.119 517.15 434.349C517.15 434.579 516.97 434.769 516.74 434.779L345.77 437.199Z" fill="#333333"/>
<path d="M500.06 457.859C495.72 457.859 493.58 456.649 491.5 455.469C489.33 454.239 487.09 452.969 482.18 452.969C476.88 452.969 474.67 453.779 472.33 454.649C470.1 455.469 467.8 456.319 462.81 456.609C457.36 456.929 454.28 455.759 451.3 454.629C448.67 453.629 446.18 452.689 442.2 452.969C438.2 453.259 434.75 454.079 431.42 454.879C427.71 455.769 424.21 456.609 420.34 456.609C417.77 456.609 415.09 456.019 412.26 455.399C406.95 454.239 401.45 453.039 395.64 455.359C386.47 459.029 381.61 457.259 374.88 454.819L374.73 454.759C369.81 452.969 369 453.199 364.47 454.459C362.98 454.879 361.12 455.389 358.6 455.989C348.1 458.459 344.93 452.989 344.8 452.749C344.69 452.549 344.76 452.299 344.96 452.179C345.16 452.069 345.42 452.139 345.53 452.339C345.65 452.549 348.57 457.479 358.41 455.169C360.91 454.579 362.76 454.069 364.25 453.649C368.89 452.359 369.85 452.089 375.02 453.969L375.17 454.029C381.72 456.409 386.45 458.139 395.33 454.579C401.39 452.159 407.26 453.439 412.44 454.579C415.23 455.189 417.86 455.769 420.34 455.769C424.11 455.769 427.56 454.939 431.22 454.069C434.59 453.259 438.07 452.429 442.13 452.139C446.28 451.839 448.86 452.819 451.58 453.849C454.47 454.949 457.46 456.089 462.74 455.769C467.61 455.489 469.85 454.659 472.02 453.859C474.43 452.969 476.71 452.129 482.16 452.129C487.3 452.129 489.64 453.459 491.9 454.739C494.2 456.049 496.38 457.299 501.54 456.979C511.53 456.389 516.95 449.929 517 449.859C517.15 449.679 517.41 449.649 517.59 449.799C517.77 449.949 517.8 450.209 517.65 450.389C517.42 450.669 511.96 457.209 501.59 457.819C501.05 457.839 500.54 457.859 500.06 457.859Z" fill="#333333"/>
<path d="M463.14 148.069C464.98 138.219 476.45 138.249 477.39 147.839C477.88 152.849 475.54 158.329 471.81 160.909C471.07 161.419 470.28 161.829 469.47 162.109C468 162.629 466.44 162.729 465.03 162.249C463.23 161.629 461.72 160.009 460.98 157.919" fill="#FFD9DD"/>
<path d="M466.969 162.989C466.249 162.989 465.549 162.879 464.899 162.649C462.979 161.989 461.369 160.269 460.599 158.059C460.519 157.839 460.639 157.599 460.859 157.529C461.079 157.449 461.319 157.569 461.389 157.789C462.079 159.759 463.499 161.279 465.179 161.859C466.429 162.289 467.869 162.239 469.349 161.729C470.119 161.459 470.869 161.069 471.589 160.579C475.189 158.079 477.469 152.749 476.989 147.899C476.519 143.059 473.429 141.219 470.929 141.109C467.979 141.019 464.519 143.109 463.569 148.159C463.529 148.389 463.319 148.539 463.079 148.499C462.849 148.459 462.699 148.239 462.739 148.009C463.779 142.459 467.589 140.159 470.959 140.269C473.799 140.389 477.299 142.449 477.819 147.819C478.319 152.959 475.899 158.619 472.059 161.279C471.279 161.819 470.459 162.239 469.629 162.529C468.719 162.829 467.829 162.989 466.969 162.989Z" fill="#333333"/>
<path d="M466.561 155.189L466.461 155.179C466.241 155.119 466.101 154.899 466.151 154.669C466.871 151.719 469.691 149.449 472.721 149.369C472.961 149.369 473.141 149.549 473.151 149.779C473.161 150.009 472.971 150.199 472.741 150.209C470.081 150.279 467.591 152.279 466.961 154.869C466.921 155.059 466.751 155.189 466.561 155.189Z" fill="#333333"/>
<path d="M397.421 156.63C393.201 147.54 382.091 150.41 383.561 159.94C384.331 164.91 387.951 169.64 392.201 171.22C393.041 171.53 393.911 171.73 394.761 171.81C396.311 171.95 397.851 171.67 399.101 170.84C400.691 169.79 401.761 167.85 401.951 165.64" fill="#FFD9DD"/>
<path d="M395.51 172.261C395.25 172.261 394.99 172.251 394.72 172.221C393.83 172.141 392.93 171.941 392.05 171.611C387.67 169.991 383.93 165.101 383.14 160.001C382.32 154.661 385.2 151.811 387.92 150.991C391.13 150.021 395.42 151.341 397.8 156.451C397.9 156.661 397.81 156.911 397.6 157.011C397.39 157.111 397.14 157.011 397.04 156.811C394.87 152.151 391.02 150.931 388.16 151.801C385.76 152.521 383.23 155.081 383.97 159.881C384.71 164.701 388.23 169.311 392.34 170.841C393.15 171.141 393.98 171.331 394.79 171.401C396.35 171.541 397.76 171.231 398.86 170.501C400.34 169.521 401.34 167.701 401.53 165.621C401.55 165.391 401.76 165.211 401.98 165.241C402.21 165.261 402.38 165.461 402.36 165.691C402.15 168.021 401.02 170.081 399.32 171.201C398.25 171.901 396.94 172.261 395.51 172.261Z" fill="#333333"/>
<path d="M469.629 127.43C466.749 104.53 446.679 89.4404 422.449 92.4804C398.229 95.5204 383.469 113.2 386.349 136.1C387.179 142.71 388.559 148.75 392.179 153.92C394.999 157.94 396.169 165.45 398.279 169.87C405.379 184.73 408.139 192.9 435.019 189.52C461.159 186.23 464.099 175.78 466.259 158.06C466.679 154.65 466.449 148.81 467.729 145.62C470.169 139.51 470.499 134.33 469.629 127.43Z" fill="#FFD9DD"/>
<path d="M424.41 190.7C407.72 190.7 404.27 183.43 398.7 171.71L397.91 170.06C397.03 168.21 396.32 165.9 395.58 163.45C394.54 160.03 393.46 156.48 391.84 154.17C387.93 148.59 386.66 141.93 385.94 136.16C384.51 124.82 387.27 114.59 393.92 106.58C400.54 98.59 410.4 93.58 422.41 92.07C434.2 90.59 445.53 93.37 454.31 99.89C463.06 106.4 468.65 116.16 470.06 127.38C470.99 134.8 470.45 139.95 468.13 145.78C467.29 147.89 467.12 151.27 466.97 154.26C466.9 155.68 466.83 157.02 466.7 158.12C464.56 175.66 461.89 186.58 435.1 189.94C431.01 190.45 427.48 190.7 424.41 190.7ZM428.57 92.52C426.57 92.52 424.55 92.65 422.51 92.9C410.71 94.38 401.05 99.3 394.56 107.12C388.07 114.95 385.37 124.95 386.77 136.06C387.48 141.73 388.72 148.26 392.53 153.69C394.23 156.12 395.32 159.72 396.38 163.21C397.12 165.63 397.81 167.91 398.66 169.7L399.45 171.35C406.08 185.31 409.4 192.32 434.97 189.11C461.15 185.82 463.76 175.15 465.85 158.02C465.98 156.95 466.05 155.62 466.12 154.22C466.27 151.17 466.45 147.72 467.34 145.48C469.6 139.8 470.13 134.76 469.22 127.5C467.84 116.51 462.36 106.95 453.8 100.58C446.72 95.29 437.92 92.52 428.57 92.52Z" fill="#333333"/>
<path d="M395.759 164.381L395.389 164.161C394.139 161.811 391.229 160.481 388.639 161.081C388.409 161.121 388.189 160.991 388.139 160.761C388.089 160.531 388.229 160.311 388.449 160.261C391.399 159.591 394.709 161.091 396.129 163.771C396.239 163.971 396.159 164.231 395.959 164.341L395.759 164.381Z" fill="#333333"/>
<path d="M420.05 150.401C420.25 151.961 419.54 153.341 418.47 153.471C417.4 153.601 416.37 152.451 416.18 150.881C415.98 149.321 416.69 147.941 417.76 147.811C418.83 147.681 419.86 148.841 420.05 150.401Z" fill="#333333"/>
<path d="M413.379 152.201H413.359L411.199 152.111C410.969 152.101 410.789 151.901 410.799 151.671C410.809 151.441 410.999 151.251 411.239 151.271L413.399 151.361C413.629 151.371 413.809 151.571 413.799 151.801C413.789 152.021 413.609 152.201 413.379 152.201Z" fill="#333333"/>
<path d="M412.63 153.76C412.42 153.76 412.24 153.6 412.22 153.39C412.19 153.16 412.35 152.95 412.58 152.92L413.9 152.75L414.03 153.16L414 153.59L412.68 153.76H412.63Z" fill="#333333"/>
<path d="M442.651 147.56C442.851 149.12 443.871 150.28 444.941 150.14C446.011 150.01 446.721 148.63 446.521 147.07C446.321 145.51 445.301 144.35 444.231 144.49C443.161 144.62 442.451 146 442.651 147.56Z" fill="#333333"/>
<path d="M449.45 147.66C449.27 147.66 449.1 147.54 449.05 147.36C448.98 147.14 449.11 146.91 449.33 146.84L451.4 146.22C451.63 146.15 451.86 146.28 451.92 146.5C451.99 146.72 451.86 146.95 451.64 147.02L449.57 147.64L449.45 147.66Z" fill="#333333"/>
<path d="M449.179 149.17C448.969 149.17 448.789 149.01 448.759 148.8C448.729 148.57 448.889 148.36 449.119 148.33L450.519 148.15C450.769 148.13 450.959 148.28 450.989 148.51C451.019 148.74 450.859 148.95 450.629 148.98L449.229 149.16L449.179 149.17Z" fill="#333333"/>
<path d="M422.27 167.22L443.94 164.5C443.94 164.5 446.12 171.07 435.2 173.12C435.21 173.11 422.33 175.76 422.27 167.22Z" fill="white"/>
<path d="M430.999 173.92C428.659 173.92 425.879 173.54 423.989 172.01C422.589 170.87 421.869 169.26 421.859 167.22C421.859 167.01 422.019 166.83 422.229 166.8L443.899 164.08C444.119 164.06 444.289 164.17 444.349 164.36C444.379 164.45 445.059 166.59 443.719 168.87C442.379 171.16 439.539 172.72 435.289 173.52C435.139 173.55 433.279 173.92 430.999 173.92ZM422.699 167.58C422.789 169.19 423.399 170.46 424.509 171.36C427.939 174.14 435.049 172.72 435.119 172.7C439.119 171.95 441.759 170.52 442.979 168.46C443.849 166.99 443.739 165.57 443.619 164.95L422.699 167.58Z" fill="#333333"/>
<path d="M419.131 163.02C419.701 167.53 416.501 171.65 411.981 172.22C407.471 172.79 403.351 169.59 402.781 165.07C402.211 160.56 405.411 156.44 409.931 155.87C414.451 155.3 418.561 158.5 419.131 163.02Z" fill="#FFB2BB"/>
<path d="M461.32 157.71C461.89 162.22 458.69 166.34 454.17 166.91C449.66 167.48 445.54 164.28 444.97 159.76C444.4 155.25 447.6 151.13 452.12 150.56C456.64 150 460.75 153.2 461.32 157.71Z" fill="#FFB2BB"/>
<path d="M417.549 179.091C417.379 179.091 417.229 178.991 417.159 178.821C412.849 167.961 421.659 161.931 421.749 161.861C421.939 161.731 422.199 161.781 422.329 161.981C422.459 162.171 422.409 162.431 422.219 162.561C421.879 162.791 413.889 168.291 417.939 178.511C418.029 178.721 417.919 178.971 417.709 179.051L417.549 179.091Z" fill="#333333"/>
<path d="M450.89 174.9H450.84C450.61 174.87 450.45 174.66 450.48 174.43C451.88 163.51 442.48 160.07 442.39 160.03C442.17 159.95 442.06 159.71 442.13 159.5C442.21 159.28 442.45 159.17 442.66 159.24C442.76 159.27 452.79 162.95 451.31 174.53C451.28 174.75 451.1 174.9 450.89 174.9Z" fill="#333333"/>
<path d="M430.981 158.09L430.741 158.01C429.591 157.2 428.341 156.21 428.231 154.73C428.171 153.93 428.461 153.2 428.751 152.5C428.821 152.32 428.891 152.15 428.961 151.98C429.451 150.66 429.581 149.24 429.311 147.86C429.271 147.63 429.421 147.41 429.641 147.37C429.861 147.33 430.091 147.48 430.131 147.7C430.421 149.23 430.281 150.81 429.741 152.27C429.671 152.45 429.601 152.63 429.521 152.82C429.261 153.46 429.011 154.06 429.061 154.66C429.151 155.77 430.221 156.62 431.221 157.32C431.411 157.45 431.461 157.71 431.321 157.9L430.981 158.09Z" fill="#333333"/>
<path d="M413.08 141.79C413.08 141.79 414.29 137.15 418.99 140.6C418.99 140.6 415.56 140.14 413.08 141.79Z" fill="#333333"/>
<path d="M413.08 142.21L412.84 142.13C412.7 142.03 412.63 141.85 412.68 141.68C412.7 141.6 413.22 139.66 414.9 139.07C416.12 138.63 417.58 139.04 419.24 140.26C419.39 140.37 419.45 140.58 419.38 140.75C419.31 140.93 419.13 141.03 418.93 141.01C418.9 141.01 415.63 140.58 413.31 142.13L413.08 142.21ZM415.9 139.75C415.65 139.75 415.41 139.79 415.18 139.87C414.65 140.06 414.26 140.45 414 140.84C415.2 140.34 416.45 140.17 417.41 140.14C416.86 139.87 416.35 139.75 415.9 139.75Z" fill="#333333"/>
<path d="M446.629 137.35C446.629 137.35 444.309 133.15 440.609 137.66C440.609 137.66 443.809 136.36 446.629 137.35Z" fill="#333333"/>
<path d="M440.611 138.079L440.271 137.909C440.161 137.749 440.161 137.539 440.281 137.399C441.591 135.799 442.891 135.069 444.191 135.169C445.961 135.329 446.951 137.079 446.991 137.149C447.071 137.299 447.061 137.489 446.941 137.619C446.831 137.749 446.651 137.799 446.481 137.739C443.851 136.819 440.791 138.029 440.761 138.039L440.611 138.079ZM443.941 135.999C443.331 135.999 442.691 136.269 442.031 136.809C442.971 136.609 444.221 136.459 445.511 136.649C445.151 136.339 444.691 136.049 444.131 136.009L443.941 135.999Z" fill="#333333"/>
<path d="M450.46 86.0092L450.03 85.9392C449.53 85.7592 449.25 85.2292 448.99 84.7692C445.56 78.6092 437.01 77.6992 430.65 77.6992C418.87 77.6992 404.43 82.5192 394.7 88.9692C386.68 94.2792 380.16 102.359 378.27 111.799C377.43 115.969 377.5 120.309 376.4 124.419C374.82 130.309 370.96 135.309 368.66 140.949C364.16 151.949 366.61 165.179 373.87 174.419C380.86 183.309 394.95 184.289 405.53 182.219C404.79 182.309 397.83 168.579 397.14 167.119C394.97 162.579 393.04 156.819 395.41 151.929C395.91 150.889 396.98 150.279 397.93 149.619C410.06 141.319 409.08 121.689 420.62 112.579C422.99 110.709 425.76 109.409 428.49 108.129C430.36 107.259 432.34 106.359 434.39 106.589C436.44 106.809 438.46 108.639 438.09 110.659C439.18 109.169 441.12 108.349 442.95 108.619C445.03 111.619 447.87 114.179 449.42 117.479C452.13 123.279 451.16 130.239 453.59 136.159C455.62 141.109 460.09 144.989 465.28 146.319C463.2 145.029 461.86 142.629 461.86 140.179C461.88 145.189 472.44 141.419 474.01 142.229C476.2 143.359 476.61 146.419 476.8 148.669C477.26 154.159 474.68 158.309 470.36 161.389C465.52 164.619 464.81 167.629 462.56 172.979C462.44 173.279 462.31 173.579 462.32 173.899C462.36 174.999 463.81 175.359 464.92 175.369C471.87 175.409 483.75 176.299 489.35 171.619C495.81 166.229 496.91 154.739 493.43 147.579C492.4 145.459 491.03 143.539 489.86 141.499C484.61 132.319 483.73 121.379 481.15 111.129C477.43 96.3792 467.81 82.6492 451.13 85.9492C450.91 85.9692 450.68 86.0092 450.46 86.0092Z" fill="#E3DFDA"/>
<path d="M396.021 183.569C387.471 183.569 378.691 181.229 373.541 174.679C365.901 164.949 363.831 151.649 368.271 140.789C369.221 138.469 370.441 136.229 371.621 134.069C373.321 130.959 375.071 127.749 375.991 124.309C376.601 122.019 376.861 119.609 377.101 117.269C377.291 115.439 377.491 113.549 377.861 111.709C379.641 102.849 385.691 94.4293 394.471 88.6193C404.711 81.8393 419.251 77.2793 430.651 77.2793H430.661C440.521 77.2793 446.641 79.6693 449.361 84.5693C449.611 85.0193 449.841 85.4293 450.171 85.5493C450.401 85.6293 450.731 85.5793 451.041 85.5193C472.341 81.3193 479.761 103.969 481.541 111.009C482.271 113.899 482.871 116.889 483.451 119.779C484.931 127.129 486.461 134.739 490.211 141.279C490.641 142.039 491.111 142.779 491.571 143.519C492.341 144.759 493.141 146.039 493.791 147.389C497.231 154.469 496.361 166.299 489.601 171.939C484.571 176.139 474.801 175.969 467.661 175.829C466.681 175.809 465.751 175.799 464.901 175.789C463.541 175.779 461.931 175.289 461.881 173.919C461.871 173.499 462.021 173.119 462.151 172.819C462.431 172.139 462.701 171.499 462.941 170.889C464.641 166.699 465.771 163.929 470.101 161.039C474.661 157.779 476.771 153.629 476.351 148.709C476.141 146.239 475.671 143.579 473.791 142.599C473.421 142.409 471.881 142.629 470.521 142.819C467.821 143.199 464.511 143.669 462.711 142.589C463.251 143.969 464.221 145.189 465.471 145.969C465.651 146.079 465.721 146.299 465.641 146.489C465.561 146.679 465.351 146.779 465.151 146.729C459.841 145.379 455.261 141.389 453.181 136.329C451.991 133.429 451.601 130.269 451.221 127.219C450.821 123.979 450.401 120.619 449.021 117.669C448.071 115.639 446.581 113.849 445.131 112.119C444.301 111.129 443.451 110.099 442.691 109.039C441.081 108.869 439.371 109.619 438.411 110.939C438.291 111.099 438.081 111.149 437.911 111.079C437.731 110.999 437.631 110.809 437.661 110.619C437.811 109.769 437.451 109.059 437.121 108.619C436.481 107.759 435.401 107.149 434.321 107.029C432.321 106.829 430.291 107.769 428.651 108.539C425.971 109.789 423.201 111.089 420.861 112.939C415.341 117.299 412.671 124.279 410.091 131.019C407.341 138.219 404.491 145.659 398.151 149.999L397.801 150.239C397.001 150.779 396.161 151.339 395.771 152.149C393.361 157.139 395.601 162.999 397.511 166.979C398.591 169.249 404.631 180.969 405.641 181.849C405.791 181.889 405.911 182.019 405.941 182.189C405.981 182.409 405.831 182.629 405.611 182.669C402.591 183.219 399.321 183.569 396.021 183.569ZM430.651 78.1093C419.401 78.1093 405.051 82.6093 394.941 89.3093C386.341 94.9993 380.421 103.229 378.691 111.869C378.331 113.669 378.131 115.539 377.951 117.349C377.701 119.719 377.451 122.169 376.821 124.519C375.871 128.059 374.091 131.309 372.371 134.459C371.201 136.609 369.991 138.819 369.061 141.099C364.731 151.689 366.751 164.659 374.211 174.149C380.971 182.749 394.731 183.729 404.771 181.929C402.441 178.949 396.831 167.429 396.761 167.299C394.781 163.169 392.451 157.059 395.031 151.739C395.521 150.729 396.451 150.099 397.351 149.499L397.691 149.269C403.811 145.079 406.611 137.759 409.321 130.679C411.941 123.829 414.651 116.749 420.351 112.239C422.771 110.329 425.581 109.009 428.311 107.739C430.051 106.929 432.211 105.909 434.431 106.159C435.741 106.299 437.031 107.039 437.811 108.079C438.171 108.559 438.401 109.059 438.501 109.589C439.711 108.509 441.411 107.969 443.011 108.199L443.291 108.379C444.051 109.469 444.931 110.529 445.791 111.559C447.271 113.339 448.801 115.169 449.791 117.299C451.231 120.379 451.651 123.799 452.061 127.099C452.431 130.099 452.821 133.209 453.971 135.999C455.691 140.179 459.201 143.589 463.401 145.259C462.171 143.869 461.441 142.029 461.431 140.179C461.431 139.949 461.621 139.759 461.851 139.759C462.081 139.759 462.271 139.949 462.271 140.179C462.271 140.819 462.471 141.299 462.881 141.649C464.271 142.849 467.831 142.349 470.441 141.979C472.461 141.699 473.621 141.549 474.201 141.849C476.751 143.169 477.061 146.849 477.211 148.629C477.651 153.869 475.431 158.269 470.601 161.719C466.481 164.469 465.451 166.999 463.741 171.189C463.491 171.799 463.231 172.439 462.941 173.129C462.831 173.379 462.731 173.639 462.731 173.879C462.761 174.709 464.121 174.939 464.911 174.939C465.771 174.939 466.691 174.959 467.681 174.979C474.691 175.109 484.281 175.289 489.071 171.279C495.531 165.879 496.351 154.539 493.041 147.739C492.411 146.429 491.621 145.169 490.861 143.949C490.391 143.199 489.921 142.449 489.491 141.679C485.681 135.019 484.131 127.349 482.641 119.929C482.061 117.049 481.461 114.069 480.741 111.199C479.011 104.329 471.761 82.2593 451.211 86.3193C450.831 86.3893 450.291 86.4593 449.891 86.3193C449.261 86.0893 448.921 85.4893 448.661 85.0093C446.061 80.3593 440.191 78.1093 430.651 78.1093Z" fill="#333333"/>
<path d="M471.84 161.78C472.03 163.33 470.94 164.74 469.39 164.93C467.84 165.12 466.43 164.03 466.24 162.48C466.05 160.93 467.14 159.52 468.69 159.33C470.23 159.14 471.64 160.24 471.84 161.78Z" fill="white"/>
<path d="M469.04 165.379C467.43 165.379 466.04 164.179 465.83 162.539C465.72 161.679 465.95 160.829 466.49 160.149C467.02 159.469 467.79 159.029 468.64 158.919C469.49 158.809 470.35 159.039 471.03 159.579C471.71 160.109 472.15 160.879 472.26 161.729C472.37 162.589 472.14 163.439 471.61 164.119C471.08 164.799 470.31 165.239 469.46 165.349L469.04 165.379ZM469.05 159.729L468.74 159.749C468.1 159.829 467.54 160.149 467.14 160.659C466.75 161.169 466.57 161.799 466.65 162.429C466.81 163.739 468 164.679 469.33 164.509C469.97 164.429 470.53 164.109 470.93 163.599C471.32 163.089 471.5 162.459 471.42 161.829C471.34 161.189 471.02 160.629 470.51 160.229C470.09 159.909 469.58 159.729 469.05 159.729Z" fill="#333333"/>
<path d="M417.819 148.909L417.729 148.899C416.749 148.679 415.959 147.829 415.799 146.849C415.759 146.619 415.919 146.409 416.149 146.369C416.369 146.339 416.589 146.489 416.629 146.719C416.729 147.369 417.269 147.939 417.909 148.089C418.139 148.139 418.279 148.369 418.229 148.589C418.189 148.779 418.009 148.909 417.819 148.909Z" fill="#333333"/>
<path d="M444.61 145.571L444.34 145.471C444.16 145.321 444.15 145.051 444.3 144.881C444.86 144.231 445.1 143.311 444.92 142.471C444.87 142.241 445.02 142.021 445.24 141.971C445.48 141.921 445.69 142.071 445.74 142.291C445.97 143.381 445.66 144.581 444.93 145.421L444.61 145.571Z" fill="#333333"/>
<path d="M384.669 161.09C379.209 161.09 373.719 158.73 370.019 154.71L369.939 154.26C370.009 154.11 370.149 154.01 370.319 154.01C379.349 153.9 385.709 145.56 388.409 138.45C390.049 134.14 390.959 129.52 391.849 125.05C392.619 121.19 393.409 117.2 394.659 113.39C397.789 103.9 403.909 95.3896 411.909 89.4096C416.789 85.7596 421.599 83.6996 426.219 83.2796C431.959 82.7596 437.399 84.9196 440.429 88.9196C443.819 93.4096 443.459 100.14 439.639 103.62C439.469 103.78 439.199 103.76 439.049 103.59C438.889 103.42 438.909 103.15 439.079 103C442.589 99.7996 442.909 93.5796 439.759 89.4196C436.909 85.6496 431.749 83.6096 426.299 84.1096C421.839 84.5196 417.169 86.5296 412.419 90.0796C404.559 95.9596 398.539 104.33 395.459 113.65C394.219 117.4 393.439 121.37 392.669 125.21C391.779 129.71 390.849 134.37 389.189 138.74C386.489 145.85 380.219 154.14 371.269 154.8C375.149 158.6 380.779 160.64 386.189 160.18C386.409 160.14 386.619 160.33 386.639 160.56C386.659 160.79 386.489 160.99 386.259 161.01C385.739 161.06 385.209 161.09 384.669 161.09Z" fill="#333333"/>
<path d="M479.461 142.831C479.241 142.831 479.061 142.661 479.041 142.441C479.021 142.211 479.191 142.011 479.421 141.991C481.291 141.841 482.981 140.351 483.411 138.521C473.231 133.871 465.181 124.311 462.361 113.481C461.941 111.891 461.631 110.241 461.321 108.651C460.711 105.521 460.091 102.281 458.701 99.401C457.421 96.741 454.761 93.7909 451.501 94.1709C447.821 94.6109 445.921 99.0109 444.811 102.281C444.741 102.501 444.501 102.631 444.281 102.541C444.061 102.471 443.941 102.231 444.021 102.011C445.201 98.521 447.251 93.8309 451.401 93.3409C455.071 92.8909 458.051 96.131 459.451 99.041C460.891 102.021 461.531 105.311 462.141 108.501C462.441 110.081 462.761 111.711 463.171 113.281C465.961 123.971 473.961 133.411 484.051 137.901C484.221 137.981 484.321 138.161 484.291 138.341C483.941 140.671 481.831 142.641 479.481 142.821L479.461 142.831Z" fill="#333333"/>
<path d="M397.399 178.611C393.939 178.611 390.489 177.231 388.009 174.831C385.299 172.201 383.769 168.381 383.929 164.611C383.939 164.391 384.129 164.211 384.349 164.211H384.369C384.599 164.221 384.779 164.421 384.769 164.651C384.619 168.191 386.049 171.771 388.589 174.231C391.129 176.691 394.749 178.001 398.289 177.751C398.509 177.711 398.719 177.901 398.739 178.141C398.759 178.371 398.579 178.571 398.349 178.591C398.029 178.601 397.719 178.611 397.399 178.611Z" fill="#333333"/>
<path d="M473.759 171.03C473.329 171.03 472.889 171 472.459 170.95C472.229 170.92 472.069 170.71 472.099 170.48C472.129 170.25 472.319 170.09 472.569 170.12C477.379 170.71 482.479 167.7 484.699 162.98C486.749 158.63 486.399 153.05 483.809 148.41C483.699 148.21 483.769 147.95 483.969 147.84C484.169 147.72 484.429 147.8 484.539 148C487.269 152.88 487.619 158.75 485.459 163.34C483.279 167.95 478.509 171.03 473.759 171.03Z" fill="#333333"/>
<path d="M352.69 254.42L352.42 254.32L341.92 245.25C341.74 245.1 341.73 244.83 341.88 244.66C342.03 244.48 342.3 244.46 342.47 244.62L352.97 253.69C353.15 253.84 353.16 254.11 353.01 254.28L352.69 254.42Z" fill="#333333"/>
<path d="M433.8 239.15C433.62 239.15 433.45 239.03 433.4 238.85C433.33 238.63 433.46 238.39 433.68 238.33L438.45 236.9C438.68 236.83 438.91 236.96 438.97 237.18C439.04 237.4 438.91 237.64 438.69 237.7L433.92 239.13L433.8 239.15Z" fill="#333333"/>
<path d="M419.49 299.271C419.31 299.271 419.14 299.151 419.09 298.961L415.27 285.121C415.21 284.901 415.34 284.671 415.56 284.601C415.78 284.541 416.01 284.671 416.08 284.891L419.9 298.731C419.96 298.951 419.83 299.181 419.61 299.251L419.49 299.271Z" fill="#333333"/>
<path d="M488.189 394.699L488.019 394.669L477.999 390.379C477.789 390.289 477.689 390.039 477.779 389.829C477.869 389.619 478.119 389.519 478.329 389.609L488.349 393.899C488.559 393.989 488.659 394.239 488.569 394.449C488.509 394.609 488.359 394.699 488.189 394.699Z" fill="#333333"/>
<path d="M425.69 425.71L425.51 425.67C425.3 425.57 425.21 425.32 425.31 425.12L431.04 412.71C431.14 412.5 431.39 412.41 431.59 412.51C431.8 412.61 431.89 412.86 431.79 413.06L426.07 425.47C426 425.62 425.85 425.71 425.69 425.71Z" fill="#333333"/>
<path d="M476.271 263.96C476.071 263.96 475.891 263.81 475.861 263.61L473.471 248.82C473.431 248.59 473.591 248.38 473.821 248.34C474.071 248.31 474.261 248.46 474.301 248.69L476.691 263.48C476.731 263.71 476.571 263.92 476.341 263.96H476.271Z" fill="#333333"/>
<path d="M497.74 210.051H497.67L488.61 208.621C488.38 208.581 488.23 208.371 488.26 208.141C488.3 207.911 488.5 207.761 488.74 207.791L497.8 209.221C498.03 209.261 498.18 209.471 498.15 209.701C498.12 209.901 497.94 210.051 497.74 210.051Z" fill="#333333"/>
<path d="M522.07 239.631L521.82 239.551C521.64 239.411 521.6 239.151 521.74 238.961L524.6 235.141C524.74 234.961 525.01 234.921 525.19 235.061C525.37 235.201 525.41 235.461 525.27 235.651L522.41 239.471L522.07 239.631Z" fill="#333333"/>
<path d="M376.069 299.27L375.889 299.23C375.679 299.13 375.589 298.88 375.689 298.67L380.939 287.69C381.039 287.48 381.289 287.39 381.499 287.49C381.709 287.59 381.799 287.84 381.699 288.05L376.449 299.03C376.369 299.18 376.219 299.27 376.069 299.27Z" fill="#333333"/>
<path d="M329.78 309.291C329.62 309.291 329.47 309.201 329.4 309.051C329.3 308.841 329.39 308.591 329.6 308.491L339.62 303.721C339.83 303.621 340.08 303.711 340.18 303.921C340.28 304.131 340.19 304.381 339.98 304.481L329.96 309.251L329.78 309.291Z" fill="#333333"/>
<path d="M387.52 218.16H387.5C387.27 218.15 387.09 217.95 387.1 217.72L387.58 209.13C387.59 208.9 387.81 208.76 388.02 208.73C388.25 208.74 388.43 208.94 388.42 209.17L387.94 217.76C387.92 217.99 387.74 218.16 387.52 218.16Z" fill="#333333"/>
<path d="M368.91 247.74C368.7 247.74 368.52 247.58 368.49 247.37C368.46 247.14 368.63 246.93 368.86 246.91L377.45 245.96C377.69 245.93 377.89 246.1 377.91 246.33C377.94 246.56 377.77 246.77 377.54 246.79L368.95 247.74H368.91Z" fill="#333333"/>
<path d="M507.759 428.581L507.429 428.421L503.609 423.651C503.469 423.471 503.499 423.211 503.679 423.061C503.859 422.921 504.119 422.951 504.269 423.131L508.089 427.901C508.229 428.081 508.199 428.341 508.019 428.491L507.759 428.581Z" fill="#333333"/>
<path d="M486.29 357.96C486.12 357.96 485.96 357.86 485.9 357.69L483.04 350.06C482.96 349.84 483.07 349.6 483.29 349.52C483.51 349.44 483.75 349.55 483.83 349.77L486.69 357.4C486.77 357.62 486.66 357.86 486.44 357.94L486.29 357.96Z" fill="#333333"/>
<path d="M356.979 429.05C356.759 429.05 356.569 428.88 356.559 428.65C356.549 428.42 356.719 428.22 356.959 428.21L365.549 427.73C365.779 427.73 365.979 427.89 365.989 428.13C365.999 428.36 365.829 428.56 365.589 428.57L356.999 429.05H356.979Z" fill="#333333"/>
<path d="M458.609 288.771C458.389 288.771 458.199 288.601 458.189 288.371L457.709 278.831C457.699 278.601 457.879 278.401 458.109 278.391C458.379 278.391 458.539 278.561 458.549 278.791L459.029 288.331C459.039 288.561 458.859 288.761 458.629 288.771H458.609Z" fill="#333333"/>
<path d="M696.771 414.441H659.551C659.321 414.441 659.131 414.251 659.131 414.021V376.801C659.131 376.571 659.321 376.381 659.551 376.381H696.771C697.001 376.381 697.191 376.571 697.191 376.801V414.021C697.191 414.251 697.011 414.441 696.771 414.441ZM659.981 413.601H696.361V377.221H659.981V413.601Z" fill="#333333"/>
<path d="M691.809 382.631C690.949 382.091 689.799 382.351 689.259 383.221L677.119 402.601L668.229 390.281C667.939 389.881 667.509 389.621 667.029 389.541C666.529 389.461 666.049 389.581 665.649 389.871C665.249 390.161 664.979 390.591 664.899 391.071C664.819 391.561 664.939 392.051 665.229 392.451L675.729 407.001C676.079 407.481 676.639 407.771 677.229 407.771H677.289C677.909 407.751 678.469 407.421 678.799 406.901L692.399 385.191C692.929 384.321 692.669 383.171 691.809 382.631Z" fill="#BCE8E1"/>
<path d="M415.74 575.58L415.52 575.52C415.32 575.4 415.26 575.14 415.38 574.94L465.59 493.6C465.71 493.4 465.97 493.34 466.17 493.46C466.37 493.58 466.43 493.84 466.31 494.04L416.1 575.38L415.74 575.58Z" fill="#333333"/>
<path d="M606.511 218.56C605.861 218.56 605.231 218.25 604.851 217.67L594.611 202.22C594.001 201.3 594.251 200.07 595.171 199.46C596.091 198.85 597.321 199.1 597.931 200.02L608.171 215.47C608.781 216.39 608.531 217.62 607.611 218.23C607.271 218.45 606.891 218.56 606.511 218.56Z" fill="#83DBCC"/>
<path d="M606.51 218.97C605.7 218.97 604.95 218.57 604.5 217.89L594.27 202.44C593.54 201.33 593.84 199.84 594.95 199.1C595.49 198.74 596.13 198.62 596.76 198.75C597.39 198.88 597.929 199.24 598.289 199.78L608.53 215.23C609.26 216.34 608.959 217.83 607.849 218.57C607.449 218.83 606.99 218.97 606.51 218.97ZM596.27 199.55C595.96 199.55 595.669 199.64 595.409 199.81C594.689 200.29 594.489 201.27 594.969 201.99L605.2 217.44C605.66 218.13 606.68 218.34 607.38 217.88C608.1 217.4 608.3 216.42 607.82 215.7L597.59 200.25C597.36 199.9 597 199.66 596.59 199.58L596.27 199.55Z" fill="#333333"/>
<path d="M618.091 217.78C617.021 217.78 616.131 216.93 616.101 215.84L615.331 188.03C615.301 186.93 616.171 186.02 617.271 185.99H617.331C618.401 185.99 619.291 186.84 619.321 187.93L620.091 215.74C620.121 216.84 619.251 217.75 618.151 217.78H618.091Z" fill="#83DBCC"/>
<path d="M618.089 218.2C616.779 218.2 615.719 217.17 615.679 215.86L614.909 188.06C614.869 186.73 615.929 185.62 617.249 185.58C618.629 185.58 619.689 186.61 619.719 187.92L620.489 215.72C620.519 217.05 619.469 218.16 618.149 218.2H618.089ZM617.329 186.42C616.419 186.44 615.729 187.17 615.759 188.03L616.529 215.83C616.549 216.69 617.239 217.36 618.099 217.36H618.159C619.009 217.34 619.699 216.61 619.679 215.74L618.909 187.94C618.869 187.09 618.179 186.42 617.329 186.42Z" fill="#333333"/>
<path d="M628.71 217.781C628.34 217.781 627.96 217.681 627.63 217.461C626.71 216.861 626.45 215.631 627.05 214.711L637.09 199.261C637.69 198.341 638.92 198.071 639.84 198.681C640.76 199.281 641.02 200.511 640.42 201.431L630.38 216.881C630 217.461 629.36 217.781 628.71 217.781Z" fill="#83DBCC"/>
<path d="M628.71 218.2C628.24 218.2 627.79 218.07 627.4 217.81C626.29 217.09 625.97 215.59 626.69 214.48L636.73 199.03C637.46 197.92 638.95 197.6 640.06 198.32C641.17 199.04 641.49 200.54 640.77 201.65L630.73 217.1C630.29 217.79 629.53 218.2 628.71 218.2ZM638.76 198.78C638.24 198.78 637.74 199.03 637.44 199.49L627.4 214.94C626.93 215.66 627.14 216.64 627.86 217.11C628.56 217.56 629.57 217.35 630.03 216.65L640.07 201.2C640.54 200.48 640.33 199.5 639.61 199.03C639.35 198.86 639.05 198.78 638.76 198.78Z" fill="#333333"/>
<path d="M394.47 262.269L394.28 262.229C394.07 262.129 393.99 261.869 394.09 261.669C396.01 257.779 396.82 253.439 396.42 249.119C396.4 248.889 396.57 248.689 396.8 248.669C397.03 248.639 397.24 248.819 397.26 249.049C397.67 253.519 396.83 258.019 394.85 262.049C394.78 262.189 394.63 262.269 394.47 262.269Z" fill="#333333"/>
<path d="M361.28 211.96L361 211.86C360.83 211.71 360.81 211.44 360.96 211.27L365.41 206.18C365.56 206.01 365.83 205.99 366 206.14C366.17 206.29 366.19 206.56 366.04 206.73L361.59 211.82L361.28 211.96Z" fill="#333333"/>
<path d="M445.251 383.719C445.041 383.719 444.871 383.569 444.841 383.359L444.201 378.909C444.171 378.679 444.331 378.469 444.561 378.439C444.781 378.399 445.001 378.569 445.031 378.799L445.671 383.249C445.701 383.479 445.541 383.689 445.311 383.719H445.251Z" fill="#333333"/>
<path d="M648.189 423.859H622.109V446.759H648.189V423.859Z" fill="#FBFFDC"/>
<path d="M648.19 447.179H622.1C621.87 447.179 621.68 446.989 621.68 446.759V423.859C621.68 423.629 621.87 423.439 622.1 423.439H648.19C648.42 423.439 648.61 423.629 648.61 423.859V446.759C648.61 446.989 648.42 447.179 648.19 447.179ZM622.53 446.339H647.78V424.279H622.53V446.339Z" fill="#333333"/>
<path d="M599.21 473.33H563.58V547.76H599.21V473.33Z" fill="#E7EAC3"/>
<path d="M599.21 548.18H563.58C563.35 548.18 563.16 547.99 563.16 547.76V473.33C563.16 473.1 563.35 472.91 563.58 472.91H599.21C599.44 472.91 599.63 473.1 599.63 473.33V547.76C599.63 547.99 599.44 548.18 599.21 548.18ZM564 547.34H598.79V473.74H564V547.34Z" fill="#333333"/>
<path d="M653.921 444.68H599.211V547.76H653.921V444.68Z" fill="#FBFFDC"/>
<path d="M653.919 548.18H599.209C598.979 548.18 598.789 547.99 598.789 547.76V444.68C598.789 444.45 598.979 444.26 599.209 444.26H653.919C654.149 444.26 654.339 444.45 654.339 444.68V547.76C654.339 547.99 654.149 548.18 653.919 548.18ZM599.629 547.34H653.499V445.1H599.629V547.34Z" fill="#333333"/>
<path d="M686.58 490.42H654.24V547.92H686.58V490.42Z" fill="#E7EAC3"/>
<path d="M686.58 548.34H654.24C654.01 548.34 653.82 548.15 653.82 547.92V490.42C653.82 490.19 654.01 490 654.24 490H686.58C686.81 490 687 490.19 687 490.42V547.92C687 548.15 686.81 548.34 686.58 548.34ZM654.66 547.5H686.16V490.84H654.66V547.5Z" fill="#333333"/>
<path d="M579.079 481.689H574.289V486.479H579.079V481.689Z" fill="#BEEA8F"/>
<path d="M579.079 486.89H574.289C574.059 486.89 573.869 486.7 573.869 486.47V481.68C573.869 481.45 574.059 481.26 574.289 481.26H579.079C579.309 481.26 579.499 481.45 579.499 481.68V486.47C579.489 486.7 579.309 486.89 579.079 486.89ZM574.709 486.05H578.659V482.1H574.709V486.05Z" fill="#333333"/>
<path d="M589.96 481.689H585.17V486.479H589.96V481.689Z" fill="#BEEA8F"/>
<path d="M589.96 486.89H585.17C584.94 486.89 584.75 486.7 584.75 486.47V481.68C584.75 481.45 584.94 481.26 585.17 481.26H589.96C590.19 481.26 590.38 481.45 590.38 481.68V486.47C590.38 486.7 590.19 486.89 589.96 486.89ZM585.59 486.05H589.54V482.1H585.59V486.05Z" fill="#333333"/>
<path d="M579.079 493.66H574.289V498.45H579.079V493.66Z" fill="#BEEA8F"/>
<path d="M579.079 498.86H574.289C574.059 498.86 573.869 498.67 573.869 498.44V493.65C573.869 493.42 574.059 493.23 574.289 493.23H579.079C579.309 493.23 579.499 493.42 579.499 493.65V498.44C579.489 498.67 579.309 498.86 579.079 498.86ZM574.709 498.02H578.659V494.07H574.709V498.02Z" fill="#333333"/>
<path d="M589.96 493.66H585.17V498.45H589.96V493.66Z" fill="#BEEA8F"/>
<path d="M589.96 498.86H585.17C584.94 498.86 584.75 498.67 584.75 498.44V493.65C584.75 493.42 584.94 493.23 585.17 493.23H589.96C590.19 493.23 590.38 493.42 590.38 493.65V498.44C590.38 498.67 590.19 498.86 589.96 498.86ZM585.59 498.02H589.54V494.07H585.59V498.02Z" fill="#333333"/>
<path d="M579.079 505.631H574.289V510.421H579.079V505.631Z" fill="#BEEA8F"/>
<path d="M579.079 510.829H574.289C574.059 510.829 573.869 510.639 573.869 510.409V505.619C573.869 505.389 574.059 505.199 574.289 505.199H579.079C579.309 505.199 579.499 505.389 579.499 505.619V510.409C579.489 510.639 579.309 510.829 579.079 510.829ZM574.709 509.989H578.659V506.039H574.709V509.989Z" fill="#333333"/>
<path d="M589.96 505.631H585.17V510.421H589.96V505.631Z" fill="#BEEA8F"/>
<path d="M589.96 510.829H585.17C584.94 510.829 584.75 510.639 584.75 510.409V505.619C584.75 505.389 584.94 505.199 585.17 505.199H589.96C590.19 505.199 590.38 505.389 590.38 505.619V510.409C590.38 510.639 590.19 510.829 589.96 510.829ZM585.59 509.989H589.54V506.039H585.59V509.989Z" fill="#333333"/>
<path d="M579.079 517.59H574.289V522.38H579.079V517.59Z" fill="#BEEA8F"/>
<path d="M579.079 522.8H574.289C574.059 522.8 573.869 522.61 573.869 522.38V517.59C573.869 517.36 574.059 517.17 574.289 517.17H579.079C579.309 517.17 579.499 517.36 579.499 517.59V522.38C579.489 522.61 579.309 522.8 579.079 522.8ZM574.709 521.96H578.659V518.01H574.709V521.96Z" fill="#333333"/>
<path d="M589.96 517.59H585.17V522.38H589.96V517.59Z" fill="#BEEA8F"/>
<path d="M589.96 522.8H585.17C584.94 522.8 584.75 522.61 584.75 522.38V517.59C584.75 517.36 584.94 517.17 585.17 517.17H589.96C590.19 517.17 590.38 517.36 590.38 517.59V522.38C590.38 522.61 590.19 522.8 589.96 522.8ZM585.59 521.96H589.54V518.01H585.59V521.96Z" fill="#333333"/>
<path d="M579.079 529.561H574.289V534.351H579.079V529.561Z" fill="#BEEA8F"/>
<path d="M579.079 534.771H574.289C574.059 534.771 573.869 534.581 573.869 534.351V529.561C573.869 529.331 574.059 529.141 574.289 529.141H579.079C579.309 529.141 579.499 529.331 579.499 529.561V534.351C579.489 534.581 579.309 534.771 579.079 534.771ZM574.709 533.931H578.659V529.981H574.709V533.931Z" fill="#333333"/>
<path d="M589.96 529.561H585.17V534.351H589.96V529.561Z" fill="#BEEA8F"/>
<path d="M589.96 534.771H585.17C584.94 534.771 584.75 534.581 584.75 534.351V529.561C584.75 529.331 584.94 529.141 585.17 529.141H589.96C590.19 529.141 590.38 529.331 590.38 529.561V534.351C590.38 534.581 590.19 534.771 589.96 534.771ZM585.59 533.931H589.54V529.981H585.59V533.931Z" fill="#333333"/>
<path d="M616.299 452.891H613.439V478.461H616.299V452.891Z" fill="#BEEA8F"/>
<path d="M616.309 478.881H613.449C613.219 478.881 613.029 478.691 613.029 478.461V452.891C613.029 452.661 613.219 452.471 613.449 452.471H616.309C616.539 452.471 616.729 452.661 616.729 452.891V478.461C616.719 478.691 616.539 478.881 616.309 478.881ZM613.859 478.041H615.879V453.311H613.859V478.041Z" fill="#333333"/>
<path d="M624.889 452.891H622.029V478.461H624.889V452.891Z" fill="#BEEA8F"/>
<path d="M624.899 478.881H622.039C621.809 478.881 621.619 478.691 621.619 478.461V452.891C621.619 452.661 621.809 452.471 622.039 452.471H624.899C625.129 452.471 625.319 452.661 625.319 452.891V478.461C625.309 478.691 625.129 478.881 624.899 478.881ZM622.449 478.041H624.479V453.311H622.449V478.041Z" fill="#333333"/>
<path d="M633.479 452.891H630.619V478.461H633.479V452.891Z" fill="#BEEA8F"/>
<path d="M633.479 478.881H630.619C630.389 478.881 630.199 478.691 630.199 478.461V452.891C630.199 452.661 630.389 452.471 630.619 452.471H633.479C633.709 452.471 633.899 452.661 633.899 452.891V478.461C633.899 478.691 633.709 478.881 633.479 478.881ZM631.039 478.041H633.069V453.311H631.039V478.041Z" fill="#333333"/>
<path d="M642.071 452.891H639.211V478.461H642.071V452.891Z" fill="#BEEA8F"/>
<path d="M642.069 478.881H639.209C638.979 478.881 638.789 478.691 638.789 478.461V452.891C638.789 452.661 638.979 452.471 639.209 452.471H642.069C642.299 452.471 642.489 452.661 642.489 452.891V478.461C642.489 478.691 642.299 478.881 642.069 478.881ZM639.629 478.041H641.649V453.311H639.629V478.041Z" fill="#333333"/>
<path d="M616.299 488.91H613.439V514.48H616.299V488.91Z" fill="#BEEA8F"/>
<path d="M616.309 514.9H613.449C613.219 514.9 613.029 514.71 613.029 514.48V488.91C613.029 488.68 613.219 488.49 613.449 488.49H616.309C616.539 488.49 616.729 488.68 616.729 488.91V514.48C616.719 514.71 616.539 514.9 616.309 514.9ZM613.859 514.06H615.879V489.32H613.859V514.06Z" fill="#333333"/>
<path d="M624.889 488.91H622.029V514.48H624.889V488.91Z" fill="#BEEA8F"/>
<path d="M624.899 514.9H622.039C621.809 514.9 621.619 514.71 621.619 514.48V488.91C621.619 488.68 621.809 488.49 622.039 488.49H624.899C625.129 488.49 625.319 488.68 625.319 488.91V514.48C625.309 514.71 625.129 514.9 624.899 514.9ZM622.449 514.06H624.479V489.32H622.449V514.06Z" fill="#333333"/>
<path d="M633.479 488.91H630.619V514.48H633.479V488.91Z" fill="#BEEA8F"/>
<path d="M633.479 514.9H630.619C630.389 514.9 630.199 514.71 630.199 514.48V488.91C630.199 488.68 630.389 488.49 630.619 488.49H633.479C633.709 488.49 633.899 488.68 633.899 488.91V514.48C633.899 514.71 633.709 514.9 633.479 514.9ZM631.039 514.06H633.069V489.32H631.039V514.06Z" fill="#333333"/>
<path d="M642.071 488.91H639.211V514.48H642.071V488.91Z" fill="#BEEA8F"/>
<path d="M642.069 514.9H639.209C638.979 514.9 638.789 514.71 638.789 514.48V488.91C638.789 488.68 638.979 488.49 639.209 488.49H642.069C642.299 488.49 642.489 488.68 642.489 488.91V514.48C642.489 514.71 642.299 514.9 642.069 514.9ZM639.629 514.06H641.649V489.32H639.629V514.06Z" fill="#333333"/>
<path d="M680.719 498.061H660.199V500.681H680.719V498.061Z" fill="#BEEA8F"/>
<path d="M680.719 501.101H660.199C659.969 501.101 659.779 500.911 659.779 500.681V498.061C659.779 497.831 659.969 497.641 660.199 497.641H680.719C680.949 497.641 681.139 497.831 681.139 498.061V500.681C681.139 500.911 680.949 501.101 680.719 501.101ZM660.619 500.261H680.299V498.471H660.619V500.261Z" fill="#333333"/>
<path d="M680.719 506.41H660.199V509.03H680.719V506.41Z" fill="#BEEA8F"/>
<path d="M680.719 509.45H660.199C659.969 509.45 659.779 509.26 659.779 509.03V506.41C659.779 506.18 659.969 505.99 660.199 505.99H680.719C680.949 505.99 681.139 506.18 681.139 506.41V509.03C681.139 509.26 680.949 509.45 680.719 509.45ZM660.619 508.61H680.299V506.82H660.619V508.61Z" fill="#333333"/>
<path d="M680.719 514.76H660.199V517.38H680.719V514.76Z" fill="#BEEA8F"/>
<path d="M680.719 517.8H660.199C659.969 517.8 659.779 517.61 659.779 517.38V514.76C659.779 514.53 659.969 514.34 660.199 514.34H680.719C680.949 514.34 681.139 514.53 681.139 514.76V517.38C681.139 517.61 680.949 517.8 680.719 517.8ZM660.619 516.96H680.299V515.17H660.619V516.96Z" fill="#333333"/>
<path d="M680.719 523.109H660.199V525.729H680.719V523.109Z" fill="#BEEA8F"/>
<path d="M680.719 526.149H660.199C659.969 526.149 659.779 525.959 659.779 525.729V523.109C659.779 522.879 659.969 522.689 660.199 522.689H680.719C680.949 522.689 681.139 522.879 681.139 523.109V525.729C681.139 525.959 680.949 526.149 680.719 526.149ZM660.619 525.309H680.299V523.519H660.619V525.309Z" fill="#333333"/>
<path d="M670.231 482.789H658.061V490.419H670.231V482.789Z" fill="#E7EAC3"/>
<path d="M670.221 490.839H658.051C657.821 490.839 657.631 490.649 657.631 490.419V482.789C657.631 482.559 657.821 482.369 658.051 482.369H670.221C670.451 482.369 670.641 482.559 670.641 482.789V490.419C670.641 490.649 670.451 490.839 670.221 490.839ZM658.481 490.009H669.811V483.209H658.481V490.009Z" fill="#333333"/>
<path d="M590.42 462.76H589.23V473.49H590.42V462.76Z" fill="#BEEA8F"/>
<path d="M590.421 473.91H589.231C589.001 473.91 588.811 473.72 588.811 473.49V462.76C588.811 462.53 589.001 462.34 589.231 462.34H590.421C590.651 462.34 590.841 462.53 590.841 462.76V473.49C590.841 473.72 590.651 473.91 590.421 473.91ZM589.651 473.07H590.001V463.18H589.651V473.07Z" fill="#333333"/>
<path d="M593.17 463.699C593.17 465.539 591.67 467.039 589.83 467.039C587.99 467.039 586.49 465.539 586.49 463.699C586.49 461.859 587.99 460.359 589.83 460.359C591.67 460.359 593.17 461.859 593.17 463.699Z" fill="#BEEA8F"/>
<path d="M589.83 467.459C587.76 467.459 586.07 465.769 586.07 463.699C586.07 461.629 587.76 459.939 589.83 459.939C591.9 459.939 593.59 461.629 593.59 463.699C593.58 465.779 591.9 467.459 589.83 467.459ZM589.83 460.779C588.22 460.779 586.91 462.089 586.91 463.699C586.91 465.309 588.22 466.619 589.83 466.619C591.44 466.619 592.75 465.309 592.75 463.699C592.75 462.089 591.44 460.779 589.83 460.779Z" fill="#333333"/>
<path d="M716.269 547.859H521.119C520.889 547.859 520.699 547.67 520.699 547.44C520.699 547.21 520.889 547.02 521.119 547.02H716.269C716.499 547.02 716.689 547.21 716.689 547.44C716.689 547.67 716.499 547.859 716.269 547.859Z" fill="#333333"/>
<path d="M328.77 71.8791C328.54 71.8791 328.35 71.6891 328.35 71.4591V60.2891C328.35 60.0591 328.54 59.8691 328.77 59.8691C329 59.8691 329.19 60.0591 329.19 60.2891V71.4591C329.19 71.6991 329 71.8791 328.77 71.8791Z" fill="#333333"/>
<path d="M328.77 100.92C328.54 100.92 328.35 100.73 328.35 100.5V89.3399C328.35 89.1099 328.54 88.9199 328.77 88.9199C329 88.9199 329.19 89.1099 329.19 89.3399V100.51C329.19 100.74 329 100.92 328.77 100.92Z" fill="#333333"/>
<path d="M348.879 80.8205H337.709C337.479 80.8205 337.289 80.6305 337.289 80.4005C337.289 80.1705 337.479 79.9805 337.709 79.9805H348.879C349.109 79.9805 349.299 80.1705 349.299 80.4005C349.299 80.6305 349.109 80.8205 348.879 80.8205Z" fill="#333333"/>
<path d="M319.84 80.8205H308.67C308.44 80.8205 308.25 80.6305 308.25 80.4005C308.25 80.1705 308.44 79.9805 308.67 79.9805H319.84C320.07 79.9805 320.26 80.1705 320.26 80.4005C320.26 80.6305 320.07 80.8205 319.84 80.8205Z" fill="#333333"/>
<path d="M541.74 155.28C541.51 155.28 541.32 155.09 541.32 154.86V143.69C541.32 143.46 541.51 143.27 541.74 143.27C541.97 143.27 542.16 143.46 542.16 143.69V154.86C542.15 155.09 541.97 155.28 541.74 155.28Z" fill="#333333"/>
<path d="M541.74 184.321C541.51 184.321 541.32 184.131 541.32 183.901V172.731C541.32 172.501 541.51 172.311 541.74 172.311C541.97 172.311 542.16 172.501 542.16 172.731V183.901C542.15 184.131 541.97 184.321 541.74 184.321Z" fill="#333333"/>
<path d="M561.84 164.221H550.67C550.44 164.221 550.25 164.031 550.25 163.801C550.25 163.571 550.44 163.381 550.67 163.381H561.84C562.07 163.381 562.26 163.571 562.26 163.801C562.26 164.031 562.07 164.221 561.84 164.221Z" fill="#333333"/>
<path d="M532.801 164.221H521.631C521.401 164.221 521.211 164.031 521.211 163.801C521.211 163.571 521.401 163.381 521.631 163.381H532.801C533.031 163.381 533.221 163.571 533.221 163.801C533.221 164.031 533.031 164.221 532.801 164.221Z" fill="#333333"/>
<path d="M553.651 417.391C553.421 417.391 553.23 417.201 553.23 416.971V405.801C553.23 405.571 553.421 405.381 553.651 405.381C553.881 405.381 554.07 405.571 554.07 405.801V416.971C554.07 417.201 553.881 417.391 553.651 417.391Z" fill="#333333"/>
<path d="M553.651 446.43C553.421 446.43 553.23 446.24 553.23 446.01V434.84C553.23 434.61 553.421 434.42 553.651 434.42C553.881 434.42 554.07 434.61 554.07 434.84V446.01C554.07 446.24 553.881 446.43 553.651 446.43Z" fill="#333333"/>
<path d="M573.75 426.33H562.58C562.35 426.33 562.16 426.14 562.16 425.91C562.16 425.68 562.35 425.49 562.58 425.49H573.75C573.98 425.49 574.17 425.68 574.17 425.91C574.17 426.14 573.98 426.33 573.75 426.33Z" fill="#333333"/>
<path d="M544.709 426.33H533.539C533.309 426.33 533.119 426.14 533.119 425.91C533.119 425.68 533.309 425.49 533.539 425.49H544.709C544.939 425.49 545.129 425.68 545.129 425.91C545.129 426.14 544.939 426.33 544.709 426.33Z" fill="#333333"/>
<path d="M706.301 274.42C706.071 274.42 705.881 274.23 705.881 274V262.83C705.881 262.6 706.071 262.41 706.301 262.41C706.531 262.41 706.721 262.6 706.721 262.83V274C706.721 274.23 706.531 274.42 706.301 274.42Z" fill="#333333"/>
<path d="M706.301 303.459C706.071 303.459 705.881 303.269 705.881 303.039V291.869C705.881 291.639 706.071 291.449 706.301 291.449C706.531 291.449 706.721 291.639 706.721 291.869V303.039C706.721 303.269 706.531 303.459 706.301 303.459Z" fill="#333333"/>
<path d="M726.401 283.36H715.231C715.001 283.36 714.811 283.17 714.811 282.94C714.811 282.71 715.001 282.52 715.231 282.52H726.401C726.631 282.52 726.821 282.71 726.821 282.94C726.821 283.17 726.631 283.36 726.401 283.36Z" fill="#333333"/>
<path d="M697.359 283.36H686.19C685.96 283.36 685.77 283.17 685.77 282.94C685.77 282.71 685.96 282.52 686.19 282.52H697.359C697.589 282.52 697.78 282.71 697.78 282.94C697.78 283.17 697.589 283.36 697.359 283.36Z" fill="#333333"/>
<path d="M282.609 314.629C282.379 314.629 282.189 314.439 282.189 314.209V303.039C282.189 302.809 282.379 302.619 282.609 302.619C282.839 302.619 283.029 302.809 283.029 303.039V314.209C283.019 314.439 282.839 314.629 282.609 314.629Z" fill="#333333"/>
<path d="M282.609 343.67C282.379 343.67 282.189 343.48 282.189 343.25V332.08C282.189 331.85 282.379 331.66 282.609 331.66C282.839 331.66 283.029 331.85 283.029 332.08V343.25C283.019 343.48 282.839 343.67 282.609 343.67Z" fill="#333333"/>
<path d="M302.709 323.57H291.539C291.309 323.57 291.119 323.38 291.119 323.15C291.119 322.92 291.309 322.73 291.539 322.73H302.709C302.939 322.73 303.129 322.92 303.129 323.15C303.129 323.38 302.939 323.57 302.709 323.57Z" fill="#333333"/>
<path d="M273.67 323.57H262.5C262.27 323.57 262.08 323.38 262.08 323.15C262.08 322.92 262.27 322.73 262.5 322.73H273.67C273.9 322.73 274.09 322.92 274.09 323.15C274.09 323.38 273.9 323.57 273.67 323.57Z" fill="#333333"/>
<path d="M761.671 419.59C790.456 419.59 813.791 396.255 813.791 367.47C813.791 338.685 790.456 315.35 761.671 315.35C732.886 315.35 709.551 338.685 709.551 367.47C709.551 396.255 732.886 419.59 761.671 419.59Z" fill="#D4F4EE"/>
<path d="M766.929 343.55C765.469 343.55 764.279 342.36 764.279 340.9V339.22C764.279 337.76 765.469 336.57 766.929 336.57C768.389 336.57 769.579 337.76 769.579 339.22V340.9C769.579 342.36 768.389 343.55 766.929 343.55Z" fill="#FFCC00"/>
<path d="M766.929 343.97C765.229 343.97 763.859 342.59 763.859 340.9V339.22C763.859 337.52 765.239 336.15 766.929 336.15C768.619 336.15 769.999 337.53 769.999 339.22V340.9C769.999 342.59 768.619 343.97 766.929 343.97ZM766.929 336.99C765.699 336.99 764.699 337.99 764.699 339.23V340.91C764.699 342.14 765.699 343.14 766.929 343.14C768.159 343.14 769.159 342.14 769.159 340.91V339.23C769.159 337.99 768.159 336.99 766.929 336.99Z" fill="#333333"/>
<path d="M776.531 396.679C776.531 401.919 772.281 406.169 767.041 406.169C761.801 406.169 757.551 401.919 757.551 396.679C757.551 391.439 761.801 387.189 767.041 387.189C772.281 387.189 776.531 391.439 776.531 396.679Z" fill="#FFCC00"/>
<path d="M767.041 406.59C761.571 406.59 757.131 402.14 757.131 396.68C757.131 391.22 761.581 386.77 767.041 386.77C772.511 386.77 776.951 391.22 776.951 396.68C776.951 402.14 772.511 406.59 767.041 406.59ZM767.041 387.61C762.041 387.61 757.961 391.68 757.961 396.69C757.961 401.69 762.031 405.77 767.041 405.77C772.041 405.77 776.121 401.7 776.121 396.69C776.121 391.68 772.041 387.61 767.041 387.61Z" fill="#333333"/>
<path d="M785.06 373.161V361.861C785.25 360.861 785.36 359.831 785.36 358.771C785.36 349.131 777.13 341.311 766.98 341.311C756.83 341.311 748.6 349.131 748.6 358.771C748.6 360.291 748.83 361.761 749.21 363.171V373.161C749.21 373.161 743.08 375.001 743.08 384.191H765.44H768.81H791.17C791.18 375.001 785.06 373.161 785.06 373.161Z" fill="#FFCC00"/>
<path d="M791.18 384.61H743.1C742.87 384.61 742.68 384.42 742.68 384.19C742.68 375.98 747.54 373.41 748.8 372.88V363.23C748.39 361.73 748.19 360.23 748.19 358.77C748.19 348.91 756.62 340.9 766.98 340.9C777.34 340.9 785.77 348.92 785.77 358.77C785.77 359.78 785.67 360.82 785.46 361.94L785.47 372.88C786.74 373.41 791.59 375.99 791.59 384.19C791.6 384.42 791.41 384.61 791.18 384.61ZM743.52 383.77H790.76C790.59 375.39 785.17 373.64 784.94 373.57C784.76 373.52 784.64 373.35 784.64 373.17V361.87C784.85 360.72 784.94 359.74 784.94 358.78C784.94 349.39 776.89 341.74 766.98 341.74C757.08 341.74 749.02 349.38 749.02 358.78C749.02 360.18 749.22 361.63 749.62 363.07L749.63 363.18V373.17C749.63 373.35 749.51 373.52 749.33 373.57C749.11 373.64 743.7 375.39 743.52 383.77Z" fill="#333333"/>
<path d="M751.209 361.829C744.049 361.829 738.189 355.969 738.189 348.809C738.189 341.649 744.049 335.789 751.209 335.789C758.369 335.789 764.219 341.649 764.219 348.809C764.229 355.969 758.369 361.829 751.209 361.829Z" fill="#83DBCC"/>
<path d="M751.209 362.251C743.799 362.251 737.779 356.221 737.779 348.821C737.779 341.421 743.809 335.391 751.209 335.391C758.619 335.391 764.639 341.421 764.639 348.821C764.639 356.221 758.619 362.251 751.209 362.251ZM751.209 336.221C744.259 336.221 738.619 341.871 738.619 348.821C738.619 355.771 744.269 361.421 751.209 361.421C758.159 361.421 763.809 355.771 763.809 348.821C763.809 341.871 758.159 336.221 751.209 336.221Z" fill="#333333"/>
<path d="M745.75 342.609H756.36L753.57 358.239H750.6L752.83 345.469H748.69V347.829H745.75V342.609Z" fill="#333333"/>
<path d="M730.241 352.501L730.041 352.451L721.841 348.081C721.641 347.971 721.561 347.721 721.671 347.511C721.781 347.301 722.041 347.231 722.241 347.341L730.441 351.711C730.641 351.821 730.721 352.071 730.611 352.281L730.241 352.501Z" fill="#333333"/>
<path d="M730.24 365.62H730.22L716 365.07C715.77 365.06 715.59 364.87 715.6 364.63C715.61 364.4 715.79 364.23 716.02 364.23H716.04L730.26 364.78C730.49 364.79 730.67 364.98 730.66 365.22C730.65 365.44 730.46 365.62 730.24 365.62Z" fill="#333333"/>
<path d="M722.029 380.929L721.679 380.729C721.559 380.529 721.619 380.279 721.809 380.149L730.559 374.679C730.759 374.559 731.019 374.619 731.139 374.809C731.259 375.009 731.199 375.259 731.009 375.389L722.259 380.859L722.029 380.929Z" fill="#333333"/>
<path d="M766.789 387.53C766.559 387.53 766.369 387.34 766.369 387.11V384.6C766.369 384.37 766.559 384.18 766.789 384.18C767.019 384.18 767.209 384.37 767.209 384.6V387.11C767.209 387.34 767.019 387.53 766.789 387.53Z" fill="#333333"/>
<path d="M788.849 381.391H745.289C745.059 381.391 744.869 381.201 744.869 380.971C744.869 380.741 745.059 380.551 745.289 380.551H788.849C789.079 380.551 789.269 380.741 789.269 380.971C789.269 381.201 789.079 381.391 788.849 381.391Z" fill="#333333"/>
<path d="M780.19 357.929C779.96 357.929 779.78 357.749 779.77 357.519C779.5 347.939 770.18 346.769 770.09 346.759C769.86 346.729 769.7 346.529 769.72 346.299C769.75 346.069 769.93 345.909 770.18 345.929C770.28 345.939 780.32 347.209 780.6 357.499C780.61 357.729 780.42 357.919 780.19 357.929Z" fill="#333333"/>
<path d="M780.471 366.031C780.241 366.031 780.051 365.841 780.051 365.611V361.981C780.051 361.751 780.241 361.561 780.471 361.561C780.701 361.561 780.891 361.751 780.891 361.981V365.611C780.891 365.841 780.701 366.031 780.471 366.031Z" fill="#333333"/>
<path d="M826.509 235.96C861.8 235.96 890.409 207.351 890.409 172.06C890.409 136.769 861.8 108.16 826.509 108.16C791.218 108.16 762.609 136.769 762.609 172.06C762.609 207.351 791.218 235.96 826.509 235.96Z" fill="#D4F4EE"/>
<path d="M864.209 166.531C864.209 164.941 862.909 163.641 861.319 163.641H801.249C799.659 163.641 798.359 164.941 798.359 166.531V173.001H864.209V166.531Z" fill="#FFCC00"/>
<path d="M864.209 173.421H798.359C798.129 173.421 797.939 173.231 797.939 173.001V166.531C797.939 164.711 799.419 163.221 801.249 163.221H861.319C863.139 163.221 864.629 164.701 864.629 166.531V173.001C864.619 173.231 864.439 173.421 864.209 173.421ZM798.779 172.581H863.789V166.531C863.789 165.171 862.679 164.061 861.319 164.061H801.249C799.889 164.061 798.779 165.171 798.779 166.531V172.581Z" fill="#333333"/>
<path d="M798.359 204.65C798.359 206.24 799.659 207.54 801.249 207.54H861.319C862.909 207.54 864.209 206.24 864.209 204.65V179.93H798.359V204.65Z" fill="#FFCC00"/>
<path d="M861.319 207.96H801.249C799.429 207.96 797.939 206.48 797.939 204.65V179.93C797.939 179.7 798.129 179.51 798.359 179.51H864.209C864.439 179.51 864.629 179.7 864.629 179.93V204.65C864.619 206.48 863.139 207.96 861.319 207.96ZM798.779 180.35V204.65C798.779 206.01 799.889 207.12 801.249 207.12H861.319C862.679 207.12 863.789 206.01 863.789 204.65V180.35H798.779Z" fill="#333333"/>
<path d="M864.209 173H798.359V179.93H864.209V173Z" fill="#333333"/>
<path d="M864.209 180.35H798.359C798.129 180.35 797.939 180.16 797.939 179.93V173C797.939 172.77 798.129 172.58 798.359 172.58H864.209C864.439 172.58 864.629 172.77 864.629 173V179.93C864.619 180.16 864.439 180.35 864.209 180.35ZM798.779 179.51H863.789V173.41H798.779V179.51Z" fill="#333333"/>
<path d="M842.2 197.449H803.85C803.62 197.449 803.43 197.259 803.43 197.029C803.43 196.799 803.62 196.609 803.85 196.609H842.2C842.43 196.609 842.62 196.799 842.62 197.029C842.62 197.259 842.43 197.449 842.2 197.449Z" fill="#333333"/>
<path d="M858.951 192.93H848.631V200.46H858.951V192.93Z" fill="#FBFFDC"/>
<path d="M858.951 200.89H848.631C848.401 200.89 848.211 200.7 848.211 200.47V192.94C848.211 192.71 848.401 192.52 848.631 192.52H858.951C859.181 192.52 859.371 192.71 859.371 192.94V200.47C859.371 200.7 859.181 200.89 858.951 200.89ZM849.041 200.05H858.531V193.35H849.041V200.05Z" fill="#333333"/>
<path d="M822.12 157.22L821.8 157.07L816.22 150.37C816.07 150.19 816.1 149.93 816.27 149.78C816.45 149.63 816.71 149.66 816.86 149.83L822.44 156.53C822.59 156.71 822.56 156.97 822.39 157.12L822.12 157.22Z" fill="#333333"/>
<path d="M831.051 157.22C830.821 157.22 830.631 157.03 830.631 156.8V142.02C830.631 141.79 830.821 141.6 831.051 141.6C831.281 141.6 831.471 141.79 831.471 142.02V156.8C831.471 157.04 831.281 157.22 831.051 157.22Z" fill="#333333"/>
<path d="M839.98 157.22L839.75 157.15C839.56 157.02 839.5 156.76 839.63 156.57L844.93 148.48C845.06 148.29 845.32 148.23 845.51 148.36C845.7 148.49 845.76 148.75 845.63 148.94L840.33 157.03L839.98 157.22Z" fill="#333333"/>
<path d="M800.529 178.869C793.379 178.869 787.529 173.019 787.529 165.869C787.529 158.719 793.379 152.869 800.529 152.869C807.679 152.869 813.529 158.719 813.529 165.869C813.529 173.019 807.679 178.869 800.529 178.869Z" fill="#83DBCC"/>
<path d="M800.529 179.289C793.129 179.289 787.109 173.269 787.109 165.869C787.109 158.469 793.129 152.449 800.529 152.449C807.929 152.449 813.949 158.469 813.949 165.869C813.949 173.269 807.929 179.289 800.529 179.289ZM800.529 153.279C793.589 153.279 787.949 158.929 787.949 165.859C787.949 172.789 793.599 178.439 800.529 178.439C807.469 178.439 813.109 172.789 813.109 165.859C813.109 158.929 807.469 153.279 800.529 153.279Z" fill="#333333"/>
<path d="M799.63 171.599L793.76 164.259L795.07 163.209L799.61 168.889L806.03 160.619L807.35 161.639L799.63 171.599Z" fill="#333333"/>
</g>
</g>
<defs>
<clipPath id="clip0_678_2554">
<rect width="980" height="595.28" fill="white" transform="translate(0 0.279297)"/>
</clipPath>
<clipPath id="clip1_678_2554">
<rect width="980" height="595.28" fill="white"/>
</clipPath>
</defs>
</svg>
