<svg width="286" height="87" viewBox="0 0 286 87" fill="none" xmlns="http://www.w3.org/2000/svg">
<g filter="url(#filter0_d_1002_7231)">
<path d="M31.479 0.084075C50.6599 0.084075 61.9798 11.4039 61.9798 26.9164C61.9798 35.8255 57.6824 43.4769 42.6941 58.9894L30.4309 71.6718H63.6568V87.8131H2.55045V76.9125L30.5357 48.0887C40.8074 37.5026 43.2181 31.9474 43.2181 27.126C43.2181 20.8372 39.7593 16.6446 31.479 16.6446C23.7228 16.6446 19.5303 22.9335 19.5303 29.4319H0.768615C0.768615 12.6617 13.4511 0.084075 31.479 0.084075ZM104.533 0.084075C123.19 0.084075 137.235 15.0724 137.235 45.0491C137.235 74.921 123.19 89.9094 104.533 89.9094C85.8765 89.9094 71.8315 74.921 71.8315 45.0491C71.8315 15.0724 85.8765 0.084075 104.533 0.084075ZM104.533 16.7495C96.1482 16.7495 89.8594 25.5538 89.8594 45.0491C89.8594 64.4397 96.1482 73.244 104.533 73.244C112.918 73.244 119.207 64.4397 119.207 45.0491C119.207 25.5538 112.918 16.7495 104.533 16.7495ZM175.188 0.084075C194.369 0.084075 205.689 11.4039 205.689 26.9164C205.689 35.8255 201.392 43.4769 186.403 58.9894L174.14 71.6718H207.366V87.8131H146.26V76.9125L174.245 48.0887C184.517 37.5026 186.927 31.9474 186.927 27.126C186.927 20.8372 183.469 16.6446 175.188 16.6446C167.432 16.6446 163.24 22.9335 163.24 29.4319H144.478C144.478 12.6617 157.16 0.084075 175.188 0.084075ZM250.997 87.8131V70.6237H212.636V54.9016L245.652 2.38998H269.025V54.9016H280.24V70.6237H269.025V87.8131H250.997ZM230.873 54.9016H250.997V21.9901L230.873 54.9016Z" fill="#F55C35"/>
</g>
<defs>
<filter id="filter0_d_1002_7231" x="0.768616" y="0.0840454" width="284.293" height="94.6467" filterUnits="userSpaceOnUse" color-interpolation-filters="sRGB">
<feFlood flood-opacity="0" result="BackgroundImageFix"/>
<feColorMatrix in="SourceAlpha" type="matrix" values="0 0 0 0 0 0 0 0 0 0 0 0 0 0 0 0 0 0 127 0" result="hardAlpha"/>
<feOffset dx="4.82143" dy="4.82143"/>
<feComposite in2="hardAlpha" operator="out"/>
<feColorMatrix type="matrix" values="0 0 0 0 0.364706 0 0 0 0 0.192157 0 0 0 0 0 0 0 0 0.7 0"/>
<feBlend mode="normal" in2="BackgroundImageFix" result="effect1_dropShadow_1002_7231"/>
<feBlend mode="normal" in="SourceGraphic" in2="effect1_dropShadow_1002_7231" result="shape"/>
</filter>
</defs>
</svg>
