<svg width="85" height="86" viewBox="0 0 85 86" fill="none" xmlns="http://www.w3.org/2000/svg">
<path d="M76.2758 68.6094C62.0786 87.1239 35.5553 90.6264 17.0329 76.4256C-1.48944 62.2343 -4.99341 35.7224 9.20389 17.2079C23.4012 -1.30661 49.934 -4.80909 68.4468 9.38217C86.9692 23.5734 90.4731 50.0949 76.2758 68.6094Z" fill="url(#paint0_radial_1002_6700)"/>
<path d="M75.7412 68.7144C61.7635 86.9426 35.6412 90.3878 17.4053 76.416C-0.83064 62.4443 -4.28687 36.3331 9.70038 18.105C23.6876 -0.123207 49.8004 -3.57797 68.0363 10.3938C86.2722 24.3751 89.7284 50.4767 75.7412 68.7144Z" fill="url(#paint1_radial_1002_6700)"/>
<path d="M75.2065 68.8098C61.4389 86.7612 35.7272 90.1492 17.7681 76.3874C-0.181403 62.6256 -3.58035 36.9248 10.1778 18.983C23.9454 1.03154 49.6571 -2.35642 67.6162 11.3958C85.5752 25.1576 88.9742 50.8584 75.2065 68.8098Z" fill="url(#paint2_radial_1002_6700)"/>
<path d="M74.6719 68.9148C61.1238 86.5799 35.8131 89.9202 18.1405 76.3779C0.467824 62.8356 -2.87383 37.5452 10.6742 19.8801C24.2223 2.21497 49.533 -1.12528 67.2056 12.417C84.8782 25.9593 88.2199 51.2593 74.6719 68.9244V68.9148Z" fill="url(#paint3_radial_1002_6700)"/>
<path d="M74.1276 69.0198C60.7992 86.3986 35.899 89.6816 18.5033 76.3588C1.11708 63.036 -2.17685 38.1464 11.1516 20.7676C24.4801 3.38884 49.3898 0.0963211 66.776 13.4191C84.1622 26.7419 87.4561 51.641 74.1276 69.0198Z" fill="url(#paint4_radial_1002_6700)"/>
<path d="M73.593 69.1248C60.4746 86.2268 35.985 89.4525 18.8756 76.3492C1.77587 63.2459 -1.47033 38.7572 11.6481 21.6647C24.7665 4.56267 49.2657 1.32742 66.3655 14.4403C83.4748 27.5531 86.7114 52.0418 73.593 69.1343V69.1248Z" fill="url(#paint5_radial_1002_6700)"/>
<path d="M73.0583 69.2202C60.1595 86.036 36.0709 89.214 19.248 76.3206C2.42509 63.4273 -0.754259 39.3489 12.135 22.5332C25.0338 5.71746 49.1225 2.53947 65.9453 15.4233C82.7682 28.3166 85.9476 52.395 73.0583 69.2107V69.2202Z" fill="url(#paint6_radial_1002_6700)"/>
<path d="M72.5237 69.3252C59.8444 85.8546 36.1568 88.9849 19.6203 76.3111C3.08388 63.6372 -0.04774 39.9597 12.6315 23.4303C25.3107 6.90084 48.9983 3.77055 65.5348 16.4444C82.0713 29.1182 85.2029 52.7958 72.5237 69.3252Z" fill="url(#paint7_radial_1002_6700)"/>
<path d="M71.9794 69.4302C59.5198 85.6828 36.2332 88.7463 19.9832 76.292C3.73313 63.8377 0.649244 40.5705 13.1089 24.3178C25.5781 8.06517 48.8551 4.99215 65.1052 17.4465C81.3647 29.9008 84.4391 53.1775 71.9794 69.4207V69.4302Z" fill="url(#paint8_radial_1002_6700)"/>
<path d="M71.4448 69.5351C59.1952 85.5015 36.3287 88.5173 20.3555 76.2824C4.38236 64.0476 1.36531 41.1812 13.6053 25.2149C25.8549 9.24854 48.731 6.22324 64.6946 18.4676C80.6678 30.712 83.6944 53.5783 71.4448 69.5447V69.5351Z" fill="url(#paint9_radial_1002_6700)"/>
<path d="M70.9101 69.6306C58.8801 85.3106 36.4146 88.2787 20.7183 76.2538C5.03158 64.2289 2.06229 41.773 14.0923 26.0929C26.1223 10.4129 48.5878 7.44481 64.2745 19.4601C79.9612 31.485 82.9305 53.941 70.9101 69.6306Z" fill="url(#paint10_radial_1002_6700)"/>
<path d="M70.3754 69.7355C58.565 85.1388 36.5005 88.0496 21.0907 76.2347C5.68082 64.4293 2.7688 42.3742 14.5792 26.9805C26.3896 11.5772 48.4541 8.66638 63.864 20.4717C79.2738 32.2771 82.1858 54.3323 70.3754 69.7355Z" fill="url(#paint11_radial_1002_6700)"/>
<path d="M69.8312 69.8405C58.2404 84.9575 36.5769 87.811 21.4535 76.2252C6.33007 64.6393 3.46579 42.985 15.0661 27.8776C26.6665 12.7606 48.3205 9.89749 63.4439 21.4834C78.5673 33.0788 81.4316 54.7236 69.8312 69.8405Z" fill="url(#paint12_radial_1002_6700)"/>
<path d="M69.2966 69.936C57.9158 84.7667 36.6628 87.5725 21.8258 76.1966C6.98885 64.8302 4.18186 43.5863 15.5531 28.7556C26.9338 13.9249 48.1868 11.1191 63.0238 22.4855C77.8608 33.8614 80.6773 55.1053 69.2966 69.936Z" fill="url(#paint13_radial_1002_6700)"/>
<path d="M68.7619 70.0409C57.6007 84.5948 36.7583 87.3434 22.1982 76.187C7.63809 65.0306 4.88838 44.197 16.0495 29.6431C27.2107 15.0892 48.0627 12.3406 62.6132 23.4875C77.1733 34.6439 79.923 55.487 68.7619 70.0314V70.0409Z" fill="url(#paint14_radial_1002_6700)"/>
<path d="M68.2272 70.146C57.2857 84.4136 36.8442 87.1144 22.5706 76.168C8.29688 65.231 5.59492 44.7983 16.5365 30.5307C27.478 16.2631 47.9195 13.5623 62.1931 24.4992C76.4668 35.4361 79.1688 55.8688 68.2272 70.1364V70.146Z" fill="url(#paint15_radial_1002_6700)"/>
<path d="M67.6926 70.2509C56.9706 84.2322 36.9302 86.8758 22.9429 76.1584C8.95566 65.441 6.30142 45.409 17.0329 31.4278C27.7549 17.4465 47.7953 14.7934 61.7826 25.5203C75.7698 36.2377 78.4241 56.2696 67.6926 70.2509Z" fill="url(#paint16_radial_1002_6700)"/>
<path d="M67.1483 70.3464C56.6364 84.0509 37.0065 86.6372 23.3057 76.1297C9.59536 65.6223 7.00795 46.0103 17.5103 32.3058C28.0222 18.6012 47.6521 16.0149 61.353 26.5128C75.0633 37.0203 77.6507 56.6418 67.1483 70.3464Z" fill="url(#paint17_radial_1002_6700)"/>
<path d="M66.6137 70.4513C56.3213 83.8695 37.102 86.4081 23.6781 76.1202C10.2541 65.8322 7.71446 46.6211 18.0068 33.2028C28.2991 19.7846 47.528 17.246 60.9424 27.534C74.3663 37.8219 76.906 57.0426 66.6137 70.4608V70.4513Z" fill="url(#paint18_radial_1002_6700)"/>
<path d="M66.079 70.5563C56.0063 83.6882 37.188 86.1791 24.0409 76.1011C10.9034 66.0327 8.41146 47.2223 18.4842 34.0904C28.5569 20.9585 47.3752 18.4676 60.5223 28.5361C73.6598 38.6045 76.1518 57.4148 66.079 70.5563Z" fill="url(#paint19_radial_1002_6700)"/>
<path d="M65.5444 70.6613C55.6912 83.5165 37.2739 85.9405 24.4132 76.0916C11.5526 66.2426 9.12752 47.8332 18.9807 34.9875C28.8338 22.1324 47.2511 19.6988 60.1118 29.5573C72.9724 39.4157 75.407 57.8157 65.5444 70.6709V70.6613Z" fill="url(#paint20_radial_1002_6700)"/>
<path d="M65.0001 70.7567C55.357 83.3256 37.3503 85.7019 24.776 76.0629C12.2018 66.4239 9.8245 48.4248 19.458 35.856C29.1011 23.2871 47.1079 20.9108 59.6821 30.5402C72.2563 40.1792 74.6337 58.1783 65.0001 70.7472V70.7567Z" fill="url(#paint21_radial_1002_6700)"/>
<path d="M64.4655 70.8617C55.042 83.1443 37.4362 85.4729 25.1484 76.0534C12.8606 66.6339 10.531 49.0452 19.9545 36.7531C29.378 24.4705 46.9838 22.1419 59.2716 31.5614C71.5593 40.9809 73.889 58.5792 64.4655 70.8617Z" fill="url(#paint22_radial_1002_6700)"/>
<path d="M63.9308 70.9667C54.7269 82.9725 37.5317 85.2343 25.5208 76.0343C13.5099 66.8343 11.2375 49.6464 20.451 37.6406C29.6549 25.6348 46.8597 23.3634 58.861 32.5634C70.8719 41.7634 73.1442 58.9609 63.9308 70.9571V70.9667Z" fill="url(#paint23_radial_1002_6700)"/>
<path d="M63.3961 71.0621C54.4118 82.7816 37.6176 84.9957 25.8931 76.0152C14.1686 67.0347 11.9536 50.2476 20.9379 38.5282C29.9318 26.8087 46.7165 24.5946 58.4409 33.5751C70.1654 42.5555 72.3804 59.3426 63.3961 71.0621Z" fill="url(#paint24_radial_1002_6700)"/>
<path d="M62.8615 71.1671C54.0872 82.6003 37.7035 84.7667 26.2655 75.9961C14.8274 67.2256 12.6601 50.8489 21.4344 39.4157C30.2086 27.9826 46.5923 25.8162 58.0304 34.5771C69.4684 43.3477 71.6357 59.7244 62.8615 71.1576V71.1671Z" fill="url(#paint25_radial_1002_6700)"/>
<path d="M62.3173 71.2721C53.7626 82.4285 37.7799 84.5376 26.6283 75.9866C15.4671 67.4356 13.3571 51.4597 21.9118 40.3128C30.4664 29.1564 46.4491 27.0473 57.6007 35.5983C68.7619 44.1493 70.8719 60.1252 62.3173 71.2721Z" fill="url(#paint26_radial_1002_6700)"/>
<path d="M61.7826 71.377C53.4475 82.2471 37.8754 84.299 26.9911 75.9675C16.1164 67.636 14.0541 52.0704 22.3987 41.2003C30.7338 30.3302 46.3155 28.2688 57.1902 36.6099C68.0649 44.9414 70.1272 60.5165 61.7826 71.3866V71.377Z" fill="url(#paint27_radial_1002_6700)"/>
<path d="M61.2479 71.4725C53.1229 82.0563 37.9613 84.0604 27.3635 75.9484C16.7751 67.8364 14.7701 52.6717 22.8856 42.0879C31.0106 31.5041 46.1722 29.5 56.7701 37.612C67.3584 45.724 69.3634 60.8887 61.2479 71.4821V71.4725Z" fill="url(#paint28_radial_1002_6700)"/>
<path d="M60.7133 71.5775C52.8078 81.8845 38.0472 83.8314 27.7358 75.9294C17.4244 68.0273 15.4767 53.273 23.3821 42.9659C31.2875 32.6589 46.0481 30.712 56.3595 38.6141C66.671 46.5161 68.6187 61.2705 60.7133 71.5775Z" fill="url(#paint29_radial_1002_6700)"/>
<path d="M60.1691 71.6825C52.4832 81.7032 38.1236 83.6024 28.0986 75.9198C18.0736 68.2373 16.1737 53.8838 23.8595 43.863C31.5453 33.8423 45.9049 31.9431 55.9299 39.6257C65.9549 47.3083 67.8549 61.6618 60.1691 71.6825Z" fill="url(#paint30_radial_1002_6700)"/>
<path d="M59.6344 71.7874C52.1681 81.5219 38.2095 83.3638 28.471 75.9007C18.7324 68.4377 16.8897 54.485 24.356 44.7506C31.8222 35.0162 45.7808 33.1647 55.5194 40.6373C65.2579 48.1004 67.1006 62.053 59.6344 71.7874Z" fill="url(#paint31_radial_1002_6700)"/>
<path d="M59.0997 71.8829C51.8435 81.3405 38.305 83.1252 28.8433 75.8816C19.3817 68.6381 17.5963 55.0958 24.8429 45.6381C32.0991 36.1805 45.6471 34.3958 55.0993 41.6394C64.561 48.8829 66.3464 62.4252 59.0997 71.8829Z" fill="url(#paint32_radial_1002_6700)"/>
<path d="M58.565 71.9878C51.5284 81.1592 38.3909 82.8961 29.2157 75.8625C20.0404 68.8289 18.3028 55.697 25.3394 46.5257C32.376 37.3543 45.5135 35.6174 54.6887 42.651C63.864 49.6846 65.6016 62.8165 58.565 71.9878Z" fill="url(#paint33_radial_1002_6700)"/>
<path d="M58.0208 72.0928C51.2038 80.9779 38.4673 82.6671 29.5785 75.853C20.6897 69.0389 18.9998 56.3078 25.8167 47.4227C32.6337 38.5377 45.3702 36.8485 54.2591 43.6626C63.1479 50.4767 64.8378 63.2078 58.0208 72.0928Z" fill="url(#paint34_radial_1002_6700)"/>
<path d="M57.4862 72.1883C50.8888 80.7965 38.5532 82.4189 29.9509 75.8244C21.3389 69.2298 19.7158 56.8995 26.3132 48.3008C32.9106 39.6925 45.2461 38.0605 53.8485 44.6647C62.4605 51.2593 64.0836 63.5895 57.4862 72.1883Z" fill="url(#paint35_radial_1002_6700)"/>
<path d="M56.9515 72.2932C50.5641 80.6152 38.6487 82.1899 30.3137 75.8053C21.9881 69.4206 20.4128 57.5103 26.8001 49.1883C33.1779 40.8663 45.1124 39.2916 53.438 45.6667C61.7635 52.0418 63.3388 63.9712 56.9515 72.2932Z" fill="url(#paint36_radial_1002_6700)"/>
<path d="M56.4168 72.3982C50.2491 80.4339 38.7347 81.9608 30.686 75.7957C22.6469 69.6306 21.1193 58.121 27.2871 50.0758C33.4548 42.0402 44.9693 40.5132 53.0179 46.6783C61.057 52.8435 62.5846 64.353 56.4168 72.3982Z" fill="url(#paint37_radial_1002_6700)"/>
<path d="M55.8822 72.5032C49.934 80.2621 38.8206 81.7318 31.0584 75.7766C23.2962 69.831 21.8258 58.7223 27.7836 50.9634C33.7317 43.2045 44.8451 41.7348 52.6073 47.69C60.3695 53.6356 61.8399 64.7443 55.8822 72.5032Z" fill="url(#paint38_radial_1002_6700)"/>
<path d="M55.338 72.5986C49.6094 80.0712 38.897 81.4837 31.4212 75.7575C23.9454 70.0314 22.5324 59.3236 28.2609 51.851C33.9895 44.3784 44.7019 42.9659 52.1777 48.6921C59.6535 54.4182 61.0665 65.126 55.338 72.5986Z" fill="url(#paint39_radial_1002_6700)"/>
<path d="M54.8033 72.7036C49.2848 79.8995 38.9829 81.2546 31.7935 75.7385C24.5946 70.2223 23.2389 59.9248 28.7574 52.7385C34.2759 45.5522 44.5778 44.1875 51.7671 49.7037C58.9565 55.2103 60.3218 65.5173 54.8033 72.7036Z" fill="url(#paint40_radial_1002_6700)"/>
<path d="M54.2686 72.8086C48.9697 79.7181 39.0784 81.0256 32.1659 75.7289C25.2534 70.4322 23.9454 60.5451 29.2443 53.6356C34.5433 46.7261 44.4441 45.4186 51.347 50.7153C58.2595 56.012 59.5675 65.8991 54.2686 72.8086Z" fill="url(#paint41_radial_1002_6700)"/>
<path d="M53.7339 72.9136C48.6546 79.5368 39.1643 80.787 32.5382 75.7098C25.9122 70.6327 24.6519 61.1464 29.7408 54.5232C34.8201 47.8999 44.3104 46.6402 50.9365 51.7269C57.5625 56.8041 58.8133 66.2904 53.7339 72.9136Z" fill="url(#paint42_radial_1002_6700)"/>
<path d="M53.1897 73.009C48.33 79.3459 39.2407 80.5484 32.9011 75.6907C26.5519 70.8331 25.3585 61.7476 30.2182 55.4107C35.0779 49.0738 44.1673 47.8713 50.5069 52.7289C56.8465 57.5866 58.0495 66.6721 53.1897 73.009Z" fill="url(#paint43_radial_1002_6700)"/>
<path d="M52.6551 73.114C48.0054 79.1741 39.3266 80.3193 33.2734 75.6716C27.2107 71.0239 26.065 62.3488 30.7147 56.2982C35.3644 50.2381 44.0431 49.0928 50.1059 53.7406C56.1686 58.3883 57.3143 67.0634 52.6646 73.114H52.6551Z" fill="url(#paint44_radial_1002_6700)"/>
<path d="M52.1204 73.2189C47.6903 78.9928 39.4221 80.0903 33.6362 75.6621C27.8599 71.2339 26.7619 62.9596 31.192 57.1858C35.6221 51.412 43.8999 50.3144 49.6762 54.7427C55.4525 59.1709 56.5505 67.4451 52.1204 73.2189Z" fill="url(#paint45_radial_1002_6700)"/>
<path d="M51.5857 73.3144C47.3752 78.8019 39.508 79.8422 34.0086 75.6335C28.5092 71.4248 27.478 63.5609 31.6885 58.0638C35.899 52.5763 43.7663 51.5265 49.2657 55.7447C54.7556 59.9534 55.7962 67.8173 51.5857 73.3144Z" fill="url(#paint46_radial_1002_6700)"/>
<path d="M51.0511 73.4194C47.0602 78.6301 39.5939 79.6131 34.381 75.6239C29.168 71.6347 28.1845 64.1716 32.1754 58.9609C36.1663 53.7501 43.6326 52.7671 48.8456 56.7563C54.0586 60.7455 55.042 68.2086 51.0511 73.4194Z" fill="url(#paint47_radial_1002_6700)"/>
<path d="M50.5069 73.5244C46.726 78.4488 39.6703 79.3841 34.7438 75.6049C29.8172 71.8256 28.8815 64.773 32.6624 59.8485C36.4432 54.924 43.4989 53.9887 48.4255 57.768C53.3521 61.5472 54.2877 68.5999 50.5069 73.5244Z" fill="url(#paint48_radial_1002_6700)"/>
<path d="M49.9722 73.6294C46.4109 78.2771 39.7563 79.1551 35.1161 75.5953C30.4664 72.0356 29.588 65.3837 33.1493 60.7456C36.7106 56.1074 43.3652 55.2199 48.0054 58.7796C52.6455 62.3393 53.5239 68.9912 49.9627 73.6294H49.9722Z" fill="url(#paint49_radial_1002_6700)"/>
<path d="M49.4375 73.7247C46.0959 78.0861 39.8517 78.9069 35.4885 75.5667C31.1252 72.2264 30.3041 65.9849 33.6458 61.6235C36.9875 57.2621 43.2316 56.4318 47.5948 59.7816C51.9581 63.1219 52.7792 69.3633 49.4375 73.7247Z" fill="url(#paint50_radial_1002_6700)"/>
<path d="M48.9029 73.8297C45.7808 77.9048 39.9377 78.6779 35.8608 75.5571C31.784 72.4364 31.0106 66.5957 34.1327 62.5206C37.2548 58.4455 43.0979 57.6725 47.1748 60.7933C51.2516 63.914 52.0249 69.7547 48.8933 73.8297H48.9029Z" fill="url(#paint51_radial_1002_6700)"/>
<g style="mix-blend-mode:multiply">
<path d="M22.4942 40.3319C15.7727 40.7709 9.97727 35.6747 9.53808 28.956C9.09889 22.2373 14.1878 16.4444 20.9093 16.0054C27.6308 15.5664 33.4262 20.6531 33.8654 27.3718C34.3046 34.0904 29.2157 39.8929 22.4942 40.3319Z" fill="white"/>
<path d="M22.4846 40.1315C15.8777 40.5609 10.1778 35.5506 9.74812 28.9464C9.31848 22.3423 14.3214 16.6448 20.9284 16.2154C27.5353 15.7859 33.2352 20.7867 33.6649 27.3908C34.0945 33.995 29.0916 39.6925 22.4846 40.1315Z" fill="#FFFEFD"/>
<path d="M22.4655 39.9216C15.9732 40.3415 10.3687 35.4265 9.94862 28.9369C9.52852 22.4473 14.4456 16.8453 20.9379 16.4254C27.4303 16.0054 33.0347 20.9204 33.4548 27.41C33.8749 33.8996 28.9579 39.5016 22.4655 39.9311V39.9216Z" fill="#FEFDFB"/>
<path d="M22.456 39.7211C16.0782 40.1315 10.5692 35.3024 10.1587 28.9273C9.73856 22.5523 14.5792 17.0552 20.957 16.6353C27.3348 16.2153 32.8438 21.0539 33.2543 27.429C33.6744 33.8041 28.8338 39.3107 22.456 39.7307V39.7211Z" fill="#FEFCF9"/>
<path d="M22.4369 39.5112C16.1737 39.9216 10.7697 35.1689 10.3592 28.9083C9.94862 22.6477 14.6938 17.2461 20.9666 16.8357C27.2298 16.4253 32.6433 21.1685 33.0443 27.4386C33.4548 33.6992 28.7001 39.1104 22.4369 39.5207V39.5112Z" fill="#FEFBF7"/>
<path d="M22.4274 39.3108C16.2787 39.7116 10.9702 35.0448 10.5692 28.8987C10.1682 22.7527 14.8274 17.4465 20.9857 17.0457C27.1343 16.6448 32.4428 21.3021 32.8438 27.4481C33.2448 33.5942 28.5856 38.9099 22.4274 39.3108Z" fill="#FEFAF5"/>
<path d="M22.4178 39.1008C16.3741 39.4921 11.1707 34.9207 10.7793 28.8796C10.3878 22.8481 14.9611 17.6373 20.9952 17.2365C27.0293 16.8452 32.2423 21.4166 32.6337 27.4481C33.0252 33.4796 28.4519 38.6999 22.4178 39.0912V39.1008Z" fill="#FDF9F3"/>
<path d="M22.3987 38.9003C16.4696 39.2821 11.3617 34.7966 10.9798 28.8701C10.5978 22.9531 15.0852 17.8377 21.0047 17.4465C26.9338 17.0552 32.0418 21.5502 32.4237 27.4672C32.8056 33.3842 28.3182 38.4995 22.3987 38.8908V38.9003Z" fill="#FDF8F1"/>
<path d="M22.3891 38.6904C16.5747 39.0722 11.5622 34.6631 11.1898 28.851C10.8079 23.0486 15.2094 18.0287 21.0238 17.6469C26.8383 17.2652 31.8508 21.6647 32.2232 27.4768C32.6051 33.2792 28.1941 38.2991 22.3891 38.6809V38.6904Z" fill="#FDF7EF"/>
<path d="M22.3796 38.4804C16.6797 38.8526 11.7627 34.5294 11.3903 28.8415C11.018 23.1535 15.3335 18.2386 21.0334 17.8569C26.7333 17.4847 31.6503 21.7983 32.0227 27.4958C32.3951 33.1933 28.0795 38.1083 22.3796 38.4804Z" fill="#FCF6EE"/>
<path d="M22.3605 38.28C16.7751 38.6427 11.9631 34.4149 11.5908 28.8319C11.228 23.249 15.4576 18.439 21.0429 18.0668C26.6283 17.7041 31.4403 21.9319 31.8126 27.5149C32.1754 33.0979 27.9458 37.9174 22.3605 38.28Z" fill="#FCF5EC"/>
<path d="M22.351 38.0701C16.8802 38.4232 12.1637 34.2813 11.8009 28.8128C11.4476 23.3444 15.5913 18.6299 21.062 18.2672C26.5328 17.9141 31.2493 22.056 31.6121 27.5245C31.9654 32.9929 27.8217 37.717 22.351 38.0701Z" fill="#FCF4EA"/>
<path d="M22.3319 37.8697C16.9756 38.2132 12.3546 34.1572 12.0014 28.8033C11.6576 23.4494 15.7154 18.8303 21.0716 18.4772C26.4278 18.1241 31.0488 22.1896 31.4021 27.534C31.7554 32.8879 27.6881 37.5166 22.3319 37.8601V37.8697Z" fill="#FBF3E8"/>
<path d="M22.3223 37.6597C17.0807 38.0033 12.5551 34.0236 12.2114 28.7842C11.8677 23.5448 15.8395 19.0211 21.0811 18.6776C26.3228 18.334 30.8483 22.3041 31.192 27.5435C31.5358 32.783 27.564 37.3066 22.3223 37.6502V37.6597Z" fill="#FBF1E6"/>
<path d="M22.3032 37.4593C17.1762 37.7934 12.7461 33.9091 12.4119 28.7747C12.0777 23.6498 15.9636 19.2216 21.0907 18.8876C26.2177 18.5536 30.6478 22.4378 30.982 27.5627C31.3162 32.6876 27.4303 37.1158 22.3032 37.4498V37.4593Z" fill="#FBF0E4"/>
<path d="M22.2937 37.2494C17.2812 37.5738 12.9561 33.7755 12.6219 28.7651C12.2973 23.7548 16.0973 19.4315 21.1098 19.0975C26.1223 18.773 30.4569 22.5714 30.7815 27.5817C31.1061 32.5921 27.3062 36.9249 22.2937 37.2494Z" fill="#FBEFE2"/>
<path d="M22.2841 37.0489C17.3862 37.3639 13.1566 33.6514 12.832 28.7556C12.5169 23.8598 16.2309 19.632 21.1289 19.3075C26.0268 18.983 30.2564 22.705 30.581 27.6008C30.9056 32.4967 27.182 36.734 22.2841 37.0489Z" fill="#FAEEE0"/>
<path d="M22.265 36.839C17.4817 37.1539 13.3476 33.5178 13.0325 28.7365C12.7174 23.9552 16.3455 19.8228 21.1384 19.5079C25.9218 19.1929 30.0559 22.8195 30.371 27.6103C30.686 32.3917 27.0579 36.5336 22.265 36.8485V36.839Z" fill="#FAEDDE"/>
<path d="M22.2555 36.629C17.5772 36.9344 13.5481 33.3938 13.2425 28.7174C12.937 24.0506 16.4792 20.0137 21.1575 19.7083C25.8263 19.4029 29.8649 22.9436 30.1705 27.6199C30.476 32.2867 26.9338 36.3332 22.2555 36.6386V36.629Z" fill="#FAECDC"/>
<path d="M22.2364 36.4286C17.6726 36.7244 13.739 33.2697 13.443 28.7079C13.1471 24.1556 16.6033 20.2141 21.1575 19.9182C25.7213 19.6224 29.6549 23.0772 29.9509 27.6294C30.2468 32.1912 26.7906 36.1232 22.2364 36.4286Z" fill="#F9EBDA"/>
<path d="M22.2268 36.2186C17.7777 36.5049 13.9395 33.1361 13.6531 28.6888C13.3667 24.251 16.737 20.405 21.1766 20.1187C25.6258 19.8324 29.4639 23.2012 29.7504 27.639C30.0368 32.0863 26.6665 35.9228 22.2268 36.2186Z" fill="#F9EAD8"/>
<path d="M22.2173 36.0182C17.8827 36.295 14.1496 33.012 13.8631 28.6792C13.5862 24.3465 16.8611 20.6149 21.1957 20.3286C25.5303 20.0423 29.2634 23.3348 29.5498 27.6581C29.8363 31.9908 26.5519 35.7319 22.2173 36.0182Z" fill="#F9E9D6"/>
<path d="M22.1982 35.8083C17.9781 36.085 14.3405 32.8879 14.0636 28.6697C13.7867 24.4515 16.9852 20.8154 21.2052 20.5386C25.4253 20.2618 29.0629 23.4589 29.3398 27.6772C29.6167 31.8954 26.4182 35.5411 22.1982 35.8178V35.8083Z" fill="#F9E8D4"/>
<path d="M22.1886 35.6078C18.0832 35.8751 14.541 32.7639 14.2737 28.6601C14.0063 24.5564 17.1189 21.0158 21.2243 20.7485C25.3298 20.4813 28.872 23.5925 29.1393 27.6962C29.4066 31.8 26.2941 35.3502 22.1886 35.6174V35.6078Z" fill="#F8E7D2"/>
<path d="M22.1696 35.3979C18.1787 35.6556 14.732 32.6303 14.4742 28.6411C14.2164 24.6519 17.243 21.2066 21.2339 20.949C25.2248 20.6913 28.6715 23.7166 28.9293 27.7058C29.1871 31.695 26.1605 35.1402 22.1696 35.4075V35.3979Z" fill="#F8E6D0"/>
<path d="M22.16 35.1975C18.2837 35.4456 14.9325 32.5062 14.6842 28.6315C14.436 24.7568 17.3671 21.407 21.253 21.1589C25.1293 20.9108 28.4805 23.8502 28.7288 27.7249C28.9865 31.5996 26.0363 34.9493 22.16 35.207V35.1975Z" fill="#F8E5CE"/>
<path d="M22.1505 34.9875C18.3887 35.2356 15.1425 32.3821 14.8943 28.6124C14.646 24.8523 17.5008 21.5979 21.2625 21.3593C25.0243 21.1112 28.28 23.9647 28.5187 27.7249C28.7669 31.485 25.9122 34.7394 22.1505 34.9875Z" fill="#F7E4CD"/>
<path d="M22.1314 34.7776C18.4842 35.0162 15.3335 32.2485 15.0948 28.5934C14.8561 24.9477 17.6249 21.7984 21.2721 21.5502C24.9193 21.3116 28.07 24.0793 28.3087 27.7249C28.5474 31.3705 25.7786 34.5294 22.1314 34.768V34.7776Z" fill="#F7E3CB"/>
<path d="M22.1218 34.5771C18.5892 34.8062 15.534 32.1244 15.3048 28.5838C15.0757 25.0527 17.7586 21.9987 21.2912 21.7697C24.8238 21.5406 27.879 24.2224 28.1082 27.7535C28.3373 31.2846 25.6544 34.3481 22.1218 34.5771Z" fill="#F7E2C9"/>
<path d="M22.1027 34.3672C18.6847 34.5867 15.7249 31.9908 15.5053 28.5742C15.2857 25.1577 17.8827 22.1992 21.3007 21.9701C24.7188 21.7506 27.6785 24.3464 27.8981 27.763C28.1177 31.1892 25.5208 34.1477 22.1027 34.3672Z" fill="#F6E1C7"/>
<path d="M22.0932 34.1667C18.7801 34.3767 15.9254 31.8763 15.7154 28.5647C15.4958 25.2626 18.0068 22.3996 21.3198 22.1801C24.6233 21.9606 27.4876 24.4705 27.6976 27.7821C27.9172 31.0937 25.4062 33.9472 22.0932 34.1667Z" fill="#F6E0C5"/>
<path d="M22.0836 33.9568C18.8852 34.1668 16.1259 31.7427 15.9159 28.5456C15.7058 25.3581 18.1309 22.5904 21.3294 22.3805C24.5278 22.1705 27.2871 24.5946 27.4876 27.7917C27.6976 30.9887 25.2725 33.7468 22.0741 33.9568H22.0836Z" fill="#F6DFC3"/>
<path d="M22.0645 33.7564C18.9806 33.9568 16.3264 31.6187 16.1164 28.5361C15.9159 25.4535 18.255 22.7909 21.3389 22.5905C24.4228 22.3901 27.077 24.7282 27.2775 27.8013C27.478 30.8838 25.1389 33.5465 22.055 33.7469L22.0645 33.7564Z" fill="#F6DEC1"/>
<path d="M22.055 33.5465C19.0857 33.7373 16.5269 31.4851 16.3264 28.517C16.1355 25.549 18.3887 22.9913 21.3485 22.7909C24.3178 22.6 26.8765 24.8523 27.077 27.8108C27.268 30.7788 25.0147 33.3461 22.055 33.5369V33.5465Z" fill="#F5DDBF"/>
<path d="M22.0359 33.346C19.1812 33.5273 16.7179 31.3705 16.5269 28.5074C16.3455 25.6539 18.5033 23.1917 21.358 23.0008C24.2127 22.8195 26.676 24.9763 26.867 27.8299C27.0579 30.6834 24.8906 33.1551 22.0359 33.3365V33.346Z" fill="#F5DCBD"/>
<path d="M22.0263 33.1361C19.2862 33.3079 16.9184 31.2369 16.737 28.4884C16.5556 25.7494 18.6369 23.3826 21.3771 23.2013C24.1173 23.0199 26.4851 25.1004 26.6665 27.8394C26.8479 30.5784 24.7665 32.9548 22.0263 33.1266V33.1361Z" fill="#F5DBBB"/>
<path d="M22.0168 32.9261C19.3912 33.0979 17.1189 31.1033 16.947 28.4788C16.7752 25.8543 18.7706 23.583 21.3962 23.4112C24.0218 23.2394 26.2941 25.234 26.466 27.8585C26.6378 30.483 24.6424 32.7543 22.0168 32.9261Z" fill="#F4DAB9"/>
<path d="M21.9977 32.7257C19.4867 32.8879 17.3098 30.9792 17.1475 28.4693C16.9852 25.9593 18.8947 23.7834 21.4057 23.6211C23.9168 23.4589 26.0936 25.3676 26.2559 27.8776C26.4182 30.3875 24.5087 32.5634 21.9977 32.7257Z" fill="#F4D9B7"/>
<path d="M21.9882 32.5157C19.5917 32.6684 17.5199 30.8551 17.3576 28.4502C17.2048 26.0547 19.0188 23.9743 21.4248 23.8216C23.8213 23.6689 25.8931 25.4917 26.0554 27.8871C26.2082 30.2825 24.3941 32.363 21.9882 32.5157Z" fill="#F4D8B5"/>
<path d="M21.9691 32.3153C19.6872 32.4585 17.7108 30.7311 17.5581 28.4406C17.4053 26.1597 19.143 24.1842 21.4344 24.0315C23.7163 23.8788 25.6926 25.6157 25.8454 27.8966C25.9981 30.1871 24.2605 32.1626 21.9786 32.3153H21.9691Z" fill="#F4D6B3"/>
<path d="M21.9595 32.1053C19.7922 32.2485 17.9113 30.5975 17.7681 28.4215C17.6249 26.2551 19.2766 24.3751 21.4439 24.2319C23.6112 24.0888 25.4921 25.7398 25.6353 27.9062C25.7785 30.0821 24.1268 31.9622 21.9595 32.1053Z" fill="#F3D5B1"/>
<path d="M21.95 31.905C19.8877 32.0386 18.1118 30.4734 17.9782 28.412C17.8445 26.3602 19.4103 24.5755 21.463 24.4419C23.5158 24.3083 25.3012 25.8734 25.4348 27.9253C25.5685 29.9867 24.0027 31.7714 21.95 31.905Z" fill="#F3D4AF"/>
<path d="M21.9309 31.695C19.9831 31.8191 18.3028 30.3494 18.1787 28.4025C18.0545 26.4651 19.5249 24.7759 21.4726 24.6519C23.4107 24.5278 25.1007 26.007 25.2248 27.9444C25.3489 29.8913 23.8786 31.5709 21.9309 31.7045V31.695Z" fill="#F3D3AD"/>
<path d="M21.9213 31.4946C20.0882 31.6091 18.5128 30.2253 18.3887 28.3929C18.2741 26.5605 19.6585 24.9763 21.4917 24.8618C23.3248 24.7473 24.9002 26.1311 25.0243 27.9634C25.1484 29.7958 23.7545 31.38 21.9213 31.5041V31.4946Z" fill="#F2D2AC"/>
<path d="M21.9022 31.2846C20.1837 31.3991 18.7038 30.0917 18.5892 28.3738C18.4746 26.656 19.7827 25.1767 21.5012 25.0622C23.2198 24.9477 24.6997 26.2552 24.8142 27.973C24.9288 29.6908 23.6208 31.1796 21.9022 31.2942V31.2846Z" fill="#F2D1AA"/>
<path d="M21.8927 31.0747C20.2887 31.1796 18.9043 29.9581 18.7992 28.3548C18.6942 26.7514 19.9163 25.3676 21.5203 25.2626C23.1243 25.1577 24.5087 26.3792 24.6137 27.9825C24.7188 29.5859 23.4967 30.9792 21.8927 31.0842V31.0747Z" fill="#F2D0A8"/>
<path d="M21.8831 30.8742C20.3937 30.9697 19.1048 29.8435 19.0093 28.3452C18.9138 26.8564 20.0404 25.568 21.5394 25.4726C23.0288 25.3771 24.3178 26.5128 24.4132 27.9921C24.5087 29.4809 23.3726 30.7788 21.8927 30.8742H21.8831Z" fill="#F1CFA6"/>
<path d="M21.864 30.6643C20.4892 30.7502 19.2957 29.7099 19.2098 28.3261C19.1239 26.9518 20.1646 25.7589 21.5394 25.673C22.9143 25.5871 24.1077 26.6273 24.1936 28.0016C24.2891 29.3759 23.2389 30.5784 21.864 30.6643Z" fill="#F1CEA4"/>
<path d="M21.8545 30.4639C20.5942 30.5402 19.4962 29.5859 19.4198 28.3166C19.3435 27.0568 20.2982 25.9593 21.5585 25.8734C22.8188 25.7875 23.9072 26.7514 23.9932 28.0112C24.0791 29.2709 23.1148 30.3684 21.8545 30.4543V30.4639Z" fill="#F1CDA2"/>
<path d="M21.8354 30.2539C20.6897 30.3302 19.6967 29.4522 19.6203 28.307C19.544 27.1618 20.4223 26.1597 21.568 26.0834C22.7138 26.007 23.7067 26.885 23.7831 28.0302C23.8595 29.185 22.9811 30.1775 21.8354 30.2539Z" fill="#F1CCA0"/>
<path d="M21.8258 30.0535C20.7947 30.1203 19.8972 29.3377 19.8304 28.2975C19.7636 27.2668 20.5465 26.3697 21.5872 26.2934C22.6183 26.2266 23.5158 27.0187 23.5826 28.0494C23.6494 29.0896 22.857 29.9867 21.8258 30.0535Z" fill="#F0CB9E"/>
<path d="M21.8163 29.8435C20.8997 29.9008 20.0977 29.2041 20.0404 28.2784C19.9832 27.3622 20.6801 26.5605 21.6063 26.4937C22.5228 26.4365 23.3248 27.1427 23.3821 28.0589C23.4394 28.9846 22.7424 29.7863 21.8163 29.8435Z" fill="#F0CA9C"/>
</g>
<g style="mix-blend-mode:multiply">
<path d="M67.3107 73.1903C61.2097 73.5912 55.949 68.9625 55.548 62.8642C55.147 56.7659 59.7681 51.5074 65.869 51.1066C71.9699 50.7057 77.2306 55.3248 77.6316 61.4231C78.0326 67.5215 73.4116 72.7895 67.3107 73.1903Z" fill="white"/>
<path d="M67.2916 73.009C61.2957 73.4003 56.1209 68.8576 55.7294 62.8642C55.338 56.8709 59.8826 51.6983 65.8785 51.307C71.8744 50.9157 77.0492 55.4585 77.4407 61.4518C77.8321 67.4451 73.2875 72.6273 67.2916 73.0186V73.009Z" fill="#FFFEFD"/>
<path d="M67.282 72.8181C61.3911 73.1999 56.3023 68.7335 55.9204 62.8451C55.5385 56.9567 59.9972 51.87 65.8976 51.4883C71.7885 51.1065 76.8774 55.5729 77.2593 61.4613C77.6412 67.3496 73.1824 72.4364 67.282 72.8277V72.8181Z" fill="#FEFDFB"/>
<path d="M67.2725 72.6273C61.4771 72.9995 56.4837 68.619 56.1113 62.8261C55.7294 57.0427 60.1213 52.0419 65.9167 51.6601C71.7121 51.2879 76.7055 55.6684 77.0779 61.4518C77.4598 67.2352 73.0679 72.236 67.2725 72.6178V72.6273Z" fill="#FEFCF9"/>
<path d="M67.2629 72.4459C61.5726 72.8181 56.6651 68.5044 56.2927 62.8165C55.9204 57.1381 60.2264 52.2327 65.9167 51.8509C71.6071 51.4787 76.5146 55.7924 76.8869 61.4708C77.2593 67.1588 72.9533 72.0642 67.2629 72.4364V72.4459Z" fill="#FEFBF7"/>
<path d="M67.2438 72.2551C61.6585 72.6177 56.8465 68.3899 56.4741 62.807C56.1113 57.224 60.3409 52.414 65.9263 52.0418C71.5116 51.6792 76.3331 55.907 76.696 61.4899C77.0588 67.0729 72.8292 71.8924 67.2438 72.2551Z" fill="#FEFAF5"/>
<path d="M67.2343 72.0737C61.7539 72.4268 57.0279 68.2754 56.6651 62.7974C56.3118 57.3194 60.465 52.5953 65.9453 52.2327C71.4257 51.8796 76.1613 56.031 76.5145 61.509C76.8774 66.987 72.7241 71.7206 67.2343 72.0737Z" fill="#FDF9F3"/>
<path d="M67.2248 71.8829C61.8494 72.236 57.2093 68.1609 56.856 62.7783C56.5028 57.4053 60.5796 52.7671 65.9549 52.414C71.3302 52.0609 75.9704 56.136 76.3236 61.509C76.6769 66.882 72.6001 71.5297 67.2248 71.8829Z" fill="#FDF8F1"/>
<path d="M67.2152 71.7015C61.9449 72.0451 57.3907 68.0464 57.047 62.7783C56.7033 57.5103 60.7037 52.958 65.974 52.6145C71.2443 52.2709 75.7985 56.2696 76.1422 61.5377C76.4859 66.8057 72.495 71.3675 67.2152 71.7111V71.7015Z" fill="#FDF7EF"/>
<path d="M67.1961 71.5107C62.0213 71.8447 57.5626 67.9319 57.2284 62.7593C56.8942 57.5962 60.8087 53.1298 65.9836 52.7862C71.1584 52.4522 75.6171 56.3651 75.9513 61.5377C76.2854 66.7103 72.3709 71.1767 67.1961 71.5107Z" fill="#FCF6EE"/>
<path d="M67.1866 71.3198C62.1168 71.6538 57.744 67.8078 57.4098 62.7401C57.0756 57.6725 60.9233 53.3016 65.9931 52.9675C71.0629 52.6335 75.4357 56.4796 75.7699 61.5376C76.104 66.6053 72.2659 70.9762 67.1866 71.3102V71.3198Z" fill="#FCF5EC"/>
<path d="M67.177 71.1385C62.2122 71.463 57.9254 67.7028 57.6007 62.7306C57.2761 57.768 61.0379 53.4829 66.0026 53.1584C70.9674 52.834 75.2543 56.5941 75.5789 61.5568C75.9035 66.5194 72.1417 70.8045 67.177 71.129V71.1385Z" fill="#FCF4EA"/>
<path d="M67.1579 70.9476C62.2982 71.2625 58.1068 67.5787 57.7822 62.7211C57.4671 57.8634 61.1525 53.6738 66.0122 53.3493C70.8719 53.0343 75.0729 56.7182 75.388 61.5758C75.703 66.4335 72.0176 70.6327 67.1579 70.9476Z" fill="#FBF3E8"/>
<path d="M67.1484 70.7663C62.3937 71.0717 58.2882 67.4738 57.9731 62.7115C57.6676 57.9588 61.267 53.8551 66.0313 53.5402C70.786 53.2348 74.901 56.8327 75.2066 61.5949C75.5216 66.3476 71.9126 70.4609 67.1484 70.7758V70.7663Z" fill="#FBF1E6"/>
<path d="M67.1388 70.5754C62.4796 70.8808 58.4696 67.3497 58.164 62.6924C57.8585 58.0447 61.3911 54.0269 66.0408 53.7215C70.7001 53.4161 74.7101 56.9472 75.0156 61.5949C75.3211 66.2521 71.7885 70.27 67.1388 70.5754Z" fill="#FBF0E4"/>
<path d="M67.1293 70.394C62.575 70.6899 58.651 67.2447 58.355 62.6924C58.059 58.1401 61.5057 54.2177 66.0599 53.9219C70.6141 53.626 74.5382 57.0713 74.8342 61.6235C75.1302 66.1758 71.6835 70.1077 67.1293 70.4036V70.394Z" fill="#FBEFE2"/>
<path d="M67.1102 70.2032C62.661 70.4895 58.8228 67.1206 58.5364 62.6734C58.25 58.2261 61.6203 54.3895 66.0695 54.0937C70.5186 53.8074 74.3568 57.1763 74.6432 61.6236C74.9392 66.0709 71.5593 69.9169 67.1102 70.2032Z" fill="#FAEEE0"/>
<path d="M67.1006 70.0123C62.7565 70.2987 59.0042 66.9966 58.7178 62.6543C58.4314 58.312 61.7253 54.5613 66.079 54.275C70.4232 53.9887 74.1754 57.2812 74.4618 61.6236C74.7483 65.9659 71.4543 69.726 67.1006 70.0028V70.0123Z" fill="#FAEDDE"/>
<path d="M67.0911 69.831C62.8519 70.1078 59.1856 66.8916 58.9088 62.6447C58.6319 58.4074 61.8494 54.7426 66.0886 54.4659C70.3277 54.1891 73.994 57.4053 74.2709 61.6426C74.5478 65.88 71.3302 69.5447 67.0911 69.8215V69.831Z" fill="#FAECDC"/>
<path d="M67.0815 69.6401C62.9474 69.9074 59.3671 66.7675 59.0997 62.6352C58.8324 58.5028 61.964 54.924 66.1077 54.6568C70.2418 54.3896 73.8221 57.5198 74.0895 61.6617C74.3568 65.8036 71.2252 69.3729 67.0815 69.6497V69.6401Z" fill="#F9EBDA"/>
<path d="M67.0624 69.4588C63.0238 69.7165 59.5484 66.6625 59.2811 62.6256C59.0138 58.5887 62.0786 55.1149 66.1172 54.8476C70.1558 54.59 73.6407 57.6439 73.8985 61.6808C74.1658 65.7177 71.1011 69.2011 67.0624 69.4683V69.4588Z" fill="#F9EAD8"/>
<path d="M67.0529 69.2679C63.1193 69.5256 59.7299 66.5385 59.4721 62.6065C59.2143 58.6746 62.1932 55.2866 66.1268 55.029C70.0604 54.7713 73.4593 57.7489 73.7076 61.6808C73.9653 65.6128 70.9865 69.0103 67.0529 69.2679Z" fill="#F9E9D6"/>
<path d="M67.0433 69.0866C63.2147 69.3347 59.9113 66.4335 59.663 62.6065C59.4148 58.7796 62.3173 55.4775 66.1459 55.2198C69.9744 54.9717 73.2779 57.8729 73.5262 61.6999C73.7744 65.5268 70.8719 68.8385 67.0433 69.0866Z" fill="#F9E8D4"/>
<path d="M67.0242 68.8957C63.3007 69.1343 60.0831 66.3094 59.8349 62.5874C59.5962 58.8655 62.4127 55.6493 66.1459 55.4012C69.8694 55.1626 73.087 57.9875 73.3352 61.7094C73.5834 65.4314 70.7574 68.6571 67.0242 68.8957Z" fill="#F8E7D2"/>
<path d="M67.0147 68.7049C63.3961 68.9435 60.2645 66.1949 60.0258 62.5684C59.7871 58.9513 62.5369 55.8211 66.1554 55.5825C69.7739 55.3439 72.9056 58.0924 73.1442 61.7094C73.3829 65.336 70.6332 68.4663 67.0147 68.6953V68.7049Z" fill="#F8E6D0"/>
<path d="M67.0052 68.5236C63.4821 68.7526 60.4459 66.0804 60.2168 62.5684C59.9877 59.0564 62.6514 56.012 66.1745 55.7829C69.6976 55.5539 72.7337 58.2261 72.9629 61.7381C73.192 65.2597 70.5282 68.2945 67.0052 68.5331V68.5236Z" fill="#F8E5CE"/>
<path d="M66.9956 68.3327C63.5776 68.5522 60.6273 65.9659 60.4078 62.5493C60.1882 59.1327 62.7756 56.1837 66.1936 55.9642C69.6116 55.7447 72.5618 58.331 72.7814 61.7476C73.001 65.1642 70.4136 68.1132 66.9956 68.3422V68.3327Z" fill="#F7E4CD"/>
<path d="M66.9765 68.1513C63.6635 68.3708 60.7992 65.8514 60.5891 62.5397C60.3696 59.2281 62.8806 56.3651 66.2031 56.1551C69.5162 55.9356 72.3804 58.4551 72.5905 61.7572C72.8101 65.0688 70.2991 67.9318 66.9765 68.1513Z" fill="#F7E3CB"/>
<path d="M66.9669 67.9605C63.7589 68.1704 60.9901 65.7368 60.7801 62.5206C60.57 59.314 63.0047 56.5369 66.2127 56.3269C69.4207 56.1169 72.199 58.5505 72.3995 61.7572C72.6096 64.9638 70.1749 67.741 66.9669 67.9509V67.9605Z" fill="#F7E2C9"/>
<path d="M66.9574 67.7792C63.8544 67.9796 61.1716 65.6223 60.9615 62.5207C60.761 59.419 63.1193 56.7373 66.2222 56.5273C69.3252 56.3269 72.0081 58.6842 72.2181 61.7858C72.4186 64.897 70.0699 67.5788 66.9574 67.7792Z" fill="#F6E1C7"/>
<path d="M66.9479 67.5883C63.9404 67.7792 61.353 65.5078 61.1525 62.5016C60.9615 59.5049 63.2339 56.9091 66.2413 56.7086C69.2393 56.5178 71.8362 58.7891 72.0367 61.7954C72.2372 64.8016 69.9554 67.3974 66.9479 67.5883Z" fill="#F6E0C5"/>
<path d="M66.9287 67.3974C64.0263 67.5883 61.5248 65.3837 61.3338 62.4825C61.1429 59.5812 63.3484 57.0808 66.2413 56.8899C69.1438 56.6991 71.6453 58.9036 71.8362 61.7953C72.0272 64.6966 69.8312 67.2065 66.9287 67.3974Z" fill="#F6DFC3"/>
<path d="M66.9192 67.2161C64.1217 67.3974 61.7062 65.2787 61.5248 62.4825C61.3434 59.6862 63.463 57.2717 66.2604 57.0904C69.0579 56.909 71.4734 59.0277 71.6548 61.824C71.8362 64.6202 69.7166 67.0443 66.9192 67.2256V67.2161Z" fill="#F6DEC1"/>
<path d="M66.9097 67.0252C64.2172 67.197 61.8876 65.1547 61.7158 62.4634C61.5439 59.7721 63.5871 57.4435 66.2795 57.2717C68.9719 57.0999 71.3016 59.1422 71.4734 61.8335C71.6548 64.5248 69.6021 66.863 66.9097 67.0347V67.0252Z" fill="#F5DDBF"/>
<path d="M66.8906 66.8439C64.3032 67.0157 62.0595 65.0497 61.8972 62.4538C61.7253 59.8675 63.6921 57.6248 66.2891 57.453C68.8765 57.2812 71.1202 59.2472 71.2825 61.8335C71.4543 64.4293 69.4875 66.6626 66.8906 66.8343V66.8439Z" fill="#F5DCBD"/>
<path d="M66.881 66.653C64.3986 66.8153 62.2504 64.9256 62.0786 62.4348C61.9163 59.9534 63.8067 57.7966 66.2891 57.6343C68.7714 57.4721 70.9292 59.3617 71.0915 61.8431C71.2538 64.3339 69.3634 66.4812 66.881 66.6435V66.653Z" fill="#F5DBBB"/>
<path d="M66.8715 66.4717C64.4846 66.6244 62.4318 64.8206 62.2695 62.4347C62.1168 60.0489 63.9213 57.9875 66.3082 57.8348C68.6951 57.6821 70.7478 59.4858 70.9101 61.8717C71.0629 64.2576 69.2584 66.319 66.8715 66.4717Z" fill="#F4DAB9"/>
<path d="M66.8619 66.2808C64.58 66.4239 62.6132 64.6965 62.4605 62.4156C62.3173 60.1347 64.0454 58.1688 66.3273 58.0161C68.6091 57.8634 70.5759 59.6003 70.7287 61.8812C70.8815 64.1621 69.1438 66.1376 66.8619 66.2903V66.2808Z" fill="#F4D9B7"/>
<path d="M66.8428 66.0899C64.666 66.2331 62.7851 64.5821 62.6419 62.3966C62.4987 60.2207 64.1504 58.3406 66.3273 58.1974C68.5041 58.0543 70.385 59.7053 70.5282 61.8812C70.6714 64.0572 69.0197 65.9468 66.8428 66.0899Z" fill="#F4D8B5"/>
<path d="M66.8333 65.9086C64.7615 66.0423 62.9665 64.4676 62.8328 62.3966C62.6992 60.3257 64.2745 58.5315 66.3464 58.3979C68.4182 58.2643 70.2131 59.8389 70.3468 61.9099C70.4805 63.9904 68.9051 65.7846 66.8333 65.9182V65.9086Z" fill="#F4D6B3"/>
<path d="M66.8237 65.7177C64.8569 65.8418 63.1479 64.353 63.0238 62.3775C62.8997 60.4115 64.3891 58.7032 66.3655 58.5696C68.3323 58.4455 70.0413 59.9343 70.1654 61.9098C70.2991 63.8854 68.8001 65.5937 66.8237 65.7177Z" fill="#F3D5B1"/>
<path d="M66.8142 65.5364C64.9428 65.6605 63.3293 64.2385 63.2052 62.3679C63.0811 60.4974 64.5037 58.8845 66.375 58.7605C68.2463 58.6364 69.8599 60.0584 69.984 61.9194C70.1081 63.7899 68.6855 65.4028 66.8237 65.5268L66.8142 65.5364Z" fill="#F3D4AF"/>
<path d="M66.7951 65.3455C65.0288 65.46 63.5012 64.124 63.3866 62.3489C63.272 60.5833 64.6087 59.0563 66.375 58.9418C68.1413 58.8273 69.6689 60.1729 69.7835 61.9289C69.8981 63.6945 68.5614 65.2215 66.7951 65.336V65.3455Z" fill="#F3D3AD"/>
<path d="M66.7855 65.1642C65.1242 65.2692 63.6921 64.0094 63.5775 62.3489C63.4725 60.6883 64.7328 59.2472 66.3941 59.1422C68.0554 59.0372 69.4971 60.297 69.6021 61.9576C69.7167 63.6181 68.4468 65.0592 66.7855 65.1642Z" fill="#F2D2AC"/>
<path d="M66.776 64.9733C65.2197 65.0783 63.8735 63.8949 63.7685 62.3298C63.6635 60.7742 64.8474 59.419 66.4132 59.3236C67.9694 59.2186 69.3157 60.4115 69.4207 61.9671C69.5257 63.5323 68.3418 64.8779 66.776 64.9829V64.9733Z" fill="#F2D1AA"/>
<path d="M66.7569 64.792C65.3057 64.8874 64.0454 63.7804 63.9499 62.3202C63.8544 60.8696 64.9619 59.6098 66.4132 59.5144C67.8644 59.419 69.1247 60.526 69.2202 61.9766C69.3157 63.4368 68.2081 64.6965 66.7569 64.792Z" fill="#F2D0A8"/>
<path d="M66.7474 64.6011C65.4012 64.687 64.2268 63.6658 64.1409 62.3107C64.055 60.9555 65.0765 59.7912 66.4323 59.6957C67.7881 59.6098 68.9529 60.6405 69.0388 61.9862C69.1247 63.3414 68.1031 64.5152 66.7474 64.6011Z" fill="#F1CFA6"/>
<path d="M66.7378 64.4102C65.4871 64.4866 64.4082 63.5418 64.3318 62.2916C64.2554 61.0414 65.2006 59.963 66.4514 59.8771C67.7021 59.8007 68.781 60.7455 68.8574 61.9957C68.9433 63.2459 67.9885 64.3339 66.7378 64.4102Z" fill="#F1CEA4"/>
<path d="M66.7283 64.229C65.5825 64.3053 64.5896 63.4368 64.5132 62.2821C64.4368 61.1369 65.3057 60.1443 66.4609 60.068C67.6066 59.9916 68.5996 60.8696 68.676 62.0053C68.7524 63.1505 67.8835 64.1526 66.7378 64.2194L66.7283 64.229Z" fill="#F1CDA2"/>
<path d="M66.7092 64.0381C65.6685 64.1049 64.7615 63.3128 64.6946 62.2725C64.6278 61.2323 65.4202 60.3256 66.4609 60.2588C67.5016 60.192 68.4087 60.9841 68.4755 62.0244C68.5423 63.0742 67.7499 63.9713 66.7092 64.0381Z" fill="#F1CCA0"/>
<path d="M66.6996 63.8567C65.7639 63.914 64.9524 63.2078 64.8856 62.263C64.8283 61.3277 65.5348 60.5069 66.48 60.4497C67.4157 60.3924 68.2368 61.1082 68.2941 62.0435C68.3609 62.9883 67.6448 63.7995 66.6996 63.8663V63.8567Z" fill="#F0CB9E"/>
<path d="M66.6901 63.6659C65.8594 63.7231 65.1338 63.0837 65.0765 62.2439C65.0192 61.4136 65.6589 60.6787 66.4991 60.631C67.3298 60.5737 68.0554 61.2132 68.1127 62.0434C68.17 62.8833 67.5303 63.6086 66.6901 63.6659Z" fill="#F0CA9C"/>
</g>
<path d="M40.9402 36.8771C37.8754 34.5294 37.9327 29.2996 41.0643 25.2149C44.1959 21.1303 49.237 19.7274 52.3018 22.0751C55.3666 24.4228 55.3093 29.6527 52.1777 33.7373C49.0461 37.822 44.0049 39.2344 40.9402 36.8867V36.8771Z" fill="url(#paint52_linear_1002_6700)"/>
<path d="M51.2516 33.0216C48.5018 36.6004 44.2054 37.9078 41.6562 35.9514C39.0974 33.995 39.2502 29.5 41.9999 25.9211C44.7401 22.3423 49.0461 21.0348 51.5953 22.9913C54.154 24.9477 54.0013 29.4427 51.2516 33.0216Z" fill="url(#paint53_radial_1002_6700)"/>
<path d="M49.829 27.9253C49.3039 28.6028 48.33 28.7365 47.6521 28.2116C46.9742 27.6867 46.8406 26.7132 47.3657 26.0356C47.8908 25.358 48.8647 25.234 49.5425 25.7493C50.2204 26.2742 50.3541 27.2381 49.829 27.9253Z" fill="white"/>
<path d="M61.9258 52.9676C58.861 50.6199 58.9183 45.39 62.0499 41.3054C65.1815 37.2207 70.2227 35.8178 73.2874 38.1656C76.3522 40.5133 76.2949 45.7431 73.1633 49.8278C70.0317 53.9124 64.9906 55.3248 61.9258 52.9771V52.9676Z" fill="url(#paint54_linear_1002_6700)"/>
<path d="M72.2277 49.112C69.4875 52.6909 65.1815 53.9983 62.6323 52.0419C60.0736 50.0855 60.2263 45.5905 62.976 42.0212C65.7162 38.4423 70.0222 37.1349 72.5714 39.0913C75.1301 41.0477 74.9774 45.5427 72.2277 49.1216V49.112Z" fill="url(#paint55_radial_1002_6700)"/>
<path d="M70.9769 44.1494C70.4518 44.827 69.4779 44.9606 68.8001 44.4357C68.1222 43.9108 67.9885 42.9469 68.5136 42.2598C69.0388 41.5822 70.0126 41.4581 70.6905 41.9734C71.3684 42.4983 71.502 43.4718 70.9769 44.1494Z" fill="white"/>
<path d="M57.6294 22.1228C56.8274 22.1514 55.9395 19.9182 53.9822 18.5249C52.13 16.9979 49.7526 16.7211 49.5617 15.9386C49.2561 15.156 52.6646 13.8295 55.7676 16.1963C58.8515 18.5821 58.46 22.2182 57.6198 22.1228H57.6294Z" fill="url(#paint56_radial_1002_6700)"/>
<path d="M79.923 39.2153C79.121 39.2439 78.2331 37.0108 76.2759 35.6174C74.4236 34.0904 72.0463 33.8137 71.8553 33.0311C71.5498 32.2485 74.9583 30.922 78.0613 33.2888C81.1451 35.6747 80.7537 39.3108 79.9135 39.2153H79.923Z" fill="url(#paint57_radial_1002_6700)"/>
<g opacity="0.3">
<path d="M69.0292 46.1916C70.3945 42.1261 70.1081 38.9958 69.5161 36.6863C68.9433 34.5199 68.0172 33.1456 67.893 32.9643C66.184 30.7406 66.5755 27.5531 68.781 25.8162C71.0056 24.0697 74.2231 24.461 75.9703 26.6751C76.2377 27.0282 77.9944 29.3187 79.1974 33.2888C80.4004 37.2398 80.9542 42.9564 78.7296 49.4651C77.8226 52.1373 74.9201 53.5688 72.2372 52.6622C71.693 52.4808 71.1965 52.2136 70.7669 51.8796C69.0769 50.5817 68.3131 48.3103 69.0388 46.1726L69.0292 46.1916Z" fill="white"/>
</g>
<path d="M33.6267 68.3804C25.6162 62.2343 22.6851 51.307 26.17 40.5418L26.2082 40.4178L26.2655 40.3032C26.4278 39.9692 26.5806 39.6543 26.7142 39.3584C27.6117 37.4497 28.5378 35.4647 31.3735 35.102C32.2136 34.997 33.0061 35.2261 33.7508 35.7892C34.1136 36.0659 34.4478 36.419 34.7724 36.8389L34.8488 36.9439L34.9061 37.068C37.4457 42.5364 41.4939 47.5086 46.621 51.4406C51.7385 55.3725 57.5912 57.9875 63.5394 59.0277L63.673 59.0468L63.7971 59.0945C64.2841 59.2949 64.7233 59.5335 65.0765 59.8103C65.8117 60.3733 66.2509 61.0891 66.3559 61.9194C66.7283 64.7443 65.067 66.1567 63.4534 67.5214C63.2052 67.7314 62.9379 67.9605 62.661 68.199L62.5655 68.2849L62.4605 68.3517C52.9606 74.5073 41.6467 74.5073 33.6267 68.3613V68.3804Z" fill="url(#paint58_radial_1002_6700)"/>
<path d="M64.9047 62.3297C64.7805 61.3849 63.8544 60.8314 63.1193 60.5451C57.1902 59.5144 51.1179 56.909 45.6471 52.7194C40.1763 48.5298 36.09 43.3381 33.5599 37.8792C33.0825 37.2493 32.3187 36.4954 31.3735 36.6194C29.1202 36.9153 28.7574 38.4327 27.5544 40.8663C24.3846 50.6675 26.8383 61.1845 34.591 67.1302C42.3437 73.0758 53.142 72.7227 61.7921 67.1206C63.8258 65.336 65.2006 64.582 64.9047 62.3393V62.3297Z" fill="url(#paint59_radial_1002_6700)"/>
<mask id="mask0_1002_6700" style="mask-type:luminance" maskUnits="userSpaceOnUse" x="26" y="36" width="39" height="36">
<path d="M64.9047 62.3297C64.7805 61.3849 63.8544 60.8314 63.1193 60.5451C57.1902 59.5144 51.1179 56.909 45.6471 52.7194C40.1763 48.5298 36.09 43.3381 33.5599 37.8792C33.0825 37.2493 32.3187 36.4954 31.3735 36.6194C29.1202 36.9153 28.7574 38.4327 27.5544 40.8663C24.3846 50.6675 26.8383 61.1845 34.591 67.1302C42.3437 73.0758 53.142 72.7227 61.7921 67.1206C63.8258 65.336 65.2006 64.582 64.9047 62.3393V62.3297Z" fill="white"/>
</mask>
<g mask="url(#mask0_1002_6700)">
<path d="M49.5044 68.3422C49.2657 67.6933 48.9411 67.0634 48.5019 66.4717C46.0768 63.2078 42.907 62.5111 40.6346 62.4443L40.7206 62.3298C40.0332 62.3489 39.3266 62.1484 38.7442 61.6999C38.1618 61.2514 37.7799 60.631 37.6176 59.9534L37.5317 60.068C36.8729 57.9016 35.3835 55.0194 31.6026 53.5211C30.9247 53.2539 30.2278 53.0916 29.5403 53.0344C23.9932 52.5667 18.8947 58.98 24.8047 71.7397C24.8143 71.7588 24.8238 71.7874 24.8429 71.8065C25.072 72.4078 25.3585 72.9804 25.6831 73.5148C25.6831 73.5339 25.7022 73.5434 25.7117 73.5625C26.2751 74.4596 26.9816 75.2517 27.8409 75.9102C28.6906 76.5687 29.6454 77.0459 30.6574 77.3609C31.3353 77.5136 32.0132 77.6472 32.6528 77.7617C46.5255 80.1571 51.3948 73.5816 49.5044 68.3422Z" fill="url(#paint60_radial_1002_6700)"/>
</g>
<path style="mix-blend-mode:screen" opacity="0.5" d="M36.4623 62.3393C35.4216 63.685 32.6719 63.3128 30.3041 61.4995C27.9363 59.6862 26.8574 57.1286 27.8981 55.7734C28.9293 54.4277 31.6885 54.7999 34.0563 56.6132C36.4241 58.4265 37.503 60.9937 36.4623 62.3393Z" fill="url(#paint61_radial_1002_6700)"/>
<path style="mix-blend-mode:screen" opacity="0.5" d="M46.9742 70.3941C45.9431 71.7397 43.1838 71.3675 40.816 69.5542C38.4482 67.741 37.3789 65.1833 38.41 63.8281C39.4412 62.4825 42.2004 62.8547 44.5683 64.6679C46.9361 66.4812 48.0149 69.0484 46.9742 70.3941Z" fill="url(#paint62_radial_1002_6700)"/>
<defs>
<radialGradient id="paint0_radial_1002_6700" cx="0" cy="0" r="1" gradientUnits="userSpaceOnUse" gradientTransform="translate(16.536 -32.1298) rotate(37.4682) scale(220.639 220.615)">
<stop stop-color="#EFD65F"/>
<stop offset="0.35" stop-color="#F5E363"/>
<stop offset="0.69" stop-color="#E2A348"/>
<stop offset="1" stop-color="#EED3A3"/>
</radialGradient>
<radialGradient id="paint1_radial_1002_6700" cx="0" cy="0" r="1" gradientUnits="userSpaceOnUse" gradientTransform="translate(19.3653 -31.5392) rotate(37.4682) scale(217.842 217.818)">
<stop stop-color="#EFD65F"/>
<stop offset="0.35" stop-color="#F5E263"/>
<stop offset="0.69" stop-color="#E2A348"/>
<stop offset="0.7" stop-color="#E3A54D"/>
<stop offset="1" stop-color="#EED2A2"/>
</radialGradient>
<radialGradient id="paint2_radial_1002_6700" cx="0" cy="0" r="1" gradientUnits="userSpaceOnUse" gradientTransform="translate(22.1349 -30.9055) rotate(37.4682) scale(215.112 215.088)">
<stop stop-color="#EFD65F"/>
<stop offset="0.35" stop-color="#F5E262"/>
<stop offset="0.69" stop-color="#E2A348"/>
<stop offset="0.7" stop-color="#E3A54D"/>
<stop offset="1" stop-color="#EED2A0"/>
</radialGradient>
<radialGradient id="paint3_radial_1002_6700" cx="0" cy="0" r="1" gradientUnits="userSpaceOnUse" gradientTransform="translate(24.8165 -30.2382) rotate(37.4682) scale(212.439 212.416)">
<stop stop-color="#EFD660"/>
<stop offset="0.35" stop-color="#F4E162"/>
<stop offset="0.69" stop-color="#E2A348"/>
<stop offset="0.7" stop-color="#E3A54C"/>
<stop offset="1" stop-color="#EED19F"/>
</radialGradient>
<radialGradient id="paint4_radial_1002_6700" cx="0" cy="0" r="1" gradientUnits="userSpaceOnUse" gradientTransform="translate(27.4233 -29.5488) rotate(37.4682) scale(209.814 209.791)">
<stop stop-color="#EFD660"/>
<stop offset="0.35" stop-color="#F4E062"/>
<stop offset="0.69" stop-color="#E2A448"/>
<stop offset="0.7" stop-color="#E3A54C"/>
<stop offset="1" stop-color="#EDD19E"/>
</radialGradient>
<radialGradient id="paint5_radial_1002_6700" cx="0" cy="0" r="1" gradientUnits="userSpaceOnUse" gradientTransform="translate(29.9512 -28.8164) rotate(37.4682) scale(207.236 207.214)">
<stop stop-color="#EFD660"/>
<stop offset="0.35" stop-color="#F4E062"/>
<stop offset="0.69" stop-color="#E2A447"/>
<stop offset="0.7" stop-color="#E3A54C"/>
<stop offset="1" stop-color="#EDD09C"/>
</radialGradient>
<radialGradient id="paint6_radial_1002_6700" cx="0" cy="0" r="1" gradientUnits="userSpaceOnUse" gradientTransform="translate(32.4102 -28.0599) rotate(37.4682) scale(204.697 204.675)">
<stop stop-color="#EFD660"/>
<stop offset="0.35" stop-color="#F4DF61"/>
<stop offset="0.69" stop-color="#E2A447"/>
<stop offset="0.7" stop-color="#E3A54C"/>
<stop offset="1" stop-color="#EDCF9B"/>
</radialGradient>
<radialGradient id="paint7_radial_1002_6700" cx="0" cy="0" r="1" gradientUnits="userSpaceOnUse" gradientTransform="translate(34.7887 -27.2642) rotate(37.4682) scale(202.196 202.174)">
<stop stop-color="#EFD660"/>
<stop offset="0.35" stop-color="#F3DE61"/>
<stop offset="0.69" stop-color="#E2A447"/>
<stop offset="0.7" stop-color="#E3A64B"/>
<stop offset="1" stop-color="#EDCF9A"/>
</radialGradient>
<radialGradient id="paint8_radial_1002_6700" cx="0" cy="0" r="1" gradientUnits="userSpaceOnUse" gradientTransform="translate(37.1503 -26.5084) rotate(37.4682) scale(199.752 199.73)">
<stop stop-color="#EFD660"/>
<stop offset="0.35" stop-color="#F3DE61"/>
<stop offset="0.69" stop-color="#E2A447"/>
<stop offset="0.7" stop-color="#E3A64B"/>
<stop offset="1" stop-color="#EDCE98"/>
</radialGradient>
<radialGradient id="paint9_radial_1002_6700" cx="0" cy="0" r="1" gradientUnits="userSpaceOnUse" gradientTransform="translate(39.3771 -25.6533) rotate(37.4682) scale(197.308 197.287)">
<stop stop-color="#EFD761"/>
<stop offset="0.35" stop-color="#F3DD61"/>
<stop offset="0.69" stop-color="#E2A447"/>
<stop offset="0.7" stop-color="#E3A64B"/>
<stop offset="1" stop-color="#EDCE97"/>
</radialGradient>
<radialGradient id="paint10_radial_1002_6700" cx="0" cy="0" r="1" gradientUnits="userSpaceOnUse" gradientTransform="translate(41.5235 -24.7684) rotate(37.4682) scale(194.893 194.872)">
<stop stop-color="#EFD761"/>
<stop offset="0.35" stop-color="#F3DC60"/>
<stop offset="0.69" stop-color="#E2A447"/>
<stop offset="0.7" stop-color="#E3A64B"/>
<stop offset="1" stop-color="#ECCD95"/>
</radialGradient>
<radialGradient id="paint11_radial_1002_6700" cx="0" cy="0" r="1" gradientUnits="userSpaceOnUse" gradientTransform="translate(43.5968 -23.829) rotate(37.4682) scale(192.497 192.476)">
<stop stop-color="#EFD761"/>
<stop offset="0.35" stop-color="#F2DC60"/>
<stop offset="0.69" stop-color="#E2A547"/>
<stop offset="0.7" stop-color="#E3A64A"/>
<stop offset="1" stop-color="#ECCD94"/>
</radialGradient>
<radialGradient id="paint12_radial_1002_6700" cx="0" cy="0" r="1" gradientUnits="userSpaceOnUse" gradientTransform="translate(45.5878 -22.8827) rotate(37.4682) scale(190.111 190.09)">
<stop stop-color="#EFD761"/>
<stop offset="0.35" stop-color="#F2DB60"/>
<stop offset="0.69" stop-color="#E2A547"/>
<stop offset="0.7" stop-color="#E3A64A"/>
<stop offset="1" stop-color="#ECCC93"/>
</radialGradient>
<radialGradient id="paint13_radial_1002_6700" cx="0" cy="0" r="1" gradientUnits="userSpaceOnUse" gradientTransform="translate(47.5191 -21.8933) rotate(37.4682) scale(187.743 187.723)">
<stop stop-color="#EFD761"/>
<stop offset="0.35" stop-color="#F2DA5F"/>
<stop offset="0.69" stop-color="#E2A546"/>
<stop offset="0.7" stop-color="#E3A64A"/>
<stop offset="1" stop-color="#ECCB91"/>
</radialGradient>
<radialGradient id="paint14_radial_1002_6700" cx="0" cy="0" r="1" gradientUnits="userSpaceOnUse" gradientTransform="translate(49.3566 -20.8628) rotate(37.4682) scale(185.376 185.355)">
<stop stop-color="#EFD761"/>
<stop offset="0.35" stop-color="#F2DA5F"/>
<stop offset="0.69" stop-color="#E2A546"/>
<stop offset="0.7" stop-color="#E3A64A"/>
<stop offset="1" stop-color="#ECCB90"/>
</radialGradient>
<radialGradient id="paint15_radial_1002_6700" cx="0" cy="0" r="1" gradientUnits="userSpaceOnUse" gradientTransform="translate(51.1192 -19.8102) rotate(37.4682) scale(183.018 182.998)">
<stop stop-color="#EFD762"/>
<stop offset="0.35" stop-color="#F1D95F"/>
<stop offset="0.69" stop-color="#E2A546"/>
<stop offset="0.7" stop-color="#E3A649"/>
<stop offset="1" stop-color="#ECCA8F"/>
</radialGradient>
<radialGradient id="paint16_radial_1002_6700" cx="0" cy="0" r="1" gradientUnits="userSpaceOnUse" gradientTransform="translate(52.8147 -18.7297) rotate(37.4682) scale(180.651 180.631)">
<stop stop-color="#EFD762"/>
<stop offset="0.35" stop-color="#F1D85F"/>
<stop offset="0.69" stop-color="#E2A546"/>
<stop offset="0.7" stop-color="#E3A649"/>
<stop offset="1" stop-color="#EBCA8D"/>
</radialGradient>
<radialGradient id="paint17_radial_1002_6700" cx="0" cy="0" r="1" gradientUnits="userSpaceOnUse" gradientTransform="translate(54.4296 -17.61) rotate(37.4682) scale(178.274 178.254)">
<stop stop-color="#EFD762"/>
<stop offset="0.35" stop-color="#F1D85E"/>
<stop offset="0.69" stop-color="#E2A546"/>
<stop offset="0.7" stop-color="#E3A649"/>
<stop offset="1" stop-color="#EBC98C"/>
</radialGradient>
<radialGradient id="paint18_radial_1002_6700" cx="0" cy="0" r="1" gradientUnits="userSpaceOnUse" gradientTransform="translate(55.9112 -16.4992) rotate(37.4682) scale(175.887 175.868)">
<stop stop-color="#EFD762"/>
<stop offset="0.35" stop-color="#F1D75E"/>
<stop offset="0.69" stop-color="#E2A546"/>
<stop offset="0.7" stop-color="#E3A649"/>
<stop offset="1" stop-color="#EBC88B"/>
</radialGradient>
<radialGradient id="paint19_radial_1002_6700" cx="0" cy="0" r="1" gradientUnits="userSpaceOnUse" gradientTransform="translate(57.3842 -15.32) rotate(37.4682) scale(173.491 173.472)">
<stop stop-color="#EFD762"/>
<stop offset="0.35" stop-color="#F1D65E"/>
<stop offset="0.69" stop-color="#E2A646"/>
<stop offset="0.7" stop-color="#E3A649"/>
<stop offset="1" stop-color="#EBC889"/>
</radialGradient>
<radialGradient id="paint20_radial_1002_6700" cx="0" cy="0" r="1" gradientUnits="userSpaceOnUse" gradientTransform="translate(58.7632 -14.0996) rotate(37.4682) scale(171.076 171.057)">
<stop stop-color="#EFD763"/>
<stop offset="0.35" stop-color="#F0D65E"/>
<stop offset="0.69" stop-color="#E2A646"/>
<stop offset="0.7" stop-color="#E3A748"/>
<stop offset="1" stop-color="#EBC788"/>
</radialGradient>
<radialGradient id="paint21_radial_1002_6700" cx="0" cy="0" r="1" gradientUnits="userSpaceOnUse" gradientTransform="translate(60.075 -12.8515) rotate(37.4682) scale(168.642 168.623)">
<stop stop-color="#EFD763"/>
<stop offset="0.35" stop-color="#F0D55D"/>
<stop offset="0.69" stop-color="#E2A646"/>
<stop offset="0.7" stop-color="#E3A748"/>
<stop offset="1" stop-color="#EBC787"/>
</radialGradient>
<radialGradient id="paint22_radial_1002_6700" cx="0" cy="0" r="1" gradientUnits="userSpaceOnUse" gradientTransform="translate(61.3063 -11.5735) rotate(37.4682) scale(166.179 166.16)">
<stop stop-color="#EFD763"/>
<stop offset="0.35" stop-color="#F0D45D"/>
<stop offset="0.69" stop-color="#E2A645"/>
<stop offset="0.7" stop-color="#E3A748"/>
<stop offset="1" stop-color="#EBC685"/>
</radialGradient>
<radialGradient id="paint23_radial_1002_6700" cx="0" cy="0" r="1" gradientUnits="userSpaceOnUse" gradientTransform="translate(62.4703 -10.2487) rotate(37.4682) scale(163.697 163.679)">
<stop stop-color="#EFD763"/>
<stop offset="0.35" stop-color="#F0D45D"/>
<stop offset="0.69" stop-color="#E2A645"/>
<stop offset="0.7" stop-color="#E3A748"/>
<stop offset="1" stop-color="#EAC584"/>
</radialGradient>
<radialGradient id="paint24_radial_1002_6700" cx="0" cy="0" r="1" gradientUnits="userSpaceOnUse" gradientTransform="translate(63.5404 -8.90179) rotate(37.4682) scale(161.176 161.159)">
<stop stop-color="#EFD763"/>
<stop offset="0.35" stop-color="#EFD35C"/>
<stop offset="0.69" stop-color="#E2A645"/>
<stop offset="0.7" stop-color="#E3A747"/>
<stop offset="1" stop-color="#EAC583"/>
</radialGradient>
<radialGradient id="paint25_radial_1002_6700" cx="0" cy="0" r="1" gradientUnits="userSpaceOnUse" gradientTransform="translate(64.5491 -7.52512) rotate(37.4682) scale(158.618 158.601)">
<stop stop-color="#EFD763"/>
<stop offset="0.35" stop-color="#EFD25C"/>
<stop offset="0.69" stop-color="#E2A645"/>
<stop offset="0.7" stop-color="#E3A747"/>
<stop offset="1" stop-color="#EAC481"/>
</radialGradient>
<radialGradient id="paint26_radial_1002_6700" cx="0" cy="0" r="1" gradientUnits="userSpaceOnUse" gradientTransform="translate(65.4773 -6.11872) rotate(37.4682) scale(156.031 156.014)">
<stop stop-color="#EFD864"/>
<stop offset="0.35" stop-color="#EFD25C"/>
<stop offset="0.69" stop-color="#E3A745"/>
<stop offset="0.7" stop-color="#E3A747"/>
<stop offset="1" stop-color="#EAC480"/>
</radialGradient>
<radialGradient id="paint27_radial_1002_6700" cx="0" cy="0" r="1" gradientUnits="userSpaceOnUse" gradientTransform="translate(66.3307 -4.67119) rotate(37.4682) scale(153.396 153.379)">
<stop stop-color="#EFD864"/>
<stop offset="0.35" stop-color="#EFD15C"/>
<stop offset="0.69" stop-color="#E3A745"/>
<stop offset="0.7" stop-color="#E3A747"/>
<stop offset="1" stop-color="#EAC37E"/>
</radialGradient>
<radialGradient id="paint28_radial_1002_6700" cx="0" cy="0" r="1" gradientUnits="userSpaceOnUse" gradientTransform="translate(67.1549 -3.1417) rotate(37.4782) scale(150.733 150.716)">
<stop stop-color="#EFD864"/>
<stop offset="0.35" stop-color="#EED05B"/>
<stop offset="0.69" stop-color="#E3A745"/>
<stop offset="0.7" stop-color="#E3A746"/>
<stop offset="1" stop-color="#EAC37D"/>
</radialGradient>
<radialGradient id="paint29_radial_1002_6700" cx="0" cy="0" r="1" gradientUnits="userSpaceOnUse" gradientTransform="translate(67.8494 -1.64001) rotate(37.4782) scale(148.012 147.996)">
<stop stop-color="#EFD864"/>
<stop offset="0.35" stop-color="#EED05B"/>
<stop offset="0.69" stop-color="#E3A745"/>
<stop offset="0.7" stop-color="#E3A746"/>
<stop offset="1" stop-color="#E9C27C"/>
</radialGradient>
<radialGradient id="paint30_radial_1002_6700" cx="0" cy="0" r="1" gradientUnits="userSpaceOnUse" gradientTransform="translate(68.4768 -0.101001) rotate(37.4782) scale(145.234 145.218)">
<stop stop-color="#EFD864"/>
<stop offset="0.35" stop-color="#EECF5B"/>
<stop offset="0.69" stop-color="#E3A744"/>
<stop offset="0.7" stop-color="#E3A746"/>
<stop offset="1" stop-color="#E9C17A"/>
</radialGradient>
<radialGradient id="paint31_radial_1002_6700" cx="0" cy="0" r="1" gradientUnits="userSpaceOnUse" gradientTransform="translate(69.0102 1.47908) rotate(37.4782) scale(142.418 142.403)">
<stop stop-color="#EFD864"/>
<stop offset="0.35" stop-color="#EECE5A"/>
<stop offset="0.69" stop-color="#E3A744"/>
<stop offset="0.7" stop-color="#E3A746"/>
<stop offset="1" stop-color="#E9C179"/>
</radialGradient>
<radialGradient id="paint32_radial_1002_6700" cx="0" cy="0" r="1" gradientUnits="userSpaceOnUse" gradientTransform="translate(69.4823 3.07938) rotate(37.4782) scale(139.535 139.52)">
<stop stop-color="#EFD865"/>
<stop offset="0.35" stop-color="#EDCE5A"/>
<stop offset="0.69" stop-color="#E3A744"/>
<stop offset="0.7" stop-color="#E3A845"/>
<stop offset="1" stop-color="#E9C078"/>
</radialGradient>
<radialGradient id="paint33_radial_1002_6700" cx="0" cy="0" r="1" gradientUnits="userSpaceOnUse" gradientTransform="translate(69.8679 4.71703) rotate(37.4782) scale(136.605 136.59)">
<stop stop-color="#EFD865"/>
<stop offset="0.35" stop-color="#EDCD5A"/>
<stop offset="0.69" stop-color="#E3A844"/>
<stop offset="0.7" stop-color="#E3A845"/>
<stop offset="1" stop-color="#E9C076"/>
</radialGradient>
<radialGradient id="paint34_radial_1002_6700" cx="0" cy="0" r="1" gradientUnits="userSpaceOnUse" gradientTransform="translate(70.1846 6.38822) rotate(37.4782) scale(133.607 133.593)">
<stop stop-color="#EFD865"/>
<stop offset="0.35" stop-color="#EDCC5A"/>
<stop offset="0.69" stop-color="#E3A844"/>
<stop offset="0.7" stop-color="#E3A845"/>
<stop offset="1" stop-color="#E9BF75"/>
</radialGradient>
<radialGradient id="paint35_radial_1002_6700" cx="0" cy="0" r="1" gradientUnits="userSpaceOnUse" gradientTransform="translate(70.4225 8.09302) rotate(37.4782) scale(130.553 130.538)">
<stop stop-color="#EFD865"/>
<stop offset="0.35" stop-color="#EDCC59"/>
<stop offset="0.69" stop-color="#E3A844"/>
<stop offset="0.7" stop-color="#E3A845"/>
<stop offset="1" stop-color="#E9BE74"/>
</radialGradient>
<radialGradient id="paint36_radial_1002_6700" cx="0" cy="0" r="1" gradientUnits="userSpaceOnUse" gradientTransform="translate(70.5838 9.81593) rotate(37.4782) scale(127.431 127.417)">
<stop stop-color="#EFD865"/>
<stop offset="0.35" stop-color="#EDCB59"/>
<stop offset="0.69" stop-color="#E3A844"/>
<stop offset="0.7" stop-color="#E3A845"/>
<stop offset="1" stop-color="#E8BE72"/>
</radialGradient>
<radialGradient id="paint37_radial_1002_6700" cx="0" cy="0" r="1" gradientUnits="userSpaceOnUse" gradientTransform="translate(70.6664 11.582) rotate(37.4782) scale(124.252 124.238)">
<stop stop-color="#EFD866"/>
<stop offset="0.35" stop-color="#ECCA59"/>
<stop offset="0.69" stop-color="#E3A844"/>
<stop offset="0.7" stop-color="#E3A844"/>
<stop offset="1" stop-color="#E8BD71"/>
</radialGradient>
<radialGradient id="paint38_radial_1002_6700" cx="0" cy="0" r="1" gradientUnits="userSpaceOnUse" gradientTransform="translate(70.6741 13.3892) rotate(37.4782) scale(120.997 120.984)">
<stop stop-color="#EFD866"/>
<stop offset="0.35" stop-color="#ECCA59"/>
<stop offset="0.69" stop-color="#E3A844"/>
<stop offset="0.7" stop-color="#E3A844"/>
<stop offset="1" stop-color="#E8BD70"/>
</radialGradient>
<radialGradient id="paint39_radial_1002_6700" cx="0" cy="0" r="1" gradientUnits="userSpaceOnUse" gradientTransform="translate(70.6013 15.2166) rotate(37.4782) scale(117.675 117.662)">
<stop stop-color="#EFD866"/>
<stop offset="0.35" stop-color="#ECC958"/>
<stop offset="0.69" stop-color="#E3A843"/>
<stop offset="0.7" stop-color="#E3A844"/>
<stop offset="1" stop-color="#E8BC6E"/>
</radialGradient>
<radialGradient id="paint40_radial_1002_6700" cx="0" cy="0" r="1" gradientUnits="userSpaceOnUse" gradientTransform="translate(70.4613 17.0814) rotate(37.4782) scale(114.286 114.273)">
<stop stop-color="#EFD866"/>
<stop offset="0.35" stop-color="#ECC858"/>
<stop offset="0.69" stop-color="#E3A843"/>
<stop offset="0.7" stop-color="#E3A844"/>
<stop offset="1" stop-color="#E8BB6D"/>
</radialGradient>
<radialGradient id="paint41_radial_1002_6700" cx="0" cy="0" r="1" gradientUnits="userSpaceOnUse" gradientTransform="translate(70.2407 18.9855) rotate(37.4782) scale(110.821 110.808)">
<stop stop-color="#EFD866"/>
<stop offset="0.35" stop-color="#EBC858"/>
<stop offset="0.69" stop-color="#E3A943"/>
<stop offset="0.7" stop-color="#E3A843"/>
<stop offset="1" stop-color="#E8BB6C"/>
</radialGradient>
<radialGradient id="paint42_radial_1002_6700" cx="0" cy="0" r="1" gradientUnits="userSpaceOnUse" gradientTransform="translate(69.9453 20.9115) rotate(37.4782) scale(107.279 107.267)">
<stop stop-color="#EFD866"/>
<stop offset="0.35" stop-color="#EBC757"/>
<stop offset="0.69" stop-color="#E3A943"/>
<stop offset="0.7" stop-color="#E3A843"/>
<stop offset="1" stop-color="#E7BA6A"/>
</radialGradient>
<radialGradient id="paint43_radial_1002_6700" cx="0" cy="0" r="1" gradientUnits="userSpaceOnUse" gradientTransform="translate(69.5695 22.8673) rotate(37.4782) scale(103.661 103.65)">
<stop stop-color="#EFD967"/>
<stop offset="0.35" stop-color="#EBC657"/>
<stop offset="0.69" stop-color="#E3A943"/>
<stop offset="0.7" stop-color="#E3A843"/>
<stop offset="1" stop-color="#E7BA69"/>
</radialGradient>
<radialGradient id="paint44_radial_1002_6700" cx="0" cy="0" r="1" gradientUnits="userSpaceOnUse" gradientTransform="translate(69.1187 24.8642) rotate(37.4782) scale(99.9668 99.9558)">
<stop stop-color="#EFD967"/>
<stop offset="0.35" stop-color="#EBC657"/>
<stop offset="0.69" stop-color="#E3A943"/>
<stop offset="0.7" stop-color="#E3A843"/>
<stop offset="1" stop-color="#E7B967"/>
</radialGradient>
<radialGradient id="paint45_radial_1002_6700" cx="0" cy="0" r="1" gradientUnits="userSpaceOnUse" gradientTransform="translate(68.5951 26.8872) rotate(37.4782) scale(96.1961 96.1855)">
<stop stop-color="#EFD967"/>
<stop offset="0.35" stop-color="#EAC557"/>
<stop offset="0.69" stop-color="#E3A943"/>
<stop offset="0.7" stop-color="#E3A942"/>
<stop offset="1" stop-color="#E7B966"/>
</radialGradient>
<radialGradient id="paint46_radial_1002_6700" cx="0" cy="0" r="1" gradientUnits="userSpaceOnUse" gradientTransform="translate(67.9966 28.9417) rotate(37.4782) scale(92.3395 92.3293)">
<stop stop-color="#EFD967"/>
<stop offset="0.35" stop-color="#EAC456"/>
<stop offset="0.69" stop-color="#E3A943"/>
<stop offset="0.7" stop-color="#E3A942"/>
<stop offset="1" stop-color="#E7B865"/>
</radialGradient>
<radialGradient id="paint47_radial_1002_6700" cx="0" cy="0" r="1" gradientUnits="userSpaceOnUse" gradientTransform="translate(67.3171 31.0523) rotate(37.4882) scale(88.4065 88.3967)">
<stop stop-color="#EFD967"/>
<stop offset="0.35" stop-color="#EAC456"/>
<stop offset="0.69" stop-color="#E3A942"/>
<stop offset="0.7" stop-color="#E3A942"/>
<stop offset="1" stop-color="#E7B763"/>
</radialGradient>
<radialGradient id="paint48_radial_1002_6700" cx="0" cy="0" r="1" gradientUnits="userSpaceOnUse" gradientTransform="translate(66.5598 33.1703) rotate(37.4882) scale(84.3876 84.3782)">
<stop stop-color="#EFD967"/>
<stop offset="0.35" stop-color="#EAC356"/>
<stop offset="0.69" stop-color="#E3AA42"/>
<stop offset="0.7" stop-color="#E3A942"/>
<stop offset="1" stop-color="#E6B762"/>
</radialGradient>
<radialGradient id="paint49_radial_1002_6700" cx="0" cy="0" r="1" gradientUnits="userSpaceOnUse" gradientTransform="translate(65.7276 35.3197) rotate(37.4882) scale(80.2828 80.2739)">
<stop stop-color="#EFD968"/>
<stop offset="0.35" stop-color="#E9C256"/>
<stop offset="0.69" stop-color="#E3AA42"/>
<stop offset="0.7" stop-color="#E3A941"/>
<stop offset="1" stop-color="#E6B661"/>
</radialGradient>
<radialGradient id="paint50_radial_1002_6700" cx="0" cy="0" r="1" gradientUnits="userSpaceOnUse" gradientTransform="translate(64.809 37.5064) rotate(37.4882) scale(76.092 76.0836)">
<stop stop-color="#EFD968"/>
<stop offset="0.35" stop-color="#E9C255"/>
<stop offset="0.69" stop-color="#E3AA42"/>
<stop offset="0.7" stop-color="#E3A941"/>
<stop offset="1" stop-color="#E6B65F"/>
</radialGradient>
<radialGradient id="paint51_radial_1002_6700" cx="0" cy="0" r="1" gradientUnits="userSpaceOnUse" gradientTransform="translate(63.8291 39.7324) rotate(37.4882) scale(71.8154 71.8074)">
<stop stop-color="#EFD968"/>
<stop offset="0.7" stop-color="#E3A941"/>
<stop offset="1" stop-color="#E6B55E"/>
</radialGradient>
<linearGradient id="paint52_linear_1002_6700" x1="39.957" y1="38.1434" x2="53.0507" y2="21.0721" gradientUnits="userSpaceOnUse">
<stop stop-color="#EED752"/>
<stop offset="0.81" stop-color="#DFA32F"/>
<stop offset="1" stop-color="#DF9F2B"/>
</linearGradient>
<radialGradient id="paint53_radial_1002_6700" cx="0" cy="0" r="1" gradientUnits="userSpaceOnUse" gradientTransform="translate(46.6119 29.4741) rotate(37.4882) scale(7.09276 7.09198)">
<stop stop-color="#743824"/>
<stop offset="0.56" stop-color="#4A281F"/>
<stop offset="1" stop-color="#2F281F"/>
</radialGradient>
<linearGradient id="paint54_linear_1002_6700" x1="60.9387" y1="54.2364" x2="74.0324" y2="37.1651" gradientUnits="userSpaceOnUse">
<stop stop-color="#EED752"/>
<stop offset="0.81" stop-color="#DFA32F"/>
<stop offset="1" stop-color="#DF9F2B"/>
</linearGradient>
<radialGradient id="paint55_radial_1002_6700" cx="0" cy="0" r="1" gradientUnits="userSpaceOnUse" gradientTransform="translate(67.5937 45.5672) rotate(37.4882) scale(7.09276 7.09197)">
<stop stop-color="#743824"/>
<stop offset="0.56" stop-color="#4A281F"/>
<stop offset="1" stop-color="#2F281F"/>
</radialGradient>
<radialGradient id="paint56_radial_1002_6700" cx="0" cy="0" r="1" gradientUnits="userSpaceOnUse" gradientTransform="translate(54.644 17.6628) rotate(37.4882) scale(3.92345 3.92301)">
<stop stop-color="#743824"/>
<stop offset="0.56" stop-color="#4A281F"/>
<stop offset="1" stop-color="#2F281F"/>
</radialGradient>
<radialGradient id="paint57_radial_1002_6700" cx="0" cy="0" r="1" gradientUnits="userSpaceOnUse" gradientTransform="translate(76.9285 34.7551) rotate(37.4882) scale(3.92345 3.92301)">
<stop stop-color="#743824"/>
<stop offset="0.56" stop-color="#4A281F"/>
<stop offset="1" stop-color="#2F281F"/>
</radialGradient>
<radialGradient id="paint58_radial_1002_6700" cx="0" cy="0" r="1" gradientUnits="userSpaceOnUse" gradientTransform="translate(35.4329 63.7854) rotate(37.4782) scale(22.7067 25.8003)">
<stop stop-color="#EFD968"/>
<stop offset="0.7" stop-color="#E3A941"/>
<stop offset="1" stop-color="#E6B55E"/>
</radialGradient>
<radialGradient id="paint59_radial_1002_6700" cx="0" cy="0" r="1" gradientUnits="userSpaceOnUse" gradientTransform="translate(50.8738 46.2164) rotate(37.4782) scale(23.32 26.4971)">
<stop stop-color="#743824"/>
<stop offset="0.56" stop-color="#4A281F"/>
<stop offset="1" stop-color="#2F281F"/>
</radialGradient>
<radialGradient id="paint60_radial_1002_6700" cx="0" cy="0" r="1" gradientUnits="userSpaceOnUse" gradientTransform="translate(38.1462 57.9236) rotate(37.4782) scale(18.2466 14.4798)">
<stop stop-color="#DD4D4F"/>
<stop offset="0.81" stop-color="#8D191E"/>
<stop offset="1" stop-color="#AD0000"/>
</radialGradient>
<radialGradient id="paint61_radial_1002_6700" cx="0" cy="0" r="1" gradientUnits="userSpaceOnUse" gradientTransform="translate(31.8516 59.6585) rotate(37.4782) scale(3.74665 2.12855)">
<stop stop-color="white"/>
<stop offset="0.12" stop-color="#D6D6D6"/>
<stop offset="0.37" stop-color="#8B8B8B"/>
<stop offset="0.59" stop-color="#4F4F4F"/>
<stop offset="0.77" stop-color="#242424"/>
<stop offset="0.91" stop-color="#090909"/>
<stop offset="1"/>
</radialGradient>
<radialGradient id="paint62_radial_1002_6700" cx="0" cy="0" r="1" gradientUnits="userSpaceOnUse" gradientTransform="translate(42.3781 67.7294) rotate(37.4782) scale(3.74665 2.12855)">
<stop stop-color="white"/>
<stop offset="0.12" stop-color="#D6D6D6"/>
<stop offset="0.37" stop-color="#8B8B8B"/>
<stop offset="0.59" stop-color="#4F4F4F"/>
<stop offset="0.77" stop-color="#242424"/>
<stop offset="0.91" stop-color="#090909"/>
<stop offset="1"/>
</radialGradient>
</defs>
</svg>
