<svg width="129" height="129" viewBox="0 0 129 129" fill="none" xmlns="http://www.w3.org/2000/svg">
<path d="M121.977 36.1455C137.768 67.6869 124.984 106.042 93.4197 121.827C61.8649 137.603 23.493 124.834 7.70128 93.2922C-8.09047 61.7508 4.69378 23.3857 36.2486 7.61026C67.8035 -8.17477 106.185 4.60406 121.977 36.1455Z" fill="url(#paint0_radial_1002_6890)"/>
<path d="M121.757 36.9376C137.301 67.9923 124.717 105.766 93.6393 121.312C62.5714 136.849 24.782 124.271 9.2289 93.2159C-6.31461 62.1516 6.26914 24.3783 37.3371 8.84136C68.4145 -6.69553 106.204 5.88286 121.757 36.9376Z" fill="url(#paint1_radial_1002_6890)"/>
<path d="M121.547 37.7392C136.852 68.3168 124.459 105.498 93.8685 120.806C63.2779 136.105 26.0804 123.717 10.7756 93.1491C-4.52921 62.5716 7.86358 25.3803 38.4446 10.082C69.0351 -5.21628 106.242 7.16171 121.547 37.7392Z" fill="url(#paint2_radial_1002_6890)"/>
<path d="M121.327 38.5314C136.394 68.6222 124.192 105.222 94.0881 120.291C63.9845 135.341 27.3694 123.164 12.3033 93.0632C-2.76287 62.9628 9.43897 26.3633 39.5426 11.3036C69.6557 -3.75613 106.271 8.43101 121.337 38.5314H121.327Z" fill="url(#paint3_radial_1002_6890)"/>
<path d="M121.117 39.333C135.935 68.9466 123.934 104.954 94.3076 119.776C64.6814 134.587 28.6582 122.6 13.8308 92.9868C-0.996634 63.3732 11.0047 27.3558 40.631 12.5443C70.2572 -2.27687 106.29 9.71937 121.117 39.333Z" fill="url(#paint4_radial_1002_6890)"/>
<path d="M120.898 40.1251C135.477 69.2521 123.667 104.687 94.5273 119.26C65.3879 133.833 29.9472 122.037 15.3585 92.9105C0.77926 63.7741 12.5801 28.3484 41.7194 13.7754C70.8683 -0.797574 106.309 10.9982 120.888 40.1251H120.898Z" fill="url(#paint5_radial_1002_6890)"/>
<path d="M120.678 40.9268C135.019 69.5765 123.409 104.41 94.7468 118.754C66.0849 133.089 31.2361 121.484 16.8956 92.8342C2.55511 64.1844 14.165 29.3409 42.8174 15.0065C71.4793 0.672098 106.338 12.2771 120.678 40.9268Z" fill="url(#paint6_radial_1002_6890)"/>
<path d="M120.468 41.7189C134.57 69.8819 123.151 104.134 94.9664 118.23C66.7914 132.316 32.5251 120.911 18.4233 92.7483C4.32145 64.5853 15.7404 30.3239 43.9154 16.2376C72.0999 2.14182 106.366 13.5559 120.468 41.7189Z" fill="url(#paint7_radial_1002_6890)"/>
<path d="M120.249 42.5206C134.102 70.2064 122.884 103.876 95.186 117.724C67.498 131.571 33.814 120.367 19.9509 92.6815C6.09727 64.9957 17.3157 31.326 45.0038 17.4783C72.7014 3.62108 106.385 14.8348 120.249 42.5206Z" fill="url(#paint8_radial_1002_6890)"/>
<path d="M120.038 43.3222C133.653 70.5213 122.626 103.609 95.4152 117.218C68.2045 130.827 35.1124 119.814 21.4975 92.6146C7.88265 65.4155 18.9006 32.328 46.1113 18.7189C73.322 5.10984 106.424 16.1231 120.038 43.3222Z" fill="url(#paint9_radial_1002_6890)"/>
<path d="M119.819 44.1144C133.195 70.8363 122.359 103.332 95.6348 116.703C68.911 130.073 36.4014 119.251 23.0252 92.5288C9.64898 65.8069 20.476 33.3111 47.2093 19.9406C73.9426 6.57006 106.452 17.3924 119.828 44.1144H119.819Z" fill="url(#paint10_radial_1002_6890)"/>
<path d="M119.599 44.916C132.737 71.1512 122.101 103.065 95.8448 116.187C69.5984 129.31 37.6807 118.688 24.5432 92.4525C11.4057 66.2173 22.0418 34.3036 48.2882 21.1812C74.5345 8.04931 106.462 18.6808 119.599 44.916Z" fill="url(#paint11_radial_1002_6890)"/>
<path d="M119.389 45.7081C132.278 71.4662 121.843 102.788 96.0739 115.672C70.3145 128.556 38.9792 118.125 26.0804 92.3761C13.1911 66.618 23.6267 35.2961 49.3861 22.4123C75.1551 9.52854 106.49 19.9596 119.38 45.7081H119.389Z" fill="url(#paint12_radial_1002_6890)"/>
<path d="M119.17 46.5098C131.82 71.7811 121.576 102.521 96.2936 115.166C71.0115 127.811 40.2682 117.571 27.6176 92.2998C14.967 67.0284 25.2116 36.2887 50.4841 23.6435C75.7662 10.9983 106.519 21.2385 119.17 46.5002V46.5098Z" fill="url(#paint13_radial_1002_6890)"/>
<path d="M118.96 47.3018C131.371 72.096 121.318 102.244 96.5227 114.641C71.7275 127.038 41.5666 117.008 29.1548 92.2138C16.7429 67.4197 26.7869 37.2716 51.5916 24.8745C76.3963 12.4679 106.557 22.5077 118.969 47.3018H118.96Z" fill="url(#paint14_radial_1002_6890)"/>
<path d="M118.74 48.1036C130.904 72.411 121.05 101.977 96.7327 114.135C72.415 126.294 42.846 116.454 30.6728 92.1471C18.5092 67.8396 28.3528 38.2737 52.6705 26.1152C76.9883 13.9568 106.567 23.7962 118.73 48.1036H118.74Z" fill="url(#paint15_radial_1002_6890)"/>
<path d="M118.52 48.8956C130.445 72.7259 120.793 101.7 96.9523 113.62C73.1215 125.54 44.1254 115.891 32.2004 92.0706C20.2755 68.2404 29.9281 39.2662 53.7589 27.3463C77.5993 15.4264 106.586 25.075 118.511 48.8956H118.52Z" fill="url(#paint16_radial_1002_6890)"/>
<path d="M118.31 49.6973C129.997 73.0408 120.535 101.433 97.1815 113.114C73.828 124.795 45.4334 115.338 33.7471 91.9943C22.0609 68.6508 31.5226 40.2587 54.876 28.5774C78.2295 16.8961 106.634 26.3538 118.32 49.6973H118.31Z" fill="url(#paint17_radial_1002_6890)"/>
<path d="M118.091 50.4894C129.529 73.3462 120.268 101.156 97.4011 112.589C74.5346 124.022 46.7128 114.765 35.2748 91.9084C23.8368 69.0421 33.0979 41.2417 55.9645 29.8085C78.8405 18.3658 106.653 27.6326 118.1 50.4894H118.091Z" fill="url(#paint18_radial_1002_6890)"/>
<path d="M117.881 51.2911C129.08 73.6707 120.01 100.889 97.6207 112.084C75.2315 123.278 48.0017 114.212 36.8024 91.8417C25.603 69.462 34.6637 42.2438 57.0529 31.0492C79.442 19.8547 106.672 28.9115 117.871 51.2911H117.881Z" fill="url(#paint19_radial_1002_6890)"/>
<path d="M117.661 52.0832C128.622 73.9761 119.742 100.612 97.8403 111.568C75.938 122.524 49.2907 113.658 38.3395 91.7558C27.3789 69.8629 36.2486 43.2268 58.1508 32.2708C80.0531 21.3148 106.7 30.1808 117.661 52.0737V52.0832Z" fill="url(#paint20_radial_1002_6890)"/>
<path d="M117.442 52.8849C128.163 74.3006 119.485 100.345 98.0598 111.053C76.635 121.77 50.5796 113.095 39.8672 91.6794C29.1452 70.2637 37.824 44.2193 59.2488 33.5115C80.6737 22.7941 106.729 31.4691 117.451 52.8849H117.442Z" fill="url(#paint21_radial_1002_6890)"/>
<path d="M117.231 53.6865C127.705 74.6155 119.227 100.078 98.2795 110.547C77.3416 121.016 51.8685 112.542 41.3948 91.6126C30.9211 70.6836 39.3994 45.2214 60.3373 34.7521C81.2752 24.2733 106.748 32.7575 117.222 53.6865H117.231Z" fill="url(#paint22_radial_1002_6890)"/>
<path d="M117.012 54.4786C127.247 74.9305 118.96 99.8009 98.4991 110.032C78.0385 120.262 53.1575 111.979 42.9224 91.5362C32.6874 71.0844 40.9747 46.2139 61.4257 35.9832C81.8862 25.7525 106.767 34.0364 117.002 54.4786H117.012Z" fill="url(#paint23_radial_1002_6890)"/>
<path d="M116.802 55.2803C126.798 75.2454 118.702 99.5337 98.7282 109.526C78.7546 119.518 54.4559 111.425 44.4691 91.4599C34.4728 71.4948 42.5692 47.2065 62.5428 37.2144C82.5164 27.2223 106.815 35.3152 116.811 55.2803H116.802Z" fill="url(#paint24_radial_1002_6890)"/>
<path d="M116.582 56.0724C126.33 75.5603 118.434 99.257 98.9478 109.001C79.4516 118.745 55.7448 110.862 45.9967 91.374C36.2486 71.8861 44.135 48.1894 63.6312 38.4455C83.1274 28.692 106.834 36.5845 116.582 56.0724Z" fill="url(#paint25_radial_1002_6890)"/>
<path d="M116.363 56.8741C125.872 75.8753 118.177 98.9898 99.1578 108.495C80.1485 118.001 57.0242 110.308 47.5148 91.3072C38.0054 72.306 45.7008 49.1915 64.71 39.6862C83.7193 30.1808 106.844 37.8729 116.353 56.8741H116.363Z" fill="url(#paint26_radial_1002_6890)"/>
<path d="M116.153 57.6662C125.423 76.1902 117.919 98.713 99.387 107.98C80.855 117.247 58.3227 109.745 49.052 91.2213C39.7812 72.6973 47.2856 50.1745 65.8176 40.9077C84.3495 31.6409 106.882 39.1422 116.153 57.6662Z" fill="url(#paint27_radial_1002_6890)"/>
<path d="M115.933 58.4679C124.965 76.5052 117.652 98.4458 99.6066 107.464C81.5616 116.493 59.6116 109.182 50.5891 91.145C41.5571 73.1076 48.8705 51.167 66.9155 42.1484C84.9605 33.1202 106.91 40.4305 115.943 58.4679H115.933Z" fill="url(#paint28_radial_1002_6890)"/>
<path d="M115.723 59.2599C124.507 76.8201 117.394 98.169 99.8357 106.949C82.2776 115.729 60.9101 108.619 52.1263 91.0686C43.3425 73.518 50.4554 52.1595 68.0135 43.3795C85.5811 34.5994 106.939 41.7093 115.723 59.2599Z" fill="url(#paint29_radial_1002_6890)"/>
<path d="M115.503 60.0616C124.048 77.135 117.126 97.9018 100.046 106.443C82.9651 114.985 62.1895 108.075 53.6444 91.0018C45.0993 73.9284 52.0117 53.1616 69.0924 44.6201C86.1731 36.0787 106.949 42.9882 115.494 60.0616H115.503Z" fill="url(#paint30_radial_1002_6890)"/>
<path d="M115.284 60.8537C123.59 77.45 116.869 97.625 100.265 105.928C83.6716 114.231 63.4784 107.512 55.172 90.9159C46.8656 74.3292 53.5871 54.1446 70.1904 45.8417C86.7841 37.5388 106.977 44.2575 115.284 60.8537Z" fill="url(#paint31_radial_1002_6890)"/>
<path d="M115.074 61.6554C123.132 77.7649 116.611 97.3578 100.494 105.413C84.3781 113.477 64.7769 106.949 56.7187 90.8396C48.6605 74.73 55.1815 55.1371 71.2979 47.0824C87.4143 39.0181 107.015 45.5459 115.074 61.6554Z" fill="url(#paint32_radial_1002_6890)"/>
<path d="M114.854 62.4475C122.674 78.0703 116.344 97.081 100.714 104.897C85.0846 112.713 66.0658 106.386 58.2463 90.7632C50.4268 75.1404 56.7569 56.1297 72.3863 48.3135C88.0158 40.4974 107.035 46.8247 114.854 62.4475Z" fill="url(#paint33_radial_1002_6890)"/>
<path d="M114.635 63.2492C122.215 78.3948 116.076 96.8138 100.924 104.391C85.7721 111.969 67.3452 105.832 59.7644 90.6869C52.1836 75.5413 58.3227 57.1222 73.4748 49.5446C88.6268 41.967 107.054 48.1035 114.635 63.2396V63.2492Z" fill="url(#paint34_radial_1002_6890)"/>
<path d="M114.424 64.0508C121.767 78.7097 115.818 96.5466 101.153 103.876C86.4882 111.215 68.6437 105.269 61.3111 90.6105C53.969 75.9516 59.9076 58.1147 74.5823 50.7853C89.2474 43.4463 107.092 49.3919 114.434 64.0508H114.424Z" fill="url(#paint35_radial_1002_6890)"/>
<path d="M114.205 64.8429C121.299 79.0246 115.561 96.2698 101.373 103.361C87.1851 110.452 69.9326 104.716 62.8387 90.5341C55.7449 76.3524 61.483 59.1072 75.6707 52.0164C89.8585 44.916 107.111 50.6612 114.205 64.8429Z" fill="url(#paint36_radial_1002_6890)"/>
<path d="M113.995 65.6446C120.85 79.3396 115.303 96.0026 101.602 102.855C87.9012 109.707 71.231 104.162 64.3759 90.4673C57.5207 76.7724 63.0678 60.1093 76.7687 53.2571C90.4695 46.4048 107.14 51.9496 113.995 65.6446Z" fill="url(#paint37_radial_1002_6890)"/>
<path d="M113.775 66.4367C120.392 79.6545 115.036 95.7258 101.812 102.34C88.5886 108.953 72.5104 103.599 65.8939 90.3814C59.2775 77.1636 64.6337 61.0923 77.8571 54.4786C91.0806 47.8649 107.159 53.2189 113.775 66.4367Z" fill="url(#paint38_radial_1002_6890)"/>
<path d="M113.565 67.2384C119.933 79.9694 114.778 95.4586 102.041 101.824C89.3047 108.199 73.8089 103.036 67.4407 90.3051C61.0724 77.574 66.2281 62.0848 78.9646 55.7193C91.7011 49.3442 107.197 54.5073 113.565 67.2384Z" fill="url(#paint39_radial_1002_6890)"/>
<path d="M113.346 68.0304C119.475 80.2843 114.51 95.1819 102.261 101.309C90.0017 107.436 75.0978 102.473 68.9683 90.2287C62.8387 77.9748 67.8035 63.0773 80.0531 56.9504C92.3027 50.8234 107.216 55.7861 113.346 68.0304Z" fill="url(#paint40_radial_1002_6890)"/>
<path d="M113.126 68.8321C119.017 80.5993 114.253 94.9147 102.471 100.803C90.6987 106.691 76.3773 101.929 70.4864 90.1524C64.5955 78.3852 69.3597 64.0699 81.1415 58.1815C92.9137 52.2932 107.235 57.0649 113.126 68.8321Z" fill="url(#paint41_radial_1002_6890)"/>
<path d="M112.916 69.6243C118.568 80.9143 113.995 94.6379 102.7 100.288C91.4052 105.937 77.6757 101.366 72.0331 90.0761C66.3809 78.7956 70.9542 65.0624 82.249 59.4222C93.5343 53.7724 107.273 58.3438 112.916 69.6338V69.6243Z" fill="url(#paint42_radial_1002_6890)"/>
<path d="M112.696 70.4259C118.1 81.2292 113.728 94.3707 102.92 99.7723C92.1117 105.174 78.9647 100.803 73.5607 89.9997C68.1568 79.1964 72.5296 66.055 83.3375 60.6533C94.1454 55.2517 107.292 59.6226 112.696 70.4259Z" fill="url(#paint43_radial_1002_6890)"/>
<path d="M112.477 71.2181C117.642 81.5442 113.46 94.0939 103.139 99.257C92.8087 104.42 80.2536 100.24 75.0883 89.9234C69.9231 79.6068 74.1049 67.0475 84.4259 61.8844C94.7469 56.7214 107.312 60.9015 112.477 71.2181Z" fill="url(#paint44_radial_1002_6890)"/>
<path d="M112.267 72.0197C117.193 81.8591 113.202 93.8267 103.359 98.7511C93.5152 103.676 81.5425 99.6864 76.6159 89.847C71.6893 80.0076 75.6803 68.04 85.5238 63.1155C95.3674 58.1911 107.34 62.1803 112.267 72.0197Z" fill="url(#paint45_radial_1002_6890)"/>
<path d="M112.047 72.8118C116.725 82.1645 112.945 93.5499 103.578 98.2263C94.2122 102.912 82.8314 99.1138 78.1531 89.7611C73.4748 80.4085 77.2556 69.023 86.6218 64.3467C95.9785 59.6608 107.369 63.4591 112.047 72.8118Z" fill="url(#paint46_radial_1002_6890)"/>
<path d="M111.837 73.6134C116.277 82.4889 112.687 93.2827 103.807 97.7204C94.9282 102.158 84.1299 98.5698 79.6902 89.6943C75.2506 80.8188 78.8405 70.0251 87.7198 65.5873C96.599 61.1496 107.397 64.7379 111.837 73.6134Z" fill="url(#paint47_radial_1002_6890)"/>
<path d="M111.617 74.4055C115.818 82.7943 112.419 93.0059 104.027 97.2051C95.6252 101.404 85.4188 98.0067 81.2179 89.6084C77.0169 81.2196 80.4159 71.008 88.8178 66.8089C97.2101 62.6097 107.426 66.0072 111.627 74.396L111.617 74.4055Z" fill="url(#paint48_radial_1002_6890)"/>
<path d="M111.398 75.2072C115.36 83.1188 112.152 92.7387 104.237 96.6993C96.3222 100.66 86.6982 97.4532 82.7359 89.5416C78.7737 81.63 81.9817 72.0101 89.8967 68.0591C97.8116 64.0985 107.436 67.3052 111.388 75.2168L111.398 75.2072Z" fill="url(#paint49_radial_1002_6890)"/>
<path d="M111.188 76.0089C114.902 83.4338 111.894 92.4715 104.466 96.1839C97.0287 99.9059 87.9967 96.8902 84.2826 89.4653C80.5686 82.0404 83.5761 73.0027 91.0042 69.2902C98.4322 65.5778 107.474 68.584 111.188 76.0089Z" fill="url(#paint50_radial_1002_6890)"/>
<path d="M110.968 76.801C114.444 83.7487 111.627 92.1948 104.686 95.6686C97.7352 99.1425 89.2856 96.3271 85.8103 89.3889C82.3349 82.4412 85.1419 73.9952 92.1021 70.5214C99.0433 67.0475 107.502 69.8628 110.978 76.801H110.968Z" fill="url(#paint51_radial_1002_6890)"/>
<g style="mix-blend-mode:multiply">
<path d="M47.9445 90.5342C44.0872 99.9537 33.3366 104.468 23.9036 100.622C14.4801 96.7757 9.96406 86.0201 13.8117 76.6006C17.6594 67.1811 28.4196 62.667 37.8431 66.5131C47.2666 70.3591 51.7921 81.1147 47.9445 90.5437V90.5342Z" fill="white"/>
<path d="M47.6581 90.4101C43.8677 99.6673 33.2889 104.105 24.0277 100.326C14.7665 96.5466 10.3269 85.9724 14.1077 76.7056C17.8886 67.4388 28.4673 63.001 37.7285 66.7898C46.9897 70.5691 51.4389 81.1433 47.6581 90.4101Z" fill="#FFFEFD"/>
<path d="M47.3716 90.2956C43.648 99.4001 33.2507 103.752 24.1423 100.04C15.0339 96.3271 10.6706 85.9342 14.3942 76.8296C18.1082 67.7251 28.5055 63.3637 37.614 67.0761C46.7224 70.7886 51.0856 81.1815 47.3716 90.286V90.2956Z" fill="#FEFDFB"/>
<path d="M47.0852 90.1715C43.4284 99.1138 33.2125 103.399 24.2664 99.7437C15.3203 96.0885 11.0334 85.8865 14.6901 76.9442C18.3469 68.0019 28.5533 63.7168 37.4994 67.3624C46.4455 71.0081 50.7419 81.2197 47.0852 90.1715Z" fill="#FEFCF9"/>
<path d="M46.7987 90.057C43.2088 98.8371 33.1743 103.046 24.381 99.4574C15.5972 95.8691 11.3866 85.8483 14.967 77.0587C18.5569 68.2691 28.5914 64.0604 37.3752 67.6488C46.159 71.2371 50.3791 81.2674 46.7892 90.0475L46.7987 90.057Z" fill="#FEFBF7"/>
<path d="M46.5028 89.9425C42.9797 98.5699 33.1266 102.693 24.4955 99.1711C15.874 95.6495 11.7399 85.8102 15.2534 77.1828C18.7765 68.5554 28.6296 64.4231 37.2511 67.9446C45.8726 71.4662 50.0163 81.3151 46.5028 89.9425Z" fill="#FEFAF5"/>
<path d="M46.2164 89.8184C42.7506 98.2836 33.0884 102.34 24.6197 98.8848C16.1509 95.4301 12.0932 85.772 15.5494 77.2973C19.0057 68.8322 28.6774 64.7762 37.1461 68.2309C45.6149 71.6857 49.6821 81.3533 46.2259 89.8184H46.2164Z" fill="#FDF9F3"/>
<path d="M45.9299 89.7039C42.531 98.0068 33.0502 101.986 24.7342 98.5985C16.4278 95.2105 12.4464 85.7243 15.8358 77.4214C19.2252 69.1185 28.7156 65.1388 37.022 68.5268C45.3284 71.9148 49.3193 81.401 45.9299 89.7135V89.7039Z" fill="#FDF8F1"/>
<path d="M45.6435 89.5894C42.3114 97.7396 33.012 101.633 24.8584 98.3122C16.7142 94.9815 12.8093 85.6861 16.1318 77.5359C19.4639 69.3857 28.7633 65.4824 36.9074 68.8131C45.0515 72.1342 48.9661 81.4392 45.6435 89.5894Z" fill="#FDF7EF"/>
<path d="M45.3475 89.4653C42.0822 97.4533 32.9547 101.271 24.9633 98.0163C16.972 94.7524 13.1434 85.6383 16.4087 77.6504C19.674 69.6624 28.7919 65.8355 36.7833 69.0994C44.7746 72.3537 48.6128 81.4774 45.3475 89.4653Z" fill="#FCF6EE"/>
<path d="M45.0611 89.3508C41.8626 97.1765 32.9165 100.927 25.0875 97.73C17.2584 94.5329 13.5062 85.6002 16.7047 77.7745C19.9031 69.9488 28.8397 66.1981 36.6687 69.3952C44.4978 72.5923 48.2595 81.5251 45.0611 89.3603V89.3508Z" fill="#FCF5EC"/>
<path d="M44.7746 89.2362C41.643 96.8997 32.8783 100.574 25.2116 97.4437C17.5449 94.3134 13.869 85.562 17.0006 77.889C20.1323 70.216 28.897 66.5417 36.5637 69.672C44.2304 72.8022 47.9158 81.5632 44.7842 89.2267L44.7746 89.2362Z" fill="#FCF4EA"/>
<path d="M44.4882 89.1122C41.4139 96.623 32.8401 100.211 25.3261 97.1478C17.8217 94.0844 14.2127 85.5143 17.2775 78.0035C20.3423 70.4927 28.9256 66.8948 36.43 69.9583C43.944 73.0218 47.5434 81.6014 44.4787 89.1122H44.4882Z" fill="#FBF3E8"/>
<path d="M44.1922 88.9977C41.1847 96.3462 32.7924 99.8678 25.4407 96.8616C18.0891 93.8649 14.566 85.4761 17.5639 78.118C20.5619 70.7695 28.9638 67.2479 36.3155 70.2446C43.6671 73.2413 47.1997 81.6396 44.1922 88.9882V88.9977Z" fill="#FBF1E6"/>
<path d="M43.9058 88.8832C40.9651 96.0695 32.7542 99.5147 25.5553 96.5848C18.3659 93.6454 14.9193 85.438 17.8504 78.2517C20.791 71.0654 29.002 67.6202 36.1913 70.55C43.3807 73.4799 46.8369 81.6969 43.9058 88.8927V88.8832Z" fill="#FBF0E4"/>
<path d="M43.6194 88.7591C40.7455 95.7927 32.716 99.152 25.6794 96.289C18.6524 93.4164 15.2725 85.3902 18.1464 78.3566C21.0202 71.323 29.0497 67.9542 36.0768 70.8268C43.1134 73.6994 46.4837 81.7255 43.6194 88.7591Z" fill="#FBEFE2"/>
<path d="M43.333 88.6446C40.526 95.5159 32.6778 98.8084 25.794 96.0026C18.9197 93.1968 15.6258 85.3521 18.4328 78.4807C21.2398 71.6093 29.0879 68.3168 35.9622 71.1226C42.8365 73.9284 46.14 81.7732 43.333 88.6446Z" fill="#FAEEE0"/>
<path d="M43.037 88.5301C40.2968 95.2392 32.6301 98.4553 25.9086 95.7163C19.1966 92.9773 15.9791 85.3139 18.7192 78.6048C21.4594 71.8957 29.1261 68.6795 35.8381 71.4185C42.5501 74.1575 45.7772 81.8209 43.037 88.5396V88.5301Z" fill="#FAEDDE"/>
<path d="M42.7506 88.406C40.0677 94.9528 32.5823 98.0927 26.0327 95.4205C19.483 92.7483 16.3419 85.2661 19.0152 78.7097C21.6885 72.1533 29.1738 69.0135 35.7331 71.6952C42.2923 74.3674 45.4334 81.8591 42.7601 88.406H42.7506Z" fill="#FAECDC"/>
<path d="M42.4641 88.2914C39.8481 94.6856 32.5442 97.7491 26.1473 95.1342C19.7504 92.5192 16.6856 85.228 19.3016 78.8338C21.9177 72.4396 29.2216 69.3761 35.609 71.9911C42.0058 74.5965 45.0802 81.9068 42.4641 88.301V88.2914Z" fill="#F9EBDA"/>
<path d="M42.1777 88.1674C39.6285 94.3993 32.506 97.3864 26.2714 94.8383C20.0368 92.2902 17.0484 85.1802 19.588 78.9388C22.1372 72.7068 29.2598 69.7197 35.4944 72.2583C41.7289 74.8064 44.7269 81.9259 42.1777 88.1578V88.1674Z" fill="#F9EAD8"/>
<path d="M41.8913 88.0529C39.4089 94.1226 32.4678 97.0334 26.386 94.5521C20.3137 92.0707 17.4017 85.1326 19.8745 79.0629C22.3569 72.9932 29.298 70.0824 35.3703 72.5542C41.4426 75.0355 44.3641 81.9737 41.8817 88.0529H41.8913Z" fill="#F9E9D6"/>
<path d="M41.5953 87.9383C39.1797 93.8553 32.42 96.6802 26.5005 94.2657C20.5905 91.8512 17.7453 85.0944 20.1609 79.1774C22.5764 73.2604 29.3362 70.4259 35.2461 72.8404C41.1657 75.255 44.0108 82.0118 41.5953 87.9288V87.9383Z" fill="#F9E8D4"/>
<path d="M41.3089 87.8143C38.9601 93.569 32.3819 96.3271 26.6151 93.9794C20.8579 91.6317 18.0986 85.0562 20.4474 79.3014C22.7961 73.5467 29.3744 70.7886 35.1316 73.1363C40.8888 75.484 43.6576 82.0595 41.3089 87.8143Z" fill="#F8E7D2"/>
<path d="M41.0224 87.6998C38.731 93.2923 32.3437 95.974 26.7392 93.6931C21.1443 91.4027 18.4614 85.018 20.7433 79.416C23.0252 73.8234 29.4221 71.1417 35.017 73.4226C40.6119 75.7035 43.3043 82.0977 41.0224 87.6998Z" fill="#F8E6D0"/>
<path d="M40.736 87.5852C38.5114 93.0251 32.3055 95.6209 26.8633 93.4068C21.4307 91.1832 18.8147 84.9798 21.0393 79.54C23.2639 74.1002 29.4698 71.4948 34.912 73.7185C40.3541 75.9326 42.9606 82.1454 40.7455 87.5852H40.736Z" fill="#F8E5CE"/>
<path d="M40.4401 87.4611C38.2823 92.7387 32.2482 95.2677 26.9684 93.1109C21.6885 90.9541 19.1584 84.9321 21.3162 79.6545C23.4739 74.3769 29.508 71.8479 34.7783 74.0047C40.0581 76.1616 42.5978 82.1931 40.4401 87.4707V87.4611Z" fill="#F7E4CD"/>
<path d="M40.1536 87.3467C38.0627 92.462 32.21 94.9147 27.0925 92.8246C21.975 90.7346 19.5213 84.894 21.6122 79.7691C23.7031 74.6537 29.5558 72.201 34.6733 74.2911C39.7908 76.3811 42.2541 82.2313 40.1632 87.3467H40.1536Z" fill="#F7E3CB"/>
<path d="M39.8672 87.2321C37.8431 92.1852 32.1718 94.5615 27.207 92.5383C22.2518 90.5151 19.8649 84.8462 21.889 79.8931C23.9131 74.94 29.5844 72.5637 34.5396 74.5869C39.5043 76.6101 41.8817 82.279 39.8576 87.2321H39.8672Z" fill="#F7E2C9"/>
<path d="M39.5807 87.108C37.6139 91.9084 32.1336 94.2084 27.3312 92.2425C22.5383 90.286 20.2277 84.7985 22.185 79.9981C24.1422 75.1977 29.6321 72.8977 34.425 74.8541C39.2275 76.8105 41.538 82.2981 39.5712 87.0985L39.5807 87.108Z" fill="#F6E1C7"/>
<path d="M39.2848 86.9936C37.3848 91.6317 32.0859 93.8554 27.4457 91.9562C22.8056 90.057 20.581 84.7604 22.4714 80.1222C24.3619 75.484 29.6703 73.2604 34.3105 75.15C38.9506 77.0396 41.1847 82.3458 39.2848 86.984V86.9936Z" fill="#F6E0C5"/>
<path d="M38.9984 86.879C37.1652 91.3549 32.0477 93.5022 27.5603 91.6794C23.0825 89.8471 20.9343 84.7317 22.7579 80.2463C24.591 75.7703 29.7085 73.623 34.1864 75.4459C38.6737 77.2782 40.822 82.3936 38.9984 86.879Z" fill="#F6DFC3"/>
<path d="M38.7119 86.7549C36.9456 91.0782 32.0095 93.1491 27.6844 91.3835C23.3689 89.618 21.2875 84.684 23.0538 80.3608C24.8201 76.0375 29.7563 73.9666 34.0813 75.7321C38.4064 77.4977 40.4878 82.4317 38.7215 86.7549H38.7119Z" fill="#F6DEC1"/>
<path d="M38.4255 86.6404C36.726 90.8014 31.9713 92.796 27.799 91.0972C23.6362 89.3985 21.6408 84.6458 23.3403 80.4848C25.0397 76.3238 29.7944 74.3292 33.9572 76.028C38.1199 77.7267 40.1249 82.489 38.4255 86.65V86.6404Z" fill="#F5DDBF"/>
<path d="M38.1391 86.5259C36.5064 90.5246 31.9331 92.4429 27.9231 90.811C23.9227 89.179 22.0036 84.6076 23.6362 80.5993C25.2689 76.6006 29.8517 74.6824 33.8426 76.3143C37.8431 77.9463 39.7717 82.5271 38.1391 86.5259Z" fill="#F5DCBD"/>
<path d="M37.8431 86.4018C36.2677 90.2383 31.8758 92.0802 28.0282 90.5151C24.19 88.9404 22.3378 84.5504 23.9131 80.7138C25.4789 76.8773 29.8804 75.0259 33.7185 76.6006C37.5662 78.1657 39.4089 82.5653 37.8431 86.4018Z" fill="#F5DBBB"/>
<path d="M37.5566 86.2873C36.0481 89.9711 31.8376 91.7367 28.1522 90.2288C24.4764 88.7209 22.7006 84.5122 24.1995 80.8284C25.7081 77.1446 29.9185 75.379 33.5944 76.8869C37.2798 78.3852 39.0556 82.6035 37.5471 86.2873H37.5566Z" fill="#F4DAB9"/>
<path d="M37.2702 86.1632C35.8285 89.6848 31.7994 91.374 28.2764 89.9329C24.7533 88.4919 23.0634 84.4645 24.4955 80.9429C25.9372 77.4213 29.9663 75.7321 33.4894 77.1732C37.0124 78.6143 38.7119 82.6417 37.2702 86.1632Z" fill="#F4D9B7"/>
<path d="M36.9838 86.0487C35.6089 89.4081 31.7612 91.0209 28.3909 89.6467C25.0302 88.2724 23.4071 84.4263 24.7819 81.0575C26.1568 77.6981 30.0045 76.0853 33.3652 77.45C36.7356 78.8243 38.3491 82.6703 36.9742 86.0392L36.9838 86.0487Z" fill="#F4D8B5"/>
<path d="M36.6878 85.9342C35.3798 89.1408 31.7135 90.6774 28.5055 89.3699C25.3071 88.0624 23.7604 84.3977 25.0684 81.1911C26.3764 77.9844 30.0427 76.4479 33.2507 77.7554C36.4587 79.0628 38.0054 82.7276 36.6974 85.9342H36.6878Z" fill="#F4D6B3"/>
<path d="M36.4014 85.8101C35.1602 88.8545 31.6753 90.3147 28.6201 89.074C25.5744 87.8334 24.1136 84.35 25.3548 81.3056C26.596 78.2612 30.0809 76.801 33.1266 78.0417C36.1723 79.2824 37.6426 82.7753 36.4014 85.8197V85.8101Z" fill="#F3D5B1"/>
<path d="M36.115 85.6956C34.9311 88.5777 31.6372 89.9615 28.7442 88.7877C25.8609 87.6043 24.4669 84.3118 25.6508 81.4201C26.8251 78.5379 30.1286 77.1541 33.012 78.328C35.9049 79.5018 37.2893 82.8134 36.115 85.6956Z" fill="#F3D4AF"/>
<path d="M35.8285 85.5811C34.7115 88.301 31.599 89.618 28.8588 88.5014C26.1377 87.3848 24.8202 84.2641 25.9372 81.5441C27.0543 78.8242 30.1763 77.5072 32.8974 78.6238C35.628 79.7404 36.9456 82.8612 35.8285 85.5811Z" fill="#F3D3AD"/>
<path d="M35.5325 85.457C34.4823 88.0242 31.5416 89.2554 28.9733 88.2056C26.405 87.1558 25.1734 84.2164 26.2236 81.6492C27.2739 79.082 30.2145 77.8508 32.7733 78.9006C35.3416 79.9504 36.5828 82.8898 35.5325 85.457Z" fill="#F2D2AC"/>
<path d="M35.2461 85.3425C34.2627 87.7475 31.5035 88.9023 29.0975 87.9193C26.6915 86.9363 25.5362 84.1782 26.5196 81.7732C27.503 79.3683 30.2623 78.2135 32.6683 79.1965C35.0838 80.1794 36.2391 82.9375 35.2557 85.3425H35.2461Z" fill="#F2D1AA"/>
<path d="M34.9597 85.228C34.0431 87.4707 31.4653 88.5491 29.212 87.6329C26.9684 86.7167 25.8799 84.14 26.7965 81.8877C27.7131 79.645 30.2909 78.5665 32.5346 79.4827C34.7879 80.3989 35.8763 82.9757 34.9502 85.228H34.9597Z" fill="#F2D0A8"/>
<path d="M34.6733 85.1039C33.8236 87.194 31.4271 88.196 29.3362 87.3371C27.2548 86.4782 26.2428 84.0923 27.0925 82.0023C27.9422 79.9122 30.3387 78.9101 32.4296 79.7595C34.5205 80.6089 35.5326 83.0043 34.6733 85.0944V85.1039Z" fill="#F1CFA6"/>
<path d="M34.3773 84.9894C33.5849 86.9172 31.3793 87.8429 29.4412 87.0508C27.5126 86.2587 26.5865 84.0541 27.3694 82.1263C28.1523 80.1985 30.3673 79.2728 32.2959 80.0554C34.2246 80.8475 35.1602 83.0616 34.3677 84.9894H34.3773Z" fill="#F1CEA4"/>
<path d="M34.0909 84.8749C33.3652 86.6404 31.3412 87.4898 29.5653 86.774C27.799 86.0487 26.9397 84.0255 27.6653 82.2504C28.391 80.4848 30.415 79.6355 32.1813 80.3512C33.9572 81.0765 34.8069 83.1093 34.0909 84.8749Z" fill="#F1CDA2"/>
<path d="M33.8044 84.7508C33.1456 86.3636 31.303 87.1366 29.6894 86.4781C28.0854 85.8196 27.3025 83.9777 27.9613 82.3649C28.6201 80.7616 30.4723 79.979 32.0763 80.6375C33.6899 81.296 34.4728 83.1474 33.814 84.7508H33.8044Z" fill="#F1CCA0"/>
<path d="M33.518 84.6363C32.9261 86.0869 31.2648 86.7835 29.804 86.1918C28.3527 85.6001 27.6558 83.93 28.2477 82.4794C28.8397 81.0288 30.5105 80.3321 31.9522 80.9238C33.4034 81.5155 34.11 83.1856 33.518 84.6363Z" fill="#F0CB9E"/>
<path d="M33.222 84.5217C32.6969 85.8101 31.217 86.4304 29.9186 85.9055C28.6296 85.3711 27.9995 83.8919 28.5342 82.6035C29.0593 81.3151 30.5487 80.6948 31.8376 81.2196C33.1361 81.7445 33.7567 83.2333 33.2316 84.5217H33.222Z" fill="#F0CA9C"/>
</g>
<g style="mix-blend-mode:multiply">
<path d="M117.365 55.8434C113.517 65.2629 102.757 69.777 93.3242 65.9309C83.9007 62.0849 79.3847 51.3293 83.2324 41.9098C87.0801 32.4903 97.8403 27.9762 107.264 31.8223C116.687 35.6683 121.213 46.4239 117.365 55.853V55.8434Z" fill="white"/>
<path d="M117.079 55.7193C113.288 64.9861 102.71 69.4143 93.4484 65.6351C84.1872 61.8558 79.7475 51.2816 83.5284 42.0148C87.3092 32.748 97.888 28.3102 107.159 32.099C116.42 35.8783 120.869 46.4525 117.088 55.7193H117.079Z" fill="#FFFEFD"/>
<path d="M116.792 55.6048C113.069 64.7094 102.671 69.0612 93.5629 65.3488C84.4545 61.6363 80.0913 51.2434 83.8148 42.1389C87.5384 33.0344 97.9262 28.6729 107.035 32.3854C116.143 36.0978 120.506 46.4907 116.792 55.6048Z" fill="#FEFDFB"/>
<path d="M116.496 55.4903C112.84 64.4326 102.624 68.7177 93.6775 65.0625C84.7314 61.4073 80.4445 51.2052 84.1012 42.2629C87.758 33.3206 97.9644 29.0356 106.91 32.6812C115.857 36.3269 120.153 46.548 116.496 55.4903Z" fill="#FEFCF9"/>
<path d="M116.21 55.3662C112.62 64.1463 102.585 68.355 93.8016 64.7666C85.0178 61.1783 80.8073 51.1575 84.3877 42.3679C87.9776 33.5783 98.0121 29.3696 106.796 32.958C115.58 36.5464 119.8 46.5766 116.21 55.3567V55.3662Z" fill="#FEFBF7"/>
<path d="M115.923 55.2517C112.4 63.8791 102.547 68.0019 93.9162 64.4803C85.2851 60.9587 81.151 51.1194 84.6741 42.492C88.1972 33.8646 98.0503 29.7323 106.672 33.2538C115.293 36.7754 119.437 46.6244 115.914 55.2517H115.923Z" fill="#FEFAF5"/>
<path d="M115.637 55.1277C112.181 63.5928 102.509 67.6488 94.0403 64.194C85.5716 60.7393 81.5139 51.0812 84.9701 42.6065C88.4263 34.1414 98.098 30.0854 106.567 33.5402C115.036 36.9949 119.093 46.6625 115.637 55.1277Z" fill="#FDF9F3"/>
<path d="M115.351 55.0131C111.952 63.316 102.471 67.2957 94.1549 63.9077C85.8485 60.5198 81.8671 51.0335 85.2565 42.7306C88.6459 34.4277 98.1362 30.448 106.443 33.836C114.749 37.224 118.74 46.7103 115.351 55.0227V55.0131Z" fill="#FDF8F1"/>
<path d="M115.055 54.8986C111.722 63.0488 102.423 66.9425 94.2694 63.6214C86.1253 60.2907 82.2204 50.9953 85.5429 42.8451C88.8751 34.6949 98.1744 30.7916 106.328 34.1223C114.472 37.4434 118.387 46.7484 115.064 54.8986H115.055Z" fill="#FDF7EF"/>
<path d="M114.768 54.7745C111.503 62.7625 102.375 66.5799 94.384 63.3255C86.3927 60.0616 82.5641 50.9476 85.8293 42.9596C89.0946 34.9717 98.2126 31.1447 106.204 34.4086C114.195 37.6725 118.024 46.7866 114.768 54.7841V54.7745Z" fill="#FCF6EE"/>
<path d="M114.482 54.66C111.283 62.4857 102.337 66.2363 94.5081 63.0392C86.6791 59.8421 82.9269 50.9094 86.1253 43.0837C89.3238 35.258 98.2603 31.5073 106.089 34.7044C113.918 37.9015 117.68 46.8438 114.482 54.6695V54.66Z" fill="#FCF5EC"/>
<path d="M114.195 54.5455C111.064 62.209 102.299 65.8832 94.6322 62.7529C86.9655 59.6226 83.2897 50.8712 86.4213 43.1982C89.5529 35.5252 98.3176 31.8509 105.984 34.9812C113.651 38.1115 117.336 46.8725 114.205 54.5359L114.195 54.5455Z" fill="#FCF4EA"/>
<path d="M113.899 54.4214C110.825 61.9322 102.251 65.5205 94.7373 62.4571C87.2233 59.3936 83.6239 50.8235 86.6886 43.3127C89.7534 35.8019 98.3367 32.204 105.841 35.2675C113.355 38.331 116.955 46.9106 113.89 54.4214H113.899Z" fill="#FBF3E8"/>
<path d="M113.613 54.3069C110.605 61.6554 102.213 65.177 94.8614 62.1708C87.5097 59.1741 83.9867 50.7853 86.9846 43.4272C89.9826 36.0787 98.3845 32.5571 105.736 35.5538C113.088 38.5505 116.62 46.9488 113.613 54.2974V54.3069Z" fill="#FBF1E6"/>
<path d="M113.326 54.1924C110.386 61.3787 102.175 64.8239 94.976 61.8845C87.7866 58.9451 84.3399 50.7376 87.2711 43.5513C90.2117 36.365 98.4227 32.9103 105.612 35.8497C112.801 38.7795 116.258 46.9965 113.317 54.1924H113.326Z" fill="#FBF0E4"/>
<path d="M113.04 54.0683C110.166 61.1019 102.137 64.4612 95.1001 61.5982C88.073 58.7256 84.6932 50.6994 87.567 43.6658C90.4408 36.6322 98.4704 33.2634 105.497 36.136C112.534 39.0086 115.904 47.0347 113.04 54.0683Z" fill="#FBEFE2"/>
<path d="M112.744 53.9538C109.937 60.8251 102.089 64.1177 95.2051 61.3119C88.3308 58.5061 85.0369 50.6613 87.8439 43.7899C90.6509 36.9185 98.499 33.626 105.373 36.4318C112.248 39.2376 115.551 47.0824 112.744 53.9538Z" fill="#FAEEE0"/>
<path d="M112.458 53.8392C109.718 60.5483 102.051 63.7645 95.3293 61.0255C88.6173 58.2865 85.3997 50.623 88.1399 43.9044C90.8801 37.1953 98.5468 33.9791 105.259 36.7181C111.971 39.4571 115.198 47.1206 112.458 53.8392Z" fill="#FAEDDE"/>
<path d="M112.171 53.7152C109.488 60.262 102.003 63.4019 95.4534 60.7297C88.9037 58.0575 85.7626 50.5754 88.4359 44.0189C91.1092 37.4625 98.5946 34.3227 105.154 37.0044C111.703 39.6766 114.854 47.1683 112.181 53.7152H112.171Z" fill="#FAECDC"/>
<path d="M111.885 53.6006C109.269 59.9948 101.965 63.0583 95.5679 60.4434C89.171 57.8285 86.1062 50.5372 88.7223 44.143C91.3288 37.7488 98.6423 34.6853 105.03 37.3003C111.427 39.9057 114.491 47.216 111.885 53.6102V53.6006Z" fill="#F9EBDA"/>
<path d="M111.589 53.4861C109.04 59.7181 101.917 62.7052 95.6825 60.1571C89.4479 57.6089 86.4595 50.499 88.9992 44.2575C91.5484 38.0256 98.6709 35.0385 104.905 37.5771C111.14 40.1252 114.138 47.2446 111.589 53.4766V53.4861Z" fill="#F9EAD8"/>
<path d="M111.302 53.362C108.82 59.4317 101.879 62.3425 95.7971 59.8612C89.7248 57.3799 86.8127 50.4417 89.2856 44.372C91.768 38.3023 98.7091 35.382 104.781 37.8633C110.854 40.3447 113.775 47.2828 111.293 53.362H111.302Z" fill="#F9E9D6"/>
<path d="M111.016 53.2475C108.6 59.1645 101.841 61.9894 95.9212 59.5749C90.0112 57.1604 87.1661 50.4036 89.5816 44.4866C91.9972 38.5696 98.7569 35.7351 104.667 38.1497C110.586 40.5642 113.422 47.321 111.006 53.238L111.016 53.2475Z" fill="#F9E8D4"/>
<path d="M110.73 53.1235C108.381 58.8782 101.803 61.6363 96.0453 59.2886C90.2881 56.9409 87.5288 50.3654 89.8776 44.6106C92.2263 38.8559 98.8045 36.0978 104.562 38.4455C110.319 40.7932 113.088 47.3687 110.739 53.1235H110.73Z" fill="#F8E7D2"/>
<path d="M110.443 53.009C108.152 58.6015 101.764 61.2832 96.1599 59.0023C90.565 56.7119 87.8821 50.3272 90.164 44.7252C92.4458 39.1327 98.8428 36.4509 104.438 38.7318C110.033 41.0127 112.725 47.4069 110.443 53.009Z" fill="#F8E6D0"/>
<path d="M110.147 52.8945C107.923 58.3343 101.717 60.9301 96.2744 58.716C90.8418 56.4924 88.2258 50.2891 90.4504 44.8493C92.675 39.419 98.8809 36.804 104.323 39.0277C109.765 41.2513 112.372 47.4642 110.157 52.8945H110.147Z" fill="#F8E5CE"/>
<path d="M109.861 52.7703C107.703 58.0479 101.669 60.577 96.389 58.4201C91.1092 56.2633 88.5791 50.2413 90.7368 44.9637C92.8946 39.6861 98.9192 37.1571 104.199 39.3139C109.479 41.4708 112.018 47.5023 109.861 52.7799V52.7703Z" fill="#F7E4CD"/>
<path d="M109.574 52.6559C107.483 57.7712 101.631 60.2239 96.5131 58.1339C91.3956 56.0438 88.9419 50.2032 91.0328 45.0783C93.1238 39.963 98.9764 37.5103 104.094 39.6003C109.211 41.6904 111.675 47.5405 109.584 52.6559H109.574Z" fill="#F7E3CB"/>
<path d="M109.288 52.5413C107.264 57.4944 101.592 59.8708 96.6277 57.8475C91.6725 55.8243 89.2856 50.1554 91.3192 45.2023C93.3433 40.2492 99.0146 37.8729 103.97 39.8961C108.935 41.9193 111.312 47.5882 109.288 52.5413Z" fill="#F7E2C9"/>
<path d="M108.992 52.4172C107.025 57.2176 101.545 59.5176 96.7423 57.5517C91.9399 55.5952 89.6389 50.1077 91.5961 45.3073C93.5534 40.5069 99.0433 38.2069 103.836 40.1633C108.639 42.1197 110.949 47.6073 108.982 52.4077L108.992 52.4172Z" fill="#F6E1C7"/>
<path d="M108.705 52.3028C106.805 56.9409 101.507 59.1646 96.8664 57.2654C92.2263 55.3662 90.0017 50.0696 91.8921 45.4314C93.7825 40.7932 99.091 38.5696 103.731 40.4592C108.371 42.3488 110.605 47.6551 108.705 52.2932V52.3028Z" fill="#F6E0C5"/>
<path d="M108.419 52.1883C106.586 56.6642 101.468 58.8115 96.981 56.9887C92.5032 55.1563 90.355 50.0409 92.1786 45.5555C94.0117 41.0795 99.1292 38.9323 103.607 40.7551C108.085 42.5874 110.243 47.7028 108.419 52.1883Z" fill="#F6DFC3"/>
<path d="M108.133 52.0642C106.366 56.3874 101.43 58.4488 97.1051 56.6928C92.7896 54.9272 90.7082 49.9932 92.4745 45.67C94.2408 41.3563 99.1769 39.2758 103.502 41.0413C107.827 42.8069 109.899 47.7409 108.142 52.0642H108.133Z" fill="#F6DEC1"/>
<path d="M107.837 51.9496C106.137 56.1106 101.382 58.1052 97.2101 56.4065C93.0473 54.7077 91.0519 49.955 92.7513 45.794C94.4508 41.633 99.2055 39.6384 103.368 41.3372C107.531 43.0359 109.536 47.7982 107.837 51.9592V51.9496Z" fill="#F5DDBF"/>
<path d="M107.55 51.8351C105.918 55.8338 101.344 57.7521 97.3342 56.1202C93.3338 54.4882 91.4147 49.9168 93.0473 45.9086C94.68 41.9098 99.2628 39.9916 103.263 41.6235C107.264 43.2555 109.192 47.8363 107.56 51.8351H107.55Z" fill="#F5DCBD"/>
<path d="M107.264 51.7111C105.688 55.5476 101.296 57.3895 97.4488 55.8243C93.6107 54.2497 91.7584 49.8596 93.3338 46.0231C94.8996 42.1866 99.301 40.3447 103.139 41.9098C106.987 43.475 108.83 47.8746 107.264 51.7111Z" fill="#F5DBBB"/>
<path d="M106.977 51.5965C105.469 55.2803 101.258 57.0459 97.5729 55.538C93.8875 54.0301 92.1212 49.8214 93.6202 46.1376C95.1192 42.4538 99.3392 40.6883 103.015 42.1962C106.7 43.6945 108.476 47.9127 106.968 51.5965H106.977Z" fill="#F4DAB9"/>
<path d="M106.681 51.482C105.24 55.0035 101.211 56.6927 97.6875 55.2517C94.1644 53.8106 92.4745 49.7832 93.9066 46.2616C95.3483 42.7401 99.3774 41.0509 102.9 42.4919C106.424 43.933 108.123 47.9604 106.681 51.482Z" fill="#F4D9B7"/>
<path d="M106.395 51.3579C105.02 54.7173 101.172 56.3301 97.8021 54.9559C94.4413 53.5816 92.8182 49.7356 94.1931 46.3667C95.5679 43.0074 99.4156 41.3945 102.776 42.7687C106.147 44.143 107.76 47.9891 106.385 51.3579H106.395Z" fill="#F4D8B5"/>
<path d="M106.109 51.2434C104.8 54.4501 101.134 55.9866 97.9262 54.6696C94.7277 53.3621 93.181 49.6974 94.489 46.4908C95.7971 43.2937 99.4634 41.7476 102.671 43.0551C105.879 44.3625 107.426 48.0273 106.109 51.2339V51.2434Z" fill="#F4D6B3"/>
<path d="M105.822 51.1193C104.581 54.1637 101.096 55.6239 98.0408 54.3832C94.9951 53.1426 93.5343 49.6592 94.7755 46.6148C96.0167 43.5704 99.5016 42.1102 102.547 43.3509C105.593 44.5916 107.063 48.075 105.822 51.1289V51.1193Z" fill="#F3D5B1"/>
<path d="M105.536 51.0048C104.352 53.8869 101.058 55.2708 98.1649 54.0969C95.2815 52.9135 93.8876 49.621 95.0715 46.7293C96.2458 43.8471 99.5493 42.4633 102.433 43.6372C105.326 44.811 106.71 48.1226 105.536 51.0048Z" fill="#F3D4AF"/>
<path d="M105.24 50.8903C104.123 53.6102 101.01 54.9272 98.2699 53.8106C95.5488 52.694 94.2313 49.5828 95.3483 46.8534C96.4559 44.1334 99.5875 42.8164 102.309 43.933C105.039 45.0496 106.347 48.1704 105.24 50.8903Z" fill="#F3D3AD"/>
<path d="M104.953 50.7662C103.903 53.3334 100.962 54.5646 98.394 53.5148C95.8257 52.465 94.594 49.5256 95.6443 46.9584C96.6945 44.3912 99.6352 43.16 102.194 44.2098C104.762 45.2596 106.003 48.199 104.953 50.7662Z" fill="#F2D2AC"/>
<path d="M104.667 50.6517C103.683 53.0567 100.924 54.2115 98.5181 53.2285C96.1121 52.2455 94.9569 49.4874 95.9403 47.0824C96.9237 44.6775 99.6829 43.5227 102.089 44.5057C104.504 45.4887 105.66 48.2467 104.676 50.6517H104.667Z" fill="#F2D1AA"/>
<path d="M104.38 50.5372C103.464 52.7799 100.886 53.8583 98.6327 52.9422C96.389 52.026 95.3006 49.4492 96.2172 47.197C97.1337 44.9542 99.7116 43.8758 101.955 44.792C104.209 45.7082 105.287 48.2849 104.371 50.5372H104.38Z" fill="#F2D0A8"/>
<path d="M104.084 50.4131C103.235 52.5031 100.838 53.5052 98.7473 52.6463C96.6659 51.7874 95.6539 49.4015 96.5036 47.3115C97.3534 45.231 99.7498 44.2194 101.841 45.0783C103.932 45.9276 104.944 48.3231 104.084 50.4131Z" fill="#F1CFA6"/>
<path d="M103.798 50.2986C103.006 52.2264 100.8 53.1521 98.8619 52.36C96.9332 51.5679 96.0071 49.3633 96.79 47.4355C97.5729 45.5077 99.788 44.582 101.717 45.3741C103.645 46.1567 104.581 48.3708 103.788 50.2986H103.798Z" fill="#F1CEA4"/>
<path d="M103.512 50.1841C102.786 51.9496 100.762 52.799 98.986 52.0832C97.2196 51.3579 96.3604 49.3347 97.086 47.5596C97.8116 45.794 99.8357 44.9447 101.602 45.6604C103.378 46.3857 104.228 48.4185 103.512 50.1841Z" fill="#F1CDA2"/>
<path d="M103.225 50.06C102.566 51.6728 100.724 52.4458 99.1101 51.7873C97.5061 51.1288 96.7232 49.2869 97.3819 47.6741C98.0407 46.0708 99.893 45.2882 101.497 45.9467C103.111 46.6052 103.893 48.4566 103.235 50.06H103.225Z" fill="#F1CCA0"/>
<path d="M102.929 49.9455C102.337 51.3961 100.676 52.0928 99.2151 51.5011C97.7639 50.9094 97.0669 49.2392 97.6588 47.7886C98.2508 46.338 99.9216 45.6413 101.363 46.233C102.815 46.8247 103.521 48.4948 102.929 49.9455Z" fill="#F0CB9E"/>
<path d="M102.643 49.8309C102.118 51.1193 100.638 51.7396 99.3392 51.2147C98.0503 50.6803 97.4202 49.2011 97.9548 47.9127C98.4799 46.6243 99.9694 46.004 101.258 46.5289C102.557 47.0537 103.177 48.5426 102.652 49.8309H102.643Z" fill="#F0CA9C"/>
</g>
<g opacity="0.3">
<path d="M87.7484 30.6389C83.1179 26.0866 78.6782 24.407 75.1456 23.7007C71.823 23.0422 69.3311 23.3953 69.0065 23.4526C64.8533 24.3115 60.7764 21.6679 59.879 17.5165C58.9719 13.346 61.6262 9.22315 65.808 8.32606C66.4668 8.19245 70.7441 7.32399 76.9405 8.32606C83.1083 9.2995 91.2524 12.3344 98.6327 19.6638C101.669 22.67 101.697 27.5658 98.69 30.6007C98.079 31.221 97.382 31.7173 96.6468 32.08C93.7634 33.521 90.164 33.0534 87.7484 30.658V30.6389Z" fill="white"/>
</g>
<path d="M49.1188 59.6799C48.5173 61.0255 44.1349 60.7011 40.2586 62.8006C36.2486 64.633 33.8808 68.3359 32.4391 68.0114C30.902 67.8873 31.4557 61.2068 37.8431 57.9811C44.2495 54.8031 49.9399 58.3724 49.1092 59.6799H49.1188Z" fill="url(#paint52_radial_1002_6890)"/>
<path d="M89.0374 39.7434C88.4359 41.0891 84.0535 40.7646 80.1772 42.8641C76.1672 44.6965 73.7994 48.3899 72.3577 48.0749C70.811 47.9509 71.3743 41.2704 77.7617 38.0447C84.1681 34.8667 89.8585 38.4359 89.0278 39.7434H89.0374Z" fill="url(#paint53_radial_1002_6890)"/>
<path d="M83.156 98.6652H83.1369C77.3033 101.595 71.0497 103.284 64.5764 103.704C58.3227 104.105 52.1263 103.294 46.1495 101.309C40.1727 99.3238 34.7305 96.2507 29.9663 92.1852C28.8206 91.2117 28.1236 89.847 28.009 88.3487C27.8944 86.8503 28.3623 85.3902 29.3361 84.2545C29.8326 83.6819 30.4246 83.2142 31.0929 82.8802C33.117 81.8686 35.5421 82.1645 37.2702 83.6342C40.9269 86.7549 45.1088 89.1122 49.7012 90.6391C54.284 92.1661 59.0388 92.7864 63.8507 92.481C68.8155 92.1661 73.6084 90.8682 78.1053 88.6254C82.6118 86.3732 86.5359 83.3097 89.763 79.5304C92.885 75.8753 95.2433 71.6952 96.7804 67.1047C98.3081 62.5143 98.9287 57.7616 98.6232 52.9612C98.4799 50.6994 99.6925 48.5902 101.726 47.5691C102.404 47.2351 103.13 47.0347 103.884 46.9869C106.977 46.7865 109.66 49.1533 109.861 52.2454C110.262 58.4965 109.46 64.6902 107.464 70.6645C105.469 76.6387 102.394 82.0786 98.3272 86.8408C94.1167 91.7748 89.0087 95.764 83.156 98.6844V98.6652Z" fill="url(#paint54_linear_1002_6890)"/>
<path d="M82.2108 96.8234C76.4918 99.6769 70.4481 101.252 64.4427 101.633C58.4182 102.015 52.4318 101.213 46.8083 99.3428C41.1752 97.4723 35.9049 94.5234 31.3125 90.6105C29.8135 89.3412 29.6417 87.0889 30.9211 85.6001C32.2004 84.1113 34.4441 83.93 35.9336 85.2089C39.8099 88.5205 44.2782 91.0113 49.0615 92.6051C53.8353 94.1989 58.9051 94.8765 63.994 94.5424C69.0828 94.218 74.1813 92.8914 79.041 90.4674H79.0506C83.9103 88.0337 88.0348 84.7508 91.3479 80.8665C94.6609 76.9919 97.1624 72.516 98.7568 67.7537C100.342 62.9819 101.02 57.9048 100.695 52.818C100.571 50.8616 102.06 49.1724 104.018 49.0484C105.975 48.9243 107.665 50.4131 107.789 52.3695C108.171 58.382 107.369 64.3657 105.497 69.9964C103.626 75.6271 100.676 80.9047 96.7518 85.4856C92.8373 90.0761 87.9489 93.9698 82.2299 96.8234H82.2203H82.2108Z" fill="url(#paint55_radial_1002_6890)"/>
<defs>
<radialGradient id="paint0_radial_1002_6890" cx="0" cy="0" r="1" gradientUnits="userSpaceOnUse" gradientTransform="translate(-54.6845 50.6226) rotate(-26.5702) scale(333.613 333.528)">
<stop stop-color="#EFD65F"/>
<stop offset="0.35" stop-color="#F5E363"/>
<stop offset="0.69" stop-color="#E2A348"/>
<stop offset="1" stop-color="#EED3A3"/>
</radialGradient>
<radialGradient id="paint1_radial_1002_6890" cx="0" cy="0" r="1" gradientUnits="userSpaceOnUse" gradientTransform="translate(-51.9901 47.1586) rotate(-26.5702) scale(329.384 329.3)">
<stop stop-color="#EFD65F"/>
<stop offset="0.35" stop-color="#F5E263"/>
<stop offset="0.69" stop-color="#E2A348"/>
<stop offset="0.7" stop-color="#E3A54D"/>
<stop offset="1" stop-color="#EED2A2"/>
</radialGradient>
<radialGradient id="paint2_radial_1002_6890" cx="0" cy="0" r="1" gradientUnits="userSpaceOnUse" gradientTransform="translate(-49.3138 43.8269) rotate(-26.5702) scale(325.259 325.176)">
<stop stop-color="#EFD65F"/>
<stop offset="0.35" stop-color="#F5E262"/>
<stop offset="0.69" stop-color="#E2A348"/>
<stop offset="0.7" stop-color="#E3A54D"/>
<stop offset="1" stop-color="#EED2A0"/>
</radialGradient>
<radialGradient id="paint3_radial_1002_6890" cx="0" cy="0" r="1" gradientUnits="userSpaceOnUse" gradientTransform="translate(-46.6321 40.6147) rotate(-26.5702) scale(321.212 321.13)">
<stop stop-color="#EFD660"/>
<stop offset="0.35" stop-color="#F4E162"/>
<stop offset="0.69" stop-color="#E2A348"/>
<stop offset="0.7" stop-color="#E3A54C"/>
<stop offset="1" stop-color="#EED19F"/>
</radialGradient>
<radialGradient id="paint4_radial_1002_6890" cx="0" cy="0" r="1" gradientUnits="userSpaceOnUse" gradientTransform="translate(-43.9548 37.5316) rotate(-26.5702) scale(317.24 317.159)">
<stop stop-color="#EFD660"/>
<stop offset="0.35" stop-color="#F4E062"/>
<stop offset="0.69" stop-color="#E2A448"/>
<stop offset="0.7" stop-color="#E3A54C"/>
<stop offset="1" stop-color="#EDD19E"/>
</radialGradient>
<radialGradient id="paint5_radial_1002_6890" cx="0" cy="0" r="1" gradientUnits="userSpaceOnUse" gradientTransform="translate(-41.2943 34.5756) rotate(-26.5702) scale(313.345 313.265)">
<stop stop-color="#EFD660"/>
<stop offset="0.35" stop-color="#F4E062"/>
<stop offset="0.69" stop-color="#E2A447"/>
<stop offset="0.7" stop-color="#E3A54C"/>
<stop offset="1" stop-color="#EDD09C"/>
</radialGradient>
<radialGradient id="paint6_radial_1002_6890" cx="0" cy="0" r="1" gradientUnits="userSpaceOnUse" gradientTransform="translate(-38.6254 31.7432) rotate(-26.5703) scale(309.507 309.428)">
<stop stop-color="#EFD660"/>
<stop offset="0.35" stop-color="#F4DF61"/>
<stop offset="0.69" stop-color="#E2A447"/>
<stop offset="0.7" stop-color="#E3A54C"/>
<stop offset="1" stop-color="#EDCF9B"/>
</radialGradient>
<radialGradient id="paint7_radial_1002_6890" cx="0" cy="0" r="1" gradientUnits="userSpaceOnUse" gradientTransform="translate(-36.0342 28.9424) rotate(-26.5702) scale(305.736 305.658)">
<stop stop-color="#EFD660"/>
<stop offset="0.35" stop-color="#F3DE61"/>
<stop offset="0.69" stop-color="#E2A447"/>
<stop offset="0.7" stop-color="#E3A64B"/>
<stop offset="1" stop-color="#EDCF9A"/>
</radialGradient>
<radialGradient id="paint8_radial_1002_6890" cx="0" cy="0" r="1" gradientUnits="userSpaceOnUse" gradientTransform="translate(-33.3909 26.3576) rotate(-26.5702) scale(302.013 301.936)">
<stop stop-color="#EFD660"/>
<stop offset="0.35" stop-color="#F3DE61"/>
<stop offset="0.69" stop-color="#E2A447"/>
<stop offset="0.7" stop-color="#E3A64B"/>
<stop offset="1" stop-color="#EDCE98"/>
</radialGradient>
<radialGradient id="paint9_radial_1002_6890" cx="0" cy="0" r="1" gradientUnits="userSpaceOnUse" gradientTransform="translate(-30.7389 23.8966) rotate(-26.5702) scale(298.318 298.242)">
<stop stop-color="#EFD761"/>
<stop offset="0.35" stop-color="#F3DD61"/>
<stop offset="0.69" stop-color="#E2A447"/>
<stop offset="0.7" stop-color="#E3A64B"/>
<stop offset="1" stop-color="#EDCE97"/>
</radialGradient>
<radialGradient id="paint10_radial_1002_6890" cx="0" cy="0" r="1" gradientUnits="userSpaceOnUse" gradientTransform="translate(-28.1082 21.5637) rotate(-26.5702) scale(294.671 294.596)">
<stop stop-color="#EFD761"/>
<stop offset="0.35" stop-color="#F3DC60"/>
<stop offset="0.69" stop-color="#E2A447"/>
<stop offset="0.7" stop-color="#E3A64B"/>
<stop offset="1" stop-color="#ECCD95"/>
</radialGradient>
<radialGradient id="paint11_radial_1002_6890" cx="0" cy="0" r="1" gradientUnits="userSpaceOnUse" gradientTransform="translate(-25.4776 19.3683) rotate(-26.5702) scale(291.044 290.969)">
<stop stop-color="#EFD761"/>
<stop offset="0.35" stop-color="#F2DC60"/>
<stop offset="0.69" stop-color="#E2A547"/>
<stop offset="0.7" stop-color="#E3A64A"/>
<stop offset="1" stop-color="#ECCD94"/>
</radialGradient>
<radialGradient id="paint12_radial_1002_6890" cx="0" cy="0" r="1" gradientUnits="userSpaceOnUse" gradientTransform="translate(-22.8511 17.2829) rotate(-26.5702) scale(287.445 287.371)">
<stop stop-color="#EFD761"/>
<stop offset="0.35" stop-color="#F2DB60"/>
<stop offset="0.69" stop-color="#E2A547"/>
<stop offset="0.7" stop-color="#E3A64A"/>
<stop offset="1" stop-color="#ECCC93"/>
</radialGradient>
<radialGradient id="paint13_radial_1002_6890" cx="0" cy="0" r="1" gradientUnits="userSpaceOnUse" gradientTransform="translate(-20.2428 15.3298) rotate(-26.5702) scale(283.855 283.782)">
<stop stop-color="#EFD761"/>
<stop offset="0.35" stop-color="#F2DA5F"/>
<stop offset="0.69" stop-color="#E2A546"/>
<stop offset="0.7" stop-color="#E3A64A"/>
<stop offset="1" stop-color="#ECCB91"/>
</radialGradient>
<radialGradient id="paint14_radial_1002_6890" cx="0" cy="0" r="1" gradientUnits="userSpaceOnUse" gradientTransform="translate(-17.629 13.4961) rotate(-26.5703) scale(280.284 280.213)">
<stop stop-color="#EFD761"/>
<stop offset="0.35" stop-color="#F2DA5F"/>
<stop offset="0.69" stop-color="#E2A546"/>
<stop offset="0.7" stop-color="#E3A64A"/>
<stop offset="1" stop-color="#ECCB90"/>
</radialGradient>
<radialGradient id="paint15_radial_1002_6890" cx="0" cy="0" r="1" gradientUnits="userSpaceOnUse" gradientTransform="translate(-15.0238 11.8045) rotate(-26.5702) scale(276.704 276.634)">
<stop stop-color="#EFD762"/>
<stop offset="0.35" stop-color="#F1D95F"/>
<stop offset="0.69" stop-color="#E2A546"/>
<stop offset="0.7" stop-color="#E3A649"/>
<stop offset="1" stop-color="#ECCA8F"/>
</radialGradient>
<radialGradient id="paint16_radial_1002_6890" cx="0" cy="0" r="1" gradientUnits="userSpaceOnUse" gradientTransform="translate(-12.4229 10.2226) rotate(-26.5702) scale(273.134 273.064)">
<stop stop-color="#EFD762"/>
<stop offset="0.35" stop-color="#F1D85F"/>
<stop offset="0.69" stop-color="#E2A546"/>
<stop offset="0.7" stop-color="#E3A649"/>
<stop offset="1" stop-color="#EBCA8D"/>
</radialGradient>
<radialGradient id="paint17_radial_1002_6890" cx="0" cy="0" r="1" gradientUnits="userSpaceOnUse" gradientTransform="translate(-9.8347 8.7646) rotate(-26.5702) scale(269.544 269.476)">
<stop stop-color="#EFD762"/>
<stop offset="0.35" stop-color="#F1D85E"/>
<stop offset="0.69" stop-color="#E2A546"/>
<stop offset="0.7" stop-color="#E3A649"/>
<stop offset="1" stop-color="#EBC98C"/>
</radialGradient>
<radialGradient id="paint18_radial_1002_6890" cx="0" cy="0" r="1" gradientUnits="userSpaceOnUse" gradientTransform="translate(-7.25598 7.43468) rotate(-26.5702) scale(265.945 265.877)">
<stop stop-color="#EFD762"/>
<stop offset="0.35" stop-color="#F1D75E"/>
<stop offset="0.69" stop-color="#E2A546"/>
<stop offset="0.7" stop-color="#E3A649"/>
<stop offset="1" stop-color="#EBC88B"/>
</radialGradient>
<radialGradient id="paint19_radial_1002_6890" cx="0" cy="0" r="1" gradientUnits="userSpaceOnUse" gradientTransform="translate(-4.66777 6.24232) rotate(-26.5703) scale(262.327 262.26)">
<stop stop-color="#EFD762"/>
<stop offset="0.35" stop-color="#F1D65E"/>
<stop offset="0.69" stop-color="#E2A646"/>
<stop offset="0.7" stop-color="#E3A649"/>
<stop offset="1" stop-color="#EBC889"/>
</radialGradient>
<radialGradient id="paint20_radial_1002_6890" cx="0" cy="0" r="1" gradientUnits="userSpaceOnUse" gradientTransform="translate(-2.10512 5.15988) rotate(-26.5703) scale(258.67 258.605)">
<stop stop-color="#EFD763"/>
<stop offset="0.35" stop-color="#F0D65E"/>
<stop offset="0.69" stop-color="#E2A646"/>
<stop offset="0.7" stop-color="#E3A748"/>
<stop offset="1" stop-color="#EBC788"/>
</radialGradient>
<radialGradient id="paint21_radial_1002_6890" cx="0" cy="0" r="1" gradientUnits="userSpaceOnUse" gradientTransform="translate(0.47039 4.20977) rotate(-26.5702) scale(254.995 254.93)">
<stop stop-color="#EFD763"/>
<stop offset="0.35" stop-color="#F0D55D"/>
<stop offset="0.69" stop-color="#E2A646"/>
<stop offset="0.7" stop-color="#E3A748"/>
<stop offset="1" stop-color="#EBC787"/>
</radialGradient>
<radialGradient id="paint22_radial_1002_6890" cx="0" cy="0" r="1" gradientUnits="userSpaceOnUse" gradientTransform="translate(3.02888 3.37491) rotate(-26.5702) scale(251.272 251.208)">
<stop stop-color="#EFD763"/>
<stop offset="0.35" stop-color="#F0D45D"/>
<stop offset="0.69" stop-color="#E2A645"/>
<stop offset="0.7" stop-color="#E3A748"/>
<stop offset="1" stop-color="#EBC685"/>
</radialGradient>
<radialGradient id="paint23_radial_1002_6890" cx="0" cy="0" r="1" gradientUnits="userSpaceOnUse" gradientTransform="translate(5.57881 2.68188) rotate(-26.5702) scale(247.51 247.447)">
<stop stop-color="#EFD763"/>
<stop offset="0.35" stop-color="#F0D45D"/>
<stop offset="0.69" stop-color="#E2A645"/>
<stop offset="0.7" stop-color="#E3A748"/>
<stop offset="1" stop-color="#EAC584"/>
</radialGradient>
<radialGradient id="paint24_radial_1002_6890" cx="0" cy="0" r="1" gradientUnits="userSpaceOnUse" gradientTransform="translate(8.20046 2.11512) rotate(-26.5603) scale(243.711 243.648)">
<stop stop-color="#EFD763"/>
<stop offset="0.35" stop-color="#EFD35C"/>
<stop offset="0.69" stop-color="#E2A645"/>
<stop offset="0.7" stop-color="#E3A747"/>
<stop offset="1" stop-color="#EAC583"/>
</radialGradient>
<radialGradient id="paint25_radial_1002_6890" cx="0" cy="0" r="1" gradientUnits="userSpaceOnUse" gradientTransform="translate(10.7425 1.66004) rotate(-26.5602) scale(239.854 239.793)">
<stop stop-color="#EFD763"/>
<stop offset="0.35" stop-color="#EFD25C"/>
<stop offset="0.69" stop-color="#E2A645"/>
<stop offset="0.7" stop-color="#E3A747"/>
<stop offset="1" stop-color="#EAC481"/>
</radialGradient>
<radialGradient id="paint26_radial_1002_6890" cx="0" cy="0" r="1" gradientUnits="userSpaceOnUse" gradientTransform="translate(13.276 1.34686) rotate(-26.5602) scale(235.93 235.87)">
<stop stop-color="#EFD864"/>
<stop offset="0.35" stop-color="#EFD25C"/>
<stop offset="0.69" stop-color="#E3A745"/>
<stop offset="0.7" stop-color="#E3A747"/>
<stop offset="1" stop-color="#EAC480"/>
</radialGradient>
<radialGradient id="paint27_radial_1002_6890" cx="0" cy="0" r="1" gradientUnits="userSpaceOnUse" gradientTransform="translate(15.8053 1.1436) rotate(-26.5602) scale(231.959 231.899)">
<stop stop-color="#EFD864"/>
<stop offset="0.35" stop-color="#EFD15C"/>
<stop offset="0.69" stop-color="#E3A745"/>
<stop offset="0.7" stop-color="#E3A747"/>
<stop offset="1" stop-color="#EAC37E"/>
</radialGradient>
<radialGradient id="paint28_radial_1002_6890" cx="0" cy="0" r="1" gradientUnits="userSpaceOnUse" gradientTransform="translate(18.3218 1.06415) rotate(-26.5602) scale(227.911 227.853)">
<stop stop-color="#EFD864"/>
<stop offset="0.35" stop-color="#EED05B"/>
<stop offset="0.69" stop-color="#E3A745"/>
<stop offset="0.7" stop-color="#E3A746"/>
<stop offset="1" stop-color="#EAC37D"/>
</radialGradient>
<radialGradient id="paint29_radial_1002_6890" cx="0" cy="0" r="1" gradientUnits="userSpaceOnUse" gradientTransform="translate(20.8202 1.11698) rotate(-26.5602) scale(223.796 223.739)">
<stop stop-color="#EFD864"/>
<stop offset="0.35" stop-color="#EED05B"/>
<stop offset="0.69" stop-color="#E3A745"/>
<stop offset="0.7" stop-color="#E3A746"/>
<stop offset="1" stop-color="#E9C27C"/>
</radialGradient>
<radialGradient id="paint30_radial_1002_6890" cx="0" cy="0" r="1" gradientUnits="userSpaceOnUse" gradientTransform="translate(23.3367 1.30315) rotate(-26.5602) scale(219.605 219.549)">
<stop stop-color="#EFD864"/>
<stop offset="0.35" stop-color="#EECF5B"/>
<stop offset="0.69" stop-color="#E3A744"/>
<stop offset="0.7" stop-color="#E3A746"/>
<stop offset="1" stop-color="#E9C17A"/>
</radialGradient>
<radialGradient id="paint31_radial_1002_6890" cx="0" cy="0" r="1" gradientUnits="userSpaceOnUse" gradientTransform="translate(25.8276 1.59923) rotate(-26.5603) scale(215.328 215.273)">
<stop stop-color="#EFD864"/>
<stop offset="0.35" stop-color="#EECE5A"/>
<stop offset="0.69" stop-color="#E3A744"/>
<stop offset="0.7" stop-color="#E3A746"/>
<stop offset="1" stop-color="#E9C179"/>
</radialGradient>
<radialGradient id="paint32_radial_1002_6890" cx="0" cy="0" r="1" gradientUnits="userSpaceOnUse" gradientTransform="translate(28.3313 2.02767) rotate(-26.5602) scale(210.975 210.921)">
<stop stop-color="#EFD865"/>
<stop offset="0.35" stop-color="#EDCE5A"/>
<stop offset="0.69" stop-color="#E3A744"/>
<stop offset="0.7" stop-color="#E3A845"/>
<stop offset="1" stop-color="#E9C078"/>
</radialGradient>
<radialGradient id="paint33_radial_1002_6890" cx="0" cy="0" r="1" gradientUnits="userSpaceOnUse" gradientTransform="translate(30.8095 2.57567) rotate(-26.5602) scale(206.545 206.492)">
<stop stop-color="#EFD865"/>
<stop offset="0.35" stop-color="#EDCD5A"/>
<stop offset="0.69" stop-color="#E3A844"/>
<stop offset="0.7" stop-color="#E3A845"/>
<stop offset="1" stop-color="#E9C076"/>
</radialGradient>
<radialGradient id="paint34_radial_1002_6890" cx="0" cy="0" r="1" gradientUnits="userSpaceOnUse" gradientTransform="translate(33.2961 3.25685) rotate(-26.5602) scale(202.02 201.968)">
<stop stop-color="#EFD865"/>
<stop offset="0.35" stop-color="#EDCC5A"/>
<stop offset="0.69" stop-color="#E3A844"/>
<stop offset="0.7" stop-color="#E3A845"/>
<stop offset="1" stop-color="#E9BF75"/>
</radialGradient>
<radialGradient id="paint35_radial_1002_6890" cx="0" cy="0" r="1" gradientUnits="userSpaceOnUse" gradientTransform="translate(35.7647 4.0609) rotate(-26.5602) scale(197.399 197.349)">
<stop stop-color="#EFD865"/>
<stop offset="0.35" stop-color="#EDCC59"/>
<stop offset="0.69" stop-color="#E3A844"/>
<stop offset="0.7" stop-color="#E3A845"/>
<stop offset="1" stop-color="#E9BE74"/>
</radialGradient>
<radialGradient id="paint36_radial_1002_6890" cx="0" cy="0" r="1" gradientUnits="userSpaceOnUse" gradientTransform="translate(38.2301 4.98862) rotate(-26.5603) scale(192.683 192.634)">
<stop stop-color="#EFD865"/>
<stop offset="0.35" stop-color="#EDCB59"/>
<stop offset="0.69" stop-color="#E3A844"/>
<stop offset="0.7" stop-color="#E3A845"/>
<stop offset="1" stop-color="#E8BE72"/>
</radialGradient>
<radialGradient id="paint37_radial_1002_6890" cx="0" cy="0" r="1" gradientUnits="userSpaceOnUse" gradientTransform="translate(40.6911 6.03594) rotate(-26.5602) scale(187.862 187.814)">
<stop stop-color="#EFD866"/>
<stop offset="0.35" stop-color="#ECCA59"/>
<stop offset="0.69" stop-color="#E3A844"/>
<stop offset="0.7" stop-color="#E3A844"/>
<stop offset="1" stop-color="#E8BD71"/>
</radialGradient>
<radialGradient id="paint38_radial_1002_6890" cx="0" cy="0" r="1" gradientUnits="userSpaceOnUse" gradientTransform="translate(43.1437 7.22508) rotate(-26.5602) scale(182.945 182.899)">
<stop stop-color="#EFD866"/>
<stop offset="0.35" stop-color="#ECCA59"/>
<stop offset="0.69" stop-color="#E3A844"/>
<stop offset="0.7" stop-color="#E3A844"/>
<stop offset="1" stop-color="#E8BD70"/>
</radialGradient>
<radialGradient id="paint39_radial_1002_6890" cx="0" cy="0" r="1" gradientUnits="userSpaceOnUse" gradientTransform="translate(45.592 8.52418) rotate(-26.5602) scale(177.924 177.878)">
<stop stop-color="#EFD866"/>
<stop offset="0.35" stop-color="#ECC958"/>
<stop offset="0.69" stop-color="#E3A843"/>
<stop offset="0.7" stop-color="#E3A844"/>
<stop offset="1" stop-color="#E8BC6E"/>
</radialGradient>
<radialGradient id="paint40_radial_1002_6890" cx="0" cy="0" r="1" gradientUnits="userSpaceOnUse" gradientTransform="translate(48.0351 9.89325) rotate(-26.5602) scale(172.807 172.763)">
<stop stop-color="#EFD866"/>
<stop offset="0.35" stop-color="#ECC858"/>
<stop offset="0.69" stop-color="#E3A843"/>
<stop offset="0.7" stop-color="#E3A844"/>
<stop offset="1" stop-color="#E8BB6D"/>
</radialGradient>
<radialGradient id="paint41_radial_1002_6890" cx="0" cy="0" r="1" gradientUnits="userSpaceOnUse" gradientTransform="translate(50.4749 11.4527) rotate(-26.5603) scale(167.565 167.523)">
<stop stop-color="#EFD866"/>
<stop offset="0.35" stop-color="#EBC858"/>
<stop offset="0.69" stop-color="#E3A943"/>
<stop offset="0.7" stop-color="#E3A843"/>
<stop offset="1" stop-color="#E8BB6C"/>
</radialGradient>
<radialGradient id="paint42_radial_1002_6890" cx="0" cy="0" r="1" gradientUnits="userSpaceOnUse" gradientTransform="translate(52.9019 13.136) rotate(-26.5603) scale(162.21 162.168)">
<stop stop-color="#EFD866"/>
<stop offset="0.35" stop-color="#EBC757"/>
<stop offset="0.69" stop-color="#E3A943"/>
<stop offset="0.7" stop-color="#E3A843"/>
<stop offset="1" stop-color="#E7BA6A"/>
</radialGradient>
<radialGradient id="paint43_radial_1002_6890" cx="0" cy="0" r="1" gradientUnits="userSpaceOnUse" gradientTransform="translate(55.3332 14.9344) rotate(-26.5602) scale(156.749 156.709)">
<stop stop-color="#EFD967"/>
<stop offset="0.35" stop-color="#EBC657"/>
<stop offset="0.69" stop-color="#E3A943"/>
<stop offset="0.7" stop-color="#E3A843"/>
<stop offset="1" stop-color="#E7BA69"/>
</radialGradient>
<radialGradient id="paint44_radial_1002_6890" cx="0" cy="0" r="1" gradientUnits="userSpaceOnUse" gradientTransform="translate(57.7473 16.879) rotate(-26.5602) scale(151.164 151.125)">
<stop stop-color="#EFD967"/>
<stop offset="0.35" stop-color="#EBC657"/>
<stop offset="0.69" stop-color="#E3A943"/>
<stop offset="0.7" stop-color="#E3A843"/>
<stop offset="1" stop-color="#E7B967"/>
</radialGradient>
<radialGradient id="paint45_radial_1002_6890" cx="0" cy="0" r="1" gradientUnits="userSpaceOnUse" gradientTransform="translate(60.1572 18.9335) rotate(-26.5602) scale(145.455 145.418)">
<stop stop-color="#EFD967"/>
<stop offset="0.35" stop-color="#EAC557"/>
<stop offset="0.69" stop-color="#E3A943"/>
<stop offset="0.7" stop-color="#E3A942"/>
<stop offset="1" stop-color="#E7B966"/>
</radialGradient>
<radialGradient id="paint46_radial_1002_6890" cx="0" cy="0" r="1" gradientUnits="userSpaceOnUse" gradientTransform="translate(62.5534 21.1076) rotate(-26.5603) scale(139.622 139.586)">
<stop stop-color="#EFD967"/>
<stop offset="0.35" stop-color="#EAC456"/>
<stop offset="0.69" stop-color="#E3A943"/>
<stop offset="0.7" stop-color="#E3A942"/>
<stop offset="1" stop-color="#E7B865"/>
</radialGradient>
<radialGradient id="paint47_radial_1002_6890" cx="0" cy="0" r="1" gradientUnits="userSpaceOnUse" gradientTransform="translate(64.9505 23.4139) rotate(-26.5602) scale(133.674 133.64)">
<stop stop-color="#EFD967"/>
<stop offset="0.35" stop-color="#EAC456"/>
<stop offset="0.69" stop-color="#E3A942"/>
<stop offset="0.7" stop-color="#E3A942"/>
<stop offset="1" stop-color="#E7B763"/>
</radialGradient>
<radialGradient id="paint48_radial_1002_6890" cx="0" cy="0" r="1" gradientUnits="userSpaceOnUse" gradientTransform="translate(67.3476 25.8578) rotate(-26.5603) scale(127.593 127.56)">
<stop stop-color="#EFD967"/>
<stop offset="0.35" stop-color="#EAC356"/>
<stop offset="0.69" stop-color="#E3AA42"/>
<stop offset="0.7" stop-color="#E3A942"/>
<stop offset="1" stop-color="#E6B762"/>
</radialGradient>
<radialGradient id="paint49_radial_1002_6890" cx="0" cy="0" r="1" gradientUnits="userSpaceOnUse" gradientTransform="translate(69.732 28.4161) rotate(-26.5603) scale(121.387 121.357)">
<stop stop-color="#EFD968"/>
<stop offset="0.35" stop-color="#E9C256"/>
<stop offset="0.69" stop-color="#E3AA42"/>
<stop offset="0.7" stop-color="#E3A941"/>
<stop offset="1" stop-color="#E6B661"/>
</radialGradient>
<radialGradient id="paint50_radial_1002_6890" cx="0" cy="0" r="1" gradientUnits="userSpaceOnUse" gradientTransform="translate(72.1121 31.0937) rotate(-26.5602) scale(115.048 115.019)">
<stop stop-color="#EFD968"/>
<stop offset="0.35" stop-color="#E9C255"/>
<stop offset="0.69" stop-color="#E3AA42"/>
<stop offset="0.7" stop-color="#E3A941"/>
<stop offset="1" stop-color="#E6B65F"/>
</radialGradient>
<radialGradient id="paint51_radial_1002_6890" cx="0" cy="0" r="1" gradientUnits="userSpaceOnUse" gradientTransform="translate(74.4836 33.9037) rotate(-26.5602) scale(108.585 108.558)">
<stop stop-color="#EFD968"/>
<stop offset="0.7" stop-color="#E3A941"/>
<stop offset="1" stop-color="#E6B55E"/>
</radialGradient>
<radialGradient id="paint52_radial_1002_6890" cx="0" cy="0" r="1" gradientUnits="userSpaceOnUse" gradientTransform="translate(39.3923 60.9744) rotate(-26.5603) scale(7.19828 7.19645)">
<stop stop-color="#743824"/>
<stop offset="0.56" stop-color="#4A281F"/>
<stop offset="1" stop-color="#2F281F"/>
</radialGradient>
<radialGradient id="paint53_radial_1002_6890" cx="0" cy="0" r="1" gradientUnits="userSpaceOnUse" gradientTransform="translate(79.3049 41.0223) rotate(-26.5603) scale(7.19828 7.19645)">
<stop stop-color="#743824"/>
<stop offset="0.56" stop-color="#4A281F"/>
<stop offset="1" stop-color="#2F281F"/>
</radialGradient>
<linearGradient id="paint54_linear_1002_6890" x1="82.952" y1="98.1962" x2="70.4563" y2="73.1996" gradientUnits="userSpaceOnUse">
<stop stop-color="#F0D952"/>
<stop offset="0.81" stop-color="#E2A62F"/>
<stop offset="1" stop-color="#E1A12B"/>
</linearGradient>
<radialGradient id="paint55_radial_1002_6890" cx="0" cy="0" r="1" gradientUnits="userSpaceOnUse" gradientTransform="translate(74.7538 81.9392) rotate(-26.5603) scale(32.6309 32.6226)">
<stop stop-color="#723824"/>
<stop offset="0.56" stop-color="#4A281F"/>
<stop offset="1" stop-color="#2F281F"/>
</radialGradient>
</defs>
</svg>
