<svg width="97" height="96" viewBox="0 0 97 96" fill="none" xmlns="http://www.w3.org/2000/svg">
<path d="M89.0364 73.3779C75.0492 95.8243 45.5088 102.677 23.0529 88.6857C0.60643 74.7044 -6.25829 45.1767 7.72896 22.7398C21.7258 0.293406 51.266 -6.55886 73.7125 7.42243C96.1684 21.4037 103.024 50.941 89.0364 73.3779Z" fill="url(#paint0_radial_1002_7059)"/>
<path d="M88.4445 73.5592C74.6673 95.6621 45.5757 102.409 23.473 88.6381C1.37027 74.8667 -5.38943 45.7971 8.38777 23.6942C22.165 1.59137 51.2565 -5.15593 73.3593 8.61541C95.4715 22.3868 102.222 51.4659 88.4445 73.5592Z" fill="url(#paint1_radial_1002_7059)"/>
<path d="M87.8526 73.731C74.2949 95.4903 45.6521 102.133 23.8836 88.5712C2.12456 75.0194 -4.53018 46.3888 9.02742 24.639C22.5946 2.87973 51.2279 -3.76259 72.9964 9.78925C94.765 23.3506 101.41 51.9717 87.8526 73.731Z" fill="url(#paint2_radial_1002_7059)"/>
<path d="M87.251 73.9028C73.9034 95.3185 45.7189 101.856 24.2941 88.514C2.87877 75.1721 -3.67089 46.9995 9.67667 25.5933C23.0242 4.17763 51.2088 -2.35971 72.6336 10.9822C94.0585 24.324 100.599 52.4966 87.251 73.9123V73.9028Z" fill="url(#paint3_radial_1002_7059)"/>
<path d="M86.6591 74.0746C73.5216 95.1467 45.7858 101.579 24.7142 88.4472C3.6426 75.3248 -2.80204 47.6008 10.3259 26.5286C23.4634 5.45646 51.1992 -0.975897 72.2708 12.1465C93.3519 25.2784 99.7966 53.0024 86.6591 74.065V74.0746Z" fill="url(#paint4_radial_1002_7059)"/>
<path d="M86.0671 74.2559C73.1492 94.9845 45.8622 101.312 25.1247 88.3994C4.38734 75.487 -1.94273 48.2116 10.9752 27.4925C23.9026 6.76393 51.1802 0.436565 71.9176 13.349C92.655 26.2614 98.9946 53.5369 86.0671 74.2654V74.2559Z" fill="url(#paint5_radial_1002_7059)"/>
<path d="M85.4751 74.4277C72.7672 94.8127 45.9385 101.035 25.5448 88.3327C5.15111 75.6302 -1.07395 48.8129 11.6244 28.4374C24.3322 8.05236 51.161 1.82996 71.5547 14.5229C91.9484 27.2253 98.183 54.0427 85.4751 74.4277Z" fill="url(#paint6_radial_1002_7059)"/>
<path d="M84.8736 74.5995C72.3853 94.641 46.0053 100.758 25.9553 88.2754C5.90536 75.7925 -0.214671 49.4236 12.2736 29.3822C24.7714 9.34072 51.1419 3.22332 71.1919 15.7063C91.2419 28.1988 97.3714 54.5676 84.8736 74.5995Z" fill="url(#paint7_radial_1002_7059)"/>
<path d="M84.2817 74.7713C72.0035 94.4692 46.0722 100.482 26.3659 88.2086C6.65968 75.9356 0.64467 50.0249 12.9229 30.327C25.2011 10.6291 51.1325 4.61666 70.8292 16.8801C90.5354 29.1531 96.56 55.0734 84.2817 74.7713Z" fill="url(#paint8_radial_1002_7059)"/>
<path d="M83.6897 74.9526C71.6216 94.3069 46.1486 100.214 26.786 88.1513C7.42345 76.0978 1.51345 50.6261 13.5721 31.2813C25.6403 11.927 51.1133 6.01001 70.4759 18.0731C89.8384 30.1361 95.7579 55.5983 83.6897 74.9526Z" fill="url(#paint9_radial_1002_7059)"/>
<path d="M83.0978 75.1244C71.2492 94.1351 46.2249 99.9376 27.2061 88.094C8.18725 76.2505 2.37273 51.2369 14.2309 32.2261C26.0794 13.2154 51.1038 7.40335 70.1226 19.2469C89.1414 31.0904 94.9559 56.1041 83.1073 75.1148L83.0978 75.1244Z" fill="url(#paint10_radial_1002_7059)"/>
<path d="M82.4963 75.2961C70.8578 93.9633 46.2822 99.6608 27.6071 88.0272C8.93199 76.3936 3.22255 51.8381 14.8611 33.1709C26.4996 14.5037 51.0752 8.7967 69.7503 20.4303C88.4254 32.0639 94.1348 56.629 82.4963 75.2961Z" fill="url(#paint11_radial_1002_7059)"/>
<path d="M81.9043 75.4775C70.4854 93.8011 46.3586 99.3936 28.0272 87.9795C9.69577 76.5654 4.09135 52.4489 15.5198 34.1348C26.9483 15.8112 51.0656 10.2092 69.397 21.6328C87.7284 33.0564 93.3328 57.1634 81.9043 75.487V75.4775Z" fill="url(#paint12_radial_1002_7059)"/>
<path d="M81.3123 75.6493C70.1035 93.6293 46.4349 99.1169 28.4472 87.9127C10.4595 76.7086 4.96013 53.0502 16.169 35.0701C27.3779 17.0901 51.0464 11.593 69.0341 22.7971C87.0218 34.0012 92.5212 57.6597 81.3123 75.6397V75.6493Z" fill="url(#paint13_radial_1002_7059)"/>
<path d="M80.7109 75.821C69.712 93.4575 46.5018 98.8496 28.8483 87.8554C11.2043 76.8613 5.80989 53.6609 16.8087 36.0244C27.8076 18.388 51.0178 12.9959 68.6618 23.99C86.3058 34.9842 91.7002 58.1941 80.7013 75.8306L80.7109 75.821Z" fill="url(#paint14_radial_1002_7059)"/>
<path d="M80.119 75.9929C69.3397 93.2858 46.5686 98.5729 29.2684 87.7887C11.9681 77.014 6.67873 54.2622 17.458 36.9693C28.2372 19.6764 51.0083 14.3892 68.3086 25.1639C85.6088 35.9386 90.8982 58.7 80.119 75.9929Z" fill="url(#paint15_radial_1002_7059)"/>
<path d="M79.527 76.1742C68.9578 93.1235 46.645 98.3056 29.6884 87.7409C12.7319 77.1762 7.54753 54.873 18.1167 37.9236C28.6859 20.9743 50.9987 15.7921 67.9553 26.3568C84.9118 36.9215 90.0962 59.2248 79.527 76.1742Z" fill="url(#paint16_radial_1002_7059)"/>
<path d="M78.935 76.3459C68.5854 92.9517 46.7214 98.0288 30.099 87.6741C13.4861 77.3289 8.40679 55.4742 18.7564 38.8684C29.106 22.2626 50.9701 17.1855 67.5829 27.5307C84.1957 37.8759 89.2751 59.7306 78.9255 76.3459H78.935Z" fill="url(#paint17_radial_1002_7059)"/>
<path d="M78.3335 76.5177C68.194 92.7799 46.7882 97.7521 30.5095 87.6168C14.2404 77.4816 9.26615 56.085 19.4057 39.8132C29.5453 23.551 50.9605 18.5788 67.2297 28.7141C83.4988 38.8493 88.4731 60.2555 78.3335 76.5177Z" fill="url(#paint18_radial_1002_7059)"/>
<path d="M77.7415 76.6895C67.812 92.6081 46.855 97.4754 30.9296 87.5501C15.0042 77.6248 10.1349 56.6767 20.0549 40.7581C29.9844 24.8394 50.9414 19.9722 66.8668 29.888C82.8018 39.8133 87.6615 60.7613 77.7415 76.68V76.6895Z" fill="url(#paint19_radial_1002_7059)"/>
<path d="M77.1496 76.8708C67.4397 92.4459 46.9315 97.2082 31.3402 87.5024C15.7585 77.7966 10.9943 57.297 20.7042 41.722C30.4141 26.1469 50.9223 21.3847 66.504 31.0905C82.0953 40.7963 86.85 61.2958 77.1401 76.8804L77.1496 76.8708Z" fill="url(#paint20_radial_1002_7059)"/>
<path d="M76.5577 77.0427C67.0578 92.2742 47.0078 96.9314 31.7603 87.4356C16.5223 77.9397 11.8631 57.8983 21.3629 42.6572C30.8628 27.4257 50.9128 22.7685 66.1603 32.2548C81.4078 41.7506 86.0575 61.7921 76.5672 77.0331L76.5577 77.0427Z" fill="url(#paint21_radial_1002_7059)"/>
<path d="M75.9561 77.2144C66.6759 92.1024 47.0651 96.6546 32.1708 87.3783C17.2766 78.102 12.7223 58.5091 22.0026 43.6116C31.2829 28.7141 50.8936 24.1714 65.7879 33.4477C80.6917 42.7241 85.2364 62.3265 75.9561 77.2144Z" fill="url(#paint22_radial_1002_7059)"/>
<path d="M75.3643 77.3862C66.294 91.9401 47.1415 96.3779 32.591 87.3115C18.0309 78.2451 13.5912 59.1008 22.6614 44.5564C31.7317 30.0025 50.8842 25.5647 65.4347 34.6216C79.9948 43.6879 84.4441 62.8323 75.3738 77.3862H75.3643Z" fill="url(#paint23_radial_1002_7059)"/>
<path d="M74.7723 77.5675C65.9121 91.7779 47.2179 96.1106 33.0015 87.2638C18.7851 78.4169 14.4505 59.7211 23.3011 45.5108C32.1613 31.3004 50.8555 26.9581 65.0719 35.8145C79.2883 44.6709 83.6325 63.3572 74.7723 77.5675Z" fill="url(#paint24_radial_1002_7059)"/>
<path d="M74.1804 77.7393C65.5398 91.6061 47.2943 95.8339 33.4216 87.197C19.549 78.5601 15.3193 60.3223 23.9599 46.4556C32.6005 32.5888 50.8555 28.3515 64.7187 36.9979C78.5914 45.6348 82.8305 63.8821 74.1804 77.7393Z" fill="url(#paint25_radial_1002_7059)"/>
<path d="M73.5788 77.9111C65.1483 91.4343 47.3515 95.5571 33.8226 87.1397C20.2936 78.7127 16.1595 60.9235 24.59 47.4099C33.0206 33.8867 50.8173 29.7543 64.3368 38.1813C77.8657 46.6082 81.9998 64.3974 73.5693 77.9206L73.5788 77.9111Z" fill="url(#paint26_radial_1002_7059)"/>
<path d="M72.9869 78.0924C64.776 91.2721 47.4279 95.2899 34.2427 87.0825C21.0574 78.875 17.0284 61.5344 25.2489 48.3547C33.4598 35.1751 50.8078 31.1477 63.993 39.3647C77.1783 47.5722 81.2074 64.9128 72.9869 78.0924Z" fill="url(#paint27_radial_1002_7059)"/>
<path d="M72.395 78.2642C64.3941 91.1003 47.5043 95.0131 34.6628 87.0156C21.8213 79.0181 17.8972 62.1356 25.8981 49.2995C33.899 36.4635 50.7887 32.5411 63.6302 40.5386C76.4718 48.536 80.3959 65.4186 72.395 78.2547V78.2642Z" fill="url(#paint28_radial_1002_7059)"/>
<path d="M71.8029 78.436C64.0121 90.9285 47.5711 94.7459 35.0829 86.9583C22.585 79.1804 18.766 62.7368 26.5569 50.2539C34.3477 37.7614 50.7887 33.9439 63.2769 41.7315C75.7748 49.519 79.5938 65.953 71.8029 78.4455V78.436Z" fill="url(#paint29_radial_1002_7059)"/>
<path d="M71.2015 78.6077C63.6302 90.7567 47.6379 94.4691 35.4838 86.8915C23.3297 79.3235 19.6157 63.3381 27.1869 51.1891C34.7582 39.0402 50.7505 35.3278 62.9046 42.8958C75.0587 50.4638 78.7727 66.4493 71.2015 78.5982V78.6077Z" fill="url(#paint30_radial_1002_7059)"/>
<path d="M70.6095 78.7891C63.2483 90.5945 47.7143 94.2019 35.9039 86.8438C24.0936 79.4858 20.4846 63.9584 27.8458 52.153C35.207 40.3477 50.741 36.7402 62.5514 44.0983C74.3618 51.4564 77.9707 66.9837 70.6095 78.7891Z" fill="url(#paint31_radial_1002_7059)"/>
<path d="M70.0176 78.9609C62.8759 90.4227 47.7812 93.9252 36.3241 86.7771C24.8574 79.6385 21.3534 64.5597 28.495 53.0979C35.6366 41.6361 50.7219 38.1336 62.1886 45.2722C73.6552 52.4108 77.1592 67.4991 70.0176 78.9514V78.9609Z" fill="url(#paint32_radial_1002_7059)"/>
<path d="M69.4256 79.1326C62.494 90.2509 47.8576 93.6484 36.7346 86.7197C25.6116 79.7911 22.2127 65.1609 29.1442 54.0427C36.0758 42.9244 50.7123 39.5269 61.8353 46.4555C72.9583 53.3841 76.3572 68.0144 69.4256 79.1326Z" fill="url(#paint33_radial_1002_7059)"/>
<path d="M68.8241 79.3045C62.1121 90.0791 47.9244 93.3716 37.1452 86.653C26.3659 79.9343 23.072 65.7622 29.784 54.9875C36.5055 44.2128 50.6837 40.9203 61.4629 47.6294C72.2422 54.3385 75.5361 68.5202 68.8241 79.2949V79.3045Z" fill="url(#paint34_radial_1002_7059)"/>
<path d="M68.2321 79.4858C61.7302 89.9169 48.0008 93.1044 37.5652 86.6053C27.1297 80.1061 23.9408 66.3825 30.4427 55.9514C36.9447 45.5203 50.6741 42.3328 61.1097 48.8319C71.5452 55.3311 74.7341 69.0547 68.2321 79.4858Z" fill="url(#paint35_radial_1002_7059)"/>
<path d="M67.6402 79.6575C61.3483 89.7451 48.0676 92.8276 37.9758 86.5384C27.8839 80.2492 24.8001 66.9742 31.092 56.8866C37.3838 46.7991 50.6646 43.7165 60.7564 50.0057C70.8482 56.2949 73.9321 69.57 67.6402 79.6575Z" fill="url(#paint36_radial_1002_7059)"/>
<path d="M67.0387 79.8293C60.9664 89.5733 48.1344 92.5509 38.3863 86.4812C28.6382 80.4115 25.6594 67.585 31.7316 57.841C37.8039 48.097 50.6359 45.1195 60.384 51.1892C70.1321 57.2588 73.111 70.0854 67.0387 79.8293Z" fill="url(#paint37_radial_1002_7059)"/>
<path d="M66.4467 80.0011C60.5845 89.4015 48.2108 92.2741 38.8064 86.4144C29.402 80.5546 26.5282 68.1862 32.3904 58.7858C38.2526 49.3854 50.6263 46.5128 60.0307 52.3725C69.4351 58.2323 72.3089 70.6007 66.4467 80.0011Z" fill="url(#paint38_radial_1002_7059)"/>
<path d="M65.8548 80.1825C60.2122 89.2393 48.2777 92.0069 39.2171 86.3667C30.1564 80.7264 27.3875 68.8066 33.0302 59.7402C38.6728 50.6834 50.5978 47.9157 59.668 53.556C68.7287 59.1962 71.4975 71.1256 65.8548 80.1825Z" fill="url(#paint39_radial_1002_7059)"/>
<path d="M65.2628 80.3543C59.8302 89.0675 48.354 91.7302 39.6371 86.2999C30.9201 80.8696 28.2563 69.3983 33.6889 60.685C39.1214 51.9718 50.5977 49.2996 59.3147 54.7394C68.0316 60.1697 70.6954 71.641 65.2628 80.3543Z" fill="url(#paint40_radial_1002_7059)"/>
<path d="M64.6613 80.526C59.4388 88.8957 48.4209 91.4534 40.0476 86.2426C31.6648 81.0223 29.1156 70.009 34.3286 61.6393C39.5511 53.2696 50.5691 50.7024 58.9423 55.9227C67.3156 61.1431 69.8743 72.1563 64.6613 80.526Z" fill="url(#paint41_radial_1002_7059)"/>
<path d="M64.0694 80.6978C59.0665 88.7239 48.4973 91.1766 40.4582 86.1758C32.4191 81.175 29.9654 70.6103 34.9779 62.5746C39.9808 54.5485 50.55 52.0863 58.5891 57.0966C66.6186 62.0974 69.0724 72.6621 64.0694 80.6978Z" fill="url(#paint42_radial_1002_7059)"/>
<path d="M63.4774 80.8791C58.6845 88.5617 48.5641 90.9094 40.8783 86.1281C33.1829 81.3372 30.8342 71.2211 35.6271 63.5385C40.42 55.8559 50.5404 53.4987 58.2262 58.2896C65.9121 63.0804 68.2703 73.1966 63.4774 80.8791Z" fill="url(#paint43_radial_1002_7059)"/>
<path d="M62.8855 81.0509C58.3122 88.3899 48.6405 90.6422 41.2984 86.0613C33.9467 81.4804 31.703 71.8223 36.2859 64.4833C40.8592 57.1443 50.5309 54.8921 57.873 59.473C65.2247 64.0443 67.4684 73.7119 62.8855 81.0509Z" fill="url(#paint44_radial_1002_7059)"/>
<path d="M62.284 81.2227C57.9208 88.2181 48.7073 90.3654 41.6994 86.004C34.6915 81.6426 32.5528 72.4331 36.9256 65.4281C41.2889 58.4327 50.5023 56.2854 57.5102 60.6468C64.5182 65.0082 66.6569 74.2177 62.284 81.2227Z" fill="url(#paint45_radial_1002_7059)"/>
<path d="M61.6921 81.404C57.5388 88.0654 48.7741 90.0982 42.1195 85.9467C35.4552 81.7953 33.4216 73.0439 37.5748 66.3825C41.7184 59.7211 50.4832 57.6883 57.1474 61.8397C63.8116 65.9912 65.8453 74.7522 61.6921 81.404Z" fill="url(#paint46_radial_1002_7059)"/>
<path d="M61.1001 81.5759C57.1665 87.8937 48.8505 89.8215 42.5395 85.8895C36.219 81.9576 34.2904 73.6452 38.2335 67.3369C42.1672 61.019 50.4831 59.0912 56.7941 63.0327C63.1146 66.9647 65.0432 75.2771 61.1001 81.5854V81.5759Z" fill="url(#paint47_radial_1002_7059)"/>
<path d="M60.5081 81.7476C56.7846 87.7219 48.9269 89.5447 42.9501 85.8227C36.9732 82.1007 35.1496 74.2464 38.8732 68.2721C42.5968 62.2979 50.4545 60.475 56.4313 64.197C62.4081 67.919 64.2317 75.7734 60.5081 81.7476Z" fill="url(#paint48_radial_1002_7059)"/>
<path d="M59.9066 81.9194C56.4026 87.5501 48.9937 89.2679 43.3606 85.7559C37.7275 82.2534 36.0089 74.8476 39.5224 69.2169C43.0264 63.5862 50.4354 61.8684 56.0685 65.3804C61.7016 68.8829 63.4201 76.2887 59.9066 81.9194Z" fill="url(#paint49_radial_1002_7059)"/>
<path d="M59.3147 82.1007C56.0208 87.3878 49.0606 89.0007 43.7807 85.7082C38.4914 82.4156 36.8778 75.4584 40.1718 70.1808C43.4657 64.8937 50.4259 63.2808 55.7057 66.5734C60.9951 69.8659 62.6086 76.8231 59.3147 82.1007Z" fill="url(#paint50_radial_1002_7059)"/>
<path d="M58.7228 82.2725C55.6389 87.216 49.1369 88.7239 44.1913 85.6413C39.2456 82.5588 37.7371 76.0596 40.821 71.1161C43.8953 66.1725 50.4068 64.6646 55.3524 67.7472C60.2981 70.8202 61.8066 77.3289 58.7228 82.2725Z" fill="url(#paint51_radial_1002_7059)"/>
<g style="mix-blend-mode:multiply">
<path d="M25.2584 47.3717C17.7253 48.6029 10.6219 43.4875 9.39025 35.9577C8.15861 28.4278 13.2666 21.3369 20.7997 20.0963C28.3327 18.8652 35.4361 23.971 36.6678 31.5008C37.8994 39.0307 32.7914 46.1311 25.2584 47.3622V47.3717Z" fill="white"/>
<path d="M25.2202 47.1427C17.8112 48.3452 10.832 43.3253 9.61942 35.929C8.40687 28.5232 13.4289 21.5564 20.8379 20.3349C28.2468 19.1228 35.2261 24.1427 36.4386 31.5485C37.6512 38.9448 32.6291 45.9307 25.2202 47.1427Z" fill="#FFFEFD"/>
<path d="M25.1821 46.9136C17.9068 48.097 11.0421 43.163 9.85817 35.8908C8.66472 28.6186 13.6008 21.7568 20.8856 20.5639C28.1609 19.3709 35.0256 24.3145 36.2096 31.5867C37.403 38.8589 32.4669 45.7207 25.1821 46.9136Z" fill="#FEFDFB"/>
<path d="M25.1438 46.6846C17.9926 47.8489 11.2521 43.0008 10.0873 35.8527C8.92245 28.7046 13.7726 21.9668 20.9238 20.8025C28.0749 19.6382 34.8156 24.4863 35.9804 31.6249C37.1452 38.773 32.295 45.5108 25.1438 46.6846Z" fill="#FEFCF9"/>
<path d="M25.1057 46.4556C18.0786 47.6008 11.4621 42.8386 10.3164 35.8145C9.17072 28.8 13.935 22.1768 20.9525 21.0316C27.9795 19.8863 34.596 24.6486 35.7417 31.6631C36.8874 38.6776 32.1232 45.3008 25.1057 46.4556Z" fill="#FEFBF7"/>
<path d="M25.0675 46.2169C18.1741 47.3431 11.6722 42.6667 10.5455 35.7668C9.41892 28.8763 14.0973 22.3772 20.9906 21.251C27.884 20.1249 34.3859 24.8012 35.5126 31.6917C36.6392 38.5821 31.9608 45.0908 25.0675 46.2169Z" fill="#FEFAF5"/>
<path d="M25.0388 45.988C18.2695 47.095 11.8918 42.5046 10.7842 35.7382C9.67671 28.9718 14.2691 22.5967 21.0384 21.4897C27.8076 20.3826 34.1854 24.9731 35.2929 31.7394C36.4004 38.5058 31.8081 44.8904 25.0388 45.9975V45.988Z" fill="#FDF9F3"/>
<path d="M25.0007 45.7589C18.3555 46.8373 12.1018 42.3328 11.0134 35.7C9.92497 29.0673 14.4315 22.8067 21.0766 21.7187C27.7218 20.6307 33.9754 25.1353 35.0638 31.7776C36.1523 38.4104 31.6458 44.6805 25.0007 45.7685V45.7589Z" fill="#FDF8F1"/>
<path d="M24.9624 45.5299C18.4509 46.5892 12.3118 42.1705 11.2425 35.6618C10.1827 29.1531 14.5937 23.0166 21.1148 21.9478C27.6262 20.8884 33.7653 25.2976 34.8347 31.8063C35.904 38.315 31.4834 44.461 24.972 45.5203L24.9624 45.5299Z" fill="#FDF7EF"/>
<path d="M24.9242 45.3008C18.5369 46.3411 12.5219 42.0083 11.4717 35.6237C10.431 29.239 14.756 23.2266 21.1434 22.1768C27.5307 21.1366 33.5553 25.4693 34.596 31.8444C35.6367 38.229 31.3116 44.251 24.9242 45.2913V45.3008Z" fill="#FCF6EE"/>
<path d="M24.8861 45.0717C18.6228 46.0929 12.732 41.846 11.7008 35.595C10.6792 29.344 14.9279 23.4461 21.1816 22.4154C27.4448 21.3942 33.3453 25.6411 34.3668 31.8921C35.3884 38.1431 31.1493 44.0506 24.8861 45.0717Z" fill="#FCF5EC"/>
<path d="M24.8478 44.8332C18.7183 45.8352 12.942 41.6743 11.9299 35.5473C10.9274 29.4204 15.0902 23.6465 21.2197 22.6349C27.3493 21.6328 33.1352 25.7938 34.1377 31.9208C35.1402 38.0477 30.9774 43.8311 24.8478 44.8332Z" fill="#FCF4EA"/>
<path d="M24.8097 44.6041C18.8042 45.5871 13.152 41.512 12.1686 35.5091C11.1852 29.5062 15.262 23.8564 21.2675 22.8735C27.2729 21.8905 32.9347 25.9656 33.9086 31.9685C34.892 37.9713 30.8151 43.6307 24.8097 44.6137V44.6041Z" fill="#FBF3E8"/>
<path d="M24.7715 44.3751C18.8902 45.3294 13.3621 41.3498 12.3978 35.4709C11.443 29.6017 15.4244 24.0664 21.2962 23.1025C27.1775 22.1386 32.7151 26.1278 33.6699 31.9971C34.6342 37.8664 30.6433 43.4112 24.7715 44.3751Z" fill="#FBF1E6"/>
<path d="M24.7333 44.146C18.9856 45.0813 13.5626 41.1875 12.6269 35.4328C11.6912 29.6876 15.5867 24.2668 21.3343 23.3316C27.082 22.3963 32.505 26.2901 33.4407 32.0353C34.3764 37.7805 30.4809 43.2012 24.7333 44.146Z" fill="#FBF0E4"/>
<path d="M24.6951 43.917C19.0715 44.8332 13.7726 41.0157 12.856 35.4041C11.9394 29.783 15.749 24.4863 21.3725 23.5701C26.9961 22.6539 32.295 26.4618 33.2115 32.083C34.1281 37.7041 30.3186 43.0008 24.6951 43.9265V43.917Z" fill="#FBEFE2"/>
<path d="M24.6569 43.6879C19.1671 44.585 13.9827 40.8535 13.0852 35.3659C12.1877 29.8784 15.9113 24.6963 21.4107 23.7992C26.9006 22.9021 32.0849 26.6336 32.9824 32.1211C33.8799 37.6087 30.1564 42.7908 24.6569 43.6974V43.6879Z" fill="#FAEEE0"/>
<path d="M24.6187 43.4494C19.253 44.3274 14.1928 40.6817 13.3144 35.3182C12.436 29.9548 16.0832 24.8967 21.4489 24.0187C26.8147 23.1407 31.8749 26.7863 32.7533 32.1402C33.6317 37.5037 29.994 42.5714 24.6187 43.4494Z" fill="#FAEDDE"/>
<path d="M24.5805 43.2203C19.3389 44.0697 14.4028 40.5195 13.5435 35.2801C12.6842 30.0407 16.2455 25.1067 21.4776 24.2477C26.7192 23.3888 31.6553 26.9486 32.5146 32.1784C33.3739 37.4178 29.8126 42.3614 24.5805 43.2108V43.2203Z" fill="#FAECDC"/>
<path d="M24.5423 42.9913C19.4343 43.8216 14.6128 40.3572 13.7726 35.2419C12.942 30.1361 16.4077 25.3166 21.5157 24.4768C26.6237 23.6465 31.4453 27.1108 32.2854 32.2166C33.1161 37.3224 29.6503 42.1514 24.5423 42.9817V42.9913Z" fill="#F9EBDA"/>
<path d="M24.5041 42.7622C19.5202 43.5734 14.8228 40.195 14.0017 35.2133C13.1902 30.2315 16.5701 25.5361 21.5539 24.7154C26.5378 23.9041 31.2352 27.2826 32.0563 32.2643C32.8678 37.246 29.4879 41.951 24.5041 42.7622Z" fill="#F9EAD8"/>
<path d="M24.466 42.5332C19.6062 43.3253 15.0329 40.0327 14.2405 35.1751C13.448 30.327 16.742 25.7461 21.6017 24.9444C26.4614 24.1523 31.0347 27.4448 31.8271 32.3025C32.6196 37.1601 29.3257 41.741 24.466 42.5332Z" fill="#F9E9D6"/>
<path d="M24.4277 42.3041C19.7017 43.0771 15.2429 39.8705 14.4696 35.1369C13.6962 30.4128 16.9042 25.956 21.6398 25.183C26.3659 24.4099 30.8246 27.6166 31.598 32.3406C32.3713 37.0647 29.1633 41.5311 24.4373 42.3041H24.4277Z" fill="#F9E8D4"/>
<path d="M24.3895 42.0655C19.7876 42.8195 15.453 39.6892 14.6987 35.0892C13.9444 30.4892 17.0665 26.1564 21.6685 25.4025C26.2704 24.6486 30.6146 27.7693 31.3593 32.3693C32.1135 36.9693 28.9915 41.3116 24.3895 42.0655Z" fill="#F8E7D2"/>
<path d="M24.361 41.8365C19.8832 42.5618 15.6726 39.5269 14.9374 35.0605C14.2118 30.5942 17.2384 26.3759 21.7163 25.6411C26.1941 24.9062 30.4141 27.9506 31.1398 32.417C31.8749 36.8929 28.8388 41.1112 24.361 41.846V41.8365Z" fill="#F8E6D0"/>
<path d="M24.3227 41.6075C19.9786 42.3137 15.8827 39.3647 15.1666 35.0224C14.4601 30.6801 17.4102 26.5764 21.7544 25.8702C26.0986 25.1639 30.2041 28.1129 30.9106 32.4552C31.6267 36.7975 28.6669 40.9012 24.3227 41.617V41.6075Z" fill="#F8E5CE"/>
<path d="M24.2846 41.3784C20.0645 42.0656 16.0927 39.2025 15.3958 34.9842C14.7083 30.766 17.5726 26.7863 21.7927 26.0992C26.0127 25.4121 29.9941 28.2751 30.6815 32.4934C31.3689 36.7116 28.5046 40.6913 24.2846 41.388V41.3784Z" fill="#F7E4CD"/>
<path d="M24.2463 41.1493C20.1504 41.8174 16.2932 39.0402 15.6249 34.946C14.9565 30.8614 17.7349 26.9962 21.8213 26.3282C25.9172 25.6602 29.7744 28.4373 30.4428 32.522C31.1111 36.6161 28.3327 40.4717 24.2463 41.1398V41.1493Z" fill="#F7E3CB"/>
<path d="M24.2081 40.9203C20.2459 41.5693 16.5032 38.878 15.854 34.9079C15.2047 30.9473 17.8971 27.2062 21.8594 26.5572C25.8217 25.9083 29.5643 28.5996 30.2136 32.5601C30.8628 36.5207 28.1704 40.2618 24.2081 40.9107V40.9203Z" fill="#F7E2C9"/>
<path d="M24.17 40.6817C20.3319 41.3116 16.7133 38.7062 16.0831 34.8697C15.453 31.0332 18.0595 27.4162 21.8977 26.7863C25.7358 26.1564 29.3543 28.7618 29.9845 32.5983C30.6146 36.4348 28.0081 40.0614 24.17 40.6817Z" fill="#F6E1C7"/>
<path d="M24.1318 40.4527C20.4273 41.0539 16.9233 38.5439 16.3218 34.8315C15.7203 31.1286 18.2314 27.6261 21.9454 27.0153C25.6499 26.4141 29.1538 28.924 29.7553 32.6365C30.3664 36.3489 27.8458 39.8514 24.1318 40.4527Z" fill="#F6E0C5"/>
<path d="M24.0936 40.2236C20.5132 40.8058 17.1333 38.3722 16.5509 34.7934C15.9685 31.2145 18.3936 27.8361 21.9835 27.254C25.5639 26.6718 28.9438 29.1054 29.5262 32.6842C30.1086 36.2631 27.6835 39.651 24.0936 40.2332V40.2236Z" fill="#F6DFC3"/>
<path d="M24.0554 39.9946C20.5992 40.5577 17.3435 38.21 16.7802 34.7552C16.2169 31.3004 18.5655 28.0461 22.0122 27.483C25.4685 26.9199 28.7242 29.2676 29.2875 32.7129C29.8508 36.1676 27.5021 39.4315 24.0554 39.9946Z" fill="#F6DEC1"/>
<path d="M24.0172 39.7656C20.6946 40.3095 17.5535 38.0477 17.0093 34.717C16.4651 31.3959 18.7278 28.256 22.0504 27.7121C25.3729 27.1681 28.5141 29.4299 29.0583 32.7511C29.6026 36.0818 27.3398 39.2216 24.0172 39.7656Z" fill="#F5DDBF"/>
<path d="M23.979 39.5365C20.7806 40.0614 17.7636 37.8855 17.2384 34.6884C16.7133 31.4913 18.8902 28.4755 22.0886 27.9506C25.2871 27.4257 28.3041 29.6017 28.8292 32.7987C29.3544 35.9958 27.1775 39.0211 23.979 39.546V39.5365Z" fill="#F5DCBD"/>
<path d="M23.9409 39.2979C20.8665 39.7942 17.9736 37.7137 17.4675 34.6407C16.9711 31.5677 19.0525 28.676 22.1268 28.1701C25.2011 27.6643 28.094 29.7544 28.6 32.8274C29.1061 35.9004 27.0152 38.8017 23.9409 39.3075V39.2979Z" fill="#F5DBBB"/>
<path d="M23.9026 39.0688C20.9619 39.546 18.1836 37.5514 17.6967 34.6024C17.2193 31.663 19.2147 28.8859 22.1554 28.3991C25.096 27.922 27.8744 29.9166 28.3613 32.856C28.8387 35.8049 26.8433 38.5821 23.9026 39.0593V39.0688Z" fill="#F4DAB9"/>
<path d="M23.8645 38.8398C21.0479 39.2979 18.3937 37.3892 17.9258 34.5643C17.4675 31.7489 19.3771 29.0863 22.1936 28.6282C25.0102 28.1701 27.6644 30.0788 28.1322 32.8942C28.5905 35.7095 26.681 38.3722 23.8645 38.8302V38.8398Z" fill="#F4D9B7"/>
<path d="M23.8262 38.6108C21.1338 39.0498 18.6037 37.227 18.155 34.5357C17.7158 31.8539 19.5394 29.3058 22.2318 28.8668C24.9242 28.4278 27.4639 30.2602 27.9031 32.9419C28.3423 35.6332 26.5186 38.1718 23.8262 38.6108Z" fill="#F4D8B5"/>
<path d="M23.788 38.3817C21.2293 38.8016 18.8042 37.0552 18.3841 34.4975C17.964 31.9398 19.7017 29.5158 22.27 29.0958C24.8287 28.6759 27.2538 30.4224 27.6643 32.9801C28.0844 35.5473 26.3372 37.9618 23.7785 38.3817H23.788Z" fill="#F4D6B3"/>
<path d="M23.7499 38.1527C21.3153 38.5535 19.0143 36.8929 18.6228 34.4593C18.2314 32.0257 19.8831 29.7257 22.3178 29.3249C24.7524 28.9241 27.0534 30.5847 27.4448 33.0183C27.8458 35.4519 26.1845 37.7518 23.7499 38.1527Z" fill="#F3D5B1"/>
<path d="M23.7117 37.9141C21.4011 38.2863 19.2243 36.7212 18.852 34.4116C18.4796 32.1116 20.0454 29.9261 22.3463 29.554C24.6569 29.1722 26.8338 30.7469 27.2061 33.0469C27.588 35.3564 26.0126 37.5419 23.7117 37.9141Z" fill="#F3D4AF"/>
<path d="M23.6831 37.6851C21.5062 38.0382 19.444 36.5589 19.0907 34.3734C18.7374 32.1975 20.2173 30.1361 22.3941 29.783C24.571 29.4299 26.6333 30.9091 26.9866 33.0851C27.3399 35.2705 25.86 37.3319 23.6831 37.6851Z" fill="#F3D3AD"/>
<path d="M23.6449 37.456C21.5922 37.79 19.654 36.3967 19.3198 34.3448C18.9856 32.2929 20.3796 30.3556 22.4323 30.0216C24.4851 29.6875 26.4232 31.0809 26.7574 33.1328C27.0915 35.1846 25.6976 37.1315 23.6449 37.4655V37.456Z" fill="#F2D2AC"/>
<path d="M23.6066 37.2269C21.678 37.5419 19.864 36.2344 19.5489 34.3066C19.2338 32.3884 20.5419 30.5655 22.4705 30.2506C24.3895 29.9357 26.2131 31.2431 26.5282 33.1709C26.8433 35.0987 25.5353 36.9216 23.6066 37.2365V37.2269Z" fill="#F2D1AA"/>
<path d="M23.5685 36.9979C21.7735 37.2937 20.074 36.0722 19.778 34.2684C19.4916 32.4743 20.7042 30.7755 22.5087 30.4796C24.3036 30.1838 26.0031 31.4149 26.2991 33.1996C26.595 34.9937 25.3729 36.702 23.5685 36.9979Z" fill="#F2D0A8"/>
<path d="M23.5303 36.7689C21.8594 37.0361 20.2841 35.9099 20.0072 34.2303C19.7399 32.5601 20.8665 30.9855 22.5373 30.7087C24.2082 30.4319 25.7835 31.5772 26.0604 33.2377C26.3373 34.9079 25.2011 36.4921 23.5303 36.7593V36.7689Z" fill="#F1CFA6"/>
<path d="M23.4921 36.5303C21.9453 36.7784 20.4941 35.7286 20.2363 34.1826C19.9881 32.6461 21.0383 31.1859 22.5755 30.9282C24.1126 30.6801 25.5734 31.7299 25.8312 33.2664C26.089 34.8124 25.0292 36.2726 23.4921 36.5207V36.5303Z" fill="#F1CEA4"/>
<path d="M23.4539 36.3012C22.0409 36.5303 20.7042 35.5664 20.4751 34.1539C20.246 32.7415 21.2103 31.4054 22.6233 31.1668C24.0364 30.9377 25.373 31.9016 25.6022 33.3141C25.8313 34.7265 24.867 36.0722 23.4539 36.3012Z" fill="#F1CDA2"/>
<path d="M23.4157 36.0722C22.1268 36.2821 20.9142 35.4041 20.7042 34.1158C20.4941 32.8274 21.3725 31.6058 22.6614 31.3958C23.9504 31.1859 25.1629 32.0639 25.373 33.3523C25.583 34.6406 24.7046 35.8622 23.4157 36.0722Z" fill="#F1CCA0"/>
<path d="M23.3775 35.8431C22.2223 36.034 21.1243 35.2419 20.9334 34.0776C20.7424 32.9228 21.5348 31.8158 22.6996 31.6249C23.8549 31.434 24.9529 32.2261 25.1438 33.3809C25.3348 34.5452 24.5424 35.6427 23.3871 35.8336L23.3775 35.8431Z" fill="#F0CB9E"/>
<path d="M23.3393 35.6141C22.3082 35.7859 21.3343 35.0796 21.1624 34.0394C21.0001 33.0087 21.6971 32.0257 22.7283 31.8635C23.7594 31.6917 24.7332 32.3979 24.9051 33.4286C25.0769 34.4593 24.3705 35.4423 23.3393 35.6141Z" fill="#F0CA9C"/>
</g>
<g style="mix-blend-mode:multiply">
<path d="M74.6386 78.1497C67.1056 79.3808 60.0021 74.2655 58.7705 66.7356C57.5389 59.2058 62.6468 52.1149 70.1799 50.8742C77.713 49.6431 84.8164 54.7489 86.048 62.2788C87.2797 69.8087 82.1717 76.909 74.6386 78.1402V78.1497Z" fill="white"/>
<path d="M74.6004 77.9206C67.1915 79.1327 60.2122 74.1032 58.9996 66.707C57.7871 59.3107 62.8091 52.3344 70.218 51.1128C77.627 49.9008 84.6063 54.9207 85.8189 62.3265C87.0314 69.7227 82.0094 76.7086 74.6004 77.9206Z" fill="#FFFEFD"/>
<path d="M74.5622 77.6916C67.287 78.875 60.4222 73.9409 59.2288 66.6688C58.0353 59.3966 62.9714 52.5348 70.2563 51.3514C77.5315 50.1584 84.3963 55.0924 85.5897 62.3742C86.7832 69.6464 81.8471 76.5082 74.5622 77.7011V77.6916Z" fill="#FEFDFB"/>
<path d="M74.524 77.453C67.3729 78.6173 60.6322 73.7692 59.4579 66.6211C58.2931 59.473 63.1433 52.7352 70.2944 51.5709C77.4456 50.4066 84.1862 55.2547 85.3605 62.3933C86.5253 69.5414 81.6752 76.2792 74.524 77.453Z" fill="#FEFCF9"/>
<path d="M74.4859 77.224C67.4589 78.3692 60.8423 73.6069 59.6966 66.5829C58.5509 59.5684 63.3152 52.9452 70.3327 51.7999C77.3597 50.6547 83.9762 55.417 85.1219 62.4315C86.2676 69.446 81.5034 76.0692 74.4859 77.224Z" fill="#FEFBF7"/>
<path d="M74.4477 76.9949C67.5543 78.121 61.0524 73.4447 59.9258 66.5447C58.7992 59.6543 63.4774 53.1551 70.3708 52.029C77.2642 50.9029 83.7661 55.5792 84.8928 62.4696C86.0194 69.3601 81.341 75.8688 74.4477 76.9949Z" fill="#FEFAF5"/>
<path d="M74.4095 76.7659C67.6402 77.873 61.2624 73.2825 60.1549 66.5161C59.0474 59.7498 63.6398 53.3747 70.409 52.2676C77.1783 51.1606 83.5561 55.751 84.6636 62.5174C85.7711 69.2838 81.1787 75.6684 74.4095 76.7755V76.7659Z" fill="#FDF9F3"/>
<path d="M74.3713 76.5369C67.7261 77.6153 61.4725 73.1107 60.3841 66.478C59.2956 59.8452 63.8021 53.5846 70.4472 52.4967C77.0924 51.4087 83.3461 55.9132 84.4345 62.5556C85.5229 69.1883 81.0164 75.4584 74.3713 76.5464V76.5369Z" fill="#FDF8F1"/>
<path d="M74.3331 76.3078C67.8216 77.3672 61.6825 72.9485 60.6132 66.4398C59.5534 59.9311 63.9644 53.7946 70.4854 52.7257C76.9969 51.6664 83.136 56.0755 84.2053 62.5842C85.2651 69.0929 80.8541 75.239 74.3331 76.2983V76.3078Z" fill="#FDF7EF"/>
<path d="M74.2949 76.0692C67.9075 77.1094 61.8925 72.7767 60.8423 66.3921C59.8016 60.0074 64.1267 53.995 70.514 52.9452C76.9014 51.9049 82.9164 56.2282 83.9666 62.6128C85.0073 68.9974 80.6822 75.0194 74.2949 76.0597V76.0692Z" fill="#FCF6EE"/>
<path d="M74.2567 75.8401C67.9935 76.8613 62.1026 72.6144 61.0714 66.3539C60.0498 60.1028 64.2985 54.2049 70.5522 53.1742C76.8154 52.1531 82.7159 56.3999 83.7375 62.651C84.759 68.902 80.5104 74.8094 74.2567 75.8306V75.8401Z" fill="#FCF5EC"/>
<path d="M74.2185 75.6111C68.0889 76.6132 62.3126 72.4522 61.3005 66.3253C60.298 60.1983 64.4608 54.4245 70.5904 53.4128C76.72 52.4108 82.5058 56.5718 83.5083 62.6987C84.5108 68.8257 80.3481 74.6091 74.2185 75.6111Z" fill="#FCF4EA"/>
<path d="M74.1804 75.3821C68.1749 76.365 62.5227 72.29 61.5298 66.2871C60.5464 60.2842 64.6232 54.6344 70.6286 53.6514C76.6341 52.6684 82.2958 56.7435 83.2792 62.7464C84.2626 68.7493 80.1858 74.4086 74.1804 75.3916V75.3821Z" fill="#FBF3E8"/>
<path d="M74.1421 75.153C68.2608 76.1074 62.7232 72.1277 61.7685 66.2489C60.8137 60.3796 64.795 54.8444 70.6763 53.8805C76.5481 52.9166 82.0953 56.9058 83.0501 62.775C84.0144 68.6443 80.0235 74.1891 74.1517 75.153H74.1421Z" fill="#FBF1E6"/>
<path d="M74.1039 74.924C68.3563 75.8593 62.9332 71.9655 61.9976 66.2107C61.0619 60.4655 64.9573 55.0448 70.705 54.1095C76.4526 53.1742 81.8757 57.068 82.8114 62.8132C83.747 68.5585 79.8516 73.9792 74.1039 74.924Z" fill="#FBF0E4"/>
<path d="M74.0657 74.6854C68.4422 75.6016 63.1432 71.7842 62.2267 66.1726C61.3101 60.5514 65.1196 55.2547 70.7431 54.3386C76.3667 53.4224 81.6656 57.2302 82.5822 62.8514C83.4988 68.4725 79.6893 73.7692 74.0657 74.6949V74.6854Z" fill="#FBEFE2"/>
<path d="M74.0371 74.4564C68.5377 75.3534 63.3629 71.6219 62.4654 66.1344C61.568 60.6468 65.2915 55.4647 70.7909 54.5676C76.2808 53.6705 81.4652 57.3925 82.3627 62.8896C83.2601 68.3771 79.5365 73.5593 74.0371 74.4659V74.4564Z" fill="#FAEEE0"/>
<path d="M73.999 74.2273C68.6332 75.1053 63.573 71.4597 62.6946 66.0962C61.8162 60.7327 65.4634 55.6747 70.8292 54.7966C76.1949 53.9186 81.2551 57.5643 82.1335 62.9182C83.0119 68.2817 79.3647 73.3493 73.999 74.2178V74.2273Z" fill="#FAEDDE"/>
<path d="M73.9607 73.9983C68.7191 74.8476 63.783 71.2974 62.9237 66.058C62.0644 60.8282 65.6257 55.8846 70.8578 55.0257C76.0994 54.1668 81.0355 57.7265 81.8948 62.9564C82.7541 68.1958 79.1928 73.1393 73.9607 73.9887V73.9983Z" fill="#FAECDC"/>
<path d="M73.9225 73.7692C68.805 74.5995 63.993 71.1352 63.1528 66.0199C62.3222 60.9141 65.788 56.0946 70.896 55.2547C76.0039 54.4244 80.8254 57.8888 81.6656 62.9946C82.4963 68.1004 79.0305 72.9294 73.9225 73.7597V73.7692Z" fill="#F9EBDA"/>
<path d="M73.8843 73.5402C68.9005 74.3514 64.2031 70.9729 63.382 65.9912C62.5704 61.0095 65.9502 56.3141 70.9341 55.4933C75.918 54.6821 80.6154 58.0605 81.4365 63.0423C82.248 68.024 78.8682 72.729 73.8843 73.5402Z" fill="#F9EAD8"/>
<path d="M73.8461 73.3016C68.9864 74.0937 64.4131 70.8012 63.6111 65.9435C62.8187 61.0954 66.1126 56.5145 70.9723 55.7128C75.832 54.9207 80.4054 58.2132 81.1978 63.0709C81.9903 67.9286 78.6963 72.5095 73.8366 73.3016H73.8461Z" fill="#F9E9D6"/>
<path d="M73.808 73.0725C69.0819 73.8456 64.6232 70.6389 63.8498 65.9053C63.0765 61.1813 66.2845 56.7244 71.0201 55.9514C75.7462 55.1784 80.2049 58.385 80.9782 63.1091C81.7516 67.8331 78.5436 72.2995 73.808 73.0725Z" fill="#F9E8D4"/>
<path d="M73.7698 72.8435C69.1678 73.5974 64.8332 70.4671 64.0789 65.8671C63.3247 61.2672 66.4467 56.9344 71.0487 56.1805C75.6506 55.4265 79.9948 58.5473 80.7395 63.1473C81.4938 67.7473 78.3717 72.0895 73.7698 72.8435Z" fill="#F8E7D2"/>
<path d="M73.7316 72.6144C69.2538 73.3397 65.0337 70.3049 64.3081 65.8385C63.5825 61.3721 66.6091 57.1539 71.0869 56.419C75.5647 55.6842 79.7848 58.7286 80.5104 63.1949C81.2456 67.6709 78.2094 71.8891 73.7316 72.624V72.6144Z" fill="#F8E6D0"/>
<path d="M73.6934 72.3854C69.3492 73.0917 65.2437 70.1427 64.5372 65.8004C63.8307 61.4581 66.7809 57.3543 71.1251 56.6481C75.4692 55.9419 79.5747 58.8909 80.2812 63.2332C80.9877 67.5755 78.0375 71.6792 73.6934 72.395V72.3854Z" fill="#F8E5CE"/>
<path d="M73.6552 72.1564C69.4351 72.8435 65.4538 69.9804 64.7664 65.7622C64.0789 61.544 66.9432 57.5643 71.1633 56.8772C75.3833 56.19 79.3647 59.0531 80.0521 63.2713C80.7395 67.4896 77.8752 71.4692 73.6552 72.1659V72.1564Z" fill="#F7E4CD"/>
<path d="M73.617 71.9177C69.5211 72.5858 65.6639 69.8086 64.9955 65.7144C64.3272 61.6298 67.1056 57.7647 71.2015 57.0966C75.2879 56.4286 79.1546 59.2058 79.8229 63.2904C80.4913 67.3846 77.7129 71.2402 73.6265 71.9082L73.617 71.9177Z" fill="#F7E3CB"/>
<path d="M73.5788 71.6887C69.6165 72.3377 65.8739 69.6464 65.2246 65.6763C64.5754 61.7157 67.2678 57.9746 71.2301 57.3257C75.1923 56.6767 78.935 59.368 79.5842 63.3285C80.2335 67.2891 77.5411 71.0302 73.5788 71.6792V71.6887Z" fill="#F7E2C9"/>
<path d="M73.5406 71.4597C69.7025 72.08 66.084 69.4841 65.4538 65.6476C64.8237 61.8111 67.4301 58.1941 71.2683 57.5642C75.1064 56.9344 78.725 59.5398 79.3456 63.3763C79.9757 67.2128 77.3693 70.8393 73.5311 71.4597H73.5406Z" fill="#F6E1C7"/>
<path d="M73.5025 71.2306C69.7885 71.8319 66.294 69.3219 65.683 65.6095C65.0815 61.9066 67.5925 58.4041 71.3065 57.7933C75.011 57.192 78.515 59.702 79.1165 63.4145C79.7275 67.1269 77.2069 70.6294 73.4929 71.2306H73.5025Z" fill="#F6E0C5"/>
<path d="M73.4643 71.0016C69.8839 71.5838 66.504 69.1501 65.9121 65.5713C65.3297 61.9925 67.7548 58.6141 71.3447 58.0319C74.925 57.4498 78.3049 59.8834 78.8873 63.4526C79.4697 67.0315 77.0446 70.4194 73.4547 71.0016H73.4643Z" fill="#F6DFC3"/>
<path d="M73.426 70.7726C69.9698 71.3356 66.7141 68.9879 66.1508 65.5332C65.5875 62.0784 67.9362 58.824 71.3829 58.261C74.8391 57.6979 78.0949 60.0456 78.6582 63.4908C79.2215 66.9456 76.8727 70.2095 73.426 70.7726Z" fill="#F6DEC1"/>
<path d="M73.3878 70.5339C70.0557 71.0779 66.9241 68.8161 66.3799 65.4854C65.8357 62.1642 68.0985 59.0244 71.421 58.4804C74.7436 57.9364 77.8847 60.1983 78.429 63.5194C78.9732 66.8501 76.7104 69.9899 73.3878 70.5339Z" fill="#F5DDBF"/>
<path d="M73.3592 70.3049C70.1608 70.8298 67.1437 68.6539 66.6186 65.4568C66.1031 62.2597 68.2704 59.2439 71.4688 58.7191C74.6673 58.1942 77.6843 60.3701 78.2094 63.5672C78.7346 66.7643 76.5577 69.7896 73.3592 70.3145V70.3049Z" fill="#F5DCBD"/>
<path d="M73.321 70.0759C70.2467 70.5721 67.3538 68.4916 66.8478 65.4186C66.3513 62.3456 68.4326 59.4539 71.507 58.9481C74.5813 58.4423 77.4743 60.5323 77.9803 63.6053C78.4863 66.6784 76.3954 69.5796 73.321 70.0854V70.0759Z" fill="#F5DBBB"/>
<path d="M73.2828 69.8468C70.3422 70.324 67.5638 68.3294 67.0769 65.3804C66.5995 62.441 68.595 59.6638 71.5452 59.1771C74.4858 58.6999 77.2642 60.6945 77.7511 63.6339C78.238 66.5733 76.2331 69.3601 73.2924 69.8372L73.2828 69.8468Z" fill="#F4DAB9"/>
<path d="M73.2447 69.6177C70.4281 70.0758 67.7739 68.1671 67.3061 65.3422C66.8478 62.5269 68.7573 59.8642 71.5738 59.4061C74.3904 58.948 77.0542 60.8568 77.5125 63.6721C77.9708 66.4875 76.0612 69.1501 73.2447 69.6082V69.6177Z" fill="#F4D9B7"/>
<path d="M73.2065 69.3887C70.514 69.8277 67.9744 68.0049 67.5352 65.3136C67.096 62.6319 68.9196 60.0838 71.612 59.6448C74.3045 59.2058 76.8441 61.0381 77.2833 63.7198C77.7225 66.4111 75.8989 68.9497 73.2065 69.3887Z" fill="#F4D8B5"/>
<path d="M73.1683 69.1501C70.6095 69.5701 68.1844 67.8236 67.7643 65.2659C67.3442 62.7083 69.0819 60.2842 71.6502 59.8643C74.2089 59.4444 76.634 61.1908 77.0446 63.7485C77.4647 66.3157 75.727 68.7302 73.1587 69.1501H73.1683Z" fill="#F4D6B3"/>
<path d="M73.1301 68.9211C70.6954 69.3124 68.3945 67.6614 68.003 65.2278C67.6116 62.7942 69.2633 60.4942 71.6979 60.0933C74.1326 59.6925 76.4336 61.3531 76.825 63.7867C77.226 66.2203 75.5647 68.5203 73.1301 68.9211Z" fill="#F3D5B1"/>
<path d="M73.0919 68.6921C70.7814 69.0643 68.6045 67.4991 68.2321 65.1896C67.8598 62.8896 69.4256 60.7041 71.7266 60.3319C74.0276 59.9597 76.2139 61.5249 76.5863 63.8248C76.9682 66.1344 75.3929 68.3199 73.0919 68.6921Z" fill="#F3D4AF"/>
<path d="M73.0538 68.463C70.8769 68.8161 68.8146 67.3369 68.4613 65.1514C68.108 62.9755 69.5879 60.9141 71.7648 60.5609C73.9417 60.2078 76.0039 61.6871 76.3572 63.863C76.7105 66.0485 75.2306 68.1099 73.0538 68.463Z" fill="#F3D3AD"/>
<path d="M73.0155 68.2339C70.9628 68.568 69.0246 67.1746 68.6905 65.1227C68.3563 63.0709 69.7502 61.1335 71.8029 60.7995C73.8557 60.4655 75.7939 61.8588 76.128 63.9107C76.4622 65.9626 75.0682 67.9095 73.0155 68.2435V68.2339Z" fill="#F2D2AC"/>
<path d="M72.9773 68.0049C71.0487 68.3198 69.2346 67.0124 68.9196 65.0846C68.6045 63.1663 69.9125 61.3435 71.8411 61.0286C73.7602 60.7136 75.5838 62.0211 75.8989 63.9489C76.2139 65.8767 74.9059 67.6995 72.9773 68.0144V68.0049Z" fill="#F2D1AA"/>
<path d="M72.9391 67.7663C71.1442 68.0622 69.4447 66.8406 69.1487 65.0369C68.8623 63.2427 70.0749 61.5439 71.8794 61.2481C73.6743 60.9522 75.3738 62.1834 75.6698 63.968C75.9658 65.7622 74.7436 67.4705 72.9391 67.7663Z" fill="#F2D0A8"/>
<path d="M72.901 67.5373C71.2302 67.8045 69.6548 66.6783 69.3779 64.9987C69.1106 63.3286 70.2372 61.7539 71.9081 61.4771C73.5789 61.2004 75.1542 62.3456 75.4311 64.0062C75.708 65.6763 74.5718 67.2605 72.901 67.5277V67.5373Z" fill="#F1CFA6"/>
<path d="M72.8627 67.3082C71.316 67.5564 69.8647 66.5066 69.607 64.9605C69.3587 63.424 70.409 61.9639 71.9461 61.7062C73.4833 61.458 74.9441 62.5078 75.2019 64.0443C75.4597 65.5904 74.3999 67.0506 72.8627 67.2987V67.3082Z" fill="#F1CEA4"/>
<path d="M72.8246 67.0792C71.4115 67.3082 70.0749 66.3443 69.8362 64.9319C69.607 63.5194 70.5713 62.1833 71.9844 61.9447C73.3974 61.7157 74.7342 62.6796 74.9633 64.092C75.1924 65.5045 74.2281 66.8501 72.8151 67.0792H72.8246Z" fill="#F1CDA2"/>
<path d="M72.7864 66.8501C71.4975 67.0601 70.2849 66.1821 70.0653 64.8937C69.8553 63.6053 70.7337 62.3837 72.0226 62.1738C73.3115 61.9638 74.524 62.8419 74.7341 64.1302C74.9441 65.4186 74.0658 66.6402 72.7768 66.8501H72.7864Z" fill="#F1CCA0"/>
<path d="M72.7482 66.6211C71.593 66.8119 70.495 66.0198 70.304 64.8555C70.1131 63.7007 70.9055 62.5937 72.0703 62.4028C73.2256 62.212 74.3235 63.0041 74.5145 64.1589C74.7055 65.3232 73.913 66.4207 72.7577 66.6115L72.7482 66.6211Z" fill="#F0CB9E"/>
<path d="M72.7099 66.3825C71.6788 66.5543 70.6954 65.8481 70.5331 64.8078C70.3708 63.7771 71.0678 62.7941 72.0989 62.6319C73.1301 62.4601 74.1134 63.1663 74.2757 64.197C74.4476 65.2277 73.7411 66.2107 72.7099 66.3825Z" fill="#F0CA9C"/>
</g>
<g opacity="0.3">
<path d="M79.1546 49.3568C80.2525 44.6136 79.5842 41.1207 78.6581 38.5821C77.7797 36.1962 76.5767 34.7456 76.4144 34.5643C74.2375 32.2452 74.333 28.6091 76.6435 26.4045C78.954 24.1904 82.6299 24.2763 84.845 26.5859C85.1887 26.9581 87.4228 29.344 89.2082 33.6958C90.9936 38.019 92.2443 44.4132 90.4494 52.0003C89.7142 55.1211 86.5922 57.0489 83.4796 56.3236C82.8495 56.1709 82.2575 55.9227 81.7324 55.5983C79.6797 54.3194 78.5721 51.8381 79.1546 49.3568Z" fill="white"/>
</g>
<path d="M33.8417 73.063H33.8322C29.679 70.4671 26.1559 67.1365 23.3489 63.1663C20.6469 59.3298 18.7374 55.0543 17.6681 50.4543C16.5987 45.8543 16.4364 41.178 17.1716 36.5398C17.3434 35.4328 17.9449 34.4498 18.852 33.7913C19.7685 33.1328 20.876 32.856 21.9931 33.0373C22.5564 33.1232 23.0816 33.3237 23.5685 33.6195C25.0102 34.5166 25.774 36.1867 25.5066 37.8568C24.9433 41.4166 25.077 45.0145 25.8981 48.5456C26.7192 52.0767 28.18 55.3597 30.2614 58.3087C32.4096 61.3626 35.1211 63.9107 38.31 65.9053C41.518 67.8999 45.0124 69.2074 48.6978 69.7991C52.2591 70.3622 55.8585 70.2381 59.3911 69.4173C62.9237 68.5966 66.2081 67.1269 69.1583 65.056C70.5427 64.0825 72.3759 64.0253 73.8176 64.9223C74.2949 65.2182 74.7055 65.6095 75.0396 66.0676C76.3763 67.9668 75.918 70.6008 74.018 71.9464C70.1799 74.6472 65.9026 76.5655 61.3006 77.6248C56.6987 78.6937 52.0108 78.8559 47.3802 78.1211C42.5682 77.3576 38.0235 75.6588 33.8608 73.063H33.8417Z" fill="url(#paint52_linear_1002_7059)"/>
<path d="M34.6532 71.7364C30.5859 69.1978 27.2156 65.953 24.6187 62.2692C22.0122 58.5759 20.1886 54.434 19.1765 50.1012C18.174 45.7684 17.9926 41.2448 18.6991 36.7784C18.9283 35.3278 20.2936 34.3353 21.7448 34.5643C23.1961 34.7933 24.189 36.1581 23.9599 37.6087C23.3679 41.3879 23.5111 45.2149 24.3704 48.8892C25.2202 52.5634 26.7764 56.0659 28.9819 59.1962C31.1874 62.3169 34.0231 65.0655 37.4793 67.2128C40.9356 69.3696 44.6591 70.7153 48.44 71.307C52.2208 71.9082 56.059 71.7555 59.7252 70.9061C63.4011 70.0472 66.9146 68.5012 70.0367 66.2966C71.2397 65.4472 72.9009 65.7431 73.7507 66.9455C74.6004 68.148 74.3045 69.8086 73.1015 70.658C69.4065 73.2538 65.2629 75.0862 60.9283 76.0978C56.5936 77.0999 52.0681 77.2812 47.5998 76.575C43.1315 75.8688 38.73 74.275 34.6532 71.7364Z" fill="url(#paint53_radial_1002_7059)"/>
<path d="M74.5527 47.9921C74.5718 49.1373 73.6361 50.0344 72.4713 50.0058L65.6638 49.8149L68.8241 55.8369C69.3683 56.8676 68.9673 58.0987 67.9362 58.5949C66.905 59.0817 65.6257 58.6427 65.0815 57.612L60.3172 48.5361C59.9735 47.8871 60.0021 47.1236 60.3745 46.5224C60.7468 45.9211 61.4247 45.568 62.1599 45.5871L72.4045 45.8734C72.8055 45.883 73.1874 46.007 73.512 46.2074C74.1231 46.5892 74.5336 47.2572 74.5432 48.0016L74.5527 47.9921Z" fill="url(#paint54_radial_1002_7059)"/>
<path d="M38.4341 25.4788C37.403 25.9656 37.002 27.2062 37.5462 28.2369L40.7064 34.2589L33.899 34.068C32.7342 34.0394 31.7985 34.9365 31.8176 36.0817C31.8272 37.2269 32.7915 38.1813 33.9563 38.2099L44.2008 38.4962C44.936 38.5153 45.6139 38.1622 45.9862 37.561C46.3586 36.9597 46.3777 36.1962 46.0435 35.5473L41.2793 26.4714C41.0883 26.1087 40.8114 25.8224 40.4964 25.622C39.8853 25.2403 39.1024 25.1639 38.4341 25.4788Z" fill="url(#paint55_radial_1002_7059)"/>
<defs>
<radialGradient id="paint0_radial_1002_7059" cx="0" cy="0" r="1" gradientUnits="userSpaceOnUse" gradientTransform="translate(10.5576 -33.8023) rotate(31.9191) scale(250.108 250.061)">
<stop stop-color="#EFD65F"/>
<stop offset="0.35" stop-color="#F5E363"/>
<stop offset="0.69" stop-color="#E2A348"/>
<stop offset="1" stop-color="#EED3A3"/>
</radialGradient>
<radialGradient id="paint1_radial_1002_7059" cx="0" cy="0" r="1" gradientUnits="userSpaceOnUse" gradientTransform="translate(13.8166 -33.4414) rotate(31.9191) scale(246.939 246.892)">
<stop stop-color="#EFD65F"/>
<stop offset="0.35" stop-color="#F5E263"/>
<stop offset="0.69" stop-color="#E2A348"/>
<stop offset="0.7" stop-color="#E3A54D"/>
<stop offset="1" stop-color="#EED2A2"/>
</radialGradient>
<radialGradient id="paint2_radial_1002_7059" cx="0" cy="0" r="1" gradientUnits="userSpaceOnUse" gradientTransform="translate(16.9991 -33.0233) rotate(31.9191) scale(243.846 243.8)">
<stop stop-color="#EFD65F"/>
<stop offset="0.35" stop-color="#F5E262"/>
<stop offset="0.69" stop-color="#E2A348"/>
<stop offset="0.7" stop-color="#E3A54D"/>
<stop offset="1" stop-color="#EED2A0"/>
</radialGradient>
<radialGradient id="paint3_radial_1002_7059" cx="0" cy="0" r="1" gradientUnits="userSpaceOnUse" gradientTransform="translate(20.1089 -32.5702) rotate(31.9191) scale(240.81 240.765)">
<stop stop-color="#EFD660"/>
<stop offset="0.35" stop-color="#F4E162"/>
<stop offset="0.69" stop-color="#E2A348"/>
<stop offset="0.7" stop-color="#E3A54C"/>
<stop offset="1" stop-color="#EED19F"/>
</radialGradient>
<radialGradient id="paint4_radial_1002_7059" cx="0" cy="0" r="1" gradientUnits="userSpaceOnUse" gradientTransform="translate(23.1201 -32.0729) rotate(31.9191) scale(237.831 237.787)">
<stop stop-color="#EFD660"/>
<stop offset="0.35" stop-color="#F4E062"/>
<stop offset="0.69" stop-color="#E2A448"/>
<stop offset="0.7" stop-color="#E3A54C"/>
<stop offset="1" stop-color="#EDD19E"/>
</radialGradient>
<radialGradient id="paint5_radial_1002_7059" cx="0" cy="0" r="1" gradientUnits="userSpaceOnUse" gradientTransform="translate(26.0629 -31.523) rotate(31.9191) scale(234.91 234.866)">
<stop stop-color="#EFD660"/>
<stop offset="0.35" stop-color="#F4E062"/>
<stop offset="0.69" stop-color="#E2A447"/>
<stop offset="0.7" stop-color="#E3A54C"/>
<stop offset="1" stop-color="#EDD09C"/>
</radialGradient>
<radialGradient id="paint6_radial_1002_7059" cx="0" cy="0" r="1" gradientUnits="userSpaceOnUse" gradientTransform="translate(28.9103 -30.9349) rotate(31.9191) scale(232.037 231.993)">
<stop stop-color="#EFD660"/>
<stop offset="0.35" stop-color="#F4DF61"/>
<stop offset="0.69" stop-color="#E2A447"/>
<stop offset="0.7" stop-color="#E3A54C"/>
<stop offset="1" stop-color="#EDCF9B"/>
</radialGradient>
<radialGradient id="paint7_radial_1002_7059" cx="0" cy="0" r="1" gradientUnits="userSpaceOnUse" gradientTransform="translate(31.6863 -30.2978) rotate(31.9191) scale(229.201 229.158)">
<stop stop-color="#EFD660"/>
<stop offset="0.35" stop-color="#F3DE61"/>
<stop offset="0.69" stop-color="#E2A447"/>
<stop offset="0.7" stop-color="#E3A64B"/>
<stop offset="1" stop-color="#EDCF9A"/>
</radialGradient>
<radialGradient id="paint8_radial_1002_7059" cx="0" cy="0" r="1" gradientUnits="userSpaceOnUse" gradientTransform="translate(34.3668 -29.6225) rotate(31.9191) scale(226.404 226.362)">
<stop stop-color="#EFD660"/>
<stop offset="0.35" stop-color="#F3DE61"/>
<stop offset="0.69" stop-color="#E2A447"/>
<stop offset="0.7" stop-color="#E3A64B"/>
<stop offset="1" stop-color="#EDCE98"/>
</radialGradient>
<radialGradient id="paint9_radial_1002_7059" cx="0" cy="0" r="1" gradientUnits="userSpaceOnUse" gradientTransform="translate(36.9759 -28.8982) rotate(31.9191) scale(223.645 223.603)">
<stop stop-color="#EFD761"/>
<stop offset="0.35" stop-color="#F3DD61"/>
<stop offset="0.69" stop-color="#E2A447"/>
<stop offset="0.7" stop-color="#E3A64B"/>
<stop offset="1" stop-color="#EDCE97"/>
</radialGradient>
<radialGradient id="paint10_radial_1002_7059" cx="0" cy="0" r="1" gradientUnits="userSpaceOnUse" gradientTransform="translate(39.5537 -28.0797) rotate(31.9291) scale(220.915 220.874)">
<stop stop-color="#EFD761"/>
<stop offset="0.35" stop-color="#F3DC60"/>
<stop offset="0.69" stop-color="#E2A447"/>
<stop offset="0.7" stop-color="#E3A64B"/>
<stop offset="1" stop-color="#ECCD95"/>
</radialGradient>
<radialGradient id="paint11_radial_1002_7059" cx="0" cy="0" r="1" gradientUnits="userSpaceOnUse" gradientTransform="translate(41.9797 -27.2726) rotate(31.9291) scale(218.194 218.153)">
<stop stop-color="#EFD761"/>
<stop offset="0.35" stop-color="#F2DC60"/>
<stop offset="0.69" stop-color="#E2A547"/>
<stop offset="0.7" stop-color="#E3A64A"/>
<stop offset="1" stop-color="#ECCD94"/>
</radialGradient>
<radialGradient id="paint12_radial_1002_7059" cx="0" cy="0" r="1" gradientUnits="userSpaceOnUse" gradientTransform="translate(44.3424 -26.4113) rotate(31.9291) scale(215.493 215.452)">
<stop stop-color="#EFD761"/>
<stop offset="0.35" stop-color="#F2DB60"/>
<stop offset="0.69" stop-color="#E2A547"/>
<stop offset="0.7" stop-color="#E3A64A"/>
<stop offset="1" stop-color="#ECCC93"/>
</radialGradient>
<radialGradient id="paint13_radial_1002_7059" cx="0" cy="0" r="1" gradientUnits="userSpaceOnUse" gradientTransform="translate(46.6095 -25.512) rotate(31.9291) scale(212.81 212.77)">
<stop stop-color="#EFD761"/>
<stop offset="0.35" stop-color="#F2DA5F"/>
<stop offset="0.69" stop-color="#E2A546"/>
<stop offset="0.7" stop-color="#E3A64A"/>
<stop offset="1" stop-color="#ECCB91"/>
</radialGradient>
<radialGradient id="paint14_radial_1002_7059" cx="0" cy="0" r="1" gradientUnits="userSpaceOnUse" gradientTransform="translate(48.8084 -24.5504) rotate(31.9291) scale(210.127 210.088)">
<stop stop-color="#EFD761"/>
<stop offset="0.35" stop-color="#F2DA5F"/>
<stop offset="0.69" stop-color="#E2A546"/>
<stop offset="0.7" stop-color="#E3A64A"/>
<stop offset="1" stop-color="#ECCB90"/>
</radialGradient>
<radialGradient id="paint15_radial_1002_7059" cx="0" cy="0" r="1" gradientUnits="userSpaceOnUse" gradientTransform="translate(50.9183 -23.5543) rotate(31.9291) scale(207.445 207.406)">
<stop stop-color="#EFD762"/>
<stop offset="0.35" stop-color="#F1D95F"/>
<stop offset="0.69" stop-color="#E2A546"/>
<stop offset="0.7" stop-color="#E3A649"/>
<stop offset="1" stop-color="#ECCA8F"/>
</radialGradient>
<radialGradient id="paint16_radial_1002_7059" cx="0" cy="0" r="1" gradientUnits="userSpaceOnUse" gradientTransform="translate(52.9457 -22.5232) rotate(31.9291) scale(204.762 204.724)">
<stop stop-color="#EFD762"/>
<stop offset="0.35" stop-color="#F1D85F"/>
<stop offset="0.69" stop-color="#E2A546"/>
<stop offset="0.7" stop-color="#E3A649"/>
<stop offset="1" stop-color="#EBCA8D"/>
</radialGradient>
<radialGradient id="paint17_radial_1002_7059" cx="0" cy="0" r="1" gradientUnits="userSpaceOnUse" gradientTransform="translate(54.8887 -21.4399) rotate(31.929) scale(202.08 202.042)">
<stop stop-color="#EFD762"/>
<stop offset="0.35" stop-color="#F1D85E"/>
<stop offset="0.69" stop-color="#E2A546"/>
<stop offset="0.7" stop-color="#E3A649"/>
<stop offset="1" stop-color="#EBC98C"/>
</radialGradient>
<radialGradient id="paint18_radial_1002_7059" cx="0" cy="0" r="1" gradientUnits="userSpaceOnUse" gradientTransform="translate(56.7443 -20.3135) rotate(31.9291) scale(199.378 199.341)">
<stop stop-color="#EFD762"/>
<stop offset="0.35" stop-color="#F1D75E"/>
<stop offset="0.69" stop-color="#E2A546"/>
<stop offset="0.7" stop-color="#E3A649"/>
<stop offset="1" stop-color="#EBC88B"/>
</radialGradient>
<radialGradient id="paint19_radial_1002_7059" cx="0" cy="0" r="1" gradientUnits="userSpaceOnUse" gradientTransform="translate(58.5233 -19.1299) rotate(31.929) scale(196.657 196.62)">
<stop stop-color="#EFD762"/>
<stop offset="0.35" stop-color="#F1D65E"/>
<stop offset="0.69" stop-color="#E2A646"/>
<stop offset="0.7" stop-color="#E3A649"/>
<stop offset="1" stop-color="#EBC889"/>
</radialGradient>
<radialGradient id="paint20_radial_1002_7059" cx="0" cy="0" r="1" gradientUnits="userSpaceOnUse" gradientTransform="translate(60.2171 -17.9148) rotate(31.9291) scale(193.927 193.891)">
<stop stop-color="#EFD763"/>
<stop offset="0.35" stop-color="#F0D65E"/>
<stop offset="0.69" stop-color="#E2A646"/>
<stop offset="0.7" stop-color="#E3A748"/>
<stop offset="1" stop-color="#EBC788"/>
</radialGradient>
<radialGradient id="paint21_radial_1002_7059" cx="0" cy="0" r="1" gradientUnits="userSpaceOnUse" gradientTransform="translate(61.8293 -16.6536) rotate(31.9291) scale(191.168 191.132)">
<stop stop-color="#EFD763"/>
<stop offset="0.35" stop-color="#F0D55D"/>
<stop offset="0.69" stop-color="#E2A646"/>
<stop offset="0.7" stop-color="#E3A748"/>
<stop offset="1" stop-color="#EBC787"/>
</radialGradient>
<radialGradient id="paint22_radial_1002_7059" cx="0" cy="0" r="1" gradientUnits="userSpaceOnUse" gradientTransform="translate(63.3591 -15.3382) rotate(31.9291) scale(188.381 188.345)">
<stop stop-color="#EFD763"/>
<stop offset="0.35" stop-color="#F0D45D"/>
<stop offset="0.69" stop-color="#E2A645"/>
<stop offset="0.7" stop-color="#E3A748"/>
<stop offset="1" stop-color="#EBC685"/>
</radialGradient>
<radialGradient id="paint23_radial_1002_7059" cx="0" cy="0" r="1" gradientUnits="userSpaceOnUse" gradientTransform="translate(64.8046 -13.9897) rotate(31.9291) scale(185.555 185.52)">
<stop stop-color="#EFD763"/>
<stop offset="0.35" stop-color="#F0D45D"/>
<stop offset="0.69" stop-color="#E2A645"/>
<stop offset="0.7" stop-color="#E3A748"/>
<stop offset="1" stop-color="#EAC584"/>
</radialGradient>
<radialGradient id="paint24_radial_1002_7059" cx="0" cy="0" r="1" gradientUnits="userSpaceOnUse" gradientTransform="translate(66.1771 -12.5872) rotate(31.929) scale(182.7 182.666)">
<stop stop-color="#EFD763"/>
<stop offset="0.35" stop-color="#EFD35C"/>
<stop offset="0.69" stop-color="#E2A645"/>
<stop offset="0.7" stop-color="#E3A747"/>
<stop offset="1" stop-color="#EAC583"/>
</radialGradient>
<radialGradient id="paint25_radial_1002_7059" cx="0" cy="0" r="1" gradientUnits="userSpaceOnUse" gradientTransform="translate(67.4541 -11.137) rotate(31.929) scale(179.808 179.774)">
<stop stop-color="#EFD763"/>
<stop offset="0.35" stop-color="#EFD25C"/>
<stop offset="0.69" stop-color="#E2A645"/>
<stop offset="0.7" stop-color="#E3A747"/>
<stop offset="1" stop-color="#EAC481"/>
</radialGradient>
<radialGradient id="paint26_radial_1002_7059" cx="0" cy="0" r="1" gradientUnits="userSpaceOnUse" gradientTransform="translate(68.6597 -9.65678) rotate(31.9291) scale(176.868 176.834)">
<stop stop-color="#EFD864"/>
<stop offset="0.35" stop-color="#EFD25C"/>
<stop offset="0.69" stop-color="#E3A745"/>
<stop offset="0.7" stop-color="#E3A747"/>
<stop offset="1" stop-color="#EAC480"/>
</radialGradient>
<radialGradient id="paint27_radial_1002_7059" cx="0" cy="0" r="1" gradientUnits="userSpaceOnUse" gradientTransform="translate(69.7699 -8.1193) rotate(31.9291) scale(173.889 173.856)">
<stop stop-color="#EFD864"/>
<stop offset="0.35" stop-color="#EFD15C"/>
<stop offset="0.69" stop-color="#E3A745"/>
<stop offset="0.7" stop-color="#E3A747"/>
<stop offset="1" stop-color="#EAC37E"/>
</radialGradient>
<radialGradient id="paint28_radial_1002_7059" cx="0" cy="0" r="1" gradientUnits="userSpaceOnUse" gradientTransform="translate(70.8086 -6.5519) rotate(31.9291) scale(170.853 170.821)">
<stop stop-color="#EFD864"/>
<stop offset="0.35" stop-color="#EED05B"/>
<stop offset="0.69" stop-color="#E3A745"/>
<stop offset="0.7" stop-color="#E3A746"/>
<stop offset="1" stop-color="#EAC37D"/>
</radialGradient>
<radialGradient id="paint29_radial_1002_7059" cx="0" cy="0" r="1" gradientUnits="userSpaceOnUse" gradientTransform="translate(71.7467 -4.91924) rotate(31.9291) scale(167.76 167.729)">
<stop stop-color="#EFD864"/>
<stop offset="0.35" stop-color="#EED05B"/>
<stop offset="0.69" stop-color="#E3A745"/>
<stop offset="0.7" stop-color="#E3A746"/>
<stop offset="1" stop-color="#E9C27C"/>
</radialGradient>
<radialGradient id="paint30_radial_1002_7059" cx="0" cy="0" r="1" gradientUnits="userSpaceOnUse" gradientTransform="translate(72.6267 -3.25002) rotate(31.929) scale(164.619 164.589)">
<stop stop-color="#EFD864"/>
<stop offset="0.35" stop-color="#EECF5B"/>
<stop offset="0.69" stop-color="#E3A744"/>
<stop offset="0.7" stop-color="#E3A746"/>
<stop offset="1" stop-color="#E9C17A"/>
</radialGradient>
<radialGradient id="paint31_radial_1002_7059" cx="0" cy="0" r="1" gradientUnits="userSpaceOnUse" gradientTransform="translate(73.4925 -1.55679) rotate(31.9291) scale(161.44 161.41)">
<stop stop-color="#EFD864"/>
<stop offset="0.35" stop-color="#EECE5A"/>
<stop offset="0.69" stop-color="#E3A744"/>
<stop offset="0.7" stop-color="#E3A746"/>
<stop offset="1" stop-color="#E9C179"/>
</radialGradient>
<radialGradient id="paint32_radial_1002_7059" cx="0" cy="0" r="1" gradientUnits="userSpaceOnUse" gradientTransform="translate(74.2005 0.207747) rotate(31.929) scale(158.176 158.146)">
<stop stop-color="#EFD865"/>
<stop offset="0.35" stop-color="#EDCE5A"/>
<stop offset="0.69" stop-color="#E3A744"/>
<stop offset="0.7" stop-color="#E3A845"/>
<stop offset="1" stop-color="#E9C078"/>
</radialGradient>
<radialGradient id="paint33_radial_1002_7059" cx="0" cy="0" r="1" gradientUnits="userSpaceOnUse" gradientTransform="translate(74.8181 2.00214) rotate(31.9291) scale(154.853 154.824)">
<stop stop-color="#EFD865"/>
<stop offset="0.35" stop-color="#EDCD5A"/>
<stop offset="0.69" stop-color="#E3A844"/>
<stop offset="0.7" stop-color="#E3A845"/>
<stop offset="1" stop-color="#E9C076"/>
</radialGradient>
<radialGradient id="paint34_radial_1002_7059" cx="0" cy="0" r="1" gradientUnits="userSpaceOnUse" gradientTransform="translate(75.3542 3.86197) rotate(31.9291) scale(151.455 151.426)">
<stop stop-color="#EFD865"/>
<stop offset="0.35" stop-color="#EDCC5A"/>
<stop offset="0.69" stop-color="#E3A844"/>
<stop offset="0.7" stop-color="#E3A845"/>
<stop offset="1" stop-color="#E9BF75"/>
</radialGradient>
<radialGradient id="paint35_radial_1002_7059" cx="0" cy="0" r="1" gradientUnits="userSpaceOnUse" gradientTransform="translate(75.8049 5.74364) rotate(31.9291) scale(147.989 147.962)">
<stop stop-color="#EFD865"/>
<stop offset="0.35" stop-color="#EDCC59"/>
<stop offset="0.69" stop-color="#E3A844"/>
<stop offset="0.7" stop-color="#E3A845"/>
<stop offset="1" stop-color="#E9BE74"/>
</radialGradient>
<radialGradient id="paint36_radial_1002_7059" cx="0" cy="0" r="1" gradientUnits="userSpaceOnUse" gradientTransform="translate(76.1732 7.6062) rotate(31.9291) scale(144.448 144.421)">
<stop stop-color="#EFD865"/>
<stop offset="0.35" stop-color="#EDCB59"/>
<stop offset="0.69" stop-color="#E3A844"/>
<stop offset="0.7" stop-color="#E3A845"/>
<stop offset="1" stop-color="#E8BE72"/>
</radialGradient>
<radialGradient id="paint37_radial_1002_7059" cx="0" cy="0" r="1" gradientUnits="userSpaceOnUse" gradientTransform="translate(76.46 9.59778) rotate(31.9291) scale(140.839 140.813)">
<stop stop-color="#EFD866"/>
<stop offset="0.35" stop-color="#ECCA59"/>
<stop offset="0.69" stop-color="#E3A844"/>
<stop offset="0.7" stop-color="#E3A844"/>
<stop offset="1" stop-color="#E8BD71"/>
</radialGradient>
<radialGradient id="paint38_radial_1002_7059" cx="0" cy="0" r="1" gradientUnits="userSpaceOnUse" gradientTransform="translate(76.6704 11.6274) rotate(31.929) scale(137.154 137.128)">
<stop stop-color="#EFD866"/>
<stop offset="0.35" stop-color="#ECCA59"/>
<stop offset="0.69" stop-color="#E3A844"/>
<stop offset="0.7" stop-color="#E3A844"/>
<stop offset="1" stop-color="#E8BD70"/>
</radialGradient>
<radialGradient id="paint39_radial_1002_7059" cx="0" cy="0" r="1" gradientUnits="userSpaceOnUse" gradientTransform="translate(76.7904 13.7062) rotate(31.9291) scale(133.393 133.368)">
<stop stop-color="#EFD866"/>
<stop offset="0.35" stop-color="#ECC958"/>
<stop offset="0.69" stop-color="#E3A843"/>
<stop offset="0.7" stop-color="#E3A844"/>
<stop offset="1" stop-color="#E8BC6E"/>
</radialGradient>
<radialGradient id="paint40_radial_1002_7059" cx="0" cy="0" r="1" gradientUnits="userSpaceOnUse" gradientTransform="translate(76.8338 15.8326) rotate(31.9291) scale(129.546 129.521)">
<stop stop-color="#EFD866"/>
<stop offset="0.35" stop-color="#ECC858"/>
<stop offset="0.69" stop-color="#E3A843"/>
<stop offset="0.7" stop-color="#E3A844"/>
<stop offset="1" stop-color="#E8BB6D"/>
</radialGradient>
<radialGradient id="paint41_radial_1002_7059" cx="0" cy="0" r="1" gradientUnits="userSpaceOnUse" gradientTransform="translate(76.795 17.994) rotate(31.929) scale(125.613 125.589)">
<stop stop-color="#EFD866"/>
<stop offset="0.35" stop-color="#EBC858"/>
<stop offset="0.69" stop-color="#E3A943"/>
<stop offset="0.7" stop-color="#E3A843"/>
<stop offset="1" stop-color="#E8BB6C"/>
</radialGradient>
<radialGradient id="paint42_radial_1002_7059" cx="0" cy="0" r="1" gradientUnits="userSpaceOnUse" gradientTransform="translate(76.6717 20.2076) rotate(31.9291) scale(121.603 121.58)">
<stop stop-color="#EFD866"/>
<stop offset="0.35" stop-color="#EBC757"/>
<stop offset="0.69" stop-color="#E3A943"/>
<stop offset="0.7" stop-color="#E3A843"/>
<stop offset="1" stop-color="#E7BA6A"/>
</radialGradient>
<radialGradient id="paint43_radial_1002_7059" cx="0" cy="0" r="1" gradientUnits="userSpaceOnUse" gradientTransform="translate(76.4659 22.4562) rotate(31.9291) scale(117.508 117.486)">
<stop stop-color="#EFD967"/>
<stop offset="0.35" stop-color="#EBC657"/>
<stop offset="0.69" stop-color="#E3A943"/>
<stop offset="0.7" stop-color="#E3A843"/>
<stop offset="1" stop-color="#E7BA69"/>
</radialGradient>
<radialGradient id="paint44_radial_1002_7059" cx="0" cy="0" r="1" gradientUnits="userSpaceOnUse" gradientTransform="translate(76.1838 24.762) rotate(31.9291) scale(113.317 113.295)">
<stop stop-color="#EFD967"/>
<stop offset="0.35" stop-color="#EBC657"/>
<stop offset="0.69" stop-color="#E3A943"/>
<stop offset="0.7" stop-color="#E3A843"/>
<stop offset="1" stop-color="#E7B967"/>
</radialGradient>
<radialGradient id="paint45_radial_1002_7059" cx="0" cy="0" r="1" gradientUnits="userSpaceOnUse" gradientTransform="translate(75.8127 27.1023) rotate(31.929) scale(109.04 109.019)">
<stop stop-color="#EFD967"/>
<stop offset="0.35" stop-color="#EAC557"/>
<stop offset="0.69" stop-color="#E3A943"/>
<stop offset="0.7" stop-color="#E3A942"/>
<stop offset="1" stop-color="#E7B966"/>
</radialGradient>
<radialGradient id="paint46_radial_1002_7059" cx="0" cy="0" r="1" gradientUnits="userSpaceOnUse" gradientTransform="translate(75.3541 29.4858) rotate(31.9291) scale(104.668 104.648)">
<stop stop-color="#EFD967"/>
<stop offset="0.35" stop-color="#EAC456"/>
<stop offset="0.69" stop-color="#E3A943"/>
<stop offset="0.7" stop-color="#E3A942"/>
<stop offset="1" stop-color="#E7B865"/>
</radialGradient>
<radialGradient id="paint47_radial_1002_7059" cx="0" cy="0" r="1" gradientUnits="userSpaceOnUse" gradientTransform="translate(74.8271 31.9315) rotate(31.9291) scale(100.209 100.191)">
<stop stop-color="#EFD967"/>
<stop offset="0.35" stop-color="#EAC456"/>
<stop offset="0.69" stop-color="#E3A942"/>
<stop offset="0.7" stop-color="#E3A942"/>
<stop offset="1" stop-color="#E7B763"/>
</radialGradient>
<radialGradient id="paint48_radial_1002_7059" cx="0" cy="0" r="1" gradientUnits="userSpaceOnUse" gradientTransform="translate(74.2017 34.4022) rotate(31.929) scale(95.6557 95.6378)">
<stop stop-color="#EFD967"/>
<stop offset="0.35" stop-color="#EAC356"/>
<stop offset="0.69" stop-color="#E3AA42"/>
<stop offset="0.7" stop-color="#E3A942"/>
<stop offset="1" stop-color="#E6B762"/>
</radialGradient>
<radialGradient id="paint49_radial_1002_7059" cx="0" cy="0" r="1" gradientUnits="userSpaceOnUse" gradientTransform="translate(73.4998 36.93) rotate(31.929) scale(90.997 90.9799)">
<stop stop-color="#EFD968"/>
<stop offset="0.35" stop-color="#E9C256"/>
<stop offset="0.69" stop-color="#E3AA42"/>
<stop offset="0.7" stop-color="#E3A941"/>
<stop offset="1" stop-color="#E6B661"/>
</radialGradient>
<radialGradient id="paint50_radial_1002_7059" cx="0" cy="0" r="1" gradientUnits="userSpaceOnUse" gradientTransform="translate(72.7105 39.5105) rotate(31.9291) scale(86.2428 86.2266)">
<stop stop-color="#EFD968"/>
<stop offset="0.35" stop-color="#E9C255"/>
<stop offset="0.69" stop-color="#E3AA42"/>
<stop offset="0.7" stop-color="#E3A941"/>
<stop offset="1" stop-color="#E6B65F"/>
</radialGradient>
<radialGradient id="paint51_radial_1002_7059" cx="0" cy="0" r="1" gradientUnits="userSpaceOnUse" gradientTransform="translate(71.8498 42.121) rotate(31.9291) scale(81.4028 81.3875)">
<stop stop-color="#EFD968"/>
<stop offset="0.7" stop-color="#E3A941"/>
<stop offset="1" stop-color="#E6B55E"/>
</radialGradient>
<linearGradient id="paint52_linear_1002_7059" x1="34.0474" y1="72.7149" x2="45.1326" y2="54.926" gradientUnits="userSpaceOnUse">
<stop stop-color="#F0D952"/>
<stop offset="0.81" stop-color="#E2A62F"/>
<stop offset="1" stop-color="#E1A12B"/>
</linearGradient>
<radialGradient id="paint53_radial_1002_7059" cx="0" cy="0" r="1" gradientUnits="userSpaceOnUse" gradientTransform="translate(41.2448 61.1438) rotate(31.929) scale(24.4581 24.4535)">
<stop stop-color="#723824"/>
<stop offset="0.56" stop-color="#4A281F"/>
<stop offset="1" stop-color="#2F281F"/>
</radialGradient>
<radialGradient id="paint54_radial_1002_7059" cx="0" cy="0" r="1" gradientUnits="userSpaceOnUse" gradientTransform="translate(60.4457 58.8647) rotate(-148.071) scale(7.08347 6.79886)">
<stop stop-color="#733824"/>
<stop offset="0.56" stop-color="#4A281F"/>
<stop offset="1" stop-color="#2F281F"/>
</radialGradient>
<radialGradient id="paint55_radial_1002_7059" cx="0" cy="0" r="1" gradientUnits="userSpaceOnUse" gradientTransform="translate(34.9077 43.5054) rotate(31.9291) scale(7.08347 6.79886)">
<stop stop-color="#733824"/>
<stop offset="0.56" stop-color="#4A281F"/>
<stop offset="1" stop-color="#2F281F"/>
</radialGradient>
</defs>
</svg>
