<svg width="500" height="426" viewBox="0 0 500 426" fill="none" xmlns="http://www.w3.org/2000/svg">
<path d="M468.496 246.889L486.312 239.059L468.773 231.362L460.936 213.486L453.231 231.048L435.378 239.553L452.954 246.636L461.417 264.451L468.496 246.889Z" fill="#EFC5C5" stroke="#6B5950" stroke-width="3" stroke-linecap="round" stroke-linejoin="round"/>
<path d="M17.0342 26.0067L32.1785 31.9091L26.364 16.9965L32.2868 1.80688L17.3713 7.62496L1.80576 2.09598L8.0055 16.6713L2.4799 32.1982L17.0342 26.0067Z" fill="#EFC5C5" stroke="#6B5950" stroke-width="3" stroke-linecap="round" stroke-linejoin="round"/>
<path d="M469.912 351.469C461.63 345.302 450.675 345.133 441.875 350.108C444.114 340.243 440.803 329.787 432.521 323.632C421.133 315.152 404.664 317.994 395.744 329.992C395.72 330.016 395.708 330.052 395.684 330.076C392.493 334.377 386.402 335.208 382.273 331.787L333 291L386.077 353.915C387.317 355.396 388.075 357.215 388.232 359.143C389.929 381.114 403.617 401.531 403.617 401.531C403.617 401.531 453.287 416.89 474.378 388.546C483.299 376.549 481.312 359.95 469.924 351.469H469.912Z" fill="#EFC5C5" stroke="#6B5950" stroke-width="3" stroke-linecap="round" stroke-linejoin="round"/>
</svg>
