<?xml version="1.0" encoding="UTF-8"?>
<svg xmlns="http://www.w3.org/2000/svg" xmlns:xlink="http://www.w3.org/1999/xlink" version="1.1" viewBox="0 0 377.6 342">
  <defs>
    <style>
      .cls-1, .cls-2, .cls-3, .cls-4, .cls-5, .cls-6, .cls-7, .cls-8, .cls-9 {
        fill: none;
      }

      .cls-10 {
        mask: url(#mask);
      }

      .cls-11, .cls-12, .cls-13, .cls-14, .cls-2, .cls-15, .cls-16, .cls-17, .cls-18, .cls-19, .cls-20, .cls-21, .cls-22, .cls-23, .cls-5, .cls-6, .cls-7, .cls-24, .cls-25, .cls-26, .cls-8, .cls-9 {
        stroke: #6b5950;
      }

      .cls-11, .cls-12, .cls-13, .cls-27, .cls-23, .cls-26 {
        fill: #fff;
      }

      .cls-11, .cls-12, .cls-22, .cls-4, .cls-5, .cls-6, .cls-7 {
        stroke-miterlimit: 10;
      }

      .cls-11, .cls-13, .cls-2, .cls-16, .cls-19, .cls-3, .cls-22, .cls-4, .cls-23, .cls-6, .cls-24, .cls-25, .cls-8 {
        stroke-width: 1.4px;
      }

      .cls-12, .cls-14, .cls-15, .cls-17, .cls-18, .cls-20, .cls-21, .cls-5, .cls-26, .cls-9 {
        stroke-width: 1.6px;
      }

      .cls-14 {
        fill: #6a3a47;
      }

      .cls-14, .cls-15, .cls-16, .cls-17, .cls-18, .cls-19, .cls-3, .cls-20, .cls-21, .cls-22, .cls-23, .cls-24, .cls-26, .cls-8, .cls-9 {
        stroke-linecap: round;
      }

      .cls-14, .cls-15, .cls-16, .cls-17, .cls-18, .cls-19, .cls-3, .cls-20, .cls-21, .cls-23, .cls-24, .cls-26, .cls-8, .cls-9 {
        stroke-linejoin: round;
      }

      .cls-15 {
        fill: #8baed2;
      }

      .cls-16, .cls-17, .cls-28 {
        fill: #9ba7ce;
      }

      .cls-29 {
        mask: url(#mask-1);
      }

      .cls-18, .cls-19, .cls-30 {
        fill: #efc5c5;
      }

      .cls-31 {
        clip-path: url(#clippath-1);
      }

      .cls-3, .cls-4 {
        stroke: #fff;
      }

      .cls-20 {
        fill: #c8d9ea;
      }

      .cls-32 {
        fill: #ab9a9f;
      }

      .cls-21 {
        fill: #edede6;
      }

      .cls-22, .cls-24, .cls-33 {
        fill: #6b5950;
      }

      .cls-7 {
        stroke-width: 1px;
      }

      .cls-25 {
        fill: #c09e85;
      }

      .cls-34 {
        fill: #6a8bc2;
      }

      .cls-35 {
        clip-path: url(#clippath);
      }
    </style>
    <mask id="mask" x="-21" y="-5.9" width="156" height="145.6" maskUnits="userSpaceOnUse">
      <g id="mask0_643_5196">
        <path class="cls-27" d="M135,105.9l-10.1-9.9c.3-2.1,0-4.3.4-6.4,26.7-180.4-22.4-50-50-50S22.9,15.7,13.7,25.7C5.6,34.6-21,97.7-21,110.6s50,.7,56.3,9.1c9.1,12.1,23.6,20,40,20s41.6-14.9,47.8-35.4l11.9,1.6Z"/>
      </g>
    </mask>
    <clipPath id="clippath">
      <rect class="cls-1" x="38.1" y="257.3" width="75" height="53.2"/>
    </clipPath>
    <mask id="mask-1" x="265.7" y="237.6" width="104.9" height="190.6" maskUnits="userSpaceOnUse">
      <g id="mask1_643_5196">
        <path class="cls-27" d="M320.6,237.6c-27.6,0-50,22.4-50,50s4.3,23.2,11.4,31.8h-16.3l29,11c7.6,4.6,16.4,7.2,25.9,7.2,27.6,0,50-22.4,50-50s-22.4-50-50-50Z"/>
      </g>
    </mask>
    <clipPath id="clippath-1">
      <rect class="cls-1" x="287.5" y="246.9" width="64.7" height="181.3"/>
    </clipPath>
  </defs>
  <!-- Generator: Adobe Illustrator 28.6.0, SVG Export Plug-In . SVG Version: 1.2.0 Build 709)  -->
  <g>
    <g id="_레이어_1" data-name="레이어_1">
      <path class="cls-23" d="M135,105.9l-10.1-9.9c.3-2.1.4-4.2.4-6.4,0-27.6-22.4-50-50-50s-50,22.4-50,50,22.4,50,50,50,41.6-14.9,47.8-35.4l11.9,1.6Z"/>
      <path class="cls-8" d="M97.3,94.5l-5.8,2.2"/>
      <g class="cls-10">
        <g>
          <path class="cls-27" d="M120.7,12c.1-.1.2-.2.3-.3.1-1,0-1.6-.7-1.6-1.6,0-3.3,9.2-3.9,11.4,0,0,0,.1.1.2,2.2-3,1.8-6.9,4.2-9.7Z"/>
          <path class="cls-27" d="M123.4,13.3c-1.1-1.3-2,2.2-2.2,2.7-.6,1.9-1.2,3.8-2.1,5.6,2.5-.9,2.7-4.2,4.2-6.4.2-1,.2-1.7,0-1.9Z"/>
          <path class="cls-27" d="M121.1,24.4c-.1.2-.2.4-.3.5,0-1.1,2-6.6,2.6-9.6-1.5,2.1-1.7,5.5-4.2,6.4,0,.2-.2.3-.2.5-.3-2.5,1.9-7.8,2.1-10.4-.1.1-.2.2-.3.3-2.4,2.8-2,6.7-4.2,9.7,0,0,0-.1-.1-.2,0,.1,0,.2-.1.3-1.6-1,0-7,0-9.7-.3.6-.7,1.1-.9,1.7-1.8,4-.4,8.3-2,12.3-.2.4-.6.8-1,.8-1.7-.4-2.4-1.8-3.1-3.2-.6-.9-1.4-2.4-2.6-2.2-1.8.3-.5,1.8,0,2.7,1.5,2.1,2.5,5.1,4.2,6.8,1.1,1.1,1.5.8,1.7,2.4.2,1.1,0,2.8-.4,7.2v.3c2.2,0,4.8,0,6.8.4.4-5.1,0-7,.9-8.5,1-1.6,1.4-3.8,2-5.6.5-1.5,2.2-5.2,2.2-7-1,1-1.8,2-2.3,3.5-.2.3-.6.5-1,.7Z"/>
          <path class="cls-27" d="M124,19.2c-.7-.8-1.9,3.4-2.9,5.1.4-.2.8-.4,1-.7.4-1.5,1.3-2.5,2.3-3.5,0-.5,0-.9-.4-1Z"/>
          <path class="cls-27" d="M115.5,10.7c-1.3.9-1.5,4-1.7,5.5-.4,2.3-.8,4.4-.9,6.7-.1,2.9-1.4,3.3-3.3,1.2-.1-.1-.2-.3-.3-.5.7,1.3,1.4,2.7,3.1,3.2.4,0,.8-.4,1-.8,1.6-4,.2-8.3,2-12.3.2-.6.6-1.1.9-1.7,0-.9-.2-1.4-.8-1.4Z"/>
          <path class="cls-30" d="M113.2,52.6c-.6,5.1-.4,10.9-2.8,15-2.6,4.7-7.5,8.7-8.1,14.6,0,1.4-1.4,2.4-2,3.6-1.4,2.2-1.2,4.7-3,6.1-.8.8-2.6-.8-3.6.4-1.4,1.6-2.6,3.6-4.7,2.4-1.2-.6-1.6-2.4-2.8-3.2-.4-.4-1.6.6-1.8,1-2.4,4.7-7.1,6.5-11.9,7.7-7.1,1.8-13-1.8-19.8-3.8-3.6-1-5.7,2.2-8.3,3.2-7.3,2.4-15.2,2.6-22.9,4-3,.4-4.5-3.8-4.9-6.3-.6-3,0-6.3.8-9.5,1-3,3.2-6.1,1.6-8.7-1-1.8-2.9-3.5-5.1-4.5C8.6,84.2.5,96.3,0,107c-.1,2.8.2,3.4,3,4.8,2,1,16.6,3,21.2,2.8,4.9-.2,14.1,1,14.1,1,0,0,4.2,2.4,7.5,4.9h0c.1,1.9.8,3.8,1.4,5.7.2.7.4,1.4.6,2.1q.9,4.5,1.2,10.4h41.4c1.2-5.9.9-5.5,2.4-11.7.3-1.1.5-2.2.7-3.3,0,.2,4-7.3,3.8-7.2,3.5-8.9,6.6-8.2,10.5-16.9,2.5-5.5,5.8-14.8,8.3-20.3,5.6-12.4,4.2-25,5.5-37.3,0,0,0,0,0,0-2.5.2-4.8.9-6.6,2.3-2.4,2-1.4,5.5-1.8,8.3Z"/>
          <path class="cls-30" d="M112.3,40.8c-.8,0-1.6,0-2.3,0,0,3-.8,6-1.1,8.9-.5,3.9-2.1,10-2.9,13.9-.2.7-1.4,1.8-1.5,2.7,0,.3.4.9.4,1.3-.1,1-1.5,2.4-2,3.2-1.3,2.1-6.2,11.8-8.2,16.9-1.4.2-1.1-.3-1.8,1.2-.6-.9-1.1-1.4-1.5-1.1-.8.5-1.4,1.5-1.9,2.4h-.2c-.7-1.3-1.8-3.4-3.3-3.4-1.8,0-6,3.2-7.1,4.6.8.9,1.8,2.1,2.3,2.5-4.7,2.4-7.7,4-12.6,4-4.5,0-8.2-1.7-11.7-4-.7,0-1.5-.3-2.4-.5-2.6-.6-5.8-1.6-7.8-2.1-2.9-.8-3.1.5-4.1,3.3-2.9-1.9-2.2.3-3.9,1.3-2.2,1.2-6.5,1.3-9,1.9-4,.9-5.6,1.3-9.8,1.7.2-.2.3-.3.5-.5-.4-.6-.9-1.1-1.4-1.6,1.7-3.9,2.4-8.8,3.5-12.8.8-3,1.9-6,2.9-9-.5-.2-1-.5-1.5-.7-2.3-1.1-4.6-2-6.8-2.4-.5-.1-1-.2-1.5-.3-.4.7-.8,1.5-1.3,2.3,2.2,1,4.1,2.7,5.1,4.5,1.6,2.6-.6,5.7-1.6,8.7-.8,3.2-1.4,6.5-.8,9.5.4,2.6,2,6.7,4.9,6.3,7.7-1.4,15.6-1.6,22.9-4,2.6-1,4.7-4.2,8.3-3.2,6.7,2,12.7,5.5,19.8,3.8,4.7-1.2,9.5-3,11.9-7.7.2-.4,1.4-1.4,1.8-1,1.2.8,1.6,2.6,2.8,3.2,2.2,1.2,3.4-.8,4.7-2.4,1-1.2,2.8.4,3.6-.4,1.8-1.4,1.6-4,3-6.1.6-1.2,2-2.2,2-3.6.6-5.9,5.5-9.9,8.1-14.6,2.4-4.2,2.2-9.9,2.8-15,.4-2.8-.6-6.3,1.8-8.3,1.9-1.4,4.1-2.1,6.6-2.3-.7-.3-1.5-.6-2.5-.8-2-.4-4.6-.4-6.8-.4Z"/>
          <path class="cls-33" d="M68.3,52.8c5.1-1.3,10.5-.3,15,2-3.9-3.5-9.2-4.5-14.4-3.4-3.5.8-6.3,4.2-5.7,7.9,0,0,0,0,0,0h.2c.3,0,.6-.3.9-.5.2-2.7,1-5.6,3.9-6.2Z"/>
          <path class="cls-33" d="M89.4,71.8l2.5.5c-.2-2.1-1.8-4.6-2.7-6.5-1.4-2.9-1.9-6-3.9-8.7-.6-.8-1.3-1.6-2-2.3-4.5-2.4-9.9-3.3-15-2-2.9.6-3.7,3.4-3.9,6.2.4-.3.8-.5,1.2-.8,2.8-1.7,5.1,2.9,6.7,5.2.4.5.7,1,1,1.5.7,1.3,1.3,2.7,1.9,4,.4.8.8,1.6,1.2,2.4,0,.1.1.2.2.3.3.5.7,1.1,1.2,1.5,1.2,1.4,2.8,2.4,4.6,2.8.5.1,1.1.3,1.7.4,1.2.2,2.5.4,3.4.2,0-.9-.4-1.8-.8-3,1.8,1.1,3.2,1.2,3.2,1.2l-.5-3Z"/>
          <path class="cls-33" d="M82.4,76c.5.1,1.1.3,1.7.4-.8,5.4-5.8,7.5-7,8.4-.2-.3-.4-.6-.5-.9-.1-.2-.3-.5-.5-.7-.1.3-.4.6-.5,1-1.5-1.6-2.1-5-2.1-6.8v-.3c1.5.1,4-2.6,4.3-4,1.2,1.4,2.8,2.4,4.6,2.8Z"/>
          <path class="cls-30" d="M78.7,91.5c.8.9,1.8,2.1,2.3,2.5-4.7,2.4-7.7,4-12.6,4-4.5,0-8.2-1.7-11.7-4,.7-.6,1.8-1.3,2.7-1.9,1-.7,1.8-1.2,1.8-1.2,0,0,.8,0,1.8.2,1.9.2,4.9.4,6.5.4,2.7,0,4.6-.4,7-1.2.3,0,.6-.2.9-.3,0,0,.6.7,1.3,1.5Z"/>
          <path class="cls-27" d="M76.5,83.8c-.1-.2-.3-.5-.5-.7-.1.3-.4.6-.5,1-1.5-1.6-2.1-5-2.1-6.8v-.3c1.5.1,4-2.6,4.3-4-.4-.5-.8-1-1.2-1.5,0-.1-.1-.2-.2-.3-.5-.8-.9-1.6-1.2-2.4-.7,1-2.7,3.4-2.7,3.4,0,0-1.5.5-2.7.6,0,0,2.6-4.8,3.5-8-.3-.5-.6-1-1-1.5-1-1.3-2.2-3.5-3.6-4.7-3.9,1.7-6.8,4.7-9.2,8.8-.7,1.1-2.9,1-4.8.8,0,.2,0,.4,0,.7.2,1.2.1,2.9.6,3.9,1.4,0,6.4-.3,4.2,2.4-1.7,2-4.1-.2-4.1,2.9,0,.9-.2,2.7.4,3.4.6.8,2.5,1,3.5,1.2,1.1.3,2.2.6,2.7,1.1.7.7,1.2,3.9.9,6.7v.4c1.9.2,4.8.4,6.5.4,2.7,0,4.6-.4,7-1.2-.4-2.3-.1-3.9,0-6.4ZM62.2,66.3c-.3.6-.7.9-1,.8-.3-.1-.3-.7,0-1.3.3-.6.7-.9,1-.8.3.1.3.7,0,1.3Z"/>
          <path class="cls-27" d="M59.6,67.4c2.3-4.1,5.3-7,9.2-8.8-1-.8-2-1.2-3.2-.5-.8.5-1.5.9-2.2,1.4-1.4,1.1-2.4,2.3-3.4,4.2-.9,1.9-1.9,2.5-3.9,2.4-1.5,0-1.5.8-1.4,2.1,1.9.2,4,.2,4.8-.8Z"/>
          <path class="cls-33" d="M73.3,64.8c.7,1.3,1.3,2.7,1.9,4-.7,1-2.7,3.4-2.7,3.4,0,0-1.5.5-2.7.6,0,0,2.6-4.8,3.5-8Z"/>
          <path class="cls-33" d="M62.2,65c.3.1.3.7,0,1.3-.3.6-.7.9-1,.8-.3-.1-.3-.7,0-1.3.3-.6.7-.9,1-.8Z"/>
          <path class="cls-34" d="M57.8,90.3c.4.4,1.1,1.2,1.6,1.8-.9.6-1.9,1.3-2.7,1.9-.7,0-1.5-.3-2.4-.5-.3-1.1,1.1-3,1.8-3.7.6-.6,1.2,0,1.7.5Z"/>
          <path class="cls-27" d="M49,138.6h-2.7s.3-5.5.5-6.9c.2-1.7.5-5.6.5-5.6.2.7.4,1.4.6,2.1q.9,4.5,1.2,10.4Z"/>
          <path class="cls-32" d="M46.7,66.5l-1-1.6.8-.5h.2c.5.6.6,1.5.3,2.6l-.3-.5Z"/>
          <path class="cls-32" d="M46.7,66.5l.3.4c-.2.9-.6,1.5-1.2,1.9h0c0,0-.7-1.2-.7-1.2l1.6-1.2Z"/>
          <path class="cls-32" d="M45.7,64.9l1,1.6-1.6,1.2-1-1.6,1.6-1.2Z"/>
          <path class="cls-32" d="M44.5,63.2l-.6-.9c.4.1.7.3,1.1.5.7.4,1.3.9,1.7,1.5h-.2c0,.1-.8.7-.8.7l-1.2-1.8Z"/>
          <path class="cls-32" d="M45.8,68.9h0c-.5.4-1.1.6-1.8.6h0s-.5-.7-.5-.7l1.5-1,.7,1.2Z"/>
          <path class="cls-32" d="M44.5,63.2l1.2,1.8-1.6,1.2-1.1-1.8,1.6-1.1Z"/>
          <path class="cls-32" d="M44.1,66.1l1,1.6-1.5,1-1-1.6,1.5-1.1Z"/>
          <path class="cls-32" d="M43.9,62.3l.6.9-1.6,1.1-1.1-1.7,1-.7c.3.1.7.2,1,.4Z"/>
          <path class="cls-27" d="M44.1,69.5h0c-.4,0-.9,0-1.3-.1h0s.8-.6.8-.6l.5.7Z"/>
          <path class="cls-32" d="M42.9,64.3l1.1,1.8-1.5,1.1-1.2-1.8,1.5-1.1Z"/>
          <path class="cls-32" d="M42.6,67.2l1,1.6-.8.6h0c-.4,0-.8-.1-1.3-.3h0s-.5-.8-.5-.8l1.6-1.1Z"/>
          <path class="cls-32" d="M41.9,62.6l1.1,1.7-1.5,1.1-1.1-1.6,1.6-1.1h0Z"/>
          <path class="cls-32" d="M42.9,61.9l-1,.7-.2-.3-.6-1c.5.1,1,.3,1.5.4.1,0,.3,0,.4.1Z"/>
          <path class="cls-32" d="M41.4,65.4l1.2,1.8-1.6,1.1-1.2-1.8,1.7-1.2Z"/>
          <path class="cls-32" d="M41.7,62.3l.2.3h0s-1.6,1.1-1.6,1.1l-.2-.3-.6-.9c.2-.6.4-1.1.5-1.6h.2c.2.1.5.2.8.3l.6,1Z"/>
          <path class="cls-27" d="M41,68.3l.5.8h0c-.4-.1-.8-.2-1.1-.4l.6-.4Z"/>
          <path class="cls-32" d="M40.3,63.7l1.1,1.6-1.7,1.2-.9-1.3h0c0-.2,0-.3.1-.5h0s1.4-1,1.4-1h0Z"/>
          <path class="cls-32" d="M39.7,66.5l1.2,1.8-.6.4c-.8-.3-1.6-.6-2.5-.9l1.8-1.3Z"/>
          <path class="cls-32" d="M40.1,63.5l.2.3h0s-1.4,1-1.4,1h0c.2-.7.5-1.5.7-2.2l.6.9Z"/>
          <path class="cls-30" d="M39.5,62.6c-.2.7-.5,1.4-.7,2.2,0,.1,0,.3-.1.4-.3,1-.6,1.9-.9,2.6-.3.9-.5,1.5-.5,1.5-2.2,0-4.3-1.3-4.3-1.3l.4-1.2c.7,0,2.3.7,2.6,0,.5-1-1-1.8-1.9-2.1.3-1,1.1-3.3,1.6-4.9.3-1,.6-1.8.6-1.8,0,0,2,.3,4.3,1.4,0,0-.2.7-.5,1.5-.1.5-.3,1-.5,1.6Z"/>
          <path class="cls-32" d="M38.8,65.2l.9,1.3-1.8,1.3h0c.2-.8.5-1.7.9-2.7h0Z"/>
          <path class="cls-27" d="M26.6,54.1c1.4,0-.8,1.2-.4,1.4.8,1,2.2.2,3-.8.2-.2,1,0,1,.2,0,.8-1,1.2-1.6,1.8-.6.4.6.8,1,.6.4-.6.8-.8,1.4-1.2h1c0,1-1,1.6-1.8,1.6.2.4-.4.6-.4.8,1.4.8,2.9-.8,4.4-.8-.2-.5-.5-.8-.9-.9,0-.8,0-2.3-.6-2.8-.3.1-.6.3-1,.5-.4-.9-.9-1.5-1.5-2-.5.4-1.1.9-1.8,1.4-.5-.9-1.5-1.2-2.4-.8-1.3,1.4-2.2,2-2.8,2.5,1.1.8,2.4-1.4,3.3-1.4Z"/>
          <path class="cls-27" d="M34,64.8c-.3,0-.5-.2-.7-.2-.5,0-1.4.2-1.9,0-.3-.2-.5-.8-.7-1,0,0-.6-2.7,1.9-4.7.7.2,1.3.4,1.8.6h0c0-.8-.2-1.4-.4-1.7-1.5,0-3,1.6-4.4.8,0-.2.6-.4.4-.8.8,0,1.8-.6,1.8-1.6h-1c-.6.4-1,.6-1.4,1.2-.4.2-1.6-.2-1-.6.6-.6,1.6-1,1.6-1.8s-.8-.4-1-.2c-.8,1-2.2,1.8-3,.8-.4-.2,1.8-1.4.4-1.4s-2.2,2.2-3.3,1.4c0,0,0,0-.1.1-.3.2-.5.5-.7.8-.4.7-.8,2.4-1.2,4.2-.5,2.5-.9,5-.9,5,0,0-.8,2.2-3.7,6.8h0c2.3.5,4.5,1.4,6.8,2.5,1.6-3.7,2.6-6.8,3.1-6.9.5-.1,2.7-.2,3.4-.3,1-.1,2.2-.9,3.3-.9.7,0,2.3.7,2.6,0,.5-1-.9-1.8-1.9-2.2Z"/>
          <path class="cls-33" d="M35.6,59.8h0c-.5,1.7-1.3,4-1.6,4.9-.3,0-.5-.2-.7-.2-.5,0-1.4.2-1.9,0-.3-.2-.5-.8-.7-1,0,0-.6-2.7,1.9-4.7.7.2,1.3.4,1.8.6.4.1.8.3,1.1.4Z"/>
          <path class="cls-33" d="M23.1,55.7h0c-.3.3-.5.5-.7.8-.4.7-.8,2.4-1.2,4.2-.8-.4-3.4-1.6-5.5-2.6,0,0-.1-2.4,1.8-4.4,2,.7,4.6,1.7,5.5,2Z"/>
          <path class="cls-30" d="M17.7,53.6c-1.9,2-1.8,4.3-1.8,4.4-1.2-.6-2.2-1.1-2.6-1.3,0-2.8,1.8-4.1,1.8-4.1,0,0,1.2.4,2.6.9Z"/>
          <path class="cls-8" d="M65.6,58.2c-.8.5-1.5.9-2.2,1.4-1.4,1.1-2.4,2.3-3.4,4.2-.9,1.9-1.9,2.5-3.9,2.4-1.7,0-1.5,1-1.3,2.7.2,1.2.1,2.9.6,3.9,1.4,0,6.4-.3,4.2,2.4-1.7,2-4.1-.2-4.1,2.9,0,.9-.2,2.7.4,3.4.6.8,2.5,1,3.5,1.2,1.1.3,2.2.6,2.7,1.1.7.7,1.2,3.9.9,6.7"/>
          <path class="cls-8" d="M63.2,59.2c0,0,0,.2,0,.2s0,0,0,0c-.6-3.7,2.2-7.1,5.7-7.9,6.3-1.4,12.6.3,16.4,5.6,1.9,2.7,2.5,5.8,3.9,8.7.9,1.9,2.5,4.4,2.7,6.5l-2.5-.5.5,3s-1.4-.1-3.2-1.2c.4,1.2.8,2.2.8,3-1,.1-2.2,0-3.4-.2-.6-.1-1.2-.2-1.7-.4-1.8-.4-3.3-1.5-4.6-2.8-.4-.5-.8-1-1.2-1.5,0-.1-.1-.2-.2-.3-.5-.8-.9-1.6-1.2-2.4-.6-1.4-1.2-2.7-1.9-4-.3-.5-.6-1-1-1.5-1.7-2.2-3.9-6.9-6.7-5.2"/>
          <path class="cls-8" d="M73.3,64.8c-.9,3.2-3.5,8-3.5,8,1.2-.1,2.7-.6,2.7-.6,0,0,2-2.3,2.7-3.4"/>
          <path class="cls-8" d="M73.5,77.1c1.5.1,4-2.6,4.3-4"/>
          <path class="cls-8" d="M73.1,74.4c1.9.3,2.8-1.5,3.3-3.2"/>
          <path class="cls-8" d="M73.5,77.4c0,1.9.6,5.2,2.1,6.8,0-.4.3-.7.5-1,.2.2.4.4.5.7.2.3.3.6.5.9,1.2-.9,6.1-3,7-8.4"/>
          <path class="cls-8" d="M76.5,83.8c0,2.5-.3,4.1,0,6.4"/>
          <path class="cls-8" d="M78.7,91.5c-.7-.8-1.3-1.5-1.3-1.5-.3.1-.6.2-.9.3-2.4.8-4.3,1.2-7,1.2-1.6,0-4.6-.2-6.5-.4-1.1,0-1.8-.2-1.8-.2,0,0-.8.5-1.8,1.2-.9.6-1.9,1.3-2.7,1.9,3.5,2.4,7.2,4,11.7,4,4.9,0,7.9-1.7,12.6-4-.5-.5-1.5-1.6-2.3-2.5Z"/>
          <path class="cls-8" d="M59.4,92.1c-.5-.5-1.2-1.4-1.6-1.8-.5-.5-1.1-1.1-1.7-.5-.8.7-2.1,2.6-1.8,3.7"/>
          <path class="cls-8" d="M56.7,94c-.7,0-1.5-.3-2.4-.5-2.6-.6-5.8-1.6-7.8-2.1-2.9-.8-3.1.5-4.1,3.3-2.9-1.9-2.2.3-3.9,1.3-2.2,1.2-6.5,1.3-9,1.9-4,.9-5.6,1.3-9.8,1.7.2-.2.3-.3.5-.5-.4-.6-.9-1.1-1.4-1.6-.7-.6-1.5-1.1-2.2-1.5-1.2,1-2.6,2.3-3.4,3.6"/>
          <path class="cls-8" d="M13.5,102.4c.3-.1,3.4-1.9,3.9-2.1"/>
          <path class="cls-8" d="M18.7,97.4c1.7-3.9,2.4-8.8,3.5-12.8.8-3,1.9-6,2.9-9-.5-.2-1-.5-1.5-.7-2.3-1.1-4.6-2-6.8-2.4-.5-.1-1-.2-1.5-.3C10,82.2.5,95.4,0,106.9c-.1,2.8.2,3.4,3,4.8,2,1,16.6,3,21.2,2.8,4.9-.2,14.1,1,14.1,1,0,0,4.2,2.4,7.5,4.9,1.2.9,2.4,1.9,3.1,2.7"/>
          <path class="cls-8" d="M45.9,120.5c.1,1.9.8,3.8,1.4,5.6.2.7.4,1.4.6,2.1q.9,4.5,1.2,10.4"/>
          <path class="cls-8" d="M46.3,138.6s.3-5.5.5-6.9c.2-1.7.5-5.6.5-5.6"/>
          <path class="cls-8" d="M78.7,91.5h0c1.1-1.4,5.3-4.7,7.1-4.6,1.5,0,2.6,2.1,3.3,3.4,0,.1.1.3.2.4,2.8,5,4.3,9.2,5.3,14.8"/>
          <path class="cls-8" d="M93.6,123.6c-.2,1.1-.5,2.2-.7,3.3-1.6,6.2-1.3,5.9-2.4,11.7"/>
          <path class="cls-8" d="M94.9,110.4c0,4.6-.4,8.9-1.3,13.2"/>
          <path class="cls-8" d="M92.8,89c1.2,1.9,2.6,5.7,2.7,8"/>
          <path class="cls-8" d="M89.4,90.3c.5-.8,1.1-1.8,1.9-2.4.4-.3.9.2,1.5,1.1"/>
          <path class="cls-8" d="M92.8,89c.7-1.5.4-1,1.8-1.2,3-.3,7.3,1.4,10.2,2.3"/>
          <path class="cls-8" d="M94.6,87.8c1.9-5,6.9-14.7,8.2-16.9.5-.9,1.9-2.2,2-3.2,0-.4-.4-1-.4-1.3.1-.9,1.4-2.1,1.5-2.7"/>
          <path class="cls-8" d="M106.9,68.1c5.4,1,6.8-.4,10.4-1.7.3-.2-.9-.8-1-1"/>
          <path class="cls-8" d="M109.2,66.4c.9-.3,1.9-.4,2.7-.7,1-.3,3.2-.8,3.4-2"/>
          <path class="cls-8" d="M105.9,63.7c.8-3.9,2.4-10,2.9-13.9.3-3,1-6,1.1-8.9.7,0,1.5,0,2.3,0,2.2,0,4.8,0,6.8.4,1,.2,1.8.4,2.5.8-1.2,12.3.2,24.9-5.5,37.3-2.5,5.5-5.8,14.8-8.3,20.3-3.9,8.7-7,8-10.5,16.9.2,0-3.8,7.4-3.8,7.2h0"/>
          <path class="cls-8" d="M112.3,40.5c.5-4.3.6-6,.4-7.2-.3-1.6-.6-1.3-1.7-2.4-1.7-1.7-2.8-4.8-4.2-6.8-.6-.8-1.9-2.4,0-2.7,1.4-.2,2.3,1.9,2.9,2.7,1.8,2.2,3.1,1.7,3.3-1.2.1-2.3.5-4.4.9-6.7.3-1.5.5-4.6,1.7-5.5,2.2-.2-1.2,9.7.8,11.1.6-1.4,2.3-11.7,4-11.7,2.4,0-1.9,8.6-1.4,12,1-1.9,1.7-4,2.3-6.1.2-.5,1.1-4,2.2-2.7.8,1-2.6,10.1-2.7,11.5,1.1-1.3,2.4-6.5,3.2-5.6,1.3.4-1.2,5.9-1.9,7.9-.6,1.8-1.1,4-2,5.6-.9,1.5-.6,3.3-.9,8.5,0,0,0,.1,0,.2"/>
          <path class="cls-8" d="M16.7,72.5c2.8-4.6,3.7-6.8,3.7-6.8,0,0,.4-2.5.9-5,.4-1.7.8-3.5,1.2-4.2.2-.3.4-.5.7-.8.6-.5,1.5-1,2.9-2.6.9-.4,1.9,0,2.4.8"/>
          <path class="cls-8" d="M25.9,55.3c.8-.3,1.7-.8,2.5-1.4.6-.5,1.2-1,1.8-1.4.6.5,1.1,1,1.5,2"/>
          <path class="cls-8" d="M27.8,56.7c.9-.4,2.4-1.4,3.8-2.2.3-.2.7-.4,1-.5.5.6.6,2.1.6,2.8"/>
          <path class="cls-8" d="M29.8,57.9c1.5-.5,2.7-1.2,3.5-1.1.6.1,1,.8,1.2,2.5"/>
          <path class="cls-8" d="M34,64.8c-.3,0-.5-.2-.7-.2-.5,0-1.4.2-1.9,0-.3-.2-.5-.8-.7-1,0,0-.6-2.7,1.9-4.7"/>
          <path class="cls-8" d="M26.7,68.1c.5-.1,2.7-.2,3.4-.3,1-.1,2.2-.9,3.3-.9.7,0,2.3.7,2.6,0,.5-1-1-1.8-1.9-2.1"/>
          <path class="cls-8" d="M26.7,68.1c-.5.1-1.4,3.2-3.1,6.9,0,0,0,0,0,0"/>
          <path class="cls-8" d="M34,64.8c.3-1,1.1-3.3,1.6-4.9.3-1,.6-1.8.6-1.8,0,0,2,.3,4.3,1.4,0,0-.2.7-.5,1.5-.1.5-.3,1-.5,1.6-.2.7-.5,1.4-.7,2.2,0,.1,0,.3-.1.4-.3,1-.6,1.9-.9,2.6-.3.9-.5,1.5-.5,1.5-2.2,0-4.3-1.3-4.3-1.3l.4-1.2"/>
          <path class="cls-8" d="M23.1,55.7c-.8-.4-3.4-1.3-5.5-2-1.5-.5-2.6-.9-2.6-.9,0,0-1.8,1.3-1.8,4.1.3.2,1.4.7,2.6,1.3,2,1,4.6,2.2,5.5,2.6"/>
          <path class="cls-8" d="M35.6,59.8c-.3-.1-.7-.2-1.1-.4-.6-.2-1.2-.4-1.8-.6"/>
          <path class="cls-8" d="M43.9,62.2c-.3-.1-.7-.3-1-.4-.1,0-.3,0-.4-.1-.5-.2-1-.3-1.5-.4-.3,0-.6-.2-.8-.3"/>
          <path class="cls-8" d="M37.9,67.8c.9.3,1.7.6,2.5.9.4.1.8.3,1.1.4.4.1.9.2,1.3.3.5,0,.9.1,1.3.1.7,0,1.3-.2,1.8-.6.5-.4.9-1,1.2-1.9.3-1.1.1-2-.3-2.7-.4-.6-1-1.1-1.7-1.5-.3-.2-.7-.4-1.1-.5"/>
          <path class="cls-8" d="M46.5,64.4l-.8.5-1.6,1.2-1.5,1.1-1.6,1.1-.6.4"/>
          <path class="cls-8" d="M44.9,62.9l-.4.3-1.6,1.1-1.5,1.1-1.7,1.2-1.8,1.3"/>
          <path class="cls-8" d="M42.9,61.9l-1,.7h0s-1.6,1.1-1.6,1.1h0s-1.4,1-1.4,1"/>
          <path class="cls-8" d="M47,66.3l-.3.2-1.6,1.2-1.5,1-.8.6"/>
          <path class="cls-8" d="M45.8,68.9l-.7-1.2-1-1.6-1.1-1.8-1.1-1.7-.2-.3-.6-1"/>
          <path class="cls-8" d="M44.1,69.5l-.5-.7-1-1.6-1.2-1.8-1.1-1.6-.2-.3-.6-.9h0"/>
          <path class="cls-8" d="M41.5,69.1l-.5-.8-1.2-1.8-.9-1.3"/>
          <path class="cls-8" d="M47,67l-.3-.5-1-1.6-1.2-1.8-.6-.9h0"/>
          <path class="cls-8" d="M45.7,93.5c4.2,6.3,2.5,15.2,2.2,22.2"/>
          <path class="cls-8" d="M53.4,106.9c1.1.7,3.1.6,4.4.9,3.4.6,7,1,10.3,1.9"/>
          <path class="cls-8" d="M71,109.8c7.3-.2,13.7-5.3,20.1-8.2"/>
          <path class="cls-8" d="M80.1,109.8c-.6,2.2-.7,4.7-1.1,6.9-.7,4.9-1.8,10-1.7,15"/>
          <path class="cls-8" d="M73.6,115.8c.1,6.4-1.1,12.8-1.8,19.1"/>
          <path class="cls-8" d="M15.8,58.1c0,0-.1-2.4,1.8-4.4"/>
          <path class="cls-8" d="M27.7,57.8c-.3,0-.8,0-1,.4-.2.3,0,1.2,0,1.6"/>
          <path class="cls-8" d="M63.2,61.6c.2,0,.4,0,.7.2.7.5.9,1.7.8,2.5"/>
          <path class="cls-8" d="M64,81.2c1.6,0,2.8-.4,3.9-.5.4,0,1,0,1.4-.1,1-.5,1.6-2.4,2.3-3.2"/>
          <path class="cls-8" d="M68.4,85.2c-.6,1.9-1.8,4.4-2.7,6"/>
          <path class="cls-8" d="M67,57.6c-.2-.3,0-1,.3-1.3.8-1.2,2.2-.6,3.2-.1,1.9.9,3.3,2.2,4.2,4,1.4,2.8,2.8,5.4,5,7.8"/>
          <path class="cls-8" d="M71.7,55.2c3.1,1.2,5,3.8,6.4,6.8"/>
          <path class="cls-28" d="M69.7,118.7c0-.6-1.1-1-2.6-1.2-.1-2.8-.6-4.9-1.3-4.9s-1.1,2.1-1.3,4.9c-1.5.2-2.6.6-2.6,1.2s1.1,1,2.6,1.2c.1,2.8.6,4.9,1.3,4.9s1.1-2.1,1.3-4.9c1.5-.2,2.6-.7,2.6-1.2Z"/>
          <path class="cls-28" d="M58.2,128.9c0-.4-.7-.7-1.7-.8,0-1.9-.4-3.3-.9-3.3s-.8,1.4-.9,3.3c-1,.1-1.7.4-1.7.8s.7.7,1.7.8c0,1.9.4,3.3.9,3.3s.8-1.4.9-3.3c1-.1,1.7-.4,1.7-.8Z"/>
          <path class="cls-27" d="M59.7,119.6c0-.2-.5-.5-1.1-.5,0-1.2-.3-2.2-.6-2.2s-.5.9-.6,2.2c-.7,0-1.1.3-1.1.5s.5.5,1.1.5c0,1.2.3,2.2.6,2.2s.5-.9.6-2.2c.7,0,1.1-.3,1.1-.5Z"/>
          <path class="cls-28" d="M44.6,106.7c0-.5-.9-.9-2.1-1,0-2.3-.5-4-1-4s-.9,1.7-1,4c-1.2.1-2.1.5-2.1,1s.9.9,2.1,1c0,2.3.5,4,1,4s.9-1.7,1-4c1.2-.1,2.1-.5,2.1-1Z"/>
          <path class="cls-27" d="M36.6,102.2c0-.3-.6-.6-1.4-.7,0-1.5-.3-2.7-.7-2.7s-.6,1.1-.7,2.7c-.8,0-1.4.4-1.4.7s.6.6,1.4.7c0,1.5.3,2.7.7,2.7s.6-1.1.7-2.7c.8,0,1.4-.4,1.4-.7Z"/>
          <path class="cls-28" d="M28.9,108.6c0-.3-.6-.6-1.4-.7,0-1.5-.3-2.7-.7-2.7s-.6,1.1-.7,2.7c-.8,0-1.4.4-1.4.7s.6.6,1.4.7c0,1.5.3,2.7.7,2.7s.8-1.4.9-2.9c.8,0,1.2-.1,1.2-.4Z"/>
          <path class="cls-28" d="M12,97c0-.5-1-1-2.4-1.1-.1-2.6-.6-4.6-1.2-4.6s-1.1,2-1.2,4.6c-1.4.2-2.4.6-2.4,1.1s1,1,2.4,1.1c.1,2.6.6,4.6,1.2,4.6s1.1-2,1.2-4.6c1.4-.2,2.4-.6,2.4-1.1Z"/>
          <path class="cls-28" d="M19.8,86.5c0-.4-.8-.8-1.9-.9,0-2-.5-3.6-.9-3.6s-.8,1.5-.9,3.6c-1.1.1-1.9.5-1.9.9s.8.8,1.9.9c0,2,.5,3.6.9,3.6s.8-1.5.9-3.6c1.1-.1,1.9-.5,1.9-.9Z"/>
          <path class="cls-27" d="M17.6,77.1c0-.2-.4-.4-1-.5,0-1.1-.2-1.8-.5-1.8s-.4.8-.5,1.8c-.6,0-1,.2-1,.5s.4.4,1,.5c0,1.1.2,1.8.5,1.8s.4-.8.5-1.8c.6,0,1-.2,1-.5Z"/>
          <path class="cls-27" d="M14.3,106.9c0-.3-.6-.6-1.4-.7,0-1.5-.4-2.7-.7-2.7s-.6,1.2-.7,2.7c-.8,0-1.4.4-1.4.7s.6.6,1.4.7c0,1.5.4,2.7.7,2.7s.6-1.2.7-2.7c.8,0,1.4-.4,1.4-.7Z"/>
          <path class="cls-28" d="M88.2,96c0-.4-.8-.8-1.9-.9,0-2-.5-3.6-.9-3.6s-.8,1.5-.9,3.6c-1.1.1-1.9.5-1.9.9s.8.8,1.9.9c0,2,.5,3.6.9,3.6s.8-1.5.9-3.6c1.1-.1,1.9-.5,1.9-.9Z"/>
          <path class="cls-27" d="M80.4,101.5c0-.3-.6-.5-1.3-.6,0-1.5-.3-2.6-.7-2.6s-.6,1.1-.7,2.6c-.8,0-1.3.3-1.3.6s.6.5,1.3.6c0,1.5.3,2.6.7,2.6s.6-1.1.7-2.6c.8,0,1.3-.3,1.3-.6Z"/>
          <path class="cls-27" d="M89.4,112.3c0-.4-.8-.8-1.9-.9,0-2.1-.5-3.7-.9-3.7s-.9,1.6-.9,3.7c-1.1.1-1.9.5-1.9.9s.8.8,1.9.9c0,2.1.5,3.7.9,3.7s.9-1.6.9-3.7c1.1-.1,1.9-.5,1.9-.9Z"/>
          <path class="cls-28" d="M85.9,121.9c0-.3-.6-.5-1.3-.6,0-1.5-.3-2.6-.7-2.6s-.6,1.1-.7,2.6c-.8,0-1.3.3-1.3.6s.6.5,1.3.6c0,1.5.3,2.6.7,2.6s.6-1.1.7-2.6c.8,0,1.3-.3,1.3-.6Z"/>
          <path class="cls-27" d="M88.9,131.7c0-.4-.8-.8-2-.9,0-2.2-.5-3.8-1-3.8s-.9,1.6-1,3.8c-1.2.1-2,.5-2,.9s.8.8,2,.9c0,2.2.5,3.8,1,3.8s.9-1.6,1-3.8c1.2-.1,2-.5,2-.9Z"/>
          <path class="cls-28" d="M104.1,97.9c0-.5-1-1-2.4-1.1-.1-2.6-.6-4.6-1.2-4.6s-1.1,2-1.2,4.6c-1.4.2-2.4.6-2.4,1.1s1,1,2.4,1.1c.1,2.6.6,4.6,1.2,4.6s1.1-2,1.2-4.6c1.4-.2,2.4-.6,2.4-1.1Z"/>
          <path class="cls-27" d="M58.3,98c0-.2-.4-.4-1-.5,0-1.1-.2-1.8-.5-1.8s-.4.8-.5,1.8c-.6,0-1,.2-1,.5s.4.4,1,.5c0,1.1.2,1.8.5,1.8s.4-.8.5-1.8c.6,0,1-.2,1-.5Z"/>
          <path class="cls-27" d="M54.2,99.6c0-.3-.6-.6-1.4-.7,0-1.5-.3-2.6-.7-2.6s-.6,1.1-.7,2.6c-.8,0-1.4.3-1.4.7s.6.6,1.4.7c0,1.5.3,2.6.7,2.6s.6-1.1.7-2.6c.8,0,1.4-.3,1.4-.7Z"/>
          <path class="cls-27" d="M66.1,104.6c0-.2-.4-.4-1-.5,0-1.1-.2-1.8-.5-1.8s-.4.8-.5,1.8c-.6,0-1,.2-1,.5s.4.4,1,.5c0,1.1.2,1.8.5,1.8s.4-.8.5-1.8c.6,0,1-.2,1-.5Z"/>
          <path class="cls-27" d="M104.7,82.2c0-.4-.8-.7-1.9-.9,0-2-.5-3.5-.9-3.5s-.8,1.5-.9,3.5c-1.1.1-1.9.5-1.9.9s.8.7,1.9.9c0,2,.5,3.5.9,3.5s.8-1.5.9-3.5c1.1-.1,1.9-.5,1.9-.9Z"/>
          <path class="cls-28" d="M108,77.1c0-.3-.5-.5-1.3-.6,0-1.4-.3-2.4-.6-2.4s-.6,1-.6,2.4c-.7,0-1.3.3-1.3.6s.5.5,1.3.6c0,1.4.3,2.4.6,2.4s.6-1,.6-2.4c.7,0,1.3-.3,1.3-.6Z"/>
          <path class="cls-28" d="M110.6,87.4c0-.2-.2-.6-.9-.7,0-1.2-.5-1.8-.7-1.8s-.5.9-.5,2c-.6,0-1.1.3-1.1.5s.4.4,1.1.5c0,1.2.3,2,.5,2s.5-.9.5-2c.6,0,1.1-.3,1.1-.5Z"/>
          <path class="cls-27" d="M116.4,74.3c0-.4-.8-.7-1.9-.9,0-2-.5-3.5-.9-3.5s-.8,1.5-.9,3.5c-1.1.1-1.9.5-1.9.9s.8.7,1.9.9c0,2,.5,3.5.9,3.5s.8-1.5.9-3.5c1.1-.1,1.9-.5,1.9-.9Z"/>
          <path class="cls-27" d="M116.2,48.6c0-.4-.8-.7-1.9-.9,0-2-.5-3.5-.9-3.5s-.8,1.5-.9,3.5c-1.1.1-1.9.5-1.9.9s.8.7,1.9.9c0,2,.5,3.5.9,3.5s.8-1.5.9-3.5c1.1-.1,1.9-.5,1.9-.9Z"/>
          <path class="cls-28" d="M119,55.8c0-.3-.4-.8-1.3-.9,0-1.6-.6-2.6-.9-2.6s-.7,1.2-.7,2.8c-.9.1-1.5.4-1.5.7s.6.6,1.5.7c0,1.6.4,2.8.7,2.8s.7-1.2.7-2.8c.9,0,1.5-.4,1.5-.7Z"/>
          <path class="cls-8" d="M108.8,49.8s5.9-1,12.3.8"/>
          <path class="cls-8" d="M11.3,79.6s7.9,1.1,11.3,3.6"/>
          <path class="cls-27" d="M66.3,134.8c-.1-2.5-.6-4.4-1.1-4.4s-1,1.9-1.1,4.4c-1.3.2-2.3.6-2.3,1.1s1,.9,2.3,1.1c0,.6,0,1.3.1,1.8l2-.2c0-.5.1-1,.1-1.6,1.3-.2,2.3-.6,2.3-1.1s-1-.9-2.3-1.1Z"/>
        </g>
      </g>
      <path class="cls-8" d="M32.3,115.3c8.7,14.6,24.7,24.4,43,24.4s41.6-14.9,47.8-35.3l11.9,1.6-10.1-9.9c.3-2.1.4-4.2.4-6.4"/>
      <path class="cls-23" d="M325.6,38.1c-27.6,0-50,22.4-50,50s12.5,38.3,30.3,46l-2.5,12.1,11.2-9.3c3.5.8,7.2,1.2,11,1.2,27.6,0,50-22.4,50-50s-22.4-50-50-50Z"/>
      <path class="cls-23" d="M320.6,237.4c-27.6,0-50,22.4-50,50s4.3,23.2,11.4,31.8h-16.3l29,11c7.6,4.6,16.4,7.2,25.9,7.2,27.6,0,50-22.4,50-50s-22.4-50-50-50Z"/>
      <path class="cls-23" d="M107.6,249.3l6.5-11.9-14.2,6.5c-7.3-4.1-15.7-6.5-24.6-6.5-27.6,0-50,22.4-50,50s22.4,50,50,50,50-22.4,50-50-6.9-29-17.7-38.2Z"/>
      <path class="cls-19" d="M345.4,208l4.2-1.9-4.2-1.8-1.9-4.2-1.8,4.2-4.2,2,4.2,1.7,2,4.2,1.7-4.2Z"/>
      <path class="cls-19" d="M113.6,219.5l8.8-3.9-8.7-3.8-3.9-8.9-3.8,8.7-8.9,4.2,8.7,3.5,4.2,8.8,3.5-8.7Z"/>
      <path class="cls-19" d="M44.2,157.6l5.8,2.3-2.2-5.8,2.3-5.9-5.8,2.3-6-2.1,2.4,5.6-2.1,6,5.6-2.4Z"/>
      <path class="cls-23" d="M184.1,160.5h-11.1l-7-17.7h11.2l7,17.7Z"/>
      <path class="cls-22" d="M118.6,293.4c1.5,3.3,5,5.7,9.3,5.9,6,.3,11.3-3.9,11.7-9.3,0-1,0-1.9-.2-2.8,2.1,1.7,3.1,4.5,2.3,7.2-.3.9-4.5,8.7-4.5,8.7h0l-3.7,6.7-3-.8,1.3-5.8-16.3,2.3c-2.3.2-6.5-1.6-8-3.9-.6-.9-.2-2.1.7-2.6l10.4-5.5Z"/>
      <path class="cls-23" d="M128,299.3c-4.3-.2-7.8-2.6-9.3-5.9l11.1-6s4.4-2.3,6.9-1.6c1.1.3,2,.8,2.8,1.5.2.9.3,1.8.2,2.8-.4,5.4-5.7,9.6-11.7,9.3Z"/>
      <path class="cls-27" d="M138.8,292l9.1-16.5-13.7-4.7-10,20.2"/>
      <path class="cls-8" d="M138.8,292l9.1-16.5-13.7-4.7-10,20.2"/>
      <path class="cls-22" d="M282.5,227.6c-.3-3.6-2.8-7.1-6.8-8.7-5.6-2.3-11.9-.2-14.2,4.8-.4.9-.6,1.8-.7,2.7-1.4-2.3-1.4-5.3.3-7.5.5-.8,7.1-6.6,7.1-6.6h0s5.8-5.1,5.8-5.1l2.6,1.8-3.2,5,16.1,3.4c2.2.6,5.6,3.7,6.2,6.4.2,1-.5,2-1.5,2.2l-11.7,1.6Z"/>
      <path class="cls-23" d="M275.7,218.9c4,1.6,6.5,5.1,6.8,8.7l-12.5,1.9s-4.9.7-7-.8c-.9-.6-1.6-1.4-2.1-2.3,0-.9.3-1.8.7-2.7,2.3-4.9,8.6-7.1,14.2-4.7Z"/>
      <path class="cls-27" d="M263.1,222.2l-14.2,12.4,11.2,9.1,16.3-15.6"/>
      <path class="cls-8" d="M263.1,222.2l-14.2,12.4,11.2,9.1,16.3-15.6"/>
      <path class="cls-16" d="M252.7,223.8l-19.1,18.8-11.3-21.2c1.2-3.3,1.2-7-.4-10.4-3.2-6.9-11.3-9.9-18.2-6.8l-44.6,20.4c-2.8,1.3-5.1,3.4-6.5,6.2l-22,42.4,25.5,10.4,18.6-36,24.5-11.2,20.7,35.3c2.3,3.4,5.9,5.6,10,6.1.5,0,.9,0,1.4,0,3.6,0,7.1-1.4,9.6-4l30.6-30.3-19-19.8Z"/>
      <path class="cls-19" d="M246.9,206.4c-1.9,0-3.8-.6-5.5-1.9l-23-17.9-32.6-12.8c-4.6-1.8-6.8-7-5-11.6,1.8-4.6,7-6.8,11.6-5l33.8,13.2c.8.3,1.5.7,2.2,1.3l24,18.7c3.9,3,4.6,8.6,1.6,12.5-1.8,2.3-4.4,3.5-7.1,3.5Z"/>
      <path class="cls-27" d="M244.7,206.6c-3.5-2.7-4.8-7.3-2.9-11.2,2.2-4.5,7.8-6.3,12.6-4l2.1.9"/>
      <path class="cls-8" d="M244.7,206.6c-3.5-2.7-4.8-7.3-2.9-11.2,2.2-4.5,7.8-6.3,12.6-4l2.1.9"/>
      <path class="cls-23" d="M244.2,203.9c-1.2,1.3-1,3.3.2,4.4l1.6,1.4c1.3,1.2,3.3,1,4.4-.2,1.2-1.3,1-3.3-.2-4.4l-1.6-1.4c-1.3-1.2-3.3-1-4.4.2Z"/>
      <path class="cls-23" d="M256.6,209.1c.3-.6.3-1.2.2-1.8,1.1,0,2.2-.5,2.7-1.5.5-1.1.3-2.3-.5-3.1.5-.3,1-.7,1.3-1.3.5-1.1.2-2.4-.7-3.2.5-.3.9-.7,1.2-1.3.7-1.4,0-3-1.3-3.7l-2.3-1.1c-1.4-.7-3,0-3.7,1.3-.3.5-.3,1.1-.2,1.6-1.3-.4-2.7.2-3.3,1.4-.3.5-.3,1.1-.2,1.7-1.2-.3-2.6.3-3.2,1.5s-.2,2.6.8,3.4c-.5.3-.9.7-1.2,1.2-.7,1.4,0,3,1.3,3.7l5.3,2.5c1.4.7,3,0,3.7-1.3Z"/>
      <path class="cls-8" d="M253.4,195.1l3.6,1.7"/>
      <path class="cls-8" d="M249.9,198.2l5.9,2.8"/>
      <path class="cls-8" d="M247.6,203l6,2.8"/>
      <path class="cls-19" d="M203.3,186.5s.2-34-22.4-35.5l-10.9,7-1,7.4-.9,10.4-1.7,10.7c-.8,5.2-.7,8.3,4,10.8l6.6,3.6,7,12.3,27.9-9.9-8.7-16.8Z"/>
      <path class="cls-8" d="M201.3,188.6l-7,17.8"/>
      <path class="cls-30" d="M182.5,173.2l-20.6,33.7c-1.6,2.7-4.5,4.3-7.6,4.3s-.3,0-.4,0c-3.3-.2-6.2-2.1-7.6-5l-15.5-32.1c-2.1-4.4-.3-9.8,4.1-11.9,4.4-2.1,9.8-.3,11.9,4.1l8.4,17.3,12-19.7c1.3-2.1,3.3-3.5,5.5-4"/>
      <path class="cls-8" d="M182.5,173.2l-20.6,33.7c-1.6,2.7-4.5,4.3-7.6,4.3s-.3,0-.4,0c-3.3-.2-6.2-2.1-7.6-5l-15.5-32.1c-2.1-4.4-.3-9.8,4.1-11.9,4.4-2.1,9.8-.3,11.9,4.1l8.4,17.3,12-19.7c1.3-2.1,3.3-3.5,5.5-4"/>
      <path class="cls-8" d="M155.2,183.6l2.5,5.4"/>
      <path class="cls-8" d="M192.1,223l5.7,10.6"/>
      <path class="cls-33" d="M186.9,136.5c-1.8,7.7-9.1,12.5-16.4,10.8-7.3-1.8-11.8-9.4-10.1-17.1,1.8-7.7,9.1-12.5,16.4-10.8,7.3,1.8,11.8,9.4,10.1,17.1Z"/>
      <path class="cls-33" d="M172.2,120.7c.3-1.6.1-3.1-.8-4.4-1.9-2.5-6-2.5-9.3-.1-7,5.2-4.9,13.3-2.9,17.2l15.7-9c-.7-1.4-1.7-2.7-2.7-3.7Z"/>
      <path class="cls-11" d="M165.6,150.3c-5.7-1.5-9.2-7.5-8.2-13.5l.4-2.7c1-6.1,6.3-10.5,12.1-10,6.5.6,11,6.9,9.9,13.6l-.5,3.1c-1.1,6.7-7.4,11.1-13.8,9.5Z"/>
      <path class="cls-27" d="M165.2,134.8l-1.6-.3c-.6-.1-1.2.3-1.3,1-.1.6.3,1.2.9,1.3l1.6.3"/>
      <path class="cls-8" d="M165.2,134.8l-1.6-.3c-.6-.1-1.2.3-1.3,1-.1.6.3,1.2.9,1.3l1.6.3"/>
      <path class="cls-33" d="M171.4,135.9c-.1.7-.7,1.1-1.3,1-.6-.1-1-.7-.9-1.4.1-.7.7-1.1,1.3-1,.6.1,1,.7.9,1.4Z"/>
      <path class="cls-33" d="M162.4,134.3c-.1.7-.7,1.1-1.3,1-.6-.1-1-.7-.9-1.4.1-.7.7-1.1,1.3-1,.6.1,1,.7.9,1.4Z"/>
      <path class="cls-33" d="M162.4,138.8c.2,2,1.8,3.5,3.5,3.3,1.8-.2,3.1-1.9,2.9-3.9l-6.4.6Z"/>
      <path class="cls-27" d="M179.3,135.1c2.1.4,3.5,2.5,3.2,4.7-.4,2.2-2.4,3.7-4.5,3.4"/>
      <path class="cls-8" d="M179.3,135.1c2.1.4,3.5,2.5,3.2,4.7-.4,2.2-2.4,3.7-4.5,3.4"/>
      <path class="cls-8" d="M177.8,140.2c.1-.8.9-1.4,1.7-1.3"/>
      <path class="cls-33" d="M183.9,135.1c-2.8,3-8.3,2.2-12.3-1.8-4-4-5-9.8-2.3-12.8"/>
      <path class="cls-33" d="M204.2,109.3s2.2-3.1.3-6.4c-1.9-3.3-7.5-6.2-11.5-1.1-3,3.7.2,7.5-5.4,6.5-4.1-.8-9.9,2.7-9.9,8,.2,12.5,13.1,13.2,18.9,8.8,7.2-5.4,5-12.7,3.9-15.3-.5-1.1-.3-2.2.5-2.7,1.1-.7,2.3.2,3.3,2.2Z"/>
      <path class="cls-23" d="M142.7,167.4c1.8-.5,2.9-2.3,2.4-4.1l-1.3-6.8c-.5-1.8-2.3-2.9-4.1-2.4-1.8.5-2.9,2.3-2.4,4.1l1.3,6.8c.5,1.8,2.3,2.9,4.1,2.4Z"/>
      <path class="cls-16" d="M131.9,167.1c-1.7-.7-2.6-2.6-1.9-4.3l8.1-20.4,6.2,2.5-8.1,20.4c-.7,1.7-2.6,2.6-4.3,1.9Z"/>
      <path class="cls-16" d="M149.1,135.6l-7.2-2.8-5.3,13.5,7.2,2.8c3.7,1.5,8-.4,9.4-4.1,1.5-3.7-.4-8-4.1-9.4Z"/>
      <path class="cls-16" d="M116,112l-12.5,31.8,33.2,2.5s3.7-.7,5.6-5.6c1.9-4.9-.3-7.9-.3-7.9l-26-20.8Z"/>
      <path class="cls-23" d="M117,118.9c-.2-2.4-.9-4.2-1.9-4.6-1-.4-2.8.4-4.5,2.1-2.3,2.2-4.5,5.6-6,9.5-1.5,3.9-2.3,7.9-2.1,11,.2,2.4.9,4.2,1.9,4.6,1,.4,2.8-.4,4.5-2.1,2.3-2.2,4.5-5.6,6-9.5,1.5-3.9,2.3-7.9,2.1-11Z"/>
      <path class="cls-16" d="M116.9,109.7c-5.6-2.2-12.9,3.9-17,14.3-4.1,10.4-3,19.9,2.7,22.1,5.6,2.2,12.9-3.9,17-14.3,4.1-10.4,2.9-19.9-2.7-22.1ZM104.4,141.5c-1-.4-1.8-2.2-1.9-4.6-.2-3.2.5-7.2,2.1-11,1.5-3.9,3.7-7.3,6-9.5,1.8-1.7,3.5-2.5,4.5-2.1,1,.4,1.8,2.2,1.9,4.6.2,3.2-.5,7.2-2.1,11-1.5,3.9-3.7,7.3-6,9.5-1.8,1.7-3.5,2.5-4.5,2.1Z"/>
      <path class="cls-19" d="M116.5,125l-7.2-2.8c-2.7-1.1-5.7.3-6.7,2.9-1.1,2.7.3,5.7,2.9,6.7l7.2,2.8c.9-1.4,1.6-3,2.3-4.7.7-1.7,1.2-3.3,1.5-5Z"/>
      <path class="cls-8" d="M109.8,125.3l3.4,1.4"/>
      <path class="cls-8" d="M136.3,132.8l1.2.9"/>
      <path class="cls-8" d="M127.5,126.4l6.5,4.7"/>
      <path class="cls-23" d="M143.9,171c3-4.5,1.6-10.8-3.2-13.9l-5.9-3.4c-1.3-.9-3-.5-3.9.8-.4.6-.5,1.2-.5,1.8-1.1-.3-2.3.2-2.9,1.2-.7,1-.6,2.3,0,3.2-.6.2-1.1.6-1.5,1.1-.7,1.1-.6,2.4.2,3.3-.6.2-1.1.6-1.4,1.1-.9,1.3-.5,3,.8,3.9l2.2,1.4s0,0,0,0l1.8,2c4.8,3.2,11.1,2.1,14.1-2.4Z"/>
      <path class="cls-8" d="M127.6,166l-1.3-.9"/>
      <path class="cls-8" d="M129.9,162.2l-2.2-1.5"/>
      <path class="cls-8" d="M132.9,157.8l-2.2-1.5"/>
      <path class="cls-22" d="M267.4,108.5c-3.2-2.2-61.9-45.4-61.9-45.4-3.3-2.5-6.8-2.7-11.2-2-4.6.8-10.4,5-11.3,12.6l-43.5,204.1c-.6,2.8-1.5,6.6,1.4,8.8,0,0,64.7,47.5,69.6,50.9,4.9,3.3,12.1,3.7,16.4,1.8,5.2-2.2,6.8-5.9,7.7-10.1,0,0,40-190.8,41.5-198,2.5-12.1-.4-17.1-8.7-22.8Z"/>
      <path class="cls-22" d="M210.5,337.5l-69.6-50.9c-1.8-1.3-2.6-3-2.3-4.7l43.5-208.7c1.8-8.2,9.2-10.2,13.7-6.9l68.5,50.1c2.9,2.2,3.5,4.3,2.7,8.4l-43.3,207.8c-1.4,6.9-8.8,8.1-13.2,4.8Z"/>
      <path class="cls-23" d="M257,120.6l-12.8-9.3-.9,4.2c-.4,2.1-4.2,2.8-6.4,1.1l-28.2-20.6c-3.2-2.3-4.7-5.5-4.1-8.5l.9-4.5-10.8-7.9c-2-1.3-4.4-1.2-5.2,3.2l-42,202.5c-.1.6.2,1.2.8,1.7l62.9,46c1.6,1.2,4.1.8,4.7-1.8l42.1-202.1c.4-1.6,0-3.3-1.2-4.1Z"/>
      <path class="cls-23" d="M215.3,91.9c0,1.3-1,2.2-2.2,2-1.3-.2-2.3-1.3-2.4-2.6,0-1.3,1-2.2,2.2-2,1.3.2,2.3,1.3,2.3,2.6Z"/>
      <path class="cls-3" d="M218.4,95.5l17.2,12.6"/>
      <path class="cls-3" d="M220.1,338c1.7-1.1,3.1-2.8,3.6-5.4l43.3-207.8c.8-4.1.2-6.2-2.7-8.4l-68.5-50.1s-4.6-2.5-8.2,0"/>
      <path class="cls-22" d="M224,210.7c6.8-32.3,2.5-60.5-9.6-63.1-12.1-2.6-27.4,21.6-34.2,53.8-6.8,32.3-2.5,60.5,9.6,63.1,12.1,2.5,27.4-21.5,34.2-53.8Z"/>
      <path class="cls-22" d="M118.6,293.4c1.5,3.3,5,5.7,9.3,5.9,6,.3,11.3-3.9,11.7-9.3,0-1,0-1.9-.2-2.8,2.1,1.7,3.1,4.5,2.3,7.2-.3.9-4.5,8.7-4.5,8.7h0l-3.7,6.7-3-.8,1.3-5.8-16.3,2.3c-2.3.2-6.5-1.6-8-3.9-.6-.9-.2-2.1.7-2.6l10.4-5.5Z"/>
      <path class="cls-23" d="M128,299.3c-4.3-.2-7.8-2.6-9.3-5.9l11.1-6s4.4-2.3,6.9-1.6c1.1.3,2,.8,2.8,1.5.2.9.3,1.8.2,2.8-.4,5.4-5.7,9.6-11.7,9.3Z"/>
      <path class="cls-27" d="M138.8,292l9.1-16.5-13.7-4.7-10,20.2"/>
      <path class="cls-8" d="M138.8,292l9.1-16.5-13.7-4.7-10,20.2"/>
      <path class="cls-16" d="M221.9,211c-3.2-6.9-11.3-9.9-18.2-6.8l-44.6,20.4c-2.8,1.3-5.1,3.4-6.5,6.2l-22,42.4,25.5,10.4,18.6-36,24.5-11.2,8.9,15.3c5.9-8.9,11.2-21.7,14.8-36.6-.2-1.4-.5-2.8-1.2-4.1Z"/>
      <path class="cls-19" d="M226.7,170.7c-.2,0-.4-.2-.6-.2l-33.8-13.2c-4.6-1.8-9.8.5-11.6,5-1.8,4.6.5,9.8,5,11.6l32.6,12.8,8.3,6.5c.8-8.2.7-15.8,0-22.4Z"/>
      <path class="cls-23" d="M184.1,160.5h-11.1l-7-17.7h11.2l7,17.7Z"/>
      <path class="cls-33" d="M186.9,136.5c-1.8,7.7-9.1,12.5-16.4,10.8-7.3-1.8-11.8-9.4-10.1-17.1,1.8-7.7,9.1-12.5,16.4-10.8,7.3,1.8,11.8,9.4,10.1,17.1Z"/>
      <path class="cls-33" d="M172.2,120.7c.3-1.6.1-3.1-.8-4.4-1.9-2.5-6-2.5-9.3-.1-7,5.2-4.9,13.3-2.9,17.2l15.7-9c-.7-1.4-1.7-2.7-2.7-3.7Z"/>
      <path class="cls-11" d="M165.6,150.3c-5.7-1.5-9.2-7.5-8.2-13.5l.4-2.7c1-6.1,6.3-10.5,12.1-10,6.5.6,11,6.9,9.9,13.6l-.5,3.1c-1.1,6.7-7.4,11.1-13.8,9.5Z"/>
      <path class="cls-27" d="M165.2,134.8l-1.6-.3c-.6-.1-1.2.3-1.3,1-.1.6.3,1.2.9,1.3l1.6.3"/>
      <path class="cls-8" d="M165.2,134.8l-1.6-.3c-.6-.1-1.2.3-1.3,1-.1.6.3,1.2.9,1.3l1.6.3"/>
      <path class="cls-33" d="M171.4,135.9c-.1.7-.7,1.1-1.3,1-.6-.1-1-.7-.9-1.4.1-.7.7-1.1,1.3-1,.6.1,1,.7.9,1.4Z"/>
      <path class="cls-33" d="M162.4,134.3c-.1.7-.7,1.1-1.3,1-.6-.1-1-.7-.9-1.4.1-.7.7-1.1,1.3-1,.6.1,1,.7.9,1.4Z"/>
      <path class="cls-33" d="M162.4,138.8c.2,2,1.8,3.5,3.5,3.3,1.8-.2,3.1-1.9,2.9-3.9l-6.4.6Z"/>
      <path class="cls-27" d="M179.3,135.1c2.1.4,3.5,2.5,3.2,4.7-.4,2.2-2.4,3.7-4.5,3.4"/>
      <path class="cls-8" d="M179.3,135.1c2.1.4,3.5,2.5,3.2,4.7-.4,2.2-2.4,3.7-4.5,3.4"/>
      <path class="cls-8" d="M177.8,140.2c.1-.8.9-1.4,1.7-1.3"/>
      <path class="cls-33" d="M183.9,135.1c-2.8,3-8.3,2.2-12.3-1.8-4-4-5-9.8-2.3-12.8"/>
      <path class="cls-33" d="M204.2,109.3s2.2-3.1.3-6.4c-1.9-3.3-7.5-6.2-11.5-1.1-3,3.7.2,7.5-5.4,6.5-4.1-.8-9.9,2.7-9.9,8,.2,12.5,13.1,13.2,18.9,8.8,7.2-5.4,5-12.7,3.9-15.3-.5-1.1-.3-2.2.5-2.7,1.1-.7,2.3.2,3.3,2.2Z"/>
      <path class="cls-3" d="M183,108.8c-2.9,1.2-5.4,3.9-5.4,7.4,0,1.3.2,2.4.4,3.5-.4-.1-.8-.3-1.3-.4-1.1-.3-2.1-.4-3.2-.4"/>
      <path class="cls-19" d="M203.3,186.5s.2-34-22.4-35.5l-10.9,7-1,7.4-.9,10.4-1.7,10.7c-.8,5.2-.7,8.3,4,10.8l6.6,3.6,7,12.3,27.9-9.9-8.7-16.8Z"/>
      <path class="cls-8" d="M201.3,188.6l-7,17.8"/>
      <path class="cls-30" d="M182.5,173.2l-20.6,33.7c-1.6,2.7-4.5,4.3-7.6,4.3s-.3,0-.4,0c-3.3-.2-6.2-2.1-7.6-5l-15.5-32.1c-2.1-4.4-.3-9.8,4.1-11.9,4.4-2.1,9.8-.3,11.9,4.1l8.4,17.3,12-19.7c1.3-2.1,3.3-3.5,5.5-4"/>
      <path class="cls-8" d="M182.5,173.2l-20.6,33.7c-1.6,2.7-4.5,4.3-7.6,4.3s-.3,0-.4,0c-3.3-.2-6.2-2.1-7.6-5l-15.5-32.1c-2.1-4.4-.3-9.8,4.1-11.9,4.4-2.1,9.8-.3,11.9,4.1l8.4,17.3,12-19.7c1.3-2.1,3.3-3.5,5.5-4"/>
      <path class="cls-8" d="M155.2,183.6l2.5,5.4"/>
      <path class="cls-23" d="M142.7,167.4c1.8-.5,2.9-2.3,2.4-4.1l-1.3-6.8c-.5-1.8-2.3-2.9-4.1-2.4-1.8.5-2.9,2.3-2.4,4.1l1.3,6.8c.5,1.8,2.3,2.9,4.1,2.4Z"/>
      <path class="cls-16" d="M131.9,167.1c-1.7-.7-2.6-2.6-1.9-4.3l8.1-20.4,6.2,2.5-8.1,20.4c-.7,1.7-2.6,2.6-4.3,1.9Z"/>
      <path class="cls-16" d="M149.1,135.6l-7.2-2.8-5.3,13.5,7.2,2.8c3.7,1.5,8-.4,9.4-4.1,1.5-3.7-.4-8-4.1-9.4Z"/>
      <path class="cls-16" d="M116,112l-12.5,31.8,33.2,2.5s3.7-.7,5.6-5.6c1.9-4.9-.3-7.9-.3-7.9l-26-20.8Z"/>
      <path class="cls-23" d="M117,118.9c-.2-2.4-.9-4.2-1.9-4.6-1-.4-2.8.4-4.5,2.1-2.3,2.2-4.5,5.6-6,9.5-1.5,3.9-2.3,7.9-2.1,11,.2,2.4.9,4.2,1.9,4.6,1,.4,2.8-.4,4.5-2.1,2.3-2.2,4.5-5.6,6-9.5,1.5-3.9,2.3-7.9,2.1-11Z"/>
      <path class="cls-16" d="M116.9,109.7c-5.6-2.2-12.9,3.9-17,14.3-4.1,10.4-3,19.9,2.7,22.1,5.6,2.2,12.9-3.9,17-14.3,4.1-10.4,2.9-19.9-2.7-22.1ZM104.4,141.5c-1-.4-1.8-2.2-1.9-4.6-.2-3.2.5-7.2,2.1-11,1.5-3.9,3.7-7.3,6-9.5,1.8-1.7,3.5-2.5,4.5-2.1,1,.4,1.8,2.2,1.9,4.6.2,3.2-.5,7.2-2.1,11-1.5,3.9-3.7,7.3-6,9.5-1.8,1.7-3.5,2.5-4.5,2.1Z"/>
      <path class="cls-19" d="M116.5,125l-7.2-2.8c-2.7-1.1-5.7.3-6.7,2.9-1.1,2.7.3,5.7,2.9,6.7l7.2,2.8c.9-1.4,1.6-3,2.3-4.7.7-1.7,1.2-3.3,1.5-5Z"/>
      <path class="cls-8" d="M109.8,125.3l3.4,1.4"/>
      <path class="cls-8" d="M136.3,132.8l1.2.9"/>
      <path class="cls-8" d="M127.5,126.4l6.5,4.7"/>
      <path class="cls-23" d="M143.9,171c3-4.5,1.6-10.8-3.2-13.9l-5.9-3.4c-1.3-.9-3-.5-3.9.8-.4.6-.5,1.2-.5,1.8-1.1-.3-2.3.2-2.9,1.2-.7,1-.6,2.3,0,3.2-.6.2-1.1.6-1.5,1.1-.7,1.1-.6,2.4.2,3.3-.6.2-1.1.6-1.4,1.1-.9,1.3-.5,3,.8,3.9l2.2,1.4s0,0,0,0l1.8,2c4.8,3.2,11.1,2.1,14.1-2.4Z"/>
      <path class="cls-8" d="M127.6,166l-1.3-.9"/>
      <path class="cls-8" d="M129.9,162.2l-2.2-1.5"/>
      <path class="cls-8" d="M132.9,157.8l-2.2-1.5"/>
      <path class="cls-8" d="M192.1,223l5.7,10.6"/>
      <g class="cls-35">
        <g>
          <path class="cls-21" d="M109.8,303.1H41.1v3.3h68.7v-3.3Z"/>
          <path class="cls-26" d="M104.5,271.6h-58.1v31.7h58.1v-31.7Z"/>
          <path class="cls-14" d="M84.2,282.1h-20.7v18.7h20.7v-18.7Z"/>
          <path class="cls-26" d="M58.7,273.8h-3.3v24.7h3.3v-24.7Z"/>
          <path class="cls-26" d="M58.7,298.5h-3.3v7.7h3.3v-7.7Z"/>
          <path class="cls-26" d="M92.8,273.8h-3.3v24.7h3.3v-24.7Z"/>
          <path class="cls-26" d="M92.8,298.5h-3.3v7.7h3.3v-7.7Z"/>
          <path class="cls-26" d="M47.4,272h-3.3v23.9h3.3v-23.9Z"/>
          <path class="cls-26" d="M47.4,295.9h-3.3v7.4h3.3v-7.4Z"/>
          <path class="cls-26" d="M105.3,272h-3.3v23.9h3.3v-23.9Z"/>
          <path class="cls-26" d="M105.3,295.9h-3.3v7.4h3.3v-7.4Z"/>
          <path class="cls-15" d="M56,264.4l-3-4.7s0-2.1,1.2-1.9c1.2.2,2.6,2.3,2.8,3.9s-1,2.6-1,2.6Z"/>
          <path class="cls-15" d="M93.7,264.4l3-4.7s0-2.1-1.2-1.9c-1.2.2-2.6,2.3-2.8,3.9s1,2.6,1,2.6Z"/>
          <path class="cls-26" d="M57.8,260.4l-4.8-.7s-8.1,11.7-9.2,12.8c-1.1,1.1,1.5,1.8,1.5,1.8l9.9-2.6,2.6-11.4Z"/>
          <path class="cls-26" d="M92,260.4l4.8-.7s8.1,11.7,9.2,12.8c1.1,1.1-1.5,1.8-1.5,1.8l-9.9-2.6-2.6-11.4h0Z"/>
          <path class="cls-26" d="M62.6,267l-7.7-4.8-1.8-2.6h43.2l-1.5,2.6-6.2,8.1-26-3.3Z"/>
          <path class="cls-17" d="M54.9,262.3l-9.5,12.1s29.3,6.6,57.9,0l-8.4-12.1h-39.9Z"/>
          <path class="cls-18" d="M55.8,279.4s19.7,2.5,35.6-.4l.5-2.2-17.1-11.1-17.8,10.8-1.2,2.9Z"/>
          <path class="cls-26" d="M46.5,274.4s.7-3.3-1.2-3.7c-1.8-.4-2,3.4-2,3.4,0,0,2.5.6,3.2.3Z"/>
          <path class="cls-26" d="M106.3,274s-.2-3.4-2-3.3c-1.9.1-1.1,3.8-1.1,3.8,0,0,2.6,0,3.2-.5Z"/>
          <path class="cls-17" d="M57.8,278.3c0,.7-.6,1.3-1.3,1.3s-1.3-.6-1.3-1.3.6-1.3,1.3-1.3,1.3.6,1.3,1.3Z"/>
          <path class="cls-17" d="M59.1,278.7c.7,0,1.3-.6,1.3-1.3s-.6-1.3-1.3-1.3-1.3.6-1.3,1.3.6,1.3,1.3,1.3Z"/>
          <path class="cls-17" d="M62.8,275.8c0,.7-.6,1.3-1.3,1.3s-1.3-.6-1.3-1.3.6-1.3,1.3-1.3,1.3.6,1.3,1.3Z"/>
          <path class="cls-17" d="M65.1,274.3c0,.7-.6,1.3-1.3,1.3s-1.3-.6-1.3-1.3.6-1.3,1.3-1.3,1.3.6,1.3,1.3Z"/>
          <path class="cls-17" d="M67.5,272.6c0,.7-.6,1.3-1.3,1.3s-1.3-.6-1.3-1.3.6-1.3,1.3-1.3,1.3.6,1.3,1.3Z"/>
          <path class="cls-17" d="M69.7,271c0,.7-.6,1.3-1.3,1.3s-1.3-.6-1.3-1.3.6-1.3,1.3-1.3,1.3.6,1.3,1.3Z"/>
          <path class="cls-17" d="M72,269.6c0,.7-.6,1.3-1.3,1.3s-1.3-.6-1.3-1.3.6-1.3,1.3-1.3,1.3.6,1.3,1.3Z"/>
          <path class="cls-17" d="M74.4,268.1c0,.7-.6,1.3-1.3,1.3s-1.3-.6-1.3-1.3.6-1.3,1.3-1.3,1.3.6,1.3,1.3Z"/>
          <path class="cls-17" d="M90.7,278.1c0,.7.6,1.3,1.3,1.3s1.3-.6,1.3-1.3-.6-1.3-1.3-1.3-1.3.6-1.3,1.3Z"/>
          <path class="cls-17" d="M88.1,277.2c0,.7.6,1.3,1.3,1.3s1.3-.6,1.3-1.3-.6-1.3-1.3-1.3-1.3.6-1.3,1.3Z"/>
          <path class="cls-17" d="M85.7,275.6c0,.7.6,1.3,1.3,1.3s1.3-.6,1.3-1.3-.6-1.3-1.3-1.3-1.3.6-1.3,1.3Z"/>
          <path class="cls-17" d="M83.4,274.1c0,.7.6,1.3,1.3,1.3s1.3-.6,1.3-1.3-.6-1.3-1.3-1.3-1.3.6-1.3,1.3Z"/>
          <path class="cls-17" d="M81,272.4c0,.7.6,1.3,1.3,1.3s1.3-.6,1.3-1.3-.6-1.3-1.3-1.3-1.3.6-1.3,1.3Z"/>
          <path class="cls-17" d="M78.8,270.8c0,.7.6,1.3,1.3,1.3s1.3-.6,1.3-1.3-.6-1.3-1.3-1.3-1.3.6-1.3,1.3Z"/>
          <path class="cls-17" d="M76.5,269.4c0,.7.6,1.3,1.3,1.3s1.3-.6,1.3-1.3-.6-1.3-1.3-1.3-1.3.6-1.3,1.3Z"/>
          <path class="cls-17" d="M74.1,267.9c0,.7.6,1.3,1.3,1.3s1.3-.6,1.3-1.3-.6-1.3-1.3-1.3-1.3.6-1.3,1.3Z"/>
          <path class="cls-17" d="M54.9,277.3l19.5-12.5,18.8,12.5s-.3,1-.7,1.3c-.4.3-18.2-11.8-18.2-11.8l-17.5,11.6s-1.9-.1-1.9-1.1Z"/>
          <path class="cls-20" d="M53.8,276.7l20.5-13.1,19.7,12.8s-.3,1-.7,1.3c-.4.3-19-12.1-19-12.1l-18.5,12.2s-1.9-.1-1.9-1.1Z"/>
          <path class="cls-9" d="M60.5,279.7l13.2-9.1,14.1,8.7"/>
          <path class="cls-9" d="M72.3,271.9v8.3"/>
          <path class="cls-9" d="M69,274.1v6.1"/>
          <path class="cls-9" d="M79.2,274.1v6.1"/>
          <path class="cls-9" d="M65.6,276.3v3.6"/>
          <path class="cls-9" d="M83.2,276.3v3.6"/>
          <path class="cls-9" d="M75.6,271.9v8.3"/>
          <path class="cls-9" d="M56.8,262.9l-8,12"/>
          <path class="cls-9" d="M59.7,263.1l-6.8,12.2"/>
          <path class="cls-9" d="M63,263.6l-5.4,10.5"/>
          <path class="cls-9" d="M66.7,263.5l-2.7,6.3"/>
          <path class="cls-9" d="M70.4,263.6l-1.1,2.9"/>
          <path class="cls-9" d="M77.3,263.4l1.6,3"/>
          <path class="cls-9" d="M81.5,263.3l3.5,7.1"/>
          <path class="cls-9" d="M85.8,263.9l5.6,10.6"/>
          <path class="cls-9" d="M90,263.6l6.6,11.7"/>
          <path class="cls-9" d="M93.1,263.9l7.9,10.9"/>
          <path class="cls-26" d="M67,282.1h-6.6v13.4h6.6v-13.4Z"/>
          <path class="cls-17" d="M67,295.5h-6.6v5.3h6.6v-5.3Z"/>
          <path class="cls-26" d="M54.9,282.1h-6.6v13.4h6.6v-13.4Z"/>
          <path class="cls-17" d="M54.9,295.5h-6.6v5.3h6.6v-5.3Z"/>
          <path class="cls-26" d="M100.5,282.1h-6.6v13.4h6.6v-13.4Z"/>
          <path class="cls-17" d="M100.5,295.5h-6.6v5.3h6.6v-5.3Z"/>
          <path class="cls-26" d="M88,282.1h-6.6v13.4h6.6v-13.4Z"/>
          <path class="cls-17" d="M88,295.5h-6.6v5.3h6.6v-5.3Z"/>
          <path class="cls-21" d="M112.5,305.9H38.7v4h73.8v-4Z"/>
        </g>
      </g>
      <path class="cls-24" d="M92.1,194.8c2.2-3.3,3.5-7.2,3.5-11.5,0-11.3-9.2-20.5-20.5-20.5s-20.5,9.2-20.5,20.5,9.2,20.5,20.5,20.5,9.8-1.9,13.4-5l7.1,3.6-3.5-7.7Z"/>
      <path class="cls-27" d="M68.2,183.3c0,1.5-1.2,2.7-2.7,2.7s-2.7-1.2-2.7-2.7,1.2-2.7,2.7-2.7,2.7,1.2,2.7,2.7Z"/>
      <path class="cls-27" d="M77.9,183.3c0,1.5-1.2,2.7-2.7,2.7s-2.7-1.2-2.7-2.7,1.2-2.7,2.7-2.7,2.7,1.2,2.7,2.7Z"/>
      <path class="cls-27" d="M87.6,183.3c0,1.5-1.2,2.7-2.7,2.7s-2.7-1.2-2.7-2.7,1.2-2.7,2.7-2.7,2.7,1.2,2.7,2.7Z"/>
      <path class="cls-24" d="M318.8,193.5c1.6-3.9,1.4-8.1-.3-11.6-3.8,0-7.3,1.6-9.6,4.4-.3-1.9-1.5-3.6-3.4-4.3-2.8-1.2-6.1.2-7.3,3-1.2,2.8.2,6.1,3,7.3,1.9.8,3.9.5,5.5-.7-.4,3.5.9,7.2,3.6,9.9,3.7-1.3,6.8-4.1,8.4-8Z"/>
      <path class="cls-24" d="M292.2,182.4c-1.5,3.6-1.4,7.4-.1,10.7l-6.8,6,9.1-2.1c1.4,1.8,3.3,3.2,5.6,4.2,3.4,1.4,7.1,1.4,10.4.2-2.7-2.7-4-6.4-3.6-9.9-1.5,1.1-3.6,1.5-5.5.7-2.8-1.2-4.2-4.4-3-7.3,1.2-2.8,4.4-4.2,7.3-3,1.9.8,3.1,2.5,3.4,4.3,2.2-2.8,5.7-4.4,9.6-4.4-1.5-3.1-4-5.8-7.5-7.2-7.3-3.1-15.7.4-18.8,7.7Z"/>
      <path class="cls-8" d="M67.1,115.3l27.9,10.8"/>
      <path class="cls-8" d="M66.5,131.6h25.1"/>
      <path class="cls-8" d="M90.4,114l5.5,4.1"/>
      <g class="cls-29">
        <g class="cls-31">
          <g>
            <path class="cls-33" d="M314,252.8s-3.7-2.3-6.8,1c-3.1,3.3-2.7,4.5-3.5,5.8-.8,1.3-3.3,1.4-3.8,4.4-.5,3.1,0,3.4-.5,4.7-.5,1.3-1.3,2.7-.1,3.9,1.2,1.2,1.9.8,1.9.8,0,0-2.7,6.9,1.4,9,4.1,2.1,5.5.4,8.7-2.2,3.2-2.6,15.5-.3,16.5,0,1,.3,2.5,3,4.9,2.5,2.4-.5,2.9-.2,3.9-1.7,1-1.5.4-3.8,1.5-4.4,1.1-.5,3.9-1.2,3.6-4.5-.3-3.3-3.3-4.5-3.2-4.6.1-.1,2.3-3.1,0-6.2-2.4-3.1-4.6-3-4.6-3,0,0,.2-5.8-2.4-7.1s-4.7-.1-5.6-1.5c-1.7-2.6-4.8-2.7-7.5-1.5-2.7,1.2-4.3,4.6-4.3,4.6Z"/>
            <path class="cls-27" d="M324.8,261.1s-3.5-.8-4.9-4.7c-1.1.9-2.6,3.4-4.2,3.8-.5.5-.4,1.7-.9,2.1-2.2,1.5-5.7,1.7-5.8,1.7s.8,2.4-.2,4.3c-.8,1.7-3.3,3-3.3,3,0,0-3.2.6-2.1,3.6,1.1,3.1,4.1,3.2,4.1,3.2,0,0,.8,3.9,4.2,6.6.7.5,2.8,1.4,3.7,1.8l-3.1,4s4.5,4,7.6,4c3.2,0,9.6-4.3,9.6-4.3l-4-4c4-1.5,5-4.5,5.5-5.5,1.4-2.5,1.3-6.2,1.3-6.2,0,0,3.2.1,3.8-3,.2-1-.7-2.8-2-3.3-1-.4-2.2.6-3.3.2-.8-.3-.7-1.6-1.4-2-1-.8-3.9-.1-4.5-1.2-.8-1.5.2-4.2-.2-3.9Z"/>
            <path class="cls-27" d="M312.5,289.8s-4,0-7.3,4c-3.3,4-1.9,27.5-2.1,30.4-.4,7.1-.6,19.8-.3,22.5,5.3,1.3,10,1.5,13.8,1.5,3.8,0,16.3-2.3,16.3-2.3,0,0,3.2-53.4,1.9-54.2-4.9-3-5.9-2.2-5.9-2.2,0,0-.7-1.1-1.6-.8-1.5.6-3.7,2.7-6.2,2.9-2.2.2-4.7-2.4-6.6-3.2-1.5-.6-2.1,1.3-2.1,1.3Z"/>
            <path class="cls-7" d="M306.8,276.2c.9,2.6,1.8,5.2,3.6,7.2,1.6,1.8,3.7,2.8,5.9,3.3,2.2.5,6.5.3,8.5-.5,6.6-2.7,8-9.7,7.9-11.8"/>
            <path class="cls-33" d="M323.1,270.4c.2.4,0,.9-.4,1.1-.4.2-.9,0-1.1-.4-.2-.4,0-.9.4-1.1.4-.2.9,0,1.1.4Z"/>
            <path class="cls-33" d="M316.5,270.3c.2.4,0,.9-.4,1.1-.4.2-.9,0-1.1-.4-.2-.4,0-.9.4-1.1.4-.2.9,0,1.1.4Z"/>
            <path class="cls-17" d="M312,289.3s-12.2,2.8-15,9.3c-1.5,3.4-5.1,10-7.1,16.1-1.8,5.6-2.1,10.7-1,14.5,2.5,8.6,11.9,10,11.9,10l-.6,8.9s1.8.5,7.1.9c5.3.3,10.7.3,10.7.3,0,0-.6-27.2,0-35.5-1.9-7.5-6-24.5-6-24.5Z"/>
            <path class="cls-7" d="M303.1,307.7c-1,4.5-1.1,13.1-1.7,16.5"/>
            <path class="cls-17" d="M329.2,288.8s11.3,4.3,14.9,10.3c4.7,7.6,10.4,28.2,5.4,35.7-2.6,3.9-9.3,3.5-9.3,3.5l.8,11s-2.7,0-7.9.3c-5.3.3-9.4-.5-9.4-.5,0,0-.3-26.5-.8-34.8,2.6-6.1,6.3-25.6,6.3-25.6Z"/>
            <path class="cls-7" d="M338.5,324.6c.2-4.1-.7-10.8-1.7-14.7"/>
            <path class="cls-7" d="M312,289.3c-4.7.3-12.2,4.7-14,8.3-2.2,4.3-12.4,19.1-9,31.7,2.5,9.2,15.8,14.7,23.8,5.3"/>
            <path class="cls-7" d="M328.6,288.8c4.2.9,11.8,4.7,15,9.6,2.4,3.8,11.1,24.9,6.5,35.1-2.5,5.6-12,6.4-22.1,1.8"/>
            <path class="cls-7" d="M332.8,270.2c.2.4.3.8.4,1.2"/>
            <path class="cls-7" d="M305.8,272.6c-.2.6-.3,1.2-.2,1.8"/>
            <path class="cls-7" d="M305.1,271.2c-.5.2-1,.4-1.3.9-.3.4-.4,1-.4,1.5,0,1,0,2.1.7,3,.6.9,1.6,1.5,2.6,1.3"/>
            <path class="cls-7" d="M332.2,274.3c1.8.4,3.9-1.2,4-2.9s-1.3-4.4-4.5-2.9"/>
            <path class="cls-7" d="M315.8,275.6c-.4.4-.8.9-1.1,1.5"/>
            <path class="cls-7" d="M323.6,275.7c.7.3,1.2.9,1.5,1.6"/>
            <path class="cls-7" d="M328.7,289.3c-1.4,11.6-3.7,19.4-5.4,25.1"/>
            <path class="cls-7" d="M323.3,314.4c.9,19.2.7,26.9.9,34.9"/>
            <path class="cls-7" d="M312.4,289.3c1.4,11.6,3.7,19.4,5.4,25.1"/>
            <path class="cls-7" d="M317.9,314.4c-.9,19.2.3,26.9,0,34.9"/>
            <path class="cls-7" d="M319.2,269.4c0,1-.2,2-.5,3-.3.7-.6,1.4-.7,2.2,0,.2,0,.3,0,.5,0,.1.2.2.3.3.6.3,1.2.2,1.9.2.4,0,.8-.1,1-.5"/>
            <path class="cls-7" d="M313.5,267.8c.8-.6,1.8-.9,2.8-.9"/>
            <path class="cls-7" d="M321.7,267c1.2,0,2.4.2,3.4.9"/>
            <path class="cls-7" d="M313.9,252.9c-1.8-1.1-4.3-.6-6.1.5-.8.5-1.6,1.1-2.1,1.9-.6,1.1-.6,2.5-1.1,3.6-.8,1.7-2.6,2.6-3.8,4-.6.7-1,1.6-1.1,2.6,0,.8.1,1.6,0,2.4-.1,1.4-1.1,2.9-.5,4.2.5.9,1.5,1.3,2.5,1.6-1.3,1.2-2,3.1-1.6,4.9.3,1.8,1.6,3.3,3.3,4,1.6.7,3.6.6,5.2-.3"/>
            <path class="cls-7" d="M305.2,271.1c2-.6,3.6-2.2,4.1-4.1.2-.6.2-1.2,0-1.7-.2-.3-.4-.6-.3-1,0-.2.3-.3.4-.4,1-.5,2-.9,3.1-1.1.5,0,1.1-.1,1.6-.3.5-.2,1-.5,1.2-1.1.2-.5,0-1.1,0-1.6.7.2,1.5,0,2.1-.4.6-.4,1-1.1,1.4-1.7.3-.5.5-1,.6-1.5,0-.6,0-1.2-.5-1.5"/>
            <path class="cls-7" d="M320.1,256.6c.4.7.7,1.4,1,2.1.4.7.9,1.4,1.6,1.7.4.2.9.2,1.4.3.6,0,1.1.1,1.7.2-.5.8-1.1,1.6-1.1,2.5,0,.9.8,1.7,1.6,2.1.8.4,1.8.5,2.7.5.2,0,.4,0,.5.2.1.1.1.3.2.5.2.7.6,1.3,1.2,1.6.6.3,1.5,0,1.8-.5"/>
            <path class="cls-7" d="M314.4,252.9c.1-1.1.4-2.2,1-3,.7-.9,1.7-1.4,2.7-1.7,1.7-.7,3.6-1,5.3-.3.9.4,1.6,1,2.2,1.8.2.3.4.5.8.7.3.2.7,0,1.1,0,1.6,0,3.2.5,4.3,1.6,1.2,1.1,1.9,2.6,1.9,4.2,0,.9-.1,1.8-.3,2.7.8,0,1.7,0,2.4.3,1,.4,1.7,1.3,2.3,2.2.6,1,1.1,2.1,1.2,3.2,0,1.1-.2,2.4-1.1,3.2"/>
            <path class="cls-7" d="M330.6,281.7c0,.3.3.6.6.7.3.1.6.1,1,.2,1.1,0,2.3-.1,3.2-.9,1.2-1.1,1.1-3.2,2.3-4.4.8-.8,2.1-1.1,2.9-2,.4-.4.6-.9.8-1.4.6-2,0-4.4-1.5-5.8"/>
            <path class="cls-7" d="M312.5,290.3c1.5,1.3,3,2.7,4.8,3.5,1.9.8,4.1.9,6,.3,2-.6,3.7-1.8,5-3.5"/>
            <path class="cls-7" d="M313.8,288.2c1.3,1.1,2.5,2.3,4.1,3,1.6.7,3.5.8,5.1.3,1.7-.5,3.2-1.6,4.3-3"/>
            <path class="cls-7" d="M314.7,286.5c0,.5-.2,1-.5,1.5-.3.4-.6.8-1,1.2"/>
            <path class="cls-7" d="M326,286.2c.2.5.4,1.1.7,1.6.3.5.8.9,1.4.9"/>
            <path class="cls-7" d="M316.3,278.7c2,1.3,4.7,1.2,7,.4"/>
            <path class="cls-7" d="M296.6,320.3c1.7,2.5,4.4,4.2,7.4,4.8"/>
            <path class="cls-7" d="M333.5,324.3c3.4.4,6.9.5,10.3.3"/>
            <path class="cls-12" d="M323.9,284.4c-1.7,0-1.7,2-3.5,2-1.7,0-1.8-2-3.5-2-1.7,0-1.7,1.9-3.3,2l4.2,10.2h5.5s3.8-10.3,3.8-10.3c-1.5-.2-1.6-2-3.3-2Z"/>
            <path class="cls-5" d="M321,296v-8.1"/>
            <path class="cls-5" d="M324.6,287.8l-1.9,8.1"/>
            <path class="cls-5" d="M317.1,287.8l1.9,8.3"/>
            <path class="cls-12" d="M320.9,330.6c-9.5,0-17.4-4.8-19.2-11.4-.4-1.5,0-3.1,1.1-4.5l15.1-18.1h5.5s15.3,17.8,15.3,17.8c1.1,1.3,1.6,2.9,1.2,4.5-1.7,6.6-9.6,11.6-19,11.6h0Z"/>
            <path class="cls-30" d="M330.3,311.9h-1.9s.7-2.7.7-2.7h-2.7s-.7,2.7-.7,2.7h-2.6s-.7-2.6-.7-2.6h-2.7s-.7,2.7-.7,2.7h-2.7s-.7-2.6-.7-2.6h-2.8s.8,2.7.8,2.7h-1.9s0,2.2,0,2.2h2.5s2.1,6.9,2.1,6.9h2.7s1.9-7,1.9-7h.2l2,7h2.7s2-7,2-7h2.5s0-2.2,0-2.2h0ZM317.8,317.1l-.8-2.9h1.5s-.7,2.9-.7,2.9ZM324.5,317l-.8-2.9h1.5s-.7,2.9-.7,2.9Z"/>
            <path class="cls-27" d="M302.5,326.3c.6-2,1.9-5.5,6.4-4.6,4.5,1,7.9,1.4,7.2,6.6-.7,5.2-1.8,6.6-6.1,6.1-4.3-.6-6.7-.9-7.1-3.7-.5-2.8-.4-4.4-.4-4.4h0Z"/>
            <path class="cls-7" d="M311.8,334.5c-1.9.3-5-.8-6.7-1.7-.9-.5-1.7-1.2-2.1-2.1-.3-.6-.4-1.3-.5-2,0-1.3.1-2.7.7-3.9.6-1.2,1.7-2.2,2.9-2.6,1.3-.4,2.6-.3,3.9,0,1.2.3,2.5.6,3.6,1.2.6.3,1.3.7,1.7,1.2.7.9.7,2.2.6,3.3-.1,1.3-.3,2.6-.9,3.7-.6,1.2-1.6,2.2-2.8,2.5"/>
            <path class="cls-7" d="M308.8,322.5c-1.2,1.2-2,2.9-2.2,4.6"/>
            <path class="cls-7" d="M311.1,323c-1,1.7-1.7,3.6-2,5.6"/>
            <path class="cls-7" d="M313,324.3c-.2,1.6-.6,3.2-1.1,4.7"/>
            <path class="cls-27" d="M339.3,326.4c-.6-2-1.9-5.5-6.4-4.6-4.5,1-7.9,1.4-7.2,6.6.7,5.2,1.8,6.6,6.1,6.1,4.3-.6,6.7-.9,7.1-3.7.5-2.8.4-4.4.4-4.4h0Z"/>
            <path class="cls-7" d="M330.1,334.6c1.9.3,5-.8,6.7-1.7.9-.5,1.7-1.2,2.1-2.1.3-.6.4-1.3.5-2,0-1.3-.1-2.7-.7-3.9-.6-1.2-1.7-2.2-2.9-2.6-1.3-.4-2.6-.3-3.9,0-1.2.3-2.5.6-3.6,1.2-.6.3-1.3.7-1.7,1.2-.7.9-.7,2.2-.6,3.4.1,1.3.3,2.6.9,3.7.6,1.2,1.6,2.2,2.8,2.5"/>
            <path class="cls-7" d="M333.1,322.6c1.2,1.2,2,2.9,2.2,4.6"/>
            <path class="cls-7" d="M330.7,323.1c1,1.7,1.7,3.6,2,5.6"/>
            <path class="cls-7" d="M328.8,324.4c.2,1.6.6,3.2,1.1,4.7"/>
          </g>
        </g>
      </g>
      <path class="cls-8" d="M320.6,237.4c-27.6,0-50,22.4-50,50s4.3,23.2,11.4,31.8h-16.3l29,11c7.6,4.6,16.4,7.2,25.9,7.2,27.6,0,50-22.4,50-50s-22.4-50-50-50Z"/>
      <path class="cls-28" d="M96,21c0-.4-.7-.7-1.7-.8,0-1.8-.4-3.2-.8-3.2s-.8,1.4-.8,3.2c-1,.1-1.7.4-1.7.8s.7.7,1.7.8c0,1.8.4,3.2.8,3.2s.8-1.4.8-3.2c1-.1,1.7-.4,1.7-.8Z"/>
      <path class="cls-27" d="M79.8,23.3c0-.7-1.3-1.2-3-1.4-.1-3.3-.8-5.8-1.5-5.8s-1.4,2.5-1.5,5.8c-1.8.2-3,.8-3,1.4s1.3,1.2,3,1.4c.1,3.3.8,5.8,1.5,5.8s1.4-2.5,1.5-5.8c1.8-.2,3-.8,3-1.4Z"/>
      <path class="cls-28" d="M45.6,8.7c0-.8-1.4-1.4-3.5-1.6-.2-3.7-.9-6.6-1.7-6.6s-1.5,2.8-1.7,6.6c-2,.2-3.5.9-3.5,1.6s1.4,1.4,3.5,1.6c.2,3.7.9,6.6,1.7,6.6s1.5-2.8,1.7-6.6c2-.2,3.5-.9,3.5-1.6Z"/>
      <path class="cls-30" d="M86.1,9.2c0-.5-.9-.9-2.1-1,0-2.3-.5-4-1-4s-.9,1.7-1,4c-1.2.1-2.1.5-2.1,1s.9.9,2.1,1c0,2.3.5,4,1,4s.9-1.7,1-4c1.2-.1,2.1-.5,2.1-1Z"/>
      <path class="cls-27" d="M35.4,22.8c0-.4-.8-.7-1.8-.9,0-2-.5-3.5-.9-3.5s-.8,1.5-.9,3.5c-1.1.1-1.8.5-1.8.9s.8.7,1.8.9c0,2,.5,3.5.9,3.5s.8-1.5.9-3.5c1.1-.1,1.8-.5,1.8-.9Z"/>
      <path class="cls-30" d="M24.9,37c0-.8-1.6-1.6-3.9-1.8-.2-4.2-1-7.3-1.9-7.3s-1.7,3.2-1.9,7.3c-2.2.3-3.9,1-3.9,1.8s1.6,1.6,3.9,1.8c.2,4.2,1,7.3,1.9,7.3s1.7-3.2,1.9-7.3c2.2-.3,3.9-1,3.9-1.8Z"/>
      <path class="cls-30" d="M55.5,30.6c0-.5-1-1-2.5-1.2-.1-2.7-.6-4.7-1.2-4.7s-1.1,2-1.2,4.7c-1.4.2-2.5.6-2.5,1.2s1,1,2.5,1.2c.1,2.7.6,4.7,1.2,4.7s1.1-2,1.2-4.7c1.4-.2,2.5-.6,2.5-1.2Z"/>
      <path class="cls-13" d="M345.5,95.3s-1.9-3.4-4.6-3.2c-2.7.2-2.9,3.7-3,5.8,0,2.2-2.3,8.7-6.3,9.5s-6.7,3.2-5.8,7.2c.9,3.9,6.8,6.9,12.1,3.9,5.3-3,11.3-11.9,7.6-23.2Z"/>
      <path class="cls-2" d="M340.8,116.3s-2.8-2.6-4-4.2"/>
      <path class="cls-13" d="M338.9,100.5s17.4,3.9,21.4-.6c4.1-4.5.5-11.9-3.1-16.7-3.7-4.9-13.7-12.9-23.3-6.1-9.6,6.8-13.2,14.9-7,18.5,6.4,3.7,9,4.6,12,4.9Z"/>
      <path class="cls-2" d="M346.4,105s-.4-2-4.3-3.3"/>
      <path class="cls-2" d="M344.4,111.3s-2.3-3.5-4.7-4.1"/>
      <path class="cls-2" d="M335.3,119.5s-3.7-2.1-4.8-4.9"/>
      <path class="cls-2" d="M333.1,107s2.3,0,3.1.8"/>
      <path class="cls-25" d="M312.5,91.6s-22.6-2.6-25.6-9.8c-3-7.1,4.3-14.5,10.8-18.9,6.5-4.3,21.9-9.8,30.6,2.5,8.7,12.3,9.6,23.5.7,25.2-9.2,1.7-12.8,1.7-16.5.9Z"/>
      <path class="cls-13" d="M310.9,81.3l16.9,6c1.8-1,2.9-2.2,3.1-3.6l-20-2.3Z"/>
      <path class="cls-13" d="M330.9,83.7c.1-1.4-.7-2.9-2.3-4.2l-17.7,1.9,20,2.3Z"/>
      <path class="cls-13" d="M328.7,79.4c-1.6-1.4-4.1-2.7-7-3.7l-10.7,5.6,17.7-1.9Z"/>
      <path class="cls-13" d="M310.9,81.3l-17.7,1.9c1.6,1.4,4.1,2.7,7,3.7l10.7-5.6Z"/>
      <path class="cls-13" d="M300.2,86.9c2.9,1,6.2,1.8,9.9,2.2l.8-7.8-10.7,5.6Z"/>
      <path class="cls-13" d="M310.9,81.3l-.8,7.8c3.6.4,7.1.4,10.1.1l-9.3-8Z"/>
      <path class="cls-13" d="M310.9,81.3l10.7-5.6c-2.9-1-6.2-1.8-9.9-2.2l-.8,7.8Z"/>
      <path class="cls-13" d="M310.9,81.3l-20-2.3c-.1,1.4.7,2.9,2.3,4.2l17.7-1.9Z"/>
      <path class="cls-13" d="M327.8,87.3l-16.9-6,9.3,8c3.1-.3,5.7-1,7.6-2Z"/>
      <path class="cls-13" d="M294,75.4c-1.8,1-2.9,2.2-3.1,3.6l20,2.3-16.9-6Z"/>
      <path class="cls-13" d="M311.8,73.5c-3.6-.4-7.1-.4-10.1-.1l9.3,8,.8-7.8Z"/>
      <path class="cls-13" d="M301.6,73.4c-3.1.3-5.7,1-7.6,2l16.9,6-9.3-8Z"/>
      <path class="cls-2" d="M306.6,73.2l2,3.4"/>
      <path class="cls-2" d="M316.6,74.2l-2.4,3.5"/>
      <path class="cls-2" d="M325.2,77.3l-7.4,2.1"/>
      <path class="cls-2" d="M322.5,81.5h6.2"/>
      <path class="cls-2" d="M322.1,83.8l6,1.5"/>
      <path class="cls-2" d="M323,88.8l-4.8-3.1"/>
      <path class="cls-2" d="M292.1,76.8l6.6,1.7"/>
      <path class="cls-2" d="M298.2,74l6,3.8"/>
      <path class="cls-2" d="M296.8,85.5l6.3-1.9"/>
      <path class="cls-13" d="M307.1,81.5s3.7-3.3,6.9-2c3.2,1.3,2,5.7,1.2,8.3-.8,2.6-.9,11.5,3.6,14.1,4.5,2.6,6.7,6.7,4,11.1-2.8,4.3-11.1,5.4-16.2-.4-5.1-5.8-8.6-19.1.7-31.1Z"/>
      <path class="cls-2" d="M301.9,92.7s1.4-2.2,6.5-2.1"/>
      <path class="cls-2" d="M301.8,101.1s4.2-3.3,7.4-3"/>
      <path class="cls-2" d="M304,108.7s4.5-1.9,6.6-3.4"/>
      <path class="cls-2" d="M309.2,114.9s5.4-1,7.8-3.9"/>
      <path class="cls-2" d="M315.2,87.8s-1.1-2-4.2-1.9"/>
      <path class="cls-2" d="M317.2,100.7s-2.8-.9-4.1-.3"/>
      <path class="cls-2" d="M331.5,76.6s-2.3-7.6-5.3-10.6"/>
      <path class="cls-2" d="M324.7,67.9s-1.7-5.4-5.9-6.2"/>
      <path class="cls-2" d="M291.6,73.2s2.1-3,11.4-3.3"/>
      <path class="cls-2" d="M305.9,69.7h3.6"/>
      <path class="cls-27" d="M362.9,234.9l-2.3,2.4s2.9,5.7,7.5,8.6c4.6,2.9,6.4,3.2,6.4,3.2l2.5-2.6s-5.1-2.1-8.2-5c-3.1-2.9-6-6.6-5.9-6.6Z"/>
      <path class="cls-30" d="M377.1,246.1c-.2-1.6-3.2-5-7-8.2-3.7-3.1-6.7-4.1-7-3.4-.3.7,3.7,5.8,6.3,8.1,2.6,2.3,7.9,5.1,7.7,3.5Z"/>
      <path class="cls-6" d="M360.8,237.5c1,1.8,3,4.8,6.1,7.2,3,2.3,6,3.9,7.7,4.2"/>
      <path class="cls-6" d="M363,234.9c-.1.8,3,4.8,6.1,7.2,3,2.3,6.6,4.3,7.7,4.2"/>
      <path class="cls-6" d="M376.9,246.2c.1-1.4-2.9-5-5.9-7.4-2.9-2.4-6.3-4.5-7.7-4.2"/>
      <path class="cls-6" d="M363,234.7c-.8.9-1.6,1.7-2.4,2.6"/>
      <path class="cls-6" d="M363.5,236.4c-.6.7-1.3,1.4-1.9,2.1"/>
      <path class="cls-6" d="M364.4,237.7c-.6.7-1.3,1.4-1.9,2.1"/>
      <path class="cls-6" d="M365.4,238.8c-.6.7-1.3,1.4-1.9,2.1"/>
      <path class="cls-6" d="M366.3,240.1c-.6.7-1.3,1.4-1.9,2.1"/>
      <path class="cls-6" d="M367.5,241.1c-.6.7-1.3,1.4-1.9,2.1"/>
      <path class="cls-6" d="M368.5,242.1c-.6.7-1.3,1.4-1.9,2.1"/>
      <path class="cls-6" d="M369.7,243.1c-.6.7-1.3,1.4-1.9,2.1"/>
      <path class="cls-6" d="M371.1,243.9c-.6.7-1.3,1.4-1.9,2.1"/>
      <path class="cls-6" d="M372.4,244.6c-.6.7-1.3,1.4-1.9,2.1"/>
      <path class="cls-6" d="M373.7,245.6c-.6.7-1.3,1.4-1.9,2.1"/>
      <path class="cls-6" d="M375.2,246.3c-.6.7-1.3,1.4-1.9,2.1"/>
      <path class="cls-6" d="M376.8,246.5c-.7.8-1.5,1.6-2.2,2.5"/>
      <path class="cls-27" d="M365.4,237.1c2.3,3,5.4,5.4,8.6,7.4.4.2.7-.4.4-.6-3.2-1.9-6.1-4.2-8.4-7.1-.3-.3-.9,0-.6.4Z"/>
      <path class="cls-30" d="M362.1,266.4c4.6-2.8,6-8.8,3.2-13.3-2.8-4.6-8.8-6-13.3-3.2-4.6,2.8-6,8.8-3.2,13.3,2.8,4.6,8.8,6,13.3,3.2Z"/>
      <path class="cls-6" d="M352,249.7c-5.4,3-5.3,9-3.8,12.4,1.6,3.4,7.1,7.6,13,4.7,5.8-2.9,6.6-9.3,4.1-13.6-2.5-4.3-8.6-6.1-13.3-3.5Z"/>
      <path class="cls-4" d="M352.7,250.9c-4.6,2.6-4.6,7.7-3.2,10.6,1.4,2.9,6.1,6.5,11.1,4,5-2.5,5.7-8,3.5-11.7-2.1-3.7-7.4-5.3-11.5-3Z"/>
    </g>
  </g>
</svg>