<?xml version="1.0" encoding="UTF-8"?>
<svg id="_레이어_1" data-name=" 레이어 1" xmlns="http://www.w3.org/2000/svg" version="1.1" viewBox="0 0 475 475">
  <defs>
    <style>
      .cls-1, .cls-2 {
        fill: none;
        stroke: #3d2117;
      }

      .cls-3 {
        fill: #1ab476;
      }

      .cls-3, .cls-4 {
        stroke-width: 0px;
      }

      .cls-2 {
        stroke-width: 4px;
      }

      .cls-4 {
        fill: #fff;
      }
    </style>
  </defs>
  <rect class="cls-3" x="2" y="2" width="471" height="471" rx="14.2" ry="14.2"/>
  <rect class="cls-1" x="2" y="2" width="471" height="471" rx="14.2" ry="14.2"/>
  <g>
    <path class="cls-2" d="M359.9,206.8c0,.4.3.6.7.6h1.5c.2,0,.4,0,.5-.2,0-.1,0-.3,0-.5-.3-1.7-.6-3.5-.7-5.2s-.2-3.5-.2-5.2.2-1.7.6-2.1c.4-.4,1-.6,1.9-.6s1.7,0,2.4.1c.7,0,1.5.2,2.3.3.2,0,.3,0,.5-.1s.2-.3.2-.5v-1.4c0-.4-.2-.6-.6-.6-.9-.1-1.8-.2-2.7-.3-.9,0-1.7-.1-2.6-.1s-1.6,0-2.2.3c-.6.2-1.1.5-1.5.9s-.7.9-.8,1.6-.3,1.4-.3,2.4c0,1.9,0,3.7.2,5.5,0,1.7.4,3.5.7,5.3v-.2ZM353.6,210c0,.4.2.6.6.6h1.5c.4,0,.6-.2.6-.6v-20c0-.4-.2-.6-.6-.6h-1.5c-.4,0-.6.2-.6.6v8.2c-.2-.3-.5-.5-1-.5h-1.4c-.4,0-.6.2-.6.6v1.4c0,.4.2.6.6.6h1.6c.6,0,.8.3.8.8v8.8h0Z"/>
    <path class="cls-2" d="M348.4,192.5c.4,0,.6-.2.6-.6v-1.3c0-.4-.2-.6-.6-.6h-9.8c-.4,0-.6.2-.6.6v1.3c0,.4.2.6.6.6h3.6v.7c0,.6,0,1.2-.3,1.8-.2.6-.4,1-.8,1.4-.3.4-.7.7-1.2.9s-.9.3-1.5.3-.6.2-.6.6v1.3c0,.4.2.6.6.6.6,0,1.2,0,1.8-.3s1-.4,1.5-.8c.4-.3.8-.7,1.1-1.1.3-.4.5-.9.7-1.3.2.5.4.9.7,1.3.3.4.7.8,1.1,1.1.4.3.9.6,1.5.8s1.1.3,1.8.3.6-.2.6-.6v-1.3c0-.4-.2-.6-.6-.6s-1-.1-1.5-.3-.8-.5-1.2-.9c-.3-.4-.6-.9-.8-1.4-.2-.6-.3-1.1-.3-1.8v-.7h3.6ZM347.4,206.5c0-3-2.6-4.6-7.8-4.6s-7.8,1.5-7.8,4.6,2.6,4.6,7.8,4.6,7.8-1.5,7.8-4.6ZM344.6,206.5c0,.3,0,.6-.3.9-.2.2-.5.5-.9.6-.4.2-.9.3-1.6.4-.6,0-1.4.1-2.4.1s-1.7,0-2.4-.1c-.6,0-1.2-.2-1.6-.4-.4-.2-.7-.4-.9-.6-.2-.2-.3-.5-.3-.9s0-.6.3-.9c.2-.2.5-.5.9-.6.4-.2.9-.3,1.6-.4.6,0,1.4-.1,2.4-.1s1.7,0,2.4.1c.6,0,1.2.2,1.6.4.4.2.7.4.9.6s.3.5.3.9ZM335,190c0-.4-.2-.6-.6-.6h-1.5c-.4,0-.6.2-.6.6v10.1c0,.4.2.6.6.6h1.5c.4,0,.6-.2.6-.6v-4.4c.2.3.5.5,1,.5h1.7c.4,0,.6-.2.6-.6v-1.3c0-.4-.2-.6-.6-.6h-1.8c-.6,0-.8-.3-.8-.8v-3h0Z"/>
    <path class="cls-2" d="M311.2,197.9c-.4,0-.6.1-.6.5v1.2c0,.4.2.6.6.6s1,0,1.6.1h12.4c1.4,0,2.4,0,3.1-.2.4,0,.6-.2.6-.6v-1.2c0-.4-.2-.6-.6-.5h-13.4c-1.4,0-2.5,0-3.5-.2l-.2.3ZM312,210.6c.4,0,.9.1,1.5.2.6,0,1.1,0,1.7.1h3.2c1.7,0,3.2,0,4.3-.1s2-.2,2.6-.5c.6-.2,1.1-.5,1.3-.9s.4-.9.4-1.5-.1-1.1-.3-1.4c-.2-.4-.6-.7-1.2-.9s-1.3-.4-2.2-.5-2.1-.1-3.5-.1h-3.9c-.4,0-.8,0-.9-.2-.2,0-.3-.3-.3-.5s0-.5.3-.6c.2-.1.5-.2.9-.2h5c1,0,1.9,0,2.8.1.9,0,1.7,0,2.4.1.4,0,.5-.2.5-.6v-1.1c0-.4-.2-.5-.5-.6-.9,0-1.9-.1-3-.2h-9c-.8,0-1.4.2-1.7.5s-.5.7-.5,1.3.1.9.4,1.3c.3.4.7.6,1.1.8h-.9c-.3,0-.5.2-.5.5v1c0,.4.2.6.5.5h9.5c.6,0,1,0,1.4.1.3,0,.5.1.6.3,0,.1.1.3.1.4s0,.4-.2.5-.4.2-.9.3-1,0-1.8,0h-6.2c-.6,0-1.1,0-1.7-.1s-1.1-.1-1.5-.2c-.4,0-.5.1-.6.5v1.1c0,.4,0,.6.4.6h.4ZM327,193.4c0-.7-.1-1.2-.4-1.7-.3-.5-.7-.9-1.3-1.2s-1.4-.5-2.3-.6c-1-.1-2.1-.2-3.4-.2s-2.5,0-3.4.2c-1,.1-1.7.4-2.3.6-.6.3-1,.7-1.3,1.2s-.4,1-.4,1.7.1,1.2.4,1.7c.3.5.7.9,1.3,1.2s1.4.5,2.3.6,2.1.2,3.4.2,2.5,0,3.4-.2,1.7-.4,2.3-.6c.6-.3,1-.7,1.3-1.2s.4-1,.4-1.7ZM324.2,193.4c0,.3,0,.5-.2.7s-.4.3-.8.5c-.4.1-.9.2-1.5.3h-4.6c-.6,0-1.1-.1-1.5-.3-.4-.1-.6-.3-.8-.5s-.2-.4-.2-.7,0-.5.2-.7.4-.3.8-.5.9-.2,1.5-.3,1.4,0,2.3,0h2.3c.6,0,1.1.1,1.5.3s.6.3.8.5.2.4.2.7Z"/>
    <path class="cls-2" d="M299.8,206.9c0-1.2-.5-2.2-1.5-2.9s-2.6-1.1-4.8-1.2v-.9c0-.3,0-.5-.3-.6h7.4c.4,0,.6-.2.6-.6v-1.3c0-.4-.2-.6-.6-.6-.8,0-1.8.1-3.1.2h-12.1c-.6,0-1.1,0-1.6-.1-.4,0-.6.1-.6.6v1.3c0,.4.2.6.6.6s.9,0,1.5.1h4.9c.4,0,.6.2.6.6v.8c-2.3,0-3.9.5-5,1.1-1.1.7-1.6,1.6-1.6,2.9s.6,2.4,1.9,3.1,3.3,1,5.9,1,4.6-.3,5.9-1c1.3-.7,1.9-1.7,1.9-3.1h0ZM298.8,197.7c.4,0,.6-.2.6-.6v-1.4c0-.4-.2-.6-.6-.6-.8,0-1.5,0-2.1-.2-.6-.1-1.2-.3-1.7-.6-.5-.2-.8-.5-1.1-.9-.3-.3-.4-.7-.5-1.1h5c.4,0,.6-.2.6-.6v-1.3c0-.4-.2-.6-.6-.6h-12.9c-.4,0-.6.2-.6.6v1.3c0,.4.2.6.6.6h5c0,.4-.2.7-.5,1.1-.3.3-.6.6-1.1.9-.5.2-1,.4-1.7.6-.6.1-1.4.2-2.1.2s-.6.2-.6.6v1.4c0,.4.2.6.6.6.7,0,1.5,0,2.2-.2s1.4-.4,2-.6c.6-.3,1.1-.6,1.6-1s.8-.8,1.1-1.2c.3.4.6.8,1.1,1.2s1,.7,1.6,1,1.3.5,2,.6c.7.2,1.4.2,2.2.2h-.1ZM297,206.9c0,.6-.4,1-1.2,1.3s-2.1.4-3.9.4-3.1-.1-3.9-.4-1.2-.7-1.2-1.3.4-1,1.2-1.3,2.1-.4,3.9-.4,3.1.1,3.9.4,1.2.7,1.2,1.3Z"/>
    <path class="cls-2" d="M273.7,193.2c0,.6,0,1.2-.3,1.8-.2.6-.4,1-.8,1.4-.3.4-.7.7-1.2.9s-.9.3-1.5.3-.6.2-.6.6v1.3c0,.4.2.6.6.6.6,0,1.2,0,1.8-.3s1-.4,1.5-.8c.4-.3.8-.7,1.1-1.1.3-.4.5-.9.7-1.3.2.5.4.9.7,1.3.3.4.7.8,1.1,1.1.4.3.9.6,1.5.8s1.1.3,1.8.3.6-.2.6-.6v-1.3c0-.4-.2-.6-.6-.6s-1-.1-1.5-.3-.8-.5-1.2-.9c-.3-.4-.6-.9-.8-1.4-.2-.6-.3-1.1-.3-1.8v-2.6c0-.4-.2-.6-.6-.6h-1.5c-.4,0-.6.2-.6.6v2.6h.1ZM263.9,208.3c-.4,0-.6.2-.6.6v1.3c0,.4.2.6.6.6h12.4c.8,0,1.4-.2,1.8-.6s.7-.9.7-1.6v-5.5c0-.8-.4-1.1-1.1-1.1h-11.1c-.9,0-1.7.2-2.2.7s-.8,1.2-.8,2.1.2,1.4.6,2,.9,1.1,1.5,1.4h-1.8,0ZM268.6,208.3c-.3,0-.6,0-.9-.2-.3-.1-.5-.3-.7-.5s-.3-.4-.5-.7c-.1-.3-.2-.6-.2-.9,0-.5.1-.9.4-1.1.3-.2.7-.3,1.2-.3h7.4c.4,0,.6.2.6.6v2.4c0,.2,0,.4-.3.6-.2.1-.4.2-.7.2h-6.5.2ZM266.6,190c0-.4-.2-.6-.6-.6h-1.5c-.4,0-.6.2-.6.6v9.6c0,.4.2.6.6.6h1.5c.4,0,.6-.2.6-.6v-9.6Z"/>
    <path class="cls-2" d="M259.7,205.8c-1.2.1-2.4.2-3.8.3-1.4,0-2.9.1-4.6.1h-4.8c-1.5,0-2.7-.2-3.6-.3-.4,0-.6.1-.6.6v1.3c0,.4.2.6.6.6s.9.1,1.5.2c.6,0,1.3,0,2,.1h5c3.8,0,6.6-.1,8.4-.4.4,0,.6-.3.6-.6v-1.3c0-.4-.2-.6-.6-.6h0ZM258.6,196.5c0-2-.7-3.5-2-4.5-1.3-1.1-3.1-1.6-5.5-1.6s-4.2.5-5.5,1.6-2,2.6-2,4.5.7,3.5,2,4.5c1.3,1.1,3.1,1.6,5.5,1.6s4.2-.5,5.5-1.6,1.9-2.6,1.9-4.5h.1ZM251.1,200.1c-1.6,0-2.7-.3-3.5-.9-.8-.6-1.2-1.5-1.2-2.6s.4-2,1.2-2.6,2-.9,3.6-.9,2.8.3,3.6.9c.8.6,1.2,1.5,1.2,2.6s-.4,2-1.2,2.6-2,.9-3.5.9h-.2Z"/>
    <path class="cls-2" d="M238.9,208.4c.4,0,.6-.3.6-.6v-1.3c0-.4-.2-.6-.6-.6s-.9,0-1.5.1c-.6,0-1.2,0-1.9.1s-1.4,0-2.1.1h-2.1c.2,0,.3-.2.4-.4.1-.2.2-.4.2-.6v-2.5c1.1,0,2-.2,2.7-.3.7-.2,1.3-.4,1.8-.7.4-.3.8-.7.9-1.2.2-.5.3-1,.3-1.7s-.1-1.3-.3-1.8-.6-.8-1.2-1.1c-.5-.3-1.3-.5-2.2-.6s-2-.2-3.4-.2h-3c-1,0-1.6-.4-1.6-1.2s.1-.7.3-.8c.2-.2.6-.2,1.2-.2h4.8c.8,0,1.5,0,2.3.1.7,0,1.4.1,2,.2.4,0,.6-.1.6-.5v-1.4c0-.3-.2-.5-.5-.6-1-.1-2.2-.3-3.6-.3s-2.8-.1-4.2-.1h-2.9c-1.8,0-2.7.8-2.7,2.3s.2,1.2.5,1.7.8.8,1.3,1h-1.1c-.4,0-.5.2-.5.5v1.2c0,.4.2.6.5.6h8.6c.6,0,1,.1,1.3.2.3,0,.6.2.7.4.1.2.2.4.2.6s0,.5-.2.6c-.2.2-.4.3-.9.4-.4,0-1,.2-1.7.2h-2.9c-1.2,0-1.9,0-2.9-.1-1,0-1.9-.2-2.8-.3-.3,0-.5.1-.6.5l-.2,1.4v.4c0,.1.2.2.4.2,1,.1,2,.3,3.1.3s2.1.1,2.9.1h0v2.7c0,.5-.3.7-.8.7h-3.3c-.5,0-1.1,0-1.6-.1-.5,0-1,0-1.4-.1-.4,0-.6.1-.6.6v1.3c0,.4.2.6.6.6s.9.1,1.5.2c.6,0,1.3,0,2,.1h5c3.8,0,6.6-.1,8.4-.4l.2.3Z"/>
    <path class="cls-2" d="M201.3,191.4c-.4,0-.6.2-.6.6v1.4c0,.4.2.6.6.6h10.7c.4,0,.6-.2.6-.6v-1.4c0-.4-.2-.6-.6-.6h-4.4c.2-.1.4-.3.4-.6v-1.3c0-.4-.2-.6-.6-.6h-1.6c-.4,0-.6.2-.6.6v1.5c0,.3-.2.4-.5.4h-3.4ZM201.4,201.5c0,1.9.5,3.3,1.4,4.4.9,1,2.2,1.5,3.9,1.5s2.9-.5,3.9-1.5c.9-1,1.4-2.5,1.4-4.4s-.5-3.3-1.4-4.4c-.9-1-2.2-1.5-3.9-1.5s-3,.5-3.9,1.5-1.4,2.5-1.4,4.4ZM206.7,198.2c.8,0,1.4.3,1.8.8s.6,1.4.6,2.4-.2,1.9-.7,2.5c-.4.6-1,.8-1.8.8s-1.4-.3-1.8-.8-.7-1.4-.7-2.5.2-1.9.7-2.4c.4-.5,1.1-.8,1.8-.8h.1ZM195.9,210c0,.4.2.6.6.6h1.5c.4,0,.6-.2.6-.6v-20c0-.4-.2-.6-.6-.6h-1.5c-.4,0-.6.2-.6.6v8.2c-.2-.3-.5-.5-1-.5h-1.4c-.4,0-.6.2-.6.6v1.4c0,.4.2.6.6.6h1.6c.6,0,.8.3.8.8v8.8h0Z"/>
    <path class="cls-2" d="M190.3,200.1h-13.3c-1.4,0-2.5,0-3.4-.2-.4,0-.6.1-.6.6v1.3c0,.4.2.6.6.6s1,0,1.6.1h12.3c1.4,0,2.4,0,3.1-.2.4,0,.6-.3.6-.6v-1.3c0-.4-.2-.6-.6-.6l-.3.3ZM189.2,204.9c0-.4-.3-.6-.7-.6h-1.5c-.2,0-.4,0-.5.2-.1.1-.1.3-.1.5,0,.3,0,.5.1.8v.9c0,1.3-.8,1.9-2.3,1.9h-5.4c-.8,0-1.5,0-2.2-.1s-1.4-.1-2.1-.2c-.4,0-.6.1-.6.6v1.3c-.1.4,0,.6.5.6,1.2.1,2.6.2,4.3.3,1.7,0,3.5.1,5.5.1s2.9-.4,3.8-1.1,1.3-1.8,1.3-3.2,0-.7,0-1,0-.6-.1-.8v-.2ZM188.8,190.5c0-.4-.3-.6-.7-.6h-1.5c-.2,0-.4,0-.5.2,0,.1-.1.3-.1.5v3.7c0,1.3-.8,1.9-2.3,1.9h-4.9c-.7,0-1.4,0-2.1-.1-.7,0-1.4-.1-2.1-.2-.4,0-.6.1-.6.6v1.3c-.1.4,0,.6.5.6,1.2.1,2.6.2,4.2.3s3.3.1,5.2.1,2.8-.4,3.6-1.1,1.2-1.8,1.2-3.2,0-.5,0-.9v-3h0Z"/>
    <path class="cls-2" d="M153,199.6c.8.3,1.7.5,2.6.6s1.8.2,2.6.2c1.7,0,3-.4,3.9-1.2s1.3-2.1,1.3-3.7,0-1.8-.1-2.6c0-.8-.2-1.6-.4-2.4,0-.4-.3-.6-.7-.6h-1.5c-.2,0-.4,0-.5.2-.1.1-.2.3-.1.5,0,.6.2,1.1.3,1.6,0,.5.1.9.2,1.3v2.2c0,.8-.2,1.3-.6,1.6s-1,.5-1.9.5h-1c-.4,0-.8,0-1.2-.2-.4,0-.8-.2-1.2-.3l-1.2-.3c-.3-.1-.6,0-.7.5l-.4,1.3c0,.4,0,.6.5.8h.1ZM147.5,208.3c-.4,0-.6.2-.6.6v1.3c0,.4.2.6.6.6h11.9c.8,0,1.4-.2,1.8-.6s.7-.9.7-1.6v-5.5c0-.8-.4-1.1-1.1-1.1h-10.6c-.9,0-1.7.2-2.2.7s-.8,1.2-.8,2.1.2,1.4.6,2,.9,1.1,1.5,1.4h-1.8ZM152.2,208.3c-.3,0-.6,0-.9-.2-.3-.1-.5-.3-.7-.5s-.3-.4-.5-.7c-.1-.3-.2-.6-.2-.9,0-.5.1-.9.4-1.1.3-.2.7-.3,1.2-.3h6.9c.4,0,.6.2.6.6v2.4c0,.2,0,.4-.3.6-.2.1-.4.2-.7.2h-6,.2ZM147.4,199.7c0,.4.2.6.6.6h1.5c.4,0,.6-.2.6-.6v-9.6c0-.4-.2-.6-.6-.6h-1.5c-.4,0-.6.2-.6.6v3.7c-.2-.3-.5-.5-1-.5h-1.4c-.4,0-.6.2-.6.6v1.3c0,.4.2.6.6.6h1.6c.6,0,.8.3.8.8v3.2h0Z"/>
    <path class="cls-2" d="M135.9,193.2c0,.6,0,1.2-.3,1.8-.2.6-.4,1-.8,1.4-.3.4-.7.7-1.2.9s-.9.3-1.5.3-.6.2-.6.6v1.3c0,.4.2.6.6.6.6,0,1.2,0,1.8-.3s1-.4,1.5-.8c.4-.3.8-.7,1.1-1.1.3-.4.5-.9.7-1.3.2.5.4.9.7,1.3.3.4.7.8,1.1,1.1s.9.6,1.5.8,1.1.3,1.8.3.6-.2.6-.6v-1.3c0-.4-.2-.6-.6-.6s-1-.1-1.5-.3-.8-.5-1.2-.9c-.3-.4-.6-.9-.8-1.4-.2-.6-.3-1.1-.3-1.8v-2.6c0-.4-.2-.6-.6-.6h-1.5c-.4,0-.6.2-.6.6v2.6h0ZM141.2,206.5c0-3-2.6-4.6-7.8-4.6s-7.8,1.5-7.8,4.6,2.6,4.6,7.8,4.6,7.8-1.5,7.8-4.6ZM138.5,206.5c0,.3,0,.6-.3.9-.2.2-.5.5-.9.6-.4.2-.9.3-1.6.4-.6,0-1.4.1-2.4.1s-1.7,0-2.4-.1c-.6,0-1.2-.2-1.6-.4s-.7-.4-.9-.6c-.2-.2-.3-.5-.3-.9s0-.6.3-.9c.2-.2.5-.5.9-.6.4-.2.9-.3,1.6-.4.6,0,1.4-.1,2.4-.1s1.7,0,2.4.1c.6,0,1.2.2,1.6.4s.7.4.9.6.3.5.3.9ZM128.8,190c0-.4-.2-.6-.6-.6h-1.5c-.4,0-.6.2-.6.6v10.1c0,.4.2.6.6.6h1.5c.4,0,.6-.2.6-.6v-5.4c.2.3.5.5,1,.5h2.5c.4,0,.6-.2.6-.6v-1.3c0-.4-.2-.6-.6-.6h-2.7c-.6,0-.8-.3-.8-.8v-1.9Z"/>
    <path class="cls-2" d="M112.1,199.3c0,3,.4,5.2,1.3,6.5s2.2,2.1,4.1,2.1,3.2-.7,4.1-2.1c.9-1.4,1.3-3.6,1.3-6.5s-.4-5.2-1.3-6.5c-.9-1.4-2.2-2.1-4.1-2.1s-3.2.7-4.1,2.1-1.3,3.6-1.3,6.5ZM117.5,193.3c.9,0,1.6.5,2,1.4s.6,2.4.6,4.6-.2,3.6-.6,4.6c-.4.9-1.1,1.4-2,1.4s-1.6-.5-2-1.4-.6-2.5-.6-4.6.2-3.6.6-4.6c.4-.9,1.1-1.4,2-1.4ZM108.9,190c0-.4-.2-.6-.6-.6h-1.5c-.4,0-.6.2-.6.6v20c0,.4.2.6.6.6h1.5c.4,0,.6-.2.6-.6v-20Z"/>
  </g>
  <g>
    <path class="cls-2" d="M318.8,235.9c-.4,0-.6.1-.6.5v1.2c0,.4.2.6.6.6s1,0,1.6.1h12.4c1.4,0,2.4,0,3.1-.2.4,0,.6-.2.6-.6v-1.2c0-.4-.2-.6-.6-.5h-13.4c-1.4,0-2.5,0-3.5-.2l-.2.3ZM319.6,248.6c.4,0,.9.1,1.5.2.6,0,1.1,0,1.7.1h3.2c1.7,0,3.2,0,4.3-.1s2-.2,2.6-.5c.6-.2,1.1-.5,1.3-.9s.4-.9.4-1.5-.1-1.1-.3-1.4c-.2-.4-.6-.7-1.2-.9s-1.3-.4-2.2-.5-2.1-.1-3.5-.1h-3.9c-.4,0-.8,0-.9-.2-.2,0-.3-.3-.3-.5s0-.5.3-.6c.2-.1.5-.2.9-.2h5c1,0,1.9,0,2.8.1.9,0,1.7,0,2.4.1.4,0,.5-.2.5-.6v-1.1c0-.4-.2-.5-.5-.6-.9,0-1.9-.1-3-.2h-9c-.8,0-1.4.2-1.7.5s-.5.7-.5,1.3.1.9.4,1.3c.3.4.7.6,1.1.8h-.9c-.3,0-.5.2-.5.5v1c0,.4.2.6.5.5h9.5c.6,0,1,0,1.4.1.3,0,.5.1.6.3,0,.1.1.3.1.4s0,.4-.2.5-.4.2-.9.3-1,0-1.8,0h-6.2c-.6,0-1.1,0-1.7-.1s-1.1-.1-1.5-.2c-.4,0-.5.1-.6.5v1.1c0,.4,0,.6.4.6h.4ZM334.2,228.5c0-.4-.3-.6-.7-.6h-1.5c-.2,0-.4,0-.5.2-.1.1-.1.3-.1.5,0,.4,0,.7.1,1.1v1.2c0,.6-.2,1-.5,1.3s-.8.4-1.6.4h-5.1c-.8,0-1.5,0-2.2-.1-.7,0-1.4-.1-2.1-.2-.4,0-.6.1-.6.6v1.3c-.1.4,0,.6.5.6,1.2.1,2.6.2,4.3.3,1.7,0,3.5.1,5.3.1s2.7-.3,3.5-1,1.2-1.7,1.2-3v-1.4c0-.5,0-.8-.1-1.2h.1Z"/>
    <path class="cls-2" d="M305.2,237.3c0,3,.4,5.2,1.3,6.5s2.2,2.1,4,2.1,3.2-.7,4-2.1,1.3-3.6,1.3-6.5-.4-5.2-1.2-6.5-2.2-2.1-4-2.1-3.2.7-4,2.1-1.3,3.6-1.3,6.5h-.1ZM310.5,231.3c.9,0,1.5.5,1.9,1.4s.6,2.4.6,4.6-.2,3.6-.6,4.6c-.4.9-1,1.4-1.9,1.4s-1.5-.5-1.9-1.4-.6-2.5-.6-4.6.2-3.6.6-4.6c.4-.9,1-1.4,1.9-1.4ZM301.8,228c0-.4-.2-.6-.6-.6h-1.5c-.4,0-.6.2-.6.6v20c0,.4.2.6.6.6h1.5c.4,0,.6-.2.6-.6v-10.2c.2.3.5.5,1,.5h1.1c.4,0,.6-.2.6-.6v-1.4c0-.4-.2-.6-.6-.6h-1.2c-.6,0-.8-.3-.8-.8v-6.9h-.1Z"/>
    <path class="cls-2" d="M285.2,237.6c.8.3,1.7.5,2.6.6.9.1,1.8.2,2.6.2,1.7,0,3-.4,3.9-1.2s1.3-2.1,1.3-3.7,0-1.8-.1-2.6c0-.8-.2-1.6-.4-2.4,0-.4-.3-.6-.7-.6h-1.5c-.2,0-.4,0-.5.2-.1.1-.2.3-.1.5,0,.6.2,1.1.3,1.6,0,.5.1.9.2,1.3v2.2c0,.8-.2,1.3-.6,1.6-.4.3-1,.5-1.9.5h-1c-.4,0-.8,0-1.2-.2-.4,0-.8-.2-1.2-.3s-.8-.2-1.2-.3c-.3-.1-.6,0-.7.5l-.4,1.3c0,.4,0,.6.5.8h0ZM279.7,246.3c-.4,0-.6.2-.6.6v1.3c0,.4.2.6.6.6h11.9c.8,0,1.4-.2,1.8-.6s.7-.9.7-1.6v-5.5c0-.8-.4-1.1-1.1-1.1h-10.6c-.9,0-1.7.2-2.2.7s-.8,1.2-.8,2.1.2,1.4.6,2,.9,1.1,1.5,1.4h-1.8,0ZM284.3,246.3c-.3,0-.6,0-.9-.2-.3-.1-.5-.3-.7-.5s-.3-.4-.5-.7c-.1-.3-.2-.6-.2-.9,0-.5.1-.9.4-1.1.3-.2.7-.3,1.2-.3h6.9c.4,0,.6.2.6.6v2.4c0,.2,0,.4-.3.6-.2.1-.4.2-.7.2h-6,.2ZM279.6,237.7c0,.4.2.6.6.6h1.5c.4,0,.6-.2.6-.6v-9.6c0-.4-.2-.6-.6-.6h-1.5c-.4,0-.6.2-.6.6v3.7c-.2-.3-.5-.5-1-.5h-1.4c-.4,0-.6.2-.6.6v1.3c0,.4.2.6.6.6h1.6c.6,0,.8.3.8.8v3.2h0Z"/>
    <path class="cls-2" d="M265.7,238.3c0,2.6.5,4.5,1.3,5.7s1.9,1.8,3.5,1.8,2.8-.7,3.6-2.1,1.2-3.6,1.2-6.5-.4-5.2-1.2-6.5-2-2.1-3.6-2.1-2.6.6-3.4,1.7c-.8,1.1-1.2,2.9-1.4,5.3h-2c-.3,0-.5,0-.6-.1-.1,0-.2-.3-.2-.5v-6.8c0-.4-.2-.6-.6-.6h-1.4c-.4,0-.6.2-.6.6v19.8c0,.4.2.6.6.6h1.4c.4,0,.6-.2.6-.6v-10.2c0,.1.2.2.3.3.1,0,.3.1.5.1h2ZM270.4,231.3c.7,0,1.3.5,1.6,1.4s.5,2.5.5,4.5-.2,3.6-.5,4.6-.9,1.4-1.6,1.4-1.3-.5-1.6-1.4-.5-2.5-.5-4.6.2-3.6.5-4.6c.3-.9.9-1.4,1.6-1.4h0ZM256.1,248.1c0,.4.2.6.6.6h1.4c.4,0,.6-.2.6-.6v-20.1c0-.4-.2-.6-.6-.6h-1.4c-.4,0-.6.2-.6.6v20.1Z"/>
    <path class="cls-2" d="M239.8,242.6h0c.5-1.4.7-3.1.7-5.3s0-2.8-.2-3.9c-.2-1.1-.4-1.9-.8-2.6-.3-.7-.8-1.1-1.4-1.5-.6-.3-1.2-.5-2-.5s-.5,0-.7,0h-.6c-.2,0-.4,0-.5.2,0,0-.1.2-.1.5v1.4c0,.4.2.6.6.6h1c.4,0,.7,0,1,.2s.5.5.6.9c.2.4.3,1,.3,1.8v2.9c0,1.2,0,2-.1,2.7,0,.7-.2,1.3-.3,1.8-.2.4-.4.8-.6.9-.3.2-.6.3-1,.3s-.9,0-1.4-.3h-.2c-.2,0-.4.2-.4.5l-.2,1.4c0,.4.1.6.5.7.4.1.7.2,1,.3h1.1c1.2,0,2.2-.5,3-1.6v.4c-.1.4,0,.6.4.7.5.2.9.3,1.3.4.4,0,.8.1,1.2.1,1.5,0,2.6-.7,3.4-2.1s1.2-3.5,1.2-6.2,0-2.8-.2-3.9c-.2-1.1-.4-1.9-.8-2.6-.4-.7-.8-1.1-1.4-1.5-.6-.3-1.2-.5-2-.5s-.4,0-.6,0h-.6c-.2,0-.4,0-.5.2,0,0-.1.2-.1.5v1.4c0,.4.2.6.6.6h.9c.4,0,.7,0,1,.2s.5.5.6.9.2,1,.3,1.8v2.9c0,1.2,0,1.9-.1,2.7,0,.7-.2,1.3-.4,1.8s-.4.8-.7,1-.7.3-1.1.3-1.1-.1-1.8-.4h.1ZM229.5,248c0,.4.2.6.6.6h1.5c.4,0,.6-.2.6-.6v-20c0-.4-.2-.6-.6-.6h-1.5c-.4,0-.6.2-.6.6v8.2c-.2-.3-.5-.5-1-.5h-.9c-.4,0-.6.2-.6.6v1.4c0,.4.2.6.6.6h1.1c.6,0,.8.3.8.8v8.8h0Z"/>
    <path class="cls-2" d="M219,243c-1.3,0-2.6-.3-4-.9h-.3c-.2,0-.3.1-.4.4l-.4,1.4c-.1.4,0,.6.4.7,1,.3,1.9.6,2.7.7.8.2,1.7.2,2.5.2,3.8,0,5.7-1.7,5.7-5s-.5-2.9-1.4-3.6c-.9-.8-2.4-1.2-4.3-1.2s-1.3-.2-1.6-.5-.5-.9-.5-1.6.2-1.3.5-1.7c.4-.3.9-.5,1.8-.5s2.3.1,4.2.4c.4,0,.6-.1.6-.5v-1.5c0-.4-.2-.6-.6-.6s-.8-.1-1.2-.2h-3.8c-2.9,0-4.4,1.2-4.4,3.5s.1,1.4.4,2,.6,1.1,1.1,1.5h-.8c-.4,0-.6.2-.6.6v1.3c0,.4.2.6.6.6h3.3c1.4,0,2.4.2,3,.5.6.4.9,1,.9,1.8s-.3,1.5-.8,1.8c-.5.4-1.4.5-2.7.5h0ZM209.1,248c0,.4.2.6.6.6h1.5c.4,0,.6-.2.6-.6v-20c0-.4-.2-.6-.6-.6h-1.5c-.4,0-.6.2-.6.6v8.2c-.2-.3-.5-.5-1-.5h-1.4c-.4,0-.6.2-.6.6v1.4c0,.4.2.6.6.6h1.6c.6,0,.8.3.8.8v8.8h0Z"/>
    <path class="cls-2" d="M186.8,237c.7.2,1.4.4,2.2.5.8.1,1.5.2,2,.2,2.2,0,3.9-.4,5-1.2s1.6-2,1.6-3.7-.6-2.9-1.7-3.7-2.8-1.2-5.1-1.2-2.4,0-3.2.2c-.4,0-.5.3-.5.6v1.2c0,.5.2.7.6.6.8-.1,1.7-.2,2.9-.2s2.5.2,3.2.6c.7.4,1,1,1,1.9s-.3,1.5-.9,1.9-1.6.6-3,.6-1,0-1.7-.2c-.7-.1-1.3-.3-1.9-.5-.4-.1-.6,0-.7.4l-.3,1.2c0,.4,0,.6.4.7h.1ZM181.4,248.6c.5,0,1,.1,1.6.2s1.1,0,1.6.1h2.8c1.7,0,3.1,0,4.2-.1,1.1,0,2-.3,2.6-.5s1.1-.6,1.3-1c.3-.4.4-.9.4-1.6s-.1-1.1-.3-1.5c-.2-.4-.6-.7-1.2-1-.5-.2-1.3-.4-2.2-.5s-2-.1-3.4-.1h-3.6c-.7,0-1.2-.3-1.2-.8s.4-.8,1.2-.8h4.7c.9,0,1.8,0,2.6.1.9,0,1.6,0,2.3.1.4,0,.6-.2.6-.6v-1.2c0-.4-.2-.5-.6-.6-.9,0-1.8-.1-2.9-.2h-8.5c-.8,0-1.3.2-1.6.5-.3.3-.5.8-.5,1.4s.1.9.4,1.3c.3.4.7.7,1.1.8h-.8c-.4,0-.5.2-.5.5v1.1c0,.4.2.5.5.5h9c.6,0,1,0,1.3.1.3,0,.5.1.6.3,0,.1.1.3.1.5s0,.4-.2.5-.4.2-.8.3-1,.1-1.7.1h-5.9c-.5,0-1,0-1.6-.1-.5,0-1-.1-1.5-.2-.4,0-.6.1-.6.5v1.2c0,.4,0,.6.4.6h.3ZM181.5,237c0,.4.2.6.6.6h1.5c.4,0,.6-.2.6-.6v-8.9c0-.4-.2-.6-.6-.6h-1.5c-.4,0-.6.2-.6.6v3.3c-.2-.3-.5-.5-1-.5h-1.4c-.4,0-.6.2-.6.6v1.3c0,.4.2.6.6.6h1.6c.6,0,.8.3.8.8v2.8h0Z"/>
    <path class="cls-2" d="M170.5,243c-1.3,0-2.6-.3-4-.9h-.3c-.2,0-.3.1-.4.4l-.4,1.4c-.1.4,0,.6.4.7,1,.3,1.9.6,2.7.7.8.2,1.7.2,2.5.2,3.8,0,5.7-1.7,5.7-5s-.5-2.9-1.4-3.6c-.9-.8-2.4-1.2-4.3-1.2s-1.3-.2-1.6-.5-.5-.9-.5-1.6.2-1.3.5-1.7c.4-.3.9-.5,1.8-.5s2.3.1,4.2.4c.4,0,.6-.1.6-.5v-1.5c0-.4-.2-.6-.6-.6s-.8-.1-1.2-.2h-3.8c-2.9,0-4.4,1.2-4.4,3.5s.1,1.4.4,2,.6,1.1,1.1,1.5h-.8c-.4,0-.6.2-.6.6v1.3c0,.4.2.6.6.6h3.3c1.4,0,2.4.2,3,.5.6.4.9,1,.9,1.8s-.3,1.5-.8,1.8c-.5.4-1.4.5-2.7.5h0ZM160.7,248c0,.4.2.6.6.6h1.5c.4,0,.6-.2.6-.6v-20c0-.4-.2-.6-.6-.6h-1.5c-.4,0-.6.2-.6.6v8.2c-.2-.3-.5-.5-1-.5h-1.4c-.4,0-.6.2-.6.6v1.4c0,.4.2.6.6.6h1.6c.6,0,.8.3.8.8v8.8h0Z"/>
    <path class="cls-2" d="M155.5,230.5c.4,0,.6-.2.6-.6v-1.3c0-.4-.2-.6-.6-.6h-9.8c-.4,0-.6.2-.6.6v1.3c0,.4.2.6.6.6h3.6v1.5c0,.7,0,1.3-.3,1.9-.2.6-.4,1.1-.8,1.5-.3.4-.7.8-1.2,1-.4.2-.9.4-1.5.4s-.6.2-.6.6v1.3c0,.4.2.6.6.6.6,0,1.2,0,1.7-.3.5-.2,1-.5,1.5-.8.4-.3.8-.7,1.1-1.1.3-.4.5-.9.7-1.4.2.5.4.9.7,1.4.3.4.7.8,1.1,1.1s.9.6,1.5.8,1.1.3,1.8.3.6-.2.6-.6v-1.3c0-.4-.2-.6-.6-.6s-1-.1-1.5-.4c-.4-.2-.8-.6-1.2-1-.3-.4-.6-.9-.8-1.5-.2-.6-.3-1.2-.3-1.9v-1.5h3.7ZM153.8,241.9c0-.4-.3-.6-.7-.6h-1.4c-.2,0-.4,0-.5.2-.1.1-.2.3-.1.5v2.4c0,.7-.2,1.3-.6,1.6-.4.4-1,.6-1.8.6h-5.3c-.7,0-1.4,0-2.1-.1-.7,0-1.4-.1-2.1-.2-.4,0-.6.1-.6.6v1.3c-.1.4,0,.6.5.6,1.2.1,2.6.2,4.1.3,1.6,0,3.3.1,5.3.1s3-.4,3.9-1.2,1.4-1.9,1.4-3.3v-1.5c0-.5,0-.9-.1-1.2h.1ZM142.1,228c0-.4-.2-.6-.6-.6h-1.5c-.4,0-.6.2-.6.6v13.5c0,.4.2.6.6.6h1.5c.4,0,.6-.2.6-.6v-13.5Z"/>
  </g>
  <g>
    <path class="cls-2" d="M336.7,282.8c0,.4.3.6.7.6h1.5c.2,0,.4,0,.5-.2.1-.1.1-.3.1-.5-.3-1.7-.6-3.5-.7-5.2-.1-1.7-.2-3.5-.2-5.2s.2-1.7.6-2.1c.4-.4,1-.6,1.9-.6s1.7,0,2.4.1c.7,0,1.5.2,2.3.3.2,0,.3,0,.5-.1s.2-.3.2-.5v-1.4c0-.4-.2-.6-.6-.6-.9-.1-1.8-.2-2.7-.3-.9,0-1.7-.1-2.6-.1s-1.6,0-2.2.3c-.6.2-1.1.5-1.5.9s-.7.9-.8,1.6-.3,1.4-.3,2.4c0,1.9,0,3.7.2,5.5.1,1.7.4,3.5.7,5.3v-.2ZM330.3,286c0,.4.2.6.6.6h1.5c.4,0,.6-.2.6-.6v-20c0-.4-.2-.6-.6-.6h-1.5c-.4,0-.6.2-.6.6v8.2c-.2-.3-.5-.5-1-.5h-1.4c-.4,0-.6.2-.6.6v1.4c0,.4.2.6.6.6h1.6c.6,0,.8.3.8.8v8.8h0Z"/>
    <path class="cls-2" d="M325.1,268.5c.4,0,.6-.2.6-.6v-1.3c0-.4-.2-.6-.6-.6h-9.8c-.4,0-.6.2-.6.6v1.3c0,.4.2.6.6.6h3.6v.7c0,.6,0,1.2-.3,1.8-.2.6-.4,1-.8,1.4-.3.4-.7.7-1.2.9s-.9.3-1.5.3-.6.2-.6.6v1.3c0,.4.2.6.6.6.6,0,1.2,0,1.8-.3s1-.4,1.5-.8c.4-.3.8-.7,1.1-1.1s.5-.9.7-1.3c.2.5.4.9.7,1.3s.7.8,1.1,1.1c.4.3.9.6,1.5.8s1.1.3,1.8.3.6-.2.6-.6v-1.3c0-.4-.2-.6-.6-.6s-1-.1-1.5-.3-.8-.5-1.2-.9c-.3-.4-.6-.9-.8-1.4-.2-.6-.3-1.1-.3-1.8v-.7h3.6ZM324.1,282.5c0-3-2.6-4.6-7.8-4.6s-7.8,1.5-7.8,4.6,2.6,4.6,7.8,4.6,7.8-1.5,7.8-4.6ZM321.4,282.5c0,.3,0,.6-.3.9-.2.2-.5.5-.9.6-.4.2-.9.3-1.6.4-.6,0-1.4.1-2.4.1s-1.7,0-2.4-.1c-.6,0-1.2-.2-1.6-.4-.4-.2-.7-.4-.9-.6s-.3-.5-.3-.9,0-.6.3-.9c.2-.2.5-.5.9-.6.4-.2.9-.3,1.6-.4.6,0,1.4-.1,2.4-.1s1.7,0,2.4.1c.6,0,1.2.2,1.6.4.4.2.7.4.9.6s.3.5.3.9ZM311.7,266c0-.4-.2-.6-.6-.6h-1.5c-.4,0-.6.2-.6.6v10.1c0,.4.2.6.6.6h1.5c.4,0,.6-.2.6-.6v-4.4c.2.3.5.5,1,.5h1.7c.4,0,.6-.2.6-.6v-1.3c0-.4-.2-.6-.6-.6h-1.8c-.6,0-.8-.3-.8-.8v-3h0Z"/>
    <path class="cls-2" d="M303.7,283.8c-.6,0-1,.2-1.3.5s-.5.8-.5,1.4c0,1,.3,1.7.9,2.3.6.6,1.3.8,2.2.8s.2,0,.2-.3v-.5c0-.2,0-.3-.2-.3-.5,0-.8-.2-1-.6.4,0,.8-.2,1.1-.6.3-.3.4-.7.4-1.2s-.2-.9-.5-1.3-.8-.5-1.3-.5v.3Z"/>
    <path class="cls-2" d="M283.1,282.8c0,.4.3.6.7.6h1.5c.2,0,.4,0,.5-.2.1-.1.1-.3.1-.5-.3-1.7-.6-3.5-.7-5.2-.1-1.7-.2-3.5-.2-5.2s.2-1.7.6-2.1c.4-.4,1-.6,1.9-.6s1.7,0,2.4.1c.7,0,1.5.2,2.3.3.2,0,.3,0,.5-.1s.2-.3.2-.5v-1.4c0-.4-.2-.6-.6-.6-.9-.1-1.8-.2-2.7-.3-.9,0-1.7-.1-2.6-.1s-1.6,0-2.2.3c-.6.2-1.1.5-1.5.9s-.7.9-.8,1.6-.3,1.4-.3,2.4c0,1.9,0,3.7.2,5.5.1,1.7.4,3.5.7,5.3v-.2ZM279.1,266c0-.4-.2-.6-.6-.6h-1.5c-.4,0-.6.2-.6.6v20c0,.4.2.6.6.6h1.5c.4,0,.6-.2.6-.6v-20Z"/>
    <path class="cls-2" d="M262.6,270.9c0,.8.1,1.5.4,2.1s.6,1.2,1.1,1.7,1,.8,1.7,1.1,1.4.4,2.2.4,1.5-.1,2.2-.4c.6-.2,1.2-.6,1.7-1.1s.8-1,1.1-1.7.4-1.4.4-2.1-.1-1.5-.4-2.2c-.2-.6-.6-1.2-1.1-1.6s-1-.8-1.7-1.1c-.6-.2-1.4-.4-2.2-.4s-1.5.1-2.2.4c-.7.2-1.2.6-1.7,1.1s-.8,1-1.1,1.6c-.2.6-.4,1.4-.4,2.2ZM268.5,286.8c.8,0,1.5-.2,2-.6s.7-1,.7-1.7l.3-6.2c0-.4-.2-.6-.6-.6h-1.5c-.4,0-.6.2-.6.6v1.1h-9.6v-1.1c0-.4-.3-.6-.7-.6h-1.5c-.4,0-.7.2-.6.6l.3,6.2c0,.7.3,1.3.7,1.7s1.1.6,2,.6h9.1ZM265.4,270.9c0-.8.2-1.5.7-2s1.1-.7,1.8-.7,1.4.2,1.8.7c.4.5.7,1.1.7,2s-.2,1.5-.7,2c-.4.5-1.1.7-1.8.7s-1.4-.2-1.8-.7c-.5-.5-.7-1.2-.7-2ZM268.5,283.4c0,.6-.4.9-1.1.9h-6.9c-.7,0-1.1-.3-1.1-.9v-1.5h9.2v1.5h0ZM259.1,266c0-.4-.2-.6-.6-.6h-1.5c-.4,0-.6.2-.6.6v9.4c0,.4.2.6.6.6h1.5c.4,0,.6-.2.6-.6v-4.1c.2.3.5.5,1,.5h1.1c.4,0,.6-.2.6-.6v-1.3c0-.4-.2-.6-.6-.6h-1.2c-.6,0-.8-.3-.8-.8v-2.5h-.1Z"/>
    <path class="cls-2" d="M251.1,283.8c-.6,0-1,.2-1.3.5s-.5.8-.5,1.4c0,1,.3,1.7.9,2.3.6.6,1.3.8,2.2.8s.2,0,.2-.3v-.5c0-.2,0-.3-.2-.3-.5,0-.8-.2-1-.6.4,0,.8-.2,1.1-.6.3-.3.4-.7.4-1.2s-.2-.9-.5-1.3-.8-.5-1.3-.5v.3Z"/>
    <path class="cls-2" d="M239.6,284.4c.4,0,.6-.3.6-.6v-1.3c0-.4-.2-.6-.6-.6s-.9,0-1.5.1c-.6,0-1.2,0-1.9.1s-1.4,0-2.1.1h-2.1c.2,0,.3-.2.4-.4s.2-.4.2-.6v-2.8c0-.4-.2-.6-.6-.6h-1.5c-.4,0-.6.2-.6.6v3c0,.5-.3.7-.8.7h-3.3c-.5,0-1.1,0-1.6-.1-.5,0-1,0-1.4-.1-.4,0-.6.1-.6.6v1.3c0,.4.2.6.6.6s.9.1,1.5.2c.6,0,1.3,0,2,.1h5c3.8,0,6.6-.1,8.4-.4h0ZM231,274.4c.3.6.6,1.1,1.1,1.6s1,.9,1.5,1.3c.6.4,1.2.6,1.9.8.7.2,1.4.3,2.1.3s.4,0,.6,0,.3-.2.3-.5v-1.5c0-.4-.2-.6-.6-.6-.8,0-1.5-.1-2.2-.4s-1.2-.6-1.7-1.1c-.5-.4-.9-1-1.1-1.6-.3-.6-.4-1.3-.4-2v-3.4c0-.4-.2-.6-.6-.6h-1.5c-.4,0-.6.2-.6.6v3.4c0,.7-.1,1.4-.4,2-.3.6-.6,1.1-1.1,1.6-.5.4-1.1.8-1.7,1.1-.7.3-1.4.4-2.2.4s-.6.2-.6.6v1.5c0,.3,0,.5.3.5h.6c.7,0,1.4,0,2.1-.3.7-.2,1.3-.5,1.9-.8.6-.4,1.1-.8,1.5-1.3s.8-1,1.1-1.6h-.3Z"/>
    <path class="cls-2" d="M209.2,280.8c0,.8.3,1.5.8,1.9.5.5,1.2.7,2.1.7h4.2c.9,0,1.6-.2,2.1-.7s.8-1.1.8-1.9l.4-13.2c0-.4-.2-.6-.6-.6h-1.4c-.4,0-.7.2-.7.6v4.7h-5.1v-4.7c-.1-.4-.3-.6-.8-.6h-1.4c-.4,0-.6.2-.6.6l.4,13.2h-.2ZM216.5,279.8c0,.7-.4,1-1.1,1h-2.5c-.7,0-1-.3-1.1-1v-5c-.1,0,4.7,0,4.7,0v5ZM205.6,266c0-.4-.2-.6-.6-.6h-1.5c-.4,0-.6.2-.6.6v20c0,.4.2.6.6.6h1.5c.4,0,.6-.2.6-.6v-20Z"/>
    <path class="cls-2" d="M187.8,282.3c-.4,0-.6,0-.6.5v1.4c0,.4.2.6.6.6.8.1,1.8.2,2.8.3h6.4c.9,0,1.8-.1,2.6-.3.4,0,.6-.3.6-.6v-1.4c0-.4-.2-.6-.6-.5-.8.1-1.7.2-2.6.3h-6.4c-1.1,0-2-.1-2.8-.3ZM199.2,272.6c0-1-.1-1.9-.4-2.7s-.6-1.5-1.1-2-1-1-1.7-1.3-1.4-.5-2.2-.5-1.6.2-2.2.5c-.7.3-1.2.7-1.7,1.3s-.8,1.2-1.1,2-.4,1.7-.4,2.7.1,1.9.4,2.7c.3.8.6,1.5,1.1,2,.5.6,1,1,1.7,1.3s1.4.5,2.2.5,1.6-.2,2.2-.5c.7-.3,1.2-.7,1.7-1.3.5-.6.8-1.2,1.1-2,.3-.8.4-1.7.4-2.7ZM193.8,276.6c-.8,0-1.5-.4-1.9-1.1-.5-.7-.7-1.7-.7-2.8s.2-2.1.7-2.8,1.1-1.1,1.9-1.1,1.5.4,1.9,1.1.7,1.7.7,2.8-.2,2.1-.7,2.8c-.5.7-1.1,1.1-1.9,1.1ZM182.9,286c0,.4.2.6.6.6h1.5c.4,0,.6-.2.6-.6v-20c0-.4-.2-.6-.6-.6h-1.5c-.4,0-.6.2-.6.6v20Z"/>
    <path class="cls-2" d="M171.3,282.9c0-1.2-.5-2.2-1.5-2.9-1-.7-2.6-1.1-4.8-1.2v-.9c0-.3,0-.5-.3-.6h7.4c.4,0,.6-.2.6-.6v-1.3c0-.4-.2-.6-.6-.6-.8,0-1.8.1-3.1.2h-12.1c-.6,0-1.1,0-1.6-.1-.4,0-.6.1-.6.6v1.3c0,.4.2.6.6.6s.9,0,1.5.1h4.9c.4,0,.6.2.6.6v.8c-2.3,0-3.9.5-5,1.1-1.1.7-1.6,1.6-1.6,2.9s.6,2.4,1.9,3.1,3.3,1,5.9,1,4.6-.3,5.9-1,1.9-1.7,1.9-3.1h0ZM170.3,268.3c.4,0,.6-.2.6-.6v-1.3c0-.4-.2-.6-.6-.6h-13.3c-.4,0-.6.2-.6.6v1.3c0,.4.2.6.6.6h1.4l.4,3h-2.1c-.4,0-.6.1-.6.5v1.4c0,.3.2.5.6.6.7,0,1.6.1,2.8.2h8.4c1.2,0,2.1-.1,2.8-.2.4,0,.6-.2.6-.6v-1.4c0-.4-.2-.5-.6-.5h-2.1l.4-3h1.4,0ZM168.6,282.9c0,.6-.4,1-1.2,1.3s-2.1.4-3.9.4-3.1-.1-3.9-.4-1.2-.7-1.2-1.3.4-1,1.2-1.3,2.1-.4,3.9-.4,3.1.1,3.9.4,1.2.7,1.2,1.3ZM163.6,271.3h-2.1l-.4-3h5l-.4,3h-2.1Z"/>
    <path class="cls-2" d="M145.5,275.5c-.1-.4-.2-.8-.3-1.3-.1-.5-.2-.9-.3-1.4,0-.5-.2-.9-.2-1.3v-1.1c0-.7.2-1.1.5-1.4s.8-.4,1.4-.4h2.9c.4,0,.7,0,1.1.1.3,0,.7.1,1.1.2.2,0,.3,0,.5-.1.1-.1.2-.3.2-.5v-1.4c0-.4-.2-.6-.6-.6-.9-.1-1.8-.2-2.6-.3s-1.7-.1-2.6-.1c-1.6,0-2.8.4-3.5,1.1s-1,1.9-1,3.5,0,.7,0,1.1.1.9.2,1.3.2.9.3,1.4c.1.5.2.9.3,1.3s.1.4.2.4c0,0,.2.1.5.1h1.5c.2,0,.4,0,.5-.2.1-.1.1-.3,0-.5h-.1ZM150.6,282.5c0-3-2.6-4.6-7.8-4.6s-7.8,1.5-7.8,4.6,2.6,4.6,7.8,4.6,7.8-1.5,7.8-4.6ZM147.8,282.5c0,.3,0,.6-.3.9s-.5.5-.9.6c-.4.2-.9.3-1.6.4-.6,0-1.4.1-2.4.1s-1.7,0-2.4-.1c-.6,0-1.2-.2-1.6-.4-.4-.2-.7-.4-.9-.6-.2-.2-.3-.5-.3-.9s0-.6.3-.9.5-.5.9-.6c.4-.2.9-.3,1.6-.4.6,0,1.4-.1,2.4-.1s1.7,0,2.4.1c.6,0,1.2.2,1.6.4.4.2.7.4.9.6s.3.5.3.9ZM138.2,274.3c.2.3.5.5,1,.5h1.3c.4,0,.6-.2.6-.6v-1.3c0-.4-.2-.6-.6-.6h-1.7c-.2,0-.4,0-.5-.2s-.1-.3-.1-.5v-2.2c.2.3.5.5,1,.5h1.3c.4,0,.6-.2.6-.6v-1.3c0-.4-.2-.6-.6-.6h-1.7c-.2,0-.4,0-.5-.2s-.1-.3-.1-.5v-.7c0-.4-.2-.6-.6-.6h-1.5c-.4,0-.6.2-.6.6v10.1c0,.4.2.6.6.6h1.5c.4,0,.6-.2.6-.6v-1.8h0Z"/>
    <path class="cls-2" d="M131.9,285.5c0-.5-.2-1-.5-1.3s-.8-.5-1.3-.5-1,.2-1.3.5-.5.7-.5,1.3.2.9.5,1.2c.3.3.8.5,1.3.5s1-.2,1.3-.5.5-.7.5-1.2Z"/>
  </g>
  <g>
    <path class="cls-4" d="M359.9,206.8c0,.4.3.6.7.6h1.5c.2,0,.4,0,.5-.2,0-.1,0-.3,0-.5-.3-1.7-.6-3.5-.7-5.2s-.2-3.5-.2-5.2.2-1.7.6-2.1c.4-.4,1-.6,1.9-.6s1.7,0,2.4.1c.7,0,1.5.2,2.3.3.2,0,.3,0,.5-.1s.2-.3.2-.5v-1.4c0-.4-.2-.6-.6-.6-.9-.1-1.8-.2-2.7-.3-.9,0-1.7-.1-2.6-.1s-1.6,0-2.2.3c-.6.2-1.1.5-1.5.9s-.7.9-.8,1.6-.3,1.4-.3,2.4c0,1.9,0,3.7.2,5.5,0,1.7.4,3.5.7,5.3v-.2ZM353.6,210c0,.4.2.6.6.6h1.5c.4,0,.6-.2.6-.6v-20c0-.4-.2-.6-.6-.6h-1.5c-.4,0-.6.2-.6.6v8.2c-.2-.3-.5-.5-1-.5h-1.4c-.4,0-.6.2-.6.6v1.4c0,.4.2.6.6.6h1.6c.6,0,.8.3.8.8v8.8h0Z"/>
    <path class="cls-4" d="M348.4,192.5c.4,0,.6-.2.6-.6v-1.3c0-.4-.2-.6-.6-.6h-9.8c-.4,0-.6.2-.6.6v1.3c0,.4.2.6.6.6h3.6v.7c0,.6,0,1.2-.3,1.8-.2.6-.4,1-.8,1.4-.3.4-.7.7-1.2.9s-.9.3-1.5.3-.6.2-.6.6v1.3c0,.4.2.6.6.6.6,0,1.2,0,1.8-.3s1-.4,1.5-.8c.4-.3.8-.7,1.1-1.1.3-.4.5-.9.7-1.3.2.5.4.9.7,1.3.3.4.7.8,1.1,1.1.4.3.9.6,1.5.8s1.1.3,1.8.3.6-.2.6-.6v-1.3c0-.4-.2-.6-.6-.6s-1-.1-1.5-.3-.8-.5-1.2-.9c-.3-.4-.6-.9-.8-1.4-.2-.6-.3-1.1-.3-1.8v-.7h3.6ZM347.4,206.5c0-3-2.6-4.6-7.8-4.6s-7.8,1.5-7.8,4.6,2.6,4.6,7.8,4.6,7.8-1.5,7.8-4.6ZM344.6,206.5c0,.3,0,.6-.3.9-.2.2-.5.5-.9.6-.4.2-.9.3-1.6.4-.6,0-1.4.1-2.4.1s-1.7,0-2.4-.1c-.6,0-1.2-.2-1.6-.4-.4-.2-.7-.4-.9-.6-.2-.2-.3-.5-.3-.9s0-.6.3-.9c.2-.2.5-.5.9-.6.4-.2.9-.3,1.6-.4.6,0,1.4-.1,2.4-.1s1.7,0,2.4.1c.6,0,1.2.2,1.6.4.4.2.7.4.9.6s.3.5.3.9ZM335,190c0-.4-.2-.6-.6-.6h-1.5c-.4,0-.6.2-.6.6v10.1c0,.4.2.6.6.6h1.5c.4,0,.6-.2.6-.6v-4.4c.2.3.5.5,1,.5h1.7c.4,0,.6-.2.6-.6v-1.3c0-.4-.2-.6-.6-.6h-1.8c-.6,0-.8-.3-.8-.8v-3h0Z"/>
    <path class="cls-4" d="M311.2,197.9c-.4,0-.6.1-.6.5v1.2c0,.4.2.6.6.6s1,0,1.6.1h12.4c1.4,0,2.4,0,3.1-.2.4,0,.6-.2.6-.6v-1.2c0-.4-.2-.6-.6-.5h-13.4c-1.4,0-2.5,0-3.5-.2l-.2.3ZM312,210.6c.4,0,.9.1,1.5.2.6,0,1.1,0,1.7.1h3.2c1.7,0,3.2,0,4.3-.1s2-.2,2.6-.5c.6-.2,1.1-.5,1.3-.9s.4-.9.4-1.5-.1-1.1-.3-1.4c-.2-.4-.6-.7-1.2-.9s-1.3-.4-2.2-.5-2.1-.1-3.5-.1h-3.9c-.4,0-.8,0-.9-.2-.2,0-.3-.3-.3-.5s0-.5.3-.6c.2-.1.5-.2.9-.2h5c1,0,1.9,0,2.8.1.9,0,1.7,0,2.4.1.4,0,.5-.2.5-.6v-1.1c0-.4-.2-.5-.5-.6-.9,0-1.9-.1-3-.2h-9c-.8,0-1.4.2-1.7.5s-.5.7-.5,1.3.1.9.4,1.3c.3.4.7.6,1.1.8h-.9c-.3,0-.5.2-.5.5v1c0,.4.2.6.5.5h9.5c.6,0,1,0,1.4.1.3,0,.5.1.6.3,0,.1.1.3.1.4s0,.4-.2.5-.4.2-.9.3-1,0-1.8,0h-6.2c-.6,0-1.1,0-1.7-.1s-1.1-.1-1.5-.2c-.4,0-.5.1-.6.5v1.1c0,.4,0,.6.4.6h.4ZM327,193.4c0-.7-.1-1.2-.4-1.7-.3-.5-.7-.9-1.3-1.2s-1.4-.5-2.3-.6c-1-.1-2.1-.2-3.4-.2s-2.5,0-3.4.2c-1,.1-1.7.4-2.3.6-.6.3-1,.7-1.3,1.2s-.4,1-.4,1.7.1,1.2.4,1.7c.3.5.7.9,1.3,1.2s1.4.5,2.3.6,2.1.2,3.4.2,2.5,0,3.4-.2,1.7-.4,2.3-.6c.6-.3,1-.7,1.3-1.2s.4-1,.4-1.7ZM324.2,193.4c0,.3,0,.5-.2.7s-.4.3-.8.5c-.4.1-.9.2-1.5.3h-4.6c-.6,0-1.1-.1-1.5-.3-.4-.1-.6-.3-.8-.5s-.2-.4-.2-.7,0-.5.2-.7.4-.3.8-.5.9-.2,1.5-.3,1.4,0,2.3,0h2.3c.6,0,1.1.1,1.5.3s.6.3.8.5.2.4.2.7Z"/>
    <path class="cls-4" d="M299.8,206.9c0-1.2-.5-2.2-1.5-2.9s-2.6-1.1-4.8-1.2v-.9c0-.3,0-.5-.3-.6h7.4c.4,0,.6-.2.6-.6v-1.3c0-.4-.2-.6-.6-.6-.8,0-1.8.1-3.1.2h-12.1c-.6,0-1.1,0-1.6-.1-.4,0-.6.1-.6.6v1.3c0,.4.2.6.6.6s.9,0,1.5.1h4.9c.4,0,.6.2.6.6v.8c-2.3,0-3.9.5-5,1.1-1.1.7-1.6,1.6-1.6,2.9s.6,2.4,1.9,3.1,3.3,1,5.9,1,4.6-.3,5.9-1c1.3-.7,1.9-1.7,1.9-3.1h0ZM298.8,197.7c.4,0,.6-.2.6-.6v-1.4c0-.4-.2-.6-.6-.6-.8,0-1.5,0-2.1-.2-.6-.1-1.2-.3-1.7-.6-.5-.2-.8-.5-1.1-.9-.3-.3-.4-.7-.5-1.1h5c.4,0,.6-.2.6-.6v-1.3c0-.4-.2-.6-.6-.6h-12.9c-.4,0-.6.2-.6.6v1.3c0,.4.2.6.6.6h5c0,.4-.2.7-.5,1.1-.3.3-.6.6-1.1.9-.5.2-1,.4-1.7.6-.6.1-1.4.2-2.1.2s-.6.2-.6.6v1.4c0,.4.2.6.6.6.7,0,1.5,0,2.2-.2s1.4-.4,2-.6c.6-.3,1.1-.6,1.6-1s.8-.8,1.1-1.2c.3.4.6.8,1.1,1.2s1,.7,1.6,1,1.3.5,2,.6c.7.2,1.4.2,2.2.2h-.1ZM297,206.9c0,.6-.4,1-1.2,1.3s-2.1.4-3.9.4-3.1-.1-3.9-.4-1.2-.7-1.2-1.3.4-1,1.2-1.3,2.1-.4,3.9-.4,3.1.1,3.9.4,1.2.7,1.2,1.3Z"/>
    <path class="cls-4" d="M273.7,193.2c0,.6,0,1.2-.3,1.8-.2.6-.4,1-.8,1.4-.3.4-.7.7-1.2.9s-.9.3-1.5.3-.6.2-.6.6v1.3c0,.4.2.6.6.6.6,0,1.2,0,1.8-.3s1-.4,1.5-.8c.4-.3.8-.7,1.1-1.1.3-.4.5-.9.7-1.3.2.5.4.9.7,1.3.3.4.7.8,1.1,1.1.4.3.9.6,1.5.8s1.1.3,1.8.3.6-.2.6-.6v-1.3c0-.4-.2-.6-.6-.6s-1-.1-1.5-.3-.8-.5-1.2-.9c-.3-.4-.6-.9-.8-1.4-.2-.6-.3-1.1-.3-1.8v-2.6c0-.4-.2-.6-.6-.6h-1.5c-.4,0-.6.2-.6.6v2.6h.1ZM263.9,208.3c-.4,0-.6.2-.6.6v1.3c0,.4.2.6.6.6h12.4c.8,0,1.4-.2,1.8-.6s.7-.9.7-1.6v-5.5c0-.8-.4-1.1-1.1-1.1h-11.1c-.9,0-1.7.2-2.2.7s-.8,1.2-.8,2.1.2,1.4.6,2,.9,1.1,1.5,1.4h-1.8,0ZM268.6,208.3c-.3,0-.6,0-.9-.2-.3-.1-.5-.3-.7-.5s-.3-.4-.5-.7c-.1-.3-.2-.6-.2-.9,0-.5.1-.9.4-1.1.3-.2.7-.3,1.2-.3h7.4c.4,0,.6.2.6.6v2.4c0,.2,0,.4-.3.6-.2.1-.4.2-.7.2h-6.5.2ZM266.6,190c0-.4-.2-.6-.6-.6h-1.5c-.4,0-.6.2-.6.6v9.6c0,.4.2.6.6.6h1.5c.4,0,.6-.2.6-.6v-9.6Z"/>
    <path class="cls-4" d="M259.7,205.8c-1.2.1-2.4.2-3.8.3-1.4,0-2.9.1-4.6.1h-4.8c-1.5,0-2.7-.2-3.6-.3-.4,0-.6.1-.6.6v1.3c0,.4.2.6.6.6s.9.1,1.5.2c.6,0,1.3,0,2,.1h5c3.8,0,6.6-.1,8.4-.4.4,0,.6-.3.6-.6v-1.3c0-.4-.2-.6-.6-.6h0ZM258.6,196.5c0-2-.7-3.5-2-4.5-1.3-1.1-3.1-1.6-5.5-1.6s-4.2.5-5.5,1.6-2,2.6-2,4.5.7,3.5,2,4.5c1.3,1.1,3.1,1.6,5.5,1.6s4.2-.5,5.5-1.6,1.9-2.6,1.9-4.5h.1ZM251.1,200.1c-1.6,0-2.7-.3-3.5-.9-.8-.6-1.2-1.5-1.2-2.6s.4-2,1.2-2.6,2-.9,3.6-.9,2.8.3,3.6.9c.8.6,1.2,1.5,1.2,2.6s-.4,2-1.2,2.6-2,.9-3.5.9h-.2Z"/>
    <path class="cls-4" d="M238.9,208.4c.4,0,.6-.3.6-.6v-1.3c0-.4-.2-.6-.6-.6s-.9,0-1.5.1c-.6,0-1.2,0-1.9.1s-1.4,0-2.1.1h-2.1c.2,0,.3-.2.4-.4.1-.2.2-.4.2-.6v-2.5c1.1,0,2-.2,2.7-.3.7-.2,1.3-.4,1.8-.7.4-.3.8-.7.9-1.2.2-.5.3-1,.3-1.7s-.1-1.3-.3-1.8-.6-.8-1.2-1.1c-.5-.3-1.3-.5-2.2-.6s-2-.2-3.4-.2h-3c-1,0-1.6-.4-1.6-1.2s.1-.7.3-.8c.2-.2.6-.2,1.2-.2h4.8c.8,0,1.5,0,2.3.1.7,0,1.4.1,2,.2.4,0,.6-.1.6-.5v-1.4c0-.3-.2-.5-.5-.6-1-.1-2.2-.3-3.6-.3s-2.8-.1-4.2-.1h-2.9c-1.8,0-2.7.8-2.7,2.3s.2,1.2.5,1.7.8.8,1.3,1h-1.1c-.4,0-.5.2-.5.5v1.2c0,.4.2.6.5.6h8.6c.6,0,1,.1,1.3.2.3,0,.6.2.7.4.1.2.2.4.2.6s0,.5-.2.6c-.2.2-.4.3-.9.4-.4,0-1,.2-1.7.2h-2.9c-1.2,0-1.9,0-2.9-.1-1,0-1.9-.2-2.8-.3-.3,0-.5.1-.6.5l-.2,1.4v.4c0,.1.2.2.4.2,1,.1,2,.3,3.1.3s2.1.1,2.9.1h0v2.7c0,.5-.3.7-.8.7h-3.3c-.5,0-1.1,0-1.6-.1-.5,0-1,0-1.4-.1-.4,0-.6.1-.6.6v1.3c0,.4.2.6.6.6s.9.1,1.5.2c.6,0,1.3,0,2,.1h5c3.8,0,6.6-.1,8.4-.4l.2.3Z"/>
    <path class="cls-4" d="M201.3,191.4c-.4,0-.6.2-.6.6v1.4c0,.4.2.6.6.6h10.7c.4,0,.6-.2.6-.6v-1.4c0-.4-.2-.6-.6-.6h-4.4c.2-.1.4-.3.4-.6v-1.3c0-.4-.2-.6-.6-.6h-1.6c-.4,0-.6.2-.6.6v1.5c0,.3-.2.4-.5.4h-3.4ZM201.4,201.5c0,1.9.5,3.3,1.4,4.4.9,1,2.2,1.5,3.9,1.5s2.9-.5,3.9-1.5c.9-1,1.4-2.5,1.4-4.4s-.5-3.3-1.4-4.4c-.9-1-2.2-1.5-3.9-1.5s-3,.5-3.9,1.5-1.4,2.5-1.4,4.4ZM206.7,198.2c.8,0,1.4.3,1.8.8s.6,1.4.6,2.4-.2,1.9-.7,2.5c-.4.6-1,.8-1.8.8s-1.4-.3-1.8-.8-.7-1.4-.7-2.5.2-1.9.7-2.4c.4-.5,1.1-.8,1.8-.8h.1ZM195.9,210c0,.4.2.6.6.6h1.5c.4,0,.6-.2.6-.6v-20c0-.4-.2-.6-.6-.6h-1.5c-.4,0-.6.2-.6.6v8.2c-.2-.3-.5-.5-1-.5h-1.4c-.4,0-.6.2-.6.6v1.4c0,.4.2.6.6.6h1.6c.6,0,.8.3.8.8v8.8h0Z"/>
    <path class="cls-4" d="M190.3,200.1h-13.3c-1.4,0-2.5,0-3.4-.2-.4,0-.6.1-.6.6v1.3c0,.4.2.6.6.6s1,0,1.6.1h12.3c1.4,0,2.4,0,3.1-.2.4,0,.6-.3.6-.6v-1.3c0-.4-.2-.6-.6-.6l-.3.3ZM189.2,204.9c0-.4-.3-.6-.7-.6h-1.5c-.2,0-.4,0-.5.2-.1.1-.1.3-.1.5,0,.3,0,.5.1.8v.9c0,1.3-.8,1.9-2.3,1.9h-5.4c-.8,0-1.5,0-2.2-.1s-1.4-.1-2.1-.2c-.4,0-.6.1-.6.6v1.3c-.1.4,0,.6.5.6,1.2.1,2.6.2,4.3.3,1.7,0,3.5.1,5.5.1s2.9-.4,3.8-1.1,1.3-1.8,1.3-3.2,0-.7,0-1,0-.6-.1-.8v-.2ZM188.8,190.5c0-.4-.3-.6-.7-.6h-1.5c-.2,0-.4,0-.5.2,0,.1-.1.3-.1.5v3.7c0,1.3-.8,1.9-2.3,1.9h-4.9c-.7,0-1.4,0-2.1-.1-.7,0-1.4-.1-2.1-.2-.4,0-.6.1-.6.6v1.3c-.1.4,0,.6.5.6,1.2.1,2.6.2,4.2.3s3.3.1,5.2.1,2.8-.4,3.6-1.1,1.2-1.8,1.2-3.2,0-.5,0-.9v-3h0Z"/>
    <path class="cls-4" d="M153,199.6c.8.3,1.7.5,2.6.6s1.8.2,2.6.2c1.7,0,3-.4,3.9-1.2s1.3-2.1,1.3-3.7,0-1.8-.1-2.6c0-.8-.2-1.6-.4-2.4,0-.4-.3-.6-.7-.6h-1.5c-.2,0-.4,0-.5.2-.1.1-.2.3-.1.5,0,.6.2,1.1.3,1.6,0,.5.1.9.2,1.3v2.2c0,.8-.2,1.3-.6,1.6s-1,.5-1.9.5h-1c-.4,0-.8,0-1.2-.2-.4,0-.8-.2-1.2-.3l-1.2-.3c-.3-.1-.6,0-.7.5l-.4,1.3c0,.4,0,.6.5.8h.1ZM147.5,208.3c-.4,0-.6.2-.6.6v1.3c0,.4.2.6.6.6h11.9c.8,0,1.4-.2,1.8-.6s.7-.9.7-1.6v-5.5c0-.8-.4-1.1-1.1-1.1h-10.6c-.9,0-1.7.2-2.2.7s-.8,1.2-.8,2.1.2,1.4.6,2,.9,1.1,1.5,1.4h-1.8ZM152.2,208.3c-.3,0-.6,0-.9-.2-.3-.1-.5-.3-.7-.5s-.3-.4-.5-.7c-.1-.3-.2-.6-.2-.9,0-.5.1-.9.4-1.1.3-.2.7-.3,1.2-.3h6.9c.4,0,.6.2.6.6v2.4c0,.2,0,.4-.3.6-.2.1-.4.2-.7.2h-6,.2ZM147.4,199.7c0,.4.2.6.6.6h1.5c.4,0,.6-.2.6-.6v-9.6c0-.4-.2-.6-.6-.6h-1.5c-.4,0-.6.2-.6.6v3.7c-.2-.3-.5-.5-1-.5h-1.4c-.4,0-.6.2-.6.6v1.3c0,.4.2.6.6.6h1.6c.6,0,.8.3.8.8v3.2h0Z"/>
    <path class="cls-4" d="M135.9,193.2c0,.6,0,1.2-.3,1.8-.2.6-.4,1-.8,1.4-.3.4-.7.7-1.2.9s-.9.3-1.5.3-.6.2-.6.6v1.3c0,.4.2.6.6.6.6,0,1.2,0,1.8-.3s1-.4,1.5-.8c.4-.3.8-.7,1.1-1.1.3-.4.5-.9.7-1.3.2.5.4.9.7,1.3.3.4.7.8,1.1,1.1s.9.6,1.5.8,1.1.3,1.8.3.6-.2.6-.6v-1.3c0-.4-.2-.6-.6-.6s-1-.1-1.5-.3-.8-.5-1.2-.9c-.3-.4-.6-.9-.8-1.4-.2-.6-.3-1.1-.3-1.8v-2.6c0-.4-.2-.6-.6-.6h-1.5c-.4,0-.6.2-.6.6v2.6h0ZM141.2,206.5c0-3-2.6-4.6-7.8-4.6s-7.8,1.5-7.8,4.6,2.6,4.6,7.8,4.6,7.8-1.5,7.8-4.6ZM138.5,206.5c0,.3,0,.6-.3.9-.2.2-.5.5-.9.6-.4.2-.9.3-1.6.4-.6,0-1.4.1-2.4.1s-1.7,0-2.4-.1c-.6,0-1.2-.2-1.6-.4s-.7-.4-.9-.6c-.2-.2-.3-.5-.3-.9s0-.6.3-.9c.2-.2.5-.5.9-.6.4-.2.9-.3,1.6-.4.6,0,1.4-.1,2.4-.1s1.7,0,2.4.1c.6,0,1.2.2,1.6.4s.7.4.9.6.3.5.3.9ZM128.8,190c0-.4-.2-.6-.6-.6h-1.5c-.4,0-.6.2-.6.6v10.1c0,.4.2.6.6.6h1.5c.4,0,.6-.2.6-.6v-5.4c.2.3.5.5,1,.5h2.5c.4,0,.6-.2.6-.6v-1.3c0-.4-.2-.6-.6-.6h-2.7c-.6,0-.8-.3-.8-.8v-1.9Z"/>
    <path class="cls-4" d="M112.1,199.3c0,3,.4,5.2,1.3,6.5s2.2,2.1,4.1,2.1,3.2-.7,4.1-2.1c.9-1.4,1.3-3.6,1.3-6.5s-.4-5.2-1.3-6.5c-.9-1.4-2.2-2.1-4.1-2.1s-3.2.7-4.1,2.1-1.3,3.6-1.3,6.5ZM117.5,193.3c.9,0,1.6.5,2,1.4s.6,2.4.6,4.6-.2,3.6-.6,4.6c-.4.9-1.1,1.4-2,1.4s-1.6-.5-2-1.4-.6-2.5-.6-4.6.2-3.6.6-4.6c.4-.9,1.1-1.4,2-1.4ZM108.9,190c0-.4-.2-.6-.6-.6h-1.5c-.4,0-.6.2-.6.6v20c0,.4.2.6.6.6h1.5c.4,0,.6-.2.6-.6v-20Z"/>
  </g>
  <g>
    <path class="cls-4" d="M318.8,235.9c-.4,0-.6.1-.6.5v1.2c0,.4.2.6.6.6s1,0,1.6.1h12.4c1.4,0,2.4,0,3.1-.2.4,0,.6-.2.6-.6v-1.2c0-.4-.2-.6-.6-.5h-13.4c-1.4,0-2.5,0-3.5-.2l-.2.3ZM319.6,248.6c.4,0,.9.1,1.5.2.6,0,1.1,0,1.7.1h3.2c1.7,0,3.2,0,4.3-.1s2-.2,2.6-.5c.6-.2,1.1-.5,1.3-.9s.4-.9.4-1.5-.1-1.1-.3-1.4c-.2-.4-.6-.7-1.2-.9s-1.3-.4-2.2-.5-2.1-.1-3.5-.1h-3.9c-.4,0-.8,0-.9-.2-.2,0-.3-.3-.3-.5s0-.5.3-.6c.2-.1.5-.2.9-.2h5c1,0,1.9,0,2.8.1.9,0,1.7,0,2.4.1.4,0,.5-.2.5-.6v-1.1c0-.4-.2-.5-.5-.6-.9,0-1.9-.1-3-.2h-9c-.8,0-1.4.2-1.7.5s-.5.7-.5,1.3.1.9.4,1.3c.3.4.7.6,1.1.8h-.9c-.3,0-.5.2-.5.5v1c0,.4.2.6.5.5h9.5c.6,0,1,0,1.4.1.3,0,.5.1.6.3,0,.1.1.3.1.4s0,.4-.2.5-.4.2-.9.3-1,0-1.8,0h-6.2c-.6,0-1.1,0-1.7-.1s-1.1-.1-1.5-.2c-.4,0-.5.1-.6.5v1.1c0,.4,0,.6.4.6h.4ZM334.2,228.5c0-.4-.3-.6-.7-.6h-1.5c-.2,0-.4,0-.5.2-.1.1-.1.3-.1.5,0,.4,0,.7.1,1.1v1.2c0,.6-.2,1-.5,1.3s-.8.4-1.6.4h-5.1c-.8,0-1.5,0-2.2-.1-.7,0-1.4-.1-2.1-.2-.4,0-.6.1-.6.6v1.3c-.1.4,0,.6.5.6,1.2.1,2.6.2,4.3.3,1.7,0,3.5.1,5.3.1s2.7-.3,3.5-1,1.2-1.7,1.2-3v-1.4c0-.5,0-.8-.1-1.2h.1Z"/>
    <path class="cls-4" d="M305.2,237.3c0,3,.4,5.2,1.3,6.5s2.2,2.1,4,2.1,3.2-.7,4-2.1,1.3-3.6,1.3-6.5-.4-5.2-1.2-6.5-2.2-2.1-4-2.1-3.2.7-4,2.1-1.3,3.6-1.3,6.5h-.1ZM310.5,231.3c.9,0,1.5.5,1.9,1.4s.6,2.4.6,4.6-.2,3.6-.6,4.6c-.4.9-1,1.4-1.9,1.4s-1.5-.5-1.9-1.4-.6-2.5-.6-4.6.2-3.6.6-4.6c.4-.9,1-1.4,1.9-1.4ZM301.8,228c0-.4-.2-.6-.6-.6h-1.5c-.4,0-.6.2-.6.6v20c0,.4.2.6.6.6h1.5c.4,0,.6-.2.6-.6v-10.2c.2.3.5.5,1,.5h1.1c.4,0,.6-.2.6-.6v-1.4c0-.4-.2-.6-.6-.6h-1.2c-.6,0-.8-.3-.8-.8v-6.9h-.1Z"/>
    <path class="cls-4" d="M285.2,237.6c.8.3,1.7.5,2.6.6.9.1,1.8.2,2.6.2,1.7,0,3-.4,3.9-1.2s1.3-2.1,1.3-3.7,0-1.8-.1-2.6c0-.8-.2-1.6-.4-2.4,0-.4-.3-.6-.7-.6h-1.5c-.2,0-.4,0-.5.2-.1.1-.2.3-.1.5,0,.6.2,1.1.3,1.6,0,.5.1.9.2,1.3v2.2c0,.8-.2,1.3-.6,1.6-.4.3-1,.5-1.9.5h-1c-.4,0-.8,0-1.2-.2-.4,0-.8-.2-1.2-.3s-.8-.2-1.2-.3c-.3-.1-.6,0-.7.5l-.4,1.3c0,.4,0,.6.5.8h0ZM279.7,246.3c-.4,0-.6.2-.6.6v1.3c0,.4.2.6.6.6h11.9c.8,0,1.4-.2,1.8-.6s.7-.9.7-1.6v-5.5c0-.8-.4-1.1-1.1-1.1h-10.6c-.9,0-1.7.2-2.2.7s-.8,1.2-.8,2.1.2,1.4.6,2,.9,1.1,1.5,1.4h-1.8,0ZM284.3,246.3c-.3,0-.6,0-.9-.2-.3-.1-.5-.3-.7-.5s-.3-.4-.5-.7c-.1-.3-.2-.6-.2-.9,0-.5.1-.9.4-1.1.3-.2.7-.3,1.2-.3h6.9c.4,0,.6.2.6.6v2.4c0,.2,0,.4-.3.6-.2.1-.4.2-.7.2h-6,.2ZM279.6,237.7c0,.4.2.6.6.6h1.5c.4,0,.6-.2.6-.6v-9.6c0-.4-.2-.6-.6-.6h-1.5c-.4,0-.6.2-.6.6v3.7c-.2-.3-.5-.5-1-.5h-1.4c-.4,0-.6.2-.6.6v1.3c0,.4.2.6.6.6h1.6c.6,0,.8.3.8.8v3.2h0Z"/>
    <path class="cls-4" d="M265.7,238.3c0,2.6.5,4.5,1.3,5.7s1.9,1.8,3.5,1.8,2.8-.7,3.6-2.1,1.2-3.6,1.2-6.5-.4-5.2-1.2-6.5-2-2.1-3.6-2.1-2.6.6-3.4,1.7c-.8,1.1-1.2,2.9-1.4,5.3h-2c-.3,0-.5,0-.6-.1-.1,0-.2-.3-.2-.5v-6.8c0-.4-.2-.6-.6-.6h-1.4c-.4,0-.6.2-.6.6v19.8c0,.4.2.6.6.6h1.4c.4,0,.6-.2.6-.6v-10.2c0,.1.2.2.3.3.1,0,.3.1.5.1h2ZM270.4,231.3c.7,0,1.3.5,1.6,1.4s.5,2.5.5,4.5-.2,3.6-.5,4.6-.9,1.4-1.6,1.4-1.3-.5-1.6-1.4-.5-2.5-.5-4.6.2-3.6.5-4.6c.3-.9.9-1.4,1.6-1.4h0ZM256.1,248.1c0,.4.2.6.6.6h1.4c.4,0,.6-.2.6-.6v-20.1c0-.4-.2-.6-.6-.6h-1.4c-.4,0-.6.2-.6.6v20.1Z"/>
    <path class="cls-4" d="M239.8,242.6h0c.5-1.4.7-3.1.7-5.3s0-2.8-.2-3.9c-.2-1.1-.4-1.9-.8-2.6-.3-.7-.8-1.1-1.4-1.5-.6-.3-1.2-.5-2-.5s-.5,0-.7,0h-.6c-.2,0-.4,0-.5.2,0,0-.1.2-.1.5v1.4c0,.4.2.6.6.6h1c.4,0,.7,0,1,.2s.5.5.6.9c.2.4.3,1,.3,1.8v2.9c0,1.2,0,2-.1,2.7,0,.7-.2,1.3-.3,1.8-.2.4-.4.8-.6.9-.3.2-.6.3-1,.3s-.9,0-1.4-.3h-.2c-.2,0-.4.2-.4.5l-.2,1.4c0,.4.1.6.5.7.4.1.7.2,1,.3h1.1c1.2,0,2.2-.5,3-1.6v.4c-.1.4,0,.6.4.7.5.2.9.3,1.3.4.4,0,.8.1,1.2.1,1.5,0,2.6-.7,3.4-2.1s1.2-3.5,1.2-6.2,0-2.8-.2-3.9c-.2-1.1-.4-1.9-.8-2.6-.4-.7-.8-1.1-1.4-1.5-.6-.3-1.2-.5-2-.5s-.4,0-.6,0h-.6c-.2,0-.4,0-.5.2,0,0-.1.2-.1.5v1.4c0,.4.2.6.6.6h.9c.4,0,.7,0,1,.2s.5.5.6.9.2,1,.3,1.8v2.9c0,1.2,0,1.9-.1,2.7,0,.7-.2,1.3-.4,1.8s-.4.8-.7,1-.7.3-1.1.3-1.1-.1-1.8-.4h.1ZM229.5,248c0,.4.2.6.6.6h1.5c.4,0,.6-.2.6-.6v-20c0-.4-.2-.6-.6-.6h-1.5c-.4,0-.6.2-.6.6v8.2c-.2-.3-.5-.5-1-.5h-.9c-.4,0-.6.2-.6.6v1.4c0,.4.2.6.6.6h1.1c.6,0,.8.3.8.8v8.8h0Z"/>
    <path class="cls-4" d="M219,243c-1.3,0-2.6-.3-4-.9h-.3c-.2,0-.3.1-.4.4l-.4,1.4c-.1.4,0,.6.4.7,1,.3,1.9.6,2.7.7.8.2,1.7.2,2.5.2,3.8,0,5.7-1.7,5.7-5s-.5-2.9-1.4-3.6c-.9-.8-2.4-1.2-4.3-1.2s-1.3-.2-1.6-.5-.5-.9-.5-1.6.2-1.3.5-1.7c.4-.3.9-.5,1.8-.5s2.3.1,4.2.4c.4,0,.6-.1.6-.5v-1.5c0-.4-.2-.6-.6-.6s-.8-.1-1.2-.2h-3.8c-2.9,0-4.4,1.2-4.4,3.5s.1,1.4.4,2,.6,1.1,1.1,1.5h-.8c-.4,0-.6.2-.6.6v1.3c0,.4.2.6.6.6h3.3c1.4,0,2.4.2,3,.5.6.4.9,1,.9,1.8s-.3,1.5-.8,1.8c-.5.4-1.4.5-2.7.5h0ZM209.1,248c0,.4.2.6.6.6h1.5c.4,0,.6-.2.6-.6v-20c0-.4-.2-.6-.6-.6h-1.5c-.4,0-.6.2-.6.6v8.2c-.2-.3-.5-.5-1-.5h-1.4c-.4,0-.6.2-.6.6v1.4c0,.4.2.6.6.6h1.6c.6,0,.8.3.8.8v8.8h0Z"/>
    <path class="cls-4" d="M186.8,237c.7.2,1.4.4,2.2.5.8.1,1.5.2,2,.2,2.2,0,3.9-.4,5-1.2s1.6-2,1.6-3.7-.6-2.9-1.7-3.7-2.8-1.2-5.1-1.2-2.4,0-3.2.2c-.4,0-.5.3-.5.6v1.2c0,.5.2.7.6.6.8-.1,1.7-.2,2.9-.2s2.5.2,3.2.6c.7.4,1,1,1,1.9s-.3,1.5-.9,1.9-1.6.6-3,.6-1,0-1.7-.2c-.7-.1-1.3-.3-1.9-.5-.4-.1-.6,0-.7.4l-.3,1.2c0,.4,0,.6.4.7h.1ZM181.4,248.6c.5,0,1,.1,1.6.2s1.1,0,1.6.1h2.8c1.7,0,3.1,0,4.2-.1,1.1,0,2-.3,2.6-.5s1.1-.6,1.3-1c.3-.4.4-.9.4-1.6s-.1-1.1-.3-1.5c-.2-.4-.6-.7-1.2-1-.5-.2-1.3-.4-2.2-.5s-2-.1-3.4-.1h-3.6c-.7,0-1.2-.3-1.2-.8s.4-.8,1.2-.8h4.7c.9,0,1.8,0,2.6.1.9,0,1.6,0,2.3.1.4,0,.6-.2.6-.6v-1.2c0-.4-.2-.5-.6-.6-.9,0-1.8-.1-2.9-.2h-8.5c-.8,0-1.3.2-1.6.5-.3.3-.5.8-.5,1.4s.1.9.4,1.3c.3.4.7.7,1.1.8h-.8c-.4,0-.5.2-.5.5v1.1c0,.4.2.5.5.5h9c.6,0,1,0,1.3.1.3,0,.5.1.6.3,0,.1.1.3.1.5s0,.4-.2.5-.4.2-.8.3-1,.1-1.7.1h-5.9c-.5,0-1,0-1.6-.1-.5,0-1-.1-1.5-.2-.4,0-.6.1-.6.5v1.2c0,.4,0,.6.4.6h.3ZM181.5,237c0,.4.2.6.6.6h1.5c.4,0,.6-.2.6-.6v-8.9c0-.4-.2-.6-.6-.6h-1.5c-.4,0-.6.2-.6.6v3.3c-.2-.3-.5-.5-1-.5h-1.4c-.4,0-.6.2-.6.6v1.3c0,.4.2.6.6.6h1.6c.6,0,.8.3.8.8v2.8h0Z"/>
    <path class="cls-4" d="M170.5,243c-1.3,0-2.6-.3-4-.9h-.3c-.2,0-.3.1-.4.4l-.4,1.4c-.1.4,0,.6.4.7,1,.3,1.9.6,2.7.7.8.2,1.7.2,2.5.2,3.8,0,5.7-1.7,5.7-5s-.5-2.9-1.4-3.6c-.9-.8-2.4-1.2-4.3-1.2s-1.3-.2-1.6-.5-.5-.9-.5-1.6.2-1.3.5-1.7c.4-.3.9-.5,1.8-.5s2.3.1,4.2.4c.4,0,.6-.1.6-.5v-1.5c0-.4-.2-.6-.6-.6s-.8-.1-1.2-.2h-3.8c-2.9,0-4.4,1.2-4.4,3.5s.1,1.4.4,2,.6,1.1,1.1,1.5h-.8c-.4,0-.6.2-.6.6v1.3c0,.4.2.6.6.6h3.3c1.4,0,2.4.2,3,.5.6.4.9,1,.9,1.8s-.3,1.5-.8,1.8c-.5.4-1.4.5-2.7.5h0ZM160.7,248c0,.4.2.6.6.6h1.5c.4,0,.6-.2.6-.6v-20c0-.4-.2-.6-.6-.6h-1.5c-.4,0-.6.2-.6.6v8.2c-.2-.3-.5-.5-1-.5h-1.4c-.4,0-.6.2-.6.6v1.4c0,.4.2.6.6.6h1.6c.6,0,.8.3.8.8v8.8h0Z"/>
    <path class="cls-4" d="M155.5,230.5c.4,0,.6-.2.6-.6v-1.3c0-.4-.2-.6-.6-.6h-9.8c-.4,0-.6.2-.6.6v1.3c0,.4.2.6.6.6h3.6v1.5c0,.7,0,1.3-.3,1.9-.2.6-.4,1.1-.8,1.5-.3.4-.7.8-1.2,1-.4.2-.9.4-1.5.4s-.6.2-.6.6v1.3c0,.4.2.6.6.6.6,0,1.2,0,1.7-.3.5-.2,1-.5,1.5-.8.4-.3.8-.7,1.1-1.1.3-.4.5-.9.7-1.4.2.5.4.9.7,1.4.3.4.7.8,1.1,1.1s.9.6,1.5.8,1.1.3,1.8.3.6-.2.6-.6v-1.3c0-.4-.2-.6-.6-.6s-1-.1-1.5-.4c-.4-.2-.8-.6-1.2-1-.3-.4-.6-.9-.8-1.5-.2-.6-.3-1.2-.3-1.9v-1.5h3.7ZM153.8,241.9c0-.4-.3-.6-.7-.6h-1.4c-.2,0-.4,0-.5.2-.1.1-.2.3-.1.5v2.4c0,.7-.2,1.3-.6,1.6-.4.4-1,.6-1.8.6h-5.3c-.7,0-1.4,0-2.1-.1-.7,0-1.4-.1-2.1-.2-.4,0-.6.1-.6.6v1.3c-.1.4,0,.6.5.6,1.2.1,2.6.2,4.1.3,1.6,0,3.3.1,5.3.1s3-.4,3.9-1.2,1.4-1.9,1.4-3.3v-1.5c0-.5,0-.9-.1-1.2h.1ZM142.1,228c0-.4-.2-.6-.6-.6h-1.5c-.4,0-.6.2-.6.6v13.5c0,.4.2.6.6.6h1.5c.4,0,.6-.2.6-.6v-13.5Z"/>
  </g>
  <g>
    <path class="cls-4" d="M336.7,282.8c0,.4.3.6.7.6h1.5c.2,0,.4,0,.5-.2.1-.1.1-.3.1-.5-.3-1.7-.6-3.5-.7-5.2-.1-1.7-.2-3.5-.2-5.2s.2-1.7.6-2.1c.4-.4,1-.6,1.9-.6s1.7,0,2.4.1c.7,0,1.5.2,2.3.3.2,0,.3,0,.5-.1s.2-.3.2-.5v-1.4c0-.4-.2-.6-.6-.6-.9-.1-1.8-.2-2.7-.3-.9,0-1.7-.1-2.6-.1s-1.6,0-2.2.3c-.6.2-1.1.5-1.5.9s-.7.9-.8,1.6-.3,1.4-.3,2.4c0,1.9,0,3.7.2,5.5.1,1.7.4,3.5.7,5.3v-.2ZM330.3,286c0,.4.2.6.6.6h1.5c.4,0,.6-.2.6-.6v-20c0-.4-.2-.6-.6-.6h-1.5c-.4,0-.6.2-.6.6v8.2c-.2-.3-.5-.5-1-.5h-1.4c-.4,0-.6.2-.6.6v1.4c0,.4.2.6.6.6h1.6c.6,0,.8.3.8.8v8.8h0Z"/>
    <path class="cls-4" d="M325.1,268.5c.4,0,.6-.2.6-.6v-1.3c0-.4-.2-.6-.6-.6h-9.8c-.4,0-.6.2-.6.6v1.3c0,.4.2.6.6.6h3.6v.7c0,.6,0,1.2-.3,1.8-.2.6-.4,1-.8,1.4-.3.4-.7.7-1.2.9s-.9.3-1.5.3-.6.2-.6.6v1.3c0,.4.2.6.6.6.6,0,1.2,0,1.8-.3s1-.4,1.5-.8c.4-.3.8-.7,1.1-1.1s.5-.9.7-1.3c.2.5.4.9.7,1.3s.7.8,1.1,1.1c.4.3.9.6,1.5.8s1.1.3,1.8.3.6-.2.6-.6v-1.3c0-.4-.2-.6-.6-.6s-1-.1-1.5-.3-.8-.5-1.2-.9c-.3-.4-.6-.9-.8-1.4-.2-.6-.3-1.1-.3-1.8v-.7h3.6ZM324.1,282.5c0-3-2.6-4.6-7.8-4.6s-7.8,1.5-7.8,4.6,2.6,4.6,7.8,4.6,7.8-1.5,7.8-4.6ZM321.4,282.5c0,.3,0,.6-.3.9-.2.2-.5.5-.9.6-.4.2-.9.3-1.6.4-.6,0-1.4.1-2.4.1s-1.7,0-2.4-.1c-.6,0-1.2-.2-1.6-.4-.4-.2-.7-.4-.9-.6s-.3-.5-.3-.9,0-.6.3-.9c.2-.2.5-.5.9-.6.4-.2.9-.3,1.6-.4.6,0,1.4-.1,2.4-.1s1.7,0,2.4.1c.6,0,1.2.2,1.6.4.4.2.7.4.9.6s.3.5.3.9ZM311.7,266c0-.4-.2-.6-.6-.6h-1.5c-.4,0-.6.2-.6.6v10.1c0,.4.2.6.6.6h1.5c.4,0,.6-.2.6-.6v-4.4c.2.3.5.5,1,.5h1.7c.4,0,.6-.2.6-.6v-1.3c0-.4-.2-.6-.6-.6h-1.8c-.6,0-.8-.3-.8-.8v-3h0Z"/>
    <path class="cls-4" d="M303.7,283.8c-.6,0-1,.2-1.3.5s-.5.8-.5,1.4c0,1,.3,1.7.9,2.3.6.6,1.3.8,2.2.8s.2,0,.2-.3v-.5c0-.2,0-.3-.2-.3-.5,0-.8-.2-1-.6.4,0,.8-.2,1.1-.6.3-.3.4-.7.4-1.2s-.2-.9-.5-1.3-.8-.5-1.3-.5v.3Z"/>
    <path class="cls-4" d="M283.1,282.8c0,.4.3.6.7.6h1.5c.2,0,.4,0,.5-.2.1-.1.1-.3.1-.5-.3-1.7-.6-3.5-.7-5.2-.1-1.7-.2-3.5-.2-5.2s.2-1.7.6-2.1c.4-.4,1-.6,1.9-.6s1.7,0,2.4.1c.7,0,1.5.2,2.3.3.2,0,.3,0,.5-.1s.2-.3.2-.5v-1.4c0-.4-.2-.6-.6-.6-.9-.1-1.8-.2-2.7-.3-.9,0-1.7-.1-2.6-.1s-1.6,0-2.2.3c-.6.2-1.1.5-1.5.9s-.7.9-.8,1.6-.3,1.4-.3,2.4c0,1.9,0,3.7.2,5.5.1,1.7.4,3.5.7,5.3v-.2ZM279.1,266c0-.4-.2-.6-.6-.6h-1.5c-.4,0-.6.2-.6.6v20c0,.4.2.6.6.6h1.5c.4,0,.6-.2.6-.6v-20Z"/>
    <path class="cls-4" d="M262.6,270.9c0,.8.1,1.5.4,2.1s.6,1.2,1.1,1.7,1,.8,1.7,1.1,1.4.4,2.2.4,1.5-.1,2.2-.4c.6-.2,1.2-.6,1.7-1.1s.8-1,1.1-1.7.4-1.4.4-2.1-.1-1.5-.4-2.2c-.2-.6-.6-1.2-1.1-1.6s-1-.8-1.7-1.1c-.6-.2-1.4-.4-2.2-.4s-1.5.1-2.2.4c-.7.2-1.2.6-1.7,1.1s-.8,1-1.1,1.6c-.2.6-.4,1.4-.4,2.2ZM268.5,286.8c.8,0,1.5-.2,2-.6s.7-1,.7-1.7l.3-6.2c0-.4-.2-.6-.6-.6h-1.5c-.4,0-.6.2-.6.6v1.1h-9.6v-1.1c0-.4-.3-.6-.7-.6h-1.5c-.4,0-.7.2-.6.6l.3,6.2c0,.7.3,1.3.7,1.7s1.1.6,2,.6h9.1ZM265.4,270.9c0-.8.2-1.5.7-2s1.1-.7,1.8-.7,1.4.2,1.8.7c.4.5.7,1.1.7,2s-.2,1.5-.7,2c-.4.5-1.1.7-1.8.7s-1.4-.2-1.8-.7c-.5-.5-.7-1.2-.7-2ZM268.5,283.4c0,.6-.4.9-1.1.9h-6.9c-.7,0-1.1-.3-1.1-.9v-1.5h9.2v1.5h0ZM259.1,266c0-.4-.2-.6-.6-.6h-1.5c-.4,0-.6.2-.6.6v9.4c0,.4.2.6.6.6h1.5c.4,0,.6-.2.6-.6v-4.1c.2.3.5.5,1,.5h1.1c.4,0,.6-.2.6-.6v-1.3c0-.4-.2-.6-.6-.6h-1.2c-.6,0-.8-.3-.8-.8v-2.5h-.1Z"/>
    <path class="cls-4" d="M251.1,283.8c-.6,0-1,.2-1.3.5s-.5.8-.5,1.4c0,1,.3,1.7.9,2.3.6.6,1.3.8,2.2.8s.2,0,.2-.3v-.5c0-.2,0-.3-.2-.3-.5,0-.8-.2-1-.6.4,0,.8-.2,1.1-.6.3-.3.4-.7.4-1.2s-.2-.9-.5-1.3-.8-.5-1.3-.5v.3Z"/>
    <path class="cls-4" d="M239.6,284.4c.4,0,.6-.3.6-.6v-1.3c0-.4-.2-.6-.6-.6s-.9,0-1.5.1c-.6,0-1.2,0-1.9.1s-1.4,0-2.1.1h-2.1c.2,0,.3-.2.4-.4s.2-.4.2-.6v-2.8c0-.4-.2-.6-.6-.6h-1.5c-.4,0-.6.2-.6.6v3c0,.5-.3.7-.8.7h-3.3c-.5,0-1.1,0-1.6-.1-.5,0-1,0-1.4-.1-.4,0-.6.1-.6.6v1.3c0,.4.2.6.6.6s.9.1,1.5.2c.6,0,1.3,0,2,.1h5c3.8,0,6.6-.1,8.4-.4h0ZM231,274.4c.3.6.6,1.1,1.1,1.6s1,.9,1.5,1.3c.6.4,1.2.6,1.9.8.7.2,1.4.3,2.1.3s.4,0,.6,0,.3-.2.3-.5v-1.5c0-.4-.2-.6-.6-.6-.8,0-1.5-.1-2.2-.4s-1.2-.6-1.7-1.1c-.5-.4-.9-1-1.1-1.6-.3-.6-.4-1.3-.4-2v-3.4c0-.4-.2-.6-.6-.6h-1.5c-.4,0-.6.2-.6.6v3.4c0,.7-.1,1.4-.4,2-.3.6-.6,1.1-1.1,1.6-.5.4-1.1.8-1.7,1.1-.7.3-1.4.4-2.2.4s-.6.2-.6.6v1.5c0,.3,0,.5.3.5h.6c.7,0,1.4,0,2.1-.3.7-.2,1.3-.5,1.9-.8.6-.4,1.1-.8,1.5-1.3s.8-1,1.1-1.6h-.3Z"/>
    <path class="cls-4" d="M209.2,280.8c0,.8.3,1.5.8,1.9.5.5,1.2.7,2.1.7h4.2c.9,0,1.6-.2,2.1-.7s.8-1.1.8-1.9l.4-13.2c0-.4-.2-.6-.6-.6h-1.4c-.4,0-.7.2-.7.6v4.7h-5.1v-4.7c-.1-.4-.3-.6-.8-.6h-1.4c-.4,0-.6.2-.6.6l.4,13.2h-.2ZM216.5,279.8c0,.7-.4,1-1.1,1h-2.5c-.7,0-1-.3-1.1-1v-5c-.1,0,4.7,0,4.7,0v5ZM205.6,266c0-.4-.2-.6-.6-.6h-1.5c-.4,0-.6.2-.6.6v20c0,.4.2.6.6.6h1.5c.4,0,.6-.2.6-.6v-20Z"/>
    <path class="cls-4" d="M187.8,282.3c-.4,0-.6,0-.6.5v1.4c0,.4.2.6.6.6.8.1,1.8.2,2.8.3h6.4c.9,0,1.8-.1,2.6-.3.4,0,.6-.3.6-.6v-1.4c0-.4-.2-.6-.6-.5-.8.1-1.7.2-2.6.3h-6.4c-1.1,0-2-.1-2.8-.3ZM199.2,272.6c0-1-.1-1.9-.4-2.7s-.6-1.5-1.1-2-1-1-1.7-1.3-1.4-.5-2.2-.5-1.6.2-2.2.5c-.7.3-1.2.7-1.7,1.3s-.8,1.2-1.1,2-.4,1.7-.4,2.7.1,1.9.4,2.7c.3.8.6,1.5,1.1,2,.5.6,1,1,1.7,1.3s1.4.5,2.2.5,1.6-.2,2.2-.5c.7-.3,1.2-.7,1.7-1.3.5-.6.8-1.2,1.1-2,.3-.8.4-1.7.4-2.7ZM193.8,276.6c-.8,0-1.5-.4-1.9-1.1-.5-.7-.7-1.7-.7-2.8s.2-2.1.7-2.8,1.1-1.1,1.9-1.1,1.5.4,1.9,1.1.7,1.7.7,2.8-.2,2.1-.7,2.8c-.5.7-1.1,1.1-1.9,1.1ZM182.9,286c0,.4.2.6.6.6h1.5c.4,0,.6-.2.6-.6v-20c0-.4-.2-.6-.6-.6h-1.5c-.4,0-.6.2-.6.6v20Z"/>
    <path class="cls-4" d="M171.3,282.9c0-1.2-.5-2.2-1.5-2.9-1-.7-2.6-1.1-4.8-1.2v-.9c0-.3,0-.5-.3-.6h7.4c.4,0,.6-.2.6-.6v-1.3c0-.4-.2-.6-.6-.6-.8,0-1.8.1-3.1.2h-12.1c-.6,0-1.1,0-1.6-.1-.4,0-.6.1-.6.6v1.3c0,.4.2.6.6.6s.9,0,1.5.1h4.9c.4,0,.6.2.6.6v.8c-2.3,0-3.9.5-5,1.1-1.1.7-1.6,1.6-1.6,2.9s.6,2.4,1.9,3.1,3.3,1,5.9,1,4.6-.3,5.9-1,1.9-1.7,1.9-3.1h0ZM170.3,268.3c.4,0,.6-.2.6-.6v-1.3c0-.4-.2-.6-.6-.6h-13.3c-.4,0-.6.2-.6.6v1.3c0,.4.2.6.6.6h1.4l.4,3h-2.1c-.4,0-.6.1-.6.5v1.4c0,.3.2.5.6.6.7,0,1.6.1,2.8.2h8.4c1.2,0,2.1-.1,2.8-.2.4,0,.6-.2.6-.6v-1.4c0-.4-.2-.5-.6-.5h-2.1l.4-3h1.4,0ZM168.6,282.9c0,.6-.4,1-1.2,1.3s-2.1.4-3.9.4-3.1-.1-3.9-.4-1.2-.7-1.2-1.3.4-1,1.2-1.3,2.1-.4,3.9-.4,3.1.1,3.9.4,1.2.7,1.2,1.3ZM163.6,271.3h-2.1l-.4-3h5l-.4,3h-2.1Z"/>
    <path class="cls-4" d="M145.5,275.5c-.1-.4-.2-.8-.3-1.3-.1-.5-.2-.9-.3-1.4,0-.5-.2-.9-.2-1.3v-1.1c0-.7.2-1.1.5-1.4s.8-.4,1.4-.4h2.9c.4,0,.7,0,1.1.1.3,0,.7.1,1.1.2.2,0,.3,0,.5-.1.1-.1.2-.3.2-.5v-1.4c0-.4-.2-.6-.6-.6-.9-.1-1.8-.2-2.6-.3s-1.7-.1-2.6-.1c-1.6,0-2.8.4-3.5,1.1s-1,1.9-1,3.5,0,.7,0,1.1.1.9.2,1.3.2.9.3,1.4c.1.5.2.9.3,1.3s.1.4.2.4c0,0,.2.1.5.1h1.5c.2,0,.4,0,.5-.2.1-.1.1-.3,0-.5h-.1ZM150.6,282.5c0-3-2.6-4.6-7.8-4.6s-7.8,1.5-7.8,4.6,2.6,4.6,7.8,4.6,7.8-1.5,7.8-4.6ZM147.8,282.5c0,.3,0,.6-.3.9s-.5.5-.9.6c-.4.2-.9.3-1.6.4-.6,0-1.4.1-2.4.1s-1.7,0-2.4-.1c-.6,0-1.2-.2-1.6-.4-.4-.2-.7-.4-.9-.6-.2-.2-.3-.5-.3-.9s0-.6.3-.9.5-.5.9-.6c.4-.2.9-.3,1.6-.4.6,0,1.4-.1,2.4-.1s1.7,0,2.4.1c.6,0,1.2.2,1.6.4.4.2.7.4.9.6s.3.5.3.9ZM138.2,274.3c.2.3.5.5,1,.5h1.3c.4,0,.6-.2.6-.6v-1.3c0-.4-.2-.6-.6-.6h-1.7c-.2,0-.4,0-.5-.2s-.1-.3-.1-.5v-2.2c.2.3.5.5,1,.5h1.3c.4,0,.6-.2.6-.6v-1.3c0-.4-.2-.6-.6-.6h-1.7c-.2,0-.4,0-.5-.2s-.1-.3-.1-.5v-.7c0-.4-.2-.6-.6-.6h-1.5c-.4,0-.6.2-.6.6v10.1c0,.4.2.6.6.6h1.5c.4,0,.6-.2.6-.6v-1.8h0Z"/>
    <path class="cls-4" d="M131.9,285.5c0-.5-.2-1-.5-1.3s-.8-.5-1.3-.5-1,.2-1.3.5-.5.7-.5,1.3.2.9.5,1.2c.3.3.8.5,1.3.5s1-.2,1.3-.5.5-.7.5-1.2Z"/>
  </g>
</svg>