<?xml version="1.0" encoding="UTF-8"?>
<svg id="_레이어_1" data-name="레이어 1" xmlns="http://www.w3.org/2000/svg" version="1.1" viewBox="0 0 475 475">
  <defs>
    <style>
      .cls-1 {
        fill: #edc259;
      }

      .cls-1, .cls-2, .cls-3, .cls-4, .cls-5, .cls-6, .cls-7, .cls-8, .cls-9, .cls-10, .cls-11, .cls-12, .cls-13 {
        stroke-width: 0px;
      }

      .cls-2 {
        fill: #6172e8;
      }

      .cls-3 {
        fill: #63f3f3;
      }

      .cls-14, .cls-15 {
        fill: none;
        stroke: #3d2117;
      }

      .cls-4 {
        fill: #dea836;
      }

      .cls-5 {
        fill: #1ab476;
      }

      .cls-6 {
        fill: #3d2117;
      }

      .cls-7 {
        fill: #d4d4d4;
      }

      .cls-8 {
        fill: #faccc7;
      }

      .cls-9 {
        fill: #fd8664;
      }

      .cls-10 {
        fill: #ffd9d4;
      }

      .cls-11 {
        fill: #75bd99;
      }

      .cls-12 {
        fill: #ff8f6b;
      }

      .cls-15 {
        stroke-width: 4px;
      }

      .cls-13 {
        fill: #fff;
      }
    </style>
  </defs>
  <rect class="cls-3" x="2" y="2" width="471" height="471" rx="14.2" ry="14.2"/>
  <rect class="cls-14" x="2" y="2" width="471" height="471" rx="14.2" ry="14.2"/>
  <rect class="cls-5" x="12" y="12" width="451" height="451" rx="14.2" ry="14.2"/>
  <rect class="cls-14" x="12" y="12" width="451" height="451" rx="14.2" ry="14.2"/>
  <g>
    <path class="cls-15" d="M64,104.5c0,1.6-.6,2.9-1.6,3.8s-2.4,1.4-4.2,1.4h-7.9c-1.8,0-3.2-.5-4.2-1.4s-1.5-2.2-1.6-3.8l-.7-26.5c0-.9.4-1.3,1.3-1.3h2.9c.9,0,1.3.4,1.3,1.2l.2,9.3h9.6l.2-9.3c0-.8.4-1.2,1.3-1.2h2.9c.9,0,1.3.4,1.3,1.3l-.7,26.5ZM49.8,102.4c0,1.3.7,2,2.1,2h4.5c1.4,0,2.1-.7,2.1-2l.3-10h-9.3l.3,10ZM71.6,74.9c0-.9.4-1.3,1.2-1.3h3c.8,0,1.2.4,1.2,1.3v39.9c0,.9-.4,1.3-1.2,1.3h-3c-.8,0-1.2-.4-1.2-1.3v-20.3c-.4.6-1,1-2,1h-2.2c-.8,0-1.2-.4-1.2-1.2v-2.9c0-.8.4-1.2,1.2-1.2h2.4c1.1,0,1.7-.5,1.7-1.5v-13.8Z"/>
    <path class="cls-15" d="M96.3,104.9c2.5,0,5.2-.6,7.9-1.8.2,0,.4-.1.5-.1.4,0,.7.3.9.8l.9,2.9c.2.7,0,1.2-.9,1.5-1.9.7-3.7,1.2-5.4,1.5-1.7.3-3.4.5-5,.5-7.6,0-11.4-3.4-11.4-10.1s.9-5.7,2.8-7.3c1.9-1.6,4.8-2.4,8.7-2.4s2.5-.3,3.2-1c.7-.7,1-1.8,1-3.2s-.4-2.6-1.1-3.3-1.9-1-3.5-1-4.6.2-8.4.7c-.8,0-1.2-.2-1.2-1v-3.1c0-.7.4-1.1,1.1-1.2.9-.1,1.7-.2,2.4-.3.8,0,1.5-.1,2.3-.2.8,0,1.6,0,2.4,0,.8,0,1.7,0,2.7,0,5.9,0,8.8,2.3,8.8,7s-.3,2.9-.8,4.1c-.5,1.2-1.3,2.2-2.3,3h1.5c.7,0,1.1.4,1.1,1.1v2.6c0,.7-.4,1.1-1.1,1.1-1.3,0-2.5,0-3.6,0-1.1,0-2.1,0-3,0-2.8,0-4.8.4-5.9,1.1-1.1.7-1.7,1.9-1.7,3.7s.5,2.9,1.6,3.6c1.1.7,2.9,1.1,5.4,1.1ZM116,114.9c0,.9-.4,1.3-1.2,1.3h-3c-.8,0-1.2-.4-1.2-1.3v-39.9c0-.9.4-1.3,1.2-1.3h3c.8,0,1.2.4,1.2,1.3v16.5c.4-.6,1-1,2-1h2.8c.8,0,1.2.4,1.2,1.2v2.9c0,.8-.4,1.2-1.2,1.2h-3.1c-1.1,0-1.7.5-1.7,1.5v17.6Z"/>
    <path class="cls-15" d="M146.8,93.4c0,6-.9,10.3-2.6,13.1-1.7,2.8-4.5,4.2-8.2,4.2s-6.4-1.4-8.2-4.2c-1.7-2.8-2.6-7.1-2.6-13.1s.9-10.3,2.6-13.1c1.7-2.8,4.4-4.1,8.2-4.1s6.5,1.4,8.2,4.1c1.7,2.8,2.6,7.1,2.6,13.1ZM136,81.5c-1.8,0-3.2.9-4,2.8-.8,1.9-1.2,4.9-1.2,9.1s.4,7.3,1.2,9.1,2.2,2.8,4,2.8,3.2-.9,4-2.8c.8-1.9,1.2-4.9,1.2-9.2s-.4-7.3-1.2-9.1c-.8-1.9-2.2-2.8-4-2.8ZM153.2,74.9c0-.9.4-1.3,1.2-1.3h3c.8,0,1.2.4,1.2,1.3v39.9c0,.9-.4,1.3-1.2,1.3h-3c-.8,0-1.2-.4-1.2-1.3v-39.9Z"/>
    <path class="cls-15" d="M186.1,93.4c0,6-.8,10.3-2.5,13.1-1.7,2.8-4.4,4.2-8,4.2s-6.3-1.4-8-4.2c-1.7-2.8-2.5-7.1-2.5-13.1s.8-10.3,2.5-13.1c1.7-2.8,4.3-4.1,8-4.1s6.4,1.4,8,4.1c1.7,2.8,2.5,7.1,2.5,13.1ZM175.6,81.5c-1.8,0-3,.9-3.8,2.8-.8,1.9-1.2,4.9-1.2,9.1s.4,7.3,1.2,9.1c.8,1.9,2.1,2.8,3.8,2.8s3.1-.9,3.9-2.8c.8-1.9,1.2-4.9,1.2-9.2s-.4-7.3-1.2-9.1c-.8-1.9-2.1-2.8-3.9-2.8ZM193,74.9c0-.9.4-1.3,1.2-1.3h3c.8,0,1.2.4,1.2,1.3v39.9c0,.9-.4,1.3-1.2,1.3h-3c-.8,0-1.2-.4-1.2-1.3v-20.3c-.4.6-1,1-2,1h-2.2c-.8,0-1.2-.4-1.2-1.2v-2.9c0-.8.4-1.2,1.2-1.2h2.4c1.1,0,1.7-.5,1.7-1.5v-13.8Z"/>
    <path class="cls-15" d="M227.1,108.2c-1.4.6-3,1.1-4.8,1.4-1.7.3-3.4.5-5,.5s-3.5-.3-5-.8c-1.5-.6-2.8-1.4-3.8-2.4-1-1-1.8-2.3-2.4-3.8-.6-1.5-.8-3.1-.8-5,0-8.1,4.4-12.1,13.1-12.1s4.5.1,6.2.4c.8.1,1.2.6,1.2,1.4v2.7c0,.9-.4,1.2-1.2,1.2-1-.1-2-.2-3-.3-.9,0-1.8,0-2.5,0-2.9,0-5,.6-6.3,1.7-1.3,1.1-2,2.9-2,5.2s.6,3.7,1.9,4.8c1.2,1.2,3,1.8,5.3,1.8s2-.1,3.3-.4c1.3-.3,2.7-.7,4.2-1.2.2,0,.4,0,.6,0,.5,0,.9.3,1.1.9l.7,2.6c.2.7,0,1.3-.8,1.6ZM207,82c-.8,0-1.2-.4-1.2-1.2v-2.9c0-.8.4-1.2,1.2-1.2h18.4c.8,0,1.2.4,1.2,1.2v2.9c0,.8-.4,1.2-1.2,1.2h-18.4ZM232.9,74.9c0-.9.4-1.3,1.2-1.3h3c.8,0,1.2.4,1.2,1.3v39.9c0,.9-.4,1.3-1.2,1.3h-3c-.8,0-1.2-.4-1.2-1.3v-39.9Z"/>
    <path class="cls-15" d="M278,108.5c-.1.8-.6,1.2-1.3,1.2h-3.1c-.4,0-.8-.1-1-.4-.2-.2-.3-.6-.2-.9.6-3.5,1.1-7,1.4-10.4.3-3.4.4-6.9.4-10.4s-.4-3.5-1.1-4.3c-.7-.8-2-1.2-3.8-1.2s-3.4,0-4.8.3c-1.5.2-3,.4-4.6.6-.4,0-.7,0-.9-.3-.2-.2-.3-.6-.3-1v-2.8c0-.8.4-1.2,1.2-1.3,1.9-.3,3.6-.5,5.4-.6,1.7-.2,3.4-.2,5.2-.2s3.1.2,4.3.6c1.2.4,2.2,1,2.9,1.8.8.8,1.3,1.9,1.7,3.2.4,1.3.5,2.9.5,4.7,0,3.8-.1,7.5-.4,10.9-.3,3.5-.7,7-1.3,10.6ZM290.7,114.9c0,.9-.4,1.3-1.2,1.3h-3c-.8,0-1.2-.4-1.2-1.3v-39.9c0-.9.4-1.3,1.2-1.3h3c.8,0,1.2.4,1.2,1.3v16.5c.4-.6,1-1,2-1h2.8c.8,0,1.2.4,1.2,1.2v2.9c0,.8-.4,1.2-1.2,1.2h-3.1c-1.1,0-1.7.5-1.7,1.5v17.6Z"/>
    <path class="cls-15" d="M313.2,94.9c.3-.8.5-1.7.7-2.7.2-1,.4-2.1.6-3.1.2-1,.3-2,.4-3,0-.9.1-1.7.1-2.3,0-1.3-.3-2.3-.9-2.9-.6-.6-1.5-.8-2.8-.8s-2.4,0-3.3,0c-.9,0-1.8.1-2.5.2-.7,0-1.4.2-2.1.3-.7.1-1.4.2-2.2.3-.4,0-.7,0-.9-.3-.2-.2-.3-.6-.3-1v-2.8c0-.8.4-1.2,1.2-1.3,1.9-.3,3.6-.5,5.2-.6,1.6-.2,3.3-.2,5.2-.2,3.2,0,5.5.7,6.9,2.2,1.4,1.4,2.1,3.8,2.1,7s0,1.5-.2,2.4c-.1.9-.2,1.9-.4,3-.2,1-.4,2.1-.6,3.1-.2,1-.4,1.9-.6,2.8,0,.4-.2.7-.4.9-.2.2-.5.3-.9.3h-3.1c-.4,0-.8-.1-1-.4-.2-.3-.3-.6-.2-.9ZM333,115.2c0,.8-.6,1.2-1.4,1.2h-2.9c-.4,0-.7-.1-1-.4-.2-.2-.3-.6-.3-.9,0-.4.1-.9.1-1.4,0-.5,0-1,0-1.6,0-.5,0-1.1,0-1.6v-1.5c0-1.5-.3-2.6-.9-3.1-.6-.6-1.8-.8-3.5-.8-3.5,0-6.7,0-9.6.2-3,.1-6,.3-8.9.6-.8,0-1.2-.3-1.2-1.2v-2.6c0-.7.4-1.2,1.2-1.2,2.6-.3,5.4-.5,8.6-.6s6.7-.2,10.6-.2,5.7.6,7.2,1.8c1.5,1.2,2.2,3.1,2.2,5.9s0,3.1,0,4.4c0,1.3,0,2.4-.2,3.2ZM333.4,95.2c0,.9-.4,1.3-1.2,1.3h-3c-.8,0-1.2-.4-1.2-1.3v-3c-.4.6-1,1-1.9,1h-2.7c-.8,0-1.2-.4-1.2-1.2v-2.6c0-.8.4-1.2,1.2-1.2h3.3c.5,0,.8-.1,1-.3.2-.2.3-.6.3-1v-4.7c-.4.6-1,1-1.9,1h-2.7c-.8,0-1.2-.4-1.2-1.2v-2.6c0-.8.4-1.2,1.2-1.2h3.3c.5,0,.8-.1,1-.3.2-.2.3-.6.3-1v-1.7c0-.9.4-1.3,1.2-1.3h3c.8,0,1.2.4,1.2,1.3v20.3Z"/>
    <path class="cls-15" d="M354.4,79.8c-.8,0-1.2-.4-1.2-1.2v-2.6c0-.8.4-1.2,1.2-1.2h19.7c.8,0,1.2.4,1.2,1.2v2.6c0,.8-.4,1.2-1.2,1.2h-7.1v2.9c0,1.3.2,2.6.6,3.7.4,1.1.9,2.1,1.5,3,.6.8,1.4,1.5,2.3,2s1.9.7,2.9.7,1.2.4,1.2,1.2v2.6c0,.8-.4,1.2-1.2,1.2-1.2,0-2.4-.2-3.5-.6-1.1-.4-2-.9-2.9-1.6-.9-.7-1.6-1.4-2.2-2.3-.6-.8-1.1-1.8-1.4-2.7-.3,1-.8,1.9-1.4,2.7-.6.8-1.4,1.6-2.2,2.3-.9.7-1.8,1.2-2.9,1.6-1.1.4-2.3.6-3.5.6s-1.2-.4-1.2-1.2v-2.6c0-.8.4-1.2,1.2-1.2s2-.2,2.9-.7,1.7-1.1,2.3-2c.6-.8,1.1-1.8,1.5-3,.4-1.1.6-2.4.6-3.7v-2.9h-7.1ZM357.6,102.6c.2-.8.6-1.2,1.4-1.2h2.9c.4,0,.7.1,1,.4.2.2.3.6.3.9,0,.6-.1,1.3-.2,2.1,0,.8,0,1.7,0,2.6,0,1.4.4,2.5,1.3,3.3.9.8,2,1.1,3.5,1.1,2.1,0,4,0,5.7,0,1.7,0,3.3,0,4.8-.2,1.5,0,2.9-.2,4.2-.3,1.4,0,2.7-.2,4.2-.3.8,0,1.2.3,1.2,1.2l.2,2.6c0,.7-.4,1.1-1.2,1.2-2.4.3-5.2.5-8.3.6-3.1.2-6.7.2-10.7.2s-6-.8-7.8-2.4c-1.8-1.6-2.8-3.8-2.8-6.6s0-2,0-3,.1-1.7.2-2.4ZM381.2,74.9c0-.9.4-1.3,1.2-1.3h3c.8,0,1.2.4,1.2,1.3v27c0,.9-.4,1.3-1.2,1.3h-3c-.8,0-1.2-.4-1.2-1.3v-14.5c-.4.6-1,1-2,1h-3.4c-.8,0-1.2-.4-1.2-1.2v-2.6c0-.8.4-1.2,1.2-1.2h3.6c1.1,0,1.7-.5,1.7-1.5v-6.9Z"/>
    <path class="cls-15" d="M415.2,95.9c-.6.2-1.3.4-2.1.7-.8.2-1.7.4-2.7.6-.9.1-1.9.3-2.9.4s-2,.1-2.9.1c-2,0-3.7-.1-5.1-.4-1.4-.3-2.6-.7-3.5-1.2-.9-.6-1.5-1.3-1.9-2.2-.4-.9-.6-2-.6-3.3s.2-2.4.6-3.3c.4-.9,1.1-1.6,2.1-2.2,1-.6,2.2-1,3.7-1.2,1.5-.3,3.4-.4,5.7-.4s3.6-.6,3.6-1.9-.3-1.1-.8-1.3c-.6-.3-1.6-.4-3-.4s-2.2,0-3.9.1c-1.6,0-3.4.3-5.3.5-.8,0-1.2-.3-1.2-1.1v-2.6c0-.4,0-.7.2-.9.2-.2.5-.3.9-.4,1.6-.3,3.2-.4,4.8-.5,1.6,0,3.4-.1,5.5,0,3,0,5.2.4,6.5,1.1,1.3.7,1.9,1.9,1.9,3.5s-.8,3.6-2.5,4.5h1.1c.7,0,1.1.4,1.1,1.1v2.3c0,.7-.4,1.1-1.1,1.1-1.2,0-2.2,0-3.3,0h-2.9c-1.6,0-2.9,0-3.9.1-1,0-1.9.2-2.5.4-.6.2-1.1.4-1.3.7-.3.3-.4.7-.4,1.1s.1.8.3,1c.2.3.6.5,1.1.7.5.2,1.2.3,2.1.4.9,0,2,0,3.3,0s2.5-.1,4.1-.4,2.9-.7,4.1-1.1c.3,0,.4-.1.6-.1.4,0,.7.3.9.8l.7,2.5c.1.4.1.7,0,1-.1.2-.4.4-.8.6ZM425.2,115.2c0,.8-.6,1.2-1.4,1.2h-2.9c-.4,0-.7-.1-1-.4-.2-.2-.3-.6-.3-.9,0-.8.2-1.7.2-2.6,0-.9,0-1.8,0-2.6,0-1.5-.3-2.6-.9-3.1-.6-.6-1.8-.8-3.5-.8-3.2,0-6.2,0-9,.2-2.8.1-5.7.3-8.6.6-.8,0-1.2-.3-1.2-1.2v-2.6c0-.7.4-1.2,1.2-1.2,2.6-.3,5.3-.5,8.3-.6,3-.1,6.3-.2,9.9-.2s5.7.6,7.2,1.8c1.5,1.2,2.2,3.1,2.2,5.9s0,2.8,0,3.8c0,1,0,2-.2,2.8ZM425.6,88c.4-.6,1-1,2-1h2.8c.8,0,1.2.4,1.2,1.2v2.6c0,.8-.4,1.2-1.2,1.2h-3.1c-1.1,0-1.7.5-1.7,1.5v2.5c0,.9-.4,1.3-1.2,1.3h-3c-.8,0-1.2-.4-1.2-1.3v-21.2c0-.9.4-1.3,1.2-1.3h3c.8,0,1.2.4,1.2,1.3v2.8c.4-.6,1-1,2-1h2.8c.8,0,1.2.4,1.2,1.2v2.6c0,.8-.4,1.2-1.2,1.2h-3.1c-1.1,0-1.7.5-1.7,1.5v4.7Z"/>
  </g>
  <g>
    <path class="cls-13" d="M64,104.5c0,1.6-.6,2.9-1.6,3.8s-2.4,1.4-4.2,1.4h-7.9c-1.8,0-3.2-.5-4.2-1.4s-1.5-2.2-1.6-3.8l-.7-26.5c0-.9.4-1.3,1.3-1.3h2.9c.9,0,1.3.4,1.3,1.2l.2,9.3h9.6l.2-9.3c0-.8.4-1.2,1.3-1.2h2.9c.9,0,1.3.4,1.3,1.3l-.7,26.5ZM49.8,102.4c0,1.3.7,2,2.1,2h4.5c1.4,0,2.1-.7,2.1-2l.3-10h-9.3l.3,10ZM71.6,74.9c0-.9.4-1.3,1.2-1.3h3c.8,0,1.2.4,1.2,1.3v39.9c0,.9-.4,1.3-1.2,1.3h-3c-.8,0-1.2-.4-1.2-1.3v-20.3c-.4.6-1,1-2,1h-2.2c-.8,0-1.2-.4-1.2-1.2v-2.9c0-.8.4-1.2,1.2-1.2h2.4c1.1,0,1.7-.5,1.7-1.5v-13.8Z"/>
    <path class="cls-13" d="M96.3,104.9c2.5,0,5.2-.6,7.9-1.8.2,0,.4-.1.5-.1.4,0,.7.3.9.8l.9,2.9c.2.7,0,1.2-.9,1.5-1.9.7-3.7,1.2-5.4,1.5-1.7.3-3.4.5-5,.5-7.6,0-11.4-3.4-11.4-10.1s.9-5.7,2.8-7.3c1.9-1.6,4.8-2.4,8.7-2.4s2.5-.3,3.2-1c.7-.7,1-1.8,1-3.2s-.4-2.6-1.1-3.3-1.9-1-3.5-1-4.6.2-8.4.7c-.8,0-1.2-.2-1.2-1v-3.1c0-.7.4-1.1,1.1-1.2.9-.1,1.7-.2,2.4-.3.8,0,1.5-.1,2.3-.2.8,0,1.6,0,2.4,0,.8,0,1.7,0,2.7,0,5.9,0,8.8,2.3,8.8,7s-.3,2.9-.8,4.1c-.5,1.2-1.3,2.2-2.3,3h1.5c.7,0,1.1.4,1.1,1.1v2.6c0,.7-.4,1.1-1.1,1.1-1.3,0-2.5,0-3.6,0-1.1,0-2.1,0-3,0-2.8,0-4.8.4-5.9,1.1-1.1.7-1.7,1.9-1.7,3.7s.5,2.9,1.6,3.6c1.1.7,2.9,1.1,5.4,1.1ZM116,114.9c0,.9-.4,1.3-1.2,1.3h-3c-.8,0-1.2-.4-1.2-1.3v-39.9c0-.9.4-1.3,1.2-1.3h3c.8,0,1.2.4,1.2,1.3v16.5c.4-.6,1-1,2-1h2.8c.8,0,1.2.4,1.2,1.2v2.9c0,.8-.4,1.2-1.2,1.2h-3.1c-1.1,0-1.7.5-1.7,1.5v17.6Z"/>
    <path class="cls-13" d="M146.8,93.4c0,6-.9,10.3-2.6,13.1-1.7,2.8-4.5,4.2-8.2,4.2s-6.4-1.4-8.2-4.2c-1.7-2.8-2.6-7.1-2.6-13.1s.9-10.3,2.6-13.1c1.7-2.8,4.4-4.1,8.2-4.1s6.5,1.4,8.2,4.1c1.7,2.8,2.6,7.1,2.6,13.1ZM136,81.5c-1.8,0-3.2.9-4,2.8-.8,1.9-1.2,4.9-1.2,9.1s.4,7.3,1.2,9.1,2.2,2.8,4,2.8,3.2-.9,4-2.8c.8-1.9,1.2-4.9,1.2-9.2s-.4-7.3-1.2-9.1c-.8-1.9-2.2-2.8-4-2.8ZM153.2,74.9c0-.9.4-1.3,1.2-1.3h3c.8,0,1.2.4,1.2,1.3v39.9c0,.9-.4,1.3-1.2,1.3h-3c-.8,0-1.2-.4-1.2-1.3v-39.9Z"/>
    <path class="cls-13" d="M186.1,93.4c0,6-.8,10.3-2.5,13.1-1.7,2.8-4.4,4.2-8,4.2s-6.3-1.4-8-4.2c-1.7-2.8-2.5-7.1-2.5-13.1s.8-10.3,2.5-13.1c1.7-2.8,4.3-4.1,8-4.1s6.4,1.4,8,4.1c1.7,2.8,2.5,7.1,2.5,13.1ZM175.6,81.5c-1.8,0-3,.9-3.8,2.8-.8,1.9-1.2,4.9-1.2,9.1s.4,7.3,1.2,9.1c.8,1.9,2.1,2.8,3.8,2.8s3.1-.9,3.9-2.8c.8-1.9,1.2-4.9,1.2-9.2s-.4-7.3-1.2-9.1c-.8-1.9-2.1-2.8-3.9-2.8ZM193,74.9c0-.9.4-1.3,1.2-1.3h3c.8,0,1.2.4,1.2,1.3v39.9c0,.9-.4,1.3-1.2,1.3h-3c-.8,0-1.2-.4-1.2-1.3v-20.3c-.4.6-1,1-2,1h-2.2c-.8,0-1.2-.4-1.2-1.2v-2.9c0-.8.4-1.2,1.2-1.2h2.4c1.1,0,1.7-.5,1.7-1.5v-13.8Z"/>
    <path class="cls-13" d="M227.1,108.2c-1.4.6-3,1.1-4.8,1.4-1.7.3-3.4.5-5,.5s-3.5-.3-5-.8c-1.5-.6-2.8-1.4-3.8-2.4-1-1-1.8-2.3-2.4-3.8-.6-1.5-.8-3.1-.8-5,0-8.1,4.4-12.1,13.1-12.1s4.5.1,6.2.4c.8.1,1.2.6,1.2,1.4v2.7c0,.9-.4,1.2-1.2,1.2-1-.1-2-.2-3-.3-.9,0-1.8,0-2.5,0-2.9,0-5,.6-6.3,1.7-1.3,1.1-2,2.9-2,5.2s.6,3.7,1.9,4.8c1.2,1.2,3,1.8,5.3,1.8s2-.1,3.3-.4c1.3-.3,2.7-.7,4.2-1.2.2,0,.4,0,.6,0,.5,0,.9.3,1.1.9l.7,2.6c.2.7,0,1.3-.8,1.6ZM207,82c-.8,0-1.2-.4-1.2-1.2v-2.9c0-.8.4-1.2,1.2-1.2h18.4c.8,0,1.2.4,1.2,1.2v2.9c0,.8-.4,1.2-1.2,1.2h-18.4ZM232.9,74.9c0-.9.4-1.3,1.2-1.3h3c.8,0,1.2.4,1.2,1.3v39.9c0,.9-.4,1.3-1.2,1.3h-3c-.8,0-1.2-.4-1.2-1.3v-39.9Z"/>
    <path class="cls-13" d="M278,108.5c-.1.8-.6,1.2-1.3,1.2h-3.1c-.4,0-.8-.1-1-.4-.2-.2-.3-.6-.2-.9.6-3.5,1.1-7,1.4-10.4.3-3.4.4-6.9.4-10.4s-.4-3.5-1.1-4.3c-.7-.8-2-1.2-3.8-1.2s-3.4,0-4.8.3c-1.5.2-3,.4-4.6.6-.4,0-.7,0-.9-.3-.2-.2-.3-.6-.3-1v-2.8c0-.8.4-1.2,1.2-1.3,1.9-.3,3.6-.5,5.4-.6,1.7-.2,3.4-.2,5.2-.2s3.1.2,4.3.6c1.2.4,2.2,1,2.9,1.8.8.8,1.3,1.9,1.7,3.2.4,1.3.5,2.9.5,4.7,0,3.8-.1,7.5-.4,10.9-.3,3.5-.7,7-1.3,10.6ZM290.7,114.9c0,.9-.4,1.3-1.2,1.3h-3c-.8,0-1.2-.4-1.2-1.3v-39.9c0-.9.4-1.3,1.2-1.3h3c.8,0,1.2.4,1.2,1.3v16.5c.4-.6,1-1,2-1h2.8c.8,0,1.2.4,1.2,1.2v2.9c0,.8-.4,1.2-1.2,1.2h-3.1c-1.1,0-1.7.5-1.7,1.5v17.6Z"/>
    <path class="cls-13" d="M313.2,94.9c.3-.8.5-1.7.7-2.7.2-1,.4-2.1.6-3.1.2-1,.3-2,.4-3,0-.9.1-1.7.1-2.3,0-1.3-.3-2.3-.9-2.9-.6-.6-1.5-.8-2.8-.8s-2.4,0-3.3,0c-.9,0-1.8.1-2.5.2-.7,0-1.4.2-2.1.3-.7.1-1.4.2-2.2.3-.4,0-.7,0-.9-.3-.2-.2-.3-.6-.3-1v-2.8c0-.8.4-1.2,1.2-1.3,1.9-.3,3.6-.5,5.2-.6,1.6-.2,3.3-.2,5.2-.2,3.2,0,5.5.7,6.9,2.2,1.4,1.4,2.1,3.8,2.1,7s0,1.5-.2,2.4c-.1.9-.2,1.9-.4,3-.2,1-.4,2.1-.6,3.1-.2,1-.4,1.9-.6,2.8,0,.4-.2.7-.4.9-.2.2-.5.3-.9.3h-3.1c-.4,0-.8-.1-1-.4-.2-.3-.3-.6-.2-.9ZM333,115.2c0,.8-.6,1.2-1.4,1.2h-2.9c-.4,0-.7-.1-1-.4-.2-.2-.3-.6-.3-.9,0-.4.1-.9.1-1.4,0-.5,0-1,0-1.6,0-.5,0-1.1,0-1.6v-1.5c0-1.5-.3-2.6-.9-3.1-.6-.6-1.8-.8-3.5-.8-3.5,0-6.7,0-9.6.2-3,.1-6,.3-8.9.6-.8,0-1.2-.3-1.2-1.2v-2.6c0-.7.4-1.2,1.2-1.2,2.6-.3,5.4-.5,8.6-.6s6.7-.2,10.6-.2,5.7.6,7.2,1.8c1.5,1.2,2.2,3.1,2.2,5.9s0,3.1,0,4.4c0,1.3,0,2.4-.2,3.2ZM333.4,95.2c0,.9-.4,1.3-1.2,1.3h-3c-.8,0-1.2-.4-1.2-1.3v-3c-.4.6-1,1-1.9,1h-2.7c-.8,0-1.2-.4-1.2-1.2v-2.6c0-.8.4-1.2,1.2-1.2h3.3c.5,0,.8-.1,1-.3.2-.2.3-.6.3-1v-4.7c-.4.6-1,1-1.9,1h-2.7c-.8,0-1.2-.4-1.2-1.2v-2.6c0-.8.4-1.2,1.2-1.2h3.3c.5,0,.8-.1,1-.3.2-.2.3-.6.3-1v-1.7c0-.9.4-1.3,1.2-1.3h3c.8,0,1.2.4,1.2,1.3v20.3Z"/>
    <path class="cls-13" d="M354.4,79.8c-.8,0-1.2-.4-1.2-1.2v-2.6c0-.8.4-1.2,1.2-1.2h19.7c.8,0,1.2.4,1.2,1.2v2.6c0,.8-.4,1.2-1.2,1.2h-7.1v2.9c0,1.3.2,2.6.6,3.7.4,1.1.9,2.1,1.5,3,.6.8,1.4,1.5,2.3,2s1.9.7,2.9.7,1.2.4,1.2,1.2v2.6c0,.8-.4,1.2-1.2,1.2-1.2,0-2.4-.2-3.5-.6-1.1-.4-2-.9-2.9-1.6-.9-.7-1.6-1.4-2.2-2.3-.6-.8-1.1-1.8-1.4-2.7-.3,1-.8,1.9-1.4,2.7-.6.8-1.4,1.6-2.2,2.3-.9.7-1.8,1.2-2.9,1.6-1.1.4-2.3.6-3.5.6s-1.2-.4-1.2-1.2v-2.6c0-.8.4-1.2,1.2-1.2s2-.2,2.9-.7,1.7-1.1,2.3-2c.6-.8,1.1-1.8,1.5-3,.4-1.1.6-2.4.6-3.7v-2.9h-7.1ZM357.6,102.6c.2-.8.6-1.2,1.4-1.2h2.9c.4,0,.7.1,1,.4.2.2.3.6.3.9,0,.6-.1,1.3-.2,2.1,0,.8,0,1.7,0,2.6,0,1.4.4,2.5,1.3,3.3.9.8,2,1.1,3.5,1.1,2.1,0,4,0,5.7,0,1.7,0,3.3,0,4.8-.2,1.5,0,2.9-.2,4.2-.3,1.4,0,2.7-.2,4.2-.3.8,0,1.2.3,1.2,1.2l.2,2.6c0,.7-.4,1.1-1.2,1.2-2.4.3-5.2.5-8.3.6-3.1.2-6.7.2-10.7.2s-6-.8-7.8-2.4c-1.8-1.6-2.8-3.8-2.8-6.6s0-2,0-3,.1-1.7.2-2.4ZM381.2,74.9c0-.9.4-1.3,1.2-1.3h3c.8,0,1.2.4,1.2,1.3v27c0,.9-.4,1.3-1.2,1.3h-3c-.8,0-1.2-.4-1.2-1.3v-14.5c-.4.6-1,1-2,1h-3.4c-.8,0-1.2-.4-1.2-1.2v-2.6c0-.8.4-1.2,1.2-1.2h3.6c1.1,0,1.7-.5,1.7-1.5v-6.9Z"/>
    <path class="cls-13" d="M415.2,95.9c-.6.2-1.3.4-2.1.7-.8.2-1.7.4-2.7.6-.9.1-1.9.3-2.9.4s-2,.1-2.9.1c-2,0-3.7-.1-5.1-.4-1.4-.3-2.6-.7-3.5-1.2-.9-.6-1.5-1.3-1.9-2.2-.4-.9-.6-2-.6-3.3s.2-2.4.6-3.3c.4-.9,1.1-1.6,2.1-2.2,1-.6,2.2-1,3.7-1.2,1.5-.3,3.4-.4,5.7-.4s3.6-.6,3.6-1.9-.3-1.1-.8-1.3c-.6-.3-1.6-.4-3-.4s-2.2,0-3.9.1c-1.6,0-3.4.3-5.3.5-.8,0-1.2-.3-1.2-1.1v-2.6c0-.4,0-.7.2-.9.2-.2.5-.3.9-.4,1.6-.3,3.2-.4,4.8-.5,1.6,0,3.4-.1,5.5,0,3,0,5.2.4,6.5,1.1,1.3.7,1.9,1.9,1.9,3.5s-.8,3.6-2.5,4.5h1.1c.7,0,1.1.4,1.1,1.1v2.3c0,.7-.4,1.1-1.1,1.1-1.2,0-2.2,0-3.3,0h-2.9c-1.6,0-2.9,0-3.9.1-1,0-1.9.2-2.5.4-.6.2-1.1.4-1.3.7-.3.3-.4.7-.4,1.1s.1.8.3,1c.2.3.6.5,1.1.7.5.2,1.2.3,2.1.4.9,0,2,0,3.3,0s2.5-.1,4.1-.4,2.9-.7,4.1-1.1c.3,0,.4-.1.6-.1.4,0,.7.3.9.8l.7,2.5c.1.4.1.7,0,1-.1.2-.4.4-.8.6ZM425.2,115.2c0,.8-.6,1.2-1.4,1.2h-2.9c-.4,0-.7-.1-1-.4-.2-.2-.3-.6-.3-.9,0-.8.2-1.7.2-2.6,0-.9,0-1.8,0-2.6,0-1.5-.3-2.6-.9-3.1-.6-.6-1.8-.8-3.5-.8-3.2,0-6.2,0-9,.2-2.8.1-5.7.3-8.6.6-.8,0-1.2-.3-1.2-1.2v-2.6c0-.7.4-1.2,1.2-1.2,2.6-.3,5.3-.5,8.3-.6,3-.1,6.3-.2,9.9-.2s5.7.6,7.2,1.8c1.5,1.2,2.2,3.1,2.2,5.9s0,2.8,0,3.8c0,1,0,2-.2,2.8ZM425.6,88c.4-.6,1-1,2-1h2.8c.8,0,1.2.4,1.2,1.2v2.6c0,.8-.4,1.2-1.2,1.2h-3.1c-1.1,0-1.7.5-1.7,1.5v2.5c0,.9-.4,1.3-1.2,1.3h-3c-.8,0-1.2-.4-1.2-1.3v-21.2c0-.9.4-1.3,1.2-1.3h3c.8,0,1.2.4,1.2,1.3v2.8c.4-.6,1-1,2-1h2.8c.8,0,1.2.4,1.2,1.2v2.6c0,.8-.4,1.2-1.2,1.2h-3.1c-1.1,0-1.7.5-1.7,1.5v4.7Z"/>
  </g>
  <path class="cls-9" d="M178.9,158.3h0c2.2.5,3.6,2.7,3.1,4.8l-8.8,39-7.9-1.8,8.8-39c.5-2.2,2.7-3.6,4.8-3.1"/>
  <path class="cls-6" d="M178.9,158.3l-.2.9c1.4.3,2.4,1.6,2.4,3,0,.2,0,.5,0,.7l-8.6,38-6-1.4,8.6-38c.3-1.4,1.6-2.4,3-2.4s.5,0,.7,0l.2-.9.2-.9c-.4,0-.7-.1-1.1-.1-2.3,0-4.4,1.6-4.9,3.9l-8.8,39c-.1.5.2,1,.7,1.1l7.9,1.8c.2,0,.5,0,.7-.1.2-.1.4-.3.4-.6l8.8-39c0-.4.1-.7.1-1.1,0-2.3-1.6-4.4-3.9-4.9l-.2.9Z"/>
  <path class="cls-9" d="M185,158.3h0c-2.2.5-3.6,2.7-3.1,4.8l8.8,39,7.9-1.8-8.8-39c-.5-2.2-2.7-3.6-4.8-3.1"/>
  <path class="cls-6" d="M185,158.3v-1h-.2c-2.3.6-3.9,2.6-3.9,4.9s0,.7.1,1.1l8.8,39c0,.2.2.5.4.6.2.1.5.2.7.1l7.9-1.8c.2,0,.5-.2.6-.4.1-.2.2-.5.1-.7l-8.8-39c-.5-2.3-2.6-3.9-4.9-3.9-.4,0-.7,0-1.1.1l.2.9v-1,1l.2.9c.2,0,.5,0,.7,0,1.4,0,2.7,1,3,2.4l8.6,38-6,1.4-8.6-38c0-.2,0-.5,0-.7,0-1.4,1-2.7,2.4-3l-.2-.9v1h.2s-.2-1-.2-1Z"/>
  <path class="cls-13" d="M298.2,395.5H65.8c-5.8,0-10.5-4.7-10.5-10.5v-155.8c0-5.8,4.7-10.5,10.5-10.5h232.5c5.8,0,10.5,4.7,10.5,10.5v155.8c0,5.8-4.7,10.5-10.5,10.5"/>
  <path class="cls-6" d="M298.2,395.5v-1H65.8c-2.6,0-5-1.1-6.8-2.8-1.7-1.7-2.8-4.1-2.8-6.8v-155.8c0-2.6,1.1-5,2.8-6.8,1.7-1.7,4.1-2.8,6.8-2.8h232.5c2.6,0,5,1.1,6.8,2.8,1.7,1.7,2.8,4.1,2.8,6.8v155.8c0,2.6-1.1,5-2.8,6.8-1.7,1.7-4.1,2.8-6.8,2.8v1.9c6.3,0,11.5-5.1,11.5-11.5v-155.8c0-6.3-5.1-11.5-11.5-11.5H65.8c-6.3,0-11.5,5.1-11.5,11.5v155.8c0,6.3,5.1,11.5,11.5,11.5h232.5v-1Z"/>
  <path class="cls-11" d="M303.7,239.2H60.4v-10.1c0-3,2.4-5.4,5.4-5.4h232.5c3,0,5.4,2.4,5.4,5.4v10.1Z"/>
  <path class="cls-6" d="M303.7,239.2v-1H61.3v-9.1c0-1.2.5-2.3,1.3-3.1.8-.8,1.9-1.3,3.1-1.3h232.5c1.2,0,2.3.5,3.1,1.3.8.8,1.3,1.9,1.3,3.1v10.1h1v-1,1h1v-10.1c0-3.5-2.8-6.4-6.4-6.4H65.8c-3.5,0-6.4,2.8-6.4,6.4v10.1c0,.3.1.5.3.7.2.2.4.3.7.3h243.3c.3,0,.5-.1.7-.3.2-.2.3-.4.3-.7h-1Z"/>
  <path class="cls-7" d="M95.7,342.8l61.7-41.1,57.8,59.9c.3.3.8.4,1.2.1l46.3-29c.4-.3.6-.9.3-1.3-.3-.4-.9-.6-1.3-.3l-45.7,28.6-57.8-59.9c-.3-.3-.8-.4-1.2-.1l-62.3,41.5c-.4.3-.6.9-.3,1.3.3.4.9.6,1.3.3Z"/>
  <path class="cls-1" d="M180,300.4c0,12.4-10.1,22.5-22.5,22.5s-22.5-10.1-22.5-22.5,10.1-22.5,22.5-22.5,22.5,10.1,22.5,22.5"/>
  <path class="cls-6" d="M180,300.4h-1c0,6-2.4,11.4-6.3,15.3-3.9,3.9-9.3,6.3-15.3,6.3s-11.3-2.4-15.3-6.3c-3.9-3.9-6.3-9.3-6.3-15.3s2.4-11.4,6.3-15.3c3.9-3.9,9.3-6.3,15.3-6.3s11.3,2.4,15.3,6.3c3.9,3.9,6.3,9.3,6.3,15.3h1.9c0-13-10.5-23.5-23.5-23.5-13,0-23.5,10.5-23.5,23.5s10.5,23.5,23.5,23.5,23.5-10.5,23.5-23.5h-1Z"/>
  <path class="cls-4" d="M172.8,300.4h-1c0,4-1.6,7.5-4.2,10.1-2.6,2.6-6.2,4.2-10.1,4.2-4,0-7.5-1.6-10.1-4.2-2.6-2.6-4.2-6.2-4.2-10.1,0-4,1.6-7.5,4.2-10.1,2.6-2.6,6.2-4.2,10.1-4.2,4,0,7.5,1.6,10.1,4.2,2.6,2.6,4.2,6.2,4.2,10.1h1.9c0-9-7.3-16.2-16.2-16.2s-16.2,7.3-16.2,16.2c0,9,7.3,16.2,16.2,16.2,9,0,16.2-7.3,16.2-16.2h-1Z"/>
  <path class="cls-1" d="M231.2,360.9c0,8.5-6.9,15.5-15.5,15.5s-15.5-6.9-15.5-15.5,6.9-15.5,15.5-15.5,15.5,6.9,15.5,15.5"/>
  <path class="cls-6" d="M231.2,360.9h-1c0,4-1.6,7.6-4.2,10.3-2.6,2.6-6.2,4.2-10.3,4.2s-7.6-1.6-10.3-4.2c-2.6-2.6-4.2-6.2-4.2-10.3,0-4,1.6-7.6,4.2-10.3,2.6-2.6,6.2-4.2,10.3-4.2,4,0,7.6,1.6,10.3,4.2,2.6,2.6,4.2,6.2,4.2,10.3h1.9c0-9.1-7.3-16.4-16.4-16.4-9.1,0-16.4,7.3-16.4,16.4,0,9.1,7.3,16.4,16.4,16.4,9.1,0,16.4-7.3,16.4-16.4h-1Z"/>
  <path class="cls-4" d="M226.3,360.9h-1c0,2.6-1.1,5-2.8,6.7-1.7,1.7-4.1,2.8-6.7,2.8s-5-1.1-6.7-2.8c-1.7-1.7-2.8-4.1-2.8-6.7,0-2.6,1.1-5,2.8-6.7,1.7-1.7,4.1-2.8,6.7-2.8s5,1.1,6.7,2.8c1.7,1.7,2.8,4.1,2.8,6.7h1.9c0-6.3-5.1-11.4-11.4-11.4s-11.4,5.1-11.4,11.4c0,6.3,5.1,11.4,11.4,11.4s11.4-5.1,11.4-11.4h-1Z"/>
  <path class="cls-1" d="M110.6,342c0,8.5-6.9,15.5-15.5,15.5s-15.5-6.9-15.5-15.5,6.9-15.5,15.5-15.5,15.5,6.9,15.5,15.5"/>
  <path class="cls-6" d="M110.6,342h-1c0,4-1.6,7.6-4.2,10.3-2.6,2.6-6.2,4.2-10.3,4.2s-7.6-1.6-10.3-4.2c-2.6-2.6-4.2-6.2-4.2-10.3,0-4,1.6-7.6,4.2-10.3,2.6-2.6,6.2-4.2,10.3-4.2,4,0,7.6,1.6,10.3,4.2,2.6,2.6,4.2,6.2,4.2,10.3h1.9c0-9.1-7.3-16.4-16.4-16.4-9.1,0-16.4,7.3-16.4,16.4,0,9.1,7.3,16.4,16.4,16.4s16.4-7.3,16.4-16.4h-1Z"/>
  <path class="cls-4" d="M105.6,342h-1c0,2.6-1.1,5-2.8,6.7-1.7,1.7-4.1,2.8-6.7,2.8s-5-1.1-6.7-2.8c-1.7-1.7-2.8-4.1-2.8-6.7,0-2.6,1.1-5,2.8-6.7,1.7-1.7,4.1-2.8,6.7-2.8,2.6,0,5,1.1,6.7,2.8,1.7,1.7,2.8,4.1,2.8,6.7h1.9c0-6.3-5.1-11.4-11.4-11.4s-11.4,5.1-11.4,11.4c0,6.3,5.1,11.4,11.4,11.4,6.3,0,11.4-5.1,11.4-11.4h-1Z"/>
  <path class="cls-1" d="M277.6,331.9c0,8.5-6.9,15.5-15.5,15.5s-15.5-6.9-15.5-15.5,6.9-15.5,15.5-15.5,15.5,6.9,15.5,15.5"/>
  <path class="cls-6" d="M277.6,331.9h-1c0,4-1.6,7.6-4.2,10.3-2.6,2.6-6.2,4.2-10.3,4.2s-7.6-1.6-10.3-4.2c-2.6-2.6-4.2-6.2-4.2-10.3,0-4,1.6-7.6,4.2-10.3,2.6-2.6,6.2-4.2,10.3-4.2,4,0,7.6,1.6,10.3,4.2,2.6,2.6,4.2,6.2,4.2,10.3h1.9c0-9.1-7.3-16.4-16.4-16.4-9.1,0-16.4,7.3-16.4,16.4,0,9.1,7.3,16.4,16.4,16.4s16.4-7.3,16.4-16.4h-1Z"/>
  <path class="cls-4" d="M272.6,331.9h-1c0,2.6-1.1,5-2.8,6.7-1.7,1.7-4.1,2.8-6.7,2.8s-5-1.1-6.7-2.8c-1.7-1.7-2.8-4.1-2.8-6.7,0-2.6,1.1-5,2.8-6.7,1.7-1.7,4.1-2.8,6.7-2.8,2.6,0,5,1.1,6.7,2.8,1.7,1.7,2.8,4.1,2.8,6.7h1.9c0-6.3-5.1-11.4-11.4-11.4s-11.4,5.1-11.4,11.4c0,6.3,5.1,11.4,11.4,11.4,6.3,0,11.4-5.1,11.4-11.4h-1Z"/>
  <path class="cls-6" d="M310.4,263.4c2.2,6.2-4,14.1-13.7,17.5-9.8,3.4-19.5,1.1-21.6-5.1-2.2-6.2,4-14.1,13.7-17.5,9.8-3.4,19.5-1.1,21.6,5.1"/>
  <path class="cls-6" d="M310.4,263.4l-.9.3c.3.7.4,1.5.4,2.3,0,2.5-1.3,5.3-3.7,7.8-2.4,2.5-5.8,4.7-9.9,6.2-3,1-6,1.5-8.7,1.5-2.9,0-5.6-.6-7.6-1.6-2-1.1-3.5-2.5-4.1-4.4-.3-.7-.4-1.5-.4-2.3,0-2.5,1.3-5.3,3.7-7.8,2.4-2.5,5.8-4.7,9.9-6.2,3-1,6-1.5,8.7-1.5,2.9,0,5.6.6,7.6,1.6,2,1.1,3.5,2.5,4.1,4.4l.9-.3.9-.3c-.8-2.4-2.7-4.3-5-5.5-2.4-1.2-5.3-1.8-8.5-1.8-2.9,0-6.1.5-9.3,1.6-4.4,1.5-8,3.9-10.6,6.7-2.6,2.8-4.2,5.9-4.2,9.1,0,1,.2,2,.5,2.9.8,2.4,2.7,4.3,5,5.5,2.4,1.2,5.3,1.8,8.5,1.8,2.9,0,6.1-.5,9.3-1.6,4.4-1.5,8-3.9,10.6-6.7,2.6-2.8,4.2-5.9,4.2-9.1,0-1-.2-2-.5-2.9l-.9.3Z"/>
  <path class="cls-10" d="M314.2,259.5c-22.1-1.9-41.5,15.3-43.5,38.3,0,.7-.1,1.5-.2,2.2h0c-2.1-.2-3.9,1.4-4.1,3.4-.2,2.1,1.4,3.9,3.4,4.1.2,0,.4,0,.5,0,.6,17.3,7.9,32.8,31.5,34l2.4,10.5s2.2,6.7,15.6,4c13.1-2.7,12.4-9.5,12.4-9.5l-2.4-10.5c11.6-6,19.5-16.7,20.8-31.4,1.9-23-14.4-43.2-36.4-45"/>
  <path class="cls-6" d="M314.2,259.5v-1c-1,0-2.2-.1-3.3-.1-21.3,0-39.4,17-41.2,39.4,0,.8-.1,1.5-.2,2.2h1c0,0,.2-1,.2-1h0s-.1,0-.1,0c-.1,0-.3,0-.4,0-2.5,0-4.6,1.9-4.8,4.4,0,.1,0,.3,0,.4,0,2.5,1.9,4.6,4.4,4.8,0,0,.2,0,.3,0,.2,0,.3,0,.4,0v-1c0,0-1.1,0-1.1,0,.3,8.8,2.3,17.2,7.4,23.6,2.5,3.2,5.8,5.9,10,7.9,4.2,2,9.2,3.2,15.2,3.5v-1c0,0-1,.2-1,.2l2.4,10.5h0c0,.2.5,1.6,2.1,2.9,1.6,1.3,4.3,2.6,8.6,2.6,1.8,0,3.8-.2,6.2-.7,6.1-1.3,9.4-3.4,11.2-5.5,1.8-2.1,2-4.1,2-4.8,0-.1,0-.2,0-.3h0c0-.1-2.4-10.6-2.4-10.6l-1,.2.5.9c5.9-3.1,11-7.4,14.7-12.8,3.7-5.4,6-11.9,6.7-19.5.1-1.3.2-2.6.2-3.8,0-11-4-21.1-10.7-28.7-6.7-7.6-16.1-12.7-26.8-13.6v1c0,0-.2,1-.2,1,10.2.9,19.1,5.7,25.4,12.9,6.4,7.2,10.2,16.9,10.2,27.3s0,2.4-.2,3.6c-.6,7.2-2.8,13.4-6.3,18.5-3.5,5.1-8.2,9.2-13.9,12.1-.4.2-.7.7-.5,1.2l2.4,10.5,1-.2h-1c0,.1.6,0,.6,0h-.6s0,0,0,0h.6c0,0-.6,0-.6,0h0c0,.4,0,1.9-1.5,3.6-1.4,1.7-4.3,3.7-10.1,4.9-2.2.5-4.1.6-5.7.6-3.9,0-6-1.1-7.2-2.1-.6-.5-1-1-1.2-1.3-.1-.2-.2-.3-.2-.4h0c0,0,0,0,0,0l-1,.3,1-.2-2.4-10.5c-.1-.5-.5-.8-1-.8-5.8-.3-10.5-1.5-14.4-3.3-5.8-2.7-9.7-6.9-12.2-12.1-2.5-5.1-3.7-11.2-3.9-17.6,0-.3-.1-.6-.3-.7s-.5-.3-.8-.3c-.1,0-.2,0-.3,0h0c-1.4-.1-2.5-1.3-2.5-2.7v-.2c.1-1.4,1.3-2.5,2.7-2.5h.2s0-1,0-1l-.2,1h0c.3,0,.6,0,.8-.2.2-.2.4-.5.4-.8,0-.7,0-1.5.2-2.2,1.8-21.3,19-37.5,39.2-37.5,1.1,0,2.1,0,3.2.1v-1Z"/>
  <path class="cls-6" d="M280.4,295.6c-.1,1.5-.8,2.7-1.5,2.6-.7,0-1.2-1.3-1.1-2.8.1-1.5.8-2.7,1.5-2.6.7,0,1.2,1.3,1.1,2.8"/>
  <path class="cls-6" d="M280.4,295.6h-.9c0,.5-.2,1.1-.4,1.4,0,.2-.2.3-.2.3h0s0,.1,0,.1h0c0-.1,0,0,0,0h0c0,0,0,0,0,0v.3c0,0,0-.3,0-.3h0s0,.3,0,.3v-.3.2-.2s0,0,0,0v.2-.2s0,1,0,1v-1c0,0,0,.3,0,.3v-.3c.1,0,0,0,0,0v.3s.1-.3.1-.3h0c0,.1,0,0,0,0h0s0,0,0,0h0c0,0-.1-.2-.2-.5,0-.3-.1-.6-.1-1s0-.3,0-.4c0-.6.2-1.2.4-1.5,0-.2.2-.3.2-.3h0s0-.1,0-.1h0c0,.1,0,0,0,0h0c0,0,0,0,0,0v-.3c0,0,0,.3,0,.3h0s0-.3,0-.3v.3-.4.4s0,0,0,0v-.4.4s0,0,0,0v-.3s-.1.3-.1.3h.1s0-.3,0-.3v.3c-.1,0,0-.1,0-.1h0c0,0,0,.1,0,.1h0c0-.1,0,0,0,0,0,0,.1.1.2.4,0,.3.1.6.1,1s0,.3,0,.4h.9c0,0,.9.2.9.2,0-.2,0-.4,0-.6,0-.8-.1-1.4-.4-2-.1-.3-.3-.6-.6-.8-.2-.2-.6-.4-1-.5v.9c0,0,0-.9,0-.9h-.2c-.4,0-.8.2-1.1.4-.4.4-.7.8-.9,1.3-.2.5-.3,1.1-.4,1.8,0,.2,0,.4,0,.6,0,.8.1,1.4.4,2,.1.3.3.6.6.8.2.2.6.4,1,.5h0s.1,0,.1,0c.4,0,.8-.2,1.1-.4.4-.4.7-.8.9-1.3.2-.5.3-1.1.4-1.8h-.9Z"/>
  <path class="cls-6" d="M279.8,286.1c1.1-.7,2.8-1.1,4.6-1.1.3,0,.7,0,1,0,2.2.2,4.2,1,5.4,2,.4.3,1,.3,1.3-.1.3-.4.3-1-.1-1.3-1.6-1.3-3.9-2.2-6.4-2.5-.4,0-.8,0-1.2,0-2.1,0-4.1.5-5.6,1.4-.5.3-.6.9-.3,1.3.3.5.9.6,1.3.3Z"/>
  <path class="cls-8" d="M292,299.7c-4.1,0-7.5,3.1-7.9,7.2-.4,4.3,2.9,8.2,7.2,8.5.2,0,.5,0,.7,0,4.1,0,7.5-3.1,7.9-7.2.4-4.3-2.9-8.2-7.2-8.5-.2,0-.5,0-.7,0"/>
  <path class="cls-12" d="M275.6,310.6l-4.9,1.2c.3,2.7.8,5.2,1.5,7.6,4-1.6,5.2-4.7,5.6-6.9.2-1.2-.9-2.3-2.1-2"/>
  <path class="cls-6" d="M275.6,310.6l-.2-.9-4.9,1.2c-.5.1-.8.6-.7,1,.3,2.7.8,5.3,1.5,7.8,0,.3.3.5.5.6.2.1.5.1.8,0,2.2-.8,3.6-2.2,4.6-3.6.9-1.4,1.4-2.9,1.6-4.1,0-.1,0-.3,0-.4,0-1.5-1.2-2.7-2.7-2.7-.2,0-.4,0-.7,0h0l.2.9.2.9h.2c.2,0,.4,0,.5.2.1.1.2.3.2.6h0c-.2,1.1-.5,2.3-1.3,3.5-.8,1.1-1.9,2.1-3.7,2.9l.3.9.9-.3c-.7-2.4-1.2-4.9-1.4-7.5h-.9c0,.1.2,1,.2,1l4.9-1.2h0l-.2-.9Z"/>
  <path class="cls-6" d="M300.1,272.9c.7,4.6,3.5,10.6,2.3,15.1-.7,2.7-2.3,11.5,0,13,5.1,3.2,8.9-4.3,11.1-3.1,2.2,1.2.9,7.6,1,10.1.3,7.2,2.6,14.3,6.6,20.4,2.2,3.3,5.2,6.4,9.1,7.1,3.7.7,7.5-1.1,10.6-3.2,12.5-8.4,19.8-23.9,18.4-38.8-1.4-15-11.4-28.8-25.2-34.8-12-5.2-30.5-5-40.7,4.2,2.3,3.6,6.1,4.8,6.9,9.9"/>
  <path class="cls-6" d="M300.1,272.9h-.9c.3,2.2,1,4.3,1.6,6.5.6,2.2,1,4.3,1,6.3,0,.8,0,1.5-.2,2.1-.4,1.7-1.2,5.7-1.2,9.1,0,1,0,2,.3,2.9.1.4.3.8.5,1.2.2.4.5.7.9.9,1,.7,2.1.9,3.1.9,1,0,2-.3,2.9-.7,1.3-.6,2.4-1.5,3.3-2.2.5-.3.9-.6,1.2-.8.3-.2.6-.3.7-.2h0c0,0,.2.2.3.3.2.2.3.6.4,1.2,0,.5.1,1.1.1,1.8,0,1,0,2-.2,3.1,0,1-.2,2-.2,2.7,0,.1,0,.2,0,.3h0c.3,7.4,2.6,14.7,6.7,20.8,1.1,1.7,2.5,3.4,4.1,4.7,1.6,1.4,3.5,2.4,5.6,2.8.6.1,1.2.2,1.8.2,3.5,0,6.8-1.7,9.5-3.5,11.7-7.9,19-21.9,19-36,0-1.2,0-2.5-.2-3.7-1.4-15.3-11.7-29.5-25.8-35.6-5.2-2.3-11.5-3.5-18-3.5-8.7,0-17.6,2.3-23.8,7.9-.3.3-.4.8-.2,1.2,1.3,1.9,2.8,3.2,4.1,4.5.6.7,1.2,1.3,1.6,2.1.4.8.8,1.7,1,2.9h.9c0-.1.9-.3.9-.3-.2-1.4-.6-2.5-1.2-3.5-.8-1.5-1.9-2.6-3-3.6-1-1-2-2-2.8-3.2l-.8.5.6.7c5.7-5.1,14.1-7.4,22.5-7.4,6.2,0,12.3,1.2,17.2,3.3,13.5,5.8,23.3,19.4,24.7,34,.1,1.2.2,2.4.2,3.6,0,13.5-7,26.9-18.2,34.4-2.6,1.8-5.6,3.2-8.4,3.2-.5,0-1,0-1.5-.1-1.7-.3-3.3-1.2-4.7-2.4-1.4-1.2-2.7-2.8-3.7-4.4-3.9-5.9-6.1-12.8-6.4-19.9h0c0,0,0-.2,0-.2,0-.6,0-1.6.2-2.6,0-1,.2-2.1.2-3.2,0-1,0-1.9-.3-2.8-.1-.4-.3-.8-.5-1.2-.2-.4-.6-.7-1-.9-.3-.2-.7-.3-1-.3-.4,0-.8.1-1.1.2-.6.3-1.1.6-1.7,1-.8.6-1.7,1.3-2.6,1.8-.9.5-1.8.9-2.7.9-.6,0-1.3-.2-2.1-.6,0,0-.2-.1-.3-.3-.1-.2-.3-.7-.4-1.2,0-.5-.1-1.2-.1-1.9,0-3,.8-7,1.2-8.6.2-.8.3-1.7.3-2.6,0-2.2-.5-4.5-1.1-6.7-.6-2.2-1.2-4.4-1.5-6.2h-.9Z"/>
  <path class="cls-10" d="M308.7,316.7c1.5,1.1,3.4,1.8,5.5,1.9,5.3.1,9.7-4.1,9.8-9.4.1-5.3-4.1-9.7-9.4-9.8-2.1,0-4,.6-5.6,1.6"/>
  <path class="cls-6" d="M308.2,317.4c1.7,1.2,3.8,2,6,2.1h.3c5.7,0,10.4-4.6,10.5-10.3v-.3c0-5.7-4.6-10.4-10.3-10.5h-.3c-2.2,0-4.2.7-5.9,1.8-.4.3-.6.9-.3,1.3.3.4.9.6,1.3.3,1.4-.9,3-1.5,4.8-1.5h.2c4.7.1,8.4,3.9,8.4,8.6v.2c-.1,4.7-4,8.4-8.6,8.4h-.2c-1.9,0-3.5-.7-4.9-1.7-.4-.3-1-.2-1.3.2-.3.4-.2,1,.2,1.3Z"/>
  <path class="cls-10" d="M317.5,308.5s-3-1.2-6.3,1"/>
  <path class="cls-6" d="M317.9,307.6c0,0-1-.4-2.4-.4-1.3,0-3,.3-4.7,1.5-.4.3-.6.9-.3,1.3.3.4.9.6,1.3.3,1.4-.9,2.7-1.1,3.6-1.1.5,0,1,0,1.3.1.2,0,.3,0,.3,0h0s0,0,0,0v-.3c.1,0,0,.3,0,.3h0s.1-.3.1-.3v.3c.4.2.9,0,1.1-.5.2-.5,0-1-.5-1.2Z"/>
  <path class="cls-6" d="M355.8,286.8s3.9-1,8.7,1c1.6.7,3-1.2,1.9-2.5-2.6-3.1-6.9-6.2-13.8-7.1"/>
  <path class="cls-6" d="M356.1,287.7h0s0,0,0,0h0s0,0,0,0c0,0,.9-.2,2.3-.2,1.5,0,3.5.2,5.7,1.2.3.2.7.2,1.1.2.7,0,1.4-.3,1.8-.8.5-.5.7-1.1.7-1.8,0-.6-.2-1.2-.6-1.7-2.7-3.2-7.3-6.6-14.4-7.4-.5,0-1,.3-1.1.8,0,.5.3,1,.8,1.1,6.6.8,10.7,3.8,13.2,6.7.1.2.2.3.2.4,0,.2,0,.3-.2.5-.1.1-.3.2-.5.2s-.2,0-.3,0c-2.5-1.1-4.8-1.4-6.5-1.4-1.7,0-2.8.3-2.8.3-.5.1-.8.7-.7,1.2.1.5.7.8,1.2.7Z"/>
  <path class="cls-6" d="M350,274.9s5.4-1.2,8.2-6.5c.8-1.4,2.9-1,3,.6.4,4.4-.6,10.6-7.5,15.5"/>
  <path class="cls-6" d="M350.2,275.8c0,0,1.5-.3,3.3-1.4,1.8-1,4-2.8,5.5-5.6,0-.2.2-.2.3-.3,0,0,.2,0,.3,0,.2,0,.3,0,.4.2.1.1.2.2.2.4,0,.5,0,1.1,0,1.6,0,2-.4,4.2-1.4,6.5-1.1,2.2-2.8,4.5-5.7,6.6-.4.3-.5.9-.2,1.3.3.4.9.5,1.3.2,3.1-2.2,5.1-4.8,6.4-7.3,1.2-2.5,1.6-5.1,1.6-7.3s0-1.2,0-1.8c0-.7-.4-1.3-.9-1.7-.5-.4-1.1-.6-1.7-.6-.4,0-.9.1-1.3.3-.4.2-.8.6-1,1.1-1.3,2.4-3.2,3.9-4.7,4.8-.8.4-1.5.7-2,.9-.3,0-.5.2-.6.2h-.1s0,0,0,0h0s0,.4,0,.4v-.4h0v.4c0,0,0-.4,0-.4-.5.1-.8.6-.7,1.1.1.5.6.8,1.1.7Z"/>
  <path class="cls-6" d="M294.5,258.9c-4.7,3-8.2,8.1-9.8,13.9-.5,2-.8,4.3.1,6,1,1.8,3,2.6,4.9,2.4,1.9-.2,3.6-1.2,5.3-2.1,3.8-2.1,7.5-4.3,11.3-6.4,1-.6,2-1.2,2.6-2.2.7-1.1.7-2.7.4-4-.4-1.3-1.1-2.5-1.9-3.5"/>
  <path class="cls-6" d="M294,258.1c-4.9,3.1-8.6,8.4-10.2,14.4-.3,1.1-.5,2.3-.5,3.5,0,1.1.2,2.2.7,3.2.5,1,1.3,1.7,2.3,2.2.9.5,1.9.7,2.9.7.2,0,.5,0,.7,0,2.1-.2,4-1.3,5.6-2.2,3.8-2.1,7.5-4.3,11.3-6.4.5-.3,1-.6,1.6-1,.5-.4,1-.9,1.4-1.5.5-.9.7-1.9.7-2.8,0-.6,0-1.3-.3-1.9-.4-1.5-1.2-2.7-2-3.8-.3-.4-.9-.5-1.3-.2-.4.3-.5.9-.2,1.3.8,1,1.4,2.1,1.7,3.2.1.4.2.9.2,1.4,0,.7-.2,1.4-.5,1.9-.2.4-.5.7-.9,1-.4.3-.9.6-1.3.8-3.8,2.1-7.5,4.3-11.3,6.4-1.7,1-3.3,1.8-4.9,2-.2,0-.3,0-.5,0-.7,0-1.4-.2-2-.5-.6-.3-1.1-.8-1.5-1.4-.4-.7-.5-1.5-.5-2.3,0-1,.2-2,.5-3,1.5-5.6,5-10.5,9.4-13.3.4-.3.6-.9.3-1.3-.3-.4-.9-.6-1.3-.3Z"/>
  <path class="cls-6" d="M296.7,267.9c-.2,5.3-.5,10.7.4,16,.5,3.3,1.6,6.7,4,9.1,2.4,2.4,6.4,3.4,9.2,1.7,2.2-1.4,3.3-4.1,3.7-6.7,1.1-6.5-.4-13.2-2.5-19.5"/>
  <path class="cls-6" d="M295.7,267.8c-.1,2.5-.2,4.9-.2,7.4s.1,5.8.6,8.7c.6,3.4,1.6,7,4.2,9.6,1.7,1.7,4.2,2.8,6.6,2.8,1.3,0,2.6-.3,3.8-1,1.3-.8,2.2-2,2.9-3.3.7-1.3,1.1-2.7,1.3-4.1.3-1.6.4-3.1.4-4.7,0-5.2-1.4-10.4-3-15.2-.2-.5-.7-.8-1.2-.6-.5.2-.8.7-.6,1.2,1.6,4.8,2.9,9.7,2.9,14.6,0,1.5-.1,2.9-.4,4.4-.2,1.2-.6,2.5-1.1,3.5-.5,1.1-1.3,1.9-2.2,2.5-.8.5-1.8.8-2.8.8-1.9,0-3.9-.9-5.3-2.3-2.2-2.2-3.2-5.4-3.7-8.6-.4-2.8-.6-5.6-.6-8.4s.1-4.9.2-7.4c0-.5-.4-1-.9-1-.5,0-1,.4-1,.9Z"/>
  <path class="cls-2" d="M343.3,352.3s26.9,7.7,50.3,30.5c23.4,22.7,22.2,36.6,22.2,36.6,0,0-.8,21.5-24.4,40.4"/>
  <path class="cls-6" d="M343,353.2h0c1.5.5,27.3,8.4,49.9,30.2,21,20.4,21.9,33.4,21.9,35.5,0,.1,0,.2,0,.2h0c0,0,0,0,0,0h.4s-.4,0-.4,0h0s.4,0,.4,0h-.4s0,0,0,0h0c0,.6-.4,6-3.6,13.5-3.2,7.5-9.2,17.1-20.5,26.2-.4.3-.5.9-.1,1.3.3.4.9.5,1.3.1,11.9-9.6,18.1-19.8,21.3-27.7,3.2-7.9,3.4-13.3,3.4-13.4h-1s.9,0,.9,0c0,0,0-.2,0-.5,0-2.7-1.2-16.3-22.5-36.9-23.6-22.9-50.7-30.7-50.7-30.7-.5-.1-1,.1-1.2.7-.1.5.1,1,.7,1.2Z"/>
  <path class="cls-10" d="M195.2,352.2s-6.6-18.8-16.5-31.4c-9.9-12.5-14.7-15.8-19.5-12.7-4.8,3.2,9,11.9,12.1,22.4,0,0-7.8-2.5-9,4.4,0,0-6.2,0-4.9,7.5,0,0-5.2,3.5-1.8,8.7,3.4,5.2,7.6,3.8,7.6,3.8,0,0,2.2,8.9,7.4,10.6,5.1,1.7,5.6,2,6.8,3.9l4.1,6.3,17.9-15.3-4.3-8.3Z"/>
  <path class="cls-6" d="M195.2,352.2l.9-.3s-1.7-4.7-4.6-11.1c-2.9-6.3-7.1-14.2-12.1-20.6-3.8-4.8-6.9-8.3-9.5-10.6-1.3-1.2-2.6-2-3.8-2.6-1.2-.6-2.4-.9-3.5-.9-1.4,0-2.7.5-3.9,1.3-.4.3-.8.7-1.1,1.1-.2.4-.4.9-.4,1.4,0,.7.2,1.4.5,2.1.6,1.2,1.5,2.5,2.6,3.9,1.7,2.1,3.8,4.4,5.6,7,1.9,2.5,3.5,5.3,4.4,8l.9-.3.3-.9c0,0-1.5-.5-3.3-.5-1.3,0-2.8.2-4.1,1.1-1.3.8-2.4,2.3-2.8,4.5l.9.2v-1c0,0-1.5,0-3,.8-.7.4-1.5,1-2.1,2-.6.9-.9,2.2-.9,3.7,0,.6,0,1.3.2,2.1l.9-.2-.5-.8s-.9.6-1.7,1.6c-.8,1-1.7,2.5-1.7,4.4,0,1.2.4,2.6,1.3,4,1.2,1.8,2.5,2.9,3.8,3.6,1.3.6,2.4.8,3.3.8.9,0,1.5-.2,1.6-.2l-.3-.9-.9.2s.6,2.3,1.8,4.9c.6,1.3,1.4,2.6,2.4,3.8,1,1.2,2.2,2.2,3.7,2.6,2.5.8,3.9,1.3,4.7,1.8.4.2.6.4.8.7.2.3.4.6.7,1.1h0s4.1,6.3,4.1,6.3c.1.2.4.4.7.4.3,0,.5,0,.8-.2l17.9-15.3c.3-.3.4-.8.2-1.2l-4.3-8.3-.8.4.9-.3-.9.3-.8.4,3.9,7.6-16.5,14.1-3.5-5.4-.8.5.8-.5c-.3-.5-.6-.9-.9-1.4-.5-.6-1.2-1.1-2.2-1.5-1-.4-2.3-.9-4.2-1.5-1.1-.3-2-1.1-2.9-2.1-1.3-1.5-2.3-3.5-2.9-5.1-.3-.8-.6-1.5-.7-2,0-.3-.1-.5-.2-.6v-.2s0,0,0,0c0-.3-.2-.5-.5-.6-.2-.1-.5-.2-.8,0l.2.5-.2-.5h0s.2.5.2.5l-.2-.5h0c-.1,0-.5.1-.9.1-.6,0-1.5-.1-2.5-.6-1-.5-2-1.4-3.1-2.9-.7-1.1-1-2.1-1-2.9,0-1.3.6-2.4,1.3-3.2.3-.4.7-.7.9-.9.1-.1.2-.2.3-.2h0c0,0,0,0,0,0h0c0,0,0,0,0,0h0s0,0,0,0h0c.3-.1.5-.5.4-.9-.1-.7-.2-1.2-.2-1.8,0-1.2.3-2.1.6-2.7.6-.9,1.4-1.4,2.2-1.6.4-.1.7-.2,1-.2.1,0,.2,0,.3,0h0s0,0,0,0v-.3s0,.3,0,.3h0v-.3s0,.3,0,.3c.5,0,.9-.3.9-.8.3-1.8,1-2.7,1.9-3.2.9-.6,2-.8,3.1-.8.8,0,1.5,0,2,.2.3,0,.5,0,.6.1h.2s0,0,0,0h0c.3.1.7,0,1-.2.3-.2.3-.6.2-1-1.4-4.7-4.8-9-7.8-12.6-1.5-1.8-2.9-3.4-3.8-4.8-.5-.7-.9-1.3-1.1-1.9-.3-.5-.4-1-.4-1.3,0-.2,0-.3.1-.5,0-.1.2-.3.5-.5,1-.7,1.9-1,2.9-1,.8,0,1.7.2,2.7.7,1.5.7,3.3,2.1,5.3,4.2,2.1,2.1,4.5,4.9,7.3,8.5,4.9,6.2,9,14,11.8,20.2,1.4,3.1,2.6,5.8,3.3,7.8.4,1,.7,1.8.9,2.3,0,.3.2.5.2.6,0,.1,0,.2,0,.2h0c0,.1.8-.3.8-.3Z"/>
  <path class="cls-10" d="M171.4,330.6s2.7.9,4.4,2"/>
  <path class="cls-6" d="M171.1,331.5h.1c.3.1,1,.4,1.7.7.8.3,1.7.8,2.3,1.2.4.3,1,.2,1.3-.3.3-.4.2-1-.3-1.3-.9-.6-2.1-1.1-3-1.5-.9-.4-1.6-.6-1.6-.6-.5-.2-1,.1-1.2.6-.2.5.1,1,.6,1.2Z"/>
  <path class="cls-10" d="M162.4,335s6-.6,10.5,3.1"/>
  <path class="cls-6" d="M162.4,335.9h0s.3,0,.8,0c.9,0,2.3,0,4,.5,1.7.4,3.5,1.1,5.1,2.4.4.3,1,.3,1.3-.1.3-.4.3-1-.1-1.3-1.9-1.5-4-2.3-5.8-2.8-1.9-.5-3.5-.5-4.4-.5s-1,0-1,0c-.5,0-.9.5-.9,1,0,.5.5.9,1,.9Z"/>
  <path class="cls-10" d="M157.5,342.4s4.7-2.2,10.9,2.9"/>
  <path class="cls-6" d="M157.9,343.3v-.3c-.1,0,0,.3,0,.3h0s-.1-.3-.1-.3v.3c.2,0,1-.4,2.5-.4,1.8,0,4.4.5,7.5,3.1.4.3,1,.3,1.3-.1.3-.4.3-1-.1-1.3-3.4-2.9-6.5-3.6-8.7-3.6-1.9,0-3.1.5-3.2.6-.5.2-.7.8-.5,1.3.2.5.8.7,1.3.5Z"/>
  <path class="cls-10" d="M163.3,354.9s1.2-2.9-1.3-5.3"/>
  <path class="cls-6" d="M164.1,355.3c0,0,.4-.9.4-2.1,0-.6,0-1.3-.4-2.1-.3-.7-.8-1.5-1.5-2.2-.4-.4-1-.4-1.3,0-.4.4-.4,1,0,1.3.5.5.8,1,1,1.5.2.5.2,1,.2,1.4,0,.4,0,.8-.1,1,0,.1,0,.2,0,.3h0c0,0,0,0,0,0h.4c0,.1-.4,0-.4,0h0s.4.2.4.2l-.4-.2c-.2.5,0,1,.5,1.2.5.2,1,0,1.2-.5Z"/>
  <path class="cls-13" d="M179.7,374.9l18-15.6c1.2-1,2.9-.8,3.9.4l6.4,8.7-24.4,19.4-4.6-9c-.7-1.3-.4-2.9.8-3.9"/>
  <path class="cls-6" d="M179.7,374.9l.6.7,18-15.6c.3-.3.7-.4,1.1-.4.5,0,1,.2,1.4.7l5.9,8-22.8,18.1-4.1-8c-.2-.3-.2-.7-.2-1,0-.6.3-1.3.8-1.7l-.6-.7-.6-.7c-.9.8-1.4,2-1.4,3.1s.2,1.3.5,1.9l4.6,9c.1.3.4.4.6.5.3,0,.6,0,.8-.2l24.4-19.4c.4-.3.5-.9.2-1.3l-6.4-8.7c-.7-1-1.8-1.5-2.9-1.5-.8,0-1.7.3-2.4.9l-18,15.6.6.7Z"/>
  <path class="cls-2" d="M403.4,462.3s-16.9-82.3-48.7-103.6c-37.6-25.2-71.8-7-86.2,34.2l.3,25.5,4.8,43.9"/>
  <path class="cls-6" d="M404.3,462.1s-4.2-20.6-12.5-43.9c-4.1-11.7-9.2-24-15.3-34.8-6.1-10.8-13.2-20-21.3-25.5-11.9-8-23.6-11.7-34.4-11.7-11.9,0-22.7,4.5-31.8,12.5-9.1,8-16.4,19.6-21.4,33.9,0,.1,0,.2,0,.3l.3,25.5h0c0,0,4.8,44,4.8,44,0,.5.5.9,1.1.8.5,0,.9-.5.8-1.1l-4.8-43.8-.3-25.5h-1s.9.3.9.3c4.9-14,12.1-25.3,20.9-33.1,8.8-7.8,19.2-12,30.5-12,10.4,0,21.7,3.6,33.3,11.4,7.7,5.2,14.7,14.2,20.7,24.9,9,16,15.9,35.5,20.6,51.1,2.3,7.8,4.1,14.5,5.2,19.4.6,2.4,1,4.3,1.3,5.7.1.7.3,1.2.3,1.5,0,.3.1.5.1.5.1.5.6.8,1.1.7.5-.1.8-.6.7-1.1Z"/>
  <path class="cls-2" d="M298.2,420.4s-32.1,37.8-62.2,30.9c-27.4-6.3-56.2-62.8-56.2-62.8l29.6-23.2,31.8,35.6,38.2-37s12.6-13.9,34.1-15.9"/>
  <path class="cls-6" d="M297.5,419.8h0c-.8,1-7.7,8.9-17.7,16.5-5,3.8-10.8,7.6-16.9,10.3-6.2,2.8-12.7,4.6-19.2,4.6-2.5,0-4.9-.3-7.4-.8-6.6-1.5-13.4-6.1-19.9-12.2-9.7-9.2-18.7-21.7-25.1-31.9-3.2-5.1-5.9-9.6-7.7-12.9-.9-1.6-1.6-2.9-2.1-3.8-.2-.5-.4-.8-.5-1-.1-.2-.2-.4-.2-.4l-.8.4.6.8,28.9-22.7,31.2,34.9c.2.2.4.3.7.3.3,0,.5,0,.7-.3l38.2-37h0s0,0,0,0c.3-.4,3.6-3.8,9.3-7.4,5.7-3.6,13.9-7.3,24.2-8.2.5,0,.9-.5.9-1,0-.5-.5-.9-1-.9-11,1-19.6,5.1-25.6,8.9-5.9,3.8-9.1,7.3-9.2,7.4l.7.6-.7-.7-37.4,36.3-31.1-34.9c-.3-.4-.9-.4-1.3-.1l-29.6,23.2c-.4.3-.5.8-.3,1.2,0,0,7.2,14.2,17.9,29.1,5.3,7.5,11.5,15.2,18.2,21.4,6.6,6.2,13.7,11.1,20.8,12.7,2.6.6,5.2.9,7.8.9,7.1,0,14.1-2,20.6-5,9.8-4.5,18.4-11.3,24.7-16.9,6.2-5.6,10.1-10.1,10.1-10.1.3-.4.3-1-.1-1.3-.4-.3-1-.3-1.3.1Z"/>
  <path class="cls-13" d="M298.7,231.5c0,2.2-1.8,4-4,4s-4-1.8-4-4,1.8-4,4-4,4,1.8,4,4"/>
  <path class="cls-13" d="M286.2,231.5c0,2.2-1.8,4-4,4s-4-1.8-4-4,1.8-4,4-4,4,1.8,4,4"/>
  <path class="cls-13" d="M273.7,231.5c0,2.2-1.8,4-4,4s-4-1.8-4-4,1.8-4,4-4,4,1.8,4,4"/>
  <path class="cls-9" d="M216.6,260.7h-69.3c-3.8,0-7-2.8-7.5-6.5l-7.1-53.7h98.5l-7.1,53.7c-.5,3.7-3.7,6.5-7.5,6.5"/>
  <path class="cls-6" d="M216.6,260.7v-1h-69.3c-3.3,0-6.1-2.4-6.5-5.7l-7-52.6h96.3l-7,52.6c-.4,3.3-3.2,5.7-6.5,5.7v1.9c4.3,0,7.9-3.1,8.4-7.4l7.1-53.7c0-.3,0-.5-.2-.8-.2-.2-.4-.3-.7-.3h-98.5c-.3,0-.5.1-.7.3-.2.2-.3.5-.2.8l7.1,53.7c.6,4.2,4.2,7.4,8.4,7.4h69.3v-1Z"/>
  <path class="cls-9" d="M230.8,196.7h-97.6c-2.2,0-3.9,1.8-3.9,3.9s1.8,3.9,3.9,3.9h97.6c2.2,0,3.9-1.8,3.9-3.9s-1.8-3.9-3.9-3.9"/>
  <path class="cls-6" d="M230.8,196.7v-1h-97.6c-2.7,0-4.9,2.2-4.9,4.9s2.2,4.9,4.9,4.9h97.6c2.7,0,4.9-2.2,4.9-4.9,0-2.7-2.2-4.9-4.9-4.9v1.9c1.6,0,3,1.3,3,3,0,1.6-1.3,3-3,3h-97.6c-1.6,0-3-1.3-3-3,0-1.6,1.3-3,3-3h97.6v-1Z"/>
  <path class="cls-6" d="M205.7,251.4h0c-1.9,0-3.4-1.4-3.2-3l2.5-29.5c.2-2.2,2.1-3.9,4.3-3.9s3.8,1.8,3.6,3.9l-3.4,29.5c-.2,1.7-1.9,3-3.8,3"/>
  <path class="cls-6" d="M205.7,251.4v-1c-.7,0-1.3-.2-1.7-.6-.4-.3-.6-.8-.6-1.3h0c0-.1,0-.2,0-.2l2.5-29.5c0-.8.5-1.6,1.1-2.2s1.4-.9,2.3-.9c.8,0,1.4.3,1.9.7.5.5.7,1.1.7,1.8,0,.1,0,.2,0,.3l-3.4,29.5c0,.6-.4,1.1-.9,1.5-.5.4-1.2.7-2,.7v1.9c1.2,0,2.3-.4,3.2-1.1.9-.7,1.5-1.7,1.6-2.8l3.4-29.5c0-.2,0-.4,0-.6,0-1.2-.5-2.4-1.3-3.2-.8-.8-2-1.3-3.2-1.3-1.4,0-2.6.5-3.6,1.4-.9.9-1.6,2.1-1.7,3.4l-2.5,29.5h0c0,.1,0,.2,0,.3,0,1.1.5,2.1,1.2,2.7.8.7,1.8,1.1,2.9,1v-1Z"/>
  <path class="cls-6" d="M189.9,251.4h0c-1.9,0-3.4-1.4-3.4-3l.6-29.5c0-2.2,1.9-3.9,4.1-3.9s3.9,1.8,3.8,3.9l-1.4,29.5c0,1.7-1.7,3-3.6,3"/>
  <path class="cls-6" d="M189.9,251.4v-1c-.7,0-1.4-.3-1.8-.6-.4-.4-.7-.9-.7-1.4h0s-.1,0-.1,0h.1s0,0,0,0h-.1s.1,0,.1,0h0s.6-29.5.6-29.5c0-1.6,1.4-3,3.1-3,1.6,0,2.9,1.3,2.9,2.8h0c0,.1,0,.1,0,.1l-1.4,29.5c0,.5-.3,1.1-.8,1.5-.5.4-1.2.7-1.9.7v1.9c1.2,0,2.3-.4,3.1-1.1.8-.7,1.4-1.7,1.5-2.8l1.4-29.5h0s0-.2,0-.2c0-1.3-.5-2.5-1.4-3.3-.9-.9-2.1-1.4-3.4-1.4-2.7,0-5,2.2-5,4.9l-.6,29.5h1s-1,0-1,0h0c0,1.2.5,2.2,1.3,2.9.8.7,1.9,1.1,3,1.1v-1Z"/>
  <path class="cls-6" d="M174.1,251.4h0c-1.9,0-3.5-1.4-3.6-3l-1.4-29.5c-.1-2.2,1.6-3.9,3.8-3.9s4,1.8,4.1,3.9l.6,29.5c0,1.7-1.5,3-3.4,3"/>
  <path class="cls-6" d="M174.1,251.4v-1c-.7,0-1.4-.3-1.9-.7-.5-.4-.8-.9-.8-1.5l-1.4-29.5h0c0-1.7,1.2-2.9,2.9-2.9,1.7,0,3.1,1.4,3.1,3l.6,29.5h0s0,0,0,0c0,.5-.2,1-.7,1.4-.4.4-1.1.6-1.8.6v1.9c1.2,0,2.2-.4,3-1.1.8-.7,1.3-1.7,1.3-2.8h0c0,0-.6-29.5-.6-29.5,0-2.7-2.3-4.9-5-4.9-1.3,0-2.5.5-3.4,1.4-.9.9-1.4,2-1.4,3.3v.2s1.4,29.5,1.4,29.5c0,1.1.6,2.1,1.5,2.8.8.7,1.9,1.1,3.1,1.1v-1Z"/>
  <path class="cls-6" d="M158.3,251.4h0c-1.9,0-3.6-1.4-3.8-3l-3.4-29.5c-.2-2.2,1.3-3.9,3.6-3.9s4.2,1.8,4.3,3.9l2.5,29.5c.1,1.7-1.3,3-3.2,3"/>
  <path class="cls-6" d="M158.3,251.4v-1c-.7,0-1.4-.3-2-.7-.5-.4-.8-1-.9-1.5l-3.4-29.5c0-.1,0-.2,0-.3,0-.7.3-1.4.7-1.8.5-.5,1.1-.7,1.9-.7.8,0,1.7.3,2.3.9s1,1.3,1.1,2.2l2.5,29.5v.2c0,.5-.2.9-.6,1.3-.4.3-1,.6-1.7.6v1.9c1.1,0,2.2-.4,2.9-1,.8-.7,1.3-1.6,1.2-2.7,0-.1,0-.2,0-.3l-2.5-29.5c-.1-1.3-.8-2.5-1.7-3.4-.9-.9-2.2-1.4-3.6-1.4-1.3,0-2.4.5-3.2,1.3-.8.8-1.3,1.9-1.3,3.2,0,.2,0,.4,0,.6l3.4,29.5c.1,1.1.8,2.1,1.6,2.8.9.7,2,1.1,3.2,1.1v-1Z"/>
</svg>