<?xml version="1.0" encoding="UTF-8"?>
<svg id="_레이어_2" data-name="레이어 2" xmlns="http://www.w3.org/2000/svg" xmlns:xlink="http://www.w3.org/1999/xlink" viewBox="0 0 1440 550">
  <defs>
    <style>
      .cls-1 {
        fill: #ff5a99;
      }

      .cls-1, .cls-2, .cls-3, .cls-4, .cls-5, .cls-6, .cls-7, .cls-8, .cls-9, .cls-10, .cls-11 {
        stroke-width: 0px;
      }

      .cls-2 {
        fill: #fad1bf;
      }

      .cls-12 {
        fill: #abe2ff;
      }

      .cls-12, .cls-13, .cls-14, .cls-15, .cls-16, .cls-17, .cls-18, .cls-19, .cls-20, .cls-21, .cls-22, .cls-23 {
        stroke-linecap: round;
        stroke-linejoin: round;
        stroke-width: 2px;
      }

      .cls-12, .cls-13, .cls-15, .cls-17, .cls-18, .cls-19, .cls-22, .cls-23 {
        stroke: #000;
      }

      .cls-24 {
        clip-path: url(#clippath);
      }

      .cls-3, .cls-13, .cls-16, .cls-20, .cls-21 {
        fill: none;
      }

      .cls-4, .cls-18 {
        fill: #282a5d;
      }

      .cls-5 {
        fill: #d8f7fa;
      }

      .cls-14, .cls-21 {
        stroke: #251e1c;
      }

      .cls-14, .cls-11, .cls-22 {
        fill: #fff;
      }

      .cls-6 {
        fill: #6dc6fe;
      }

      .cls-25 {
        clip-path: url(#clippath-1);
      }

      .cls-7 {
        fill: #000;
      }

      .cls-15 {
        fill: #ababff;
      }

      .cls-8, .cls-19 {
        fill: #277ce6;
      }

      .cls-16 {
        stroke: #fff;
      }

      .cls-17 {
        fill: #83b6ff;
      }

      .cls-9 {
        fill: #fff1a6;
      }

      .cls-10 {
        fill: #ff94c0;
      }

      .cls-20 {
        stroke: #a7d3ee;
      }

      .cls-23 {
        fill: #f0feff;
      }
    </style>
    <clipPath id="clippath">
      <rect class="cls-3" width="1440" height="550"/>
    </clipPath>
    <clipPath id="clippath-1">
      <rect class="cls-3" x="360" y="47" width="720" height="431"/>
    </clipPath>
  </defs>
  <g id="_레이어_1-2" data-name="레이어 1">
    <g class="cls-24">
      <g>
        <rect class="cls-5" width="1440" height="550"/>
        <g class="cls-25">
          <g>
            <path class="cls-21" d="M630.43,181.43h9.91c10.94,0,19.81-8.88,19.81-19.84v-13.1"/>
            <path class="cls-7" d="M492.74,321.32c-.46,0-.84-.38-.84-.85v-3.38c0-.46.38-.85.84-.85s.84.38.84.85v3.38c0,.46-.38.85-.84.85ZM492.74,314.55c-.46,0-.84-.38-.84-.85v-3.38c0-.46.38-.85.84-.85s.84.38.84.85v3.38c0,.46-.38.85-.84.85ZM492.74,307.8c-.46,0-.84-.38-.84-.85v-3.38c0-.46.38-.85.84-.85s.84.38.84.85v3.38c0,.46-.38.85-.84.85ZM492.74,301.04c-.46,0-.84-.38-.84-.85v-3.38c0-.46.38-.85.84-.85s.84.38.84.85v3.38c0,.46-.38.85-.84.85ZM492.74,294.28c-.46,0-.84-.38-.84-.85v-3.38c0-.46.38-.85.84-.85s.84.38.84.85v3.38c0,.46-.38.85-.84.85ZM492.74,287.52c-.46,0-.84-.38-.84-.85v-3.38c0-.46.38-.84.84-.84s.84.38.84.84v3.38c0,.46-.38.85-.84.85ZM492.74,280.76c-.46,0-.84-.38-.84-.85v-3.38c0-.46.38-.85.84-.85s.84.38.84.85v3.38c0,.46-.38.85-.84.85ZM492.74,274c-.46,0-.84-.38-.84-.85v-3.38c0-.46.38-.85.84-.85s.84.38.84.85v3.38c0,.46-.38.85-.84.85ZM492.74,267.24c-.46,0-.84-.38-.84-.85v-.62c0-.46.38-.85.84-.85h2.76c.46,0,.84.38.84.85s-.38.85-.84.85h-1.94c-.1.36-.42.62-.81.62h0ZM1000.86,266.62h-2.48c-.46,0-.84-.38-.84-.85s.38-.85.84-.85h1.64v-.05c0-.46.38-.85.85-.85s.84.38.84.85v.89c0,.47-.38.85-.84.85ZM995,266.62h-3.38c-.46,0-.84-.38-.84-.85s.38-.85.84-.85h3.38c.46,0,.84.38.84.85s-.38.85-.84.85ZM988.25,266.62h-3.38c-.46,0-.84-.38-.84-.85s.38-.85.84-.85h3.38c.46,0,.84.38.84.85s-.38.85-.84.85ZM981.5,266.62h-3.38c-.46,0-.84-.38-.84-.85s.38-.85.84-.85h3.38c.46,0,.84.38.84.85s-.38.85-.84.85ZM974.75,266.62h-3.38c-.46,0-.84-.38-.84-.85s.38-.85.84-.85h3.38c.46,0,.84.38.84.85s-.38.85-.84.85ZM968,266.62h-3.38c-.46,0-.84-.38-.84-.85s.38-.85.84-.85h3.38c.46,0,.84.38.84.85s-.38.85-.84.85ZM961.25,266.62h-3.38c-.46,0-.84-.38-.84-.85s.38-.85.84-.85h3.38c.46,0,.84.38.84.85s-.38.85-.84.85ZM954.5,266.62h-3.38c-.46,0-.84-.38-.84-.85s.38-.85.84-.85h3.38c.46,0,.84.38.84.85s-.38.85-.84.85ZM947.75,266.62h-3.38c-.46,0-.84-.38-.84-.85s.38-.85.84-.85h3.38c.46,0,.84.38.84.85s-.38.85-.84.85ZM941,266.62h-3.38c-.46,0-.84-.38-.84-.85s.38-.85.84-.85h3.38c.46,0,.84.38.84.85s-.38.85-.84.85ZM934.25,266.62h-3.38c-.46,0-.84-.38-.84-.85s.38-.85.84-.85h3.38c.46,0,.84.38.84.85s-.38.85-.84.85ZM927.5,266.62h-3.38c-.46,0-.84-.38-.84-.85s.38-.85.84-.85h3.38c.46,0,.84.38.84.85s-.38.85-.84.85ZM920.75,266.62h-3.38c-.46,0-.84-.38-.84-.85s.38-.85.84-.85h3.38c.46,0,.84.38.84.85s-.38.85-.84.85ZM914,266.62h-3.38c-.46,0-.84-.38-.84-.85s.38-.85.84-.85h3.38c.46,0,.84.38.84.85s-.38.85-.84.85ZM907.25,266.62h-3.38c-.46,0-.84-.38-.84-.85s.38-.85.84-.85h3.38c.46,0,.84.38.84.85s-.38.85-.84.85ZM900.5,266.62h-3.38c-.46,0-.84-.38-.84-.85s.38-.85.84-.85h3.38c.46,0,.84.38.84.85s-.38.85-.84.85ZM893.75,266.62h-3.38c-.46,0-.84-.38-.84-.85s.38-.85.84-.85h3.38c.46,0,.84.38.84.85s-.38.85-.84.85ZM887,266.62h-3.38c-.46,0-.84-.38-.84-.85s.38-.85.84-.85h3.38c.46,0,.84.38.84.85s-.38.85-.84.85ZM880.25,266.62h-3.38c-.46,0-.84-.38-.84-.85s.38-.85.84-.85h3.38c.46,0,.84.38.84.85s-.38.85-.84.85ZM873.5,266.62h-3.38c-.46,0-.84-.38-.84-.85s.38-.85.84-.85h3.38c.46,0,.84.38.84.85s-.38.85-.84.85ZM866.75,266.62h-3.38c-.46,0-.84-.38-.84-.85s.38-.85.84-.85h3.38c.46,0,.84.38.84.85s-.38.85-.84.85ZM860,266.62h-3.38c-.46,0-.84-.38-.84-.85s.38-.85.84-.85h3.38c.46,0,.84.38.84.85s-.38.85-.84.85ZM853.25,266.62h-3.38c-.46,0-.84-.38-.84-.85s.38-.85.84-.85h3.38c.46,0,.84.38.84.85s-.38.85-.84.85ZM846.5,266.62h-3.38c-.46,0-.84-.38-.84-.85s.38-.85.84-.85h3.38c.46,0,.84.38.84.85s-.38.85-.84.85ZM839.75,266.62h-3.38c-.46,0-.84-.38-.84-.85s.38-.85.84-.85h3.38c.46,0,.84.38.84.85s-.38.85-.84.85ZM833,266.62h-3.38c-.46,0-.84-.38-.84-.85s.38-.85.84-.85h3.38c.46,0,.84.38.84.85s-.38.85-.84.85ZM826.25,266.62h-3.38c-.46,0-.84-.38-.84-.85s.38-.85.84-.85h3.38c.46,0,.84.38.84.85s-.38.85-.84.85ZM819.5,266.62h-3.38c-.46,0-.84-.38-.84-.85s.38-.85.84-.85h3.38c.46,0,.84.38.84.85s-.38.85-.84.85ZM812.75,266.62h-3.38c-.47,0-.84-.38-.84-.85s.38-.85.84-.85h3.38c.46,0,.84.38.84.85s-.38.85-.84.85ZM806,266.62h-3.38c-.47,0-.84-.38-.84-.85s.38-.85.84-.85h3.38c.46,0,.84.38.84.85s-.38.85-.84.85ZM799.25,266.62h-3.38c-.46,0-.84-.38-.84-.85s.38-.85.84-.85h3.38c.46,0,.84.38.84.85s-.38.85-.84.85ZM792.5,266.62h-3.38c-.46,0-.84-.38-.84-.85s.38-.85.84-.85h3.38c.46,0,.84.38.84.85s-.38.85-.84.85ZM785.75,266.62h-3.38c-.46,0-.84-.38-.84-.85s.38-.85.84-.85h3.38c.46,0,.84.38.84.85s-.38.85-.84.85ZM779,266.62h-3.38c-.46,0-.84-.38-.84-.85s.38-.85.84-.85h3.38c.46,0,.84.38.84.85s-.38.85-.84.85ZM772.25,266.62h-3.38c-.46,0-.84-.38-.84-.85s.38-.85.84-.85h3.38c.46,0,.84.38.84.85s-.38.85-.84.85ZM765.5,266.62h-3.38c-.46,0-.84-.38-.84-.85s.38-.85.84-.85h3.38c.46,0,.84.38.84.85s-.38.85-.84.85ZM758.75,266.62h-3.38c-.46,0-.84-.38-.84-.85s.38-.85.84-.85h3.38c.46,0,.84.38.84.85s-.38.85-.84.85ZM752,266.62h-3.38c-.46,0-.84-.38-.84-.85s.38-.85.84-.85h3.38c.46,0,.84.38.84.85s-.38.85-.84.85ZM745.25,266.62h-3.38c-.46,0-.84-.38-.84-.85s.38-.85.84-.85h3.38c.46,0,.84.38.84.85s-.38.85-.84.85ZM738.5,266.62h-3.38c-.46,0-.84-.38-.84-.85s.38-.85.84-.85h3.38c.46,0,.84.38.84.85s-.38.85-.84.85ZM731.75,266.62h-3.38c-.46,0-.84-.38-.84-.85s.38-.85.84-.85h3.38c.46,0,.84.38.84.85s-.38.85-.84.85ZM725,266.62h-3.38c-.46,0-.84-.38-.84-.85s.38-.85.84-.85h3.38c.46,0,.84.38.84.85s-.38.85-.84.85ZM718.25,266.62h-3.38c-.46,0-.84-.38-.84-.85s.38-.85.84-.85h3.38c.46,0,.84.38.84.85s-.38.85-.84.85ZM711.5,266.62h-3.38c-.46,0-.84-.38-.84-.85s.38-.85.84-.85h3.38c.46,0,.84.38.84.85s-.38.85-.84.85ZM704.75,266.62h-3.38c-.46,0-.84-.38-.84-.85s.38-.85.84-.85h3.38c.46,0,.84.38.84.85s-.38.85-.84.85ZM698,266.62h-3.38c-.46,0-.84-.38-.84-.85s.38-.85.84-.85h3.38c.46,0,.84.38.84.85s-.38.85-.84.85ZM691.25,266.62h-3.38c-.46,0-.84-.38-.84-.85s.38-.85.84-.85h3.38c.46,0,.84.38.84.85s-.38.85-.84.85ZM684.5,266.62h-3.38c-.46,0-.84-.38-.84-.85s.38-.85.84-.85h3.38c.46,0,.84.38.84.85s-.38.85-.84.85ZM677.75,266.62h-3.38c-.46,0-.84-.38-.84-.85s.38-.85.84-.85h3.38c.46,0,.84.38.84.85s-.38.85-.84.85ZM671,266.62h-3.38c-.46,0-.84-.38-.84-.85s.38-.85.84-.85h3.38c.46,0,.84.38.84.85s-.38.85-.84.85ZM664.25,266.62h-3.38c-.46,0-.84-.38-.84-.85s.38-.85.84-.85h3.38c.46,0,.84.38.84.85s-.38.85-.84.85ZM657.5,266.62h-3.38c-.46,0-.84-.38-.84-.85s.38-.85.84-.85h3.38c.46,0,.84.38.84.85s-.38.85-.84.85ZM650.75,266.62h-3.38c-.46,0-.84-.38-.84-.85s.38-.85.84-.85h3.38c.46,0,.84.38.84.85s-.38.85-.84.85ZM644,266.62h-3.38c-.46,0-.84-.38-.84-.85s.38-.85.84-.85h3.38c.46,0,.84.38.84.85s-.38.85-.84.85ZM637.25,266.62h-3.38c-.46,0-.84-.38-.84-.85s.38-.85.84-.85h3.38c.46,0,.84.38.84.85s-.38.85-.84.85ZM630.5,266.62h-3.38c-.46,0-.84-.38-.84-.85s.38-.85.84-.85h3.38c.46,0,.84.38.84.85s-.38.85-.84.85ZM623.75,266.62h-3.38c-.46,0-.84-.38-.84-.85s.38-.85.84-.85h3.38c.46,0,.84.38.84.85s-.38.85-.84.85ZM617,266.62h-3.38c-.46,0-.84-.38-.84-.85s.38-.85.84-.85h3.38c.46,0,.84.38.84.85s-.38.85-.84.85ZM610.25,266.62h-3.38c-.46,0-.84-.38-.84-.85s.38-.85.84-.85h3.38c.46,0,.84.38.84.85s-.38.85-.84.85ZM603.5,266.62h-3.38c-.46,0-.84-.38-.84-.85s.38-.85.84-.85h3.38c.46,0,.84.38.84.85s-.38.85-.84.85ZM596.75,266.62h-3.38c-.46,0-.84-.38-.84-.85s.38-.85.84-.85h3.38c.46,0,.84.38.84.85s-.38.85-.84.85ZM590,266.62h-3.38c-.46,0-.84-.38-.84-.85s.38-.85.84-.85h3.38c.46,0,.84.38.84.85s-.38.85-.84.85ZM583.25,266.62h-3.38c-.46,0-.84-.38-.84-.85s.38-.85.84-.85h3.38c.46,0,.84.38.84.85s-.38.85-.84.85ZM576.5,266.62h-3.38c-.46,0-.84-.38-.84-.85s.38-.85.84-.85h3.38c.46,0,.84.38.84.85s-.38.85-.84.85ZM569.75,266.62h-3.38c-.46,0-.84-.38-.84-.85s.38-.85.84-.85h3.38c.46,0,.84.38.84.85s-.38.85-.84.85ZM563,266.62h-3.38c-.46,0-.84-.38-.84-.85s.38-.85.84-.85h3.38c.46,0,.84.38.84.85s-.38.85-.84.85ZM556.25,266.62h-3.38c-.47,0-.84-.38-.84-.85s.38-.85.84-.85h3.38c.46,0,.84.38.84.85s-.38.85-.84.85ZM549.5,266.62h-3.38c-.47,0-.84-.38-.84-.85s.38-.85.84-.85h3.38c.46,0,.84.38.84.85s-.38.85-.84.85ZM542.75,266.62h-3.38c-.46,0-.84-.38-.84-.85s.38-.85.84-.85h3.38c.46,0,.84.38.84.85s-.38.85-.84.85ZM536,266.62h-3.38c-.46,0-.84-.38-.84-.85s.38-.85.84-.85h3.38c.47,0,.84.38.84.85s-.38.85-.84.85ZM529.25,266.62h-3.38c-.46,0-.84-.38-.84-.85s.38-.85.84-.85h3.38c.47,0,.84.38.84.85s-.38.85-.84.85ZM522.5,266.62h-3.38c-.46,0-.84-.38-.84-.85s.38-.85.84-.85h3.38c.46,0,.84.38.84.85s-.38.85-.84.85ZM515.75,266.62h-3.38c-.46,0-.84-.38-.84-.85s.38-.85.84-.85h3.38c.46,0,.84.38.84.85s-.38.85-.84.85ZM509,266.62h-3.38c-.46,0-.84-.38-.84-.85s.38-.85.84-.85h3.38c.46,0,.84.38.84.85s-.38.85-.84.85ZM502.25,266.62h-3.38c-.46,0-.84-.38-.84-.85s.38-.85.84-.85h3.38c.46,0,.84.38.84.85s-.38.85-.84.85ZM1000.86,262.34c-.47,0-.85-.38-.85-.85v-3.38c0-.46.38-.85.85-.85s.84.38.84.85v3.38c0,.46-.38.85-.84.85ZM1000.86,255.58c-.47,0-.85-.38-.85-.85v-3.38c0-.46.38-.84.85-.84s.84.38.84.84v3.38c0,.46-.38.85-.84.85Z"/>
            <path class="cls-23" d="M712.39,477.15c194.16,0,351.55-12.56,351.55-28.06s-157.39-28.06-351.55-28.06-351.55,12.56-351.55,28.06,157.39,28.06,351.55,28.06Z"/>
            <path class="cls-22" d="M1000.85,245.38c20,0,36.22-16.24,36.22-36.27s-16.22-36.27-36.22-36.27-36.22,16.24-36.22,36.27,16.22,36.27,36.22,36.27Z"/>
            <path class="cls-15" d="M1000.85,238.4c16.15,0,29.25-13.12,29.25-29.29s-13.1-29.3-29.25-29.3-29.26,13.12-29.26,29.3,13.1,29.29,29.26,29.29Z"/>
            <path class="cls-11" d="M987.26,207.79c-2.88,0-5.16-1.56-5.16-4.04,0-1.89,1.54-3.09,2.74-3.34-1.05-.31-2.28-1.49-2.28-3.03,0-2.14,1.93-3.89,4.69-3.89s4.66,1.78,4.66,3.89c0,1.55-1.21,2.72-2.24,3.03,1.21.25,2.74,1.45,2.74,3.34,0,2.47-2.28,4.04-5.15,4.04h0ZM987.26,201.81c-1.3,0-2.24.75-2.24,1.77s.91,1.71,2.24,1.71,2.24-.74,2.24-1.71-.95-1.77-2.24-1.77ZM987.26,195.98c-1.05,0-1.83.6-1.83,1.47,0,.95.82,1.61,1.83,1.61s1.83-.63,1.83-1.56c0-.87-.75-1.53-1.83-1.53Z"/>
            <path class="cls-11" d="M993.47,203.49h2.98c.12,1.08.73,1.71,1.98,1.71s1.98-.92,1.98-2.17-.73-2.15-2.03-2.15c-.95,0-1.55.41-1.91.91h-2.74l.4-7.93h8.58v2.59h-5.83l-.15,2.55c.58-.35,1.32-.57,2.18-.57,2.67,0,4.46,1.71,4.46,4.6s-2.13,4.73-4.92,4.73c-2.95,0-4.74-1.66-4.96-4.28Z"/>
            <path class="cls-11" d="M1011.39,196.84c0,1.85-1.37,3.2-3.35,3.2s-3.34-1.35-3.34-3.2,1.37-3.22,3.34-3.22,3.35,1.35,3.35,3.22ZM1008.72,207.46h-2.28l8.99-13.59h2.28l-8.99,13.59ZM1006.75,196.84c0,.74.54,1.28,1.29,1.28s1.28-.55,1.28-1.28-.53-1.29-1.28-1.29-1.29.55-1.29,1.29ZM1019.44,204.49c0,1.85-1.37,3.2-3.35,3.2s-3.34-1.35-3.34-3.2,1.37-3.22,3.34-3.22,3.35,1.35,3.35,3.22ZM1014.8,204.49c0,.74.53,1.28,1.29,1.28s1.28-.55,1.28-1.28-.53-1.29-1.28-1.29-1.29.55-1.29,1.29Z"/>
            <path class="cls-16" d="M981.73,214.27h38.25"/>
            <path class="cls-16" d="M981.73,221.68h38.25"/>
            <path class="cls-12" d="M849.9,388.53c10.15,0,18.38-8.24,18.38-18.4s-8.23-18.4-18.38-18.4-18.38,8.24-18.38,18.4,8.23,18.4,18.38,18.4Z"/>
            <path class="cls-11" d="M1077.59,445.19c3.24,2.96,1.14,8.37-3.24,8.37h-47.13v-32.2h7.08c2.97,0,5.95-.45,8.8-1.3,9.22-2.71,13.81,2.03,15.94,5.79,1.74,3.08,3.84,5.94,6.45,8.32l12.09,11.04h.01Z"/>
            <path class="cls-6" d="M881.73,379.56l-8.87-15.24-3.09-5.29,49.92-27.32s3.36-23.34,10.93-44.24c.68.96,1.27,1.96,1.7,2.96l22.23-32.82-2.25-1.3c1.33-.55,2.71-.9,4.14-1.04,26.1-2.48,91.72,67.24,82.27,148.93,0,0-.88-.63-2.55-1.69-9.53-6.02-44.6-25.83-86.97-20.93-1.14.13-2.27.29-3.41.45,0,0,.35-10.38-2.06-24.66-2.73,2.21-5.7,4.1-8.89,5.62l-48.98,23.64-4.13-7.07h0Z"/>
            <path class="cls-9" d="M1023.94,418.29v.02h3.27v36.72h-113.04c-5.91,0-11.27-2.41-15.15-6.29-3.87-3.88-6.28-9.27-6.28-15.19,0-6.88,3.29-13.33,8.85-17.36l47.6-34.59c42.36-4.9,77.45,14.9,86.97,20.93-3.07,7.01-7.37,12.09-12.21,15.78h0Z"/>
            <path class="cls-6" d="M954.55,257.62l-22.23,32.82c-.43-1.01-1.02-2.01-1.7-2.96v-.02c5.18-14.27,12.31-27.39,21.68-31.15l2.25,1.3Z"/>
            <path class="cls-2" d="M926.77,253.24s7.5,4.12,13.97-3.65l11.56,6.73c-9.37,3.76-16.5,16.88-21.68,31.15-3.69-5.21-10.04-9.39-10.04-9.39-2.71,3.41-6.36,6.01-10.51,7.34-11.78,3.79-18.21-5.77-19.64-9.6-.24-.67-.97-.97-1.62-.73-.46.18-.92.3-1.32.35-1.92.37-3.71-1.28-3.36-3.23.25-1.35.15-2.85-.08-4.25-.53-3.03-1.87-5.87-3.71-8.33-6.65-8.88-5.04-17.57-2.25-23.57.7-1.52,1.48-2.88,2.22-4,1.67-2.54,4.5-4.1,7.54-4.06.02.02.03.02.07.02,2.56.05,4.88.99,8.45-.53,0,0-3.53,7.72-.24,11.93,2.42,3.09,10.52,3.09,14.61,5.42.39-4.12,3.36-7.7,7.59-8.69,5.28-1.21,10.52,2.1,11.73,7.39.85,3.72-.53,7.43-3.27,9.7h0Z"/>
            <path class="cls-11" d="M935.78,240.65c1.21,6.18,4.96,8.93,4.96,8.93-6.46,7.77-13.97,3.65-13.97,3.65,2.74-2.27,4.13-5.99,3.27-9.7-1.21-5.29-6.45-8.6-11.73-7.39-4.23.99-7.2,4.56-7.59,8.69-4.09-2.32-12.19-2.32-14.61-5.42-3.29-4.22.24-11.93.24-11.93-3.58,1.52-5.9.58-8.45.53-.03,0-.05,0-.07-.02-3.04-.03-5.86,1.52-7.53,4.07-.74,1.12-1.52,2.48-2.22,4-4.18-4.52-.97-12.26,12.33-20.78,13.28-8.5,20.88-1.82,20.88-1.82,21.33-.62,23.27,21.05,24.48,27.2Z"/>
            <path class="cls-2" d="M844.36,385.36c-.73-.53-1.24-1.39-1.3-2.39-.12-1.71,1.09-3.24,2.79-3.5l2.22-.36c1.28-.19,2.47-.73,3.46-1.57l2.12-1.81c.67-.57,1.19-1.25,1.64-2.01,3.32-5.72,8.18-6.73,10.98-6.76,1.69-.03,3.32-.57,4.76-1.49l1.84-1.17,8.87,15.24-1,.6c-1.72,1.06-3.43,2.15-5.08,3.31l-12.26,8.55c-2.46,1.71-5.43,2.53-8.4,2.29l-9.89-.73c-2.83-.22-5.49-1.33-7.62-3.21l-3.14-2.78c-1.35-1.19-1.53-3.24-.41-4.65.67-.84,1.65-1.27,2.66-1.27.68,0,1.37.22,1.97.65l4.36,3.16,1.45-.12h0Z"/>
            <path class="cls-13" d="M952.3,256.31l-11.56-6.72"/>
            <path class="cls-13" d="M910.73,244.82c-4.09-2.32-12.19-2.32-14.61-5.42-3.29-4.22.24-11.93.24-11.93-3.58,1.52-5.9.58-8.45.53-.03,0-.05,0-.07-.02-3.04-.03-5.86,1.52-7.54,4.06-.73,1.12-1.52,2.48-2.22,4-2.79,6.01-4.4,14.69,2.25,23.57,1.84,2.46,3.17,5.31,3.71,8.33.24,1.4.34,2.9.08,4.25-.35,1.94,1.43,3.6,3.36,3.23.4-.05.85-.17,1.32-.35.65-.24,1.38.07,1.62.73,1.43,3.83,7.87,13.4,19.64,9.6,4.14-1.33,7.8-3.93,10.51-7.34,0,0,6.35,4.18,10.04,9.39"/>
            <path class="cls-13" d="M926.77,253.24s7.5,4.12,13.97-3.65c0,0-3.76-2.76-4.96-8.93-1.22-6.16-3.15-27.82-24.48-27.2,0,0-7.6-6.68-20.88,1.82-13.3,8.52-16.5,16.26-12.33,20.78"/>
            <path class="cls-13" d="M901.03,263.39s6.46-.62,10.01,7"/>
            <path class="cls-21" d="M894.3,278.48s6.5-1.54,9.75-9.08"/>
            <path class="cls-13" d="M910.95,247.9c-.24-1.04-.3-2.08-.22-3.08.39-4.11,3.36-7.7,7.59-8.69,5.28-1.21,10.52,2.1,11.73,7.39.85,3.72-.53,7.43-3.27,9.7-1.14.97-2.54,1.69-4.09,2.04"/>
            <path class="cls-13" d="M976.27,302.79l-20.51,39.83c-2.95,5.74-7.06,10.76-12.02,14.75-2.73,2.21-5.7,4.1-8.89,5.62l-48.98,23.64-4.13-7.07-8.87-15.24-3.09-5.29,49.92-27.32s3.36-23.34,10.93-44.24v-.02c5.18-14.27,12.31-27.39,21.68-31.15,1.33-.55,2.71-.9,4.14-1.04,26.1-2.48,91.72,67.24,82.27,148.93,0,0-.88-.63-2.55-1.69-9.53-6.02-44.61-25.83-86.97-20.93-1.14.13-2.27.29-3.41.45,0,0,.35-10.38-2.06-24.66"/>
            <path class="cls-13" d="M951.63,434.52l19.56-4.73c6.82-1.64,13.79-2.39,20.82-2.27,8.35.15,21.41-1.19,31.93-9.22,4.84-3.68,9.14-8.76,12.21-15.78"/>
            <path class="cls-13" d="M949.19,381.59l-47.6,34.59c-5.56,4.03-8.85,10.49-8.85,17.36,0,5.92,2.41,11.31,6.28,15.19,3.87,3.88,9.24,6.29,15.15,6.29h113.04v-36.72h-3.27"/>
            <path class="cls-13" d="M1027.21,453.55h47.13c4.38,0,6.48-5.4,3.24-8.37l-12.09-11.04c-2.61-2.37-4.71-5.24-6.45-8.31-2.12-3.76-6.72-8.5-15.94-5.79-2.86.85-5.83,1.3-8.8,1.3h-7.08"/>
            <path class="cls-13" d="M872.87,364.32l-1.84,1.17c-1.43.92-3.07,1.45-4.76,1.49-2.79.03-7.65,1.04-10.98,6.76-.45.75-.97,1.44-1.64,2.01l-2.12,1.81c-.99.84-2.17,1.39-3.46,1.57l-2.22.36c-1.7.25-2.9,1.79-2.79,3.5.07,1.01.57,1.86,1.3,2.39.55.41,1.25.67,1.99.67.14,0,.25,0,.37-.02l3.32-.37c1.37-.15,2.72-.45,4.03-.92l3.89-1.37c1.47-.52,2.88-1.23,4.18-2.1l3.92-2.68"/>
            <path class="cls-13" d="M881.73,379.56l-1,.6c-1.72,1.06-3.43,2.15-5.08,3.31l-12.26,8.55c-2.46,1.71-5.43,2.53-8.4,2.29l-9.89-.73c-2.83-.22-5.49-1.33-7.62-3.21l-3.14-2.78c-1.35-1.19-1.53-3.24-.41-4.65.67-.84,1.65-1.27,2.66-1.27.68,0,1.37.22,1.97.65l4.36,3.16,1.45-.12"/>
            <path class="cls-7" d="M890.25,263.79c.92-.62.92-2.24,0-3.63-.92-1.39-2.42-2.02-3.35-1.4-.92.62-.92,2.24,0,3.63.92,1.39,2.42,2.02,3.35,1.4Z"/>
            <path class="cls-13" d="M882.03,254.78s1.23-3.44,5.85-2.42"/>
            <path class="cls-13" d="M917.62,248.98s-.8-5.88,5.15-6.61"/>
            <path class="cls-13" d="M982.48,382.41s-3.43,7.66,3.86,15.6"/>
            <path class="cls-13" d="M1013,424.22v30.81"/>
            <path class="cls-13" d="M922.99,332.49s5.45.19,8.65,6.59"/>
            <path class="cls-13" d="M884.59,350.92l16.88,28.18"/>
            <path class="cls-12" d="M880.03,362.01c.94,0,1.7-.76,1.7-1.71s-.76-1.71-1.7-1.71-1.7.76-1.7,1.71.76,1.71,1.7,1.71Z"/>
            <path class="cls-8" d="M418.62,364.4c-3.72,2.2-6.46,5.98-6.72,6.33-4.28-7.3-3.75-15.09-2.5-20.48.33-1.37,2.32-1.3,2.5.1.84,6.56,3.77,11.09,6.72,14.05Z"/>
            <path class="cls-11" d="M418.62,364.4c3.52,3.56,7.03,4.91,7.03,4.91-3.55,1.89-6.25,4.88-7.9,8.32-2.57-2.19-4.47-4.53-5.86-6.9.26-.35,3-4.13,6.72-6.33h0Z"/>
            <path class="cls-11" d="M496.51,344.09c-1.73-2.86-4.88-4.75-8.47-4.75-1.07,0-2.13.19-3.1.51-.38-.33-.74-.69-1.07-1.09,11.19-8.37,20.55-6.52,27.62-1.56-4.26,5.08-14.96,6.89-14.96,6.89l-.02.02h0Z"/>
            <path class="cls-4" d="M517.29,342.39c.57.64,1.18,1.2,1.78,1.68-4.19,3.95-6.1,7.28-6.96,9.66-.78,2.15-3.1,3.3-5.28,2.65l-9.75-2.85c.61-1.28.94-2.7.94-4.22,0-1.93-.56-3.73-1.51-5.24l.02-.02s10.71-1.8,14.96-6.89c2.15,1.51,4.08,3.31,5.8,5.21h0Z"/>
            <path class="cls-11" d="M479.25,363.22c-3.19-4.82-4.26-10.37-2.37-15.56.41.18.83.33,1.28.46-.03.4-.07.79-.07,1.2,0,5.52,4.47,9.99,9.96,9.99,4,0,7.47-2.36,9.04-5.78l9.75,2.85c2.19.64,4.51-.51,5.28-2.65.87-2.37,2.77-5.7,6.96-9.66,4.13,3.4,8.82,3.8,12.06,3.52,2.29-.18,4.23,1.67,4.07,3.94-1.14,17.4-17.16,25.1-31.44,24.58-3.64-.12-7.15-.78-10.29-1.96-6.18-2.32-11.19-6.28-14.23-10.93h0Z"/>
            <path class="cls-11" d="M489.85,406.17s7.39-1.7,12.31-10.68c-1.18,5.58-4.36,11.98-11.98,15.77-.21-1.75-.31-3.45-.33-5.08h0Z"/>
            <path class="cls-11" d="M502.47,385.65c.35,1.77.61,5.57-.31,9.84-4.92,8.98-12.31,10.68-12.31,10.68-.03-3.35.28-6.44.78-9.23,1.02-5.64-1.82-10.93-6.45-13.32l2.93-5.78v-.02c3.95,2.11,8.97,3.54,15.05,2.95-.12,1.32-.05,2.93.31,4.88Z"/>
            <path class="cls-8" d="M503.77,376.13s-1.32,1.39-1.61,4.65c-6.08.59-11.1-.84-15.05-2.95-7.45-3.95-11.17-10.35-11.17-10.35,2.67-2.1,3.31-4.25,3.31-4.25,3.05,4.65,8.05,8.6,14.23,10.93,3.14,1.18,6.65,1.84,10.29,1.96v.02h0Z"/>
            <path class="cls-11" d="M487.1,377.83v.02l-2.93,5.78c-1.8-.94-3.9-1.44-6.13-1.33l-.48.02c-7.39.35-12.9,7.15-11.5,14.43-10.15.4-22.08-4.46-22.08-4.46-3.7-15.94-19.52-18.21-27.8-9.94.33-1.61.85-3.21,1.58-4.7,1.64-3.45,4.35-6.44,7.9-8.32,2.7-1.45,5.91-2.27,9.53-2.2,4.79.1,9,1.14,11.76,2.01,4.1,1.3,8.35,2.19,12.64,2.36,8.64.33,13.58-1.83,16.35-4.01,0,0,3.72,6.4,11.17,10.35Z"/>
            <path class="cls-11" d="M444.16,393.02c-.05-.26-.1-.51-.18-.74,0,0,11.93,4.86,22.08,4.46,1.3,6.8,3.29,12.73,5.53,17.81-7.7-.26-17.29-1.99-29.15-5.83,2.01-4.3,2.98-9.52,1.71-15.7h0Z"/>
            <path class="cls-11" d="M506.3,441.43c0,.58-.03,1.14-.1,1.72-.9-.03-1.63-.78-1.63-1.72,0-5.26-3.43-9.71-8.18-11.25-.4-.69-.76-1.39-1.09-2.08,6.27,1.2,10.99,6.73,10.99,13.33Z"/>
            <path class="cls-11" d="M498.27,433.34l-11.1,3.9s-1.37-1.17-3.44-3.49c2.17-2.55,5.4-4.18,9-4.18,1.27,0,2.5.21,3.65.59.57,1.04,1.21,2.11,1.89,3.18Z"/>
            <path class="cls-11" d="M494.39,426.22c7.67.81,13.64,7.32,13.64,15.21,0,.97-.76,1.73-1.73,1.73-.03,0-.07,0-.1-.02.07-.57.1-1.14.1-1.72,0-6.61-4.73-12.14-10.99-13.33-.33-.62-.64-1.25-.92-1.88Z"/>
            <path class="cls-11" d="M498.02,349.33c0,1.51-.33,2.93-.94,4.22-1.58,3.41-5.04,5.78-9.04,5.78-5.49,0-9.96-4.48-9.96-9.99,0-.4.03-.79.07-1.2-.45-.14-.87-.3-1.28-.46,1.1-3.12,3.29-6.13,6.76-8.75.08-.07.15-.12.24-.18.33.4.69.76,1.07,1.09.97-.31,2.03-.51,3.1-.51,3.59,0,6.73,1.89,8.47,4.75.95,1.51,1.51,3.31,1.51,5.24h0Z"/>
            <path class="cls-11" d="M494.39,426.22c-.54-.07-1.09-.1-1.65-.1-4.46,0-8.45,1.91-11.26,4.96-2.73-3.43-6.04-8.29-9-14.57,0,0,10.91,1.3,17.92-3.51.64,4.18,1.89,8.62,3.98,13.21Z"/>
            <path class="cls-11" d="M492.74,442.73c.72,0,1.3-.58,1.3-1.3s-.58-1.3-1.3-1.3-1.3.58-1.3,1.3.58,1.3,1.3,1.3Z"/>
            <path class="cls-11" d="M492.74,440.13c-.71,0-1.3.59-1.3,1.3s.59,1.3,1.3,1.3,1.3-.57,1.3-1.3-.59-1.3-1.3-1.3ZM487.18,437.25l11.1-3.9c-.67-1.06-1.32-2.13-1.89-3.18,4.74,1.55,8.18,6,8.18,11.26,0,.94.73,1.68,1.63,1.71-.85,6.69-6.53,11.88-13.46,11.88s-12.61-5.19-13.46-11.88c.9-.03,1.63-.78,1.63-1.71,0-2.91,1.07-5.6,2.83-7.66,2.08,2.32,3.44,3.49,3.44,3.49Z"/>
            <path class="cls-11" d="M484.18,383.62c4.62,2.39,7.47,7.68,6.45,13.32-.51,2.79-.81,5.88-.78,9.23.02,1.63.12,3.33.33,5.08-4.49,2.24-10.51,3.57-18.58,3.29-2.24-5.08-4.23-11.01-5.53-17.81-1.4-7.28,4.1-14.09,11.5-14.43l.48-.02c2.24-.1,4.33.4,6.13,1.33h0Z"/>
            <path class="cls-11" d="M492.74,426.11c.56,0,1.11.03,1.65.1.28.62.59,1.25.92,1.88-.83-.15-1.68-.24-2.56-.24-4.03,0-7.67,1.77-10.15,4.58-.36-.43-.74-.89-1.1-1.35,2.81-3.05,6.81-4.96,11.26-4.96Z"/>
            <path class="cls-11" d="M492.74,427.85c.89,0,1.73.08,2.56.24.33.69.69,1.39,1.09,2.08-1.17-.38-2.39-.59-3.65-.59-3.6,0-6.84,1.63-9,4.18-.36-.4-.74-.85-1.14-1.34,2.48-2.81,6.12-4.58,10.15-4.58h0Z"/>
            <path class="cls-11" d="M483.87,338.75c-.08.05-.15.1-.24.18-3.47,2.62-5.65,5.62-6.76,8.75-11.9-4.8-10.56-18.03-9.03-24.71.49-2.13,2.89-3.14,4.78-2.05,6.03,3.47,9.59,7.47,9.48,12.84-.03,2.1.71,3.73,1.76,4.99h0Z"/>
            <path class="cls-11" d="M482.59,432.43c.4.48.78.94,1.14,1.34-1.75,2.06-2.83,4.75-2.83,7.66,0,.94-.73,1.68-1.63,1.72-.07-.56-.1-1.12-.1-1.72,0-3.45,1.28-6.61,3.41-9h0Z"/>
            <path class="cls-11" d="M482.59,432.43c-2.13,2.39-3.41,5.55-3.41,9,0,.59.03,1.17.1,1.72-.03.02-.07.02-.1.02-.97,0-1.73-.76-1.73-1.73,0-3.99,1.54-7.63,4.03-10.35.36.46.74.92,1.1,1.35Z"/>
            <path class="cls-11" d="M490.39,413c-7.01,4.81-17.92,3.51-17.92,3.51-.29-.64-.61-1.28-.89-1.96,8.08.28,14.1-1.06,18.58-3.29.05.57.14,1.17.23,1.75Z"/>
            <path class="cls-11" d="M443.98,392.28c.07.24.12.48.18.74,1.27,6.18.29,11.4-1.71,15.7h-.02l-3.31-1.11c-6.35-1.67-11.19-3.84-14.82-6.26-7.1-4.71-9.43-12.23-8.11-19.01,8.28-8.27,24.09-6,27.8,9.94h0Z"/>
            <path class="cls-11" d="M439.12,407.61l3.31,1.11c-1.73,3.69-4.23,6.71-6.73,9.05-11.05.45-20.38-6.08-20.91-6.47.28-1.8-.1-3.71-1.16-5.34-4.08-6.36-2.22-14.1-2.22-14.1.69-3.97,2.42-7.18,4.78-9.52-1.32,6.79,1,14.29,8.11,19.01,3.64,2.43,8.47,4.6,14.82,6.26h0Z"/>
            <path class="cls-11" d="M414.79,411.3c.52.38,9.86,6.92,20.91,6.47-1.43,1.35-2.88,2.48-4.18,3.4-2.15,1.51-3.39,3.85-3.54,6.35-1.96-.9-4.1-1.4-6.39-1.4-2.98,0-5.75.85-8.11,2.32l-2.2-4.77c-1.26-2.74-.72-5.97,1.35-8.15l.18-.18c1.09-1.14,1.75-2.57,1.97-4.04Z"/>
            <path class="cls-11" d="M433.42,441.43c0,.94.73,1.68,1.63,1.72-.85,6.69-6.55,11.88-13.46,11.88s-12.62-5.19-13.48-11.88c.9-.03,1.63-.78,1.63-1.72,0-4.07,2.06-7.66,5.21-9.8l4.18,9.09h1.37c-.14.21-.21.45-.21.71,0,.73.57,1.3,1.3,1.3s1.3-.57,1.3-1.3c0-.26-.08-.51-.21-.71h8.88l-2.7-8.6c2.77,2.17,4.56,5.54,4.56,9.31Z"/>
            <path class="cls-11" d="M427.98,427.52c5.25,2.43,8.9,7.76,8.9,13.91,0,.97-.78,1.73-1.73,1.73-.03,0-.07,0-.1-.02.07-.57.1-1.14.1-1.72,0-5.12-2.84-9.59-7.03-11.9-.14-.68-.18-1.35-.14-2.01h0Z"/>
            <path class="cls-11" d="M435.14,441.43c0,.58-.03,1.14-.1,1.72-.9-.03-1.63-.78-1.63-1.72,0-3.78-1.78-7.15-4.56-9.31l-.52-1.66c-.1-.31-.18-.61-.23-.92,4.19,2.31,7.03,6.78,7.03,11.9h0Z"/>
            <path class="cls-11" d="M428.86,432.12l2.7,8.6h-8.9c-.23-.35-.62-.59-1.07-.59s-.87.24-1.09.59h-1.37l-4.18-9.09c1.89-1.3,4.18-2.04,6.63-2.04,2.73,0,5.28.95,7.27,2.53Z"/>
            <path class="cls-11" d="M422.89,441.43c0,.73-.59,1.3-1.3,1.3s-1.3-.57-1.3-1.3c0-.26.07-.51.21-.71h2.19c.12.21.21.45.21.71h0Z"/>
            <path class="cls-11" d="M422.67,440.72h-2.17c.23-.35.62-.59,1.09-.59s.85.24,1.07.59h0Z"/>
            <path class="cls-11" d="M414.21,430.03c2.11-1.39,4.66-2.19,7.38-2.19,2.37,0,4.59.61,6.53,1.68.05.31.12.61.23.92l.52,1.67c-1.99-1.58-4.54-2.54-7.27-2.54-2.45,0-4.74.74-6.63,2.04l-.74-1.6h0Z"/>
            <path class="cls-11" d="M421.59,427.85c-2.72,0-5.26.79-7.38,2.19l-.73-1.6c2.35-1.47,5.13-2.32,8.11-2.32,2.29,0,4.43.51,6.39,1.4-.03.66,0,1.33.14,2.01-1.94-1.07-4.16-1.68-6.53-1.68Z"/>
            <path class="cls-11" d="M414.95,431.63c-3.16,2.13-5.21,5.72-5.21,9.8,0,.94-.73,1.68-1.63,1.72-.07-.56-.1-1.12-.1-1.72,0-4.77,2.45-8.96,6.2-11.4l.74,1.6Z"/>
            <path class="cls-11" d="M414.21,430.03c-3.74,2.42-6.2,6.62-6.2,11.4,0,.59.03,1.17.1,1.72-.03.02-.07.02-.1.02-.95,0-1.73-.76-1.73-1.73,0-5.47,2.88-10.28,7.21-12.99l.73,1.6h0Z"/>
            <path class="cls-13" d="M476.87,347.66c-1.89,5.19-.81,10.74,2.37,15.56,3.05,4.65,8.05,8.6,14.23,10.93,3.14,1.18,6.65,1.84,10.29,1.96,14.27.52,30.29-7.18,31.44-24.58.15-2.27-1.78-4.11-4.07-3.94-3.24.28-7.93-.12-12.06-3.52-.61-.48-1.22-1.04-1.78-1.68-1.71-1.89-3.65-3.69-5.81-5.21-7.06-4.96-16.44-6.82-27.62,1.56"/>
            <path class="cls-13" d="M490.17,411.25c7.62-3.78,10.81-10.18,11.98-15.77.92-4.27.66-8.06.31-9.84-.36-1.94-.43-3.56-.31-4.88.29-3.26,1.61-4.65,1.61-4.65"/>
            <path class="cls-13" d="M442.44,408.72c11.86,3.84,21.44,5.57,29.15,5.83"/>
            <path class="cls-13" d="M479.25,363.22s-.64,2.15-3.31,4.25c-2.77,2.19-7.7,4.34-16.35,4.01-4.29-.18-8.54-1.06-12.64-2.36-2.75-.87-6.98-1.91-11.76-2.01-3.62-.07-6.83.74-9.53,2.2-3.55,1.89-6.25,4.88-7.9,8.32-.73,1.5-1.25,3.08-1.58,4.7"/>
            <path class="cls-13" d="M427.98,427.52c.14-2.5,1.38-4.84,3.54-6.35,1.3-.92,2.73-2.04,4.18-3.4,2.52-2.34,5-5.36,6.73-9.05h.02c2.01-4.3,2.98-9.52,1.71-15.7-.05-.26-.1-.51-.18-.74-3.7-15.94-19.52-18.21-27.8-9.94-2.35,2.34-4.08,5.55-4.78,9.52,0,0-1.87,7.73,2.22,14.1,1.05,1.63,1.43,3.54,1.17,5.34-.23,1.47-.89,2.9-1.98,4.04l-.18.18c-2.08,2.19-2.62,5.41-1.35,8.15l2.2,4.77"/>
            <path class="cls-13" d="M481.48,431.07c-2.73-3.43-6.04-8.29-9-14.57-.29-.64-.61-1.28-.89-1.96-2.23-5.08-4.23-11.01-5.53-17.81-1.4-7.28,4.1-14.09,11.5-14.43l.48-.02c2.24-.1,4.33.4,6.13,1.33,4.62,2.39,7.47,7.68,6.45,13.32-.51,2.79-.81,5.88-.78,9.23.02,1.63.12,3.33.33,5.08.05.57.13,1.17.23,1.75.64,4.18,1.89,8.62,3.98,13.22"/>
            <path class="cls-13" d="M425.66,369.31s-3.52-1.35-7.03-4.91c-2.94-2.97-5.89-7.49-6.72-14.05-.18-1.4-2.17-1.47-2.5-.1-1.27,5.39-1.78,13.18,2.5,20.48,1.38,2.37,3.29,4.71,5.86,6.9"/>
            <path class="cls-13" d="M496.51,344.09c-1.73-2.86-4.88-4.75-8.47-4.75-1.07,0-2.13.19-3.1.51-.38-.33-.74-.69-1.07-1.09-1.06-1.27-1.8-2.9-1.76-4.99.1-5.38-3.44-9.37-9.48-12.84-1.89-1.09-4.29-.08-4.78,2.05-1.54,6.67-2.87,19.91,9.03,24.71.41.18.83.33,1.28.46-.03.4-.07.79-.07,1.2,0,5.52,4.47,9.99,9.96,9.99,4,0,7.47-2.36,9.04-5.78.61-1.29.94-2.7.94-4.22,0-1.93-.56-3.73-1.51-5.24Z"/>
            <path class="cls-13" d="M435.04,443.14c-.85,6.69-6.55,11.88-13.46,11.88s-12.62-5.19-13.48-11.88"/>
            <path class="cls-13" d="M427.98,427.52c5.25,2.43,8.9,7.76,8.9,13.91,0,.97-.78,1.73-1.73,1.73-.03,0-.07,0-.1-.02-.9-.03-1.63-.78-1.63-1.72,0-3.78-1.78-7.15-4.56-9.31-1.99-1.58-4.54-2.53-7.27-2.53-2.45,0-4.74.74-6.63,2.04-3.15,2.13-5.21,5.72-5.21,9.8,0,.94-.73,1.68-1.63,1.72-.03.02-.07.02-.1.02-.95,0-1.73-.76-1.73-1.73,0-5.47,2.88-10.28,7.21-12.99,2.35-1.47,5.13-2.32,8.11-2.32,2.29,0,4.43.51,6.39,1.4h0Z"/>
            <path class="cls-13" d="M422.68,440.72c.12.21.21.45.21.71,0,.73-.59,1.3-1.3,1.3s-1.3-.57-1.3-1.3c0-.26.07-.51.21-.71.23-.35.62-.59,1.09-.59s.85.24,1.07.59h.02Z"/>
            <path class="cls-13" d="M506.19,443.14c-.85,6.69-6.53,11.88-13.46,11.88s-12.61-5.19-13.46-11.88"/>
            <path class="cls-13" d="M494.39,426.22c7.67.81,13.64,7.32,13.64,15.21,0,.97-.76,1.73-1.73,1.73-.03,0-.07,0-.1-.02-.9-.03-1.63-.78-1.63-1.72,0-5.26-3.43-9.71-8.18-11.25-1.17-.38-2.39-.59-3.65-.59-3.6,0-6.84,1.63-9,4.18-1.75,2.06-2.83,4.75-2.83,7.66,0,.94-.73,1.68-1.63,1.72-.03.02-.07.02-.1.02-.97,0-1.73-.76-1.73-1.73,0-3.99,1.54-7.63,4.03-10.35,2.81-3.05,6.81-4.96,11.26-4.96.56,0,1.11.03,1.65.1Z"/>
            <path class="cls-13" d="M492.74,442.73c.72,0,1.3-.58,1.3-1.3s-.58-1.3-1.3-1.3-1.3.58-1.3,1.3.58,1.3,1.3,1.3Z"/>
            <path class="cls-13" d="M496.53,344.07s10.71-1.8,14.96-6.89"/>
            <path class="cls-13" d="M497.08,353.54l9.75,2.85c2.18.64,4.51-.51,5.28-2.65.87-2.37,2.77-5.7,6.96-9.66"/>
            <path class="cls-13" d="M475.93,367.47s3.72,6.4,11.17,10.35c3.95,2.11,8.97,3.54,15.05,2.95"/>
            <path class="cls-13" d="M443.98,392.28s11.93,4.86,22.08,4.46"/>
            <path class="cls-13" d="M489.85,406.17s7.39-1.7,12.31-10.68"/>
            <path class="cls-13" d="M472.47,416.5s10.91,1.3,17.92-3.51"/>
            <path class="cls-13" d="M414.77,411.3h.02c.52.38,9.86,6.92,20.91,6.47"/>
            <path class="cls-13" d="M411.91,370.75v-.02c.26-.35,3-4.13,6.72-6.33"/>
            <path class="cls-13" d="M487.1,377.84l-2.92,5.77"/>
            <path class="cls-18" d="M487.95,355.14c3.05,0,5.53-2.48,5.53-5.54s-2.47-5.54-5.53-5.54-5.53,2.48-5.53,5.54,2.47,5.54,5.53,5.54Z"/>
            <path class="cls-19" d="M528.28,349.88c-.19,1.56.85,3.57,6.57,4.67,0,0,3.32-7.62-3.85-7.11-1.34.09-2.55,1.1-2.71,2.43h0Z"/>
            <path class="cls-12" d="M510.81,344.27c-.51-1.06-1.77-1.5-2.83-.99-1.05.51-1.5,1.77-.99,2.83l1.1,2.29c.51,1.06,1.77,1.5,2.83.99,1.05-.51,1.5-1.77.99-2.83l-1.1-2.28Z"/>
            <path class="cls-18" d="M423.26,421.41c3.05,0,5.53-2.48,5.53-5.53s-2.47-5.54-5.53-5.54-5.53,2.48-5.53,5.54,2.47,5.53,5.53,5.53Z"/>
            <path class="cls-18" d="M482.07,421.41c3.05,0,5.53-2.48,5.53-5.53s-2.47-5.54-5.53-5.54-5.53,2.48-5.53,5.54,2.48,5.53,5.53,5.53Z"/>
            <path class="cls-22" d="M423.26,417.63c.97,0,1.75-.79,1.75-1.76s-.79-1.76-1.75-1.76-1.76.79-1.76,1.76.79,1.76,1.76,1.76Z"/>
            <path class="cls-22" d="M482.07,417.63c.97,0,1.76-.79,1.76-1.76s-.79-1.76-1.76-1.76-1.76.79-1.76,1.76.79,1.76,1.76,1.76Z"/>
            <path class="cls-22" d="M487.95,351.36c.97,0,1.76-.79,1.76-1.76s-.79-1.76-1.76-1.76-1.75.79-1.75,1.76.79,1.76,1.75,1.76Z"/>
            <path class="cls-7" d="M447.72,359.44c-.46,0-.84-.38-.84-.85v-3.38c0-.46.38-.85.84-.85s.84.38.84.85v3.38c0,.46-.38.85-.84.85ZM447.72,352.68c-.46,0-.84-.38-.84-.85v-3.38c0-.46.38-.85.84-.85s.84.38.84.85v3.38c0,.46-.38.85-.84.85ZM447.72,345.92c-.46,0-.84-.38-.84-.85v-3.38c0-.47.38-.85.84-.85s.84.38.84.85v3.38c0,.46-.38.85-.84.85ZM447.72,339.16c-.46,0-.84-.38-.84-.85v-3.38c0-.46.38-.85.84-.85s.84.38.84.85v3.38c0,.46-.38.85-.84.85ZM447.72,332.4c-.46,0-.84-.38-.84-.85v-3.38c0-.46.38-.85.84-.85s.84.38.84.85v3.38c0,.46-.38.85-.84.85ZM447.72,325.64c-.46,0-.84-.38-.84-.85v-3.38c0-.46.38-.84.84-.84s.84.38.84.84v3.38c0,.46-.38.85-.84.85ZM447.72,318.88c-.46,0-.84-.38-.84-.85v-3.38c0-.47.38-.85.84-.85s.84.38.84.85v3.38c0,.46-.38.85-.84.85ZM447.72,312.12c-.46,0-.84-.38-.84-.85v-3.38c0-.46.38-.85.84-.85s.84.38.84.85v3.38c0,.46-.38.85-.84.85ZM447.72,305.36c-.46,0-.84-.38-.84-.85v-3.38c0-.46.38-.85.84-.85s.84.38.84.85v3.38c0,.46-.38.85-.84.85ZM447.72,298.6c-.46,0-.84-.38-.84-.85v-3.38c0-.47.38-.85.84-.85s.84.38.84.85v3.38c0,.46-.38.85-.84.85ZM447.72,291.84c-.46,0-.84-.38-.84-.85v-3.38c0-.46.38-.85.84-.85s.84.38.84.85v3.38c0,.46-.38.85-.84.85ZM447.72,285.08c-.46,0-.84-.38-.84-.85v-3.38c0-.46.38-.85.84-.85s.84.38.84.85v3.38c0,.46-.38.85-.84.85ZM447.72,278.32c-.46,0-.84-.38-.84-.85v-3.38c0-.46.38-.84.84-.84s.84.38.84.84v3.38c0,.46-.38.85-.84.85ZM447.72,271.56c-.46,0-.84-.38-.84-.85v-3.38c0-.47.38-.85.84-.85s.84.38.84.85v3.38c0,.46-.38.85-.84.85ZM447.72,264.8c-.46,0-.84-.38-.84-.85v-3.38c0-.46.38-.85.84-.85s.84.38.84.85v3.38c0,.46-.38.85-.84.85ZM447.72,258.04c-.46,0-.84-.38-.84-.85v-3.38c0-.46.38-.84.84-.84s.84.38.84.84v3.38c0,.46-.38.85-.84.85ZM447.72,251.28c-.46,0-.84-.38-.84-.85v-3.38c0-.46.38-.85.84-.85s.84.38.84.85v3.38c0,.46-.38.85-.84.85ZM447.72,244.52c-.46,0-.84-.38-.84-.85v-3.38c0-.47.38-.85.84-.85s.84.38.84.85v3.38c0,.47-.38.85-.84.85ZM447.72,237.76c-.46,0-.84-.38-.84-.85v-3.38c0-.46.38-.85.84-.85s.84.38.84.85v3.38c0,.46-.38.85-.84.85ZM447.72,231c-.46,0-.84-.38-.84-.85v-3.38c0-.46.38-.85.84-.85s.84.38.84.85v3.38c0,.46-.38.85-.84.85ZM447.72,224.24c-.46,0-.84-.38-.84-.85v-1.71c0-.46.38-.85.84-.85s.84.38.84.85v1.71c0,.47-.38.85-.84.85Z"/>
            <path class="cls-23" d="M573.44,81.97h-156.48c-6.34,0-11.48,5.15-11.48,11.5v122.74c0,6.35,5.14,11.5,11.48,11.5h156.48c6.34,0,11.48-5.15,11.48-11.5v-122.74c0-6.35-5.14-11.5-11.48-11.5Z"/>
            <path class="cls-14" d="M455.5,165.62c18.58,0,33.63-15.08,33.63-33.68s-15.06-33.68-33.63-33.68-33.63,15.08-33.63,33.68,15.06,33.68,33.63,33.68Z"/>
            <path class="cls-10" d="M455.47,121.21s.24-7.02,9.41-7.02,12.82,6.35,11.45,15.33c-1.72,11.34-20.86,23.45-20.86,23.45"/>
            <path class="cls-13" d="M455.47,121.21s.24-7.02,9.41-7.02,12.82,6.35,11.45,15.33c-1.72,11.34-20.86,23.45-20.86,23.45"/>
            <path class="cls-10" d="M455.47,121.21s-.24-7.02-9.41-7.02-12.82,6.35-11.45,15.33c1.72,11.34,20.86,23.45,20.86,23.45"/>
            <path class="cls-13" d="M455.47,121.21s-.24-7.02-9.41-7.02-12.82,6.35-11.45,15.33c1.72,11.34,20.86,23.45,20.86,23.45"/>
            <path class="cls-21" d="M428.81,140.64h16.77l3.15-6.3,2.62,6.3,2.84-9.3,3.07,9.3,4.27-17.03,4.57,17.03h12.35"/>
            <path class="cls-18" d="M563.85,177.83h-137.31c-3.23,0-5.85,2.62-5.85,5.86v21.42c0,3.24,2.62,5.86,5.85,5.86h137.31c3.23,0,5.85-2.62,5.85-5.86v-21.42c0-3.24-2.62-5.86-5.85-5.86Z"/>
            <path class="cls-13" d="M502.92,133.58h66.78"/>
            <path class="cls-13" d="M502.92,119.14h66.78"/>
            <path class="cls-13" d="M502.92,104.71h66.78"/>
            <path class="cls-13" d="M502.92,162.92h66.78"/>
            <path class="cls-13" d="M502.92,148.48h66.78"/>
            <path class="cls-20" d="M430.52,197.14h12.41l4.77-12.46,5.83,19.46,3.26-9.73,1.44,2.94,4.13-10.54,6.14,15.66,3.45-7.85,2.19,3.03,2.19-3.24,2.14,3.07h3.95l2.69,6.36,4.27-19.16,4.19,12.38h8.09"/>
            <path class="cls-20" d="M496.19,197.05h6.93l2.77-12.38,5.83,19.46,3.26-9.73,1.44,2.94,4.14-10.54,6.14,15.66,3.45-7.85,2.19,3.03,2.19-3.24,2.13,3.07h3.95l2.7,6.36,4.26-19.16,4.2,12.38h8.08"/>
            <path class="cls-17" d="M638.95,47.85h-74.99c-4.07,0-7.37,3.3-7.37,7.38v105.19c0,4.08,3.3,7.38,7.37,7.38h74.99c4.07,0,7.37-3.3,7.37-7.38V55.22c0-4.07-3.3-7.38-7.37-7.38Z"/>
            <path class="cls-4" d="M602.36,112.76c-.3-.39-.65-.96-.94-1.73-.32-.87-.92-1.57-1.43-2.04-.55-.51-.89-1.18-.99-1.93-.53-4-1.48-7.14-2.17-9.06-.55-1.51-.82-3.11-.82-4.72,0-2.34-.06-5.79-.35-8.39-.47-4.33-6.18-4.68-8.03-5.59-1.51-.74-.75-3.08-.42-3.93.06-.15.2-.27.37-.27.3,0,.15-.3.83-1.2.56-.74.3-1.12.09-1.28-.12-.08-.17-.24-.15-.38.05-.51.07-.98.05-1.42-.26-5.69-8.83-5.69-9.09,0-.02.43,0,.9.05,1.42.02.14-.03.3-.15.38-.21.16-.46.53.09,1.28.67.9.52,1.2.83,1.2.17,0,.31.12.37.27.33.85,1.09,3.19-.42,3.93-1.85.9-7.55,1.24-8.03,5.59-.29,2.6-.34,6.05-.34,8.39,0,1.61-.28,3.21-.83,4.72-.69,1.91-1.64,5.05-2.17,9.06-.1.74-.45,1.42-.99,1.93-.51.46-1.11,1.17-1.43,2.04-.28.77-.63,1.34-.94,1.73-.19.25-.35.71-.35,1.03.18.24.52.26.74.07l1.05-.95.07,3.71c0,.46.38.82.83.82h.14v.52c0,.26.18.51.44.55.33.05.62-.2.62-.52h.22c.32,0,.57-.25.57-.57v-.43h.07c.54,0,.67-.39.76-.92l.28-1.35c.06-.4.52-1.33.69-1.69.28-.62.68-1.78.6-3.15-.03-.53.07-1.06.3-1.54,1.04-2.12,3.74-8.03,4.06-12.64l-.16,3.82c-.06,1.39-.21,2.77-.46,4.13-.62,3.38-1.6,11.31,1.18,18.75.14.36.21.75.21,1.14.43,2.1.54,4.26.32,6.4-.29,2.77-.32,7.43,1.47,12.81.25.77.35,1.57.31,2.38v.19c.02,1.29-.36,2.54-1,3.65l-.39.67c-.18.31.15.67.47.52h.02s.21.34.68.09c0,0,.28.35.66,0,0,0,.38.42.86-.02l.33-.42c.02.35.3.62.65.62h.27c.24,0,.45-.13.57-.33l.31-.56c.18-.33.26-.72.22-1.1-.09-.78-.08-1.56.09-2.32.07-.3.09-.68-.03-1.14-.14-.57-.25-1.14-.27-1.73-.05-1.53-.1-4.34.04-6.33.21-2.88.18-3.79-.26-5.61-.41-1.67.75-6.02.62-10.51-.02-.89,0-1.77.12-2.64l.46-3.46c.02-.14.23-.14.24,0l.46,3.46c.12.88.14,1.77.12,2.64-.13,4.5,1.03,8.84.62,10.51-.45,1.83-.47,2.72-.26,5.61.14,1.99.09,4.78.04,6.31-.02.6-.13,1.18-.27,1.76-.11.46-.08.84-.03,1.13.17.76.19,1.55.09,2.32-.04.38.03.76.22,1.1l.31.56c.12.2.33.33.57.33h.27c.35,0,.63-.27.65-.62l.33.42c.47.44.86.02.86.02.38.35.66,0,.66,0,.47.24.68-.1.68-.1h.02c.32.16.66-.19.47-.51l-.44-.75c-.64-1.11-.95-2.37-.95-3.65v-.17c-.04-.8.08-1.6.33-2.36,1.78-5.36,1.74-10,1.46-12.77-.22-2.14-.11-4.29.32-6.4,0-.39.08-.78.21-1.14,2.75-7.4,1.82-15.28,1.19-18.68-.25-1.39-.41-2.79-.47-4.2l-.16-3.82c.32,4.61,3.02,10.52,4.06,12.64.24.48.34,1,.3,1.54-.09,1.37.32,2.53.6,3.15.17.36.62,1.29.69,1.69l.28,1.35c.08.53.23.92.76.92h.07v.43c0,.32.25.57.57.57h.22c0,.3.24.53.53.53s.53-.24.53-.53v-.56h.13c.46,0,.82-.36.83-.82l.07-3.71,1.05.96c.22.2.56.17.74-.07,0-.31-.16-.78-.35-1.03h.02Z"/>
            <path class="cls-14" d="M616.44,67.88h-8.51v8.53h8.51v-8.53Z"/>
            <path class="cls-1" d="M617.53,65.46c-1.1.56-2.08,1.33-2.96,2.19-.89.86-1.65,1.87-2.27,2.94-.28.49-.53.99-.75,1.5-.02-.02-.02-.04-.03-.07-.4-.63-.87-1.2-1.43-1.67-1.09-.95-2.4-1.61-3.77-1.84,1.18.71,2.2,1.59,2.99,2.59.4.5.74,1.03.99,1.6.28.55.45,1.15.59,1.74.06.26.25.48.53.57.41.13.85-.1.98-.52l.02-.06c.3-.99.79-2.05,1.33-3.02.54-.98,1.19-1.9,1.92-2.75.17-.22.37-.42.57-.63.19-.2.37-.43.58-.62.41-.38.82-.79,1.27-1.14.88-.75,1.86-1.37,2.86-2.04-1.16.25-2.35.62-3.41,1.22h0Z"/>
            <path class="cls-16" d="M622.48,69.65h16.1"/>
            <path class="cls-16" d="M622.48,73h16.1"/>
            <path class="cls-14" d="M616.44,91.15h-8.51v8.53h8.51v-8.53Z"/>
            <path class="cls-1" d="M617.53,88.73c-1.1.56-2.08,1.33-2.96,2.19-.89.86-1.65,1.87-2.27,2.94-.28.49-.53.99-.75,1.5-.02-.02-.02-.04-.03-.07-.4-.63-.87-1.2-1.43-1.67-1.09-.95-2.4-1.61-3.77-1.84,1.18.71,2.2,1.59,2.99,2.59.4.5.74,1.03.99,1.6.28.55.45,1.15.59,1.74.06.26.25.48.53.57.41.13.85-.1.98-.52l.02-.06c.3-.99.79-2.05,1.33-3.02.54-.98,1.19-1.9,1.92-2.75.17-.22.37-.42.57-.63.19-.2.37-.43.58-.62.41-.38.82-.79,1.27-1.14.88-.75,1.86-1.37,2.86-2.04-1.16.25-2.35.62-3.41,1.22h0Z"/>
            <path class="cls-16" d="M622.48,92.92h16.1"/>
            <path class="cls-16" d="M622.48,96.27h16.1"/>
            <path class="cls-14" d="M616.44,114.42h-8.51v8.53h8.51v-8.53Z"/>
            <path class="cls-1" d="M617.53,112c-1.1.56-2.08,1.33-2.96,2.19-.89.86-1.65,1.87-2.27,2.94-.28.49-.53.99-.75,1.5-.02-.02-.02-.04-.03-.07-.4-.63-.87-1.2-1.43-1.67-1.09-.95-2.4-1.61-3.77-1.84,1.18.71,2.2,1.59,2.99,2.59.4.5.74,1.03.99,1.6.28.55.45,1.15.59,1.74.06.26.25.48.53.58.41.13.85-.1.98-.52l.02-.06c.3-.99.79-2.05,1.33-3.02.54-.98,1.19-1.9,1.92-2.75.17-.22.37-.42.57-.62.19-.2.37-.43.58-.62.41-.38.82-.79,1.27-1.14.88-.75,1.86-1.37,2.86-2.04-1.16.24-2.35.62-3.41,1.22h0Z"/>
            <path class="cls-16" d="M622.48,116.19h16.1"/>
            <path class="cls-16" d="M622.48,119.54h16.1"/>
            <path class="cls-14" d="M616.44,137.69h-8.51v8.53h8.51v-8.53Z"/>
            <path class="cls-1" d="M617.53,135.27c-1.1.56-2.08,1.33-2.96,2.19-.89.86-1.65,1.87-2.27,2.94-.28.49-.53.99-.75,1.5-.02-.02-.02-.04-.03-.07-.4-.62-.87-1.2-1.43-1.67-1.09-.96-2.4-1.6-3.77-1.84,1.18.71,2.2,1.59,2.99,2.59.4.5.74,1.03.99,1.6.28.55.45,1.15.59,1.74.06.26.25.48.53.58.41.13.85-.1.98-.52l.02-.06c.3-.99.79-2.05,1.33-3.02.54-.98,1.19-1.9,1.92-2.75.17-.22.37-.42.57-.63.19-.2.37-.43.58-.62.41-.38.82-.79,1.27-1.14.88-.75,1.86-1.37,2.86-2.04-1.16.25-2.35.62-3.41,1.22h0Z"/>
            <path class="cls-16" d="M622.48,139.46h16.1"/>
            <path class="cls-16" d="M622.48,142.81h16.1"/>
          </g>
        </g>
      </g>
    </g>
  </g>
</svg>