<?xml version="1.0" encoding="UTF-8"?>
<svg id="_레이어_1" data-name="레이어 1" xmlns="http://www.w3.org/2000/svg" xmlns:xlink="http://www.w3.org/1999/xlink" version="1.1" viewBox="0 0 475 475">
  <defs>
    <style>
      .cls-1 {
        clip-path: url(#clippath);
      }

      .cls-2, .cls-3, .cls-4, .cls-5, .cls-6, .cls-7, .cls-8, .cls-9, .cls-10, .cls-11, .cls-12, .cls-13, .cls-14 {
        stroke-width: 0px;
      }

      .cls-2, .cls-15, .cls-16 {
        fill: none;
      }

      .cls-3 {
        fill: #6172e8;
      }

      .cls-4 {
        fill: #edaba8;
      }

      .cls-17 {
        clip-path: url(#clippath-1);
      }

      .cls-18 {
        clip-path: url(#clippath-2);
      }

      .cls-15, .cls-16 {
        stroke: #3d2117;
      }

      .cls-5 {
        fill: #1ab476;
      }

      .cls-6 {
        fill: #3d2117;
      }

      .cls-7 {
        fill: #faccc7;
      }

      .cls-8 {
        fill: #c9d1de;
      }

      .cls-9 {
        fill: #fd8664;
      }

      .cls-10 {
        fill: #ffd9d4;
      }

      .cls-11 {
        fill: #75bd99;
      }

      .cls-12 {
        fill: #ff8f6b;
      }

      .cls-16 {
        stroke-width: 4px;
      }

      .cls-13 {
        fill: #fff;
      }

      .cls-14 {
        fill: #e5e5e5;
      }
    </style>
    <clipPath id="clippath">
      <rect class="cls-2" x="96.2" y="192.7" width="136" height="136"/>
    </clipPath>
    <clipPath id="clippath-1">
      <rect class="cls-2" x="96.2" y="192.7" width="136" height="136"/>
    </clipPath>
    <clipPath id="clippath-2">
      <rect class="cls-2" x="96.2" y="192.7" width="136" height="136"/>
    </clipPath>
  </defs>
  <rect class="cls-9" x="2" y="2" width="471" height="471" rx="14.2" ry="14.2"/>
  <rect class="cls-15" x="2" y="2" width="471" height="471" rx="14.2" ry="14.2"/>
  <rect class="cls-3" x="12" y="12" width="451" height="451" rx="14.2" ry="14.2"/>
  <rect class="cls-15" x="12" y="12" width="451" height="451" rx="14.2" ry="14.2"/>
  <g>
    <path class="cls-16" d="M163.4,93.4c0,3.9.6,6.7,1.9,8.6s3.3,2.8,5.9,2.8,4.5-.6,7.3-1.8c.2,0,.3,0,.4,0,.4,0,.7.3.9,1l.8,2.7c.2.7-.1,1.2-1,1.5-1.5.6-3,1.1-4.5,1.4s-2.9.5-4.3.5c-4.4,0-7.6-1.4-9.8-4.2-2.2-2.8-3.2-7-3.2-12.5s1.1-10,3.4-12.7c2.2-2.7,5.6-4,10.1-4s2.6,0,3.6,0c1,0,1.9.2,2.8.3.5,0,.8.2,1,.4s.3.5.3.9v2.9c0,.9-.4,1.3-1.2,1.2-1-.1-1.9-.2-2.8-.3s-2-.1-3.2-.1-2.8.2-3.8.6c-1.1.4-1.9,1.1-2.6,2-.7.9-1.1,2.1-1.4,3.6-.3,1.5-.5,3.2-.5,5.4ZM185.6,74.9c0-.9.4-1.3,1.2-1.3h3c.8,0,1.2.4,1.2,1.3v39.9c0,.9-.4,1.3-1.2,1.3h-3c-.8,0-1.2-.4-1.2-1.3v-39.9Z"/>
    <path class="cls-16" d="M199.2,111.6c-.8-.1-1.2-.6-1.2-1.3v-2.6c0-.9.4-1.2,1.3-1.2.9,0,1.9.2,3.1.3,1.2,0,2.5.2,3.8.3s2.8.2,4.2.2c1.4,0,2.8.1,4.2.1-.4-.2-.6-.4-.9-.8-.2-.4-.3-.8-.3-1.3v-4.5c-2.3,0-4.2-.3-5.7-.6-1.5-.3-2.8-.8-3.7-1.5-.9-.7-1.6-1.5-2-2.5s-.6-2.3-.6-3.7.3-2.8.8-3.8c.5-1,1.4-1.9,2.5-2.5,1.2-.6,2.7-1.1,4.6-1.4s4.2-.4,6.9-.4,5.2,0,7.4,0c2.2,0,4,.1,5.5.2.7,0,1.1.4,1.1,1.2v2.8c0,.8-.4,1.2-1.2,1.1-2.3-.2-4.6-.2-6.8-.3-2.2,0-4.4,0-6.4,0s-3.2,0-4.3.1c-1.1,0-2,.3-2.7.5-.7.2-1.2.5-1.4.9-.3.4-.4.9-.4,1.5s.2,1.2.5,1.6c.3.4.8.8,1.5,1,.7.3,1.7.4,2.9.6,1.2.1,2.7.2,4.4.2,2.8,0,5.3,0,7.4-.2,2.1-.1,4.1-.3,5.8-.5.8,0,1.2.2,1.3,1l.2,2.8c0,.7-.3,1.2-1.1,1.2-1.6.2-3.3.3-5,.4-1.7,0-3.6.2-5.8.2v4.9c0,1,.6,1.5,1.7,1.5s2.1,0,3.2,0,2.2,0,3.3-.1c1.1,0,2.1-.1,3.1-.2,1,0,1.9-.2,2.7-.3.9,0,1.3.3,1.3,1.2v2.6c0,.7-.4,1.2-1.2,1.3-.8.1-1.8.2-3,.3-1.2,0-2.5.2-4,.3-1.5,0-3.1.1-4.8.2-1.7,0-3.5,0-5.3,0-7.6,0-13.2-.3-16.8-.9ZM202.9,81.2c-.8,0-1.2-.4-1.2-1.2v-2.6c0-.8.4-1.2,1.2-1.2h26c.8,0,1.2.4,1.2,1.2v2.6c0,.8-.4,1.2-1.2,1.2h-26Z"/>
    <path class="cls-16" d="M241,111.6c-.8-.1-1.2-.6-1.2-1.3v-2.6c0-.9.4-1.2,1.3-1.2.9,0,1.9.2,3.1.3,1.2,0,2.5.2,3.8.3s2.8.2,4.2.2c1.4,0,2.8.1,4.2.1-.4-.2-.6-.4-.9-.8-.2-.4-.3-.8-.3-1.3v-5.5c0-.9.4-1.3,1.2-1.3h3c.8,0,1.2.4,1.2,1.3v6c0,1,.6,1.5,1.7,1.5s2.1,0,3.2,0,2.2,0,3.3-.1c1.1,0,2.1-.1,3.1-.2,1,0,1.9-.2,2.7-.3.9,0,1.3.3,1.3,1.2v2.6c0,.7-.4,1.2-1.2,1.3-.8.1-1.8.2-3,.3-1.2,0-2.5.2-4,.3-1.5,0-3.1.1-4.8.2-1.7,0-3.5,0-5.3,0-7.6,0-13.2-.3-16.8-.9ZM258.1,91.6c-.5,1.2-1.2,2.3-2.1,3.2-.9,1-1.9,1.8-3.1,2.5-1.2.7-2.4,1.2-3.8,1.6-1.4.4-2.7.6-4.2.6s-.8,0-1.2-.1-.5-.4-.5-1.1v-3c0-.7.4-1.1,1.2-1.1,1.6,0,3.1-.3,4.4-.8,1.3-.5,2.5-1.2,3.4-2.1,1-.9,1.7-2,2.2-3.2.5-1.2.8-2.6.8-4v-6.8c0-.9.4-1.3,1.2-1.3h3c.8,0,1.2.4,1.2,1.3v6.8c0,1.4.3,2.8.8,4,.5,1.2,1.3,2.3,2.2,3.2s2.1,1.6,3.4,2.1c1.3.5,2.8.8,4.4.8s1.2.4,1.2,1.1v3c0,.6-.2,1-.5,1.1s-.7.1-1.2.1c-1.4,0-2.8-.2-4.2-.6-1.4-.4-2.6-.9-3.8-1.6-1.2-.7-2.2-1.5-3.1-2.5-.9-1-1.6-2.1-2.1-3.2Z"/>
    <path class="cls-16" d="M301.8,104.5c0,1.6-.6,2.9-1.6,3.8-1,.9-2.4,1.4-4.2,1.4h-8.4c-1.8,0-3.2-.5-4.2-1.4-1-.9-1.5-2.2-1.6-3.8l-.7-26.5c0-.9.4-1.3,1.3-1.3h2.9c.9,0,1.3.4,1.3,1.2l.2,9.3h10l.2-9.3c0-.8.4-1.2,1.3-1.2h2.9c.9,0,1.3.4,1.3,1.3l-.7,26.5ZM287.2,102.4c0,1.3.7,2,2.1,2h4.9c1.4,0,2.1-.7,2.1-2l.3-10h-9.7l.3,10ZM309,74.9c0-.9.4-1.3,1.2-1.3h3c.8,0,1.2.4,1.2,1.3v39.9c0,.9-.4,1.3-1.2,1.3h-3c-.8,0-1.2-.4-1.2-1.3v-39.9Z"/>
  </g>
  <g>
    <path class="cls-13" d="M163.4,93.4c0,3.9.6,6.7,1.9,8.6s3.3,2.8,5.9,2.8,4.5-.6,7.3-1.8c.2,0,.3,0,.4,0,.4,0,.7.3.9,1l.8,2.7c.2.7-.1,1.2-1,1.5-1.5.6-3,1.1-4.5,1.4s-2.9.5-4.3.5c-4.4,0-7.6-1.4-9.8-4.2-2.2-2.8-3.2-7-3.2-12.5s1.1-10,3.4-12.7c2.2-2.7,5.6-4,10.1-4s2.6,0,3.6,0c1,0,1.9.2,2.8.3.5,0,.8.2,1,.4s.3.5.3.9v2.9c0,.9-.4,1.3-1.2,1.2-1-.1-1.9-.2-2.8-.3s-2-.1-3.2-.1-2.8.2-3.8.6c-1.1.4-1.9,1.1-2.6,2-.7.9-1.1,2.1-1.4,3.6-.3,1.5-.5,3.2-.5,5.4ZM185.6,74.9c0-.9.4-1.3,1.2-1.3h3c.8,0,1.2.4,1.2,1.3v39.9c0,.9-.4,1.3-1.2,1.3h-3c-.8,0-1.2-.4-1.2-1.3v-39.9Z"/>
    <path class="cls-13" d="M199.2,111.6c-.8-.1-1.2-.6-1.2-1.3v-2.6c0-.9.4-1.2,1.3-1.2.9,0,1.9.2,3.1.3,1.2,0,2.5.2,3.8.3s2.8.2,4.2.2c1.4,0,2.8.1,4.2.1-.4-.2-.6-.4-.9-.8-.2-.4-.3-.8-.3-1.3v-4.5c-2.3,0-4.2-.3-5.7-.6-1.5-.3-2.8-.8-3.7-1.5-.9-.7-1.6-1.5-2-2.5s-.6-2.3-.6-3.7.3-2.8.8-3.8c.5-1,1.4-1.9,2.5-2.5,1.2-.6,2.7-1.1,4.6-1.4s4.2-.4,6.9-.4,5.2,0,7.4,0c2.2,0,4,.1,5.5.2.7,0,1.1.4,1.1,1.2v2.8c0,.8-.4,1.2-1.2,1.1-2.3-.2-4.6-.2-6.8-.3-2.2,0-4.4,0-6.4,0s-3.2,0-4.3.1c-1.1,0-2,.3-2.7.5-.7.2-1.2.5-1.4.9-.3.4-.4.9-.4,1.5s.2,1.2.5,1.6c.3.4.8.8,1.5,1,.7.3,1.7.4,2.9.6,1.2.1,2.7.2,4.4.2,2.8,0,5.3,0,7.4-.2,2.1-.1,4.1-.3,5.8-.5.8,0,1.2.2,1.3,1l.2,2.8c0,.7-.3,1.2-1.1,1.2-1.6.2-3.3.3-5,.4-1.7,0-3.6.2-5.8.2v4.9c0,1,.6,1.5,1.7,1.5s2.1,0,3.2,0,2.2,0,3.3-.1c1.1,0,2.1-.1,3.1-.2,1,0,1.9-.2,2.7-.3.9,0,1.3.3,1.3,1.2v2.6c0,.7-.4,1.2-1.2,1.3-.8.1-1.8.2-3,.3-1.2,0-2.5.2-4,.3-1.5,0-3.1.1-4.8.2-1.7,0-3.5,0-5.3,0-7.6,0-13.2-.3-16.8-.9ZM202.9,81.2c-.8,0-1.2-.4-1.2-1.2v-2.6c0-.8.4-1.2,1.2-1.2h26c.8,0,1.2.4,1.2,1.2v2.6c0,.8-.4,1.2-1.2,1.2h-26Z"/>
    <path class="cls-13" d="M241,111.6c-.8-.1-1.2-.6-1.2-1.3v-2.6c0-.9.4-1.2,1.3-1.2.9,0,1.9.2,3.1.3,1.2,0,2.5.2,3.8.3s2.8.2,4.2.2c1.4,0,2.8.1,4.2.1-.4-.2-.6-.4-.9-.8-.2-.4-.3-.8-.3-1.3v-5.5c0-.9.4-1.3,1.2-1.3h3c.8,0,1.2.4,1.2,1.3v6c0,1,.6,1.5,1.7,1.5s2.1,0,3.2,0,2.2,0,3.3-.1c1.1,0,2.1-.1,3.1-.2,1,0,1.9-.2,2.7-.3.9,0,1.3.3,1.3,1.2v2.6c0,.7-.4,1.2-1.2,1.3-.8.1-1.8.2-3,.3-1.2,0-2.5.2-4,.3-1.5,0-3.1.1-4.8.2-1.7,0-3.5,0-5.3,0-7.6,0-13.2-.3-16.8-.9ZM258.1,91.6c-.5,1.2-1.2,2.3-2.1,3.2-.9,1-1.9,1.8-3.1,2.5-1.2.7-2.4,1.2-3.8,1.6-1.4.4-2.7.6-4.2.6s-.8,0-1.2-.1-.5-.4-.5-1.1v-3c0-.7.4-1.1,1.2-1.1,1.6,0,3.1-.3,4.4-.8,1.3-.5,2.5-1.2,3.4-2.1,1-.9,1.7-2,2.2-3.2.5-1.2.8-2.6.8-4v-6.8c0-.9.4-1.3,1.2-1.3h3c.8,0,1.2.4,1.2,1.3v6.8c0,1.4.3,2.8.8,4,.5,1.2,1.3,2.3,2.2,3.2s2.1,1.6,3.4,2.1c1.3.5,2.8.8,4.4.8s1.2.4,1.2,1.1v3c0,.6-.2,1-.5,1.1s-.7.1-1.2.1c-1.4,0-2.8-.2-4.2-.6-1.4-.4-2.6-.9-3.8-1.6-1.2-.7-2.2-1.5-3.1-2.5-.9-1-1.6-2.1-2.1-3.2Z"/>
    <path class="cls-13" d="M301.8,104.5c0,1.6-.6,2.9-1.6,3.8-1,.9-2.4,1.4-4.2,1.4h-8.4c-1.8,0-3.2-.5-4.2-1.4-1-.9-1.5-2.2-1.6-3.8l-.7-26.5c0-.9.4-1.3,1.3-1.3h2.9c.9,0,1.3.4,1.3,1.2l.2,9.3h10l.2-9.3c0-.8.4-1.2,1.3-1.2h2.9c.9,0,1.3.4,1.3,1.3l-.7,26.5ZM287.2,102.4c0,1.3.7,2,2.1,2h4.9c1.4,0,2.1-.7,2.1-2l.3-10h-9.7l.3,10ZM309,74.9c0-.9.4-1.3,1.2-1.3h3c.8,0,1.2.4,1.2,1.3v39.9c0,.9-.4,1.3-1.2,1.3h-3c-.8,0-1.2-.4-1.2-1.3v-39.9Z"/>
  </g>
  <rect class="cls-13" x="83.2" y="159.1" width="162" height="222.3"/>
  <path class="cls-6" d="M245.2,381.4v-1H84.2v-220.3h160v221.3h1v-1,1h1v-222.3c0-.3-.1-.5-.3-.7-.2-.2-.4-.3-.7-.3H83.2c-.3,0-.5.1-.7.3-.2.2-.3.4-.3.7v222.3c0,.3.1.5.3.7s.4.3.7.3h162c.3,0,.5-.1.7-.3.2-.2.3-.4.3-.7h-1Z"/>
  <rect class="cls-13" x="96.2" y="192.7" width="136" height="136"/>
  <rect class="cls-8" x="96.2" y="192.7" width="136" height="136"/>
  <g class="cls-1">
    <path class="cls-6" d="M240.8,340.1v-1H91.1v-150.9h148.7v151.9h1v-1,1h1v-152.9c0-.3-.1-.5-.3-.7-.2-.2-.4-.3-.7-.3H90.1c-.3,0-.5.1-.7.3s-.3.4-.3.7v152.9c0,.3.1.5.3.7.2.2.4.3.7.3h150.7c.3,0,.5-.1.7-.3.2-.2.3-.4.3-.7h-1Z"/>
    <path class="cls-9" d="M113.4,407.9l-7.4-55.5-12.2,6.4-33.7,5.7c-6.1-13.5,3.7-31.6,10.8-41,7.1-9.5,23.6-25.7,33.7-32.5,10.1-6.8,38.4-6.6,38.4-6.6l23.2.5s30.3,2.9,36.5,19.8c6.2,16.8,2.7,102.1,2.7,102.1"/>
    <path class="cls-6" d="M114.4,407.8l-7.4-55.5c0-.3-.2-.6-.5-.8-.3-.2-.6-.2-.9,0l-12.1,6.3-33.6,5.6.2,1,.9-.4c-1.3-2.8-1.8-5.9-1.8-9,0-5.6,1.7-11.5,4.2-17,2.4-5.4,5.6-10.4,8.3-14,7-9.3,23.6-25.6,33.5-32.2,2.2-1.5,5.5-2.7,9.3-3.6,5.6-1.4,12.2-2.1,17.7-2.4,5.4-.4,9.7-.4,10.7-.4h.2v-1s0,1,0,1l23.2.5v-1s0,1,0,1c0,0,.1,0,.3,0,1.6.2,9.2,1.2,16.9,4,3.9,1.4,7.8,3.3,11.1,5.8,3.3,2.5,5.9,5.5,7.3,9.2.7,1.8,1.3,4.7,1.7,8.2,1.4,10.6,1.9,27.6,1.9,44.1,0,12.6-.3,24.9-.5,34.1-.1,4.6-.3,8.4-.3,11.1,0,2.7-.2,4.2-.2,4.2,0,.6.4,1,1,1s1-.4,1-1c0,0,1-24.3,1-49.5s-.2-22.2-.8-31.7c-.3-4.7-.6-9-1.1-12.6-.5-3.6-1.1-6.6-1.8-8.7-1.6-4.5-4.9-7.9-8.7-10.7-5.7-4.1-12.9-6.5-18.6-7.9-5.7-1.4-10-1.8-10.1-1.8h0s-23.2-.5-23.2-.5h-.2c-1.4,0-8.6,0-16.6.9-4,.4-8.3,1.1-12.2,2-3.9.9-7.4,2.2-10,3.9-10.3,6.9-26.8,23.1-34,32.7-2.8,3.7-6,8.8-8.5,14.4-2.5,5.6-4.4,11.8-4.4,17.8,0,3.4.6,6.7,2,9.9.2.4.6.7,1.1.6l33.7-5.7c.1,0,.2,0,.3-.1l11-5.7,7.2,54.1c0,.5.6.9,1.1.9.5,0,.9-.6.9-1.1Z"/>
  </g>
  <path class="cls-10" d="M187.1,245.9c-.7-4.6-4.8-7.8-9.2-7.1-.1,0-.3,0-.4,0-3.8-16.3-18.9-27.5-35.4-25.5-16.5,2-28.5,16.5-28.3,33.2-.3,0-.6,0-1,0-4.5.4-7.7,4.5-7.3,9.1.4,4.6,4.4,8,8.9,7.6,1.2-.1,2.3-.5,3.3-1.1,4.5,8.5,12.4,14.7,21.5,16.8l.4,6.3c.4,6.4,6,11.2,12.3,10.8,6.4-.4,11.2-6,10.8-12.4l-.6-8.3c7.4-4.4,12.9-11.7,15.1-20.2,1,.2,2,.3,3,.2,4.4-.6,7.5-4.9,6.8-9.5"/>
  <path class="cls-6" d="M187.1,245.9l1.1-.2c-.7-4.7-4.6-8.1-9.2-8.1-.4,0-.9,0-1.3,0-.3,0-.4.1-.5.1l.2,1.1,1.1-.2c-3.6-15.5-17.2-26.6-32.7-26.6-1.3,0-2.6,0-3.9.2-8.5,1-15.8,5.2-21,11.3-5.2,6.1-8.3,14-8.3,22.6s0,.3,0,.5h1.1s0-1.1,0-1.1c-.2,0-.3,0-.5,0s-.4,0-.6,0c-2.4.2-4.5,1.4-5.9,3.1-1.5,1.7-2.4,3.9-2.4,6.3s0,.6,0,.9c.5,4.9,4.5,8.6,9.2,8.6.3,0,.6,0,.9,0,1.4-.1,2.7-.6,3.8-1.3l-.6-.9-1,.5c4.6,8.8,12.8,15.1,22.3,17.3l.2-1.1h-1.1c0,0,.4,6.4.4,6.4.5,6.7,6,11.8,12.6,11.8s.6,0,.9,0c6.7-.5,11.8-6,11.8-12.6,0-.3,0-.6,0-.9l-.6-8.3h-1.1c0,0,.6,1,.6,1,7.7-4.5,13.3-12.1,15.6-20.9l-1.1-.3-.3,1.1c.7.2,1.4.3,2.2.3s.8,0,1.2,0c2.3-.3,4.3-1.5,5.6-3.2,1.4-1.7,2.2-3.8,2.2-6.1s0-.9-.1-1.4l-1.1.2-1.1.2c0,.4,0,.7,0,1.1,0,1.8-.6,3.4-1.7,4.7-1.1,1.3-2.5,2.2-4.3,2.4-.3,0-.6,0-.9,0-.6,0-1.1,0-1.7-.2-.6-.1-1.2.2-1.3.8-2.1,8.3-7.4,15.3-14.6,19.6-.4.2-.6.6-.5,1l.6,8.3c0,.2,0,.5,0,.7,0,5.5-4.2,10.1-9.8,10.5-.2,0-.5,0-.7,0-5.5,0-10.1-4.2-10.4-9.8l-.4-6.3c0-.5-.4-.9-.8-1-8.8-2-16.5-8-20.8-16.2-.1-.3-.4-.5-.7-.5-.3,0-.6,0-.9.1-.9.5-1.8.9-2.8.9-.2,0-.4,0-.6,0-3.6,0-6.7-2.8-7-6.6,0-.2,0-.5,0-.7,0-1.9.7-3.6,1.8-4.8,1.1-1.3,2.7-2.1,4.5-2.3.1,0,.3,0,.4,0s.3,0,.4,0c.3,0,.6-.1.8-.3.2-.2.3-.5.3-.8,0-.1,0-.3,0-.4,0-8,2.9-15.5,7.8-21.2,4.9-5.7,11.7-9.6,19.6-10.6,1.2-.1,2.4-.2,3.7-.2,14.4,0,27.1,10.3,30.5,24.9.1.6.7.9,1.3.8.2,0,.4,0,.4,0,.3,0,.7,0,1,0,3.4,0,6.5,2.6,7,6.2l1.1-.2Z"/>
  <path class="cls-10" d="M182.7,246s-2.8-.6-5.3,1.8"/>
  <path class="cls-6" d="M182.9,245c0,0-.4,0-1,0-.6,0-1.4,0-2.3.4-.9.3-1.9.8-2.8,1.7-.4.4-.4,1,0,1.4.4.4,1,.4,1.4,0,.7-.7,1.4-1.1,2.1-1.3.7-.2,1.2-.3,1.7-.3s.4,0,.5,0h.1s0,0,0,0v-.3c0,0,0,.3,0,.3h0s0-.3,0-.3v.3c.5.1,1-.2,1.1-.8.1-.5-.2-1.1-.8-1.2Z"/>
  <path class="cls-10" d="M109.8,254.8s2.6-1.2,5.5.5"/>
  <path class="cls-6" d="M110.3,255.7l-.2-.4.2.4h0s-.2-.4-.2-.4l.2.4s.8-.3,1.8-.3c.8,0,1.7.2,2.8.8.5.3,1.1.1,1.4-.4.3-.5.1-1.1-.4-1.4-1.4-.8-2.7-1-3.8-1-1.6,0-2.6.5-2.7.5-.5.2-.7.8-.5,1.3.2.5.8.7,1.3.5Z"/>
  <path class="cls-6" d="M154.5,248.4c.2,1.4,1.1,2.5,2,2.4.9-.1,1.6-1.4,1.4-2.8-.2-1.4-1.1-2.5-2-2.4-.9.1-1.6,1.4-1.4,2.8"/>
  <path class="cls-6" d="M154.5,248.4h-1c.1,1,.4,1.7.9,2.3.2.3.5.6.9.7.3.2.7.3,1.1.3h.3s0,0,0,0c.4,0,.8-.2,1-.4.4-.3.8-.8,1-1.3.2-.5.3-1,.3-1.6s0-.4,0-.6c-.1-.8-.4-1.6-.9-2.2-.2-.3-.5-.6-.9-.7-.3-.2-.7-.3-1.1-.3,0,0-.2,0-.3,0h0c-.4,0-.8.2-1,.4-.4.3-.8.8-1,1.3-.2.5-.3,1-.3,1.6s0,.4,0,.6h1c0-.1,1-.2,1-.2,0-.1,0-.2,0-.3,0-.4.1-.8.3-1.1,0-.1.1-.2.2-.2h.1s0,0,0,0h.2c.1.1.3.3.4.5.1.2.3.6.3,1,0,.1,0,.2,0,.3,0,.4-.1.8-.3,1.1,0,.1-.1.2-.2.2h-.1s0,0,0,0h0s-.2,0-.2,0c-.1,0-.3-.2-.4-.5-.1-.3-.3-.6-.3-1h-1Z"/>
  <path class="cls-6" d="M135.3,250.7c.2,1.4,1.1,2.5,2,2.4.9-.1,1.6-1.4,1.4-2.8-.2-1.4-1.1-2.5-2-2.4-.9.1-1.6,1.4-1.4,2.8"/>
  <path class="cls-6" d="M135.3,250.7h-1c.1,1,.4,1.7.9,2.3.2.3.5.6.9.7.3.2.7.3,1.1.3h.3s0,0,0,0c.4,0,.8-.2,1-.4.4-.3.8-.8,1-1.3.2-.5.3-1,.3-1.6s0-.4,0-.6c-.1-.8-.4-1.6-.9-2.2-.2-.3-.5-.6-.9-.7-.3-.2-.7-.3-1.1-.3,0,0-.2,0-.3,0v1c.1,0,0-1,0-1-.4,0-.8.2-1,.4-.4.3-.8.8-1,1.3-.2.5-.3,1-.3,1.6s0,.4,0,.6h1c0-.1,1-.2,1-.2,0-.1,0-.2,0-.3,0-.4.1-.8.3-1,0-.1.1-.2.2-.2h.1s0,0,0,0h.2c.1.1.3.3.4.5.1.2.3.6.3,1,0,.1,0,.2,0,.3,0,.4-.1.8-.3,1.1,0,.1-.1.2-.2.2h-.1s0,0,0,0h0s-.2,0-.2,0c-.1,0-.3-.2-.4-.5-.1-.3-.3-.6-.3-1h-1Z"/>
  <path class="cls-6" d="M142.2,262.7c1.5,1.1,3.5,1.8,5.6,1.8.4,0,.8,0,1.2,0,2.6-.3,4.8-1.5,6.2-3.3.3-.4.3-1.1-.1-1.4-.4-.3-1.1-.3-1.4.1-1.1,1.3-2.8,2.3-4.9,2.6-.3,0-.7,0-1,0-1.7,0-3.2-.5-4.4-1.4-.4-.3-1.1-.2-1.4.2-.3.4-.2,1.1.2,1.4Z"/>
  <path class="cls-6" d="M139.4,238.2c-1.2-.6-2.6-1-4.2-1-.4,0-.9,0-1.3,0-2.1.3-3.9,1.1-5.2,2.2-.4.4-.4,1,0,1.4.4.4,1,.4,1.4,0,.9-.8,2.4-1.5,4.1-1.7.4,0,.7,0,1.1,0,1.3,0,2.5.3,3.3.7.5.3,1.1,0,1.4-.4.3-.5,0-1.1-.4-1.4Z"/>
  <path class="cls-6" d="M151.6,238.3c.9-.8,2.4-1.5,4.1-1.7.4,0,.7,0,1.1,0,1.3,0,2.5.3,3.3.7.5.3,1.1,0,1.4-.4.3-.5,0-1.1-.4-1.4-1.2-.6-2.6-1-4.2-1-.4,0-.9,0-1.3,0-2.1.3-3.9,1.1-5.2,2.2-.4.4-.4,1,0,1.4.4.4,1,.4,1.4,0Z"/>
  <path class="cls-7" d="M166,247.9c-.3,0-.5,0-.8,0-3.5.4-5.9,3.6-5.5,7,.4,3.2,3.1,5.5,6.2,5.5s.5,0,.8,0c3.5-.4,5.9-3.6,5.5-7-.4-3.2-3.1-5.5-6.2-5.5"/>
  <path class="cls-7" d="M128.3,252.4c-.3,0-.5,0-.8,0-3.5.4-5.9,3.6-5.5,7,.4,3.2,3.1,5.5,6.2,5.5s.5,0,.8,0c3.5-.4,5.9-3.6,5.5-7-.4-3.2-3.1-5.5-6.2-5.5"/>
  <path class="cls-6" d="M123.1,235.5s-3.5,2.8-3.9,6.5c-.4,3.7-2.3,5.8-5.4,4.6,0,0-3.8-1.1-3.7-10,.1-8.9,8.9-26.4,31.2-29.1,22.3-2.7,33.4,12.4,35.8,21.7,1.9,7.3.7,9.5.7,9.5,0,0-1,4.4-4.2,2.1-3.2-2.3-1.7-6.8-6.7-9.7,0,0-2.4-14-24.8-11.3-22.4,2.7-19.1,15.6-19.1,15.6"/>
  <path class="cls-6" d="M123.1,235.5l-.6-.8s-1,.8-1.9,2c-1,1.2-2.1,3-2.3,5.1-.1,1.4-.5,2.4-1,3.1-.2.3-.5.6-.8.7-.3.1-.6.2-1,.2-.4,0-.8,0-1.3-.3h0s-.1.3-.1.3v-.4c.1,0,.1,0,.1,0v.4c-.1,0,0-.4,0-.4,0,0-.7-.3-1.5-1.4-.7-1.2-1.5-3.3-1.5-7.1s0-.3,0-.4c0-2.1.6-4.7,1.7-7.5,1.7-4.2,4.8-8.9,9.5-12.7,4.7-3.8,11-6.8,19.2-7.8,1.8-.2,3.4-.3,5-.3,9.2,0,16.1,3.3,20.9,7.5,4.9,4.3,7.7,9.6,8.7,13.7.8,3.2,1,5.4,1,6.7s0,1.4-.2,1.7c0,.2,0,.3,0,.3h0s.4.2.4.2l-.4-.2h0s.4.2.4.2l-.4-.2v.2c0,0,.1,0,.1,0h-.2c0,0,0,0,0,0h.2c0,0-.2,0-.2,0,0,0-.2.6-.5,1.2-.2.3-.3.5-.5.6-.2.1-.3.2-.5.2-.2,0-.6,0-1.1-.5-.6-.5-1-1-1.4-1.7-.5-1-.8-2.4-1.5-3.9-.7-1.5-1.8-3-3.9-4.2l-.5.9,1-.2c0-.1-.6-3.2-3.4-6.3-2.8-3.1-8-6.2-16.9-6.1-1.7,0-3.6.1-5.6.4-8.8,1.1-13.8,3.7-16.7,6.7-2.9,3-3.4,6.2-3.4,8.2,0,1.2.2,1.9.2,2l1-.2-.6-.8.6.8,1-.2h-.3c0,0,.3,0,.3,0h0s-.3,0-.3,0h.3c0,0-.1-.7-.1-1.6,0-1.6.4-4.3,2.9-6.8,2.4-2.5,7-5,15.5-6.1,1.9-.2,3.7-.3,5.3-.3,8.4,0,12.9,2.8,15.4,5.5,1.2,1.4,2,2.7,2.4,3.7.2.5.3.9.4,1.2,0,.1,0,.2,0,.3h0c0,0,0,0,0,0h.2s-.2,0-.2,0h0s.2,0,.2,0h-.2c0,.3.2.6.5.7,1.1.7,1.9,1.4,2.4,2.1.8,1.1,1.2,2.4,1.7,3.7.2.7.5,1.3.9,2,.4.7.9,1.3,1.7,1.8.8.5,1.6.8,2.3.8.7,0,1.4-.3,1.8-.6.7-.6,1.1-1.3,1.3-1.8.2-.6.3-1,.4-1l-1-.2.9.5c0-.2.5-1,.5-3,0-1.6-.2-3.9-1.1-7.2-1.1-4.5-4.2-10.1-9.4-14.7-5.2-4.6-12.6-8.1-22.3-8-1.7,0-3.4.1-5.3.3-11.4,1.4-19.4,6.6-24.6,12.5-2.6,3-4.4,6.2-5.7,9.2-1.2,3-1.8,5.9-1.9,8.3,0,.2,0,.3,0,.5,0,4.4.9,7,2,8.5,1.1,1.5,2.2,1.9,2.4,2l.3-1-.4.9c.7.3,1.3.4,2,.4.7,0,1.3-.2,1.9-.5.9-.5,1.5-1.2,2-2.1.5-.9.7-2,.9-3.2.2-1.6,1-3,1.9-4.1.4-.5.8-1,1.1-1.3.2-.1.3-.3.4-.3h0c0,0,0,0,0,0h0c.3-.2.4-.6.3-1l-1,.2Z"/>
  <g class="cls-17">
    <path class="cls-4" d="M145,256.8c.1,1,1,1.7,2,1.6,1-.1,1.7-1,1.6-2-.1-1-1-1.7-2-1.6-1,.1-1.7,1-1.6,2"/>
    <path class="cls-3" d="M106,352.5s-2.6-18.9-2.6-27.7"/>
    <path class="cls-6" d="M107,352.3s-.2-1.2-.4-3.1c-.4-2.9-.9-7.3-1.3-11.9-.4-4.6-.8-9.3-.8-12.5s-.4-1-1-1-1,.4-1,1c0,4.5.6,11.4,1.3,17.2.6,5.8,1.3,10.6,1.3,10.6,0,.5.6.9,1.1.9.5,0,.9-.6.9-1.1Z"/>
  </g>
  <path class="cls-11" d="M180.3,237.7c-.6-1.5-2.3-2.2-3.7-1.6l-4.7,1.9c-3.2-3.8-10.1-4-15.9-.3-2.1,1.4-3.8,3.1-5,4.9-1.8-.4-3.8-.5-5.8-.2-2.2.3-4.2,1-5.9,2-1.7-1.3-3.8-2.4-6.2-3-6.1-1.6-12.1.3-14.4,4.2l-4.8-.7c-1.6-.2-3,.9-3.2,2.4-.2,1.6.9,3,2.4,3.2l4.9.7c1,3.9,5,7.5,10.4,8.9,7.1,1.8,13.9-.9,15.2-6.1.6-2.4,0-4.8-1.6-7,1.3-.4,2.6-.7,3.4-.8.9-.1,2.5-.2,4.1-.2-.7,2.5-.5,5,.8,7,2.9,4.5,10.2,4.9,16.4.9,4.2-2.7,6.7-6.8,7-10.5l5.2-2.1c1.5-.6,2.2-2.3,1.6-3.7"/>
  <path class="cls-6" d="M180.3,237.7l1-.4c-.6-1.5-2.1-2.5-3.7-2.5-.5,0-1,0-1.5.3l-4.7,1.9.4,1,.8-.7c-.9-1.1-2.2-2-3.5-2.6-1.4-.6-2.9-.8-4.5-.8-3,0-6.3,1-9.3,2.9-2.2,1.4-4,3.3-5.3,5.2l.9.6.2-1.1c-1.1-.2-2.3-.4-3.6-.4s-1.7,0-2.6.2c-2.3.3-4.5,1.1-6.3,2.2l.6,1,.7-.9c-1.8-1.4-4.1-2.6-6.6-3.2-1.6-.4-3.2-.6-4.7-.6-2.4,0-4.6.5-6.5,1.4-1.9.9-3.5,2.2-4.5,3.9l.9.6.2-1.1-4.8-.7c-.2,0-.4,0-.6,0-1.9,0-3.6,1.4-3.9,3.4,0,.2,0,.4,0,.6,0,1.9,1.4,3.6,3.4,3.9l4.9.7.2-1.1-1.1.3c.6,2.2,2,4.3,3.9,6,1.9,1.7,4.4,3,7.3,3.7,1.6.4,3.2.6,4.7.6,2.8,0,5.5-.7,7.6-1.9,2.1-1.3,3.7-3.2,4.3-5.5.2-.7.3-1.4.3-2.1,0-2.1-.8-4.1-2-5.9l-.9.6.3,1.1c1.3-.4,2.5-.7,3.2-.8.8-.1,2.3-.2,4-.2v-1.1s-1.1-.3-1.1-.3c-.3,1-.5,2.1-.5,3.1,0,1.7.4,3.3,1.4,4.8.9,1.4,2.2,2.5,3.7,3.1,1.5.7,3.2,1,4.9,1,3,0,6.3-1,9.3-2.9,4.4-2.9,7.2-7.2,7.5-11.3h-1.1c0,0,.4.9.4.9l5.2-2.1c1.5-.6,2.5-2.1,2.5-3.7,0-.5,0-1-.3-1.5l-1,.4-1,.4c0,.2.1.4.1.7,0,.7-.4,1.4-1.1,1.6l-5.2,2.1c-.4.2-.7.5-.7.9-.2,3.3-2.6,7.1-6.5,9.7-2.7,1.7-5.5,2.6-8.1,2.6-1.5,0-2.9-.3-4-.8-1.2-.5-2.1-1.3-2.8-2.3-.7-1.1-1-2.3-1-3.6,0-.8.1-1.6.4-2.5,0-.3,0-.7-.2-1-.2-.3-.5-.4-.9-.4-1.7,0-3.2,0-4.3.2-.9.1-2.2.5-3.5.9-.3.1-.6.4-.7.7-.1.3,0,.7.1,1,1.1,1.5,1.6,3,1.6,4.6,0,.5,0,1-.2,1.5-.4,1.7-1.6,3.2-3.3,4.2-1.7,1-4,1.6-6.5,1.6-1.3,0-2.7-.2-4.1-.5-2.5-.7-4.7-1.8-6.4-3.3-1.7-1.4-2.8-3.2-3.2-4.9-.1-.4-.5-.8-.9-.8l-4.9-.7c-.9-.1-1.5-.9-1.5-1.7v-.3c.1-.9.9-1.5,1.8-1.5h.3s4.8.7,4.8.7c.4,0,.9-.1,1.1-.5.8-1.3,2-2.3,3.5-3.1,1.6-.7,3.5-1.2,5.6-1.2s2.7.2,4.1.5c2.3.6,4.2,1.6,5.8,2.8.4.3.8.3,1.2,0,1.6-.9,3.5-1.6,5.5-1.9.8-.1,1.5-.2,2.3-.2,1.1,0,2.1.1,3.1.3.4,0,.9,0,1.1-.5,1.1-1.7,2.7-3.3,4.6-4.6,2.6-1.7,5.5-2.5,8.1-2.5,1.3,0,2.6.2,3.7.7,1.1.4,2,1.1,2.7,1.9.3.4.8.5,1.3.3l4.7-1.9c.2,0,.4-.1.7-.1.7,0,1.4.4,1.6,1.1l1-.4Z"/>
  <path class="cls-6" d="M155.2,249.9c1.6,2.5,5.7,2.8,9.1.6,3.4-2.2,4.8-6,3.2-8.5-1.6-2.5-5.7-2.8-9.1-.6-3.4,2.2-4.8,6-3.2,8.5"/>
  <path class="cls-6" d="M155.2,249.9l-.8.5c.6.9,1.3,1.5,2.2,1.9.9.4,1.9.6,2.9.6,1.7,0,3.6-.6,5.3-1.6,2.7-1.7,4.3-4.4,4.3-7,0-1-.3-2-.8-2.9-.6-.9-1.3-1.5-2.2-1.9-.9-.4-1.9-.6-2.9-.6-1.7,0-3.6.5-5.3,1.6-2.7,1.7-4.3,4.4-4.3,7,0,1,.3,2,.8,2.9l.8-.5.8-.5c-.3-.5-.5-1.2-.5-1.8,0-1.7,1.2-3.9,3.4-5.3,1.4-.9,2.9-1.3,4.2-1.3.8,0,1.5.2,2.1.4.6.3,1.1.7,1.4,1.2.3.5.5,1.2.5,1.8,0,1.7-1.2,3.9-3.4,5.3-1.4.9-2.9,1.3-4.2,1.3-.8,0-1.5-.2-2.1-.4-.6-.3-1.1-.7-1.4-1.2l-.8.5Z"/>
  <path class="cls-6" d="M137.8,252.7c-.8,2.9-4.5,4.5-8.4,3.4-3.9-1-6.5-4.2-5.7-7.1.8-2.9,4.5-4.5,8.4-3.4,3.9,1,6.5,4.2,5.7,7.1"/>
  <path class="cls-6" d="M137.8,252.7l-1-.2c-.2.9-.8,1.6-1.7,2.1-.9.5-2.1.9-3.4.9-.7,0-1.4,0-2.1-.3-1.6-.4-2.9-1.2-3.7-2.1-.9-.9-1.4-2-1.4-3,0-.3,0-.5,0-.8.2-.9.8-1.6,1.7-2.1.9-.5,2.1-.9,3.4-.9.7,0,1.4,0,2.1.3,1.6.4,2.8,1.2,3.7,2.1.9.9,1.4,2,1.4,3,0,.3,0,.5,0,.8l1,.2,1,.2c.1-.4.2-.9.2-1.3,0-1.6-.7-3.1-1.9-4.4-1.2-1.2-2.8-2.2-4.7-2.7-.9-.2-1.8-.3-2.6-.3-1.6,0-3.2.4-4.4,1.2-1.2.8-2.2,1.9-2.6,3.3-.1.4-.2.9-.2,1.3,0,1.6.7,3.1,1.9,4.4,1.2,1.2,2.8,2.2,4.7,2.7.9.2,1.8.3,2.6.3,1.6,0,3.2-.4,4.4-1.2,1.2-.8,2.2-1.9,2.6-3.3l-1-.2Z"/>
  <path class="cls-6" d="M218.4,237.4l-5.3,10.5c-.2.5,0,1.1.4,1.3.5.2,1.1,0,1.3-.4l5.3-10.5c.2-.5,0-1.1-.4-1.3-.5-.2-1.1,0-1.3.4"/>
  <path class="cls-6" d="M206.8,235v11.8c0,.6.4,1,1,1,.6,0,1-.4,1-1v-11.8c0-.6-.4-1-1-1-.6,0-1,.4-1,1"/>
  <path class="cls-6" d="M226.9,243.7l-9.1,7.4c-.4.3-.5,1-.1,1.4.3.4,1,.5,1.4.1l9.1-7.4c.4-.3.5-1,.1-1.4-.3-.4-1-.5-1.4-.1"/>
  <path class="cls-10" d="M207.5,281.4s3.1-13,3.8-18.5c.7-5.5.7-8.4-1.9-9.1-2.6-.7-4.7,1.7-6.1,5.6-1.3,3.9-4.6,19.2-4.6,19.2"/>
  <path class="cls-6" d="M208.5,281.6s.8-3.2,1.6-7.2c.9-3.9,1.8-8.6,2.2-11.4.2-1.9.4-3.5.4-4.8,0-1.3-.1-2.4-.6-3.4-.2-.5-.6-.9-1-1.2-.4-.3-.9-.6-1.5-.7-.4-.1-.8-.2-1.1-.2-.7,0-1.4.2-2.1.5-.9.5-1.7,1.3-2.4,2.3-.7,1-1.2,2.2-1.7,3.5-.4,1-.8,2.7-1.3,4.7-1.5,6-3.3,14.6-3.3,14.6-.1.5.2,1.1.8,1.2.5.1,1.1-.2,1.2-.8,0,0,.2-1,.5-2.5.5-2.2,1.2-5.7,2-8.9.4-1.6.8-3.2,1.1-4.5.3-1.3.7-2.5.9-3.1.6-1.6,1.3-3,2-3.8.4-.4.8-.7,1.1-.9.4-.2.7-.3,1.1-.3.2,0,.4,0,.6,0,.3,0,.6.2.7.3.3.2.5.5.6,1,.2.5.2,1.2.2,2.1,0,1.2-.1,2.7-.4,4.6-.3,2.7-1.3,7.3-2.1,11.2-.4,2-.8,3.7-1.1,5-.3,1.3-.5,2.1-.5,2.1-.1.5.2,1.1.7,1.2.5.1,1.1-.2,1.2-.7Z"/>
  <path class="cls-10" d="M200.6,279.6s.4-13.3,0-18.9c-.4-5.6-1-8.3-3.7-8.5-2.7-.2-4.3,2.7-4.8,6.7-.5,4.1-.6,19.7-.6,19.7"/>
  <path class="cls-6" d="M201.6,279.6s.2-5.7.2-11.2,0-5.8-.2-7.8c-.2-2.8-.5-4.9-1.1-6.5-.3-.8-.7-1.5-1.3-2-.6-.5-1.4-.8-2.2-.8,0,0-.2,0-.3,0-.8,0-1.6.2-2.3.6-1,.6-1.7,1.6-2.3,2.8-.5,1.2-.9,2.6-1.1,4.1-.1,1.1-.2,2.8-.3,4.9-.2,6.1-.3,14.9-.3,15,0,.6.4,1,1,1,.6,0,1-.4,1-1,0,0,0-1,0-2.5,0-2.3,0-5.8.2-9.2,0-3.3.2-6.5.4-7.9.2-1.9.7-3.4,1.4-4.4.3-.5.7-.9,1-1.1.4-.2.7-.3,1.2-.3h.2c.5,0,.8.2,1.1.4.2.2.4.4.6.8.6,1.1.9,3.3,1.1,6.4.1,1.9.2,4.8.2,7.7,0,2.7,0,5.5,0,7.6,0,2.1,0,3.5,0,3.5,0,.6.4,1,1,1s1-.4,1-1Z"/>
  <path class="cls-10" d="M206.1,304.7c.4-2.5,1.7-4.7,3.7-6.2.9-.7,2.1-1.8,3.2-3.5,2.9-4.5,4.9-10.5,4.9-10.5l-24.6-9.6s-3.7,9.6-3.9,20.1c0,0,1,4.3-.4,11.3-1.3,7-1.2,6.8-1.2,6.8l18.3,2.6s-.4-7.3,0-10.3c0-.2,0-.4,0-.5"/>
  <path class="cls-6" d="M206.1,304.7h1c.3-2.1,1.5-4.1,3.3-5.3,1-.8,2.3-1.9,3.4-3.8,3-4.6,5-10.7,5-10.7.2-.5,0-1.1-.6-1.2l-24.6-9.6c-.2,0-.5,0-.8,0-.2.1-.4.3-.5.6,0,0-3.8,9.7-4,20.4v.2s0,0,0,0c0,.1.3,1.5.3,4s-.2,4.1-.7,6.9c-.6,3-.9,4.7-1.1,5.7,0,.5-.1.7-.2.9v.2c0,0,0,0,0,.2h0c0,.1,0,.2,0,.3,0,0,0,.2.2.3.1.2.4.3.5.4.2,0,.2,0,.2,0v-1,1c-.1,0,18.1,2.6,18.1,2.6.3,0,.6,0,.8-.3.2-.2.3-.5.3-.8,0,0,0-.2,0-.6,0-1.1-.2-3.7-.2-6,0-1.4,0-2.7.1-3.5,0-.2,0-.4,0-.5h-1c0-.1-1-.3-1-.3,0,.2,0,.4,0,.6-.1,1-.2,2.4-.2,3.8,0,3.2.2,6.7.2,6.7h1c0,0,.1-1,.1-1l-18.3-2.6h-.1s0,1,0,1l.3-.9c-.2,0-.3,0-.3,0v1l.3-.9-.3.9.8-.6c-.1-.2-.3-.3-.5-.4l-.3.9.8-.6-.8.6h1c0-.2,0-.3-.2-.6l-.8.6h1c0-.1-1,0-1,0h1,0c0-.1-1,0-1,0h1-.8.8c0,0,0,0,0,0h-.8.8c0,0,0,0,0,0,0,0,0-.4.2-1.4.2-1,.5-2.6,1-5.3.6-2.9.7-5.4.7-7.3,0-2.8-.4-4.3-.4-4.4l-1,.2h1c0-5.1,1-10.1,2-13.7.5-1.8.9-3.3,1.3-4.4.2-.5.3-.9.4-1.2,0-.1,0-.2.1-.3h0c0-.1-.9-.5-.9-.5l-.4.9,24.6,9.6.4-.9-.9-.3s0,0,0,.3c-.4,1.2-2.3,6.2-4.7,10-1.1,1.7-2.1,2.7-2.9,3.3-2.3,1.6-3.7,4.1-4.1,6.8h1Z"/>
  <path class="cls-10" d="M212.7,271s2.2.9,2.3,3.4c.1,2.5-2.4,5.9-2.4,5.9,0,0-2.8,5.2-6.7,3.3,0,0-2.6-1.5-1.8-5.6.8-4.1,3.1-6.2,4.3-7.1,1.2-.9,3.3-.5,4.3.1"/>
  <path class="cls-6" d="M212.7,271l-.4.9.2-.5-.2.5h0s.2-.5.2-.5l-.2.5h0c.2.1.6.3.9.7.4.4.7.9.7,1.8h0c0,1.1-.5,2.4-1.1,3.5-.3.5-.6,1-.8,1.3-.1.2-.2.3-.3.4h0c0,0,0,.1,0,.1h0c0,.1,0,.1,0,.1,0,0-.5.9-1.3,1.7-.4.4-.8.8-1.3,1-.5.3-1,.4-1.5.4-.4,0-.8,0-1.3-.3l-.4.9.5-.9v.3c-.1,0,0-.3,0-.3h0s-.1.3-.1.3l.2-.3s-.4-.3-.8-.8c-.4-.5-.7-1.3-.7-2.4,0-.4,0-.8.1-1.3.8-3.8,2.8-5.7,3.9-6.5.3-.2.7-.3,1.2-.3.4,0,.8,0,1.1.2.3,0,.6.2.8.3h.2c0,0,.4-.8.4-.8l.5-.8c-.4-.2-.8-.4-1.4-.6-.5-.1-1.1-.2-1.6-.2-.8,0-1.7.2-2.4.7-1.3,1-3.8,3.3-4.7,7.7-.1.6-.2,1.2-.2,1.7,0,1.7.6,3,1.2,3.8.6.8,1.2,1.1,1.3,1.2h0c.7.4,1.5.5,2.2.5,1,0,1.8-.3,2.5-.7,1.1-.6,1.9-1.5,2.4-2.2.6-.7.9-1.3.9-1.3l-.9-.5.8.6s.6-.9,1.3-2c.6-1.2,1.3-2.7,1.3-4.3v-.3c0-1.6-.8-2.7-1.5-3.3-.7-.7-1.4-.9-1.4-.9l-.4.9.5-.8-.5.8Z"/>
  <path class="cls-10" d="M212.1,280.3s2.3-4.7,5.9-2.4c3.6,2.3,2.5,5,.8,6.7-1.7,1.6-4.1,4.7-7.1,3.2-3-1.6-1.6-4.5-1-5.3.6-.8,1.4-2.1,1.4-2.1"/>
  <path class="cls-6" d="M212.1,280.3l.9.4h0s0,0,0,0h0s0,0,0,0h0s.4-.7,1-1.3c.3-.3.6-.6,1-.8.4-.2.7-.3,1.1-.3.4,0,.8.1,1.4.5.8.5,1.3,1,1.5,1.4.3.4.4.8.4,1.2,0,.4-.1.8-.3,1.3-.2.4-.5.8-.9,1.2-.7.7-1.5,1.6-2.3,2.2-.4.3-.8.6-1.2.8-.4.2-.8.3-1.2.3-.4,0-.8,0-1.2-.3-.6-.3-.9-.6-1.1-.9-.2-.3-.3-.6-.3-1,0-.4,0-.8.2-1.1.1-.3.3-.6.4-.8.6-.8,1.4-2.1,1.4-2.1h0c0-.1-.9-.5-.9-.5l-.8-.5s-.2.3-.5.8c-.3.4-.6.9-.9,1.3-.2.3-.4.7-.6,1.2-.2.5-.4,1.1-.4,1.8,0,.6.1,1.3.5,2,.4.7,1,1.2,1.9,1.7.7.4,1.4.6,2.1.6.7,0,1.4-.2,2-.5.9-.4,1.7-1.1,2.4-1.7.7-.6,1.3-1.3,1.7-1.7.5-.5.9-1,1.3-1.7.3-.6.6-1.4.6-2.2,0-.8-.2-1.6-.7-2.3-.5-.7-1.2-1.4-2.1-2-.8-.5-1.7-.8-2.5-.8-.8,0-1.6.3-2.2.6-.9.5-1.6,1.3-2,1.9-.4.6-.7,1.1-.7,1.1l.9.4-.8-.5.8.5Z"/>
  <path class="cls-10" d="M202.1,292.1s3-7.6-3.4-12.6l1.4-1.6s2.7,1.9,5.7,2c2.9.1,2.8-3.2,1.2-5.1-1.6-1.9-4.9-5.3-7.9-5.8-3.1-.5-6.7,2-10,4.7-3.3,2.7.5,21.2.5,21.2"/>
  <g class="cls-18">
    <path class="cls-6" d="M203,292.4c0,0,.8-1.9.8-4.5,0-1.4-.2-3-.9-4.6-.7-1.6-1.8-3.2-3.6-4.6l-.6.8.8.7,1.4-1.6-.8-.7-.6.8s.8.5,1.9,1c1.1.5,2.6,1.1,4.3,1.1h.2c1,0,1.9-.3,2.4-1,.6-.6.8-1.4.8-2.2,0-1.2-.5-2.5-1.4-3.5-.8-1-2.1-2.3-3.5-3.5-1.5-1.2-3.1-2.3-5-2.6-.3,0-.7,0-1,0-1.7,0-3.4.7-5,1.6-1.6.9-3.2,2.2-4.7,3.4-.4.3-.7.8-.9,1.2-.3.7-.5,1.5-.6,2.4-.1.9-.2,1.9-.2,3,0,3.3.5,7.1.9,10.2.5,3.1.9,5.3.9,5.3.1.5.6.9,1.2.8.5-.1.9-.6.8-1.2,0,0,0-.1,0-.4-.3-1.8-1.7-9.3-1.7-14.7,0-1.4,0-2.6.3-3.5,0-.5.2-.8.3-1.1.1-.3.3-.5.4-.5,1.5-1.2,3-2.4,4.5-3.2,1.5-.8,2.9-1.3,4-1.3.2,0,.5,0,.7,0,1.2.2,2.7,1.1,4,2.2,1.3,1.1,2.5,2.4,3.3,3.3.6.6.9,1.5.9,2.2,0,.4-.1.7-.3.9-.2.2-.4.3-.9.3h-.1c-1.3,0-2.6-.5-3.5-1-.5-.2-.9-.4-1.2-.6s-.2-.1-.3-.2h0c0,0,0,0,0,0h0c-.4-.3-1-.2-1.3.2l-1.4,1.6c-.2.2-.3.5-.2.8,0,.3.2.5.4.7,1.5,1.2,2.5,2.5,3,3.8.6,1.3.7,2.6.7,3.8s-.2,2.1-.3,2.7c0,.3-.2.6-.2.8v.2c0,0,0,0,0,0h0s.2,0,.2,0h-.2c0,0,0,0,0,0h.2c0,0-.2,0-.2,0-.2.5,0,1.1.6,1.3.5.2,1.1,0,1.3-.6Z"/>
    <path class="cls-9" d="M209.4,315.2s2.2,2.8,2.6,7.6c.4,4.8,3,27.7-4.7,33.8-7.7,6.1-26.8,5.3-27.7-9.1-.9-14.5,1.8-29.4,1.8-29.4,0,0,.3-5,3.4-6.1l24.6,3.4Z"/>
    <path class="cls-6" d="M209.4,315.2l-.8.6h.1c0,0-.1,0-.1,0h0s.1,0,.1,0h-.1c0,.2,2,2.8,2.4,7.1.2,2.1.7,7.4.7,13.3,0,3.9-.3,8.1-1,11.6-.4,1.8-.9,3.4-1.6,4.8-.7,1.4-1.5,2.4-2.4,3.2-2.6,2.1-6.9,3.4-11.3,3.4-3.6,0-7.2-.9-9.9-2.8-1.4-1-2.5-2.1-3.3-3.6-.8-1.5-1.4-3.3-1.5-5.4-.1-2-.2-4.1-.2-6.1,0-6.1.5-11.9,1-16.2.3-2.1.5-3.9.7-5.1,0-.6.2-1.1.2-1.4,0-.3,0-.5,0-.5h0c0-.2.1-1.4.5-2.6.2-.6.5-1.2.9-1.7.4-.5.8-.8,1.3-1l-.3-.9v1c-.1,0,24.5,3.4,24.5,3.4v-1c.1,0-.7.6-.7.6l.8-.6v-1c.1,0-24.5-3.4-24.5-3.4-.2,0-.3,0-.5,0-1,.4-1.7,1-2.3,1.8-.8,1.1-1.2,2.4-1.5,3.4-.2,1-.3,1.8-.3,1.8h1c0,0-1-.1-1-.1,0,0-2,11.1-2,23.5,0,2,0,4.1.2,6.2.1,2.4.8,4.5,1.8,6.2,1.5,2.6,3.8,4.5,6.4,5.7,2.6,1.2,5.6,1.7,8.6,1.7,4.7,0,9.4-1.4,12.5-3.8,1.3-1,2.2-2.3,3-3.9,1.1-2.3,1.8-5.1,2.3-8.1.4-3,.6-6.1.6-9.1,0-6-.6-11.4-.8-13.5-.4-5.1-2.7-8-2.8-8.1-.2-.2-.4-.3-.7-.4v1Z"/>
  </g>
  <path class="cls-9" d="M184.8,311.8l2.2-7.5c.3-1.1,1.4-1.7,2.6-1.5l17.3,2.7c1,.2,1.8,1,1.9,1.9l.6,7.9s-11.6.6-24.6-3.4"/>
  <path class="cls-6" d="M184.8,311.8l1,.3,2.2-7.5c0-.2.2-.4.4-.6.2-.2.5-.2.8-.2h.2s0,0,0,0l17.3,2.7c.3,0,.6.2.7.4.2.2.3.4.3.6l.6,7.9h1c0,0,0-1.1,0-1.1h0c-.2,0-.7,0-1.4,0-3.5,0-12.7-.3-22.7-3.4l-.3,1,1,.3-1-.3-.3,1c10.3,3.1,19.6,3.5,23.3,3.5,1,0,1.6,0,1.6,0,.3,0,.5-.1.7-.3.2-.2.3-.5.2-.7l-.6-7.9c0-.7-.4-1.4-.9-1.9-.5-.5-1.1-.8-1.9-.9l-17.3-2.7h0c-.2,0-.4,0-.5,0-.7,0-1.4.2-2,.6-.6.4-1,1-1.2,1.7l-2.2,7.5c-.2.5.1,1.1.7,1.2l.3-1Z"/>
  <path class="cls-6" d="M170.4,230.7c-5.6,1.6-11.8,1.7-17.3-.3-5.5-2-10.4-6-13-11.2-.9-1.7-1.5-3.8-.6-5.6,1.1-2.2,3.9-2.9,6.3-3,9.2-.3,18.4,4.1,24,11.4,1.6,2.1,2.9,4.5,2.7,7.1"/>
  <path class="cls-6" d="M170.1,229.7c-2.6.8-5.4,1.2-8.1,1.2s-5.8-.5-8.6-1.4c-5.3-1.9-10-5.7-12.4-10.7-.5-1.1-.9-2.3-.9-3.3,0-.5,0-1,.3-1.4.4-.8,1.1-1.4,2.1-1.8,1-.4,2.2-.6,3.3-.6.3,0,.6,0,.9,0,8.6,0,17.1,4.2,22.3,11,.7.9,1.3,1.9,1.8,2.9.5,1,.7,2,.7,3,0,.2,0,.3,0,.5,0,.6.4,1,.9,1.1.6,0,1-.4,1.1-.9,0-.2,0-.4,0-.7,0-1.4-.4-2.7-.9-3.9-.5-1.2-1.3-2.3-2-3.3-5.6-7.3-14.7-11.8-23.9-11.8-.3,0-.6,0-1,0-1.3,0-2.7.2-4,.8-1.3.5-2.5,1.4-3.2,2.8-.4.7-.5,1.5-.5,2.3,0,1.5.5,3,1.1,4.2,2.8,5.5,7.8,9.7,13.6,11.7,3,1,6.1,1.5,9.2,1.5s5.9-.4,8.7-1.3c.5-.2.8-.7.7-1.2-.2-.5-.7-.8-1.2-.7Z"/>
  <path class="cls-6" d="M137,218c0,5.2-1.1,10.5-3.8,15-2.6,4.5-7,8.1-12.1,9.3-1,.2-2.1.3-2.9-.3-.7-.5-.9-1.4-1-2.3-.8-5.7.8-11.7,4.4-16.2,3.6-4.5,9.1-7.4,14.9-7.8"/>
  <path class="cls-6" d="M136,218c0,5.1-1.1,10.2-3.6,14.5-2.5,4.3-6.7,7.7-11.4,8.8-.4,0-.8.1-1.1.1-.4,0-.7,0-.9-.3-.2-.1-.3-.3-.4-.6-.1-.3-.2-.7-.2-1-.1-.9-.2-1.9-.2-2.8,0-4.5,1.6-9.1,4.4-12.6,3.4-4.3,8.7-7,14.2-7.4.6,0,1-.5.9-1.1,0-.6-.5-1-1.1-.9-6,.4-11.8,3.4-15.6,8.2-3.1,3.9-4.8,8.9-4.9,13.9,0,1,0,2.1.2,3.1,0,.5.2,1,.4,1.5.2.5.5,1,1,1.5.7.5,1.5.7,2.2.7.5,0,1,0,1.5-.2,5.4-1.2,9.9-5,12.7-9.7,2.8-4.7,3.8-10.2,3.9-15.5,0-.6-.4-1-1-1-.6,0-1,.4-1,1Z"/>
  <path class="cls-6" d="M149.1,207.3c6.8.8,13.6-.3,20.4-1,1.6-.2,3.4-.4,4.8.5,1.9,1.2,2.4,3.8,2,6.1-.8,4.4-4.3,8.3-8.6,9.5"/>
  <path class="cls-6" d="M149,208.2c1.7.2,3.5.3,5.2.3,5.2,0,10.3-.8,15.4-1.3.7,0,1.4-.1,2-.1s1.6.1,2.2.5c.5.3.9.8,1.2,1.5.3.6.4,1.4.4,2.2,0,.5,0,.9-.1,1.3-.7,4.1-4,7.6-7.9,8.8-.5.2-.8.7-.7,1.2s.7.8,1.2.7c4.7-1.4,8.5-5.5,9.3-10.3,0-.6.2-1.1.2-1.7,0-1-.2-2-.6-3-.4-.9-1.1-1.8-2-2.4-1-.6-2.2-.8-3.2-.8s-1.5,0-2.2.2c-5.1.5-10.2,1.3-15.2,1.3-1.7,0-3.3,0-4.9-.3-.5,0-1,.3-1.1.9,0,.5.3,1,.9,1.1Z"/>
  <path class="cls-6" d="M140.1,208.7c5.1-2,9.6-5.4,14.2-8.5,1.1-.8,2.3-1.6,3.6-1.5,1.8,0,3.2,1.8,3.7,3.6,1.1,3.5.1,7.6-2.5,10.1"/>
  <path class="cls-6" d="M140.4,209.7c5.3-2.1,9.8-5.5,14.4-8.6.5-.4,1-.7,1.5-.9.5-.2.9-.4,1.4-.4h0s0,0,0,0c.6,0,1.2.3,1.7.9.5.5.9,1.3,1.2,2,.3.8.4,1.7.4,2.6,0,2.4-1,4.8-2.7,6.5-.4.4-.4,1,0,1.4.4.4,1,.4,1.4,0,2.1-2.1,3.3-5,3.3-7.9,0-1.1-.2-2.2-.5-3.2-.3-1-.9-2-1.6-2.8-.8-.8-1.8-1.4-3-1.5h0s-.2,0-.2,0c-.8,0-1.6.3-2.3.6-.7.3-1.2.7-1.8,1.1-4.6,3.1-9,6.5-14,8.4-.5.2-.8.8-.6,1.3.2.5.8.8,1.3.6Z"/>
  <path class="cls-6" d="M142.4,220.4c1.4,3.9,2.7,7.9,4.1,11.8.2.6.4,1.4.2,2-.4.9-1.6,1-2.5.8-5-1-9.5-4.8-11.5-10-.6-1.6-1-3.6,0-4.9"/>
  <path class="cls-6" d="M141.5,220.8c1.4,3.9,2.7,7.9,4.1,11.8.1.4.2.8.2,1,0,.1,0,.2,0,.2,0,0,0,.1-.2.2-.1,0-.3,0-.6,0-.2,0-.4,0-.6,0-4.6-.9-8.9-4.5-10.8-9.4-.3-.8-.6-1.7-.6-2.5,0-.6.1-1.1.4-1.5.3-.5.2-1.1-.3-1.4-.5-.3-1.1-.2-1.4.3-.6.8-.8,1.7-.7,2.6,0,1.2.3,2.3.7,3.2,2.2,5.5,6.9,9.6,12.3,10.6.3,0,.6,0,1,0,.4,0,.9,0,1.4-.3.5-.2.9-.6,1.2-1.2.1-.3.2-.7.2-1,0-.7-.2-1.2-.4-1.7-1.4-3.9-2.7-7.9-4.1-11.8-.2-.5-.8-.8-1.3-.6s-.8.7-.6,1.3Z"/>
  <path class="cls-13" d="M194,213.5l.8,2.8c.2.7.8,1.3,1.5,1.5l2.8.8c2.1.6,2.1,3.6,0,4.2l-2.8.8c-.7.2-1.3.8-1.5,1.5l-.8,2.8c-.6,2.1-3.6,2.1-4.2,0l-.8-2.8c-.2-.7-.8-1.3-1.5-1.5l-2.8-.8c-2.1-.6-2.1-3.6,0-4.2l2.8-.8c.7-.2,1.3-.8,1.5-1.5l.8-2.8c.6-2.1,3.6-2.1,4.2,0"/>
  <path class="cls-6" d="M194,213.5l-1,.3.8,2.8c.3,1.1,1.1,1.9,2.2,2.2l2.8.8c.3,0,.5.2.6.4.1.2.2.4.2.7s0,.5-.2.7c-.1.2-.3.3-.6.4l-2.8.8c-1.1.3-1.9,1.1-2.2,2.2l-.8,2.8c0,.3-.2.5-.4.6-.2.1-.4.2-.7.2s-.5,0-.7-.2c-.2-.1-.3-.3-.4-.6l-.8-2.8c-.3-1.1-1.1-1.9-2.2-2.2l-2.8-.8c-.3,0-.5-.2-.6-.4-.1-.2-.2-.4-.2-.7s0-.5.2-.7c.1-.2.3-.3.6-.4l2.8-.8c1.1-.3,1.9-1.1,2.2-2.2l.8-2.8c0-.3.2-.5.4-.6.2-.1.4-.2.7-.2s.5,0,.7.2c.2.1.3.3.4.6l1-.3,1-.3c-.2-.7-.6-1.4-1.2-1.8-.6-.4-1.2-.6-1.9-.6s-1.3.2-1.9.6c-.6.4-1,1-1.2,1.8l-.8,2.8c-.1.4-.4.7-.8.8l-2.8.8c-.7.2-1.4.6-1.8,1.2-.4.6-.6,1.2-.6,1.9s.2,1.3.6,1.9c.4.6,1,1,1.8,1.2l2.8.8c.4.1.7.4.8.8l.8,2.8c.2.7.6,1.4,1.2,1.8.6.4,1.2.6,1.9.6.6,0,1.3-.2,1.9-.6.6-.4,1-1,1.2-1.8l.8-2.8c.1-.4.4-.7.8-.8l2.8-.8c.7-.2,1.4-.6,1.8-1.2.4-.6.6-1.2.6-1.9s-.2-1.3-.6-1.9c-.4-.6-1-1-1.8-1.2l-2.8-.8c-.4-.1-.7-.4-.8-.8l-.8-2.8-1,.3Z"/>
  <path class="cls-13" d="M109,271.1l.5,2c.1.5.5.9,1.1,1.1l2,.5c1.5.4,1.5,2.5,0,2.9l-2,.5c-.5.1-.9.5-1.1,1.1l-.5,2c-.4,1.5-2.5,1.5-2.9,0l-.5-2c-.1-.5-.5-.9-1.1-1.1l-2-.5c-1.5-.4-1.5-2.5,0-2.9l2-.5c.5-.1.9-.5,1.1-1.1l.5-2c.4-1.5,2.5-1.5,2.9,0"/>
  <path class="cls-6" d="M109,271.1l-1,.3.5,2c.2.9.9,1.5,1.8,1.8l2,.5c.2,0,.2.1.3.2,0,0,0,.2,0,.3s0,.2,0,.3c0,0-.1.1-.3.2l-2,.5c-.9.2-1.5.9-1.8,1.8l-.5,2c0,.2-.1.2-.2.3,0,0-.2,0-.3,0-.1,0-.2,0-.3,0,0,0-.1-.1-.2-.3l-.5-2c-.2-.9-.9-1.5-1.8-1.8l-2-.5c-.2,0-.2-.1-.3-.2,0,0,0-.2,0-.3s0-.2,0-.3c0,0,.1-.1.3-.2l2-.5c.9-.2,1.5-.9,1.8-1.8l.5-2c0-.2.1-.2.2-.3,0,0,.2,0,.3,0,.1,0,.2,0,.3,0,0,0,.1.1.2.3l1-.3,1-.3c-.2-.6-.5-1.1-.9-1.4-.4-.3-1-.5-1.5-.5s-1,.1-1.5.5c-.4.3-.8.8-.9,1.4l-.5,2c0,.2-.2.3-.3.3l-2,.5c-.6.2-1.1.5-1.4.9-.3.4-.5,1-.5,1.5s.1,1,.5,1.5c.3.4.8.8,1.4.9l2,.5c.2,0,.3.2.3.3l.5,2c.2.6.5,1.1.9,1.4.4.3,1,.5,1.5.5s1-.1,1.5-.5c.4-.3.8-.8.9-1.4l.5-2c0-.2.2-.3.3-.3l2-.5c.6-.2,1.1-.5,1.4-.9.3-.4.5-1,.5-1.5s-.1-1-.5-1.5c-.3-.4-.8-.8-1.4-.9l-2-.5c-.2,0-.3-.2-.3-.3l-.5-2-1,.3Z"/>
  <path class="cls-13" d="M105.9,229c0,1.4-1.2,2.6-2.6,2.6s-2.6-1.2-2.6-2.6,1.2-2.6,2.6-2.6,2.6,1.2,2.6,2.6"/>
  <path class="cls-6" d="M105.9,229h-1c0,.9-.7,1.6-1.6,1.6-.9,0-1.6-.7-1.6-1.6,0-.9.7-1.6,1.6-1.6.9,0,1.6.7,1.6,1.6h2c0-2-1.6-3.6-3.6-3.6-2,0-3.6,1.6-3.6,3.6s1.6,3.6,3.6,3.6c2,0,3.6-1.6,3.6-3.6h-1Z"/>
  <path class="cls-13" d="M198.7,239.7c0,1.2-1,2.2-2.2,2.2s-2.2-1-2.2-2.2,1-2.2,2.2-2.2,2.2,1,2.2,2.2"/>
  <path class="cls-6" d="M198.7,239.7h-1c0,.7-.6,1.2-1.2,1.2-.7,0-1.2-.6-1.2-1.2,0-.7.6-1.2,1.2-1.2.7,0,1.2.6,1.2,1.2h2c0-1.8-1.5-3.2-3.2-3.2-1.8,0-3.2,1.5-3.2,3.2,0,1.8,1.5,3.2,3.2,3.2,1.8,0,3.2-1.5,3.2-3.2h-1Z"/>
  <path class="cls-6" d="M96.2,328.7h1v-135h134v134H96.2v1h1-1v1h136c.3,0,.5-.1.7-.3s.3-.4.3-.7v-136c0-.3-.1-.5-.3-.7-.2-.2-.4-.3-.7-.3H96.2c-.3,0-.5.1-.7.3-.2.2-.3.4-.3.7v136c0,.3.1.5.3.7.2.2.4.3.7.3v-1Z"/>
  <path class="cls-5" d="M235.6,462.6l-5.4-21.9s-31,12-44.1-13.4c-13.1-25.4,30-82.5,44.1-94.6,7-6.1,17-8.3,25.3-9.1,8.3-.8,14.8,0,14.8,0h18.1c1.8,0,3.6,0,5.3.2,2.7.2,5.3.7,7.7,1.2,27.1,6.5,33.5,32.3,33.5,32.3l19,105.2"/>
  <path class="cls-6" d="M236.6,462.4l-5.4-21.9c0-.3-.3-.5-.5-.6-.3-.1-.6-.1-.8,0h0c-.8.3-7.6,2.8-15.9,2.8-4.7,0-9.8-.8-14.5-3.1-4.7-2.3-9.1-6.2-12.3-12.6-1.6-3.1-2.3-6.7-2.3-10.8,0-6.8,2.1-14.8,5.5-23,5.1-12.4,13-25.3,20.7-36.1,3.9-5.4,7.8-10.3,11.2-14.3,3.5-4,6.5-7.2,8.7-9.1,6.8-5.8,16.6-8.1,24.7-8.9,2.7-.2,5.2-.3,7.3-.3s4,0,5.3.2c.6,0,1.1,0,1.5.1.2,0,.3,0,.4,0h.1s.1,0,.1,0h18.1c1.8,0,3.6,0,5.3.2h0c2.7.2,5.2.6,7.5,1.2,13.2,3.2,21.4,11.1,26.3,18.2,2.4,3.6,4.1,6.9,5.1,9.4.5,1.2.9,2.2,1.1,2.9.1.3.2.6.2.8,0,0,0,.2,0,.2h0c0,0,1-.2,1-.2l-1,.2,19,105.2c0,.5.6.9,1.2.8.5,0,.9-.6.8-1.2l-19-105.2h0c0-.1-1.7-6.7-6.8-14.1-5.1-7.4-13.7-15.7-27.5-19-2.4-.6-5-1-7.8-1.3h0c-1.7-.2-3.6-.2-5.4-.2h-18.1v1-1c0,0-2.9-.4-7.4-.4-2.2,0-4.7,0-7.5.3-8.3.8-18.5,3-25.8,9.3-3.2,2.7-7.6,7.5-12.6,13.7-7.4,9.2-16,21.4-22.7,34-6.7,12.6-11.6,25.6-11.6,36.4,0,4.3.8,8.3,2.5,11.7,3.4,6.7,8.2,10.9,13.2,13.5,5.1,2.5,10.5,3.3,15.4,3.3,9.2,0,16.6-2.9,16.7-2.9l-.4-.9-1,.2,5.4,21.9c.1.5.7.9,1.2.7.5-.1.9-.7.7-1.2Z"/>
  <path class="cls-6" d="M254.8,420.7h-35.9c-2.5,0-4.9-1.3-6.2-3.5l-33.2-53.7c-1.7-2.7.3-6.2,3.4-6.2h35.9c2.5,0,4.9,1.3,6.2,3.5l33.2,53.6c1.7,2.7-.3,6.2-3.4,6.2"/>
  <path class="cls-6" d="M254.8,420.7v-1h-35.9c-2.2,0-4.2-1.1-5.4-3l-33.2-53.6c-.3-.5-.5-1.1-.5-1.6,0-.8.3-1.6.9-2.1.5-.6,1.3-.9,2.2-.9h35.9c2.2,0,4.2,1.1,5.4,3l33.2,53.7c.3.5.5,1.1.5,1.6,0,.8-.3,1.6-.9,2.1-.5.6-1.3.9-2.2.9v2c1.5,0,2.7-.6,3.6-1.5.9-.9,1.4-2.2,1.4-3.5,0-.9-.2-1.8-.8-2.6l-33.2-53.7c-1.5-2.5-4.2-3.9-7.1-3.9h-35.9c-1.5,0-2.7.6-3.6,1.5-.9.9-1.4,2.2-1.4,3.5,0,.9.2,1.8.8,2.6l33.2,53.7c1.5,2.5,4.2,3.9,7.1,3.9h35.9v-1Z"/>
  <path class="cls-10" d="M187.8,387.9s-8.8-7.3-.2-11.1c7.6-3.4,16.5-1.5,17.9,1.6,1.3,3.1-6.9,6.8-6.9,6.8,0,0,6.1-2.4,9.5-.1,3.4,2.2,3,6.4-3.1,8.3,0,0,5.3-1.2,7.7,2.8,2.4,4-5,6.1-5,6.1,0,0,4.7-2.1,6.4,1.2.9,1.8-.9,4.3-2.6,6.2-1.6,1.7-1.9,4.2-.9,6.2l.7,1.3s-10.9-.1-10.2-10.2c0,0-7.4.3-6.2-8.6,0,0-7.4,2.1-6.9-10.4"/>
  <path class="cls-6" d="M187.8,387.9l.6-.8h0c0,0-1-.9-1.9-2-.4-.6-.9-1.2-1.2-1.9-.3-.7-.5-1.3-.5-1.9,0-.6.2-1.2.6-1.8.5-.6,1.2-1.2,2.5-1.8,2.7-1.2,5.6-1.7,8.2-1.7,2.2,0,4.2.4,5.7.9.7.3,1.4.6,1.8.9.5.3.7.7.8.9,0,.1,0,.2,0,.3,0,.2,0,.4-.2.6-.2.5-.7,1-1.4,1.6-1,.8-2.2,1.6-3.2,2.1-.5.3-.9.5-1.2.6-.2,0-.3.1-.4.2h-.1c-.5.3-.7.9-.5,1.4.2.5.8.7,1.3.5h0c.3-.1,2.8-1,5.3-1,1.2,0,2.4.2,3.2.8.6.4,1,.8,1.3,1.2.3.4.4.9.4,1.3,0,.6-.3,1.3-1,2-.7.7-1.9,1.4-3.6,1.9-.5.2-.8.7-.7,1.2.1.5.7.8,1.2.7h0c0,0,0,0,0,0h0,0c0,0,0,0,0,0,0,0,.7-.1,1.6-.1.8,0,1.8.1,2.7.5.9.4,1.7,1,2.4,2,.3.4.3.8.3,1,0,.4-.2.8-.6,1.3-.6.7-1.7,1.3-2.6,1.7-.4.2-.9.3-1.1.4-.1,0-.3,0-.3.1h0s0,0,0,0l.3,1,.4.9v-.2c0,0,0,.2,0,.2h0s0-.2,0-.2v.2c.1,0,1.5-.6,2.8-.6.5,0,1,0,1.4.3.4.2.7.5,1,1,0,.2.1.4.1.6,0,.5-.3,1.3-.8,2.1-.5.8-1.2,1.6-1.8,2.4-1.1,1.2-1.7,2.8-1.7,4.4s.2,2,.7,2.9l.7,1.3.9-.5v-1s0,0,0,0c-.2,0-2.7-.1-4.9-1.2-1.1-.6-2.2-1.3-3-2.4-.8-1.1-1.3-2.6-1.3-4.6,0-.3,0-.6,0-.9,0-.3,0-.6-.3-.8-.2-.2-.5-.3-.8-.3h0c-.2,0-1.7,0-2.9-.8-.6-.4-1.2-.9-1.6-1.6-.4-.8-.8-1.8-.8-3.3,0-.5,0-1.1.1-1.7,0-.3,0-.7-.3-.9-.3-.2-.6-.3-.9-.2v.5c.1,0,0-.5,0-.5h0s.1.5.1.5v-.5c-.1,0-.2,0-.4,0-.2,0-.4,0-.7,0-.4,0-.9,0-1.4-.2-.7-.3-1.5-.8-2.2-2-.7-1.2-1.2-3.1-1.2-6,0-.4,0-.9,0-1.3,0-.3-.1-.6-.4-.8l-.6.8h-1c0,.4,0,.9,0,1.4,0,2.1.2,3.8.7,5.2.6,2,1.7,3.4,2.8,4.1,1.2.8,2.3.9,3.2.9.8,0,1.4-.2,1.5-.2l-.3-1h-1c0,.6-.1,1.2-.1,1.8,0,1.8.4,3.2,1,4.3.9,1.7,2.4,2.5,3.6,3,1.2.4,2.3.5,2.6.5h0s0-1,0-1h-1c0,.3,0,.6,0,1,0,2.5.7,4.4,1.8,5.9,1.6,2.2,4,3.3,5.9,3.8,1.9.5,3.4.6,3.5.6.3,0,.7-.2.9-.5.2-.3.2-.7,0-1l-.7-1.3c-.3-.6-.5-1.3-.5-2,0-1.1.4-2.2,1.2-3,.7-.8,1.5-1.7,2.1-2.7.6-1,1-2,1-3.1,0-.5-.1-1-.3-1.5-.4-.9-1.1-1.5-1.9-1.9-.8-.4-1.5-.5-2.3-.5-1.9,0-3.4.7-3.5.7-.5.2-.7.8-.5,1.3.2.5.7.8,1.2.6,0,0,1.5-.4,3-1.2.7-.4,1.5-.9,2.1-1.6.6-.7,1.1-1.6,1.1-2.6,0-.7-.2-1.4-.6-2.1-.9-1.5-2.1-2.4-3.3-2.8-1.2-.5-2.5-.6-3.4-.6-1.1,0-1.9.2-2,.2l.2,1,.3,1c1.9-.6,3.4-1.4,4.4-2.4,1-1,1.6-2.2,1.6-3.4,0-.8-.2-1.6-.7-2.3-.4-.7-1.1-1.3-1.9-1.9-1.3-.9-2.9-1.1-4.3-1.1-3.1,0-6,1.1-6,1.2l.4.9.4.9s1.8-.8,3.7-2c.9-.6,1.9-1.3,2.6-2.1.4-.4.7-.8,1-1.3.2-.5.4-1,.4-1.6,0-.4,0-.7-.2-1.1-.3-.7-.8-1.3-1.5-1.8-1-.7-2.2-1.3-3.7-1.7-1.5-.4-3.2-.6-5-.6-2.9,0-6,.5-9,1.9-1.5.7-2.6,1.5-3.3,2.4-.7.9-1,2-1,3,0,1,.3,2,.7,2.9.6,1.3,1.5,2.4,2.3,3.2.7.8,1.3,1.3,1.4,1.3l.6-.8h-1s1,0,1,0Z"/>
  <path class="cls-10" d="M187.8,387.9s1.3.4,3.7,0c2.4-.4,7-2.7,7-2.7"/>
  <path class="cls-6" d="M187.6,388.8c0,0,.8.2,2,.2s1.3,0,2.2-.2c.7-.1,1.5-.3,2.3-.6,2.4-.8,5-2.2,5-2.2.5-.3.7-.9.4-1.3-.3-.5-.9-.7-1.3-.4,0,0,0,0-.2,0-.4.2-1.6.8-2.9,1.3-1.3.5-2.7,1.1-3.6,1.2-.8.1-1.4.1-1.9.1s-.9,0-1.1,0c-.1,0-.2,0-.3,0h0s0,0,0,0h0c0,0,0,0,0,0h0c0,0,0,0,0,0-.5-.1-1.1.2-1.2.7-.1.5.2,1.1.7,1.2Z"/>
  <path class="cls-10" d="M194.7,398.3s1.5.5,3.8-.9c2.3-1.4,6.4-4.1,6.4-4.1"/>
  <path class="cls-6" d="M194.4,399.2c0,0,.4.1,1,.1.8,0,2.1-.2,3.6-1.2,2.3-1.4,6.4-4.1,6.4-4.1.5-.3.6-.9.3-1.4-.3-.5-.9-.6-1.4-.3,0,0-1,.7-2.3,1.5-1.3.8-2.9,1.9-4,2.6-1.2.7-2.1.9-2.6.9-.2,0-.3,0-.4,0h0s0,0,0,0l-.2.6.2-.6h0s-.2.6-.2.6l.2-.6c-.5-.2-1.1.1-1.3.6-.2.5.1,1.1.6,1.3Z"/>
  <path class="cls-10" d="M200.9,406.9s2.9-4.1,6.6-4.7"/>
  <path class="cls-6" d="M201.7,407.4h0c0,0,.8-1.1,1.9-2.1,1.1-1,2.6-2,4.1-2.2.5,0,.9-.6.8-1.1,0-.5-.6-.9-1.1-.8-2.2.4-4,1.7-5.2,2.8-1.3,1.2-2,2.3-2.1,2.3-.3.4-.2,1.1.2,1.4.5.3,1.1.2,1.4-.2Z"/>
  <path class="cls-10" d="M300.3,401.7l-14.4-14.1s-20.1-21.1-35.6-20.4c-15.6.7-28.1,4.2-22.3,8.5,0,0,1.6,1.3,6.1,1.5,4.6.2,17.6-.8,24,4.3,0,0-22,0-27.7,1.8-5.4,1.7-5.9,7.2-2.2,8.7,0,0-2.8,2.1-.7,5.3,2.2,3.3,7.8,1.5,7.8,1.5,0,0-3.7,3.8.9,5.8,4.6,2,12.2-1.8,21.1,3.8,8.9,5.7,11.8,6.4,18.7,7.6,6.9,1.2,17.3,11.3,17.3,11.3,0,0,14.3-8.9,7-25.8"/>
  <path class="cls-6" d="M300.3,401.7l.7-.7-14.4-14.1-.7.7.7-.7s-4.9-5.2-11.8-10.3c-3.4-2.6-7.4-5.2-11.4-7.1-4.1-2-8.3-3.3-12.4-3.3-.3,0-.5,0-.8,0-6.5.3-12.5,1.1-16.9,2.2-2.2.6-4,1.2-5.4,2-.7.4-1.2.8-1.7,1.3-.4.5-.7,1.1-.7,1.8,0,.6.2,1.1.5,1.6.3.5.8.9,1.3,1.3l.6-.8-.6.8c.2.2,2,1.5,6.8,1.7.5,0,1.2,0,1.9,0s1,0,1.5,0c2.9,0,6.7,0,10.4.6,3.7.5,7.2,1.6,9.6,3.5l.6-.8v-1s-5.5,0-11.7.2c-3.1.1-6.4.3-9.3.6-1.4.1-2.8.3-4,.5-1.2.2-2.2.4-3,.6-3.4,1.1-5.3,3.7-5.3,6.2,0,.9.3,1.8.8,2.6.5.8,1.3,1.4,2.2,1.8l.4-.9-.6-.8c0,0-.5.4-1,1-.5.6-.9,1.6-.9,2.8,0,.9.3,1.9.9,2.9.7,1,1.6,1.6,2.5,2,1,.4,2,.5,2.9.5,1.9,0,3.5-.5,3.6-.5l-.3-1-.7-.7s-.4.4-.8,1.1c-.4.6-.8,1.5-.8,2.6,0,.7.2,1.4.7,2.1.5.7,1.2,1.2,2.2,1.6,1.4.6,2.9.7,4.6.7,1.5,0,3.1-.1,4.8-.1,3.5,0,7.4.4,11.6,3.1,4.5,2.8,7.5,4.5,10.2,5.6,2.8,1.1,5.3,1.6,8.8,2.2,1.5.3,3.4,1.1,5.3,2.2,2.8,1.6,5.7,3.9,7.9,5.7,1.1.9,2,1.7,2.6,2.3.3.3.6.5.7.7.2.2.3.2.3.2.3.3.8.4,1.2.1,0,0,2.4-1.5,4.8-4.4,2.4-2.9,4.8-7.2,4.8-12.9,0-2.9-.6-6.2-2.2-9.7,0-.1-.1-.2-.2-.3l-.7.7-.9.4c1.4,3.3,2,6.3,2,8.9,0,5.1-2.1,9-4.3,11.7-1.1,1.3-2.2,2.3-3,3-.4.3-.7.6-1,.7-.1,0-.2.1-.3.2h0s0,0,0,0l.5.8.7-.7s-2.6-2.6-6.2-5.3c-1.8-1.4-3.7-2.8-5.7-3.9-2-1.1-4-2.1-5.9-2.4-3.4-.6-5.8-1.1-8.4-2.1-2.6-1-5.5-2.6-9.9-5.4-4.6-3-9-3.5-12.7-3.4-1.8,0-3.4.1-4.8.1-1.5,0-2.8-.1-3.8-.6-.8-.3-1.2-.7-1.4-1-.2-.3-.3-.6-.3-.9,0-.5.2-1.1.5-1.6.1-.2.3-.4.4-.6v-.2c.1,0,.2,0,.2,0h0s-.2-.2-.2-.2l.2.2h0s-.2-.2-.2-.2l.2.2c.3-.3.4-.8.1-1.2-.2-.4-.7-.6-1.1-.4h0c-.1,0-1.5.4-3,.4-.7,0-1.5,0-2.2-.3-.7-.2-1.2-.6-1.6-1.2-.5-.7-.6-1.3-.6-1.8,0-.6.3-1.2.6-1.6.1-.2.3-.4.4-.5h.1c0-.1,0-.1,0-.1h0s-.3-.4-.3-.4l.3.4h0s-.3-.4-.3-.4l.3.4c.3-.2.4-.6.4-.9,0-.4-.3-.7-.6-.8-.6-.3-1-.6-1.3-1.1-.3-.4-.4-1-.4-1.5,0-1.5,1.1-3.4,3.9-4.3.6-.2,1.6-.4,2.7-.6,3.9-.6,10.1-.9,15.3-1.1,2.6,0,4.9-.1,6.6-.1,1.7,0,2.7,0,2.7,0,.4,0,.8-.3.9-.7.1-.4,0-.9-.3-1.1-2.8-2.2-6.7-3.3-10.5-3.9-3.9-.6-7.7-.6-10.7-.6-.5,0-1.1,0-1.5,0-.7,0-1.3,0-1.9,0-2.2,0-3.6-.4-4.5-.7-.4-.2-.7-.3-.9-.4h-.2c0-.1,0-.1,0-.1l-.3.4.3-.4h0s-.3.4-.3.4l.3-.4h0c-.4-.4-.7-.6-.8-.9-.1-.2-.2-.4-.2-.5,0-.1,0-.3.3-.6.4-.5,1.3-1.1,2.6-1.6,2-.8,4.9-1.6,8.3-2.1,3.4-.6,7.4-1,11.6-1.1.2,0,.5,0,.7,0,3.6,0,7.6,1.2,11.5,3.1,5.9,2.8,11.5,7.1,15.7,10.6,2.1,1.8,3.8,3.4,5,4.5.6.6,1.1,1,1.4,1.4.2.2.3.3.4.4h.1c0,.1,0,.1,0,.1l14.4,14.1.7-.7-.9.4.9-.4Z"/>
  <path class="cls-10" d="M228.3,392s2-2.3,8.8-2.1c6.8.2,16.3,0,16.3,0"/>
  <path class="cls-6" d="M229,392.7l-.3-.3.3.3h0s-.3-.3-.3-.3l.3.3s1.7-1.8,7.2-1.8c.3,0,.6,0,.9,0,2.2,0,4.6,0,7,0,5,0,9.4-.1,9.4-.1.6,0,1-.5,1-1,0-.6-.5-1-1-1,0,0-1.1,0-2.8,0-1.7,0-4,0-6.5,0s-4.8,0-6.9,0c-.3,0-.6,0-.9,0-3.2,0-5.3.5-6.6,1.1-1.4.6-1.9,1.2-2,1.3-.4.4-.3,1.1.1,1.4.4.4,1.1.3,1.4-.1Z"/>
  <path class="cls-10" d="M235.4,398.9s2.7-.8,6.1-1.1c3.4-.3,10.9,0,10.9,0"/>
  <path class="cls-6" d="M235.7,399.8h0c.3,0,2.8-.8,5.8-1.1,1.1,0,2.7-.1,4.3-.1s3.2,0,4.5,0c1.2,0,2.1,0,2.1,0,.6,0,1-.4,1-1,0-.6-.4-1-1-1,0,0-3.3-.1-6.6-.1s-3.2,0-4.4.1c-3.5.3-6.3,1.1-6.3,1.1-.5.2-.8.7-.7,1.3.2.5.7.8,1.3.7Z"/>
  <path class="cls-6" d="M231.3,440.6l-11.4-60.2c-.1-.5-.6-.9-1.2-.8-.5.1-.9.6-.8,1.2l11.4,60.2c.1.5.6.9,1.2.8s.9-.6.8-1.2"/>
  <path class="cls-5" d="M298.8,332.1l-5.1-8.2-.4-.6s3.1-.4,8.2-.5c12.7-.3,37.4,1.5,55,17.3,24.5,22,49.1,92.8,26,113.3-15.4,13.7-38.9,14.1-57.5,9.3-9.3-2.4-17.4-6.1-22.6-10-15.7-11.8-9.1-25.2-9.1-25.2l7-25.8s3.1-8,18.5.4c15.4,8.5,20.2,10.6,20.2,10.6l-.5-16.3"/>
  <path class="cls-6" d="M299.7,331.6l-5.1-8.2-.4-.6-.9.5v1c.1,0,.2,0,.3,0,.6,0,3.6-.4,7.9-.5.7,0,1.4,0,2.2,0,6.5,0,15.5.6,24.9,3,9.4,2.4,19.1,6.7,27.2,14,8.6,7.7,17.4,21.8,24,37.6,6.6,15.8,10.9,33.3,10.9,47.8,0,5.7-.7,10.9-2.1,15.4-1.5,4.5-3.7,8.2-6.8,11-9.6,8.5-22.5,11.8-35.4,11.8s-14.6-1-21.2-2.8c-9.2-2.4-17.2-6-22.3-9.8-4.1-3.1-6.6-6.3-8.1-9.3-1.5-3-1.9-5.8-1.9-8.1,0-2,.3-3.6.7-4.8.2-.6.3-1,.4-1.3,0-.1.1-.3.1-.3h0c0,0,0,0,0,0h0s0,0,0,0h0s0,0,0,0v-.2c0,0,7-25.8,7-25.8l-1-.3.9.4h0s0,0,0,0h0s0,0,0,0h0c0,0,.4-.8,1.2-1.4.8-.7,2.2-1.3,4.4-1.3,2.5,0,6.2.9,11.4,3.8,15.4,8.5,20.2,10.7,20.3,10.7.3.1.7.1,1,0,.3-.2.5-.5.4-.9l-.5-16.3c0-.6-.5-1-1-1-.6,0-1,.5-1,1l.5,16.3h1s.4-.9.4-.9h0c-.5-.3-5.6-2.7-20.1-10.6-5.4-3-9.4-4-12.4-4-2.8,0-4.8,1-5.9,2-1.2,1-1.5,2-1.6,2.1h0c0,0-7,25.9-7,25.9l1,.3-.9-.4c0,0-1.5,3-1.5,7.4,0,2.6.5,5.7,2.1,9,1.6,3.3,4.3,6.7,8.7,10,5.4,4,13.6,7.7,23,10.2,6.8,1.7,14.2,2.8,21.7,2.8,13.2,0,26.6-3.3,36.7-12.3,3.4-3,5.8-7.1,7.3-11.9,1.5-4.8,2.2-10.2,2.2-16.1,0-14.9-4.4-32.6-11.1-48.6-6.7-16-15.5-30.3-24.5-38.3-8.4-7.6-18.5-12-28.1-14.4-9.6-2.5-18.7-3.1-25.4-3.1s-1.5,0-2.2,0c-5.1.1-8.3.5-8.3.5-.3,0-.6.3-.8.6-.1.3-.1.7,0,1l.4.6,5.1,8.2c.3.5.9.6,1.4.3.5-.3.6-.9.3-1.4Z"/>
  <path class="cls-3" d="M339,412.8s2.9,1.9,6.9,1.9"/>
  <path class="cls-6" d="M338.5,413.6c0,0,3.1,2,7.4,2.1.6,0,1-.4,1-1s-.4-1-1-1c-1.8,0-3.4-.4-4.6-.9-.6-.2-1-.4-1.3-.6-.2,0-.3-.1-.3-.2h0s0,0,0,0c-.5-.3-1.1-.2-1.4.3-.3.5-.2,1.1.3,1.4Z"/>
  <path class="cls-13" d="M301.6,322.8c0,.8,0,1.6-.1,2.4,0,.1,0,.2,0,.3-.4,2.4-1.3,4.6-2.6,6.7-4.4,7-13.6,12-23.5,12s-21.8-8.3-20.2-18.6c0-.6.2-1.2.4-1.8,8.3-.8,14.8,0,14.8,0h18.1c1.8,0,3.6,0,5.3.2l-.4-.6s3.1-.4,8.2-.5"/>
  <path class="cls-6" d="M301.6,322.8h-1c0,.2,0,.3,0,.5,0,.6,0,1.2-.1,1.7h0c0,.2,0,.2,0,.3h0c-.3,2.2-1.2,4.3-2.4,6.3-2.1,3.3-5.4,6.2-9.3,8.3-3.9,2-8.6,3.2-13.3,3.2-5.7,0-10.6-1.7-14-4.5-3.4-2.8-5.4-6.5-5.4-10.8,0-.7,0-1.4.2-2.2h0c0-.6.2-1.1.4-1.7l-1-.3v1c2.8-.2,5.2-.3,7.4-.3s4,0,5.3.2c.6,0,1.1,0,1.5.1.2,0,.3,0,.4,0h.1s.1,0,.1,0h18.1c1.8,0,3.6,0,5.3.2.4,0,.7-.1.9-.5.2-.3.2-.7,0-1.1l-.4-.6-.9.5v1c.1,0,.2,0,.3,0,.6,0,3.6-.4,7.9-.5v-1s-1,0-1,0h1s0-1,0-1c-5.1.1-8.3.5-8.3.5-.3,0-.6.3-.8.6-.1.3-.1.7,0,1l.4.6.9-.5v-1c-1.7-.2-3.5-.2-5.3-.2h-18.1v1-1c0,0-2.9-.4-7.4-.4s-4.7,0-7.5.3c-.4,0-.8.3-.9.7-.2.6-.3,1.3-.4,1.9h0c-.1.9-.2,1.7-.2,2.5,0,4.9,2.3,9.3,6.2,12.4,3.8,3.1,9.2,4.9,15.3,4.9,5.1,0,10-1.3,14.2-3.5,4.2-2.2,7.8-5.3,10.1-9,1.4-2.2,2.3-4.5,2.7-7l-1-.2,1,.2c0-.2,0-.3,0-.4h-1c0,0,1,0,1,0,.1-.7.2-1.4.2-2s0-.4,0-.5c0-.5-.5-1-1-1v1Z"/>
  <path class="cls-6" d="M281.7,234.4c.6,6.9-7.7,13.2-18.6,14.1-10.8.9-20-4-20.6-10.9-.6-6.9,7.7-13.2,18.6-14.1,10.8-.9,20,4,20.6,10.9"/>
  <path class="cls-6" d="M281.7,234.4h-1c0,.3,0,.5,0,.7,0,1.5-.4,2.9-1.3,4.3-1.3,2.1-3.4,4-6.3,5.4-2.8,1.5-6.3,2.5-10.1,2.8-.8,0-1.6,0-2.4,0-4.7,0-8.9-1.1-12-3-1.5-.9-2.8-2-3.6-3.2-.9-1.2-1.4-2.5-1.5-3.9,0-.2,0-.4,0-.6,0-1.5.4-2.9,1.3-4.3,1.3-2.1,3.4-4,6.3-5.4,2.8-1.5,6.3-2.5,10.1-2.8.8,0,1.6-.1,2.4-.1,4.7,0,8.9,1.1,12,3,1.5.9,2.8,2,3.6,3.2.9,1.2,1.4,2.5,1.5,3.9h1c0,0,1-.2,1-.2-.1-1.8-.8-3.4-1.9-4.9-1.6-2.2-4-3.9-7-5.1-3-1.2-6.5-1.9-10.2-1.9s-1.7,0-2.6.1c-5.4.4-10.2,2.2-13.7,4.7-1.8,1.3-3.2,2.8-4.2,4.4-1,1.6-1.6,3.4-1.6,5.3,0,.2,0,.5,0,.7.1,1.8.8,3.4,1.9,4.9,1.6,2.2,4,3.9,7,5.1,3,1.2,6.5,1.9,10.2,1.9s1.7,0,2.6-.1c5.4-.4,10.2-2.2,13.7-4.7,1.8-1.3,3.2-2.8,4.2-4.4,1-1.6,1.6-3.4,1.6-5.3,0-.2,0-.5,0-.7h-1Z"/>
  <path class="cls-10" d="M286.5,231.4c-21.9-7.7-46.2,4.5-54.3,27.3-.3.7-.5,1.5-.8,2.2h0c-2.1-.7-4.3.3-5,2.4-.7,2.1.4,4.3,2.4,5,.2,0,.4,0,.5.1-4.3,19-.1,37.9,28.4,44.3.8.2,1.5.3,2.3.5l4,17.5s2.3,7.1,16.4,4.1c13.7-2.8,13-10,13-10l-3.3-14.4c9.7-4.3,17.4-12.2,21.5-23.8,8.1-22.8-3.1-47.6-25-55.4"/>
  <path class="cls-6" d="M286.5,231.4l.4-1c-4.6-1.6-9.3-2.4-13.9-2.4-18.1,0-35.2,11.8-41.8,30.4-.3.7-.5,1.5-.8,2.2l1,.3.5-1h0s0,0,0,0c-.6-.2-1.1-.3-1.7-.3-2.1,0-4,1.3-4.8,3.4-.2.6-.3,1.1-.3,1.7,0,2.1,1.3,4,3.4,4.8.3.1.5.1.7.2l.2-1.1-1.1-.2c-.9,4.1-1.5,8.2-1.5,12.1,0,7.4,1.9,14.6,6.7,20.4,4.8,5.9,12.5,10.5,23.9,13,.8.2,1.6.3,2.3.5l.2-1.1-1.1.2,4,17.5h0c0,.2.5,1.6,2.2,3,1.7,1.4,4.5,2.7,9,2.7,1.9,0,4-.2,6.5-.7,6.4-1.3,9.9-3.6,11.8-5.8,1.9-2.2,2.1-4.3,2.1-5.1,0-.2,0-.2,0-.3h0c0-.1-3.3-14.5-3.3-14.5l-1.1.2.4,1c10-4.4,17.9-12.5,22.1-24.4,1.8-5.1,2.7-10.4,2.7-15.5,0-9.1-2.7-17.9-7.6-25.1-4.9-7.3-12-13-20.8-16.1l-.4,1-.4,1c8.3,2.9,15,8.4,19.7,15.3,4.7,6.9,7.2,15.2,7.2,23.9s-.8,9.9-2.6,14.8c-4,11.4-11.5,19-21,23.1-.5.2-.7.7-.6,1.3l3.3,14.4,1.1-.2h-1.1c0,.1.6,0,.6,0h-.6s0,0,0,0h.6c0,0-.6,0-.6,0h0c0,.5,0,2-1.6,3.7-1.5,1.8-4.5,3.8-10.5,5.1-2.3.5-4.3.7-6,.7-4.1,0-6.3-1.1-7.6-2.2-.6-.5-1-1-1.2-1.4-.1-.2-.2-.3-.2-.4h0c0,0-1,.2-1,.2l1.1-.2-4-17.5c0-.4-.4-.8-.9-.8-.8-.1-1.5-.3-2.3-.5-11.1-2.5-18.3-6.8-22.7-12.2-4.4-5.4-6.2-12-6.2-19.1,0-3.8.5-7.7,1.4-11.7,0-.3,0-.6-.2-.8s-.4-.4-.7-.5c-.2,0-.3,0-.4,0-1.2-.4-1.9-1.5-1.9-2.7,0-.3,0-.6.2-1,.4-1.2,1.5-1.9,2.7-1.9.3,0,.6,0,1,.2l.4-1-.5,1h0c.3.1.6.1.9,0,.3-.1.5-.4.6-.7.2-.7.5-1.5.7-2.2,6.3-17.8,22.6-28.9,39.7-28.9,4.4,0,8.8.7,13.2,2.3l.4-1Z"/>
  <path class="cls-6" d="M242.7,259c-.5,1.5-1.5,2.5-2.2,2.2-.7-.3-.9-1.7-.3-3.2.5-1.5,1.5-2.5,2.2-2.2.7.3.9,1.7.3,3.2"/>
  <path class="cls-6" d="M242.7,259l-.9-.3c-.2.6-.5,1-.7,1.3-.1.1-.2.2-.3.3h0s0,0,0,0h0s0,0,0,0h0s0,0,0,0v.2s0-.2,0-.2h0s0,.2,0,.2v-.2.3-.3c.1,0,0,0,0,0v.3-.3c.1,0,.1,0,.1,0v.3c0,0,.1-.2.1-.2h-.1c0,0,0,.2,0,.2l.2-.2h0s0,0,0,0h0s0,0,0,0h0s-.1-.3-.1-.6c0-.4,0-.9.3-1.4.2-.6.5-1,.7-1.3.1-.1.2-.2.3-.3h0s0,0,0,0h0s0,0,0,0h0s0,0,0,0v-.2s0,.2,0,.2h0s0-.2,0-.2v.2-.3.3c-.1,0,0,0,0,0v-.3.3c-.1,0-.1,0-.1,0v-.3c0,0-.1.2-.1.2h.1c0,0,0-.2,0-.2l-.2.2h0c0,0,0,0,0,0h0s0,0,0,0h0s.1.3.1.6c0,.4,0,.9-.3,1.4l.9.3.9.3c.2-.7.4-1.4.4-2,0-.5,0-.9-.2-1.4,0-.2-.2-.4-.4-.6-.2-.2-.4-.4-.7-.4h0c-.2,0-.4,0-.6,0-.4,0-.8.1-1,.3-.4.3-.8.6-1.1,1.1-.3.4-.6,1-.8,1.6-.2.7-.4,1.4-.4,2,0,.5,0,.9.2,1.4,0,.2.2.4.4.6.2.2.4.4.7.4h0c.2,0,.4,0,.6,0,.4,0,.8-.1,1-.3.4-.3.8-.6,1.1-1.1.3-.4.6-1,.8-1.6l-.9-.3Z"/>
  <path class="cls-6" d="M244.6,249.3c.6-.2,1.4-.3,2.2-.3,1.2,0,2.5.2,3.8.7,2.2.8,4,2.1,4.9,3.5.3.5.9.6,1.4.2.5-.3.6-.9.2-1.4-1.2-1.8-3.3-3.3-5.9-4.2-1.5-.5-3.1-.8-4.5-.8s-1.9.1-2.7.4c-.5.2-.8.7-.7,1.2.2.5.7.8,1.2.7Z"/>
  <path class="cls-7" d="M251.2,266c-3.4,0-6.6,2.1-7.8,5.5-1.5,4.3.7,9,5,10.6.9.3,1.8.5,2.8.5,3.4,0,6.6-2.1,7.8-5.5,1.5-4.3-.7-9-5-10.6-.9-.3-1.8-.5-2.8-.5"/>
  <path class="cls-12" d="M233.8,273h-5.3c-.4,2.7-.6,5.4-.5,8.1,4.5-.5,6.5-3.4,7.5-5.5.5-1.2-.3-2.5-1.7-2.6"/>
  <path class="cls-6" d="M233.8,273v-1s-5.3,0-5.3,0c-.5,0-.9.4-1,.9-.4,2.4-.6,4.8-.6,7.1,0,.4,0,.8,0,1.2,0,.3.1.5.3.7.2.2.5.3.8.2,2.4-.3,4.3-1.2,5.6-2.4,1.3-1.2,2.2-2.6,2.7-3.7.2-.4.2-.8.2-1.1,0-.7-.3-1.4-.8-2-.5-.5-1.2-.9-2-.9v1s0,1,0,1c.2,0,.4,0,.6.2.1.2.2.4.2.6,0,.1,0,.2,0,.3-.4,1-1.1,2.1-2.2,3-1.1.9-2.5,1.7-4.5,1.9v1c.1,0,1.1,0,1.1,0,0-.4,0-.8,0-1.2,0-2.2.2-4.5.5-6.8h-1c0-.1,0,.9,0,.9h5.3c0,0,0-.9,0-.9Z"/>
  <path class="cls-6" d="M268.7,241.3c-.5,4.9.7,11.7-1.6,16-1.4,2.6-5.4,11.1-3.4,13.2,4.3,4.6,10.2-2,12.1-.2,1.9,1.9-1.1,8-1.7,10.6-1.6,7.4-1.2,15.2,1.3,22.4,1.3,3.9,3.5,7.9,7.3,9.6,3.6,1.7,7.9.9,11.6-.4,14.9-5.2,26.4-19,29-34.5,2.6-15.6-4-32.3-16.4-42-10.8-8.4-29.6-13.2-42.4-6.5,1.4,4.2,4.9,6.5,4.3,11.9"/>
  <path class="cls-6" d="M268.7,241.3h-1c-.1,1-.1,2.2-.1,3.5s0,2.2,0,3.3c0,1.6,0,3.3-.2,4.8-.2,1.5-.6,2.8-1.2,3.9-.6,1.1-1.6,3.1-2.5,5.3-.4,1.1-.8,2.3-1.1,3.4-.3,1.1-.5,2.2-.5,3.2,0,.5,0,.9.2,1.3.1.4.3.8.6,1.2.7.7,1.4,1.2,2.1,1.5.8.3,1.5.4,2.3.4,1.7,0,3.2-.6,4.6-1.2.7-.3,1.3-.5,1.8-.7.5-.2.9-.3,1.2-.3,0,0,.2,0,.2,0h0c0,.1.2.2.2.4,0,.2,0,.5,0,.8,0,1.1-.4,2.7-1,4.2-.5,1.6-1.1,3.1-1.4,4.2-.7,3-1,6.1-1,9.1,0,4.7.8,9.4,2.3,13.8.7,2,1.6,4.1,2.9,5.9,1.3,1.8,2.9,3.4,5,4.3,1.6.7,3.3,1,5,1,2.5,0,5-.6,7.3-1.4,15.2-5.4,27-19.4,29.6-35.3.4-2.3.6-4.6.6-7,0-13.8-6.4-27.5-17.3-36-7.5-5.8-18.5-9.9-29-9.9-5.1,0-10.1,1-14.5,3.2-.4.2-.6.7-.5,1.2.7,2.1,1.9,3.8,2.8,5.3.9,1.6,1.6,3.1,1.6,5.2,0,.3,0,.6,0,1h1c0,0,1,.2,1,.2,0-.4,0-.8,0-1.2,0-2.5-.9-4.5-1.8-6.2-1-1.7-2-3.2-2.6-4.9l-1,.3.5.9c4-2.1,8.7-3,13.6-3,10,0,20.7,3.9,27.8,9.5,10.4,8.1,16.6,21.3,16.6,34.4,0,2.2-.2,4.4-.5,6.6-2.5,15.2-13.8,28.7-28.3,33.8-2.2.8-4.5,1.3-6.7,1.3-1.5,0-2.9-.3-4.2-.8-1.7-.8-3.1-2.1-4.2-3.7-1.1-1.6-2-3.5-2.6-5.4-1.4-4.2-2.2-8.7-2.2-13.2s.3-5.8.9-8.7c.2-.9.8-2.4,1.3-4,.5-1.6,1-3.3,1.1-4.9,0-.5,0-.9-.2-1.4-.1-.4-.4-.9-.7-1.2-.2-.2-.5-.4-.8-.5-.3-.1-.6-.1-.8-.1-.6,0-1.2.2-1.8.4-.9.3-1.9.8-2.8,1.1-1,.4-1.9.6-2.8.6-.5,0-1,0-1.5-.3-.5-.2-1-.5-1.5-1,0,0-.1-.2-.2-.4,0-.2,0-.5,0-.8,0-.7.2-1.6.4-2.6.8-3,2.6-6.8,3.4-8.3.8-1.4,1.2-3,1.4-4.6.2-1.6.3-3.3.3-5s0-2.3,0-3.3,0-2.4.1-3.4h-1Z"/>
  <path class="cls-10" d="M265.8,288c1.3,1.6,3,2.8,5.1,3.4,5.3,1.5,10.9-1.6,12.4-6.9,1.5-5.3-1.6-10.9-6.9-12.4-2.1-.6-4.2-.5-6.1.2"/>
  <path class="cls-6" d="M265.1,288.6c1.4,1.7,3.3,3,5.6,3.7,1,.3,2,.4,3,.4,4.8,0,9.2-3.2,10.6-8,.3-1,.4-2,.4-3,0-4.8-3.2-9.2-8-10.6-1-.3-2-.4-3-.4-1.3,0-2.5.2-3.6.6-.5.2-.8.8-.6,1.3.2.5.8.8,1.3.6.9-.3,2-.5,3-.5.8,0,1.7.1,2.5.4,4,1.1,6.6,4.8,6.6,8.7,0,.8-.1,1.7-.4,2.5-1.1,4-4.8,6.6-8.7,6.6s-1.7-.1-2.5-.4c-1.9-.5-3.4-1.6-4.6-3-.3-.4-1-.5-1.4-.2-.4.3-.5,1-.2,1.4Z"/>
  <path class="cls-10" d="M276.9,282s-2.7-2-6.6-.7"/>
  <path class="cls-6" d="M277.5,281.2c0,0-1.8-1.3-4.5-1.3-.9,0-1.9.1-3,.5-.5.2-.8.8-.6,1.3.2.5.8.8,1.3.6.9-.3,1.6-.4,2.3-.4,1,0,1.9.2,2.5.5.3.1.5.2.7.3h.2c0,0,0,.1,0,.1h0s.3-.4.3-.4l-.3.4h0s.3-.4.3-.4l-.3.4c.4.3,1.1.2,1.4-.2.3-.4.2-1.1-.2-1.4Z"/>
  <path class="cls-6" d="M321.5,270.2s4.2,0,8.5,3.3c1.4,1.1,3.4-.4,2.6-2-1.9-3.8-5.4-8.2-12.1-10.8"/>
  <path class="cls-6" d="M321.5,271.2s0,0,.2,0c.8,0,4.3.4,7.7,3.1.5.4,1.1.6,1.7.6.7,0,1.4-.3,1.9-.8.5-.5.8-1.1.8-1.9,0-.4,0-.8-.3-1.2-1.9-4-5.7-8.6-12.7-11.3-.5-.2-1.1,0-1.3.6-.2.5,0,1.1.6,1.3,6.5,2.5,9.8,6.7,11.6,10.3,0,.1,0,.2,0,.3,0,.2,0,.3-.2.5-.1.1-.3.2-.5.2-.1,0-.3,0-.4-.2-4.5-3.5-8.9-3.5-9.1-3.5-.6,0-1,.4-1,1s.4,1,1,1"/>
  <path class="cls-6" d="M318.8,256.5s5.8.2,10-4.4c1.1-1.3,3.2-.3,2.9,1.4-.7,4.6-3.4,10.6-11.7,13.8"/>
  <path class="cls-6" d="M318.8,257.5s0,0,.2,0c.5,0,2.1,0,4.1-.7,2-.6,4.4-1.8,6.5-4.1.2-.2.3-.2.5-.2.2,0,.4,0,.5.2.1.1.2.3.2.5h0c0,.1,0,.1,0,.1-.4,2.2-1.2,4.7-2.8,7-1.7,2.3-4.2,4.5-8.2,6-.5.2-.8.8-.6,1.3.2.5.8.8,1.3.6,4.3-1.6,7.2-4.1,9.1-6.7,1.9-2.6,2.8-5.4,3.2-7.9h0c0-.2,0-.3,0-.5,0-.8-.3-1.5-.8-1.9-.5-.5-1.2-.7-1.9-.7-.7,0-1.5.3-2,.9-1.8,2-3.9,3-5.6,3.5-1.8.5-3.2.6-3.5.6h0s0,0,0,0c-.6,0-1,.4-1,1,0,.6.4,1,1,1Z"/>
  <path class="cls-6" d="M266.7,225.6c-5.5,1.8-10.5,6-13.6,11.5-1.1,1.9-2,4.1-1.5,6.2.5,2.1,2.4,3.4,4.4,3.7,1.9.3,4-.2,5.9-.8,4.4-1.2,8.8-2.3,13.2-3.5,1.1-.3,2.3-.6,3.2-1.5,1-1,1.4-2.5,1.4-3.9s-.4-2.8-1-4.1"/>
  <path class="cls-6" d="M266.4,224.6c-5.8,1.9-10.9,6.2-14.2,11.9-.9,1.6-1.7,3.4-1.7,5.4,0,.5,0,1,.2,1.5.3,1.3,1.1,2.3,2,3.1.9.7,2.1,1.2,3.2,1.4.4,0,.9,0,1.3,0,1.8,0,3.4-.5,5-.9,4.4-1.2,8.8-2.3,13.2-3.5,1.1-.3,2.5-.7,3.7-1.8,1.2-1.2,1.7-3,1.7-4.6h0c0-1.7-.5-3.2-1-4.5-.2-.5-.8-.8-1.3-.6-.5.2-.8.8-.5,1.3.5,1.2.9,2.5.9,3.7h1s-1,0-1,0h0c0,1.3-.4,2.5-1.1,3.2-.7.7-1.7,1-2.8,1.3-4.4,1.2-8.8,2.3-13.2,3.5-1.6.4-3.1.8-4.5.8-.3,0-.7,0-1,0-.8-.1-1.6-.5-2.2-1-.6-.5-1.1-1.2-1.3-2,0-.3-.1-.6-.1-1,0-1.4.6-3,1.5-4.4,3-5.3,7.8-9.3,13.1-11,.5-.2.8-.7.6-1.3-.2-.5-.7-.8-1.3-.6Z"/>
  <path class="cls-6" d="M266.5,235.2c-1.7,5.4-3.3,10.8-3.8,16.3-.3,3.5-.2,7.3,1.6,10.3,1.8,3.1,5.5,5.2,8.9,4.1,2.6-.8,4.4-3.3,5.6-5.8,2.9-6.3,3-13.5,2.6-20.4"/>
  <path class="cls-6" d="M265.6,235c-1.6,5.4-3.3,10.8-3.9,16.5,0,.9-.1,1.9-.1,2.9,0,2.8.4,5.6,1.9,8.1.8,1.4,2,2.6,3.4,3.5,1.4.9,3,1.4,4.6,1.4.7,0,1.4-.1,2.1-.3,1.5-.5,2.8-1.4,3.8-2.6,1-1.1,1.8-2.5,2.4-3.8,2.2-4.8,2.9-10.1,2.9-15.3,0-1.9,0-3.7-.2-5.5,0-.6-.5-1-1.1-.9-.6,0-1,.5-.9,1.1.1,1.8.2,3.6.2,5.4,0,5.1-.6,10.1-2.7,14.5-.5,1.2-1.2,2.4-2.1,3.3-.8.9-1.8,1.6-2.9,2-.5.2-1,.2-1.5.2-1.2,0-2.4-.4-3.5-1.1-1.1-.7-2.1-1.7-2.7-2.8-1.2-2.1-1.6-4.5-1.6-7.1s0-1.8.1-2.7c.5-5.4,2.1-10.8,3.8-16.1.2-.5-.1-1.1-.7-1.2-.5-.2-1.1.1-1.2.7Z"/>
  <path class="cls-9" d="M116.9,343.1c0-2.8-2.3-5.2-5.2-5.2s-5.2,2.3-5.2,5.2c0-2.8-2.3-5.2-5.2-5.2s-5.2,2.3-5.2,5.2c0,0-.8,9.1,10.3,13.3,11.1-4.2,10.3-13.3,10.3-13.3"/>
  <path class="cls-6" d="M116.9,343.1h1c0-3.4-2.8-6.2-6.2-6.2s-6.2,2.8-6.2,6.2c0,.3.1.5.3.7.2.2.4.3.7.3s.5-.1.7-.3.3-.4.3-.7c0-3.4-2.8-6.2-6.2-6.2s-6.2,2.8-6.2,6.2h1-1c0,0,0,.1,0,.4,0,1,.2,3.5,1.6,6.2,1.5,2.7,4.3,5.7,9.3,7.6.2,0,.5,0,.7,0,5.1-1.9,7.9-4.9,9.3-7.6,1.5-2.7,1.6-5.2,1.6-6.2,0-.3,0-.5,0-.5h-1c0,0,1,0,1,0h-2c0,0,.3,0,.3,0h-.3s.3,0,.3,0h-.3s0,.1,0,.4c0,.8-.1,2.9-1.4,5.3-1.3,2.3-3.6,4.9-8.3,6.7l.4.9.4-.9c-4.7-1.8-7-4.4-8.3-6.7-1.3-2.3-1.4-4.5-1.4-5.3,0-.1,0-.2,0-.3h0c0,0-.3,0-.3,0h.3s0,0,0,0h-.3s.3,0,.3,0h0c0-1.2.5-2.3,1.2-3,.8-.8,1.8-1.2,2.9-1.2s2.2.5,2.9,1.2c.8.8,1.2,1.8,1.2,2.9,0,.3.1.5.3.7.2.2.4.3.7.3s.5-.1.7-.3.3-.4.3-.7c0-1.2.5-2.2,1.2-2.9.8-.8,1.8-1.2,2.9-1.2s2.2.5,2.9,1.2c.8.8,1.2,1.8,1.2,2.9h0c0,0,1,0,1,0Z"/>
  <path class="cls-13" d="M141.9,351.7c.6-1.3,1-2.7,1-4.2,0-5.3-4.3-9.6-9.6-9.6s-9.6,4.3-9.6,9.6,4.3,9.6,9.6,9.6,3.8-.6,5.3-1.6l4.3.9-1-4.7Z"/>
  <path class="cls-6" d="M141.9,351.7l1,.5c.7-1.4,1.1-3,1.1-4.7,0-5.9-4.8-10.7-10.7-10.7-5.9,0-10.7,4.8-10.7,10.7,0,5.9,4.8,10.7,10.7,10.7,2.2,0,4.2-.7,5.9-1.8l-.6-.9-.2,1.1,4.3.9c.4,0,.7,0,1-.3.3-.3.4-.6.3-1l-1-4.7-1.1.2,1,.5-1-.5-1.1.2.6,3.1-2.6-.6c-.3,0-.6,0-.8.2-1.4.9-3,1.4-4.7,1.4s-4.5-1-6-2.5c-1.5-1.5-2.5-3.7-2.5-6s1-4.5,2.5-6c1.5-1.5,3.7-2.5,6-2.5,2.4,0,4.5,1,6,2.5,1.5,1.5,2.5,3.7,2.5,6,0,1.3-.3,2.6-.9,3.7-.1.2-.1.5,0,.7l1.1-.2Z"/>
  <polygon class="cls-3" points="158 349.6 148.5 345.2 167.8 338.5 158 349.6"/>
  <path class="cls-6" d="M158,349.6l.4-.9-7.3-3.4,13.4-4.6-7.3,8.2.8.7.4-.9-.4.9.8.7,9.8-11.1c.3-.3.3-.8,0-1.2-.3-.4-.7-.5-1.2-.4l-19.3,6.7c-.4.1-.7.5-.7.9,0,.4.2.8.6,1l9.6,4.4c.4.2.9,0,1.2-.2l-.8-.7Z"/>
  <polygon class="cls-3" points="158 349.6 163.6 358.5 167.8 338.5 158 349.6"/>
  <path class="cls-6" d="M158,349.6l-.8.5,5.6,8.9c.2.3.6.5,1,.5.4,0,.7-.4.8-.8l4.2-20c0-.4-.1-.9-.5-1.1-.4-.2-.9-.1-1.2.2l-9.8,11.1c-.3.3-.3.8,0,1.2l.8-.5.8.7,7.3-8.2-2.9,13.9-4.3-6.8-.8.5.8.7-.8-.7Z"/>
  <path class="cls-14" d="M117.8,176.4c0,3-1.2,5.7-3.2,7.6-2,1.9-4.6,3.2-7.6,3.2s-5.7-1.2-7.6-3.2c-2-2-3.2-4.7-3.2-7.6,0-6,4.8-10.8,10.8-10.8s10.8,4.8,10.8,10.8"/>
  <path class="cls-13" d="M109.8,173.5c0,1.5-1.2,2.8-2.8,2.8s-2.8-1.2-2.8-2.8,1.2-2.8,2.8-2.8,2.8,1.2,2.8,2.8"/>
  <path class="cls-13" d="M114.2,183c-1.9,1.8-4.4,3-7.2,3s-5.4-1.1-7.2-3c.9-3.1,3.8-5.4,7.2-5.4s6.3,2.3,7.2,5.4"/>
  <path class="cls-14" d="M154.8,176.3h-28.5c-1.7,0-3-1.3-3-3s1.3-3,3-3h28.5c1.7,0,3,1.3,3,3s-1.3,3-3,3"/>
  <path class="cls-14" d="M147.9,184.1h-22.4c-1.2,0-2.2-1-2.2-2.2s1-2.2,2.2-2.2h22.4c1.2,0,2.2,1,2.2,2.2s-1,2.2-2.2,2.2"/>
</svg>