<?xml version="1.0" encoding="UTF-8"?>
<svg id="_레이어_1" data-name="레이어 1" xmlns="http://www.w3.org/2000/svg" version="1.1" viewBox="0 0 475 475">
  <defs>
    <style>
      .cls-1 {
        fill: #333;
      }

      .cls-1, .cls-2, .cls-3, .cls-4, .cls-5, .cls-6 {
        stroke-width: 0px;
      }

      .cls-7 {
        stroke-miterlimit: 10;
      }

      .cls-7, .cls-8, .cls-9, .cls-10 {
        fill: none;
        stroke: #3d2117;
      }

      .cls-7, .cls-9 {
        stroke-width: 2px;
      }

      .cls-2 {
        fill: #63f3f3;
      }

      .cls-3 {
        fill: #1ab476;
      }

      .cls-9 {
        stroke-linecap: round;
        stroke-linejoin: round;
      }

      .cls-4 {
        fill: #ebcf69;
      }

      .cls-5 {
        fill: #75bd99;
      }

      .cls-10 {
        stroke-width: 4px;
      }

      .cls-6 {
        fill: #fff;
      }
    </style>
  </defs>
  <rect class="cls-2" x="2" y="2" width="471" height="471" rx="14.2" ry="14.2"/>
  <rect class="cls-8" x="2" y="2" width="471" height="471" rx="14.2" ry="14.2"/>
  <rect class="cls-3" x="12" y="12" width="451" height="451" rx="14.2" ry="14.2"/>
  <rect class="cls-8" x="12" y="12" width="451" height="451" rx="14.2" ry="14.2"/>
  <g>
    <path class="cls-10" d="M67.4,106.5c2.3.3,4.8.5,7.6.6,2.8.1,5.8.2,9.2.2s6.7,0,9.6-.2c3-.1,5.4-.3,7.3-.6.9,0,1.3.3,1.3,1.2v2.6c0,.7-.4,1.2-1.2,1.3-.8.1-1.8.2-3,.3-1.2,0-2.5.2-4,.3-1.5,0-3.1.1-4.8.2-1.7,0-3.5,0-5.3,0-7.6,0-13.2-.3-16.8-.9-.8-.1-1.2-.6-1.2-1.3v-2.6c0-.9.4-1.2,1.3-1.2ZM84.5,91.6c-.5,1.2-1.2,2.3-2.1,3.2-.9,1-1.9,1.8-3.1,2.5-1.2.7-2.4,1.2-3.8,1.6-1.4.4-2.7.6-4.2.6s-.8,0-1.2-.1-.5-.4-.5-1.1v-3c0-.7.4-1.1,1.2-1.1,1.6,0,3.1-.3,4.4-.8,1.3-.5,2.5-1.2,3.4-2.1s1.7-2,2.2-3.2c.5-1.2.8-2.6.8-4v-6.8c0-.9.4-1.3,1.2-1.3h3c.8,0,1.2.4,1.2,1.3v6.8c0,1.4.3,2.8.8,4,.5,1.2,1.3,2.3,2.2,3.2s2.1,1.6,3.4,2.1c1.3.5,2.8.8,4.4.8s1.2.4,1.2,1.1v3c0,.6-.2,1-.5,1.1s-.7.1-1.2.1c-1.4,0-2.8-.2-4.2-.6-1.4-.4-2.6-.9-3.8-1.6-1.2-.7-2.2-1.5-3.1-2.5-.9-1-1.6-2.1-2.1-3.2Z"/>
    <path class="cls-10" d="M107.8,79.8c-.8,0-1.2-.4-1.2-1.2v-2.6c0-.8.4-1.2,1.2-1.2h21.4c.8,0,1.2.4,1.2,1.2v2.6c0,.8-.4,1.2-1.2,1.2h-2.4l-.6,12.5c.7,0,1.3-.1,1.9-.1.6,0,1.2,0,1.7-.1.8,0,1.2.3,1.2,1.2v2.6c0,.4,0,.7-.3.9s-.5.3-.9.3c-.5,0-1.2.1-2,.2-.8,0-1.7.1-2.7.2-1,0-2.1,0-3.2.1-1.1,0-2.3,0-3.4,0-2.3,0-4.4,0-6.4-.2-2-.1-3.6-.2-4.9-.4-.4,0-.7-.2-.9-.3-.2-.2-.3-.4-.3-.9v-2.6c0-.9.4-1.3,1.2-1.2.5,0,1.1.1,1.7.1.6,0,1.2,0,1.9.1l-.6-12.5h-2.4ZM111.7,102.6c.2-.8.6-1.2,1.4-1.2h2.9c.4,0,.7.1,1,.4.2.2.3.6.3.9,0,.6-.1,1.3-.2,2.1,0,.8,0,1.7,0,2.6,0,1.4.4,2.5,1.3,3.3.9.8,2,1.1,3.5,1.1,2.1,0,4,0,5.7,0,1.7,0,3.3,0,4.8-.2,1.5,0,2.9-.2,4.2-.3,1.4,0,2.7-.2,4.2-.3.8,0,1.2.3,1.2,1.2l.2,2.6c0,.7-.4,1.1-1.2,1.2-2.4.3-5.2.5-8.3.6-3.1.2-6.7.2-10.7.2s-6-.8-7.8-2.4c-1.8-1.6-2.8-3.8-2.8-6.6s0-2,0-3c0-1,.1-1.7.2-2.4ZM116.2,92.6c.4,0,.8,0,1.2,0h2.3c.4,0,.8,0,1.2,0l.6-12.8h-5.7l.6,12.8ZM135.3,74.9c0-.9.4-1.3,1.2-1.3h3c.8,0,1.2.4,1.2,1.3v27c0,.9-.4,1.3-1.2,1.3h-3c-.8,0-1.2-.4-1.2-1.3v-27Z"/>
    <path class="cls-10" d="M148.9,111.6c-.8-.1-1.2-.6-1.2-1.3v-2.6c0-.9.4-1.2,1.3-1.2.9,0,1.9.2,3.1.3,1.2,0,2.5.2,3.8.3,1.4,0,2.8.2,4.2.2,1.4,0,2.8.1,4.2.1-.4-.2-.6-.4-.9-.8-.2-.4-.3-.8-.3-1.3v-5.4c-3.8-.4-6.7-1.7-8.8-3.7-2-2-3.1-4.8-3.1-8.3s1.3-6.9,3.9-9c2.6-2.1,6.3-3.2,11.1-3.2s8.5,1.1,11.1,3.2c2.6,2.1,3.9,5.1,3.9,9s-1.1,6.4-3.3,8.5c-2.2,2.1-5.3,3.3-9.3,3.6v5.7c0,1,.6,1.5,1.7,1.5s2.1,0,3.2,0c1.1,0,2.2,0,3.3-.1,1.1,0,2.1-.1,3.1-.2,1,0,1.9-.2,2.7-.3.9,0,1.3.3,1.3,1.2v2.6c0,.7-.4,1.2-1.2,1.3-.8.1-1.8.2-3,.3-1.2,0-2.5.2-4,.3-1.5,0-3.1.1-4.8.2-1.7,0-3.5,0-5.3,0-7.6,0-13.2-.3-16.8-.9ZM166.2,95c3.1,0,5.5-.6,7.1-1.8,1.6-1.2,2.4-3,2.4-5.3s-.8-4.1-2.4-5.3c-1.6-1.2-3.9-1.8-7.1-1.8s-5.5.6-7.1,1.8c-1.6,1.2-2.4,3-2.4,5.3s.8,4,2.4,5.3c1.6,1.2,4,1.8,7.1,1.8Z"/>
    <path class="cls-10" d="M190.8,106.5c2.3.3,4.8.5,7.6.6,2.8.1,5.8.2,9.2.2s6.7,0,9.6-.2c3-.1,5.4-.3,7.3-.6.9,0,1.3.3,1.3,1.2v2.6c0,.7-.4,1.2-1.2,1.3-.8.1-1.8.2-3,.3-1.2,0-2.5.2-4,.3-1.5,0-3.1.1-4.8.2-1.7,0-3.5,0-5.3,0-7.6,0-13.2-.3-16.8-.9-.8-.1-1.2-.6-1.2-1.3v-2.6c0-.9.4-1.2,1.3-1.2ZM194.4,81.3c-.8,0-1.2-.4-1.2-1.2v-2.7c0-.8.4-1.2,1.2-1.2h26.6c.8,0,1.2.4,1.2,1.2v2.7c0,.8-.4,1.2-1.2,1.2h-2.6l-1.2,13.2c.9,0,1.8-.1,2.5-.2.8,0,1.4-.1,1.9-.2.8,0,1.2.2,1.2,1v3.1c0,.6-.4,1-1.1,1.1-1.4.2-3.3.3-5.7.4-2.4.1-5.2.2-8.4.2s-6,0-8.4-.2c-2.4-.1-4.3-.2-5.7-.4-.7,0-1.1-.5-1.1-1.1v-3.1c0-.7.4-1.1,1.2-1,.5,0,1.2.1,1.9.2.8,0,1.6.1,2.5.2l-1.2-13.2h-2.6ZM207.7,94.8h2c.7,0,1.3,0,1.9,0l1.2-13.4h-10.4l1.2,13.4c.6,0,1.3,0,1.9,0h2Z"/>
    <path class="cls-10" d="M246,106.5c2.3.3,4.8.5,7.6.6,2.8.1,5.8.2,9.2.2s6.7,0,9.6-.2c3-.1,5.4-.3,7.3-.6.9,0,1.3.3,1.3,1.2v2.6c0,.7-.4,1.2-1.2,1.3-.8.1-1.8.2-3,.3-1.2,0-2.5.2-4,.3-1.5,0-3.1.1-4.8.2-1.7,0-3.5,0-5.3,0-7.6,0-13.2-.3-16.8-.9-.8-.1-1.2-.6-1.2-1.3v-2.6c0-.9.4-1.2,1.3-1.2ZM249.6,81.3c-.8,0-1.2-.4-1.2-1.2v-2.7c0-.8.4-1.2,1.2-1.2h26.6c.8,0,1.2.4,1.2,1.2v2.7c0,.8-.4,1.2-1.2,1.2h-2.6l-1.2,13.2c.9,0,1.8-.1,2.5-.2.8,0,1.4-.1,1.9-.2.8,0,1.2.2,1.2,1v3.1c0,.6-.4,1-1.1,1.1-1.4.2-3.3.3-5.7.4-2.4.1-5.2.2-8.4.2s-6,0-8.4-.2c-2.4-.1-4.3-.2-5.7-.4-.7,0-1.1-.5-1.1-1.1v-3.1c0-.7.4-1.1,1.2-1,.5,0,1.2.1,1.9.2.8,0,1.6.1,2.5.2l-1.2-13.2h-2.6ZM262.9,94.8h2c.7,0,1.3,0,1.9,0l1.2-13.4h-10.4l1.2,13.4c.6,0,1.3,0,1.9,0h2Z"/>
    <path class="cls-10" d="M287.7,111.6c-.8-.1-1.2-.6-1.2-1.3v-2.6c0-.9.4-1.2,1.3-1.2.9,0,1.9.2,3.1.3,1.2,0,2.5.2,3.8.3,1.4,0,2.8.2,4.2.2,1.4,0,2.8.1,4.2.1-.4-.2-.6-.4-.9-.8-.2-.4-.3-.8-.3-1.3v-5.1c-2.2-.1-4-.4-5.4-.7-1.5-.3-2.6-.8-3.5-1.4-.9-.6-1.5-1.4-1.9-2.3-.4-.9-.6-2-.6-3.3s.2-2.6.7-3.5,1.2-1.7,2.3-2.2c1.1-.5,2.5-.9,4.4-1.2,1.8-.2,4.1-.4,6.8-.4h6c2.1,0,3.1-.8,3.1-2.4s-.2-1.3-.7-1.6c-.5-.3-1.2-.5-2.3-.5-1.6,0-3.2,0-4.8,0-1.6,0-3.2,0-4.8.2-1.6,0-3.1.2-4.5.3-1.4,0-2.8.2-4,.3-.8,0-1.2-.2-1.2-1v-2.9c0-.7.3-1.1,1-1.2,2-.3,4.5-.5,7.2-.7,2.8-.2,5.6-.2,8.4-.2s3.9,0,5.8.1c3.6.1,5.5,1.7,5.5,4.6s-.3,2.5-.9,3.4c-.6.9-1.5,1.6-2.7,2h2.2c.7,0,1.1.4,1.1,1.1v2.4c0,.7-.4,1.1-1.1,1.1-2.2,0-4.5,0-6.7,0-2.3,0-4.4,0-6.3,0s-3.2,0-4.3.1c-1.1,0-2,.2-2.7.4-.7.2-1.1.4-1.4.7-.3.3-.4.7-.4,1.2s.2.9.5,1.3c.3.3.9.6,1.7.8.8.2,2,.3,3.5.4,1.5,0,3.4,0,5.8,0s3.9,0,5.8-.2c2-.1,3.8-.3,5.6-.6.6,0,1,.2,1.1.9l.5,2.7c0,.3,0,.6-.2.8s-.4.4-.7.4c-2,.3-4,.5-6.2.7-2.2.2-4.1.3-5.9.3h0v5.4c0,1,.6,1.5,1.7,1.5s2.1,0,3.2,0c1.1,0,2.2,0,3.3-.1,1.1,0,2.1-.1,3.1-.2,1,0,1.9-.2,2.7-.3.9,0,1.3.3,1.3,1.2v2.6c0,.7-.4,1.2-1.2,1.3-.8.1-1.8.2-3,.3-1.2,0-2.5.2-4,.3-1.5,0-3.1.1-4.8.2-1.7,0-3.5,0-5.3,0-7.6,0-13.2-.3-16.8-.9Z"/>
    <path class="cls-10" d="M328.4,79.8c-.8,0-1.2-.4-1.2-1.2v-2.6c0-.8.4-1.2,1.2-1.2h17.1c.8,0,1.2.4,1.2,1.2v2.6c0,.8-.4,1.2-1.2,1.2h-6v3.7c0,1.1.2,2.1.5,3,.3.9.7,1.8,1.2,2.4.5.7,1.2,1.2,1.9,1.6.8.4,1.6.6,2.5.6s1.2.4,1.2,1.2v2.6c0,.8-.4,1.2-1.1,1.2s-1.9-.1-2.8-.4c-.9-.3-1.8-.7-2.5-1.2-.8-.5-1.5-1.2-2.1-1.9-.6-.7-1.1-1.6-1.4-2.4-.3.9-.8,1.7-1.4,2.4s-1.3,1.4-2.1,1.9c-.8.5-1.6.9-2.5,1.2-.9.3-1.8.4-2.8.4s-1.1-.4-1.1-1.2v-2.6c0-.8.4-1.2,1.2-1.2s1.8-.2,2.5-.6c.8-.4,1.4-.9,1.9-1.6s.9-1.5,1.2-2.4c.3-.9.5-2,.5-3v-3.7h-5.9ZM364.4,115.2c0,.8-.6,1.2-1.4,1.2h-2.9c-.4,0-.7-.1-1-.4-.2-.2-.3-.6-.3-.9,0-.4.1-.9.1-1.4s0-1,0-1.6c0-.5,0-1.1,0-1.6v-1.5c0-1.5-.3-2.6-.9-3.1-.6-.6-1.8-.8-3.5-.8-3.7,0-7.2,0-10.5.2-3.3.1-6.5.3-9.5.6-.8,0-1.2-.3-1.2-1.2v-2.6c0-.7.4-1.2,1.2-1.2,2.6-.3,5.6-.5,9.1-.6,3.5-.1,7.4-.2,11.4-.2s5.7.6,7.2,1.8c1.5,1.2,2.2,3.1,2.2,5.9s0,3.1,0,4.4c0,1.3,0,2.4-.2,3.2ZM350,82.8c.5,0,.9,0,1.1-.3.2-.2.3-.5.3-1v-6.1c0-.8.4-1.2,1.2-1.2h2.9c.8,0,1.2.4,1.2,1.2v20c0,.8-.4,1.2-1.2,1.2h-2.9c-.8,0-1.2-.4-1.2-1.2v-8.1c-.2.3-.4.5-.7.6-.3.2-.6.2-1,.2h-3c-.8,0-1.2-.4-1.2-1.2v-2.9c0-.8.4-1.2,1.2-1.2h3.2ZM364.8,95.3c0,.8-.4,1.2-1.2,1.2h-2.9c-.8,0-1.2-.4-1.2-1.2v-20.4c0-.8.4-1.2,1.2-1.2h2.9c.8,0,1.2.4,1.2,1.2v20.4Z"/>
    <path class="cls-10" d="M373,106.5c2.3.3,4.8.5,7.6.6,2.8.1,5.8.2,9.2.2s6.7,0,9.6-.2c3-.1,5.4-.3,7.3-.6.9,0,1.3.3,1.3,1.2v2.6c0,.7-.4,1.2-1.2,1.3-.8.1-1.8.2-3,.3-1.2,0-2.5.2-4,.3-1.5,0-3.1.1-4.8.2-1.7,0-3.5,0-5.3,0-7.6,0-13.2-.3-16.8-.9-.8-.1-1.2-.6-1.2-1.3v-2.6c0-.9.4-1.2,1.3-1.2ZM402.6,84.6c.7,0,1.1.4,1.1,1.2v2.8c0,.8-.4,1.2-1.2,1.1-2.3-.2-4.6-.2-6.8-.3-2.2,0-4.4,0-6.4,0s-3.2,0-4.3.1c-1.1,0-2,.3-2.7.5-.7.2-1.2.5-1.4.9-.3.4-.4.9-.4,1.5s.2,1.2.5,1.6c.3.4.8.8,1.5,1,.7.3,1.7.4,2.9.6,1.2.1,2.7.2,4.4.2,2.8,0,5.3,0,7.4-.2,2.1-.1,4.1-.3,5.8-.5.8,0,1.2.2,1.3,1l.2,2.8c0,.7-.3,1.2-1.1,1.2-1,.1-2,.2-3,.3-1,0-2.1.1-3.2.2-1.1,0-2.3,0-3.6.1-1.2,0-2.6,0-4,0-2.8,0-5.1-.1-7-.4s-3.4-.8-4.5-1.4c-1.1-.6-1.9-1.5-2.4-2.6s-.7-2.4-.7-4,.3-2.8.8-3.8c.5-1,1.4-1.9,2.5-2.5,1.2-.6,2.7-1.1,4.6-1.4s4.2-.4,6.9-.4,5.2,0,7.4,0c2.2,0,4,.1,5.5.2ZM376.5,81.2c-.8,0-1.2-.4-1.2-1.2v-2.6c0-.8.4-1.2,1.2-1.2h26c.8,0,1.2.4,1.2,1.2v2.6c0,.8-.4,1.2-1.2,1.2h-26Z"/>
  </g>
  <g>
    <path class="cls-6" d="M67.4,106.5c2.3.3,4.8.5,7.6.6,2.8.1,5.8.2,9.2.2s6.7,0,9.6-.2c3-.1,5.4-.3,7.3-.6.9,0,1.3.3,1.3,1.2v2.6c0,.7-.4,1.2-1.2,1.3-.8.1-1.8.2-3,.3-1.2,0-2.5.2-4,.3-1.5,0-3.1.1-4.8.2-1.7,0-3.5,0-5.3,0-7.6,0-13.2-.3-16.8-.9-.8-.1-1.2-.6-1.2-1.3v-2.6c0-.9.4-1.2,1.3-1.2ZM84.5,91.6c-.5,1.2-1.2,2.3-2.1,3.2-.9,1-1.9,1.8-3.1,2.5-1.2.7-2.4,1.2-3.8,1.6-1.4.4-2.7.6-4.2.6s-.8,0-1.2-.1-.5-.4-.5-1.1v-3c0-.7.4-1.1,1.2-1.1,1.6,0,3.1-.3,4.4-.8,1.3-.5,2.5-1.2,3.4-2.1s1.7-2,2.2-3.2c.5-1.2.8-2.6.8-4v-6.8c0-.9.4-1.3,1.2-1.3h3c.8,0,1.2.4,1.2,1.3v6.8c0,1.4.3,2.8.8,4,.5,1.2,1.3,2.3,2.2,3.2s2.1,1.6,3.4,2.1c1.3.5,2.8.8,4.4.8s1.2.4,1.2,1.1v3c0,.6-.2,1-.5,1.1s-.7.1-1.2.1c-1.4,0-2.8-.2-4.2-.6-1.4-.4-2.6-.9-3.8-1.6-1.2-.7-2.2-1.5-3.1-2.5-.9-1-1.6-2.1-2.1-3.2Z"/>
    <path class="cls-6" d="M107.8,79.8c-.8,0-1.2-.4-1.2-1.2v-2.6c0-.8.4-1.2,1.2-1.2h21.4c.8,0,1.2.4,1.2,1.2v2.6c0,.8-.4,1.2-1.2,1.2h-2.4l-.6,12.5c.7,0,1.3-.1,1.9-.1.6,0,1.2,0,1.7-.1.8,0,1.2.3,1.2,1.2v2.6c0,.4,0,.7-.3.9s-.5.3-.9.3c-.5,0-1.2.1-2,.2-.8,0-1.7.1-2.7.2-1,0-2.1,0-3.2.1-1.1,0-2.3,0-3.4,0-2.3,0-4.4,0-6.4-.2-2-.1-3.6-.2-4.9-.4-.4,0-.7-.2-.9-.3-.2-.2-.3-.4-.3-.9v-2.6c0-.9.4-1.3,1.2-1.2.5,0,1.1.1,1.7.1.6,0,1.2,0,1.9.1l-.6-12.5h-2.4ZM111.7,102.6c.2-.8.6-1.2,1.4-1.2h2.9c.4,0,.7.1,1,.4.2.2.3.6.3.9,0,.6-.1,1.3-.2,2.1,0,.8,0,1.7,0,2.6,0,1.4.4,2.5,1.3,3.3.9.8,2,1.1,3.5,1.1,2.1,0,4,0,5.7,0,1.7,0,3.3,0,4.8-.2,1.5,0,2.9-.2,4.2-.3,1.4,0,2.7-.2,4.2-.3.8,0,1.2.3,1.2,1.2l.2,2.6c0,.7-.4,1.1-1.2,1.2-2.4.3-5.2.5-8.3.6-3.1.2-6.7.2-10.7.2s-6-.8-7.8-2.4c-1.8-1.6-2.8-3.8-2.8-6.6s0-2,0-3c0-1,.1-1.7.2-2.4ZM116.2,92.6c.4,0,.8,0,1.2,0h2.3c.4,0,.8,0,1.2,0l.6-12.8h-5.7l.6,12.8ZM135.3,74.9c0-.9.4-1.3,1.2-1.3h3c.8,0,1.2.4,1.2,1.3v27c0,.9-.4,1.3-1.2,1.3h-3c-.8,0-1.2-.4-1.2-1.3v-27Z"/>
    <path class="cls-6" d="M148.9,111.6c-.8-.1-1.2-.6-1.2-1.3v-2.6c0-.9.4-1.2,1.3-1.2.9,0,1.9.2,3.1.3,1.2,0,2.5.2,3.8.3,1.4,0,2.8.2,4.2.2,1.4,0,2.8.1,4.2.1-.4-.2-.6-.4-.9-.8-.2-.4-.3-.8-.3-1.3v-5.4c-3.8-.4-6.7-1.7-8.8-3.7-2-2-3.1-4.8-3.1-8.3s1.3-6.9,3.9-9c2.6-2.1,6.3-3.2,11.1-3.2s8.5,1.1,11.1,3.2c2.6,2.1,3.9,5.1,3.9,9s-1.1,6.4-3.3,8.5c-2.2,2.1-5.3,3.3-9.3,3.6v5.7c0,1,.6,1.5,1.7,1.5s2.1,0,3.2,0c1.1,0,2.2,0,3.3-.1,1.1,0,2.1-.1,3.1-.2,1,0,1.9-.2,2.7-.3.9,0,1.3.3,1.3,1.2v2.6c0,.7-.4,1.2-1.2,1.3-.8.1-1.8.2-3,.3-1.2,0-2.5.2-4,.3-1.5,0-3.1.1-4.8.2-1.7,0-3.5,0-5.3,0-7.6,0-13.2-.3-16.8-.9ZM166.2,95c3.1,0,5.5-.6,7.1-1.8,1.6-1.2,2.4-3,2.4-5.3s-.8-4.1-2.4-5.3c-1.6-1.2-3.9-1.8-7.1-1.8s-5.5.6-7.1,1.8c-1.6,1.2-2.4,3-2.4,5.3s.8,4,2.4,5.3c1.6,1.2,4,1.8,7.1,1.8Z"/>
    <path class="cls-6" d="M190.8,106.5c2.3.3,4.8.5,7.6.6,2.8.1,5.8.2,9.2.2s6.7,0,9.6-.2c3-.1,5.4-.3,7.3-.6.9,0,1.3.3,1.3,1.2v2.6c0,.7-.4,1.2-1.2,1.3-.8.1-1.8.2-3,.3-1.2,0-2.5.2-4,.3-1.5,0-3.1.1-4.8.2-1.7,0-3.5,0-5.3,0-7.6,0-13.2-.3-16.8-.9-.8-.1-1.2-.6-1.2-1.3v-2.6c0-.9.4-1.2,1.3-1.2ZM194.4,81.3c-.8,0-1.2-.4-1.2-1.2v-2.7c0-.8.4-1.2,1.2-1.2h26.6c.8,0,1.2.4,1.2,1.2v2.7c0,.8-.4,1.2-1.2,1.2h-2.6l-1.2,13.2c.9,0,1.8-.1,2.5-.2.8,0,1.4-.1,1.9-.2.8,0,1.2.2,1.2,1v3.1c0,.6-.4,1-1.1,1.1-1.4.2-3.3.3-5.7.4-2.4.1-5.2.2-8.4.2s-6,0-8.4-.2c-2.4-.1-4.3-.2-5.7-.4-.7,0-1.1-.5-1.1-1.1v-3.1c0-.7.4-1.1,1.2-1,.5,0,1.2.1,1.9.2.8,0,1.6.1,2.5.2l-1.2-13.2h-2.6ZM207.7,94.8h2c.7,0,1.3,0,1.9,0l1.2-13.4h-10.4l1.2,13.4c.6,0,1.3,0,1.9,0h2Z"/>
    <path class="cls-6" d="M246,106.5c2.3.3,4.8.5,7.6.6,2.8.1,5.8.2,9.2.2s6.7,0,9.6-.2c3-.1,5.4-.3,7.3-.6.9,0,1.3.3,1.3,1.2v2.6c0,.7-.4,1.2-1.2,1.3-.8.1-1.8.2-3,.3-1.2,0-2.5.2-4,.3-1.5,0-3.1.1-4.8.2-1.7,0-3.5,0-5.3,0-7.6,0-13.2-.3-16.8-.9-.8-.1-1.2-.6-1.2-1.3v-2.6c0-.9.4-1.2,1.3-1.2ZM249.6,81.3c-.8,0-1.2-.4-1.2-1.2v-2.7c0-.8.4-1.2,1.2-1.2h26.6c.8,0,1.2.4,1.2,1.2v2.7c0,.8-.4,1.2-1.2,1.2h-2.6l-1.2,13.2c.9,0,1.8-.1,2.5-.2.8,0,1.4-.1,1.9-.2.8,0,1.2.2,1.2,1v3.1c0,.6-.4,1-1.1,1.1-1.4.2-3.3.3-5.7.4-2.4.1-5.2.2-8.4.2s-6,0-8.4-.2c-2.4-.1-4.3-.2-5.7-.4-.7,0-1.1-.5-1.1-1.1v-3.1c0-.7.4-1.1,1.2-1,.5,0,1.2.1,1.9.2.8,0,1.6.1,2.5.2l-1.2-13.2h-2.6ZM262.9,94.8h2c.7,0,1.3,0,1.9,0l1.2-13.4h-10.4l1.2,13.4c.6,0,1.3,0,1.9,0h2Z"/>
    <path class="cls-6" d="M287.7,111.6c-.8-.1-1.2-.6-1.2-1.3v-2.6c0-.9.4-1.2,1.3-1.2.9,0,1.9.2,3.1.3,1.2,0,2.5.2,3.8.3,1.4,0,2.8.2,4.2.2,1.4,0,2.8.1,4.2.1-.4-.2-.6-.4-.9-.8-.2-.4-.3-.8-.3-1.3v-5.1c-2.2-.1-4-.4-5.4-.7-1.5-.3-2.6-.8-3.5-1.4-.9-.6-1.5-1.4-1.9-2.3-.4-.9-.6-2-.6-3.3s.2-2.6.7-3.5,1.2-1.7,2.3-2.2c1.1-.5,2.5-.9,4.4-1.2,1.8-.2,4.1-.4,6.8-.4h6c2.1,0,3.1-.8,3.1-2.4s-.2-1.3-.7-1.6c-.5-.3-1.2-.5-2.3-.5-1.6,0-3.2,0-4.8,0-1.6,0-3.2,0-4.8.2-1.6,0-3.1.2-4.5.3-1.4,0-2.8.2-4,.3-.8,0-1.2-.2-1.2-1v-2.9c0-.7.3-1.1,1-1.2,2-.3,4.5-.5,7.2-.7,2.8-.2,5.6-.2,8.4-.2s3.9,0,5.8.1c3.6.1,5.5,1.7,5.5,4.6s-.3,2.5-.9,3.4c-.6.9-1.5,1.6-2.7,2h2.2c.7,0,1.1.4,1.1,1.1v2.4c0,.7-.4,1.1-1.1,1.1-2.2,0-4.5,0-6.7,0-2.3,0-4.4,0-6.3,0s-3.2,0-4.3.1c-1.1,0-2,.2-2.7.4-.7.2-1.1.4-1.4.7-.3.3-.4.7-.4,1.2s.2.9.5,1.3c.3.3.9.6,1.7.8.8.2,2,.3,3.5.4,1.5,0,3.4,0,5.8,0s3.9,0,5.8-.2c2-.1,3.8-.3,5.6-.6.6,0,1,.2,1.1.9l.5,2.7c0,.3,0,.6-.2.8s-.4.4-.7.4c-2,.3-4,.5-6.2.7-2.2.2-4.1.3-5.9.3h0v5.4c0,1,.6,1.5,1.7,1.5s2.1,0,3.2,0c1.1,0,2.2,0,3.3-.1,1.1,0,2.1-.1,3.1-.2,1,0,1.9-.2,2.7-.3.9,0,1.3.3,1.3,1.2v2.6c0,.7-.4,1.2-1.2,1.3-.8.1-1.8.2-3,.3-1.2,0-2.5.2-4,.3-1.5,0-3.1.1-4.8.2-1.7,0-3.5,0-5.3,0-7.6,0-13.2-.3-16.8-.9Z"/>
    <path class="cls-6" d="M328.4,79.8c-.8,0-1.2-.4-1.2-1.2v-2.6c0-.8.4-1.2,1.2-1.2h17.1c.8,0,1.2.4,1.2,1.2v2.6c0,.8-.4,1.2-1.2,1.2h-6v3.7c0,1.1.2,2.1.5,3,.3.9.7,1.8,1.2,2.4.5.7,1.2,1.2,1.9,1.6.8.4,1.6.6,2.5.6s1.2.4,1.2,1.2v2.6c0,.8-.4,1.2-1.1,1.2s-1.9-.1-2.8-.4c-.9-.3-1.8-.7-2.5-1.2-.8-.5-1.5-1.2-2.1-1.9-.6-.7-1.1-1.6-1.4-2.4-.3.9-.8,1.7-1.4,2.4s-1.3,1.4-2.1,1.9c-.8.5-1.6.9-2.5,1.2-.9.3-1.8.4-2.8.4s-1.1-.4-1.1-1.2v-2.6c0-.8.4-1.2,1.2-1.2s1.8-.2,2.5-.6c.8-.4,1.4-.9,1.9-1.6s.9-1.5,1.2-2.4c.3-.9.5-2,.5-3v-3.7h-5.9ZM364.4,115.2c0,.8-.6,1.2-1.4,1.2h-2.9c-.4,0-.7-.1-1-.4-.2-.2-.3-.6-.3-.9,0-.4.1-.9.1-1.4s0-1,0-1.6c0-.5,0-1.1,0-1.6v-1.5c0-1.5-.3-2.6-.9-3.1-.6-.6-1.8-.8-3.5-.8-3.7,0-7.2,0-10.5.2-3.3.1-6.5.3-9.5.6-.8,0-1.2-.3-1.2-1.2v-2.6c0-.7.4-1.2,1.2-1.2,2.6-.3,5.6-.5,9.1-.6,3.5-.1,7.4-.2,11.4-.2s5.7.6,7.2,1.8c1.5,1.2,2.2,3.1,2.2,5.9s0,3.1,0,4.4c0,1.3,0,2.4-.2,3.2ZM350,82.8c.5,0,.9,0,1.1-.3.2-.2.3-.5.3-1v-6.1c0-.8.4-1.2,1.2-1.2h2.9c.8,0,1.2.4,1.2,1.2v20c0,.8-.4,1.2-1.2,1.2h-2.9c-.8,0-1.2-.4-1.2-1.2v-8.1c-.2.3-.4.5-.7.6-.3.2-.6.2-1,.2h-3c-.8,0-1.2-.4-1.2-1.2v-2.9c0-.8.4-1.2,1.2-1.2h3.2ZM364.8,95.3c0,.8-.4,1.2-1.2,1.2h-2.9c-.8,0-1.2-.4-1.2-1.2v-20.4c0-.8.4-1.2,1.2-1.2h2.9c.8,0,1.2.4,1.2,1.2v20.4Z"/>
    <path class="cls-6" d="M373,106.5c2.3.3,4.8.5,7.6.6,2.8.1,5.8.2,9.2.2s6.7,0,9.6-.2c3-.1,5.4-.3,7.3-.6.9,0,1.3.3,1.3,1.2v2.6c0,.7-.4,1.2-1.2,1.3-.8.1-1.8.2-3,.3-1.2,0-2.5.2-4,.3-1.5,0-3.1.1-4.8.2-1.7,0-3.5,0-5.3,0-7.6,0-13.2-.3-16.8-.9-.8-.1-1.2-.6-1.2-1.3v-2.6c0-.9.4-1.2,1.3-1.2ZM402.6,84.6c.7,0,1.1.4,1.1,1.2v2.8c0,.8-.4,1.2-1.2,1.1-2.3-.2-4.6-.2-6.8-.3-2.2,0-4.4,0-6.4,0s-3.2,0-4.3.1c-1.1,0-2,.3-2.7.5-.7.2-1.2.5-1.4.9-.3.4-.4.9-.4,1.5s.2,1.2.5,1.6c.3.4.8.8,1.5,1,.7.3,1.7.4,2.9.6,1.2.1,2.7.2,4.4.2,2.8,0,5.3,0,7.4-.2,2.1-.1,4.1-.3,5.8-.5.8,0,1.2.2,1.3,1l.2,2.8c0,.7-.3,1.2-1.1,1.2-1,.1-2,.2-3,.3-1,0-2.1.1-3.2.2-1.1,0-2.3,0-3.6.1-1.2,0-2.6,0-4,0-2.8,0-5.1-.1-7-.4s-3.4-.8-4.5-1.4c-1.1-.6-1.9-1.5-2.4-2.6s-.7-2.4-.7-4,.3-2.8.8-3.8c.5-1,1.4-1.9,2.5-2.5,1.2-.6,2.7-1.1,4.6-1.4s4.2-.4,6.9-.4,5.2,0,7.4,0c2.2,0,4,.1,5.5.2ZM376.5,81.2c-.8,0-1.2-.4-1.2-1.2v-2.6c0-.8.4-1.2,1.2-1.2h26c.8,0,1.2.4,1.2,1.2v2.6c0,.8-.4,1.2-1.2,1.2h-26Z"/>
  </g>
  <path class="cls-4" d="M297.6,276c0-33.1-27.8-59.6-61.4-57.6-28.8,1.8-52.2,25.3-53.9,54-1.5,24.8,12.7,46.4,33.6,56,2.2,1,3.9,2.7,4.9,4.9,1.6,3.3,3.2,7.5,3.2,11.3,0,0-2.4,19.2,14,19.2h4.8c16.4,0,14-19.2,14-19.2,0-4,1.8-8.4,3.5-11.7,1.1-2.3,3-4.1,5.2-5.2,19-9.4,32-29,32-51.7"/>
  <path class="cls-7" d="M297.6,276c0-33.1-27.8-59.6-61.4-57.6-28.8,1.8-52.2,25.3-53.9,54-1.5,24.8,12.7,46.4,33.6,56,2.2,1,3.9,2.7,4.9,4.9,1.6,3.3,3.2,7.5,3.2,11.3,0,0-2.4,19.2,14,19.2h4.8c16.4,0,14-19.2,14-19.2,0-4,1.8-8.4,3.5-11.7,1.1-2.3,3-4.1,5.2-5.2,19-9.4,32-29,32-51.7Z"/>
  <path class="cls-1" d="M240.5,391.9l.5,39.4c0,.4.3.7.7.7.4,0,.7-.3.7-.7l-.5-39.4c0-.4-.3-.7-.7-.7-.4,0-.7.3-.7.7"/>
  <path class="cls-7" d="M240.5,391.9l.5,39.4c0,.4.3.7.7.7.4,0,.7-.3.7-.7l-.5-39.4c0-.4-.3-.7-.7-.7-.4,0-.7.3-.7.7"/>
  <polygon class="cls-1" points="293.1 375 315.5 407.4 316.5 407.6 316.7 406.6 294.3 374.2 293.3 374 293.1 375"/>
  <polygon class="cls-7" points="293.1 375 315.5 407.4 316.5 407.6 316.7 406.6 294.3 374.2 293.3 374 293.1 375"/>
  <polygon class="cls-1" points="327.4 331.6 364 346 364.9 345.6 364.5 344.7 327.9 330.3 327 330.7 327.4 331.6"/>
  <polygon class="cls-7" points="327.4 331.6 364 346 364.9 345.6 364.5 344.7 327.9 330.3 327 330.7 327.4 331.6"/>
  <path class="cls-1" d="M331.6,276.5l38.5-8.5c.4,0,.6-.5.5-.8,0-.4-.5-.6-.8-.5l-38.5,8.5c-.4,0-.6.5-.5.8,0,.4.5.6.8.5"/>
  <path class="cls-7" d="M331.6,276.5l38.5-8.5c.4,0,.6-.5.5-.8,0-.4-.5-.6-.8-.5l-38.5,8.5c-.4,0-.6.5-.5.8,0,.4.5.6.8.5"/>
  <polygon class="cls-1" points="304.4 228.4 331.6 200 331.6 199 330.6 199 303.4 227.5 303.4 228.5 304.4 228.4"/>
  <polygon class="cls-7" points="304.4 228.4 331.6 200 331.6 199 330.6 199 303.4 227.5 303.4 228.5 304.4 228.4"/>
  <path class="cls-1" d="M255,203.7l6.7-38.8c0-.4-.2-.8-.6-.8-.4,0-.8.2-.8.6l-6.7,38.8c0,.4.2.8.6.8.4,0,.8-.2.8-.6"/>
  <path class="cls-7" d="M255,203.7l6.7-38.8c0-.4-.2-.8-.6-.8-.4,0-.8.2-.8.6l-6.7,38.8c0,.4.2.8.6.8.4,0,.8-.2.8-.6"/>
  <polygon class="cls-1" points="200.2 210.7 184.1 174.7 183.2 174.4 182.8 175.3 198.9 211.3 199.9 211.6 200.2 210.7"/>
  <polygon class="cls-7" points="200.2 210.7 184.1 174.7 183.2 174.4 182.8 175.3 198.9 211.3 199.9 211.6 200.2 210.7"/>
  <polygon class="cls-1" points="158.6 247.1 125.2 226.2 124.3 226.4 124.5 227.4 157.9 248.3 158.9 248.1 158.6 247.1"/>
  <polygon class="cls-7" points="158.6 247.1 125.2 226.2 124.3 226.4 124.5 227.4 157.9 248.3 158.9 248.1 158.6 247.1"/>
  <path class="cls-1" d="M144.4,300.5l-39.4,1.3c-.4,0-.7.3-.7.7,0,.4.3.7.7.7l39.4-1.3c.4,0,.7-.3.7-.7,0-.4-.3-.7-.7-.7"/>
  <path class="cls-7" d="M144.4,300.5l-39.4,1.3c-.4,0-.7.3-.7.7,0,.4.3.7.7.7l39.4-1.3c.4,0,.7-.3.7-.7,0-.4-.3-.7-.7-.7"/>
  <polygon class="cls-1" points="162.4 352.7 130.4 375.7 130.3 376.7 131.2 376.9 163.2 353.8 163.4 352.9 162.4 352.7"/>
  <polygon class="cls-7" points="162.4 352.7 130.4 375.7 130.3 376.7 131.2 376.9 163.2 353.8 163.4 352.9 162.4 352.7"/>
  <path class="cls-1" d="M206.4,386l-13.7,36.9c-.1.4,0,.8.4.9.4.1.8,0,.9-.4l13.7-36.9c.1-.4,0-.8-.4-.9-.4-.1-.8,0-.9.4"/>
  <path class="cls-7" d="M206.4,386l-13.7,36.9c-.1.4,0,.8.4.9.4.1.8,0,.9-.4l13.7-36.9c.1-.4,0-.8-.4-.9-.4-.1-.8,0-.9.4"/>
  <path class="cls-5" d="M267.3,283.3l-24.1-39.7c-1.4-2.3-5.2-2.3-6.7,0l-24.1,39.7c-1.1,1.8-.5,4.2,1.3,5.3.6.4,1.3.6,2,.6,1.3,0,2.6-.7,3.3-1.9l17-28v98.5c0,2.2,1.7,3.9,3.9,3.9s3.9-1.7,3.9-3.9v-98l16.7,27.5c1.1,1.8,3.5,2.4,5.3,1.3,1.8-1.1,2.4-3.5,1.3-5.3"/>
  <path class="cls-9" d="M267.3,283.3l-24.1-39.7c-1.4-2.3-5.2-2.3-6.7,0l-24.1,39.7c-1.1,1.8-.5,4.2,1.3,5.3.6.4,1.3.6,2,.6,1.3,0,2.6-.7,3.3-1.9l17-28v98.5c0,2.2,1.7,3.9,3.9,3.9s3.9-1.7,3.9-3.9v-98l16.7,27.5c1.1,1.8,3.5,2.4,5.3,1.3,1.8-1.1,2.4-3.5,1.3-5.3Z"/>
  <path class="cls-1" d="M255.9,366.7h-29.9c-2.3,0-4.2-1.9-4.2-4.2s1.9-4.2,4.2-4.2h29.9c2.3,0,4.2,1.9,4.2,4.2s-1.9,4.2-4.2,4.2"/>
  <path class="cls-7" d="M255.9,366.7h-29.9c-2.3,0-4.2-1.9-4.2-4.2s1.9-4.2,4.2-4.2h29.9c2.3,0,4.2,1.9,4.2,4.2s-1.9,4.2-4.2,4.2Z"/>
  <path class="cls-1" d="M255.9,375h-29.9c-2.3,0-4.2-1.9-4.2-4.2s1.9-4.2,4.2-4.2h29.9c2.3,0,4.2,1.9,4.2,4.2s-1.9,4.2-4.2,4.2"/>
  <path class="cls-7" d="M255.9,375h-29.9c-2.3,0-4.2-1.9-4.2-4.2s1.9-4.2,4.2-4.2h29.9c2.3,0,4.2,1.9,4.2,4.2s-1.9,4.2-4.2,4.2Z"/>
</svg>