<?xml version="1.0" encoding="UTF-8"?>
<svg id="_레이어_1" data-name="레이어 1" xmlns="http://www.w3.org/2000/svg" xmlns:xlink="http://www.w3.org/1999/xlink" version="1.1" viewBox="0 0 475 475">
  <defs>
    <style>
      .cls-1 {
        clip-path: url(#clippath);
      }

      .cls-2, .cls-3, .cls-4, .cls-5, .cls-6, .cls-7, .cls-8, .cls-9 {
        stroke-width: 0px;
      }

      .cls-2, .cls-10, .cls-11 {
        fill: none;
      }

      .cls-3 {
        fill: #b86959;
      }

      .cls-4 {
        fill: #f5f094;
      }

      .cls-10, .cls-11 {
        stroke: #3d2117;
      }

      .cls-5 {
        fill: #1ab476;
      }

      .cls-6 {
        fill: #3d2117;
      }

      .cls-7 {
        fill: #fd8664;
      }

      .cls-8 {
        fill: #ffd9d4;
      }

      .cls-11 {
        stroke-width: 4px;
      }

      .cls-9 {
        fill: #fff;
      }
    </style>
    <clipPath id="clippath">
      <path class="cls-2" d="M26.2,12h422.7c7.8,0,14.2,6.4,14.2,14.2v422.7c0,7.8-6.4,14.2-14.2,14.2H26.2c-7.8,0-14.2-6.4-14.2-14.2V26.2c0-7.8,6.4-14.2,14.2-14.2Z"/>
    </clipPath>
  </defs>
  <rect class="cls-5" x="2" y="2" width="471" height="471" rx="14.2" ry="14.2"/>
  <rect class="cls-10" x="2" y="2" width="471" height="471" rx="14.2" ry="14.2"/>
  <rect class="cls-7" x="12" y="12" width="451" height="451" rx="14.2" ry="14.2"/>
  <g class="cls-1">
    <path class="cls-8" d="M263.8,224.3c-3.4-7.6-11.3-12.2-20.6-10.9l-15,2c-2.1.3-4.2.9-6.2,1.9-7.4,3.5-14.1,6.7-16.8,15.3-1.7,5.3-1.4,10.8-1,16.1.8,12.2,3.1,22.7,15.3,26.9,6,2.1,12.8,1.4,19.5.4,10.3-1.5,19.2-4.6,22.6-16,1.1-3.6,1.8-7.2,2.4-10.8,1.2-6.7,2.4-13.5,1.3-19.9-.3-1.8-.8-3.4-1.5-5"/>
    <path class="cls-6" d="M226.5,216.2c-1.5.3-2.9.8-4.3,1.5-7.5,3.6-13.9,6.6-16.5,14.9-1.6,5.1-1.4,10.2-1,15.9.9,13.4,3.7,22.5,15,26.4,5.9,2.1,12.7,1.3,19.2.4,9.5-1.3,18.7-4.2,22.1-15.6,1.1-3.6,1.8-7.3,2.4-10.7,1.3-6.8,2.3-13.5,1.3-19.7-.3-1.7-.8-3.3-1.5-4.9-3.4-7.6-11.3-11.8-20-10.6h0s-.6,0-15,2c-.6,0-1.1.2-1.7.3M244,275.6c-1.6.4-3.3.7-5,.9-6.6,1-13.6,1.7-19.8-.4-13.1-4.6-15-16-15.7-27.4-.4-5.6-.6-11,1.1-16.3,2.7-8.8,9.7-12.1,17-15.6,2.1-1,4.2-1.6,6.4-1.9l15-2c9.2-1.2,17.6,3.2,21.2,11.3h0c.7,1.6,1.3,3.3,1.6,5.1,1.1,6.4,0,13.1-1.3,20.1-.7,3.5-1.4,7.2-2.5,10.8-3,10-10.1,13.7-18.1,15.5"/>
    <path class="cls-8" d="M302.8,429.4c-1.4-2.8-3.1-5.3-5.3-7.1-5.7-4.7-13.6-4.1-20.8-5.7-7-1.5-14.1-3.1-21.1-4.6h-.3s-2.4-32.1-2.4-32.1l-42.1,5-3.4,33.5h-.1c-8.5,4.1-17.2,7.9-25.6,12.2-13.7,7.1-7.9,24.2,2.9,32.5,8.4,6.5,19.4,8.8,30,9.8,27.1,2.5,54.9-2.3,79.5-13.9,4-1.9,8.1-4.1,10.3-8,1.6-2.8,1.9-6.1,1.7-9.3-.2-3.8-1.3-8.4-3.2-12.3"/>
    <path class="cls-6" d="M207.4,418.9c-2.8,1.3-5.7,2.7-8.5,4-5.6,2.6-11.4,5.3-17,8.2-4.6,2.4-7.2,6.1-7.6,10.8-.6,6.9,3.7,15.5,10.6,20.8,9.1,7.1,21.3,8.9,29.7,9.7,27.2,2.5,54.6-2.3,79.2-13.8,3.7-1.7,7.9-3.9,10-7.7,1.3-2.3,1.8-5.4,1.6-9-.3-4-1.4-8.5-3.2-12.1-1.4-3-3.2-5.3-5.2-7-4-3.2-8.9-3.9-14.2-4.6-2.1-.3-4.2-.5-6.3-1l-21-4.6h-.2s-.4,0-.4,0l-.2-.4-2.3-31.5-41.1,4.9-3.4,33.1-.5.5ZM262.7,470.4c-15.7,3.5-32,4.6-48.2,3.1-8.5-.8-21-2.7-30.3-9.9-7.2-5.6-11.7-14.5-11.1-21.8.5-5.1,3.3-9.1,8.3-11.7,5.6-2.9,11.4-5.6,17-8.2,2.8-1.3,5.6-2.6,8.4-3.9l3.4-33.1c0-.3.2-.5.5-.5l42.1-5h.4c0,.1.2.5.2.5l2.3,31.6,21,4.6c2,.4,4.2.7,6.2,1,5.2.7,10.6,1.4,14.8,4.8,2.1,1.7,4,4.2,5.5,7.3,1.8,3.8,3,8.4,3.3,12.6.2,3.9-.3,7.1-1.8,9.7-2.3,4.1-6.6,6.4-10.5,8.2-10.2,4.8-20.8,8.4-31.7,10.8"/>
    <path class="cls-8" d="M202.2,372.8c.5-3-3.4-4.5-6.1-2.9-2.7,1.6-3.8,5-3.8,7.9,0,6,4.3,11.2,10.1,12.1.8.1,1.9,0,2-.9"/>
    <path class="cls-6" d="M203.6,390.4c-.4,0-.8,0-1.2,0-6-1-10.5-6.4-10.6-12.7,0-2.7,1.1-6.6,4.1-8.4,1.6-1,3.9-1,5.4,0,1.2.8,1.7,2.1,1.5,3.4l-.7.5-.5-.7c.2-1.2-.5-2-1-2.3-1.2-.8-2.9-.8-4.2,0-2.6,1.6-3.6,5-3.6,7.4,0,5.7,4.1,10.7,9.6,11.5.6,0,1.3,0,1.4-.4l.7-.5.5.7c-.1.7-.7,1.1-1.4,1.3"/>
    <path class="cls-8" d="M263.1,364.7c-.5-2.8,3.5-5.5,6.1-4.6,2.6.9,3.8,4,3.7,6.9-.1,6-4.5,12.3-10.3,14.8-.8.3-1.9.4-2-.3"/>
    <path class="cls-6" d="M262.2,382.6c-.5.1-1.1.1-1.5-.1-.3-.2-.5-.5-.6-.9,0-.3.1-.6.4-.7h0c.3,0,.6.2.7.5.2.2.7.1,1.2,0,5.6-2.4,9.9-8.5,10-14.3,0-2.4-.8-5.5-3.3-6.4-1.2-.4-2.8,0-4,1.1-1,.8-1.5,1.9-1.3,2.9,0,.3-.1.6-.4.6h0c-.3,0-.6-.2-.7-.5-.2-1.4.4-2.8,1.7-3.9,1.5-1.3,3.6-1.8,5.2-1.3,3.1,1.1,4.1,4.7,4.1,7.5-.1,6.3-4.6,12.7-10.7,15.3l-.7.2Z"/>
    <path class="cls-8" d="M266.5,353.2c.7-10.8-1.2-21.6-8.5-27.5-6.5-5.3-16.7-6.5-25.6-5.3-10.3,1.4-20.6,6.5-27.3,15.6-7,9.5-7.5,20.7-6,31.2.7,5.1,1,10.7,2.7,15.4,4.5,13.3,16.3,21.7,30.2,19.8,16-2.1,26.6-15.7,31.1-30.6,1.7-5.5,3-12.1,3.4-18.7"/>
    <path class="cls-6" d="M266.5,353.2h0s0,0,0,0ZM228.8,321.7c-9.4,2.1-17.7,7.3-23.1,14.7-5.9,8-7.8,17.8-5.9,30.8.2,1.3.3,2.6.5,3.9.5,3.9.9,7.9,2.1,11.4,4.5,13.4,16.4,21.2,29.5,19.5,14-1.9,25.4-13.1,30.6-30.2,1.3-4.3,2.9-11,3.4-18.5.6-8.8-.4-20.6-8.3-27-5.7-4.6-15.1-6.5-25.1-5.2-1.3.2-2.5.4-3.8.7M234.9,402.6c-.9.2-1.9.4-2.8.5-13.7,1.8-26.1-6.3-30.8-20.2-1.2-3.6-1.7-7.7-2.2-11.7-.2-1.3-.3-2.6-.5-3.9-1.9-13.4,0-23.4,6.1-31.6,6.3-8.5,16.4-14.3,27.6-15.8,10.4-1.4,20.1.7,26,5.4,8.2,6.7,9.3,18.9,8.7,27.9-.5,7.7-2.1,14.5-3.5,18.8-4.9,16.4-15.6,27.5-28.7,30.5"/>
    <path class="cls-6" d="M225.5,360.8c0,1.3-1.1,2.6-2.5,2.8-1.3.2-2.4-.8-2.4-2.1,0-1.3,1.1-2.6,2.5-2.8,1.3-.2,2.4.8,2.4,2.1"/>
    <path class="cls-6" d="M245.9,358.1c0,1.3-1.1,2.6-2.5,2.8-1.3.2-2.4-.8-2.4-2.1,0-1.3,1.1-2.6,2.5-2.8,1.3-.2,2.4.8,2.4,2.1"/>
    <path class="cls-8" d="M233.1,361c.2,1.3-.2,2.8-1.2,4-.3.3-.5.6-.7.9-.2.3-.2.7-.2,1,0,1.2.4,2.3,1.1,3.1"/>
    <path class="cls-6" d="M232.2,370.6l-.5-.2c-.9-.9-1.3-2.2-1.3-3.5,0-.5.1-.9.3-1.3l.6-.8.2-.2c.8-1,1.3-2.3,1.1-3.5,0-.3.2-.6.5-.7.3,0,.6.2.7.5.2,1.5-.3,3.2-1.3,4.4l-.2.2-.5.6c-.1.2-.2.5-.2.8,0,1,.3,2,.9,2.7v.8s-.3.1-.3.1Z"/>
    <path class="cls-8" d="M229.4,376.8c2.5,1,5.9.2,8.1-2"/>
    <path class="cls-6" d="M233.5,377.6c-1.5.3-3,.3-4.3-.3l-.3-.7.7-.3c2.3.9,5.5.1,7.5-1.9h.8s0,.8,0,.8c-1.2,1.2-2.8,2-4.4,2.4"/>
    <path class="cls-8" d="M218.6,350.8c.3-.8.8-1.5,1.5-2,1.7-1.4,4.3-1.3,5.3.3"/>
    <path class="cls-6" d="M218.8,351.4h-.3s-.3-.8-.3-.8c.4-.8.9-1.6,1.7-2.2,1.1-.9,2.5-1.2,3.8-1,1,.2,1.9.7,2.4,1.5.2.3,0,.6-.2.8-.3.2-.6,0-.8-.2-.3-.5-.9-.8-1.6-1-1-.2-2.1.1-2.9.8-.6.5-1.1,1.1-1.3,1.8l-.4.3Z"/>
    <path class="cls-8" d="M241.3,347.4c1.2-1.2,2.9-1.9,4.5-1.9,1.6,0,3,.8,3.8,2.1"/>
    <path class="cls-6" d="M249.8,348.2l-.6-.3c-.7-1.1-2-1.8-3.4-1.9-1.4,0-3,.6-4.1,1.7h-.8s0-.8,0-.8c1.3-1.3,3.2-2.1,4.9-2.1,1.8,0,3.4.9,4.3,2.4.2.3,0,.6-.2.8h-.2Z"/>
    <path class="cls-6" d="M212.2,397.9s21.1,14.6,42-8.4l.6,10.7s-22.7,13.6-42.6-2.4"/>
    <path class="cls-3" d="M206.7,354.7c0,1.4,0,2.7-.7,3.9-.6.9-1.5,1.6-2.2,2.5-3.1,3.5-2.7,14.1-3,18.4-.3-3,.2-8.6-3.3-9.6-2.1-.6-5.6,2.4-5.1,5.8-1.4-10.1-4.2-23.3-3.2-33.7.6-6.6,5.3-14.3,8-20.5.6-1.4,1.3-2.8,2.5-3.6,1.6-1,3.5-.5,5.3-1,4.6-1.2,6-7.3,9.4-11,3-3.3,7.6-4.4,11.6-4.1,4,.3,7.7,1.8,11.4,3,6.6,2.1,13.7,3.1,20.9,3.1,6.4,0,14.1-1.7,17.3-7.7-1.7,3.2,2,9.3,2,12.6,0,4.4-1.1,9-1.2,13.5-.2,6.6-.6,13.1-1.4,19.7-.3,2.5-3.9,15.3-2.7,16.7-1.4-1.6-3.3-2.8-5.4-3.3-.8,3.1-1.5,6.2-2.3,9.4.3-3.3.3-19.4-2.9-20.9-.8-.4-1.8.4-2.7.3-1.3,0-1.6-1.6-1.8-2.8-.5-4.5.2-12.6-3.7-15.4-1.7-1.2-6.8-.7-9-.7-9.4-.2-19.1,1.9-28.6,4.1-1.6.4-3.3.8-4.6,1.9-1.1,1-1.7,2.4-2.3,3.7-1.8,4.7-2.6,9.6-2.2,14.3,0,.5,0,1,0,1.5"/>
    <path class="cls-6" d="M206.7,354.7h0s0,0,0,0ZM260.4,347.2c.4,0,.9-.1,1.3,0,2.7,1.2,3.3,10.3,3.4,16.3l1.1-4.4.7-.4c1.7.4,3.2,1.2,4.5,2.3,0-2,.8-5.6,2-10.9.4-1.9.8-3.6.9-4.3.7-5.8,1.2-12.1,1.4-19.6,0-2.1.3-4.2.6-6.2.3-2.4.6-4.9.6-7.2,0-1.1-.5-2.7-1.1-4.4-.6-1.9-1.3-3.9-1.4-5.7-4.5,5.2-12.7,5.8-16.3,5.8-7.3,0-14.4-1-21.1-3.2-.8-.3-1.6-.5-2.4-.8-2.8-1-5.8-1.9-8.9-2.2-4.4-.3-8.6,1.1-11.1,3.9-1.2,1.3-2.1,2.9-3,4.4-1.7,2.9-3.4,5.9-6.6,6.7-.7.2-1.5.2-2.2.3-1.1,0-2.1,0-2.9.6-1.1.7-1.7,2-2.3,3.3-.7,1.7-1.6,3.4-2.5,5.3-2.5,5.1-5,10.3-5.5,15.1-.7,8,.8,17.9,2.2,26.5.2,1.3.4,2.6.6,3.8.4-.8,1-1.4,1.5-1.9,1.2-1,2.6-1.5,3.7-1.1,1.5.4,2.3,1.6,2.8,3,.2-4.5.9-9.3,2.8-11.6.3-.3.5-.6.8-.9.5-.5,1-1,1.3-1.5.7-1.1.7-2.4.7-3.6,0-.3,0-.6,0-1v-.5c-.4-4.8.4-9.8,2.2-14.6.5-1.3,1.2-2.8,2.4-3.9,1.3-1.2,3-1.6,4.8-2,.4,0,.8-.2,1.2-.3,9.8-2.2,18.7-4,27.5-3.8.5,0,1.1,0,1.8,0,2.7,0,6-.2,7.5.9,3.3,2.4,3.6,8,3.7,12.6,0,1.2,0,2.3.2,3.2.2,1.5.6,2.3,1.2,2.3.3,0,.6,0,1-.2l.6-.2ZM264.5,369.2h-.2s-.5-.6-.5-.6c.4-4.6,0-19.1-2.6-20.3-.3-.1-.7,0-1.1.2-.4.1-.9.3-1.4.2-1.3,0-2.1-1.2-2.3-3.4-.1-1-.1-2.1-.2-3.3-.2-4.3-.4-9.6-3.3-11.7-1.2-.8-4.6-.7-6.8-.7-.7,0-1.4,0-1.9,0-8.7-.2-17.5,1.6-27.2,3.8-2.1.5-4.1.8-5.5,2.1-1,.9-1.6,2.3-2.1,3.5-1.8,4.6-2.5,9.5-2.2,14.1v.5c0,.3,0,.6.1,1,0,1.3,0,2.9-.8,4.3-.4.7-.9,1.2-1.5,1.7-.3.3-.5.5-.8.8-2.4,2.8-2.6,10.7-2.7,15.4,0,1,0,2,0,2.7l-.6.5c-.3,0-.6-.2-.6-.5,0-.5,0-1.2-.1-1.8-.1-2.9-.3-6.6-2.8-7.3-.7-.2-1.7.2-2.6.9-1,.9-2,2.4-1.8,4.2,0,.3-.2.6-.5.6-.3,0-.6-.2-.6-.5h0c-.3-2.2-.7-4.6-1.1-7-1.4-8.7-2.9-18.6-2.2-26.8.4-5,3.1-10.3,5.6-15.5.9-1.8,1.8-3.6,2.5-5.3.7-1.6,1.4-3,2.8-3.9,1.1-.7,2.3-.7,3.5-.8.7,0,1.3,0,2-.2,2.7-.7,4.3-3.4,5.9-6.2.9-1.6,1.9-3.3,3.1-4.6,2.8-3,7.3-4.7,12.1-4.3,3.2.2,6.2,1.2,9.1,2.2.8.3,1.6.5,2.4.8,6.6,2.1,13.6,3.1,20.7,3.1,3.9,0,13.2-.8,16.8-7.4h0s.8-.2.8-.2l.2.8c-1,1.8,0,4.8.9,7.5.6,1.8,1.1,3.5,1.2,4.8,0,2.4-.3,4.9-.6,7.4-.3,2-.5,4.1-.6,6.1-.3,7.6-.7,13.9-1.4,19.7,0,.8-.5,2.4-.9,4.4-.8,3.5-2.5,10.9-1.9,11.8v.8c0,0-.9,0-.9,0-1.2-1.4-2.8-2.4-4.6-3l-2.2,8.8-.4.4Z"/>
    <path class="cls-9" d="M207.2,264.7l-2.3,16.9,19.7,16s17.2-2.2,19.3-2.4c2.1-.3,21-21.1,21-21.1l-3.8-17.4-53.8,8Z"/>
    <path class="cls-6" d="M224.8,297.1c2.1-.3,17.1-2.2,19.1-2.4,1.6-.4,13.3-12.8,20.4-20.7l-3.7-16.6-52.8,7.8-2.2,16.2,19.2,15.7ZM244,295.8h0c-2.1.3-19.3,2.4-19.3,2.4h-.4c0-.1-19.7-16.1-19.7-16.1l-.2-.5,2.3-16.9.5-.5,53.8-8c.3,0,.6.2.6.4l3.8,17.4v.5c-4.6,4.9-19.1,20.8-21.4,21.3"/>
    <path class="cls-8" d="M208,277.1s-13.7,11.7-13.8,22.8c0,0,12.1,26.1,21.3,29.8-1.6,2.8-6,7.8-4.9,10.8,1.1,3,8.6,6.2,11.6,3.7,3-2.5,7.6-9.7,8.9-13.5,2.6-7.2-1.6-11-3.1-16.8l-3-11.9,5.6-5.1s5.8-25.4-22.6-19.8"/>
    <path class="cls-6" d="M194.8,299.8c.9,1.9,12.4,26,21,29.4l.3.3v.5c-.4.7-1,1.5-1.6,2.4-1.7,2.5-4.1,6-3.3,7.9.5,1.4,3,3.1,5.7,3.9,2.2.6,4,.4,5-.4,2.9-2.4,7.4-9.5,8.7-13.2,1.7-4.8.3-8-1.2-11.4-.7-1.6-1.4-3.2-1.9-5.1l-3-11.9.2-.6,5.5-4.9c.3-1.4,1.8-10.5-3.3-15.8-3.7-3.8-9.9-4.8-18.5-3.2-1.3,1.1-13.3,12-13.5,22.1M220.7,345.5c-1.2.3-2.6.2-4.2-.2-2.6-.7-5.7-2.5-6.5-4.6-.9-2.5,1.5-6.1,3.5-8.9.4-.6.8-1.2,1.2-1.8-9.2-4.6-20.5-28.8-21-29.9v-.2c0-11.2,13.4-22.7,13.9-23.2h.3c9.1-1.9,15.7-.8,19.7,3.3,6,6.2,3.7,16.6,3.6,17l-.2.3-5.3,4.8c.9,3.7,2.9,11.6,2.9,11.6.4,1.7,1.1,3.3,1.8,4.9,1.6,3.6,3.1,7.1,1.3,12.3-1.4,3.9-6.1,11.2-9.1,13.7-.5.4-1.1.7-1.8.9"/>
    <path class="cls-6" d="M225.1,302.6h0c-.3,0-.6-.2-.7-.5,0,0-1.2-7.5-6.8-8.4l-.5-.7.7-.5c6.5,1.1,7.7,9,7.8,9.4,0,.3-.2.6-.4.6"/>
    <path class="cls-6" d="M219.3,330.5c-1.5.3-2.9.3-4.3,0l-.4-.7.7-.4c2.2.5,4.8,0,6.9-1.3.2-.2.6,0,.8.2.2.3,0,.6-.2.8-1.1.7-2.2,1.1-3.4,1.4"/>
    <path class="cls-8" d="M262,270.4s13.5,8.1,13.4,19.2c0,0-12.6,29.4-21.9,35.6,1.5,2.3,5.9,6.3,4.7,9.5-1.2,3.3-8.7,8.5-11.7,6.8-3-1.7-7.4-7.8-8.7-11.2-2.5-6.5,1.8-11.4,3.4-17.7l3.2-12.8-5.5-3.6s-5.3-23.9,23.1-25.9"/>
    <path class="cls-6" d="M239.5,296l5.3,3.4.2.6c-1.5,5.8-3.2,12.7-3.2,12.8-.5,1.9-1.2,3.8-2,5.5-1.6,3.8-3.1,7.5-1.5,11.8,1.2,3.3,5.6,9.3,8.4,10.9.7.4,1.9.3,3.4-.2,3.1-1.2,6.8-4.2,7.5-6.3.8-2.1-1.4-4.8-3.2-7-.6-.7-1.1-1.4-1.5-2-.2-.3,0-.6.2-.8,8.8-5.8,20.8-33.3,21.7-35.2,0-10-11.5-17.6-13-18.5-8.8.6-15.2,3.5-19,8.5-4.9,6.6-3.7,15-3.4,16.4M249.3,342.2c-1.2.3-2.3.2-3.1-.2-3.1-1.8-7.6-7.9-8.9-11.4-1.8-4.7-.2-8.6,1.5-12.6.7-1.7,1.4-3.5,1.9-5.4,0-.2,2.6-10.2,3.1-12.4l-5.2-3.4-.2-.4c0-.4-2.1-9.9,3.6-17.6,4-5.3,10.7-8.3,20-9h.3c.6.4,13.8,8.5,13.7,19.8v.2c-.6,1.2-12.4,28.7-21.7,35.5.3.4.7.9,1.1,1.5,1.9,2.4,4.3,5.3,3.3,8.1-.8,2.4-4.7,5.6-8.2,6.9-.5.2-.9.3-1.3.4"/>
    <path class="cls-6" d="M244.6,300.4h-.2s-.5-.6-.5-.6c0-.3,1.4-8.5,7.8-11.3.3-.1.6,0,.8.3.1.3,0,.6-.3.8-5.8,2.5-7.2,10.3-7.2,10.4l-.4.5Z"/>
    <path class="cls-6" d="M251.7,326.7c-1.8.4-3.7.3-5.3-.3l-.3-.7.7-.3c2.1.8,4.7.6,6.9-.5.3-.1.6,0,.8.3.1.3,0,.6-.3.8-.8.4-1.6.7-2.4.9"/>
    <path class="cls-8" d="M192,265.7l26.1-13.9c1.8-1.1,3.6,1.8,3.4,3.1.8-.7,1.7-1,2.6-1.1,1.5-.2,3.2.2,4,1.3.9,1.1.6,3.2-.8,4.1.7-.7,1.9-.6,2.5,0,2.2,2.3-1,6.5-3.2,8.1,0,0,8.6,1.3.5,8.6l-17.4,12.2s3,13.8-13.2,21.5l-16.2,20.6-25.1-17,29.4-42.1,7.5-5.3Z"/>
    <path class="cls-6" d="M156,313l24.2,16.4,15.9-20.2.2-.2c15.5-7.4,12.9-20.7,12.9-20.8l.2-.6,17.4-12.2c2.4-2.2,3.5-4,3.1-5.3-.5-1.7-3.4-2.2-3.4-2.2l-.5-.4.2-.6c1.7-1.2,3.5-3.6,3.7-5.5,0-.7-.1-1.3-.6-1.8-.3-.3-.9-.5-1.4-.2l-.4.3-.7-.2v-.8c0,0,.5-.3.5-.3.3-.3.5-.7.6-1.2.1-.6,0-1.3-.3-1.8-.9-1.2-2.8-1.1-3.5-1.1-.9,0-1.7.4-2.3.9h-.7c0,0-.3-.5-.3-.5,0-.7-.5-2-1.3-2.5-.4-.3-.8-.3-1.2,0l-26.1,13.9-7.4,5.2-29,41.6ZM180.4,330.7h-.4c0,0-25.1-17.1-25.1-17.1l-.2-.4v-.4c0,0,29.5-42.1,29.5-42.1h.1c0-.1,7.5-5.4,7.5-5.4h0s26.1-14,26.1-14c.7-.5,1.6-.4,2.4,0,.8.5,1.5,1.6,1.7,2.5.6-.3,1.3-.6,2.1-.6,2-.2,3.7.3,4.5,1.5.5.7.7,1.7.5,2.7l-.2.7c.5,0,1,.3,1.3.7.7.7,1,1.6.9,2.7-.2,2.1-1.9,4.2-3.3,5.5,1.1.4,2.7,1.2,3.2,2.7.5,1.8-.7,4-3.5,6.6l-17.2,12c.3,2.3,1.3,14.6-13.4,21.7l-16.2,20.5-.3.2Z"/>
    <path class="cls-6" d="M206.8,280.3l-.6-.3c-.2-.3,0-.6.2-.8l19.9-12.4c.3-.2.6,0,.8.2.2.3,0,.6-.2.8l-19.9,12.4h-.2Z"/>
    <path class="cls-6" d="M202.7,273.9l-.6-.3c-.2-.3,0-.6.2-.8l24.9-14.6c.3-.2.6,0,.8.2.2.3,0,.6-.2.8l-24.9,14.6h-.2Z"/>
    <path class="cls-6" d="M214.4,259.4l-.6-.3c-.2-.3,0-.6.2-.8l7.2-4c.3-.2.6,0,.8.2.2.3,0,.6-.2.8l-7.2,4h-.2Z"/>
    <path class="cls-8" d="M279.8,254.7l-25.9-7.1c-1.8-.7-3.6,2.7-3.5,4-.8-.5-1.6-.6-2.6-.4-1.5.3-3.2,1-4.1,2.4-.9,1.4-.7,3.4.7,3.8-.7-.5-1.9,0-2.5.7-2.2,2.9.9,6.2,3.1,7.2,0,0-8.7,3.6-.7,8.7l17.2,7.6s-3.2,14.6,12.8,18l15.9,16.4,25.5-23.7-28.7-34.4-7.4-3.3Z"/>
    <path class="cls-6" d="M243.5,257.9c-.4,0-.8.3-1.1.7-.6.8-.8,1.6-.6,2.5.4,1.7,2.1,3.2,3.4,3.8l.3.5-.4.5s-3.5,1.5-3.7,3.7c-.1,1.3.9,2.6,3.1,4l17.1,7.5.3.6c0,0-1.3,5.9,2,10.9,2.1,3.2,5.6,5.4,10.4,6.4l.3.2,15.5,16,24.7-23-28.2-33.9-7.2-3.3-25.8-7c-.4-.1-.8,0-1.2.3-1,.8-1.7,2.5-1.6,3.1l-.3.6h-.6c-.6-.4-1.3-.5-2.2-.3-1.6.3-3,1-3.7,2.1-.4.7-.6,1.5-.3,2.2l.4.6.5.2.2.7-.7.3-.4-.2h-.4ZM290.4,316.7l-.5-.2-15.8-16.3c-5-1.1-8.7-3.4-11-6.9-3-4.6-2.4-9.7-2.2-11.3l-16.8-7.4c-2.6-1.7-3.9-3.4-3.7-5.1.2-2,2.2-3.4,3.4-4.1-1.4-.9-2.7-2.4-3.1-4.1-.3-1.3,0-2.5.8-3.5.4-.5.9-.8,1.4-1v-.3c-.5-1-.3-2.3.3-3.2.9-1.3,2.5-2.3,4.5-2.6.8-.1,1.5,0,2.2.1.2-1.1,1-2.5,1.9-3.2.9-.7,1.7-.7,2.2-.5l25.8,7h0s7.4,3.4,7.4,3.4l.2.2,28.7,34.4v.8s-25.6,23.7-25.6,23.7h-.3Z"/>
    <polygon class="cls-6" points="265 273.2 264.7 273.1 244.9 266 244.6 265.2 245.3 264.9 265.1 272.1 265.4 272.8 265 273.2"/>
    <polygon class="cls-6" points="269.2 265.7 268.9 265.7 244.2 257.6 243.9 256.9 244.6 256.5 269.3 264.6 269.7 265.3 269.2 265.7"/>
    <polygon class="cls-6" points="257.8 254.2 257.5 254.2 250.3 252.2 249.9 251.5 250.6 251.1 257.8 253.1 258.2 253.8 257.8 254.2"/>
    <path class="cls-9" d="M311.6,279.4l-31.8,30.7,24.2,52.6-24.5,45.5c-32.5,40.1-92.7,14.8-92.7,14.8l-29.2-41.7,35.2-62-28.2-23.4-58.8,80.5c-1.6,42.1,41.9,145.1,41.9,145.1l-.8,14.5,178-1.5c26.3-66.9,36-182.6,36-182.6l-49.3-72.4Z"/>
    <path class="cls-6" d="M106.4,376.5c-1.5,41.6,41.4,143.6,41.9,144.7v.3s-.7,13.5-.7,13.5l176.9-.9c24.6-62.6,35.6-179.7,35.9-182.1l-48.8-71.6-31,30,24,52.2v.5s-24.5,45.5-24.5,45.5c-32.4,40-92.8,15.3-93.4,15l-.2-.2-29.2-41.7v-.6s34.9-61.6,34.9-61.6l-27.3-22.7-58.3,79.9ZM147,536.5h-.4c0,0-.3-.6-.3-.6l.8-14.3c-1.7-4.1-43.5-104.1-41.9-145.2v-.3c.1,0,58.9-80.5,58.9-80.5l.4-.2h.4c0,.1,28.2,23.5,28.2,23.5v.7c.1,0-34.8,61.7-34.8,61.7l28.9,41.3c3.4,1.4,60.9,23.6,91.9-14.6l24.3-45.1-24.1-52.3v-.6c.1,0,31.9-30.7,31.9-30.7l.5-.2.4.2,49.3,72.4v.4c0,.2-9.9,116.6-36,182.8l-.3.3-178,1.5h-.1Z"/>
    <path class="cls-8" d="M212.7,200.5c.4-2.3-2.6-3.5-4.6-2.2-2,1.2-2.9,3.8-2.9,6,0,4.6,3.3,8.5,7.7,9.2.6,0,1.4,0,1.6-.7"/>
    <path class="cls-6" d="M213.8,214.1c-.3,0-.7,0-1,0-4.6-.7-8.2-5-8.2-9.8,0-2.1.8-5.1,3.2-6.5,1.3-.8,3.1-.7,4.3,0,1,.7,1.4,1.7,1.2,2.7,0,.3-.3.5-.7.5l-.5-.7c.2-.9-.4-1.4-.7-1.6-.7-.5-2-.7-3,0-2,1.2-2.7,3.7-2.6,5.5,0,4.3,3.1,8,7.2,8.7.4,0,.9,0,.9-.2,0-.3.3-.5.7-.5l.5.7c-.1.6-.6,1-1.2,1.1"/>
    <path class="cls-8" d="M259.1,194.4c-.3-2.2,2.7-4.2,4.7-3.5,2,.7,2.9,3,2.8,5.3,0,4.6-3.5,9.4-7.9,11.3-.6.2-1.4.3-1.5-.3"/>
    <path class="cls-6" d="M258.4,208.2c-.4,0-.9.1-1.3,0-.3-.2-.5-.4-.5-.8,0-.3.1-.6.4-.7h0c.3,0,.6.2.7.5h.4c0,0,.4-.2.4-.2,4.2-1.8,7.4-6.4,7.5-10.8,0-1.8-.6-4.1-2.4-4.7-.8-.3-2.1,0-2.9.8-.7.6-1.1,1.4-1,2.1,0,.3-.2.5-.5.7-.3,0-.6-.2-.7-.5-.2-1.1.3-2.2,1.4-3.1,1.2-1,2.8-1.4,4.1-1,2.4.8,3.3,3.7,3.2,5.8-.1,4.9-3.6,9.8-8.2,11.8l-.5.2Z"/>
    <path class="cls-8" d="M262.1,187.7c.5-8.2-.9-16.4-6.5-20.9-5-4-12.8-4.9-19.5-4.1-7.9,1-15.7,5-20.8,11.9-5.4,7.3-5.7,15.8-4.6,23.8.6,3.9.8,8.1,2,11.7,3.4,10.2,12.4,16.5,23,15.1,12.2-1.6,20.2-12,23.7-23.3,1.3-4.2,2.3-9.2,2.6-14.2"/>
    <path class="cls-6" d="M233.3,163.8c-7.1,1.6-13.4,5.6-17.5,11.1-4.5,6.1-5.9,13.5-4.5,23.4.1,1,.3,2,.4,3,.4,3,.7,6,1.6,8.7,3.4,10.1,12.4,16.1,22.4,14.8,10.6-1.4,19.3-10,23.2-22.9,1-3.3,2.2-8.4,2.6-14.1.4-6.7-.3-15.6-6.3-20.4-4.3-3.5-11.4-4.9-19-3.9-1,.1-1.9.3-2.9.5M238,225.4c-.7.2-1.4.3-2.2.4-10.5,1.4-20-4.8-23.6-15.5-.9-2.8-1.3-5.9-1.7-8.9-.1-1-.2-2-.4-2.9-1.5-10.2,0-17.9,4.7-24.2,4.8-6.5,12.5-11,21.2-12.1,7.9-1.1,15.4.5,19.9,4.2,6.3,5.1,7.1,14.5,6.7,21.4-.4,5.9-1.6,11-2.6,14.4-3.8,12.5-11.9,21.1-22,23.3"/>
    <path class="cls-6" d="M230.2,192.6c0,1-.9,2-1.9,2.1-1,.1-1.9-.6-1.8-1.6,0-1,.9-2,1.9-2.1,1-.1,1.9.6,1.8,1.6"/>
    <path class="cls-6" d="M245.7,190.6c0,1-.9,2-1.9,2.1-1,.1-1.9-.6-1.8-1.6,0-1,.9-2,1.9-2.1,1-.1,1.9.6,1.8,1.6"/>
    <path class="cls-8" d="M210.5,224.6s-12.4,8.4-14.4,26.6c0,0-2.7,22.5,17.8,14.9l15.1-26.6-7.3-8.3-9.4,10.5"/>
    <path class="cls-6" d="M210.3,267.8c-4.3,1-7.7.5-10.3-1.5-5.7-4.5-4.5-14.7-4.5-15.1,2-18.2,14.6-26.9,14.7-27,.3-.2.6-.1.8.2l-.2.8c-.1,0-12.2,8.5-14.2,26.2,0,.1-1.1,10,4.1,14.1,2.9,2.2,7.1,2.3,12.7.3l14.8-26.1-6.6-7.5-8.9,10h-.8s0-.8,0-.8l9.4-10.5.4-.2.4.2,7.3,8.3v.7c0,0-15,26.7-15,26.7l-.3.3c-1.3.5-2.6.9-3.8,1.1"/>
    <path class="cls-8" d="M260.4,218.7s12.2,5.4,13.5,23.1c0,0,1.9,22-18.4,19.4l-14.1-23,7.7-10.1,9,8.2"/>
    <path class="cls-6" d="M262.8,261.5c-2.2.5-4.6.6-7.4.2l-.4-.3-14.1-23v-.6s7.7-10.1,7.7-10.1l.4-.2h.4c0,.1,9,8.4,9,8.4v.8s-.8,0-.8,0l-8.5-7.8-7.1,9.3,13.8,22.5c5.4.6,9.6-.5,12.6-3.3,5.7-5.4,4.9-15.4,4.9-15.5-1.3-17.2-13.1-22.6-13.2-22.6l-.3-.8.8-.3c.1,0,12.5,5.7,13.9,23.6,0,.4.8,10.6-5.2,16.4-1.8,1.7-3.9,2.8-6.4,3.4"/>
    <path class="cls-8" d="M218.4,234.6c-.2-2.3-.4-5.6,1.8-7.4,1.1-.9,2.6-1.3,3.8-.9,4-7.6,12.2,1.4,11,6.8-.9,4.1-4.5,7.3-8.1,9"/>
    <path class="cls-6" d="M227.1,242.7l-.6-.3c-.1-.3,0-.6.3-.8,4.1-1.9,7.1-5.2,7.8-8.6.7-3.1-2.1-7.7-5.2-8.8-1.9-.7-3.6.1-4.7,2.4l-.7.3c-1-.3-2.3,0-3.3.8-1.9,1.6-1.9,4.5-1.6,6.9,0,.3-.2.6-.5.6-.3,0-.6-.2-.6-.5-.3-2.7-.3-6,2-7.9,1.1-.9,2.6-1.3,3.9-1.1,1.4-2.5,3.6-3.4,5.9-2.5,3.7,1.3,6.7,6.5,5.9,10.1-.8,3.8-4,7.4-8.4,9.4h-.1Z"/>
    <path class="cls-6" d="M221.9,229.8h-.5c0,0-.1-.9-.1-.9.7-.9,1.5-1.8,2.4-2.6h.8c0,0,0,.9,0,.9-.8.7-1.5,1.5-2.2,2.4l-.3.2Z"/>
    <path class="cls-6" d="M228.3,227l-.6-.2v-.8c.8-.5,1.3-1.1,1.5-1.8l.7-.3.3.7c-.3.9-1,1.8-1.8,2.4h-.2Z"/>
    <polygon class="cls-6" points="231.6 229.5 231.2 229.4 231.1 228.6 232.5 226.6 233.3 226.4 233.4 227.2 232 229.2 231.6 229.5"/>
    <path class="cls-6" d="M234,233.1h-.2c-.3,0-.5-.3-.5-.6.1-.9.6-1.7,1.4-2.2.3-.2.6-.1.8.2.2.3.1.6-.2.8-.5.3-.8.9-.9,1.4l-.4.5Z"/>
    <path class="cls-8" d="M253,230c.3-2.4.5-5.7-1.7-6.9-1.1-.6-2.6-.6-3.8.1-3.9-6.6-12.2,4.7-11.2,9.8.8,3.9,4.3,6.2,8,6.9"/>
    <path class="cls-6" d="M244.3,240.5h-.2c-4.5-.9-7.7-3.7-8.4-7.3-.8-3.8,3.2-10.6,7.2-12.2,1.9-.7,3.6-.2,4.8,1.5,1.3-.6,2.8-.5,3.9.1,2.7,1.5,2.2,5.7,2,7.5,0,.3-.3.5-.6.5-.3,0-.5-.3-.5-.6.3-2.4.4-5.3-1.4-6.3-.9-.5-2.2-.5-3.3.1-.3.2-.6,0-.8-.2-.9-1.6-2.1-2.1-3.7-1.5-3.4,1.3-7.1,7.6-6.4,10.8.7,3.2,3.5,5.6,7.5,6.4l.4.7-.4.4Z"/>
    <path class="cls-6" d="M249.9,226.1l-.6-.2c-.6-.7-1.3-1.3-2.1-1.8l-.2-.8.8-.2c.9.5,1.7,1.2,2.4,2v.8s-.3.1-.3.1Z"/>
    <path class="cls-6" d="M243.5,225h-.4c-.9-.4-1.5-1.1-1.9-2-.1-.3,0-.6.3-.7.3-.1.6,0,.7.3.2.6.7,1.1,1.3,1.4l.3.8-.4.3Z"/>
    <polygon class="cls-6" points="240.1 228.4 239.5 228.2 238.1 226.5 238.2 225.7 239 225.8 240.4 227.4 240.3 228.2 240.1 228.4"/>
    <path class="cls-6" d="M237.7,232.6h0c-.3,0-.6-.2-.6-.5,0-.5-.3-.9-.8-1l-.3-.7.7-.3c.8.3,1.4,1.1,1.5,2l-.4.6Z"/>
    <path class="cls-6" d="M345,369.9c-1,.2-2,.3-3.1.3-.3,0-.6-.3-.5-.6,0-.3.3-.6.6-.5,5,.3,10.6-3.6,12.4-8.7l.7-.3.3.7c-1.6,4.5-5.9,8.2-10.4,9.2"/>
    <path class="cls-6" d="M315.2,374h-.1c-5.9.1-10.8-4.5-11-10.4,0-.3.2-.6.6-.6.3,0,.6.2.6.6.2,5.2,4.6,9.4,9.9,9.3.3,0,.6.2.6.6l-.4.6Z"/>
    <path class="cls-6" d="M146,391.3h-.4c-.3.1-.6,0-.7-.4,0-.3.1-.6.4-.7h.4c4.2-1,8.1-4.3,9.9-8.4l.8-.3.3.8c-1.9,4.4-6.1,8-10.7,9"/>
    <path class="cls-6" d="M235.4,196.1h-.3c-.4-.2-1.3-.5-1.5-1.4,0-.4,0-.9.4-1.3.4-.5,1-.8,1.6-.9.6,0,1.1.2,1.5.7.3.4.3.8.1,1.2l-.7.3-.3-.7h0c0,0-.5-.3-.5-.3l-.8.4v.4c0,.2.3.4.6.5l.3.7-.4.4Z"/>
    <path class="cls-9" d="M230.3,198.4l11-.5s1.8,7.5-6.6,8c0,0-6.8,1.4-4.4-7.4"/>
    <path class="cls-6" d="M230.8,198.9c-.6,2.6-.5,4.4.5,5.4,1.2,1.3,3.4.9,3.4.9,2.5-.1,4.2-.9,5.2-2.3,1.2-1.6,1.1-3.6,1-4.5l-10,.5ZM236.7,206.1c-.6.1-1.2.2-1.9.3,0,0-2.7.5-4.4-1.2-1.3-1.4-1.5-3.7-.6-6.9l.5-.4,11-.5.6.4c0,.1.8,3.4-1.1,5.9-.9,1.2-2.3,2-4.1,2.4"/>
    <path class="cls-6" d="M209.2,175.5c-1.4,3.2-2.8,6.4-2.9,9.7,0,2.1.4,4.1.9,6,.8,3.1,1.7,6.2,3.6,8.7.3-2.8.5-5.6.5-8.3,1.5,0,2.7-1.3,3.7-2.6,2.3-3,4-6.4,5.2-9.9-.1,2.1-.5,4.2-1.1,6.2,5.6-2.9,11.9-3.6,17.2-7.2,2.2-1.5,4.1-3.4,6-5.2,0,1.9-.9,3.9-2.4,5.3,2.4,0,4.9-1.5,6.5-3.6.5,1.8,1.5,3.4,2.9,4.6.5.4,1,.7,1.6.7.6,0,1.4-.4,1.5-1.1.2-.7-.2-1.5.3-1.9,1.2,3.7,3.2,7,5.9,9.6.3.3.6.5,1,.4.7,2.8,1.1,5.7,1.2,8.7,1.1-1.6,2-3.3,2.6-5.1.7.4,1.3,1.1,1.5,1.9.8-5.6,1.5-11.2,1.1-16.6-.8-10.8-8.1-21-19.7-20.8-3,0-6.1.8-9.1.8-3,0-6.2-.6-7.9-2.8-.4-.5-.8-1.2-1.4-1.4-.7,2-.7,4.2,0,6-3.1-.2-4.8-3.2-6.2-5.9-2.3,2.8-2.8,6.6-2.8,10l-.2.8c-.4.5-1.2.3-1.5-.1-.3-.5-.5-1.1-1-1.4-.6-.4-1.6,0-2.1.6-.5.6-.8,1.5-1,2.2-.5,2.2-.8,4.5-.7,6.7-2.4.6-2.4,3.1-3.2,4.8"/>
    <path class="cls-9" d="M223.5,163.6s23.4-5.9,31.6,5.9c0,0-18.3-5-33.4,0l-4.4-1.2,6.2-4.7Z"/>
    <path class="cls-6" d="M225.4,168c11.5-2.6,23.9-.4,28.3.6-8.3-9.3-28.2-4.9-29.9-4.4l-5.2,4,3.1.9c1.2-.4,2.4-.7,3.7-1M255.3,170h-.3c-.2,0-18.3-4.8-33.1,0h-.3s-4.4-1.2-4.4-1.2l-.4-.4.2-.6,6.2-4.7c.1,0,.2-.1.9-.3,4-.9,23.9-4.7,31.6,6.3v.7s-.3.2-.3.2Z"/>
    <path class="cls-4" d="M205.1,168.8c-2.5.2-4.9,1.5-6.4,3.6-1.5,2-2,4.8-1.3,7.2.1.4.3.8.6,1.1.4.3.9.4,1.4.4,1.2.1,2.5.2,3.6-.1,1.2-.4,2.2-1.3,2.3-2.6-.6,1.3-1.1,2.7-1,4.1,0,1.4.8,2.9,2.2,3.3,1.3.5,2.7,0,3.6-1.1.9-1,1.2-2.4,1.2-3.7.7,1.8,2.7,3,4.7,2.7,1.9-.3,3.4-2.2,3.4-4.1,0-1.9-1.6-3.8-3.5-4.1,3.3,1.8,8,0,9.4-3.5.2-.5.3-1,.3-1.5-.1-1.4-1.4-2.4-2.8-2.6-1.4-.2-2.7.2-4,.5,2.9-.8,3.9-4.3,1.8-6.4-2.6-2.7-8.4-.2-8.5,3.6,0-3.3-3.6-7.1-6.7-4.5-2.2,1.9-1.4,5.4-.2,7.7"/>
    <path class="cls-6" d="M205.2,180.1c-.3.8-.4,1.6-.4,2.3,0,1.1.6,2.4,1.8,2.8,1,.4,2.2,0,3-.9.7-.8,1.1-2,1.1-3.3,0-.3.1-.5.5-.6l.6.4c.6,1.6,2.4,2.6,4,2.3,1.6-.3,3-1.9,2.9-3.6,0-1.2-.7-2.4-1.7-3-.5-.1-1-.3-1.5-.6l-.3-.7.6-.4c.6,0,1.1.3,1.6.6,1.1.2,2.4.2,3.6-.3,1.7-.6,3-1.9,3.6-3.4.2-.5.3-.9.2-1.3,0-1.1-1.3-1.9-2.3-2.1-1.2-.2-2.6.2-3.8.5h0c-.3,0-.6,0-.7-.4,0-.3,0-.6.4-.7h0c1.2-.4,2.1-1.3,2.4-2.4.3-1.1,0-2.2-.8-3.1-1-1-2.7-1.2-4.4-.5-1.8.7-3,2.2-3,3.7h0c0,.3-.3.6-.6.6-.3,0-.6-.3-.6-.6,0-1.8-1.2-3.7-2.7-4.5-.7-.3-1.9-.5-3.1.5-2.1,1.8-1,5.3,0,6.9v.6s-.5.3-.5.3c-2.4.2-4.6,1.4-5.9,3.4-1.4,1.9-1.8,4.4-1.2,6.7,0,.3.2.6.4.8.2.2.6.3,1.1.3,1.1.1,2.3.2,3.4-.1.5-.2,1-.5,1.4-.9.2-.5.4-.9.5-1.4l.7-.3.4.6c0,.6-.3,1.2-.6,1.7M208.2,186.5c-.7.2-1.4.1-2-.1-1.7-.6-2.5-2.4-2.5-3.9,0-.4,0-.8,0-1.2l-.6.2c-1.3.4-2.6.3-3.8.2-.5,0-1.2-.1-1.7-.6-.4-.4-.6-.9-.7-1.4-.7-2.6-.1-5.5,1.4-7.7,1.4-2,3.6-3.3,6-3.7-1.2-2.5-1.5-5.8.7-7.6,1.3-1.1,2.8-1.3,4.3-.6,1.3.6,2.4,1.8,2.9,3.2.6-1.1,1.7-2,3.1-2.5,2.2-.9,4.4-.6,5.7.8,1.1,1.1,1.5,2.7,1.1,4.2-.1.6-.4,1.1-.7,1.5.5,0,1,0,1.5,0,1.5.3,3.1,1.4,3.3,3.1,0,.5,0,1.1-.3,1.8-.7,1.8-2.3,3.3-4.3,4-.8.3-1.7.5-2.5.5.6.8,1,1.8,1,2.8,0,2.2-1.6,4.2-3.7,4.7h-.2c-1.6.3-3.3-.3-4.4-1.5-.2.9-.6,1.7-1.2,2.4-.6.7-1.4,1.2-2.2,1.3"/>
    <path class="cls-9" d="M214,170.9c.4,1.9-1,3.9-3.1,4.3-2.2.5-4.3-.7-4.7-2.6-.4-1.9,1-3.9,3.1-4.3,2.2-.5,4.3.7,4.7,2.6"/>
    <path class="cls-6" d="M209.4,168.9c-1.8.4-3.1,2.1-2.7,3.7.4,1.6,2.2,2.6,4,2.2,1.8-.4,3.1-2.1,2.7-3.7-.4-1.6-2.2-2.6-4-2.1M211,175.8c-2.5.6-4.9-.8-5.4-3-.5-2.2,1.1-4.5,3.6-5,2.5-.6,4.9.8,5.4,3,.5,2.2-1.1,4.5-3.6,5"/>
    <polygon class="cls-6" points="295.9 233.9 295.6 233.9 295.2 233.2 307.3 194.4 308.1 194 308.4 194.8 296.3 233.5 295.9 233.9"/>
    <polygon class="cls-6" points="311.7 245.5 311.2 245.3 311.3 244.5 333.7 226.2 334.5 226.3 334.4 227.1 312 245.4 311.7 245.5"/>
    <path class="cls-6" d="M344.5,264.7h-.1s-18.9.5-18.9.5c-.3,0-.6-.2-.6-.6,0-.3.2-.6.6-.6l18.9-.4c.3,0,.6.2.6.6l-.4.6Z"/>
  </g>
  <rect class="cls-10" x="12" y="12" width="451" height="451" rx="14.2" ry="14.2"/>
  <g>
    <path class="cls-11" d="M71.9,87.9c0-3.9,1.3-6.9,3.9-9,2.6-2.1,6.3-3.2,11.1-3.2s8.5,1.1,11.1,3.2c2.6,2.1,3.9,5.1,3.9,9s-.4,4.1-1.2,5.8c-.8,1.6-2,3-3.6,4v7.8c0,1,.6,1.5,1.7,1.5s.8,0,1.2,0c.4,0,.9,0,1.3-.1.4,0,.9,0,1.2-.1.4,0,.7,0,.9-.1.9,0,1.3.3,1.3,1.2v2.6c0,.7-.4,1.2-1.2,1.3-.8.1-1.8.2-3,.3-1.2,0-2.5.2-4,.3-1.5,0-3.1.1-4.8.2-1.7,0-3.5,0-5.3,0-7.6,0-13.2-.3-16.8-.9-.8-.1-1.2-.6-1.2-1.3v-2.6c0-.9.4-1.2,1.3-1.2,1.3.2,2.6.4,3.8.5,1.2.2,2.4.3,3.6.3-.7-.4-1.1-1.1-1.1-2v-7.6c0-.2,0-.4,0-.5-1.4-1-2.4-2.3-3.1-3.9-.7-1.6-1.1-3.4-1.1-5.4ZM86.9,95c3.1,0,5.5-.6,7.1-1.8,1.6-1.2,2.4-3,2.4-5.3s-.8-4.1-2.4-5.3c-1.6-1.2-3.9-1.8-7.1-1.8s-5.5.6-7.1,1.8c-1.6,1.2-2.4,3-2.4,5.3s.8,4,2.4,5.3c1.6,1.2,4,1.8,7.1,1.8ZM91.5,99.8c-1.5.3-3,.4-4.6.4s-3.6-.2-5.3-.5v6.1c0,1,.6,1.5,1.7,1.5h4.5c.8,0,1.7,0,2.6,0,.9,0,1.6,0,2.4,0-.4-.2-.7-.4-.9-.8-.2-.4-.4-.8-.4-1.3v-5.3Z"/>
    <path class="cls-11" d="M111.5,92.7c1.1,0,2.4.1,3.7.2,1.3,0,2.8,0,4.2.1,1.5,0,3,0,4.5.1,1.5,0,3,0,4.4,0,3.9,0,7.3,0,10.1,0s5-.2,6.8-.4c.9,0,1.3.3,1.3,1.2v2.6c0,.8-.4,1.2-1.2,1.3-.9,0-1.9.2-3.2.2-1.2,0-2.6.1-4.1.1-1.5,0-3.1,0-4.7,0h-5c-4.4,0-7.9,0-10.6-.1-2.7,0-4.8-.2-6.2-.3-.8,0-1.2-.5-1.2-1.3v-2.6c0-.8.4-1.2,1.3-1.2ZM143.1,111.4c.8,0,1.2.4,1.2,1.2v2.6c0,.8-.4,1.2-1.2,1.2h-24.8c-1.5,0-2.7-.4-3.6-1.1-.8-.7-1.3-1.7-1.3-3.1v-9.5c0-1.4.7-2.2,2.1-2.2h22.7c1.6,0,2.9.4,3.9,1.2,1,.8,1.5,2,1.5,3.5s-.3,2.4-1,3.5c-.6,1.1-1.5,1.9-2.5,2.5h3ZM114.9,90.2c-.8,0-1.2-.4-1.2-1.2v-2.7c0-.7.4-1.1,1.2-1.1,1.6,0,3-.1,4.3-.4,1.3-.3,2.4-.7,3.3-1.2.9-.5,1.7-1.1,2.2-1.7.5-.7.9-1.4,1-2.1h-10.1c-.8,0-1.2-.4-1.2-1.2v-2.6c0-.8.4-1.2,1.2-1.2h25.8c.8,0,1.2.4,1.2,1.2v2.6c0,.8-.4,1.2-1.2,1.2h-10.1c0,.8.4,1.5,1,2.1.5.7,1.3,1.2,2.2,1.7.9.5,2,.9,3.3,1.2,1.3.3,2.7.4,4.3.4s1.2.4,1.2,1.1v2.7c0,.8-.4,1.2-1.2,1.2-1.5,0-2.9,0-4.3-.3-1.4-.3-2.7-.7-3.9-1.3-1.2-.6-2.3-1.2-3.2-2-.9-.8-1.6-1.6-2.2-2.4-.5.9-1.2,1.7-2.1,2.4-.9.8-2,1.4-3.2,2-1.2.6-2.5,1-3.9,1.3-1.4.3-2.9.4-4.4.3ZM134.5,111.5c1,0,1.9-.4,2.6-1.1.7-.7,1.1-1.6,1.1-2.6s-.2-1.3-.7-1.7c-.4-.4-1.1-.6-1.9-.6h-15.5c-.7,0-1.1.4-1.1,1.1v3.4c0,1,.6,1.4,1.8,1.4h13.7Z"/>
    <path class="cls-11" d="M172.6,94.1c-1.6.5-3.4.9-5.3,1.2-1.9.3-3.6.4-5.1.4-3.4,0-6-.8-7.8-2.5-1.8-1.7-2.6-4.1-2.6-7.4s0-3.6.2-5.2.4-3.1.8-4.8c.2-.7.6-1.1,1.3-1.1h2.9c.4,0,.8.1,1,.4.2.2.3.6.3,1-.2,1.2-.4,2.2-.5,3.2-.1.9-.3,1.8-.4,2.6,0,.8-.2,1.5-.2,2.3,0,.7,0,1.4,0,2.2,0,1.5.4,2.6,1.2,3.3.8.7,2,1,3.7,1s1.2,0,2-.1c.8,0,1.5-.2,2.4-.3.8-.1,1.6-.3,2.5-.5.8-.2,1.7-.4,2.4-.7.7-.2,1.1,0,1.3.9l.8,2.6c.2.7-.1,1.2-1,1.5ZM183.7,111.4c.8,0,1.2.4,1.2,1.2v2.6c0,.8-.4,1.2-1.2,1.2h-23.8c-1.5,0-2.7-.4-3.6-1.1-.9-.7-1.3-1.8-1.3-3.1v-11c0-1.5.7-2.3,2.2-2.3h21.2c1.9,0,3.3.5,4.3,1.4,1,.9,1.5,2.3,1.5,4.1s-.4,2.8-1.1,4c-.7,1.2-1.7,2.2-2.9,2.9h3.5ZM174.4,111.4c.6,0,1.2-.1,1.7-.3.5-.2,1-.5,1.4-.9.4-.4.7-.9.9-1.4.2-.5.3-1.1.3-1.7,0-1.1-.3-1.8-.8-2.3-.5-.5-1.3-.7-2.4-.7h-13.8c-.8,0-1.2.4-1.2,1.2v4.7c0,.5.2.9.5,1.1.3.3.8.4,1.4.4h12ZM183.9,94.2c0,.9-.4,1.3-1.2,1.3h-3c-.8,0-1.2-.4-1.2-1.3v-19.3c0-.9.4-1.3,1.2-1.3h3c.8,0,1.2.4,1.2,1.3v7.3c.4-.6,1-1,2-1h2.8c.8,0,1.2.4,1.2,1.2v2.6c0,.8-.4,1.2-1.2,1.2h-3.1c-1.1,0-1.7.5-1.7,1.5v6.3Z"/>
    <path class="cls-11" d="M193.6,79.8c-.8,0-1.2-.4-1.2-1.2v-2.6c0-.8.4-1.2,1.2-1.2h20.4c.8,0,1.2.4,1.2,1.2v2.6c0,.8-.4,1.2-1.2,1.2h-2.1l-.6,12.5c.5,0,1,0,1.4,0,.5,0,.9,0,1.4-.1.8,0,1.2.3,1.2,1.2v2.6c0,.4,0,.7-.3.9-.2.2-.5.3-.9.3-1,.2-2.4.3-4.2.4-1.8.1-3.8.2-6.1.2s-4.3,0-6.2-.2c-1.8-.1-3.4-.2-4.6-.4-.4,0-.7-.2-.9-.3-.2-.2-.3-.4-.3-.9v-2.6c0-.9.4-1.3,1.2-1.2.9,0,2,.2,3.3.3l-.6-12.5h-2.1ZM197.5,102.6c.2-.8.6-1.2,1.4-1.2h2.9c.4,0,.7.1,1,.4.2.2.3.6.3.9,0,.6-.1,1.3-.2,2.1,0,.8,0,1.7,0,2.6,0,1.4.4,2.5,1.3,3.3.9.8,2,1.1,3.5,1.1,2.1,0,4,0,5.7,0,1.7,0,3.3,0,4.8-.2,1.5,0,2.9-.2,4.2-.3,1.4,0,2.7-.2,4.2-.3.8,0,1.2.3,1.2,1.2l.2,2.6c0,.7-.4,1.1-1.2,1.2-2.4.3-5.2.5-8.3.6-3.1.2-6.7.2-10.7.2s-6-.8-7.8-2.4c-1.8-1.6-2.8-3.8-2.8-6.6s0-2,0-3,.1-1.7.2-2.4ZM201.6,92.6c.4,0,.7,0,1.1,0h2.2c.4,0,.7,0,1.1,0l.6-12.8h-5.5l.6,12.8ZM226.6,101.9c0,.9-.4,1.3-1.2,1.3h-3c-.8,0-1.2-.4-1.2-1.3v-9.3c-.4.6-1,1-1.9,1h-1.7c-.8,0-1.2-.4-1.2-1.2v-2.6c0-.8.4-1.2,1.2-1.2h2.4c.5,0,.8-.1,1-.3.2-.2.3-.6.3-1v-4.5c-.4.6-1,1-1.9,1h-1.7c-.8,0-1.2-.4-1.2-1.2v-2.6c0-.8.4-1.2,1.2-1.2h2.4c.5,0,.8-.1,1-.3.2-.2.3-.6.3-1v-2.3c0-.9.4-1.3,1.2-1.3h3c.8,0,1.2.4,1.2,1.3v27Z"/>
    <path class="cls-11" d="M267.5,84.7c0,1.6-.2,3-.7,4.3-.5,1.3-1.2,2.4-2.1,3.3-.9.9-2,1.6-3.3,2.1-1.3.5-2.8.7-4.4.7s-3-.2-4.3-.7c-1.3-.5-2.4-1.2-3.3-2.1-.9-.9-1.6-2-2.1-3.3-.5-1.3-.7-2.7-.7-4.3s.2-3,.7-4.3c.5-1.3,1.2-2.4,2.1-3.3.9-.9,2-1.6,3.3-2.1,1.3-.5,2.7-.7,4.3-.7s3.1.2,4.4.7c1.3.5,2.4,1.2,3.3,2.1s1.6,2,2.1,3.3c.5,1.3.7,2.7.7,4.3ZM254.4,101.8h6v-2.6c.2-.8.6-1.2,1.4-1.2h2.6c.4,0,.7.1.9.3.2.2.3.5.3.9l-.8,14.1c0,1-.4,1.7-1.1,2.3-.6.5-1.5.8-2.6.8h-7.7c-1.1,0-2-.3-2.6-.8-.6-.5-1-1.3-1.1-2.3l-.8-14.1c0-.4,0-.7.3-.9.2-.2.6-.3.9-.3h2.6c.8,0,1.2.4,1.2,1.2v2.6ZM262,84.7c0-1.7-.5-3-1.4-4-.9-1-2.1-1.5-3.7-1.5s-2.8.5-3.6,1.5c-.9,1-1.3,2.3-1.3,4s.4,3,1.3,4c.9,1,2.1,1.5,3.6,1.5s2.8-.5,3.7-1.5c.9-1,1.4-2.3,1.4-4ZM254.9,110.7c0,.5.4.8.9.8h3.3c.5,0,.8-.3.9-.8l.2-3.9h-5.4l.2,3.9ZM282.5,116.5c-1.7,0-3.1-.5-4.3-1.4-1.2-.9-2.1-2.2-2.7-3.8-.6,1.6-1.5,2.9-2.7,3.8-1.2.9-2.7,1.4-4.3,1.4s-.8,0-1.2-.2c-.3-.1-.5-.5-.5-1v-2.7c0-.7.4-1.1,1.2-1.1s1.3-.1,1.9-.4,1.1-.6,1.5-1.1.7-1,1-1.7c.2-.6.3-1.3.3-2v-7c0-.9.4-1.3,1.2-1.3h3c.8,0,1.2.4,1.2,1.3v7c0,.7.1,1.4.3,2,.2.6.5,1.2,1,1.7.4.5.9.9,1.5,1.1.6.3,1.2.4,1.9.4s1.2.4,1.2,1.1v2.7c0,.6-.2.9-.5,1-.3.1-.7.2-1.2.2ZM274.4,74.9c0-.9.4-1.3,1.2-1.3h3c.8,0,1.2.4,1.2,1.3v18.8c0,.9-.4,1.3-1.2,1.3h-3c-.8,0-1.2-.4-1.2-1.3v-8.1c-.4.6-1,1-2,1h-2.2c-.8,0-1.2-.4-1.2-1.2v-2.6c0-.8.4-1.2,1.2-1.2h2.4c1.1,0,1.7-.5,1.7-1.5v-5.1Z"/>
    <path class="cls-11" d="M308.2,96.4c-1.3.4-2.8.8-4.3,1-1.6.2-2.9.3-4.2.3-4.5,0-7.8-.9-10-2.8-2.2-1.9-3.3-4.8-3.3-8.6,0-7.6,4.5-11.5,13.6-11.5s2,0,3.1,0c1.1,0,2.2.2,3.3.3.7.1,1.1.6,1.1,1.3v2.6c0,.9-.4,1.2-1.2,1.2-.9-.2-1.9-.3-2.9-.3-1,0-2,0-3,0-5.7,0-8.5,2.1-8.5,6.4s.6,3.7,1.9,4.8,3.3,1.6,6,1.6,2.1-.1,3.4-.3c1.3-.2,2.6-.5,3.7-.9.7-.3,1.2,0,1.4.8l.7,2.6c.2.8,0,1.3-.9,1.5ZM290.7,102.6c.2-.8.6-1.2,1.4-1.2h2.9c.4,0,.7.1,1,.4.2.2.3.6.3.9,0,.6-.1,1.3-.2,2.1,0,.8,0,1.7,0,2.6,0,1.4.4,2.5,1.3,3.3.9.8,2,1.1,3.5,1.1,2.1,0,4,0,5.7,0,1.7,0,3.3,0,4.8-.2,1.5,0,2.9-.2,4.2-.3,1.4,0,2.7-.2,4.2-.3.8,0,1.2.3,1.2,1.2l.2,2.6c0,.7-.4,1.1-1.2,1.2-2.4.3-5.2.5-8.3.6-3.1.2-6.7.2-10.7.2s-6-.8-7.8-2.4c-1.8-1.6-2.8-3.8-2.8-6.6s0-2,0-3,.1-1.7.2-2.4ZM314.2,74.9c0-.9.4-1.3,1.2-1.3h3c.8,0,1.2.4,1.2,1.3v27c0,.9-.4,1.3-1.2,1.3h-3c-.8,0-1.2-.4-1.2-1.3v-14.7c-.4.6-1,1-2,1h-3.4c-.8,0-1.2-.4-1.2-1.2v-2.6c0-.8.4-1.2,1.2-1.2h3.6c1.1,0,1.7-.5,1.7-1.5v-6.6Z"/>
    <path class="cls-11" d="M347.6,93.4c0,6-.9,10.3-2.6,13.1-1.7,2.8-4.5,4.2-8.2,4.2s-6.4-1.4-8.2-4.2c-1.7-2.8-2.6-7.1-2.6-13.1s.9-10.3,2.6-13.1c1.7-2.8,4.4-4.1,8.2-4.1s6.5,1.4,8.2,4.1c1.7,2.8,2.6,7.1,2.6,13.1ZM336.8,81.5c-1.8,0-3.2.9-4,2.8-.8,1.9-1.2,4.9-1.2,9.1s.4,7.3,1.2,9.1,2.2,2.8,4,2.8,3.2-.9,4-2.8c.8-1.9,1.2-4.9,1.2-9.2s-.4-7.3-1.2-9.1c-.8-1.9-2.2-2.8-4-2.8ZM358.6,114.9c0,.9-.4,1.3-1.2,1.3h-3c-.8,0-1.2-.4-1.2-1.3v-39.9c0-.9.4-1.3,1.2-1.3h3c.8,0,1.2.4,1.2,1.3v16.5c.4-.6,1-1,2-1h2.8c.8,0,1.2.4,1.2,1.2v2.9c0,.8-.4,1.2-1.2,1.2h-3.1c-1.1,0-1.7.5-1.7,1.5v17.6Z"/>
    <path class="cls-11" d="M371.4,109.7c-2.4,0-3.6-1.1-3.7-3.4l-.3-28.6c0-.3,0-.5.3-.7.2-.2.4-.3.8-.3h2.5c.7,0,1.1.3,1.1,1v9.5h3.1v-9.5c0-.6.4-1,1.2-1h2.5c.3,0,.6,0,.8.3.2.2.3.4.3.7l-.3,28.6c0,2.2-1.3,3.4-3.7,3.4h-4.4ZM372.4,103.7c0,.5.3.7.8.7h1c.5,0,.8-.2.8-.7v-11.2c.1,0-2.7,0-2.7,0v11.2ZM385.4,109.7c-2.4,0-3.6-1.1-3.7-3.4l-.3-28.6c0-.3,0-.5.3-.7.2-.2.4-.3.8-.3h2.5c.7,0,1.1.3,1.1,1v9.5h3.1v-9.5c0-.6.4-1,1.2-1h2.5c.3,0,.6,0,.8.3.2.2.3.4.3.7l-.3,28.6c0,2.2-1.3,3.4-3.7,3.4h-4.4ZM386.3,103.7c0,.5.3.7.8.7h1c.5,0,.8-.2.8-.7v-11.2c.1,0-2.7,0-2.7,0v11.2ZM402.1,114.9c0,.9-.4,1.3-1.2,1.3h-2.9c-.8,0-1.2-.4-1.2-1.3v-39.9c0-.9.4-1.3,1.2-1.3h2.9c.8,0,1.2.4,1.2,1.3v16.5c.4-.6,1-1,2-1h2.1c.8,0,1.2.4,1.2,1.2v2.9c0,.8-.4,1.2-1.2,1.2h-2.4c-1.1,0-1.7.5-1.7,1.5v17.6Z"/>
  </g>
  <g>
    <path class="cls-9" d="M71.9,87.9c0-3.9,1.3-6.9,3.9-9,2.6-2.1,6.3-3.2,11.1-3.2s8.5,1.1,11.1,3.2c2.6,2.1,3.9,5.1,3.9,9s-.4,4.1-1.2,5.8c-.8,1.6-2,3-3.6,4v7.8c0,1,.6,1.5,1.7,1.5s.8,0,1.2,0c.4,0,.9,0,1.3-.1.4,0,.9,0,1.2-.1.4,0,.7,0,.9-.1.9,0,1.3.3,1.3,1.2v2.6c0,.7-.4,1.2-1.2,1.3-.8.1-1.8.2-3,.3-1.2,0-2.5.2-4,.3-1.5,0-3.1.1-4.8.2-1.7,0-3.5,0-5.3,0-7.6,0-13.2-.3-16.8-.9-.8-.1-1.2-.6-1.2-1.3v-2.6c0-.9.4-1.2,1.3-1.2,1.3.2,2.6.4,3.8.5,1.2.2,2.4.3,3.6.3-.7-.4-1.1-1.1-1.1-2v-7.6c0-.2,0-.4,0-.5-1.4-1-2.4-2.3-3.1-3.9-.7-1.6-1.1-3.4-1.1-5.4ZM86.9,95c3.1,0,5.5-.6,7.1-1.8,1.6-1.2,2.4-3,2.4-5.3s-.8-4.1-2.4-5.3c-1.6-1.2-3.9-1.8-7.1-1.8s-5.5.6-7.1,1.8c-1.6,1.2-2.4,3-2.4,5.3s.8,4,2.4,5.3c1.6,1.2,4,1.8,7.1,1.8ZM91.5,99.8c-1.5.3-3,.4-4.6.4s-3.6-.2-5.3-.5v6.1c0,1,.6,1.5,1.7,1.5h4.5c.8,0,1.7,0,2.6,0,.9,0,1.6,0,2.4,0-.4-.2-.7-.4-.9-.8-.2-.4-.4-.8-.4-1.3v-5.3Z"/>
    <path class="cls-9" d="M111.5,92.7c1.1,0,2.4.1,3.7.2,1.3,0,2.8,0,4.2.1,1.5,0,3,0,4.5.1,1.5,0,3,0,4.4,0,3.9,0,7.3,0,10.1,0s5-.2,6.8-.4c.9,0,1.3.3,1.3,1.2v2.6c0,.8-.4,1.2-1.2,1.3-.9,0-1.9.2-3.2.2-1.2,0-2.6.1-4.1.1-1.5,0-3.1,0-4.7,0h-5c-4.4,0-7.9,0-10.6-.1-2.7,0-4.8-.2-6.2-.3-.8,0-1.2-.5-1.2-1.3v-2.6c0-.8.4-1.2,1.3-1.2ZM143.1,111.4c.8,0,1.2.4,1.2,1.2v2.6c0,.8-.4,1.2-1.2,1.2h-24.8c-1.5,0-2.7-.4-3.6-1.1-.8-.7-1.3-1.7-1.3-3.1v-9.5c0-1.4.7-2.2,2.1-2.2h22.7c1.6,0,2.9.4,3.9,1.2,1,.8,1.5,2,1.5,3.5s-.3,2.4-1,3.5c-.6,1.1-1.5,1.9-2.5,2.5h3ZM114.9,90.2c-.8,0-1.2-.4-1.2-1.2v-2.7c0-.7.4-1.1,1.2-1.1,1.6,0,3-.1,4.3-.4,1.3-.3,2.4-.7,3.3-1.2.9-.5,1.7-1.1,2.2-1.7.5-.7.9-1.4,1-2.1h-10.1c-.8,0-1.2-.4-1.2-1.2v-2.6c0-.8.4-1.2,1.2-1.2h25.8c.8,0,1.2.4,1.2,1.2v2.6c0,.8-.4,1.2-1.2,1.2h-10.1c0,.8.4,1.5,1,2.1.5.7,1.3,1.2,2.2,1.7.9.5,2,.9,3.3,1.2,1.3.3,2.7.4,4.3.4s1.2.4,1.2,1.1v2.7c0,.8-.4,1.2-1.2,1.2-1.5,0-2.9,0-4.3-.3-1.4-.3-2.7-.7-3.9-1.3-1.2-.6-2.3-1.2-3.2-2-.9-.8-1.6-1.6-2.2-2.4-.5.9-1.2,1.7-2.1,2.4-.9.8-2,1.4-3.2,2-1.2.6-2.5,1-3.9,1.3-1.4.3-2.9.4-4.4.3ZM134.5,111.5c1,0,1.9-.4,2.6-1.1.7-.7,1.1-1.6,1.1-2.6s-.2-1.3-.7-1.7c-.4-.4-1.1-.6-1.9-.6h-15.5c-.7,0-1.1.4-1.1,1.1v3.4c0,1,.6,1.4,1.8,1.4h13.7Z"/>
    <path class="cls-9" d="M172.6,94.1c-1.6.5-3.4.9-5.3,1.2-1.9.3-3.6.4-5.1.4-3.4,0-6-.8-7.8-2.5-1.8-1.7-2.6-4.1-2.6-7.4s0-3.6.2-5.2.4-3.1.8-4.8c.2-.7.6-1.1,1.3-1.1h2.9c.4,0,.8.1,1,.4.2.2.3.6.3,1-.2,1.2-.4,2.2-.5,3.2-.1.9-.3,1.8-.4,2.6,0,.8-.2,1.5-.2,2.3,0,.7,0,1.4,0,2.2,0,1.5.4,2.6,1.2,3.3.8.7,2,1,3.7,1s1.2,0,2-.1c.8,0,1.5-.2,2.4-.3.8-.1,1.6-.3,2.5-.5.8-.2,1.7-.4,2.4-.7.7-.2,1.1,0,1.3.9l.8,2.6c.2.7-.1,1.2-1,1.5ZM183.7,111.4c.8,0,1.2.4,1.2,1.2v2.6c0,.8-.4,1.2-1.2,1.2h-23.8c-1.5,0-2.7-.4-3.6-1.1-.9-.7-1.3-1.8-1.3-3.1v-11c0-1.5.7-2.3,2.2-2.3h21.2c1.9,0,3.3.5,4.3,1.4,1,.9,1.5,2.3,1.5,4.1s-.4,2.8-1.1,4c-.7,1.2-1.7,2.2-2.9,2.9h3.5ZM174.4,111.4c.6,0,1.2-.1,1.7-.3.5-.2,1-.5,1.4-.9.4-.4.7-.9.9-1.4.2-.5.3-1.1.3-1.7,0-1.1-.3-1.8-.8-2.3-.5-.5-1.3-.7-2.4-.7h-13.8c-.8,0-1.2.4-1.2,1.2v4.7c0,.5.2.9.5,1.1.3.3.8.4,1.4.4h12ZM183.9,94.2c0,.9-.4,1.3-1.2,1.3h-3c-.8,0-1.2-.4-1.2-1.3v-19.3c0-.9.4-1.3,1.2-1.3h3c.8,0,1.2.4,1.2,1.3v7.3c.4-.6,1-1,2-1h2.8c.8,0,1.2.4,1.2,1.2v2.6c0,.8-.4,1.2-1.2,1.2h-3.1c-1.1,0-1.7.5-1.7,1.5v6.3Z"/>
    <path class="cls-9" d="M193.6,79.8c-.8,0-1.2-.4-1.2-1.2v-2.6c0-.8.4-1.2,1.2-1.2h20.4c.8,0,1.2.4,1.2,1.2v2.6c0,.8-.4,1.2-1.2,1.2h-2.1l-.6,12.5c.5,0,1,0,1.4,0,.5,0,.9,0,1.4-.1.8,0,1.2.3,1.2,1.2v2.6c0,.4,0,.7-.3.9-.2.2-.5.3-.9.3-1,.2-2.4.3-4.2.4-1.8.1-3.8.2-6.1.2s-4.3,0-6.2-.2c-1.8-.1-3.4-.2-4.6-.4-.4,0-.7-.2-.9-.3-.2-.2-.3-.4-.3-.9v-2.6c0-.9.4-1.3,1.2-1.2.9,0,2,.2,3.3.3l-.6-12.5h-2.1ZM197.5,102.6c.2-.8.6-1.2,1.4-1.2h2.9c.4,0,.7.1,1,.4.2.2.3.6.3.9,0,.6-.1,1.3-.2,2.1,0,.8,0,1.7,0,2.6,0,1.4.4,2.5,1.3,3.3.9.8,2,1.1,3.5,1.1,2.1,0,4,0,5.7,0,1.7,0,3.3,0,4.8-.2,1.5,0,2.9-.2,4.2-.3,1.4,0,2.7-.2,4.2-.3.8,0,1.2.3,1.2,1.2l.2,2.6c0,.7-.4,1.1-1.2,1.2-2.4.3-5.2.5-8.3.6-3.1.2-6.7.2-10.7.2s-6-.8-7.8-2.4c-1.8-1.6-2.8-3.8-2.8-6.6s0-2,0-3,.1-1.7.2-2.4ZM201.6,92.6c.4,0,.7,0,1.1,0h2.2c.4,0,.7,0,1.1,0l.6-12.8h-5.5l.6,12.8ZM226.6,101.9c0,.9-.4,1.3-1.2,1.3h-3c-.8,0-1.2-.4-1.2-1.3v-9.3c-.4.6-1,1-1.9,1h-1.7c-.8,0-1.2-.4-1.2-1.2v-2.6c0-.8.4-1.2,1.2-1.2h2.4c.5,0,.8-.1,1-.3.2-.2.3-.6.3-1v-4.5c-.4.6-1,1-1.9,1h-1.7c-.8,0-1.2-.4-1.2-1.2v-2.6c0-.8.4-1.2,1.2-1.2h2.4c.5,0,.8-.1,1-.3.2-.2.3-.6.3-1v-2.3c0-.9.4-1.3,1.2-1.3h3c.8,0,1.2.4,1.2,1.3v27Z"/>
    <path class="cls-9" d="M267.5,84.7c0,1.6-.2,3-.7,4.3-.5,1.3-1.2,2.4-2.1,3.3-.9.9-2,1.6-3.3,2.1-1.3.5-2.8.7-4.4.7s-3-.2-4.3-.7c-1.3-.5-2.4-1.2-3.3-2.1-.9-.9-1.6-2-2.1-3.3-.5-1.3-.7-2.7-.7-4.3s.2-3,.7-4.3c.5-1.3,1.2-2.4,2.1-3.3.9-.9,2-1.6,3.3-2.1,1.3-.5,2.7-.7,4.3-.7s3.1.2,4.4.7c1.3.5,2.4,1.2,3.3,2.1s1.6,2,2.1,3.3c.5,1.3.7,2.7.7,4.3ZM254.4,101.8h6v-2.6c.2-.8.6-1.2,1.4-1.2h2.6c.4,0,.7.1.9.3.2.2.3.5.3.9l-.8,14.1c0,1-.4,1.7-1.1,2.3-.6.5-1.5.8-2.6.8h-7.7c-1.1,0-2-.3-2.6-.8-.6-.5-1-1.3-1.1-2.3l-.8-14.1c0-.4,0-.7.3-.9.2-.2.6-.3.9-.3h2.6c.8,0,1.2.4,1.2,1.2v2.6ZM262,84.7c0-1.7-.5-3-1.4-4-.9-1-2.1-1.5-3.7-1.5s-2.8.5-3.6,1.5c-.9,1-1.3,2.3-1.3,4s.4,3,1.3,4c.9,1,2.1,1.5,3.6,1.5s2.8-.5,3.7-1.5c.9-1,1.4-2.3,1.4-4ZM254.9,110.7c0,.5.4.8.9.8h3.3c.5,0,.8-.3.9-.8l.2-3.9h-5.4l.2,3.9ZM282.5,116.5c-1.7,0-3.1-.5-4.3-1.4-1.2-.9-2.1-2.2-2.7-3.8-.6,1.6-1.5,2.9-2.7,3.8-1.2.9-2.7,1.4-4.3,1.4s-.8,0-1.2-.2c-.3-.1-.5-.5-.5-1v-2.7c0-.7.4-1.1,1.2-1.1s1.3-.1,1.9-.4,1.1-.6,1.5-1.1.7-1,1-1.7c.2-.6.3-1.3.3-2v-7c0-.9.4-1.3,1.2-1.3h3c.8,0,1.2.4,1.2,1.3v7c0,.7.1,1.4.3,2,.2.6.5,1.2,1,1.7.4.5.9.9,1.5,1.1.6.3,1.2.4,1.9.4s1.2.4,1.2,1.1v2.7c0,.6-.2.9-.5,1-.3.1-.7.2-1.2.2ZM274.4,74.9c0-.9.4-1.3,1.2-1.3h3c.8,0,1.2.4,1.2,1.3v18.8c0,.9-.4,1.3-1.2,1.3h-3c-.8,0-1.2-.4-1.2-1.3v-8.1c-.4.6-1,1-2,1h-2.2c-.8,0-1.2-.4-1.2-1.2v-2.6c0-.8.4-1.2,1.2-1.2h2.4c1.1,0,1.7-.5,1.7-1.5v-5.1Z"/>
    <path class="cls-9" d="M308.2,96.4c-1.3.4-2.8.8-4.3,1-1.6.2-2.9.3-4.2.3-4.5,0-7.8-.9-10-2.8-2.2-1.9-3.3-4.8-3.3-8.6,0-7.6,4.5-11.5,13.6-11.5s2,0,3.1,0c1.1,0,2.2.2,3.3.3.7.1,1.1.6,1.1,1.3v2.6c0,.9-.4,1.2-1.2,1.2-.9-.2-1.9-.3-2.9-.3-1,0-2,0-3,0-5.7,0-8.5,2.1-8.5,6.4s.6,3.7,1.9,4.8,3.3,1.6,6,1.6,2.1-.1,3.4-.3c1.3-.2,2.6-.5,3.7-.9.7-.3,1.2,0,1.4.8l.7,2.6c.2.8,0,1.3-.9,1.5ZM290.7,102.6c.2-.8.6-1.2,1.4-1.2h2.9c.4,0,.7.1,1,.4.2.2.3.6.3.9,0,.6-.1,1.3-.2,2.1,0,.8,0,1.7,0,2.6,0,1.4.4,2.5,1.3,3.3.9.8,2,1.1,3.5,1.1,2.1,0,4,0,5.7,0,1.7,0,3.3,0,4.8-.2,1.5,0,2.9-.2,4.2-.3,1.4,0,2.7-.2,4.2-.3.8,0,1.2.3,1.2,1.2l.2,2.6c0,.7-.4,1.1-1.2,1.2-2.4.3-5.2.5-8.3.6-3.1.2-6.7.2-10.7.2s-6-.8-7.8-2.4c-1.8-1.6-2.8-3.8-2.8-6.6s0-2,0-3,.1-1.7.2-2.4ZM314.2,74.9c0-.9.4-1.3,1.2-1.3h3c.8,0,1.2.4,1.2,1.3v27c0,.9-.4,1.3-1.2,1.3h-3c-.8,0-1.2-.4-1.2-1.3v-14.7c-.4.6-1,1-2,1h-3.4c-.8,0-1.2-.4-1.2-1.2v-2.6c0-.8.4-1.2,1.2-1.2h3.6c1.1,0,1.7-.5,1.7-1.5v-6.6Z"/>
    <path class="cls-9" d="M347.6,93.4c0,6-.9,10.3-2.6,13.1-1.7,2.8-4.5,4.2-8.2,4.2s-6.4-1.4-8.2-4.2c-1.7-2.8-2.6-7.1-2.6-13.1s.9-10.3,2.6-13.1c1.7-2.8,4.4-4.1,8.2-4.1s6.5,1.4,8.2,4.1c1.7,2.8,2.6,7.1,2.6,13.1ZM336.8,81.5c-1.8,0-3.2.9-4,2.8-.8,1.9-1.2,4.9-1.2,9.1s.4,7.3,1.2,9.1,2.2,2.8,4,2.8,3.2-.9,4-2.8c.8-1.9,1.2-4.9,1.2-9.2s-.4-7.3-1.2-9.1c-.8-1.9-2.2-2.8-4-2.8ZM358.6,114.9c0,.9-.4,1.3-1.2,1.3h-3c-.8,0-1.2-.4-1.2-1.3v-39.9c0-.9.4-1.3,1.2-1.3h3c.8,0,1.2.4,1.2,1.3v16.5c.4-.6,1-1,2-1h2.8c.8,0,1.2.4,1.2,1.2v2.9c0,.8-.4,1.2-1.2,1.2h-3.1c-1.1,0-1.7.5-1.7,1.5v17.6Z"/>
    <path class="cls-9" d="M371.4,109.7c-2.4,0-3.6-1.1-3.7-3.4l-.3-28.6c0-.3,0-.5.3-.7.2-.2.4-.3.8-.3h2.5c.7,0,1.1.3,1.1,1v9.5h3.1v-9.5c0-.6.4-1,1.2-1h2.5c.3,0,.6,0,.8.3.2.2.3.4.3.7l-.3,28.6c0,2.2-1.3,3.4-3.7,3.4h-4.4ZM372.4,103.7c0,.5.3.7.8.7h1c.5,0,.8-.2.8-.7v-11.2c.1,0-2.7,0-2.7,0v11.2ZM385.4,109.7c-2.4,0-3.6-1.1-3.7-3.4l-.3-28.6c0-.3,0-.5.3-.7.2-.2.4-.3.8-.3h2.5c.7,0,1.1.3,1.1,1v9.5h3.1v-9.5c0-.6.4-1,1.2-1h2.5c.3,0,.6,0,.8.3.2.2.3.4.3.7l-.3,28.6c0,2.2-1.3,3.4-3.7,3.4h-4.4ZM386.3,103.7c0,.5.3.7.8.7h1c.5,0,.8-.2.8-.7v-11.2c.1,0-2.7,0-2.7,0v11.2ZM402.1,114.9c0,.9-.4,1.3-1.2,1.3h-2.9c-.8,0-1.2-.4-1.2-1.3v-39.9c0-.9.4-1.3,1.2-1.3h2.9c.8,0,1.2.4,1.2,1.3v16.5c.4-.6,1-1,2-1h2.1c.8,0,1.2.4,1.2,1.2v2.9c0,.8-.4,1.2-1.2,1.2h-2.4c-1.1,0-1.7.5-1.7,1.5v17.6Z"/>
  </g>
</svg>