<?xml version="1.0" encoding="UTF-8"?>
<svg id="_레이어_1" data-name="레이어 1" xmlns="http://www.w3.org/2000/svg" version="1.1" viewBox="0 0 475 475">
  <defs>
    <style>
      .cls-1 {
        fill: #edc259;
      }

      .cls-1, .cls-2, .cls-3, .cls-4, .cls-5, .cls-6, .cls-7, .cls-8, .cls-9, .cls-10, .cls-11 {
        stroke-width: 0px;
      }

      .cls-2 {
        fill: #6172e8;
      }

      .cls-3 {
        fill: #edaba8;
      }

      .cls-4 {
        fill: #63f3f3;
      }

      .cls-12, .cls-13 {
        fill: none;
        stroke: #3d2117;
      }

      .cls-5 {
        fill: #3d2117;
      }

      .cls-6 {
        fill: #faccc7;
      }

      .cls-7 {
        fill: #fd8664;
      }

      .cls-8 {
        fill: #ffd9d4;
      }

      .cls-9 {
        fill: #75bd99;
      }

      .cls-10 {
        fill: #ff8f6b;
      }

      .cls-13 {
        stroke-width: 4px;
      }

      .cls-11 {
        fill: #fff;
      }
    </style>
  </defs>
  <rect class="cls-2" x="2" y="2" width="471" height="471" rx="14.2" ry="14.2"/>
  <rect class="cls-12" x="2" y="2" width="471" height="471" rx="14.2" ry="14.2"/>
  <rect class="cls-4" x="12" y="12" width="451" height="451" rx="14.2" ry="14.2"/>
  <rect class="cls-12" x="12" y="12" width="451" height="451" rx="14.2" ry="14.2"/>
  <g>
    <path class="cls-13" d="M179.3,111.6c-.8-.1-1.2-.6-1.2-1.3v-2.6c0-.9.4-1.2,1.3-1.2.9,0,1.9.2,3.1.3,1.2,0,2.5.2,3.8.3,1.4,0,2.8.2,4.2.2,1.4,0,2.8.1,4.2.1-.4-.2-.6-.4-.9-.8-.2-.4-.3-.8-.3-1.3v-5.6c-2.3-.2-4.2-.6-5.8-1.2s-2.9-1.4-3.9-2.4c-1-1-1.7-2.2-2.2-3.6-.4-1.4-.7-2.9-.7-4.5s.3-3.6.9-5c.6-1.5,1.5-2.7,2.8-3.7,1.3-1,3-1.8,5.2-2.3,2.1-.5,4.7-.8,7.8-.8s1.3,0,2,0c.7,0,1.4,0,2.2,0,.8,0,1.8,0,2.9.1,1.1,0,2.4.1,3.9.2.8,0,1.2.4,1.2,1.2v2.8c0,.8-.4,1.2-1.2,1.2-1.4,0-2.7-.2-3.7-.2-1.1,0-2.1,0-2.9-.1-.9,0-1.6,0-2.4,0-.7,0-1.4,0-2,0-2.1,0-3.9.1-5.3.4-1.4.2-2.5.6-3.4,1.2-.8.5-1.4,1.2-1.8,2-.4.8-.5,1.8-.5,3s.1,2.1.4,3c.3.8.8,1.5,1.6,2.1.8.5,1.8.9,3,1.2,1.3.3,2.9.4,4.8.4s4,0,6.2-.2c2.2-.2,4.4-.4,6.5-.6.8,0,1.2.3,1.2,1.2l.2,2.9c0,.7-.4,1.1-1.2,1.2-2.1.3-4,.4-5.7.6-1.7.1-3.2.2-4.6.3v6c0,1,.6,1.5,1.7,1.5s2.1,0,3.2,0c1.1,0,2.2,0,3.3-.1,1.1,0,2.1-.1,3.1-.2,1,0,1.9-.2,2.7-.3.9,0,1.3.3,1.3,1.2v2.6c0,.7-.4,1.2-1.2,1.3-.8.1-1.8.2-3,.3-1.2,0-2.5.2-4,.3-1.5,0-3.1.1-4.8.2-1.7,0-3.5,0-5.3,0-7.6,0-13.2-.3-16.8-.9Z"/>
    <path class="cls-13" d="M219.8,82c-.8,0-1.2-.4-1.2-1.2v-2.9c0-.8.4-1.2,1.2-1.2h21.4c.8,0,1.2.4,1.2,1.2v2.9c0,.8-.4,1.2-1.2,1.2h-2.4l-.9,22.2c.7,0,1.4-.1,2.1-.2.6,0,1.2-.1,1.8-.2.8,0,1.2.3,1.2,1.2v2.9c0,.4,0,.7-.3.9-.2.2-.5.3-.9.3-.5,0-1.2.1-2,.2-.8,0-1.7.1-2.7.2-1,0-2.1,0-3.2.1-1.1,0-2.3,0-3.4,0-2.3,0-4.4,0-6.4-.2-2-.1-3.6-.2-4.9-.4-.4,0-.7-.2-.9-.3-.2-.2-.3-.4-.3-.9v-2.9c0-.9.4-1.3,1.2-1.2.6,0,1.2.1,1.8.2.6,0,1.3.1,2.1.2l-.9-22.2h-2.4ZM228.4,104.4h4.1l.9-22.4h-5.8l.9,22.4ZM251.8,114.9c0,.9-.4,1.3-1.2,1.3h-3c-.8,0-1.2-.4-1.2-1.3v-39.9c0-.9.4-1.3,1.2-1.3h3c.8,0,1.2.4,1.2,1.3v16.5c.4-.6,1-1,2-1h2.8c.8,0,1.2.4,1.2,1.2v2.9c0,.8-.4,1.2-1.2,1.2h-3.1c-1.1,0-1.7.5-1.7,1.5v17.6Z"/>
    <path class="cls-13" d="M266.5,95.3c-1.5,0-2.7-.4-3.6-1.1-.9-.7-1.3-1.8-1.3-3.1v-14c0-1.5.7-2.3,2.2-2.3h12.1c2.2,0,3.9.6,5,1.8,1.2,1.2,1.7,2.9,1.7,5.2s-.4,3.6-1.3,5.1c-.8,1.5-2,2.7-3.4,3.4h3.2c.8,0,1.2.4,1.2,1.2v2.6c0,.8-.4,1.2-1.2,1.2h-14.6ZM264.2,107.8c0-6.1,5.2-9.1,15.7-9.1s15.7,3,15.7,9.1-5.2,9.1-15.7,9.1-15.7-3-15.7-9.1ZM271.9,90.2c1.5,0,2.8-.6,3.7-1.7s1.4-2.6,1.4-4.4c0-2.9-1.4-4.4-4.1-4.4h-4.8c-.8,0-1.2.4-1.2,1.2v7.7c0,.5.2.9.5,1.1.3.3.8.4,1.4.4h3ZM269.7,107.8c0,.6.2,1.2.5,1.7.4.5.9.9,1.7,1.3.8.4,1.8.6,3.1.8s2.9.3,4.8.3,3.5,0,4.8-.3c1.3-.2,2.3-.5,3.1-.8.8-.4,1.4-.8,1.7-1.3.4-.5.5-1.1.5-1.7s-.2-1.2-.5-1.7c-.4-.5-.9-.9-1.7-1.3-.8-.4-1.8-.6-3.1-.8-1.3-.2-2.9-.3-4.8-.3s-3.5,0-4.8.3-2.3.5-3.1.8c-.8.4-1.4.8-1.7,1.3-.4.5-.5,1.1-.5,1.7ZM294.6,95.2c0,.9-.4,1.3-1.2,1.3h-3c-.8,0-1.2-.4-1.2-1.3v-20.3c0-.9.4-1.3,1.2-1.3h3c.8,0,1.2.4,1.2,1.3v20.3Z"/>
  </g>
  <path class="cls-1" d="M277,330.1s2-38.7-1.4-64.9c-3.5-27-18.4-30.2-18.4-30.2h0c-5-1.4-10.7-2.3-17.2-2.5-4.8-.2-13.2.3-13.2.3,0,0-27.6-3.4-46.2,15.2-18.5,18.6-19,42.5-20.2,56.6l-.4,27.2"/>
  <path class="cls-5" d="M277.8,330.1s.6-11.5.6-26.2-.4-26.8-2-38.8c-1.8-13.7-6.4-21.4-10.8-25.7-4.3-4.3-8.2-5.2-8.3-5.2-.3,0-.5,0-.7.2s-.3.4-.3.7h0s.9,0,.9,0l.2-.8c-5-1.4-10.8-2.3-17.4-2.6-.8,0-1.6,0-2.5,0-4.8,0-10.7.4-10.7.4v.9c0,0,.2-.9.2-.9,0,0-2-.2-5.3-.2s-11.4.5-19,2.7c-7.5,2.2-15.7,6.1-22.6,13.1-9.4,9.4-14.2,20.2-16.8,30.4-2.6,10.2-3,19.7-3.6,26.8h0c0,0-.4,27.3-.4,27.3,0,.5.4.9.8.9.5,0,.9-.4.9-.8l.4-27.2h-.9s.9,0,.9,0c.6-7.1,1-16.5,3.5-26.5,2.6-10,7.2-20.4,16.4-29.6,6.7-6.7,14.5-10.5,21.9-12.6,7.3-2.1,14.1-2.6,18.5-2.6,1.6,0,2.9,0,3.8.1.4,0,.8,0,1,0,.1,0,.2,0,.3,0h0s.2,0,.2,0c0,0,.4,0,1,0,1.9-.1,6.1-.3,9.6-.3s1.7,0,2.4,0c6.5.3,12.1,1.1,17,2.5.3,0,.6,0,.8-.2.2-.2.3-.5.3-.7h0s-.9,0-.9,0l-.2.8h0s0,0,0,0h0s0,0,0,0c.1,0,3.7.9,7.7,4.9,4,4.1,8.4,11.4,10.1,24.5,1.5,11.9,2,26.4,2,38.6,0,7.3-.2,13.9-.3,18.6,0,2.4-.2,4.2-.2,5.5,0,1.3,0,2,0,2,0,.5.3.9.8.9s.9-.3.9-.8"/>
  <path class="cls-11" d="M326.8,440.7h-194.6c-2.5,0-4.5-2-4.5-4.5v-114.6c0-2.5,2-4.5,4.5-4.5h194.6c2.5,0,4.5,2,4.5,4.5v114.6c0,2.5-2,4.5-4.5,4.5"/>
  <path class="cls-5" d="M326.8,440.7v-.9h-194.6c-1,0-1.9-.4-2.6-1.1-.7-.7-1.1-1.6-1.1-2.6v-114.6c0-1,.4-1.9,1.1-2.6.7-.7,1.6-1.1,2.6-1.1h194.6c1,0,1.9.4,2.6,1.1.7.7,1.1,1.6,1.1,2.6v114.6c0,1-.4,1.9-1.1,2.6-.7.7-1.6,1.1-2.6,1.1v1.7c3,0,5.4-2.4,5.4-5.4v-114.6c0-3-2.4-5.4-5.4-5.4h-194.6c-3,0-5.4,2.4-5.4,5.4v114.6c0,3,2.4,5.4,5.4,5.4h194.6v-.9Z"/>
  <rect class="cls-5" x="133.6" y="323" width="191.9" height="111.9"/>
  <path class="cls-5" d="M133.6,434.8h.9v-111h190.1v110.1h-191v.9h.9-.9v.9h191.9c.2,0,.4,0,.6-.3.2-.2.3-.4.3-.6v-111.9c0-.2,0-.4-.3-.6-.2-.2-.4-.3-.6-.3h-191.9c-.2,0-.4,0-.6.3-.2.2-.3.4-.3.6v111.9c0,.2,0,.4.3.6.2.2.4.3.6.3v-.9Z"/>
  <path class="cls-7" d="M253.6,378.9c0,13.3-10.8,24.1-24.1,24.1s-24.1-10.8-24.1-24.1,10.8-24.1,24.1-24.1,24.1,10.8,24.1,24.1"/>
  <path class="cls-5" d="M253.6,378.9h-.9c0,6.4-2.6,12.2-6.8,16.4-4.2,4.2-10,6.8-16.4,6.8-6.4,0-12.2-2.6-16.4-6.8-4.2-4.2-6.8-10-6.8-16.4s2.6-12.2,6.8-16.4c4.2-4.2,10-6.8,16.4-6.8s12.2,2.6,16.4,6.8c4.2,4.2,6.8,10,6.8,16.4h1.7c0-13.8-11.2-24.9-24.9-24.9s-24.9,11.2-24.9,24.9,11.2,24.9,24.9,24.9c13.8,0,24.9-11.2,24.9-24.9h-.9Z"/>
  <path class="cls-11" d="M243.8,380.8l-22.3,11.6c-1.4.7-3.2-.3-3.2-1.9v-23.3c0-1.6,1.7-2.7,3.2-1.9l22.3,11.6c1.5.8,1.5,3,0,3.8"/>
  <path class="cls-5" d="M221,159.6c2.7,8.3-1.9,17.1-10.1,19.8-8.3,2.7-17.1-1.9-19.8-10.1-2.7-8.3,1.9-17.1,10.1-19.8,8.3-2.7,17.1,1.9,19.8,10.1"/>
  <path class="cls-5" d="M221,159.6l-.8.3c.5,1.5.7,3.1.7,4.6,0,6.3-4,12.1-10.3,14.1-1.5.5-3.1.7-4.6.7-6.3,0-12.1-4-14.1-10.3-.5-1.5-.7-3.1-.7-4.6,0-6.3,4-12.1,10.3-14.1,1.5-.5,3.1-.7,4.6-.7,6.3,0,12.1,4,14.1,10.3l.8-.3.8-.3c-2.3-7-8.8-11.5-15.8-11.5s-3.4.3-5.1.8c-7,2.3-11.5,8.8-11.5,15.8,0,1.7.3,3.4.8,5.1,2.3,7,8.8,11.5,15.8,11.5,1.7,0,3.4-.3,5.1-.8,7-2.3,11.5-8.8,11.5-15.8,0-1.7-.3-3.4-.8-5.1l-.8.3Z"/>
  <path class="cls-5" d="M195.4,166.4c2.7,8.3-1.9,17.1-10.1,19.8-8.3,2.7-17.1-1.9-19.8-10.1-2.7-8.3,1.9-17.1,10.1-19.8,8.3-2.7,17.1,1.9,19.8,10.1"/>
  <path class="cls-5" d="M195.4,166.4l-.8.3c.5,1.5.7,3.1.7,4.6,0,6.3-4,12.1-10.3,14.1-1.5.5-3.1.7-4.6.7-6.3,0-12.1-4-14.1-10.3-.5-1.5-.7-3.1-.7-4.6,0-6.3,4-12.1,10.3-14.1,1.5-.5,3.1-.7,4.6-.7,6.3,0,12.1,4,14.1,10.3l.8-.3.8-.3c-2.3-7-8.8-11.5-15.8-11.5s-3.4.3-5.1.8c-7,2.3-11.5,8.8-11.5,15.8,0,1.7.3,3.4.8,5.1,2.3,7,8.8,11.5,15.8,11.5,1.7,0,3.4-.3,5.1-.8,7-2.3,11.5-8.8,11.5-15.8,0-1.7-.3-3.4-.8-5.1l-.8.3Z"/>
  <path class="cls-5" d="M175.1,182.9c2.7,8.3-1.9,17.1-10.1,19.8-8.3,2.7-17.1-1.9-19.8-10.1-2.7-8.3,1.9-17.1,10.1-19.8,8.3-2.7,17.1,1.9,19.8,10.1"/>
  <path class="cls-5" d="M175.1,182.9l-.8.3c.5,1.5.7,3.1.7,4.6,0,6.3-4,12.1-10.3,14.1-1.5.5-3.1.7-4.6.7-6.3,0-12.1-4-14.1-10.3-.5-1.5-.7-3.1-.7-4.6,0-6.3,4-12.1,10.3-14.1,1.5-.5,3.1-.7,4.6-.7,6.3,0,12.1,4,14.1,10.3l.8-.3.8-.3c-2.3-7-8.8-11.5-15.8-11.5-1.7,0-3.4.3-5.1.8-7,2.3-11.5,8.8-11.5,15.8,0,1.7.3,3.4.8,5.1,2.3,7,8.8,11.5,15.8,11.5,1.7,0,3.4-.3,5.1-.8,7-2.3,11.5-8.8,11.5-15.8,0-1.7-.3-3.4-.8-5.1l-.8.3Z"/>
  <path class="cls-5" d="M279.5,176c5.9,18.4-4.9,38.3-24.1,44.5-19.3,6.2-39.7-3.6-45.6-22-5.9-18.4,4.9-38.3,24.1-44.5,19.3-6.2,39.7,3.6,45.6,22"/>
  <path class="cls-5" d="M279.5,176l-.8.3c1.1,3.3,1.6,6.7,1.6,10,0,14.6-9.8,28.4-25.2,33.4-3.8,1.2-7.7,1.8-11.5,1.8-7.4,0-14.5-2.3-20.4-6.3-5.8-4-10.4-9.8-12.7-17-1.1-3.3-1.6-6.7-1.6-10,0-14.6,9.8-28.4,25.2-33.4,3.8-1.2,7.7-1.8,11.5-1.8,7.4,0,14.5,2.3,20.4,6.3,5.8,4,10.4,9.8,12.7,17l.8-.3.8-.3c-2.4-7.5-7.2-13.6-13.3-17.9-6.1-4.2-13.6-6.6-21.3-6.6s-8,.6-12,1.9c-16,5.2-26.4,19.6-26.4,35,0,3.5.5,7.1,1.7,10.5,2.4,7.5,7.2,13.6,13.3,17.9,6.1,4.2,13.6,6.6,21.3,6.6s8-.6,12-1.9c16-5.2,26.4-19.6,26.4-35,0-3.5-.5-7.1-1.7-10.5l-.8.3Z"/>
  <path class="cls-8" d="M228.8,221.3l-2,11.5,23.1,15,3.6-20.5c10.8-1.5,19.9-8.1,25-17.2,2-3.5,3.3-7.4,3.9-11.5.3-2.1.4-4.3.3-6.6-.2-4.9-1.5-9.5-3.5-13.6-3.3-6.6-8.6-12-15.2-15.3-4.2-2.1-8.8-3.4-13.8-3.6-1,0-2,0-3.1,0-12.6.6-23.3,7.9-28.7,18.3-2.7,5.1-4.1,11-3.8,17.2.5,10.9,6,20.3,14.2,26.2"/>
  <path class="cls-5" d="M228.8,221.3h-.8c0-.1-2,11.4-2,11.4,0,.3,0,.7.4.9l23.1,15c.2.2.5.2.8,0,.3-.1.5-.4.5-.6l3.6-20.5h-.8c0-.1.1.7.1.7,11.1-1.6,20.4-8.3,25.6-17.6,2-3.6,3.4-7.6,4-11.8.3-1.7.4-3.4.4-5.2s0-1,0-1.6c-.2-5-1.5-9.7-3.6-13.9h0c-3.4-6.8-8.9-12.3-15.6-15.7h0c-4.3-2.2-9.1-3.5-14.1-3.7h0c-.5,0-1.1,0-1.6,0s-1,0-1.6,0c-12.9.6-23.9,8.1-29.4,18.8-2.5,4.8-3.9,10.3-3.9,16.1s0,1,0,1.6c.5,11.1,6.1,20.8,14.5,26.8l.5-.7h-.8c0-.1.8,0,.8,0l.5-.7c-8-5.7-13.4-14.9-13.8-25.5,0-.5,0-1,0-1.5,0-5.5,1.3-10.7,3.7-15.3,5.3-10.2,15.7-17.3,28-17.8.5,0,1,0,1.5,0s1,0,1.5,0h0c4.8.2,9.3,1.5,13.4,3.5h0c6.4,3.2,11.6,8.5,14.8,14.9h0c2,4,3.2,8.5,3.4,13.3,0,.5,0,1,0,1.5,0,1.7-.1,3.3-.4,4.9-.6,4-1.9,7.8-3.8,11.2-4.9,8.9-13.8,15.3-24.3,16.8-.4,0-.7.3-.7.7l-3.3,19.2-21.5-14,1.9-11c0-.3,0-.7-.3-.8l-.5.7Z"/>
  <path class="cls-5" d="M268.1,197.6c0,1.5-.9,2.6-1.8,2.6-1,0-1.7-1.2-1.7-2.7,0-1.5.9-2.6,1.8-2.6,1,0,1.7,1.2,1.7,2.7"/>
  <path class="cls-5" d="M268.1,197.6h-.9c0,.5-.2,1-.4,1.3-.1.2-.2.3-.3.3,0,0-.2,0-.2,0h0s0,.9,0,.9v-.9s-.1,0-.2,0c-.1,0-.3-.3-.4-.6-.1-.3-.2-.7-.2-1.1h0c0-.7.2-1.2.4-1.5.1-.2.2-.3.3-.3,0,0,.2,0,.2,0h0v-.4s0,.4,0,.4h0s0-.4,0-.4v.4s0,0,0,0c0,0,.1,0,.2,0,.1,0,.3.3.4.6.1.3.2.7.2,1.1h0c0,.1,0,0,0,0h.9s.9,0,.9,0h0c0-1-.2-1.8-.6-2.4-.2-.3-.5-.6-.8-.8-.3-.2-.7-.3-1.1-.4v.9s0-.9,0-.9h0c-.4,0-.8.1-1.1.3-.5.3-.9.8-1.1,1.3-.3.5-.4,1.1-.4,1.8h0s0,.1,0,.1c0,.9.2,1.6.6,2.3.2.3.5.6.8.8.3.2.7.3,1.1.4h0c.4,0,.8-.1,1.1-.3.5-.3.9-.8,1.1-1.3.3-.5.4-1.1.4-1.8h0s-.9,0-.9,0Z"/>
  <path class="cls-5" d="M264,188.3c1-.7,2.5-1.1,4.2-1.1.1,0,.2,0,.3,0,1.8,0,3.4.6,4.4,1.4.4.3.9.2,1.2-.2.3-.4.2-.9-.2-1.2-1.4-1-3.3-1.7-5.4-1.7-.1,0-.2,0-.4,0-2,0-3.8.5-5.1,1.4-.4.3-.5.8-.2,1.2.3.4.8.5,1.2.2Z"/>
  <path class="cls-5" d="M264,163.3c-.8,2.6-2.6,5.1-5.2,7.5-3.6,3.4-8.8,6.5-14.8,8.4-10.3,3.3-20.2,2.6-25.5-1.3,5.4-10.4,16.1-17.7,28.7-18.3,1,0,2.1,0,3.1,0,4.9.2,9.6,1.5,13.8,3.6"/>
  <path class="cls-5" d="M264,163.3l-.8-.3c-.8,2.4-2.5,4.9-4.9,7.2-3.5,3.3-8.6,6.3-14.5,8.2-4.4,1.4-8.6,2.1-12.5,2.1-5.1,0-9.5-1.2-12.3-3.2l-.5.7.8.4c5.3-10.2,15.7-17.3,28-17.8.5,0,1,0,1.5,0s1,0,1.5,0c4.8.2,9.3,1.5,13.4,3.5l.4-.8-.8-.3.8.3.4-.8c-4.3-2.2-9.1-3.5-14.1-3.7-.5,0-1.1,0-1.6,0s-1,0-1.5,0c-12.9.6-23.9,8.1-29.4,18.8-.2.4,0,.8.3,1.1,3.2,2.3,7.9,3.5,13.3,3.5,4.1,0,8.5-.7,13-2.2,6.2-2,11.4-5.1,15.2-8.6,2.6-2.5,4.5-5.1,5.4-7.9.1-.4,0-.8-.4-1l-.4.8Z"/>
  <path class="cls-5" d="M279.2,178.6c-5.5,1.8-13.4-1.3-20.3-7.8-1.6-1.5-3.1-3.1-4.5-4.9-1.6-2-3-4.1-4.1-6.2,4.9.2,9.6,1.5,13.8,3.6,6.6,3.3,11.9,8.7,15.2,15.3"/>
  <path class="cls-5" d="M279.2,178.6l-.3-.8c-.9.3-2,.5-3.1.5-2.4,0-5.1-.7-7.9-2.1-2.8-1.4-5.7-3.4-8.5-6-1.5-1.4-3-3-4.4-4.8-1.6-2-2.9-4.1-4-6.1l-.8.4v.9c4.8.2,9.3,1.5,13.4,3.5h0c6.4,3.2,11.6,8.5,14.8,14.9l.8-.4-.3-.8.3.8.8-.4c-3.4-6.8-8.9-12.3-15.6-15.7h0c-4.3-2.2-9.1-3.5-14.1-3.7-.3,0-.6.1-.8.4-.2.3-.2.6,0,.9,1.2,2.1,2.6,4.3,4.2,6.4,1.4,1.8,3,3.5,4.6,5,2.9,2.7,5.9,4.8,8.9,6.3,3,1.5,5.9,2.3,8.7,2.3,1.3,0,2.5-.2,3.6-.6.2,0,.4-.3.5-.5,0-.2,0-.5,0-.7l-.8.4Z"/>
  <path class="cls-5" d="M242,228c0,0,2.8.8,6.8.8,2.9,0,6.5-.4,10.4-1.7.4-.2.7-.7.5-1.1-.2-.4-.6-.7-1.1-.5-3.6,1.3-7,1.6-9.8,1.6s-3.5-.2-4.6-.4c-.6,0-1-.2-1.3-.2-.1,0-.3,0-.3,0h0s0,0,0,0c-.5-.1-.9.1-1.1.6-.1.5.1.9.6,1.1Z"/>
  <path class="cls-5" d="M214.1,189.1s11.4,9.5,13.3-2.2c0,0-.4-4.8,4.9-5.6l-3.4-13.5-13.9,5.9s-5.3,9.1-.9,15.5"/>
  <path class="cls-5" d="M214.1,189.1l-.6.7s1.1,1,2.8,1.9c1.6.9,3.7,1.9,5.9,1.9,1.3,0,2.7-.4,3.8-1.5,1.1-1.1,1.9-2.7,2.2-5.1v-.2s0,0,0,0h.1s-.1,0-.1,0h.1s0-.1,0-.1c0-.4,0-1.4.6-2.4.3-.5.6-.9,1.2-1.3.6-.4,1.3-.7,2.3-.9.2,0,.5-.2.6-.4.1-.2.2-.5.1-.7l-3.4-13.5c0-.2-.2-.4-.5-.6s-.5-.1-.7,0l-13.9,5.9c-.2,0-.3.2-.4.4,0,0-.7,1.2-1.4,3-.7,1.8-1.4,4.3-1.4,6.9,0,2.2.5,4.5,1.9,6.5l.2.2.6-.7.7-.5c-1.2-1.7-1.6-3.6-1.6-5.5,0-2.3.6-4.6,1.3-6.3.3-.8.6-1.5.9-2,.1-.2.2-.4.3-.6h0c0-.1,0-.2,0-.2h0s-.7-.4-.7-.4l.3.8,12.9-5.5,3.2,12.6.8-.2v-.8c-1.4.2-2.4.6-3.2,1.1-1.2.8-1.8,1.9-2.2,2.9-.3,1-.4,1.8-.4,2.2,0,.1,0,.2,0,.3h.9c0,0-.8-.2-.8-.2-.4,2.1-1,3.4-1.8,4.1-.7.7-1.6,1-2.6,1-1.6,0-3.6-.8-5-1.7-.7-.4-1.4-.9-1.8-1.2-.2-.2-.4-.3-.5-.4h-.1c0-.1,0-.1,0-.1l-.6.7.7-.5-.7.5Z"/>
  <path class="cls-5" d="M223.1,216.2l-1.8-11.4-7.5-.5s3.4,6.7,9.3,12"/>
  <path class="cls-5" d="M223.1,216.2h.8c0-.1-1.8-11.6-1.8-11.6,0-.4-.4-.7-.8-.7l-7.5-.5c-.3,0-.6.1-.8.4-.2.3-.2.6,0,.9,0,0,3.5,6.8,9.5,12.2.3.2.7.3,1,.1.3-.2.5-.5.4-.9h-.8c0,.1.6-.5.6-.5-2.8-2.6-5.1-5.5-6.7-7.8-.8-1.1-1.4-2.1-1.8-2.8-.2-.3-.4-.6-.5-.8,0,0,0-.2-.1-.2h0c0,0-.8.3-.8.3v.9c0,0,6.7.5,6.7.5l1.7,10.8h.8c0-.1.6-.8.6-.8l-.6.6Z"/>
  <path class="cls-8" d="M223.8,206.7c-1.3,1-3,1.7-4.9,1.8-4.7.2-8.7-3.4-8.9-8.2-.2-4.7,3.4-8.7,8.2-8.9,1.8,0,3.6.4,5,1.3"/>
  <path class="cls-5" d="M223.3,206c-1.2.9-2.7,1.5-4.4,1.6-.1,0-.2,0-.4,0-4.1,0-7.5-3.2-7.7-7.3,0-.1,0-.2,0-.4,0-4.1,3.2-7.5,7.3-7.7.1,0,.2,0,.4,0,1.5,0,2.9.4,4.1,1.2.4.3.9.1,1.2-.3.3-.4.1-.9-.3-1.2-1.5-.9-3.2-1.5-5.1-1.5s-.3,0-.4,0c-5,.2-9,4.4-9,9.4s0,.3,0,.4c.2,5,4.4,9,9.4,9s.3,0,.4,0c2,0,3.9-.8,5.3-2,.4-.3.4-.8.2-1.2s-.8-.4-1.2-.2Z"/>
  <path class="cls-8" d="M215.8,199.6s2.7-1.1,5.6.8"/>
  <path class="cls-5" d="M216.2,200.3v-.3c-.1,0,0,.3,0,.3h0s-.1-.3-.1-.3v.3c.1,0,.8-.3,1.8-.3.9,0,2,.2,3.1,1,.4.3.9.1,1.2-.3.3-.4.1-.9-.3-1.2-1.5-1-2.9-1.2-4.1-1.2-1.4,0-2.3.4-2.3.4-.4.2-.6.7-.5,1.1.2.4.7.6,1.1.5Z"/>
  <path class="cls-5" d="M279.2,178.6s3.5-.9,3.2-6c-.3-5-9.3-18.4-23.6-18"/>
  <path class="cls-5" d="M279.4,179.4c0,0,1-.3,2-1.2,1-.9,1.9-2.5,1.9-5,0-.2,0-.4,0-.6,0-1.5-.7-3.3-1.9-5.3-1.7-3-4.5-6.4-8.2-9-3.7-2.6-8.4-4.6-13.8-4.6-.2,0-.4,0-.6,0-.5,0-.8.4-.8.9,0,.5.4.8.9.8.2,0,.4,0,.6,0,6.6,0,12.1,3.1,16,6.9,1.9,1.9,3.4,3.9,4.5,5.8,1,1.8,1.6,3.5,1.6,4.5,0,.2,0,.4,0,.5,0,2.1-.7,3.1-1.3,3.8-.3.3-.7.5-.9.6-.1,0-.2,0-.3.1h0c-.5.1-.7.6-.6,1.1.1.5.6.7,1.1.6Z"/>
  <path class="cls-6" d="M278.5,197.3c-.6,0-1.3,0-2,.3-3.4,1.1-5.3,4.7-4.2,8.1.8,2.4,2.8,4,5.1,4.4,0-.1.1-.2.2-.3,1.9-3.4,3.2-7.2,3.8-11.2,0-.2,0-.3,0-.5-.9-.5-2-.8-3-.8"/>
  <path class="cls-5" d="M281.6,198.1c0,.2,0,.3,0,.5-.6,4-1.9,7.8-3.8,11.2,0,.1-.1.2-.2.3.3,0,.7,0,1,0s0,0,0,0c2-3.5,3.3-7.4,3.9-11.5-.3-.2-.6-.4-.9-.6"/>
  <path class="cls-5" d="M245.2,196.4c0,1.5.7,2.7,1.7,2.7,1,0,1.8-1.1,1.9-2.6,0-1.5-.7-2.7-1.7-2.7-1,0-1.8,1.1-1.9,2.6"/>
  <path class="cls-5" d="M245.2,196.4h-.9s0,.2,0,.2c0,.8.2,1.6.6,2.2.2.3.5.6.8.8.3.2.7.3,1.1.4h0c.4,0,.8-.1,1.1-.3.5-.3.9-.8,1.1-1.3.3-.5.4-1.1.4-1.8v-.2c0-.8-.2-1.6-.6-2.2-.2-.3-.5-.6-.8-.8-.3-.2-.7-.3-1.1-.4h0,0c-.4,0-.8.1-1.1.3-.5.3-.9.8-1.1,1.3-.3.5-.4,1.1-.4,1.8h.9s.9,0,.9,0c0-.6.2-1.1.4-1.4.1-.2.2-.3.3-.3,0,0,.2,0,.2,0h0c0,0,.1,0,.2,0,.1,0,.3.3.4.6.1.3.2.7.2,1.1h0c0,.7-.2,1.2-.4,1.5-.1.2-.2.3-.3.3,0,0-.2,0-.2,0h0c0,0-.1,0-.2,0-.1,0-.3-.3-.4-.6-.1-.3-.2-.7-.2-1.1h0c0-.1-.9-.2-.9-.2Z"/>
  <path class="cls-5" d="M251,186.1c-1.4-1-3.3-1.7-5.4-1.8-.2,0-.3,0-.5,0-2,0-3.7.5-5.1,1.4-.4.3-.5.8-.2,1.2.3.4.8.5,1.2.2,1-.6,2.4-1.1,4.1-1.1.1,0,.3,0,.4,0,1.8,0,3.4.7,4.4,1.4.4.3.9.2,1.2-.2.3-.4.2-.9-.2-1.2Z"/>
  <path class="cls-6" d="M236.8,195.6c-2.6,0-5,1.5-6,4.1-1.3,3.3.3,7,3.6,8.4.8.3,1.6.5,2.4.5,2.6,0,5-1.5,6-4.1,1.3-3.3-.3-7-3.6-8.4-.8-.3-1.6-.5-2.4-.5"/>
  <path class="cls-3" d="M257.7,203.5c.2,1,1.2,1.6,2.1,1.4,1-.2,1.6-1.2,1.4-2.1-.2-1-1.2-1.6-2.1-1.4-1,.2-1.6,1.2-1.4,2.1"/>
  <path class="cls-10" d="M259.3,209.6s-5.6,2.1-9.6-2.7c0,0-1.4,7.1,3.3,8.1,4.7,1,6.3-5.4,6.3-5.4"/>
  <path class="cls-5" d="M259.3,209.6l-.3-.8v.3c.1,0,0-.3,0-.3h0s.1.3.1.3v-.3c-.1,0-1.2.4-2.7.4-.9,0-1.9-.1-2.9-.6-1-.4-2.1-1.1-3.1-2.3-.2-.3-.6-.4-.9-.3-.3,0-.6.3-.6.7,0,0-.2,1.1-.2,2.4,0,1.2.1,2.6.7,3.9.3.6.7,1.3,1.3,1.8.6.5,1.3.9,2.2,1.1.4,0,.8.1,1.1.1,1.2,0,2.2-.4,3-1,1.2-.9,2-2.2,2.5-3.2.5-1,.7-1.9.7-1.9,0-.3,0-.6-.3-.9-.2-.2-.6-.3-.9-.2l.3.8-.8-.2h0c0,.1-.4,1.4-1.2,2.6-.4.6-.9,1.2-1.4,1.6-.6.4-1.2.6-1.9.7-.2,0-.5,0-.8,0-.6-.1-1-.4-1.4-.7-.5-.5-.9-1.1-1.1-1.9-.2-.8-.3-1.6-.3-2.4,0-.6,0-1.1,0-1.5,0-.2,0-.3,0-.4h0c0-.1,0-.1,0-.1l-.8-.2-.7.6c1.2,1.4,2.5,2.3,3.7,2.8,1.3.5,2.5.7,3.6.7,1.9,0,3.2-.5,3.2-.5l-.3-.8-.8-.2.8.2Z"/>
  <path class="cls-8" d="M216.5,358.3c1,.4,1.8.7,2.3,1.1.9.6,1.7,2,2.5,3.5-1.6-1.8-3.2-3.3-4.8-4.6M229.3,363.7c-1.2-3.5-3.7-8.1-7.3-10.4-4.9-3.2-12.3-4-12.3-4l-18.5-8.6-10.8,13.6s3.6,10.2,16.5,14.9c4.1,3.9,5.6,9.1,6.2,12.2.3,1.4,1.9,2.4,3.5,2.1,1.5-.2,2.6-1.5,2.5-2.8-.9-8.4-5.2-13.8-8-16.4h0c6.6,2.9,10.9,9.3,13,13.2.9,1.7,2.9,2.2,4.4,1.2,1.4-.9,1.9-2.9,1.2-4.5-.8-1.8-1.8-3.5-2.7-5,1.2,1.4,2.2,2.7,3,3.8,1.1,1.6,3.3,1.9,4.8.8,1.4-1.1,1.8-3,.9-4.6-.2-.3-.4-.6-.5-.9.6.1,1.2,0,1.8-.1,1.8-.6,2.8-2.6,2.2-4.5"/>
  <path class="cls-5" d="M216.5,358.3l-.3.8c1,.4,1.7.7,2.1,1,.3.2.7.7,1.1,1.2.4.6.8,1.2,1.1,1.9l.8-.4.6-.6c-1.6-1.9-3.3-3.4-4.9-4.7l-.5.7-.3.8.3-.8-.5.7c1.6,1.2,3.2,2.7,4.7,4.5.3.3.8.4,1.1.1.4-.2.5-.7.3-1.1-.4-.8-.8-1.5-1.3-2.2-.5-.6-.9-1.2-1.5-1.6-.6-.5-1.5-.9-2.6-1.2-.4-.1-.8,0-1,.4-.2.4-.1.8.2,1.1l.5-.7ZM229.3,363.7l.8-.3c-.6-1.8-1.6-3.9-2.9-5.9-1.3-1.9-2.8-3.7-4.8-5-2.6-1.7-5.7-2.7-8.2-3.3-1.2-.3-2.3-.5-3.1-.7-.4,0-.7-.1-.9-.1-.1,0-.2,0-.3,0h0s0,0,0,0h0s0,0,0,0v.5c0,0,0-.5,0-.5v.5c0,0,0-.5,0-.5v.9c-.1,0,0-.9,0-.9h0v.9c-.1,0,0-.9,0-.9v.9c-.1,0,0-.8,0-.8h0s-.1.8-.1.8v-.8c.1,0,0,.8,0,.8l.4-.8-18.5-8.6c-.4-.2-.8,0-1,.2l-10.8,13.6c-.2.2-.2.5-.1.8,0,0,1,2.7,3.6,5.9,2.6,3.2,6.9,7.1,13.5,9.5l.3-.8-.6.6c3.9,3.7,5.4,8.7,5.9,11.7.2.9.7,1.6,1.4,2.1.7.5,1.5.8,2.5.8.2,0,.4,0,.7,0,.9-.1,1.7-.6,2.3-1.2.6-.6.9-1.4.9-2.3,0-.1,0-.2,0-.3h0c-.9-8.7-5.3-14.2-8.2-17l-.6.6.7.6h0c0,0-.7-.6-.7-.6l-.3.8c3.2,1.4,5.8,3.7,7.9,6.1,2.1,2.4,3.7,4.9,4.7,6.8.7,1.4,2.1,2.2,3.5,2.2.7,0,1.5-.2,2.1-.6,1.2-.8,1.9-2.2,1.9-3.7s-.1-1.3-.4-1.9c-.9-1.9-1.8-3.5-2.7-5.1l-.7.5-.6.6c1.2,1.3,2.2,2.6,2.9,3.7.8,1.2,2.2,1.8,3.5,1.8.9,0,1.8-.3,2.5-.8,1.2-.8,1.8-2.1,1.8-3.5,0-.8-.2-1.5-.6-2.2-.2-.3-.4-.6-.5-.9l-.7.5-.2.8c.3,0,.5,0,.8,0,.4,0,.9,0,1.4-.2,1.8-.6,3-2.3,3-4.1,0-.5,0-1-.2-1.4l-.8.3-.8.3c.1.3.1.6.1.9,0,1.1-.7,2.1-1.8,2.5-.3,0-.5.1-.8.1-.2,0-.3,0-.5,0-.3,0-.7,0-.9.4-.2.3-.2.7,0,.9.2.3.4.6.5.8.3.4.4.9.4,1.3,0,.8-.4,1.6-1.1,2.1-.5.3-1,.5-1.5.5-.8,0-1.6-.4-2.1-1.1-.8-1.1-1.8-2.5-3-3.9-.3-.3-.8-.4-1.2-.1-.4.3-.5.8-.2,1.1.9,1.5,1.8,3.1,2.6,4.9.2.4.3.8.3,1.2,0,.9-.4,1.8-1.1,2.2-.4.3-.8.4-1.2.4-.8,0-1.5-.4-2-1.3-1.1-2-2.7-4.6-4.9-7.2-2.2-2.5-5-5-8.5-6.5-.3-.2-.8,0-1,.2h0c-.3.4-.3.9,0,1.2,2.7,2.6,6.8,7.8,7.7,15.9h0s0,.1,0,.1c0,.4-.2.8-.5,1.1-.3.3-.8.6-1.3.6-.1,0-.3,0-.4,0-.6,0-1.1-.2-1.4-.4-.4-.3-.6-.6-.7-1-.6-3.2-2.2-8.5-6.4-12.6,0,0-.2-.1-.3-.2-6.3-2.3-10.3-5.9-12.7-8.9-1.2-1.5-2-2.9-2.6-3.9-.3-.5-.4-.9-.6-1.2,0-.1,0-.2-.1-.3h0c0,0,0,0,0,0h0s-.8.3-.8.3l.7.5,10.4-13,17.9,8.3c0,0,.2,0,.2,0h0s.4,0,1.2.2c2.2.4,7.2,1.5,10.7,3.7,1.6,1,3.1,2.7,4.2,4.5,1.2,1.8,2.1,3.8,2.7,5.5l.8-.3Z"/>
  <path class="cls-8" d="M211,355.8s2.7.9,5.5,2.5"/>
  <path class="cls-5" d="M210.7,356.6h.1c.5.2,2.9,1.1,5.3,2.4.4.2.9,0,1.2-.3.2-.4,0-.9-.3-1.2-2.9-1.6-5.6-2.5-5.7-2.6-.4-.2-.9,0-1.1.5s0,.9.5,1.1Z"/>
  <path class="cls-5" d="M220.7,363.4l4,5.4c.3.4.8.5,1.2.2.4-.3.5-.8.2-1.2l-4-5.4c-.3-.4-.8-.5-1.2-.2-.4.3-.5.8-.2,1.2"/>
  <path class="cls-8" d="M206.6,359.8s7.6,3,10.6,9.2"/>
  <path class="cls-5" d="M206.3,360.6h0c.2,0,2,.9,4.2,2.3,2.1,1.5,4.6,3.7,5.9,6.5.2.4.7.6,1.1.4.4-.2.6-.7.4-1.1-1.6-3.3-4.4-5.7-6.7-7.3-2.3-1.6-4.3-2.4-4.3-2.4-.4-.2-.9,0-1.1.5-.2.4,0,.9.5,1.1Z"/>
  <path class="cls-11" d="M168.3,349.1l9.4,8.3c1.5,1.3,3.7,1.2,5.1-.2l12.6-12.6c1.5-1.5,1.5-3.9,0-5.3l-7.8-7.4"/>
  <path class="cls-5" d="M167.7,349.7l9.4,8.3c.9.8,2,1.1,3,1.1,1.2,0,2.4-.5,3.2-1.3l12.6-12.6c.9-.9,1.3-2.1,1.3-3.2,0-1.2-.5-2.4-1.4-3.3l-7.8-7.4c-.3-.3-.9-.3-1.2,0-.3.3-.3.9,0,1.2l7.8,7.4c.6.6.9,1.3.9,2.1,0,.7-.3,1.5-.8,2l-12.6,12.6c-.6.6-1.3.8-2,.8-.7,0-1.4-.2-1.9-.7l-9.4-8.3c-.4-.3-.9-.3-1.2,0-.3.4-.3.9,0,1.2Z"/>
  <path class="cls-1" d="M220.1,232.4s-48.6-1.8-77.2,41c-25.2,37.7,15,71.7,24.9,79.2,1.2.9,2.9.8,4-.2l18.5-17.5c1.3-1.2,1.3-3.3,0-4.5-5.6-5.1-18.3-17.9-16.5-27.4,1.3-6.8,6.6-18.3,22.4-25.5"/>
  <path class="cls-5" d="M220.1,231.5s-.3,0-.9,0c-3.3,0-15.9.4-31,5.7-15.1,5.4-32.8,15.7-46.1,35.7-5.9,8.9-8.3,17.6-8.3,25.8,0,13.6,6.5,25.8,13.9,35.3,7.4,9.5,15.7,16.3,19.6,19.2.7.5,1.5.8,2.4.8,1,0,2-.4,2.7-1.1l18.5-17.5c.8-.8,1.2-1.8,1.2-2.9,0-1.1-.4-2.1-1.3-2.9-2.6-2.3-6.7-6.4-10.2-10.9-1.7-2.3-3.3-4.7-4.4-7.1-1.1-2.4-1.8-4.7-1.8-6.9,0-.6,0-1.2.2-1.8.6-3.3,2.2-7.7,5.6-12.3,3.4-4.5,8.5-9.1,16.2-12.6.4-.2.6-.7.4-1.1-.2-.4-.7-.6-1.1-.4-8,3.6-13.4,8.4-16.9,13.1-3.5,4.7-5.2,9.4-5.9,13-.1.7-.2,1.4-.2,2.1,0,2.5.8,5.1,2,7.6,1.8,3.8,4.6,7.5,7.4,10.8,2.8,3.2,5.7,6,7.6,7.8.5.4.7,1,.7,1.6,0,.6-.2,1.2-.7,1.6l-18.5,17.5c-.4.4-1,.6-1.5.6s-.9-.1-1.3-.5c-3.8-2.9-12-9.6-19.3-18.9-7.3-9.3-13.5-21.2-13.5-34.2,0-7.9,2.3-16.3,8-24.9,13.1-19.6,30.4-29.7,45.2-35,14.8-5.3,27.2-5.7,30.4-5.6.3,0,.5,0,.6,0,.1,0,.2,0,.2,0,.5,0,.9-.4.9-.8,0-.5-.4-.9-.8-.9Z"/>
  <path class="cls-8" d="M242.8,300.2s-19,.5-31.9,3.7c-12.9,3.1-20.4,14-20.9,17.9-.4,3.8,2.7,3.1,4.1,1.6,1.4-1.5,4.9-6.5,10.4-9.1,0,0-8.5,7.5-8.5,13.2s4,3.7,4,3.7c0,0,.7,3.8,4.4,1.9,0,0,1.8,2.2,4.5,0,2.7-2.2,5-8.2,10.5-9.8,5.5-1.6,7.1,1.9,14-1.2,7-3.1,4.6-4.2,10.6-4.2,0,0,4.4-2,3.7-9.4-.7-7.4-4.9-8.2-4.9-8.2"/>
  <path class="cls-5" d="M242.8,300.2v-.9s-4.8.1-11.2.7c-6.4.5-14.4,1.5-20.9,3-6.7,1.6-11.9,5.2-15.5,8.9-1.8,1.8-3.2,3.7-4.2,5.4-1,1.7-1.6,3.1-1.7,4.3,0,.3,0,.5,0,.7,0,.9.2,1.7.7,2.3.2.3.5.5.9.6.3.1.6.2,1,.2.6,0,1.2-.2,1.7-.4.5-.3,1-.6,1.4-1,.4-.4.8-1,1.4-1.7,1.8-2.1,4.7-5.4,8.6-7.2l-.4-.8-.6-.6s-2.2,1.9-4.3,4.6c-1.1,1.3-2.2,2.8-3,4.4-.8,1.6-1.4,3.2-1.4,4.9,0,1.8.3,3,1,3.8.3.4.7.7,1.1.9.4.2.8.2,1.2.2,1.1,0,1.8-.4,1.9-.4l-.4-.8-.8.2c0,0,.1.7.6,1.5.2.4.5.8,1,1.1.5.3,1.1.5,1.7.5.7,0,1.4-.2,2.3-.6l-.4-.8-.7.5s.3.3.7.7c.5.3,1.2.6,2,.6.9,0,1.9-.3,2.9-1.2.8-.6,1.5-1.5,2.2-2.4,1-1.4,2.1-2.9,3.4-4.3,1.3-1.3,2.8-2.5,4.6-3,1.1-.3,1.9-.4,2.7-.4.9,0,1.7.1,2.6.3.9.1,1.8.3,2.9.3,1.6,0,3.5-.3,5.9-1.4,1.8-.8,3-1.5,3.9-2,.7-.4,1.2-.8,1.6-1.1.6-.4,1-.6,1.6-.8.6-.2,1.6-.3,3.3-.3.1,0,.3,0,.4,0,0,0,1.1-.6,2.2-1.9,1-1.3,2.1-3.5,2.1-6.8,0-.5,0-1,0-1.6-.3-3.8-1.7-6.1-3-7.4-1.3-1.3-2.5-1.5-2.6-1.6h-.2s0,.8,0,.8l-.2.8v-.4c0,0,0,.4,0,.4h0s0-.4,0-.4v.4c0,0,.8.2,1.8,1.2,1,1,2,2.8,2.4,6.2,0,.5,0,1,0,1.4,0,2.9-.9,4.6-1.7,5.7-.4.5-.8.9-1.1,1.1-.2.1-.3.2-.3.2h0s0,0,0,0v.3c.1,0,0-.3,0-.3h0s.1.3.1.3v-.3c-.1,0,.2.8.2.8v-.9c-1.5,0-2.6,0-3.4.2-.6.1-1.1.3-1.6.6-.7.4-1.2.8-2.1,1.4-.8.6-2,1.3-3.9,2.1-2.2,1-3.8,1.3-5.2,1.3-.9,0-1.8-.1-2.7-.3-.9-.1-1.8-.3-2.9-.3-1,0-2,.1-3.2.5-3,.9-5,3-6.7,5-.8,1-1.5,2-2.2,2.9-.7.9-1.3,1.6-1.9,2.1-.8.6-1.4.8-1.8.8-.5,0-.8-.2-1.1-.3-.1,0-.2-.2-.3-.2h0c0,0,0,0,0,0l-.3.2.3-.2h0s-.3.2-.3.2l.3-.2c-.3-.3-.7-.4-1.1-.2-.6.3-1.1.4-1.5.4-.3,0-.6,0-.8-.2-.3-.2-.5-.6-.7-.9,0-.2-.1-.3-.2-.4h0c0-.1,0-.1,0-.1h0s0,0,0,0h0s0,0,0,0h0c0-.3-.2-.5-.5-.6-.2-.1-.5-.1-.8,0v.3c.1,0,0-.3,0-.3h0s.1.3.1.3v-.3c-.1,0-.7.3-1.2.3-.2,0-.4,0-.5,0-.2-.1-.5-.3-.7-.7-.2-.4-.4-1.2-.4-2.4,0-1.2.5-2.6,1.2-4.1,1.1-2.2,2.9-4.3,4.3-5.9.7-.8,1.4-1.5,1.9-1.9.2-.2.4-.4.6-.5h.1c0-.1,0-.2,0-.2.3-.3.4-.8.1-1.1-.2-.4-.7-.5-1.1-.3-2.9,1.4-5.2,3.3-7,5.2-.9.9-1.6,1.8-2.3,2.5-.6.7-1.1,1.3-1.4,1.7-.2.3-.6.5-.9.7-.3.2-.7.3-.9.3-.1,0-.2,0-.3,0-.1,0-.2-.1-.3-.3,0-.2-.2-.5-.2-1s0-.3,0-.6c0-.7.6-2.1,1.5-3.6,1.4-2.3,3.7-5.1,6.9-7.6,3.2-2.5,7.1-4.7,11.8-5.9,6.4-1.6,14.3-2.5,20.7-3,3.2-.3,5.9-.4,7.9-.5,1,0,1.8,0,2.3-.1.5,0,.8,0,.8,0v-.9s-.2.8-.2.8l.2-.8Z"/>
  <path class="cls-8" d="M200,331.1s-.9-2.2,2.4-7.1c3.2-4.9,9.1-8.8,9.1-8.8"/>
  <path class="cls-5" d="M200.8,330.8l-.5.2.5-.2h0s-.5.2-.5.2l.5-.2h0s0,0,0,0h0s0,0,0,0h0s0-.2,0-.5c0-.8.3-2.7,2.3-5.8,1.5-2.3,3.8-4.5,5.6-6,.9-.8,1.7-1.4,2.3-1.8.3-.2.5-.4.7-.5,0,0,.1,0,.2-.1h0c.4-.3.5-.8.2-1.2-.3-.4-.8-.5-1.2-.2,0,0-1.5,1-3.4,2.6-1.9,1.6-4.2,3.8-5.9,6.4-2.2,3.3-2.6,5.5-2.6,6.8s.1,1,.2,1.1c.2.4.7.7,1.1.5.4-.2.7-.7.5-1.1Z"/>
  <path class="cls-8" d="M204.4,333s-.6-1.3.9-3.9c1.5-2.6,6.7-8,10-10.2"/>
  <path class="cls-5" d="M205.2,332.6l-.3.2h.3c0-.1,0-.2,0-.2l-.3.2h.3c0-.1,0-.3,0-.6,0-.5.1-1.3.9-2.7.3-.6.9-1.4,1.7-2.3,1.1-1.3,2.5-2.9,4-4.2,1.5-1.4,2.9-2.6,4.1-3.4.4-.3.5-.8.3-1.2-.3-.4-.8-.5-1.2-.3-1.8,1.1-3.9,3.1-5.8,5.1-1,1-1.9,2-2.7,2.9-.8.9-1.4,1.8-1.8,2.5-.9,1.5-1.1,2.7-1.1,3.5,0,.7.2,1,.2,1.1.2.4.7.6,1.2.4.4-.2.6-.7.4-1.2Z"/>
  <path class="cls-8" d="M204.5,314.2s1.2-1,2.2-1.7"/>
  <path class="cls-5" d="M205.1,314.9s0,0,.2-.2c.4-.3,1.2-1,2-1.5.4-.3.5-.8.2-1.2-.3-.4-.8-.5-1.2-.2-1,.7-2.2,1.7-2.2,1.7-.4.3-.4.8-.1,1.2.3.4.8.4,1.2.1"/>
  <path class="cls-11" d="M243.9,298.2h-8.7c-1.6,0-2.9,1.4-2.7,3l1.8,17.2c.2,1.6,1.4,2.8,3,2.9l9.1.6"/>
  <path class="cls-5" d="M243.9,297.4h-8.7c-2,0-3.6,1.6-3.6,3.6,0,.1,0,.3,0,.4h0s1.8,17.2,1.8,17.2c.2,2,1.8,3.5,3.8,3.7l9.1.6c.5,0,.9-.3.9-.8,0-.5-.3-.9-.8-.9l-9.1-.6c-1.2,0-2.1-1-2.2-2.1l-1.8-17.2h0s0-.2,0-.2c0-1,.8-1.8,1.9-1.8h8.7c.5,0,.9-.4.9-.9s-.4-.9-.9-.9"/>
  <path class="cls-1" d="M257.6,234.6s61.2,24.9,63,63.6c1.7,37.1-55.3,29.6-71.9,26.7-2.6-.5-4.6-2.7-4.8-5.3l-1.3-19.7c-.1-2.1,1.5-3.8,3.5-3.9l38.4-1s-2.3-5.6-8-10.1"/>
  <path class="cls-5" d="M257.3,235.4s0,0,.2,0c1.8.7,17,7.2,31.9,18.2,7.5,5.5,14.9,12.1,20.5,19.6,5.6,7.5,9.4,15.9,9.9,25.1,0,.5,0,1.1,0,1.6,0,5.5-1.4,9.9-3.7,13.4-3.5,5.3-9.4,8.7-16.3,10.7-6.9,2.1-14.9,2.8-22.6,2.8-11.5,0-22.4-1.6-28.3-2.6-2.2-.4-3.9-2.3-4.1-4.5l-1.3-19.7v-.2c0-1.5,1.2-2.7,2.7-2.8l38.4-1c.3,0,.5-.2.7-.4.2-.2.2-.5,0-.8,0,0-2.4-5.8-8.3-10.5-.4-.3-.9-.2-1.2.1-.3.4-.2.9.2,1.2,2.8,2.2,4.7,4.6,6,6.5.6,1,1.1,1.8,1.4,2.3.1.3.3.5.3.7v.2c0,0,0,0,0,0h0s.8-.3.8-.3v-.9s-38.4,1-38.4,1c-2.5,0-4.4,2.1-4.4,4.5,0,.1,0,.2,0,.3l1.3,19.7c.2,3.1,2.5,5.6,5.5,6.1,5.9,1.1,16.9,2.7,28.6,2.7,10.4,0,21.4-1.3,29.9-5.5,4.2-2.1,7.9-5,10.4-8.8,2.6-3.8,4-8.6,4-14.4,0-.5,0-1.1,0-1.6-.5-9.9-4.7-18.9-10.8-26.7-9.1-11.8-22.3-21.2-33.2-27.6-10.9-6.4-19.5-10-19.6-10-.4-.2-.9,0-1.1.5-.2.4,0,.9.5,1.1"/>
  <path class="cls-1" d="M284.4,294.9s4.8.3,6.4-2.5"/>
  <path class="cls-5" d="M284.4,295.8s.2,0,.6,0c.7,0,1.9,0,3.2-.4.6-.2,1.3-.5,1.9-.9.6-.4,1.2-1,1.5-1.7.2-.4,0-.9-.3-1.2-.4-.2-.9,0-1.2.3-.2.4-.6.8-1,1.1-.6.4-1.4.7-2.2.8-.8.1-1.5.2-1.9.2s-.3,0-.3,0h0s0,0,0,0c-.5,0-.9.3-.9.8,0,.5.3.9.8.9Z"/>
  <polygon class="cls-11" points="249.9 247.9 235.8 263 218.8 233.2 227.8 227.2 249.9 247.9"/>
  <path class="cls-5" d="M249.9,247.9l-.6-.6-13.4,14.3-16-28.1,7.7-5.2,21.7,20.2.6-.6-.6-.6.6.6.6-.6-22.2-20.7c-.3-.3-.7-.3-1.1,0l-8.9,6.1c-.4.3-.5.7-.3,1.1l16.9,29.8c.1.2.4.4.6.4s.5,0,.7-.3l14.2-15.2c.2-.2.2-.4.2-.6,0-.2-.1-.4-.3-.6l-.6.6Z"/>
  <polygon class="cls-11" points="249.9 247.9 263.7 260.2 258.6 235.1 252.8 231.2 249.9 247.9"/>
  <path class="cls-5" d="M249.9,247.9l-.6.6,13.8,12.4c.3.2.7.3,1,.1.3-.2.5-.6.4-.9l-5.1-25.1c0-.2-.2-.4-.4-.5l-5.8-3.9c-.2-.2-.5-.2-.8,0-.3.1-.5.4-.5.6l-2.9,16.6c0,.3,0,.6.3.8l.6-.6h.8c0,.1,2.7-15.2,2.7-15.2l4.4,2.9,4.5,22.2-11.8-10.6-.6.6h.8c0,.1-.8,0-.8,0Z"/>
  <rect class="cls-11" x="147" y="421.4" width="165" height="4.5"/>
  <path class="cls-5" d="M312,425.8v-.9h-164.1v-2.8h163.3v3.6h.9v-.9.9h.9v-4.5c0-.2,0-.4-.3-.6-.2-.2-.4-.3-.6-.3h-165c-.2,0-.4,0-.6.3-.2.2-.3.4-.3.6v4.5c0,.2,0,.4.3.6.2.2.4.3.6.3h165c.2,0,.4,0,.6-.3.2-.2.3-.4.3-.6h-.9Z"/>
  <rect class="cls-7" x="147" y="421.4" width="117.5" height="4.5"/>
  <path class="cls-5" d="M264.5,425.8v-.9h-116.7v-2.8h115.8v3.6h.9v-.9.9h.9v-4.5c0-.2,0-.4-.3-.6-.2-.2-.4-.3-.6-.3h-117.5c-.2,0-.4,0-.6.3-.2.2-.3.4-.3.6v4.5c0,.2,0,.4.3.6.2.2.4.3.6.3h117.5c.2,0,.4,0,.6-.3.2-.2.3-.4.3-.6h-.9Z"/>
  <path class="cls-1" d="M268.2,423.6c0,2-1.6,3.6-3.6,3.6s-3.6-1.6-3.6-3.6,1.6-3.6,3.6-3.6,3.6,1.6,3.6,3.6"/>
  <path class="cls-5" d="M268.2,423.6h-.9c0,1.5-1.2,2.8-2.8,2.8-1.5,0-2.8-1.2-2.8-2.8,0-1.5,1.2-2.8,2.8-2.8,1.5,0,2.8,1.2,2.8,2.8h1.7c0-2.5-2-4.5-4.5-4.5-2.5,0-4.5,2-4.5,4.5s2,4.5,4.5,4.5c2.5,0,4.5-2,4.5-4.5h-.9Z"/>
  <path class="cls-2" d="M124.9,254h0l-6.8-28.5-3.3.8,6,25.1c-2.2,0-4.8,1.1-7.1,3.1-3.8,3.3-5.3,7.8-3.4,10.1,2,2.3,6.7,1.5,10.5-1.8,3.2-2.7,4.8-6.3,4.1-8.8"/>
  <path class="cls-5" d="M124.9,254l.8-.2-6.8-28.5c-.1-.5-.6-.7-1-.6l-3.3.8c-.5.1-.7.6-.6,1l6,25.1.8-.2v-.9c-2.4,0-5.2,1.2-7.7,3.3-1.4,1.2-2.5,2.6-3.3,4-.8,1.4-1.2,2.8-1.2,4.2,0,1.1.3,2.2,1.1,3.1.5.6,1.1,1,1.7,1.2.7.3,1.4.4,2.2.4,2.5,0,5.3-1.2,7.8-3.3,1.4-1.2,2.5-2.6,3.3-4,.8-1.4,1.2-2.8,1.2-4.2,0-.5,0-1-.2-1.4l-.8.2.8-.2-.8.2-.8.2c0,.3.1.6.1,1,0,1-.3,2.2-1,3.4-.7,1.2-1.7,2.4-2.9,3.5-2.2,1.9-4.8,2.9-6.7,2.9-.6,0-1.1,0-1.5-.3-.4-.2-.8-.4-1.1-.7-.4-.5-.6-1.1-.7-2,0-1,.3-2.2,1-3.4.7-1.2,1.7-2.4,2.9-3.5,2.2-1.9,4.7-2.9,6.6-2.9.3,0,.5-.1.7-.3.2-.2.2-.5.2-.7l-5.8-24.3,1.6-.4,6.6,27.7h0s.8-.2.8-.2Z"/>
  <path class="cls-11" d="M377.9,240.9h-69.1c-3.7,0-6.7,3-6.7,6.7v29.1c0,3.7,3,6.7,6.7,6.7h26.6l7.9,22.8,7.9-22.8h26.6c3.7,0,6.7-3,6.7-6.7v-29.1c0-3.7-3-6.7-6.7-6.7"/>
  <path class="cls-5" d="M377.9,240.9v-.9h-69.1c-4.2,0-7.6,3.4-7.6,7.6v29.1c0,4.2,3.4,7.6,7.6,7.6h26l7.7,22.2c.1.3.4.6.8.6s.7-.2.8-.6l7.7-22.2h26c4.2,0,7.6-3.4,7.6-7.6v-29.1c0-4.2-3.4-7.6-7.6-7.6v1.7c1.6,0,3.1.7,4.1,1.7,1.1,1.1,1.7,2.5,1.7,4.1v29.1c0,1.6-.7,3.1-1.7,4.1-1.1,1.1-2.5,1.7-4.1,1.7h-26.6c-.4,0-.7.2-.8.6l-7.1,20.5-7.1-20.5c-.1-.3-.4-.6-.8-.6h-26.6c-1.6,0-3.1-.7-4.1-1.7-1.1-1.1-1.7-2.5-1.7-4.1v-29.1c0-1.6.7-3.1,1.7-4.1,1.1-1.1,2.5-1.7,4.1-1.7h69.1v-.9Z"/>
  <path class="cls-7" d="M338.4,258c0-3.5-2.8-6.3-6.3-6.3s-6.3,2.8-6.3,6.3c0-3.5-2.8-6.3-6.3-6.3s-6.3,2.8-6.3,6.3c0,0-1,11.1,12.6,16.3,13.6-5.2,12.6-16.3,12.6-16.3"/>
  <path class="cls-5" d="M338.4,258h.9c0-4-3.2-7.2-7.2-7.2s-7.2,3.2-7.2,7.2,0,.4.3.6c.2.2.4.3.6.3s.4,0,.6-.3c.2-.2.3-.4.3-.6,0-4-3.2-7.2-7.2-7.2s-7.2,3.2-7.2,7.2h.9-.9c0,0,0,.1,0,.5,0,1.2.2,4.2,2,7.4,1.8,3.3,5.1,6.8,11.2,9.1.2,0,.4,0,.6,0,6.1-2.3,9.5-5.9,11.2-9.1,1.8-3.3,2-6.2,2-7.4s0-.6,0-.6h-.9c0,0,.9,0,.9,0h-1.7c0,0,0,0,0,0h0s0,0,0,0h0s0,.2,0,.4c0,1-.2,3.7-1.8,6.6-1.6,2.9-4.6,6.2-10.3,8.4l.3.8.3-.8c-5.8-2.2-8.7-5.4-10.3-8.4-1.6-2.9-1.8-5.6-1.8-6.6,0-.1,0-.3,0-.3h0c0,0,0,0,0,0h0s0,0,0,0h0s0,0,0,0h0s0,0,0,0c0-1.5.6-2.9,1.6-3.9,1-1,2.3-1.6,3.9-1.6s2.9.6,3.9,1.6c1,1,1.6,2.3,1.6,3.9,0,.2,0,.4.3.6.2.2.4.3.6.3s.4,0,.6-.3c.2-.2.3-.4.3-.6,0-1.5.6-2.9,1.6-3.9,1-1,2.3-1.6,3.9-1.6s2.9.6,3.9,1.6c1,1,1.6,2.3,1.6,3.9h0c0,0,.9,0,.9,0Z"/>
  <path class="cls-9" d="M353.9,319.5l2.5,14.7c.2,1.1.9,2,1.9,2.5l13.5,6.3c2.5,1.2,2.6,4.7.1,6l-13.2,6.9c-1,.5-1.6,1.5-1.8,2.5l-1.9,14.8c-.3,2.7-3.7,3.9-5.7,2l-10.6-10.4c-.8-.8-1.9-1.1-3-.9l-14.6,2.8c-2.7.5-4.9-2.3-3.6-4.8l6.6-13.3c.5-1,.5-2.1,0-3.1l-7.2-13c-1.3-2.4.7-5.3,3.4-4.9l14.7,2.2c1.1.2,2.2-.2,2.9-1l10.2-10.8c1.9-2,5.3-1,5.7,1.7"/>
  <path class="cls-5" d="M353.9,319.5h-.8c0,.1,2.5,14.8,2.5,14.8.2,1.4,1.1,2.5,2.4,3.1l13.5,6.3c.5.2.8.6,1.1,1,.2.4.4.8.4,1.3s-.1.9-.3,1.3c-.2.4-.5.7-1,.9l-13.2,6.9c-1.2.6-2,1.8-2.2,3.2l-1.9,14.8c0,.7-.4,1.2-.9,1.6-.4.4-1,.6-1.6.6-.6,0-1.2-.2-1.7-.7l-10.6-10.4c-.8-.8-1.9-1.2-2.9-1.2s-.5,0-.8,0l-14.6,2.8c-.2,0-.3,0-.5,0-.7,0-1.3-.3-1.8-.7-.5-.5-.7-1.1-.7-1.7,0-.4,0-.7.3-1.1l6.6-13.3c.3-.6.4-1.2.4-1.9s-.2-1.4-.5-2l-7.2-13c-.2-.4-.3-.8-.3-1.2,0-.6.3-1.3.7-1.7.4-.5,1.1-.8,1.8-.8.1,0,.3,0,.4,0l14.7,2.2c.2,0,.4,0,.6,0,1.2,0,2.3-.5,3.1-1.3l10.2-10.8c.5-.5,1.2-.8,1.8-.8.6,0,1.1.2,1.6.6.4.4.8.9.9,1.5h.8c0-.1.8-.3.8-.3-.2-1.1-.8-2-1.5-2.6-.8-.6-1.7-.9-2.7-.9-1.1,0-2.2.4-3,1.3l-10.2,10.8c-.5.5-1.1.8-1.8.8s-.2,0-.4,0l-14.7-2.2c-.2,0-.4,0-.6,0-1.2,0-2.3.5-3,1.3-.7.8-1.2,1.8-1.2,2.9,0,.7.2,1.4.5,2l7.2,13c.2.4.3.8.3,1.2s0,.8-.3,1.1l-6.6,13.3c-.3.6-.4,1.2-.4,1.9,0,1.1.5,2.2,1.2,2.9.7.8,1.8,1.3,3,1.3s.5,0,.8,0l14.6-2.8c.2,0,.3,0,.5,0,.6,0,1.3.2,1.7.7l10.6,10.4c.8.8,1.9,1.2,2.9,1.2,1,0,2-.4,2.7-1,.8-.6,1.3-1.6,1.5-2.7l1.9-14.8c.1-.8.6-1.5,1.3-1.9l13.2-6.9c.7-.4,1.3-1,1.7-1.6.4-.7.6-1.4.6-2.1,0-.8-.2-1.5-.6-2.2-.4-.7-1-1.2-1.8-1.6l-13.5-6.3c-.7-.3-1.3-1-1.4-1.8l-2.5-14.7h-.8Z"/>
  <path class="cls-9" d="M341.2,340.5c-.3,1-.8,1.7-1.1,1.6-.3,0-.3-1,0-1.9.3-1,.8-1.7,1.1-1.6.3,0,.3,1,0,1.9"/>
  <path class="cls-5" d="M341.2,340.5l-.8-.2c-.1.4-.3.7-.4.9,0,0-.1.2-.1.2l.2.2v-.2c-.1,0-.2,0-.2,0l.2.2v-.2c-.1,0,.1.5.1.5v-.6c-.1,0-.2,0-.2,0l.2.5v-.6.6l.2-.6h-.2s0,.6,0,.6l.2-.6-.2.8.2-.8-.2.6.5-.4c0,0-.2-.2-.3-.2l-.2.6.5-.4-.3.3.4-.2h0c0-.1-.3.2-.3.2l.4-.2h-.1s.1,0,.1,0h0s-.1,0-.1,0h.1s0-.1,0-.2c0-.2,0-.6.2-1,.1-.4.3-.7.4-.9,0,0,.1-.2.1-.2l-.2-.2v.2c.1,0,.2,0,.2,0l-.2-.2v.2c.1,0-.1-.5-.1-.5v.6c.1,0,.2,0,.2,0l-.2-.5v.6-.7l-.2.6h.2s0-.6,0-.6l-.2.6h0s.2-.6.2-.6l-.5.4c0,0,.2.2.3.2l.2-.6-.5.4.3-.3-.4.2h0c0,.1.3-.2.3-.2l-.4.2h.1c0,0-.1,0-.1,0h0s.1,0,.1,0h-.1s0,.1,0,.2c0,.2,0,.6-.2,1l.8.2.8.2c.2-.5.2-1,.2-1.5,0-.3,0-.5-.1-.8,0-.1-.1-.3-.2-.4-.1-.1-.3-.3-.5-.4h0c-.1,0-.2,0-.3,0-.2,0-.4,0-.5.1-.2.1-.4.3-.5.4-.4.4-.7,1-.9,1.7-.2.5-.2,1-.2,1.5,0,.3,0,.5.1.8,0,.1.1.3.2.4.1.1.3.3.5.3h0c0,0,.2,0,.3,0,.2,0,.4,0,.5-.1.2-.1.4-.3.5-.4.4-.4.7-1,.9-1.7l-.8-.2Z"/>
  <path class="cls-9" d="M348.4,342.6c-.3,1-.8,1.7-1.1,1.6-.3,0-.3-1,0-1.9.3-1,.8-1.7,1.1-1.6.3,0,.3,1,0,1.9"/>
  <path class="cls-5" d="M348.4,342.6l-.8-.2c-.1.4-.3.7-.4.9,0,0-.1.2-.1.2l.2.2v-.2c-.1,0-.2,0-.2,0l.2.2v-.2c-.1,0,.1.5.1.5v-.6c-.1,0-.2,0-.2,0l.2.5v-.6.7l.2-.6h-.2s0,.6,0,.6l.2-.6h0s-.2.6-.2.6l.5-.4c0,0-.2-.2-.3-.2l-.2.6.5-.4-.3.3.4-.2h0c0-.1-.3.2-.3.2l.4-.2h-.1s.1,0,.1,0h0s-.1,0-.1,0h.1s0-.1,0-.2c0-.2,0-.6.2-1,.1-.4.3-.7.4-.9,0,0,.1-.2.1-.2l-.2-.2v.2c.1,0,.2,0,.2,0l-.2-.2v.2c.1,0-.1-.5-.1-.5v.6c.1,0,.2,0,.2,0l-.2-.5v.6-.7l-.2.6h.2s0-.6,0-.6l-.2.6h0s.2-.6.2-.6l-.5.4c0,0,.2.2.3.2l.2-.6-.5.4.3-.3-.4.2h0c0,.1.3-.2.3-.2l-.4.2h.1c0,0-.1,0-.1,0h0s.1,0,.1,0h-.1s0,.1,0,.2c0,.2,0,.6-.2,1l.8.2.8.2c.2-.5.2-1,.2-1.5,0-.3,0-.5-.1-.8,0-.1-.1-.3-.2-.4-.1-.1-.3-.3-.5-.4l-.2.8.3-.8c-.1,0-.2,0-.3,0-.2,0-.4,0-.5.1-.2.1-.4.3-.5.4-.4.4-.7,1-.9,1.7-.2.5-.2,1-.2,1.5,0,.3,0,.5.1.8,0,.1.1.3.2.4.1.1.3.3.5.4h0c0,0,.2,0,.3,0,.2,0,.4,0,.5-.1.2-.1.4-.3.5-.4.4-.4.7-1,.9-1.7l-.8-.2Z"/>
  <path class="cls-11" d="M348.1,348.8c-1.5,3.1-4.5,4.9-7.4,4-2.8-.8-4.4-4-3.9-7.4l11.3,3.4Z"/>
  <path class="cls-5" d="M348.1,348.8l-.8-.4c-.5,1.2-1.3,2.1-2.2,2.7-.9.6-1.9,1-2.9,1-.4,0-.8,0-1.2-.2-1-.3-1.8-1-2.4-1.9-.6-.9-.9-2.1-.9-3.4s0-.7,0-1.1h-.9c0-.1-.2.7-.2.7l11.3,3.4.2-.8-.8-.4.8.4.2-.8-11.3-3.4c-.2,0-.5,0-.7,0-.2.1-.4.4-.4.6,0,.5,0,.9,0,1.3,0,1.6.4,3.1,1.2,4.4.8,1.2,2,2.2,3.4,2.6.6.2,1.1.2,1.7.2,1.4,0,2.7-.5,3.9-1.3,1.2-.8,2.1-2,2.8-3.4.1-.2.1-.5,0-.7-.1-.2-.3-.4-.5-.5l-.2.8Z"/>
  <polygon class="cls-2" points="160.1 399.3 104.3 411.3 97.6 358.9 144.6 348.8 160.1 399.3"/>
  <polygon class="cls-11" points="97.6 358.9 100.4 380.6 151.1 369.7 144.6 348.8 97.6 358.9"/>
  <path class="cls-5" d="M160.1,399.3l-.2-.8-55,11.8-6.4-50.7,45.4-9.8,15.3,49.7.8-.3-.2-.8.2.8.8-.3-15.5-50.5c-.1-.4-.6-.7-1-.6l-47,10.1c-.4,0-.7.5-.7.9l6.6,52.4c0,.2.2.5.4.6.2.1.4.2.7.1l55.9-12c.2,0,.4-.2.6-.4.1-.2.2-.5,0-.7l-.8.3Z"/>
  <path class="cls-11" d="M130.6,345.7l2.3,10.7-3.6.8-2.3-10.7c-.8-3.9-4.7-6.4-8.6-5.6-3.9.8-6.4,4.7-5.6,8.6l2.3,10.7-3.6.8-2.3-10.7c-1.3-5.9,2.5-11.7,8.4-13,3-.6,5.9,0,8.2,1.5,2.4,1.5,4.1,3.9,4.8,6.9"/>
  <path class="cls-5" d="M130.6,345.7l-.8.2,2.1,9.9-1.9.4-2.1-9.9c-.8-3.8-4.2-6.4-7.9-6.4-.6,0-1.1,0-1.7.2-3.8.8-6.4,4.2-6.4,7.9s0,1.1.2,1.7l2.1,9.9-1.9.4-2.1-9.9c-.2-.7-.2-1.4-.2-2.1,0-4.6,3.2-8.8,8-9.8.7-.2,1.4-.2,2.1-.2,2,0,3.9.6,5.5,1.6h0c2.2,1.4,3.8,3.6,4.4,6.3l.8-.2.8-.2c-.7-3.2-2.6-5.8-5.1-7.4h0c-1.9-1.2-4.1-1.9-6.4-1.9s-1.7,0-2.5.3c-5.5,1.2-9.3,6.1-9.3,11.5,0,.8,0,1.7.3,2.5l2.3,10.7c0,.2.2.4.4.5s.4.2.6.1l3.6-.8c.2,0,.4-.2.5-.4.1-.2.2-.4.1-.6l-2.3-10.7c0-.5-.1-.9-.1-1.3,0-2.9,2-5.6,5-6.2.5,0,.9-.1,1.3-.1,2.9,0,5.6,2.1,6.2,5l2.3,10.7c0,.2.2.4.4.5.2.1.4.2.6.1l3.6-.8c.2,0,.4-.2.5-.4.1-.2.2-.4.1-.6l-2.3-10.7-.8.2Z"/>
  <path class="cls-5" d="M349.6,253.5c1.2,0,2.1.7,2.1,2.1v15h-4.2v-10.6h-2c-1.2,0-2.2-.6-2.2-1.8s.7-1.6,1.5-1.7c1.4-.2,2.5-.6,2.9-1.8.3-.9,1-1.3,1.9-1.3"/>
  <path class="cls-5" d="M355.7,255.7c0-1.4,1-2.1,2.1-2.1s2.1.7,2.1,2.1v4.9l5-6.1c.8-1,2.2-1.1,3.1-.6,1,.6,1.2,2,.4,3l-4,4.5,5.9,9.3h-4.9l-3.8-6.2-1.7,1.9v4.4h-4.3v-15Z"/>
  <g>
    <path class="cls-11" d="M179.3,111.6c-.8-.1-1.2-.6-1.2-1.3v-2.6c0-.9.4-1.2,1.3-1.2.9,0,1.9.2,3.1.3,1.2,0,2.5.2,3.8.3,1.4,0,2.8.2,4.2.2,1.4,0,2.8.1,4.2.1-.4-.2-.6-.4-.9-.8-.2-.4-.3-.8-.3-1.3v-5.6c-2.3-.2-4.2-.6-5.8-1.2s-2.9-1.4-3.9-2.4c-1-1-1.7-2.2-2.2-3.6-.4-1.4-.7-2.9-.7-4.5s.3-3.6.9-5c.6-1.5,1.5-2.7,2.8-3.7,1.3-1,3-1.8,5.2-2.3,2.1-.5,4.7-.8,7.8-.8s1.3,0,2,0c.7,0,1.4,0,2.2,0,.8,0,1.8,0,2.9.1,1.1,0,2.4.1,3.9.2.8,0,1.2.4,1.2,1.2v2.8c0,.8-.4,1.2-1.2,1.2-1.4,0-2.7-.2-3.7-.2-1.1,0-2.1,0-2.9-.1-.9,0-1.6,0-2.4,0-.7,0-1.4,0-2,0-2.1,0-3.9.1-5.3.4-1.4.2-2.5.6-3.4,1.2-.8.5-1.4,1.2-1.8,2-.4.8-.5,1.8-.5,3s.1,2.1.4,3c.3.8.8,1.5,1.6,2.1.8.5,1.8.9,3,1.2,1.3.3,2.9.4,4.8.4s4,0,6.2-.2c2.2-.2,4.4-.4,6.5-.6.8,0,1.2.3,1.2,1.2l.2,2.9c0,.7-.4,1.1-1.2,1.2-2.1.3-4,.4-5.7.6-1.7.1-3.2.2-4.6.3v6c0,1,.6,1.5,1.7,1.5s2.1,0,3.2,0c1.1,0,2.2,0,3.3-.1,1.1,0,2.1-.1,3.1-.2,1,0,1.9-.2,2.7-.3.9,0,1.3.3,1.3,1.2v2.6c0,.7-.4,1.2-1.2,1.3-.8.1-1.8.2-3,.3-1.2,0-2.5.2-4,.3-1.5,0-3.1.1-4.8.2-1.7,0-3.5,0-5.3,0-7.6,0-13.2-.3-16.8-.9Z"/>
    <path class="cls-11" d="M219.8,82c-.8,0-1.2-.4-1.2-1.2v-2.9c0-.8.4-1.2,1.2-1.2h21.4c.8,0,1.2.4,1.2,1.2v2.9c0,.8-.4,1.2-1.2,1.2h-2.4l-.9,22.2c.7,0,1.4-.1,2.1-.2.6,0,1.2-.1,1.8-.2.8,0,1.2.3,1.2,1.2v2.9c0,.4,0,.7-.3.9-.2.2-.5.3-.9.3-.5,0-1.2.1-2,.2-.8,0-1.7.1-2.7.2-1,0-2.1,0-3.2.1-1.1,0-2.3,0-3.4,0-2.3,0-4.4,0-6.4-.2-2-.1-3.6-.2-4.9-.4-.4,0-.7-.2-.9-.3-.2-.2-.3-.4-.3-.9v-2.9c0-.9.4-1.3,1.2-1.2.6,0,1.2.1,1.8.2.6,0,1.3.1,2.1.2l-.9-22.2h-2.4ZM228.4,104.4h4.1l.9-22.4h-5.8l.9,22.4ZM251.8,114.9c0,.9-.4,1.3-1.2,1.3h-3c-.8,0-1.2-.4-1.2-1.3v-39.9c0-.9.4-1.3,1.2-1.3h3c.8,0,1.2.4,1.2,1.3v16.5c.4-.6,1-1,2-1h2.8c.8,0,1.2.4,1.2,1.2v2.9c0,.8-.4,1.2-1.2,1.2h-3.1c-1.1,0-1.7.5-1.7,1.5v17.6Z"/>
    <path class="cls-11" d="M266.5,95.3c-1.5,0-2.7-.4-3.6-1.1-.9-.7-1.3-1.8-1.3-3.1v-14c0-1.5.7-2.3,2.2-2.3h12.1c2.2,0,3.9.6,5,1.8,1.2,1.2,1.7,2.9,1.7,5.2s-.4,3.6-1.3,5.1c-.8,1.5-2,2.7-3.4,3.4h3.2c.8,0,1.2.4,1.2,1.2v2.6c0,.8-.4,1.2-1.2,1.2h-14.6ZM264.2,107.8c0-6.1,5.2-9.1,15.7-9.1s15.7,3,15.7,9.1-5.2,9.1-15.7,9.1-15.7-3-15.7-9.1ZM271.9,90.2c1.5,0,2.8-.6,3.7-1.7s1.4-2.6,1.4-4.4c0-2.9-1.4-4.4-4.1-4.4h-4.8c-.8,0-1.2.4-1.2,1.2v7.7c0,.5.2.9.5,1.1.3.3.8.4,1.4.4h3ZM269.7,107.8c0,.6.2,1.2.5,1.7.4.5.9.9,1.7,1.3.8.4,1.8.6,3.1.8s2.9.3,4.8.3,3.5,0,4.8-.3c1.3-.2,2.3-.5,3.1-.8.8-.4,1.4-.8,1.7-1.3.4-.5.5-1.1.5-1.7s-.2-1.2-.5-1.7c-.4-.5-.9-.9-1.7-1.3-.8-.4-1.8-.6-3.1-.8-1.3-.2-2.9-.3-4.8-.3s-3.5,0-4.8.3-2.3.5-3.1.8c-.8.4-1.4.8-1.7,1.3-.4.5-.5,1.1-.5,1.7ZM294.6,95.2c0,.9-.4,1.3-1.2,1.3h-3c-.8,0-1.2-.4-1.2-1.3v-20.3c0-.9.4-1.3,1.2-1.3h3c.8,0,1.2.4,1.2,1.3v20.3Z"/>
  </g>
</svg>