<?xml version="1.0" encoding="UTF-8"?>
<svg id="_레이어_1" data-name="레이어 1" xmlns="http://www.w3.org/2000/svg" xmlns:xlink="http://www.w3.org/1999/xlink" version="1.1" viewBox="0 0 980 700">
  <defs>
    <style>
      .cls-1 {
        fill: #f5f5f5;
      }

      .cls-1, .cls-2, .cls-3, .cls-4, .cls-5, .cls-6, .cls-7, .cls-8, .cls-9, .cls-10, .cls-11, .cls-12, .cls-13, .cls-14, .cls-15, .cls-16, .cls-17, .cls-18, .cls-19, .cls-20, .cls-21, .cls-22, .cls-23, .cls-24, .cls-25, .cls-26, .cls-27, .cls-28, .cls-29, .cls-30, .cls-31, .cls-32, .cls-33, .cls-34, .cls-35, .cls-36, .cls-37, .cls-38, .cls-39, .cls-40, .cls-41, .cls-42, .cls-43, .cls-44 {
        stroke-width: 0px;
      }

      .cls-2 {
        fill: #784a30;
      }

      .cls-3 {
        fill: #ffa878;
      }

      .cls-4 {
        fill: #b8d9de;
      }

      .cls-45 {
        clip-path: url(#clippath);
      }

      .cls-5, .cls-46, .cls-47, .cls-48 {
        fill: none;
      }

      .cls-6 {
        fill: #59abe3;
      }

      .cls-7 {
        fill: #f0877a;
      }

      .cls-8 {
        fill: #008a29;
      }

      .cls-9 {
        fill: #8ce5f5;
      }

      .cls-10 {
        fill: #ffffa6;
      }

      .cls-11 {
        fill: #614d2e;
      }

      .cls-12 {
        fill: #fcf7cc;
      }

      .cls-13 {
        fill: #d1a15c;
      }

      .cls-14 {
        fill: #218a66;
      }

      .cls-15 {
        fill: #fd6e4a;
      }

      .cls-16 {
        fill: #1a1a1a;
      }

      .cls-49 {
        clip-path: url(#clippath-1);
      }

      .cls-50 {
        clip-path: url(#clippath-4);
      }

      .cls-51 {
        clip-path: url(#clippath-3);
      }

      .cls-52 {
        clip-path: url(#clippath-2);
      }

      .cls-53 {
        clip-path: url(#clippath-7);
      }

      .cls-54 {
        clip-path: url(#clippath-8);
      }

      .cls-55 {
        clip-path: url(#clippath-6);
      }

      .cls-56 {
        clip-path: url(#clippath-5);
      }

      .cls-17 {
        fill: #ffe329;
      }

      .cls-18 {
        fill: #70baf5;
      }

      .cls-19 {
        fill: #000;
      }

      .cls-20 {
        fill: #f5d44f;
      }

      .cls-21 {
        fill: #ffbd1a;
      }

      .cls-22 {
        fill: #40a687;
      }

      .cls-23 {
        fill: #fff2b5;
      }

      .cls-24 {
        fill: #ebc982;
      }

      .cls-25 {
        fill: #424f66;
      }

      .cls-26 {
        fill: #e3c242;
      }

      .cls-46 {
        stroke: #000;
      }

      .cls-27 {
        fill: #424242;
      }

      .cls-47 {
        stroke-width: .7px;
      }

      .cls-47, .cls-48 {
        stroke: #b2afb4;
        stroke-linecap: round;
        stroke-linejoin: round;
      }

      .cls-28 {
        fill: #82c2ba;
      }

      .cls-29 {
        fill: #917357;
      }

      .cls-30 {
        fill: #db6161;
      }

      .cls-31 {
        fill: #a6d98c;
      }

      .cls-32 {
        fill: #a6d6eb;
      }

      .cls-33 {
        fill: #d9d9d9;
      }

      .cls-34 {
        fill: #fffaf0;
      }

      .cls-48 {
        stroke-width: 1.5px;
      }

      .cls-35 {
        fill: #f5d682;
      }

      .cls-36 {
        fill: #ccc;
      }

      .cls-37 {
        fill: #ffc71a;
      }

      .cls-38 {
        fill: #fff;
      }

      .cls-39 {
        fill: #fff2d9;
      }

      .cls-40 {
        fill: #b2ff72;
      }

      .cls-41 {
        fill: #4f8c4f;
      }

      .cls-42 {
        fill: #d14545;
      }

      .cls-43 {
        fill: #f0bd2e;
      }

      .cls-44 {
        fill: #a6c2db;
      }
    </style>
    <clipPath id="clippath">
      <rect class="cls-5" x="0" y="0" width="980" height="700"/>
    </clipPath>
    <clipPath id="clippath-1">
      <rect class="cls-5" x="0" y="0" width="980" height="700"/>
    </clipPath>
    <clipPath id="clippath-2">
      <rect class="cls-5" x="0" y="0" width="980" height="700"/>
    </clipPath>
    <clipPath id="clippath-3">
      <rect class="cls-5" x="0" y="0" width="980" height="700"/>
    </clipPath>
    <clipPath id="clippath-4">
      <rect class="cls-5" x="0" y="0" width="980" height="700"/>
    </clipPath>
    <clipPath id="clippath-5">
      <rect class="cls-5" x="0" y="0" width="980" height="700"/>
    </clipPath>
    <clipPath id="clippath-6">
      <rect class="cls-5" x="0" y="0" width="980" height="700"/>
    </clipPath>
    <clipPath id="clippath-7">
      <rect class="cls-5" x="0" y="0" width="980" height="700"/>
    </clipPath>
    <clipPath id="clippath-8">
      <rect class="cls-5" x="0" y="0" width="980" height="700"/>
    </clipPath>
  </defs>
  <rect class="cls-5" x="-459" y="-1398.5" width="1920" height="14608"/>
  <rect class="cls-5" x="-459" y="-1398.5" width="1920" height="14608"/>
  <rect class="cls-5" x="-459" y="-1398.5" width="1920" height="14608"/>
  <rect class="cls-5" x="-459" y="-1398.5" width="1920" height="14608"/>
  <rect class="cls-5" x="-459" y="-1398.5" width="1920" height="14608"/>
  <rect class="cls-5" x="-459" y="-1398.5" width="1920" height="14608"/>
  <rect class="cls-5" x="-459" y="-1398.5" width="1920" height="14608"/>
  <rect class="cls-5" x="-459" y="-1398.5" width="1920" height="14608"/>
  <rect class="cls-5" x="-459" y="-1398.5" width="1920" height="14608"/>
  <rect class="cls-5" x="-459" y="-1398.5" width="1920" height="14608"/>
  <rect class="cls-5" x="-459" y="-1398.5" width="1920" height="14608"/>
  <rect class="cls-5" x="-459" y="-1398.5" width="1920" height="14608"/>
  <rect class="cls-5" x="-469.4" y="-9489.1" width="1920" height="14608"/>
  <rect class="cls-5" x="-469.4" y="-9489.1" width="1920" height="14608"/>
  <rect class="cls-5" x="-469.4" y="-9489.1" width="1920" height="14608"/>
  <rect class="cls-5" x="-469.4" y="-9489.1" width="1920" height="14608"/>
  <rect class="cls-5" x="-469.4" y="-9489.1" width="1920" height="14608"/>
  <rect class="cls-5" x="-469.4" y="-9489.1" width="1920" height="14608"/>
  <rect class="cls-5" x="-469.4" y="-9489.1" width="1920" height="14608"/>
  <rect class="cls-5" x="-469.4" y="-9489.1" width="1920" height="14608"/>
  <rect class="cls-5" x="-469.4" y="-9489.1" width="1920" height="14608"/>
  <rect class="cls-5" x="-469.4" y="-9489.1" width="1920" height="14608"/>
  <g>
    <rect class="cls-12" x="0" y="0" width="980" height="700"/>
    <polygon class="cls-12" points="0 0 0 58.2 2.9 60.5 1 72.4 0 73.8 0 153.1 4.9 150.8 11.3 149.6 17.9 154.7 21.2 158.8 25.4 158.4 29.1 153.9 35.7 153.6 41.4 157.3 46 156.1 53.3 156.1 61.4 160.1 70.6 161.4 72.3 166.6 77.6 170.1 85.6 172.6 93.3 177.2 95.8 183 96.7 190.7 102.9 198.2 103 208 102 217.8 100.2 222.7 99.9 226.7 102.6 229 106.7 228.7 112.8 227.7 119.4 230.7 120.1 234.3 130 253.4 131.1 261.1 134.6 266.7 142.9 264.3 146.3 267.9 147.2 272.7 145.3 279 141.9 282 140.4 289 144.1 294.4 143.8 304.8 140.5 312.4 140.4 325.1 141.7 329.8 142.4 333.8 144.9 337.5 161.6 338.8 165.6 345.6 169.9 340.8 181.2 347.9 181.2 355.4 184.8 363.5 188.7 374.6 193.8 382.8 197.7 380.2 209.1 380.3 212.9 384.9 220 383.4 217 378.6 217.1 374.9 213.7 370.8 215.4 367.9 218.5 364.5 218.9 357.6 216.4 353.4 217.3 343.3 221.3 339 227.2 337.2 234.1 326.2 239.1 312 247.8 318.5 267.2 326.2 276.2 325.9 281.8 330.3 287 334.5 290 335 297.9 330.6 306.7 321.1 311.3 320.4 314.5 322 315.7 336.1 318.9 342.1 320.9 346.9 318.9 351.8 312.3 354.2 312.6 361.4 330 379.8 332.1 387.5 357.1 384.2 362.5 388.5 359.6 395.4 352.1 408.3 351.7 414.5 355.2 418.2 358.5 422.8 370.3 426 377.9 423.4 389.9 427.7 399.6 433.6 405 418.9 398.1 409.9 393.3 394.6 392.9 387.7 386.8 381.9 384.8 365.6 372.9 363.4 382.5 349 371 336.6 356.3 339.7 348.3 326.9 340.2 317 343.7 309.5 335 305.4 332.7 299.9 335.2 289.4 340.8 278.9 343.5 258.9 344.3 246.9 341.2 231.9 343.3 225 354.3 203.4 357.3 186 347.7 180.3 347.4 175.1 331.2 154.6 320.8 148.4 314.4 143.2 309.5 137.2 311.5 131.8 313.8 130.4 319.3 129.6 323.5 126.2 321.3 114.1 308.4 100.8 308.2 92.2 303 81.6 300.9 69.8 300.9 66.1 297.7 61.4 291.6 61.4 285.6 60.2 280.3 54.6 274.6 47.1 276.1 37.4 273.5 23.4 266.5 19.5 260.9 11.5 265.9 7 268.5 0 0 0"/>
    <g class="cls-45">
      <polygon class="cls-47" points="297.7 61.4 291.6 61.4 285.6 60.2 280.3 54.6 274.6 47.1 276.1 37.4 273.5 23.4 266.5 19.5 260.9 11.5 265.9 7 269 -1.4 272.9 -5.6 275.5 -8.2 276.4 -15 283.1 -21.2 291 -26.3 294.9 -31.8 289.2 -42.5 282.9 -43.7 279.2 -46.3 274.1 -53.3 274.4 -62.5 255 -69 248.9 -67.3 243.3 -90.7 240.7 -99.1 239 -108.4 240.2 -123.3 239 -132.4 234.6 -143.1 224.8 -143.9 218.9 -148.5 212.1 -153.3 203.6 -162.3 197.4 -165.1 187.9 -170.4 173.6 -169.6 166 -168.7 164.4 -172.7 155.7 -174.9 145.8 -184.5 143.9 -185 131 -180 125.2 -185.1 109.1 -177.2 103.5 -179.1 98.8 -176.9 93.1 -170.2 81.5 -158.5 64.4 -155.2 53 -151.2 36.5 -137 33.1 -125.8 28.9 -120.6 10.5 -122.6 -13 -98.4 -25.6 -90.3 -38.8 -66 -38.1 -61.4 -34.1 -55.6 -28.4 -52.1 -21.4 -49.4 -21.4 -37.2 -13 -15 -7.1 -.4 -9.6 2.9 -12.5 19.2 -10.5 37.3 -3.2 55.6 2.9 60.5 1 72.4 -6.9 83.1 -7.3 97.1 -4.2 107.4 -10.2 111.1 -13.6 122.5 -14.7 124.4 -20.4 128.3 -22.5 130.8 -24.7 143.4 -21.4 148.3 -16.4 147.7 -7.4 150.2 -2.2 154.1 4.9 150.8 11.3 149.6 17.9 154.7 21.2 158.8 25.4 158.4 29.1 153.9 35.7 153.6 41.4 157.3 46 156.1 53.3 156.1 61.4 160.1 70.6 161.4 72.3 166.6 77.6 170.1 85.6 172.6 93.3 177.2 95.8 183 96.7 190.7 102.9 198.2 103 208 102 217.8 100.2 222.7 99.9 226.7 102.6 229 106.7 228.7 112.8 227.7 119.4 230.7 120.1 234.3 130 253.4 131.1 261.1 134.6 266.7 142.9 264.3 146.3 267.9 147.2 272.7 145.3 279 141.9 282 140.4 289 144.1 294.4 143.8 304.8 140.5 312.4 140.4 325.1 141.7 329.8 142.4 333.8 144.9 337.5 161.6 338.8 165.6 345.6 169.9 340.8 181.2 347.9 181.2 355.4 184.8 363.5 188.7 374.6 193.8 382.8 197.7 380.2 209.1 380.3 212.9 384.9 220 383.4 217 378.6 217.1 374.9 213.7 370.8 215.4 367.9 218.5 364.5 218.9 357.6 216.4 353.4 217.3 343.3 221.3 339 227.2 337.2 234.1 326.2 239.1 312 247.8 318.5 267.2 326.2 276.2 325.9 281.8 330.3 287 334.5 290 335 297.9 330.6 306.7 321.1 311.3 320.4 314.5 322 315.7 336.1 318.9 342.1 320.9 346.9 318.9 351.8 312.3 354.2 312.6 361.4 330 379.8 332.1 387.5 357.1 384.2 362.5 388.5 359.6 395.4 352.1 408.3 351.7 414.5 355.2 418.2 358.5 422.8 370.3 426 377.9 423.4 389.9 427.7 399.6 433.6 405 418.9 398.1 409.9 393.3 394.6 392.9 387.7 386.8 381.9 384.8 365.6 372.9 363.4 382.5 349 371 336.6 356.3 339.7 348.3 326.9 340.2 317 343.7 309.5 335 305.4 332.7 299.9 335.2 289.4 340.8 278.9 343.5 258.9 344.3 246.9 341.2 231.9 343.3 225 354.3 203.4 357.3 186 347.7 180.3 347.4 175.1 331.2 154.6 320.8 148.4 314.4 143.2 309.5 137.2 311.5 131.8 313.8 130.4 319.3 129.6 323.5 126.2 321.3 114.1 308.4 100.8 308.2 92.2 303 81.6 300.9 69.8 300.9 66.1 297.7 61.4"/>
    </g>
    <polygon class="cls-12" points="491.9 0 487.6 2.5 466.2 15.5 444.9 22 430.1 24.1 426.8 31.7 423.6 34.2 402.5 42.6 394.2 47.1 388.6 40 371.4 41.7 361.6 47.6 351.2 42.6 339.6 49.1 323.3 57 316.7 59.5 307.1 54.2 297.3 61.3 300.5 66 300.5 69.7 302.5 81.5 307.8 92.2 308 100.8 320.9 114 323.1 126.2 318.8 129.5 313.4 130.4 311 131.7 309.1 137.1 313.9 143.2 320.4 148.3 330.8 154.6 347 175 347.3 180.2 356.8 186 353.9 203.3 342.9 225 340.7 231.8 343.9 246.8 343.1 258.8 340.4 278.8 334.8 289.3 332.3 299.8 334.6 305.3 343.3 309.4 339.8 316.9 347.9 326.9 355.8 339.6 370.6 336.5 382.1 348.9 372.5 363.3 384.4 365.5 386.4 381.8 392.5 387.6 392.9 394.5 397.7 409.8 404.6 418.8 399.1 433.5 407.6 441.8 415.8 456 426.8 465.7 437.5 472.4 446.7 471.4 458.9 486 466.4 484.7 472.9 487.4 477.9 492.3 486 493.1 490.6 497.7 497.7 500.1 497.3 492.8 509.1 478.5 520.9 476.6 537.6 478.8 542.5 464.5 550.9 467.6 560.1 460.4 572.3 455.7 582.7 455.2 594 442.1 604.4 435.6 618.7 433.5 621.7 425.8 626 411.5 627.1 407.6 630.9 406.4 643.8 412.6 649.4 409.2 651.1 397.6 651.4 389.7 660.4 388.7 665.6 386.9 672.4 389 672.7 384.5 676.5 375.8 677.8 370.8 677.2 364.2 664 360.2 665.9 347.5 659.9 343.4 665 336.1 665.5 330.8 662 325.7 662.4 317.7 658.8 311.9 658.2 306.5 640.6 300.2 637.5 301.5 631 302.1 629.7 297.6 625.4 296.9 621.9 302.3 618.2 297.1 618 287.9 610 279.9 604.3 270.9 609.7 264.4 614.8 269.9 623.6 272.4 622 259.2 623.4 255.9 635.2 248.6 635.9 244.6 632.7 240.5 632.3 236.5 629.7 233.8 621.7 225.3 613.6 221.8 608.6 230.4 602.6 231.7 603.6 225.8 599.2 215.3 599.6 211.3 598.6 204.7 589.2 202 589.4 195.5 590.6 189.7 595.8 185.9 601.7 184.8 612.6 185.7 612.9 183.2 620.9 181.7 631.3 181.6 638.9 183.4 648.2 182.4 650 180.7 664.4 172.6 676.1 173.3 680.6 172.4 684 164.6 684.8 162.4 681.4 151.9 687.2 142.1 687.8 114 683.7 109.8 684.4 103.9 685.6 95.6 693.3 90.9 697.6 84 699.4 75.2 690.3 74.3 683.3 68.4 680.3 68.6 673 63.7 681.8 56.3 680 38 687.2 32.1 690 26.5 691.5 20.3 691.2 15.5 689.7 13.7 686.6 10.4 682.6 10.4 679 3.4 676.7 0 491.9 0"/>
    <g class="cls-49">
      <polygon class="cls-47" points="399.1 433.5 407.6 441.8 415.8 456 426.8 465.7 437.5 472.4 446.7 471.4 458.9 486 466.4 484.7 472.9 487.4 477.9 492.3 486 493.1 490.6 497.7 497.7 500.1 497.3 492.8 509.1 478.5 520.9 476.6 537.6 478.8 542.5 464.5 550.9 467.6 560.1 460.4 572.3 455.7 582.7 455.2 594 442.1 604.4 435.6 618.7 433.5 621.7 425.8 626 411.5 627.1 407.6 630.9 406.4 643.8 412.6 649.4 409.2 651.1 397.6 651.4 389.7 660.4 388.7 665.6 386.9 672.4 389 672.7 384.5 676.5 375.8 677.8 370.8 677.2 364.2 664 360.2 665.9 347.5 659.9 343.4 665 336.1 665.5 330.8 662 325.7 662.4 317.7 658.8 311.9 658.2 306.5 640.6 300.2 637.5 301.5 631 302.1 629.7 297.6 625.4 296.9 621.9 302.3 618.2 297.1 618 287.9 610 279.9 604.3 270.9 609.7 264.4 614.8 269.9 623.6 272.4 622 259.2 623.4 255.9 635.2 248.6 635.9 244.6 632.7 240.5 632.3 236.5 629.7 233.8 621.7 225.3 613.6 221.8 608.6 230.4 602.6 231.7 603.6 225.8 599.2 215.3 599.6 211.3 598.6 204.7 589.2 202 589.4 195.5 590.6 189.7 595.8 185.9 601.7 184.8 612.6 185.7 612.9 183.2 620.9 181.7 631.3 181.6 638.9 183.4 648.2 182.4 650 180.7 664.4 172.6 676.1 173.3 680.6 172.4 684 164.6 684.8 162.4 681.4 151.9 687.2 142.1 687.8 114 683.7 109.8 684.4 103.9 685.6 95.6 693.3 90.9 697.6 84 699.4 75.2 690.3 74.3 683.3 68.4 680.3 68.6 673 63.7 681.8 56.3 680 38 687.2 32.1 690 26.6 691.5 20.3 691.2 15.5 689.7 13.7 686.6 10.4 682.6 10.4 679 3.4 673.5 -4.8 670.2 -13.6 669.4 -18.8 655.6 -30.9 646.4 -24.7 639.9 -31.9 628.7 -36.9 618.9 -35 611.1 -49 607.6 -50.6 597.9 -56.5 590.7 -60.2 585.6 -68 585.2 -73.6 583 -79.2 579.3 -82.3 572.3 -83 560.3 -83.7 555.2 -91.4 550.4 -98.1 536.9 -99 533.3 -90.6 523.3 -75.8 531.3 -69.4 510.9 -51.6 507.5 -46.3 505.8 -30.6 499.9 -14.9 500.7 -5.1 487.6 2.5 466.2 15.5 444.9 22 430.1 24.1 426.8 31.7 423.6 34.2 402.5 42.6 394.2 47.1 388.6 40 371.4 41.7 361.6 47.6 351.2 42.6 339.6 49.1 323.3 57 316.7 59.5 307.1 54.2 297.3 61.3 300.5 66 300.5 69.7 302.5 81.5 307.8 92.2 308 100.8 320.9 114 323.1 126.2 318.8 129.5 313.4 130.4 311 131.7 309.1 137.1 313.9 143.2 320.4 148.3 330.8 154.6 347 175 347.3 180.2 356.8 186 353.9 203.3 342.9 225 340.7 231.8 343.9 246.8 343.1 258.8 340.4 278.8 334.8 289.3 332.3 299.8 334.6 305.3 343.3 309.4 339.8 316.9 347.9 326.9 355.8 339.6 370.6 336.5 382.1 348.9 372.5 363.3 384.4 365.5 386.4 381.8 392.5 387.6 392.9 394.5 397.7 409.8 404.6 418.8 399.1 433.5"/>
    </g>
    <polygon class="cls-12" points="417.3 468.5 416.2 480.1 418.4 484.6 426 493.2 426 502.7 415.4 521.1 417.6 531.6 413.3 554.8 412 559.6 419.4 569.1 421.3 579 417.1 595.7 425.7 601.2 435.6 617.2 424.9 630.1 439.6 646 428.7 650.9 425.7 654.1 425.2 659.6 432.4 663.1 435.6 670.5 427.8 679.4 429.9 691.6 414.3 699.2 413.4 700 900.6 700 889.2 693.4 880.8 677.4 871.2 655.3 856.2 641.2 853.6 640.3 839.9 641.8 829.9 644.2 818.7 635.2 813.5 635.7 809.1 639.9 797.9 639.9 795.3 641.6 778.5 644.6 741.3 646.3 729.7 645 713.8 644.5 706.6 646.8 690.7 654.2 682.9 654.2 672.1 648 660.3 639.3 656.3 635.5 655.6 629.1 644.3 629.1 643.7 621.6 639.9 619.3 636.6 622.8 635.1 635.2 629.3 644.5 623.8 641.1 599.8 641.8 599 639.4 599.2 631.8 603.8 624.6 601.8 614.1 608.2 605 607.8 596.7 606.8 587.6 600.9 577.6 594 572.2 593.5 563.7 584.7 560.9 573.8 560 563.1 564 550.8 567 546 562.8 542.7 548.4 535.6 550.4 524.5 539.3 513.7 546.7 502.3 549.8 497.7 552.4 493.1 556.4 489.5 557 485.1 555.3 482.8 550.2 482.3 544.6 487.8 538 500.2 523.8 499 519.5 494.9 519.3 494.7 506.3 497.5 499.6 490.5 497.2 485.9 492.5 477.8 491.7 472.7 486.9 466.3 484.1 458.7 485.5 446.5 470.9 437.3 471.8 426.7 465.2 417.3 468.5"/>
    <g class="cls-52">
      <polygon class="cls-47" points="901.6 738.3 907.3 734 910.3 727.4 903 701.4 889.2 693.4 880.8 677.4 871.2 655.3 856.2 641.2 853.6 640.3 839.9 641.8 829.9 644.2 818.7 635.2 813.5 635.7 809.1 639.9 797.9 639.9 795.3 641.6 778.5 644.6 741.3 646.3 729.7 645 713.8 644.5 706.6 646.8 690.7 654.2 682.9 654.2 672.1 648 660.3 639.3 656.3 635.5 655.6 629.1 644.3 629.1 643.7 621.6 639.9 619.3 636.6 622.8 635.1 635.2 629.3 644.5 623.8 641.1 599.8 641.8 599 639.4 599.2 631.8 603.8 624.6 601.8 614.1 608.2 605 607.8 596.7 606.8 587.6 600.9 577.6 594 572.2 593.5 563.7 584.7 560.9 573.8 560 563.1 564 550.8 567 546 562.8 542.7 548.4 535.6 550.4 524.5 539.3 513.7 546.7 502.3 549.8 497.7 552.4 493.1 556.4 489.5 557 485.1 555.3 482.8 550.2 482.3 544.6 487.8 538 500.2 523.7 499 519.5 494.9 519.3 494.7 506.3 497.5 499.6 490.5 497.2 485.9 492.5 477.8 491.7 472.7 486.9 466.3 484.1 458.7 485.5 446.5 470.9 437.3 471.8 426.7 465.2 417.3 468.5 416.2 480.1 418.4 484.6 426 493.2 426 502.7 415.4 521.1 417.6 531.6 413.3 554.8 412 559.6 419.4 569.1 421.3 579 417.1 595.7 425.7 601.2 435.6 617.2 424.9 630.1 439.6 646 428.7 650.9 425.7 654.1 425.2 659.6 432.4 663.1 435.6 670.5 427.8 679.4 429.9 691.6 414.3 699.2 408.6 704.1 403.8 709.7 398.4 711.1 397.6 723.7 403.1 729.1 406.3 742.1 413.6 743.9 420.3 744.4 424.8 766.3 438.1 766.8 439 760.1 444.5 752.7 454.1 753.8 465.4 766.4 466.6 772.8 462.3 782.4 462.5 792.9 463.1 800.6 472.3 806.9 472.5 826 475.5 839.4 482.9 847.8 498.3 861.2 510.8 866.3 515.9 874.6 520.4 882.9 544.5 890.9 555.4 889.8 566.5 867.1 573.6 850.3 579.4 847.5 590.4 844.6 597.1 844.2 610.9 850 607.8 855.8 611.9 860.1 620.4 858.9 624.8 856.6 637.7 856.3 640 836.4 645.1 827.3 650.7 826.3 661.3 827.6 661.5 829.9 668.9 829.9 676.9 837.4 680 841.2 684.3 846.6 687.5 852.2 702.4 848.4 694.2 838.6 694.2 828 683.9 823.4 683.9 816.8 686.4 813.4 682.2 807.4 684.2 801.5 684.8 795.6 690.4 786.8 694.4 785.9 697.5 786.9 702.6 781.4 711.4 780.8 728.4 764.2 740.2 757.3 741.8 747.7 747.6 740.2 751.8 738.3 752.1 731.7 760.9 721.6 763.8 724 785.4 713 798.8 712.6 805.5 716.2 816.7 718.1 818.9 723.5 829.4 728.4 838.5 726.9 864.6 728.8 874.7 726.8 889.5 734.2 894.9 737.9 901.6 738.3"/>
    </g>
    <polygon class="cls-12" points="818.7 635.5 813.5 636 809.1 640.2 798 640.2 795.3 641.9 778.5 644.9 741.3 646.6 729.7 645.3 713.8 644.8 706.5 647.1 690.7 654.5 682.8 654.5 672.1 648.3 660.3 639.6 656.3 635.8 655.6 629.5 644.3 629.5 643.6 621.9 639.9 619.6 636.5 623.1 635 635.5 629.2 644.8 623.8 641.4 599.8 642.1 598.9 639.8 599.1 632.1 603.8 624.9 601.7 614.4 608.1 605.3 607.7 597 606.8 587.9 600.8 577.9 594 572.5 593.4 564 584.7 561.2 573.8 560.3 563 564.3 550.7 567.3 545.9 563.1 542.7 548.7 535.5 550.7 524.4 539.6 513.7 546.9 502.3 550.1 497.7 552.7 493.1 556.7 489.4 557.3 485 555.6 482.7 550.5 482.2 544.8 487.7 538.3 500.1 524 498.9 519.8 494.8 519.6 494.6 506.5 497.4 499.9 497.1 492.5 508.9 478.2 520.6 476.3 537.4 478.5 542.2 464.2 550.6 467.3 559.8 460.1 572.1 455.4 582.4 454.9 593.8 441.8 604.1 435.3 618.4 433.2 621.5 425.4 625.7 411.2 626.9 407.3 630.7 406.1 643.5 412.2 649.2 408.8 650.8 397.3 651.2 389.4 660.1 388.3 665.3 386.5 672.1 388.7 683.7 394.2 694.9 401.7 700.1 407.9 718.8 406.6 723 400.9 725.1 400.9 728 408.8 732.6 410.3 737.5 417.4 740.9 416.9 742.5 401.4 752.2 395 756.1 392.1 763.7 391.2 771.6 392.2 779.2 397.7 782.2 395.4 784 364.6 779.9 354.7 781.6 350.4 802.5 351.8 808.3 342.3 814.7 342.9 819.3 351.8 822.7 348.8 823.1 343.5 830.2 342.3 832.4 339.3 828.4 333.9 826.6 327.2 828.6 323.4 835 320.9 839.2 325.9 843.5 327.6 845.7 335.3 848.6 344.6 848.1 349.6 849.4 353.9 853 356.3 853.4 359.9 851.3 364.5 853 368.2 856.5 372.5 859.1 378.1 860.1 382.6 861.1 394.5 853.5 401.4 861.9 410.5 864.9 415.2 869.1 421.9 872.5 424.9 870 431.5 868.2 435.4 869.3 445.4 880 456.5 865.6 464.8 858.4 472.5 857.1 493.1 851.4 499.4 839.3 500.3 830.4 507.8 818.1 508.2 819.8 522.2 809.2 525.2 807.9 533 798.1 537.9 806.3 548.7 803.3 565.5 800.8 568.5 807.4 581.7 797.9 592.6 797.1 599.9 814.7 604.4 819.2 614.1 816.2 620.8 818.7 635.5"/>
    <polygon class="cls-47" points="818.7 635.5 813.5 636 809.1 640.2 798 640.2 795.3 641.9 778.5 644.9 741.3 646.6 729.7 645.3 713.8 644.8 706.5 647.1 690.7 654.5 682.8 654.5 672.1 648.3 660.3 639.6 656.3 635.8 655.6 629.5 644.3 629.5 643.6 621.9 639.9 619.6 636.5 623.1 635 635.5 629.2 644.8 623.8 641.4 599.8 642.1 598.9 639.8 599.1 632.1 603.8 624.9 601.7 614.4 608.1 605.3 607.7 597 606.8 587.9 600.8 577.9 594 572.5 593.4 564 584.7 561.2 573.8 560.3 563 564.3 550.7 567.3 545.9 563.1 542.7 548.7 535.5 550.7 524.4 539.6 513.7 546.9 502.3 550.1 497.7 552.7 493.1 556.7 489.4 557.3 485 555.6 482.7 550.5 482.2 544.8 487.7 538.3 500.1 524 498.9 519.8 494.8 519.6 494.6 506.5 497.4 499.9 497.1 492.5 508.9 478.2 520.6 476.3 537.4 478.5 542.2 464.2 550.6 467.3 559.8 460.1 572.1 455.4 582.4 454.9 593.8 441.8 604.1 435.3 618.4 433.2 621.5 425.4 625.7 411.2 626.9 407.3 630.7 406.1 643.5 412.2 649.2 408.8 650.8 397.3 651.2 389.4 660.1 388.3 665.3 386.5 672.1 388.7 683.7 394.2 694.9 401.7 700.1 407.9 718.8 406.6 723 400.9 725.1 400.9 728 408.8 732.6 410.3 737.5 417.4 740.9 416.9 742.5 401.4 752.2 395 756.1 392.1 763.7 391.2 771.6 392.2 779.2 397.7 782.2 395.4 784 364.6 779.9 354.7 781.6 350.4 802.5 351.8 808.3 342.3 814.7 342.9 819.3 351.8 822.7 348.8 823.1 343.5 830.2 342.3 832.4 339.3 828.4 333.9 826.6 327.2 828.6 323.4 835 320.9 839.2 325.9 843.5 327.6 845.7 335.3 848.6 344.6 848.1 349.6 849.4 353.9 853 356.3 853.4 359.9 851.3 364.5 853 368.2 856.5 372.5 859.1 378.1 860.1 382.6 861.1 394.5 853.5 401.4 861.9 410.5 864.9 415.2 869.1 421.9 872.5 424.9 870 431.5 868.2 435.4 869.3 445.4 880 456.5 865.6 464.8 858.4 472.5 857.1 493.1 851.4 499.4 839.3 500.3 830.4 507.8 818.1 508.2 819.8 522.2 809.2 525.2 807.9 533 798.1 537.9 806.3 548.7 803.3 565.5 800.8 568.5 807.4 581.7 797.9 592.6 797.1 599.9 814.7 604.4 819.2 614.1 816.2 620.8 818.7 635.5"/>
    <polygon class="cls-12" points="676.1 0 678.4 3.6 682.1 10.5 686 10.5 689.1 13.9 690.7 15.7 694.4 12.4 698.6 9.8 703.7 9.6 711 11.5 712.8 13.6 715.2 15.2 718.4 16 720.1 18.9 720.7 22 718.5 26.9 717.5 32.3 714.6 36.8 714.1 40.7 716.4 44.7 723.3 45.9 729.9 46.1 734.6 48.5 745.2 56.7 758.3 66.1 759.9 72.4 762.2 73.4 770.8 85.1 771.3 91.9 783.5 92.1 787.6 94.9 789.6 98.8 791.7 106.3 792.6 111.7 796.3 112.2 800.6 109.3 815.2 104.9 821.7 107.7 835.4 102.7 845.4 101 855 101.7 865.2 105.2 872.5 109.2 869.8 115.4 870.5 118.6 875.4 120.6 879.7 123.5 883.1 132.5 887.9 144.5 893.3 152.5 893.2 158.8 887.3 165 875.5 164.7 874.3 169.2 874.3 176.4 872.1 181.3 873.9 185.6 879.7 193.1 884.1 194.7 881.5 204.2 876.3 210.3 876.3 212.8 878.1 214.3 892.1 204 897.8 202.6 907.4 200.8 918.2 196.2 928 192.4 935.8 192.5 940.6 195.1 951.2 194.2 949.8 188.5 945 184.6 935.6 177.8 936.3 172.5 930.4 163.6 934.6 159.3 947.8 157 946.5 144.7 949.3 140.4 955.5 130.9 961.1 125.6 963.1 118.5 970 119.1 975.6 117.7 979.6 121 980 121 980 0 676.1 0"/>
    <g class="cls-51">
      <polygon class="cls-47" points="951.2 194.2 949.8 188.5 945 184.6 935.6 177.8 936.3 172.5 930.4 163.6 934.6 159.3 947.8 157 946.5 144.7 949.3 140.4 955.5 130.9 961.1 125.6 963.1 118.5 970 119.1 975.5 117.7 979.6 121 986.1 121.9 993.6 124.4 1001.2 126.7 1004.9 129.2 1010.3 123.3 1025.3 125.5 1016.7 100.4 1015.3 81.8 1028.2 81.3 1034.7 70.3 1046.7 69 1049 72.1 1052.8 72.9 1054.3 67 1059.4 65.6 1062.1 58.2 1070.8 57.4 1066.8 51.9 1065.7 43 1066.3 33.7 1071.7 31.1 1090.4 38 1091.3 27.9 1092.4 27.5 1097.5 27.5 1103.5 33.8 1104.9 33.2 1110.2 21.1 1114.9 13.8 1111.3 1.9 1115.4 -17.7 1123.1 -33.2 1120.6 -33.4 1106 -37 1097 -47.7 1088.6 -45.2 1081.5 -53.3 1076.7 -60.6 1070.9 -60.6 1063.6 -53.6 1053.4 -38.7 1017.3 -34.8 1005.8 -29.5 999.6 -33.1 986.9 -13.5 978.8 -12.1 957.5 -12.3 939.1 -5.7 937.2 -13.2 920.1 -29.3 913.8 -50.3 904.2 -63.4 898.2 -74.7 891.3 -83.1 886.5 -84.7 869.9 -73.8 864.5 -75.5 861.5 -81.6 850.2 -82.8 843.2 -72.6 837.3 -73 827.5 -75.2 829.1 -82.2 824.4 -92.6 815.4 -94.8 812.1 -101 808.7 -111.1 803.1 -119.3 790.2 -127.3 791.7 -132.1 790.3 -141.4 780.6 -137.5 771.4 -148.9 760.4 -152 749.5 -151.8 747.8 -144.2 739.7 -141.6 727.1 -139.2 715.6 -126.9 706.6 -116.7 689.4 -105.5 676.7 -95.1 673.7 -88.6 680.5 -78.5 672.3 -66.5 670 -51.7 670.4 -46.2 668.1 -42.6 663 -42.6 655 -30.7 668.9 -18.7 669.6 -13.5 673 -4.7 678.4 3.6 682.1 10.5 686 10.5 689.1 13.9 690.7 15.7 694.4 12.4 698.6 9.8 703.7 9.6 711 11.5 712.8 13.6 715.2 15.2 718.4 16 720.1 18.9 720.7 22 718.5 26.9 717.5 32.3 714.6 36.8 714.1 40.7 716.4 44.7 723.3 45.9 729.9 46.1 734.6 48.5 745.2 56.7 758.3 66.1 759.9 72.4 762.2 73.4 770.8 85.1 771.3 91.9 783.5 92.1 787.6 94.9 789.6 98.8 791.7 106.3 792.6 111.7 796.3 112.2 800.6 109.3 815.2 104.9 821.7 107.7 835.4 102.7 845.4 101 855 101.7 865.2 105.2 872.5 109.2 869.8 115.4 870.5 118.6 875.4 120.6 879.7 123.5 883.1 132.5 887.9 144.5 893.3 152.5 893.2 158.8 887.3 165 875.5 164.7 874.3 169.2 874.3 176.4 872.1 181.3 873.9 185.6 879.7 193.1 884.1 194.7 881.5 204.2 876.3 210.3 876.3 212.8 878.1 214.3 892.1 204 897.8 202.6 907.4 200.8 918.2 196.2 928 192.4 935.8 192.5 940.6 195.1 951.2 194.2"/>
    </g>
    <polygon class="cls-12" points="690.7 15.4 690.9 20.2 689.5 26.5 686.6 32.1 679.5 38 681.3 56.3 672.4 63.7 679.8 68.6 682.7 68.4 689.8 74.3 698.9 75.3 703.9 75.1 708 69.6 722.2 70.3 727.7 65.7 735.9 66.6 739.7 68.5 743.2 74.3 745 83.3 748 92.2 750.5 95.4 754 96.4 753.9 105.8 758.4 109.2 763.2 114 764.4 120 764.2 129.6 763.9 136.5 759.5 140.1 755.1 180.6 777 165.5 787.2 165 791.4 174.8 797.8 175.5 801.8 183.7 806.3 184 809.6 177.1 809.6 172.4 807.8 168 808.3 159.5 824.9 154.2 831.2 154.4 831.1 160.1 826.8 168.2 827.7 170.4 832.4 171.5 837.7 176.5 839.8 180.7 840.5 182.8 838.6 185 835.8 187.8 834.7 190.4 835.4 192.7 841 194.1 845.5 195.1 853.5 195.3 854 195.3 854 200 859.7 202.7 863.2 195.1 867.2 194.2 874.2 185.6 872.4 181.3 874.6 176.4 874.6 169.1 875.7 164.7 887.6 164.9 893.5 158.8 893.6 152.5 888.2 144.4 883.3 132.4 880 123.4 875.6 120.5 870.7 118.5 870 115.3 872.8 109.1 865.5 105 855.3 101.6 845.6 100.9 835.6 102.6 821.9 107.6 815.3 104.7 800.8 109.2 796.4 112.1 792.7 111.6 791.8 106.1 789.8 98.6 787.8 94.8 783.6 92 771.4 91.7 771 84.9 762.3 73.3 760 72.3 758.4 65.9 745.3 56.6 734.6 48.3 730 45.9 723.3 45.7 716.4 44.5 714.1 40.5 714.6 36.6 717.6 32.1 718.5 26.7 720.7 21.8 720.2 18.7 718.5 15.8 715.2 14.9 712.9 13.4 711 11.3 703.7 9.3 698.6 9.5 694.4 12.1 690.7 15.4"/>
    <polygon class="cls-47" points="690.7 15.4 690.9 20.2 689.5 26.5 686.6 32.1 679.5 38 681.3 56.3 672.4 63.7 679.8 68.6 682.7 68.4 689.8 74.3 698.9 75.3 703.9 75.1 708 69.6 722.2 70.3 727.7 65.7 735.9 66.6 739.7 68.5 743.2 74.3 745 83.3 748 92.2 750.5 95.4 754 96.4 753.9 105.8 758.4 109.2 763.2 114 764.4 120 764.2 129.6 763.9 136.5 759.5 140.1 755.1 180.6 777 165.5 787.2 165 791.4 174.8 797.8 175.5 801.8 183.7 806.3 184 809.6 177.1 809.6 172.4 807.8 168 808.3 159.5 824.9 154.2 831.2 154.4 831.1 160.1 826.8 168.2 827.7 170.4 832.4 171.5 837.7 176.5 839.8 180.7 840.5 182.8 838.6 185 835.8 187.8 834.7 190.4 835.4 192.7 841 194.1 845.5 195.1 853.5 195.3 854 195.3 854 200 859.7 202.7 863.2 195.1 867.2 194.2 874.2 185.6 872.4 181.3 874.6 176.4 874.6 169.1 875.7 164.7 887.6 164.9 893.5 158.8 893.6 152.5 888.2 144.4 883.3 132.4 880 123.4 875.6 120.5 870.7 118.5 870 115.3 872.8 109.1 865.5 105 855.3 101.6 845.6 100.9 835.6 102.6 821.9 107.6 815.3 104.7 800.8 109.2 796.4 112.1 792.7 111.6 791.8 106.1 789.8 98.6 787.8 94.8 783.6 92 771.4 91.7 771 84.9 762.3 73.3 760 72.3 758.4 65.9 745.3 56.6 734.6 48.3 730 45.9 723.3 45.7 716.4 44.5 714.1 40.5 714.6 36.6 717.6 32.1 718.5 26.7 720.7 21.8 720.2 18.7 718.5 15.8 715.2 14.9 712.9 13.4 711 11.3 703.7 9.3 698.6 9.5 694.4 12.1 690.7 15.4"/>
    <polygon class="cls-12" points="699.2 75.1 704.2 74.9 708.3 69.5 722.5 70.1 728 65.5 736.2 66.4 740 68.3 743.6 74.1 745.3 83.2 748.3 92 750.9 95.2 754.4 96.3 754.2 105.6 758.8 109 763.5 113.8 764.8 119.9 764.5 129.4 764.3 136.3 759.9 139.9 755.5 180.4 748.6 184 743.5 192.7 740.7 199.1 739.8 206.3 741.3 209.8 748.5 215.3 750.9 221.6 754.4 231.4 752.5 238.5 749.9 242.5 748.4 250.3 747.2 258.9 743.8 269.5 738 269.4 738.9 263.1 733 257.1 726.1 251.4 724.5 250.9 721.7 252.6 712.6 241.9 708.6 238.8 708.5 232.2 698.7 225.4 690.1 232.1 686.2 236.4 681.2 236.7 673.1 233.2 668.2 235.4 664.5 235.6 659.5 230.7 652.3 235.1 646.6 237.7 642.7 236.6 642.6 231.2 635.2 226.2 629.4 234 621.3 225.5 613.2 221.9 608.2 230.6 602.2 231.9 603.2 225.9 598.8 215.4 599.2 211.4 598.2 204.8 588.8 202.1 589 195.6 590.2 189.7 595.4 186 601.3 184.9 612.3 185.8 612.6 183.3 620.6 181.8 631 181.7 638.6 183.5 647.9 182.4 649.7 180.8 664.2 172.6 675.8 173.4 680.4 172.5 683.8 164.6 684.6 162.4 681.1 151.9 687 142.1 687.6 114 683.5 109.7 684.1 103.8 685.3 95.4 693 90.8 697.3 83.9 699.2 75.1"/>
    <polygon class="cls-47" points="699.2 75.1 704.2 74.9 708.3 69.5 722.5 70.1 728 65.5 736.2 66.4 740 68.3 743.6 74.1 745.3 83.2 748.3 92 750.9 95.2 754.4 96.3 754.2 105.6 758.8 109 763.5 113.8 764.8 119.9 764.5 129.4 764.3 136.3 759.9 139.9 755.5 180.4 748.6 184 743.5 192.7 740.7 199.1 739.8 206.3 741.3 209.8 748.5 215.3 750.9 221.6 754.4 231.4 752.5 238.5 749.9 242.5 748.4 250.3 747.2 258.9 743.8 269.5 738 269.4 738.9 263.1 733 257.1 726.1 251.4 724.5 250.9 721.7 252.6 712.6 241.9 708.6 238.8 708.5 232.2 698.7 225.4 690.1 232.1 686.2 236.4 681.2 236.7 673.1 233.2 668.2 235.4 664.5 235.6 659.5 230.7 652.3 235.1 646.6 237.7 642.7 236.6 642.6 231.2 635.2 226.2 629.4 234 621.3 225.5 613.2 221.9 608.2 230.6 602.2 231.9 603.2 225.9 598.8 215.4 599.2 211.4 598.2 204.8 588.8 202.1 589 195.6 590.2 189.7 595.4 186 601.3 184.9 612.3 185.8 612.6 183.3 620.6 181.8 631 181.7 638.6 183.5 647.9 182.4 649.7 180.8 664.2 172.6 675.8 173.4 680.4 172.5 683.8 164.6 684.6 162.4 681.1 151.9 687 142.1 687.6 114 683.5 109.7 684.1 103.8 685.3 95.4 693 90.8 697.3 83.9 699.2 75.1"/>
    <polygon class="cls-12" points="629.3 233.6 635.2 225.7 642.5 230.8 642.6 236.2 646.6 237.2 652.2 234.7 659.4 230.2 664.4 235.1 668.1 235 673.1 232.8 681.2 236.2 686.1 236 690.1 231.7 698.6 225 708.4 231.8 708.5 238.3 712.5 241.5 721.6 252.2 724.4 250.5 726.1 251 732.9 256.7 738.8 262.7 738 269 743.8 269.1 747.1 258.5 748.3 249.9 749.8 242.1 752.4 238 754.3 230.9 758 231.2 767.6 239.7 761.8 254.5 753.7 262 761.1 261.9 769.1 261.1 763.8 275.2 771.5 278 780.8 287.3 789.2 289 786.9 292.5 781.7 294 779.2 293 771.9 295.2 760.1 294.3 751.3 290.9 741.3 291.9 728.6 283.2 723.5 291.4 714.3 289 713.7 295.6 708.8 305.9 709.6 309.4 708.2 313 708.2 325.9 711 329.2 711.2 331.2 705 334 697.1 343 688.9 343.1 683.6 344.3 681.8 348.2 679.1 357.6 676.9 364.3 663.7 360.3 665.5 347.6 659.5 343.5 664.6 336.2 665.2 330.8 661.6 325.7 662.1 317.7 658.5 311.8 657.8 306.5 640.3 300.1 637.1 301.5 630.6 302 629.3 297.6 625 296.8 621.5 302.2 617.8 297 617.6 287.8 609.6 279.8 603.9 270.7 609.3 264.2 614.4 269.7 623.2 272.3 621.6 259 623 255.7 634.8 248.3 635.5 244.3 632.3 240.3 631.9 236.3 629.3 233.6"/>
    <polygon class="cls-47" points="629.3 233.6 635.2 225.7 642.5 230.8 642.6 236.2 646.6 237.2 652.2 234.7 659.4 230.2 664.4 235.1 668.1 235 673.1 232.8 681.2 236.2 686.1 236 690.1 231.7 698.6 225 708.4 231.8 708.5 238.3 712.5 241.5 721.6 252.2 724.4 250.5 726.1 251 732.9 256.7 738.8 262.7 738 269 743.8 269.1 747.1 258.5 748.3 249.9 749.8 242.1 752.4 238 754.3 230.9 758 231.2 767.6 239.7 761.8 254.5 753.7 262 761.1 261.9 769.1 261.1 763.8 275.2 771.5 278 780.8 287.3 789.2 289 786.9 292.5 781.7 294 779.2 293 771.9 295.2 760.1 294.3 751.3 290.9 741.3 291.9 728.6 283.2 723.5 291.4 714.3 289 713.7 295.6 708.8 305.9 709.6 309.4 708.2 313 708.2 325.9 711 329.2 711.2 331.2 705 334 697.1 343 688.9 343.1 683.6 344.3 681.8 348.2 679.1 357.6 676.9 364.3 663.7 360.3 665.5 347.6 659.5 343.5 664.6 336.2 665.2 330.8 661.6 325.7 662.1 317.7 658.5 311.8 657.8 306.5 640.3 300.1 637.1 301.5 630.6 302 629.3 297.6 625 296.8 621.5 302.2 617.8 297 617.6 287.8 609.6 279.8 603.9 270.7 609.3 264.2 614.4 269.7 623.2 272.3 621.6 259 623 255.7 634.8 248.3 635.5 244.3 632.3 240.3 631.9 236.3 629.3 233.6"/>
    <polygon class="cls-12" points="828.7 323.6 826.7 327.4 828.5 334.1 832.5 339.6 830.2 342.5 823.1 343.8 822.8 349.1 819.3 352.1 814.7 343.2 808.4 342.6 802.5 352.1 781.6 350.7 779.9 355 783.9 364.9 782.1 395.7 779.2 398.1 771.5 392.5 763.6 391.6 756 392.4 752.1 395.4 742.3 401.7 740.8 417.3 737.3 417.8 732.5 410.7 727.9 409.2 724.9 401.3 722.8 401.3 718.7 407 699.9 408.3 694.7 402.1 683.5 394.6 671.9 389 672.2 384.5 676 375.8 677.2 370.7 676.7 364.1 678.8 357.4 681.6 348 683.4 344.1 688.7 343 696.9 342.8 704.8 333.8 711 331 710.8 329 708 325.7 708 312.9 709.4 309.3 708.6 305.7 713.5 295.5 714.1 288.8 723.3 291.3 728.4 283.1 741.1 291.8 751.1 290.8 759.9 294.1 771.8 295 779 292.9 781.5 293.9 786.7 292.3 789 288.8 780.6 287.1 771.4 277.8 763.6 275 769 261 771.1 254.8 773.4 253.4 785.6 260 786.7 257.4 792.3 257.1 794.6 259.1 794.1 262.8 805.1 266.7 800.1 274.9 804.7 276.5 803.9 283 798.4 285.7 806 287.8 812.7 288.3 818.7 289.3 826.4 308.6 826.8 319.9 828.7 323.6"/>
    <polygon class="cls-47" points="828.7 323.6 826.7 327.4 828.5 334.1 832.5 339.6 830.2 342.5 823.1 343.8 822.8 349.1 819.3 352.1 814.7 343.2 808.4 342.6 802.5 352.1 781.6 350.7 779.9 355 783.9 364.9 782.1 395.7 779.2 398.1 771.5 392.5 763.6 391.6 756 392.4 752.1 395.4 742.3 401.7 740.8 417.3 737.3 417.8 732.5 410.7 727.9 409.2 724.9 401.3 722.8 401.3 718.7 407 699.9 408.3 694.7 402.1 683.5 394.6 671.9 389 672.2 384.5 676 375.8 677.2 370.7 676.7 364.1 678.8 357.4 681.6 348 683.4 344.1 688.7 343 696.9 342.8 704.8 333.8 711 331 710.8 329 708 325.7 708 312.9 709.4 309.3 708.6 305.7 713.5 295.5 714.1 288.8 723.3 291.3 728.4 283.1 741.1 291.8 751.1 290.8 759.9 294.1 771.8 295 779 292.9 781.5 293.9 786.7 292.3 789 288.8 780.6 287.1 771.4 277.8 763.6 275 769 261 771.1 254.8 773.4 253.4 785.6 260 786.7 257.4 792.3 257.1 794.6 259.1 794.1 262.8 805.1 266.7 800.1 274.9 804.7 276.5 803.9 283 798.4 285.7 806 287.8 812.7 288.3 818.7 289.3 826.4 308.6 826.8 319.9 828.7 323.6"/>
    <polygon class="cls-12" points="806.5 183.7 802 183.3 798 175.1 791.5 174.4 787.3 164.6 777.1 165.1 755 180.2 748.1 183.9 743 192.6 740.2 199 739.3 206.2 740.8 209.8 748.1 215.3 750.5 221.6 754 231.5 757.7 231.7 759.8 226.8 765.1 218 780.2 217.4 783.2 214.8 790.6 220.7 788.9 224.6 791 227.4 796.1 227.1 802.1 220.2 805.9 209.4 805.9 207.1 804.2 200.1 798.2 195.6 798.2 191.5 802.7 190.3 806.5 183.7"/>
    <polygon class="cls-47" points="806.5 183.7 802 183.3 798 175.1 791.5 174.4 787.3 164.6 777.1 165.1 755 180.2 748.1 183.9 743 192.6 740.2 199 739.3 206.2 740.8 209.8 748.1 215.3 750.5 221.6 754 231.5 757.7 231.7 759.8 226.8 765.1 218 780.2 217.4 783.2 214.8 790.6 220.7 788.9 224.6 791 227.4 796.1 227.1 802.1 220.2 805.9 209.4 805.9 207.1 804.2 200.1 798.2 195.6 798.2 191.5 802.7 190.3 806.5 183.7"/>
    <polygon class="cls-12" points="768.9 261.5 771 255.3 773.4 253.9 777.9 250.5 784.8 246.1 788.9 239.7 788.1 234 791.2 227 789 224.2 790.7 220.3 783.3 214.4 780.3 217 765.1 217.6 759.8 226.4 757.6 231.4 767.3 239.9 761.4 254.8 753.3 262.5 760.7 262.3 768.9 261.5"/>
    <polygon class="cls-47" points="768.9 261.5 771 255.3 773.4 253.9 777.9 250.5 784.8 246.1 788.9 239.7 788.1 234 791.2 227 789 224.2 790.7 220.3 783.3 214.4 780.3 217 765.1 217.6 759.8 226.4 757.6 231.4 767.3 239.9 761.4 254.8 753.3 262.5 760.7 262.3 768.9 261.5"/>
    <polygon class="cls-12" points="859.8 202.4 861 204.5 860.8 211.2 858 216 857.4 224.3 859.6 229.6 853.3 241.2 852.4 243.4 850.1 244.3 846.6 245.1 842.4 244.7 840.4 242.1 839.5 238.5 835.3 236.1 832.8 236.3 831.9 240.5 830.2 240.5 828.1 238.2 823.4 237 816.7 236.1 815 237 813 240.1 810.2 244.1 810.5 246.9 802.4 245.8 795.9 244.8 791.7 241 788.3 239.9 787.6 234.3 790.6 227.4 795.7 227 801.6 220.1 805.5 209.4 805.5 207.1 803.8 200.1 797.8 195.6 797.8 191.5 802.3 190.3 806.1 183.7 809.4 176.7 809.4 172 807.6 167.6 808.1 159.1 824.8 153.7 831.1 154 831 159.7 826.7 167.8 827.6 170 832.3 171.2 837.7 176.1 839.8 180.3 840.5 182.5 838.5 184.6 835.8 187.5 834.6 190.1 835.3 192.4 840.9 193.8 845.5 194.8 853.5 195 854 195 854 199.7 859.8 202.4"/>
    <polygon class="cls-47" points="859.8 202.4 861 204.5 860.8 211.2 858 216 857.4 224.3 859.6 229.6 853.3 241.2 852.4 243.4 850.1 244.3 846.6 245.1 842.4 244.7 840.4 242.1 839.5 238.5 835.3 236.1 832.8 236.3 831.9 240.5 830.2 240.5 828.1 238.2 823.4 237 816.7 236.1 815 237 813 240.1 810.2 244.1 810.5 246.9 802.4 245.8 795.9 244.8 791.7 241 788.3 239.9 787.6 234.3 790.6 227.4 795.7 227 801.6 220.1 805.5 209.4 805.5 207.1 803.8 200.1 797.8 195.6 797.8 191.5 802.3 190.3 806.1 183.7 809.4 176.7 809.4 172 807.6 167.6 808.1 159.1 824.8 153.7 831.1 154 831 159.7 826.7 167.8 827.6 170 832.3 171.2 837.7 176.1 839.8 180.3 840.5 182.5 838.5 184.6 835.8 187.5 834.6 190.1 835.3 192.4 840.9 193.8 845.5 194.8 853.5 195 854 195 854 199.7 859.8 202.4"/>
    <polygon class="cls-12" points="810.8 246.4 814.4 248.4 815.2 252.4 813.8 257.7 809 271.5 810.3 276.9 814.6 282.7 812.8 288.8 806 288.3 798.3 286.2 803.9 283.4 804.6 276.8 800.1 275.2 805 267 793.9 263.1 794.4 259.3 792.1 257.3 786.5 257.6 785.3 260.2 773 253.6 777.6 250.2 784.5 245.8 788.5 239.4 791.9 240.5 796.2 244.3 802.7 245.3 810.8 246.4"/>
    <polygon class="cls-47" points="810.8 246.4 814.4 248.4 815.2 252.4 813.8 257.7 809 271.5 810.3 276.9 814.6 282.7 812.8 288.8 806 288.3 798.3 286.2 803.9 283.4 804.6 276.8 800.1 275.2 805 267 793.9 263.1 794.4 259.3 792.1 257.3 786.5 257.6 785.3 260.2 773 253.6 777.6 250.2 784.5 245.8 788.5 239.4 791.9 240.5 796.2 244.3 802.7 245.3 810.8 246.4"/>
    <polygon class="cls-12" points="866.8 193.7 862.9 194.6 859.3 202.1 860.5 204.2 860.3 210.9 857.5 215.7 857 224 859.2 229.2 852.9 240.8 852 243 849.7 243.8 846.2 244.6 842 244.2 840.1 241.7 839.1 238.1 835 235.7 832.5 235.9 831.6 240 829.9 240 827.8 237.8 823.2 236.6 816.5 235.7 814.8 236.6 812.8 239.6 810 243.7 810.3 246.5 813.9 248.4 814.7 252.4 813.2 257.6 808.5 271.3 809.8 276.6 814 282.4 812.2 288.4 818.2 289.3 825.9 308.7 826.3 319.9 828.2 323.7 834.6 321.2 838.8 326.2 843 327.9 845.3 335.6 848.1 344.9 847.6 349.8 848.9 354.2 852.6 356.6 853 360.2 850.8 364.8 852.6 368.5 856 372.8 858.6 378.4 859.7 382.9 860.6 394.8 853.1 401.8 861.5 410.8 864.4 415.5 868.7 422.2 872.1 425.3 869.6 431.9 867.7 435.8 868.9 445.8 879.6 456.8 887.9 465.1 891.1 459.3 891.9 450.5 900 446 904.2 438.4 910.7 437 919.4 440.5 931.7 433.5 942.8 420.8 936.4 419.9 930.3 415.5 926.3 406.1 922.6 392.7 915.7 384.9 912.9 376.7 906.9 372.5 907.3 371.3 911.7 367.7 922.7 353.4 926.4 348 936.5 347.7 937.3 340.1 937.5 330.3 939.3 327.6 944.5 330.3 947 331.2 947 323.9 949.3 320.8 956.9 317.4 964.5 320 968.6 324.1 968.6 331.1 968.6 338.4 971 339.6 974.8 347.4 978.8 342.9 980 344.4 980 224.1 978.8 223.9 972 225.6 968.4 223.3 966.8 216.1 962.8 210.9 952.4 204.3 951.1 193.7 940.5 194.6 935.8 191.9 928 191.8 918.1 195.6 907.4 200.2 897.7 202.1 892 203.5 878 213.7 876.1 212.3 876.1 209.8 881.3 203.7 884 194.2 879.6 192.5 873.8 185.1 866.8 193.7"/>
    <g class="cls-50">
      <polygon class="cls-47" points="879.6 456.8 868.9 445.8 867.7 435.8 869.6 431.9 872.1 425.3 868.7 422.2 864.4 415.5 861.5 410.8 853.1 401.8 860.6 394.8 859.7 382.9 858.6 378.4 856 372.8 852.6 368.5 850.8 364.8 853 360.2 852.6 356.6 848.9 354.2 847.6 349.8 848.1 344.9 845.3 335.6 843 327.9 838.8 326.2 834.6 321.2 828.2 323.7 826.3 319.9 825.9 308.7 818.2 289.3 812.2 288.4 814 282.4 809.8 276.6 808.5 271.3 813.2 257.6 814.7 252.4 813.9 248.4 810.3 246.5 810 243.7 812.8 239.6 814.8 236.6 816.5 235.7 823.2 236.6 827.8 237.8 829.9 240 831.6 240 832.5 235.9 835 235.7 839.1 238.1 840.1 241.7 842 244.2 846.2 244.6 849.7 243.8 852 243 852.9 240.8 859.2 229.2 857 224 857.5 215.7 860.3 210.9 860.5 204.2 859.3 202.1 862.9 194.6 866.8 193.7 873.8 185.1 879.6 192.5 884 194.2 881.3 203.7 876.1 209.8 876.1 212.3 878 213.7 892 203.5 897.7 202.1 907.4 200.2 918.1 195.6 928 191.8 935.8 191.9 940.5 194.6 951.1 193.7 952.4 204.3 962.8 210.9 966.8 216.1 968.4 223.3 972 225.6 978.8 223.9 988.3 225.3 1009.8 238.6 1018.2 247.3 1018.6 257 1027.8 256.4 1032 267.8 1039.6 275.7 1039.9 299 1041.9 311.9 1048.2 322.6 1052.8 324.9 1056.1 334.2 1055.1 339.1 1047.5 345 1045.2 364.3 1040.8 377 1031 381.7 1026.2 380.4 1014.1 382 1007.4 375.5 991.9 368.2 990.8 358.5 978.8 342.9 974.8 347.4 971 339.6 968.6 338.4 968.6 331.1 968.6 324.1 964.5 320 956.9 317.4 949.3 320.8 947 323.9 947 331.2 944.5 330.3 939.3 327.6 937.5 330.3 937.3 340.1 936.5 347.7 926.4 348 922.7 353.4 911.7 367.7 907.3 371.3 906.9 372.5 912.9 376.7 915.7 384.9 922.6 392.7 926.3 406.1 930.3 415.5 936.4 419.9 942.8 420.8 931.7 433.5 919.4 440.5 910.7 437 904.2 438.4 900 446 891.9 450.5 891.1 459.3 887.9 465.1 879.6 456.8"/>
    </g>
    <polygon class="cls-12" points="698.6 9.4 694.4 12 690.7 15.3 691 20.1 689.5 26.4 686.7 31.9 679.5 37.9 681.3 56.1 672.5 63.5 679.8 68.4 682.8 68.2 689.8 74.1 698.9 75.1 697.1 83.9 692.8 90.8 685.1 95.4 683.9 103.8 683.2 109.6 687.3 113.9 686.7 142 680.9 151.8 684.3 162.3 683.5 164.5 680.1 172.3 675.6 173.2 663.9 172.5 649.5 180.6 647.7 182.3 638.4 183.4 630.8 181.6 620.4 181.6 612.4 183.1 612.1 185.6 601.1 184.7 595.3 185.8 590.1 189.6 588.9 195.5 588.7 201.9 598.1 204.6 599.1 211.2 598.7 215.2 603.1 225.7 602.1 231.7 608.1 230.4 613 221.7 621.2 225.3 629.2 233.8 631.8 236.5 632.2 240.5 635.4 244.6 634.7 248.5 622.9 255.9 621.5 259.2 623 272.4 614.3 269.9 609.2 264.4 603.8 270.8 609.5 279.9 617.5 288 617.7 297.1 621.4 302.3 624.9 296.9 629.1 297.6 630.5 302.1 637 301.6 640.1 300.2 657.7 306.5 658.3 311.9 661.9 317.8 661.5 325.7 665 330.8 664.5 336.1 659.4 343.4 665.4 347.6 663.5 360.2 676.7 364.2 677.3 370.9 676 375.9 672.2 384.6 671.9 389.1 683.5 394.6 694.7 402.2 699.9 408.3 718.6 407 722.7 401.3 724.9 401.3 727.8 409.2 732.4 410.8 737.2 417.8 740.7 417.4 742.2 401.8 752 395.4 755.9 392.5 763.5 391.7 771.3 392.6 779 398.1 782 395.8 783.7 365 779.7 355.1 781.4 350.9 802.2 352.3 808.1 342.7 814.5 343.3 819.1 352.3 822.5 349.2 822.9 343.9 830 342.7 832.2 339.7 828.2 334.3 826.4 327.6 828.4 323.8 834.8 321.4 839 326.3 843.3 328.1 845.5 335.7 848.4 345 847.9 350 849.2 354.3 852.8 356.7 853.2 360.4 851.1 365 852.8 368.6 856.3 372.9 858.9 378.6 859.9 383 860.9 394.9 853.3 401.9 861.7 410.9 864.7 415.6 868.9 422.3 872.3 425.4 869.8 432 868 435.9 869.1 445.9 879.8 456.9 888.1 465.2 891.3 459.4 892.1 450.6 900.2 446.1 904.4 438.5 910.9 437.1 919.6 440.6 931.9 433.6 942.9 420.9 936.6 420 930.5 415.7 926.5 406.2 922.7 392.8 915.9 385.1 913.1 376.8 907.1 372.7 907.5 371.4 911.9 367.8 922.9 353.6 926.6 348.1 936.7 347.8 937.5 340.2 937.7 330.4 939.5 327.8 944.6 330.4 947.1 331.4 947.1 324.1 949.5 321 957.1 317.5 964.7 320.2 968.7 324.2 968.7 331.2 968.7 338.5 971.2 339.7 974.9 347.5 979 343 980 344.4 980 224.3 978.9 224.1 972.1 225.8 968.5 223.5 967 216.3 963 211.1 952.5 204.5 951.3 193.9 940.7 194.8 936 192.1 928.1 192 918.3 195.8 907.6 200.4 897.9 202.3 892.2 203.7 878.2 213.9 876.4 212.4 876.4 210 881.6 203.9 884.2 194.4 879.8 192.7 874 185.3 872.2 181 874.4 176.1 874.4 168.8 875.6 164.4 887.5 164.6 893.4 158.5 893.4 152.2 888 144.1 883.2 132.1 879.8 123.1 875.5 120.3 870.6 118.2 869.9 115.1 872.6 108.9 865.3 104.8 855.1 101.3 845.5 100.6 835.5 102.3 821.8 107.4 815.2 104.5 800.7 108.9 796.4 111.9 792.6 111.4 791.7 105.9 789.7 98.4 787.7 94.5 783.5 91.8 771.4 91.5 770.9 84.7 762.2 73.1 759.9 72.1 758.4 65.8 745.3 56.4 734.6 48.1 729.9 45.7 723.3 45.6 716.4 44.3 714.1 40.3 714.6 36.5 717.6 32 718.5 26.6 720.7 21.6 720.2 18.6 718.5 15.7 715.2 14.8 712.9 13.3 711 11.2 703.8 9.2 698.6 9.4"/>
    <g class="cls-56">
      <polygon class="cls-47" points="1052.9 325.1 1048.3 322.7 1042 312 1040 299.1 1039.7 275.9 1032.1 267.9 1027.9 256.6 1018.7 257.2 1018.3 247.4 1009.9 238.7 988.4 225.5 978.9 224.1 972.1 225.8 968.5 223.5 967 216.3 963 211.1 952.5 204.5 951.3 193.9 940.7 194.8 936 192.1 928.1 192 918.3 195.8 907.6 200.4 897.9 202.3 892.2 203.7 878.2 213.9 876.4 212.4 876.4 210 881.6 203.9 884.2 194.4 879.8 192.7 874 185.3 872.2 181 874.4 176.1 874.4 168.8 875.6 164.4 887.5 164.6 893.4 158.5 893.4 152.2 888 144.1 883.2 132.1 879.8 123.1 875.5 120.3 870.6 118.2 869.9 115.1 872.6 108.9 865.3 104.8 855.1 101.3 845.5 100.6 835.5 102.3 821.8 107.4 815.2 104.5 800.7 108.9 796.4 111.9 792.6 111.4 791.7 105.9 789.7 98.4 787.7 94.5 783.5 91.8 771.4 91.5 770.9 84.7 762.2 73.1 759.9 72.1 758.4 65.8 745.3 56.4 734.6 48.1 729.9 45.7 723.3 45.6 716.4 44.3 714.1 40.3 714.6 36.5 717.6 32 718.5 26.6 720.7 21.6 720.2 18.6 718.5 15.7 715.2 14.8 712.9 13.3 711 11.2 703.8 9.2 698.6 9.4 694.4 12 690.7 15.3 691 20.1 689.5 26.4 686.7 31.9 679.5 37.9 681.3 56.1 672.5 63.5 679.8 68.4 682.8 68.2 689.8 74.1 698.9 75.1 697.1 83.9 692.8 90.8 685.1 95.4 683.9 103.8 683.2 109.6 687.3 113.9 686.7 142 680.9 151.8 684.3 162.3 683.5 164.5 680.1 172.3 675.6 173.2 663.9 172.5 649.5 180.6 647.7 182.3 638.4 183.4 630.8 181.6 620.4 181.6 612.4 183.1 612.1 185.6 601.1 184.7 595.3 185.8 590.1 189.6 588.9 195.5 588.7 201.9 598.1 204.6 599.1 211.2 598.7 215.2 603.1 225.7 602.1 231.7 608.1 230.4 613 221.7 621.2 225.3 629.2 233.8 631.8 236.5 632.2 240.5 635.4 244.6 634.7 248.5 622.9 255.9 621.5 259.2 623 272.4 614.3 269.9 609.2 264.4 603.8 270.8 609.5 279.9 617.5 287.9 617.7 297.1 621.4 302.3 624.9 296.9 629.1 297.6 630.5 302.1 637 301.6 640.1 300.2 657.7 306.5 658.3 311.9 661.9 317.8 661.5 325.7 665 330.8 664.5 336.1 659.4 343.4 665.4 347.6 663.5 360.2 676.7 364.2 677.3 370.9 676 375.9 672.2 384.6 671.9 389.1 683.5 394.6 694.7 402.2 699.9 408.3 718.6 407 722.7 401.3 724.9 401.3 727.8 409.2 732.4 410.8 737.2 417.8 740.7 417.4 742.2 401.8 752 395.4 755.9 392.5 763.5 391.7 771.3 392.6 779 398.1 782 395.8 783.7 365 779.7 355.1 781.4 350.9 802.2 352.3 808.1 342.7 814.5 343.3 819.1 352.3 822.5 349.2 822.9 343.9 830 342.7 832.2 339.7 828.2 334.3 826.4 327.6 828.4 323.8 834.8 321.4 839 326.3 843.3 328.1 845.5 335.7 848.4 345 847.9 350 849.2 354.3 852.8 356.7 853.2 360.4 851.1 365 852.8 368.6 856.3 372.9 858.9 378.6 859.9 383 860.9 394.9 853.3 401.9 861.7 410.9 864.7 415.6 868.9 422.3 872.3 425.4 869.8 432 868 435.9 869.1 445.9 879.8 456.9 888.1 465.2 891.3 459.4 892.1 450.6 900.2 446.1 904.4 438.5 910.9 437.1 919.6 440.6 931.9 433.6 942.9 420.9 936.6 420 930.5 415.7 926.5 406.2 922.7 392.8 915.9 385.1 913.1 376.8 907.1 372.7 907.5 371.4 911.9 367.8 922.9 353.6 926.6 348.1 936.7 347.8 937.5 340.2 937.7 330.4 939.5 327.8 944.6 330.4 947.1 331.4 947.1 324.1 949.5 321 957.1 317.5 964.7 320.2 968.7 324.2 968.7 331.2 968.7 338.5 971.2 339.7 974.9 347.5 979 343 990.9 358.7 992 368.3 1007.6 375.6 1014.2 382.1 1026.4 380.6 1031.2 381.8 1041 377.2 1045.3 364.4 1047.6 345.2 1055.2 339.3 1056.2 334.3 1052.9 325.1"/>
      <polygon class="cls-48" points="351.2 414.1 351.7 407.9 359.2 395 362.1 388.1 356.7 383.8 331.7 387.1 329.6 379.3 312.2 360.9 311.9 353.8 318.5 351.4 320.5 346.5 318.5 341.7 315.3 335.7 314.1 321.6 310.9 320 306.3 320.7 297.5 330.2 289.6 334.6 286.6 334.1 281.4 329.9 275.8 325.5 266.8 325.8 247.4 318.1 238.7 311.6 233.8 325.8 226.8 336.8 220.9 338.6 217 342.9 216 353 218.5 357.2 218.2 364.1 215 367.5 213.3 370.4 216.7 374.5 216.6 378.2 219.7 383 212.6 384.5 208.7 379.9 197.3 379.8 193.4 382.4 188.3 374.2 184.5 363.1 180.9 355 180.8 347.5 169.6 340.4 165.3 345.2 161.3 338.4 144.5 337.1 142 333.4 141.3 329.4 140.1 324.7 140.2 312 143.5 304.4 143.8 294 140 288.6 141.6 281.6 144.9 278.6 146.8 272.3 146 267.5 142.6 263.9 134.2 266.3 130.7 260.7 129.6 253 119.8 234 119 230.3 112.4 227.3 106.3 228.3 102.2 228.6 99.6 226.4 99.8 222.3 101.6 217.4 102.7 207.6 102.5 197.8 96.4 190.3 95.4 182.7 93 176.9 85.2 172.2 77.3 169.8 71.9 166.2 70.3 161 61.1 159.7 53 155.7 45.6 155.7 41.1 157 35.3 153.2 28.7 153.5 25.1 158 20.9 158.4 17.6 154.4 11 149.2 4.5 150.5 -2.6 153.8 -7.7 149.9 -16.7 147.4 -21.7 147.9 -25 143 -22.8 130.5 -20.7 128 -15 124 -13.9 122.1 -10.5 110.7 -4.5 107 -7.6 96.8 -7.2 82.7 .7 72.1 2.6 60.2 -3.5 55.3 -10.8 37 -12.8 18.8 -9.9 2.6 -7.4 -.7 -13.3 -15.3 -21.7 -37.5 -21.7 -49.8 -28.7 -52.4 -34.4 -56 -38.5 -61.7 -39.1 -66.4 -25.9 -90.6 -13.3 -98.7 10.1 -122.9 28.6 -120.9 32.8 -126.1 36.2 -137.3 52.7 -151.5 64 -155.5 81.1 -158.8 92.8 -170.6 98.5 -177.2 103.2 -179.4 108.7 -177.5 124.9 -185.4 130.6 -180.3 143.6 -185.3 145.4 -184.8 155.4 -175.2 164.1 -173 165.6 -169 173.2 -169.9 187.5 -170.7 197 -165.4 203.2 -162.7 211.7 -153.7 218.6 -148.9 224.5 -144.2 234.2 -143.4 238.6 -132.7 239.8 -123.6 238.6 -108.7 240.3 -99.4 243 -91 248.5 -67.6 254.6 -69.3 274 -62.8 273.7 -53.7 278.8 -46.7 282.5 -44 288.8 -42.8 294.5 -32.1 290.6 -26.7 282.7 -21.6 276 -15.4 275.1 -8.5 272.5 -5.9 268.6 -1.7 265.5 6.6 260.5 11.1 266.1 19.2 273.1 23.1 275.7 37 274.2 46.8 279.9 54.2 285.2 59.8 291.2 61.1 297.3 61.1 307.1 54 316.8 59.2 323.3 56.8 339.6 48.8 351.2 42.3 361.6 47.3 371.4 41.4 388.6 39.7 394.2 46.8 402.4 42.3 423.6 34 426.8 31.5 430.1 23.9 444.8 21.7 466.2 15.3 487.6 2.2 500.6 -5.4 499.8 -15.1 505.7 -30.9 507.5 -46.5 510.9 -51.8 531.2 -69.6 523.3 -76 533.2 -90.9 536.8 -99.3 550.3 -98.3 555.1 -91.7 560.2 -83.9 572.2 -83.3 579.2 -82.5 582.9 -79.4 585.1 -73.8 585.5 -68.3 590.7 -60.5 597.9 -56.7 607.5 -50.8 611.1 -49.3 618.8 -35.3 628.6 -37.2 639.8 -32.2 646.3 -24.9 655.5 -31.1 663.4 -43 668.5 -43 670.8 -46.5 670.4 -52.1 672.7 -66.8 680.9 -78.8 674.1 -88.9 677.1 -95.4 689.8 -105.8 707 -117 716 -127.2 727.5 -139.5 740.1 -141.8 748.2 -144.5 749.9 -152.1 760.8 -152.2 771.8 -149.1 780.9 -137.8 790.7 -141.7 792.1 -132.4 790.6 -127.6 803.5 -119.6 809.1 -111.4 812.5 -101.3 815.8 -95.1 824.8 -92.9 829.4 -82.5 827.9 -75.6 837.7 -73.4 843.6 -72.9 850.5 -83.1 861.9 -81.9 864.8 -75.9 870.3 -74.2 886.9 -85 891.7 -83.5 898.5 -75.1 904.6 -63.8 914.1 -50.7 920.5 -29.7 937.5 -13.6 939.4 -6.1 957.9 -12.7 979.2 -12.5 987.2 -13.9 1000 -33.4 1006.2 -29.9 1017.7 -35.1 1053.7 -39.1 1064 -53.9 1071.3 -60.9 1077 -60.9 1081.8 -53.6 1089 -45.6 1097.3 -48.1 1106.3 -37.4 1120.9 -33.8 1123.4 -33.6 1115.7 -18.1 1111.6 1.5 1115.2 13.4 1110.5 20.7 1105.3 32.8 1103.9 33.4 1097.8 27.1 1092.7 27.1 1091.6 27.5 1090.7 37.6 1072 30.6 1066.6 33.3 1066 42.6 1067.1 51.4 1071.1 57 1062.4 57.7 1059.8 65.1 1054.6 66.5 1053.1 72.4 1049.4 71.7 1047 68.6 1035.1 69.8 1028.6 80.8 1015.7 81.3 1017.1 99.9 1025.6 125 1010.7 122.8 1005.2 128.7 1001.5 126.2 993.9 123.9 986.4 121.4 979.9 120.4 975.9 117.2 970.3 118.6 963.5 118 961.5 125.1 955.9 130.4 949.7 139.8 946.9 144.2 948.1 156.4 934.9 158.7 930.7 163.1 936.6 171.9 936 177.2 945.3 184 950.1 187.9 951.5 193.6 952.7 204.3 963.1 210.8 967.2 216.1 968.7 223.2 972.3 225.5 979.1 223.8 988.6 225.2 1010.1 238.5 1018.4 247.2 1018.9 256.9 1028.1 256.3 1032.3 267.6 1039.9 275.5 1040.2 298.8 1042.2 311.7 1048.4 322.4 1053.1 324.7 1056.3 333.9 1055.4 338.9 1047.8 344.8 1045.4 364 1041.1 376.7 1031.3 381.4 1026.5 380.2 1014.4 381.7 1007.7 375.2 992.2 367.9 991.1 358.3 979.2 342.6 975.1 347.1 971.4 339.4 968.9 338.1 968.9 330.8 968.9 323.9 964.9 319.8 957.3 317.2 949.7 320.6 947.3 323.7 947.3 331 944.9 330.1 939.7 327.4 937.9 330.1 937.7 339.8 936.9 347.4 926.8 347.7 923.1 353.2 912.1 367.4 907.8 371 907.3 372.2 913.3 376.4 916.1 384.7 923 392.4 926.7 405.7 930.7 415.2 936.8 419.5 943.1 420.5 932.1 433.2 919.8 440.2 911.1 436.6 904.6 438 900.4 445.6 892.3 450.1 891.6 458.9 888.3 464.7 880.1 456.4 865.7 464.7 858.4 472.5 857.2 493 851.4 499.3 839.4 500.2 830.5 507.6 818.1 508.1 819.9 522.1 809.3 525.1 808 532.8 798.2 537.7 806.4 548.6 803.4 565.3 800.9 568.4 807.5 581.5 798 592.4 797.2 599.7 814.8 604.2 819.3 613.9 816.2 620.5 818.8 635.3 830 644.3 840 641.9 853.6 640.3 856.3 641.3 871.3 655.4 880.9 677.4 889.3 693.4 903.1 701.5 910.4 727.4 907.4 734 901.7 738.3 902 742.6 910.4 745.8 912.6 754.9 912.2 762.5 907.9 772.4 904.7 778.7 914.4 795.1 916 811.1 916.8 825.6 918.8 841.3 919 846.1 923.9 851.4 924.1 858.6 934.7 869.5 919.1 885.6 916.9 888.6 926.4 896.7 931.8 901.9 930.1 906.2 928.8 908.9 923.6 909.2 913.8 913.5 907.3 925.8 903.8 932.5 893.5 934.2 881.7 924.7 876.8 935.6 882.5 945.1 881.9 949.1 875.9 954.3 866.4 951.9 849.2 965.2 852.4 1026.5 857.8 1034.2 862.2 1036.5 869.8 1051.3 873.3 1056.2 878.1 1061.2 878.2 1071.4 875.1 1084.7 873.2 1099.2 870.6 1110.5 872.2 1117.6 878.5 1122 882 1124.6 892 1136.4 879.4 1146.1 871.6 1154.6 866.8 1159 868.7 1176.4 862.7 1181.9 862.7 1188.1 859.2 1198.7 858.7 1207.1 845.7 1215.9 847.2 1226.6 844.8 1239.7 846.1 1247.9 853 1254.1 856.7 1259.8 856.8 1263.1 853.2 1267.2 851.9 1275.8 838.4 1276.7 825.1 1273.4 801.3 1263.3 784.7 1260.2 778 1273.1 779.9 1289.5 786.3 1300.1 792.5 1342.3 794.4 1357.5 795.6 1389.7 789.6 1395.9 778.5 1394.6 762 1389.5 728.2 1375 723.3 1378.5 705.7 1377.4 668.7 1358 658.1 1358.5 651 1361 645.3 1361.6 630.7 1357.1 623.6 1358.5 614.6 1356.1 608.4 1353.3 604.7 1334.7 599 1333 589 1328.9 585.6 1317.6 576.5 1319.8 568.1 1320.8 550.4 1320.1 537.2 1315.3 529.1 1316.4 515.9 1324.5 505.7 1323.1 501.6 1329.3 485.1 1328.7 468.5 1317.7 461.8 1317.2 450.5 1311.7 448 1303.7 445.9 1284.7 442.1 1272.5 441.1 1261.6 429.4 1254.7 419.4 1259.6 402 1263.8 378.6 1277.3 371.8 1284 361.1 1303.2 354 1301.8 347.8 1295.4 345.7 1278.7 333.8 1275.5 305.8 1264.2 292.4 1255.1 286 1253.5 283.5 1242.6 288.6 1226.7 294.3 1224 303.9 1220.5 307.2 1215.1 308 1211.4 308.2 1206.8 312.1 1194.8 311 1189.5 317.7 1185.1 323.3 1183.5 326.3 1182 332.5 1159.7 339.2 1152.2 339.2 1146.4 341.9 1143.5 347.6 1141.1 356.2 1133.6 356.2 1131.4 349.2 1125.9 367 1109 369.1 1105.8 368 1093.5 372.7 1088 370 1081.3 370.5 1070.7 376.1 1066.7 370.4 1049.7 378 1043.2 388 1044.6 386.9 1036.6 382.6 1029.9 374.8 1022.8 367.3 1019.1 359 1010.7 356.2 1002.1 352.7 982.7 349.5 969.7 328 959.2 316.1 954.3 303.9 942.6 302.1 913.8 305.8 903.4 305.1 897.2 297.6 890.7 308.1 889.1 330.3 878.7 347.6 870.1 354.4 870.7 363.3 876.4 374 889.3 388.8 901.4 399.8 907.3 417.9 913.1 422.5 913.8 429.2 905 430.3 872.8 426.8 849 438.6 798.1 438.6 785.1 438.3 766.8 424.9 766.3 420.5 744.4 413.8 743.9 406.5 742.2 403.3 729.1 397.7 723.7 398.5 711.2 403.9 709.7 408.7 704.2 414.4 699.3 430 691.6 427.9 679.4 435.7 670.5 432.5 663.2 425.4 659.7 425.9 654.1 428.9 651 439.7 646 425.1 630.2 435.7 617.3 425.9 601.3 417.3 595.8 421.4 579.1 419.5 569.2 412.2 559.7 413.5 554.9 417.8 531.8 415.5 521.3 426.2 502.9 426.2 493.3 418.6 484.8 416.3 480.3 417.4 468.7 426.8 465.4 415.8 455.6 407.6 441.5 399.1 433.2 389.4 427.3 377.5 423 369.9 425.6 358.1 422.4 354.8 417.8 351.2 414.1"/>
      <path class="cls-8" d="M756.3,112.6c.4-10.1.7-22.1-1.6-32-.9-3.9-2.4-8.2-5.9-10l-1,1.5c4.6,2.8,6.1,8.7,6.7,14,.9,8.6.4,17.8,0,26.5,0,.2.1-.1,0,0-.2,0-.2-.4,0-.3"/>
      <path class="cls-8" d="M768.6,111.8c-2-10.4-1.7-21.1-1.3-31.7,0-2,.3-4.2,1.8-5.5l.2-2.3c-1.4,1.1-2.3,2.8-2.8,4.6-.5,1.7-.6,3.6-.7,5.4-.4,8.4-.3,16.8.4,25.2.1,1.5.3,2.9.4,4.4"/>
      <path class="cls-8" d="M765.2,112.8c-1.1-3.8-1.7-7.8-2-11.7-.8-15.4-2.2-32.7-.7-46.3l-.9-3.2c-1,1.1-1.2,2.8-1.2,4.3-.5,11.5,0,23,.5,34.5.3,7.7.7,15.4,2.2,23"/>
      <path class="cls-8" d="M749.4,113.2c-.7-2.8-.9-5.8-1.2-8.7-.9-8.3-2.5-16.6-4.8-24.6,1.4,1.9,2.8,3.8,3.7,6,1,2.3,1.5,4.9,1.9,7.4.7,4.8,1.2,9.7,1.4,14.6,0,2.1.1,4.2-.3,6.2"/>
      <path class="cls-8" d="M755.2,112c-.1-6,0-12,1.2-17.9.8-3.8,2.2-7.7,5.2-10.2-1.5,4.8-2.3,9.7-3,14.6-.8,4.9-1.5,10-.4,14.9,0,0,.1,0,0,0"/>
      <path class="cls-8" d="M762.5,112.7c-2.7-4.4-4-11-5-16-1.5-7.8-2.8-15.9-1.2-23.7.9-4.2,2.6-8.1,4.5-11.9-2.8,13.2-2.2,26.9.2,40.1.7,3.8,1.6,7.7,3.9,10.9"/>
      <path class="cls-8" d="M752.4,111.9c-1.2-10.1-3.1-20-5.7-29.8,5.2,8.4,6.8,18.6,7.6,28.4"/>
      <path class="cls-17" d="M762.1,48.2c-1.2,1.3-1.5,3.4-1.1,5.1.4,1.8,1.4,3.4,2.4,4.9,1.7-1,3.3-2.1,4.4-3.7,1.1-1.6,1.6-3.7,1-5.5,1.7,1.7,2.7,4.1,4.8,5.4,1.6,1,3.6,1.1,5.5,1-.2-1.7-.5-3.5-1.2-5-1.1-2.1-3.1-3.7-5.4-4.1,1.9-.2,3.6-1.9,3.7-3.8-1.7-1.2-3.9-1.6-5.9-1.1-.6.2-1.1.4-1.7.6-.8.3-1.7.4-2.6.5-.2,0-.4,0-.6,0-.2,0-.4-.1-.5-.2-2.7-1.5-6-2-9-1.4,0,0-.2,0-.2.1,0,0,0,.2,0,.3.4,1.8,1.6,3.3,3.1,4.3-1.1-.5-2.5-.5-3.7-.2-1.2.3-2.3,1-3.4,1.6.7,1.2,1.7,2.3,2.8,3.1.8.6,1.6,1.1,2.6,1.3,1,.1,2-.2,2.9-.7,1-.5,1.8-1.3,2.5-2.2"/>
      <path class="cls-37" d="M763.3,45.7c-.6-2.5-.8-5-.6-7.5,0-.3,0-.5.2-.7.4-.5,1.2-.1,1.8-.3.4,0,.8-.4,1.1-.3.2,0,.3.2.4.2.2,0,.3,0,.5,0,.4,0,.8.2.8.6.7.4,1.3.7,2,1.1.4.2.8.5,1.1.8.3.5.4,1.1.3,1.6,0,.4-.2.7-.3,1-.5,1.2-.9,2.3-1.4,3.5-.2.4-.4.9-.8,1.1-.2,0-.3,0-.5,0-.4,0-.8,0-1.1,0-.9,0-1.8,0-2.5-.6"/>
      <path class="cls-10" d="M763.9,39.7c0,1.5,0,3.1-.2,4.6,0,.2.5,0,.5,0,.2-1.5.2-3.1.2-4.7,0-.1-.5,0-.5.1"/>
      <path class="cls-10" d="M765.1,40.2v4.9c0,.1.5,0,.5-.1v-4.9c0-.1-.5,0-.5.1"/>
      <path class="cls-10" d="M766.6,40.4c0,1.5-.2,3.1-.3,4.6,0,.3.5.2.5,0,.2-1.5.3-3,.3-4.6,0-.3-.5-.2-.5,0"/>
      <path class="cls-10" d="M767.6,40.5c0,1.4-.2,2.8-.5,4.2,0,.2.5.2.5,0,.3-1.4.4-2.8.5-4.2,0-.3-.5-.2-.5,0"/>
      <path class="cls-10" d="M769,40.9c-.3,1.3-.7,2.7-1,4,0,.2.5.1.5,0,.3-1.3.7-2.7,1-4,0-.2-.5-.1-.5,0"/>
      <path class="cls-17" d="M742,77.8c0,1.3,0,2.7.3,3.9.4,1.3,1.1,2.5,2.2,3.2,1.3-1.1,2.4-2.5,3-4.1.6-1.6.5-3.5-.5-4.9,1.5,2.8,4.8,4.5,8,4-.4-1.8-1.1-3.6-2.2-5.1-1.1-1.5-2.6-2.7-4.4-3.2,1.2-.7,2.5-1.5,3.4-2.6,1.6-2,2-4.7,2-7.2,0-.1,0-.3-.1-.4,0,0-.2,0-.3,0-3,.1-5.9,1.6-7.8,4-.1-3-1.4-6-3.4-8.3-2.5,3.1-3.5,7.5-2.4,11.4-.6-1.4-2.2-2.3-3.7-2.4-1.5-.1-3.1.3-4.6.7.8,2.6,2.7,4.7,5.2,5.8"/>
      <path class="cls-37" d="M743.2,78.1c.8-.9,1.6-1.7,2.3-2.6.3-.4.7-.8.8-1.2.2-.5.1-1,0-1.5-.2-.8-.5-1.7-1.2-2.2-.5-.4-1.3-.5-1.9-.4-.7,0-1.3.3-1.9.6-.8.3-1.5.7-2.3,1.1"/>
      <path class="cls-10" d="M741.2,72.3c.9-.4,1.7-.9,2.6-1.3,0,0,.2-.1,0-.2-.1,0-.3,0-.4,0-.9.4-1.7.9-2.6,1.3,0,0-.2.1,0,.2.1,0,.3,0,.4,0"/>
      <path class="cls-10" d="M742.4,72.9c.6-.4,1.2-.7,1.8-1.1,0,0,.1-.2,0-.3-.1,0-.3,0-.4,0-.6.4-1.2.7-1.8,1.1,0,0-.1.2,0,.3.1,0,.3,0,.4,0"/>
      <path class="cls-10" d="M743,74.1c.8-.6,1.6-1.2,2.4-1.8,0,0,0,0-.1,0-.1,0-.3,0-.4.1-.8.6-1.6,1.2-2.4,1.8,0,0,0,0,.1,0,.1,0,.3,0,.4-.1"/>
      <path class="cls-10" d="M743.5,75.6c.7-.5,1.4-1.1,2-1.7,0,0,0-.2,0-.2-.1,0-.3,0-.4.1-.6.6-1.2,1.2-1.9,1.6,0,0-.2.1,0,.2.1,0,.3,0,.4,0"/>
      <path class="cls-10" d="M744,76.4c.7-.5,1.3-1,2-1.6,0,0,0-.1-.1,0-.1,0-.3,0-.4.1-.6.5-1.2,1-1.9,1.5,0,0,0,.1,0,.1.1,0,.3,0,.4-.1"/>
      <path class="cls-17" d="M774.2,67.6c0-2.8-1.1-5.5-2.9-7.6,0,0-.2-.2-.3-.2-.1,0-.2,0-.3,0-.6.3-1.3.6-1.8,1.1-.6.6-.8,1.5-.9,2.3-.2,1.8.2,3.7,1.1,5.3-2.7-.3-5.4,1.6-6.2,4.2.9.7,1.4,1.7,2.1,2.5.7.9,1.6,1.6,2.7,1.6.8,0,1.5-.5,2.1-1-.1,1.6.1,3.2.8,4.6.7,1.4,1.8,2.6,3.3,3.2-.6-2.6-.6-5.2-.2-7.8.4,1,.9,1.9,1.5,2.9.3.4.6.9,1,1.2.7.5,1.5.5,2.4.6-1.3-2.4-2.2-5.1-2.7-7.7,1.4-.7,2.3-2.1,2.8-3.5.5-1.5.6-3.1.5-4.6-1.9.6-3.7,1.7-5.1,3"/>
      <path class="cls-37" d="M775.2,69.9c-1,.2-3.3.5-4.4.7,0,0-.2,0-.2,0,0,0,0,.2-.1.2,0,.5-.2,1.1-.2,1.6,0,.7,0,1.4.4,1.9.5.5,1.3.6,2.1.6.9,0,1.9,0,2.8,0"/>
      <path class="cls-10" d="M774.2,73.8c-.7,0-1.3,0-2,0-.1,0-.3,0-.3.2,0,.1.1.2.2.1.6,0,1.3,0,1.9,0,.1,0,.3,0,.3-.2,0-.1,0-.2-.2-.2"/>
      <path class="cls-10" d="M774.4,73.2c-.9,0-1.8,0-2.8,0-.1,0-.3,0-.3.1,0,.1,0,.2.1.2.9,0,1.8,0,2.8,0,.1,0,.3,0,.3-.1,0-.1,0-.2-.1-.2"/>
      <path class="cls-10" d="M774,72.3c-.9,0-1.8,0-2.6.2,0,0-.3,0-.3.2,0,0,.2,0,.2,0,.8,0,1.6-.1,2.4-.1.1,0,.3,0,.4-.1,0,0,0-.1,0-.1"/>
      <path class="cls-10" d="M773.3,71.3c-.6,0-1.1.1-1.7.2-.1,0-.3,0-.3.2,0,.1.1.2.2.2.6,0,1.1-.1,1.7-.2.1,0,.3,0,.3-.2,0-.1-.1-.2-.2-.2"/>
      <path class="cls-8" d="M768,111.5c1.1-8,6.4-15.3,13.6-18.9-4.5,3.9-8,8.8-10.3,14.3-.8,1.9-1.4,2.6-1.4,4.7"/>
      <path class="cls-21" d="M735.1,73.5c-.6.7-.6,1.7-.5,2.6,0,.3,0,.6.2.9.2.2.5.3.7.5.6.5.2,1.7.9,2.1.5.3,1.2-.1,1.7.2.2.2.3.5.4.7.5.6,1.4.4,2.2.2.4-.1.9-.3,1.1-.8,0-.2,0-.4.2-.5,0-.1.2-.2.3-.2.5-.3.8-1,.7-1.6,0-.6-.2-1.2-.5-1.7-.3-.7-.6-1.4-1-2.1-.1-.3-.3-.6-.5-.8-.4-.3-.9-.4-1.4-.6-.2-.1-.3-.3-.5-.4-.6-.3-1.3-.2-2,0-.7.2-1.4.4-2,.8"/>
      <path class="cls-21" d="M775.4,74.8c.3.2.8.4,1.2.3.4,0,.8-.3,1-.7,0-.1.1-.3.2-.4,0-.1.2-.2.4-.3.3-.2.4-.6.4-1,0-.2-.1-.5-.1-.7,0-.2,0-.4,0-.6,0-.9-.9-1.6-1.8-1.8-.4-.1-.9-.2-1.3,0-.5.2-.8.7-.9,1.2-.1.4,0,.9,0,1.4,0,.2.2.5.3.7,0,.2,0,.3,0,.5,0,.7.5,1.3,1.2,1.5"/>
      <path class="cls-41" d="M508.9,471.7c0,10.4-8.5,18.9-18.9,18.9s-18.9-8.5-18.9-18.9,8.5-27.8,18.9-27.8,18.9,17.4,18.9,27.8"/>
    </g>
    <rect class="cls-11" x="487.1" y="476.3" width="4.3" height="27.8"/>
    <path class="cls-41" d="M792.9,405.1c0,11.5-9.3,20.7-20.7,20.7s-20.7-9.3-20.7-20.7,9.3-30.5,20.7-30.5,20.7,19.1,20.7,30.5"/>
    <rect class="cls-5" x="0" y="0" width="980" height="700"/>
    <rect class="cls-11" x="769.1" y="410.2" width="4.7" height="30.5"/>
    <g class="cls-55">
      <path class="cls-41" d="M530.1,1132.4c0,17.4-14.1,31.6-31.6,31.6s-31.6-14.1-31.6-31.6,14.1-46.5,31.6-46.5,31.6,29,31.6,46.5"/>
      <path class="cls-41" d="M737.8,935c0,11.4-9.2,20.6-20.6,20.6s-20.6-9.2-20.6-20.6,9.2-30.3,20.6-30.3,20.6,18.9,20.6,30.3"/>
      <path class="cls-28" d="M588.2,613.6h70.5c16.8,0,28.1,17,21.7,32.5l-11.1,26.6c-4.9,11.7-16.3,19.4-29,19.4h-15.3c-7.1,0-12.3,6.7-10.4,13.6,2.6,9.6-4.6,19-14.5,19h-5.3c-8.8,0-16.5-6-18.6-14.6l-15-62.4c-4.2-17.4,9-34.1,26.9-34.1"/>
      <path class="cls-31" d="M614.2,631c-2.2,0-4,1.2-5.1,2.9h10.1c-1-1.7-2.9-2.9-5.1-2.9"/>
      <path class="cls-31" d="M630.1,631c-2.2,0-4,1.2-5.1,2.9h10.1c-1-1.7-2.9-2.9-5.1-2.9"/>
      <path class="cls-31" d="M645.9,631c-2.2,0-4,1.2-5.1,2.9h10.1c-1-1.7-2.9-2.9-5.1-2.9"/>
      <path class="cls-31" d="M661.7,631c-2.2,0-4,1.2-5.1,2.9h10.1c-1-1.7-2.9-2.9-5.1-2.9"/>
      <path class="cls-31" d="M622.6,642.3c-2.2,0-4,1.2-5.1,2.9h10.1c-1-1.7-2.9-2.9-5.1-2.9"/>
      <path class="cls-31" d="M638.5,642.3c-2.2,0-4,1.2-5.1,2.9h10.1c-1-1.7-2.9-2.9-5.1-2.9"/>
      <path class="cls-31" d="M654.3,642.3c-2.2,0-4,1.2-5.1,2.9h10.1c-1-1.7-2.9-2.9-5.1-2.9"/>
      <path class="cls-31" d="M585,666c-2.2,0-4,1.2-5.1,2.9h10.1c-1-1.7-2.9-2.9-5.1-2.9"/>
      <path class="cls-31" d="M600.8,666c-2.2,0-4,1.2-5.1,2.9h10.1c-1-1.7-2.9-2.9-5.1-2.9"/>
      <path class="cls-31" d="M593,675.8c-2.2,0-4,1.2-5.1,2.9h10.1c-1-1.7-2.9-2.9-5.1-2.9"/>
      <path class="cls-31" d="M608.8,675.8c-2.2,0-4,1.2-5.1,2.9h10.1c-1-1.7-2.9-2.9-5.1-2.9"/>
      <path class="cls-31" d="M624.6,675.8c-2.2,0-4,1.2-5.1,2.9h10.1c-1-1.7-2.9-2.9-5.1-2.9"/>
      <path class="cls-41" d="M470,117.1c0,9.5-7.7,17.1-17.1,17.1s-17.1-7.7-17.1-17.1,7.7-25.2,17.1-25.2,17.1,15.8,17.1,25.2"/>
    </g>
    <rect class="cls-11" x="450.3" y="121.3" width="3.9" height="25.2"/>
    <g class="cls-53">
      <path class="cls-41" d="M487.2,134.5c0,6.6-5.4,12-12,12s-12-5.4-12-12,5.4-17.7,12-17.7,12,11,12,17.7"/>
    </g>
    <rect class="cls-11" x="473.4" y="137.5" width="2.7" height="17.7"/>
    <path class="cls-41" d="M606.1,311.4c0,8.8-7.2,16-16,16s-16-7.2-16-16,7.2-23.5,16-23.5,16,14.7,16,23.5"/>
    <rect class="cls-5" x="0" y="0" width="980" height="700"/>
    <rect class="cls-11" x="587.7" y="315.3" width="3.6" height="23.5"/>
    <g class="cls-54">
      <path class="cls-15" d="M802.5,292.7c6.9,0,12.5-5.6,12.5-12.5s-5.6-12.5-12.5-12.5-12.5,5.6-12.5,12.5,5.6,12.5,12.5,12.5"/>
      <path class="cls-15" d="M780.5,322.7c6.9,0,12.5-5.6,12.5-12.5s-5.6-12.5-12.5-12.5-12.5,5.6-12.5,12.5,5.6,12.5,12.5,12.5"/>
      <path class="cls-15" d="M362.5,412.7c6.9,0,12.5-5.6,12.5-12.5s-5.6-12.5-12.5-12.5-12.5,5.6-12.5,12.5,5.6,12.5,12.5,12.5"/>
    </g>
    <path class="cls-40" d="M364.3,399.2c1-.6,1.4-1.7,1.4-2.9,0-2.7-1.8-4-5.2-4.1-.5,0-1.1,0-1.7,0,0,.7,0,2.2,0,2.8h1.3c1.7,0,2.5.5,2.5,1.4s-.6,1.6-2.3,1.6-.7,0-1.1,0c0,.8,0,2.1,0,2.7.3,0,.7,0,1.1,0,2.1,0,3,.6,3,1.7s-.8,1.8-2.9,1.8h-1.8c0,.7,0,2.2,0,3,.6,0,1.6,0,2.2,0,3.9,0,5.7-1.8,5.7-4.5s-.7-2.9-2.1-3.6"/>
    <path class="cls-40" d="M778.6,305.2c1.8,0,2.6.6,2.6,1.8s-.5,2.3-2,4c-.7.8-2.1,2.4-3,3.3,0,.9,0,1.9,0,2.8,1.3,0,7.3,0,8.5,0,0-.7,0-2.2,0-3-1,0-2.7,0-4.3,0,.7-.7,1.7-1.7,2.4-2.6,1.2-1.5,1.6-2.9,1.6-4.9,0-2.9-1.7-4.6-5.6-4.6s-1.7,0-2.4,0c0,.8,0,2.2,0,3,.6,0,1.4,0,2.2,0"/>
    <path class="cls-40" d="M801.5,287.2c.7.1,2.6.1,3.2,0,.1-.9.1-14,0-14.9-.6-.1-4.6-.1-5.3,0,0,.8,0,2.4,0,3,.7,0,1.3,0,2,0,0,4.6,0,11.2,0,11.9"/>
    <rect class="cls-19" x="0" y="0" width="209" height="209"/>
    <path class="cls-38" d="M130.4,134.9c0-1.3,0-5.6,0-6.8,7.2.1,11.3.1,13,0,.1-2.1.1-14.9,0-17-1.6-.1-18.1-.1-19.7,0-.2,1.5-.2,4.3,0,5.9,1.8,0,11.6,0,13.3,0,.1,1.9.1,4.1,0,5.3-1.8-.1-11.3-.1-13,0-.2,2.1-.2,16.5,0,18.5,2.5.2,18,.2,20.6,0,.2-1.2.2-4.7,0-5.9-1.6-.1-7.2-.1-14.1,0M156.1,122.5c-.6,0-1.9-.1-3.2-.1,0-6,0-11.2-.2-12-1.3-.2-4.9-.2-6.2,0-.2,1.9-.2,29.8,0,31.7,1.5.3,5.1.3,6.2,0,.1-.8.2-6.9.2-13.5,1.3,0,2.6,0,3.2-.1.2-.8.2-5,0-5.9M105.7,134.9c-.1-1.3-.1-16.9,0-18,1.2,0,2,0,3.5,0,.1-1.4.1-4.8,0-5.8-2.4-.1-8-.1-9.8,0-.3,3.5-.3,26.2,0,29.7,2.5.1,9,.1,11.1,0,.2-1.3.2-4.9,0-5.9-1.6,0-4.2,0-4.9,0M98,117c.2-1.4.2-4.8,0-5.8-2.5-.1-8.2-.1-10,0-.3,3.5-.3,26.2,0,29.7,2.5.1,7.8.1,9.9,0,.2-1.3.2-4.9,0-5.9-1.6,0-2.6,0-3.7,0-.1-1.3-.1-16.9,0-18,.9,0,2,0,3.7,0M122,121.9c-.6,0-1.9-.2-3.2-.2,0-5.7,0-10.6-.2-11.3-1.3-.2-4.9-.2-6.2,0-.2,1.9-.2,29.8,0,31.7,1.5.3,5.1.3,6.2,0,.1-.9.2-7.4.2-14.4,1.3,0,2.6,0,3.2-.1.2-.8.2-4.9,0-5.7M48.7,130.2c-.1,1.1-.1,4.8,0,5.6,1.7,0,21.2,0,23,0,0,1.4,0,5.5,0,6.6,1.6.1,4.9.1,6.4,0,.2-1.5.2-10.7,0-12.3-1.9-.2-27.5-.2-29.4,0M58.2,115.6c2.8,0,4.6,1.4,4.6,3.7s-1.8,3.7-4.6,3.7-4.6-1.4-4.6-3.7,1.8-3.7,4.6-3.7M58.2,128.3c5.5,0,9.3-2.4,10.3-6.5,1.1,0,2.3,0,3.3,0,0,3.4,0,6.3.1,7.1,1.5.1,5.1.1,6.2,0,.3-1.9.3-16.6,0-18.5-1.3-.2-4.9-.2-6.2,0,0,.7-.1,2.9-.1,5.7-1.1,0-2.4,0-3.6,0-1.3-3.7-4.9-5.8-10.1-5.8s-10.7,3.5-10.7,9.1,4.1,9.1,10.7,9.1M45.5,129.5c-1.9-.1-26.5-.2-28,0-.3,1.4-.3,4.3,0,5.8.6,0,5.4.1,10.8.1,0,2.5,0,5.6.1,6.9,1.5.2,5.1.2,6.2,0,.1-1.3.1-4.4.1-6.9,5.3,0,10,0,10.8-.1.3-1.3.3-4.3,0-5.8M20.4,128.5c1.3-.5,7.6-3.7,11.1-5.6,3.5,1.9,9.8,5.1,11.1,5.6.9-.9,2.8-4.2,3-5.4-.9-.6-5-2.6-8.5-4.2,3.9,0,7,0,7.7-.1.3-1.2.3-4.8,0-5.8-.7-.1-5-.2-9.9-.2,0-1.4,0-2.9-.2-3.7-1.3-.2-5.3-.2-6.5,0-.1.8-.1,2.3-.1,3.7-4.8,0-9.1,0-9.9.2-.2,1-.2,4.7,0,5.8.6,0,3.7.1,7.7.1-3.5,1.6-7.6,3.6-8.5,4.2.1,1.2,2.1,4.5,3,5.4"/>
    <path class="cls-38" d="M99.7,88.7c0-1.3,0-5.6,0-6.8,7.2.1,11.3.1,13,0,.2-2.1.2-14.9,0-17-1.6-.1-18.1-.1-19.7,0-.2,1.5-.2,4.3,0,5.9,1.8,0,11.6,0,13.3,0,.1,1.9.1,4.1,0,5.3-1.8-.1-11.3-.1-13,0-.2,2.1-.2,16.5,0,18.5,2.5.2,18,.2,20.6,0,.2-1.2.2-4.7,0-5.9-1.6-.1-7.2-.1-14.1,0M125.4,76.3c-.6,0-1.9-.1-3.2-.1,0-6,0-11.2-.2-12-1.3-.2-4.9-.2-6.2,0-.2,1.9-.2,29.8,0,31.7,1.5.3,5.1.3,6.2,0,.1-.8.2-6.9.2-13.5,1.3,0,2.6,0,3.2-.1.2-.8.2-5,0-5.9M75,88.7c-.1-1.3-.1-16.9,0-18,1.2,0,2,0,3.5,0,.1-1.4.1-4.8,0-5.8-2.4-.1-8-.1-9.8,0-.3,3.5-.3,26.2,0,29.7,2.5.1,9,.1,11.1,0,.2-1.3.1-4.9,0-5.9-1.6,0-4.2,0-4.9,0M67.2,70.8c.1-1.4.1-4.8,0-5.8-2.5-.1-8.2-.1-10,0-.3,3.5-.3,26.2,0,29.7,2.5.1,7.8.1,9.9,0,.2-1.3.2-4.9,0-5.9-1.6,0-2.6,0-3.7,0-.1-1.3-.1-16.9,0-18,.9,0,2,0,3.7,0M91.3,75.7c-.6,0-1.9-.2-3.2-.2,0-5.7,0-10.6-.2-11.3-1.3-.2-4.9-.2-6.2,0-.2,1.9-.2,29.8,0,31.7,1.5.3,5.1.3,6.2,0,.1-.9.2-7.4.2-14.4,1.3,0,2.6,0,3.2-.1.2-.8.2-4.9,0-5.7M28.9,82.7c-1.8,1.4-7.2,5.7-10.9,8.7.7,1.6,2.7,3.9,4,4.9,3.4-2.4,7.4-5.7,10.5-8.5,3.1,2.8,7.1,6.2,10.5,8.5,1.4-1,3.3-3.3,4-4.9-3.7-3-9.1-7.3-10.9-8.7-1.8-.1-5.5-.1-7.3,0M24.5,69.9c1.3,0,4.9,0,6.3,0,.1,1.2.1,4.5,0,5.7-1.3,0-4.9,0-6.3,0-.1-1.2-.1-4.6,0-5.7M36.9,80.9c.3-1.8.3-14.4,0-16.2-2-.2-16.6-.2-18.5,0-.3,1.8-.3,14.4,0,16.2,1.8.2,16.8.2,18.5,0M48.9,70.8c-.6,0-1.9-.1-3.2-.1,0-3.1,0-5.8-.2-6.5-1.3-.2-4.9-.2-6.2,0-.1,1.9-.1,17.2,0,19.1,1.5.1,5.1.1,6.2,0,0-.7.2-3.5.2-6.7,1.3,0,2.6,0,3.2-.1.2-.8.2-4.8,0-5.6"/>
    <path class="cls-40" d="M95.6,25.2c3.6,0,5.1,1.1,5.1,3.5s-1,4.5-4,8c-1.4,1.6-4.1,4.8-5.8,6.5-.2,1.7-.2,3.8,0,5.6,2.6.1,14.4.1,16.7,0,.1-1.3.1-4.3,0-5.8-2,0-5.3,0-8.4,0,1.5-1.3,3.3-3.4,4.7-5.2,2.4-2.9,3.2-5.7,3.2-9.6,0-5.7-3.3-9-11-9s-3.4,0-4.7.1c-.1,1.5,0,4.4,0,5.9,1.3,0,2.8,0,4.3,0M71.4,58c.9-1.5,11.1-26.5,11.7-28.4-1.1-.7-4.8-1.8-6.1-2-.6,1.6-2.7,6.9-4.6,12.4-2-5.5-4-10.8-4.6-12.4-1.3.2-5,1.3-6.1,2,.6,1.9,5.6,14.8,7.3,18.2-1.5,3.6-3.1,7.7-3.3,8.5,1.2.7,4.3,1.6,5.7,1.7M52.1,44.1c-1.9,0-2.8-.6-2.8-1.8s.9-1.9,2.8-1.9,2.5.7,2.5,1.9-.9,1.9-2.5,1.9M60.9,36.4c-.2-5.2-3.4-8.4-9.5-8.7-2.2-.1-5.5.2-7.1.7,0,1.5.4,4.2.8,5.6,1.9-.4,3.9-.7,5.1-.7,3,0,4.2.9,4.5,3.4-1.1-.6-2.4-.9-3.9-.9-5.1,0-7.7,2.2-7.7,6.6s2.5,6.7,7.7,6.7,2.8-.4,3.9-1c0,.3,0,.6,0,.8,1.4.2,4.9.2,6.1,0,.2-1.9.2-9.2,0-12.5M24.8,42.8v-17.2h3.1c4.8,0,7.4,3.1,7.4,8.5s-2.7,8.8-7.4,8.8h-3.1ZM18.4,48.8c2.5.3,6.9.2,9.1,0,8.6-.4,14.4-5.1,14.4-14.9s-5.8-14.4-14.4-14.6c-2.5,0-6.5,0-9.1,0-.3,1.9-.3,27.6,0,29.4"/>
    <path class="cls-46" d="M0,630.7h295.5c22.1,0,40-17.9,40-40v-85.3c0-22.1-17.9-40-40-40H0"/>
    <path class="cls-15" d="M169.9,478.7c6.6,0,12-5.4,12-12s-5.4-12-12-12-12,5.4-12,12,5.4,12,12,12"/>
    <path class="cls-15" d="M169.9,645c6.6,0,12-5.4,12-12s-5.4-12-12-12-12,5.4-12,12,5.4,12,12,12"/>
    <path class="cls-15" d="M335.3,561.8c6.6,0,12-5.4,12-12s-5.4-12-12-12-12,5.4-12,12,5.4,12,12,12"/>
    <path class="cls-40" d="M169,473.1c.7.1,2.4.1,2.9,0,.1-.9.1-12.8,0-13.6-.6-.1-4.2-.1-4.8,0,0,.7,0,2.2,0,2.8.6,0,1.2,0,1.8,0,0,4.2,0,10.3,0,10.9"/>
    <path class="cls-40" d="M333.6,545.2c1.7,0,2.4.5,2.4,1.6s-.5,2.1-1.9,3.7c-.6.7-1.9,2.2-2.7,3,0,.8,0,1.8,0,2.6,1.2,0,6.7,0,7.7,0,0-.6,0-2,0-2.7-.9,0-2.5,0-3.9,0,.7-.6,1.5-1.6,2.2-2.4,1.1-1.3,1.5-2.6,1.5-4.4,0-2.7-1.5-4.2-5.1-4.2s-1.6,0-2.2,0c0,.7,0,2,0,2.7.6,0,1.3,0,2,0"/>
    <path class="cls-40" d="M171.6,632c1-.6,1.2-1.6,1.2-2.6,0-2.5-1.6-3.7-4.8-3.8-.5,0-1,0-1.5,0,0,.6,0,2,0,2.6h1.2c1.5,0,2.3.4,2.3,1.2s-.6,1.4-2.1,1.4-.7,0-1,0c0,.7,0,1.9,0,2.5.3,0,.6,0,1,0,2,0,2.7.5,2.7,1.5s-.7,1.6-2.6,1.6h-1.6c0,.7,0,2,0,2.7.6,0,1.5,0,2,0,3.5,0,5.2-1.6,5.2-4.1s-.6-2.7-1.9-3.3"/>
    <path class="cls-19" d="M200.9,507.8c-2.5,0-4.1-2-4.1-6.9s1.6-6.9,4.1-6.9,4.1,2,4.1,6.9-1.6,6.9-4.1,6.9M210.4,492.6c-.3,0-.7,0-1,0,0,.4,0,3.7,0,7.3-1.1,0-2.5,0-3.4,0-.3-4.9-2.3-6.8-5.1-6.8s-5.1,2.2-5.1,7.8,2.1,7.8,5.1,7.8,5.1-2.2,5.1-7.8h0c.9,0,2.3,0,3.4,0,0,4.1,0,8.2,0,8.7.4,0,.7,0,1,0,0-1,0-15.9,0-16.9M194.2,504.3c-1,0-11.4,0-12.2,0,0,.2,0,.7,0,.9.4,0,2.9,0,5.6,0,0,1.1,0,3.6,0,4.5.3,0,.8,0,1,0,0-.9,0-3.4,0-4.5,2.6,0,5.1,0,5.6,0,.1-.2,0-.7,0-.9M193.7,502.5c0-.2,0-.6,0-.9-1.3,0-8.5,0-9.9,0,0-.3,0-1.8,0-3.4,1.8,0,8.5,0,9.4,0,0-.2,0-.7,0-.9-.9,0-7.6,0-9.4,0,0-1.5,0-2.9,0-3.2,1.1,0,8.3,0,9.7,0,0-.3,0-.5,0-.8-1.4-.1-9.7-.1-10.6,0-.1,1.7-.1,7.5,0,9.2,1.3,0,9.7,0,10.8,0M180.5,508.1c-.2,0-2.5,0-4.9,0,0-1.1,0-3.3,0-4.5,2,0,4,0,4.4,0,0-.2,0-.6,0-.9-.9,0-8,0-8.7,0v-3.8h8.2c0-.7,0-4.9,0-5.6-.9,0-8.4,0-9.2,0-.1.3-.1.6,0,.9.9,0,7.3,0,8.3,0v3.8c-.6,0-7.2,0-8.1,0-.1.8-.1,4.8,0,5.6.6,0,2.3,0,4.2,0,0,1.1,0,3.4,0,4.5-2.5,0-4.9,0-5.1,0,0,.2,0,.6,0,.9.4,0,10.6,0,11,0,0-.3,0-.6,0-.9M168.1,508.1c-.5,0-12.2,0-12.6,0,0,.2,0,.6,0,.9.4,0,12.2,0,12.6,0,0-.3,0-.6,0-.9M167.4,503.9c0-.2,0-.6,0-.9-1.3,0-8.7,0-10.1,0,0-.3,0-2.1,0-4,1.8,0,8.7,0,9.6,0,0-.2,0-.7,0-.9-1,0-7.8,0-9.6,0,0-1.9,0-3.6,0-3.9,1.1,0,8.5,0,9.9,0,0-.3,0-.5,0-.8-1.4-.1-9.9-.1-10.8,0-.1,1.7-.1,8.7,0,10.5,1.3,0,9.9,0,11,0M141.8,508.9c.4,0,11.8,0,12.2,0,0-.3,0-.6,0-.9-.5,0-11.8,0-12.2,0,0,.2,0,.6,0,.9M142.7,504.1c.9-1.6,4.3-8.2,5.3-10.1.9,1.9,4.4,8.5,5.3,10.1.3,0,.7-.2.8-.4-.8-1.6-4.2-8.2-5.7-10.8-.2,0-.6,0-.8,0-1.4,2.6-4.9,9.2-5.7,10.8.1.2.5.4.8.4M128.3,493.4c0,.3,0,.7,0,.9.9,0,2.9,0,4.8,0,0,1.2,0,13.3,0,14.3.3.1.8.1,1,0,0-1,0-14,0-15.2-.6,0-4.5,0-5.9,0M141,500.2c-.6,0-1.8,0-2.6,0,0-3.6,0-7.1,0-7.5-.2-.1-.8-.1-1,0,0,1,0,16,0,16.9.2.1.9.1,1,0,0-.5,0-4.5,0-8.4.8,0,2,0,2.6,0,0-.2,0-.8,0-.9"/>
    <path class="cls-19" d="M307.7,571.6c1.6.1,7.8,0,9.2,0,.1-.2.1-.7,0-.9-1.4,0-7.5,0-8.2,0v-2.3c.8,0,6.3,0,7.6,0,.1-.6.1-3.2,0-3.9-1.1,0-7.5,0-8.7,0-.1.3-.1.6,0,.9h7.7v2.2c-.9,0-5.9,0-7.6,0-.1.9-.1,3.2,0,4M306.8,562.6c1,0,9.2,0,10.4,0,0-.2,0-.7,0-.9-1.2,0-9.4,0-10.4,0,0,.3,0,.7,0,.9M312,559.3c-2.5,0-3.4-.8-3.4-2s1-2,3.4-2,3.4.8,3.4,2-1,2-3.4,2M312,560.2c3.1,0,4.5-1.2,4.5-2.9s-1.4-2.9-4.5-2.9-4.5,1.2-4.5,2.9,1.4,2.9,4.5,2.9M298,569.6c-.4,0-5.4,0-5.8,0,0-1.4,0-12,0-13.3.4,0,5.4,0,5.8,0,0,1.3,0,12,0,13.3M291.2,555.4c-.1,1-.1,14.1,0,15.1,1,0,6.8,0,7.8,0,.1-1.1.1-14.1,0-15.1-1.1-.2-6.8-.2-7.8,0M306,562.1c-.6,0-1.8,0-2.6,0,0-3.6,0-7.1,0-7.5-.2-.1-.8-.1-1,0,0,1,0,16,0,16.9.2.1.9.1,1,0,0-.5,0-4.5,0-8.4.8,0,2,0,2.6,0,0-.2,0-.8,0-.9M289.5,561.8c-.6,0-2,0-2.9,0,0-3.5,0-6.8,0-7.2-.2-.1-.8-.1-1,0,0,1,0,16,0,16.9.2.1.9.1,1,0,0-.5,0-4.7,0-8.7,1,0,2.4,0,2.9,0,0-.2,0-.8,0-.9M282.9,558.3c0-.2,0-.8,0-.9-.5,0-3,0-5.7,0,0-1.1,0-2.5,0-3.3-.2-.1-.8-.1-1,0,0,.8,0,2.2,0,3.3-2.7,0-5.3,0-5.8,0-.1.1-.1.8,0,.9h5.4c-1.4,2.9-5.6,11.9-5.7,12.2.2.2.6.3.9.3.2-.3,4.5-9.5,5.7-12.3,1.3,2.8,5.6,11.9,5.8,12.2.3,0,.7-.1.9-.3-.1-.3-4.4-9.2-5.7-12.1h5.2ZM261.9,570.6c.3.1.8.1,1,0,0-1,0-14,0-15.2-.6,0-5,0-6.3,0,0,.3,0,.7,0,.9.9,0,3.4,0,5.3,0,0,1.2,0,13.3,0,14.3M266.5,571.5c.4,0,.7,0,1,0,0-1,0-15.9,0-16.9-.3,0-.7,0-1,0,0,1,0,16,0,16.9"/>
    <path class="cls-19" d="M310.4,545c-3.7,0-5.2-1-5.2-2.1s1.5-2.2,5.2-2.2,5.2,1,5.2,2.2-1.5,2.1-5.2,2.1M310.4,539.7c-4.1,0-6.3,1.2-6.3,3.1s2.2,3.1,6.3,3.1,6.3-1.2,6.3-3.1-2.2-3.1-6.3-3.1M317.2,537.2c-.6,0-3.3,0-6.2,0,0-.7,0-1.7,0-2.4,2.5,0,4.9,0,5.4,0,0-.2,0-.6,0-.9-1.3,0-9.7,0-11.1,0v-3.8c1.1,0,9.6,0,10.9,0,0-.3,0-.5,0-.8-1.4-.1-10.9-.1-11.9,0-.1,1.7-.1,3.8,0,5.5.6,0,3.1,0,5.6,0,0,.7,0,1.7,0,2.4-3,0-5.9,0-6.4,0,0,.3,0,.7,0,.9,1,0,12.4,0,13.6,0,0-.3,0-.7,0-.9M302,544.2c-.9,0-11.8,0-13.7,0,0-1.1,0-3.2,0-4.1-.3-.1-.8-.1-1,0,0,1,0,3.8,0,5,.6,0,13.4,0,14.7,0,0-.3,0-.7,0-.9M300.2,534.4c0,3,0,6,0,6.6.3,0,.8,0,1,0,0-1,0-11.4,0-12.4-.2-.1-.8-.1-1,0,0,.4,0,2.6,0,4.9-1.2,0-3.3,0-4,0-.1.2-.1.7,0,.9.6,0,2.8,0,4,0M295.3,539c.3,0,.6-.2.8-.5-.1-.3-2.9-5.1-4-7,1.8,0,3.3,0,3.8,0,0-.2,0-.7,0-.9-.5,0-2.3,0-4.3,0,0-.9,0-1.7,0-2.6-.2-.1-.8-.1-1,0,0,.9,0,1.6,0,2.6-1.9,0-3.8,0-4.3,0,0,.2,0,.7,0,.9.5,0,2,0,3.8,0-1.1,1.9-3.7,6.7-3.9,7.1.2.2.5.4.8.5.2-.3,3.2-5.6,4.1-7.4.9,1.8,3.9,7,4.2,7.3M276.3,544.7c-4.6,0-6.4-1.1-6.4-2.7s1.8-2.7,6.4-2.7,6.4,1.1,6.4,2.7-1.8,2.7-6.4,2.7M276.3,538.4c-5.2,0-7.5,1.5-7.5,3.6s2.3,3.6,7.5,3.6,7.5-1.5,7.5-3.6-2.3-3.6-7.5-3.6M273,529.9c2.4,0,3.8,1.3,3.8,3.1s-1.4,3.1-3.8,3.1-3.8-1.3-3.8-3.1,1.4-3.1,3.8-3.1M273,537.1c3,0,4.9-1.6,4.9-4.1s-1.9-4.1-4.9-4.1-4.9,1.6-4.9,4.1,1.9,4.1,4.9,4.1M278.8,534.8c0,.2,0,.7,0,.9.6,0,2.5,0,3.5,0,0,1,0,1.8,0,2.1.3,0,.8,0,1,0,0-1,0-8.2,0-9.2-.2-.1-.8-.1-1,0,0,.3,0,1.1,0,2.1-1.1,0-2.9,0-3.5,0,0,.2,0,.7,0,.9.6,0,2.5,0,3.5,0,0,1.1,0,2.2,0,3.3-1.1,0-2.9,0-3.5,0"/>
    <path class="cls-19" d="M190.5,673.1c1.6.1,7.8,0,9.2,0,.1-.2.1-.7,0-.9-1.4,0-7.5,0-8.2,0v-2.3c.8,0,6.3,0,7.6,0,.1-.6.1-3.2,0-3.9-1.1,0-7.5,0-8.7,0,0,.3,0,.6,0,.9h7.7v2.2c-.9,0-5.9,0-7.6,0-.1.9-.1,3.2,0,4M189.6,664.1c1,0,9.2,0,10.4,0,0-.2,0-.7,0-.9-1.2,0-9.4,0-10.4,0,0,.3,0,.7,0,.9M194.8,660.8c-2.5,0-3.4-.8-3.4-2s1-2,3.4-2,3.4.8,3.4,2-1,2-3.4,2M194.8,661.7c3.1,0,4.5-1.2,4.5-2.9s-1.4-2.9-4.5-2.9-4.5,1.2-4.5,2.9,1.4,2.9,4.5,2.9M180.7,671.1c-.4,0-5.4,0-5.8,0,0-1.4,0-12,0-13.3.4,0,5.4,0,5.8,0,0,1.3,0,12,0,13.3M173.9,656.9c-.1,1-.1,14.1,0,15.1,1,0,6.8,0,7.8,0,.1-1.1.1-14.1,0-15.1-1.1-.2-6.8-.2-7.8,0M188.8,663.6c-.6,0-1.8,0-2.6,0,0-3.6,0-7.1,0-7.5-.2-.1-.8-.1-1,0,0,1,0,16,0,16.9.2.1.9.1,1,0,0-.5,0-4.5,0-8.4.8,0,2,0,2.6,0,0-.2,0-.8,0-.9M171.7,671.5c-.2,0-3.1,0-6.2,0,0-1.6,0-6.4,0-7-.3,0-.7,0-1,0,0,.6,0,5.4,0,7-3.2,0-6.2,0-6.4,0,0,.2,0,.6,0,.9.4,0,13.2,0,13.6,0,0-.3,0-.6,0-.9M158.9,666.5c1-1.4,4.9-7.5,6-9.2,1.1,1.7,5,7.8,6,9.2.3,0,.6-.3.8-.5-.9-1.4-4.8-7.4-6.4-9.7-.2,0-.6,0-.8,0-1.6,2.3-5.5,8.3-6.4,9.7.1.2.5.5.8.5M156.5,671.7c-.9,0-12.2,0-14.1,0,0-1.1,0-3.7,0-4.6-.3-.1-.8-.1-1,0,0,1,0,4.3,0,5.5.6,0,13.8,0,15.1,0,0-.3,0-.7,0-.9M150.8,665.8c.3,0,.6-.2.8-.4-.1-.4-3.5-5.7-4.7-7.7,2.1,0,4.1,0,4.5,0,.1-.2.1-.7,0-.9-1.1,0-10,0-11.1,0-.1.2-.1.7,0,.9.5,0,2.4,0,4.5,0-1.2,2-4.4,7.4-4.6,7.8.2.2.5.4.8.4.3-.3,3.8-6.3,4.8-8.1,1.1,1.9,4.6,7.8,4.9,8.1M155.7,668.5c0-1,0-11.4,0-12.4-.2-.1-.8-.1-1,0,0,1,0,11.4,0,12.4.3,0,.8,0,1,0"/>
    <path class="cls-43" d="M843.5,201.1l-28.6.6.3,13.3c.1,5.8.9,11.5,2.2,17.1h0c1.7,7.2,2.4,14.5,2.2,21.8l-.3,8.1,22.4-.5-.6-8c-.6-7.3-.1-14.7,1.3-21.9,1.1-5.7,1.6-11.6,1.5-17.4l-.3-13.1Z"/>
    <path class="cls-35" d="M821.5,209.9c-.1,0-.3,0-.4,0-.9,0-1.6.7-1.5,1.6l.2,9.4c0,.7.5,1.3,1.2,1.5.1,0,.3,0,.4,0,.9,0,1.6-.7,1.5-1.6l-.2-9.4c0-.7-.5-1.3-1.2-1.5"/>
    <path class="cls-35" d="M822.3,224.2c-.2,0-.4,0-.7,0-.9.2-1.4,1-1.3,1.8l.5,2.7c.1.6.6,1.1,1.1,1.2.2,0,.4,0,.7,0,.9-.2,1.4-1,1.3-1.8l-.5-2.7c-.1-.6-.6-1.1-1.1-1.2"/>
    <path class="cls-23" d="M843.5,201.1c0,2.6-6.3,4.9-14.2,5.1-7.9.2-14.4-1.8-14.4-4.5,0-2.6,6.3-4.9,14.2-5.1,7.9-.2,14.4,1.8,14.4,4.5"/>
    <path class="cls-38" d="M820.8,198.6c1.6,2.1,1.2,5.1-.9,6.7-2.1,1.6-5.1,1.2-6.7-.9-1.6-2.1-1.2-5.1.9-6.7,2.1-1.6,5.1-1.2,6.7.9"/>
    <path class="cls-38" d="M839.5,197.4c1.4,1.9,1.1,4.5-.8,5.9-1.9,1.4-4.5,1.1-5.9-.8-1.4-1.9-1.1-4.5.8-5.9,1.9-1.4,4.5-1.1,5.9.8"/>
    <path class="cls-38" d="M843.4,198.6c1.1,1.5.8,3.6-.6,4.7-1.5,1.1-3.6.8-4.7-.6-1.1-1.5-.8-3.6.6-4.7,1.5-1.1,3.6-.8,4.7.6"/>
    <path class="cls-38" d="M832.5,194c2.8,3.7,2.1,9-1.6,11.8-3.7,2.8-9,2.1-11.8-1.6-2.8-3.7-2.1-9,1.6-11.8,3.7-2.8,9-2.1,11.8,1.6"/>
    <path class="cls-38" d="M837.2,207.3c-1.6-1.4-1.7-3.8-.3-5.3,1.4-1.6,3.8-1.7,5.3-.3,1.6,1.4,1.7,3.8.3,5.3-1.4,1.6-3.8,1.7-5.3.3"/>
    <path class="cls-38" d="M825.3,209.4c-1.4-1.2-1.5-3.3-.3-4.7,1.2-1.4,3.3-1.5,4.7-.3,1.4,1.2,1.5,3.3.3,4.7-1.2,1.4-3.3,1.5-4.7.3"/>
    <path class="cls-38" d="M830.2,211.4c-2.1-1.9-2.3-5.1-.4-7.2,1.9-2.1,5.1-2.3,7.2-.4,2.1,1.9,2.3,5.1.4,7.2-1.9,2.1-5.1,2.3-7.2.4"/>
    <path class="cls-38" d="M834.5,221.8h0c-.9,0-1.7-.7-1.8-1.7l-.2-10.3c0-.9.7-1.7,1.7-1.8.9,0,1.7.7,1.8,1.7l.2,10.3c0,.9-.7,1.7-1.7,1.8"/>
    <path class="cls-38" d="M839.3,215.5h0c-.6,0-1.2-.5-1.2-1.1l-.2-9.8c0-.6.5-1.2,1.1-1.2.6,0,1.2.5,1.2,1.1l.2,9.8c0,.6-.5,1.2-1.1,1.2"/>
    <path class="cls-38" d="M845.3,193.5c.4.6.3,1.4-.2,1.8-.6.4-1.4.3-1.8-.2-.4-.6-.3-1.4.2-1.8.6-.4,1.4-.3,1.8.2"/>
    <path class="cls-38" d="M842,192.2c.3.3.2.8-.2,1.1-.3.3-.8.2-1.1-.1-.3-.3-.2-.8.1-1.1.3-.3.8-.2,1.1.1"/>
    <path class="cls-38" d="M815.8,192.3c.4.5.3,1.3-.2,1.7-.5.4-1.3.3-1.7-.2-.4-.5-.3-1.3.2-1.7.5-.4,1.3-.3,1.7.2"/>
    <path class="cls-16" d="M827.3,201.7c.8-.7,1.9-.9,2.9-.7.2,0,.3.1.5.2h0s0,0,0,0c.2-.8.7-1.6,1.4-2.2,1.1-1,2.6-1.2,3.9-.9.8.2,1.6.7,2.2,1.4.4.4.6,1,.8,1.5h0s0,0,0,0c.5-.2,1.1-.2,1.6,0,.5.1,1.1.5,1.4.9h0c-.4-.5-.9-.8-1.5-1-.5-.1-1.1-.1-1.7,0h0s0,0,0,0c-.2-.5-.4-1-.8-1.5-.6-.7-1.4-1.2-2.3-1.4-1.4-.4-2.9,0-4,.9-.7.6-1.2,1.4-1.4,2.3h0s0,0,0,0c-.2,0-.3-.1-.5-.2-1-.3-2.1,0-3,.7h0Z"/>
    <path class="cls-16" d="M824.8,196.8c-.2-.2-.4-.3-.7-.3-.5-.1-.9,0-1.4.1h0s0,0,0,0c-.2-.5-.5-1-.9-1.3-.3-.2-.6-.4-.9-.5-1-.3-2.1,0-2.7.9-.2.3-.4.6-.4.9h0c0-.3.2-.6.4-.9.6-.8,1.7-1.2,2.7-.9.3,0,.6.2.9.4.4.3.7.8.9,1.3h0s0,0,0,0c.4-.2.9-.2,1.3-.1s.5.2.7.3h0Z"/>
    <path class="cls-43" d="M841.6,261.5c0,2.6-4.9,4.9-11.1,5-6.2.1-11.2-1.9-11.3-4.5,0-2.6,4.9-4.9,11.1-5,6.2-.1,11.2,1.9,11.3,4.5"/>
    <path class="cls-1" d="M764.2,254.1c14.3,0,14.3-11.7,14.3-11.7h-28.7s0,11.7,14.3,11.7"/>
    <path class="cls-38" d="M778.5,242.4c0-3.3-6.4-6-14.3-6s-14.3,2.7-14.3,6,6.4,6,14.3,6,14.3-2.7,14.3-6"/>
    <path class="cls-2" d="M764.2,241c-6,0-11.1,1.5-13.2,3.7,2.2,2.2,7.3,3.7,13.2,3.7s11.1-1.5,13.2-3.7c-2.2-2.2-7.3-3.7-13.2-3.7"/>
    <path class="cls-13" d="M727,160.6c5.1,7,20.3-2.6,25.4,4.4,5.1,7,9.2,4,14.3,11,5.1,7,1,10,6.1,17,4.9,6.8,10.4,2.6,15.3,8.9l-.5,1.8-20.9,15.2c-5.1-7-9.7-4.8-14.8-11.8-5.1-7-1-10-6.1-17-5.1-7-9.2-4-14.3-11-5.1-7-.4-9.2-5.5-16.2l1-2.2Z"/>
    <path class="cls-27" d="M730.4,147.7l68.5,93.1-1.9,1.4-67.3-94c-.1-.2-.1-.5.1-.6.2-.1.5-.1.6.1"/>
    <path class="cls-24" d="M747.3,145.9c5.1,7,1,10,6.1,17,5.1,7,9.2,4,14.3,11,5.1,7,1,10,6.1,17,5.1,7,9.2,4,14.3,11l-20.3,14.8c-5.1-7-9.2-4-14.3-11-5.1-7-1-10-6.1-17-5.1-7-9.2-4-14.3-11-5.1-7-1-10-6.1-17l20.3-14.8Z"/>
    <polygon class="cls-29" points="796.9 242.2 798.9 240.8 771.5 203.6 770 204.7 796.9 242.2"/>
    <polygon class="cls-29" points="759.6 190.2 760.9 189.3 750.3 174.9 749.3 175.7 759.6 190.2"/>
    <path class="cls-29" d="M729.6,148.3l9.3,12.9.9-.7-9.4-12.8c-.2-.2-.4-.2-.6-.1s-.3.4-.1.6"/>
    <path class="cls-36" d="M729,252.4c0-.4-.3-.7-.7-.7h-14.2c-.4,0-.7.3-.7.7s.3.7.7.7h3.8v6c0,.3.3.6.6.6s.6-.2.6-.6v-6h1v6c0,.3.3.6.6.6s.6-.2.6-.6v-6h1.1v6c0,.3.2.6.5.6s.5-.2.5-.6v-6h1v6c0,.3.3.6.6.6s.6-.2.6-.6v-6h1.1v6c0,.3.3.6.6.6s.6-.2.6-.6v-6h.7c.4,0,.7-.3.7-.7"/>
    <path class="cls-38" d="M682.5,260.2l4.1-8.8s.3-.7,1.6-.7h26.4s1.4,0,1.6,1.3c.3,1.6,1.5,7.7,1.5,7.7l-35.2.5Z"/>
    <path class="cls-44" d="M738.3,248.9h2.7c.6,0,1.1.5,1.1,1.1v24.3c0,.6-.5,1.1-1.1,1.1h-2.7c-.6,0-1.1-.5-1.1-1.1v-24.2c0-.6.5-1.1,1.1-1.1Z"/>
    <rect class="cls-7" x="737.2" y="261.1" width="4.9" height="4.7"/>
    <rect class="cls-7" x="737.2" y="253" width="4.9" height="4.7"/>
    <rect class="cls-7" x="737.2" y="268.7" width="4.9" height="4.6"/>
    <path class="cls-44" d="M731.3,248.9h2.7c.6,0,1.1.5,1.1,1.1v24.3c0,.6-.5,1.1-1.1,1.1h-2.7c-.6,0-1.1-.5-1.1-1.1v-24.2c0-.6.5-1.1,1.1-1.1Z"/>
    <rect class="cls-7" x="730.2" y="253" width="4.7" height="4.7"/>
    <rect class="cls-7" x="730.2" y="261.1" width="4.7" height="4.7"/>
    <rect class="cls-7" x="730.2" y="268.7" width="4.7" height="4.6"/>
    <path class="cls-36" d="M743.3,267.6h-14.2c-.4,0-.7.3-.7.6s.3.6.7.6h3.7v6.1c0,.3.3.6.6.6s.6-.2.6-.6v-6.1h1.1v6.1c0,.3.3.6.6.6s.6-.2.6-.6v-6.1h1v6.1c0,.3.3.6.6.6s.6-.2.6-.6v-6.1h1.1v6.1c0,.3.3.6.6.6s.6-.2.6-.6v-6.1h1v6.1c0,.3.3.6.6.6s.6-.2.6-.6v-6.1h.7c.4,0,.7-.3.7-.6s-.3-.6-.7-.6"/>
    <path class="cls-38" d="M672.1,275.1l7.2-15.3s.6-1.1,2.9-1.1h46.1s2.4,0,2.9,2.1c.6,2.8,2.6,13.4,2.6,13.4l-61.5.8Z"/>
    <path class="cls-38" d="M664.9,275.4s3.3,5.5,4.9,7.7c2.6,3.7,3.1,6.5,3.2,6.7,0,.2.5,1,2.2,1h61.8s3.6-.6,3.8-3.7c.2-3,1.9-11.8,1.9-11.8h-77.8Z"/>
    <path class="cls-3" d="M743.3,275.2c0,.5-.4.9-.9.9h-76.9c-.5,0-.9-.4-.9-.9h0c0-.6.4-1,.9-1h76.9c.5,0,.9.4.9.9h0Z"/>
    <path class="cls-25" d="M671.2,285.3c1.4,2.9,1.8,4.4,1.8,4.5,0,.2.5,1.1,2.2,1.1h61.8s3.6-.7,3.8-3.7c0-.5.2-1,.2-1.9h-69.8Z"/>
    <path class="cls-25" d="M680.8,278.7c0,.5-.4.8-.8.8h-.6c-.5,0-.8-.4-.8-.8v-.6c0-.5.4-.8.8-.8h.6c.5,0,.8.4.8.8v.6Z"/>
    <path class="cls-25" d="M685.2,278.7c0,.5-.4.8-.8.8h-.6c-.5,0-.8-.4-.8-.8v-.6c0-.5.4-.8.8-.8h.6c.5,0,.8.4.8.8v.6Z"/>
    <path class="cls-25" d="M689.7,278.7c0,.5-.4.8-.8.8h-.6c-.5,0-.8-.4-.8-.8v-.6c0-.5.4-.8.8-.8h.6c.5,0,.8.4.8.8v.6Z"/>
    <path class="cls-25" d="M694.2,278.7c0,.5-.4.8-.8.8h-.6c-.5,0-.8-.4-.8-.8v-.6c0-.5.4-.8.8-.8h.6c.5,0,.8.4.8.8v.6Z"/>
    <path class="cls-25" d="M698.7,278.7c0,.5-.4.8-.8.8h-.6c-.5,0-.8-.4-.8-.8v-.6c0-.5.4-.8.8-.8h.6c.5,0,.8.4.8.8v.6Z"/>
    <path class="cls-25" d="M702.9,278.7c0,.5-.4.8-.8.8h-.6c-.5,0-.8-.4-.8-.8v-.6c0-.5.4-.8.8-.8h.6c.5,0,.8.4.8.8v.6Z"/>
    <path class="cls-25" d="M707.4,278.7c0,.5-.4.8-.8.8h-.6c-.5,0-.8-.4-.8-.8v-.6c0-.5.4-.8.8-.8h.6c.5,0,.8.4.8.8v.6Z"/>
    <path class="cls-25" d="M712,278.7c0,.5-.4.8-.8.8h-.6c-.5,0-.8-.4-.8-.8v-.6c0-.5.4-.8.8-.8h.6c.5,0,.8.4.8.8v.6Z"/>
    <path class="cls-25" d="M716.5,278.7c0,.5-.4.8-.8.8h-.6c-.5,0-.8-.4-.8-.8v-.6c0-.5.4-.8.8-.8h.6c.5,0,.8.4.8.8v.6Z"/>
    <path class="cls-25" d="M720.7,278.7c0,.5-.4.8-.8.8h-.6c-.5,0-.8-.4-.8-.8v-.6c0-.5.4-.8.8-.8h.6c.5,0,.8.4.8.8v.6Z"/>
    <path class="cls-25" d="M725.2,278.7c0,.5-.4.8-.8.8h-.6c-.5,0-.8-.4-.8-.8v-.6c0-.5.4-.8.8-.8h.6c.5,0,.8.4.8.8v.6Z"/>
    <path class="cls-25" d="M729.7,278.7c0,.5-.4.8-.8.8h-.6c-.5,0-.8-.4-.8-.8v-.6c0-.5.4-.8.8-.8h.6c.5,0,.8.4.8.8v.6Z"/>
    <path class="cls-25" d="M734.2,278.7c0,.5-.4.8-.8.8h-.6c-.5,0-.8-.4-.8-.8v-.6c0-.5.4-.8.8-.8h.6c.5,0,.8.4.8.8v.6Z"/>
    <path class="cls-25" d="M738.5,278.7c0,.5-.4.8-.8.8h-.6c-.5,0-.8-.4-.8-.8v-.6c0-.5.4-.8.8-.8h.6c.5,0,.8.4.8.8v.6Z"/>
    <path class="cls-4" d="M676.3,265.9h9c.5,0,.8-.3.8-.7v-3.1c0-.5-.4-.8-.8-.8h-6.8l-2.2,4.6Z"/>
    <path class="cls-4" d="M684,256.7h6.9c.4,0,.7-.3.7-.6v-2.4c0-.4-.4-.7-.7-.7h-5.1l-1.8,3.7Z"/>
    <path class="cls-4" d="M691.4,265.3c0,.5-.4.8-.8.8h-1.9c-.5,0-.8-.4-.8-.8v-1.9c0-.5.4-.8.8-.8h1.9c.5,0,.8.4.8.8v1.9Z"/>
    <path class="cls-4" d="M695.9,265.3c0,.5-.4.8-.8.8h-1.9c-.5,0-.8-.4-.8-.8v-1.9c0-.5.4-.8.8-.8h1.9c.5,0,.8.4.8.8v1.9Z"/>
    <path class="cls-4" d="M700.5,265.3c0,.5-.4.8-.8.8h-1.9c-.5,0-.8-.4-.8-.8v-1.9c0-.5.4-.8.8-.8h1.9c.5,0,.8.4.8.8v1.9Z"/>
    <path class="cls-4" d="M705.1,265.3c0,.5-.4.8-.8.8h-1.9c-.5,0-.8-.4-.8-.8v-1.9c0-.5.4-.8.8-.8h1.9c.5,0,.8.4.8.8v1.9Z"/>
    <path class="cls-4" d="M709.9,265.3c0,.5-.4.8-.8.8h-1.9c-.5,0-.8-.4-.8-.8v-1.9c0-.5.4-.8.8-.8h1.9c.5,0,.8.4.8.8v1.9Z"/>
    <path class="cls-4" d="M714.5,265.3c0,.5-.4.8-.8.8h-1.9c-.5,0-.8-.4-.8-.8v-1.9c0-.5.4-.8.8-.8h1.9c.5,0,.8.4.8.8v1.9Z"/>
    <rect class="cls-4" x="692.8" y="253.1" width="3.5" height="3.5" rx=".8" ry=".8"/>
    <rect class="cls-4" x="697.4" y="253.1" width="3.5" height="3.5" rx=".8" ry=".8"/>
    <path class="cls-4" d="M705.5,255.8c0,.5-.3.8-.8.8h-1.8c-.5,0-.8-.3-.8-.8v-1.8c0-.5.3-.9.8-.9h1.8c.5,0,.8.4.8.9v1.8Z"/>
    <path class="cls-4" d="M710.1,255.8c0,.5-.3.8-.8.8h-1.8c-.5,0-.9-.3-.9-.8v-1.8c0-.5.4-.9.9-.9h1.8c.5,0,.8.4.8.9v1.8Z"/>
    <rect class="cls-4" x="711.2" y="253.1" width="3.5" height="3.5" rx=".8" ry=".8"/>
    <path class="cls-4" d="M719.1,265.3c0,.5-.4.8-.8.8h-1.9c-.5,0-.8-.4-.8-.8v-1.9c0-.5.4-.8.8-.8h1.9c.5,0,.8.4.8.8v1.9Z"/>
    <path class="cls-4" d="M723.7,265.3c0,.5-.4.8-.8.8h-1.9c-.5,0-.8-.4-.8-.8v-1.9c0-.5.4-.8.8-.8h1.9c.5,0,.8.4.8.8v1.9Z"/>
    <path class="cls-4" d="M728.3,265.3c0,.5-.4.8-.8.8h-1.9c-.5,0-.8-.4-.8-.8v-1.9c0-.5.4-.8.8-.8h1.9c.5,0,.8.4.8.8v1.9Z"/>
    <path class="cls-4" d="M682.2,270.7c0,.5-.4.8-.8.8h-1.9c-.5,0-.8-.4-.8-.8v-1.9c0-.5.4-.8.8-.8h1.9c.5,0,.8.4.8.8v1.9Z"/>
    <path class="cls-4" d="M686.8,270.7c0,.5-.4.8-.8.8h-1.9c-.5,0-.8-.4-.8-.8v-1.9c0-.5.4-.8.8-.8h1.9c.5,0,.8.4.8.8v1.9Z"/>
    <path class="cls-4" d="M691.3,270.7c0,.5-.3.8-.8.8h-1.8c-.5,0-.8-.4-.8-.8v-1.8c0-.5.3-.8.8-.8h1.8c.5,0,.8.4.8.8v1.8Z"/>
    <path class="cls-4" d="M695.9,270.7c0,.5-.4.8-.8.8h-1.9c-.5,0-.8-.4-.8-.8v-1.9c0-.5.4-.8.8-.8h1.9c.5,0,.8.4.8.8v1.9Z"/>
    <path class="cls-4" d="M700.5,270.7c0,.5-.4.8-.8.8h-1.9c-.5,0-.8-.4-.8-.8v-1.9c0-.5.4-.8.8-.8h1.9c.5,0,.8.4.8.8v1.9Z"/>
    <path class="cls-4" d="M705.1,270.7c0,.5-.4.8-.8.8h-1.9c-.5,0-.8-.4-.8-.8v-1.9c0-.5.4-.8.8-.8h1.9c.5,0,.8.4.8.8v1.9Z"/>
    <path class="cls-4" d="M709.9,270.7c0,.5-.4.8-.8.8h-1.9c-.5,0-.8-.4-.8-.8v-1.9c0-.5.4-.8.8-.8h1.9c.5,0,.8.4.8.8v1.9Z"/>
    <path class="cls-4" d="M714.5,270.7c0,.5-.4.8-.8.8h-1.9c-.5,0-.8-.4-.8-.8v-1.9c0-.5.4-.8.8-.8h1.9c.5,0,.8.4.8.8v1.9Z"/>
    <path class="cls-4" d="M719.1,270.7c0,.5-.4.8-.8.8h-1.8c-.5,0-.8-.4-.8-.8v-1.8c0-.5.4-.8.8-.8h1.8c.5,0,.8.4.8.8v1.8Z"/>
    <path class="cls-4" d="M723.7,270.7c0,.5-.4.8-.8.8h-1.9c-.5,0-.8-.4-.8-.8v-1.9c0-.5.4-.8.8-.8h1.9c.5,0,.8.4.8.8v1.9Z"/>
    <path class="cls-4" d="M728.3,270.7c0,.5-.4.8-.8.8h-1.9c-.5,0-.8-.4-.8-.8v-1.9c0-.5.4-.8.8-.8h1.9c.5,0,.8.4.8.8v1.9Z"/>
    <rect class="cls-33" x="822.3" y="331.6" width="9.5" height="10.6"/>
    <path class="cls-33" d="M789.3,330.6h-11.7v-1c0-1,.8-1.7,1.7-1.7h8.2c1,0,1.7.8,1.7,1.7v1Z"/>
    <path class="cls-33" d="M763.9,343.2h15.3v1c0,1-.8,1.7-1.7,1.7h-11.9c-1,0-1.7-.8-1.7-1.7v-1Z"/>
    <path class="cls-33" d="M798.4,343.2h15.3v1c0,1-.8,1.7-1.7,1.7h-11.9c-1,0-1.7-.8-1.7-1.7v-1Z"/>
    <path class="cls-33" d="M829.6,343.2h15.3v1c0,1-.8,1.7-1.7,1.7h-11.9c-1,0-1.7-.8-1.7-1.7v-1Z"/>
    <path class="cls-33" d="M864.1,343.2h15.3v1c0,1-.8,1.7-1.7,1.7h-11.9c-1,0-1.7-.8-1.7-1.7v-1Z"/>
    <path class="cls-38" d="M821.2,344.3h-67.8c-1.3,0-2.4-1.1-2.4-2.4v-1.3c0-.8.4-1.5,1-1.9l10.5-8c1.2-.9,2.6-1.4,4-1.4h54.7c1.3,0,2.4,1.1,2.4,2.4v10.2c0,1.3-1.1,2.4-2.4,2.4"/>
    <path class="cls-9" d="M817.8,337.3h-2.3c-.4,0-.8-.3-.8-.8v-3.7c0-.4.3-.8.8-.8h2.3c.4,0,.8.3.8.8v3.7c0,.4-.3.8-.8.8"/>
    <path class="cls-9" d="M811.7,337.3h-2.3c-.4,0-.8-.3-.8-.8v-3.7c0-.4.3-.8.8-.8h2.3c.4,0,.8.3.8.8v3.7c0,.4-.3.8-.8.8"/>
    <path class="cls-9" d="M805.5,337.3h-2.3c-.4,0-.8-.3-.8-.8v-3.7c0-.4.3-.8.8-.8h2.3c.4,0,.8.3.8.8v3.7c0,.4-.3.8-.8.8"/>
    <path class="cls-9" d="M786.8,337.3h-2.3c-.4,0-.8-.3-.8-.8v-3.7c0-.4.3-.8.8-.8h2.3c.4,0,.8.3.8.8v3.7c0,.4-.3.8-.8.8"/>
    <path class="cls-9" d="M780.7,337.3h-2.3c-.4,0-.8-.3-.8-.8v-3.7c0-.4.3-.8.8-.8h2.3c.4,0,.8.3.8.8v3.7c0,.4-.3.8-.8.8"/>
    <path class="cls-9" d="M774.5,337.3h-2.3c-.4,0-.8-.3-.8-.8v-3.7c0-.4.3-.8.8-.8h2.3c.4,0,.8.3.8.8v3.7c0,.4-.3.8-.8.8"/>
    <path class="cls-9" d="M792.9,342.2h4c.6,0,1.2-.5,1.2-1.2v-7.8c0-.7-.5-1.2-1.2-1.2h-4c-.7,0-1.2.5-1.2,1.2v7.8c0,.6.5,1.2,1.2,1.2"/>
    <path class="cls-33" d="M849.8,330.6h-11.7v-1c0-1,.8-1.7,1.7-1.7h8.2c1,0,1.7.8,1.7,1.7v1Z"/>
    <path class="cls-38" d="M878.6,329.2h-48.2c-2.3,0-4.1,1.8-4.1,4.1v6.9c0,2.3,1.8,4.1,4.1,4.1h48.2c2.3,0,4.1-1.8,4.1-4.1v-6.9c0-2.3-1.8-4.1-4.1-4.1"/>
    <path class="cls-9" d="M846,337.3h-2.3c-.4,0-.8-.3-.8-.8v-3.7c0-.4.3-.8.8-.8h2.3c.4,0,.8.3.8.8v3.7c0,.4-.3.8-.8.8"/>
    <path class="cls-9" d="M839.9,337.3h-2.3c-.4,0-.8-.3-.8-.8v-3.7c0-.4.3-.8.8-.8h2.3c.4,0,.8.3.8.8v3.7c0,.4-.3.8-.8.8"/>
    <path class="cls-9" d="M833.6,337.3h-2.3c-.4,0-.8-.3-.8-.8v-3.7c0-.4.3-.8.8-.8h2.3c.4,0,.8.3.8.8v3.7c0,.4-.3.8-.8.8"/>
    <path class="cls-9" d="M877.9,337.3h-2.3c-.4,0-.8-.3-.8-.8v-3.7c0-.4.3-.8.8-.8h2.3c.4,0,.8.3.8.8v3.7c0,.4-.3.8-.8.8"/>
    <path class="cls-9" d="M871.8,337.3h-2.3c-.4,0-.8-.3-.8-.8v-3.7c0-.4.3-.8.8-.8h2.3c.4,0,.8.3.8.8v3.7c0,.4-.3.8-.8.8"/>
    <path class="cls-9" d="M865.6,337.3h-2.3c-.4,0-.8-.3-.8-.8v-3.7c0-.4.3-.8.8-.8h2.3c.4,0,.8.3.8.8v3.7c0,.4-.3.8-.8.8"/>
    <path class="cls-9" d="M852.6,342.2h4c.6,0,1.2-.5,1.2-1.2v-7.8c0-.7-.5-1.2-1.2-1.2h-4c-.7,0-1.2.5-1.2,1.2v7.8c0,.6.5,1.2,1.2,1.2"/>
    <path class="cls-9" d="M760.6,332h3.1c.4,0,.8.3.8.8v3.8c0,.4-.3.8-.8.8h-10.1l7-5.3Z"/>
    <rect class="cls-38" x="384.2" y="297" width="23.9" height="42.7"/>
    <rect class="cls-1" x="408.1" y="297" width="4.6" height="42.7"/>
    <polygon class="cls-22" points="410.4 291.9 386.5 291.9 384.2 297 408.1 297 410.4 291.9"/>
    <polygon class="cls-14" points="410.4 291.9 412.6 297 408.1 297 410.4 291.9"/>
    <rect class="cls-32" x="387.6" y="300.9" width="4.2" height="8.3"/>
    <rect class="cls-32" x="394" y="300.9" width="4.2" height="8.3"/>
    <rect class="cls-32" x="400.3" y="300.9" width="4.2" height="8.3"/>
    <polygon class="cls-26" points="395.9 312.2 369.5 312.2 372.6 305.7 392.7 305.7 395.9 312.2"/>
    <rect class="cls-39" x="372.6" y="312.2" width="21.2" height="28.3"/>
    <polygon class="cls-20" points="391.7 312.2 365.3 312.2 368.5 305.7 388.6 305.7 391.7 312.2"/>
    <rect class="cls-34" x="368.5" y="312.2" width="21.2" height="28.3"/>
    <path class="cls-32" d="M374.5,315.4h0c1.9,0,3.5,1.6,3.5,3.5v3.8h-7v-3.8c0-1.9,1.6-3.5,3.5-3.5"/>
    <path class="cls-38" d="M374.5,322.8c0,0-.2,0-.2-.2v-7.3c0,0,0-.2.2-.2s.2,0,.2.2v7.3c0,0,0,.2-.2.2"/>
    <path class="cls-38" d="M378,319.4h-7c0,0-.2,0-.2-.2s0-.2.2-.2h7c0,0,.2,0,.2.2s0,.2-.2.2"/>
    <path class="cls-32" d="M383.8,315.4h0c1.9,0,3.5,1.6,3.5,3.5v3.8h-7v-3.8c0-1.9,1.6-3.5,3.5-3.5"/>
    <path class="cls-38" d="M383.8,322.8c0,0-.2,0-.2-.2v-7.3c0,0,0-.2.2-.2s.2,0,.2.2v7.3c0,0,0,.2-.2.2"/>
    <path class="cls-38" d="M387.3,319.4h-7c0,0-.2,0-.2-.2s0-.2.2-.2h7c0,0,.2,0,.2.2s0,.2-.2.2"/>
    <rect class="cls-38" x="384.2" y="322.1" width="26.1" height="25.5"/>
    <rect class="cls-32" x="387.1" y="328.4" width="20.3" height="6.4"/>
    <rect class="cls-30" x="384.2" y="322.1" width="26.1" height="2.8"/>
    <rect class="cls-1" x="410.3" y="322.1" width="4.7" height="25.5"/>
    <rect class="cls-42" x="410.3" y="322.1" width="4.7" height="2.8"/>
    <rect class="cls-34" x="391.6" y="327.2" width=".4" height="9.3"/>
    <rect class="cls-34" x="397.1" y="327.2" width=".4" height="9.3"/>
    <rect class="cls-34" x="402.5" y="327.2" width=".4" height="9.3"/>
    <rect class="cls-39" x="356.6" y="308.4" width="4.6" height="21.3"/>
    <rect class="cls-34" x="331.2" y="308.4" width="25.3" height="21.3"/>
    <rect class="cls-32" x="334.1" y="313.7" width="19.7" height="5.4"/>
    <rect class="cls-18" x="329.7" y="308.4" width="28" height="2.3"/>
    <rect class="cls-6" x="357.7" y="308.4" width="5.1" height="2.3"/>
    <rect class="cls-34" x="338.4" y="312.6" width=".4" height="7.8"/>
    <rect class="cls-34" x="343.7" y="312.6" width=".4" height="7.8"/>
    <rect class="cls-34" x="349" y="312.6" width=".4" height="7.8"/>
    <rect class="cls-34" x="366.8" y="332" width="27.5" height="23.4"/>
    <rect class="cls-39" x="394.4" y="332" width="5.2" height="23.4"/>
    <polygon class="cls-22" points="397 327.4 369.5 327.4 366.8 332 394.4 332 397 327.4"/>
    <polygon class="cls-14" points="397 327.4 399.6 332 394.4 332 397 327.4"/>
    <rect class="cls-32" x="370.8" y="336.2" width="4.9" height="6.1"/>
    <rect class="cls-32" x="378.1" y="336.2" width="4.9" height="6.1"/>
    <rect class="cls-32" x="385.4" y="336.2" width="4.9" height="6.1"/>
    <polygon class="cls-42" points="375.9 321.8 347.4 321.8 350.9 314.7 372.5 314.7 375.9 321.8"/>
    <rect class="cls-1" x="350.9" y="321.8" width="22.9" height="20.5"/>
    <polygon class="cls-30" points="371.5 321.8 343 321.8 346.4 314.7 368.1 314.7 371.5 321.8"/>
    <rect class="cls-38" x="346.4" y="321.8" width="22.9" height="20.5"/>
    <path class="cls-32" d="M352.9,325.2h0c2.1,0,3.8,1.7,3.8,3.8v4.1h-7.6v-4.1c0-2.1,1.7-3.8,3.8-3.8"/>
    <path class="cls-38" d="M352.9,333.2c0,0-.2,0-.2-.2v-7.9c0-.1,0-.2.2-.2s.2,0,.2.2v7.9c0,.1,0,.2-.2.2"/>
    <path class="cls-38" d="M356.6,329.5h-7.6c0,0-.2,0-.2-.2s0-.2.2-.2h7.6c0,0,.2,0,.2.2s0,.2-.2.2"/>
    <path class="cls-32" d="M362.9,325.2h0c2.1,0,3.8,1.7,3.8,3.8v4.1h-7.6v-4.1c0-2.1,1.7-3.8,3.8-3.8"/>
    <path class="cls-38" d="M362.9,333.2c0,0-.2,0-.2-.2v-7.9c0-.1,0-.2.2-.2s.2,0,.2.2v7.9c0,.1,0,.2-.2.2"/>
    <path class="cls-38" d="M366.7,329.5h-7.6c0,0-.2,0-.2-.2s0-.2.2-.2h7.6c0,0,.2,0,.2.2s0,.2-.2.2"/>
    <rect class="cls-34" x="354.2" y="341.6" width="38.6" height="26.8"/>
    <rect class="cls-32" x="358.7" y="348.6" width="4.7" height="8.1"/>
    <rect class="cls-32" x="364.2" y="348.6" width="4.7" height="8.1"/>
    <rect class="cls-32" x="369.7" y="348.6" width="4.7" height="8.1"/>
    <rect class="cls-32" x="375.3" y="348.6" width="4.7" height="8.1"/>
    <rect class="cls-20" x="354.2" y="341.6" width="38.6" height="2.9"/>
    <rect class="cls-39" x="387.1" y="341.6" width="5.7" height="26.8"/>
    <rect class="cls-26" x="387.1" y="341.6" width="5.7" height="2.9"/>
    <polygon class="cls-6" points="410.6 359.1 381.6 359.1 385.1 351.9 407.1 351.9 410.6 359.1"/>
    <rect class="cls-1" x="385.1" y="359.1" width="23.3" height="16.7"/>
    <polygon class="cls-18" points="406.1 359.1 377.1 359.1 380.6 351.9 402.6 351.9 406.1 359.1"/>
    <rect class="cls-38" x="380.6" y="359.1" width="23.3" height="16.7"/>
    <path class="cls-32" d="M387.1,362.6h0c2.1,0,3.9,1.7,3.9,3.9v4.1h-7.7v-4.1c0-2.1,1.7-3.9,3.9-3.9"/>
    <path class="cls-38" d="M387.1,370.7c0,0-.2,0-.2-.2v-8c0-.1,0-.2.2-.2s.2,0,.2.2v8c0,.1,0,.2-.2.2"/>
    <path class="cls-38" d="M391,367h-7.7c0,0-.2,0-.2-.2s0-.2.2-.2h7.7c0,0,.2,0,.2.2s0,.2-.2.2"/>
    <path class="cls-32" d="M397.3,362.6h0c2.1,0,3.9,1.7,3.9,3.9v4.1h-7.7v-4.1c0-2.1,1.7-3.9,3.9-3.9"/>
    <path class="cls-38" d="M397.3,370.7c0,0-.2,0-.2-.2v-8c0-.1,0-.2.2-.2s.2,0,.2.2v8c0,.1,0,.2-.2.2"/>
    <path class="cls-38" d="M401.2,367h-7.7c0,0-.2,0-.2-.2s0-.2.2-.2h7.7c0,0,.2,0,.2.2s0,.2-.2.2"/>
    <rect class="cls-34" x="323.6" y="328.3" width="21.5" height="40.7"/>
    <rect class="cls-39" x="345.1" y="328.3" width="4.1" height="40.6"/>
    <polygon class="cls-20" points="347.2 323.7 325.7 323.7 323.6 328.3 345.1 328.3 347.2 323.7"/>
    <polygon class="cls-26" points="347.2 323.7 349.2 328.3 345.1 328.3 347.2 323.7"/>
    <rect class="cls-32" x="326.7" y="334.1" width="3.8" height="7.5"/>
    <rect class="cls-32" x="332.4" y="334.1" width="3.8" height="7.5"/>
    <rect class="cls-32" x="338.1" y="334.1" width="3.8" height="7.5"/>
    <polygon class="cls-14" points="363.6 344.1 338.5 344.1 341.5 337.8 360.6 337.8 363.6 344.1"/>
    <rect class="cls-1" x="341.5" y="344.1" width="20.2" height="26.9"/>
    <polygon class="cls-22" points="359.7 344.1 334.6 344.1 337.6 337.8 356.7 337.8 359.7 344.1"/>
    <rect class="cls-38" x="337.6" y="344.1" width="20.2" height="26.9"/>
    <path class="cls-32" d="M343.3,347h0c1.8,0,3.3,1.5,3.3,3.3v3.6h-6.7v-3.6c0-1.8,1.5-3.3,3.3-3.3"/>
    <path class="cls-38" d="M343.3,354.1c0,0-.1,0-.1-.2v-6.9c0,0,0-.2.1-.2s.1,0,.1.2v6.9c0,0,0,.2-.1.2"/>
    <path class="cls-38" d="M346.6,350.9h-6.7c0,0-.1,0-.1-.2s0-.2.1-.2h6.7c0,0,.1,0,.1.2s0,.2-.1.2"/>
    <path class="cls-32" d="M352.1,347h0c1.8,0,3.3,1.5,3.3,3.3v3.6h-6.7v-3.6c0-1.8,1.5-3.3,3.3-3.3"/>
    <path class="cls-38" d="M352.1,354.1c0,0-.1,0-.1-.2v-6.9c0,0,0-.2.1-.2s.1,0,.1.2v6.9c0,0,0,.2-.1.2"/>
    <path class="cls-38" d="M355.5,350.9h-6.7c0,0-.1,0-.1-.2s0-.2.1-.2h6.7c0,0,.1,0,.1.2s0,.2-.1.2"/>
    <rect class="cls-34" x="320" y="353.9" width="26.1" height="21.9"/>
    <rect class="cls-32" x="322.9" y="359.4" width="20.3" height="5.5"/>
    <rect class="cls-30" x="320" y="353.9" width="26.1" height="2.4"/>
    <rect class="cls-39" x="346.1" y="353.9" width="4.7" height="21.9"/>
    <rect class="cls-42" x="346.1" y="353.9" width="4.7" height="2.4"/>
    <rect class="cls-34" x="327.4" y="358.3" width=".4" height="8"/>
    <rect class="cls-34" x="332.8" y="358.3" width=".4" height="8"/>
    <rect class="cls-34" x="338.3" y="358.3" width=".4" height="8"/>
  </g>
</svg>