<svg width="48" height="48" viewBox="0 0 48 48" fill="none" xmlns="http://www.w3.org/2000/svg">
<rect width="48" height="48" rx="24" fill="#70C6F3"/>
<path d="M30.77 17.57H21.41V21.71C21.81 21.27 22.37 20.91 23.09 20.63C23.81 20.35 24.59 20.21 25.43 20.21C26.93 20.21 28.17 20.55 29.15 21.23C30.15 21.91 30.88 22.79 31.34 23.87C31.8 24.95 32.03 26.12 32.03 27.38C32.03 29.72 31.37 31.58 30.05 32.96C28.73 34.32 26.87 35 24.47 35C22.87 35 21.48 34.73 20.3 34.19C19.12 33.63 18.21 32.86 17.57 31.88C16.93 30.9 16.58 29.77 16.52 28.49H21.53C21.65 29.11 21.94 29.63 22.4 30.05C22.86 30.45 23.49 30.65 24.29 30.65C25.23 30.65 25.93 30.35 26.39 29.75C26.85 29.15 27.08 28.35 27.08 27.35C27.08 26.37 26.84 25.62 26.36 25.1C25.88 24.58 25.18 24.32 24.26 24.32C23.58 24.32 23.02 24.49 22.58 24.83C22.14 25.15 21.85 25.58 21.71 26.12H16.76V13.07H30.77V17.57Z" fill="white"/>
</svg>
