<svg width="14" height="14" viewBox="0 0 14 14" fill="none" xmlns="http://www.w3.org/2000/svg">
<path d="M7.00008 0H6.99992C3.13397 0 0 3.13397 0 6.99992V7.00008C0 10.866 3.13397 14 6.99992 14H7.00008C10.866 14 14 10.866 14 7.00008V6.99992C14 3.13397 10.866 0 7.00008 0Z" fill="black"/>
<path d="M9.11401 2.52734H4.8855C3.58524 2.52734 2.52734 3.58524 2.52734 4.8855V9.11401C2.52734 10.4143 3.58524 11.4723 4.8855 11.4723H9.11401C10.4143 11.4723 11.4722 10.4144 11.4722 9.11401V4.88566C11.4722 3.5854 10.4143 2.52751 9.11401 2.52751V2.52734ZM10.6591 9.11417C10.6591 9.96617 9.96601 10.6592 9.11401 10.6592H4.8855C4.0335 10.6592 3.34045 9.96617 3.34045 9.11417V4.88566C3.34045 4.03367 4.0335 3.34061 4.8855 3.34061H9.11401C9.96601 3.34061 10.6591 4.03367 10.6591 4.88566V9.11417Z" fill="white"/>
<path d="M6.99954 4.56055C5.65442 4.56055 4.56006 5.65491 4.56006 7.00003C4.56006 8.34515 5.65442 9.43951 6.99954 9.43951C8.34466 9.43951 9.43902 8.34515 9.43902 7.00003C9.43902 5.65491 8.34466 4.56055 6.99954 4.56055ZM6.99954 8.62641C6.10269 8.62641 5.37317 7.89688 5.37317 7.00003C5.37317 6.10318 6.10269 5.37365 6.99954 5.37365C7.8964 5.37365 8.62592 6.10318 8.62592 7.00003C8.62592 7.89688 7.8964 8.62641 6.99954 8.62641Z" fill="white"/>
<path d="M9.38036 4.11133C9.09975 4.11133 8.87207 4.33885 8.87207 4.61962C8.87207 4.90039 9.09959 5.12791 9.38036 5.12791C9.66113 5.12791 9.88866 4.90039 9.88866 4.61962C9.88866 4.33885 9.66113 4.11133 9.38036 4.11133Z" fill="white"/>
</svg>
