<?xml version="1.0" encoding="UTF-8"?>
<svg id="_레이어_1" data-name="레이어 1" xmlns="http://www.w3.org/2000/svg" version="1.1" viewBox="0 0 335 55">
  <defs>
    <style>
      .cls-1 {
        fill: #000;
      }

      .cls-1, .cls-2, .cls-3 {
        stroke-width: 0px;
      }

      .cls-2 {
        fill: #006d3c;
      }

      .cls-3 {
        fill: #b2ff72;
      }
    </style>
  </defs>
  <path class="cls-2" d="M161,53.8c3.7,0,6.3-.1,8.4-.4.4,0,.7-.2.7-.7v-1.5c-.1-.4-.3-.7-.8-.7-2.2.2-5,.4-7.9.4s-2.4-.6-2.4-1.8,0-.9.1-1.6c0-.4-.3-.7-.7-.7h-1.7c-.4,0-.6.3-.7.7,0,.5-.1,1-.1,2,0,2.6,1.8,4.2,5,4.2M166.4,40v6.7c0,.4.3.7.7.7h1.7c.4,0,.7-.3.7-.7v-11.3c0-.4-.3-.7-.7-.7h-1.7c-.4,0-.7.3-.7.7v1.3c0,.7-.4,1-1.1,1h-1.7c-.4,0-.7.2-.7.7v1.5c0,.4.2.7.7.7h1.6c.6,0,1-.2,1.2-.6M159.2,42.2c.6,1.6,2.4,3,4.4,3s.7-.2.7-.7v-1.6c0-.4-.2-.6-.7-.6-1.7,0-2.9-1.6-2.9-3.5v-2.9c0-.5-.3-.8-.7-.8h-1.7c-.4,0-.7.3-.7.8v2.9c0,1.9-1.2,3.5-2.9,3.5s-.7.2-.7.6v1.6c0,.4.2.7.7.7,2.1,0,3.9-1.3,4.5-3M148.9,51c1-.4,1.6-1.3,1.6-2.4s-1.1-2.3-2.9-2.3h-9.3c-.8,0-1.2.4-1.2,1.2v3.8c0,1.5,1,2.4,2.7,2.4h10.3c.4,0,.7-.2.7-.7v-1.3c0-.4-.2-.7-.7-.7h-1.3ZM150.3,44.2v-2.2c0-.7.5-1.2,1.2-1.2h.8c.4,0,.7-.2.7-.7v-1.5c0-.4-.2-.7-.7-.7h-.7c-.6,0-1.1.2-1.3.6v-3.3c0-.4-.3-.7-.7-.7h-1.7c-.4,0-.7.3-.7.7v8.8c0,.4.3.7.7.7h1.7c.4,0,.7-.3.7-.7M141.8,41.1c.8,0,1.7,0,2.8,0s.5-.2.5-.6v-1.1c0-.4-.2-.6-.5-.6h-.4c.7-.4,1.1-1,1.1-1.7,0-1.4-1.2-2-3.9-2s-3.1,0-4.6.3c-.4,0-.6.3-.6.7v1.3c0,.4.2.6.6.5,1.4-.2,2.5-.3,3.6-.3s1.8.1,1.8.5-.3.5-1.7.5c-3.5,0-5,.9-5,3.2s1.4,3.1,5.1,3.1,3.3-.3,4.7-.8c.5-.2.6-.4.5-.8l-.3-1.1c0-.3-.2-.5-.5-.5s-.2,0-.3,0c-1,.4-2.4.7-3.6.7-2.1,0-2.5-.1-2.5-.7s.4-.7,3.1-.7M146,51h-5c-.6,0-.9-.3-.9-.8v-.7c0-.4.2-.6.6-.6h5.6c.8,0,1.1.3,1.1.9s-.6,1.2-1.4,1.2M132.3,39.7c0-3.2-2.2-4.7-6.9-4.7s-6.9,1.5-6.9,4.7,2.2,4.7,6.9,4.7,6.9-1.5,6.9-4.7M130.4,49.4c0-.6.3-.8.9-.9.5,0,1.1-.1,1.6-.2.5,0,.7-.3.7-.7v-1.6c0-.4-.3-.7-.7-.6-1.3.2-4.3.4-7.6.4s-5.7-.1-7.5-.4c-.4,0-.7.2-.7.6v1.6c0,.4.2.6.7.7.8.1,1.8.2,2.9.3-.4.2-.6.6-.6,1.1v2.3c0,.4.3.7.7.7h1.7c.4,0,.7-.3.7-.7v-2.5c0-.6.3-.9.9-.9s2.7,0,4,0c-.4.2-.6.6-.6,1.1v2.3c0,.4.3.7.7.7h1.7c.4,0,.7-.3.7-.7v-2.7ZM125.4,37.8c2.8,0,3.8.5,3.8,1.9s-1,1.9-3.8,1.9-3.8-.5-3.8-1.9,1-1.9,3.8-1.9M106.7,44.5c-3.3,0-3.7-.4-3.7-1.1s.3-1,3.7-1,3.7.4,3.7,1-.3,1.1-3.7,1.1M105.3,35.2v.5c0,.3.1.5.3.6h-5.5c-.4,0-.7.2-.7.7v1.4c0,.4.2.7.7.7h13.1c.4,0,.7-.2.7-.7v-1.4c0-.4-.2-.7-.7-.7h-4.4c-.4,0-.6-.2-.6-.5v-.6c0-.4-.2-.7-.7-.7h-1.7c-.4,0-.7.2-.7.7M106.7,39.9c-5.1,0-6.7,1.1-6.7,3.5s1.2,3.3,5,3.6v1.2c0,.4.1.7.4.9-2.3,0-4.9-.2-6.5-.4-.4,0-.7.2-.7.6v1.6c0,.4.2.6.7.7,1.8.3,4.6.4,7.5.4s6.3-.1,7.6-.4c.5,0,.7-.3.7-.7v-1.6c0-.4-.3-.7-.7-.6-1.6.2-4.2.4-5.2.3-.6,0-.8-.2-.8-.8v-1.2c4-.2,5.3-1.3,5.3-3.6s-1.6-3.5-6.7-3.5M86.5,39.6l-.3-2h3.5l-.3,1.9c-.5,0-.9,0-1.4,0h-1.4ZM88,51.3c-3.3,0-4.1-.2-4.1-1.1s.8-1.1,4.1-1.1,4.1.2,4.1,1.1-.8,1.1-4.1,1.1M81.9,37.7h1.3l.3,1.8c-.8,0-1.5,0-1.9-.1-.4,0-.6.1-.6.5v1.4c0,.4.1.5.5.6,1.2.1,3.6.3,6.4.3s5.3-.1,6.4-.3c.4,0,.5-.2.5-.6v-1.4c0-.4-.2-.5-.6-.5-.4,0-1.1,0-1.9.1l.3-1.8h1.3c.4,0,.6-.2.6-.6v-1.3c0-.4-.2-.6-.6-.6h-12.1c-.4,0-.6.2-.6.6v1.3c0,.4.2.6.6.6M80.9,50.2c0,2.6,2.1,3.7,7.2,3.7s7.2-1,7.2-3.7-1.7-3.4-5.8-3.6v-.3c0-.5.3-.8.9-.8,1.8,0,4.1,0,5.2-.2.5,0,.7-.3.7-.7v-1.2c0-.4-.3-.7-.7-.6-1.3.1-4.3.2-7.6.2s-5.7,0-7.5-.2c-.4,0-.7.2-.7.6v1.2c0,.4.2.6.7.7,1.7.1,3.9.2,6.6.2-.3.1-.5.5-.5.9v.2c-3.9.2-5.5,1.3-5.5,3.6M66,49.8c0-1,1-1.4,4.2-1.4s4.1.4,4.1,1.4-1,1.4-4.1,1.4-4.2-.4-4.2-1.4M73.8,40.9v3.4c0,.4.3.7.7.7h1.7c.4,0,.7-.3.7-.7v-8.8c0-.4-.3-.7-.7-.7h-1.7c-.4,0-.7.3-.7.7v2.1c0,.7-.4,1-1.1,1h-1c-.4,0-.7.2-.7.7v1.5c0,.4.2.7.7.7h.9c.6,0,1-.2,1.2-.6M68,34.4c0-.4-.2-.7-.7-.7h-1.7c-.4,0-.7.2-.7.7v.7c0,.3.1.5.3.6h-3c-.4,0-.7.3-.7.7v1.4c0,.4.3.7.7.7h2.8c0,2-1.2,3.1-2.9,3.1s-.7.2-.7.6v1.6c0,.4.2.7.7.7,2.1,0,3.9-.9,4.5-2.7.6,1.8,2.4,2.7,4.4,2.7s.7-.2.7-.7v-1.6c0-.4-.2-.6-.7-.6-1.7,0-2.9-1.1-2.9-3.1h2.6c.4,0,.7-.3.7-.7v-1.4c0-.4-.3-.7-.7-.7h-2.1c-.4,0-.6-.2-.6-.5v-.8ZM70.1,45.7c-4.8,0-7.2,1.3-7.2,4.1s2.4,4.1,7.2,4.1,7.2-1.3,7.2-4.1-2.4-4.1-7.2-4.1"/>
  <path class="cls-1" d="M328.5,19.3c-1.1,0-1.8.7-1.8,1.7s.5,1.5,1.4,1.7c-.1.2-.4.3-.9.4-.2,0-.3.1-.3.3v.5c0,.2.1.3.3.3,1.8,0,3.1-1.2,3.1-2.9s-.7-1.9-1.8-1.9M313.1,11.2c1.3,0,1.8.4,1.8,1.1s-.5,1.1-1.8,1.1-1.8-.5-1.8-1.1.5-1.1,1.8-1.1M311.6,3.8v.6c0,.3.1.5.3.6h-3.6c-.4,0-.7.2-.7.7v1.4c0,.4.2.7.7.7h9.6c.4,0,.7-.2.7-.7v-1.4c0-.4-.2-.7-.7-.7h-2.7c-.4,0-.6-.2-.6-.5v-.7c0-.4-.2-.7-.7-.7h-1.7c-.4,0-.7.2-.7.7M322.7,21.6v-6.9c0-.7.5-1.2,1.2-1.2h.8c.4,0,.7-.2.7-.7v-1.6c0-.4-.2-.7-.7-.7h-.7c-.6,0-1.1.2-1.3.6v-7c0-.4-.3-.7-.7-.7h-1.7c-.4,0-.7.3-.7.7v17.4c0,.4.3.7.7.7h1.7c.4,0,.7-.3.7-.7M308.1,20.7c1.4.2,2.6.3,4.9.3s4.2-.1,5-.3c.5-.1.7-.3.7-.7v-1.6c0-.4-.3-.7-.7-.6-1,.2-1.8.3-2.6.3s-.9-.3-.9-.9v-1.4c2.3-.3,3.4-1.6,3.4-3.6s-1.5-3.6-4.8-3.6-4.8,1.3-4.8,3.6,1,3.1,3.2,3.5v1.2c0,.5.2.9.5,1.1-1.5,0-2.8-.2-3.9-.3-.4,0-.7.2-.7.6v1.6c0,.4.2.6.7.7M299,8.5c0-2.9-1.9-4.8-4.9-4.8s-4.9,1.8-4.9,4.8,1.9,4.8,4.9,4.8,4.9-1.9,4.9-4.8M297.5,14.4c-4.7,0-7,1.3-7,4.1s2.3,4.1,7,4.1,7-1.3,7-4.1-2.3-4.1-7-4.1M304,12.6c0-.7.4-1.1,1.1-1.1h.9c.4,0,.7-.2.7-.7v-1.4c0-.4-.2-.7-.7-.7h-.8c-.5,0-1,.2-1.2.6v-1.1c0-.7.4-1.1,1.1-1.1h.9c.4,0,.7-.2.7-.7v-1.4c0-.4-.2-.7-.7-.7h-.8c-.5,0-1,.2-1.2.6v-.8c0-.4-.3-.7-.7-.7h-1.7c-.4,0-.7.3-.7.7v8.8c0,.4.3.7.7.7h1.7c.4,0,.7-.3.7-.7v-.3ZM294.1,6.4c1.2,0,1.9.8,1.9,2.1s-.8,2.1-1.9,2.1-1.9-.8-1.9-2.1.7-2.1,1.9-2.1M297.5,19.9c-3,0-3.9-.4-3.9-1.4s.9-1.4,3.9-1.4,3.9.4,3.9,1.4-.9,1.4-3.9,1.4M275,18.9c0-.9.8-1.1,4.1-1.1s4.1.2,4.1,1.1-.8,1.1-4.1,1.1-4.1-.2-4.1-1.1M279.1,15.3c-5.1,0-7.2,1.1-7.2,3.7s2.1,3.7,7.2,3.7,7.2-1,7.2-3.7-2.1-3.7-7.2-3.7M285.3,4.8c0-.4-.2-.6-.7-.7-2.3-.2-3.9-.2-5.4-.2-5.3,0-7.2.9-7.2,3.5s1.5,3.3,5.4,3.5v.5c0,.3.2.6.5.7-2.3,0-4.9,0-6.5-.2-.4,0-.7.2-.7.6v1.2c0,.4.2.6.7.7,1.8.1,4.6.2,7.5.2s6.3,0,7.6-.2c.5,0,.7-.3.7-.7v-1.2c0-.4-.3-.7-.7-.6-1.6.1-4.2.2-5.2.2-.5,0-.8-.3-.8-.7v-.5c1.4,0,3-.2,4.4-.3.5,0,.7-.3.7-.7v-1.3c-.1-.5-.4-.7-.8-.7-2.4.3-4.8.4-6.2.4-2.9,0-3.5-.2-3.5-.9s.9-.9,4.1-.9,3.5.1,5.5.2c.4,0,.7-.2.7-.7v-1.3ZM252.1,12.8c-1.2,0-1.9-1.2-1.9-2.9s.7-2.9,1.9-2.9,1.9,1.2,1.9,2.9-.7,2.9-1.9,2.9M247.2,9.9c0,3.5,1.9,5.8,4.9,5.8s4.9-2.2,4.9-5.8-1.8-5.8-4.9-5.8-4.9,2.2-4.9,5.8M262,21.6V4.1c0-.4-.3-.7-.7-.7h-1.7c-.4,0-.7.3-.7.7v17.4c0,.4.3.7.7.7h1.7c.4,0,.7-.3.7-.7M246.3,18.5v1.6c0,.4.2.6.7.7,1.4.2,2.8.3,5.1.3s4.4-.1,5.2-.3c.5-.1.7-.3.7-.7v-1.6c0-.4-.3-.7-.7-.6-.9.2-3.2.3-5.2.3s-3.7-.1-5.1-.3c-.4,0-.7.2-.7.6M235.2,8.8l-.4-2.4h3.6l-.4,2.4c-.5,0-.9,0-1.4,0h-1.4ZM239.4,16c-4.1,0-6.9.1-9,.4-.4,0-.7.2-.7.7v1.5c0,.4.2.7.7.7,2.4-.2,5.2-.4,8.5-.4s1.6.5,1.6,1.5,0,.8-.1,1.3c0,.4.2.7.7.7h1.7c.4,0,.6-.2.7-.7,0-.4.1-.9.1-2,0-2.5-1.3-3.7-4.2-3.7M230.5,6.4h1.3l.4,2.3c-.8,0-1.5,0-1.9-.1-.4,0-.6.1-.6.5v1.4c0,.4.1.5.5.6,1,.1,2.7.2,4.9.2v.7c0,.3.2.6.5.7-2.3,0-4.9,0-6.5-.2-.4,0-.7.2-.7.6v1.2c0,.4.2.6.7.7,1.8.1,4.6.2,7.5.2s6.3,0,7.6-.2c.5,0,.7-.3.7-.7v-1.2c0-.4-.3-.7-.7-.6-1.6.1-4.2.2-5.2.2-.5,0-.8-.3-.8-.7v-.7c2.2,0,4-.1,5-.3.4,0,.5-.2.5-.6v-1.4c0-.4-.2-.5-.6-.5-.4,0-1.1,0-1.9.1l.4-2.3h1.3c.4,0,.6-.2.6-.6v-1.3c0-.4-.2-.6-.6-.6h-12.1c-.4,0-.6.2-.6.6v1.3c0,.4.2.6.6.6M210.3,22.6c3.5,0,5.8-.1,7.9-.4.4,0,.7-.2.7-.7v-1.5c-.1-.4-.3-.7-.8-.7-2.2.2-4.8.4-7.5.4s-2.4-.5-2.4-1.6,0-.8.1-1.4c0-.4-.3-.7-.7-.7h-1.7c-.4,0-.6.3-.7.7,0,.4-.1.8-.1,1.8,0,2.5,1.8,3.9,5,3.9M210.1,3.2c0-.4-.2-.7-.7-.7h-1.7c-.4,0-.7.2-.7.7v.4c0,.3.1.5.3.6h-3.6c-.4,0-.7.2-.7.7v1.4c0,.4.2.7.7.7h9.6c.4,0,.7-.2.7-.7v-1.4c0-.4-.2-.7-.7-.7h-2.7c-.4,0-.6-.2-.6-.5v-.5ZM218.4,15.9v-3.6c0-.7.5-1.2,1.2-1.2h.8c.4,0,.7-.2.7-.7v-1.5c0-.4-.2-.7-.7-.7h-.7c-.6,0-1.1.2-1.3.6v-4.7c0-.4-.3-.7-.7-.7h-1.7c-.4,0-.7.3-.7.7v11.8c0,.4.3.7.7.7h1.7c.4,0,.7-.3.7-.7M208.5,7.7c-3.2,0-4.8,1.1-4.8,3.4s1.6,3.4,4.8,3.4,4.8-1.1,4.8-3.4-1.6-3.4-4.8-3.4M206.7,11.1c0-.6.5-.9,1.8-.9s1.8.3,1.8.9-.5.9-1.8.9-1.8-.3-1.8-.9M194.2,22.2c.4,0,.7-.3.6-.7v-1.5c-.1-.4-.4-.7-.8-.7-2.2.2-5.6.4-8.8.4s-1.6-.5-1.6-1.4,0-.8.1-1.1c0-.4-.2-.7-.7-.7h-1.7c-.4,0-.6.2-.7.7,0,.4-.1.8-.1,1.5,0,2.5,1.5,3.9,4.3,3.9s6.7-.1,9.3-.4M193.9,11.4c.4,0,.7-.3.6-.7v-1.6c-.2-.4-.4-.7-.8-.6-2.4.3-5,.4-7.9.4s-1.8-.6-1.8-1.6,0-1.9.1-2.7c0-.4-.1-.7-.6-.7h-1.7c-.5,0-.8.2-.8.7,0,.8-.1,2.4-.1,3.4,0,2.5,1.5,3.8,4.4,3.8s6.3-.1,8.6-.4M179.9,12.8c-.4,0-.7.2-.7.6v1.2c0,.4.2.6.7.7,1.8.1,4.6.2,7.5.2s6.3,0,7.6-.2c.5,0,.7-.3.7-.7v-1.2c0-.4-.3-.7-.7-.6-1.3.1-4.3.2-7.6.2s-5.7,0-7.5-.2M173.3,4.1v17.4c0,.4.3.7.7.7h1.7c.4,0,.7-.3.7-.7V4.1c0-.4-.3-.7-.7-.7h-1.7c-.4,0-.7.3-.7.7M167.1,18.7c0,.4.2.7.7.7h1.7c.4,0,.6-.1.7-.6.6-3.2.8-6,.8-9.4s-1.2-4.6-4.2-4.6-2.7,0-4.8.4c-.5,0-.7.3-.7.7v1.5c0,.4.3.7.7.7,1.4-.1,2.5-.4,4.3-.4s1.6.6,1.6,2.1c0,2.9-.2,5.5-.8,9M143.3,10.8c-.4,0-.7.1-.7.6v1.1c0,.4.2.6.7.6,1.8.1,4.6.2,7.6.2s6.3,0,7.6-.2c.5,0,.7-.3.7-.6v-1.1c0-.4-.2-.6-.7-.6-1.3.1-4.3.2-7.6.2s-5.8,0-7.6-.2M145.1,3.9c-.4,0-.7.2-.7.7v1.1c0,.4.2.7.7.7h4.1c-.5.9-2,1.4-4.4,1.4s-.7.2-.7.6v1.2c0,.4.2.6.7.7,2.9.1,5.2-.9,6.1-2.5.9,1.6,3.2,2.6,6.1,2.5.5,0,.7-.3.7-.7v-1.2c0-.4-.2-.6-.7-.6-2.4,0-3.8-.6-4.3-1.4h4.1c.4,0,.7-.2.7-.7v-1.1c0-.4-.2-.7-.7-.7h-11.7ZM157.2,19.4c.3,0,.5-.2.5-.5v-1.1c0-.3-.2-.5-.5-.5h-.5c.8-.3,1.2-.8,1.2-1.7s-.8-1.5-2.1-1.5c-3.3-.1-7.6,0-10.8.3-.4,0-.5.2-.5.5v1.2c0,.3.2.5.5.5,2.5-.2,7.1-.4,9.1-.4s.7.1.7.4-.2.4-.8.4c-.9,0-2.2,0-3.4,0-4.6,0-6.6.5-6.6,2.7s1.8,2.8,7.9,2.8,4.4-.2,5.9-.4c.3,0,.5-.3.5-.5v-1.2c-.1-.3-.4-.5-.7-.4-1.4.3-4,.4-5.7.4-4.1,0-4.8,0-4.8-.5s.5-.6,3.6-.6,4.9,0,6.4,0M130.9,4.1v4.2c0,.7-.5,1.1-1.2,1.1h-1.7c-.4,0-.7.2-.7.7v1.6c0,.4.2.7.7.7h1.6c.6,0,1-.2,1.3-.6v9.8c0,.4.3.7.7.7h1.7c.4,0,.7-.3.7-.7V4.1c0-.4-.3-.7-.7-.7h-1.7c-.4,0-.7.3-.7.7M123.7,15.8c.5,1.8,2.3,3.3,4.4,3.6.4,0,.7-.2.7-.6v-1.6c0-.4-.2-.6-.7-.7-1.6-.2-2.9-2.2-2.9-4.3v-6.7c0-.5-.3-.8-.7-.8h-1.7c-.4,0-.7.3-.7.8v6.7c0,2.2-1.3,4.1-2.9,4.3-.5,0-.7.3-.7.7v1.6c0,.4.3.7.7.6,2.1-.3,3.9-1.7,4.5-3.6M103.1,7.4c1.2,0,1.5,1.2,1.5,4.8s-.4,4.8-1.5,4.8-1.5-1.3-1.5-4.8.4-4.8,1.5-4.8M113.3,4.1v17.5c0,.4.2.7.7.7h1.5c.4,0,.7-.2.7-.7V4.1c0-.4-.2-.7-.7-.7h-1.5c-.4,0-.7.2-.7.7M107.4,13.4h1.2c.3,0,.5-.1.7-.3v8.5c0,.4.2.7.7.7h1.5c.4,0,.7-.2.7-.7V4.3c0-.4-.2-.7-.7-.7h-1.5c-.4,0-.7.2-.7.7v5.6c0,.4-.2.6-.7.6h-1.3c-.3-4.2-1.6-5.9-4.3-5.9s-4.3,2.3-4.3,7.6,1.3,7.6,4.3,7.6,4.1-1.9,4.3-6.4M81.6,8.4c0,2.9,1.9,4.7,4.9,4.7s4.9-1.8,4.9-4.7-1.9-4.7-4.9-4.7-4.9,1.8-4.9,4.7M96.5,21.6V4.1c0-.4-.3-.7-.7-.7h-1.7c-.4,0-.7.3-.7.7v17.4c0,.4.3.7.7.7h1.7c.4,0,.7-.3.7-.7M88.8,17.4c1.4,0,2.6-.1,3.2-.3.5-.1.7-.3.7-.7v-1.6c0-.4-.3-.7-.7-.6-.9.2-3.4.3-5.5.3s-3.9-.1-5.3-.3c-.4,0-.7.2-.7.6v1.6c0,.4.2.6.7.7,1.3.2,2.4.3,4.3.3-.4.2-.7.6-.7,1.1v2.7c0,.4.3.7.7.7h1.7c.4,0,.7-.3.7-.7v-3c0-.6.3-.9.9-.9M84.6,8.4c0-1.2.7-1.9,1.9-1.9s1.9.7,1.9,1.9-.7,1.9-1.9,1.9-1.9-.7-1.9-1.9M64.4,12h2.6v3.9c0,.4-.3.6-.8.6h-1.1c-.4,0-.7-.3-.7-.6v-3.9ZM69.7,17.2l.3-11.8c0-.4-.2-.6-.7-.6h-1.5c-.5,0-.7.1-.7.6v3.8h-2.9v-3.8c0-.4-.3-.6-.8-.6h-1.5c-.4,0-.7.2-.7.6l.3,11.8c0,1.4,1,2.2,2.5,2.2h3.4c1.4,0,2.1-.7,2.2-2.2M75.8,4.1v6.5h-.8c-.4,0-.7.1-.9.4v-6.7c0-.4-.2-.7-.7-.7h-1.5c-.4,0-.7.2-.7.7v17.3c0,.4.2.7.7.7h1.5c.4,0,.7-.2.7-.7v-7.3c0-.5.4-.8.8-.8h.9v8.1c0,.4.2.7.7.7h1.5c.4,0,.7-.2.7-.7V4.1c0-.4-.2-.7-.7-.7h-1.5c-.4,0-.7.2-.7.7"/>
  <path class="cls-2" d="M24.9,49.1c13.3,0,24-10.7,24-24S38.2,1.1,24.9,1.1.9,11.9.9,25.1s10.7,24,24,24"/>
  <path class="cls-3" d="M21.3,27.8c.9-1.8,3.9-7.6,4.6-9.3,0,1.4,0,5.4,0,9.3-1.9,0-3.7,0-4.5,0M33.5,27.8c-.5,0-1.6,0-2.9,0,0-6.3,0-14.1,0-14.9-2.1-.1-5.6-.1-6.6,0-.7,1.3-6.7,12.8-7.7,14.9,0,1.7,0,3.1,0,4.4.8,0,5.3,0,9.6,0,0,1.8,0,3.2,0,3.8,1.1.1,3.8.1,4.6,0,0-.4,0-1.8,0-3.8,1.5,0,2.6,0,2.9,0,0-1.2,0-3.4,0-4.4"/>
</svg>