<svg width="99" height="46" viewBox="0 0 99 46" fill="none" xmlns="http://www.w3.org/2000/svg">
<g clip-path="url(#clip0_598_6667)">
<path d="M14.28 34.95C14.01 36.59 13.96 43.81 14.28 45.72C15.92 46.04 20.96 46.04 22.46 45.72C22.78 43.81 22.73 36.59 22.46 34.95C20.82 34.63 15.78 34.63 14.28 34.95Z" fill="#487FCF"/>
<path d="M28.23 20.18C28.23 26.86 24.91 31.22 18.37 31.22C11.83 31.22 8.51 26.86 8.51 20.18C8.51 13.5 11.83 9.13998 18.37 9.13998C24.91 9.13998 28.23 13.5 28.23 20.18ZM36.36 20.18C36.36 8.31998 28.36 1.72998 18.37 1.72998C8.38 1.72998 0.369995 8.31998 0.369995 20.18C0.369995 32.04 8.37 38.63 18.37 38.63C28.37 38.63 36.37 32.04 36.37 20.18" fill="#5499A5"/>
<path d="M14.09 38.22C15.45 38.49 16.86 38.63 18.36 38.63C19.86 38.63 21.27 38.49 22.63 38.22C22.63 36.77 22.54 35.49 22.45 34.95C20.81 34.63 15.77 34.63 14.27 34.95C14.18 35.5 14.09 36.77 14.09 38.22Z" fill="#5499A5"/>
<path d="M62.26 12.5901C60.4 12.2701 56.17 12.2701 54.76 12.5901C54.62 13.6801 54.58 20.6301 54.58 27.0401C54.4 29.8101 53.58 31.5801 51.54 31.5801C49 31.5801 48.54 29.2601 48.54 25.6701C48.54 24.0801 48.59 14.4001 48.54 12.5801C46.95 12.2201 42.18 12.2201 40.91 12.5801C40.77 15.6701 40.77 21.4901 40.77 26.1201C40.77 34.4801 44.18 38.2501 50.18 38.2501C51.82 38.2501 53.36 37.6601 54.68 36.6101C54.73 37.2901 54.73 37.7901 54.77 38.0201C56.36 38.2901 60.59 38.2901 62.27 38.0201C62.54 36.0201 62.54 14.5301 62.27 12.5701" fill="#487FCF"/>
<path d="M75.71 38.04C75.98 36.09 75.98 14.59 75.71 12.59C74.07 12.32 69.76 12.32 68.17 12.59C67.9 14.59 67.9 36.04 68.17 38.04C69.58 38.4 73.9 38.4 75.71 38.04Z" fill="#487FCF"/>
<path d="M71.94 9.77C74.53 9.77 76.62 7.73 76.62 5.14C76.62 2.55 74.53 0.5 71.94 0.5C69.35 0.5 67.26 2.55 67.26 5.14C67.26 7.73 69.35 9.77 71.94 9.77Z" fill="#5499A5"/>
<path d="M80.26 31.5401C80.21 34.3101 80.26 36.4501 80.44 38.0401C83.85 38.2701 95.98 38.2701 98.53 38.0401C98.67 36.5901 98.67 32.8101 98.53 31.2701C96.89 31.2201 91.26 31.1801 89.21 31.2701C90.8 29.5001 96.93 21.4501 98.39 19.2301C98.43 16.4101 98.39 14.1901 98.21 12.5501C94.21 12.2801 84.26 12.3201 81.12 12.6001C80.98 14.0501 80.98 18.4201 81.12 19.4201C82.76 19.4701 87.48 19.5101 89.25 19.4201C87.39 21.6501 81.48 29.5501 80.25 31.5501" fill="#5499A5"/>
</g>
<defs>
<clipPath id="clip0_598_6667">
<rect width="98.26" height="45.45" fill="white" transform="translate(0.369995 0.5)"/>
</clipPath>
</defs>
</svg>
