<?xml version="1.0" encoding="UTF-8"?>
<svg id="_레이어_1" data-name="레이어_1" xmlns="http://www.w3.org/2000/svg" version="1.1" viewBox="0 0 600 36.1">
  <!-- Generator: Adobe Illustrator 29.0.1, SVG Export Plug-In . SVG Version: 2.1.0 Build 192)  -->
  <defs>
    <style>
      .st0 {
        fill: #fff;
      }
    </style>
  </defs>
  <path class="st0" d="M600,0h-38.3v14.7c3.2,1.4,5.4,4.7,5.4,8.6,0,5.8-5,10.4-10.6,9.1-3.3-.7-6-3.6-6.7-7.1-.9-4.7,1.5-9,5.2-10.6V0h-50.8v14.7c3.2,1.4,5.4,4.7,5.4,8.6,0,5.8-5,10.4-10.7,9.1-3.3-.7-6-3.6-6.7-7.1-.9-4.7,1.5-9,5.2-10.6V0h-50.8v14.7c3.2,1.4,5.4,4.7,5.4,8.6,0,5.8-5,10.4-10.7,9.1-3.3-.7-6-3.6-6.7-7.1-.9-4.7,1.5-9,5.2-10.6V0h-50.8v14.7c3.2,1.4,5.4,4.7,5.4,8.6,0,5.8-5,10.4-10.7,9.1-3.3-.7-6-3.6-6.7-7.1-.9-4.7,1.5-9,5.2-10.6V0h-50.8v14.7c3.2,1.4,5.4,4.7,5.4,8.6,0,5.8-5,10.4-10.6,9.1-3.3-.7-6-3.6-6.7-7.1-.9-4.7,1.5-9,5.2-10.6V0h-50.8v14.7c3.2,1.4,5.4,4.7,5.4,8.6,0,5.8-5,10.4-10.7,9.1-3.3-.7-6-3.6-6.7-7.1-.9-4.7,1.5-9,5.2-10.6V0h-50.8v14.7c3.2,1.4,5.4,4.7,5.4,8.6,0,5.8-5,10.4-10.6,9.1-3.3-.7-6-3.6-6.7-7.1-.9-4.7,1.5-9,5.2-10.6V0h-50.8v14.7c3.2,1.4,5.4,4.7,5.4,8.6,0,5.8-5,10.4-10.7,9.1-3.3-.7-6-3.6-6.7-7.1-.9-4.7,1.5-9,5.2-10.6V0h-50.8v14.7c3.2,1.4,5.4,4.7,5.4,8.6,0,5.8-5,10.4-10.7,9.1-3.3-.7-6-3.6-6.7-7.1-.9-4.7,1.5-9,5.2-10.6V0h-51v14.7c3.2,1.4,5.4,4.7,5.4,8.6,0,5.8-5,10.4-10.7,9.1-3.3-.7-6-3.6-6.7-7.1-.9-4.7,1.5-9,5.2-10.6V0H0v36.1h600V0Z"/>
</svg>