<?xml version="1.0" encoding="UTF-8"?>
<svg id="_레이어_2" data-name="레이어 2" xmlns="http://www.w3.org/2000/svg" xmlns:xlink="http://www.w3.org/1999/xlink" viewBox="0 0 370 327">
  <defs>
    <style>
      .cls-1 {
        fill: #ffafb9;
      }

      .cls-1, .cls-2, .cls-3, .cls-4, .cls-5 {
        stroke: #553835;
      }

      .cls-1, .cls-3, .cls-6, .cls-4, .cls-5 {
        stroke-linejoin: round;
        stroke-width: 1.5px;
      }

      .cls-1, .cls-3, .cls-4, .cls-5 {
        stroke-linecap: round;
      }

      .cls-7 {
        clip-path: url(#clippath);
      }

      .cls-8, .cls-2, .cls-6, .cls-4 {
        fill: none;
      }

      .cls-8, .cls-9, .cls-10, .cls-11 {
        stroke-width: 0px;
      }

      .cls-2 {
        stroke-width: 2px;
      }

      .cls-12 {
        clip-path: url(#clippath-1);
      }

      .cls-3 {
        fill: #57c8fd;
      }

      .cls-9 {
        fill: #7ae26f;
      }

      .cls-6 {
        stroke: #fff;
      }

      .cls-10 {
        fill: #553835;
      }

      .cls-11 {
        fill: #fff;
      }

      .cls-5 {
        fill: #ffc600;
      }
    </style>
    <clipPath id="clippath">
      <rect class="cls-8" x="33" width="52.64" height="52.26"/>
    </clipPath>
    <clipPath id="clippath-1">
      <rect class="cls-8" x="265" y="257" width="87" height="70"/>
    </clipPath>
  </defs>
  <g id="_레이어_1-2" data-name="레이어 1">
    <rect class="cls-11" x="6" y="27" width="358" height="280"/>
    <rect class="cls-2" x="6" y="27" width="358" height="280"/>
    <rect class="cls-10" y="21" width="10" height="10"/>
    <rect class="cls-10" y="302" width="10" height="10"/>
    <rect class="cls-10" x="175" y="21" width="10" height="10"/>
    <rect class="cls-10" x="360" y="21" width="10" height="10"/>
    <rect class="cls-10" x="175" y="302" width="10" height="10"/>
    <rect class="cls-10" x="360" y="302" width="10" height="10"/>
    <g class="cls-7">
      <g>
        <path class="cls-11" d="M76.39,17.92c-.51-.1-1.01-.15-1.51-.18.31-.4.6-.81.85-1.26,2.85-5.09,1.04-11.52-4.04-14.38-5.09-2.85-11.52-1.04-14.38,4.04-.25.45-.46.91-.64,1.38-.28-.41-.59-.82-.94-1.2-3.96-4.29-10.64-4.55-14.92-.6-4.29,3.96-4.55,10.64-.6,14.92.35.38.73.72,1.12,1.03-.48.14-.96.31-1.43.52-5.3,2.46-7.62,8.73-5.18,14.03,2.44,5.3,8.71,7.62,14.01,5.18.47-.22.91-.47,1.33-.74,0,.5,0,1.01.06,1.52.68,5.79,5.93,9.94,11.72,9.26,5.79-.68,9.94-5.93,9.26-11.72-.06-.51-.17-1.01-.3-1.49.47.17.96.32,1.47.42,5.72,1.14,11.28-2.57,12.42-8.29,1.14-5.72-2.57-11.28-8.29-12.42v-.02Z"/>
        <path class="cls-4" d="M76.39,17.92c-.51-.1-1.01-.15-1.51-.18.31-.4.6-.81.85-1.26,2.85-5.09,1.04-11.52-4.04-14.38-5.09-2.85-11.52-1.04-14.38,4.04-.25.45-.46.91-.64,1.38-.28-.41-.59-.82-.94-1.2-3.96-4.29-10.64-4.55-14.92-.6-4.29,3.96-4.55,10.64-.6,14.92.35.38.73.72,1.12,1.03-.48.14-.96.31-1.43.52-5.3,2.46-7.62,8.73-5.18,14.03,2.44,5.3,8.71,7.62,14.01,5.18.47-.22.91-.47,1.33-.74,0,.5,0,1.01.06,1.52.68,5.79,5.93,9.94,11.72,9.26,5.79-.68,9.94-5.93,9.26-11.72-.06-.51-.17-1.01-.3-1.49.47.17.96.32,1.47.42,5.72,1.14,11.28-2.57,12.42-8.29,1.14-5.72-2.57-11.28-8.29-12.42v-.02Z"/>
        <path class="cls-5" d="M63.54,28.66c2.05-2.66,1.55-6.48-1.11-8.53-2.66-2.05-6.48-1.55-8.53,1.11-2.05,2.66-1.55,6.48,1.11,8.53,2.66,2.05,6.48,1.55,8.53-1.11Z"/>
      </g>
    </g>
    <g class="cls-12">
      <g>
        <path class="cls-1" d="M316.47,258.44c-2.17,1-12.42,7.86-11.41,10.04,1.01,2.18,12.84-1.15,15.02-2.15,2.17-1,3.12-3.58,2.12-5.75-.99-2.18-3.56-3.13-5.72-2.13h-.01Z"/>
        <path class="cls-1" d="M293.64,258.44c2.17,1,12.42,7.86,11.41,10.04-1.01,2.18-12.84-1.15-15.02-2.15-2.17-1-3.12-3.58-2.12-5.75.99-2.18,3.56-3.13,5.72-2.13h.01Z"/>
        <path class="cls-3" d="M291.39,308.63h52.2c3.89,0,7.05-3.17,7.05-7.08v-27.53c0-3.91-3.16-7.08-7.05-7.08h-52.2c-3.89,0-7.05,3.17-7.05,7.08v27.53c0,3.91,3.16,7.08,7.05,7.08Z"/>
        <path class="cls-1" d="M302.69,308.63h4.74v-41.7h-4.74v41.7Z"/>
        <path class="cls-9" d="M271.52,290.43h73.94c3.03,0,5.49,2.48,5.49,5.52v24.48c0,3.05-2.46,5.52-5.49,5.52h-73.94c-3.04,0-5.49-2.47-5.49-5.52v-24.47c0-3.05,2.45-5.52,5.49-5.52h0Z"/>
        <path class="cls-10" d="M345.46,291.47c2.45,0,4.45,2.01,4.45,4.48v24.47c0,2.47-2,4.48-4.45,4.48h-73.94c-2.46,0-4.46-2.01-4.46-4.48v-24.45c0-2.47,2-4.48,4.46-4.48h73.94M345.46,289.41h-73.94c-3.6,0-6.52,2.94-6.52,6.56v24.46c0,3.62,2.92,6.56,6.52,6.56h73.94c3.6,0,6.52-2.94,6.52-6.56v-24.46c0-3.62-2.92-6.56-6.52-6.56Z"/>
        <path class="cls-6" d="M352,304.74h-87"/>
        <path class="cls-6" d="M320.7,289.39v37.61"/>
        <path class="cls-6" d="M320.7,304.74s7.6-3.29,8.8-4.49c1.2-1.21,1.2-3.15,0-4.35-1.2-1.21-3.13-1.21-4.33,0-1.2,1.21-4.47,8.84-4.47,8.84Z"/>
        <path class="cls-6" d="M320.7,304.74s-7.6-3.29-8.8-4.49c-1.2-1.21-1.2-3.15,0-4.35,1.2-1.21,3.13-1.21,4.33,0,1.2,1.21,4.47,8.84,4.47,8.84Z"/>
        <path class="cls-6" d="M334.72,309.24s-9.39-.04-14.02-4.5"/>
        <path class="cls-6" d="M306.69,309.24s9.39-.04,14.01-4.5"/>
      </g>
    </g>
  </g>
</svg>