<?xml version="1.0" encoding="UTF-8"?>
<svg id="_레이어_1" xmlns="http://www.w3.org/2000/svg" version="1.1" viewBox="0 0 983 787.1">
  <!-- Generator: Adobe Illustrator 29.0.1, SVG Export Plug-In . SVG Version: 2.1.0 Build 192)  -->
  <defs>
    <style>
      .st0 {
        fill: #c73131;
      }

      .st1 {
        fill: #e6b120;
      }

      .st2 {
        stroke-miterlimit: 4;
        stroke-width: 2.9px;
      }

      .st2, .st3 {
        fill: none;
        stroke: #000;
      }

      .st4 {
        fill: #ff4e24;
      }

      .st5 {
        fill: #fff;
      }

      .st6, .st7 {
        fill: #ffd152;
      }

      .st8 {
        fill: #29854f;
      }

      .st9 {
        fill: #ffc6ba;
      }

      .st10 {
        fill: #ff9f8c;
      }

      .st11 {
        fill: #fcf7e4;
      }

      .st12 {
        fill: #5ac787;
      }

      .st7 {
        stroke: #358f5a;
        stroke-linejoin: round;
        stroke-width: 1.3px;
      }

      .st13 {
        fill: #51b87c;
      }

      .st3 {
        stroke-width: 2.9px;
      }

      .st14 {
        fill: #e3a65f;
      }

      .st15 {
        fill: #22663e;
      }

      .st16 {
        fill: #358f5a;
      }
    </style>
  </defs>
  <path class="st5" d="M497,520.9c16.5,0,29.8-13.2,29.8-29.5s-13.3-29.5-29.8-29.5-29.8,13.2-29.8,29.5,13.3,29.5,29.8,29.5Z"/>
  <path d="M497,494.7c1,0,1.8-.8,1.8-1.8s-.8-1.8-1.8-1.8-1.8.8-1.8,1.8.8,1.8,1.8,1.8Z"/>
  <path d="M497,483c1,0,1.8-.8,1.8-1.8s-.8-1.8-1.8-1.8-1.8.8-1.8,1.8.8,1.8,1.8,1.8Z"/>
  <path d="M497,506.5c1,0,1.8-.8,1.8-1.8s-.8-1.8-1.8-1.8-1.8.8-1.8,1.8.8,1.8,1.8,1.8Z"/>
  <path class="st15" d="M473.4,456.3s19.4,6.4,42.4,0c0,0-3.1,8.5-20.3,9.4s-22.2-9.4-22.2-9.4h.1Z"/>
  <path class="st5" d="M496.7,470.5c11,0,19.9-8.8,19.9-19.7s-8.9-19.7-19.9-19.7-19.9,8.8-19.9,19.7,8.9,19.7,19.9,19.7h0Z"/>
  <path d="M493.6,451.1h0c-.4,0-.7-.3-.7-.6v-2.2c0-.4.3-.6.7-.6h0c.4,0,.7.3.7.6v2.2c0,.4-.3.6-.7.6Z"/>
  <path d="M500.7,451.1h0c-.4,0-.7-.3-.7-.6v-2.2c0-.4.3-.6.7-.6h0c.4,0,.7.3.7.6v2.2c0,.4-.3.6-.7.6Z"/>
  <path d="M497.5,457.4c-.7,0-1.4-.2-2.1-.5-1.3-.6-2.3-1.6-2.6-2.7-.1-.4.1-.9.5-1s.9.1,1,.5c.2.6.9,1.3,1.7,1.6.8.4,1.8.4,2.4.2.4-.2.9,0,1.1.4s0,.9-.4,1.1c-.5.2-1,.3-1.6.3h0Z"/>
  <path class="st4" d="M496.2,452.3c-.2-.8.4-1.7,1.3-1.8l6.4-.8c.4,0,.7.2.8.5.1.4,0,.8-.5.9l-6.1,2.1c-.8.3-1.7-.1-1.9-.9h0Z"/>
  <path class="st8" d="M501,470.1l8.1,37.7,11.2-2-1.5-39.4-17.8,3.8h0Z"/>
  <path class="st5" d="M519.4,480.8l-14.6,6.4,1.4,6.4,13.5-5.9-.3-6.9Z"/>
  <path class="st5" d="M509.2,507.8h0l11-4.9-.3-6.9-12.2,5.4,1.4,6.4h.1Z"/>
  <path class="st5" d="M518.8,466.4l-2.9.6-14.2,6.2,1.4,6.4,16-7-.2-6.3h0Z"/>
  <path class="st15" d="M515.3,515.9c3.7,0,6.6-2.9,6.6-6.5s-3-6.5-6.6-6.5-6.6,2.9-6.6,6.5,3,6.5,6.6,6.5Z"/>
  <path class="st16" d="M473.4,456.3s7.2,7.8,21.1,7.8,21.3-7.8,21.3-7.8l9.3,13.8s-11.1,11-30.1,11-32.2-11-32.2-11l10.6-13.8h0Z"/>
  <path class="st5" d="M478.4,460.1l-9.7,14c1.7.9,3.6,1.9,5.9,2.9l9.8-14.2c-2.4-.8-4.4-1.7-6.1-2.6h.1Z"/>
  <path class="st5" d="M494.6,464.2h-.3l-10.8,15.6c2.2.5,4.6.9,7.1,1.1l12.1-17.6c-2.4.5-5.1.9-8.2.9h0Z"/>
  <path class="st5" d="M517.5,458.7l-15,21.8c3.6-.6,6.9-1.5,9.7-2.6l9.3-13.4-3.9-5.8h0Z"/>
  <path class="st14" d="M498.2,523.4l-1.8-1.3s-4.2-3-8.3-6.8c-5.6-5.2-8.4-9.5-8.4-12.6s.8-2.9,2.2-3.9c1.4-.9,2.8-1.1,4.2-.5,2.9,1.1,5.7,5.4,8.4,12.6,2,5.3,3.2,10.3,3.2,10.4l.5,2.1h0ZM484.6,499.6c-.6,0-1.1.2-1.7.6-1,.7-1.5,1.5-1.5,2.6,0,4.8,9,12.7,14.2,16.7-1.7-6.4-5.7-18-10-19.7-.3,0-.7-.2-1-.2h0Z"/>
  <path class="st14" d="M495,523.3l.6-2.1s1.4-5,3.6-10.2c3-7.1,6-11.2,8.9-12.2,1.4-.5,2.8-.2,4.1.7,1.4,1,2.1,2.4,2,4,0,3.2-3.1,7.3-9,12.2-4.3,3.6-8.5,6.4-8.6,6.4l-1.8,1.2h.2ZM509.6,500.1c-.3,0-.6,0-.9.2-4.4,1.5-8.9,12.9-10.9,19.2,5.4-3.7,14.8-11.3,14.9-16.1,0-1.1-.4-1.9-1.4-2.6-.6-.4-1.2-.7-1.8-.7h0Z"/>
  <path class="st5" d="M454.5,613.2h83.9l.4-85.1-83.9-.5-.4,85.6h0Z"/>
  <path class="st6" d="M542.2,534.3v-14.1c0,0-90.6-.6-90.6-.6v14.1c-.1,0,90.6.6,90.6.6Z"/>
  <path class="st14" d="M499.2,520l-.5,93.5h1.6l.5-93.5h-1.6Z"/>
  <path class="st14" d="M493.1,520l-.5,93.5h1.6l.5-93.5h-1.6Z"/>
  <path class="st6" d="M440.2,656.1h112.3l.6-56.2-112.3-.7-.6,56.9h0Z"/>
  <path class="st14" d="M500.2,602.9l-.4,53.3h1.6l.4-53.3h-1.6Z"/>
  <path class="st14" d="M492.1,602.8l-.4,53.4h1.6l.4-53.4h-1.6Z"/>
  <path class="st13" d="M557.6,605.9l.2-12.7-121.6-.8-.2,12.7,121.6.8Z"/>
  <path class="st16" d="M818.7,772.2l-119.3-129.2c-17.3-17.3-17.3-45.5,0-62.8s45.4-17.3,62.7,0l119.3,129.2c17.3,17.3,17.3,45.5,0,62.8s-45.4,17.3-62.7,0Z"/>
  <path class="st7" d="M758.5,530.2c16,16,16,41.8,0,57.8l-49.3,49.3c-16,16-41.8,16-57.8,0s-16-41.8,0-57.8l49.3-49.3c15.9-16,41.8-16,57.8,0Z"/>
  <path class="st16" d="M486.1,63.2c-168.5,0-305.1,136.6-305.1,305.1s136.6,305.1,305.1,305.1,305.1-136.6,305.1-305.1S654.6,63.2,486.1,63.2ZM486.1,622.3c-140.3,0-254-113.7-254-254s113.7-254,254-254,254,113.7,254,254-113.7,254-254,254h0Z"/>
  <path class="st9" d="M725.3,434.5l4.6-10.4-1.3-7s-1-3.9,1.9-4.5,3.6,3.6,3.6,3.6l3.1-6.2s2.2-4.2,6.3-2.4l6.3,2.9s4.4,1.7,2.5,5.9l-11.7,24.9-15.2-6.8h0Z"/>
  <path d="M739.2,416.2h-.2c-.2,0-.3-.3-.2-.5l3.9-8.1c0-.2.3-.3.5-.2.2,0,.3.3.2.5l-3.9,8.1c0,.1-.2.2-.3.2Z"/>
  <path d="M745.3,424.3h0l-10.4-4.6c-.2,0-.3-.3-.2-.5,0-.2.3-.3.5-.2l10.4,4.6c.2,0,.3.3.2.5,0,.1-.2.2-.3.2h-.1Z"/>
  <path d="M743,417.9h-.2c-.2,0-.3-.3-.2-.5l3.9-8.1c0-.2.3-.3.5-.2.2,0,.3.3.2.5l-3.9,8.1c0,.1-.2.2-.3.2h0Z"/>
  <path d="M746.7,419.7h-.2c-.2,0-.3-.3-.2-.5l3.9-8.1c0-.2.3-.3.5-.2.2,0,.3.3.2.5l-3.9,8.1c0,.1-.2.2-.3.2h0Z"/>
  <path class="st5" d="M725.5,424.4l22.6,10.3-17.3,46.5-24.6,46-28-17.2,27.3-39.3,19.9-46.3h0Z"/>
  <path class="st9" d="M748.5,674.1l-24.8-21.4-13,18,24.5,19.9,13.3-16.6h0Z"/>
  <path d="M729.7,686.7c1.2-.3,3.5-.5,3.5-.5l9.3-15.8,2.8-3.2,10.4,7.3s-17.8,23-23.6,29.8c-1.3,1.6-3.6,1.8-3.5-1.1.2-3.3.8-14.1,1.1-16.5h0Z"/>
  <path class="st12" d="M683.3,561.7l-40.7-1.3s11.1,40.6,17,63.1c2.6,10.2,5.9,14,14,20.5,15.8,12.6,49.7,40.6,49.7,40.6l18.3-21.6-51.1-43.3-7.1-57.9h-.1Z"/>
  <path d="M728.2,658.8h-.2l-42.3-35.4s0,0,0-.2l-5-35.9c0-.2,0-.4.3-.4s.4,0,.4.3l5,35.8,42.2,35.3c.2,0,.2.4,0,.5,0,0-.2,0-.3,0h0Z"/>
  <path d="M722,678h-.2c-.2,0-.2-.4,0-.5l12.4-15.6c0-.2.4-.2.5,0,.2,0,.2.4,0,.5l-12.4,15.6s-.2,0-.3,0h0Z"/>
  <path class="st9" d="M607.8,698.7l15.2-24.7-16-13.5-15.8,24.7,16.6,13.5Z"/>
  <path d="M594.2,680.6c.5,1.3,1,3.9,1,3.9l15.4,7.8,3.3,2.6-6.7,10.4s-20.8-13.6-27.7-19c-1.6-1.2-2.2-3.7.3-4,2.9-.4,12.3-1.6,14.5-1.7h0Z"/>
  <path class="st12" d="M669.1,563.8l-37.6,40.9c-2.1,2.3-4.4,6.2-5.9,8.9l-33.9,59.3,27,17.4,34.3-62.1s24.3-20.1,30.2-25.3c13.5-11.8,19.9-24.9,18.5-38.3l-32.7-.7h.1Z"/>
  <path d="M659,624.1c0,0-.2,0-.3,0,0-.2,0-.4,0-.5l29.3-25.7c.2,0,.4,0,.5,0,0,.2,0,.4,0,.5l-29.3,25.7h-.2Z"/>
  <path d="M620,679.2h-.2c-.2,0-.2-.3,0-.5l30.2-55.7c0-.2.3-.2.5,0,.2,0,.2.3,0,.5l-30.2,55.7c0,0-.2.2-.3.2h0Z"/>
  <path d="M645.4,590h-.2c0,0-.2-.4,0-.5l18.5-20c0,0,.4-.2.5,0s.2.4,0,.5l-18.5,20s-.2,0-.3,0h0Z"/>
  <path d="M619,683.5h-.2l-20.7-13.4c-.2,0-.2-.3,0-.5,0-.2.3-.2.5,0l20.7,13.4c.2,0,.2.3,0,.5,0,0-.2.2-.3.2h0Z"/>
  <path class="st5" d="M646.9,571.9h50.5c4.9,0,9.1-3.7,9.5-8.6l6.8-72.6s-28,.6-36.9,0c-3.9-.2-13.5-.4-21.9.2-14.2,1-21.3,5.9-21.3,5.9l3.7,66c.3,5.1,4.5,9,9.5,9h.1Z"/>
  <path class="st5" d="M649,515.5l-16.3,7.7h-27.9s19-25.7,39-30.4c1.9,7.2,5.2,22.7,5.2,22.7Z"/>
  <path class="st12" d="M642.6,493.1s8.8-3.5,20.8-2.8c2.6,0,10.1.3,13.2.3,6.8-1.4,18.3-3.3,18.3-3.3,0,0,7.7,29.5-24.7,30.8-29.4,1.1-27.6-24.9-27.6-24.9h0Z"/>
  <path class="st5" d="M671,511.6c0,0-.3,0-.3-.2-1.1-2-3.3-3.3-5.5-3.4-2.3,0-4.5,1-5.8,2.9,0,.2-.3.2-.5,0-.2,0-.2-.3,0-.5,1.1-1.8.7-4.4-.8-5.9-1.4-1.3-3.6-1.7-5.4-.9-.2,0-.4.2-.6.3-.2,0-.4,0-.5-.2,0-.2,0-.4,0-.5.2,0,.4-.2.6-.3,1.7-1.1,2.5-3.5,1.8-5.4-.8-2.1-3.4-3.3-5.5-2.6-.2,0-.4,0-.5-.2,0-.2,0-.4.2-.5,2.5-.8,5.5.6,6.4,3,.7,1.7.2,3.7-.9,5.2,1.7-.2,3.4.3,4.7,1.5,1.3,1.3,1.9,3.2,1.6,5,1.4-1.2,3.3-1.9,5.2-1.8,2.2,0,4.4,1.3,5.7,3.1.7-1.8,2.4-3.3,4.3-3.7,1.9-.4,3.9,0,5.3,1.3,0-1.7.7-3.4,1.9-4.6,1.2-1.2,2.8-1.9,4.5-2-1.4-1.5-1.9-3.7-1.4-5.6.6-2.3,2.7-4.1,5.1-4.3.2,0,.4,0,.4.3s0,.4-.3.4c-2.1.2-3.9,1.8-4.5,3.8-.5,2,.3,4.3,1.9,5.5,0,0,.2.3,0,.4,0,.2-.2.2-.4.2-1.8-.2-3.7.4-5,1.7s-1.9,3.2-1.6,5c0,.2,0,.3-.2.4h-.4c-1.3-1.5-3.4-2.2-5.3-1.8-1.9.4-3.5,2-4,3.9,0,0-.2.3-.3.3h0Z"/>
  <path class="st5" d="M650.7,506.2h0c-.4,0-.9-.2-1.2-.5s-.5-.7-.4-1.2c0-.4.2-.9.5-1.2s.7-.5,1.2-.4c.9,0,1.6.8,1.6,1.7s-.2.9-.5,1.2-.7.5-1.1.5h0ZM650.7,503.6c-.2,0-.5,0-.6.3-.2.2-.3.4-.3.6s0,.5.3.7c.2.2.4.3.6.3s.5,0,.7-.3c.2-.2.3-.4.3-.6,0-.5-.4-.9-.9-1h0Z"/>
  <path class="st5" d="M658.4,513.5h0c-.9,0-1.6-.8-1.6-1.7s.2-.9.5-1.2.7-.5,1.2-.4c.4,0,.9.2,1.2.5s.5.7.4,1.2c0,.9-.8,1.6-1.7,1.6h0ZM658.4,510.9c-.2,0-.5,0-.6.3-.2.2-.3.4-.3.6s0,.5.3.7c.2.2.4.3.6.3s.5,0,.7-.3c.2-.2.3-.4.3-.6,0-.5-.4-.9-.9-1h0Z"/>
  <path class="st5" d="M670.8,514.2h0c-.4,0-.9-.2-1.2-.5s-.5-.7-.4-1.2c0-.4.2-.9.5-1.2s.7-.5,1.2-.4c.9,0,1.6.8,1.6,1.7s-.8,1.6-1.7,1.6h0ZM670.8,511.6c-.5,0-.9.4-.9.9s0,.5.2.7.4.3.6.3.5,0,.7-.3c.2-.2.3-.4.3-.6s0-.5-.3-.7c-.2-.2-.4-.3-.6-.3h0Z"/>
  <path class="st5" d="M681.4,512h0c-.4,0-.9-.2-1.2-.5s-.5-.7-.4-1.2c0-.4.2-.9.5-1.2s.7-.5,1.2-.4c.4,0,.9.2,1.2.5s.5.7.4,1.2c0,.9-.8,1.6-1.7,1.6h0ZM681.4,509.4c-.2,0-.5,0-.6.3-.2.2-.3.4-.3.6s0,.5.3.7c.2.2.4.3.6.3s.5,0,.7-.3c.2-.2.3-.4.3-.6s0-.5-.3-.7c-.2-.2-.4-.3-.6-.3h-.1Z"/>
  <path class="st5" d="M689.1,504.4h0c-.4,0-.9-.2-1.2-.5s-.5-.7-.4-1.2c0-.4.2-.9.5-1.2s.7-.5,1.2-.4c.4,0,.9.2,1.2.5s.5.7.4,1.2c0,.9-.8,1.6-1.7,1.6h0ZM689.1,501.8c-.2,0-.5,0-.6.3-.2.2-.3.4-.3.6s0,.5.3.7c.2.2.4.3.6.3s.5,0,.7-.3c.2-.2.3-.4.3-.6s0-.5-.3-.7c-.2-.2-.4-.3-.6-.3h-.1Z"/>
  <path class="st5" d="M692,494h0c-.4,0-.9-.2-1.2-.5s-.5-.7-.4-1.2c0-.4.2-.9.5-1.2s.7-.5,1.2-.4c.9,0,1.6.8,1.6,1.7s-.8,1.6-1.7,1.6h0ZM692,491.4c-.5,0-.9.4-.9.9s0,.5.3.7c.2.2.4.3.6.3s.5,0,.7-.3c.2-.2.3-.4.3-.6s0-.5-.2-.7-.4-.3-.6-.3h-.2Z"/>
  <path class="st5" d="M647,497h0c-.4,0-.9-.2-1.2-.5s-.5-.7-.4-1.2c0-.9.8-1.6,1.7-1.6h0c.9,0,1.6.8,1.6,1.7s-.2.9-.5,1.2-.7.5-1.1.5h0ZM647,494.4c-.2,0-.5,0-.6.3-.2.2-.3.4-.3.6,0,.5.4.9.9,1,.2,0,.5,0,.7-.3.2-.2.3-.4.3-.6s0-.5-.3-.7c-.2-.2-.4-.3-.6-.3h-.1Z"/>
  <path d="M710.1,529.5h0c-.2,0-.3-.2-.3-.4l2.3-24.5c0-.2.2-.3.4-.3s.3.2.3.4l-2.3,24.5c0,.2-.2.3-.4.3h0Z"/>
  <path class="st9" d="M639.5,520.7l10-4.1,3.7-5.7s2-3.3,4.3-1.8c2.4,1.5,0,4.9,0,4.9l6.2-2.2s4.3-1.4,5.9,2.5l2.4,6.2s1.9,4.1-2.3,5.7l-24.6,9.2-5.8-14.8h.2Z"/>
  <path d="M661.4,517.6c0,0-.3,0-.3-.2s0-.4.2-.5l8-2.9c.2,0,.4,0,.5.2,0,.2,0,.4-.2.5l-8,2.9h-.2Z"/>
  <path d="M662.9,521.3c-.2,0-.3,0-.3-.2s0-.4.2-.5l8-2.9c.2,0,.4,0,.5.2,0,.2,0,.4-.2.5l-8,2.9h-.2Z"/>
  <path d="M664.2,525c0,0-.3,0-.3-.2s0-.4.2-.5l8-2.9c.2,0,.4,0,.5.2,0,.2,0,.4-.2.5l-8,2.9h-.2Z"/>
  <path class="st5" d="M625.5,521.1l20.1-6.9,7.3,20s-15.5,6.8-27.3,11.3c-8.3,3.2-17.4,3.4-22.7.7-4.7-2.4-4.8-11.1-2.1-16.2,1.6-3,4-6.7,4-6.7l20.7-2.2h0Z"/>
  <path d="M619.3,523.6c-.2,0-.3,0-.3-.2s0-.4.2-.5l26.4-9.1c.2,0,.4,0,.5.2,0,.2,0,.4-.2.5l-26.4,9.1h-.2Z"/>
  <path d="M653,533.3c0,0-.3,0-.3-.2l-6.8-17.2c0-.2,0-.4.2-.5.2,0,.4,0,.5.2l6.8,17.2c0,.2,0,.4-.2.5h-.2Z"/>
  <path d="M629,544.5c0,0-.3,0-.3-.2s0-.4.2-.5l23.9-10c.2,0,.4,0,.5.2,0,.2,0,.4-.2.5l-23.9,10h-.2Z"/>
  <path d="M673.2,462c5.3-1.4,11.3.7,14.6,5.2,3.3,4.4,3.5,10.8.7,15.5-2.9,4.7-8.7,7.3-14.3,6.4-.7-7.7-1.3-15.4-1-27.1h0Z"/>
  <path class="st9" d="M663.5,492.2c0,1.8,2.5,3.2,6.2,3.2s7-1.8,7-3.4l-.2-10-13.4.2s.2,4.7.4,10.1h0Z"/>
  <path class="st9" d="M661.2,486.3c-1.9-1.6-3.4-4.8-2.7-8.4.5-2.5,1.6-8.3,2.1-10.8.8-4,6.3-5.9,11.6-4.9,5,.9,8.9,5,8.2,8.6-.3,1.5-2,7.7-2,7.7,1.3,0,2.3,1,2.4,2.2.2,1.7-1.5,3.6-3.1,4-.8.9-2,2.8-3.8,3.7-3.7,1.8-8.9,1-12.6-2h-.1Z"/>
  <path d="M669.1,479.4h0c.3,0,.5,0,.6-.3l.4-1.6c0-.3,0-.5-.4-.6h0c-.3,0-.5,0-.6.3l-.4,1.6c0,.3,0,.5.4.6Z"/>
  <path d="M661.1,477.6h0c.3,0,.5,0,.6-.3l.4-1.6c0-.3,0-.5-.4-.6h0c-.3,0-.5,0-.6.3l-.4,1.6c0,.3,0,.5.4.6Z"/>
  <path d="M664.7,483.2c-.7,0-1.4-.2-1.8-.6-.2,0-.2-.4,0-.5,0-.2.4-.2.5,0,.4.3,1.1.5,1.8.4s1.3-.4,1.6-.9c0-.2.3-.2.5,0,.2,0,.2.3,0,.5-.4.6-1.2,1.1-2.1,1.2h-.6Z"/>
  <path d="M664.3,479.3h0c-.5-.2-.8-.5-.8-1s.2-.9.7-1.1c.3-.1.5-1,.6-1.7,0-.2.2-.3.4-.3s.3.2.3.4c0,.3-.2,1.9-1,2.3-.2,0-.3.2-.3.4s0,.3.3.3.3.3.2.5c0,.2-.2.3-.3.3h0Z"/>
  <path class="st10" d="M659,479.7c.2-.8,1-1.3,1.9-1.1.8.2,1.3,1,1.2,1.8-.2.8-1,1.3-1.9,1.1-.8-.2-1.3-1-1.2-1.8h0Z"/>
  <path class="st10" d="M668.8,482c.2-.8,1-1.3,1.9-1.1.8.2,1.3,1,1.2,1.8-.2.8-1,1.3-1.9,1.1-.8-.2-1.3-1-1.2-1.8h0Z"/>
  <path d="M657.3,465.7c.5-2.6,2.5-4.6,4.3-5.5,1.7-.9,4.5-1.5,7.1-1.2,2.1.3,3.8.9,5.4,2.2.8.6,1.9,1.9,1.9,1.9l.6.3s1.6.5,2.4.9c1.4.7,3.1,2.1,3.9,4.1,1.1,2.9.2,5.6-2,8-1.4,1.6-2.9,2.2-4.5,3.6,0-.7,0-2.1.2-3.8-2.2.6-5.6-1.5-5.4-3.4-2.5,1.6-6.6.5-8-2-.8.7-2.7.9-4.1,0-1.7-1-2.1-2.9-1.7-5.1h-.1Z"/>
  <path d="M665.5,488.4c-1.9,0-3.2-.8-3.3-.8-.2,0-.2-.3,0-.5,0-.2.3-.2.5,0,0,0,1.7.9,3.8.6.2,0,.4,0,.4.3s0,.4-.3.4h-1Z"/>
  <path d="M676.2,482.2h-.2c-.2,0-.2-.3,0-.5.9-1.6,2.5-1.7,3.2-1.6.2,0,.3.2.3.4s-.2.3-.4.3c0,0-1.5-.3-2.4,1.2,0,0-.2.2-.3.2h0Z"/>
  <path d="M675.9,486.4c0,0-.3,0-.3-.2s0-.4.2-.5c0,0,1.3-.6,2.4-1.5.2,0,.4,0,.5,0,0,.2,0,.4,0,.5-1.2.9-2.5,1.5-2.5,1.6h-.3Z"/>
  <path d="M669.7,495.7c-.5,0-1.1,0-1.6,0-.2,0-.3-.2-.3-.4s.2-.3.4-.3c5.1.7,8-2.3,8-2.3,0,0,.4-.2.5,0,0,0,.2.4,0,.5,0,0-2.6,2.6-7,2.6h0Z"/>
  <path class="st6" d="M662.5,457.7s6.9-6.6,9.6-9c7.3-6.6,14.9-9.7,19.2-7.3,4.1,2.3,5.6,9.3,4.2,19.1-.7,4.7-3,12.7-3,12.7l-29.9-15.6h0Z"/>
  <path class="st1" d="M666.1,459.7h-.2c-.2-.1-.2-.3,0-.5,6.5-9,17.3-18,25.4-18h0c.2,0,.4.2.4.4s-.2.4-.4.4h0c-3.7,0-8.2,2-13.1,5.6-4.3,3.2-8.5,7.6-11.7,12.1,0,.1-.2.2-.3.2h0v-.2Z"/>
  <path class="st1" d="M689.1,471.9h-.2c-.2-.1-.2-.3,0-.5,5.3-9.1,6.5-19.7,3.3-29.3,0-.2,0-.4.2-.5.2,0,.4,0,.5.2,3.2,9.7,2,20.6-3.4,29.9,0,.1-.2.2-.3.2h0Z"/>
  <path class="st1" d="M671.6,462.8h-.2c-.2,0-.3-.3-.2-.5,3.9-7.7,13.2-18.1,20.5-20.7.2,0,.4,0,.5.2,0,.2,0,.4-.2.5-7.1,2.5-16.3,12.7-20.1,20.3,0,.1-.2.2-.3.2h0Z"/>
  <path class="st1" d="M684,469.3h-.2c-.2-.1-.2-.3,0-.5,5.6-8.7,8.3-17.7,7.8-26.7,0-.2,0-.4.3-.4s.4.1.4.3c.4,9.2-2.2,18.4-8,27.2,0,.1-.2.2-.3.2h0Z"/>
  <path class="st1" d="M678.3,465.9h-.2c-.2-.1-.2-.3,0-.5.9-1.5,1.8-3.2,2.7-4.8,3.5-6.2,7.5-13.2,10.9-18.7,0-.2.3-.2.5-.1s.2.3,0,.5c-3.5,5.5-7.4,12.5-10.9,18.7-.9,1.7-1.9,3.3-2.7,4.8,0,.1-.2.2-.3.2h0Z"/>
  <path class="st5" d="M661.4,457c1-1.5,2.3-2.3,4.3-1.5,3.9,1.6,8.7,4.4,13.9,7.3,5.6,3.1,9.9,6.1,12.3,8,1.7,1.4,2.4,2.8,1.5,4.3-1.2,2.1-2.6,2.8-4.5,1.9-2.8-1.3-7.5-4.1-13.2-7.3-5.1-2.9-11.3-6.4-14.5-8.7-1-.7-.8-2.4.3-4h0Z"/>
  <path class="st5" d="M695.2,443.9c2.9-.9,4.5-4.1,3.6-7s-4.1-4.5-7-3.6-4.5,4.1-3.6,7,4.1,4.5,7,3.6Z"/>
  <path class="st9" d="M306.9,696.3l15.7-84.8,24.2,1.2-16.7,84.6-23.2-1Z"/>
  <path class="st5" d="M317.5,639.2l-10.6,57.1,23.2,1,11.5-58.1h-24.1Z"/>
  <path d="M332,686.7c-1.2.8-3.2,2.5-3.2,2.5l-19.3-3.7h-2.6l-3.1,15.2s29.3.7,39,.8c2.2,0,4.3-1.8,2.1-3.7-2.6-2.3-10.9-9.6-12.9-11.1Z"/>
  <path class="st5" d="M276.3,586.2l21.9-41.9,47.3,46.6c4.3,4.2,6.2,10.2,5.2,16.1l-2.3,11.4-32.1.2,1.5-6.8-41.4-25.6h-.1Z"/>
  <path d="M347.6,613.3h0l-27.4-.4c-.2,0-.4-.2-.4-.4s.2-.4.4-.4h0l27.4.4c.2,0,.4.2.4.4s-.2.4-.4.4Z"/>
  <path class="st9" d="M426,603.3l-82.9-.8.2-23.5,83.3.3-.6,24h0Z"/>
  <path class="st5" d="M367.5,579v23.6l58.5.6.6-24-59.1-.2h0Z"/>
  <path d="M420.8,579.2c.8,1.3,2.5,3.4,2.5,3.4l-4.4,19.4-.2,2.9,15.1-.2s1.7-26,2.2-35.8c.1-2.3-1.5-4.4-3.5-2.3-2.4,2.5-10,10.7-11.7,12.7h0Z"/>
  <path class="st5" d="M301.2,564.6l4.6,3.6,44.3,6.6v30.1s-42-.2-53.9.8c-.3,0-37.4,5.9-37.4-35.9s.4-5.9.4-5.9l42,.7h0Z"/>
  <path d="M296.7,606.1c-.2,0-.4-.2-.4-.4s.2-.4.4-.4l28.2-.9c.2,0,.4.2.4.4s-.2.4-.4.4l-28.2.9h0Z"/>
  <path d="M334.3,572.6h0l-21.8-3.1c-.2,0-.4-.2-.3-.5,0-.2.2-.4.5-.3l21.8,3.1c.2,0,.4.2.3.5,0,.2-.2.3-.4.3h-.1Z"/>
  <path d="M345.8,602.5c-.2,0-.4-.2-.4-.4v-24.4c-.1-.2,0-.4.3-.4h0c.2,0,.4.2.4.4v24.4c.1.2,0,.4-.3.4h0Z"/>
  <path class="st12" d="M261.3,518.2l-37.2,35.7-7.2-29.1s25.6-26.9,30.2-31.5c6.5-6.5,17.7-7.9,24.6-8.3-2,7.2-10.5,33.2-10.5,33.2h.1Z"/>
  <path class="st9" d="M381.4,451.9l8.7-8.4,1.5-7.4s.6-4.2,3.7-3.7c3.1.6,2.1,5,2.1,5l5.5-4.9s3.8-3.3,7.1.2l5.1,5.4s3.7,3.5,0,6.8l-21.5,19.7-12.2-12.8h0Z"/>
  <path d="M402.6,439.6c-.1,0-.2,0-.3-.1-.2-.2-.1-.4,0-.6l7-6.4c.2-.2.4-.1.6,0,.2.2.1.4,0,.6l-7,6.4s-.2.1-.3.1h0Z"/>
  <path d="M403.4,449.8c-.1,0-.2,0-.3-.1l-6-7.3c-.1-.2-.1-.4,0-.6.2-.1.4-.1.6,0l6,7.3c.1.2.1.4,0,.6h-.3Z"/>
  <path d="M405.6,442.7c-.1,0-.2,0-.3-.1-.2-.2-.1-.4,0-.6l7-6.4c.2-.2.4-.1.6,0,.2.2.1.4,0,.6l-7,6.4s-.2.1-.3.1h0Z"/>
  <path d="M408.5,446c-.1,0-.2,0-.3-.1-.2-.2-.1-.4,0-.6l7-6.4c.2-.1.4-.1.6,0,.2.2.1.4,0,.6l-7,6.4s-.2.1-.3.1h0Z"/>
  <path class="st12" d="M349.8,473.6l34.7-31.8,17.5,20-35.8,35.4-37.8,15-19.7-27.7,41.1-10.9h0Z"/>
  <path class="st12" d="M330.8,511.3l-4,50.3c-.3,3.7-3.2,6.7-6.9,7l-56.8,5c-4,.4-7.6-2.5-8.2-6.4l-7-45.9,13-34.3s5.3-1.8,15.8-2.4c4.6-.2,6.4-.2,21-.2s20.9-2.5,20.9-2.5l12.2,29.4h0Z"/>
  <path class="st6" d="M252,489.7s1.1,22.8,35.9,21c38.2-2,35.2-30,35.2-30l-12.7,2.5c-2.7.5-5.4.8-8.1.9l-21.7.3s-19.7-.4-28.6,5.3h0Z"/>
  <path class="st5" d="M261.8,494.8c.9-.9.9-2.4,0-3.4-.9-.9-2.4-.9-3.4,0-.9.9-.9,2.4,0,3.4.9.9,2.4.9,3.4,0Z"/>
  <path class="st5" d="M271.5,501.6c.3-1.3-.5-2.6-1.8-2.9-1.3-.3-2.6.5-2.9,1.8s.5,2.6,1.8,2.9c1.3.3,2.6-.5,2.9-1.8Z"/>
  <path class="st5" d="M284.1,506.5c.9-.9.9-2.4,0-3.4-.9-.9-2.4-.9-3.4,0-.9.9-.9,2.4,0,3.4s2.4.9,3.4,0Z"/>
  <path class="st5" d="M298.5,505.1c.9-.9.9-2.4,0-3.4-.9-.9-2.4-.9-3.4,0-.9.9-.9,2.4,0,3.4.9.9,2.4.9,3.4,0Z"/>
  <path class="st5" d="M309.6,500.1c1.2-.5,1.8-1.9,1.3-3.1-.5-1.2-1.9-1.8-3.1-1.3s-1.8,1.9-1.3,3.1c.5,1.2,1.9,1.8,3.1,1.3Z"/>
  <path class="st5" d="M316.1,489.6c1.2-.5,1.8-1.9,1.3-3.1-.5-1.2-1.9-1.8-3.1-1.3s-1.8,1.9-1.3,3.1c.5,1.2,1.9,1.8,3.1,1.3Z"/>
  <path d="M329.8,524.3h0c-.2,0-.4-.2-.4-.4l1.5-22c0-.2.2-.4.4-.4s.4.2.4.4l-1.5,22c0,.2-.2.4-.4.4Z"/>
  <path d="M250.4,531.7c-.2,0-.4-.2-.4-.4v-21.3c0-.2.2-.4.4-.4s.4.2.4.4v21.3c0,.2-.2.4-.4.4Z"/>
  <path d="M271,470c-2.3-9.4-16.4-10.9-25.3-5.6-8.9,5.3-14.2,15.4-15.9,25.6-1.9,11.5,1.4,17.8-3.3,23.7-4.6,5.7-12,3.4-12,3.4,0,0,4.3,6.8,13.7,4.8,5.8-1.2,8.7-5.3,11-11.7,2.9-8.1,3.3-12.6,8-18.4,4.2-5.2,8.3-5,14.8-6.4,8.3-1.7,11.4-6.1,9.1-15.4h-.1Z"/>
  <path d="M287.9,449.7c-5.2-5.2-15.7-4.8-20.5,1.3-6.3,8-4.8,18.1-.8,24,3.6,5.4,10.3,8.6,16.9,7.6.8-9.1,4.8-19,4.4-32.9h0Z"/>
  <path class="st9" d="M296.2,486.3c0,2.2-3,3.8-7.3,3.7-4.7,0-8.3-2.1-8.3-4.1l.2-11.8,15.8.2s-.3,5.6-.5,11.9h0Z"/>
  <path class="st9" d="M298.9,479.3c2.3-1.8,4-5.6,3.2-10-.6-3-1.9-9.8-2.5-12.8-.9-4.7-7.4-7-13.7-5.8-5.9,1-10.5,5.9-9.7,10.1.3,1.7,2.4,9.1,2.4,9.1-1.6,0-2.7,1.1-2.8,2.6-.2,2.1,1.8,4.3,3.7,4.7.9,1,2.3,3.3,4.5,4.3,4.4,2.2,10.5,1.2,14.9-2.3h0Z"/>
  <path d="M289.5,471.2h0c-.3,0-.6-.1-.7-.4l-.4-1.9c0-.3.1-.6.4-.7h0c.3,0,.6.1.7.4l.4,1.9c0,.3-.1.6-.4.7Z"/>
  <path d="M299,469.1h0c-.3,0-.6-.1-.7-.4l-.4-1.9c0-.3.1-.6.4-.7h0c.3,0,.6.1.7.4l.4,1.9c0,.3-.1.6-.4.7Z"/>
  <path d="M294.6,475.7h-.6c-1.1-.2-2-.7-2.5-1.4-.1-.2,0-.4.1-.6.2-.1.4,0,.6.1.3.5,1.1.9,1.9,1s1.6,0,2.1-.5c.2-.1.4-.1.6,0,.1.2.1.4,0,.6-.5.4-1.3.7-2.1.7h-.1Z"/>
  <path d="M295.1,471c-.2,0-.3-.1-.4-.3,0-.2,0-.4.3-.5.3,0,.4-.2.4-.4s-.1-.4-.3-.5c-.9-.4-1.2-2.3-1.2-2.7s.1-.4.4-.4.4.1.4.4c0,.7.4,1.9.7,2.1.5.2.8.7.8,1.3s-.4,1-1,1.1h-.1,0Z"/>
  <path class="st10" d="M301.5,471.5c-.2-1-1.2-1.6-2.2-1.3-1,.2-1.6,1.2-1.4,2.2s1.2,1.6,2.2,1.3c1-.2,1.6-1.2,1.4-2.2Z"/>
  <path class="st10" d="M289.8,474.2c-.2-1-1.2-1.6-2.2-1.3-1,.2-1.6,1.2-1.4,2.2s1.2,1.6,2.2,1.3c1-.2,1.6-1.2,1.4-2.2Z"/>
  <path d="M304.5,454.3c-1-3.2-2.9-5.4-6.1-7.2-1.9-1.1-5-1.9-8.4-1.3-6,1-8.7,6.1-8.7,6.1l-.7.3s-1.9.6-2.8,1.1c-1.6.9-3.7,2.5-4.6,4.9-1.3,3.4-.2,6.6,2.4,9.4,1.7,1.9,3.4,2.5,5.3,4.3,0-.8-.2-2.3-.2-3.4,2.3.3,4.4-.6,6.2-2,1.6-1.3,2.3-3,2.2-4.8,2.2,2.2,6.1,2.3,8.4.2.7,1.7,2.9,2.1,4.2,1.6,2.4-.8,3.6-6,2.7-9.2h.1Z"/>
  <path d="M293.7,481.7h-1.1c-.2,0-.4-.2-.3-.5,0-.2.2-.4.5-.3,2.5.3,4.5-.8,4.5-.8.2,0,.4,0,.6.2.1.2,0,.4-.2.6,0,0-1.7.9-3.9.9h-.1Z"/>
  <path d="M281.2,474.4c-.1,0-.3,0-.4-.2-1.1-1.9-2.8-1.5-2.8-1.5-.2,0-.4,0-.5-.3,0-.2,0-.4.3-.5.8-.2,2.6,0,3.7,1.9.1.2,0,.4-.2.6h-.2.1Z"/>
  <path d="M281.4,479.4h-.2s-1.6-.7-3-1.8c-.2,0-.2-.4,0-.6.1-.2.4-.2.6,0,1.3,1.1,2.8,1.7,2.8,1.7.2,0,.3.3.2.5,0,0-.2.2-.4.2h0Z"/>
  <path d="M288.8,490.4c-5.2,0-8.1-2.9-8.3-3.1-.2-.2-.1-.4,0-.6.2-.2.4-.2.6,0,0,0,3.5,3.5,9.5,2.7.2,0,.4,0,.5.3,0,.2-.1.4-.3.5-.7,0-1.3,0-1.9,0h-.1Z"/>
  <path class="st9" d="M262.8,540l12.7,1.5,7.1-3.7s3.9-2.3,5.5.6c1.6,2.9-2.7,5.1-2.7,5.1l7.7,1.3s5.2,1,4.6,6l-1.1,7.8s-.4,5.4-5.6,4.6l-30.7-4.5,2.4-18.6h.1Z"/>
  <path d="M297.5,550.9h0l-10-1.5c-.2,0-.4-.2-.3-.5s.2-.4.5-.3l10,1.5c.2,0,.4.2.3.5,0,.2-.2.3-.4.3h-.1Z"/>
  <path d="M296.9,555.5h0l-10-1.5c-.2,0-.4-.2-.3-.5,0-.2.2-.4.5-.3l10,1.5c.2,0,.4.2.3.5,0,.2-.2.3-.4.3h-.1Z"/>
  <path d="M296.2,560.1h0l-10-1.5c-.2,0-.4-.2-.3-.5,0-.2.2-.4.5-.3l10,1.5c.2,0,.4.2.3.5,0,.2-.2.3-.4.3h-.1Z"/>
  <path class="st12" d="M218.5,523.1l54.8,14.5-2.4,26.3-50-2.3c-7.9-.4-14-7.3-14.8-15.3-.9-8.7,6.4-16.6,12.4-23.2h0Z"/>
  <path d="M273.3,538h-.1l-26.1-6.9c-.2,0-.3-.3-.3-.5s.3-.3.5-.3l26.1,6.9c.2,0,.3.3.3.5s-.2.3-.4.3h0Z"/>
  <path d="M270.9,564.3h0l-32.4-1.2c-.2,0-.4-.2-.4-.4s.2-.4.4-.4l32.4,1.2c.2,0,.4.2.4.4s-.2.4-.4.4h0Z"/>
  <path d="M271.2,562.1h0c-.2,0-.4-.2-.4-.4l2.2-22.1c0-.2.2-.4.4-.4s.4.2.4.4l-2.2,22.1c0,.2-.2.4-.4.4h0Z"/>
  <path class="st5" d="M796.1,69.6c.3-.3.7-.6,1-.7.4-.3.8-.6,1.1-.8.2,0,.4-.3.6-.3s.3,0,.3.2-.2.5-.4.7-.4.5-.6.8c-.3.3-.5.6-.8.9s-.6.6-.9.9c-.4.4-.9.8-1.4,1.2-.4.3-.8.7-1.2,1s-.9.8-1.3,1.1c-.8.6-1.1.8-1.9,1.4,0,0-.4.3-.5.4l-.4.2h0s.4-.6.7-1c.2-.2.7-.9.9-1.2.2-.2.7-.8.9-1,.3-.3,1-1,1.3-1.3.2-.2.8-.7,1-.9.6-.6,1-.9,1.7-1.5h0Z"/>
  <path class="st5" d="M768.6,69.7c-.3-.2-.8-.5-1-.7-.4-.3-.8-.5-1.1-.7-.2,0-.4-.2-.6-.3-.2,0-.3,0-.3.2s.3.5.4.7c.2.2.5.5.7.7.3.3.6.6.9.9.3.3.6.5.9.8.5.4,1,.8,1.5,1.1.4.3.8.6,1.2.9s.9.7,1.4,1c.8.5,1.1.7,2,1.3,0,0,.4.3.5.3l.4.2h0s-.5-.6-.8-1c-.2-.2-.8-.9-1-1.1s-.7-.7-1-1-1-.9-1.4-1.2c-.2-.2-.8-.7-1.1-.9-.7-.5-1-.8-1.8-1.4h0l.2.2Z"/>
  <path class="st5" d="M796,98.8c.3.2.7.6,1,.7.4.3.8.6,1.1.8.2.1.4.3.6.3s.3,0,.3-.2-.2-.5-.4-.7-.4-.6-.6-.8c-.3-.3-.5-.6-.8-.9-.3-.3-.6-.6-.9-.9-.4-.4-.9-.8-1.4-1.2-.4-.3-.8-.7-1.2-1s-.9-.8-1.3-1.1c-.8-.6-1.1-.8-1.9-1.4,0,0-.4-.3-.5-.4l-.4-.2h0s.4.6.7,1c.2.2.7.9.9,1.2.2.2.7.8.9,1,.3.3,1,1,1.3,1.3.2.2.8.7,1,.9.6.6,1,.9,1.7,1.5h0Z"/>
  <path class="st5" d="M781.8,105.4c0,.4,0,.9,0,1.1,0,.4,0,.9.2,1.2,0,.2,0,.5.2.6,0,.2.3.2.4,0,0-.2.2-.5.3-.7,0-.3,0-.7,0-1,0-.4,0-.8,0-1.2v-4.3c0-.5,0-1.1,0-1.6,0-.9,0-1.2-.3-2.2,0-.1,0-.5,0-.6v-.4h0s-.2.7-.2,1.2-.2,1.1-.2,1.4,0,1,0,1.3v3c0,.8,0,1.2,0,2.1h-.4Z"/>
  <path class="st5" d="M783.3,63c0-.4,0-.9,0-1.1,0-.4,0-.9-.2-1.2,0-.2,0-.5-.2-.6,0-.2-.3-.2-.4,0,0,0-.2.5-.3.7,0,.3,0,.7,0,1s0,.8,0,1.2v4.3c0,.5,0,1.1,0,1.6,0,.9,0,1.2.3,2.2,0,0,0,.5,0,.6v.4h0s.2-.7.2-1.2.2-1.1.2-1.4,0-1,0-1.3v-5.1h.3Z"/>
  <path class="st5" d="M800,84.3c.4,0,.9,0,1.3,0,.5,0,1,0,1.3-.2.2,0,.5,0,.7-.2.2,0,.2-.2,0-.3-.2,0-.6-.2-.8-.2-.3,0-.7,0-1.1,0h-6.1c-.6,0-1.2,0-1.8,0-1,0-1.4,0-2.5.3h-1.1c0,0,.8.2,1.3.3.3,0,1.2.2,1.6.2s1.1,0,1.5,0h5.7,0Z"/>
  <path class="st5" d="M764.2,83h-1.3c-.5,0-1,0-1.3.2-.2,0-.5,0-.7.2-.2,0-.2.2,0,.3.2,0,.6.2.8.3.3,0,.7,0,1.1,0,.4,0,.9,0,1.3,0h6.6c1,0,1.4,0,2.5-.2h1.1c0,0-.8-.3-1.3-.3s-1.2-.2-1.6-.2-1.1,0-1.5,0h-5.7v-.4Z"/>
  <path class="st5" d="M769.3,97.8c-.3.3-.7.6-.9.7-.4.3-.8.6-1,.8-.2.1-.4.3-.6.3s-.3,0-.3-.2.2-.5.3-.7c.2-.2.4-.6.6-.8.3-.3.5-.6.8-.9.3-.3.6-.6.9-.9.4-.4.9-.8,1.4-1.2.4-.3.8-.7,1.2-1s.9-.8,1.3-1.1c.8-.6,1-.8,1.9-1.5,0,0,.4-.3.5-.4l.4-.2h0s-.4.6-.7,1c-.2.2-.7.9-.9,1.2-.2.2-.7.8-.9,1.1-.3.3-1,1-1.3,1.3-.2.2-.8.7-1,.9-.6.6-1,.9-1.7,1.5h0Z"/>
  <path class="st5" d="M519.3,742.5c-.3-.3-.8-.6-1.1-.8-.4-.3-.9-.6-1.2-.9-.2,0-.5-.3-.7-.4-.2,0-.4,0-.3.2,0,.2.3.6.4.8.2.3.5.6.7.9.3.4.6.7.9,1.1.3.3.6.7,1,1,.5.5,1,1,1.6,1.4.4.4.9.8,1.3,1.1.5.4,1,.9,1.5,1.2.9.7,1.2.9,2.2,1.7,0,0,.5.3.6.4l.5.3h0s-.5-.7-.9-1.2c-.2-.3-.8-1.1-1.1-1.3-.2-.2-.8-.9-1.1-1.2-.3-.4-1.1-1.1-1.5-1.5-.3-.2-.9-.8-1.1-1.1-.7-.7-1.1-1-1.9-1.7h.2Z"/>
  <path class="st5" d="M550.7,742.7c.4-.3.9-.6,1.2-.8.4-.3.9-.6,1.3-.8.2,0,.5-.3.7-.3s.4,0,.3.2c0,.2-.3.6-.5.8-.2.3-.6.6-.8.8l-1,1c-.3.3-.7.6-1.1.9-.5.4-1.1.9-1.7,1.3-.5.3-1,.7-1.4,1-.5.4-1.1.8-1.6,1.1-.9.6-1.3.9-2.3,1.5,0,0-.5.3-.6.4l-.5.2h0s.5-.7.9-1.1c.2-.2.9-1,1.2-1.2.2-.2.8-.8,1.2-1.1s1.2-1.1,1.6-1.4c.3-.2.9-.7,1.2-1,.8-.6,1.2-.9,2.1-1.6h-.2Z"/>
  <path class="st5" d="M519.3,776c-.3.3-.8.6-1.1.8-.4.3-.9.6-1.2.9-.2,0-.5.3-.7.4-.2,0-.4,0-.3-.2,0-.2.3-.6.4-.8.2-.3.5-.6.7-.9.3-.4.6-.7.9-1.1l1-1c.5-.5,1-.9,1.6-1.4.4-.4.9-.8,1.3-1.1.5-.4,1-.9,1.5-1.2.9-.7,1.2-.9,2.2-1.7,0,0,.5-.3.6-.4l.5-.3h0s-.5.7-.9,1.2c-.2.3-.8,1.1-1.1,1.3-.2.2-.8.9-1.1,1.2-.3.4-1.1,1.1-1.5,1.5-.3.2-.9.8-1.1,1.1-.7.7-1.1,1-2,1.7h.3Z"/>
  <path class="st5" d="M535.6,783.5c0,.4,0,1,0,1.3,0,.5,0,1-.2,1.4,0,.3,0,.5-.2.7,0,.2-.3.2-.4,0,0-.2-.3-.6-.3-.8,0-.3,0-.8,0-1.1,0-.5,0-.9,0-1.4v-3.3c0-.5,0-1.1,0-1.7,0-.6,0-1.3,0-1.8,0-1,.2-1.4.3-2.6,0,0,0-.5,0-.7v-.5h0s.2.8.3,1.4c0,.3.2,1.3.2,1.6s0,1.1,0,1.5v3.5c0,.9,0,1.4,0,2.4h.2Z"/>
  <path class="st5" d="M533.9,735c0-.4,0-1,0-1.3,0-.5,0-1,.2-1.4,0-.3,0-.5.2-.7,0-.2.3-.2.4,0,0,.2.3.6.3.8,0,.3,0,.8.2,1.1,0,.4,0,.9,0,1.4v5c0,.6,0,1.3,0,1.8,0,1,0,1.4-.3,2.6,0,0,0,.5,0,.7v.5h0s-.2-.8-.3-1.4c0-.3-.2-1.3-.2-1.6s0-1.1-.2-1.5c0-.5,0-1.5,0-2v-3.9h-.1Z"/>
  <path class="st5" d="M514.8,759.4c-.5,0-1.1,0-1.4,0-.5,0-1.1,0-1.5-.2-.3,0-.6,0-.8-.2-.2,0-.2-.3,0-.4.2,0,.6-.2.9-.3.4,0,.9,0,1.2,0,.5,0,1,0,1.5,0h5.5c.6,0,1.4,0,2,0,1.1,0,1.6,0,2.8.3,0,0,.6,0,.7,0,0,0,.5,0,.6,0h0s-.9.2-1.5.2-1.4.2-1.8.2-1.2,0-1.7,0h-3.8c-1,0-1.6,0-2.7,0h0v.4Z"/>
  <path class="st5" d="M555.7,757.9c.5,0,1.1,0,1.4,0,.5,0,1.1,0,1.5.2.3,0,.6,0,.8.2.2,0,.2.3,0,.4-.2,0-.6.2-.9.3-.4,0-.9,0-1.2,0-.5,0-1,0-1.5,0h-5.5c-.6,0-1.4,0-2,0-1.1,0-1.6,0-2.9-.3,0,0-.6,0-.7,0,0,0-.5,0-.6,0h0s.9-.2,1.5-.3c.4,0,1.4-.2,1.8-.2s1.2,0,1.7,0h6.5v-.2Z"/>
  <path class="st5" d="M549.9,774.8c.3.3.8.6,1.1.9.4.3.9.7,1.2.9.2,0,.5.3.7.4.2,0,.4,0,.3-.2,0-.2-.3-.6-.4-.8-.2-.3-.5-.6-.7-.9-.3-.4-.6-.7-.9-1.1-.3-.3-.6-.7-1-1-.5-.5-1-1-1.5-1.4-.4-.4-.9-.8-1.3-1.1-.5-.4-1-.9-1.5-1.2-.9-.7-1.2-.9-2.2-1.7,0,0-.5-.3-.6-.4l-.5-.3h0s.5.7.8,1.2c.2.3.8,1.1,1.1,1.3.2.3.8.9,1.1,1.2.3.4,1.1,1.2,1.5,1.5.3.2.9.8,1.1,1.1.7.7,1.1,1,1.9,1.7h-.2Z"/>
  <path class="st5" d="M172.9,76.3c-.3-.2-.6-.5-.8-.7-.3-.3-.7-.5-.9-.7l-.6-.3c-.2,0-.3,0-.3.2s.2.4.3.6c.2.2.4.5.6.7.2.3.5.6.7.8.2.3.5.5.8.8.4.4.8.7,1.2,1.1.3.3.7.6,1,.9.4.3.8.7,1.2,1,.7.5.9.7,1.7,1.3,0,0,.4.3.5.3l.4.2h0s-.4-.5-.7-.9c-.2-.2-.7-.8-.8-1-.2-.2-.6-.7-.8-.9-.3-.3-.9-.9-1.1-1.2-.2-.2-.7-.6-.9-.8-.6-.5-.9-.8-1.5-1.3h0Z"/>
  <path class="st5" d="M197.3,76.4c.3-.2.7-.5.9-.6.3-.2.7-.5,1-.6l.6-.3c.2,0,.3,0,.3.2s-.2.4-.4.6-.4.5-.6.7l-.8.8c-.3.2-.5.5-.8.7-.4.3-.9.7-1.3,1-.4.3-.7.6-1.1.8-.4.3-.8.6-1.2.9-.7.5-1,.7-1.8,1.2,0,0-.4.2-.5.3l-.4.2h0s.4-.5.7-.9c.2-.2.7-.8.9-1s.7-.6.9-.9c.3-.3.9-.8,1.2-1.1.2-.2.7-.6.9-.8.6-.5.9-.7,1.6-1.2h0Z"/>
  <path class="st5" d="M173,102.3c-.3.2-.6.5-.8.7-.3.3-.7.5-.9.7-.2.1-.4.2-.6.3-.2,0-.3,0-.3-.2s.2-.5.3-.6c.2-.2.4-.5.6-.7.2-.3.5-.6.7-.8.2-.3.5-.5.8-.8s.8-.7,1.2-1.1c.3-.3.7-.6,1-.9.4-.3.8-.7,1.2-1,.7-.5.9-.7,1.7-1.3,0,0,.4-.3.5-.3l.4-.2h0s-.4.5-.7.9c-.2.2-.7.8-.8,1-.2.2-.6.7-.8.9-.3.3-.9.9-1.1,1.2-.2.2-.7.6-.9.8-.6.5-.9.8-1.5,1.3h0Z"/>
  <path class="st5" d="M185.6,108.2c0,.3,0,.8-.1,1,0,.4-.1.8-.2,1.1,0,.2,0,.4-.2.6,0,.2-.2.2-.3,0-.1-.1-.2-.5-.2-.6,0-.3,0-.6-.1-.9v-4.9c0-.4,0-1,.1-1.4.1-.8.1-1.1.3-2v-.9h.1s.1.6.2,1.1c0,.2.1,1,.2,1.3v5.8h0l.2-.2Z"/>
  <path class="st5" d="M184.3,70.5v-1c0-.4,0-.8.2-1.1,0-.2,0-.4.2-.6,0-.2.2-.2.3,0,.1,0,.2.5.2.6,0,.2,0,.6.1.9,0,.3,0,.7.1,1.1v5.2c0,.8-.1,1.1-.2,2v.5s0,.4-.1.4h0s-.2-.6-.2-1.1-.2-1-.2-1.3,0-.9-.1-1.2v-4.5h-.3Z"/>
  <path class="st5" d="M169.4,89.4c-.4,0-.8,0-1.1,0-.4,0-.9,0-1.2-.2-.2,0-.5,0-.6-.2-.2,0-.2-.2,0-.3.1,0,.5-.2.7-.2.3,0,.7,0,1,0h5.5c.5,0,1.1,0,1.6,0,.9,0,1.2,0,2.2.2h1s-.7,0-1.2.2c-.3,0-1.1,0-1.4.2h-6.4v.4Z"/>
  <path class="st5" d="M201.2,88.2h1.1c.4,0,.9,0,1.2,0,.2,0,.5,0,.6.2.2,0,.2.2,0,.3-.1,0-.5.2-.7.2-.3,0-.7,0-1,0-.4,0-.8,0-1.2,0h-5.9c-.9,0-1.2,0-2.2-.2h-1s.7,0,1.2-.2c.3,0,1.1,0,1.4-.2.3,0,1,0,1.3,0h5.1v-.3Z"/>
  <path class="st5" d="M196.8,101.4c.3.2.6.5.8.7.3.3.7.5.9.7.2.1.4.2.6.3.2,0,.3,0,.3-.2s-.2-.5-.3-.6c-.1-.2-.4-.5-.6-.7-.2-.3-.5-.6-.7-.8-.2-.3-.5-.5-.8-.8s-.8-.7-1.2-1.1c-.3-.3-.7-.6-1-.9-.4-.3-.8-.7-1.2-1-.7-.5-.9-.7-1.7-1.3,0,0-.4-.3-.5-.3l-.4-.2h0s.4.5.7.9c.2.2.6.8.8,1s.6.7.8.9c.3.3.9.9,1.1,1.2.2.2.7.6.9.8.6.5.9.8,1.5,1.3h0Z"/>
  <path class="st5" d="M974.4,559c-.3-.7-.6-1.4-.9-2.1-.8-1.3-2-2.3-3.6-3-.8-.3-1.6-.5-2.4-.8-3-.7-5.5,0-8.5.8-2.7.6-5.3,1.1-8,1.5-.9,0-1.7.2-2.6.3-6.3.5-12.5.5-18.7.3-1.5,0-3.1-.2-4.6-.3-1.9-.2-3.7-.5-5.5-.9-2.2-.5-4.3-1.1-6.4-1.8-.6-.2-1.3-.4-1.9-.6,1.3-1.5,2.2-3.1,3.2-4.7,1.1-1.9,1.8-3.9,2.3-5.9.3-1.3.7-2.6,1-3.9.5-2.7.8-5.4.7-8,0-2.2-.2-4.4-.8-6.5-.4-1.6-1.2-3.2-1.9-4.7-.4-.9-1.1-1.7-1.8-2.5-1.1-1.3-2.3-2.4-3.8-3.4-1.2-.8-2.3-1.6-3.6-2.2-1-.5-2.2-.8-3.3-1.1-.4,0-.7-.2-1.1-.3-1.4-.3-2.9-.3-4.4-.5h-2.3c-1.7,0-3.3.3-5,.5-.7,0-1.4.2-2.2.4-.5,0-.9.3-1.4.4-1.3.5-2.6.9-3.8,1.4-1.6.8-3,1.7-4.4,2.6-.4.3-.8.6-1.2,1-.8.8-1.7,1.6-2.5,2.5-1.1,1.2-1.8,2.6-2.6,3.9-.8,1.3-1.4,2.7-1.8,4.2-.4,1.4-.8,2.8-1,4.2-.4,2.5-.6,5-.4,7.4,0,1.6.3,3.2.7,4.8,0,.4.2.7.3,1.1-.6-.2-1.1-.4-1.7-.7h-.3c-2.4-1-4.6-2.1-6.8-3.3-1.3-.9-2.5-1.8-3.6-2.7,0,0-.2,0-.3-.2-3.2-2.7-6-5.6-8.8-8.5-.7-.8-1.5-1.6-2.2-2.4-.8-.9-1.6-1.9-2.4-2.9s-.8-1-1.2-1.5c-.8-1.1-1.7-2.3-2.5-3.5-2-2.9-3.7-5.9-5.3-8.9-.4-.9-.8-1.8-1.2-2.6,0-.3-.2-.6-.4-.9-.9-2.3-1.7-4.6-2.4-6.9-1.7-5.3-2.7-10.8-3.2-16.3-.2-1-.7-1.8-1.4-2.5-.6-.8-1.4-1.4-2.4-1.8-1-.5-2-.8-3.2-.8-1.2-.2-2.4-.1-3.6.2-.8.3-1.5.5-2.3.8-1.4.7-2.6,1.6-3.5,2.7-.4.6-.7,1.2-1.1,1.8-.6,1.3-.7,2.6-.4,3.8.5,6.1,1.9,12,3.9,17.8,1.4,4.3,3,8.4,4.9,12.5.4.9.8,1.7,1.3,2.6,1.7,3.2,3.5,6.3,5.6,9.3,1.5,2.3,3.2,4.5,5,6.7,1.3,1.6,2.7,3.1,4.1,4.7.2.3.5.6.8.9,2.2,2.5,4.5,4.9,7,7.2.7.7,1.5,1.4,2.3,2.1,1,.8,2,1.6,3.1,2.4,4.2,3,9.1,5.3,14.3,7.2,1.7.6,3.5,1.2,5.2,1.7.8.3,1.7.5,2.5.7,2,.5,4,.8,6,1,2.2.2,4.3.4,6.6.4s3.1,0,4.7-.2c4.2,2.3,8.8,4,13.5,5.6,4.3,1.4,8.6,2.9,13.2,3.8,4.2.8,8.6,1,12.9,1.3,6.4.2,12.8.2,19.3-.3,5.1-.5,10.1-1.1,15.1-2.2,1.4-.3,2.8-.6,4.3-.9,1.5-.3,2.8-.9,3.9-1.7,1.2-.6,2.2-1.5,3-2.5.9-1,1.4-2.1,1.6-3.2.4-1.1.5-2.3.2-3.4h0v-.5ZM891.2,528.9c0-.2,0-.4,0-.7.2-.7.5-1.3.9-2,0,0,0-.2.2-.3.2,0,.4,0,.7,0h1.6c.5.4,1,.7,1.4,1.1,0,0,0,.2,0,.2h0c.4,1.3.7,2.6.8,3.8,0,2.5-.3,5.1-.8,7.7-.4,1.3-.8,2.5-1.5,3.7,0,0,0,.2-.2.3,0,0,0,.2-.2.3l-.9-.9c-.5-.7-1-1.4-1.3-2.1-.3-.8-.5-1.6-.7-2.4-.3-1.1-.6-2.2-.7-3.4,0-1.8.2-3.6.5-5.3h0Z"/>
  <path class="st5" d="M265.5,328.5c-2-4.1-4.3-8-6.5-11.9-1.3-2.4-2.8-4.7-4.3-6.9-1.2-1.7-2.4-3.3-3.6-4.9-2.9-3.8-5.9-7.6-9.1-11-1.7-1.8-3.5-3.7-5.4-5.3-1.6-1.3-3.3-2.5-5.1-3.6-2.1-1.3-4.2-2.5-6.4-3.6-5.4-2.6-11.1-4.8-16.9-6.5-2.7-.8-5.5-1.4-8.3-1.8-2.9-.3-5.7-.5-8.6-.6-4.4-.2-8.9,0-13.3,0h-8.3c-2.3-.1-4.5-.4-6.7-1-1.5-.6-2.9-1.3-4.2-2.1h0c-.3-.2-.6-.4-1-.6-.9-.6-1.8-1.2-2.7-1.8-1.3-1-2.5-1.9-3.8-2.9-1.4-1.2-2.8-2.4-4.2-3.7-1.4-1.4-2.8-2.8-4.2-4.2-1.7-1.9-3.3-3.7-4.9-5.6-1.4-1.7-2.8-3.4-4-5.3h0c-.3-.5-.5-1-.8-1.5-.4-1.3-1.1-2.3-2.1-3.2-.8-1-1.8-1.8-3-2.3-1.2-.6-2.5-.9-3.8-.8-1.3-.2-2.7,0-3.9.6-.8.4-1.5.8-2.3,1.2-1.4,1-2.5,2.3-3.2,3.9-.3.8-.5,1.6-.8,2.5-.3,1.8,0,3.6.5,5.3,1.2,2.3,2.4,4.6,3.7,6.8,2.7,4,6,7.4,9.2,11,.7.8,1.5,1.6,2.3,2.4,1.6,1.6,3.1,3.2,4.7,4.7,1.4,1.3,2.8,2.5,4.3,3.8,1.2.9,2.5,1.9,3.7,2.8.8.6,1.7,1.1,2.5,1.7,1.6,1,3.2,2,4.8,3,0,0,.2,0,.2.1.2,0,.3.2.5.3h0c.3.2.7.4,1,.6,1,.6,2.1,1.1,3.2,1.5,1.2.5,2.4.8,3.6,1.1,2.8.9,5.8,1.3,8.7,1.4,4.8.2,9.5.2,14.2.2h10.2c2.6.1,5.1.4,7.6.8,1.7.3,3.4.7,5,1.2.5.2.9.3,1.4.5,4.4,1.5,8.6,3.4,12.8,5.4.8.4,1.6.8,2.3,1.2,1.6,1,3.1,2.2,4.4,3.4.7.6,1.3,1.2,2,1.9.2.2.5.5.7.7,2.8,3.2,5.4,6.5,7.9,9.9,1.3,1.8,2.7,3.5,3.9,5.4,1.6,2.4,3.1,5,4.5,7.5.5.9,1,1.7,1.4,2.6.6,1.2,1.2,2.3,1.8,3.5,1.3,2.5,2.4,5.2,3.9,7.6.7,1.1,1.7,1.9,2.8,2.5,1,.8,2.2,1.2,3.5,1.4h2.6c.9-.2,1.7-.4,2.6-.6.4-.2.7-.4,1.1-.6.8-.3,1.5-.8,2-1.5,1-.8,1.8-1.8,2.3-3,.3-.8.5-1.6.8-2.4.8-4.1-1.6-7.8-3.3-11.4h0v.2ZM170.5,272.4h1.2-1.2Z"/>
  <path class="st13" d="M493.5,2.9c-.8-.2-1.5-.5-2.3-.7-1.6-.2-3.2,0-4.8,1-.8.5-1.5,1-2.3,1.5-2.6,2.1-3.7,4.6-5.2,7.6-1.4,2.6-2.8,5.2-4.3,7.7-.5.8-1,1.6-1.6,2.3-3.9,5.6-8.2,10.8-12.6,15.9-1.1,1.3-2.2,2.5-3.4,3.7-1.4,1.4-2.9,2.7-4.5,3.9-1.9,1.5-3.8,2.8-5.8,4.1-.6.4-1.2.8-1.8,1.2-.2-2.1-.9-3.9-1.5-5.8-.7-2.2-1.8-4.1-3-5.9-.8-1.2-1.5-2.4-2.4-3.4-1.8-2.2-3.7-4.3-5.8-6-1.8-1.4-3.6-2.8-5.6-3.7-1.6-.7-3.3-1.2-5-1.6-1-.3-2.1-.2-3.2-.2-1.7,0-3.5.3-5.3.9-1.4.5-2.8.9-4.2,1.5-1.1.5-2.1,1.3-3.1,2-.3.2-.7.5-1,.8-1.2,1-2.3,2.2-3.4,3.4-.6.6-1.1,1.2-1.6,1.9-1.1,1.4-2,3-3,4.5-.4.7-.8,1.4-1.2,2.1-.2.5-.4,1-.6,1.4-.5,1.4-1.1,2.8-1.6,4.2-.5,1.8-.7,3.7-1,5.5v1.6c0,1.3.1,2.5.2,3.8.2,1.7.8,3.2,1.3,4.8.5,1.6,1.2,3,2,4.3s1.6,2.6,2.6,3.6c1.7,2,3.5,3.8,5.6,5.3,1.3,1,2.7,1.9,4.2,2.6.4.2.7.3,1.1.5-.6.3-1.1.6-1.7.9,0,0-.2,0-.3.2-2.4,1.3-4.8,2.5-7.2,3.5-1.5.5-3.1.9-4.6,1.2-.1,0-.2,0-.3,0-4.3.9-8.5,1.3-12.7,1.7-1.1,0-2.3.2-3.4.2h-5.9c-1.5,0-2.9-.2-4.4-.3-3.6-.3-7.1-.8-10.6-1.6-1-.2-2-.5-2.9-.7-.3,0-.6-.2-.9-.3-2.4-.8-4.7-1.7-7-2.6-5.3-2.2-10.3-5-15-8.3-.9-.5-1.9-.7-3-.5-1,0-2,.2-3.1.8-1.1.5-2,1.2-2.8,2.2-1,.9-1.7,1.9-2.3,3.1-.3.8-.6,1.7-1,2.5-.4,1.7-.5,3.3-.3,4.8.2.7.4,1.4.6,2.1.6,1.3,1.5,2.3,2.7,2.9,5.1,3.7,10.7,6.5,16.6,8.7,4.3,1.7,8.7,3.2,13.2,4.3.9.3,1.9.5,2.9.7,3.6.7,7.3,1.2,11.1,1.6,2.8.3,5.7.4,8.7.3,2.1,0,4.3-.1,6.4-.2h1.3c3.5-.2,6.9-.4,10.5-1,1.1,0,2.1-.3,3.2-.5,1.3-.3,2.7-.6,4-1,5.2-1.6,10.4-4.1,15.4-7.2,1.6-1,3.3-2.1,4.9-3.2.8-.5,1.5-1.1,2.3-1.7,1.7-1.3,3.4-2.8,5-4.3,1.7-1.7,3.3-3.4,4.8-5.3,1.1-1.3,2.1-2.7,3.1-4.1,4.7-2,9.2-4.7,13.7-7.6,4.1-2.6,8.2-5.3,12-8.5,3.5-3,6.7-6.5,9.9-9.9,4.6-5.2,9-10.6,13-16.4,3.1-4.5,6.1-9.2,8.6-14.2.7-1.4,1.5-2.8,2.2-4.2.8-1.4,1.2-2.9,1.4-4.4.3-1.5.4-2.9,0-4.2-.2-1.4-.7-2.5-1.4-3.5-.6-1.1-1.5-1.9-2.6-2.4h0ZM412.9,52.3c-.1-.2-.3-.4-.4-.5-.4-.6-.7-1.3-.9-2v-.3c.1-.2.2-.4.3-.7.3-.4.7-.8,1-1.3h.1c.6-.2,1.2-.3,1.8-.4h.5c1.2.5,2.4,1.1,3.5,1.8,2,1.7,3.8,3.7,5.4,5.9.7,1.2,1.4,2.4,1.9,3.7v.8c-.4,0-.9,0-1.3,0-.9,0-1.8,0-2.6-.3-.8-.3-1.6-.7-2.4-1-1.1-.5-2.1-1-3.1-1.6-1.4-1.2-2.6-2.6-3.8-4h0v-.2Z"/>
  <path class="st5" d="M631.4,49.4h-.8v18h.8v-18Z"/>
  <path class="st5" d="M640,58h-18v.8h18v-.8Z"/>
  <path class="st5" d="M624.3,51.2l-.6.6,14,14,.6-.6-14-14Z"/>
  <path class="st5" d="M637.7,51.2l-14,14,.6.6,14-14-.6-.6Z"/>
  <path class="st5" d="M631,50c-.7,0-1.2-.5-1.2-1.2s.5-1.2,1.2-1.2,1.2.5,1.2,1.2-.5,1.2-1.2,1.2ZM631,48.3c-.2,0-.4.2-.4.4s.2.4.4.4.4-.2.4-.4-.2-.4-.4-.4Z"/>
  <path class="st5" d="M638.5,52.1c-.7,0-1.2-.5-1.2-1.2s.5-1.2,1.2-1.2,1.2.5,1.2,1.2-.5,1.2-1.2,1.2ZM638.5,50.5c-.2,0-.4.2-.4.4s.2.4.4.4.4-.2.4-.4-.2-.4-.4-.4Z"/>
  <path class="st5" d="M623.5,52.1c-.7,0-1.2-.5-1.2-1.2s.5-1.2,1.2-1.2,1.2.5,1.2,1.2-.5,1.2-1.2,1.2ZM623.5,50.5c-.2,0-.4.2-.4.4s.2.4.4.4.4-.2.4-.4-.2-.4-.4-.4Z"/>
  <path class="st5" d="M638.5,67.3c-.7,0-1.2-.5-1.2-1.2s.5-1.2,1.2-1.2,1.2.5,1.2,1.2-.5,1.2-1.2,1.2ZM638.5,65.7c-.2,0-.4.2-.4.4s.2.4.4.4.4-.2.4-.4-.2-.4-.4-.4Z"/>
  <path class="st5" d="M623.5,67.3c-.7,0-1.2-.5-1.2-1.2s.5-1.2,1.2-1.2,1.2.5,1.2,1.2-.5,1.2-1.2,1.2ZM623.5,65.7c-.2,0-.4.2-.4.4s.2.4.4.4.4-.2.4-.4-.2-.4-.4-.4Z"/>
  <path class="st5" d="M631,69.6c-.7,0-1.3-.6-1.3-1.3s.6-1.3,1.3-1.3,1.3.6,1.3,1.3-.6,1.3-1.3,1.3ZM631,68c-.2,0-.3,0-.3.3s0,.3.3.3.3,0,.3-.3,0-.3-.3-.3Z"/>
  <path class="st5" d="M621.2,59.7c-.7,0-1.2-.5-1.2-1.2s.5-1.2,1.2-1.2,1.2.5,1.2,1.2-.5,1.2-1.2,1.2ZM621.2,58c-.2,0-.4.2-.4.4s.2.4.4.4.4-.2.4-.4-.2-.4-.4-.4Z"/>
  <path class="st5" d="M640.7,59.7c-.7,0-1.2-.5-1.2-1.2s.5-1.2,1.2-1.2,1.2.5,1.2,1.2-.5,1.2-1.2,1.2ZM640.7,58c-.2,0-.4.2-.4.4s.2.4.4.4.4-.2.4-.4-.2-.4-.4-.4Z"/>
  <path class="st5" d="M380.2,487.6h-.8v14.4h.8v-14.4Z"/>
  <path class="st5" d="M387.1,494.4h-14.4v.8h14.4v-.8Z"/>
  <path class="st5" d="M374.5,488.9l-.6.6,11.2,11.2.6-.6-11.2-11.2Z"/>
  <path class="st5" d="M385.1,488.9l-11.2,11.2.6.6,11.2-11.2-.6-.6Z"/>
  <path class="st5" d="M379.8,488.1c-.6,0-1.1-.5-1.1-1.1s.5-1.1,1.1-1.1,1.1.5,1.1,1.1-.5,1.1-1.1,1.1ZM379.8,486.8c-.1,0-.2,0-.2.2s.1.2.2.2.2,0,.2-.2-.1-.2-.2-.2Z"/>
  <path class="st5" d="M385.9,489.8c-.6,0-1.1-.5-1.1-1.1s.5-1.1,1.1-1.1,1.1.5,1.1,1.1-.5,1.1-1.1,1.1ZM385.9,488.5c-.1,0-.2,0-.2.2s.1.2.2.2.2,0,.2-.2-.1-.2-.2-.2Z"/>
  <path class="st5" d="M373.9,489.8c-.6,0-1.1-.5-1.1-1.1s.5-1.1,1.1-1.1,1.1.5,1.1,1.1-.5,1.1-1.1,1.1ZM373.9,488.5c-.1,0-.2,0-.2.2s.1.2.2.2.2,0,.2-.2-.1-.2-.2-.2Z"/>
  <path class="st5" d="M385.9,502c-.6,0-1.1-.5-1.1-1.1s.5-1.1,1.1-1.1,1.1.5,1.1,1.1-.5,1.1-1.1,1.1ZM385.9,500.7c-.1,0-.2,0-.2.2s.1.2.2.2.2,0,.2-.2-.1-.2-.2-.2Z"/>
  <path class="st5" d="M373.9,502c-.6,0-1.1-.5-1.1-1.1s.5-1.1,1.1-1.1,1.1.5,1.1,1.1-.5,1.1-1.1,1.1ZM373.9,500.7c-.1,0-.2,0-.2.2s.1.2.2.2.2,0,.2-.2-.1-.2-.2-.2Z"/>
  <path class="st5" d="M379.8,503.8c-.6,0-1.1-.5-1.1-1.1s.5-1.1,1.1-1.1,1.1.5,1.1,1.1-.5,1.1-1.1,1.1ZM379.8,502.5s-.2,0-.2.2,0,.2.2.2.2,0,.2-.2,0-.2-.2-.2Z"/>
  <path class="st5" d="M372,495.8c-.6,0-1.1-.5-1.1-1.1s.5-1.1,1.1-1.1,1.1.5,1.1,1.1-.5,1.1-1.1,1.1ZM372,494.5c-.1,0-.2,0-.2.2s.1.2.2.2.2,0,.2-.2-.1-.2-.2-.2Z"/>
  <path class="st5" d="M387.6,495.8c-.6,0-1.1-.5-1.1-1.1s.5-1.1,1.1-1.1,1.1.5,1.1,1.1-.5,1.1-1.1,1.1ZM387.6,494.5c-.1,0-.2,0-.2.2s.1.2.2.2.2,0,.2-.2-.1-.2-.2-.2Z"/>
  <path class="st5" d="M186.6,739.3h-.8v28.2h.8v-28.2Z"/>
  <path class="st5" d="M200.3,753h-28.2v.8h28.2v-.8Z"/>
  <path class="st5" d="M196.8,742.2l-21.8,21.8.6.6,21.8-21.8-.6-.6Z"/>
  <path class="st5" d="M175.6,742.2l-.6.6,21.8,21.8.6-.6-21.8-21.8Z"/>
  <path class="st5" d="M186.2,739.9c-.9,0-1.7-.8-1.7-1.7s.8-1.7,1.7-1.7,1.7.8,1.7,1.7-.8,1.7-1.7,1.7ZM186.2,737.4c-.5,0-.9.4-.9.9s.4.9.9.9.9-.4.9-.9-.4-.9-.9-.9Z"/>
  <path class="st5" d="M174.4,743.3c-.9,0-1.7-.8-1.7-1.7s.8-1.7,1.7-1.7,1.7.8,1.7,1.7-.8,1.7-1.7,1.7ZM174.4,740.7c-.5,0-.9.4-.9.9s.4.9.9.9.9-.4.9-.9-.4-.9-.9-.9Z"/>
  <path class="st5" d="M197.9,743.3c-.9,0-1.7-.8-1.7-1.7s.8-1.7,1.7-1.7,1.7.8,1.7,1.7-.8,1.7-1.7,1.7ZM197.9,740.7c-.5,0-.9.4-.9.9s.4.9.9.9.9-.4.9-.9-.4-.9-.9-.9Z"/>
  <path class="st5" d="M174.4,767c-.9,0-1.7-.8-1.7-1.7s.8-1.7,1.7-1.7,1.7.8,1.7,1.7-.8,1.7-1.7,1.7ZM174.4,764.5c-.5,0-.9.4-.9.9s.4.9.9.9.9-.4.9-.9-.4-.9-.9-.9Z"/>
  <path class="st5" d="M197.9,767c-.9,0-1.7-.8-1.7-1.7s.8-1.7,1.7-1.7,1.7.8,1.7,1.7-.8,1.7-1.7,1.7ZM197.9,764.5c-.5,0-.9.4-.9.9s.4.9.9.9.9-.4.9-.9-.4-.9-.9-.9Z"/>
  <path class="st5" d="M186.2,770.6c-1,0-1.8-.8-1.8-1.8s.8-1.8,1.8-1.8,1.8.8,1.8,1.8-.8,1.8-1.8,1.8ZM186.2,768.1c-.4,0-.8.4-.8.8s.4.8.8.8.8-.4.8-.8-.4-.8-.8-.8Z"/>
  <path class="st5" d="M201.5,755.1c-.9,0-1.7-.8-1.7-1.7s.8-1.7,1.7-1.7,1.7.8,1.7,1.7-.8,1.7-1.7,1.7ZM201.5,752.5c-.5,0-.9.4-.9.9s.4.9.9.9.9-.4.9-.9-.4-.9-.9-.9Z"/>
  <path class="st5" d="M171,755.1c-.9,0-1.7-.8-1.7-1.7s.8-1.7,1.7-1.7,1.7.8,1.7,1.7-.8,1.7-1.7,1.7ZM171,752.5c-.5,0-.9.4-.9.9s.4.9.9.9.9-.4.9-.9-.4-.9-.9-.9Z"/>
  <path class="st5" d="M816.5,353.4h-.8v18h.8v-18Z"/>
  <path class="st5" d="M825.1,362h-18v.8h18v-.8Z"/>
  <path class="st5" d="M822.8,355.2l-14,14,.6.6,14-14-.6-.6Z"/>
  <path class="st5" d="M809.4,355.2l-.6.6,14,14,.6-.6-14-14Z"/>
  <path class="st5" d="M816.1,354c-.7,0-1.2-.5-1.2-1.2s.5-1.2,1.2-1.2,1.2.5,1.2,1.2-.5,1.2-1.2,1.2ZM816.1,352.3c-.2,0-.4.2-.4.4s.2.4.4.4.4-.2.4-.4-.2-.4-.4-.4Z"/>
  <path class="st5" d="M808.5,356.1c-.7,0-1.2-.5-1.2-1.2s.5-1.2,1.2-1.2,1.2.5,1.2,1.2-.5,1.2-1.2,1.2ZM808.5,354.5c-.2,0-.4.2-.4.4s.2.4.4.4.4-.2.4-.4-.2-.4-.4-.4Z"/>
  <path class="st5" d="M823.5,356.1c-.7,0-1.2-.5-1.2-1.2s.5-1.2,1.2-1.2,1.2.5,1.2,1.2-.5,1.2-1.2,1.2ZM823.5,354.5c-.2,0-.4.2-.4.4s.2.4.4.4.4-.2.4-.4-.2-.4-.4-.4Z"/>
  <path class="st5" d="M808.5,371.3c-.7,0-1.2-.5-1.2-1.2s.5-1.2,1.2-1.2,1.2.5,1.2,1.2-.5,1.2-1.2,1.2ZM808.5,369.7c-.2,0-.4.2-.4.4s.2.4.4.4.4-.2.4-.4-.2-.4-.4-.4Z"/>
  <path class="st5" d="M823.5,371.3c-.7,0-1.2-.5-1.2-1.2s.5-1.2,1.2-1.2,1.2.5,1.2,1.2-.5,1.2-1.2,1.2ZM823.5,369.7c-.2,0-.4.2-.4.4s.2.4.4.4.4-.2.4-.4-.2-.4-.4-.4Z"/>
  <path class="st5" d="M816.1,373.6c-.7,0-1.3-.6-1.3-1.3s.6-1.3,1.3-1.3,1.3.6,1.3,1.3-.6,1.3-1.3,1.3ZM816.1,372c-.2,0-.3.1-.3.3s0,.3.3.3.3-.1.3-.3,0-.3-.3-.3Z"/>
  <path class="st5" d="M825.8,363.7c-.7,0-1.2-.5-1.2-1.2s.5-1.2,1.2-1.2,1.2.5,1.2,1.2-.5,1.2-1.2,1.2ZM825.8,362c-.2,0-.4.2-.4.4s.2.4.4.4.4-.2.4-.4-.2-.4-.4-.4Z"/>
  <path class="st5" d="M806.3,363.7c-.7,0-1.2-.5-1.2-1.2s.5-1.2,1.2-1.2,1.2.5,1.2,1.2-.5,1.2-1.2,1.2ZM806.3,362c-.2,0-.4.2-.4.4s.2.4.4.4.4-.2.4-.4-.2-.4-.4-.4Z"/>
  <path class="st5" d="M175.7,387h-.8v18h.8v-18Z"/>
  <path class="st5" d="M184.3,395.6h-18v.8h18v-.8Z"/>
  <path class="st5" d="M181.9,388.8l-14,14,.6.6,14-14-.6-.6Z"/>
  <path class="st5" d="M168.6,388.8l-.6.6,14,14,.6-.6-14-14Z"/>
  <path class="st5" d="M175.2,387.6c-.7,0-1.2-.5-1.2-1.2s.5-1.2,1.2-1.2,1.2.5,1.2,1.2-.5,1.2-1.2,1.2ZM175.2,385.9c-.2,0-.4.2-.4.4s.2.4.4.4.4-.2.4-.4-.2-.4-.4-.4Z"/>
  <path class="st5" d="M167.7,389.7c-.7,0-1.2-.5-1.2-1.2s.5-1.2,1.2-1.2,1.2.5,1.2,1.2-.5,1.2-1.2,1.2ZM167.7,388.1c-.2,0-.4.2-.4.4s.2.4.4.4.4-.2.4-.4-.2-.4-.4-.4Z"/>
  <path class="st5" d="M182.7,389.7c-.7,0-1.2-.5-1.2-1.2s.5-1.2,1.2-1.2,1.2.5,1.2,1.2-.5,1.2-1.2,1.2ZM182.7,388.1c-.2,0-.4.2-.4.4s.2.4.4.4.4-.2.4-.4-.2-.4-.4-.4Z"/>
  <path class="st5" d="M167.7,404.9c-.7,0-1.2-.5-1.2-1.2s.5-1.2,1.2-1.2,1.2.5,1.2,1.2-.5,1.2-1.2,1.2ZM167.7,403.3c-.2,0-.4.2-.4.4s.2.4.4.4.4-.2.4-.4-.2-.4-.4-.4Z"/>
  <path class="st5" d="M182.7,404.9c-.7,0-1.2-.5-1.2-1.2s.5-1.2,1.2-1.2,1.2.5,1.2,1.2-.5,1.2-1.2,1.2ZM182.7,403.3c-.2,0-.4.2-.4.4s.2.4.4.4.4-.2.4-.4-.2-.4-.4-.4Z"/>
  <path class="st5" d="M175.2,407.2c-.7,0-1.3-.6-1.3-1.3s.6-1.3,1.3-1.3,1.3.6,1.3,1.3-.6,1.3-1.3,1.3ZM175.2,405.6c-.2,0-.3.1-.3.3s.1.3.3.3.3-.1.3-.3-.1-.3-.3-.3Z"/>
  <path class="st5" d="M185,397.3c-.7,0-1.2-.5-1.2-1.2s.5-1.2,1.2-1.2,1.2.5,1.2,1.2-.5,1.2-1.2,1.2ZM185,395.6c-.2,0-.4.2-.4.4s.2.4.4.4.4-.2.4-.4-.2-.4-.4-.4Z"/>
  <path class="st5" d="M165.5,397.3c-.7,0-1.2-.5-1.2-1.2s.5-1.2,1.2-1.2,1.2.5,1.2,1.2-.5,1.2-1.2,1.2ZM165.5,395.6c-.2,0-.4.2-.4.4s.2.4.4.4.4-.2.4-.4-.2-.4-.4-.4Z"/>
  <path class="st5" d="M782.3,766.7h-.8v18h.8v-18Z"/>
  <path class="st5" d="M790.9,775.3h-18v.8h18v-.8Z"/>
  <path class="st5" d="M788.6,768.4l-14,14,.6.6,14-14-.6-.6Z"/>
  <path class="st5" d="M775.2,768.4l-.6.6,14,14,.6-.6-14-14Z"/>
  <path class="st5" d="M781.9,767.2c-.7,0-1.2-.5-1.2-1.2s.5-1.2,1.2-1.2,1.2.5,1.2,1.2-.5,1.2-1.2,1.2ZM781.9,765.6c-.2,0-.4.2-.4.4s.2.4.4.4.4-.2.4-.4-.2-.4-.4-.4Z"/>
  <path class="st5" d="M774.3,769.4c-.7,0-1.2-.5-1.2-1.2s.5-1.2,1.2-1.2,1.2.5,1.2,1.2-.5,1.2-1.2,1.2ZM774.3,767.7c-.2,0-.4.2-.4.4s.2.4.4.4.4-.2.4-.4-.2-.4-.4-.4Z"/>
  <path class="st5" d="M789.3,769.4c-.7,0-1.2-.5-1.2-1.2s.5-1.2,1.2-1.2,1.2.5,1.2,1.2-.5,1.2-1.2,1.2ZM789.3,767.7c-.2,0-.4.2-.4.4s.2.4.4.4.4-.2.4-.4-.2-.4-.4-.4Z"/>
  <path class="st5" d="M774.3,784.6c-.7,0-1.2-.5-1.2-1.2s.5-1.2,1.2-1.2,1.2.5,1.2,1.2-.5,1.2-1.2,1.2ZM774.3,782.9c-.2,0-.4.2-.4.4s.2.4.4.4.4-.2.4-.4-.2-.4-.4-.4Z"/>
  <path class="st5" d="M789.3,784.6c-.7,0-1.2-.5-1.2-1.2s.5-1.2,1.2-1.2,1.2.5,1.2,1.2-.5,1.2-1.2,1.2ZM789.3,782.9c-.2,0-.4.2-.4.4s.2.4.4.4.4-.2.4-.4-.2-.4-.4-.4Z"/>
  <path class="st5" d="M781.9,786.9c-.7,0-1.3-.6-1.3-1.3s.6-1.3,1.3-1.3,1.3.6,1.3,1.3-.6,1.3-1.3,1.3ZM781.9,785.3c-.2,0-.3,0-.3.3s0,.3.3.3.3,0,.3-.3,0-.3-.3-.3Z"/>
  <path class="st5" d="M791.6,776.9c-.7,0-1.2-.5-1.2-1.2s.5-1.2,1.2-1.2,1.2.5,1.2,1.2-.5,1.2-1.2,1.2ZM791.6,775.3c-.2,0-.4.2-.4.4s.2.4.4.4.4-.2.4-.4-.2-.4-.4-.4Z"/>
  <path class="st5" d="M772.1,776.9c-.7,0-1.2-.5-1.2-1.2s.5-1.2,1.2-1.2,1.2.5,1.2,1.2-.5,1.2-1.2,1.2ZM772.1,775.3c-.2,0-.4.2-.4.4s.2.4.4.4.4-.2.4-.4-.2-.4-.4-.4Z"/>
  <path class="st5" d="M531.2,90.6c3.6,0,6.5-2.9,6.5-6.5s-2.9-6.5-6.5-6.5-6.5,2.9-6.5,6.5,2.9,6.5,6.5,6.5Z"/>
  <path class="st5" d="M823.4,668.1c3.6,0,6.5-2.9,6.5-6.5s-2.9-6.5-6.5-6.5-6.5,2.9-6.5,6.5,2.9,6.5,6.5,6.5Z"/>
  <path class="st5" d="M403.3,763.8c3.6,0,6.5-2.9,6.5-6.5s-2.9-6.5-6.5-6.5-6.5,2.9-6.5,6.5,2.9,6.5,6.5,6.5Z"/>
  <path class="st5" d="M170,527.6c3.6,0,6.5-2.9,6.5-6.5s-2.9-6.5-6.5-6.5-6.5,2.9-6.5,6.5,2.9,6.5,6.5,6.5Z"/>
  <path class="st5" d="M255.6,55.5c2.5-2.5,2.5-6.6,0-9.2-2.5-2.5-6.6-2.5-9.1,0s-2.5,6.6,0,9.2c2.5,2.5,6.6,2.5,9.1,0Z"/>
  <g>
    <rect class="st5" x="308.1" y="219.2" width="89.8" height="89.8" rx="4.8" ry="4.8" shape-rendering="crispEdges"/>
    <rect class="st3" x="309.5" y="220.7" width="87" height="87" rx="3.3" ry="3.3" shape-rendering="crispEdges"/>
    <path class="st0" d="M376,272h-11.3v-31.4h11.3v31.4ZM328.8,270.5v-28.9h11v20.1h8.1v-20.1h11v28.9h-30.1ZM332.9,287.7v-14.2h11.4v5.5h32.3v8.7h-43.7,0ZM340.9,254.1l6-1.9v-2.9l-6,1.9v2.9Z"/>
  </g>
  <g>
    <rect class="st5" x="390.3" y="208.9" width="89.8" height="89.8" rx="4.8" ry="4.8" shape-rendering="crispEdges" transform="translate(122 648.4) rotate(-81.8)"/>
    <rect class="st2" x="391.7" y="210.3" width="87" height="87" rx="3.3" ry="3.3" shape-rendering="crispEdges" transform="translate(122 648.4) rotate(-81.8)"/>
    <path class="st0" d="M426.4,257.9l.9-6.1-14.2-2,1.1-7.7,14.2,2,.7-4.7-14.2-2.1,1.3-8.8,25.8,3.7-3.9,27.2-11.5-1.7-.2.2ZM410.6,274.5l2.4-16.3,11.5,1.7-1.1,7.3,31.7,4.6-1.3,9-43.2-6.2h0ZM444.2,262.7l4.4-30.6,11.2,1.6-1.4,10,5.6.8-1.3,9-5.6-.8-1.7,11.7-11.2-1.6h0Z"/>
  </g>
  <path class="st5" d="M546.5,266h-4v22.1h-10.9v-49.6h10.9v17.6h4v-17.6h10.9v49.6h-10.9v-22.1ZM501.7,252.6v-9h8.1v-5.9h11.6v5.9h7.6v9h-10.6l-.7,5h8.8l3.1,30h-10.2l-2.4-24.7-3.7,24.7h-10.9l5.7-35h-6.4ZM578.5,264c-9,0-13.8-5.2-13.8-12.4s4.8-12.4,13.8-12.4h20.7c9,0,13.7,5.2,13.7,12.4s-4.7,12.4-13.7,12.4h-20.7ZM562.8,277.8v-9.8h52.2v9.8h-19.8v10.5h-12.9v-10.5h-19.6,0ZM576.9,255.3l24.4-4.7v-2.6l-24.4,4.7v2.6ZM671.3,238.6v49.6h-12.3v-49.6h12.3ZM619,250v-9.8h30.2v47.9h-12.4v-38.1h-17.9.1Z"/>
  <path class="st11" d="M412.7,345.2c-4.3,0-6.5-1.7-6.5-5s2.2-4.9,6.5-4.9h2.6c2.9,0,4.9.8,5.8,2.3h2.7v-2.5h5.8v15.6h-5.8v-7.9h-2.7c-.9,1.6-2.8,2.4-5.8,2.4h-2.6ZM405.8,350.1v-4h16.2v4h-5.2v1.8h-6.5v-1.8h-4.5ZM410.1,362.6v-9.6h6.7v5.5h13.3v-6.5h6.7v10.6h-26.7ZM410.9,342.2l6.2-2.3v-1.3l-6.2,2.3v1.3ZM418.9,356.4v-1.3l9.1-1.3v1.3l-9.1,1.3ZM431.1,350.8v-15.6h5.8v15.6h-5.8ZM449.8,340.4l-.6,1.7h5.9l2.7,9.7h-6.3l-2.5-8.9-3,8.9h-6.7l3.9-11.4h-4.1v-4.6h18.3v4.6h-7.6ZM442.5,362.6v-8.9h6.6v3.7h18.6v5.2h-25.2ZM460.8,353v-17.9h6.5v17.9h-6.5ZM470.7,350.3v-3.9h27.8v3.9h-27.8ZM471.6,340c0-3.3,2.2-4.9,7-4.9h12c4.9,0,7,1.6,7,4.9s-2.1,5-7,5h-12c-4.9,0-7-1.6-7-5ZM471.8,362.7v-4.5l24.1-2.6h-24.1v-3.9h25.7v4.7l-19.6,2.1h19.8v4.2h-25.9ZM478.4,341.3l12.5-1.3v-1.1l-12.5,1.3v1.1ZM537,347.7h-6.6v-12.5h6.6v12.5ZM509.1,342.3v-1.4c0-3.9,3-5.8,8.9-5.8s8.9,2,8.9,5.8v1.4c0,3.9-3,5.8-8.9,5.8s-8.9-1.9-8.9-5.8ZM511.9,362.6v-5.2l11.5-3.5h-11.5v-4.6h13v5.1l-10,3.1h10.8v5.1h-13.9,0ZM514.2,343.8l8.1-2.9v-1.3l-8.1,2.9v1.3ZM525.8,353.8v-4.5h11.2v13.3h-6.6v-8.8h-4.6ZM554.8,345.4v11h13.4v5.2h-27.8v-5.2h7.9v-11h6.5,0ZM542.6,340.7v-5.2h23.3v17.5h-6.5v-12.3h-16.9.1ZM389,394.3h-6.5v-18.1h6.5v18.1ZM361.8,393.4v-16.7h6.4v11.6h4.7v-11.6h6.3v16.7h-17.4ZM364.1,403.3v-8.2h6.6v3.2h18.7v5h-25.3ZM368.7,383.9l3.4-1.1v-1.7l-3.4,1.1v1.7ZM401.7,392.7v-3.5h-8.3v-4.5h8.3v-2.7h-8.3v-5.1h15v15.9h-6.7ZM394,403.6v-9.5h6.7v4.3h18.5v5.2h-25.2ZM412.2,394v-17.9h6.6v5.8h3.3v5.2h-3.3v6.8h-6.6ZM423.2,391.3v-3.9h27.8v3.9h-27.8ZM424.1,381c0-3.3,2.2-4.9,7-4.9h12c4.9,0,7,1.6,7,4.9s-2.1,5-7,5h-12c-4.9,0-7-1.6-7-5ZM424.3,403.7v-4.5l24.1-2.6h-24.1v-3.9h25.7v4.7l-19.6,2.1h19.8v4.2h-25.9ZM430.9,382.3l12.5-1.3v-1.1l-12.5,1.3v1.1ZM462.2,376.6h17.5v12.8h-17.5v-12.8ZM463.4,403.6l6.4-7.6h-5.4v-4.5h24.6v4.5h-10.9l-6.1,7.6h-8.6ZM467,385l8.1-2.9v-1.3l-8.1,2.9v1.3ZM477.7,397.7h8.2l4.8,5.8h-8.5l-4.5-5.8ZM482.2,389.8v-13.6h6.6v4.4h3.3v5.2h-3.3v4h-6.6ZM493.2,395.8c0,4.2,3.5,7.2,8.3,7.2s8.3-2.9,8.3-7.2v-3.9c0-4.2-3.5-7.2-8.3-7.2s-8.3,2.9-8.3,7.2v3.9ZM492.6,383.8v-5.3h5.5v-2.8h6.5v2.8h5.5v5.3h-17.6.1ZM500.8,397.9v-8.2h1.3v8.2h-1.3ZM510.6,399.1v-5h3.1v-3.2h-3.1v-5h3.1v-9.7h6.6v26.4h-6.6v-3.4h-3.1ZM539.2,381.3h-5.5v-4.8h24.4v4.8h-10.7l-1.3,1.7h7.7l6,7.2h-8.1l-5.7-7.1-5.8,7.1h-8.3l7.3-8.8h0ZM532.1,396.9v-5.1h27.8v5.1h-10.5v5.7h-6.9v-5.7h-10.4,0ZM574.9,386.2h2.4v-10h5.8v26.4h-5.8v-10.5h-1.9l.9,10.3h-5.4l-1.9-24.9-1.9,24.9h-5.4l2.2-25.3h10.3l.8,9.1h0ZM584.8,402.6v-26.4h5.8v26.4h-5.8ZM598.7,391.8c-2.5-1.3-3.9-4.1-3.9-7.3,0-5,3-8.3,8-8.3h9.4c4.6,0,8,3.2,8,8.3s-1.4,5.8-3.8,7.3v5.6h5v5.2h-27.8v-5.2h5.1v-5.5h0ZM600,384c0,2.3,1,3.5,2.9,3.5s2.9-1.2,2.9-3.5-.8-3.5-2.9-3.5h-.8c1.1.2,2,1.1,2,2.1s-1,2-2.1,2-1.7-.6-2-1.5v.9h0ZM605.4,397.3h4.5v-4.5h-4.5v4.5ZM606.4,389c0,1.5.2,2,1.1,2s1.2-.7,1.2-2-.3-2-1.2-2-1.1.7-1.1,2ZM609.2,384c0,2.3,1,3.5,2.9,3.5s2.9-1.2,2.9-3.5-.8-3.5-2.9-3.5h-.8c1.1.1,2,1.1,2,2.1s-.9,2-2,2-1.8-.7-2-1.7v1h-.1Z"/>
</svg>