<?xml version="1.0" encoding="UTF-8"?>
<svg id="_레이어_1" data-name="레이어 1" xmlns="http://www.w3.org/2000/svg" version="1.1" viewBox="0 0 60 45">
  <defs>
    <style>
      .cls-1 {
        fill: #ff80c7;
      }

      .cls-1, .cls-2 {
        stroke-width: 0px;
      }

      .cls-2 {
        fill: #000;
      }
    </style>
  </defs>
  <rect class="cls-2" y="0" width="60" height="45"/>
  <path class="cls-1" d="M51.6,28.2c-.3,0-2,0-4,0,0-.7,0-1.4,0-1.9-.4,0-1.7,0-2.2,0,0,.4,0,1.2,0,1.9-2,0-3.8,0-4,0,0,.5,0,1.4,0,1.9.6,0,9.6,0,10.3,0,.1-.5.1-1.4,0-1.9M49.2,22.3c0,1-.9,1.6-2.8,1.6s-2.8-.6-2.8-1.6.9-1.7,2.8-1.7,2.8.6,2.8,1.7M41.6,22.3c0,2.1,1.8,3.4,4.9,3.4s4.9-1.3,4.9-3.4-1.8-3.4-4.9-3.4-4.9,1.3-4.9,3.4M51.6,18.3c0-.3,0-1.5,0-1.9-.3,0-2,0-4,0,0-.6,0-1.4,0-1.8-.4,0-1.7,0-2.2,0,0,.4,0,1.2,0,1.8-1.8,0-3.5,0-4,0,0,.3,0,1.5,0,1.9,1.2,0,9.5,0,10.2,0M27.9,28.2c0-.7,0-3,0-3.7-.5-.1-1.7-.1-2.1,0,0,1,0,4.5,0,5.7,1,0,9,0,10.3,0,.1-.4.1-1.5,0-2-.8,0-6.9,0-8.1,0M31.9,23.2c0-.4,0-1.5,0-1.9-.9,0-3.8,0-4.5,0,0-.9,0-4.8,0-5.7-.5,0-1.6,0-2.1,0-.1.9-.1,6.5,0,7.6.9.1,5.7.1,6.6,0M37.6,19.6c-.4,0-1.2,0-1.9,0,0-2.1,0-4,0-4.4-.4-.1-1.7-.1-2.1,0,0,.9,0,10.1,0,11,.5,0,1.7,0,2.1,0,0-.4,0-2.4,0-4.6.7,0,1.5,0,1.9,0,0-.3,0-1.6,0-1.9M19,17.7c0-.3,0-1.7,0-1.9-.9-.1-9.2-.1-10.3,0,0,.3,0,1.6,0,1.9.3,0,1.7,0,3.4,0-1.1,3.1-3.7,10.9-3.8,11.5.4.3,1.5.6,2,.6.3-.6,2.6-7.7,3.6-11.1,1,3.3,3.3,10.4,3.6,10.9.5,0,1.6-.4,2-.6-.1-.7-2.7-8.4-3.8-11.4,1.6,0,2.9,0,3.3,0M23.1,15.1c-.5,0-1.6,0-2.1,0,0,.9,0,14.4,0,15.2.5.1,1.7.1,2.1,0,0-.9,0-14.3,0-15.2"/>
</svg>