<?xml version="1.0" encoding="UTF-8"?>
<svg id="_레이어_1" data-name="레이어 1" xmlns="http://www.w3.org/2000/svg" version="1.1" viewBox="0 0 35 27">
  <defs>
    <style>
      .cls-1 {
        fill: #fff;
        stroke-width: 0px;
      }
    </style>
  </defs>
  <path class="cls-1" d="M17.8,18.8c-.2.6-.2,2.4,0,3,1.4,0,10.6,0,12.1,0,0,1.3,0,3.6,0,4.6,1,0,2.7,0,3.7,0,0-1.1.1-6.3,0-7.6-1.3-.2-14.2-.2-15.8,0M34.4,13.5c-.8,0-3.6,0-6.9,0,0-.7,0-1.6,0-2.3,2.7,0,5.1,0,5.8,0,.1-.7.1-2.5,0-3.1-1.9,0-9.6,0-11.8,0V3.9c1.6,0,9.4,0,11.4,0,.1-.7.2-2.5,0-3.1-2.1-.2-13.7-.2-15.1,0-.2,2.6-.2,7.7,0,10.3.8,0,3.2,0,5.9,0,0,.8,0,1.6,0,2.3-3.3,0-6.3,0-6.9,0-.1,1.1-.1,2,0,3.2,1.5,0,15.7,0,17.6,0,0-1.2.1-2.2,0-3.2M15,13.9c-1.5,0-13.2,0-14.4,0-.2.8-.2,2.4,0,3.3.5,0,2.8,0,5.4,0,0,2.9,0,7.8,0,9,.9.2,2.9.2,3.6,0,0-1.2,0-6.2,0-9,2.5,0,4.7,0,5.3,0,.2-.8.2-2.4,0-3.3M10.4,4.3c0,1.3,0,5.6,0,7.5.9.2,2.9.2,3.6,0,0-1.5,0-9.6,0-10.8-1.4,0-10.6,0-12.5,0,0,1.1,0,2.2,0,3.3,1.4,0,8.1,0,8.9,0"/>
</svg>