<svg width="1460" height="367" viewBox="0 0 1460 367" fill="none" xmlns="http://www.w3.org/2000/svg">
<g clip-path="url(#clip0_149_3255)">
<rect width="1460" height="367" fill="#FFAFB9"/>
<path d="M644.919 213.204L644.46 213.209C652.33 206.598 653.971 198.749 653.859 193.061C653.747 187.373 651.975 180.618 645.425 174.693C649.317 174.016 652.237 170.616 652.157 166.563L651.667 141.745C651.578 137.271 647.851 133.703 643.347 133.784L617.981 134.245C617.547 130.104 613.977 126.904 609.707 126.989L565.738 127.777C561.47 127.851 558.031 131.179 557.759 135.331L532.392 135.791C527.888 135.872 524.301 139.568 524.391 144.041L524.612 155.137C523.099 152.514 521.399 150.079 519.501 147.842C510.53 137.3 497.762 131.863 482.569 132.133C467.433 132.41 454.931 138.295 446.402 149.153C443.068 153.402 440.419 158.314 438.439 163.828C436.234 158.374 433.39 153.569 429.869 149.442C420.899 138.9 408.131 133.463 392.937 133.733C377.802 134.01 365.3 139.895 356.771 150.753C354.898 153.133 353.245 155.737 351.805 158.529C346.104 142.997 331.588 134.828 309.585 135.225C291.757 135.55 277.29 139.563 266.581 147.172C264.394 148.723 263.126 151.244 263.18 153.907L263.761 182.885C263.827 185.945 265.618 188.706 268.384 190.042C269.552 190.597 270.823 190.862 272.069 190.844C273.787 190.811 275.483 190.251 276.888 189.168C284.371 183.455 291.156 180.82 299.375 180.483C299.164 180.983 298.853 181.541 298.411 182.107C289.774 193.197 277.593 206.495 265.714 219.223C264.279 220.757 263.503 222.788 263.541 224.878L263.991 247.618C264.081 252.091 267.808 255.66 272.312 255.578L346.633 254.246C351.137 254.165 354.724 250.469 354.634 245.996L354.401 234.095C355.669 236.107 357.042 238.015 358.549 239.787C367.488 250.301 380.224 255.711 395.37 255.447C410.515 255.183 423.101 249.284 431.653 238.43C434.986 234.192 437.647 229.281 439.627 223.767C441.83 229.232 444.673 234.049 448.194 238.177C457.132 248.691 469.868 254.101 485.014 253.837C500.159 253.573 512.746 247.674 521.297 236.82C523.102 234.524 524.708 232.02 526.11 229.351L526.484 248.109C526.573 252.582 530.3 256.151 534.804 256.069L645.769 254.075C650.273 253.994 653.86 250.298 653.77 245.825L653.278 221.134C653.188 216.661 649.461 213.092 644.957 213.174L644.919 213.204Z" fill="#002904" stroke="white" stroke-width="2.69093" stroke-miterlimit="10"/>
<path d="M644.776 206.266L644.318 206.271C652.187 199.66 653.829 191.811 653.717 186.123C653.604 180.435 651.833 173.68 645.282 167.755C649.175 167.078 652.094 163.678 652.014 159.625L651.525 134.807C651.435 130.333 647.708 126.765 643.204 126.846L617.838 127.307C617.405 123.166 613.835 119.965 609.565 120.051L565.595 120.839C561.327 120.913 557.888 124.241 557.616 128.392L532.25 128.853C527.746 128.934 524.159 132.63 524.248 137.103L524.47 148.199C522.956 145.576 521.257 143.14 519.358 140.904C510.388 130.362 497.619 124.925 482.426 125.195C467.291 125.472 454.788 131.357 446.26 142.215C442.925 146.464 440.276 151.376 438.296 156.89C436.091 151.436 433.248 146.631 429.727 142.503C420.756 131.962 407.988 126.525 392.795 126.795C377.659 127.072 365.157 132.957 356.629 143.814C354.755 146.195 353.103 148.799 351.663 151.591C345.961 136.059 331.445 127.889 309.443 128.287C291.614 128.612 277.147 132.625 266.439 140.234C264.251 141.785 262.984 144.306 263.038 146.969L263.618 175.947C263.684 179.007 265.475 181.768 268.241 183.104C269.409 183.659 270.681 183.924 271.927 183.906C273.644 183.872 275.34 183.313 276.746 182.229C284.229 176.517 291.013 173.881 299.232 173.545C299.021 174.045 298.71 174.603 298.268 175.169C289.631 186.258 277.45 199.557 265.571 212.285C264.137 213.819 263.36 215.85 263.399 217.94L263.849 240.68C263.938 245.153 267.665 248.722 272.169 248.64L346.49 247.308C350.994 247.227 354.581 243.531 354.492 239.058L354.258 227.157C355.526 229.169 356.9 231.077 358.407 232.849C367.345 243.363 380.081 248.773 395.227 248.509C410.372 248.245 422.959 242.346 431.51 231.491C434.844 227.254 437.504 222.343 439.484 216.829C441.688 222.294 444.53 227.111 448.051 231.238C456.989 241.753 469.726 247.163 484.871 246.899C500.017 246.635 512.603 240.736 521.154 229.881C522.959 227.586 524.565 225.081 525.967 222.413L526.341 241.171C526.43 245.644 530.157 249.212 534.661 249.131L645.626 247.137C650.13 247.056 653.717 243.36 653.628 238.887L653.135 214.196C653.046 209.723 649.319 206.154 644.815 206.236L644.776 206.266Z" fill="#EFF916" stroke="#E16546" stroke-width="2.69093" stroke-linecap="round" stroke-linejoin="round"/>
<path d="M644.674 201.092L644.216 201.097C652.086 194.486 653.727 186.637 653.615 180.949C653.503 175.261 651.731 168.506 645.18 162.581C649.073 161.904 651.992 158.504 651.913 154.451L651.423 129.633C651.334 125.159 647.607 121.591 643.103 121.672L617.736 122.133C617.303 117.992 613.733 114.792 609.463 114.877L565.494 115.665C561.225 115.739 557.787 119.067 557.514 123.219L532.148 123.679C527.644 123.76 524.057 127.456 524.146 131.929L524.368 143.025C522.855 140.402 521.155 137.967 519.256 135.73C510.286 125.188 497.518 119.751 482.324 120.021C467.131 120.291 454.687 126.183 446.158 137.041C442.823 141.29 440.174 146.202 438.194 151.716C435.99 146.262 433.146 141.457 429.625 137.33C420.655 126.788 407.886 121.351 392.693 121.621C377.5 121.891 365.055 127.783 356.527 138.641C354.654 141.021 353.001 143.625 351.561 146.417C345.859 130.885 331.344 122.716 309.341 123.113C291.513 123.438 277.045 127.451 266.337 135.06C264.15 136.611 262.882 139.132 262.936 141.795L263.516 170.773C263.582 173.833 265.373 176.594 268.14 177.93C269.307 178.485 270.579 178.75 271.825 178.732C273.542 178.699 275.239 178.139 276.644 177.056C284.127 171.343 290.912 168.708 299.13 168.371C298.92 168.871 298.608 169.429 298.167 169.995C289.529 181.085 277.349 194.383 265.469 207.111C264.035 208.645 263.259 210.676 263.297 212.766L263.747 235.506C263.836 239.979 267.563 243.548 272.067 243.466L346.388 242.134C350.892 242.053 354.479 238.357 354.39 233.884L354.157 221.983C355.424 223.995 356.798 225.903 358.305 227.675C367.243 238.189 379.98 243.599 395.125 243.335C410.307 243.064 422.857 237.172 431.409 226.318C434.742 222.08 437.403 217.169 439.383 211.655C441.586 217.12 444.428 221.937 447.949 226.065C456.888 236.579 469.624 241.989 484.769 241.725C499.951 241.454 512.501 235.562 521.053 224.708C522.857 222.412 524.463 219.908 525.865 217.239L526.239 235.997C526.329 240.47 530.056 244.039 534.56 243.957L645.524 241.963C650.028 241.882 653.615 238.186 653.526 233.713L653.033 209.022C652.944 204.549 649.217 200.98 644.713 201.062L644.674 201.092Z" fill="white" stroke="#553835" stroke-width="2.69093" stroke-linecap="round" stroke-linejoin="round"/>
<path d="M271.893 235.394L271.442 212.654C284.77 198.37 296.172 185.82 304.601 175.009C307.276 171.58 307.987 167.794 307.67 165.077C307.349 162.092 304.295 160.198 299.979 160.278C289.901 160.456 281.064 163.482 271.649 170.671L271.068 141.694C279.332 135.827 291.422 131.572 309.473 131.25C333.416 130.822 345.667 141 346.087 162.186C346.368 176.097 338.098 188.465 327.206 199.968C323.361 204.064 316.306 211.341 311.816 215.841L314.584 216.955C317.67 214.04 322.552 209.4 325.902 206.737L345.658 206.381L346.202 234.061L271.881 235.393L271.893 235.394Z" fill="#34FD68" stroke="#553835" stroke-width="2.69093" stroke-linecap="round" stroke-linejoin="round"/>
<path d="M352.413 183.245C351.724 148.545 367.72 130.191 392.84 129.737C417.959 129.282 434.806 147.057 435.494 181.756C436.183 216.456 420.187 234.811 394.926 235.272C369.807 235.726 353.085 218.083 352.4 183.255L352.413 183.245ZM378.612 177.44L376.321 180.995C386.358 185.497 399.734 186.425 412.163 186.206L412.089 182.305C399.66 182.524 387.718 181.18 378.611 177.451L378.612 177.44Z" fill="#34FD68" stroke="#553835" stroke-width="2.69093" stroke-linecap="round" stroke-linejoin="round"/>
<path d="M442.045 181.634C441.357 146.934 457.353 128.58 482.472 128.125C507.731 127.676 524.438 145.445 525.127 180.145C525.816 214.845 509.819 233.199 484.559 233.66C459.44 234.114 442.718 216.471 442.032 181.644L442.045 181.634ZM468.245 175.829L465.953 179.384C475.991 183.885 489.366 184.813 501.796 184.594L501.722 180.694C489.293 180.913 477.35 179.569 468.244 175.84L468.245 175.829Z" fill="#34FD68" stroke="#553835" stroke-width="2.69093" stroke-linecap="round" stroke-linejoin="round"/>
<path d="M645.326 233.888L534.362 235.882L533.869 211.191L569.066 210.559L568.969 205.747C544.709 203.458 532.382 195.742 532.136 183.14C531.819 167.419 550.496 158.501 588.315 157.824C626.133 157.147 645.147 165.386 645.453 181.106C645.699 193.707 633.691 201.992 609.281 205.023L609.378 209.835L644.834 209.198L645.326 233.888ZM643.75 154.608L532.786 156.602L532.296 131.783L563.048 131.227C564.182 135.496 570.961 140.97 576.329 141.129L577.973 138.5C570.748 137.461 565.817 132.738 565.733 128.324L565.64 123.78L609.609 122.992L609.756 130.397L643.259 129.801L643.749 154.619L643.75 154.608ZM573.131 177.462L571.771 181.382C581.908 184.321 596.46 185.224 606.268 185.049L606.194 181.148C596.375 181.322 582.997 180.009 573.132 177.45L573.131 177.462Z" fill="#34FD68" stroke="#553835" stroke-width="2.69093" stroke-linecap="round" stroke-linejoin="round"/>
<path d="M332.401 142.997C333.059 141.331 331.027 138.978 327.863 137.741C324.699 136.504 321.6 136.852 320.942 138.517C320.285 140.182 322.317 142.535 325.481 143.772C328.645 145.009 331.744 144.662 332.401 142.997Z" fill="white"/>
<path d="M417.034 144.918C417.692 143.253 415.66 140.9 412.495 139.663C409.331 138.426 406.233 138.773 405.575 140.438C404.917 142.104 406.949 144.457 410.113 145.694C413.278 146.931 416.376 146.584 417.034 144.918Z" fill="white"/>
<path d="M506.674 143.307C507.332 141.641 505.3 139.288 502.136 138.051C498.971 136.814 495.873 137.161 495.215 138.827C494.557 140.492 496.589 142.845 499.753 144.082C502.918 145.319 506.016 144.972 506.674 143.307Z" fill="white"/>
<path d="M639.307 140.93C639.965 139.264 637.933 136.911 634.769 135.674C631.604 134.437 628.506 134.784 627.848 136.45C627.19 138.115 629.222 140.468 632.386 141.705C635.551 142.942 638.649 142.595 639.307 140.93Z" fill="white"/>
<path d="M627.233 171.505C627.891 169.839 625.859 167.486 622.694 166.249C619.53 165.012 616.432 165.36 615.774 167.025C615.116 168.691 617.148 171.043 620.312 172.28C623.476 173.518 626.575 173.17 627.233 171.505Z" fill="white"/>
<path d="M286.308 118.555C285.731 118.371 285.158 118.246 284.583 118.145C284.996 117.727 285.387 117.294 285.736 116.811C289.717 111.343 288.483 103.707 282.984 99.7338C277.472 95.7711 269.785 96.985 265.794 102.44C265.444 102.923 265.139 103.424 264.868 103.94C264.599 103.431 264.295 102.918 263.94 102.434C259.93 96.9677 252.23 95.7682 246.746 99.7323C241.249 103.707 240.054 111.351 244.054 116.804C244.408 117.288 244.803 117.731 245.213 118.139C244.638 118.236 244.06 118.366 243.487 118.545C237.024 120.635 233.499 127.531 235.614 133.953C237.73 140.375 244.679 143.888 251.142 141.797C251.716 141.607 252.258 141.379 252.781 141.126C252.702 141.699 252.646 142.287 252.647 142.881C252.659 149.629 258.182 155.108 264.977 155.107C271.772 155.106 277.279 149.63 277.267 142.881C277.266 142.287 277.205 141.697 277.119 141.128C277.641 141.387 278.188 141.625 278.765 141.809C285.235 143.891 292.169 140.375 294.255 133.953C296.34 127.531 292.789 120.638 286.319 118.556L286.308 118.555Z" fill="white"/>
<path d="M286.308 118.555C285.731 118.371 285.158 118.246 284.583 118.145C284.996 117.727 285.387 117.294 285.736 116.811C289.717 111.343 288.483 103.707 282.984 99.7338C277.472 95.7711 269.785 96.985 265.794 102.44C265.444 102.923 265.139 103.424 264.868 103.94C264.599 103.431 264.295 102.918 263.94 102.434C259.93 96.9677 252.23 95.7682 246.746 99.7323C241.249 103.707 240.054 111.351 244.054 116.804C244.408 117.288 244.803 117.731 245.213 118.139C244.638 118.236 244.06 118.366 243.487 118.545C237.024 120.635 233.499 127.531 235.614 133.953C237.73 140.375 244.679 143.888 251.142 141.797C251.716 141.607 252.258 141.379 252.781 141.126C252.702 141.699 252.646 142.287 252.647 142.881C252.659 149.629 258.182 155.108 264.977 155.107C271.772 155.106 277.279 149.63 277.267 142.881C277.266 142.287 277.205 141.697 277.119 141.128C277.641 141.387 278.188 141.625 278.765 141.809C285.235 143.891 292.169 140.375 294.255 133.953C296.34 127.531 292.789 120.638 286.319 118.556L286.308 118.555Z" stroke="#553835" stroke-width="2.69093" stroke-linecap="round" stroke-linejoin="round"/>
<path d="M269.978 129.153C272.707 126.371 272.644 121.915 269.838 119.201C267.032 116.487 262.545 116.542 259.817 119.325C257.089 122.107 257.152 126.563 259.958 129.277C262.764 131.991 267.25 131.936 269.978 129.153Z" fill="#FFC600" stroke="#553835" stroke-width="2.69093" stroke-linecap="round" stroke-linejoin="round"/>
<g clip-path="url(#clip1_149_3255)">
<path d="M879.177 144.902H823.769C823.209 144.902 822.648 144.969 822.128 145.116C821.608 144.982 821.061 144.902 820.487 144.902H789.507C788.08 144.902 786.772 145.37 785.705 146.16C784.638 145.37 783.33 144.902 781.903 144.902H751.35C750.643 144.902 749.976 145.009 749.335 145.223C748.708 145.009 748.028 144.902 747.321 144.902H692.233C688.684 144.902 685.815 147.794 685.815 151.342V178.722C685.815 182.19 688.551 185.028 691.993 185.162C693.327 185.216 694.674 185.242 696.009 185.242C700.852 185.242 705.535 184.921 710.017 184.265C708.617 199.622 702.599 203.184 691.552 204.348C688.284 204.697 685.802 207.455 685.802 210.762V238.45C685.802 240.231 686.536 241.931 687.83 243.15C689.031 244.274 690.605 244.903 692.233 244.903C692.366 244.903 692.5 244.903 692.633 244.903C712.019 243.712 727.015 237.914 737.208 227.685C740.17 224.713 742.745 221.352 744.919 217.617V238.477C744.919 242.038 747.801 244.917 751.337 244.917H781.889C785.438 244.917 788.307 242.025 788.307 238.477V236.522C792.296 241.302 799.167 244.917 810.854 244.917H879.164C882.713 244.917 885.581 242.025 885.581 238.477V198.685C885.581 198.19 885.528 197.708 885.421 197.252C885.528 196.797 885.581 196.315 885.581 195.82V151.355C885.581 147.794 882.699 144.915 879.164 144.915L879.177 144.902ZM695.742 178.789C696.529 178.789 697.316 178.789 698.09 178.762C697.396 178.776 696.702 178.789 696.009 178.789C695.915 178.789 695.822 178.789 695.742 178.789ZM708.456 177.972C709.057 177.892 709.644 177.798 710.231 177.704C709.644 177.798 709.043 177.892 708.456 177.972ZM702.386 178.575C703.08 178.535 703.773 178.481 704.454 178.414C703.76 178.481 703.08 178.521 702.386 178.575ZM705.521 178.307C706.135 178.24 706.749 178.173 707.349 178.106C706.749 178.186 706.135 178.253 705.521 178.307ZM716.768 176.379C715.874 176.607 714.981 176.807 714.073 176.995C714.981 176.807 715.888 176.607 716.768 176.379ZM713.179 177.169C712.552 177.289 711.939 177.41 711.298 177.517C711.925 177.41 712.552 177.289 713.179 177.169ZM849.265 220.509C848.024 220.576 846.757 220.616 845.476 220.616C846.77 220.616 848.038 220.576 849.265 220.509ZM822.955 216.814C822.088 216.479 821.221 216.117 820.407 215.729C821.234 216.117 822.088 216.465 822.955 216.814ZM824.276 213.707C824.396 213.761 824.516 213.801 824.636 213.855C824.516 213.814 824.396 213.761 824.276 213.707ZM830.24 215.595C830.373 215.635 830.507 215.662 830.653 215.689C830.52 215.649 830.373 215.622 830.24 215.595ZM836.324 216.8C836.457 216.827 836.604 216.84 836.737 216.867C836.604 216.854 836.457 216.827 836.324 216.8ZM839.472 217.202C839.646 217.215 839.806 217.242 839.979 217.255C839.806 217.242 839.646 217.229 839.472 217.202ZM842.688 217.456C842.821 217.456 842.968 217.456 843.101 217.47C842.968 217.47 842.821 217.47 842.688 217.456ZM845.129 220.629C844.222 220.629 843.288 220.603 842.367 220.562C843.301 220.603 844.222 220.616 845.129 220.629ZM842.114 220.562C841.167 220.522 840.206 220.455 839.232 220.375C840.193 220.455 841.153 220.522 842.114 220.562ZM838.725 220.321C837.778 220.241 836.844 220.134 835.897 220C836.831 220.121 837.778 220.228 838.725 220.321ZM835.39 219.933C834.429 219.799 833.455 219.652 832.508 219.465C833.468 219.639 834.429 219.786 835.39 219.933ZM832.281 219.424C831.347 219.25 830.426 219.049 829.519 218.835C830.426 219.049 831.36 219.25 832.281 219.424ZM825.93 217.871C825.05 217.603 824.196 217.309 823.355 216.988C824.196 217.309 825.05 217.59 825.93 217.871Z" fill="#002904"/>
<path d="M698.624 178.762C699.598 178.735 700.571 178.695 701.545 178.642M827.158 214.711C827.318 214.765 827.478 214.805 827.638 214.859M829.146 218.755C828.225 218.527 827.331 218.286 826.437 218.019M879.177 144.902H823.769C823.209 144.902 822.648 144.969 822.128 145.116C821.608 144.982 821.061 144.902 820.487 144.902H789.507C788.08 144.902 786.772 145.37 785.705 146.16C784.638 145.37 783.33 144.902 781.903 144.902H751.35C750.643 144.902 749.976 145.009 749.335 145.223C748.708 145.009 748.028 144.902 747.321 144.902H692.233C688.684 144.902 685.815 147.794 685.815 151.342V178.722C685.815 182.19 688.551 185.028 691.993 185.162C693.327 185.216 694.674 185.242 696.009 185.242C700.852 185.242 705.535 184.921 710.017 184.265C708.617 199.622 702.599 203.184 691.552 204.348C688.284 204.697 685.802 207.455 685.802 210.762V238.45C685.802 240.231 686.536 241.931 687.83 243.15C689.031 244.274 690.605 244.903 692.233 244.903C692.366 244.903 692.5 244.903 692.633 244.903C712.019 243.712 727.015 237.914 737.208 227.685C740.17 224.713 742.745 221.352 744.919 217.617V238.477C744.919 242.038 747.801 244.917 751.337 244.917H781.889C785.438 244.917 788.307 242.025 788.307 238.477V236.522C792.296 241.302 799.167 244.917 810.854 244.917H879.164C882.713 244.917 885.581 242.025 885.581 238.477V198.685C885.581 198.19 885.528 197.708 885.421 197.252C885.528 196.797 885.581 196.315 885.581 195.82V151.355C885.581 147.794 882.699 144.915 879.164 144.915L879.177 144.902ZM695.742 178.789C696.529 178.789 697.316 178.789 698.09 178.762C697.396 178.776 696.702 178.789 696.009 178.789C695.915 178.789 695.822 178.789 695.742 178.789ZM708.456 177.972C709.057 177.892 709.644 177.798 710.231 177.704C709.644 177.798 709.043 177.892 708.456 177.972ZM702.386 178.575C703.08 178.535 703.773 178.481 704.454 178.414C703.76 178.481 703.08 178.521 702.386 178.575ZM705.521 178.307C706.135 178.24 706.749 178.173 707.349 178.106C706.749 178.186 706.135 178.253 705.521 178.307ZM716.768 176.379C715.874 176.607 714.981 176.807 714.073 176.995C714.981 176.807 715.888 176.607 716.768 176.379ZM713.179 177.169C712.552 177.289 711.939 177.41 711.298 177.517C711.925 177.41 712.552 177.289 713.179 177.169ZM849.265 220.509C848.024 220.576 846.757 220.616 845.476 220.616C846.77 220.616 848.038 220.576 849.265 220.509ZM822.955 216.814C822.088 216.479 821.221 216.117 820.407 215.729C821.234 216.117 822.088 216.465 822.955 216.814ZM824.276 213.707C824.396 213.761 824.516 213.801 824.636 213.855C824.516 213.814 824.396 213.761 824.276 213.707ZM830.24 215.595C830.373 215.635 830.507 215.662 830.653 215.689C830.52 215.649 830.373 215.622 830.24 215.595ZM836.324 216.8C836.457 216.827 836.604 216.84 836.737 216.867C836.604 216.854 836.457 216.827 836.324 216.8ZM839.472 217.202C839.646 217.215 839.806 217.242 839.979 217.255C839.806 217.242 839.646 217.229 839.472 217.202ZM842.688 217.456C842.821 217.456 842.968 217.456 843.101 217.47C842.968 217.47 842.821 217.47 842.688 217.456ZM845.129 220.629C844.222 220.629 843.288 220.603 842.367 220.562C843.301 220.603 844.222 220.616 845.129 220.629ZM842.114 220.562C841.167 220.522 840.206 220.455 839.232 220.375C840.193 220.455 841.153 220.522 842.114 220.562ZM838.725 220.321C837.778 220.241 836.844 220.134 835.897 220C836.831 220.121 837.778 220.228 838.725 220.321ZM835.39 219.933C834.429 219.799 833.455 219.652 832.508 219.465C833.468 219.639 834.429 219.786 835.39 219.933ZM832.281 219.424C831.347 219.25 830.426 219.049 829.519 218.835C830.426 219.049 831.36 219.25 832.281 219.424ZM825.93 217.871C825.05 217.603 824.196 217.309 823.355 216.988C824.196 217.309 825.05 217.59 825.93 217.871Z" stroke="white" stroke-width="2.69064" stroke-miterlimit="10"/>
<path d="M1188.91 151.355C1188.91 147.794 1186.02 144.915 1182.49 144.915H1092.83C1091.4 144.915 1090.1 145.384 1089.03 146.174C1087.96 145.384 1086.65 144.915 1085.23 144.915H1064.19C1063.73 144.915 1063.29 144.969 1062.87 145.049C1062.44 144.955 1062 144.915 1061.55 144.915H1040.51C1040.07 144.915 1039.65 144.955 1039.24 145.036C1038.82 144.955 1038.4 144.915 1037.97 144.915H1018.52C1017.92 144.915 1017.33 144.995 1016.77 145.156C1016.21 144.995 1015.64 144.915 1015.02 144.915H995.57C994.143 144.915 992.835 145.384 991.768 146.174C990.701 145.384 989.393 144.915 987.966 144.915H957.413C953.864 144.915 950.996 147.807 950.996 151.355V154.461C945.152 147.057 936.693 143.308 925.806 143.308C914.239 143.308 905.407 147.579 899.563 156.001C893.693 164.463 890.838 177.169 890.838 194.842C890.838 212.516 893.693 225.222 899.563 233.684C905.407 242.105 914.239 246.376 925.806 246.376C936.68 246.376 945.152 242.614 950.996 235.196V238.45C950.996 242.011 953.877 244.89 957.413 244.89H987.966C991.514 244.89 994.383 241.998 994.383 238.45V228.248C995.33 229.948 996.424 231.528 997.705 232.987C1005.71 242.132 1019.75 246.39 1041.89 246.39C1061.18 246.39 1073.82 244.984 1086.93 241.382C1086.99 241.369 1087.04 241.342 1087.11 241.315C1088.16 243.431 1090.34 244.89 1092.86 244.89H1182.51C1186.06 244.89 1188.93 241.998 1188.93 238.45V216.171C1188.93 215.609 1188.87 215.046 1188.72 214.524C1188.85 214.002 1188.93 213.453 1188.93 212.877V194.093C1188.93 193.544 1188.87 193.008 1188.73 192.499C1188.87 191.99 1188.93 191.455 1188.93 190.906V173.192C1188.93 172.657 1188.87 172.148 1188.75 171.653C1188.87 171.157 1188.93 170.649 1188.93 170.113V151.328L1188.91 151.355ZM1064.51 215.997C1064.19 216.024 1063.88 216.05 1063.56 216.077C1063.88 216.05 1064.2 216.024 1064.51 215.997ZM1061.92 216.184C1061.63 216.198 1061.33 216.224 1061.02 216.238C1061.32 216.224 1061.63 216.198 1061.92 216.184ZM1044.39 216.398C1046.59 216.465 1048.76 216.492 1050.93 216.492C1048.76 216.492 1046.58 216.452 1044.39 216.398ZM1059.05 216.332C1058.86 216.332 1058.66 216.345 1058.48 216.358C1058.68 216.358 1058.86 216.345 1059.05 216.332ZM1055.88 216.439C1055.66 216.439 1055.45 216.439 1055.22 216.439C1055.43 216.439 1055.65 216.439 1055.88 216.439ZM1053.25 216.479C1052.93 216.479 1052.61 216.479 1052.3 216.479C1052.62 216.479 1052.94 216.479 1053.25 216.479ZM1066.04 215.863C1066.35 215.836 1066.67 215.809 1066.98 215.769C1066.67 215.796 1066.35 215.836 1066.04 215.863ZM1068.56 215.595C1068.84 215.568 1069.12 215.528 1069.39 215.501C1069.11 215.542 1068.83 215.568 1068.56 215.595ZM1071.35 215.234C1071.48 215.22 1071.62 215.193 1071.74 215.18C1071.6 215.193 1071.47 215.22 1071.35 215.234ZM1074.03 214.805C1074.25 214.765 1074.46 214.725 1074.66 214.685C1074.45 214.725 1074.25 214.765 1074.03 214.805Z" fill="#002904"/>
<path d="M1076.26 214.377C1076.53 214.323 1076.79 214.256 1077.06 214.203M1078.42 213.881C1078.69 213.814 1078.97 213.747 1079.24 213.681M1080.54 213.319C1080.8 213.239 1081.06 213.172 1081.32 213.091M1082.65 212.663C1082.87 212.596 1083.08 212.529 1083.29 212.449M1188.91 151.355C1188.91 147.794 1186.02 144.915 1182.49 144.915H1092.83C1091.4 144.915 1090.1 145.384 1089.03 146.174C1087.96 145.384 1086.65 144.915 1085.23 144.915H1064.19C1063.73 144.915 1063.29 144.969 1062.87 145.049C1062.44 144.955 1062 144.915 1061.55 144.915H1040.51C1040.07 144.915 1039.65 144.955 1039.24 145.036C1038.82 144.955 1038.4 144.915 1037.97 144.915H1018.52C1017.92 144.915 1017.33 144.995 1016.77 145.156C1016.21 144.995 1015.64 144.915 1015.02 144.915H995.57C994.143 144.915 992.835 145.384 991.768 146.174C990.701 145.384 989.393 144.915 987.966 144.915H957.413C953.864 144.915 950.996 147.807 950.996 151.355V154.461C945.152 147.057 936.693 143.308 925.806 143.308C914.239 143.308 905.407 147.579 899.563 156.001C893.693 164.463 890.838 177.169 890.838 194.842C890.838 212.516 893.693 225.222 899.563 233.684C905.407 242.105 914.239 246.376 925.806 246.376C936.68 246.376 945.152 242.614 950.996 235.196V238.45C950.996 242.011 953.877 244.89 957.413 244.89H987.966C991.514 244.89 994.383 241.998 994.383 238.45V228.248C995.33 229.948 996.424 231.528 997.705 232.987C1005.71 242.132 1019.75 246.39 1041.89 246.39C1061.18 246.39 1073.82 244.984 1086.93 241.382C1086.99 241.369 1087.04 241.342 1087.11 241.315C1088.16 243.431 1090.34 244.89 1092.86 244.89H1182.51C1186.06 244.89 1188.93 241.998 1188.93 238.45V216.171C1188.93 215.609 1188.87 215.046 1188.72 214.524C1188.85 214.002 1188.93 213.453 1188.93 212.877V194.093C1188.93 193.544 1188.87 193.008 1188.73 192.499C1188.87 191.99 1188.93 191.455 1188.93 190.906V173.192C1188.93 172.657 1188.87 172.148 1188.75 171.653C1188.87 171.157 1188.93 170.649 1188.93 170.113V151.328L1188.91 151.355ZM1064.51 215.997C1064.19 216.024 1063.88 216.05 1063.56 216.077C1063.88 216.05 1064.2 216.024 1064.51 215.997ZM1061.92 216.184C1061.63 216.198 1061.33 216.224 1061.02 216.238C1061.32 216.224 1061.63 216.198 1061.92 216.184ZM1044.39 216.398C1046.59 216.465 1048.76 216.492 1050.93 216.492C1048.76 216.492 1046.58 216.452 1044.39 216.398ZM1059.05 216.332C1058.86 216.332 1058.66 216.345 1058.48 216.358C1058.68 216.358 1058.86 216.345 1059.05 216.332ZM1055.88 216.439C1055.66 216.439 1055.45 216.439 1055.22 216.439C1055.43 216.439 1055.65 216.439 1055.88 216.439ZM1053.25 216.479C1052.93 216.479 1052.61 216.479 1052.3 216.479C1052.62 216.479 1052.94 216.479 1053.25 216.479ZM1066.04 215.863C1066.35 215.836 1066.67 215.809 1066.98 215.769C1066.67 215.796 1066.35 215.836 1066.04 215.863ZM1068.56 215.595C1068.84 215.568 1069.12 215.528 1069.39 215.501C1069.11 215.542 1068.83 215.568 1068.56 215.595ZM1071.35 215.234C1071.48 215.22 1071.62 215.193 1071.74 215.18C1071.6 215.193 1071.47 215.22 1071.35 215.234ZM1074.03 214.805C1074.25 214.765 1074.46 214.725 1074.66 214.685C1074.45 214.725 1074.25 214.765 1074.03 214.805Z" stroke="white" stroke-width="2.69064" stroke-miterlimit="10"/>
<path d="M879.177 138.462H823.769C823.209 138.462 822.648 138.529 822.128 138.676C821.608 138.542 821.061 138.462 820.487 138.462H789.507C788.08 138.462 786.772 138.93 785.705 139.72C784.638 138.93 783.33 138.462 781.903 138.462H751.35C750.643 138.462 749.976 138.569 749.335 138.783C748.708 138.569 748.028 138.462 747.321 138.462H692.233C688.684 138.462 685.815 141.354 685.815 144.902V172.282C685.815 175.75 688.551 178.588 691.993 178.722C693.327 178.776 694.674 178.802 696.009 178.802C700.852 178.802 705.535 178.481 710.017 177.825C708.617 193.182 702.599 196.744 691.552 197.908C688.284 198.256 685.802 201.015 685.802 204.322V232.01C685.802 233.791 686.536 235.491 687.83 236.709C689.031 237.834 690.605 238.463 692.233 238.463C692.366 238.463 692.5 238.463 692.633 238.463C712.019 237.272 727.015 231.474 737.208 221.245C740.17 218.273 742.745 214.912 744.919 211.177V232.037C744.919 235.598 747.801 238.477 751.337 238.477H781.889C785.438 238.477 788.307 235.585 788.307 232.037V230.082C792.296 234.862 799.167 238.477 810.854 238.477H879.164C882.713 238.477 885.581 235.585 885.581 232.037V192.245C885.581 191.749 885.528 191.267 885.421 190.812C885.528 190.357 885.581 189.875 885.581 189.38V144.902C885.581 141.34 882.699 138.462 879.164 138.462H879.177ZM695.742 172.349C696.529 172.349 697.316 172.349 698.09 172.322C697.396 172.336 696.702 172.349 696.009 172.349C695.915 172.349 695.822 172.349 695.742 172.349ZM708.456 171.532C709.057 171.452 709.644 171.358 710.231 171.264C709.644 171.358 709.043 171.452 708.456 171.532ZM702.386 172.135C703.08 172.095 703.773 172.041 704.454 171.974C703.76 172.041 703.08 172.081 702.386 172.135ZM705.521 171.867C706.135 171.8 706.749 171.733 707.349 171.666C706.749 171.746 706.135 171.813 705.521 171.867ZM716.768 169.939C715.874 170.167 714.981 170.367 714.073 170.555C714.981 170.367 715.888 170.167 716.768 169.939ZM713.179 170.729C712.552 170.849 711.939 170.97 711.298 171.077C711.925 170.97 712.552 170.849 713.179 170.729ZM849.265 214.069C848.024 214.136 846.757 214.176 845.476 214.176C846.77 214.176 848.038 214.136 849.265 214.069ZM822.955 210.373C822.088 210.039 821.221 209.677 820.407 209.289C821.234 209.677 822.088 210.025 822.955 210.373ZM824.276 207.267C824.396 207.321 824.516 207.361 824.636 207.414C824.516 207.374 824.396 207.321 824.276 207.267ZM830.24 209.155C830.373 209.195 830.507 209.222 830.653 209.249C830.52 209.209 830.373 209.182 830.24 209.155ZM836.324 210.36C836.457 210.387 836.604 210.4 836.737 210.427C836.604 210.414 836.457 210.387 836.324 210.36ZM839.472 210.762C839.646 210.775 839.806 210.802 839.979 210.815C839.806 210.802 839.646 210.788 839.472 210.762ZM842.688 211.016C842.821 211.016 842.968 211.016 843.101 211.03C842.968 211.03 842.821 211.029 842.688 211.016ZM845.129 214.189C844.222 214.189 843.288 214.163 842.367 214.122C843.301 214.163 844.222 214.176 845.129 214.189ZM842.114 214.122C841.167 214.082 840.206 214.015 839.232 213.935C840.193 214.015 841.153 214.082 842.114 214.122ZM838.725 213.881C837.778 213.801 836.844 213.694 835.897 213.56C836.831 213.681 837.778 213.788 838.725 213.881ZM835.39 213.493C834.429 213.359 833.455 213.212 832.508 213.024C833.468 213.199 834.429 213.346 835.39 213.493ZM832.281 212.984C831.347 212.81 830.426 212.609 829.519 212.395C830.426 212.609 831.36 212.81 832.281 212.984ZM825.93 211.431C825.05 211.163 824.196 210.869 823.355 210.547C824.196 210.869 825.05 211.15 825.93 211.431Z" fill="#EFF916"/>
<path d="M698.624 172.322C699.598 172.295 700.571 172.255 701.545 172.202M827.158 208.271C827.318 208.325 827.478 208.365 827.638 208.419M829.146 212.315C828.225 212.087 827.331 211.846 826.437 211.578M879.177 138.462H823.769C823.209 138.462 822.648 138.529 822.128 138.676C821.608 138.542 821.061 138.462 820.487 138.462H789.507C788.08 138.462 786.772 138.93 785.705 139.72C784.638 138.93 783.33 138.462 781.903 138.462H751.35C750.643 138.462 749.976 138.569 749.335 138.783C748.708 138.569 748.028 138.462 747.321 138.462H692.233C688.684 138.462 685.815 141.354 685.815 144.902V172.282C685.815 175.75 688.551 178.588 691.993 178.722C693.327 178.776 694.674 178.802 696.009 178.802C700.852 178.802 705.535 178.481 710.017 177.825C708.617 193.182 702.599 196.744 691.552 197.908C688.284 198.256 685.802 201.015 685.802 204.322V232.01C685.802 233.791 686.536 235.491 687.83 236.709C689.031 237.834 690.605 238.463 692.233 238.463C692.366 238.463 692.5 238.463 692.633 238.463C712.019 237.272 727.015 231.474 737.208 221.245C740.17 218.273 742.745 214.912 744.919 211.177V232.037C744.919 235.598 747.801 238.477 751.337 238.477H781.889C785.438 238.477 788.307 235.585 788.307 232.037V230.082C792.296 234.862 799.167 238.477 810.854 238.477H879.164C882.713 238.477 885.581 235.585 885.581 232.037V192.245C885.581 191.749 885.528 191.267 885.421 190.812C885.528 190.357 885.581 189.875 885.581 189.38V144.902C885.581 141.34 882.699 138.462 879.164 138.462H879.177ZM695.742 172.349C696.529 172.349 697.316 172.349 698.09 172.322C697.396 172.336 696.702 172.349 696.009 172.349C695.915 172.349 695.822 172.349 695.742 172.349ZM708.456 171.532C709.057 171.452 709.644 171.358 710.231 171.264C709.644 171.358 709.043 171.452 708.456 171.532ZM702.386 172.135C703.08 172.095 703.773 172.041 704.454 171.974C703.76 172.041 703.08 172.081 702.386 172.135ZM705.521 171.867C706.135 171.8 706.749 171.733 707.349 171.666C706.749 171.746 706.135 171.813 705.521 171.867ZM716.768 169.939C715.874 170.167 714.981 170.367 714.073 170.555C714.981 170.367 715.888 170.167 716.768 169.939ZM713.179 170.729C712.552 170.849 711.939 170.97 711.298 171.077C711.925 170.97 712.552 170.849 713.179 170.729ZM849.265 214.069C848.024 214.136 846.757 214.176 845.476 214.176C846.77 214.176 848.038 214.136 849.265 214.069ZM822.955 210.373C822.088 210.039 821.221 209.677 820.407 209.289C821.234 209.677 822.088 210.025 822.955 210.373ZM824.276 207.267C824.396 207.321 824.516 207.361 824.636 207.414C824.516 207.374 824.396 207.321 824.276 207.267ZM830.24 209.155C830.373 209.195 830.507 209.222 830.653 209.249C830.52 209.209 830.373 209.182 830.24 209.155ZM836.324 210.36C836.457 210.387 836.604 210.4 836.737 210.427C836.604 210.414 836.457 210.387 836.324 210.36ZM839.472 210.762C839.646 210.775 839.806 210.802 839.979 210.815C839.806 210.802 839.646 210.788 839.472 210.762ZM842.688 211.016C842.821 211.016 842.968 211.016 843.101 211.03C842.968 211.03 842.821 211.029 842.688 211.016ZM845.129 214.189C844.222 214.189 843.288 214.163 842.367 214.122C843.301 214.163 844.222 214.176 845.129 214.189ZM842.114 214.122C841.167 214.082 840.206 214.015 839.232 213.935C840.193 214.015 841.153 214.082 842.114 214.122ZM838.725 213.881C837.778 213.801 836.844 213.694 835.897 213.56C836.831 213.681 837.778 213.788 838.725 213.881ZM835.39 213.493C834.429 213.359 833.455 213.212 832.508 213.024C833.468 213.199 834.429 213.346 835.39 213.493ZM832.281 212.984C831.347 212.81 830.426 212.609 829.519 212.395C830.426 212.609 831.36 212.81 832.281 212.984ZM825.93 211.431C825.05 211.163 824.196 210.869 823.355 210.547C824.196 210.869 825.05 211.15 825.93 211.431Z" stroke="#E16546" stroke-width="2.69064" stroke-linecap="round" stroke-linejoin="round"/>
<path d="M1188.91 144.902C1188.91 141.34 1186.02 138.462 1182.49 138.462H1092.83C1091.4 138.462 1090.1 138.93 1089.03 139.72C1087.96 138.93 1086.65 138.462 1085.23 138.462H1064.19C1063.73 138.462 1063.29 138.515 1062.87 138.595C1062.44 138.502 1062 138.462 1061.55 138.462H1040.51C1040.07 138.462 1039.65 138.502 1039.24 138.582C1038.82 138.502 1038.4 138.462 1037.97 138.462H1018.52C1017.92 138.462 1017.33 138.542 1016.77 138.703C1016.21 138.542 1015.64 138.462 1015.02 138.462H995.57C994.143 138.462 992.835 138.93 991.768 139.72C990.701 138.93 989.393 138.462 987.966 138.462H957.413C953.864 138.462 950.996 141.354 950.996 144.902V148.008C945.152 140.604 936.693 136.855 925.806 136.855C914.239 136.855 905.407 141.126 899.563 149.548C893.693 158.009 890.838 170.715 890.838 188.389C890.838 206.062 893.693 218.768 899.563 227.23C905.407 235.652 914.239 239.923 925.806 239.923C936.68 239.923 945.152 236.16 950.996 228.743V231.997C950.996 235.558 953.877 238.437 957.413 238.437H987.966C991.514 238.437 994.383 235.545 994.383 231.997V221.794C995.33 223.495 996.424 225.074 997.705 226.534C1005.71 235.678 1019.75 239.936 1041.89 239.936C1061.18 239.936 1073.82 238.53 1086.93 234.929C1086.99 234.915 1087.04 234.889 1087.11 234.862C1088.16 236.977 1090.34 238.437 1092.86 238.437H1182.51C1186.06 238.437 1188.93 235.545 1188.93 231.997V209.717C1188.93 209.155 1188.87 208.593 1188.72 208.071C1188.85 207.548 1188.93 206.999 1188.93 206.424V187.639C1188.93 187.09 1188.87 186.555 1188.73 186.046C1188.87 185.537 1188.93 185.001 1188.93 184.453V166.739C1188.93 166.203 1188.87 165.695 1188.75 165.199C1188.87 164.704 1188.93 164.195 1188.93 163.66V144.902H1188.91ZM1064.51 209.543C1064.19 209.57 1063.88 209.597 1063.56 209.624C1063.88 209.597 1064.2 209.57 1064.51 209.543ZM1061.92 209.731C1061.63 209.744 1061.33 209.771 1061.02 209.784C1061.32 209.771 1061.63 209.744 1061.92 209.731ZM1044.39 209.945C1046.59 210.012 1048.76 210.039 1050.93 210.039C1048.76 210.039 1046.58 209.999 1044.39 209.945ZM1059.05 209.878C1058.86 209.878 1058.66 209.891 1058.48 209.905C1058.68 209.905 1058.86 209.891 1059.05 209.878ZM1055.88 209.985C1055.66 209.985 1055.45 209.985 1055.22 209.985C1055.43 209.985 1055.65 209.985 1055.88 209.985ZM1053.25 210.025C1052.93 210.025 1052.61 210.025 1052.3 210.025C1052.62 210.025 1052.94 210.025 1053.25 210.025ZM1066.04 209.409C1066.35 209.383 1066.67 209.356 1066.98 209.316C1066.67 209.342 1066.35 209.383 1066.04 209.409ZM1068.56 209.142C1068.84 209.115 1069.12 209.075 1069.39 209.048C1069.11 209.088 1068.83 209.115 1068.56 209.142ZM1071.35 208.78C1071.48 208.767 1071.62 208.74 1071.74 208.727C1071.6 208.74 1071.47 208.767 1071.35 208.78ZM1074.03 208.352C1074.25 208.312 1074.46 208.271 1074.66 208.231C1074.45 208.271 1074.25 208.312 1074.03 208.352Z" fill="#EFF916"/>
<path d="M1076.26 207.923C1076.53 207.87 1076.79 207.803 1077.06 207.749M1078.42 207.428C1078.69 207.361 1078.97 207.294 1079.24 207.227M1080.54 206.866C1080.8 206.785 1081.06 206.718 1081.32 206.638M1082.65 206.209C1082.87 206.143 1083.08 206.076 1083.29 205.995M1188.91 144.902C1188.91 141.34 1186.02 138.462 1182.49 138.462H1092.83C1091.4 138.462 1090.1 138.93 1089.03 139.72C1087.96 138.93 1086.65 138.462 1085.23 138.462H1064.19C1063.73 138.462 1063.29 138.515 1062.87 138.595C1062.44 138.502 1062 138.462 1061.55 138.462H1040.51C1040.07 138.462 1039.65 138.502 1039.24 138.582C1038.82 138.502 1038.4 138.462 1037.97 138.462H1018.52C1017.92 138.462 1017.33 138.542 1016.77 138.703C1016.21 138.542 1015.64 138.462 1015.02 138.462H995.57C994.143 138.462 992.835 138.93 991.768 139.72C990.701 138.93 989.393 138.462 987.966 138.462H957.413C953.864 138.462 950.996 141.354 950.996 144.902V148.008C945.152 140.604 936.693 136.855 925.806 136.855C914.239 136.855 905.407 141.126 899.563 149.548C893.693 158.009 890.838 170.715 890.838 188.389C890.838 206.062 893.693 218.768 899.563 227.23C905.407 235.652 914.239 239.923 925.806 239.923C936.68 239.923 945.152 236.16 950.996 228.743V231.997C950.996 235.558 953.877 238.437 957.413 238.437H987.966C991.514 238.437 994.383 235.545 994.383 231.997V221.794C995.33 223.495 996.424 225.074 997.705 226.534C1005.71 235.678 1019.75 239.936 1041.89 239.936C1061.18 239.936 1073.82 238.53 1086.93 234.929C1086.99 234.915 1087.04 234.889 1087.11 234.862C1088.16 236.977 1090.34 238.437 1092.86 238.437H1182.51C1186.06 238.437 1188.93 235.545 1188.93 231.997V209.717C1188.93 209.155 1188.87 208.593 1188.72 208.071C1188.85 207.548 1188.93 206.999 1188.93 206.424V187.639C1188.93 187.09 1188.87 186.555 1188.73 186.046C1188.87 185.537 1188.93 185.001 1188.93 184.453V166.739C1188.93 166.203 1188.87 165.695 1188.75 165.199C1188.87 164.704 1188.93 164.195 1188.93 163.66V144.902H1188.91ZM1064.51 209.543C1064.19 209.57 1063.88 209.597 1063.56 209.624C1063.88 209.597 1064.2 209.57 1064.51 209.543ZM1061.92 209.731C1061.63 209.744 1061.33 209.771 1061.02 209.784C1061.32 209.771 1061.63 209.744 1061.92 209.731ZM1044.39 209.945C1046.59 210.012 1048.76 210.039 1050.93 210.039C1048.76 210.039 1046.58 209.999 1044.39 209.945ZM1059.05 209.878C1058.86 209.878 1058.66 209.891 1058.48 209.905C1058.68 209.905 1058.86 209.891 1059.05 209.878ZM1055.88 209.985C1055.66 209.985 1055.45 209.985 1055.22 209.985C1055.43 209.985 1055.65 209.985 1055.88 209.985ZM1053.25 210.025C1052.93 210.025 1052.61 210.025 1052.3 210.025C1052.62 210.025 1052.94 210.025 1053.25 210.025ZM1066.04 209.409C1066.35 209.383 1066.67 209.356 1066.98 209.316C1066.67 209.342 1066.35 209.383 1066.04 209.409ZM1068.56 209.142C1068.84 209.115 1069.12 209.075 1069.39 209.048C1069.11 209.088 1068.83 209.115 1068.56 209.142ZM1071.35 208.78C1071.48 208.767 1071.62 208.74 1071.74 208.727C1071.6 208.74 1071.47 208.767 1071.35 208.78ZM1074.03 208.352C1074.25 208.312 1074.46 208.271 1074.66 208.231C1074.45 208.271 1074.25 208.312 1074.03 208.352Z" stroke="#E16546" stroke-width="2.69064" stroke-linecap="round" stroke-linejoin="round"/>
<path d="M879.177 133.093H823.769C823.209 133.093 822.648 133.16 822.128 133.307C821.608 133.173 821.061 133.093 820.487 133.093H789.507C788.08 133.093 786.772 133.561 785.705 134.351C784.638 133.561 783.33 133.093 781.903 133.093H751.35C750.643 133.093 749.976 133.2 749.335 133.414C748.708 133.2 748.028 133.093 747.321 133.093H692.233C688.697 133.093 685.815 135.971 685.815 139.533V166.913C685.815 170.381 688.551 173.219 691.993 173.353C693.327 173.407 694.674 173.433 696.009 173.433C700.852 173.433 705.535 173.112 710.017 172.456C708.617 187.813 702.599 191.375 691.552 192.539C688.284 192.888 685.802 195.646 685.802 198.953V226.641C685.802 228.422 686.536 230.122 687.83 231.34C689.031 232.465 690.605 233.094 692.233 233.094C692.366 233.094 692.5 233.094 692.633 233.094C712.019 231.903 727.015 226.105 737.208 215.876C740.17 212.904 742.745 209.543 744.919 205.808V226.668C744.919 230.229 747.801 233.108 751.337 233.108H781.889C785.438 233.108 788.307 230.216 788.307 226.668V224.713C792.296 229.493 799.167 233.108 810.854 233.108H879.164C882.713 233.108 885.581 230.216 885.581 226.668V186.876C885.581 186.381 885.528 185.899 885.421 185.443C885.528 184.988 885.581 184.506 885.581 184.011V139.533C885.581 135.971 882.699 133.093 879.164 133.093H879.177ZM695.742 166.98C696.529 166.98 697.316 166.98 698.09 166.953C697.396 166.967 696.702 166.98 696.009 166.98C695.915 166.98 695.822 166.98 695.742 166.98ZM708.456 166.163C709.057 166.083 709.644 165.989 710.231 165.895C709.644 165.989 709.043 166.083 708.456 166.163ZM702.386 166.766C703.08 166.726 703.773 166.672 704.454 166.605C703.76 166.672 703.08 166.712 702.386 166.766ZM705.521 166.498C706.135 166.431 706.749 166.364 707.349 166.297C706.749 166.377 706.135 166.444 705.521 166.498ZM716.768 164.57C715.874 164.798 714.981 164.998 714.073 165.186C714.981 164.998 715.888 164.798 716.768 164.57ZM713.179 165.36C712.552 165.48 711.939 165.601 711.298 165.708C711.925 165.601 712.552 165.48 713.179 165.36ZM849.265 208.7C848.024 208.767 846.757 208.807 845.476 208.807C846.77 208.807 848.038 208.767 849.265 208.7ZM822.955 205.004C822.088 204.67 821.221 204.308 820.407 203.92C821.234 204.308 822.088 204.656 822.955 205.004ZM824.276 201.898C824.396 201.952 824.516 201.992 824.636 202.046C824.516 202.005 824.396 201.952 824.276 201.898ZM830.24 203.786C830.373 203.826 830.507 203.853 830.653 203.88C830.52 203.84 830.373 203.813 830.24 203.786ZM836.324 204.991C836.457 205.018 836.604 205.031 836.737 205.058C836.604 205.045 836.457 205.018 836.324 204.991ZM839.472 205.393C839.646 205.406 839.806 205.433 839.979 205.446C839.806 205.433 839.646 205.42 839.472 205.393ZM842.688 205.647C842.821 205.647 842.968 205.647 843.101 205.661C842.968 205.661 842.821 205.661 842.688 205.647ZM845.129 208.82C844.222 208.82 843.288 208.794 842.367 208.753C843.301 208.794 844.222 208.807 845.129 208.82ZM842.114 208.753C841.167 208.713 840.206 208.646 839.232 208.566C840.193 208.646 841.153 208.713 842.114 208.753ZM838.725 208.512C837.778 208.432 836.844 208.325 835.897 208.191C836.831 208.312 837.778 208.419 838.725 208.512ZM835.39 208.124C834.429 207.99 833.455 207.843 832.508 207.656C833.468 207.83 834.429 207.977 835.39 208.124ZM832.281 207.615C831.347 207.441 830.426 207.24 829.519 207.026C830.426 207.24 831.36 207.441 832.281 207.615ZM825.93 206.062C825.05 205.794 824.196 205.5 823.355 205.179C824.196 205.5 825.05 205.781 825.93 206.062Z" fill="white"/>
<path d="M698.624 166.953C699.598 166.926 700.571 166.886 701.545 166.833M827.158 202.902C827.318 202.956 827.478 202.996 827.638 203.05M829.146 206.946C828.225 206.718 827.331 206.477 826.437 206.209M879.177 133.093H823.769C823.209 133.093 822.648 133.16 822.128 133.307C821.608 133.173 821.061 133.093 820.487 133.093H789.507C788.08 133.093 786.772 133.561 785.705 134.351C784.638 133.561 783.33 133.093 781.903 133.093H751.35C750.643 133.093 749.976 133.2 749.335 133.414C748.708 133.2 748.028 133.093 747.321 133.093H692.233C688.697 133.093 685.815 135.971 685.815 139.533V166.913C685.815 170.381 688.551 173.219 691.993 173.353C693.327 173.407 694.674 173.433 696.009 173.433C700.852 173.433 705.535 173.112 710.017 172.456C708.617 187.813 702.599 191.375 691.552 192.539C688.284 192.888 685.802 195.646 685.802 198.953V226.641C685.802 228.422 686.536 230.122 687.83 231.34C689.031 232.465 690.605 233.094 692.233 233.094C692.366 233.094 692.5 233.094 692.633 233.094C712.019 231.903 727.015 226.105 737.208 215.876C740.17 212.904 742.745 209.543 744.919 205.808V226.668C744.919 230.229 747.801 233.108 751.337 233.108H781.889C785.438 233.108 788.307 230.216 788.307 226.668V224.713C792.296 229.493 799.167 233.108 810.854 233.108H879.164C882.713 233.108 885.581 230.216 885.581 226.668V186.876C885.581 186.381 885.528 185.899 885.421 185.443C885.528 184.988 885.581 184.506 885.581 184.011V139.533C885.581 135.971 882.699 133.093 879.164 133.093H879.177ZM695.742 166.98C696.529 166.98 697.316 166.98 698.09 166.953C697.396 166.967 696.702 166.98 696.009 166.98C695.915 166.98 695.822 166.98 695.742 166.98ZM708.456 166.163C709.057 166.083 709.644 165.989 710.231 165.895C709.644 165.989 709.043 166.083 708.456 166.163ZM702.386 166.766C703.08 166.726 703.773 166.672 704.454 166.605C703.76 166.672 703.08 166.712 702.386 166.766ZM705.521 166.498C706.135 166.431 706.749 166.364 707.349 166.297C706.749 166.377 706.135 166.444 705.521 166.498ZM716.768 164.57C715.874 164.798 714.981 164.998 714.073 165.186C714.981 164.998 715.888 164.798 716.768 164.57ZM713.179 165.36C712.552 165.48 711.939 165.601 711.298 165.708C711.925 165.601 712.552 165.48 713.179 165.36ZM849.265 208.7C848.024 208.767 846.757 208.807 845.476 208.807C846.77 208.807 848.038 208.767 849.265 208.7ZM822.955 205.004C822.088 204.67 821.221 204.308 820.407 203.92C821.234 204.308 822.088 204.656 822.955 205.004ZM824.276 201.898C824.396 201.952 824.516 201.992 824.636 202.046C824.516 202.005 824.396 201.952 824.276 201.898ZM830.24 203.786C830.373 203.826 830.507 203.853 830.653 203.88C830.52 203.84 830.373 203.813 830.24 203.786ZM836.324 204.991C836.457 205.018 836.604 205.031 836.737 205.058C836.604 205.045 836.457 205.018 836.324 204.991ZM839.472 205.393C839.646 205.406 839.806 205.433 839.979 205.446C839.806 205.433 839.646 205.42 839.472 205.393ZM842.688 205.647C842.821 205.647 842.968 205.647 843.101 205.661C842.968 205.661 842.821 205.661 842.688 205.647ZM845.129 208.82C844.222 208.82 843.288 208.794 842.367 208.753C843.301 208.794 844.222 208.807 845.129 208.82ZM842.114 208.753C841.167 208.713 840.206 208.646 839.232 208.566C840.193 208.646 841.153 208.713 842.114 208.753ZM838.725 208.512C837.778 208.432 836.844 208.325 835.897 208.191C836.831 208.312 837.778 208.419 838.725 208.512ZM835.39 208.124C834.429 207.99 833.455 207.843 832.508 207.656C833.468 207.83 834.429 207.977 835.39 208.124ZM832.281 207.615C831.347 207.441 830.426 207.24 829.519 207.026C830.426 207.24 831.36 207.441 832.281 207.615ZM825.93 206.062C825.05 205.794 824.196 205.5 823.355 205.179C824.196 205.5 825.05 205.781 825.93 206.062Z" stroke="#553835" stroke-width="2.69064" stroke-linecap="round" stroke-linejoin="round"/>
<path d="M1188.91 139.533C1188.91 135.971 1186.02 133.093 1182.49 133.093H1092.83C1091.4 133.093 1090.1 133.561 1089.03 134.351C1087.96 133.561 1086.65 133.093 1085.23 133.093H1064.19C1063.73 133.093 1063.29 133.146 1062.87 133.227C1062.44 133.133 1062 133.093 1061.55 133.093H1040.51C1040.07 133.093 1039.65 133.133 1039.24 133.213C1038.82 133.133 1038.4 133.093 1037.97 133.093H1018.52C1017.92 133.093 1017.33 133.173 1016.77 133.334C1016.21 133.173 1015.64 133.093 1015.02 133.093H995.57C994.143 133.093 992.835 133.561 991.768 134.351C990.701 133.561 989.393 133.093 987.966 133.093H957.413C953.864 133.093 950.996 135.985 950.996 139.533V142.639C945.152 135.235 936.693 131.486 925.806 131.486C914.239 131.486 905.407 135.757 899.563 144.179C893.693 152.64 890.838 165.347 890.838 183.02C890.838 200.693 893.693 213.399 899.563 221.861C905.407 230.283 914.239 234.554 925.806 234.554C936.68 234.554 945.152 230.792 950.996 223.374V226.628C950.996 230.189 953.877 233.068 957.413 233.068H987.966C991.514 233.068 994.383 230.176 994.383 226.628V216.425C995.33 218.126 996.424 219.706 997.705 221.165C1005.71 230.31 1019.75 234.567 1041.89 234.567C1061.18 234.567 1073.82 233.161 1086.93 229.56C1086.99 229.546 1087.04 229.52 1087.11 229.493C1088.16 231.608 1090.34 233.068 1092.86 233.068H1182.51C1186.06 233.068 1188.93 230.176 1188.93 226.628V204.348C1188.93 203.786 1188.87 203.224 1188.72 202.702C1188.85 202.179 1188.93 201.63 1188.93 201.055V182.27C1188.93 181.721 1188.87 181.186 1188.73 180.677C1188.87 180.168 1188.93 179.632 1188.93 179.084V161.37C1188.93 160.834 1188.87 160.326 1188.75 159.83C1188.87 159.335 1188.93 158.826 1188.93 158.291V139.533H1188.91ZM1064.51 204.174C1064.19 204.201 1063.88 204.228 1063.56 204.255C1063.88 204.228 1064.2 204.201 1064.51 204.174ZM1061.92 204.362C1061.63 204.375 1061.33 204.402 1061.02 204.415C1061.32 204.402 1061.63 204.375 1061.92 204.362ZM1044.39 204.576C1046.59 204.643 1048.76 204.67 1050.93 204.67C1048.76 204.67 1046.58 204.63 1044.39 204.576ZM1059.05 204.509C1058.86 204.509 1058.66 204.522 1058.48 204.536C1058.68 204.536 1058.86 204.522 1059.05 204.509ZM1055.88 204.616C1055.66 204.616 1055.45 204.616 1055.22 204.616C1055.43 204.616 1055.65 204.616 1055.88 204.616ZM1053.25 204.656C1052.93 204.656 1052.61 204.656 1052.3 204.656C1052.62 204.656 1052.94 204.656 1053.25 204.656ZM1066.04 204.04C1066.35 204.014 1066.67 203.987 1066.98 203.947C1066.67 203.974 1066.35 204.014 1066.04 204.04ZM1068.56 203.773C1068.84 203.746 1069.12 203.706 1069.39 203.679C1069.11 203.719 1068.83 203.746 1068.56 203.773ZM1071.35 203.411C1071.48 203.398 1071.62 203.371 1071.74 203.358C1071.6 203.371 1071.47 203.398 1071.35 203.411ZM1074.03 202.983C1074.25 202.943 1074.46 202.902 1074.66 202.862C1074.45 202.902 1074.25 202.943 1074.03 202.983Z" fill="white"/>
<path d="M1076.26 202.554C1076.53 202.501 1076.79 202.434 1077.06 202.38M1078.42 202.059C1078.69 201.992 1078.97 201.925 1079.24 201.858M1080.54 201.497C1080.8 201.416 1081.06 201.349 1081.32 201.269M1082.65 200.841C1082.87 200.774 1083.08 200.707 1083.29 200.626M1188.91 139.533C1188.91 135.971 1186.02 133.093 1182.49 133.093H1092.83C1091.4 133.093 1090.1 133.561 1089.03 134.351C1087.96 133.561 1086.65 133.093 1085.23 133.093H1064.19C1063.73 133.093 1063.29 133.146 1062.87 133.227C1062.44 133.133 1062 133.093 1061.55 133.093H1040.51C1040.07 133.093 1039.65 133.133 1039.24 133.213C1038.82 133.133 1038.4 133.093 1037.97 133.093H1018.52C1017.92 133.093 1017.33 133.173 1016.77 133.334C1016.21 133.173 1015.64 133.093 1015.02 133.093H995.57C994.143 133.093 992.835 133.561 991.768 134.351C990.701 133.561 989.393 133.093 987.966 133.093H957.413C953.864 133.093 950.996 135.985 950.996 139.533V142.639C945.152 135.235 936.693 131.486 925.806 131.486C914.239 131.486 905.407 135.757 899.563 144.179C893.693 152.64 890.838 165.347 890.838 183.02C890.838 200.693 893.693 213.399 899.563 221.861C905.407 230.283 914.239 234.554 925.806 234.554C936.68 234.554 945.152 230.792 950.996 223.374V226.628C950.996 230.189 953.877 233.068 957.413 233.068H987.966C991.514 233.068 994.383 230.176 994.383 226.628V216.425C995.33 218.126 996.424 219.706 997.705 221.165C1005.71 230.31 1019.75 234.567 1041.89 234.567C1061.18 234.567 1073.82 233.161 1086.93 229.56C1086.99 229.546 1087.04 229.52 1087.11 229.493C1088.16 231.608 1090.34 233.068 1092.86 233.068H1182.51C1186.06 233.068 1188.93 230.176 1188.93 226.628V204.348C1188.93 203.786 1188.87 203.224 1188.72 202.702C1188.85 202.179 1188.93 201.63 1188.93 201.055V182.27C1188.93 181.721 1188.87 181.186 1188.73 180.677C1188.87 180.168 1188.93 179.632 1188.93 179.084V161.37C1188.93 160.834 1188.87 160.326 1188.75 159.83C1188.87 159.335 1188.93 158.826 1188.93 158.291V139.533H1188.91ZM1064.51 204.174C1064.19 204.201 1063.88 204.228 1063.56 204.255C1063.88 204.228 1064.2 204.201 1064.51 204.174ZM1061.92 204.362C1061.63 204.375 1061.33 204.402 1061.02 204.415C1061.32 204.402 1061.63 204.375 1061.92 204.362ZM1044.39 204.576C1046.59 204.643 1048.76 204.67 1050.93 204.67C1048.76 204.67 1046.58 204.63 1044.39 204.576ZM1059.05 204.509C1058.86 204.509 1058.66 204.522 1058.48 204.536C1058.68 204.536 1058.86 204.522 1059.05 204.509ZM1055.88 204.616C1055.66 204.616 1055.45 204.616 1055.22 204.616C1055.43 204.616 1055.65 204.616 1055.88 204.616ZM1053.25 204.656C1052.93 204.656 1052.61 204.656 1052.3 204.656C1052.62 204.656 1052.94 204.656 1053.25 204.656ZM1066.04 204.04C1066.35 204.014 1066.67 203.987 1066.98 203.947C1066.67 203.974 1066.35 204.014 1066.04 204.04ZM1068.56 203.773C1068.84 203.746 1069.12 203.706 1069.39 203.679C1069.11 203.719 1068.83 203.746 1068.56 203.773ZM1071.35 203.411C1071.48 203.398 1071.62 203.371 1071.74 203.358C1071.6 203.371 1071.47 203.398 1071.35 203.411ZM1074.03 202.983C1074.25 202.943 1074.46 202.902 1074.66 202.862C1074.45 202.902 1074.25 202.943 1074.03 202.983Z" stroke="#553835" stroke-width="2.69064" stroke-linecap="round" stroke-linejoin="round"/>
<path d="M692.233 226.654V198.966C710.311 197.051 716.768 187.505 716.768 164.583C709.15 166.498 700.692 167.234 692.233 166.913V139.533H747.321V167.542C747.321 207.548 726.601 224.526 692.233 226.641V226.654ZM781.889 226.654H751.337V139.533H781.889V226.654Z" fill="#5DFDF5" stroke="#553835" stroke-width="2.69064" stroke-linecap="round" stroke-linejoin="round"/>
<path d="M789.507 139.533H820.487V163.405C820.487 166.056 822.395 167.114 825.357 167.114C831.801 167.114 838.992 166.578 845.556 165.735V182.391C833.709 183.555 822.301 184.091 807.919 184.091C797.339 184.091 789.521 178.468 789.521 167.957V139.533H789.507ZM789.507 186.849H879.164V226.641H810.854C796.579 226.641 789.494 220.696 789.494 208.392V186.849H789.507ZM820.38 203.933C828.732 207.856 839.939 209.235 849.252 208.713V205.634C840.473 206.169 829.799 204.576 821.754 200.854L820.38 203.933ZM823.769 139.533H879.177V183.997H848.625V164.476H823.782V152.908H848.625V151.101H823.782V139.533H823.769Z" fill="#5DFDF5" stroke="#553835" stroke-width="2.69064" stroke-linecap="round" stroke-linejoin="round"/>
<path d="M897.215 183.047C897.215 149.414 907.889 137.953 925.766 137.953C943.644 137.953 954.424 149.414 954.424 183.047C954.424 216.68 943.751 228.141 925.766 228.141C907.782 228.141 897.215 216.68 897.215 183.047ZM915.827 177.53L913.919 180.396C920.897 183.582 929.569 185.176 937.494 185.176V181.989C929.569 181.989 922.057 180.074 915.814 177.53H915.827ZM987.939 226.654H957.386V139.533H987.939V226.654Z" fill="#5DFDF5" stroke="#553835" stroke-width="2.69064" stroke-linecap="round" stroke-linejoin="round"/>
<path d="M995.544 139.533H1015V149.079H1018.49V139.533H1037.94V154.488H1040.48V139.533H1061.52V197.788H1040.48V175.924H1037.94V190.25L1004.64 190.357C998.305 190.357 995.544 187.599 995.544 181.226V139.533ZM1027.9 193.329C1027.9 200.118 1033.5 204.255 1044.39 204.576C1059.82 205.004 1074.63 204.148 1085.2 199.903V223.347C1072.83 226.748 1060.77 228.127 1041.85 228.127C1010.45 228.127 993.849 219.424 997.238 193.329H1027.9ZM1006.86 165.748C1012.78 168.506 1020.81 169.457 1027.26 169.457V166.27C1020.81 166.27 1013.94 164.998 1008.75 162.87L1006.84 165.735L1006.86 165.748ZM1064.16 139.546H1085.2V195.03C1078.86 196.837 1072.62 197.788 1064.16 197.788V139.533V139.546Z" fill="#5DFDF5" stroke="#553835" stroke-width="2.69064" stroke-linecap="round" stroke-linejoin="round"/>
<path d="M1092.82 187.706V139.533H1182.47V158.317H1124.64V161.397H1182.47V179.11H1124.64V182.297H1182.47V201.082H1106.13C1097.67 201.082 1092.8 196.195 1092.8 187.706H1092.82ZM1182.47 226.641H1092.82V204.362H1182.47V226.641Z" fill="#5DFDF5" stroke="#553835" stroke-width="2.69064" stroke-linecap="round" stroke-linejoin="round"/>
</g>
<path d="M68.3842 150.332L47.1346 133.908L27.8113 118.959L18.6666 111.888L0.357124 97.7266L-9.57828 90.0499L-26.9551 76.6156L-37.4988 68.4743C-44.048 63.444 -46.6231 54.8178 -43.9669 47.0199C-41.2904 39.2219 -33.9504 33.9694 -25.6777 33.9694L-12.3359 33.9492L9.66395 33.9088L22.2353 33.8886L45.4111 33.8482H56.9889L81.4624 33.7876L108.349 33.7472C110.944 33.7472 112.769 36.2927 111.938 38.7371L74.2846 148.595C73.4533 151.039 70.4321 151.949 68.3842 150.353V150.332Z" fill="white" stroke="#553835" stroke-width="3.14034" stroke-linecap="round" stroke-linejoin="round"/>
<path d="M72.865 152.757C59.8273 148.332 58.3471 118.272 69.5397 85.6257C80.7322 52.9794 100.36 30.1108 113.397 34.5553" fill="white"/>
<path d="M72.865 152.757C59.8273 148.332 58.3471 118.272 69.5397 85.6257C80.7322 52.9794 100.36 30.1108 113.397 34.5553" stroke="#553835" stroke-width="3.14034" stroke-linecap="round" stroke-linejoin="round"/>
<path d="M116.697 101.695C127.89 69.0486 126.406 38.9906 113.382 34.558C100.358 30.1254 80.7265 52.9969 69.5337 85.6428C58.3408 118.289 59.8252 148.347 72.849 152.779C85.8728 157.212 105.504 134.34 116.697 101.695Z" fill="white" stroke="#553835" stroke-width="3.14034" stroke-linecap="round" stroke-linejoin="round"/>
<path d="M110.223 99.4897C119.599 72.144 119.958 47.5112 111.024 44.4708C102.091 41.4304 87.2486 61.1337 77.873 88.4794C68.4973 115.825 68.1388 140.458 77.0722 143.498C86.0055 146.539 100.848 126.835 110.223 99.4897Z" fill="#553835" stroke="#553835" stroke-width="3.14034" stroke-linecap="round" stroke-linejoin="round"/>
<g style="mix-blend-mode:darken">
<path d="M47.1349 133.928L27.8116 118.979C27.9535 105.181 31.0355 89.3428 36.206 74.2924C41.3764 59.242 48.6354 44.8178 57.0095 33.8078L81.483 33.7674C73.7172 39.2623 61.815 54.0097 52.9339 79.9691C44.0326 105.929 44.3976 124.838 47.1552 133.908L47.1349 133.928Z" fill="#D87686"/>
<path d="M18.6669 111.908L0.357422 97.7468C0.945435 87.1812 3.37859 75.5247 7.21082 64.4136C11.0228 53.2824 16.2338 42.5956 22.2558 33.8684L45.4317 33.828C44.1137 34.9189 42.593 36.3936 40.8898 38.3936C34.4419 45.9087 28.2576 57.4844 23.9185 70.1106C19.5997 82.7368 17.3895 95.6458 17.8762 105.525C18.0181 108.131 18.302 110.232 18.6669 111.908Z" fill="#D87686"/>
<path d="M-9.57846 90.07L-26.9553 76.6358C-26.1442 69.6055 -24.4004 62.05 -21.8051 54.5349C-19.23 47.0198 -15.9858 39.9693 -12.3158 33.9087L9.68404 33.8683C5.36518 38.3128 -0.535221 46.9188 -5.09739 60.2116C-9.65956 73.5045 -10.2679 83.9084 -9.55818 90.0498L-9.57846 90.07Z" fill="#D87686"/>
</g>
<path d="M92.8575 117.019C93.9118 117.767 118.588 135.868 117.372 166.837L104.273 166.332C105.206 142.494 85.3552 127.747 85.1727 127.605L92.8575 117.019Z" fill="#FFC600" stroke="#553835" stroke-width="3.14034" stroke-linecap="round" stroke-linejoin="round"/>
<path d="M118.406 44.939C118.954 44.2926 119.542 43.6865 120.19 43.1613C122.36 41.2825 125.3 40.5956 128.159 41.3431C131.606 42.232 134.708 45.1815 136.026 48.838C139.149 56.8178 137.446 66.7167 132.235 73.5045C139.392 78.0904 146.813 75.0601 150.24 73.1409C154.194 70.9187 157.742 67.545 160.398 63.5652C155.613 60.5551 151.639 56.1915 149.287 51.2824C146.651 46.3734 145.374 38.3734 148.01 32.4341C149.551 28.9593 152.328 26.5755 155.836 25.727C162.223 24.3735 168.245 29.727 170.78 35.4845C174.511 43.3835 174.45 51.6865 171.936 59.1612C174.511 59.5652 177.147 59.3026 179.661 58.2117C191.097 52.9794 196.125 39.1815 195.923 28.5755C195.841 22.2725 192.577 16.3937 189.394 11.4847C188.136 9.52509 188.704 6.93925 190.651 5.66653C192.617 4.41401 195.213 4.97966 196.49 6.91905C200.322 12.8382 204.236 20.0301 204.357 28.4341C204.601 42.1108 198.133 58.9996 183.108 65.8682C178.181 68.0096 173.051 68.1914 168.266 66.9591C164.778 72.6156 159.871 77.3631 154.397 80.4338C146.063 85.1004 134.972 86.5348 125.625 79.1004C119.947 81.9085 113.722 80.8378 107.781 79.1611C105.531 78.5348 104.233 76.2116 104.862 73.9692C105.49 71.7268 107.822 70.4338 110.073 71.0601C113.763 72.1106 116.825 72.6762 119.379 72.3126C119.197 72.0702 119.035 71.8076 118.852 71.5449C118.812 71.4843 118.771 71.4035 118.731 71.3429C116.622 67.6864 115.284 63.4844 114.898 59.2218C114.412 53.1814 115.628 48.2925 118.426 44.9188L118.406 44.939ZM126.233 67.444C129.193 62.9995 130.106 56.7571 128.139 51.7673C127.672 50.5148 126.719 49.6259 126.03 49.4643C125.848 49.4239 125.807 49.4239 125.625 49.5653C123.739 51.1006 122.928 54.3329 123.272 58.5147C123.556 61.4844 124.469 64.4541 125.949 67.0601C126.03 67.2015 126.131 67.3227 126.213 67.444H126.233ZM164.048 55.9087C165.751 50.434 165.711 44.4946 163.115 39.0401C163.095 38.9997 163.075 38.9593 163.055 38.8987C161.797 36.0098 158.979 33.6664 157.702 33.929C157.154 34.0704 156.343 34.4138 155.715 35.828C154.295 39.0199 155.106 44.3532 156.749 47.3431C156.789 47.4239 156.83 47.4845 156.85 47.5653C158.391 50.7976 160.966 53.7673 164.048 55.9087Z" fill="white" stroke="#553835" stroke-width="3.14034" stroke-linecap="round" stroke-linejoin="round"/>
<path d="M132.518 147.342C131.241 144.736 132.315 141.585 134.931 140.312C137.547 139.039 140.71 140.11 141.987 142.716C143.264 145.322 142.19 148.474 139.574 149.747C136.959 151.019 133.795 149.949 132.518 147.342Z" fill="#57C8FD" stroke="#553835" stroke-width="3.14034" stroke-linecap="round" stroke-linejoin="round"/>
<path d="M141.067 205.489L149.996 199.14L143.625 190.244L134.695 196.592L141.067 205.489Z" fill="#D87686" stroke="#553835" stroke-width="3.14034" stroke-linecap="round" stroke-linejoin="round"/>
<path d="M76.231 93.5852C76.7379 91.8882 77.3056 90.1913 77.8936 88.4741C79.3535 84.1913 80.9554 80.1105 82.6586 76.2519C91.0935 79.2216 96.6898 84.2721 95.7165 88.5347C94.6419 93.1609 86.1867 95.2619 76.2513 93.5852H76.231Z" fill="#B28DFF" stroke="#553835" stroke-width="3.14034" stroke-linecap="round" stroke-linejoin="round"/>
<path d="M223.519 68.656C239.354 72.3126 244.606 60.8581 245.153 59.545L255.19 63.5248C252.25 70.9793 241.341 83.8277 221.085 79.1408L223.519 68.656Z" fill="#7AE26F" stroke="#553835" stroke-width="3.14034" stroke-linecap="round" stroke-linejoin="round"/>
<path d="M1238.05 313.794C1227.01 314.007 1216.96 310.172 1208.56 302.425C1201.29 295.724 1197.25 287.957 1195.5 283.928L1195.46 283.851C1193.94 280.558 1195.36 276.646 1198.67 275.077C1201.99 273.508 1205.98 274.922 1207.55 278.234C1207.59 278.312 1207.65 278.428 1207.73 278.641C1218.73 303.839 1239.67 300.914 1245.83 299.423C1249.41 298.551 1253.02 300.74 1253.9 304.304C1254.77 307.867 1252.57 311.47 1249 312.341C1245.26 313.252 1241.61 313.736 1238.05 313.813V313.794Z" fill="#FFC600" stroke="#553835" stroke-width="3.97623" stroke-linecap="round" stroke-linejoin="round"/>
<path d="M1278.08 349.528C1249.23 349.528 1224.85 328.01 1221.39 299.481C1221.26 298.416 1221.16 297.351 1221.08 296.247C1220.95 294.232 1220.93 292.237 1221 290.301C1222.13 261.074 1245.09 237.619 1274.42 235.721C1275.69 235.644 1276.93 235.605 1278.18 235.605C1308.19 235.605 1333.23 259.002 1335.17 288.887C1337.21 320.224 1313.28 347.378 1281.83 349.412C1280.57 349.489 1279.32 349.528 1278.08 349.528Z" fill="#FFC600"/>
<path d="M1278.18 237.058C1307.3 237.058 1331.81 259.622 1333.71 288.984C1335.7 319.585 1312.43 345.984 1281.73 347.959C1280.51 348.037 1279.28 348.075 1278.08 348.075C1250.01 348.075 1226.21 327.119 1222.83 299.307C1222.71 298.261 1222.6 297.215 1222.54 296.169C1222.4 294.213 1222.38 292.276 1222.46 290.378C1223.55 262.314 1245.77 239.033 1274.52 237.193C1275.75 237.116 1276.97 237.077 1278.18 237.077M1278.18 234.172C1276.89 234.172 1275.61 234.211 1274.33 234.288C1244.25 236.225 1220.69 260.299 1219.55 290.262C1219.47 292.237 1219.49 294.29 1219.62 296.363C1219.7 297.428 1219.8 298.513 1219.93 299.675C1223.49 328.94 1248.49 351 1278.08 351C1279.36 351 1280.64 350.961 1281.93 350.884C1314.2 348.792 1338.73 320.96 1336.63 288.809C1334.63 258.169 1308.97 234.172 1278.18 234.172Z" fill="#553835"/>
<path d="M1343.41 231.19L1342.5 234.251L1340.3 241.552L1336.69 253.638L1335.23 258.48L1331.54 270.817L1330.66 273.761C1325.69 279.398 1312.74 276.163 1301.74 266.537C1290.73 256.892 1285.85 244.516 1290.81 238.88L1293.98 237.621L1305.88 232.875L1312.06 230.416L1323.72 225.767L1330.33 223.133L1333.27 221.952C1339.22 219.57 1345.28 225.089 1343.43 231.21L1343.41 231.19Z" fill="white" stroke="#553835" stroke-width="3.97623" stroke-linecap="round" stroke-linejoin="round"/>
<g style="mix-blend-mode:darken">
<path d="M1335.23 258.479L1331.54 270.816C1324.34 270.042 1316.02 266.149 1308.37 259.428C1300.55 252.591 1295.57 244.708 1293.96 237.6L1305.86 232.855C1305.88 236.128 1308.64 243.081 1316.63 250.054C1324.69 257.123 1332.04 258.924 1335.25 258.459L1335.23 258.479Z" fill="#57C8FD"/>
</g>
<g style="mix-blend-mode:darken">
<path d="M1340.3 241.532L1336.69 253.617C1332.41 251.681 1328.06 248.872 1323.88 245.212C1318.57 240.563 1314.57 235.431 1312.04 230.376L1323.7 225.727C1325.39 228.768 1328.1 232.313 1332.14 235.857C1335.02 238.375 1337.8 240.215 1340.32 241.532H1340.3Z" fill="#57C8FD"/>
</g>
<g style="mix-blend-mode:darken">
<path d="M1343.41 231.189L1342.5 234.249C1340.62 232.971 1338.73 231.518 1336.9 229.911C1334.41 227.722 1332.2 225.437 1330.29 223.093L1333.23 221.912C1339.18 219.529 1345.24 225.049 1343.4 231.17L1343.41 231.189Z" fill="#57C8FD"/>
</g>
<path d="M1236.52 286.059C1236.03 281.062 1237.99 276.801 1240.89 276.53C1243.79 276.259 1246.53 280.074 1247 285.052" stroke="#553835" stroke-width="3.97623" stroke-linecap="round" stroke-linejoin="round"/>
<path d="M1258.08 284.664C1257.59 279.667 1259.55 275.406 1262.45 275.135C1265.35 274.864 1268.09 278.68 1268.55 283.657" stroke="#553835" stroke-width="3.97623" stroke-linecap="round" stroke-linejoin="round"/>
<path d="M1251.21 294.31C1248.26 294.503 1246.04 297.041 1246.22 299.965C1246.33 301.786 1247.34 303.316 1248.8 304.187C1247.48 305.233 1246.66 306.899 1246.78 308.7C1246.98 311.644 1249.52 313.852 1252.46 313.678" fill="#FFC600"/>
<path d="M1251.21 294.31C1248.26 294.503 1246.04 297.041 1246.22 299.965C1246.33 301.786 1247.34 303.316 1248.8 304.187C1247.48 305.233 1246.66 306.899 1246.78 308.7C1246.98 311.644 1249.52 313.852 1252.46 313.678" stroke="#553835" stroke-width="3.97623" stroke-linecap="round" stroke-linejoin="round"/>
<path d="M1285.8 290.804C1286.01 294.019 1281.89 296.886 1276.62 297.234C1271.35 297.583 1266.9 295.259 1266.69 292.044C1266.47 288.829 1270.59 285.962 1275.86 285.613C1281.13 285.265 1285.58 287.589 1285.8 290.804Z" fill="#FF9C92"/>
<path d="M1238.3 293.884C1238.52 297.099 1234.4 299.965 1229.13 300.314C1226.76 300.469 1224.56 300.081 1222.83 299.307C1222.71 298.261 1222.6 297.215 1222.54 296.169C1222.4 294.213 1222.38 292.276 1222.46 290.378C1224.06 289.468 1226.1 288.848 1228.37 288.693C1233.64 288.344 1238.09 290.688 1238.3 293.884Z" fill="#FF9C92"/>
<path d="M1313.11 300.236C1319.27 301.747 1340.21 304.691 1351.23 279.493C1351.31 279.299 1351.38 279.164 1351.4 279.086C1353 275.774 1356.96 274.36 1360.29 275.949C1363.59 277.517 1364.99 281.43 1363.48 284.722L1363.44 284.8C1361.67 288.828 1357.62 296.576 1350.35 303.277C1342.4 310.579 1332.97 314.414 1322.61 314.607C1318.51 314.685 1314.27 314.201 1309.92 313.135" fill="#FFC600"/>
<path d="M1313.11 300.236C1319.27 301.747 1340.21 304.691 1351.23 279.493C1351.31 279.299 1351.38 279.164 1351.4 279.086C1353 275.774 1356.96 274.36 1360.29 275.949C1363.59 277.517 1364.99 281.43 1363.48 284.722L1363.44 284.8C1361.67 288.828 1357.62 296.576 1350.35 303.277C1342.4 310.579 1332.97 314.414 1322.61 314.607C1318.51 314.685 1314.27 314.201 1309.92 313.135" stroke="#553835" stroke-width="3.97623" stroke-linecap="round" stroke-linejoin="round"/>
<path d="M1202.05 198.593C1196.57 200.123 1192.6 204.21 1190.97 209.129C1186.62 206.301 1180.96 205.585 1175.71 207.812C1167.78 211.182 1164.11 220.382 1166.96 228.478C1170.01 237.135 1176.64 244.088 1185.18 247.575L1207.81 256.833L1219.64 235.508C1224.11 227.471 1224.91 217.922 1221.86 209.245C1219 201.13 1210.35 196.269 1202.05 198.573V198.593Z" fill="url(#paint0_linear_149_3255)" stroke="#553835" stroke-width="3.97623" stroke-linecap="round" stroke-linejoin="round"/>
<path d="M147.33 319.321C144.806 313.686 141.817 308.978 137.832 305.033C133.881 301.088 129.132 298.105 123.52 295.552C129.165 292.999 133.881 290.016 137.832 286.071C141.784 282.126 144.773 277.385 147.33 271.783C149.853 277.418 152.842 282.126 156.827 286.071C160.779 290.016 165.527 292.999 171.173 295.552C165.527 298.071 160.812 301.055 156.827 305.033C152.875 308.978 149.887 313.686 147.33 319.321Z" fill="white"/>
<path d="M901.936 381.591C905.688 369.192 912.695 357.457 922.026 346.616C940.722 324.969 968.849 306.537 1002.79 295L1011.69 321.156C989.371 328.715 970.111 339.754 955.732 352.053C941.287 364.319 931.922 377.878 928.435 389.613C926.078 397.503 926.111 404.333 928.236 410.731L902.035 419.615C902.035 419.615 902.035 419.549 902.035 419.516C897.818 407.117 898.183 393.956 901.969 381.624L901.936 381.591Z" fill="white"/>
<path d="M264.534 -17.1288C250.255 -17.1288 238.666 -5.59219 238.666 8.69596C238.666 22.9841 250.222 34.5207 264.534 34.5207C278.847 34.5207 290.403 22.9841 290.403 8.69596C290.403 -5.59219 278.814 -17.1288 264.534 -17.1288ZM264.534 17.2821C259.786 17.2821 255.934 13.4366 255.934 8.69596C255.934 3.95535 259.786 0.0766602 264.534 0.0766602C269.283 0.0766602 273.168 3.92219 273.168 8.69596C273.168 13.4697 269.316 17.2821 264.534 17.2821Z" fill="#FFFCBA"/>
<path d="M1163.79 43L1129 72.2664L1143.66 89.6315L1178.45 60.3652L1163.79 43Z" fill="#57C8FD"/>
<path d="M55.2191 216L37 229.597L64.2394 265.973L82.4584 252.376L55.2191 216Z" fill="#00AE29"/>
<path d="M699.589 45.0661L688.697 53.5528L675.912 49.5084C670.765 48.3812 668.008 51.2654 669.37 56.3375L673.953 68.9349L665.95 80.14C663.492 84.7812 665.916 88.2289 671.927 88.03C672.458 88.03 684.081 87.6985 684.081 87.6985L691.486 97.7101C695.371 102.55 699.888 101.622 701.681 95.4227C701.847 94.8591 705.101 83.9524 705.101 83.9524C705.101 83.9524 715.894 80.2395 716.458 80.0406C722.568 77.9852 723.332 73.4435 718.318 69.7969L707.99 62.8351C707.99 62.8351 707.791 51.2322 707.791 50.7018C707.724 44.7014 704.205 42.4472 699.655 45.0993L699.589 45.0661Z" fill="#FFE25C"/>
<path d="M1131.59 337.066L1120.7 345.553L1107.91 341.508C1102.76 340.381 1100.01 343.265 1101.37 348.337L1105.95 360.935L1097.95 372.14C1095.49 376.781 1097.92 380.229 1103.93 380.03C1104.46 380.03 1116.08 379.698 1116.08 379.698L1123.49 389.71C1127.37 394.55 1131.89 393.622 1133.68 387.423C1133.85 386.859 1137.1 375.952 1137.1 375.952C1137.1 375.952 1147.89 372.239 1148.46 372.041C1154.57 369.985 1155.33 365.443 1150.32 361.797L1139.99 354.835C1139.99 354.835 1139.79 343.232 1139.79 342.702C1139.72 336.701 1136.2 334.447 1131.66 337.099L1131.59 337.066Z" fill="#FFE25C"/>
<path d="M333.759 324.977L334.689 340.525L322.734 349.84C318.384 353.918 319.314 358.294 324.892 360.316L339.57 364.128L344.883 378.748C347.639 383.986 352.421 383.953 356.074 378.251C356.406 377.753 363.546 366.747 363.546 366.747L377.626 366.25C384.633 365.753 386.625 360.946 382.009 355.31C381.577 354.813 373.508 344.768 373.508 344.768C373.508 344.768 376.962 332.336 377.128 331.706C379.153 324.711 375.401 321.098 368.759 323.419L355.676 328.557C355.676 328.557 344.717 321.297 344.219 320.965C338.607 317.186 334.224 319.043 333.759 324.944V324.977Z" fill="#FFE25C"/>
<path d="M801.66 36.4146L797.512 43.0431L790.001 43.3382C787.064 43.7241 786.167 45.7899 787.826 48.2642L792.624 54.1209L790.517 61.6574C790.113 64.6085 792.019 65.9932 795.158 64.7447C795.427 64.6312 801.503 62.2476 801.503 62.2476L807.31 66.1748C810.27 68.0363 812.489 66.6515 812.243 62.9968C812.243 62.6563 811.884 56.1866 811.884 56.1866C811.884 56.1866 816.884 52.1233 817.13 51.919C819.978 49.6489 819.507 47.0611 816.166 46.0623L809.395 44.3143C809.395 44.3143 807.086 38.1398 806.996 37.8447C805.83 34.644 803.543 34.1219 801.638 36.3919L801.66 36.4146Z" fill="#FFE25C"/>
<path d="M567 56.2161C566.781 55.8546 563.44 50.553 557.345 44.0946C551.25 37.6363 542.424 29.9007 530.746 25.1051C522.993 21.9241 513.85 20.165 504 21.394L506.341 39.8292C512.387 39.0822 517.873 40.0461 523.066 42.0703C528.259 44.0946 533.086 47.2515 537.182 50.6976C545.423 57.5415 550.689 65.4698 551.006 66L566.976 56.2161H567Z" fill="white"/>
<path d="M1308.64 66.9048C1313.35 66.9048 1317.17 63.0904 1317.17 58.385C1317.17 53.6796 1313.35 49.8651 1308.64 49.8651C1303.92 49.8651 1300.1 53.6796 1300.1 58.385C1300.1 63.0904 1303.92 66.9048 1308.64 66.9048Z" fill="#FFFF57"/>
<path d="M1159.77 311.851C1164.48 311.851 1168.3 308.037 1168.3 303.332C1168.3 298.626 1164.48 294.812 1159.77 294.812C1155.06 294.812 1151.24 298.626 1151.24 303.332C1151.24 308.037 1155.06 311.851 1159.77 311.851Z" fill="#FFFF57"/>
<path d="M375.534 52.0397C380.248 52.0397 384.069 48.2252 384.069 43.5199C384.069 38.8145 380.248 35 375.534 35C370.821 35 367 38.8145 367 43.5199C367 48.2252 370.821 52.0397 375.534 52.0397Z" fill="white"/>
<path d="M1387.53 136.04C1392.25 136.04 1396.07 132.225 1396.07 127.52C1396.07 122.814 1392.25 119 1387.53 119C1382.82 119 1379 122.814 1379 127.52C1379 132.225 1382.82 136.04 1387.53 136.04Z" fill="white"/>
<path d="M615.534 330.04C620.248 330.04 624.069 326.225 624.069 321.52C624.069 316.814 620.248 313 615.534 313C610.821 313 607 316.814 607 321.52C607 326.225 610.821 330.04 615.534 330.04Z" fill="white"/>
</g>
<defs>
<linearGradient id="paint0_linear_149_3255" x1="1170.93" y1="239.5" x2="1225.77" y2="220.148" gradientUnits="userSpaceOnUse">
<stop stop-color="#FFB9B9"/>
<stop offset="1" stop-color="#FF9F9F"/>
</linearGradient>
<clipPath id="clip0_149_3255">
<rect width="1460" height="367" fill="white"/>
</clipPath>
<clipPath id="clip1_149_3255">
<rect width="507.279" height="119.108" fill="white" transform="translate(683.721 129.397)"/>
</clipPath>
</defs>
</svg>
