<?xml version="1.0" encoding="UTF-8"?>
<svg xmlns="http://www.w3.org/2000/svg" xmlns:xlink="http://www.w3.org/1999/xlink" version="1.1" viewBox="0 0 348.5 344">
  <defs>
    <style>
      .cls-1 {
        mask: url(#mask);
      }

      .cls-2, .cls-3, .cls-4 {
        stroke-linecap: round;
      }

      .cls-2, .cls-3, .cls-4, .cls-5, .cls-6 {
        stroke: #046490;
        stroke-linejoin: round;
        stroke-width: .8px;
      }

      .cls-2, .cls-6 {
        fill: #ff5b4e;
      }

      .cls-3, .cls-5 {
        fill: #ffbe4e;
      }

      .cls-4 {
        fill: none;
      }

      .cls-7 {
        fill: #fff;
      }

      .cls-8 {
        fill: #046490;
      }
    </style>
    <mask id="mask" x="49.8" y="88" width="208.4" height="128.9" maskUnits="userSpaceOnUse">
      <g id="mask0_643_5054">
        <path class="cls-7" d="M258,88.3H50.1v128.7h207.9V88.3Z"/>
      </g>
    </mask>
  </defs>
  <!-- Generator: Adobe Illustrator 28.6.0, SVG Export Plug-In . SVG Version: 1.2.0 Build 709)  -->
  <g>
    <g id="_레이어_1" data-name="레이어_1">
      <g class="cls-1">
        <g>
          <path class="cls-8" d="M64.2,145.6c5.4-1.6,10.7-3.1,16.1-4.5.4,1.6.8,3.3,1.2,4.9.7-.2,1.4-.3,2.1-.5-.4-1.6-.8-3.3-1.2-4.9,5.4-1.3,10.9-2.5,16.3-3.5,1.6,8.8,3.2,17.5,4.8,26.3-8.9,1.6-17.7,3.7-26.5,6.2-3.5,1-5.5.1-6.5-3.1-2.1-7-4.3-14-6.4-21ZM90.5,167.8c.8,3.4,4.4,4.8,10.4,3.8,7.4-1.3,16.6-3.1,22.3-5.9.5,4.1.9,8.2,1.4,12.3-6.4,2.5-13.8,4.3-22.6,6.1-16.4,3.4-26.4,2.1-28.6-11.6,5.6-1.7,11.3-3.2,17.1-4.6ZM101.3,136.7c6.1-1.1,12.3-1.9,18.5-2.6,1.1,9.9,2.2,19.8,3.3,29.7-4,2-11.6,4.4-16.2,4.9-1.9-10.7-3.7-21.3-5.6-32Z"/>
          <path class="cls-8" d="M126.3,151.9c4-.4,9-.7,12.6-1.9,0-.5,0-1,0-1.4-3.3,1-8.9,1.6-12.6,1.9-.2-2.3-.4-4.5-.6-6.8,3.7-.4,9.4-.8,12.9-1.7,0-.5,0-1,0-1.4-3.7.8-9.1,1.3-13,1.7-.3-2.9-.5-5.7-.8-8.6,11.1-1.1,22.2-1.5,33.4-1.3,0,2,0,4,0,6-.4,13.7-9.4,20.3-30.8,21.2-.2-2.5-.5-5-.7-7.6h0ZM145.7,159.5c.1,4.6,3.3,6.7,9.4,6.9,7.5.3,14.5.2,20.6-1.5-.3,4.1-.7,8.2-1,12.3-6.8,1.3-12.1,1.7-21.1,1.6-16.6,0-26.1-3.3-25.5-18.3,5.8-.5,11.7-.9,17.6-1ZM160.5,132.3c6,.1,12,.5,17.9,1-.2,2.3-.4,4.6-.6,6.9,1.6.1,3.3.3,4.9.5-.4,4.4-.9,8.7-1.3,13.1-1.6-.2-3.1-.3-4.7-.4-.3,3.3-.5,6.5-.8,9.8-4.3,1.2-11.6,2.1-16.2,1.7.3-10.8.5-21.7.8-32.5Z"/>
          <path class="cls-8" d="M184.4,141.7c.6-6.3,10.2-7.9,29.6-4.1,19.4,4.1,27.7,9.4,25.7,15.5-2,6.3-11,5.2-29.2,1.4-18.2-3.6-26.8-6.2-26.1-12.8ZM234.1,169.4c-16.7-5.1-33.8-8.6-51-10.5.3-2.6.6-5.2.8-7.8,17.7,1.9,35.2,5.5,52.4,10.8-.8,2.5-1.5,5-2.3,7.5ZM199.9,183.3c-13.3-2.4-18.8-5.7-18.1-12.2,0-.7.1-1.3.2-2,6.7.8,10.5.9,17.2.9,0-.5.2-1,.3-1.5-6.8,0-10.6-.2-17.3-.9.3-2.4.5-4.9.8-7.3,17.1,1.9,34.1,5.3,50.7,10.4-.7,2.3-1.4,4.7-2.1,7-5.3,0-11.6-.9-17.3-2.2-.1.5-.2,1-.3,1.5,5.7,1.3,11.9,2.2,17.2,2.2-.8,2.7-1.6,5.4-2.5,8.1-7.6-.3-16.8-1.7-28.8-3.9Z"/>
          <path class="cls-8" d="M57.2,105.9c5.1-1.4,9-.4,10,3.6.8,3.4-2,6.3-6.9,7.7-4.9,1.4-8.7.6-9.8-2.9-1.2-3.8,1.6-6.8,6.7-8.3ZM57.6,127.3c-.4-1.3-.8-2.6-1.1-3.8-.8.2-1.6.5-2.4.7-.4-1.4-.9-2.8-1.3-4.2,6-1.8,9.3-2.7,15.8-4.8.4,1.4.7,2.8,1.1,4.2-1.4.4-2.7.8-3.9,1.2.4,1.3.7,2.7,1.1,4-3.1.8-6.1,1.7-9.2,2.6ZM55.4,128.7c3.8-1.2,7.7-2.3,11.5-3.3.1.4.2.8.3,1.2,3.6-1,7.2-1.9,10.8-2.7,0-.4-.2-.8-.3-1.3,3.9-.9,7.8-1.7,11.7-2.5.7,3.8,1.5,7.5,2.2,11.3-9.9,1.9-19.8,4.3-29.6,7.2-2.3.7-3.6,0-4.3-2.2-.8-2.6-1.6-5.2-2.4-7.8ZM67.2,121.1c2.1-.6,4.5-1.3,6.2-1.9,0-.3-.1-.6-.2-.9-.8.2-1.6.5-2.4.8-1.3-5-2.5-10.1-3.8-15.1,2.9-.7,5.8-1.4,8.7-2.1,1.5,6.5,2.9,13,4.4,19.5-4,.9-8,1.9-12,2.9-.3-1.1-.6-2.1-.8-3.2ZM81,121.2c-1.4-6.5-2.9-13-4.3-19.5,2.9-.6,5.8-1.2,8.8-1.8,1.3,6.5,2.5,13.1,3.8,19.6-2.8.5-5.5,1.1-8.3,1.7Z"/>
          <path class="cls-8" d="M90,106.7c-.5-2.5-.9-5-1.4-7.4,7.4-1.4,14.8-2.5,22.2-3.4.3,2.5.6,5,.9,7.5-1.4.2-2.7.3-4.1.5,0,0,0,.2,0,.3.3,2.2,2,2.8,4.5,2.5.3,2.4.6,4.8.9,7.1-4.6.6-9,.4-13.4-2.6-.3.3-.5.6-.8.8.6.6,1.5,1.2,2.5,1.6-2.6,1.7-5.9,2.8-9.4,3.4-.4-2.4-.9-4.7-1.3-7.1,2.3-.4,3.9-1.5,3.5-3.7,0,0,0-.2,0-.3-1.4.2-2.7.5-4.1.7ZM92.3,118c3.9-.7,7.9-1.4,11.9-2,.5,3.2,3.2,4.3,7.4,4,5.1-.5,11.6-1.5,15.5-3.3.2,2.9.5,5.8.7,8.6-4.6,1.6-9.8,2.6-16,3.5-11.6,1.5-18.9-.2-19.4-10.8ZM114.6,118.4c-.9-7.6-1.8-15.1-2.7-22.7,4.5-.5,9-1,13.4-1.3.6,7,1.1,14,1.7,21-2.8,1.3-9.3,2.8-12.4,3Z"/>
          <path class="cls-8" d="M128.5,99.6c-.3-4.5,5.6-6.6,18.5-6.9,12.9-.2,18.9,1.7,18.7,6.2-.2,4.6-6.1,5.7-18.5,5.9-12.4.3-18.4-.6-18.7-5.2ZM164.9,111.1c-11.7-.4-23.5-.2-35.2.6-.1-1.8-.3-3.7-.4-5.5,11.9-.8,23.8-1,35.7-.6,0,1.8-.1,3.7-.2,5.5ZM144.3,126.2c-9.4.3-13.7-1.4-14-5.9,0-.5,0-.9,0-1.4,4.6-.3,7.2-.7,11.7-1.7,0-.3,0-.7,0-1.1-4.5,1-7.1,1.4-11.8,1.7-.1-1.7-.2-3.4-.4-5.2,11.7-.8,23.4-1,35.1-.6,0,1.7-.1,3.4-.2,5.1-3.5,1-7.8,1.5-11.8,1.5v1.1c4,0,8.3-.5,11.8-1.5,0,2-.1,3.9-.2,5.9-5.2,1.2-11.6,1.9-20.1,2.1Z"/>
          <path class="cls-8" d="M193.3,94.9c8.3,1,11.6,4.5,10.9,9.1-.7,4.5-4.7,7.1-12.6,6.2-7.8-.9-11.2-4.2-10.9-8.8.3-4.6,4.3-7.3,12.6-6.4ZM179.7,119.4c0-1,.2-2,.2-3,2.8.2,5.1.2,7.7,0,0-.3,0-.6,0-.9-2.6.2-4.9.2-7.7,0,.2-1.9.3-3.8.5-5.7,6,.5,12,1.1,18,1.9-.4,2.9-.8,5.7-1.2,8.6-1.8.4-3.6.4-6,.2,0,.3,0,.6-.1.9,3,.4,5.5.5,8.7-.2-.3,2.2-.6,4.5-1,6.7-2.8.7-6.4.5-10.7,0-5.5-.6-8.9-3.9-8.5-8.6ZM199.8,111.9c5.3.7,10.6,1.6,15.8,2.6-1,5.5-2,11-3.1,16.5-3.8-.7-7.6-1.3-11.3-1.9.5-3.1.9-6.1,1.4-9.2-1.3-.2-2.5-.4-3.8-.5.3-2.5.7-4.9,1-7.4ZM203.9,111.5c.7-4.8,1.4-9.5,2.1-14.3,4.2.6,8.3,1.3,12.5,2.1-.9,4.7-1.8,9.5-2.7,14.2-4-.7-8-1.4-12-2Z"/>
          <path class="cls-8" d="M251.2,130.3c-4.6-1.4-9.2-2.7-13.8-3.9,1.1-4.4,2.3-8.8,3.4-13.2-6.9-1.8-13.9-3.4-20.9-4.8.6-2.8,1.1-5.7,1.7-8.5,12.2,2.4,24.2,5.4,36.2,9.1-2.2,7.1-4.4,14.2-6.6,21.3ZM248.3,139.8c-10.8-3.3-21.8-6.1-32.9-8.3.6-2.8,1.1-5.7,1.7-8.5,1.1.2,2.1.4,3.2.6.8-3.9,1.6-7.8,2.4-11.7,4.8,1,9.6,2.1,14.4,3.3-1,3.9-1.9,7.7-2.9,11.6,5.6,1.4,11.1,3,16.6,4.7-.8,2.8-1.7,5.5-2.6,8.3Z"/>
          <path class="cls-8" d="M83.5,194.8c5-1.5,10.1-2.9,15.2-4.1.9,3.8,1.8,7.6,2.7,11.3-4,.9-8,2-12,3.2-1.7.5-2.7,0-3.2-1.5-.9-2.9-1.8-5.9-2.7-8.8ZM87.1,206.6c7.7-2.4,15.4-4.3,23.3-5.8l.9,4.6c-2,.4-4,.8-6,1.2.9.6,2.6.4,6.2-.3.3,1.5.6,3.1.9,4.6-6.9,1.4-8.9,1.5-13.6.4-.2.2-.4.4-.6.7.8.3,1.7.5,2.7.6-2.9,1.5-6.3,2.6-10.7,3.9-.5-1.5-.9-3-1.4-4.5,3.5-1.1,5.1-1.7,5.6-2.7-2,.5-3.9,1.1-5.8,1.7-.5-1.5-.9-3-1.4-4.4ZM102.4,201.7c-.9-3.8-1.7-7.6-2.6-11.3,2.7-.6,5.5-1.2,8.2-1.8.2.8.3,1.5.4,2.3.8-.1,1.5-.3,2.3-.4.4,2.1.8,4.3,1.2,6.4-.8.1-1.5.3-2.2.4.2.9.3,1.8.5,2.7-2.6.5-5.2,1.1-7.8,1.7Z"/>
          <path class="cls-8" d="M137.7,184.8c.5,7.6,1,15.2,1.5,22.8-2.7.2-5.4.4-8.1.7-.1-1.1-.2-2.3-.4-3.4-.6,0-1.2.1-1.8.2-.8,2.6-3,4.2-6.3,4.7-4.7.7-7.8-1.4-8.7-6.5-.9-5.1,1.4-8.3,6.5-9,4-.6,6.9.8,8.1,4,.5,0,1-.1,1.5-.2,0-.6-.1-1.2-.2-1.8-.6,0-1.3.1-1.9.2-.1-1.2-.3-2.5-.4-3.7-5,.6-10.1,1.3-15.1,2.2-.4-2-.7-4.1-1.1-6.1.7-.1,1.5-.3,2.2-.4.4.9,2.1,1.8,3.4,1.6.1-.2.2-.4.3-.6-1.7,0-3-.8-3.2-1.7,0-.4-.1-.8-.2-1.2,3.5-.6,6.9-1.1,10.4-1.5,0,.6.2,1.2.2,1.8,1-.1,1.9-.2,2.9-.3.1,1,.2,2,.3,3.1.5,0,.9-.1,1.4-.1-.1-1.3-.3-2.6-.4-3.9,3-.3,6-.6,9-.8h0Z"/>
          <path class="cls-8" d="M140.2,189.8c0-1.7-.2-3.5-.3-5.2,8.8-.5,17.6-.5,26.4,0,0,1.7-.2,3.5-.3,5.2-2.5-.1-4.9-.2-7.4-.3.8,1.5,3.1,2.1,7.3,2.3,0,1.7-.2,3.5-.3,5.2-7.3-.4-10.6-1-15-3.3-.3.2-.6.3-.9.5.7.5,1.6.9,2.5,1.3-3.3.9-6.8,1.2-11.6,1.5,0-1.7-.2-3.5-.3-5.2,4.2-.2,6.4-.8,7.2-2.3-2.5,0-4.9.2-7.4.3ZM157.4,207.1c-2.9,0-5.8,0-8.7,0,0-1.3,0-2.6,0-3.9-2.6,0-5.1.2-7.7.3-.1-2-.2-3.9-.3-5.9,8.3-.5,16.6-.5,24.9,0-.1,2-.2,3.9-.3,5.9-2.6-.1-5.1-.2-7.7-.3,0,1.3,0,2.6,0,3.9Z"/>
          <path class="cls-8" d="M166.5,207.5c.1-2.2.3-4.5.4-6.7,1-.4,2.2-1.6,2.4-4.2.3-3.9.6-7.8.8-11.6,2.5.2,5,.4,7.4.6-.4,3.9-.8,7.7-1.2,11.6-.3,2.7.5,4,1.6,4.6-.2,2.2-.5,4.5-.8,6.7-2.6-.3-4.5-2.1-5.8-3.8-.2.1-.4.3-.6.5.4.5,1.1,1.2,1.6,1.7-2,.7-4,.8-5.9.7ZM176.9,198.3c.3-2.5.5-5,.8-7.5.7,0,1.4.1,2.2.1.2-1.7.4-3.4.6-5.2,2.3.3,4.5.6,6.8.9-1.1,7.5-2.2,15-3.3,22.6-2-.3-4.1-.6-6.1-.8.4-3.3.8-6.7,1.2-10-.8,0-1.5,0-2.1-.1ZM190.7,210.4c-2-.4-4.1-.7-6.1-1,1.1-7.5,2.2-15,3.3-22.6,2.2.3,4.5.7,6.7,1.1-1.3,7.5-2.7,15-4,22.4Z"/>
          <path class="cls-8" d="M195.3,195.4c.8-4.4,5.8-6.8,14.7-4.7,8.8,2.2,12.2,6.7,10.9,11-.6,2-2.1,3.5-4.4,4.2-.4,1.3-.8,2.6-1.1,3.9.8.2,1.7.5,2.5.8-.6,2-1.2,3.9-1.8,5.9-7.7-2.4-15.5-4.3-23.3-5.7.4-2,.8-4,1.1-6.1.9.2,1.7.3,2.6.5.3-1.3.5-2.7.8-4-1.6-1.7-2.3-3.7-1.9-5.8Z"/>
          <path class="cls-6" d="M64.6,141.3c5.4-1.6,10.7-3.1,16.1-4.5.4,1.6.8,3.3,1.2,4.9.7-.2,1.4-.3,2.1-.5-.4-1.6-.8-3.3-1.2-4.9,5.4-1.3,10.9-2.5,16.3-3.4,1.6,8.8,3.2,17.5,4.8,26.3-8.9,1.6-17.8,3.7-26.5,6.2-3.5,1-5.5.1-6.5-3.1-2.1-7-4.3-14-6.4-21ZM90.9,163.5c.8,3.4,4.4,4.8,10.4,3.8,7.4-1.3,16.7-3.1,22.4-5.9.5,4.1.9,8.2,1.4,12.3-6.4,2.5-13.8,4.3-22.6,6.1-16.4,3.4-26.4,2.1-28.6-11.6,5.7-1.7,11.3-3.2,17.1-4.6ZM78.9,151.9c4.3.1,8.5-.3,13-1.3-.1-.5-.2-1.1-.3-1.6-4.2.9-8.2,1.2-12.3,1.1-.1.6-.3,1.2-.4,1.8ZM101.7,132.4c6.1-1.1,12.3-1.9,18.5-2.6,1.1,9.9,2.2,19.8,3.3,29.7-4,2-11.6,4.4-16.2,4.9-1.9-10.7-3.7-21.3-5.5-32Z"/>
          <path class="cls-6" d="M126.7,147.6c4-.4,9-.7,12.6-1.9,0-.5,0-1,0-1.4-3.3,1-8.9,1.6-12.6,1.9-.2-2.3-.4-4.5-.6-6.8,3.7-.4,9.4-.8,13-1.7,0-.5,0-1,0-1.4-3.7.8-9.1,1.3-13,1.7-.3-2.9-.5-5.7-.8-8.6,11.1-1.1,22.2-1.5,33.4-1.3,0,2,0,4,0,6-.4,13.7-9.4,20.3-30.8,21.2-.2-2.5-.5-5-.7-7.6ZM146,155.2c.1,4.6,3.3,6.7,9.4,6.9,7.5.3,14.5.2,20.7-1.5-.3,4.1-.7,8.2-1,12.3-6.8,1.3-12.1,1.7-21.1,1.6-16.6,0-26.1-3.3-25.5-18.3,5.8-.5,11.7-.9,17.6-1ZM160.9,128c6,.1,11.9.5,17.9,1-.2,2.3-.4,4.6-.6,6.9,1.6.1,3.3.3,4.9.5-.4,4.4-.9,8.7-1.3,13.1-1.6-.2-3.1-.3-4.7-.4-.3,3.3-.5,6.5-.8,9.8-4.3,1.2-11.6,2.1-16.2,1.7.3-10.8.5-21.6.8-32.5Z"/>
          <path class="cls-6" d="M184.8,137.3c.6-6.3,10.2-7.9,29.6-4.1,19.4,4.1,27.7,9.4,25.7,15.4-2,6.3-11,5.2-29.2,1.4-18.2-3.6-26.8-6.2-26.1-12.8ZM234.5,165.1c-16.7-5.1-33.8-8.6-51-10.5.3-2.6.6-5.2.8-7.8,17.7,1.9,35.3,5.5,52.4,10.8-.8,2.5-1.5,5-2.3,7.5ZM200.3,179c-13.3-2.4-18.8-5.7-18.1-12.2,0-.7.1-1.3.2-2,6.7.8,10.5.9,17.2.9,0-.5.2-1,.3-1.5-6.8,0-10.6-.2-17.3-.9.3-2.4.5-4.9.8-7.3,17.1,1.9,34.1,5.3,50.8,10.4-.7,2.3-1.4,4.7-2.1,7-5.3,0-11.6-.9-17.3-2.2-.1.5-.2,1-.3,1.5,5.7,1.3,11.9,2.2,17.2,2.2-.8,2.7-1.6,5.4-2.5,8.1-7.6-.3-16.8-1.7-28.8-3.9ZM206,138.6c-.3.5-.7,1-1,1.5,4.7,2.2,10.4,3.9,15.1,5,.1-.5.3-1.1.4-1.6-4.8-1.1-9.9-2.9-14.5-4.9Z"/>
          <path class="cls-5" d="M57.2,101.6c5.1-1.4,9-.4,10,3.6.8,3.4-2,6.3-6.9,7.7-4.9,1.4-8.7.6-9.8-3-1.2-3.8,1.6-6.8,6.7-8.3ZM57.5,122.9c-.4-1.3-.8-2.6-1.1-3.8-.8.2-1.6.5-2.4.7-.4-1.4-.9-2.8-1.3-4.2,6-1.8,9.3-2.7,15.8-4.7.4,1.4.7,2.8,1.1,4.2-1.4.4-2.7.8-3.9,1.2.4,1.3.7,2.7,1.1,4-3.1.8-6.1,1.7-9.2,2.6ZM55.3,124.4c3.8-1.2,7.7-2.3,11.5-3.3.1.4.2.8.3,1.2,3.6-1,7.2-1.9,10.8-2.7,0-.4-.2-.8-.3-1.3,3.9-.9,7.8-1.7,11.7-2.5.7,3.8,1.5,7.5,2.2,11.3-9.9,1.9-19.8,4.3-29.6,7.2-2.3.7-3.6,0-4.3-2.2-.8-2.6-1.6-5.2-2.4-7.8ZM54.4,108.2c2.6.3,5.9-.3,8.4-.9-.1-.4-.2-.8-.3-1.1-2.6.7-5.4,1-7.7.8-.1.4-.3.8-.5,1.2ZM69,126.8c3.3.1,6.9-.4,9.9-1.1,0-.4-.2-.8-.3-1.1-3,.7-6.3,1-9.5,1,0,.4,0,.8-.1,1.2ZM67.1,116.8c2.1-.6,4.5-1.3,6.2-1.9,0-.3-.1-.6-.2-.9-.8.2-1.6.5-2.4.8-1.3-5-2.5-10.1-3.8-15.1,2.9-.7,5.8-1.4,8.7-2.1,1.5,6.5,2.9,13,4.4,19.5-4,.9-8,1.9-12,2.9-.3-1.1-.6-2.1-.8-3.2ZM81,116.8c-1.4-6.5-2.9-13-4.3-19.5,2.9-.6,5.8-1.2,8.8-1.8,1.3,6.5,2.5,13.1,3.8,19.6-2.8.5-5.5,1.1-8.3,1.7Z"/>
          <path class="cls-5" d="M89.9,102.3l-1.4-7.4c7.4-1.4,14.8-2.5,22.2-3.4.3,2.5.6,5,.9,7.5-1.4.2-2.7.3-4.1.5,0,0,0,.2,0,.3.3,2.2,2,2.8,4.5,2.5.3,2.4.6,4.8.9,7.1-4.6.6-9,.4-13.4-2.6-.3.3-.5.6-.8.8.6.6,1.5,1.2,2.5,1.6-2.6,1.7-5.9,2.8-9.4,3.4-.4-2.4-.9-4.7-1.3-7.1,2.3-.4,3.9-1.5,3.5-3.7,0,0,0-.2,0-.3-1.4.2-2.7.5-4.1.7h0ZM92.3,113.6c3.9-.7,7.9-1.4,11.9-2,.5,3.2,3.2,4.3,7.4,4,5.1-.5,11.6-1.5,15.5-3.3.2,2.9.5,5.8.7,8.6-4.6,1.6-9.8,2.6-16,3.5-11.6,1.5-18.9-.3-19.4-10.8ZM114.6,114c-.9-7.6-1.8-15.1-2.7-22.7,4.5-.5,9-1,13.4-1.3.6,7,1.1,14,1.7,21-2.8,1.3-9.3,2.8-12.4,3Z"/>
          <path class="cls-5" d="M128.5,95.3c-.3-4.5,5.6-6.6,18.5-6.9,12.9-.2,18.9,1.7,18.7,6.2-.2,4.6-6.1,5.7-18.5,5.9-12.4.3-18.4-.6-18.7-5.2ZM164.9,106.8c-11.7-.4-23.5-.2-35.2.6-.1-1.8-.3-3.7-.4-5.5,11.9-.8,23.8-1,35.7-.6,0,1.8-.1,3.7-.2,5.5ZM144.3,121.9c-9.4.3-13.7-1.4-14-5.9,0-.5,0-.9,0-1.4,4.6-.3,7.2-.7,11.7-1.7,0-.4,0-.7,0-1.1-4.5,1-7.1,1.4-11.8,1.7-.1-1.7-.2-3.4-.4-5.2,11.7-.8,23.4-1,35.1-.6,0,1.7-.1,3.4-.2,5.1-3.5,1-7.8,1.5-11.8,1.5v1.1c4,0,8.3-.5,11.8-1.5,0,2-.1,3.9-.2,5.9-5.1,1.2-11.6,1.9-20.1,2.1ZM142.3,93.3c-.1.4-.3.8-.4,1.2,3.3.8,7.2,1.1,10.5,1.1,0-.4,0-.8,0-1.2-3.2,0-6.7-.4-10-1.1Z"/>
          <path class="cls-5" d="M193.3,90.6c8.3,1,11.6,4.5,10.9,9.1-.7,4.5-4.7,7.1-12.6,6.2-7.8-.9-11.2-4.2-10.9-8.8.3-4.6,4.3-7.3,12.6-6.4ZM179.7,115.1c0-1,.2-2,.2-3,2.8.2,5.1.2,7.7,0,0-.3,0-.6,0-.9-2.6.2-4.9.2-7.7,0,.2-1.9.3-3.8.5-5.7,6,.5,12,1.1,18,1.9-.4,2.9-.8,5.7-1.1,8.6-1.8.4-3.6.4-6.1.2,0,.3,0,.6-.1.9,3,.3,5.5.5,8.7-.2-.3,2.2-.6,4.5-1,6.7-2.8.7-6.4.5-10.7,0-5.5-.6-8.9-3.9-8.5-8.6ZM188.2,97.6c2.6,1.1,5.4,1.9,8.5,2.3,0-.4,0-.8.1-1.1-2.9-.4-5.4-1.2-8-2.2-.2.4-.4.7-.7,1.1ZM199.8,107.6c5.3.7,10.6,1.6,15.8,2.6-1,5.5-2,11-3.1,16.5-3.8-.7-7.6-1.3-11.4-1.9.5-3.1.9-6.1,1.4-9.2-1.3-.2-2.5-.4-3.8-.5.3-2.5.7-4.9,1-7.4ZM203.9,107.2c.7-4.8,1.4-9.5,2.1-14.3,4.2.6,8.3,1.3,12.5,2.1-.9,4.7-1.8,9.5-2.6,14.2-4-.7-8-1.4-12-2Z"/>
          <path class="cls-5" d="M251.2,126c-4.6-1.4-9.2-2.7-13.8-3.9,1.1-4.4,2.3-8.8,3.4-13.2-6.9-1.8-13.9-3.4-20.9-4.8.6-2.8,1.1-5.7,1.7-8.5,12.2,2.4,24.2,5.4,36.2,9.1-2.2,7.1-4.4,14.2-6.5,21.3ZM248.3,135.4c-10.8-3.3-21.8-6.1-32.9-8.3.6-2.9,1.1-5.7,1.7-8.5,1.1.2,2.1.4,3.2.6.8-3.9,1.6-7.8,2.4-11.7,4.8,1,9.6,2.1,14.4,3.3-1,3.9-1.9,7.7-2.9,11.6,5.6,1.4,11.1,3,16.6,4.6-.9,2.8-1.7,5.6-2.6,8.3Z"/>
          <path class="cls-5" d="M83.5,190.4c5-1.5,10.1-2.9,15.2-4.1.9,3.8,1.8,7.6,2.7,11.3-4,.9-8,2-12,3.2-1.7.5-2.7,0-3.2-1.5-.9-2.9-1.8-5.9-2.7-8.8ZM87.1,202.3c7.7-2.4,15.4-4.3,23.3-5.8.3,1.5.6,3,.9,4.6-2,.4-4,.8-6,1.2.9.6,2.6.4,6.2-.3.3,1.5.6,3.1.9,4.6-6.9,1.4-8.9,1.5-13.6.3-.2.2-.4.4-.6.7.8.3,1.7.5,2.7.6-2.9,1.5-6.3,2.6-10.7,3.9-.5-1.5-.9-3-1.4-4.5,3.5-1.1,5.1-1.7,5.6-2.7-2,.5-3.9,1.1-5.9,1.7-.5-1.5-.9-3-1.4-4.4ZM89.5,194.6c2.1,0,4.1-.2,6.2-.7,0-.3-.1-.5-.2-.8-2,.5-3.9.7-5.9.6,0,.3-.1.6-.2.9ZM102.4,197.4c-.9-3.8-1.7-7.6-2.6-11.3,2.7-.6,5.5-1.2,8.2-1.7.2.8.3,1.5.4,2.3.8-.1,1.5-.3,2.3-.4.4,2.1.8,4.3,1.2,6.4-.8.1-1.5.3-2.2.4.2.9.3,1.8.5,2.7-2.6.5-5.2,1.1-7.8,1.7Z"/>
          <path class="cls-5" d="M137.7,180.5c.5,7.6,1,15.2,1.5,22.8-2.7.2-5.4.4-8.1.7-.1-1.1-.2-2.3-.4-3.4-.6,0-1.2.1-1.8.2-.8,2.6-3,4.2-6.3,4.7-4.7.7-7.8-1.4-8.7-6.5-.9-5.1,1.4-8.3,6.5-9,4-.6,6.9.8,8.2,4,.5,0,1-.1,1.5-.2,0-.6-.1-1.2-.2-1.8-.6,0-1.3.1-1.9.2-.1-1.2-.3-2.5-.4-3.7-5,.6-10.1,1.3-15.1,2.2-.4-2-.7-4.1-1.1-6.1.7-.1,1.5-.3,2.2-.4.4.9,2.1,1.8,3.4,1.6.1-.2.2-.4.3-.6-1.7,0-3-.8-3.2-1.7,0-.4-.1-.8-.2-1.2,3.5-.6,6.9-1.1,10.4-1.5,0,.6.2,1.2.2,1.8,1-.1,1.9-.2,2.9-.3.1,1,.2,2,.3,3.1.5,0,.9-.1,1.4-.1-.1-1.3-.3-2.6-.4-3.9,3-.3,6-.6,8.9-.8ZM118.6,196.8c-.1.3-.3.5-.4.8,2,.5,4.5.6,6.6.3,0-.3,0-.5-.1-.8-2.2.3-4.3,0-6.1-.3Z"/>
          <path class="cls-5" d="M140.2,185.5c0-1.7-.2-3.5-.3-5.2,8.8-.5,17.6-.5,26.4,0,0,1.7-.2,3.5-.3,5.2-2.5-.1-4.9-.2-7.4-.3.8,1.5,3.1,2.1,7.3,2.3,0,1.7-.2,3.5-.3,5.2-7.3-.4-10.6-1-15-3.3-.3.2-.6.3-.9.5.7.5,1.6.9,2.5,1.3-3.3.9-6.8,1.2-11.6,1.5,0-1.7-.2-3.5-.3-5.2,4.2-.2,6.4-.8,7.2-2.3-2.5,0-4.9.2-7.3.3ZM157.4,202.8c-2.9,0-5.8,0-8.7,0,0-1.3,0-2.6,0-3.9-2.6,0-5.2.2-7.7.3-.1-2-.2-3.9-.3-5.9,8.3-.5,16.6-.5,24.9,0-.1,2-.2,3.9-.3,5.9-2.6-.1-5.2-.2-7.7-.3,0,1.3,0,2.6,0,3.9Z"/>
          <path class="cls-5" d="M166.5,203.2c.1-2.2.3-4.5.4-6.7,1-.4,2.2-1.6,2.4-4.2.3-3.9.6-7.8.8-11.6,2.5.2,5,.4,7.4.6-.4,3.9-.8,7.7-1.2,11.6-.3,2.7.5,4,1.6,4.6-.2,2.2-.5,4.5-.8,6.7-2.6-.3-4.5-2.1-5.8-3.8-.2.1-.4.3-.6.4.4.5,1.1,1.2,1.6,1.7-2,.7-4,.8-5.9.7ZM176.9,194c.3-2.5.5-5,.8-7.5.7,0,1.4.1,2.2.1.2-1.7.4-3.4.6-5.2,2.3.3,4.5.6,6.8.9-1.1,7.5-2.2,15-3.3,22.6-2-.3-4.1-.6-6.1-.8l1.2-10c-.8,0-1.5,0-2.1-.1ZM190.8,206.1c-2-.4-4.1-.7-6.1-1,1.1-7.5,2.2-15,3.3-22.6,2.3.3,4.5.7,6.7,1.1-1.3,7.5-2.6,15-4,22.5Z"/>
          <path class="cls-5" d="M195.3,191.1c.8-4.4,5.8-6.8,14.7-4.7,8.8,2.2,12.2,6.7,10.9,11-.6,2-2.1,3.5-4.4,4.2l-1.1,3.9c.8.2,1.7.5,2.5.8-.6,2-1.2,3.9-1.8,5.9-7.7-2.4-15.5-4.3-23.3-5.7.4-2,.8-4,1.1-6.1.9.2,1.7.3,2.6.5.3-1.3.5-2.6.8-4-1.7-1.7-2.3-3.7-1.9-5.8ZM204.9,192c-.2.2-.3.5-.5.7,2.1,1.2,5.3,2.2,7.5,2.8,0-.3.1-.5.2-.8-2.2-.6-5.1-1.7-7.2-2.7ZM203.9,200.4c-.2.2-.3.5-.5.7,1.8,1.1,3.7,1.8,5.5,2.3,0-.3.1-.5.2-.8-1.8-.5-3.5-1.2-5.2-2.2Z"/>
        </g>
      </g>
      <path class="cls-8" d="M278,171.8h0c0,.1.2,0,.2,0,2.3-.6,4.6-.2,6.7,1h.2c0,.1,0-.2,0-.2-.5-2.5-.2-5,.7-7.3l.2-.5h-.1c-2.3.7-4.6.4-6.7-.7l-.3-.2c.6,2.6.3,5.4-.8,7.8Z"/>
      <path class="cls-8" d="M185.1,92h0c0,.1.2,0,.2,0,2.6-.5,5.2-.2,7.6.8h.3c0,.1,0-.2,0-.2-.5-2.2-.2-4.5.8-6.5l.2-.4h-.1c-2.5.6-5.2.4-7.6-.6h-.3c.7,2.2.3,4.7-.9,6.8Z"/>
      <path class="cls-8" d="M307,173.4h0c0,0,.1,0,.1,0,1.4-.3,2.9-.1,4.2.5h.1c0,0,0-.1,0-.1-.3-1.4-.1-2.8.5-4.1v-.3c.1,0,0,0,0,0-1.4.3-2.9.2-4.2-.4h-.2c.4,1.4.2,2.9-.5,4.3Z"/>
      <path class="cls-8" d="M37.9,89.9h0s0-.1,0-.1c-.5-1.5-.5-3.2,0-4.7v-.2c0,0-.2,0-.2,0-1.4.5-3,.5-4.5,0h-.3c0,0,0,0,0,0,.6,1.5.6,3.1.1,4.7v.2c1.5-.6,3.2-.6,4.8,0h0Z"/>
      <path class="cls-8" d="M299.1,202.6h0s.1,0,.1,0c1.4.7,2.4,1.9,2.9,3.2h0c0,.1.1,0,.1,0,.8-1.1,2.1-2,3.5-2.4h.3c0,0,0-.1,0-.1-1.4-.7-2.4-1.8-3-3.1v-.2c-.9,1.2-2.3,2.1-3.9,2.6Z"/>
      <path class="cls-8" d="M312.3,337.8l-56.9-61.6c-8.3-8.3-8.3-21.7,0-29.9,8.3-8.3,21.7-8.3,29.9,0l56.9,61.6c8.3,8.3,8.3,21.7,0,29.9-8.3,8.3-21.7,8.3-29.9,0Z"/>
      <path class="cls-5" d="M283.5,222.5c7.6,7.6,7.6,19.9,0,27.5l-23.5,23.5c-7.6,7.6-19.9,7.6-27.5,0s-7.6-19.9,0-27.5l23.5-23.5c7.6-7.6,19.9-7.6,27.5,0Z"/>
      <path class="cls-8" d="M153.8,0C73.5,0,8.4,65.1,8.4,145.4s65.1,145.4,145.4,145.4,145.4-65.1,145.4-145.4S234.2,0,153.8,0ZM153.8,266.5c-66.9,0-121.1-54.2-121.1-121.1S87,24.4,153.8,24.4s121.1,54.2,121.1,121.1-54.2,121.1-121.1,121.1Z"/>
      <path class="cls-8" d="M28.9,121.6h.1c0,0-.2-.1-.2-.1-2.3-1.1-4.1-2.9-5.2-5.2v-.2c-.1,0-.3.3-.3.3-1,2.2-2.8,4-4.9,5l-.4.2h.1c2.3,1.1,4.2,2.9,5.3,5.1l.2.3c1.1-2.4,2.9-4.3,5.3-5.4Z"/>
      <path class="cls-8" d="M6.9,102.5h0s-.1,0-.1,0c-1.4-.7-2.6-1.8-3.3-3.3v-.2c0,0-.2.2-.2.2-.7,1.4-1.8,2.5-3.1,3.2h-.3c0,.1,0,.2,0,.2,1.5.6,2.7,1.8,3.4,3.2v.2c.8-1.5,2-2.7,3.5-3.5Z"/>
      <path class="cls-2" d="M139.9,41.6l18.4-.8c4.1-.2,7.6,3,7.8,7.1l.7,16.1c.2,4.1-3,7.6-7.1,7.8l-10.8.5.2,5.6-4.4-5.4h-3.4c-4.1.3-7.6-2.9-7.8-7l-.7-16.1c-.2-4.1,3-7.6,7.1-7.8Z"/>
      <path class="cls-3" d="M141.6,58.3c-1.2-4.5,1.5-9.1,5.9-10.3,4.5-1.2,9.1,1.5,10.3,5.9,1.2,4.5-1.5,9.1-5.9,10.3-4.5,1.2-9.1-1.4-10.3-5.9Z"/>
      <path class="cls-8" d="M151.3,54.6c0,.9.4,1.6.8,1.5.4,0,.7-.7.6-1.6,0-.9-.4-1.6-.8-1.5-.4,0-.7.7-.6,1.6Z"/>
      <path class="cls-8" d="M146.7,54.8c0,.9.4,1.6.8,1.5.4,0,.7-.7.6-1.6,0-.9-.4-1.6-.8-1.5-.4,0-.7.7-.6,1.6Z"/>
      <path class="cls-4" d="M152.9,57.7s-1,1.3-3,1.4c-2,0-3.1-1.1-3.1-1.1"/>
    </g>
  </g>
</svg>