<?xml version="1.0" encoding="UTF-8"?>
<svg xmlns="http://www.w3.org/2000/svg" xmlns:xlink="http://www.w3.org/1999/xlink" viewBox="0 0 345.72 234.44">
  <defs>
    <style>
      .cls-1 {
        fill: url(#_무제_그라디언트);
      }

      .cls-1, .cls-2, .cls-3, .cls-4, .cls-5, .cls-6, .cls-7, .cls-8, .cls-9, .cls-10, .cls-11, .cls-12, .cls-13 {
        stroke-width: .8px;
      }

      .cls-1, .cls-2, .cls-3, .cls-4, .cls-6, .cls-7, .cls-8, .cls-9, .cls-10, .cls-11, .cls-12, .cls-13 {
        stroke-linecap: round;
        stroke-linejoin: round;
      }

      .cls-1, .cls-2, .cls-3, .cls-4, .cls-6, .cls-7, .cls-8, .cls-9, .cls-10, .cls-11, .cls-13 {
        stroke: #553835;
      }

      .cls-14, .cls-15, .cls-16, .cls-17, .cls-18, .cls-19, .cls-20, .cls-21, .cls-22, .cls-23, .cls-24, .cls-25 {
        stroke-width: 0px;
      }

      .cls-14, .cls-2 {
        fill: #57c8fd;
      }

      .cls-15, .cls-10 {
        fill: #d87686;
      }

      .cls-3, .cls-22 {
        fill: #34fd68;
      }

      .cls-16 {
        fill: #ff9c92;
      }

      .cls-26 {
        clip-path: url(#clippath);
      }

      .cls-17, .cls-8 {
        fill: none;
      }

      .cls-18 {
        fill: #ffe25c;
      }

      .cls-19 {
        fill: #00ae29;
      }

      .cls-20, .cls-7 {
        fill: #ffc600;
      }

      .cls-4 {
        fill: #7ae26f;
      }

      .cls-5 {
        fill: #002904;
        stroke: #fff;
        stroke-miterlimit: 10;
      }

      .cls-6, .cls-12 {
        fill: #eff916;
      }

      .cls-9, .cls-24 {
        fill: #fff;
      }

      .cls-21 {
        fill: #fffcba;
      }

      .cls-27 {
        mix-blend-mode: darken;
      }

      .cls-11 {
        fill: #b28dff;
      }

      .cls-12 {
        stroke: #e16546;
      }

      .cls-13, .cls-23 {
        fill: #553835;
      }

      .cls-28 {
        isolation: isolate;
      }

      .cls-25 {
        fill: #ffff57;
      }
    </style>
    <clipPath id="clippath">
      <rect class="cls-17" x=".83" y="33" width="344" height="177.86"/>
    </clipPath>
    <linearGradient id="_무제_그라디언트" data-name="무제 그라디언트" x1="265.88" y1="163.92" x2="288.16" y2="171.74" gradientTransform="translate(0 317.12) scale(1 -1)" gradientUnits="userSpaceOnUse">
      <stop offset="0" stop-color="#ffb9b9"/>
      <stop offset="1" stop-color="#ff9f9f"/>
    </linearGradient>
  </defs>
  <g class="cls-28">
    <g id="_레이어_2" data-name="레이어 2">
      <g id="_레이어_1-2" data-name="레이어 1">
        <path class="cls-24" d="M270.58,210.96c-.79-1.77-1.73-3.25-2.98-4.49-1.24-1.24-2.73-2.18-4.49-2.98,1.77-.8,3.25-1.74,4.49-2.98,1.24-1.24,2.18-2.73,2.98-4.49.79,1.77,1.73,3.25,2.98,4.49,1.24,1.24,2.73,2.18,4.51,2.98-1.77.79-3.25,1.73-4.51,2.98-1.24,1.24-2.18,2.72-2.98,4.49Z"/>
        <path class="cls-24" d="M296.44,39.78c1.18-3.89,3.38-7.58,6.31-10.98,5.87-6.8,14.7-12.59,25.36-16.21l2.79,8.21c-7.01,2.37-13.06,5.84-17.57,9.7-4.54,3.85-7.48,8.11-8.57,11.8-.74,2.48-.73,4.62-.06,6.63l-8.23,2.79v-.03c-1.33-3.89-1.21-8.03-.02-11.9h-.01Z"/>
        <path class="cls-21" d="M94.96,0c-4.49,0-8.12,3.62-8.12,8.11s3.63,8.11,8.12,8.11,8.12-3.62,8.12-8.11-3.64-8.11-8.12-8.11ZM94.96,10.81c-1.49,0-2.7-1.21-2.7-2.7s1.21-2.71,2.7-2.71,2.71,1.21,2.71,2.71-1.21,2.7-2.71,2.7Z"/>
        <path class="cls-14" d="M341.12,114.72l-10.92,9.19,4.6,5.45,10.92-9.19-4.6-5.45Z"/>
        <path class="cls-19" d="M5.72,140.67l-5.72,4.27,8.55,11.42,5.72-4.27-8.55-11.42Z"/>
        <path class="cls-18" d="M8.11,192.9l.29,4.88-3.75,2.93c-1.37,1.28-1.07,2.65.68,3.29l4.61,1.2,1.67,4.59c.87,1.65,2.37,1.63,3.51-.16.1-.16,2.35-3.61,2.35-3.61l4.42-.16c2.2-.16,2.83-1.66,1.38-3.43-.14-.16-2.67-3.31-2.67-3.31,0,0,1.08-3.9,1.14-4.1.64-2.2-.54-3.33-2.63-2.6l-4.11,1.61s-3.44-2.28-3.6-2.38c-1.76-1.19-3.14-.6-3.28,1.25h0Z"/>
        <path class="cls-18" d="M180.27,6.74l-1.93,3.04-3.49.14c-1.37.18-1.78,1.12-1.01,2.26l2.23,2.69-.98,3.46c-.19,1.35.7,1.99,2.16,1.42.12-.05,2.95-1.15,2.95-1.15l2.7,1.8c1.38.85,2.41.22,2.29-1.46,0-.16-.17-3.12-.17-3.12,0,0,2.33-1.86,2.44-1.96,1.32-1.04,1.11-2.23-.45-2.69l-3.15-.8s-1.08-2.83-1.12-2.97c-.54-1.47-1.61-1.71-2.49-.67h.01Z"/>
        <path class="cls-24" d="M148.78,230.21c-.09-.16-1.52-2.45-4.13-5.24-2.61-2.79-6.38-6.13-11.38-8.2-3.32-1.37-7.23-2.13-11.44-1.6l1,7.96c2.59-.32,4.93.09,7.15.97,2.22.88,4.29,2.24,6.04,3.73,3.53,2.96,5.78,6.38,5.91,6.61l6.83-4.23h.01Z"/>
        <path class="cls-25" d="M320.62,106.59c1.48,0,2.68-1.2,2.68-2.68s-1.2-2.68-2.68-2.68-2.68,1.2-2.68,2.68,1.2,2.68,2.68,2.68Z"/>
        <path class="cls-25" d="M265.46,18.35c1.48,0,2.68-1.2,2.68-2.68s-1.2-2.68-2.68-2.68-2.68,1.2-2.68,2.68,1.2,2.68,2.68,2.68Z"/>
        <path class="cls-24" d="M100.18,228.79c1.48,0,2.68-1.2,2.68-2.67s-1.2-2.68-2.68-2.68-2.68,1.2-2.68,2.68,1.2,2.67,2.68,2.67Z"/>
        <path class="cls-24" d="M242.19,225.15c1.48,0,2.68-1.2,2.68-2.68s-1.2-2.68-2.68-2.68-2.68,1.2-2.68,2.68,1.2,2.68,2.68,2.68Z"/>
        <path class="cls-18" d="M271.02,53.33l-3.42,2.67-4.01-1.27c-1.62-.35-2.48.55-2.05,2.14l1.44,3.96-2.51,3.52c-.77,1.46-.01,2.54,1.88,2.48.17,0,3.82-.1,3.82-.1l2.33,3.14c1.22,1.52,2.64,1.23,3.2-.72.05-.18,1.07-3.6,1.07-3.6,0,0,3.39-1.17,3.57-1.23,1.92-.65,2.16-2.07.58-3.22l-3.24-2.19s-.06-3.64-.06-3.81c-.02-1.88-1.13-2.59-2.55-1.76h-.02Z"/>
        <g class="cls-26">
          <g>
            <path class="cls-5" d="M299.64,152.04l-.31.04c4.77-5.1,5.26-10.56,4.74-14.41-.52-3.85-2.24-8.29-7.11-11.79,2.56-.77,4.26-3.3,3.89-6.04l-2.27-16.79c-.41-3.03-3.19-5.15-6.21-4.74l-17.01,2.32c-.61-2.77-3.26-4.66-6.13-4.27l-29.49,4.01c-2.86.39-4.91,2.92-4.77,5.75l-17.01,2.32c-3.02.41-5.14,3.2-4.73,6.23l1.02,7.51c-1.22-1.66-2.56-3.18-4.01-4.54-6.85-6.44-15.86-9.12-26.05-7.74-10.15,1.38-18.09,6.36-22.97,14.4-1.91,3.15-3.3,6.68-4.2,10.58-1.91-3.52-4.19-6.56-6.88-9.08-6.85-6.44-15.86-9.12-26.05-7.74-10.15,1.38-18.09,6.36-22.97,14.4-1.07,1.76-1.98,3.66-2.73,5.67-5.05-10.08-15.44-14.48-30.2-12.47-11.96,1.63-21.36,5.49-27.96,11.5-1.35,1.22-2,3.03-1.76,4.84l2.66,19.6c.28,2.07,1.7,3.8,3.67,4.49.83.28,1.7.36,2.54.25,1.15-.16,2.25-.67,3.11-1.52,4.58-4.46,8.93-6.79,14.43-7.66-.1.36-.27.76-.52,1.18-4.94,8.2-12.08,18.18-19.07,27.75-.84,1.15-1.21,2.59-1.02,4.01l2.08,15.39c.41,3.03,3.19,5.15,6.21,4.74l49.84-6.77c3.02-.41,5.14-3.2,4.73-6.23l-1.09-8.05c1.01,1.26,2.08,2.45,3.23,3.53,6.83,6.42,15.81,9.09,25.97,7.71s18.15-6.37,23.05-14.4c1.91-3.14,3.31-6.68,4.21-10.57,1.91,3.53,4.2,6.57,6.88,9.1,6.83,6.43,15.81,9.09,25.97,7.71s18.15-6.37,23.05-14.41c1.03-1.7,1.92-3.52,2.65-5.44l1.72,12.69c.41,3.03,3.19,5.15,6.21,4.74l74.41-10.11c3.02-.41,5.14-3.2,4.73-6.23l-2.26-16.7c-.41-3.03-3.19-5.15-6.21-4.74l-.02.02Z"/>
            <path class="cls-12" d="M299,147.34l-.31.04c4.77-5.1,5.26-10.56,4.74-14.4-.52-3.85-2.24-8.29-7.11-11.79,2.56-.77,4.26-3.3,3.89-6.04l-2.27-16.79c-.41-3.03-3.19-5.15-6.21-4.74l-17.01,2.32c-.61-2.77-3.26-4.66-6.13-4.27l-29.49,4.01c-2.86.39-4.91,2.92-4.77,5.75l-17.01,2.32c-3.02.41-5.14,3.2-4.73,6.23l1.02,7.51c-1.22-1.66-2.55-3.18-4.01-4.54-6.85-6.44-15.86-9.12-26.05-7.74-10.15,1.38-18.09,6.36-22.97,14.4-1.91,3.15-3.3,6.68-4.2,10.58-1.91-3.52-4.2-6.56-6.88-9.08-6.85-6.44-15.86-9.12-26.05-7.74-10.15,1.38-18.09,6.36-22.97,14.4-1.07,1.76-1.98,3.66-2.73,5.67-5.05-10.08-15.44-14.48-30.19-12.47-11.96,1.63-21.36,5.49-27.96,11.5-1.35,1.22-2,3.04-1.76,4.84l2.66,19.6c.28,2.07,1.7,3.8,3.67,4.49.83.28,1.7.36,2.54.25,1.15-.16,2.25-.67,3.11-1.52,4.58-4.46,8.93-6.79,14.43-7.66-.1.36-.27.76-.52,1.18-4.94,8.2-12.08,18.18-19.07,27.75-.84,1.15-1.21,2.59-1.02,4.01l2.08,15.39c.41,3.03,3.19,5.15,6.21,4.74l49.84-6.77c3.02-.41,5.14-3.2,4.73-6.23l-1.09-8.05c1.01,1.26,2.08,2.45,3.23,3.53,6.83,6.43,15.81,9.09,25.97,7.71,10.16-1.38,18.15-6.37,23.05-14.41,1.91-3.14,3.31-6.68,4.21-10.57,1.91,3.53,4.19,6.57,6.88,9.1,6.83,6.42,15.81,9.09,25.97,7.71s18.15-6.37,23.05-14.4c1.03-1.7,1.92-3.52,2.65-5.44l1.72,12.69c.41,3.03,3.19,5.15,6.21,4.74l74.41-10.11c3.02-.41,5.14-3.2,4.73-6.23l-2.26-16.71c-.41-3.03-3.19-5.15-6.21-4.74l-.02.02Z"/>
            <path class="cls-9" d="M298.53,143.84l-.31.04c4.77-5.1,5.26-10.56,4.74-14.4-.52-3.85-2.24-8.29-7.11-11.79,2.56-.77,4.26-3.3,3.89-6.04l-2.27-16.79c-.41-3.03-3.19-5.15-6.21-4.74l-17.01,2.32c-.61-2.77-3.26-4.66-6.13-4.27l-29.49,4.01c-2.86.39-4.91,2.92-4.77,5.75l-17.01,2.32c-3.02.41-5.14,3.2-4.73,6.23l1.02,7.51c-1.22-1.66-2.55-3.18-4.01-4.54-6.85-6.44-15.86-9.12-26.05-7.74-10.19,1.38-18.09,6.36-22.97,14.4-1.91,3.15-3.3,6.69-4.2,10.58-1.91-3.52-4.19-6.56-6.88-9.08-6.85-6.44-15.86-9.12-26.05-7.74-10.19,1.38-18.09,6.36-22.97,14.4-1.07,1.76-1.98,3.66-2.73,5.67-5.05-10.08-15.44-14.48-30.19-12.47-11.96,1.63-21.36,5.49-27.96,11.5-1.35,1.22-2,3.03-1.76,4.84l2.66,19.6c.28,2.07,1.7,3.8,3.67,4.49.83.28,1.7.36,2.54.25,1.15-.16,2.25-.67,3.11-1.52,4.58-4.46,8.93-6.79,14.43-7.66-.1.35-.27.76-.52,1.18-4.94,8.2-12.08,18.18-19.07,27.75-.84,1.15-1.21,2.59-1.02,4.01l2.08,15.38c.41,3.03,3.19,5.15,6.21,4.74l49.84-6.77c3.02-.41,5.14-3.2,4.73-6.23l-1.09-8.05c1.01,1.26,2.08,2.45,3.23,3.53,6.83,6.42,15.81,9.09,25.97,7.71,10.18-1.38,18.15-6.37,23.05-14.4,1.91-3.14,3.31-6.68,4.21-10.57,1.91,3.53,4.2,6.57,6.88,9.1,6.83,6.42,15.81,9.09,25.97,7.71,10.18-1.38,18.15-6.37,23.05-14.4,1.03-1.7,1.92-3.52,2.65-5.44l1.72,12.69c.41,3.03,3.19,5.15,6.21,4.74l74.41-10.11c3.02-.41,5.14-3.2,4.73-6.23l-2.26-16.71c-.41-3.03-3.19-5.15-6.21-4.74l-.02.02Z"/>
            <path class="cls-3" d="M50.7,196.54l-2.08-15.38c7.84-10.74,14.52-20.15,19.34-28.15,1.53-2.54,1.71-5.16,1.29-6.98-.45-2-2.65-3.04-5.54-2.65-6.76.92-12.46,3.67-18.22,9.28l-2.66-19.6c5.09-4.63,12.89-8.47,24.99-10.12,16.06-2.18,25.09,3.75,27.03,18.09,1.28,9.41-3.31,18.45-9.73,27.11-2.26,3.08-6.43,8.57-9.1,11.98l1.95.54c1.85-2.22,4.76-5.75,6.81-7.82l13.25-1.8,2.53,18.73-49.84,6.77h0Z"/>
            <path class="cls-3" d="M100.73,154.82c-3.18-23.48,6.14-37.19,22.98-39.48,16.84-2.29,29.56,8.43,32.73,31.91,3.18,23.48-6.13,37.19-23.07,39.49-16.84,2.29-29.46-8.35-32.65-31.92h0ZM117.88,148.81l-1.26,2.59c7.1,2.26,16.16,1.83,24.49.7l-.35-2.64c-8.34,1.13-16.47,1.16-22.88-.65h0Z"/>
            <path class="cls-3" d="M160.84,146.65c-3.18-23.48,6.13-37.19,22.98-39.48,16.94-2.3,29.56,8.43,32.73,31.91,3.18,23.48-6.13,37.19-23.07,39.49-16.84,2.29-29.46-8.35-32.65-31.92h0ZM177.99,140.64l-1.26,2.59c7.1,2.26,16.16,1.83,24.49.7l-.36-2.64c-8.33,1.13-16.47,1.16-22.88-.65h0Z"/>
            <path class="cls-3" d="M301.53,166.03l-74.41,10.11-2.26-16.7,23.6-3.21-.44-3.26c-16.48.36-25.37-3.9-26.52-12.42-1.44-10.64,10.41-18.16,35.77-21.6,25.36-3.44,38.78.64,40.22,11.28,1.15,8.53-6.27,15.09-22.44,19.07l.44,3.26,23.78-3.23,2.26,16.71ZM294.27,112.39l-74.41,10.11-2.27-16.79,20.62-2.81c1.1,2.81,6.08,5.98,9.7,5.67l.9-1.91c-4.94-.13-8.62-2.95-9.02-5.93l-.42-3.07,29.49-4.01.68,5.01,22.47-3.05,2.27,16.79h0ZM248.6,133.47l-.61,2.76c7.04,1.19,16.89.66,23.47-.24l-.36-2.64c-6.58.89-15.68,1.06-22.51.1h0Z"/>
            <path class="cls-24" d="M84.14,129.1c.31-1.18-1.24-2.62-3.46-3.21-2.22-.59-4.28-.11-4.59,1.07-.31,1.18,1.24,2.62,3.46,3.21,2.22.59,4.28.11,4.59-1.07Z"/>
            <path class="cls-24" d="M141.16,123.72c.31-1.18-1.24-2.62-3.46-3.21-2.22-.59-4.28-.11-4.59,1.07-.31,1.18,1.24,2.62,3.46,3.21,2.22.59,4.28.11,4.59-1.07Z"/>
            <path class="cls-24" d="M201.27,115.55c.31-1.18-1.24-2.62-3.46-3.21-2.22-.59-4.28-.11-4.59,1.07-.31,1.18,1.24,2.62,3.46,3.2,2.22.59,4.28.11,4.59-1.07Z"/>
            <path class="cls-24" d="M290.21,103.47c.31-1.18-1.24-2.62-3.46-3.21-2.22-.59-4.28-.11-4.59,1.07-.31,1.18,1.24,2.62,3.46,3.21,2.22.59,4.28.11,4.59-1.07Z"/>
            <path class="cls-24" d="M284.49,125.15c.31-1.18-1.24-2.62-3.46-3.21-2.22-.59-4.28-.11-4.59,1.07-.31,1.18,1.24,2.62,3.46,3.21,2.22.59,4.28.11,4.59-1.07Z"/>
            <path class="cls-13" d="M204.05,92.51c-5.03-1.62-9.49-4.28-13.08-7.81-4.15,2.24-8.98,3.3-13.96,3.17-4.98-.14-9.74-1.48-13.93-3.91-3.24,3.27-7.41,5.59-12.05,6.78-4.65,1.18-9.4,1.12-13.97-.12-2.15,4-5.42,7.32-9.45,9.66-8.66,4.93-20.01,4.99-27.38-1.32-7.32-6.21-5.28-19.49,7.15-27.22,5.5-3.4,12.02-4.85,17.67-4.13,2.69-4.34,7.74-8.03,14.04-9.82,6.29-1.8,13.06-1.45,18.42.77,3.83-3.46,9.83-5.66,16.54-5.67,6.71-.03,13.36,2.16,18.13,5.78,4.76-2.27,11.33-2.72,18.08-.81,15.22,4.19,24.45,18.42,20.54,27.32-3.86,8.95-15.98,10.68-26.76,7.31v.02Z"/>
            <path class="cls-9" d="M204.35,91.27c-5.09-1.63-9.62-4.31-13.26-7.84-4.18,2.24-9.06,3.3-14.11,3.17-5.05-.14-9.86-1.47-14.12-3.89-3.27,3.28-7.5,5.61-12.19,6.82-4.7,1.19-9.53,1.17-14.14-.06-2.18,4.01-5.5,7.36-9.57,9.74-8.78,5.01-20.24,5.17-27.66-1.11-7.36-6.17-5.28-19.53,7.27-27.35,5.55-3.45,12.13-4.93,17.84-4.24,2.72-4.35,7.82-8.08,14.17-9.89,6.34-1.83,13.18-1.49,18.6.7,3.86-3.47,9.9-5.68,16.69-5.71,6.77-.05,13.49,2.14,18.32,5.77,4.79-2.27,11.42-2.73,18.23-.81,15.35,4.2,24.74,18.48,20.86,27.4-3.82,8.98-16,10.68-26.92,7.27h0Z"/>
            <path class="cls-6" d="M210.17,58.8c-7.23-2.05-13.86-1.02-17.98,1.78-4.09-3.99-10.8-6.79-17.99-6.76-7.2,0-13.08,2.78-16.19,6.58-4.83-2.75-11.8-3.67-18.54-1.75-6.75,1.9-11.55,6.12-13.46,10.6-5.29-1.38-12.14-.43-18.04,3.22-10.79,6.69-12.84,18.14-6.57,23.77,6.32,5.69,16.51,5.67,24.41,1.14,4.49-2.62,7.74-6.44,9.38-10.73,4.54,1.74,9.7,2.12,14.87.81,5.16-1.33,9.45-4.13,12.25-7.82,4.02,2.89,9.08,4.65,14.62,4.8,5.54.13,10.62-1.36,14.43-4.12,3.28,3.92,7.93,7.06,13.51,8.85,9.8,3.06,20.43,1.27,23.56-6.68,3.16-7.91-5.05-20-18.25-23.66h-.02Z"/>
            <path class="cls-9" d="M168.34,52.78c.69,3.76-1.55,6.9-4.87,7.19-3.32.28-6.78-2.31-7.89-5.97-1.11-3.65.89-7.09,4.62-7.48,3.73-.4,7.44,2.5,8.13,6.26h0Z"/>
            <path class="cls-13" d="M163.86,55.56c1.64-.43,2.48-2.23,1.81-4.06-.67-1.83-2.67-2.97-4.4-2.5-1.73.47-2.46,2.32-1.7,4.12.76,1.79,2.65,2.87,4.29,2.44h0Z"/>
            <path class="cls-9" d="M164.57,54.36c.66-.17.99-.89.73-1.61-.27-.73-1.04-1.18-1.71-1-.68.17-.99.9-.7,1.62s1.03,1.16,1.69,1h0Z"/>
            <path class="cls-9" d="M157.37,53.76c1,3.69-.96,7-4.2,7.57-3.25.56-6.89-1.74-8.3-5.29-1.4-3.55.28-7.14,3.94-7.84,3.66-.7,7.56,1.87,8.56,5.56Z"/>
            <path class="cls-13" d="M153.17,56.9c1.59-.56,2.26-2.43,1.45-4.2-.81-1.77-2.89-2.73-4.56-2.13-1.67.61-2.24,2.52-1.34,4.24.9,1.72,2.86,2.64,4.45,2.08Z"/>
            <path class="cls-9" d="M153.77,55.65c.64-.22.91-.96.57-1.67-.32-.7-1.13-1.09-1.77-.86-.65.23-.9.98-.56,1.68.34.7,1.12,1.07,1.76.85Z"/>
            <path class="cls-22" d="M123.88,86.84c-.81.54-1.63.47-2.22-.21-1.4-1.61-.37-3.4.53-4.8.06-.09.11-.17.17-.25.61-.94.58-.99.5-1.09-.02-.02-.21-.05-.57.18-.05.03-.1.06-.15.1-.47.34-.47.65-.43.88.13.62-.18,1.27-.8,1.69-.02,0-.1.06-.11.07-.39.24-.84.32-1.22.24-.38-.09-.66-.32-.8-.67-.52-1.34.16-3.03,1.77-4.22.13-.09.25-.18.38-.26,1.86-1.18,3.85-1.09,4.66.09.98,1.42.17,2.52-.76,3.94-.18.28-.32.51-.43.72.66-.48,1.32-.95,2-1.41.02,0,.08-.06.1-.06.65-.37,1.42-.22,1.79.34.39.58.2,1.4-.42,1.82-1.29.88-2.55,1.8-3.79,2.77-.06.05-.12.09-.18.13h0Z"/>
            <path class="cls-23" d="M121.22,79c1.47-.93,3.09-.97,3.76-.01.76,1.08.21,1.87-.73,3.28-.57.86-1.14,1.94-.82,2.43,1.07-.82,2.17-1.61,3.28-2.36.01,0,.03-.02.05-.03.35-.21.76-.09.95.19.2.29.15.73-.21.96-1.3.88-2.58,1.82-3.82,2.79-.05.04-.1.07-.13.1-.53.36-.99.32-1.37-.13-1.2-1.41-.18-2.96.74-4.37.64-1,.83-1.33.51-1.76-.21-.28-.74-.37-1.47.09-.06.04-.13.09-.2.13-.58.43-.84.96-.72,1.56.08.39-.11.74-.48,1-.02.02-.05.03-.07.05-.43.26-.93.19-1.09-.22-.43-1.11.21-2.5,1.49-3.45.11-.08.22-.16.33-.23M120.6,77.99c-.15.09-.29.19-.43.3-1.86,1.38-2.66,3.44-2.03,4.99.2.51.63.86,1.19.98.35.08.72.06,1.09-.04-.19.93-.05,1.91.75,2.83.8.9,1.99.99,3.06.27.07-.05.15-.1.22-.16,1.22-.96,2.48-1.87,3.76-2.74.91-.62,1.2-1.79.64-2.66-.51-.77-1.58-1.01-2.49-.58.43-.92.57-1.89-.17-2.98-.98-1.45-3.35-1.61-5.57-.21h0Z"/>
            <path class="cls-22" d="M131.86,81.49c-2.07,1.02-4.19.48-5.61-1.53-1.5-2.11-.96-4.51,1.5-5.95.13-.07.26-.14.39-.21,2.33-1.14,4.61-.39,5.73,1.74.61,1.14.73,2.28.42,3.31-.32,1.01-1.03,1.85-2.07,2.45-.12.06-.23.13-.35.19h0ZM129.1,76.17c-.86.51-.53,1.41-.11,2.06.4.64,1.05,1.32,1.82.94.03-.01.06-.03.09-.06.65-.38.7-1.07.12-2.06-.38-.65-1.01-1.34-1.82-.94-.03.02-.07.03-.1.06Z"/>
            <path class="cls-23" d="M128.4,74.33c1.87-.92,3.79-.44,4.85,1.53,1.12,2.09.42,3.92-1.34,4.94-.1.06-.21.11-.31.17-1.68.82-3.5.47-4.78-1.38-1.35-1.94-.73-3.92,1.24-5.07.11-.06.22-.13.33-.18M131.06,79.7s.1-.05.14-.08c1.01-.58,1.15-1.62.41-2.91-.69-1.21-1.66-1.64-2.68-1.14-.05.02-.1.06-.16.08-1.07.62-1.19,1.7-.39,2.92.77,1.18,1.72,1.58,2.67,1.11M127.88,73.25c-.15.07-.3.15-.44.24-2.82,1.65-3.46,4.5-1.76,6.84,1.62,2.24,4.1,2.83,6.44,1.68.13-.06.26-.13.39-.21,1.18-.69,2.03-1.68,2.39-2.84.36-1.17.24-2.47-.43-3.74-1.25-2.43-3.88-3.29-6.59-1.97h0ZM130.54,78.63c-.38.18-.95-.72-.97-.76-.36-.56-.36-.88-.34-1,0-.07.01-.12.16-.21.02,0,.03-.02.05-.02.39-.19.9.65.96.75.35.58.35.91.34,1.02,0,.07-.02.12-.17.2-.02,0-.03.02-.05.02h0Z"/>
            <path class="cls-22" d="M138.79,77.92c-2.17.78-4.21.02-5.39-2.14-.62-1.13-.76-2.28-.36-3.31.39-1.03,1.25-1.88,2.49-2.43.13-.06.28-.12.41-.17,2.43-.87,4.61.12,5.49,2.36.95,2.43.02,4.54-2.26,5.55-.12.06-.24.1-.36.15h0ZM136.62,72.34c-.34.15-.53.36-.61.66-.09.36,0,.85.28,1.38.33.68.9,1.42,1.7,1.13.03-.02.07-.02.1-.04.69-.31.81-.99.34-2.04-.31-.68-.85-1.44-1.7-1.14-.04.02-.07.02-.11.04h0Z"/>
            <path class="cls-23" d="M136.13,70.43c1.95-.7,3.81-.02,4.64,2.05.89,2.21-.02,3.94-1.87,4.76-.1.05-.21.09-.32.13-1.76.63-3.52.08-4.58-1.9-1.13-2.08-.31-3.97,1.77-4.9.12-.06.24-.1.35-.14ZM138.18,76.07s.1-.04.15-.06c1.07-.47,1.32-1.49.72-2.85-.56-1.28-1.48-1.81-2.53-1.43-.06.01-.11.04-.17.06-1.13.51-1.36,1.55-.7,2.87.63,1.26,1.53,1.76,2.52,1.4M135.72,69.31c-.16.06-.31.12-.46.19-2.98,1.33-3.91,4.08-2.48,6.6,1.36,2.4,3.75,3.26,6.21,2.38.13-.05.28-.1.41-.17,2.57-1.13,3.7-3.59,2.66-6.32-.98-2.56-3.5-3.7-6.33-2.68ZM137.77,74.94c-.39.14-.86-.82-.88-.86-.15-.31-.44-1.04-.04-1.22.02,0,.04-.01.06-.02.4-.14.83.74.88.84.14.32.43,1.06.04,1.23-.01,0-.03.02-.05.02h0Z"/>
            <path class="cls-22" d="M143.78,76.15c-.69.19-1.41-.11-1.65-.7-.13-.31-.1-.66.08-.98.17-.3.46-.54.8-.66.72-.26,1.44-.51,2.18-.74,0-.03-.02-.06-.02-.1-.35.12-.71.24-1.06.36-.06.02-.13.04-.2.06-1.2.32-2.4-.16-2.81-1.15-.2-.51-.17-1.07.11-1.58-.54,0-1.04-.26-1.22-.7-.25-.6.16-1.34.92-1.61.78-.29,1.56-.55,2.35-.81-.02-.58.46-1.1,1.29-1.35.06-.02.13-.04.2-.06.75-.17,1.37,0,1.68.44.8-.23,1.62-.44,2.43-.64.02,0,.1-.02.12-.02.75-.14,1.46.24,1.61.83.12.48-.13.96-.57,1.25.52.26.91.69,1.04,1.23.13.54,0,1.1-.34,1.58-.35.47-.88.81-1.49.98-.36.1-.73.19-1.09.29.02.03.03.06.04.09.74-.21,1.49-.4,2.23-.58.02,0,.1-.02.13-.02.75-.13,1.43.26,1.58.89.16.66-.33,1.33-1.07,1.52-2.43.59-4.83,1.32-7.18,2.16-.02,0-.1.03-.11.03h.02Z"/>
            <path class="cls-23" d="M144.89,66.71c.48-.11.88,0,1.01.37.02.08.06.17.08.24,1.01-.29,2.03-.57,3.05-.82.02,0,.04,0,.06-.01.38-.06.74.11.82.41.09.32-.16.65-.56.74-2.63.65-5.22,1.44-7.77,2.36-.02,0-.04.02-.06.02-.36.1-.73-.03-.85-.32-.13-.3.09-.66.47-.81.99-.36,1.97-.69,2.97-1-.03-.08-.06-.17-.09-.25-.15-.41.19-.74.72-.9.05-.01.1-.02.13-.04M148.43,68.36c.92-.17,1.78.27,1.98,1.01.2.78-.39,1.59-1.32,1.83-1.74.46-3.47.98-5.17,1.57-.05.01-.09.03-.14.05-.86.23-1.73-.11-2.01-.82-.31-.76.2-1.64,1.14-1.97,1.77-.61,3.56-1.15,5.37-1.63.06-.02.1-.02.16-.03M143.92,71.55s.02,0,.03,0c1.44-.48,2.9-.92,4.38-1.33.2-.06.32-.23.28-.4-.05-.16-.23-.24-.42-.21h-.03c-1.48.4-2.96.85-4.42,1.34-.2.06-.31.25-.25.41.06.15.24.23.43.18M146.69,72.11c.43-.1.79-.02.9.36.05.15.1.29.13.44.95-.27,1.89-.52,2.85-.76.02,0,.05,0,.07-.02.39-.06.76.13.84.45.09.33-.17.69-.58.8-2.45.6-4.87,1.33-7.23,2.18-.02,0-.04.02-.06.02-.36.1-.76-.05-.88-.36-.13-.33.09-.72.48-.85.92-.33,1.85-.64,2.78-.94-.05-.15-.09-.29-.15-.44-.14-.42.18-.69.68-.84.06-.02.1-.03.15-.04M144.59,65.55c-.09.02-.17.04-.25.07-.92.28-1.55.85-1.74,1.5-.65.21-1.29.43-1.92.67-.54.2-.99.55-1.25,1-.27.46-.31.97-.12,1.41.18.43.55.74,1.01.91-.1.46-.06.92.12,1.37.27.64.8,1.11,1.43,1.38-.11.12-.2.25-.28.38-.26.47-.3,1-.11,1.46.36.87,1.42,1.3,2.41,1.03.06-.02.1-.03.16-.05,2.33-.84,4.7-1.55,7.11-2.14.51-.13.95-.41,1.25-.81.31-.42.43-.93.32-1.42-.15-.66-.7-1.14-1.4-1.31.39-.59.53-1.26.37-1.92-.11-.47-.36-.87-.72-1.19.28-.39.38-.87.27-1.3-.22-.89-1.28-1.46-2.4-1.26-.06,0-.12.02-.18.04-.67.17-1.33.34-2,.52-.5-.38-1.26-.52-2.09-.33h0Z"/>
            <path class="cls-22" d="M156.09,72.78c-.75.07-1.43-.37-1.57-1.04-.1-.5.12-1,.59-1.32,1.77-1.15,2.67-2.45,2.63-4.06-.87.12-1.74.25-2.6.4-.02,0-.11.02-.13.02-.77.08-1.47-.32-1.61-.96-.15-.68.39-1.34,1.25-1.49,1.54-.26,3.08-.48,4.65-.66.02,0,.11,0,.13,0,.62-.02,1.15.25,1.39.66.04-.66.69-1.22,1.56-1.28h.15c.91,0,1.64.55,1.7,1.26.18,2.2.35,4.4.5,6.6.02.38-.12.74-.4,1.01-.27.26-.64.42-1.05.45h-.13c-.8,0-1.46-.53-1.55-1.24-.17-1.57-.36-3.15-.54-4.72-.13,2.55-1.62,4.58-4.17,6.12-.19.11-.43.2-.66.24-.02,0-.1.02-.12.02Z"/>
            <path class="cls-23" d="M162.52,63.63c.51,0,.94.29.97.71.2,2.2.39,4.39.56,6.6.03.45-.34.79-.84.83h-.08c-.46,0-.84-.28-.88-.7-.22-2.2-.46-4.39-.72-6.58-.05-.43.35-.81.9-.85h.09M159.44,64.26c.4-.02.73.21.77.52.02.16.04.32.06.47.31,2.28-.46,4.81-3.77,6.79-.12.07-.27.12-.42.15-.02,0-.05,0-.07,0-.42.04-.79-.21-.86-.57-.06-.28.07-.55.33-.72,2.28-1.47,3.19-3.22,2.89-5.22-1.13.14-2.25.31-3.36.5-.02,0-.05,0-.07,0-.41.04-.77-.17-.84-.5-.08-.36.22-.7.66-.78,1.53-.26,3.07-.47,4.6-.65h.07M162.51,62.46c-.07,0-.14,0-.21,0-.74.06-1.37.37-1.77.81-.33-.14-.73-.21-1.14-.2-.06,0-.13,0-.19.02-1.57.17-3.12.4-4.68.65-.6.1-1.12.39-1.46.8-.35.42-.48.92-.36,1.41.22.93,1.24,1.52,2.36,1.41.06,0,.12-.02.18-.02.58-.1,1.15-.19,1.73-.27-.2,1.1-.95,2.03-2.26,2.88-.69.46-1.01,1.19-.85,1.92.21.97,1.19,1.6,2.27,1.5.05,0,.12-.02.17-.02.23-.04.57-.13.91-.33,1.56-.94,2.75-2.04,3.53-3.33.06.5.12,1,.18,1.49.13,1.02,1.07,1.76,2.2,1.77h.19c1.21-.09,2.11-.98,2.06-2.08-.13-2.21-.28-4.4-.44-6.61-.07-1.03-1.11-1.83-2.42-1.82h0Z"/>
            <path class="cls-22" d="M166.44,72.11c-.69-.03-1.25-.53-1.29-1.14-.03-.57-.07-1.15-.11-1.71-.01-.22.04-.43.16-.62-.39-.2-.68-.55-.71-.96-.08-1.07-.17-2.14-.25-3.21-.06-.74.65-1.4,1.6-1.42h.15c.9.03,1.6.61,1.63,1.33.03.69.06,1.39.08,2.09.49,0,.95-.02,1.39-.05-.05-.11-.07-.24-.08-.36,0-.26.1-.5.26-.69-.18-.19-.28-.43-.29-.69,0-.31.13-.59.4-.81.26-.2.61-.32.99-.31.56.02,1.11.03,1.67.06.1-.15.23-.28.4-.38.32-.18.73-.27,1.18-.25.06,0,.12,0,.18.02.92.13,1.54.7,1.51,1.4-.06,1.18-.13,2.35-.2,3.53-.02.3-.14.57-.36.77.18.22.28.49.27.77-.04.57-.07,1.15-.11,1.71-.02.31-.18.59-.44.8-.27.21-.62.31-.99.28-2.32-.17-4.63-.21-6.92-.16h-.11Z"/>
            <path class="cls-23" d="M173.73,63.6c.5.06.87.34.85.75-.05,1.18-.1,2.35-.17,3.53-.02.45-.46.7-.98.66-.03,0-.06,0-.1,0-.47-.06-.84-.36-.82-.78,0-.36.02-.72.03-1.08-.72-.04-1.43-.07-2.16-.09h-.06c-.34-.03-.6-.26-.61-.54,0-.3.28-.54.66-.53.73.01,1.46.05,2.18.09v-.29c-.73-.04-1.47-.07-2.19-.09h-.06c-.35-.03-.62-.26-.62-.55,0-.3.28-.54.67-.53.74.01,1.48.05,2.22.09v-.02c0-.44.46-.66,1.01-.63.04,0,.08,0,.12,0M165.95,63.63c.52.02.92.34.93.74.05.89.09,1.79.13,2.69,1.5-.02,2.83-.07,4.1-.21.06,0,.11-.02.18,0h.08c.38.04.67.26.66.58,0,.29-.26.51-.59.55-1.42.17-3.26.18-5.01.23-.17,0-.35,0-.52.02h-.06c-.37-.02-.67-.26-.69-.57-.07-1.07-.15-2.14-.23-3.21-.03-.42.38-.78.92-.8h.09M173.68,68.79c.36.06.65.33.62.64-.03.57-.06,1.15-.09,1.71-.02.32-.35.57-.73.54-2.33-.17-4.66-.22-6.98-.16h-.05c-.36-.02-.64-.26-.66-.57-.03-.57-.06-1.15-.1-1.71-.02-.32.28-.6.68-.62,2.4-.06,4.83,0,7.26.16h.06M167.56,70.33c1.62-.02,3.25.02,4.88.11,0-.19.02-.38.02-.57-1.64-.09-3.28-.13-4.91-.11,0,.19.02.38.02.57ZM173.87,62.43c-.08,0-.16-.02-.24-.02-.62-.04-1.21.09-1.66.36-.13.07-.24.16-.33.25-.43-.02-.86-.03-1.29-.04-.99-.02-1.81.51-2.04,1.22-.13-.95-1.1-1.7-2.32-1.74h-.21c-.65.01-1.25.25-1.67.62-.44.39-.65.92-.61,1.43.1,1.07.2,2.14.28,3.21.04.43.26.83.6,1.12-.03.15-.05.3-.03.46.04.57.09,1.15.13,1.71.07.92.91,1.65,1.92,1.7h.17c2.28-.05,4.57,0,6.87.16.52.04,1.02-.1,1.42-.4.41-.3.67-.74.71-1.22.05-.57.09-1.15.13-1.71.02-.26-.03-.52-.14-.77.14-.23.23-.49.25-.77.08-1.18.16-2.35.23-3.53.06-1-.84-1.87-2.15-2.05h0ZM168.36,65.53c0-.12,0-.23,0-.35.02.06.06.12.08.17-.03.06-.06.12-.07.17Z"/>
            <path class="cls-22" d="M180.75,72.93c-1.74-.43-2.88-1.62-2.74-2.97.13-1.24.25-2.48.37-3.72.13-1.45,1.85-2.36,4.01-1.98.13.02.27.06.4.09,1.98.49,3.17,1.84,2.91,3.18-.23,1.22-.46,2.45-.7,3.67-.29,1.42-1.96,2.16-3.87,1.82-.12-.02-.24-.05-.36-.08h0ZM182.05,66.69s-.32-.05-.34.13c-.16,1.18-.32,2.35-.5,3.53-.02.13.15.2.23.21.11.02.33.05.35-.11.18-1.18.35-2.35.52-3.52.02-.14-.13-.2-.24-.22-.01,0-.03,0-.04,0h0ZM185.94,74.33c-.79-.26-1.28-.96-1.14-1.67.43-2.17.85-4.33,1.25-6.5.06-.37.31-.67.69-.85.37-.17.83-.21,1.28-.09.02,0,.13.04.15.04.89.28,1.44,1.04,1.28,1.74-.49,2.15-1,4.3-1.53,6.44-.19.74-1.01,1.14-1.87.93-.02,0-.12-.03-.13-.04h0Z"/>
            <path class="cls-23" d="M188.01,65.83c.51.16.83.58.74.98-.47,2.16-.96,4.31-1.47,6.46-.1.43-.58.65-1.07.52-.03,0-.05-.02-.08-.02-.45-.15-.74-.54-.65-.96.46-2.16.89-4.32,1.31-6.49.08-.43.59-.66,1.14-.52.03,0,.06.02.09.02M182.64,64.91c1.47.36,2.54,1.36,2.34,2.45-.22,1.22-.44,2.45-.67,3.67-.23,1.17-1.62,1.64-3.11,1.38-.1-.02-.21-.04-.31-.06-1.32-.33-2.32-1.21-2.2-2.31.14-1.24.28-2.47.4-3.71.11-1.19,1.56-1.78,3.21-1.49.12.02.23.05.34.07M181.33,71.14s.06.02.09.02c.52.1,1.01-.11,1.08-.58.19-1.17.38-2.35.55-3.52.07-.44-.3-.81-.8-.93-.03,0-.07-.02-.1-.02-.56-.09-1.07.13-1.14.59-.15,1.18-.31,2.35-.46,3.53-.05.44.3.78.76.9M188.38,64.69c-.07-.02-.14-.04-.21-.06-1.04-.25-2.02.05-2.52.66-.62-.7-1.57-1.26-2.73-1.55-.15-.04-.31-.07-.47-.1-2.6-.45-4.66.69-4.79,2.48-.1,1.24-.22,2.48-.33,3.72-.14,1.68,1.21,3.12,3.29,3.63.13.03.27.06.41.09,1.19.21,2.29.06,3.13-.36.16.74.76,1.39,1.61,1.67.06.02.13.04.19.06,1.21.3,2.38-.25,2.66-1.32.54-2.14,1.07-4.28,1.59-6.43.24-1-.54-2.09-1.82-2.5v.02Z"/>
            <path class="cls-22" d="M189.42,75.2c-.76-.29-1.21-1-1.03-1.68.11-.43.22-.88.33-1.31.06-.26.21-.48.44-.63-.36-.32-.56-.77-.46-1.19.25-1.07.5-2.16.76-3.24.08-.35.32-.64.69-.8.37-.17.83-.18,1.29-.05.02,0,.13.04.15.05.57.21.98.6,1.14,1.03.1-.08.21-.14.35-.19.37-.14.83-.14,1.28.02.02,0,.13.05.15.06.42.17.75.44.95.75.39-.21.95-.24,1.49-.04.01,0,.13.05.14.06.39.17.69.43.89.73.38-.13.86-.1,1.32.09.02,0,.13.06.14.06.85.41,1.3,1.23,1.05,1.89-.56,1.49-1.13,2.96-1.71,4.43-.14.36-.43.59-.8.69.31.36.42.82.26,1.23-.25.61-1.03.85-1.76.55-2.29-.95-4.6-1.78-6.93-2.48-.02,0-.11-.04-.13-.04v.02ZM191.89,72.57c.05.2.05.4,0,.59-.02.1-.06.18-.08.28.62.21,1.24.41,1.85.63-.17-.32-.24-.67-.13-1,0-.03.02-.06.02-.09-.22.02-.46,0-.69-.09-.32-.11-.64-.21-.96-.32h0Z"/>
            <path class="cls-23" d="M199.16,69.46c.47.23.74.68.6,1.05-.55,1.49-1.1,2.97-1.67,4.45-.16.4-.65.54-1.14.34-.02,0-.06-.02-.08-.03-.43-.21-.68-.63-.54-1.02.53-1.49,1.05-2.99,1.56-4.49.13-.4.66-.55,1.18-.34.03,0,.06.02.09.04ZM196.82,68.6c.48.21.75.66.62,1.02-.49,1.45-.99,2.9-1.49,4.35-.14.39-.62.55-1.12.37-.02,0-.05-.02-.08-.03-.43-.19-.69-.61-.56-.99.23-.72.47-1.44.69-2.16-.21-.08-.43-.15-.64-.23-.11.36-.22.72-.33,1.08-.09.32-.5.46-.88.32-1.02-.35-2.05-.67-3.08-.97-.02,0-.04-.02-.06-.02-.35-.13-.58-.46-.51-.76.27-1.07.53-2.15.78-3.23.1-.42.58-.62,1.11-.46.03,0,.06.01.09.03.48.17.76.59.66.98-.05.19-.1.38-.15.57.33.1.66.21,1,.32.05-.19.1-.38.16-.56.11-.42.6-.59,1.14-.42.03,0,.05.02.09.03.48.2.75.62.63,1-.1.32-.2.64-.29.96.21.08.43.15.65.23.11-.36.23-.73.34-1.09.12-.39.64-.56,1.15-.37.03,0,.06.02.09.03M191.31,70.57c.32.1.65.21.97.31.1-.32.18-.65.28-.97-.33-.1-.65-.21-.99-.31-.09.32-.17.65-.26.97ZM190.58,72.07c.46.17.74.53.63.91-.08.29-.16.56-.24.85,2.06.65,4.11,1.4,6.13,2.24.02,0,.04.02.06.02.35.17.53.53.41.82-.13.32-.52.43-.9.28-2.3-.96-4.64-1.79-6.98-2.5-.02,0-.05-.02-.07-.02-.4-.15-.69-.52-.58-.93.11-.43.23-.87.34-1.31.1-.42.58-.55,1.1-.4.04,0,.07.02.1.04M199.68,68.4c-.06-.03-.13-.06-.2-.09-.43-.17-.89-.25-1.31-.23-.24-.22-.54-.41-.87-.56-.06-.03-.13-.06-.21-.09-.51-.19-1.03-.24-1.51-.16-.24-.22-.54-.4-.88-.54-.06-.02-.13-.06-.21-.08-.54-.18-1.09-.21-1.57-.1-.29-.32-.69-.58-1.16-.75-.07-.02-.13-.05-.21-.07-1.36-.39-2.61.17-2.84,1.22-.24,1.08-.48,2.17-.73,3.24-.1.44,0,.9.27,1.29-.1.16-.18.33-.23.53-.1.43-.21.88-.31,1.31-.23.98.41,2,1.49,2.41.06.02.12.04.17.06,2.31.7,4.61,1.52,6.87,2.46,1.06.44,2.23.1,2.61-.82.16-.39.15-.81,0-1.22.24-.18.43-.42.55-.71.59-1.47,1.18-2.94,1.75-4.42.37-.94-.27-2.13-1.49-2.73v.02Z"/>
            <path class="cls-22" d="M198.54,78.38c-.68-.36-1.03-1.1-.8-1.69.24-.63,1.08-.88,1.86-.53,2.53,1.14,5.03,2.43,7.48,3.87.02,0,.1.06.12.07.69.47.96,1.26.64,1.82-.34.59-1.21.7-1.93.27-2.37-1.4-4.79-2.65-7.25-3.76-.02,0-.1-.05-.11-.06h0ZM199.83,76.07c-.67-.36-1.03-1.08-.8-1.65.24-.6.46-1.21.7-1.82.13-.32.41-.54.76-.62-.23-.34-.31-.74-.18-1.08.11-.29.36-.51.72-.61.35-.09.76-.06,1.16.12,2.57,1.16,5.11,2.46,7.6,3.91.02,0,.09.06.11.07.69.47,1.01,1.26.71,1.81-.18.34-.55.51-.98.51.13.32.14.66-.02.95-.17.32-.51.5-.91.51.31.42.38.92.16,1.31-.15.28-.43.46-.77.51-.35.06-.73-.02-1.08-.23-2.32-1.36-4.68-2.58-7.07-3.67-.01,0-.09-.05-.11-.06v.02Z"/>
            <path class="cls-23" d="M209.57,74.9c.35.24.51.64.37.92-.16.29-.6.35-.98.12-2.44-1.42-4.92-2.69-7.45-3.83-.02,0-.04-.02-.06-.03-.36-.19-.56-.57-.44-.85.12-.31.54-.42.95-.24,2.56,1.15,5.08,2.45,7.56,3.88.02,0,.04.02.05.04ZM208.62,76.41c.33.22.49.6.35.87-.15.28-.58.35-.95.13-1.96-1.14-3.96-2.18-5.97-3.14-.1.23-.2.47-.3.69,2.07.98,4.1,2.06,6.11,3.22.01,0,.04.02.06.03.33.23.46.61.31.88-.16.29-.57.36-.94.14-2.33-1.37-4.72-2.6-7.13-3.7-.02,0-.04-.02-.05-.03-.34-.18-.53-.55-.41-.83.24-.6.48-1.21.72-1.81.12-.3.53-.42.94-.23,2.44,1.11,4.84,2.34,7.21,3.71.02,0,.04.02.06.04ZM206.86,80.6c.36.25.52.66.35.95-.17.3-.63.36-1.03.13-2.39-1.41-4.83-2.67-7.3-3.79-.02,0-.04-.02-.06-.03-.35-.19-.56-.58-.44-.89.13-.33.58-.44.99-.26,2.51,1.13,4.99,2.42,7.42,3.85.02.02.05.02.06.04M210.22,73.9c-.05-.04-.11-.07-.17-.1-2.51-1.45-5.06-2.77-7.66-3.93-.58-.26-1.18-.32-1.7-.18-.53.14-.92.48-1.08.93-.12.32-.11.66,0,1-.26.17-.45.41-.55.7-.23.61-.46,1.22-.69,1.82-.15.4-.12.85.07,1.27-.08,0-.15.02-.22.05-.54.14-.94.5-1.12.96-.33.88.19,1.96,1.18,2.49.06.03.1.06.16.08,2.44,1.1,4.83,2.35,7.19,3.74.5.29,1.06.43,1.59.36.54-.06,1.01-.34,1.25-.77.28-.49.27-1.11-.02-1.68.46-.09.85-.34,1.08-.74.21-.37.24-.81.13-1.24.27-.13.49-.32.63-.58.13-.24.19-.51.17-.79.35-.12.65-.34.84-.66.45-.81,0-2.01-1.06-2.71v-.02Z"/>
            <path class="cls-7" d="M293.1,183.49c-4.48.09-8.56-1.48-11.96-4.64-2.95-2.74-4.59-5.9-5.3-7.55l-.02-.03c-.61-1.34-.04-2.94,1.3-3.58,1.35-.64,2.96-.06,3.6,1.29.02.03.04.08.07.17,4.46,10.28,12.96,9.09,15.46,8.48,1.45-.36,2.92.54,3.27,1.99.35,1.45-.54,2.92-1.99,3.28-1.51.37-3,.57-4.44.6h0Z"/>
            <path class="cls-20" d="M309.34,198.06c-11.7,0-21.59-8.78-23-20.42-.06-.43-.09-.87-.13-1.32-.05-.82-.06-1.64-.03-2.43.46-11.92,9.77-21.49,21.67-22.27.51-.03,1.02-.05,1.52-.05,12.18,0,22.33,9.54,23.12,21.74.83,12.79-8.88,23.86-21.64,24.69-.51.03-1.02.05-1.52.05Z"/>
            <path class="cls-23" d="M309.38,152.18c11.81,0,21.76,9.21,22.53,21.19.8,12.49-8.64,23.25-21.09,24.06-.5.03-.99.05-1.48.05-11.39,0-21.04-8.55-22.41-19.9-.05-.43-.1-.85-.12-1.28-.06-.8-.06-1.59-.03-2.36.44-11.45,9.45-20.95,21.12-21.7.5-.03.99-.05,1.48-.05M309.38,151c-.52,0-1.04.02-1.56.05-12.2.79-21.76,10.61-22.22,22.84-.03.81-.02,1.64.03,2.49.03.43.07.88.13,1.35,1.44,11.94,11.58,20.94,23.59,20.94.52,0,1.04-.02,1.56-.05,13.09-.85,23.04-12.21,22.19-25.33-.81-12.5-11.22-22.29-23.71-22.29Z"/>
            <path class="cls-9" d="M335.84,149.78l-.37,1.25-.89,2.98-1.47,4.93-.59,1.98-1.5,5.03-.35,1.2c-2.02,2.3-7.27.98-11.73-2.95-4.46-3.93-6.44-8.98-4.43-11.28l1.29-.51,4.83-1.94,2.51-1,4.73-1.9,2.68-1.07,1.19-.48c2.41-.97,4.87,1.28,4.12,3.78h0Z"/>
            <g class="cls-27">
              <path class="cls-14" d="M332.52,160.92l-1.5,5.03c-2.92-.32-6.29-1.9-9.4-4.65-3.17-2.79-5.19-6.01-5.84-8.9l4.83-1.94c0,1.34,1.13,4.17,4.37,7.02,3.27,2.88,6.25,3.62,7.55,3.43h0Z"/>
            </g>
            <g class="cls-27">
              <path class="cls-14" d="M334.58,154l-1.47,4.93c-1.74-.79-3.5-1.94-5.2-3.43-2.15-1.9-3.78-3.99-4.8-6.05l4.73-1.9c.69,1.24,1.78,2.69,3.42,4.13,1.17,1.03,2.29,1.78,3.32,2.32h0Z"/>
            </g>
            <g class="cls-27">
              <path class="cls-14" d="M335.84,149.78l-.37,1.25c-.77-.52-1.53-1.11-2.27-1.77-1.01-.89-1.91-1.83-2.68-2.78l1.19-.48c2.41-.97,4.87,1.28,4.12,3.78h0Z"/>
            </g>
            <path class="cls-8" d="M292.48,172.17c-.2-2.04.6-3.78,1.78-3.89,1.17-.11,2.29,1.45,2.48,3.48"/>
            <path class="cls-8" d="M301.22,171.6c-.2-2.04.6-3.78,1.77-3.89,1.18-.11,2.29,1.45,2.48,3.48"/>
            <path class="cls-20" d="M298.44,175.54c-1.2.08-2.1,1.11-2.03,2.31.05.74.46,1.37,1.05,1.72-.54.43-.87,1.11-.82,1.84.08,1.2,1.11,2.1,2.3,2.03"/>
            <path class="cls-8" d="M298.44,175.54c-1.2.08-2.1,1.11-2.03,2.31.05.74.46,1.37,1.05,1.72-.54.43-.87,1.11-.82,1.84.08,1.2,1.11,2.1,2.3,2.03"/>
            <path class="cls-16" d="M312.47,174.1c.09,1.31-1.58,2.48-3.72,2.62s-3.94-.81-4.03-2.12c-.09-1.31,1.58-2.48,3.72-2.62,2.14-.14,3.94.81,4.03,2.12Z"/>
            <path class="cls-16" d="M293.2,175.36c.09,1.31-1.58,2.48-3.72,2.62-.96.06-1.85-.1-2.55-.41-.05-.43-.1-.85-.12-1.28-.05-.8-.06-1.59-.03-2.36.65-.37,1.47-.62,2.4-.69,2.14-.14,3.94.81,4.03,2.12Z"/>
            <path class="cls-20" d="M323.55,177.95c2.5.62,10.99,1.82,15.46-8.46.03-.08.06-.13.07-.17.65-1.35,2.26-1.93,3.6-1.28,1.34.64,1.91,2.24,1.29,3.58l-.02.03c-.72,1.64-2.36,4.8-5.31,7.54-3.23,2.98-7.05,4.54-11.25,4.62-1.66.03-3.38-.17-5.15-.6"/>
            <path class="cls-8" d="M323.55,177.95c2.5.62,10.99,1.82,15.46-8.46.03-.08.06-.13.07-.17.65-1.35,2.26-1.93,3.6-1.28,1.34.64,1.91,2.24,1.29,3.58l-.02.03c-.72,1.64-2.36,4.8-5.31,7.54-3.23,2.98-7.05,4.54-11.25,4.62-1.66.03-3.38-.17-5.15-.6"/>
            <path class="cls-1" d="M278.5,136.48c-2.22.62-3.83,2.29-4.49,4.3-1.77-1.15-4.06-1.45-6.19-.54-3.22,1.38-4.71,5.13-3.55,8.43,1.24,3.53,3.93,6.37,7.39,7.79l9.18,3.78,4.8-8.7c1.81-3.28,2.14-7.18.9-10.71-1.16-3.31-4.67-5.29-8.04-4.35h0Z"/>
            <path class="cls-9" d="M45.52,90.43l-8.26-6.43-7.52-5.85-3.56-2.77-7.12-5.54-3.86-3-6.76-5.25-4.1-3.18c-2.55-1.97-3.55-5.34-2.52-8.39,1.04-3.05,3.9-5.1,7.11-5.1h5.19s8.56-.02,8.56-.02h4.89s9.01-.02,9.01-.02h4.5l9.52-.02,10.46-.02c1.01,0,1.72,1,1.4,1.95l-14.64,42.97c-.32.96-1.5,1.31-2.29.69h0Z"/>
            <path class="cls-24" d="M47.26,91.38c-5.07-1.73-5.65-13.49-1.29-26.26,4.35-12.77,11.99-21.72,17.06-19.98"/>
            <path class="cls-8" d="M47.26,91.38c-5.07-1.73-5.65-13.49-1.29-26.26,4.35-12.77,11.99-21.72,17.06-19.98"/>
            <path class="cls-9" d="M64.31,71.41c4.35-12.77,3.78-24.53-1.29-26.26-5.07-1.73-12.7,7.21-17.05,19.98-4.35,12.77-3.78,24.53,1.29,26.26,5.07,1.73,12.7-7.21,17.05-19.98Z"/>
            <path class="cls-13" d="M61.79,70.54c3.65-10.7,3.79-20.33.31-21.52-3.47-1.19-9.25,6.52-12.89,17.21-3.65,10.7-3.79,20.33-.31,21.52,3.47,1.19,9.25-6.52,12.89-17.21Z"/>
            <g class="cls-27">
              <path class="cls-15" d="M37.26,84.01l-7.52-5.85c.06-5.4,1.25-11.59,3.26-17.48,2.01-5.89,4.83-11.53,8.09-15.84l9.52-.02c-3.02,2.15-7.65,7.92-11.1,18.07-3.46,10.15-3.32,17.55-2.25,21.1h0Z"/>
              <path class="cls-15" d="M26.19,75.4l-7.12-5.54c.23-4.13,1.17-8.69,2.67-13.04,1.48-4.35,3.51-8.53,5.85-11.95l9.01-.02c-.51.43-1.1,1-1.77,1.79-2.51,2.94-4.91,7.47-6.6,12.41-1.68,4.94-2.54,9.99-2.35,13.85.06,1.02.17,1.84.31,2.5Z"/>
              <path class="cls-15" d="M15.2,66.86l-6.76-5.25c.32-2.75.99-5.71,2-8.64,1-2.94,2.26-5.7,3.69-8.07l8.56-.02c-1.68,1.74-3.97,5.1-5.75,10.3-1.77,5.2-2.01,9.27-1.73,11.67h0Z"/>
              <path class="cls-15" d="M4.34,58.43c-2.55-1.98-3.55-5.36-2.52-8.41,1.04-3.05,3.9-5.1,7.11-5.1-1.04,1.35-2.29,3.5-3.28,6.42-.99,2.92-1.32,5.39-1.32,7.1Z"/>
            </g>
            <path class="cls-7" d="M55.04,77.4c.41.29,10.01,7.37,9.53,19.49l-5.09-.2c.36-9.32-7.36-15.09-7.43-15.15l2.99-4.14Z"/>
            <path class="cls-9" d="M64.98,49.21c.21-.25.44-.49.69-.7.84-.73,1.99-1,3.1-.71,1.34.35,2.55,1.5,3.06,2.93,1.21,3.12.55,6.99-1.47,9.65,2.78,1.79,5.67.61,7-.14,1.54-.87,2.92-2.19,3.95-3.75-1.86-1.18-3.41-2.88-4.32-4.8-1.03-1.92-1.52-5.05-.5-7.37.6-1.36,1.68-2.29,3.04-2.62,2.48-.53,4.83,1.56,5.81,3.82,1.45,3.09,1.43,6.34.45,9.26,1,.16,2.03.06,3-.37,4.45-2.05,6.4-7.44,6.32-11.59-.03-2.47-1.3-4.76-2.54-6.69-.49-.77-.27-1.78.49-2.28.76-.49,1.78-.27,2.27.49,1.49,2.32,3.01,5.13,3.06,8.42.1,5.35-2.42,11.96-8.26,14.64-1.92.84-3.91.91-5.77.43-1.36,2.21-3.26,4.07-5.39,5.27-3.24,1.82-7.55,2.39-11.19-.52-2.21,1.1-4.63.68-6.94.02-.88-.25-1.38-1.15-1.14-2.03.24-.88,1.15-1.38,2.03-1.14,1.44.41,2.63.63,3.62.49-.07-.1-.13-.2-.21-.3-.02-.02-.03-.06-.05-.08-.82-1.43-1.34-3.07-1.49-4.74-.19-2.36.28-4.28,1.37-5.59h0ZM68.02,58.01c1.15-1.74,1.51-4.18.74-6.13-.18-.49-.55-.84-.82-.9-.07-.02-.09-.02-.16.04-.73.6-1.05,1.86-.91,3.5.11,1.16.47,2.32,1.04,3.34.03.06.07.1.1.15h0ZM82.73,53.5c.66-2.14.65-4.46-.36-6.6,0-.02-.01-.03-.02-.06-.49-1.13-1.58-2.05-2.08-1.94-.21.06-.53.19-.77.74-.55,1.25-.24,3.33.4,4.5.02.03.03.06.04.09.6,1.26,1.6,2.43,2.8,3.26Z"/>
            <path class="cls-2" d="M70.47,89.26c-.5-1.02-.08-2.25.94-2.75,1.02-.5,2.25-.08,2.74.94.5,1.02.08,2.25-.94,2.75-1.02.5-2.25.08-2.74-.94Z"/>
            <path class="cls-10" d="M93.24,80.71l3.47-2.48-2.48-3.48-3.47,2.48,2.48,3.48Z"/>
            <path class="cls-11" d="M48.57,68.24c.2-.66.42-1.33.65-2,.57-1.68,1.19-3.27,1.85-4.78,3.28,1.16,5.46,3.14,5.08,4.8-.42,1.81-3.71,2.63-7.57,1.98h0Z"/>
            <path class="cls-4" d="M105.86,58.48c6.16,1.43,8.2-3.05,8.41-3.56l3.9,1.56c-1.14,2.92-5.39,7.94-13.26,6.11l.95-4.1Z"/>
            <path class="cls-24" d="M51.25,116.17c-.4-.08-.8-.12-1.19-.14.24-.32.47-.64.67-1,2.25-4.02.82-9.1-3.19-11.36-4.01-2.25-9.08-.82-11.34,3.19-.2.35-.36.72-.5,1.09-.22-.32-.47-.65-.74-.95-3.12-3.39-8.39-3.6-11.77-.47-3.38,3.13-3.59,8.41-.47,11.79.28.3.58.57.88.81-.38.11-.76.24-1.13.41-4.18,1.93-6.01,6.88-4.08,11.07,1.92,4.19,6.87,6.02,11.05,4.09.37-.17.72-.37,1.05-.58,0,.4,0,.8.05,1.2.54,4.57,4.68,7.85,9.24,7.32,4.57-.54,7.84-4.69,7.3-9.26-.05-.4-.13-.8-.24-1.18.37.13.76.25,1.16.33,4.51.9,8.9-2.03,9.79-6.55.9-4.52-2.03-8.91-6.54-9.82h0Z"/>
            <path class="cls-8" d="M51.25,116.17c-.4-.08-.8-.12-1.19-.14.24-.32.47-.64.67-1,2.25-4.02.82-9.1-3.19-11.36-4.01-2.25-9.08-.82-11.34,3.19-.2.35-.36.72-.5,1.09-.22-.32-.47-.65-.74-.95-3.12-3.39-8.39-3.6-11.77-.47-3.38,3.13-3.59,8.41-.47,11.79.28.3.58.57.88.81-.38.11-.76.24-1.13.41-4.18,1.93-6.01,6.88-4.08,11.07,1.92,4.19,6.87,6.02,11.05,4.09.37-.17.72-.37,1.05-.58,0,.4,0,.8.05,1.2.54,4.57,4.68,7.85,9.24,7.32,4.57-.54,7.84-4.69,7.3-9.26-.05-.4-.13-.8-.24-1.18.37.13.76.25,1.16.33,4.51.9,8.9-2.03,9.79-6.55.9-4.52-2.03-8.91-6.54-9.82h0Z"/>
            <path class="cls-7" d="M41.1,124.65c1.62-2.1,1.22-5.12-.87-6.74-2.1-1.62-5.11-1.23-6.72.88-1.62,2.1-1.22,5.12.87,6.74s5.11,1.23,6.72-.88Z"/>
          </g>
        </g>
      </g>
    </g>
  </g>
</svg>