<svg width="99" height="46" viewBox="0 0 99 46" fill="none" xmlns="http://www.w3.org/2000/svg">
<g clip-path="url(#clip0_598_6739)">
<path d="M13.9101 34.45C13.6401 36.09 13.5901 43.31 13.9101 45.22C15.5501 45.54 20.5901 45.54 22.0901 45.22C22.4101 43.31 22.3601 36.09 22.0901 34.45C20.4501 34.13 15.4101 34.13 13.9101 34.45Z" fill="#487FCF"/>
<path d="M27.86 19.68C27.86 26.36 24.54 30.72 18 30.72C11.46 30.72 8.14 26.36 8.14 19.68C8.14 13 11.46 8.63998 18 8.63998C24.54 8.63998 27.86 13 27.86 19.68ZM35.99 19.68C35.99 7.81998 27.99 1.22998 18 1.22998C8.01 1.22998 0 7.81998 0 19.68C0 31.54 8 38.13 18 38.13C28 38.13 36 31.54 36 19.68" fill="#288CF4"/>
<path d="M13.72 37.72C15.08 37.99 16.49 38.13 17.99 38.13C19.49 38.13 20.9 37.99 22.26 37.72C22.26 36.27 22.17 34.99 22.08 34.45C20.44 34.13 15.4 34.13 13.9 34.45C13.81 35 13.72 36.27 13.72 37.72Z" fill="#288CF4"/>
<path d="M61.8899 12.0901C60.0299 11.7701 55.7999 11.7701 54.3899 12.0901C54.2499 13.1801 54.2099 20.1301 54.2099 26.5401C54.0299 29.3101 53.2099 31.0801 51.1699 31.0801C48.6299 31.0801 48.1699 28.7601 48.1699 25.1701C48.1699 23.5801 48.2199 13.9001 48.1699 12.0801C46.5799 11.7201 41.8099 11.7201 40.5399 12.0801C40.3999 15.1701 40.3999 20.9901 40.3999 25.6201C40.3999 33.9801 43.8099 37.7501 49.8099 37.7501C51.4499 37.7501 52.9899 37.1601 54.3099 36.1101C54.3599 36.7901 54.3599 37.2901 54.3999 37.5201C55.9899 37.7901 60.2199 37.7901 61.8999 37.5201C62.1699 35.5201 62.1699 14.0301 61.8999 12.0701" fill="#487FCF"/>
<path d="M75.3399 37.54C75.6099 35.59 75.6099 14.09 75.3399 12.09C73.6999 11.82 69.3899 11.82 67.7999 12.09C67.5299 14.09 67.5299 35.54 67.7999 37.54C69.2099 37.9 73.5299 37.9 75.3399 37.54Z" fill="#487FCF"/>
<path d="M71.5699 9.27C74.1599 9.27 76.2499 7.23 76.2499 4.64C76.2499 2.05 74.1599 0 71.5699 0C68.9799 0 66.8899 2.05 66.8899 4.64C66.8899 7.23 68.9799 9.27 71.5699 9.27Z" fill="#288CF4"/>
<path d="M79.8899 31.0401C79.8399 33.8101 79.8899 35.9501 80.0699 37.5401C83.4799 37.7701 95.6099 37.7701 98.1599 37.5401C98.2999 36.0901 98.2999 32.3101 98.1599 30.7701C96.5199 30.7201 90.8899 30.6801 88.8399 30.7701C90.4299 29.0001 96.5599 20.9501 98.0199 18.7301C98.0599 15.9101 98.0199 13.6901 97.8399 12.0501C93.8399 11.7801 83.8899 11.8201 80.7499 12.1001C80.6099 13.5501 80.6099 17.9201 80.7499 18.9201C82.3899 18.9701 87.1099 19.0101 88.8799 18.9201C87.0199 21.1501 81.1099 29.0501 79.8799 31.0501" fill="#5499A5"/>
</g>
<defs>
<clipPath id="clip0_598_6739">
<rect width="98.26" height="45.45" fill="white"/>
</clipPath>
</defs>
</svg>
