<?xml version="1.0" encoding="UTF-8"?>
<svg xmlns="http://www.w3.org/2000/svg" xmlns:xlink="http://www.w3.org/1999/xlink" version="1.1" viewBox="0 0 628.2 619.7">
  <defs>
    <style>
      .cls-1 {
        mask: url(#mask);
      }

      .cls-2, .cls-3, .cls-4 {
        stroke-linecap: round;
      }

      .cls-2, .cls-3, .cls-4, .cls-5, .cls-6 {
        stroke: #046490;
        stroke-linejoin: round;
        stroke-width: 1.3px;
      }

      .cls-2, .cls-6 {
        fill: #ff5b4e;
      }

      .cls-3, .cls-5 {
        fill: #ffbe4e;
      }

      .cls-7 {
        fill: #fff;
      }

      .cls-4 {
        fill: none;
      }

      .cls-8 {
        fill: #046490;
      }
    </style>
    <mask id="mask" x="90.3" y="158.6" width="375.3" height="232.2" maskUnits="userSpaceOnUse">
      <g id="mask0_620_3621">
        <path class="cls-7" d="M465.2,159H90.7v231.8h374.5v-231.8Z"/>
      </g>
    </mask>
  </defs>
  <!-- Generator: Adobe Illustrator 28.6.0, SVG Export Plug-In . SVG Version: 1.2.0 Build 709)  -->
  <g>
    <g id="_레이어_1" data-name="레이어_1">
      <g class="cls-1">
        <g>
          <path class="cls-8" d="M116.2,262.3c9.6-3,19.3-5.7,29.1-8.1.7,2.9,1.5,5.9,2.2,8.8,1.3-.3,2.5-.6,3.8-.9-.7-2.9-1.4-5.9-2.1-8.8,9.8-2.3,19.6-4.4,29.4-6.2,2.9,15.8,5.8,31.6,8.6,47.4-16,2.9-32,6.7-47.7,11.2-6.4,1.8-9.9.2-11.7-5.6-3.9-12.6-7.7-25.2-11.6-37.8ZM163.6,302.3c1.5,6.1,7.9,8.6,18.8,6.8,13.3-2.3,30-5.6,40.3-10.7.8,7.4,1.6,14.7,2.4,22.1-11.6,4.5-24.9,7.7-40.8,11-29.5,6.2-47.5,3.8-51.4-20.9,10.2-3.1,20.4-5.9,30.7-8.3ZM183,246.3c11-1.9,22.1-3.5,33.2-4.7,2,17.9,4,35.7,5.9,53.6-7.2,3.7-20.9,7.8-29.2,8.8-3.3-19.2-6.7-38.4-10-57.7Z"/>
          <path class="cls-8" d="M228,273.7c7.2-.7,16.3-1.3,22.6-3.5,0-.9,0-1.7-.1-2.6-5.9,1.8-16,2.8-22.8,3.5-.4-4.1-.8-8.1-1.2-12.2,6.6-.7,17-1.5,23.3-3.1,0-.9,0-1.7-.1-2.6-6.6,1.4-16.5,2.3-23.5,3-.5-5.2-1-10.3-1.5-15.5,20-1.9,40-2.7,60.1-2.4,0,3.6-.1,7.2-.2,10.8-.7,24.6-16.9,36.5-55.5,38.3-.4-4.5-.9-9.1-1.3-13.6h0ZM262.9,287.4c.3,8.3,6,12,17,12.5,13.4.5,26.1.4,37.2-2.7-.6,7.4-1.2,14.8-1.9,22.1-12.2,2.3-21.8,3-37.9,2.9-29.9,0-47-5.9-46-32.9,10.5-1,21.1-1.6,31.6-1.9ZM289.6,238.4c10.8.3,21.5.8,32.3,1.7-.3,4.1-.7,8.3-1,12.4,3,.2,5.9.5,8.9.8-.8,7.9-1.6,15.7-2.4,23.6-2.8-.3-5.7-.5-8.5-.8-.5,5.9-1,11.8-1.5,17.6-7.8,2.2-21,3.7-29.2,3,.5-19.5.9-39,1.4-58.5Z"/>
          <path class="cls-8" d="M332.7,255.2c1.1-11.4,18.3-14.3,53.3-7.3,34.9,7.4,49.8,16.9,46.3,27.8-3.6,11.3-19.8,9.4-52.6,2.5-32.8-6.5-48.3-11.2-47.1-23ZM422.2,305.2c-30.1-9.2-60.9-15.5-91.9-18.9.5-4.7,1-9.3,1.5-14,31.9,3.5,63.5,9.9,94.4,19.4-1.4,4.5-2.7,9-4.1,13.5ZM360.6,330.2c-23.9-4.3-33.8-10.3-32.6-22,.1-1.2.3-2.4.4-3.6,12,1.4,18.8,1.6,31,1.7.2-.9.3-1.8.5-2.7-12.2,0-19.1-.3-31.2-1.7.5-4.4,1-8.8,1.4-13.2,30.8,3.4,61.5,9.6,91.4,18.8-1.3,4.2-2.6,8.4-3.8,12.6-9.6,0-20.9-1.5-31.1-4-.2.9-.4,1.8-.6,2.6,10.2,2.4,21.4,4,30.9,3.9-1.5,4.8-3,9.7-4.4,14.5-13.7-.6-30.3-3-51.8-7Z"/>
          <path class="cls-8" d="M103.5,190.8c9.2-2.6,16.2-.7,18.1,6.4,1.5,6.1-3.6,11.3-12.4,13.8-8.8,2.5-15.7,1.1-17.7-5.3-2.1-6.8,2.9-12.3,12.1-14.9ZM104.2,229.2c-.7-2.3-1.4-4.6-2.1-6.9-1.4.4-2.8.9-4.4,1.3-.8-2.5-1.5-5-2.3-7.5,10.7-3.3,16.8-4.9,28.4-8.6.6,2.5,1.3,5.1,1.9,7.6-2.5.8-4.9,1.5-7,2.1.6,2.4,1.3,4.8,1.9,7.2-5.5,1.5-11,3-16.5,4.7ZM100.3,231.8c6.9-2.1,13.8-4.1,20.8-6,.2.8.4,1.5.6,2.3,6.5-1.7,13-3.4,19.5-4.9-.2-.8-.3-1.5-.5-2.3,7-1.6,14-3.1,21-4.5,1.3,6.8,2.6,13.5,4,20.3-17.9,3.5-35.7,7.8-53.3,13-4.2,1.2-6.5,0-7.7-4-1.4-4.7-2.9-9.3-4.3-14ZM121.5,218.2c3.8-1.1,8.1-2.4,11.2-3.5-.1-.6-.3-1.1-.4-1.7-1.5.5-2.9.9-4.3,1.4-2.3-9.1-4.5-18.1-6.8-27.2,5.2-1.3,10.4-2.5,15.6-3.7,2.6,11.7,5.2,23.4,7.9,35.2-7.2,1.6-14.4,3.4-21.6,5.3-.5-1.9-1-3.8-1.5-5.7ZM146.5,218.3c-2.6-11.7-5.2-23.5-7.8-35.2,5.3-1.2,10.5-2.3,15.8-3.3,2.3,11.8,4.6,23.6,6.9,35.4-5,1-9.9,2-14.9,3.1Z"/>
          <path class="cls-8" d="M162.6,192.1c-.8-4.5-1.7-8.9-2.5-13.4,13.3-2.5,26.6-4.5,40-6.1.5,4.5,1.1,9,1.6,13.5-2.5.3-4.9.6-7.4.9,0,.2,0,.3,0,.5.5,4,3.5,5.1,8.1,4.5.5,4.3,1,8.6,1.5,12.8-8.3,1-16.3.8-24.1-4.8-.5.5-.9,1-1.4,1.5,1.1,1.1,2.8,2.1,4.4,2.9-4.6,3.1-10.6,5-16.9,6.2-.8-4.2-1.6-8.5-2.4-12.7,4.1-.8,7-2.8,6.3-6.7,0-.2,0-.3,0-.5-2.5.4-4.9.9-7.3,1.3ZM166.8,212.5c7.1-1.3,14.2-2.5,21.4-3.6.9,5.7,5.9,7.8,13.4,7.1,9.2-.9,20.8-2.6,27.9-6,.4,5.2.8,10.4,1.2,15.6-8.2,2.9-17.6,4.8-28.9,6.2-21,2.8-34-.5-35-19.4ZM206.9,213.2c-1.6-13.6-3.2-27.2-4.8-40.8,8.1-.9,16.1-1.7,24.2-2.4,1,12.6,2,25.2,3,37.8-5,2.4-16.7,5.1-22.4,5.5Z"/>
          <path class="cls-8" d="M231.9,179.4c-.6-8.1,10.1-11.9,33.3-12.4,23.2-.3,34,3.1,33.7,11.2-.3,8.3-11,10.3-33.3,10.6-22.3.5-33.1-1.1-33.7-9.4ZM297.5,200.1c-21.1-.7-42.3-.3-63.3,1.1-.2-3.3-.5-6.6-.7-9.9,21.4-1.5,42.9-1.9,64.4-1.2-.1,3.3-.2,6.6-.3,9.9ZM260.5,227.4c-17,.5-24.6-2.6-25.2-10.7,0-.8-.1-1.7-.2-2.5,8.3-.6,13-1.3,21.1-3,0-.6,0-1.3,0-1.9-8.2,1.7-12.8,2.5-21.2,3-.2-3.1-.4-6.2-.7-9.3,21-1.5,42.1-1.8,63.2-1.1-.1,3.1-.2,6.2-.3,9.3-6.3,1.8-14,2.7-21.3,2.7v1.9c7.2,0,14.9-.9,21.2-2.7-.1,3.6-.2,7.1-.4,10.7-9.3,2.1-20.9,3.3-36.2,3.8Z"/>
          <path class="cls-8" d="M348.8,171c14.9,1.7,20.8,8.2,19.6,16.3-1.2,8.1-8.5,12.8-22.7,11.1-14.1-1.6-20.2-7.7-19.6-15.9.6-8.2,7.8-13.2,22.7-11.5ZM324.3,215.1c.1-1.8.3-3.6.4-5.4,5.1.4,9.1.4,13.8,0,0-.5.1-1.1.2-1.6-4.7.4-8.7.3-13.8,0,.3-3.4.5-6.8.8-10.2,10.8.9,21.7,2,32.5,3.5-.7,5.2-1.4,10.3-2.1,15.5-3.2.8-6.5.8-10.9.3,0,.5-.1,1.1-.2,1.6,5.4.6,9.9.9,15.6-.3-.6,4-1.1,8.1-1.7,12.1-5.1,1.2-11.5,1-19.2.1-9.9-1.1-16-7-15.4-15.5ZM360.5,201.6c9.5,1.3,19,2.9,28.5,4.6-1.8,9.9-3.7,19.8-5.5,29.7-6.8-1.3-13.6-2.4-20.4-3.4.8-5.5,1.6-11,2.5-16.5-2.3-.3-4.6-.7-6.9-1,.6-4.5,1.2-8.9,1.8-13.4ZM367.7,200.9c1.3-8.6,2.6-17.2,3.9-25.8,7.5,1.1,15,2.4,22.5,3.8-1.6,8.5-3.2,17.1-4.8,25.6-7.2-1.3-14.4-2.6-21.6-3.6Z"/>
          <path class="cls-8" d="M453,234.8c-8.3-2.5-16.6-4.9-24.9-7.1,2.1-7.9,4.1-15.8,6.2-23.7-12.5-3.3-25-6.1-37.6-8.6,1-5.1,2-10.3,3-15.4,21.9,4.3,43.7,9.8,65.1,16.4-3.9,12.8-7.9,25.6-11.8,38.4ZM447.8,251.8c-19.5-6-39.3-11-59.2-14.9,1-5.1,2-10.3,3-15.4,1.9.4,3.9.8,5.8,1.2,1.4-7,2.9-14,4.3-21,8.7,1.8,17.3,3.8,26,5.9-1.7,6.9-3.5,13.9-5.2,20.8,10,2.5,20,5.3,30,8.4-1.5,5-3.1,10-4.6,15Z"/>
          <path class="cls-8" d="M150.9,350.9c9-2.8,18.1-5.3,27.3-7.4,1.6,6.8,3.2,13.6,4.8,20.4-7.2,1.7-14.4,3.6-21.5,5.7-3.1.9-4.8.1-5.7-2.8-1.6-5.3-3.3-10.6-4.9-15.9ZM157.5,372.2c13.8-4.3,27.8-7.8,41.9-10.5l1.6,8.2c-3.6.7-7.2,1.5-10.8,2.3,1.6,1.1,4.8.8,11.1-.5.5,2.8,1.1,5.6,1.6,8.3-12.4,2.5-16,2.7-24.5.6-.3.4-.7.8-1,1.2,1.4.5,3,.9,4.9,1.1-5.2,2.7-11.3,4.6-19.3,7.1-.8-2.7-1.7-5.4-2.5-8.1,6.3-1.9,9.1-3.1,10-4.8-3.5,1-7,2-10.5,3.1-.8-2.7-1.6-5.3-2.5-8ZM185,363.4c-1.6-6.8-3.1-13.6-4.7-20.4,4.9-1.1,9.9-2.2,14.8-3.2.3,1.4.5,2.7.8,4.1,1.4-.3,2.8-.5,4.2-.8.7,3.9,1.4,7.7,2.1,11.6-1.4.2-2.7.5-4,.8.3,1.6.6,3.2.9,4.9-4.7.9-9.4,1.9-14.1,3Z"/>
          <path class="cls-8" d="M248.5,332.9c.9,13.7,1.8,27.3,2.7,41-4.9.3-9.7.7-14.6,1.2-.2-2.1-.4-4.1-.6-6.2-1.1.1-2.2.2-3.3.4-1.5,4.8-5.3,7.6-11.3,8.4-8.4,1.2-14.1-2.5-15.7-11.7-1.7-9.2,2.6-14.9,11.7-16.3,7.3-1,12.5,1.4,14.7,7.2.9-.1,1.8-.2,2.6-.3-.1-1.1-.2-2.1-.3-3.2-1.2.1-2.3.2-3.5.4-.2-2.2-.5-4.4-.7-6.7-9.1,1-18.1,2.4-27.2,4-.7-3.7-1.3-7.3-2-11,1.3-.2,2.6-.5,4-.7.7,1.5,3.9,3.2,6.1,3,.2-.4.4-.7.6-1.1-3.1,0-5.4-1.5-5.7-3.1-.1-.7-.2-1.5-.4-2.2,6.2-1,12.5-2,18.8-2.7.1,1.1.3,2.2.4,3.3,1.7-.2,3.5-.4,5.2-.6.2,1.8.4,3.7.6,5.5.8,0,1.7-.2,2.5-.3-.2-2.3-.5-4.7-.7-7,5.4-.6,10.8-1,16.1-1.4h0Z"/>
          <path class="cls-8" d="M253.1,342c-.2-3.1-.4-6.2-.5-9.3,15.8-.9,31.7-.9,47.5,0-.2,3.1-.3,6.2-.5,9.3-4.4-.2-8.9-.4-13.3-.5,1.5,2.7,5.6,3.7,13.1,4.1-.2,3.1-.3,6.2-.5,9.3-13.2-.7-19-1.8-27.1-5.9-.5.3-1,.6-1.5.9,1.2.8,2.8,1.7,4.6,2.4-5.9,1.6-12.3,2.2-20.9,2.6-.2-3.1-.4-6.2-.5-9.3,7.5-.4,11.6-1.4,13-4.1-4.4.1-8.8.3-13.2.5ZM284.1,373.1c-5.2-.1-10.4-.1-15.6,0,0-2.4-.1-4.7-.1-7.1-4.6.1-9.3.3-13.9.5-.2-3.5-.4-7.1-.6-10.6,14.9-.8,29.9-.9,44.9,0-.2,3.5-.4,7.1-.6,10.6-4.6-.3-9.3-.4-13.9-.5,0,2.4,0,4.7-.1,7.1Z"/>
          <path class="cls-8" d="M300.4,373.8c.3-4,.5-8.1.8-12.1,1.9-.6,3.9-2.8,4.3-7.6.5-7,1-14,1.5-21,4.5.3,8.9.7,13.4,1.2-.7,7-1.4,13.9-2.2,20.9-.5,4.8.9,7.3,2.9,8.3-.5,4-.9,8.1-1.4,12.1-4.6-.5-8.2-3.8-10.5-6.8-.4.3-.8.5-1.1.8.7.9,2,2.2,2.9,3-3.5,1.3-7.2,1.5-10.6,1.2ZM319.2,357.3c.5-4.5.9-9,1.4-13.4,1.2,0,2.6.2,3.9.2.4-3.1.7-6.2,1.1-9.3,4.1.5,8.1,1,12.2,1.6-2,13.5-3.9,27.1-5.9,40.7-3.7-.5-7.3-1-11-1.4.7-6,1.4-12,2.1-18-1.4,0-2.7-.1-3.8-.3ZM344.1,379c-3.6-.7-7.3-1.2-11-1.8,2-13.5,4-27.1,6-40.6,4.1.6,8.1,1.3,12.1,2-2.4,13.5-4.8,27-7.2,40.4Z"/>
          <path class="cls-8" d="M352.3,352c1.4-7.9,10.5-12.3,26.4-8.4,15.9,4,22,12.1,19.6,19.7-1.1,3.7-3.8,6.4-7.9,7.7-.7,2.3-1.4,4.7-2.1,7,1.5.4,3,.9,4.5,1.4-1.1,3.5-2.2,7.1-3.3,10.6-13.8-4.2-27.8-7.7-42-10.3.7-3.6,1.4-7.3,2-10.9,1.5.3,3.1.6,4.6.9.5-2.4,1-4.8,1.4-7.2-3-3.1-4.1-6.7-3.4-10.5Z"/>
          <path class="cls-6" d="M116.8,254.5c9.6-3,19.3-5.7,29.1-8.1.7,2.9,1.4,5.9,2.2,8.8,1.3-.3,2.5-.6,3.8-.9-.7-2.9-1.4-5.9-2.1-8.8,9.8-2.3,19.6-4.4,29.4-6.2,2.9,15.8,5.7,31.6,8.6,47.4-16,2.9-32,6.7-47.8,11.2-6.4,1.8-9.9.2-11.7-5.6-3.9-12.6-7.7-25.2-11.6-37.8ZM164.2,294.5c1.4,6.1,7.9,8.6,18.8,6.8,13.3-2.3,30-5.6,40.3-10.7.8,7.4,1.6,14.7,2.4,22.1-11.6,4.5-24.9,7.7-40.8,11-29.5,6.1-47.6,3.8-51.4-21,10.2-3.1,20.4-5.8,30.8-8.3ZM142.6,273.6c7.7.2,15.3-.5,23.5-2.3-.2-.9-.4-1.9-.6-2.8-7.6,1.7-14.8,2.1-22.1,1.9-.2,1.1-.5,2.1-.7,3.2ZM183.7,238.5c11-1.9,22.1-3.5,33.3-4.7,2,17.9,3.9,35.7,5.9,53.6-7.3,3.7-21,7.8-29.2,8.8-3.3-19.2-6.7-38.4-10-57.7Z"/>
          <path class="cls-6" d="M228.7,265.9c7.2-.7,16.3-1.3,22.7-3.4,0-.9,0-1.7-.1-2.6-6,1.8-16,2.8-22.8,3.5-.4-4.1-.8-8.1-1.2-12.2,6.6-.7,17-1.5,23.3-3.1,0-.9,0-1.7-.1-2.6-6.6,1.4-16.5,2.3-23.5,3-.5-5.2-1-10.3-1.5-15.5,20-1.9,40.1-2.7,60.1-2.4,0,3.6-.1,7.2-.2,10.8-.7,24.6-16.9,36.5-55.5,38.3-.4-4.5-.9-9.1-1.3-13.6ZM263.6,279.6c.3,8.3,6,12,17,12.5,13.4.5,26.2.4,37.2-2.7-.6,7.4-1.2,14.8-1.9,22.1-12.2,2.3-21.8,3-38,2.9-30,0-47-5.9-46-32.9,10.5-1,21.1-1.6,31.7-1.9ZM290.2,230.6c10.8.3,21.5.8,32.3,1.7-.3,4.1-.7,8.3-1,12.4,3,.2,5.9.5,8.9.8-.8,7.9-1.6,15.7-2.4,23.6-2.8-.3-5.7-.5-8.5-.8-.5,5.9-1,11.8-1.5,17.6-7.8,2.2-21,3.7-29.2,3.1.5-19.5.9-39,1.4-58.5Z"/>
          <path class="cls-6" d="M333.4,247.4c1.1-11.4,18.3-14.3,53.3-7.4,34.9,7.4,49.9,16.9,46.4,27.8-3.5,11.3-19.8,9.4-52.6,2.5-32.9-6.5-48.3-11.2-47.1-23ZM423,297.4c-30.1-9.2-60.9-15.5-91.9-18.8.5-4.7,1-9.3,1.5-14,31.9,3.5,63.5,9.9,94.5,19.4-1.4,4.5-2.7,9-4.1,13.5ZM361.3,322.4c-23.9-4.3-33.8-10.3-32.6-22,.1-1.2.3-2.4.4-3.6,12,1.4,18.8,1.6,31,1.6.2-.9.3-1.8.5-2.7-12.2,0-19.1-.3-31.2-1.7.5-4.4,1-8.8,1.4-13.2,30.9,3.4,61.5,9.6,91.5,18.8-1.3,4.2-2.6,8.4-3.8,12.6-9.6.1-20.9-1.5-31.1-3.9-.2.9-.4,1.8-.6,2.6,10.2,2.4,21.4,4,31,3.9-1.5,4.8-2.9,9.7-4.4,14.5-13.7-.6-30.3-3-51.9-7ZM371.6,249.6c-.6.9-1.2,1.8-1.8,2.7,8.5,3.9,18.7,7,27.3,9,.2-1,.5-2,.7-2.9-8.6-2-17.8-5.1-26.1-8.8Z"/>
          <path class="cls-5" d="M103.5,183c9.2-2.6,16.2-.7,18.1,6.4,1.4,6.1-3.6,11.3-12.4,13.8-8.8,2.5-15.7,1.1-17.7-5.3-2.1-6.8,2.9-12.3,12.1-14.9ZM104.1,221.4c-.7-2.3-1.4-4.6-2.1-6.9-1.4.4-2.8.9-4.4,1.3-.8-2.5-1.5-5-2.3-7.5,10.7-3.3,16.8-4.9,28.4-8.5.6,2.5,1.3,5.1,1.9,7.6-2.5.8-4.9,1.5-7,2.1.6,2.4,1.3,4.8,1.9,7.2-5.5,1.5-11,3-16.5,4.7ZM100.2,224c6.9-2.1,13.8-4.1,20.8-6,.2.8.4,1.5.6,2.3,6.5-1.7,13-3.4,19.5-4.9-.2-.8-.4-1.5-.5-2.3,7-1.6,14-3.1,21.1-4.5,1.3,6.8,2.6,13.5,3.9,20.3-17.9,3.5-35.7,7.8-53.3,13-4.2,1.2-6.5,0-7.7-4-1.4-4.7-2.9-9.3-4.3-14ZM98.4,194.8c4.7.5,10.6-.5,15.2-1.7-.2-.7-.4-1.4-.6-2-4.6,1.2-9.7,1.8-13.8,1.5-.3.7-.5,1.5-.8,2.2ZM124.9,228.4c5.9.2,12.5-.8,17.8-2-.2-.7-.3-1.4-.5-2.1-5.3,1.2-11.4,1.9-17.1,1.8,0,.8-.2,1.5-.2,2.3ZM121.4,210.4c3.8-1.1,8.1-2.4,11.2-3.5-.1-.6-.3-1.1-.4-1.7-1.5.5-2.9.9-4.3,1.4-2.3-9.1-4.5-18.1-6.8-27.2,5.2-1.3,10.4-2.5,15.6-3.7,2.6,11.7,5.2,23.4,7.9,35.2-7.2,1.6-14.5,3.4-21.6,5.3-.5-1.9-1-3.8-1.5-5.7ZM146.4,210.5c-2.6-11.7-5.2-23.5-7.7-35.2,5.3-1.2,10.5-2.3,15.8-3.3,2.3,11.8,4.6,23.6,6.9,35.4-5,1-9.9,2-14.9,3.1Z"/>
          <path class="cls-5" d="M162.5,184.4c-.8-4.5-1.7-8.9-2.5-13.4,13.3-2.5,26.6-4.5,40-6.1.5,4.5,1.1,9,1.6,13.5-2.5.3-4.9.6-7.4.9,0,.2,0,.3,0,.5.5,4,3.5,5.1,8.1,4.5.5,4.3,1,8.6,1.5,12.8-8.3,1-16.3.8-24.1-4.8-.5.5-.9,1-1.4,1.5,1.1,1.1,2.8,2.1,4.4,2.9-4.6,3.1-10.6,5-16.9,6.2-.8-4.2-1.6-8.5-2.3-12.7,4.1-.8,7-2.8,6.3-6.7,0-.2,0-.3,0-.5-2.4.4-4.9.9-7.3,1.3h0ZM166.7,204.7c7.1-1.3,14.2-2.5,21.4-3.5.9,5.7,5.9,7.8,13.4,7.1,9.2-.9,20.8-2.6,28-6,.4,5.2.8,10.4,1.2,15.6-8.2,2.9-17.6,4.8-28.9,6.2-21,2.8-34-.5-35-19.4ZM206.8,205.4c-1.6-13.6-3.2-27.2-4.8-40.8,8.1-.9,16.1-1.7,24.2-2.4,1,12.6,2,25.2,3,37.8-5,2.4-16.7,5.1-22.4,5.5Z"/>
          <path class="cls-5" d="M231.9,171.6c-.6-8.1,10.1-11.9,33.3-12.4,23.2-.3,34.1,3.1,33.7,11.2-.3,8.3-11,10.3-33.3,10.6-22.3.5-33.1-1.1-33.7-9.4ZM297.5,192.3c-21.1-.7-42.3-.3-63.4,1.1-.2-3.3-.5-6.6-.7-9.9,21.4-1.5,42.9-1.9,64.4-1.1-.1,3.3-.2,6.6-.3,9.9ZM260.4,219.6c-17,.5-24.6-2.6-25.2-10.7,0-.8-.1-1.7-.2-2.5,8.3-.6,13-1.3,21.1-3,0-.6,0-1.3,0-1.9-8.2,1.7-12.8,2.4-21.2,3-.2-3.1-.4-6.2-.7-9.3,21-1.5,42.1-1.8,63.2-1.1-.1,3.1-.2,6.2-.3,9.3-6.3,1.8-14.1,2.7-21.3,2.7v1.9c7.2,0,14.9-.9,21.2-2.7-.1,3.6-.2,7.1-.4,10.7-9.3,2.1-20.9,3.3-36.2,3.8ZM256.9,168.1c-.3.7-.5,1.4-.8,2.1,6,1.5,13,2,18.8,2,0-.7,0-1.4,0-2.1-5.8,0-12.2-.7-18-2Z"/>
          <path class="cls-5" d="M348.8,163.2c14.9,1.7,20.9,8.2,19.6,16.3-1.2,8.1-8.5,12.8-22.7,11.1-14.1-1.6-20.2-7.7-19.6-15.9.6-8.2,7.8-13.2,22.6-11.5ZM324.3,207.3c.1-1.8.3-3.6.4-5.4,5.1.4,9.2.4,13.8,0,0-.5.1-1.1.2-1.6-4.7.4-8.7.3-13.8,0,.3-3.4.5-6.8.8-10.2,10.9.9,21.7,2,32.5,3.5-.7,5.2-1.4,10.3-2.1,15.5-3.2.8-6.5.8-10.9.3,0,.5-.1,1.1-.2,1.6,5.4.6,9.9.9,15.6-.3-.6,4-1.1,8.1-1.7,12.1-5.1,1.2-11.5,1-19.2.1-9.9-1.1-16-7-15.4-15.5ZM339.6,175.8c4.8,2,9.7,3.4,15.3,4.1,0-.7.2-1.4.3-2-5.2-.7-9.8-2.1-14.3-4-.4.6-.8,1.3-1.2,1.9ZM360.5,193.8c9.5,1.3,19,2.9,28.5,4.6-1.8,9.9-3.7,19.8-5.5,29.7-6.8-1.3-13.6-2.4-20.5-3.4.8-5.5,1.6-11,2.5-16.5-2.3-.3-4.6-.7-6.9-1,.6-4.4,1.2-8.9,1.8-13.4ZM367.8,193.1c1.3-8.6,2.6-17.2,3.9-25.8,7.5,1.1,15,2.4,22.5,3.8-1.6,8.5-3.2,17.1-4.8,25.6-7.2-1.3-14.4-2.5-21.6-3.6Z"/>
          <path class="cls-5" d="M453.1,227c-8.3-2.5-16.6-4.9-24.9-7.1,2.1-7.9,4.1-15.8,6.2-23.7-12.5-3.3-25-6.1-37.6-8.6,1-5.1,2-10.3,3-15.4,21.9,4.3,43.7,9.7,65.2,16.4-3.9,12.8-7.9,25.6-11.8,38.4ZM447.8,244c-19.5-6-39.3-11-59.3-14.9,1-5.1,2-10.3,3-15.4,1.9.4,3.9.8,5.8,1.2,1.4-7,2.9-14,4.3-21,8.7,1.8,17.4,3.8,26,5.9-1.7,6.9-3.5,13.9-5.2,20.8,10,2.5,20,5.3,30,8.4-1.5,5-3.1,10-4.6,15Z"/>
          <path class="cls-5" d="M150.8,343.1c9-2.8,18.2-5.2,27.3-7.4,1.6,6.8,3.2,13.6,4.8,20.4-7.2,1.7-14.4,3.6-21.6,5.7-3.1.9-4.8,0-5.7-2.8-1.6-5.3-3.3-10.6-4.9-15.9ZM157.4,364.4c13.8-4.2,27.8-7.7,41.9-10.5.5,2.7,1.1,5.5,1.6,8.2-3.6.7-7.2,1.5-10.8,2.3,1.6,1.1,4.8.8,11.1-.5.5,2.8,1.1,5.6,1.6,8.3-12.4,2.5-16,2.7-24.5.6-.3.4-.7.8-1,1.2,1.4.5,3,.9,4.9,1.1-5.2,2.7-11.3,4.6-19.3,7-.8-2.7-1.7-5.4-2.5-8.1,6.3-1.9,9.1-3.1,10-4.8-3.5,1-7,2-10.5,3.1-.8-2.7-1.6-5.3-2.5-8ZM161.8,350.5c3.7,0,7.3-.3,11.2-1.3-.1-.5-.2-.9-.4-1.4-3.6.9-7,1.2-10.6,1.1,0,.5-.2,1.1-.3,1.6ZM184.9,355.6c-1.6-6.8-3.1-13.6-4.7-20.4,4.9-1.1,9.9-2.2,14.8-3.1.3,1.4.5,2.7.8,4.1,1.4-.3,2.8-.5,4.2-.8.7,3.9,1.4,7.7,2.1,11.6-1.4.2-2.7.5-4,.8.3,1.6.6,3.2.9,4.9-4.7.9-9.4,1.9-14.1,3Z"/>
          <path class="cls-5" d="M248.5,325.1c.9,13.7,1.8,27.3,2.7,41-4.9.3-9.7.7-14.6,1.2-.2-2.1-.4-4.1-.6-6.2-1.1.1-2.2.2-3.3.4-1.5,4.8-5.3,7.5-11.3,8.4-8.4,1.2-14.1-2.5-15.8-11.7-1.7-9.2,2.6-14.9,11.7-16.2,7.3-1,12.5,1.4,14.7,7.2.9-.1,1.8-.2,2.6-.3-.1-1.1-.2-2.1-.3-3.2-1.2.1-2.3.2-3.5.4-.2-2.2-.5-4.4-.7-6.7-9.1,1-18.2,2.3-27.2,4-.7-3.7-1.3-7.3-2-11,1.3-.2,2.6-.5,4-.7.7,1.6,3.9,3.2,6.1,3,.2-.4.4-.7.6-1.1-3.1,0-5.4-1.5-5.7-3.1-.1-.7-.2-1.5-.4-2.2,6.2-1,12.5-1.9,18.8-2.7.1,1.1.3,2.2.4,3.3,1.7-.2,3.5-.4,5.2-.6.2,1.8.4,3.7.6,5.5.8,0,1.7-.2,2.5-.3-.2-2.3-.5-4.7-.7-7,5.3-.6,10.7-1,16.1-1.4ZM214.1,354.5c-.2.5-.5,1-.7,1.5,3.7.9,8,1.1,11.9.6,0-.5-.1-1-.2-1.5-3.9.5-7.7.2-11-.6Z"/>
          <path class="cls-5" d="M253,334.2c-.2-3.1-.4-6.2-.5-9.3,15.8-.9,31.7-.9,47.5,0-.2,3.1-.3,6.2-.5,9.3-4.4-.2-8.9-.4-13.3-.5,1.5,2.7,5.6,3.7,13.1,4.1-.2,3.1-.3,6.2-.5,9.3-13.2-.7-19-1.8-27.1-5.9-.5.3-1,.6-1.5.9,1.2.8,2.8,1.7,4.6,2.4-5.9,1.6-12.3,2.2-21,2.6-.2-3.1-.3-6.2-.5-9.3,7.5-.4,11.6-1.4,13.1-4.1-4.4.1-8.8.3-13.2.5ZM284.1,365.3c-5.2-.1-10.4-.1-15.6,0,0-2.4-.1-4.7-.1-7.1-4.6.1-9.3.3-13.9.5-.2-3.5-.4-7.1-.6-10.6,15-.8,29.9-.9,44.9,0-.2,3.5-.4,7.1-.6,10.6-4.6-.3-9.3-.4-13.9-.5,0,2.4,0,4.7-.1,7.1Z"/>
          <path class="cls-5" d="M300.4,366c.2-4,.5-8.1.7-12.1,1.9-.6,3.9-2.8,4.3-7.6.5-7,1-14,1.5-21,4.5.3,8.9.7,13.4,1.2-.7,7-1.4,13.9-2.2,20.9-.5,4.8.9,7.3,2.9,8.3-.5,4-.9,8.1-1.4,12.1-4.6-.5-8.2-3.8-10.5-6.8-.4.3-.8.5-1.1.8.7.9,2,2.2,2.9,3-3.5,1.3-7.2,1.5-10.6,1.2ZM319.2,349.5c.5-4.5.9-9,1.4-13.4,1.2,0,2.6.2,4,.2.4-3.1.7-6.2,1.1-9.3,4.1.5,8.1,1,12.2,1.6-2,13.5-3.9,27.1-5.9,40.7-3.7-.5-7.3-1-11-1.4l2.1-18c-1.4,0-2.7-.1-3.8-.3ZM344.1,371.2c-3.7-.7-7.3-1.2-11-1.8,2-13.5,4-27.1,6-40.6,4.1.6,8.1,1.3,12.2,2-2.4,13.5-4.8,27-7.2,40.4Z"/>
          <path class="cls-5" d="M352.4,344.2c1.4-7.9,10.5-12.3,26.4-8.4,15.9,4,22,12.1,19.6,19.7-1.1,3.7-3.8,6.4-7.9,7.7l-2.1,7c1.5.4,3,.9,4.5,1.4-1.1,3.5-2.2,7.1-3.2,10.6-13.8-4.2-27.9-7.7-42-10.3.7-3.6,1.4-7.3,2-10.9,1.5.3,3.1.6,4.6.9.5-2.4,1-4.8,1.4-7.2-3-3-4.1-6.7-3.4-10.5ZM369.6,345.9c-.3.4-.6.9-.9,1.3,3.8,2.1,9.6,4,13.6,5,.1-.5.3-1,.4-1.5-4-1.1-9.2-3-13-4.9ZM367.8,361c-.3.4-.6.9-.9,1.3,3.2,2,6.7,3.3,10,4.2.1-.5.3-1,.4-1.5-3.3-.9-6.3-2.2-9.5-4Z"/>
        </g>
      </g>
      <path class="cls-8" d="M501.1,309.3v.2c0,0,.3,0,.3,0,4.3-.9,8.8-.4,12.8,1.6l.4.2v-.6c-1-4.2-.6-8.5,1.3-12.3l.4-.8h-.2c-4.3,1.1-8.8.7-12.8-1.2l-.6-.3c1.1,4.5.6,9.2-1.5,13.3Z"/>
      <path class="cls-8" d="M334.7,166.1v.2c0,0,.3,0,.3,0,4.3-.9,8.8-.4,12.8,1.6l.4.2v-.6c-1-4.2-.6-8.5,1.3-12.3l.4-.8h-.2c-4.3,1.1-8.8.7-12.8-1.2l-.6-.3c1.1,4.5.6,9.2-1.5,13.3Z"/>
      <path class="cls-8" d="M553.4,312.5h0c0,.1.2,0,.2,0,2.8-.6,5.7-.2,8.2,1h.3c0,.1,0-.3,0-.3-.6-2.7-.3-5.5.9-7.9l.2-.5h-.2c-2.8.7-5.7.4-8.3-.8l-.4-.2c.7,2.9.4,5.9-1,8.5Z"/>
      <path class="cls-8" d="M69.3,161.4h.1s0-.2,0-.2c-1-2.7-1-5.6,0-8.3v-.3c.1,0-.3.1-.3.1-2.6.9-5.4,1-8,.1l-.5-.2v.2c1.1,2.7,1.2,5.6.3,8.3v.4c2.6-1.1,5.7-1.1,8.5-.1h0Z"/>
      <path class="cls-8" d="M538.9,364.8h-.1s.2.2.2.2c2.4,1.5,4.2,3.9,5.1,6.6v.3c0,0,.3-.3.3-.3,1.5-2.3,3.7-4.1,6.2-5l.5-.2h-.1c-2.4-1.6-4.3-3.8-5.3-6.5v-.4c-1.7,2.5-4,4.4-6.9,5.3Z"/>
      <path class="cls-8" d="M563.1,608.5l-102.5-110.9c-14.9-14.9-14.9-39,0-53.9,14.9-14.9,39-14.9,53.9,0l102.5,110.9c14.9,14.9,14.9,39,0,53.9-14.9,14.9-39,14.9-53.9,0Z"/>
      <path class="cls-5" d="M511.2,400.8c13.7,13.7,13.7,35.9,0,49.6l-42.4,42.4c-13.7,13.7-35.9,13.7-49.6,0s-13.7-35.9,0-49.6l42.4-42.4c13.7-13.7,35.9-13.7,49.6,0Z"/>
      <path class="cls-8" d="M277.6,0C132.9,0,15.6,117.3,15.6,262s117.3,262,262,262,262-117.3,262-262S422.3,0,277.6,0ZM277.6,480.1c-120.4,0-218.1-97.6-218.1-218.1S157.2,43.9,277.6,43.9s218.1,97.6,218.1,218.1-97.6,218.1-218.1,218.1Z"/>
      <path class="cls-8" d="M51.7,218.7h.2c0,0-.3-.3-.3-.3-4-1.9-7.2-5.1-9.1-9.1l-.2-.4-.3.6c-1.8,3.8-4.9,7-8.7,8.9l-.8.4h.2c4,1.9,7.4,5,9.4,9l.3.5c1.9-4.2,5.2-7.6,9.3-9.6Z"/>
      <path class="cls-8" d="M12.4,184.1h.1c0,0-.2-.2-.2-.2-2.6-1.2-4.6-3.3-5.9-5.9v-.3c-.1,0-.3.4-.3.4-1.2,2.5-3.1,4.5-5.6,5.7l-.5.3h.1c2.6,1.2,4.7,3.2,6,5.8l.2.3c1.2-2.7,3.3-4.9,6-6.2Z"/>
      <path class="cls-2" d="M252.5,74.9l33.2-1.4c7.4-.3,13.6,5.4,14,12.8l1.3,29c.3,7.4-5.4,13.7-12.8,14l-19.4.8.4,10.1-8-9.8-6.2.3c-7.4.3-13.6-5.4-14-12.8l-1.3-29c-.3-7.4,5.4-13.7,12.8-14Z"/>
      <path class="cls-3" d="M255.6,105c-2.2-8.1,2.6-16.4,10.7-18.6,8.1-2.2,16.4,2.6,18.6,10.7,2.2,8.1-2.6,16.4-10.7,18.6-8.1,2.2-16.4-2.6-18.6-10.7Z"/>
      <path class="cls-8" d="M273.1,98.4c0,1.6.7,2.8,1.4,2.8.7,0,1.2-1.3,1.2-2.9,0-1.6-.7-2.8-1.4-2.8-.7,0-1.2,1.3-1.2,2.9Z"/>
      <path class="cls-8" d="M264.7,98.7c0,1.6.7,2.8,1.4,2.8.7,0,1.2-1.3,1.2-2.9,0-1.6-.7-2.8-1.4-2.8-.7,0-1.2,1.3-1.2,2.9Z"/>
      <path class="cls-4" d="M275.9,104s-1.9,2.3-5.5,2.5c-3.6.2-5.6-2-5.6-2"/>
    </g>
  </g>
</svg>