<svg width="983" height="788" viewBox="0 0 983 788" fill="none" xmlns="http://www.w3.org/2000/svg">
<mask id="mask0_620_3621" style="mask-type:luminance" maskUnits="userSpaceOnUse" x="297" y="265" width="376" height="233">
<path d="M672.174 265.99H297.665V497.801H672.174V265.99Z" fill="white"/>
</mask>
<g mask="url(#mask0_620_3621)">
<path d="M323.157 369.317C332.795 366.353 342.487 363.658 352.232 361.239C352.958 364.169 353.684 367.099 354.403 370.023C355.673 369.707 356.943 369.398 358.214 369.089C357.508 366.152 356.809 363.221 356.103 360.291C365.862 357.945 375.668 355.869 385.514 354.074C388.39 369.868 391.274 385.662 394.15 401.456C378.107 404.387 362.179 408.117 346.412 412.64C340.047 414.475 336.539 412.862 334.751 407.089C330.886 394.494 327.015 381.899 323.157 369.317ZM370.553 409.253C372.005 415.335 378.45 417.862 389.318 416.088C402.619 413.796 419.307 410.523 429.569 405.395C430.383 412.761 431.203 420.12 432.016 427.48C420.422 432.01 407.162 435.229 391.247 438.468C361.776 444.618 343.71 442.279 339.805 417.526C349.98 414.435 360.243 411.672 370.553 409.253ZM390.03 353.261C401.073 351.339 412.162 349.759 423.279 348.529C425.255 366.387 427.231 384.244 429.213 402.102C421.968 405.785 408.271 409.945 400.044 410.926C396.704 391.704 393.364 372.483 390.03 353.261Z" fill="#046490"/>
<path d="M435.02 380.676C442.218 379.977 451.312 379.331 457.663 377.221C457.623 376.347 457.576 375.48 457.535 374.613C451.587 376.401 441.553 377.409 434.771 378.081C434.388 374.015 433.999 369.936 433.615 365.869C440.209 365.217 450.613 364.371 456.937 362.771C456.897 361.897 456.85 361.03 456.809 360.163C450.203 361.581 440.336 362.489 433.353 363.174C432.863 357.999 432.372 352.831 431.888 347.656C451.876 345.76 471.938 344.967 491.993 345.297C491.94 348.879 491.879 352.468 491.825 356.057C491.146 380.676 474.963 392.585 436.311 394.312C435.88 389.776 435.45 385.239 435.02 380.696V380.676ZM469.902 394.359C470.157 402.619 475.917 406.396 486.859 406.86C500.287 407.358 512.996 407.23 524.045 404.132C523.427 411.511 522.809 418.897 522.19 426.277C509.958 428.535 500.408 429.268 484.258 429.174C454.316 429.248 437.305 423.266 438.253 396.234C448.785 395.267 459.343 394.642 469.902 394.359ZM496.557 345.371C507.317 345.633 518.084 346.217 528.824 347.118C528.481 351.258 528.132 355.398 527.782 359.538C530.746 359.787 533.71 360.056 536.674 360.358C535.881 368.228 535.088 376.099 534.295 383.975C531.465 383.693 528.636 383.431 525.8 383.189C525.302 389.07 524.818 394.944 524.321 400.825C516.504 403.049 503.358 404.535 495.132 403.869C495.602 384.372 496.08 364.868 496.557 345.371Z" fill="#046490"/>
<path d="M539.678 362.193C540.78 350.788 557.993 347.884 592.982 354.847C627.897 362.24 642.824 371.764 639.329 382.678C635.774 393.99 619.549 392.114 586.771 385.185C553.933 378.652 538.515 373.995 539.678 362.193ZM629.214 412.176C599.104 402.969 568.349 396.678 537.353 393.297C537.857 388.633 538.367 383.969 538.872 379.304C570.742 382.779 602.357 389.245 633.321 398.714C631.949 403.197 630.578 407.687 629.214 412.176ZM567.583 437.158C543.69 432.843 533.797 426.808 534.973 415.187C535.101 413.984 535.236 412.788 535.363 411.585C547.407 412.949 554.209 413.205 566.36 413.238C566.515 412.344 566.669 411.457 566.824 410.563C554.605 410.523 547.763 410.261 535.652 408.89C536.129 404.494 536.613 400.092 537.091 395.69C567.94 399.05 598.547 405.321 628.502 414.475C627.218 418.676 625.941 422.876 624.657 427.07C615.04 427.164 603.796 425.531 593.533 423.118C593.324 423.998 593.116 424.879 592.908 425.759C603.11 428.159 614.294 429.772 623.857 429.671C622.379 434.517 620.907 439.349 619.428 444.195C605.704 443.597 589.117 441.204 567.583 437.158Z" fill="#046490"/>
<path d="M310.535 297.813C319.736 295.232 326.773 297.134 328.635 304.232C330.087 310.361 325.066 315.53 316.201 318.016C307.41 320.49 300.461 319.125 298.471 312.707C296.348 305.898 301.408 300.381 310.535 297.813ZM311.187 336.243C310.502 333.945 309.816 331.64 309.131 329.341C307.753 329.751 306.295 330.195 304.776 330.658C304.016 328.158 303.243 325.658 302.484 323.158C313.21 319.838 319.293 318.251 330.873 314.602C331.518 317.136 332.163 319.67 332.802 322.203C330.268 322.996 327.943 323.675 325.758 324.334C326.404 326.747 327.049 329.153 327.687 331.572C322.176 333.051 316.672 334.61 311.187 336.243ZM307.269 338.831C314.165 336.714 321.087 334.724 328.037 332.869C328.238 333.622 328.44 334.368 328.642 335.121C335.107 333.387 341.593 331.767 348.105 330.255C347.931 329.496 347.756 328.736 347.581 327.983C354.578 326.357 361.587 324.865 368.618 323.494C369.935 330.268 371.252 337.043 372.569 343.818C354.665 347.306 336.881 351.648 319.279 356.836C315.126 358.066 312.794 356.87 311.55 352.817C310.119 348.16 308.694 343.502 307.269 338.831ZM328.494 325.221C332.271 324.146 336.545 322.855 339.691 321.733C339.556 321.182 339.422 320.637 339.288 320.08C337.836 320.53 336.391 320.98 334.939 321.444C332.667 312.371 330.396 303.304 328.124 294.231C333.326 292.927 338.535 291.69 343.757 290.514C346.378 302.236 349.006 313.957 351.627 325.678C344.389 327.305 337.184 329.059 329.993 330.954C329.495 329.039 328.998 327.13 328.494 325.221ZM353.462 325.275C350.874 313.54 348.287 301.819 345.699 290.084C350.955 288.921 356.211 287.833 361.487 286.798C363.779 298.586 366.07 310.381 368.362 322.17C363.389 323.138 358.422 324.173 353.462 325.275Z" fill="#046490"/>
<path d="M369.559 299.144C368.732 294.675 367.905 290.205 367.079 285.736C380.352 283.269 393.68 281.233 407.055 279.613C407.599 284.123 408.143 288.639 408.688 293.149C406.214 293.445 403.741 293.761 401.268 294.09C401.288 294.258 401.308 294.413 401.335 294.581C401.873 298.58 404.864 299.662 409.414 299.11C409.931 303.392 410.442 307.673 410.959 311.947C402.639 312.956 394.668 312.74 386.878 307.189C386.421 307.686 385.964 308.197 385.507 308.701C386.61 309.81 388.297 310.825 389.936 311.571C385.312 314.649 379.351 316.578 373.013 317.754C372.234 313.513 371.44 309.279 370.661 305.045C374.794 304.279 377.63 302.289 376.952 298.317C376.925 298.156 376.898 297.995 376.871 297.833C374.418 298.257 371.985 298.7 369.559 299.144ZM373.779 319.488C380.883 318.171 388.001 316.995 395.132 315.933C395.992 321.666 400.986 323.756 408.52 323.077C417.741 322.163 429.328 320.449 436.459 317.075C436.869 322.264 437.279 327.459 437.688 332.641C429.489 335.558 420.073 337.393 408.795 338.858C387.826 341.647 374.828 338.408 373.779 319.488ZM413.87 320.214C412.27 306.598 410.677 292.988 409.078 279.371C417.129 278.424 425.201 277.63 433.28 276.992C434.274 289.58 435.269 302.162 436.264 314.75C431.25 317.176 419.542 319.878 413.87 320.214Z" fill="#046490"/>
<path d="M438.932 286.422C438.307 278.323 449.047 274.546 472.234 274.048C495.421 273.712 506.275 277.107 505.946 285.225C505.617 293.485 494.957 295.488 472.624 295.811C450.29 296.281 439.557 294.668 438.932 286.422ZM504.494 307.088C483.377 306.369 462.24 306.746 441.156 308.224C440.928 304.931 440.699 301.645 440.464 298.351C461.89 296.846 483.377 296.463 504.837 297.195C504.723 300.495 504.609 303.789 504.494 307.088ZM467.455 334.375C450.438 334.906 442.843 331.815 442.238 323.662C442.185 322.815 442.117 321.969 442.064 321.122C450.391 320.557 455.028 319.825 463.181 318.104C463.161 317.472 463.14 316.834 463.114 316.195C454.928 317.916 450.277 318.648 441.923 319.213C441.708 316.115 441.492 313.01 441.271 309.911C462.3 308.439 483.377 308.063 504.434 308.782C504.333 311.867 504.225 314.952 504.118 318.037C497.807 319.865 490.071 320.705 482.846 320.725C482.846 321.357 482.846 322.002 482.846 322.634C490.051 322.621 497.767 321.774 504.057 319.939C503.936 323.494 503.815 327.05 503.694 330.605C494.406 332.695 482.786 333.952 467.455 334.375Z" fill="#046490"/>
<path d="M555.755 278.014C570.682 279.741 576.596 286.18 575.36 294.325C574.123 302.458 566.858 307.108 552.65 305.469C538.516 303.903 532.48 297.813 533.099 289.533C533.71 281.32 540.895 276.367 555.755 278.014ZM531.264 322.062C531.405 320.255 531.553 318.447 531.694 316.639C536.775 317.049 540.841 317.069 545.492 316.699C545.546 316.155 545.606 315.624 545.653 315.086C540.996 315.456 536.909 315.429 531.822 315.019C532.097 311.618 532.366 308.211 532.642 304.81C543.489 305.684 554.33 306.846 565.137 308.298C564.445 313.453 563.753 318.615 563.06 323.776C559.841 324.563 556.595 324.563 552.166 324.052C552.105 324.59 552.045 325.127 551.978 325.665C557.422 326.297 561.864 326.518 567.59 325.329C567.019 329.361 566.441 333.401 565.87 337.433C560.769 338.636 554.384 338.421 546.641 337.574C536.728 336.492 530.612 330.598 531.264 322.062ZM567.463 308.607C576.993 309.925 586.51 311.47 595.986 313.245C594.145 323.131 592.296 333.018 590.455 342.911C583.66 341.641 576.838 340.491 570.01 339.463C570.836 333.965 571.656 328.468 572.483 322.97C570.198 322.627 567.913 322.291 565.621 321.982C566.233 317.526 566.851 313.07 567.463 308.607ZM574.735 307.875C576.025 299.279 577.309 290.689 578.599 282.093C586.106 283.222 593.607 284.486 601.081 285.884C599.488 294.426 597.895 302.968 596.302 311.511C589.124 310.166 581.939 308.957 574.735 307.875Z" fill="#046490"/>
<path d="M659.989 341.755C651.729 339.208 643.429 336.849 635.088 334.671C637.145 326.76 639.208 318.857 641.272 310.946C628.804 307.687 616.256 304.823 603.655 302.35C604.656 297.222 605.664 292.087 606.666 286.959C628.576 291.254 650.318 296.718 671.791 303.331C667.866 316.135 663.928 328.945 659.989 341.755ZM654.76 358.772C635.229 352.757 615.457 347.79 595.529 343.885C596.53 338.757 597.539 333.623 598.54 328.494C600.469 328.871 602.398 329.261 604.327 329.657C605.772 322.641 607.217 315.631 608.655 308.614C617.345 310.408 625.995 312.391 634.618 314.562C632.87 321.511 631.13 328.447 629.382 335.397C639.423 337.924 649.417 340.72 659.358 343.785C657.832 348.778 656.299 353.772 654.76 358.772Z" fill="#046490"/>
<path d="M357.891 457.872C366.93 455.089 376.037 452.609 385.205 450.438C386.811 457.24 388.417 464.042 390.024 470.836C382.812 472.543 375.627 474.459 368.49 476.563C365.391 477.483 363.678 476.663 362.79 473.787C361.157 468.491 359.531 463.175 357.891 457.872ZM364.457 479.244C378.275 474.99 392.255 471.488 406.355 468.753L407.948 476.959C404.346 477.658 400.743 478.411 397.154 479.211C398.734 480.299 401.913 479.977 408.291 478.727C408.829 481.509 409.373 484.298 409.911 487.074C397.477 489.568 393.881 489.809 385.406 487.706C385.064 488.102 384.727 488.506 384.385 488.902C385.749 489.426 387.429 489.762 389.237 490.031C384.069 492.78 377.926 494.628 369.941 497.082C369.108 494.366 368.275 491.664 367.441 488.949C373.692 487.034 376.555 485.851 377.442 484.144C373.92 485.125 370.412 486.147 366.91 487.229C366.09 484.567 365.27 481.899 364.457 479.244ZM391.999 470.379C390.427 463.571 388.861 456.763 387.281 449.954C392.208 448.812 397.141 447.763 402.101 446.796C402.37 448.173 402.639 449.545 402.901 450.922C404.285 450.653 405.67 450.391 407.061 450.136C407.773 454.007 408.479 457.878 409.192 461.75C407.841 461.998 406.496 462.254 405.146 462.516C405.461 464.136 405.777 465.762 406.087 467.382C401.382 468.289 396.684 469.284 391.999 470.379Z" fill="#046490"/>
<path d="M455.499 439.88C456.393 453.544 457.293 467.207 458.187 480.871C453.321 481.194 448.455 481.604 443.596 482.108C443.388 480.051 443.166 477.994 442.958 475.938C441.869 476.052 440.773 476.166 439.685 476.294C438.186 481.046 434.362 483.848 428.4 484.702C419.965 485.932 414.34 482.188 412.653 473.021C410.946 463.786 415.241 458.107 424.374 456.77C431.653 455.721 436.828 458.188 439.053 463.975C439.933 463.874 440.814 463.786 441.694 463.692C441.587 462.63 441.472 461.569 441.365 460.507C440.209 460.628 439.06 460.755 437.904 460.883C437.655 458.658 437.406 456.44 437.158 454.223C428.071 455.251 419.011 456.575 409.992 458.201C409.333 454.538 408.674 450.876 408.016 447.219C409.34 446.984 410.664 446.749 411.988 446.52C412.714 448.066 415.859 449.726 418.117 449.471C418.305 449.108 418.487 448.738 418.682 448.375C415.597 448.402 413.251 446.924 412.969 445.243C412.848 444.497 412.72 443.765 412.599 443.019C418.83 441.97 425.08 441.063 431.351 440.297C431.485 441.406 431.626 442.515 431.761 443.624C433.501 443.409 435.235 443.207 436.976 443.012C437.178 444.854 437.386 446.695 437.581 448.537C438.421 448.443 439.268 448.355 440.108 448.268C439.866 445.929 439.624 443.59 439.382 441.251C444.752 440.693 450.136 440.236 455.519 439.88H455.499Z" fill="#046490"/>
<path d="M460.056 448.973C459.881 445.862 459.706 442.743 459.531 439.631C475.339 438.738 491.193 438.731 507.001 439.605C506.833 442.716 506.658 445.835 506.484 448.947C502.048 448.705 497.619 448.53 493.183 448.429C494.661 451.124 498.808 452.139 506.289 452.549C506.121 455.661 505.946 458.779 505.771 461.891C492.558 461.219 486.744 460.063 478.699 456.004C478.182 456.306 477.671 456.615 477.154 456.924C478.397 457.751 479.963 458.591 481.724 459.283C475.809 460.87 469.418 461.488 460.775 461.918C460.6 458.806 460.425 455.688 460.25 452.576C467.731 452.166 471.824 451.144 473.296 448.443C468.88 448.55 464.464 448.732 460.056 448.973ZM491.079 480.111C485.884 480.011 480.682 480.011 475.487 480.125C475.433 477.759 475.386 475.393 475.339 473.021C470.701 473.122 466.064 473.296 461.427 473.559C461.225 470.023 461.03 466.502 460.835 462.966C475.782 462.126 490.77 462.113 505.711 462.94C505.516 466.475 505.328 469.997 505.126 473.532C500.489 473.276 495.851 473.102 491.214 473.007C491.173 475.38 491.126 477.746 491.079 480.111Z" fill="#046490"/>
<path d="M507.378 480.77C507.633 476.724 507.875 472.678 508.13 468.639C509.999 468 512.042 465.836 512.391 461.004C512.889 454.014 513.386 447.031 513.884 440.041C518.353 440.364 522.822 440.747 527.285 441.211C526.573 448.18 525.853 455.15 525.134 462.119C524.644 466.945 526.075 469.405 528.071 470.386C527.621 474.412 527.164 478.445 526.714 482.47C522.09 481.946 518.534 478.666 516.189 475.702C515.806 475.971 515.423 476.24 515.04 476.516C515.691 477.369 517.015 478.74 517.963 479.527C514.435 480.81 510.718 480.985 507.378 480.77ZM526.19 464.284C526.66 459.807 527.137 455.325 527.614 450.848C528.817 450.922 530.188 451.03 531.56 451.084C531.922 447.985 532.279 444.887 532.635 441.789C536.701 442.259 540.767 442.79 544.82 443.375C542.857 456.924 540.895 470.48 538.932 484.03C535.263 483.499 531.593 483.021 527.917 482.591C528.609 476.576 529.308 470.568 530 464.546C528.623 464.492 527.298 464.398 526.19 464.284ZM551.07 485.992C547.421 485.34 543.758 484.742 540.088 484.204C542.091 470.655 544.094 457.112 546.097 443.57C550.15 444.175 554.196 444.833 558.242 445.552C555.856 459.028 553.456 472.51 551.07 485.992Z" fill="#046490"/>
<path d="M559.344 459.028C560.741 451.151 569.801 446.742 585.743 450.613C601.665 454.592 607.721 462.725 605.315 470.353C604.179 474.036 601.477 476.704 597.411 478.008C596.725 480.347 596.04 482.679 595.354 485.018C596.866 485.461 598.385 485.918 599.891 486.382C598.809 489.924 597.72 493.466 596.638 497.008C582.806 492.767 568.793 489.319 554.666 486.671C555.345 483.028 556.03 479.392 556.709 475.756C558.248 476.045 559.794 476.341 561.333 476.657C561.803 474.271 562.287 471.878 562.758 469.493C559.787 466.434 558.638 462.819 559.344 459.028Z" fill="#046490"/>
<path d="M323.802 361.501C333.44 358.543 343.139 355.848 352.884 353.436C353.61 356.366 354.329 359.296 355.055 362.22C356.325 361.904 357.602 361.595 358.872 361.292C358.173 358.355 357.468 355.425 356.769 352.488C366.527 350.149 376.34 348.072 386.186 346.278C389.063 362.072 391.932 377.866 394.809 393.667C378.759 396.597 362.824 400.321 347.05 404.837C340.685 406.672 337.17 405.052 335.389 399.279C331.525 386.677 327.667 374.089 323.802 361.501ZM371.185 401.456C372.63 407.539 379.082 410.066 389.95 408.298C403.264 406.007 419.952 402.74 430.221 397.612C431.035 404.978 431.848 412.338 432.661 419.697C421.061 424.227 407.794 427.439 391.865 430.679C362.374 436.822 344.301 434.476 340.417 409.716C350.612 406.625 360.862 403.869 371.185 401.456ZM349.618 380.642C357.326 380.87 364.914 380.138 373.073 378.343C372.865 377.396 372.657 376.448 372.448 375.494C364.813 377.174 357.689 377.57 350.33 377.436C350.088 378.505 349.853 379.573 349.618 380.642ZM390.682 345.471C401.731 343.556 412.814 341.976 423.937 340.74C425.907 358.597 427.883 376.455 429.858 394.312C422.607 397.995 408.903 402.149 400.676 403.13C397.343 383.908 394.016 364.693 390.682 345.471Z" fill="#FF5B4E" stroke="#046490" stroke-width="1.34418" stroke-miterlimit="10" stroke-linejoin="round"/>
<path d="M435.686 372.899C442.884 372.2 451.984 371.562 458.342 369.451C458.301 368.578 458.254 367.711 458.214 366.844C452.259 368.625 442.225 369.64 435.444 370.305C435.06 366.239 434.677 362.159 434.288 358.093C440.887 357.441 451.285 356.594 457.623 354.995C457.582 354.121 457.535 353.254 457.495 352.387C450.888 353.805 441.015 354.713 434.039 355.391C433.548 350.216 433.058 345.048 432.574 339.873C452.568 337.977 472.637 337.191 492.692 337.514C492.639 341.096 492.578 344.685 492.524 348.274C491.845 372.893 475.661 384.802 436.989 386.529C436.546 381.979 436.116 377.443 435.686 372.899ZM470.574 386.59C470.829 394.85 476.596 398.627 487.537 399.091C500.966 399.588 513.688 399.46 524.738 396.355C524.119 403.735 523.501 411.121 522.883 418.501C510.644 420.759 501.093 421.498 484.93 421.397C454.975 421.471 437.95 415.483 438.905 388.458C449.443 387.497 460.008 386.872 470.574 386.59ZM497.242 337.594C508.009 337.857 518.769 338.441 529.509 339.335C529.167 343.475 528.817 347.615 528.468 351.755C531.432 352.004 534.396 352.28 537.359 352.575C536.566 360.445 535.78 368.316 534.987 376.186C532.157 375.904 529.321 375.641 526.492 375.4C526.001 381.28 525.51 387.154 525.02 393.035C517.203 395.26 504.051 396.745 495.817 396.086C496.288 376.596 496.758 357.098 497.242 337.594Z" fill="#FF5B4E" stroke="#046490" stroke-width="1.34418" stroke-miterlimit="10" stroke-linejoin="round"/>
<path d="M540.37 354.41C541.473 343.005 558.692 340.101 593.681 347.044C628.609 354.424 643.536 363.94 640.048 374.855C636.5 386.166 620.269 384.305 587.477 377.382C554.619 370.863 539.208 366.212 540.37 354.41ZM629.953 404.367C599.83 395.172 569.062 388.888 538.058 385.521C538.562 380.857 539.073 376.193 539.577 371.522C571.455 374.99 603.09 381.448 634.053 390.898C632.689 395.388 631.318 399.884 629.953 404.367ZM568.309 429.382C544.403 425.074 534.496 419.038 535.679 407.411C535.807 406.208 535.941 405.012 536.069 403.809C548.113 405.173 554.914 405.429 567.079 405.455C567.234 404.562 567.388 403.674 567.543 402.781C555.318 402.747 548.469 402.478 536.358 401.114C536.835 396.718 537.312 392.316 537.79 387.921C568.652 391.274 599.272 397.531 629.241 406.679C627.964 410.879 626.68 415.08 625.403 419.274C615.779 419.374 604.528 417.741 594.265 415.335C594.057 416.216 593.849 417.096 593.64 417.976C603.849 420.369 615.033 421.982 624.61 421.868C623.138 426.714 621.666 431.553 620.188 436.392C606.457 435.807 589.856 433.414 568.309 429.382ZM578.565 356.635C577.96 357.549 577.362 358.463 576.757 359.377C585.253 363.322 595.462 366.346 604.017 368.363C604.246 367.381 604.474 366.407 604.703 365.426C596.1 363.403 586.919 360.284 578.565 356.635Z" fill="#FF5B4E" stroke="#046490" stroke-width="1.34418" stroke-miterlimit="10" stroke-linejoin="round"/>
<path d="M310.482 290.01C319.689 287.429 326.726 289.331 328.581 296.435C330.026 302.565 325.006 307.733 316.141 310.22C307.343 312.693 300.4 311.322 298.404 304.904C296.281 298.096 301.348 292.578 310.482 290.01ZM311.114 328.434C310.428 326.128 309.743 323.83 309.057 321.525C307.679 321.935 306.221 322.378 304.695 322.842C303.936 320.342 303.163 317.842 302.403 315.341C313.13 312.021 319.226 310.442 330.799 306.799C331.444 309.333 332.09 311.867 332.728 314.4C330.194 315.187 327.869 315.872 325.685 316.531C326.33 318.944 326.975 321.35 327.613 323.763C322.102 325.241 316.598 326.794 311.114 328.434ZM307.195 331.021C314.091 328.904 321.02 326.922 327.97 325.067C328.171 325.819 328.373 326.565 328.574 327.318C335.04 325.591 341.539 323.964 348.045 322.459C347.87 321.699 347.695 320.94 347.521 320.187C354.517 318.561 361.534 317.069 368.571 315.698C369.881 322.472 371.205 329.247 372.516 336.022C354.598 339.51 336.814 343.845 319.206 349.027C315.052 350.257 312.72 349.06 311.477 345.008C310.052 340.343 308.62 335.686 307.195 331.021ZM305.408 301.826C310.132 302.35 316 301.348 320.59 300.119C320.409 299.44 320.227 298.754 320.039 298.069C315.435 299.299 310.314 299.87 306.221 299.594C305.952 300.34 305.676 301.086 305.408 301.826ZM331.874 335.43C337.769 335.618 344.348 334.63 349.671 333.394C349.51 332.708 349.349 332.016 349.194 331.33C343.851 332.574 337.829 333.199 332.116 333.179C332.036 333.931 331.955 334.684 331.874 335.43ZM328.433 317.411C332.211 316.336 336.485 315.052 339.637 313.923C339.503 313.372 339.368 312.828 339.241 312.27C337.789 312.72 336.344 313.171 334.892 313.634C332.627 304.561 330.362 295.495 328.091 286.421C333.293 285.117 338.501 283.881 343.73 282.711C346.351 294.433 348.966 306.154 351.587 317.875C344.348 319.502 337.13 321.256 329.939 323.144C329.441 321.236 328.937 319.32 328.433 317.411ZM353.408 317.472C350.821 305.737 348.24 294.016 345.659 282.281C350.915 281.119 356.177 280.03 361.446 279.001C363.732 290.797 366.023 302.585 368.309 314.38C363.335 315.348 358.368 316.383 353.408 317.472Z" fill="#FFBE4E" stroke="#046490" stroke-width="1.34418" stroke-miterlimit="10" stroke-linejoin="round"/>
<path d="M369.518 291.361C368.691 286.892 367.865 282.422 367.038 277.953C380.312 275.493 393.653 273.457 407.028 271.844C407.565 276.353 408.116 280.87 408.654 285.386C406.174 285.689 403.707 285.998 401.234 286.327C401.254 286.495 401.274 286.65 401.301 286.818C401.839 290.817 404.83 291.906 409.38 291.348C409.897 295.629 410.408 299.91 410.926 304.185C402.605 305.186 394.627 304.978 386.838 299.426C386.381 299.924 385.924 300.434 385.467 300.932C386.569 302.041 388.256 303.062 389.896 303.802C385.272 306.88 379.304 308.802 372.966 309.978C372.186 305.737 371.4 301.503 370.62 297.262C374.754 296.496 377.597 294.507 376.911 290.535C376.884 290.373 376.857 290.212 376.83 290.051C374.397 290.474 371.958 290.904 369.525 291.361H369.518ZM373.739 311.705C380.843 310.395 387.96 309.212 395.105 308.157C395.965 313.89 400.959 315.98 408.486 315.301C417.707 314.387 429.294 312.673 436.438 309.299C436.848 314.488 437.258 319.683 437.661 324.865C429.455 327.782 420.039 329.617 408.755 331.082C387.779 333.858 374.774 330.625 373.739 311.705ZM413.849 312.438C412.25 298.821 410.664 285.212 409.064 271.595C417.122 270.654 425.194 269.854 433.273 269.216C434.267 281.804 435.255 294.386 436.25 306.974C431.23 309.393 419.515 312.095 413.849 312.438Z" fill="#FFBE4E" stroke="#046490" stroke-width="1.34418" stroke-miterlimit="10" stroke-linejoin="round"/>
<path d="M438.918 278.645C438.293 270.547 449.04 266.769 472.227 266.272C495.421 265.936 506.282 269.33 505.946 277.449C505.617 285.709 494.957 287.712 472.617 288.034C450.277 288.505 439.543 286.885 438.918 278.645ZM504.501 299.312C483.384 298.593 462.226 298.969 441.136 300.448C440.908 297.155 440.679 293.868 440.444 290.575C461.877 289.076 483.37 288.686 504.837 289.426C504.723 292.719 504.609 296.019 504.501 299.312ZM467.442 326.599C450.425 327.123 442.816 324.032 442.218 315.886C442.165 315.039 442.097 314.192 442.044 313.345C450.371 312.781 455.008 312.048 463.174 310.334C463.154 309.703 463.134 309.057 463.107 308.426C454.914 310.146 450.263 310.872 441.909 311.443C441.694 308.345 441.479 305.24 441.257 302.142C462.287 300.67 483.377 300.293 504.44 301.013C504.34 304.097 504.232 307.182 504.125 310.267C497.814 312.095 490.071 312.935 482.839 312.956C482.839 313.587 482.839 314.233 482.839 314.864C490.044 314.851 497.767 314.004 504.051 312.169C503.93 315.725 503.809 319.28 503.688 322.835C494.413 324.926 482.779 326.176 467.442 326.599ZM463.907 275.097C463.645 275.816 463.382 276.528 463.12 277.241C469.136 278.739 476.159 279.25 481.946 279.243C481.946 278.538 481.946 277.832 481.939 277.126C476.132 277.133 469.781 276.394 463.907 275.097Z" fill="#FFBE4E" stroke="#046490" stroke-width="1.34418" stroke-miterlimit="10" stroke-linejoin="round"/>
<path d="M555.768 270.238C570.702 271.965 576.623 278.403 575.387 286.549C574.157 294.681 566.885 299.332 552.677 297.692C538.536 296.126 532.5 290.037 533.119 281.764C533.73 273.544 540.915 268.598 555.768 270.238ZM531.284 314.293C531.425 312.485 531.573 310.677 531.714 308.869C536.795 309.279 540.868 309.299 545.519 308.93C545.573 308.385 545.633 307.854 545.687 307.31C541.023 307.68 536.943 307.653 531.849 307.25C532.124 303.849 532.393 300.441 532.668 297.034C543.523 297.907 554.364 299.063 565.178 300.522C564.485 305.677 563.8 310.839 563.107 316C559.888 316.787 556.642 316.787 552.206 316.276C552.146 316.813 552.085 317.351 552.018 317.889C557.462 318.521 561.911 318.742 567.631 317.553C567.059 321.585 566.488 325.625 565.91 329.657C560.802 330.86 554.417 330.645 546.675 329.798C536.755 328.716 530.632 322.822 531.284 314.293ZM546.581 282.832C551.346 284.876 556.292 286.213 561.871 286.912C561.958 286.233 562.039 285.554 562.126 284.882C556.918 284.23 552.347 282.785 547.791 280.904C547.387 281.542 546.984 282.187 546.581 282.832ZM567.49 300.838C577.026 302.155 586.537 303.701 596.02 305.469C594.178 315.355 592.337 325.248 590.502 335.128C583.7 333.858 576.879 332.708 570.043 331.687C570.87 326.189 571.69 320.691 572.51 315.194C570.225 314.851 567.94 314.522 565.648 314.206C566.26 309.756 566.871 305.3 567.49 300.838ZM574.762 300.099C576.052 291.502 577.329 282.906 578.619 274.317C586.133 275.439 593.634 276.703 601.108 278.101C599.515 286.643 597.922 295.192 596.336 303.735C589.171 302.397 581.973 301.187 574.762 300.099Z" fill="#FFBE4E" stroke="#046490" stroke-width="1.34418" stroke-miterlimit="10" stroke-linejoin="round"/>
<path d="M660.063 333.952C651.797 331.411 643.49 329.052 635.149 326.875C637.212 318.964 639.262 311.06 641.326 303.15C628.852 299.897 616.304 297.034 603.695 294.561C604.697 289.433 605.698 284.298 606.699 279.17C628.616 283.458 650.358 288.908 671.852 295.522C667.92 308.332 663.995 321.148 660.063 333.952ZM654.841 350.976C635.297 344.961 615.517 340.007 595.583 336.103C596.584 330.968 597.586 325.84 598.594 320.712C600.523 321.088 602.459 321.478 604.381 321.874C605.826 314.858 607.264 307.848 608.709 300.831C617.399 302.619 626.062 304.602 634.679 306.772C632.938 313.722 631.197 320.658 629.456 327.607C639.504 330.134 649.505 332.924 659.445 335.982C657.906 340.982 656.374 345.982 654.841 350.976Z" fill="#FFBE4E" stroke="#046490" stroke-width="1.34418" stroke-miterlimit="10" stroke-linejoin="round"/>
<path d="M357.837 450.055C366.884 447.273 375.997 444.806 385.158 442.642C386.757 449.444 388.364 456.245 389.963 463.047C382.745 464.754 375.554 466.663 368.409 468.766C365.311 469.687 363.597 468.86 362.717 465.984C361.084 460.674 359.457 455.372 357.837 450.055ZM364.384 471.441C378.208 467.194 392.201 463.699 406.309 460.97C406.84 463.705 407.364 466.441 407.895 469.176C404.286 469.875 400.683 470.628 397.094 471.428C398.68 472.517 401.859 472.187 408.238 470.944C408.775 473.726 409.313 476.516 409.857 479.291C397.417 481.785 393.814 482.02 385.339 479.916C384.997 480.313 384.654 480.716 384.311 481.113C385.675 481.637 387.356 481.973 389.17 482.242C383.995 484.991 377.846 486.839 369.861 489.285C369.034 486.57 368.194 483.868 367.368 481.153C373.625 479.237 376.488 478.061 377.382 476.354C373.86 477.329 370.345 478.357 366.837 479.432C366.017 476.757 365.197 474.096 364.384 471.441ZM368.772 457.455C372.476 457.542 376.112 457.119 379.99 456.124C379.869 455.654 379.748 455.183 379.627 454.72C375.997 455.654 372.583 455.902 369.061 455.862C368.967 456.393 368.866 456.924 368.772 457.455ZM391.946 462.576C390.373 455.768 388.807 448.96 387.241 442.151C392.168 441.009 397.108 439.967 402.061 439.006C402.33 440.384 402.592 441.755 402.861 443.133C404.245 442.864 405.63 442.602 407.021 442.346C407.733 446.218 408.439 450.089 409.145 453.96C407.794 454.209 406.443 454.457 405.099 454.726C405.415 456.346 405.731 457.973 406.04 459.592C401.335 460.5 396.63 461.501 391.946 462.576Z" fill="#FFBE4E" stroke="#046490" stroke-width="1.34418" stroke-miterlimit="10" stroke-linejoin="round"/>
<path d="M455.492 432.104C456.386 445.767 457.28 459.431 458.174 473.095C453.301 473.417 448.435 473.827 443.576 474.331C443.367 472.275 443.146 470.218 442.937 468.161C441.848 468.276 440.746 468.397 439.657 468.518C438.159 473.276 434.328 476.065 428.366 476.926C419.925 478.155 414.299 474.405 412.613 465.238C410.912 456.003 415.214 450.324 424.347 448.993C431.626 447.945 436.808 450.412 439.032 456.205C439.913 456.104 440.793 456.017 441.674 455.923C441.566 454.861 441.452 453.799 441.344 452.737C440.188 452.858 439.039 452.979 437.883 453.113C437.634 450.889 437.386 448.671 437.137 446.453C428.05 447.474 418.977 448.799 409.958 450.425C409.299 446.762 408.647 443.099 407.989 439.443C409.313 439.208 410.637 438.973 411.967 438.744C412.693 440.297 415.839 441.943 418.097 441.695C418.285 441.332 418.466 440.962 418.661 440.599C415.576 440.626 413.231 439.147 412.949 437.46C412.828 436.714 412.7 435.982 412.579 435.236C418.816 434.187 425.066 433.287 431.337 432.52C431.471 433.629 431.613 434.738 431.747 435.847C433.488 435.632 435.228 435.437 436.969 435.236C437.171 437.077 437.372 438.919 437.574 440.76C438.414 440.666 439.261 440.579 440.101 440.491C439.859 438.153 439.617 435.814 439.375 433.475C444.718 432.91 450.102 432.453 455.492 432.104ZM421.121 461.467C420.879 461.965 420.637 462.455 420.395 462.953C424.065 463.887 428.413 464.008 432.305 463.511C432.244 463.013 432.177 462.523 432.117 462.019C428.212 462.523 424.394 462.173 421.121 461.467Z" fill="#FFBE4E" stroke="#046490" stroke-width="1.34418" stroke-miterlimit="10" stroke-linejoin="round"/>
<path d="M460.042 441.197C459.867 438.086 459.692 434.967 459.518 431.855C475.332 430.968 491.193 430.955 507.008 431.828C506.84 434.94 506.665 438.059 506.497 441.17C502.061 440.928 497.632 440.754 493.189 440.646C494.668 443.341 498.815 444.356 506.302 444.759C506.134 447.871 505.959 450.99 505.784 454.101C492.571 453.436 486.751 452.273 478.692 448.214C478.175 448.516 477.664 448.826 477.147 449.135C478.39 449.961 479.956 450.801 481.717 451.494C475.802 453.08 469.411 453.698 460.754 454.128C460.58 451.017 460.405 447.898 460.23 444.786C467.717 444.376 471.81 443.355 473.282 440.653C468.866 440.767 464.451 440.949 460.042 441.197ZM491.086 472.335C485.884 472.234 480.682 472.234 475.48 472.342C475.426 469.976 475.379 467.61 475.332 465.238C470.694 465.339 466.05 465.514 461.413 465.776C461.218 462.24 461.016 458.719 460.821 455.184C475.775 454.343 490.77 454.33 505.724 455.157C505.529 458.692 505.341 462.214 505.139 465.749C500.502 465.493 495.858 465.319 491.22 465.225C491.173 467.604 491.126 469.97 491.086 472.335Z" fill="#FFBE4E" stroke="#046490" stroke-width="1.34418" stroke-miterlimit="10" stroke-linejoin="round"/>
<path d="M507.391 473.001C507.64 468.955 507.888 464.909 508.137 460.869C510.006 460.231 512.049 458.067 512.398 453.234C512.896 446.245 513.393 439.262 513.883 432.272C518.36 432.595 522.829 432.978 527.292 433.435C526.573 440.404 525.86 447.374 525.141 454.343C524.65 459.169 526.089 461.629 528.085 462.61C527.634 466.636 527.184 470.662 526.727 474.694C522.096 474.17 518.541 470.89 516.195 467.933C515.812 468.202 515.429 468.471 515.046 468.74C515.698 469.593 517.022 470.964 517.97 471.751C514.435 473.034 510.725 473.216 507.391 473.001ZM526.21 456.508C526.687 452.031 527.157 447.549 527.628 443.072C528.831 443.146 530.202 443.254 531.58 443.308C531.936 440.209 532.299 437.111 532.648 434.013C536.714 434.483 540.781 435.014 544.84 435.599C542.884 449.148 540.928 462.704 538.966 476.254C535.296 475.723 531.62 475.245 527.937 474.822L530.02 456.776C528.643 456.729 527.319 456.635 526.21 456.508ZM551.111 478.216C547.454 477.564 543.792 476.973 540.122 476.428C542.118 462.879 544.121 449.336 546.117 435.794C550.176 436.392 554.222 437.051 558.268 437.77C555.882 451.252 553.497 464.727 551.111 478.216Z" fill="#FFBE4E" stroke="#046490" stroke-width="1.34418" stroke-miterlimit="10" stroke-linejoin="round"/>
<path d="M559.377 451.238C560.775 443.361 569.835 438.952 585.784 442.81C601.712 446.782 607.781 454.915 605.375 462.543C604.239 466.233 601.538 468.894 597.478 470.198L595.428 477.215C596.94 477.658 598.459 478.115 599.972 478.572C598.89 482.114 597.807 485.656 596.725 489.198C582.88 484.957 568.861 481.523 554.72 478.875C555.399 475.232 556.077 471.596 556.756 467.96C558.302 468.249 559.841 468.545 561.38 468.854C561.851 466.468 562.335 464.082 562.805 461.689C559.828 458.645 558.678 455.036 559.377 451.238ZM576.59 452.871C576.28 453.315 575.978 453.759 575.669 454.202C579.513 456.299 585.273 458.181 589.232 459.243C589.359 458.759 589.487 458.275 589.615 457.791C585.643 456.729 580.373 454.814 576.59 452.871ZM574.761 468.007C574.459 468.451 574.157 468.894 573.854 469.338C577.026 471.3 580.535 472.631 583.841 473.498C583.962 473.014 584.097 472.53 584.218 472.046C580.898 471.172 577.873 469.808 574.761 468.007Z" fill="#FFBE4E" stroke="#046490" stroke-width="1.34418" stroke-miterlimit="10" stroke-linejoin="round"/>
</g>
<path d="M708.091 416.31L707.997 416.505L708.366 416.424C712.695 415.476 717.211 416.048 721.163 418.044L721.593 418.259L721.452 417.64C720.545 413.48 721.035 409.145 722.85 405.294L723.22 404.501L722.971 404.568C718.676 405.63 714.14 405.173 710.134 403.285L709.583 403.022C710.699 407.492 710.161 412.203 708.091 416.31Z" fill="#046490"/>
<path d="M541.688 273.08L541.594 273.275L541.964 273.194C546.292 272.247 550.808 272.818 554.76 274.814L555.19 275.029L555.056 274.411C554.142 270.251 554.639 265.916 556.454 262.065L556.824 261.272L556.575 261.339C552.28 262.401 547.744 261.944 543.745 260.055L543.194 259.793C544.296 264.262 543.758 268.974 541.688 273.08Z" fill="#046490"/>
<path d="M760.36 419.542L760.299 419.67L760.541 419.616C763.323 419.005 766.227 419.374 768.774 420.658L769.05 420.799L768.962 420.403C768.378 417.728 768.693 414.939 769.863 412.459L770.105 411.948L769.944 411.988C767.181 412.667 764.264 412.378 761.69 411.161L761.334 410.993C762.04 413.863 761.704 416.894 760.36 419.542Z" fill="#046490"/>
<path d="M276.252 268.355L276.387 268.402L276.306 268.174C275.351 265.492 275.351 262.562 276.306 259.874L276.413 259.578L276.03 259.712C273.449 260.626 270.64 260.667 268.039 259.82L267.501 259.645L267.562 259.8C268.584 262.454 268.664 265.385 267.777 268.093L267.656 268.47C270.418 267.408 273.47 267.367 276.259 268.355H276.252Z" fill="#046490"/>
<path d="M745.937 471.838L745.802 471.885L746.004 472.019C748.403 473.552 750.198 475.87 751.092 478.579L751.186 478.881L751.408 478.539C752.886 476.233 755.084 474.479 757.658 473.558L758.189 473.37L758.048 473.283C755.615 471.811 753.753 469.546 752.792 466.864L752.658 466.495C751.132 469.008 748.746 470.91 745.937 471.838Z" fill="#046490"/>
<path d="M770.105 715.504L667.611 604.623C652.724 589.736 652.724 565.601 667.611 550.714C682.498 535.828 706.632 535.828 721.519 550.714L824.013 661.596C838.9 676.483 838.9 700.618 824.013 715.504C809.12 730.391 784.985 730.391 770.105 715.504Z" fill="#046490"/>
<path d="M718.172 507.775C731.876 521.478 731.876 543.691 718.172 557.395L675.803 599.764C662.099 613.468 639.887 613.468 626.183 599.764C612.479 586.06 612.479 563.847 626.183 550.143L668.552 507.775C682.249 494.071 704.468 494.071 718.172 507.775Z" fill="#FFBE4E" stroke="#046490" stroke-width="1.34418" stroke-miterlimit="10" stroke-linejoin="round"/>
<path d="M484.594 107C339.899 107 222.599 224.3 222.599 368.995C222.599 513.689 339.899 630.982 484.594 630.982C629.288 630.982 746.588 513.682 746.588 368.988C746.588 224.293 629.288 107 484.594 107ZM484.594 587.061C364.155 587.061 266.52 489.427 266.52 368.988C266.52 248.549 364.155 150.914 484.594 150.914C605.032 150.914 702.667 248.549 702.667 368.988C702.667 489.427 605.032 587.061 484.594 587.061Z" fill="#046490"/>
<path d="M258.677 325.732L258.872 325.638L258.529 325.476C254.53 323.574 251.311 320.355 249.409 316.356L249.2 315.919L248.932 316.49C247.103 320.335 244.059 323.46 240.262 325.389L239.482 325.785L239.717 325.886C243.763 327.681 247.07 330.819 249.073 334.765L249.348 335.309C251.217 331.102 254.523 327.708 258.677 325.732Z" fill="#046490"/>
<path d="M219.353 291.146L219.481 291.086L219.259 290.978C216.685 289.755 214.615 287.685 213.392 285.111L213.257 284.828L213.082 285.198C211.906 287.671 209.944 289.681 207.504 290.924L207 291.18L207.148 291.247C209.749 292.403 211.879 294.419 213.163 296.96L213.345 297.309C214.548 294.607 216.671 292.416 219.353 291.146Z" fill="#046490"/>
<path d="M459.498 181.871L492.706 180.439C500.099 180.117 506.356 185.856 506.672 193.249L507.929 222.277C508.251 229.677 502.512 235.927 495.119 236.243L475.675 237.083L476.112 247.198L468.1 237.412L461.917 237.681C454.524 238.004 448.267 232.264 447.951 224.871L446.694 195.844C446.372 188.451 452.111 182.193 459.498 181.871Z" fill="#FF5B4E" stroke="#046490" stroke-width="1.34418" stroke-linecap="round" stroke-linejoin="round"/>
<path d="M462.589 212.034C460.405 203.929 465.204 195.588 473.303 193.404C481.408 191.219 489.749 196.018 491.933 204.117C494.117 212.222 489.319 220.563 481.22 222.747C473.121 224.938 464.781 220.139 462.589 212.034Z" fill="#FFBE4E" stroke="#046490" stroke-width="1.34418" stroke-linecap="round" stroke-linejoin="round"/>
<path d="M480.091 205.367C480.158 206.933 480.783 208.177 481.489 208.143C482.195 208.109 482.712 206.819 482.645 205.253C482.578 203.687 481.953 202.444 481.247 202.477C480.534 202.504 480.024 203.801 480.091 205.367Z" fill="#046490"/>
<path d="M471.669 205.73C471.736 207.296 472.362 208.539 473.067 208.506C473.773 208.472 474.29 207.182 474.223 205.616C474.156 204.05 473.531 202.806 472.825 202.84C472.113 202.867 471.602 204.164 471.669 205.73Z" fill="#046490"/>
<path d="M482.934 211.026C482.934 211.026 481.065 213.358 477.469 213.513C473.881 213.667 471.864 211.503 471.864 211.503" stroke="#046490" stroke-width="1.34418" stroke-linecap="round" stroke-linejoin="round"/>
</svg>
