<?xml version="1.0" encoding="UTF-8"?>
<svg id="_레이어_1" data-name="레이어_1" xmlns="http://www.w3.org/2000/svg" version="1.1" viewBox="0 0 125.4 130">
  <!-- Generator: Adobe Illustrator 29.0.1, SVG Export Plug-In . SVG Version: 2.1.0 Build 192)  -->
  <defs>
    <style>
      .st0 {
        fill: #e7c549;
      }
    </style>
  </defs>
  <path class="st0" d="M79.3,75.4c2.6-1.8,5.6-3.1,8.9-3.7l37.3-6.7-37.3-6.7c-3.2-.6-6.2-1.9-8.9-3.7l15.6-23-22.2,16.2c-1.7-2.7-3-5.8-3.5-9.2L62.7,0l-6.5,38.7c-.6,3.4-1.8,6.5-3.5,9.2l-22.2-16.2,15.6,23c-2.6,1.8-5.6,3.1-8.9,3.7L0,65l37.3,6.7c3.2.6,6.2,1.9,8.9,3.7l-15.6,23,22.2-16.2c1.7,2.7,3,5.8,3.5,9.2l6.5,38.7,6.5-38.7c.6-3.4,1.8-6.5,3.5-9.2l22.2,16.2-15.6-23h0Z"/>
</svg>