<svg width="143" height="143" viewBox="0 0 143 143" fill="none" xmlns="http://www.w3.org/2000/svg">
<path d="M142.807 70.105C142.8 69.7903 142.793 69.4708 142.783 69.1562C142.778 68.9664 142.771 68.779 142.764 68.5868C142.759 68.4379 142.752 68.2865 142.747 68.1376C142.737 67.955 142.73 67.7748 142.72 67.5923C142.696 67.1286 142.668 66.6674 142.634 66.2086C142.62 66.0164 142.605 65.8194 142.588 65.6248C142.574 65.4495 142.559 65.2741 142.545 65.0987C142.535 64.981 142.526 64.8609 142.514 64.7432C142.48 64.4021 142.447 64.0586 142.411 63.7174C142.406 63.6814 142.401 63.6478 142.399 63.6166C142.363 63.2898 142.326 62.9655 142.286 62.6412C142.173 61.7116 142.041 60.7891 141.889 59.8714C141.856 59.6624 141.82 59.4534 141.786 59.2468C141.752 59.0451 141.716 58.8433 141.68 58.6391C141.68 58.6247 141.675 58.6102 141.673 58.5982C141.637 58.4061 141.601 58.2091 141.565 58.0169C141.241 56.3089 140.856 54.6225 140.412 52.9601C140.354 52.7415 140.294 52.5253 140.234 52.3067C140.196 52.1698 140.16 52.0329 140.119 51.8959C140.061 51.6966 140.003 51.4972 139.946 51.2954C139.871 51.0311 139.792 50.7693 139.71 50.5074C139.631 50.2456 139.552 49.9837 139.465 49.7219C132.463 27.7268 115.094 10.3585 93.0994 3.35595C86.2602 1.1747 78.9718 0 71.4095 0C63.8472 0 56.5587 1.1747 49.7195 3.35355C27.7244 10.3561 10.3561 27.7268 3.35355 49.7195C1.1747 56.5587 0 63.8496 0 71.4095C0 78.9694 1.1747 86.2602 3.35355 93.0994C6.95693 104.416 13.3037 114.508 21.6107 122.592C29.4517 130.221 39.0391 136.066 49.7171 139.465C56.5563 141.644 63.8448 142.819 71.4071 142.819C78.9694 142.819 86.2578 141.644 93.097 139.465C115.092 132.463 132.46 115.094 139.463 93.0994C141.642 86.2602 142.817 78.9718 142.817 71.4095C142.817 70.9747 142.812 70.5398 142.805 70.1026L142.807 70.105ZM60.7122 104.969C49.8684 101.517 41.302 92.9505 37.8499 82.1067C36.7737 78.7339 36.1948 75.1402 36.1948 71.4095C36.1948 67.6788 36.7737 64.085 37.8499 60.7146C41.302 49.8708 49.8684 41.3044 60.7122 37.8524C64.085 36.7761 67.6788 36.1972 71.4071 36.1972C75.1354 36.1972 78.7315 36.7761 82.1019 37.8524C92.9481 41.3044 101.512 49.8708 104.964 60.7146C106.04 64.0874 106.619 67.6812 106.619 71.4095C106.619 75.1378 106.04 78.7339 104.964 82.1067C101.512 92.9529 92.9457 101.517 82.1019 104.969C78.7291 106.045 75.1354 106.624 71.4071 106.624C67.6788 106.624 64.0826 106.045 60.7122 104.969Z" fill="#FCF9FA"/>
<path d="M93.0987 3.35595L82.6369 36.1828L82.1036 37.8524C78.7308 36.7761 75.137 36.1972 71.4087 36.1972C67.6804 36.1972 64.0842 36.7761 60.7139 37.8524L60.2094 36.2741L49.7188 3.35595C56.558 1.1747 63.8464 0 71.4087 0C78.971 0 86.2595 1.1747 93.0987 3.35355V3.35595Z" fill="#3FA4F2"/>
<path d="M36.1948 71.4096C36.1948 75.1403 36.7737 78.7341 37.8499 82.1068L36.3582 82.5825L3.35355 93.0995C1.1747 86.2603 0 78.9719 0 71.4096C0 63.8473 1.1747 56.5588 3.35355 49.7196L36.363 60.2391L37.8499 60.7123C36.7737 64.0851 36.1948 67.6789 36.1948 71.4072V71.4096Z" fill="#3FA4F2"/>
<path d="M93.0987 139.466C86.2595 141.644 78.971 142.819 71.4087 142.819C63.8464 142.819 56.558 141.644 49.7188 139.466L60.2046 106.567L60.7139 104.969C64.0866 106.045 67.6804 106.624 71.4087 106.624C75.137 106.624 78.7332 106.045 82.1036 104.969L82.6417 106.66L93.0987 139.466Z" fill="#3FA4F2"/>
<path d="M142.819 71.4094C142.819 78.9717 141.644 86.2602 139.465 93.0994L106.751 82.6736L104.969 82.1043C106.045 78.7315 106.624 75.1377 106.624 71.407C106.624 67.6763 106.045 64.0825 104.969 60.7122L106.744 60.1452L139.465 49.717C139.549 49.9789 139.629 50.2407 139.71 50.5026C139.792 50.7644 139.871 51.0263 139.946 51.2905C140.003 51.4899 140.061 51.6893 140.119 51.8911C140.159 52.028 140.195 52.1649 140.234 52.3019C140.294 52.5205 140.354 52.7367 140.412 52.9553C140.856 54.6176 141.24 56.3016 141.565 58.012C141.603 58.2042 141.639 58.4012 141.673 58.5934C141.673 58.6078 141.678 58.6198 141.68 58.6342C141.718 58.836 141.752 59.0378 141.786 59.242C141.822 59.4486 141.858 59.6576 141.889 59.8666C142.04 60.7842 142.17 61.7091 142.285 62.6364C142.326 62.9607 142.362 63.285 142.398 63.6117C142.398 63.6453 142.406 63.679 142.41 63.7126C142.446 64.0513 142.482 64.3972 142.514 64.7383C142.526 64.8561 142.535 64.9762 142.545 65.0939C142.562 65.2692 142.576 65.4446 142.588 65.62C142.605 65.8146 142.619 66.0115 142.634 66.2037C142.667 66.6626 142.696 67.1238 142.72 67.5874C142.73 67.77 142.737 67.9502 142.747 68.1327C142.754 68.2817 142.761 68.433 142.763 68.582C142.773 68.7741 142.778 68.9615 142.783 69.1513C142.795 69.466 142.799 69.7855 142.807 70.1002C142.814 70.535 142.819 70.9698 142.819 71.407V71.4094Z" fill="#3FA4F2"/>
<g style="mix-blend-mode:hard-light" opacity="0.75">
<path d="M118.03 75.8539C118.03 75.8539 120.951 87.0076 111.412 99.6218C107.631 104.618 99.6864 109.745 91.3218 111.46C91.3218 111.46 100.907 107.871 108.702 97.7456C112.817 92.3982 115.563 84.8984 118.032 75.8539H118.03Z" fill="white"/>
</g>
<g style="mix-blend-mode:hard-light" opacity="0.75">
<path d="M31.9502 39.0029C31.9502 39.0029 34.732 27.8132 49.1503 21.3151C54.8629 18.7399 64.2942 18.0505 72.457 20.5536C72.457 20.5536 62.3243 19.1075 50.6301 24.2603C44.4539 26.982 38.4507 32.2478 31.9502 39.0005V39.0029Z" fill="white"/>
</g>
<g style="mix-blend-mode:hard-light" opacity="0.75">
<path d="M37.8496 122.799C37.8496 122.799 50.4518 133.313 66.595 133.462C66.595 133.462 46.0101 136.869 37.8496 122.799Z" fill="white"/>
</g>
<g style="mix-blend-mode:hard-light" opacity="0.75">
<path d="M37.7776 42.6449C37.7776 42.6449 27.2341 55.2231 27.0468 71.3639C27.0468 71.3639 23.6908 50.7717 37.7776 42.6449Z" fill="white"/>
</g>
<g style="mix-blend-mode:hard-light" opacity="0.75">
<path d="M135.093 62.1943C135.093 62.1943 133.655 45.8445 122.374 34.2969C122.374 34.2969 139.309 46.4835 135.093 62.1943Z" fill="white"/>
</g>
<g style="mix-blend-mode:multiply" opacity="0.37">
<path d="M142.819 71.4095C142.819 78.9718 141.644 86.2602 139.466 93.0995C132.463 115.095 115.095 132.463 93.0996 139.465C86.2604 141.644 78.972 142.819 71.4096 142.819C63.8473 142.819 56.5589 141.644 49.7197 139.465C39.0416 136.066 29.4542 130.222 21.6133 122.592C33.8191 130.978 48.6002 135.884 64.5296 135.884C106.454 135.884 140.441 101.897 140.441 59.9748C140.441 57.0416 140.275 54.1445 139.948 51.2954C141.822 57.6758 142.824 64.4261 142.824 71.4095H142.819Z" fill="#CCCCCC"/>
</g>
<g style="mix-blend-mode:multiply" opacity="0.37">
<path d="M106.744 60.1477C103.098 48.7514 94.0652 39.7669 82.6401 36.1804C79.1448 35.0825 75.4261 34.4916 71.5705 34.4916C67.7149 34.4916 63.7896 35.1162 60.2102 36.2716C48.8932 39.9279 39.964 48.8979 36.3654 60.2414C35.246 63.7679 34.6406 67.5226 34.6406 71.4215C34.6406 75.3203 35.2436 79.0606 36.3582 82.5823C39.952 93.933 48.8836 102.908 60.2054 106.566C63.7872 107.724 67.6044 108.349 71.5705 108.349C75.5366 108.349 79.1472 107.758 82.6449 106.66C94.0748 103.074 103.107 94.0771 106.752 82.676C107.885 79.1279 108.498 75.3467 108.498 71.4215C108.498 67.4962 107.883 63.703 106.744 60.1477ZM82.1068 104.969C78.734 106.045 75.1403 106.624 71.412 106.624C67.6837 106.624 64.0875 106.045 60.7171 104.969C49.8733 101.517 41.3069 92.9505 37.8548 82.1067C36.7786 78.7339 36.1997 75.1402 36.1997 71.4095C36.1997 67.6787 36.7786 64.085 37.8548 60.7146C41.3069 49.8708 49.8733 41.3044 60.7171 37.8523C64.0899 36.7761 67.6837 36.1972 71.412 36.1972C75.1403 36.1972 78.7364 36.7761 82.1068 37.8523C92.953 41.3044 101.517 49.8708 104.969 60.7146C106.045 64.0874 106.624 67.6811 106.624 71.4095C106.624 75.1377 106.045 78.7339 104.969 82.1067C101.517 92.9529 92.9506 101.517 82.1068 104.969Z" fill="#CCCCCC"/>
</g>
<path d="M68.4735 74.3045C68.4735 70.8395 69.4185 68.9145 71.9735 66.9895C74.0385 65.4145 75.1585 64.3645 75.1585 62.6845C75.1585 60.9345 73.8985 59.8495 71.6935 59.8495C69.3485 59.8495 68.0885 61.4945 68.0885 63.2795H61.9985C61.9985 58.2395 65.9885 54.4595 71.6585 54.4595C77.7135 54.4595 81.1435 57.9245 81.1435 62.6845C81.1435 65.2745 79.8835 67.3395 77.6085 69.0895C75.0535 71.0845 74.2485 72.3445 74.2485 74.3045H68.4735ZM71.5535 84.2445C69.4185 84.2445 67.8435 82.7045 67.8435 80.5695C67.8435 78.4345 69.4185 76.8595 71.5535 76.8595C73.6885 76.8595 75.2635 78.4345 75.2635 80.5695C75.2635 82.7045 73.6885 84.2445 71.5535 84.2445Z" fill="#6F757A"/>
</svg>
