<svg width="290" height="342" viewBox="0 0 290 342" fill="none" xmlns="http://www.w3.org/2000/svg">
<circle cx="109" cy="16.7642" r="16.5" fill="#E7C549"/>
<circle cx="133" cy="16.7642" r="16.5" fill="#E7C549"/>
<circle cx="157" cy="16.7642" r="16.5" fill="#E7C549"/>
<circle cx="181" cy="16.7642" r="16.5" fill="#E7C549"/>
<path d="M106.108 15.4592C105.118 16.5242 103.663 17.3042 101.953 17.3492V15.2192C103.438 15.0992 104.458 14.1242 104.833 12.9992H102.103V10.9592H104.923V9.78916H107.503V10.9592H110.323V12.9992H107.443C107.383 13.2092 107.323 13.4192 107.248 13.6292L110.653 15.3542L109.558 17.2442L106.108 15.4592ZM115.333 12.3392V14.7992H113.833V17.4092H111.298V10.0142H113.833V12.3392H115.333ZM102.523 22.8242V17.8592H113.833V22.8242H102.523ZM105.043 19.8392V20.8442H111.313V19.8392H105.043ZM136.241 10.0142H138.731V22.8242H136.241V19.7342H134.786L134.951 17.3642H136.241V15.0992H134.951L134.786 12.7292H136.241V10.0142ZM130.541 10.1642C132.911 10.1642 134.471 12.0542 134.471 16.2692C134.471 20.4842 132.911 22.3742 130.541 22.3742C128.171 22.3742 126.596 20.4842 126.596 16.2692C126.596 12.0542 128.171 10.1642 130.541 10.1642ZM130.541 20.0492C131.366 20.0492 131.981 19.1492 131.981 16.2692C131.981 13.4042 131.366 12.4892 130.541 12.4892C129.701 12.4892 129.086 13.4042 129.086 16.2692C129.086 19.1492 129.701 20.0492 130.541 20.0492ZM162.79 12.2192H164.29V14.6792H162.79V17.2442H160.255V10.0142H162.79V12.2192ZM158.86 10.1642V16.7642H151.045V10.1642H153.505V11.4392H156.4V10.1642H158.86ZM153.505 14.7242H156.4V13.4192H153.505V14.7242ZM157.135 17.4542C160.36 17.4542 162.91 18.1592 162.91 20.2142C162.91 22.2692 160.36 22.9742 157.135 22.9742C153.91 22.9742 151.36 22.2692 151.36 20.2142C151.36 18.1592 153.91 17.4542 157.135 17.4542ZM157.135 20.9792C158.83 20.9792 160.18 20.7842 160.18 20.2142C160.18 19.6592 158.83 19.4492 157.135 19.4492C155.44 19.4492 154.09 19.6592 154.09 20.2142C154.09 20.7842 155.44 20.9792 157.135 20.9792ZM185.154 10.0142H187.689V16.8542H185.154V14.5292H183.414V16.6142H175.599V10.1642H178.059V11.4242H180.954V10.1642H183.414V12.1592H185.154V10.0142ZM178.059 14.6342H180.954V13.3442H178.059V14.6342ZM185.199 18.0842V17.3042H187.689V22.8242H176.229V17.3042H178.719V18.0842H185.199ZM178.719 20.8592H185.199V20.0042H178.719V20.8592Z" fill="black"/>
<path d="M69.9929 190.996C70.1915 190.957 70.39 190.913 70.5842 190.864C70.7783 190.816 70.9724 190.768 71.1622 190.697C71.5416 190.57 71.9122 190.425 72.2652 190.271C72.98 189.955 73.6419 189.59 74.2463 189.169C74.8464 188.725 75.3891 188.233 75.8612 187.706C76.3333 187.179 76.7392 186.616 77.0658 186.019C77.3923 185.408 77.6482 184.771 77.8247 184.117C78.1776 182.812 78.2218 181.437 77.9658 180.053C78.2262 181.441 78.7645 182.711 79.5675 183.809C79.669 183.945 79.7705 184.081 79.8808 184.213C79.9867 184.341 80.1014 184.468 80.2161 184.591C80.4455 184.837 80.6926 185.07 80.9574 185.29C81.4824 185.729 82.0648 186.12 82.6958 186.449C83.0135 186.616 83.34 186.766 83.6841 186.902C84.0239 187.029 84.3724 187.13 84.7298 187.223C85.449 187.403 86.2035 187.521 86.9889 187.565C87.086 187.57 87.1874 187.574 87.2845 187.578C87.3816 187.578 87.4786 187.578 87.5757 187.578C87.7743 187.574 87.9684 187.565 88.167 187.552C88.5641 187.526 88.9656 187.477 89.3715 187.411C89.7774 187.346 90.1833 187.262 90.5893 187.161C90.9908 187.042 91.3923 186.906 91.7938 186.748C92.1953 186.59 92.5836 186.419 92.9587 186.234C93.144 186.142 93.3293 186.045 93.5102 185.944C93.6911 185.847 93.8632 185.729 94.0352 185.619C94.7191 185.167 95.3413 184.661 95.8972 184.125C96.034 183.989 96.1752 183.857 96.2987 183.712C96.4267 183.567 96.5502 183.418 96.6693 183.269C96.9076 182.97 97.1282 182.667 97.3312 182.355C97.5341 182.043 97.7195 181.731 97.8827 181.41C98.046 181.09 98.196 180.773 98.3151 180.431C98.8005 179.086 98.977 177.707 98.8358 176.372C98.7696 175.708 98.6107 175.04 98.3813 174.39C98.1519 173.744 97.8518 173.121 97.4768 172.523C98.2269 173.722 99.1887 174.707 100.332 175.431C101.47 176.152 102.811 176.644 104.214 176.771C104.92 176.842 105.648 176.842 106.394 176.763C106.769 176.727 107.135 176.657 107.501 176.569C107.868 176.481 108.238 176.376 108.609 176.253C109.346 176.003 110.091 175.691 110.78 175.26C111.477 174.838 112.161 174.351 112.801 173.784C113.423 173.195 113.979 172.571 114.464 171.917C114.587 171.754 114.702 171.587 114.817 171.425C114.923 171.254 115.024 171.082 115.126 170.906C115.32 170.559 115.501 170.208 115.655 169.852C116.308 168.451 116.582 166.948 116.573 165.547C116.573 165.195 116.551 164.848 116.507 164.506C116.458 164.159 116.392 163.816 116.308 163.482C116.141 162.814 115.898 162.177 115.589 161.576C114.971 160.376 114.076 159.331 112.942 158.478C114.076 159.331 115.342 159.915 116.661 160.174C117.985 160.438 119.384 160.394 120.773 160.038C121.449 159.849 122.124 159.581 122.785 159.238C123.443 158.896 124.1 158.487 124.683 157.978C125.274 157.477 125.839 156.906 126.359 156.273C126.862 155.632 127.299 154.916 127.696 154.156C128.098 153.4 128.371 152.605 128.579 151.814C128.685 151.419 128.768 151.028 128.835 150.637C128.865 150.439 128.901 150.246 128.918 150.052C128.936 149.855 128.949 149.661 128.954 149.464C128.985 148.686 128.941 147.926 128.83 147.197C128.804 147.017 128.768 146.837 128.733 146.657C128.693 146.476 128.645 146.301 128.592 146.125C128.49 145.774 128.371 145.435 128.239 145.106C127.701 143.788 126.929 142.659 125.887 141.758C124.868 140.862 123.65 140.212 122.291 139.825C123.655 140.207 125.031 140.291 126.373 140.062C127.732 139.838 128.985 139.285 130.141 138.446C130.427 138.235 130.71 138.011 130.979 137.765C131.116 137.642 131.248 137.514 131.38 137.387C131.504 137.255 131.628 137.119 131.747 136.979C132.223 136.421 132.66 135.797 133.044 135.116C133.441 134.439 133.728 133.701 133.97 132.924C134.09 132.533 134.191 132.133 134.279 131.724C134.323 131.518 134.363 131.316 134.394 131.105C134.421 130.894 134.443 130.683 134.456 130.472C134.522 129.62 134.513 128.785 134.434 127.977C134.416 127.775 134.385 127.577 134.346 127.375C134.31 127.177 134.266 126.98 134.222 126.786C134.134 126.4 134.028 126.022 133.904 125.653C133.662 124.919 133.366 124.23 132.969 123.593C132.585 122.956 132.148 122.376 131.667 121.862C131.429 121.603 131.178 121.361 130.917 121.137C130.652 120.913 130.366 120.702 130.079 120.513C129.501 120.131 128.892 119.823 128.252 119.586C126.981 119.116 125.614 118.945 124.202 119.072C124.908 119.006 125.587 118.87 126.24 118.664C126.898 118.457 127.529 118.176 128.102 117.829C129.258 117.139 130.251 116.168 131.036 114.973C131.133 114.824 131.23 114.67 131.319 114.517C131.403 114.363 131.486 114.205 131.561 114.042C131.716 113.717 131.857 113.383 131.985 113.036C132.232 112.342 132.435 111.6 132.545 110.831C132.722 109.302 132.669 107.628 132.17 105.989C131.729 104.333 130.891 102.884 129.933 101.675C129.43 101.078 128.87 100.551 128.292 100.09C127.709 99.6327 127.114 99.2373 126.456 98.9386C125.159 98.3323 123.8 98.0248 122.455 98.0424C121.091 98.0643 119.745 98.4026 118.479 99.0308C119.745 98.3982 120.822 97.5372 121.651 96.4696C122.071 95.9337 122.424 95.3494 122.719 94.7212C122.869 94.4049 122.984 94.0886 123.09 93.7591C123.196 93.4296 123.28 93.0913 123.35 92.7443C123.487 92.0502 123.553 91.3253 123.549 90.5785C123.527 89.8404 123.421 89.0936 123.24 88.338C123.152 87.9602 123.041 87.578 122.918 87.2002C122.785 86.8268 122.622 86.4577 122.446 86.0931C122.269 85.7285 122.075 85.3638 121.859 85.0036C121.643 84.6478 121.422 84.2831 121.153 83.9537C120.623 83.2815 120.05 82.6709 119.445 82.1261C119.15 81.8494 118.814 81.6121 118.488 81.3837C118.157 81.1552 117.826 80.9488 117.486 80.7599C117.147 80.571 116.807 80.3952 116.463 80.2459C116.119 80.0921 115.752 79.9735 115.399 79.8637C114.685 79.6528 113.97 79.5122 113.268 79.4507C112.571 79.3848 111.856 79.4244 111.177 79.5254C110.493 79.6308 109.835 79.811 109.205 80.0614C107.947 80.5622 106.822 81.3573 105.864 82.4029C106.826 81.3529 107.515 80.1624 107.899 78.8752C108.093 78.2294 108.212 77.5617 108.251 76.8764C108.274 76.5337 108.274 76.1866 108.256 75.8352C108.238 75.4881 108.203 75.1279 108.137 74.7896C108.009 74.0999 107.806 73.4058 107.528 72.7161C107.387 72.3734 107.228 72.0308 107.051 71.6925C106.87 71.363 106.663 71.0423 106.442 70.7216C105.997 70.089 105.485 69.4696 104.898 68.9029C104.298 68.3537 103.632 67.8441 102.908 67.3828C102.727 67.2686 102.546 67.1588 102.361 67.0534C102.171 66.9567 101.986 66.8601 101.796 66.7722C101.417 66.5921 101.033 66.4339 100.649 66.2934C100.265 66.1528 99.8815 66.0298 99.4976 65.9287C99.1137 65.8277 98.7166 65.7662 98.3328 65.7091C97.5562 65.6036 96.7973 65.5729 96.0605 65.6124C95.3192 65.6651 94.5956 65.8101 93.9161 66.0078C93.2366 66.2099 92.5924 66.4779 91.9968 66.8117C91.3967 67.1544 90.8452 67.5674 90.3466 68.033C89.3583 68.96 88.5905 70.1022 88.0787 71.4157C88.5905 70.1022 88.8023 68.7403 88.6964 67.3828C88.6479 66.6975 88.5067 66.0473 88.2949 65.3972C88.0831 64.747 87.7919 64.1144 87.4257 63.5037C87.2448 63.1962 87.0418 62.8975 86.8256 62.6031C86.605 62.3176 86.3624 62.0496 86.1064 61.7816C85.5902 61.2501 85.0078 60.758 84.368 60.3099C84.2842 60.2528 84.2048 60.2001 84.1253 60.143C84.0415 60.0947 83.9577 60.042 83.8738 59.9936C83.7062 59.897 83.5297 59.8003 83.3532 59.7081C83.0002 59.5236 82.634 59.3522 82.2545 59.1941C81.8751 59.0359 81.4868 58.8954 81.0853 58.768C80.6838 58.6537 80.269 58.5659 79.8455 58.4868C79.4219 58.4121 79.0027 58.355 78.5836 58.3155C78.1644 58.2803 77.7541 58.2496 77.3437 58.2715C76.523 58.3023 75.7288 58.4033 74.9699 58.5747C74.2154 58.7284 73.4918 59.0096 72.8212 59.3259C72.1505 59.6422 71.5284 60.02 70.968 60.4417C69.8473 61.3248 68.9693 62.4186 68.3825 63.6267C67.7956 64.8392 67.5 66.1835 67.5 67.5981C67.5 66.1835 67.2044 64.8392 66.6176 63.6267C66.0307 62.4186 65.1527 61.3204 64.032 60.4417C63.4716 60.0156 62.8539 59.6422 62.1788 59.3259C61.5082 59.014 60.7846 58.7284 60.0301 58.5747C59.2712 58.4077 58.477 58.3067 57.6563 58.2715C57.2459 58.2496 56.8356 58.2803 56.4164 58.3155C55.9973 58.355 55.5781 58.4077 55.1545 58.4868C54.731 58.5615 54.3162 58.6537 53.9147 58.768C53.5132 58.8954 53.1249 59.0359 52.7455 59.1941C52.366 59.3522 51.9998 59.5236 51.6468 59.7081C51.4703 59.8003 51.2982 59.897 51.1262 59.9936C51.0423 60.042 50.9585 60.0947 50.8747 60.143C50.7952 60.1957 50.7114 60.2528 50.632 60.3099C49.9922 60.758 49.4054 61.2545 48.8936 61.7816C48.6377 62.0452 48.395 62.3176 48.1744 62.6031C47.9538 62.8975 47.7552 63.1962 47.5743 63.5037C47.2081 64.1144 46.9169 64.7514 46.7051 65.3972C46.4933 66.0473 46.3521 66.6975 46.3036 67.3828C46.2021 68.7359 46.4139 70.0978 46.9213 71.4157C46.4095 70.1022 45.6417 68.9556 44.6534 68.033C44.1592 67.5718 43.6033 67.1544 43.0032 66.8117C42.4076 66.4779 41.7678 66.2099 41.0839 66.0078C40.4044 65.8101 39.6808 65.6651 38.9395 65.6124C38.2027 65.5729 37.4438 65.6036 36.6672 65.7091C36.2834 65.7662 35.8863 65.8277 35.5024 65.9287C35.1185 66.0298 34.7347 66.1528 34.3508 66.2934C33.9669 66.4339 33.5831 66.5921 33.2036 66.7722C33.0139 66.8601 32.8242 66.9567 32.6389 67.0534C32.4535 67.1588 32.2726 67.2686 32.0917 67.3828C31.3681 67.8441 30.7019 68.3537 30.1018 68.9029C29.515 69.4696 29.0032 70.089 28.5575 70.7216C28.3369 71.0379 28.1295 71.3586 27.9486 71.6925C27.7721 72.0308 27.6133 72.3734 27.4721 72.7161C27.1941 73.4014 26.9868 74.0955 26.8632 74.7896C26.797 75.1323 26.7617 75.4881 26.7441 75.8352C26.7264 76.1866 26.7264 76.5337 26.7485 76.8764C26.7882 77.5617 26.9073 78.2294 27.1015 78.8752C27.4853 80.1668 28.1781 81.3573 29.1355 82.4029C28.1781 81.3573 27.0485 80.5666 25.7955 80.0614C25.1689 79.811 24.5071 79.6308 23.8232 79.5254C23.1437 79.4244 22.4289 79.3804 21.7318 79.4507C21.0302 79.5122 20.3155 79.6484 19.6007 79.8637C19.2477 79.9735 18.8815 80.0921 18.5373 80.2459C18.1932 80.3996 17.849 80.571 17.5137 80.7599C17.1739 80.9488 16.8386 81.1596 16.5121 81.3837C16.1856 81.6121 15.8547 81.8494 15.5546 82.1261C14.9502 82.6709 14.3722 83.2815 13.8471 83.9537C13.578 84.2831 13.3573 84.6478 13.1411 85.0036C12.9294 85.3638 12.7308 85.7241 12.5543 86.0931C12.3778 86.4621 12.2146 86.8268 12.0822 87.2002C11.9543 87.578 11.8484 87.9602 11.7601 88.338C11.5836 89.0936 11.4733 89.8448 11.4513 90.5785C11.4468 91.3253 11.513 92.0502 11.6498 92.7443C11.7204 93.0913 11.8042 93.4296 11.9101 93.7591C12.016 94.0886 12.1307 94.4049 12.2808 94.7212C12.572 95.3494 12.9294 95.9337 13.3485 96.4696C14.1824 97.5372 15.2546 98.3982 16.5209 99.0308C15.2546 98.4026 13.9045 98.0643 12.5455 98.0424C11.1998 98.0292 9.84078 98.3323 8.54358 98.9386C7.88616 99.2373 7.29051 99.6327 6.70809 100.09C6.13009 100.551 5.56973 101.078 5.06674 101.675C4.10928 102.884 3.27095 104.338 2.82973 105.989C2.33114 107.628 2.2782 109.302 2.45469 110.831C2.56499 111.6 2.76354 112.342 3.01504 113.036C3.143 113.383 3.28419 113.721 3.43862 114.042C3.51804 114.205 3.59746 114.363 3.68129 114.517C3.77395 114.675 3.8666 114.824 3.96367 114.973C4.74905 116.168 5.74622 117.139 6.89782 117.829C7.47141 118.176 8.10236 118.453 8.75978 118.664C9.4128 118.87 10.0967 119.006 10.7982 119.072C9.38632 118.945 8.01853 119.116 6.7478 119.586C6.11244 119.823 5.49914 120.131 4.92113 120.513C4.63434 120.702 4.34754 120.913 4.0828 121.137C3.82248 121.361 3.57098 121.603 3.33272 121.862C2.85179 122.376 2.41498 122.96 2.03111 123.593C1.63401 124.23 1.33839 124.919 1.09572 125.653C0.976584 126.022 0.866278 126.4 0.778033 126.786C0.733911 126.98 0.694201 127.177 0.654491 127.375C0.619193 127.573 0.583895 127.775 0.566246 127.977C0.486825 128.785 0.478001 129.62 0.544184 130.472C0.561833 130.683 0.583895 130.894 0.605956 131.105C0.636842 131.311 0.680964 131.518 0.720674 131.724C0.808919 132.133 0.910401 132.533 1.02953 132.924C1.2722 133.701 1.55459 134.444 1.9561 135.116C2.33997 135.792 2.77678 136.421 3.2533 136.979C3.37243 137.119 3.49598 137.255 3.61952 137.387C3.75189 137.519 3.88425 137.642 4.02103 137.765C4.29459 138.011 4.57256 138.235 4.85936 138.446C6.01537 139.285 7.26403 139.838 8.62742 140.062C9.96874 140.291 11.3454 140.207 12.7087 139.825C11.3454 140.212 10.132 140.862 9.11276 141.758C8.07147 142.659 7.29933 143.788 6.76104 145.106C6.62867 145.435 6.50954 145.774 6.40806 146.125C6.35952 146.301 6.31099 146.476 6.26687 146.657C6.23157 146.832 6.19627 147.012 6.1698 147.197C6.05949 147.922 6.01537 148.682 6.04625 149.464C6.05508 149.657 6.0639 149.855 6.08155 150.052C6.0992 150.25 6.13009 150.443 6.16538 150.637C6.23157 151.028 6.3154 151.423 6.42129 151.814C6.62867 152.6 6.90223 153.4 7.30374 154.156C7.69643 154.916 8.13325 155.632 8.64065 156.273C9.1613 156.906 9.72165 157.477 10.3129 157.978C10.8953 158.487 11.5527 158.896 12.2102 159.238C12.8676 159.581 13.5427 159.849 14.2221 160.038C15.612 160.394 17.0107 160.438 18.3344 160.174C19.6536 159.915 20.9199 159.331 22.0539 158.478C20.9199 159.331 20.0242 160.376 19.4065 161.576C19.0977 162.177 18.855 162.814 18.6873 163.482C18.6035 163.816 18.5373 164.159 18.4888 164.506C18.4491 164.848 18.427 165.195 18.4226 165.547C18.4138 166.953 18.6873 168.455 19.3403 169.852C19.4992 170.208 19.6757 170.559 19.8698 170.906C19.9669 171.082 20.0684 171.254 20.1787 171.425C20.289 171.592 20.4081 171.754 20.5317 171.917C21.017 172.567 21.5729 173.195 22.1951 173.784C22.8348 174.351 23.5187 174.838 24.2159 175.26C24.9042 175.691 25.6499 176.003 26.3911 176.253C26.7617 176.376 27.128 176.481 27.4986 176.569C27.8692 176.657 28.231 176.727 28.6061 176.763C29.3517 176.837 30.0798 176.842 30.7857 176.771C32.1844 176.644 33.5257 176.156 34.6685 175.431C35.8113 174.707 36.7731 173.722 37.5232 172.523C37.1526 173.121 36.8481 173.744 36.6187 174.39C36.3893 175.036 36.2348 175.704 36.1642 176.372C36.023 177.707 36.1995 179.082 36.6849 180.431C36.804 180.773 36.954 181.085 37.1173 181.41C37.2805 181.731 37.4659 182.047 37.6688 182.355C37.8718 182.667 38.0924 182.97 38.3307 183.269C38.4498 183.418 38.5733 183.563 38.7013 183.712C38.8292 183.857 38.966 183.989 39.1028 184.125C39.6587 184.661 40.2853 185.167 40.9648 185.619C41.1368 185.729 41.3089 185.847 41.4898 185.944C41.6707 186.045 41.856 186.142 42.0413 186.234C42.4164 186.419 42.8047 186.59 43.2062 186.748C43.6077 186.906 44.0092 187.042 44.4107 187.161C44.8167 187.262 45.227 187.346 45.6285 187.411C46.0344 187.477 46.4359 187.521 46.833 187.552C47.0316 187.565 47.2301 187.574 47.4243 187.578C47.5214 187.578 47.6184 187.578 47.7199 187.578C47.817 187.574 47.914 187.57 48.0155 187.565C48.7965 187.521 49.5554 187.403 50.2746 187.223C50.632 187.13 50.9806 187.025 51.3203 186.902C51.66 186.766 51.991 186.616 52.3086 186.449C52.944 186.12 53.5264 185.733 54.0471 185.29C54.3074 185.07 54.5545 184.837 54.7883 184.591C54.903 184.468 55.0178 184.341 55.1237 184.213C55.234 184.081 55.3354 183.945 55.4369 183.809C56.24 182.711 56.7783 181.441 57.0386 180.053C56.7827 181.441 56.8268 182.812 57.1798 184.117C57.3563 184.771 57.6122 185.408 57.9387 186.019C58.2696 186.612 58.6711 187.174 59.1432 187.706C59.6153 188.233 60.158 188.725 60.7581 189.169C61.3626 189.59 62.0244 189.959 62.7392 190.271C63.0966 190.429 63.4628 190.57 63.8423 190.697C64.032 190.763 64.2261 190.816 64.4203 190.864C64.6144 190.913 64.8129 190.957 65.0115 190.996C65.8101 191.154 66.644 191.247 67.5 191.264C68.356 191.247 69.1899 191.154 69.9885 190.996H69.9929Z" fill="white"/>
<path d="M25.8302 130.369H20.3252V132.829H24.3302V137.359H23.1002V133.819H14.9102V132.829H19.0952V130.369H13.6202V129.364H22.6802C23.0402 127.744 23.0402 126.559 23.0402 125.554H15.1802V124.564H24.2552V125.539C24.2552 126.544 24.2552 127.774 23.9252 129.364H25.8302V130.369ZM37.709 123.934V133.594H36.479V123.934H37.709ZM32.459 130.354V126.079H28.574V130.354H32.459ZM33.659 125.089V131.344H27.374V125.089H33.659ZM30.284 135.934H38.114V136.924H29.054V132.679H30.284V135.934ZM41.0979 128.149C41.0979 129.484 42.0729 130.444 43.3929 130.444C44.6979 130.444 45.6729 129.484 45.6729 128.149C45.6729 126.814 44.6979 125.854 43.3929 125.854C42.0729 125.854 41.0979 126.814 41.0979 128.149ZM49.5579 127.024H46.6629C46.7829 127.369 46.8429 127.744 46.8429 128.149C46.8429 128.539 46.7829 128.914 46.6629 129.259H49.5579V127.024ZM49.5579 130.249H46.1529C45.5229 131.044 44.5479 131.524 43.3929 131.524C41.4129 131.524 39.9279 130.114 39.9279 128.149C39.9279 126.184 41.4129 124.774 43.3929 124.774C44.5479 124.774 45.5079 125.254 46.1379 126.034H49.5579V123.934H50.8029V133.864H49.5579V130.249ZM43.4379 136.069H51.1779V137.074H42.1929V132.844H43.4379V136.069ZM55.4667 133.399V136.204H62.2317V133.399H55.4667ZM54.2667 137.194V132.409H63.4467V137.194H54.2667ZM63.0417 129.589H64.9767V130.579H52.7517V129.589H61.7967C62.1867 127.909 62.1867 126.679 62.1867 125.629H54.3117V124.639H63.4017V125.629C63.4017 126.679 63.4017 127.909 63.0417 129.589ZM80.6 130.579V131.584H75.11V137.389H73.865V131.584H68.435V130.579H77.36C77.78 128.644 77.78 127.219 77.78 125.959V125.779H69.95V124.789H78.98V125.959C78.98 127.219 78.98 128.644 78.605 130.579H80.6ZM82.8188 133.924V132.919H92.1638V137.479H90.9188V133.924H82.8188ZM88.1738 130.624H93.6488V131.614H81.4688V130.624H86.9438V129.019H82.9988V124.459H92.1338V125.449H84.2288V128.029H92.2538V129.019H88.1738V130.624ZM105.558 123.919V133.789H104.328V123.919H105.558ZM102.618 130.624L101.973 131.599C100.443 131.014 99.2577 129.799 98.6577 128.269C98.0877 129.904 96.8727 131.209 95.2977 131.869L94.6527 130.864C96.6777 130.084 98.0277 128.134 98.0277 126.034V124.669H99.2577V126.034C99.2577 128.059 100.623 129.889 102.618 130.624ZM98.1327 136.069H105.963V137.074H96.9027V132.874H98.1327V136.069ZM114.721 127.744H117.406V123.919H118.651V132.079H117.406V128.764H114.721V127.744ZM115.531 130.564L114.961 131.509C113.416 131.029 112.186 130.024 111.571 128.719C111.001 130.189 109.786 131.329 108.196 131.854L107.596 130.909C109.576 130.234 110.926 128.599 110.926 126.784V126.529H107.941V125.539H110.926V123.859H112.156V125.539H115.126V126.529H112.156V126.784C112.156 128.464 113.551 129.964 115.531 130.564ZM114.196 136.399C116.251 136.399 117.466 135.829 117.466 134.884C117.466 133.954 116.251 133.384 114.196 133.384C112.171 133.384 110.956 133.954 110.956 134.884C110.956 135.829 112.171 136.399 114.196 136.399ZM114.196 132.424C116.986 132.424 118.696 133.324 118.696 134.884C118.696 136.459 116.986 137.359 114.196 137.359C111.436 137.359 109.726 136.459 109.726 134.884C109.726 133.324 111.436 132.424 114.196 132.424ZM46.5251 154.994V151.454H42.7751V154.994H46.5251ZM50.8751 145.919H52.1051V159.404H50.8751V151.904H47.7251V155.999H41.5601V146.984H42.7751V150.479H46.5251V146.984H47.7251V150.914H50.8751V145.919ZM64.7939 151.154V152.114H55.6589V146.414H64.7189V147.374H56.8889V148.784H64.3589V149.714H56.8889V151.154H64.7939ZM56.8589 155.339V158.069H64.9589V159.074H55.6289V155.339H56.8589ZM54.0539 153.374H66.2189V154.364H54.0539V153.374ZM72.4072 156.824V158.234H80.9122V159.194H71.1922V155.909H79.2322V154.649H71.1622V153.689H80.4322V156.824H72.4072ZM80.0422 151.424H81.8722V152.414H69.7522V151.424H78.7972C78.9322 150.794 79.0072 150.224 79.0672 149.714L71.1022 150.074L70.9522 149.099L79.1272 148.844C79.1422 148.394 79.1422 147.974 79.1422 147.584V147.539H71.2822V146.564H80.3572V147.584C80.3572 148.634 80.3572 149.834 80.0422 151.424ZM90.9461 151.964L91.0811 152.954C88.8761 153.314 87.0461 153.389 84.5561 153.389H83.4761V149.504H88.3361V147.719H83.4311V146.714H89.5511V150.449H84.6761V152.384C87.0611 152.384 88.8161 152.309 90.9461 151.964ZM84.8261 155.879V154.874H93.8111V159.374H92.5811V155.879H84.8261ZM92.5811 145.934H93.8111V154.154H92.5811V145.934Z" fill="black"/>
<path d="M70.7663 86.0642V112.144H64.9743V91.1202H60.3663V86.0642H70.7663Z" fill="#FF2C2C"/>
<path d="M224.993 190.996C225.191 190.957 225.39 190.913 225.584 190.864C225.778 190.816 225.972 190.768 226.162 190.697C226.542 190.57 226.912 190.425 227.265 190.271C227.98 189.955 228.642 189.59 229.246 189.169C229.846 188.725 230.389 188.233 230.861 187.706C231.333 187.179 231.739 186.616 232.066 186.019C232.392 185.408 232.648 184.771 232.825 184.117C233.178 182.812 233.222 181.437 232.966 180.053C233.226 181.441 233.764 182.711 234.567 183.809C234.669 183.945 234.77 184.081 234.881 184.213C234.987 184.341 235.101 184.468 235.216 184.591C235.446 184.837 235.693 185.07 235.957 185.29C236.482 185.729 237.065 186.12 237.696 186.449C238.013 186.616 238.34 186.766 238.684 186.902C239.024 187.029 239.372 187.13 239.73 187.223C240.449 187.403 241.204 187.521 241.989 187.565C242.086 187.57 242.187 187.574 242.285 187.578C242.382 187.578 242.479 187.578 242.576 187.578C242.774 187.574 242.968 187.565 243.167 187.552C243.564 187.526 243.966 187.477 244.372 187.411C244.777 187.346 245.183 187.262 245.589 187.161C245.991 187.042 246.392 186.906 246.794 186.748C247.195 186.59 247.584 186.419 247.959 186.234C248.144 186.142 248.329 186.045 248.51 185.944C248.691 185.847 248.863 185.729 249.035 185.619C249.719 185.167 250.341 184.661 250.897 184.125C251.034 183.989 251.175 183.857 251.299 183.712C251.427 183.567 251.55 183.418 251.669 183.269C251.908 182.97 252.128 182.667 252.331 182.355C252.534 182.043 252.719 181.731 252.883 181.41C253.046 181.09 253.196 180.773 253.315 180.431C253.8 179.086 253.977 177.707 253.836 176.372C253.77 175.708 253.611 175.04 253.381 174.39C253.152 173.744 252.852 173.121 252.477 172.523C253.227 173.722 254.189 174.707 255.332 175.431C256.47 176.152 257.811 176.644 259.214 176.771C259.92 176.842 260.648 176.842 261.394 176.763C261.769 176.727 262.135 176.657 262.501 176.569C262.868 176.481 263.238 176.376 263.609 176.253C264.346 176.003 265.091 175.691 265.78 175.26C266.477 174.838 267.161 174.351 267.801 173.784C268.423 173.195 268.979 172.571 269.464 171.917C269.587 171.754 269.702 171.587 269.817 171.425C269.923 171.254 270.024 171.082 270.126 170.906C270.32 170.559 270.501 170.208 270.655 169.852C271.308 168.451 271.582 166.948 271.573 165.547C271.573 165.195 271.551 164.848 271.507 164.506C271.458 164.159 271.392 163.816 271.308 163.482C271.141 162.814 270.898 162.177 270.589 161.576C269.971 160.376 269.076 159.331 267.942 158.478C269.076 159.331 270.342 159.915 271.661 160.174C272.985 160.438 274.384 160.394 275.773 160.038C276.449 159.849 277.124 159.581 277.785 159.238C278.443 158.896 279.1 158.487 279.683 157.978C280.274 157.477 280.839 156.906 281.359 156.273C281.862 155.632 282.299 154.916 282.696 154.156C283.098 153.4 283.371 152.605 283.579 151.814C283.685 151.419 283.768 151.028 283.835 150.637C283.865 150.439 283.901 150.246 283.918 150.052C283.936 149.855 283.949 149.661 283.954 149.464C283.985 148.686 283.941 147.926 283.83 147.197C283.804 147.017 283.768 146.837 283.733 146.657C283.693 146.476 283.645 146.301 283.592 146.125C283.49 145.774 283.371 145.435 283.239 145.106C282.701 143.788 281.929 142.659 280.887 141.758C279.868 140.862 278.65 140.212 277.291 139.825C278.655 140.207 280.031 140.291 281.373 140.062C282.732 139.838 283.985 139.285 285.141 138.446C285.427 138.235 285.71 138.011 285.979 137.765C286.116 137.642 286.248 137.514 286.38 137.387C286.504 137.255 286.628 137.119 286.747 136.979C287.223 136.421 287.66 135.797 288.044 135.116C288.441 134.439 288.728 133.701 288.97 132.924C289.09 132.533 289.191 132.133 289.279 131.724C289.323 131.518 289.363 131.316 289.394 131.105C289.421 130.894 289.443 130.683 289.456 130.472C289.522 129.62 289.513 128.785 289.434 127.977C289.416 127.775 289.385 127.577 289.346 127.375C289.31 127.177 289.266 126.98 289.222 126.786C289.134 126.4 289.028 126.022 288.904 125.653C288.662 124.919 288.366 124.23 287.969 123.593C287.585 122.956 287.148 122.376 286.667 121.862C286.429 121.603 286.178 121.361 285.917 121.137C285.652 120.913 285.366 120.702 285.079 120.513C284.501 120.131 283.892 119.823 283.252 119.586C281.981 119.116 280.614 118.945 279.202 119.072C279.908 119.006 280.587 118.87 281.24 118.664C281.898 118.457 282.529 118.176 283.102 117.829C284.258 117.139 285.251 116.168 286.036 114.973C286.133 114.824 286.23 114.67 286.319 114.517C286.403 114.363 286.486 114.205 286.561 114.042C286.716 113.717 286.857 113.383 286.985 113.036C287.232 112.342 287.435 111.6 287.545 110.831C287.722 109.302 287.669 107.628 287.17 105.989C286.729 104.333 285.891 102.884 284.933 101.675C284.43 101.078 283.87 100.551 283.292 100.09C282.709 99.6327 282.114 99.2373 281.456 98.9386C280.159 98.3323 278.8 98.0248 277.455 98.0424C276.091 98.0643 274.745 98.4026 273.479 99.0308C274.745 98.3982 275.822 97.5372 276.651 96.4696C277.071 95.9337 277.424 95.3494 277.719 94.7212C277.869 94.4049 277.984 94.0886 278.09 93.7591C278.196 93.4296 278.28 93.0913 278.35 92.7443C278.487 92.0502 278.553 91.3253 278.549 90.5785C278.527 89.8404 278.421 89.0936 278.24 88.338C278.152 87.9602 278.041 87.578 277.918 87.2002C277.785 86.8268 277.622 86.4577 277.446 86.0931C277.269 85.7285 277.075 85.3638 276.859 85.0036C276.643 84.6478 276.422 84.2831 276.153 83.9537C275.623 83.2815 275.05 82.6709 274.445 82.1261C274.15 81.8494 273.814 81.6121 273.488 81.3837C273.157 81.1552 272.826 80.9488 272.486 80.7599C272.147 80.571 271.807 80.3952 271.463 80.2459C271.119 80.0921 270.752 79.9735 270.399 79.8637C269.685 79.6528 268.97 79.5122 268.268 79.4507C267.571 79.3848 266.856 79.4244 266.177 79.5254C265.493 79.6308 264.835 79.811 264.205 80.0614C262.947 80.5622 261.822 81.3573 260.864 82.4029C261.826 81.3529 262.515 80.1624 262.899 78.8752C263.093 78.2294 263.212 77.5617 263.251 76.8764C263.274 76.5337 263.274 76.1866 263.256 75.8352C263.238 75.4881 263.203 75.1279 263.137 74.7896C263.009 74.0999 262.806 73.4058 262.528 72.7161C262.387 72.3734 262.228 72.0308 262.051 71.6925C261.87 71.363 261.663 71.0423 261.442 70.7216C260.997 70.089 260.485 69.4696 259.898 68.9029C259.298 68.3537 258.632 67.8441 257.908 67.3828C257.727 67.2686 257.546 67.1588 257.361 67.0534C257.171 66.9567 256.986 66.8601 256.796 66.7722C256.417 66.5921 256.033 66.4339 255.649 66.2934C255.265 66.1528 254.881 66.0298 254.498 65.9287C254.114 65.8277 253.717 65.7662 253.333 65.7091C252.556 65.6036 251.797 65.5729 251.06 65.6124C250.319 65.6651 249.596 65.8101 248.916 66.0078C248.237 66.2099 247.592 66.4779 246.997 66.8117C246.397 67.1544 245.845 67.5674 245.347 68.033C244.358 68.96 243.591 70.1022 243.079 71.4157C243.591 70.1022 243.802 68.7403 243.696 67.3828C243.648 66.6975 243.507 66.0473 243.295 65.3972C243.083 64.747 242.792 64.1144 242.426 63.5037C242.245 63.1962 242.042 62.8975 241.826 62.6031C241.605 62.3176 241.362 62.0496 241.106 61.7816C240.59 61.2501 240.008 60.758 239.368 60.3099C239.284 60.2528 239.205 60.2001 239.125 60.143C239.042 60.0947 238.958 60.042 238.874 59.9936C238.706 59.897 238.53 59.8003 238.353 59.7081C238 59.5236 237.634 59.3522 237.255 59.1941C236.875 59.0359 236.487 58.8954 236.085 58.768C235.684 58.6537 235.269 58.5659 234.845 58.4868C234.422 58.4121 234.003 58.355 233.584 58.3155C233.164 58.2803 232.754 58.2496 232.344 58.2715C231.523 58.3023 230.729 58.4033 229.97 58.5747C229.215 58.7284 228.492 59.0096 227.821 59.3259C227.151 59.6422 226.528 60.02 225.968 60.4417C224.847 61.3248 223.969 62.4186 223.382 63.6267C222.796 64.8392 222.5 66.1835 222.5 67.5981C222.5 66.1835 222.204 64.8392 221.618 63.6267C221.031 62.4186 220.153 61.3204 219.032 60.4417C218.472 60.0156 217.854 59.6422 217.179 59.3259C216.508 59.014 215.785 58.7284 215.03 58.5747C214.271 58.4077 213.477 58.3067 212.656 58.2715C212.246 58.2496 211.836 58.2803 211.416 58.3155C210.997 58.355 210.578 58.4077 210.155 58.4868C209.731 58.5615 209.316 58.6537 208.915 58.768C208.513 58.8954 208.125 59.0359 207.745 59.1941C207.366 59.3522 207 59.5236 206.647 59.7081C206.47 59.8003 206.298 59.897 206.126 59.9936C206.042 60.042 205.958 60.0947 205.875 60.143C205.795 60.1957 205.711 60.2528 205.632 60.3099C204.992 60.758 204.405 61.2545 203.894 61.7816C203.638 62.0452 203.395 62.3176 203.174 62.6031C202.954 62.8975 202.755 63.1962 202.574 63.5037C202.208 64.1144 201.917 64.7514 201.705 65.3972C201.493 66.0473 201.352 66.6975 201.304 67.3828C201.202 68.7359 201.414 70.0978 201.921 71.4157C201.409 70.1022 200.642 68.9556 199.653 68.033C199.159 67.5718 198.603 67.1544 198.003 66.8117C197.408 66.4779 196.768 66.2099 196.084 66.0078C195.404 65.8101 194.681 65.6651 193.94 65.6124C193.203 65.5729 192.444 65.6036 191.667 65.7091C191.283 65.7662 190.886 65.8277 190.502 65.9287C190.119 66.0298 189.735 66.1528 189.351 66.2934C188.967 66.4339 188.583 66.5921 188.204 66.7722C188.014 66.8601 187.824 66.9567 187.639 67.0534C187.454 67.1588 187.273 67.2686 187.092 67.3828C186.368 67.8441 185.702 68.3537 185.102 68.9029C184.515 69.4696 184.003 70.089 183.558 70.7216C183.337 71.0379 183.13 71.3586 182.949 71.6925C182.772 72.0308 182.613 72.3734 182.472 72.7161C182.194 73.4014 181.987 74.0955 181.863 74.7896C181.797 75.1323 181.762 75.4881 181.744 75.8352C181.726 76.1866 181.726 76.5337 181.749 76.8764C181.788 77.5617 181.907 78.2294 182.101 78.8752C182.485 80.1668 183.178 81.3573 184.136 82.4029C183.178 81.3573 182.049 80.5666 180.795 80.0614C180.169 79.811 179.507 79.6308 178.823 79.5254C178.144 79.4244 177.429 79.3804 176.732 79.4507C176.03 79.5122 175.315 79.6484 174.601 79.8637C174.248 79.9735 173.881 80.0921 173.537 80.2459C173.193 80.3996 172.849 80.571 172.514 80.7599C172.174 80.9488 171.839 81.1596 171.512 81.3837C171.186 81.6121 170.855 81.8494 170.555 82.1261C169.95 82.6709 169.372 83.2815 168.847 83.9537C168.578 84.2831 168.357 84.6478 168.141 85.0036C167.929 85.3638 167.731 85.7241 167.554 86.0931C167.378 86.4621 167.215 86.8268 167.082 87.2002C166.954 87.578 166.848 87.9602 166.76 88.338C166.584 89.0936 166.473 89.8448 166.451 90.5785C166.447 91.3253 166.513 92.0502 166.65 92.7443C166.72 93.0913 166.804 93.4296 166.91 93.7591C167.016 94.0886 167.131 94.4049 167.281 94.7212C167.572 95.3494 167.929 95.9337 168.349 96.4696C169.182 97.5372 170.255 98.3982 171.521 99.0308C170.255 98.4026 168.904 98.0643 167.545 98.0424C166.2 98.0292 164.841 98.3323 163.544 98.9386C162.886 99.2373 162.291 99.6327 161.708 100.09C161.13 100.551 160.57 101.078 160.067 101.675C159.109 102.884 158.271 104.338 157.83 105.989C157.331 107.628 157.278 109.302 157.455 110.831C157.565 111.6 157.764 112.342 158.015 113.036C158.143 113.383 158.284 113.721 158.439 114.042C158.518 114.205 158.597 114.363 158.681 114.517C158.774 114.675 158.867 114.824 158.964 114.973C159.749 116.168 160.746 117.139 161.898 117.829C162.471 118.176 163.102 118.453 163.76 118.664C164.413 118.87 165.097 119.006 165.798 119.072C164.386 118.945 163.019 119.116 161.748 119.586C161.112 119.823 160.499 120.131 159.921 120.513C159.634 120.702 159.348 120.913 159.083 121.137C158.822 121.361 158.571 121.603 158.333 121.862C157.852 122.376 157.415 122.96 157.031 123.593C156.634 124.23 156.338 124.919 156.096 125.653C155.977 126.022 155.866 126.4 155.778 126.786C155.734 126.98 155.694 127.177 155.654 127.375C155.619 127.573 155.584 127.775 155.566 127.977C155.487 128.785 155.478 129.62 155.544 130.472C155.562 130.683 155.584 130.894 155.606 131.105C155.637 131.311 155.681 131.518 155.721 131.724C155.809 132.133 155.91 132.533 156.03 132.924C156.272 133.701 156.555 134.444 156.956 135.116C157.34 135.792 157.777 136.421 158.253 136.979C158.372 137.119 158.496 137.255 158.62 137.387C158.752 137.519 158.884 137.642 159.021 137.765C159.295 138.011 159.573 138.235 159.859 138.446C161.015 139.285 162.264 139.838 163.627 140.062C164.969 140.291 166.345 140.207 167.709 139.825C166.345 140.212 165.132 140.862 164.113 141.758C163.071 142.659 162.299 143.788 161.761 145.106C161.629 145.435 161.51 145.774 161.408 146.125C161.36 146.301 161.311 146.476 161.267 146.657C161.232 146.832 161.196 147.012 161.17 147.197C161.059 147.922 161.015 148.682 161.046 149.464C161.055 149.657 161.064 149.855 161.082 150.052C161.099 150.25 161.13 150.443 161.165 150.637C161.232 151.028 161.315 151.423 161.421 151.814C161.629 152.6 161.902 153.4 162.304 154.156C162.696 154.916 163.133 155.632 163.641 156.273C164.161 156.906 164.722 157.477 165.313 157.978C165.895 158.487 166.553 158.896 167.21 159.238C167.868 159.581 168.543 159.849 169.222 160.038C170.612 160.394 172.011 160.438 173.334 160.174C174.654 159.915 175.92 159.331 177.054 158.478C175.92 159.331 175.024 160.376 174.407 161.576C174.098 162.177 173.855 162.814 173.687 163.482C173.604 163.816 173.537 164.159 173.489 164.506C173.449 164.848 173.427 165.195 173.423 165.547C173.414 166.953 173.687 168.455 174.34 169.852C174.499 170.208 174.676 170.559 174.87 170.906C174.967 171.082 175.068 171.254 175.179 171.425C175.289 171.592 175.408 171.754 175.532 171.917C176.017 172.567 176.573 173.195 177.195 173.784C177.835 174.351 178.519 174.838 179.216 175.26C179.904 175.691 180.65 176.003 181.391 176.253C181.762 176.376 182.128 176.481 182.499 176.569C182.869 176.657 183.231 176.727 183.606 176.763C184.352 176.837 185.08 176.842 185.786 176.771C187.184 176.644 188.526 176.156 189.668 175.431C190.811 174.707 191.773 173.722 192.523 172.523C192.153 173.121 191.848 173.744 191.619 174.39C191.389 175.036 191.235 175.704 191.164 176.372C191.023 177.707 191.2 179.082 191.685 180.431C191.804 180.773 191.954 181.085 192.117 181.41C192.281 181.731 192.466 182.047 192.669 182.355C192.872 182.667 193.092 182.97 193.331 183.269C193.45 183.418 193.573 183.563 193.701 183.712C193.829 183.857 193.966 183.989 194.103 184.125C194.659 184.661 195.285 185.167 195.965 185.619C196.137 185.729 196.309 185.847 196.49 185.944C196.671 186.045 196.856 186.142 197.041 186.234C197.416 186.419 197.805 186.59 198.206 186.748C198.608 186.906 199.009 187.042 199.411 187.161C199.817 187.262 200.227 187.346 200.629 187.411C201.034 187.477 201.436 187.521 201.833 187.552C202.032 187.565 202.23 187.574 202.424 187.578C202.521 187.578 202.618 187.578 202.72 187.578C202.817 187.574 202.914 187.57 203.016 187.565C203.796 187.521 204.555 187.403 205.275 187.223C205.632 187.13 205.981 187.025 206.32 186.902C206.66 186.766 206.991 186.616 207.309 186.449C207.944 186.12 208.526 185.733 209.047 185.29C209.307 185.07 209.554 184.837 209.788 184.591C209.903 184.468 210.018 184.341 210.124 184.213C210.234 184.081 210.335 183.945 210.437 183.809C211.24 182.711 211.778 181.441 212.039 180.053C211.783 181.441 211.827 182.812 212.18 184.117C212.356 184.771 212.612 185.408 212.939 186.019C213.27 186.612 213.671 187.174 214.143 187.706C214.615 188.233 215.158 188.725 215.758 189.169C216.363 189.59 217.024 189.959 217.739 190.271C218.097 190.429 218.463 190.57 218.842 190.697C219.032 190.763 219.226 190.816 219.42 190.864C219.614 190.913 219.813 190.957 220.011 190.996C220.81 191.154 221.644 191.247 222.5 191.264C223.356 191.247 224.19 191.154 224.989 190.996H224.993Z" fill="white"/>
<path d="M193.849 140.579V141.584H188.359V147.389H187.114V141.584H181.684V140.579H190.609C191.029 138.644 191.029 137.219 191.029 135.959V135.779H183.199V134.789H192.229V135.959C192.229 137.219 192.229 138.644 191.854 140.579H193.849ZM196.068 143.924V142.919H205.413V147.479H204.168V143.924H196.068ZM201.423 140.624H206.898V141.614H194.718V140.624H200.193V139.019H196.248V134.459H205.383V135.449H197.478V138.029H205.503V139.019H201.423V140.624ZM221.411 133.919V143.789H220.181V133.919H221.411ZM218.471 140.624L217.826 141.599C216.296 141.014 215.111 139.799 214.511 138.269C213.941 139.904 212.726 141.209 211.151 141.869L210.506 140.864C212.531 140.084 213.881 138.134 213.881 136.034V134.669H215.111V136.034C215.111 138.059 216.476 139.889 218.471 140.624ZM213.986 146.069H221.816V147.074H212.756V142.874H213.986V146.069ZM230.575 137.744H233.26V133.919H234.505V142.079H233.26V138.764H230.575V137.744ZM231.385 140.564L230.815 141.509C229.27 141.029 228.04 140.024 227.425 138.719C226.855 140.189 225.64 141.329 224.05 141.854L223.45 140.909C225.43 140.234 226.78 138.599 226.78 136.784V136.529H223.795V135.539H226.78V133.859H228.01V135.539H230.98V136.529H228.01V136.784C228.01 138.464 229.405 139.964 231.385 140.564ZM230.05 146.399C232.105 146.399 233.32 145.829 233.32 144.884C233.32 143.954 232.105 143.384 230.05 143.384C228.025 143.384 226.81 143.954 226.81 144.884C226.81 145.829 228.025 146.399 230.05 146.399ZM230.05 142.424C232.84 142.424 234.55 143.324 234.55 144.884C234.55 146.459 232.84 147.359 230.05 147.359C227.29 147.359 225.58 146.459 225.58 144.884C225.58 143.324 227.29 142.424 230.05 142.424ZM240.978 137.189C240.978 138.224 241.863 138.899 243.153 138.899C244.413 138.899 245.313 138.224 245.313 137.189C245.313 136.169 244.413 135.479 243.153 135.479C241.863 135.479 240.978 136.169 240.978 137.189ZM247.428 140.774L247.518 141.674C244.713 142.184 241.518 142.229 239.223 142.229L239.058 141.224C240.093 141.224 241.308 141.209 242.553 141.164V139.814C240.918 139.619 239.838 138.629 239.838 137.189C239.838 135.614 241.188 134.549 243.153 134.549C245.103 134.549 246.468 135.614 246.468 137.189C246.468 138.614 245.388 139.604 243.783 139.799V141.119C245.028 141.044 246.273 140.954 247.428 140.774ZM242.223 143.354V146.054H249.978V147.059H240.993V143.354H242.223ZM249.498 138.479H251.478V139.499H249.498V144.224H248.268V133.934H249.498V138.479ZM256.742 142.154V144.704H259.817V142.154H256.742ZM261.032 144.704H264.332V145.709H252.107V144.704H255.527V142.154H253.637V137.999H261.617V135.914H253.607V134.909H262.817V138.989H254.852V141.149H263.132V142.154H261.032V144.704Z" fill="black"/>
<path d="M221.632 85.3602C227.488 85.3602 230.944 88.8162 230.944 93.5522C230.944 96.2722 229.632 98.6082 225.056 103.344L221.312 107.216H231.456V112.144H212.8V108.816L221.344 100.016C224.48 96.7842 225.216 95.0882 225.216 93.6162C225.216 91.6962 224.16 90.4162 221.632 90.4162C219.264 90.4162 217.984 92.3362 217.984 94.3202H212.256C212.256 89.2002 216.128 85.3602 221.632 85.3602Z" fill="#FF2C2C"/>
<path d="M69.9929 340.996C70.1915 340.957 70.39 340.913 70.5842 340.864C70.7783 340.816 70.9724 340.768 71.1622 340.697C71.5416 340.57 71.9122 340.425 72.2652 340.271C72.98 339.955 73.6419 339.59 74.2463 339.169C74.8464 338.725 75.3891 338.233 75.8612 337.706C76.3333 337.179 76.7392 336.616 77.0658 336.019C77.3923 335.408 77.6482 334.771 77.8247 334.117C78.1776 332.812 78.2218 331.437 77.9658 330.053C78.2262 331.441 78.7645 332.711 79.5675 333.809C79.669 333.945 79.7705 334.081 79.8808 334.213C79.9867 334.341 80.1014 334.468 80.2161 334.591C80.4455 334.837 80.6926 335.07 80.9574 335.29C81.4824 335.729 82.0648 336.12 82.6958 336.449C83.0135 336.616 83.34 336.766 83.6841 336.902C84.0239 337.029 84.3724 337.13 84.7298 337.223C85.449 337.403 86.2035 337.521 86.9889 337.565C87.086 337.57 87.1874 337.574 87.2845 337.578C87.3816 337.578 87.4786 337.578 87.5757 337.578C87.7743 337.574 87.9684 337.565 88.167 337.552C88.5641 337.526 88.9656 337.477 89.3715 337.411C89.7774 337.346 90.1833 337.262 90.5893 337.161C90.9908 337.042 91.3923 336.906 91.7938 336.748C92.1953 336.59 92.5836 336.419 92.9587 336.234C93.144 336.142 93.3293 336.045 93.5102 335.944C93.6911 335.847 93.8632 335.729 94.0352 335.619C94.7191 335.167 95.3413 334.661 95.8972 334.125C96.034 333.989 96.1752 333.857 96.2987 333.712C96.4267 333.567 96.5502 333.418 96.6693 333.269C96.9076 332.97 97.1282 332.667 97.3312 332.355C97.5341 332.043 97.7195 331.731 97.8827 331.41C98.046 331.09 98.196 330.773 98.3151 330.431C98.8005 329.086 98.977 327.707 98.8358 326.372C98.7696 325.708 98.6107 325.04 98.3813 324.39C98.1519 323.744 97.8518 323.121 97.4768 322.523C98.2269 323.722 99.1887 324.707 100.332 325.431C101.47 326.152 102.811 326.644 104.214 326.771C104.92 326.842 105.648 326.842 106.394 326.763C106.769 326.727 107.135 326.657 107.501 326.569C107.868 326.481 108.238 326.376 108.609 326.253C109.346 326.003 110.091 325.691 110.78 325.26C111.477 324.838 112.161 324.351 112.801 323.784C113.423 323.195 113.979 322.571 114.464 321.917C114.587 321.754 114.702 321.587 114.817 321.425C114.923 321.254 115.024 321.082 115.126 320.906C115.32 320.559 115.501 320.208 115.655 319.852C116.308 318.451 116.582 316.948 116.573 315.547C116.573 315.195 116.551 314.848 116.507 314.506C116.458 314.159 116.392 313.816 116.308 313.482C116.141 312.814 115.898 312.177 115.589 311.576C114.971 310.376 114.076 309.331 112.942 308.478C114.076 309.331 115.342 309.915 116.661 310.174C117.985 310.438 119.384 310.394 120.773 310.038C121.449 309.849 122.124 309.581 122.785 309.238C123.443 308.896 124.1 308.487 124.683 307.978C125.274 307.477 125.839 306.906 126.359 306.273C126.862 305.632 127.299 304.916 127.696 304.156C128.098 303.4 128.371 302.605 128.579 301.814C128.685 301.419 128.768 301.028 128.835 300.637C128.865 300.439 128.901 300.246 128.918 300.052C128.936 299.855 128.949 299.661 128.954 299.464C128.985 298.686 128.941 297.926 128.83 297.197C128.804 297.017 128.768 296.837 128.733 296.657C128.693 296.476 128.645 296.301 128.592 296.125C128.49 295.774 128.371 295.435 128.239 295.106C127.701 293.788 126.929 292.659 125.887 291.758C124.868 290.862 123.65 290.212 122.291 289.825C123.655 290.207 125.031 290.291 126.373 290.062C127.732 289.838 128.985 289.285 130.141 288.446C130.427 288.235 130.71 288.011 130.979 287.765C131.116 287.642 131.248 287.514 131.38 287.387C131.504 287.255 131.628 287.119 131.747 286.979C132.223 286.421 132.66 285.797 133.044 285.116C133.441 284.439 133.728 283.701 133.97 282.924C134.09 282.533 134.191 282.133 134.279 281.724C134.323 281.518 134.363 281.316 134.394 281.105C134.421 280.894 134.443 280.683 134.456 280.472C134.522 279.62 134.513 278.785 134.434 277.977C134.416 277.775 134.385 277.577 134.346 277.375C134.31 277.177 134.266 276.98 134.222 276.786C134.134 276.4 134.028 276.022 133.904 275.653C133.662 274.919 133.366 274.23 132.969 273.593C132.585 272.956 132.148 272.376 131.667 271.862C131.429 271.603 131.178 271.361 130.917 271.137C130.652 270.913 130.366 270.702 130.079 270.513C129.501 270.131 128.892 269.823 128.252 269.586C126.981 269.116 125.614 268.945 124.202 269.072C124.908 269.006 125.587 268.87 126.24 268.664C126.898 268.457 127.529 268.176 128.102 267.829C129.258 267.139 130.251 266.168 131.036 264.973C131.133 264.824 131.23 264.67 131.319 264.517C131.403 264.363 131.486 264.205 131.561 264.042C131.716 263.717 131.857 263.383 131.985 263.036C132.232 262.342 132.435 261.6 132.545 260.831C132.722 259.302 132.669 257.628 132.17 255.989C131.729 254.333 130.891 252.884 129.933 251.675C129.43 251.078 128.87 250.551 128.292 250.09C127.709 249.633 127.114 249.237 126.456 248.939C125.159 248.332 123.8 248.025 122.455 248.042C121.091 248.064 119.745 248.403 118.479 249.031C119.745 248.398 120.822 247.537 121.651 246.47C122.071 245.934 122.424 245.349 122.719 244.721C122.869 244.405 122.984 244.089 123.09 243.759C123.196 243.43 123.28 243.091 123.35 242.744C123.487 242.05 123.553 241.325 123.549 240.578C123.527 239.84 123.421 239.094 123.24 238.338C123.152 237.96 123.041 237.578 122.918 237.2C122.785 236.827 122.622 236.458 122.446 236.093C122.269 235.728 122.075 235.364 121.859 235.004C121.643 234.648 121.422 234.283 121.153 233.954C120.623 233.282 120.05 232.671 119.445 232.126C119.15 231.849 118.814 231.612 118.488 231.384C118.157 231.155 117.826 230.949 117.486 230.76C117.147 230.571 116.807 230.395 116.463 230.246C116.119 230.092 115.752 229.974 115.399 229.864C114.685 229.653 113.97 229.512 113.268 229.451C112.571 229.385 111.856 229.424 111.177 229.525C110.493 229.631 109.835 229.811 109.205 230.061C107.947 230.562 106.822 231.357 105.864 232.403C106.826 231.353 107.515 230.162 107.899 228.875C108.093 228.229 108.212 227.562 108.251 226.876C108.274 226.534 108.274 226.187 108.256 225.835C108.238 225.488 108.203 225.128 108.137 224.79C108.009 224.1 107.806 223.406 107.528 222.716C107.387 222.373 107.228 222.031 107.051 221.692C106.87 221.363 106.663 221.042 106.442 220.722C105.997 220.089 105.485 219.47 104.898 218.903C104.298 218.354 103.632 217.844 102.908 217.383C102.727 217.269 102.546 217.159 102.361 217.053C102.171 216.957 101.986 216.86 101.796 216.772C101.417 216.592 101.033 216.434 100.649 216.293C100.265 216.153 99.8815 216.03 99.4976 215.929C99.1137 215.828 98.7166 215.766 98.3328 215.709C97.5562 215.604 96.7973 215.573 96.0605 215.612C95.3192 215.665 94.5956 215.81 93.9161 216.008C93.2366 216.21 92.5924 216.478 91.9968 216.812C91.3967 217.154 90.8452 217.567 90.3466 218.033C89.3583 218.96 88.5905 220.102 88.0787 221.416C88.5905 220.102 88.8023 218.74 88.6964 217.383C88.6479 216.698 88.5067 216.047 88.2949 215.397C88.0831 214.747 87.7919 214.114 87.4257 213.504C87.2448 213.196 87.0418 212.897 86.8256 212.603C86.605 212.318 86.3624 212.05 86.1064 211.782C85.5902 211.25 85.0078 210.758 84.368 210.31C84.2842 210.253 84.2048 210.2 84.1253 210.143C84.0415 210.095 83.9577 210.042 83.8738 209.994C83.7062 209.897 83.5297 209.8 83.3532 209.708C83.0002 209.524 82.634 209.352 82.2545 209.194C81.8751 209.036 81.4868 208.895 81.0853 208.768C80.6838 208.654 80.269 208.566 79.8455 208.487C79.4219 208.412 79.0027 208.355 78.5836 208.315C78.1644 208.28 77.7541 208.25 77.3437 208.272C76.523 208.302 75.7288 208.403 74.9699 208.575C74.2154 208.728 73.4918 209.01 72.8212 209.326C72.1505 209.642 71.5284 210.02 70.968 210.442C69.8473 211.325 68.9693 212.419 68.3825 213.627C67.7956 214.839 67.5 216.184 67.5 217.598C67.5 216.184 67.2044 214.839 66.6176 213.627C66.0307 212.419 65.1527 211.32 64.032 210.442C63.4716 210.016 62.8539 209.642 62.1788 209.326C61.5082 209.014 60.7846 208.728 60.0301 208.575C59.2712 208.408 58.477 208.307 57.6563 208.272C57.2459 208.25 56.8356 208.28 56.4164 208.315C55.9973 208.355 55.5781 208.408 55.1545 208.487C54.731 208.561 54.3162 208.654 53.9147 208.768C53.5132 208.895 53.1249 209.036 52.7455 209.194C52.366 209.352 51.9998 209.524 51.6468 209.708C51.4703 209.8 51.2982 209.897 51.1262 209.994C51.0423 210.042 50.9585 210.095 50.8747 210.143C50.7952 210.196 50.7114 210.253 50.632 210.31C49.9922 210.758 49.4054 211.254 48.8936 211.782C48.6377 212.045 48.395 212.318 48.1744 212.603C47.9538 212.897 47.7552 213.196 47.5743 213.504C47.2081 214.114 46.9169 214.751 46.7051 215.397C46.4933 216.047 46.3521 216.698 46.3036 217.383C46.2021 218.736 46.4139 220.098 46.9213 221.416C46.4095 220.102 45.6417 218.956 44.6534 218.033C44.1592 217.572 43.6033 217.154 43.0032 216.812C42.4076 216.478 41.7678 216.21 41.0839 216.008C40.4044 215.81 39.6808 215.665 38.9395 215.612C38.2027 215.573 37.4438 215.604 36.6672 215.709C36.2834 215.766 35.8863 215.828 35.5024 215.929C35.1185 216.03 34.7347 216.153 34.3508 216.293C33.9669 216.434 33.5831 216.592 33.2036 216.772C33.0139 216.86 32.8242 216.957 32.6389 217.053C32.4535 217.159 32.2726 217.269 32.0917 217.383C31.3681 217.844 30.7019 218.354 30.1018 218.903C29.515 219.47 29.0032 220.089 28.5575 220.722C28.3369 221.038 28.1295 221.359 27.9486 221.692C27.7721 222.031 27.6133 222.373 27.4721 222.716C27.1941 223.401 26.9868 224.096 26.8632 224.79C26.797 225.132 26.7617 225.488 26.7441 225.835C26.7264 226.187 26.7264 226.534 26.7485 226.876C26.7882 227.562 26.9073 228.229 27.1015 228.875C27.4853 230.167 28.1781 231.357 29.1355 232.403C28.1781 231.357 27.0485 230.567 25.7955 230.061C25.1689 229.811 24.5071 229.631 23.8232 229.525C23.1437 229.424 22.4289 229.38 21.7318 229.451C21.0302 229.512 20.3155 229.648 19.6007 229.864C19.2477 229.974 18.8815 230.092 18.5373 230.246C18.1932 230.4 17.849 230.571 17.5137 230.76C17.1739 230.949 16.8386 231.16 16.5121 231.384C16.1856 231.612 15.8547 231.849 15.5546 232.126C14.9502 232.671 14.3722 233.282 13.8471 233.954C13.578 234.283 13.3573 234.648 13.1411 235.004C12.9294 235.364 12.7308 235.724 12.5543 236.093C12.3778 236.462 12.2146 236.827 12.0822 237.2C11.9543 237.578 11.8484 237.96 11.7601 238.338C11.5836 239.094 11.4733 239.845 11.4513 240.578C11.4468 241.325 11.513 242.05 11.6498 242.744C11.7204 243.091 11.8042 243.43 11.9101 243.759C12.016 244.089 12.1307 244.405 12.2808 244.721C12.572 245.349 12.9294 245.934 13.3485 246.47C14.1824 247.537 15.2546 248.398 16.5209 249.031C15.2546 248.403 13.9045 248.064 12.5455 248.042C11.1998 248.029 9.84078 248.332 8.54358 248.939C7.88616 249.237 7.29051 249.633 6.70809 250.09C6.13009 250.551 5.56973 251.078 5.06674 251.675C4.10928 252.884 3.27095 254.338 2.82973 255.989C2.33114 257.628 2.2782 259.302 2.45469 260.831C2.56499 261.6 2.76354 262.342 3.01504 263.036C3.143 263.383 3.28419 263.721 3.43862 264.042C3.51804 264.205 3.59746 264.363 3.68129 264.517C3.77395 264.675 3.8666 264.824 3.96367 264.973C4.74905 266.168 5.74622 267.139 6.89782 267.829C7.47141 268.176 8.10236 268.453 8.75978 268.664C9.4128 268.87 10.0967 269.006 10.7982 269.072C9.38632 268.945 8.01853 269.116 6.7478 269.586C6.11244 269.823 5.49914 270.131 4.92113 270.513C4.63434 270.702 4.34754 270.913 4.0828 271.137C3.82248 271.361 3.57098 271.603 3.33272 271.862C2.85179 272.376 2.41498 272.96 2.03111 273.593C1.63401 274.23 1.33839 274.919 1.09572 275.653C0.976584 276.022 0.866278 276.4 0.778033 276.786C0.733911 276.98 0.694201 277.177 0.654491 277.375C0.619193 277.573 0.583895 277.775 0.566246 277.977C0.486825 278.785 0.478001 279.62 0.544184 280.472C0.561833 280.683 0.583895 280.894 0.605956 281.105C0.636842 281.311 0.680964 281.518 0.720674 281.724C0.808919 282.133 0.910401 282.533 1.02953 282.924C1.2722 283.701 1.55459 284.444 1.9561 285.116C2.33997 285.792 2.77678 286.421 3.2533 286.979C3.37243 287.119 3.49598 287.255 3.61952 287.387C3.75189 287.519 3.88425 287.642 4.02103 287.765C4.29459 288.011 4.57256 288.235 4.85936 288.446C6.01537 289.285 7.26403 289.838 8.62742 290.062C9.96874 290.291 11.3454 290.207 12.7087 289.825C11.3454 290.212 10.132 290.862 9.11276 291.758C8.07147 292.659 7.29933 293.788 6.76104 295.106C6.62867 295.435 6.50954 295.774 6.40806 296.125C6.35952 296.301 6.31099 296.476 6.26687 296.657C6.23157 296.832 6.19627 297.012 6.1698 297.197C6.05949 297.922 6.01537 298.682 6.04625 299.464C6.05508 299.657 6.0639 299.855 6.08155 300.052C6.0992 300.25 6.13009 300.443 6.16538 300.637C6.23157 301.028 6.3154 301.423 6.42129 301.814C6.62867 302.6 6.90223 303.4 7.30374 304.156C7.69643 304.916 8.13325 305.632 8.64065 306.273C9.1613 306.906 9.72165 307.477 10.3129 307.978C10.8953 308.487 11.5527 308.896 12.2102 309.238C12.8676 309.581 13.5427 309.849 14.2221 310.038C15.612 310.394 17.0107 310.438 18.3344 310.174C19.6536 309.915 20.9199 309.331 22.0539 308.478C20.9199 309.331 20.0242 310.376 19.4065 311.576C19.0977 312.177 18.855 312.814 18.6873 313.482C18.6035 313.816 18.5373 314.159 18.4888 314.506C18.4491 314.848 18.427 315.195 18.4226 315.547C18.4138 316.953 18.6873 318.455 19.3403 319.852C19.4992 320.208 19.6757 320.559 19.8698 320.906C19.9669 321.082 20.0684 321.254 20.1787 321.425C20.289 321.592 20.4081 321.754 20.5317 321.917C21.017 322.567 21.5729 323.195 22.1951 323.784C22.8348 324.351 23.5187 324.838 24.2159 325.26C24.9042 325.691 25.6499 326.003 26.3911 326.253C26.7617 326.376 27.128 326.481 27.4986 326.569C27.8692 326.657 28.231 326.727 28.6061 326.763C29.3517 326.837 30.0798 326.842 30.7857 326.771C32.1844 326.644 33.5257 326.156 34.6685 325.431C35.8113 324.707 36.7731 323.722 37.5232 322.523C37.1526 323.121 36.8481 323.744 36.6187 324.39C36.3893 325.036 36.2348 325.704 36.1642 326.372C36.023 327.707 36.1995 329.082 36.6849 330.431C36.804 330.773 36.954 331.085 37.1173 331.41C37.2805 331.731 37.4659 332.047 37.6688 332.355C37.8718 332.667 38.0924 332.97 38.3307 333.269C38.4498 333.418 38.5733 333.563 38.7013 333.712C38.8292 333.857 38.966 333.989 39.1028 334.125C39.6587 334.661 40.2853 335.167 40.9648 335.619C41.1368 335.729 41.3089 335.847 41.4898 335.944C41.6707 336.045 41.856 336.142 42.0413 336.234C42.4164 336.419 42.8047 336.59 43.2062 336.748C43.6077 336.906 44.0092 337.042 44.4107 337.161C44.8167 337.262 45.227 337.346 45.6285 337.411C46.0344 337.477 46.4359 337.521 46.833 337.552C47.0316 337.565 47.2301 337.574 47.4243 337.578C47.5214 337.578 47.6184 337.578 47.7199 337.578C47.817 337.574 47.914 337.57 48.0155 337.565C48.7965 337.521 49.5554 337.403 50.2746 337.223C50.632 337.13 50.9806 337.025 51.3203 336.902C51.66 336.766 51.991 336.616 52.3086 336.449C52.944 336.12 53.5264 335.733 54.0471 335.29C54.3074 335.07 54.5545 334.837 54.7883 334.591C54.903 334.468 55.0178 334.341 55.1237 334.213C55.234 334.081 55.3354 333.945 55.4369 333.809C56.24 332.711 56.7783 331.441 57.0386 330.053C56.7827 331.441 56.8268 332.812 57.1798 334.117C57.3563 334.771 57.6122 335.408 57.9387 336.019C58.2696 336.612 58.6711 337.174 59.1432 337.706C59.6153 338.233 60.158 338.725 60.7581 339.169C61.3626 339.59 62.0244 339.959 62.7392 340.271C63.0966 340.429 63.4628 340.57 63.8423 340.697C64.032 340.763 64.2261 340.816 64.4203 340.864C64.6144 340.913 64.8129 340.957 65.0115 340.996C65.8101 341.154 66.644 341.247 67.5 341.264C68.356 341.247 69.1899 341.154 69.9885 340.996H69.9929Z" fill="white"/>
<path d="M36.059 296.204V294.674H29.414V296.204H36.059ZM36.059 293.714V292.379H37.289V297.194H28.199V292.379H29.414V293.714H36.059ZM34.439 286.529V287.999H36.524V286.529H34.439ZM31.064 287.999V286.529H28.994V287.999H31.064ZM33.374 290.474H38.834V291.464H26.669V290.474H32.144V288.989H27.824V284.144H28.994V285.599H31.064V284.144H32.234V288.854H33.284V284.144H34.439V285.599H36.524V284.144H37.694V288.989H33.374V290.474ZM40.5129 285.374H46.8129C46.8129 289.259 45.0279 292.679 40.5579 294.869L39.8979 293.864C43.5129 292.139 45.3129 289.559 45.5679 286.364H40.5129V285.374ZM49.5279 283.919H50.7579V297.374H49.5279V283.919ZM60.8762 292.994V289.454H57.1262V292.994H60.8762ZM65.2262 283.919H66.4562V297.404H65.2262V289.904H62.0762V293.999H55.9112V284.984H57.1262V288.479H60.8762V284.984H62.0762V288.914H65.2262V283.919ZM79.145 289.154V290.114H70.01V284.414H79.07V285.374H71.24V286.784H78.71V287.714H71.24V289.154H79.145ZM71.21 293.339V296.069H79.31V297.074H69.98V293.339H71.21ZM68.405 291.374H80.57V292.364H68.405V291.374ZM86.7583 294.824V296.234H95.2633V297.194H85.5433V293.909H93.5833V292.649H85.5133V291.689H94.7833V294.824H86.7583ZM94.3933 289.424H96.2233V290.414H84.1033V289.424H93.1483C93.2833 288.794 93.3583 288.224 93.4183 287.714L85.4533 288.074L85.3033 287.099L93.4783 286.844C93.4933 286.394 93.4933 285.974 93.4933 285.584V285.539H85.6333V284.564H94.7083V285.584C94.7083 286.634 94.7083 287.834 94.3933 289.424ZM105.297 289.964L105.432 290.954C103.227 291.314 101.397 291.389 98.9071 291.389H97.8271V287.504H102.687V285.719H97.7821V284.714H103.902V288.449H99.0271V290.384C101.412 290.384 103.167 290.309 105.297 289.964ZM99.1771 293.879V292.874H108.162V297.374H106.932V293.879H99.1771ZM106.932 283.934H108.162V292.154H106.932V283.934Z" fill="black"/>
<path d="M66.6664 235.36C72.0744 235.36 75.8184 238.528 75.8184 243.2C75.8184 246.208 73.6104 248.416 71.4344 248.8C73.8344 249.184 76.5224 251.264 76.5224 254.624C76.5224 259.648 72.2664 262.784 66.8584 262.784C61.1304 262.784 57.5784 259.584 57.1624 254.56H62.8904C63.1144 256.64 64.4264 257.888 66.8584 257.888C69.2584 257.888 70.8584 256.576 70.8584 254.656C70.8584 252.48 69.0344 251.328 66.3144 251.328H63.7224V246.592H66.3144C68.6824 246.592 70.0904 245.312 70.0904 243.328C70.0904 241.408 68.8104 240.224 66.6344 240.224C64.3624 240.224 63.3064 242.048 63.3064 243.904H57.5784C57.5784 238.944 61.3224 235.36 66.6664 235.36Z" fill="#FF2C2C"/>
<path d="M224.993 340.996C225.191 340.957 225.39 340.913 225.584 340.864C225.778 340.816 225.972 340.768 226.162 340.697C226.542 340.57 226.912 340.425 227.265 340.271C227.98 339.955 228.642 339.59 229.246 339.169C229.846 338.725 230.389 338.233 230.861 337.706C231.333 337.179 231.739 336.616 232.066 336.019C232.392 335.408 232.648 334.771 232.825 334.117C233.178 332.812 233.222 331.437 232.966 330.053C233.226 331.441 233.764 332.711 234.567 333.809C234.669 333.945 234.77 334.081 234.881 334.213C234.987 334.341 235.101 334.468 235.216 334.591C235.446 334.837 235.693 335.07 235.957 335.29C236.482 335.729 237.065 336.12 237.696 336.449C238.013 336.616 238.34 336.766 238.684 336.902C239.024 337.029 239.372 337.13 239.73 337.223C240.449 337.403 241.204 337.521 241.989 337.565C242.086 337.57 242.187 337.574 242.285 337.578C242.382 337.578 242.479 337.578 242.576 337.578C242.774 337.574 242.968 337.565 243.167 337.552C243.564 337.526 243.966 337.477 244.372 337.411C244.777 337.346 245.183 337.262 245.589 337.161C245.991 337.042 246.392 336.906 246.794 336.748C247.195 336.59 247.584 336.419 247.959 336.234C248.144 336.142 248.329 336.045 248.51 335.944C248.691 335.847 248.863 335.729 249.035 335.619C249.719 335.167 250.341 334.661 250.897 334.125C251.034 333.989 251.175 333.857 251.299 333.712C251.427 333.567 251.55 333.418 251.669 333.269C251.908 332.97 252.128 332.667 252.331 332.355C252.534 332.043 252.719 331.731 252.883 331.41C253.046 331.09 253.196 330.773 253.315 330.431C253.8 329.086 253.977 327.707 253.836 326.372C253.77 325.708 253.611 325.04 253.381 324.39C253.152 323.744 252.852 323.121 252.477 322.523C253.227 323.722 254.189 324.707 255.332 325.431C256.47 326.152 257.811 326.644 259.214 326.771C259.92 326.842 260.648 326.842 261.394 326.763C261.769 326.727 262.135 326.657 262.501 326.569C262.868 326.481 263.238 326.376 263.609 326.253C264.346 326.003 265.091 325.691 265.78 325.26C266.477 324.838 267.161 324.351 267.801 323.784C268.423 323.195 268.979 322.571 269.464 321.917C269.587 321.754 269.702 321.587 269.817 321.425C269.923 321.254 270.024 321.082 270.126 320.906C270.32 320.559 270.501 320.208 270.655 319.852C271.308 318.451 271.582 316.948 271.573 315.547C271.573 315.195 271.551 314.848 271.507 314.506C271.458 314.159 271.392 313.816 271.308 313.482C271.141 312.814 270.898 312.177 270.589 311.576C269.971 310.376 269.076 309.331 267.942 308.478C269.076 309.331 270.342 309.915 271.661 310.174C272.985 310.438 274.384 310.394 275.773 310.038C276.449 309.849 277.124 309.581 277.785 309.238C278.443 308.896 279.1 308.487 279.683 307.978C280.274 307.477 280.839 306.906 281.359 306.273C281.862 305.632 282.299 304.916 282.696 304.156C283.098 303.4 283.371 302.605 283.579 301.814C283.685 301.419 283.768 301.028 283.835 300.637C283.865 300.439 283.901 300.246 283.918 300.052C283.936 299.855 283.949 299.661 283.954 299.464C283.985 298.686 283.941 297.926 283.83 297.197C283.804 297.017 283.768 296.837 283.733 296.657C283.693 296.476 283.645 296.301 283.592 296.125C283.49 295.774 283.371 295.435 283.239 295.106C282.701 293.788 281.929 292.659 280.887 291.758C279.868 290.862 278.65 290.212 277.291 289.825C278.655 290.207 280.031 290.291 281.373 290.062C282.732 289.838 283.985 289.285 285.141 288.446C285.427 288.235 285.71 288.011 285.979 287.765C286.116 287.642 286.248 287.514 286.38 287.387C286.504 287.255 286.628 287.119 286.747 286.979C287.223 286.421 287.66 285.797 288.044 285.116C288.441 284.439 288.728 283.701 288.97 282.924C289.09 282.533 289.191 282.133 289.279 281.724C289.323 281.518 289.363 281.316 289.394 281.105C289.421 280.894 289.443 280.683 289.456 280.472C289.522 279.62 289.513 278.785 289.434 277.977C289.416 277.775 289.385 277.577 289.346 277.375C289.31 277.177 289.266 276.98 289.222 276.786C289.134 276.4 289.028 276.022 288.904 275.653C288.662 274.919 288.366 274.23 287.969 273.593C287.585 272.956 287.148 272.376 286.667 271.862C286.429 271.603 286.178 271.361 285.917 271.137C285.652 270.913 285.366 270.702 285.079 270.513C284.501 270.131 283.892 269.823 283.252 269.586C281.981 269.116 280.614 268.945 279.202 269.072C279.908 269.006 280.587 268.87 281.24 268.664C281.898 268.457 282.529 268.176 283.102 267.829C284.258 267.139 285.251 266.168 286.036 264.973C286.133 264.824 286.23 264.67 286.319 264.517C286.403 264.363 286.486 264.205 286.561 264.042C286.716 263.717 286.857 263.383 286.985 263.036C287.232 262.342 287.435 261.6 287.545 260.831C287.722 259.302 287.669 257.628 287.17 255.989C286.729 254.333 285.891 252.884 284.933 251.675C284.43 251.078 283.87 250.551 283.292 250.09C282.709 249.633 282.114 249.237 281.456 248.939C280.159 248.332 278.8 248.025 277.455 248.042C276.091 248.064 274.745 248.403 273.479 249.031C274.745 248.398 275.822 247.537 276.651 246.47C277.071 245.934 277.424 245.349 277.719 244.721C277.869 244.405 277.984 244.089 278.09 243.759C278.196 243.43 278.28 243.091 278.35 242.744C278.487 242.05 278.553 241.325 278.549 240.578C278.527 239.84 278.421 239.094 278.24 238.338C278.152 237.96 278.041 237.578 277.918 237.2C277.785 236.827 277.622 236.458 277.446 236.093C277.269 235.728 277.075 235.364 276.859 235.004C276.643 234.648 276.422 234.283 276.153 233.954C275.623 233.282 275.05 232.671 274.445 232.126C274.15 231.849 273.814 231.612 273.488 231.384C273.157 231.155 272.826 230.949 272.486 230.76C272.147 230.571 271.807 230.395 271.463 230.246C271.119 230.092 270.752 229.974 270.399 229.864C269.685 229.653 268.97 229.512 268.268 229.451C267.571 229.385 266.856 229.424 266.177 229.525C265.493 229.631 264.835 229.811 264.205 230.061C262.947 230.562 261.822 231.357 260.864 232.403C261.826 231.353 262.515 230.162 262.899 228.875C263.093 228.229 263.212 227.562 263.251 226.876C263.274 226.534 263.274 226.187 263.256 225.835C263.238 225.488 263.203 225.128 263.137 224.79C263.009 224.1 262.806 223.406 262.528 222.716C262.387 222.373 262.228 222.031 262.051 221.692C261.87 221.363 261.663 221.042 261.442 220.722C260.997 220.089 260.485 219.47 259.898 218.903C259.298 218.354 258.632 217.844 257.908 217.383C257.727 217.269 257.546 217.159 257.361 217.053C257.171 216.957 256.986 216.86 256.796 216.772C256.417 216.592 256.033 216.434 255.649 216.293C255.265 216.153 254.881 216.03 254.498 215.929C254.114 215.828 253.717 215.766 253.333 215.709C252.556 215.604 251.797 215.573 251.06 215.612C250.319 215.665 249.596 215.81 248.916 216.008C248.237 216.21 247.592 216.478 246.997 216.812C246.397 217.154 245.845 217.567 245.347 218.033C244.358 218.96 243.591 220.102 243.079 221.416C243.591 220.102 243.802 218.74 243.696 217.383C243.648 216.698 243.507 216.047 243.295 215.397C243.083 214.747 242.792 214.114 242.426 213.504C242.245 213.196 242.042 212.897 241.826 212.603C241.605 212.318 241.362 212.05 241.106 211.782C240.59 211.25 240.008 210.758 239.368 210.31C239.284 210.253 239.205 210.2 239.125 210.143C239.042 210.095 238.958 210.042 238.874 209.994C238.706 209.897 238.53 209.8 238.353 209.708C238 209.524 237.634 209.352 237.255 209.194C236.875 209.036 236.487 208.895 236.085 208.768C235.684 208.654 235.269 208.566 234.845 208.487C234.422 208.412 234.003 208.355 233.584 208.315C233.164 208.28 232.754 208.25 232.344 208.272C231.523 208.302 230.729 208.403 229.97 208.575C229.215 208.728 228.492 209.01 227.821 209.326C227.151 209.642 226.528 210.02 225.968 210.442C224.847 211.325 223.969 212.419 223.382 213.627C222.796 214.839 222.5 216.184 222.5 217.598C222.5 216.184 222.204 214.839 221.618 213.627C221.031 212.419 220.153 211.32 219.032 210.442C218.472 210.016 217.854 209.642 217.179 209.326C216.508 209.014 215.785 208.728 215.03 208.575C214.271 208.408 213.477 208.307 212.656 208.272C212.246 208.25 211.836 208.28 211.416 208.315C210.997 208.355 210.578 208.408 210.155 208.487C209.731 208.561 209.316 208.654 208.915 208.768C208.513 208.895 208.125 209.036 207.745 209.194C207.366 209.352 207 209.524 206.647 209.708C206.47 209.8 206.298 209.897 206.126 209.994C206.042 210.042 205.958 210.095 205.875 210.143C205.795 210.196 205.711 210.253 205.632 210.31C204.992 210.758 204.405 211.254 203.894 211.782C203.638 212.045 203.395 212.318 203.174 212.603C202.954 212.897 202.755 213.196 202.574 213.504C202.208 214.114 201.917 214.751 201.705 215.397C201.493 216.047 201.352 216.698 201.304 217.383C201.202 218.736 201.414 220.098 201.921 221.416C201.409 220.102 200.642 218.956 199.653 218.033C199.159 217.572 198.603 217.154 198.003 216.812C197.408 216.478 196.768 216.21 196.084 216.008C195.404 215.81 194.681 215.665 193.94 215.612C193.203 215.573 192.444 215.604 191.667 215.709C191.283 215.766 190.886 215.828 190.502 215.929C190.119 216.03 189.735 216.153 189.351 216.293C188.967 216.434 188.583 216.592 188.204 216.772C188.014 216.86 187.824 216.957 187.639 217.053C187.454 217.159 187.273 217.269 187.092 217.383C186.368 217.844 185.702 218.354 185.102 218.903C184.515 219.47 184.003 220.089 183.558 220.722C183.337 221.038 183.13 221.359 182.949 221.692C182.772 222.031 182.613 222.373 182.472 222.716C182.194 223.401 181.987 224.096 181.863 224.79C181.797 225.132 181.762 225.488 181.744 225.835C181.726 226.187 181.726 226.534 181.749 226.876C181.788 227.562 181.907 228.229 182.101 228.875C182.485 230.167 183.178 231.357 184.136 232.403C183.178 231.357 182.049 230.567 180.795 230.061C180.169 229.811 179.507 229.631 178.823 229.525C178.144 229.424 177.429 229.38 176.732 229.451C176.03 229.512 175.315 229.648 174.601 229.864C174.248 229.974 173.881 230.092 173.537 230.246C173.193 230.4 172.849 230.571 172.514 230.76C172.174 230.949 171.839 231.16 171.512 231.384C171.186 231.612 170.855 231.849 170.555 232.126C169.95 232.671 169.372 233.282 168.847 233.954C168.578 234.283 168.357 234.648 168.141 235.004C167.929 235.364 167.731 235.724 167.554 236.093C167.378 236.462 167.215 236.827 167.082 237.2C166.954 237.578 166.848 237.96 166.76 238.338C166.584 239.094 166.473 239.845 166.451 240.578C166.447 241.325 166.513 242.05 166.65 242.744C166.72 243.091 166.804 243.43 166.91 243.759C167.016 244.089 167.131 244.405 167.281 244.721C167.572 245.349 167.929 245.934 168.349 246.47C169.182 247.537 170.255 248.398 171.521 249.031C170.255 248.403 168.904 248.064 167.545 248.042C166.2 248.029 164.841 248.332 163.544 248.939C162.886 249.237 162.291 249.633 161.708 250.09C161.13 250.551 160.57 251.078 160.067 251.675C159.109 252.884 158.271 254.338 157.83 255.989C157.331 257.628 157.278 259.302 157.455 260.831C157.565 261.6 157.764 262.342 158.015 263.036C158.143 263.383 158.284 263.721 158.439 264.042C158.518 264.205 158.597 264.363 158.681 264.517C158.774 264.675 158.867 264.824 158.964 264.973C159.749 266.168 160.746 267.139 161.898 267.829C162.471 268.176 163.102 268.453 163.76 268.664C164.413 268.87 165.097 269.006 165.798 269.072C164.386 268.945 163.019 269.116 161.748 269.586C161.112 269.823 160.499 270.131 159.921 270.513C159.634 270.702 159.348 270.913 159.083 271.137C158.822 271.361 158.571 271.603 158.333 271.862C157.852 272.376 157.415 272.96 157.031 273.593C156.634 274.23 156.338 274.919 156.096 275.653C155.977 276.022 155.866 276.4 155.778 276.786C155.734 276.98 155.694 277.177 155.654 277.375C155.619 277.573 155.584 277.775 155.566 277.977C155.487 278.785 155.478 279.62 155.544 280.472C155.562 280.683 155.584 280.894 155.606 281.105C155.637 281.311 155.681 281.518 155.721 281.724C155.809 282.133 155.91 282.533 156.03 282.924C156.272 283.701 156.555 284.444 156.956 285.116C157.34 285.792 157.777 286.421 158.253 286.979C158.372 287.119 158.496 287.255 158.62 287.387C158.752 287.519 158.884 287.642 159.021 287.765C159.295 288.011 159.573 288.235 159.859 288.446C161.015 289.285 162.264 289.838 163.627 290.062C164.969 290.291 166.345 290.207 167.709 289.825C166.345 290.212 165.132 290.862 164.113 291.758C163.071 292.659 162.299 293.788 161.761 295.106C161.629 295.435 161.51 295.774 161.408 296.125C161.36 296.301 161.311 296.476 161.267 296.657C161.232 296.832 161.196 297.012 161.17 297.197C161.059 297.922 161.015 298.682 161.046 299.464C161.055 299.657 161.064 299.855 161.082 300.052C161.099 300.25 161.13 300.443 161.165 300.637C161.232 301.028 161.315 301.423 161.421 301.814C161.629 302.6 161.902 303.4 162.304 304.156C162.696 304.916 163.133 305.632 163.641 306.273C164.161 306.906 164.722 307.477 165.313 307.978C165.895 308.487 166.553 308.896 167.21 309.238C167.868 309.581 168.543 309.849 169.222 310.038C170.612 310.394 172.011 310.438 173.334 310.174C174.654 309.915 175.92 309.331 177.054 308.478C175.92 309.331 175.024 310.376 174.407 311.576C174.098 312.177 173.855 312.814 173.687 313.482C173.604 313.816 173.537 314.159 173.489 314.506C173.449 314.848 173.427 315.195 173.423 315.547C173.414 316.953 173.687 318.455 174.34 319.852C174.499 320.208 174.676 320.559 174.87 320.906C174.967 321.082 175.068 321.254 175.179 321.425C175.289 321.592 175.408 321.754 175.532 321.917C176.017 322.567 176.573 323.195 177.195 323.784C177.835 324.351 178.519 324.838 179.216 325.26C179.904 325.691 180.65 326.003 181.391 326.253C181.762 326.376 182.128 326.481 182.499 326.569C182.869 326.657 183.231 326.727 183.606 326.763C184.352 326.837 185.08 326.842 185.786 326.771C187.184 326.644 188.526 326.156 189.668 325.431C190.811 324.707 191.773 323.722 192.523 322.523C192.153 323.121 191.848 323.744 191.619 324.39C191.389 325.036 191.235 325.704 191.164 326.372C191.023 327.707 191.2 329.082 191.685 330.431C191.804 330.773 191.954 331.085 192.117 331.41C192.281 331.731 192.466 332.047 192.669 332.355C192.872 332.667 193.092 332.97 193.331 333.269C193.45 333.418 193.573 333.563 193.701 333.712C193.829 333.857 193.966 333.989 194.103 334.125C194.659 334.661 195.285 335.167 195.965 335.619C196.137 335.729 196.309 335.847 196.49 335.944C196.671 336.045 196.856 336.142 197.041 336.234C197.416 336.419 197.805 336.59 198.206 336.748C198.608 336.906 199.009 337.042 199.411 337.161C199.817 337.262 200.227 337.346 200.629 337.411C201.034 337.477 201.436 337.521 201.833 337.552C202.032 337.565 202.23 337.574 202.424 337.578C202.521 337.578 202.618 337.578 202.72 337.578C202.817 337.574 202.914 337.57 203.016 337.565C203.796 337.521 204.555 337.403 205.275 337.223C205.632 337.13 205.981 337.025 206.32 336.902C206.66 336.766 206.991 336.616 207.309 336.449C207.944 336.12 208.526 335.733 209.047 335.29C209.307 335.07 209.554 334.837 209.788 334.591C209.903 334.468 210.018 334.341 210.124 334.213C210.234 334.081 210.335 333.945 210.437 333.809C211.24 332.711 211.778 331.441 212.039 330.053C211.783 331.441 211.827 332.812 212.18 334.117C212.356 334.771 212.612 335.408 212.939 336.019C213.27 336.612 213.671 337.174 214.143 337.706C214.615 338.233 215.158 338.725 215.758 339.169C216.363 339.59 217.024 339.959 217.739 340.271C218.097 340.429 218.463 340.57 218.842 340.697C219.032 340.763 219.226 340.816 219.42 340.864C219.614 340.913 219.813 340.957 220.011 340.996C220.81 341.154 221.644 341.247 222.5 341.264C223.356 341.247 224.19 341.154 224.989 340.996H224.993Z" fill="white"/>
<path d="M203.82 289.379L203.955 290.384C202.11 290.759 200.505 290.849 197.67 290.849H196.62V284.954H202.56V285.944H197.835V289.844C200.505 289.844 202.05 289.754 203.82 289.379ZM202.185 296.369C204.165 296.369 205.395 295.769 205.395 294.779C205.395 293.789 204.165 293.189 202.185 293.189C200.19 293.189 198.96 293.789 198.96 294.779C198.96 295.769 200.19 296.369 202.185 296.369ZM202.185 292.199C204.9 292.199 206.61 293.159 206.61 294.779C206.61 296.399 204.9 297.359 202.185 297.359C199.455 297.359 197.745 296.399 197.745 294.779C197.745 293.159 199.455 292.199 202.185 292.199ZM206.475 287.414H208.455V288.434H206.475V291.929H205.23V283.919H206.475V287.414ZM217.049 290.444L216.464 291.419C214.919 290.954 213.674 289.964 213.059 288.659C212.489 290.069 211.259 291.164 209.669 291.674L209.069 290.714C211.064 290.084 212.429 288.524 212.429 286.739V286.484H209.444V285.494H212.429V283.859H213.659V285.494H216.629V286.484H213.659V286.739C213.659 288.434 215.054 289.874 217.049 290.444ZM212.609 293.564V296.204H218.954V293.564H212.609ZM211.409 297.194V292.589H220.154V297.194H211.409ZM218.909 283.919H220.154V291.884H218.909V288.689H216.254V287.669H218.909V283.919ZM232.717 285.149V286.079H224.992V285.149H228.247V283.829H229.477V285.149H232.717ZM226.882 288.569C226.882 289.274 227.647 289.724 228.862 289.724C230.047 289.724 230.827 289.274 230.827 288.569C230.827 287.864 230.047 287.429 228.862 287.429C227.647 287.429 226.882 287.864 226.882 288.569ZM233.122 291.149L233.212 292.034C230.332 292.544 227.152 292.544 224.797 292.559L224.662 291.569C225.727 291.569 226.957 291.569 228.247 291.524V290.549C226.687 290.399 225.712 289.679 225.712 288.569C225.712 287.339 226.957 286.574 228.862 286.574C230.737 286.574 231.997 287.339 231.997 288.569C231.997 289.664 231.022 290.384 229.477 290.549V291.479C230.707 291.419 231.952 291.329 233.122 291.149ZM226.297 294.599V293.624H235.147V297.374H233.917V294.599H226.297ZM237.127 287.999V289.019H235.147V292.949H233.917V283.934H235.147V287.999H237.127ZM248.811 283.934V293.759H247.581V283.934H248.811ZM239.286 288.164C239.286 289.499 240.276 290.429 241.581 290.429C242.916 290.429 243.906 289.499 243.906 288.164C243.906 286.859 242.916 285.929 241.581 285.929C240.276 285.929 239.286 286.859 239.286 288.164ZM245.106 288.164C245.106 290.114 243.591 291.494 241.581 291.494C239.586 291.494 238.086 290.114 238.086 288.164C238.086 286.229 239.586 284.864 241.581 284.864C243.591 284.864 245.106 286.229 245.106 288.164ZM241.386 296.069H249.216V297.074H240.156V292.754H241.386V296.069Z" fill="black"/>
<path d="M223.464 262.144V256.896H211.752V252.096L221.832 236.064H228.968V252.096H232.392V256.896H228.968V262.144H223.464ZM217.32 252.096H223.464V242.048L217.32 252.096Z" fill="#FF2C2C"/>
</svg>
