<?xml version="1.0" encoding="UTF-8"?>
<svg id="_레이어_1" data-name="레이어_1" xmlns="http://www.w3.org/2000/svg" xmlns:xlink="http://www.w3.org/1999/xlink" version="1.1" viewBox="0 0 88.7 120.1">
  <!-- Generator: Adobe Illustrator 29.0.1, SVG Export Plug-In . SVG Version: 2.1.0 Build 192)  -->
  <defs>
    <style>
      .st0 {
        mask: url(#mask);
      }

      .st1 {
        fill: url(#_무제_그라디언트);
      }

      .st2 {
        mask: url(#mask-2);
      }

      .st3 {
        mask: url(#mask-3);
      }

      .st4 {
        mask: url(#mask-4);
      }

      .st5 {
        mask: url(#mask-5);
      }

      .st6 {
        mask: url(#mask-7);
      }

      .st7 {
        mask: url(#mask-6);
      }

      .st8 {
        mask: url(#mask-1);
      }

      .st9 {
        mask: url(#mask-9);
      }

      .st10 {
        mask: url(#mask-8);
      }

      .st11 {
        fill: url(#_무제_그라디언트_6);
      }

      .st12 {
        fill: url(#_무제_그라디언트_4);
      }

      .st13 {
        fill: url(#_무제_그라디언트_7);
      }

      .st14 {
        fill: url(#_무제_그라디언트_5);
      }

      .st15 {
        fill: url(#_무제_그라디언트_8);
      }

      .st16 {
        fill: url(#_무제_그라디언트_9);
      }

      .st17 {
        fill: url(#_무제_그라디언트_2);
      }

      .st18 {
        fill: url(#_무제_그라디언트_3);
      }

      .st19 {
        fill: #fff;
      }

      .st20 {
        fill: url(#_무제_그라디언트_17);
      }

      .st21 {
        fill: url(#_무제_그라디언트_19);
      }

      .st22 {
        fill: url(#_무제_그라디언트_14);
      }

      .st23 {
        fill: url(#_무제_그라디언트_11);
      }

      .st24 {
        fill: url(#_무제_그라디언트_18);
      }

      .st25 {
        fill: url(#_무제_그라디언트_13);
      }

      .st26 {
        fill: url(#_무제_그라디언트_15);
      }

      .st27 {
        fill: url(#_무제_그라디언트_16);
      }

      .st28 {
        fill: url(#_무제_그라디언트_12);
      }

      .st29 {
        fill: url(#_무제_그라디언트_10);
      }

      .st30 {
        fill: url(#_무제_그라디언트_22);
      }

      .st31 {
        fill: url(#_무제_그라디언트_21);
      }

      .st32 {
        fill: url(#_무제_그라디언트_20);
      }

      .st33 {
        fill: url(#_무제_그라디언트_23);
      }

      .st34 {
        mask: url(#mask-10);
      }

      .st35 {
        mask: url(#mask-14);
      }

      .st36 {
        mask: url(#mask-18);
      }

      .st37 {
        mask: url(#mask-11);
      }

      .st38 {
        mask: url(#mask-16);
      }

      .st39 {
        mask: url(#mask-13);
      }

      .st40 {
        mask: url(#mask-19);
      }

      .st41 {
        mask: url(#mask-12);
      }

      .st42 {
        mask: url(#mask-17);
      }

      .st43 {
        mask: url(#mask-15);
      }

      .st44 {
        mask: url(#mask-22);
      }

      .st45 {
        mask: url(#mask-21);
      }

      .st46 {
        mask: url(#mask-20);
      }
    </style>
    <mask id="mask" x="10.1" y="0" width="78.6" height="78.6" maskUnits="userSpaceOnUse">
      <g id="mask0_997_3478">
        <path class="st19" d="M73.8,42.2c-1.6,13.5-13.9,23.1-27.3,21.5-13.5-1.6-23.1-13.9-21.5-27.3,1.6-13.5,13.9-23.1,27.3-21.5,13.5,1.6,23.1,13.9,21.5,27.3Z"/>
      </g>
    </mask>
    <radialGradient id="_무제_그라디언트" data-name="무제 그라디언트" cx="-590.8" cy="745" fx="-590.8" fy="745" r="1" gradientTransform="translate(-28319.4 38567.5) rotate(74.8) scale(50.3 -50.3)" gradientUnits="userSpaceOnUse">
      <stop offset="0" stop-color="#fff"/>
      <stop offset=".1" stop-color="#fff"/>
      <stop offset=".2" stop-color="#fafafa"/>
      <stop offset=".3" stop-color="#ebecec"/>
      <stop offset=".4" stop-color="#dcdddd"/>
      <stop offset=".4" stop-color="#d8d9d9"/>
      <stop offset=".5" stop-color="#b9baba"/>
      <stop offset=".6" stop-color="#a6a7a7"/>
      <stop offset=".7" stop-color="#9fa0a0"/>
      <stop offset="1" stop-color="#9fa0a0"/>
    </radialGradient>
    <mask id="mask-1" x="0" y="37.8" width="89.7" height="82.3" maskUnits="userSpaceOnUse">
      <g id="mask1_997_3478">
        <path class="st19" d="M77,89.3c-2.1,18-17,18-35.2,15.8-18.2-2.1-32.7-5.5-30.6-23.6,2.1-18,18.6-30.9,36.8-28.8,0,0,0,0,0,0,18.1,2.2,31.1,18.5,29,36.5Z"/>
      </g>
    </mask>
    <radialGradient id="_무제_그라디언트_2" data-name="무제 그라디언트 2" cx="-593.1" cy="744.1" fx="-593.1" fy="744.1" r="1" gradientTransform="translate(-51478.9 58844.4) rotate(80) scale(82.6 -81.9)" gradientUnits="userSpaceOnUse">
      <stop offset="0" stop-color="#fff"/>
      <stop offset=".1" stop-color="#fff"/>
      <stop offset=".2" stop-color="#fafafa"/>
      <stop offset=".4" stop-color="#ebecec"/>
      <stop offset=".5" stop-color="#dcdddd"/>
      <stop offset=".5" stop-color="#d0d1d1"/>
      <stop offset=".6" stop-color="#b1b2b2"/>
      <stop offset=".7" stop-color="#9fa0a0"/>
      <stop offset="1" stop-color="#9fa0a0"/>
    </radialGradient>
    <mask id="mask-2" x="52.1" y="30.1" width="2.8" height="2.7" maskUnits="userSpaceOnUse">
      <g id="mask2_997_3478">
        <path class="st19" d="M53.7,30.2c.6.1,1.1.7.9,1.4-.1.6-.7,1.1-1.4.9-.6-.1-1.1-.7-.9-1.4.1-.6.7-1,1.3-.9,0,0,0,0,0,0Z"/>
      </g>
    </mask>
    <radialGradient id="_무제_그라디언트_3" data-name="무제 그라디언트 3" cx="-470.5" cy="881.8" fx="-470.5" fy="881.8" r="1" gradientTransform="translate(-1463.8 767.3) rotate(92.2) scale(1.7 -1.7)" gradientUnits="userSpaceOnUse">
      <stop offset="0" stop-color="#727171"/>
      <stop offset=".6" stop-color="#231815"/>
      <stop offset="1" stop-color="#231815"/>
    </radialGradient>
    <mask id="mask-3" x="42.2" y="28.1" width="2.7" height="2.7" maskUnits="userSpaceOnUse">
      <g id="mask3_997_3478">
        <path class="st19" d="M43.8,28.3c.6.1,1.1.7.9,1.4-.1.6-.7,1.1-1.4.9-.6-.1-1.1-.7-.9-1.4.1-.6.7-1,1.3-.9,0,0,0,0,0,0Z"/>
      </g>
    </mask>
    <radialGradient id="_무제_그라디언트_4" data-name="무제 그라디언트 4" cx="-470.5" cy="881.8" fx="-470.5" fy="881.8" r="1" gradientTransform="translate(-1473.6 765.3) rotate(92.2) scale(1.7 -1.7)" gradientUnits="userSpaceOnUse">
      <stop offset="0" stop-color="#727171"/>
      <stop offset=".6" stop-color="#231815"/>
      <stop offset="1" stop-color="#231815"/>
    </radialGradient>
    <mask id="mask-4" x="40.4" y="32.5" width="13.3" height="11.1" maskUnits="userSpaceOnUse">
      <g id="mask4_997_3478">
        <path class="st19" d="M52.3,36.3c.2,0,.3.3.2.5-1.7,5.1-6,3.8-6,3.8h-.2s-4.4-.5-4.1-5.7h0c0-.5.6-.5.6-.5,1.3-.1,2.5,0,3.6,0,3.1.4,5.1,1.5,5.9,1.9Z"/>
      </g>
    </mask>
    <radialGradient id="_무제_그라디언트_5" data-name="무제 그라디언트 5" cx="-613.7" cy="709.9" fx="-613.7" fy="709.9" r="1" gradientTransform="translate(7435.8 -3477) rotate(-74.6) scale(8.7 -8.7)" gradientUnits="userSpaceOnUse">
      <stop offset="0" stop-color="#833531"/>
      <stop offset=".5" stop-color="#833531"/>
      <stop offset=".9" stop-color="#1a1010"/>
      <stop offset="1" stop-color="#1a1010"/>
    </radialGradient>
    <mask id="mask-5" x="42.9" y="37.8" width="7.2" height="4" maskUnits="userSpaceOnUse">
      <g id="mask5_997_3478">
        <path class="st19" d="M46.6,38.8h.2s1.8.1,3,1.5h0c-1.5.8-3.3.4-3.3.4h-.2s-1.9-.3-3-1.7h0c.9-.4,1.7-.4,2.4-.3.6,0,1,.2,1,.2Z"/>
      </g>
    </mask>
    <radialGradient id="_무제_그라디언트_6" data-name="무제 그라디언트 6" cx="-612.3" cy="715.6" fx="-612.3" fy="715.6" r="1" gradientTransform="translate(8463.1 -4983.6) rotate(-78.8) scale(10.7 -10.2)" gradientUnits="userSpaceOnUse">
      <stop offset="0" stop-color="#ff4e6b"/>
      <stop offset="0" stop-color="#ff4e6b"/>
      <stop offset=".3" stop-color="#ff526b"/>
      <stop offset=".5" stop-color="#ff5d6b"/>
      <stop offset=".8" stop-color="#fe706c"/>
      <stop offset=".9" stop-color="#fe7f6c"/>
      <stop offset="1" stop-color="#fe7f6c"/>
    </radialGradient>
    <mask id="mask-6" x="43.3" y="26.5" width="9.3" height="9.3" maskUnits="userSpaceOnUse">
      <g id="mask6_997_3478">
        <path class="st19" d="M46.6,28.5l2.9,1.6c.4.4.7,1.1.6,1.7-.1,1.2-1.2,2-2.4,1.9-1-.1-1.7-.8-1.9-1.7l.2-3.2h0c0-.2.2-.4.4-.4,0,0,.2,0,.2,0Z"/>
      </g>
    </mask>
    <linearGradient id="_무제_그라디언트_7" data-name="무제 그라디언트 7" x1="49" y1="478" x2="47" y2="476.6" gradientTransform="translate(0 508.5) scale(1 -1)" gradientUnits="userSpaceOnUse">
      <stop offset="0" stop-color="#ff4937"/>
      <stop offset=".1" stop-color="#ff4d3a"/>
      <stop offset=".3" stop-color="#ff5745"/>
      <stop offset=".4" stop-color="#ff6a57"/>
      <stop offset=".5" stop-color="#ff8370"/>
      <stop offset=".5" stop-color="#ff8976"/>
      <stop offset=".6" stop-color="#ff7865"/>
      <stop offset=".7" stop-color="#ff5e4c"/>
      <stop offset=".9" stop-color="#ff4e3c"/>
      <stop offset="1" stop-color="#ff4937"/>
    </linearGradient>
    <mask id="mask-7" x="49.8" y="60.9" width="23.9" height="40.5" maskUnits="userSpaceOnUse">
      <g id="mask7_997_3478">
        <path class="st19" d="M64.7,64.4c1.4,3.8,1.5,8,1.2,12-.2,2.4-.5,4.9-.8,7.3-.4,2.7-.7,5.4,0,8,.8,2.7,2.7,5,4,7.5.1.2.2.4.2.6,0,.5-.8.7-1.3.7-3.6.2-7.1-.5-10.6-1.5-.9-.2-1.6-.9-1.9-1.7-1.7-4.2-2.5-8.8-2.4-13.3.2-5,1.5-9.9,1.4-14.9,0-2.1-.4-4.3-.3-6.4,0-.3,0-.7.3-.9.2-.2.5-.2.7-.2,1.2-.1,3.1-.2,4.8,0,2.1.3,4.1,1,4.7,2.7Z"/>
      </g>
    </mask>
    <radialGradient id="_무제_그라디언트_8" data-name="무제 그라디언트 8" cx="-602.4" cy="747.5" fx="-602.4" fy="747.5" r="1" gradientTransform="translate(-21766.6 -28457.9) rotate(-178.6) scale(37.4 -37.4)" gradientUnits="userSpaceOnUse">
      <stop offset="0" stop-color="#f1716a"/>
      <stop offset=".2" stop-color="#f1716a"/>
      <stop offset=".3" stop-color="#e15655"/>
      <stop offset=".5" stop-color="#cd333a"/>
      <stop offset=".6" stop-color="#c11e29"/>
      <stop offset=".7" stop-color="#bc1623"/>
      <stop offset="1" stop-color="#bc1623"/>
    </radialGradient>
    <mask id="mask-8" x="52.6" y="63.9" width="15.1" height="11.9" maskUnits="userSpaceOnUse">
      <g id="mask8_997_3478">
        <path class="st19" d="M66,72.9s-7.3-.7-11.2-.6h-.4c0-1,.1-2,0-3.1,0-.9,0-1.8-.2-2.7,0,0,9.7.6,10.6.7h.6c.4,1.8.5,3.7.6,5.6Z"/>
      </g>
    </mask>
    <radialGradient id="_무제_그라디언트_9" data-name="무제 그라디언트 9" cx="-578.6" cy="732.9" fx="-578.6" fy="732.9" r="1" gradientTransform="translate(5474 14081.6) rotate(17.1) scale(16.1 -16.1)" gradientUnits="userSpaceOnUse">
      <stop offset="0" stop-color="#f271a1"/>
      <stop offset=".3" stop-color="#f271a1"/>
      <stop offset=".5" stop-color="#f475a5"/>
      <stop offset=".7" stop-color="#f980b0"/>
      <stop offset=".8" stop-color="#ff8ebe"/>
      <stop offset="1" stop-color="#ff8ebe"/>
    </radialGradient>
    <mask id="mask-9" x="50.7" y="75.2" width="16.8" height="14.9" maskUnits="userSpaceOnUse">
      <g id="mask9_997_3478">
        <path class="st19" d="M64.8,86h-.2c-.5,0-11.5-.3-11.5-.3,0-2,0-4.4.3-7l12.2,1c-.1,1.2-.5,4-.8,6.3Z"/>
      </g>
    </mask>
    <radialGradient id="_무제_그라디언트_10" data-name="무제 그라디언트 10" cx="-581.6" cy="736" fx="-581.6" fy="736" r="1" gradientTransform="translate(5224.1 18235.3) rotate(22.4) scale(20.1 -20.1)" gradientUnits="userSpaceOnUse">
      <stop offset="0" stop-color="#f271a1"/>
      <stop offset=".3" stop-color="#f271a1"/>
      <stop offset=".5" stop-color="#f475a5"/>
      <stop offset=".7" stop-color="#f980b0"/>
      <stop offset=".8" stop-color="#ff8ebe"/>
      <stop offset="1" stop-color="#ff8ebe"/>
    </radialGradient>
    <mask id="mask-10" x="51.6" y="87.1" width="20.8" height="20.4" maskUnits="userSpaceOnUse">
      <g id="mask10_997_3478">
        <path class="st19" d="M69.1,99.2c0,.2.2.4.2.6,0,.5-.8.7-1.3.7-3.6.2-7.1-.5-10.6-1.5-.9-.2-1.6-.9-1.9-1.7,0,0-.6-1.4-.8-2.2,0,0,9.6.2,11.8-.5l2.6,4.5Z"/>
      </g>
    </mask>
    <radialGradient id="_무제_그라디언트_11" data-name="무제 그라디언트 11" cx="-592.7" cy="727.5" fx="-592.7" fy="727.5" r="1" gradientTransform="translate(19256.2 6633.6) rotate(-32) scale(21.6 -21.6)" gradientUnits="userSpaceOnUse">
      <stop offset="0" stop-color="#f271a1"/>
      <stop offset=".3" stop-color="#f271a1"/>
      <stop offset=".5" stop-color="#f475a5"/>
      <stop offset=".7" stop-color="#f980b0"/>
      <stop offset=".8" stop-color="#ff8ebe"/>
      <stop offset="1" stop-color="#ff8ebe"/>
    </radialGradient>
    <mask id="mask-11" x="29.5" y="54.2" width="36.3" height="39.8" maskUnits="userSpaceOnUse">
      <g id="mask11_997_3478">
        <path class="st19" d="M50,60.7c2,.6,3.9,1,5.9,1.5,1.7.3,1.8,1.2,1.7,2.8-.2,2.3-.5,4.5-1,6.7-1.2,5.5-3.3,10.8-3.6,16.4,0,.2,0,.3-.1.5-.2.3-.6.3-1,.2-4.3-.6-8.6-1.7-12.6-3.2-.3-.1-.6-.2-.8-.5-.2-.3-.2-.7-.3-1-.1-3.7.6-7.4,2.1-10.8.4-.9.9-1.8,1.3-2.8,1.6-3.5,2.4-7.3,2.5-11.2,0,0,.2,0,.4,0,1.3.2,5.1,1.1,5.5,1.2Z"/>
      </g>
    </mask>
    <radialGradient id="_무제_그라디언트_12" data-name="무제 그라디언트 12" cx="-587.5" cy="738.6" fx="-587.5" fy="738.6" r="1" gradientTransform="translate(8002.5 31417.6) rotate(24.2) scale(34.3 -34.3)" gradientUnits="userSpaceOnUse">
      <stop offset="0" stop-color="#f1716a"/>
      <stop offset=".2" stop-color="#f1716a"/>
      <stop offset=".3" stop-color="#ed6361"/>
      <stop offset=".5" stop-color="#e14049"/>
      <stop offset=".6" stop-color="#da2b3a"/>
      <stop offset=".7" stop-color="#d82335"/>
      <stop offset="1" stop-color="#d82335"/>
    </radialGradient>
    <mask id="mask-12" x="36.1" y="77.4" width="19" height="16.7" maskUnits="userSpaceOnUse">
      <g id="mask12_997_3478">
        <path class="st19" d="M52.8,86.2h.3c0,.7-.1,1.3-.2,1.9,0,.2,0,.3-.1.5-.2.3-.6.3-1,.2-4.3-.6-8.6-1.7-12.6-3.2-.3-.1-.6-.2-.8-.5-.2-.3-.2-.7-.3-1,0-.6,0-1.2,0-1.8,0,0,10.8,2.6,14.7,3.8Z"/>
      </g>
    </mask>
    <radialGradient id="_무제_그라디언트_13" data-name="무제 그라디언트 13" cx="-566.4" cy="754.9" fx="-566.4" fy="754.9" r="1" gradientTransform="translate(-4701.9 7977.5) rotate(67.9) scale(9.8 -9.8)" gradientUnits="userSpaceOnUse">
      <stop offset="0" stop-color="#f7a8ca"/>
      <stop offset=".3" stop-color="#f8a4c8"/>
      <stop offset=".6" stop-color="#fc99c3"/>
      <stop offset=".8" stop-color="#ff8ebe"/>
      <stop offset="1" stop-color="#ff8ebe"/>
    </radialGradient>
    <mask id="mask-13" x="20.4" y="39.9" width="53.6" height="34.2" maskUnits="userSpaceOnUse">
      <g id="mask13_997_3478">
        <path class="st19" d="M68.4,54c2.9.9,2.7,4.7,2.7,4.7,0,2.8-.9,5.2-2.1,5.3-7.6.5-15.1-.1-26.2-1.5-5.3-.7-11.2-1.9-18.2-3.7-1.1-.3-1.1-3.4-1.1-3.4,0-3.8,1-5.2,2.3-5.9.6-.3,1.3-.5,1.9-.4,3.5.3,17.6,1.5,28.4,2.8,5.7.7,10.5,1.4,12.4,2Z"/>
      </g>
    </mask>
    <radialGradient id="_무제_그라디언트_14" data-name="무제 그라디언트 14" cx="-587.3" cy="748.2" fx="-587.3" fy="748.2" r="1" gradientTransform="translate(-18358.9 20755.4) rotate(79.7) scale(29.1 -29.1)" gradientUnits="userSpaceOnUse">
      <stop offset="0" stop-color="#f1716a"/>
      <stop offset=".2" stop-color="#f1716a"/>
      <stop offset=".2" stop-color="#f06d67"/>
      <stop offset=".4" stop-color="#e74a54"/>
      <stop offset=".6" stop-color="#e23547"/>
      <stop offset=".7" stop-color="#e02d43"/>
      <stop offset="1" stop-color="#e02d43"/>
    </radialGradient>
    <mask id="mask-14" x="18.1" y="47" width="14" height="13.9" maskUnits="userSpaceOnUse">
      <g id="mask14_997_3478">
        <path class="st19" d="M26.2,59.3s-1.2-.2-1.5-.4h-.2c-1.1-.4-1.1-3.4-1.1-3.4,0-3.8,1-5.2,2.3-5.9.6-.3,1.3-.5,1.9-.4,0,0-1.3,5.9-1.4,10.1Z"/>
      </g>
    </mask>
    <radialGradient id="_무제_그라디언트_15" data-name="무제 그라디언트 15" cx="-588.6" cy="742.2" fx="-588.6" fy="742.2" r="1" gradientTransform="translate(-5821.6 39317.5) rotate(46.9) scale(41.9 -41.9)" gradientUnits="userSpaceOnUse">
      <stop offset="0" stop-color="#f7a8ca"/>
      <stop offset=".3" stop-color="#f8a4c8"/>
      <stop offset=".6" stop-color="#fc99c3"/>
      <stop offset=".8" stop-color="#ff8ebe"/>
      <stop offset="1" stop-color="#ff8ebe"/>
    </radialGradient>
    <mask id="mask-15" x="25.4" y="46.3" width="18.4" height="18.4" maskUnits="userSpaceOnUse">
      <g id="mask15_997_3478">
        <path class="st19" d="M36.8,61.6h-.2c-1.9-.4-3.9-.8-5.9-1.2h0c.4-4.5,1.2-10.8,1.2-10.8,1.8.2,3.9.4,6.3.6,0,0-.2,6.1-1.4,11.5Z"/>
      </g>
    </mask>
    <radialGradient id="_무제_그라디언트_16" data-name="무제 그라디언트 16" cx="-588.6" cy="742.2" fx="-588.6" fy="742.2" r="1" gradientTransform="translate(-5821.5 39317.5) rotate(46.9) scale(41.9 -41.9)" gradientUnits="userSpaceOnUse">
      <stop offset="0" stop-color="#f7a8ca"/>
      <stop offset=".3" stop-color="#f8a4c8"/>
      <stop offset=".6" stop-color="#fc99c3"/>
      <stop offset=".8" stop-color="#ff8ebe"/>
      <stop offset="1" stop-color="#ff8ebe"/>
    </radialGradient>
    <mask id="mask-16" x="38.2" y="47.8" width="18.6" height="18.6" maskUnits="userSpaceOnUse">
      <g id="mask16_997_3478">
        <path class="st19" d="M49.7,62.9v.4c-1.9-.2-3.8-.4-5.8-.7h0c.2-5.2,1.2-11.9,1.2-11.9,1.9.2,3.9.4,5.8.6,0,0-.3,7.9-1.2,11.5Z"/>
      </g>
    </mask>
    <radialGradient id="_무제_그라디언트_17" data-name="무제 그라디언트 17" cx="-588.6" cy="742.2" fx="-588.6" fy="742.2" r="1" gradientTransform="translate(-5821.9 39320.5) rotate(46.9) scale(41.9 -41.9)" gradientUnits="userSpaceOnUse">
      <stop offset="0" stop-color="#f7a8ca"/>
      <stop offset=".3" stop-color="#f8a4c8"/>
      <stop offset=".6" stop-color="#fc99c3"/>
      <stop offset=".8" stop-color="#ff8ebe"/>
      <stop offset="1" stop-color="#ff8ebe"/>
    </radialGradient>
    <mask id="mask-17" x="50.3" y="49.4" width="18" height="18" maskUnits="userSpaceOnUse">
      <g id="mask17_997_3478">
        <path class="st19" d="M62.4,52.8s0,4.4-.6,11v.4c-1.8,0-3.7-.1-5.7-.3v-.3c.6-3.8.9-11.5.9-11.5,1.7.2,4,.5,5.4.7Z"/>
      </g>
    </mask>
    <radialGradient id="_무제_그라디언트_18" data-name="무제 그라디언트 18" cx="-588.6" cy="742.2" fx="-588.6" fy="742.2" r="1" gradientTransform="translate(-5821.5 39317.5) rotate(46.9) scale(41.9 -41.9)" gradientUnits="userSpaceOnUse">
      <stop offset="0" stop-color="#f7a8ca"/>
      <stop offset=".3" stop-color="#f8a4c8"/>
      <stop offset=".6" stop-color="#fc99c3"/>
      <stop offset=".8" stop-color="#ff8ebe"/>
      <stop offset="1" stop-color="#ff8ebe"/>
    </radialGradient>
    <mask id="mask-18" x="62.9" y="52.5" width="13.3" height="13.3" maskUnits="userSpaceOnUse">
      <g id="mask18_997_3478">
        <path class="st19" d="M71.1,58.7c0,2.8-.9,5.2-2.1,5.3l-.6-10c2.9.9,2.7,4.7,2.7,4.7Z"/>
      </g>
    </mask>
    <radialGradient id="_무제_그라디언트_19" data-name="무제 그라디언트 19" cx="-588.6" cy="742.2" fx="-588.6" fy="742.2" r="1" gradientTransform="translate(-5821.5 39317.5) rotate(46.9) scale(41.9 -41.9)" gradientUnits="userSpaceOnUse">
      <stop offset="0" stop-color="#f7a8ca"/>
      <stop offset=".3" stop-color="#f8a4c8"/>
      <stop offset=".6" stop-color="#fc99c3"/>
      <stop offset=".8" stop-color="#ff8ebe"/>
      <stop offset="1" stop-color="#ff8ebe"/>
    </radialGradient>
    <mask id="mask-19" x="36.3" y="60.4" width="24.1" height="23.6" maskUnits="userSpaceOnUse">
      <g id="mask19_997_3478">
        <path class="st19" d="M56.9,70.3s-.2,1-.5,2.3c-.4,1.9-1.1,4.4-1.2,4.7,0,0-10.1-2.6-15.4-2.9,0,0,1.8-3.8,2.1-4.5,0,0,.9-2.3,1-2.6,0,0,10.9,1.6,14,3Z"/>
      </g>
    </mask>
    <radialGradient id="_무제_그라디언트_20" data-name="무제 그라디언트 20" cx="-576.2" cy="747.3" fx="-576.2" fy="747.3" r="1" gradientTransform="translate(-5351.8 13482.4) rotate(59.5) scale(15.3 -15.3)" gradientUnits="userSpaceOnUse">
      <stop offset="0" stop-color="#f7a8ca"/>
      <stop offset=".3" stop-color="#f8a4c8"/>
      <stop offset=".6" stop-color="#fc99c3"/>
      <stop offset=".8" stop-color="#ff8ebe"/>
      <stop offset="1" stop-color="#ff8ebe"/>
    </radialGradient>
    <mask id="mask-20" x="51.8" y=".9" width="10.5" height="10.4" maskUnits="userSpaceOnUse">
      <g id="mask20_997_3478">
        <path class="st19" d="M57.7,3.7c1.5.4,2.4,1.9,2,3.4-.4,1.5-1.7,1.8-3.2,1.4-1.5-.4-2.5-1.3-2.1-2.8.3-1.4,1.6-2.2,3-2.1.1,0,.3,0,.4,0Z"/>
      </g>
    </mask>
    <radialGradient id="_무제_그라디언트_21" data-name="무제 그라디언트 21" cx="-589.6" cy="788.3" fx="-589.6" fy="788.3" r="1" gradientTransform="translate(-6597.9 101.9) rotate(126) scale(6.8 -6.8)" gradientUnits="userSpaceOnUse">
      <stop offset="0" stop-color="#fff"/>
      <stop offset="0" stop-color="#fff"/>
      <stop offset=".2" stop-color="#fafafa"/>
      <stop offset=".2" stop-color="#ebecec"/>
      <stop offset=".3" stop-color="#dcdddd"/>
      <stop offset=".4" stop-color="#bbbcbc"/>
      <stop offset=".6" stop-color="#9fa0a0"/>
      <stop offset="1" stop-color="#9fa0a0"/>
    </radialGradient>
    <mask id="mask-21" x="42.5" y="3" width="24" height="17.7" maskUnits="userSpaceOnUse">
      <g id="mask21_997_3478">
        <path class="st19" d="M63.9,17.9l-19.9-4.4c5-5.1,8.7-6.6,11.6-6.3,6.4.8,8.2,10.7,8.2,10.7Z"/>
      </g>
    </mask>
    <radialGradient id="_무제_그라디언트_22" data-name="무제 그라디언트 22" cx="-584.1" cy="763.8" fx="-584.1" fy="763.8" r="1" gradientTransform="translate(-11181.7 4585.9) rotate(105.2) scale(12.6 -12.6)" gradientUnits="userSpaceOnUse">
      <stop offset="0" stop-color="#f1716a"/>
      <stop offset=".2" stop-color="#f1716a"/>
      <stop offset=".2" stop-color="#f06d67"/>
      <stop offset=".3" stop-color="#e74a54"/>
      <stop offset=".4" stop-color="#e23547"/>
      <stop offset=".4" stop-color="#e02d43"/>
      <stop offset=".8" stop-color="#a00e15"/>
      <stop offset="1" stop-color="#a00e15"/>
    </radialGradient>
    <mask id="mask-22" x="41" y="10.9" width="25.5" height="9.9" maskUnits="userSpaceOnUse">
      <g id="mask22_997_3478">
        <path class="st19" d="M55.8,13.4s10.5,2.4,8.7,6.7c0,0-10.3-5.3-22.3-4.2,0,0-.3-4.3,9.7-3.1,1.2.1,2.5.3,4,.7Z"/>
      </g>
    </mask>
    <radialGradient id="_무제_그라디언트_23" data-name="무제 그라디언트 23" cx="-589.7" cy="748.2" fx="-589.7" fy="748.2" r="1" gradientTransform="translate(-25431.8 21115.9) rotate(88.6) scale(34.7 -34.7)" gradientUnits="userSpaceOnUse">
      <stop offset="0" stop-color="#fff"/>
      <stop offset=".4" stop-color="#fff"/>
      <stop offset=".4" stop-color="#fbfbfb"/>
      <stop offset=".5" stop-color="#e4e5e5"/>
      <stop offset=".5" stop-color="#dcdddd"/>
      <stop offset=".7" stop-color="#bbbcbc"/>
      <stop offset=".8" stop-color="#9fa0a0"/>
      <stop offset="1" stop-color="#9fa0a0"/>
    </radialGradient>
  </defs>
  <g class="st0">
    <path class="st1" d="M10.1,16.8l16.8,61.8,61.8-16.8L71.8,0,10.1,16.8Z"/>
  </g>
  <g class="st8">
    <path class="st17" d="M0,51.5l12.1,68.6,77.6-13.6-12.1-68.6L0,51.5Z"/>
  </g>
  <g class="st2">
    <path class="st18" d="M52.2,30.1v2.6c0,0,2.5,0,2.5,0v-2.6c.1,0-2.5,0-2.5,0Z"/>
  </g>
  <g class="st3">
    <path class="st12" d="M42.3,28.1v2.6c0,0,2.5,0,2.5,0v-2.6c0,0-2.5-.1-2.5-.1Z"/>
  </g>
  <g class="st4">
    <path class="st14" d="M51.5,43.6l2.2-8.1-11.1-3-2.2,8.1,11,3Z"/>
  </g>
  <g class="st5">
    <path class="st11" d="M49.6,41.8l.5-2.6-6.7-1.3-.5,2.6,6.7,1.3Z"/>
  </g>
  <g class="st7">
    <path class="st13" d="M48.8,26.5l-5.5,3.8,3.8,5.5,5.5-3.8-3.8-5.5Z"/>
  </g>
  <g class="st6">
    <path class="st15" d="M73.7,61.5l-22.9-.6-1,39.9,22.9.6,1-39.9Z"/>
  </g>
  <g class="st10">
    <path class="st16" d="M52.6,71.9l12.7,3.9,2.5-8-12.7-3.9-2.5,8Z"/>
  </g>
  <g class="st9">
    <path class="st29" d="M50.7,84.9l12.8,5.3,4-9.7-12.8-5.3-4,9.7Z"/>
  </g>
  <g class="st34">
    <path class="st23" d="M59.2,107.5l13.2-8.3-7.6-12.1-13.2,8.3,7.6,12.1Z"/>
  </g>
  <g class="st37">
    <path class="st28" d="M29.5,83.6l23.1,10.4,13.3-29.5-23.1-10.4-13.2,29.4Z"/>
  </g>
  <g class="st41">
    <path class="st25" d="M36.1,83.3l4.4,10.8,14.6-5.9-4.4-10.8-14.6,5.9Z"/>
  </g>
  <g class="st39">
    <path class="st22" d="M20.4,48.8l4.6,25.4,49-8.9-4.6-25.4-49,8.9Z"/>
  </g>
  <g class="st35">
    <path class="st26" d="M18.1,54.1l6.5,6.9,7.5-7-6.5-6.9-7.5,7Z"/>
  </g>
  <g class="st43">
    <path class="st27" d="M25.4,55.4l8.7,9.3,9.7-9.1-8.7-9.3-9.7,9.1Z"/>
  </g>
  <g class="st38">
    <path class="st20" d="M38.2,57l8.8,9.3,9.8-9.2-8.7-9.4-9.8,9.2Z"/>
  </g>
  <g class="st42">
    <path class="st24" d="M50.3,58.3l8.5,9,9.5-8.9-8.5-9-9.5,8.9Z"/>
  </g>
  <g class="st36">
    <path class="st21" d="M62.9,59.2l6.2,6.6,7.2-6.7-6.2-6.6-7.2,6.7Z"/>
  </g>
  <g class="st40">
    <path class="st32" d="M36.3,69.6l8.4,14.3,15.7-9.2-8.4-14.3-15.7,9.2Z"/>
  </g>
  <g class="st46">
    <path class="st31" d="M56.1.9l-4.3,5.9,6.2,4.5,4.3-5.9-6.2-4.5Z"/>
  </g>
  <g class="st45">
    <path class="st30" d="M45.7,3l-3.3,12.1,20.7,5.6,3.3-12.1-20.7-5.6Z"/>
  </g>
  <g class="st44">
    <path class="st33" d="M41,11.5l.2,9.3,25.3-.6-.2-9.3-25.3.6Z"/>
  </g>
</svg>