<svg width="772" height="620" viewBox="0 0 772 620" fill="none" xmlns="http://www.w3.org/2000/svg">
<path d="M201.901 162.586L101.853 62.5378" stroke="white" stroke-width="0.9911"/>
<path d="M201.901 62.5378L101.853 162.586" stroke="white" stroke-width="0.9911"/>
<path d="M264.426 112.568H39.3276" stroke="white" stroke-width="0.9911"/>
<path d="M151.883 0V225.098" stroke="white" stroke-width="0.9911"/>
<path d="M709.475 512.455L609.427 412.407" stroke="white" stroke-width="0.9911"/>
<path d="M709.475 412.407L609.427 512.455" stroke="white" stroke-width="0.9911"/>
<path d="M772 462.438H546.902" stroke="white" stroke-width="0.9911"/>
<path d="M659.457 349.869V574.98" stroke="white" stroke-width="0.9911"/>
<path d="M127.313 570.163L48.9626 491.813" stroke="white" stroke-width="0.7762"/>
<path d="M127.313 491.813L48.9626 570.163" stroke="white" stroke-width="0.7762"/>
<path d="M176.288 530.988H0" stroke="white" stroke-width="0.7762"/>
<path d="M88.1506 442.837V619.126" stroke="white" stroke-width="0.7762"/>
<path d="M120.5 202C124.642 202 128 198.642 128 194.5C128 190.358 124.642 187 120.5 187C116.358 187 113 190.358 113 194.5C113 198.642 116.358 202 120.5 202Z" fill="white"/>
<path d="M658.5 335C662.642 335 666 331.642 666 327.5C666 323.358 662.642 320 658.5 320C654.358 320 651 323.358 651 327.5C651 331.642 654.358 335 658.5 335Z" fill="white"/>
<path d="M31.5 438C35.6421 438 39 434.642 39 430.5C39 426.358 35.6421 423 31.5 423C27.3579 423 24 426.358 24 430.5C24 434.642 27.3579 438 31.5 438Z" fill="white"/>
<path d="M708.5 563C712.642 563 716 559.642 716 555.5C716 551.358 712.642 548 708.5 548C704.358 548 701 551.358 701 555.5C701 559.642 704.358 563 708.5 563Z" fill="white"/>
</svg>
