<?xml version="1.0" encoding="UTF-8"?>
<svg id="_레이어_1" data-name="레이어_1" xmlns="http://www.w3.org/2000/svg" version="1.1" viewBox="0 0 366.3 145.9">
  <!-- Generator: Adobe Illustrator 29.0.1, SVG Export Plug-In . SVG Version: 2.1.0 Build 192)  -->
  <defs>
    <style>
      .st0 {
        fill: #fcba37;
      }
    </style>
  </defs>
  <path class="st0" d="M301.8,145.5l-250.8-30C19.3,111.7-3.4,82.8.4,51.1,4.2,19.3,33.1-3.4,64.8.4l250.8,30c31.8,3.8,54.4,32.6,50.6,64.4-3.8,31.8-32.6,54.5-64.4,50.6Z"/>
  <path d="M94.2,92.3l-30.6-3.7c-8.1-1-12.5-5-11.6-12.3.9-7.4,6.1-10.2,14.2-9.3l30.6,3.7c8.1,1,12.5,5,11.6,12.3-.9,7.4-6.1,10.2-14.2,9.3ZM70.2,65.4l-6.3-.7c-6.6-.8-10.7-4.7-9.8-12.3.9-7.6,5.7-10.4,12.4-9.6l6.3.8c6.6.8,10.7,4.7,9.8,12.3s-5.7,10.4-12.4,9.6ZM56.7,31l7.2.9.5-3.8,14.1,1.7-.5,3.8,7.2.9-1.1,9.1-28.5-3.4,1.1-9.1ZM57.3,52.8c7.8,1.1,10.3,5.9,9.9,11.2.8-5.4,4.3-9.4,12.2-8.6-7.8-1.1-10.3-5.8-9.8-11.2-.8,5.3-4.4,9.3-12.2,8.5ZM58.3,77c17.3,2.3,21.3,5.9,20.7,12.1.9-6.2,5.6-8.8,23-6.9-17.4-2.2-21.3-5.9-20.7-12.1-1,6.2-5.7,8.8-23,6.9ZM87.3,33.9l11.7,1.4-1.3,10.5,2.9.3,1.3-10.5,11.7,1.4-4,33.1-11.7-1.4,1.3-11.2-2.9-.3-1.3,11.2-11.7-1.4,4-33.1Z"/>
  <path d="M128.9,78.6l-.9,7.2,16.8,1.9c8.7,1,18.2,1.4,26.1,1.1l-1.5,12.4-56-6.7,2.1-17.6,13.4,1.6ZM117.1,64.2l55.7,6.7-1.2,10.4-20.1-2.4-.9,7.2-14.1-1.7.9-7.2-21.5-2.6,1.2-10.4ZM160.8,67.3l-31.3-3.7c-8.1-1-12.1-4.9-11.1-13.6,1-8.7,5.9-11.6,14-10.6l31.3,3.7c8.1,1,12.1,4.9,11.1,13.6-1.1,8.7-6,11.6-14,10.6ZM172,56.3c-16.7-2.2-24.8-7.9-24-14.5-.8,6.6-10,10.2-26.8,8.4,16.7,2.3,24.8,7.9,24.1,14.5.8-6.6,9.9-10.2,26.7-8.4Z"/>
  <path d="M180.8,60.7c1.1-9.4,8-15.4,20.7-13.9,12.7,1.5,18,9,16.9,18.3l-3.1,25.9c-1.1,9.4-8,15.4-20.7,13.9-12.7-1.5-18-9-16.9-18.3l3.1-25.9ZM180.6,73.9c8.1,1.3,16.5,9.3,14.2,28.9,2.4-19.7,12.4-25.5,20.5-24.8-8.1-1.3-16.5-9.2-14.1-29-2.4,19.7-12.5,25.5-20.6,24.9ZM224.9,50.3l13.4,1.6-6.8,56.8-13.4-1.6,6.8-56.8Z"/>
  <path d="M269.1,95.4l-.9,7.2,16.8,1.9c8.7,1,18.2,1.4,26.1,1.1l-1.5,12.4-56-6.7,2.1-17.6,13.4,1.6ZM257.2,81.2l55.7,6.7-1.2,10.4-55.7-6.7,1.2-10.4ZM260.4,54.6l55.7,6.7-1,8.6c-6.5.2-13.1-.2-22.2-1.3l-20.3-2.4-.5,4.4,20.3,2.4c9,1.1,15.7,1.5,22.2,1.3l-1.4,11.3-55.7-6.7,2.9-24.3Z"/>
</svg>