<?xml version="1.0" encoding="UTF-8"?>
<svg id="_레이어_1" data-name="레이어_1" xmlns="http://www.w3.org/2000/svg" version="1.1" viewBox="0 0 264.8 53.5">
  <!-- Generator: Adobe Illustrator 29.0.1, SVG Export Plug-In . SVG Version: 2.1.0 Build 192)  -->
  <defs>
    <style>
      .st0 {
        fill: #e7c549;
      }

      .st1 {
        fill: #371315;
      }
    </style>
  </defs>
  <path class="st1" d="M243.4,44.5L23.2,53.5C10.9,54,.5,44.5,0,32.2-.5,19.9,9.1,9.5,21.4,9L241.6,0c12.3-.5,22.7,9.1,23.2,21.4.5,12.3-9,22.7-21.4,23.2Z"/>
  <path class="st0" d="M28.1,30.3l15.6-.6c.3-2.1.5-4.2.5-6.4l-16.4.7-.2-4.1,22.2-.9c0,3.6-.2,7.3-.7,10.6h1.1s.2,4.1.2,4.1l-8.3.3.3,7.9-5.6.2-.3-7.9-8.3.3-.2-4.1Z"/>
  <path class="st0" d="M52.6,18.7l22.2-.9v3.4c-2.4.5-5,.7-8.6.9l-8.1.3v.9s8.1-.3,8.1-.3c3.6-.2,6.2-.4,8.7-.9l.2,4.5-8.3.3v1s8.3-.3,8.3-.3l.2,4.1-22.2.9-.2-4.1,8.3-.3v-1s-8.3.3-8.3.3l-.4-8.8ZM70.3,40.6l-.2-3.8-16.8.7-.2-4.2,22.2-.9.3,7.9-5.3.2Z"/>
  <path class="st0" d="M80.2,21.7h-2.7c0,.1-.2-4-.2-4l15.2-.6.2,4.1h-2.7c0,.1,3.7,18.5,3.7,18.5l-5.5.2-3.1-17.9-1.7,18.1-5.5.2,2.2-18.6ZM93.5,17l5.3-.2.3,8h2.4c0,0,.2,4.4.2,4.4h-2.4c0,0,.4,10.2.4,10.2l-5.3.2-.9-22.6Z"/>
  <path class="st0" d="M108.4,16.4l5.3-.2v1.3c0,0,3.2-.1,3.2-.1v-1.3c0,0,5.2-.2,5.2-.2v1.3c0,0,3.2-.1,3.2-.1v-1.3c0,0,5.3-.2,5.3-.2l.3,8.5-8.3.3v.9s8.3-.3,8.3-.3l.2,3.9-22.2.9-.2-3.9,8.3-.3v-.9s-8.3.3-8.3.3l-.3-8.5ZM131.2,29.5l.4,8.7-22.2.9-.4-8.7,5.3-.2v1.3c0,0,11.6-.5,11.6-.5v-1.3c0,0,5.3-.2,5.3-.2ZM109.6,21.3c6.7-.2,10.2.7,10.3,2.8,0-2.1,3.3-3.3,10-3.6-6.7.2-10.1-.7-10.2-2.8,0,2.1-3.3,3.3-10,3.7ZM110.7,35.3c6.4-.2,9.6.3,9.8,2.8-.1-2.6,3.1-3.3,9.5-3.7-6.3.2-9.6-.3-9.7-2.9.1,2.6-3.1,3.4-9.5,3.7Z"/>
  <path class="st0" d="M141.7,37.7c.7-6.4,1.2-11.9,1.1-18.5l-9.5.4-.2-4.1,15.1-.6c.2,8.2,0,14.8-.9,22.7l-5.6.2ZM150.1,14.7l5.3-.2.9,22.6-5.3.2-.9-22.6Z"/>
  <path class="st0" d="M164.5,20.3c-.2-3.8,2.1-6.5,7.2-6.7,5.1-.2,7.6,2.4,7.7,6.1l.4,10.3c.2,3.7-2.1,6.5-7.2,6.7-5.1.2-7.6-2.4-7.7-6.1l-.4-10.3ZM165.3,25.5c3.2,0,7,2.6,7.4,10.4-.3-7.8,3.2-10.7,6.5-11-3.2,0-7-2.6-7.3-10.4.3,7.9-3.3,10.8-6.5,11ZM181.1,13.5l5.3-.2.9,22.6-5.3.2-.9-22.6Z"/>
  <path class="st0" d="M201.4,21.1h-1.3c0,0,.2,4.4.2,4.4l-10.7.4-.5-12.7,4.5-.2v2.1c0,0,1.7,0,1.7,0v-2.1c0,0,4.5-.2,4.5-.2l.2,3.9h1.3c0,0-.2-3.9-.2-3.9l4.6-.2.7,15.9-4.6.2-.3-7.5ZM195,27l.2,4.3,6.7-.3c3.5-.2,7.2-.6,10.3-1.2l.2,4.9-22.3.9-.3-8.5,5.3-.2ZM190.8,20.5c2.1,0,4,1.7,4.2,4.4,0-2.8,1.7-4.6,3.8-4.8-2.1,0-4-1.7-4.2-4.4,0,2.8-1.7,4.6-3.8,4.7ZM206.6,12.4l4.6-.2.6,15.9-4.6.2-.7-15.9Z"/>
  <path class="st0" d="M214,12.1l22.2-.9.2,4-16.8.7v1.8c0,0,16.9-.7,16.9-.7l.2,3.8-16.8.7v2c6.6-.3,11.4-.7,16.9-1.4l.2,4.7-22.2.9-.6-15.7ZM214.7,30.6l22.2-.9.2,4.1-22.2.9-.2-4.1Z"/>
</svg>