<?xml version="1.0" encoding="UTF-8"?>
<svg id="_레이어_1" data-name="레이어_1" xmlns="http://www.w3.org/2000/svg" version="1.1" viewBox="0 0 488.3 141.3">
  <!-- Generator: Adobe Illustrator 29.0.1, SVG Export Plug-In . SVG Version: 2.1.0 Build 192)  -->
  <defs>
    <style>
      .st0 {
        fill: #f7f8f8;
      }

      .st1 {
        fill: #fff;
      }
    </style>
  </defs>
  <path class="st1" d="M434.3,115.7l-373.1,25.4C29.3,143.3,1.7,119.2-.5,87.3-2.7,55.3,21.5,27.7,53.4,25.5L426.5.1c31.9-2.2,59.6,21.9,61.7,53.9,2.2,31.9-21.9,59.6-53.9,61.7Z"/>
  <path d="M61.1,54.2l15.5-1.1,14.3,30.6-14.2,1-6.8-14.6-4.7,15.4-14.2,1,10-32.3ZM65.5,89.1l.8,11.6,14.8-1.1c8.8-.7,18.2-2,25.8-3.7l.8,12.5-54.3,3.7-1.5-22,13.5-.9ZM90.1,52.3l13.5-.9.8,11.4,6.1-.4.8,11.5-6.1.4,1.1,16.6-13.5.9-2.7-39.5Z"/>
  <path d="M150.3,81.7l-22.2,1.5.9,13.2c9.8-.7,16.8-1.6,24.4-3.7l.8,12.5-38,2.6-3.9-57,36.3-2.5.7,10.4-22.8,1.5.8,12.5,22.2-1.5.7,10.5ZM152.8,48l13.5-.9,1.4,20.2,6.1-.4.8,11.5-6.1.4,1.7,25.4-13.5.9-3.9-57Z"/>
  <path d="M176.1,62c-.6-9.4,5.3-16.6,18.1-17.5,12.8-.9,19.7,5.4,20.3,14.9l.5,7.8c.6,9.4-5.3,16.6-18.1,17.5-12.8.9-19.7-5.4-20.3-14.9l-.5-7.8ZM177.5,93.1l40.4-2.8.7,10.4-40.4,2.8-.7-10.4ZM181.2,65.6c7.8-.2,14.6,6.3,15.5,15.5-.4-9.3,5.5-16.6,13.3-17.5-7.8.2-14.7-6.3-15.6-15.5.3,9.3-5.5,16.7-13.3,17.6ZM217.5,43.6l13.5-.9,3.9,57-13.5.9-3.9-57Z"/>
  <path d="M253.7,53.5c-.5-7.4,5.9-13.4,18-14.2,12.1-.8,19.2,4.2,19.8,11.7l.3,4.2c.5,7.4-5.9,13.4-18,14.2-12.1.8-19.2-4.2-19.8-11.7l-.3-4.2ZM299.1,95.3l-30.1,2c-8.1.6-12.6-4.6-13.1-12s3.3-13.2,11.4-13.7l30.1-2c8.1-.6,12.6,4.6,13.1,12,.5,7.4-3.3,13.2-11.4,13.7ZM258.9,55.3c7.8-.3,13.7,2.4,14.5,10.6-.3-8.2,5.2-11.8,13-12.5-7.8.4-13.7-2.5-14.5-10.6.3,8.1-5.2,11.9-13,12.5ZM262.2,84.9c17.4-.9,21.1,3.8,21.8,10.2-.3-6.4,2.8-11.6,20.2-13-17.4,1-21.2-3.8-21.8-10.2.2,6.4-2.8,11.6-20.2,13ZM293.6,38.4l13.5-.9.2,2.6,6.1-.4.7,10.8-6.1.4.2,2.4,6.1-.4.7,10.8-6.1.4.2,2.7-13.5.9-2-29.2Z"/>
  <path d="M315.8,36.9l37.1-2.5,1.7,25.5-37.1,2.5-1.7-25.5ZM317.7,64.3l53.9-3.7,1.1,16.2c-13.8,2.9-23.8,4.3-40.3,5.5l.2,2.2c16.5-1.1,26.7-2.5,40.6-5.5l.8,11.3-54.3,3.7-1.3-19,40.4-2.8v-2.1c-.1,0-40.6,2.8-40.6,2.8l-.6-8.6ZM321.5,49c8-.4,13.9,2,14.5,9.9-.5-8,5-11.2,13-11.9-7.8.5-13.6-1.2-14.4-8.7.2,7.5-5.3,10-13.1,10.6ZM356.3,34.1l13.5-.9.5,6.7,6.1-.4.8,11.5-6.1.4.5,7.3-13.5.9-1.7-25.5Z"/>
  <path d="M388.5,31.9l36.1-2.5c6.7-.5,10.5,2.6,10.9,8.7.4,6.1-2.9,9.6-9.6,10.1l-36.1,2.5c-6.7.5-10.5-2.6-10.9-8.7-.4-6.1,2.9-9.6,9.6-10.1ZM379.9,52.8l55.9-3.8.6,9-55.9,3.8-.6-9ZM380.6,63.4l55.9-3.8,1,14.2c-13.8,2.9-25.8,4.5-42.3,5.6v1.5c16.6-1.1,28.8-2.6,42.7-5.6l.7,10.6-56.3,3.8-1.2-17,42.5-2.9v-1.4c0,0-42.6,2.9-42.6,2.9l-.5-7.9ZM431.4,38.4c-16,.9-24.4-.6-24.8-7,.4,6.5-7.7,9-23.7,10.3,16.1-.9,24.4.6,24.9,7-.4-6.5,7.7-9.1,23.6-10.4Z"/>
  <path class="st0" d="M376.8,100.3c0,.1.1.2.2.4,0,.1,0,.3,0,.4,0,.1-.2.3-.3.4-.1.1-.3.3-.6.4,0,0,0,0-.2,0,0,0-.1,0-.2,0-.1,0-.3.1-.4.2-.1,0-.2,0-.3.2,0,0-.2,0-.2.2,0,0,0,0,0,.1,0,0,0,.2.2.2.1,0,.3,0,.5,0,.2,0,.4,0,.5-.1.1,0,.2,0,.3-.1,0,0,.1,0,.2-.1,0,0,.2,0,.3,0,0,0,.2,0,.3,0,0,0,.2,0,.2,0,0,0,0,0,.1.2,0,0,0,.1,0,.2,0,0,0,.1,0,.2,0,0,0,.1-.1.2-.2.1-.4.2-.7.3-.3,0-.6.2-.9.2-.6,0-1.1,0-1.5,0-.4-.1-.7-.3-.7-.7,0-.2,0-.3,0-.4,0-.1,0-.3.2-.4,0-.1.2-.2.4-.3.2,0,.3-.2.5-.3h.3c.3-.2.5-.3.6-.4.1,0,.2-.2.2-.3,0,0,0-.2-.2-.2,0,0-.2,0-.4,0-.2,0-.4,0-.5.1-.1,0-.2,0-.3.2,0,0,0,0-.1,0,0,0-.1,0-.2,0-.1,0-.3,0-.4,0-.1,0-.2,0-.3-.2,0,0,0-.2,0-.3,0,0,2.2-.2,3.6-.2Z"/>
  <path class="st0" d="M371.1,100.9l2.3,2.9-1.5.2-.4-.5-1.8.3-.2.6-1.5.2,1-3.2c.5-.2,2-.6,2-.6ZM370.3,101.8l-.3,1.2,1.1-.2-.7-1.1Z"/>
</svg>