<?xml version="1.0" encoding="UTF-8"?>
<svg id="_레이어_1" data-name="레이어_1" xmlns="http://www.w3.org/2000/svg" version="1.1" viewBox="0 0 668 759">
  <!-- Generator: Adobe Illustrator 29.0.1, SVG Export Plug-In . SVG Version: 2.1.0 Build 192)  -->
  <defs>
    <style>
      .st0 {
        fill: #43745b;
      }

      .st1 {
        fill: #2e351f;
      }

      .st2 {
        fill: #4c8e80;
      }
    </style>
  </defs>
  <path class="st1" d="M404,585h-125v174h125v-174Z"/>
  <path class="st2" d="M136.4,434.2c-37,27.9-75.3,53.9-114.6,77.8-5.8,3.5-11.6,7.1-16,12.4-4.4,5.3-7.1,13-5.2,19.8,2,7.4,8.9,12.2,15.9,13.4,7,1.2,14.1-.5,20.9-2.4-5.1,6.4-9,14-11.3,22.2-1,3.4-1.6,7.1-.3,10.4,1.5,3.7,5.3,5.7,8.9,6.9,22.7,7.4,46.7-4.9,66.2-19.6-2.5,7-4.8,14.3-4.7,21.8.2,7.5,3.2,15.3,9.2,19.1,7.9,4.9,17.9,1.5,25.9-3,9.9-5.5,19.1-12.5,27.2-20.8-.3,11.6.8,25.8,10.3,30.9,5.7,3,12.5,1.6,18.4-.6,14.4-5.4,27.5-14.9,37.6-27.3,3.6,9.5,8.6,18.6,15.9,24.9,7.3,6.4,17.3,9.7,26.4,6.8,12.5-4,19.7-17.8,25.6-30.5,5.3,13.6,12.1,28.8,25,33.1,10.3,3.5,24.1.8,29.6-9.2,4.5-8.1,11.5-22.5,13.8-32.7v1.7c3.7,16.1,10.8,33,24.7,39.6,4.5,2.2,10,2.9,14.1,0,2.7-2,4.2-5.4,5.4-8.7,3.4-9.5,4.9-19.8,4.4-30,7,14,19.2,24.8,33.1,29.3,10,3.2,21.8,2.9,29.5-4.7,7.4-7.3,9.2-19,10.6-29.8,15.5,14.2,32.4,28.6,52.5,30.9,4.4.5,9.1.4,13-1.9,5.8-3.4,8.8-10.9,9-18,.2-7.2.7-16.8-1.4-23.6,10.5,14.1,26.2,19.7,42.8,21.7,7.2.8,15.1,1.5,21.1-3,6-4.5,8.2-13.3,7.5-21.2-.8-7.9-4.1-15.2-7.4-22.2,9.6,3.4,19.7,6.9,29.7,4.9s19.4-11.7,18.1-22.6c-1.1-9.7-9-17-17-21.2-48.9-26.1-97-49-138.2-77"/>
  <path class="st0" d="M517,426.7l-388.2,8c-25.9,19.5-67.9,51.8-94.8,69.6,5.3,8.5,15.2,13.9,25,14.6,13.1,1,25.7-4.3,38-9.3,3.7-1.5,7.6-3,11.4-2.2,3.5.7,6.5,3.3,9.5,5.4,13.4,9.4,30.8,11.5,45.8,5.6,6.1-2.4,11.9-6.1,18.4-7.3,21.8-3.9,39.2,21.4,61.1,24.5,13.2,1.9,25.9-4.6,38.3-9.8,4.6-1.9,9.4-3.7,14.3-2.9,6.2,1,11.1,6,16.4,9.8,16.5,11.9,39.5,12,56,0,5.4-3.9,10.4-9,16.7-10.2,5.5-1,11,1.1,16.2,3.2,16.1,6.5,34.9,13.1,49.6,3.5,4.5-2.9,8.2-7.2,12.8-9.9,15.6-9.3,34.8,1.3,52.5-1,15.9-2.1,29.3-14.7,45.1-18.1,15.6-3.3,31.5,2.9,47.3,4.4,8.7.8,18.3-.6,26-4.7-33.4-17.5-88.3-53.5-117.3-73.2h0Z"/>
  <path class="st2" d="M164,332.4c-31.5,25.2-64.1,48.6-97.6,70.2-4.9,3.2-9.9,6.4-13.7,11.2-3.7,4.8-6,11.7-4.4,17.9,1.7,6.7,7.6,11,13.6,12.1,5.9,1.1,12-.4,17.8-2.2-4.3,5.8-7.7,12.7-9.6,20-.8,3-1.4,6.5-.3,9.4,1.3,3.4,4.5,5.2,7.6,6.2,19.3,6.6,39.8-4.4,56.3-17.7-2.2,6.3-4.1,12.9-4,19.7.1,6.8,2.8,13.9,7.8,17.2,6.7,4.5,15.2,1.3,22.1-2.7,8.4-5,16.2-11.3,23.2-18.8-.2,10.5.6,23.3,8.8,27.9,4.8,2.8,10.6,1.4,15.7-.6,12.3-4.8,23.4-13.5,32-24.7,3.1,8.6,7.3,16.8,13.6,22.5,6.3,5.8,14.8,8.7,22.4,6.2,10.6-3.6,16.8-16.1,21.8-27.5,4.5,12.3,10.3,26,21.3,29.9,8.7,3.1,20.5.8,25.2-8.3,3.8-7.3,9.8-20.3,11.7-29.5v1.5c3.2,14.5,9.2,29.8,21,35.8,3.8,1.9,8.5,2.7,12,0,2.3-1.8,3.6-4.9,4.6-7.9,2.9-8.6,4.2-17.9,3.7-27.1,5.9,12.6,16.3,22.4,28.2,26.4,8.5,2.9,18.5,2.6,25.1-4.2,6.3-6.5,7.9-17.2,9-26.9,13.2,12.9,27.6,25.9,44.8,28,3.8.5,7.8.3,11.1-1.8,4.9-3,7.5-9.8,7.6-16.3.2-6.5.6-15.2-1.2-21.3,9,12.7,22.3,17.8,36.4,19.6,6.1.8,12.9,1.4,17.9-2.7,5.1-4.1,7-12,6.4-19.1-.7-7.1-3.5-13.7-6.3-20.1,8.2,3.1,16.8,6.2,25.3,4.4,8.5-1.9,16.5-10.6,15.4-20.4-.9-8.7-7.6-15.3-14.4-19.2-41.6-23.6-82.6-44.3-117.7-69.5"/>
  <path class="st0" d="M488.1,325.7l-330.6,7.2c-22,17.6-57.8,46.8-80.7,62.9,4.5,7.7,13,12.6,21.2,13.2,11.1.9,21.9-3.9,32.4-8.4,3.1-1.3,6.4-2.7,9.7-2,3,.7,5.5,2.9,8.1,4.9,11.4,8.5,26.2,10.4,39,5.1,5.2-2.2,10.2-5.5,15.6-6.6,18.5-3.6,33.4,19.4,52,22.1,11.2,1.7,22.1-4.2,32.6-8.8,3.9-1.7,8-3.3,12.2-2.6,5.3.9,9.5,5.5,14,8.9,14,10.8,33.6,10.8,47.7,0,4.6-3.5,8.8-8.2,14.3-9.2,4.7-.9,9.3,1,13.8,2.9,13.7,5.9,29.7,11.9,42.3,3.2,3.8-2.7,7-6.5,10.9-9,13.3-8.4,29.7,1.2,44.7-.9,13.6-1.9,24.9-13.3,38.4-16.3,13.3-3,26.8,2.6,40.3,4,7.4.7,15.6-.5,22.2-4.2-28.4-15.8-75.2-48.4-99.9-66.2h0Z"/>
  <path class="st2" d="M200.8,232.2c-25,23.6-50.9,45.5-77.5,65.7-3.9,3-7.9,6-10.8,10.5-3,4.5-4.8,10.9-3.5,16.8,1.4,6.2,6.1,10.3,10.8,11.3,4.7,1,9.5-.4,14.2-2-3.5,5.4-6.1,11.9-7.7,18.7-.7,2.9-1.1,6-.2,8.8,1,3.2,3.6,4.8,6,5.8,15.3,6.2,31.6-4.1,44.7-16.6-1.7,5.9-3.3,12.1-3.1,18.4.1,6.3,2.2,13,6.2,16.1,5.3,4.2,12.1,1.3,17.5-2.6,6.7-4.7,12.9-10.6,18.4-17.6-.2,9.8.5,21.8,7,26.1,3.8,2.6,8.4,1.3,12.5-.5,9.7-4.5,18.6-12.6,25.4-23.1,2.4,8,5.8,15.7,10.8,21.1,5,5.4,11.7,8.2,17.8,5.8,8.4-3.3,13.3-15.1,17.3-25.7,3.6,11.5,8.2,24.3,16.9,28,7,2.9,16.3.7,20-7.8,3-6.8,7.8-19,9.3-27.6v1.4c2.5,13.6,7.3,27.9,16.7,33.5,3,1.8,6.8,2.5,9.5,0,1.8-1.7,2.9-4.6,3.7-7.4,2.3-8,3.3-16.7,3-25.4,4.7,11.8,12.9,20.9,22.4,24.7,6.7,2.7,14.7,2.4,19.9-4,5-6.1,6.2-16,7.1-25.1,10.4,12,21.9,24.2,35.5,26.2,3,.4,6.2.3,8.8-1.6,3.9-2.9,5.9-9.2,6.1-15.2.1-6,.5-14.2-1-19.9,7.1,11.9,17.7,16.7,28.9,18.3,4.9.7,10.2,1.3,14.2-2.5,4-3.8,5.6-11.2,5-17.9-.5-6.7-2.8-12.8-5-18.8,6.5,2.9,13.3,5.8,20.1,4.1,6.7-1.7,13.1-9.9,12.3-19.1-.7-8.2-6.1-14.3-11.5-17.9-33-22.1-65.6-41.4-93.4-65.1"/>
  <path class="st0" d="M441.6,216.1l-231.5,5.9c-15.4,14.5-40.5,38.6-56.5,51.9,3.1,6.3,9.1,10.4,14.9,10.9,7.8.7,15.3-3.2,22.7-6.9,2.2-1.1,4.5-2.2,6.8-1.6,2.1.5,3.9,2.4,5.7,4,8,7,18.4,8.6,27.3,4.2,3.7-1.8,7.1-4.6,11-5.4,13-2.9,23.4,16,36.4,18.3,7.8,1.4,15.5-3.4,22.8-7.3,2.7-1.4,5.6-2.8,8.5-2.2,3.7.8,6.6,4.5,9.8,7.3,9.8,8.9,23.6,8.9,33.4,0,3.2-2.9,6.2-6.7,10-7.6,3.3-.8,6.6.8,9.6,2.4,9.6,4.8,20.8,9.8,29.6,2.6,2.7-2.2,4.9-5.4,7.6-7.4,9.3-6.9,20.8,1,31.3-.7,9.5-1.6,17.5-11,26.9-13.5,9.3-2.5,18.8,2.1,28.2,3.3,5.2.6,10.9-.4,15.5-3.5-19.9-13-52.7-39.9-70-54.6h0Z"/>
  <path class="st2" d="M247.1,167c-16,15.5-33.3,28.4-51.6,38.3-10.3,5.6-21.3,10.6-29,21.4-2.5,3.5-4.7,8.9-2.9,13.2,1.8,4.5,6.5,4.5,10.2,3.9,17.1-3,34.1-7.9,50.7-14.6-2.4,9.6-4,22.5,2.3,27.9,4.1,3.5,9.4,1.6,13.8-1,8-4.7,15.3-11.5,21.5-19.9,1.7,16.3,13.2,29.1,25.3,29.7,12.1.5,23.7-10.3,28.8-25.2.5,9.1,4.6,17.8,10.4,22.3,5.8,4.5,13.3,4.9,19.4.9,7-4.6,11.5-14.2,15.2-23.6-.5,15,11.5,27.7,22.3,24.7,10.8-3,18.2-19.1,16.8-34,5.7,10.8,15.3,19.5,24.5,23.7,9.2,4.2,18.4-.4,18.7-13.7.1-7.2-3.2-13.8-3.3-21,9.8,13.7,19.5,19.1,38.2,17.6,6.5-.5,14.9-4.2,13.7-12.9-.8-6-5.5-9.3-9.6-11.8-22.3-13.7-38.6-28.6-57.6-49.5"/>
  <path class="st0" d="M424.9,163.3l-177.8,3.6c-12.9,12.6-26.8,23.4-41.3,32.3,10.2,2.7,20.6,3.9,30.9,5.2,3.4.4,6.9.9,10.3,1.3,11.2,1.4,22.7,2.8,33.5-1.4,5.7-2.2,11.5-5.9,17.2-4,2.6.9,4.9,2.9,7.4,4.4,8.1,5.1,17.8,5.1,26,0,4-2.5,7.9-6.3,12.3-6.4,3.6-.1,6.9,2.2,10.2,4.3,11.9,7.5,27.6,11.5,36.8-1.1,2-2.7,3.6-6.1,6-8.1,8.2-6.7,19.5,6.5,27.7.1,2.2-1.7,3.9-4.7,6.2-5.9,3.2-1.7,6.8.2,10.1,1.7,4.1,1.9,8.7,2.7,13.1,2.4-9.6-8.3-18.8-17.6-28.7-28.4h0Z"/>
  <path class="st2" d="M348.4,41.9c8.7,25.6,23.5,50.6,42.9,67.9,19.4,17.3,41.4,32.7,60.2,51.1,3.6,3.6,7.5,10.2,4.6,14.8-1.2,1.9-3.3,2.5-5.2,2.9-14.6,2.6-29.9-5.2-39.5-19.9,3.4,6.9.6,17.1-4.9,21.1-5.4,4-12.4,2.8-17.9-1.1-5.5-3.9-9.7-10.2-13.7-16.6,2.9,11.2-3.3,24.9-12.1,26.8-10.2,2.2-19.3-9.3-24.2-21.3-1.1,12.3-10.1,22.3-19.4,21.7-9.3-.6-17.5-11.9-17.6-24.2-9.2,9.2-19.5,16.3-30.5,21-4,1.7-8.4,3.1-12.3,1-6.5-3.5-7.6-17.4-1.8-22.7-15.9,8-44.2,24-49.6,15.3,2.8-13.3,13.9-19.7,23.5-25.4,37.4-22.5,68.8-62,87.8-110.3L332.3,0l16.1,41.9Z"/>
</svg>