<?xml version="1.0" encoding="UTF-8"?>
<svg id="_레이어_1" data-name="레이어 1" xmlns="http://www.w3.org/2000/svg" version="1.1" viewBox="0 0 1150 300">
  <defs>
    <style>
      .cls-1 {
        fill: #ffb6d7;
      }

      .cls-1, .cls-2, .cls-3, .cls-4 {
        stroke-width: 0px;
      }

      .cls-2 {
        fill: #323232;
      }

      .cls-3 {
        fill: #ffa0c6;
      }

      .cls-4 {
        fill: #d90028;
      }
    </style>
  </defs>
  <path class="cls-3" d="M424.5,43.6s-15.2-16.5-21-19-25-1-27,12,1.7,22.6,4,28,17.4,26.8,25,34c6.5,6.1,28.9,23.3,29,23,0,0,29-28,36-44s8.8-37.7,7-46-10-18-20-22-19.2,2.6-23,8-10,26-10,26Z"/>
  <g>
    <polygon class="cls-2" points="125.5 98.6 112.5 98.6 112.5 62.6 84.5 62.6 84.5 160.6 112.5 160.6 112.5 126.6 125.5 126.6 125.5 160.6 153.5 160.6 153.5 62.6 125.5 62.6 125.5 98.6"/>
    <polygon class="cls-2" points="289.5 76.6 258.5 76.6 258.5 104.6 289.5 104.6 289.5 120.6 258.5 120.6 258.5 148.6 289.5 148.6 289.5 160.6 319.5 160.6 319.5 62.6 289.5 62.6 289.5 76.6"/>
    <path class="cls-2" d="M453.5,151.6h-21.7c-6.6-19.2-24.9-33-46.3-33s-49,21.9-49,49,21.9,49,49,49,42.2-15.7,47.5-37h20.5v37h27v-98h-27v33ZM385.5,183.6c-8.8,0-16-7.2-16-16s7.2-16,16-16,16,7.2,16,16-7.2,16-16,16Z"/>
    <rect class="cls-2" x="494.5" y="118.6" width="27" height="98"/>
    <path class="cls-2" d="M235.6,182.6h0v109h82v-27h-45c-.2,0-.3,0-.5,0-4.5,0-8.2-3.5-8.5-8h0v-11h50v-27h-50v-11h0c.3-4.5,3.9-8,8.5-8s.3,0,.5,0h0s45,0,45,0v-27h-71c-5.7,0-10.4,4.4-10.9,10Z"/>
    <path class="cls-2" d="M595.5,188.6h38v13h-37v27h65c6.1,0,11,4.9,11,11s0,.7,0,1h0v37h18c5.6-.6,10-5.3,10-11v-65h-36v-13h37v-28h-106v28Z"/>
    <rect class="cls-2" x="1038.5" y="160.6" width="106" height="28"/>
    <path class="cls-2" d="M33.5,122.6c0-.3,0-.7,0-1h0v-59H15.5c-5.6.6-10,5.3-10,11v87h68v-27h-29c-6.1,0-11-4.9-11-11Z"/>
    <path class="cls-2" d="M808.5,217.1v-3.5s0-31,0-31v-11h-18c-5.6.6-10,5.3-10,11v70h75v-27h-39c-5.8,0-7.9-2.8-8-8.5Z"/>
    <path class="cls-2" d="M972.5,217.1v-3.5s0-31,0-31v-11h-18c-5.6.6-10,5.3-10,11v70h75v-27h-39c-5.8,0-7.9-2.8-8-8.5Z"/>
    <path class="cls-2" d="M239.5,149.6V62.6h-68v27h29c6.1,0,11,4.9,11,11s0,.7,0,1h0v59h18c5.6-.6,10-5.3,10-11Z"/>
    <path class="cls-2" d="M672.5,101.6c0,.3,0,.7,0,1h0v37h18c5.6-.6,10-5.3,10-11V63.6h-104v27h65c6.1,0,11,4.9,11,11Z"/>
    <path class="cls-2" d="M1115.5,101.6c0,.3,0,.7,0,1h0v37h18c5.6-.6,10-5.3,10-11V63.6h-104v27h65c6.1,0,11,4.9,11,11Z"/>
    <path class="cls-2" d="M992.5,75.6h-36.8c-8.7-8.1-20.4-13-33.2-13-27.1,0-49,21.9-49,49s21.9,49,49,49,26.4-5.8,35.3-15h34.7v15h29V62.6h-29v13ZM922.5,127.6c-8.8,0-16-7.2-16-16s7.2-16,16-16,16,7.2,16,16-7.2,16-16,16ZM971.1,117.6c.2-2,.4-4,.4-6s-.2-5.4-.7-8h21.7v14h-21.4Z"/>
    <rect class="cls-2" x="828.5" y="63.6" width="29" height="97"/>
    <path class="cls-2" d="M801.5,160.6V63.6h-72c-5.2,0-9.4,3.9-9.9,9h0v88h82ZM754.5,132.6c-2.8,0-5-2.2-5-5v-31c0-2.8,2.2-5,5-5h17v41h-17Z"/>
    <path class="cls-2" d="M1114.5,199.6h-67c-5.2,0-9.4,3.9-9.9,9h0v73h107v-82h-30ZM1072.5,253.6c-2.8,0-5-2.2-5-5v-16c0-2.8,2.2-5,5-5h42v26h-42Z"/>
  </g>
  <path class="cls-4" d="M424.5,43.6"/>
  <path class="cls-1" d="M451,14.1c1.1-1,4.5-.3,6,0,2.7.6,7.2,3.9,9,6s3.5,4.2,4,6,1,3,1,4-.3,2.6-1,3c-1.3.8-4.6.6-6,0-2.3-1-6.1-4.4-8-6s-3.2-3.4-4-5-2.4-6.6-1-8Z"/>
</svg>