<?xml version="1.0" encoding="UTF-8"?>
<svg id="_레이어_2" data-name="레이어 2" xmlns="http://www.w3.org/2000/svg" viewBox="0 0 102.22 113.23">
  <defs>
    <style>
      .cls-1 {
        fill: #ffb6d7;
      }

      .cls-1, .cls-2 {
        stroke-width: 0px;
      }

      .cls-2 {
        fill: #ffa0c6;
      }
    </style>
  </defs>
  <g id="_레이어_1-2" data-name=" 레이어 1">
    <path class="cls-2" d="M48.57,35.23s-15.2-16.5-21-19S2.57,15.23.57,28.23s1.7,22.6,4,28,17.4,26.8,25,34c6.5,6.1,28.9,23.3,29,23,0,0,29-28,36-44s8.8-37.7,7-46S91.57,5.23,81.57,1.23s-19.2,2.6-23,8-10,26-10,26Z"/>
    <path class="cls-1" d="M75.07,5.73c1.1-1,4.5-.3,6,0,2.7.6,7.2,3.9,9,6s3.5,4.2,4,6,1,3,1,4-.3,2.6-1,3c-1.3.8-4.6.6-6,0-2.3-1-6.1-4.4-8-6s-3.2-3.4-4-5-2.4-6.6-1-8Z"/>
  </g>
</svg>