<svg width="128" height="93" viewBox="0 0 128 93" fill="none" xmlns="http://www.w3.org/2000/svg">
<g clip-path="url(#clip0_691_568)">
<path d="M61.9751 92.1933C50.3151 91.9133 40.2251 86.1233 30.4451 79.5433C30.1651 79.3533 29.9351 79.1133 29.6851 78.8933C18.8551 69.2933 13.5051 46.6733 18.9151 33.3033C19.7251 31.2933 20.6451 29.3233 21.4551 27.3133C30.9651 3.87329 60.2751 -5.5067 81.4951 5.0233C94.0351 11.2433 103.405 19.9433 107.835 32.9833C119.285 66.6933 93.6951 94.3033 61.9751 92.1933Z" fill="white"/>
<path d="M62.845 77.593H62.955C64.275 77.703 65.575 77.753 66.825 77.753C84.285 77.753 94.675 68.113 96.095 50.623C97.385 34.653 88.385 22.273 71.385 16.673C68.415 15.693 65.205 15.193 61.855 15.193C52.075 15.193 42.525 19.533 38.085 25.993C28.715 39.653 28.245 55.483 36.895 66.313C37.845 67.513 39.005 68.563 40.155 69.283C47.065 73.603 54.505 77.603 62.145 77.603C62.335 77.603 62.535 77.603 62.725 77.603H62.835L62.845 77.593ZM66.825 82.093C65.495 82.093 64.125 82.043 62.735 81.933C62.545 81.933 62.345 81.933 62.155 81.933C53.425 81.933 45.325 77.613 37.865 72.953C36.285 71.963 34.775 70.603 33.505 69.013C28.665 62.953 26.225 55.413 26.435 47.203C26.645 39.103 29.435 30.913 34.505 23.523C39.795 15.813 50.525 10.833 61.855 10.833C65.675 10.833 69.345 11.403 72.755 12.523C82.155 15.623 89.375 20.583 94.195 27.243C98.985 33.873 101.145 42.063 100.425 50.953C99.635 60.733 96.275 68.433 90.455 73.863C84.595 79.313 76.645 82.083 66.835 82.083" fill="#B8B949"/>
<path d="M127.765 20.5435C127.485 22.9035 126.505 25.5335 124.545 27.5635C121.225 30.9935 116.405 30.6735 113.415 26.8235C110.065 22.5035 109.645 15.5835 113.075 10.7835C116.575 5.90351 122.485 6.1035 125.755 11.1835C127.305 13.5935 128.105 16.9935 127.765 20.5435Z" fill="#D9D9D9"/>
<path d="M121.395 67.1736C120.735 71.7036 119.525 73.5436 118.525 71.2836C117.675 69.3636 117.325 65.8736 117.195 61.8336C117.025 56.4636 117.365 55.3836 117.525 50.0536C117.745 43.0736 117.725 31.8836 118.285 25.2836C118.385 24.1336 118.385 22.2736 119.495 22.3836C120.595 22.4936 120.695 27.1636 120.815 28.9236C121.485 38.2036 120.975 48.8836 121.195 59.9036C121.275 62.0836 121.815 64.1936 121.385 67.1636" fill="#D9D9D9"/>
<path d="M122.725 83.0934C121.605 86.3434 119.525 87.6634 117.805 86.0434C116.345 84.6634 115.755 82.1634 115.535 79.2634C115.235 75.4134 115.365 71.5934 115.655 67.7634C116.025 62.7534 116.145 57.7934 117.105 53.0634C117.275 52.2334 117.575 50.8834 119.465 50.9634C121.355 51.0434 121.725 54.3634 121.945 55.6234C123.095 62.2834 123.255 69.2034 123.645 77.1034C123.785 78.6734 123.455 80.9634 122.715 83.0934" fill="#FAC78A"/>
<path d="M118.045 79.313C118.335 78.583 119.145 78.183 119.845 78.433C120.515 78.673 120.925 79.533 120.705 80.243C120.495 80.933 119.645 81.333 118.905 81.083C118.155 80.833 117.765 80.023 118.045 79.313Z" fill="#EDAD6E"/>
<path d="M118.045 57.5229C118.335 56.7929 119.145 56.3929 119.845 56.6429C120.515 56.8829 120.925 57.7429 120.705 58.4529C120.495 59.1429 119.645 59.5329 118.905 59.2829C118.155 59.0329 117.765 58.2229 118.045 57.5129" fill="#EDAD6E"/>
<path d="M9.49502 67.1736C8.83502 71.7036 7.62502 73.5436 6.62502 71.2836C5.77502 69.3636 5.42502 65.8736 5.29502 61.8336C5.11502 56.4636 5.45502 55.3836 5.62502 50.0536C5.84502 43.0736 5.82502 31.8836 6.38502 25.2836C6.48502 24.1336 6.48502 22.2736 7.59502 22.3836C8.69502 22.4936 8.79502 27.1636 8.91502 28.9236C9.58502 38.2036 9.07502 48.8836 9.29502 59.9036C9.37502 62.0836 9.91502 64.1936 9.48502 67.1636" fill="#D9D9D9"/>
<path d="M10.825 83.0934C9.705 86.3434 7.625 87.6634 5.915 86.0434C4.455 84.6634 3.865 82.1634 3.645 79.2634C3.345 75.4134 3.475 71.5934 3.765 67.7634C4.135 62.7534 4.255 57.7934 5.215 53.0634C5.385 52.2334 5.685 50.8834 7.575 50.9634C9.465 51.0434 9.835 54.3634 10.055 55.6234C11.205 62.2834 11.365 69.2034 11.755 77.1034C11.895 78.6734 11.565 80.9634 10.825 83.0934Z" fill="#FAC78A"/>
<path d="M6.14502 79.313C6.43502 78.583 7.24502 78.183 7.94502 78.433C8.61502 78.673 9.02502 79.533 8.80502 80.243C8.59502 80.933 7.74502 81.333 7.00502 81.083C6.25502 80.833 5.86502 80.023 6.14502 79.313Z" fill="#EDAD6E"/>
<path d="M6.14502 57.5229C6.43502 56.7929 7.24502 56.3929 7.94502 56.6429C8.61502 56.8829 9.02502 57.7429 8.80502 58.4529C8.59502 59.1429 7.74502 59.5329 7.00502 59.2829C6.25502 59.0329 5.86502 58.2229 6.14502 57.5129" fill="#EDAD6E"/>
<path d="M14.525 19.5532C14.525 18.6132 14.425 17.6732 14.285 16.7332C14.015 14.8932 13.715 13.0632 13.105 11.3332C12.995 11.0332 12.915 10.7132 12.715 10.4732C12.485 10.2032 12.215 10.0332 11.885 10.1632C11.525 10.3132 11.215 10.5532 11.035 10.9832C10.845 11.4132 10.705 11.8732 10.585 12.3332C10.075 14.3832 9.88502 16.4832 9.75502 18.8032C9.71502 18.1132 9.63502 17.4132 9.53502 16.7232C9.26502 14.8832 8.96502 13.0532 8.35502 11.3232C8.24502 11.0232 8.16502 10.7032 7.96502 10.4632C7.73502 10.1932 7.46502 10.0232 7.13502 10.1532C6.77502 10.3032 6.46502 10.5432 6.28502 10.9732C6.09502 11.4032 5.95502 11.8632 5.83502 12.3232C5.32502 14.3732 5.13502 16.4732 5.00502 18.7932C4.96502 18.1032 4.88502 17.4032 4.78502 16.7132C4.51502 14.8732 4.21502 13.0432 3.60502 11.3132C3.49502 11.0132 3.40502 10.6932 3.20502 10.4532C2.97502 10.1832 2.70502 10.0132 2.37502 10.1432C2.01502 10.2932 1.70502 10.5332 1.52502 10.9632C1.33502 11.3932 1.19502 11.8532 1.07502 12.3132C0.465015 14.8032 0.315015 17.3432 0.165015 20.2532C0.145015 20.4132 0.155015 20.5932 0.175015 20.7832C0.155015 22.0332 0.455015 23.4332 0.655015 24.2632C1.05502 25.9132 2.04502 27.3732 3.46502 28.6032C4.29502 29.3232 5.00502 30.1332 5.98502 30.7332C7.49502 31.6632 8.90502 31.5932 10.135 30.4432C11.425 29.2332 12.515 27.9132 13.385 26.4632C13.805 25.7632 14.135 25.0332 14.315 24.2632C14.525 23.3732 14.665 21.4432 14.535 19.5532" fill="#D9D9D9"/>
<path d="M65.5286 29.4314C66.2646 29.1247 67.1232 29.1554 68.1046 29.5234C69.1166 29.8914 69.6686 30.3821 69.7606 30.9954C69.8219 31.2101 69.8219 31.9307 69.7606 33.1574C69.7299 34.3534 69.6992 35.2121 69.6686 35.7334C69.5766 36.4694 69.5459 38.0027 69.5766 40.3334C69.6072 42.6641 69.6686 43.8754 69.7606 43.9674C69.8526 44.0901 70.4812 44.1514 71.6466 44.1514C72.6586 44.1514 73.3026 44.1974 73.5786 44.2894C73.8546 44.3814 74.1766 44.6881 74.5446 45.2094C74.6979 45.4547 74.7899 45.6387 74.8206 45.7614C74.8819 45.8841 74.9126 46.1294 74.9126 46.4974C74.9126 48.3067 73.6399 49.2574 71.0946 49.3494C70.9719 49.3494 70.8186 49.3647 70.6346 49.3954C70.0826 49.3954 69.7606 49.5181 69.6686 49.7634C69.5766 50.0087 69.5306 50.8827 69.5306 52.3854C69.5612 52.8761 69.5766 53.2747 69.5766 53.5814C69.5766 55.9121 69.5152 57.3227 69.3926 57.8134C69.2699 58.2734 68.8559 58.7334 68.1506 59.1934C67.5986 59.5307 67.0159 59.5614 66.4026 59.2854C65.7892 59.0094 65.2832 58.4727 64.8846 57.6754L64.5626 56.9854L64.6086 53.6734C64.6086 53.4281 64.6086 53.1061 64.6086 52.7074C64.6086 51.2047 64.5472 50.3307 64.4246 50.0854C64.3326 49.8401 63.9492 49.6867 63.2746 49.6254C63.0906 49.6254 62.9526 49.6254 62.8606 49.6254C62.4006 49.5947 62.0172 49.5487 61.7106 49.4874C61.3426 49.4261 60.3766 49.3801 58.8126 49.3494C57.1872 49.3494 56.2672 49.2881 56.0526 49.1654C55.8992 49.0734 55.6539 48.9661 55.3166 48.8434C55.0099 48.7207 54.7032 48.5214 54.3966 48.2454C54.0899 47.9387 53.9059 47.6934 53.8446 47.5094C53.8139 47.2947 53.7372 47.0494 53.6146 46.7734C53.3386 46.2827 53.3386 45.7767 53.6146 45.2554C53.7679 44.9794 53.8446 44.7801 53.8446 44.6574C53.8446 44.4734 54.3812 43.6607 55.4546 42.2194C55.6386 42.0047 55.8379 41.7441 56.0526 41.4374C56.2366 41.1614 56.4972 40.7934 56.8346 40.3334C57.1106 39.9347 57.3406 39.6127 57.5246 39.3674C58.0459 38.6007 58.7666 37.6041 59.6866 36.3774C60.6066 35.1507 61.1892 34.3994 61.4346 34.1234C61.7412 33.8474 62.1859 33.3414 62.7686 32.6054C63.3512 31.8694 63.6732 31.4861 63.7346 31.4554C63.7652 31.4247 63.8572 31.2561 64.0106 30.9494C64.1639 30.6734 64.3939 30.3821 64.7006 30.0754C65.0072 29.7687 65.2832 29.5541 65.5286 29.4314ZM64.5166 39.2294C64.4859 38.8614 64.4399 38.6927 64.3786 38.7234C64.3172 38.7234 64.0872 38.9534 63.6886 39.4134C63.2899 39.8734 63.0906 40.1341 63.0906 40.1954C63.0906 40.2567 62.8146 40.6247 62.2626 41.2994C62.1092 41.4834 61.9866 41.6521 61.8946 41.8054C61.8946 41.8361 61.8639 41.8974 61.8026 41.9894C61.7412 42.0814 61.6492 42.2041 61.5266 42.3574C61.4346 42.4801 61.3579 42.5874 61.2966 42.6794C60.9899 43.1394 60.8366 43.4001 60.8366 43.4614C60.8366 43.4921 60.7752 43.5687 60.6526 43.6914C60.3459 43.9674 60.4379 44.1974 60.9286 44.3814C61.2046 44.4734 61.7566 44.5501 62.5846 44.6114C63.4126 44.6421 63.9492 44.6267 64.1946 44.5654L64.4706 44.4274L64.5166 42.0814C64.5472 40.5481 64.5472 39.5974 64.5166 39.2294Z" fill="#B8B949"/>
</g>
<defs>
<clipPath id="clip0_691_568">
<rect width="127.69" height="91.57" fill="white" transform="translate(0.155029 0.733398)"/>
</clipPath>
</defs>
</svg>
