<?xml version="1.0" encoding="UTF-8"?>
<svg id="_레이어_1" data-name="레이어 1" xmlns="http://www.w3.org/2000/svg" version="1.1" viewBox="0 0 229.6 45.4">
  <defs>
    <style>
      .cls-1 {
        fill: #040000;
      }

      .cls-1, .cls-2, .cls-3 {
        stroke-width: 0px;
      }

      .cls-4 {
        fill: none;
        stroke: #231f21;
        stroke-linecap: round;
        stroke-linejoin: round;
        stroke-width: 2px;
      }

      .cls-2 {
        fill: #231f21;
      }

      .cls-3 {
        fill: #fff;
      }
    </style>
  </defs>
  <path class="cls-2" d="M11.9,2.8h202.2c5.1,0,9.2,4.1,9.2,9.2v20.6c0,5.1-4.1,9.2-9.2,9.2H11.9c-5.1,0-9.2-4.1-9.2-9.2V12C2.7,7,6.8,2.8,11.9,2.8"/>
  <path class="cls-4" d="M11.9,2.8h202.2c5.1,0,9.2,4.1,9.2,9.2v20.6c0,5.1-4.1,9.2-9.2,9.2H11.9c-5.1,0-9.2-4.1-9.2-9.2V12C2.7,7,6.8,2.8,11.9,2.8Z"/>
  <path class="cls-3" d="M11.9,3.5h202.2c5.1,0,9.2,4.1,9.2,9.2v20.6c0,5.1-4.1,9.2-9.2,9.2H11.9c-5.1,0-9.2-4.1-9.2-9.2V12.7C2.7,7.7,6.8,3.5,11.9,3.5"/>
  <path class="cls-4" d="M11.9,3.5h202.2c5.1,0,9.2,4.1,9.2,9.2v20.6c0,5.1-4.1,9.2-9.2,9.2H11.9c-5.1,0-9.2-4.1-9.2-9.2V12.7C2.7,7.7,6.8,3.5,11.9,3.5Z"/>
  <path class="cls-3" d="M222.2,33.6c2.6.8,4.8,4.6,4.7,7.2-1.4-2.1-4.6-2.5-6.9-3"/>
  <path class="cls-4" d="M222.2,33.6c2.6.8,4.8,4.6,4.7,7.2-1.4-2.1-4.6-2.5-6.9-3"/>
  <path class="cls-1" d="M195.2,24.1c-4.3,0-7,.2-9.2.4-.4,0-.7.2-.7.7v1.6c0,.4.2.7.7.7,2.5-.2,5.2-.4,8.7-.4s1.7.5,1.7,1.6,0,1.7-.1,2.4c0,.5.2.7.7.7h1.8c.5,0,.7-.2.7-.7,0-.5.1-1.7.1-3.1,0-2.6-1.4-3.9-4.4-3.9M196.5,12.7v9.2c0,.5.3.7.7.7h1.7c.5,0,.7-.3.7-.7v-9.2c0-.5-.3-.7-.7-.7h-1.7c-.5,0-.7.3-.7.7M189,19.4c.6,1.7,2.5,3.1,4.6,3.1s.7-.2.7-.7v-1.6c0-.4-.2-.6-.7-.6-1.8,0-3.1-1.6-3.1-3.7v-2.6c0-.5-.3-.8-.7-.8h-1.8c-.5,0-.7.3-.7.8v2.6c0,2-1.3,3.7-3.1,3.7s-.7.2-.7.6v1.6c0,.4.2.7.7.7,2.2,0,4.1-1.4,4.7-3.1M179.7,21.9v-2.3c0-.7.5-1.2,1.3-1.2h.8c.4,0,.7-.2.7-.7v-1.6c0-.4-.2-.7-.7-.7h-.7c-.6,0-1.1.2-1.4.6v-3.4c0-.5-.3-.7-.7-.7h-1.7c-.5,0-.7.3-.7.7v9.2c0,.5.3.7.7.7h1.7c.5,0,.7-.3.7-.7M169.4,19c.6,1.7,2.5,3.1,4.6,3.1s.7-.2.7-.7v-1.7c0-.4-.2-.6-.7-.6-1.8,0-3.1-1.7-3.1-3.7v-2.2c0-.5-.3-.8-.7-.8h-1.8c-.5,0-.7.3-.7.8v2.2c0,2-1.3,3.7-3.1,3.7s-.7.2-.7.6v1.7c0,.4.2.7.7.7,2.2,0,4.1-1.4,4.7-3.1M172.9,23.5c-4.9,0-7.3,1.4-7.3,4.3s2.4,4.3,7.3,4.3,7.3-1.4,7.3-4.3-2.4-4.3-7.3-4.3M172.9,29.2c-3.1,0-4.1-.4-4.1-1.4s1-1.4,4.1-1.4,4.1.4,4.1,1.4-1,1.4-4.1,1.4M154.4,31.6c.5,0,.7-.3.7-.7v-1.6c-.1-.5-.4-.7-.9-.7-2.4.2-5.9.4-9.2.4s-1.7-.5-1.7-1.5,0-.9.1-1.2c0-.4-.2-.7-.7-.7h-1.7c-.4,0-.6.2-.7.7,0,.4-.1.8-.1,1.6,0,2.6,1.6,4,4.5,4s7-.1,9.8-.4M147.4,18.1c-2.9,0-4-.4-4-1.6s1.1-1.6,4-1.6,4,.4,4,1.6-1,1.6-4,1.6M140.2,16.5c0,3,2.2,4.3,7.2,4.3s7.2-1.3,7.2-4.3-2.2-4.3-7.2-4.3-7.2,1.3-7.2,4.3M139.4,21.8c-.5,0-.7.2-.7.7v1.3c0,.4.2.7.7.7,1.9.2,4.8.2,7.9.2s6.6,0,7.9-.2c.5,0,.7-.3.7-.7v-1.3c0-.5-.3-.7-.7-.7-1.4.1-4.5.2-7.9.2s-6,0-7.9-.2M127.8,29c3.3,0,4.2,0,4.2.4s-.9.4-4.2.4-4.2,0-4.2-.4.9-.4,4.2-.4M135.2,26.2c.4,0,.5,0,.5-.4v-1.2c0-.4-.2-.5-.5-.5h-5.5c-.4,0-.6-.2-.6-.5v-.2c0-.4-.2-.6-.6-.6h-2c-.4,0-.6.2-.6.6v.2c0,.2.1.4.3.5h-5.7c-.4,0-.5.2-.5.5v1.1c0,.4.2.5.5.5h14.7ZM119.7,22.3c1.9.2,4.9.2,7.9.2s6.6,0,8-.2c.5,0,.7-.3.7-.7v-1.2c0-.5-.2-.7-.7-.6-1.7.1-4.5.2-5.7.2-.5,0-.6-.2-.6-.6v-.4c0-.5-.2-.7-.7-.7h-1.8c-.5,0-.7.2-.7.7v.4c0,.3.1.5.4.7-2.4,0-5,0-6.7-.2-.5,0-.7.2-.7.6v1.2c0,.4.2.6.7.7M127.8,32c5.4,0,7.3-.5,7.3-2.6s-1.9-2.6-7.3-2.6-7.3.5-7.3,2.6,1.9,2.6,7.3,2.6M121.7,12.5c-.5,0-.7.2-.7.7v1.2c0,.5.2.7.7.7h4.3c-.5.9-2,1.5-4.6,1.5s-.7.2-.7.6v1.2c0,.4.2.7.7.7,3,.1,5.5-1,6.4-2.6.9,1.6,3.3,2.8,6.4,2.6.5,0,.7-.3.7-.7v-1.2c0-.4-.2-.6-.7-.6-2.6,0-4-.6-4.6-1.5h4.3c.5,0,.7-.2.7-.7v-1.2c0-.5-.2-.7-.7-.7h-12.2ZM101.1,32c3.9,0,6.6-.2,8.8-.4.4,0,.7-.2.7-.7v-1.6c-.1-.4-.4-.7-.8-.7-2.3.2-5.3.4-8.2.4s-2.5-.6-2.5-1.9,0-1,.1-1.7c0-.5-.3-.7-.7-.7h-1.7c-.5,0-.7.3-.7.7,0,.5-.1,1-.1,2.1,0,2.8,1.9,4.4,5.3,4.4M97.1,23h6.1c.4,0,.7-.2.7-.7v-1.4c0-.4-.2-.7-.7-.7h-1.4c1.4-.7,2.2-2.4,2.2-4.3s-1.3-3.5-3.3-3.5h-5.3c-.8,0-1.3.4-1.3,1.3v6.7c0,1.6,1.1,2.6,2.9,2.6M106.8,13.1c0,.7-.2.9-.9.9h-.8c-.4,0-.7.2-.7.7v1.5c0,.4.2.7.7.7h.5c.5,0,.9-.2,1.2-.5v1.5c0,.6-.2.9-.9.9h-.8c-.4,0-.7.2-.7.7v1.5c0,.4.2.7.7.7h.5c.5,0,.9-.2,1.2-.5v3.8c0,.5.3.7.7.7h1.7c.5,0,.7-.3.7-.7v-12.3c0-.5-.3-.7-.7-.7h-1.7c-.5,0-.7.3-.7.7v.4ZM98.3,20.1c-.6,0-1-.3-1-.9v-3.2c0-.4.2-.7.7-.7h1.3c1.1,0,1.6.8,1.6,2.1s-.8,2.7-1.9,2.7h-.7ZM89.8,13.4c0-.4-.2-.6-.7-.7-1.9-.2-3.5-.2-5.7-.2-5.5,0-7.5,1.3-7.5,4.8s2,4.8,7.2,4.8,2.9,0,6.2-.4c.5,0,.7-.3.7-.7v-1.6c-.2-.5-.4-.7-.8-.7-2.1.2-4.8.4-6.5.4-3,0-3.7-.4-3.7-1.8s.9-1.8,4.3-1.8,3.7.1,5.7.2c.4,0,.7-.2.7-.7v-1.6ZM85.8,26.6c2.2,0,4.3-.2,5.4-.4.5,0,.7-.3.7-.7v-1.6c0-.5-.3-.7-.7-.7-1.4.2-4.5.4-7.9.4s-6-.1-7.9-.4c-.5,0-.7.2-.7.7v1.6c0,.4.2.6.7.7,1.7.2,4.2.4,7,.4-.4.2-.7.6-.7,1.1v2.5c0,.5.3.7.7.7h1.8c.5,0,.7-.3.7-.7v-2.6c0-.6.3-.9.9-.9M64.2,31v-7.2c0-.7.5-1.2,1.3-1.2h.8c.4,0,.7-.2.7-.7v-1.7c0-.4-.2-.7-.7-.7h-.7c-.6,0-1.1.2-1.4.6v-7.4c0-.5-.3-.7-.7-.7h-1.7c-.5,0-.7.3-.7.7v18.3c0,.5.3.7.7.7h1.7c.5,0,.7-.3.7-.7M58.9,21.1c0-5.6-1.6-8-5.2-8s-5.1,2.4-5.1,8,1.6,8,5.1,8,5.2-2.4,5.2-8M53.8,16.1c1.5,0,2,1.4,2,5s-.6,5-2,5-2-1.4-2-5,.6-5,2-5M44.6,20.8v-1.7c0-.7.5-1.2,1.3-1.2h.8c.4,0,.7-.2.7-.7v-1.6c0-.4-.2-.7-.7-.7h-.7c-.6,0-1.1.2-1.4.6v-2.9c0-.5-.3-.7-.7-.7h-1.7c-.5,0-.7.3-.7.7v8.1c0,.5.3.7.7.7h1.7c.5,0,.7-.3.7-.7M34.2,12.3c-3.1,0-5.1,1.8-5.1,4.7s2,4.7,5.1,4.7,5.2-1.8,5.2-4.7-2-4.7-5.2-4.7M44,28.5c.4,0,.6-.2.6-.5v-1.3c0-.3-.2-.5-.6-.5h-.5c.8-.3,1.3-1,1.3-1.8s-.8-1.7-2.2-1.7c-3.2-.1-7.5,0-10.8.3-.4,0-.6.2-.6.5v1.4c0,.4.2.5.6.5,2.6-.2,7-.4,9.1-.4s.8.2.8.5-.2.5-.8.5c-1,0-2.2,0-3.3,0-4.7,0-6.7.7-6.7,3s1.8,3.1,8,3.1,4.4-.2,6-.4c.3,0,.5-.3.5-.6v-1.4c-.1-.4-.4-.5-.7-.5-1.5.3-4.1.4-5.8.4-4.2,0-4.8,0-4.8-.6s.5-.6,3.6-.6,4.9,0,6.5,0M34.2,15c1.2,0,2,.8,2,1.9s-.8,2-2,2-2-.8-2-2,.8-1.9,2-1.9"/>
</svg>