<svg width="128" height="93" viewBox="0 0 128 93" fill="none" xmlns="http://www.w3.org/2000/svg">
<g clip-path="url(#clip0_691_1775)">
<path d="M61.9751 92.0536C50.3151 91.7737 40.2251 85.9837 30.4451 79.4036C30.1651 79.2136 29.9351 78.9737 29.6851 78.7537C18.8551 69.1537 13.5051 46.5336 18.9151 33.1636C19.7251 31.1536 20.6451 29.1836 21.4551 27.1736C30.9651 3.73365 60.2751 -5.64635 81.4951 4.88365C94.0351 11.1036 103.405 19.8036 107.835 32.8436C119.285 66.5536 93.6951 94.1637 61.9751 92.0536Z" fill="white"/>
<path d="M62.845 77.4534H62.955C64.275 77.5634 65.575 77.6134 66.825 77.6134C84.285 77.6134 94.675 67.9734 96.095 50.4834C97.385 34.5134 88.385 22.1334 71.385 16.5334C68.415 15.5534 65.205 15.0534 61.855 15.0534C52.075 15.0534 42.525 19.3934 38.085 25.8534C28.715 39.5134 28.245 55.3434 36.895 66.1734C37.845 67.3734 39.005 68.4234 40.155 69.1434C47.065 73.4634 54.505 77.4634 62.145 77.4634C62.335 77.4634 62.535 77.4634 62.725 77.4634H62.835L62.845 77.4534ZM66.825 81.9534C65.495 81.9534 64.125 81.9034 62.735 81.7934C62.545 81.7934 62.345 81.7934 62.155 81.7934C53.425 81.7934 45.325 77.4734 37.865 72.8134C36.285 71.8234 34.775 70.4634 33.505 68.8734C28.665 62.8134 26.225 55.2734 26.435 47.0634C26.645 38.9634 29.435 30.7734 34.505 23.3834C39.795 15.6734 50.525 10.6934 61.855 10.6934C65.675 10.6934 69.345 11.2634 72.755 12.3834C82.155 15.4834 89.375 20.4434 94.195 27.1034C98.985 33.7334 101.145 41.9234 100.425 50.8134C99.635 60.5934 96.275 68.2934 90.455 73.7234C84.595 79.1734 76.645 81.9434 66.835 81.9434" fill="#B8B949"/>
<path d="M127.765 20.4039C127.485 22.7639 126.505 25.3939 124.545 27.4239C121.225 30.8539 116.405 30.5339 113.415 26.6839C110.065 22.3639 109.645 15.4439 113.075 10.6439C116.575 5.76386 122.485 5.96386 125.755 11.0439C127.305 13.4539 128.105 16.8539 127.765 20.4039Z" fill="#D9D9D9"/>
<path d="M121.395 67.033C120.735 71.563 119.525 73.403 118.525 71.143C117.675 69.223 117.325 65.7329 117.195 61.6929C117.025 56.3229 117.365 55.243 117.525 49.9129C117.745 42.9329 117.725 31.7429 118.285 25.1429C118.385 23.9929 118.385 22.1329 119.495 22.2429C120.595 22.3529 120.695 27.0229 120.815 28.7829C121.485 38.0629 120.975 48.7429 121.195 59.7629C121.275 61.9429 121.815 64.0529 121.385 67.0229" fill="#D9D9D9"/>
<path d="M122.725 82.9537C121.605 86.2037 119.525 87.5237 117.805 85.9037C116.345 84.5237 115.755 82.0237 115.535 79.1237C115.235 75.2737 115.365 71.4537 115.655 67.6237C116.025 62.6137 116.145 57.6537 117.105 52.9237C117.275 52.0937 117.575 50.7437 119.465 50.8237C121.355 50.9037 121.725 54.2237 121.945 55.4837C123.095 62.1437 123.255 69.0637 123.645 76.9637C123.785 78.5337 123.455 80.8237 122.715 82.9537" fill="#FAC78A"/>
<path d="M118.045 79.1733C118.335 78.4433 119.145 78.0433 119.845 78.2933C120.515 78.5333 120.925 79.3933 120.705 80.1033C120.495 80.7933 119.645 81.1933 118.905 80.9433C118.155 80.6933 117.765 79.8833 118.045 79.1733Z" fill="#EDAD6E"/>
<path d="M118.045 57.3843C118.335 56.6543 119.145 56.2543 119.845 56.5043C120.515 56.7443 120.925 57.6043 120.705 58.3143C120.495 59.0043 119.645 59.3943 118.905 59.1443C118.155 58.8943 117.765 58.0843 118.045 57.3743" fill="#EDAD6E"/>
<path d="M9.49502 67.033C8.83502 71.563 7.62502 73.403 6.62502 71.143C5.77502 69.223 5.42502 65.7329 5.29502 61.6929C5.11502 56.3229 5.45502 55.243 5.62502 49.9129C5.84502 42.9329 5.82502 31.7429 6.38502 25.1429C6.48502 23.9929 6.48502 22.1329 7.59502 22.2429C8.69502 22.3529 8.79502 27.0229 8.91502 28.7829C9.58502 38.0629 9.07502 48.7429 9.29502 59.7629C9.37502 61.9429 9.91502 64.0529 9.48502 67.0229" fill="#D9D9D9"/>
<path d="M10.825 82.9537C9.705 86.2037 7.625 87.5237 5.915 85.9037C4.455 84.5237 3.865 82.0237 3.645 79.1237C3.345 75.2737 3.475 71.4537 3.765 67.6237C4.135 62.6137 4.255 57.6537 5.215 52.9237C5.385 52.0937 5.685 50.7437 7.575 50.8237C9.465 50.9037 9.835 54.2237 10.055 55.4837C11.205 62.1437 11.365 69.0637 11.755 76.9637C11.895 78.5337 11.565 80.8237 10.825 82.9537Z" fill="#FAC78A"/>
<path d="M6.14502 79.1733C6.43502 78.4433 7.24502 78.0433 7.94502 78.2933C8.61502 78.5333 9.02502 79.3933 8.80502 80.1033C8.59502 80.7933 7.74502 81.1933 7.00502 80.9433C6.25502 80.6933 5.86502 79.8833 6.14502 79.1733Z" fill="#EDAD6E"/>
<path d="M6.14502 57.3843C6.43502 56.6543 7.24502 56.2543 7.94502 56.5043C8.61502 56.7443 9.02502 57.6043 8.80502 58.3143C8.59502 59.0043 7.74502 59.3943 7.00502 59.1443C6.25502 58.8943 5.86502 58.0843 6.14502 57.3743" fill="#EDAD6E"/>
<path d="M14.525 19.4135C14.525 18.4735 14.425 17.5335 14.285 16.5935C14.015 14.7535 13.715 12.9235 13.105 11.1935C12.995 10.8935 12.915 10.5735 12.715 10.3335C12.485 10.0635 12.215 9.89353 11.885 10.0235C11.525 10.1735 11.215 10.4135 11.035 10.8435C10.845 11.2735 10.705 11.7335 10.585 12.1935C10.075 14.2435 9.88502 16.3435 9.75502 18.6635C9.71502 17.9735 9.63502 17.2735 9.53502 16.5835C9.26502 14.7435 8.96502 12.9135 8.35502 11.1835C8.24502 10.8835 8.16502 10.5635 7.96502 10.3235C7.73502 10.0535 7.46502 9.88353 7.13502 10.0135C6.77502 10.1635 6.46502 10.4035 6.28502 10.8335C6.09502 11.2635 5.95502 11.7235 5.83502 12.1835C5.32502 14.2335 5.13502 16.3335 5.00502 18.6535C4.96502 17.9635 4.88502 17.2635 4.78502 16.5735C4.51502 14.7335 4.21502 12.9035 3.60502 11.1735C3.49502 10.8735 3.40502 10.5535 3.20502 10.3135C2.97502 10.0435 2.70502 9.87353 2.37502 10.0035C2.01502 10.1535 1.70502 10.3935 1.52502 10.8235C1.33502 11.2535 1.19502 11.7135 1.07502 12.1735C0.465015 14.6635 0.315015 17.2035 0.165015 20.1135C0.145015 20.2735 0.155015 20.4535 0.175015 20.6435C0.155015 21.8935 0.455015 23.2935 0.655015 24.1235C1.05502 25.7735 2.04502 27.2335 3.46502 28.4635C4.29502 29.1835 5.00502 29.9935 5.98502 30.5935C7.49502 31.5235 8.90502 31.4535 10.135 30.3035C11.425 29.0935 12.515 27.7735 13.385 26.3235C13.805 25.6235 14.135 24.8935 14.315 24.1235C14.525 23.2335 14.665 21.3035 14.535 19.4135" fill="#D9D9D9"/>
<path d="M62.0813 28.9697C62.6333 28.8164 63.3693 28.7244 64.2893 28.6937C65.2399 28.6631 65.8379 28.7091 66.0833 28.8317C66.2366 28.9237 66.4666 29.0311 66.7733 29.1537C67.1719 29.2764 67.6779 29.6137 68.2913 30.1657C68.9353 30.6871 69.3339 31.1164 69.4873 31.4537C69.5793 31.6377 69.7173 31.8524 69.9013 32.0977C70.0546 32.2817 70.1466 32.4657 70.1773 32.6497C70.2386 32.8951 70.3459 33.1864 70.4993 33.5237C70.6526 33.9224 70.7446 34.3824 70.7753 34.9037C70.8059 35.3944 70.8979 35.7931 71.0513 36.0997C71.2353 36.4371 71.3273 36.9737 71.3273 37.7097C71.3273 38.4457 71.2353 38.9824 71.0513 39.3197C70.8979 39.5957 70.8213 39.9637 70.8213 40.4237C70.8213 41.2517 70.6679 42.0184 70.3613 42.7237C70.2386 42.9997 70.1773 43.2144 70.1773 43.3677C70.1773 43.4904 70.0853 43.7051 69.9013 44.0117C69.7173 44.3184 69.6253 44.5484 69.6253 44.7017C69.6253 44.8244 69.5639 45.0084 69.4413 45.2537C69.3493 45.4377 69.2113 45.6984 69.0273 46.0357C68.9353 46.2197 68.7819 46.4957 68.5673 46.8637C68.5059 46.9251 68.4139 47.0631 68.2913 47.2777C68.1686 47.4924 68.0919 47.6304 68.0613 47.6917C67.9079 47.9984 67.7699 48.2284 67.6473 48.3817C67.5246 48.5351 67.4326 48.6884 67.3713 48.8417C67.2486 49.0564 67.0493 49.3324 66.7733 49.6697C66.4666 50.0071 66.3133 50.2217 66.3133 50.3137C66.3133 50.3751 66.1293 50.6204 65.7613 51.0497C65.3933 51.4791 65.1633 51.8164 65.0713 52.0617C64.9179 52.3071 64.8106 52.4451 64.7493 52.4757C64.6573 52.5064 64.6113 52.5677 64.6113 52.6597C64.6113 52.7211 64.4733 52.9051 64.1973 53.2117C63.7986 53.6411 63.6453 53.9017 63.7373 53.9937C63.7679 54.0551 64.8873 54.1011 67.0953 54.1317C68.9659 54.1624 70.0699 54.2084 70.4073 54.2697C70.7446 54.3311 71.1126 54.5917 71.5113 55.0517C72.0939 55.6957 72.2779 56.4317 72.0633 57.2597C71.8486 58.0571 71.3119 58.6551 70.4533 59.0538C70.1159 59.2071 69.7786 59.2838 69.4413 59.2838C69.1039 59.3144 68.0459 59.3144 66.2673 59.2838C63.9366 59.2531 62.6026 59.1918 62.2653 59.0998C61.9279 59.0078 61.4526 58.9618 60.8393 58.9618C59.3673 58.9618 58.2479 58.7164 57.4813 58.2257C56.6226 57.6737 56.1779 56.9224 56.1473 55.9717C56.1166 54.9904 56.4999 54.0857 57.2973 53.2577C58.2479 52.2457 58.8766 51.5251 59.1833 51.0957C59.5513 50.6664 59.9193 50.2371 60.2873 49.8077C61.3299 48.5811 61.9433 47.8144 62.1273 47.5077C62.2193 47.3237 62.2959 47.2164 62.3573 47.1857C62.5106 47.0631 62.8173 46.6491 63.2773 45.9437C63.7373 45.2384 64.0593 44.6711 64.2433 44.2417C64.3659 43.9657 64.4733 43.7817 64.5653 43.6897C64.6266 43.5977 64.7033 43.4137 64.7953 43.1377C64.9179 42.8617 65.0099 42.6777 65.0713 42.5857C65.1633 42.4937 65.2553 42.2331 65.3473 41.8037C65.4393 41.3437 65.5466 41.0371 65.6693 40.8837C65.9146 40.5157 66.0373 39.5497 66.0373 37.9857C66.0679 36.3911 65.9453 35.4251 65.6693 35.0877C65.5466 34.9037 65.4393 34.6891 65.3473 34.4437C65.1633 34.1371 64.8413 33.9531 64.3813 33.8917C63.9519 33.8304 63.5379 33.9224 63.1393 34.1677C62.7099 34.4131 62.2959 34.8577 61.8973 35.5017C61.4986 36.1151 61.2839 36.6057 61.2533 36.9737C61.2533 37.8631 60.8853 38.5837 60.1493 39.1357C59.4133 39.6571 58.6466 39.7337 57.8493 39.3657C57.2666 39.0897 56.8066 38.5837 56.4693 37.8477C56.1319 37.0811 56.0706 36.3911 56.2853 35.7777C56.3773 35.5324 56.4233 35.3484 56.4233 35.2257C56.4233 35.1031 56.5153 34.8577 56.6993 34.4897C56.8833 34.1217 56.9753 33.8917 56.9753 33.7997C56.9753 33.7077 57.0213 33.5851 57.1133 33.4317C57.2053 33.3397 57.3433 33.1251 57.5273 32.7877C58.6006 30.7944 60.1186 29.5217 62.0813 28.9697Z" fill="#B8B949"/>
</g>
<defs>
<clipPath id="clip0_691_1775">
<rect width="127.69" height="91.57" fill="white" transform="translate(0.155029 0.59375)"/>
</clipPath>
</defs>
</svg>
