<svg width="25" height="26" viewBox="0 0 25 26" fill="none" xmlns="http://www.w3.org/2000/svg">
<rect y="0.84375" width="25" height="25" rx="12.5" fill="#B8B949"/>
<path d="M11.5984 5.96375C11.8384 5.89708 12.1584 5.85708 12.5584 5.84375C12.9717 5.83042 13.2317 5.85042 13.3384 5.90375C13.405 5.94375 13.505 5.99042 13.6384 6.04375C13.8117 6.09708 14.0317 6.24375 14.2984 6.48375C14.5784 6.71042 14.7517 6.89708 14.8184 7.04375C14.8584 7.12375 14.9184 7.21708 14.9984 7.32375C15.065 7.40375 15.105 7.48375 15.1184 7.56375C15.145 7.67042 15.1917 7.79708 15.2584 7.94375C15.325 8.11708 15.365 8.31708 15.3784 8.54375C15.3917 8.75708 15.4317 8.93042 15.4984 9.06375C15.5784 9.21042 15.6184 9.44375 15.6184 9.76375C15.6184 10.0837 15.5784 10.3171 15.4984 10.4637C15.4317 10.5837 15.3984 10.7437 15.3984 10.9437C15.3984 11.3037 15.3317 11.6371 15.1984 11.9437C15.145 12.0637 15.1184 12.1571 15.1184 12.2237C15.1184 12.2771 15.0784 12.3704 14.9984 12.5037C14.9184 12.6371 14.8784 12.7371 14.8784 12.8037C14.8784 12.8571 14.8517 12.9371 14.7984 13.0437C14.7584 13.1237 14.6984 13.2371 14.6184 13.3837C14.5784 13.4637 14.5117 13.5837 14.4184 13.7437C14.3917 13.7704 14.3517 13.8304 14.2984 13.9237C14.245 14.0171 14.2117 14.0771 14.1984 14.1037C14.1317 14.2371 14.0717 14.3371 14.0184 14.4037C13.965 14.4704 13.925 14.5371 13.8984 14.6037C13.845 14.6971 13.7584 14.8171 13.6384 14.9637C13.505 15.1104 13.4384 15.2037 13.4384 15.2437C13.4384 15.2704 13.3584 15.3771 13.1984 15.5637C13.0384 15.7504 12.9384 15.8971 12.8984 16.0037C12.8317 16.1104 12.785 16.1704 12.7584 16.1837C12.7184 16.1971 12.6984 16.2237 12.6984 16.2637C12.6984 16.2904 12.6384 16.3704 12.5184 16.5037C12.345 16.6904 12.2784 16.8037 12.3184 16.8437C12.3317 16.8704 12.8184 16.8904 13.7784 16.9037C14.5917 16.9171 15.0717 16.9371 15.2184 16.9637C15.365 16.9904 15.525 17.1037 15.6984 17.3037C15.9517 17.5837 16.0317 17.9037 15.9384 18.2637C15.845 18.6104 15.6117 18.8704 15.2384 19.0438C15.0917 19.1104 14.945 19.1438 14.7984 19.1438C14.6517 19.1571 14.1917 19.1571 13.4184 19.1438C12.405 19.1304 11.825 19.1038 11.6784 19.0638C11.5317 19.0238 11.325 19.0038 11.0584 19.0038C10.4184 19.0038 9.93169 18.8971 9.59836 18.6837C9.22503 18.4437 9.03169 18.1171 9.01836 17.7037C9.00503 17.2771 9.17169 16.8837 9.51836 16.5237C9.93169 16.0837 10.205 15.7704 10.3384 15.5837C10.4984 15.3971 10.6584 15.2104 10.8184 15.0237C11.2717 14.4904 11.5384 14.1571 11.6184 14.0237C11.6584 13.9437 11.6917 13.8971 11.7184 13.8837C11.785 13.8304 11.9184 13.6504 12.1184 13.3437C12.3184 13.0371 12.4584 12.7904 12.5384 12.6037C12.5917 12.4837 12.6384 12.4037 12.6784 12.3637C12.705 12.3237 12.7384 12.2437 12.7784 12.1237C12.8317 12.0037 12.8717 11.9237 12.8984 11.8837C12.9384 11.8437 12.9784 11.7304 13.0184 11.5437C13.0584 11.3437 13.105 11.2104 13.1584 11.1437C13.265 10.9837 13.3184 10.5637 13.3184 9.88375C13.3317 9.19042 13.2784 8.77042 13.1584 8.62375C13.105 8.54375 13.0584 8.45042 13.0184 8.34375C12.9384 8.21042 12.7984 8.13042 12.5984 8.10375C12.4117 8.07708 12.2317 8.11708 12.0584 8.22375C11.8717 8.33042 11.6917 8.52375 11.5184 8.80375C11.345 9.07042 11.2517 9.28375 11.2384 9.44375C11.2384 9.83042 11.0784 10.1437 10.7584 10.3837C10.4384 10.6104 10.105 10.6437 9.75836 10.4837C9.50503 10.3637 9.30503 10.1437 9.15836 9.82375C9.01169 9.49042 8.98503 9.19042 9.07836 8.92375C9.11836 8.81708 9.13836 8.73708 9.13836 8.68375C9.13836 8.63042 9.17836 8.52375 9.25836 8.36375C9.33836 8.20375 9.37836 8.10375 9.37836 8.06375C9.37836 8.02375 9.39836 7.97042 9.43836 7.90375C9.47836 7.86375 9.53836 7.77042 9.61836 7.62375C10.085 6.75708 10.745 6.20375 11.5984 5.96375Z" fill="white"/>
</svg>
