<svg width="128" height="92" viewBox="0 0 128 92" fill="none" xmlns="http://www.w3.org/2000/svg">
<g clip-path="url(#clip0_691_534)">
<path d="M61.9751 91.4833C50.3151 91.2033 40.2251 85.4133 30.4451 78.8333C30.1651 78.6433 29.9351 78.4033 29.6851 78.1833C18.8551 68.5833 13.5051 45.9633 18.9151 32.5933C19.7251 30.5833 20.6451 28.6133 21.4551 26.6033C30.9651 3.16333 60.2751 -6.21667 81.4951 4.31333C94.0351 10.5333 103.405 19.2333 107.835 32.2733C119.285 65.9833 93.6951 93.5933 61.9751 91.4833Z" fill="white"/>
<path d="M62.845 76.883H62.955C64.275 76.993 65.575 77.043 66.825 77.043C84.285 77.043 94.675 67.403 96.095 49.913C97.385 33.943 88.385 21.563 71.385 15.963C68.415 14.983 65.205 14.483 61.855 14.483C52.075 14.483 42.525 18.823 38.085 25.283C28.715 38.943 28.245 54.773 36.895 65.6031C37.845 66.8031 39.005 67.8531 40.155 68.5731C47.065 72.8931 54.505 76.8931 62.145 76.8931C62.335 76.8931 62.535 76.8931 62.725 76.8931H62.835L62.845 76.883ZM66.825 81.383C65.495 81.383 64.125 81.333 62.735 81.223C62.545 81.223 62.345 81.223 62.155 81.223C53.425 81.223 45.325 76.903 37.865 72.243C36.285 71.253 34.775 69.893 33.505 68.303C28.665 62.243 26.225 54.703 26.435 46.493C26.645 38.393 29.435 30.203 34.505 22.813C39.795 15.103 50.525 10.123 61.855 10.123C65.675 10.123 69.345 10.693 72.755 11.813C82.155 14.913 89.375 19.873 94.195 26.533C98.985 33.163 101.145 41.3531 100.425 50.243C99.635 60.023 96.275 67.723 90.455 73.153C84.595 78.603 76.645 81.373 66.835 81.373" fill="#B8B949"/>
<path d="M127.765 19.8335C127.485 22.1935 126.505 24.8235 124.545 26.8535C121.225 30.2835 116.405 29.9635 113.415 26.1135C110.065 21.7935 109.645 14.8735 113.075 10.0735C116.575 5.19354 122.485 5.39354 125.755 10.4735C127.305 12.8835 128.105 16.2835 127.765 19.8335Z" fill="#D9D9D9"/>
<path d="M121.395 66.4626C120.735 70.9926 119.525 72.8326 118.525 70.5726C117.675 68.6526 117.325 65.1626 117.195 61.1226C117.025 55.7526 117.365 54.6726 117.525 49.3426C117.745 42.3626 117.725 31.1726 118.285 24.5726C118.385 23.4226 118.385 21.5626 119.495 21.6726C120.595 21.7826 120.695 26.4526 120.815 28.2126C121.485 37.4926 120.975 48.1726 121.195 59.1926C121.275 61.3726 121.815 63.4826 121.385 66.4526" fill="#D9D9D9"/>
<path d="M122.725 82.3834C121.605 85.6334 119.525 86.9534 117.805 85.3334C116.345 83.9534 115.755 81.4534 115.535 78.5534C115.235 74.7034 115.365 70.8834 115.655 67.0534C116.025 62.0434 116.145 57.0834 117.105 52.3534C117.275 51.5234 117.575 50.1734 119.465 50.2534C121.355 50.3334 121.725 53.6534 121.945 54.9134C123.095 61.5734 123.255 68.4934 123.645 76.3934C123.785 77.9634 123.455 80.2534 122.715 82.3834" fill="#FAC78A"/>
<path d="M118.045 78.603C118.335 77.873 119.145 77.473 119.845 77.723C120.515 77.963 120.925 78.823 120.705 79.533C120.495 80.223 119.645 80.623 118.905 80.373C118.155 80.123 117.765 79.313 118.045 78.603Z" fill="#EDAD6E"/>
<path d="M118.045 56.8139C118.335 56.0839 119.145 55.6839 119.845 55.9339C120.515 56.1739 120.925 57.0339 120.705 57.7439C120.495 58.4339 119.645 58.8239 118.905 58.5739C118.155 58.3239 117.765 57.5139 118.045 56.8039" fill="#EDAD6E"/>
<path d="M9.49502 66.4626C8.83502 70.9926 7.62502 72.8326 6.62502 70.5726C5.77502 68.6526 5.42502 65.1626 5.29502 61.1226C5.11502 55.7526 5.45502 54.6726 5.62502 49.3426C5.84502 42.3626 5.82502 31.1726 6.38502 24.5726C6.48502 23.4226 6.48502 21.5626 7.59502 21.6726C8.69502 21.7826 8.79502 26.4526 8.91502 28.2126C9.58502 37.4926 9.07502 48.1726 9.29502 59.1926C9.37502 61.3726 9.91502 63.4826 9.48502 66.4526" fill="#D9D9D9"/>
<path d="M10.825 82.3834C9.705 85.6334 7.625 86.9534 5.915 85.3334C4.455 83.9534 3.865 81.4534 3.645 78.5534C3.345 74.7034 3.475 70.8834 3.765 67.0534C4.135 62.0434 4.255 57.0834 5.215 52.3534C5.385 51.5234 5.685 50.1734 7.575 50.2534C9.465 50.3334 9.835 53.6534 10.055 54.9134C11.205 61.5734 11.365 68.4934 11.755 76.3934C11.895 77.9634 11.565 80.2534 10.825 82.3834Z" fill="#FAC78A"/>
<path d="M6.14502 78.603C6.43502 77.873 7.24502 77.473 7.94502 77.723C8.61502 77.963 9.02502 78.823 8.80502 79.533C8.59502 80.223 7.74502 80.623 7.00502 80.373C6.25502 80.123 5.86502 79.313 6.14502 78.603Z" fill="#EDAD6E"/>
<path d="M6.14502 56.8139C6.43502 56.0839 7.24502 55.6839 7.94502 55.9339C8.61502 56.1739 9.02502 57.0339 8.80502 57.7439C8.59502 58.4339 7.74502 58.8239 7.00502 58.5739C6.25502 58.3239 5.86502 57.5139 6.14502 56.8039" fill="#EDAD6E"/>
<path d="M14.525 18.8432C14.525 17.9032 14.425 16.9632 14.285 16.0232C14.015 14.1832 13.715 12.3532 13.105 10.6232C12.995 10.3232 12.915 10.0032 12.715 9.76321C12.485 9.49321 12.215 9.32322 11.885 9.45322C11.525 9.60322 11.215 9.84322 11.035 10.2732C10.845 10.7032 10.705 11.1632 10.585 11.6232C10.075 13.6732 9.88502 15.7732 9.75502 18.0932C9.71502 17.4032 9.63502 16.7032 9.53502 16.0132C9.26502 14.1732 8.96502 12.3432 8.35502 10.6132C8.24502 10.3132 8.16502 9.99321 7.96502 9.75321C7.73502 9.48321 7.46502 9.31322 7.13502 9.44322C6.77502 9.59322 6.46502 9.83321 6.28502 10.2632C6.09502 10.6932 5.95502 11.1532 5.83502 11.6132C5.32502 13.6632 5.13502 15.7632 5.00502 18.0832C4.96502 17.3932 4.88502 16.6932 4.78502 16.0032C4.51502 14.1632 4.21502 12.3332 3.60502 10.6032C3.49502 10.3032 3.40502 9.98322 3.20502 9.74322C2.97502 9.47322 2.70502 9.30321 2.37502 9.43321C2.01502 9.58321 1.70502 9.82321 1.52502 10.2532C1.33502 10.6832 1.19502 11.1432 1.07502 11.6032C0.465015 14.0932 0.315015 16.6332 0.165015 19.5432C0.145015 19.7032 0.155015 19.8832 0.175015 20.0732C0.155015 21.3232 0.455015 22.7232 0.655015 23.5532C1.05502 25.2032 2.04502 26.6632 3.46502 27.8932C4.29502 28.6132 5.00502 29.4232 5.98502 30.0232C7.49502 30.9532 8.90502 30.8832 10.135 29.7332C11.425 28.5232 12.515 27.2032 13.385 25.7532C13.805 25.0532 14.135 24.3232 14.315 23.5532C14.525 22.6632 14.665 20.7332 14.535 18.8432" fill="#D9D9D9"/>
<path d="M63.0291 28.3994C64.1331 27.9394 65.1298 28.1388 66.0191 28.9974C66.3258 29.3041 66.4944 29.6874 66.5251 30.1474C66.5864 30.6074 66.6018 32.1254 66.5711 34.7014C66.5711 39.2401 66.5711 43.6714 66.5711 47.9954C66.6018 52.6261 66.5864 55.3401 66.5251 56.1374C66.4944 56.9041 66.3718 57.3948 66.1571 57.6094C66.0038 57.7628 65.8964 57.8854 65.8351 57.9774C65.7738 58.0388 65.5591 58.1921 65.1911 58.4374C64.4551 58.8668 63.7191 58.8821 62.9831 58.4834C62.2471 58.1154 61.8331 57.5021 61.7411 56.6434C61.7104 56.1834 61.6951 51.5988 61.6951 42.8894V29.7794L62.1091 29.1814C62.3851 28.8134 62.6918 28.5528 63.0291 28.3994Z" fill="#B8B949"/>
</g>
<defs>
<clipPath id="clip0_691_534">
<rect width="127.69" height="91.57" fill="white" transform="translate(0.155029 0.0234375)"/>
</clipPath>
</defs>
</svg>
