<svg width="326" height="326" viewBox="0 0 326 326" fill="none" xmlns="http://www.w3.org/2000/svg">
<rect width="326" height="326" fill="#FFF2D8"/>
<path d="M67.4002 247.049C67.7572 247.049 67.9612 247.253 67.9612 247.61V248.783C67.9612 249.14 67.7572 249.344 67.4002 249.344H65.2412V249.956C65.2412 251.588 66.1932 252.523 67.5192 252.523C67.8762 252.523 68.0462 252.693 68.0462 253.016V254.291C68.0462 254.631 67.8762 254.818 67.5192 254.818C65.9042 254.818 64.4932 254.053 64.0342 252.625C63.5582 254.053 62.1472 254.818 60.4982 254.818C60.1242 254.818 59.9372 254.614 59.9372 254.291V253.016C59.9372 252.693 60.1242 252.523 60.4982 252.523C61.8242 252.523 62.7762 251.588 62.7762 249.956V249.344H60.5832C60.2262 249.344 60.0222 249.14 60.0222 248.783V247.61C60.0222 247.253 60.2262 247.049 60.5832 247.049H67.4002ZM61.8412 256.348C63.5412 256.161 65.5982 256.042 68.9472 256.042C71.2762 256.042 72.3472 257.011 72.3472 259.051C72.3472 260.105 72.2962 261.04 72.2452 261.448C72.1942 261.805 72.0412 261.975 71.6842 261.975H70.3072C69.9502 261.975 69.7292 261.771 69.7802 261.414C69.8482 260.887 69.8822 260.139 69.8822 259.578C69.8822 258.711 69.5082 258.337 68.5732 258.337C65.8702 258.337 63.7452 258.507 61.8412 258.643C61.5012 258.66 61.3142 258.456 61.3142 258.116V256.875C61.3142 256.535 61.5012 256.382 61.8412 256.348ZM69.9332 251.554C69.7632 251.843 69.4232 252.013 68.9642 252.013H68.2332C67.8932 252.013 67.7062 251.826 67.7062 251.486V250.245C67.7062 249.905 67.8932 249.718 68.2332 249.718H69.0322C69.6102 249.718 69.9332 249.412 69.9332 248.868V247.219C69.9332 246.862 70.1372 246.658 70.4942 246.658H71.8372C72.1942 246.658 72.3982 246.862 72.3982 247.219V254.359C72.3982 254.716 72.1942 254.92 71.8372 254.92H70.4942C70.1372 254.92 69.9332 254.716 69.9332 254.359V251.554ZM75.6046 258.847C75.6046 256.62 77.5086 255.532 81.4186 255.532C85.3116 255.532 87.2156 256.62 87.2156 258.847C87.2156 261.074 85.3116 262.162 81.4186 262.162C77.5086 262.162 75.6046 261.074 75.6046 258.847ZM81.8436 247.049C82.2006 247.049 82.4046 247.253 82.4046 247.61V248.783C82.4046 249.14 82.2006 249.344 81.8436 249.344H79.6846V249.616C79.6846 251.248 80.6366 252.183 81.9626 252.183C82.3196 252.183 82.4896 252.353 82.4896 252.676V253.951C82.4896 254.291 82.3196 254.478 81.9626 254.478C80.3476 254.478 78.9366 253.713 78.4776 252.285C78.0016 253.713 76.5906 254.478 74.9416 254.478C74.5676 254.478 74.3806 254.274 74.3806 253.951V252.676C74.3806 252.353 74.5676 252.183 74.9416 252.183C76.2676 252.183 77.2196 251.248 77.2196 249.616V249.344H75.0266C74.6696 249.344 74.4656 249.14 74.4656 248.783V247.61C74.4656 247.253 74.6696 247.049 75.0266 247.049H81.8436ZM84.3766 251.384C84.2066 251.673 83.8666 251.843 83.4076 251.843H82.6766C82.3366 251.843 82.1496 251.656 82.1496 251.316V250.075C82.1496 249.735 82.3366 249.548 82.6766 249.548H83.4756C84.0536 249.548 84.3766 249.242 84.3766 248.698V247.219C84.3766 246.862 84.5806 246.658 84.9376 246.658H86.2806C86.6376 246.658 86.8416 246.862 86.8416 247.219V254.359C86.8416 254.716 86.6376 254.92 86.2806 254.92H84.9376C84.5806 254.92 84.3766 254.716 84.3766 254.359V251.384ZM81.4186 259.952C83.9346 259.952 84.7506 259.663 84.7506 258.847C84.7506 258.031 83.9346 257.742 81.4186 257.742C78.8856 257.742 78.0526 258.031 78.0526 258.847C78.0526 259.663 78.8856 259.952 81.4186 259.952ZM98.2466 246.777V247.695C98.2466 247.916 98.3996 248.069 98.7056 248.069H100.1C100.457 248.069 100.661 248.273 100.661 248.63V249.803C100.661 250.16 100.457 250.364 100.1 250.364H98.3316V254.41C98.3316 256.076 99.0626 257.113 100.219 257.283C100.576 257.334 100.746 257.504 100.746 257.827V259.102C100.746 259.442 100.576 259.612 100.219 259.578C98.7226 259.408 97.5496 258.473 97.1926 257.079C96.8016 258.473 95.5606 259.408 93.9796 259.578C93.6226 259.612 93.4186 259.442 93.4186 259.102V257.827C93.4186 257.504 93.6056 257.334 93.9796 257.283C95.2036 257.113 96.0196 256.008 96.0196 254.41V250.364H94.0646C93.7076 250.364 93.5036 250.16 93.5036 249.803V248.63C93.5036 248.273 93.7076 248.069 94.0646 248.069H96.1896C96.0196 247.967 95.9346 247.814 95.9346 247.576V246.777C95.9346 246.42 96.1046 246.25 96.4616 246.25H97.7196C98.0766 246.25 98.2466 246.42 98.2466 246.777ZM102.004 254.665C101.885 254.818 101.681 254.92 101.443 254.92H100.304C99.9636 254.92 99.7766 254.733 99.7766 254.393V253.067C99.7766 252.727 99.9636 252.54 100.304 252.54H101.477C101.817 252.54 102.004 252.37 102.004 252.047V247.355C102.004 246.998 102.174 246.828 102.531 246.828H103.772C104.129 246.828 104.299 246.998 104.299 247.355V261.363C104.299 261.72 104.129 261.89 103.772 261.89H102.531C102.174 261.89 102.004 261.72 102.004 261.363V254.665ZM105.234 247.185C105.234 246.828 105.404 246.658 105.761 246.658H107.002C107.359 246.658 107.529 246.828 107.529 247.185V261.363C107.529 261.72 107.359 261.89 107.002 261.89H105.761C105.404 261.89 105.234 261.72 105.234 261.363V247.185ZM118.367 255.43C117.874 255.43 117.67 255.668 117.67 256.059V256.263C121.002 256.416 122.379 257.3 122.379 259.204C122.379 261.312 120.696 262.162 116.565 262.162C112.434 262.162 110.751 261.312 110.751 259.204C110.751 257.351 112.06 256.467 115.205 256.28V256.144C115.205 255.804 115.375 255.549 115.647 255.43C113.522 255.43 111.686 255.396 110.326 255.294C109.935 255.26 109.765 255.073 109.765 254.75V253.747C109.765 253.39 109.969 253.203 110.326 253.237C111.788 253.356 114.032 253.373 116.412 253.373C119.064 253.373 121.478 253.339 122.532 253.237C122.889 253.203 123.11 253.39 123.11 253.747V254.75C123.11 255.056 122.94 255.26 122.549 255.294C121.716 255.379 119.846 255.43 118.367 255.43ZM111.805 247.032H121.206C121.563 247.032 121.75 247.219 121.75 247.576V248.613C121.75 248.97 121.563 249.157 121.206 249.157H117.891C118.265 249.956 119.489 250.5 121.444 250.5C121.818 250.5 122.005 250.67 122.005 250.993V252.098C122.005 252.421 121.818 252.608 121.444 252.625C119.217 252.727 117.228 251.758 116.514 250.432C115.783 251.758 113.794 252.727 111.567 252.625C111.193 252.608 111.006 252.421 111.006 252.098V250.993C111.006 250.67 111.193 250.5 111.567 250.5C113.522 250.5 114.763 249.956 115.154 249.157H111.805C111.448 249.157 111.261 248.97 111.261 248.613V247.576C111.261 247.219 111.448 247.032 111.805 247.032ZM113.216 259.204C113.216 259.935 113.879 260.122 116.565 260.122C119.251 260.122 119.914 259.935 119.914 259.204C119.914 258.473 119.251 258.286 116.565 258.286C113.879 258.286 113.216 258.473 113.216 259.204ZM124.855 260.615C124.464 260.564 124.294 260.394 124.294 260.071V258.813C124.294 258.456 124.498 258.252 124.855 258.303C125.722 258.422 126.283 258.524 127.252 258.558C126.963 258.422 126.81 258.082 126.81 257.674V254.24C126.81 253.883 127.014 253.679 127.371 253.679H128.731C129.088 253.679 129.275 253.883 129.275 254.24V257.81C129.275 258.269 129.513 258.524 130.006 258.524C130.822 258.524 132.063 258.456 132.896 258.303C133.253 258.235 133.474 258.456 133.474 258.813V260.071C133.474 260.377 133.304 260.53 132.913 260.615C132.199 260.768 130.465 260.87 128.833 260.87C126.963 260.87 125.994 260.785 124.855 260.615ZM132.556 255.617C132.505 255.957 132.284 256.076 131.944 256.025L130.618 255.821C130.244 255.77 130.125 255.583 130.193 255.243C130.414 254.121 130.55 252.659 130.55 251.401C130.55 250.347 129.921 249.701 128.901 249.701C128.068 249.701 126.912 249.837 125.739 249.99C125.416 250.024 125.195 249.82 125.195 249.514V248.171C125.195 247.882 125.416 247.712 125.739 247.661C126.623 247.525 128.119 247.372 129.632 247.372C131.825 247.372 132.998 248.562 132.998 250.772C132.998 252.234 132.811 253.934 132.556 255.617ZM136.721 261.329C136.721 261.686 136.517 261.89 136.16 261.89H134.817C134.46 261.89 134.256 261.686 134.256 261.329V247.219C134.256 246.862 134.46 246.658 134.817 246.658H136.16C136.517 246.658 136.721 246.862 136.721 247.219V252.914C136.908 252.625 137.299 252.438 137.775 252.438H138.319C138.659 252.438 138.846 252.625 138.846 252.965V254.291C138.846 254.631 138.659 254.818 138.319 254.818H137.707C137.129 254.818 136.721 255.209 136.721 255.753V261.329ZM147.175 255.447C147.175 256.654 147.668 257.317 148.535 257.317C149.402 257.317 149.895 256.654 149.895 255.447C149.895 254.24 149.402 253.577 148.535 253.577C147.668 253.577 147.175 254.24 147.175 255.447ZM148.535 251.316C150.932 251.316 152.326 252.846 152.326 255.447C152.326 258.048 150.932 259.578 148.535 259.578C146.138 259.578 144.744 258.048 144.744 255.447C144.744 252.846 146.138 251.316 148.535 251.316ZM154.485 247.219C154.485 246.862 154.689 246.658 155.046 246.658H156.389C156.746 246.658 156.95 246.862 156.95 247.219V261.329C156.95 261.686 156.746 261.89 156.389 261.89H155.046C154.689 261.89 154.485 261.686 154.485 261.329V254.274C154.298 254.58 153.924 254.75 153.465 254.75H153.21C152.87 254.75 152.683 254.563 152.683 254.223V252.897C152.683 252.557 152.87 252.37 153.21 252.37H153.533C154.111 252.37 154.485 252.013 154.485 251.469V247.219ZM149.793 247.695C149.793 247.916 149.946 248.069 150.252 248.069H152.292C152.649 248.069 152.853 248.273 152.853 248.63V249.803C152.853 250.16 152.649 250.364 152.292 250.364H144.795C144.438 250.364 144.234 250.16 144.234 249.803V248.63C144.234 248.273 144.438 248.069 144.795 248.069H147.583C147.413 247.967 147.328 247.814 147.328 247.576V246.777C147.328 246.42 147.498 246.25 147.855 246.25H149.266C149.623 246.25 149.793 246.42 149.793 246.777V247.695ZM163.879 247.729C165.919 247.729 167.007 248.63 167.007 250.296C167.007 251.282 166.633 252.081 165.953 252.608H166.378C166.718 252.608 166.871 252.761 166.871 253.101V254.24C166.871 254.58 166.718 254.733 166.378 254.733C165.477 254.733 164.78 254.716 164.151 254.716C162.213 254.716 161.618 255.039 161.618 256.093C161.618 257.062 162.196 257.453 163.658 257.453C164.542 257.453 165.613 257.249 166.565 256.875C166.633 256.841 166.701 256.824 166.769 256.824C166.956 256.824 167.075 256.977 167.16 257.266L167.5 258.456C167.602 258.796 167.466 258.983 167.075 259.119C165.868 259.544 164.525 259.748 163.267 259.748C160.564 259.748 159.153 258.49 159.153 256.093C159.153 253.696 160.547 252.421 163.199 252.421C164.134 252.421 164.542 252.064 164.542 251.248C164.542 250.398 164.117 250.041 163.097 250.041C162.196 250.041 161.363 250.109 160.19 250.279C159.85 250.33 159.663 250.177 159.663 249.837V248.477C159.663 248.154 159.799 248.001 160.156 247.95C161.312 247.78 162.213 247.729 163.879 247.729ZM168.928 247.219C168.928 246.862 169.132 246.658 169.489 246.658H170.832C171.189 246.658 171.393 246.862 171.393 247.219V261.329C171.393 261.686 171.189 261.89 170.832 261.89H169.489C169.132 261.89 168.928 261.686 168.928 261.329V247.219ZM180.227 259.493C177.728 259.493 177.286 259.595 177.286 259.952C177.286 260.326 177.813 260.36 181.162 260.36C182.556 260.36 184.681 260.258 185.803 260.054C186.075 260.003 186.262 260.139 186.279 260.411L186.364 261.397C186.381 261.635 186.228 261.805 185.973 261.839C184.749 262.009 182.573 262.145 181.179 262.145C176.266 262.145 174.821 261.72 174.821 259.918C174.821 258.133 176.487 257.708 180.193 257.708C181.128 257.708 182.199 257.691 182.947 257.691C183.389 257.691 183.576 257.589 183.576 257.351C183.576 257.096 183.406 256.994 182.981 256.994C181.366 256.994 177.609 257.113 175.603 257.283C175.331 257.3 175.161 257.147 175.161 256.875V255.889C175.161 255.634 175.297 255.498 175.603 255.481C176.657 255.413 177.864 255.345 179.105 255.294V255.073C179.105 254.852 179.207 254.665 179.411 254.563C177.405 254.58 175.569 254.546 174.192 254.444C173.801 254.41 173.665 254.257 173.665 253.934V253.033C173.665 252.676 173.835 252.523 174.192 252.557C175.654 252.676 177.932 252.693 180.312 252.693C182.964 252.693 185.412 252.659 186.466 252.557C186.823 252.523 187.01 252.676 187.01 253.033V253.934C187.01 254.24 186.874 254.41 186.483 254.444C185.65 254.529 183.661 254.58 182.097 254.58C181.723 254.58 181.57 254.733 181.57 255.022V255.243C182.539 255.243 183.474 255.243 184.324 255.277C185.412 255.311 186.024 255.702 186.024 256.518C186.024 257.181 185.65 257.657 185.038 257.861H185.446C185.701 257.861 185.888 258.014 185.888 258.252V259.136C185.888 259.374 185.718 259.544 185.446 259.544C184.205 259.544 183.338 259.493 180.227 259.493ZM184.97 247.219C185.344 247.253 185.463 247.389 185.463 247.729V248.664C185.463 249.004 185.293 249.157 184.97 249.14C183.389 249.055 181.893 248.953 180.516 248.953C177.915 248.953 177.201 249.021 177.201 249.616C177.201 250.211 177.745 250.279 180.074 250.279C181.196 250.279 183.202 250.177 185.106 249.973C185.429 249.939 185.565 250.058 185.599 250.449L185.684 251.384C185.718 251.707 185.582 251.86 185.191 251.894C183.525 252.047 181.672 252.2 180.329 252.2C176.215 252.2 174.736 251.622 174.736 249.616C174.736 247.61 176.3 247.032 180.567 247.032C181.808 247.032 183.117 247.049 184.97 247.219ZM191.832 247.729C194.042 247.729 195.215 248.579 195.215 250.296C195.215 251.282 194.909 252.081 194.297 252.608H194.501C194.841 252.608 194.994 252.761 194.994 253.101V254.24C194.994 254.58 194.841 254.733 194.501 254.733C193.6 254.733 193.158 254.716 192.699 254.716C191.203 254.716 190.676 255.073 190.676 256.093C190.676 256.977 191.305 257.453 192.461 257.453C193.073 257.453 193.906 257.283 194.739 256.96C194.807 256.926 194.875 256.909 194.943 256.909C195.13 256.909 195.249 257.062 195.334 257.351L195.674 258.541C195.776 258.881 195.64 259.051 195.249 259.204C194.297 259.578 193.226 259.748 192.291 259.748C189.809 259.748 188.381 258.456 188.381 256.093C188.381 253.696 189.52 252.421 191.662 252.421C192.478 252.421 192.92 252.047 192.92 251.248C192.92 250.415 192.427 250.024 191.56 250.024C191.016 250.024 190.455 250.126 189.418 250.279C189.078 250.33 188.891 250.177 188.891 249.837V248.477C188.891 248.154 189.027 248.018 189.384 247.95C190.149 247.797 191.033 247.729 191.832 247.729ZM196.915 254.495C196.796 254.648 196.592 254.75 196.354 254.75H195.895C195.555 254.75 195.402 254.597 195.402 254.257V252.863C195.402 252.523 195.555 252.37 195.895 252.37H196.388C196.728 252.37 196.915 252.2 196.915 251.877V247.355C196.915 246.998 197.085 246.828 197.442 246.828H198.683C199.04 246.828 199.21 246.998 199.21 247.355V261.363C199.21 261.72 199.04 261.89 198.683 261.89H197.442C197.085 261.89 196.915 261.72 196.915 261.363V254.495ZM200.145 247.185C200.145 246.828 200.315 246.658 200.672 246.658H201.913C202.27 246.658 202.44 246.828 202.44 247.185V261.363C202.44 261.72 202.27 261.89 201.913 261.89H200.672C200.315 261.89 200.145 261.72 200.145 261.363V247.185ZM216.241 249.174C213.997 249.174 213.147 249.599 213.147 250.704C213.147 251.809 213.997 252.217 216.241 252.217C218.485 252.217 219.335 251.809 219.335 250.704C219.335 249.599 218.485 249.174 216.241 249.174ZM220.236 258.575V260.734C220.236 261.091 220.049 261.295 219.692 261.295H218.332C217.975 261.295 217.771 261.091 217.771 260.734V258.881C217.771 258.473 217.975 258.133 218.281 257.997C217.21 258.014 215.527 258.014 215.017 258.014C214.524 258.014 214.286 258.269 214.286 258.728V260.734C214.286 261.091 214.099 261.295 213.742 261.295H212.382C212.025 261.295 211.821 261.091 211.821 260.734V258.864C211.821 258.456 212.025 258.099 212.331 257.946C211.43 257.912 210.665 257.827 210.002 257.725C209.611 257.674 209.441 257.504 209.441 257.181V255.923C209.441 255.566 209.645 255.362 210.002 255.413C211.464 255.6 213.708 255.702 216.088 255.702C218.74 255.702 221.154 255.583 222.208 255.413C222.565 255.345 222.786 255.566 222.786 255.923V257.181C222.786 257.487 222.616 257.674 222.225 257.725C221.851 257.776 221.409 257.827 220.967 257.861C220.508 257.895 220.236 258.082 220.236 258.575ZM221.8 250.687C221.8 253.271 219.998 254.512 216.241 254.512C212.484 254.512 210.682 253.271 210.682 250.687C210.682 248.103 212.484 246.879 216.241 246.879C219.998 246.879 221.8 248.103 221.8 250.687ZM231.909 247.729C232.266 247.729 232.47 247.933 232.47 248.29V249.463C232.47 249.82 232.266 250.024 231.909 250.024H229.665V253.934C229.665 255.685 230.702 257.096 232.028 257.283C232.385 257.334 232.555 257.504 232.555 257.827V259.102C232.555 259.442 232.385 259.629 232.028 259.578C230.328 259.34 228.9 258.286 228.458 256.807C227.999 258.286 226.554 259.34 224.837 259.578C224.48 259.629 224.276 259.442 224.276 259.102V257.827C224.276 257.504 224.463 257.334 224.837 257.283C226.163 257.096 227.2 255.685 227.2 253.934V250.024H224.922C224.565 250.024 224.361 249.82 224.361 249.463V248.29C224.361 247.933 224.565 247.729 224.922 247.729H231.909ZM234.272 247.219C234.272 246.862 234.476 246.658 234.833 246.658H236.176C236.533 246.658 236.737 246.862 236.737 247.219V261.329C236.737 261.686 236.533 261.89 236.176 261.89H234.833C234.476 261.89 234.272 261.686 234.272 261.329V247.219ZM242.85 257.317C243.768 257.317 244.295 256.637 244.295 255.447C244.295 254.257 243.768 253.577 242.85 253.577C241.932 253.577 241.405 254.257 241.405 255.447C241.405 256.637 241.932 257.317 242.85 257.317ZM242.85 251.316C245.298 251.316 246.726 252.846 246.726 255.447C246.726 258.048 245.298 259.578 242.85 259.578C240.402 259.578 238.974 258.048 238.974 255.447C238.974 252.846 240.402 251.316 242.85 251.316ZM250.84 261.329C250.84 261.686 250.636 261.89 250.279 261.89H248.936C248.579 261.89 248.375 261.686 248.375 261.329V247.219C248.375 246.862 248.579 246.658 248.936 246.658H250.279C250.636 246.658 250.84 246.862 250.84 247.219V252.914C251.027 252.625 251.418 252.438 251.894 252.438H252.438C252.778 252.438 252.965 252.625 252.965 252.965V254.291C252.965 254.631 252.778 254.818 252.438 254.818H251.826C251.248 254.818 250.84 255.209 250.84 255.753V261.329ZM244.108 247.695C244.108 247.916 244.261 248.069 244.567 248.069H246.692C247.049 248.069 247.253 248.273 247.253 248.63V249.803C247.253 250.16 247.049 250.364 246.692 250.364H239.025C238.668 250.364 238.464 250.16 238.464 249.803V248.63C238.464 248.273 238.668 248.069 239.025 248.069H241.898C241.728 247.967 241.643 247.814 241.643 247.576V246.777C241.643 246.42 241.813 246.25 242.17 246.25H243.581C243.938 246.25 244.108 246.42 244.108 246.777V247.695ZM258.824 259.017C259.249 256.229 259.436 254.07 259.436 251.758C259.436 250.483 259.096 250.024 258.127 250.024C256.631 250.024 255.747 250.211 254.625 250.33C254.302 250.364 254.098 250.16 254.098 249.803V248.562C254.098 248.239 254.251 248.086 254.625 248.035C256.342 247.797 257.294 247.729 258.501 247.729C260.915 247.729 261.918 248.817 261.918 251.469C261.918 254.189 261.748 256.535 261.289 259.085C261.221 259.459 261.068 259.578 260.711 259.578H259.351C258.977 259.578 258.773 259.357 258.824 259.017ZM263.839 247.219C263.839 246.862 264.043 246.658 264.4 246.658H265.743C266.1 246.658 266.304 246.862 266.304 247.219V261.329C266.304 261.686 266.1 261.89 265.743 261.89H264.4C264.043 261.89 263.839 261.686 263.839 261.329V247.219Z" fill="#13183A"/>
<path d="M18.4695 24.55C18.5695 22.75 19.8695 21.7 21.9195 21.7H41.8695C42.8695 21.7 43.4195 22.25 43.4195 23.25V27.15C43.4195 28.15 42.8695 28.7 41.8695 28.7H25.3695L24.6695 37.85C26.6695 36 29.8695 34.9 33.4195 34.9C41.5195 34.9 46.4695 39.85 46.4695 47.9C46.4695 56.65 41.1195 61.5 31.4695 61.5C21.9695 61.5 16.5195 57.7 16.5195 51.1C16.5195 50.1 17.1695 49.5 18.2695 49.5H22.0195C23.0695 49.5 23.5195 49.9 23.7695 50.95C24.4195 53.6 26.5195 54.6 31.4695 54.6C36.7195 54.6 39.2195 52.5 39.2195 48.1C39.2195 44.2 36.3695 41.75 31.9195 41.75C28.8695 41.75 26.4195 42.5 24.7195 43.9C24.1195 44.4 23.7195 44.55 22.9195 44.55H18.6695C17.6695 44.55 17.1195 44.1 17.1695 43.25L18.4695 24.55Z" fill="#6A9BEA"/>
<path d="M163.393 186.061L96.6464 200.217C90.9962 201.421 85.4352 197.808 84.2457 192.158L72.2316 135.552C71.0272 129.901 74.6403 124.34 80.2905 123.151L147.037 108.996C152.687 107.791 158.248 111.404 159.438 117.055L171.452 173.661C172.656 179.311 169.058 184.857 163.393 186.061Z" fill="#EDC769"/>
<path d="M96.0519 197.391C91.9629 198.254 87.9334 195.637 87.071 191.548L75.0569 134.942C74.1945 130.853 76.8115 126.823 80.9004 125.961L147.647 111.806C151.736 110.943 155.766 113.56 156.628 117.649L168.642 174.255C169.504 178.344 166.888 182.374 162.799 183.236L96.0519 197.391Z" fill="white"/>
<path d="M128.02 129.069L105.836 133.782C104.423 134.08 103.026 133.173 102.728 131.76L101.613 126.497C101.316 125.084 102.223 123.686 103.635 123.389L125.82 118.676C127.232 118.378 128.63 119.285 128.927 120.698L130.043 125.961C130.34 127.374 129.448 128.772 128.02 129.069Z" fill="#D3E5EA"/>
<path d="M105.403 131.73C105.121 131.79 104.838 131.611 104.779 131.329L103.664 126.065C103.604 125.783 103.783 125.5 104.065 125.441L126.25 120.727C126.532 120.668 126.815 120.846 126.874 121.129L127.989 126.392C128.049 126.675 127.87 126.957 127.588 127.017L105.403 131.73Z" fill="white"/>
<path d="M115.961 126.853L114.43 123.225L115.887 122.928L115.961 126.853Z" fill="#B73B3B"/>
<path d="M115.098 144.279C114.37 140.83 111.649 138.48 109.017 139.045C107.084 139.462 105.746 141.335 105.478 143.67C104.645 142.971 103.649 142.644 102.668 142.852C101.285 143.149 100.318 144.413 100.021 146.034C99.4561 145.692 98.8167 145.558 98.1922 145.692C96.9283 145.959 96.0808 147.253 95.9767 148.814C95.5158 148.606 94.9954 148.532 94.475 148.651C93.0922 148.948 92.2298 150.39 92.5569 151.877C92.5866 151.996 92.6312 152.115 92.6758 152.234C92.4379 152.219 92.2 152.219 91.9621 152.264C90.5793 152.561 89.702 153.929 90.0143 155.342C90.2819 156.576 91.3525 157.423 92.542 157.408C92.542 157.869 92.5866 158.33 92.6758 158.806L96.7945 178.24C98.0286 184.039 103.471 188.172 109.344 187.325C115.767 186.388 119.975 180.247 118.652 173.987L113.641 150.39C114.979 149.037 115.619 146.718 115.098 144.279Z" fill="#D3E5EA"/>
<path d="M122.756 142.644C122.027 139.195 123.559 135.953 126.175 135.388C128.108 134.972 130.086 136.146 131.29 138.183C131.766 137.202 132.554 136.503 133.536 136.295C134.918 135.998 136.316 136.771 137.253 138.124C137.639 137.589 138.16 137.202 138.784 137.068C140.048 136.801 141.357 137.633 142.07 139.031C142.412 138.659 142.858 138.377 143.379 138.273C144.762 137.975 146.13 138.957 146.442 140.444C146.472 140.562 146.472 140.696 146.486 140.815C146.695 140.711 146.903 140.607 147.156 140.562C148.538 140.265 149.891 141.172 150.189 142.585C150.456 143.819 149.802 145.023 148.717 145.499C148.91 145.915 149.059 146.361 149.163 146.822L153.282 166.256C154.516 172.055 151.215 178.047 145.505 179.653C139.245 181.407 132.911 177.512 131.588 171.252L126.577 147.655C124.793 146.956 123.276 145.098 122.756 142.644Z" fill="#D3E5EA"/>
<path d="M207.941 66.1138V73.9794C205.503 73.8754 203.005 73.8308 200.477 73.8308C176.597 73.8308 155.989 78.1279 146.399 84.3282C145.938 84.6256 145.492 84.9379 145.09 85.2352C143.797 86.2166 142.785 87.2128 142.042 88.2536C141.135 89.5175 140.659 90.826 140.659 92.179V84.3282C140.659 81.8748 142.235 79.5256 145.075 77.3844C153.982 70.6934 175.423 65.9651 200.447 65.9651C203.005 65.98 205.503 66.0246 207.941 66.1138Z" fill="white"/>
<path d="M145.104 77.3848V85.2207C143.81 86.2021 142.799 87.1983 142.056 88.2391C141.149 89.503 140.673 90.8114 140.673 92.1645V84.3137C140.688 81.8603 142.249 79.5259 145.104 77.3848Z" fill="#E8EEEF"/>
<path d="M250.406 41.0002H150.531L151.587 44.5837C157.639 65.1772 158.843 86.633 155.126 107.643L150.531 133.589H250.406L245.811 107.643C242.094 86.633 243.299 65.1772 249.35 44.5837L250.406 41.0002Z" fill="#FDA694"/>
<path d="M200.476 99.1972C201.65 99.1972 202.602 97.3332 202.602 95.0339C202.602 92.7346 201.65 90.8706 200.476 90.8706C199.302 90.8706 198.35 92.7346 198.35 95.0339C198.35 97.3332 199.302 99.1972 200.476 99.1972Z" fill="#F59585"/>
<path d="M253.648 189.853L250.407 216.29H149.803L146.562 189.853C144.257 171.059 145.358 151.997 149.803 133.589H250.407C254.852 151.997 255.953 171.059 253.648 189.853Z" fill="#A1C4CE"/>
<path d="M248.816 119.493H151.409L149.818 133.589H250.407L248.816 119.493Z" fill="#A1C4CE"/>
<path d="M149.818 133.589H250.407" stroke="#91B4BC" stroke-width="0.957411" stroke-miterlimit="10"/>
<path d="M200.119 130.05C202.057 130.05 203.628 128.479 203.628 126.541C203.628 124.603 202.057 123.032 200.119 123.032C198.181 123.032 196.61 124.603 196.61 126.541C196.61 128.479 198.181 130.05 200.119 130.05Z" fill="#D3E5EA"/>
<path d="M203.614 162.717C199.748 162.717 196.61 159.58 196.61 155.714V133.589H203.614V162.717Z" stroke="#91B4BC" stroke-width="0.957411" stroke-miterlimit="10"/>
<path d="M204.863 216.29H196.091L198.232 170.063C198.381 167.208 202.603 167.208 202.737 170.063L204.863 216.29Z" fill="#91B4BC"/>
<path d="M200.476 102.661V102.691C176.596 102.691 155.988 98.3939 146.412 92.1936C144.494 90.9594 143.037 89.6361 142.07 88.2682C141.163 87.0043 140.688 85.6958 140.688 84.3428V92.1936C140.688 102.334 167.452 110.542 200.49 110.542V110.512C216.638 110.512 230.585 114.809 237.068 121.01C238.362 122.244 239.358 123.567 240.012 124.935C240.518 125.976 240.815 127.046 240.919 128.147V121.723C240.934 121.485 240.949 121.247 240.949 121.01C240.919 110.869 222.809 102.661 200.476 102.661Z" fill="white"/>
<path d="M150.621 94.4688V98.9592" stroke="#E8EEEF" stroke-width="0.957411" stroke-miterlimit="10"/>
<path d="M155.959 96.5205V101.026" stroke="#E8EEEF" stroke-width="0.957411" stroke-miterlimit="10"/>
<path d="M161.297 98.5874V103.093" stroke="#E8EEEF" stroke-width="0.957411" stroke-miterlimit="10"/>
<path d="M166.648 99.5989V104.104" stroke="#E8EEEF" stroke-width="0.957411" stroke-miterlimit="10"/>
<path d="M171.988 100.476V104.981" stroke="#E8EEEF" stroke-width="0.957411" stroke-miterlimit="10"/>
<path d="M177.325 101.026V105.531" stroke="#E8EEEF" stroke-width="0.957411" stroke-miterlimit="10"/>
<path d="M182.678 101.844V106.349" stroke="#E8EEEF" stroke-width="0.957411" stroke-miterlimit="10"/>
<path d="M188.016 102.186V106.691" stroke="#E8EEEF" stroke-width="0.957411" stroke-miterlimit="10"/>
<path d="M193.355 102.438V106.944" stroke="#E8EEEF" stroke-width="0.957411" stroke-miterlimit="10"/>
<path d="M198.707 102.721V107.227" stroke="#E8EEEF" stroke-width="0.957411" stroke-miterlimit="10"/>
<path d="M204.045 102.721V107.227" stroke="#E8EEEF" stroke-width="0.957411" stroke-miterlimit="10"/>
<path d="M209.382 103.152V107.642" stroke="#E8EEEF" stroke-width="0.957411" stroke-miterlimit="10"/>
<path d="M214.736 103.807V108.297" stroke="#E8EEEF" stroke-width="0.957411" stroke-miterlimit="10"/>
<path d="M220.074 104.981V109.471" stroke="#E8EEEF" stroke-width="0.957411" stroke-miterlimit="10"/>
<path d="M225.412 106.498V111.003" stroke="#E8EEEF" stroke-width="0.957411" stroke-miterlimit="10"/>
<path d="M230.764 108.743V113.248" stroke="#E8EEEF" stroke-width="0.957411" stroke-miterlimit="10"/>
</svg>
