<svg width="326" height="326" viewBox="0 0 326 326" fill="none" xmlns="http://www.w3.org/2000/svg">
<rect width="326" height="326" fill="#FFF2D8"/>
<path d="M66.5969 259.765C67.2429 259.765 67.7529 259.306 67.7529 258.694C67.7529 258.15 67.4809 257.912 66.8519 257.912H61.9729C61.6329 257.912 61.4799 258.065 61.4799 258.405V259.136C61.4799 259.544 61.7519 259.765 62.2449 259.765H66.5969ZM68.8749 259.85H69.9289C70.2859 259.85 70.4559 260.037 70.4559 260.377V261.448C70.4559 261.805 70.2859 261.975 69.9289 261.975H61.2249C59.7969 261.975 59.0149 261.295 59.0149 260.071V256.688C59.0149 256.042 59.3379 255.702 59.9839 255.702H67.8719C69.3169 255.702 70.2179 256.484 70.2179 257.742C70.2179 258.728 69.7419 259.476 68.8749 259.85ZM61.8199 252.064C61.3439 253.407 59.8989 254.478 58.1989 254.478C57.8249 254.478 57.6379 254.274 57.6379 253.951V252.676C57.6379 252.353 57.8249 252.183 58.1989 252.183C59.5759 252.183 60.5619 250.908 60.5619 249.361V247.661C60.5619 247.27 60.7659 247.049 61.1229 247.049H62.4829C62.8229 247.049 63.0269 247.27 63.0269 247.661V249.361C63.0269 250.908 64.0129 252.183 65.3899 252.183C65.7469 252.183 65.9169 252.353 65.9169 252.676V253.951C65.9169 254.291 65.7469 254.478 65.3899 254.478C63.7239 254.478 62.2789 253.39 61.8199 252.064ZM67.6339 247.219C67.6339 246.862 67.8379 246.658 68.1949 246.658H69.5379C69.8949 246.658 70.0989 246.862 70.0989 247.219V254.019C70.0989 254.376 69.8949 254.58 69.5379 254.58H68.1949C67.8379 254.58 67.6339 254.376 67.6339 254.019V247.219ZM76.1272 252.693C77.0792 252.693 77.4872 252.54 77.4872 252.132C77.4872 251.724 77.0792 251.571 76.1272 251.571C75.1752 251.571 74.7672 251.724 74.7672 252.132C74.7672 252.54 75.1752 252.693 76.1272 252.693ZM78.8642 259.476C76.3652 259.476 75.9232 259.544 75.9232 259.901C75.9232 260.275 76.4502 260.309 79.7992 260.309C81.4652 260.309 83.4882 260.173 84.4402 260.003C84.7122 259.952 84.8992 260.088 84.9162 260.36L85.0012 261.397C85.0182 261.635 84.8652 261.805 84.6102 261.839C83.4032 261.992 81.2272 262.145 79.8162 262.145C74.8692 262.145 73.4582 261.652 73.4582 259.867C73.4582 258.201 74.8522 257.64 78.8302 257.64C79.7652 257.64 80.8362 257.623 81.5842 257.623C82.0432 257.623 82.2132 257.538 82.2132 257.3C82.2132 257.045 82.0602 256.96 81.6182 256.96C79.5782 256.96 76.0082 257.13 74.2402 257.249C73.9682 257.266 73.7982 257.113 73.7982 256.841V255.804C73.7982 255.549 73.9342 255.413 74.2402 255.396C77.0112 255.243 80.4962 255.124 82.9612 255.192C84.1002 255.226 84.6612 255.634 84.6612 256.416C84.6612 257.079 84.2872 257.589 83.6922 257.793H84.0832C84.3382 257.793 84.5252 257.946 84.5252 258.184V259.119C84.5252 259.357 84.3552 259.527 84.0832 259.527C82.8422 259.527 81.8902 259.476 78.8642 259.476ZM72.3362 252.132C72.3362 250.551 73.5602 249.803 76.1272 249.803C78.6942 249.803 79.9182 250.551 79.9182 252.132C79.9182 253.713 78.6942 254.461 76.1272 254.461C73.5602 254.461 72.3362 253.713 72.3362 252.132ZM79.8842 247.219C80.2072 247.219 80.3602 247.372 80.3602 247.712V248.698C80.3602 249.038 80.2072 249.191 79.8842 249.191H72.3022C71.9792 249.191 71.8262 249.038 71.8262 248.698V247.712C71.8262 247.372 71.9792 247.219 72.3022 247.219H75.1752C75.0052 247.117 74.9202 246.964 74.9202 246.726V246.437C74.9202 246.08 75.0902 245.91 75.4472 245.91H76.8582C77.2152 245.91 77.3852 246.08 77.3852 246.437V246.845C77.3852 247.066 77.5382 247.219 77.8442 247.219H79.8842ZM82.0772 248.12V247.219C82.0772 246.862 82.2812 246.658 82.6382 246.658H83.9812C84.3382 246.658 84.5422 246.862 84.5422 247.219V253.849C84.5422 254.206 84.3382 254.41 83.9812 254.41H82.6382C82.2812 254.41 82.0772 254.206 82.0772 253.849V253.305C81.9412 253.526 81.6862 253.611 81.2952 253.611H81.0232C80.6832 253.611 80.5302 253.458 80.5302 253.118V252.081C80.5302 251.741 80.6832 251.588 81.0232 251.588H81.5332C81.9072 251.588 82.0772 251.418 82.0772 251.061V250.296C81.9242 250.517 81.6862 250.619 81.2952 250.619H81.0232C80.6832 250.619 80.5302 250.466 80.5302 250.126V249.089C80.5302 248.749 80.6832 248.596 81.0232 248.596H81.5332C81.9582 248.596 82.0772 248.494 82.0772 248.12ZM89.1086 254.206C88.8706 254.104 88.7346 253.866 88.7346 253.594V251.809C88.7346 251.452 88.9386 251.248 89.2956 251.248H90.6556C91.0126 251.248 91.1996 251.452 91.1996 251.809V253.645C91.1996 253.968 91.4036 254.172 91.8116 254.172C92.8316 254.172 94.1576 254.138 94.9906 254.087C95.3476 254.07 95.5686 254.24 95.5686 254.597V255.685C95.5686 255.991 95.3986 256.195 95.0076 256.229C94.2936 256.297 92.3896 256.348 90.7576 256.348C88.8876 256.348 87.7486 256.314 86.6096 256.229C86.2186 256.195 86.0486 256.008 86.0486 255.685V254.597C86.0486 254.24 86.2526 254.07 86.6096 254.087C87.3406 254.138 88.1056 254.189 89.1086 254.206ZM92.4746 250.636C92.4746 249.769 92.0326 249.361 90.9956 249.361C90.0776 249.361 88.8366 249.497 87.6636 249.65C87.3406 249.684 87.1196 249.48 87.1196 249.174V247.831C87.1196 247.542 87.3406 247.372 87.6636 247.321C88.5476 247.185 90.1286 247.032 91.7266 247.032C93.9536 247.032 94.9226 248.001 94.9226 250.007C94.9226 250.925 94.7866 251.911 94.5656 252.982C94.4976 253.322 94.3106 253.424 93.9706 253.373L92.6276 253.169C92.2536 253.118 92.1346 252.948 92.2196 252.608C92.3896 251.962 92.4746 251.163 92.4746 250.636ZM98.6456 257.079C98.6456 257.436 98.4416 257.64 98.0846 257.64H96.7416C96.3846 257.64 96.1806 257.436 96.1806 257.079V247.219C96.1806 246.862 96.3846 246.658 96.7416 246.658H98.0846C98.4416 246.658 98.6456 246.862 98.6456 247.219V251.044C98.8326 250.755 99.2236 250.568 99.6996 250.568H100.244C100.584 250.568 100.771 250.755 100.771 251.095V252.336C100.771 252.676 100.584 252.863 100.244 252.863H99.6316C99.0536 252.863 98.6456 253.254 98.6456 253.798V257.079ZM98.5946 261.839C96.4526 262.043 93.8686 262.145 91.1996 262.145C88.9726 262.145 87.7316 261.023 87.7316 259.017C87.7316 258.439 87.7826 258.014 87.8336 257.64C87.8846 257.249 88.0716 257.079 88.3946 257.079H89.7376C90.1286 257.079 90.3496 257.3 90.2986 257.64C90.2476 257.98 90.1966 258.405 90.1966 258.728C90.1966 259.476 90.6556 259.85 91.5056 259.85C94.0726 259.85 96.5716 259.714 98.3906 259.544C98.7476 259.51 99.0026 259.714 99.0196 260.071L99.1046 261.278C99.1216 261.601 98.9516 261.805 98.5946 261.839ZM118.415 259.391C117.174 259.391 116.307 259.34 113.196 259.34C110.697 259.34 110.255 259.442 110.255 259.799C110.255 260.173 110.782 260.241 114.131 260.241C115.525 260.241 117.65 260.139 118.772 259.935C119.044 259.884 119.231 260.02 119.248 260.292L119.333 261.397C119.35 261.635 119.197 261.805 118.942 261.839C117.718 262.009 115.542 262.145 114.148 262.145C109.235 262.145 107.79 261.567 107.79 259.765C107.79 257.98 109.456 257.436 113.162 257.436C114.097 257.436 115.168 257.419 115.916 257.419C116.358 257.419 116.545 257.3 116.545 257.062C116.545 256.807 116.375 256.688 115.95 256.688C114.335 256.688 110.578 256.807 108.572 256.977C108.3 256.994 108.13 256.841 108.13 256.569V255.464C108.13 255.209 108.266 255.073 108.572 255.056C111.139 254.869 114.658 254.767 117.293 254.852C118.381 254.886 118.993 255.362 118.993 256.178C118.993 256.841 118.619 257.368 118.007 257.589H118.415C118.67 257.589 118.857 257.742 118.857 257.98V258.983C118.857 259.221 118.687 259.391 118.415 259.391ZM114.046 247.049C114.403 247.049 114.607 247.253 114.607 247.61V248.698C114.607 249.055 114.403 249.259 114.046 249.259H111.802V249.378C111.802 250.857 112.737 251.758 114.165 251.758C114.522 251.758 114.692 251.928 114.692 252.251V253.441C114.692 253.781 114.522 253.968 114.165 253.968C112.465 253.968 111.054 253.203 110.595 251.724C110.119 253.203 108.708 253.968 106.974 253.968C106.6 253.968 106.413 253.764 106.413 253.441V252.251C106.413 251.928 106.6 251.758 106.974 251.758C108.402 251.758 109.337 250.857 109.337 249.378V249.259H107.059C106.702 249.259 106.498 249.055 106.498 248.698V247.61C106.498 247.253 106.702 247.049 107.059 247.049H114.046ZM116.409 247.219C116.409 246.862 116.613 246.658 116.97 246.658H118.313C118.67 246.658 118.874 246.862 118.874 247.219V253.509C118.874 253.866 118.67 254.07 118.313 254.07H116.97C116.613 254.07 116.409 253.866 116.409 253.509V247.219ZM121.282 251.911C121.282 250.381 122.404 249.735 125.158 249.735C127.912 249.735 129.034 250.381 129.034 251.911C129.034 253.203 128.218 253.866 126.297 254.036V254.495C126.297 254.818 126.399 254.937 126.722 254.937C127.606 254.937 128.524 254.903 129.357 254.852C129.714 254.835 129.901 254.971 129.901 255.328V256.229C129.901 256.535 129.765 256.705 129.374 256.739C128.66 256.807 126.722 256.858 125.09 256.858C123.22 256.858 122.047 256.824 120.908 256.739C120.517 256.705 120.381 256.569 120.381 256.246V255.311C120.381 254.954 120.551 254.835 120.908 254.852C121.69 254.903 122.914 254.954 124.121 254.988C123.934 254.886 123.832 254.699 123.832 254.444V254.019C122.03 253.832 121.282 253.169 121.282 251.911ZM132.978 257.419C132.978 257.776 132.774 257.98 132.417 257.98H131.074C130.717 257.98 130.513 257.776 130.513 257.419V247.219C130.513 246.862 130.717 246.658 131.074 246.658H132.417C132.774 246.658 132.978 246.862 132.978 247.219V251.248C133.233 250.925 133.879 250.738 134.372 250.738H134.576C134.916 250.738 135.103 250.925 135.103 251.265V252.506C135.103 252.846 134.916 253.033 134.576 253.033H133.964C133.386 253.033 132.978 253.424 132.978 253.968V257.419ZM132.927 261.839C131.057 262.026 128.541 262.145 125.532 262.145C123.305 262.145 122.064 261.193 122.064 259.187C122.064 258.694 122.115 258.337 122.166 258.082C122.234 257.725 122.421 257.589 122.778 257.589H124.155C124.529 257.589 124.665 257.793 124.631 258.116C124.597 258.388 124.529 258.813 124.529 259.017C124.529 259.765 124.937 260.02 125.787 260.02C128.15 260.02 130.785 259.884 132.757 259.714C133.097 259.68 133.318 259.816 133.352 260.156L133.437 261.278C133.471 261.618 133.267 261.805 132.927 261.839ZM129.119 247.168C129.408 247.168 129.561 247.321 129.561 247.61V248.63C129.561 248.919 129.408 249.072 129.119 249.072H121.214C120.925 249.072 120.772 248.919 120.772 248.63V247.61C120.772 247.321 120.925 247.168 121.214 247.168H124.206C124.036 247.066 123.951 246.913 123.951 246.675V246.386C123.951 246.063 124.104 245.91 124.461 245.91H125.906C126.263 245.91 126.416 246.063 126.416 246.386V246.794C126.416 247.015 126.569 247.168 126.875 247.168H129.119ZM123.713 251.911C123.713 252.234 124.019 252.353 125.158 252.353C126.297 252.353 126.603 252.234 126.603 251.911C126.603 251.588 126.297 251.469 125.158 251.469C124.019 251.469 123.713 251.588 123.713 251.911ZM147.834 246.862C151.727 246.862 153.393 247.746 153.393 249.82C153.393 251.894 151.727 252.778 147.834 252.778C143.941 252.778 142.275 251.894 142.275 249.82C142.275 247.746 143.941 246.862 147.834 246.862ZM144.74 249.82C144.74 250.5 145.505 250.738 147.834 250.738C150.163 250.738 150.928 250.5 150.928 249.82C150.928 249.123 150.197 248.902 147.834 248.902C145.471 248.902 144.74 249.123 144.74 249.82ZM142.02 259.204C142.02 257.096 143.703 256.246 147.834 256.246C151.965 256.246 153.648 257.096 153.648 259.204C153.648 261.312 151.965 262.162 147.834 262.162C143.703 262.162 142.02 261.312 142.02 259.204ZM144.485 259.204C144.485 259.935 145.148 260.122 147.834 260.122C150.52 260.122 151.183 259.935 151.183 259.204C151.183 258.473 150.52 258.286 147.834 258.286C145.148 258.286 144.485 258.473 144.485 259.204ZM141.595 253.407C143.057 253.526 145.301 253.543 147.681 253.543C150.333 253.543 152.747 253.509 153.801 253.407C154.158 253.373 154.379 253.56 154.379 253.917V254.92C154.379 255.226 154.209 255.43 153.818 255.464C152.764 255.566 150.35 255.6 147.698 255.6C145.318 255.6 143.074 255.583 141.595 255.464C141.204 255.43 141.034 255.243 141.034 254.92V253.917C141.034 253.56 141.238 253.373 141.595 253.407ZM159.49 261.975C158.164 261.975 157.467 261.414 157.382 260.275L157.093 256.008C157.076 255.668 157.297 255.447 157.654 255.447H159.014C159.371 255.447 159.558 255.634 159.575 256.008L159.626 256.841H166.018L166.069 256.008C166.086 255.634 166.273 255.447 166.63 255.447H167.99C168.347 255.447 168.568 255.668 168.551 256.008L168.262 260.275C168.177 261.414 167.48 261.975 166.154 261.975H159.49ZM164.896 247.032C167.208 247.032 168.262 247.967 168.262 250.007C168.262 250.738 168.109 251.537 167.888 252.285C168.313 252.268 168.653 252.251 168.925 252.217C169.282 252.183 169.503 252.37 169.503 252.727V253.73C169.503 254.036 169.333 254.24 168.942 254.274C167.888 254.376 165.474 254.41 162.822 254.41C160.442 254.41 158.198 254.393 156.719 254.274C156.328 254.24 156.158 254.053 156.158 253.73V252.727C156.158 252.37 156.362 252.183 156.719 252.217C158.181 252.336 160.425 252.353 162.805 252.353C163.706 252.353 164.59 252.353 165.389 252.336C165.593 251.877 165.814 251.18 165.814 250.636C165.814 249.718 165.287 249.276 164.165 249.276C162.397 249.276 160.391 249.412 158.113 249.565C157.79 249.582 157.569 249.395 157.569 249.089V247.831C157.569 247.542 157.79 247.355 158.113 247.321C159.592 247.202 162.278 247.032 164.896 247.032ZM159.762 258.796L159.813 259.527C159.83 259.867 160 260.02 160.34 260.02H165.304C165.644 260.02 165.814 259.867 165.831 259.527L165.882 258.796H159.762ZM177.033 259.204C177.033 257.096 178.716 256.246 182.847 256.246C186.978 256.246 188.661 257.096 188.661 259.204C188.661 261.312 186.978 262.162 182.847 262.162C178.716 262.162 177.033 261.312 177.033 259.204ZM178.087 247.032H187.488C187.845 247.032 188.032 247.219 188.032 247.576V248.613C188.032 248.97 187.845 249.157 187.488 249.157H184.173C184.547 249.956 185.771 250.5 187.726 250.5C188.1 250.5 188.287 250.67 188.287 250.993V252.098C188.287 252.421 188.1 252.608 187.726 252.625C185.499 252.727 183.51 251.758 182.796 250.432C182.065 251.758 180.076 252.727 177.849 252.625C177.475 252.608 177.288 252.421 177.288 252.098V250.993C177.288 250.67 177.475 250.5 177.849 250.5C179.804 250.5 181.045 249.956 181.436 249.157H178.087C177.73 249.157 177.543 248.97 177.543 248.613V247.576C177.543 247.219 177.73 247.032 178.087 247.032ZM182.694 253.543C185.346 253.543 187.76 253.509 188.814 253.407C189.171 253.373 189.392 253.56 189.392 253.917V254.92C189.392 255.226 189.222 255.43 188.831 255.464C187.777 255.566 185.363 255.6 182.711 255.6C180.331 255.6 178.087 255.583 176.608 255.464C176.217 255.43 176.047 255.243 176.047 254.92V253.917C176.047 253.56 176.251 253.373 176.608 253.407C178.07 253.526 180.314 253.543 182.694 253.543ZM179.498 259.204C179.498 259.935 180.161 260.122 182.847 260.122C185.533 260.122 186.196 259.935 186.196 259.204C186.196 258.473 185.533 258.286 182.847 258.286C180.161 258.286 179.498 258.473 179.498 259.204ZM197.733 259.952C200.147 259.952 200.912 259.663 200.912 258.847C200.912 258.031 200.147 257.742 197.733 257.742C195.319 257.742 194.554 258.031 194.554 258.847C194.554 259.663 195.319 259.952 197.733 259.952ZM197.733 255.532C201.524 255.532 203.377 256.62 203.377 258.847C203.377 261.074 201.524 262.162 197.733 262.162C193.942 262.162 192.089 261.074 192.089 258.847C192.089 256.62 193.942 255.532 197.733 255.532ZM195.064 252.064C194.588 253.407 193.143 254.478 191.443 254.478C191.069 254.478 190.882 254.274 190.882 253.951V252.676C190.882 252.353 191.069 252.183 191.443 252.183C192.82 252.183 193.806 250.908 193.806 249.361V247.661C193.806 247.27 194.01 247.049 194.367 247.049H195.727C196.067 247.049 196.271 247.27 196.271 247.661V249.361C196.271 250.908 197.257 252.183 198.634 252.183C198.991 252.183 199.161 252.353 199.161 252.676V253.951C199.161 254.291 198.991 254.478 198.634 254.478C196.968 254.478 195.523 253.39 195.064 252.064ZM203.003 254.359C203.003 254.716 202.799 254.92 202.442 254.92H201.099C200.742 254.92 200.538 254.716 200.538 254.359V247.219C200.538 246.862 200.742 246.658 201.099 246.658H202.442C202.799 246.658 203.003 246.862 203.003 247.219V249.854C203.19 249.565 203.581 249.378 204.057 249.378H204.601C204.941 249.378 205.128 249.565 205.128 249.905V251.146C205.128 251.486 204.941 251.673 204.601 251.673H203.989C203.411 251.673 203.003 252.064 203.003 252.608V254.359ZM220.019 256.807C222.348 256.807 223.419 257.776 223.419 259.816C223.419 260.7 223.368 261.125 223.317 261.448C223.266 261.805 223.113 261.975 222.756 261.975H221.379C221.022 261.975 220.801 261.771 220.852 261.414C220.92 260.972 220.954 260.734 220.954 260.343C220.954 259.476 220.58 259.102 219.645 259.102C216.942 259.102 214.647 259.272 212.743 259.408C212.403 259.425 212.216 259.221 212.216 258.881V257.64C212.216 257.3 212.403 257.147 212.743 257.113C213.763 256.994 214.97 256.909 216.5 256.858V256.518C216.5 256.246 216.636 256.042 216.857 255.923C215.089 255.957 212.964 255.906 211.621 255.804C211.23 255.77 211.06 255.583 211.06 255.26V254.257C211.06 253.9 211.264 253.713 211.621 253.747C213.083 253.866 215.327 253.883 217.707 253.883C220.359 253.883 222.773 253.849 223.827 253.747C224.184 253.713 224.405 253.9 224.405 254.257V255.26C224.405 255.566 224.235 255.77 223.844 255.804C223.011 255.889 221.141 255.94 219.577 255.94C219.169 255.94 218.965 256.144 218.965 256.467V256.807C219.305 256.807 219.662 256.807 220.019 256.807ZM217.809 250.653C217.078 252.047 215.157 253.05 212.862 252.948C212.488 252.931 212.301 252.744 212.301 252.421V251.146C212.301 250.823 212.488 250.653 212.862 250.653C215.31 250.653 216.585 249.599 216.585 248.086V247.593C216.585 247.236 216.789 247.032 217.146 247.032H218.489C218.846 247.032 219.05 247.236 219.05 247.593V248.086C219.05 249.599 220.291 250.653 222.739 250.653C223.113 250.653 223.3 250.823 223.3 251.146V252.421C223.3 252.744 223.113 252.931 222.739 252.948C220.444 253.05 218.523 252.047 217.809 250.653ZM233.528 247.729C233.885 247.729 234.089 247.933 234.089 248.29V249.463C234.089 249.82 233.885 250.024 233.528 250.024H231.284V253.934C231.284 255.685 232.321 257.096 233.647 257.283C234.004 257.334 234.174 257.504 234.174 257.827V259.102C234.174 259.442 234.004 259.629 233.647 259.578C231.947 259.34 230.519 258.286 230.077 256.807C229.618 258.286 228.173 259.34 226.456 259.578C226.099 259.629 225.895 259.442 225.895 259.102V257.827C225.895 257.504 226.082 257.334 226.456 257.283C227.782 257.096 228.819 255.685 228.819 253.934V250.024H226.541C226.184 250.024 225.98 249.82 225.98 249.463V248.29C225.98 247.933 226.184 247.729 226.541 247.729H233.528ZM235.891 247.219C235.891 246.862 236.095 246.658 236.452 246.658H237.795C238.152 246.658 238.356 246.862 238.356 247.219V261.329C238.356 261.686 238.152 261.89 237.795 261.89H236.452C236.095 261.89 235.891 261.686 235.891 261.329V247.219ZM244.469 257.317C245.387 257.317 245.914 256.637 245.914 255.447C245.914 254.257 245.387 253.577 244.469 253.577C243.551 253.577 243.024 254.257 243.024 255.447C243.024 256.637 243.551 257.317 244.469 257.317ZM244.469 251.316C246.917 251.316 248.345 252.846 248.345 255.447C248.345 258.048 246.917 259.578 244.469 259.578C242.021 259.578 240.593 258.048 240.593 255.447C240.593 252.846 242.021 251.316 244.469 251.316ZM252.459 261.329C252.459 261.686 252.255 261.89 251.898 261.89H250.555C250.198 261.89 249.994 261.686 249.994 261.329V247.219C249.994 246.862 250.198 246.658 250.555 246.658H251.898C252.255 246.658 252.459 246.862 252.459 247.219V252.914C252.646 252.625 253.037 252.438 253.513 252.438H254.057C254.397 252.438 254.584 252.625 254.584 252.965V254.291C254.584 254.631 254.397 254.818 254.057 254.818H253.445C252.867 254.818 252.459 255.209 252.459 255.753V261.329ZM245.727 247.695C245.727 247.916 245.88 248.069 246.186 248.069H248.311C248.668 248.069 248.872 248.273 248.872 248.63V249.803C248.872 250.16 248.668 250.364 248.311 250.364H240.644C240.287 250.364 240.083 250.16 240.083 249.803V248.63C240.083 248.273 240.287 248.069 240.644 248.069H243.517C243.347 247.967 243.262 247.814 243.262 247.576V246.777C243.262 246.42 243.432 246.25 243.789 246.25H245.2C245.557 246.25 245.727 246.42 245.727 246.777V247.695ZM265.509 255.855C265.169 255.804 265.05 255.685 265.118 255.345C265.339 254.223 265.407 252.88 265.407 251.877C265.407 250.568 264.71 249.854 263.418 249.854C261.82 249.854 259.984 250.024 257.706 250.143C257.383 250.16 257.162 249.973 257.162 249.667V248.341C257.162 248.069 257.366 247.865 257.706 247.831C260.086 247.593 262.211 247.542 263.979 247.542C266.495 247.542 267.855 248.885 267.855 251.384C267.855 252.931 267.753 254.427 267.498 255.685C267.43 256.025 267.26 256.11 266.92 256.059L265.509 255.855ZM256.312 260.275C255.921 260.224 255.751 260.054 255.751 259.731V258.473C255.751 258.116 255.955 257.929 256.312 257.963C257.553 258.082 259.236 258.218 260.766 258.252C260.46 258.116 260.256 257.793 260.256 257.368V254.24C260.256 253.883 260.46 253.679 260.817 253.679H262.177C262.534 253.679 262.721 253.883 262.721 254.24V257.504C262.721 257.963 262.959 258.201 263.452 258.218C264.625 258.252 267.192 258.133 268.518 257.963C268.875 257.912 269.096 258.116 269.096 258.473V259.731C269.096 260.037 268.926 260.207 268.535 260.275C267.481 260.462 265.067 260.564 262.415 260.564C260.035 260.564 257.791 260.479 256.312 260.275ZM82.7621 275.534L82.8131 276.418C82.8301 276.741 82.9321 276.843 83.2891 276.843H84.9381C85.2951 276.843 85.3971 276.741 85.4141 276.418L85.4651 275.534H82.7621ZM86.6381 284.34C84.2241 284.34 83.8671 284.442 83.8671 284.799C83.8671 285.173 84.3091 285.241 87.5731 285.241C88.8821 285.241 90.9221 285.139 92.0441 284.935C92.3161 284.884 92.5031 285.02 92.5201 285.292L92.6051 286.397C92.6221 286.635 92.4691 286.805 92.2141 286.839C90.9901 287.009 88.8991 287.145 87.5901 287.145C82.7621 287.145 81.4021 286.567 81.4021 284.765C81.4021 282.98 82.9831 282.436 86.6041 282.436C87.4541 282.436 88.4401 282.419 89.1881 282.419C89.6301 282.419 89.8171 282.3 89.8171 282.062C89.8171 281.807 89.6471 281.688 89.2221 281.688C87.6071 281.688 84.1901 281.807 82.1841 281.977C81.9121 281.994 81.7421 281.841 81.7421 281.569V280.464C81.7421 280.209 81.8781 280.073 82.1841 280.056C84.7511 279.869 88.1001 279.767 90.5651 279.852C91.6531 279.886 92.2651 280.362 92.2651 281.178C92.2651 281.841 91.8911 282.368 91.2791 282.589H91.6871C91.9421 282.589 92.1291 282.742 92.1291 282.98V283.983C92.1291 284.221 91.9591 284.391 91.6871 284.391C90.4461 284.391 89.6641 284.34 86.6381 284.34ZM85.9751 278.968H82.2521C81.0791 278.968 80.4331 278.407 80.3821 277.37L80.1271 272.593C80.1101 272.253 80.3311 272.049 80.6881 272.049H82.0311C82.4221 272.049 82.5921 272.185 82.6091 272.542L82.6601 273.409H85.5671L85.6181 272.542C85.6351 272.202 85.8051 272.049 86.1961 272.049H87.5391C87.9131 272.049 88.1171 272.253 88.1001 272.593L87.8451 277.37C87.7941 278.407 87.1481 278.968 85.9751 278.968ZM92.1461 278.509C92.1461 278.866 91.9421 279.07 91.5851 279.07H90.2421C89.8851 279.07 89.6811 278.866 89.6811 278.509V272.219C89.6811 271.862 89.8851 271.658 90.2421 271.658H91.5851C91.9421 271.658 92.1461 271.862 92.1461 272.219V274.429C92.3331 274.14 92.7241 273.953 93.2001 273.953H93.7441C94.0841 273.953 94.2711 274.14 94.2711 274.48V275.721C94.2711 276.061 94.0841 276.248 93.7441 276.248H93.1321C92.5541 276.248 92.1461 276.639 92.1461 277.183V278.509ZM97.1211 283.847C97.1211 281.62 99.1781 280.532 103.19 280.532C107.202 280.532 109.259 281.62 109.259 283.847C109.259 286.074 107.202 287.162 103.19 287.162C99.1781 287.162 97.1211 286.074 97.1211 283.847ZM106.624 272.185C106.624 271.828 106.794 271.658 107.151 271.658H108.392C108.749 271.658 108.919 271.828 108.919 272.185V279.393C108.919 279.75 108.749 279.92 108.392 279.92H107.151C106.794 279.92 106.624 279.75 106.624 279.393V276.69H106.012C105.638 276.69 105.349 276.962 105.349 277.336V279.053C105.349 279.41 105.179 279.58 104.822 279.58H103.581C103.224 279.58 103.054 279.41 103.054 279.053V272.355C103.054 271.998 103.224 271.828 103.581 271.828H104.822C105.179 271.828 105.349 271.998 105.349 272.355V274.701C105.485 274.514 105.723 274.395 106.012 274.395H106.624V272.185ZM99.8581 274.99C99.8581 276.231 100.487 277.183 101.711 277.183C102.068 277.183 102.238 277.353 102.238 277.676V278.951C102.238 279.274 102.085 279.478 101.745 279.478C100.402 279.478 99.1611 278.594 98.7191 277.319C98.2431 278.628 96.8661 279.478 95.5061 279.478C95.1491 279.478 94.9791 279.257 94.9791 278.951V277.676C94.9791 277.353 95.1661 277.183 95.5401 277.183C96.8151 277.183 97.5461 276.18 97.5461 274.99V272.576C97.5461 272.219 97.7161 272.049 98.0731 272.049H99.3311C99.6881 272.049 99.8581 272.219 99.8581 272.661V274.99ZM103.19 284.952C105.825 284.952 106.794 284.663 106.794 283.847C106.794 283.031 105.825 282.742 103.19 282.742C100.555 282.742 99.5861 283.031 99.5861 283.847C99.5861 284.663 100.555 284.952 103.19 284.952ZM117.964 272.032H127.365C127.722 272.032 127.909 272.219 127.909 272.576V273.613C127.909 273.97 127.722 274.157 127.365 274.157H124.016C124.373 275.16 125.58 275.823 127.603 275.823C127.977 275.823 128.164 275.993 128.164 276.316V277.421C128.164 277.744 127.977 277.931 127.603 277.948C125.308 278.05 123.387 277.115 122.673 275.67C121.942 277.115 120.021 278.05 117.726 277.948C117.352 277.931 117.165 277.744 117.165 277.421V276.316C117.165 275.993 117.352 275.823 117.726 275.823C119.749 275.823 120.973 275.16 121.33 274.157H117.964C117.607 274.157 117.42 273.97 117.42 273.613V272.576C117.42 272.219 117.607 272.032 117.964 272.032ZM124.883 281.807C127.212 281.807 128.283 282.776 128.283 284.816C128.283 285.7 128.232 286.125 128.181 286.448C128.13 286.805 127.977 286.975 127.62 286.975H126.243C125.886 286.975 125.665 286.771 125.716 286.414C125.784 285.972 125.818 285.734 125.818 285.343C125.818 284.476 125.444 284.102 124.509 284.102C121.806 284.102 119.511 284.272 117.607 284.408C117.267 284.425 117.08 284.221 117.08 283.881V282.64C117.08 282.3 117.267 282.147 117.607 282.113C119.307 281.926 121.534 281.807 124.883 281.807ZM122.571 279.053C125.223 279.053 127.637 279.019 128.691 278.917C129.048 278.883 129.269 279.07 129.269 279.427V280.43C129.269 280.736 129.099 280.94 128.708 280.974C127.654 281.076 125.24 281.11 122.588 281.11C120.208 281.11 117.964 281.093 116.485 280.974C116.094 280.94 115.924 280.753 115.924 280.43V279.427C115.924 279.07 116.128 278.883 116.485 278.917C117.947 279.036 120.191 279.053 122.571 279.053ZM134.941 281.654C134.482 283.167 133.037 284.34 131.32 284.578C130.963 284.629 130.759 284.442 130.759 284.102V282.827C130.759 282.504 130.946 282.334 131.32 282.283C132.646 282.096 133.683 280.515 133.683 278.764V273.341C133.683 272.95 133.887 272.729 134.244 272.729H135.604C135.944 272.729 136.148 272.95 136.148 273.341V278.764C136.148 280.515 137.185 282.096 138.511 282.283C138.868 282.334 139.038 282.504 139.038 282.827V284.102C139.038 284.442 138.868 284.629 138.511 284.578C136.811 284.34 135.383 283.15 134.941 281.654ZM140.755 272.219C140.755 271.862 140.959 271.658 141.316 271.658H142.659C143.016 271.658 143.22 271.862 143.22 272.219V286.329C143.22 286.686 143.016 286.89 142.659 286.89H141.316C140.959 286.89 140.755 286.686 140.755 286.329V272.219ZM152.687 278.594L152.755 281.688C152.772 282.113 152.959 282.283 153.384 282.283H154.727C155.152 282.283 155.339 282.113 155.356 281.688L155.424 278.594H152.687ZM155.611 284.578H152.5C151.157 284.578 150.358 283.847 150.324 282.64L150.069 273.273C150.052 272.933 150.273 272.729 150.63 272.729H151.973C152.364 272.729 152.534 272.865 152.551 273.222L152.619 276.299H155.492L155.56 273.222C155.56 272.882 155.747 272.729 156.138 272.729H157.481C157.855 272.729 158.059 272.933 158.042 273.273L157.787 282.64C157.753 283.847 156.954 284.578 155.611 284.578ZM162.088 286.329C162.088 286.686 161.884 286.89 161.527 286.89H160.184C159.827 286.89 159.623 286.686 159.623 286.329V272.219C159.623 271.862 159.827 271.658 160.184 271.658H161.527C161.884 271.658 162.088 271.862 162.088 272.219V277.914C162.275 277.625 162.666 277.438 163.142 277.438H163.686C164.026 277.438 164.213 277.625 164.213 277.965V279.291C164.213 279.631 164.026 279.818 163.686 279.818H163.074C162.496 279.818 162.088 280.209 162.088 280.753V286.329ZM165.941 285.275C165.55 285.224 165.38 285.054 165.38 284.731V283.473C165.38 283.116 165.584 282.929 165.941 282.963C167.216 283.082 169.29 283.235 171.177 283.269C170.939 283.15 170.82 282.912 170.82 282.555V281.246C167.641 281.059 166.791 280.328 166.791 278.424C166.791 276.197 168.202 275.602 171.908 275.602H174.407C174.849 275.602 175.036 275.432 175.036 275.126C175.036 274.803 174.866 274.684 174.441 274.684C172.826 274.684 169.579 274.769 167.573 274.973C167.301 275.007 167.131 274.803 167.131 274.463V273.205C167.131 272.899 167.267 272.729 167.573 272.695C169.545 272.525 171.772 272.406 173.897 272.406C174.543 272.406 175.172 272.423 175.784 272.44C176.872 272.491 177.484 273.069 177.484 274.089C177.484 274.922 177.11 275.534 176.481 275.806H176.906C177.161 275.806 177.348 275.993 177.348 276.282V277.404C177.348 277.71 177.178 277.914 176.906 277.914C175.665 277.914 175.053 277.863 171.942 277.863C169.443 277.863 169.256 278.016 169.256 278.475C169.256 278.934 169.528 279.019 172.877 279.019C174.271 279.019 176.056 278.9 177.178 278.679C177.45 278.628 177.637 278.764 177.688 279.104L177.909 280.362C177.96 280.651 177.773 280.855 177.518 280.906C176.447 281.093 174.645 281.263 173.285 281.297V282.589C173.285 283.031 173.455 283.201 173.931 283.218C174.764 283.252 176.821 283.133 178.147 282.963C178.504 282.912 178.725 283.116 178.725 283.473V284.731C178.725 285.037 178.555 285.207 178.164 285.275C177.11 285.462 174.696 285.564 172.044 285.564C169.664 285.564 167.42 285.479 165.941 285.275ZM192.018 284.952C194.534 284.952 195.35 284.663 195.35 283.847C195.35 283.031 194.534 282.742 192.018 282.742C189.485 282.742 188.652 283.031 188.652 283.847C188.652 284.663 189.485 284.952 192.018 284.952ZM187.717 275.789L187.768 276.809C187.785 277.149 187.921 277.268 188.261 277.268H189.706C190.046 277.268 190.182 277.149 190.199 276.809L190.25 275.789H187.717ZM186.204 283.847C186.204 281.62 188.108 280.532 192.018 280.532C195.911 280.532 197.815 281.62 197.815 283.847C197.815 286.074 195.911 287.162 192.018 287.162C188.108 287.162 186.204 286.074 186.204 283.847ZM190.624 279.478H187.343C186.085 279.478 185.388 278.866 185.337 277.744L185.082 272.593C185.065 272.253 185.286 272.049 185.643 272.049H186.986C187.377 272.049 187.547 272.185 187.564 272.542L187.615 273.579H190.352L190.403 272.542C190.42 272.202 190.59 272.049 190.981 272.049H192.324C192.698 272.049 192.902 272.253 192.885 272.593L192.63 277.744C192.579 278.866 191.882 279.478 190.624 279.478ZM194.976 272.321V272.219C194.976 271.862 195.18 271.658 195.537 271.658H196.88C197.237 271.658 197.441 271.862 197.441 272.219V279.359C197.441 279.716 197.237 279.92 196.88 279.92H195.537C195.18 279.92 194.976 279.716 194.976 279.359V278.288C194.806 278.543 194.5 278.662 194.075 278.662H193.701C193.361 278.662 193.174 278.475 193.174 278.135V276.979C193.174 276.639 193.361 276.452 193.701 276.452H194.313C194.84 276.452 194.976 276.214 194.976 275.772V274.837C194.806 275.092 194.5 275.211 194.075 275.211H193.701C193.361 275.211 193.174 275.024 193.174 274.684V273.528C193.174 273.188 193.361 273.001 193.701 273.001H194.313C194.891 273.001 194.976 272.797 194.976 272.321ZM205.646 281.246C205.255 281.246 205.034 281.433 205.034 281.773V282.844C205.034 283.201 204.847 283.405 204.49 283.405H203.13C202.994 283.405 202.875 283.371 202.79 283.32C202.773 283.456 202.756 283.609 202.756 283.728C202.756 284.476 203.215 284.85 204.065 284.85C206.802 284.85 209.811 284.714 211.63 284.544C211.987 284.51 212.242 284.714 212.259 285.071L212.344 286.278C212.361 286.601 212.191 286.805 211.834 286.839C209.692 287.043 206.598 287.145 203.759 287.145C201.532 287.145 200.291 286.023 200.291 284.017C200.291 283.473 200.342 283.133 200.393 282.81C200.461 282.419 200.631 282.249 200.954 282.249H202.297C202.399 282.249 202.484 282.266 202.569 282.3V281.858C202.569 281.586 202.705 281.365 202.943 281.263C201.668 281.263 200.529 281.212 199.509 281.144C199.118 281.11 198.948 280.923 198.948 280.6V279.597C198.948 279.24 199.152 279.07 199.509 279.087C200.631 279.172 201.94 279.206 203.81 279.206C205.442 279.206 207.516 279.138 208.23 279.087C208.587 279.053 208.808 279.24 208.808 279.597V280.6C208.808 280.906 208.638 281.11 208.247 281.144C207.737 281.195 206.581 281.229 205.646 281.246ZM199.849 275.143C199.849 272.984 201.209 271.862 203.844 271.862C206.479 271.862 207.839 272.984 207.839 275.143C207.839 277.302 206.479 278.424 203.844 278.424C201.209 278.424 199.849 277.302 199.849 275.143ZM209.42 283.32C209.233 283.626 208.842 283.83 208.366 283.83H206.802C206.462 283.83 206.275 283.643 206.275 283.303V282.317C206.275 281.977 206.462 281.79 206.802 281.79H208.434C209.012 281.79 209.42 281.399 209.42 280.855V272.219C209.42 271.862 209.624 271.658 209.981 271.658H211.324C211.681 271.658 211.885 271.862 211.885 272.219V283.439C211.885 283.796 211.681 284 211.324 284H209.981C209.624 284 209.42 283.796 209.42 283.439V283.32ZM203.844 276.384C204.898 276.384 205.408 275.993 205.408 275.143C205.408 274.293 204.898 273.902 203.844 273.902C202.79 273.902 202.28 274.293 202.28 275.143C202.28 275.993 202.79 276.384 203.844 276.384ZM223.613 284.017C224.038 281.229 224.225 279.07 224.225 276.758C224.225 275.483 223.885 275.024 222.916 275.024C221.42 275.024 220.536 275.211 219.414 275.33C219.091 275.364 218.887 275.16 218.887 274.803V273.562C218.887 273.239 219.04 273.086 219.414 273.035C221.131 272.797 222.083 272.729 223.29 272.729C225.704 272.729 226.707 273.817 226.707 276.469C226.707 279.189 226.537 281.535 226.078 284.085C226.01 284.459 225.857 284.578 225.5 284.578H224.14C223.766 284.578 223.562 284.357 223.613 284.017ZM230.753 286.329C230.753 286.686 230.549 286.89 230.192 286.89H228.849C228.492 286.89 228.288 286.686 228.288 286.329V272.219C228.288 271.862 228.492 271.658 228.849 271.658H230.192C230.549 271.658 230.753 271.862 230.753 272.219V277.914C230.94 277.625 231.331 277.438 231.807 277.438H232.351C232.691 277.438 232.878 277.625 232.878 277.965V279.291C232.878 279.631 232.691 279.818 232.351 279.818H231.739C231.161 279.818 230.753 280.209 230.753 280.753V286.329ZM238.737 284.017C239.162 281.229 239.349 279.07 239.349 276.758C239.349 275.483 239.009 275.024 238.04 275.024C236.544 275.024 235.66 275.211 234.538 275.33C234.215 275.364 234.011 275.16 234.011 274.803V273.562C234.011 273.239 234.164 273.086 234.538 273.035C236.255 272.797 237.207 272.729 238.414 272.729C240.828 272.729 241.831 273.817 241.831 276.469C241.831 279.189 241.661 281.535 241.202 284.085C241.134 284.459 240.981 284.578 240.624 284.578H239.264C238.89 284.578 238.686 284.357 238.737 284.017ZM243.752 272.219C243.752 271.862 243.956 271.658 244.313 271.658H245.656C246.013 271.658 246.217 271.862 246.217 272.219V286.329C246.217 286.686 246.013 286.89 245.656 286.89H244.313C243.956 286.89 243.752 286.686 243.752 286.329V272.219Z" fill="#13183A"/>
<path d="M16.7395 34.8C16.6895 26.7 22.5395 21.3 32.0895 21.25C42.8895 21.2 48.2895 27.35 48.2895 40.8C48.2895 54.55 43.3895 61.55 31.8895 61.55C24.3395 61.55 18.7895 57.8 18.2395 52.05C18.1395 51.05 18.6895 50.45 19.7895 50.45H23.3895C24.5395 50.45 25.1895 50.8 25.4895 51.65C26.2395 53.65 28.4395 54.65 31.9395 54.65C38.1895 54.65 40.4395 51.7 40.9395 44.3C38.0895 46.35 34.4395 47.55 30.6395 47.55C22.2395 47.55 16.7895 42.55 16.7395 34.8ZM40.9395 37.85C40.3895 30.85 37.5395 28.1 31.8395 28.1C26.7895 28.1 23.9895 30.65 23.9895 34.6C23.9895 38.45 27.2395 40.85 32.3395 40.85C35.5395 40.85 38.9895 39.65 40.9395 37.85Z" fill="#6A9BEA"/>
<path d="M206.027 214.986H119.043V79.4563C119.043 73.6746 123.729 69.0032 129.496 69.0032H195.56C201.341 69.0032 206.013 73.689 206.013 79.4563V214.986H206.027Z" fill="white"/>
<path d="M119.057 214.986H77V118.601C77 112.82 81.6859 108.148 87.4531 108.148H119.057V214.986Z" fill="white"/>
<path d="M119.057 108.162H113.03V215H119.057V108.162Z" fill="#E2F0F2"/>
<path d="M162.542 77.4375C173.985 77.4375 183.261 68.1614 183.261 56.7187C183.261 45.2761 173.985 36 162.542 36C151.099 36 141.823 45.2761 141.823 56.7187C141.823 68.1614 151.099 77.4375 162.542 77.4375Z" fill="#6D8C67"/>
<path d="M162.542 70.6751C170.25 70.6751 176.498 64.4264 176.498 56.7184C176.498 49.0103 170.25 42.7617 162.542 42.7617C154.834 42.7617 148.585 49.0103 148.585 56.7184C148.585 64.4264 154.834 70.6751 162.542 70.6751Z" fill="white"/>
<path d="M166.06 48.1685H159.024V65.2683H166.06V48.1685Z" fill="#6D8C67"/>
<path d="M153.988 53.2079L153.988 60.2439L171.088 60.2439L171.088 53.2079L153.988 53.2079Z" fill="#6D8C67"/>
<path d="M192.546 86.9966H182.843V96.6999H192.546V86.9966Z" fill="#D3E5EA"/>
<path opacity="0.25" d="M192.546 86.9966H185.597H182.843V89.736V96.6855H185.597V89.736H192.546V86.9966Z" fill="#A1C4CE"/>
<path d="M175.779 86.9966H166.075V96.6999H175.779V86.9966Z" fill="#D3E5EA"/>
<path opacity="0.25" d="M175.779 86.9966H168.829H166.075V89.736V96.6855H168.829V89.736H175.779V86.9966Z" fill="#A1C4CE"/>
<path d="M159.01 86.9966H149.307V96.6999H159.01V86.9966Z" fill="#D3E5EA"/>
<path opacity="0.25" d="M159.01 86.9966H152.06H149.307V89.736V96.6855H152.06V89.736H159.01V86.9966Z" fill="#A1C4CE"/>
<path d="M142.241 86.9971H132.538V96.7004H142.241V86.9971Z" fill="#D3E5EA"/>
<path opacity="0.25" d="M142.241 86.9971H135.292H132.538V89.7365V96.686H135.292V89.7365H142.241V86.9971Z" fill="#A1C4CE"/>
<path d="M192.546 106.245H182.843V115.948H192.546V106.245Z" fill="#D3E5EA"/>
<path opacity="0.25" d="M192.546 106.245H185.597H182.843V108.998V115.948H185.597V108.998H192.546V106.245Z" fill="#A1C4CE"/>
<path d="M175.779 106.245H166.075V115.948H175.779V106.245Z" fill="#D3E5EA"/>
<path opacity="0.25" d="M175.779 106.245H168.829H166.075V108.998V115.948H168.829V108.998H175.779V106.245Z" fill="#A1C4CE"/>
<path d="M159.01 106.245H149.307V115.948H159.01V106.245Z" fill="#D3E5EA"/>
<path opacity="0.25" d="M159.01 106.245H152.06H149.307V108.998V115.948H152.06V108.998H159.01V106.245Z" fill="#A1C4CE"/>
<path d="M142.241 106.245H132.538V115.948H142.241V106.245Z" fill="#D3E5EA"/>
<path opacity="0.25" d="M142.241 106.245H135.292H132.538V108.999V115.948H135.292V108.999H142.241V106.245Z" fill="#A1C4CE"/>
<path d="M192.546 125.492H182.843V135.196H192.546V125.492Z" fill="#D3E5EA"/>
<path opacity="0.25" d="M192.546 125.492H185.597H182.843V128.246V135.196H185.597V128.246H192.546V125.492Z" fill="#A1C4CE"/>
<path d="M175.779 125.493H166.075V135.196H175.779V125.493Z" fill="#D3E5EA"/>
<path opacity="0.25" d="M175.779 125.493H168.829H166.075V128.247V135.196H168.829V128.247H175.779V125.493Z" fill="#A1C4CE"/>
<path d="M159.01 125.493H149.307V135.196H159.01V125.493Z" fill="#D3E5EA"/>
<path opacity="0.25" d="M159.01 125.493H152.06H149.307V128.247V135.196H152.06V128.247H159.01V125.493Z" fill="#A1C4CE"/>
<path d="M142.241 125.492H132.538V135.196H142.241V125.492Z" fill="#D3E5EA"/>
<path opacity="0.25" d="M142.241 125.492H135.292H132.538V128.246V135.196H135.292V128.246H142.241V125.492Z" fill="#A1C4CE"/>
<path d="M102.879 118.99H93.1758V128.694H102.879V118.99Z" fill="#D3E5EA"/>
<path opacity="0.25" d="M102.879 118.99H95.9296H93.1758V121.73V128.694H95.9296V121.73H102.879V118.99Z" fill="#A1C4CE"/>
<path d="M102.879 136.868H93.1758V146.571H102.879V136.868Z" fill="#D3E5EA"/>
<path opacity="0.25" d="M102.879 136.868H95.9296H93.1758V139.622V146.571H95.9296V139.622H102.879V136.868Z" fill="#A1C4CE"/>
<path d="M102.879 154.747H93.1758V164.45H102.879V154.747Z" fill="#D3E5EA"/>
<path opacity="0.25" d="M102.879 154.747H95.9296H93.1758V157.501V164.45H95.9296V157.501H102.879V154.747Z" fill="#A1C4CE"/>
<path d="M102.879 172.64H93.1758V182.344H102.879V172.64Z" fill="#D3E5EA"/>
<path opacity="0.25" d="M102.879 172.64H95.9296H93.1758V175.394V182.344H95.9296V175.394H102.879V172.64Z" fill="#A1C4CE"/>
<path d="M206.027 214.986H248.085V118.601C248.085 112.82 243.399 108.148 237.632 108.148H206.027V214.986Z" fill="white"/>
<path d="M206.038 214.986L212.064 214.986L212.064 108.149L206.038 108.149L206.038 214.986Z" fill="#E2F0F2"/>
<path d="M222.212 128.682L231.915 128.682L231.915 118.979L222.212 118.979L222.212 128.682Z" fill="#D3E5EA"/>
<path opacity="0.25" d="M222.202 118.991H229.166H231.905V121.73V128.694H229.166V121.73H222.202V118.991Z" fill="#A1C4CE"/>
<path d="M222.212 146.571L231.915 146.571L231.915 136.867L222.212 136.867L222.212 146.571Z" fill="#D3E5EA"/>
<path opacity="0.25" d="M222.202 136.868H229.166H231.905V139.622V146.572H229.166V139.622H222.202V136.868Z" fill="#A1C4CE"/>
<path d="M222.212 164.458L231.915 164.458L231.915 154.755L222.212 154.755L222.212 164.458Z" fill="#D3E5EA"/>
<path opacity="0.25" d="M222.202 154.747H229.166H231.905V157.5V164.45H229.166V157.5H222.202V154.747Z" fill="#A1C4CE"/>
<path d="M222.212 182.333L231.915 182.333L231.915 172.63L222.212 172.63L222.212 182.333Z" fill="#D3E5EA"/>
<path opacity="0.25" d="M222.202 172.64H229.166H231.905V175.393V182.343H229.166V175.393H222.202V172.64Z" fill="#A1C4CE"/>
<path d="M192.546 144.74H182.843V154.444H192.546V144.74Z" fill="#D3E5EA"/>
<path opacity="0.25" d="M192.546 144.74H185.597H182.843V147.494V154.444H185.597V147.494H192.546V144.74Z" fill="#A1C4CE"/>
<path d="M175.779 144.741H166.075V154.444H175.779V144.741Z" fill="#D3E5EA"/>
<path opacity="0.25" d="M175.779 144.741H168.829H166.075V147.495V154.444H168.829V147.495H175.779V144.741Z" fill="#A1C4CE"/>
<path d="M159.01 144.741H149.307V154.444H159.01V144.741Z" fill="#D3E5EA"/>
<path opacity="0.25" d="M159.01 144.741H152.06H149.307V147.495V154.444H152.06V147.495H159.01V144.741Z" fill="#A1C4CE"/>
<path d="M142.241 144.74H132.538V154.444H142.241V144.74Z" fill="#D3E5EA"/>
<path opacity="0.25" d="M142.241 144.74H135.292H132.538V147.494V154.444H135.292V147.494H142.241V144.74Z" fill="#A1C4CE"/>
<path d="M192.546 163.671H182.843V173.375H192.546V163.671Z" fill="#D3E5EA"/>
<path opacity="0.25" d="M192.546 163.671H185.597H182.843V166.425V173.375H185.597V166.425H192.546V163.671Z" fill="#A1C4CE"/>
<path d="M175.779 163.671H166.075V173.375H175.779V163.671Z" fill="#D3E5EA"/>
<path opacity="0.25" d="M175.779 163.671H168.829H166.075V166.425V173.375H168.829V166.425H175.779V163.671Z" fill="#A1C4CE"/>
<path d="M159.01 163.671H149.307V173.375H159.01V163.671Z" fill="#D3E5EA"/>
<path opacity="0.25" d="M159.01 163.671H152.06H149.307V166.425V173.375H152.06V166.425H159.01V163.671Z" fill="#A1C4CE"/>
<path d="M142.241 163.671H132.538V173.375H142.241V163.671Z" fill="#D3E5EA"/>
<path opacity="0.25" d="M142.241 163.671H135.292H132.538V166.425V173.375H135.292V166.425H142.241V163.671Z" fill="#A1C4CE"/>
<path d="M182.842 183.179H142.241V187.433H182.842V183.179Z" fill="#D3E5EA"/>
<path d="M180.42 187.448H144.663V215H180.42V187.448Z" fill="#6A9BEA"/>
<path d="M163.969 187.448H161.114V215H163.969V187.448Z" fill="#568CDB"/>
</svg>
