<svg width="326" height="326" viewBox="0 0 326 326" fill="none" xmlns="http://www.w3.org/2000/svg">
<rect width="326" height="326" fill="#FFF2D8"/>
<path d="M71.2596 250.738C73.5886 250.738 74.3536 250.5 74.3536 249.82C74.3536 249.123 73.6226 248.902 71.2596 248.902C68.8966 248.902 68.1656 249.123 68.1656 249.82C68.1656 250.5 68.9306 250.738 71.2596 250.738ZM73.2826 259.935C73.8776 259.935 74.3536 259.51 74.3536 258.983C74.3536 258.541 74.1156 258.337 73.6226 258.337H68.5396C68.2166 258.337 68.0806 258.473 68.0806 258.796V259.306C68.0806 259.697 68.3526 259.935 68.8286 259.935H73.2826ZM71.1066 253.543C73.7586 253.543 76.1726 253.509 77.2266 253.407C77.5836 253.373 77.8046 253.56 77.8046 253.917V254.92C77.8046 255.226 77.6346 255.43 77.2436 255.464C76.1896 255.566 73.7756 255.6 71.1236 255.6C68.7436 255.6 66.4996 255.583 65.0206 255.464C64.6296 255.43 64.4596 255.243 64.4596 254.92V253.917C64.4596 253.56 64.6636 253.373 65.0206 253.407C66.4826 253.526 68.7266 253.543 71.1066 253.543ZM65.7006 249.82C65.7006 247.746 67.3666 246.862 71.2596 246.862C75.1526 246.862 76.8186 247.746 76.8186 249.82C76.8186 251.894 75.1526 252.778 71.2596 252.778C67.3666 252.778 65.7006 251.894 65.7006 249.82ZM75.4586 260.02H76.5296C76.8866 260.02 77.0566 260.207 77.0566 260.547V261.448C77.0566 261.805 76.8866 261.975 76.5296 261.975H67.7406C66.3636 261.975 65.6156 261.329 65.6156 260.122V257.249C65.6156 256.62 65.9216 256.297 66.5506 256.297H74.6426C76.0536 256.297 76.8186 256.909 76.8186 258.031C76.8186 258.932 76.3086 259.646 75.4586 260.02ZM83.4766 252.404C83.0006 253.747 81.5556 254.818 79.8556 254.818C79.4816 254.818 79.2946 254.614 79.2946 254.291V253.016C79.2946 252.693 79.4816 252.523 79.8556 252.523C81.2326 252.523 82.2186 251.248 82.2186 249.701V247.661C82.2186 247.27 82.4226 247.049 82.7796 247.049H84.1396C84.4796 247.049 84.6836 247.27 84.6836 247.661V249.701C84.6836 251.248 85.6696 252.523 87.0466 252.523C87.4036 252.523 87.5736 252.693 87.5736 253.016V254.291C87.5736 254.631 87.4036 254.818 87.0466 254.818C85.3806 254.818 83.9356 253.73 83.4766 252.404ZM89.2906 247.219C89.2906 246.862 89.4946 246.658 89.8516 246.658H91.1946C91.5516 246.658 91.7556 246.862 91.7556 247.219V254.359C91.7556 254.716 91.5516 254.92 91.1946 254.92H89.8516C89.4946 254.92 89.2906 254.716 89.2906 254.359V247.219ZM88.3046 256.042C90.6336 256.042 91.7046 257.011 91.7046 259.051C91.7046 260.105 91.6536 261.04 91.6026 261.448C91.5516 261.805 91.3986 261.975 91.0416 261.975H89.6646C89.3076 261.975 89.0866 261.771 89.1376 261.414C89.2056 260.887 89.2396 260.139 89.2396 259.578C89.2396 258.711 88.8656 258.337 87.9306 258.337C85.2276 258.337 83.1026 258.507 81.1986 258.643C80.8586 258.66 80.6716 258.456 80.6716 258.116V256.875C80.6716 256.535 80.8586 256.382 81.1986 256.348C82.8986 256.161 84.9556 256.042 88.3046 256.042ZM94.588 254.257C96.05 254.376 98.294 254.393 100.674 254.393C103.326 254.393 105.74 254.359 106.794 254.257C107.151 254.223 107.372 254.41 107.372 254.767V255.77C107.372 256.076 107.202 256.28 106.811 256.314C105.757 256.416 103.343 256.45 100.691 256.45C98.311 256.45 96.067 256.433 94.588 256.314C94.197 256.28 94.027 256.093 94.027 255.77V254.767C94.027 254.41 94.231 254.223 94.588 254.257ZM95.268 250.16C95.268 247.865 96.968 246.862 100.827 246.862C104.686 246.862 106.386 247.865 106.386 250.16C106.386 252.455 104.686 253.458 100.827 253.458C96.968 253.458 95.268 252.455 95.268 250.16ZM100.827 251.418C103.122 251.418 103.921 251.095 103.921 250.16C103.921 249.225 103.122 248.902 100.827 248.902C98.566 248.902 97.733 249.242 97.733 250.16C97.733 251.078 98.566 251.418 100.827 251.418ZM106.216 261.839C104.074 262.043 101.32 262.145 98.651 262.145C96.424 262.145 95.183 261.023 95.183 259.017C95.183 258.439 95.234 258.133 95.285 257.81C95.353 257.419 95.523 257.249 95.846 257.249H97.189C97.58 257.249 97.801 257.47 97.75 257.81C97.716 258.048 97.648 258.422 97.648 258.711C97.648 259.476 98.107 259.85 98.94 259.85C101.507 259.85 104.244 259.731 106.063 259.544C106.386 259.51 106.624 259.714 106.641 260.071L106.726 261.278C106.743 261.601 106.573 261.805 106.216 261.839ZM120.665 259.952C123.181 259.952 123.997 259.663 123.997 258.847C123.997 258.031 123.181 257.742 120.665 257.742C118.132 257.742 117.299 258.031 117.299 258.847C117.299 259.663 118.132 259.952 120.665 259.952ZM114.851 258.847C114.851 256.62 116.755 255.532 120.665 255.532C124.558 255.532 126.462 256.62 126.462 258.847C126.462 261.074 124.558 262.162 120.665 262.162C116.755 262.162 114.851 261.074 114.851 258.847ZM117.809 252.064C117.333 253.407 115.888 254.478 114.188 254.478C113.814 254.478 113.627 254.274 113.627 253.951V252.676C113.627 252.353 113.814 252.183 114.188 252.183C115.565 252.183 116.551 250.908 116.551 249.361V247.661C116.551 247.27 116.755 247.049 117.112 247.049H118.472C118.812 247.049 119.016 247.27 119.016 247.661V249.361C119.016 250.908 120.002 252.183 121.379 252.183C121.736 252.183 121.906 252.353 121.906 252.676V253.951C121.906 254.291 121.736 254.478 121.379 254.478C119.713 254.478 118.268 253.39 117.809 252.064ZM123.623 247.219C123.623 246.862 123.827 246.658 124.184 246.658H125.527C125.884 246.658 126.088 246.862 126.088 247.219V254.359C126.088 254.716 125.884 254.92 125.527 254.92H124.184C123.827 254.92 123.623 254.716 123.623 254.359V247.219ZM132.218 258.66L132.252 259.357C132.269 259.697 132.439 259.85 132.779 259.85H137.641C137.981 259.85 138.151 259.697 138.168 259.357L138.202 258.66H132.218ZM138.321 261.975H132.099C130.688 261.975 129.889 261.329 129.821 260.105L129.566 255.923C129.549 255.583 129.77 255.362 130.127 255.362H131.487C131.844 255.362 132.031 255.549 132.048 255.923L132.082 256.535H138.338L138.372 255.923C138.389 255.549 138.576 255.362 138.933 255.362H140.293C140.65 255.362 140.871 255.583 140.854 255.923L140.599 260.105C140.531 261.329 139.732 261.975 138.321 261.975ZM134.513 254.308H133.136C132.745 254.308 132.592 254.104 132.711 253.781C133.085 252.744 133.323 251.452 133.323 250.568C133.323 249.633 133.051 249.344 132.184 249.344C130.603 249.344 129.804 249.531 128.682 249.65C128.359 249.684 128.155 249.48 128.155 249.123V247.882C128.155 247.559 128.308 247.406 128.682 247.355C130.365 247.134 131.232 247.049 132.558 247.049C134.836 247.049 135.805 248.018 135.805 250.279C135.805 251.486 135.431 253.135 135.176 253.9C135.074 254.206 134.887 254.308 134.513 254.308ZM138.066 251.129C137.896 251.418 137.556 251.588 137.097 251.588H136.791C136.451 251.588 136.264 251.401 136.264 251.061V249.82C136.264 249.48 136.451 249.293 136.791 249.293H137.165C137.743 249.293 138.066 248.987 138.066 248.443V247.219C138.066 246.862 138.27 246.658 138.627 246.658H139.97C140.327 246.658 140.531 246.862 140.531 247.219V253.849C140.531 254.206 140.327 254.41 139.97 254.41H138.627C138.27 254.41 138.066 254.206 138.066 253.849V251.129ZM146.916 251.418C146.916 250.313 146.576 250.024 145.777 250.024C144.961 250.024 143.907 250.194 142.955 250.33C142.632 250.381 142.428 250.16 142.428 249.803V248.562C142.428 248.239 142.581 248.12 142.955 248.035C143.907 247.814 144.944 247.729 145.981 247.729C148.225 247.729 149.228 248.647 149.228 251.129C149.228 251.537 149.228 251.962 149.211 252.37H150.401C150.741 252.37 150.928 252.2 150.928 251.877V247.355C150.928 246.998 151.098 246.828 151.455 246.828H152.696C153.053 246.828 153.223 246.998 153.223 247.355V261.363C153.223 261.72 153.053 261.89 152.696 261.89H151.455C151.098 261.89 150.928 261.72 150.928 261.363V254.495C150.809 254.648 150.605 254.75 150.367 254.75H149.092C148.99 256.212 148.82 257.674 148.599 259.085C148.548 259.442 148.395 259.578 148.038 259.578H146.797C146.44 259.578 146.253 259.408 146.304 259.051C146.678 256.263 146.916 253.73 146.916 251.418ZM154.158 247.185C154.158 246.828 154.328 246.658 154.685 246.658H155.926C156.283 246.658 156.453 246.828 156.453 247.185V261.363C156.453 261.72 156.283 261.89 155.926 261.89H154.685C154.328 261.89 154.158 261.72 154.158 261.363V247.185ZM175.236 259.476C173.995 259.476 173.128 259.425 170.017 259.425C167.518 259.425 167.076 259.544 167.076 259.901C167.076 260.275 167.603 260.326 170.952 260.326C172.346 260.326 174.471 260.224 175.593 260.02C175.865 259.969 176.052 260.105 176.069 260.377L176.154 261.397C176.171 261.635 176.018 261.805 175.763 261.839C174.539 262.009 172.363 262.145 170.969 262.145C166.056 262.145 164.611 261.669 164.611 259.867C164.611 258.082 166.277 257.606 169.983 257.606C170.918 257.606 171.989 257.589 172.737 257.589C173.179 257.589 173.366 257.47 173.366 257.232C173.366 256.977 173.196 256.858 172.771 256.858C171.156 256.858 167.399 256.977 165.393 257.147C165.121 257.164 164.951 257.011 164.951 256.739V255.719C164.951 255.464 165.087 255.328 165.393 255.311C167.96 255.124 171.479 255.022 174.114 255.107C175.202 255.141 175.814 255.583 175.814 256.399C175.814 257.062 175.44 257.555 174.828 257.759H175.236C175.491 257.759 175.678 257.912 175.678 258.15V259.068C175.678 259.306 175.508 259.476 175.236 259.476ZM171.037 252.523C171.989 252.557 174.93 252.489 176.256 252.387C176.613 252.353 176.8 252.506 176.8 252.863V253.764C176.8 254.07 176.664 254.24 176.273 254.274C175.219 254.376 172.771 254.41 170.119 254.41C167.739 254.41 165.461 254.393 163.982 254.274C163.591 254.24 163.455 254.087 163.455 253.764V252.863C163.455 252.506 163.625 252.353 163.982 252.387C165.24 252.472 166.77 252.523 168.334 252.54C168.096 252.438 167.96 252.217 167.96 251.945V250.84C167.96 250.483 168.164 250.279 168.521 250.279H169.881C170.238 250.279 170.425 250.483 170.425 250.84V251.996C170.425 252.319 170.629 252.506 171.037 252.523ZM172.363 247.032C174.59 247.032 175.559 247.848 175.559 249.803C175.559 250.432 175.491 251.01 175.287 251.775C175.202 252.115 175.049 252.2 174.709 252.149L173.298 251.945C172.958 251.894 172.805 251.775 172.907 251.435C173.026 251.061 173.111 250.551 173.111 250.262C173.111 249.429 172.669 249.106 171.632 249.106C169.864 249.106 167.688 249.242 165.41 249.395C165.087 249.412 164.866 249.225 164.866 248.919V247.831C164.866 247.542 165.087 247.355 165.41 247.321C166.889 247.202 169.745 247.032 172.363 247.032ZM188.337 255.855C187.997 255.804 187.878 255.685 187.946 255.345C188.167 254.223 188.235 252.88 188.235 251.877C188.235 250.568 187.538 249.854 186.246 249.854C184.648 249.854 182.812 250.024 180.534 250.143C180.211 250.16 179.99 249.973 179.99 249.667V248.341C179.99 248.069 180.194 247.865 180.534 247.831C182.914 247.593 185.039 247.542 186.807 247.542C189.323 247.542 190.683 248.885 190.683 251.384C190.683 252.931 190.581 254.427 190.326 255.685C190.258 256.025 190.088 256.11 189.748 256.059L188.337 255.855ZM179.14 260.275C178.749 260.224 178.579 260.054 178.579 259.731V258.473C178.579 258.116 178.783 257.929 179.14 257.963C180.381 258.082 182.064 258.218 183.594 258.252C183.288 258.116 183.084 257.793 183.084 257.368V254.24C183.084 253.883 183.288 253.679 183.645 253.679H185.005C185.362 253.679 185.549 253.883 185.549 254.24V257.504C185.549 257.963 185.787 258.201 186.28 258.218C187.453 258.252 190.02 258.133 191.346 257.963C191.703 257.912 191.924 258.116 191.924 258.473V259.731C191.924 260.037 191.754 260.207 191.363 260.275C190.309 260.462 187.895 260.564 185.243 260.564C182.863 260.564 180.619 260.479 179.14 260.275ZM199.143 258.898C199.143 258.541 199.279 258.286 199.517 258.184C197.63 258.167 195.624 258.082 194.264 257.895C193.873 257.844 193.703 257.674 193.703 257.351V256.093C193.703 255.736 193.907 255.532 194.264 255.583C195.726 255.77 197.97 255.872 200.35 255.872C203.002 255.872 205.416 255.753 206.47 255.583C206.827 255.515 207.048 255.736 207.048 256.093V257.351C207.048 257.657 206.878 257.827 206.487 257.895C205.671 258.031 204.073 258.133 202.186 258.167C201.778 258.184 201.608 258.354 201.608 258.745V260.734C201.608 261.091 201.421 261.295 201.064 261.295H199.704C199.347 261.295 199.143 261.091 199.143 260.734V258.898ZM205.229 251.843C203.988 251.843 203.376 251.792 200.265 251.792C197.766 251.792 197.579 251.945 197.579 252.319C197.579 252.693 197.851 252.761 201.2 252.761C202.594 252.761 204.379 252.642 205.501 252.421C205.773 252.37 205.943 252.506 206.011 252.846L206.232 253.832C206.3 254.121 206.096 254.325 205.841 254.376C204.668 254.58 202.611 254.767 201.217 254.767C196.304 254.767 195.114 254.342 195.114 252.251C195.114 250.194 196.525 249.803 200.231 249.803H202.73C203.172 249.803 203.359 249.633 203.359 249.412C203.359 249.174 203.189 249.072 202.764 249.072C201.149 249.072 197.902 249.157 195.896 249.361C195.624 249.395 195.454 249.191 195.454 248.851V247.865C195.454 247.559 195.59 247.389 195.896 247.355C197.868 247.185 200.095 247.066 202.22 247.066C202.866 247.066 203.495 247.083 204.107 247.1C205.195 247.151 205.807 247.695 205.807 248.63C205.807 249.378 205.433 249.786 204.838 250.007H205.229C205.484 250.007 205.671 250.194 205.671 250.483V251.333C205.671 251.639 205.501 251.843 205.229 251.843ZM210.221 259.493C211.139 259.493 211.683 260.088 211.683 261.057C211.683 262.4 210.612 263.403 209.184 263.403C209.048 263.403 208.963 263.318 208.963 263.182V262.808C208.963 262.672 209.031 262.587 209.167 262.57C209.541 262.519 209.762 262.451 209.881 262.281C209.201 262.145 208.776 261.618 208.776 260.904C208.776 260.037 209.337 259.493 210.221 259.493ZM229.563 247.185C229.563 246.828 229.733 246.658 230.09 246.658H231.331C231.688 246.658 231.858 246.828 231.858 247.185V261.363C231.858 261.72 231.688 261.89 231.331 261.89H230.09C229.733 261.89 229.563 261.72 229.563 261.363V254.818H228.866C228.492 254.818 228.203 255.09 228.203 255.464V261.363C228.203 261.72 228.033 261.89 227.676 261.89H226.435C226.078 261.89 225.908 261.72 225.908 261.363V247.355C225.908 246.998 226.078 246.828 226.435 246.828H227.676C228.033 246.828 228.203 246.998 228.203 247.355V252.761C228.356 252.557 228.628 252.438 228.917 252.438H229.563V247.185ZM222.576 246.777V247.695C222.576 247.916 222.729 248.069 223.035 248.069H224.429C224.786 248.069 224.99 248.273 224.99 248.63V249.803C224.99 250.16 224.786 250.364 224.429 250.364H222.661V254.41C222.661 256.076 223.392 257.113 224.548 257.283C224.905 257.334 225.075 257.504 225.075 257.827V259.102C225.075 259.442 224.905 259.612 224.548 259.578C223.052 259.408 221.879 258.473 221.522 257.079C221.131 258.473 219.89 259.408 218.309 259.578C217.952 259.612 217.748 259.442 217.748 259.102V257.827C217.748 257.504 217.935 257.334 218.309 257.283C219.533 257.113 220.349 256.008 220.349 254.41V250.364H218.394C218.037 250.364 217.833 250.16 217.833 249.803V248.63C217.833 248.273 218.037 248.069 218.394 248.069H220.519C220.349 247.967 220.264 247.814 220.264 247.576V246.777C220.264 246.42 220.434 246.25 220.791 246.25H222.049C222.406 246.25 222.576 246.42 222.576 246.777ZM234.655 260.275C234.264 260.224 234.094 260.054 234.094 259.731V258.473C234.094 258.116 234.298 257.929 234.655 257.963C235.93 258.082 238.157 258.218 240.061 258.269C239.738 258.116 239.534 257.793 239.534 257.368V256.11C239.534 255.753 239.738 255.549 240.095 255.549H241.455C241.812 255.549 241.999 255.753 241.999 256.11V257.504C241.999 258.218 242.526 258.218 243.07 258.218C244.005 258.218 245.688 258.116 246.861 257.963C247.218 257.912 247.439 258.116 247.439 258.473V259.731C247.439 260.037 247.269 260.207 246.878 260.275C245.824 260.462 243.41 260.564 240.758 260.564C238.378 260.564 236.134 260.479 234.655 260.275ZM240.843 253.339C240.18 254.869 238.463 256.008 236.185 256.008C235.794 256.008 235.335 256.008 235.335 255.481V254.206C235.335 253.883 235.522 253.713 235.896 253.713C238.31 253.713 239.619 252.353 239.619 250.466V248.103C239.619 247.746 239.823 247.542 240.18 247.542H241.523C241.88 247.542 242.084 247.746 242.084 248.103V250.466C242.084 252.353 243.376 253.713 245.773 253.713C246.147 253.713 246.334 253.883 246.334 254.206V255.481C246.334 256.008 245.875 256.008 245.484 256.008C243.206 256.008 241.489 254.869 240.843 253.339ZM249.184 260.615C248.793 260.564 248.623 260.394 248.623 260.071V258.813C248.623 258.456 248.827 258.252 249.184 258.303C250.085 258.422 251.105 258.524 252.346 258.558C252.057 258.422 251.904 258.099 251.904 257.674V256.144C250.187 255.634 249.184 254.036 249.184 251.758C249.184 248.953 250.68 247.219 253.179 247.219C255.678 247.219 257.174 248.953 257.174 251.758C257.174 254.087 256.137 255.685 254.369 256.161V257.81C254.369 258.269 254.607 258.524 255.1 258.524C255.746 258.524 256.392 258.456 257.225 258.303C257.582 258.235 257.803 258.456 257.803 258.813V260.071C257.803 260.377 257.633 260.53 257.242 260.615C256.528 260.768 254.794 260.87 253.162 260.87C251.292 260.87 250.323 260.785 249.184 260.615ZM261.05 261.329C261.05 261.686 260.846 261.89 260.489 261.89H259.146C258.789 261.89 258.585 261.686 258.585 261.329V247.219C258.585 246.862 258.789 246.658 259.146 246.658H260.489C260.846 246.658 261.05 246.862 261.05 247.219V252.914C261.237 252.625 261.628 252.438 262.104 252.438H262.648C262.988 252.438 263.175 252.625 263.175 252.965V254.291C263.175 254.631 262.988 254.818 262.648 254.818H262.036C261.458 254.818 261.05 255.209 261.05 255.753V261.329ZM251.615 251.758C251.615 253.169 252.21 254.019 253.179 254.019C254.148 254.019 254.743 253.169 254.743 251.758C254.743 250.347 254.148 249.514 253.179 249.514C252.21 249.514 251.615 250.347 251.615 251.758ZM87.1021 283.847C87.1021 281.62 89.1591 280.532 93.1711 280.532C97.1831 280.532 99.2401 281.62 99.2401 283.847C99.2401 286.074 97.1831 287.162 93.1711 287.162C89.1591 287.162 87.1021 286.074 87.1021 283.847ZM96.6051 272.185C96.6051 271.828 96.7751 271.658 97.1321 271.658H98.3731C98.7301 271.658 98.9001 271.828 98.9001 272.185V279.393C98.9001 279.75 98.7301 279.92 98.3731 279.92H97.1321C96.7751 279.92 96.6051 279.75 96.6051 279.393V276.69H95.9931C95.6191 276.69 95.3301 276.962 95.3301 277.336V279.053C95.3301 279.41 95.1601 279.58 94.8031 279.58H93.5621C93.2051 279.58 93.0351 279.41 93.0351 279.053V272.355C93.0351 271.998 93.2051 271.828 93.5621 271.828H94.8031C95.1601 271.828 95.3301 271.998 95.3301 272.355V274.701C95.4661 274.514 95.7041 274.395 95.9931 274.395H96.6051V272.185ZM89.8391 274.99C89.8391 276.231 90.4681 277.183 91.6921 277.183C92.0491 277.183 92.2191 277.353 92.2191 277.676V278.951C92.2191 279.274 92.0661 279.478 91.7261 279.478C90.3831 279.478 89.1421 278.594 88.7001 277.319C88.2241 278.628 86.8471 279.478 85.4871 279.478C85.1301 279.478 84.9601 279.257 84.9601 278.951V277.676C84.9601 277.353 85.1471 277.183 85.5211 277.183C86.7961 277.183 87.5271 276.18 87.5271 274.99V272.576C87.5271 272.219 87.6971 272.049 88.0541 272.049H89.3121C89.6691 272.049 89.8391 272.219 89.8391 272.661V274.99ZM93.1711 284.952C95.8061 284.952 96.7751 284.663 96.7751 283.847C96.7751 283.031 95.8061 282.742 93.1711 282.742C90.5361 282.742 89.5671 283.031 89.5671 283.847C89.5671 284.663 90.5361 284.952 93.1711 284.952ZM105.034 277.744C104.558 279.087 103.113 280.158 101.413 280.158C101.039 280.158 100.852 279.954 100.852 279.631V278.356C100.852 278.033 101.039 277.863 101.413 277.863C102.79 277.863 103.776 276.588 103.776 275.041V272.661C103.776 272.27 103.98 272.049 104.337 272.049H105.697C106.037 272.049 106.241 272.27 106.241 272.661V275.041C106.241 276.588 107.227 277.863 108.604 277.863C108.961 277.863 109.131 278.033 109.131 278.356V279.631C109.131 279.971 108.961 280.158 108.604 280.158C106.938 280.158 105.493 279.07 105.034 277.744ZM110.848 275.959C110.678 276.248 110.338 276.418 109.879 276.418H108.553C108.213 276.418 108.026 276.231 108.026 275.891V274.65C108.026 274.31 108.213 274.123 108.553 274.123H109.947C110.525 274.123 110.848 273.817 110.848 273.273V272.219C110.848 271.862 111.052 271.658 111.409 271.658H112.752C113.109 271.658 113.313 271.862 113.313 272.219V281.399C113.313 281.756 113.109 281.96 112.752 281.96H111.409C111.052 281.96 110.848 281.756 110.848 281.399V275.959ZM106.479 287.145C103.878 287.145 102.399 285.921 102.399 283.779C102.399 282.929 102.45 282.538 102.501 282.13C102.552 281.773 102.705 281.569 103.062 281.569H104.405C104.762 281.569 105.017 281.773 104.966 282.13C104.898 282.657 104.864 282.946 104.864 283.405C104.864 284.374 105.493 284.85 106.785 284.85C109.08 284.85 111.358 284.714 113.16 284.544C113.5 284.51 113.67 284.731 113.687 285.071L113.772 286.312C113.789 286.652 113.585 286.805 113.245 286.839C111.545 287.026 109.471 287.145 106.479 287.145ZM119.29 274.548C119.29 275.16 120.004 275.347 122.384 275.347C124.764 275.347 125.478 275.16 125.478 274.548C125.478 273.919 124.798 273.732 122.384 273.732C119.97 273.732 119.29 273.919 119.29 274.548ZM127.365 284.544C126.124 284.544 125.257 284.493 122.146 284.493C119.647 284.493 119.205 284.595 119.205 284.952C119.205 285.326 119.732 285.36 123.081 285.36C124.475 285.36 126.6 285.258 127.722 285.054C127.994 285.003 128.181 285.139 128.198 285.411L128.283 286.397C128.3 286.635 128.147 286.805 127.892 286.839C126.668 287.009 124.492 287.145 123.098 287.145C118.185 287.145 116.74 286.72 116.74 284.918C116.74 283.133 118.406 282.708 122.112 282.708C123.047 282.708 124.118 282.691 124.866 282.691C125.308 282.691 125.495 282.589 125.495 282.351C125.495 282.096 125.325 281.994 124.9 281.994C123.285 281.994 119.528 282.113 117.522 282.283C117.25 282.3 117.08 282.147 117.08 281.875V280.889C117.08 280.634 117.216 280.498 117.522 280.481C120.089 280.294 123.608 280.192 126.243 280.277C127.331 280.311 127.943 280.702 127.943 281.518C127.943 282.181 127.569 282.657 126.957 282.861H127.365C127.62 282.861 127.807 283.014 127.807 283.252V284.136C127.807 284.374 127.637 284.544 127.365 284.544ZM122.231 277.778C124.883 277.778 127.331 277.744 128.385 277.642C128.742 277.608 128.929 277.761 128.929 278.118V279.019C128.929 279.325 128.793 279.495 128.402 279.529C127.348 279.631 124.9 279.665 122.248 279.665C119.868 279.665 117.59 279.648 116.111 279.529C115.72 279.495 115.584 279.342 115.584 279.019V278.118C115.584 277.761 115.754 277.608 116.111 277.642C117.573 277.761 119.851 277.778 122.231 277.778ZM122.384 271.862C126.362 271.862 127.943 272.627 127.943 274.548C127.943 276.452 126.362 277.217 122.384 277.217C118.406 277.217 116.825 276.452 116.825 274.548C116.825 272.627 118.406 271.862 122.384 271.862ZM144.075 280.43C143.582 280.43 143.378 280.668 143.378 281.059V281.263C146.71 281.416 148.087 282.3 148.087 284.204C148.087 286.312 146.404 287.162 142.273 287.162C138.142 287.162 136.459 286.312 136.459 284.204C136.459 282.351 137.768 281.467 140.913 281.28V281.144C140.913 280.804 141.083 280.549 141.355 280.43C139.23 280.43 137.394 280.396 136.034 280.294C135.643 280.26 135.473 280.073 135.473 279.75V278.747C135.473 278.39 135.677 278.203 136.034 278.237C137.496 278.356 139.74 278.373 142.12 278.373C144.772 278.373 147.186 278.339 148.24 278.237C148.597 278.203 148.818 278.39 148.818 278.747V279.75C148.818 280.056 148.648 280.26 148.257 280.294C147.424 280.379 145.554 280.43 144.075 280.43ZM143.463 271.335V271.998C143.463 272.219 143.616 272.372 143.922 272.372H146.897C147.254 272.372 147.458 272.576 147.458 272.933V273.936C147.458 274.293 147.254 274.497 146.897 274.497H143.82C144.364 275.109 145.503 275.5 147.152 275.5C147.526 275.5 147.713 275.67 147.713 275.993V277.098C147.713 277.421 147.526 277.608 147.152 277.625C144.925 277.727 142.936 276.758 142.222 275.432C141.491 276.758 139.502 277.727 137.275 277.625C136.901 277.608 136.714 277.421 136.714 277.098V275.993C136.714 275.67 136.901 275.5 137.275 275.5C138.924 275.5 140.08 275.109 140.641 274.497H137.53C137.173 274.497 136.969 274.293 136.969 273.936V272.933C136.969 272.576 137.173 272.372 137.53 272.372H141.253C141.083 272.27 140.998 272.117 140.998 271.879V271.335C140.998 270.978 141.168 270.808 141.525 270.808H142.936C143.293 270.808 143.463 270.978 143.463 271.335ZM138.924 284.204C138.924 284.935 139.587 285.122 142.273 285.122C144.959 285.122 145.622 284.935 145.622 284.204C145.622 283.473 144.959 283.286 142.273 283.286C139.587 283.286 138.924 283.473 138.924 284.204ZM154.422 275.177L154.473 275.925C154.49 276.231 154.626 276.35 155 276.35H159.522C159.896 276.35 160.032 276.231 160.049 275.925L160.1 275.177H154.422ZM156.734 281.263C154.813 281.297 152.518 281.246 151.158 281.144C150.767 281.11 150.597 280.923 150.597 280.6V279.597C150.597 279.24 150.801 279.053 151.158 279.087C152.62 279.206 154.864 279.223 157.244 279.223C159.896 279.223 162.31 279.189 163.364 279.087C163.721 279.053 163.942 279.24 163.942 279.597V280.6C163.942 280.906 163.772 281.11 163.381 281.144C162.548 281.229 160.848 281.28 159.454 281.28C159.046 281.28 158.842 281.484 158.842 281.807V283.303C158.842 283.66 158.655 283.864 158.298 283.864H156.938C156.581 283.864 156.377 283.66 156.377 283.303V281.858C156.377 281.586 156.513 281.382 156.734 281.263ZM160.542 278.305H153.98C152.739 278.305 152.11 277.778 152.042 276.639L151.787 272.576C151.77 272.253 151.974 272.032 152.348 272.032H153.691C154.082 272.032 154.252 272.168 154.269 272.525L154.303 273.222H160.219L160.253 272.525C160.27 272.168 160.457 272.032 160.831 272.032H162.174C162.548 272.032 162.752 272.236 162.735 272.576L162.48 276.639C162.412 277.778 161.783 278.305 160.542 278.305ZM162.786 286.839C160.644 287.043 157.89 287.145 155.221 287.145C152.994 287.145 151.753 286.023 151.753 284.017C151.753 283.439 151.804 283.133 151.855 282.81C151.923 282.419 152.093 282.249 152.416 282.249H153.759C154.15 282.249 154.371 282.47 154.32 282.81C154.286 283.048 154.218 283.422 154.218 283.711C154.218 284.476 154.677 284.85 155.51 284.85C158.077 284.85 160.814 284.731 162.633 284.544C162.956 284.51 163.194 284.714 163.211 285.071L163.296 286.278C163.313 286.601 163.143 286.805 162.786 286.839ZM168.118 280.447C168.118 281.637 168.645 282.317 169.563 282.317C170.481 282.317 171.008 281.637 171.008 280.447C171.008 279.257 170.481 278.577 169.563 278.577C168.645 278.577 168.118 279.257 168.118 280.447ZM169.563 276.316C172.011 276.316 173.439 277.846 173.439 280.447C173.439 283.048 172.011 284.578 169.563 284.578C167.115 284.578 165.687 283.048 165.687 280.447C165.687 277.846 167.115 276.316 169.563 276.316ZM175.428 272.219C175.428 271.862 175.632 271.658 175.989 271.658H177.332C177.689 271.658 177.893 271.862 177.893 272.219V286.329C177.893 286.686 177.689 286.89 177.332 286.89H175.989C175.632 286.89 175.428 286.686 175.428 286.329V272.219ZM170.821 271.777V272.695C170.821 272.916 170.974 273.069 171.28 273.069H173.405C173.762 273.069 173.966 273.273 173.966 273.63V274.803C173.966 275.16 173.762 275.364 173.405 275.364H165.738C165.381 275.364 165.177 275.16 165.177 274.803V273.63C165.177 273.273 165.381 273.069 165.738 273.069H168.611C168.441 272.967 168.356 272.814 168.356 272.576V271.777C168.356 271.42 168.526 271.25 168.883 271.25H170.294C170.651 271.25 170.821 271.42 170.821 271.777ZM188.448 283.66L188.482 284.357C188.499 284.697 188.669 284.85 189.009 284.85H193.871C194.211 284.85 194.381 284.697 194.398 284.357L194.432 283.66H188.448ZM194.551 286.975H188.329C186.918 286.975 186.119 286.329 186.051 285.105L185.796 280.923C185.779 280.583 186 280.362 186.357 280.362H187.717C188.074 280.362 188.261 280.549 188.278 280.923L188.312 281.535H194.568L194.602 280.923C194.619 280.549 194.806 280.362 195.163 280.362H196.523C196.88 280.362 197.101 280.583 197.084 280.923L196.829 285.105C196.761 286.329 195.962 286.975 194.551 286.975ZM188.822 276.877C188.346 278.169 186.901 279.308 185.201 279.308C184.827 279.308 184.64 279.104 184.64 278.781V277.506C184.64 277.183 184.827 277.013 185.201 277.013C186.578 277.013 187.564 275.823 187.564 274.361V272.661C187.564 272.27 187.768 272.049 188.125 272.049H189.485C189.825 272.049 190.029 272.27 190.029 272.661V274.361C190.029 275.823 191.015 277.013 192.392 277.013C192.749 277.013 192.919 277.183 192.919 277.506V278.781C192.919 279.121 192.749 279.308 192.392 279.308C190.726 279.308 189.281 278.152 188.822 276.877ZM194.636 275.534C194.466 275.823 194.126 275.993 193.667 275.993H192.341C192.001 275.993 191.814 275.806 191.814 275.466V274.225C191.814 273.885 192.001 273.698 192.341 273.698H193.735C194.313 273.698 194.636 273.392 194.636 272.848V272.219C194.636 271.862 194.84 271.658 195.197 271.658H196.54C196.897 271.658 197.101 271.862 197.101 272.219V278.849C197.101 279.206 196.897 279.41 196.54 279.41H195.197C194.84 279.41 194.636 279.206 194.636 278.849V275.534ZM204.727 271.335V271.998C204.727 272.219 204.88 272.372 205.186 272.372H206.971C207.328 272.372 207.532 272.576 207.532 272.933V274.106C207.532 274.463 207.328 274.667 206.971 274.667H204.727V275.33C204.727 276.418 205.577 277.2 207.005 277.2C207.362 277.2 207.532 277.37 207.532 277.693V278.968C207.532 279.308 207.362 279.495 207.005 279.495C205.407 279.495 203.979 278.594 203.503 277.438C203.044 278.594 201.599 279.495 199.984 279.495C199.61 279.495 199.423 279.291 199.423 278.968V277.693C199.423 277.37 199.61 277.2 199.984 277.2C201.412 277.2 202.262 276.418 202.262 275.33V274.667H199.984C199.627 274.667 199.423 274.463 199.423 274.106V272.933C199.423 272.576 199.627 272.372 199.984 272.372H202.517C202.347 272.27 202.262 272.117 202.262 271.879V271.335C202.262 270.978 202.432 270.808 202.789 270.808H204.2C204.557 270.808 204.727 270.978 204.727 271.335ZM211.544 286.329C211.544 286.686 211.34 286.89 210.983 286.89H209.64C209.283 286.89 209.079 286.686 209.079 286.329V272.219C209.079 271.862 209.283 271.658 209.64 271.658H210.983C211.34 271.658 211.544 271.862 211.544 272.219V286.329ZM205.339 282.946C204.846 282.946 204.608 283.201 204.608 283.66V286.074C204.608 286.431 204.421 286.635 204.064 286.635H202.704C202.347 286.635 202.143 286.431 202.143 286.074V283.864C202.143 283.439 202.364 283.099 202.687 282.963C201.14 282.946 200.205 282.878 199.168 282.725C198.777 282.674 198.607 282.504 198.607 282.181V280.923C198.607 280.566 198.811 280.362 199.168 280.413C200.29 280.583 201.599 280.668 203.469 280.668C205.101 280.668 207.175 280.566 207.889 280.413C208.246 280.345 208.467 280.566 208.467 280.923V282.181C208.467 282.487 208.297 282.64 207.906 282.725C207.413 282.827 206.512 282.912 205.339 282.946ZM217.658 282.317C218.576 282.317 219.103 281.637 219.103 280.447C219.103 279.257 218.576 278.577 217.658 278.577C216.74 278.577 216.213 279.257 216.213 280.447C216.213 281.637 216.74 282.317 217.658 282.317ZM217.658 276.316C220.106 276.316 221.534 277.846 221.534 280.447C221.534 283.048 220.106 284.578 217.658 284.578C215.21 284.578 213.782 283.048 213.782 280.447C213.782 277.846 215.21 276.316 217.658 276.316ZM225.648 286.329C225.648 286.686 225.444 286.89 225.087 286.89H223.744C223.387 286.89 223.183 286.686 223.183 286.329V272.219C223.183 271.862 223.387 271.658 223.744 271.658H225.087C225.444 271.658 225.648 271.862 225.648 272.219V277.914C225.835 277.625 226.226 277.438 226.702 277.438H227.246C227.586 277.438 227.773 277.625 227.773 277.965V279.291C227.773 279.631 227.586 279.818 227.246 279.818H226.634C226.056 279.818 225.648 280.209 225.648 280.753V286.329ZM218.916 272.695C218.916 272.916 219.069 273.069 219.375 273.069H221.5C221.857 273.069 222.061 273.273 222.061 273.63V274.803C222.061 275.16 221.857 275.364 221.5 275.364H213.833C213.476 275.364 213.272 275.16 213.272 274.803V273.63C213.272 273.273 213.476 273.069 213.833 273.069H216.706C216.536 272.967 216.451 272.814 216.451 272.576V271.777C216.451 271.42 216.621 271.25 216.978 271.25H218.389C218.746 271.25 218.916 271.42 218.916 271.777V272.695ZM233.632 284.017C234.057 281.229 234.244 279.07 234.244 276.758C234.244 275.483 233.904 275.024 232.935 275.024C231.439 275.024 230.555 275.211 229.433 275.33C229.11 275.364 228.906 275.16 228.906 274.803V273.562C228.906 273.239 229.059 273.086 229.433 273.035C231.15 272.797 232.102 272.729 233.309 272.729C235.723 272.729 236.726 273.817 236.726 276.469C236.726 279.189 236.556 281.535 236.097 284.085C236.029 284.459 235.876 284.578 235.519 284.578H234.159C233.785 284.578 233.581 284.357 233.632 284.017ZM238.647 272.219C238.647 271.862 238.851 271.658 239.208 271.658H240.551C240.908 271.658 241.112 271.862 241.112 272.219V286.329C241.112 286.686 240.908 286.89 240.551 286.89H239.208C238.851 286.89 238.647 286.686 238.647 286.329V272.219Z" fill="#13183A"/>
<path d="M30.4092 43.95C29.4092 43.95 28.8592 43.4 28.8592 42.4V38.5C28.8592 37.5 29.4092 36.95 30.4092 36.95C36.5092 36.95 38.8592 35.65 38.8592 32.2C38.8592 29.65 36.3592 28.2 32.0092 28.2C27.3592 28.2 25.1592 29.45 25.1592 32.05C25.1592 33.1 24.5592 33.7 23.5092 33.7H19.5592C18.5092 33.7 17.9092 33.1 17.9092 32.05C17.9092 25.15 23.0092 21.2 32.0092 21.2C40.8592 21.2 46.1092 24.85 46.1092 30.95C46.1092 34.85 43.9092 38.15 40.5592 39.6C45.0592 40.8 48.1092 44.65 48.1092 49.7C48.1092 57 42.1592 61.5 32.5092 61.5C22.8092 61.5 16.9092 57.4 16.9092 50.65C16.9092 49.6 17.5092 49 18.5592 49H22.5092C23.5592 49 24.1592 49.6 24.1592 50.65C24.1592 53.15 27.1092 54.5 32.5092 54.5C38.0592 54.5 40.8592 52.7 40.8592 49.2C40.8592 45.2 38.4092 43.95 30.4092 43.95Z" fill="#6A9BEA"/>
<path d="M168.238 218.544C215.878 218.544 254.498 179.924 254.498 132.284C254.498 84.6442 215.878 46.0244 168.238 46.0244C120.598 46.0244 81.9785 84.6442 81.9785 132.284C81.9785 179.924 120.598 218.544 168.238 218.544Z" fill="#E8EEEF"/>
<path d="M164.276 214.583C211.916 214.583 250.536 175.963 250.536 128.323C250.536 80.6833 211.916 42.0635 164.276 42.0635C116.636 42.0635 78.0166 80.6833 78.0166 128.323C78.0166 175.963 116.636 214.583 164.276 214.583Z" fill="white"/>
<path d="M81.1065 125.369L77.4013 129.757L56.5364 112.119C55.3241 111.095 55.1704 109.285 56.1949 108.073C57.2193 106.86 59.0293 106.707 60.2416 107.731L81.1065 125.369Z" fill="#54774D"/>
<path d="M82.49 131.96L80.3557 137.304L54.9831 127.162C53.5147 126.581 52.7976 124.908 53.3781 123.423C53.9587 121.954 55.632 121.237 57.1174 121.818L82.49 131.96Z" fill="#54774D"/>
<path d="M81.0383 128.153L78.2039 133.156L54.4534 119.65C53.0704 118.864 52.5923 117.106 53.3777 115.74C54.1631 114.357 55.9218 113.879 57.2878 114.664L81.0383 128.153Z" fill="#6D8C67"/>
<path d="M82.8303 123.748L87.4404 120.299L71.0831 98.4093C70.127 97.1458 68.3342 96.8726 67.0536 97.8288C65.7901 98.785 65.5169 100.578 66.4731 101.858L82.8303 123.748Z" fill="#54774D"/>
<path d="M89.3363 125.506L94.783 123.696L86.1776 97.7602C85.6824 96.2576 84.0433 95.4381 82.5407 95.9332C81.0382 96.4284 80.2186 98.0675 80.7137 99.5701L89.3363 125.506Z" fill="#54774D"/>
<path d="M85.6306 123.833L90.7871 121.289L78.7155 96.77C78.0154 95.3528 76.2909 94.7552 74.8737 95.4553C73.4566 96.1553 72.859 97.8798 73.559 99.297L85.6306 123.833Z" fill="#6D8C67"/>
<path d="M82.386 120.811L78.2028 124.755L59.4722 104.864C58.3794 103.702 58.4307 101.893 59.5917 100.8C60.7528 99.7071 62.5627 99.7583 63.6554 100.919L82.386 120.811Z" fill="#6D8C67"/>
<path d="M109.483 111.352C110.44 112.359 111.584 113.725 112.915 115.398C120.223 124.618 132.585 143.144 141.464 160.338C142.318 162.011 143.154 163.65 143.923 165.29C150.821 179.632 154.577 192.284 149.899 196.689C143.427 202.785 122.084 191.772 102.483 178.744C100.98 177.737 99.4608 176.729 97.9924 175.705C95.8752 174.219 93.7921 172.768 91.7432 171.3C90.2748 170.224 88.8234 169.165 87.4063 168.107C77.9983 161.123 70.4002 154.72 67.1219 151.254C56.109 139.558 63.3143 128.204 74.9932 117.191C86.7233 106.144 98.4705 99.6556 109.483 111.352Z" fill="#DD7928"/>
<path d="M103.799 156.309C104.789 157.367 104.755 159.04 103.679 160.048L91.7441 171.283C90.2757 170.207 88.8244 169.148 87.4072 168.09L100.042 156.189C101.135 155.182 102.808 155.25 103.799 156.309Z" fill="#C66822"/>
<path d="M115.905 162.456C116.913 163.531 116.861 165.188 115.786 166.195L102.485 178.71C100.982 177.703 99.4625 176.696 97.9941 175.671L112.149 162.336C113.225 161.346 114.898 161.397 115.905 162.456Z" fill="#C66822"/>
<path d="M141.465 160.338C142.319 162.011 143.155 163.651 143.924 165.29L133.918 174.715C132.859 175.705 131.169 175.654 130.179 174.595C129.171 173.52 129.223 171.846 130.298 170.856L141.465 160.338Z" fill="#C66822"/>
<path d="M109.501 111.352C110.44 112.342 111.601 113.725 112.916 115.398L98.3346 129.126C97.2589 130.134 95.5856 130.082 94.5782 129.024C93.5708 127.948 93.622 126.275 94.6977 125.267L109.501 111.352Z" fill="#C66822"/>
<path d="M188.435 206.781C195.809 206.781 201.787 200.803 201.787 193.428C201.787 186.054 195.809 180.076 188.435 180.076C181.061 180.076 175.083 186.054 175.083 193.428C175.083 200.803 181.061 206.781 188.435 206.781Z" fill="#CC4858"/>
<path d="M192.124 182.534C195.146 181.373 198.834 179.871 198.834 179.871C198.834 179.871 188.896 178.368 187.77 178.505C187.667 178.522 187.582 178.556 187.496 178.573C187.104 178.573 186.677 178.693 186.301 178.915L185.038 173.365L182.869 173.861L184.133 179.41C183.689 179.376 183.262 179.444 182.903 179.615C182.801 179.632 182.716 179.632 182.63 179.666C181.537 180.042 173.239 185.676 173.239 185.676C173.239 185.676 177.218 185.454 180.445 185.181C179.557 187.947 178.703 190.798 178.703 190.798C178.703 190.798 182.203 187.606 184.594 185.3C186.079 188.254 188.196 192.199 188.196 192.199C188.196 192.199 188.401 187.742 188.47 184.43C191.628 185.488 196.153 186.854 196.153 186.854C196.153 186.854 194.104 184.635 192.124 182.534Z" fill="#6D8C67"/>
<path d="M155.535 209.444C162.909 209.444 168.887 203.466 168.887 196.092C168.887 188.717 162.909 182.74 155.535 182.74C148.161 182.74 142.183 188.717 142.183 196.092C142.183 203.466 148.161 209.444 155.535 209.444Z" fill="#CC4858"/>
<path d="M163.97 188.271C167.163 188.698 171.141 189.125 171.141 189.125C171.141 189.125 163.133 183.064 162.058 182.654C161.972 182.62 161.87 182.603 161.784 182.586C161.443 182.398 161.016 182.295 160.572 182.312L162.109 176.831L159.975 176.234L158.438 181.715C158.062 181.459 157.652 181.322 157.26 181.305C157.174 181.271 157.089 181.237 156.986 181.22C155.86 181.032 145.871 182.022 145.871 182.022C145.871 182.022 149.474 183.712 152.428 185.027C150.345 187.025 148.21 189.142 148.21 189.142C148.21 189.142 152.803 188.015 156.013 187.11C155.911 190.423 155.894 194.879 155.894 194.879C155.894 194.879 158.199 191.054 159.838 188.186C162.109 190.611 165.438 193.974 165.438 193.974C165.438 193.974 164.721 191.072 163.97 188.271Z" fill="#6D8C67"/>
<path d="M200.15 86.7474C200.952 88.8817 201.276 91.255 200.85 93.7479C199.91 99.3141 195.454 103.788 189.888 104.71C189.837 104.71 189.802 104.727 189.751 104.727C186.592 105.222 184.065 107.578 183.502 110.754C182.836 112.513 182.273 114.271 181.76 116.081C181.743 116.149 181.726 116.218 181.709 116.286L181.692 116.081H169.023L169.006 116.286C168.989 116.218 168.972 116.149 168.955 116.081C168.442 114.271 167.879 112.496 167.213 110.754C166.94 109.166 166.154 107.8 165.062 106.741C163.969 105.683 162.552 104.983 160.964 104.727C160.913 104.71 160.861 104.71 160.827 104.71C155.261 103.788 150.822 99.3312 149.865 93.7479C149.439 91.255 149.746 88.8817 150.565 86.7474C145.716 83.7252 142.489 78.3468 142.489 72.2171C142.489 63.2189 149.439 55.8598 158.249 55.1598V55.1085C158.249 45.6493 165.915 38 175.357 38C184.8 38 192.466 45.6493 192.466 55.1085V55.1598C201.276 55.8598 208.226 63.2359 208.226 72.2171C208.226 78.3468 204.982 83.7252 200.15 86.7474Z" fill="#6D8C67"/>
<path d="M156.951 70.6289C156.951 70.6289 170.952 75.2732 175.34 90.8621" stroke="#54774D" stroke-width="1.39942" stroke-miterlimit="10"/>
<path d="M157.873 93.0816C157.873 93.0816 171.106 92.5864 175.357 102.336" stroke="#54774D" stroke-width="1.39942" stroke-miterlimit="10"/>
<path d="M166.615 52.8208C166.615 52.8208 174.555 58.8651 175.357 68.2561" stroke="#54774D" stroke-width="1.39942" stroke-miterlimit="10"/>
<path d="M193.747 70.6289C193.747 70.6289 179.746 75.2732 175.357 90.8621" stroke="#54774D" stroke-width="1.39942" stroke-miterlimit="10"/>
<path d="M192.842 93.0816C192.842 93.0816 179.609 92.5864 175.357 102.336" stroke="#54774D" stroke-width="1.39942" stroke-miterlimit="10"/>
<path d="M184.1 52.8208C184.1 52.8208 176.16 58.8651 175.357 68.2561" stroke="#54774D" stroke-width="1.39942" stroke-miterlimit="10"/>
<path d="M181.692 116.081H169.022L172.13 77.4416L173.872 58.0621C174.042 56.2693 176.655 56.2693 176.825 58.0621L178.584 77.4416L181.692 116.081Z" fill="#F9F9EA"/>
<path d="M234.008 128.101C233.803 130.799 232.966 133.514 231.259 135.99C227.468 141.505 220.434 144.1 213.98 142.307C213.928 142.273 213.877 142.273 213.826 142.256C210.172 141.198 206.279 142.478 204.094 145.62C202.506 147.174 201.003 148.796 199.552 150.486C199.501 150.554 199.449 150.623 199.398 150.674L199.483 150.452L185.841 144.117L185.722 144.322C185.739 144.237 185.739 144.151 185.773 144.083C186.131 141.88 186.387 139.695 186.558 137.475C187.053 135.631 186.9 133.753 186.251 132.08C185.602 130.406 184.424 128.921 182.836 127.879C182.785 127.845 182.751 127.811 182.699 127.794C177.167 124.021 174.606 117.003 176.382 110.515C177.167 107.612 178.687 105.205 180.633 103.327C176.911 97.6578 176.126 90.2475 179.199 83.6568C183.69 73.9756 194.856 69.5192 204.691 73.1731L204.725 73.1219C209.455 62.9456 221.527 58.5233 231.703 63.2529C241.879 67.9825 246.301 80.0541 241.572 90.2304L241.538 90.2817C250.673 95.4381 254.463 106.844 249.972 116.525C246.899 123.099 240.735 127.282 234.008 128.101Z" fill="#6D8C67"/>
<path d="M195.573 89.1716C195.573 89.1716 208.328 101.158 205.254 120.162" stroke="#54774D" stroke-width="1.39942" stroke-miterlimit="10"/>
<path d="M185.328 113.793C185.328 113.793 199.824 119.872 199.517 132.507" stroke="#54774D" stroke-width="1.39942" stroke-miterlimit="10"/>
<path d="M214.867 74.8125C214.867 74.8125 220.399 85.2962 216.558 95.7969" stroke="#54774D" stroke-width="1.39942" stroke-miterlimit="10"/>
<path d="M235.187 107.561C235.187 107.561 217.805 105.564 205.272 120.162" stroke="#54774D" stroke-width="1.39942" stroke-miterlimit="10"/>
<path d="M222.979 131.277C222.979 131.277 208.978 124.14 199.519 132.506" stroke="#54774D" stroke-width="1.39942" stroke-miterlimit="10"/>
<path d="M233.683 83.554C233.683 83.554 222.107 86.098 216.558 95.8134" stroke="#54774D" stroke-width="1.39942" stroke-miterlimit="10"/>
<path d="M199.483 150.452L185.841 144.118L208.499 104.061L220.075 84.084C221.151 82.24 223.968 83.5376 223.251 85.5524L215.465 107.288L199.483 150.452Z" fill="#F9F9EA"/>
<path d="M240.446 139.968C229.638 142.905 222.125 149.82 223.645 155.438C218.027 156.957 215.859 166.946 218.796 177.754C221.733 188.562 234.265 194.555 234.265 194.555C234.265 194.555 242.051 183.047 239.114 172.239C237.97 168.038 236.229 164.35 234.197 161.482C237.697 161.789 241.761 161.431 245.961 160.287C256.769 157.35 262.762 144.817 262.762 144.817C262.762 144.817 251.254 137.031 240.446 139.968Z" fill="#CADBDD"/>
<path d="M162.741 160.475C173.368 160.475 181.984 151.859 181.984 141.232C181.984 130.604 173.368 121.989 162.741 121.989C152.113 121.989 143.498 130.604 143.498 141.232C143.498 151.859 152.113 160.475 162.741 160.475Z" fill="#719296"/>
<path d="M181.233 128.187C191.861 128.187 200.476 119.572 200.476 108.944C200.476 98.3165 191.861 89.7012 181.233 89.7012C170.606 89.7012 161.99 98.3165 161.99 108.944C161.99 119.572 170.606 128.187 181.233 128.187Z" fill="#719296"/>
<path d="M189.991 100.237C210.429 111.95 221.425 134.18 226.479 147.72C228.801 153.901 224.925 160.646 218.42 161.773C218.232 161.807 218.061 161.824 217.874 161.858C203.565 164.283 179.183 165.853 159.018 154.294C148.108 148.045 139.895 138.791 133.833 129.468C128.779 121.682 125.228 113.845 122.837 107.647C122.786 107.527 122.735 107.408 122.718 107.288H122.701C120.464 100.783 124.613 93.7483 131.46 92.6214C138 91.5286 146.554 90.6237 155.825 91.0505C166.924 91.5627 179.063 93.9873 189.991 100.237Z" fill="#CADBDD"/>
<path d="M173.378 129.091C191.563 139.507 206.708 151.664 217.874 161.857C203.566 164.282 179.184 165.853 159.019 154.293C148.108 148.044 139.896 138.79 133.834 129.467C128.78 121.681 125.229 113.844 122.838 107.646C122.787 107.526 122.736 107.407 122.719 107.287C125.707 108.209 128.848 109.234 132.127 110.378C144.625 114.783 158.985 120.844 173.378 129.091Z" fill="#EDF3F4"/>
<path d="M155.825 91.0504C156.303 97.9826 154.493 105.922 150.242 113.367C145.973 120.828 140.048 126.394 133.833 129.485C128.779 121.699 125.228 113.862 122.837 107.664C120.327 101.056 124.494 93.7652 131.46 92.6212C137.982 91.5114 146.537 90.6064 155.825 91.0504Z" fill="#CADBDD"/>
<path d="M142.661 109.559C145.207 109.559 147.271 107.495 147.271 104.948C147.271 102.402 145.207 100.338 142.661 100.338C140.115 100.338 138.051 102.402 138.051 104.948C138.051 107.495 140.115 109.559 142.661 109.559Z" fill="white"/>
<path d="M142.661 107.202C143.906 107.202 144.915 106.193 144.915 104.948C144.915 103.704 143.906 102.695 142.661 102.695C141.416 102.695 140.407 103.704 140.407 104.948C140.407 106.193 141.416 107.202 142.661 107.202Z" fill="#719296"/>
<path d="M155.997 94.0889C155.724 99.8088 153.692 106.587 149.919 113.178C146.145 119.769 141.33 124.942 136.532 128.084" stroke="#719296" stroke-width="1.39942" stroke-miterlimit="10"/>
<path d="M170.731 117.822L168.409 119.325C166.872 120.315 165.916 121.989 165.848 123.816L165.728 126.582C165.643 128.767 163.047 129.877 161.408 128.426L147.971 116.593L153.144 107.561L170.133 113.178C172.216 113.844 172.575 116.627 170.731 117.822Z" fill="#719296"/>
<path d="M105.387 98.4771C114.374 98.4771 121.659 91.192 121.659 82.2052C121.659 73.2185 114.374 65.9333 105.387 65.9333C96.4005 65.9333 89.1152 73.2185 89.1152 82.2052C89.1152 91.192 96.4005 98.4771 105.387 98.4771Z" fill="#6D8C67"/>
<path d="M105.388 95.4375C112.696 95.4375 118.621 89.513 118.621 82.2048C118.621 74.8966 112.696 68.9722 105.388 68.9722C98.0797 68.9722 92.1553 74.8966 92.1553 82.2048C92.1553 89.513 98.0797 95.4375 105.388 95.4375Z" fill="#F9F9EA"/>
<path d="M105.387 85.6537C107.291 85.6537 108.836 84.1095 108.836 82.2046C108.836 80.2998 107.291 78.7556 105.387 78.7556C103.482 78.7556 101.938 80.2998 101.938 82.2046C101.938 84.1095 103.482 85.6537 105.387 85.6537Z" fill="#F2F1D7"/>
<path d="M105.388 77.2191C106.085 77.2191 106.651 76.0419 106.651 74.5897C106.651 73.1375 106.085 71.9602 105.388 71.9602C104.69 71.9602 104.124 73.1375 104.124 74.5897C104.124 76.0419 104.69 77.2191 105.388 77.2191Z" fill="#F2F1D7"/>
<path d="M102.875 77.8727C103.479 77.5238 103.381 76.2214 102.654 74.9638C101.928 73.7062 100.85 72.9695 100.246 73.3185C99.6412 73.6674 99.74 74.9697 100.466 76.2273C101.192 77.4849 102.271 78.2216 102.875 77.8727Z" fill="#F2F1D7"/>
<path d="M101.073 79.7223C101.422 79.118 100.685 78.0395 99.4273 77.3134C98.1697 76.5873 96.8674 76.4885 96.5185 77.0928C96.1696 77.6971 96.9062 78.7756 98.1638 79.5017C99.4214 80.2278 100.724 80.3266 101.073 79.7223Z" fill="#F2F1D7"/>
<path d="M97.773 83.4687C99.2252 83.4687 100.402 82.903 100.402 82.2052C100.402 81.5073 99.2252 80.9417 97.773 80.9417C96.3208 80.9417 95.1436 81.5073 95.1436 82.2052C95.1436 82.903 96.3208 83.4687 97.773 83.4687Z" fill="#F2F1D7"/>
<path d="M99.4107 87.1002C100.668 86.3741 101.405 85.2956 101.056 84.6913C100.707 84.087 99.4049 84.1857 98.1472 84.9118C96.8896 85.6379 96.153 86.7164 96.5019 87.3208C96.8508 87.9251 98.1531 87.8263 99.4107 87.1002Z" fill="#F2F1D7"/>
<path d="M102.668 89.4473C103.394 88.1897 103.493 86.8874 102.889 86.5384C102.284 86.1895 101.206 86.9262 100.48 88.1838C99.7537 89.4414 99.6549 90.7438 100.259 91.0927C100.864 91.4416 101.942 90.7049 102.668 89.4473Z" fill="#F2F1D7"/>
<path d="M105.388 92.4501C106.085 92.4501 106.651 91.2728 106.651 89.8206C106.651 88.3684 106.085 87.1912 105.388 87.1912C104.69 87.1912 104.124 88.3684 104.124 89.8206C104.124 91.2728 104.69 92.4501 105.388 92.4501Z" fill="#F2F1D7"/>
<path d="M110.49 91.0719C111.095 90.723 110.996 89.4206 110.27 88.163C109.544 86.9054 108.465 86.1688 107.861 86.5177C107.256 86.8666 107.355 88.1689 108.081 89.4265C108.807 90.6841 109.886 91.4208 110.49 91.0719Z" fill="#F2F1D7"/>
<path d="M114.267 87.3382C114.616 86.7339 113.879 85.6554 112.622 84.9293C111.364 84.2032 110.062 84.1044 109.713 84.7088C109.364 85.3131 110.101 86.3916 111.358 87.1177C112.616 87.8438 113.918 87.9425 114.267 87.3382Z" fill="#F2F1D7"/>
<path d="M113.003 83.4687C114.455 83.4687 115.632 82.903 115.632 82.2052C115.632 81.5073 114.455 80.9417 113.003 80.9417C111.55 80.9417 110.373 81.5073 110.373 82.2052C110.373 82.903 111.55 83.4687 113.003 83.4687Z" fill="#F2F1D7"/>
<path d="M112.612 79.4842C113.87 78.7581 114.606 77.6797 114.257 77.0753C113.908 76.471 112.606 76.5698 111.348 77.2959C110.091 78.022 109.354 79.1005 109.703 79.7048C110.052 80.3091 111.354 80.2103 112.612 79.4842Z" fill="#F2F1D7"/>
<path d="M110.283 76.254C111.009 74.9963 111.108 73.694 110.504 73.3451C109.9 72.9962 108.821 73.7328 108.095 74.9905C107.369 76.2481 107.27 77.5504 107.874 77.8993C108.479 78.2482 109.557 77.5116 110.283 76.254Z" fill="#F2F1D7"/>
<path d="M117.851 87.1915C126.838 87.1915 134.123 79.9063 134.123 70.9196C134.123 61.9329 126.838 54.6477 117.851 54.6477C108.864 54.6477 101.579 61.9329 101.579 70.9196C101.579 79.9063 108.864 87.1915 117.851 87.1915Z" fill="#6D8C67"/>
<path d="M117.852 84.1518C125.16 84.1518 131.084 78.2274 131.084 70.9192C131.084 63.611 125.16 57.6865 117.852 57.6865C110.544 57.6865 104.619 63.611 104.619 70.9192C104.619 78.2274 110.544 84.1518 117.852 84.1518Z" fill="#F9F9EA"/>
<path d="M117.85 74.3683C119.755 74.3683 121.299 72.8241 121.299 70.9192C121.299 69.0144 119.755 67.4702 117.85 67.4702C115.946 67.4702 114.401 69.0144 114.401 70.9192C114.401 72.8241 115.946 74.3683 117.85 74.3683Z" fill="#F2F1D7"/>
<path d="M117.851 65.9335C118.549 65.9335 119.115 64.7562 119.115 63.304C119.115 61.8518 118.549 60.6746 117.851 60.6746C117.154 60.6746 116.588 61.8518 116.588 63.304C116.588 64.7562 117.154 65.9335 117.851 65.9335Z" fill="#F2F1D7"/>
<path d="M115.341 66.5997C115.945 66.2508 115.846 64.9485 115.12 63.6908C114.394 62.4332 113.316 61.6966 112.711 62.0455C112.107 62.3944 112.206 63.6967 112.932 64.9544C113.658 66.212 114.737 66.9486 115.341 66.5997Z" fill="#F2F1D7"/>
<path d="M113.516 68.4503C113.865 67.846 113.128 66.7675 111.871 66.0414C110.613 65.3153 109.311 65.2165 108.962 65.8208C108.613 66.4251 109.35 67.5037 110.607 68.2298C111.865 68.9559 113.167 69.0546 113.516 68.4503Z" fill="#F2F1D7"/>
<path d="M110.236 72.1833C111.688 72.1833 112.865 71.6176 112.865 70.9198C112.865 70.2219 111.688 69.6562 110.236 69.6562C108.784 69.6562 107.606 70.2219 107.606 70.9198C107.606 71.6176 108.784 72.1833 110.236 72.1833Z" fill="#F2F1D7"/>
<path d="M111.854 75.8214C113.112 75.0953 113.848 74.0168 113.499 73.4125C113.151 72.8082 111.848 72.9069 110.591 73.633C109.333 74.3591 108.596 75.4376 108.945 76.0419C109.294 76.6463 110.596 76.5475 111.854 75.8214Z" fill="#F2F1D7"/>
<path d="M115.135 78.1686C115.861 76.9109 115.96 75.6086 115.355 75.2597C114.751 74.9108 113.673 75.6474 112.947 76.9051C112.22 78.1627 112.122 79.465 112.726 79.8139C113.33 80.1628 114.409 79.4262 115.135 78.1686Z" fill="#F2F1D7"/>
<path d="M117.851 81.1813C118.549 81.1813 119.115 80.004 119.115 78.5518C119.115 77.0996 118.549 75.9224 117.851 75.9224C117.154 75.9224 116.588 77.0996 116.588 78.5518C116.588 80.004 117.154 81.1813 117.851 81.1813Z" fill="#F2F1D7"/>
<path d="M122.957 79.7989C123.561 79.45 123.463 78.1477 122.737 76.8901C122.01 75.6324 120.932 74.8958 120.328 75.2447C119.723 75.5936 119.822 76.896 120.548 78.1536C121.274 79.4112 122.353 80.1478 122.957 79.7989Z" fill="#F2F1D7"/>
<path d="M126.71 76.066C127.059 75.4617 126.323 74.3832 125.065 73.6571C123.807 72.931 122.505 72.8323 122.156 73.4366C121.807 74.0409 122.544 75.1194 123.802 75.8455C125.059 76.5716 126.361 76.6703 126.71 76.066Z" fill="#F2F1D7"/>
<path d="M125.466 72.1833C126.919 72.1833 128.096 71.6176 128.096 70.9198C128.096 70.2219 126.919 69.6562 125.466 69.6562C124.014 69.6562 122.837 70.2219 122.837 70.9198C122.837 71.6176 124.014 72.1833 125.466 72.1833Z" fill="#F2F1D7"/>
<path d="M125.053 68.2047C126.311 67.4786 127.048 66.4001 126.699 65.7958C126.35 65.1915 125.047 65.2902 123.79 66.0163C122.532 66.7424 121.796 67.8209 122.144 68.4252C122.493 69.0296 123.796 68.9308 125.053 68.2047Z" fill="#F2F1D7"/>
<path d="M122.75 64.9752C123.476 63.7175 123.575 62.4152 122.971 62.0663C122.366 61.7174 121.288 62.454 120.562 63.7116C119.836 64.9693 119.737 66.2716 120.341 66.6205C120.946 66.9694 122.024 66.2328 122.75 64.9752Z" fill="#F2F1D7"/>
</svg>
