<svg width="326" height="326" viewBox="0 0 326 326" fill="none" xmlns="http://www.w3.org/2000/svg">
<rect width="326" height="326" fill="#6A9BEA"/>
<path d="M79.6355 259.017C80.0605 256.229 80.2475 254.07 80.2475 251.758C80.2475 250.483 79.9075 250.024 78.9385 250.024C77.4425 250.024 76.5585 250.211 75.4365 250.33C75.1135 250.364 74.9095 250.16 74.9095 249.803V248.562C74.9095 248.239 75.0625 248.086 75.4365 248.035C77.1535 247.797 78.1055 247.729 79.3125 247.729C81.7265 247.729 82.7295 248.817 82.7295 251.469C82.7295 254.189 82.5595 256.535 82.1005 259.085C82.0325 259.459 81.8795 259.578 81.5225 259.578H80.1625C79.7885 259.578 79.5845 259.357 79.6355 259.017ZM86.7755 261.329C86.7755 261.686 86.5715 261.89 86.2145 261.89H84.8715C84.5145 261.89 84.3105 261.686 84.3105 261.329V247.219C84.3105 246.862 84.5145 246.658 84.8715 246.658H86.2145C86.5715 246.658 86.7755 246.862 86.7755 247.219V252.914C86.9625 252.625 87.3535 252.438 87.8295 252.438H88.3735C88.7135 252.438 88.9005 252.625 88.9005 252.965V254.291C88.9005 254.631 88.7135 254.818 88.3735 254.818H87.7615C87.1835 254.818 86.7755 255.209 86.7755 255.753V261.329ZM91.0535 259.204C91.0535 257.096 92.7365 256.246 96.8675 256.246C100.999 256.246 102.682 257.096 102.682 259.204C102.682 261.312 100.999 262.162 96.8675 262.162C92.7365 262.162 91.0535 261.312 91.0535 259.204ZM96.8675 260.122C99.5535 260.122 100.217 259.935 100.217 259.204C100.217 258.473 99.5535 258.286 96.8675 258.286C94.1815 258.286 93.5185 258.473 93.5185 259.204C93.5185 259.935 94.1815 260.122 96.8675 260.122ZM96.7145 253.543C99.3665 253.543 101.781 253.509 102.835 253.407C103.192 253.373 103.413 253.56 103.413 253.917V254.92C103.413 255.226 103.243 255.43 102.852 255.464C101.798 255.566 99.3835 255.6 96.7315 255.6C94.3515 255.6 92.1075 255.583 90.6285 255.464C90.2375 255.43 90.0675 255.243 90.0675 254.92V253.917C90.0675 253.56 90.2715 253.373 90.6285 253.407C92.0905 253.526 94.3345 253.543 96.7145 253.543ZM94.9295 252.693C92.5835 252.693 91.4785 251.741 91.4785 249.718C91.4785 249.072 91.5295 248.103 91.5805 247.559C91.6145 247.219 91.8355 247.032 92.2265 247.032H93.5695C93.9265 247.032 94.0965 247.236 94.0455 247.593C93.9945 247.95 93.9435 248.783 93.9435 249.31C93.9435 250.16 94.3175 250.483 95.2695 250.483C97.8365 250.483 99.9955 250.347 101.832 250.177C102.172 250.143 102.376 250.313 102.41 250.67L102.512 251.843C102.546 252.166 102.359 252.353 102.002 252.387C100.2 252.557 98.0575 252.693 94.9295 252.693ZM107.589 252.88C107.589 253.373 108.031 253.594 109.034 253.594C110.037 253.594 110.479 253.373 110.479 252.88C110.479 252.404 110.037 252.183 109.034 252.183C108.031 252.183 107.589 252.404 107.589 252.88ZM109.034 250.109C111.635 250.109 112.91 251.027 112.91 252.88C112.91 254.75 111.635 255.668 109.034 255.668C106.433 255.668 105.158 254.75 105.158 252.88C105.158 251.027 106.433 250.109 109.034 250.109ZM117.024 256.739C117.024 257.096 116.82 257.3 116.463 257.3H115.12C114.763 257.3 114.559 257.096 114.559 256.739V247.219C114.559 246.862 114.763 246.658 115.12 246.658H116.463C116.82 246.658 117.024 246.862 117.024 247.219V251.044C117.211 250.755 117.602 250.568 118.078 250.568H118.622C118.962 250.568 119.149 250.755 119.149 251.095V252.336C119.149 252.676 118.962 252.863 118.622 252.863H118.01C117.432 252.863 117.024 253.254 117.024 253.798V256.739ZM110.292 246.437V246.845C110.292 247.066 110.445 247.219 110.751 247.219H112.91C113.267 247.219 113.437 247.389 113.437 247.746V248.902C113.437 249.259 113.267 249.429 112.91 249.429H105.175C104.818 249.429 104.648 249.259 104.648 248.902V247.746C104.648 247.389 104.818 247.219 105.175 247.219H108.082C107.912 247.117 107.827 246.964 107.827 246.726V246.437C107.827 246.08 107.997 245.91 108.354 245.91H109.765C110.122 245.91 110.292 246.08 110.292 246.437ZM110.53 262.145C107.929 262.145 106.45 261.006 106.45 258.949C106.45 258.099 106.501 257.793 106.552 257.47C106.603 257.113 106.756 256.909 107.113 256.909H108.456C108.813 256.909 109.068 257.113 109.017 257.47C108.949 257.912 108.915 258.116 108.915 258.575C108.915 259.459 109.544 259.85 110.836 259.85C112.961 259.85 115.069 259.714 116.871 259.544C117.211 259.51 117.381 259.731 117.398 260.071L117.483 261.312C117.5 261.652 117.296 261.805 116.956 261.839C115.256 262.026 113.352 262.145 110.53 262.145ZM127.477 252.88C127.477 253.373 127.919 253.594 128.922 253.594C129.925 253.594 130.367 253.373 130.367 252.88C130.367 252.404 129.925 252.183 128.922 252.183C127.919 252.183 127.477 252.404 127.477 252.88ZM128.922 250.109C131.523 250.109 132.798 251.027 132.798 252.88C132.798 254.75 131.523 255.668 128.922 255.668C126.321 255.668 125.046 254.75 125.046 252.88C125.046 251.027 126.321 250.109 128.922 250.109ZM136.912 256.739C136.912 257.096 136.708 257.3 136.351 257.3H135.008C134.651 257.3 134.447 257.096 134.447 256.739V247.219C134.447 246.862 134.651 246.658 135.008 246.658H136.351C136.708 246.658 136.912 246.862 136.912 247.219V251.044C137.099 250.755 137.49 250.568 137.966 250.568H138.51C138.85 250.568 139.037 250.755 139.037 251.095V252.336C139.037 252.676 138.85 252.863 138.51 252.863H137.898C137.32 252.863 136.912 253.254 136.912 253.798V256.739ZM130.18 246.437V246.845C130.18 247.066 130.333 247.219 130.639 247.219H132.798C133.155 247.219 133.325 247.389 133.325 247.746V248.902C133.325 249.259 133.155 249.429 132.798 249.429H125.063C124.706 249.429 124.536 249.259 124.536 248.902V247.746C124.536 247.389 124.706 247.219 125.063 247.219H127.97C127.8 247.117 127.715 246.964 127.715 246.726V246.437C127.715 246.08 127.885 245.91 128.242 245.91H129.653C130.01 245.91 130.18 246.08 130.18 246.437ZM130.418 262.145C127.817 262.145 126.338 261.006 126.338 258.949C126.338 258.099 126.389 257.793 126.44 257.47C126.491 257.113 126.644 256.909 127.001 256.909H128.344C128.701 256.909 128.956 257.113 128.905 257.47C128.837 257.912 128.803 258.116 128.803 258.575C128.803 259.459 129.432 259.85 130.724 259.85C132.849 259.85 134.957 259.714 136.759 259.544C137.099 259.51 137.269 259.731 137.286 260.071L137.371 261.312C137.388 261.652 137.184 261.805 136.844 261.839C135.144 262.026 133.24 262.145 130.418 262.145ZM149.984 257.453H151.004C151.344 257.453 151.531 257.64 151.531 257.98V259.051C151.531 259.391 151.344 259.578 151.004 259.578H146.805C145.462 259.578 144.765 258.983 144.765 257.844V248.562C144.765 248.018 145.037 247.729 145.581 247.729H148.777C150.834 247.729 151.565 248.8 151.565 251.877C151.565 254.342 151.038 256.416 149.984 257.453ZM156.325 247.185C156.325 246.828 156.495 246.658 156.852 246.658H158.093C158.45 246.658 158.62 246.828 158.62 247.185V261.363C158.62 261.72 158.45 261.89 158.093 261.89H156.852C156.495 261.89 156.325 261.72 156.325 261.363V254.818H155.628C155.254 254.818 154.965 255.09 154.965 255.464V261.363C154.965 261.72 154.795 261.89 154.438 261.89H153.197C152.84 261.89 152.67 261.72 152.67 261.363V247.355C152.67 246.998 152.84 246.828 153.197 246.828H154.438C154.795 246.828 154.965 246.998 154.965 247.355V252.761C155.118 252.557 155.39 252.438 155.679 252.438H156.325V247.185ZM147.808 257.283C148.692 257.283 149.287 256.093 149.287 253.611C149.287 250.517 148.845 250.024 147.859 250.024H147.502C147.179 250.024 147.026 250.177 147.026 250.483V256.739C147.026 257.096 147.264 257.283 147.706 257.283H147.808ZM163.084 250.5C163.084 251.401 163.696 252.013 164.631 252.013C165.566 252.013 166.195 251.401 166.195 250.5C166.195 249.599 165.566 249.004 164.631 249.004C163.696 249.004 163.084 249.599 163.084 250.5ZM167.351 259.34C164.852 259.34 164.41 259.442 164.41 259.799C164.41 260.173 164.937 260.241 168.286 260.241C169.68 260.241 171.805 260.139 172.927 259.935C173.199 259.884 173.386 260.02 173.403 260.292L173.488 261.397C173.505 261.635 173.352 261.805 173.097 261.839C171.873 262.009 169.697 262.145 168.303 262.145C163.39 262.145 161.945 261.567 161.945 259.765C161.945 257.98 163.611 257.436 167.317 257.436C168.252 257.436 169.323 257.419 170.071 257.419C170.513 257.419 170.7 257.3 170.7 257.062C170.7 256.807 170.53 256.688 170.105 256.688C168.49 256.688 164.733 256.807 162.727 256.977C162.455 256.994 162.285 256.841 162.285 256.569V255.464C162.285 255.209 162.421 255.073 162.727 255.056C165.294 254.869 168.813 254.767 171.448 254.852C172.536 254.886 173.148 255.362 173.148 256.178C173.148 256.841 172.774 257.368 172.162 257.589H172.57C172.825 257.589 173.012 257.742 173.012 257.98V258.983C173.012 259.221 172.842 259.391 172.57 259.391C171.329 259.391 170.462 259.34 167.351 259.34ZM164.631 246.879C167.079 246.879 168.626 248.273 168.626 250.5C168.626 252.727 167.062 254.138 164.631 254.138C162.217 254.138 160.653 252.71 160.653 250.5C160.653 248.273 162.2 246.879 164.631 246.879ZM170.564 247.219C170.564 246.862 170.768 246.658 171.125 246.658H172.468C172.825 246.658 173.029 246.862 173.029 247.219V253.509C173.029 253.866 172.825 254.07 172.468 254.07H171.125C170.768 254.07 170.564 253.866 170.564 253.509V247.219ZM184.604 255.243C184.264 255.243 184.077 255.056 184.077 254.716V253.39C184.077 253.05 184.264 252.863 184.604 252.863C186.678 252.863 187.477 252.421 187.477 251.248C187.477 250.381 186.627 249.888 185.148 249.888C183.567 249.888 182.819 250.313 182.819 251.197C182.819 251.554 182.615 251.758 182.258 251.758H180.915C180.558 251.758 180.354 251.554 180.354 251.197C180.354 248.851 182.088 247.508 185.148 247.508C188.157 247.508 189.942 248.749 189.942 250.823C189.942 252.149 189.194 253.271 188.055 253.764C189.585 254.172 190.622 255.481 190.622 257.198C190.622 259.68 188.599 261.21 185.318 261.21C182.02 261.21 180.014 259.816 180.014 257.521C180.014 257.164 180.218 256.96 180.575 256.96H181.918C182.275 256.96 182.479 257.164 182.479 257.521C182.479 258.371 183.482 258.83 185.318 258.83C187.205 258.83 188.157 258.218 188.157 257.028C188.157 255.668 187.324 255.243 184.604 255.243ZM191.983 254.359C191.983 249.752 193.819 247.508 197.321 247.508C200.823 247.508 202.659 249.752 202.659 254.359C202.659 258.966 200.823 261.21 197.321 261.21C193.819 261.21 191.983 258.966 191.983 254.359ZM194.414 254.359C194.414 257.419 195.366 258.864 197.321 258.864C199.276 258.864 200.228 257.419 200.228 254.359C200.228 251.299 199.276 249.854 197.321 249.854C195.366 249.854 194.414 251.299 194.414 254.359ZM208.227 250.177L208.278 250.925C208.295 251.231 208.431 251.35 208.805 251.35H213.327C213.701 251.35 213.837 251.231 213.854 250.925L213.905 250.177H208.227ZM210.539 256.263C208.618 256.297 206.323 256.246 204.963 256.144C204.572 256.11 204.402 255.923 204.402 255.6V254.597C204.402 254.24 204.606 254.053 204.963 254.087C206.425 254.206 208.669 254.223 211.049 254.223C213.701 254.223 216.115 254.189 217.169 254.087C217.526 254.053 217.747 254.24 217.747 254.597V255.6C217.747 255.906 217.577 256.11 217.186 256.144C216.353 256.229 214.653 256.28 213.259 256.28C212.851 256.28 212.647 256.484 212.647 256.807V258.303C212.647 258.66 212.46 258.864 212.103 258.864H210.743C210.386 258.864 210.182 258.66 210.182 258.303V256.858C210.182 256.586 210.318 256.382 210.539 256.263ZM214.347 253.305H207.785C206.544 253.305 205.915 252.778 205.847 251.639L205.592 247.576C205.575 247.253 205.779 247.032 206.153 247.032H207.496C207.887 247.032 208.057 247.168 208.074 247.525L208.108 248.222H214.024L214.058 247.525C214.075 247.168 214.262 247.032 214.636 247.032H215.979C216.353 247.032 216.557 247.236 216.54 247.576L216.285 251.639C216.217 252.778 215.588 253.305 214.347 253.305ZM216.591 261.839C214.449 262.043 211.695 262.145 209.026 262.145C206.799 262.145 205.558 261.023 205.558 259.017C205.558 258.439 205.609 258.133 205.66 257.81C205.728 257.419 205.898 257.249 206.221 257.249H207.564C207.955 257.249 208.176 257.47 208.125 257.81C208.091 258.048 208.023 258.422 208.023 258.711C208.023 259.476 208.482 259.85 209.315 259.85C211.882 259.85 214.619 259.731 216.438 259.544C216.761 259.51 216.999 259.714 217.016 260.071L217.101 261.278C217.118 261.601 216.948 261.805 216.591 261.839ZM228.065 247.559C230.836 247.559 232.06 249.429 232.06 253.73C232.06 258.031 230.819 259.918 228.065 259.918C225.311 259.918 224.087 258.031 224.087 253.73C224.087 249.429 225.311 247.559 228.065 247.559ZM226.518 253.73C226.518 256.535 226.96 257.623 228.065 257.623C229.187 257.623 229.629 256.552 229.629 253.73C229.629 250.925 229.187 249.854 228.065 249.854C226.96 249.854 226.518 250.925 226.518 253.73ZM233.998 247.219C233.998 246.862 234.202 246.658 234.559 246.658H235.902C236.259 246.658 236.463 246.862 236.463 247.219V261.329C236.463 261.686 236.259 261.89 235.902 261.89H234.559C234.202 261.89 233.998 261.686 233.998 261.329V247.219ZM245.296 259.952C247.71 259.952 248.475 259.663 248.475 258.847C248.475 258.031 247.71 257.742 245.296 257.742C242.882 257.742 242.117 258.031 242.117 258.847C242.117 259.663 242.882 259.952 245.296 259.952ZM245.296 255.532C249.087 255.532 250.94 256.62 250.94 258.847C250.94 261.074 249.087 262.162 245.296 262.162C241.505 262.162 239.652 261.074 239.652 258.847C239.652 256.62 241.505 255.532 245.296 255.532ZM242.627 252.064C242.151 253.407 240.706 254.478 239.006 254.478C238.632 254.478 238.445 254.274 238.445 253.951V252.676C238.445 252.353 238.632 252.183 239.006 252.183C240.383 252.183 241.369 250.908 241.369 249.361V247.661C241.369 247.27 241.573 247.049 241.93 247.049H243.29C243.63 247.049 243.834 247.27 243.834 247.661V249.361C243.834 250.908 244.82 252.183 246.197 252.183C246.554 252.183 246.724 252.353 246.724 252.676V253.951C246.724 254.291 246.554 254.478 246.197 254.478C244.531 254.478 243.086 253.39 242.627 252.064ZM250.566 254.359C250.566 254.716 250.362 254.92 250.005 254.92H248.662C248.305 254.92 248.101 254.716 248.101 254.359V247.219C248.101 246.862 248.305 246.658 248.662 246.658H250.005C250.362 246.658 250.566 246.862 250.566 247.219V249.854C250.753 249.565 251.144 249.378 251.62 249.378H252.164C252.504 249.378 252.691 249.565 252.691 249.905V251.146C252.691 251.486 252.504 251.673 252.164 251.673H251.552C250.974 251.673 250.566 252.064 250.566 252.608V254.359ZM117.28 272.049C117.637 272.049 117.841 272.253 117.841 272.61V273.783C117.841 274.14 117.637 274.344 117.28 274.344H115.121V274.956C115.121 276.588 116.073 277.523 117.399 277.523C117.756 277.523 117.926 277.693 117.926 278.016V279.291C117.926 279.631 117.756 279.818 117.399 279.818C115.784 279.818 114.373 279.053 113.914 277.625C113.438 279.053 112.027 279.818 110.378 279.818C110.004 279.818 109.817 279.614 109.817 279.291V278.016C109.817 277.693 110.004 277.523 110.378 277.523C111.704 277.523 112.656 276.588 112.656 274.956V274.344H110.463C110.106 274.344 109.902 274.14 109.902 273.783V272.61C109.902 272.253 110.106 272.049 110.463 272.049H117.28ZM111.721 281.348C113.421 281.161 115.478 281.042 118.827 281.042C121.156 281.042 122.227 282.011 122.227 284.051C122.227 285.105 122.176 286.04 122.125 286.448C122.074 286.805 121.921 286.975 121.564 286.975H120.187C119.83 286.975 119.609 286.771 119.66 286.414C119.728 285.887 119.762 285.139 119.762 284.578C119.762 283.711 119.388 283.337 118.453 283.337C115.75 283.337 113.625 283.507 111.721 283.643C111.381 283.66 111.194 283.456 111.194 283.116V281.875C111.194 281.535 111.381 281.382 111.721 281.348ZM119.813 276.554C119.643 276.843 119.303 277.013 118.844 277.013H118.113C117.773 277.013 117.586 276.826 117.586 276.486V275.245C117.586 274.905 117.773 274.718 118.113 274.718H118.912C119.49 274.718 119.813 274.412 119.813 273.868V272.219C119.813 271.862 120.017 271.658 120.374 271.658H121.717C122.074 271.658 122.278 271.862 122.278 272.219V279.359C122.278 279.716 122.074 279.92 121.717 279.92H120.374C120.017 279.92 119.813 279.716 119.813 279.359V276.554ZM136.262 284.391C135.021 284.391 134.154 284.34 131.043 284.34C128.544 284.34 128.102 284.442 128.102 284.799C128.102 285.173 128.629 285.241 131.978 285.241C133.372 285.241 135.497 285.139 136.619 284.935C136.891 284.884 137.078 285.02 137.095 285.292L137.18 286.397C137.197 286.635 137.044 286.805 136.789 286.839C135.565 287.009 133.389 287.145 131.995 287.145C127.082 287.145 125.637 286.567 125.637 284.765C125.637 282.98 127.303 282.436 131.009 282.436C131.944 282.436 133.015 282.419 133.763 282.419C134.205 282.419 134.392 282.3 134.392 282.062C134.392 281.807 134.222 281.688 133.797 281.688C132.182 281.688 128.425 281.807 126.419 281.977C126.147 281.994 125.977 281.841 125.977 281.569V280.464C125.977 280.209 126.113 280.073 126.419 280.056C128.986 279.869 132.505 279.767 135.14 279.852C136.228 279.886 136.84 280.362 136.84 281.178C136.84 281.841 136.466 282.368 135.854 282.589H136.262C136.517 282.589 136.704 282.742 136.704 282.98V283.983C136.704 284.221 136.534 284.391 136.262 284.391ZM131.723 272.049C132.08 272.049 132.284 272.253 132.284 272.61V273.698C132.284 274.055 132.08 274.259 131.723 274.259H129.564V274.378C129.564 275.857 130.465 276.758 131.842 276.758C132.199 276.758 132.369 276.928 132.369 277.251V278.441C132.369 278.781 132.199 278.968 131.842 278.968C130.193 278.968 128.816 278.22 128.357 276.724C127.881 278.22 126.504 278.968 124.821 278.968C124.447 278.968 124.26 278.764 124.26 278.441V277.251C124.26 276.928 124.447 276.758 124.821 276.758C126.198 276.758 127.099 275.857 127.099 274.378V274.259H124.906C124.549 274.259 124.345 274.055 124.345 273.698V272.61C124.345 272.253 124.549 272.049 124.906 272.049H131.723ZM134.256 276.197C134.086 276.452 133.78 276.588 133.355 276.588H132.726C132.386 276.588 132.199 276.401 132.199 276.061V274.82C132.199 274.48 132.386 274.293 132.726 274.293H133.474C134.018 274.293 134.256 274.106 134.256 273.596V272.219C134.256 271.862 134.46 271.658 134.817 271.658H136.16C136.517 271.658 136.721 271.862 136.721 272.219V278.509C136.721 278.866 136.517 279.07 136.16 279.07H134.817C134.46 279.07 134.256 278.866 134.256 278.509V276.197ZM141.389 277.88C141.389 278.373 141.831 278.594 142.834 278.594C143.837 278.594 144.279 278.373 144.279 277.88C144.279 277.404 143.837 277.183 142.834 277.183C141.831 277.183 141.389 277.404 141.389 277.88ZM142.834 275.109C145.435 275.109 146.71 276.027 146.71 277.88C146.71 279.75 145.435 280.668 142.834 280.668C140.233 280.668 138.958 279.75 138.958 277.88C138.958 276.027 140.233 275.109 142.834 275.109ZM150.824 281.739C150.824 282.096 150.62 282.3 150.263 282.3H148.92C148.563 282.3 148.359 282.096 148.359 281.739V272.219C148.359 271.862 148.563 271.658 148.92 271.658H150.263C150.62 271.658 150.824 271.862 150.824 272.219V276.044C151.011 275.755 151.402 275.568 151.878 275.568H152.422C152.762 275.568 152.949 275.755 152.949 276.095V277.336C152.949 277.676 152.762 277.863 152.422 277.863H151.81C151.232 277.863 150.824 278.254 150.824 278.798V281.739ZM144.092 271.437V271.845C144.092 272.066 144.245 272.219 144.551 272.219H146.71C147.067 272.219 147.237 272.389 147.237 272.746V273.902C147.237 274.259 147.067 274.429 146.71 274.429H138.975C138.618 274.429 138.448 274.259 138.448 273.902V272.746C138.448 272.389 138.618 272.219 138.975 272.219H141.882C141.712 272.117 141.627 271.964 141.627 271.726V271.437C141.627 271.08 141.797 270.91 142.154 270.91H143.565C143.922 270.91 144.092 271.08 144.092 271.437ZM144.33 287.145C141.729 287.145 140.25 286.006 140.25 283.949C140.25 283.099 140.301 282.793 140.352 282.47C140.403 282.113 140.556 281.909 140.913 281.909H142.256C142.613 281.909 142.868 282.113 142.817 282.47C142.749 282.912 142.715 283.116 142.715 283.575C142.715 284.459 143.344 284.85 144.636 284.85C146.761 284.85 148.869 284.714 150.671 284.544C151.011 284.51 151.181 284.731 151.198 285.071L151.283 286.312C151.3 286.652 151.096 286.805 150.756 286.839C149.056 287.026 147.152 287.145 144.33 287.145ZM165.681 276.418C167.976 276.418 168.775 276.095 168.775 275.16C168.775 274.225 167.976 273.902 165.681 273.902C163.42 273.902 162.587 274.242 162.587 275.16C162.587 276.078 163.42 276.418 165.681 276.418ZM165.018 281.263C163.097 281.297 160.802 281.246 159.442 281.144C159.051 281.11 158.881 280.923 158.881 280.6V279.597C158.881 279.24 159.085 279.053 159.442 279.087C160.904 279.206 163.148 279.223 165.528 279.223C168.18 279.223 170.594 279.189 171.648 279.087C172.005 279.053 172.226 279.24 172.226 279.597V280.6C172.226 280.906 172.056 281.11 171.665 281.144C170.832 281.229 169.132 281.28 167.738 281.28C167.33 281.28 167.126 281.484 167.126 281.807V283.303C167.126 283.66 166.939 283.864 166.582 283.864H165.222C164.865 283.864 164.661 283.66 164.661 283.303V281.858C164.661 281.586 164.797 281.382 165.018 281.263ZM160.122 275.16C160.122 272.865 161.822 271.862 165.681 271.862C169.54 271.862 171.24 272.865 171.24 275.16C171.24 277.455 169.54 278.458 165.681 278.458C161.822 278.458 160.122 277.455 160.122 275.16ZM171.07 286.839C168.928 287.043 166.174 287.145 163.505 287.145C161.278 287.145 160.037 286.023 160.037 284.017C160.037 283.439 160.088 283.133 160.139 282.81C160.207 282.419 160.377 282.249 160.7 282.249H162.043C162.434 282.249 162.655 282.47 162.604 282.81C162.57 283.048 162.502 283.422 162.502 283.711C162.502 284.476 162.961 284.85 163.794 284.85C166.361 284.85 169.098 284.731 170.917 284.544C171.24 284.51 171.478 284.714 171.495 285.071L171.58 286.278C171.597 286.601 171.427 286.805 171.07 286.839ZM185.803 272.746V273.783C185.803 274.123 185.599 274.327 185.276 274.31C183.695 274.225 182.233 274.123 180.856 274.123C178.255 274.123 177.541 274.276 177.541 274.871C177.541 275.466 178.085 275.619 180.414 275.619C181.536 275.619 183.508 275.517 185.412 275.313C185.735 275.279 185.905 275.449 185.939 275.84L186.024 276.877C186.058 277.2 185.888 277.37 185.497 277.404C184.307 277.506 183.032 277.625 181.91 277.676V278.101C181.91 278.424 182.114 278.611 182.522 278.628C183.355 278.662 185.446 278.594 186.772 278.492C187.129 278.458 187.35 278.645 187.35 279.002V280.005C187.35 280.311 187.18 280.515 186.789 280.549C185.735 280.651 183.321 280.685 180.669 280.685C178.289 280.685 176.045 280.668 174.566 280.549C174.175 280.515 174.005 280.328 174.005 280.005V279.002C174.005 278.645 174.209 278.458 174.566 278.492C175.841 278.594 177.983 278.628 179.819 278.645C179.581 278.543 179.445 278.322 179.445 278.05V277.676C176.266 277.54 175.076 276.741 175.076 274.871C175.076 272.78 176.64 272.032 180.907 272.032C182.148 272.032 183.423 272.049 185.276 272.219C185.65 272.253 185.803 272.406 185.803 272.746ZM180.805 281.246C184.936 281.246 186.619 282.096 186.619 284.204C186.619 286.312 184.936 287.162 180.805 287.162C176.674 287.162 174.991 286.312 174.991 284.204C174.991 282.096 176.674 281.246 180.805 281.246ZM177.456 284.204C177.456 284.935 178.119 285.122 180.805 285.122C183.491 285.122 184.154 284.935 184.154 284.204C184.154 283.473 183.491 283.286 180.805 283.286C178.119 283.286 177.456 283.473 177.456 284.204ZM192.971 282.317C193.889 282.317 194.416 281.637 194.416 280.447C194.416 279.257 193.889 278.577 192.971 278.577C192.053 278.577 191.526 279.257 191.526 280.447C191.526 281.637 192.053 282.317 192.971 282.317ZM192.971 276.316C195.419 276.316 196.847 277.846 196.847 280.447C196.847 283.048 195.419 284.578 192.971 284.578C190.523 284.578 189.095 283.048 189.095 280.447C189.095 277.846 190.523 276.316 192.971 276.316ZM200.961 286.329C200.961 286.686 200.757 286.89 200.4 286.89H199.057C198.7 286.89 198.496 286.686 198.496 286.329V272.219C198.496 271.862 198.7 271.658 199.057 271.658H200.4C200.757 271.658 200.961 271.862 200.961 272.219V277.914C201.148 277.625 201.539 277.438 202.015 277.438H202.559C202.899 277.438 203.086 277.625 203.086 277.965V279.291C203.086 279.631 202.899 279.818 202.559 279.818H201.947C201.369 279.818 200.961 280.209 200.961 280.753V286.329ZM194.229 272.695C194.229 272.916 194.382 273.069 194.688 273.069H196.813C197.17 273.069 197.374 273.273 197.374 273.63V274.803C197.374 275.16 197.17 275.364 196.813 275.364H189.146C188.789 275.364 188.585 275.16 188.585 274.803V273.63C188.585 273.273 188.789 273.069 189.146 273.069H192.019C191.849 272.967 191.764 272.814 191.764 272.576V271.777C191.764 271.42 191.934 271.25 192.291 271.25H193.702C194.059 271.25 194.229 271.42 194.229 271.777V272.695ZM208.945 284.017C209.37 281.229 209.557 279.07 209.557 276.758C209.557 275.483 209.217 275.024 208.248 275.024C206.752 275.024 205.868 275.211 204.746 275.33C204.423 275.364 204.219 275.16 204.219 274.803V273.562C204.219 273.239 204.372 273.086 204.746 273.035C206.463 272.797 207.415 272.729 208.622 272.729C211.036 272.729 212.039 273.817 212.039 276.469C212.039 279.189 211.869 281.535 211.41 284.085C211.342 284.459 211.189 284.578 210.832 284.578H209.472C209.098 284.578 208.894 284.357 208.945 284.017ZM213.96 272.219C213.96 271.862 214.164 271.658 214.521 271.658H215.864C216.221 271.658 216.425 271.862 216.425 272.219V286.329C216.425 286.686 216.221 286.89 215.864 286.89H214.521C214.164 286.89 213.96 286.686 213.96 286.329V272.219Z" fill="white"/>
<path d="M12.9533 45.8L29.7033 23.45C30.5033 22.35 31.6533 21.7 33.0033 21.7H36.7033C38.6033 21.7 39.5533 22.7 39.5533 24.6V46.15H43.3033C44.3033 46.15 44.8533 46.7 44.8533 47.7V51.6C44.8533 52.6 44.3033 53.15 43.3033 53.15H39.5533V59.35C39.5533 60.4 38.9533 61 37.9033 61H33.9533C32.9033 61 32.3033 60.4 32.3033 59.35V53.15H15.1033C13.1533 53.15 12.1533 52.2 12.1533 50.3V48.1C12.1533 47.35 12.3533 46.6 12.9533 45.8ZM21.0033 46.3H32.3033V31.25L21.0033 46.3Z" fill="white"/>
<path d="M128.588 136.851H90.1934V145.082H128.588V136.851Z" fill="#13183A"/>
<path d="M90.1941 134.101V147.831C90.1941 150.782 87.8022 153.174 84.8512 153.174H81.0148C78.0638 153.174 75.6719 150.782 75.6719 147.831V134.101C75.6719 131.15 78.0638 128.758 81.0148 128.758H84.8512C87.7867 128.743 90.1941 131.15 90.1941 134.101Z" fill="#13183A"/>
<path d="M197.363 92.554C197.363 111.534 181.971 126.926 162.991 126.926C147.335 126.926 134.148 116.457 129.986 102.153C129.396 100.087 128.976 97.928 128.774 95.7225C128.666 94.6819 128.619 93.6257 128.619 92.554C128.619 78.5909 136.944 66.5848 148.888 61.1953C149.742 60.807 150.612 60.4653 151.497 60.1391C152.429 59.813 153.361 59.5178 154.324 59.2849C157.089 58.5549 159.993 58.1821 162.991 58.1821C166.998 58.1821 170.85 58.8655 174.422 60.1236C187.78 64.8297 197.363 77.5813 197.363 92.554Z" fill="#513F3B"/>
<path d="M224.452 176.814V205.346H101.533V176.814C101.533 162.214 112.405 150.161 126.508 148.328C127.735 148.157 128.993 148.08 130.267 148.08H195.702C211.591 148.08 224.452 160.94 224.452 176.814Z" fill="#A1C4CE"/>
<path d="M176.816 128.37V148.08C168.475 153.749 157.51 153.749 149.169 148.08V128.37H176.816Z" fill="#FFD8D9"/>
<path d="M176.816 128.37V141.494C174.113 142.317 171.24 142.768 168.273 142.768C160.958 142.768 154.263 140.034 149.169 135.545V128.354H176.816V128.37Z" fill="#EAC1C5"/>
<path d="M136.417 116.472C141.624 116.472 145.845 112.251 145.845 107.045C145.845 101.838 141.624 97.6167 136.417 97.6167C131.21 97.6167 126.989 101.838 126.989 107.045C126.989 112.251 131.21 116.472 136.417 116.472Z" fill="#EAC1C5"/>
<path d="M189.551 116.472C194.758 116.472 198.979 112.251 198.979 107.045C198.979 101.838 194.758 97.6167 189.551 97.6167C184.344 97.6167 180.123 101.838 180.123 107.045C180.123 112.251 184.344 116.472 189.551 116.472Z" fill="#EAC1C5"/>
<path d="M191.85 91.9476V108.629C191.85 124.564 178.927 137.487 162.992 137.487C147.056 137.487 134.118 124.564 134.118 108.629V91.9476C134.118 90.7206 134.196 89.5247 134.351 88.3288C136.122 74.1016 148.268 63.0896 162.992 63.0896C170.96 63.0896 178.182 66.3202 183.401 71.5389C188.619 76.7576 191.85 83.9798 191.85 91.9476Z" fill="#FFD8D9"/>
<path d="M153.921 109.188C155.405 109.188 156.608 107.623 156.608 105.693C156.608 103.763 155.405 102.199 153.921 102.199C152.437 102.199 151.234 103.763 151.234 105.693C151.234 107.623 152.437 109.188 153.921 109.188Z" fill="#352F2C"/>
<path d="M171.861 109.188C173.345 109.188 174.548 107.623 174.548 105.693C174.548 103.763 173.345 102.199 171.861 102.199C170.377 102.199 169.174 103.763 169.174 105.693C169.174 107.623 170.377 109.188 171.861 109.188Z" fill="#352F2C"/>
<path d="M148.951 99.8843C148.438 99.8843 147.941 99.6202 147.677 99.1543C147.274 98.4553 147.507 97.5545 148.205 97.1506C148.345 97.073 151.793 95.0849 156.826 95.8615C157.633 95.9858 158.177 96.7313 158.053 97.5389C157.928 98.3466 157.167 98.8902 156.375 98.766C152.43 98.1602 149.697 99.6823 149.681 99.6979C149.448 99.8221 149.199 99.8843 148.951 99.8843Z" fill="#513F3B"/>
<path d="M177.032 99.8843C177.545 99.8843 178.042 99.6202 178.306 99.1543C178.71 98.4553 178.477 97.5545 177.778 97.1506C177.638 97.073 174.19 95.0849 169.158 95.8615C168.35 95.9858 167.807 96.7313 167.931 97.5389C168.055 98.3466 168.816 98.8902 169.608 98.766C173.553 98.1602 176.287 99.6823 176.302 99.6979C176.535 99.8221 176.784 99.8843 177.032 99.8843Z" fill="#513F3B"/>
<path d="M166.859 112.124C166.859 114.267 165.119 114.547 162.976 114.547C160.832 114.547 159.093 114.267 159.093 112.124C159.093 109.98 160.832 103.333 162.976 103.333C165.135 103.317 166.859 109.98 166.859 112.124Z" fill="#EAC1C5"/>
<path d="M168.522 117.7C167.854 121.055 165.617 123.524 162.992 123.524C160.352 123.524 158.131 121.07 157.463 117.7C159.078 118.399 160.973 118.802 162.992 118.802C165.027 118.802 166.906 118.399 168.522 117.7Z" fill="#D1867C"/>
<path d="M156.856 71.5548C156.856 87.2419 145.145 100.211 129.986 102.152C129.396 100.087 128.976 97.9278 128.774 95.7223C128.666 94.6817 128.619 93.6255 128.619 92.5538C128.619 78.5907 136.944 66.5846 148.888 61.1951C150.628 60.403 152.445 59.7662 154.324 59.2847C155.94 63.0434 156.856 67.1904 156.856 71.5548Z" fill="#513F3B"/>
<path d="M169.126 71.5548C169.126 87.2419 180.837 100.211 195.996 102.152C196.586 100.087 197.006 97.9278 197.207 95.7223C197.316 94.6817 197.363 93.6255 197.363 92.5538C197.363 78.5907 189.038 66.5846 177.094 61.1951C175.354 60.403 173.537 59.7662 171.658 59.2847C170.027 63.0434 169.126 67.1904 169.126 71.5548Z" fill="#513F3B"/>
<path d="M185.699 90.131C183.633 90.6281 181.428 90.83 179.191 90.6747C172.606 90.2242 166.921 86.8693 163.302 81.9302C165.259 86.2636 168.614 89.9136 172.916 92.1812C170.804 92.4297 168.599 92.3987 166.393 91.9948C154.698 89.8825 146.916 78.6841 149.029 66.9731C149.479 64.488 150.318 62.2049 151.514 60.1391C152.445 59.813 153.377 59.5178 154.34 59.2849C157.105 58.5549 160.009 58.1821 163.007 58.1821C167.014 58.1821 170.866 58.8655 174.439 60.1236C173.103 62.6708 172.28 65.5442 172.062 68.6039C171.394 78.2337 177.157 86.8072 185.699 90.131Z" fill="#513F3B"/>
<path d="M121.491 156.902L122.796 147.008C123.075 144.911 123.557 135.297 123.557 135.297V134.287V132.268C123.557 130.544 122.159 129.146 120.435 129.162C118.711 129.162 117.313 130.56 117.328 132.284C117.328 130.56 115.931 129.162 114.207 129.177C112.482 129.177 111.085 130.575 111.1 132.299C111.1 130.575 109.702 129.178 107.978 129.193C106.332 129.193 105.012 130.482 104.887 132.082C104.763 130.373 103.272 129.038 101.486 129.209C99.8707 129.364 98.6903 130.824 98.6903 132.439V136.353C98.6903 134.536 97.1215 133.092 95.2733 133.262C93.658 133.418 92.4775 134.878 92.4775 136.493L92.4931 142.799C92.5086 148.173 94.7607 153.298 98.7369 156.917" fill="#FFD8D9"/>
<path d="M99.124 136.011L99.1396 144.305" stroke="#EAC1C5" stroke-width="0.945576" stroke-miterlimit="10"/>
<path d="M121.631 156.933L123.681 202.285C123.681 209.865 117.53 216 109.951 216C102.371 216 96.2363 209.865 96.2363 202.285L98.2865 156.933H121.631Z" fill="#FFD8D9"/>
<path d="M128.589 134.101V147.831C128.589 150.782 130.981 153.174 133.932 153.174H137.768C140.719 153.174 143.111 150.782 143.111 147.831V134.101C143.111 131.15 140.719 128.758 137.768 128.758H133.932C130.981 128.743 128.589 131.15 128.589 134.101Z" fill="#13183A"/>
<path d="M197.39 145.064L235.784 145.064L235.784 136.833L197.39 136.833L197.39 145.064Z" fill="#13183A"/>
<path d="M235.789 134.101V147.831C235.789 150.782 238.181 153.174 241.132 153.174H244.968C247.919 153.174 250.311 150.782 250.311 147.831V134.101C250.311 131.15 247.919 128.758 244.968 128.758H241.132C238.181 128.743 235.789 131.15 235.789 134.101Z" fill="#13183A"/>
<path d="M204.493 156.902L203.189 147.008C202.909 144.911 202.428 135.297 202.428 135.297V134.287V132.268C202.428 130.544 203.826 129.146 205.55 129.162C207.274 129.162 208.672 130.56 208.656 132.284C208.656 130.56 210.054 129.162 211.778 129.177C213.502 129.177 214.9 130.575 214.884 132.299C214.884 130.575 216.282 129.178 218.006 129.193C219.652 129.193 220.973 130.482 221.097 132.082C221.221 130.373 222.712 129.038 224.498 129.209C226.114 129.364 227.294 130.824 227.294 132.439V136.353C227.294 134.536 228.863 133.092 230.711 133.262C232.326 133.418 233.507 134.878 233.507 136.493L233.491 142.799C233.476 148.173 231.224 153.298 227.248 156.917" fill="#FFD8D9"/>
<path d="M226.859 136.011L226.844 144.305" stroke="#EAC1C5" stroke-width="0.945576" stroke-miterlimit="10"/>
<path d="M204.336 156.933L202.286 202.285C202.286 209.865 208.437 216 216.016 216C223.596 216 229.731 209.865 229.731 202.285L227.681 156.933H204.336Z" fill="#FFD8D9"/>
<path d="M197.394 134.101V147.831C197.394 150.782 195.002 153.174 192.051 153.174H188.215C185.264 153.174 182.872 150.782 182.872 147.831V134.101C182.872 131.15 185.264 128.758 188.215 128.758H192.051C195.002 128.743 197.394 131.15 197.394 134.101Z" fill="#13183A"/>
<path d="M198.544 87.0394H127.455L129.226 75.8721H196.758L198.544 87.0394Z" fill="white"/>
<path d="M215.101 66.2895C213.098 66.6622 202.055 65.0003 202.055 65.0003C202.055 65.0003 211.715 59.4089 213.719 59.0206C215.723 58.6478 217.664 59.9525 218.037 61.9561C218.425 63.9752 217.105 65.9012 215.101 66.2895Z" fill="#E8EEEF"/>
<path d="M102.308 97.9429C104.094 97.9429 113.335 101.189 113.335 101.189C113.335 101.189 104.094 104.435 102.308 104.435C100.522 104.435 99.0615 102.991 99.0615 101.189C99.0615 99.3873 100.522 97.9429 102.308 97.9429Z" fill="#E8EEEF"/>
<path d="M109.532 111.906C110.51 110.927 117.375 107.619 117.375 107.619C117.375 107.619 114.082 114.484 113.088 115.463C112.11 116.441 110.51 116.441 109.532 115.463C108.538 114.484 108.538 112.9 109.532 111.906Z" fill="#E8EEEF"/>
<path d="M206.544 49.7635C205.394 51.4565 196.401 58.0886 196.401 58.0886C196.401 58.0886 199.275 47.294 200.424 45.6165C201.573 43.9391 203.872 43.4887 205.565 44.638C207.258 45.7718 207.693 48.0705 206.544 49.7635Z" fill="#E8EEEF"/>
<path d="M123.68 202.286C123.68 209.788 117.653 215.876 110.183 216C114.019 214.152 116.939 210.549 117.762 206.045L122.297 171.58L123.68 202.286Z" fill="#EAC1C5"/>
<path d="M229.747 202.286C229.747 209.788 223.721 215.876 216.25 216C220.086 214.152 223.006 210.549 223.829 206.045L228.365 171.58L229.747 202.286Z" fill="#EAC1C5"/>
</svg>
