<svg width="326" height="326" viewBox="0 0 326 326" fill="none" xmlns="http://www.w3.org/2000/svg">
<rect width="326" height="326" fill="#E5939F"/>
<path d="M59.0414 259.544C57.8004 259.544 56.9334 259.493 53.8224 259.493C51.3234 259.493 50.8814 259.595 50.8814 259.952C50.8814 260.326 51.4084 260.36 54.7574 260.36C56.1514 260.36 58.2764 260.258 59.3984 260.054C59.6704 260.003 59.8574 260.139 59.8744 260.411L59.9594 261.397C59.9764 261.635 59.8234 261.805 59.5684 261.839C58.3444 262.009 56.1684 262.145 54.7744 262.145C49.8614 262.145 48.4164 261.72 48.4164 259.918C48.4164 258.133 50.0824 257.708 53.7884 257.708C54.7234 257.708 55.7944 257.691 56.5424 257.691C56.9844 257.691 57.1714 257.589 57.1714 257.351C57.1714 257.096 57.0014 256.994 56.5764 256.994C54.9614 256.994 51.2044 257.113 49.1984 257.283C48.9264 257.3 48.7564 257.147 48.7564 256.875V255.889C48.7564 255.634 48.8924 255.498 49.1984 255.481C50.2524 255.413 51.4594 255.345 52.7004 255.294V255.073C52.7004 254.852 52.8024 254.665 53.0064 254.563C51.0004 254.58 49.1644 254.546 47.7874 254.444C47.3964 254.41 47.2604 254.257 47.2604 253.934V253.033C47.2604 252.676 47.4304 252.523 47.7874 252.557C49.2494 252.676 51.5274 252.693 53.9074 252.693C56.5594 252.693 59.0074 252.659 60.0614 252.557C60.4184 252.523 60.6054 252.676 60.6054 253.033V253.934C60.6054 254.24 60.4694 254.41 60.0784 254.444C59.2454 254.529 57.2564 254.58 55.6924 254.58C55.3184 254.58 55.1654 254.733 55.1654 255.022V255.243C56.1344 255.243 57.0694 255.243 57.9194 255.277C59.0074 255.311 59.6194 255.702 59.6194 256.518C59.6194 257.181 59.2454 257.657 58.6334 257.861H59.0414C59.2964 257.861 59.4834 258.014 59.4834 258.252V259.136C59.4834 259.374 59.3134 259.544 59.0414 259.544ZM54.0094 250.007C53.2614 251.214 51.2894 252.2 49.0624 252.098C48.6884 252.081 48.5014 251.894 48.5014 251.571V250.636C48.5014 250.313 48.6884 250.143 49.0624 250.143C51.3744 250.143 52.7854 249.038 52.7854 247.797V247.593C52.7854 247.236 52.9894 247.032 53.3464 247.032H54.6894C55.0464 247.032 55.2504 247.236 55.2504 247.593V247.797C55.2504 249.055 56.6444 250.143 58.9394 250.143C59.3134 250.143 59.5004 250.313 59.5004 250.636V251.571C59.5004 251.894 59.3134 252.081 58.9394 252.098C56.7124 252.2 54.7404 251.214 54.0094 250.007ZM62.9454 254.257C64.4074 254.376 66.6514 254.393 69.0314 254.393C71.6834 254.393 74.0974 254.359 75.1514 254.257C75.5084 254.223 75.7294 254.41 75.7294 254.767V255.77C75.7294 256.076 75.5594 256.28 75.1684 256.314C74.1144 256.416 71.7004 256.45 69.0484 256.45C66.6684 256.45 64.4244 256.433 62.9454 256.314C62.5544 256.28 62.3844 256.093 62.3844 255.77V254.767C62.3844 254.41 62.5884 254.223 62.9454 254.257ZM63.6254 250.16C63.6254 247.865 65.3254 246.862 69.1844 246.862C73.0434 246.862 74.7434 247.865 74.7434 250.16C74.7434 252.455 73.0434 253.458 69.1844 253.458C65.3254 253.458 63.6254 252.455 63.6254 250.16ZM69.1844 251.418C71.4794 251.418 72.2784 251.095 72.2784 250.16C72.2784 249.225 71.4794 248.902 69.1844 248.902C66.9234 248.902 66.0904 249.242 66.0904 250.16C66.0904 251.078 66.9234 251.418 69.1844 251.418ZM74.5734 261.839C72.4314 262.043 69.6774 262.145 67.0084 262.145C64.7814 262.145 63.5404 261.023 63.5404 259.017C63.5404 258.439 63.5914 258.133 63.6424 257.81C63.7104 257.419 63.8804 257.249 64.2034 257.249H65.5464C65.9374 257.249 66.1584 257.47 66.1074 257.81C66.0734 258.048 66.0054 258.422 66.0054 258.711C66.0054 259.476 66.4644 259.85 67.2974 259.85C69.8644 259.85 72.6014 259.731 74.4204 259.544C74.7434 259.51 74.9814 259.714 74.9984 260.071L75.0834 261.278C75.1004 261.601 74.9304 261.805 74.5734 261.839ZM86.1151 257.317C87.0331 257.317 87.5601 256.637 87.5601 255.447C87.5601 254.257 87.0331 253.577 86.1151 253.577C85.1971 253.577 84.6701 254.257 84.6701 255.447C84.6701 256.637 85.1971 257.317 86.1151 257.317ZM86.1151 251.316C88.5631 251.316 89.9911 252.846 89.9911 255.447C89.9911 258.048 88.5631 259.578 86.1151 259.578C83.6671 259.578 82.2391 258.048 82.2391 255.447C82.2391 252.846 83.6671 251.316 86.1151 251.316ZM94.1051 261.329C94.1051 261.686 93.9011 261.89 93.5441 261.89H92.2011C91.8441 261.89 91.6401 261.686 91.6401 261.329V247.219C91.6401 246.862 91.8441 246.658 92.2011 246.658H93.5441C93.9011 246.658 94.1051 246.862 94.1051 247.219V252.914C94.2921 252.625 94.6831 252.438 95.1591 252.438H95.7031C96.0431 252.438 96.2301 252.625 96.2301 252.965V254.291C96.2301 254.631 96.0431 254.818 95.7031 254.818H95.0911C94.5131 254.818 94.1051 255.209 94.1051 255.753V261.329ZM87.3731 247.695C87.3731 247.916 87.5261 248.069 87.8321 248.069H89.9571C90.3141 248.069 90.5181 248.273 90.5181 248.63V249.803C90.5181 250.16 90.3141 250.364 89.9571 250.364H82.2901C81.9331 250.364 81.7291 250.16 81.7291 249.803V248.63C81.7291 248.273 81.9331 248.069 82.2901 248.069H85.1631C84.9931 247.967 84.9081 247.814 84.9081 247.576V246.777C84.9081 246.42 85.0781 246.25 85.4351 246.25H86.8461C87.2031 246.25 87.3731 246.42 87.3731 246.777V247.695ZM102.837 258.898C102.837 258.541 102.973 258.286 103.211 258.184C101.324 258.167 99.3181 258.082 97.9581 257.895C97.5671 257.844 97.3971 257.674 97.3971 257.351V256.093C97.3971 255.736 97.6011 255.532 97.9581 255.583C99.4201 255.77 101.664 255.872 104.044 255.872C106.696 255.872 109.11 255.753 110.164 255.583C110.521 255.515 110.742 255.736 110.742 256.093V257.351C110.742 257.657 110.572 257.827 110.181 257.895C109.365 258.031 107.767 258.133 105.88 258.167C105.472 258.184 105.302 258.354 105.302 258.745V260.734C105.302 261.091 105.115 261.295 104.758 261.295H103.398C103.041 261.295 102.837 261.091 102.837 260.734V258.898ZM108.923 251.843C107.682 251.843 107.07 251.792 103.959 251.792C101.46 251.792 101.273 251.945 101.273 252.319C101.273 252.693 101.545 252.761 104.894 252.761C106.288 252.761 108.073 252.642 109.195 252.421C109.467 252.37 109.637 252.506 109.705 252.846L109.926 253.832C109.994 254.121 109.79 254.325 109.535 254.376C108.362 254.58 106.305 254.767 104.911 254.767C99.9981 254.767 98.8081 254.342 98.8081 252.251C98.8081 250.194 100.219 249.803 103.925 249.803H106.424C106.866 249.803 107.053 249.633 107.053 249.412C107.053 249.174 106.883 249.072 106.458 249.072C104.843 249.072 101.596 249.157 99.5901 249.361C99.3181 249.395 99.1481 249.191 99.1481 248.851V247.865C99.1481 247.559 99.2841 247.389 99.5901 247.355C101.562 247.185 103.789 247.066 105.914 247.066C106.56 247.066 107.189 247.083 107.801 247.1C108.889 247.151 109.501 247.695 109.501 248.63C109.501 249.378 109.127 249.786 108.532 250.007H108.923C109.178 250.007 109.365 250.194 109.365 250.483V251.333C109.365 251.639 109.195 251.843 108.923 251.843ZM119.083 254.75C118.913 258.371 117.859 259.918 115.615 259.918C113.184 259.918 112.147 258.082 112.147 253.73C112.147 249.395 113.184 247.559 115.615 247.559C117.791 247.559 118.845 249.004 119.066 252.37H120.12C120.46 252.37 120.647 252.2 120.647 251.877V247.355C120.647 246.998 120.817 246.828 121.174 246.828H122.415C122.772 246.828 122.942 246.998 122.942 247.355V261.363C122.942 261.72 122.772 261.89 122.415 261.89H121.174C120.817 261.89 120.647 261.72 120.647 261.363V254.495C120.528 254.648 120.324 254.75 120.086 254.75H119.083ZM123.877 247.185C123.877 246.828 124.047 246.658 124.404 246.658H125.645C126.002 246.658 126.172 246.828 126.172 247.185V261.363C126.172 261.72 126.002 261.89 125.645 261.89H124.404C124.047 261.89 123.877 261.72 123.877 261.363V247.185ZM115.615 249.854C114.697 249.854 114.408 250.874 114.408 253.73C114.408 256.603 114.697 257.623 115.615 257.623C116.55 257.623 116.839 256.62 116.839 253.73C116.839 250.84 116.55 249.854 115.615 249.854ZM135.57 252.88C135.57 253.373 136.012 253.594 137.015 253.594C138.018 253.594 138.46 253.373 138.46 252.88C138.46 252.404 138.018 252.183 137.015 252.183C136.012 252.183 135.57 252.404 135.57 252.88ZM137.015 250.109C139.616 250.109 140.891 251.027 140.891 252.88C140.891 254.75 139.616 255.668 137.015 255.668C134.414 255.668 133.139 254.75 133.139 252.88C133.139 251.027 134.414 250.109 137.015 250.109ZM145.005 256.739C145.005 257.096 144.801 257.3 144.444 257.3H143.101C142.744 257.3 142.54 257.096 142.54 256.739V247.219C142.54 246.862 142.744 246.658 143.101 246.658H144.444C144.801 246.658 145.005 246.862 145.005 247.219V251.044C145.192 250.755 145.583 250.568 146.059 250.568H146.603C146.943 250.568 147.13 250.755 147.13 251.095V252.336C147.13 252.676 146.943 252.863 146.603 252.863H145.991C145.413 252.863 145.005 253.254 145.005 253.798V256.739ZM138.273 246.437V246.845C138.273 247.066 138.426 247.219 138.732 247.219H140.891C141.248 247.219 141.418 247.389 141.418 247.746V248.902C141.418 249.259 141.248 249.429 140.891 249.429H133.156C132.799 249.429 132.629 249.259 132.629 248.902V247.746C132.629 247.389 132.799 247.219 133.156 247.219H136.063C135.893 247.117 135.808 246.964 135.808 246.726V246.437C135.808 246.08 135.978 245.91 136.335 245.91H137.746C138.103 245.91 138.273 246.08 138.273 246.437ZM138.511 262.145C135.91 262.145 134.431 261.006 134.431 258.949C134.431 258.099 134.482 257.793 134.533 257.47C134.584 257.113 134.737 256.909 135.094 256.909H136.437C136.794 256.909 137.049 257.113 136.998 257.47C136.93 257.912 136.896 258.116 136.896 258.575C136.896 259.459 137.525 259.85 138.817 259.85C140.942 259.85 143.05 259.714 144.852 259.544C145.192 259.51 145.362 259.731 145.379 260.071L145.464 261.312C145.481 261.652 145.277 261.805 144.937 261.839C143.237 262.026 141.333 262.145 138.511 262.145ZM156.933 257.997C156.44 257.997 156.202 258.252 156.202 258.711V260.734C156.202 261.091 156.015 261.295 155.658 261.295H154.298C153.941 261.295 153.737 261.091 153.737 260.734V258.83C153.737 258.473 153.941 258.15 154.247 258.014C152.139 257.997 150.184 257.912 148.858 257.725C148.467 257.674 148.297 257.504 148.297 257.181V255.923C148.297 255.566 148.501 255.362 148.858 255.413C150.32 255.6 152.564 255.702 154.944 255.702C157.596 255.702 160.01 255.583 161.064 255.413C161.421 255.345 161.642 255.566 161.642 255.923V257.181C161.642 257.487 161.472 257.657 161.081 257.725C160.265 257.861 158.667 257.997 156.933 257.997ZM160.01 247.763V249.004C160.01 249.344 159.806 249.548 159.483 249.531C157.902 249.446 156.44 249.344 155.063 249.344C152.445 249.344 151.748 249.633 151.748 250.738C151.748 251.843 152.326 252.132 154.621 252.132C155.93 252.132 157.97 251.996 159.619 251.826C159.942 251.792 160.112 251.962 160.146 252.353L160.231 253.594C160.248 253.917 160.078 254.087 159.704 254.121C157.154 254.359 155.845 254.427 154.876 254.427C150.847 254.427 149.283 253.39 149.283 250.738C149.283 248.069 150.898 247.049 155.114 247.049C156.814 247.049 158.038 247.1 159.483 247.236C159.857 247.27 160.01 247.423 160.01 247.763ZM175.53 247.049C175.887 247.049 176.091 247.253 176.091 247.61V248.783C176.091 249.14 175.887 249.344 175.53 249.344H173.286V250.296C173.286 251.928 174.272 252.863 175.649 252.863C176.006 252.863 176.176 253.033 176.176 253.356V254.631C176.176 254.971 176.006 255.158 175.649 255.158C173.983 255.158 172.538 254.393 172.079 252.965C171.603 254.393 170.158 255.158 168.458 255.158C168.084 255.158 167.897 254.954 167.897 254.631V253.356C167.897 253.033 168.084 252.863 168.458 252.863C169.835 252.863 170.821 251.928 170.821 250.296V249.344H168.543C168.186 249.344 167.982 249.14 167.982 248.783V247.61C167.982 247.253 168.186 247.049 168.543 247.049H175.53ZM173.524 262.145C170.923 262.145 169.444 260.921 169.444 258.779C169.444 257.929 169.495 257.538 169.546 257.13C169.597 256.773 169.75 256.569 170.107 256.569H171.45C171.807 256.569 172.062 256.773 172.011 257.13C171.943 257.657 171.909 257.946 171.909 258.405C171.909 259.374 172.538 259.85 173.83 259.85C175.955 259.85 178.063 259.714 179.865 259.544C180.205 259.51 180.375 259.731 180.392 260.071L180.477 261.312C180.494 261.652 180.29 261.805 179.95 261.839C178.25 262.026 176.346 262.145 173.524 262.145ZM180.018 256.739C180.018 257.096 179.814 257.3 179.457 257.3H178.114C177.757 257.3 177.553 257.096 177.553 256.739V247.219C177.553 246.862 177.757 246.658 178.114 246.658H179.457C179.814 246.658 180.018 246.862 180.018 247.219V251.044C180.205 250.755 180.596 250.568 181.072 250.568H181.616C181.956 250.568 182.143 250.755 182.143 251.095V252.336C182.143 252.676 181.956 252.863 181.616 252.863H181.004C180.426 252.863 180.018 253.254 180.018 253.798V256.739ZM191.849 247.559C194.62 247.559 195.844 249.429 195.844 253.73C195.844 258.031 194.603 259.918 191.849 259.918C189.095 259.918 187.871 258.031 187.871 253.73C187.871 249.429 189.095 247.559 191.849 247.559ZM190.302 253.73C190.302 256.535 190.744 257.623 191.849 257.623C192.971 257.623 193.413 256.552 193.413 253.73C193.413 250.925 192.971 249.854 191.849 249.854C190.744 249.854 190.302 250.925 190.302 253.73ZM197.782 247.219C197.782 246.862 197.986 246.658 198.343 246.658H199.686C200.043 246.658 200.247 246.862 200.247 247.219V261.329C200.247 261.686 200.043 261.89 199.686 261.89H198.343C197.986 261.89 197.782 261.686 197.782 261.329V247.219ZM206.36 257.317C207.278 257.317 207.805 256.637 207.805 255.447C207.805 254.257 207.278 253.577 206.36 253.577C205.442 253.577 204.915 254.257 204.915 255.447C204.915 256.637 205.442 257.317 206.36 257.317ZM206.36 251.316C208.808 251.316 210.236 252.846 210.236 255.447C210.236 258.048 208.808 259.578 206.36 259.578C203.912 259.578 202.484 258.048 202.484 255.447C202.484 252.846 203.912 251.316 206.36 251.316ZM214.35 261.329C214.35 261.686 214.146 261.89 213.789 261.89H212.446C212.089 261.89 211.885 261.686 211.885 261.329V247.219C211.885 246.862 212.089 246.658 212.446 246.658H213.789C214.146 246.658 214.35 246.862 214.35 247.219V252.914C214.537 252.625 214.928 252.438 215.404 252.438H215.948C216.288 252.438 216.475 252.625 216.475 252.965V254.291C216.475 254.631 216.288 254.818 215.948 254.818H215.336C214.758 254.818 214.35 255.209 214.35 255.753V261.329ZM207.618 247.695C207.618 247.916 207.771 248.069 208.077 248.069H210.202C210.559 248.069 210.763 248.273 210.763 248.63V249.803C210.763 250.16 210.559 250.364 210.202 250.364H202.535C202.178 250.364 201.974 250.16 201.974 249.803V248.63C201.974 248.273 202.178 248.069 202.535 248.069H205.408C205.238 247.967 205.153 247.814 205.153 247.576V246.777C205.153 246.42 205.323 246.25 205.68 246.25H207.091C207.448 246.25 207.618 246.42 207.618 246.777V247.695ZM218.203 260.275C217.812 260.224 217.642 260.054 217.642 259.731V258.473C217.642 258.116 217.846 257.929 218.203 257.963C219.478 258.082 221.552 258.235 223.439 258.269C223.201 258.15 223.082 257.912 223.082 257.555V256.246C219.903 256.059 219.053 255.328 219.053 253.424C219.053 251.197 220.464 250.602 224.17 250.602H226.669C227.111 250.602 227.298 250.432 227.298 250.126C227.298 249.803 227.128 249.684 226.703 249.684C225.088 249.684 221.841 249.769 219.835 249.973C219.563 250.007 219.393 249.803 219.393 249.463V248.205C219.393 247.899 219.529 247.729 219.835 247.695C221.807 247.525 224.034 247.406 226.159 247.406C226.805 247.406 227.434 247.423 228.046 247.44C229.134 247.491 229.746 248.069 229.746 249.089C229.746 249.922 229.372 250.534 228.743 250.806H229.168C229.423 250.806 229.61 250.993 229.61 251.282V252.404C229.61 252.71 229.44 252.914 229.168 252.914C227.927 252.914 227.315 252.863 224.204 252.863C221.705 252.863 221.518 253.016 221.518 253.475C221.518 253.934 221.79 254.019 225.139 254.019C226.533 254.019 228.318 253.9 229.44 253.679C229.712 253.628 229.899 253.764 229.95 254.104L230.171 255.362C230.222 255.651 230.035 255.855 229.78 255.906C228.709 256.093 226.907 256.263 225.547 256.297V257.589C225.547 258.031 225.717 258.201 226.193 258.218C227.026 258.252 229.083 258.133 230.409 257.963C230.766 257.912 230.987 258.116 230.987 258.473V259.731C230.987 260.037 230.817 260.207 230.426 260.275C229.372 260.462 226.958 260.564 224.306 260.564C221.926 260.564 219.682 260.479 218.203 260.275ZM244.093 259.493C241.594 259.493 241.152 259.595 241.152 259.952C241.152 260.326 241.679 260.36 245.028 260.36C246.422 260.36 248.547 260.258 249.669 260.054C249.941 260.003 250.128 260.139 250.145 260.411L250.23 261.397C250.247 261.635 250.094 261.805 249.839 261.839C248.615 262.009 246.439 262.145 245.045 262.145C240.132 262.145 238.687 261.72 238.687 259.918C238.687 258.133 240.353 257.708 244.059 257.708C244.994 257.708 246.065 257.691 246.813 257.691C247.255 257.691 247.442 257.589 247.442 257.351C247.442 257.096 247.272 256.994 246.847 256.994C245.232 256.994 241.475 257.113 239.469 257.283C239.197 257.3 239.027 257.147 239.027 256.875V255.889C239.027 255.634 239.163 255.498 239.469 255.481C240.523 255.413 241.73 255.345 242.971 255.294V255.073C242.971 254.852 243.073 254.665 243.277 254.563C241.271 254.58 239.435 254.546 238.058 254.444C237.667 254.41 237.531 254.257 237.531 253.934V253.033C237.531 252.676 237.701 252.523 238.058 252.557C239.52 252.676 241.798 252.693 244.178 252.693C246.83 252.693 249.278 252.659 250.332 252.557C250.689 252.523 250.876 252.676 250.876 253.033V253.934C250.876 254.24 250.74 254.41 250.349 254.444C249.516 254.529 247.527 254.58 245.963 254.58C245.589 254.58 245.436 254.733 245.436 255.022V255.243C246.405 255.243 247.34 255.243 248.19 255.277C249.278 255.311 249.89 255.702 249.89 256.518C249.89 257.181 249.516 257.657 248.904 257.861H249.312C249.567 257.861 249.754 258.014 249.754 258.252V259.136C249.754 259.374 249.584 259.544 249.312 259.544C248.071 259.544 247.204 259.493 244.093 259.493ZM239.554 247.032H248.989C249.346 247.032 249.516 247.202 249.516 247.559V248.46C249.516 248.817 249.346 248.987 248.989 248.987H245.691C246.099 249.684 247.238 250.16 249.21 250.16C249.584 250.16 249.771 250.33 249.771 250.653V251.588C249.771 251.911 249.584 252.098 249.21 252.115C246.864 252.217 244.977 251.367 244.28 250.092C243.566 251.367 241.679 252.217 239.333 252.115C238.959 252.098 238.772 251.911 238.772 251.588V250.653C238.772 250.33 238.959 250.16 239.333 250.16C241.305 250.16 242.478 249.684 242.886 248.987H239.554C239.197 248.987 239.027 248.817 239.027 248.46V247.559C239.027 247.202 239.197 247.032 239.554 247.032ZM256.429 247.559C259.2 247.559 260.424 249.429 260.424 253.73C260.424 258.031 259.183 259.918 256.429 259.918C253.675 259.918 252.451 258.031 252.451 253.73C252.451 249.429 253.675 247.559 256.429 247.559ZM254.882 253.73C254.882 256.535 255.324 257.623 256.429 257.623C257.551 257.623 257.993 256.552 257.993 253.73C257.993 250.925 257.551 249.854 256.429 249.854C255.324 249.854 254.882 250.925 254.882 253.73ZM262.362 247.219C262.362 246.862 262.566 246.658 262.923 246.658H264.266C264.623 246.658 264.827 246.862 264.827 247.219V261.329C264.827 261.686 264.623 261.89 264.266 261.89H262.923C262.566 261.89 262.362 261.686 262.362 261.329V247.219ZM271.79 259.017C272.215 256.229 272.402 254.07 272.402 251.758C272.402 250.483 272.062 250.024 271.093 250.024C269.597 250.024 268.713 250.211 267.591 250.33C267.268 250.364 267.064 250.16 267.064 249.803V248.562C267.064 248.239 267.217 248.086 267.591 248.035C269.308 247.797 270.26 247.729 271.467 247.729C273.881 247.729 274.884 248.817 274.884 251.469C274.884 254.189 274.714 256.535 274.255 259.085C274.187 259.459 274.034 259.578 273.677 259.578H272.317C271.943 259.578 271.739 259.357 271.79 259.017ZM276.805 247.219C276.805 246.862 277.009 246.658 277.366 246.658H278.709C279.066 246.658 279.27 246.862 279.27 247.219V261.329C279.27 261.686 279.066 261.89 278.709 261.89H277.366C277.009 261.89 276.805 261.686 276.805 261.329V247.219Z" fill="white"/>
<path d="M44.9451 33.2C44.9451 39.3 41.1951 43.7 33.1951 48C28.8951 50.3 26.2951 52.2 25.0951 54H44.9451C45.9451 54 46.4951 54.55 46.4951 55.55V59.45C46.4951 60.45 45.9451 61 44.9451 61H18.8951C16.9951 61 16.0451 60 16.0451 58.1C16.0451 51.7 19.5451 47.55 28.6951 42.55C35.1951 39 37.6951 36.8 37.6951 33.55C37.6951 30.25 34.9951 28.2 30.8451 28.2C26.6951 28.2 23.9951 30.25 23.9951 33.55C23.9951 34.6 23.3951 35.2 22.3451 35.2H18.3951C17.3451 35.2 16.7451 34.6 16.7451 33.55C16.7451 25.6 21.8451 21.2 30.8451 21.2C39.7451 21.2 44.9451 25.55 44.9451 33.2Z" fill="white"/>
<path d="M87.4746 112.161C72.7188 112.161 60.7158 100.158 60.7158 85.4023C60.7158 70.6465 72.7188 58.6436 87.4746 58.6436H123.809C138.565 58.6436 150.553 70.6465 150.553 85.4023C150.553 100.158 138.55 112.161 123.809 112.161H87.4746Z" fill="#A1C4CE"/>
<path d="M123.809 105.19H87.4744C76.5519 105.19 67.6865 96.3249 67.6865 85.4024C67.6865 74.4798 76.5519 65.6145 87.4744 65.6145H123.809C134.731 65.6145 143.597 74.4798 143.597 85.4024C143.597 96.3397 134.731 105.19 123.809 105.19Z" fill="white"/>
<path d="M79.9414 74.4951H87.7559V98.1458H84.6627V77.5884H79.9414V74.4951Z" fill="#6D8C67"/>
<path d="M101.519 81.1995L104.524 86.3647L111.805 82.0875L113.345 84.7367L103.369 90.5532L100.365 85.3879L93.0832 89.6652L91.5439 87.0159L101.519 81.1995Z" fill="#6D8C67"/>
<path d="M125.452 84.781C126.429 84.781 127.258 84.3962 127.968 83.6266C128.679 82.857 129.034 81.9986 129.034 81.0218C129.034 79.9858 128.679 79.1126 127.968 78.4022C127.258 77.677 126.429 77.3217 125.452 77.3217H116.898V74.2285H125.452C127.243 74.2285 128.826 74.8797 130.173 76.1673C130.795 76.7889 131.269 77.4994 131.609 78.3282C131.949 79.157 132.112 80.045 132.112 81.0218C132.112 81.9394 131.949 82.8274 131.609 83.7154C131.269 84.6034 130.81 85.3286 130.218 85.9207C129.596 86.5423 128.886 87.0159 128.057 87.3563C127.228 87.6967 126.37 87.8595 125.452 87.8595H119.887V95.0524H130.736V98.1456H116.794V84.781H125.452Z" fill="#6D8C67"/>
<path d="M181.175 78.6981C191.033 78.6981 199.024 70.7068 199.024 60.849C199.024 50.9913 191.033 43 181.175 43C171.317 43 163.326 50.9913 163.326 60.849C163.326 70.7068 171.317 78.6981 181.175 78.6981Z" fill="#13183A"/>
<path d="M132.245 163.533C136.217 163.533 139.438 160.313 139.438 156.34C139.438 152.368 136.217 149.147 132.245 149.147C128.272 149.147 125.052 152.368 125.052 156.34C125.052 160.313 128.272 163.533 132.245 163.533Z" fill="white"/>
<path d="M139.438 163.533C143.411 163.533 146.631 160.313 146.631 156.34C146.631 152.368 143.411 149.147 139.438 149.147C135.465 149.147 132.245 152.368 132.245 156.34C132.245 160.313 135.465 163.533 139.438 163.533Z" fill="white"/>
<path d="M146.616 163.533C150.588 163.533 153.809 160.313 153.809 156.34C153.809 152.368 150.588 149.147 146.616 149.147C142.643 149.147 139.423 152.368 139.423 156.34C139.423 160.313 142.643 163.533 146.616 163.533Z" fill="white"/>
<path d="M153.809 163.533C157.782 163.533 161.002 160.313 161.002 156.34C161.002 152.368 157.782 149.147 153.809 149.147C149.837 149.147 146.616 152.368 146.616 156.34C146.616 160.313 149.837 163.533 153.809 163.533Z" fill="white"/>
<path d="M217.243 100.884C217.243 120.849 201.067 137.041 181.086 137.041C164.333 137.041 150.228 125.63 146.143 110.164C145.359 107.204 144.944 104.095 144.944 100.899C144.944 88.4369 151.249 77.4551 160.84 70.9579C160.973 70.8691 161.091 70.7951 161.225 70.7063C166.923 66.947 173.76 64.7566 181.101 64.7566C188.442 64.7566 195.265 66.947 200.963 70.6915C210.761 77.1295 217.243 88.2445 217.243 100.884Z" fill="#13183A"/>
<path d="M245.719 189.507V219.507H116.439V189.507C116.439 174.144 127.88 161.475 142.695 159.551C143.983 159.359 145.315 159.285 146.661 159.285H215.482C216.119 159.285 216.755 159.3 217.377 159.359C233.213 160.321 245.719 173.449 245.719 189.507Z" fill="#6A9BEA"/>
<path d="M195.619 138.55V159.285C186.843 165.25 175.328 165.25 166.552 159.285V138.55H195.619Z" fill="#FFD8D9"/>
<path d="M195.619 138.55V152.359C192.778 153.232 189.758 153.705 186.636 153.705C178.939 153.705 171.895 150.834 166.552 146.113V138.55H195.619Z" fill="#EAC1C5"/>
<path d="M153.143 126.029C158.619 126.029 163.059 121.59 163.059 116.113C163.059 110.637 158.619 106.197 153.143 106.197C147.666 106.197 143.227 110.637 143.227 116.113C143.227 121.59 147.666 126.029 153.143 126.029Z" fill="#EAC1C5"/>
<path d="M209.028 126.029C214.505 126.029 218.945 121.59 218.945 116.113C218.945 110.637 214.505 106.197 209.028 106.197C203.552 106.197 199.112 110.637 199.112 116.113C199.112 121.59 203.552 126.029 209.028 126.029Z" fill="#EAC1C5"/>
<path d="M211.441 100.247V117.8C211.441 134.569 197.854 148.155 181.086 148.155C164.317 148.155 150.716 134.569 150.716 117.8V100.247C150.716 98.9594 150.79 97.7014 150.967 96.4434C152.817 81.4804 165.605 69.8918 181.086 69.8918C189.463 69.8918 197.055 73.2959 202.546 78.7868C208.037 84.2628 211.441 91.8553 211.441 100.247Z" fill="#FFD8D9"/>
<path d="M171.54 114.396C173.093 114.396 174.352 112.753 174.352 110.725C174.352 108.698 173.093 107.055 171.54 107.055C169.987 107.055 168.728 108.698 168.728 110.725C168.728 112.753 169.987 114.396 171.54 114.396Z" fill="#352F2C"/>
<path d="M190.411 114.396C191.964 114.396 193.223 112.753 193.223 110.725C193.223 108.698 191.964 107.055 190.411 107.055C188.858 107.055 187.599 108.698 187.599 110.725C187.599 112.753 188.858 114.396 190.411 114.396Z" fill="#352F2C"/>
<path d="M166.315 104.598C165.782 104.598 165.264 104.317 164.968 103.829C164.539 103.089 164.79 102.156 165.515 101.727C165.663 101.638 169.289 99.5513 174.588 100.365C175.431 100.498 176.009 101.283 175.875 102.127C175.742 102.97 174.943 103.547 174.114 103.414C169.97 102.778 167.099 104.376 167.069 104.391C166.847 104.539 166.581 104.598 166.315 104.598Z" fill="#13183A"/>
<path d="M195.855 104.598C196.388 104.598 196.906 104.317 197.202 103.829C197.631 103.089 197.38 102.156 196.655 101.727C196.507 101.638 192.881 99.5513 187.582 100.365C186.739 100.498 186.161 101.283 186.295 102.127C186.428 102.97 187.227 103.547 188.056 103.414C192.2 102.778 195.071 104.376 195.101 104.391C195.337 104.539 195.604 104.598 195.855 104.598Z" fill="#13183A"/>
<path d="M185.156 119.458C185.156 121.708 183.335 122.004 181.086 122.004C178.836 122.004 177.016 121.708 177.016 119.458C177.016 117.208 178.836 110.208 181.086 110.208C183.335 110.208 185.156 117.208 185.156 119.458Z" fill="#EAC1C5"/>
<path d="M191.995 125.422C190.663 130.203 186.282 133.695 181.102 133.695C175.907 133.695 171.541 130.203 170.209 125.422C173.406 126.414 177.121 126.991 181.102 126.991C185.083 126.991 188.798 126.414 191.995 125.422Z" fill="#D1867C"/>
<path d="M129.389 210.493H119.739C116.128 210.493 113.197 207.563 113.197 203.952V177.297C113.197 173.685 116.128 170.755 119.739 170.755H129.389V210.493Z" stroke="#E8EEEF" stroke-width="5.96744" stroke-miterlimit="10"/>
<path d="M120.241 179.561C120.241 181.604 118.584 183.261 116.541 183.261H109.822C107.78 183.261 106.122 181.604 106.122 179.561C106.122 177.519 107.78 175.861 109.822 175.861H116.541C118.584 175.861 120.241 177.519 120.241 179.561Z" fill="#FFD8D9"/>
<path d="M120.094 180.583C119.664 182.122 118.244 183.261 116.556 183.261H109.837C108.15 183.261 106.729 182.137 106.3 180.583C106.921 181.071 107.721 181.367 108.579 181.367H117.844C118.673 181.367 119.472 181.071 120.094 180.583Z" fill="#EAC1C5"/>
<path d="M120.241 186.962C120.241 189.004 118.584 190.662 116.541 190.662H109.822C107.78 190.662 106.122 189.004 106.122 186.962C106.122 184.919 107.78 183.261 109.822 183.261H116.541C118.584 183.261 120.241 184.919 120.241 186.962Z" fill="#FFD8D9"/>
<path d="M120.094 187.968C119.664 189.507 118.244 190.647 116.556 190.647H109.837C108.15 190.647 106.729 189.522 106.3 187.968C106.921 188.457 107.721 188.753 108.579 188.753H117.844C118.673 188.767 119.472 188.471 120.094 187.968Z" fill="#EAC1C5"/>
<path d="M120.241 194.347C120.241 196.39 118.584 198.047 116.541 198.047H109.822C107.78 198.047 106.122 196.39 106.122 194.347C106.122 192.305 107.78 190.647 109.822 190.647H116.541C118.584 190.647 120.241 192.305 120.241 194.347Z" fill="#FFD8D9"/>
<path d="M120.094 195.368C119.664 196.908 118.244 198.047 116.556 198.047H109.837C108.15 198.047 106.729 196.922 106.3 195.368C106.921 195.857 107.721 196.153 108.579 196.153H117.844C118.673 196.153 119.472 195.857 120.094 195.368Z" fill="#EAC1C5"/>
<path d="M120.241 201.732C120.241 203.775 118.584 205.432 116.541 205.432H109.822C107.78 205.432 106.122 203.775 106.122 201.732C106.122 199.69 107.78 198.032 109.822 198.032H116.541C118.584 198.032 120.241 199.69 120.241 201.732Z" fill="#FFD8D9"/>
<path d="M120.094 202.753C119.664 204.293 118.244 205.432 116.556 205.432H109.837C108.15 205.432 106.729 204.307 106.3 202.753C106.921 203.242 107.721 203.538 108.579 203.538H117.844C118.673 203.538 119.472 203.242 120.094 202.753Z" fill="#EAC1C5"/>
<path d="M161.001 156.34H125.052V219.507H161.001V156.34Z" fill="#E8EEEF"/>
<path d="M156.028 214.534V161.313H130.024V214.534H156.028Z" fill="#EDC769"/>
<path d="M156.029 161.313H150.716V214.534H156.029V161.313Z" fill="#E8BB54"/>
<path d="M150.361 176.542C148.821 176.542 147.578 175.299 147.578 173.76V155.082H153.128V173.76C153.143 175.299 151.9 176.542 150.361 176.542Z" fill="white"/>
<path d="M165.753 85.802C165.753 97.7458 157.362 107.721 146.143 110.148C145.359 107.188 144.944 104.08 144.944 100.883C144.944 88.4216 151.249 77.4399 160.84 70.9426C163.918 75.0867 165.753 80.2223 165.753 85.802Z" fill="#13183A"/>
<path d="M174.944 83.2864C171.199 95.9406 160.114 103.577 148.703 102.231C148.881 98.8266 149.458 95.3782 150.464 91.9889C154.372 78.7871 163.785 69.3594 174.929 65.8074C176.557 71.2982 176.69 77.3811 174.944 83.2864Z" fill="#13183A"/>
<path d="M187.228 83.2864C190.973 95.9406 202.058 103.577 213.469 102.231C213.291 98.8266 212.714 95.3782 211.708 91.9889C207.801 78.7871 198.388 69.3594 187.243 65.8074C185.615 71.2982 185.482 77.3811 187.228 83.2864Z" fill="#13183A"/>
<path d="M196.419 85.802C196.419 97.7458 204.811 107.721 216.029 110.148C216.814 107.188 217.228 104.08 217.228 100.883C217.228 88.4216 210.923 77.4399 201.333 70.9426C198.239 75.0867 196.419 80.2223 196.419 85.802Z" fill="#13183A"/>
<path d="M187.257 72.0525L191.446 98.7521H191.431C177.238 98.7521 166.404 86.0831 168.609 72.0673C171.288 68.0861 174.5 65.7625 177.933 65.7625C181.382 65.7625 184.593 68.0713 187.257 72.0525Z" fill="#13183A"/>
<path d="M152.728 122.004C151.589 122.004 150.656 121.071 150.656 119.932V105.472L161.002 97.3169L154.726 120.479C154.489 121.382 153.661 122.004 152.728 122.004Z" fill="#13183A"/>
<path d="M209.428 122.004C210.567 122.004 211.5 121.071 211.5 119.932V105.472L201.154 97.3169L207.43 120.479C207.681 121.382 208.495 122.004 209.428 122.004Z" fill="#13183A"/>
<path d="M137.558 187.968C138.4 187.968 139.082 187.286 139.082 186.444C139.082 185.602 138.4 184.919 137.558 184.919C136.716 184.919 136.033 185.602 136.033 186.444C136.033 187.286 136.716 187.968 137.558 187.968Z" fill="#E8BB54"/>
<path d="M140.607 196.7C141.449 196.7 142.132 196.017 142.132 195.176C142.132 194.334 141.449 193.651 140.607 193.651C139.766 193.651 139.083 194.334 139.083 195.176C139.083 196.017 139.766 196.7 140.607 196.7Z" fill="#E8BB54"/>
<path d="M147.593 200.533C148.435 200.533 149.117 199.85 149.117 199.009C149.117 198.167 148.435 197.484 147.593 197.484C146.751 197.484 146.068 198.167 146.068 199.009C146.068 199.85 146.751 200.533 147.593 200.533Z" fill="#E8BB54"/>
<path d="M144.898 188.841C145.74 188.841 146.423 188.159 146.423 187.317C146.423 186.475 145.74 185.792 144.898 185.792C144.057 185.792 143.374 186.475 143.374 187.317C143.374 188.159 144.057 188.841 144.898 188.841Z" fill="#E8BB54"/>
<path d="M136.849 178.925C137.691 178.925 138.373 178.242 138.373 177.4C138.373 176.558 137.691 175.876 136.849 175.876C136.007 175.876 135.324 176.558 135.324 177.4C135.324 178.242 136.007 178.925 136.849 178.925Z" fill="#E8BB54"/>
<path d="M143.376 172.812C144.218 172.812 144.9 172.13 144.9 171.288C144.9 170.446 144.218 169.763 143.376 169.763C142.534 169.763 141.852 170.446 141.852 171.288C141.852 172.13 142.534 172.812 143.376 172.812Z" fill="#E8BB54"/>
<path d="M146.054 181.397C146.896 181.397 147.578 180.714 147.578 179.873C147.578 179.031 146.896 178.348 146.054 178.348C145.212 178.348 144.529 179.031 144.529 179.873C144.529 180.714 145.212 181.397 146.054 181.397Z" fill="#E8BB54"/>
<path d="M245.718 189.507V219.507H217.894C217.568 218.308 217.391 217.05 217.391 215.748V159.344C233.212 160.321 245.718 173.449 245.718 189.507Z" fill="#568BD8"/>
<path d="M248.9 128.19C247.05 128.19 245.57 129.685 245.57 131.52C245.57 129.67 244.075 128.19 242.24 128.19C240.404 128.19 238.909 129.685 238.909 131.52C238.909 129.67 237.415 128.19 235.579 128.19C233.818 128.19 232.397 129.552 232.264 131.283C232.131 129.448 230.533 128.027 228.638 128.205C226.907 128.368 225.634 129.922 225.634 131.668V135.871C225.634 133.933 223.961 132.364 221.978 132.556C220.246 132.719 218.974 134.273 218.974 136.019V142.768C218.974 148.526 221.386 154.016 225.634 157.894V209.28C225.634 216.014 231.095 221.476 237.829 221.476C244.563 221.476 250.024 216.014 250.024 209.28V157.894L251.43 147.312C251.726 145.062 252.259 134.776 252.259 134.776V133.696V131.535C252.23 129.685 250.735 128.19 248.9 128.19Z" fill="#FFD8D9"/>
<path d="M237.798 225.22C229.821 225.22 223.368 218.753 223.368 210.79V163.074H252.229V210.79C252.229 218.753 245.776 225.22 237.798 225.22Z" fill="#6A9BEA"/>
<path d="M225.604 135.857V145.196" stroke="#EAC1C5" stroke-width="0.994573" stroke-miterlimit="10"/>
<path d="M252.23 163.074V210.79C252.23 218.767 245.778 225.22 237.8 225.22C232.65 225.22 228.106 222.512 225.561 218.442C227.781 219.848 230.415 220.647 233.227 220.647C241.204 220.647 247.657 214.194 247.657 206.217V163.074H252.23Z" fill="#568BD8"/>
<path d="M228.92 111.554C227.084 111.554 225.604 113.034 225.604 114.869V133.029H232.235V114.869C232.235 113.034 230.755 111.554 228.92 111.554Z" fill="#FFD8D9"/>
</svg>
