<svg width="326" height="326" viewBox="0 0 326 326" fill="none" xmlns="http://www.w3.org/2000/svg">
<rect width="326" height="326" fill="#FFF2D8"/>
<path d="M48.1436 258.847C48.1436 256.62 50.0476 255.532 53.9576 255.532C57.8506 255.532 59.7546 256.62 59.7546 258.847C59.7546 261.074 57.8506 262.162 53.9576 262.162C50.0476 262.162 48.1436 261.074 48.1436 258.847ZM54.3826 247.049C54.7396 247.049 54.9436 247.253 54.9436 247.61V248.783C54.9436 249.14 54.7396 249.344 54.3826 249.344H52.2236V249.616C52.2236 251.248 53.1756 252.183 54.5016 252.183C54.8586 252.183 55.0286 252.353 55.0286 252.676V253.951C55.0286 254.291 54.8586 254.478 54.5016 254.478C52.8866 254.478 51.4756 253.713 51.0166 252.285C50.5406 253.713 49.1296 254.478 47.4806 254.478C47.1066 254.478 46.9196 254.274 46.9196 253.951V252.676C46.9196 252.353 47.1066 252.183 47.4806 252.183C48.8066 252.183 49.7586 251.248 49.7586 249.616V249.344H47.5656C47.2086 249.344 47.0046 249.14 47.0046 248.783V247.61C47.0046 247.253 47.2086 247.049 47.5656 247.049H54.3826ZM56.9156 251.384C56.7456 251.673 56.4056 251.843 55.9466 251.843H55.2156C54.8756 251.843 54.6886 251.656 54.6886 251.316V250.075C54.6886 249.735 54.8756 249.548 55.2156 249.548H56.0146C56.5926 249.548 56.9156 249.242 56.9156 248.698V247.219C56.9156 246.862 57.1196 246.658 57.4766 246.658H58.8196C59.1766 246.658 59.3806 246.862 59.3806 247.219V254.359C59.3806 254.716 59.1766 254.92 58.8196 254.92H57.4766C57.1196 254.92 56.9156 254.716 56.9156 254.359V251.384ZM53.9576 259.952C56.4736 259.952 57.2896 259.663 57.2896 258.847C57.2896 258.031 56.4736 257.742 53.9576 257.742C51.4246 257.742 50.5916 258.031 50.5916 258.847C50.5916 259.663 51.4246 259.952 53.9576 259.952ZM66.344 259.017C66.769 256.229 66.956 254.07 66.956 251.758C66.956 250.483 66.616 250.024 65.647 250.024C64.151 250.024 63.267 250.211 62.145 250.33C61.822 250.364 61.618 250.16 61.618 249.803V248.562C61.618 248.239 61.771 248.086 62.145 248.035C63.862 247.797 64.814 247.729 66.021 247.729C68.435 247.729 69.438 248.817 69.438 251.469C69.438 254.189 69.268 256.535 68.809 259.085C68.741 259.459 68.588 259.578 68.231 259.578H66.871C66.497 259.578 66.293 259.357 66.344 259.017ZM71.359 247.219C71.359 246.862 71.563 246.658 71.92 246.658H73.263C73.62 246.658 73.824 246.862 73.824 247.219V261.329C73.824 261.686 73.62 261.89 73.263 261.89H71.92C71.563 261.89 71.359 261.686 71.359 261.329V247.219ZM83.2693 247.049C83.6263 247.049 83.8303 247.253 83.8303 247.61V248.783C83.8303 249.14 83.6263 249.344 83.2693 249.344H81.1103V249.956C81.1103 251.588 82.0623 252.523 83.3883 252.523C83.7453 252.523 83.9153 252.693 83.9153 253.016V254.291C83.9153 254.631 83.7453 254.818 83.3883 254.818C81.7733 254.818 80.3623 254.053 79.9033 252.625C79.4273 254.053 78.0163 254.818 76.3673 254.818C75.9933 254.818 75.8063 254.614 75.8063 254.291V253.016C75.8063 252.693 75.9933 252.523 76.3673 252.523C77.6933 252.523 78.6453 251.588 78.6453 249.956V249.344H76.4523C76.0953 249.344 75.8913 249.14 75.8913 248.783V247.61C75.8913 247.253 76.0953 247.049 76.4523 247.049H83.2693ZM77.7103 256.348C79.4103 256.161 81.4673 256.042 84.8163 256.042C87.1453 256.042 88.2163 257.011 88.2163 259.051C88.2163 260.105 88.1653 261.04 88.1143 261.448C88.0633 261.805 87.9103 261.975 87.5533 261.975H86.1763C85.8193 261.975 85.5983 261.771 85.6493 261.414C85.7173 260.887 85.7513 260.139 85.7513 259.578C85.7513 258.711 85.3773 258.337 84.4423 258.337C81.7393 258.337 79.6143 258.507 77.7103 258.643C77.3703 258.66 77.1833 258.456 77.1833 258.116V256.875C77.1833 256.535 77.3703 256.382 77.7103 256.348ZM85.8023 251.554C85.6323 251.843 85.2923 252.013 84.8333 252.013H84.1023C83.7623 252.013 83.5753 251.826 83.5753 251.486V250.245C83.5753 249.905 83.7623 249.718 84.1023 249.718H84.9013C85.4793 249.718 85.8023 249.412 85.8023 248.868V247.219C85.8023 246.862 86.0063 246.658 86.3633 246.658H87.7063C88.0633 246.658 88.2673 246.862 88.2673 247.219V254.359C88.2673 254.716 88.0633 254.92 87.7063 254.92H86.3633C86.0063 254.92 85.8023 254.716 85.8023 254.359V251.554ZM97.3387 256.229C93.6667 256.229 91.7797 254.699 91.7797 251.792C91.7797 248.885 93.6667 247.389 97.3387 247.389C101.011 247.389 102.898 248.885 102.898 251.792C102.898 254.699 101.011 256.229 97.3387 256.229ZM97.3387 249.684C95.1117 249.684 94.2447 250.33 94.2447 251.809C94.2447 253.288 95.1117 253.934 97.3387 253.934C99.5657 253.934 100.433 253.288 100.433 251.809C100.433 250.33 99.5657 249.684 97.3387 249.684ZM91.0997 258.133C92.5787 258.32 94.8227 258.422 97.2027 258.422C99.8547 258.422 102.269 258.303 103.323 258.133C103.68 258.065 103.884 258.286 103.884 258.643V259.901C103.884 260.207 103.714 260.377 103.323 260.445C102.269 260.632 99.8547 260.734 97.2027 260.734C94.8227 260.734 92.5787 260.649 91.0997 260.445C90.7087 260.394 90.5387 260.224 90.5387 259.901V258.643C90.5387 258.286 90.7427 258.082 91.0997 258.133ZM106.224 260.275C105.833 260.224 105.663 260.054 105.663 259.731V258.473C105.663 258.116 105.867 257.929 106.224 257.963C107.499 258.082 109.573 258.235 111.46 258.269C111.222 258.15 111.103 257.912 111.103 257.555V256.246C107.924 256.059 107.074 255.328 107.074 253.424C107.074 251.197 108.485 250.602 112.191 250.602H114.69C115.132 250.602 115.319 250.432 115.319 250.126C115.319 249.803 115.149 249.684 114.724 249.684C113.109 249.684 109.862 249.769 107.856 249.973C107.584 250.007 107.414 249.803 107.414 249.463V248.205C107.414 247.899 107.55 247.729 107.856 247.695C109.828 247.525 112.055 247.406 114.18 247.406C114.826 247.406 115.455 247.423 116.067 247.44C117.155 247.491 117.767 248.069 117.767 249.089C117.767 249.922 117.393 250.534 116.764 250.806H117.189C117.444 250.806 117.631 250.993 117.631 251.282V252.404C117.631 252.71 117.461 252.914 117.189 252.914C115.948 252.914 115.336 252.863 112.225 252.863C109.726 252.863 109.539 253.016 109.539 253.475C109.539 253.934 109.811 254.019 113.16 254.019C114.554 254.019 116.339 253.9 117.461 253.679C117.733 253.628 117.92 253.764 117.971 254.104L118.192 255.362C118.243 255.651 118.056 255.855 117.801 255.906C116.73 256.093 114.928 256.263 113.568 256.297V257.589C113.568 258.031 113.738 258.201 114.214 258.218C115.047 258.252 117.104 258.133 118.43 257.963C118.787 257.912 119.008 258.116 119.008 258.473V259.731C119.008 260.037 118.838 260.207 118.447 260.275C117.393 260.462 114.979 260.564 112.327 260.564C109.947 260.564 107.703 260.479 106.224 260.275ZM129.308 252.693C130.26 252.693 130.668 252.54 130.668 252.132C130.668 251.724 130.26 251.571 129.308 251.571C128.356 251.571 127.948 251.724 127.948 252.132C127.948 252.54 128.356 252.693 129.308 252.693ZM132.045 259.476C129.546 259.476 129.104 259.544 129.104 259.901C129.104 260.275 129.631 260.309 132.98 260.309C134.646 260.309 136.669 260.173 137.621 260.003C137.893 259.952 138.08 260.088 138.097 260.36L138.182 261.397C138.199 261.635 138.046 261.805 137.791 261.839C136.584 261.992 134.408 262.145 132.997 262.145C128.05 262.145 126.639 261.652 126.639 259.867C126.639 258.201 128.033 257.64 132.011 257.64C132.946 257.64 134.017 257.623 134.765 257.623C135.224 257.623 135.394 257.538 135.394 257.3C135.394 257.045 135.241 256.96 134.799 256.96C132.759 256.96 129.189 257.13 127.421 257.249C127.149 257.266 126.979 257.113 126.979 256.841V255.804C126.979 255.549 127.115 255.413 127.421 255.396C130.192 255.243 133.677 255.124 136.142 255.192C137.281 255.226 137.842 255.634 137.842 256.416C137.842 257.079 137.468 257.589 136.873 257.793H137.264C137.519 257.793 137.706 257.946 137.706 258.184V259.119C137.706 259.357 137.536 259.527 137.264 259.527C136.023 259.527 135.071 259.476 132.045 259.476ZM125.517 252.132C125.517 250.551 126.741 249.803 129.308 249.803C131.875 249.803 133.099 250.551 133.099 252.132C133.099 253.713 131.875 254.461 129.308 254.461C126.741 254.461 125.517 253.713 125.517 252.132ZM133.065 247.219C133.388 247.219 133.541 247.372 133.541 247.712V248.698C133.541 249.038 133.388 249.191 133.065 249.191H125.483C125.16 249.191 125.007 249.038 125.007 248.698V247.712C125.007 247.372 125.16 247.219 125.483 247.219H128.356C128.186 247.117 128.101 246.964 128.101 246.726V246.437C128.101 246.08 128.271 245.91 128.628 245.91H130.039C130.396 245.91 130.566 246.08 130.566 246.437V246.845C130.566 247.066 130.719 247.219 131.025 247.219H133.065ZM135.258 248.12V247.219C135.258 246.862 135.462 246.658 135.819 246.658H137.162C137.519 246.658 137.723 246.862 137.723 247.219V253.849C137.723 254.206 137.519 254.41 137.162 254.41H135.819C135.462 254.41 135.258 254.206 135.258 253.849V253.305C135.122 253.526 134.867 253.611 134.476 253.611H134.204C133.864 253.611 133.711 253.458 133.711 253.118V252.081C133.711 251.741 133.864 251.588 134.204 251.588H134.714C135.088 251.588 135.258 251.418 135.258 251.061V250.296C135.105 250.517 134.867 250.619 134.476 250.619H134.204C133.864 250.619 133.711 250.466 133.711 250.126V249.089C133.711 248.749 133.864 248.596 134.204 248.596H134.714C135.139 248.596 135.258 248.494 135.258 248.12ZM143.769 249.089C142.817 249.089 142.222 249.718 142.222 250.67C142.222 251.639 142.817 252.268 143.769 252.268C144.721 252.268 145.333 251.639 145.333 250.67C145.333 249.718 144.721 249.089 143.769 249.089ZM143.514 258.66L143.548 259.357C143.565 259.697 143.735 259.85 144.075 259.85H148.597C148.937 259.85 149.107 259.697 149.124 259.357L149.158 258.66H143.514ZM149.277 261.975H143.395C141.984 261.975 141.185 261.329 141.117 260.105L140.862 255.923C140.845 255.583 141.066 255.362 141.423 255.362H142.783C143.14 255.362 143.327 255.549 143.344 255.923L143.378 256.535H149.294L149.328 255.923C149.345 255.549 149.532 255.362 149.889 255.362H151.249C151.606 255.362 151.827 255.583 151.81 255.923L151.555 260.105C151.487 261.329 150.688 261.975 149.277 261.975ZM147.764 250.67C147.764 252.982 146.2 254.478 143.769 254.478C141.355 254.478 139.791 252.965 139.791 250.67C139.791 248.358 141.338 246.879 143.769 246.879C146.217 246.879 147.764 248.358 147.764 250.67ZM151.827 253.849C151.827 254.206 151.623 254.41 151.266 254.41H149.923C149.566 254.41 149.362 254.206 149.362 253.849V247.219C149.362 246.862 149.566 246.658 149.923 246.658H151.266C151.623 246.658 151.827 246.862 151.827 247.219V249.599C152.014 249.31 152.405 249.123 152.881 249.123H153.425C153.765 249.123 153.952 249.31 153.952 249.65V250.891C153.952 251.231 153.765 251.418 153.425 251.418H152.813C152.235 251.418 151.827 251.809 151.827 252.353V253.849ZM156.513 259.493C157.431 259.493 157.975 260.088 157.975 261.057C157.975 262.4 156.904 263.403 155.476 263.403C155.34 263.403 155.255 263.318 155.255 263.182V262.808C155.255 262.672 155.323 262.587 155.459 262.57C155.833 262.519 156.054 262.451 156.173 262.281C155.493 262.145 155.068 261.618 155.068 260.904C155.068 260.037 155.629 259.493 156.513 259.493ZM168.256 252.693C169.208 252.693 169.616 252.54 169.616 252.132C169.616 251.724 169.208 251.571 168.256 251.571C167.304 251.571 166.896 251.724 166.896 252.132C166.896 252.54 167.304 252.693 168.256 252.693ZM170.993 259.476C168.494 259.476 168.052 259.544 168.052 259.901C168.052 260.275 168.579 260.309 171.928 260.309C173.594 260.309 175.617 260.173 176.569 260.003C176.841 259.952 177.028 260.088 177.045 260.36L177.13 261.397C177.147 261.635 176.994 261.805 176.739 261.839C175.532 261.992 173.356 262.145 171.945 262.145C166.998 262.145 165.587 261.652 165.587 259.867C165.587 258.201 166.981 257.64 170.959 257.64C171.894 257.64 172.965 257.623 173.713 257.623C174.172 257.623 174.342 257.538 174.342 257.3C174.342 257.045 174.189 256.96 173.747 256.96C171.707 256.96 168.137 257.13 166.369 257.249C166.097 257.266 165.927 257.113 165.927 256.841V255.804C165.927 255.549 166.063 255.413 166.369 255.396C169.14 255.243 172.625 255.124 175.09 255.192C176.229 255.226 176.79 255.634 176.79 256.416C176.79 257.079 176.416 257.589 175.821 257.793H176.212C176.467 257.793 176.654 257.946 176.654 258.184V259.119C176.654 259.357 176.484 259.527 176.212 259.527C174.971 259.527 174.019 259.476 170.993 259.476ZM164.465 252.132C164.465 250.551 165.689 249.803 168.256 249.803C170.823 249.803 172.047 250.551 172.047 252.132C172.047 253.713 170.823 254.461 168.256 254.461C165.689 254.461 164.465 253.713 164.465 252.132ZM172.013 247.219C172.336 247.219 172.489 247.372 172.489 247.712V248.698C172.489 249.038 172.336 249.191 172.013 249.191H164.431C164.108 249.191 163.955 249.038 163.955 248.698V247.712C163.955 247.372 164.108 247.219 164.431 247.219H167.304C167.134 247.117 167.049 246.964 167.049 246.726V246.437C167.049 246.08 167.219 245.91 167.576 245.91H168.987C169.344 245.91 169.514 246.08 169.514 246.437V246.845C169.514 247.066 169.667 247.219 169.973 247.219H172.013ZM174.206 248.12V247.219C174.206 246.862 174.41 246.658 174.767 246.658H176.11C176.467 246.658 176.671 246.862 176.671 247.219V253.849C176.671 254.206 176.467 254.41 176.11 254.41H174.767C174.41 254.41 174.206 254.206 174.206 253.849V253.305C174.07 253.526 173.815 253.611 173.424 253.611H173.152C172.812 253.611 172.659 253.458 172.659 253.118V252.081C172.659 251.741 172.812 251.588 173.152 251.588H173.662C174.036 251.588 174.206 251.418 174.206 251.061V250.296C174.053 250.517 173.815 250.619 173.424 250.619H173.152C172.812 250.619 172.659 250.466 172.659 250.126V249.089C172.659 248.749 172.812 248.596 173.152 248.596H173.662C174.087 248.596 174.206 248.494 174.206 248.12ZM185.504 259.952C187.918 259.952 188.683 259.663 188.683 258.847C188.683 258.031 187.918 257.742 185.504 257.742C183.09 257.742 182.325 258.031 182.325 258.847C182.325 259.663 183.09 259.952 185.504 259.952ZM179.86 258.847C179.86 256.62 181.713 255.532 185.504 255.532C189.295 255.532 191.148 256.62 191.148 258.847C191.148 261.074 189.295 262.162 185.504 262.162C181.713 262.162 179.86 261.074 179.86 258.847ZM178.823 250.857C178.823 248.273 180.472 247.049 183.889 247.049C184.535 247.049 185.334 247.083 186.099 247.185C186.49 247.236 186.626 247.372 186.626 247.729V248.97C186.626 249.344 186.439 249.531 186.099 249.48C185.436 249.378 184.688 249.344 184.042 249.344C182.104 249.344 181.288 249.786 181.288 250.857C181.288 251.945 182.002 252.353 183.838 252.353C184.62 252.353 185.589 252.183 186.286 251.945C186.354 251.928 186.422 251.911 186.49 251.911C186.694 251.911 186.813 252.047 186.881 252.336L187.153 253.526C187.238 253.866 187.119 254.07 186.728 254.189C185.827 254.461 184.62 254.648 183.77 254.648C180.37 254.648 178.823 253.424 178.823 250.857ZM190.774 254.359C190.774 254.716 190.57 254.92 190.213 254.92H188.87C188.513 254.92 188.309 254.716 188.309 254.359V247.219C188.309 246.862 188.513 246.658 188.87 246.658H190.213C190.57 246.658 190.774 246.862 190.774 247.219V249.854C190.961 249.565 191.352 249.378 191.828 249.378H192.372C192.712 249.378 192.899 249.565 192.899 249.905V251.146C192.899 251.486 192.712 251.673 192.372 251.673H191.76C191.182 251.673 190.774 252.064 190.774 252.608V254.359ZM195.46 259.493C196.378 259.493 196.922 260.088 196.922 261.057C196.922 262.4 195.851 263.403 194.423 263.403C194.287 263.403 194.202 263.318 194.202 263.182V262.808C194.202 262.672 194.27 262.587 194.406 262.57C194.78 262.519 195.001 262.451 195.12 262.281C194.44 262.145 194.015 261.618 194.015 260.904C194.015 260.037 194.576 259.493 195.46 259.493ZM210.008 259.493C207.509 259.493 207.067 259.595 207.067 259.952C207.067 260.326 207.594 260.36 210.943 260.36C212.337 260.36 214.462 260.258 215.584 260.054C215.856 260.003 216.043 260.139 216.06 260.411L216.145 261.397C216.162 261.635 216.009 261.805 215.754 261.839C214.53 262.009 212.354 262.145 210.96 262.145C206.047 262.145 204.602 261.72 204.602 259.918C204.602 258.133 206.268 257.708 209.974 257.708C210.909 257.708 211.98 257.691 212.728 257.691C213.17 257.691 213.357 257.589 213.357 257.351C213.357 257.096 213.187 256.994 212.762 256.994C211.147 256.994 207.39 257.113 205.384 257.283C205.112 257.3 204.942 257.147 204.942 256.875V255.889C204.942 255.634 205.078 255.498 205.384 255.481C207.951 255.294 211.47 255.192 214.105 255.277C215.193 255.311 215.805 255.702 215.805 256.518C215.805 257.181 215.431 257.657 214.819 257.861H215.227C215.482 257.861 215.669 258.014 215.669 258.252V259.136C215.669 259.374 215.499 259.544 215.227 259.544C213.986 259.544 213.119 259.493 210.008 259.493ZM205.367 247.321C206.982 247.151 209.94 247.032 212.354 247.032C214.598 247.032 215.55 247.916 215.55 250.007C215.55 250.891 215.482 251.095 215.278 251.945C215.193 252.285 215.057 252.37 214.7 252.319L213.289 252.115C212.932 252.064 212.813 251.928 212.898 251.605C212.915 251.503 212.949 251.418 212.966 251.333C210.501 251.35 207.288 251.486 205.52 251.605C205.197 251.622 205.027 251.469 205.027 251.112V250.245C205.027 249.922 205.163 249.769 205.52 249.735C207.084 249.582 210.195 249.463 212.932 249.463C212.728 249.089 212.303 248.919 211.623 248.919C209.957 248.919 207.611 248.97 205.367 249.208C205.044 249.242 204.857 249.072 204.857 248.766V247.814C204.857 247.525 205.044 247.355 205.367 247.321ZM203.973 254.614C203.582 254.58 203.446 254.427 203.446 254.104V253.203C203.446 252.846 203.616 252.693 203.973 252.727C205.265 252.829 206.523 252.88 208.223 252.88C208.053 252.778 207.951 252.591 207.951 252.353V252.183C207.951 251.877 208.138 251.724 208.478 251.724H209.906C210.246 251.724 210.416 251.877 210.416 252.183V252.404C210.416 252.71 210.552 252.846 210.909 252.863C211.861 252.914 214.921 252.829 216.247 252.727C216.604 252.693 216.791 252.846 216.791 253.203V254.104C216.791 254.41 216.655 254.58 216.264 254.614C215.21 254.716 212.762 254.75 210.11 254.75C207.73 254.75 205.452 254.733 203.973 254.614ZM221.613 247.729C223.823 247.729 224.996 248.579 224.996 250.296C224.996 251.282 224.69 252.081 224.078 252.608H224.282C224.622 252.608 224.775 252.761 224.775 253.101V254.24C224.775 254.58 224.622 254.733 224.282 254.733C223.381 254.733 222.939 254.716 222.48 254.716C220.984 254.716 220.457 255.073 220.457 256.093C220.457 256.977 221.086 257.453 222.242 257.453C222.854 257.453 223.687 257.283 224.52 256.96C224.588 256.926 224.656 256.909 224.724 256.909C224.911 256.909 225.03 257.062 225.115 257.351L225.455 258.541C225.557 258.881 225.421 259.051 225.03 259.204C224.078 259.578 223.007 259.748 222.072 259.748C219.59 259.748 218.162 258.456 218.162 256.093C218.162 253.696 219.301 252.421 221.443 252.421C222.259 252.421 222.701 252.047 222.701 251.248C222.701 250.415 222.208 250.024 221.341 250.024C220.797 250.024 220.236 250.126 219.199 250.279C218.859 250.33 218.672 250.177 218.672 249.837V248.477C218.672 248.154 218.808 248.018 219.165 247.95C219.93 247.797 220.814 247.729 221.613 247.729ZM226.696 254.495C226.577 254.648 226.373 254.75 226.135 254.75H225.676C225.336 254.75 225.183 254.597 225.183 254.257V252.863C225.183 252.523 225.336 252.37 225.676 252.37H226.169C226.509 252.37 226.696 252.2 226.696 251.877V247.355C226.696 246.998 226.866 246.828 227.223 246.828H228.464C228.821 246.828 228.991 246.998 228.991 247.355V261.363C228.991 261.72 228.821 261.89 228.464 261.89H227.223C226.866 261.89 226.696 261.72 226.696 261.363V254.495ZM229.926 247.185C229.926 246.828 230.096 246.658 230.453 246.658H231.694C232.051 246.658 232.221 246.828 232.221 247.185V261.363C232.221 261.72 232.051 261.89 231.694 261.89H230.453C230.096 261.89 229.926 261.72 229.926 261.363V247.185ZM241.207 253.339C240.544 254.869 238.827 256.008 236.549 256.008C236.158 256.008 235.699 256.008 235.699 255.481V254.206C235.699 253.883 235.886 253.713 236.26 253.713C238.674 253.713 239.983 252.353 239.983 250.466V248.103C239.983 247.746 240.187 247.542 240.544 247.542H241.887C242.244 247.542 242.448 247.746 242.448 248.103V250.466C242.448 252.353 243.74 253.713 246.137 253.713C246.511 253.713 246.698 253.883 246.698 254.206V255.481C246.698 256.008 246.239 256.008 245.848 256.008C243.57 256.008 241.853 254.869 241.207 253.339ZM235.019 258.133C236.498 258.32 238.742 258.422 241.122 258.422C243.774 258.422 246.188 258.303 247.242 258.133C247.599 258.065 247.803 258.286 247.803 258.643V259.901C247.803 260.207 247.633 260.377 247.242 260.445C246.188 260.632 243.774 260.734 241.122 260.734C238.742 260.734 236.498 260.649 235.019 260.445C234.628 260.394 234.458 260.224 234.458 259.901V258.643C234.458 258.286 234.662 258.082 235.019 258.133ZM253.475 253.356C252.013 253.356 251.469 253.934 251.469 255.447C251.469 256.756 252.03 257.453 253.084 257.453C253.934 257.453 254.648 257.317 255.345 257.011C255.447 256.96 255.532 256.943 255.617 256.943C255.838 256.943 256.008 257.079 256.076 257.334L256.399 258.49C256.501 258.847 256.399 259.034 256.042 259.187C255.124 259.578 254.155 259.748 252.846 259.748C250.517 259.748 249.174 258.235 249.174 255.413C249.174 252.353 250.449 251.044 253.203 251.044C254.036 251.044 254.648 251.095 255.175 251.18C255.515 251.231 255.651 251.401 255.651 251.775V253.033C255.651 253.39 255.447 253.577 255.09 253.509C254.495 253.407 253.951 253.356 253.475 253.356ZM257.708 256.025C257.589 256.178 257.385 256.28 257.147 256.28H256.348C256.008 256.28 255.821 256.093 255.821 255.753V254.427C255.821 254.087 256.008 253.9 256.348 253.9H257.181C257.521 253.9 257.708 253.73 257.708 253.407V247.355C257.708 246.998 257.878 246.828 258.235 246.828H259.476C259.833 246.828 260.003 246.998 260.003 247.355V261.363C260.003 261.72 259.833 261.89 259.476 261.89H258.235C257.878 261.89 257.708 261.72 257.708 261.363V256.025ZM260.938 247.185C260.938 246.828 261.108 246.658 261.465 246.658H262.706C263.063 246.658 263.233 246.828 263.233 247.185V261.363C263.233 261.72 263.063 261.89 262.706 261.89H261.465C261.108 261.89 260.938 261.72 260.938 261.363V247.185ZM255.566 247.729C255.923 247.729 256.127 247.933 256.127 248.29V249.463C256.127 249.82 255.923 250.024 255.566 250.024H249.922C249.565 250.024 249.361 249.82 249.361 249.463V248.29C249.361 247.933 249.565 247.729 249.922 247.729H255.566ZM277.097 250.687C275.822 250.687 274.972 250.636 272.031 250.636C269.787 250.636 269.345 250.687 269.345 250.976C269.345 251.265 269.77 251.282 272.15 251.282C273.884 251.282 275.635 251.231 277.352 250.959C277.624 250.925 277.743 251.01 277.777 251.265L277.913 252.149C277.947 252.404 277.828 252.523 277.573 252.574C276.485 252.761 274.785 252.863 273.374 252.88V253.169C273.374 253.407 273.459 253.475 273.731 253.492C274.785 253.56 276.995 253.458 278.321 253.356C278.661 253.322 278.814 253.458 278.814 253.798V254.648C278.814 254.937 278.712 255.09 278.338 255.124C277.284 255.209 274.785 255.26 272.133 255.26C269.753 255.26 267.424 255.243 265.945 255.124C265.571 255.09 265.469 254.937 265.469 254.648V253.798C265.469 253.458 265.622 253.322 265.945 253.356C267.237 253.458 269.447 253.509 271.13 253.509C270.994 253.424 270.909 253.271 270.909 253.084V252.863C267.781 252.761 266.88 252.353 266.88 250.959C266.88 249.412 268.223 249.055 271.997 249.055C272.932 249.055 273.748 249.038 274.496 249.038C274.955 249.038 275.125 248.987 275.125 248.817C275.125 248.63 274.972 248.579 274.53 248.579C272.558 248.579 269.379 248.664 267.594 248.766C267.339 248.783 267.22 248.681 267.22 248.443V247.525C267.22 247.287 267.339 247.168 267.594 247.151C269.549 247.032 271.47 246.981 273.272 246.981C274.241 246.981 275.176 246.998 276.077 247.032C277.097 247.066 277.573 247.355 277.573 248.069C277.573 248.647 277.216 249.021 276.604 249.208H277.097C277.335 249.208 277.437 249.327 277.437 249.565V250.347C277.437 250.585 277.352 250.687 277.097 250.687ZM272.031 259.68C269.362 259.68 269.09 259.782 269.09 260.122C269.09 260.462 269.447 260.496 272.966 260.496C274.36 260.496 276.485 260.394 277.607 260.224C277.879 260.173 278.066 260.292 278.083 260.547L278.168 261.465C278.185 261.686 278.032 261.839 277.777 261.873C276.553 262.026 274.377 262.145 272.983 262.145C267.9 262.145 266.625 261.754 266.625 260.088C266.625 258.422 268.121 258.031 271.997 258.031C272.932 258.031 274.003 258.014 274.751 258.014C275.193 258.014 275.38 257.929 275.38 257.708C275.38 257.47 275.21 257.385 274.785 257.385C273.17 257.385 269.379 257.487 267.373 257.64C267.101 257.657 266.965 257.521 266.965 257.266V256.348C266.965 256.127 267.067 256.008 267.373 255.991C269.94 255.804 273.493 255.719 276.128 255.787C277.301 255.821 277.828 256.178 277.828 256.926C277.828 257.572 277.437 257.997 276.808 258.184H277.284C277.539 258.184 277.692 258.32 277.692 258.541V259.357C277.692 259.578 277.556 259.731 277.284 259.731C276.043 259.731 275.142 259.68 272.031 259.68ZM110.374 271.998C110.374 272.219 110.527 272.372 110.833 272.372H113.808C114.165 272.372 114.369 272.576 114.369 272.933V273.936C114.369 274.293 114.165 274.497 113.808 274.497H110.646C111.139 275.313 112.278 275.823 114.063 275.823C114.437 275.823 114.624 275.993 114.624 276.316V277.421C114.624 277.744 114.437 277.931 114.063 277.948C111.768 278.05 109.847 277.115 109.133 275.67C108.402 277.115 106.481 278.05 104.186 277.948C103.812 277.931 103.625 277.744 103.625 277.421V276.316C103.625 275.993 103.812 275.823 104.186 275.823C105.971 275.823 107.144 275.313 107.637 274.497H104.441C104.084 274.497 103.88 274.293 103.88 273.936V272.933C103.88 272.576 104.084 272.372 104.441 272.372H108.164C107.994 272.27 107.909 272.117 107.909 271.879V271.335C107.909 270.978 108.079 270.808 108.436 270.808H109.847C110.204 270.808 110.374 270.978 110.374 271.335V271.998ZM104.067 282.113C105.767 281.926 107.994 281.807 111.343 281.807C113.672 281.807 114.743 282.776 114.743 284.816C114.743 285.7 114.692 286.125 114.641 286.448C114.59 286.805 114.437 286.975 114.08 286.975H112.703C112.346 286.975 112.125 286.771 112.176 286.414C112.244 285.972 112.278 285.734 112.278 285.343C112.278 284.476 111.904 284.102 110.969 284.102C108.266 284.102 105.971 284.272 104.067 284.408C103.727 284.425 103.54 284.221 103.54 283.881V282.64C103.54 282.3 103.727 282.147 104.067 282.113ZM102.945 278.917C104.407 279.036 106.651 279.053 109.031 279.053C111.683 279.053 114.097 279.019 115.151 278.917C115.508 278.883 115.729 279.07 115.729 279.427V280.43C115.729 280.736 115.559 280.94 115.168 280.974C114.114 281.076 111.7 281.11 109.048 281.11C106.668 281.11 104.424 281.093 102.945 280.974C102.554 280.94 102.384 280.753 102.384 280.43V279.427C102.384 279.07 102.588 278.883 102.945 278.917ZM118.443 283.847C118.443 281.62 120.347 280.532 124.257 280.532C128.15 280.532 130.054 281.62 130.054 283.847C130.054 286.074 128.15 287.162 124.257 287.162C120.347 287.162 118.443 286.074 118.443 283.847ZM124.682 272.049C125.039 272.049 125.243 272.253 125.243 272.61V273.783C125.243 274.14 125.039 274.344 124.682 274.344H122.523V274.616C122.523 276.248 123.475 277.183 124.801 277.183C125.158 277.183 125.328 277.353 125.328 277.676V278.951C125.328 279.291 125.158 279.478 124.801 279.478C123.186 279.478 121.775 278.713 121.316 277.285C120.84 278.713 119.429 279.478 117.78 279.478C117.406 279.478 117.219 279.274 117.219 278.951V277.676C117.219 277.353 117.406 277.183 117.78 277.183C119.106 277.183 120.058 276.248 120.058 274.616V274.344H117.865C117.508 274.344 117.304 274.14 117.304 273.783V272.61C117.304 272.253 117.508 272.049 117.865 272.049H124.682ZM127.215 276.384C127.045 276.673 126.705 276.843 126.246 276.843H125.515C125.175 276.843 124.988 276.656 124.988 276.316V275.075C124.988 274.735 125.175 274.548 125.515 274.548H126.314C126.892 274.548 127.215 274.242 127.215 273.698V272.219C127.215 271.862 127.419 271.658 127.776 271.658H129.119C129.476 271.658 129.68 271.862 129.68 272.219V279.359C129.68 279.716 129.476 279.92 129.119 279.92H127.776C127.419 279.92 127.215 279.716 127.215 279.359V276.384ZM124.257 284.952C126.773 284.952 127.589 284.663 127.589 283.847C127.589 283.031 126.773 282.742 124.257 282.742C121.724 282.742 120.891 283.031 120.891 283.847C120.891 284.663 121.724 284.952 124.257 284.952ZM135.793 282.317C136.711 282.317 137.238 281.637 137.238 280.447C137.238 279.257 136.711 278.577 135.793 278.577C134.875 278.577 134.348 279.257 134.348 280.447C134.348 281.637 134.875 282.317 135.793 282.317ZM135.793 276.316C138.241 276.316 139.669 277.846 139.669 280.447C139.669 283.048 138.241 284.578 135.793 284.578C133.345 284.578 131.917 283.048 131.917 280.447C131.917 277.846 133.345 276.316 135.793 276.316ZM143.783 286.329C143.783 286.686 143.579 286.89 143.222 286.89H141.879C141.522 286.89 141.318 286.686 141.318 286.329V272.219C141.318 271.862 141.522 271.658 141.879 271.658H143.222C143.579 271.658 143.783 271.862 143.783 272.219V277.914C143.97 277.625 144.361 277.438 144.837 277.438H145.381C145.721 277.438 145.908 277.625 145.908 277.965V279.291C145.908 279.631 145.721 279.818 145.381 279.818H144.769C144.191 279.818 143.783 280.209 143.783 280.753V286.329ZM137.051 272.695C137.051 272.916 137.204 273.069 137.51 273.069H139.635C139.992 273.069 140.196 273.273 140.196 273.63V274.803C140.196 275.16 139.992 275.364 139.635 275.364H131.968C131.611 275.364 131.407 275.16 131.407 274.803V273.63C131.407 273.273 131.611 273.069 131.968 273.069H134.841C134.671 272.967 134.586 272.814 134.586 272.576V271.777C134.586 271.42 134.756 271.25 135.113 271.25H136.524C136.881 271.25 137.051 271.42 137.051 271.777V272.695ZM150.764 274.854C149.693 274.854 149.302 275.925 149.302 278.73C149.302 281.535 149.693 282.623 150.764 282.623C151.852 282.623 152.243 281.552 152.243 278.73C152.243 275.925 151.852 274.854 150.764 274.854ZM150.764 272.559C153.501 272.559 154.674 274.429 154.674 278.73C154.674 283.031 153.484 284.918 150.764 284.918C148.044 284.918 146.871 283.031 146.871 278.73C146.871 274.429 148.044 272.559 150.764 272.559ZM156.782 281.841C156.612 282.13 156.289 282.3 155.847 282.3H155.507C155.167 282.3 154.98 282.113 154.98 281.773V280.447C154.98 280.107 155.167 279.92 155.507 279.92H155.949C156.527 279.92 156.782 279.597 156.782 279.053V276.571C156.612 276.86 156.289 277.03 155.847 277.03H155.507C155.167 277.03 154.98 276.843 154.98 276.503V275.177C154.98 274.837 155.167 274.65 155.507 274.65H155.949C156.527 274.65 156.782 274.327 156.782 273.783V272.219C156.782 271.862 156.986 271.658 157.343 271.658H158.686C159.043 271.658 159.247 271.862 159.247 272.219V286.329C159.247 286.686 159.043 286.89 158.686 286.89H157.343C156.986 286.89 156.782 286.686 156.782 286.329V281.841ZM168.578 279.206C168.34 279.104 168.204 278.866 168.204 278.594V276.809C168.204 276.452 168.408 276.248 168.765 276.248H170.125C170.482 276.248 170.669 276.452 170.669 276.809V278.645C170.669 278.968 170.873 279.172 171.281 279.172C172.301 279.172 173.627 279.138 174.46 279.087C174.817 279.07 175.038 279.24 175.038 279.597V280.685C175.038 280.991 174.868 281.195 174.477 281.229C173.763 281.297 171.859 281.348 170.227 281.348C168.357 281.348 167.218 281.314 166.079 281.229C165.688 281.195 165.518 281.008 165.518 280.685V279.597C165.518 279.24 165.722 279.07 166.079 279.087C166.81 279.138 167.575 279.189 168.578 279.206ZM171.944 275.636C171.944 274.769 171.502 274.361 170.465 274.361C169.547 274.361 168.306 274.497 167.133 274.65C166.81 274.684 166.589 274.48 166.589 274.174V272.831C166.589 272.542 166.81 272.372 167.133 272.321C168.017 272.185 169.598 272.032 171.196 272.032C173.423 272.032 174.392 273.001 174.392 275.007C174.392 275.925 174.256 276.911 174.035 277.982C173.967 278.322 173.78 278.424 173.44 278.373L172.097 278.169C171.723 278.118 171.604 277.948 171.689 277.608C171.859 276.962 171.944 276.163 171.944 275.636ZM178.115 282.079C178.115 282.436 177.911 282.64 177.554 282.64H176.211C175.854 282.64 175.65 282.436 175.65 282.079V272.219C175.65 271.862 175.854 271.658 176.211 271.658H177.554C177.911 271.658 178.115 271.862 178.115 272.219V276.044C178.302 275.755 178.693 275.568 179.169 275.568H179.713C180.053 275.568 180.24 275.755 180.24 276.095V277.336C180.24 277.676 180.053 277.863 179.713 277.863H179.101C178.523 277.863 178.115 278.254 178.115 278.798V282.079ZM178.064 286.839C175.922 287.043 173.338 287.145 170.669 287.145C168.442 287.145 167.201 286.023 167.201 284.017C167.201 283.439 167.252 283.014 167.303 282.64C167.354 282.249 167.541 282.079 167.864 282.079H169.207C169.598 282.079 169.819 282.3 169.768 282.64C169.717 282.98 169.666 283.405 169.666 283.728C169.666 284.476 170.125 284.85 170.975 284.85C173.542 284.85 176.041 284.714 177.86 284.544C178.217 284.51 178.472 284.714 178.489 285.071L178.574 286.278C178.591 286.601 178.421 286.805 178.064 286.839ZM186.065 272.729C188.105 272.729 189.193 273.63 189.193 275.296C189.193 276.282 188.819 277.081 188.139 277.608H188.564C188.904 277.608 189.057 277.761 189.057 278.101V279.24C189.057 279.58 188.904 279.733 188.564 279.733C187.663 279.733 186.966 279.716 186.337 279.716C184.399 279.716 183.804 280.039 183.804 281.093C183.804 282.062 184.382 282.453 185.844 282.453C186.728 282.453 187.799 282.249 188.751 281.875C188.819 281.841 188.887 281.824 188.955 281.824C189.142 281.824 189.261 281.977 189.346 282.266L189.686 283.456C189.788 283.796 189.652 283.983 189.261 284.119C188.054 284.544 186.711 284.748 185.453 284.748C182.75 284.748 181.339 283.49 181.339 281.093C181.339 278.696 182.733 277.421 185.385 277.421C186.32 277.421 186.728 277.064 186.728 276.248C186.728 275.398 186.303 275.041 185.283 275.041C184.382 275.041 183.549 275.109 182.376 275.279C182.036 275.33 181.849 275.177 181.849 274.837V273.477C181.849 273.154 181.985 273.001 182.342 272.95C183.498 272.78 184.399 272.729 186.065 272.729ZM191.114 272.219C191.114 271.862 191.318 271.658 191.675 271.658H193.018C193.375 271.658 193.579 271.862 193.579 272.219V286.329C193.579 286.686 193.375 286.89 193.018 286.89H191.675C191.318 286.89 191.114 286.686 191.114 286.329V272.219ZM199.693 282.317C200.611 282.317 201.138 281.637 201.138 280.447C201.138 279.257 200.611 278.577 199.693 278.577C198.775 278.577 198.248 279.257 198.248 280.447C198.248 281.637 198.775 282.317 199.693 282.317ZM199.693 276.316C202.141 276.316 203.569 277.846 203.569 280.447C203.569 283.048 202.141 284.578 199.693 284.578C197.245 284.578 195.817 283.048 195.817 280.447C195.817 277.846 197.245 276.316 199.693 276.316ZM207.683 286.329C207.683 286.686 207.479 286.89 207.122 286.89H205.779C205.422 286.89 205.218 286.686 205.218 286.329V272.219C205.218 271.862 205.422 271.658 205.779 271.658H207.122C207.479 271.658 207.683 271.862 207.683 272.219V277.914C207.87 277.625 208.261 277.438 208.737 277.438H209.281C209.621 277.438 209.808 277.625 209.808 277.965V279.291C209.808 279.631 209.621 279.818 209.281 279.818H208.669C208.091 279.818 207.683 280.209 207.683 280.753V286.329ZM200.951 272.695C200.951 272.916 201.104 273.069 201.41 273.069H203.535C203.892 273.069 204.096 273.273 204.096 273.63V274.803C204.096 275.16 203.892 275.364 203.535 275.364H195.868C195.511 275.364 195.307 275.16 195.307 274.803V273.63C195.307 273.273 195.511 273.069 195.868 273.069H198.741C198.571 272.967 198.486 272.814 198.486 272.576V271.777C198.486 271.42 198.656 271.25 199.013 271.25H200.424C200.781 271.25 200.951 271.42 200.951 271.777V272.695ZM215.667 284.017C216.092 281.229 216.279 279.07 216.279 276.758C216.279 275.483 215.939 275.024 214.97 275.024C213.474 275.024 212.59 275.211 211.468 275.33C211.145 275.364 210.941 275.16 210.941 274.803V273.562C210.941 273.239 211.094 273.086 211.468 273.035C213.185 272.797 214.137 272.729 215.344 272.729C217.758 272.729 218.761 273.817 218.761 276.469C218.761 279.189 218.591 281.535 218.132 284.085C218.064 284.459 217.911 284.578 217.554 284.578H216.194C215.82 284.578 215.616 284.357 215.667 284.017ZM220.682 272.219C220.682 271.862 220.886 271.658 221.243 271.658H222.586C222.943 271.658 223.147 271.862 223.147 272.219V286.329C223.147 286.686 222.943 286.89 222.586 286.89H221.243C220.886 286.89 220.682 286.686 220.682 286.329V272.219Z" fill="#13183A"/>
<path d="M29.1691 59.75C28.7691 60.7 28.2691 61 27.1191 61H22.8191C21.7691 61 21.1691 60.3 21.5691 59.4L34.3691 28.7H16.1691C15.1691 28.7 14.6191 28.15 14.6191 27.15V23.25C14.6191 22.25 15.1691 21.7 16.1691 21.7H39.4191C41.3691 21.7 42.3691 22.65 42.3691 24.55V26.8C42.3691 27.75 42.1191 28.7 41.7691 29.55L29.1691 59.75Z" fill="#6A9BEA"/>
<path d="M274.287 114.305C275.277 118.198 272.358 121.971 268.345 121.971H234.367C232.83 121.971 231.584 119.666 231.584 116.832V58.5913C231.584 55.7569 232.83 53.4519 234.367 53.4519H253.883C256.683 53.4519 259.142 55.3471 259.825 58.062L274.287 114.305Z" fill="#D3E5EA"/>
<path d="M198.819 177.907V208.658H112.15L88.9799 168.516L79.7256 152.466C83.6868 149.717 88.2969 147.873 93.2997 147.224C94.6315 147.036 95.9975 146.951 97.3464 146.951H167.864C184.955 146.968 198.819 160.815 198.819 177.907Z" fill="#6A9BEA"/>
<path d="M198.819 189.739V208.658H131.494L125.809 189.739H198.819Z" fill="#568BD8"/>
<path d="M198.819 206.746V208.658H112.149L88.9795 168.516C88.9966 168.482 89.0136 168.431 89.0478 168.38C89.1502 168.158 89.2698 167.936 89.3722 167.714C89.4746 167.526 89.5771 167.321 89.6795 167.133C89.7991 166.928 89.9357 166.724 90.0723 166.519C90.1918 166.331 90.3284 166.143 90.465 165.955C90.6016 165.767 90.7552 165.562 90.9089 165.375C91.0455 165.204 91.1992 165.016 91.3528 164.845C91.5236 164.658 91.6772 164.487 91.848 164.316C92.0187 164.145 92.1895 163.975 92.3602 163.821C92.531 163.65 92.7017 163.496 92.8895 163.343C93.0773 163.172 93.2652 163.035 93.4701 162.882C93.6579 162.745 93.8457 162.591 94.0506 162.472C94.136 162.404 94.2213 162.335 94.3067 162.284C94.2896 162.301 94.2896 162.301 94.2896 162.318C94.5457 162.148 94.7848 161.977 95.058 161.823C102.127 157.742 111.176 160.15 115.257 167.202L136.89 204.543L193.902 204.492L193.919 206.78L198.819 206.746Z" fill="#568BD8"/>
<path d="M167.248 79.0126C167.248 101.67 148.876 120.059 126.201 120.059C121.369 120.059 116.725 119.223 112.422 117.686C102.673 114.203 94.6478 107.168 89.884 98.1188C89.3035 95.9162 88.8937 93.6453 88.6717 91.3232C88.5522 90.0768 88.501 88.8133 88.501 87.5327C88.501 84.9715 88.74 82.4787 89.1839 80.0541C90.7889 71.3462 95.1258 63.6115 101.29 57.772C104.602 54.6133 108.461 52.0179 112.695 50.1056C117.835 47.7835 123.538 46.5029 129.548 46.5029C136.087 46.5029 142.285 48.0396 147.783 50.7715C152.223 52.9741 156.218 55.9621 159.565 59.5477C164.465 64.7896 167.248 71.7389 167.265 78.9101C167.248 78.9443 167.248 78.9784 167.248 79.0126Z" fill="#13183A"/>
<path d="M167.249 110.036C167.249 112.87 164.961 113.246 162.126 113.246C159.292 113.246 157.004 112.87 157.004 110.036C157.004 107.202 159.292 98.3914 162.126 98.3914C164.961 98.3914 167.249 107.202 167.249 110.036Z" fill="#EAC1C5"/>
<path d="M147.494 125.728V146.969C138.512 153.081 126.697 153.081 117.716 146.969V125.728H147.494Z" fill="#FFD8D9"/>
<path d="M147.494 125.728V139.866C144.574 140.753 141.483 141.249 138.29 141.249C130.402 141.249 123.197 138.295 117.716 133.48V125.728H147.494Z" fill="#EAC1C5"/>
<path d="M163.697 86.4906V104.47C163.697 108.312 162.997 112 161.716 115.398C161.529 115.876 161.358 116.337 161.136 116.815C160.641 117.959 160.094 119.069 159.463 120.127C159.446 120.161 159.429 120.178 159.411 120.213C154.016 129.399 144.027 135.562 132.605 135.562C115.445 135.562 101.495 121.63 101.495 104.47V86.4906C101.495 85.1759 101.58 83.8783 101.751 82.5806C103.646 67.2478 116.743 55.3811 132.605 55.3811C141.193 55.3811 148.962 58.8643 154.596 64.4817C160.214 70.1334 163.697 77.9022 163.697 86.4906Z" fill="#FFD8D9"/>
<path d="M154.187 103.036C155.781 103.036 157.073 101.347 157.073 99.2627C157.073 97.1787 155.781 95.4893 154.187 95.4893C152.594 95.4893 151.302 97.1787 151.302 99.2627C151.302 101.347 152.594 103.036 154.187 103.036Z" fill="#352F2C"/>
<path d="M148.825 92.9958C148.279 92.9958 147.75 92.7055 147.459 92.2104C147.015 91.4591 147.272 90.4859 148.023 90.059C148.177 89.9736 151.899 87.8223 157.311 88.6589C158.182 88.7955 158.763 89.598 158.643 90.4688C158.507 91.3396 157.687 91.9201 156.833 91.8006C152.582 91.1518 149.645 92.7909 149.611 92.808C149.372 92.9275 149.099 92.9958 148.825 92.9958Z" fill="#13183A"/>
<path d="M161.135 116.815C160.64 117.959 160.094 119.069 159.462 120.127C157.737 119.786 156.218 119.222 155.005 118.522C153.981 117.908 154.493 116.32 155.688 116.456C157.413 116.644 159.24 116.764 161.135 116.815Z" fill="#D1867C"/>
<path d="M153.623 70.9191C153.623 86.286 141.176 98.7333 125.809 98.7333C110.442 98.7333 97.9775 86.286 97.9775 70.9191C97.9775 66.4797 99.0191 62.2795 100.863 58.5572C104.09 55.4838 107.829 52.9739 111.91 51.1128C116.896 48.859 122.428 47.6125 128.25 47.6125C134.602 47.6125 140.595 49.098 145.922 51.7446C150.72 56.7474 153.623 63.4917 153.623 70.9191Z" fill="#13183A"/>
<path d="M128.917 100.765C128.917 111.112 117.528 120.127 109.161 124.908C94.8531 119.803 90.0723 106.758 88.6551 91.0838C88.5356 89.8715 88.4844 88.6422 88.4844 87.4128C88.4844 84.9371 88.7063 82.5125 89.1503 80.1562C93.6238 78.4146 98.49 77.4585 103.578 77.4585C109.93 77.4585 115.923 78.9439 121.25 81.5905C126.014 86.5933 128.917 93.3377 128.917 100.765Z" fill="#13183A"/>
<path d="M133.082 96.9745V116.559C132.211 116.798 131.306 116.917 130.35 116.917C124.749 116.917 120.19 112.359 120.19 106.758C120.19 101.158 124.749 96.5989 130.35 96.5989C131.306 96.616 132.211 96.7525 133.082 96.9745Z" fill="#FFD8D9"/>
<path d="M130.18 102.882V110.668C129.838 110.754 129.48 110.822 129.087 110.822C126.868 110.822 125.058 109.012 125.058 106.775C125.058 104.556 126.868 102.746 129.087 102.746C129.463 102.746 129.838 102.797 130.18 102.882Z" fill="#EAC1C5"/>
<path d="M82.388 150.025C89.4568 145.927 98.5062 148.335 102.587 155.403L132.706 207.395L107.129 222.215L77.0096 170.224C72.9117 163.172 75.3192 154.123 82.388 150.025Z" fill="#6A9BEA"/>
<path d="M107.112 222.215L76.9928 170.224C73.0486 163.411 75.1487 154.754 81.6199 150.486C79.0246 155.454 78.9563 161.601 81.9785 166.792L112.32 219.193L107.112 222.215Z" fill="#568BD8"/>
<path d="M217.003 220.064C217.003 218.169 215.466 216.649 213.571 216.649C215.466 216.649 216.986 215.113 216.986 213.217C216.986 211.322 215.449 209.803 213.554 209.803C215.449 209.803 216.969 208.266 216.969 206.371C216.969 204.561 215.569 203.109 213.793 202.99C215.671 202.853 217.122 201.214 216.935 199.268C216.764 197.492 215.176 196.194 213.383 196.194H209.08C211.078 196.194 212.666 194.47 212.461 192.438C212.29 190.662 210.702 189.365 208.91 189.365L201.995 189.382C196.104 189.399 190.486 191.874 186.508 196.228L132.843 196.314C125.945 196.331 120.362 201.931 120.379 208.829C120.396 215.727 125.996 221.311 132.894 221.294L186.559 221.208L197.402 222.625C199.707 222.933 210.241 223.445 210.241 223.445H211.351H213.571C215.483 223.496 217.003 221.96 217.003 220.064Z" fill="#EAC1C5"/>
<path d="M217.003 218.784C217.003 216.889 215.466 215.369 213.571 215.369C215.466 215.369 216.986 213.832 216.986 211.937C216.986 210.042 215.449 208.522 213.554 208.522C215.449 208.522 216.969 206.985 216.969 205.09C216.969 203.28 215.569 201.829 213.793 201.709C215.671 201.573 217.122 199.934 216.935 197.987C216.764 196.211 215.176 194.914 213.383 194.914H209.08C211.078 194.914 212.666 193.189 212.461 191.157C212.29 189.382 210.702 188.084 208.91 188.084L201.995 188.101C196.104 188.118 190.486 190.594 186.508 194.948L132.843 195.033C125.945 195.05 120.362 200.651 120.379 207.549C120.396 214.447 125.996 220.03 132.894 220.013L186.559 219.928L197.402 221.345C199.707 221.652 210.241 222.165 210.241 222.165H211.351H213.571C215.483 222.199 217.003 220.662 217.003 218.784Z" fill="#FFD8D9"/>
<path d="M209.115 194.93L199.554 194.948" stroke="#EAC1C5" stroke-width="1.01883" stroke-miterlimit="10"/>
<path d="M162.946 222.267L107.215 222.335V192.763L162.894 192.694L162.946 216.223V222.267Z" fill="#6A9BEA"/>
<path d="M162.946 222.182L107.215 222.336V210.503L162.946 210.367V222.182Z" fill="#568BD8"/>
<path d="M161.716 195.015V142.682C161.716 136.672 166.582 131.806 172.592 131.806C178.602 131.806 183.469 136.672 183.469 142.682V150.605C183.469 156.376 188.147 161.037 193.901 161.037C199.672 161.037 204.334 156.359 204.334 150.605V121.971" stroke="#13183A" stroke-width="1.01883" stroke-miterlimit="10"/>
<path d="M170.321 192.745H126.815V222.198H170.321V192.745Z" fill="#13183A"/>
<path d="M167.06 190.355H130.077V224.606H167.06V190.355Z" fill="white"/>
<path d="M167.06 217.862H130.077V224.606H167.06V217.862Z" fill="#D3E5EA"/>
<path d="M167.06 200.241H130.077V202.102H167.06V200.241Z" fill="#13183A"/>
<path d="M247.72 121.971H190.948C188.114 121.971 185.809 119.666 185.809 116.832V58.5913C185.809 55.7569 188.114 53.4519 190.948 53.4519H247.72C250.555 53.4519 252.86 55.7569 252.86 58.5913V116.832C252.86 119.683 250.555 121.971 247.72 121.971Z" fill="white"/>
<path d="M242.614 96.8205H196.07C194.772 96.8205 193.73 95.7789 193.73 94.4813V64.7719C193.73 63.4742 194.772 62.4326 196.07 62.4326H242.614C243.912 62.4326 244.954 63.4742 244.954 64.7719V94.4813C244.954 95.7619 243.912 96.8205 242.614 96.8205Z" fill="#D3E5EA"/>
<path d="M199.006 112.956C201.92 112.956 204.282 110.594 204.282 107.68C204.282 104.766 201.92 102.404 199.006 102.404C196.093 102.404 193.73 104.766 193.73 107.68C193.73 110.594 196.093 112.956 199.006 112.956Z" fill="#D3E5EA"/>
<path d="M213.487 112.956C216.401 112.956 218.763 110.594 218.763 107.68C218.763 104.766 216.401 102.404 213.487 102.404C210.573 102.404 208.211 104.766 208.211 107.68C208.211 110.594 210.573 112.956 213.487 112.956Z" fill="#D3E5EA"/>
<path d="M241.948 105.375H231.242V109.012H241.948V105.375Z" fill="#D3E5EA"/>
<path d="M219.343 68.7161H222.348V77.8167H221.153V69.8942H219.343V68.7161Z" fill="#13183A"/>
<path d="M227.52 72.6772C227.896 72.6772 228.22 72.5236 228.494 72.2333C228.767 71.943 228.903 71.6015 228.903 71.2259C228.903 70.8332 228.767 70.4917 228.494 70.2185C228.22 69.9453 227.896 69.8087 227.52 69.8087H224.225V68.6135H227.52C228.203 68.6135 228.818 68.8696 229.347 69.3648C229.586 69.6038 229.774 69.877 229.894 70.2014C230.03 70.5258 230.082 70.8673 230.082 71.2429C230.082 71.6015 230.013 71.943 229.894 72.2845C229.757 72.626 229.586 72.8992 229.364 73.1382C229.125 73.3773 228.852 73.565 228.528 73.6846C228.203 73.8212 227.879 73.8724 227.52 73.8724H225.386V76.6385H229.569V77.8337H224.208V72.6943H227.52V72.6772Z" fill="#13183A"/>
<path d="M237.834 71.6189V74.9143C237.834 75.3582 237.749 75.768 237.578 76.1607C237.407 76.5534 237.185 76.8778 236.895 77.1681C236.605 77.4584 236.28 77.6803 235.888 77.8511C235.495 78.0218 235.085 78.1072 234.641 78.1072C234.197 78.1072 233.787 78.0218 233.395 77.8511C233.002 77.6803 232.678 77.4584 232.387 77.1681C232.097 76.8778 231.875 76.5534 231.704 76.1607C231.534 75.768 231.448 75.3582 231.448 74.9143V71.6189C231.448 71.175 231.534 70.7652 231.704 70.3725C231.875 69.9798 232.097 69.6554 232.387 69.3651C232.678 69.0748 233.002 68.8529 233.395 68.6821C233.787 68.5114 234.197 68.426 234.641 68.426C235.085 68.426 235.495 68.5114 235.888 68.6821C236.28 68.8529 236.605 69.0748 236.895 69.3651C237.185 69.6554 237.407 69.9798 237.578 70.3725C237.749 70.7652 237.834 71.175 237.834 71.6189ZM232.661 71.6189V74.9143C232.661 75.2045 232.712 75.4607 232.814 75.6997C232.917 75.9388 233.053 76.1437 233.241 76.3315C233.429 76.5193 233.634 76.6559 233.873 76.7583C234.112 76.8608 234.368 76.912 234.641 76.912C234.914 76.912 235.17 76.8608 235.409 76.7583C235.649 76.6559 235.853 76.5193 236.041 76.3315C236.229 76.1437 236.366 75.9388 236.468 75.6997C236.571 75.4607 236.639 75.2045 236.656 74.9143V71.6189C236.656 71.3287 236.605 71.0726 236.502 70.8335C236.4 70.5945 236.263 70.3896 236.075 70.2018C235.888 70.014 235.683 69.8774 235.444 69.7749C235.205 69.6725 234.948 69.6213 234.675 69.6213C234.402 69.6213 234.146 69.6725 233.907 69.7749C233.668 69.8774 233.463 70.014 233.275 70.2018C233.087 70.3896 232.951 70.5945 232.848 70.8335C232.746 71.0726 232.695 71.3287 232.661 71.6189Z" fill="#13183A"/>
<path d="M225.557 91.033C225.199 91.033 224.874 90.9647 224.55 90.8452C224.225 90.7086 223.969 90.5379 223.73 90.2988C223.491 90.0769 223.303 89.8036 223.184 89.4792C223.047 89.1548 222.996 88.7963 222.996 88.4206C222.996 88.045 223.064 87.6693 223.184 87.3449C223.321 87.0034 223.491 86.7303 223.73 86.4912C223.782 86.44 223.85 86.3888 223.901 86.3375L223.73 86.1668C223.491 85.9449 223.303 85.6546 223.184 85.3302C223.047 84.9887 222.996 84.6301 222.996 84.2545C222.996 83.8618 223.064 83.5203 223.184 83.1959C223.321 82.8715 223.491 82.5983 223.73 82.3592C223.952 82.1373 224.225 81.9495 224.55 81.8299C224.874 81.6933 225.199 81.6421 225.557 81.6421H227.316C227.674 81.6421 227.999 81.7104 228.323 81.8299C228.648 81.9495 228.921 82.1373 229.16 82.3592C229.382 82.5983 229.57 82.8715 229.689 83.1959C229.826 83.5203 229.877 83.8789 229.877 84.2887C229.877 84.6814 229.809 85.0399 229.689 85.3643C229.553 85.7058 229.382 85.979 229.143 86.2181C229.092 86.2693 229.023 86.3205 228.972 86.3717L229.143 86.5425C229.382 86.7645 229.57 87.0547 229.689 87.3791C229.826 87.7206 229.877 88.0792 229.877 88.4548C229.877 88.8134 229.809 89.1548 229.689 89.4792C229.553 89.8036 229.382 90.0769 229.16 90.2988C228.921 90.5379 228.648 90.7257 228.323 90.8452C227.999 90.9818 227.674 91.033 227.316 91.033H225.557ZM225.557 82.7861C225.182 82.7861 224.857 82.9227 224.584 83.1959C224.311 83.4691 224.174 83.8106 224.174 84.2203C224.174 84.6301 224.311 84.9716 224.584 85.2619C224.857 85.5522 225.182 85.7058 225.557 85.7229H227.316C227.692 85.7229 228.016 85.5863 228.289 85.296C228.562 85.0058 228.699 84.6643 228.699 84.2545C228.699 83.8276 228.562 83.4691 228.289 83.1959C228.016 82.9227 227.692 82.7861 227.316 82.7861H225.557ZM225.557 86.9181C225.182 86.9181 224.857 87.0547 224.584 87.3449C224.311 87.6352 224.174 87.9767 224.174 88.3865C224.174 88.7963 224.311 89.1378 224.584 89.411C224.857 89.6842 225.182 89.8207 225.557 89.8207H227.316C227.692 89.8207 228.016 89.6842 228.289 89.411C228.562 89.1378 228.699 88.7963 228.699 88.4206C228.699 88.0108 228.562 87.6694 228.289 87.3791C228.016 87.0888 227.692 86.9351 227.316 86.9181H225.557Z" fill="#13183A"/>
<path d="M237.834 84.6641V87.9594C237.834 88.4034 237.749 88.8132 237.578 89.2059C237.407 89.5986 237.185 89.923 236.895 90.2133C236.605 90.5035 236.28 90.7255 235.888 90.8962C235.495 91.067 235.085 91.1523 234.641 91.1523C234.197 91.1523 233.787 91.067 233.395 90.8962C233.002 90.7255 232.678 90.5035 232.387 90.2133C232.097 89.923 231.875 89.5986 231.704 89.2059C231.534 88.8132 231.448 88.4034 231.448 87.9594V84.6641C231.448 84.2202 231.534 83.8104 231.704 83.4176C231.875 83.0249 232.097 82.7005 232.387 82.4103C232.678 82.12 233.002 81.898 233.395 81.7273C233.787 81.5566 234.197 81.4712 234.641 81.4712C235.085 81.4712 235.495 81.5566 235.888 81.7273C236.28 81.898 236.605 82.12 236.895 82.4103C237.185 82.7005 237.407 83.0249 237.578 83.4176C237.749 83.8104 237.834 84.2202 237.834 84.6641ZM232.661 84.6641V87.9594C232.661 88.2497 232.712 88.5058 232.814 88.7448C232.917 88.9839 233.053 89.1888 233.241 89.3766C233.429 89.5644 233.634 89.701 233.873 89.8035C234.112 89.9059 234.368 89.9572 234.641 89.9572C234.914 89.9572 235.17 89.9059 235.409 89.8035C235.649 89.701 235.853 89.5644 236.041 89.3766C236.229 89.1888 236.366 88.9839 236.468 88.7448C236.571 88.5058 236.639 88.2497 236.656 87.9594V84.6641C236.656 84.3738 236.605 84.1177 236.502 83.8786C236.4 83.6396 236.263 83.4347 236.075 83.2469C235.888 83.0591 235.683 82.9225 235.444 82.82C235.205 82.7176 234.948 82.6664 234.675 82.6664C234.402 82.6664 234.146 82.7176 233.907 82.82C233.668 82.9225 233.463 83.0591 233.275 83.2469C233.087 83.4347 232.951 83.6396 232.848 83.8786C232.746 84.1177 232.678 84.3738 232.661 84.6641Z" fill="#13183A"/>
<path d="M136.054 107.219C134.415 107.219 133.083 105.887 133.083 104.248V90.9641L143.891 86.6101L138.922 105.016C138.581 106.331 137.403 107.219 136.054 107.219Z" fill="#13183A"/>
<path d="M138.392 71.5339C141.568 73.395 145.495 73.3779 149.166 72.9511C151.522 72.6608 153.947 72.1998 155.928 70.9022C158.438 69.263 159.974 66.4799 162.177 64.448C163.867 62.8772 165.95 61.7502 167.47 60.0257C168.989 58.3012 169.826 55.6035 168.546 53.7082C167.828 52.6496 166.565 52.035 165.301 51.7959C164.038 51.5569 162.74 51.6423 161.443 51.6935C158.028 51.813 154.613 51.591 151.232 51.0617C147.339 50.447 143.224 49.4396 139.587 50.9592C136.343 52.3252 134.175 55.5523 133.202 58.933C132.399 61.6991 132.28 64.7554 133.475 67.3678C134.67 69.9801 137.351 72.012 140.219 71.8925" fill="#13183A"/>
<path d="M134.584 69.6212C138.119 70.6627 141.926 69.7065 145.375 68.4089C147.595 67.5722 149.832 66.5307 151.454 64.8062C153.503 62.6036 154.322 59.5472 155.979 57.0373C157.242 55.1079 159.001 53.52 160.059 51.4711C161.118 49.4222 161.289 46.6219 159.581 45.0852C158.625 44.2315 157.259 43.9413 155.979 44.0096C154.698 44.0779 153.452 44.4876 152.205 44.8291C148.927 45.7511 145.546 46.3658 142.148 46.6561C138.221 46.9976 133.97 46.9976 130.828 49.3538C128.011 51.4711 126.679 55.1079 126.542 58.6253C126.423 61.4938 127.055 64.4989 128.83 66.7356C130.606 68.9894 133.697 70.3212 136.463 69.5187" fill="#13183A"/>
</svg>
