<svg width="326" height="326" viewBox="0 0 326 326" fill="none" xmlns="http://www.w3.org/2000/svg">
<rect width="326" height="326" fill="#FFF2D8"/>
<path d="M107.269 259.765C107.915 259.765 108.425 259.306 108.425 258.694C108.425 258.15 108.153 257.912 107.524 257.912H102.985C102.645 257.912 102.492 258.065 102.492 258.405V259.136C102.492 259.544 102.764 259.765 103.257 259.765H107.269ZM109.547 259.85H110.601C110.958 259.85 111.128 260.037 111.128 260.377V261.448C111.128 261.805 110.958 261.975 110.601 261.975H102.237C100.809 261.975 100.027 261.295 100.027 260.071V256.688C100.027 256.042 100.35 255.702 100.996 255.702H108.544C109.989 255.702 110.89 256.484 110.89 257.742C110.89 258.728 110.414 259.476 109.547 259.85ZM98.8201 250.857C98.8201 248.273 100.469 247.049 103.886 247.049C104.532 247.049 105.331 247.083 106.096 247.185C106.487 247.236 106.623 247.372 106.623 247.729V248.97C106.623 249.344 106.436 249.531 106.096 249.48C105.433 249.378 104.685 249.344 104.039 249.344C102.101 249.344 101.285 249.786 101.285 250.857C101.285 251.945 101.999 252.353 103.835 252.353C104.617 252.353 105.586 252.183 106.283 251.945C106.351 251.928 106.419 251.911 106.487 251.911C106.691 251.911 106.81 252.047 106.878 252.336L107.15 253.526C107.235 253.866 107.116 254.07 106.725 254.189C105.824 254.461 104.617 254.648 103.767 254.648C100.367 254.648 98.8201 253.424 98.8201 250.857ZM110.771 254.019C110.771 254.376 110.567 254.58 110.21 254.58H108.867C108.51 254.58 108.306 254.376 108.306 254.019V247.219C108.306 246.862 108.51 246.658 108.867 246.658H110.21C110.567 246.658 110.771 246.862 110.771 247.219V249.684C110.958 249.395 111.349 249.208 111.825 249.208H112.369C112.709 249.208 112.896 249.395 112.896 249.735V250.976C112.896 251.316 112.709 251.503 112.369 251.503H111.757C111.179 251.503 110.771 251.894 110.771 252.438V254.019ZM125.419 247.185C125.419 246.828 125.589 246.658 125.946 246.658H127.187C127.544 246.658 127.714 246.828 127.714 247.185V261.363C127.714 261.72 127.544 261.89 127.187 261.89H125.946C125.589 261.89 125.419 261.72 125.419 261.363V254.818H124.722C124.348 254.818 124.059 255.09 124.059 255.464V261.363C124.059 261.72 123.889 261.89 123.532 261.89H122.291C121.934 261.89 121.764 261.72 121.764 261.363V247.355C121.764 246.998 121.934 246.828 122.291 246.828H123.532C123.889 246.828 124.059 246.998 124.059 247.355V252.761C124.212 252.557 124.484 252.438 124.773 252.438H125.419V247.185ZM120.489 257.793C120.455 258.983 119.86 259.578 118.721 259.578H116.001C114.777 259.578 113.995 258.898 113.961 257.793L113.706 248.239C113.689 247.899 113.876 247.729 114.233 247.729H115.474C115.882 247.729 116.018 247.848 116.018 248.188L116.086 251.299H118.364L118.432 248.188C118.432 247.848 118.585 247.729 118.976 247.729H120.217C120.591 247.729 120.761 247.899 120.744 248.239L120.489 257.793ZM116.154 253.594L116.222 256.773C116.222 257.079 116.426 257.283 116.766 257.283H117.684C118.024 257.283 118.228 257.079 118.228 256.773L118.296 253.594H116.154ZM130.512 254.257C131.974 254.376 134.218 254.393 136.598 254.393C139.25 254.393 141.664 254.359 142.718 254.257C143.075 254.223 143.296 254.41 143.296 254.767V255.77C143.296 256.076 143.126 256.28 142.735 256.314C141.681 256.416 139.267 256.45 136.615 256.45C134.235 256.45 131.991 256.433 130.512 256.314C130.121 256.28 129.951 256.093 129.951 255.77V254.767C129.951 254.41 130.155 254.223 130.512 254.257ZM141.885 253.067C140.015 253.288 137.941 253.373 134.932 253.373C132.603 253.373 131.362 252.319 131.362 250.279C131.362 249.48 131.413 248.222 131.464 247.559C131.498 247.202 131.736 247.032 132.11 247.032H133.453C133.81 247.032 133.963 247.236 133.929 247.593C133.861 248.205 133.827 249.276 133.827 249.752C133.827 250.619 134.371 251.078 135.306 251.078C137.669 251.078 139.743 250.993 141.715 250.772C142.072 250.738 142.259 250.925 142.293 251.265L142.395 252.523C142.429 252.863 142.225 253.033 141.885 253.067ZM142.14 261.839C139.998 262.043 137.244 262.145 134.575 262.145C132.348 262.145 131.107 261.023 131.107 259.017C131.107 258.439 131.158 258.133 131.209 257.81C131.277 257.419 131.447 257.249 131.77 257.249H133.113C133.504 257.249 133.725 257.47 133.674 257.81C133.64 258.048 133.572 258.422 133.572 258.711C133.572 259.476 134.031 259.85 134.864 259.85C137.431 259.85 140.168 259.731 141.987 259.544C142.31 259.51 142.548 259.714 142.565 260.071L142.65 261.278C142.667 261.601 142.497 261.805 142.14 261.839ZM152.287 251.129L152.338 252.489C152.355 252.829 152.491 252.948 152.831 252.948H154.446C154.786 252.948 154.922 252.829 154.939 252.489L154.99 251.129H152.287ZM155.33 255.158H151.947C150.689 255.158 149.958 254.512 149.907 253.39L149.652 247.593C149.635 247.253 149.856 247.049 150.213 247.049H151.556C151.947 247.049 152.117 247.185 152.134 247.542L152.185 248.919H155.092L155.143 247.542C155.16 247.202 155.33 247.049 155.721 247.049H157.064C157.438 247.049 157.642 247.253 157.625 247.593L157.37 253.39C157.319 254.512 156.588 255.158 155.33 255.158ZM161.671 256.739C161.671 257.096 161.467 257.3 161.11 257.3H159.767C159.41 257.3 159.206 257.096 159.206 256.739V247.219C159.206 246.862 159.41 246.658 159.767 246.658H161.11C161.467 246.658 161.671 246.862 161.671 247.219V251.044C161.858 250.755 162.249 250.568 162.725 250.568H163.269C163.609 250.568 163.796 250.755 163.796 251.095V252.336C163.796 252.676 163.609 252.863 163.269 252.863H162.657C162.079 252.863 161.671 253.254 161.671 253.798V256.739ZM155.177 262.145C152.576 262.145 151.097 260.921 151.097 258.779C151.097 257.929 151.148 257.538 151.199 257.13C151.25 256.773 151.403 256.569 151.76 256.569H153.103C153.46 256.569 153.715 256.773 153.664 257.13C153.596 257.657 153.562 257.946 153.562 258.405C153.562 259.374 154.191 259.85 155.483 259.85C157.608 259.85 159.716 259.714 161.518 259.544C161.858 259.51 162.028 259.731 162.045 260.071L162.13 261.312C162.147 261.652 161.943 261.805 161.603 261.839C159.903 262.026 157.999 262.145 155.177 262.145ZM175.98 247.746C176.354 247.78 176.507 247.933 176.507 248.273V249.514C176.507 249.854 176.303 250.058 175.98 250.041C174.399 249.956 172.937 249.854 171.56 249.854C169.231 249.854 168.245 250.449 168.245 251.843C168.245 253.271 169.06 253.832 171.118 253.832C172.393 253.832 174.416 253.713 176.116 253.526C176.439 253.492 176.609 253.662 176.643 254.053L176.728 255.294C176.745 255.617 176.575 255.787 176.201 255.821C173.872 256.025 172.427 256.127 171.373 256.127C167.531 256.127 165.78 254.835 165.78 251.843C165.78 248.902 167.548 247.559 171.611 247.559C173.294 247.559 174.518 247.61 175.98 247.746ZM171.628 258.422C174.28 258.422 176.694 258.303 177.748 258.133C178.105 258.065 178.309 258.286 178.309 258.643V259.901C178.309 260.207 178.139 260.377 177.748 260.445C176.694 260.632 174.28 260.734 171.628 260.734C169.248 260.734 167.004 260.649 165.525 260.445C165.134 260.394 164.964 260.224 164.964 259.901V258.643C164.964 258.286 165.168 258.082 165.525 258.133C167.004 258.32 169.248 258.422 171.628 258.422ZM183.981 256.654C183.522 258.167 182.077 259.34 180.36 259.578C180.003 259.629 179.799 259.442 179.799 259.102V257.827C179.799 257.504 179.986 257.334 180.36 257.283C181.686 257.096 182.723 255.515 182.723 253.764V248.341C182.723 247.95 182.927 247.729 183.284 247.729H184.644C184.984 247.729 185.188 247.95 185.188 248.341V253.764C185.188 255.515 186.225 257.096 187.551 257.283C187.908 257.334 188.078 257.504 188.078 257.827V259.102C188.078 259.442 187.908 259.629 187.551 259.578C185.851 259.34 184.423 258.15 183.981 256.654ZM189.795 247.219C189.795 246.862 189.999 246.658 190.356 246.658H191.699C192.056 246.658 192.26 246.862 192.26 247.219V261.329C192.26 261.686 192.056 261.89 191.699 261.89H190.356C189.999 261.89 189.795 261.686 189.795 261.329V247.219ZM200.996 247.321C201.761 247.117 202.339 247.032 203.189 247.032C204.277 247.032 205.144 247.423 205.637 248.086V247.933C205.637 247.61 205.79 247.406 206.096 247.321C206.81 247.117 207.609 247.032 208.561 247.032C210.414 247.032 211.57 248.052 211.57 249.667C211.57 250.381 211.468 251.316 211.23 252.098C211.587 252.081 211.876 252.064 212.097 252.047C212.454 252.013 212.641 252.166 212.641 252.523V253.424C212.641 253.73 212.505 253.9 212.114 253.934C211.06 254.036 208.612 254.07 205.96 254.07C203.58 254.07 201.302 254.053 199.823 253.934C199.432 253.9 199.296 253.747 199.296 253.424V252.523C199.296 252.166 199.466 252.013 199.823 252.047C200.758 252.115 201.948 252.149 203.291 252.166C203.495 251.724 203.682 250.891 203.682 250.347C203.682 249.65 203.308 249.276 202.594 249.276C202.305 249.276 201.914 249.344 201.081 249.565C200.758 249.65 200.537 249.497 200.537 249.191V247.933C200.537 247.61 200.69 247.406 200.996 247.321ZM205.909 260.037C205.909 258.66 206.98 257.929 209.037 257.929C211.094 257.929 212.165 258.66 212.165 260.037C212.165 261.414 211.094 262.145 209.037 262.145C206.98 262.145 205.909 261.414 205.909 260.037ZM204.889 259.544C204.957 259.527 205.025 259.51 205.093 259.51C205.297 259.51 205.399 259.646 205.416 259.901L205.501 261.227C205.518 261.55 205.382 261.737 205.042 261.839C204.413 262.026 203.648 262.145 203.104 262.145C200.945 262.145 200.044 261.329 200.044 259.391C200.044 258.218 200.095 257.266 200.18 256.365C200.214 256.025 200.401 255.889 200.775 255.889H202.101C202.492 255.889 202.696 256.11 202.645 256.45C202.56 257.062 202.509 257.997 202.509 258.898C202.509 259.527 202.798 259.85 203.359 259.85C203.733 259.85 204.345 259.714 204.889 259.544ZM205.875 257.487C205.586 257.487 205.45 257.334 205.45 257.062V256.178C205.45 255.872 205.603 255.753 205.875 255.753H208.034C207.881 255.668 207.796 255.515 207.796 255.294V255.039C207.796 254.801 207.932 254.682 208.153 254.682H209.734C209.972 254.682 210.091 254.801 210.091 255.039V255.413C210.091 255.634 210.244 255.753 210.55 255.753H212.199C212.471 255.753 212.624 255.872 212.624 256.178V257.062C212.624 257.334 212.488 257.487 212.199 257.487H205.875ZM205.773 252.183C206.793 252.183 207.813 252.183 208.731 252.166C208.935 251.707 209.122 250.925 209.122 250.381C209.122 249.65 208.714 249.276 207.915 249.276C207.201 249.276 206.606 249.446 206.181 249.565C206.164 249.565 206.147 249.582 206.13 249.582C206.13 250.449 206.028 251.35 205.773 252.183ZM209.037 260.53C209.717 260.53 210.006 260.377 210.006 260.037C210.006 259.697 209.717 259.544 209.037 259.544C208.357 259.544 208.068 259.697 208.068 260.037C208.068 260.377 208.357 260.53 209.037 260.53ZM219.112 259.017C219.537 256.229 219.724 254.07 219.724 251.758C219.724 250.483 219.384 250.024 218.415 250.024C216.919 250.024 216.035 250.211 214.913 250.33C214.59 250.364 214.386 250.16 214.386 249.803V248.562C214.386 248.239 214.539 248.086 214.913 248.035C216.63 247.797 217.582 247.729 218.789 247.729C221.203 247.729 222.206 248.817 222.206 251.469C222.206 254.189 222.036 256.535 221.577 259.085C221.509 259.459 221.356 259.578 220.999 259.578H219.639C219.265 259.578 219.061 259.357 219.112 259.017ZM224.127 247.219C224.127 246.862 224.331 246.658 224.688 246.658H226.031C226.388 246.658 226.592 246.862 226.592 247.219V261.329C226.592 261.686 226.388 261.89 226.031 261.89H224.688C224.331 261.89 224.127 261.686 224.127 261.329V247.219Z" fill="#13183A"/>
<path d="M28.3416 59.5V30.4L21.1916 34.3C20.9416 34.45 20.6416 34.5 20.4416 34.5C19.8416 34.5 19.3916 34 19.3916 33.25V28.65C19.3916 27.65 19.7916 27.2 20.6916 26.7L28.1916 22.45C29.1416 21.9 30.0916 21.75 31.0916 21.75H33.9416C34.9916 21.75 35.5916 22.35 35.5916 23.4V59.5C35.5916 60.55 34.9916 61.15 33.9416 61.15H29.9916C28.9416 61.15 28.3416 60.55 28.3416 59.5Z" fill="#6A9BEA"/>
<path d="M198.977 163.596V201.62H116.917L111.658 191.973L85.9443 138.052H173.451C187.554 138.07 198.977 149.492 198.977 163.596Z" fill="#EDC769" stroke="#E5BC5E" stroke-width="1.04956" stroke-miterlimit="10"/>
<path d="M150.741 186.868L135.767 201.33H166.364L150.741 186.868Z" fill="#DDAD4E"/>
<path d="M168.5 163.972L147.14 142.56L125.558 164.057L168.517 207.119" fill="#EDC769"/>
<path d="M231.35 30.9451C207.429 30.9451 188.032 50.3416 188.032 74.2628C188.032 93.2324 200.24 109.351 217.229 115.207C215.71 121.166 211.356 125.981 205.687 128.115C207.77 128.918 210.007 129.345 212.346 129.345C220.252 129.345 227.013 124.462 229.779 117.546C230.308 117.563 230.821 117.581 231.35 117.581C255.271 117.581 274.668 98.184 274.668 74.2628C274.668 50.3416 255.271 30.9451 231.35 30.9451Z" fill="#D3E5EA"/>
<path d="M250.507 55.1054C239.921 44.5192 222.761 44.5192 212.175 55.1054C201.589 65.6915 201.589 82.8512 212.175 93.4374C222.761 104.023 239.921 104.023 250.507 93.4374C261.093 82.8512 261.093 65.6915 250.507 55.1054ZM218.288 87.3247C211.082 80.1194 211.082 68.4234 218.288 61.218C225.493 54.0126 237.189 54.0126 244.394 61.218C251.6 68.4234 251.6 80.1194 244.394 87.3247C237.189 94.5301 225.493 94.5301 218.288 87.3247Z" fill="#B73B3B"/>
<path d="M218.545 93.178L250.262 61.4614L244.153 55.3523L212.436 87.0689L218.545 93.178Z" fill="#B73B3B"/>
<path d="M218.708 71.6625L218.708 76.9385L247.41 76.9385L247.41 71.6625L218.708 71.6625Z" fill="white"/>
<path d="M216.08 71.6632L216.08 76.9392L218.727 76.9392L218.727 71.6632L216.08 71.6632Z" fill="#B73B3B"/>
<path d="M233.83 71.6557L233.83 76.9316L247.421 76.9316L247.421 71.6557L233.83 71.6557Z" fill="#DBA182"/>
<path opacity="0.1" d="M247.416 74.8599H216.067V76.9259H247.416V74.8599Z" fill="#352F2C"/>
<path opacity="0.4" d="M217.468 66.4423C217.776 64.7519 218.066 63.0274 217.895 61.3029C217.724 59.5955 217.007 57.8539 215.624 56.8294C214.07 55.6854 212.022 55.6001 210.16 55.1049C206.507 54.1146 203.297 50.8875 203.211 47.097C203.092 41.9235 208.453 37.4158 207.224 32.396C206.319 28.7079 202.34 26.8297 198.908 25.1735C196.296 23.91 193.735 22.4757 191.669 20.4439C189.603 18.412 188.066 15.7143 187.947 12.8287C187.725 7.63809 192.045 3.19875 196.877 1.30349C202.392 -0.864954 209.068 -0.386867 213.797 3.18168C216.649 5.35013 218.629 8.44059 220.268 11.6164C221.771 14.5361 223.069 17.6778 223.12 20.9561C223.205 26.6077 219.705 31.6276 216.171 36.0328C214.89 37.6378 213.558 39.2428 212.705 41.1039C211.851 42.965 211.475 45.1505 212.192 47.0799C213.575 50.8363 218.373 52.2876 220.2 55.8391C221.481 58.349 221.003 61.4907 219.551 63.8811C218.766 65.1788 217.776 66.3228 217.246 67.757C217.298 67.3302 217.383 66.8862 217.468 66.4423Z" fill="white"/>
<path d="M172.188 78.2063C172.188 100.249 154.311 118.126 132.268 118.126C119.052 118.126 107.322 111.706 100.065 101.803C97.6236 98.4907 95.6942 94.7855 94.3795 90.8072C93.0648 86.8459 92.3477 82.6115 92.3477 78.2063C92.3477 65.7932 98.0163 54.7119 106.895 47.4041C109.285 45.4235 111.898 43.7331 114.681 42.3672C115.159 42.1281 115.671 41.8891 116.166 41.6671C116.969 41.3256 117.771 41.0012 118.608 40.6939C119.462 40.3865 120.333 40.1133 121.203 39.8572C124.721 38.8328 128.409 38.2864 132.268 38.2864C134.624 38.2864 136.912 38.4913 139.166 38.8669C143.195 39.567 147.02 40.8646 150.52 42.6916C162.25 48.7188 170.6 60.4148 171.966 74.1597C172.119 75.5085 172.188 76.8404 172.188 78.2063Z" fill="#352F2C"/>
<path d="M122.329 116.18V138.07C131.583 144.37 143.74 144.37 153.012 138.07V116.18H122.329Z" fill="#FFD8D9"/>
<path d="M122.329 116.18V130.745C125.334 131.667 128.51 132.162 131.805 132.162C139.933 132.162 147.36 129.123 152.995 124.154V116.18H122.329Z" fill="#EAC1C5"/>
<path d="M169.693 75.7647V94.2904C169.693 111.979 155.351 126.322 137.662 126.322C119.973 126.322 105.613 111.979 105.613 94.2904V75.7647C105.613 74.4158 105.699 73.067 105.869 71.7522C107.833 55.9584 121.322 43.7332 137.662 43.7332C146.506 43.7332 154.514 47.3188 160.303 53.107C166.108 58.9123 169.693 66.9202 169.693 75.7647Z" fill="#FFD8D9"/>
<path d="M138.089 90.7051C139.73 90.7051 141.06 88.9699 141.06 86.8293C141.06 84.6887 139.73 82.9534 138.089 82.9534C136.448 82.9534 135.118 84.6887 135.118 86.8293C135.118 88.9699 136.448 90.7051 138.089 90.7051Z" fill="#352F2C"/>
<path d="M157.998 90.7051C159.639 90.7051 160.969 88.9699 160.969 86.8293C160.969 84.6887 159.639 82.9534 157.998 82.9534C156.357 82.9534 155.027 84.6887 155.027 86.8293C155.027 88.9699 156.357 90.7051 157.998 90.7051Z" fill="#352F2C"/>
<path d="M132.574 80.3748C132.011 80.3748 131.464 80.0846 131.157 79.5553C130.713 78.7869 130.969 77.7795 131.738 77.3356C131.891 77.2502 135.733 75.0305 141.316 75.9013C142.204 76.0379 142.819 76.8746 142.682 77.7624C142.546 78.6503 141.709 79.265 140.821 79.1284C136.45 78.4625 133.411 80.1358 133.394 80.1529C133.121 80.3065 132.847 80.3748 132.574 80.3748Z" fill="#352F2C"/>
<path d="M163.752 80.3748C164.315 80.3748 164.862 80.0846 165.169 79.5553C165.613 78.7869 165.357 77.7795 164.589 77.3356C164.435 77.2502 160.593 75.0305 155.01 75.9013C154.122 76.0379 153.507 76.8746 153.644 77.7624C153.781 78.6503 154.617 79.265 155.505 79.1284C159.876 78.4625 162.915 80.1358 162.932 80.1529C163.189 80.3065 163.462 80.3748 163.752 80.3748Z" fill="#352F2C"/>
<path d="M155.027 96.049C155.027 98.4224 153.098 98.7297 150.725 98.7297C148.351 98.7297 146.422 98.4224 146.422 96.049C146.422 93.6757 148.351 86.2825 150.725 86.2825C153.098 86.2825 155.027 93.6757 155.027 96.049Z" fill="#EAC1C5"/>
<path d="M144.646 107.421C144.646 105.543 148.368 104.023 151.1 104.023C153.832 104.023 157.554 105.543 157.554 107.421" stroke="#D1867C" stroke-width="2.09895" stroke-miterlimit="10" stroke-linecap="round" stroke-linejoin="round"/>
<path d="M129.279 66.1179C129.279 82.0995 118.164 95.4858 103.258 98.9861C100.936 95.8102 99.0747 92.2758 97.8283 88.4682C96.5648 84.6948 95.8818 80.6311 95.8818 76.4308C95.8818 61.3883 104.59 48.3947 117.225 42.1796C117.686 41.9405 118.164 41.7356 118.642 41.5137C125.199 47.6775 129.279 56.4196 129.279 66.1179Z" fill="#352F2C"/>
<path d="M116.098 83.602V104.416C115.722 104.45 115.364 104.467 114.988 104.467C109.2 104.467 104.521 99.7885 104.521 94.0003C104.521 88.2121 109.2 83.5337 114.988 83.5337C115.364 83.5508 115.739 83.5678 116.098 83.602Z" fill="#FFD8D9"/>
<path d="M116.098 90.4657V97.5686C115.739 97.6711 115.381 97.7394 114.988 97.7394C112.939 97.7394 111.266 96.0661 111.266 94.0171C111.266 91.9682 112.939 90.2949 114.988 90.2949C115.381 90.2949 115.739 90.3461 116.098 90.4657Z" fill="#EAC1C5"/>
<path d="M123.047 77.3184C119.769 78.1209 116.456 78.2575 113.28 77.7965C121.664 71.8205 125.984 61.149 123.405 50.5458C122.5 46.8407 120.827 43.5111 118.625 40.6939C119.478 40.3865 120.349 40.1133 121.22 39.8572C124.737 38.8328 128.425 38.2864 132.284 38.2864C134.64 38.2864 136.928 38.4913 139.182 38.8669C140.463 41.0183 141.453 43.4087 142.085 45.9699C145.465 59.8855 136.945 73.9377 123.047 77.3184Z" fill="#352F2C"/>
<path d="M151.322 73.767C151.271 73.8353 151.203 73.9206 151.151 74.006C148.812 77.1989 143.656 75.6964 143.434 71.7522C143.041 65.042 140.053 58.4683 134.572 53.7046C126.342 46.5504 114.868 45.4918 105.733 50.2043C106.058 49.2481 106.451 48.309 106.894 47.4041C109.285 45.4235 111.897 43.7331 114.68 42.3672C115.158 42.1281 115.671 41.8891 116.166 41.6671C116.968 41.3256 117.771 41.0012 118.607 40.6939C119.461 40.3865 120.332 40.1133 121.203 39.8572C124.72 38.8328 128.408 38.2864 132.267 38.2864C134.623 38.2864 136.911 38.4913 139.165 38.8669C143.195 39.567 147.019 40.8646 150.52 42.6916C157.537 51.5873 158.032 64.3931 151.322 73.767Z" fill="#352F2C"/>
<path d="M162.472 43.1361C173.127 49.6927 177.617 63.2839 172.888 74.8774C172.853 74.9628 172.819 75.0482 172.785 75.1506C171.248 78.7875 165.887 78.5313 164.743 74.7579C162.797 68.3209 158.374 62.6351 151.937 59.2714C142.273 54.2174 130.867 55.8566 123.064 62.5497C123.372 59.3568 124.311 56.181 125.882 53.1759C132.797 39.9432 149.53 35.1795 162.472 43.1361Z" fill="#352F2C"/>
<path d="M109.473 129.993C111.095 128.542 113.622 128.764 115.159 130.301L131.072 146.214L137.185 152.326L133.206 156.305L133.002 156.202C127.948 153.351 123.303 149.817 119.188 145.719L109.302 135.833C107.697 134.193 107.749 131.547 109.473 129.993Z" fill="#EAC1C5"/>
<path d="M104.452 117.854C106.074 116.231 108.687 116.231 110.309 117.854L133.171 140.716L140.974 148.519L134.827 154.666L133.325 154.068C127.024 151.541 121.561 147.307 117.565 141.809L104.042 123.232C102.83 121.576 103.018 119.288 104.452 117.854Z" fill="#FFD8D9"/>
<path d="M168.498 163.971L184.736 180.209L168.515 152.6L168.498 163.971Z" fill="#E5BC5E"/>
<path d="M107.474 157.739L120.143 176.76L124.736 172.15L107.474 157.739Z" fill="#DDAD4E"/>
<path d="M198.77 198.325C198.856 197.693 198.907 197.062 198.907 196.413L198.958 161.649C198.975 148.622 188.44 138.052 175.413 138.035L168.532 138.018L168.515 150.022V207.101L172.971 211.575C178.913 217.534 188.543 217.551 194.502 211.609C198.139 208.006 199.556 203.021 198.77 198.325Z" fill="#EDC769"/>
<path d="M184.737 180.209L147.14 142.56L125.558 164.057L168.517 207.119L172.973 211.592C172.973 211.592 176.866 216.066 183.218 216.066C189.57 216.066 198.978 211.473 198.978 201.638C198.978 191.803 198.96 161.667 198.96 161.667" stroke="#E5BC5E" stroke-width="1.04956" stroke-miterlimit="10"/>
<path d="M175.84 158.814V171.33L168.515 163.988L175.84 158.814Z" fill="#DDAD4E"/>
<path d="M191.924 129.993C190.302 128.542 187.775 128.764 186.238 130.3L170.325 146.214L164.212 152.326L168.19 156.305L168.395 156.202C173.449 153.351 178.093 149.816 182.208 145.718L192.094 135.832C193.699 134.193 193.648 131.547 191.924 129.993Z" fill="#EAC1C5"/>
<path d="M154.258 142.56L120.143 176.76L99.1416 145.24C94.6852 138.103 85.2772 135.935 78.1572 140.391C71.0201 144.848 68.8688 154.239 73.3081 161.376L104.315 208.911C107.218 213.538 112.204 216.065 117.292 216.048C121.304 216.133 125.368 214.665 128.424 211.592L175.84 164.056L154.258 142.56Z" fill="#EDC769"/>
<path d="M196.925 117.853C195.303 116.231 192.691 116.231 191.069 117.853L168.206 140.716L160.403 148.519L166.55 154.666L168.053 154.068C174.353 151.541 179.817 147.307 183.812 141.809L197.335 123.232C198.548 121.575 198.377 119.288 196.925 117.853Z" fill="#FFD8D9"/>
<path d="M105.612 154.956L120.143 176.76L154.257 142.56L175.839 164.057L138.344 201.638" stroke="#E5BC5E" stroke-width="1.04956" stroke-miterlimit="10"/>
<path d="M150.69 189.258L172.17 167.728L154.515 193.083L150.69 189.258Z" fill="#DDAD4E"/>
</svg>
