<svg width="326" height="326" viewBox="0 0 326 326" fill="none" xmlns="http://www.w3.org/2000/svg">
<rect width="326" height="326" fill="#6A9BEA"/>
<path d="M75.577 255.855C75.237 255.804 75.118 255.685 75.186 255.345C75.407 254.223 75.475 252.88 75.475 251.877C75.475 250.568 74.778 249.854 73.486 249.854C71.888 249.854 70.052 250.024 67.774 250.143C67.451 250.16 67.23 249.973 67.23 249.667V248.341C67.23 248.069 67.434 247.865 67.774 247.831C70.154 247.593 72.279 247.542 74.047 247.542C76.563 247.542 77.923 248.885 77.923 251.384C77.923 252.931 77.821 254.427 77.566 255.685C77.498 256.025 77.328 256.11 76.988 256.059L75.577 255.855ZM66.38 260.275C65.989 260.224 65.819 260.054 65.819 259.731V258.473C65.819 258.116 66.023 257.929 66.38 257.963C67.621 258.082 69.304 258.218 70.834 258.252C70.528 258.116 70.324 257.793 70.324 257.368V254.24C70.324 253.883 70.528 253.679 70.885 253.679H72.245C72.602 253.679 72.789 253.883 72.789 254.24V257.504C72.789 257.963 73.027 258.201 73.52 258.218C74.693 258.252 77.26 258.133 78.586 257.963C78.943 257.912 79.164 258.116 79.164 258.473V259.731C79.164 260.037 78.994 260.207 78.603 260.275C77.549 260.462 75.135 260.564 72.483 260.564C70.103 260.564 67.859 260.479 66.38 260.275ZM84.7 252.693C85.652 252.693 86.06 252.54 86.06 252.132C86.06 251.724 85.652 251.571 84.7 251.571C83.748 251.571 83.34 251.724 83.34 252.132C83.34 252.54 83.748 252.693 84.7 252.693ZM87.437 259.476C84.938 259.476 84.496 259.544 84.496 259.901C84.496 260.275 85.023 260.309 88.372 260.309C90.038 260.309 92.061 260.173 93.013 260.003C93.285 259.952 93.472 260.088 93.489 260.36L93.574 261.397C93.591 261.635 93.438 261.805 93.183 261.839C91.976 261.992 89.8 262.145 88.389 262.145C83.442 262.145 82.031 261.652 82.031 259.867C82.031 258.201 83.425 257.64 87.403 257.64C88.338 257.64 89.409 257.623 90.157 257.623C90.616 257.623 90.786 257.538 90.786 257.3C90.786 257.045 90.633 256.96 90.191 256.96C88.151 256.96 84.581 257.13 82.813 257.249C82.541 257.266 82.371 257.113 82.371 256.841V255.804C82.371 255.549 82.507 255.413 82.813 255.396C85.584 255.243 89.069 255.124 91.534 255.192C92.673 255.226 93.234 255.634 93.234 256.416C93.234 257.079 92.86 257.589 92.265 257.793H92.656C92.911 257.793 93.098 257.946 93.098 258.184V259.119C93.098 259.357 92.928 259.527 92.656 259.527C91.415 259.527 90.463 259.476 87.437 259.476ZM80.909 252.132C80.909 250.551 82.133 249.803 84.7 249.803C87.267 249.803 88.491 250.551 88.491 252.132C88.491 253.713 87.267 254.461 84.7 254.461C82.133 254.461 80.909 253.713 80.909 252.132ZM88.457 247.219C88.78 247.219 88.933 247.372 88.933 247.712V248.698C88.933 249.038 88.78 249.191 88.457 249.191H80.875C80.552 249.191 80.399 249.038 80.399 248.698V247.712C80.399 247.372 80.552 247.219 80.875 247.219H83.748C83.578 247.117 83.493 246.964 83.493 246.726V246.437C83.493 246.08 83.663 245.91 84.02 245.91H85.431C85.788 245.91 85.958 246.08 85.958 246.437V246.845C85.958 247.066 86.111 247.219 86.417 247.219H88.457ZM90.65 248.12V247.219C90.65 246.862 90.854 246.658 91.211 246.658H92.554C92.911 246.658 93.115 246.862 93.115 247.219V253.849C93.115 254.206 92.911 254.41 92.554 254.41H91.211C90.854 254.41 90.65 254.206 90.65 253.849V253.305C90.514 253.526 90.259 253.611 89.868 253.611H89.596C89.256 253.611 89.103 253.458 89.103 253.118V252.081C89.103 251.741 89.256 251.588 89.596 251.588H90.106C90.48 251.588 90.65 251.418 90.65 251.061V250.296C90.497 250.517 90.259 250.619 89.868 250.619H89.596C89.256 250.619 89.103 250.466 89.103 250.126V249.089C89.103 248.749 89.256 248.596 89.596 248.596H90.106C90.531 248.596 90.65 248.494 90.65 248.12ZM99.1604 249.089C98.2084 249.089 97.6134 249.718 97.6134 250.67C97.6134 251.639 98.2084 252.268 99.1604 252.268C100.112 252.268 100.724 251.639 100.724 250.67C100.724 249.718 100.112 249.089 99.1604 249.089ZM98.9054 258.66L98.9394 259.357C98.9564 259.697 99.1264 259.85 99.4664 259.85H103.988C104.328 259.85 104.498 259.697 104.515 259.357L104.549 258.66H98.9054ZM104.668 261.975H98.7864C97.3754 261.975 96.5764 261.329 96.5084 260.105L96.2534 255.923C96.2364 255.583 96.4574 255.362 96.8144 255.362H98.1744C98.5314 255.362 98.7184 255.549 98.7354 255.923L98.7694 256.535H104.685L104.719 255.923C104.736 255.549 104.923 255.362 105.28 255.362H106.64C106.997 255.362 107.218 255.583 107.201 255.923L106.946 260.105C106.878 261.329 106.079 261.975 104.668 261.975ZM103.155 250.67C103.155 252.982 101.591 254.478 99.1604 254.478C96.7464 254.478 95.1824 252.965 95.1824 250.67C95.1824 248.358 96.7294 246.879 99.1604 246.879C101.608 246.879 103.155 248.358 103.155 250.67ZM107.218 253.849C107.218 254.206 107.014 254.41 106.657 254.41H105.314C104.957 254.41 104.753 254.206 104.753 253.849V247.219C104.753 246.862 104.957 246.658 105.314 246.658H106.657C107.014 246.658 107.218 246.862 107.218 247.219V249.599C107.405 249.31 107.796 249.123 108.272 249.123H108.816C109.156 249.123 109.343 249.31 109.343 249.65V250.891C109.343 251.231 109.156 251.418 108.816 251.418H108.204C107.626 251.418 107.218 251.809 107.218 252.353V253.849ZM111.904 259.493C112.822 259.493 113.366 260.088 113.366 261.057C113.366 262.4 112.295 263.403 110.867 263.403C110.731 263.403 110.646 263.318 110.646 263.182V262.808C110.646 262.672 110.714 262.587 110.85 262.57C111.224 262.519 111.445 262.451 111.564 262.281C110.884 262.145 110.459 261.618 110.459 260.904C110.459 260.037 111.02 259.493 111.904 259.493ZM126.452 259.952C128.866 259.952 129.631 259.663 129.631 258.847C129.631 258.031 128.866 257.742 126.452 257.742C124.038 257.742 123.273 258.031 123.273 258.847C123.273 259.663 124.038 259.952 126.452 259.952ZM120.808 258.847C120.808 256.62 122.661 255.532 126.452 255.532C130.243 255.532 132.096 256.62 132.096 258.847C132.096 261.074 130.243 262.162 126.452 262.162C122.661 262.162 120.808 261.074 120.808 258.847ZM119.771 250.857C119.771 248.273 121.42 247.049 124.837 247.049C125.483 247.049 126.282 247.083 127.047 247.185C127.438 247.236 127.574 247.372 127.574 247.729V248.97C127.574 249.344 127.387 249.531 127.047 249.48C126.384 249.378 125.636 249.344 124.99 249.344C123.052 249.344 122.236 249.786 122.236 250.857C122.236 251.945 122.95 252.353 124.786 252.353C125.568 252.353 126.537 252.183 127.234 251.945C127.302 251.928 127.37 251.911 127.438 251.911C127.642 251.911 127.761 252.047 127.829 252.336L128.101 253.526C128.186 253.866 128.067 254.07 127.676 254.189C126.775 254.461 125.568 254.648 124.718 254.648C121.318 254.648 119.771 253.424 119.771 250.857ZM131.722 254.359C131.722 254.716 131.518 254.92 131.161 254.92H129.818C129.461 254.92 129.257 254.716 129.257 254.359V247.219C129.257 246.862 129.461 246.658 129.818 246.658H131.161C131.518 246.658 131.722 246.862 131.722 247.219V249.854C131.909 249.565 132.3 249.378 132.776 249.378H133.32C133.66 249.378 133.847 249.565 133.847 249.905V251.146C133.847 251.486 133.66 251.673 133.32 251.673H132.708C132.13 251.673 131.722 252.064 131.722 252.608V254.359ZM143.089 256.042C142.375 256.076 141.627 256.093 140.879 256.093C140.675 256.093 140.471 256.093 140.284 256.076V257.538C140.284 257.997 140.522 258.235 141.015 258.252C141.593 258.269 142.766 258.252 143.667 258.235C143.327 258.099 143.089 257.759 143.089 257.317V256.042ZM136.425 252.234C136.425 251.078 136.476 249.242 136.527 248.069C136.544 247.729 136.782 247.542 137.173 247.542H138.516C138.856 247.542 139.009 247.729 138.992 248.103C138.941 249.038 138.89 250.568 138.89 251.945C138.89 253.237 139.502 253.798 140.947 253.798C142.868 253.798 145.044 253.662 146.744 253.407C147.084 253.356 147.288 253.543 147.322 253.9L147.458 255.158C147.492 255.481 147.305 255.651 146.948 255.702C146.523 255.77 146.047 255.821 145.554 255.872V257.402C145.554 257.861 145.792 258.116 146.2 258.116C146.727 258.116 147.271 258.031 147.781 257.963C148.138 257.912 148.359 258.116 148.359 258.473V259.731C148.359 260.037 148.189 260.207 147.798 260.275C146.744 260.462 144.33 260.564 141.678 260.564C139.298 260.564 137.054 260.479 135.575 260.275C135.184 260.224 135.014 260.054 135.014 259.731V258.473C135.014 258.116 135.218 257.929 135.575 257.963C136.323 258.031 137.156 258.099 138.244 258.15C137.989 257.997 137.819 257.674 137.819 257.3V255.43C136.884 254.801 136.425 253.764 136.425 252.234ZM156.887 259.952C159.403 259.952 160.219 259.663 160.219 258.847C160.219 258.031 159.403 257.742 156.887 257.742C154.354 257.742 153.521 258.031 153.521 258.847C153.521 259.663 154.354 259.952 156.887 259.952ZM152.586 250.789L152.637 251.809C152.654 252.149 152.79 252.268 153.13 252.268H154.575C154.915 252.268 155.051 252.149 155.068 251.809L155.119 250.789H152.586ZM151.073 258.847C151.073 256.62 152.977 255.532 156.887 255.532C160.78 255.532 162.684 256.62 162.684 258.847C162.684 261.074 160.78 262.162 156.887 262.162C152.977 262.162 151.073 261.074 151.073 258.847ZM155.493 254.478H152.212C150.954 254.478 150.257 253.866 150.206 252.744L149.951 247.593C149.934 247.253 150.155 247.049 150.512 247.049H151.855C152.246 247.049 152.416 247.185 152.433 247.542L152.484 248.579H155.221L155.272 247.542C155.289 247.202 155.459 247.049 155.85 247.049H157.193C157.567 247.049 157.771 247.253 157.754 247.593L157.499 252.744C157.448 253.866 156.751 254.478 155.493 254.478ZM159.845 247.321V247.219C159.845 246.862 160.049 246.658 160.406 246.658H161.749C162.106 246.658 162.31 246.862 162.31 247.219V254.359C162.31 254.716 162.106 254.92 161.749 254.92H160.406C160.049 254.92 159.845 254.716 159.845 254.359V253.288C159.675 253.543 159.369 253.662 158.944 253.662H158.57C158.23 253.662 158.043 253.475 158.043 253.135V251.979C158.043 251.639 158.23 251.452 158.57 251.452H159.182C159.709 251.452 159.845 251.214 159.845 250.772V249.837C159.675 250.092 159.369 250.211 158.944 250.211H158.57C158.23 250.211 158.043 250.024 158.043 249.684V248.528C158.043 248.188 158.23 248.001 158.57 248.001H159.182C159.76 248.001 159.845 247.797 159.845 247.321ZM165.976 259.493C166.894 259.493 167.438 260.088 167.438 261.057C167.438 262.4 166.367 263.403 164.939 263.403C164.803 263.403 164.718 263.318 164.718 263.182V262.808C164.718 262.672 164.786 262.587 164.922 262.57C165.296 262.519 165.517 262.451 165.636 262.281C164.956 262.145 164.531 261.618 164.531 260.904C164.531 260.037 165.092 259.493 165.976 259.493ZM177.736 247.559C180.507 247.559 181.731 249.429 181.731 253.73C181.731 258.031 180.49 259.918 177.736 259.918C174.982 259.918 173.758 258.031 173.758 253.73C173.758 249.429 174.982 247.559 177.736 247.559ZM176.189 253.73C176.189 256.535 176.631 257.623 177.736 257.623C178.858 257.623 179.3 256.552 179.3 253.73C179.3 250.925 178.858 249.854 177.736 249.854C176.631 249.854 176.189 250.925 176.189 253.73ZM183.669 247.219C183.669 246.862 183.873 246.658 184.23 246.658H185.573C185.93 246.658 186.134 246.862 186.134 247.219V261.329C186.134 261.686 185.93 261.89 185.573 261.89H184.23C183.873 261.89 183.669 261.686 183.669 261.329V247.219ZM194.967 259.952C197.381 259.952 198.146 259.663 198.146 258.847C198.146 258.031 197.381 257.742 194.967 257.742C192.553 257.742 191.788 258.031 191.788 258.847C191.788 259.663 192.553 259.952 194.967 259.952ZM194.967 255.532C198.758 255.532 200.611 256.62 200.611 258.847C200.611 261.074 198.758 262.162 194.967 262.162C191.176 262.162 189.323 261.074 189.323 258.847C189.323 256.62 191.176 255.532 194.967 255.532ZM192.298 252.064C191.822 253.407 190.377 254.478 188.677 254.478C188.303 254.478 188.116 254.274 188.116 253.951V252.676C188.116 252.353 188.303 252.183 188.677 252.183C190.054 252.183 191.04 250.908 191.04 249.361V247.661C191.04 247.27 191.244 247.049 191.601 247.049H192.961C193.301 247.049 193.505 247.27 193.505 247.661V249.361C193.505 250.908 194.491 252.183 195.868 252.183C196.225 252.183 196.395 252.353 196.395 252.676V253.951C196.395 254.291 196.225 254.478 195.868 254.478C194.202 254.478 192.757 253.39 192.298 252.064ZM200.237 254.359C200.237 254.716 200.033 254.92 199.676 254.92H198.333C197.976 254.92 197.772 254.716 197.772 254.359V247.219C197.772 246.862 197.976 246.658 198.333 246.658H199.676C200.033 246.658 200.237 246.862 200.237 247.219V249.854C200.424 249.565 200.815 249.378 201.291 249.378H201.835C202.175 249.378 202.362 249.565 202.362 249.905V251.146C202.362 251.486 202.175 251.673 201.835 251.673H201.223C200.645 251.673 200.237 252.064 200.237 252.608V254.359ZM210.873 247.729C211.23 247.729 211.434 247.933 211.434 248.29V249.463C211.434 249.82 211.23 250.024 210.873 250.024H208.629V253.934C208.629 255.685 209.666 257.096 210.992 257.283C211.349 257.334 211.519 257.504 211.519 257.827V259.102C211.519 259.442 211.349 259.629 210.992 259.578C209.292 259.34 207.864 258.286 207.422 256.807C206.963 258.286 205.518 259.34 203.801 259.578C203.444 259.629 203.24 259.442 203.24 259.102V257.827C203.24 257.504 203.427 257.334 203.801 257.283C205.127 257.096 206.164 255.685 206.164 253.934V250.024H203.886C203.529 250.024 203.325 249.82 203.325 249.463V248.29C203.325 247.933 203.529 247.729 203.886 247.729H210.873ZM213.236 247.219C213.236 246.862 213.44 246.658 213.797 246.658H215.14C215.497 246.658 215.701 246.862 215.701 247.219V261.329C215.701 261.686 215.497 261.89 215.14 261.89H213.797C213.44 261.89 213.236 261.686 213.236 261.329V247.219ZM229.685 259.391C228.444 259.391 227.577 259.34 224.466 259.34C221.967 259.34 221.525 259.442 221.525 259.799C221.525 260.173 222.052 260.241 225.401 260.241C226.795 260.241 228.92 260.139 230.042 259.935C230.314 259.884 230.501 260.02 230.518 260.292L230.603 261.397C230.62 261.635 230.467 261.805 230.212 261.839C228.988 262.009 226.812 262.145 225.418 262.145C220.505 262.145 219.06 261.567 219.06 259.765C219.06 257.98 220.726 257.436 224.432 257.436C225.367 257.436 226.438 257.419 227.186 257.419C227.628 257.419 227.815 257.3 227.815 257.062C227.815 256.807 227.645 256.688 227.22 256.688C225.605 256.688 221.848 256.807 219.842 256.977C219.57 256.994 219.4 256.841 219.4 256.569V255.464C219.4 255.209 219.536 255.073 219.842 255.056C222.409 254.869 225.928 254.767 228.563 254.852C229.651 254.886 230.263 255.362 230.263 256.178C230.263 256.841 229.889 257.368 229.277 257.589H229.685C229.94 257.589 230.127 257.742 230.127 257.98V258.983C230.127 259.221 229.957 259.391 229.685 259.391ZM225.316 247.049C225.673 247.049 225.877 247.253 225.877 247.61V248.698C225.877 249.055 225.673 249.259 225.316 249.259H223.072V249.378C223.072 250.857 224.007 251.758 225.435 251.758C225.792 251.758 225.962 251.928 225.962 252.251V253.441C225.962 253.781 225.792 253.968 225.435 253.968C223.735 253.968 222.324 253.203 221.865 251.724C221.389 253.203 219.978 253.968 218.244 253.968C217.87 253.968 217.683 253.764 217.683 253.441V252.251C217.683 251.928 217.87 251.758 218.244 251.758C219.672 251.758 220.607 250.857 220.607 249.378V249.259H218.329C217.972 249.259 217.768 249.055 217.768 248.698V247.61C217.768 247.253 217.972 247.049 218.329 247.049H225.316ZM227.679 247.219C227.679 246.862 227.883 246.658 228.24 246.658H229.583C229.94 246.658 230.144 246.862 230.144 247.219V253.509C230.144 253.866 229.94 254.07 229.583 254.07H228.24C227.883 254.07 227.679 253.866 227.679 253.509V247.219ZM236.173 252.693C237.125 252.693 237.533 252.54 237.533 252.132C237.533 251.724 237.125 251.571 236.173 251.571C235.221 251.571 234.813 251.724 234.813 252.132C234.813 252.54 235.221 252.693 236.173 252.693ZM238.91 259.476C236.411 259.476 235.969 259.544 235.969 259.901C235.969 260.275 236.496 260.309 239.845 260.309C241.511 260.309 243.534 260.173 244.486 260.003C244.758 259.952 244.945 260.088 244.962 260.36L245.047 261.397C245.064 261.635 244.911 261.805 244.656 261.839C243.449 261.992 241.273 262.145 239.862 262.145C234.915 262.145 233.504 261.652 233.504 259.867C233.504 258.201 234.898 257.64 238.876 257.64C239.811 257.64 240.882 257.623 241.63 257.623C242.089 257.623 242.259 257.538 242.259 257.3C242.259 257.045 242.106 256.96 241.664 256.96C239.624 256.96 236.054 257.13 234.286 257.249C234.014 257.266 233.844 257.113 233.844 256.841V255.804C233.844 255.549 233.98 255.413 234.286 255.396C237.057 255.243 240.542 255.124 243.007 255.192C244.146 255.226 244.707 255.634 244.707 256.416C244.707 257.079 244.333 257.589 243.738 257.793H244.129C244.384 257.793 244.571 257.946 244.571 258.184V259.119C244.571 259.357 244.401 259.527 244.129 259.527C242.888 259.527 241.936 259.476 238.91 259.476ZM232.382 252.132C232.382 250.551 233.606 249.803 236.173 249.803C238.74 249.803 239.964 250.551 239.964 252.132C239.964 253.713 238.74 254.461 236.173 254.461C233.606 254.461 232.382 253.713 232.382 252.132ZM239.93 247.219C240.253 247.219 240.406 247.372 240.406 247.712V248.698C240.406 249.038 240.253 249.191 239.93 249.191H232.348C232.025 249.191 231.872 249.038 231.872 248.698V247.712C231.872 247.372 232.025 247.219 232.348 247.219H235.221C235.051 247.117 234.966 246.964 234.966 246.726V246.437C234.966 246.08 235.136 245.91 235.493 245.91H236.904C237.261 245.91 237.431 246.08 237.431 246.437V246.845C237.431 247.066 237.584 247.219 237.89 247.219H239.93ZM242.123 248.12V247.219C242.123 246.862 242.327 246.658 242.684 246.658H244.027C244.384 246.658 244.588 246.862 244.588 247.219V253.849C244.588 254.206 244.384 254.41 244.027 254.41H242.684C242.327 254.41 242.123 254.206 242.123 253.849V253.305C241.987 253.526 241.732 253.611 241.341 253.611H241.069C240.729 253.611 240.576 253.458 240.576 253.118V252.081C240.576 251.741 240.729 251.588 241.069 251.588H241.579C241.953 251.588 242.123 251.418 242.123 251.061V250.296C241.97 250.517 241.732 250.619 241.341 250.619H241.069C240.729 250.619 240.576 250.466 240.576 250.126V249.089C240.576 248.749 240.729 248.596 241.069 248.596H241.579C242.004 248.596 242.123 248.494 242.123 248.12ZM247.845 259.204C247.845 257.096 249.528 256.246 253.659 256.246C257.79 256.246 259.473 257.096 259.473 259.204C259.473 261.312 257.79 262.162 253.659 262.162C249.528 262.162 247.845 261.312 247.845 259.204ZM248.899 247.032H258.3C258.657 247.032 258.844 247.219 258.844 247.576V248.613C258.844 248.97 258.657 249.157 258.3 249.157H254.985C255.359 249.956 256.583 250.5 258.538 250.5C258.912 250.5 259.099 250.67 259.099 250.993V252.098C259.099 252.421 258.912 252.608 258.538 252.625C256.311 252.727 254.322 251.758 253.608 250.432C252.877 251.758 250.888 252.727 248.661 252.625C248.287 252.608 248.1 252.421 248.1 252.098V250.993C248.1 250.67 248.287 250.5 248.661 250.5C250.616 250.5 251.857 249.956 252.248 249.157H248.899C248.542 249.157 248.355 248.97 248.355 248.613V247.576C248.355 247.219 248.542 247.032 248.899 247.032ZM253.506 253.543C256.158 253.543 258.572 253.509 259.626 253.407C259.983 253.373 260.204 253.56 260.204 253.917V254.92C260.204 255.226 260.034 255.43 259.643 255.464C258.589 255.566 256.175 255.6 253.523 255.6C251.143 255.6 248.899 255.583 247.42 255.464C247.029 255.43 246.859 255.243 246.859 254.92V253.917C246.859 253.56 247.063 253.373 247.42 253.407C248.882 253.526 251.126 253.543 253.506 253.543ZM250.31 259.204C250.31 259.935 250.973 260.122 253.659 260.122C256.345 260.122 257.008 259.935 257.008 259.204C257.008 258.473 256.345 258.286 253.659 258.286C250.973 258.286 250.31 258.473 250.31 259.204ZM73.3456 279.376C73.3456 282.062 74.0596 284.306 75.8446 287.23C76.0316 287.519 75.8446 287.774 75.4536 287.774H74.1106C73.7366 287.774 73.5496 287.672 73.3456 287.383C71.6966 285.037 70.8806 282.402 70.8806 279.376C70.8806 276.35 71.6966 273.715 73.3456 271.369C73.5496 271.08 73.7366 270.978 74.1106 270.978H75.4536C75.8446 270.978 76.0316 271.233 75.8446 271.522C74.0936 274.242 73.3456 276.571 73.3456 279.376ZM87.4139 280.855C87.0739 280.804 86.9549 280.685 87.0229 280.345C87.2439 279.223 87.3119 277.88 87.3119 276.877C87.3119 275.568 86.6149 274.854 85.3229 274.854C83.7249 274.854 81.8889 275.024 79.6109 275.143C79.2879 275.16 79.0669 274.973 79.0669 274.667V273.341C79.0669 273.069 79.2709 272.865 79.6109 272.831C81.9909 272.593 84.1159 272.542 85.8839 272.542C88.3999 272.542 89.7599 273.885 89.7599 276.384C89.7599 277.931 89.6579 279.427 89.4029 280.685C89.3349 281.025 89.1649 281.11 88.8249 281.059L87.4139 280.855ZM78.2169 285.275C77.8259 285.224 77.6559 285.054 77.6559 284.731V283.473C77.6559 283.116 77.8599 282.929 78.2169 282.963C79.4579 283.082 81.1409 283.218 82.6709 283.252C82.3649 283.116 82.1609 282.793 82.1609 282.368V279.24C82.1609 278.883 82.3649 278.679 82.7219 278.679H84.0819C84.4389 278.679 84.6259 278.883 84.6259 279.24V282.504C84.6259 282.963 84.8639 283.201 85.3569 283.218C86.5299 283.252 89.0969 283.133 90.4229 282.963C90.7799 282.912 91.0009 283.116 91.0009 283.473V284.731C91.0009 285.037 90.8309 285.207 90.4399 285.275C89.3859 285.462 86.9719 285.564 84.3199 285.564C81.9399 285.564 79.6959 285.479 78.2169 285.275ZM100.124 272.729C100.481 272.729 100.685 272.933 100.685 273.29V274.463C100.685 274.82 100.481 275.024 100.124 275.024H97.8799V278.934C97.8799 280.685 98.9169 282.096 100.243 282.283C100.6 282.334 100.77 282.504 100.77 282.827V284.102C100.77 284.442 100.6 284.629 100.243 284.578C98.5429 284.34 97.1149 283.286 96.6729 281.807C96.2139 283.286 94.7689 284.34 93.0519 284.578C92.6949 284.629 92.4909 284.442 92.4909 284.102V282.827C92.4909 282.504 92.6779 282.334 93.0519 282.283C94.3779 282.096 95.4149 280.685 95.4149 278.934V275.024H93.1369C92.7799 275.024 92.5759 274.82 92.5759 274.463V273.29C92.5759 272.933 92.7799 272.729 93.1369 272.729H100.124ZM102.487 272.219C102.487 271.862 102.691 271.658 103.048 271.658H104.391C104.748 271.658 104.952 271.862 104.952 272.219V286.329C104.952 286.686 104.748 286.89 104.391 286.89H103.048C102.691 286.89 102.487 286.686 102.487 286.329V272.219ZM110.98 277.693C111.932 277.693 112.34 277.54 112.34 277.132C112.34 276.724 111.932 276.571 110.98 276.571C110.028 276.571 109.62 276.724 109.62 277.132C109.62 277.54 110.028 277.693 110.98 277.693ZM113.717 284.476C111.218 284.476 110.776 284.544 110.776 284.901C110.776 285.275 111.303 285.309 114.652 285.309C116.318 285.309 118.341 285.173 119.293 285.003C119.565 284.952 119.752 285.088 119.769 285.36L119.854 286.397C119.871 286.635 119.718 286.805 119.463 286.839C118.256 286.992 116.08 287.145 114.669 287.145C109.722 287.145 108.311 286.652 108.311 284.867C108.311 283.201 109.705 282.64 113.683 282.64C114.618 282.64 115.689 282.623 116.437 282.623C116.896 282.623 117.066 282.538 117.066 282.3C117.066 282.045 116.913 281.96 116.471 281.96C114.431 281.96 110.861 282.13 109.093 282.249C108.821 282.266 108.651 282.113 108.651 281.841V280.804C108.651 280.549 108.787 280.413 109.093 280.396C111.864 280.243 115.349 280.124 117.814 280.192C118.953 280.226 119.514 280.634 119.514 281.416C119.514 282.079 119.14 282.589 118.545 282.793H118.936C119.191 282.793 119.378 282.946 119.378 283.184V284.119C119.378 284.357 119.208 284.527 118.936 284.527C117.695 284.527 116.743 284.476 113.717 284.476ZM107.189 277.132C107.189 275.551 108.413 274.803 110.98 274.803C113.547 274.803 114.771 275.551 114.771 277.132C114.771 278.713 113.547 279.461 110.98 279.461C108.413 279.461 107.189 278.713 107.189 277.132ZM114.737 272.219C115.06 272.219 115.213 272.372 115.213 272.712V273.698C115.213 274.038 115.06 274.191 114.737 274.191H107.155C106.832 274.191 106.679 274.038 106.679 273.698V272.712C106.679 272.372 106.832 272.219 107.155 272.219H110.028C109.858 272.117 109.773 271.964 109.773 271.726V271.437C109.773 271.08 109.943 270.91 110.3 270.91H111.711C112.068 270.91 112.238 271.08 112.238 271.437V271.845C112.238 272.066 112.391 272.219 112.697 272.219H114.737ZM116.93 273.12V272.219C116.93 271.862 117.134 271.658 117.491 271.658H118.834C119.191 271.658 119.395 271.862 119.395 272.219V278.849C119.395 279.206 119.191 279.41 118.834 279.41H117.491C117.134 279.41 116.93 279.206 116.93 278.849V278.305C116.794 278.526 116.539 278.611 116.148 278.611H115.876C115.536 278.611 115.383 278.458 115.383 278.118V277.081C115.383 276.741 115.536 276.588 115.876 276.588H116.386C116.76 276.588 116.93 276.418 116.93 276.061V275.296C116.777 275.517 116.539 275.619 116.148 275.619H115.876C115.536 275.619 115.383 275.466 115.383 275.126V274.089C115.383 273.749 115.536 273.596 115.876 273.596H116.386C116.811 273.596 116.93 273.494 116.93 273.12ZM122.653 284.204C122.653 282.096 124.336 281.246 128.467 281.246C132.598 281.246 134.281 282.096 134.281 284.204C134.281 286.312 132.598 287.162 128.467 287.162C124.336 287.162 122.653 286.312 122.653 284.204ZM123.707 272.032H133.108C133.465 272.032 133.652 272.219 133.652 272.576V273.613C133.652 273.97 133.465 274.157 133.108 274.157H129.793C130.167 274.956 131.391 275.5 133.346 275.5C133.72 275.5 133.907 275.67 133.907 275.993V277.098C133.907 277.421 133.72 277.608 133.346 277.625C131.119 277.727 129.13 276.758 128.416 275.432C127.685 276.758 125.696 277.727 123.469 277.625C123.095 277.608 122.908 277.421 122.908 277.098V275.993C122.908 275.67 123.095 275.5 123.469 275.5C125.424 275.5 126.665 274.956 127.056 274.157H123.707C123.35 274.157 123.163 273.97 123.163 273.613V272.576C123.163 272.219 123.35 272.032 123.707 272.032ZM128.314 278.543C130.966 278.543 133.38 278.509 134.434 278.407C134.791 278.373 135.012 278.56 135.012 278.917V279.92C135.012 280.226 134.842 280.43 134.451 280.464C133.397 280.566 130.983 280.6 128.331 280.6C125.951 280.6 123.707 280.583 122.228 280.464C121.837 280.43 121.667 280.243 121.667 279.92V278.917C121.667 278.56 121.871 278.373 122.228 278.407C123.69 278.526 125.934 278.543 128.314 278.543ZM125.118 284.204C125.118 284.935 125.781 285.122 128.467 285.122C131.153 285.122 131.816 284.935 131.816 284.204C131.816 283.473 131.153 283.286 128.467 283.286C125.781 283.286 125.118 283.473 125.118 284.204ZM139.307 279.376C139.307 276.571 138.559 274.242 136.808 271.522C136.621 271.233 136.808 270.978 137.199 270.978H138.542C138.916 270.978 139.103 271.08 139.307 271.369C140.956 273.715 141.772 276.35 141.772 279.376C141.772 282.402 140.956 285.037 139.307 287.383C139.103 287.672 138.916 287.774 138.542 287.774H137.199C136.808 287.774 136.621 287.519 136.808 287.23C138.576 284.493 139.307 282.198 139.307 279.376ZM156.865 282.861V285.734C156.865 286.091 156.678 286.295 156.321 286.295H154.961C154.604 286.295 154.4 286.091 154.4 285.734V282.98C154.4 282.623 154.604 282.3 154.91 282.164C152.802 282.147 150.847 282.062 149.521 281.875C149.13 281.824 148.96 281.654 148.96 281.331V280.073C148.96 279.716 149.164 279.512 149.521 279.563C150.405 279.682 151.561 279.75 152.87 279.801C152.87 279.75 152.87 279.699 152.887 279.631C153.108 278.509 153.346 277.132 153.346 275.789C153.346 274.82 153.006 274.361 152.224 274.361C151.833 274.361 151.34 274.463 150.745 274.65C150.677 274.667 150.592 274.684 150.541 274.684C150.337 274.684 150.201 274.565 150.201 274.327V272.933C150.201 272.61 150.337 272.406 150.643 272.321C151.34 272.134 152.037 272.032 152.7 272.032C153.924 272.032 154.808 272.457 155.301 273.273V272.933C155.301 272.61 155.437 272.406 155.743 272.321C156.44 272.134 157.307 272.032 157.97 272.032C160.078 272.032 161.234 273.205 161.234 275.347C161.234 276.86 161.03 278.339 160.758 279.682C161.149 279.648 161.472 279.597 161.727 279.563C162.084 279.495 162.305 279.716 162.305 280.073V281.331C162.305 281.637 162.135 281.807 161.744 281.875C160.928 282.011 159.33 282.147 157.596 282.147C157.103 282.147 156.865 282.402 156.865 282.861ZM158.786 275.789C158.786 274.82 158.361 274.361 157.494 274.361C157.103 274.361 156.44 274.463 155.845 274.65C155.811 274.667 155.777 274.667 155.76 274.667C155.777 274.888 155.794 275.109 155.794 275.347C155.794 276.928 155.573 278.475 155.267 279.852C156.287 279.852 157.29 279.835 158.31 279.801C158.31 279.75 158.31 279.699 158.327 279.631C158.548 278.509 158.786 277.132 158.786 275.789ZM175.525 272.032C175.882 272.032 176.069 272.219 176.069 272.576V273.613C176.069 273.97 175.882 274.157 175.525 274.157H172.142C172.414 275.364 173.638 276.163 175.763 276.163C176.137 276.163 176.324 276.333 176.324 276.656V277.761C176.324 278.084 176.137 278.271 175.763 278.288C173.468 278.39 171.547 277.387 170.833 275.925C170.102 277.387 168.181 278.39 165.886 278.288C165.512 278.271 165.325 278.084 165.325 277.761V276.656C165.325 276.333 165.512 276.163 165.886 276.163C168.011 276.163 169.252 275.364 169.541 274.157H166.124C165.767 274.157 165.58 273.97 165.58 273.613V272.576C165.58 272.219 165.767 272.032 166.124 272.032H175.525ZM173.026 281.28C172.533 281.28 172.329 281.518 172.329 281.909V283.303C172.329 283.66 172.142 283.864 171.785 283.864H170.425C170.068 283.864 169.864 283.66 169.864 283.303V281.994C169.864 281.654 170.034 281.399 170.306 281.28C168.011 281.28 166.005 281.246 164.645 281.144C164.254 281.11 164.084 280.923 164.084 280.6V279.597C164.084 279.24 164.288 279.053 164.645 279.087C166.107 279.206 168.351 279.223 170.731 279.223C173.383 279.223 175.797 279.189 176.851 279.087C177.208 279.053 177.429 279.24 177.429 279.597V280.6C177.429 280.906 177.259 281.11 176.868 281.144C176.035 281.229 174.335 281.28 173.026 281.28ZM176.273 286.839C174.131 287.043 171.377 287.145 168.708 287.145C166.481 287.145 165.24 286.023 165.24 284.017C165.24 283.439 165.291 283.133 165.342 282.81C165.41 282.419 165.58 282.249 165.903 282.249H167.246C167.637 282.249 167.858 282.47 167.807 282.81C167.773 283.048 167.705 283.422 167.705 283.711C167.705 284.476 168.164 284.85 168.997 284.85C171.564 284.85 174.301 284.731 176.12 284.544C176.443 284.51 176.681 284.714 176.698 285.071L176.783 286.278C176.8 286.601 176.63 286.805 176.273 286.839ZM181.605 280.447C181.605 281.637 182.132 282.317 183.05 282.317C183.968 282.317 184.495 281.637 184.495 280.447C184.495 279.257 183.968 278.577 183.05 278.577C182.132 278.577 181.605 279.257 181.605 280.447ZM183.05 276.316C185.498 276.316 186.926 277.846 186.926 280.447C186.926 283.048 185.498 284.578 183.05 284.578C180.602 284.578 179.174 283.048 179.174 280.447C179.174 277.846 180.602 276.316 183.05 276.316ZM188.915 272.219C188.915 271.862 189.119 271.658 189.476 271.658H190.819C191.176 271.658 191.38 271.862 191.38 272.219V286.329C191.38 286.686 191.176 286.89 190.819 286.89H189.476C189.119 286.89 188.915 286.686 188.915 286.329V272.219ZM184.308 271.777V272.695C184.308 272.916 184.461 273.069 184.767 273.069H186.892C187.249 273.069 187.453 273.273 187.453 273.63V274.803C187.453 275.16 187.249 275.364 186.892 275.364H179.225C178.868 275.364 178.664 275.16 178.664 274.803V273.63C178.664 273.273 178.868 273.069 179.225 273.069H182.098C181.928 272.967 181.843 272.814 181.843 272.576V271.777C181.843 271.42 182.013 271.25 182.37 271.25H183.781C184.138 271.25 184.308 271.42 184.308 271.777ZM203.516 272.695C203.516 272.916 203.669 273.069 203.975 273.069H205.76C206.117 273.069 206.321 273.273 206.321 273.63V274.803C206.321 275.16 206.117 275.364 205.76 275.364H203.516V278.934C203.516 280.685 204.553 282.096 205.879 282.283C206.236 282.334 206.406 282.504 206.406 282.827V284.102C206.406 284.442 206.236 284.629 205.879 284.578C204.179 284.34 202.751 283.286 202.309 281.807C201.85 283.286 200.405 284.34 198.688 284.578C198.331 284.629 198.127 284.442 198.127 284.102V282.827C198.127 282.504 198.314 282.334 198.688 282.283C200.014 282.096 201.051 280.685 201.051 278.934V275.364H198.773C198.416 275.364 198.212 275.16 198.212 274.803V273.63C198.212 273.273 198.416 273.069 198.773 273.069H201.306C201.136 272.967 201.051 272.814 201.051 272.576V271.777C201.051 271.42 201.221 271.25 201.578 271.25H202.989C203.346 271.25 203.516 271.42 203.516 271.777V272.695ZM208.123 272.219C208.123 271.862 208.327 271.658 208.684 271.658H210.027C210.384 271.658 210.588 271.862 210.588 272.219V286.329C210.588 286.686 210.384 286.89 210.027 286.89H208.684C208.327 286.89 208.123 286.686 208.123 286.329V272.219ZM220.934 281.28C220.73 281.297 220.543 281.297 220.373 281.297C219.523 281.297 218.775 281.28 218.129 281.229V282.64C218.129 283.065 218.299 283.235 218.741 283.252C219.421 283.269 220.441 283.252 221.291 283.235C221.053 283.15 220.934 282.946 220.934 282.589V281.28ZM224.385 277.914C223.144 277.914 222.532 277.863 219.421 277.863C216.922 277.863 216.735 278.016 216.735 278.475C216.735 278.934 217.007 279.019 220.356 279.019C221.75 279.019 223.535 278.9 224.657 278.679C224.929 278.628 225.116 278.764 225.167 279.104L225.388 280.362C225.439 280.651 225.252 280.855 224.997 280.906C224.555 280.974 223.994 281.059 223.399 281.11V282.504C223.399 282.929 223.569 283.116 224.011 283.116C224.572 283.116 225.167 283.031 225.626 282.963C225.983 282.912 226.204 283.116 226.204 283.473V284.731C226.204 285.037 226.034 285.207 225.643 285.275C224.589 285.462 222.175 285.564 219.523 285.564C217.143 285.564 214.899 285.479 213.42 285.275C213.029 285.224 212.859 285.054 212.859 284.731V283.473C212.859 283.116 213.063 282.929 213.42 282.963C214.168 283.031 214.882 283.116 215.936 283.167C215.766 283.065 215.664 282.861 215.664 282.555V280.787C214.61 280.362 214.27 279.631 214.27 278.424C214.27 276.197 215.681 275.602 219.387 275.602H221.886C222.328 275.602 222.515 275.432 222.515 275.126C222.515 274.803 222.345 274.684 221.92 274.684C220.305 274.684 217.058 274.769 215.052 274.973C214.78 275.007 214.61 274.803 214.61 274.463V273.205C214.61 272.899 214.746 272.729 215.052 272.695C217.024 272.525 219.251 272.406 221.376 272.406C222.022 272.406 222.651 272.423 223.263 272.44C224.351 272.491 224.963 273.069 224.963 274.089C224.963 274.922 224.589 275.534 223.96 275.806H224.385C224.64 275.806 224.827 275.993 224.827 276.282V277.404C224.827 277.71 224.657 277.914 224.385 277.914ZM231.825 282.317C232.743 282.317 233.27 281.637 233.27 280.447C233.27 279.257 232.743 278.577 231.825 278.577C230.907 278.577 230.38 279.257 230.38 280.447C230.38 281.637 230.907 282.317 231.825 282.317ZM231.825 276.316C234.273 276.316 235.701 277.846 235.701 280.447C235.701 283.048 234.273 284.578 231.825 284.578C229.377 284.578 227.949 283.048 227.949 280.447C227.949 277.846 229.377 276.316 231.825 276.316ZM239.815 286.329C239.815 286.686 239.611 286.89 239.254 286.89H237.911C237.554 286.89 237.35 286.686 237.35 286.329V272.219C237.35 271.862 237.554 271.658 237.911 271.658H239.254C239.611 271.658 239.815 271.862 239.815 272.219V277.914C240.002 277.625 240.393 277.438 240.869 277.438H241.413C241.753 277.438 241.94 277.625 241.94 277.965V279.291C241.94 279.631 241.753 279.818 241.413 279.818H240.801C240.223 279.818 239.815 280.209 239.815 280.753V286.329ZM233.083 272.695C233.083 272.916 233.236 273.069 233.542 273.069H235.667C236.024 273.069 236.228 273.273 236.228 273.63V274.803C236.228 275.16 236.024 275.364 235.667 275.364H228C227.643 275.364 227.439 275.16 227.439 274.803V273.63C227.439 273.273 227.643 273.069 228 273.069H230.873C230.703 272.967 230.618 272.814 230.618 272.576V271.777C230.618 271.42 230.788 271.25 231.145 271.25H232.556C232.913 271.25 233.083 271.42 233.083 271.777V272.695ZM247.799 284.017C248.224 281.229 248.411 279.07 248.411 276.758C248.411 275.483 248.071 275.024 247.102 275.024C245.606 275.024 244.722 275.211 243.6 275.33C243.277 275.364 243.073 275.16 243.073 274.803V273.562C243.073 273.239 243.226 273.086 243.6 273.035C245.317 272.797 246.269 272.729 247.476 272.729C249.89 272.729 250.893 273.817 250.893 276.469C250.893 279.189 250.723 281.535 250.264 284.085C250.196 284.459 250.043 284.578 249.686 284.578H248.326C247.952 284.578 247.748 284.357 247.799 284.017ZM252.814 272.219C252.814 271.862 253.018 271.658 253.375 271.658H254.718C255.075 271.658 255.279 271.862 255.279 272.219V286.329C255.279 286.686 255.075 286.89 254.718 286.89H253.375C253.018 286.89 252.814 286.686 252.814 286.329V272.219Z" fill="white"/>
<path d="M31.493 44.2C25.393 44.2 22.443 45.9 22.443 49.4C22.443 52.95 25.493 54.75 31.493 54.75C37.493 54.75 40.543 52.95 40.543 49.4C40.543 45.9 37.593 44.2 31.493 44.2ZM31.493 28.05C26.643 28.05 23.893 29.75 23.893 32.8C23.893 35.75 26.643 37.45 31.493 37.45C36.343 37.45 39.093 35.75 39.093 32.8C39.093 29.75 36.343 28.05 31.493 28.05ZM31.493 61.55C20.993 61.55 15.293 57.45 15.293 49.9C15.293 45.3 18.093 41.55 22.243 40.3C18.943 39.05 16.743 35.7 16.743 31.45C16.743 25.3 22.593 21.25 31.493 21.25C40.393 21.25 46.243 25.3 46.243 31.45C46.243 35.7 44.043 39.05 40.743 40.3C44.893 41.55 47.693 45.3 47.693 49.9C47.693 57.45 41.993 61.55 31.493 61.55Z" fill="white"/>
<path d="M191.164 67.4391C200.674 67.4391 208.383 59.7297 208.383 50.2196C208.383 40.7095 200.674 33 191.164 33C181.654 33 173.944 40.7095 173.944 50.2196C173.944 59.7297 181.654 67.4391 191.164 67.4391Z" fill="#513F3B"/>
<path d="M228.881 84.1751C228.881 84.5966 228.866 85.0337 228.866 85.4552C228.195 105.688 211.568 121.877 191.179 121.877C170.354 121.877 153.478 104.985 153.478 84.1751C153.478 83.5662 153.493 82.9574 153.524 82.3641C154.461 62.3813 170.978 46.4731 191.195 46.4731C211.99 46.4731 228.881 63.3492 228.881 84.1751Z" fill="#513F3B"/>
<path d="M254.719 178.75L254.251 224.539L153.151 225.101L123.754 207.912V176.611C123.754 160.594 135.681 147.371 151.137 145.372C152.479 145.169 153.869 145.091 155.258 145.091H227.056C238.015 145.076 255.64 157.534 254.719 178.75Z" fill="#EDF7F9"/>
<path d="M206.323 123.454V145.091L191.257 184.698L176.005 145.091V123.454H206.323Z" fill="#FFD8D9"/>
<path d="M206.338 123.454V137.847C203.372 138.753 200.218 139.253 196.971 139.253C188.947 139.253 181.609 136.255 176.021 131.337V123.454H206.338Z" fill="#EAC1C5"/>
<path d="M162.017 110.418C167.734 110.418 172.368 105.784 172.368 100.068C172.368 94.3514 167.734 89.7173 162.017 89.7173C156.301 89.7173 151.667 94.3514 151.667 100.068C151.667 105.784 156.301 110.418 162.017 110.418Z" fill="#EAC1C5"/>
<path d="M220.31 110.418C226.027 110.418 230.661 105.784 230.661 100.068C230.661 94.3514 226.027 89.7173 220.31 89.7173C214.594 89.7173 209.96 94.3514 209.96 100.068C209.96 105.784 214.594 110.418 220.31 110.418Z" fill="#EAC1C5"/>
<path d="M222.824 83.5035V101.8C222.824 119.285 208.649 133.461 191.164 133.461C173.679 133.461 159.488 119.285 159.488 101.8V83.5035C159.488 82.1609 159.566 80.8495 159.754 79.5382C161.689 63.9266 175.022 51.8433 191.164 51.8433C199.907 51.8433 207.822 55.3871 213.551 61.1165C219.281 66.846 222.824 74.7767 222.824 83.5035Z" fill="#FFD8D9"/>
<path d="M181.219 98.2874C182.84 98.2874 184.154 96.5679 184.154 94.4469C184.154 92.3259 182.84 90.6064 181.219 90.6064C179.598 90.6064 178.284 92.3259 178.284 94.4469C178.284 96.5679 179.598 98.2874 181.219 98.2874Z" fill="#352F2C"/>
<path d="M200.906 98.2874C202.527 98.2874 203.841 96.5679 203.841 94.4469C203.841 92.3259 202.527 90.6064 200.906 90.6064C199.285 90.6064 197.971 92.3259 197.971 94.4469C197.971 96.5679 199.285 98.2874 200.906 98.2874Z" fill="#352F2C"/>
<path d="M175.771 88.0619C175.209 88.0619 174.678 87.7809 174.366 87.2657C173.929 86.5007 174.179 85.5172 174.944 85.0645C175.1 84.9708 178.893 82.7852 184.404 83.6438C185.278 83.7843 185.887 84.5961 185.747 85.486C185.606 86.3602 184.779 86.969 183.905 86.8285C179.58 86.1728 176.583 87.8277 176.551 87.8433C176.317 87.9838 176.036 88.0619 175.771 88.0619Z" fill="#513F3B"/>
<path d="M206.572 88.0619C207.134 88.0619 207.665 87.7809 207.977 87.2657C208.414 86.5007 208.165 85.5172 207.4 85.0645C207.243 84.9708 203.45 82.7852 197.939 83.6438C197.065 83.7843 196.456 84.5961 196.596 85.486C196.737 86.3602 197.564 86.969 198.439 86.8285C202.763 86.1728 205.76 87.8277 205.792 87.8433C206.026 87.9838 206.307 88.0619 206.572 88.0619Z" fill="#513F3B"/>
<path d="M195.411 103.564C195.411 105.906 193.506 106.218 191.164 106.218C188.823 106.218 186.918 105.906 186.918 103.564C186.918 101.223 188.823 93.9165 191.164 93.9165C193.506 93.9165 195.411 101.207 195.411 103.564Z" fill="#EAC1C5"/>
<path d="M228.88 84.1751C228.88 84.5966 228.865 85.0337 228.865 85.4552C223.229 84.4717 217.265 82.3797 211.489 79.1325C206.884 76.5566 202.856 73.4968 199.484 70.2183C194.238 74.9174 187.057 78.8671 178.705 81.2245C169.666 83.7691 160.798 84.0189 153.523 82.3485C154.46 62.3657 170.977 46.4575 191.194 46.4575C211.989 46.4731 228.88 63.3492 228.88 84.1751Z" fill="#513F3B"/>
<path d="M184.014 113.024C185.762 114.133 188.322 114.835 191.179 114.835C194.036 114.835 196.597 114.133 198.345 113.024" stroke="#D1867C" stroke-width="2.07462" stroke-miterlimit="10" stroke-linecap="round" stroke-linejoin="round"/>
<path d="M181.217 158.605H201.184L191.255 184.692L181.217 158.605Z" fill="#6A9BEA"/>
<path d="M176.006 145.092V136.974L151.152 145.373L166.904 165.371L160.254 171.772L191.258 198.171V184.698L176.006 145.092Z" fill="#E2F0F2"/>
<path d="M206.323 145.092V136.974L231.176 145.373L215.424 165.371L222.075 171.772L191.07 198.171V184.698L206.323 145.092Z" fill="#E2F0F2"/>
<path d="M203.167 221.192H153.304C150.306 221.192 147.871 218.756 147.871 215.759V181.928C147.871 178.931 150.306 176.496 153.304 176.496H203.167C206.165 176.496 208.6 178.931 208.6 181.928V215.759C208.6 218.756 206.165 221.192 203.167 221.192Z" fill="#B78F6E"/>
<path d="M199.623 221.192H149.76C146.763 221.192 144.327 218.756 144.327 215.759V181.928C144.327 178.931 146.763 176.496 149.76 176.496H199.623C202.621 176.496 205.056 178.931 205.056 181.928V215.759C205.056 218.756 202.621 221.192 199.623 221.192Z" fill="#CEA784"/>
<path d="M224.961 221.473C224.961 219.553 223.4 217.992 221.48 217.992C223.4 217.992 224.961 216.431 224.961 214.51C224.961 212.59 223.4 211.029 221.48 211.029C223.4 211.029 224.961 209.468 224.961 207.548C224.961 205.705 223.541 204.222 221.73 204.097C223.634 203.957 225.133 202.302 224.946 200.304C224.774 198.493 223.15 197.166 221.339 197.166H216.968C218.998 197.166 220.621 195.417 220.418 193.357C220.247 191.546 218.623 190.219 216.812 190.219H209.771C203.776 190.219 198.047 192.732 193.988 197.166H140.393C133.368 197.166 127.67 202.864 127.67 209.889C127.67 216.915 133.368 222.613 140.393 222.613H193.988L205.025 224.08C207.367 224.392 218.092 224.939 218.092 224.939H219.232H221.48C223.4 224.955 224.961 223.393 224.961 221.473Z" fill="#FFD8D9"/>
<path d="M123.752 209.905C123.752 201.6 130.496 194.855 138.802 194.855H188.571V224.955H138.802C130.496 224.955 123.752 218.21 123.752 209.905Z" fill="#EDF7F9"/>
<path d="M216.954 197.181H207.228" stroke="#EAC1C5" stroke-width="1.03723" stroke-miterlimit="10"/>
<path d="M187.433 90.7476L187.106 95.9931C186.981 98.0694 185.81 100.036 183.905 100.895C183.171 101.223 182.375 101.41 181.548 101.41H177.114C173.945 101.41 171.369 98.8343 171.369 95.6652V90.7476" stroke="#8C8C8C" stroke-width="2.07462" stroke-miterlimit="10" stroke-linecap="round" stroke-linejoin="round"/>
<path d="M194.911 90.7476L195.239 95.9931C195.364 98.0694 196.535 100.036 198.439 100.895C199.173 101.223 199.969 101.41 200.797 101.41H205.23C208.4 101.41 210.975 98.8343 210.975 95.6652V90.7476" stroke="#8C8C8C" stroke-width="2.07462" stroke-miterlimit="10" stroke-linecap="round" stroke-linejoin="round"/>
<path d="M187.261 93.5103H195.082" stroke="#8C8C8C" stroke-width="2.07462" stroke-miterlimit="10" stroke-linecap="round" stroke-linejoin="round"/>
<path d="M106.783 122.533C126.752 122.533 142.94 106.345 142.94 86.3761C142.94 66.4075 126.752 50.2197 106.783 50.2197C86.8147 50.2197 70.627 66.4075 70.627 86.3761C70.627 106.345 86.8147 122.533 106.783 122.533Z" fill="#EDF7F9"/>
<path d="M146.484 130.837L117.041 115.913V101.41H131.56L146.484 130.837Z" fill="#EDF7F9"/>
<path d="M111.186 64.7539H102.381V92.121H111.186V64.7539Z" fill="#E5939F"/>
<path d="M111.186 97.9443H102.381V106.749H111.186V97.9443Z" fill="#E5939F"/>
</svg>
