<?xml version="1.0" encoding="UTF-8"?>
<svg id="_레이어_1" data-name="레이어_1" xmlns="http://www.w3.org/2000/svg" version="1.1" viewBox="0 0 258 311">
  <!-- Generator: Adobe Illustrator 29.0.1, SVG Export Plug-In . SVG Version: 2.1.0 Build 192)  -->
  <defs>
    <style>
      .st0 {
        fill: #af8a76;
      }

      .st1 {
        fill: #606060;
        isolation: isolate;
        opacity: .1;
      }

      .st2 {
        fill: #4b80d4;
      }

      .st3 {
        fill: #ccd1d1;
      }

      .st4 {
        fill: none;
        stroke: #232020;
        stroke-linecap: round;
        stroke-linejoin: round;
        stroke-width: 1.1px;
      }

      .st5 {
        fill: #dbdbdb;
      }

      .st6 {
        fill: #9fa4a4;
      }

      .st7 {
        fill: #ffe0dc;
      }

      .st8 {
        fill: #3b64b5;
      }

      .st9 {
        fill: #fff;
      }

      .st10 {
        fill: #a4a2a2;
      }

      .st11 {
        fill: #7a7c7d;
      }

      .st12 {
        fill: #efb2af;
      }

      .st13 {
        fill: #9ca0a6;
      }
    </style>
  </defs>
  <path class="st1" d="M129.1,311c71.1,0,128.8-5.8,128.8-13s-57.7-13-128.8-13S.3,290.8.3,298s57.7,13,128.8,13Z"/>
  <path class="st2" d="M174.2,67.7l2-12c1.1-6.2,4.1-9.2,4.1-9.2l-.3,2.7c12.2-2,17.5-8.8,17.5-8.8-.3-.6-.6-1-.8-1.6.1,0,2.7,0,5.9,4.4,0,0,13.6,12.4,13,60.9v14.6l1,14s-1.7.8-4.8,1.8c-7.1,2.3-21.2,5.4-37.8.4l-4.1-1,1.8-25.5c.4-.4.8-.7,1.3-1.1l7.4-7.4c-7.1-2.1-11.6-7.4-13.7-10.6-1-1.4-1.4-2.4-1.4-2.4l8.1-17.7c.3-.4.6-1.1.8-1.7Z"/>
  <path class="st13" d="M212,134.5c-.3,7.8-2.1,21.2-2.1,21.2l-4.9,36.3-1,74.1c-1,.8-2.1,1.4-3.3,2-6.9,3.1-15.1,1.7-18.8.8-1.3-.3-2-.6-2-.6v-4.4c-.1,0-2.5-73.7-2.5-73.7l-3.1-53.2v-2.1c16.5,4.8,30.7,1.8,37.8-.6Z"/>
  <path class="st9" d="M208.7,281.2v.3c0,1.7-1,3.1-2.4,4l-21.2,12.4c-4.4,3.4-10.6,3.3-10.6,3.3h-11.3c-2.7,0-2.5-4-2.5-4,.1,1,1,1.8,2.1,1.8h11.6c0-.1,3.5.1,8.8-2.7l25.6-15.1Z"/>
  <path class="st3" d="M180.3,276.6c.6.1,1.4.4,2,1.1l-2.4,6.5s4.1,1.8,16.3-7.5l6.1-5.2.6-.6c4,5.7,5.8,10.2,5.8,10.2l-25.7,15.1c-5.2,2.8-8.8,2.5-8.8,2.5h-11.6c-1,.1-2-.6-2.1-1.7v-.8c-.1-.1-.1-1,.3-2.1.8-1.8,3-4.4,8.5-6.4,0,0,4.9-2.1,8.3-8.3.4-.7.8-1.6,1.3-2.5.1-.1.7-.3,1.6-.3Z"/>
  <path class="st10" d="M179,6.9c-2.7.7-5.1,3.1-6.4,4.8,0,0-2.7-4.9,5.1-7.8l4.1-1s4.4-4.1,12.6-.3c0,0,13.3,6.5,12.4,20.5,0,0-.8,7.6-9.6,9.9h0c.1-.1.1-.3.1-.3,8.6-7.2,3-11,3-11-3-2.3-5.5,0-6.8,1.4-16-6.6-14.6-16.3-14.6-16.3Z"/>
  <path class="st7" d="M202.2,271.6l-6.1,5.2c-12.2,9.3-16.3,7.5-16.3,7.5l2.4-6.5c-.6-.8-1.4-1.1-2-1.1.1-.1,1.6-2.3,1.7-7.8,3.7,1,11.9,2.4,18.8-.8-.1,2.1,1.4,3.5,1.4,3.5Z"/>
  <path class="st7" d="M195.4,34s.4,2.4,1.4,4.8c.3.6.6,1.1.8,1.6,0,0-5.4,6.8-17.5,8.8l.3-2.7.4-4.1c.1-2.7-3.1-4-3.1-4-3.3-1.3-5.1-3-6.4-5.7-.4-.8-.8-1.7-1.1-2.7,0-.1-.1-.4-.1-.6-.7-2.1-1.1-4.4-1-6.6.1-3.3,1-6.5,2.7-9.5,0,0,.4-.7,1.1-1.6,1.3-1.6,3.7-4,6.4-4.8,0,0-1.4,9.5,14.6,16.3,1.3-1.6,3.8-3.8,6.8-1.4,0,0,5.8,3.8-3,11h-.1c-.6.3-1.1.7-2.1,1.1Z"/>
  <path class="st12" d="M182,269c-.1,5.5-1.6,7.5-1.7,7.8-.7-.1-1.4.1-1.4.1-.4.8-.8,1.7-1.3,2.5-2.5.7-3.5.3-3.5.3l2.4-6.5c-.6-.8-1.4-1.1-2-1.1.1-.1,1.4-2.3,1.7-7.9,1,.1,2.3.3,3.7,0v4.4c.1-.1.8.1,2.1.4Z"/>
  <path class="st7" d="M180.4,100.2l-7.4,7.4c-.4.4-.8.8-1.3,1.1-.7.7-1.6,1.4-2.4,2l-35.8,27.7c-4.8,5.5-8.3,3.8-8.3,3.8l.3-7.1c0-1.6-1.1-3-2.8-3h-4.2c-1.6,0-2.7,1.1-2.8,2.7v4.1c-5.4-2.3-3.5-4.9-3.5-4.9l3.4-4.5c.4-.6.8-.8,1.1-1.3,2.3-2,4-1.3,4-1.3h2.4c0,.1,6.5.7,6.5.7,0,0,1.8.6,6.6-4.2l26.6-28,3.1-4.5.8-1.3c2.1,3.1,6.5,8.5,13.7,10.6Z"/>
  <path class="st11" d="M176.2,263.9c-1.1-.3-1.7-.6-1.7-.6v-63.5c-.1,0-.1-62.8-.1-62.8l3.1,53.2,2.4,73.7c-1.4.3-2.7.1-3.7,0Z"/>
  <path class="st6" d="M174.5,271.8c.6.1,1.4.4,2,1.1l-2.4,6.5s1,.4,3.5-.3c-3.5,6.4-8.3,8.3-8.3,8.3-5.5,2-7.6,4.7-8.5,6.4h-4.1c-1,0-2-.8-2.1-1.8v-.8c-.1,0-.7-5.1,8.8-8.6,0,0,6.2-2.7,9.6-10.9.1.3.7,0,1.6.1Z"/>
  <path class="st8" d="M176.2,55.6l-2,12c-.3.6-.6,1.3-1,1.8l-8.1,17.7s.4,1,1.4,2.4l-.8,1.3c-1.4-1.1-2.4-2.3-3.1-3.1-1.4-2-1.3-3-1.3-3l14.8-29.1Z"/>
  <path class="st12" d="M165.7,91l-3.1,4.5-26.6,28c-4.8,4.8-6.6,4.2-6.6,4.2l-6.5-.6s4.8.1,7.5-3l28-30.3,4.1-6.1c.7.7,1.7,1.8,3.3,3.1Z"/>
  <path class="st5" d="M156.8,294.2h4.1c-.6,1.1-.4,2-.4,2.1h-3c-2.7,0-2.5-4-2.5-4-.1,1,.8,1.8,1.8,1.8Z"/>
  <path class="st0" d="M126.6,207.2v3.4c0,1.3-1,2.3-2.3,2.3H36.8c-1.3,0-2.3-1-2.3-2.3v-3.4c0-1.3,1-2.3,2.3-2.3h87.7c1,0,2.1,1,2.1,2.3Z"/>
  <path class="st0" d="M115.4,142.9v-3.8c.1,0,.3-4.1.3-4.1,0-1.6,1.3-2.7,2.8-2.7h4.2c1.6,0,2.8,1.3,2.8,3l-.3,7.1-2.8,62.8h-9.9l2.8-62.2Z"/>
  <path class="st0" d="M121.5,212.7v83.4c.1,1.8-1.4,3.4-3.3,3.4h-2.4c-1.8,0-3.4-1.6-3.4-3.4v-83.4c-.1,0,9,0,9,0Z"/>
  <path class="st12" d="M116.7,128.2c-.4.3-.7.7-1.1,1.3l-3.4,4.5s-1.8,2.7,3.4,4.9v3.8c-8.9-5.1-6.5-7.6-6.5-7.6l3.5-6.2c2-2.1,3.8-.8,4.1-.7Z"/>
  <path class="st0" d="M48.4,215.8v80.9c.1,1.7-1.1,3-2.8,3h-3.3c-1.7,0-3-1.3-3-3v-84c-.1,0,7.5,0,7.5,0h1.6v3.1Z"/>
  <path class="st4" d="M46.8,212.7h-7.6v84c.1,1.7,1.4,3,3.1,3h3.3c1.7,0,3-1.3,3-3v-80.9c-.1,0-.1-3.1-.1-3.1"/>
  <path class="st4" d="M118.2,299.7h-2.4c-1.8,0-3.4-1.6-3.4-3.4v-83.4c-.1,0,9,0,9,0v83.4c.1,1.8-1.4,3.4-3.3,3.4Z"/>
  <path class="st4" d="M122.7,132.3h-4.2c-1.6,0-2.7,1.1-2.8,2.7l-3.1,70.1h9.9l3.1-69.8c.1-1.7-1.1-3-2.8-3Z"/>
  <path class="st4" d="M46.8,212.7h-10.2c-1.3,0-2.3-1-2.3-2.3v-3.4c0-1.3,1-2.3,2.3-2.3h87.7c1.3,0,2.3,1,2.3,2.3v3.4c0,1.3-1,2.3-2.3,2.3H46.8Z"/>
  <path class="st4" d="M191.7,30.3s2.3-6.1,6.4-6.8"/>
  <path class="st4" d="M194.6,25.7s1.7,1.3,2,3.4"/>
  <path class="st4" d="M192.7,24.4s3.4-5.9,7.6-2.7c0,0,5.7,3.8-3,11,0,0-2.7,2.3-5.5,2.3"/>
  <path class="st4" d="M179,6.9s-1.4,9.5,14.6,16.3"/>
  <path class="st4" d="M172.6,11.7s-2.7-4.9,5.1-7.8l4.1-1s4.4-4.1,12.6-.3c0,0,13.3,6.5,12.4,20.5,0,0-.8,7.6-9.6,9.9"/>
  <path class="st4" d="M195.4,34s.6,3.8,2.3,6.4c0,0-5.4,6.8-17.5,8.8l.7-6.9c.1-2.7-3.1-4-3.1-4-4.2-1.7-6.1-4.2-7.6-8.3-2-5.4-1.6-11.5,1.6-16.8,0,0,3.3-5.1,7.5-6.2l.3-1"/>
  <path class="st4" d="M191.6,49s-9.8,2.7-18.2,20.5l-8.1,17.7s7.5,15.4,24,13.7l17.7-25"/>
  <path class="st4" d="M180.4,46.5s-3.1,2.8-4.1,9.2l-2,12"/>
  <path class="st4" d="M115.5,138.9c-5.2-2.3-3.4-4.9-3.4-4.9l3.4-4.5c2.8-3.5,5.1-2.5,5.1-2.5l8.8.8s1.8.6,6.6-4.2l26.6-28,4.1-5.8"/>
  <path class="st4" d="M125.3,142.2s3.5,1.7,8.3-3.8l35.8-27.7c1.3-.8,2.5-2,3.7-3.1l7.4-7.4"/>
  <path class="st4" d="M176.2,55.6l-15,29.1s-.3,2.3,4.4,6.1"/>
  <path class="st4" d="M116.7,128.2s-2.1-1.6-4.1.8l-3.5,6.2s-2.4,2.5,6.4,7.6"/>
  <path class="st4" d="M171.9,108.7l-1.8,25.5,4.2,1c23.8,7.1,42.6-2.3,42.6-2.3l-1-14v-14.6c.6-48.5-13-60.9-13-60.9-3.3-4.4-5.9-4.4-5.9-4.4"/>
  <path class="st4" d="M174.2,135l3.3,55.3,2.5,78.2s14.6,5.1,24-2.3l1-74.1,4.9-36.3s1.8-13.4,2.1-21.2"/>
  <path class="st4" d="M160.3,296.3s-.6-5.1,8.9-8.6c0,0,6.2-2.7,9.6-10.9,0,0,2-.7,3.4,1.1l-2.4,6.5s4.1,1.8,16.3-7.5l6.8-5.8c4,5.7,5.9,10.2,5.9,10.2l-25.7,15.1c-5.2,2.8-8.8,2.5-8.8,2.5h-11.6c-1,.1-2-.6-2.1-1.7l-.3-1Z"/>
  <path class="st4" d="M174.2,137.1v126.4c.1,0,2.5,1,5.7.6"/>
  <path class="st4" d="M122.9,127.2s4.8.1,7.5-3l28-30.3,4.1-6.1"/>
  <path class="st4" d="M160.5,297.1s-.1,3.8,2.5,4h11.3s6.1.3,10.6-3.3l21.2-12.4c1.4-.8,2.3-2.3,2.4-4v-.3"/>
  <path class="st4" d="M180.3,276.8s1.6-1.8,1.8-7.8"/>
  <path class="st4" d="M160.9,294.2h-4c-1,0-2-.7-2.1-1.8v-.8"/>
  <path class="st4" d="M154.6,291.5s-.6-5.1,8.9-8.6c0,0,6.2-2.7,9.6-10.9,0,0,2-.7,3.4,1.1l-2.4,6.5s1,.4,3.5-.3"/>
  <path class="st4" d="M154.7,292.3s-.1,3.8,2.5,4h3"/>
  <path class="st4" d="M174.5,271.8s1.4-2.1,1.7-7.9"/>
  <path class="st4" d="M202.2,271.6s-1.6-1.4-1.4-3.4"/>
</svg>