<svg width="277" height="313" viewBox="0 0 277 313" fill="none" xmlns="http://www.w3.org/2000/svg">
<path d="M157.805 49.117C157.805 49.117 162.582 46.9768 172.69 49.117C182.797 51.2572 186.732 53.066 195.624 53.3698C204.53 53.6735 210.109 52.7622 219.622 54.723C229.136 56.6837 243.013 58.3406 247.086 58.3406C251.159 58.3406 260.977 55.6205 260.977 55.6205L270.035 59.5419L267.922 75.987C267.922 75.987 260.521 77.0502 257.207 75.987C253.893 74.9238 249.213 69.3454 249.213 69.3454C249.213 69.3454 237.586 69.3454 227.783 70.5467C217.979 71.748 208.01 72.0518 201.672 70.8505C195.334 69.6492 177.674 67.9785 171.64 69.4973C165.606 71.0024 164.239 73.8744 162.582 78.0996C160.925 82.3386 157.805 49.117 157.805 49.117Z" fill="#FDE0DD"/>
<path d="M157.805 49.117C157.805 49.117 162.582 46.9768 172.69 49.117C182.797 51.2572 186.732 53.066 195.624 53.3698C204.53 53.6735 210.109 52.7622 219.622 54.723C229.136 56.6837 243.013 58.3406 247.086 58.3406C251.159 58.3406 260.977 55.6205 260.977 55.6205L270.035 59.5419L267.922 75.987C267.922 75.987 260.521 77.0502 257.207 75.987C253.893 74.9238 249.213 69.3454 249.213 69.3454C249.213 69.3454 237.586 69.3454 227.783 70.5467C217.979 71.748 208.01 72.0518 201.672 70.8505C195.334 69.6492 177.674 67.9785 171.64 69.4973C165.606 71.0024 164.239 73.8744 162.582 78.0996C160.925 82.3386 157.805 49.117 157.805 49.117Z" stroke="#232020" stroke-width="0.991264" stroke-miterlimit="10" stroke-linecap="round" stroke-linejoin="round"/>
<path d="M118.301 49.117C118.301 49.117 113.524 46.9768 103.417 49.117C93.3092 51.2572 89.3739 53.066 80.4817 53.3698C71.5756 53.6735 65.9973 52.7622 56.4837 54.723C46.9701 56.6837 33.0932 58.3406 29.0199 58.3406C24.9466 58.3406 15.1292 55.6205 15.1292 55.6205L6.07129 59.5419L8.18389 75.987C8.18389 75.987 15.5849 77.0502 18.8988 75.987C22.2127 74.9238 26.8935 69.3454 26.8935 69.3454C26.8935 69.3454 38.5197 69.3454 48.3233 70.5467C58.1268 71.748 68.0961 72.0518 74.4339 70.8505C80.7717 69.6492 98.4319 67.9785 104.466 69.4973C110.5 71.0024 111.867 73.8744 113.524 78.0996C115.181 82.3386 118.301 49.117 118.301 49.117Z" fill="#FDE0DD"/>
<path d="M118.301 49.117C118.301 49.117 113.524 46.9768 103.417 49.117C93.3092 51.2572 89.3739 53.066 80.4817 53.3698C71.5756 53.6735 65.9973 52.7622 56.4837 54.723C46.9701 56.6837 33.0932 58.3406 29.0199 58.3406C24.9466 58.3406 15.1292 55.6205 15.1292 55.6205L6.07129 59.5419L8.18389 75.987C8.18389 75.987 15.5849 77.0502 18.8988 75.987C22.2127 74.9238 26.8935 69.3454 26.8935 69.3454C26.8935 69.3454 38.5197 69.3454 48.3233 70.5467C58.1268 71.748 68.0961 72.0518 74.4339 70.8505C80.7717 69.6492 98.4319 67.9785 104.466 69.4973C110.5 71.0024 111.867 73.8744 113.524 78.0996C115.181 82.3386 118.301 49.117 118.301 49.117Z" stroke="#232020" stroke-width="0.991264" stroke-miterlimit="10" stroke-linecap="round" stroke-linejoin="round"/>
<path d="M21.1626 66.8601C21.1626 72.328 16.7303 76.7603 11.2762 76.7603C5.80827 76.7603 1.37598 72.328 1.37598 66.8601C1.37598 61.3922 5.80827 56.9598 11.2762 56.9598C16.7303 56.9598 21.1626 61.3922 21.1626 66.8601Z" fill="#606060"/>
<path d="M21.1626 66.8601C21.1626 72.328 16.7303 76.7603 11.2762 76.7603C5.80827 76.7603 1.37598 72.328 1.37598 66.8601C1.37598 61.3922 5.80827 56.9598 11.2762 56.9598C16.7303 56.9598 21.1626 61.3922 21.1626 66.8601Z" stroke="#232020" stroke-width="0.991264" stroke-miterlimit="10" stroke-linecap="round" stroke-linejoin="round"/>
<path opacity="0.6" d="M15.2122 66.8601C15.2122 69.0417 13.4448 70.7953 11.277 70.7953C9.09536 70.7953 7.3418 69.0279 7.3418 66.8601C7.3418 64.6785 9.10917 62.9249 11.277 62.9249C13.4448 62.9111 15.2122 64.6785 15.2122 66.8601Z" fill="white"/>
<path d="M266.099 76.7603C271.567 76.7603 276 72.3278 276 66.8601C276 61.3923 271.567 56.9598 266.099 56.9598C260.632 56.9598 256.199 61.3923 256.199 66.8601C256.199 72.3278 260.632 76.7603 266.099 76.7603Z" fill="#606060"/>
<path d="M266.099 76.7603C271.567 76.7603 276 72.3278 276 66.8601C276 61.3923 271.567 56.9598 266.099 56.9598C260.632 56.9598 256.199 61.3923 256.199 66.8601C256.199 72.3278 260.632 76.7603 266.099 76.7603Z" stroke="#232020" stroke-width="0.991264" stroke-miterlimit="10" stroke-linecap="round" stroke-linejoin="round"/>
<path opacity="0.6" d="M270.035 66.8601C270.035 69.0417 268.267 70.7953 266.099 70.7953C263.918 70.7953 262.164 69.0279 262.164 66.8601C262.164 64.6785 263.931 62.9249 266.099 62.9249C268.267 62.9111 270.035 64.6785 270.035 66.8601Z" fill="white"/>
<path d="M71.5332 58.6306C71.5332 58.6306 72.1269 60.7708 72.1269 62.9249" stroke="#232020" stroke-width="0.991264" stroke-miterlimit="10" stroke-linecap="round" stroke-linejoin="round"/>
<path d="M201.395 58.6306C201.395 58.6306 200.802 60.7708 200.802 62.9249" stroke="#232020" stroke-width="0.991264" stroke-miterlimit="10" stroke-linecap="round" stroke-linejoin="round"/>
<path opacity="0.1" d="M135.547 312.474C176.574 312.474 209.833 306.545 209.833 299.232C209.833 291.919 176.574 285.99 135.547 285.99C94.5198 285.99 61.2607 291.919 61.2607 299.232C61.2607 306.545 94.5198 312.474 135.547 312.474Z" fill="#606060"/>
<path d="M144.438 4.87665C144.438 4.87665 140.061 0.278638 132.881 1.618C125.701 2.95736 123.119 7.11352 122.001 9.58512C120.882 12.0567 116.505 17.0966 123.354 24.2905C130.202 31.4705 148.594 25.4089 148.594 25.4089C148.594 25.4089 152.184 21.5979 152.074 15.9781C151.95 10.3722 150.5 6.34028 144.438 4.87665Z" fill="#5E3904"/>
<path d="M144.438 4.87665C144.438 4.87665 140.061 0.278638 132.881 1.618C125.701 2.95736 123.119 7.11352 122.001 9.58512C120.882 12.0567 116.505 17.0966 123.354 24.2905C130.202 31.4705 148.594 25.4089 148.594 25.4089C148.594 25.4089 152.184 21.5979 152.074 15.9781C151.95 10.3722 150.5 6.34028 144.438 4.87665Z" stroke="#232020" stroke-width="1.10808" stroke-miterlimit="10" stroke-linecap="round" stroke-linejoin="round"/>
<path d="M138.363 53.5354L153.207 43.9942L144.314 41.0946V30.2002H138.363H132.882H126.93V41.0946L118.038 43.9942L132.882 53.5354V57.0564L135.629 55.3028L138.363 57.0564V53.5354Z" fill="#FBDFDC"/>
<path d="M138.363 53.5354L153.207 43.9942L144.314 41.0946V30.2002H138.363H132.882H126.93V41.0946L118.038 43.9942L132.882 53.5354V57.0565L135.629 55.3028L138.363 57.0565V53.5354Z" stroke="#232020" stroke-width="1.10808" stroke-miterlimit="10" stroke-linecap="round" stroke-linejoin="round"/>
<path d="M140.615 138.385L162.928 133.441C162.928 133.441 164.765 144.212 165.717 157.854C166.67 171.496 167.72 193.381 166.505 206.485C165.303 219.588 165.524 218.152 167.071 226.423C168.631 234.694 168.645 243.642 168.976 253.79C169.349 265.223 169.625 292.232 169.625 292.232C168.507 306.578 155.569 300.461 155.569 300.461C155.569 300.461 154.713 280.288 150.046 260.128C145.378 239.969 146.248 235.882 145.848 224.49C145.448 213.099 144.081 219.381 142.051 203.102C140.491 190.62 139.524 175.693 138.972 169.383L140.615 138.385Z" fill="#FBDFDC"/>
<path d="M140.615 138.385L162.928 133.441C162.928 133.441 164.765 144.212 165.717 157.854C166.67 171.496 167.72 193.381 166.505 206.485C165.303 219.588 165.524 218.152 167.071 226.423C168.631 234.694 168.645 243.642 168.976 253.79C169.349 265.223 169.625 292.232 169.625 292.232C168.507 306.578 155.569 300.461 155.569 300.461C155.569 300.461 154.713 280.288 150.046 260.128C145.378 239.969 146.248 235.882 145.848 224.49C145.448 213.099 144.081 219.381 142.051 203.102C140.491 190.62 139.524 175.693 138.972 169.383L140.615 138.385Z" stroke="#232020" stroke-width="1.10808" stroke-miterlimit="10" stroke-linecap="round" stroke-linejoin="round"/>
<path d="M166.946 292.08C166.946 292.08 165.966 289.442 169.086 288.407C172.221 287.371 173.974 285.714 177.426 288.849C181.113 292.19 185.076 292.991 188.666 294.8C192.891 296.926 191.524 302.505 190.005 302.891C188.486 303.264 152.269 302.891 152.269 302.891C152.269 302.891 152.269 298.348 152.269 294.883C152.269 291.417 153.069 288.697 155.486 288.697C155.486 288.697 156.356 291.831 159.214 293.06C162.39 294.427 167.913 294.247 167.913 294.247L166.946 292.08Z" fill="white"/>
<path d="M166.946 292.08C166.946 292.08 165.966 289.442 169.086 288.407C172.221 287.371 173.974 285.714 177.426 288.849C181.113 292.19 185.076 292.991 188.666 294.8C192.891 296.926 191.524 302.505 190.005 302.891C188.486 303.264 152.269 302.891 152.269 302.891C152.269 302.891 152.269 298.348 152.269 294.883C152.269 291.417 153.069 288.697 155.486 288.697C155.486 288.697 156.356 291.831 159.214 293.06C162.39 294.427 167.913 294.247 167.913 294.247L166.946 292.08Z" stroke="#232020" stroke-width="1.10808" stroke-miterlimit="10" stroke-linecap="round" stroke-linejoin="round"/>
<path d="M188.748 300.364H154.408" stroke="#232020" stroke-width="1.10808" stroke-miterlimit="10" stroke-linecap="round" stroke-linejoin="round"/>
<path d="M132.44 138.385L110.126 133.441C110.126 133.441 108.29 144.212 107.337 157.854C106.385 171.496 105.335 193.381 106.55 206.485C107.752 219.588 107.531 218.152 105.984 226.423C104.424 234.694 104.41 243.642 104.079 253.79C103.706 265.223 103.43 292.232 103.43 292.232C104.548 306.578 117.486 300.461 117.486 300.461C117.486 300.461 118.342 280.288 123.009 260.128C127.676 239.969 126.806 235.882 127.207 224.49C127.607 213.099 128.974 219.381 131.004 203.102C132.564 190.62 133.531 175.693 134.083 169.383L132.44 138.385Z" fill="#FBDFDC"/>
<path d="M132.44 138.385L110.126 133.441C110.126 133.441 108.29 144.212 107.337 157.854C106.385 171.496 105.335 193.381 106.55 206.485C107.752 219.588 107.531 218.152 105.984 226.423C104.424 234.694 104.41 243.642 104.079 253.79C103.706 265.223 103.43 292.232 103.43 292.232C104.548 306.578 117.486 300.461 117.486 300.461C117.486 300.461 118.342 280.288 123.009 260.128C127.676 239.969 126.806 235.882 127.207 224.49C127.607 213.099 128.974 219.381 131.004 203.102C132.564 190.62 133.531 175.693 134.083 169.383L132.44 138.385Z" stroke="#232020" stroke-width="1.10808" stroke-miterlimit="10" stroke-linecap="round" stroke-linejoin="round"/>
<path d="M106.122 292.08C106.122 292.08 107.102 289.442 103.981 288.407C100.847 287.371 99.0934 285.714 95.6414 288.849C91.9547 292.19 87.9919 292.991 84.4018 294.8C80.1766 296.926 81.5436 302.505 83.0625 302.891C84.5813 303.264 120.799 302.891 120.799 302.891C120.799 302.891 120.799 298.348 120.799 294.883C120.799 291.417 119.998 288.697 117.582 288.697C117.582 288.697 116.712 291.831 113.854 293.06C110.678 294.427 105.155 294.247 105.155 294.247L106.122 292.08Z" fill="white"/>
<path d="M106.122 292.08C106.122 292.08 107.102 289.442 103.981 288.407C100.847 287.371 99.0934 285.714 95.6414 288.849C91.9547 292.19 87.9919 292.991 84.4018 294.8C80.1766 296.926 81.5436 302.505 83.0625 302.891C84.5813 303.264 120.799 302.891 120.799 302.891C120.799 302.891 120.799 298.348 120.799 294.883C120.799 291.417 119.998 288.697 117.582 288.697C117.582 288.697 116.712 291.831 113.854 293.06C110.678 294.427 105.155 294.247 105.155 294.247L106.122 292.08Z" stroke="#232020" stroke-width="1.10808" stroke-miterlimit="10" stroke-linecap="round" stroke-linejoin="round"/>
<path d="M84.3047 300.364H118.645" stroke="#232020" stroke-width="1.10808" stroke-miterlimit="10" stroke-linecap="round" stroke-linejoin="round"/>
<path d="M135.214 158.793L133.723 192.967C133.723 192.967 128.352 194.223 119.004 193.713C109.656 193.202 102.545 193.215 102.545 193.215C102.697 136.382 107.792 122.326 107.792 122.326L163.341 123.155C163.341 123.155 167.621 136.092 167.994 192.926C167.994 192.926 160.69 193.215 151.342 193.726C141.994 194.237 136.664 192.995 136.664 192.995L135.131 158.806" fill="#FF787F"/>
<path d="M135.214 158.793L133.723 192.967C133.723 192.967 128.352 194.223 119.004 193.713C109.656 193.202 102.545 192.856 102.545 192.856C102.697 136.023 107.792 122.326 107.792 122.326L163.341 123.155C163.341 123.155 167.621 135.733 167.994 192.567C167.994 192.567 160.69 193.215 151.342 193.726C141.994 194.237 136.664 192.995 136.664 192.995L135.131 158.806" stroke="#232020" stroke-width="1.10808" stroke-miterlimit="10" stroke-linecap="round" stroke-linejoin="round"/>
<path d="M134.911 138.951V145.04" stroke="#232020" stroke-width="1.10808" stroke-miterlimit="10" stroke-linecap="round" stroke-linejoin="round"/>
<path d="M142.091 125.985H106.246L105.445 79.3837C108.386 66.0039 103.678 47.1562 103.678 47.1562L124.32 41.1498C124.32 41.1498 126.336 47.9985 135.242 48.3298H136.416C145.281 47.9847 145.902 41.1498 145.902 41.1498L167.083 47.1562C167.083 47.1562 162.761 66.7357 165.744 78.4033L164.929 125.971H146.261H142.091V125.985Z" fill="#C9CACA"/>
<path d="M106.55 62.2895C106.55 62.2895 109.533 57.084 114.987 53.3835C120.441 49.683 120.731 48.9512 127.58 45.7201L125.591 43.6075C125.591 43.6075 116.809 48.0537 114.407 49.0616C112.004 50.0696 109.353 50.1801 109.381 45.6787L104.521 47.0595C104.521 47.0595 105.114 52.9693 105.667 55.6204C106.205 58.2577 106.55 62.2895 106.55 62.2895Z" fill="white"/>
<path d="M164.929 62.4968C164.929 62.4968 162.084 57.2222 156.713 53.3974C151.342 49.5727 151.079 48.827 144.313 45.4303L146.357 43.3591C146.357 43.3591 155.015 48.0124 157.403 49.0894C159.792 50.1526 162.429 50.3321 162.512 45.8307L167.331 47.3358C167.331 47.3358 166.586 53.2317 165.978 55.8552C165.37 58.4925 164.929 62.4968 164.929 62.4968Z" fill="white"/>
<path d="M106.191 125.985L105.763 78.4172C108.787 66.7496 104.078 47.1701 104.078 47.1701L124.721 41.1637C124.721 41.1637 126.737 48.0124 135.643 48.3438H136.816C145.681 47.9986 146.302 41.1637 146.302 41.1637L167.484 47.1701C167.484 47.1701 162.789 66.7496 165.482 78.4172L165.053 125.985H106.191Z" stroke="#232020" stroke-width="1.10808" stroke-miterlimit="10" stroke-linecap="round" stroke-linejoin="round"/>
<path d="M123.672 19.8167C123.672 19.8167 123.81 25.7955 125.453 29.8136C127.096 33.8317 131.087 36.7313 135.519 36.8003C140.269 36.8694 145.171 34.5635 146.662 28.3914C147.863 23.4067 147.932 21.9983 147.932 21.9983L145.792 8.74282L131.418 8.41144L123.672 19.8167Z" fill="#FBDFDC"/>
<path d="M147.6 23.5172C147.6 23.5172 149.491 23.1858 150.472 24.6218C151.894 26.7068 150.044 30.4073 146.509 29.5236" fill="#FBDFDC"/>
<path d="M147.6 23.5172C147.6 23.5172 149.491 23.1858 150.472 24.6218C151.894 26.7068 150.044 30.4073 146.509 29.5236" stroke="#232020" stroke-width="1.10808" stroke-miterlimit="10" stroke-linecap="round" stroke-linejoin="round"/>
<path d="M149.616 25.7265C149.616 25.7265 148.276 25.6437 147.973 27.3144" stroke="#232020" stroke-width="1.10808" stroke-miterlimit="10" stroke-linecap="round" stroke-linejoin="round"/>
<path d="M123.92 23.5172C123.92 23.5172 122.028 23.1858 121.048 24.6218C119.626 26.7068 121.476 30.4073 125.011 29.5236" fill="#FBDFDC"/>
<path d="M123.92 23.5172C123.92 23.5172 122.028 23.1858 121.048 24.6218C119.626 26.7068 121.476 30.4073 125.011 29.5236" stroke="#232020" stroke-width="1.10808" stroke-miterlimit="10" stroke-linecap="round" stroke-linejoin="round"/>
<path d="M121.918 25.7265C121.918 25.7265 123.271 25.6437 123.561 27.3144" stroke="#232020" stroke-width="1.10808" stroke-miterlimit="10" stroke-linecap="round" stroke-linejoin="round"/>
<path d="M123.672 20.1205C123.672 20.1205 123.879 25.5746 125.522 29.5927C127.179 33.6107 131.087 36.7037 135.505 36.8694C140.269 37.0489 144.66 34.7844 146.579 28.7228C147.559 25.6022 147.711 22.3021 147.711 22.3021" stroke="#232020" stroke-width="1.10808" stroke-miterlimit="10" stroke-linecap="round" stroke-linejoin="round"/>
<path d="M123.672 23.1858C123.672 23.1858 125.273 17.4418 130.327 14.9149C130.327 14.9149 129.402 16.1162 129.209 18.2564C129.209 18.2564 133.696 15.5225 137.866 15.7572C142.036 15.992 144.135 14.2936 144.508 12.7885C144.508 12.7885 144.963 19.6648 147.96 22.3298C147.96 22.3298 150.776 21.2113 150.776 17.2761C150.776 13.3409 148.526 7.03068 141.456 7.66584C134.373 8.301 128.049 6.83736 127.731 6.96163C127.414 7.0859 123.106 15.3568 123.106 15.3568L120.813 18.9606L123.672 23.1858Z" fill="#5E3904"/>
<path d="M123.92 22.882C125.494 17.1103 130.451 14.9425 130.451 14.9425C128.96 17.0551 129.305 18.5463 129.305 18.5463C131.818 16.2542 136.499 16.0333 140.503 15.7986C144.494 15.5638 144.728 11.3386 144.728 11.3386C144.728 11.3386 144.162 16.7237 147.711 22.3159" stroke="#232020" stroke-width="1.10808" stroke-miterlimit="10" stroke-linecap="round" stroke-linejoin="round"/>
</svg>
