<?xml version="1.0" encoding="UTF-8"?>
<svg id="_레이어_1" data-name="레이어_1" xmlns="http://www.w3.org/2000/svg" version="1.1" viewBox="0 0 159 335">
  <!-- Generator: Adobe Illustrator 29.0.1, SVG Export Plug-In . SVG Version: 2.1.0 Build 192)  -->
  <defs>
    <style>
      .st0 {
        fill: #606060;
        isolation: isolate;
        opacity: .1;
      }

      .st1 {
        fill: none;
        stroke: #232020;
        stroke-linecap: round;
        stroke-linejoin: round;
        stroke-width: 1.1px;
      }

      .st2 {
        fill: #ff787f;
      }

      .st3 {
        fill: #5e3904;
      }

      .st4 {
        fill: #98686c;
      }

      .st5 {
        fill: #fbdfdc;
      }

      .st6 {
        fill: #c9caca;
      }

      .st7 {
        fill: #fff;
      }
    </style>
  </defs>
  <path class="st0" d="M77.5,334.3c42.5,0,77-6.1,77-13.7s-34.5-13.7-77-13.7S.5,313,.5,320.6s34.5,13.7,77,13.7Z"/>
  <path class="st3" d="M88.9,4.3s-4.7-4.6-12.1-2.9c-7.4,1.7-9.9,6.1-10.9,8.7-1.1,2.6-5.4,8,2,15.2,7.4,7.2,26.2,0,26.2,0,0,0,3.6-4.1,3.2-9.9-.4-5.8-2.1-9.9-8.4-11.2Z"/>
  <path class="st1" d="M88.9,4.3s-4.7-4.6-12.1-2.9c-7.4,1.7-9.9,6.1-10.9,8.7-1.1,2.6-5.4,8,2,15.2,7.4,7.2,26.2,0,26.2,0,0,0,3.6-4.1,3.2-9.9-.4-5.8-2.1-9.9-8.4-11.2Z"/>
  <path class="st5" d="M85,54.5l15-10.5-9.3-2.6-.4-11.3-6.2.3-5.7.2-6.2.2.5,11.3-9.1,3.4,15.8,9.3v3.7c.1,0,2.9-1.9,2.9-1.9l2.9,1.7v-3.7Z"/>
  <path class="st1" d="M85,54.5l15-10.5-9.3-2.6-.4-11.3-6.2.3-5.7.2-6.2.2.5,11.3-9.1,3.4,15.8,9.3v3.7c.1,0,2.9-1.9,2.9-1.9l2.9,1.7v-3.7Z"/>
  <path class="st5" d="M82.5,143.1l-23.3-4.2s-1.5,11.2-1.9,25.4c-.4,14.2-.6,36.9,1.2,50.4,1.8,13.5,1.5,12.1.3,20.7-1.3,8.6-.9,17.9-.8,28.4.1,11.9,1,39.9,1,39.9,1.8,14.8,14.9,7.9,14.9,7.9,0,0,0-20.9,4-42,4-21.1,2.9-25.3,2.8-37.1,0-11.8,1.6-5.4,3-22.3,1.1-13,1.5-28.5,1.8-35.1l-3-32Z"/>
  <path class="st1" d="M82.5,143.1l-23.3-4.2s-1.5,11.2-1.9,25.4c-.4,14.2-.6,36.9,1.2,50.4,1.8,13.5,1.5,12.1.3,20.7-1.3,8.6-.9,17.9-.8,28.4.1,11.9,1,39.9,1,39.9,1.8,14.8,14.9,7.9,14.9,7.9,0,0,0-20.9,4-42,4-21.1,2.9-25.3,2.8-37.1,0-11.8,1.6-5.4,3-22.3,1.1-13,1.5-28.5,1.8-35.1l-3-32Z"/>
  <path class="st2" d="M86.2,164.1v35.5c0,0-5.6,1.5-15.3,1.4-9.7-.1-17.1.2-17.1.2-2.2-58.9,2.4-73.7,2.4-73.7l57.6-1.5"/>
  <path class="st1" d="M86.2,164.1v35.5c0,0-5.6,1.5-15.3,1.4-9.7-.1-17.1-.2-17.1-.2-2.2-58.9,2.5-73.3,2.5-73.3l57.6-1.5"/>
  <path class="st1" d="M85.1,143.6l.3,6.3"/>
  <path class="st1" d="M70.2,147.4s3.7-.2,6.5-.3c2.8-.1,3.1,2,.1,2.8-2.9.7-6.3,1.1-5.1,3.4s7.4.7,7.4.7"/>
  <path class="st1" d="M96.1,142.3h3.8"/>
  <path class="st1" d="M95.1,146.6h3"/>
  <path class="st5" d="M53.8,126.2s-9.9-11.3-13.5-17.7c-6.1-10.8-10.6-14.8-10.6-14.8,0,0,5.7-3.2,12.2-9.6,6.3-6.2,8.6-8.5,13.7-12.9,5.1-4.4-.9-22.4-.9-22.4,0,0-7.1.6-11.8,4-4.7,3.4-6.3,7.9-8.8,10.2-2.4,2.3-7.7,5.1-12.4,10.5-4.7,5.4-6,8.1-9.1,11-3.1,2.9-6.1,6.3-2,12.8,4,6.5,6.6,10.6,12.5,16.5,5.9,5.8,14.4,11.1,21.3,20.1"/>
  <path class="st5" d="M115.4,124.6s8.9-12.3,12.1-17.7c6.3-10.7,10.1-16.1,10.1-16.1,0,0-5.9-2.9-12.8-8.8-6.7-5.8-9.1-7.9-14.4-12.1-5.3-4.1-.4-22.4-.4-22.4,0,0,7.1.2,12,3.3,4.9,3.1,6.8,7.5,9.3,9.7,2.5,2.1,8,4.7,13,9.8,5,5.1,6.4,7.7,9.7,10.4,3.3,2.7,6.4,6,2.8,12.7-3.6,6.7-6,11-11.6,17.1-5.5,6.2-13.7,11.9-20.1,21.3"/>
  <path class="st6" d="M92,129.9l-37.1,1.5-2.8-48.2c2.5-14-3.2-33.3-3.2-33.3l21.1-7.1s2.4,7,11.6,7h1.2c9.2-.8,9.5-7.9,9.5-7.9l22.2,5.3s-3.7,20.5,0,32.4c.1-1.1-3.1,15.8-3.4,26.8-.2,6,4,23.6,4,23.6l-18.8-.3-4.4.2Z"/>
  <path class="st7" d="M52.8,65.5s2.6-5.7,7.9-10c5.3-4.3,5.5-5.1,12.3-9.1l-2.2-2s-8.7,5.4-11,6.7c-2.4,1.3-5.1,1.6-5.5-3l-4.9,1.9s1.2,6,2,8.7c.8,2.7,1.5,6.8,1.5,6.8Z"/>
  <path class="st7" d="M112.6,63s-3-5.4-8.7-9.3c-5.6-3.9-5.9-4.6-13-8l2.1-2.2s9.1,4.7,11.6,5.7c2.5,1.1,5.2,1.2,5.2-3.5l5,1.5s-.7,6.1-1.3,8.9c-.6,2.7-1,6.9-1,6.9Z"/>
  <path class="st1" d="M54.5,134.5l-2.2-52.4c2.6-12.2-3.1-32.3-3.1-32.3l21.1-7.1s2.4,7,11.6,7h1.2c9.2-.8,9.5-7.9,9.5-7.9l22.2,5.3s-4,20.5-.7,32.5c0,0-2.3,17.9-3,22.6-1.7,10.8,4.1,25.7,4.1,25.7"/>
  <path class="st5" d="M68.4,20.6s.4,6.2,2.3,10.3c1.9,4.1,6.1,6.9,10.7,6.8,4.9-.1,9.9-2.7,11.2-9.2,1-5.2,1-6.7,1-6.7l-2.8-13.6-14.9.3-7.5,12.1Z"/>
  <path class="st5" d="M93.3,23.4s1.9-.4,3,1c1.6,2.1-.2,6-3.9,5.3"/>
  <path class="st1" d="M93.3,23.4s1.9-.4,3,1c1.6,2.1-.2,6-3.9,5.3"/>
  <path class="st1" d="M95.5,25.6s-1.4,0-1.6,1.7"/>
  <path class="st5" d="M68.8,24.4s-2-.3-2.9,1.3c-1.4,2.2.7,6,4.3,4.9"/>
  <path class="st1" d="M68.8,24.4s-2-.3-2.9,1.3c-1.4,2.2.7,6,4.3,4.9"/>
  <path class="st1" d="M66.8,26.8s1.4-.1,1.8,1.6"/>
  <path class="st1" d="M68.4,20.9s.4,5.6,2.3,9.7c1.9,4.1,6.1,7.1,10.6,7.1,4.9,0,9.4-2.5,11.1-8.9.9-3.3.9-6.7.9-6.7"/>
  <path class="st3" d="M68.5,24.1s1.4-6,6.5-8.9c0,0-.9,1.3-1,3.5,0,0,4.5-3,8.9-2.9,4.3,0,6.4-1.8,6.8-3.4,0,0,.8,7.1,4,9.7,0,0,2.9-1.3,2.7-5.4-.2-4.1-2.8-10.5-10.1-9.6-7.3,1-13.9-.3-14.3-.1-.3.1-4.4,8.9-4.4,8.9l-2.2,3.8,3.1,4.3Z"/>
  <path class="st1" d="M68.8,23.8c1.4-6,6.4-8.5,6.4-8.5-1.5,2.3-1,3.8-1,3.8,2.5-2.5,7.4-2.9,11.5-3.3,4.1-.4,4.2-4.8,4.2-4.8,0,0-.4,5.6,3.5,11.2"/>
  <path class="st6" d="M60.3,101.7l-3.5,31.4s3.7,6.2,17.3,4.1c4.3-.7,8.8-6.5,9.9-7,12.7-5.8,25.6-14.4,25.6-14.4,0,0-2.1-23.1-1.7-29.2.9-11.9.5-13.9.5-13.9,0,0-23.3,1.8-30.3,11.5"/>
  <path class="st1" d="M58.7,133s-.7,4.8,15.5,4.1c6.1-.2,7.9-11.7,26.9-12.2"/>
  <path class="st5" d="M40.3,108.5c3.6,6.4,13.5,17.7,13.5,17.7l.8.8s1.9.4,4.3,1c2.4.5,4.1.9,4.8,1.2.7.3,2.7,1,5.7,2.8,3,1.7,4.3,2.7,3.4,3.5-.9.8-2.8,0-4.3-.7-4.6-2.2-5.3-1.7-5.3-1.7,0,0,2.5.9,4.6,2.2,1.8,1,3.2,2.4,3.8,3,1.3,1.3,0,2.6-1.4,2.1-1.3-.5-5.6-3.3-8.3-4-.3,0-.8,0,.7.7,2.2,1.1,4.3,2.7,5.2,3.4,1.9,1.5.7,2.9-1.1,2.2-1.8-.7-4.5-2.9-6.9-3.4-1.3-.3-.7.2.6.9,1.2.6,2.7,2,3.5,2.8,1.8,1.7.3,3.4-2.2,1.4-2.8-2.2-6.8-3.6-6.8-3.6,0,0-2.5,0-5.4-1.6-2.9-1.6-4.2-4.1-4.2-4.1l-.9-1.4c-6.9-9.1-15.4-14.3-21.3-20.1"/>
  <path class="st1" d="M49.4,49.8c-2.1.6-4.5,1.5-6.5,2.9-4.7,3.4-6.3,7.9-8.8,10.2-2.4,2.3-7.7,5.1-12.4,10.5-4.7,5.4-6,8.1-9.1,11-3.1,2.9-6.1,6.3-2,12.8,4,6.5,6.6,10.6,12.5,16.5,5.9,5.8,14.4,11.1,21.3,20.1l.9,1.4s1.3,2.5,4.2,4.1c2.9,1.6,5.4,1.6,5.4,1.6,0,0,4.1,1.4,6.8,3.6,2.5,2.1,4,.3,2.2-1.4-.8-.8-2.3-2.2-3.5-2.8-1.3-.7-1.8-1.2-.6-.9,2.4.5,5.1,2.7,6.9,3.4s3-.7,1.1-2.2c-.9-.7-3.1-2.3-5.2-3.4-1.6-.8-1.1-.8-.7-.7,2.7.7,7,3.5,8.3,4,1.3.5,2.8-.8,1.4-2.1-.6-.6-2-2-3.8-3-2.1-1.3-4.6-2.2-4.6-2.2,0,0,.7-.5,5.3,1.7,1.5.7,3.4,1.5,4.3.7.9-.8-.4-1.8-3.4-3.5-3-1.7-5-2.5-5.7-2.8-.7-.3-2.4-.6-4.8-1.2-2.4-.5-4.3-1-4.3-1l-.8-.8s-9.5-10.6-13.1-17c-6.1-10.8-11-15.5-11-15.5,0,0,5.7-3.2,12.2-9.6,4.8-4.7,7.9-7.9,11.2-10.6"/>
  <path class="st1" d="M26.7,89.9s1.4,1.8,3,3.7"/>
  <path class="st5" d="M127.5,106.8c-3.2,6.6-12.2,18.1-12.2,18.1l-.4.4s-2.7.7-5,1.3c-2.3.7-4.1,1.1-4.7,1.4-.7.3-2.6,1.2-5.6,3.1-2.9,1.9-4.1,2.9-3.2,3.7.9.7,2.7-.2,4.2-1,4.4-2.4,5.2-2,5.2-2,0,0-2.4,1-4.5,2.4-1.7,1.2-3,2.6-3.6,3.2-1.3,1.4.2,2.6,1.6,2.1,1.3-.6,5.4-3.6,8.1-4.5.3-.1.8-.1-.7.8-2.1,1.2-4.1,2.9-5,3.7-1.8,1.6-.5,2.9,1.2,2.1,1.8-.8,4.3-3.1,6.7-3.8,1.3-.3.7.2-.5,1-1.2.7-2.5,2.2-3.3,3-1.6,1.8-.1,3.4,2.3,1.2,2.6-2.4,6.6-4,6.6-4,0,0,2.5-.1,5.3-1.9,2.8-1.8,4-4.3,4-4.3l.8-1.5c6.4-9.4,14.6-15.2,20.1-21.3"/>
  <path class="st1" d="M113,71.9c3.4,2.6,6.7,5.6,11.8,10,6.9,6,12.8,8.8,12.8,8.8,0,0-4.6,5-10.1,16.1-3.2,6.6-12.1,17.7-12.1,17.7l-.7.9s-1.9.6-4.3,1.2c-2.3.7-4.1,1.1-4.7,1.4-.7.3-2.7,1.2-5.6,3.1-2.9,1.9-4.1,2.9-3.2,3.7.9.7,2.7-.2,4.2-1,4.4-2.4,5.2-2,5.2-2,0,0-2.4,1-4.5,2.4-1.7,1.2-3,2.6-3.6,3.2-1.3,1.4.2,2.6,1.6,2.1,1.3-.6,5.4-3.6,8.1-4.5.3-.1.8-.1-.7.8-2.1,1.2-4.1,2.9-5,3.7-1.8,1.6-.5,2.9,1.2,2.1,1.8-.8,4.3-3.1,6.7-3.8,1.3-.3.7.2-.5,1-1.2.7-2.5,2.2-3.3,3-1.6,1.8-.1,3.4,2.3,1.2,2.7-2.4,6.6-4,6.6-4,0,0,2.5-.1,5.3-1.9,2.8-1.8,4-4.3,4-4.3l.8-1.5c6.4-9.4,14.6-15.2,20.1-21.3,5.5-6.2,7.9-10.4,11.6-17.1,3.6-6.7.5-9.9-2.8-12.7-3.3-2.7-4.7-5.3-9.7-10.4-5-5.1-10.4-7.7-13-9.8-2.5-2.1-4.4-6.6-9.3-9.7-2.1-1.3-4.5-2.1-6.6-2.5"/>
  <path class="st1" d="M140.4,86.9s-1.3,1.9-2.9,3.8"/>
  <path class="st2" d="M113.8,126.5s2.9,3.7,4.7,10.5c1.8,6.8-.7,9.8-1.5,15.9-.8,6.1-12.4,11.4-12.4,11.4l-17.2-6.3s-8.5-7.8-6.7-18.5c1.9-10.7,8.8-16,19.3-16.9,10.5-.9,13.7,3.9,13.7,3.9Z"/>
  <path class="st1" d="M113.8,126.5s2.9,3.7,4.7,10.5c1.8,6.8-.7,9.8-1.5,15.9-.8,6.1-12.4,11.4-12.4,11.4l-17.2-6.3s-8.5-7.8-6.7-18.5c1.9-10.7,9.6-16.5,20.1-17,7.5-.3,12.9,3.9,12.9,3.9Z"/>
  <path class="st4" d="M103.9,133.3s5.4,1.2,7.6,8.4c2.2,7.2.8,12.8-5.6,17.8-6.4,5-24.7-6.2-20-15.2,4.7-9,18.1-11,18.1-11Z"/>
  <path class="st1" d="M103.9,133.3s5.4,1.2,7.6,8.4c2.2,7.2.8,12.8-5.6,17.8-6.4,5-24.7-6.2-20-15.2,4.7-9,18.1-11,18.1-11Z"/>
  <path class="st5" d="M108.7,145.6s2-10.4-6.6-13.5c-8.6-3.1-15.1-.4-17.8,4.3-2.7,4.8-1.9,13,.8,19.5,2.7,6.5-1.5,6.2,1.2,23.6,2.7,17.4,4.5,23.8,5.5,32,1,8.2,2.1,13.7,1.6,23.8-.5,10.1,12.1-3.9,11.9-3-.2.9,1.4-4.4,1.4-4.4,0,0-1.5-9.1-.9-16.7s3.5-24.3,2.8-35.8c-.7-11.5-2.8-18.7-2.8-18.7l-.9-4.6s3.6-3.8,3.8-6.6Z"/>
  <path class="st1" d="M108.7,145.6s2-10.4-6.6-13.5c-8.6-3.1-15.1-.4-17.8,4.3-2.7,4.8-1.9,13,.8,19.5,2.7,6.5-1.5,6.2,1.2,23.6,2.7,17.4,4.5,23.8,5.5,32,1,8.2,2.1,13.7,1.6,23.8-.5,10.1,12.1-3.9,11.9-3-.2.9,1.4-4.4,1.4-4.4,0,0-1.5-9.1-.9-16.7s3.5-24.3,2.8-35.8c-.7-11.5-2.8-18.7-2.8-18.7l-.9-4.6s3.6-3.8,3.8-6.6Z"/>
  <path class="st1" d="M90.9,150.2s2.3,5.2,5.3,4.6"/>
  <path class="st1" d="M69.9,125.6s5.8,2.5,12.9-3.7c7.1-6.2,14-2.7,14-2.7"/>
  <path class="st7" d="M105,227.6s1.1-3.3-2.1-4.5c-3.2-1.2-7.6-.7-9.9-.1-2.3.6-1,4.1-1,4.1,0,0-.9,2.3-2.7,9.1-1.5,5.6-2.5,11.1,3.4,13.1,5.9,2,11.6.8,13.6-2.5,2.7-4.3,2.6-7.1,2.2-12.8-.3-4.8,1-11.3-2.5-11.8,0,0,.7,3.2-1.1,5.4Z"/>
  <path class="st1" d="M105,227.6s1.1-3.3-2.1-4.5c-3.2-1.2-7.6-.7-9.9-.1-2.3.6-1,4.1-1,4.1,0,0-1.9,4.3-2.9,10-1.2,7.1-1.3,12.1,4.8,12.6,9.4.8,11.9-.4,13.6-5.5.3-.8,1.3-4.4,1-10.2-.3-4.8,1-11.3-2.5-11.8,0,0,1.1,3.2-1.1,5.4Z"/>
  <path class="st1" d="M104.6,245.3s-2.6,1.7-6,1.7c-3.4,0-6.5-.7-7.1-2.4"/>
  <path class="st1" d="M104.6,241.7c-1.3-2.7-8.7-4.6-13.2-1"/>
  <path class="st7" d="M77.1,316.8c-.6-4.7-2.1-6-2.1-6v-3.6c0,0,.8-3.7-6.6-3.9h0s-1.1,0-1.1,0h-2.4s-1.1,0-1.1,0h0c-7.4.5-6.4,4.1-6.4,4.1v3.6c0,0-1.4,1.3-1.9,6-.5,4.7-1.6,7.4,4.6,7.3h5.3c0,0,2.1-.1,2.1-.1h5.3c6.2-.2,5-2.8,4.4-7.5Z"/>
  <path class="st1" d="M77.1,316.8c-.6-4.7-2.1-6-2.1-6v-3.6c0,0,.8-3.7-6.6-3.9h0s-1.1,0-1.1,0h-2.4s-1.1,0-1.1,0h0c-7.4.5-6.4,4.1-6.4,4.1v3.6c0,0-1.4,1.3-1.9,6-.5,4.7-1.6,7.4,4.6,7.3h5.3c0,0,2.1-.1,2.1-.1h5.3c6.2-.2,5-2.8,4.4-7.5Z"/>
  <path class="st1" d="M59.9,314.6s4.7-4.3,13-.2"/>
  <path class="st1" d="M58.2,320.6s11.8.2,15.9-.3"/>
</svg>