<svg width="123" height="123" viewBox="0 0 123 123" fill="none" xmlns="http://www.w3.org/2000/svg">
<rect width="123" height="123" rx="61.5" fill="#6A9BEA"/>
<path d="M76.3642 33.2048H72.0612C69.4413 33.2048 68.0983 34.5257 68.0762 37.1632C68.0762 37.1853 68.0762 37.2295 68.0762 37.256V43.8122V47.7707H80.3669V37.256C80.3669 36.8672 80.3227 36.5271 80.252 36.2311C79.9648 34.2032 78.666 33.2048 76.3642 33.2048Z" fill="#13B5C6"/>
<path d="M68.0821 47.7705V43.8121H37.6514V47.7705H68.0821Z" fill="white"/>
<path d="M68.0821 51.7556V47.7706H37.6514V51.7556H68.0821Z" fill="#A6D9E8"/>
<path d="M68.082 47.7706V51.7556V58.356C68.082 58.3781 68.082 58.4223 68.082 58.4709C68.1041 61.0642 69.4472 62.3631 72.067 62.3631H76.3701C78.6939 62.3631 79.9884 61.3602 80.2623 59.3368C80.333 59.0408 80.3771 58.7006 80.3771 58.356V47.7706H68.082Z" fill="#0B95A8"/>
<path d="M80.3722 47.7706H84.9712V39.624C84.9712 37.3708 83.6061 36.231 80.8758 36.231H80.2617C80.3324 36.527 80.3766 36.8672 80.3766 37.256V47.7706H80.3722Z" fill="#2B5871"/>
<path d="M84.9708 47.7706H80.3717V58.356C80.3717 58.6962 80.3275 59.0408 80.2568 59.3368H80.8709C83.6012 59.3368 84.9664 58.1969 84.9664 55.9438V47.7706H84.9708Z" fill="#1D3D4D"/>
<path d="M33.6656 33.2048H29.3625C27.0652 33.2048 25.7663 34.2076 25.4703 36.2311C25.4041 36.5271 25.3555 36.8672 25.3555 37.256V47.7707H37.6461V43.8122V37.256C37.6461 37.2339 37.6461 37.1853 37.6461 37.1632C37.6285 34.5257 36.2854 33.2048 33.6656 33.2048Z" fill="#13B5C6"/>
<path d="M37.651 47.7706H25.3604V58.356C25.3604 58.6962 25.4045 59.0408 25.4752 59.3368C25.7491 61.3646 27.0436 62.3631 29.3674 62.3631H33.6705C36.2903 62.3631 37.6334 61.0642 37.6554 58.4709C37.6554 58.4267 37.6554 58.3781 37.6554 58.356V51.7556V47.7706H37.651Z" fill="#0B95A8"/>
<path d="M25.3603 47.7706V37.256C25.3603 36.8672 25.4044 36.527 25.4751 36.231H24.861C22.1308 36.231 20.7656 37.3708 20.7656 39.624V47.7706H25.3603Z" fill="#2B5871"/>
<path d="M20.7607 47.7706V55.9438C20.7607 58.1969 22.1259 59.3368 24.8562 59.3368H25.4703C25.3996 59.0408 25.3554 58.7006 25.3554 58.356V47.7706H20.7607Z" fill="#1D3D4D"/>
<path d="M94.3945 60.2424H90.0914C87.4716 60.2424 86.1285 61.5634 86.1064 64.2009C86.1064 64.223 86.1064 64.2672 86.1064 64.2937V70.8499V74.8128H98.3971V64.2981C98.3971 63.9093 98.3529 63.5691 98.2823 63.2731C97.9907 61.2453 96.6918 60.2424 94.3945 60.2424Z" fill="#13B5C6"/>
<path d="M86.1109 78.7934V74.8128H55.6758V78.7934H86.1109Z" fill="#A6D9E8"/>
<path d="M86.1113 74.8128V78.7978V85.3982C86.1113 85.4202 86.1113 85.4689 86.1113 85.513C86.1334 88.1064 87.4765 89.4052 90.0963 89.4052H94.3994C96.7232 89.4052 98.0177 88.4024 98.2916 86.3789C98.3578 86.0829 98.4064 85.7428 98.4064 85.3982V74.8128H86.1113Z" fill="#0B95A8"/>
<path d="M86.1109 74.8128V70.8499H55.6758V74.8128H86.1109Z" fill="white"/>
<path d="M98.2861 63.2733C98.3524 63.5693 98.401 63.9094 98.401 64.2982V74.8129H103V66.6662C103 64.4131 101.635 63.2733 98.9047 63.2733H98.2861Z" fill="#2B5871"/>
<path d="M102.996 74.8128H98.401V85.3982C98.401 85.7383 98.3568 86.0829 98.2861 86.3789H98.9002C101.631 86.3789 102.996 85.2391 102.996 82.986V74.8128Z" fill="#1D3D4D"/>
<path d="M51.6949 60.2424H47.3918C45.0945 60.2424 43.7956 61.2453 43.4996 63.2687C43.4289 63.5647 43.3848 63.9049 43.3848 64.2937V74.8083H55.6754V70.8455V64.2893C55.6754 64.2672 55.6754 64.223 55.6754 64.1965C55.6534 61.5634 54.3103 60.2424 51.6949 60.2424Z" fill="#13B5C6"/>
<path d="M43.3847 74.8129V64.2982C43.3847 63.9094 43.4289 63.5693 43.4995 63.2733H42.8855C40.1552 63.2733 38.79 64.4131 38.79 66.6662V74.8129H43.3847Z" fill="#2B5871"/>
<path d="M55.6754 74.8128H43.3848V85.3982C43.3848 85.7383 43.4289 86.0829 43.4996 86.3789C43.7735 88.4068 45.068 89.4052 47.3918 89.4052H51.6949C54.3147 89.4052 55.6578 88.1064 55.6799 85.513C55.6799 85.4689 55.6799 85.4202 55.6799 85.3982V78.7978V74.8128H55.6754Z" fill="#0B95A8"/>
<path d="M38.7852 74.8128V82.986C38.7852 85.2391 40.1503 86.3789 42.8806 86.3789H43.4947C43.424 86.0829 43.3798 85.7428 43.3798 85.3982V74.8128H38.7852Z" fill="#1D3D4D"/>
</svg>
