<svg width="123" height="123" viewBox="0 0 123 123" fill="none" xmlns="http://www.w3.org/2000/svg">
<g clip-path="url(#clip0_1034_15229)">
<rect width="123" height="123" rx="61.5" fill="#6A9BEA"/>
<path d="M19.2256 72.5753L30.4926 75.2633" stroke="#2B241C" stroke-width="4.02393" stroke-miterlimit="10" stroke-linecap="round"/>
<path d="M254.022 -72.069L-59.4741 145.28H-146.021C-148.685 145.28 -150.85 143.115 -150.85 140.451C-150.85 137.787 -148.685 135.622 -146.021 135.622H-62.4921L248.526 -80.0042" fill="#DEE8EF"/>
<path d="M311.902 112.71H122.777V134.166H311.902V112.71Z" fill="#A7BCC0"/>
<path d="M50.8549 51.2967C50.8549 51.2967 48.859 54.2905 46.1147 55.7874C43.3704 57.2843 39.1292 58.5317 39.1292 58.5317C39.1292 58.5317 37.3828 59.5296 36.6343 60.2781C35.8859 61.0265 32.8921 66.0162 33.89 66.5152C33.89 66.5152 34.2683 66.9498 34.8236 66.5796C34.8236 66.5796 33.89 68.2616 34.4534 69.1066C35.0167 69.9517 35.7652 69.2917 35.7652 69.2917C35.7652 69.2917 35.2984 70.1367 35.9503 70.692C36.6021 71.2554 37.2621 70.692 37.2621 70.692C37.2621 70.692 36.9804 71.6256 38.3807 71.9073C39.7811 72.1889 41.278 70.692 41.278 70.692L45.2053 67.328C45.2053 67.328 46.9839 66.483 47.3541 66.483C47.7243 66.483 46.1389 69.2917 46.1389 69.2917C46.1389 69.2917 44.8271 71.4405 45.3904 72.189C45.9538 72.9374 47.3541 72.6557 48.4808 71.1588C49.6075 69.6619 52.3196 65.3563 54.0016 63.8594C55.6836 62.3625 56.7138 58.4351 56.7138 58.4351L58.774 53.9444L50.8549 51.2967Z" fill="white"/>
<path d="M44.368 64.4228C44.368 64.4228 42.2192 65.638 40.7223 67.2315C39.2254 68.825 37.2617 70.6921 37.2617 70.6921" stroke="#2B241C" stroke-width="1.60957" stroke-miterlimit="10" stroke-linecap="round" stroke-linejoin="round"/>
<path d="M40.2477 60.6806C40.2477 60.6806 38.3726 61.5257 37.9058 62.1775C37.439 62.8294 34.8154 66.5716 34.8154 66.5716" stroke="#2B241C" stroke-width="1.60957" stroke-miterlimit="10" stroke-linecap="round" stroke-linejoin="round"/>
<path d="M42.5892 62.1774C42.5892 62.1774 40.529 63.4892 39.692 64.3261C38.847 65.1712 35.7646 69.2836 35.7646 69.2836" stroke="#2B241C" stroke-width="1.60957" stroke-miterlimit="10" stroke-linecap="round" stroke-linejoin="round"/>
<path d="M87.0301 50.6691C87.0301 50.6691 82.9176 88.8401 82.1692 92.9526C81.4207 97.065 81.0505 101.934 81.0505 101.934L79.9238 148.338C79.9238 148.338 86.2816 150.962 95.2711 147.968C95.2711 147.968 97.5165 112.791 97.5165 107.173C97.5165 101.564 99.3836 99.3184 99.0134 97.0731C98.6432 94.8277 106.12 65.2679 107.625 64.1412C109.121 63.0145 108.373 65.6381 109.121 67.5052C109.87 69.3804 119.23 99.6886 119.23 99.6886C119.23 99.6886 120.348 105.306 122.972 107.551C125.595 109.797 143.55 131.124 143.55 131.124C143.55 131.124 151.035 131.872 155.525 123.269C155.525 123.269 140.927 103.061 136.814 97.4432C136.814 97.4432 136.814 94.4495 134.947 92.9526C134.947 92.9526 131.953 70.1288 130.827 61.8958C129.708 53.6629 130.328 52.4155 126.465 42.5568L123.342 34.9435L90.4102 41.3094L87.0301 50.6691Z" fill="#256093"/>
<path d="M84.0364 51.2967L85.5333 57.0348C85.5333 57.0348 92.0199 56.7853 102.249 55.7874C112.478 54.7895 121.708 49.5503 121.708 49.5503C121.708 49.5503 122.207 48.5523 122.207 47.3049C122.207 46.0575 121.459 39.4422 121.459 39.4422L123.085 42.9349L124.952 48.0454L127.696 47.2969C127.696 47.2969 127.447 36.0701 123.205 31.0805C118.964 26.0908 113.725 19.1052 113.725 19.1052L81.791 30.0825L84.0364 51.2967Z" fill="white"/>
<path d="M71.8119 -25.5442H70.315L68.3191 -22.3009C68.3191 -22.3009 63.3294 -16.0638 62.082 -12.5711C60.8346 -9.0783 59.5872 -1.84326 59.5872 5.39177C59.5872 12.6268 60.3356 23.1051 60.3356 23.1051C60.3356 23.1051 59.3377 24.3525 59.0882 27.0969C58.8387 29.8412 52.8511 44.3112 51.8532 46.5566C50.8552 48.802 48.8594 52.7937 48.8594 52.7937C48.8594 52.7937 54.348 55.7875 58.8387 57.0349C58.8387 57.0349 61.0841 52.5442 61.583 51.7958C62.082 51.0473 70.814 33.5834 72.0614 29.5917C73.3088 25.5999 74.8057 19.3629 74.8057 19.3629C74.8057 19.3629 78.2985 34.3319 78.548 37.8247C78.7974 41.3175 80.7933 45.0597 80.7933 45.0597L83.2881 52.5442C83.2881 52.5442 83.5376 53.7916 84.785 54.0411C86.0325 54.2906 113.725 51.2968 118.964 47.5545L117.717 41.8164C117.717 41.8164 117.966 32.835 118.216 31.0886C118.216 31.0886 120.711 36.0783 122.956 38.0742C125.201 40.07 126.449 42.5649 126.449 42.5649L127.069 46.2749L127.946 45.8564C128.767 45.4621 129.29 44.6251 129.266 43.7157C129.233 42.6051 129.072 40.8668 128.557 38.4202C127.559 33.68 126.191 31.3381 124.445 28.3443C122.699 25.3505 114.965 0.651592 114.965 0.651592C114.965 0.651592 123.696 8.13611 125.443 9.8825C127.189 11.6289 140.911 33.5834 140.911 33.5834C140.911 33.5834 147.647 32.336 150.391 28.5938C150.391 28.5938 140.911 4.14435 137.418 -0.595844C133.925 -5.33604 116.711 -27.5401 111.472 -30.7834C106.233 -34.0267 90.5151 -33.7772 90.5151 -33.7772L71.8119 -25.5442Z" fill="#ECE37B"/>
<path d="M65.5742 -8.08032C65.5742 -8.08032 67.0711 -1.09477 69.3165 3.64542C71.5618 8.38562 73.3082 12.6268 74.8051 19.3629" stroke="#2B241C" stroke-width="1.60957" stroke-miterlimit="10" stroke-linecap="round"/>
<path d="M106.489 -25.7937C106.489 -25.7937 104.743 -20.804 105.242 -14.3174C105.741 -7.83086 106.988 -6.83293 106.988 -6.83293L115.221 1.64953" stroke="#2B241C" stroke-width="1.60957" stroke-miterlimit="10" stroke-linecap="round"/>
<path d="M51.1045 47.804C51.1045 47.804 54.5973 50.2989 61.5828 51.7958" stroke="#2B241C" stroke-width="1.60957" stroke-miterlimit="10" stroke-linecap="round" stroke-linejoin="round"/>
<path d="M102.249 55.7874L104.245 64.1411H107.609L105.742 55.1597" stroke="#2B241C" stroke-width="1.60957" stroke-miterlimit="10" stroke-linecap="round" stroke-linejoin="round"/>
<path d="M104.244 64.1412C104.244 64.1412 102.369 65.6381 100.872 71.2555C99.3748 76.8649 96.0108 90.7153 96.0108 93.7091C96.0108 96.7029 96.0108 97.0731 94.8841 100.075C93.7655 103.069 92.2686 142.358 92.2686 142.358" stroke="#2B241C" stroke-width="1.60957" stroke-miterlimit="10" stroke-linecap="round" stroke-linejoin="round"/>
<path d="M84.5908 47.6753C84.5908 47.6753 96.6626 46.7418 117.708 41.8165" stroke="#2B241C" stroke-width="1.60957" stroke-miterlimit="10" stroke-linecap="round"/>
</g>
<defs>
<clipPath id="clip0_1034_15229">
<rect width="123" height="123" rx="61.5" fill="white"/>
</clipPath>
</defs>
</svg>
