<svg width="300" height="270" viewBox="0 0 300 270" fill="none" xmlns="http://www.w3.org/2000/svg">
<g clip-path="url(#clip0_629_3913)">
<g clip-path="url(#clip1_629_3913)">
<path d="M149.5 293.051C228.201 293.051 292 229.251 292 150.551C292 71.8502 228.201 8.05078 149.5 8.05078C70.7994 8.05078 7 71.8502 7 150.551C7 229.251 70.7994 293.051 149.5 293.051Z" fill="#87C878" stroke="black" stroke-width="1.5" stroke-miterlimit="10"/>
<path d="M293.682 270.004H12.9108C12.4104 270.004 12 269.664 12 269.251C12 268.837 12.4104 268.498 12.9108 268.498H293.682C294.183 268.498 294.593 268.837 294.593 269.251C294.593 269.664 294.183 270.004 293.682 270.004Z" fill="black"/>
</g>
<path d="M138.115 99.2944L153.12 148.242C153.12 149.413 153.443 150.491 153.998 151.493C155.03 153.341 156.94 154.898 159.467 156.223C168.879 161.168 186.765 162.693 198.766 162.693C210.766 162.693 228.652 161.168 238.065 156.223C241.007 154.682 243.118 152.802 243.965 150.553L244.319 149.243L260.217 97.5996L138.115 99.2944Z" fill="white" stroke="black" stroke-width="1.5" stroke-miterlimit="10" stroke-linecap="round" stroke-linejoin="round"/>
<path d="M199.151 119.231C176.412 119.231 137.914 115.102 137.914 99.6643C137.914 84.2113 176.397 80.0977 199.151 80.0977C221.889 80.0977 260.387 84.2267 260.387 99.6643C260.387 115.117 221.904 119.231 199.151 119.231Z" fill="white" stroke="black" stroke-width="1.5" stroke-miterlimit="10" stroke-linecap="round" stroke-linejoin="round"/>
<path d="M148.482 99.4953C148.482 92.1463 171.175 86.1992 199.151 86.1992C227.142 86.1992 249.819 92.1617 249.819 99.4953C249.819 106.829 227.127 112.791 199.151 112.791C171.175 112.791 148.482 106.844 148.482 99.4953Z" fill="#87C878" stroke="black" stroke-width="1.5" stroke-miterlimit="10" stroke-linecap="round" stroke-linejoin="round"/>
<path d="M175.242 96.289V86.7214C175.242 86.3054 175.719 86.0897 176.058 86.3362C180.818 89.7719 187.458 88.2312 195.284 85.874C195.607 85.7816 195.946 86.0127 195.946 86.3516V96.3506C195.946 96.5201 195.854 96.6896 195.715 96.782C191.325 99.6477 187.858 101.666 175.58 96.7666C175.38 96.6896 175.242 96.5047 175.242 96.289Z" fill="#479E1A" stroke="black" stroke-width="1.5" stroke-miterlimit="10" stroke-linecap="round" stroke-linejoin="round"/>
<path d="M215.218 98.2149L212.815 109.662C212.707 110.171 212.091 110.309 211.737 109.924C206.884 104.609 198.565 104.794 188.598 105.626C188.182 105.656 187.843 105.287 187.936 104.886L190.447 92.915C190.493 92.7147 190.632 92.5452 190.832 92.4682C196.809 90.1263 201.461 88.6011 214.941 97.5678C215.157 97.6911 215.265 97.953 215.218 98.2149Z" fill="#479E1A" stroke="black" stroke-width="1.5" stroke-miterlimit="10" stroke-linecap="round" stroke-linejoin="round"/>
<path d="M225.987 88.3859L224.631 97.9381C224.57 98.3541 224.061 98.5081 223.753 98.2154C219.47 94.1172 212.63 94.718 204.481 95.9506C204.142 95.9968 203.849 95.7195 203.896 95.3805L205.313 85.3969C205.344 85.2275 205.451 85.0734 205.606 84.9964C210.397 82.747 214.14 81.2217 225.725 87.862C225.91 87.9699 226.018 88.1856 225.987 88.3859Z" fill="#479E1A" stroke="black" stroke-width="1.5" stroke-miterlimit="10" stroke-linecap="round" stroke-linejoin="round"/>
<path d="M237.171 94.8251L238.866 102.929C238.943 103.283 238.542 103.191 238.249 103.407C234.46 106.057 228.267 103.838 222.043 107.212C221.781 107.351 221.458 107.212 221.396 106.919L219.624 98.4457C219.594 98.307 219.64 98.153 219.748 98.0451C222.952 94.8251 229.099 99.0774 236.801 94.4861C236.971 94.3783 237.14 94.6402 237.171 94.8251Z" fill="#479E1A" stroke="black" stroke-width="1.5" stroke-miterlimit="10" stroke-linecap="round" stroke-linejoin="round"/>
<path d="M196.717 100.033L197.379 106.011C197.41 106.273 197.133 106.18 196.902 106.319C193.975 107.967 189.646 105.934 184.901 107.952C184.7 108.029 184.485 107.906 184.454 107.69L183.761 101.435C183.745 101.327 183.792 101.219 183.884 101.158C186.426 99.0469 190.585 102.56 196.486 99.771C196.609 99.694 196.717 99.8943 196.717 100.033Z" fill="#479E1A" stroke="black" stroke-width="1.5" stroke-miterlimit="10" stroke-linecap="round" stroke-linejoin="round"/>
<path d="M178.122 94.2096L178.492 102.837C178.508 103.223 178.092 103.438 177.768 103.223C173.331 100.311 167.4 101.944 160.422 104.363C160.129 104.471 159.821 104.255 159.805 103.947L159.42 94.9183C159.42 94.7642 159.482 94.6102 159.621 94.5177C163.472 91.7599 166.522 89.8187 177.799 93.7782C177.984 93.8552 178.122 94.0247 178.122 94.2096Z" fill="#479E1A" stroke="black" stroke-width="1.5" stroke-miterlimit="10" stroke-linecap="round" stroke-linejoin="round"/>
<path d="M160.56 115.611H35.3765C36.5781 141.294 53.2313 162.941 76.2623 171.446C77.7104 171.985 78.6963 173.356 78.6963 174.897C78.6963 176.869 80.2984 178.471 82.2703 178.471H113.682C115.654 178.471 117.256 176.869 117.256 174.897C117.256 173.341 118.226 171.985 119.69 171.446C142.721 162.956 159.374 141.31 160.56 115.611Z" fill="white" stroke="black" stroke-width="1.5" stroke-miterlimit="10" stroke-linecap="round" stroke-linejoin="round"/>
<path d="M97.9683 127.489C132.579 127.489 160.637 122.04 160.637 115.318C160.637 108.596 132.579 103.146 97.9683 103.146C63.3572 103.146 35.2994 108.596 35.2994 115.318C35.2994 122.04 63.3572 127.489 97.9683 127.489Z" fill="#EECA9A" stroke="black" stroke-width="1.5" stroke-miterlimit="10" stroke-linecap="round" stroke-linejoin="round"/>
<path d="M97.9683 127.489C132.579 127.489 160.637 122.04 160.637 115.318C160.637 108.596 132.579 103.146 97.9683 103.146C63.3572 103.146 35.2994 108.596 35.2994 115.318C35.2994 122.04 63.3572 127.489 97.9683 127.489Z" fill="#EECA9A" stroke="black" stroke-width="1.5" stroke-miterlimit="10" stroke-linecap="round" stroke-linejoin="round"/>
<mask id="mask0_629_3913" style="mask-type:luminance" maskUnits="userSpaceOnUse" x="34" y="55" width="127" height="73">
<path d="M160.637 115.318C160.021 122.004 132.584 127.489 97.9684 127.489C63.3526 127.489 37.0711 121.804 35.2995 115.318C28.7214 91.2522 63.3526 55 97.9684 55C132.584 55 162.856 91.2368 160.637 115.318Z" fill="white"/>
</mask>
<g mask="url(#mask0_629_3913)">
<path d="M159.328 118.66C160.884 115.702 159.775 113.237 158.018 111.219C156.262 109.216 153.705 107.876 150.994 107.537C149.792 101.913 144.739 97.5069 139.209 97.3221C136.374 89.7881 129.334 85.3048 122.263 85.6437C117.579 79.4194 109.276 77.1237 102.929 79.9278C92.6228 75.1825 81.6542 78.4333 76.2007 85.9673C65.3399 86.2138 58.3305 90.4968 55.7116 96.7674C48.9949 94.4102 42.9251 97.9691 41.893 103.084C37.0095 106.659 35.1763 112.143 36.0544 117.274C36.0698 117.289 81.7004 161.861 159.328 118.66Z" fill="#FFF5C5" stroke="black" stroke-width="1.5" stroke-miterlimit="10" stroke-linecap="round" stroke-linejoin="round"/>
</g>
<path d="M160.637 115.318C160.637 122.036 132.584 127.49 97.9683 127.49C63.3525 127.49 35.2994 122.036 35.2994 115.318" stroke="black" stroke-width="1.5" stroke-miterlimit="10" stroke-linecap="round" stroke-linejoin="round"/>
<path d="M122.725 94.641C123.002 94.4561 123.279 94.2866 123.587 94.1634C123.88 94.0401 124.188 93.9477 124.496 93.9323C125.005 93.9169 125.559 94.1788 125.698 94.6564C125.79 94.9491 125.713 95.2573 125.744 95.5654C125.775 95.9352 125.96 96.2741 126.037 96.6285C126.145 97.1523 126.021 97.7069 125.775 98.2C125.544 98.6776 125.205 99.109 124.866 99.525C123.757 100.896 122.555 102.283 120.968 103.069C120.152 103.469 119.212 103.7 118.35 103.454C117.487 103.207 116.732 102.391 116.794 101.497C116.824 101.066 117.025 100.665 117.24 100.295C118.273 98.4927 119.767 97.029 121.338 95.6578C121.6 95.4267 121.893 95.211 122.186 95.0108L122.725 94.641Z" fill="#FDE4BA" stroke="black" stroke-width="1.5" stroke-miterlimit="10" stroke-linecap="round" stroke-linejoin="round"/>
<path d="M124.727 94.2411C124.204 94.6879 124.05 95.3504 124.111 96.0437C124.158 96.737 124.466 97.3841 124.866 97.9541C124.959 98.0928 125.097 98.2469 125.267 98.2469C125.405 98.2469 125.513 98.1544 125.59 98.0466C125.837 97.7538 125.944 97.3379 125.867 96.9527C125.806 96.6754 125.667 96.4135 125.652 96.1361C125.636 95.8588 125.729 95.5815 125.744 95.3042C125.76 94.9498 125.621 94.5954 125.359 94.3489C125.267 94.2565 125.174 94.1949 125.051 94.1641C124.943 94.1641 124.727 94.2411 124.727 94.2411Z" fill="#FDE4BA" stroke="black" stroke-width="1.5" stroke-miterlimit="10" stroke-linecap="round" stroke-linejoin="round"/>
<path d="M73.3814 94.8103C73.1812 94.5484 72.9963 94.2711 72.8423 93.9783C72.7036 93.701 72.5804 93.3929 72.5496 93.0847C72.5034 92.5763 72.719 92.0063 73.1966 91.8368C73.4739 91.7289 73.7974 91.7752 74.0901 91.7289C74.4598 91.6673 74.7833 91.467 75.1377 91.3592C75.6614 91.2205 76.2161 91.313 76.7245 91.5132C77.2174 91.7135 77.6641 92.0217 78.1109 92.3452C79.559 93.3621 81.0225 94.4713 81.9006 95.9966C82.3474 96.7824 82.6401 97.7068 82.4552 98.585C82.2703 99.4631 81.5 100.264 80.6065 100.264C80.1752 100.264 79.7593 100.095 79.3741 99.9099C77.5101 99.0009 75.9387 97.5989 74.4752 96.1353C74.2288 95.8888 73.9977 95.6114 73.782 95.3341L73.3814 94.8103Z" fill="#FDE4BA" stroke="black" stroke-width="1.5" stroke-miterlimit="10" stroke-linecap="round" stroke-linejoin="round"/>
<path d="M72.8423 92.8373C73.3353 93.3303 73.9977 93.4382 74.691 93.3303C75.3842 93.2379 76.0004 92.8835 76.555 92.4521C76.6936 92.3443 76.8323 92.2056 76.8169 92.0207C76.8015 91.8821 76.709 91.7896 76.6012 91.6972C76.2931 91.4661 75.8618 91.3891 75.4921 91.4815C75.2148 91.5585 74.9683 91.7126 74.691 91.7588C74.4137 91.805 74.1364 91.7126 73.8437 91.728C73.4894 91.7434 73.1504 91.8975 72.9193 92.1748C72.8423 92.2672 72.7653 92.3751 72.7499 92.4983C72.7499 92.637 72.8423 92.8373 72.8423 92.8373Z" fill="#FDE4BA" stroke="black" stroke-width="1.5" stroke-miterlimit="10" stroke-linecap="round" stroke-linejoin="round"/>
<path d="M54.1864 111.759C54.017 111.543 53.8628 111.312 53.7396 111.081C53.6164 110.85 53.524 110.603 53.4932 110.341C53.4469 109.925 53.6318 109.448 54.0323 109.309C54.2634 109.217 54.5253 109.263 54.7718 109.217C55.0799 109.17 55.3418 109.001 55.6345 108.924C56.0659 108.801 56.528 108.878 56.9439 109.047C57.3599 109.217 57.7296 109.478 58.0839 109.725C59.2855 110.572 60.4872 111.481 61.2267 112.745C61.5964 113.392 61.8429 114.162 61.6888 114.886C61.5347 115.61 60.9031 116.273 60.1483 116.273C59.7939 116.273 59.455 116.134 59.1315 115.98C57.5909 115.225 56.297 114.07 55.0799 112.853C54.8797 112.652 54.6794 112.421 54.4945 112.19L54.1864 111.759Z" fill="#FDE4BA" stroke="black" stroke-width="1.5" stroke-miterlimit="10" stroke-linecap="round" stroke-linejoin="round"/>
<path d="M53.755 110.125C54.1556 110.541 54.7101 110.618 55.2801 110.541C55.8501 110.464 56.3739 110.171 56.8207 109.817C56.9285 109.725 57.0518 109.617 57.0364 109.463C57.021 109.355 56.944 109.262 56.8515 109.201C56.5896 109.016 56.2508 108.939 55.9427 109.031C55.7116 109.093 55.5112 109.232 55.2801 109.262C55.0491 109.293 54.8181 109.232 54.587 109.232C54.2943 109.247 54.0169 109.37 53.832 109.601C53.7704 109.678 53.7088 109.771 53.6934 109.863C53.678 109.956 53.755 110.125 53.755 110.125Z" fill="#FDE4BA" stroke="black" stroke-width="1.5" stroke-miterlimit="10" stroke-linecap="round" stroke-linejoin="round"/>
<path d="M92.5919 109.77C92.4225 109.555 92.2685 109.324 92.1452 109.092C92.022 108.861 91.9295 108.615 91.8987 108.353C91.8525 107.937 92.0374 107.459 92.4379 107.321C92.669 107.228 92.9309 107.274 93.1773 107.228C93.4854 107.182 93.7473 107.013 94.04 106.935C94.4714 106.812 94.9335 106.889 95.3494 107.059C95.7654 107.228 96.1351 107.49 96.4894 107.737C97.691 108.584 98.8927 109.493 99.6322 110.756C100.002 111.403 100.248 112.174 100.094 112.898C99.9403 113.622 99.3086 114.285 98.5538 114.285C98.1995 114.285 97.8606 114.146 97.5371 113.992C95.9965 113.237 94.7025 112.081 93.4855 110.864C93.2852 110.664 93.0849 110.433 92.9001 110.202L92.5919 109.77Z" fill="#FDE4BA" stroke="black" stroke-width="1.5" stroke-miterlimit="10" stroke-linecap="round" stroke-linejoin="round"/>
<path d="M92.1451 108.137C92.5457 108.538 93.1003 108.63 93.6703 108.553C94.2402 108.476 94.764 108.183 95.2108 107.829C95.3186 107.736 95.4418 107.629 95.4264 107.474C95.411 107.367 95.334 107.274 95.2415 107.213C94.9796 107.028 94.6408 106.951 94.3327 107.043C94.1016 107.105 93.9013 107.243 93.6703 107.274C93.4392 107.305 93.2081 107.243 92.977 107.243C92.6843 107.259 92.407 107.382 92.2221 107.613C92.1605 107.69 92.0989 107.783 92.0835 107.875C92.0681 107.967 92.1451 108.137 92.1451 108.137Z" fill="#FDE4BA" stroke="black" stroke-width="1.5" stroke-miterlimit="10" stroke-linecap="round" stroke-linejoin="round"/>
<path d="M130.227 114.516C130.058 114.301 129.904 114.07 129.78 113.839C129.657 113.607 129.565 113.361 129.534 113.099C129.488 112.683 129.673 112.205 130.073 112.067C130.304 111.974 130.566 112.021 130.813 111.974C131.121 111.928 131.383 111.759 131.675 111.682C132.107 111.558 132.569 111.635 132.985 111.805C133.401 111.974 133.77 112.236 134.125 112.483C135.326 113.33 136.528 114.239 137.267 115.502C137.637 116.15 137.884 116.92 137.73 117.644C137.576 118.368 136.944 119.031 136.189 119.031C135.835 119.031 135.496 118.892 135.172 118.738C133.632 117.983 132.338 116.827 131.121 115.61C130.92 115.41 130.72 115.179 130.535 114.948L130.227 114.516Z" fill="#FDE4BA" stroke="black" stroke-width="1.5" stroke-miterlimit="10" stroke-linecap="round" stroke-linejoin="round"/>
<path d="M129.78 112.883C130.181 113.299 130.736 113.376 131.306 113.299C131.876 113.222 132.399 112.929 132.846 112.575C132.954 112.482 133.077 112.375 133.062 112.221C133.046 112.113 132.969 112.02 132.877 111.959C132.615 111.774 132.276 111.697 131.968 111.789C131.737 111.851 131.537 111.989 131.306 112.02C131.074 112.051 130.843 111.989 130.612 111.989C130.32 112.005 130.042 112.128 129.857 112.359C129.796 112.436 129.734 112.529 129.719 112.621C129.703 112.714 129.78 112.883 129.78 112.883Z" fill="#FDE4BA" stroke="black" stroke-width="1.5" stroke-miterlimit="10" stroke-linecap="round" stroke-linejoin="round"/>
<path d="M104.315 95.7823C104.315 97.4154 102.991 98.7404 101.358 98.7404C99.7246 98.7404 98.3998 97.4154 98.3998 95.7823C98.3998 94.1492 99.7246 92.8242 101.358 92.8242C102.991 92.8242 104.315 94.1492 104.315 95.7823Z" fill="#CFDA66" stroke="black" stroke-width="1.5" stroke-miterlimit="10" stroke-linecap="round" stroke-linejoin="round"/>
<path d="M78.8504 109.817C78.8504 111.451 77.5255 112.776 75.8925 112.776C74.2595 112.776 72.9347 111.451 72.9347 109.817C72.9347 108.184 74.2595 106.859 75.8925 106.859C77.5255 106.859 78.8504 108.184 78.8504 109.817Z" fill="#CFDA66" stroke="black" stroke-width="1.5" stroke-miterlimit="10" stroke-linecap="round" stroke-linejoin="round"/>
<path d="M140.148 103.146C140.148 104.779 138.823 106.104 137.19 106.104C135.557 106.104 134.232 104.779 134.232 103.146C134.232 101.512 135.557 100.188 137.19 100.188C138.823 100.188 140.148 101.512 140.148 103.146Z" fill="#CFDA66" stroke="black" stroke-width="1.5" stroke-miterlimit="10" stroke-linecap="round" stroke-linejoin="round"/>
<path d="M119.767 116.597C119.767 118.23 118.442 119.555 116.809 119.555C115.176 119.555 113.851 118.23 113.851 116.597C113.851 114.964 115.176 113.639 116.809 113.639C118.442 113.623 119.767 114.948 119.767 116.597Z" fill="#CFDA66" stroke="black" stroke-width="1.5" stroke-miterlimit="10" stroke-linecap="round" stroke-linejoin="round"/>
<path d="M204.188 218.822C240.688 218.822 270.277 206.413 270.277 191.106C270.277 175.798 240.688 163.389 204.188 163.389C167.688 163.389 138.099 175.798 138.099 191.106C138.099 206.413 167.688 218.822 204.188 218.822Z" fill="white" stroke="black" stroke-width="1.5" stroke-miterlimit="10" stroke-linecap="round" stroke-linejoin="round"/>
<path d="M193.127 173.018C188.767 174.42 184.315 175.391 179.832 175.93C176.212 176.377 172.361 176.623 169.372 179.212C165.983 182.154 164.489 187.393 163.287 192.323C162.779 194.403 162.317 196.822 163.302 198.609C163.842 199.595 164.735 200.196 165.613 200.658C172.361 204.217 180.094 202.291 187.335 203.585C194.129 204.802 200.46 208.854 207.3 209.64C212.677 210.256 218.068 208.793 223.337 207.344C229.314 205.711 235.276 204.063 241.253 202.43C242.363 202.122 243.518 201.798 244.427 200.92C245.505 199.872 246.075 198.193 246.306 196.514C247.138 190.721 244.458 184.804 240.668 181.307C236.894 177.81 232.195 176.284 227.573 175.175C222.952 174.066 218.238 173.28 213.909 170.954C211.213 169.505 208.733 167.487 206.006 166.162C203.171 164.791 200.06 163.836 198.134 166.748C196.162 169.752 197.117 171.739 193.127 173.018Z" fill="#87C878" stroke="black" stroke-width="1.5" stroke-miterlimit="10" stroke-linecap="round" stroke-linejoin="round"/>
<path d="M234.244 185.774C234.999 187.33 235.769 188.948 235.754 190.674C235.738 192.322 235.014 193.863 234.306 195.342C232.195 199.748 229.746 204.494 225.278 206.466C224.878 206.635 224.184 206.573 224.292 206.142C224.6 205.711 224.893 205.264 225.201 204.832C223.676 206.959 221.011 208.222 218.392 208.068C218.561 207.313 218.731 206.543 218.916 205.788C214.217 209.578 207.146 210.132 201.924 207.082C202.293 206.897 202.648 206.712 203.017 206.527C198.504 207.097 194.221 204.571 190.37 202.152C190.046 201.951 189.692 201.72 189.538 201.366C189.337 200.919 189.461 200.411 189.615 199.933C191.171 194.818 193.189 189.842 195.623 185.081C196.378 183.617 197.24 182.092 198.704 181.322C198.057 181.229 197.379 181.43 196.886 181.846C199.104 177.116 203.942 173.726 209.149 173.264C208.363 172.94 207.5 172.802 206.653 172.833C208.856 171.708 211.259 170.891 213.724 170.86C216.189 170.814 218.731 171.6 220.518 173.31C219.825 172.617 219.316 171.739 219.07 170.799C223.014 172.386 226.649 174.728 229.715 177.67C230.87 178.78 231.471 179.858 232.334 181.214C233.428 180.428 234.845 180.135 236.17 179.873C237.972 179.534 240.067 179.257 241.423 180.505C241.685 181.383 242.178 182.107 242.44 182.986C239.852 182.893 236.355 184.357 234.244 185.774Z" fill="#479E1A" stroke="black" stroke-width="1.5" stroke-miterlimit="10" stroke-linecap="round" stroke-linejoin="round"/>
<path d="M228.467 184.08C220.58 186.915 212.769 189.996 205.251 193.725C202.54 195.065 199.751 196.621 198.196 199.21" stroke="black" stroke-width="1.5" stroke-miterlimit="10" stroke-linecap="round" stroke-linejoin="round"/>
<path d="M201.415 184.402C203.618 184.849 205.79 185.481 207.901 186.297" stroke="black" stroke-width="1.5" stroke-miterlimit="10" stroke-linecap="round" stroke-linejoin="round"/>
<path d="M206.268 180.15C209.673 180.551 212.939 182.045 215.48 184.356" stroke="black" stroke-width="1.5" stroke-miterlimit="10" stroke-linecap="round" stroke-linejoin="round"/>
<path d="M214.279 176.822C216.821 177.608 219.131 179.164 220.811 181.229" stroke="black" stroke-width="1.5" stroke-miterlimit="10" stroke-linecap="round" stroke-linejoin="round"/>
<path d="M211.706 194.756C212.153 196.451 211.675 198.361 210.474 199.655" stroke="black" stroke-width="1.5" stroke-miterlimit="10" stroke-linecap="round" stroke-linejoin="round"/>
<path d="M218.269 191.49C218.715 194.063 218.33 196.759 217.19 199.101" stroke="black" stroke-width="1.5" stroke-miterlimit="10" stroke-linecap="round" stroke-linejoin="round"/>
<path d="M224.985 189.502C225.17 193.046 224.308 196.635 222.505 199.686" stroke="black" stroke-width="1.5" stroke-miterlimit="10" stroke-linecap="round" stroke-linejoin="round"/>
<path d="M222.305 178.256C223.214 179.72 224.138 181.26 224.292 182.986C224.446 184.619 223.876 186.221 223.322 187.762C221.658 192.353 219.686 197.314 215.434 199.718C215.049 199.933 214.356 199.933 214.417 199.502C214.679 199.04 214.926 198.577 215.188 198.115C213.878 200.38 211.352 201.905 208.733 202.013C208.825 201.243 208.933 200.473 209.026 199.702C204.727 203.939 197.733 205.187 192.234 202.676C192.573 202.46 192.927 202.244 193.266 202.013C188.829 203.03 184.331 200.935 180.248 198.916C179.909 198.747 179.54 198.562 179.339 198.223C179.093 197.807 179.17 197.268 179.262 196.79C180.31 191.552 181.82 186.391 183.761 181.414C184.362 179.874 185.07 178.271 186.457 177.362C185.81 177.332 185.147 177.593 184.7 178.071C186.441 173.141 190.924 169.289 196.054 168.319C195.238 168.087 194.375 168.026 193.528 168.134C195.607 166.793 197.918 165.746 200.368 165.468C202.817 165.176 205.436 165.715 207.377 167.24C206.622 166.624 206.021 165.792 205.683 164.883C209.765 166.069 213.616 168.041 216.959 170.676C218.222 171.677 218.916 172.679 219.917 173.942C220.934 173.048 222.305 172.617 223.599 172.232C225.355 171.708 227.419 171.246 228.883 172.34C229.222 173.187 229.792 173.85 230.146 174.697C227.604 174.836 224.277 176.638 222.305 178.256Z" fill="#479E1A" stroke="black" stroke-width="1.5" stroke-miterlimit="10" stroke-linecap="round" stroke-linejoin="round"/>
<path d="M216.389 177.131C208.825 180.736 201.354 184.572 194.252 189.025C191.695 190.627 189.06 192.445 187.766 195.172" stroke="black" stroke-width="1.5" stroke-miterlimit="10" stroke-linecap="round" stroke-linejoin="round"/>
<path d="M189.507 180.15C191.756 180.366 193.974 180.782 196.147 181.383" stroke="black" stroke-width="1.5" stroke-miterlimit="10" stroke-linecap="round" stroke-linejoin="round"/>
<path d="M193.913 175.42C197.348 175.482 200.737 176.637 203.495 178.686" stroke="black" stroke-width="1.5" stroke-miterlimit="10" stroke-linecap="round" stroke-linejoin="round"/>
<path d="M201.554 171.322C204.157 171.862 206.607 173.171 208.486 175.066" stroke="black" stroke-width="1.5" stroke-miterlimit="10" stroke-linecap="round" stroke-linejoin="round"/>
<path d="M200.768 189.426C201.369 191.074 201.092 193.016 200.029 194.418" stroke="black" stroke-width="1.5" stroke-miterlimit="10" stroke-linecap="round" stroke-linejoin="round"/>
<path d="M206.977 185.527C207.67 188.039 207.562 190.766 206.668 193.2" stroke="black" stroke-width="1.5" stroke-miterlimit="10" stroke-linecap="round" stroke-linejoin="round"/>
<path d="M213.462 182.877C214.001 186.39 213.493 190.041 211.999 193.261" stroke="black" stroke-width="1.5" stroke-miterlimit="10" stroke-linecap="round" stroke-linejoin="round"/>
<path d="M213.123 173.033C214.14 174.419 215.188 175.883 215.465 177.593C215.742 179.211 215.295 180.859 214.864 182.431C213.57 187.13 211.983 192.245 207.932 194.972C207.577 195.219 206.869 195.265 206.899 194.833C207.115 194.356 207.346 193.863 207.562 193.385C206.422 195.742 204.034 197.453 201.431 197.761C201.461 196.99 201.508 196.205 201.538 195.434C197.579 199.995 190.708 201.782 185.039 199.702C185.363 199.455 185.686 199.209 186.01 198.962C181.666 200.318 177.013 198.593 172.792 196.882C172.438 196.744 172.053 196.574 171.837 196.266C171.56 195.866 171.59 195.326 171.652 194.849C172.284 189.533 173.393 184.295 174.949 179.18C175.426 177.609 176.012 175.945 177.321 174.943C176.674 174.959 176.043 175.282 175.627 175.775C176.982 170.737 181.142 166.546 186.179 165.175C185.347 165.006 184.469 165.006 183.653 165.191C185.625 163.696 187.843 162.479 190.262 162.001C192.68 161.524 195.33 161.847 197.379 163.219C196.578 162.664 195.915 161.878 195.499 161C199.659 161.863 203.664 163.542 207.192 165.899C208.532 166.793 209.303 167.733 210.396 168.919C211.336 167.948 212.676 167.409 213.94 166.932C215.65 166.269 217.668 165.637 219.224 166.639C219.64 167.455 220.256 168.072 220.656 168.904C218.145 169.212 214.972 171.261 213.123 173.033Z" fill="#479E1A" stroke="black" stroke-width="1.5" stroke-miterlimit="10" stroke-linecap="round" stroke-linejoin="round"/>
<path d="M207.146 172.371C199.875 176.562 192.727 180.968 185.994 185.96C183.576 187.763 181.096 189.781 180.017 192.6" stroke="black" stroke-width="1.5" stroke-miterlimit="10" stroke-linecap="round" stroke-linejoin="round"/>
<path d="M180.587 177.471C182.836 177.517 185.085 177.763 187.304 178.179" stroke="black" stroke-width="1.5" stroke-miterlimit="10" stroke-linecap="round" stroke-linejoin="round"/>
<path d="M184.608 172.417C188.028 172.216 191.509 173.095 194.421 174.928" stroke="black" stroke-width="1.5" stroke-miterlimit="10" stroke-linecap="round" stroke-linejoin="round"/>
<path d="M191.91 167.732C194.56 168.056 197.102 169.181 199.12 170.922" stroke="black" stroke-width="1.5" stroke-miterlimit="10" stroke-linecap="round" stroke-linejoin="round"/>
<path d="M192.526 185.852C193.266 187.454 193.127 189.411 192.187 190.89" stroke="black" stroke-width="1.5" stroke-miterlimit="10" stroke-linecap="round" stroke-linejoin="round"/>
<path d="M198.411 181.477C199.305 183.926 199.397 186.653 198.688 189.149" stroke="black" stroke-width="1.5" stroke-miterlimit="10" stroke-linecap="round" stroke-linejoin="round"/>
<path d="M204.681 178.332C205.498 181.783 205.266 185.481 204.034 188.793" stroke="black" stroke-width="1.5" stroke-miterlimit="10" stroke-linecap="round" stroke-linejoin="round"/>
<path d="M169 215H39V224H169V215Z" fill="white" stroke="black" stroke-width="1.5" stroke-miterlimit="10" stroke-linecap="round" stroke-linejoin="round"/>
<path d="M160.976 183.31L152.087 187.563L150.562 188.302C147.774 189.643 144.492 188.795 142.536 186.392C135.265 177.379 113.25 169.829 93.3776 168.304C65.9715 166.193 39.3511 175.283 38.3035 188.934C37.2559 202.584 62.1663 215.634 89.5724 217.745C109.445 219.27 132.353 215.187 140.918 207.391C143.214 205.311 146.588 204.988 149.129 206.729L150.531 207.684L158.665 213.246C162.44 215.834 167.616 213.354 167.955 208.793L168.71 198.964L169.465 189.134C169.834 184.574 165.105 181.338 160.976 183.31Z" fill="#EAF0F4"/>
<path d="M146.819 189.781C131.305 173.774 113.25 169.829 93.3775 168.304C65.9714 166.193 39.351 175.283 38.3035 188.934C75.0144 181.215 97.6756 181.878 146.819 189.781Z" fill="#88BDF3"/>
<path d="M160.976 183.31L152.087 187.563L150.562 188.302C147.774 189.643 144.492 188.795 142.536 186.392C135.265 177.379 113.25 169.829 93.3776 168.304C65.9715 166.193 39.3511 175.283 38.3035 188.934C37.2559 202.584 62.1663 215.634 89.5724 217.745C109.445 219.27 132.353 215.187 140.918 207.391C143.214 205.311 146.588 204.988 149.129 206.729L150.531 207.684L158.665 213.246C162.44 215.834 167.616 213.354 167.955 208.793L168.71 198.964L169.465 189.134C169.834 184.574 165.105 181.338 160.976 183.31Z" stroke="black" stroke-width="1.5" stroke-miterlimit="10" stroke-linecap="round" stroke-linejoin="round"/>
<path d="M72.534 174.281C77.7873 174.682 81.4537 182.709 80.7297 192.184C80.0056 201.675 75.153 209.039 69.8998 208.623" stroke="black" stroke-width="1.5" stroke-miterlimit="10" stroke-linecap="round" stroke-linejoin="round"/>
<path d="M56.5433 189.411L64.6157 181.893" stroke="black" stroke-width="1.5" stroke-miterlimit="10" stroke-linecap="round" stroke-linejoin="round"/>
<path d="M64.3385 189.688L56.8207 181.615" stroke="black" stroke-width="1.5" stroke-miterlimit="10" stroke-linecap="round" stroke-linejoin="round"/>
<path d="M93.5007 184.929C95.5034 183.974 97.7834 185.53 97.614 187.749L97.0747 194.759L96.5356 201.769C96.3661 203.972 93.8705 205.174 92.0372 203.926L86.2448 199.951L80.4524 195.976" stroke="black" stroke-width="1.5" stroke-miterlimit="10" stroke-linecap="round" stroke-linejoin="round"/>
</g>
<defs>
<clipPath id="clip0_629_3913">
<rect width="300" height="270" fill="white"/>
</clipPath>
<clipPath id="clip1_629_3913">
<rect width="290" height="276" fill="white" transform="translate(5 -6)"/>
</clipPath>
</defs>
</svg>
