<svg width="470" height="404" viewBox="0 0 470 404" fill="none" xmlns="http://www.w3.org/2000/svg">
<rect x="0.75" y="0.75" width="468.5" height="401.711" rx="23.25" fill="#FFDDD9"/>
<rect x="0.75" y="0.75" width="468.5" height="401.711" rx="23.25" stroke="black" stroke-width="1.5"/>
<path d="M436.063 381.877H54.3745L83.3524 347.217H398.115L436.063 381.877Z" fill="#FFB0A0" stroke="black" stroke-width="1.5" stroke-miterlimit="10"/>
<path d="M99.3823 116.048C99.3823 116.048 90.7216 111.296 94.8712 102.635C99.0207 93.9746 109.885 95.0766 112.502 101.051C114.913 106.561 104.083 115.136 104.083 115.136L100.398 116.788" fill="#482409"/>
<path d="M99.3823 116.048C99.3823 116.048 90.7216 111.296 94.8712 102.635C99.0207 93.9746 109.885 95.0766 112.502 101.051C114.913 106.561 104.083 115.136 104.083 115.136L100.398 116.788" stroke="black" stroke-width="1.5" stroke-miterlimit="10" stroke-linecap="round" stroke-linejoin="round"/>
<path d="M99.9678 113.483C99.9678 113.483 99.3479 103.703 111.142 98.8472C123.453 93.7679 136.263 105.27 135.867 111.365L117.255 136.193C117.255 136.193 116.428 138.363 110.488 135.969C103.893 133.335 93.8037 121.661 99.9678 113.483Z" fill="#482409"/>
<path d="M99.9678 113.518C99.9678 113.518 99.348 103.738 111.142 98.8653C123.453 93.786 137.383 106.045 135.867 111.383L117.237 136.211C117.237 136.211 116.411 138.346 110.471 135.953C103.894 133.336 93.8038 121.696 99.9678 113.518Z" stroke="black" stroke-width="1.5" stroke-miterlimit="10" stroke-linecap="round" stroke-linejoin="round"/>
<path d="M176.605 137.312L159.129 121.437L153.24 125.827C151.381 127.222 148.833 127.239 146.921 125.896L133.836 116.633L128.205 121.402L124.4 126.791L123.333 134.781L134.679 142.804C136.694 144.233 137.555 146.782 136.832 149.14L134.731 155.942L156.994 167.736L165.551 165.842L192.015 160.194L181.788 151.12L176.605 137.312Z" fill="#FFD6DC"/>
<path d="M153.585 125.569C151.501 127.119 148.678 127.153 146.56 125.655L133.836 116.65L129.066 122.022L125.261 127.412L123.333 134.798L134.249 142.529C136.504 144.13 137.486 147.006 136.659 149.64" stroke="black" stroke-width="1.5" stroke-miterlimit="10" stroke-linecap="round" stroke-linejoin="round"/>
<path d="M110.385 131.974C110.385 131.974 116.859 136.348 122.403 137.622C127.947 138.896 134.042 136.83 137.451 132.164C141.102 127.153 142.358 120.197 136.9 113.93C132.493 108.885 131.046 107.748 131.046 107.748L115.309 100.018L104.1 115.101L110.385 131.974Z" fill="#FFD6DC"/>
<path d="M126.001 130.098L132.475 121.42C132.475 121.42 135.798 124.072 133.663 127.722C131.838 130.804 128.567 131.699 126.001 130.098Z" fill="#F3A0A0"/>
<path d="M127.362 130.7L133.353 122.384C133.353 122.384 133.095 121.885 132.458 121.42L125.984 130.098C126.001 130.098 127.069 130.614 127.362 130.7Z" fill="white"/>
<path d="M126.001 130.096L132.252 121.264C132.252 121.264 135.798 124.07 133.663 127.72C131.838 130.802 128.567 131.698 126.001 130.096Z" stroke="black" stroke-width="1.5" stroke-miterlimit="10" stroke-linecap="round" stroke-linejoin="round"/>
<path d="M123.488 117.563C123.488 117.563 123.195 115.566 125.382 114.895" stroke="black" stroke-width="1.5" stroke-miterlimit="10" stroke-linecap="round" stroke-linejoin="round"/>
<path d="M117.255 126.223C117.255 126.223 116.945 124.243 119.149 123.555" stroke="black" stroke-width="1.5" stroke-miterlimit="10" stroke-linecap="round" stroke-linejoin="round"/>
<path d="M124.09 122.4C124.09 122.4 125.984 123.451 125.95 124.622" stroke="black" stroke-width="1.5" stroke-miterlimit="10" stroke-linecap="round" stroke-linejoin="round"/>
<path d="M132.389 109.247C132.389 109.247 133.457 106.974 135.73 107.008C139.018 107.06 141.584 111.829 137.968 114.928" fill="#FFD6DC"/>
<path d="M132.389 109.247C132.389 109.247 133.457 106.974 135.73 107.008C139.018 107.06 141.584 111.829 137.968 114.928" stroke="black" stroke-width="1.5" stroke-miterlimit="10" stroke-linecap="round" stroke-linejoin="round"/>
<path d="M136.263 108.781C136.263 108.781 135.161 110.159 136.711 111.726" stroke="black" stroke-width="1.5" stroke-miterlimit="10" stroke-linecap="round" stroke-linejoin="round"/>
<path d="M114.517 134.506C114.517 134.506 112.726 136.262 113.518 138.414C114.672 141.496 120.01 142.323 121.749 137.881" fill="#FFD6DC"/>
<path d="M114.517 134.506C114.517 134.506 112.726 136.262 113.518 138.414C114.672 141.496 120.01 142.323 121.749 137.881" stroke="black" stroke-width="1.5" stroke-miterlimit="10" stroke-linecap="round" stroke-linejoin="round"/>
<path d="M115.361 138.31C115.361 138.31 116.29 136.812 118.288 137.742" stroke="black" stroke-width="1.5" stroke-miterlimit="10" stroke-linecap="round" stroke-linejoin="round"/>
<path d="M131.184 108.23C131.184 108.23 134.593 110.865 137.176 114.274C142.186 120.886 141.291 127.274 137.503 132.215C133.991 136.812 127.74 138.637 122.213 137.363C116.686 136.089 110.712 132.198 110.712 132.198" stroke="black" stroke-width="1.5" stroke-miterlimit="10" stroke-linecap="round" stroke-linejoin="round"/>
<path d="M121.921 125.999C121.921 125.999 120.75 125.086 120.199 125.396C119.665 125.723 119.923 126.429 121.129 127.152C122.351 127.876 123.384 127.239 121.921 125.999Z" fill="black"/>
<path d="M127.74 117.7C127.74 117.7 126.569 116.787 126.019 117.097C125.485 117.425 125.743 118.131 126.948 118.854C128.171 119.577 129.221 118.94 127.74 117.7Z" fill="black"/>
<path d="M100.398 116.771C100.398 116.771 103.36 108.954 106.304 106.957C109.248 104.977 113.053 97.2632 119.717 100.139C126.38 103.014 132.51 107.904 132.51 107.904C132.51 107.904 131.339 108.024 128.705 108.386C126.535 108.679 122.265 112.053 117.565 115.566C113.983 118.235 109.765 117.408 107.664 116.788C107.664 116.788 107.492 120.662 110.54 124.347C113.587 128.032 115.085 131.183 113.157 134.557C113.157 134.557 108.077 133.404 105.977 130.287C103.893 127.171 100.398 116.771 100.398 116.771Z" fill="#482409"/>
<path d="M113.449 134.144C114.81 130.046 112.313 126.689 109.903 123.486C106.889 119.492 107.664 116.789 107.664 116.789C107.664 116.789 113.122 118.132 117.565 115.566C122.007 113.001 127.809 106.733 131.477 108.489" stroke="black" stroke-width="1.5" stroke-miterlimit="10" stroke-linecap="round" stroke-linejoin="round"/>
<path d="M133.612 153.946C133.612 153.946 145.372 165.344 148.437 170.217C151.501 175.09 152.517 180.393 159.473 184.456C166.429 188.52 170.94 193.995 176.605 196.956C194.546 206.375 199.832 216.688 199.832 216.688C199.832 216.688 243.463 221.63 237.247 182.304C237.247 182.304 228.948 176.519 220.425 169.786C220.425 169.786 214.657 161.436 209.319 153.584C199.367 138.897 190.879 130.96 190.879 130.96C190.879 130.96 177.948 132.079 166.102 127.292C154.256 122.523 152.276 119.889 152.276 119.889L151.725 125.829C151.725 125.829 161.987 131.046 166.602 136.246C171.216 141.446 173.85 152.586 162.848 157.2C151.846 161.815 136.246 149.211 136.246 149.211L133.612 153.946Z" fill="#FFD6DC"/>
<path d="M70.7316 38.0162C70.7316 38.0162 97.9189 52.6687 104.307 56.2156C110.677 59.7625 124.486 69.3013 128.67 73.0893C132.854 76.8772 150.916 89.3086 159.611 96.7813C168.323 104.254 172.215 108.851 179.291 116.014C186.368 123.176 193.634 136.761 197.594 139.947C201.554 143.132 178.62 142.598 178.62 142.598L156.563 127.533C156.563 127.533 153.344 123.228 152.861 119.182C152.861 119.182 149.728 116.771 141.377 108.128C133.009 99.4845 117.995 87.0359 117.995 87.0359C113.863 83.4029 115.154 84.8836 103.635 77.5143C92.1164 70.1622 61.0206 46.4874 61.0206 46.4874C61.0206 46.4874 55.0804 47.4 49.5707 43.7498C44.0609 40.1168 33.3513 32.7302 32.1116 31.8005C30.8719 30.8707 29.0296 29.3383 29.6494 28.443C29.6494 28.443 25.8615 26.0497 25.0178 24.1557C24.1741 22.2617 25.1039 21.2458 27.7554 22.52C30.407 23.7769 48.3482 29.8032 48.3482 29.8032C48.3482 29.8032 60.8829 32.7302 66.5132 35.6401L70.7316 38.0162Z" fill="#FFD6DC"/>
<path d="M70.7316 38.0162C70.7316 38.0162 97.9189 52.6687 104.307 56.2156C110.677 59.7625 124.486 69.3013 128.67 73.0893C132.854 76.8772 150.916 89.3086 159.611 96.7813C168.323 104.254 172.215 108.851 179.291 116.014C186.368 123.176 193.634 136.761 197.594 139.947C201.554 143.132 178.62 142.598 178.62 142.598L156.563 127.533C156.563 127.533 153.344 123.228 152.862 119.182C152.862 119.182 149.728 116.771 141.377 108.128C133.009 99.4845 117.995 87.0359 117.995 87.0359C113.863 83.4029 115.154 84.8836 103.635 77.5143C92.1164 70.1622 61.0206 46.4874 61.0206 46.4874C61.0206 46.4874 55.0804 47.4 49.5707 43.7498C44.0609 40.1168 33.3513 32.7302 32.1116 31.8005C30.8719 30.8707 29.0296 29.3383 29.6494 28.443C29.6494 28.443 25.8615 26.0497 25.0178 24.1557C24.1741 22.2617 25.1039 21.2458 27.7554 22.52C30.407 23.7769 48.3482 29.8032 48.3482 29.8032C48.3482 29.8032 60.8829 32.7302 66.5132 35.6401L70.7316 38.0162Z" stroke="black" stroke-width="1.5" stroke-miterlimit="10" stroke-linecap="round" stroke-linejoin="round"/>
<path d="M29.46 28.5454C29.46 28.5454 30.3897 27.0819 31.4917 27.409C35.1591 28.4937 40.8411 32.144 40.8411 32.144" stroke="black" stroke-width="1.5" stroke-miterlimit="10" stroke-linecap="round" stroke-linejoin="round"/>
<path d="M157.941 117.615C157.941 117.615 162.831 118.872 166.343 120.68" stroke="black" stroke-width="1.5" stroke-miterlimit="10" stroke-linecap="round" stroke-linejoin="round"/>
<path d="M134.748 151.896C134.748 151.896 128.412 158.99 129.273 169.097C129.979 177.414 130.082 183.44 129.72 192.548C129.376 201.639 128.515 216.481 128.532 221.802C128.55 227.122 126.845 231.427 125.743 240.07C124.641 248.713 125.846 272.612 123.092 282.857C120.337 293.101 119.063 293.239 115.826 299.868C112.589 306.497 112.038 307.513 113.071 309.166C114.121 310.819 115.981 309.992 117.754 307.289C119.527 304.586 125.278 295.409 128.326 293.05C131.373 290.674 133.422 290.433 133.422 290.433C133.422 290.433 136.16 294.772 137.245 297.475C138.33 300.178 140.447 300.815 141.67 299.231C142.892 297.647 139.896 290.553 139.759 288.763C139.604 286.972 139.259 281.824 136.642 278.156C136.642 278.156 139.431 263.745 140.516 257.891C141.601 252.019 144.803 238.314 145.647 227.243C146.491 216.171 147.903 206.478 148.712 200.004C149.521 193.53 149.556 183.664 153.171 179.067C156.787 174.469 135.454 153.636 135.454 153.636L134.748 151.896Z" fill="#FFD6DC"/>
<path d="M133.25 154.822C133.25 154.822 129.256 159.11 129.273 169.113C129.29 177.447 130.082 183.456 129.72 192.564C129.376 201.655 128.515 216.497 128.532 221.818C128.55 227.138 126.845 231.442 125.743 240.086C124.641 248.729 125.846 272.628 123.092 282.873C120.337 293.117 119.063 293.255 115.826 299.884C112.589 306.513 112.038 307.529 113.071 309.182C114.121 310.835 115.981 310.008 117.754 307.305C119.527 304.602 125.278 295.425 128.326 293.066C131.373 290.69 133.422 290.449 133.422 290.449C133.422 290.449 136.16 294.788 137.245 297.491C138.33 300.194 140.447 300.831 141.67 299.247C142.892 297.663 139.896 290.569 139.759 288.778C139.604 286.988 139.259 281.84 136.642 278.172C136.642 278.172 139.431 263.761 140.516 257.906C141.601 252.035 144.803 238.33 145.647 227.258C146.491 216.187 147.903 206.494 148.712 200.02C149.521 193.546 149.556 183.68 153.171 179.082" stroke="black" stroke-width="1.5" stroke-miterlimit="10" stroke-linecap="round" stroke-linejoin="round"/>
<path d="M208.872 153.549C198.92 138.862 190.431 130.925 190.431 130.925C190.431 130.925 177.5 132.044 165.654 127.257C153.808 122.488 151.828 119.854 151.828 119.854L151.277 125.794C151.277 125.794 161.539 131.011 166.154 136.211C170.768 141.41 173.403 152.551 162.4 157.165C151.398 161.779 135.798 149.176 135.798 149.176L133.147 153.928C133.147 153.928 144.907 165.326 147.972 170.199C151.036 175.072 152.052 180.375 159.008 184.438C159.008 184.438 169.219 189.896 173.558 193.857C173.558 193.857 187.59 186.573 193.806 180.736C209.698 165.826 208.872 153.549 208.872 153.549Z" fill="#FF8A7A"/>
<path d="M173.558 193.822C173.558 193.822 206.461 179.962 209.337 153.584" stroke="black" stroke-width="1.5" stroke-miterlimit="10" stroke-linecap="round" stroke-linejoin="round"/>
<path d="M199.832 216.706C199.832 216.706 193.048 205.807 182.132 200.159C174.883 196.423 166.429 188.537 159.473 184.473C152.517 180.41 151.484 175.107 148.437 170.234C145.372 165.361 133.612 153.963 133.612 153.963L136.263 149.211C136.263 149.211 151.846 161.815 162.865 157.2C173.868 152.586 171.233 141.463 166.619 136.246C162.004 131.046 151.742 125.829 151.742 125.829L152.293 119.889C152.293 119.889 154.273 122.523 166.119 127.292C177.965 132.062 190.896 130.96 190.896 130.96C190.896 130.96 199.385 138.915 209.337 153.584C214.657 161.436 220.442 169.786 220.442 169.786C220.442 169.786 227.175 175.709 237.264 182.304" stroke="black" stroke-width="1.5" stroke-miterlimit="10" stroke-linecap="round" stroke-linejoin="round"/>
<path d="M135.695 341.552C135.695 341.552 135.024 352.555 135.695 356.136C136.367 359.717 139.414 364.487 136.883 369.136C134.369 373.784 128.136 372.579 124.555 372.321C120.974 372.063 116.463 370.065 110.488 371.925C104.513 373.784 97.2301 372.855 93.511 372.648C89.7919 372.441 86.3483 372.441 85.0225 372.045C83.6967 371.649 82.5948 366.518 87.6225 365.899C92.4263 365.313 107.871 359.89 117.651 353.622C118.494 353.071 119.011 352.141 119.011 351.126V341.535H135.695V341.552Z" fill="#FFD6DC"/>
<path d="M360.993 320.84L384.84 341.553C386.166 342.535 390.315 348.268 390.057 350.024C389.609 353.158 388.886 358.048 388.335 360.7C387.509 364.815 385.167 365.193 385.494 367.983C385.821 370.789 386.665 372.098 391.503 372.098C396.341 372.098 401.352 371.908 404.021 372.098C406.689 372.287 409.031 370.755 408.687 363.678C408.325 356.395 410.684 347.218 408.687 341.984C406.689 336.749 406.689 335.062 403.676 333.753C400.68 332.445 398.339 330.568 398.339 330.568L380.174 310.939L364.178 321.873" fill="#FFD6DC"/>
<path d="M386.682 364.557C386.682 364.557 388.679 363.145 391.004 363.713L386.682 364.557Z" fill="#FFD6DC"/>
<path d="M135.695 341.552C135.695 341.552 135.024 352.555 135.695 356.136C136.367 359.717 139.414 364.487 136.883 369.136C134.369 373.784 128.136 372.579 124.555 372.321C120.974 372.063 116.463 370.065 110.488 371.925C104.513 373.784 97.2301 372.855 93.511 372.648C89.7919 372.441 86.3483 372.441 85.0225 372.045C83.6967 371.649 82.5948 366.518 87.6225 365.899C92.4263 365.313 107.871 359.89 117.651 353.622C118.494 353.071 119.011 352.141 119.011 351.126V341.535H135.695V341.552Z" stroke="black" stroke-width="1.5" stroke-miterlimit="10" stroke-linecap="round" stroke-linejoin="round"/>
<path d="M364.178 323.681L384.823 341.553C386.148 342.535 390.298 348.268 390.04 350.024C389.592 353.158 388.869 358.048 388.318 360.699C387.491 364.815 385.15 365.193 385.477 367.983C385.804 370.789 386.648 372.098 391.486 372.098C396.324 372.098 401.335 371.908 404.003 372.098C406.672 372.287 409.014 370.755 408.67 363.678C408.308 356.395 410.667 347.218 408.67 341.984C406.672 336.749 406.672 335.062 403.659 333.753C400.663 332.445 398.322 330.568 398.322 330.568L380.157 310.939L365.934 321.511" stroke="black" stroke-width="1.5" stroke-miterlimit="10" stroke-linecap="round" stroke-linejoin="round"/>
<path d="M386.682 364.557C386.682 364.557 388.679 363.145 391.004 363.713" stroke="black" stroke-width="1.5" stroke-miterlimit="10" stroke-linecap="round" stroke-linejoin="round"/>
<path d="M233.442 254.498C233.442 254.498 270.581 277.846 292.155 283.493C313.729 289.158 304.879 287.384 319.738 295.511C334.598 303.638 370.979 331.359 370.979 331.359L385.477 314.382C385.477 314.382 360.046 287.023 348.372 280.308C336.698 273.593 326.092 270.407 317.242 266.516C308.392 262.625 292.482 244.942 276.573 236.092C276.573 236.092 246.596 190.464 240.949 185.505C240.518 185.127 237.781 181.752 237.23 182.303C234.905 184.576 237.264 199.9 222.767 205.633C205.084 212.624 199.798 216.687 199.798 216.687C199.798 216.687 198.403 223.006 194.167 225.486C189.932 227.965 158.44 237.504 150.313 240.689C142.186 243.874 130.857 247.06 125.209 250.589C119.545 254.119 114.241 260.145 115.309 278.879C116.376 297.629 118.133 331.927 118.494 343.257H136.883C136.883 343.257 140.774 322.216 141.48 314.778C142.186 307.357 142.892 291.431 139.363 282.408C135.833 273.386 144.132 275.693 154.222 273.386C164.294 271.079 206.564 264.364 230.618 253.93L233.442 254.498Z" fill="#FFD9B3"/>
<path d="M233.442 254.498C233.442 254.498 270.581 277.845 292.155 283.493C313.729 289.157 304.879 287.384 319.738 295.511C334.598 303.638 370.893 331.462 370.893 331.462L385.391 314.485C385.391 314.485 360.063 287.022 348.389 280.29C336.715 273.575 326.109 270.39 317.259 266.498C308.409 262.607 292.5 244.924 276.59 236.074C276.59 236.074 245.718 186.882 237.23 182.285C237.23 182.285 234.303 198.987 226.624 203.429C209.302 213.433 199.815 216.67 199.815 216.67C199.815 216.67 198.42 222.989 194.185 225.468C189.949 227.947 158.457 237.486 150.33 240.671C142.204 243.857 130.874 247.042 125.227 250.572C119.562 254.101 114.259 260.128 115.326 278.861C116.394 297.611 118.15 331.91 118.512 343.239H136.9C136.9 343.239 140.792 322.199 141.498 314.761C142.204 307.34 142.91 291.413 139.38 282.391C135.85 273.368 144.149 275.676 154.239 273.368C164.312 271.061 206.582 264.346 230.635 253.912L233.442 254.498Z" stroke="black" stroke-width="1.5" stroke-miterlimit="10" stroke-linecap="round" stroke-linejoin="round"/>
<path d="M217.808 96.127L206.616 96.6607L210.852 107.215L217.808 96.127Z" fill="#FF8A7A"/>
<path d="M231.72 125.88C230.842 117.839 227.639 111.83 224.454 107.732C218.944 100.621 212.401 97.5561 212.126 97.4355L210.042 101.947C210.094 101.981 215.897 104.736 220.666 110.952C224.11 115.446 226.141 120.542 226.796 126.172L231.72 125.88Z" fill="#FF8A7A"/>
</svg>
