<?xml version="1.0" encoding="UTF-8"?>
<svg xmlns="http://www.w3.org/2000/svg" xmlns:xlink="http://www.w3.org/1999/xlink" version="1.1" viewBox="0 0 349 433">
  <defs>
    <style>
      .cls-1, .cls-2, .cls-3, .cls-4 {
        fill: none;
      }

      .cls-5 {
        fill: #d9d9d9;
      }

      .cls-6 {
        fill: #87c878;
      }

      .cls-2 {
        stroke: #87c878;
      }

      .cls-2, .cls-3, .cls-4, .cls-7 {
        stroke-width: 1.1px;
      }

      .cls-2, .cls-4 {
        stroke-miterlimit: 10;
      }

      .cls-8 {
        fill: #ff6c3c;
      }

      .cls-3 {
        stroke: #ff6c3c;
        stroke-linecap: round;
        stroke-linejoin: round;
      }

      .cls-4, .cls-7 {
        stroke: #000;
      }

      .cls-7 {
        fill: #fff;
      }

      .cls-9 {
        clip-path: url(#clippath);
      }
    </style>
    <clipPath id="clippath">
      <rect class="cls-1" x="56" y="133" width="19.3" height="31.9"/>
    </clipPath>
  </defs>
  <!-- Generator: Adobe Illustrator 28.6.0, SVG Export Plug-In . SVG Version: 1.2.0 Build 709)  -->
  <g>
    <g id="_레이어_1" data-name="레이어_1">
      <path class="cls-6" d="M21.8,25L0,433h336V25H21.8Z"/>
      <path class="cls-7" d="M22.5,417.5V25.5h325.9v391.9H22.5Z"/>
      <path class="cls-4" d="M38.4,25.2c0-13.4,6.2-24.2,13.8-24.2s13.8,10.9,13.8,24.2-6.2,24.2-13.8,24.2"/>
      <path class="cls-4" d="M91.6,25.2c0-13.4,6.2-24.2,13.8-24.2s13.8,10.9,13.8,24.2-6.2,24.2-13.8,24.2"/>
      <path class="cls-4" d="M144.8,25.2c0-13.4,6.2-24.2,13.8-24.2s13.8,10.9,13.8,24.2-6.2,24.2-13.8,24.2"/>
      <path class="cls-4" d="M198,25.2c0-13.4,6.2-24.2,13.8-24.2s13.8,10.9,13.8,24.2-6.2,24.2-13.8,24.2"/>
      <path class="cls-4" d="M251.2,25.2c0-13.4,6.2-24.2,13.8-24.2s13.8,10.9,13.8,24.2-6.2,24.2-13.8,24.2"/>
      <path class="cls-4" d="M304.4,25.2c0-13.4,6.2-24.2,13.8-24.2s13.8,10.9,13.8,24.2-6.2,24.2-13.8,24.2"/>
      <path d="M140.7,83.1c.4-2.3.5-4.1.5-6s-.3-1.4-1.1-1.4c-1.2,0-2,.2-2.9.3-.3,0-.4-.1-.4-.4v-1c0-.3.1-.4.4-.4,1.4-.2,2.2-.3,3.2-.3,2,0,2.8.9,2.8,3.1s-.1,4.2-.5,6.3c0,.3-.2.4-.5.4h-1.1c-.3,0-.5-.2-.4-.5ZM146.6,85c0,.3-.2.5-.5.5h-1.1c-.3,0-.5-.2-.5-.5v-11.6c0-.3.2-.5.5-.5h1.1c.3,0,.5.2.5.5v4.7c.2-.2.5-.4.9-.4h.4c.3,0,.4.2.4.4v1.1c0,.3-.2.4-.4.4h-.5c-.5,0-.8.3-.8.8v4.6ZM152.4,75.3c0,.5.6.7,2.5.7s2.5-.2,2.5-.7-.6-.7-2.5-.7-2.5.2-2.5.7ZM159,83.6c-1,0-1.7,0-4.3,0s-2.4,0-2.4.4.4.3,3.2.3,2.9,0,3.8-.3c.2,0,.4,0,.4.3v.8c0,.2,0,.3-.3.4-1,.1-2.8.3-3.9.3-4,0-5.2-.3-5.2-1.8s1.4-1.8,4.4-1.8,1.7,0,2.3,0,.5,0,.5-.3-.1-.3-.5-.3c-1.3,0-4.4,0-6.1.2-.2,0-.4-.1-.4-.3v-.8c0-.2.1-.3.4-.3,2.1-.2,5-.2,7.2-.2.9,0,1.4.3,1.4,1s-.3.9-.8,1.1h.3c.2,0,.4.1.4.3v.7c0,.2-.1.3-.4.3ZM154.8,78c2.2,0,4.2,0,5.1-.1.3,0,.4,0,.4.4v.7c0,.3-.1.4-.4.4-.9,0-2.9.1-5.1.1s-3.8,0-5.1-.1c-.3,0-.4-.2-.4-.4v-.7c0-.3.1-.4.4-.4,1.2,0,3.1.1,5,.1ZM154.9,73.1c3.3,0,4.6.6,4.6,2.2s-1.3,2.2-4.6,2.2-4.6-.6-4.6-2.2,1.3-2.2,4.6-2.2ZM167.7,80.2c0,1,.7,1.7,1.9,1.7s1.3-.2,2.1-.4c0,0,.2,0,.2,0,.2,0,.3,0,.4.3l.3,1c0,.3,0,.4-.3.6-.8.3-1.8.5-2.8.5-2.3,0-3.7-1.4-3.7-3.6s1.3-3.6,4-3.6,1.4,0,1.8.1c.3,0,.4.2.4.5v1c0,.3-.2.4-.5.4-.5,0-1.1-.1-1.5-.1-1.6,0-2.2.5-2.2,1.7ZM175.4,85c0,.3-.2.5-.5.5h-1.1c-.3,0-.5-.2-.5-.5v-11.6c0-.3.2-.5.5-.5h1.1c.3,0,.5.2.5.5v4.7c.2-.2.5-.4.9-.4h.4c.3,0,.4.2.4.4v1.1c0,.3-.2.4-.4.4h-.5c-.5,0-.8.3-.8.8v4.6ZM166.2,73.8h5.4c.3,0,.5.2.5.5v1c0,.3-.2.5-.5.5h-5.4c-.3,0-.5-.2-.5-.5v-1c0-.3.2-.5.5-.5ZM178.4,74.2c0-.3.2-.4.5-.4h1.1c.3,0,.5.2.5.5-.2,2-.3,3.4-.3,5.5s.6,2.1,1.8,2.1,1.3-.2,2-.5c0,0,.1,0,.2,0,.2,0,.3.1.3.4l.3,1c0,.3,0,.4-.3.5-.8.3-1.8.5-2.5.5-2.5,0-3.7-1.2-3.7-3.9s0-3.5.3-5.6ZM185.9,85v-11.6c0-.3.2-.5.5-.5h1.1c.3,0,.5.2.5.5v4.7c.2-.2.5-.4.9-.4h.4c.3,0,.4.2.4.4v1.1c0,.3-.2.4-.4.4h-.5c-.5,0-.8.3-.8.8v4.6c0,.3-.2.5-.5.5h-1.1c-.3,0-.5-.2-.5-.5ZM202.7,77.8h-1.7v.3c0,.3.2.4.5.4.7,0,2.4,0,3.5-.1.3,0,.5.1.5.4v.8c0,.3-.1.4-.5.4-.9,0-2.9.1-5,.1s-3.8,0-5-.1c-.3,0-.5-.2-.5-.4v-.8c0-.3.2-.4.5-.4,1.1,0,2.8.1,4.3.1-.2,0-.3-.3-.3-.5v-.3h-1.7c-1,0-1.5-.4-1.6-1.4l-.2-2.7c0-.3.2-.4.5-.4h1.1c.3,0,.4.1.5.4v.3h4.9v-.3c0-.3.2-.4.5-.4h1.1c.3,0,.5.2.5.4l-.2,2.7c0,.9-.6,1.4-1.6,1.4ZM202.8,85.6h-5.5c-1.1,0-1.7-.5-1.7-1.4l-.2-3.1c0-.3.2-.5.5-.5h1.1c.3,0,.4.2.5.5v.4h5.3v-.4c0-.3.2-.5.5-.5h1.1c.3,0,.5.2.5.5l-.2,3.1c0,.9-.6,1.4-1.7,1.4ZM197.5,83.1v.5c0,.3.2.4.5.4h4.1c.3,0,.4-.1.4-.4v-.5s-5,0-5,0ZM197.7,75.5v.3c0,.3.2.4.5.4h3.7c.3,0,.4,0,.4-.4v-.3s-4.6,0-4.6,0ZM207.7,73.8h1.1c.3,0,.5.2.5.5-.2,2-.3,3.4-.3,5.5s.6,2.1,1.8,2.1,1.3-.2,2-.5c0,0,.1,0,.2,0,.2,0,.3.1.3.4l.3,1c0,.3,0,.4-.3.5-.8.3-1.8.5-2.5.5-2.5,0-3.7-1.2-3.7-3.9s0-3.5.3-5.6c0-.3.2-.4.5-.4ZM215,73.4c0-.3.2-.5.5-.5h1.1c.3,0,.5.2.5.5v11.6c0,.3-.2.5-.5.5h-1.1c-.3,0-.5-.2-.5-.5v-11.6ZM224.8,73.9c.3,0,.4.2.4.4v1c0,.3-.2.5-.4.4-.5,0-1.1-.1-1.9-.1-1.5,0-2.1.8-2.1,3.1s.6,3.1,2.1,3.1,1.3-.2,2-.5c0,0,.1,0,.2,0,.2,0,.3.1.3.4l.3,1c0,.3,0,.4-.4.5-.8.3-1.8.5-2.5.5-2.8,0-4.1-1.4-4.1-4.9s1.3-5,4.1-5,1.5,0,1.9.1ZM228.6,85c0,.3-.2.5-.5.5h-1.1c-.3,0-.5-.2-.5-.5v-11.6c0-.3.2-.5.5-.5h1.1c.3,0,.5.2.5.5v4.7c.2-.2.5-.4.9-.4h.4c.3,0,.4.2.4.4v1.1c0,.3-.2.4-.4.4h-.5c-.5,0-.8.3-.8.8v4.6Z"/>
      <path class="cls-6" d="M100.2,98.7c0,.8,0,1.7-.1,2.5h1.3c.4,0,.6-.2.6-.5v-2.3c-.1.2-.3.3-.6.3h-1.2ZM97.8,98.1c0-1.2-.4-1.5-1.2-1.5s-2,.2-3,.3c-.3,0-.6-.2-.6-.6v-1.3c0-.3.2-.5.6-.6,1-.2,2.1-.3,3.2-.3,1.8,0,2.9.6,3.3,2h1.4c.4,0,.6-.2.6-.5v-1.9c0-.4.2-.6.6-.6h1.3c.4,0,.6.2.6.6v14.8c0,.4-.2.6-.6.6h-1.3c-.4,0-.6-.2-.6-.6v-5.1c-.1.2-.3.3-.6.3h-1.4c0,0-.1,0-.2,0,0,.8-.2,1.6-.3,2.4,0,.4-.2.5-.6.5h-1.3c-.4,0-.6-.2-.5-.6.4-3,.6-5.6.6-8.1ZM105.4,93.6c0-.4.2-.6.6-.6h1.3c.4,0,.6.2.6.6v15c0,.4-.2.6-.6.6h-1.3c-.4,0-.6-.2-.6-.6v-15ZM122.6,106.5c-1.3,0-2.2,0-5.5,0s-3.1.1-3.1.5.6.5,4.1.5,3.7-.1,4.9-.3c.3,0,.5,0,.5.4v1.2c.1.3,0,.4-.3.5-1.3.2-3.6.3-5.1.3-5.2,0-6.7-.6-6.7-2.5s1.8-2.5,5.7-2.5,2.1,0,2.9,0,.7-.1.7-.4-.2-.4-.6-.4c-1.7,0-5.7.1-7.8.3-.3,0-.5-.1-.5-.4v-1.2c0-.3.1-.4.5-.4,2.7-.2,6.4-.3,9.2-.2,1.2,0,1.8.5,1.8,1.4s-.4,1.3-1,1.5h.4c.3,0,.5.2.5.4v1.1c0,.3-.2.4-.5.4ZM117.8,93.5c.4,0,.6.2.6.6v1.2c0,.4-.2.6-.6.6h-2.3c0,1.7,1,2.6,2.4,2.6s.6.2.6.5v1.3c0,.4-.2.6-.6.6-1.7,0-3.2-.8-3.7-2.4-.5,1.6-2,2.4-3.7,2.4s-.6-.2-.6-.6v-1.3c0-.3.2-.5.6-.5,1.5,0,2.4-1,2.4-2.5h0c0-.1-2.3-.1-2.3-.1-.4,0-.6-.2-.6-.6v-1.2c0-.4.2-.6.6-.6h7.2ZM120.5,97.9c-.2.3-.5.4-1,.4h-.7c-.4,0-.6-.2-.6-.6v-1.3c0-.4.2-.6.6-.6h.8c.6,0,.8-.2.8-.7v-1.5c0-.4.2-.6.6-.6h1.4c.4,0,.6.2.6.6v6.7c0,.4-.2.6-.6.6h-1.4c-.4,0-.6-.2-.6-.6v-2.4ZM129.1,106c0,.9.9,1.2,3.6,1.2s3.5-.3,3.5-1.2-.9-1.2-3.5-1.2-3.6.3-3.6,1.2ZM132.7,102.4c4.1,0,6.1,1.2,6.1,3.5s-2,3.5-6.1,3.5-6.2-1.2-6.2-3.5,2-3.5,6.2-3.5ZM129.7,98.8c-.5,1.4-2,2.6-3.8,2.6s-.6-.2-.6-.6v-1.3c0-.3.2-.5.6-.5,1.5,0,2.5-1.3,2.5-3v-1.8c0-.4.2-.6.6-.6h1.4c.4,0,.6.2.6.6v1.8c0,1.6,1,3,2.5,3s.6.2.6.5v1.3c0,.4-.2.6-.6.6-1.8,0-3.3-1.2-3.8-2.6ZM135.8,97.2c-.2.3-.5.5-1,.5h-1.4c-.4,0-.6-.2-.6-.6v-1.3c0-.4.2-.6.6-.6h1.5c.6,0,1-.3,1-.9v-.8c0-.4.2-.6.6-.6h1.4c.4,0,.6.2.6.6v7.6c0,.4-.2.6-.6.6h-1.4c-.4,0-.6-.2-.6-.6v-4ZM153.1,95.7c-2.4,0-3.3.5-3.3,1.6s.9,1.6,3.3,1.6,3.3-.4,3.3-1.6-.9-1.6-3.3-1.6ZM155,105.1c-.5,0-.8.3-.8.8v2.1c0,.4-.2.6-.6.6h-1.4c-.4,0-.6-.2-.6-.6v-2c0-.4.2-.7.5-.9-2.2,0-4.3-.1-5.7-.3-.4,0-.6-.2-.6-.6v-1.3c0-.4.2-.6.6-.5,1.5.2,3.9.3,6.4.3s5.4-.1,6.5-.3c.4,0,.6.2.6.5v1.3c0,.3-.2.5-.6.6-.9.1-2.6.3-4.4.3ZM159,97.3c0,2.7-1.9,4-5.9,4s-5.9-1.3-5.9-4,1.9-4,5.9-4,5.9,1.3,5.9,4ZM168.8,106.6c-2.6,0-3.1.1-3.1.5s.6.4,4.1.4,3.7-.1,4.9-.3c.3,0,.5,0,.5.4v1c.1.3,0,.4-.3.5-1.3.2-3.6.3-5.1.3-5.2,0-6.7-.5-6.7-2.4s1.8-2.3,5.7-2.3,2.1,0,2.9,0,.7-.1.7-.4-.2-.4-.6-.4c-1.7,0-5.7.1-7.8.3-.3,0-.5-.1-.5-.4v-1c0-.3.1-.4.5-.4,1.1,0,2.4-.1,3.7-.2v-.2c0-.2.1-.4.3-.5-2.1,0-4.1,0-5.5-.1-.4,0-.6-.2-.6-.5v-1c0-.4.2-.5.6-.5,1.5.1,4,.1,6.5.1s5.4,0,6.5-.1c.4,0,.6.1.6.5v1c0,.3-.1.5-.6.5-.9,0-3,.1-4.6.1s-.6.2-.6.5v.2c1,0,2,0,2.9,0,1.2,0,1.8.5,1.8,1.3s-.4,1.2-1,1.4h.4c.3,0,.5.2.5.4v.9c0,.3-.2.4-.5.4-1.3,0-2.2,0-5.5,0ZM169.1,93.3c4.2,0,5.9.8,5.9,2.8s-1.7,2.8-5.9,2.8-5.9-.8-5.9-2.8,1.7-2.8,5.9-2.8ZM165.8,96.1c0,.6.8.8,3.3.8s3.3-.2,3.3-.8-.7-.9-3.3-.9-3.3.2-3.3.9ZM178.9,106.3c0-2.2,1.8-3.1,6.2-3.1s6.2.9,6.2,3.1-1.8,3.1-6.2,3.1-6.2-.9-6.2-3.1ZM180.1,93.4h10c.4,0,.6.2.6.6v1.1c0,.4-.2.6-.6.6h-3.5c.4.8,1.7,1.4,3.8,1.4s.6.2.6.5v1.2c0,.3-.2.5-.6.6-2.4.1-4.5-.9-5.2-2.3-.8,1.4-2.9,2.4-5.2,2.3-.4,0-.6-.2-.6-.6v-1.2c0-.3.2-.5.6-.5,2.1,0,3.4-.6,3.8-1.4h-3.5c-.4,0-.6-.2-.6-.6v-1.1c0-.4.2-.6.6-.6ZM184.9,100.3c2.8,0,5.4,0,6.5-.1.4,0,.6.2.6.5v1.1c0,.3-.2.5-.6.6-1.1.1-3.7.1-6.5.1s-4.9,0-6.5-.1c-.4,0-.6-.2-.6-.6v-1.1c0-.4.2-.6.6-.5,1.5.1,3.9.1,6.4.1ZM181.5,106.3c0,.8.7,1,3.5,1s3.5-.2,3.5-1-.7-1-3.5-1-3.5.2-3.5,1ZM203.6,93.2v1c0,.2.2.4.5.4h1.5c.4,0,.6.2.6.6v1.2c0,.4-.2.6-.6.6h-1.9v4.3c0,1.8.8,2.9,2,3,.4,0,.6.2.6.6v1.3c0,.4-.2.5-.6.5-1.6-.2-2.8-1.2-3.2-2.6-.4,1.5-1.7,2.5-3.4,2.6-.4,0-.6-.1-.6-.5v-1.3c0-.3.2-.5.6-.6,1.3-.2,2.2-1.3,2.2-3v-4.3h-2.1c-.4,0-.6-.2-.6-.6v-1.2c0-.4.2-.6.6-.6h2.2c-.2-.1-.3-.3-.3-.5v-.8c0-.4.2-.6.6-.6h1.3c.4,0,.6.2.6.6ZM207.6,101.5c-.1.2-.3.3-.6.3h-1.2c-.4,0-.6-.2-.6-.6v-1.4c0-.4.2-.6.6-.6h1.2c.4,0,.6-.2.6-.5v-5c0-.4.2-.6.6-.6h1.3c.4,0,.6.2.6.6v14.8c0,.4-.2.6-.6.6h-1.3c-.4,0-.6-.2-.6-.6v-7.1ZM211,93.6c0-.4.2-.6.6-.6h1.3c.4,0,.6.2.6.6v15c0,.4-.2.6-.6.6h-1.3c-.4,0-.6-.2-.6-.6v-15ZM226,98.6c0-1.4-.7-2.1-2.1-2.1s-3.6.2-6,.3c-.3,0-.6-.2-.6-.5v-1.4c0-.3.2-.5.6-.5,2.5-.3,4.8-.3,6.6-.3,2.7,0,4.1,1.4,4.1,4.1s-.1,3.4-.4,4.7c0,.4-.3.5-.6.4l-1.5-.2c-.4,0-.5-.2-.4-.5,0-.4.1-.9.2-1.4-2.6,0-6,.1-7.9.3-.4,0-.6-.2-.6-.6v-1.3c0-.4.2-.5.6-.6,1.7-.2,5.1-.3,8-.3h0ZM222.8,105.5c2.8,0,5.4-.1,6.5-.3.4,0,.6.2.6.5v1.3c0,.3-.2.5-.6.6-1.1.2-3.7.3-6.5.3s-4.9,0-6.5-.3c-.4,0-.6-.2-.6-.6v-1.3c0-.4.2-.6.6-.5,1.6.2,3.9.3,6.5.3ZM236.7,94.2c2.2,0,3.3,1,3.3,2.7s-.4,1.9-1.1,2.4h.4c.4,0,.5.2.5.5v1.2c0,.4-.2.5-.5.5-1,0-1.7,0-2.4,0-2.1,0-2.7.3-2.7,1.5s.6,1.4,2.2,1.4,2.1-.2,3.1-.6c0,0,.1,0,.2,0,.2,0,.3.2.4.5l.4,1.3c.1.4,0,.6-.4.7-1.3.5-2.7.7-4,.7-2.9,0-4.4-1.3-4.4-3.9s1.5-3.9,4.3-3.9,1.4-.4,1.4-1.2-.4-1.3-1.5-1.3-1.8,0-3.1.3c-.4,0-.6-.1-.6-.5v-1.4c0-.3.1-.5.5-.6,1.2-.2,2.2-.2,3.9-.2ZM242.1,93.6c0-.4.2-.6.6-.6h1.4c.4,0,.6.2.6.6v14.9c0,.4-.2.6-.6.6h-1.4c-.4,0-.6-.2-.6-.6v-14.9ZM254.2,100.1c-.7,1.6-2.5,2.8-4.9,2.8s-.9,0-.9-.6v-1.3c0-.3.2-.5.6-.5,2.6,0,3.9-1.4,3.9-3.4v-2.5c0-.4.2-.6.6-.6h1.4c.4,0,.6.2.6.6v2.5c0,2,1.4,3.4,3.9,3.4s.6.2.6.5v1.3c0,.6-.5.6-.9.6-2.4,0-4.2-1.2-4.9-2.8ZM247.7,105.2c1.6.2,3.9.3,6.5.3s5.4-.1,6.5-.3c.4,0,.6.2.6.5v1.3c0,.3-.2.5-.6.6-1.1.2-3.7.3-6.5.3s-4.9,0-6.5-.3c-.4,0-.6-.2-.6-.6v-1.3c0-.4.2-.6.6-.5ZM265.1,94h10c.4,0,.6.2.6.6v1.1c0,.4-.2.6-.6.6h-10c-.4,0-.6-.2-.6-.6v-1.1c0-.4.2-.6.6-.6ZM275.1,97.3c.4,0,.6.2.6.6v1.1c0,.4-.2.6-.6.6-1.7,0-3.2-.2-4.7-.2-2.9,0-3.5.2-3.5.9s.4.9,3,.9,3.5-.1,5.3-.3c.3,0,.5.1.6.6v1.1c.1.3,0,.5-.5.6-2.7.2-4.1.3-5.1.3-4.6,0-5.9-.8-5.9-3.2s1.5-3.2,6.2-3.2,3.1,0,4.6.2ZM263.7,105.2c1.6.2,3.9.3,6.5.3s5.4-.1,6.5-.3c.4,0,.6.2.6.5v1.3c0,.3-.2.5-.6.6-1.1.2-3.7.3-6.5.3s-4.9,0-6.5-.3c-.4,0-.6-.2-.6-.6v-1.3c0-.4.2-.6.6-.5Z"/>
      <rect class="cls-5" x="56" y="128" width="258" height="1.5"/>
      <path class="cls-8" d="M60.7,366v-6.7c0-.5,0-1.4,0-2h0c-.3.5-.5,1.1-.8,1.6l-2,3.1h5.7v1.3h-7.3v-1.1l4.1-6.5h1.9v10.3h-1.5ZM74.1,354.4h1.4v12.8h-1.4v-12.8ZM72.2,359.4h2.3v1.2h-2.3v-1.2ZM68.7,356h1.4c0,3.4-1.1,6.4-4.7,8.5l-.9-1c3.1-1.8,4.2-4.2,4.2-7.2v-.3ZM65.1,356h4.1v1.2h-4.1v-1.2ZM71.3,354.7h1.4v11.9h-1.4v-11.9ZM89.7,354.4h1.5v12.8h-1.5v-12.8ZM84.4,355.3c1.9,0,3.3,1.8,3.3,4.5s-1.4,4.5-3.3,4.5-3.3-1.8-3.3-4.5,1.4-4.5,3.3-4.5ZM84.4,356.6c-1.1,0-1.9,1.2-1.9,3.2s.8,3.2,1.9,3.2,1.9-1.2,1.9-3.2-.8-3.2-1.9-3.2ZM96.5,355h1.2v1.2c0,2.5-1.3,4.6-3.5,5.5l-.8-1.2c2-.7,3.1-2.4,3.1-4.3v-1.2ZM96.8,355h1.2v1.4c0,1.7,1.1,3.2,3,3.8l-.8,1.1c-2.2-.8-3.4-2.7-3.4-5v-1.4ZM102,354.4h1.5v7.7h-1.5v-7.7ZM103.1,357.5h2.2v1.2h-2.2v-1.2ZM99.4,362.4c2.6,0,4.3.9,4.3,2.4s-1.6,2.4-4.3,2.4-4.3-.9-4.3-2.4,1.6-2.4,4.3-2.4ZM99.4,363.5c-1.8,0-2.8.4-2.8,1.2s1,1.2,2.8,1.2,2.8-.4,2.8-1.2-1-1.2-2.8-1.2ZM109.5,356.4h6.2v1.2h-6.2v-1.2ZM112.7,358.3c1.6,0,2.8,1.2,2.8,3s-1.2,3-2.8,3-2.8-1.2-2.8-3,1.2-3,2.8-3ZM112.7,359.6c-.9,0-1.5.7-1.5,1.8s.6,1.7,1.5,1.7,1.5-.7,1.5-1.7-.6-1.8-1.5-1.8ZM119,354.4h1.4v12.8h-1.4v-12.8ZM117.2,359.7h2.3v1.2h-2.3v-1.2ZM116.3,354.6h1.4v11.9h-1.4v-11.9ZM111.9,354.7h1.4v2.4h-1.4v-2.4ZM131,354.4h1.5v7.5h-1.5v-7.5ZM132,357.6h2.2v1.2h-2.2v-1.2ZM128.3,362.1c2.6,0,4.3.9,4.3,2.5s-1.7,2.5-4.3,2.5-4.3-.9-4.3-2.5,1.7-2.5,4.3-2.5ZM128.3,363.3c-1.8,0-2.8.5-2.8,1.3s1.1,1.3,2.8,1.3,2.8-.5,2.8-1.3-1.1-1.3-2.8-1.3ZM122.9,359.8h1c2.7,0,4.2,0,5.8-.4l.2,1.2c-1.7.4-3.2.4-6,.4h-1v-1.2ZM122.9,355.3h5.7v1.2h-4.2v4.1h-1.5v-5.3ZM143.8,354.3h1.5v7h-1.5v-7ZM144.7,357.3h2.4v1.2h-2.4v-1.2ZM137,361.9h8.3v3h-6.8v1.4h-1.5v-2.4h6.8v-.9h-6.8v-1.1ZM137,365.9h8.7v1.1h-8.7v-1.1ZM135.3,355.4h7.5v1.1h-7.5v-1.1ZM139.1,357c1.9,0,3.1.8,3.1,2.1s-1.2,2.1-3.1,2.1-3.1-.8-3.1-2.1,1.2-2.1,3.1-2.1ZM139.1,358c-1,0-1.7.4-1.7,1s.7,1,1.7,1,1.7-.4,1.7-1-.7-1-1.7-1ZM138.4,354.3h1.5v2h-1.5v-2ZM158.4,354.6h1.3v11.9h-1.3v-11.9ZM159.2,359.5h2.3v1.2h-2.3v-1.2ZM151.6,362.7h.5c.5,0,1.3,0,2.2-.2v1.2c-.9.2-1.6.2-2.2.2h-.5v-1.2ZM151.6,355.9h2.7v1.2h-1.4v6.3h-1.3v-7.5ZM154.9,362.7h.6c.7,0,1.5,0,2.5-.3v1.2c-.9.3-1.7.3-2.5.3h-.6v-1.2ZM154.9,355.9h2.8v1.2h-1.5v6.2h-1.3v-7.4ZM161,354.4h1.4v12.8h-1.4v-12.8ZM172.3,357.8h2.7v1.2h-2.7v-1.2ZM172.2,361h2.8v1.2h-2.8v-1.2ZM176.9,354.4h1.4v12.8h-1.4v-12.8ZM174.3,354.7h1.4v11.9h-1.4v-11.9ZM171.4,355.9h1.4c0,3.5-1.2,6.4-4.7,8.5l-.8-1c3-1.8,4.2-4.1,4.2-7.2v-.3ZM167.9,355.9h4v1.2h-4v-1.2ZM187.1,357.1h3.2v1.2h-3.2v-1.2ZM183.3,355.4h1.2v.8c0,2.1-1.3,4.2-3.6,4.9l-.7-1.1c1.9-.7,3.1-2.2,3.1-3.8v-.8ZM183.6,355.4h1.2v.8c0,1.4,1.1,2.9,3,3.5l-.7,1.1c-2.2-.7-3.5-2.5-3.5-4.6v-.8ZM180.6,354.9h6.9v1.2h-6.9v-1.2ZM189.4,354.4h1.5v6.6h-1.5v-6.6ZM182.5,361.5h8.3v3.2h-6.9v1.8h-1.4v-2.9h6.9v-1h-6.9v-1.1ZM182.5,365.9h8.7v1.1h-8.7v-1.1ZM196.2,355.1h1.2v1.2c0,2.5-1.3,4.6-3.6,5.5l-.8-1.2c2.1-.7,3.2-2.4,3.2-4.3v-1.2ZM196.5,355.1h1.2v1.2c0,1.8,1.1,3.4,3,4l-.8,1.1c-2.2-.8-3.4-2.8-3.4-5.2v-1.2ZM202.2,354.4h1.5v7.5h-1.5v-7.5ZM199.4,362.3c2.7,0,4.3.9,4.3,2.4s-1.6,2.5-4.3,2.5-4.3-.9-4.3-2.5,1.6-2.4,4.3-2.4ZM199.4,363.4c-1.8,0-2.9.5-2.9,1.3s1.1,1.3,2.9,1.3,2.9-.5,2.9-1.3-1-1.3-2.9-1.3ZM199.7,356.9h2.8v1.2h-2.8v-1.2ZM209.1,361.6h11.6v1.2h-11.6v-1.2ZM214.2,362.4h1.5v4.8h-1.5v-4.8ZM214.9,354.8c2.7,0,4.5,1.1,4.5,2.8s-1.8,2.8-4.5,2.8-4.5-1.1-4.5-2.8,1.8-2.8,4.5-2.8ZM214.9,356c-1.8,0-3,.6-3,1.7s1.2,1.7,3,1.7,3-.6,3-1.7-1.2-1.7-3-1.7ZM227,360.4h1.5v1.9h-1.5v-1.9ZM227.8,354.5c2.9,0,4.6.8,4.6,2.2s-1.7,2.2-4.6,2.2-4.6-.8-4.6-2.2,1.7-2.2,4.6-2.2ZM227.8,355.6c-2,0-3,.4-3,1.1s1.1,1.1,3,1.1,3-.4,3-1.1-1.1-1.1-3-1.1ZM222,359.6h11.6v1.2h-11.6v-1.2ZM223.4,361.8h8.8v3.1h-7.3v1.4h-1.5v-2.4h7.3v-.9h-7.3v-1.1ZM223.4,365.9h9.1v1.1h-9.1v-1.1ZM234.9,360.4h11.6v1.2h-11.6v-1.2ZM240.7,362.5c2.7,0,4.4.9,4.4,2.3s-1.7,2.3-4.4,2.3-4.4-.9-4.4-2.3,1.7-2.3,4.4-2.3ZM240.7,363.6c-1.9,0-2.9.4-2.9,1.2s1.1,1.2,2.9,1.2,2.9-.4,2.9-1.2-1.1-1.2-2.9-1.2ZM239.7,355.6h1.3v.4c0,2-2.1,3.5-5,3.8l-.5-1.1c2.5-.3,4.2-1.4,4.2-2.6v-.4ZM240.4,355.6h1.3v.4c0,1.2,1.7,2.4,4.2,2.6l-.5,1.1c-2.9-.3-5-1.8-5-3.8v-.4ZM235.9,355h9.5v1.2h-9.5v-1.2ZM253.5,354.6c2.9,0,4.6.8,4.6,2.2s-1.7,2.2-4.6,2.2-4.6-.8-4.6-2.2,1.7-2.2,4.6-2.2ZM253.5,355.7c-2,0-3,.4-3,1.1s1.1,1.1,3,1.1,3-.4,3-1.1-1.1-1.1-3-1.1ZM247.8,359.7h11.6v1.2h-11.6v-1.2ZM249.1,361.8h8.8v3.1h-7.3v1.4h-1.5v-2.4h7.3v-.9h-7.3v-1.1ZM249.1,365.9h9.1v1.1h-9.1v-1.1ZM266.9,360.3h1.5v1.7h-1.5v-1.7ZM272.3,354.4h1.5v8.6h-1.5v-8.6ZM273.2,358.1h2.3v1.2h-2.3v-1.2ZM263.9,362.7l-.2-1.2c2.3,0,5.4,0,8-.4v1c-2.6.5-5.6.5-7.8.5ZM265.3,363.6h8.5v3.6h-1.5v-2.4h-7.1v-1.1ZM264,355.4h7.3v1.1h-7.3v-1.1ZM267.7,356.9c1.8,0,3,.7,3,1.9s-1.2,1.9-3,1.9-3-.7-3-1.9,1.2-1.9,3-1.9ZM267.7,357.9c-1,0-1.7.3-1.7.9s.6.9,1.7.9,1.7-.4,1.7-.9-.6-.9-1.7-.9ZM266.9,354.3h1.5v1.7h-1.5v-1.7ZM285.8,354.4h1.5v9.3h-1.5v-9.3ZM278.9,365.7h8.7v1.2h-8.7v-1.2ZM278.9,362.7h1.5v3.5h-1.5v-3.5ZM280.3,355.2c1.9,0,3.4,1.3,3.4,3.2s-1.5,3.2-3.4,3.2-3.4-1.3-3.4-3.2,1.5-3.2,3.4-3.2ZM280.3,356.5c-1.1,0-2,.8-2,1.9s.9,1.9,2,1.9,2-.8,2-1.9-.8-1.9-2-1.9ZM289.5,356.4h6.2v1.2h-6.2v-1.2ZM292.7,358.3c1.6,0,2.8,1.2,2.8,3s-1.2,3-2.8,3-2.8-1.2-2.8-3,1.2-3,2.8-3ZM292.7,359.6c-.9,0-1.5.7-1.5,1.8s.6,1.7,1.5,1.7,1.5-.7,1.5-1.7-.6-1.8-1.5-1.8ZM299,354.4h1.4v12.8h-1.4v-12.8ZM297.2,359.7h2.3v1.2h-2.3v-1.2ZM296.3,354.6h1.4v11.9h-1.4v-11.9ZM292,354.7h1.4v2.4h-1.4v-2.4ZM60,376.3c1.9,0,3.3,1.8,3.3,4.5s-1.4,4.5-3.3,4.5-3.3-1.8-3.3-4.5,1.4-4.5,3.3-4.5ZM60,377.6c-1.1,0-1.9,1.2-1.9,3.2s.8,3.2,1.9,3.2,1.9-1.2,1.9-3.2-.8-3.2-1.9-3.2ZM66.2,378.5h2.3v1.2h-2.3v-1.2ZM66.2,382.3h2.3v1.2h-2.3v-1.2ZM65.1,375.4h1.5v12.8h-1.5v-12.8ZM81.2,375.4h1.5v9.6h-1.5v-9.6ZM82.2,379.4h2.2v1.2h-2.2v-1.2ZM72.7,376.8h7.5v1.2h-7.5v-1.2ZM76.4,378.6c1.8,0,3.1,1,3.1,2.4s-1.3,2.4-3.1,2.4-3.1-1-3.1-2.4,1.3-2.4,3.1-2.4ZM76.4,379.7c-1,0-1.7.5-1.7,1.3s.7,1.3,1.7,1.3,1.7-.5,1.7-1.3-.7-1.3-1.7-1.3ZM75.7,375.4h1.5v2h-1.5v-2ZM74.6,386.7h8.6v1.2h-8.6v-1.2ZM74.6,384.2h1.5v3h-1.5v-3ZM94,375.4h1.5v12.8h-1.5v-12.8ZM95.1,380.3h2.3v1.2h-2.3v-1.2ZM86.1,383.8h1c2.3,0,3.9,0,5.8-.4l.2,1.2c-2,.4-3.7.4-6,.4h-1v-1.2ZM86.1,376.6h5.9v1.2h-4.5v6.6h-1.5v-7.8ZM99.9,387.2c-.6,0-1.1-.5-1.1-1.1s.5-1.1,1.1-1.1,1.1.5,1.1,1.1-.5,1.1-1.1,1.1Z"/>
      <g class="cls-9">
        <g>
          <path class="cls-2" d="M71.5,149.3h-15v15h15v-15Z"/>
          <path class="cls-3" d="M58.1,145.9l5.9,12.9,7-17.5"/>
        </g>
      </g>
      <path d="M89.3,157.7c-.9.4-1.8.6-2.6.6-2.3,0-3.5-1.4-3.5-4s0-3.7.3-5.4c0-.2.2-.3.4-.3h.9c.3,0,.4.2.4.4-.2,1.9-.3,3.6-.3,5.5s.5,2.4,1.9,2.4,1.3-.2,2.1-.5c0,0,0,0,.1,0,.1,0,.2,0,.3.3l.2.8c0,.2,0,.3-.3.4ZM92.6,159.7c0,.2-.1.4-.4.4h-.9c-.2,0-.4-.1-.4-.4v-11.6c0-.2.1-.4.4-.4h.9c.2,0,.4.1.4.4v4.8c0-.2.3-.3.6-.3h.8c.2,0,.4.1.4.3v.8c0,.2-.1.4-.4.4h-.9c-.3,0-.5.1-.5.4v5.1ZM95.8,154.3c1.3,0,3.3.1,4.9.1s3.9,0,5-.1c.2,0,.3,0,.3.3v.7c0,.2,0,.4-.3.4-1,.1-3,.1-5,.1-2.6,0-4.1,0-4.9-.1-.2,0-.3-.1-.3-.4v-.7c0-.2.1-.4.4-.3ZM105,153.4c-1.4.2-2.8.3-3.6.3-4,0-4.8-.5-4.8-1.9s.8-1.8,4-1.8,1.4,0,2.1,0c.6,0,.7-.2.7-.4s-.2-.4-.7-.4c-2.2,0-4.4,0-5.5.1-.2,0-.3,0-.3-.3v-.7c0-.2,0-.3.3-.3,1.8-.1,4.4-.2,6.5,0,1,0,1.3.4,1.3,1s-.3,1-.9,1.2h.5c.2,0,.3,0,.3.3v.7c0,.2,0,.3-.3.3-.7,0-1.8,0-3.9,0s-2.4,0-2.4.5.3.5,3.2.5,2,0,3.5-.3c.2,0,.3,0,.3.3v.7c0,.2,0,.3-.2.4ZM96.5,156.9c0-.2.2-.4.4-.4h.9c.2,0,.4.2.3.4,0,.3,0,.6,0,.8,0,.7.4,1,1.3,1,2.5,0,4.1,0,5.7-.2.2,0,.3,0,.4.3v.8c0,.2,0,.3-.3.3-1.4.1-3.5.3-5.8.3s-3-.9-3-2.4,0-.6,0-.9ZM110.7,152.8c-.9,0-1.4.6-1.4,1.9s.5,1.9,1.4,1.9,1.5-.6,1.5-1.9-.5-1.9-1.5-1.9ZM113.7,154.7c0,2.2-1.1,3.5-3.1,3.5s-3.1-1.3-3.1-3.5,1.1-3.4,3.1-3.4,3.1,1.2,3.1,3.4ZM117,159.7c0,.2-.1.4-.4.4h-.9c-.2,0-.4-.1-.4-.4v-11.6c0-.2.1-.4.4-.4h.9c.2,0,.4.1.4.4v4.8c0-.2.3-.3.6-.3h.8c.2,0,.3.1.3.3v.8c0,.2-.1.4-.3.4h-.9c-.3,0-.5.1-.5.4v5.1ZM111.8,148.8h2c.2,0,.3.1.3.4v.8c0,.2-.1.4-.3.4h-6.3c-.2,0-.3-.1-.3-.4v-.8c0-.2.1-.4.3-.4h2.6c-.1,0-.2-.2-.2-.4v-.8c0-.2.1-.4.3-.4h.9c.2,0,.4.1.4.4v.9c0,.2,0,.3.3.3ZM120.2,158.7c-.3,0-.3-.2-.3-.4v-.8c0-.2.1-.4.4-.3,1.2.1,2.6.2,3.8.3-.2,0-.3-.3-.3-.6v-3.1c0-.2.1-.4.4-.4h.9c.2,0,.4.1.4.4v3.2c0,.3.2.4.5.4,1.5,0,3.4-.1,4.3-.2.2,0,.4,0,.4.3v.8c0,.2,0,.3-.3.4-.9.2-2.8.2-5,.2s-3.9,0-4.9-.3ZM121.3,150.2c-.2,0-.3,0-.3-.3v-.9c0-.2,0-.3.3-.4,1.6-.2,2.8-.2,4.7-.2s3.3,1.2,3.3,3.4,0,2.2-.3,3.2c0,.2-.1.3-.4.2h-1c-.2-.2-.3-.3-.3-.5.2-.8.2-1.7.2-2.7,0-1.6-.5-2.1-2-2.1s-3,0-4.4.3ZM142.5,156.6c-.3,0-.5.1-.5.4v2.1c0,.2-.1.4-.4.4h-.9c-.2,0-.4-.1-.4-.4v-1.9c0-.3.1-.5.4-.6-1.6,0-3.5-.1-4.5-.2-.3,0-.3-.2-.3-.4v-.8c0-.2.1-.4.4-.3,1.3.2,2.9.2,4.9.2s3.8,0,4.9-.2c.2,0,.4,0,.4.3v.8c0,.2,0,.4-.4.4-1,.1-2.4.2-3.6.2ZM141.3,151.6c-.6,1.3-2.2,2.3-3.8,2.3s-.5,0-.5-.4v-.9c0-.2,0-.3.4-.3,1.9,0,3.2-1.2,3.2-2.8v-1.1c0-.2.1-.4.4-.4h.9c.2,0,.4.1.4.4v1.1c0,1.6,1.3,2.8,3.2,2.8s.3,0,.3.3v.9c0,.4-.2.4-.5.4-1.7,0-3.2-.9-3.8-2.3ZM151,153c.9,0,1.4-.8,1.4-2s-.4-1.6-1.2-1.6h-1.3c-.2,0-.3.1-.3.3v2.8c0,.3.2.4.5.4h.8ZM153.7,154.5h-4.1c-.9,0-1.4-.5-1.4-1.2v-4.6c0-.4.2-.7.6-.7h3.4c1.3,0,2,.8,2,2.3s-.5,2.3-1.3,2.8h.9c.2,0,.4.1.4.4v.8c0,.2-.1.3-.4.3ZM157.7,155.9c0,.2-.1.4-.4.4h-.9c-.2,0-.4-.1-.4-.4v-2.6c0,.2-.3.3-.6.3h-.6c-.2,0-.4-.1-.4-.4v-.8c0-.2.1-.4.4-.4h.8c.3,0,.4-.1.4-.4v-1.5c0,.2-.3.3-.6.3h-.6c-.2,0-.4-.1-.4-.4v-.8c0-.2.1-.3.4-.3h.8c.3,0,.4-.1.4-.4v-.6c0-.2.1-.4.4-.4h.9c.2,0,.4.1.4.4v7.9ZM149.2,156.1c0-.2.2-.4.4-.4h.8c.2,0,.4.2.4.4,0,.3,0,.8,0,1.4,0,.8.5,1.3,1.4,1.3,2.5,0,3.9,0,5.5-.2.2,0,.3,0,.4.3v.8c0,.2,0,.3-.3.3-1.4.1-3.2.3-5.5.3s-3.1-1-3.1-2.6,0-1.2,0-1.6ZM166,153.9c-.7.3-2,.5-3.1.5-2.4,0-3.2-.5-3.2-2s.9-2,3.5-2,1-.2,1-.5-.3-.4-1.1-.4-1.6,0-2.7.2c-.2,0-.4,0-.4-.3v-.8c0-.2,0-.3.3-.4.9-.2,1.8-.2,3-.2,1.8,0,2.4.4,2.4,1.3s-.2,1-.7,1.2h.3c.2,0,.3,0,.3.3v.7c0,.2,0,.3-.3.3-.7,0-1.3,0-1.8,0-1.8,0-2.4.1-2.4.6s.4.6,2,.6,1.7-.2,2.4-.4c0,0,.1,0,.2,0,.1,0,.2,0,.3.2l.2.7c0,.2,0,.4-.2.4ZM162.1,157.8c0,.7.7,1.1,2.8,1.1s2.8-.3,2.8-1.1-.7-1.1-2.8-1.1-2.8.3-2.8,1.1ZM169.1,151.8c0-.2.3-.3.6-.3h.8c.2,0,.4.1.4.3v.8c0,.2-.1.4-.4.4h-.9c-.3,0-.5.1-.5.4v.7c0,.2-.1.4-.4.4h-.9c-.2,0-.4-.1-.4-.4v-6.2c0-.2.1-.4.4-.4h.9c.2,0,.4.1.4.4v.8c0-.2.3-.3.6-.3h.8c.2,0,.4.1.4.4v.8c0,.2-.1.4-.4.4h-.9c-.3,0-.5.1-.5.4v1.4ZM160.5,157.8c0-1.8,1.5-2.5,4.4-2.5s4.4.8,4.4,2.5-1.5,2.5-4.4,2.5-4.4-.8-4.4-2.5ZM178,153.4c0,3.5-1,5-3.1,5s-3.1-1.6-3.1-5,1-5,3.1-5,3.1,1.5,3.1,5ZM174.9,149.9c-1.1,0-1.5,1-1.5,3.5s.5,3.5,1.5,3.5,1.5-1,1.5-3.5-.5-3.5-1.5-3.5ZM179.9,148c0-.2.1-.4.4-.4h.9c.2,0,.4.1.4.4v11.6c0,.2-.1.4-.4.4h-.9c-.2,0-.4-.1-.4-.4v-11.6ZM197.2,160c-1,.1-2.7.2-3.8.2-4.1,0-5-.3-5-1.8s.9-1.7,4.2-1.7,1.6,0,2.3,0c.5,0,.7-.1.7-.4s-.2-.4-.7-.4c-1.4,0-4.4,0-6,.2-.2,0-.3,0-.3-.3v-.6c0-.2,0-.3.3-.3,2.1-.1,5.1-.2,6.9-.2.9,0,1.3.3,1.3,1s-.3,1-.9,1.2h.5c.2,0,.3,0,.3.3v.6c0,.2,0,.3-.3.3-.9,0-2.3,0-4.2,0s-2.6,0-2.6.5.6.5,3.4.5,2.6,0,3.7-.2c.2,0,.3,0,.3.3v.6c0,.2,0,.3-.2.4ZM197.7,152.6c.2,0,.4,0,.4.3v.7c0,.2,0,.3-.3.4-1,.1-3,.1-5,.1-2.6,0-4.1,0-4.9-.1-.2,0-.3-.1-.3-.3v-.7c0-.2.1-.3.4-.3,1.3,0,3.3.1,4.9.1s3.9,0,5-.1ZM188.7,148.3c0-.2.2-.4.4-.4h.9c.2,0,.4.2.3.4,0,.4,0,.8,0,1.3,0,.7.3,1,1.2,1,2.2,0,3.8,0,5.4-.2.2,0,.3,0,.4.3v.8c0,.2,0,.3-.3.3-1.4.1-3.5.3-5.6.3s-2.7-.8-2.7-2.3,0-1.1,0-1.5ZM204,151c0-1.1-.6-1.7-1.5-1.7s-1.5.7-1.5,1.7.6,1.7,1.5,1.7,1.5-.7,1.5-1.7ZM204.9,160.1c-1,0-1.8-.6-2.1-1.5-.4.8-1.3,1.5-2.4,1.5s-.5,0-.5-.4v-.8c0-.2,0-.3.3-.3,1,0,1.7-.8,1.7-1.8v-1.3c0-.2.1-.4.4-.4h.9c.2,0,.4.1.4.4v1.6c0,.9.5,1.5,1.3,1.5s1.3-.6,1.3-1.5v-1.6c0-.2.1-.4.4-.4h.9c.2,0,.4.1.4.4v1.3c0,1,.7,1.8,1.7,1.8s.4,0,.4.3v.8c0,.3-.2.4-.5.4-1,0-2-.6-2.4-1.5-.3.9-1.1,1.5-2.1,1.5ZM205.6,151c0,1.9-1.2,3.2-3.1,3.2s-3.1-1.3-3.1-3.2,1.2-3.2,3.1-3.2,3.1,1.3,3.1,3.2ZM207.6,148c0-.2.1-.4.4-.4h.9c.2,0,.4.1.4.4v5.8c0,.2-.1.4-.4.4h-.9c-.2,0-.4-.1-.4-.4v-2.5c0,.2-.3.3-.6.3h-.6c-.2,0-.4-.1-.4-.3v-.8c0-.2.1-.4.4-.4h.7c.3,0,.5-.1.5-.4v-1.6ZM212.8,153.4c0,2.3.8,3.3,2.3,3.3s1.3-.2,2.1-.5c0,0,0,0,.1,0,.1,0,.2,0,.3.3l.2.8c0,.2,0,.3-.3.4-.9.3-1.8.5-2.6.5-2.5,0-3.8-1.7-3.8-4.9s1.3-4.9,3.9-4.9,1.3,0,1.9.1c.3,0,.4.1.4.4v.8c0,.3-.1.4-.4.4-.6,0-1-.1-1.8-.1-1.8,0-2.4.9-2.4,3.3ZM220.6,159.7c0,.2-.1.4-.4.4h-.9c-.2,0-.4-.1-.4-.4v-11.6c0-.2.1-.4.4-.4h.9c.2,0,.4.1.4.4v4.8c0-.2.3-.3.6-.3h.8c.2,0,.3.1.3.3v.8c0,.2-.1.4-.3.4h-.9c-.3,0-.5.1-.5.4v5.1ZM223.5,159.4c0-.6.4-1,1-1s1.1.4,1.1,1-.4,1-1.1,1-1-.4-1-1Z"/>
      <path class="cls-2" d="M71.5,175.5h-15v15h15v-15Z"/>
      <path d="M92.8,186.9c0,.2-.2.4-.4.4h-.8c-.2,0-.4-.2-.4-.4,0-.5,0-1.2,0-1.8,0-.9-.3-1.2-1.3-1.2-2,0-3.7,0-5.4.2-.2,0-.3,0-.3-.3v-.8c0-.2,0-.3.3-.4,1.5-.2,3.3-.2,5.6-.2s2.7.6,2.7,2.2,0,1.7,0,2.2ZM87.1,175.5v1.7c0,1.6.9,2.7,2.1,2.7s.3.1.3.4v.8c0,.2-.1.4-.3.4-1.5,0-2.5-1-2.9-2.1-.4,1.1-1.5,2.1-2.9,2.1s-.4-.1-.4-.4v-.8c0-.2.1-.4.4-.4,1.2,0,2.1-1.2,2.1-2.7v-1.7c0-.2.1-.4.4-.4h.9c.2,0,.4.1.4.4ZM91.3,175.2c0-.2.1-.4.4-.4h.9c.2,0,.4.1.4.4v5.9c0,.2-.1.4-.4.4h-.9c-.2,0-.4-.1-.4-.4v-5.9ZM101.6,180c-.4,0-.8,0-1.3,0s-1.1,0-1.5,0v.8c0,.2,0,.3.3.3.6,0,1.8,0,2.8,0-.2,0-.3-.2-.3-.5v-.6ZM100.3,178.6c2,0,2.8-.3,2.8-1.1s-.7-1.1-2.8-1.1-2.8.3-2.8,1.1.7,1.1,2.8,1.1ZM105.5,181.2v.8c0,.2,0,.4-.3.4-1,.1-3,.1-5,.1-2.6,0-4.1,0-4.9-.1-.2,0-.3-.1-.3-.4v-.8c0-.2.1-.3.4-.3.7,0,1.4,0,2.1.1-.2,0-.3-.2-.3-.5v-1c-.8-.4-1.2-1.1-1.2-2,0-1.8,1.3-2.5,4.4-2.5s4.4.8,4.4,2.5-.4,1.7-1.4,2.1v1.1c0,.2,0,.3.3.3.5,0,1.1,0,1.6,0,.2,0,.4,0,.4.3ZM104.6,186.9c0,.2-.2.4-.4.4h-.8c-.2,0-.4-.2-.4-.4,0-.4,0-.8,0-1.2,0-.9-.3-1.1-1.2-1.1-1.8,0-3.7,0-5.7.3-.2,0-.4,0-.4-.3v-.8c0-.2,0-.3.4-.4,1.9-.2,3.4-.3,5.8-.3s2.7.6,2.7,2.2,0,1.2,0,1.6ZM113.2,180.6c0,3.5-1,5-3.2,5s-3.1-1.6-3.1-5,1-5,3.1-5,3.2,1.5,3.2,5ZM110.1,177.1c-1.1,0-1.5,1-1.5,3.5s.5,3.5,1.5,3.5,1.5-1,1.5-3.5-.5-3.5-1.5-3.5ZM115.1,175.2c0-.2.1-.4.4-.4h.9c.2,0,.4.1.4.4v11.6c0,.2-.1.4-.4.4h-.9c-.2,0-.4-.1-.4-.4v-11.6ZM123.4,184.8c0-1.8,1.5-2.7,4.6-2.7s4.6.9,4.6,2.7-1.5,2.7-4.6,2.7-4.6-.9-4.6-2.7ZM122.6,176.6c-.2,0-.3-.1-.3-.4v-.8c0-.2.1-.3.3-.3h5.9c.2,0,.4.1.4.3v.8c0,.2-.1.4-.4.4h-.6l-.2,3.1c.3,0,.6,0,.8,0,.2,0,.3.1.3.3v.8c0,.2-.1.3-.3.4-.6,0-1.7.2-3,.2s-2.4,0-3.1-.2c-.2,0-.4-.1-.4-.4v-.8c0-.2.1-.4.4-.3.3,0,.6,0,1,0l-.2-3.1h-.6ZM130.6,179.9c0,.2-.3.3-.6.3h-.5c-.2,0-.4-.1-.4-.4v-.8c0-.2.1-.4.4-.4h.7c.3,0,.4-.1.4-.4v-1.1c0,.2-.3.3-.6.3h-.5c-.2,0-.4-.1-.4-.4v-.8c0-.2.1-.3.4-.3h.7c.3,0,.4-.1.4-.4v-.5c0-.2.1-.4.4-.4h.9c.2,0,.4.1.4.4v5.9c0,.2-.1.4-.4.4h-.9c-.2,0-.4-.1-.4-.4v-1.1ZM125,184.8c0,.7.8,1.2,3,1.2s3-.5,3-1.2-.8-1.2-3-1.2-3,.5-3,1.2ZM124.9,179.8c.2,0,.4,0,.6,0s.4,0,.6,0l.2-3.2h-1.6l.2,3.2ZM134.6,185.9c-.3,0-.4-.2-.4-.4v-.8c0-.2.1-.4.4-.3,1,.1,2.9.2,4.5.3-.2,0-.4-.3-.4-.6v-1.6c0-.2.1-.4.4-.4h.9c.2,0,.4.1.4.4v1.7c0,.3.2.4.5.4,1.2,0,2.7,0,3.6-.2.2,0,.4,0,.4.3v.8c0,.2,0,.3-.4.4-1,.2-2.8.2-5,.2s-3.9,0-4.9-.3ZM139.6,180c-.6,1.4-2.2,2.3-3.8,2.3s-.5,0-.5-.3v-.9c0-.2,0-.3.3-.3,1.9,0,3.2-1.2,3.2-2.9v-2c0-.2.1-.4.4-.4h.9c.2,0,.4.1.4.4v2c0,1.7,1.3,2.9,3.2,2.9s.4,0,.4.3v.9c0,.3-.2.3-.5.3-1.7,0-3.2-1-3.8-2.3ZM146.4,179c0-2.3,1.2-3.8,3.1-3.8s3.1,1.5,3.1,3.8-.9,3.3-2.4,3.7v1.7c0,.3.2.4.5.4.9,0,1.6,0,2.1-.2.2,0,.4,0,.4.3v.8c0,.2,0,.3-.4.4-.9.1-2.1.2-3.4.2s-2.3,0-3.2-.2c-.3,0-.4-.1-.4-.4v-.8c0-.2.1-.3.4-.3.7.1,1.8.2,2.7.2-.2,0-.3-.3-.3-.6v-1.6c-1.4-.4-2.3-1.7-2.3-3.7ZM155.8,186.8c0,.2-.1.4-.4.4h-.9c-.2,0-.4-.1-.4-.4v-11.6c0-.2.1-.4.4-.4h.9c.2,0,.4.1.4.4v4.8c0-.2.3-.3.6-.3h.8c.2,0,.3.1.3.4v.8c0,.2-.1.4-.3.4h-.9c-.3,0-.5.1-.5.4v5.1ZM149.6,181.3c1,0,1.5-.9,1.5-2.3s-.6-2.3-1.5-2.3-1.5.9-1.5,2.3.6,2.3,1.5,2.3ZM171.9,187.2c-1.2.1-2.6.2-3.6.2-3.9,0-5-.4-5-1.9s1-1.8,4.1-1.8,1.3,0,2.1,0,.7-.1.7-.4-.2-.5-.7-.5c-1.4,0-4.1,0-5.6.2-.2,0-.3,0-.3-.3v-.7c0-.2,0-.3.3-.3,2.1-.1,4.8-.2,6.7-.2.9,0,1.3.4,1.3,1.1s-.4,1-.9,1.2h.5c.2,0,.3,0,.3.3v.6c0,.2,0,.3-.3.3-1,0-2.3,0-3.9,0s-2.6,0-2.6.5.5.5,3.3.5,2.4,0,3.5-.2c.2,0,.3,0,.4.3v.7c0,.2,0,.3-.3.4ZM168.8,180.4c-.8.2-1.8.4-2.5.4-2.6,0-3.9-.9-3.9-2.8s1.3-2.9,4-2.9,1.4,0,1.9.1c.2,0,.3.2.3.4v.7c0,.3-.1.4-.4.3-.4,0-1-.1-1.7-.1-1.7,0-2.5.4-2.5,1.4s.7,1.4,2.3,1.4,1.4-.2,2.1-.4c.2,0,.4,0,.4.2l.2.7c0,.2,0,.4-.3.4ZM171.9,180.4c0,.2-.1.4-.4.4h-.9c-.2,0-.4-.1-.4-.4v-5.2c0-.2.1-.4.4-.4h.9c.2,0,.4.1.4.4v1.9c0-.2.3-.3.6-.3h.8c.2,0,.3.1.3.4v.8c0,.2-.1.4-.3.4h-.9c-.3,0-.5.1-.5.4v1.6ZM178.3,183.9c.7,0,1.5-.2,2.3-.5,0,0,.1,0,.2,0,.1,0,.2,0,.3.2l.3.8c0,.2,0,.4-.3.4-1.1.4-2.1.6-3,.6-2.2,0-3.3-1-3.3-2.9s1.1-2.8,3.3-2.8,1.2-.4,1.2-1.2-.4-1.3-1.3-1.3-1.3,0-2.5.2-.4,0-.4-.3v-.9c0-.2,0-.3.3-.4,1-.1,1.7-.2,2.9-.2,1.7,0,2.6.7,2.6,2s-.3,1.6-.9,2.1h.4c.2,0,.3,0,.3.3v.8c0,.2,0,.3-.3.3-.7,0-1.4,0-1.9,0-1.6,0-2.2.4-2.2,1.4s.6,1.4,2,1.4ZM182.7,175.2c0-.2.1-.4.4-.4h.9c.2,0,.4.1.4.4v11.6c0,.2-.1.4-.4.4h-.9c-.2,0-.4-.1-.4-.4v-11.6ZM191.1,185c0-1.6,1.5-2.4,4.6-2.4s4.6.8,4.6,2.4-1.5,2.4-4.6,2.4-4.6-.8-4.6-2.4ZM191.6,179.6c-.3,0-.4-.1-.4-.4v-.8c0-.2,0-.3.4-.3,1.8,0,3.1-.7,3.1-1.6h-2.9c-.2,0-.3-.1-.3-.4v-.8c0-.2.1-.4.3-.4h7.5c.2,0,.4.1.4.4v.8c0,.2-.1.4-.4.4h-2.9c0,.9,1.3,1.6,3.2,1.6s.3,0,.3.3v.8c0,.2,0,.3-.3.4-1.7,0-3.4-.8-4-1.8-.6,1-2.2,1.8-4,1.8ZM190.6,180.4c1.3,0,3.2.1,4.9.1s3.9,0,4.9-.1c.2,0,.4,0,.4.3v.8c0,.2,0,.4-.4.4-1,.1-3,.1-5,.1-2.6,0-4.1,0-4.9-.1-.2,0-.3-.1-.3-.4v-.8c0-.2.1-.3.4-.3ZM192.7,185c0,.7.9,1,3,1s3-.3,3-1-.8-1-3-1-3,.3-3,1ZM208.1,185c0,.2-.2.3-.4.3h-.9c-.3,0-.4-.2-.3-.4.4-2,.5-4,.5-6.1s-.4-1.6-1.4-1.6-1.8.1-2.7.3c-.2,0-.4-.1-.4-.4v-.8c0-.2.1-.3.3-.4,1.1-.2,2.1-.3,3.1-.3,2,0,2.7.9,2.7,3s-.2,4.2-.5,6.3ZM211.8,186.8c0,.2-.1.4-.4.4h-.9c-.2,0-.4-.1-.4-.4v-11.6c0-.2.1-.4.4-.4h.9c.2,0,.4.1.4.4v4.8c0-.2.3-.3.6-.3h.8c.2,0,.3.1.3.4v.8c0,.2-.1.4-.3.4h-.9c-.3,0-.5.1-.5.4v5.1ZM217.7,179.9c-.9,0-1.4.6-1.4,1.9s.5,1.9,1.4,1.9,1.5-.6,1.5-1.9-.5-1.9-1.5-1.9ZM220.7,181.8c0,2.2-1.1,3.5-3.1,3.5s-3.1-1.3-3.1-3.5,1.1-3.4,3.1-3.4,3.1,1.2,3.1,3.4ZM224,186.8c0,.2-.1.4-.4.4h-.9c-.2,0-.4-.1-.4-.4v-11.6c0-.2.1-.4.4-.4h.9c.2,0,.4.1.4.4v4.8c0-.2.3-.3.6-.3h.8c.2,0,.4.1.4.4v.8c0,.2-.1.4-.4.4h-.9c-.3,0-.5.1-.5.4v5.1ZM218.8,176h2c.2,0,.3.1.3.3v.8c0,.2-.1.3-.3.3h-6.3c-.2,0-.4-.1-.4-.3v-.8c0-.2.1-.3.4-.3h2.6c-.1,0-.2-.2-.2-.4v-.8c0-.2.1-.4.3-.4h.9c.2,0,.4.1.4.4v.9c0,.2,0,.3.3.3ZM232.1,185c0,.2-.2.3-.4.3h-.9c-.3,0-.4-.2-.3-.4.4-2,.5-4,.5-6.1s-.4-1.6-1.4-1.6-1.7.1-2.6.3c-.2,0-.4-.1-.4-.4v-.8c0-.2.1-.3.3-.4,1.1-.2,1.9-.3,2.9-.3,2,0,2.7.9,2.7,3s-.2,4.2-.5,6.3ZM234.8,175.2c0-.2.1-.4.4-.4h.9c.2,0,.4.1.4.4v11.6c0,.2-.1.4-.4.4h-.9c-.2,0-.4-.1-.4-.4v-5.9c0,.2-.3.3-.6.3h-.6c-.2,0-.4-.1-.4-.4v-.8c0-.2.1-.4.4-.4h.7c.3,0,.5-.1.5-.4v-4ZM244.4,184.9c-.9.4-1.8.6-2.6.6-2.3,0-3.5-1.4-3.5-4s0-3.7.3-5.4c0-.2.2-.3.4-.3h.9c.3,0,.4.2.4.4-.2,1.9-.3,3.6-.3,5.5s.5,2.4,1.9,2.4,1.3-.2,2.1-.5c0,0,0,0,.1,0,.1,0,.2,0,.3.3l.2.8c0,.2,0,.3-.3.4ZM247.8,186.8c0,.2-.1.4-.4.4h-.9c-.2,0-.4-.1-.4-.4v-11.6c0-.2.1-.4.4-.4h.9c.2,0,.4.1.4.4v4.8c0-.2.3-.3.6-.3h.8c.2,0,.4.1.4.4v.8c0,.2-.1.4-.4.4h-.9c-.3,0-.5.1-.5.4v5.1ZM261.4,185.8c.7,0,1.3-.6,1.3-1.3s-.3-.9-.9-.9h-4c-.2,0-.3.1-.3.3v1.4c0,.3.2.4.5.4h3.5ZM258.5,180.7c.3-.9.5-2.2.5-3s-.4-1.1-1.1-1.1c-1.5,0-2.2.1-3.1.3-.2,0-.4-.1-.4-.4v-.8c0-.2.1-.3.4-.4,1.1-.2,2.1-.3,3.2-.3,1.9,0,2.6.8,2.6,2.7s-.3,2-.5,3c0,.2-.2.3-.4.3h-.9c-.3,0-.4-.2-.4-.4ZM263.1,185.8h1c.2,0,.4.1.4.4v.8c0,.2-.1.4-.4.4h-6.9c-.9,0-1.4-.5-1.4-1.2v-3.2c0-.4.2-.7.6-.7h6.2c1.1,0,1.7.6,1.7,1.6s-.5,1.6-1.2,2ZM263.9,180.8c0,.2-.1.4-.4.4h-.9c-.2,0-.4-.1-.4-.4v-5.6c0-.2.1-.4.4-.4h.9c.2,0,.4.1.4.4v2.1c0-.2.3-.3.6-.3h.8c.2,0,.4.1.4.3v.8c0,.2-.1.4-.4.4h-.9c-.3,0-.5.1-.5.4v1.8ZM272.8,182.4c-.7.2-1.3.3-2,.3v1.7c0,.3.2.4.5.4.9,0,1.7,0,2.3-.2.2,0,.4,0,.4.3v.8c0,.2,0,.3-.4.4-.9.1-2.3.2-3.6.2s-2.4,0-3.3-.2c-.3,0-.4-.1-.4-.4v-.8c0-.2.1-.3.4-.3.7.1,1.9.2,2.9.2-.2,0-.4-.3-.4-.6v-1.6c-1.8-.2-2.5-.9-2.5-2.4s1-2.5,3.9-2.5,1.2,0,1.8.1c.2,0,.3.2.3.4v.7c0,.3-.1.4-.4.3-.4,0-1,0-1.6,0-1.7,0-2.4.3-2.4,1s.6,1.1,2,1.1,1.5,0,2.2-.3c.3,0,.4,0,.5.3v.7c.2.3.1.4-.1.5ZM276.3,186.8c0,.2-.1.4-.4.4h-.9c-.2,0-.4-.1-.4-.4v-11.6c0-.2.1-.4.4-.4h.9c.2,0,.4.1.4.4v11.6ZM267.2,176.9c-.2,0-.4-.1-.4-.4v-.8c0-.2.1-.3.4-.3h5.4c.2,0,.4.1.4.3v.8c0,.2-.1.4-.4.4h-5.4ZM284.5,187.3c-1,0-1.9-.6-2.2-1.5-.4.9-1.4,1.5-2.5,1.5s-.5,0-.5-.4v-.8c0-.2,0-.3.4-.3,1.1,0,1.8-.8,1.8-1.8v-1c0-.2.1-.4.4-.4h.9c.2,0,.4.1.4.4v1.3c0,.9.5,1.5,1.4,1.5s1.4-.6,1.4-1.5v-1.3c0-.2.1-.4.4-.4h.9c.2,0,.4.1.4.4v1c0,1,.8,1.8,1.8,1.8s.3,0,.3.3v.8c0,.3-.2.4-.5.4-1.1,0-2.1-.6-2.5-1.5-.4.9-1.2,1.5-2.2,1.5ZM289,175.2v6.1c0,.2-.1.4-.3.4h-.8c-.2,0-.3-.1-.3-.4v-2.4h-.8c-.3,0-.4,0-.4.4v2c0,.2-.1.4-.4.4h-.8c-.2,0-.4-.1-.4-.4v-6c0-.2.1-.4.4-.4h.8c.2,0,.4.1.4.4v2.3c0-.2.3-.3.5-.3h.7v-2.2c0-.2.1-.4.3-.4h.8c.2,0,.3.1.3.4ZM278.2,179.5c0-1.3.9-2.1,2.6-2.1s2.6.8,2.6,2.1-.9,2.1-2.6,2.1-2.6-.8-2.6-2.1ZM281.6,174.5v.5c0,.2,0,.3.3.3h1.6c.2,0,.4.1.4.3v.7c0,.2-.1.4-.4.4h-5.4c-.2,0-.4-.1-.4-.4v-.7c0-.2.1-.3.4-.3h2.1c-.1,0-.2-.2-.2-.4v-.4c0-.2.1-.3.4-.3h.8c.2,0,.4.1.4.3ZM280.8,180.3c.7,0,1.1-.3,1.1-.7s-.4-.7-1.1-.7-1.1.3-1.1.7.4.7,1.1.7ZM292.5,180.6c0,2.3.8,3.3,2.3,3.3s1.3-.2,2.1-.5c0,0,0,0,.1,0,.1,0,.2,0,.3.3l.2.8c0,.2,0,.3-.3.4-.9.4-1.8.5-2.6.5-2.5,0-3.8-1.7-3.8-4.9s1.3-4.9,3.9-4.9,1.3,0,1.9.1c.3,0,.4.1.4.4v.8c0,.3-.1.4-.4.4-.6,0-1-.1-1.8-.1-1.8,0-2.4.9-2.4,3.3ZM300.3,186.8c0,.2-.1.4-.4.4h-.9c-.2,0-.4-.1-.4-.4v-11.6c0-.2.1-.4.4-.4h.9c.2,0,.4.1.4.4v4.8c0-.2.3-.3.6-.3h.8c.2,0,.4.1.4.4v.8c0,.2-.1.4-.4.4h-.9c-.3,0-.5.1-.5.4v5.1ZM303.2,186.5c0-.6.4-1,1-1s1.1.4,1.1,1-.4,1-1.1,1-1-.4-1-1Z"/>
      <path class="cls-2" d="M71.5,202.7h-15v15h15v-15Z"/>
      <path d="M85.3,213v.5c0,.4.2.5.7.5h4.5c.4,0,.6-.2.6-.5v-.5s-5.8,0-5.8,0ZM91.1,215.4h-5.7c-1,0-1.5-.5-1.6-1.3l-.2-3.2c0-.2.1-.4.4-.4h.9c.2,0,.3.1.4.4v.7h6v-.7c0-.2.2-.4.4-.4h.9c.2,0,.4.1.4.4l-.2,3.2c0,.8-.6,1.3-1.6,1.3ZM83,208.2c.9,0,2.1.1,3.5.1s2.8,0,3.7,0c.2,0,.4,0,.4.3v.8c0,.2,0,.4-.3.4-.5,0-1.4,0-2.4,0s-.4.1-.4.3v.7c0,.2-.1.4-.4.4h-.9c-.2,0-.4-.1-.4-.4v-.6c0-.2,0-.3.2-.4-1.1,0-2.4,0-3.1-.1-.3,0-.4-.1-.4-.4v-.8c0-.2.1-.3.4-.3ZM87.3,203.7v.6c0,1.2.7,1.9,2,1.9s.3.1.3.4v.8c0,.2-.1.4-.3.4-1.3,0-2.4-.7-2.8-1.6-.4,1-1.6,1.6-2.9,1.6s-.3-.1-.3-.4v-.8c0-.2.1-.4.3-.4,1.3,0,2-.7,2-1.9v-.6c0-.2.1-.4.4-.4h.9c.2,0,.4.1.4.4ZM91.3,203.3c0-.2.1-.4.4-.4h.9c.2,0,.4.1.4.4v6.2c0,.2-.1.4-.4.4h-.9c-.2,0-.4-.1-.4-.4v-6.2ZM99.5,213.1c0,.3-.1.3-.4.3h-.8c-.2,0-.4-.1-.3-.3.3-2,.5-4.3.5-6.4s-.2-1.3-1.1-1.3-1.8.1-2.4.3c-.2,0-.4-.1-.4-.4v-.8c0-.2.1-.3.3-.4.8-.2,1.8-.3,2.6-.3,1.8,0,2.5.7,2.5,2.7s0,.8,0,1.2h1.3c.3,0,.4,0,.4-.4v-4c0-.2.1-.4.3-.4h.8c.2,0,.3.1.3.4v11.6c0,.2-.1.4-.3.4h-.8c-.2,0-.3-.1-.3-.4v-5.9c0,.2-.3.3-.5.3h-1.1c0,0,0,0-.1,0,0,1.3-.2,2.6-.4,3.8ZM105.7,203.3v11.7c0,.2-.1.4-.3.4h-.8c-.2,0-.4-.1-.4-.4v-11.7c0-.2.1-.4.4-.4h.8c.2,0,.3.1.3.4ZM121.4,215.3c-1,.1-2.7.2-3.8.2-4.1,0-5-.3-5-1.8s.9-1.7,4.2-1.7,1.6,0,2.3,0c.5,0,.7-.1.7-.4s-.2-.4-.7-.4c-1.4,0-4.4,0-6,.2-.2,0-.3,0-.3-.3v-.6c0-.2,0-.3.3-.3.9,0,1.9,0,2.9-.1v-.4c0-.2,0-.3.2-.4-1.4,0-3.3,0-4.3-.1-.2,0-.3-.1-.3-.3v-.7c0-.2.1-.3.3-.3.9,0,2.4.1,4.9.1,2,0,3.9,0,5-.1.2,0,.4,0,.4.3v.7c0,.2,0,.3-.3.4-1,0-2.7.1-3.8.1s-.3.1-.3.4v.3c.9,0,1.7,0,2.4,0,.9,0,1.3.3,1.3,1s-.4,1-.9,1.2h.5c.2,0,.3,0,.3.3v.6c0,.2,0,.3-.3.3-.9,0-2.3,0-4.2,0s-2.6,0-2.6.5.6.5,3.4.5,2.6,0,3.7-.2c.2,0,.3,0,.3.3v.6c0,.2,0,.3-.2.4ZM119.6,207.4h-5.3c-.9,0-1.3-.4-1.4-1.2l-.2-2.6c0-.2.1-.4.4-.4h.9c.2,0,.3.1.4.4v.3h5.3v-.3c0-.2.2-.4.4-.4h.9c.2,0,.4.1.4.4l-.2,2.6c0,.8-.5,1.2-1.4,1.2ZM114.4,205.2v.4c0,.3.2.4.5.4h4c.4,0,.5,0,.5-.4v-.4s-5.1,0-5.1,0ZM128.3,206.5c0-1.2-.6-1.9-1.5-1.9s-1.5.8-1.5,1.9.6,1.9,1.5,1.9,1.5-.8,1.5-1.9ZM129.9,206.5c0,2.1-1.2,3.4-3.1,3.4s-3.1-1.3-3.1-3.4,1.2-3.4,3.1-3.4,3.1,1.3,3.1,3.4ZM133.1,211.2c0,.2-.1.4-.4.4h-.9c-.2,0-.4-.1-.4-.4v-7.9c0-.2.1-.4.4-.4h.9c.2,0,.4.1.4.4v3.3c0-.2.3-.3.6-.3h.8c.2,0,.4.1.4.4v.8c0,.2-.1.3-.4.3h-.9c-.3,0-.5.1-.5.4v3ZM124.9,211.4c0-.2.2-.4.4-.4h.8c.2,0,.4.2.4.4,0,.3,0,.8,0,1.4,0,.8.5,1.3,1.4,1.3,2.3,0,3.6,0,5.2-.2.2,0,.4,0,.4.3v.8c0,.2,0,.3-.3.3-1.4.1-3.1.3-5.2.3s-3.1-1-3.1-2.6,0-1.2,0-1.6ZM139,208.1c-.9,0-1.4.6-1.4,1.9s.5,1.9,1.4,1.9,1.5-.6,1.5-1.9-.5-1.9-1.5-1.9ZM142.1,210c0,2.2-1.1,3.5-3.1,3.5s-3.1-1.3-3.1-3.5,1.1-3.4,3.1-3.4,3.1,1.2,3.1,3.4ZM145.3,215c0,.2-.1.4-.4.4h-.9c-.2,0-.4-.1-.4-.4v-11.6c0-.2.1-.4.4-.4h.9c.2,0,.4.1.4.4v4.8c0-.2.3-.3.6-.3h.8c.2,0,.4.1.4.3v.8c0,.2-.1.4-.4.4h-.9c-.3,0-.5.1-.5.4v5.1ZM140.2,204.1h2c.2,0,.3.1.3.4v.8c0,.2-.1.4-.3.4h-6.3c-.2,0-.3-.1-.3-.4v-.8c0-.2.1-.4.3-.4h2.6c-.1,0-.2-.2-.2-.4v-.8c0-.2.1-.4.3-.4h.9c.2,0,.4.1.4.4v.9c0,.2,0,.3.3.3ZM148.5,214c-.3,0-.3-.2-.3-.4v-.8c0-.2.1-.4.4-.3,1.2.1,2.6.2,3.8.3-.2,0-.3-.3-.3-.6v-3.1c0-.2.1-.4.4-.4h.9c.2,0,.4.1.4.4v3.2c0,.3.2.4.5.4,1.5,0,3.4-.1,4.3-.2.2,0,.4,0,.4.3v.8c0,.2,0,.3-.4.4-.9.2-2.8.2-5,.2s-3.9,0-4.9-.3ZM149.7,205.5c-.2,0-.4,0-.4-.3v-.9c0-.2,0-.3.4-.4,1.6-.2,2.8-.2,4.7-.2s3.3,1.2,3.3,3.4,0,2.2-.3,3.2c0,.2-.1.3-.4.2h-1c-.2-.2-.3-.3-.3-.5.2-.8.2-1.7.2-2.7,0-1.6-.5-2.1-2-2.1s-3,0-4.4.3ZM164.3,205.4c-.2,0-.4-.1-.4-.3v-.8c0-.2.1-.4.4-.4h6.2c.2,0,.4.1.4.4v.8c0,.2-.1.3-.4.3h-.7l-.3,6.5c.4,0,.8,0,1.1,0,.2,0,.3.1.3.3v.8c0,.2-.1.3-.3.3-.6,0-2,.2-3.3.2s-2.6,0-3.3-.2c-.2,0-.3-.1-.3-.3v-.8c0-.2.1-.4.3-.3.3,0,.7,0,1.1,0l-.3-6.5h-.7ZM172.3,203.3c0-.2.1-.4.4-.4h.9c.2,0,.4.1.4.4v11.6c0,.2-.1.4-.4.4h-.9c-.2,0-.4-.1-.4-.4v-11.6ZM166.8,211.9h1.2l.3-6.5h-1.7l.3,6.5ZM176.3,214c-.3,0-.3-.2-.3-.4v-.8c0-.2.1-.4.4-.3,1,.1,2.9.2,4.5.3-.2,0-.4-.3-.4-.6v-1.5c-2.5-.1-3.3-.7-3.3-2.2s1-2.1,4.1-2.1h1.7c.6,0,.9-.2.9-.7s-.3-.6-.9-.6c-1.8,0-3.9,0-5.3.2-.2,0-.3,0-.3-.3v-.8c0-.2,0-.3.3-.3,1.2-.2,2.9-.3,4.5-.3s1.1,0,1.7,0c1.1,0,1.6.5,1.6,1.3s-.4,1.3-1,1.6h.6c.2,0,.3.1.3.3v.7c0,.2-.1.3-.3.3-1.3,0-2.7,0-3.8,0-2,0-2.6.2-2.6.7s.6.7,3.3.7,2.3,0,3.3-.2c.2,0,.3,0,.3.3v.8c.2.2,0,.3-.1.4-1.1.2-2.5.3-3.5.3h0v1.6c0,.3.2.4.5.4,1.2,0,2.7,0,3.6-.2.2,0,.4,0,.4.3v.8c0,.2,0,.3-.3.4-1,.2-2.8.2-5,.2s-3.9,0-4.9-.3ZM191.1,208.1c-.9,0-1.4.6-1.4,1.9s.5,1.9,1.4,1.9,1.5-.6,1.5-1.9-.5-1.9-1.5-1.9ZM194.2,210c0,2.2-1.1,3.5-3.1,3.5s-3.1-1.3-3.1-3.5,1.1-3.4,3.1-3.4,3.1,1.2,3.1,3.4ZM197.4,215c0,.2-.1.4-.4.4h-.9c-.2,0-.4-.1-.4-.4v-11.6c0-.2.1-.4.4-.4h.9c.2,0,.4.1.4.4v4.8c0-.2.3-.3.6-.3h.8c.2,0,.4.1.4.3v.8c0,.2-.1.4-.4.4h-.9c-.3,0-.5.1-.5.4v5.1ZM192.3,204.1h2c.2,0,.4.1.4.4v.8c0,.2-.1.4-.4.4h-6.3c-.2,0-.4-.1-.4-.4v-.8c0-.2.1-.4.4-.4h2.6c-.1,0-.2-.2-.2-.4v-.8c0-.2.1-.4.3-.4h.9c.2,0,.4.1.4.4v.9c0,.2,0,.3.3.3ZM201.8,208.7c0,2.3.8,3.3,2.3,3.3s1.3-.2,2.1-.5c0,0,0,0,.1,0,.1,0,.2,0,.3.3l.2.8c0,.2,0,.3-.3.4-.9.3-1.8.5-2.6.5-2.5,0-3.8-1.7-3.8-4.9s1.3-4.9,3.9-4.9,1.3,0,1.9.1c.3,0,.4.1.4.4v.8c0,.3-.1.4-.4.4-.6,0-1-.1-1.8-.1-1.8,0-2.4.9-2.4,3.3ZM209.6,215c0,.2-.1.4-.4.4h-.9c-.2,0-.4-.1-.4-.4v-11.6c0-.2.1-.4.4-.4h.9c.2,0,.4.1.4.4v4.8c0-.2.3-.3.6-.3h.8c.2,0,.3.1.3.3v.8c0,.2-.1.4-.3.4h-.9c-.3,0-.5.1-.5.4v5.1ZM212.5,214.7c0-.6.4-1,1.1-1s1.1.4,1.1,1-.4,1-1.1,1-1.1-.4-1.1-1Z"/>
      <path class="cls-2" d="M71.5,230.8h-15v15h15v-15Z"/>
      <path d="M91.1,243.6h-5.3c-1,0-1.5-.5-1.6-1.3l-.2-3.6c0-.2.1-.4.4-.4h.9c.2,0,.3.1.4.4v.6h5.6v-.6c0-.2.2-.4.4-.4h.9c.2,0,.4.1.4.4l-.2,3.6c0,.8-.6,1.3-1.6,1.3ZM83.5,232.9c-.2,0-.3-.1-.3-.4v-.8c0-.2.1-.3.3-.3h5.7c.2,0,.3.1.3.3v.8c0,.2-.1.4-.3.4h-2.1v.4c0,1.5.9,2.5,2.1,2.5s.3.1.3.3v.8c0,.2-.1.4-.3.4-1.5,0-2.5-.9-2.9-2-.4,1.1-1.5,2-2.9,2s-.3-.1-.3-.4v-.8c0-.2.1-.3.3-.3,1.2,0,2.1-1.1,2.1-2.5v-.4h-2.1ZM91.3,231.5c0-.2.1-.4.4-.4h.9c.2,0,.4.1.4.4v5.5c0,.2-.1.4-.4.4h-.9c-.2,0-.4-.1-.4-.4v-5.5ZM85.7,240.7v.9c0,.4.3.5.7.5h4c.4,0,.6-.2.6-.5v-.9s-5.4,0-5.4,0ZM95.7,241.3c0-1.5,1.2-2.2,3.7-2.4v-.5c0-.2,0-.3.2-.4-1.4,0-3.2,0-4.3-.1-.2,0-.3-.1-.3-.4v-.8c0-.2.1-.3.4-.3.9,0,2.3.1,4.9.1,2,0,3.9,0,4.9-.1.2,0,.4,0,.4.3v.8c0,.2,0,.3-.3.4-1,0-2.7.1-3.8.1s-.4.1-.4.4v.5c2.6.1,3.9.9,3.9,2.4s-1.5,2.4-4.6,2.4-4.6-.8-4.6-2.4ZM96.3,236c-.3,0-.3-.1-.3-.4v-.8c0-.2,0-.3.3-.3,1.8,0,3.1-.7,3.2-1.6h-2.9c-.2,0-.3-.1-.3-.4v-.8c0-.2.1-.4.3-.4h7.5c.2,0,.3.1.3.4v.8c0,.2-.1.4-.3.4h-2.9c0,.9,1.3,1.6,3.1,1.6s.4,0,.4.3v.8c0,.2,0,.3-.4.4-1.7,0-3.4-.8-4-1.8-.6,1-2.2,1.8-4,1.8ZM97.3,241.3c0,.7.9,1,3,1s3-.3,3-1-.8-1-3-1-3,.3-3,1ZM113.2,237.6c-.7.3-1.9.5-3,.5-2.4,0-3.2-.6-3.2-2.1s.9-2.1,3.4-2.1,1-.2,1-.6-.3-.5-1.1-.5-1.4,0-2.5.2c-.2,0-.4,0-.4-.3v-.8c0-.2,0-.3.3-.4.9-.2,1.7-.2,2.9-.2,1.8,0,2.4.4,2.4,1.3s-.2,1-.7,1.3h.3c.2,0,.3,0,.3.3v.7c0,.2,0,.3-.3.3-.7,0-1.3,0-1.8,0-1.8,0-2.2.2-2.2.7s.4.6,2,.6,1.6-.2,2.3-.4c0,0,.1,0,.2,0,.1,0,.2,0,.3.2l.2.7c0,.2,0,.3-.2.4ZM116.7,237.7c0,.2-.1.4-.4.4h-.9c-.2,0-.4-.1-.4-.4v-1.2c0,.2-.3.3-.6.3h-.5c-.2,0-.3-.1-.3-.4v-.8c0-.2.1-.3.3-.3h.7c.3,0,.4-.1.4-.4v-1.4c0,.2-.3.3-.6.3h-.5c-.2,0-.3-.1-.3-.4v-.8c0-.2.1-.3.3-.3h.7c.3,0,.4-.1.4-.4v-.5c0-.2.1-.4.4-.4h.9c.2,0,.4.1.4.4v6.2ZM116.6,243.2c0,.2-.2.4-.4.4h-.8c-.2,0-.4-.2-.4-.4,0-.5,0-1,0-1.5,0-.9-.3-1.2-1.3-1.2-2,0-3.7,0-5.4.2-.2,0-.3,0-.3-.3v-.8c0-.2,0-.3.3-.4,1.5-.2,3.3-.2,5.6-.2s2.7.6,2.7,2.2,0,1.4,0,1.9ZM124.8,236.9c0,3.5-1,5-3.1,5s-3.1-1.6-3.1-5,1-5,3.1-5,3.1,1.5,3.1,5ZM121.7,233.4c-1.1,0-1.5,1-1.5,3.5s.5,3.5,1.5,3.5,1.5-1,1.5-3.5-.5-3.5-1.5-3.5ZM126.7,231.5c0-.2.1-.4.4-.4h.9c.2,0,.4.1.4.4v11.6c0,.2-.1.4-.4.4h-.9c-.2,0-.4-.1-.4-.4v-11.6ZM141.1,242.1c.7,0,1.3-.6,1.3-1.3s-.3-.9-.9-.9h-4c-.2,0-.3.1-.3.3v1.4c0,.3.2.4.5.4h3.5ZM138.2,237c.3-.9.5-2.2.5-3s-.4-1.1-1.1-1.1c-1.5,0-2.2.1-3.1.3-.2,0-.4-.1-.4-.4v-.8c0-.2.1-.3.4-.4,1.1-.2,2.1-.3,3.2-.3,1.9,0,2.6.8,2.6,2.7s-.3,2-.5,3c0,.2-.2.3-.4.3h-.9c-.3,0-.4-.2-.4-.4ZM142.8,242.1h1c.2,0,.3.1.3.4v.8c0,.2-.1.4-.3.4h-6.9c-.9,0-1.4-.5-1.4-1.2v-3.2c0-.4.2-.7.6-.7h6.2c1.1,0,1.7.6,1.7,1.6s-.5,1.6-1.2,2ZM143.6,237.1c0,.2-.1.4-.4.4h-.9c-.2,0-.4-.1-.4-.4v-5.6c0-.2.1-.4.4-.4h.9c.2,0,.4.1.4.4v2.1c0-.2.3-.3.6-.3h.8c.2,0,.4.1.4.3v.8c0,.2-.1.4-.4.4h-.9c-.3,0-.5.1-.5.4v1.8ZM146.8,242.2c-.3,0-.3-.2-.3-.4v-.8c0-.2.1-.4.4-.3,1,.1,2.9.2,4.5.3-.2,0-.3-.3-.3-.6v-1.6c0-.2.1-.4.4-.4h.9c.2,0,.4.1.4.4v1.7c0,.3.2.4.5.4,1.2,0,2.7,0,3.6-.2.2,0,.4,0,.4.3v.8c0,.2,0,.3-.4.4-1,.2-2.8.2-5,.2s-3.9,0-4.9-.3ZM151.8,236.4c-.6,1.4-2.2,2.3-3.8,2.3s-.5,0-.5-.3v-.9c0-.2,0-.3.4-.3,1.9,0,3.2-1.2,3.2-2.9v-2c0-.2.1-.4.4-.4h.9c.2,0,.4.1.4.4v2c0,1.7,1.3,2.9,3.2,2.9s.3,0,.3.3v.9c0,.3-.2.3-.5.3-1.7,0-3.2-1-3.8-2.3ZM164.7,243.6c-1,0-1.9-.6-2.2-1.5-.4.9-1.4,1.5-2.5,1.5s-.5,0-.5-.4v-.8c0-.2,0-.3.4-.3,1.1,0,1.8-.8,1.8-1.8v-1c0-.2.1-.4.4-.4h.9c.2,0,.4.1.4.4v1.3c0,.9.5,1.5,1.4,1.5s1.4-.6,1.4-1.5v-1.3c0-.2.1-.4.4-.4h.9c.2,0,.4.1.4.4v1c0,1,.8,1.8,1.8,1.8s.3,0,.3.3v.8c0,.3-.2.4-.5.4-1.1,0-2.1-.6-2.5-1.5-.4.9-1.2,1.5-2.2,1.5ZM169.3,231.5v6.1c0,.2-.1.4-.3.4h-.8c-.2,0-.3-.1-.3-.4v-2.4h-.8c-.3,0-.4,0-.4.4v2c0,.2-.1.4-.4.4h-.8c-.2,0-.4-.1-.4-.4v-6c0-.2.1-.4.4-.4h.8c.2,0,.4.1.4.4v2.3c0-.2.3-.3.5-.3h.7v-2.2c0-.2.1-.4.3-.4h.8c.2,0,.3.1.3.4ZM158.4,235.9c0-1.3.9-2.1,2.6-2.1s2.6.8,2.6,2.1-.9,2.1-2.6,2.1-2.6-.8-2.6-2.1ZM161.8,230.9v.5c0,.2,0,.3.3.3h1.6c.2,0,.4.1.4.3v.7c0,.2-.1.4-.4.4h-5.4c-.2,0-.4-.1-.4-.4v-.7c0-.2.1-.3.4-.3h2.1c-.1,0-.2-.2-.2-.4v-.4c0-.2.1-.3.4-.3h.8c.2,0,.3.1.3.3ZM161,236.6c.7,0,1.1-.3,1.1-.7s-.4-.7-1.1-.7-1.1.3-1.1.7.4.7,1.1.7ZM172.8,236.9c0,2.3.8,3.3,2.3,3.3s1.3-.2,2.1-.5c0,0,0,0,.1,0,.1,0,.2,0,.3.3l.2.8c0,.2,0,.3-.3.4-.9.4-1.8.5-2.6.5-2.5,0-3.8-1.7-3.8-4.9s1.3-4.9,3.9-4.9,1.3,0,1.9.1c.3,0,.4.1.4.4v.8c0,.3-.1.4-.4.4-.6,0-1-.1-1.8-.1-1.8,0-2.4.9-2.4,3.3ZM180.6,243.2c0,.2-.1.4-.4.4h-.9c-.2,0-.4-.1-.4-.4v-11.6c0-.2.1-.4.4-.4h.9c.2,0,.4.1.4.4v4.8c0-.2.3-.3.6-.3h.8c.2,0,.3.1.3.4v.8c0,.2-.1.4-.3.4h-.9c-.3,0-.5.1-.5.4v5.1ZM183.5,242.9c0-.6.4-1,1.1-1s1.1.4,1.1,1-.4,1-1.1,1-1.1-.4-1.1-1Z"/>
      <path class="cls-2" d="M71.5,259h-15v15h15v-15Z"/>
      <path d="M90.1,270.3c.7,0,1.3-.6,1.3-1.3s-.3-.9-.9-.9h-4c-.2,0-.3.1-.3.3v1.4c0,.3.2.4.5.4h3.5ZM87.3,265.2c.3-.9.5-2.2.5-3s-.4-1.1-1.1-1.1c-1.5,0-2.2.1-3.1.3-.2,0-.4-.1-.4-.4v-.8c0-.2.1-.4.3-.4,1.1-.2,2.1-.3,3.2-.3,1.9,0,2.6.8,2.6,2.7s-.3,2-.5,3c0,.2-.2.3-.4.3h-.9c-.3,0-.4-.2-.3-.4ZM91.8,270.3h1c.2,0,.3.1.3.4v.8c0,.2-.1.4-.3.4h-6.9c-.9,0-1.4-.5-1.4-1.2v-3.2c0-.4.2-.7.6-.7h6.2c1.1,0,1.7.6,1.7,1.6s-.5,1.6-1.2,2ZM92.6,265.3c0,.2-.1.4-.4.4h-.9c-.2,0-.4-.1-.4-.4v-5.6c0-.2.1-.4.4-.4h.9c.2,0,.4.1.4.4v2.1c0-.2.3-.3.6-.3h.8c.2,0,.4.1.4.4v.8c0,.2-.1.4-.4.4h-.9c-.3,0-.5.1-.5.4v1.8ZM96.2,269.3c0-1.8,1.5-2.7,4.6-2.7s4.6.9,4.6,2.7-1.5,2.7-4.6,2.7-4.6-.9-4.6-2.7ZM95.6,261.1c-.2,0-.3-.1-.3-.4v-.8c0-.2.1-.4.3-.4h5.7c.2,0,.3.1.3.4v.8c0,.2-.1.4-.3.4h-2.1v.4c0,1.5.9,2.6,2.1,2.6s.3.1.3.4v.8c0,.2-.1.4-.3.4-1.5,0-2.5-.9-2.9-2-.4,1.1-1.5,2-2.9,2s-.3-.1-.3-.4v-.8c0-.2.1-.4.3-.4,1.2,0,2.1-1.1,2.1-2.6v-.4h-2.1ZM103.5,259.7c0-.2.1-.4.4-.4h.9c.2,0,.4.1.4.4v5.9c0,.2-.1.4-.4.4h-.9c-.2,0-.4-.1-.4-.4v-2.5c0,.2-.3.3-.6.3h-1c-.2,0-.3-.1-.3-.4v-.8c0-.2.1-.4.3-.4h1.1c.3,0,.5-.1.5-.4v-1.7ZM97.8,269.3c0,.7.8,1.2,3,1.2s3-.5,3-1.2-.8-1.2-3-1.2-3,.5-3,1.2ZM116.6,269.4c0,.2-.2.3-.4.3h-.9c-.3,0-.4-.2-.3-.4.4-2,.5-4,.5-6.1s-.4-1.6-1.4-1.6-1.8.1-2.7.3c-.2,0-.4-.1-.4-.4v-.8c0-.2.1-.4.3-.4,1.1-.2,2.1-.3,3.1-.3,2,0,2.7.9,2.7,3s-.2,4.2-.5,6.3ZM119,259.7c0-.2.1-.4.4-.4h.9c.2,0,.4.1.4.4v11.6c0,.2-.1.4-.4.4h-.9c-.2,0-.4-.1-.4-.4v-11.6ZM130.4,264.4h-1.7v.7c0,.2.1.3.4.4,1.1,0,2.7,0,3.8-.1.2,0,.4,0,.4.3v.8c0,.2,0,.4-.4.4-1,.1-3,.1-5,.1-2.6,0-4.1,0-4.9-.1-.2,0-.4-.1-.4-.4v-.8c0-.2.1-.4.4-.3,1.1,0,2.9.1,4.3.1-.1,0-.2-.2-.2-.4v-.7h-1.7c-1,0-1.5-.5-1.6-1.3l-.2-3.1c0-.2.1-.4.4-.4h.9c.2,0,.4.1.4.4v.5h5.3v-.5c0-.2.2-.4.4-.4h.9c.2,0,.4.1.4.4l-.2,3.1c0,.8-.6,1.3-1.6,1.3ZM132.3,271.4c0,.2-.2.4-.4.4h-.8c-.2,0-.4-.2-.4-.4,0-.4,0-.8,0-1.2,0-.9-.3-1.1-1.2-1.1-1.8,0-3.7,0-5.7.3-.2,0-.4,0-.4-.3v-.8c0-.2,0-.3.4-.4,1.9-.2,3.4-.3,5.8-.3s2.7.6,2.7,2.2,0,1.2,0,1.6ZM125.3,261.9v.5c0,.4.3.5.7.5h3.8c.4,0,.6-.2.6-.5v-.5s-5.1,0-5.1,0ZM140.9,265c0,3.5-1,5-3.1,5s-3.1-1.6-3.1-5,1-5,3.1-5,3.1,1.5,3.1,5ZM137.8,261.6c-1.1,0-1.5,1-1.5,3.5s.5,3.5,1.5,3.5,1.5-1,1.5-3.5-.5-3.5-1.5-3.5ZM142.8,259.7c0-.2.1-.4.4-.4h.9c.2,0,.4.1.4.4v11.6c0,.2-.1.4-.4.4h-.9c-.2,0-.4-.1-.4-.4v-11.6ZM157.2,270.3c.7,0,1.3-.6,1.3-1.3s-.3-.9-.9-.9h-4.3c-.2,0-.3.1-.3.3v1.4c0,.3.2.4.5.4h3.8ZM158.9,270.3h1c.2,0,.3.1.3.4v.8c0,.2-.1.4-.3.4h-7.2c-.9,0-1.4-.5-1.4-1.2v-3.2c0-.4.2-.7.6-.7h6.5c1.1,0,1.7.6,1.7,1.6s-.5,1.6-1.2,2ZM154.2,260v1.5c0,1.5.9,2.6,2.1,2.6s.4.1.4.4v.8c0,.2-.1.4-.4.4-1.5,0-2.5-.9-2.9-2-.4,1.1-1.5,2-2.9,2s-.4-.1-.4-.4v-.8c0-.2.1-.4.4-.4,1.2,0,2.1-1.1,2.1-2.6v-1.5c0-.2.1-.4.4-.4h.9c.2,0,.4.1.4.4ZM158.4,259.7c0-.2.1-.4.4-.4h.9c.2,0,.4.1.4.4v5.6c0,.2-.1.4-.4.4h-.9c-.2,0-.4-.1-.4-.4v-5.6ZM165,264.4c-.9,0-1.4.6-1.4,1.9s.5,1.9,1.4,1.9,1.5-.6,1.5-1.9-.5-1.9-1.5-1.9ZM168.1,266.3c0,2.2-1.1,3.5-3.1,3.5s-3.1-1.3-3.1-3.5,1.1-3.4,3.1-3.4,3.1,1.2,3.1,3.4ZM171.3,271.3c0,.2-.1.4-.4.4h-.9c-.2,0-.4-.1-.4-.4v-11.6c0-.2.1-.4.4-.4h.9c.2,0,.4.1.4.4v4.8c0-.2.3-.3.6-.3h.8c.2,0,.3.1.3.4v.8c0,.2-.1.4-.3.4h-.9c-.3,0-.5.1-.5.4v5.1ZM166.1,260.4h2c.2,0,.4.1.4.4v.8c0,.2-.1.4-.4.4h-6.3c-.2,0-.3-.1-.3-.4v-.8c0-.2.1-.4.3-.4h2.6c-.1,0-.2-.2-.2-.4v-.8c0-.2.1-.4.4-.4h.9c.2,0,.3.1.3.4v.9c0,.2,0,.3.3.3ZM175.7,265.1c0,2.3.8,3.3,2.3,3.3s1.3-.2,2.1-.5c0,0,0,0,.1,0,.1,0,.2,0,.3.3l.2.8c0,.2,0,.3-.3.4-.9.4-1.8.5-2.6.5-2.5,0-3.8-1.7-3.8-4.9s1.3-4.9,3.9-4.9,1.3,0,1.9.1c.3,0,.4.1.4.4v.8c0,.3-.1.4-.4.4-.6,0-1-.1-1.8-.1-1.8,0-2.4.9-2.4,3.3ZM183.5,271.3c0,.2-.1.4-.4.4h-.9c-.2,0-.4-.1-.4-.4v-11.6c0-.2.1-.4.4-.4h.9c.2,0,.4.1.4.4v4.8c0-.2.3-.3.6-.3h.8c.2,0,.3.1.3.4v.8c0,.2-.1.4-.3.4h-.9c-.3,0-.5.1-.5.4v5.1ZM186.4,271c0-.6.4-1,1.1-1s1.1.4,1.1,1-.4,1-1.1,1-1.1-.4-1.1-1Z"/>
      <path class="cls-2" d="M71.5,287.1h-15v15h15v-15Z"/>
      <path d="M89.4,293.2c0,3.5-1,5-3.1,5s-3.1-1.6-3.1-5,1-5,3.1-5,3.1,1.5,3.1,5ZM86.2,289.7c-1.1,0-1.5,1-1.5,3.5s.5,3.5,1.5,3.5,1.5-1,1.5-3.5-.5-3.5-1.5-3.5ZM91.3,287.8c0-.2.1-.4.4-.4h.9c.2,0,.4.1.4.4v11.6c0,.2-.1.4-.4.4h-.9c-.2,0-.4-.1-.4-.4v-11.6ZM97.3,296.4c-.8,0-1.5,0-2.1-.2-.3,0-.3-.2-.3-.4v-.8c0-.2.1-.4.4-.3,1.3.2,2.9.2,4.9.2s3.8,0,4.9-.2c.2,0,.4,0,.4.3v.8c0,.2,0,.4-.3.4-.3,0-.9,0-1.2.1-.3,0-.5.1-.5.4v2.2c0,.2-.1.4-.4.4h-.9c-.2,0-.4-.1-.4-.4v-2c0-.3.1-.5.3-.6-1.1,0-2.3,0-3.1,0-.3,0-.5.1-.5.4v2.1c0,.2-.1.4-.4.4h-.9c-.2,0-.4-.1-.4-.4v-2c0-.3.2-.5.4-.6ZM100.3,292.3c1.9,0,2.8-.5,2.8-1.6s-.9-1.6-2.8-1.6-2.8.5-2.8,1.6.9,1.6,2.8,1.6ZM95.9,290.7c0-2,1.5-3.1,4.4-3.1s4.4,1,4.4,3.1-1.5,3.1-4.4,3.1-4.4-1-4.4-3.1ZM115.4,290.7c0-1-.6-1.6-1.5-1.6s-1.5.6-1.5,1.6.6,1.6,1.5,1.6,1.5-.6,1.5-1.6ZM113.2,297.1v1.1c0,.2.2.2.3.2h1c.2,0,.2,0,.3-.2v-1.1c0,0-1.5,0-1.5,0ZM113.1,294.9v.8h1.8v-.8c0-.2.2-.3.4-.3h.8c.2,0,.4.1.4.4l-.2,4.1c0,.6-.4.9-1.1.9h-2.3c-.6,0-1-.3-1.1-.9l-.2-4.1c0-.2.1-.4.4-.4h.8c.2,0,.3.1.4.3ZM121.8,299.6c0,.3-.2.4-.5.4-1,0-1.7-.6-2-1.5-.3.9-1.1,1.5-2.1,1.5s-.5,0-.5-.4v-.8c0-.2,0-.3.4-.3.8,0,1.4-.7,1.4-1.5v-2c0-.2.1-.4.4-.4h.9c.2,0,.4.1.4.4v2c0,.8.6,1.5,1.4,1.5s.4,0,.4.3v.8ZM117,290.7c0,1.8-1.2,3.1-3.1,3.1s-3.1-1.2-3.1-3.1,1.2-3.1,3.1-3.1,3.1,1.2,3.1,3.1ZM119,287.8c0-.2.1-.4.4-.4h.9c.2,0,.4.1.4.4v5.5c0,.2-.1.4-.4.4h-.9c-.2,0-.4-.1-.4-.4v-2.4c0,.2-.3.3-.6.3h-.6c-.2,0-.4-.1-.4-.4v-.8c0-.2.1-.4.4-.4h.7c.3,0,.5-.1.5-.4v-1.5ZM128.7,293.2c0,3.5-1,5-3.1,5s-3.1-1.6-3.1-5,1-5,3.1-5,3.1,1.5,3.1,5ZM125.6,289.7c-1.1,0-1.5,1-1.5,3.5s.5,3.5,1.5,3.5,1.5-1,1.5-3.5-.5-3.5-1.5-3.5ZM130.6,287.8c0-.2.1-.4.4-.4h.9c.2,0,.4.1.4.4v11.6c0,.2-.1.4-.4.4h-.9c-.2,0-.4-.1-.4-.4v-11.6ZM147.9,299.8c-1,.1-2.7.2-3.8.2-4.1,0-5-.3-5-1.8s.9-1.7,4.2-1.7,1.6,0,2.3,0c.5,0,.7-.1.7-.4s-.2-.4-.7-.4c-1.4,0-4.4,0-6,.2-.2,0-.3,0-.3-.3v-.6c0-.2,0-.3.3-.3,2.1-.1,5.1-.2,6.9-.2.9,0,1.3.3,1.3,1s-.4,1-.9,1.2h.5c.2,0,.3,0,.3.3v.6c0,.2,0,.3-.3.3-.9,0-2.3,0-4.2,0s-2.6,0-2.6.5.6.5,3.4.5,2.6,0,3.7-.2c.2,0,.3,0,.3.3v.6c0,.2,0,.3-.2.4ZM148.4,292.4c.2,0,.4,0,.4.3v.7c0,.2,0,.3-.3.3-1,.1-3,.1-5,.1-2.6,0-4.1,0-4.9-.1-.2,0-.3-.1-.3-.3v-.7c0-.2.1-.3.4-.3,1.3,0,3.3.1,4.9.1s3.9,0,5-.1ZM144,287.8c.2,0,.4.1.4.4v.2c0,1.2,1.3,2.2,3.2,2.2s.3,0,.3.3v.7c0,.2,0,.3-.3.3-1.7,0-3.4-.9-4-1.9-.6,1-2.3,2-4,1.9-.3,0-.3,0-.3-.3v-.7c0-.2,0-.3.3-.3,1.9,0,3.2-1,3.2-2.2v-.2c0-.2.1-.4.4-.4h.9ZM159.1,298.4h.9c.2,0,.3.1.3.4v.8c0,.2-.1.4-.3.4h-7.2c-.9,0-1.4-.4-1.4-1.2v-2.8c0-.4.2-.6.6-.6h6.6c1,0,1.6.5,1.6,1.4s-.4,1.4-1,1.8ZM151.8,289.1c-.2,0-.4-.1-.4-.4v-.7c0-.2.1-.3.4-.3h7.8c.2,0,.4.1.4.3v.7c0,.2-.1.4-.4.4h-.8l-.3,1.7c.5,0,1,0,1.3,0,.2,0,.3,0,.3.3v.8c0,.2,0,.3-.3.3-.8,0-2.2.2-4.1.2s-3.3,0-4.1-.2c-.2,0-.3-.1-.3-.3v-.8c0-.2.1-.3.3-.3.3,0,.7,0,1.3,0l-.3-1.7h-.8ZM150.7,293c1.3,0,3.2.1,4.9.1s3.9,0,4.9-.1c.2,0,.4,0,.4.3v.8c0,.2,0,.4-.3.4-1,.1-3,.1-5,.1-2.6,0-4.1,0-4.9-.1-.2,0-.3-.1-.3-.4v-.8c0-.2.1-.3.4-.3ZM157.4,298.5c.6,0,1.1-.5,1.1-1.1s-.3-.7-.8-.7h-4.5c-.2,0-.3,0-.3.3v1c0,.3.2.4.5.4h4ZM155.7,290.9c.4,0,.8,0,1.2,0l.3-1.8h-2.9l.3,1.8c.4,0,.8,0,1.2,0ZM165.2,289.8c0,.7.7.9,2.8.9s2.8-.2,2.8-.9-.7-.9-2.8-.9-2.8.2-2.8.9ZM172.3,299.8c-1,.1-2.7.2-3.8.2-4.1,0-5-.3-5-1.8s.9-1.7,4.2-1.7,1.6,0,2.3,0c.5,0,.7-.1.7-.4s-.2-.4-.7-.4c-1.4,0-4.4,0-6,.2-.2,0-.3,0-.3-.3v-.6c0-.2,0-.3.3-.3,2.1-.1,5.1-.2,6.9-.2.9,0,1.3.3,1.3,1s-.3,1-.9,1.2h.5c.2,0,.3,0,.3.3v.6c0,.2,0,.3-.3.3-.9,0-2.3,0-4.2,0s-2.6,0-2.6.5.6.5,3.4.5,2.6,0,3.7-.2c.2,0,.3,0,.3.3v.6c0,.2,0,.3-.2.4ZM172.8,292.4c.2,0,.3,0,.3.3v.7c0,.2,0,.3-.3.3-1,.1-3,.1-5,.1-2.6,0-4.1,0-4.9-.1-.2,0-.3-.1-.3-.3v-.7c0-.2.1-.3.3-.3,1.3,0,3.3.1,4.9.1s3.9,0,5-.1ZM163.6,289.8c0-1.6,1.3-2.2,4.4-2.2s4.4.6,4.4,2.2-1.3,2.2-4.4,2.2-4.4-.6-4.4-2.2ZM179.9,288.5c0-.2.2-.4.4-.4h.9c.2,0,.3.1.3.4,0,1,0,2.2,0,3.5s.6,1.5,1.8,1.5c1.8,0,3.5,0,4.9-.2.2,0,.4,0,.4.3v.8c0,.2,0,.3-.3.4-1.4.2-3.2.3-4.9.3s-3.4-1.1-3.4-3.1,0-2.5,0-3.4ZM179,297c1.3.2,2.9.2,4.9.2s3.8,0,4.9-.2c.2,0,.4,0,.4.3v.8c0,.2,0,.3-.3.4-1,.2-2.8.2-5,.2s-3.9,0-4.9-.3c-.3,0-.3-.2-.3-.4v-.8c0-.2.1-.4.4-.3ZM193.9,294c0,.2-.2.3-.4.3h-.9c-.2,0-.4-.2-.3-.4.2-1.2.4-2.9.4-3.9s-.2-.7-.6-.7-.7,0-1.2.3c-.2,0-.4-.1-.4-.4v-.8c0-.2,0-.3.3-.4.5-.2,1-.3,1.5-.3.7,0,1.2.2,1.5.6,0-.2.1-.3.3-.4.5-.1,1-.2,1.5-.2,1.3,0,2,.7,2,2.1s0,2.9-.4,4.1c0,.3-.2.3-.4.3h-.9c-.2,0-.4-.2-.3-.4.2-1.1.4-2.8.4-3.9s-.2-.7-.6-.7-.7,0-1.2.2c0,.1,0,.2,0,.3,0,1.3-.2,2.9-.4,4.1ZM191.9,295.9c0-.2.2-.4.4-.4h.8c.2,0,.4.2.4.4,0,.3,0,.8,0,1.4,0,.8.5,1.3,1.4,1.3,2.5,0,4,0,5.7-.2.2,0,.4,0,.4.3v.8c0,.2,0,.3-.3.4-1.4.1-3.4.3-5.7.3s-3.1-1-3.1-2.6,0-1.2,0-1.6ZM199,287.8c0-.2.1-.4.4-.4h.9c.2,0,.4.1.4.4v7.9c0,.2-.1.4-.4.4h-.9c-.2,0-.4-.1-.4-.4v-7.9ZM204.1,293.2c0,2.3.8,3.3,2.3,3.3s1.3-.2,2.1-.5c0,0,0,0,.1,0,.1,0,.2,0,.3.3l.2.8c0,.2,0,.3-.3.4-.9.4-1.8.5-2.6.5-2.5,0-3.8-1.7-3.8-4.9s1.3-4.9,3.9-4.9,1.3,0,1.9.1c.3,0,.4.1.4.4v.8c0,.3-.1.4-.4.4-.6,0-1-.1-1.8-.1-1.8,0-2.4.9-2.4,3.3ZM211.9,299.5c0,.2-.1.4-.4.4h-.9c-.2,0-.4-.1-.4-.4v-11.6c0-.2.1-.4.4-.4h.9c.2,0,.4.1.4.4v4.8c0-.2.3-.3.6-.3h.8c.2,0,.4.1.4.4v.8c0,.2-.1.4-.4.4h-.9c-.3,0-.5.1-.5.4v5.1ZM214.8,299.2c0-.6.4-1,1-1s1.1.4,1.1,1-.4,1-1.1,1-1-.4-1-1Z"/>
      <path class="cls-2" d="M71.5,315.3h-15v15h15v-15Z"/>
      <path d="M89.5,322.2c-.8.3-1.8.4-2.5.4-2.6,0-3.9-1.1-3.9-3.3s1.3-3.3,4-3.3,1.2,0,1.9.1c.2,0,.3.2.3.4v.8c0,.3-.1.4-.4.3-.5,0-1.1-.1-1.7-.1-1.6,0-2.5.6-2.5,1.9s.7,1.9,2.3,1.9,1.4-.1,2.1-.4c.2,0,.3,0,.4.2l.2.8c0,.2,0,.4-.3.4ZM92.6,323.8c0,.2-.1.4-.4.4h-.9c-.2,0-.4-.1-.4-.4v-7.9c0-.2.1-.4.4-.4h.9c.2,0,.4.1.4.4v3.3c0-.2.3-.3.6-.3h.8c.2,0,.4.1.4.3v.8c0,.2-.1.4-.4.4h-.9c-.3,0-.5.1-.5.4v3ZM84.4,324.1c0-.2.2-.4.4-.4h.8c.2,0,.4.2.4.4,0,.3,0,.8,0,1.4,0,.8.5,1.3,1.4,1.3,2.3,0,3.6,0,5.2-.2.2,0,.3,0,.4.3v.8c0,.2,0,.3-.3.4-1.4.1-3.1.3-5.2.3s-3.1-1-3.1-2.6,0-1.2,0-1.6ZM104.8,319.1c2,0,2.8-.3,2.8-1s-.7-1-2.8-1-2.8.3-2.8,1,.7,1,2.8,1ZM106.5,326.6c.6,0,1.1-.5,1.1-1.1s-.3-.7-.8-.7h-4.5c-.2,0-.3,0-.3.3v1c0,.3.2.4.5.4h4ZM99.8,321.2c1.3,0,3.2.1,4.9.1s3.9,0,4.9-.1c.2,0,.4,0,.4.3v.8c0,.2,0,.4-.3.4-1,.1-3,.1-5,.1-2.6,0-4.1,0-4.9-.1-.2,0-.3-.1-.3-.4v-.8c0-.2.1-.4.4-.3ZM100.4,318.2c0-1.6,1.3-2.4,4.4-2.4s4.4.8,4.4,2.4-1.3,2.4-4.4,2.4-4.4-.7-4.4-2.4ZM108.1,326.6h.9c.2,0,.4.1.4.4v.8c0,.2-.1.4-.4.4h-7.2c-.9,0-1.4-.4-1.4-1.2v-2.8c0-.4.2-.6.6-.6h6.6c1,0,1.6.5,1.6,1.4s-.4,1.4-1,1.8ZM121.1,327.7c0,.2-.2.4-.4.4h-.8c-.2,0-.4-.2-.4-.4,0-.5,0-1.2,0-1.8,0-.9-.3-1.2-1.3-1.2-2,0-3.7,0-5.4.2-.2,0-.4,0-.4-.3v-.8c0-.2,0-.3.4-.4,1.5-.2,3.3-.2,5.6-.2s2.7.6,2.7,2.2,0,1.7,0,2.2ZM115.4,316.3v1.7c0,1.6.9,2.7,2.1,2.7s.4.1.4.3v.8c0,.2-.1.4-.4.4-1.5,0-2.5-1-2.9-2.1-.4,1.1-1.5,2.1-2.9,2.1s-.3-.1-.3-.4v-.8c0-.2.1-.3.3-.3,1.2,0,2.1-1.2,2.1-2.7v-1.7c0-.2.1-.4.4-.4h.9c.2,0,.4.1.4.4ZM119.6,316c0-.2.1-.4.4-.4h.9c.2,0,.4.1.4.4v5.9c0,.2-.1.4-.4.4h-.9c-.2,0-.4-.1-.4-.4v-5.9ZM125.8,317.9c0,.7.7.9,2.8.9s2.8-.2,2.8-.9-.7-.9-2.8-.9-2.8.2-2.8.9ZM132.9,328c-1,.1-2.7.2-3.8.2-4.1,0-5-.3-5-1.8s.9-1.7,4.2-1.7,1.6,0,2.3,0c.5,0,.7-.1.7-.4s-.2-.4-.7-.4c-1.4,0-4.4,0-6,.2-.2,0-.3,0-.3-.3v-.6c0-.2,0-.3.3-.3,2.1-.1,5.1-.2,6.9-.2.9,0,1.3.3,1.3,1s-.3,1-.9,1.2h.5c.2,0,.3,0,.3.3v.6c0,.2,0,.3-.3.3-.9,0-2.3,0-4.2,0s-2.6,0-2.6.5.6.5,3.4.5,2.6,0,3.7-.2c.2,0,.3,0,.3.3v.6c0,.2,0,.3-.2.4ZM133.4,320.6c.2,0,.3,0,.3.3v.7c0,.2,0,.3-.3.4-1,.1-3,.1-5,.1-2.6,0-4.1,0-4.9-.1-.2,0-.3-.1-.3-.3v-.7c0-.2.1-.3.3-.3,1.3,0,3.3.1,4.9.1s3.9,0,5-.1ZM124.2,317.9c0-1.6,1.3-2.2,4.4-2.2s4.4.6,4.4,2.2-1.3,2.2-4.4,2.2-4.4-.6-4.4-2.2ZM140.6,324.5c-.2,0-.3-.1-.3-.3v-.8c0-.2.1-.4.3-.4h7.7c.2,0,.4.1.4.4v.8c0,.2-.1.3-.4.3h-3c0,1.3,1.3,2.2,3.2,2.2s.3,0,.3.3v.8c0,.2,0,.3-.3.4-1.6,0-3.4-.7-4-1.8-.7,1.1-2.5,1.9-4,1.8-.3,0-.4-.1-.4-.4v-.8c0-.2,0-.3.4-.3,1.9,0,3.2-.9,3.2-2h0c0-.1-3-.1-3-.1ZM143.5,316.3h1.7c.2,0,.4.1.4.4v.8c0,.2-.1.4-.4.4h-2.1v.2c0,1.5.9,2.6,2.1,2.6s.4.1.4.4v.8c0,.2-.1.4-.4.4-1.5,0-2.5-.9-2.9-2-.4,1.1-1.5,2-2.9,2s-.3-.1-.3-.4v-.8c0-.2.1-.4.3-.4,1.2,0,2.1-1.1,2.1-2.6v-.2h-2.1c-.2,0-.4-.1-.4-.4v-.8c0-.2.1-.4.4-.4h2.3c-.1,0-.2-.2-.2-.4v-.6c0-.2.1-.4.4-.4h.9c.2,0,.3.1.3.4v.7c0,.2,0,.3.3.3ZM148.6,321.6c0,.2-.1.4-.4.4h-.9c-.2,0-.4-.1-.4-.4v-5.6c0-.2.1-.4.4-.4h.9c.2,0,.4.1.4.4v2.1c0-.2.3-.3.6-.3h.8c.2,0,.4.1.4.4v.8c0,.2-.1.3-.4.3h-.9c-.3,0-.5.1-.5.4v1.8ZM152.7,316.3c0-.2.2-.4.4-.4h.9c.2,0,.3.2.3.4,0,.6,0,1.7,0,2.2,0,.8.4,1.1,1.3,1.1,2.2,0,3.7,0,5.3-.2.2,0,.4,0,.4.3v.8c0,.2,0,.3-.3.4-1.4.1-3.3.3-5.5.3s-2.8-.9-2.8-2.5,0-1.6,0-2.3ZM152.5,324.6c0-.2.2-.4.4-.4h.9c.2,0,.4.2.3.4,0,.3,0,.6,0,1,0,.8.4,1.1,1.3,1.1,2.5,0,4.1,0,5.7-.2.2,0,.4,0,.4.3v.8c0,.2,0,.3-.3.4-1.4.1-3.5.3-5.8.3s-3-.9-3-2.5,0-.8,0-1.1ZM151.9,321.9c1.3,0,3.2.1,4.9.1s3.9,0,4.9-.1c.2,0,.4,0,.4.3v.8c0,.2,0,.3-.3.4-1,.1-3,.1-5,.1-2.6,0-4.1,0-4.9-.1-.2,0-.3-.1-.3-.4v-.8c0-.2.1-.4.4-.3ZM165.2,321.4c0,2.3.8,3.3,2.3,3.3s1.3-.2,2.1-.5c0,0,0,0,.1,0,.1,0,.2,0,.3.3l.2.8c0,.2,0,.3-.3.4-.9.4-1.8.5-2.6.5-2.5,0-3.8-1.7-3.8-4.9s1.3-4.9,3.9-4.9,1.3,0,1.9.1c.3,0,.4.1.4.4v.8c0,.3-.1.4-.4.4-.6,0-1-.1-1.8-.1-1.8,0-2.4.9-2.4,3.3ZM173,327.6c0,.2-.1.4-.4.4h-.9c-.2,0-.4-.1-.4-.4v-11.6c0-.2.1-.4.4-.4h.9c.2,0,.4.1.4.4v4.8c0-.2.3-.3.6-.3h.8c.2,0,.3.1.3.4v.8c0,.2-.1.4-.3.4h-.9c-.3,0-.5.1-.5.4v5.1ZM175.9,327.3c0-.6.4-1,1.1-1s1.1.4,1.1,1-.4,1-1.1,1-1.1-.4-1.1-1Z"/>
    </g>
  </g>
</svg>