<svg width="470" height="404" viewBox="0 0 470 404" fill="none" xmlns="http://www.w3.org/2000/svg">
<rect x="0.75" y="0.960938" width="468.5" height="401.711" rx="23.25" fill="#FFDDD9"/>
<rect x="0.75" y="0.960938" width="468.5" height="401.711" rx="23.25" stroke="black" stroke-width="1.5"/>
<path d="M447.194 329.91H26L57.9801 295.666H405.319L447.194 329.91Z" fill="#FFB0A0" stroke="black" stroke-width="1.5" stroke-miterlimit="10"/>
<path d="M290.448 187.999L286.555 173.475L273.935 182.048L290.448 187.999Z" fill="#FB665D"/>
<path d="M255.416 214.681C265.721 211.235 272.666 205.336 277.142 199.986C284.892 190.744 287.036 181.278 287.139 180.884L280.64 179.443C280.623 179.529 278.668 187.914 271.86 195.922C266.939 201.718 260.851 205.833 253.65 208.285L255.416 214.681Z" fill="#FB665D"/>
<path d="M335.744 119.331C335.744 119.331 333.995 117.359 328.422 118.525C322.849 119.691 319.831 124.492 319.008 129.448C318.202 134.404 320.637 139.959 322.146 142.223C323.672 144.469 324.855 147.864 322.18 151.843C319.522 155.838 322.009 159.645 324.752 161.445C327.496 163.246 329.674 168.356 323.295 170.636C323.295 170.636 328.456 173.74 333.583 169.059C338.728 164.377 337.784 160.896 337.784 160.896C337.784 160.896 344.009 157.621 344.06 152.769C344.095 147.933 338.179 147.864 338.093 142.12C338.007 136.376 341.145 133.838 337.973 125.47C334.801 117.119 335.744 119.331 335.744 119.331Z" fill="#523420"/>
<path d="M335.744 119.331C335.744 119.331 333.995 117.359 328.422 118.525C322.849 119.691 319.831 124.492 319.008 129.448C318.202 134.404 320.637 139.959 322.146 142.223C323.672 144.469 324.855 147.864 322.18 151.843C319.522 155.838 322.009 159.645 324.752 161.445C327.496 163.246 329.674 168.356 323.295 170.636C323.295 170.636 328.456 173.74 333.583 169.059C338.728 164.377 337.784 160.896 337.784 160.896C337.784 160.896 344.009 157.621 344.06 152.769C344.095 147.933 338.179 147.864 338.093 142.12C338.007 136.376 341.145 133.838 337.973 125.47C334.801 117.119 335.744 119.331 335.744 119.331Z" stroke="black" stroke-width="1.5" stroke-miterlimit="10" stroke-linecap="round" stroke-linejoin="round"/>
<path d="M353.783 132.26L352.84 139.787C352.84 139.787 344.197 151.756 350.851 155.477C358.738 159.884 365.014 153.505 372.542 157.484C380.087 161.479 373.091 154.294 374.84 151.43C375.509 150.333 376.538 144.023 376.538 144.023L375.251 136.941C383.757 137.25 385.008 132.14 385.506 129.036C385.986 125.949 385.951 124.303 385.951 124.303C389.552 121.8 387.22 120.942 387.22 120.942C385.008 119.519 384.357 119.57 384.751 115.095C385.283 109.093 382.145 105.492 382.145 105.492C382.145 105.492 378.132 99.5079 372.559 99.6794C366.952 99.8509 360.762 103.572 360.762 103.572L353.526 111.374L349.05 117.821" fill="#FFD6DC"/>
<path d="M339.208 116.381L335.212 117.77C335.212 117.77 335.71 122.125 338.607 127.321L343.272 126.155L341.968 119.21L339.208 116.381Z" fill="#FFE12D"/>
<path d="M339.208 116.381L335.212 117.77C335.212 117.77 335.71 122.125 338.607 127.321L343.272 126.155L341.968 119.21L339.208 116.381Z" stroke="black" stroke-width="1.5" stroke-miterlimit="10" stroke-linecap="round" stroke-linejoin="round"/>
<path d="M360.007 126.053L351.331 134.078C351.331 134.078 339.071 128.591 339.105 114.273C339.139 100.366 347.113 93.164 358.739 90.609C370.365 88.0541 375.646 94.3643 375.646 94.3643C375.646 94.3643 382.865 93.6441 387.855 99.5257C392.862 105.407 387.238 110.569 384.854 112.592C384.854 112.592 384.46 107.894 381.51 105.493C381.51 105.493 380.001 109.351 374.84 112.061C369.799 114.684 367.947 114.324 365.975 119.228" fill="#523420"/>
<path d="M377.91 128.66C377.91 128.66 378.544 129.191 380.345 129.003C381.699 128.865 382.711 127.785 382.711 127.785" stroke="black" stroke-width="1.5" stroke-miterlimit="10" stroke-linecap="round" stroke-linejoin="round"/>
<path d="M381.15 113.843C381.15 113.843 379.144 113.174 377.995 114.94" stroke="black" stroke-width="1.5" stroke-miterlimit="10" stroke-linecap="round" stroke-linejoin="round"/>
<path d="M380.173 120.478C380.722 120.547 381.288 119.861 381.408 118.952C381.528 118.043 381.168 117.237 380.619 117.169C380.07 117.1 379.504 117.786 379.384 118.695C379.264 119.604 379.624 120.41 380.173 120.478Z" fill="#232020"/>
<path d="M384.854 112.625C387.221 110.585 392.845 105.423 387.855 99.5589C382.848 93.6773 375.646 94.3975 375.646 94.3975C375.646 94.3975 370.382 88.0873 358.739 90.6422C347.113 93.1972 339.122 100.382 339.105 114.306C339.088 128.641 351.331 134.111 351.331 134.111L360.007 126.086" stroke="black" stroke-width="1.5" stroke-miterlimit="10" stroke-linecap="round" stroke-linejoin="round"/>
<path d="M367.312 118.85C367.312 118.85 363.317 113.706 359.493 116.518C355.961 119.142 355.138 124.423 361.208 126.567" fill="#FFD6DC"/>
<path d="M365.992 118.011C365.992 118.011 363.454 114.581 359.476 116.519C355.498 118.474 355.121 124.424 361.191 126.567" stroke="black" stroke-width="1.5" stroke-miterlimit="10" stroke-linecap="round" stroke-linejoin="round"/>
<path d="M360.025 119.656C360.025 119.656 361.242 120.016 361.842 122.537" stroke="black" stroke-width="1.5" stroke-miterlimit="10" stroke-linecap="round" stroke-linejoin="round"/>
<path d="M379.693 97.5527C379.693 97.5527 384.443 103.863 379.573 108.801C374.703 113.706 364.466 114.94 366.798 119.999" stroke="black" stroke-width="1.5" stroke-miterlimit="10" stroke-linecap="round" stroke-linejoin="round"/>
<path d="M388.009 294.854C384.288 294.426 376.521 292.54 373.846 291.168C371.171 289.796 362.014 288.527 358.447 286.847C357.315 286.315 356.578 285.681 355.995 285.046C356.029 283.28 356.201 280.09 357.058 276.215C358.361 270.248 361.499 255.227 363.214 250.185C364.929 245.144 366.404 239.057 367.004 233.844C367.604 228.614 368.221 224.258 369.13 218.788C369.13 218.788 360.916 213.781 350.165 217.725C350.165 217.725 349.496 223.367 348.879 225.287C348.261 227.19 348.81 231.615 348.073 234.221C347.335 236.827 344.403 247.716 343.906 254.249C343.477 259.805 342.071 278.359 343.872 287.824V287.841C343.872 287.841 344.266 293.603 346.169 295.849C348.09 298.112 357.247 297.992 360.676 298.044C364.106 298.078 369.919 298.147 372.302 298.164C374.686 298.181 380.344 299.141 381.699 298.267C381.699 298.267 391.679 299.33 392.742 297.444C393.822 295.575 391.73 295.3 388.009 294.854Z" fill="#FFD6DC" stroke="black" stroke-width="1.5" stroke-miterlimit="10"/>
<path d="M352.497 133.033C352.497 133.033 354.915 142.001 348.004 151.878C342.106 160.315 337.321 171.101 337.544 180.857C337.853 194.13 338.693 223.092 324.084 234.546C319.694 237.993 316.916 239.691 312.389 239.553C312.389 239.553 316.727 271.551 343.134 273.643C343.134 273.643 352.874 268.138 360.711 257.421C367.724 247.836 377.55 230.482 380.55 224.464C383.551 218.445 382.625 211.483 389.467 205.893C396.309 200.303 393.12 192.792 387.427 186.756C381.716 180.72 375.886 164.602 375.355 157.486C374.772 149.752 375.355 141.847 375.903 136.96" fill="#FFD6DC"/>
<path d="M352.497 133.033C352.497 133.033 354.915 142.001 348.004 151.878C342.106 160.315 337.321 171.101 337.544 180.857C337.853 194.13 338.693 223.092 324.084 234.546C319.694 237.993 316.916 239.691 312.389 239.553C312.389 239.553 316.727 271.551 343.134 273.643C343.134 273.643 352.874 268.138 360.711 257.421C367.724 247.836 377.55 230.482 380.55 224.464C383.551 218.445 382.625 211.483 389.467 205.893C396.309 200.303 393.12 192.792 387.427 186.756C381.716 180.72 375.886 164.602 375.355 157.486C374.772 149.752 375.355 141.847 375.903 136.96" stroke="black" stroke-width="1.5" stroke-miterlimit="10"/>
<path d="M338.23 173.552C336.241 181.217 337.047 201.142 336.001 210.899C341.557 215.752 352.291 223.074 379.882 225.835C382.762 220.056 385.249 213.471 390.753 206.904C395.023 201.811 396.017 191.745 388.215 182.486C381.048 173.981 377.841 162.766 373.074 156.559C370.227 152.838 363.094 146.476 352.325 150.797C344.335 154.004 340.185 166.024 338.23 173.552Z" fill="#FF8A7A" stroke="black" stroke-width="1.5" stroke-miterlimit="10"/>
<path d="M148.151 274.122C148.151 274.122 152.026 285.182 146.401 294.819C146.401 294.819 136.816 294.219 130.711 295.436C124.624 296.653 113.461 295.762 109.912 295.059C106.362 294.356 96.7939 292.641 88.6145 293.207C80.4352 293.773 75.9082 294.836 74.4335 292.315C72.9588 289.794 76.6283 287.805 81.3953 288.903C81.3953 288.903 86.1795 283.776 90.6721 283.416C95.1648 283.056 103.601 281.941 105.933 279.455C108.265 276.968 113.358 267.108 120.183 267.143C127.008 267.194 128.757 276.077 131.569 276.54C134.655 277.071 143.864 275.099 148.151 274.122Z" fill="#FFD6DC" stroke="black" stroke-width="1.5" stroke-miterlimit="10"/>
<path d="M318.648 240.565C318.648 240.565 317.602 238.284 312.629 238.61C307.656 238.936 304.347 241.799 292.944 244.046C285.279 245.555 277.545 253.94 275.676 255.689C260.415 261.639 254.173 264.657 244.862 267.332C233.305 270.641 220.976 272.116 211.579 271.413C202.577 270.727 181.297 268.189 165.246 271.087C151.357 273.591 138.376 275.871 138.376 275.871C138.376 275.871 135.821 289.041 138.188 294.785C138.188 294.785 145.733 294.168 155.009 294.151C161.44 294.151 185.48 295.454 198.633 296.894C210.259 298.163 215.043 297.323 220.427 296.723C236.374 294.922 259.3 293.653 268.08 293.31C275.831 293.002 295.482 291.527 308.428 288.629C324.907 284.942 341.111 274.088 341.111 274.088C322.798 256.752 318.648 240.565 318.648 240.565Z" fill="#FFD9B3" stroke="black" stroke-width="1.5" stroke-miterlimit="10"/>
<path d="M131.123 289.535C131.123 289.535 136.593 297.749 131.62 307.729C131.62 307.729 122.001 307.763 116.016 309.392C110.015 311.021 98.8344 310.867 95.2335 310.421C91.6325 309.958 81.9955 308.878 73.8504 310.009C65.7225 311.124 61.2814 312.479 59.6353 310.061C58.0063 307.643 61.5214 305.414 66.357 306.185C66.357 306.185 70.7983 300.75 75.2566 300.098C79.715 299.446 88.0658 297.749 90.2263 295.125C92.3869 292.502 96.8111 282.299 103.619 281.887C110.426 281.476 112.793 290.032 115.605 290.513C118.417 290.993 126.905 290.804 131.123 289.535Z" fill="#FFD6DC" stroke="black" stroke-width="1.5" stroke-miterlimit="10"/>
<path d="M320.963 236.824C320.963 236.824 317.568 238.093 307.828 239.071C296.013 240.254 289.206 243.752 283.873 247.833C279.277 251.348 278.317 255.018 276.465 256.835C261.547 264.655 255.322 267.072 245.205 270.776C233.734 274.96 218.044 281.751 208.407 281.459C199.182 281.116 173.94 280.053 157.633 283.534C143.521 286.552 129.546 289.484 129.546 289.484C129.546 289.484 128.157 302.568 130.763 308.226C130.763 308.226 138.445 307.335 147.945 306.975C154.529 306.735 185.841 307.54 199.336 308.501C211.27 309.341 216.123 308.329 221.61 307.523L221.628 307.506C237.815 305.123 254.019 302.636 262.867 301.196C273.482 299.481 290.115 295.16 303.13 291.37C322.198 285.797 345.398 272.217 345.398 272.217C326.09 255.566 320.963 236.824 320.963 236.824Z" fill="#FFD9B3" stroke="black" stroke-width="1.5" stroke-miterlimit="10"/>
<path d="M398.795 306.547C394.886 306.084 386.723 304.095 383.928 302.655C381.133 301.214 371.496 299.877 367.758 298.11C366.609 297.562 365.872 296.944 365.272 296.31C365.066 294.527 364.809 291.063 365.203 286.707C365.786 280.311 367.107 264.261 368.238 258.774C369.37 253.287 370.125 246.771 370.056 241.249C370.005 235.728 370.09 231.098 370.313 225.285H370.296C370.313 225.079 370.33 224.856 370.33 224.651C370.639 217.792 370.759 211.601 371.205 204.88C371.651 198.175 373.949 188.024 374.72 185.332C376.126 180.41 377.67 175.54 377.704 168.819C377.738 164.052 374.497 156.73 370.656 154.055C368.033 152.22 365.032 151.225 361.002 151.105C356.424 150.968 349.565 154.706 344.112 167.189C341.66 172.762 339.105 177.941 343.546 183.394C345.141 185.349 346.616 185.332 349.05 187.886C350.182 192.996 349.942 195.62 350.131 202.805C350.319 209.544 350.594 221.856 350.388 226.623C350.336 227.96 350.337 229.589 350.559 231.218C350.542 231.715 350.491 232.196 350.422 232.59C350.028 234.665 351.16 242.981 350.731 245.811C350.302 248.623 349.188 258.14 350.131 264.964C351.743 276.47 351.005 289.074 352.36 297.442C352.36 297.476 352.36 297.493 352.36 297.51C352.36 297.51 351.914 305.947 353.937 308.313C355.944 310.68 366.472 309.788 370.073 309.839C373.674 309.874 379.779 309.959 382.282 309.977C384.786 310.011 390.736 311.023 392.142 310.097C392.142 310.097 402.619 311.228 403.751 309.239C404.9 307.302 402.705 307.01 398.795 306.547Z" fill="#FFD6DC" stroke="black" stroke-width="1.5" stroke-miterlimit="10"/>
<path d="M371.291 137.302C380.465 137.079 385.369 136.204 385.592 129.071C385.969 125.899 386.037 124.338 386.037 124.338C389.638 121.835 387.306 120.977 387.306 120.977C385.094 119.554 384.443 119.605 384.837 115.13C385.369 109.128 382.231 105.527 382.231 105.527" stroke="black" stroke-width="1.5" stroke-miterlimit="10" stroke-linecap="round" stroke-linejoin="round"/>
</svg>
