<svg width="360" height="310" viewBox="0 0 360 310" fill="none" xmlns="http://www.w3.org/2000/svg">
<rect x="0.75" y="1.2793" width="358.5" height="307.343" rx="23.25" fill="#DEF5E9"/>
<rect x="0.75" y="1.2793" width="358.5" height="307.343" rx="23.25" stroke="black" stroke-width="1.5"/>
<path d="M342.531 253.065H19.9149L44.4103 226.836H310.457L342.531 253.065Z" fill="#FFB0A0" stroke="black" stroke-width="1.5" stroke-miterlimit="10"/>
<path d="M222.471 144.367L219.489 133.242L209.823 139.809L222.471 144.367Z" fill="#FB665D"/>
<path d="M195.638 164.805C203.531 162.165 208.851 157.647 212.279 153.549C218.215 146.47 219.857 139.22 219.936 138.918L214.958 137.814C214.945 137.88 213.448 144.303 208.233 150.436C204.464 154.876 199.801 158.028 194.285 159.906L195.638 164.805Z" fill="#FB665D"/>
<path d="M257.166 91.7709C257.166 91.7709 255.826 90.2604 251.557 91.1535C247.289 92.0467 244.977 95.7243 244.347 99.52C243.729 103.316 245.594 107.571 246.75 109.305C247.919 111.026 248.825 113.626 246.776 116.673C244.741 119.734 246.645 122.649 248.746 124.029C250.848 125.408 252.516 129.322 247.63 131.068C247.63 131.068 251.584 133.446 255.511 129.86C259.451 126.275 258.728 123.608 258.728 123.608C258.728 123.608 263.496 121.1 263.536 117.383C263.562 113.679 259.031 113.626 258.965 109.226C258.899 104.826 261.303 102.882 258.873 96.4729C256.443 90.0765 257.166 91.7709 257.166 91.7709Z" fill="#523420"/>
<path d="M257.166 91.7709C257.166 91.7709 255.826 90.2604 251.557 91.1535C247.289 92.0467 244.977 95.7243 244.347 99.52C243.729 103.316 245.594 107.571 246.75 109.305C247.919 111.026 248.825 113.626 246.776 116.673C244.741 119.734 246.645 122.649 248.746 124.029C250.848 125.408 252.516 129.322 247.63 131.068C247.63 131.068 251.584 133.446 255.511 129.86C259.451 126.275 258.728 123.608 258.728 123.608C258.728 123.608 263.496 121.1 263.536 117.383C263.562 113.679 259.031 113.626 258.965 109.226C258.899 104.826 261.303 102.882 258.873 96.4729C256.443 90.0765 257.166 91.7709 257.166 91.7709Z" stroke="black" stroke-width="1.5" stroke-miterlimit="10" stroke-linecap="round" stroke-linejoin="round"/>
<path d="M270.983 101.673L270.26 107.439C270.26 107.439 263.641 116.606 268.737 119.456C274.778 122.832 279.586 117.946 285.352 120.993C291.131 124.053 285.772 118.55 287.111 116.357C287.624 115.516 288.412 110.683 288.412 110.683L287.427 105.258C293.941 105.495 294.9 101.581 295.281 99.2034C295.649 96.8393 295.622 95.5784 295.622 95.5784C298.381 93.6608 296.594 93.0041 296.594 93.0041C294.9 91.9139 294.401 91.9533 294.703 88.5253C295.11 83.9283 292.707 81.1701 292.707 81.1701C292.707 81.1701 289.633 76.5863 285.365 76.7176C281.07 76.849 276.328 79.6991 276.328 79.6991L270.786 85.6752L267.358 90.6136" fill="#FFD6DC"/>
<path d="M259.819 89.5117L256.758 90.5756C256.758 90.5756 257.139 93.9117 259.359 97.8914L262.932 96.9982L261.933 91.6789L259.819 89.5117Z" fill="#FFE12D"/>
<path d="M259.819 89.5117L256.758 90.5756C256.758 90.5756 257.139 93.9117 259.359 97.8914L262.932 96.9982L261.933 91.6789L259.819 89.5117Z" stroke="black" stroke-width="1.5" stroke-miterlimit="10" stroke-linecap="round" stroke-linejoin="round"/>
<path d="M275.75 96.9196L269.105 103.066C269.105 103.066 259.714 98.8635 259.74 87.8964C259.766 77.2446 265.874 71.7282 274.779 69.7712C283.684 67.8142 287.729 72.6476 287.729 72.6476C287.729 72.6476 293.259 72.0959 297.081 76.601C300.916 81.106 296.608 85.0594 294.782 86.6093C294.782 86.6093 294.48 83.0105 292.221 81.1717C292.221 81.1717 291.065 84.1269 287.112 86.2021C283.25 88.2116 281.832 87.9358 280.321 91.6922" fill="#523420"/>
<path d="M289.463 98.9159C289.463 98.9159 289.949 99.3231 291.328 99.1786C292.365 99.0735 293.14 98.2461 293.14 98.2461" stroke="black" stroke-width="1.5" stroke-miterlimit="10" stroke-linecap="round" stroke-linejoin="round"/>
<path d="M291.945 87.5678C291.945 87.5678 290.408 87.0555 289.528 88.4084" stroke="black" stroke-width="1.5" stroke-miterlimit="10" stroke-linecap="round" stroke-linejoin="round"/>
<path d="M291.196 92.6498C291.617 92.7024 292.05 92.177 292.142 91.4809C292.234 90.7848 291.958 90.1675 291.538 90.1149C291.118 90.0624 290.684 90.5878 290.592 91.2839C290.5 91.98 290.776 92.5973 291.196 92.6498Z" fill="#232020"/>
<path d="M294.782 86.6347C296.595 85.0717 300.903 81.1183 297.081 76.6264C293.245 72.1213 287.729 72.673 287.729 72.673C287.729 72.673 283.697 67.8396 274.779 69.7966C265.874 71.7536 259.753 77.2568 259.74 87.9218C259.727 98.902 269.105 103.092 269.105 103.092L275.75 96.945" stroke="black" stroke-width="1.5" stroke-miterlimit="10" stroke-linecap="round" stroke-linejoin="round"/>
<path d="M281.346 91.4029C281.346 91.4029 278.285 87.4626 275.356 89.6166C272.651 91.6261 272.02 95.6715 276.67 97.3133" fill="#FFD6DC"/>
<path d="M280.334 90.7592C280.334 90.7592 278.39 88.1323 275.343 89.6165C272.296 91.1138 272.007 95.6714 276.657 97.3132" stroke="black" stroke-width="1.5" stroke-miterlimit="10" stroke-linecap="round" stroke-linejoin="round"/>
<path d="M275.764 92.0195C275.764 92.0195 276.696 92.2953 277.156 94.2261" stroke="black" stroke-width="1.5" stroke-miterlimit="10" stroke-linecap="round" stroke-linejoin="round"/>
<path d="M290.829 75.0898C290.829 75.0898 294.467 79.9232 290.737 83.7059C287.006 87.4623 279.165 88.408 280.952 92.2826" stroke="black" stroke-width="1.5" stroke-miterlimit="10" stroke-linecap="round" stroke-linejoin="round"/>
<path d="M297.199 226.214C294.349 225.886 288.399 224.441 286.35 223.39C284.301 222.34 277.287 221.368 274.555 220.08C273.688 219.673 273.124 219.187 272.677 218.701C272.703 217.349 272.835 214.906 273.491 211.937C274.49 207.367 276.893 195.861 278.207 191.999C279.52 188.138 280.65 183.475 281.109 179.483C281.569 175.477 282.042 172.14 282.738 167.951C282.738 167.951 276.447 164.115 268.211 167.136C268.211 167.136 267.699 171.457 267.226 172.929C266.754 174.386 267.174 177.775 266.609 179.771C266.044 181.768 263.798 190.108 263.418 195.112C263.089 199.368 262.012 213.579 263.391 220.829V220.842C263.391 220.842 263.693 225.255 265.151 226.976C266.622 228.71 273.636 228.618 276.263 228.657C278.89 228.683 283.342 228.736 285.168 228.749C286.993 228.762 291.328 229.498 292.365 228.828C292.365 228.828 300.01 229.642 300.824 228.197C301.651 226.766 300.049 226.556 297.199 226.214Z" fill="#FFD6DC" stroke="black" stroke-width="1.5" stroke-miterlimit="10"/>
<path d="M269.998 102.266C269.998 102.266 271.85 109.135 266.557 116.7C262.038 123.162 258.374 131.424 258.545 138.897C258.781 149.063 259.425 171.247 248.234 180.02C244.872 182.66 242.744 183.961 239.277 183.856C239.277 183.856 242.6 208.364 262.826 209.966C262.826 209.966 270.287 205.75 276.289 197.541C281.661 190.199 289.187 176.908 291.485 172.297C293.784 167.687 293.075 162.355 298.315 158.073C303.556 153.791 301.113 148.038 296.752 143.415C292.379 138.792 287.913 126.446 287.506 120.995C287.059 115.072 287.506 109.017 287.926 105.273" fill="#FFD6DC"/>
<path d="M269.998 102.266C269.998 102.266 271.85 109.135 266.557 116.7C262.038 123.162 258.374 131.424 258.545 138.897C258.781 149.063 259.425 171.247 248.234 180.02C244.872 182.66 242.744 183.961 239.277 183.856C239.277 183.856 242.6 208.364 262.826 209.966C262.826 209.966 270.287 205.75 276.289 197.541C281.661 190.199 289.187 176.908 291.485 172.297C293.784 167.687 293.075 162.355 298.315 158.073C303.556 153.791 301.113 148.038 296.752 143.415C292.379 138.792 287.913 126.446 287.506 120.995C287.059 115.072 287.506 109.017 287.926 105.273" stroke="black" stroke-width="1.5" stroke-miterlimit="10"/>
<path d="M259.07 133.301C257.546 139.172 258.164 154.434 257.363 161.908C261.618 165.625 269.84 171.233 290.973 173.347C293.18 168.921 295.084 163.878 299.3 158.847C302.571 154.946 303.332 147.237 297.356 140.144C291.866 133.63 289.41 125.04 285.759 120.285C283.578 117.435 278.115 112.562 269.866 115.872C263.746 118.328 260.567 127.535 259.07 133.301Z" fill="#FF8A7A" stroke="black" stroke-width="1.5" stroke-miterlimit="10"/>
<path d="M113.477 210.334C113.477 210.334 116.445 218.806 112.137 226.187C112.137 226.187 104.795 225.727 100.119 226.66C95.4568 227.592 86.9064 226.909 84.1876 226.371C81.4688 225.832 74.14 224.519 67.875 224.952C61.6099 225.386 58.1425 226.2 57.0129 224.269C55.8834 222.339 58.694 220.815 62.3453 221.656C62.3453 221.656 66.0098 217.729 69.451 217.453C72.8922 217.177 79.3543 216.323 81.1405 214.419C82.9268 212.514 86.8276 204.962 92.055 204.988C97.2824 205.028 98.6221 211.831 100.776 212.186C103.14 212.593 110.193 211.083 113.477 210.334Z" fill="#FFD6DC" stroke="black" stroke-width="1.5" stroke-miterlimit="10"/>
<path d="M244.071 184.631C244.071 184.631 243.269 182.884 239.461 183.134C235.652 183.383 233.117 185.577 224.382 187.297C218.511 188.453 212.588 194.876 211.156 196.215C199.467 200.773 194.686 203.085 187.554 205.134C178.702 207.669 169.258 208.798 162.061 208.26C155.165 207.734 138.865 205.79 126.572 208.01C115.933 209.928 105.99 211.674 105.99 211.674C105.99 211.674 104.033 221.762 105.846 226.162C105.846 226.162 111.625 225.689 118.731 225.676C123.656 225.676 142.07 226.674 152.144 227.777C161.049 228.749 164.714 228.105 168.838 227.646C181.053 226.267 198.613 225.295 205.338 225.032C211.274 224.796 226.326 223.666 236.243 221.446C248.865 218.622 261.277 210.309 261.277 210.309C247.249 197.03 244.071 184.631 244.071 184.631Z" fill="#FFD9B3" stroke="black" stroke-width="1.5" stroke-miterlimit="10"/>
<path d="M100.435 222.14C100.435 222.14 104.625 228.432 100.816 236.076C100.816 236.076 93.4474 236.102 88.8636 237.35C84.2666 238.598 75.703 238.479 72.9449 238.138C70.1867 237.783 62.8051 236.956 56.5663 237.823C50.3407 238.676 46.939 239.714 45.6782 237.862C44.4304 236.01 47.1228 234.303 50.8267 234.894C50.8267 234.894 54.2285 230.73 57.6434 230.231C61.0583 229.732 67.4547 228.432 69.1096 226.422C70.7645 224.413 74.1532 216.598 79.3675 216.282C84.5818 215.967 86.3943 222.521 88.5483 222.889C90.7024 223.257 97.2037 223.112 100.435 222.14Z" fill="#FFD6DC" stroke="black" stroke-width="1.5" stroke-miterlimit="10"/>
<path d="M245.844 181.766C245.844 181.766 243.243 182.738 235.783 183.486C226.734 184.392 221.519 187.072 217.435 190.198C213.915 192.89 213.179 195.701 211.761 197.093C200.334 203.082 195.566 204.934 187.817 207.771C179.03 210.976 167.012 216.177 159.631 215.954C152.565 215.691 133.231 214.877 120.74 217.543C109.931 219.855 99.2265 222.101 99.2265 222.101C99.2265 222.101 98.1626 232.122 100.159 236.457C100.159 236.457 106.043 235.774 113.32 235.498C118.363 235.314 142.346 235.931 152.683 236.667C161.824 237.31 165.541 236.535 169.744 235.918L169.757 235.905C182.156 234.079 194.568 232.175 201.345 231.072C209.475 229.758 222.215 226.448 232.184 223.546C246.79 219.277 264.56 208.875 264.56 208.875C249.771 196.121 245.844 181.766 245.844 181.766Z" fill="#FFD9B3" stroke="black" stroke-width="1.5" stroke-miterlimit="10"/>
<path d="M305.46 235.17C302.466 234.815 296.214 233.292 294.073 232.189C291.932 231.085 284.55 230.061 281.687 228.708C280.807 228.288 280.243 227.815 279.783 227.329C279.625 225.963 279.428 223.31 279.73 219.974C280.177 215.075 281.188 202.781 282.055 198.578C282.922 194.375 283.5 189.384 283.447 185.155C283.408 180.926 283.473 177.379 283.644 172.927H283.631C283.644 172.769 283.657 172.599 283.657 172.441C283.894 167.187 283.986 162.446 284.327 157.297C284.669 152.162 286.429 144.386 287.02 142.324C288.097 138.555 289.279 134.825 289.305 129.676C289.331 126.025 286.849 120.416 283.907 118.367C281.897 116.962 279.599 116.2 276.512 116.108C273.006 116.003 267.752 118.866 263.575 128.428C261.697 132.697 259.74 136.663 263.142 140.84C264.363 142.337 265.493 142.324 267.358 144.281C268.225 148.195 268.041 150.205 268.185 155.708C268.33 160.87 268.54 170.3 268.382 173.951C268.343 174.976 268.343 176.224 268.514 177.471C268.501 177.852 268.461 178.22 268.409 178.522C268.106 180.111 268.973 186.481 268.645 188.649C268.317 190.803 267.463 198.092 268.185 203.32C269.42 212.133 268.855 221.786 269.893 228.196C269.893 228.222 269.893 228.235 269.893 228.248C269.893 228.248 269.551 234.71 271.101 236.523C272.638 238.335 280.702 237.652 283.46 237.692C286.219 237.718 290.894 237.784 292.812 237.797C294.73 237.823 299.287 238.598 300.364 237.889C300.364 237.889 308.389 238.756 309.256 237.232C310.136 235.748 308.455 235.525 305.46 235.17Z" fill="#FFD6DC" stroke="black" stroke-width="1.5" stroke-miterlimit="10"/>
<path d="M284.393 105.535C291.42 105.364 295.176 104.694 295.347 99.2306C295.636 96.8008 295.688 95.6055 295.688 95.6055C298.446 93.6879 296.66 93.0312 296.66 93.0312C294.966 91.9411 294.467 91.9805 294.769 88.5524C295.176 83.9555 292.773 81.1973 292.773 81.1973" stroke="black" stroke-width="1.5" stroke-miterlimit="10" stroke-linecap="round" stroke-linejoin="round"/>
</svg>
