<?xml version="1.0" encoding="UTF-8"?>
<svg id="_레이어_2" data-name="레이어 2" xmlns="http://www.w3.org/2000/svg" viewBox="0 0 360 40">
  <defs>
    <style>
      .cls-1 {
        fill: #f9d761;
      }

      .cls-1, .cls-2, .cls-3, .cls-4 {
        stroke-width: 0px;
      }

      .cls-2 {
        fill: #cccdcc;
      }

      .cls-3 {
        fill: #e15956;
      }

      .cls-4 {
        fill: #81bf4b;
      }
    </style>
  </defs>
  <g id="_레이어_1-2" data-name=" 레이어 1">
    <rect class="cls-2" width="360" height="40"/>
    <path class="cls-3" d="M26.8,21.7c.8-3.4-1.3-6.8-4.7-7.6-3.4-.8-6.8,1.3-7.6,4.7-.8,3.4,1.3,6.8,4.7,7.6,3.4.8,6.8-1.3,7.6-4.7Z"/>
    <path class="cls-1" d="M41.8,26.3c3.3-1,5.2-4.6,4.2-7.9-1-3.3-4.6-5.2-7.9-4.2s-5.2,4.6-4.2,7.9c1,3.3,4.6,5.2,7.9,4.2Z"/>
    <path class="cls-4" d="M62.2,26.1c3.2-1.4,4.7-5.1,3.4-8.3-1.4-3.2-5.1-4.7-8.3-3.4-3.2,1.4-4.7,5.1-3.4,8.3,1.4,3.2,5.1,4.7,8.3,3.4Z"/>
  </g>
</svg>