<?xml version="1.0" encoding="UTF-8"?>
<svg id="_레이어_1" data-name="레이어 1" xmlns="http://www.w3.org/2000/svg" xmlns:xlink="http://www.w3.org/1999/xlink" version="1.1" viewBox="0 0 516 93.4">
  <defs>
    <style>
      .cls-1 {
        clip-path: url(#clippath);
      }

      .cls-2 {
        fill: none;
      }

      .cls-2, .cls-3, .cls-4, .cls-5 {
        stroke-width: 0px;
      }

      .cls-3 {
        fill: #9076fc;
      }

      .cls-4 {
        fill: #c6cacc;
      }

      .cls-5 {
        fill: #fff;
      }

      .cls-6 {
        fill: #434156;
        stroke: #fff;
        stroke-miterlimit: 10;
        stroke-width: 5px;
      }
    </style>
    <clipPath id="clippath">
      <rect class="cls-2" y="0" width="516" height="125"/>
    </clipPath>
  </defs>
  <g class="cls-1">
    <g>
      <path class="cls-5" d="M490.2,0H25.8C11.5,0,0,11.5,0,25.6s11.5,25.6,25.8,25.6h464.5c14.2,0,25.8-11.5,25.8-25.6S504.5,0,490.2,0Z"/>
      <path class="cls-4" d="M490.2,0h-68.5v51.3h68.5c14.2,0,25.8-11.5,25.8-25.6S504.5,0,490.2,0h0Z"/>
      <path class="cls-5" d="M481.5,40.6c-1.2,1.2-3.1,1.2-4.2,0l-5.3-5.3c-2.2,1.4-4.7,2.2-7.5,2.2-7.7,0-14-6.2-14-13.9s6.3-13.9,14-13.9,14,6.2,14,13.9-.8,5.3-2.2,7.5l5.3,5.3c1.2,1.2,1.2,3.1,0,4.2h0ZM464.4,13.7c-5.5,0-10,4.5-10,9.9s4.5,9.9,10,9.9,10-4.5,10-9.9-4.5-9.9-10-9.9Z"/>
      <path class="cls-6" d="M472,67.3l-35.4-36.3-1.6,50.9,12.6-10,7,18.1,8.4-3.3-7-18.1,16-1.3Z"/>
    </g>
  </g>
  <path class="cls-3" d="M123.8,22.7c0,.7.6,1,2,1s2-.3,2-1-.6-.9-2-.9-2,.3-2,.9ZM125.7,19c3.5,0,5.2,1.2,5.2,3.7s-1.7,3.8-5.2,3.8-5.2-1.2-5.2-3.8,1.7-3.7,5.2-3.7ZM136.5,27.9c0,.5-.3.8-.8.8h-1.8c-.5,0-.8-.3-.8-.8v-12.9c0-.5.3-.8.8-.8h1.8c.5,0,.8.3.8.8v5.2c.3-.4.8-.6,1.4-.6h.7c.5,0,.7.3.7.7v1.7c0,.5-.3.7-.7.7h-.8c-.8,0-1.3.5-1.3,1.3v4ZM127.4,14v.6c0,.3.2.5.6.5h2.9c.5,0,.7.2.7.7v1.6c0,.5-.2.7-.7.7h-10.5c-.5,0-.7-.2-.7-.7v-1.6c0-.5.2-.7.7-.7h3.9c-.2-.1-.3-.3-.3-.7v-.4c0-.5.2-.7.7-.7h1.9c.5,0,.7.2.7.7ZM127.7,35.3c-3.5,0-5.5-1.5-5.5-4.3s0-1.6.1-2c0-.5.3-.8.8-.8h1.8c.5,0,.8.3.8.8,0,.6-.1.9-.1,1.5,0,1.2.9,1.7,2.6,1.7,2.9,0,5.7-.2,8.2-.4.5,0,.7.3.7.7v1.7c.1.5-.1.7-.6.7-2.3.3-4.9.4-8.7.4ZM150.7,20.4v1.8c0,.5.3.6.7.6h2c.5,0,.6-.2.7-.6v-1.8c0,0-3.4,0-3.4,0ZM154.6,25.8h-4.3c-1.7,0-2.7-.9-2.8-2.4l-.3-7.8c0-.5.3-.7.8-.7h1.8c.5,0,.8.2.8.7v1.9h3.8v-1.9c0-.5.3-.7.9-.7h1.8c.5,0,.8.3.8.7l-.3,7.8c0,1.5-1.1,2.4-2.8,2.4ZM160.6,20.9c-.2.4-.7.6-1.3.6h-.4c-.5,0-.7-.3-.7-.7v-1.7c0-.5.3-.7.7-.7h.5c.8,0,1.2-.4,1.2-1.1v-2.2c0-.5.3-.8.8-.8h1.8c.5,0,.8.3.8.8v12.9c0,.5-.3.8-.8.8h-1.8c-.5,0-.8-.3-.8-.8v-7ZM154.7,35.3c-3.5,0-5.5-1.7-5.5-4.6s0-1.7.1-2.2c0-.5.3-.8.8-.8h1.8c.5,0,.8.3.8.8,0,.7-.1,1.1-.1,1.7,0,1.3.9,2,2.6,2,3.1,0,6.2-.2,8.6-.4.5,0,.7.3.7.7v1.7c.1.5-.1.7-.6.7-2.3.3-5.1.4-9.2.4ZM175.9,25.3c-.2,4.9-1.7,7-4.7,7s-4.7-2.5-4.7-8.4,1.4-8.3,4.7-8.3,4.4,2,4.7,6.5h1.4c.5,0,.7-.2.7-.7v-6.1c0-.5.2-.7.7-.7h1.7c.5,0,.7.2.7.7v19c0,.5-.2.7-.7.7h-1.7c-.5,0-.7-.2-.7-.7v-9.3c-.2.2-.4.3-.8.3h-1.4ZM182.3,15c0-.5.2-.7.7-.7h1.7c.5,0,.7.2.7.7v19.2c0,.5-.2.7-.7.7h-1.7c-.5,0-.7-.2-.7-.7V15ZM171.2,18.6c-1.2,0-1.6,1.4-1.6,5.2s.4,5.3,1.6,5.3,1.7-1.4,1.7-5.3-.4-5.2-1.7-5.2ZM195.6,25.1c-.5,0-.7-.3-.7-.7v-1.2c0-.5.2-.7.7-.6,1.7.1,4.6.2,7,.2-.2-.1-.4-.4-.4-.7v-.3h-2.9c-1.7,0-2.6-.8-2.6-2.2v-3.4c0-.8.4-1.2,1.2-1.2h10.9c1.6,0,2.4.7,2.4,2s-.7,1.9-1.7,2.4h1.4c.4,0,.6.2.6.6v1.2c0,.4-.2.6-.6.6h-5.4v.4c0,.4.2.6.7.6,1.3,0,4.2,0,6-.2.5,0,.7.2.7.6v1.2c0,.4-.2.6-.7.7-1.4.1-4.7.2-8.3.2s-6.3,0-8.3-.2ZM203.8,31.7c-3.4,0-4,.1-4,.6s.7.6,5.2.6,4.8-.1,6.3-.4c.4,0,.6.1.6.5v1.3c.1.3,0,.6-.4.6-1.7.2-4.6.4-6.5.4-6.6,0-8.6-.6-8.6-3s2.3-3,7.3-3,2.7,0,3.7,0,.9-.1.9-.5-.2-.5-.8-.5c-2.2,0-7.3.2-10,.4-.4,0-.6-.2-.6-.6v-1.3c0-.3.2-.5.6-.6,3.5-.3,8.2-.4,11.8-.3,1.5,0,2.3.6,2.3,1.7s-.5,1.5-1.3,1.8h.6c.3,0,.6.2.6.5v1.2c0,.3-.2.6-.6.6-1.7,0-2.9,0-7.1,0ZM206.7,19.1c.7,0,1.2-.5,1.2-1.1s-.3-.7-.8-.7h-6.4c-.4,0-.6.2-.6.6v.5c0,.5.3.7.9.7h5.7ZM220.5,18.6c-1.5,0-2.1,1.4-2.1,5.2s.6,5.3,2.1,5.3,2.1-1.4,2.1-5.3-.6-5.2-2.1-5.2ZM225.9,23.9c0,5.8-1.7,8.4-5.4,8.4s-5.4-2.6-5.4-8.4,1.7-8.3,5.4-8.3,5.4,2.5,5.4,8.3ZM231.4,34.2c0,.5-.3.8-.8.8h-1.8c-.5,0-.8-.3-.8-.8V15.1c0-.5.3-.8.8-.8h1.8c.5,0,.8.3.8.8v7.7c.3-.4.8-.6,1.4-.6h.7c.5,0,.7.3.7.7v1.8c0,.5-.3.7-.7.7h-.8c-.8,0-1.3.5-1.3,1.3v7.5ZM241.1,27.8c-.6,2-2.6,3.6-4.9,4-.5,0-.8-.2-.8-.6v-1.7c0-.4.3-.7.8-.7,1.8-.3,3.2-2.4,3.2-4.8v-7.3c0-.5.3-.8.8-.8h1.8c.5,0,.7.3.7.8v7.3c0,2.4,1.4,4.5,3.2,4.8.5,0,.7.3.7.7v1.7c0,.5-.2.7-.7.6-2.3-.3-4.2-1.9-4.8-4ZM249,15.1c0-.5.3-.8.8-.8h1.8c.5,0,.8.3.8.8v19.1c0,.5-.3.8-.8.8h-1.8c-.5,0-.8-.3-.8-.8v-10.7c-.3.4-.8.6-1.4.6h-1.7c-.5,0-.7-.3-.7-.7v-1.8c0-.5.3-.7.7-.7h1.8c.8,0,1.3-.5,1.3-1.2v-4.6ZM267.1,22.5c-.6,1.8-2.6,3.3-4.9,3.3s-.8-.3-.8-.7v-1.7c0-.4.3-.7.8-.7,1.9,0,3.2-1.7,3.2-3.8v-3.2c0-.5.3-.8.8-.8h1.8c.5,0,.7.3.7.8v3.2c0,2.1,1.3,3.8,3.2,3.8s.7.2.7.7v1.7c0,.5-.2.7-.7.7-2.3,0-4.2-1.5-4.8-3.3ZM275,15.1c0-.5.3-.8.8-.8h1.8c.5,0,.8.3.8.8v12.9c0,.5-.3.8-.8.8h-1.8c-.5,0-.8-.3-.8-.8v-12.9ZM269,35.3c-3.5,0-5.5-1.7-5.5-4.6s0-1.7.1-2.2c0-.5.3-.8.8-.8h1.8c.5,0,.8.3.8.8,0,.7-.1,1.1-.1,1.7,0,1.3.9,2,2.6,2,3.1,0,6.2-.2,8.6-.4.5,0,.7.3.7.7v1.7c.1.5-.1.7-.6.7-2.3.3-5.1.4-9.2.4ZM290.5,26.3c5.3,0,7.8,1.5,7.8,4.5s-2.6,4.5-7.8,4.5-7.9-1.5-7.9-4.5,2.6-4.5,7.9-4.5ZM288.2,14v.9c0,.3.2.5.6.5h2.3c.5,0,.8.3.8.8v1.6c0,.5-.3.8-.8.8h-2.8c0,2.2,1.4,3.4,3.2,3.4s.7.2.7.7v1.7c0,.5-.2.7-.7.7-2.3,0-4.2-1-4.8-3-.6,1.9-2.6,3-4.9,3s-.8-.3-.8-.7v-1.7c0-.4.3-.7.8-.7,1.8,0,3.2-1.2,3.2-3.4h-3.1c-.5,0-.8-.3-.8-.8v-1.6c0-.5.3-.8.8-.8h3.3c-.2-.1-.3-.3-.3-.7v-.7c0-.5.2-.7.7-.7h1.9c.5,0,.7.2.7.7ZM294.5,21c-.2.4-.7.6-1.3.6h-1c-.5,0-.7-.3-.7-.7v-1.7c0-.5.3-.7.7-.7h1.1c.8,0,1.2-.4,1.2-1.1v-2.3c0-.5.3-.8.8-.8h1.8c.5,0,.8.3.8.8v9.7c0,.5-.3.8-.8.8h-1.8c-.5,0-.8-.3-.8-.8v-3.7ZM285.9,30.8c0,1.1,1.1,1.5,4.6,1.5s4.5-.4,4.5-1.5-1.1-1.5-4.5-1.5-4.6.4-4.6,1.5ZM306.1,28.7c1.2,0,2-.9,2-2.5s-.7-2.5-2-2.5-2,.9-2,2.5.7,2.5,2,2.5ZM306.1,20.6c3.3,0,5.2,2.1,5.2,5.6s-1.9,5.6-5.2,5.6-5.2-2.1-5.2-5.6,1.9-5.6,5.2-5.6ZM316.9,34.2c0,.5-.3.8-.8.8h-1.8c-.5,0-.8-.3-.8-.8V15.1c0-.5.3-.8.8-.8h1.8c.5,0,.8.3.8.8v7.7c.3-.4.8-.6,1.4-.6h.7c.5,0,.7.3.7.7v1.8c0,.5-.3.7-.7.7h-.8c-.8,0-1.3.5-1.3,1.3v7.5ZM307.8,15.7c0,.3.2.5.6.5h2.9c.5,0,.8.3.8.8v1.6c0,.5-.3.8-.8.8h-10.4c-.5,0-.8-.3-.8-.8v-1.6c0-.5.3-.8.8-.8h3.9c-.2-.1-.3-.3-.3-.7v-1.1c0-.5.2-.7.7-.7h1.9c.5,0,.7.2.7.7v1.2ZM327.7,31c.6-3.8.8-6.7.8-9.8s-.5-2.3-1.8-2.3c-2,0-3.2.3-4.7.4-.4,0-.7-.2-.7-.7v-1.7c0-.4.2-.6.7-.7,2.3-.3,3.6-.4,5.2-.4,3.3,0,4.6,1.5,4.6,5.1s-.2,6.9-.9,10.3c0,.5-.3.7-.8.7h-1.8c-.5,0-.8-.3-.7-.8ZM334.5,15.1c0-.5.3-.8.8-.8h1.8c.5,0,.8.3.8.8v19.1c0,.5-.3.8-.8.8h-1.8c-.5,0-.8-.3-.8-.8V15.1Z"/>
</svg>