<svg width="316" height="72" viewBox="0 0 316 72" fill="none" xmlns="http://www.w3.org/2000/svg">
<path d="M294.902 0H21.0977C9.44568 0 0 9.39791 0 20.9919C0 32.585 9.44568 41.9829 21.0977 41.9829H294.902C306.554 41.9829 316 32.585 316 20.9919C316 9.39877 306.554 0 294.902 0Z" fill="white"/>
<path d="M294.902 0H238.804V41.9829H294.902C306.554 41.9829 316 32.585 316 20.9919C316 9.39877 306.554 0.000861877 294.902 0.000861877V0Z" fill="#C6CACC"/>
<path d="M287.719 33.2754C286.759 34.2295 285.208 34.2295 284.249 33.2754L279.919 28.9668C278.137 30.1011 276.032 30.7802 273.76 30.7802C267.435 30.7802 262.308 25.6788 262.308 19.3862C262.308 13.0936 267.435 7.99219 273.76 7.99219C280.084 7.99219 285.211 13.0936 285.211 19.3862C285.211 21.6469 284.53 23.7413 283.39 25.5142L287.72 29.8227C288.678 30.7768 288.678 32.3213 287.72 33.2754H287.719ZM273.759 11.2466C269.241 11.2466 265.579 14.8924 265.579 19.3862C265.579 23.88 269.241 27.5249 273.759 27.5249C278.276 27.5249 281.939 23.8818 281.939 19.3862C281.939 14.8907 278.277 11.2466 273.759 11.2466Z" fill="white"/>
<path d="M273.43 55.2178L252.289 33.5645L251.326 63.9571L258.853 57.9668L263.04 68.7665L268.064 66.7804L263.877 55.9807L273.43 55.2178Z" fill="#434156" stroke="white" stroke-width="4.09326" stroke-miterlimit="10"/>
<path d="M33.1567 18.16C33.1567 18.711 33.6507 18.958 34.7717 18.958C35.8927 18.958 36.3867 18.711 36.3867 18.16C36.3867 17.628 35.8927 17.381 34.7717 17.381C33.6507 17.381 33.1567 17.628 33.1567 18.16ZM34.7717 15.063C37.6787 15.063 39.1037 16.089 39.1037 18.16C39.1037 20.25 37.6787 21.276 34.7717 21.276C31.8647 21.276 30.4397 20.25 30.4397 18.16C30.4397 16.089 31.8647 15.063 34.7717 15.063ZM43.7017 22.473C43.7017 22.872 43.4737 23.1 43.0747 23.1H41.5737C41.1747 23.1 40.9467 22.872 40.9467 22.473V11.833C40.9467 11.434 41.1747 11.206 41.5737 11.206H43.0747C43.4737 11.206 43.7017 11.434 43.7017 11.833V16.108C43.9107 15.785 44.3477 15.576 44.8797 15.576H45.4877C45.8677 15.576 46.0767 15.785 46.0767 16.165V17.552C46.0767 17.932 45.8677 18.141 45.4877 18.141H44.8037C44.1577 18.141 43.7017 18.578 43.7017 19.186V22.473ZM36.1777 10.959V11.415C36.1777 11.662 36.3487 11.833 36.6907 11.833H39.1037C39.5027 11.833 39.6927 12.023 39.6927 12.422V13.714C39.6927 14.113 39.5027 14.303 39.1037 14.303H30.4587C30.0597 14.303 29.8697 14.113 29.8697 13.714V12.422C29.8697 12.023 30.0597 11.833 30.4587 11.833H33.7077C33.5177 11.719 33.4227 11.548 33.4227 11.282V10.959C33.4227 10.56 33.6127 10.37 34.0117 10.37H35.5887C35.9877 10.37 36.1777 10.56 36.1777 10.959ZM36.4437 28.515C33.5367 28.515 31.8837 27.242 31.8837 24.943C31.8837 23.993 31.9407 23.651 31.9977 23.29C32.0547 22.891 32.2257 22.663 32.6247 22.663H34.1257C34.5247 22.663 34.8097 22.891 34.7527 23.29C34.6767 23.784 34.6387 24.012 34.6387 24.525C34.6387 25.513 35.3417 25.95 36.7857 25.95C39.1607 25.95 41.5167 25.798 43.5307 25.608C43.9107 25.57 44.1007 25.817 44.1197 26.197L44.2147 27.584C44.2337 27.964 44.0057 28.135 43.6257 28.173C41.7257 28.382 39.5977 28.515 36.4437 28.515ZM55.4422 16.203L55.4992 17.723C55.5182 18.103 55.6702 18.236 56.0502 18.236H57.6652C58.0452 18.236 58.1972 18.103 58.2162 17.723L58.2732 16.203H55.4422ZM58.6532 20.706H55.0622C53.6562 20.706 52.8392 19.984 52.7822 18.73L52.4972 12.251C52.4782 11.871 52.7252 11.643 53.1242 11.643H54.6252C55.0622 11.643 55.2522 11.795 55.2712 12.194L55.3282 13.733H58.3872L58.4442 12.194C58.4632 11.814 58.6532 11.643 59.0902 11.643H60.5912C61.0092 11.643 61.2372 11.871 61.2182 12.251L60.9332 18.73C60.8762 19.984 60.0592 20.706 58.6532 20.706ZM63.5552 16.678C63.3652 17.001 62.9852 17.191 62.4722 17.191H62.1302C61.7502 17.191 61.5412 16.982 61.5412 16.602V15.215C61.5412 14.835 61.7502 14.626 62.1302 14.626H62.5482C63.1942 14.626 63.5552 14.284 63.5552 13.676V11.833C63.5552 11.434 63.7832 11.206 64.1822 11.206H65.6832C66.0822 11.206 66.3102 11.434 66.3102 11.833V22.473C66.3102 22.872 66.0822 23.1 65.6832 23.1H64.1822C63.7832 23.1 63.5552 22.872 63.5552 22.473V16.678ZM58.6722 28.515C55.7652 28.515 54.1122 27.147 54.1122 24.753C54.1122 23.803 54.1692 23.366 54.2262 22.91C54.2832 22.511 54.4542 22.283 54.8532 22.283H56.3542C56.7532 22.283 57.0382 22.511 56.9812 22.91C56.9052 23.499 56.8672 23.822 56.8672 24.335C56.8672 25.418 57.5702 25.95 59.0142 25.95C61.5792 25.95 64.1252 25.798 66.1392 25.608C66.5192 25.57 66.7092 25.817 66.7282 26.197L66.8232 27.584C66.8422 27.964 66.6142 28.135 66.2342 28.173C64.3342 28.382 62.0162 28.515 58.6722 28.515ZM76.1828 20.25C75.9928 24.297 74.8148 26.026 72.3068 26.026C69.5898 26.026 68.4308 23.974 68.4308 19.11C68.4308 14.265 69.5898 12.213 72.3068 12.213C74.7388 12.213 75.9168 13.828 76.1638 17.59H77.3418C77.7218 17.59 77.9308 17.4 77.9308 17.039V11.985C77.9308 11.586 78.1208 11.396 78.5198 11.396H79.9068C80.3058 11.396 80.4958 11.586 80.4958 11.985V27.641C80.4958 28.04 80.3058 28.23 79.9068 28.23H78.5198C78.1208 28.23 77.9308 28.04 77.9308 27.641V19.965C77.7978 20.136 77.5698 20.25 77.3038 20.25H76.1828ZM81.5408 11.795C81.5408 11.396 81.7308 11.206 82.1298 11.206H83.5168C83.9158 11.206 84.1058 11.396 84.1058 11.795V27.641C84.1058 28.04 83.9158 28.23 83.5168 28.23H82.1298C81.7308 28.23 81.5408 28.04 81.5408 27.641V11.795ZM72.3068 14.778C71.2808 14.778 70.9578 15.918 70.9578 19.11C70.9578 22.321 71.2808 23.461 72.3068 23.461C73.3518 23.461 73.6748 22.34 73.6748 19.11C73.6748 15.88 73.3518 14.778 72.3068 14.778ZM92.5198 20.098C92.0828 20.06 91.9308 19.889 91.9308 19.528V18.521C91.9308 18.122 92.1208 17.951 92.5198 17.989C93.9638 18.103 96.2818 18.16 98.3148 18.16C98.1248 18.046 98.0108 17.837 98.0108 17.571V17.286H95.6358C94.2298 17.286 93.5078 16.659 93.5078 15.443V12.593C93.5078 11.947 93.8308 11.624 94.4578 11.624H103.502C104.832 11.624 105.497 12.175 105.497 13.315C105.497 14.17 104.946 14.911 104.053 15.291H105.212C105.554 15.291 105.725 15.462 105.725 15.804V16.773C105.725 17.096 105.554 17.286 105.212 17.286H100.766V17.628C100.766 17.97 100.918 18.122 101.317 18.141C102.381 18.198 104.756 18.103 106.238 17.989C106.637 17.951 106.846 18.122 106.846 18.521V19.528C106.846 19.87 106.694 20.06 106.257 20.098C105.079 20.212 102.343 20.25 99.3788 20.25C96.7188 20.25 94.1728 20.231 92.5198 20.098ZM99.2648 25.551C96.4718 25.551 95.9778 25.665 95.9778 26.064C95.9778 26.482 96.5668 26.52 100.31 26.52C101.868 26.52 104.243 26.406 105.497 26.178C105.801 26.121 106.01 26.273 106.029 26.577L106.124 27.679C106.143 27.945 105.972 28.135 105.687 28.173C104.319 28.363 101.887 28.515 100.329 28.515C94.8378 28.515 93.2228 28.04 93.2228 26.026C93.2228 24.031 95.0848 23.556 99.2268 23.556C100.272 23.556 101.469 23.537 102.305 23.537C102.799 23.537 103.008 23.423 103.008 23.157C103.008 22.872 102.818 22.758 102.343 22.758C100.538 22.758 96.3388 22.891 94.0968 23.081C93.7928 23.1 93.6028 22.929 93.6028 22.625V21.523C93.6028 21.238 93.7548 21.086 94.0968 21.067C96.9658 20.858 100.899 20.744 103.844 20.839C105.06 20.877 105.744 21.314 105.744 22.226C105.744 22.967 105.326 23.499 104.642 23.727H105.098C105.383 23.727 105.592 23.898 105.592 24.164V25.152C105.592 25.418 105.402 25.608 105.098 25.608C103.711 25.608 102.742 25.551 99.2648 25.551ZM101.678 15.196C102.248 15.196 102.704 14.816 102.704 14.322C102.704 13.923 102.495 13.714 102.039 13.714H96.7188C96.3958 13.714 96.2628 13.847 96.2628 14.17V14.588C96.2628 14.987 96.5098 15.196 96.9848 15.196H101.678ZM113.052 14.778C111.817 14.778 111.323 15.975 111.323 19.11C111.323 22.245 111.817 23.461 113.052 23.461C114.306 23.461 114.8 22.264 114.8 19.11C114.8 15.975 114.306 14.778 113.052 14.778ZM117.517 19.11C117.517 23.917 116.13 26.026 113.052 26.026C109.974 26.026 108.606 23.917 108.606 19.11C108.606 14.303 109.974 12.213 113.052 12.213C116.149 12.213 117.517 14.303 117.517 19.11ZM122.058 27.603C122.058 28.002 121.83 28.23 121.431 28.23H119.93C119.531 28.23 119.303 28.002 119.303 27.603V11.833C119.303 11.434 119.531 11.206 119.93 11.206H121.431C121.83 11.206 122.058 11.434 122.058 11.833V18.198C122.267 17.875 122.704 17.666 123.236 17.666H123.844C124.224 17.666 124.433 17.875 124.433 18.255V19.737C124.433 20.117 124.224 20.326 123.844 20.326H123.16C122.514 20.326 122.058 20.763 122.058 21.371V27.603ZM130.088 22.378C129.575 24.069 127.96 25.38 126.041 25.646C125.642 25.703 125.414 25.494 125.414 25.114V23.689C125.414 23.328 125.623 23.138 126.041 23.081C127.523 22.872 128.682 21.105 128.682 19.148V13.087C128.682 12.65 128.91 12.403 129.309 12.403H130.829C131.209 12.403 131.437 12.65 131.437 13.087V19.148C131.437 21.105 132.596 22.872 134.078 23.081C134.477 23.138 134.667 23.328 134.667 23.689V25.114C134.667 25.494 134.477 25.703 134.078 25.646C132.178 25.38 130.582 24.05 130.088 22.378ZM136.586 11.833C136.586 11.434 136.814 11.206 137.213 11.206H138.714C139.113 11.206 139.341 11.434 139.341 11.833V27.603C139.341 28.002 139.113 28.23 138.714 28.23H137.213C136.814 28.23 136.586 28.002 136.586 27.603V18.768C136.377 19.11 135.959 19.3 135.446 19.3H134.021C133.641 19.3 133.432 19.091 133.432 18.711V17.229C133.432 16.849 133.641 16.64 134.021 16.64H135.522C136.168 16.64 136.586 16.241 136.586 15.633V11.833ZM151.556 18.008C151.024 19.509 149.409 20.706 147.509 20.706C147.091 20.706 146.882 20.478 146.882 20.117V18.692C146.882 18.331 147.091 18.141 147.509 18.141C149.048 18.141 150.15 16.716 150.15 14.987V12.327C150.15 11.89 150.378 11.643 150.777 11.643H152.297C152.677 11.643 152.905 11.89 152.905 12.327V14.987C152.905 16.716 154.007 18.141 155.546 18.141C155.945 18.141 156.135 18.331 156.135 18.692V20.117C156.135 20.497 155.945 20.706 155.546 20.706C153.684 20.706 152.069 19.49 151.556 18.008ZM158.054 11.833C158.054 11.434 158.282 11.206 158.681 11.206H160.182C160.581 11.206 160.809 11.434 160.809 11.833V22.473C160.809 22.872 160.581 23.1 160.182 23.1H158.681C158.282 23.1 158.054 22.872 158.054 22.473V11.833ZM153.171 28.515C150.264 28.515 148.611 27.147 148.611 24.753C148.611 23.803 148.668 23.366 148.725 22.91C148.782 22.511 148.953 22.283 149.352 22.283H150.853C151.252 22.283 151.537 22.511 151.48 22.91C151.404 23.499 151.366 23.822 151.366 24.335C151.366 25.418 152.069 25.95 153.513 25.95C156.078 25.95 158.624 25.798 160.638 25.608C161.018 25.57 161.208 25.817 161.227 26.197L161.322 27.584C161.341 27.964 161.113 28.135 160.733 28.173C158.833 28.382 156.515 28.515 153.171 28.515ZM170.891 21.124C175.242 21.124 177.37 22.34 177.37 24.829C177.37 27.318 175.242 28.534 170.891 28.534C166.521 28.534 164.393 27.318 164.393 24.829C164.393 22.34 166.521 21.124 170.891 21.124ZM168.953 10.959V11.7C168.953 11.947 169.124 12.118 169.466 12.118H171.366C171.765 12.118 171.993 12.346 171.993 12.745V14.056C171.993 14.455 171.765 14.683 171.366 14.683H169.048C169.086 16.469 170.169 17.476 171.689 17.476C172.088 17.476 172.278 17.666 172.278 18.027V19.452C172.278 19.832 172.088 20.041 171.689 20.041C169.827 20.041 168.212 19.186 167.699 17.59C167.167 19.186 165.552 20.041 163.652 20.041C163.234 20.041 163.025 19.813 163.025 19.452V18.027C163.025 17.666 163.234 17.476 163.652 17.476C165.172 17.476 166.255 16.469 166.293 14.683H163.747C163.348 14.683 163.12 14.455 163.12 14.056V12.745C163.12 12.346 163.348 12.118 163.747 12.118H166.483C166.293 12.004 166.198 11.833 166.198 11.567V10.959C166.198 10.56 166.388 10.37 166.787 10.37H168.364C168.763 10.37 168.953 10.56 168.953 10.959ZM174.197 16.773C174.007 17.096 173.627 17.286 173.114 17.286H172.297C171.917 17.286 171.708 17.077 171.708 16.697V15.31C171.708 14.93 171.917 14.721 172.297 14.721H173.19C173.836 14.721 174.197 14.379 174.197 13.771V11.833C174.197 11.434 174.425 11.206 174.824 11.206H176.325C176.724 11.206 176.952 11.434 176.952 11.833V19.813C176.952 20.212 176.724 20.44 176.325 20.44H174.824C174.425 20.44 174.197 20.212 174.197 19.813V16.773ZM167.129 24.829C167.129 25.741 168.06 26.064 170.891 26.064C173.703 26.064 174.615 25.741 174.615 24.829C174.615 23.917 173.703 23.594 170.891 23.594C168.06 23.594 167.129 23.917 167.129 24.829ZM183.784 23.119C184.81 23.119 185.399 22.359 185.399 21.029C185.399 19.699 184.81 18.939 183.784 18.939C182.758 18.939 182.169 19.699 182.169 21.029C182.169 22.359 182.758 23.119 183.784 23.119ZM183.784 16.412C186.52 16.412 188.116 18.122 188.116 21.029C188.116 23.936 186.52 25.646 183.784 25.646C181.048 25.646 179.452 23.936 179.452 21.029C179.452 18.122 181.048 16.412 183.784 16.412ZM192.714 27.603C192.714 28.002 192.486 28.23 192.087 28.23H190.586C190.187 28.23 189.959 28.002 189.959 27.603V11.833C189.959 11.434 190.187 11.206 190.586 11.206H192.087C192.486 11.206 192.714 11.434 192.714 11.833V18.198C192.923 17.875 193.36 17.666 193.892 17.666H194.5C194.88 17.666 195.089 17.875 195.089 18.255V19.737C195.089 20.117 194.88 20.326 194.5 20.326H193.816C193.17 20.326 192.714 20.763 192.714 21.371V27.603ZM185.19 12.365C185.19 12.612 185.361 12.783 185.703 12.783H188.078C188.477 12.783 188.705 13.011 188.705 13.41V14.721C188.705 15.12 188.477 15.348 188.078 15.348H179.509C179.11 15.348 178.882 15.12 178.882 14.721V13.41C178.882 13.011 179.11 12.783 179.509 12.783H182.72C182.53 12.669 182.435 12.498 182.435 12.232V11.339C182.435 10.94 182.625 10.75 183.024 10.75H184.601C185 10.75 185.19 10.94 185.19 11.339V12.365ZM201.638 25.019C202.113 21.903 202.322 19.49 202.322 16.906C202.322 15.481 201.942 14.968 200.859 14.968C199.187 14.968 198.199 15.177 196.945 15.31C196.584 15.348 196.356 15.12 196.356 14.721V13.334C196.356 12.973 196.527 12.802 196.945 12.745C198.864 12.479 199.928 12.403 201.277 12.403C203.975 12.403 205.096 13.619 205.096 16.583C205.096 19.623 204.906 22.245 204.393 25.095C204.317 25.513 204.146 25.646 203.747 25.646H202.227C201.809 25.646 201.581 25.399 201.638 25.019ZM207.243 11.833C207.243 11.434 207.471 11.206 207.87 11.206H209.371C209.77 11.206 209.998 11.434 209.998 11.833V27.603C209.998 28.002 209.77 28.23 209.371 28.23H207.87C207.471 28.23 207.243 28.002 207.243 27.603V11.833Z" fill="#9076FC"/>
</svg>
