<?xml version="1.0" encoding="UTF-8"?>
<svg id="_레이어_1" data-name="레이어 1" xmlns="http://www.w3.org/2000/svg" version="1.1" viewBox="0 0 176 100">
  <defs>
    <style>
      .cls-1 {
        stroke: #000;
      }

      .cls-1, .cls-2 {
        fill: none;
        stroke-linecap: round;
        stroke-linejoin: round;
      }

      .cls-2 {
        stroke: #261f1c;
      }

      .cls-3 {
        fill: #fff;
      }

      .cls-3, .cls-4 {
        stroke-width: 0px;
      }

      .cls-4 {
        fill: #ff5252;
      }
    </style>
  </defs>
  <path class="cls-4" d="M165.8,21.4c-8.5-5.6-13.9-1.9-16,0-.2.2-.4,0-.3-.2,1-2.6,2.2-9.1-6.4-14.6-11-7.2-20.4-2.4-25.8,9.4-6.1,13.4,4,38.4,6.3,43.6.3.6.8,1,1.5,1,5.7,0,32.7-.8,42.5-11.8,8.7-9.7,9.3-20.2-1.7-27.4"/>
  <path class="cls-1" d="M166.3,21.2c-8.7-5.7-14.3-2-16.3,0-.2.2-.4,0-.3-.2,1-2.7,2.2-9.3-6.5-15-11.3-7.4-20.9-2.5-26.5,9.6-6.3,13.7,4.1,39.4,6.4,44.7.3.6.9,1,1.5,1,5.8,0,33.5-.8,43.5-12.1,8.9-10,9.5-20.7-1.8-28.1Z"/>
  <path class="cls-4" d="M150,58.6c-4.9-3.2-8-1.1-9.2,0,0,0-.2,0-.2-.1.6-1.5,1.2-5.2-3.7-8.4-6.3-4.1-11.7-1.4-14.9,5.4-3.5,7.7,2.3,22.1,3.6,25.1.1.3.5.6.8.6,3.3,0,18.8-.5,24.4-6.8,5-5.6,5.3-11.6-1-15.8"/>
  <path class="cls-1" d="M150.5,58.3c-5.1-3.3-8.4-1.1-9.6,0,0,0-.2,0-.2-.1.6-1.6,1.3-5.4-3.8-8.8-6.6-4.3-12.2-1.5-15.5,5.6-3.7,8,2.4,23.1,3.8,26.2.2.4.5.6.9.6,3.4,0,19.6-.5,25.5-7.1,5.2-5.8,5.6-12.1-1-16.5Z"/>
  <path class="cls-4" d="M22,7.9c-5.6,3.9-4.7,8.1-4,9.9,0,.1-.1.2-.2.2-1.4-1.3-5-3.6-10.6.2C0,23.1.5,30.1,6.5,36.5c6.7,7.1,24.7,7.2,28.5,7.1.4,0,.8-.3,1-.7,1.4-3.5,7.7-20.4,3.4-29.2-3.8-7.8-10.1-10.8-17.4-5.8"/>
  <path class="cls-1" d="M22,7.3c-5.8,4-4.9,8.4-4.1,10.2,0,.1-.1.3-.2.2-1.4-1.3-5.2-3.8-11,.3C-.8,23.1-.2,30.3,5.9,36.9c7,7.4,25.7,7.5,29.6,7.4.4,0,.8-.3,1-.7,1.5-3.6,8-21.2,3.6-30.3-4-8.1-10.5-11.2-18-6Z"/>
  <polygon class="cls-3" points="29.9 97.5 126.3 97.5 125.5 23.8 29.1 24.9 29.9 97.5"/>
  <polygon class="cls-2" points="29.9 97.5 126.3 97.5 125.5 23.8 29.1 24.9 29.9 97.5"/>
  <path class="cls-2" d="M29.1,24.9l48.2,48.8M77.3,73.7l48.2-49.9"/>
  <line class="cls-2" x1="126.3" y1="97.5" x2="88.6" y2="59.9"/>
  <path class="cls-3" d="M29.9,97.5c1.5,0,35.3-38.1,35.3-38.1"/>
  <path class="cls-2" d="M29.9,97.5c1.5,0,35.3-38.1,35.3-38.1"/>
  <path class="cls-4" d="M81.7,58.1c-3.3,0-4.1,2-4.3,2.9,0,0-.1,0-.1,0-.2-.9-1-2.9-4.3-2.9s-6,3-5.4,7.2c.7,4.7,7.9,9.8,9.5,10.8.2.1.4.1.6,0,1.5-1,8.8-6,9.5-10.8.6-4.2-1.1-7.2-5.4-7.2"/>
  <path class="cls-1" d="M82,57.4c-3.6,0-4.4,2.1-4.7,3.1,0,0-.1,0-.1,0-.2-1-1.1-3.1-4.7-3.1s-6.4,3.2-5.8,7.7c.8,5.1,8.5,10.5,10.2,11.7.2.1.4.1.6,0,1.7-1.1,9.4-6.5,10.2-11.7.7-4.5-1.2-7.7-5.8-7.7Z"/>
</svg>