<?xml version="1.0" encoding="UTF-8"?>
<svg id="_레이어_5" data-name=" 레이어 5" xmlns="http://www.w3.org/2000/svg" xmlns:xlink="http://www.w3.org/1999/xlink" version="1.1" viewBox="0 0 410.4 469">
  <defs>
    <style>
      .cls-1 {
        fill: #6368af;
      }

      .cls-1, .cls-2, .cls-3, .cls-4, .cls-5 {
        stroke-width: 0px;
      }

      .cls-6 {
        clip-path: url(#clippath);
      }

      .cls-2, .cls-7, .cls-8 {
        fill: none;
      }

      .cls-7 {
        stroke: #040000;
      }

      .cls-7, .cls-8 {
        stroke-linecap: round;
        stroke-linejoin: round;
        stroke-width: 2.9px;
      }

      .cls-3 {
        fill: #040000;
      }

      .cls-4 {
        fill: #f7ebed;
      }

      .cls-5 {
        fill: #fff;
      }

      .cls-8 {
        stroke: #cd4873;
      }
    </style>
    <clipPath id="clippath">
      <rect class="cls-2" x="85.5" y="68.9" width="297.3" height="425.6"/>
    </clipPath>
  </defs>
  <g class="cls-6">
    <g>
      <path class="cls-4" d="M686.4,685.2c0-67.6-54.8-122.3-122.3-122.3s-122.3,54.8-122.3,122.3,5.4,41.2,14.9,58.6l14.7-25.9,25.7-23.7,42.7-19,10.5-6.9,38.3-33.1,3.9.4s-1.3,6.6-1.2,7c0,.4,19.5-15.5,19.5-15.5l5.5-1.7,1.5,5.3-3.2,7.4-2.1,7.3,25.1-13.6.8,1.8-1.5,8.3-10.2,10.9-22.7,15.2-18.7,10.5,14.1,6.6,45.4,23.1,22.5,42.6c12.1-19,19.1-41.5,19.1-65.7"/>
      <path class="cls-4" d="M36.6,380.4c45.9-51.7,41.3-130.8-10.4-176.7-18.5-16.4-40.5-26.4-63.2-30-.8-.1,1.1,8.6.4,18.7-.9,13.1-4.3,28.4-4.3,28.4,5.7.5,10.6,8.4,15.1,20.6l11,50.9s-5.9,45-6.1,68.8c14.8,14,26.3,45.4,36.3,38.3,7.6-5.4,14.8-11.8,21.3-19"/>
      <path class="cls-7" d="M-44.1,158.5s-4.3,13.1,3.9,12.7"/>
      <path class="cls-7" d="M-96,181.9s0,13.8,7.8,10.8"/>
      <path class="cls-7" d="M-71.4,175.1s-1.3,14.2,6.4,11.2"/>
      <path class="cls-7" d="M-122.8,257s7.8,11.4-.2,13.3"/>
      <path class="cls-7" d="M-80.2,103.4s1.5,12.6-5.8,11.1"/>
      <path class="cls-7" d="M-107.1,92.6s1.5,12.6-5.8,11.1"/>
      <path class="cls-7" d="M-129.6,113.2s1.5,12.6-5.8,11.1"/>
      <path class="cls-7" d="M-155.1,145.1s2,12.5-5.3,11.3"/>
      <path class="cls-7" d="M-57.5,191.9l1.2-6.6s.4-19.9,9.2-28.8c3.2-3.2,8.8-1,9,3.5l1.5,32.8-3.2,20.8"/>
      <path class="cls-7" d="M-156.8,204.9s8.7,37.2,8.7,39.2,5.4,34.2,10.2,42.5l-28,70.6"/>
      <path class="cls-7" d="M-76.8,170l-1.2-18.3s5.4-33.5,0-46.5c-.8-1.8-2.5-3.1-4.4-3-2.1,0-4.5,1.7-5,8.2-1,12-7,39.1-7,39.1,0,0-.9,28.9-.3,29"/>
      <path class="cls-7" d="M-99.2,179.7l-2.6-22.9v-24.4c0,0,1.5-17.1.9-28.8-.3-5.6-2.1-9.2-3.9-11.6-1.9-2.4-5.7-1.8-6.7,1.1-1.2,3.3-2.6,8.8-3.4,18-1.8,20-2.9,29.8-2.9,29.8l-.6,59.9"/>
      <path class="cls-7" d="M-119.4,188.3l-7.2-35.4.9-21.8c.8-8.5-1.1-14.4-3-17.9-1.2-2.2-4.3-1.9-5.1.4-1.2,3.4-2.7,8.9-4.3,17.8-3.3,18.1-3,30.8-3,30.8l4.1,50.1"/>
      <path class="cls-7" d="M-139.8,202.5s-8.1-21.6-8.5-22.2c-.4-.6-.1-9.6-1.2-20.9-.7-6.6-3.1-11.2-5.1-13.8-1-1.4-3.2-.9-3.6.8-1.2,5.6-3.2,15.8-3.2,18.9s-1,9.8-1,9.8l5,27.1"/>
      <path class="cls-7" d="M-121.6,276.2l-4-18.9c0-.2,11.8-12.1,24.4,27.3,2.3,7.3,5.4,18.3,12.1,22.6,8.2,5.4,10.2-17.6,10.6-29.1l-4.9-44.9c-1.7-3.4-15-30.4-16.3-33.5-5.1-11.9,1.5-24.3,5.8-18.1l22.5,31.7c-3.3-11.1-5.5-17.6-6.2-21.7-.7-3.7-3.3-13.7,5.9-18.1,1.4-.6,3.9,5.6,5.1,8l7,15.4c-.2-2.5.4-3.4,1-4,.8-.7,1.8-.9,2.9-.5,1.7.6,5.4,2,14.4,28.6,0,0,.2-.1.4-.2,1-.5,3.6-1.7,10.7,8.7,7.2,10,14.9,57.3,14.4,68.6l-4.8,59.6"/>
      <path class="cls-7" d="M-72.7,379.1c-.5-1.2-7.5-15.5-13.4-22.1-11.9-13.3-18.7-21.9-20.7-27.6"/>
      <path class="cls-7" d="M-71.4,213.4s16.1,29.6,12.2,62.3"/>
      <polyline class="cls-7" points="-59.6 196.9 -46.7 235.3 -41 262.5"/>
      <path class="cls-7" d="M-40.9,220.8s12,32,12.1,40.4"/>
      <line class="cls-7" x1="-69.7" y1="385.4" x2="-48.8" y2="430.4"/>
      <path class="cls-7" d="M-122.4,283.8s8.9,32.9,11.6,35.5"/>
      <line class="cls-7" x1="-18.5" y1="361.1" x2="3.2" y2="393.1"/>
      <line class="cls-7" x1="-90" y1="356.7" x2="-102.5" y2="403.7"/>
      <path class="cls-8" d="M-129.5,283.8c-15.6,10.5-27.7-13.5-27.7-13.5,0,0-11.3-22.2,16-35.9,0,0,30.4-16.1,41.9,6.6,9.9,19.6,0,24.6,0,24.6"/>
      <polyline class="cls-8" points="-98.9 256.7 -102.2 269.6 -91.9 264.5"/>
      <path class="cls-4" d="M252.9,413.4c56-9.6,98.5-58.4,98.5-117.1s-36.4-100.1-86.1-114.2l1.4,9.6-1.9,37.9v12.1l-5.5,25-7.5,20.3-4.4,4.6,7.1,32.7,3.3,27.4-4.5,57.1-.4,4.6h0Z"/>
      <line class="cls-7" x1="241.2" y1="303.8" x2="228.7" y2="377"/>
      <path class="cls-5" d="M239.3,241.7l-11.5-47.6-6.1-37.4s2.1-33.9-4.7-46.3c-.9-1.7-2.7-2.8-4.7-2.5-2.1.3-4.3,2.1-4.2,8.6.1,12.1-3.1,39.6-3.1,39.6,0,0,3.6,43.2,4.2,43.2"/>
      <path class="cls-7" d="M239.3,241.7l-11.5-47.6-6.1-37.4s2.1-33.9-4.7-46.3c-.9-1.7-2.7-2.8-4.7-2.5-2.1.3-4.3,2.1-4.2,8.6.1,12.1-3.1,39.6-3.1,39.6,0,0,3.6,43.2,4.2,43.2"/>
      <path class="cls-5" d="M206.1,198.8l-7.6-35.3-2.2-24.3s-.3-17.1-2.1-28.7c-.8-5.5-3-9-5-11.1-2.1-2.2-5.8-1.2-6.6,1.7-.9,3.4-1.7,9-1.6,18.2.1,20.1,0,29.9,0,29.9l5.2,59.7"/>
      <path class="cls-7" d="M206.1,198.8l-7.6-35.3-2.2-24.3s-.3-17.1-2.1-28.7c-.8-5.5-3-9-5-11.1-2.1-2.2-5.8-1.2-6.6,1.7-.9,3.4-1.7,9-1.6,18.2.1,20.1,0,29.9,0,29.9l5.2,59.7"/>
      <path class="cls-5" d="M184.1,196.6l-10.6-34.5-1.2-21.7c0-8.5-2.5-14.2-4.7-17.5-1.4-2-4.5-1.5-5,.9-.8,3.5-1.9,9.1-2.6,18.1-1.5,18.3,0,31,0,31l8.9,49.4"/>
      <path class="cls-7" d="M184.1,196.6l-10.6-34.5-1.2-21.7c0-8.5-2.5-14.2-4.7-17.5-1.4-2-4.5-1.5-5,.9-.8,3.5-1.9,9.1-2.6,18.1-1.5,18.3,0,31,0,31l8.9,49.4"/>
      <path class="cls-5" d="M165.2,212.7s-10.1-20.7-10.6-21.3c-.4-.6-1-9.5-3.3-20.7-1.3-6.5-4.2-10.8-6.4-13.3-1.2-1.3-3.3-.6-3.5,1.1-.6,5.7-1.7,16.1-1.4,19.2.4,4.3,0,9.8,0,9.8l7.6,26.5"/>
      <path class="cls-7" d="M165.2,212.7s-10.1-20.7-10.6-21.3c-.4-.6-1-9.5-3.3-20.7-1.3-6.5-4.2-10.8-6.4-13.3-1.2-1.3-3.3-.6-3.5,1.1-.6,5.7-1.7,16.1-1.4,19.2.4,4.3,0,9.8,0,9.8l7.6,26.5"/>
      <path class="cls-5" d="M256.1,159.7s-3,13.4,5.2,12.3"/>
      <path class="cls-7" d="M256.1,159.7s-3,13.4,5.2,12.3"/>
      <path class="cls-5" d="M214.9,108.3s2.7,12.4-4.7,11.6"/>
      <path class="cls-7" d="M214.9,108.3s2.7,12.4-4.7,11.6"/>
      <path class="cls-5" d="M187.1,100.2s2.7,12.4-4.7,11.6"/>
      <path class="cls-7" d="M187.1,100.2s2.7,12.4-4.7,11.6"/>
      <path class="cls-5" d="M166.7,122.9s2.7,12.4-4.7,11.6"/>
      <path class="cls-7" d="M166.7,122.9s2.7,12.4-4.7,11.6"/>
      <path class="cls-5" d="M144.5,157.1s3.2,12.2-4.2,11.8"/>
      <path class="cls-7" d="M144.5,157.1s3.2,12.2-4.2,11.8"/>
      <path class="cls-5" d="M263.2,168l3.6,25-2.2,38.8s.3,43-23.4,69.4"/>
      <path class="cls-7" d="M263.2,168l3.6,25-2.2,38.8s.3,43-23.4,69.4"/>
      <line class="cls-2" x1="262.2" y1="160.5" x2="263.2" y2="168"/>
      <line class="cls-7" x1="262.2" y1="160.5" x2="263.2" y2="168"/>
      <path class="cls-5" d="M251.7,159.5c.4-.6.8-1.1,1.2-1.6,2.9-3.5,8.6-1.9,9.3,2.6"/>
      <path class="cls-7" d="M251.7,159.5c.4-.6.8-1.1,1.2-1.6,2.9-3.5,8.6-1.9,9.3,2.6"/>
      <path class="cls-5" d="M251.7,159.5c-6.6,10.2-5.2,28-5.2,28l-1.3,16.5s-7.6,29-7.6,29.7"/>
      <path class="cls-7" d="M251.7,159.5c-6.6,10.2-5.2,28-5.2,28l-1.3,16.5s-7.6,29-7.6,29.7"/>
      <path class="cls-5" d="M148.6,216.7s12.3,36.2,12.5,38.2,8.7,33.5,14.3,41.3l-8.2,28.2"/>
      <path class="cls-7" d="M148.6,216.7s12.3,36.2,12.5,38.2,8.7,33.5,14.3,41.3l-8.2,28.2"/>
      <path class="cls-5" d="M152,332.3l-4-18.9c0-.2,11.8-12.1,24.4,27.3,2.3,7.3,5.4,18.3,12.1,22.6,8.2,5.4,10.2-17.6,10.6-29.1l-4.9-44.9c-1.7-3.4-15-30.4-16.3-33.5-5.1-11.9,1.5-24.3,5.8-18.1l22.5,31.7c-3.3-11.1-5.5-17.6-6.2-21.7-.7-3.7-3.3-13.7,5.9-18.1,1.4-.6,3.9,5.6,5.1,8l7,15.4c-.2-2.5.4-3.4,1-4,.8-.7,1.8-.9,2.9-.5,1.7.6,5.4,2,14.4,28.6.1,0,.2-.1.4-.2,1-.5,3.6-1.7,10.7,8.7,7.2,10,14.9,57.3,14.4,68.6l-4.8,59.6"/>
      <path class="cls-7" d="M152,332.3l-4-18.9c0-.2,11.8-12.1,24.4,27.3,2.3,7.3,5.4,18.3,12.1,22.6,8.2,5.4,10.2-17.6,10.6-29.1l-4.9-44.9c-1.7-3.4-15-30.4-16.3-33.5-5.1-11.9,1.5-24.3,5.8-18.1l22.5,31.7c-3.3-11.1-5.5-17.6-6.2-21.7-.7-3.7-3.3-13.7,5.9-18.1,1.4-.6,3.9,5.6,5.1,8l7,15.4c-.2-2.5.4-3.4,1-4,.8-.7,1.8-.9,2.9-.5,1.7.6,5.4,2,14.4,28.6.1,0,.2-.1.4-.2,1-.5,3.6-1.7,10.7,8.7,7.2,10,14.9,57.3,14.4,68.6l-4.8,59.6"/>
      <path class="cls-5" d="M201,435.2c-.5-1.2-7.5-15.5-13.4-22.1-11.9-13.3-18.7-21.9-20.7-27.6"/>
      <path class="cls-7" d="M201,435.2c-.5-1.2-7.5-15.5-13.4-22.1-11.9-13.3-18.7-21.9-20.7-27.6"/>
      <path class="cls-5" d="M202.3,269.5s16.1,29.6,12.2,62.3"/>
      <path class="cls-7" d="M202.3,269.5s16.1,29.6,12.2,62.3"/>
      <polyline class="cls-5" points="214.1 253.1 226.9 291.5 232.7 318.6"/>
      <polyline class="cls-7" points="214.1 253.1 226.9 291.5 232.7 318.6"/>
      <path class="cls-5" d="M232.7,277s12,32,12.1,40.4"/>
      <path class="cls-7" d="M232.7,277s12,32,12.1,40.4"/>
      <path class="cls-5" d="M177.6,238s.1,13.8,7.8,10.8"/>
      <path class="cls-7" d="M177.6,238s.1,13.8,7.8,10.8"/>
      <path class="cls-5" d="M202.3,231.3s-1.3,14.2,6.4,11.2"/>
      <path class="cls-7" d="M202.3,231.3s-1.3,14.2,6.4,11.2"/>
      <path class="cls-5" d="M150.8,313.2s7.8,11.4-.2,13.3"/>
      <path class="cls-7" d="M150.8,313.2s7.8,11.4-.2,13.3"/>
      <line class="cls-2" x1="204" y1="441.6" x2="214.4" y2="464.1"/>
      <line class="cls-7" x1="204" y1="441.6" x2="214.4" y2="464.1"/>
      <path class="cls-5" d="M151.3,340s8.9,32.9,11.7,35.5"/>
      <path class="cls-7" d="M151.3,340s8.9,32.9,11.7,35.5"/>
      <line class="cls-2" x1="255.1" y1="417.3" x2="276.8" y2="449.2"/>
      <line class="cls-7" x1="255.1" y1="417.3" x2="276.8" y2="449.2"/>
      <line class="cls-8" x1="227.4" y1="246.7" x2="218.5" y2="219.6"/>
      <polyline class="cls-8" points="227.4 228.2 217.1 216 217.3 231.5"/>
      <line class="cls-8" x1="187.5" y1="237.5" x2="178.7" y2="210.4"/>
      <polyline class="cls-8" points="187.5 219.1 177.2 206.8 177.4 222.3"/>
      <line class="cls-8" x1="156.4" y1="273.6" x2="147.6" y2="246.5"/>
      <polyline class="cls-8" points="156.4 255.2 146.1 242.9 146.3 258.4"/>
      <path class="cls-4" d="M636.5,143.4c-67.8,0-122.8,55-122.8,122.8s.7,15.3,2.1,22.6l15.8-23.8,14.5-27.6,14-28.6,9.4-8.8,13.6-11.9,3.1-.6v5.2l-4.2,11.3-11.4,16.5-6.8,22.7,13.2-16.4,12.2-18.1,17.9-17.4,14.9-10.5,2.3,1.1-2.2,10.8-16,19.4-4.9,7.3-12.1,24.5,22.2-24.5,30.4-31.9,11.7-6.7,2,4.8-3.2,10.5-27.2,33.2s-20.7,31.8-23.7,36.8c-3.1,5,4.8,6.5,4.8,6.5l21.7-13.3,29.5-4.3,6.9-.8,6.8-5.8,20.2,3.5,21.6,4.5,18,9.7,25.6,25.9c1.8-8.4,2.8-17,2.8-25.9,0-67.8-55-122.8-122.8-122.8"/>
      <path class="cls-5" d="M714.7,322.2c-8.3.3-20.8,1.9-32.5-3.3-13.8-6.1-17.4-7.9-25-7.6,0,0-8.2-.2-11.7,4.7-2.8,3.9,8,10.4,8,10.4l23.2,13.4,21.6,14.6c1.3,1.5,22.2,19.6,56.5,14.6"/>
      <path class="cls-7" d="M714.7,322.2c-8.3.3-20.8,1.9-32.5-3.3-13.8-6.1-17.4-7.9-25-7.6,0,0-8.2-.2-11.7,4.7-2.8,3.9,8,10.4,8,10.4l23.2,13.4,21.6,14.6c1.3,1.5,22.2,19.6,56.5,14.6"/>
      <line class="cls-2" x1="760.8" y1="374.3" x2="822.4" y2="398"/>
      <line class="cls-7" x1="760.8" y1="374.3" x2="822.4" y2="398"/>
      <line class="cls-2" x1="801.4" y1="333.7" x2="850.9" y2="337.7"/>
      <line class="cls-7" x1="801.4" y1="333.7" x2="850.9" y2="337.7"/>
      <path class="cls-5" d="M664.3,254.3s1.8-3.3,6.8-5.8c1.3-.7,36,6.8,41.8,8,0,0,12.9,4.9,19.9,11.9,22,22,64.7,63.9,64.7,63.9"/>
      <path class="cls-7" d="M664.3,254.3s1.8-3.3,6.8-5.8c1.3-.7,36,6.8,41.8,8,0,0,12.9,4.9,19.9,11.9,22,22,64.7,63.9,64.7,63.9"/>
      <path class="cls-5" d="M714.9,319.2c9.5-7.6-2.8-16.3-5-18.3-.6-.6-4.7-2.4-10-4.6l-7.4-3.7-25.9-7.8c-.2,3.7,20.9,7.4,22.8,13.4,3.2,9.8-7.7,15.8-18.1,12.3,0,0-33.1-5.9-26.7-20.7,3.3-7.6,3.9-12.3,6-18.8,1.3-4.1,6.2-6,10.5-6s42.3,5.5,44.7,6"/>
      <path class="cls-7" d="M714.9,319.2c9.5-7.6-2.8-16.3-5-18.3-.6-.6-4.7-2.4-10-4.6l-7.4-3.7-25.9-7.8c-.2,3.7,20.9,7.4,22.8,13.4,3.2,9.8-7.7,15.8-18.1,12.3,0,0-33.1-5.9-26.7-20.7,3.3-7.6,3.9-12.3,6-18.8,1.3-4.1,6.2-6,10.5-6s42.3,5.5,44.7,6"/>
      <path class="cls-7" d="M653.5,184.6s-6.3,10.5-10.9,4.1"/>
      <path class="cls-7" d="M624.4,183.9s-6.3,10.5-10.9,4.1"/>
      <path class="cls-7" d="M586.3,189.6s-5.8,10.8-10.7,4.7"/>
      <path class="cls-7" d="M547.6,360.5c35.1,5.7,65.9-20.1,65.9-20.1l18-13.9s26.5-15,13.4-22.7c0,0-3.5-6-27.4,10.8-9.3,6.5-24,6-24.3,6.2"/>
      <line class="cls-7" x1="543.9" y1="360.6" x2="479.8" y2="398"/>
      <path class="cls-7" d="M547.6,234.7s-16.1,31.5-17.5,33-20.1,28.2-22.5,37.5l-48.4,21.3"/>
      <path class="cls-7" d="M606.2,272.7c3.6-2.6,14.9-9.3,21.7-13.3l25.9-3.7s11.5-3.1,32.6,4.7c0,0,5.5,1.4,4.8,8.6"/>
      <path class="cls-7" d="M589.2,319.1l31.9-25.6s12-10.9,27.3-14.4"/>
      <path class="cls-7" d="M601.4,266.2l18.1-29.8,14.5-18.1s11.1-11.8,17.6-21c3.1-4.4,3.9-8.4,3.9-11.5s-3.2-5.4-5.7-4c-2.9,1.6-7.1,4.7-13.2,11-13.2,13.7-19.8,20.2-19.8,20.2l-35.9,44.4"/>
      <path class="cls-7" d="M587.6,247.4l15.6-31.6,13.6-15.6c5.7-5.8,7.7-11.5,8.3-15.5.4-2.4-2.1-4.5-4.1-3.3-2.9,1.7-7.3,4.7-13.8,10.2-13.2,11.2-20.5,20.9-20.5,20.9l-26.5,40.4"/>
      <path class="cls-7" d="M563.9,243.5s6.7-21.9,6.8-22.7c0-.8,5.6-7.3,11.4-16.5,3.4-5.4,4.2-10.6,4.3-14,0-1.8-1.9-3-3.2-2-4.2,3.3-11.8,9.5-13.6,11.9-2.6,3.3-6.5,6.6-6.5,6.6l-12.3,23.9"/>
      <path class="cls-8" d="M636.8,237.5s18.3-18.5,50.4-3.6"/>
      <polyline class="cls-8" points="680.9 235.6 691.8 236 683.9 226.1"/>
      <path class="cls-4" d="M1212.4,269.8c-12.5-55.8-62.3-97.6-121.9-97.6s-124.9,55.9-124.9,124.9.5,12.8,1.4,18.9l2.5-1.9,6.7-3,12.2,2h8.8l-9.5-6.2,5.3-4.2,7.6-.9,10.3,3.2,15.4,6.2,16.1-3.1,9.4-4.4-29.5-4.7-24-13.6-9.8-7.3,1.9-3.6,4.6-1.8,2.8-3.8,2.2-4.9,8.9-4.5,14.8-.4,5.5-4.5h10.3l18.1,1.6,19.2-.9,50.1,3,18.3,8.1,14.7,8.3,25.7-3.5,26.7-1.1v-.3h.1Z"/>
      <path class="cls-7" d="M1053.3,358s7.1-19,23.6-22.5"/>
      <path class="cls-7" d="M1065.1,389.3c-3.5,1.6-18.1,1.9-23.1,2.8-1.6.3-9.1.2-10.6-.3l-36.3-11.5s-.4-14.8,26.5-9.3c4.8,1,19.3-1.4,25.9-6.8"/>
      <path class="cls-7" d="M1242.7,353l-130.1,3.8s-41.6,29.2-45.8,32.1"/>
      <path class="cls-7" d="M996.4,375.2s-6.3-.6-14.2-2.4c-4.8-1.2-10.2-2.8-15.1-5.1-11.9-5.7-23.5-10-19-13.3.5-.4,2.9-7.5,16.6-3.2l26.6,8.6,27.7-1.2"/>
      <path class="cls-7" d="M959.7,341.4c-7.6-2.4-12.6-4.6-9.7-7.4.4-.4,2.1-7.8,16.2-5.4l28.5,9.3,31.6-1.4"/>
      <path class="cls-7" d="M957.9,327.4c.4-.4,2.1-7.8,16.2-5.4l27.3,5,27.9-4.8"/>
      <path class="cls-7" d="M967.7,316.3c1.3-2.1,4.9-5.9,15.5-4l27.3,5,32-8"/>
      <path class="cls-7" d="M1048.2,306.9c15.2-4.5,24.5-10.8,34.6-12.5,4.6-.8,9.3-.3,13.8,1.4l12.8,6.3,23.3-4.9"/>
      <polyline class="cls-7" points="961.5 342.8 986.5 353.4 1018.7 359"/>
      <path class="cls-5" d="M1230.5,332.7s-23.1-.9-79,1.6"/>
      <path class="cls-7" d="M1230.5,332.7s-23.1-.9-79,1.6"/>
      <path class="cls-5" d="M1078,330.7c-9.7,8.1-23.6,14.6-28.6,24.3-6.1,11.7-.5,15-.5,15l29.2-16.4,26-10c2.2-.6,28.8-4.6,41.3-7.5"/>
      <path class="cls-7" d="M1078,330.7c-9.7,8.1-23.6,14.6-28.6,24.3-6.1,11.7-.5,15-.5,15l29.2-16.4,26-10c2.2-.6,28.8-4.6,41.3-7.5"/>
      <path class="cls-5" d="M1099.7,326.1c-21,7.3-46.2,5.8-71.7,3.6l-39-21s-1.2-4.2,4-6c13.4-4.8,22.2,9,38.9,6.9,14.1-1.8,23-3.9,33.1-4l-41.3-5.8-35.2-20.1v-1.7c.2-1,.6-2.5,2-3.6,1.6-1.3,4.8-2.5,12.7-2-2.4-.7-3.8-1.1-3.9-1.1l-1.8-.5.4-2c1.8-8.5,10.2-11.6,23-8.5.4,0,1,.2,1.7.4l1.3-1.8c4.9-7,18.6-4,31.5-3.1,11.6.9,22.6-.7,25.2,0h26.2c10.2.3,17.6,1.4,23,2.9,0,0,25.8,11.8,30.2,15.7,17.9-4.1,25.9-3.4,60.6-5.1"/>
      <path class="cls-7" d="M1099.7,326.1c-21,7.3-46.2,5.8-71.7,3.6l-39-21s-1.2-4.2,4-6c13.4-4.8,22.2,9,38.9,6.9,14.1-1.8,23-3.9,33.1-4l-41.3-5.8-35.2-20.1v-1.7c.2-1,.6-2.5,2-3.6,1.6-1.3,4.8-2.5,12.7-2-2.4-.7-3.8-1.1-3.9-1.1l-1.8-.5.4-2c1.8-8.5,10.2-11.6,23-8.5.4,0,1,.2,1.7.4l1.3-1.8c4.9-7,18.6-4,31.5-3.1,11.6.9,22.6-.7,25.2,0h26.2c10.2.3,17.6,1.4,23,2.9,0,0,25.8,11.8,30.2,15.7,17.9-4.1,25.9-3.4,60.6-5.1"/>
      <polyline class="cls-5" points="1006.4 272.8 1030.3 285.3 1067.8 289.4"/>
      <polyline class="cls-7" points="1006.4 272.8 1030.3 285.3 1067.8 289.4"/>
      <polyline class="cls-5" points="1022.7 260.7 1041.1 268.6 1070 272.9"/>
      <polyline class="cls-7" points="1022.7 260.7 1041.1 268.6 1070 272.9"/>
      <line class="cls-8" x1="1116.8" y1="224.2" x2="1064.2" y2="228.3"/>
      <polyline class="cls-8" points="1074.6 221.8 1060.3 228.9 1075.4 232.4"/>
      <path class="cls-3" d="M504.7,764.6c-3.3-1.5-4.6-3.1-4.7-3.3-.6-.8-.4-1.9.3-2.5.8-.6,1.9-.4,2.5.3,0,0,1.3,1.5,4.7,2.7,11.3,4,23.2,2.7,33.6,1.6,1.8-.2,3.5-.4,5.2-.5,12.4-1.2,24.5,3.7,32.7,7.3,2.3,1,4.4,2.5,6.3,3.7,2.3,1.5,5.2,3.5,6.3,3,.2,0,1.1-.7,1.6-4,1.2-7.7-17.6-21.3-27.7-28.6-3.6-2.6-6.4-4.6-8-6-.7-.6-.8-1.8,0-2.5s1.7-.8,2.5,0c1.5,1.3,4.4,3.4,7.7,5.8,16.1,11.7,30.5,22.9,29.1,32-.4,2.3-1.1,5.6-3.6,6.7-2.8,1.3-6-.8-9.7-3.3-1.9-1.2-3.9-2.5-5.9-3.5-7.7-3.5-19.3-8.1-30.9-7-1.7.2-3.4.4-5.2.5-10.9,1.2-23.2,2.6-35.2-1.8-.6-.2-1.1-.4-1.6-.6"/>
      <path class="cls-3" d="M420.9,803.2h-.2c-.8-.5-1.1-1.6-.7-2.4,3-5.2,45.2-74.8,50.5-83.2,5.4-8.5,26.2-25.6,35.4-29,8.7-3.2,54.1-24.2,68.5-33.6,6.6-4.3,14-10.9,20.6-16.7,9.7-8.6,15.9-13.9,19.8-14.4,2-.2,3.6.6,4.3,2.3,2.5,5.3-4,18.3-13.5,27.2l-3.6,3.3c-14.2,13.1-43.7,40.4-46.1,54.2-.6,3.6-1,6.7-1.2,9.3,0,1-.9,1.7-1.9,1.7s-1.7-.9-1.7-1.9c.2-2.7.6-5.9,1.2-9.7,2.6-14.9,31.6-41.8,47.2-56.2l3.6-3.3c9.6-9,14-20.4,12.7-23.2,0-.2-.2-.3-.7-.2-3,.4-10.6,7.1-17.9,13.5-6.7,5.9-14.2,12.6-21,17-14.9,9.8-60.2,30.6-69.2,34-8.5,3.2-28.7,19.7-33.6,27.6-5.3,8.4-49.7,81.8-50.5,83.1-.5.8-1.4,1.1-2.3.7"/>
      <path class="cls-3" d="M479.1,835.6c-.8-.4-1.3-1.3-.9-2.2,1.5-4.3,17.9-54.5,27.2-70.8.5-.8,1.6-1.1,2.4-.7.8.5,1.1,1.6.7,2.4-9.2,16-26.5,69.1-26.9,70.2-.3.9-1.3,1.4-2.2,1.1h-.1"/>
      <path class="cls-3" d="M565.1,692.4c-.3,0-.6-.4-.8-.7-.5-.8-.2-1.9.7-2.4.2,0,23-13,43.1-26.1,23.9-15.6,29.3-23.2,28.5-29.1-4.2,1.7-16.9,9.2-28.2,16.3-.8.5-1.9.3-2.4-.6-.5-.8-.3-1.9.6-2.4,29-18.1,31.1-17.4,32-17,.5.2,1,.7,1.2,1.3,2.8,9.3-5.2,18.6-29.7,34.5-20.3,13.2-43.1,26.1-43.3,26.2-.5.3-1.1.3-1.6,0"/>
      <path class="cls-3" d="M542.6,675c-.3,0-.5-.3-.7-.5-.6-.8-.4-1.9.3-2.5.4-.3,37-28.4,45.4-37.6.2-.3.5-.4.9-.5.3,0,3-.7,4.5,1.3,1.6,2.1.7,5.8-2.7,11.5-.5.8-1.6,1.1-2.4.6-.8-.5-1.1-1.6-.6-2.4,3.7-6.2,2.9-7.6,2.9-7.6h-.4c-9.4,9.9-44,36.4-45.4,37.6-.5.4-1.2.5-1.8.2"/>
      <path class="cls-3" d="M540.3,734.6c-5-2.2-8.6-5-10.6-7.6-1.3-1.7-1.9-3.5-1.6-5,.8-4.7,11-4.3,34.1-2.7,4,.3,8.2.5,12.4.8,2.1,0,4.8,0,5.6-1.9,1.3-2.8-1.5-8.8-4.9-12.6-3.5-3.9-9.5-6.5-14-7.9-.9-.2-1.4-1.3-1.1-2.2.3-.9,1.3-1.4,2.2-1.1,4.8,1.6,11.5,4.5,15.5,8.9,3.5,3.9,7.9,11.5,5.5,16.5-.9,1.9-3.2,4.2-9,3.9-4.2-.2-8.4-.5-12.5-.8-12.8-.8-28.7-1.9-30.5,0,0,.2.3,1,1.1,2,2.8,3.8,10.5,8.4,20.9,9.7,1.9.2,3.8.5,5.6.7,12.2,1.4,22.8,2.6,31.2,11.5,8.5,9.1,23.5,9.8,23.6,9.8,11.5,0,14.8-3,14.9-3,.7-.7,1.8-.7,2.5,0s.7,1.8,0,2.4c-.4.4-4.3,4.1-17.5,4-.7,0-16.6-.8-26.1-10.9-7.5-8-17-9-29-10.4-1.8-.2-3.7-.4-5.6-.7-4.8-.6-9.1-1.9-12.7-3.5"/>
      <path class="cls-3" d="M699.1,814.6c-.4-.2-.7-.5-.9-.8-19.2-40.1-51.6-98.7-55.9-103.7-6.8-7.9-33.1-19-58-28.8-.8-.4-1.3-1.4-1-2.3.4-.9,1.4-1.4,2.3-1,36.3,14.4,53.5,23,59.4,29.8,4.9,5.6,38.2,66.4,56.4,104.4.4.9,0,1.9-.8,2.4-.5.2-1,.2-1.5,0"/>
      <path class="cls-3" d="M641.7,836.8c-.5-.2-.8-.6-1-1.1l-22.4-77.3c-.3-.9.3-1.9,1.2-2.2s1.9.3,2.2,1.2l22.4,77.3c.3.9-.3,1.9-1.2,2.2h-1.2"/>
      <path class="cls-3" d="M553.5,712c-.4-.2-.8-.5-.9-1-.3-.9.2-1.9,1.1-2.2.6-.2,15.1-5.2,24.7-4.2,1,0,1.7,1,1.6,1.9,0,1-1,1.7-1.9,1.6-8.8-.9-23,4-23.2,4-.4.2-.9,0-1.3,0"/>
      <path class="cls-3" d="M558.2,722.4c-.5-.2-.9-.7-1-1.2-.2-1,.4-1.9,1.3-2.1,16.5-3.6,23-3.6,23.3-3.6,1,0,1.7.8,1.7,1.8s-.8,1.8-1.8,1.7c0,0-6.5,0-22.5,3.6h-1.1"/>
      <line class="cls-8" x1="550.2" y1="758.6" x2="537.7" y2="742.1"/>
      <polyline class="cls-8" points="544.1 745.1 536.2 740.4 539.2 748.8"/>
    </g>
  </g>
  <path class="cls-1" d="M200.3,5.9c-4.6,1.3-8.1,4.3-10.6,8.9-.4.8-.8,1.3-1,1.5-.2.4-.3.6-.3.9s-.2.8-.6,1.6c-.4.9-.6,1.4-.6,1.7s-.1.7-.3,1.3c-.5,1.4-.4,3,.4,4.8.8,1.8,1.9,2.9,3.2,3.6,1.9.9,3.6.7,5.4-.6,1.7-1.2,2.6-2.9,2.6-5s.6-2,1.5-3.5,1.9-2.5,2.9-3.1c.9-.6,1.9-.8,2.9-.6,1,.1,1.8.6,2.2,1.3.2.6.5,1.1.8,1.5.6.8.9,3,.9,6.7s-.3,5.9-.9,6.8c-.3.4-.5,1.1-.8,2.1-.2,1-.4,1.6-.6,1.8-.2.2-.4.6-.6,1.3-.3.6-.4,1.1-.6,1.3-.2.2-.5.6-.8,1.3-.4,1-1.2,2.3-2.2,4-1.1,1.6-1.8,2.6-2.1,2.9-.1,0-.3.3-.5.8-.4.7-1.9,2.5-4.3,5.4-.9,1-1.7,2-2.6,3-.7,1-2.2,2.7-4.4,5-1.9,1.9-2.8,4-2.7,6.3,0,2.2,1.1,4,3.1,5.3,1.8,1.1,4.4,1.7,7.8,1.7s2.5,0,3.3.3c.8.2,3.9.4,9.3.4h7.4c.8,0,1.6-.2,2.4-.6,2-.9,3.2-2.3,3.8-4.2.5-1.9,0-3.6-1.3-5.1-.9-1.1-1.8-1.7-2.6-1.8-.8,0-3.4-.2-7.7-.3-5.1,0-7.8-.2-7.8-.3-.2-.2.1-.8,1.1-1.8.6-.7,1-1.2,1-1.3s.1-.3.3-.4c.1,0,.4-.4.8-1,.2-.6.8-1.4,1.6-2.4.9-1,1.3-1.6,1.3-1.8s.4-.7,1.1-1.4c.6-.8,1.1-1.4,1.4-1.9.1-.4.4-.7.6-1.1.3-.4.6-.9,1-1.6,0,0,.2-.5.5-1s.5-.8.6-1c.5-.9.9-1.5,1.1-1.9.4-.8.8-1.4,1-1.8.3-.6.4-1,.4-1.3s.2-.8.6-1.6c.4-.7.6-1.2.6-1.5s.1-.9.4-1.5c.7-1.6,1.1-3.4,1.1-5.4s.2-1.9.5-2.6c.4-.8.6-2,.6-3.8s-.2-3-.6-3.8c-.4-.7-.6-1.7-.6-2.8s-.3-2.2-.6-3.2c-.4-.8-.6-1.5-.8-2,0-.4-.3-.9-.6-1.3-.4-.6-.8-1.1-1-1.5-.4-.8-1.3-1.8-2.7-3.1-1.5-1.2-2.7-2-3.6-2.3-.7-.3-1.3-.5-1.6-.8-.6-.3-1.9-.4-4.1-.3-2.2,0-3.9.3-5.2.6"/>
  <rect class="cls-2" x="1.6" y="1.5" width="407.7" height="466.8"/>
</svg>