<?xml version="1.0" encoding="UTF-8"?>
<svg id="_레이어_4" data-name=" 레이어 4" xmlns="http://www.w3.org/2000/svg" xmlns:xlink="http://www.w3.org/1999/xlink" version="1.1" viewBox="0 0 410.4 469">
  <defs>
    <style>
      .cls-1 {
        fill: #6368af;
      }

      .cls-1, .cls-2, .cls-3, .cls-4, .cls-5 {
        stroke-width: 0px;
      }

      .cls-6 {
        clip-path: url(#clippath);
      }

      .cls-2, .cls-7, .cls-8, .cls-9 {
        fill: none;
      }

      .cls-7, .cls-8 {
        stroke-width: 2.9px;
      }

      .cls-7, .cls-8, .cls-9 {
        stroke-linecap: round;
        stroke-linejoin: round;
      }

      .cls-7, .cls-9 {
        stroke: #040000;
      }

      .cls-3 {
        fill: #040000;
      }

      .cls-4 {
        fill: #f7ebed;
      }

      .cls-5 {
        fill: #fff;
      }

      .cls-8 {
        stroke: #cd4873;
      }

      .cls-9 {
        stroke-width: 3px;
      }
    </style>
    <clipPath id="clippath">
      <rect class="cls-2" x="-17.4" y="42.1" width="432.6" height="425.6"/>
    </clipPath>
  </defs>
  <g class="cls-6">
    <g>
      <path class="cls-4" d="M238.5,693c0-69.4-56.2-125.6-125.6-125.6s-125.6,56.2-125.6,125.6,5.6,42.3,15.3,60.2l15.1-26.6,26.3-24.3,43.9-19.5,10.8-7.1,39.3-34,4,.5s-1.3,6.7-1.3,7.2,20.1-15.9,20.1-15.9l5.7-1.7,1.5,5.5-3.3,7.6-2.2,7.5,25.8-13.9.8,1.9-1.5,8.5-10.5,11.2-23.3,15.6-19.2,10.8,14.4,6.7,46.6,23.8,23.1,43.7c12.4-19.5,19.7-42.7,19.7-67.5"/>
      <path class="cls-4" d="M-428.7,380c47.2-53,42.4-134.3-10.6-181.4-19-16.9-41.6-27.1-64.9-30.8-.9-.1,1.1,8.8.4,19.2-.9,13.4-4.4,29.2-4.4,29.2,5.9.5,10.9,8.6,15.5,21.2l11.3,52.3s-6.1,46.2-6.3,70.6c15.2,14.4,27,46.6,37.2,39.3,7.8-5.5,15.2-12.1,21.8-19.6"/>
      <path class="cls-7" d="M-511.6,152.2s-4.4,13.4,4,13.1"/>
      <path class="cls-7" d="M-564.8,176.2s0,14.1,8,11.1"/>
      <path class="cls-7" d="M-539.5,169.3s-1.3,14.6,6.6,11.5"/>
      <path class="cls-7" d="M-592.3,253.3s8,11.7-.2,13.7"/>
      <path class="cls-7" d="M-548.6,95.6s1.5,12.9-6,11.4"/>
      <path class="cls-7" d="M-576.2,84.5s1.5,12.9-6,11.4"/>
      <path class="cls-7" d="M-599.3,105.7s1.5,12.9-6,11.4"/>
      <path class="cls-7" d="M-625.5,138.4s2.1,12.8-5.5,11.6"/>
      <path class="cls-7" d="M-525.3,186.5l1.2-6.8s.4-20.4,9.4-29.6c3.3-3.3,9-1.1,9.2,3.6l1.6,33.7-3.3,21.4"/>
      <path class="cls-7" d="M-627.2,199.8s8.9,38.2,9,40.3c0,2.1,5.6,35.1,10.5,43.7l-28.7,72.5"/>
      <path class="cls-7" d="M-545.1,164l-1.2-18.8s5.6-34.4,0-47.8c-.8-1.8-2.5-3.2-4.5-3.1-2.1,0-4.6,1.7-5.2,8.4-1.1,12.3-7.2,40.2-7.2,40.2,0,0-.9,29.7-.3,29.8"/>
      <path class="cls-7" d="M-568.1,174l-2.7-23.5v-25s1.5-17.5.9-29.6c-.3-5.7-2.2-9.5-4-11.9-1.9-2.5-5.8-1.8-6.9,1.1-1.3,3.4-2.6,9-3.5,18.5-1.9,20.6-3,30.6-3,30.6l-.6,61.5"/>
      <path class="cls-7" d="M-588.8,182.8l-7.4-36.4,1-22.3c.9-8.7-1.1-14.7-3.1-18.4-1.2-2.2-4.4-1.9-5.3.4-1.2,3.5-2.8,9.2-4.5,18.3-3.4,18.6-3.1,31.7-3.1,31.7l4.2,51.4"/>
      <path class="cls-7" d="M-609.8,197.4s-8.3-22.2-8.7-22.8c-.4-.7,0-9.8-1.3-21.5-.7-6.7-3.2-11.4-5.3-14.2-1.1-1.4-3.3-1-3.7.8-1.2,5.7-3.3,16.3-3.3,19.5s-1,10-1,10l5.2,27.9"/>
      <path class="cls-7" d="M-591.1,273l-4.1-19.4c0-.2,12.1-12.4,25,28,2.4,7.5,5.6,18.8,12.4,23.3,8.4,5.5,10.4-18.1,10.9-29.9l-5-46.1c-1.7-3.5-15.4-31.3-16.7-34.4-5.2-12.3,1.5-24.9,6-18.6l23.1,32.5c-3.4-11.4-5.6-18-6.4-22.3-.7-3.8-3.4-14.1,6.1-18.6,1.4-.7,4,5.7,5.2,8.2l7.2,15.8c-.2-2.6.4-3.5,1-4.1.8-.8,1.9-1,3-.5,1.7.6,5.5,2.1,14.8,29.4.1,0,.2-.1.4-.2,1-.5,3.7-1.8,11,8.9,7.4,10.3,15.3,58.8,14.8,70.4l-4.9,61.2"/>
      <path class="cls-7" d="M-540.8,378.6c-.5-1.3-7.7-15.9-13.8-22.7-12.2-13.6-19.2-22.5-21.2-28.4"/>
      <path class="cls-7" d="M-539.5,208.5s16.6,30.4,12.5,64"/>
      <polyline class="cls-7" points="-527.4 191.6 -514.2 231 -508.3 258.9"/>
      <path class="cls-7" d="M-508.3,216.1s12.3,32.8,12.4,41.5"/>
      <line class="cls-7" x1="-537.8" y1="385.2" x2="-516.3" y2="431.3"/>
      <path class="cls-7" d="M-591.9,280.9s9.1,33.8,12,36.4"/>
      <line class="cls-7" x1="-485.3" y1="360.2" x2="-462.9" y2="393"/>
      <line class="cls-7" x1="-558.6" y1="355.7" x2="-571.5" y2="403.9"/>
      <path class="cls-8" d="M-599.2,280.9c-16,10.8-28.4-13.9-28.4-13.9,0,0-11.6-22.8,16.5-36.9,0,0,31.2-16.5,43.1,6.8,10.2,20.1,0,25.2,0,25.2"/>
      <polyline class="cls-8" points="-567.8 252.9 -571.2 266.2 -560.6 261"/>
      <path class="cls-4" d="M-206.6,413.9c57.5-9.9,101.2-59.9,101.2-120.2s-37.4-102.7-88.4-117.3l1.4,9.9-2,38.9v12.4l-5.7,25.7-7.7,20.9-4.6,4.8,7.3,33.5,3.4,28.1-4.6,58.6-.4,4.8h.1Z"/>
      <line class="cls-7" x1="-218.6" y1="301.4" x2="-231.4" y2="376.5"/>
      <path class="cls-5" d="M-220.5,237.6l-11.8-48.9-6.3-38.4s2.2-34.8-4.8-47.5c-1-1.7-2.8-2.9-4.8-2.6-2.1.3-4.4,2.2-4.3,8.9.2,12.4-3.2,40.6-3.2,40.6,0,0,3.7,44.3,4.3,44.3"/>
      <path class="cls-7" d="M-220.5,237.6l-11.8-48.9-6.3-38.4s2.2-34.8-4.8-47.5c-1-1.7-2.8-2.9-4.8-2.6-2.1.3-4.4,2.2-4.3,8.9.2,12.4-3.2,40.6-3.2,40.6,0,0,3.7,44.3,4.3,44.3"/>
      <path class="cls-5" d="M-254.6,193.6l-7.8-36.2-2.3-24.9s-.3-17.6-2.1-29.5c-.9-5.6-3.1-9.2-5.2-11.4-2.1-2.3-6-1.3-6.8,1.7-.9,3.5-1.8,9.2-1.7,18.7.2,20.6,0,30.7,0,30.7l5.4,61.3"/>
      <path class="cls-7" d="M-254.6,193.6l-7.8-36.2-2.3-24.9s-.3-17.6-2.1-29.5c-.9-5.6-3.1-9.2-5.2-11.4-2.1-2.3-6-1.3-6.8,1.7-.9,3.5-1.8,9.2-1.7,18.7.2,20.6,0,30.7,0,30.7l5.4,61.3"/>
      <path class="cls-5" d="M-277.2,191.3l-10.8-35.5-1.2-22.3c0-8.8-2.6-14.6-4.8-18-1.4-2.1-4.6-1.5-5.2.9-.9,3.6-1.9,9.4-2.7,18.6-1.5,18.8,0,31.8,0,31.8l9.2,50.7"/>
      <path class="cls-7" d="M-277.2,191.3l-10.8-35.5-1.2-22.3c0-8.8-2.6-14.6-4.8-18-1.4-2.1-4.6-1.5-5.2.9-.9,3.6-1.9,9.4-2.7,18.6-1.5,18.8,0,31.8,0,31.8l9.2,50.7"/>
      <path class="cls-5" d="M-296.6,207.8s-10.4-21.2-10.9-21.9c-.5-.6-1.1-9.8-3.4-21.2-1.3-6.6-4.3-11.1-6.6-13.6-1.2-1.3-3.4-.6-3.6,1.1-.6,5.8-1.7,16.5-1.4,19.7.5,4.4,0,10.1,0,10.1l7.9,27.2"/>
      <path class="cls-7" d="M-296.6,207.8s-10.4-21.2-10.9-21.9c-.5-.6-1.1-9.8-3.4-21.2-1.3-6.6-4.3-11.1-6.6-13.6-1.2-1.3-3.4-.6-3.6,1.1-.6,5.8-1.7,16.5-1.4,19.7.5,4.4,0,10.1,0,10.1l7.9,27.2"/>
      <path class="cls-5" d="M-203.3,153.4s-3.1,13.8,5.3,12.6"/>
      <path class="cls-7" d="M-203.3,153.4s-3.1,13.8,5.3,12.6"/>
      <path class="cls-5" d="M-245.6,100.6s2.8,12.7-4.8,11.9"/>
      <path class="cls-7" d="M-245.6,100.6s2.8,12.7-4.8,11.9"/>
      <path class="cls-5" d="M-274.2,92.3s2.8,12.7-4.8,11.9"/>
      <path class="cls-7" d="M-274.2,92.3s2.8,12.7-4.8,11.9"/>
      <path class="cls-5" d="M-295.1,115.6s2.8,12.7-4.8,11.9"/>
      <path class="cls-7" d="M-295.1,115.6s2.8,12.7-4.8,11.9"/>
      <path class="cls-5" d="M-317.9,150.7s3.3,12.5-4.3,12.1"/>
      <path class="cls-7" d="M-317.9,150.7s3.3,12.5-4.3,12.1"/>
      <path class="cls-5" d="M-196,161.9l3.7,25.7-2.3,39.9s.3,44.1-24.1,71.3"/>
      <path class="cls-7" d="M-196,161.9l3.7,25.7-2.3,39.9s.3,44.1-24.1,71.3"/>
      <line class="cls-2" x1="-197.1" y1="154.2" x2="-196" y2="161.9"/>
      <line class="cls-7" x1="-197.1" y1="154.2" x2="-196" y2="161.9"/>
      <path class="cls-5" d="M-207.8,153.2c.4-.6.8-1.1,1.2-1.7,2.9-3.6,8.8-1.9,9.5,2.7"/>
      <path class="cls-7" d="M-207.8,153.2c.4-.6.8-1.1,1.2-1.7,2.9-3.6,8.8-1.9,9.5,2.7"/>
      <path class="cls-5" d="M-207.8,153.2c-6.7,10.4-5.3,28.7-5.3,28.7l-1.4,17s-7.8,29.8-7.8,30.5"/>
      <path class="cls-7" d="M-207.8,153.2c-6.7,10.4-5.3,28.7-5.3,28.7l-1.4,17s-7.8,29.8-7.8,30.5"/>
      <path class="cls-5" d="M-313.7,211.9s12.6,37.1,12.8,39.2,8.9,34.4,14.7,42.4l-8.4,28.9"/>
      <path class="cls-7" d="M-313.7,211.9s12.6,37.1,12.8,39.2,8.9,34.4,14.7,42.4l-8.4,28.9"/>
      <path class="cls-5" d="M-310.2,330.6l-4.1-19.4c0-.2,12.1-12.4,25.1,28,2.4,7.5,5.6,18.8,12.4,23.3,8.4,5.5,10.4-18.1,10.9-29.9l-5-46.1c-1.7-3.5-15.4-31.3-16.7-34.4-5.2-12.3,1.5-24.9,6-18.6l23.1,32.5c-3.4-11.4-5.6-18-6.4-22.3-.7-3.8-3.4-14.1,6.1-18.6,1.4-.7,4,5.7,5.2,8.2l7.2,15.8c-.2-2.6.4-3.5,1-4.1s1.9-1,3-.5c1.7.6,5.5,2.1,14.8,29.4.1,0,.2-.1.4-.2,1-.5,3.7-1.8,11,8.9,7.4,10.3,15.3,58.8,14.8,70.4l-4.9,61.2"/>
      <path class="cls-7" d="M-310.2,330.6l-4.1-19.4c0-.2,12.1-12.4,25.1,28,2.4,7.5,5.6,18.8,12.4,23.3,8.4,5.5,10.4-18.1,10.9-29.9l-5-46.1c-1.7-3.5-15.4-31.3-16.7-34.4-5.2-12.3,1.5-24.9,6-18.6l23.1,32.5c-3.4-11.4-5.6-18-6.4-22.3-.7-3.8-3.4-14.1,6.1-18.6,1.4-.7,4,5.7,5.2,8.2l7.2,15.8c-.2-2.6.4-3.5,1-4.1s1.9-1,3-.5c1.7.6,5.5,2.1,14.8,29.4.1,0,.2-.1.4-.2,1-.5,3.7-1.8,11,8.9,7.4,10.3,15.3,58.8,14.8,70.4l-4.9,61.2"/>
      <path class="cls-5" d="M-259.9,436.3c-.5-1.3-7.7-15.9-13.8-22.7-12.2-13.6-19.2-22.5-21.2-28.4"/>
      <path class="cls-7" d="M-259.9,436.3c-.5-1.3-7.7-15.9-13.8-22.7-12.2-13.6-19.2-22.5-21.2-28.4"/>
      <path class="cls-5" d="M-258.6,266.2s16.6,30.4,12.5,64"/>
      <path class="cls-7" d="M-258.6,266.2s16.6,30.4,12.5,64"/>
      <polyline class="cls-5" points="-246.4 249.3 -233.3 288.7 -227.4 316.6"/>
      <polyline class="cls-7" points="-246.4 249.3 -233.3 288.7 -227.4 316.6"/>
      <path class="cls-5" d="M-227.3,273.8s12.3,32.8,12.4,41.5"/>
      <path class="cls-7" d="M-227.3,273.8s12.3,32.8,12.4,41.5"/>
      <path class="cls-5" d="M-283.9,233.8s.1,14.1,8,11.1"/>
      <path class="cls-7" d="M-283.9,233.8s.1,14.1,8,11.1"/>
      <path class="cls-5" d="M-258.6,226.9s-1.3,14.6,6.6,11.5"/>
      <path class="cls-7" d="M-258.6,226.9s-1.3,14.6,6.6,11.5"/>
      <path class="cls-5" d="M-311.4,311s8,11.7-.2,13.7"/>
      <path class="cls-7" d="M-311.4,311s8,11.7-.2,13.7"/>
      <line class="cls-2" x1="-256.8" y1="442.9" x2="-246.1" y2="465.9"/>
      <line class="cls-7" x1="-256.8" y1="442.9" x2="-246.1" y2="465.9"/>
      <path class="cls-5" d="M-310.9,338.5s9.1,33.8,12,36.4"/>
      <path class="cls-7" d="M-310.9,338.5s9.1,33.8,12,36.4"/>
      <line class="cls-2" x1="-204.3" y1="417.9" x2="-182" y2="450.7"/>
      <line class="cls-7" x1="-204.3" y1="417.9" x2="-182" y2="450.7"/>
      <line class="cls-8" x1="-232.8" y1="242.7" x2="-241.9" y2="214.9"/>
      <polyline class="cls-8" points="-232.8 223.7 -243.4 211.2 -243.2 227.1"/>
      <line class="cls-8" x1="-273.7" y1="233.3" x2="-282.8" y2="205.5"/>
      <polyline class="cls-8" points="-273.7 214.4 -284.3 201.8 -284.1 217.7"/>
      <line class="cls-8" x1="-305.6" y1="270.4" x2="-314.7" y2="242.6"/>
      <polyline class="cls-8" points="-305.6 251.4 -316.2 238.9 -316 254.8"/>
      <path class="cls-4" d="M187.3,136.7c-69.6,0-126.1,56.4-126.1,126.1s.7,15.7,2.1,23.2l16.2-24.4,14.9-28.3,14.4-29.3,9.7-9.1,14-12.2,3.1-.6v5.4l-4.3,11.6-11.7,17-7,23.3,13.5-16.8,12.5-18.6,18.4-17.9,15.3-10.8,2.3,1.2-2.3,11.1-16.4,19.9-5,7.5-12.4,25.2,22.8-25.2,31.2-32.7,12-6.9,2,4.9-3.3,10.7-27.9,34.1s-21.2,32.6-24.3,37.8c-3.1,5.2,4.9,6.7,4.9,6.7l22.3-13.6,30.3-4.4,7.1-.9,7-5.9,20.8,3.6,22.2,4.6,18.5,10,26.3,26.6c1.8-8.6,2.8-17.5,2.8-26.6,0-69.6-56.4-126.1-126.1-126.1"/>
      <path class="cls-5" d="M267.6,320.2c-8.5.3-21.3,2-33.4-3.4-14.2-6.3-17.8-8.1-25.7-7.8,0,0-8.4-.2-12,4.9-2.8,4,8.2,10.7,8.2,10.7l23.8,13.7,22.2,15c1.4,1.6,22.8,20.1,58,15"/>
      <path class="cls-7" d="M267.6,320.2c-8.5.3-21.3,2-33.4-3.4-14.2-6.3-17.8-8.1-25.7-7.8,0,0-8.4-.2-12,4.9-2.8,4,8.2,10.7,8.2,10.7l23.8,13.7,22.2,15c1.4,1.6,22.8,20.1,58,15"/>
      <line class="cls-2" x1="314.9" y1="373.7" x2="378.2" y2="398.1"/>
      <line class="cls-7" x1="314.9" y1="373.7" x2="378.2" y2="398.1"/>
      <line class="cls-2" x1="356.6" y1="332" x2="407.5" y2="336.2"/>
      <line class="cls-7" x1="356.6" y1="332" x2="407.5" y2="336.2"/>
      <path class="cls-5" d="M215.8,250.5s1.8-3.4,7-5.9c1.4-.7,37,7,42.9,8.2,0,0,13.2,5,20.4,12.2,22.6,22.6,66.5,65.6,66.5,65.6"/>
      <path class="cls-7" d="M215.8,250.5s1.8-3.4,7-5.9c1.4-.7,37,7,42.9,8.2,0,0,13.2,5,20.4,12.2,22.6,22.6,66.5,65.6,66.5,65.6"/>
      <path class="cls-5" d="M267.8,317.2c9.7-7.8-2.9-16.7-5.1-18.8-.7-.6-4.8-2.4-10.3-4.7l-7.6-3.8-26.5-8c-.3,3.8,21.4,7.6,23.4,13.8,3.3,10.1-7.9,16.2-18.6,12.6,0,0-34-6-27.4-21.2,3.4-7.8,4-12.6,6.2-19.3,1.3-4.2,6.3-6.2,10.8-6.1,5.3,0,43.4,5.6,45.8,6.2"/>
      <path class="cls-7" d="M267.8,317.2c9.7-7.8-2.9-16.7-5.1-18.8-.7-.6-4.8-2.4-10.3-4.7l-7.6-3.8-26.5-8c-.3,3.8,21.4,7.6,23.4,13.8,3.3,10.1-7.9,16.2-18.6,12.6,0,0-34-6-27.4-21.2,3.4-7.8,4-12.6,6.2-19.3,1.3-4.2,6.3-6.2,10.8-6.1,5.3,0,43.4,5.6,45.8,6.2"/>
      <path class="cls-7" d="M204.8,179s-6.5,10.7-11.2,4.2"/>
      <path class="cls-7" d="M174.8,178.3s-6.5,10.7-11.2,4.2"/>
      <path class="cls-7" d="M135.7,184.2s-6,11.1-11,4.8"/>
      <path class="cls-7" d="M96,359.5c36.1,5.8,67.6-20.6,67.6-20.6l18.5-14.3s27.2-15.4,13.8-23.3c0,0-3.6-6.1-28.1,11.1-9.5,6.7-24.6,6.2-24.9,6.3"/>
      <line class="cls-7" x1="92.2" y1="359.7" x2="26.4" y2="398.1"/>
      <path class="cls-7" d="M96,230.5s-16.6,32.4-18,33.9-20.6,28.9-23.1,38.5l-49.7,21.9"/>
      <path class="cls-7" d="M156.2,269.4c3.7-2.6,15.3-9.6,22.3-13.6l26.6-3.8s11.8-3.1,33.4,4.8c0,0,5.7,1.5,5,8.9"/>
      <path class="cls-7" d="M138.8,317l32.8-26.3s12.4-11.2,28-14.8"/>
      <path class="cls-7" d="M151.2,262.8l18.6-30.6,14.9-18.6s11.4-12.1,18.1-21.6c3.1-4.5,4-8.6,4-11.8s-3.3-5.5-5.8-4.1c-2.9,1.6-7.3,4.9-13.6,11.3-13.6,14.1-20.4,20.8-20.4,20.8l-36.9,45.6"/>
      <path class="cls-7" d="M137.1,243.5l16-32.5,13.9-16c5.8-5.9,7.9-11.8,8.6-16,.4-2.5-2.2-4.6-4.2-3.4-3,1.7-7.5,4.8-14.2,10.5-13.5,11.5-21.1,21.5-21.1,21.5l-27.2,41.5"/>
      <path class="cls-7" d="M112.7,239.4s6.9-22.5,7-23.3c0-.8,5.7-7.4,11.7-17,3.5-5.5,4.4-10.9,4.4-14.4s-1.9-3.1-3.3-2c-4.3,3.4-12.1,9.8-14,12.2-2.6,3.4-6.7,6.8-6.7,6.8l-12.6,24.5"/>
      <path class="cls-8" d="M187.6,233.3s18.7-19,51.7-3.7"/>
      <polyline class="cls-8" points="232.9 231.3 244.1 231.7 235.9 221.6"/>
      <path class="cls-4" d="M778.6,266.4c-12.8-57.3-64-100.2-125.2-100.2s-128.3,57.4-128.3,128.3.5,13.1,1.5,19.4l2.6-2,6.9-3,12.5,2h9l-9.8-6.4,5.4-4.3,7.8-1,10.6,3.3,15.8,6.4,16.6-3.2,9.7-4.5-30.3-4.8-24.6-14-10.1-7.5,1.9-3.7,4.7-1.8,2.9-3.9,2.3-5.1,9.1-4.7,15.2-.4,5.6-4.7h10.6l18.6,1.6,19.8-1,51.4,3,18.8,8.3,15,8.5,26.4-3.6,27.4-1.2.2.2h0Z"/>
      <path class="cls-9" d="M615.3,357s7.3-19.5,24.2-23.1"/>
      <path class="cls-9" d="M627.3,389.1c-3.6,1.7-18.6,2-23.8,2.8-1.6.3-9.3.2-10.9-.3l-37.3-11.8s-.4-15.1,27.2-9.5c4.9,1,19.8-1.5,26.5-7"/>
      <path class="cls-9" d="M809.7,351.9l-133.6,3.9s-42.7,30-47,33"/>
      <path class="cls-9" d="M556.9,374.7s-6.5-.6-14.6-2.5c-4.9-1.2-10.5-2.9-15.5-5.2-12.3-5.8-24.1-10.2-19.5-13.7.5-.4,3-7.7,17.1-3.3l27.3,8.8,28.5-1.2"/>
      <path class="cls-9" d="M519.1,340c-7.8-2.5-13-4.7-10-7.6.5-.4,2.2-8,16.6-5.5l29.2,9.6,32.5-1.5"/>
      <path class="cls-9" d="M517.3,325.6c.5-.4,2.2-8,16.6-5.5l28,5.1,28.6-4.9"/>
      <path class="cls-9" d="M527.3,314.2c1.3-2.2,5-6,15.9-4.2l28,5.1,32.9-8.3"/>
      <path class="cls-9" d="M610,304.6c15.6-4.6,25.2-11.1,35.6-12.8,4.7-.8,9.6-.3,14.1,1.5l13.1,6.4,23.9-5.1"/>
      <polyline class="cls-9" points="521 341.4 546.6 352.3 579.7 358"/>
      <path class="cls-5" d="M797.2,331s-23.7-.9-81.1,1.6"/>
      <path class="cls-9" d="M797.2,331s-23.7-.9-81.1,1.6"/>
      <path class="cls-5" d="M640.6,329c-9.9,8.3-24.2,15-29.4,24.9-6.2,12-.5,15.4-.5,15.4l30-16.9,26.6-10.3c2.2-.6,29.6-4.7,42.4-7.7"/>
      <path class="cls-9" d="M640.6,329c-9.9,8.3-24.2,15-29.4,24.9-6.2,12-.5,15.4-.5,15.4l30-16.9,26.6-10.3c2.2-.6,29.6-4.7,42.4-7.7"/>
      <path class="cls-5" d="M662.9,324.3c-21.6,7.5-47.4,6-73.7,3.7l-40-21.6s-1.3-4.3,4.1-6.2c13.7-5,22.8,9.3,39.9,7.1,14.5-1.8,23.6-4,34-4.1l-42.4-5.9-36.2-20.6v-1.7c.2-1,.6-2.5,2.1-3.7,1.7-1.4,5-2.5,13-2.1-2.5-.7-3.9-1.1-4-1.1l-1.8-.5.4-2.1c1.9-8.8,10.5-11.9,23.6-8.7.4,0,1,.2,1.7.4l1.3-1.8c5-7.2,19.1-4.2,32.4-3.2,11.9.9,23.2-.7,25.9,0h26.9c10.4.3,18,1.4,23.6,3,0,0,26.5,12.1,31,16.1,18.4-4.3,26.6-3.5,62.2-5.2"/>
      <path class="cls-9" d="M662.9,324.3c-21.6,7.5-47.4,6-73.7,3.7l-40-21.6s-1.3-4.3,4.1-6.2c13.7-5,22.8,9.3,39.9,7.1,14.5-1.8,23.6-4,34-4.1l-42.4-5.9-36.2-20.6v-1.7c.2-1,.6-2.5,2.1-3.7,1.7-1.4,5-2.5,13-2.1-2.5-.7-3.9-1.1-4-1.1l-1.8-.5.4-2.1c1.9-8.8,10.5-11.9,23.6-8.7.4,0,1,.2,1.7.4l1.3-1.8c5-7.2,19.1-4.2,32.4-3.2,11.9.9,23.2-.7,25.9,0h26.9c10.4.3,18,1.4,23.6,3,0,0,26.5,12.1,31,16.1,18.4-4.3,26.6-3.5,62.2-5.2"/>
      <polyline class="cls-5" points="567.1 269.6 591.6 282.4 630.2 286.5"/>
      <polyline class="cls-9" points="567.1 269.6 591.6 282.4 630.2 286.5"/>
      <polyline class="cls-5" points="583.8 257.1 602.7 265.2 632.4 269.6"/>
      <polyline class="cls-9" points="583.8 257.1 602.7 265.2 632.4 269.6"/>
      <line class="cls-8" x1="680.5" y1="219.6" x2="626.4" y2="223.9"/>
      <polyline class="cls-8" points="637.1 217.1 622.5 224.5 638 228"/>
      <path class="cls-3" d="M52,774.5c-3.4-1.5-4.7-3.2-4.9-3.4-.6-.8-.5-1.9.3-2.5s1.9-.5,2.5.3c0,0,1.3,1.5,4.8,2.8,11.6,4.1,23.8,2.8,34.5,1.6,1.8-.2,3.6-.4,5.3-.6,12.7-1.2,25.2,3.8,33.6,7.5,2.3,1.1,4.6,2.5,6.5,3.8,2.4,1.6,5.4,3.6,6.5,3.1.2,0,1.1-.7,1.6-4.1,1.2-7.9-18.1-21.9-28.5-29.3-3.7-2.6-6.5-4.7-8.2-6.2-.7-.7-.8-1.8,0-2.6.7-.7,1.8-.8,2.6,0,1.5,1.4,4.5,3.5,7.9,6,16.6,12,31.3,23.5,29.9,32.8-.4,2.4-1.1,5.7-3.7,6.9-2.9,1.3-6.2-.9-10-3.3-1.9-1.3-4-2.6-6-3.6-8-3.6-19.9-8.3-31.7-7.2-1.7.2-3.5.4-5.3.6-11.1,1.2-23.8,2.6-36.1-1.8-.6-.2-1.1-.4-1.6-.6"/>
      <path class="cls-3" d="M-34.1,814.1h-.2c-.9-.5-1.2-1.6-.7-2.5,3.1-5.4,46.4-76.8,51.9-85.5,5.5-8.8,26.9-26.3,36.3-29.8,8.9-3.3,55.6-24.8,70.3-34.5,6.7-4.4,14.4-11.2,21.1-17.2,10-8.9,16.3-14.3,20.4-14.8,2-.2,3.7.6,4.4,2.3,2.5,5.5-4.1,18.8-13.9,28l-3.7,3.4c-14.6,13.5-44.9,41.5-47.3,55.6-.7,3.7-1.1,6.9-1.2,9.5,0,1-.9,1.8-1.9,1.7-1,0-1.8-.9-1.7-1.9.2-2.8.6-6.1,1.3-10,2.7-15.3,32.5-42.9,48.5-57.7l3.7-3.4c9.9-9.2,14.4-21,13.1-23.8,0-.2-.2-.3-.7-.3-3.1.4-10.9,7.2-18.4,13.9-6.8,6.1-14.6,12.9-21.5,17.5-15.3,10-61.8,31.4-71.1,34.9-8.8,3.3-29.4,20.2-34.5,28.4-5.4,8.6-51.1,84-51.8,85.3-.5.8-1.5,1.1-2.3.8"/>
      <path class="cls-3" d="M25.7,847.4c-.9-.4-1.3-1.4-1-2.3,1.6-4.4,18.3-56,27.9-72.7.5-.9,1.6-1.1,2.5-.7.9.5,1.2,1.6.7,2.5-9.4,16.4-27.3,71-27.6,72.1-.3.9-1.4,1.4-2.3,1.1h-.1"/>
      <path class="cls-3" d="M114,700.3c-.3-.2-.6-.4-.8-.8-.5-.9-.2-2,.7-2.5.2,0,23.6-13.3,44.3-26.8,24.6-16,30.1-23.8,29.3-29.9-4.3,1.8-17.3,9.4-29,16.7-.9.5-2,.3-2.5-.6-.5-.8-.3-2,.6-2.5,29.8-18.6,31.9-17.8,32.8-17.5.5.2,1.1.8,1.2,1.3,2.9,9.5-5.4,19.1-30.4,35.5-20.8,13.5-44.3,26.8-44.5,26.9-.5.3-1.1.3-1.6,0"/>
      <path class="cls-3" d="M90.9,682.5c-.3,0-.5-.3-.7-.6-.6-.8-.5-1.9.3-2.5s38-29.2,46.7-38.6c.2-.3.5-.4.9-.5.3,0,3.1-.7,4.6,1.4,1.6,2.2.8,6-2.7,11.9-.5.9-1.7,1.2-2.5.6-.9-.5-1.1-1.6-.6-2.5,3.8-6.4,3-7.8,2.9-7.8h-.4c-9.6,10.1-45.1,37.4-46.7,38.6-.5.4-1.2.5-1.8.2"/>
      <path class="cls-3" d="M88.5,743.7c-5.1-2.3-8.8-5.2-10.8-7.8-1.3-1.8-1.9-3.6-1.7-5.1.8-4.9,11.3-4.4,35-2.8,4.1.3,8.4.5,12.8.8,2.1,0,4.9,0,5.8-1.9,1.4-2.9-1.5-9-5.1-13s-9.8-6.6-14.3-8.2c-.9-.2-1.5-1.3-1.1-2.3.3-.9,1.3-1.5,2.3-1.1,5,1.7,11.8,4.6,15.9,9.2,3.6,4,8.1,11.8,5.6,16.9-1,2-3.3,4.3-9.2,4-4.4-.2-8.7-.5-12.8-.8-13.1-.9-29.5-1.9-31.3,0,0,.2.3,1,1.1,2.1,2.9,3.9,10.8,8.6,21.5,10,2,.2,3.9.5,5.7.7,12.6,1.4,23.4,2.6,32,11.8,8.8,9.3,24.1,10,24.3,10,11.8,0,15.2-3,15.3-3.1.7-.7,1.8-.7,2.5,0s.7,1.8,0,2.5c-.4.4-4.4,4.2-17.9,4.2s-17.1-.8-26.8-11.2c-7.7-8.2-17.4-9.3-29.8-10.6-1.9-.2-3.8-.4-5.8-.7-5-.6-9.4-1.9-13.1-3.6"/>
      <path class="cls-3" d="M251.6,825.8c-.4-.2-.7-.5-.9-.9-19.8-41.1-53-101.3-57.4-106.4-6.9-8.1-34-19.5-59.6-29.6-.8-.4-1.4-1.4-1-2.3.4-.9,1.4-1.4,2.3-1,37.3,14.8,55,23.6,61,30.6,5,5.8,39.2,68.2,57.9,107.2.4.9,0,2-.8,2.4-.5.2-1.1.2-1.5,0"/>
      <path class="cls-3" d="M192.6,848.6c-.5-.2-.8-.6-1-1.1l-23-79.3c-.3-1,.3-2,1.2-2.2,1-.3,2,.3,2.2,1.2l23,79.3c.3,1-.3,2-1.2,2.2h-1.2"/>
      <path class="cls-3" d="M102.1,720.5c-.4-.2-.8-.6-1-1.1-.3-.9.2-2,1.1-2.3.6-.2,15.5-5.3,25.4-4.3,1,0,1.7,1,1.6,2,0,1-1,1.7-2,1.6-9.1-1-23.7,4.1-23.8,4.1-.5.2-.9,0-1.3,0"/>
      <path class="cls-3" d="M106.9,731.2c-.5-.2-.9-.7-1-1.3-.2-1,.4-1.9,1.4-2.2,16.9-3.7,23.6-3.7,23.9-3.7,1,0,1.8.8,1.8,1.8s-.8,1.8-1.8,1.8c0,0-6.6,0-23.1,3.7h-1.1"/>
      <line class="cls-8" x1="98.7" y1="768.3" x2="85.8" y2="751.4"/>
      <polyline class="cls-8" points="92.5 754.5 84.3 749.7 87.4 758.3"/>
    </g>
  </g>
  <path class="cls-1" d="M202.8,6.2c-.7.2-1.5.4-2.2.5-2,.4-3.7,1.1-5.1,2-.4.2-.8.4-1.2.6-.9.4-1.9,1.6-3.2,3.5-1.6,2.2-1.9,4.5-1,6.9.9,2.4,2.5,3.6,4.9,3.6s2.4-.1,2.9-.3c.5-.2,1.3-.9,2.4-2,1.2-1.4,2-2,2.2-2s.6-.1,1.2-.4c1.9-1,3.6-.7,5,.9s1.6,3.3.4,5.1c-.9,1.3-2.6,2.7-5.3,4.2s-5.1,2.5-7.2,2.9c-2.1.4-3.5,1.8-4.2,4.2-.6,2.4-.2,4.4,1.4,6,.8.9,1.6,1.4,2.6,1.7.9.3,2.6.4,4.9.4s4.2.2,5.1.5c.9.3,2.2,1.3,3.8,2.9,1.9,1.9,3.1,3.5,3.6,5,.6,1.5.6,3.1.2,4.8-.4,1.2-.6,2-.9,2.4-.4.6-.7,1-.9,1.3-1.6,2.7-5,4.1-10.2,4.1s-5.9-.8-6.2-2.4c-.3-1.4-1-2.7-2.2-3.8s-2.5-1.6-3.9-1.6-2.5.3-3.4,1c-2.1,1.6-2.6,4.3-1.6,8,1.1,4.1,3.6,7,7.4,8.9,2,1,3.5,1.6,4.6,1.8,1.1.2,2.9.3,5.5.3s4.7-.3,6.3-.7c1.5-.4,3.5-1.2,5.9-2.4,1.5-.7,3.2-1.9,5-3.4,1.9-1.6,2.8-2.6,2.8-3.1s.2-.5.5-1c.4-.4.6-.9.8-1.4s.5-1,.9-1.5c.4-.6.6-1.5.6-2.5.1-1,.4-1.8.6-2.5.4-.6.6-1.9.6-3.6s0-3-.4-3.5c-.2-.4-.4-1.3-.6-2.6-.2-1.2-.5-2-.8-2.4s-.6-.8-.9-1.4c-.6-1.4-2.2-3.4-5-6.2-1.6-1.7-2.5-2.8-2.7-3.2-.1-.4.2-1.1,1.1-2,.9-.9,1.3-1.4,1.3-1.6s.4-.8,1.2-2.2c.9-1.4,1.4-2.5,1.5-3.5s.4-1.8.6-2.4c.3-.6.4-1.3.4-2.2s-.1-1.6-.4-2.1c-.3-.4-.5-1.1-.5-2.1-.2-2.4-1.4-4.8-3.5-7.2-.5-.5-1.5-1.2-3.1-2.2s-2.9-1.6-4-2c-2.6-.9-5.2-1-7.6-.3"/>
  <rect class="cls-2" x="1.6" y="1.5" width="407.7" height="466.8"/>
</svg>