<?xml version="1.0" encoding="UTF-8"?>
<svg id="_레이어_1" xmlns="http://www.w3.org/2000/svg" version="1.1" viewBox="0 0 55.2 88.4">
  <!-- Generator: Adobe Illustrator 29.0.1, SVG Export Plug-In . SVG Version: 2.1.0 Build 192)  -->
  <defs>
    <style>
      .st0 {
        fill: #e5bb67;
      }

      .st0, .st1, .st2, .st3, .st4, .st5 {
        stroke: #0e0e0e;
        stroke-miterlimit: 10;
        stroke-width: 1.3px;
      }

      .st1 {
        fill: #c68217;
      }

      .st2 {
        fill: #eaa62f;
      }

      .st3, .st4 {
        fill: none;
      }

      .st4 {
        stroke-linecap: round;
      }

      .st6 {
        fill: #ffe7c0;
      }

      .st5 {
        fill: #db9b35;
      }
    </style>
  </defs>
  <path class="st1" d="M34.6,77.8c.8,2.2-.3,4.6-2.5,5.3-2.2.8-4.6-.3-5.4-2.5-.8-2.2.3-4.6,2.5-5.4s4.6.3,5.4,2.5Z"/>
  <path class="st2" d="M20.6,45.5l-3.9,1.4-1.2-3.4c-.4-1.1.2-2.2,1.2-2.6,1.1-.4,2.2.2,2.6,1.2l1.2,3.4ZM17.2,45.9l2.5-.9-1-2.7c-.2-.7-1-1-1.7-.8-.7.2-1,1-.8,1.7l1,2.7Z"/>
  <path class="st0" d="M48.6,67.4l-5.6-4.2c-4-3-7.5-6.8-10-11.2l-2.3-3.8c-2.6-4.5-8.1-6.4-13-4.7-4.9,1.8-7.8,6.8-7,11.9l.7,4.4c.8,5,.7,10.1-.5,15l-1.6,6.8,39.2-14.3Z"/>
  <path class="st6" d="M11.1,55.1l.7,4.4c.8,5,.7,10.1-.5,15l-1.6,6.8,3.3-1.2,1.4-4.9c1.2-5.4,1.4-10.9.5-16.3l-.7-4.4c-.3-2.1.2-4.3,1.5-5.9.5-.6.4-1.5-.1-2.1-.7-.8-1.9-.7-2.5,0-1.8,2.3-2.7,5.3-2.1,8.4Z"/>
  <path class="st3" d="M48.6,67.4l-5.6-4.2c-4-3-7.5-6.8-10-11.2l-2.3-3.8c-2.6-4.5-8.1-6.4-13-4.7-4.9,1.8-7.8,6.8-7,11.9l.7,4.4c.8,5,.7,10.1-.5,15l-1.6,6.8,39.2-14.3Z"/>
  <path class="st3" d="M48.6,67.4l-5.6-4.2c-4-3-7.5-6.8-10-11.2l-2.3-3.8c-2.6-4.5-8.1-6.4-13-4.7-4.9,1.8-7.8,6.8-7,11.9l.7,4.4c.8,5,.7,10.1-.5,15l-1.6,6.8,39.2-14.3Z"/>
  <path class="st5" d="M53.7,70.9L7.7,87.6l.7-6.6c.1-1,.8-1.8,1.7-2.2l36.2-13.2c.9-.3,2-.1,2.7.6l4.7,4.6h0Z"/>
  <path class="st4" d="M17.2,42.4L1.3.6"/>
</svg>