<?xml version="1.0" encoding="UTF-8"?>
<svg id="_레이어_1" xmlns="http://www.w3.org/2000/svg" version="1.1" viewBox="0 0 57.5 89.9">
  <!-- Generator: Adobe Illustrator 29.0.1, SVG Export Plug-In . SVG Version: 2.1.0 Build 192)  -->
  <defs>
    <style>
      .st0 {
        fill: #e5bb67;
      }

      .st0, .st1, .st2, .st3, .st4, .st5 {
        stroke: #0e0e0e;
        stroke-miterlimit: 10;
        stroke-width: 1.3px;
      }

      .st1 {
        fill: #c68217;
      }

      .st2 {
        fill: #eaa62f;
      }

      .st3, .st4 {
        fill: none;
      }

      .st4 {
        stroke-linecap: round;
      }

      .st6 {
        fill: #ffe7c0;
      }

      .st5 {
        fill: #db9b35;
      }
    </style>
  </defs>
  <path class="st1" d="M29.1,81.1c-.8,2.1-3.3,3.2-5.4,2.3-2.1-.8-3.2-3.3-2.3-5.4.9-2.1,3.3-3.2,5.4-2.3,2.1.9,3.2,3.3,2.3,5.4Z"/>
  <path class="st2" d="M40.1,47.7l-3.8-1.5,1.3-3.3c.4-1.1,1.6-1.6,2.7-1.1,1,.4,1.6,1.6,1.1,2.7l-1.3,3.3h0ZM37.3,45.7l2.4,1,1-2.6c.3-.7,0-1.4-.7-1.7-.7-.3-1.4,0-1.7.7l-1,2.6h0Z"/>
  <path class="st0" d="M46.4,82.6l-1.4-6.9c-1-5-1-10.1,0-15l.8-4.3c1-5.1-1.8-10.2-6.6-12.1-4.8-1.9-10.4-.1-13.2,4.2l-2.4,3.7c-2.7,4.3-6.2,8-10.4,10.9l-5.7,4,38.7,15.5h0Z"/>
  <path class="st6" d="M26.6,48.5l-2.4,3.7c-2.7,4.3-6.2,8-10.4,10.9l-5.7,4,3.3,1.3,4.3-2.7c4.5-3.2,8.3-7.1,11.2-11.8l2.4-3.7c1.2-1.8,3-3,5.1-3.4.8-.1,1.3-.8,1.3-1.6s-.9-1.8-1.9-1.6c-2.9.5-5.6,2.2-7.2,4.9Z"/>
  <path class="st3" d="M46.4,82.6l-1.4-6.9c-1-5-1-10.1,0-15l.8-4.3c1-5.1-1.8-10.2-6.6-12.1-4.8-1.9-10.4-.1-13.2,4.2l-2.4,3.7c-2.7,4.3-6.2,8-10.4,10.9l-5.7,4,38.7,15.5h0Z"/>
  <path class="st3" d="M46.4,82.6l-1.4-6.9c-1-5-1-10.1,0-15l.8-4.3c1-5.1-1.8-10.2-6.6-12.1-4.8-1.9-10.4-.1-13.2,4.2l-2.4,3.7c-2.7,4.3-6.2,8-10.4,10.9l-5.7,4,38.7,15.5h0Z"/>
  <path class="st5" d="M47.9,88.7L2.4,70.5l4.9-4.4c.7-.7,1.8-.9,2.7-.5l35.8,14.3c.9.4,1.6,1.2,1.6,2.2l.5,6.6h0Z"/>
  <path class="st4" d="M39.7,43.1L55.7,1.4"/>
</svg>