<svg width="360" height="333" viewBox="0 0 360 333" fill="none" xmlns="http://www.w3.org/2000/svg">
<rect x="1.5" y="2" width="357" height="329" rx="22.5" fill="white"/>
<rect x="1.5" y="2" width="357" height="329" rx="22.5" stroke="#152375" stroke-width="3"/>
<path d="M182.562 44.55C182.562 47.475 181.512 50.025 179.737 51.9L182.487 55.375L178.862 58.15L175.912 54.45C174.612 54.975 173.137 55.25 171.562 55.25C165.237 55.25 160.562 50.725 160.562 44.55C160.562 38.375 165.237 33.85 171.562 33.85C177.887 33.85 182.562 38.375 182.562 44.55ZM171.562 51.15C172.112 51.15 172.637 51.1 173.137 50.975L170.487 47.625L174.137 44.825L176.937 48.35C177.612 47.3 178.012 46 178.012 44.55C178.012 40.7 175.262 37.95 171.562 37.95C167.862 37.95 165.112 40.7 165.112 44.55C165.112 48.375 167.862 51.15 171.562 51.15ZM197.348 34.375V54.75H192.823V38.325H189.223V34.375H197.348Z" fill="#152375"/>
<path d="M54.484 87.75V94.856H52.801V87.75H54.484ZM46.052 91.932C44.964 93.411 43.264 94.448 41.156 94.72V93.224C43.91 92.731 45.627 90.521 45.644 87.886L47.327 87.988C47.327 88.94 47.14 89.858 46.783 90.674L51.39 93.207L50.574 94.482L46.052 91.932ZM43.859 100.755H54.841V102.081H42.193V98.239H52.818V96.981H42.159V95.655H54.484V99.497H43.859V100.755ZM68.9325 87.75H70.6155V95.196H68.9325V92.221H65.9745C65.6175 93.938 63.9855 95.094 61.5715 95.094C58.8175 95.094 57.0835 93.615 57.0835 91.507C57.0835 89.399 58.8175 87.92 61.5715 87.92C63.9175 87.92 65.5325 89.008 65.9405 90.657H68.9325V87.75ZM61.5715 93.7C63.2375 93.7 64.3595 92.867 64.3595 91.507C64.3595 90.147 63.2375 89.314 61.5715 89.314C59.9055 89.314 58.7665 90.147 58.7665 91.507C58.7665 92.867 59.9055 93.7 61.5715 93.7ZM68.9495 97.525V95.995H70.6155V102.081H58.4265V95.995H60.0755V97.525H68.9495ZM60.0755 100.704H68.9495V98.868H60.0755V100.704ZM84.6901 98.613V95.179H73.8951V93.615H84.6901V89.858H73.8951V88.277H86.3901V98.613H84.6901ZM72.9601 99.99H87.4611V101.571H72.9601V99.99ZM101.332 87.75H102.93V102.268H101.332V87.75ZM97.8296 93.717V87.835H99.4106V102.013H97.8296V95.315H96.0276V93.717H97.8296ZM90.9956 99.939H92.2876C94.0386 99.939 95.4156 99.718 96.4866 99.259V100.738C95.5346 101.163 94.0046 101.401 92.2026 101.401H89.4146V94.023H93.5966V89.739H89.4146V88.277H95.1776V95.485H90.9956V99.939ZM118.534 87.75V97.695H116.851V87.75H118.534ZM115.797 94.975C114.913 95.366 113.213 95.621 111.156 95.621H105.648V88.107H114.76V89.552H107.348V94.176H111.224C113.196 94.176 114.862 93.938 115.797 93.513V94.975ZM119.18 100.806L118.517 102.268L112.278 99.48C110.748 101.129 108.385 102.064 106.039 102.081V100.5C108.742 100.466 111.462 98.953 112.057 96.403L113.757 96.709C113.621 97.27 113.417 97.78 113.145 98.273L119.18 100.806ZM128.24 94.006C124.721 94.006 121.797 92.986 121.797 90.827C121.797 88.685 124.721 87.665 128.24 87.665C131.759 87.665 134.683 88.685 134.683 90.827C134.683 92.986 131.759 94.006 128.24 94.006ZM128.24 92.646C130.773 92.646 132.898 92.017 132.898 90.827C132.898 89.654 130.773 89.025 128.24 89.025C125.707 89.025 123.582 89.654 123.582 90.827C123.582 92.017 125.707 92.646 128.24 92.646ZM120.998 96.726V95.298H135.499V96.726H120.998ZM122.001 102.098V97.967H123.718V100.653H134.751V102.098H122.001ZM153.148 94.72V89.671H142.387V88.09H154.899V94.72H153.148ZM155.936 95.927V97.525H149.459V102.608H147.725V97.525H141.435V95.927H155.936ZM169.313 87.75H170.996V96.42H169.313V87.75ZM162.666 93.003C161.646 94.669 159.946 95.774 157.804 95.995V94.465C160.252 94.108 161.799 92.221 161.969 89.569H157.991V88.124H167.392V89.569H163.652C163.635 90.3 163.499 90.98 163.295 91.626L167.817 94.618L166.916 95.876L162.666 93.003ZM158.552 98.681V97.219H170.996V102.268H169.296V98.681H158.552ZM185.19 92.612V89.348H174.463V87.92H186.89V92.612H185.19ZM173.46 93.462H187.961V94.856H173.46V93.462ZM185.292 97.627V95.978H186.941V102.098H174.463V95.978H176.129V97.627H185.292ZM176.129 100.738H185.292V98.97H176.129V100.738ZM201.475 87.75H203.141V102.268H201.475V98.222H199.027L199.146 96.641H201.475V92.969H199.146L199.027 91.388H201.475V87.75ZM194.318 88.09C196.851 88.09 198.602 90.232 198.602 94.839C198.602 99.446 196.851 101.588 194.318 101.588C191.768 101.588 190.017 99.446 190.017 94.839C190.017 90.232 191.768 88.09 194.318 88.09ZM194.318 100.041C195.814 100.041 196.919 98.528 196.919 94.839C196.919 91.167 195.814 89.637 194.318 89.637C192.805 89.637 191.683 91.167 191.683 94.839C191.683 98.528 192.805 100.041 194.318 100.041ZM216.999 91.864C215.384 94.057 212.902 95.434 210.25 95.451V93.853C213.378 93.87 216.336 91.082 216.965 87.648L218.699 87.92C218.529 88.855 218.223 89.756 217.815 90.572L224.037 94.023L223.255 95.434L216.999 91.864ZM224.411 96.981V98.545H218.002V102.608H216.285V98.545H209.91V96.981H224.411ZM237.652 92.612V89.348H226.925V87.92H239.352V92.612H237.652ZM225.922 93.462H240.423V94.856H225.922V93.462ZM237.754 97.627V95.978H239.403V102.098H226.925V95.978H228.591V97.627H237.754ZM228.591 100.738H237.754V98.97H228.591V100.738ZM257.116 93.632V95.247H255.076V102.268H253.393V87.75H255.076V93.632H257.116ZM247.919 89.824C247.902 91.524 247.749 93.071 247.477 94.431L252.135 100.279L250.809 101.282L246.984 96.335C245.998 99.344 244.298 101.146 242.105 101.401V99.735C244.672 99.259 246.168 95.213 246.219 89.824H242.445V88.277H251.574V89.824H247.919ZM273.128 93.632V95.247H271.088V102.268H269.405V87.75H271.088V93.632H273.128ZM258.474 89.824V88.277H266.379V91.779C266.379 97.559 263.404 101.367 258.474 101.367V99.769C262.418 99.752 264.662 96.675 264.662 91.813V89.824H258.474ZM287.921 93.343H290.386V90.929H287.921L287.819 89.433H290.386V87.75H292.052V98.545H290.386V94.839H287.819L287.921 93.343ZM287.462 92.119C287.462 94.55 285.762 96.335 282.974 96.335C280.169 96.335 278.469 94.55 278.469 92.119C278.469 89.688 280.169 87.903 282.974 87.903C285.762 87.903 287.462 89.688 287.462 92.119ZM280.152 92.119C280.152 93.836 281.257 94.907 282.974 94.907C284.674 94.907 285.779 93.836 285.779 92.119C285.779 90.402 284.674 89.314 282.974 89.314C281.257 89.314 280.152 90.402 280.152 92.119ZM281.563 100.568H292.358V102.081H279.863V97.338H281.563V100.568ZM306.127 92.799V89.348H295.366V87.92H307.827V92.799H306.127ZM294.397 95.077V93.666H308.898V95.077H294.397ZM295.4 102.098V96.556H307.878V102.098H295.4ZM297.083 100.721H306.212V97.933H297.083V100.721ZM49.027 124.99H55.436V126.571H40.935V124.99H47.31V121.726H41.887V113.175H43.553V115.776H52.801V113.175H54.467V121.726H49.027V124.99ZM43.553 117.289V120.213H52.801V117.289H43.553ZM66.8415 113.974V115.283H56.9815V113.974H61.0615V112.495H62.7615V113.974H66.8415ZM68.9325 112.75H70.6155V121.386H68.9325V118.649H66.6545V117.153H68.9325V112.75ZM61.9115 121.284C59.5485 121.284 57.6785 120.349 57.6785 118.683C57.6785 117.034 59.5485 116.082 61.9115 116.082C64.2745 116.082 66.1275 117.034 66.1275 118.683C66.1275 120.349 64.2745 121.284 61.9115 121.284ZM61.9115 117.34C60.2965 117.34 59.2765 117.918 59.2765 118.683C59.2765 119.448 60.2965 120.043 61.9115 120.043C63.5265 120.043 64.5295 119.448 64.5295 118.683C64.5295 117.918 63.5265 117.34 61.9115 117.34ZM58.2565 127.081V122.202H70.5645V127.081H58.2565ZM59.9225 123.545V125.738H68.8985V123.545H59.9225ZM83.8401 125.041H87.4611V126.571H72.9601V125.041H76.5811V122.219H73.9291V117.017H84.8431V114.773H73.9291V113.277H86.5091V118.462H75.6121V120.723H86.7301V122.219H83.8401V125.041ZM78.2641 122.219V125.041H82.1571V122.219H78.2641ZM100.89 127.268V112.75H102.573V127.268H100.89ZM93.9536 122.202C91.3356 122.202 89.4656 120.332 89.4656 117.629C89.4656 114.926 91.3356 113.056 93.9536 113.056C96.5546 113.056 98.4416 114.926 98.4416 117.629C98.4416 120.332 96.5546 122.202 93.9536 122.202ZM93.9536 120.672C95.6706 120.672 96.7926 119.363 96.7926 117.629C96.7926 115.895 95.6706 114.569 93.9536 114.569C92.2196 114.569 91.1146 115.895 91.1146 117.629C91.1146 119.363 92.2196 120.672 93.9536 120.672ZM88.9726 126.401V124.82H94.9056C96.8946 124.82 98.6796 124.599 99.6656 124.14V125.704C98.6966 126.146 96.8946 126.401 94.8036 126.401H88.9726ZM124.591 115.266V116.864H122.551V120.026H120.868V112.75H122.551V115.266H124.591ZM119.814 118.955C118.93 119.346 117.196 119.601 115.139 119.601H109.92V113.022H111.62V118.156H115.241C117.213 118.156 118.879 117.918 119.814 117.51V118.955ZM120.902 122.474V120.825H122.551V127.081H110.413V120.825H112.062V122.474H120.902ZM112.062 125.687H120.902V123.851H112.062V125.687ZM138.903 113.005V120.451H126.425V113.005H128.091V115.045H137.237V113.005H138.903ZM128.091 118.955H137.237V116.541H128.091V118.955ZM139.923 121.998V123.562H133.531V127.608H131.797V123.562H125.422V121.998H139.923ZM142.489 118.377V115.096H153.267V114.11H142.489V112.92H154.899V116.218H144.121V117.187H155.103V118.377H142.489ZM141.435 120.655V119.431H155.936V120.655H141.435ZM142.438 127.098V123.834H153.301V122.899H142.404V121.709H154.933V124.956H144.07V125.908H155.188V127.098H142.438ZM171.919 114.433V115.912H161.94V114.433H166.071V112.597H167.788V114.433H171.919ZM173.772 112.75H175.455V127.268H173.772V112.75ZM162.705 119.924C162.705 118.071 164.354 116.813 166.955 116.813C169.556 116.813 171.205 118.071 171.205 119.924C171.205 121.777 169.556 123.018 166.955 123.018C164.354 123.018 162.705 121.777 162.705 119.924ZM169.607 119.924C169.607 118.989 168.706 118.19 166.955 118.19C165.204 118.19 164.303 118.989 164.303 119.924C164.303 120.859 165.204 121.658 166.955 121.658C168.706 121.658 169.607 120.859 169.607 119.924ZM161.872 124.905H167.805C169.794 124.905 171.528 124.735 172.565 124.259V125.789C171.647 126.197 169.862 126.401 167.822 126.401H161.872V124.905ZM191.026 115.725H193.066V117.34H191.026V120.774H189.343V112.75H191.026V115.725ZM186.878 113.107V119.941H178.395V113.107H186.878ZM185.212 118.513V114.535H180.061V118.513H185.212ZM185.025 121.25C188.51 121.25 191.247 122.083 191.247 124.259C191.247 126.435 188.51 127.268 185.025 127.268C181.557 127.268 178.803 126.435 178.803 124.259C178.803 122.083 181.557 121.25 185.025 121.25ZM185.025 125.874C187.507 125.874 189.445 125.381 189.445 124.259C189.445 123.154 187.507 122.644 185.025 122.644C182.56 122.644 180.605 123.154 180.605 124.259C180.605 125.381 182.56 125.874 185.025 125.874ZM199.779 112.716V115.045H203.638V116.541H194.22V115.045H198.062V112.716H199.779ZM209.078 118.632V120.247H207.038V127.268H205.355V112.75H207.038V118.632H209.078ZM198.929 117.697C201.292 117.697 202.958 119.465 202.958 122.134C202.958 124.803 201.292 126.571 198.929 126.571C196.566 126.571 194.883 124.803 194.883 122.134C194.883 119.465 196.566 117.697 198.929 117.697ZM198.929 125.109C200.272 125.109 201.326 123.987 201.326 122.134C201.326 120.281 200.272 119.159 198.929 119.159C197.569 119.159 196.515 120.281 196.515 122.134C196.515 123.987 197.569 125.109 198.929 125.109ZM221.691 122.848V114.841H210.794V113.26H223.442V122.848H221.691ZM217.05 124.99H224.411V126.571H209.91V124.99H215.316V118.513H217.05V124.99ZM238.439 120.791H244.848V122.202H230.347V120.791H236.739V119.074H231.384V112.835H233.05V114.603H242.145V112.835H243.794V119.074H238.439V120.791ZM233.05 115.895V117.731H242.145V115.895H233.05ZM233.067 123.239V125.67H244.1V127.098H231.35V123.239H233.067ZM258.225 123.528V112.75H259.908V123.528H258.225ZM251.102 121.335C248.263 121.335 246.495 119.55 246.495 117.119C246.495 114.688 248.263 112.903 251.102 112.903C253.941 112.903 255.692 114.688 255.692 117.119C255.692 119.55 253.941 121.335 251.102 121.335ZM251.102 119.907C252.819 119.907 254.009 118.836 254.009 117.119C254.009 115.402 252.819 114.314 251.102 114.314C249.368 114.314 248.178 115.402 248.178 117.119C248.178 118.836 249.368 119.907 251.102 119.907ZM247.77 127.081V122.338H249.487V125.551H260.299V127.081H247.77ZM280.278 113.005V120.451H267.8V113.005H269.466V115.045H278.612V113.005H280.278ZM269.466 118.955H278.612V116.541H269.466V118.955ZM281.298 121.998V123.562H274.906V127.608H273.172V123.562H266.797V121.998H281.298ZM297.99 115.725V117.34H295.95V120.638H294.267V112.75H295.95V115.725H297.99ZM293.213 119.295C292.329 119.686 290.595 119.941 288.538 119.941H283.319V113.107H292.176V114.535H285.002V118.513H288.64C290.612 118.513 292.278 118.275 293.213 117.867V119.295ZM283.812 127.081V121.437H295.95V127.081H283.812ZM285.495 122.865V125.653H294.267V122.865H285.495ZM312.269 112.835V119.023H299.859V112.835H301.525V114.586H310.62V112.835H312.269ZM301.525 117.68H310.62V115.878H301.525V117.68ZM298.822 120.451H313.323V121.879H306.914V124.14H305.214V121.879H298.822V120.451ZM301.542 123.188V125.67H312.575V127.098H299.825V123.188H301.542ZM50.472 143.343H52.937V140.929H50.472L50.37 139.433H52.937V137.75H54.603V148.545H52.937V144.839H50.37L50.472 143.343ZM50.013 142.119C50.013 144.55 48.313 146.335 45.525 146.335C42.72 146.335 41.02 144.55 41.02 142.119C41.02 139.688 42.72 137.903 45.525 137.903C48.313 137.903 50.013 139.688 50.013 142.119ZM42.703 142.119C42.703 143.836 43.808 144.907 45.525 144.907C47.225 144.907 48.33 143.836 48.33 142.119C48.33 140.402 47.225 139.314 45.525 139.314C43.808 139.314 42.703 140.402 42.703 142.119ZM44.114 150.568H54.909V152.081H42.414V147.338H44.114V150.568ZM68.6775 142.799V139.348H57.9165V137.92H70.3775V142.799H68.6775ZM56.9475 145.077V143.666H71.4485V145.077H56.9475ZM57.9505 152.098V146.556H70.4285V152.098H57.9505ZM59.6335 150.721H68.7625V147.933H59.6335V150.721ZM81.0521 149.99H87.4611V151.571H72.9601V149.99H79.3351V146.726H73.9121V138.175H75.5781V140.776H84.8261V138.175H86.4921V146.726H81.0521V149.99ZM75.5781 142.289V145.213H84.8261V142.289H75.5781ZM98.8666 138.974V140.283H89.0066V138.974H93.0866V137.495H94.7866V138.974H98.8666ZM100.958 137.75H102.641V146.386H100.958V143.649H98.6796V142.153H100.958V137.75ZM93.9366 146.284C91.5736 146.284 89.7036 145.349 89.7036 143.683C89.7036 142.034 91.5736 141.082 93.9366 141.082C96.2996 141.082 98.1526 142.034 98.1526 143.683C98.1526 145.349 96.2996 146.284 93.9366 146.284ZM93.9366 142.34C92.3216 142.34 91.3016 142.918 91.3016 143.683C91.3016 144.448 92.3216 145.043 93.9366 145.043C95.5516 145.043 96.5546 144.448 96.5546 143.683C96.5546 142.918 95.5516 142.34 93.9366 142.34ZM90.2816 152.081V147.202H102.59V152.081H90.2816ZM91.9476 148.545V150.738H100.924V148.545H91.9476ZM115.865 150.041H119.486V151.571H104.985V150.041H108.606V147.219H105.954V142.017H116.868V139.773H105.954V138.277H118.534V143.462H107.637V145.723H118.755V147.219H115.865V150.041ZM110.289 147.219V150.041H114.182V147.219H110.289ZM123.888 152.574C122.001 150.534 120.726 148.086 120.726 144.992C120.726 141.898 122.001 139.45 123.888 137.41H125.775C123.82 139.399 122.46 141.983 122.46 144.992C122.46 148.001 123.82 150.585 125.775 152.574H123.888ZM126.648 151.911V150.755L131.476 145.91C133.21 144.159 133.89 143.054 133.89 142.085C133.89 140.487 132.802 139.552 131.102 139.552C129.266 139.552 128.28 140.946 128.28 142.459H126.495C126.495 139.994 128.28 137.971 131.119 137.971C133.856 137.971 135.658 139.62 135.658 142.068C135.658 143.53 134.825 144.771 132.785 146.862L129.215 150.364H136.117V151.911H126.648ZM142.174 152.217C139.233 152.217 137.465 150.432 137.363 148.069H139.131C139.182 149.531 140.253 150.67 142.174 150.67C144.061 150.67 145.234 149.344 145.234 147.559C145.234 145.808 144.01 144.516 142.208 144.516C140.712 144.516 139.845 145.281 139.386 146.131H137.635L138.026 138.294H146.288V139.841H139.658L139.42 144.295C139.93 143.666 140.933 142.986 142.497 142.986C145.081 142.986 146.985 144.839 146.985 147.559C146.985 150.262 145.03 152.217 142.174 152.217ZM151.646 144.431C149.691 144.431 148.28 143.037 148.28 141.184C148.28 139.331 149.691 137.937 151.646 137.937C153.601 137.937 155.012 139.331 155.012 141.184C155.012 143.037 153.601 144.431 151.646 144.431ZM150.439 151.911L159.432 138.294H161.098L152.105 151.911H150.439ZM151.646 143.003C152.734 143.003 153.482 142.238 153.482 141.184C153.482 140.13 152.734 139.382 151.646 139.382C150.558 139.382 149.793 140.13 149.793 141.184C149.793 142.238 150.558 143.003 151.646 143.003ZM159.891 152.251C157.936 152.251 156.525 150.857 156.525 149.004C156.525 147.151 157.936 145.757 159.891 145.757C161.829 145.757 163.257 147.151 163.257 149.004C163.257 150.857 161.829 152.251 159.891 152.251ZM159.891 150.823C160.962 150.823 161.727 150.058 161.727 149.004C161.727 147.95 160.962 147.185 159.891 147.185C158.803 147.185 158.038 147.95 158.038 149.004C158.038 150.058 158.803 150.823 159.891 150.823ZM164.101 152.574C166.056 150.585 167.399 148.001 167.399 144.992C167.399 141.983 166.056 139.399 164.101 137.41H165.971C167.875 139.45 169.133 141.898 169.133 144.992C169.133 148.086 167.875 150.534 165.971 152.574H164.101ZM171.451 143.377V140.096H182.229V139.11H171.451V137.92H183.861V141.218H173.083V142.187H184.065V143.377H171.451ZM170.397 145.655V144.431H184.898V145.655H170.397ZM171.4 152.098V148.834H182.263V147.899H171.366V146.709H183.895V149.956H173.032V150.908H184.15V152.098H171.4ZM206.015 140.266V141.864H203.975V145.026H202.292V137.75H203.975V140.266H206.015ZM201.238 143.955C200.354 144.346 198.62 144.601 196.563 144.601H191.344V138.022H193.044V143.156H196.665C198.637 143.156 200.303 142.918 201.238 142.51V143.955ZM202.326 147.474V145.825H203.975V152.081H191.837V145.825H193.486V147.474H202.326ZM193.486 150.687H202.326V148.851H193.486V150.687ZM220.328 138.005V145.451H207.85V138.005H209.516V140.045H218.662V138.005H220.328ZM209.516 143.955H218.662V141.541H209.516V143.955ZM221.348 146.998V148.562H214.956V152.608H213.222V148.562H206.847V146.998H221.348ZM228.742 137.716V140.045H232.601V141.541H223.183V140.045H227.025V137.716H228.742ZM238.041 143.632V145.247H236.001V152.268H234.318V137.75H236.001V143.632H238.041ZM227.892 142.697C230.255 142.697 231.921 144.465 231.921 147.134C231.921 149.803 230.255 151.571 227.892 151.571C225.529 151.571 223.846 149.803 223.846 147.134C223.846 144.465 225.529 142.697 227.892 142.697ZM227.892 150.109C229.235 150.109 230.289 148.987 230.289 147.134C230.289 145.281 229.235 144.159 227.892 144.159C226.532 144.159 225.478 145.281 225.478 147.134C225.478 148.987 226.532 150.109 227.892 150.109ZM239.909 143.377V137.75H241.609V141.881H252.472V143.377H239.909ZM238.872 146.471V144.975H253.373V146.471H238.872ZM239.875 152.098V147.763H241.592V150.602H252.625V152.098H239.875ZM271.294 145.774V144.193H268.2V142.714H271.294V140.793H268.761V139.314H271.294V137.75H272.977V145.774H271.294ZM268.047 139.688C268.047 143.632 264.783 145.315 259.768 145.315V143.853C263.831 143.836 266.347 142.578 266.347 139.977V139.535H259.768V138.107H268.047V139.688ZM266.857 146.25C270.325 146.25 273.181 147.049 273.181 149.259C273.181 151.452 270.325 152.268 266.857 152.268C263.389 152.268 260.533 151.452 260.533 149.259C260.533 147.049 263.389 146.25 266.857 146.25ZM266.857 150.874C269.322 150.874 271.396 150.398 271.396 149.259C271.396 148.12 269.322 147.644 266.857 147.644C264.409 147.644 262.318 148.12 262.318 149.259C262.318 150.398 264.409 150.874 266.857 150.874ZM282.564 145.638C278.671 145.638 276.104 144.176 276.104 141.762C276.104 139.348 278.671 137.886 282.564 137.886C286.457 137.886 289.024 139.348 289.024 141.762C289.024 144.176 286.457 145.638 282.564 145.638ZM282.564 139.399C279.81 139.399 277.855 140.249 277.855 141.762C277.855 143.275 279.81 144.125 282.564 144.125C285.318 144.125 287.273 143.275 287.273 141.762C287.273 140.249 285.318 139.399 282.564 139.399ZM289.823 146.981V148.545H283.414V152.608H281.697V148.545H275.322V146.981H289.823ZM293.578 149.786L292.728 153.628H291.334L291.878 149.786H293.578ZM311.266 142.85V139.382H300.539V137.92H312.966V142.85H311.266ZM314.037 145.128H307.628V147.474H313.017V152.285H311.317V148.919H300.42V147.474H305.928V145.128H299.536V143.683H314.037V145.128ZM56.116 168.632V170.247H54.076V177.268H52.393V162.75H54.076V168.632H56.116ZM41.462 164.824V163.277H49.367V166.779C49.367 172.559 46.392 176.367 41.462 176.367V174.769C45.406 174.752 47.65 171.675 47.65 166.813V164.824H41.462ZM69.3065 162.75H70.9045V177.268H69.3065V162.75ZM65.8045 168.802V162.835H67.3855V177.013H65.8045V170.4H63.8835C63.7815 174.701 62.6255 176.588 60.5175 176.588C58.3245 176.588 57.1345 174.531 57.1345 169.839C57.1345 165.147 58.3245 163.09 60.5175 163.09C62.5405 163.09 63.6965 164.841 63.8665 168.802H65.8045ZM60.5175 175.058C61.7245 175.058 62.2855 173.409 62.2855 169.839C62.2855 166.269 61.7245 164.62 60.5175 164.62C59.3105 164.62 58.7325 166.269 58.7325 169.839C58.7325 173.409 59.3105 175.058 60.5175 175.058ZM84.9451 162.75H86.6281V177.268H84.9451V169.584H81.2051V168.003H84.9451V162.75ZM79.0291 163.175C79.0291 165.164 78.8761 166.966 78.6041 168.581L83.1431 175.517L81.7321 176.435L78.1111 170.723C77.1251 174.157 75.3741 176.214 73.0791 176.401V174.684C75.8671 174.225 77.2951 169.21 77.3121 163.107L79.0291 163.175ZM101.489 174.99H107.898V176.571H93.3973V174.99H99.7723V171.726H94.3493V163.175H96.0153V165.776H105.263V163.175H106.929V171.726H101.489V174.99ZM96.0153 167.289V170.213H105.263V167.289H96.0153ZM119.304 163.974V165.283H109.444V163.974H113.524V162.495H115.224V163.974H119.304ZM121.395 162.75H123.078V171.386H121.395V168.649H119.117V167.153H121.395V162.75ZM114.374 171.284C112.011 171.284 110.141 170.349 110.141 168.683C110.141 167.034 112.011 166.082 114.374 166.082C116.737 166.082 118.59 167.034 118.59 168.683C118.59 170.349 116.737 171.284 114.374 171.284ZM114.374 167.34C112.759 167.34 111.739 167.918 111.739 168.683C111.739 169.448 112.759 170.043 114.374 170.043C115.989 170.043 116.992 169.448 116.992 168.683C116.992 167.918 115.989 167.34 114.374 167.34ZM110.719 177.081V172.202H123.027V177.081H110.719ZM112.385 173.545V175.738H121.361V173.545H112.385ZM136.302 175.041H139.923V176.571H125.422V175.041H129.043V172.219H126.391V167.017H137.305V164.773H126.391V163.277H138.971V168.462H128.074V170.723H139.192V172.219H136.302V175.041ZM130.726 172.219V175.041H134.619V172.219H130.726ZM144.325 177.574C142.438 175.534 141.163 173.086 141.163 169.992C141.163 166.898 142.438 164.45 144.325 162.41H146.212C144.257 164.399 142.897 166.983 142.897 169.992C142.897 173.001 144.257 175.585 146.212 177.574H144.325ZM148.548 176.911L154.09 164.858H146.814V163.294H156.147V164.484L150.435 176.911H148.548ZM161.914 177.217C158.973 177.217 157.205 175.432 157.103 173.069H158.871C158.922 174.531 159.993 175.67 161.914 175.67C163.801 175.67 164.974 174.344 164.974 172.559C164.974 170.808 163.75 169.516 161.948 169.516C160.452 169.516 159.585 170.281 159.126 171.131H157.375L157.766 163.294H166.028V164.841H159.398L159.16 169.295C159.67 168.666 160.673 167.986 162.237 167.986C164.821 167.986 166.725 169.839 166.725 172.559C166.725 175.262 164.77 177.217 161.914 177.217ZM171.386 169.431C169.431 169.431 168.02 168.037 168.02 166.184C168.02 164.331 169.431 162.937 171.386 162.937C173.341 162.937 174.752 164.331 174.752 166.184C174.752 168.037 173.341 169.431 171.386 169.431ZM170.179 176.911L179.172 163.294H180.838L171.845 176.911H170.179ZM171.386 168.003C172.474 168.003 173.222 167.238 173.222 166.184C173.222 165.13 172.474 164.382 171.386 164.382C170.298 164.382 169.533 165.13 169.533 166.184C169.533 167.238 170.298 168.003 171.386 168.003ZM179.631 177.251C177.676 177.251 176.265 175.857 176.265 174.004C176.265 172.151 177.676 170.757 179.631 170.757C181.569 170.757 182.997 172.151 182.997 174.004C182.997 175.857 181.569 177.251 179.631 177.251ZM179.631 175.823C180.702 175.823 181.467 175.058 181.467 174.004C181.467 172.95 180.702 172.185 179.631 172.185C178.543 172.185 177.778 172.95 177.778 174.004C177.778 175.058 178.543 175.823 179.631 175.823ZM183.84 177.574C185.795 175.585 187.138 173.001 187.138 169.992C187.138 166.983 185.795 164.399 183.84 162.41H185.71C187.614 164.45 188.872 166.898 188.872 169.992C188.872 173.086 187.614 175.534 185.71 177.574H183.84ZM191.191 168.377V165.096H201.969V164.11H191.191V162.92H203.601V166.218H192.823V167.187H203.805V168.377H191.191ZM190.137 170.655V169.431H204.638V170.655H190.137ZM191.14 177.098V173.834H202.003V172.899H191.106V171.709H203.635V174.956H192.772V175.908H203.89V177.098H191.14ZM222.44 162.75H224.123V177.268H222.44V162.75ZM216.779 164.824C216.762 166.507 216.592 168.054 216.32 169.414L221.063 175.279L219.737 176.282L215.827 171.301C214.824 174.344 213.09 176.146 210.897 176.401V174.735C213.481 174.259 215.011 170.213 215.079 164.824H211.237V163.277H220.502V164.824H216.779ZM234.169 171.862H238.572V162.75H240.255V174.123H238.572V173.222H234.169V171.862ZM231.755 168.445C229.239 168.445 227.454 167.442 227.454 165.606C227.454 163.787 229.239 162.784 231.755 162.784C234.288 162.784 236.056 163.787 236.056 165.606C236.056 167.442 234.288 168.445 231.755 168.445ZM231.755 164.11C230.225 164.11 229.103 164.603 229.103 165.606C229.103 166.609 230.225 167.119 231.755 167.119C233.285 167.119 234.407 166.609 234.407 165.606C234.407 164.603 233.285 164.11 231.755 164.11ZM230.599 173.46V170.859H226.587V169.465H232.588C234.577 169.465 236.345 169.312 237.348 168.887V170.281C236.43 170.689 234.611 170.859 232.537 170.859H232.282V173.46H230.599ZM229.613 175.653H240.629V177.081H227.93V172.678H229.613V175.653ZM248.481 162.716V165.045H252.34V166.541H242.922V165.045H246.764V162.716H248.481ZM257.78 168.632V170.247H255.74V177.268H254.057V162.75H255.74V168.632H257.78ZM247.631 167.697C249.994 167.697 251.66 169.465 251.66 172.134C251.66 174.803 249.994 176.571 247.631 176.571C245.268 176.571 243.585 174.803 243.585 172.134C243.585 169.465 245.268 167.697 247.631 167.697ZM247.631 175.109C248.974 175.109 250.028 173.987 250.028 172.134C250.028 170.281 248.974 169.159 247.631 169.159C246.271 169.159 245.217 170.281 245.217 172.134C245.217 173.987 246.271 175.109 247.631 175.109ZM270.393 172.848V164.841H259.496V163.26H272.144V172.848H270.393ZM265.752 174.99H273.113V176.571H258.612V174.99H264.018V168.513H265.752V174.99ZM290.813 173.324V164.841H279.933V163.26H292.581V173.324H290.813ZM279.049 176.571V174.99H293.55V176.571H279.049ZM311.352 177.268V162.75H313.035V177.268H311.352ZM300.166 176.367V174.769C304.127 174.752 306.507 171.675 306.507 166.813V164.824H300.166V163.277H308.224V166.779C308.224 172.593 305.13 176.367 300.166 176.367ZM54.076 191.201H56.116V192.816H54.076V198.528H52.393V187.75H54.076V191.201ZM49.673 190.079C49.673 194.21 46.29 196.25 41.309 196.25V194.737C45.372 194.72 47.973 193.173 47.973 190.283V189.586H41.309V188.107H49.673V190.079ZM43.638 197.508V200.551H54.467V202.081H41.938V197.508H43.638ZM64.1895 192.986C60.6875 192.986 57.8145 192.272 57.8145 190.334C57.8145 188.413 60.6875 187.699 64.1895 187.699C67.6915 187.699 70.5645 188.413 70.5645 190.334C70.5645 192.272 67.6915 192.986 64.1895 192.986ZM64.1895 191.694C66.7225 191.694 68.8305 191.303 68.8305 190.334C68.8305 189.382 66.7225 188.974 64.1895 188.974C61.6565 188.974 59.5485 189.382 59.5485 190.334C59.5485 191.303 61.6565 191.694 64.1895 191.694ZM56.9475 195.196V193.887H71.4485V195.196H56.9475ZM57.9505 202.098V198.63H68.7965V197.61H57.9165V196.352H70.4455V199.82H59.5995V200.84H70.7005V202.098H57.9505ZM82.4167 194.04C81.4647 195.604 79.8327 196.709 77.6737 196.947V195.417C80.0367 195.077 81.4307 193.224 81.6347 191.014H77.9627V189.484H81.6347V187.563H83.3517V189.484H86.9897V191.014H83.3517C83.3007 191.592 83.1987 192.153 83.0287 192.68L87.5337 195.655L86.5987 196.93L82.4167 194.04ZM89.2847 187.75H90.9677V202.268H89.2847V187.75ZM83.1817 199.854H83.3177C85.2727 199.854 87.0407 199.684 88.0777 199.225V200.789C87.0407 201.214 85.3237 201.401 83.3347 201.401H77.3847V199.854H81.5157V196.743H83.1817V199.854ZM105.756 187.75H107.354V202.268H105.756V195.179H103.393V202.013H101.795V187.835H103.393V193.598H105.756V187.75ZM95.4883 199.905H97.3583C98.5993 199.905 99.8573 199.701 100.741 199.344V200.823C99.8743 201.197 98.4803 201.401 97.1713 201.401H93.8393V188.277H100.112V189.773H95.4883V199.905ZM116.486 201.911V189.858H113.664V188.294H118.271V201.911H116.486ZM121.079 201.911V200.755L125.907 195.91C127.641 194.159 128.321 193.054 128.321 192.085C128.321 190.487 127.233 189.552 125.533 189.552C123.697 189.552 122.711 190.946 122.711 192.459H120.926C120.926 189.994 122.711 187.971 125.55 187.971C128.287 187.971 130.089 189.62 130.089 192.068C130.089 193.53 129.256 194.771 127.216 196.862L123.646 200.364H130.548V201.911H121.079ZM144.339 187.75H145.954V202.268H144.339V195.179H141.857V202.013H140.242V187.835H141.857V193.598H144.339V187.75ZM132.32 189.807V188.277H138.389V192.187C138.389 197.797 135.873 201.333 132.32 201.367V199.786C135.023 199.701 136.757 196.76 136.757 192.272V189.807H132.32ZM159.995 195.536V191.167H157.989V189.654H159.995V187.75H161.678V195.536H159.995ZM152.991 192.85C150.441 192.85 148.758 191.898 148.758 190.317C148.758 188.753 150.441 187.784 152.991 187.784C155.541 187.784 157.224 188.753 157.224 190.317C157.224 191.898 155.541 192.85 152.991 192.85ZM152.991 189.025C151.427 189.025 150.39 189.501 150.39 190.317C150.39 191.116 151.427 191.609 152.991 191.609C154.572 191.609 155.592 191.116 155.592 190.317C155.592 189.501 154.572 189.025 152.991 189.025ZM151.036 200.84H162.035V202.081H149.37V198.613H160.029V197.576H149.336V196.335H152.073V195.077H148.01V193.785H154.011C156 193.785 157.768 193.615 158.771 193.207V194.499C157.853 194.907 156.034 195.077 153.96 195.077H153.739V196.335H161.678V199.803H151.036V200.84ZM179.203 193.632V195.247H177.248V202.268H175.616V187.75H177.248V193.632H179.203ZM164.345 189.807V188.277H168.51V191.558C168.51 197.015 167.439 200.721 164.345 200.857V199.293C166.266 199.038 166.878 196.114 166.878 191.711V189.807H164.345ZM169.258 189.807V188.277H173.389V191.779C173.389 197.61 171.995 201.214 168.799 201.367V199.803C170.839 199.565 171.757 196.76 171.757 191.932V189.807H169.258ZM191.901 187.75H193.584V202.268H191.901V187.75ZM186.24 189.824C186.223 191.507 186.053 193.054 185.781 194.414L190.524 200.279L189.198 201.282L185.288 196.301C184.285 199.344 182.551 201.146 180.358 201.401V199.735C182.942 199.259 184.472 195.213 184.54 189.824H180.698V188.277H189.963V189.824H186.24ZM215.653 193.632V195.247H213.613V202.268H211.93V187.75H213.613V193.632H215.653ZM200.999 189.824V188.277H208.904V191.779C208.904 197.559 205.929 201.367 200.999 201.367V199.769C204.943 199.752 207.187 196.675 207.187 191.813V189.824H200.999ZM228.351 187.75H230.034V195.196H228.351V187.75ZM225.784 191.507C225.784 193.649 224.016 195.111 221.245 195.111C218.457 195.111 216.689 193.649 216.689 191.507C216.689 189.382 218.457 187.903 221.245 187.903C224.016 187.903 225.784 189.382 225.784 191.507ZM218.372 191.507C218.372 192.901 219.545 193.734 221.245 193.734C222.945 193.734 224.101 192.901 224.101 191.507C224.101 190.113 222.945 189.28 221.245 189.28C219.545 189.28 218.372 190.113 218.372 191.507ZM228.385 197.525V195.995H230.034V202.081H217.896V195.995H219.562V197.525H228.385ZM219.562 200.704H228.385V198.868H219.562V200.704ZM244.363 202.268V187.75H246.046V202.268H244.363ZM233.177 201.367V199.769C237.138 199.752 239.518 196.675 239.518 191.813V189.824H233.177V188.277H241.235V191.779C241.235 197.593 238.141 201.367 233.177 201.367ZM261.651 191.201H263.691V192.816H261.651V198.528H259.968V187.75H261.651V191.201ZM257.248 190.079C257.248 194.21 253.865 196.25 248.884 196.25V194.737C252.947 194.72 255.548 193.173 255.548 190.283V189.586H248.884V188.107H257.248V190.079ZM251.213 197.508V200.551H262.042V202.081H249.513V197.508H251.213ZM271.764 197.27C267.803 197.27 265.236 195.451 265.236 192.663C265.236 189.875 267.803 188.056 271.764 188.056C275.725 188.056 278.292 189.875 278.292 192.663C278.292 195.451 275.725 197.27 271.764 197.27ZM271.764 195.74C274.62 195.74 276.524 194.499 276.524 192.663C276.524 190.827 274.62 189.586 271.764 189.586C268.908 189.586 267.004 190.827 267.004 192.663C267.004 194.499 268.908 195.74 271.764 195.74ZM264.522 201.571V199.99H279.023V201.571H264.522ZM288.61 200.024H295.036V201.571H280.535V200.024H286.893V197.287H281.504V192.051H292.418V189.773H281.504V188.277H294.084V193.496H283.187V195.791H294.305V197.287H288.61V200.024ZM307.823 193.122C306.463 194.635 304.202 195.587 301.431 195.74V194.193C304.491 193.972 306.701 192.561 307.296 190.572H301.805V189.042H307.313V187.393H309.047V189.042H314.623V190.572H309.115C309.03 191.014 308.877 191.439 308.69 191.847L315.014 194.176L314.436 195.638L307.823 193.122ZM315.473 197.134V198.698H309.064V202.608H307.347V198.698H300.972V197.134H315.473ZM56.116 218.632V220.247H54.076V227.268H52.393V212.75H54.076V218.632H56.116ZM41.462 214.824V213.277H49.367V216.779C49.367 222.559 46.392 226.367 41.462 226.367V224.769C45.406 224.752 47.65 221.675 47.65 216.813V214.824H41.462ZM74.5132 216.048H76.5532V217.663H74.5132V223.528H72.8302V212.75H74.5132V216.048ZM66.2342 217.918C65.1802 219.754 63.5142 221.063 61.4062 221.335V219.754C64.1602 219.261 65.7752 216.269 65.8092 212.886L67.4922 212.988C67.4922 214.229 67.2882 215.419 66.8972 216.507L71.4872 219.975L70.4672 221.182L66.2342 217.918ZM64.0752 222.457V225.551H74.9042V227.081H62.3752V222.457H64.0752ZM89.2507 212.75H90.9337V220.196H89.2507V212.75ZM86.6837 216.507C86.6837 218.649 84.9157 220.111 82.1447 220.111C79.3567 220.111 77.5887 218.649 77.5887 216.507C77.5887 214.382 79.3567 212.903 82.1447 212.903C84.9157 212.903 86.6837 214.382 86.6837 216.507ZM79.2717 216.507C79.2717 217.901 80.4447 218.734 82.1447 218.734C83.8447 218.734 85.0007 217.901 85.0007 216.507C85.0007 215.113 83.8447 214.28 82.1447 214.28C80.4447 214.28 79.2717 215.113 79.2717 216.507ZM89.2847 222.525V220.995H90.9337V227.081H78.7957V220.995H80.4617V222.525H89.2847ZM80.4617 225.704H89.2847V223.868H80.4617V225.704ZM99.2793 212.716V215.045H103.138V216.541H93.7203V215.045H97.5623V212.716H99.2793ZM108.578 218.632V220.247H106.538V227.268H104.855V212.75H106.538V218.632H108.578ZM98.4293 217.697C100.792 217.697 102.458 219.465 102.458 222.134C102.458 224.803 100.792 226.571 98.4293 226.571C96.0663 226.571 94.3833 224.803 94.3833 222.134C94.3833 219.465 96.0663 217.697 98.4293 217.697ZM98.4293 225.109C99.7723 225.109 100.826 223.987 100.826 222.134C100.826 220.281 99.7723 219.159 98.4293 219.159C97.0693 219.159 96.0153 220.281 96.0153 222.134C96.0153 223.987 97.0693 225.109 98.4293 225.109ZM110.447 218.377V212.75H112.147V216.881H123.01V218.377H110.447ZM109.41 221.471V219.975H123.911V221.471H109.41ZM110.413 227.098V222.763H112.13V225.602H123.163V227.098H110.413ZM142.206 212.75H143.804V227.268H142.206V212.75ZM138.449 218.275V212.835H140.047V227.013H138.449V219.856H136.154V218.275H138.449ZM134.488 214.807C134.471 216.439 134.386 217.901 134.233 219.193L137.769 225.415L136.392 226.197L133.808 221.505C133.094 224.446 131.819 226.078 129.966 226.401V224.752C131.887 224.225 132.839 220.383 132.873 214.807H130.204V213.277H137.038V214.807H134.488ZM153.952 225.007H160.361V226.571H145.86V225.007H152.235V221.488H146.812V213.277H159.409V214.841H148.529V219.924H159.579V221.488H153.952V225.007ZM173.738 227.268V212.75H175.438V227.268H173.738ZM166.887 226.588C164.303 226.588 162.484 224.446 162.484 219.839C162.484 215.232 164.303 213.09 166.887 213.09C169.454 213.09 171.273 215.232 171.273 219.839C171.273 224.446 169.454 226.588 166.887 226.588ZM166.887 225.041C168.4 225.041 169.59 223.528 169.59 219.839C169.59 216.167 168.4 214.637 166.887 214.637C165.34 214.637 164.167 216.167 164.167 219.839C164.167 223.528 165.34 225.041 166.887 225.041ZM193.066 218.632V220.247H191.026V227.268H189.343V212.75H191.026V218.632H193.066ZM180.282 224.871H184.328C185.705 224.871 187.201 224.599 188.085 224.174V225.704C187.201 226.146 185.637 226.401 184.243 226.401H178.565V213.277H186.946V214.807H180.282V224.871ZM195.155 227.132C194.475 227.132 193.948 226.605 193.948 225.925C193.948 225.245 194.475 224.718 195.155 224.718C195.835 224.718 196.345 225.245 196.345 225.925C196.345 226.605 195.835 227.132 195.155 227.132Z" fill="#152375"/>
<path d="M126.496 300C113.846 300 104.496 290.95 104.496 278.6C104.496 266.25 113.846 257.2 126.496 257.2C139.146 257.2 148.496 266.25 148.496 278.6C148.496 290.95 139.146 300 126.496 300ZM126.496 291.8C133.896 291.8 139.396 286.25 139.396 278.6C139.396 270.9 133.896 265.4 126.496 265.4C119.096 265.4 113.596 270.9 113.596 278.6C113.596 286.25 119.096 291.8 126.496 291.8Z" fill="#93CDFF"/>
<rect x="183.5" y="256.5" width="1" height="45" fill="#D9D9D9"/>
<path d="M218.15 299L231.65 278.45L218.6 258.25H229.4L237.6 271.55L246.05 258.25H256.4L243.3 278.15L256.85 299H246.2L237.45 284.95L228.5 299H218.15Z" fill="#FF7676"/>
</svg>
