<svg width="360" height="308" viewBox="0 0 360 308" fill="none" xmlns="http://www.w3.org/2000/svg">
<rect x="1.5" y="2" width="357" height="304" rx="22.5" fill="white"/>
<rect x="1.5" y="2" width="357" height="304" rx="22.5" stroke="#152375" stroke-width="3"/>
<path d="M180.084 44.55C180.084 47.475 179.034 50.025 177.259 51.9L180.009 55.375L176.384 58.15L173.434 54.45C172.134 54.975 170.659 55.25 169.084 55.25C162.759 55.25 158.084 50.725 158.084 44.55C158.084 38.375 162.759 33.85 169.084 33.85C175.409 33.85 180.084 38.375 180.084 44.55ZM169.084 51.15C169.634 51.15 170.159 51.1 170.659 50.975L168.009 47.625L171.659 44.825L174.459 48.35C175.134 47.3 175.534 46 175.534 44.55C175.534 40.7 172.784 37.95 169.084 37.95C165.384 37.95 162.634 40.7 162.634 44.55C162.634 48.375 165.384 51.15 169.084 51.15ZM194.145 33.825C198.37 33.825 201.295 36.3 201.295 39.95C201.295 42.3 199.57 44.025 197.87 44.325C199.745 44.625 201.845 46.25 201.845 48.875C201.845 52.8 198.52 55.25 194.295 55.25C189.82 55.25 187.045 52.75 186.72 48.825H191.195C191.37 50.45 192.395 51.425 194.295 51.425C196.17 51.425 197.42 50.4 197.42 48.9C197.42 47.2 195.995 46.3 193.87 46.3H191.845V42.6H193.87C195.72 42.6 196.82 41.6 196.82 40.05C196.82 38.55 195.82 37.625 194.12 37.625C192.345 37.625 191.52 39.05 191.52 40.5H187.045C187.045 36.625 189.97 33.825 194.145 33.825Z" fill="#152375"/>
<path d="M52.665 92.85V89.382H41.938V87.92H54.365V92.85H52.665ZM55.436 95.128H49.027V97.474H54.416V102.285H52.716V98.919H41.819V97.474H47.327V95.128H40.935V93.683H55.436V95.128ZM68.8135 98.528V87.75H70.4965V98.528H68.8135ZM57.6105 95.944V88.107H66.2465V95.944H57.6105ZM59.2765 94.482H64.5805V89.569H59.2765V94.482ZM58.1885 102.081V97.372H59.8885V100.551H70.8875V102.081H58.1885ZM82.4971 93.343H84.9621V90.929H82.4971L82.3951 89.433H84.9621V87.75H86.6281V98.545H84.9621V94.839H82.3951L82.4971 93.343ZM82.0381 92.119C82.0381 94.55 80.3381 96.335 77.5501 96.335C74.7451 96.335 73.0451 94.55 73.0451 92.119C73.0451 89.688 74.7451 87.903 77.5501 87.903C80.3381 87.903 82.0381 89.688 82.0381 92.119ZM74.7281 92.119C74.7281 93.836 75.8331 94.907 77.5501 94.907C79.2501 94.907 80.3551 93.836 80.3551 92.119C80.3551 90.402 79.2501 89.314 77.5501 89.314C75.8331 89.314 74.7281 90.402 74.7281 92.119ZM76.1391 100.568H86.9341V102.081H74.4391V97.338H76.1391V100.568ZM100.703 92.799V89.348H89.9416V87.92H102.403V92.799H100.703ZM88.9726 95.077V93.666H103.474V95.077H88.9726ZM89.9756 102.098V96.556H102.454V102.098H89.9756ZM91.6586 100.721H100.788V97.933H91.6586V100.721ZM116.732 92.85V89.348H105.954V87.92H118.415V92.85H116.732ZM112.125 93.87H119.486V95.264H104.985V93.87H110.425V91.031H112.125V93.87ZM112.227 96.624C115.695 96.624 118.602 97.423 118.602 99.446C118.602 101.486 115.695 102.285 112.227 102.285C108.759 102.285 105.852 101.486 105.852 99.446C105.852 97.355 108.759 96.624 112.227 96.624ZM112.227 100.942C114.573 100.942 116.834 100.483 116.834 99.446C116.834 98.426 114.573 97.967 112.227 97.967C109.881 97.967 107.62 98.375 107.62 99.446C107.62 100.483 109.881 100.942 112.227 100.942ZM134.139 91.201H136.179V92.816H134.139V98.528H132.456V87.75H134.139V91.201ZM131.402 95.315C130.518 95.706 128.784 95.961 126.727 95.961H121.508V88.107H130.365V89.569H123.208V94.499H126.829C128.801 94.499 130.467 94.278 131.402 93.87V95.315ZM123.701 97.372V100.551H134.53V102.081H122.001V97.372H123.701ZM141.333 101.911V100.755L146.161 95.91C147.895 94.159 148.575 93.054 148.575 92.085C148.575 90.487 147.487 89.552 145.787 89.552C143.951 89.552 142.965 90.946 142.965 92.459H141.18C141.18 89.994 142.965 87.971 145.804 87.971C148.541 87.971 150.343 89.62 150.343 92.068C150.343 93.53 149.51 94.771 147.47 96.862L143.9 100.364H150.802V101.911H141.333ZM157.215 102.217C154.342 102.217 152.183 99.854 152.183 95.094C152.183 90.334 154.342 87.971 157.215 87.971C160.071 87.971 162.23 90.334 162.23 95.094C162.23 99.854 160.071 102.217 157.215 102.217ZM157.215 100.636C159.051 100.636 160.513 98.8 160.513 95.094C160.513 91.405 159.051 89.552 157.215 89.552C155.362 89.552 153.9 91.405 153.9 95.094C153.9 98.8 155.362 100.636 157.215 100.636ZM163.596 101.911V100.755L168.424 95.91C170.158 94.159 170.838 93.054 170.838 92.085C170.838 90.487 169.75 89.552 168.05 89.552C166.214 89.552 165.228 90.946 165.228 92.459H163.443C163.443 89.994 165.228 87.971 168.067 87.971C170.804 87.971 172.606 89.62 172.606 92.068C172.606 93.53 171.773 94.771 169.733 96.862L166.163 100.364H173.065V101.911H163.596ZM180.391 101.911V98.834H173.523V97.321L179.983 88.294H182.091V97.321H184.318V98.834H182.091V101.911H180.391ZM175.359 97.321H180.391V90.249L175.359 97.321ZM197.25 98.579V93.649H192.014V92.272H197.25V90.657H192.014V89.28H197.25V87.75H198.916V98.579H197.25ZM195.482 96.284C194.547 96.658 192.813 96.828 190.807 96.828H185.843V88.022H187.543V95.4H190.926C192.847 95.4 194.513 95.23 195.482 94.873V96.284ZM188.274 100.585H199.222V102.081H186.557V98.018H188.274V100.585ZM215.222 93.343H217.687V90.929H215.222L215.12 89.433H217.687V87.75H219.353V98.545H217.687V94.839H215.12L215.222 93.343ZM214.763 92.119C214.763 94.55 213.063 96.335 210.275 96.335C207.47 96.335 205.77 94.55 205.77 92.119C205.77 89.688 207.47 87.903 210.275 87.903C213.063 87.903 214.763 89.688 214.763 92.119ZM207.453 92.119C207.453 93.836 208.558 94.907 210.275 94.907C211.975 94.907 213.08 93.836 213.08 92.119C213.08 90.402 211.975 89.314 210.275 89.314C208.558 89.314 207.453 90.402 207.453 92.119ZM208.864 100.568H219.659V102.081H207.164V97.338H208.864V100.568ZM233.427 92.799V89.348H222.666V87.92H235.127V92.799H233.427ZM221.697 95.077V93.666H236.198V95.077H221.697ZM222.7 102.098V96.556H235.178V102.098H222.7ZM224.383 100.721H233.512V97.933H224.383V100.721ZM249.491 92.34V89.297H238.662V87.92H251.174V92.34H249.491ZM244.85 93.258H252.211V94.618H237.71V93.258H243.15V90.827H244.85V93.258ZM240.362 99.582V100.772H251.463V102.098H238.713V98.307H249.559V97.134H238.679V95.808H251.208V99.582H240.362ZM254.76 93.7V87.92H267.187V89.331H256.46V92.306H267.357V93.7H254.76ZM253.723 96.692V95.264H268.224V96.692H253.723ZM254.726 102.098V97.848H256.443V100.653H267.476V102.098H254.726ZM283.692 87.75V95.264H282.094V87.75H283.692ZM276.467 92.068V94.703H270.177V88.005H271.724V89.875H274.92V88.005H276.467V90.572H278.592V87.835H280.173V95.111H278.592V92.068H276.467ZM271.724 93.343H274.92V91.218H271.724V93.343ZM272.659 100.789H284.049V102.081H271.01V98.443H282.043V97.338H270.976V96.046H283.692V99.667H272.659V100.789ZM292.99 94.006C289.471 94.006 286.547 92.986 286.547 90.827C286.547 88.685 289.471 87.665 292.99 87.665C296.509 87.665 299.433 88.685 299.433 90.827C299.433 92.986 296.509 94.006 292.99 94.006ZM292.99 92.646C295.523 92.646 297.648 92.017 297.648 90.827C297.648 89.654 295.523 89.025 292.99 89.025C290.457 89.025 288.332 89.654 288.332 90.827C288.332 92.017 290.457 92.646 292.99 92.646ZM285.748 96.726V95.298H300.249V96.726H285.748ZM286.751 102.098V97.967H288.468V100.653H299.501V102.098H286.751ZM52.665 117.85V114.382H41.938V112.92H54.365V117.85H52.665ZM55.436 120.128H49.027V122.474H54.416V127.285H52.716V123.919H41.819V122.474H47.327V120.128H40.935V118.683H55.436V120.128ZM68.8135 123.528V112.75H70.4965V123.528H68.8135ZM57.6105 120.944V113.107H66.2465V120.944H57.6105ZM59.2765 119.482H64.5805V114.569H59.2765V119.482ZM58.1885 127.081V122.372H59.8885V125.551H70.8875V127.081H58.1885ZM82.4971 118.343H84.9621V115.929H82.4971L82.3951 114.433H84.9621V112.75H86.6281V123.545H84.9621V119.839H82.3951L82.4971 118.343ZM82.0381 117.119C82.0381 119.55 80.3381 121.335 77.5501 121.335C74.7451 121.335 73.0451 119.55 73.0451 117.119C73.0451 114.688 74.7451 112.903 77.5501 112.903C80.3381 112.903 82.0381 114.688 82.0381 117.119ZM74.7281 117.119C74.7281 118.836 75.8331 119.907 77.5501 119.907C79.2501 119.907 80.3551 118.836 80.3551 117.119C80.3551 115.402 79.2501 114.314 77.5501 114.314C75.8331 114.314 74.7281 115.402 74.7281 117.119ZM76.1391 125.568H86.9341V127.081H74.4391V122.338H76.1391V125.568ZM100.703 117.799V114.348H89.9416V112.92H102.403V117.799H100.703ZM88.9726 120.077V118.666H103.474V120.077H88.9726ZM89.9756 127.098V121.556H102.454V127.098H89.9756ZM91.6586 125.721H100.788V122.933H91.6586V125.721ZM121.276 127.268V112.75H122.959V127.268H121.276ZM110.243 126.401V113.277H118.471V126.401H110.243ZM111.926 124.82H116.788V114.858H111.926V124.82ZM137.781 112.75H139.379V127.268H137.781V120.162H135.418V127.013H133.82V112.835H135.418V118.598H137.781V112.75ZM127.445 124.905H128.567C130.318 124.905 131.695 124.684 132.766 124.208V125.755C131.814 126.18 130.335 126.401 128.533 126.401H125.864V118.972H130.148V114.773H125.864V113.277H131.746V120.468H127.445V124.905ZM161.041 118.632V120.247H159.001V127.268H157.318V112.75H159.001V118.632H161.041ZM146.387 114.824V113.277H154.292V116.779C154.292 122.559 151.317 126.367 146.387 126.367V124.769C150.331 124.752 152.575 121.675 152.575 116.813V114.824H146.387ZM173.738 112.75H175.421V120.196H173.738V112.75ZM171.171 116.507C171.171 118.649 169.403 120.111 166.632 120.111C163.844 120.111 162.076 118.649 162.076 116.507C162.076 114.382 163.844 112.903 166.632 112.903C169.403 112.903 171.171 114.382 171.171 116.507ZM163.759 116.507C163.759 117.901 164.932 118.734 166.632 118.734C168.332 118.734 169.488 117.901 169.488 116.507C169.488 115.113 168.332 114.28 166.632 114.28C164.932 114.28 163.759 115.113 163.759 116.507ZM173.772 122.525V120.995H175.421V127.081H163.283V120.995H164.949V122.525H173.772ZM164.949 125.704H173.772V123.868H164.949V125.704ZM193.066 118.632V120.247H191.026V127.268H189.343V112.75H191.026V118.632H193.066ZM183.869 114.824C183.852 116.524 183.699 118.071 183.427 119.431L188.085 125.279L186.759 126.282L182.934 121.335C181.948 124.344 180.248 126.146 178.055 126.401V124.735C180.622 124.259 182.118 120.213 182.169 114.824H178.395V113.277H187.524V114.824H183.869ZM205.763 123.528V112.75H207.446V123.528H205.763ZM198.64 121.335C195.801 121.335 194.033 119.55 194.033 117.119C194.033 114.688 195.801 112.903 198.64 112.903C201.479 112.903 203.23 114.688 203.23 117.119C203.23 119.55 201.479 121.335 198.64 121.335ZM198.64 119.907C200.357 119.907 201.547 118.836 201.547 117.119C201.547 115.402 200.357 114.314 198.64 114.314C196.906 114.314 195.716 115.402 195.716 117.119C195.716 118.836 196.906 119.907 198.64 119.907ZM195.308 127.081V122.338H197.025V125.551H207.837V127.081H195.308ZM229.515 118.632V120.247H227.475V127.268H225.792V112.75H227.475V118.632H229.515ZM219.128 113.09C221.661 113.09 223.446 115.232 223.446 119.839C223.446 124.446 221.661 126.588 219.128 126.588C216.578 126.588 214.793 124.446 214.793 119.839C214.793 115.232 216.578 113.09 219.128 113.09ZM219.128 125.041C220.624 125.041 221.763 123.528 221.763 119.839C221.763 116.167 220.624 114.637 219.128 114.637C217.615 114.637 216.476 116.167 216.476 119.839C216.476 123.528 217.615 125.041 219.128 125.041ZM238.422 119.431H244.848V120.791H230.347V119.431H236.756V117.935H231.384V112.92H243.811V114.28H233.067V116.575H243.981V117.935H238.422V119.431ZM237.589 121.998C241.057 121.998 243.981 122.661 243.981 124.65C243.981 126.639 241.057 127.319 237.589 127.319C234.121 127.319 231.197 126.639 231.197 124.65C231.197 122.661 234.121 121.998 237.589 121.998ZM237.589 125.993C239.952 125.993 242.213 125.653 242.213 124.65C242.213 123.664 239.952 123.324 237.589 123.324C235.226 123.324 232.965 123.664 232.965 124.65C232.965 125.653 235.226 125.993 237.589 125.993ZM247.396 117.561V112.92H259.823V114.212H249.079V116.269H259.993V117.561H247.396ZM246.359 120.111V118.802H260.86V120.111H246.359ZM247.362 127.098V123.63H258.208V122.61H247.328V121.352H259.857V124.82H249.011V125.84H260.112V127.098H247.362ZM274.238 127.268V112.75H275.938V127.268H274.238ZM267.387 126.588C264.803 126.588 262.984 124.446 262.984 119.839C262.984 115.232 264.803 113.09 267.387 113.09C269.954 113.09 271.773 115.232 271.773 119.839C271.773 124.446 269.954 126.588 267.387 126.588ZM267.387 125.041C268.9 125.041 270.09 123.528 270.09 119.839C270.09 116.167 268.9 114.637 267.387 114.637C265.84 114.637 264.667 116.167 264.667 119.839C264.667 123.528 265.84 125.041 267.387 125.041ZM294.726 112.75H296.409V127.268H294.726V112.75ZM290.136 117.153V114.739H283.727V113.226H291.836V120.706H290.136V118.649H283.778V117.153H290.136ZM282.809 121.76H288.742C290.697 121.76 292.465 121.624 293.502 121.233V122.746C292.465 123.12 290.748 123.29 288.759 123.29H288.674V127.268H286.991V123.29H282.809V121.76ZM305.962 118.343C304.483 120.519 302.018 121.692 299.247 121.862V120.298C302.392 120.043 304.857 118.309 305.503 114.841H299.604V113.294H312.524V114.841H307.288C307.169 115.623 306.965 116.337 306.693 116.983L312.966 120.604L312.15 121.947L305.962 118.343ZM298.822 124.99H313.323V126.571H298.822V124.99ZM41.989 143.377V140.096H52.767V139.11H41.989V137.92H54.399V141.218H43.621V142.187H54.603V143.377H41.989ZM40.935 145.655V144.431H55.436V145.655H40.935ZM41.938 152.098V148.834H52.801V147.899H41.904V146.709H54.433V149.956H43.57V150.908H54.688V152.098H41.938ZM75.0232 141.575V142.85H62.2052V141.575H64.7722V139.195H62.3582V137.92H74.8702V139.195H72.4562V141.575H75.0232ZM66.4552 139.195V141.575H70.7732V139.195H66.4552ZM75.8732 145.298H69.4472V146.556H74.8702V149.905H64.0242V150.857H75.1252V152.098H62.3752V148.732H73.2212V147.797H62.3412V146.556H67.7812V145.298H61.3722V143.989H75.8732V145.298ZM89.3867 148.545V144.397H87.0067V142.901H89.3867V140.861H87.0067V139.365H89.3867V137.75H91.0527V148.545H89.3867ZM86.1567 138.107V145.961H77.9967V138.107H86.1567ZM84.4907 144.499V139.569H79.6457V144.499H84.4907ZM80.4107 150.568H91.3587V152.081H78.6937V147.372H80.4107V150.568ZM105.382 137.75H107.065V152.268H105.382V144.584H101.642V143.003H105.382V137.75ZM99.4663 138.175C99.4663 140.164 99.3133 141.966 99.0413 143.581L103.58 150.517L102.169 151.435L98.5483 145.723C97.5623 149.157 95.8113 151.214 93.5163 151.401V149.684C96.3043 149.225 97.7323 144.21 97.7493 138.107L99.4663 138.175ZM129.015 143.632V145.247H126.975V152.268H125.292V137.75H126.975V143.632H129.015ZM119.818 139.824C119.801 141.524 119.648 143.071 119.376 144.431L124.034 150.279L122.708 151.282L118.883 146.335C117.897 149.344 116.197 151.146 114.004 151.401V149.735C116.571 149.259 118.067 145.213 118.118 139.824H114.344V138.277H123.473V139.824H119.818ZM139.384 143.343H141.849V140.929H139.384L139.282 139.433H141.849V137.75H143.515V148.545H141.849V144.839H139.282L139.384 143.343ZM138.925 142.119C138.925 144.55 137.225 146.335 134.437 146.335C131.632 146.335 129.932 144.55 129.932 142.119C129.932 139.688 131.632 137.903 134.437 137.903C137.225 137.903 138.925 139.688 138.925 142.119ZM131.615 142.119C131.615 143.836 132.72 144.907 134.437 144.907C136.137 144.907 137.242 143.836 137.242 142.119C137.242 140.402 136.137 139.314 134.437 139.314C132.72 139.314 131.615 140.402 131.615 142.119ZM133.026 150.568H143.821V152.081H131.326V147.338H133.026V150.568ZM152.915 142.629C151.283 145.196 148.818 146.879 146.149 146.879V145.281C149.294 145.281 152.184 141.881 152.932 137.818L154.666 138.124C154.462 139.246 154.122 140.317 153.646 141.286L160.038 145.587L159.12 146.93L152.915 142.629ZM145.86 149.99H160.361V151.571H145.86V149.99ZM173.857 137.75H175.54V145.757H173.857V141.949H171.341V140.419H173.857V137.75ZM162.467 141.167H168.723V139.467H162.433V138.107H170.389V142.493H164.133V144.21H167.584C169.556 144.21 171.222 143.972 172.157 143.564V144.924C171.273 145.315 169.539 145.57 167.482 145.57H162.467V141.167ZM173.823 147.899V146.556H175.489V152.081H163.181V146.556H164.847V147.899H173.823ZM164.847 150.738H173.823V149.225H164.847V150.738ZM190.227 137.75H191.842V152.268H190.227V137.75ZM186.606 143.598V137.835H188.204V152.013H186.606V145.196H184.005C183.274 149.038 181.081 151.333 178.208 151.367V149.786C180.911 149.701 182.645 146.76 182.645 142.272V139.807H178.208V138.277H184.277V142.187C184.277 142.68 184.26 143.139 184.226 143.598H186.606ZM210.052 142.85V139.382H199.325V137.92H211.752V142.85H210.052ZM212.823 145.128H206.414V147.474H211.803V152.285H210.103V148.919H199.206V147.474H204.714V145.128H198.322V143.683H212.823V145.128ZM226.2 148.528V137.75H227.883V148.528H226.2ZM214.997 145.944V138.107H223.633V145.944H214.997ZM216.663 144.482H221.967V139.569H216.663V144.482ZM215.575 152.081V147.372H217.275V150.551H228.274V152.081H215.575ZM239.884 143.343H242.349V140.929H239.884L239.782 139.433H242.349V137.75H244.015V148.545H242.349V144.839H239.782L239.884 143.343ZM239.425 142.119C239.425 144.55 237.725 146.335 234.937 146.335C232.132 146.335 230.432 144.55 230.432 142.119C230.432 139.688 232.132 137.903 234.937 137.903C237.725 137.903 239.425 139.688 239.425 142.119ZM232.115 142.119C232.115 143.836 233.22 144.907 234.937 144.907C236.637 144.907 237.742 143.836 237.742 142.119C237.742 140.402 236.637 139.314 234.937 139.314C233.22 139.314 232.115 140.402 232.115 142.119ZM233.526 150.568H244.321V152.081H231.826V147.338H233.526V150.568ZM258.089 142.799V139.348H247.328V137.92H259.789V142.799H258.089ZM246.359 145.077V143.666H260.86V145.077H246.359ZM247.362 152.098V146.556H259.84V152.098H247.362ZM249.045 150.721H258.174V147.933H249.045V150.721ZM269.614 142.986C266.112 142.986 263.239 142.272 263.239 140.334C263.239 138.413 266.112 137.699 269.614 137.699C273.116 137.699 275.989 138.413 275.989 140.334C275.989 142.272 273.116 142.986 269.614 142.986ZM269.614 141.694C272.147 141.694 274.255 141.303 274.255 140.334C274.255 139.382 272.147 138.974 269.614 138.974C267.081 138.974 264.973 139.382 264.973 140.334C264.973 141.303 267.081 141.694 269.614 141.694ZM262.372 145.196V143.887H276.873V145.196H262.372ZM263.375 152.098V148.63H274.221V147.61H263.341V146.352H275.87V149.82H265.024V150.84H276.125V152.098H263.375ZM294.675 137.75H296.358V152.268H294.675V137.75ZM290.204 143.173V138.175H291.87V151.401H283.642V138.175H285.308V143.173H290.204ZM285.308 149.854H290.204V144.72H285.308V149.854ZM306.897 145.74H313.323V147.083H298.822V145.74H305.231V144.329H299.876V140.487H310.637V139.195H299.876V137.92H312.286V141.745H301.525V143.037H312.49V144.329H306.897V145.74ZM307.288 147.916C307.186 148.358 307.016 148.766 306.778 149.14L312.847 150.908L312.337 152.251L305.775 150.211C304.245 151.452 301.814 152.081 299.536 152.081V150.704C302.307 150.704 305.197 149.582 305.622 147.678L307.288 147.916ZM50.744 164.127V165.504H40.884V164.127H44.964V162.495H46.664V164.127H50.744ZM54.076 166.728H56.116V168.343H54.076V173.63H52.393V162.75H54.076V166.728ZM45.814 172.27C43.4 172.27 41.513 171.199 41.513 169.295C41.513 167.391 43.4 166.32 45.814 166.32C48.228 166.32 50.098 167.391 50.098 169.295C50.098 171.199 48.228 172.27 45.814 172.27ZM45.814 167.612C44.182 167.612 43.145 168.326 43.145 169.295C43.145 170.281 44.182 170.978 45.814 170.978C47.446 170.978 48.483 170.281 48.483 169.295C48.483 168.326 47.446 167.612 45.814 167.612ZM43.638 173.103V175.585H54.467V177.081H41.938V173.103H43.638ZM76.5532 168.632V170.247H74.5132V177.268H72.8302V162.75H74.5132V168.632H76.5532ZM67.6452 163.175C67.6282 165.436 67.4412 167.459 67.0672 169.21L71.6402 175.398L70.2802 176.367L66.5402 171.182C65.5032 174.344 63.7522 176.231 61.4912 176.401V174.701C64.3982 174.242 65.9112 169.21 65.9282 163.107L67.6452 163.175ZM87.4317 164.433V165.912H77.4527V164.433H81.5837V162.597H83.3007V164.433H87.4317ZM89.2847 162.75H90.9677V177.268H89.2847V162.75ZM83.3007 174.905H83.3177C85.3067 174.905 87.0407 174.735 88.0777 174.259V175.789C87.1597 176.197 85.3747 176.401 83.3347 176.401H77.3847V174.905H81.6177V172.746C79.5097 172.525 78.2177 171.454 78.2177 169.805C78.2177 167.952 79.8667 166.796 82.4677 166.796C85.0687 166.796 86.7177 167.952 86.7177 169.805C86.7177 171.454 85.4087 172.542 83.3007 172.763V174.905ZM79.8157 169.805C79.8157 170.723 80.7167 171.42 82.4677 171.42C84.2187 171.42 85.1197 170.723 85.1197 169.805C85.1197 168.887 84.2187 168.173 82.4677 168.173C80.7167 168.173 79.8157 168.887 79.8157 169.805ZM101.489 174.99H107.898V176.571H93.3973V174.99H99.7723V171.726H94.3493V163.175H96.0153V165.776H105.263V163.175H106.929V171.726H101.489V174.99ZM96.0153 167.289V170.213H105.263V167.289H96.0153ZM122.551 165.521H124.591V167.119H122.551V170.774H120.868V162.75H122.551V165.521ZM114.493 167.527C113.507 169.142 111.79 170.264 109.614 170.485V168.972C112.011 168.649 113.49 166.881 113.711 164.569H109.801V163.124H119.066V164.569H115.394C115.36 165.13 115.258 165.674 115.105 166.184L119.525 168.904L118.692 170.162L114.493 167.527ZM116.55 171.25C120.035 171.25 122.772 172.083 122.772 174.259C122.772 176.435 120.035 177.268 116.55 177.268C113.082 177.268 110.328 176.435 110.328 174.259C110.328 172.083 113.082 171.25 116.55 171.25ZM116.55 175.874C119.032 175.874 120.97 175.381 120.97 174.259C120.97 173.154 119.032 172.644 116.55 172.644C114.085 172.644 112.13 173.154 112.13 174.259C112.13 175.381 114.085 175.874 116.55 175.874ZM137.781 162.75H139.379V177.268H137.781V162.75ZM134.024 168.275V162.835H135.622V177.013H134.024V169.856H131.729V168.275H134.024ZM130.063 164.807C130.046 166.439 129.961 167.901 129.808 169.193L133.344 175.415L131.967 176.197L129.383 171.505C128.669 174.446 127.394 176.078 125.541 176.401V174.752C127.462 174.225 128.414 170.383 128.448 164.807H125.779V163.277H132.613V164.807H130.063ZM149.527 175.007H155.936V176.571H141.435V175.007H147.81V171.488H142.387V163.277H154.984V164.841H144.104V169.924H155.154V171.488H149.527V175.007ZM158.501 168.377V165.096H169.279V164.11H158.501V162.92H170.911V166.218H160.133V167.187H171.115V168.377H158.501ZM157.447 170.655V169.431H171.948V170.655H157.447ZM158.45 177.098V173.834H169.313V172.899H158.416V171.709H170.945V174.956H160.082V175.908H171.2V177.098H158.45ZM189.751 177.268V162.75H191.451V177.268H189.751ZM182.9 176.588C180.316 176.588 178.497 174.446 178.497 169.839C178.497 165.232 180.316 163.09 182.9 163.09C185.467 163.09 187.286 165.232 187.286 169.839C187.286 174.446 185.467 176.588 182.9 176.588ZM182.9 175.041C184.413 175.041 185.603 173.528 185.603 169.839C185.603 166.167 184.413 164.637 182.9 164.637C181.353 164.637 180.18 166.167 180.18 169.839C180.18 173.528 181.353 175.041 182.9 175.041ZM198.283 162.716V165.011H201.326V166.524H193.574V165.011H196.617V162.716H198.283ZM206.29 162.75H207.854V177.268H206.29V170.179H203.961V177.013H202.397V162.835H203.961V168.598H206.29V162.75ZM197.518 167.663C199.473 167.663 200.901 169.227 200.901 172.117C200.901 175.007 199.473 176.571 197.518 176.571C195.58 176.571 194.152 175.007 194.152 172.117C194.152 169.227 195.58 167.663 197.518 167.663ZM197.518 175.092C198.572 175.092 199.354 174.021 199.354 172.117C199.354 170.213 198.572 169.142 197.518 169.142C196.481 169.142 195.716 170.213 195.716 172.117C195.716 174.021 196.481 175.092 197.518 175.092ZM215.792 162.716V165.045H219.651V166.541H210.233V165.045H214.075V162.716H215.792ZM225.091 168.632V170.247H223.051V177.268H221.368V162.75H223.051V168.632H225.091ZM214.942 167.697C217.305 167.697 218.971 169.465 218.971 172.134C218.971 174.803 217.305 176.571 214.942 176.571C212.579 176.571 210.896 174.803 210.896 172.134C210.896 169.465 212.579 167.697 214.942 167.697ZM214.942 175.109C216.285 175.109 217.339 173.987 217.339 172.134C217.339 170.281 216.285 169.159 214.942 169.159C213.582 169.159 212.528 170.281 212.528 172.134C212.528 173.987 213.582 175.109 214.942 175.109ZM226.959 168.377V162.75H228.659V166.881H239.522V168.377H226.959ZM225.922 171.471V169.975H240.423V171.471H225.922ZM226.925 177.098V172.763H228.642V175.602H239.675V177.098H226.925ZM254.451 170.451H260.86V171.879H246.359V170.451H252.751V168.921C249.623 168.768 247.158 167.782 247.158 165.793C247.158 163.651 250.082 162.665 253.601 162.665C257.12 162.665 260.044 163.651 260.044 165.793C260.044 167.782 257.579 168.768 254.451 168.921V170.451ZM248.943 165.793C248.943 166.983 251.068 167.578 253.601 167.578C256.134 167.578 258.259 166.983 258.259 165.793C258.259 164.62 256.134 164.025 253.601 164.025C251.068 164.025 248.943 164.62 248.943 165.793ZM249.079 173.001V175.653H260.112V177.098H247.362V173.001H249.079ZM277.553 168.632V170.247H275.513V177.268H273.83V162.75H275.513V168.632H277.553ZM264.718 174.854H268.815C270.192 174.854 271.688 174.599 272.572 174.174V175.704C271.688 176.146 270.175 176.401 268.781 176.401H263.052V168.955H269.393V164.824H263.018V163.277H271.076V170.502H264.718V174.854ZM290.25 173.528V162.75H291.933V173.528H290.25ZM283.127 171.335C280.288 171.335 278.52 169.55 278.52 167.119C278.52 164.688 280.288 162.903 283.127 162.903C285.966 162.903 287.717 164.688 287.717 167.119C287.717 169.55 285.966 171.335 283.127 171.335ZM283.127 169.907C284.844 169.907 286.034 168.836 286.034 167.119C286.034 165.402 284.844 164.314 283.127 164.314C281.393 164.314 280.203 165.402 280.203 167.119C280.203 168.836 281.393 169.907 283.127 169.907ZM279.795 177.081V172.338H281.512V175.551H292.324V177.081H279.795ZM310.739 162.75H312.422V177.268H310.739V162.75ZM306.149 167.153V164.739H299.74V163.226H307.849V170.706H306.149V168.649H299.791V167.153H306.149ZM298.822 171.76H304.755C306.71 171.76 308.478 171.624 309.515 171.233V172.746C308.478 173.12 306.761 173.29 304.772 173.29H304.687V177.268H303.004V173.29H298.822V171.76ZM48.075 193.343C46.596 195.519 44.131 196.692 41.36 196.862V195.298C44.505 195.043 46.97 193.309 47.616 189.841H41.717V188.294H54.637V189.841H49.401C49.282 190.623 49.078 191.337 48.806 191.983L55.079 195.604L54.263 196.947L48.075 193.343ZM40.935 199.99H55.436V201.571H40.935V199.99ZM69.3065 187.75H70.9045V202.268H69.3065V195.179H66.9435V202.013H65.3455V187.835H66.9435V193.598H69.3065V187.75ZM59.0385 199.905H60.9085C62.1495 199.905 63.4075 199.701 64.2915 199.344V200.823C63.4245 201.197 62.0305 201.401 60.7215 201.401H57.3895V188.277H63.6625V189.773H59.0385V199.905ZM83.0071 189.433V190.912H73.0281V189.433H77.1591V187.597H78.8761V189.433H83.0071ZM84.8601 187.75H86.5431V202.268H84.8601V187.75ZM78.8761 199.905H78.8931C80.8821 199.905 82.6161 199.735 83.6531 199.259V200.789C82.7351 201.197 80.9501 201.401 78.9101 201.401H72.9601V199.905H77.1931V197.746C75.0851 197.525 73.7931 196.454 73.7931 194.805C73.7931 192.952 75.4421 191.796 78.0431 191.796C80.6441 191.796 82.2931 192.952 82.2931 194.805C82.2931 196.454 80.9841 197.542 78.8761 197.763V199.905ZM75.3911 194.805C75.3911 195.723 76.2921 196.42 78.0431 196.42C79.7941 196.42 80.6951 195.723 80.6951 194.805C80.6951 193.887 79.7941 193.173 78.0431 193.173C76.2921 193.173 75.3911 193.887 75.3911 194.805ZM100.839 202.268V187.75H102.539V202.268H100.839ZM93.9876 201.588C91.4036 201.588 89.5846 199.446 89.5846 194.839C89.5846 190.232 91.4036 188.09 93.9876 188.09C96.5546 188.09 98.3736 190.232 98.3736 194.839C98.3736 199.446 96.5546 201.588 93.9876 201.588ZM93.9876 200.041C95.5006 200.041 96.6906 198.528 96.6906 194.839C96.6906 191.167 95.5006 189.637 93.9876 189.637C92.4406 189.637 91.2676 191.167 91.2676 194.839C91.2676 198.528 92.4406 200.041 93.9876 200.041ZM120.166 193.632V195.247H118.126V202.268H116.443V187.75H118.126V193.632H120.166ZM107.382 199.871H111.428C112.805 199.871 114.301 199.599 115.185 199.174V200.704C114.301 201.146 112.737 201.401 111.343 201.401H105.665V188.277H114.046V189.807H107.382V199.871ZM122.256 202.132C121.576 202.132 121.049 201.605 121.049 200.925C121.049 200.245 121.576 199.718 122.256 199.718C122.936 199.718 123.446 200.245 123.446 200.925C123.446 201.605 122.936 202.132 122.256 202.132Z" fill="#152375"/>
<path d="M126.496 275C113.846 275 104.496 265.95 104.496 253.6C104.496 241.25 113.846 232.2 126.496 232.2C139.146 232.2 148.496 241.25 148.496 253.6C148.496 265.95 139.146 275 126.496 275ZM126.496 266.8C133.896 266.8 139.396 261.25 139.396 253.6C139.396 245.9 133.896 240.4 126.496 240.4C119.096 240.4 113.596 245.9 113.596 253.6C113.596 261.25 119.096 266.8 126.496 266.8Z" fill="#93CDFF"/>
<rect x="183.5" y="231.5" width="1" height="45" fill="#D9D9D9"/>
<path d="M218.15 274L231.65 253.45L218.6 233.25H229.4L237.6 246.55L246.05 233.25H256.4L243.3 253.15L256.85 274H246.2L237.45 259.95L228.5 274H218.15Z" fill="#FF7676"/>
</svg>
