<svg width="360" height="258" viewBox="0 0 360 258" fill="none" xmlns="http://www.w3.org/2000/svg">
<rect x="1.5" y="2" width="357" height="254" rx="22.5" fill="white"/>
<rect x="1.5" y="2" width="357" height="254" rx="22.5" stroke="#152375" stroke-width="3"/>
<path d="M180.157 44.55C180.157 47.475 179.107 50.025 177.332 51.9L180.082 55.375L176.457 58.15L173.507 54.45C172.207 54.975 170.732 55.25 169.157 55.25C162.832 55.25 158.157 50.725 158.157 44.55C158.157 38.375 162.832 33.85 169.157 33.85C175.482 33.85 180.157 38.375 180.157 44.55ZM169.157 51.15C169.707 51.15 170.232 51.1 170.732 50.975L168.082 47.625L171.732 44.825L174.532 48.35C175.207 47.3 175.607 46 175.607 44.55C175.607 40.7 172.857 37.95 169.157 37.95C165.457 37.95 162.707 40.7 162.707 44.55C162.707 48.375 165.457 51.15 169.157 51.15ZM194.118 33.825C198.693 33.825 201.393 36.525 201.393 40.225C201.393 42.35 200.368 44.175 196.793 47.875L193.868 50.9H201.793V54.75H187.218V52.15L193.893 45.275C196.343 42.75 196.918 41.425 196.918 40.275C196.918 38.775 196.093 37.775 194.118 37.775C192.268 37.775 191.268 39.275 191.268 40.825H186.793C186.793 36.825 189.818 33.825 194.118 33.825Z" fill="#152375"/>
<path d="M56.116 93.632V95.247H54.076V102.268H52.393V87.75H54.076V93.632H56.116ZM41.615 101.401V88.277H49.69V101.401H41.615ZM43.298 89.841V99.837H48.007V89.841H43.298ZM63.0335 91.558C62.9825 92.748 62.8465 93.853 62.6425 94.873L67.2665 100.313L65.9915 101.384L62.1155 96.709C61.1125 99.48 59.3615 101.146 57.1855 101.401V99.752C59.6335 99.31 61.1465 95.961 61.3335 91.558H57.4405V89.994H61.3335V87.614H63.0505V89.994H66.7395V91.558H63.0335ZM68.9325 87.75H70.6155V102.268H68.9325V95.485H65.8215V93.904H68.9325V87.75ZM85.3191 87.75H86.9171V102.268H85.3191V87.75ZM81.6641 92.714V87.835H83.2621V102.013H81.6641V94.312H79.3691V92.714H81.6641ZM77.7881 88.175C77.7881 90.436 77.6691 92.391 77.4651 94.074L80.9841 100.466L79.5731 101.214L77.0231 96.454C76.2921 99.361 75.0171 100.993 73.0791 101.401V99.701C75.3741 98.953 76.1561 94.584 76.1731 88.107L77.7881 88.175ZM101.332 87.75H102.93V102.268H101.332V95.179H98.9686V102.013H97.3706V87.835H98.9686V93.598H101.332V87.75ZM91.0636 99.905H92.9336C94.1746 99.905 95.4326 99.701 96.3166 99.344V100.823C95.4496 101.197 94.0556 101.401 92.7466 101.401H89.4146V88.277H95.6876V89.773H91.0636V99.905ZM106.022 93.377V87.75H107.722V91.881H118.585V93.377H106.022ZM104.985 96.471V94.975H119.486V96.471H104.985ZM105.988 102.098V97.763H107.705V100.602H118.738V102.098H105.988ZM140.603 93.632V95.247H138.563V102.268H136.88V87.75H138.563V93.632H140.603ZM131.406 89.824C131.389 91.524 131.236 93.071 130.964 94.431L135.622 100.279L134.296 101.282L130.471 96.335C129.485 99.344 127.785 101.146 125.592 101.401V99.735C128.159 99.259 129.655 95.213 129.706 89.824H125.932V88.277H135.061V89.824H131.406ZM153.42 87.75H155.103V102.268H153.42V96.641H148.337V95.06H153.42V92.425H148.337V90.844H153.42V87.75ZM143.917 99.854H147.759C149.136 99.854 150.632 99.599 151.516 99.174V100.704C150.632 101.146 149.119 101.401 147.725 101.401H142.2V88.192H143.917V99.854ZM169.806 87.75H171.404V102.268H169.806V87.75ZM166.304 93.802V87.835H167.885V102.013H166.304V95.4H164.383C164.281 99.701 163.125 101.588 161.017 101.588C158.824 101.588 157.634 99.531 157.634 94.839C157.634 90.147 158.824 88.09 161.017 88.09C163.04 88.09 164.196 89.841 164.366 93.802H166.304ZM161.017 100.058C162.224 100.058 162.785 98.409 162.785 94.839C162.785 91.269 162.224 89.62 161.017 89.62C159.81 89.62 159.232 91.269 159.232 94.839C159.232 98.409 159.81 100.058 161.017 100.058ZM185.802 87.75H187.417V102.268H185.802V87.75ZM182.181 93.598V87.835H183.779V102.013H182.181V95.196H179.58C178.849 99.038 176.656 101.333 173.783 101.367V99.786C176.486 99.701 178.22 96.76 178.22 92.272V89.807H173.783V88.277H179.852V92.187C179.852 92.68 179.835 93.139 179.801 93.598H182.181ZM207.378 88.005V95.451H194.9V88.005H196.566V90.045H205.712V88.005H207.378ZM196.566 93.955H205.712V91.541H196.566V93.955ZM208.398 96.998V98.562H202.006V102.608H200.272V98.562H193.897V96.998H208.398ZM225.091 90.589H223.051V92.629H225.091V94.057H223.051V95.774H221.368V87.75H223.051V89.144H225.091V90.589ZM218.92 91.592C218.92 93.785 217.186 95.281 214.449 95.281C211.695 95.281 209.961 93.785 209.961 91.592C209.961 89.416 211.695 87.903 214.449 87.903C217.186 87.903 218.92 89.416 218.92 91.592ZM211.644 91.592C211.644 93.037 212.783 93.887 214.449 93.887C216.115 93.887 217.237 93.037 217.237 91.592C217.237 90.147 216.115 89.297 214.449 89.297C212.783 89.297 211.644 90.147 211.644 91.592ZM217.135 96.25C220.569 96.25 223.272 97.083 223.272 99.259C223.272 101.435 220.569 102.268 217.135 102.268C213.718 102.268 210.998 101.435 210.998 99.259C210.998 97.083 213.718 96.25 217.135 96.25ZM217.135 100.874C219.566 100.874 221.47 100.381 221.47 99.259C221.47 98.154 219.566 97.644 217.135 97.644C214.721 97.644 212.8 98.154 212.8 99.259C212.8 100.381 214.721 100.874 217.135 100.874ZM239.063 90.776H241.103V92.391H239.063V95.944H237.38V87.75H239.063V90.776ZM234.915 88.005V95.247H226.432V88.005H228.081V90.13H233.266V88.005H234.915ZM228.081 93.853H233.266V91.507H228.081V93.853ZM228.608 98.154V100.67H239.216V102.081H226.925V96.743H239.063V98.154H228.608ZM242.972 93.377V87.75H244.672V91.881H255.535V93.377H242.972ZM241.935 96.471V94.975H256.436V96.471H241.935ZM242.938 102.098V97.763H244.655V100.602H255.688V102.098H242.938ZM262.1 89.926C262.1 88.583 262.899 87.495 264.208 87.24V88.192C263.46 88.396 263.069 88.957 263.069 89.824H264.038V91.796H262.1V89.926ZM280.483 93.632V95.247H278.443V102.268H276.76V87.75H278.443V93.632H280.483ZM265.982 101.401V88.277H274.057V101.401H265.982ZM267.665 89.841V99.837H272.374V89.841H267.665ZM282.981 89.62C282.981 90.963 282.182 92.051 280.873 92.306V91.354C281.621 91.15 282.012 90.589 282.012 89.722H281.043V87.75H282.981V89.62ZM296.112 87.75H297.795V102.268H296.112V87.75ZM290.451 89.824C290.434 91.507 290.264 93.054 289.992 94.414L294.735 100.279L293.409 101.282L289.499 96.301C288.496 99.344 286.762 101.146 284.569 101.401V99.735C287.153 99.259 288.683 95.213 288.751 89.824H284.909V88.277H294.174V89.824H290.451ZM315.439 90.963V92.561H313.399V96.42H311.716V87.75H313.399V90.963H315.439ZM309.251 88.107V95.621H300.768V88.107H309.251ZM307.585 94.176V89.535H302.434V94.176H307.585ZM301.125 98.681V97.219H313.399V102.268H311.699V98.681H301.125ZM53.294 112.75H54.892V127.268H53.294V112.75ZM49.639 117.714V112.835H51.237V127.013H49.639V119.312H47.344V117.714H49.639ZM45.763 113.175C45.763 115.436 45.644 117.391 45.44 119.074L48.959 125.466L47.548 126.214L44.998 121.454C44.267 124.361 42.992 125.993 41.054 126.401V124.701C43.349 123.953 44.131 119.584 44.148 113.107L45.763 113.175ZM69.3065 112.75H70.9045V127.268H69.3065V120.179H66.9435V127.013H65.3455V112.835H66.9435V118.598H69.3065V112.75ZM59.0385 124.905H60.9085C62.1495 124.905 63.4075 124.701 64.2915 124.344V125.823C63.4245 126.197 62.0305 126.401 60.7215 126.401H57.3895V113.277H63.6625V114.773H59.0385V124.905ZM84.8261 127.268V112.75H86.5261V127.268H84.8261ZM77.9751 126.588C75.3911 126.588 73.5721 124.446 73.5721 119.839C73.5721 115.232 75.3911 113.09 77.9751 113.09C80.5421 113.09 82.3611 115.232 82.3611 119.839C82.3611 124.446 80.5421 126.588 77.9751 126.588ZM77.9751 125.041C79.4881 125.041 80.6781 123.528 80.6781 119.839C80.6781 116.167 79.4881 114.637 77.9751 114.637C76.4281 114.637 75.2551 116.167 75.2551 119.839C75.2551 123.528 76.4281 125.041 77.9751 125.041ZM100.975 123.545V119.397H98.5946V117.901H100.975V115.861H98.5946V114.365H100.975V112.75H102.641V123.545H100.975ZM97.7446 113.107V120.961H89.5846V113.107H97.7446ZM96.0786 119.499V114.569H91.2336V119.499H96.0786ZM91.9986 125.568H102.947V127.081H90.2816V122.372H91.9986V125.568ZM116.97 112.75H118.653V127.268H116.97V119.584H113.23V118.003H116.97V112.75ZM111.054 113.175C111.054 115.164 110.901 116.966 110.629 118.581L115.168 125.517L113.757 126.435L110.136 120.723C109.15 124.157 107.399 126.214 105.104 126.401V124.684C107.892 124.225 109.32 119.21 109.337 113.107L111.054 113.175ZM138.903 113.005V120.451H126.425V113.005H128.091V115.045H137.237V113.005H138.903ZM128.091 118.955H137.237V116.541H128.091V118.955ZM139.923 121.998V123.562H133.531V127.608H131.797V123.562H125.422V121.998H139.923ZM149.527 124.99H155.936V126.571H141.435V124.99H147.81V121.505H142.387V113.277H154.967V121.505H149.527V124.99ZM144.07 114.858V119.941H153.284V114.858H144.07ZM158.501 118.377V115.096H169.279V114.11H158.501V112.92H170.911V116.218H160.133V117.187H171.115V118.377H158.501ZM157.447 120.655V119.431H171.948V120.655H157.447ZM158.45 127.098V123.834H169.313V122.899H158.416V121.709H170.945V124.956H160.082V125.908H171.2V127.098H158.45ZM191.366 113.005V120.451H178.888V113.005H180.554V115.045H189.7V113.005H191.366ZM180.554 118.955H189.7V116.541H180.554V118.955ZM192.386 121.998V123.562H185.994V127.608H184.26V123.562H177.885V121.998H192.386ZM209.078 115.589H207.038V117.629H209.078V119.057H207.038V120.774H205.355V112.75H207.038V114.144H209.078V115.589ZM202.907 116.592C202.907 118.785 201.173 120.281 198.436 120.281C195.682 120.281 193.948 118.785 193.948 116.592C193.948 114.416 195.682 112.903 198.436 112.903C201.173 112.903 202.907 114.416 202.907 116.592ZM195.631 116.592C195.631 118.037 196.77 118.887 198.436 118.887C200.102 118.887 201.224 118.037 201.224 116.592C201.224 115.147 200.102 114.297 198.436 114.297C196.77 114.297 195.631 115.147 195.631 116.592ZM201.122 121.25C204.556 121.25 207.259 122.083 207.259 124.259C207.259 126.435 204.556 127.268 201.122 127.268C197.705 127.268 194.985 126.435 194.985 124.259C194.985 122.083 197.705 121.25 201.122 121.25ZM201.122 125.874C203.553 125.874 205.457 125.381 205.457 124.259C205.457 123.154 203.553 122.644 201.122 122.644C198.708 122.644 196.787 123.154 196.787 124.259C196.787 125.381 198.708 125.874 201.122 125.874ZM215.792 112.716V115.045H219.651V116.541H210.233V115.045H214.075V112.716H215.792ZM225.091 118.632V120.247H223.051V127.268H221.368V112.75H223.051V118.632H225.091ZM214.942 117.697C217.305 117.697 218.971 119.465 218.971 122.134C218.971 124.803 217.305 126.571 214.942 126.571C212.579 126.571 210.896 124.803 210.896 122.134C210.896 119.465 212.579 117.697 214.942 117.697ZM214.942 125.109C216.285 125.109 217.339 123.987 217.339 122.134C217.339 120.281 216.285 119.159 214.942 119.159C213.582 119.159 212.528 120.281 212.528 122.134C212.528 123.987 213.582 125.109 214.942 125.109ZM237.788 112.75H239.471V127.268H237.788V112.75ZM232.127 114.824C232.11 116.507 231.94 118.054 231.668 119.414L236.411 125.279L235.085 126.282L231.175 121.301C230.172 124.344 228.438 126.146 226.245 126.401V124.735C228.829 124.259 230.359 120.213 230.427 114.824H226.585V113.277H235.85V114.824H232.127ZM254.434 120.043H260.86V121.454H246.359V120.043H252.768V118.428H247.396V112.92H259.806V118.428H254.434V120.043ZM249.079 114.28V117.068H258.14V114.28H249.079ZM254.842 122.423C254.723 122.933 254.553 123.392 254.298 123.8L260.384 125.806L259.84 127.251L253.397 124.939C251.867 126.384 249.436 127.081 247.073 127.081V125.602C249.878 125.602 252.649 124.378 253.159 122.151L254.842 122.423ZM268.254 112.716V115.045H272.113V116.541H262.695V115.045H266.537V112.716H268.254ZM277.553 118.632V120.247H275.513V127.268H273.83V112.75H275.513V118.632H277.553ZM267.404 117.697C269.767 117.697 271.433 119.465 271.433 122.134C271.433 124.803 269.767 126.571 267.404 126.571C265.041 126.571 263.358 124.803 263.358 122.134C263.358 119.465 265.041 117.697 267.404 117.697ZM267.404 125.109C268.747 125.109 269.801 123.987 269.801 122.134C269.801 120.281 268.747 119.159 267.404 119.159C266.044 119.159 264.99 120.281 264.99 122.134C264.99 123.987 266.044 125.109 267.404 125.109ZM279.421 118.377V112.75H281.121V116.881H291.984V118.377H279.421ZM278.384 121.471V119.975H292.885V121.471H278.384ZM279.387 127.098V122.763H281.104V125.602H292.137V127.098H279.387ZM40.663 139.926C40.663 138.583 41.462 137.495 42.771 137.24V138.192C42.023 138.396 41.632 138.957 41.632 139.824H42.601V141.796H40.663V139.926ZM49.9515 141.558C49.9005 142.748 49.7645 143.853 49.5605 144.873L54.1845 150.313L52.9095 151.384L49.0335 146.709C48.0305 149.48 46.2795 151.146 44.1035 151.401V149.752C46.5515 149.31 48.0645 145.961 48.2515 141.558H44.3585V139.994H48.2515V137.614H49.9685V139.994H53.6575V141.558H49.9515ZM55.8505 137.75H57.5335V152.268H55.8505V145.485H52.7395V143.904H55.8505V137.75ZM61.544 139.62C61.544 140.963 60.745 142.051 59.436 142.306V141.354C60.184 141.15 60.575 140.589 60.575 139.722H59.606V137.75H61.544V139.62ZM70.0506 143.258C66.5316 143.258 63.6416 142.442 63.6416 140.453C63.6416 138.481 66.5316 137.665 70.0506 137.665C73.5696 137.665 76.4596 138.481 76.4596 140.453C76.4596 142.442 73.5696 143.258 70.0506 143.258ZM70.0506 141.915C72.5836 141.915 74.6746 141.473 74.6746 140.453C74.6746 139.45 72.5836 138.991 70.0506 138.991C67.5176 138.991 65.4266 139.45 65.4266 140.453C65.4266 141.473 67.5176 141.915 70.0506 141.915ZM62.8086 145.757V144.397H77.3096V145.757H62.8086ZM63.8116 152.098V147.168H76.2896V152.098H63.8116ZM65.4946 150.755H74.6236V148.511H65.4946V150.755ZM95.6047 137.75H97.2027V152.268H95.6047V137.75ZM91.9497 142.714V137.835H93.5477V152.013H91.9497V144.312H89.6547V142.714H91.9497ZM88.0737 138.175C88.0737 140.436 87.9547 142.391 87.7507 144.074L91.2697 150.466L89.8587 151.214L87.3087 146.454C86.5777 149.361 85.3027 150.993 83.3647 151.401V149.701C85.6597 148.953 86.4417 144.584 86.4587 138.107L88.0737 138.175ZM111.617 137.75H113.215V152.268H111.617V145.179H109.254V152.013H107.656V137.835H109.254V143.598H111.617V137.75ZM101.349 149.905H103.219C104.46 149.905 105.718 149.701 106.602 149.344V150.823C105.735 151.197 104.341 151.401 103.032 151.401H99.7003V138.277H105.973V139.773H101.349V149.905ZM116.325 143.377V140.096H127.103V139.11H116.325V137.92H128.735V141.218H117.957V142.187H128.939V143.377H116.325ZM115.271 145.655V144.431H129.772V145.655H115.271ZM116.274 152.098V148.834H127.137V147.899H116.24V146.709H128.769V149.956H117.906V150.908H129.024V152.098H116.274ZM148.849 140.351H150.889V141.898H148.849V144.856H147.166V137.75H148.849V140.351ZM144.701 138.107V144.329H136.218V138.107H144.701ZM143.035 142.935V139.501H137.884V142.935H143.035ZM138.394 149.497V150.755H149.206V152.081H136.728V148.239H147.183V146.981H136.694V145.655H148.849V149.497H138.394ZM157.603 137.716V140.045H161.462V141.541H152.044V140.045H155.886V137.716H157.603ZM166.902 143.632V145.247H164.862V152.268H163.179V137.75H164.862V143.632H166.902ZM156.753 142.697C159.116 142.697 160.782 144.465 160.782 147.134C160.782 149.803 159.116 151.571 156.753 151.571C154.39 151.571 152.707 149.803 152.707 147.134C152.707 144.465 154.39 142.697 156.753 142.697ZM156.753 150.109C158.096 150.109 159.15 148.987 159.15 147.134C159.15 145.281 158.096 144.159 156.753 144.159C155.393 144.159 154.339 145.281 154.339 147.134C154.339 148.987 155.393 150.109 156.753 150.109ZM168.77 143.377V137.75H170.47V141.881H181.333V143.377H168.77ZM167.733 146.471V144.975H182.234V146.471H167.733ZM168.736 152.098V147.763H170.453V150.602H181.486V152.098H168.736ZM201.719 137.75V148.528H200.036V137.75H201.719ZM193.27 142.935C192.182 144.754 190.482 146.063 188.391 146.335V144.754C191.145 144.261 192.845 141.269 192.879 137.886L194.562 137.988C194.562 139.229 194.341 140.436 193.933 141.524L198.591 144.958L197.588 146.182L193.27 142.935ZM191.111 150.585H202.11V152.081H189.411V147.457H191.111V150.585ZM211.221 143.207C209.725 145.264 207.294 146.471 204.608 146.641V145.077C207.634 144.822 210.167 142.986 210.881 139.841H204.931V138.294H217.868V139.841H212.666C212.53 140.572 212.309 141.252 212.02 141.864L218.344 145.383L217.545 146.743L211.221 143.207ZM212.258 149.99H218.684V151.571H204.183V149.99H210.575V146.301H212.258V149.99ZM232.18 137.75H233.863V152.268H232.18V145.349H229.392C229.256 149.599 227.505 151.588 225.074 151.588C222.524 151.588 220.739 149.446 220.739 144.839C220.739 140.232 222.524 138.09 225.074 138.09C227.403 138.09 229.103 139.892 229.358 143.768H232.18V137.75ZM225.074 150.041C226.57 150.041 227.709 148.528 227.709 144.839C227.709 141.167 226.57 139.637 225.074 139.637C223.561 139.637 222.422 141.167 222.422 144.839C222.422 148.528 223.561 150.041 225.074 150.041ZM248.074 152.268V137.75H249.774V152.268H248.074ZM241.223 151.588C238.639 151.588 236.82 149.446 236.82 144.839C236.82 140.232 238.639 138.09 241.223 138.09C243.79 138.09 245.609 140.232 245.609 144.839C245.609 149.446 243.79 151.588 241.223 151.588ZM241.223 150.041C242.736 150.041 243.926 148.528 243.926 144.839C243.926 141.167 242.736 139.637 241.223 139.637C239.676 139.637 238.503 141.167 238.503 144.839C238.503 148.528 239.676 150.041 241.223 150.041ZM267.401 143.632V145.247H265.361V152.268H263.678V137.75H265.361V143.632H267.401ZM254.617 149.871H258.663C260.04 149.871 261.536 149.599 262.42 149.174V150.704C261.536 151.146 259.972 151.401 258.578 151.401H252.9V138.277H261.281V139.807H254.617V149.871ZM269.491 152.132C268.811 152.132 268.284 151.605 268.284 150.925C268.284 150.245 268.811 149.718 269.491 149.718C270.171 149.718 270.681 150.245 270.681 150.925C270.681 151.605 270.171 152.132 269.491 152.132Z" fill="#152375"/>
<path d="M126.496 225C113.846 225 104.496 215.95 104.496 203.6C104.496 191.25 113.846 182.2 126.496 182.2C139.146 182.2 148.496 191.25 148.496 203.6C148.496 215.95 139.146 225 126.496 225ZM126.496 216.8C133.896 216.8 139.396 211.25 139.396 203.6C139.396 195.9 133.896 190.4 126.496 190.4C119.096 190.4 113.596 195.9 113.596 203.6C113.596 211.25 119.096 216.8 126.496 216.8Z" fill="#93CDFF"/>
<rect x="183.5" y="181.5" width="1" height="45" fill="#D9D9D9"/>
<path d="M218.15 224L231.65 203.45L218.6 183.25H229.4L237.6 196.55L246.05 183.25H256.4L243.3 203.15L256.85 224H246.2L237.45 209.95L228.5 224H218.15Z" fill="#FF7676"/>
</svg>
