<svg width="158" height="24" viewBox="0 0 158 24" fill="none" xmlns="http://www.w3.org/2000/svg">
<path d="M5.49756 18C4.69756 18 3.93756 17.8267 3.21756 17.48C2.51089 17.12 1.93089 16.6133 1.47756 15.96C1.03756 15.2933 0.817558 14.5133 0.817558 13.62C0.817558 12.74 1.00422 11.8667 1.37756 11C1.75089 10.12 2.23756 9.27333 2.83756 8.46C3.45089 7.63333 4.11089 6.86667 4.81756 6.16C5.53756 5.45333 6.23756 4.84 6.91756 4.32C7.61089 3.78667 8.22422 3.37333 8.75756 3.08C9.30422 2.77333 9.70422 2.62 9.95756 2.62C10.2242 2.62 10.4976 2.73333 10.7776 2.96C11.0576 3.18667 11.2042 3.51333 11.2176 3.94C11.2176 4.12667 11.1642 4.34 11.0576 4.58C10.9509 4.82 10.7042 5.06 10.3176 5.3C9.98422 5.5 9.53756 5.79333 8.97756 6.18C8.43089 6.56667 7.85089 7.02 7.23756 7.54C6.62422 8.06 6.03756 8.64 5.47756 9.28C4.93089 9.90667 4.48422 10.5733 4.13756 11.28C3.79089 11.9867 3.61756 12.7133 3.61756 13.46C3.61756 14.0733 3.79756 14.54 4.15756 14.86C4.51756 15.1667 5.00422 15.32 5.61756 15.32C6.04422 15.32 6.55089 15.2 7.13756 14.96C7.73756 14.72 8.35089 14.4133 8.97756 14.04C9.60422 13.6533 10.1776 13.24 10.6976 12.8C11.2309 12.36 11.6442 11.94 11.9376 11.54C11.4309 11.6467 10.8709 11.7667 10.2576 11.9C9.65756 12.02 9.09756 12.1267 8.57756 12.22C8.05756 12.3 7.68422 12.34 7.45756 12.34C7.05756 12.34 6.72422 12.26 6.45756 12.1C6.19089 11.94 5.99089 11.7533 5.85756 11.54C5.72422 11.3133 5.65756 11.1 5.65756 10.9C5.65756 10.6733 5.74422 10.44 5.91756 10.2C6.09089 9.96 6.39089 9.80667 6.81756 9.74C7.09756 9.7 7.47756 9.64 7.95756 9.56C8.43756 9.46667 8.93756 9.38 9.45756 9.3C9.99089 9.20667 10.4776 9.12667 10.9176 9.06C11.3709 8.99333 11.7109 8.96 11.9376 8.96C13.6176 8.96 14.4576 9.9 14.4576 11.78C14.4576 12.14 14.2709 12.5867 13.8976 13.12C13.5242 13.64 13.0176 14.1867 12.3776 14.76C11.7509 15.32 11.0442 15.8467 10.2576 16.34C9.47089 16.8333 8.66422 17.2333 7.83756 17.54C7.02422 17.8467 6.24422 18 5.49756 18ZM18.3768 18.66C17.4301 18.66 16.6701 18.3267 16.0968 17.66C15.5234 16.98 15.2368 16.0733 15.2368 14.94C15.2368 14.58 15.2834 14.2133 15.3768 13.84C15.4834 13.4667 15.6101 13.12 15.7568 12.8C15.6768 12.68 15.6101 12.5267 15.5568 12.34C15.5168 12.14 15.4968 11.9067 15.4968 11.64C15.4968 10.7733 15.6501 9.98 15.9568 9.26C16.2634 8.52667 16.6768 7.89333 17.1968 7.36C17.7168 6.82667 18.2901 6.41333 18.9168 6.12C19.5434 5.82667 20.1768 5.68 20.8168 5.68C21.9101 5.68 22.8034 6.04667 23.4968 6.78C24.2034 7.51333 24.5568 8.65333 24.5568 10.2C24.5568 10.9733 24.4368 11.76 24.1968 12.56C23.9568 13.36 23.6301 14.1267 23.2168 14.86C22.8168 15.58 22.3501 16.2267 21.8168 16.8C21.2968 17.3733 20.7368 17.8267 20.1368 18.16C19.5501 18.4933 18.9634 18.66 18.3768 18.66ZM18.0568 11.9C18.1234 12.0467 18.1568 12.22 18.1568 12.42C18.1568 12.62 18.1168 12.8267 18.0368 13.04C17.9568 13.2533 17.8768 13.54 17.7968 13.9C17.7168 14.2467 17.6768 14.7467 17.6768 15.4C17.6768 15.5733 17.6968 15.72 17.7368 15.84C17.7901 15.9467 17.9034 16 18.0768 16C18.5301 16 18.9568 15.8533 19.3568 15.56C19.7701 15.2667 20.1368 14.88 20.4568 14.4C20.7901 13.92 21.0701 13.3867 21.2968 12.8C21.5368 12.2 21.7168 11.5933 21.8368 10.98C21.9701 10.3533 22.0368 9.77333 22.0368 9.24C22.0368 8.89333 21.9701 8.65333 21.8368 8.52C21.7034 8.38667 21.4701 8.32 21.1368 8.32C20.6834 8.32 20.2168 8.46667 19.7368 8.76C19.2701 9.04 18.8768 9.42667 18.5568 9.92C18.2368 10.4 18.0768 10.9467 18.0768 11.56C18.0768 11.68 18.0701 11.7933 18.0568 11.9ZM27.9979 18.66C27.0512 18.66 26.2912 18.3267 25.7179 17.66C25.1445 16.98 24.8579 16.0733 24.8579 14.94C24.8579 14.58 24.9045 14.2133 24.9979 13.84C25.1045 13.4667 25.2312 13.12 25.3779 12.8C25.2979 12.68 25.2312 12.5267 25.1779 12.34C25.1379 12.14 25.1179 11.9067 25.1179 11.64C25.1179 10.7733 25.2712 9.98 25.5779 9.26C25.8845 8.52667 26.2979 7.89333 26.8179 7.36C27.3379 6.82667 27.9112 6.41333 28.5379 6.12C29.1645 5.82667 29.7979 5.68 30.4379 5.68C31.5312 5.68 32.4245 6.04667 33.1179 6.78C33.8245 7.51333 34.1779 8.65333 34.1779 10.2C34.1779 10.9733 34.0579 11.76 33.8179 12.56C33.5779 13.36 33.2512 14.1267 32.8379 14.86C32.4379 15.58 31.9712 16.2267 31.4379 16.8C30.9179 17.3733 30.3579 17.8267 29.7579 18.16C29.1712 18.4933 28.5845 18.66 27.9979 18.66ZM27.6779 11.9C27.7445 12.0467 27.7779 12.22 27.7779 12.42C27.7779 12.62 27.7379 12.8267 27.6579 13.04C27.5779 13.2533 27.4979 13.54 27.4179 13.9C27.3379 14.2467 27.2979 14.7467 27.2979 15.4C27.2979 15.5733 27.3179 15.72 27.3579 15.84C27.4112 15.9467 27.5245 16 27.6979 16C28.1512 16 28.5779 15.8533 28.9779 15.56C29.3912 15.2667 29.7579 14.88 30.0779 14.4C30.4112 13.92 30.6912 13.3867 30.9179 12.8C31.1579 12.2 31.3379 11.5933 31.4579 10.98C31.5912 10.3533 31.6579 9.77333 31.6579 9.24C31.6579 8.89333 31.5912 8.65333 31.4579 8.52C31.3245 8.38667 31.0912 8.32 30.7579 8.32C30.3045 8.32 29.8379 8.46667 29.3579 8.76C28.8912 9.04 28.4979 9.42667 28.1779 9.92C27.8579 10.4 27.6979 10.9467 27.6979 11.56C27.6979 11.68 27.6912 11.7933 27.6779 11.9ZM42.9483 7.3C43.6817 5.55333 44.3283 3.75333 44.8883 1.9C44.995 1.52667 45.1483 1.24 45.3483 1.04C45.5617 0.839999 45.855 0.739999 46.2283 0.739999C46.535 0.739999 46.7683 0.833333 46.9283 1.02C47.0883 1.19333 47.1683 1.43333 47.1683 1.74C47.1683 1.99333 47.0617 2.44667 46.8483 3.1C46.635 3.74 46.375 4.55333 46.0683 5.54C45.7617 6.52667 45.455 7.66667 45.1483 8.96C44.8417 10.2533 44.5817 11.6733 44.3683 13.22C44.155 14.7667 44.0483 16.42 44.0483 18.18C44.0483 18.66 43.955 19.0533 43.7683 19.36C43.595 19.68 43.2883 19.84 42.8483 19.84C42.3683 19.84 42.015 19.6733 41.7883 19.34C41.575 19.0067 41.4683 18.58 41.4683 18.06C41.4683 17.0333 41.5017 16.18 41.5683 15.5C41.6483 14.8067 41.7283 14.2133 41.8083 13.72C41.155 14.84 40.4617 15.8067 39.7283 16.62C39.0083 17.42 38.315 18.0333 37.6483 18.46C36.9817 18.9 36.4083 19.12 35.9283 19.12C35.1417 19.12 34.5017 18.9 34.0083 18.46C33.515 18.02 33.2683 17.3533 33.2683 16.46C33.2683 15.7667 33.435 15.0533 33.7683 14.32C34.1017 13.5733 34.5417 12.84 35.0883 12.12C35.635 11.4 36.235 10.7267 36.8883 10.1C37.555 9.46 38.2217 8.9 38.8883 8.42C39.555 7.92667 40.175 7.54 40.7483 7.26C41.3217 6.98 41.7883 6.84 42.1483 6.84C42.5483 6.84 42.815 6.99333 42.9483 7.3ZM42.4883 8.38C42.4083 8.43333 42.3217 8.48667 42.2283 8.54C42.1483 8.58 42.0683 8.62667 41.9883 8.68C41.4817 9 40.9417 9.38667 40.3683 9.84C39.795 10.28 39.2283 10.7733 38.6683 11.32C38.1083 11.8533 37.595 12.4133 37.1283 13C36.675 13.5733 36.3083 14.1467 36.0283 14.72C35.7617 15.28 35.6283 15.82 35.6283 16.34C35.6283 16.4333 35.6683 16.5 35.7483 16.54C35.8283 16.58 35.9017 16.6 35.9683 16.6C36.435 16.6 36.935 16.3933 37.4683 15.98C38.015 15.5667 38.5683 14.9933 39.1283 14.26C39.7017 13.5133 40.2683 12.64 40.8283 11.64C41.4017 10.64 41.955 9.55333 42.4883 8.38ZM58.6294 18.72C58.0828 18.72 57.6694 18.6333 57.3894 18.46C57.1228 18.3 56.9428 18.1133 56.8494 17.9C56.7694 17.6867 56.7294 17.52 56.7294 17.4C56.7294 17.0133 56.9028 16.6933 57.2494 16.44C57.6094 16.1733 58.0094 16.04 58.4494 16.04C58.8761 16.04 59.4028 15.98 60.0294 15.86C60.6694 15.7267 61.3428 15.54 62.0494 15.3C62.7694 15.06 63.4561 14.76 64.1094 14.4C64.7761 14.04 65.3561 13.6267 65.8494 13.16C66.3428 12.6933 66.6828 12.18 66.8694 11.62C66.5761 11.5667 66.2828 11.5267 65.9894 11.5C65.6961 11.46 65.4028 11.44 65.1094 11.44C64.1228 11.44 63.1028 11.5467 62.0494 11.76C60.9961 11.9733 59.9494 12.18 58.9094 12.38C58.6561 12.4333 58.4294 12.3867 58.2294 12.24C58.2028 12.52 58.1761 12.78 58.1494 13.02C58.1361 13.2467 58.1228 13.4933 58.1094 13.76C58.0828 14.4133 58.0228 14.92 57.9294 15.28C57.8494 15.6267 57.7561 15.8733 57.6494 16.02C57.5428 16.1667 57.4294 16.2533 57.3094 16.28C57.1894 16.3067 57.0761 16.32 56.9694 16.32C56.9294 16.32 56.9028 16.32 56.8894 16.32C56.6494 16.32 56.4228 16.26 56.2094 16.14C55.9961 16.02 55.8228 15.7733 55.6894 15.4C55.5561 15.0133 55.4894 14.4333 55.4894 13.66C55.4894 11.2067 55.7561 9.12667 56.2894 7.42C56.8361 5.7 57.6161 4.39333 58.6294 3.5C59.6561 2.59333 60.8828 2.14 62.3094 2.14C63.4294 2.14 64.3028 2.44667 64.9294 3.06C65.5561 3.66 65.8694 4.52667 65.8694 5.66C65.8694 6.23333 65.7561 6.80667 65.5294 7.38C65.3028 7.95333 64.9828 8.52 64.5694 9.08C64.8228 9.02667 65.0694 8.98667 65.3094 8.96C65.5494 8.92 65.7761 8.9 65.9894 8.9C67.2428 8.9 68.1694 9.12667 68.7694 9.58C69.3694 10.02 69.6694 10.6133 69.6694 11.36C69.6694 12.1067 69.4561 12.8067 69.0294 13.46C68.6161 14.1133 68.0628 14.7133 67.3694 15.26C66.6894 15.7933 65.9361 16.28 65.1094 16.72C64.2828 17.1467 63.4561 17.5133 62.6294 17.82C61.8028 18.1133 61.0361 18.3333 60.3294 18.48C59.6228 18.64 59.0561 18.72 58.6294 18.72ZM58.4694 10.18C58.5494 10.14 58.6361 10.1133 58.7294 10.1C59.9294 9.9 60.8494 9.62667 61.4894 9.28C62.1294 8.93333 62.5694 8.5 62.8094 7.98C63.0494 7.46 63.1694 6.84 63.1694 6.12C63.1694 5.93333 63.1428 5.73333 63.0894 5.52C63.0361 5.30667 62.9294 5.12667 62.7694 4.98C62.6228 4.82 62.3961 4.74 62.0894 4.74C61.0761 4.74 60.2828 5.2 59.7094 6.12C59.1494 7.02667 58.7361 8.38 58.4694 10.18ZM73.4429 23.5C72.6962 23.5 72.0162 23.4533 71.4029 23.36C70.7895 23.28 70.1895 23.1467 69.6029 22.96C69.0162 22.7733 68.3829 22.5267 67.7029 22.22C67.4229 22.0867 67.1895 21.9467 67.0029 21.8C66.8162 21.6533 66.7229 21.4333 66.7229 21.14C66.7229 20.7133 66.8562 20.3867 67.1229 20.16C67.3762 19.9467 67.7295 19.84 68.1829 19.84C68.4229 19.84 68.7295 19.92 69.1029 20.08C69.4762 20.2533 69.9029 20.4467 70.3829 20.66C70.8762 20.8867 71.4229 21.08 72.0229 21.24C72.6229 21.4133 73.2695 21.5 73.9629 21.5C74.6695 21.5 75.3295 21.2067 75.9429 20.62C76.5562 20.0333 77.0495 19.2067 77.4229 18.14C77.8095 17.0867 78.0029 15.84 78.0029 14.4C78.0029 14.0667 77.9962 13.7067 77.9829 13.32C77.9695 12.92 77.9562 12.5 77.9429 12.06C77.4629 12.9667 76.9429 13.8133 76.3829 14.6C75.8229 15.3867 75.2429 16.0267 74.6429 16.52C74.0562 17 73.4629 17.24 72.8629 17.24C72.1295 17.24 71.5962 17.0667 71.2629 16.72C70.9429 16.36 70.7829 15.7933 70.7829 15.02C70.7829 14.3667 70.8295 13.6533 70.9229 12.88C71.0295 12.0933 71.1695 11.3 71.3429 10.5C71.5162 9.7 71.7162 8.94 71.9429 8.22C72.1829 7.48667 72.4362 6.85333 72.7029 6.32C72.9029 5.93333 73.2095 5.74 73.6229 5.74C73.8895 5.74 74.1562 5.86667 74.4229 6.12C74.7029 6.37333 74.8429 6.71333 74.8429 7.14C74.8429 7.38 74.7829 7.72667 74.6629 8.18C74.5429 8.63333 74.3962 9.14667 74.2229 9.72C74.0629 10.28 73.8962 10.8733 73.7229 11.5C73.5495 12.1133 73.4029 12.72 73.2829 13.32C73.1629 13.9067 73.1029 14.44 73.1029 14.92C73.1029 14.9733 73.1429 15 73.2229 15C73.3829 15 73.5962 14.8667 73.8629 14.6C74.1429 14.32 74.4495 13.96 74.7829 13.52C75.1295 13.0667 75.4762 12.5733 75.8229 12.04C76.1829 11.4933 76.5295 10.9533 76.8629 10.42C77.1962 9.88667 77.4962 9.4 77.7629 8.96C77.7229 8.74667 77.6962 8.56 77.6829 8.4C77.6829 8.22667 77.6829 8.08 77.6829 7.96C77.6829 7.41333 77.7762 6.96 77.9629 6.6C78.1629 6.24 78.5495 6.06 79.1229 6.06C79.4962 6.06 79.7829 6.2 79.9829 6.48C80.1829 6.74667 80.2829 7.12667 80.2829 7.62C80.2829 7.83333 80.2495 8.08 80.1829 8.36C80.1162 8.62667 79.9829 9.05333 79.7829 9.64L80.0029 9.02C80.1229 10.22 80.2229 11.2867 80.3029 12.22C80.3962 13.1533 80.4429 14.08 80.4429 15C80.4429 16.7333 80.1495 18.2333 79.5629 19.5C78.9895 20.78 78.1762 21.7667 77.1229 22.46C76.0829 23.1533 74.8562 23.5 73.4429 23.5ZM84.4897 18.68C83.6631 18.68 82.9964 18.3933 82.4897 17.82C81.9831 17.2333 81.7297 16.2933 81.7297 15C81.7297 14.1733 81.8231 13.3467 82.0097 12.52C82.2097 11.68 82.4831 10.8867 82.8297 10.14C83.1897 9.38 83.6031 8.70667 84.0697 8.12C84.5497 7.53333 85.0764 7.07333 85.6497 6.74C86.2231 6.39333 86.8164 6.22 87.4297 6.22C88.4697 6.22 89.2831 6.5 89.8697 7.06C90.4564 7.62 90.7497 8.33333 90.7497 9.2C90.7497 9.86667 90.5631 10.4733 90.1897 11.02C89.8297 11.5533 89.3364 12.0333 88.7097 12.46C88.0831 12.8867 87.3831 13.2733 86.6097 13.62C85.8364 13.9667 85.0431 14.28 84.2297 14.56C84.1631 15.04 84.1297 15.4667 84.1297 15.84C84.1297 16.0667 84.2564 16.18 84.5097 16.18C85.1097 16.18 85.7497 16.0867 86.4297 15.9C87.1231 15.7 87.8231 15.4467 88.5297 15.14C89.2364 14.82 89.9164 14.4933 90.5697 14.16C91.2231 13.8133 91.8164 13.4867 92.3497 13.18C92.8964 12.86 93.3431 12.6067 93.6897 12.42C94.0497 12.22 94.2831 12.12 94.3897 12.12C94.6831 12.12 94.8964 12.2067 95.0297 12.38C95.1631 12.5533 95.2297 12.74 95.2297 12.94C95.2297 13.0333 95.0497 13.24 94.6897 13.56C94.3431 13.88 93.8631 14.26 93.2497 14.7C92.6497 15.1267 91.9697 15.5733 91.2097 16.04C90.4631 16.4933 89.6831 16.9267 88.8697 17.34C88.0697 17.74 87.2897 18.06 86.5297 18.3C85.7831 18.5533 85.1031 18.68 84.4897 18.68ZM84.5697 12.78C85.1164 12.46 85.6564 12.1267 86.1897 11.78C86.7364 11.42 87.1897 11.02 87.5497 10.58C87.9097 10.1267 88.0897 9.6 88.0897 9C88.0897 8.82667 88.0431 8.71333 87.9497 8.66C87.8564 8.59333 87.7231 8.56 87.5497 8.56C87.0831 8.56 86.6564 8.76667 86.2697 9.18C85.8964 9.59333 85.5631 10.1267 85.2697 10.78C84.9897 11.42 84.7564 12.0867 84.5697 12.78ZM99.5708 18.86C98.9042 18.86 98.4308 18.7 98.1508 18.38C97.8842 18.0733 97.7508 17.7533 97.7508 17.42C97.7508 17.1267 97.8175 16.8533 97.9508 16.6C98.0975 16.3333 98.3508 16.12 98.7108 15.96C99.0708 15.8 99.5842 15.7333 100.251 15.76C100.918 15.4133 101.591 14.9867 102.271 14.48C102.964 13.9733 103.624 13.4133 104.251 12.8C104.891 12.1867 105.458 11.56 105.951 10.92C106.458 10.2667 106.851 9.62667 107.131 9C107.424 8.36 107.571 7.76 107.571 7.2C107.571 6.6 107.384 6.14667 107.011 5.84C106.651 5.53333 106.144 5.38 105.491 5.38C104.931 5.38 104.418 5.44667 103.951 5.58C103.484 5.7 103.071 5.84667 102.711 6.02C102.351 6.19333 102.044 6.34667 101.791 6.48C101.551 6.6 101.358 6.66 101.211 6.66C100.958 6.66 100.731 6.55333 100.531 6.34C100.331 6.11333 100.271 5.82 100.351 5.46C100.404 5.22 100.564 4.93333 100.831 4.6C101.098 4.26667 101.464 3.93333 101.931 3.6C102.398 3.26667 102.951 2.99333 103.591 2.78C104.244 2.55333 104.978 2.44 105.791 2.44C107.098 2.44 108.158 2.84 108.971 3.64C109.798 4.44 110.211 5.66 110.211 7.3C110.211 8.38 109.924 9.44 109.351 10.48C108.791 11.52 108.044 12.5067 107.111 13.44C106.178 14.3733 105.158 15.2267 104.051 16C105.051 15.96 105.831 15.9 106.391 15.82C106.951 15.7267 107.398 15.6467 107.731 15.58C108.078 15.5133 108.411 15.48 108.731 15.48C109.184 15.48 109.538 15.5733 109.791 15.76C110.044 15.9467 110.171 16.2133 110.171 16.56C110.171 16.8133 110.104 17.06 109.971 17.3C109.851 17.54 109.611 17.76 109.251 17.96C108.891 18.1467 108.371 18.2933 107.691 18.4C107.011 18.52 106.118 18.58 105.011 18.58C104.358 18.58 103.684 18.5733 102.991 18.56C102.311 18.5467 101.651 18.5267 101.011 18.5C100.638 18.6333 100.344 18.7267 100.131 18.78C99.9308 18.8333 99.7442 18.86 99.5708 18.86ZM118.988 18.34C118.108 18.34 117.288 18.12 116.528 17.68C115.768 17.2267 115.155 16.56 114.688 15.68C114.222 14.8 113.988 13.7067 113.988 12.4C113.988 11.52 114.142 10.68 114.448 9.88C114.755 9.06667 115.102 8.34667 115.488 7.72C115.422 7.54667 115.388 7.34667 115.388 7.12C115.388 6.6 115.535 6.08667 115.828 5.58C116.135 5.06 116.535 4.58667 117.028 4.16C117.535 3.73333 118.102 3.39333 118.728 3.14C119.355 2.88667 119.995 2.76 120.648 2.76C121.662 2.76 122.555 3.01333 123.328 3.52C124.102 4.02667 124.708 4.73333 125.148 5.64C125.588 6.53333 125.808 7.56667 125.808 8.74C125.808 10.1533 125.622 11.4467 125.248 12.62C124.888 13.7933 124.388 14.8067 123.748 15.66C123.122 16.5133 122.395 17.1733 121.568 17.64C120.755 18.1067 119.895 18.34 118.988 18.34ZM119.108 5.9C119.135 5.98 119.148 6.07333 119.148 6.18C119.148 6.38 119.108 6.54667 119.028 6.68C118.948 6.81333 118.842 6.96 118.708 7.12C118.535 7.32 118.335 7.62667 118.108 8.04C117.895 8.44 117.688 8.90667 117.488 9.44C117.288 9.97333 117.122 10.5267 116.988 11.1C116.868 11.66 116.808 12.1933 116.808 12.7C116.808 13.5933 116.975 14.2933 117.308 14.8C117.642 15.3067 118.135 15.56 118.788 15.56C119.335 15.56 119.862 15.38 120.368 15.02C120.888 14.66 121.348 14.1733 121.748 13.56C122.148 12.9333 122.462 12.22 122.688 11.42C122.928 10.62 123.048 9.77333 123.048 8.88C123.048 8.24 122.962 7.66 122.788 7.14C122.615 6.62 122.368 6.20667 122.048 5.9C121.728 5.59333 121.348 5.44 120.908 5.44C120.548 5.44 120.215 5.48667 119.908 5.58C119.615 5.66 119.348 5.76667 119.108 5.9ZM128.93 18.86C128.264 18.86 127.79 18.7 127.51 18.38C127.244 18.0733 127.11 17.7533 127.11 17.42C127.11 17.1267 127.177 16.8533 127.31 16.6C127.457 16.3333 127.71 16.12 128.07 15.96C128.43 15.8 128.944 15.7333 129.61 15.76C130.277 15.4133 130.95 14.9867 131.63 14.48C132.324 13.9733 132.984 13.4133 133.61 12.8C134.25 12.1867 134.817 11.56 135.31 10.92C135.817 10.2667 136.21 9.62667 136.49 9C136.784 8.36 136.93 7.76 136.93 7.2C136.93 6.6 136.744 6.14667 136.37 5.84C136.01 5.53333 135.504 5.38 134.85 5.38C134.29 5.38 133.777 5.44667 133.31 5.58C132.844 5.7 132.43 5.84667 132.07 6.02C131.71 6.19333 131.404 6.34667 131.15 6.48C130.91 6.6 130.717 6.66 130.57 6.66C130.317 6.66 130.09 6.55333 129.89 6.34C129.69 6.11333 129.63 5.82 129.71 5.46C129.764 5.22 129.924 4.93333 130.19 4.6C130.457 4.26667 130.824 3.93333 131.29 3.6C131.757 3.26667 132.31 2.99333 132.95 2.78C133.604 2.55333 134.337 2.44 135.15 2.44C136.457 2.44 137.517 2.84 138.33 3.64C139.157 4.44 139.57 5.66 139.57 7.3C139.57 8.38 139.284 9.44 138.71 10.48C138.15 11.52 137.404 12.5067 136.47 13.44C135.537 14.3733 134.517 15.2267 133.41 16C134.41 15.96 135.19 15.9 135.75 15.82C136.31 15.7267 136.757 15.6467 137.09 15.58C137.437 15.5133 137.77 15.48 138.09 15.48C138.544 15.48 138.897 15.5733 139.15 15.76C139.404 15.9467 139.53 16.2133 139.53 16.56C139.53 16.8133 139.464 17.06 139.33 17.3C139.21 17.54 138.97 17.76 138.61 17.96C138.25 18.1467 137.73 18.2933 137.05 18.4C136.37 18.52 135.477 18.58 134.37 18.58C133.717 18.58 133.044 18.5733 132.35 18.56C131.67 18.5467 131.01 18.5267 130.37 18.5C129.997 18.6333 129.704 18.7267 129.49 18.78C129.29 18.8333 129.104 18.86 128.93 18.86ZM149.582 19.56C149.115 19.56 148.775 19.4 148.562 19.08C148.362 18.7733 148.262 18.3733 148.262 17.88C148.262 17.3467 148.302 16.8733 148.382 16.46C148.475 16.0467 148.582 15.6267 148.702 15.2C148.049 15.2533 147.389 15.3067 146.722 15.36C146.055 15.4 145.389 15.4333 144.722 15.46C144.482 15.6467 144.229 15.7933 143.962 15.9C143.695 16.0067 143.389 16.06 143.042 16.06C142.535 16.06 142.135 15.9533 141.842 15.74C141.549 15.5267 141.402 15.1867 141.402 14.72C141.402 14.1867 141.562 13.7933 141.882 13.54C142.215 13.2733 142.635 13.0867 143.142 12.98C143.809 12.1667 144.535 11.3533 145.322 10.54C146.109 9.72667 146.889 8.92 147.662 8.12C148.435 7.32 149.129 6.53333 149.742 5.76C150.369 4.97333 150.842 4.20667 151.162 3.46C151.322 3.08667 151.542 2.82667 151.822 2.68C152.115 2.52 152.429 2.44 152.762 2.44C153.229 2.44 153.542 2.62 153.702 2.98C153.875 3.34 153.962 3.77333 153.962 4.28C153.962 4.4 153.915 4.70667 153.822 5.2C153.729 5.68 153.595 6.3 153.422 7.06C153.262 7.80667 153.075 8.64 152.862 9.56C152.662 10.4667 152.455 11.4067 152.242 12.38C153.122 12.2867 153.882 12.2133 154.522 12.16C155.162 12.0933 155.569 12.06 155.742 12.06C156.129 12.06 156.442 12.1 156.682 12.18C156.922 12.26 157.042 12.46 157.042 12.78C157.042 13.0733 156.855 13.32 156.482 13.52C156.122 13.7067 155.729 13.8733 155.302 14.02C154.875 14.1667 154.362 14.3133 153.762 14.46C153.162 14.6067 152.462 14.74 151.662 14.86C151.529 15.4067 151.395 15.9267 151.262 16.42C151.129 16.9133 151.002 17.48 150.882 18.12C150.789 18.5467 150.649 18.8933 150.462 19.16C150.289 19.4267 149.995 19.56 149.582 19.56ZM150.302 8.54C149.649 9.34 148.969 10.14 148.262 10.94C147.569 11.7267 146.902 12.44 146.262 13.08C146.755 13.0133 147.255 12.9533 147.762 12.9C148.282 12.8467 148.802 12.7933 149.322 12.74L150.302 8.54Z" fill="#A38342"/>
</svg>
