<?xml version="1.0" encoding="UTF-8"?>
<svg xmlns="http://www.w3.org/2000/svg" xmlns:xlink="http://www.w3.org/1999/xlink" version="1.1" viewBox="0 0 390 511">
  <!-- Generator: Adobe Illustrator 29.0.1, SVG Export Plug-In . SVG Version: 2.1.0 Build 192)  -->
  <defs>
    <style>
      .st0 {
        mask: url(#mask);
      }

      .st1 {
        fill: #d8444f;
      }

      .st2 {
        fill: #964242;
      }

      .st3 {
        stroke: #023523;
      }

      .st3, .st4, .st5, .st6, .st7, .st8, .st9, .st10, .st11, .st12, .st13, .st14, .st15, .st16, .st17, .st18, .st19, .st20 {
        stroke-miterlimit: 10;
      }

      .st3, .st21, .st22, .st23, .st24 {
        stroke-width: .6px;
      }

      .st3, .st5, .st6, .st7, .st8, .st10, .st11, .st12, .st15, .st16, .st17, .st18, .st20, .st25, .st26, .st27, .st28 {
        fill: none;
      }

      .st4 {
        fill: #e00e0e;
      }

      .st4, .st29, .st30, .st21, .st31, .st32, .st33, .st8, .st34, .st9, .st10, .st11, .st12, .st22, .st35, .st13, .st14, .st19, .st36, .st23, .st25, .st24, .st37, .st38, .st26, .st27, .st39, .st28 {
        stroke: #0e0e0e;
      }

      .st4, .st29, .st34, .st14, .st26 {
        stroke-width: .8px;
      }

      .st29, .st30 {
        fill: #1f7f64;
      }

      .st29, .st30, .st21, .st31, .st32, .st33, .st34, .st22, .st35, .st40, .st41, .st42, .st36, .st23, .st25, .st24, .st37, .st38, .st26, .st27, .st43, .st39, .st28 {
        stroke-linecap: round;
        stroke-linejoin: round;
      }

      .st30, .st31, .st32, .st33, .st42, .st27 {
        stroke-width: .8px;
      }

      .st21 {
        fill: #3bb28d;
      }

      .st44 {
        mix-blend-mode: multiply;
        opacity: .4;
      }

      .st31 {
        fill: #248466;
      }

      .st32 {
        fill: #0a4c36;
      }

      .st45 {
        fill: url(#_무제_그라디언트);
      }

      .st5 {
        stroke-width: 2.8px;
      }

      .st5, .st6, .st7, .st15, .st16 {
        stroke: #fff;
      }

      .st46 {
        fill: #2f9170;
      }

      .st6 {
        stroke-width: .7px;
      }

      .st6, .st7 {
        opacity: .2;
      }

      .st6, .st7, .st47 {
        isolation: isolate;
      }

      .st7 {
        stroke-width: 1.2px;
      }

      .st33, .st34 {
        fill: #30a07d;
      }

      .st8, .st9, .st35, .st13, .st40, .st36, .st37, .st38, .st39, .st28 {
        stroke-width: .6px;
      }

      .st9 {
        fill: #a37b5a;
      }

      .st48 {
        mask: url(#mask-2);
      }

      .st49 {
        mask: url(#mask-3);
      }

      .st50 {
        mask: url(#mask-4);
      }

      .st51 {
        mask: url(#mask-5);
      }

      .st52 {
        mask: url(#mask-1);
      }

      .st10 {
        stroke-width: .7px;
      }

      .st11 {
        stroke-width: .7px;
      }

      .st12, .st17, .st19 {
        stroke-width: .7px;
      }

      .st22, .st35 {
        fill: #195140;
      }

      .st53 {
        fill: url(#_무제_그라디언트_2);
      }

      .st13 {
        fill: #efc867;
      }

      .st14 {
        fill: #ff5252;
      }

      .st54 {
        fill: #8e6549;
      }

      .st55, .st40, .st41, .st42 {
        fill: #fff;
      }

      .st15 {
        stroke-width: .4px;
      }

      .st16 {
        stroke-width: .6px;
      }

      .st17, .st18 {
        stroke: #a37b5a;
      }

      .st18 {
        stroke-width: 1.1px;
      }

      .st19 {
        fill: #a53434;
      }

      .st20 {
        stroke: #634834;
        stroke-width: .4px;
      }

      .st40, .st41, .st42, .st43 {
        stroke: #1e1e1e;
      }

      .st56 {
        opacity: .5;
      }

      .st41, .st43 {
        stroke-width: .8px;
      }

      .st36, .st23 {
        fill: #368770;
      }

      .st25 {
        stroke-width: .3px;
      }

      .st24, .st37 {
        fill: #114231;
      }

      .st57 {
        fill: #996b4a;
      }

      .st58 {
        fill: #bc3b3b;
      }

      .st38 {
        fill: #30755e;
      }

      .st59 {
        fill: #0e0e0e;
      }

      .st43 {
        fill: #20a078;
      }

      .st39 {
        fill: #aa4d4d;
      }
    </style>
    <mask id="mask" x="-37.6" y="278" width="181.7" height="179.1" maskUnits="userSpaceOnUse">
      <g id="mask0_1002_11234">
        <path class="st55" d="M62.6,388.4c10.7-8.6,12.4-24.3,3.8-35-8.6-10.7-24.3-12.4-35-3.8-10.7,8.6-12.4,24.3-3.8,35,8.6,10.7,24.3,12.4,35,3.8Z"/>
      </g>
    </mask>
    <mask id="mask-1" x="-105.8" y="-77.6" width="515.9" height="599.1" maskUnits="userSpaceOnUse">
      <g id="mask1_1002_11234">
        <path class="st55" d="M309.5,82.6v172.4l-109.1,92.2-116.8-99.6V82.6h226ZM316.4,75.7H76.6v189.3l123.8,91.1,115.9-85.2V75.7h0Z"/>
      </g>
    </mask>
    <mask id="mask-2" x="-16.3" y="220.3" width="433.5" height="258.4" maskUnits="userSpaceOnUse">
      <g id="mask2_1002_11234">
        <path class="st55" d="M345,435.9H56v-210l144.5,118.4,144.5-118.4v210Z"/>
      </g>
    </mask>
    <linearGradient id="_무제_그라디언트" data-name="무제 그라디언트" x1="52.9" y1="224.2" x2="350.6" y2="224.2" gradientTransform="translate(0 511.1) scale(1 -1)" gradientUnits="userSpaceOnUse">
      <stop offset="0" stop-color="#967634"/>
      <stop offset="0" stop-color="#9d7d3b"/>
      <stop offset=".1" stop-color="#b0904e"/>
      <stop offset=".2" stop-color="#d0b06f"/>
      <stop offset=".3" stop-color="#ffdf9e"/>
      <stop offset=".3" stop-color="#f4d493"/>
      <stop offset=".3" stop-color="#d7b776"/>
      <stop offset=".4" stop-color="#c0a05f"/>
      <stop offset=".4" stop-color="#af8f4e"/>
      <stop offset=".5" stop-color="#a68645"/>
      <stop offset=".5" stop-color="#a38342"/>
      <stop offset=".6" stop-color="#a58544"/>
      <stop offset=".7" stop-color="#af8f4e"/>
      <stop offset=".7" stop-color="#bf9f5e"/>
      <stop offset=".8" stop-color="#d5b574"/>
      <stop offset=".8" stop-color="#e4c483"/>
      <stop offset=".8" stop-color="#cdad6c"/>
      <stop offset=".9" stop-color="#aa8a48"/>
      <stop offset="1" stop-color="#947433"/>
      <stop offset="1" stop-color="#8d6d2b"/>
    </linearGradient>
    <mask id="mask-3" x="-16.3" y="220.3" width="433.5" height="258.4" maskUnits="userSpaceOnUse">
      <g id="mask3_1002_11234">
        <path class="st55" d="M56,435.9l124.9-105.2c11.3-9.5,27.8-9.5,39.2,0l124.9,105.2H56Z"/>
      </g>
    </mask>
    <linearGradient id="_무제_그라디언트_2" data-name="무제 그라디언트 2" x1="76.9" y1="163.5" x2="385.3" y2="-13.3" gradientTransform="translate(0 511.1) scale(1 -1)" gradientUnits="userSpaceOnUse">
      <stop offset=".3" stop-color="#ffdf9e"/>
      <stop offset=".3" stop-color="#fbdb9a"/>
      <stop offset=".3" stop-color="#d5b574"/>
      <stop offset=".4" stop-color="#b99958"/>
      <stop offset=".5" stop-color="#a88847"/>
      <stop offset=".5" stop-color="#a38342"/>
      <stop offset=".6" stop-color="#a58544"/>
      <stop offset=".7" stop-color="#af8f4e"/>
      <stop offset=".7" stop-color="#bf9f5e"/>
      <stop offset=".8" stop-color="#d5b574"/>
      <stop offset=".8" stop-color="#e4c483"/>
      <stop offset=".8" stop-color="#cdad6c"/>
      <stop offset=".9" stop-color="#aa8a48"/>
      <stop offset="1" stop-color="#947433"/>
      <stop offset="1" stop-color="#8d6d2b"/>
    </linearGradient>
    <mask id="mask-4" x="-8.9" y="0" width="81.3" height="81.7" maskUnits="userSpaceOnUse">
      <g id="mask4_1002_11234">
        <path class="st55" d="M39.5,1.1L-8.9,33.3l32.2,48.4,48.4-32.2L39.5,1.1Z"/>
      </g>
    </mask>
    <mask id="mask-5" x="300.6" y="452.1" width="75.7" height="61.3" maskUnits="userSpaceOnUse">
      <g id="mask5_1002_11234">
        <path class="st55" d="M357.8,496.1c6.5-13.9,11.6-21.1,18.5-31l-28.6-13-11.9,30.2-10.6-2.3c-4.1-.9-7.8-2.9-10.6-6-.2-.2-.3-.3-.5-.5-3-3.5-3.3-6.7-3.8-8.6l-3.8,18.2c0,.4-.2.8-.3,1.2-2,7.8,3.4,15.6,11.4,16.8,7.4,1,11,.7,21.2,7.2,0,0,0,0,.1,0,5.5,3.6,12.8,1.3,15.4-4.7,1.1-2.5,2.2-5,3.4-7.6h0Z"/>
      </g>
    </mask>
  </defs>
  <g class="st47">
    <g id="_레이어_1" data-name="레이어_1">
      <path class="st24" d="M123.3,48.7c-2.9,1.6-5.7,2.3-7.3,2,.7-1.5,2.8-3.5,5.7-5.1,2.9-1.6,8.7-4,10.4-3.7-.7,1.5-5.9,5.2-8.8,6.7h0Z"/>
      <path class="st22" d="M120.2,56c-4,1.9-7.8,3-9.8,3.1,1.3-1.5,4.6-3.6,8.6-5.5,4-1.9,12.2-5,14.2-5.1-1.3,1.5-9,5.6-13,7.5Z"/>
      <path class="st21" d="M113.7,67.6c-4.8,2.2-9.2,3.4-11.6,3.4,1.5-1.9,5.3-4.5,10.1-6.7,4.8-2.2,14.3-5.8,16.7-5.8-1.5,1.9-10.5,6.8-15.2,9.1Z"/>
      <path class="st23" d="M106.1,78.6c-4.8,2.2-9.2,3.4-11.6,3.4,1.5-1.9,5.3-4.5,10.1-6.7,4.8-2.2,14.3-5.8,16.7-5.8-1.5,1.9-10.5,6.8-15.2,9.1Z"/>
      <path class="st22" d="M97.3,90.5c-4.4,2.1-8.6,3.2-10.8,3,1.4-1.8,4.9-4.3,9.3-6.3,4.4-2.1,13.4-5.4,15.6-5.2-1.4,1.8-9.7,6.5-14.1,8.5h0Z"/>
      <path class="st21" d="M110.1,49c-.3,4.4,0,8.3.6,10.2.9-1.8,1.8-5.6,2.1-10,.3-4.4.5-13.2-.2-15-.9,1.8-2.1,10.4-2.5,14.8h0Z"/>
      <path class="st22" d="M101.5,59.2c-.4,5.2,0,9.8.9,12,1.2-2.1,2.3-6.5,2.7-11.8.4-5.2.4-15.5-.5-17.7-1.2,2.1-2.7,12.2-3.2,17.4h0Z"/>
      <path class="st24" d="M93.9,70.2c-.4,5.2,0,9.8.9,12,1.2-2.1,2.3-6.5,2.7-11.8.4-5.2.4-15.5-.5-17.7-1.2,2.1-2.7,12.2-3.2,17.4h0Z"/>
      <path class="st21" d="M85.8,82.6c-.4,4.9,0,9.1,1,11.2,1.2-1.9,2.3-6.1,2.7-10.9.4-4.9.4-14.4-.6-16.5-1.2,1.9-2.7,11.3-3.1,16.2Z"/>
      <path class="st23" d="M122.8,31.4c-1.6,1.1-4.7,7.9-5.8,11.5-.9,2.8-1.2,5.5-1,7.4l-62.1,89.1c.4.2,1.4.9,1.8,1.1l61.1-89.1c1.5-1.3,3.1-4,4.1-7.2,1.2-3.6,2.7-10.9,2-12.7h0Z"/>
      <path class="st37" d="M378.4,342.7c-2.8,2.3-5.7,3.6-7.6,3.6.4-1.8,2.4-4.4,5.2-6.6,2.8-2.3,8.7-6,10.6-6.1-.4,1.8-5.4,6.8-8.2,9.1Z"/>
      <path class="st35" d="M376.5,351.3c-4,2.8-7.9,4.8-10,5.3,1.2-1.9,4.3-4.8,8.3-7.7,4-2.8,12.2-7.9,14.4-8.3-1.2,1.9-8.7,7.9-12.7,10.8Z"/>
      <path class="st36" d="M371.7,365.3c-4.7,3.3-9.3,5.6-12,6,1.3-2.3,4.9-5.9,9.6-9.3,4.7-3.3,14.5-9.2,17.1-9.6-1.3,2.3-10,9.5-14.8,12.9h0Z"/>
      <path class="st36" d="M365.6,378.8c-4.7,3.3-9.3,5.6-12,6,1.3-2.3,4.9-5.9,9.6-9.3,4.7-3.3,14.5-9.2,17.1-9.6-1.3,2.3-10,9.5-14.8,12.9h0Z"/>
      <path class="st35" d="M358.4,393.5c-4.4,3.1-8.7,5.1-11.2,5.4,1.1-2.2,4.5-5.6,8.9-8.7,4.4-3.1,13.5-8.5,16-8.8-1.1,2.2-9.3,9-13.7,12.1Z"/>
      <path class="st36" d="M364.1,345.7c.5,4.9,1.6,9.1,2.6,11,.7-2.1.8-6.4.3-11.3-.5-4.9-2.1-14.4-3.2-16.3-.7,2.1-.3,11.7.2,16.7Z"/>
      <path class="st35" d="M356.8,358.5c.6,5.8,1.9,10.7,3.4,12.9.9-2.5,1.2-7.6.6-13.3-.6-5.8-2.6-16.9-4-19.2-.9,2.5-.6,13.8,0,19.6h0Z"/>
      <path class="st37" d="M350.7,372c.6,5.8,1.9,10.7,3.4,12.9.9-2.5,1.2-7.6.6-13.3-.6-5.8-2.6-16.9-4-19.2-.9,2.5-.6,13.8,0,19.6h0Z"/>
      <path class="st36" d="M344.3,387.1c.6,5.4,1.9,9.9,3.3,12,1-2.3,1.3-7.1.7-12.4-.6-5.4-2.5-15.8-3.9-17.8-1,2.3-.7,12.9-.1,18.3Z"/>
      <path class="st36" d="M374.5,324c-1.5,1.5-3.5,9.5-4.1,13.7-.4,3.3-.3,6.2.3,8.3l-50,109.3c.4.1,1.8.7,2.2.9l48.9-109.2c1.4-1.7,2.6-4.9,3.1-8.7.6-4.2.7-12.4-.3-14.3h0Z"/>
      <path class="st37" d="M263.7,465.3c3.5-.7,6.7-.5,8.4.4-1.2,1.4-4.1,2.7-7.7,3.4-3.5.7-10.6,1.2-12.2.4,1.2-1.4,8-3.5,11.5-4.1Z"/>
      <path class="st35" d="M269.4,458.6c4.9-.6,9.2-.5,11.3,0-1.9,1.1-6.1,2.3-11,2.9-4.9.6-14.5,1.2-16.6.6,1.9-1.1,11.4-2.9,16.3-3.5Z"/>
      <path class="st36" d="M280.2,448.6c5.8-.7,10.8-.5,13.4.4-2.2,1.5-7.1,2.9-12.9,3.6-5.8.7-17.1,1.3-19.6.4,2.2-1.5,13.3-3.7,19.1-4.4h0Z"/>
      <path class="st36" d="M292,439.6c5.8-.7,10.8-.5,13.4.4-2.2,1.5-7.1,2.9-12.9,3.6-5.8.7-17.1,1.3-19.6.4,2.2-1.5,13.3-3.7,19.1-4.4h0Z"/>
      <path class="st35" d="M305.3,430c5.4-.7,10.1-.4,12.4.5-2.1,1.5-6.6,2.8-11.9,3.5-5.4.7-15.9,1.1-18.3.2,2.1-1.5,12.4-3.6,17.8-4.2Z"/>
      <path class="st36" d="M277.7,469.4c1.9-4.6,2.9-8.8,2.9-11-1.6,1.5-3.8,5.3-5.6,9.8-1.9,4.6-4.9,13.7-4.9,15.9,1.6-1.5,5.8-10.2,7.6-14.8h0Z"/>
      <path class="st35" d="M290.2,461.6c2.2-5.4,3.3-10.3,3.1-13-2,1.8-4.7,6.1-6.8,11.5-2.2,5.4-5.7,16.2-5.5,18.8,2-1.8,7-11.9,9.2-17.3Z"/>
      <path class="st37" d="M302,452.6c2.2-5.4,3.3-10.3,3.1-13-2,1.8-4.7,6.1-6.8,11.5-2.2,5.4-5.7,16.2-5.5,18.8,2-1.8,7-11.9,9.2-17.3Z"/>
      <path class="st36" d="M314.7,442.3c2-5,3-9.6,2.8-12.1-1.9,1.6-4.5,5.6-6.5,10.6-2,5-5.3,15.1-5,17.6,1.9-1.6,6.7-11,8.7-16h0Z"/>
      <path class="st36" d="M258.3,483.7c2.1-.6,7.6-6.7,10.1-10.1,1.9-2.7,3.2-5.4,3.6-7.5l95.7-72.8c-.3-.3-1.2-1.5-1.5-1.8l-94.6,73.3c-2,.9-4.6,3.1-6.8,6.2-2.5,3.4-6.5,10.6-6.4,12.8Z"/>
      <path class="st2" d="M62.6,388.4c10.7-8.6,12.4-24.3,3.8-35-8.6-10.7-24.3-12.4-35-3.8-10.7,8.6-12.4,24.3-3.8,35,8.6,10.7,24.3,12.4,35,3.8Z"/>
      <g class="st0">
        <g>
          <path class="st7" d="M24.3,278.3l-61.4,139.8"/>
          <path class="st7" d="M46.4,288L-15,427.7"/>
          <path class="st7" d="M143.9,349.7L4.1,288.3"/>
          <path class="st7" d="M134.5,371.1L-5.3,309.7"/>
          <path class="st6" d="M125.1,392.4L-14.7,331"/>
          <path class="st6" d="M115.7,413.8l-139.8-61.4"/>
          <path class="st7" d="M106.3,435.2l-139.8-61.4"/>
          <path class="st6" d="M68.5,297.7L7.1,437.4"/>
          <path class="st20" d="M64.6,296L3.2,435.7"/>
          <path class="st3" d="M43.1,286.5l-61.4,139.8"/>
          <path class="st20" d="M87.2,305.9l-61.4,139.8"/>
          <path class="st3" d="M109.3,315.6l-61.4,139.8"/>
          <path class="st20" d="M129.5,390.2L-10.2,328.8"/>
          <path class="st20" d="M120.1,411.7l-139.8-61.4"/>
          <path class="st3" d="M110.7,433.1l-139.8-61.4"/>
          <path class="st6" d="M90.6,307.4l-61.4,139.8"/>
          <path class="st7" d="M112.7,317.1l-61.4,139.8"/>
        </g>
      </g>
      <path class="st11" d="M62.6,388.4c10.7-8.6,12.4-24.3,3.8-35-8.6-10.7-24.3-12.4-35-3.8-10.7,8.6-12.4,24.3-3.8,35,8.6,10.7,24.3,12.4,35,3.8Z"/>
      <path class="st32" d="M196.8,96.2L56,225.8v210h289v-210L196.8,96.2Z"/>
      <path class="st42" d="M316.4,253l-115.9,96.5-123.8-98.4V75.7h239.8v177.3Z"/>
      <path class="st1" d="M309.5,82.6v172.4l-109.1,92.2-116.8-99.6V82.6h226ZM316.4,75.7H76.6v189.3l123.8,91.1,115.9-85.2V75.7h0Z"/>
      <g class="st52">
        <g>
          <path class="st5" d="M275.8-76.6L-104.9,243.8"/>
          <path class="st5" d="M280.8-66.3L-99.9,254.1"/>
          <path class="st5" d="M285.7-56.1L-95,264.3"/>
          <path class="st5" d="M290.6-45.8L-90.1,274.6"/>
          <path class="st5" d="M295.6-35.6L-85.1,284.8"/>
          <path class="st5" d="M300.5-25.3L-80.2,295.1"/>
          <path class="st5" d="M305.5-15.1L-75.2,305.3"/>
          <path class="st5" d="M310.4-4.9L-70.3,315.5"/>
          <path class="st5" d="M315.3,5.4L-65.4,325.8"/>
          <path class="st5" d="M320.3,15.6L-60.4,336"/>
          <path class="st5" d="M325.2,25.9L-55.5,346.3"/>
          <path class="st5" d="M330.2,36.1L-50.5,356.5"/>
          <path class="st5" d="M335.1,46.4L-45.6,366.8"/>
          <path class="st5" d="M340,56.6L-40.7,377"/>
          <path class="st5" d="M345,66.8L-35.7,387.3"/>
          <path class="st5" d="M349.9,77.1L-30.8,397.5"/>
          <path class="st5" d="M354.8,87.3L-25.8,407.7"/>
          <path class="st5" d="M359.8,97.6L-20.9,418"/>
          <path class="st5" d="M364.7,107.8L-16,428.2"/>
          <path class="st5" d="M369.7,118.1L-11,438.5"/>
          <path class="st5" d="M374.6,128.3L-6.1,448.7"/>
          <path class="st5" d="M379.5,138.6L-1.1,459"/>
          <path class="st5" d="M384.5,148.8L3.8,469.2"/>
          <path class="st5" d="M389.4,159L8.7,479.4"/>
          <path class="st5" d="M394.4,169.3L13.7,489.7"/>
          <path class="st5" d="M399.3,179.5L18.6,499.9"/>
          <path class="st5" d="M404.2,189.8L23.6,510.2"/>
          <path class="st5" d="M409.2,200L28.5,520.4"/>
        </g>
      </g>
      <path class="st10" d="M309.5,82.6v172.4l-109.1,92.2-116.8-99.6V82.6h226ZM316.4,75.7H76.6v189.3l123.8,91.1,115.9-85.2V75.7h0Z"/>
      <g class="st44">
        <path class="st59" d="M345.4,204.1h0v-.7c0,0,0-.2,0-.3,0,0,0,0,0-.1,0,0,0,0,0-.1,0,0,0,0,0-.1,0,0,0,0,0-.1,0,0,0,0,0,0,0,0,0,0,0,0,0,0,0,0,0,0-.2-.3-.6-.5-1-.6-.8-.1-1.8-.3-2.8-.2-1.5,0-2.7.6-3.6,1.4-.4.4-.7.9-1,1.3-.4.6-.7,1.1-1.2,1.4-.2,0-.3-.3-.5-.7-.6-2.5-1.8-4-3.2-4.1-1,0-1.9.6-2.3,1.8-.4,1.1,0,2.2.4,3.1.3.8.6,1.5.5,2.2,0,0,0,0-.1,0-.2,0-.7-.7-.8-1.2,0-.2-.1-.5-.2-.7-.4-1.6-.8-3.4-2.3-4.5-.6-.4-1.3-.6-1.9-.5-.6,0-1.2.4-1.6,1-1.1,1.6-1.2,3.9-.1,5.8.2.3.3.6.5.8.3.5.6,1,.8,1.4.2.4.6,1.2.4,1.6,0,.1-.2.3-.2.3,0,0-.1,0-.2,0-.8-4.1-4.6-7-8.9-6.5-2,.2-3.7,1.2-5,2.7,0-1.1,0-2.2-.2-3.4.5,0,1,.2,1.5.2s.6,0,.9,0c4.2-.5,7.1-4.3,6.6-8.5,1,0,1.8.1,2.6.1h.4c.3,0,.6,0,.9-.1.6-.2,1.2-.5,1.6-1,0,0,0-.2.1-.2,0,0,0,0,0-.2.2-.3.2-.7.1-1.1,0,0,0-.1,0-.2,0,0,0,0,0-.1-.2-.5-.6-1-1.1-1.4,0,0-.1,0-.2-.1-.3-.2-.7-.3-1-.4,0,0,0,0-.1,0-.3,0-.6-.2-.9-.3,0,0,0,0,0,0,0,0-.1,0-.1-.1,0,0-.1-.2-.1-.2,0,0,0,0,.2,0,0,0,0,0,.1,0,.2,0,.3,0,.5,0,0,0,0,0,0,0,0,0,.2,0,.3.1,0,0,0,0,0,0,0,0,.1,0,.2.1.2.1.4.3.7.4.2,0,.4.1.5.2.6.1,1.2.2,2,.1.6,0,1.4-.2,2-.5,0,0,.1,0,.2-.1,0,0,0,0,.1,0,.2-.2.4-.4.6-.6.4-.7.2-1.5-.6-2.3-.2-.2-.3-.3-.5-.4-.5-.3-1-.5-1.5-.7,0,0,0,0,0,0-.1,0-.3,0-.4-.1-.1,0-.2,0-.3-.1-.4-.2-.5-.5-.5-.6,0,0,.1,0,.2-.1.1,0,.2,0,.4,0,0,0,0,0,0,0,0,0,0,0,0,0,0,0,0,0,0,0,0,0,0,0,.1,0h0c.2,0,.3.1.4.2.4.2.7.4,1.1.6.2.1.4.2.6.3.2.1.5.2.8.3,1.3.4,2.7.2,3.7-.5.4-.3.7-.8.8-1.2,0,0,0-.2,0-.3h0c0-.2,0-.2,0-.3,0-.3-.2-.6-.4-.9-.3-.4-.6-.6-.9-.8-.8-.5-1.7-.7-2.5-.9-.2,0-.4,0-.5-.1-.3,0-.8-.4-.8-.5,0,0,0,0,0,0,.5-.1,1,0,1.6.3.7.3,1.5.6,2.4.3.8-.3,1.3-.9,1.4-1.6h0c0-.1,0-.2,0-.3h0c0,0,0-.1,0-.2,0,0,0-.1,0-.2,0,0,0,0,0,0-.3-.9-1.4-1.7-3-2-.2,0-.4-.2-.4-.2,0,0,0,0,0,0h0c0,0,0,0,0-.1.2-.3.5-.5.9-.7.3-.2.7-.4,1-.8,0,0,0,0,.1-.1.4-.5.7-1.1.8-1.8,0-.3,0-.5,0-.8v-.2c0-.3,0-.6,0-.9,0-.2,0-.3,0-.5,0-.2,0-.3,0-.5,0,0,0-.1,0-.2,0,0,0,0,0,0,0,0,0,0,0-.1,0,0,0,0,0,0,0,0,0,0,0,0,0,0,0,0,0,0s0,0,0,0c0,0,0,0,0,0-.2-.2-.5-.3-.9-.3-.6,0-1.4,0-2.1.2-1.1.2-2,.8-2.5,1.5-.2.3-.4.7-.5,1.1-.2.4-.3.8-.6,1.1,0,0-.2-.2-.3-.4-.8-1.8-1.9-2.8-3-2.6-.8,0-1.4.7-1.6,1.7-.2.9.3,1.6.7,2.3.3.5.6,1,.6,1.5h0c-.1,0-.5-.4-.6-.7,0-.2-.1-.3-.2-.5-.5-1.1-1-2.4-2.3-3.1-.5-.3-1.1-.3-1.6-.1-.5.2-.8.5-1.1,1-.2.5-.4,1.1-.3,1.7-1.6-.7-3.3-1-5.1-.8-.7,0-1.4.3-2,.5,0,0,0,0,0,0,0-.8-.3-1.5-.7-2,0,0,0,0-.1-.1,0,0-.2-.2-.3-.2,0,0,0,0,0,0-.4-.2-.8-.4-1.3-.4s0,0,0,0c-.6,0-1.2.3-1.7.7,0,0,0,0,0,0,0,0,0,0,0,0-.2.1-.3.3-.5.4-.3.4-.6.8-.8,1.2,0,0,0,.2-.1.2-.2.4-.4.7-.6.9,0,0,0,0,0,0,0,0,0,0,0,0,0,0,0,0,0,0,0,0,0,0,0,0h0s0,0,0,0c0,0,0-.1,0-.3,0-.2,0-.3.1-.5,0,0,0,0,0,0,0,0,0,0,0,0,0,0,0,0,0,0,0,0,0,0,0-.1,0,0,0,0,0,0,.1-.2.3-.3.4-.5,0,0,.1-.1.2-.2.1-.2.3-.3.4-.5,0-.1.2-.3.3-.4,0,0,0,0,0-.1,0-.1,0-.2.1-.3,0-.1,0-.2.1-.3.2-.5.3-1,.4-1.5.1-.9.2-2-.2-3-.1-.3-.3-.6-.5-.8,0,0-.2-.2-.3-.2,0,0,0,0,0,0,0,0-.1,0-.2-.1,0,0,0,0,0,0-.6-.3-1.4-.1-2.2.4-.3.2-.6.5-.8.7-.4.4-.7.8-1,1.3,0,0,0,0,0,.1,0,.1-.2.3-.3.4-.1.2-.2.3-.3.4-.4.4-.6.4-.9.3,0,0,0,0,0,0,0,0,0-.1,0-.2,0-.4.4-1,.6-1.3.3-.4.6-.7,1-1.1.2-.2.4-.4.6-.6.2-.3.4-.5.6-.8.8-1.3.9-3,.3-4.3-.2-.4-.5-.8-.8-1,0,0,0,0,0,0,0,0-.2-.1-.3-.2-.2,0-.5-.1-.8-.1,0,0,0,0-.1,0-.3,0-.6,0-.9.2-.7.3-1.3.8-1.7,1.4,0,0,0,0,0,.1,0,0,0,0,0,.1-.4.6-.7,1.2-1,1.8,0,.2-.2.4-.3.6-.2.4-.7.8-.8.8,0,0,0,0,0,0,0-.6.4-1.2.8-1.8.5-.7,1.1-1.6.9-2.6-.2-1-.7-1.7-1.3-1.9,0,0,0,0,0,0,0,0-.1,0-.2,0,0,0,0,0-.1,0-.3,0-.7,0-1,.1-1,.3-1.9,1.3-2.6,2.8-.1.2-.3.4-.4.4,0,0-.1,0-.2,0h0s0,0,0,0c0,0,0-.1-.1-.1-.2-.3-.4-.7-.5-1.2-.2-.4-.3-.9-.6-1.3,0,0-.1-.2-.2-.3-.4-.5-1-.9-1.6-1.2-.3-.1-.7-.3-1-.4-.9-.2-1.8-.3-2.5-.3,0,0-.1,0-.2,0-.6,0-1.2.5-1.3,1.2-.2.7-.3,1.6-.3,2.5,0,1.3.4,2.5,1.1,3.2.3.4.7.6,1.1.9.5.3.9.6,1.2,1,0,0-.3.2-.6.3-2.2.4-3.7,1.4-3.8,2.7-.1.9.5,1.7,1.5,2.2,1,.4,1.9,0,2.8-.2.7-.2,1.3-.5,1.9-.3,0,0,0,0,0,0,0,.2-.6.5-1,.6-.2,0-.4,0-.6.1-1.4.3-3,.6-4.1,1.9-.4.5-.6,1.1-.6,1.7,0,.6.4,1.1.8,1.5,1.4,1.1,3.4,1.2,5.2.4.3-.1.5-.3.8-.4.4-.2.9-.5,1.3-.6.4-.2,1-.4,1.4-.3,0,0,.2.1.2.2,0,.3-.1.6-1,1-.2,0-.3.1-.5.2-.9.3-1.8.6-2.5,1.3-1,.9-1.2,1.8-.7,2.6.7,1.2,2.3,1.6,3.5,1.7,1.1.1,2.1,0,2.9-.3.3-.1.6-.3.8-.4.5-.3,1-.6,1.5-.5.2,0,.3.1.3.2s0,.1-.2.2c-.3.3-.8.4-1.4.5-.5.1-.9.2-1.4.4-.9.5-1.4,1.1-1.7,1.9-.2.7-.1,1.4.3,2,.6.8,1.7,1.4,2.8,1.4.2,0,.4,0,.6,0,0,0-.1.1-.2.2-1.3,1.6-1.9,3.6-2,5.6,0,0,0,0,0,0-.7-.4-1.5-.7-2.3-.8-.1,0-.3,0-.4,0s0,0-.1,0c-.3,0-.7,0-1,.2-.9.4-1.2,1.3-1,2.6,0,.3.1.5.2.7.3.7.7,1.2,1.1,1.8,0,0,.1.2.2.2,0,0,0,.1.1.2.1.2.2.3.3.5.2.5.1.7,0,.9h0c0,0-.1,0-.2,0-.4,0-.8-.7-1-1.1-.2-.4-.5-.9-.7-1.3-.1-.3-.3-.5-.4-.8-.8-1.5-2.3-2.6-3.9-2.7-.2,0-.3,0-.5,0-.6,0-1.2.3-1.5.7,0,0-.1.2-.2.3,0,0,0,0,0,0,0,.1-.1.3-.2.4,0,0,0,0,0,0,0,0,0,.1,0,.2,0,.2,0,.5,0,.8,0,.4.1.8.2,1.2,0,0,0,0,0,0,0,0,0,0,0,.2.4,1,1.2,1.8,1.9,2.6.1.2.3.3.5.5,0,0,.2.2.2.4.1.2.2.5.2.6h0c0,0,0,0,0,.1,0,0,0,0,0,0-.6-.2-1-.8-1.4-1.4-.5-.7-1.1-1.6-2.1-1.8-.3,0-.6,0-.9,0-.7,0-1.3.4-1.6,1-.6,1.1,0,2.8,1.4,4.4.2.3.3.4.3.5,0,0,0,.1,0,.1s0,0,0,0c0,0,0,0,0,0,0,0,0,0-.1,0-.4,0-.9,0-1.3,0-.5,0-1,0-1.5,0-.1,0-.3,0-.4.1-.6.2-1.2.6-1.7,1.1-.3.2-.5.5-.7.8,0,0-.1.2-.2.3,0,0-.1.2-.2.3,0,0,0,0,0,0,0,.2-.2.3-.3.5-.2.4-.4.7-.5,1.1,0,0,0,.2,0,.2,0,0,0,0,0,.1,0,0,0,0,0,.1h0v.3s0,0,0,0c0,0,0,0,0,.1,0,0,0,0,0,0,0,.4.3.7.6.9.6.4,1.3.9,2.2,1.2,1.2.5,2.4.5,3.4.1.5-.2.9-.5,1.3-.7.5-.3.9-.6,1.4-.7,0,.1,0,.3,0,.7-.4,2.2,0,3.9,1.2,4.5.8.4,1.8.2,2.6-.6.7-.8.8-1.8.8-2.7,0-.7,0-1.4.4-1.9,0,0,0,0,0,0,.1,0,.3.7.2,1.2,0,.2,0,.4-.1.6-.3,1.4-.6,3,.3,4.5.3.6.8,1,1.4,1.1.2,0,.4,0,.5,0,.4,0,.8-.1,1.1-.3,1.5-.9,2.4-2.8,2.2-4.7,0-.3,0-.6,0-.8,0-.5-.1-1-.1-1.4,0-.4,0-1.1.3-1.4,0,0,.2-.1.2-.1.3,0,.6.3.5,1.3,0,.2,0,.3,0,.5,0,1-.1,1.9.3,2.8.5,1.2,1.3,1.8,2.2,1.7,1.3-.2,2.3-1.5,2.8-2.6.5-1,.8-2,.8-2.8s0-.6,0-.9c0-.6-.2-1.1.1-1.6,0-.2.2-.2.2-.2,0,0,.1,0,.2.2.1.4,0,.9,0,1.4,0,.5-.1,1,0,1.4.1.8.4,1.4.8,1.9-.7,1.3-1,2.8-.8,4.3.2,2,1.2,3.7,2.8,5,1.3,1,2.9,1.6,4.6,1.6s.6,0,.9,0c1-.1,1.9-.4,2.7-.9-.3,2.3-.7,4.5-1.1,6.7-1.9-2-4.9-3-7.8-2.2-2,.6-3.7,1.9-4.7,3.7-1,1.8-1.3,3.9-.7,5.9.6,2,1.9,3.7,3.7,4.7,1.2.7,2.5,1,3.8,1s1.4,0,2.1-.3h0c-1.9,5.4-4.2,10.7-7,15.7-.5,1-1.1,1.9-1.6,2.9l-1.2-1.7c.3-.8.7-1.9,1.2-3.1.2-.5.4-1,.6-1.5.7-1.7,1.3-3.3,1.6-4.4,0-.3.1-.6.1-.9,0-.6-.2-1.2-.5-1.6,0-.1-.2-.2-.3-.3,0,0,0,0-.1,0,0,0-.1,0-.2-.1-.2-.1-.5-.2-.8-.2-.6,0-1.2.2-1.8.7,0,0,0,0,0,0-.3.3-.5.6-.7.9,0,0,0,.1,0,.2-.2.3-.4.6-.6.7,0,0-.2,0-.2,0,0,0,0,0,0-.2,0-.3.2-.5.4-.7,0,0,0,0,0,0,0,0,0,0,.1-.1,0,0,0,0,.1-.1.2-.2.4-.3.5-.5,0-.1.2-.3.3-.4,0,0,0,0,0,0,.3-.5.5-1.1.7-1.7.1-.7.2-1.6,0-2.4,0-.1,0-.2-.2-.4,0,0-.1-.2-.2-.2,0,0,0,0,0,0,0,0,0,0,0,0,0,0-.1-.1-.2-.2-.5-.4-1.2-.4-2,0-.2.1-.3.2-.5.3-.5.4-.8.8-1.1,1.3,0,0,0,0,0,0,0,0-.1.2-.2.3-.2.2-.3.4-.5.5,0,0,0,0,0,0,0,0-.1,0-.2,0h0c0,0,0,0-.1,0h0c0,0,0-.1,0-.2,0-.3.4-.7.5-1,.3-.3.5-.6.8-.8.2-.2.3-.3.5-.5.3-.3.5-.5.6-.8,0,0,0,0,0,0,0,0,0,0,0,0,.5-1,.7-2.1.3-3.1-.2-.5-.5-.8-.9-1,0,0-.2,0-.3,0,0,0,0,0,0,0-.2,0-.4,0-.6,0-.2,0-.4,0-.5.1-.4.2-.8.4-1.1.7-.6.6-1,1.3-1.3,1.9,0,.2-.2.3-.3.5,0,0-.1.2-.2.3,0,0-.2.2-.2.2,0,0-.1,0-.2.1h0c0-.5.4-.9.7-1.3.4-.6,1-1.2.9-2.1,0-.7-.3-1.2-.8-1.5,0,0,0,0,0,0,0,0,0,0-.1,0,0,0,0,0-.1,0,0,0,0,0,0,0,0,0-.1,0-.2,0,0,0-.2,0-.2,0,0,0-.1,0-.2,0-.5,0-.9.2-1.4.6-.5.4-.9.9-1.3,1.6-.1.2-.2.3-.3.3,0,0,0,0,0,0h0c0,0,0-.1-.1-.2-.1-.3-.2-.5-.3-.9-.1-.4-.2-.7-.4-1.1,0-.1-.1-.2-.2-.3-.3-.4-.7-.7-1.2-1-.2-.1-.5-.3-.8-.3,0,0-.2,0-.3,0,0,0-.2,0-.2,0,0,0,0,0,0,0-.2,0-.3,0-.5,0-.1,0-.2,0-.3,0,0,0-.1,0-.2,0-.2,0-.3,0-.5,0h-.2s0,0,0,0c0,0,0,0-.1,0,0,0,0,0,0,0,0,0-.1,0-.2,0,0,0,0,0,0,0,0,0,0,0-.1,0,0,0,0,0,0,0-.3.2-.4.4-.5.7-.2.6-.4,1.2-.4,1.9,0,1.1.2,2,.7,2.7.2.3.6.6.9.8.3.3.6.5.8.8,0,0-.2.1-.4.2-1.8.2-3,1-3.2,2-.1.7.3,1.4,1.1,1.9.8.4,1.6.2,2.3,0,.5-.2,1-.3,1.5-.1,0,.1-.5.3-.8.4-.2,0-.3,0-.5,0-1.1.1-2.4.3-3.4,1.3-.4.4-.6.9-.6,1.4,0,.5.2.9.6,1.2,1,.9,2.7,1.2,4.1.6.2,0,.4-.2.6-.3.3-.2.7-.3,1.1-.4.3-.1.8-.3,1.1-.1,0,0,.1,0,.1,0,0,.2,0,.4-.8.6-.1,0-.3,0-.4,0-.7.2-1.4.4-2.1.9-.8.6-1.1,1.4-.7,2.1.5,1,1.7,1.4,2.7,1.6.9.2,1.7.1,2.4,0,.2,0,.5-.2.7-.3.4-.2.8-.4,1.2-.3.1,0,.2,0,.2,0,0,0,0,0-.1.1-.3.2-.7.3-1.1.3-.4,0-.8.1-1.1.3-.7.3-1.2.8-1.5,1.4-.2.6-.2,1.1.1,1.6.4.7,1.3,1.2,2.2,1.3,1.5.2,4.1.2,6.4.3,1.3,0,2.6,0,3.4,0l1.3,2c-5.8,9.5-13.1,18-21.6,25.2l1.4,1.6c6.4-5.6,12.2-11.9,17-18.8,6.2-8.6,10.9-18.1,14.1-28.1,3-1.7,4.5-5.3,3.6-8.8,0,0,0-.2,0-.3l3.6-3.1c1.2.3,2.9.7,4.7,1.2,0,0,0,0,0,0,3.1.8,6.6,1.8,8.7,2.1.2,0,.4,0,.6,0s.3,0,.4,0c.9,0,1.8-.4,2.3-1,0,0,.1-.1.2-.2,0,0,0,0,0,0,0,0,0-.1.1-.2,0,0,0-.1.1-.2h0c.2-.4.3-.9.2-1.4,0-.7-.4-1.5-1-2.1-.1-.1-.2-.2-.4-.4-.4-.4-.9-.6-1.4-.8,0,0,0,0,0,0-.5-.2-1-.5-1.3-.9-.1-.1-.2-.3-.1-.4,0,0,0,0,0,0,0,0,.2,0,.4,0h0c.1,0,.3,0,.4,0h0s0,0,.1,0c0,0,0,0,0,0,0,0,0,0,.1,0,0,0,0,0,0,0,0,0,.1,0,.2.1,0,0,0,0,0,0,0,0,.1,0,.2.1,0,0,0,0,0,0,0,0,0,0,.1,0,0,0,0,0,0,0,0,0,0,0,0,0,0,0,.1.1.2.2.3.2.5.4.8.6.4.2.8.4,1.3.6,0,0,0,0,.1,0,.5.2,1.1.3,1.8.3.8,0,1.9,0,2.8-.2.5-.2,1-.4,1.4-.8.7-.8.6-1.9-.2-3,0-.1-.2-.3-.3-.4-.6-.7-1.4-1.2-2.2-1.6,0,0-.2,0-.2-.1,0,0-.2,0-.2-.1,0,0-.1,0-.2-.1-.9-.6-.9-1-.8-1.3,0,0,0,0,0,0,0,0,0,0,0,0,0,0,.2,0,.3-.1,0,0,.1,0,.2,0h0s0,0,0,0c0,0,0,0,.1,0,0,0,.1,0,.2,0,0,0,0,0,0,0,.4.1.7.4,1,.6.5.3.9.7,1.3,1,.2.2.5.4.7.6.4.3.8.5,1.2.7,1.5.7,3.2.8,4.6,0,.6-.3,1-.8,1.2-1.4,0,0,0-.2,0-.3,0,0,0-.1,0-.2,0,0,0-.1,0-.2,0-.4,0-.9-.3-1.3-.3-.5-.6-.9-1-1.2-.9-.8-2-1.3-3.1-1.7-.2,0-.5-.2-.7-.3-.3-.1-.5-.3-.7-.5-.2-.2-.3-.3-.3-.5s0,0,0-.1c.7,0,1.4.3,2.1.8.9.5,1.8,1.1,3,.9,1.2-.3,2-1,2.1-2,0-.4,0-.8-.2-1.2,0,0,0,0,0,0,0,0,0,0,0,0-.5-.9-1.6-1.8-3.2-2.4-.3-.2-.5-.3-.6-.4,0,0,0-.1,0-.2,0,0,0,0,0,0,0,0,0,0,0,0,0,0,.2-.1.3-.2.4-.2.8-.4,1.2-.6.5-.2,1-.4,1.5-.7.1,0,.2-.2.3-.3.6-.5,1.1-1.3,1.4-2.1,0-.3.2-.6.2-.9,0,0,0-.2,0-.3,0-.4.1-.8.1-1.2,0-.2,0-.4,0-.6h0ZM309.7,210c-.2.3-.3.7-.4,1-1.5-1-3.3-1.4-5-1.2.5-1.5,1.1-3.3,1.6-4.9.3-.8.5-1.6.7-2.3.8.9,1.8,1.6,2.9,2,0,1.8.1,3.6.1,5.4h0ZM308.7,231.9c.6-3.1,1.1-6.1,1.5-9.3.3-.3.6-.5.8-.9.2-.3.4-.6.6-.9.1,1.3.3,2.7.4,4,.2,1.9.4,3.7.5,4.9l-3.3,2.9c-.1-.3-.3-.5-.4-.8h0Z"/>
      </g>
      <g class="st44">
        <path class="st59" d="M122.8,222.6c1.2-1.2,2.1-2.7,2.3-4.5.5-4.1-2.4-7.8-6.5-8.3-2-.2-3.9.3-5.5,1.5-1.6,1.2-2.6,3-2.8,5h0c-3.4.6-6.2,3.4-6.7,7-.5,4.4,2.6,8.4,7,8.9.1,0,.2,0,.4,0-4.4,7.1-10.5,13.1-17.8,17.2-.7-1.4-1.4-2.7-2.1-4.1-1.6-3.3-3-6.7-4.2-10.1h0c.7.2,1.4.3,2.1.3,3.4,0,6.6-2.3,7.5-5.7,1.2-4.1-1.3-8.5-5.4-9.6-2-.6-4.1-.3-5.9.7-.7.4-1.3.9-1.8,1.4-.5-2.2-.8-4.5-1.1-6.7.8.5,1.8.8,2.7.9.3,0,.6,0,.9,0,3.7,0,6.9-2.8,7.4-6.5.2-1.6-.1-3.1-.8-4.3.4-.5.7-1.1.8-1.9,0-.5,0-1,0-1.4,0-.5-.2-1,0-1.4,0-.1.1-.2.2-.2,0,0,.1,0,.2.2.3.4.2,1,.1,1.6,0,.3,0,.6,0,.9,0,.9.3,1.8.8,2.8.6,1.1,1.5,2.4,2.8,2.6.9.2,1.8-.4,2.2-1.6.4-1,.3-1.9.3-2.8,0-.2,0-.3,0-.5,0-1,.2-1.2.5-1.3,0,0,.2,0,.2.2.3.3.3,1,.3,1.4,0,.5,0,1-.1,1.5,0,.3,0,.6,0,.8-.2,1.9.7,3.8,2.2,4.7.4.2.7.3,1.1.3s.4,0,.5,0c.6-.2,1.1-.6,1.4-1.1.8-1.5.5-3.1.3-4.5,0-.2,0-.4-.1-.6,0-.4,0-1.1.2-1.2,0,0,0,0,0,0,.4.5.4,1.2.4,1.9,0,.9,0,1.9.8,2.7.8.8,1.8,1.1,2.6.6,1.2-.6,1.6-2.3,1.2-4.5,0-.4,0-.6,0-.7.5.1.9.4,1.4.7.4.3.8.5,1.3.7,1,.4,2.2.3,3.4-.1.8-.3,1.6-.8,2.2-1.2.3-.2.5-.5.6-.9,0,0,0,0,0,0,0,0,0,0,0-.1,0,0,0,0,0-.1h0v-.3s0,0,0-.1c0,0,0,0,0-.1,0,0,0-.2,0-.2,0-.2-.1-.3-.2-.5-.2-.5-.5-1.1-.9-1.6,0,0,0,0,0,0-.2-.2-.4-.5-.6-.7-.5-.5-1.1-.9-1.7-1.1s-.4-.1-.6-.2c-.5,0-1,0-1.5,0-.5,0-.9,0-1.3,0,0,0-.1,0-.1,0,0,0,0,0,0,0,0,0,0,0,0,0,0,0,0,0,0-.1,0-.1,0-.3.3-.5,1.3-1.4,1.9-2.8,1.7-3.9,0,0,0,0,0,0,0,0,0-.1,0-.2,0,0,0-.2-.1-.2,0,0,0,0,0,0,0,0-.1-.2-.2-.3,0,0,0,0,0,0,0,0-.1-.1-.2-.2,0,0,0,0,0,0,0,0-.1,0-.2-.1,0,0,0,0-.1,0,0,0-.1,0-.2,0,0,0,0,0,0,0-.4-.1-.9-.1-1.4,0-1,.2-1.6,1.1-2.1,1.8-.4.6-.8,1.2-1.4,1.4,0,0,0,0,0,0,0-.1,0-.4.2-.7,0-.1.2-.3.2-.4.1-.2.3-.3.4-.5.7-.7,1.5-1.6,1.9-2.6.2-.4.3-.9.3-1.4,0-.7-.2-1.3-.6-1.7-.4-.4-.9-.7-1.5-.7-.6,0-1.2,0-1.7.3,0,0-.1,0-.2,0,0,0,0,0,0,0-1,.5-1.9,1.3-2.4,2.3-.1.2-.3.5-.4.8-.2.4-.4.9-.7,1.3-.2.4-.6,1-1,1.1,0,0-.2,0-.2,0h0c-.2-.2-.2-.5,0-1,0-.1.1-.2.2-.4,0,0,.1-.2.2-.3,0,0,0,0,0-.1.4-.6.8-1.1,1.1-1.8,0-.2.2-.5.2-.7.3-1.3,0-2.2-1-2.6-.2,0-.3-.1-.5-.2-1.1-.2-2.4.3-3.3.8,0,0,0,0,0,0,0-2.2-.8-4.2-2.2-5.8.2,0,.4,0,.6,0,1.1,0,2.2-.6,2.8-1.4.4-.6.5-1.3.3-2-.2-.8-.8-1.4-1.7-1.9-.4-.2-.9-.3-1.4-.4-.5-.1-1-.2-1.3-.5-.1-.1-.2-.2-.2-.2,0,0,.1-.1.3-.1.5,0,1,.2,1.5.5.3.1.5.3.8.4.8.3,1.8.4,2.9.3,1.2-.1,2.8-.6,3.5-1.7.5-.8.2-1.8-.7-2.6-.8-.7-1.7-1-2.5-1.3-.2,0-.3-.1-.5-.2-.9-.3-1.1-.7-1.1-1,0,0,.1-.1.2-.1.4-.2,1,.1,1.4.3.4.2.9.4,1.3.6.2.1.5.3.8.4,1.7.9,3.8.7,5.2-.4.5-.4.8-.9.8-1.5,0-.6-.1-1.2-.6-1.7-1.1-1.3-2.7-1.6-4.1-1.9-.2,0-.4,0-.6-.1-.4,0-1-.4-1-.6,0,0,0,0,0,0,.6-.2,1.2,0,1.9.3.8.3,1.8.7,2.8.2,1.1-.5,1.6-1.3,1.5-2.2-.1-1.3-1.6-2.3-3.8-2.7-.4-.1-.6-.2-.6-.3.3-.4.7-.7,1.2-1,.4-.3.8-.6,1.1-.9.7-.8,1.1-1.9,1.1-3.2,0-.9-.2-1.8-.3-2.5-.1-.5-.4-.8-.8-1h0c0,0-.1,0-.2,0,0,0,0,0,0,0,0,0,0,0-.1,0,0,0-.1,0-.2,0h0c-.7,0-1.6,0-2.5.3-.4.1-.8.2-1.1.4-.6.3-1.1.7-1.5,1.1,0,.1-.2.2-.2.3-.3.4-.4.9-.6,1.3-.2.4-.3.8-.5,1.2,0,0,0,.1-.1.2,0,0,0,0,0,0h0s0,0-.2,0c0,0-.2-.2-.3-.4-.4-.9-.9-1.6-1.4-2.1,0,0-.1-.1-.2-.2,0,0,0,0,0,0,0,0-.2-.1-.2-.2,0,0,0,0,0,0-.5-.4-1.1-.6-1.7-.5h0c0,0-.2,0-.3,0,0,0,0,0,0,0-.2,0-.4.2-.5.3,0,0,0,0,0,0,0,0,0,0,0,0-.4.4-.7.9-.8,1.6-.2,1.1.4,1.9.9,2.6.4.6.8,1.2.8,1.8,0,0,0,0,0,0-.1,0-.5-.3-.8-.7,0,0,0,0,0-.1,0-.2-.2-.4-.3-.6-.3-.6-.6-1.3-1-1.9,0,0,0,0,0-.1,0,0-.1-.1-.2-.2,0,0-.1-.2-.2-.2,0,0,0,0,0,0-.4-.4-.8-.8-1.4-1-.2-.1-.5-.2-.7-.2-.4,0-.7,0-1.1,0-.5.2-1,.6-1.2,1.2-.6,1.4-.4,3.3.6,4.7.1.2.2.3.3.4.2.2.4.4.6.6.3.4.7.7,1,1.1.3.3.7.9.6,1.3,0,0,0,0,0,.1,0,0,0,0,0,.1-.1,0-.3,0-.4,0,0,0,0,0,0,0,0,0,0,0-.1,0,0,0,0,0,0,0-.2-.1-.3-.3-.5-.6,0-.1-.2-.3-.3-.4,0,0,0,0,0,0-.4-.6-.8-1.2-1.3-1.7-.2-.2-.4-.3-.6-.5-1.1-.7-2.1-.7-2.8,0-.2.2-.4.5-.5.8,0,0,0,0,0,0,0,.1,0,.2-.1.4-.2.8-.2,1.7,0,2.5.1.8.3,1.6.7,2.2,0,0,0,0,0,0,0,.2.2.3.3.5.2.2.4.5.6.7.4.4.8.8.8,1.3,0,.2,0,.3,0,.3,0,0,0,0,0,0,0,0,0,0,0,0,0,0,0,0-.1,0h0c0,0-.2-.1-.2-.2-.2-.3-.4-.6-.6-1-.1-.2-.2-.4-.3-.6-.1-.2-.3-.4-.4-.6-.2-.2-.5-.4-.7-.6,0,0,0,0,0,0,0,0,0,0,0,0-.4-.3-.9-.4-1.4-.4-.4,0-.7,0-1,.2,0,0,0,0-.1,0-.1,0-.2.1-.3.2-.1.1-.3.2-.4.4-.4.5-.7,1.3-.7,2.1-.7-.2-1.3-.4-2-.5-1.8-.2-3.6,0-5.1.8,0-.6-.1-1.2-.3-1.7-.2-.5-.6-.8-1.1-1-.5-.2-1-.1-1.6.1-1.3.6-1.8,1.9-2.3,3.1,0,.2-.1.3-.2.5-.1.3-.5.7-.6.7,0,0,0,0,0,0,0-.5.3-1,.6-1.5.4-.6.9-1.4.7-2.3-.2-1-.8-1.6-1.6-1.7-1.1-.1-2.2.9-3,2.6-.1.3-.3.4-.3.4-.3-.3-.4-.7-.6-1.1-.1-.4-.3-.8-.5-1.1-.5-.8-1.4-1.3-2.5-1.5-.7-.2-1.5-.2-2.1-.2s-1,.4-1.2.9c0,0,0,.1,0,.2-.1.6-.2,1.3-.2,2.1,0,.3,0,.5,0,.8,0,0,0,0,0,0,.1.6.4,1.2.7,1.6,0,.1.2.2.3.3.3.3.6.5,1,.8.3.2.6.4.8.6,0,0,.1,0,.1.1h0c0,0,0,.1,0,.2,0,0-.2.1-.4.2-1.6.4-2.7,1.1-3.1,2,0,0,0,0,0,0,0,0,0,.1,0,.2,0,0,0,.1,0,.2h0c0,.1,0,.2,0,.3h0c0,.7.6,1.2,1.4,1.6.8.3,1.7,0,2.4-.3.6-.2,1.1-.4,1.6-.3,0,0,0,0,0,0,0,0-.2.2-.4.3-.1,0-.3.1-.4.2-.2,0-.4,0-.5.1-.9.2-1.9.4-2.7,1,0,0,0,0,0,0-.3.2-.5.4-.7.7-.2.2-.3.5-.4.7,0,0,0,0,0,0,0,0,0,.1,0,.2,0,0,0,.1,0,.2,0,.1,0,.3,0,.4,0,.5.3.9.8,1.2,1,.8,2.5.9,3.8.5.2,0,.4-.2.6-.3.2-.1.4-.2.6-.3.4-.2.7-.4,1.1-.6,0,0,.1,0,.2,0,.2-.1.6-.2.8-.2,0,0,.1,0,.2,0,0,0,.1,0,.2.1,0,0,0,.1,0,.2h0s0,0,0,0c0,0,0,0,0,0,0,0,0,0,0,0,0,0,0,0,0,0,0,0,0,0,0,0,0,0,0,0,0,0,0,0,0,0,0,0,0,0,0,0,0,0-.1,0-.3.1-.4.2-.1,0-.3,0-.4.1-.6.2-1.3.5-1.9.9,0,0-.2.1-.2.2,0,0,0,0,0,0-.8.8-1,1.6-.5,2.3,0,0,0,0,0,0,0,0,.1.2.2.3,0,0,0,0,.1,0,0,0,.1.1.2.2.7.5,1.6.7,2.4.8.2,0,.5,0,.7,0,.5,0,1,0,1.4-.2.1,0,.3,0,.4-.1.2-.1.5-.2.7-.4.4-.3.8-.5,1.2-.4.1,0,.2,0,.2,0,0,0,0,0-.1.2-.3.2-.7.3-1.1.5-.1,0-.2,0-.3,0-.3,0-.6.2-.8.3,0,0-.2.1-.2.2,0,0,0,0,0,0,0,0,0,0,0,0-.5.4-.9.9-1,1.4-.2.6,0,1.2.3,1.7.4.5,1,.9,1.7,1.1.2,0,.5,0,.7,0h.4c.7,0,1.6,0,2.6-.1-.5,4.2,2.5,7.9,6.6,8.5.3,0,.6,0,.9,0,.5,0,1,0,1.5-.2,0,1.1-.1,2.3-.1,3.4-1.3-1.4-3-2.5-5.1-2.7-2.1-.3-4.2.3-5.9,1.6-1.6,1.2-2.6,3-2.9,4.9h-.2c0,0-.2-.2-.2-.3-.2-.5.2-1.2.4-1.6.2-.5.5-1,.8-1.4.2-.3.3-.5.5-.8,1-1.9,1-4.2-.1-5.8-.4-.5-.9-.9-1.6-1-.6,0-1.3,0-1.9.5-1.5,1.1-1.9,2.9-2.3,4.5,0,.2-.1.5-.2.7-.1.5-.6,1.1-.8,1.2,0,0,0,0-.1,0-.2-.7.1-1.4.5-2.2.4-.9.8-2,.4-3.1-.4-1.2-1.3-1.9-2.3-1.8-1.4,0-2.7,1.6-3.2,4-.1.4-.3.7-.5.8-.5-.3-.8-.9-1.1-1.4-.3-.5-.6-.9-1-1.3-.8-.8-2.1-1.4-3.6-1.4-1,0-2,0-2.8.2-.4,0-.7.3-1,.6,0,0,0,0,0,0,0,0,0,0,0,0,0,0,0,0,0,.1,0,0,0,0,0,.1,0,0,0,0,0,.1,0,0,0,0,0,.1,0,0,0,0,0,.1,0,0,0,.2,0,.3,0,.4,0,.8,0,1.3,0,.2,0,.5,0,.7h0c0,.1,0,.3,0,.4,0,.1,0,.2,0,.4.1.5.3,1,.4,1.4.3.7.7,1.2,1.2,1.6.1,0,.2.2.3.3.4.3,1,.5,1.5.7.5.2,1,.4,1.4.7,0,0,0,0,.1,0,0,0,0,0,0,0h0c0,.1,0,.2-.1.3,0,.1-.3.2-.5.4-2.3,1-3.7,2.4-3.5,3.8,0,.2,0,.5.2.7,0,0,0,0,0,0,0,0,0,.1,0,.1.3.6,1,1,1.8,1.2,1.1.2,2.1-.4,3-.9.7-.4,1.4-.9,2.1-.8,0,0,0,0,0,.1s0,0,0,.1c0,0,0,0,0,0,0,0,0,0,0,0,0,0,0,0,0,0,0,0,0,0,0,0,0,0,0,0,0,0-.2.2-.5.5-.8.6-.2,0-.5.2-.7.3-1.2.5-2.6,1.1-3.5,2.2-.2.2-.4.5-.6.8-.1.3-.2.5-.3.8,0,.4,0,.8,0,1.1.2.6.6,1.1,1.2,1.4,1.6.8,3.7.6,5.4-.5.1,0,.3-.2.4-.2.3-.2.5-.4.7-.6.4-.3.9-.7,1.3-1,.4-.3,1.1-.7,1.6-.6.1,0,.3.1.3.1,0,.3,0,.6-.4,1.1-.1.1-.3.2-.5.4-.1,0-.2.1-.4.2,0,0,0,0-.1,0-.9.5-1.8,1-2.5,1.9,0,0,0,0,0,0,0,0,0,0,0,.1-.8,1.1-.8,2.1-.1,2.9.2.3.6.5.9.6,1,.5,2.3.5,3.3.4.6,0,1.2-.2,1.8-.3.1,0,.3,0,.4-.2.1,0,.2,0,.4-.1,0,0,0,0,0,0,.2,0,.4-.2.6-.3.3-.2.5-.4.8-.6,0,0,.2-.2.3-.3,0,0,0,0,0,0,0,0,0,0,0,0,0,0,0,0,.1,0,0,0,0,0,0,0,0,0,0,0,.1,0,0,0,0,0,.1,0,0,0,0,0,0,0,0,0,0,0,.1,0,0,0,0,0,.1,0h0c.1,0,.3,0,.4,0h0c.1,0,.2,0,.3,0,0,0,0,0,0,0,0,0,0,.2-.1.4,0,0,0,0-.1.1-.3.3-.8.5-1.2.8,0,0,0,0,0,0-.1,0-.2.1-.4.2-.2,0-.4.2-.6.3-.2,0-.3.2-.4.3-.1.1-.3.3-.4.4,0,0,0,0-.1.1,0,0,0,0,0,0-.5.6-.8,1.2-.8,1.9,0,.6,0,1.1.4,1.6,0,0,0,0,0,0,0,0,0,0,0,.1,0,0,.1.1.2.2.6.5,1.4.9,2.3,1,.1,0,.3,0,.4,0,.2,0,.4,0,.6,0,2.2-.3,5.7-1.3,8.8-2.1,0,0,.1,0,.2,0,1.8-.5,3.4-.9,4.5-1.2l3.6,3.1c0,0,0,.2,0,.3-.6,2-.3,4.1.7,5.9.7,1.2,1.7,2.2,2.8,2.9,3.2,10,8,19.5,14.1,28.1,4.9,6.9,10.6,13.2,17,18.8l1.4-1.6c-5.1-4.4-9.8-9.2-14-14.5l1.3-1.9c.8,0,2.1,0,3.4,0,2.3,0,4.8,0,6.4-.3.9-.1,1.8-.6,2.2-1.3.3-.5.3-1.1.1-1.6-.2-.6-.7-1.1-1.5-1.4-.4-.2-.7-.2-1.1-.3-.4,0-.8-.1-1.1-.3,0,0-.1-.1-.1-.1,0,0,0,0,.2,0,.4,0,.7,0,1.2.3.2.1.4.2.7.3.7.2,1.5.2,2.4,0,1-.2,2.2-.6,2.7-1.6.4-.7,0-1.5-.7-2.1-.7-.5-1.4-.7-2.1-.9-.1,0-.3,0-.4,0-.8-.2-.8-.5-.8-.6,0,0,0,0,.1,0,.3-.1.8,0,1.1.1.4.1.7.3,1.1.4.2,0,.4.2.6.3,1.4.6,3.1.3,4.1-.6.4-.3.6-.8.6-1.2,0-.5-.2-1-.6-1.4-.9-1-2.2-1.1-3.4-1.3-.2,0-.3,0-.5,0-.3,0-.7-.3-.8-.3h0c.4-.2.9,0,1.5.1.7.2,1.5.4,2.3,0,.8-.4,1.2-1.1,1.1-1.9-.2-1-1.4-1.8-3.2-2-.3,0-.4-.1-.5-.2.2-.3.5-.5.8-.8.3-.2.6-.5.9-.8.5-.7.8-1.6.7-2.7,0-.7-.2-1.4-.4-1.9-.2-.5-.7-.9-1.2-.9h-.1c-.1,0-.3,0-.5,0h0c-.1,0-.3,0-.4,0-.2,0-.5,0-.7.2,0,0-.2,0-.3,0-.4.1-.7.3-1,.4-.4.3-.8.6-1.1,1,0,0-.1.2-.2.3-.2.3-.3.7-.4,1.1-.1.4-.2.8-.4,1.1h0s0,0-.1,0c0,0-.1-.1-.2-.3-.5-.9-1.1-1.6-1.8-1.9,0,0,0,0-.1,0,0,0-.1,0-.2,0,0,0-.2,0-.2,0,0,0,0,0-.1,0,0,0-.2,0-.3,0,0,0-.1,0-.2,0,0,0-.1,0-.2,0-.2,0-.5.2-.6.3,0,0,0,0,0,0-.3.3-.5.8-.6,1.4,0,.9.4,1.5.9,2.1.3.4.7.8.7,1.3-.2,0-.5-.3-.6-.6,0-.1-.2-.3-.3-.4-.2-.4-.4-.7-.7-1.1,0,0,0,0,0,0,0,0-.1-.2-.2-.3,0,0,0,0,0-.1,0,0,0-.1-.1-.2,0,0-.1-.1-.2-.2,0,0,0,0,0,0-.3-.3-.7-.6-1.2-.8-.2,0-.5-.1-.7-.1-.2,0-.3,0-.4,0-.1,0-.2,0-.3.1-.4.2-.8.6-.9,1-.3.8-.3,1.8,0,2.6h0c0,0,0,.2.1.3.2.4.5.8.8,1.2.2.2.3.3.5.5.3.3.6.5.8.8,0,0,.2.2.3.3,0,.1.2.2.2.4h0s0,0,0,0c0,0,0,.1,0,.2,0,0,0,0,0,.1,0,0,0,0,0,0,0,0,0,0,0,0-.2,0-.4,0-.9-.5,0,0,0,0-.1-.1,0,0,0-.1-.1-.2-.3-.4-.7-.9-1.1-1.3-.1-.1-.3-.2-.5-.3-.9-.5-1.7-.5-2.2.1-.3.3-.4.7-.5,1.1-.1.7,0,1.4,0,2,.2.9.5,1.6,1,2.2.1.1.3.3.4.4,0,0,0,0,.1,0,0,0,.2.2.2.2,0,0,0,0,.1.1,0,0,0,0,0,0,0,0,.1.1.1.2,0,0,0,0,0,0,0,0,0,0,0,0,0,0,0,.1,0,.2,0,.1,0,.2,0,.2,0,0,0,0-.2,0-.3-.2-.5-.5-.7-.8,0,0,0,0,0,0,0,0,0-.2-.2-.2,0,0,0-.1-.1-.2,0,0,0,0,0,0,0,0,0,0,0,0,0-.1-.2-.3-.3-.4-.5-.4-1-.7-1.6-.8-.1,0-.2,0-.3,0-.3,0-.6,0-.8.2,0,0,0,0-.1,0,0,0-.1,0-.2.1,0,0,0,0-.1.1,0,0-.1.1-.2.2-.3.5-.5,1.1-.5,1.8,0,.3,0,.5.1.8.3,1.2,1,3,1.7,4.7.2.4.3.8.5,1.2.5,1.2.9,2.3,1.2,3.1l-1.1,1.7c-3.3-4.2-6.3-8.7-8.9-13.3,7.8-4.6,14.2-11.3,18.5-19.1,0,0,.2,0,.3,0,1.1,1.9,3,3.4,5.3,3.6.3,0,.6,0,.9,0,3.5,0,6.6-2.6,7-6.2.4-2.9-1.1-5.6-3.5-7h0ZM81.4,196.5c1.1-.4,2.1-1.1,2.9-2,.2.7.5,1.5.7,2.3.5,1.6,1.1,3.4,1.6,4.9-1.8-.2-3.6.3-5.1,1.2-.1-.4-.3-.7-.4-1,0-1.8,0-3.6.1-5.4h0ZM78.5,221.7c0-1.2.3-3,.5-4.9.1-1.3.3-2.7.4-4,.2.3.4.6.6.9.2.3.5.6.8.8.4,3.1.8,6.2,1.5,9.3-.1.3-.3.5-.4.8l-3.3-2.9Z"/>
      </g>
      <path class="st30" d="M296.9,166.7c.5-.6,1-1.2,1.5-1.7,1.1-1.3,1.5-3.2.9-4.7-.4-1-1.4-1.3-2.5-.9-1.6.7-2.2,2.5-2.9,3.9-.3.5-1.3,1.6-1.6.7-.2-1.6,2-2.7,1.7-4.5-.4-2.3-2.9-2.5-4.6,1.1-.5.8-.9.9-1.2.6-.6-.8-.8-1.9-1.3-2.8-.6-.9-1.6-1.4-2.6-1.7-.8-.2-1.6-.3-2.4-.3-.5,0-1,.4-1.1.9-.2.8-.3,1.6-.3,2.4,0,1.1.3,2.2,1,3,.7.8,1.9,1.2,2.5,2.2,0,.3-.3.6-1,.8-3.9.7-4.3,3.2-2.2,4.1,1.6.7,3.2-1.1,4.8-.5.8.6-.5,1.3-1.1,1.4-1.6.3-3.4.5-4.5,1.8-.7.9-.6,1.9.2,2.6,1.3,1,3.2,1.1,4.7.3.7-.3,1.4-.7,2.1-1,.5-.2,1.2-.5,1.7-.3.2,0,.5.3.5.5,0,.8-.6,1.2-1.3,1.4-1,.4-2,.6-2.9,1.3-.6.6-1.1,1.4-.7,2.1.6,1,2,1.4,3.2,1.5.9.1,1.9,0,2.8-.3.8-.3,1.6-1.1,2.5-.9.3,0,.6.2.6.5,0,.2-.1.4-.3.6-.7.6-1.9.5-2.8,1-.7.4-1.3.9-1.5,1.7-.5,1.7,1.3,2.8,2.7,2.9,3.1.2,9.7-.4,12.5-.4.7-2.7,2.9-8.9,3.6-12,.3-1.4-.4-3.4-2.1-3.4-.8,0-1.5.5-2,1-.7.7-.9,1.9-1.7,2.4-.2.1-.4.2-.7.2-.3,0-.4-.4-.3-.7,0-.9,1-1.5,1.5-2.2.6-.8.8-1.7.9-2.6.2-1.1.1-2.6-.7-3.4-.6-.6-1.5-.4-2.2,0-1,.6-1.4,1.5-2,2.4-.4.6-1,1.2-1.7.9-.2,0-.3-.4-.3-.6,0-.6.4-1.2.7-1.6h0Z"/>
      <path class="st33" d="M296.2,168.3c0,.2.1.5.3.6.8.3,1.3-.3,1.7-.9.6-.9,1.1-1.8,2-2.4.7-.5,1.6-.7,2.2,0,.8.8.8,2.3.7,3.4-.1.9-.4,1.8-.9,2.6-.5.7-1.4,1.3-1.5,2.2,0,.3,0,.6.3.7.2,0,.5,0,.7-.2.8-.6,1-1.7,1.7-2.4.5-.5,1.2-1,2-1,1.7,0,2.4,1.9,2.1,3.4-.6,3-2.8,9.3-3.6,12l-22.7-29.4c.2-.1.4-.2.7-.2.8,0,1.6,0,2.4.3,1,.3,2,.8,2.6,1.7.5.9.7,2,1.3,2.8.4.2.8.1,1.2-.6,1.7-3.6,4.2-3.4,4.6-1.1.3,1.7-1.9,2.9-1.7,4.5.4.9,1.4-.2,1.6-.7.7-1.4,1.3-3.1,2.9-3.9,1-.5,2,0,2.5.9.7,1.5.3,3.4-.9,4.7-.5.6-1.1,1.1-1.5,1.7-.3.4-.8,1-.7,1.6h0Z"/>
      <path class="st30" d="M285.4,198.2c-.4-.7-.7-1.4-1.1-2.1-.8-1.5-2.4-2.6-4-2.5-1,0-1.8.8-1.7,2,.1,1.8,1.5,3,2.6,4.1.4.4,1,1.7,0,1.8-1.6-.4-1.8-2.8-3.5-3.2-2.3-.5-3.4,1.8-.7,4.6.5.7.5,1.1.1,1.4-.9.3-2,0-3,.2-1,.2-1.9.9-2.5,1.8-.5.6-.8,1.4-1.1,2.1-.2.5,0,1.1.4,1.4.7.5,1.3.9,2.1,1.2,1,.4,2.1.5,3.1.1,1-.4,1.8-1.4,2.9-1.5.3.1.4.5.4,1.2-.7,3.9,1.4,5.2,3.1,3.6,1.2-1.2.1-3.4,1.2-4.6.8-.5,1,1,.9,1.6-.3,1.6-.8,3.3,0,4.9.6,1,1.6,1.3,2.5.8,1.4-.8,2.2-2.6,2-4.3,0-.8-.2-1.5-.2-2.3,0-.6,0-1.3.4-1.7.1-.1.4-.3.6-.3.8.2.9,1,.9,1.8,0,1.1-.2,2.1.2,3.2.3.8.9,1.5,1.7,1.4,1.1-.2,2-1.4,2.5-2.4.4-.8.8-1.7.8-2.7s-.4-1.9,0-2.7c.2-.2.4-.5.7-.4.2,0,.4.3.4.5.3.9-.2,2,0,3,.1.7.4,1.5,1,2,1.4,1.1,3.1-.2,3.7-1.5,1.3-2.8,3.1-9.2,4.1-11.8-2.2-1.6-7.2-6-9.9-7.7-1.2-.8-3.3-.9-3.9.7-.2.7,0,1.5.2,2.2.4.9,1.4,1.5,1.7,2.4,0,.2,0,.5,0,.7-.2.2-.5.2-.8,0-.9-.4-1.1-1.5-1.5-2.2-.5-.8-1.3-1.4-2.1-1.8-1-.5-2.4-1.1-3.4-.6-.8.4-.9,1.3-.7,2.1.2,1.1.9,1.9,1.5,2.8.4.6.8,1.3.2,1.9-.1.1-.5.1-.6,0-.6-.1-1-.8-1.2-1.2h0Z"/>
      <path class="st33" d="M286.6,199.4c.2,0,.5,0,.6,0,.5-.6.2-1.3-.2-1.9-.6-.9-1.3-1.7-1.5-2.8-.2-.8,0-1.8.7-2.1,1.1-.5,2.5,0,3.4.6.8.4,1.6,1,2.1,1.8.5.7.7,1.8,1.5,2.2.3.1.6.2.8,0,.2-.2.2-.4,0-.7-.2-.9-1.3-1.6-1.7-2.4-.3-.7-.5-1.5-.2-2.2.6-1.6,2.7-1.5,3.9-.7,2.6,1.7,7.6,6,9.9,7.7l-35.6,10.5c0-.2,0-.5,0-.7.3-.7.7-1.5,1.1-2.1.6-.9,1.5-1.6,2.5-1.8,1-.2,2.1,0,3-.2.3-.2.4-.7-.1-1.4-2.8-2.9-1.6-5.1.7-4.6,1.7.4,2,2.8,3.5,3.2,1,0,.3-1.3,0-1.8-1.1-1.2-2.5-2.4-2.6-4.1,0-1.1.6-1.9,1.7-2,1.6,0,3.2,1,4,2.5.4.7.7,1.4,1.1,2.1.3.5.7,1.1,1.2,1.2h0Z"/>
      <path class="st29" d="M325.9,184.4c.6.3,1.2.6,1.7.9,1.3.7,2.9.7,4-.2.7-.5.8-1.4.2-2.2-.9-1.2-2.4-1.4-3.8-1.7-.5-.1-1.6-.7-.9-1.2,1.3-.4,2.6,1.1,4,.6,1.8-.7,1.5-2.9-1.7-3.6-.7-.2-.9-.6-.8-.9.5-.7,1.4-1,2-1.6.6-.6.9-1.6.9-2.5,0-.7,0-1.3-.2-2,0-.4-.5-.8-.9-.8-.7,0-1.4,0-2,.2-.9.2-1.8.6-2.3,1.4-.5.8-.6,1.8-1.3,2.4-.2,0-.5-.1-.8-.6-1.3-3.1-3.5-3-3.8-1-.3,1.5,1.5,2.5,1.3,3.8-.4.7-1.2-.2-1.4-.7-.6-1.2-1-2.7-2.4-3.4-.9-.4-1.7-.1-2.1.7-.6,1.3-.3,2.8.6,4,.4.5.9,1,1.2,1.5.3.4.6.9.6,1.4,0,.1-.1.4-.3.5-.7.2-1.1-.3-1.4-.8-.5-.8-.9-1.6-1.6-2.1-.6-.4-1.3-.7-1.9-.1-.7.7-.8,1.9-.6,2.9,0,.7.3,1.6.7,2.2.4.6,1.2,1.1,1.2,1.9,0,.2,0,.5-.3.6-.2,0-.4,0-.5-.1-.7-.5-.8-1.5-1.3-2.1-.4-.5-1-.9-1.6-.9-1.5-.1-2.1,1.6-1.8,2.8.4,2.6,2.2,7.9,2.7,10.2,2.3,0,7.9.7,10.5.7,1.2,0,2.8-.9,2.4-2.3-.2-.6-.7-1.1-1.2-1.4-.7-.4-1.7-.4-2.3-.9-.1-.1-.3-.3-.2-.5,0-.2.3-.4.5-.4.8-.1,1.4.5,2.1.8.7.3,1.6.4,2.3.3.9,0,2.2-.4,2.7-1.2.4-.6,0-1.3-.5-1.8-.7-.7-1.5-.9-2.4-1.2-.6-.2-1.2-.6-1.1-1.2,0-.2.3-.3.4-.4.5-.2,1,0,1.5.3h0Z"/>
      <path class="st34" d="M324.5,184.1c-.1,0-.4.2-.4.4,0,.7.5,1,1.1,1.2.9.3,1.7.5,2.4,1.2.5.5.9,1.2.5,1.8-.5.8-1.8,1.1-2.7,1.2-.8,0-1.6,0-2.3-.3-.7-.3-1.3-.9-2.1-.8-.2,0-.5.2-.5.4,0,.2,0,.4.2.5.6.5,1.6.5,2.3.9.5.3,1,.8,1.2,1.4.4,1.4-1.1,2.3-2.4,2.3-2.6,0-8.2-.6-10.5-.7l19.9-24.2c.1.1.3.3.3.5.1.7.2,1.3.2,2,0,.9-.3,1.8-.9,2.5-.6.6-1.5.9-2,1.6-.1.3,0,.6.8.9,3.3.7,3.6,2.8,1.7,3.6-1.4.5-2.7-1-4-.6-.7.5.4,1.1.9,1.2,1.3.3,2.8.5,3.8,1.7.6.8.5,1.7-.2,2.2-1.1.8-2.7.9-4,.2-.6-.3-1.1-.7-1.7-.9-.4-.2-1-.5-1.5-.3h0Z"/>
      <path class="st29" d="M333.5,219.1c.7.5,1.4,1.1,2.1,1.6,1.5,1.2,3.7,1.6,5.3.7,1.1-.5,1.4-1.7.8-2.8-.9-1.8-2.9-2.4-4.6-3.1-.6-.3-1.9-1.3-.9-1.8,1.8-.3,3.2,2.1,5.2,1.7,2.6-.5,2.7-3.4-1.5-5.1-.9-.5-1-.9-.8-1.3.8-.8,2.1-1,3-1.6,1-.7,1.5-1.9,1.8-3.1.2-.9.2-1.8.2-2.7,0-.6-.5-1.1-1-1.2-.9-.2-1.8-.3-2.7-.2-1.2,0-2.5.4-3.3,1.3-.9.9-1.3,2.2-2.3,2.9-.3,0-.7-.3-.9-1-1-4.4-3.9-4.7-4.8-2.2-.7,1.9,1.4,3.6.9,5.4-.6.9-1.5-.5-1.7-1.2-.4-1.8-.7-3.8-2.3-5-1-.8-2.2-.6-2.9.4-1.1,1.5-1.1,3.7-.1,5.4.4.8.9,1.5,1.3,2.3.3.6.6,1.3.4,1.9,0,.2-.3.5-.5.6-.9.1-1.4-.7-1.7-1.4-.5-1.2-.8-2.3-1.7-3.2-.7-.7-1.6-1.2-2.4-.6-1.1.7-1.4,2.4-1.5,3.7,0,1,0,2.1.4,3.1.4.9,1.3,1.8,1.1,2.8,0,.3-.2.7-.6.7-.3,0-.5-.1-.7-.3-.8-.8-.7-2.2-1.3-3.1-.4-.7-1.1-1.4-2-1.6-1.9-.5-3.1,1.6-3.1,3.2,0,3.5,1,11,1.2,14.1,3,.7,10.3,2.8,13.7,3.4,1.6.2,3.9-.6,3.7-2.5,0-.9-.6-1.6-1.3-2.2-.8-.7-2.2-.9-2.9-1.8-.2-.2-.3-.5-.2-.7,0-.3.5-.4.8-.4,1.1,0,1.8,1,2.6,1.6.9.6,2,.8,3,.9,1.3.1,3,0,3.8-.9.7-.7.3-1.7-.2-2.5-.8-1-1.8-1.5-2.9-2.2-.7-.4-1.4-1-1.1-1.9,0-.2.4-.4.6-.4.6-.1,1.3.3,1.9.7Z"/>
      <path class="st34" d="M331.6,218.4c-.2,0-.6.2-.6.4-.3.9.4,1.5,1.1,1.9,1.1.6,2.1,1.1,2.9,2.2.6.8.9,1.8.2,2.5-.9,1-2.6,1-3.8.9-1,0-2.1-.3-3-.9-.9-.5-1.5-1.6-2.6-1.6-.3,0-.7.1-.8.4,0,.2,0,.5.2.7.7.9,2,1,2.9,1.7.6.6,1.2,1.3,1.3,2.2.2,2-2,2.8-3.7,2.5-3.5-.5-10.7-2.7-13.7-3.4l31.9-27.3c.2.2.3.5.3.7,0,.9,0,1.8-.2,2.7-.2,1.2-.8,2.4-1.8,3.1-.9.7-2.2.9-3,1.6-.2.4-.1.9.8,1.4,4.2,1.7,4.1,4.6,1.5,5.1-1.9.4-3.3-2-5.2-1.7-1,.5.3,1.6.9,1.8,1.7.7,3.6,1.3,4.6,3.1.6,1.1.2,2.3-.8,2.8-1.7.8-3.8.5-5.3-.7-.7-.5-1.3-1.1-2.1-1.6-.5-.4-1.2-.8-1.9-.7h0Z"/>
      <path class="st59" d="M309.1,196.6c3.2,25.2-3.4,51.5-18.3,72.2-4.9,6.9-10.6,13.2-17,18.8l-1.4-1.6c9.5-8.1,17.6-17.9,23.7-28.8,6.1-10.9,10.1-23,11.8-35.4,1.1-8.3,1.2-16.7.3-25h1c0-.1,0-.1,0-.1Z"/>
      <path class="st14" d="M307.7,195.8c1.6-4.7-.9-9.8-5.6-11.4-4.7-1.6-9.8.9-11.4,5.6s.9,9.8,5.6,11.4c4.7,1.6,9.8-.9,11.4-5.6Z"/>
      <path class="st55" d="M298.1,186.9c.6.9,0,2.2-1.1,3-1.2.8-2.7.8-3.3,0-.6-.9,0-2.2,1.1-3,1.2-.8,2.7-.8,3.3,0Z"/>
      <path class="st14" d="M318.2,187.6c3.1-3.9,2.4-9.5-1.5-12.6-3.9-3.1-9.5-2.4-12.6,1.5-3.1,3.9-2.4,9.5,1.5,12.6,3.9,3.1,9.5,2.4,12.6-1.5Z"/>
      <path class="st55" d="M310,176c.6.9,0,2.2-1.1,3s-2.7.8-3.3,0c-.6-.9,0-2.2,1.1-3s2.7-.8,3.3,0Z"/>
      <path class="st4" d="M317,200.1c2.4-3.2,1.9-7.7-1.3-10.2-3.2-2.4-7.7-1.9-10.2,1.3-2.4,3.2-1.9,7.7,1.3,10.2,3.2,2.4,7.7,1.9,10.2-1.3Z"/>
      <path class="st55" d="M310.3,190.8c.5.7,0,1.8-.9,2.5-1,.7-2.2.7-2.6,0-.5-.7,0-1.8.9-2.5,1-.7,2.2-.7,2.6,0Z"/>
      <path class="st4" d="M311.2,214.5c.5,3.9-2.3,7.4-6.1,7.9-3.9.5-7.4-2.3-7.9-6.1-.5-3.9,2.3-7.4,6.1-7.9,3.9-.5,7.4,2.3,7.9,6.1Z"/>
      <path class="st55" d="M303.3,210.6c.5.7,0,1.8-.9,2.4-1,.7-2.1.6-2.6,0-.5-.7,0-1.8.9-2.4,1-.7,2.1-.6,2.6,0Z"/>
      <path class="st14" d="M323.5,210.8c.5,4.2-2.5,8-6.6,8.5-4.2.5-8-2.5-8.5-6.6-.5-4.2,2.5-8,6.6-8.5,4.2-.5,8,2.5,8.5,6.6Z"/>
      <path class="st55" d="M315,206.6c.5.7,0,1.9-1,2.6-1,.7-2.3.7-2.8,0-.5-.7,0-1.9,1-2.6,1-.7,2.3-.7,2.8,0Z"/>
      <path class="st26" d="M317.7,223.2l-11.4,9.8"/>
      <path class="st29" d="M288.4,242.7c.4-.5.9-.9,1.3-1.3,1-1,1.4-2.4.9-3.6-.3-.8-1.1-1.1-1.9-.8-1.3.5-1.9,1.8-2.5,2.9-.2.4-1.1,1.2-1.3.5,0-1.3,1.7-2.1,1.6-3.4-.2-1.9-2.1-2.2-3.7.6-.4.6-.7.6-1,.4-.5-.6-.5-1.5-.9-2.2-.4-.7-1.2-1.2-2-1.5-.6-.2-1.2-.3-1.9-.3-.4,0-.8.2-.9.6-.2.6-.3,1.2-.4,1.9,0,.9,0,1.7.6,2.4.5.7,1.5,1.1,1.8,1.8,0,.2-.3.4-.8.6-3.1.4-3.6,2.3-2,3.2,1.2.6,2.6-.7,3.8-.2.6.5-.5,1-1,1.1-1.3.2-2.7.2-3.7,1.2-.6.7-.6,1.5,0,2.1,1,.9,2.5,1,3.7.5.6-.2,1.1-.5,1.7-.7.4-.1,1-.3,1.4-.1.1,0,.3.2.3.4,0,.6-.6.9-1.1,1.1-.8.2-1.6.4-2.3.9-.5.4-1,1-.6,1.6.4.8,1.5,1.2,2.4,1.4.7.1,1.5.2,2.2,0,.7-.2,1.3-.8,2.1-.6.2,0,.5.2.5.4,0,.2-.1.3-.3.5-.6.5-1.6.3-2.3.6-.5.3-1,.7-1.3,1.2-.5,1.3.8,2.3,2,2.4,2.4.3,7.7.2,9.9.3.7-2.1,2.8-6.9,3.5-9.3.3-1.1,0-2.7-1.5-2.8-.6,0-1.2.3-1.6.7-.6.5-.8,1.4-1.5,1.8-.2,0-.4.2-.5,0-.2,0-.3-.4-.2-.6,0-.7.9-1.1,1.3-1.7.5-.6.7-1.3.9-2,.2-.9.3-2.1-.3-2.7-.5-.5-1.2-.4-1.8,0-.8.4-1.2,1.1-1.7,1.8-.4.5-.8.9-1.4.6-.1,0-.2-.3-.2-.5,0-.5.4-.9.6-1.2h0Z"/>
      <path class="st34" d="M287.7,243.9c0,.1,0,.4.2.5.6.3,1.1-.2,1.4-.6.5-.7,1-1.4,1.7-1.8.6-.3,1.3-.5,1.8,0,.6.7.5,1.9.3,2.7-.1.7-.4,1.4-.9,2-.5.5-1.2.9-1.3,1.7,0,.2,0,.5.2.6.2,0,.4,0,.5,0,.7-.4.9-1.3,1.5-1.8.4-.4,1-.7,1.6-.7,1.4,0,1.8,1.6,1.5,2.8-.7,2.4-2.8,7.2-3.5,9.3l-16.3-24.4c.2,0,.3-.1.5-.1.6,0,1.3.2,1.9.4.8.3,1.6.8,2,1.5.4.7.4,1.6.9,2.2.3.2.6.1,1-.4,1.5-2.8,3.5-2.5,3.7-.6.1,1.4-1.6,2.2-1.6,3.4.3.7,1.1,0,1.3-.5.6-1.1,1.2-2.4,2.5-2.9.8-.3,1.6,0,1.9.8.4,1.2,0,2.7-.9,3.6-.4.4-.9.8-1.3,1.3-.3.3-.7.8-.6,1.2h0Z"/>
      <path class="st26" d="M289.9,254l4.9,7.2"/>
      <path class="st14" d="M308.2,232c1.1,4-1.2,8-5.2,9.1-3.9,1.1-8-1.2-9.1-5.2-1.1-4,1.2-8,5.2-9.1,4-1.1,8,1.2,9.1,5.2Z"/>
      <path class="st55" d="M299.4,229.1c.6.6.3,1.8-.6,2.6-.9.8-2.1,1-2.7.4-.6-.6-.3-1.8.6-2.6.9-.8,2.1-1,2.7-.4Z"/>
      <path class="st30" d="M93.8,158.2c-.5-.6-1-1.2-1.5-1.7-1.1-1.3-1.5-3.2-.9-4.7.4-1,1.4-1.3,2.5-.9,1.6.7,2.2,2.5,2.9,3.9.3.5,1.3,1.6,1.6.7.2-1.6-2-2.7-1.7-4.5.4-2.3,2.9-2.5,4.6,1.1.5.8.9.9,1.2.6.6-.8.8-1.9,1.3-2.8.6-.9,1.6-1.4,2.6-1.7.8-.2,1.6-.3,2.4-.3.5,0,1,.4,1.1.9.2.8.3,1.6.3,2.4,0,1.1-.3,2.2-1,3-.7.8-1.9,1.2-2.5,2.2,0,.3.3.6,1,.8,3.9.7,4.3,3.2,2.2,4.1-1.6.7-3.2-1.1-4.8-.5-.8.6.5,1.3,1.1,1.4,1.6.3,3.4.5,4.5,1.8.7.9.6,1.9-.2,2.6-1.3,1-3.2,1.1-4.7.3-.7-.3-1.4-.7-2.1-1-.5-.2-1.2-.5-1.7-.3-.2,0-.4.3-.5.5,0,.8.6,1.2,1.3,1.4,1,.4,2,.6,2.9,1.3.6.6,1.1,1.4.7,2.1-.6,1-2,1.4-3.2,1.5-.9.1-1.9,0-2.8-.3-.8-.3-1.6-1.1-2.5-.9-.3,0-.6.2-.6.5,0,.2.1.4.3.6.7.6,1.9.5,2.8,1,.7.4,1.3.9,1.5,1.7.5,1.7-1.3,2.8-2.7,2.9-3.1.2-9.7-.4-12.5-.4-.7-2.7-2.9-8.9-3.6-12-.3-1.4.4-3.4,2.1-3.4.8,0,1.5.5,2,1,.7.7.9,1.9,1.7,2.4.2.1.4.2.7.2.3,0,.4-.4.3-.7,0-.9-1-1.5-1.5-2.2-.6-.8-.8-1.7-.9-2.6-.2-1.1-.1-2.6.7-3.4.6-.6,1.5-.4,2.2,0,1,.6,1.4,1.5,2,2.4.4.6,1,1.2,1.7.9.2,0,.3-.4.3-.6,0-.6-.4-1.2-.7-1.6h0Z"/>
      <path class="st33" d="M94.5,159.8c0,.2-.1.5-.3.6-.8.3-1.3-.3-1.7-.9-.6-.9-1.1-1.8-2-2.4-.7-.5-1.6-.7-2.2,0-.8.8-.8,2.3-.7,3.4.1.9.4,1.8.9,2.6.5.7,1.4,1.3,1.5,2.2,0,.3,0,.6-.3.7-.2,0-.5,0-.7-.2-.8-.6-1-1.7-1.7-2.4-.5-.5-1.2-1-2-1-1.7,0-2.4,1.9-2.1,3.3.6,3,2.8,9.3,3.6,12l22.7-29.4c-.2-.1-.4-.2-.7-.2-.8,0-1.6,0-2.4.3-1,.3-2,.8-2.6,1.7-.5.9-.7,2-1.3,2.8-.4.2-.8.1-1.2-.6-1.7-3.6-4.2-3.4-4.6-1.1-.3,1.7,1.9,2.9,1.7,4.5-.4.9-1.4-.2-1.6-.7-.7-1.4-1.3-3.1-2.9-3.9-1-.5-2,0-2.5.9-.7,1.5-.3,3.4.9,4.7.5.6,1.1,1.1,1.5,1.7.3.4.8,1,.7,1.6h0Z"/>
      <path class="st30" d="M105.4,189.7c.4-.7.7-1.4,1.1-2.1.8-1.5,2.4-2.6,4-2.5,1,0,1.8.8,1.7,2-.1,1.8-1.5,3-2.6,4.1-.4.4-1,1.7,0,1.8,1.6-.4,1.8-2.8,3.5-3.2,2.3-.5,3.4,1.8.7,4.6-.5.7-.5,1.1-.1,1.4.9.3,2,0,3,.2,1,.2,1.9.9,2.5,1.8.5.6.8,1.4,1.1,2.1.2.5,0,1.1-.4,1.4-.7.5-1.3.9-2.1,1.2-1,.4-2.1.5-3.1.1-1-.4-1.8-1.3-2.9-1.5-.3.1-.4.5-.4,1.2.8,3.9-1.4,5.2-3.1,3.6-1.2-1.2-.2-3.4-1.2-4.6-.8-.5-1,1-.9,1.6.3,1.6.8,3.3,0,4.9-.6,1-1.6,1.3-2.5.8-1.4-.8-2.2-2.6-2-4.3,0-.8.2-1.5.2-2.3,0-.6,0-1.3-.4-1.7-.1-.1-.4-.3-.6-.3-.8.2-.9,1-.9,1.8,0,1.1.2,2.1-.2,3.2-.3.8-.9,1.5-1.7,1.4-1.1-.2-2-1.4-2.5-2.4-.4-.8-.8-1.7-.8-2.7s.4-1.9,0-2.7c-.2-.2-.4-.5-.7-.4-.2,0-.4.3-.4.5-.3.9.2,2,0,3,0,.8-.4,1.5-1,2-1.4,1.1-3.1-.2-3.7-1.5-1.3-2.8-3.1-9.2-4.1-11.8,2.2-1.6,7.2-6,9.9-7.7,1.2-.8,3.3-.9,3.9.7.2.7,0,1.5-.2,2.2-.4.9-1.4,1.5-1.7,2.4,0,.2,0,.5,0,.7.2.2.5.2.8,0,.9-.4,1.1-1.5,1.5-2.2.5-.8,1.3-1.4,2.1-1.8,1-.5,2.4-1.1,3.4-.6.8.4.9,1.3.7,2.1-.2,1.1-.9,1.9-1.5,2.8-.4.6-.8,1.3-.2,1.9.1.1.5.1.6,0,.6-.1,1-.8,1.2-1.2h0Z"/>
      <path class="st33" d="M104.2,190.9c-.2,0-.5,0-.6,0-.5-.6-.2-1.3.2-1.9.6-.9,1.3-1.7,1.5-2.8.2-.8,0-1.8-.7-2.1-1.1-.5-2.5,0-3.4.6-.8.4-1.6,1-2.1,1.8-.5.7-.7,1.8-1.5,2.2-.3.1-.6.2-.8,0-.1-.2-.2-.4,0-.7.2-.9,1.3-1.6,1.7-2.4.3-.7.5-1.5.2-2.2-.6-1.6-2.7-1.5-3.9-.7-2.6,1.7-7.6,6-9.9,7.7l35.6,10.5c0-.2,0-.5,0-.7-.3-.7-.7-1.5-1.1-2.1-.6-.9-1.5-1.6-2.5-1.8-1-.2-2.1,0-3-.2-.3-.2-.4-.7.1-1.4,2.8-2.9,1.6-5.1-.7-4.6-1.7.4-2,2.8-3.5,3.2-1,0-.3-1.3,0-1.8,1.1-1.2,2.5-2.4,2.6-4.1,0-1.1-.6-1.9-1.7-2-1.6,0-3.2,1-4,2.5-.4.7-.7,1.4-1.1,2.1-.3.5-.7,1.1-1.2,1.2h0Z"/>
      <path class="st29" d="M64.9,175.9c-.6.3-1.2.6-1.7.9-1.3.7-2.9.7-4-.2-.7-.5-.8-1.4-.2-2.2.9-1.2,2.4-1.4,3.8-1.7.5-.1,1.6-.7.9-1.2-1.3-.4-2.6,1.1-4,.6-1.8-.7-1.5-2.9,1.7-3.6.7-.2.9-.6.8-.9-.5-.7-1.4-1-2-1.6-.6-.6-.9-1.6-.9-2.5,0-.7,0-1.3.2-2,0-.4.5-.8.9-.8.7,0,1.4,0,2,.2.9.2,1.8.6,2.3,1.4.5.8.6,1.8,1.3,2.4.2,0,.5-.1.8-.6,1.3-3.1,3.5-3,3.8-1,.3,1.5-1.5,2.5-1.3,3.8.4.7,1.2-.2,1.4-.7.6-1.2,1-2.7,2.4-3.4.9-.4,1.7-.1,2.1.7.6,1.3.3,2.8-.6,4-.4.5-.9,1-1.2,1.5-.3.4-.6.9-.6,1.4,0,.1.1.4.3.5.7.2,1.1-.3,1.4-.8.5-.8.9-1.6,1.6-2.1.6-.4,1.3-.7,1.9-.1.7.7.7,1.9.6,2.9,0,.7-.3,1.6-.7,2.2-.4.6-1.2,1.1-1.2,1.9,0,.2,0,.5.3.6.2,0,.4,0,.5-.1.7-.5.8-1.5,1.3-2.1.4-.5,1-.9,1.6-.9,1.5-.1,2.1,1.6,1.8,2.8-.4,2.6-2.2,7.9-2.7,10.2-2.3,0-7.9.8-10.5.7-1.2,0-2.8-.9-2.4-2.3.2-.6.7-1.1,1.2-1.4.7-.4,1.7-.4,2.3-.9.2-.1.3-.3.2-.5,0-.2-.3-.4-.5-.4-.8-.1-1.4.5-2.1.8-.7.3-1.6.4-2.3.3-.9,0-2.2-.4-2.7-1.2-.4-.6,0-1.3.5-1.8.7-.7,1.5-.9,2.4-1.2.6-.2,1.2-.6,1.1-1.2,0-.2-.3-.3-.4-.4-.5-.2-1,0-1.5.3h0Z"/>
      <path class="st34" d="M66.3,175.6c.1,0,.4.2.4.4,0,.7-.5,1-1.1,1.2-.9.3-1.7.5-2.4,1.2-.5.5-.9,1.2-.5,1.8.5.8,1.8,1.1,2.7,1.2.7,0,1.6,0,2.3-.3.7-.3,1.3-.9,2.1-.8.2,0,.5.2.5.4,0,.2,0,.4-.2.5-.6.5-1.6.5-2.3.9-.5.3-1,.8-1.2,1.4-.4,1.4,1.1,2.3,2.4,2.3,2.6,0,8.2-.6,10.5-.7l-19.9-24.2c-.1.1-.3.3-.3.5-.1.7-.2,1.3-.2,2,0,.9.3,1.8.9,2.5.6.6,1.5.9,2,1.6.1.3,0,.6-.8.9-3.3.7-3.6,2.8-1.7,3.6,1.4.5,2.7-1,4-.6.7.5-.4,1.1-.9,1.2-1.3.3-2.8.5-3.8,1.7-.6.8-.5,1.7.2,2.2,1.1.8,2.7.9,4,.2.6-.3,1.1-.7,1.7-.9.4-.2,1-.5,1.5-.3h0Z"/>
      <path class="st29" d="M57.3,210.6c-.7.5-1.4,1.1-2.1,1.6-1.5,1.2-3.7,1.6-5.3.7-1.1-.5-1.4-1.7-.8-2.8.9-1.8,2.9-2.4,4.6-3.1.6-.3,1.9-1.3.9-1.8-1.8-.3-3.2,2.1-5.2,1.7-2.6-.5-2.7-3.4,1.5-5.1.9-.5,1-.9.8-1.3-.8-.8-2.1-1-3-1.6-1-.7-1.5-1.9-1.8-3.1-.2-.9-.2-1.8-.2-2.7,0-.6.5-1.1,1-1.2.9-.2,1.8-.3,2.7-.2,1.2,0,2.5.4,3.3,1.3.9.9,1.3,2.2,2.3,2.9.3,0,.7-.3.9-1,1-4.4,3.9-4.7,4.8-2.2.7,1.9-1.4,3.6-.9,5.4.6.9,1.5-.5,1.7-1.2.4-1.8.7-3.8,2.3-5,1-.8,2.2-.6,2.9.4,1.1,1.5,1.1,3.7.1,5.4-.4.8-.9,1.5-1.3,2.3-.3.6-.6,1.3-.4,1.9,0,.2.3.5.5.6.9.1,1.4-.7,1.7-1.4.5-1.2.8-2.3,1.7-3.2.7-.7,1.6-1.2,2.4-.6,1.1.7,1.4,2.4,1.5,3.7,0,1,0,2.1-.4,3.1-.4.9-1.3,1.8-1.1,2.8,0,.3.2.7.6.7.3,0,.5-.1.7-.3.7-.8.7-2.2,1.3-3.1.4-.7,1.1-1.4,2-1.6,1.9-.5,3.1,1.6,3.1,3.2,0,3.5-1,11-1.2,14.1-3,.7-10.3,2.8-13.7,3.4-1.6.2-3.9-.6-3.7-2.5,0-.9.6-1.6,1.3-2.2.8-.7,2.2-.9,2.9-1.8.2-.2.3-.5.2-.7,0-.3-.5-.4-.8-.4-1.1,0-1.8,1-2.6,1.6-.9.6-2,.8-3,.9-1.3.1-3,0-3.8-.9-.7-.7-.3-1.7.2-2.5.8-1,1.8-1.5,2.9-2.2.7-.4,1.4-1,1.1-1.9,0-.2-.4-.4-.6-.4-.6-.1-1.3.3-1.9.7Z"/>
      <path class="st34" d="M59.2,209.9c.2,0,.6.2.6.4.3.9-.4,1.5-1.1,1.9-1.1.6-2.1,1.1-2.9,2.2-.6.8-.9,1.8-.2,2.5.9,1,2.6,1.1,3.8.9,1,0,2.1-.3,3-.9.9-.5,1.5-1.6,2.6-1.6.3,0,.7.1.8.4,0,.2,0,.5-.2.7-.7.9-2,1-2.9,1.7-.6.6-1.2,1.3-1.3,2.2-.2,2,2,2.8,3.7,2.5,3.5-.5,10.7-2.7,13.7-3.4l-31.9-27.3c-.2.2-.3.5-.3.7,0,.9,0,1.8.2,2.7.2,1.2.8,2.4,1.8,3.1.9.7,2.2.9,3,1.6.2.4.1.9-.8,1.4-4.2,1.7-4.1,4.6-1.5,5.1,1.9.4,3.3-2,5.2-1.7,1,.5-.3,1.6-.9,1.8-1.7.7-3.6,1.3-4.6,3.1-.6,1.1-.2,2.3.8,2.8,1.7.8,3.8.5,5.3-.7.7-.5,1.3-1.1,2.1-1.6.5-.4,1.2-.8,1.9-.7h0Z"/>
      <path class="st59" d="M82.7,188.3c-2.1,18.7,1,37.9,9.1,54.9,6.3,13.1,15.4,24.9,26.5,34.4l-1.4,1.6c-6.4-5.6-12.2-11.9-17-18.8-12.3-17.2-19.1-38.3-19-59.5,0-4.2.3-8.5.8-12.6h1c0,.1,0,.1,0,.1Z"/>
      <path class="st14" d="M82.7,183.4c-.6,4.9,2.9,9.4,7.8,10,4.9.6,9.4-2.9,10-7.8.6-4.9-2.9-9.4-7.8-10-4.9-.6-9.4,2.9-10,7.8Z"/>
      <path class="st55" d="M92.7,178.4c-.6.9,0,2.2,1.1,3,1.2.8,2.7.8,3.3,0,.6-.9,0-2.2-1.1-3-1.2-.8-2.7-.8-3.3,0Z"/>
      <path class="st14" d="M87.6,177.6c2.2-4.4.4-9.8-4-12-4.4-2.2-9.8-.4-12,4-2.2,4.4-.4,9.8,4,12,4.4,2.2,9.8.4,12-4Z"/>
      <path class="st55" d="M80.8,167.5c-.6.9,0,2.2,1.1,3,1.2.8,2.7.8,3.3,0,.6-.9,0-2.2-1.1-3-1.2-.8-2.7-.8-3.3,0Z"/>
      <path class="st4" d="M72.4,186.3c-.5,4,2.3,7.6,6.3,8.1s7.6-2.3,8.1-6.3c.5-4-2.3-7.6-6.3-8.1s-7.6,2.3-8.1,6.3Z"/>
      <path class="st55" d="M80.4,182.3c-.5.7,0,1.8.9,2.5s2.2.7,2.6,0,0-1.8-.9-2.5c-1-.7-2.2-.7-2.6,0Z"/>
      <path class="st4" d="M87.8,213.9c3.8-.7,6.4-4.3,5.8-8.2-.7-3.8-4.3-6.4-8.2-5.8-3.8.7-6.4,4.3-5.8,8.2.7,3.8,4.3,6.4,8.2,5.8Z"/>
      <path class="st55" d="M87.5,202.1c-.5.7,0,1.8.9,2.4,1,.7,2.1.6,2.6,0,.5-.7,0-1.8-.9-2.4-1-.7-2.1-.6-2.6,0Z"/>
      <path class="st14" d="M67.3,202.4c-.5,4.2,2.5,8,6.6,8.5,4.2.5,8-2.5,8.5-6.6.5-4.2-2.5-8-6.6-8.5-4.2-.5-8,2.5-8.5,6.6Z"/>
      <path class="st55" d="M75.8,198.1c-.5.7,0,1.9,1,2.6,1,.7,2.3.7,2.8,0,.5-.7,0-1.9-1-2.6-1-.7-2.3-.7-2.8,0Z"/>
      <path class="st14" d="M104.7,221.1c-.5,4.2,2.5,8,6.6,8.5,4.2.5,8-2.5,8.5-6.6.5-4.2-2.5-8-6.6-8.5-4.2-.5-8,2.5-8.5,6.6Z"/>
      <path class="st55" d="M113.3,216.9c-.5.7,0,1.9,1,2.6,1,.7,2.3.7,2.8,0,.5-.7,0-1.9-1-2.6-1-.7-2.3-.7-2.8,0Z"/>
      <path class="st26" d="M73.1,214.7l11.4,9.8"/>
      <path class="st29" d="M109.9,245.1c-.4-.5-.9-.9-1.3-1.3-1-1-1.4-2.4-.9-3.6.3-.8,1.1-1.1,1.9-.8,1.3.5,1.9,1.8,2.5,2.9.2.4,1.1,1.2,1.3.5,0-1.3-1.7-2.1-1.6-3.4.2-1.9,2.1-2.2,3.7.6.4.6.7.6,1,.4.5-.6.5-1.5.9-2.2.4-.7,1.2-1.2,2-1.5.6-.2,1.2-.3,1.9-.3.4,0,.8.2.9.6.2.6.3,1.2.4,1.9,0,.9,0,1.7-.6,2.4-.5.7-1.5,1.1-1.8,1.8,0,.2.3.4.8.6,3.1.4,3.6,2.3,2,3.2-1.2.6-2.6-.7-3.8-.2-.6.5.5,1,1,1.1,1.3.2,2.7.2,3.7,1.2.6.7.6,1.5,0,2.1-1,.9-2.5,1-3.7.5-.6-.2-1.1-.5-1.7-.7-.4-.2-1-.3-1.4-.1-.1,0-.3.2-.3.4,0,.6.6.9,1.1,1.1.8.2,1.6.4,2.3.9.5.4,1,1,.6,1.6-.4.8-1.5,1.2-2.4,1.4-.7.1-1.5.2-2.2,0-.7-.2-1.3-.8-2.1-.6-.2,0-.4.2-.5.4,0,.2.1.3.3.5.6.5,1.6.3,2.3.6.5.3,1.1.7,1.3,1.2.5,1.3-.8,2.3-2,2.4-2.4.3-7.7.2-9.9.3-.7-2.1-2.8-6.9-3.5-9.3-.3-1.1,0-2.7,1.5-2.8.6,0,1.2.3,1.6.7.6.5.8,1.4,1.5,1.8.2,0,.4.2.5,0,.2,0,.3-.4.2-.6,0-.7-.9-1.1-1.3-1.7-.5-.6-.7-1.3-.9-2-.2-.9-.3-2.1.3-2.7.5-.5,1.2-.4,1.8,0,.8.4,1.2,1.1,1.7,1.8.4.5.8.9,1.4.6.1,0,.2-.3.2-.5,0-.5-.4-.9-.6-1.2h0Z"/>
      <path class="st34" d="M110.5,246.3c0,.1,0,.4-.2.5-.6.3-1.1-.2-1.4-.6-.5-.7-1-1.4-1.7-1.8-.6-.3-1.3-.5-1.8,0-.6.7-.5,1.9-.3,2.7.1.7.4,1.4.9,2,.4.5,1.2.9,1.3,1.7,0,.2,0,.5-.2.6-.2,0-.4,0-.5,0-.7-.4-.9-1.3-1.5-1.8-.4-.4-1-.7-1.6-.7-1.4,0-1.8,1.6-1.5,2.8.7,2.4,2.8,7.2,3.5,9.3l16.3-24.4c-.2,0-.3-.1-.5-.1-.6,0-1.3.2-1.9.4-.8.3-1.6.8-2,1.5-.4.7-.4,1.6-.9,2.2-.3.2-.6.1-1-.4-1.5-2.8-3.5-2.5-3.7-.6-.1,1.4,1.6,2.2,1.6,3.4-.3.7-1.1,0-1.3-.5-.6-1.1-1.2-2.4-2.5-2.9-.8-.3-1.6,0-1.9.8-.4,1.2,0,2.7.9,3.6.4.4.9.8,1.3,1.3.3.3.7.8.6,1.2h0Z"/>
      <path class="st26" d="M108.3,256.4l-4.9,7.2"/>
      <path class="st14" d="M82.6,223.5c-1.1,3.9,1.2,8,5.2,9.1,4,1.1,8-1.2,9.1-5.2,1.1-4-1.2-8-5.2-9.1-4-1.1-8,1.2-9.1,5.2Z"/>
      <path class="st55" d="M91.4,220.7c-.6.6-.3,1.8.6,2.6.9.8,2.1,1,2.7.4.6-.6.3-1.8-.6-2.6-.9-.8-2.1-1-2.7-.4Z"/>
      <path class="st59" d="M92.9,247.8c12.2-6.4,21.4-18.3,24.7-31.8l1.1.3c-3,13.9-12.2,26.4-24.8,33.4l-1-1.9Z"/>
      <path class="st4" d="M111.4,214.1c-.5,3.9,2.3,7.4,6.1,7.9,3.9.5,7.4-2.3,7.9-6.1.5-3.9-2.3-7.4-6.1-7.9-3.9-.5-7.4,2.3-7.9,6.1Z"/>
      <path class="st55" d="M119.3,210.2c-.5.7,0,1.8.9,2.4,1,.7,2.1.6,2.6,0,.5-.7,0-1.8-.9-2.4-1-.7-2.1-.6-2.6,0Z"/>
      <path class="st14" d="M113.3,225.7c-.5,3.7,2.2,7,5.8,7.5,3.7.5,7-2.2,7.5-5.8.5-3.7-2.2-7-5.8-7.5-3.7-.5-7,2.2-7.5,5.8Z"/>
      <path class="st55" d="M120.8,222c-.4.6,0,1.7.9,2.3.9.6,2,.6,2.4,0,.4-.6,0-1.7-.9-2.3-.9-.6-2-.6-2.4,0Z"/>
      <path class="st31" d="M345,435.9H56v-210l144.5,118.4,144.5-118.4v210Z"/>
      <g class="st56">
        <g class="st48">
          <g>
            <path class="st46" d="M57.2,293.8c16.8-16.8,16.8-44.1,0-60.9-16.8-16.8-44.1-16.8-60.9,0-16.8,16.8-16.8,44.1,0,60.9,16.8,16.8,44.1,16.8,60.9,0Z"/>
            <path class="st46" d="M144.1,293.8c16.8-16.8,16.8-44.1,0-60.9-16.8-16.8-44.1-16.8-60.9,0-16.8,16.8-16.8,44.1,0,60.9,16.8,16.8,44.1,16.8,60.9,0Z"/>
            <path class="st46" d="M230.9,293.8c16.8-16.8,16.8-44.1,0-60.9-16.8-16.8-44.1-16.8-60.9,0-16.8,16.8-16.8,44.1,0,60.9,16.8,16.8,44.1,16.8,60.9,0Z"/>
            <path class="st46" d="M317.8,293.8c16.8-16.8,16.8-44.1,0-60.9-16.8-16.8-44.1-16.8-60.9,0-16.8,16.8-16.8,44.1,0,60.9s44.1,16.8,60.9,0Z"/>
            <path class="st46" d="M404.6,293.8c16.8-16.8,16.8-44.1,0-60.9-16.8-16.8-44.1-16.8-60.9,0-16.8,16.8-16.8,44.1,0,60.9,16.8,16.8,44.1,16.8,60.9,0Z"/>
            <path class="st46" d="M57.2,379.9c16.8-16.8,16.8-44.1,0-60.9-16.8-16.8-44.1-16.8-60.9,0-16.8,16.8-16.8,44.1,0,60.9,16.8,16.8,44.1,16.8,60.9,0Z"/>
            <path class="st46" d="M144.1,379.9c16.8-16.8,16.8-44.1,0-60.9-16.8-16.8-44.1-16.8-60.9,0-16.8,16.8-16.8,44.1,0,60.9,16.8,16.8,44.1,16.8,60.9,0Z"/>
            <path class="st46" d="M230.9,379.9c16.8-16.8,16.8-44.1,0-60.9s-44.1-16.8-60.9,0c-16.8,16.8-16.8,44.1,0,60.9,16.8,16.8,44.1,16.8,60.9,0Z"/>
            <path class="st46" d="M317.8,379.9c16.8-16.8,16.8-44.1,0-60.9s-44.1-16.8-60.9,0c-16.8,16.8-16.8,44.1,0,60.9,16.8,16.8,44.1,16.8,60.9,0Z"/>
            <path class="st46" d="M404.6,379.9c16.8-16.8,16.8-44.1,0-60.9-16.8-16.8-44.1-16.8-60.9,0-16.8,16.8-16.8,44.1,0,60.9s44.1,16.8,60.9,0Z"/>
            <path class="st46" d="M57.2,466.1c16.8-16.8,16.8-44.1,0-60.9-16.8-16.8-44.1-16.8-60.9,0-16.8,16.8-16.8,44.1,0,60.9,16.8,16.8,44.1,16.8,60.9,0Z"/>
            <path class="st46" d="M144.1,466.1c16.8-16.8,16.8-44.1,0-60.9-16.8-16.8-44.1-16.8-60.9,0-16.8,16.8-16.8,44.1,0,60.9,16.8,16.8,44.1,16.8,60.9,0Z"/>
            <path class="st46" d="M230.9,466.1c16.8-16.8,16.8-44.1,0-60.9-16.8-16.8-44.1-16.8-60.9,0-16.8,16.8-16.8,44.1,0,60.9,16.8,16.8,44.1,16.8,60.9,0Z"/>
            <path class="st46" d="M317.8,466.1c16.8-16.8,16.8-44.1,0-60.9-16.8-16.8-44.1-16.8-60.9,0-16.8,16.8-16.8,44.1,0,60.9,16.8,16.8,44.1,16.8,60.9,0Z"/>
            <path class="st46" d="M404.6,466.1c16.8-16.8,16.8-44.1,0-60.9-16.8-16.8-44.1-16.8-60.9,0-16.8,16.8-16.8,44.1,0,60.9,16.8,16.8,44.1,16.8,60.9,0Z"/>
          </g>
        </g>
      </g>
      <path class="st27" d="M345,435.9H56v-210l144.5,118.4,144.5-118.4v210Z"/>
      <path class="st45" d="M200.5,344.2L56,225.8v1.6l144.5,120.5,144.5-120.6v-1.5l-144.5,118.4Z"/>
      <path class="st27" d="M345,435.9H56v-210l144.5,118.4,144.5-118.4v210Z"/>
      <path class="st30" d="M56,435.9l124.9-105.2c11.3-9.5,27.8-9.5,39.2,0l124.9,105.2H56Z"/>
      <g class="st56">
        <g class="st49">
          <g>
            <path class="st46" d="M57.2,293.8c16.8-16.8,16.8-44.1,0-60.9s-44.1-16.8-60.9,0c-16.8,16.8-16.8,44.1,0,60.9,16.8,16.8,44.1,16.8,60.9,0Z"/>
            <path class="st46" d="M144.1,293.8c16.8-16.8,16.8-44.1,0-60.9-16.8-16.8-44.1-16.8-60.9,0-16.8,16.8-16.8,44.1,0,60.9,16.8,16.8,44.1,16.8,60.9,0Z"/>
            <path class="st46" d="M230.9,293.8c16.8-16.8,16.8-44.1,0-60.9-16.8-16.8-44.1-16.8-60.9,0-16.8,16.8-16.8,44.1,0,60.9,16.8,16.8,44.1,16.8,60.9,0Z"/>
            <path class="st46" d="M317.8,293.8c16.8-16.8,16.8-44.1,0-60.9-16.8-16.8-44.1-16.8-60.9,0-16.8,16.8-16.8,44.1,0,60.9s44.1,16.8,60.9,0Z"/>
            <path class="st46" d="M404.6,293.8c16.8-16.8,16.8-44.1,0-60.9-16.8-16.8-44.1-16.8-60.9,0-16.8,16.8-16.8,44.1,0,60.9,16.8,16.8,44.1,16.8,60.9,0Z"/>
            <path class="st46" d="M57.2,379.9c16.8-16.8,16.8-44.1,0-60.9-16.8-16.8-44.1-16.8-60.9,0-16.8,16.8-16.8,44.1,0,60.9,16.8,16.8,44.1,16.8,60.9,0Z"/>
            <path class="st46" d="M144.1,379.9c16.8-16.8,16.8-44.1,0-60.9-16.8-16.8-44.1-16.8-60.9,0-16.8,16.8-16.8,44.1,0,60.9,16.8,16.8,44.1,16.8,60.9,0Z"/>
            <path class="st46" d="M230.9,379.9c16.8-16.8,16.8-44.1,0-60.9s-44.1-16.8-60.9,0c-16.8,16.8-16.8,44.1,0,60.9,16.8,16.8,44.1,16.8,60.9,0Z"/>
            <path class="st46" d="M317.8,379.9c16.8-16.8,16.8-44.1,0-60.9s-44.1-16.8-60.9,0c-16.8,16.8-16.8,44.1,0,60.9,16.8,16.8,44.1,16.8,60.9,0Z"/>
            <path class="st46" d="M404.6,379.9c16.8-16.8,16.8-44.1,0-60.9s-44.1-16.8-60.9,0c-16.8,16.8-16.8,44.1,0,60.9,16.8,16.8,44.1,16.8,60.9,0Z"/>
            <path class="st46" d="M57.2,466.1c16.8-16.8,16.8-44.1,0-60.9-16.8-16.8-44.1-16.8-60.9,0-16.8,16.8-16.8,44.1,0,60.9,16.8,16.8,44.1,16.8,60.9,0Z"/>
            <path class="st46" d="M144.1,466.1c16.8-16.8,16.8-44.1,0-60.9-16.8-16.8-44.1-16.8-60.9,0-16.8,16.8-16.8,44.1,0,60.9,16.8,16.8,44.1,16.8,60.9,0Z"/>
            <path class="st46" d="M230.9,466.1c16.8-16.8,16.8-44.1,0-60.9-16.8-16.8-44.1-16.8-60.9,0-16.8,16.8-16.8,44.1,0,60.9,16.8,16.8,44.1,16.8,60.9,0Z"/>
            <path class="st46" d="M317.8,466.1c16.8-16.8,16.8-44.1,0-60.9-16.8-16.8-44.1-16.8-60.9,0-16.8,16.8-16.8,44.1,0,60.9,16.8,16.8,44.1,16.8,60.9,0Z"/>
            <path class="st46" d="M404.6,466.1c16.8-16.8,16.8-44.1,0-60.9-16.8-16.8-44.1-16.8-60.9,0-16.8,16.8-16.8,44.1,0,60.9,16.8,16.8,44.1,16.8,60.9,0Z"/>
          </g>
        </g>
      </g>
      <path class="st27" d="M56,435.9l124.9-105.2c11.3-9.5,27.8-9.5,39.2,0l124.9,105.2H56Z"/>
      <path class="st53" d="M342.1,435.4l-123.4-103.1c-5.1-4.3-11.5-6.6-18.2-6.6s-13.1,2.4-18.2,6.6l-123.4,103.1h-1.7l124-104.4c5.4-4.5,12.2-7,19.3-7s13.9,2.5,19.3,7l124,104.4h-1.7Z"/>
      <path class="st27" d="M56,435.9l124.9-105.2c11.3-9.5,27.8-9.5,39.2,0l124.9,105.2H56Z"/>
      <path class="st39" d="M39.5,1.1L-8.9,33.3l32.2,48.4,48.4-32.2L39.5,1.1Z"/>
      <g class="st50">
        <g>
          <path class="st59" d="M.7,55.9c.6-.4,0-1.3-.6-.9-.6.4,0,1.3.6.9Z"/>
          <path class="st59" d="M3.1,59.5c.6-.4,0-1.3-.6-.9-.6.4,0,1.3.6.9Z"/>
          <path class="st59" d="M5.4,63c.6-.4,0-1.3-.6-.9s0,1.3.6.9Z"/>
          <path class="st59" d="M7.7,66.5c.6-.4,0-1.3-.6-.9-.6.4,0,1.3.6.9Z"/>
          <path class="st59" d="M10.1,70c.6-.4,0-1.3-.6-.9-.6.4,0,1.3.6.9Z"/>
          <path class="st59" d="M12.4,73.5c.6-.4,0-1.3-.6-.9s0,1.3.6.9Z"/>
          <path class="st59" d="M14.8,77.1c.6-.4,0-1.3-.6-.9-.6.4,0,1.3.6.9Z"/>
          <path class="st59" d="M17.1,80.6c.6-.4,0-1.3-.6-.9-.6.4,0,1.3.6.9Z"/>
          <path class="st59" d="M0,49c.6-.4,0-1.3-.6-.9-.6.4,0,1.3.6.9Z"/>
          <path class="st59" d="M2.4,52.5c.6-.4,0-1.3-.6-.9-.6.4,0,1.3.6.9Z"/>
          <path class="st59" d="M4.8,56c.6-.4,0-1.3-.6-.9-.6.4,0,1.3.6.9Z"/>
          <path class="st59" d="M7.1,59.5c.6-.4,0-1.3-.6-.9-.6.4,0,1.3.6.9Z"/>
          <path class="st59" d="M9.5,63c.6-.4,0-1.3-.6-.9s0,1.3.6.9Z"/>
          <path class="st59" d="M11.8,66.6c.6-.4,0-1.3-.6-.9-.6.4,0,1.3.6.9Z"/>
          <path class="st59" d="M14.1,70.1c.6-.4,0-1.3-.6-.9-.6.4,0,1.3.6.9Z"/>
          <path class="st59" d="M16.5,73.6c.6-.4,0-1.3-.6-.9-.6.4,0,1.3.6.9Z"/>
          <path class="st59" d="M18.8,77.1c.6-.4,0-1.3-.6-.9-.6.4,0,1.3.6.9Z"/>
          <path class="st59" d="M21.2,80.6c.6-.4,0-1.3-.6-.9-.6.4,0,1.3.6.9Z"/>
          <path class="st59" d="M1.6,45.2c.6-.4,0-1.3-.6-.9-.6.4,0,1.3.6.9Z"/>
          <path class="st59" d="M4,48.7c.6-.4,0-1.3-.6-.9-.6.4,0,1.3.6.9Z"/>
          <path class="st59" d="M6.3,52.2c.6-.4,0-1.3-.6-.9-.6.4,0,1.3.6.9Z"/>
          <path class="st59" d="M8.6,55.7c.6-.4,0-1.3-.6-.9-.6.4,0,1.3.6.9Z"/>
          <path class="st59" d="M11,59.3c.6-.4,0-1.3-.6-.9-.6.4,0,1.3.6.9Z"/>
          <path class="st59" d="M13.3,62.8c.6-.4,0-1.3-.6-.9-.6.4,0,1.3.6.9Z"/>
          <path class="st59" d="M15.7,66.3c.6-.4,0-1.3-.6-.9-.6.4,0,1.3.6.9Z"/>
          <path class="st59" d="M18,69.8c.6-.4,0-1.3-.6-.9s0,1.3.6.9Z"/>
          <path class="st59" d="M20.3,73.3c.6-.4,0-1.3-.6-.9-.6.4,0,1.3.6.9Z"/>
          <path class="st59" d="M22.7,76.9c.6-.4,0-1.3-.6-.9-.6.4,0,1.3.6.9Z"/>
          <path class="st59" d="M25,80.4c.6-.4,0-1.3-.6-.9-.6.4,0,1.3.6.9Z"/>
          <path class="st59" d="M1,38.2c.6-.4,0-1.3-.6-.9-.6.4,0,1.3.6.9Z"/>
          <path class="st59" d="M3.4,41.7c.6-.4,0-1.3-.6-.9-.6.4,0,1.3.6.9Z"/>
          <path class="st59" d="M5.7,45.2c.6-.4,0-1.3-.6-.9-.6.4,0,1.3.6.9Z"/>
          <path class="st59" d="M8,48.8c.6-.4,0-1.3-.6-.9-.6.4,0,1.3.6.9Z"/>
          <path class="st59" d="M10.4,52.3c.6-.4,0-1.3-.6-.9-.6.4,0,1.3.6.9Z"/>
          <path class="st59" d="M12.7,55.8c.6-.4,0-1.3-.6-.9-.6.4,0,1.3.6.9Z"/>
          <path class="st59" d="M15.1,59.3c.6-.4,0-1.3-.6-.9-.6.4,0,1.3.6.9Z"/>
          <path class="st59" d="M17.4,62.8c.6-.4,0-1.3-.6-.9-.6.4,0,1.3.6.9Z"/>
          <path class="st59" d="M19.7,66.4c.6-.4,0-1.3-.6-.9-.6.4,0,1.3.6.9Z"/>
          <path class="st59" d="M22.1,69.9c.6-.4,0-1.3-.6-.9-.6.4,0,1.3.6.9Z"/>
          <path class="st59" d="M24.4,73.4c.6-.4,0-1.3-.6-.9-.6.4,0,1.3.6.9Z"/>
          <path class="st59" d="M26.8,76.9c.6-.4,0-1.3-.6-.9-.6.4,0,1.3.6.9Z"/>
          <path class="st59" d="M29.1,80.4c.6-.4,0-1.3-.6-.9-.6.4,0,1.3.6.9Z"/>
          <path class="st59" d="M.2,30.9c.6-.4,0-1.3-.6-.9-.6.4,0,1.3.6.9Z"/>
          <path class="st59" d="M2.5,34.4c.6-.4,0-1.3-.6-.9s0,1.3.6.9Z"/>
          <path class="st59" d="M4.9,37.9c.6-.4,0-1.3-.6-.9-.6.4,0,1.3.6.9Z"/>
          <path class="st59" d="M7.2,41.5c.6-.4,0-1.3-.6-.9-.6.4,0,1.3.6.9Z"/>
          <path class="st59" d="M9.6,45c.6-.4,0-1.3-.6-.9-.6.4,0,1.3.6.9Z"/>
          <path class="st59" d="M11.9,48.5c.6-.4,0-1.3-.6-.9-.6.4,0,1.3.6.9Z"/>
          <path class="st59" d="M14.2,52c.6-.4,0-1.3-.6-.9-.6.4,0,1.3.6.9Z"/>
          <path class="st59" d="M16.6,55.5c.6-.4,0-1.3-.6-.9s0,1.3.6.9Z"/>
          <path class="st59" d="M18.9,59.1c.6-.4,0-1.3-.6-.9-.6.4,0,1.3.6.9Z"/>
          <path class="st59" d="M21.3,62.6c.6-.4,0-1.3-.6-.9-.6.4,0,1.3.6.9Z"/>
          <path class="st59" d="M23.6,66.1c.6-.4,0-1.3-.6-.9-.6.4,0,1.3.6.9Z"/>
          <path class="st59" d="M25.9,69.6c.6-.4,0-1.3-.6-.9s0,1.3.6.9Z"/>
          <path class="st59" d="M28.3,73.1c.6-.4,0-1.3-.6-.9-.6.4,0,1.3.6.9Z"/>
          <path class="st59" d="M30.6,76.7c.6-.4,0-1.3-.6-.9s0,1.3.6.9Z"/>
          <path class="st59" d="M33,80.2c.6-.4,0-1.3-.6-.9-.6.4,0,1.3.6.9Z"/>
          <path class="st59" d="M-.4,23.9c.6-.4,0-1.3-.6-.9-.6.4,0,1.3.6.9Z"/>
          <path class="st59" d="M1.9,27.4c.6-.4,0-1.3-.6-.9-.6.4,0,1.3.6.9Z"/>
          <path class="st59" d="M4.3,31c.6-.4,0-1.3-.6-.9-.6.4,0,1.3.6.9Z"/>
          <path class="st59" d="M6.6,34.5c.6-.4,0-1.3-.6-.9-.6.4,0,1.3.6.9Z"/>
          <path class="st59" d="M8.9,38c.6-.4,0-1.3-.6-.9-.6.4,0,1.3.6.9Z"/>
          <path class="st59" d="M11.3,41.5c.6-.4,0-1.3-.6-.9-.6.4,0,1.3.6.9Z"/>
          <path class="st59" d="M13.6,45c.6-.4,0-1.3-.6-.9-.6.4,0,1.3.6.9Z"/>
          <path class="st59" d="M16,48.6c.6-.4,0-1.3-.6-.9-.6.4,0,1.3.6.9Z"/>
          <path class="st59" d="M18.3,52.1c.6-.4,0-1.3-.6-.9-.6.4,0,1.3.6.9Z"/>
          <path class="st59" d="M20.7,55.6c.6-.4,0-1.3-.6-.9-.6.4,0,1.3.6.9Z"/>
          <path class="st59" d="M23,59.1c.6-.4,0-1.3-.6-.9-.6.4,0,1.3.6.9Z"/>
          <path class="st59" d="M25.3,62.6c.6-.4,0-1.3-.6-.9-.6.4,0,1.3.6.9Z"/>
          <path class="st59" d="M27.7,66.2c.6-.4,0-1.3-.6-.9s0,1.3.6.9Z"/>
          <path class="st59" d="M30,69.7c.6-.4,0-1.3-.6-.9s0,1.3.6.9Z"/>
          <path class="st59" d="M32.4,73.2c.6-.4,0-1.3-.6-.9s0,1.3.6.9Z"/>
          <path class="st59" d="M34.7,76.7c.6-.4,0-1.3-.6-.9-.6.4,0,1.3.6.9Z"/>
          <path class="st59" d="M3.4,23.7c.6-.4,0-1.3-.6-.9-.6.4,0,1.3.6.9Z"/>
          <path class="st59" d="M5.8,27.2c.6-.4,0-1.3-.6-.9-.6.4,0,1.3.6.9Z"/>
          <path class="st59" d="M8.1,30.7c.6-.4,0-1.3-.6-.9-.6.4,0,1.3.6.9Z"/>
          <path class="st59" d="M10.5,34.2c.6-.4,0-1.3-.6-.9-.6.4,0,1.3.6.9Z"/>
          <path class="st59" d="M12.8,37.7c.6-.4,0-1.3-.6-.9-.6.4,0,1.3.6.9Z"/>
          <path class="st59" d="M15.2,41.3c.6-.4,0-1.3-.6-.9-.6.4,0,1.3.6.9Z"/>
          <path class="st59" d="M17.5,44.8c.6-.4,0-1.3-.6-.9-.6.4,0,1.3.6.9Z"/>
          <path class="st59" d="M19.8,48.3c.6-.4,0-1.3-.6-.9-.6.4,0,1.3.6.9Z"/>
          <path class="st59" d="M22.2,51.8c.6-.4,0-1.3-.6-.9-.6.4,0,1.3.6.9Z"/>
          <path class="st59" d="M24.5,55.3c.6-.4,0-1.3-.6-.9-.6.4,0,1.3.6.9Z"/>
          <path class="st59" d="M26.9,58.9c.6-.4,0-1.3-.6-.9-.6.4,0,1.3.6.9Z"/>
          <path class="st59" d="M29.2,62.4c.6-.4,0-1.3-.6-.9s0,1.3.6.9Z"/>
          <path class="st59" d="M31.5,65.9c.6-.4,0-1.3-.6-.9-.6.4,0,1.3.6.9Z"/>
          <path class="st59" d="M33.9,69.4c.6-.4,0-1.3-.6-.9-.6.4,0,1.3.6.9Z"/>
          <path class="st59" d="M36.2,72.9c.6-.4,0-1.3-.6-.9-.6.4,0,1.3.6.9Z"/>
          <path class="st59" d="M38.6,76.5c.6-.4,0-1.3-.6-.9-.6.4,0,1.3.6.9Z"/>
          <path class="st59" d="M5.2,20.2c.6-.4,0-1.3-.6-.9-.6.4,0,1.3.6.9Z"/>
          <path class="st59" d="M7.5,23.7c.6-.4,0-1.3-.6-.9-.6.4,0,1.3.6.9Z"/>
          <path class="st59" d="M9.9,27.2c.6-.4,0-1.3-.6-.9-.6.4,0,1.3.6.9Z"/>
          <path class="st59" d="M12.2,30.8c.6-.4,0-1.3-.6-.9-.6.4,0,1.3.6.9Z"/>
          <path class="st59" d="M14.5,34.3c.6-.4,0-1.3-.6-.9-.6.4,0,1.3.6.9Z"/>
          <path class="st59" d="M16.9,37.8c.6-.4,0-1.3-.6-.9-.6.4,0,1.3.6.9Z"/>
          <path class="st59" d="M19.2,41.3c.6-.4,0-1.3-.6-.9-.6.4,0,1.3.6.9Z"/>
          <path class="st59" d="M21.6,44.8c.6-.4,0-1.3-.6-.9s0,1.3.6.9Z"/>
          <path class="st59" d="M23.9,48.4c.6-.4,0-1.3-.6-.9-.6.4,0,1.3.6.9Z"/>
          <path class="st59" d="M26.2,51.9c.6-.4,0-1.3-.6-.9-.6.4,0,1.3.6.9Z"/>
          <path class="st59" d="M28.6,55.4c.6-.4,0-1.3-.6-.9-.6.4,0,1.3.6.9Z"/>
          <path class="st59" d="M30.9,58.9c.6-.4,0-1.3-.6-.9-.6.4,0,1.3.6.9Z"/>
          <path class="st59" d="M33.3,62.4c.6-.4,0-1.3-.6-.9-.6.4,0,1.3.6.9Z"/>
          <path class="st59" d="M35.6,66c.6-.4,0-1.3-.6-.9s0,1.3.6.9Z"/>
          <path class="st59" d="M38,69.5c.6-.4,0-1.3-.6-.9s0,1.3.6.9Z"/>
          <path class="st59" d="M40.3,73c.6-.4,0-1.3-.6-.9-.6.4,0,1.3.6.9Z"/>
          <path class="st59" d="M9,19.9c.6-.4,0-1.3-.6-.9-.6.4,0,1.3.6.9Z"/>
          <path class="st59" d="M11.4,23.5c.6-.4,0-1.3-.6-.9-.6.4,0,1.3.6.9Z"/>
          <path class="st59" d="M13.7,27c.6-.4,0-1.3-.6-.9-.6.4,0,1.3.6.9Z"/>
          <path class="st59" d="M16.1,30.5c.6-.4,0-1.3-.6-.9-.6.4,0,1.3.6.9Z"/>
          <path class="st59" d="M18.4,34c.6-.4,0-1.3-.6-.9-.6.4,0,1.3.6.9Z"/>
          <path class="st59" d="M20.7,37.5c.6-.4,0-1.3-.6-.9-.6.4,0,1.3.6.9Z"/>
          <path class="st59" d="M23.1,41.1c.6-.4,0-1.3-.6-.9-.6.4,0,1.3.6.9Z"/>
          <path class="st59" d="M25.4,44.6c.6-.4,0-1.3-.6-.9-.6.4,0,1.3.6.9Z"/>
          <path class="st59" d="M27.8,48.1c.6-.4,0-1.3-.6-.9-.6.4,0,1.3.6.9Z"/>
          <path class="st59" d="M30.1,51.6c.6-.4,0-1.3-.6-.9-.6.4,0,1.3.6.9Z"/>
          <path class="st59" d="M32.4,55.1c.6-.4,0-1.3-.6-.9-.6.4,0,1.3.6.9Z"/>
          <path class="st59" d="M34.8,58.7c.6-.4,0-1.3-.6-.9-.6.4,0,1.3.6.9Z"/>
          <path class="st59" d="M37.1,62.2c.6-.4,0-1.3-.6-.9-.6.4,0,1.3.6.9Z"/>
          <path class="st59" d="M39.5,65.7c.6-.4,0-1.3-.6-.9-.6.4,0,1.3.6.9Z"/>
          <path class="st59" d="M41.8,69.2c.6-.4,0-1.3-.6-.9-.6.4,0,1.3.6.9Z"/>
          <path class="st59" d="M44.2,72.7c.6-.4,0-1.3-.6-.9-.6.4,0,1.3.6.9Z"/>
          <path class="st59" d="M10.8,16.5c.6-.4,0-1.3-.6-.9-.6.4,0,1.3.6.9Z"/>
          <path class="st59" d="M13.1,20c.6-.4,0-1.3-.6-.9-.6.4,0,1.3.6.9Z"/>
          <path class="st59" d="M15.5,23.5c.6-.4,0-1.3-.6-.9-.6.4,0,1.3.6.9Z"/>
          <path class="st59" d="M17.8,27c.6-.4,0-1.3-.6-.9-.6.4,0,1.3.6.9Z"/>
          <path class="st59" d="M20.1,30.6c.6-.4,0-1.3-.6-.9-.6.4,0,1.3.6.9Z"/>
          <path class="st59" d="M22.5,34.1c.6-.4,0-1.3-.6-.9-.6.4,0,1.3.6.9Z"/>
          <path class="st59" d="M24.8,37.6c.6-.4,0-1.3-.6-.9-.6.4,0,1.3.6.9Z"/>
          <path class="st59" d="M27.2,41.1c.6-.4,0-1.3-.6-.9-.6.4,0,1.3.6.9Z"/>
          <path class="st59" d="M29.5,44.6c.6-.4,0-1.3-.6-.9-.6.4,0,1.3.6.9Z"/>
          <path class="st59" d="M31.8,48.2c.6-.4,0-1.3-.6-.9-.6.4,0,1.3.6.9Z"/>
          <path class="st59" d="M34.2,51.7c.6-.4,0-1.3-.6-.9s0,1.3.6.9Z"/>
          <path class="st59" d="M36.5,55.2c.6-.4,0-1.3-.6-.9-.6.4,0,1.3.6.9Z"/>
          <path class="st59" d="M38.9,58.7c.6-.4,0-1.3-.6-.9s0,1.3.6.9Z"/>
          <path class="st59" d="M41.2,62.2c.6-.4,0-1.3-.6-.9-.6.4,0,1.3.6.9Z"/>
          <path class="st59" d="M43.5,65.8c.6-.4,0-1.3-.6-.9-.6.4,0,1.3.6.9Z"/>
          <path class="st59" d="M45.9,69.3c.6-.4,0-1.3-.6-.9-.6.4,0,1.3.6.9Z"/>
          <path class="st59" d="M14.6,16.2c.6-.4,0-1.3-.6-.9-.6.4,0,1.3.6.9Z"/>
          <path class="st59" d="M17,19.7c.6-.4,0-1.3-.6-.9-.6.4,0,1.3.6.9Z"/>
          <path class="st59" d="M19.3,23.3c.6-.4,0-1.3-.6-.9-.6.4,0,1.3.6.9Z"/>
          <path class="st59" d="M21.7,26.8c.6-.4,0-1.3-.6-.9-.6.4,0,1.3.6.9Z"/>
          <path class="st59" d="M24,30.3c.6-.4,0-1.3-.6-.9-.6.4,0,1.3.6.9Z"/>
          <path class="st59" d="M26.3,33.8c.6-.4,0-1.3-.6-.9-.6.4,0,1.3.6.9Z"/>
          <path class="st59" d="M28.7,37.3c.6-.4,0-1.3-.6-.9-.6.4,0,1.3.6.9Z"/>
          <path class="st59" d="M31,40.9c.6-.4,0-1.3-.6-.9-.6.4,0,1.3.6.9Z"/>
          <path class="st59" d="M33.4,44.4c.6-.4,0-1.3-.6-.9-.6.4,0,1.3.6.9Z"/>
          <path class="st59" d="M35.7,47.9c.6-.4,0-1.3-.6-.9s0,1.3.6.9Z"/>
          <path class="st59" d="M38,51.4c.6-.4,0-1.3-.6-.9s0,1.3.6.9Z"/>
          <path class="st59" d="M40.4,54.9c.6-.4,0-1.3-.6-.9-.6.4,0,1.3.6.9Z"/>
          <path class="st59" d="M42.7,58.5c.6-.4,0-1.3-.6-.9-.6.4,0,1.3.6.9Z"/>
          <path class="st59" d="M45.1,62c.6-.4,0-1.3-.6-.9-.6.4,0,1.3.6.9Z"/>
          <path class="st59" d="M47.4,65.5c.6-.4,0-1.3-.6-.9s0,1.3.6.9Z"/>
          <path class="st59" d="M49.7,69c.6-.4,0-1.3-.6-.9s0,1.3.6.9Z"/>
          <path class="st59" d="M16.4,12.8c.6-.4,0-1.3-.6-.9-.6.4,0,1.3.6.9Z"/>
          <path class="st59" d="M18.7,16.3c.6-.4,0-1.3-.6-.9-.6.4,0,1.3.6.9Z"/>
          <path class="st59" d="M21,19.8c.6-.4,0-1.3-.6-.9-.6.4,0,1.3.6.9Z"/>
          <path class="st59" d="M23.4,23.3c.6-.4,0-1.3-.6-.9s0,1.3.6.9Z"/>
          <path class="st59" d="M25.7,26.8c.6-.4,0-1.3-.6-.9-.6.4,0,1.3.6.9Z"/>
          <path class="st59" d="M28.1,30.4c.6-.4,0-1.3-.6-.9s0,1.3.6.9Z"/>
          <path class="st59" d="M30.4,33.9c.6-.4,0-1.3-.6-.9-.6.4,0,1.3.6.9Z"/>
          <path class="st59" d="M32.8,37.4c.6-.4,0-1.3-.6-.9-.6.4,0,1.3.6.9Z"/>
          <path class="st59" d="M35.1,40.9c.6-.4,0-1.3-.6-.9-.6.4,0,1.3.6.9Z"/>
          <path class="st59" d="M37.4,44.4c.6-.4,0-1.3-.6-.9s0,1.3.6.9Z"/>
          <path class="st59" d="M39.8,48c.6-.4,0-1.3-.6-.9-.6.4,0,1.3.6.9Z"/>
          <path class="st59" d="M42.1,51.5c.6-.4,0-1.3-.6-.9s0,1.3.6.9Z"/>
          <path class="st59" d="M44.5,55c.6-.4,0-1.3-.6-.9s0,1.3.6.9Z"/>
          <path class="st59" d="M46.8,58.5c.6-.4,0-1.3-.6-.9-.6.4,0,1.3.6.9Z"/>
          <path class="st59" d="M49.1,62c.6-.4,0-1.3-.6-.9-.6.4,0,1.3.6.9Z"/>
          <path class="st59" d="M51.5,65.6c.6-.4,0-1.3-.6-.9s0,1.3.6.9Z"/>
          <path class="st59" d="M20.2,12.5c.6-.4,0-1.3-.6-.9-.6.4,0,1.3.6.9Z"/>
          <path class="st59" d="M22.6,16c.6-.4,0-1.3-.6-.9-.6.4,0,1.3.6.9Z"/>
          <path class="st59" d="M24.9,19.5c.6-.4,0-1.3-.6-.9-.6.4,0,1.3.6.9Z"/>
          <path class="st59" d="M27.3,23.1c.6-.4,0-1.3-.6-.9-.6.4,0,1.3.6.9Z"/>
          <path class="st59" d="M29.6,26.6c.6-.4,0-1.3-.6-.9-.6.4,0,1.3.6.9Z"/>
          <path class="st59" d="M31.9,30.1c.6-.4,0-1.3-.6-.9-.6.4,0,1.3.6.9Z"/>
          <path class="st59" d="M34.3,33.6c.6-.4,0-1.3-.6-.9-.6.4,0,1.3.6.9Z"/>
          <path class="st59" d="M36.6,37.1c.6-.4,0-1.3-.6-.9s0,1.3.6.9Z"/>
          <path class="st59" d="M39,40.7c.6-.4,0-1.3-.6-.9-.6.4,0,1.3.6.9Z"/>
          <path class="st59" d="M41.3,44.2c.6-.4,0-1.3-.6-.9-.6.4,0,1.3.6.9Z"/>
          <path class="st59" d="M43.6,47.7c.6-.4,0-1.3-.6-.9s0,1.3.6.9Z"/>
          <path class="st59" d="M46,51.2c.6-.4,0-1.3-.6-.9-.6.4,0,1.3.6.9Z"/>
          <path class="st59" d="M48.3,54.7c.6-.4,0-1.3-.6-.9s0,1.3.6.9Z"/>
          <path class="st59" d="M50.7,58.3c.6-.4,0-1.3-.6-.9-.6.4,0,1.3.6.9Z"/>
          <path class="st59" d="M53,61.8c.6-.4,0-1.3-.6-.9-.6.4,0,1.3.6.9Z"/>
          <path class="st59" d="M55.3,65.3c.6-.4,0-1.3-.6-.9s0,1.3.6.9Z"/>
          <path class="st59" d="M22,9c.6-.4,0-1.3-.6-.9-.6.4,0,1.3.6.9Z"/>
          <path class="st59" d="M24.3,12.6c.6-.4,0-1.3-.6-.9-.6.4,0,1.3.6.9Z"/>
          <path class="st59" d="M26.6,16.1c.6-.4,0-1.3-.6-.9-.6.4,0,1.3.6.9Z"/>
          <path class="st59" d="M29,19.6c.6-.4,0-1.3-.6-.9-.6.4,0,1.3.6.9Z"/>
          <path class="st59" d="M31.3,23.1c.6-.4,0-1.3-.6-.9-.6.4,0,1.3.6.9Z"/>
          <path class="st59" d="M33.7,26.6c.6-.4,0-1.3-.6-.9-.6.4,0,1.3.6.9Z"/>
          <path class="st59" d="M36,30.2c.6-.4,0-1.3-.6-.9-.6.4,0,1.3.6.9Z"/>
          <path class="st59" d="M38.3,33.7c.6-.4,0-1.3-.6-.9-.6.4,0,1.3.6.9Z"/>
          <path class="st59" d="M40.7,37.2c.6-.4,0-1.3-.6-.9s0,1.3.6.9Z"/>
          <path class="st59" d="M43,40.7c.6-.4,0-1.3-.6-.9s0,1.3.6.9Z"/>
          <path class="st59" d="M45.4,44.2c.6-.4,0-1.3-.6-.9-.6.4,0,1.3.6.9Z"/>
          <path class="st59" d="M47.7,47.8c.6-.4,0-1.3-.6-.9-.6.4,0,1.3.6.9Z"/>
          <path class="st59" d="M50.1,51.3c.6-.4,0-1.3-.6-.9-.6.4,0,1.3.6.9Z"/>
          <path class="st59" d="M52.4,54.8c.6-.4,0-1.3-.6-.9-.6.4,0,1.3.6.9Z"/>
          <path class="st59" d="M54.7,58.3c.6-.4,0-1.3-.6-.9-.6.4,0,1.3.6.9Z"/>
          <path class="st59" d="M57.1,61.8c.6-.4,0-1.3-.6-.9-.6.4,0,1.3.6.9Z"/>
          <path class="st59" d="M25.8,8.8c.6-.4,0-1.3-.6-.9-.6.4,0,1.3.6.9Z"/>
          <path class="st59" d="M28.2,12.3c.6-.4,0-1.3-.6-.9-.6.4,0,1.3.6.9Z"/>
          <path class="st59" d="M30.5,15.8c.6-.4,0-1.3-.6-.9-.6.4,0,1.3.6.9Z"/>
          <path class="st59" d="M32.8,19.3c.6-.4,0-1.3-.6-.9-.6.4,0,1.3.6.9Z"/>
          <path class="st59" d="M35.2,22.9c.6-.4,0-1.3-.6-.9s0,1.3.6.9Z"/>
          <path class="st59" d="M37.5,26.4c.6-.4,0-1.3-.6-.9-.6.4,0,1.3.6.9Z"/>
          <path class="st59" d="M39.9,29.9c.6-.4,0-1.3-.6-.9-.6.4,0,1.3.6.9Z"/>
          <path class="st59" d="M42.2,33.4c.6-.4,0-1.3-.6-.9s0,1.3.6.9Z"/>
          <path class="st59" d="M44.6,36.9c.6-.4,0-1.3-.6-.9-.6.4,0,1.3.6.9Z"/>
          <path class="st59" d="M46.9,40.5c.6-.4,0-1.3-.6-.9-.6.4,0,1.3.6.9Z"/>
          <path class="st59" d="M49.2,44c.6-.4,0-1.3-.6-.9-.6.4,0,1.3.6.9Z"/>
          <path class="st59" d="M51.6,47.5c.6-.4,0-1.3-.6-.9-.6.4,0,1.3.6.9Z"/>
          <path class="st59" d="M53.9,51c.6-.4,0-1.3-.6-.9s0,1.3.6.9Z"/>
          <path class="st59" d="M56.3,54.5c.6-.4,0-1.3-.6-.9-.6.4,0,1.3.6.9Z"/>
          <path class="st59" d="M58.6,58.1c.6-.4,0-1.3-.6-.9-.6.4,0,1.3.6.9Z"/>
          <path class="st59" d="M60.9,61.6c.6-.4,0-1.3-.6-.9s0,1.3.6.9Z"/>
          <path class="st59" d="M27.6,5.3c.6-.4,0-1.3-.6-.9-.6.4,0,1.3.6.9Z"/>
          <path class="st59" d="M29.9,8.8c.6-.4,0-1.3-.6-.9-.6.4,0,1.3.6.9Z"/>
          <path class="st59" d="M32.2,12.4c.6-.4,0-1.3-.6-.9-.6.4,0,1.3.6.9Z"/>
          <path class="st59" d="M34.6,15.9c.6-.4,0-1.3-.6-.9-.6.4,0,1.3.6.9Z"/>
          <path class="st59" d="M36.9,19.4c.6-.4,0-1.3-.6-.9-.6.4,0,1.3.6.9Z"/>
          <path class="st59" d="M39.3,22.9c.6-.4,0-1.3-.6-.9-.6.4,0,1.3.6.9Z"/>
          <path class="st59" d="M41.6,26.4c.6-.4,0-1.3-.6-.9-.6.4,0,1.3.6.9Z"/>
          <path class="st59" d="M43.9,30c.6-.4,0-1.3-.6-.9-.6.4,0,1.3.6.9Z"/>
          <path class="st59" d="M46.3,33.5c.6-.4,0-1.3-.6-.9-.6.4,0,1.3.6.9Z"/>
          <path class="st59" d="M48.6,37c.6-.4,0-1.3-.6-.9-.6.4,0,1.3.6.9Z"/>
          <path class="st59" d="M51,40.5c.6-.4,0-1.3-.6-.9-.6.4,0,1.3.6.9Z"/>
          <path class="st59" d="M53.3,44c.6-.4,0-1.3-.6-.9-.6.4,0,1.3.6.9Z"/>
          <path class="st59" d="M55.6,47.6c.6-.4,0-1.3-.6-.9-.6.4,0,1.3.6.9Z"/>
          <path class="st59" d="M58,51.1c.6-.4,0-1.3-.6-.9-.6.4,0,1.3.6.9Z"/>
          <path class="st59" d="M60.3,54.6c.6-.4,0-1.3-.6-.9-.6.4,0,1.3.6.9Z"/>
          <path class="st59" d="M62.7,58.1c.6-.4,0-1.3-.6-.9-.6.4,0,1.3.6.9Z"/>
          <path class="st59" d="M31.4,5.1c.6-.4,0-1.3-.6-.9-.6.4,0,1.3.6.9Z"/>
          <path class="st59" d="M33.8,8.6c.6-.4,0-1.3-.6-.9-.6.4,0,1.3.6.9Z"/>
          <path class="st59" d="M36.1,12.1c.6-.4,0-1.3-.6-.9-.6.4,0,1.3.6.9Z"/>
          <path class="st59" d="M38.4,15.6c.6-.4,0-1.3-.6-.9-.6.4,0,1.3.6.9Z"/>
          <path class="st59" d="M40.8,19.1c.6-.4,0-1.3-.6-.9-.6.4,0,1.3.6.9Z"/>
          <path class="st59" d="M43.1,22.7c.6-.4,0-1.3-.6-.9-.6.4,0,1.3.6.9Z"/>
          <path class="st59" d="M45.5,26.2c.6-.4,0-1.3-.6-.9-.6.4,0,1.3.6.9Z"/>
          <path class="st59" d="M47.8,29.7c.6-.4,0-1.3-.6-.9-.6.4,0,1.3.6.9Z"/>
          <path class="st59" d="M50.1,33.2c.6-.4,0-1.3-.6-.9-.6.4,0,1.3.6.9Z"/>
          <path class="st59" d="M52.5,36.7c.6-.4,0-1.3-.6-.9s0,1.3.6.9Z"/>
          <path class="st59" d="M54.8,40.3c.6-.4,0-1.3-.6-.9-.6.4,0,1.3.6.9Z"/>
          <path class="st59" d="M57.2,43.8c.6-.4,0-1.3-.6-.9s0,1.3.6.9Z"/>
          <path class="st59" d="M59.5,47.3c.6-.4,0-1.3-.6-.9s0,1.3.6.9Z"/>
          <path class="st59" d="M61.9,50.8c.6-.4,0-1.3-.6-.9-.6.4,0,1.3.6.9Z"/>
          <path class="st59" d="M64.2,54.3c.6-.4,0-1.3-.6-.9-.6.4,0,1.3.6.9Z"/>
          <path class="st59" d="M66.5,57.9c.6-.4,0-1.3-.6-.9-.6.4,0,1.3.6.9Z"/>
          <path class="st59" d="M33.1,1.6c.6-.4,0-1.3-.6-.9-.6.4,0,1.3.6.9Z"/>
          <path class="st59" d="M35.5,5.1c.6-.4,0-1.3-.6-.9-.6.4,0,1.3.6.9Z"/>
          <path class="st59" d="M37.8,8.6c.6-.4,0-1.3-.6-.9-.6.4,0,1.3.6.9Z"/>
          <path class="st59" d="M40.2,12.2c.6-.4,0-1.3-.6-.9-.6.4,0,1.3.6.9Z"/>
          <path class="st59" d="M42.5,15.7c.6-.4,0-1.3-.6-.9-.6.4,0,1.3.6.9Z"/>
          <path class="st59" d="M44.9,19.2c.6-.4,0-1.3-.6-.9-.6.4,0,1.3.6.9Z"/>
          <path class="st59" d="M47.2,22.7c.6-.4,0-1.3-.6-.9-.6.4,0,1.3.6.9Z"/>
          <path class="st59" d="M49.5,26.2c.6-.4,0-1.3-.6-.9s0,1.3.6.9Z"/>
          <path class="st59" d="M51.9,29.8c.6-.4,0-1.3-.6-.9-.6.4,0,1.3.6.9Z"/>
          <path class="st59" d="M54.2,33.3c.6-.4,0-1.3-.6-.9-.6.4,0,1.3.6.9Z"/>
          <path class="st59" d="M56.6,36.8c.6-.4,0-1.3-.6-.9-.6.4,0,1.3.6.9Z"/>
          <path class="st59" d="M58.9,40.3c.6-.4,0-1.3-.6-.9-.6.4,0,1.3.6.9Z"/>
          <path class="st59" d="M61.2,43.8c.6-.4,0-1.3-.6-.9-.6.4,0,1.3.6.9Z"/>
          <path class="st59" d="M63.6,47.4c.6-.4,0-1.3-.6-.9s0,1.3.6.9Z"/>
          <path class="st59" d="M65.9,50.9c.6-.4,0-1.3-.6-.9s0,1.3.6.9Z"/>
          <path class="st59" d="M68.3,54.4c.6-.4,0-1.3-.6-.9-.6.4,0,1.3.6.9Z"/>
          <path class="st59" d="M37,1.3c.6-.4,0-1.3-.6-.9-.6.4,0,1.3.6.9Z"/>
          <path class="st59" d="M39.4,4.9c.6-.4,0-1.3-.6-.9-.6.4,0,1.3.6.9Z"/>
          <path class="st59" d="M41.7,8.4c.6-.4,0-1.3-.6-.9-.6.4,0,1.3.6.9Z"/>
          <path class="st59" d="M44,11.9c.6-.4,0-1.3-.6-.9-.6.4,0,1.3.6.9Z"/>
          <path class="st59" d="M46.4,15.4c.6-.4,0-1.3-.6-.9s0,1.3.6.9Z"/>
          <path class="st59" d="M48.7,18.9c.6-.4,0-1.3-.6-.9-.6.4,0,1.3.6.9Z"/>
          <path class="st59" d="M51.1,22.5c.6-.4,0-1.3-.6-.9-.6.4,0,1.3.6.9Z"/>
          <path class="st59" d="M53.4,26c.6-.4,0-1.3-.6-.9-.6.4,0,1.3.6.9Z"/>
          <path class="st59" d="M55.7,29.5c.6-.4,0-1.3-.6-.9s0,1.3.6.9Z"/>
          <path class="st59" d="M58.1,33c.6-.4,0-1.3-.6-.9-.6.4,0,1.3.6.9Z"/>
          <path class="st59" d="M60.4,36.5c.6-.4,0-1.3-.6-.9s0,1.3.6.9Z"/>
          <path class="st59" d="M62.8,40.1c.6-.4,0-1.3-.6-.9-.6.4,0,1.3.6.9Z"/>
          <path class="st59" d="M65.1,43.6c.6-.4,0-1.3-.6-.9s0,1.3.6.9Z"/>
          <path class="st59" d="M67.4,47.1c.6-.4,0-1.3-.6-.9s0,1.3.6.9Z"/>
          <path class="st59" d="M69.8,50.6c.6-.4,0-1.3-.6-.9-.6.4,0,1.3.6.9Z"/>
          <path class="st59" d="M72.1,54.1c.6-.4,0-1.3-.6-.9-.6.4,0,1.3.6.9Z"/>
          <path class="st59" d="M41.1,1.4c.6-.4,0-1.3-.6-.9-.6.4,0,1.3.6.9Z"/>
          <path class="st59" d="M43.4,4.9c.6-.4,0-1.3-.6-.9-.6.4,0,1.3.6.9Z"/>
          <path class="st59" d="M45.8,8.4c.6-.4,0-1.3-.6-.9-.6.4,0,1.3.6.9Z"/>
          <path class="st59" d="M48.1,12c.6-.4,0-1.3-.6-.9s0,1.3.6.9Z"/>
          <path class="st59" d="M50.4,15.5c.6-.4,0-1.3-.6-.9-.6.4,0,1.3.6.9Z"/>
          <path class="st59" d="M52.8,19c.6-.4,0-1.3-.6-.9-.6.4,0,1.3.6.9Z"/>
          <path class="st59" d="M55.1,22.5c.6-.4,0-1.3-.6-.9-.6.4,0,1.3.6.9Z"/>
          <path class="st59" d="M57.5,26c.6-.4,0-1.3-.6-.9-.6.4,0,1.3.6.9Z"/>
          <path class="st59" d="M59.8,29.6c.6-.4,0-1.3-.6-.9-.6.4,0,1.3.6.9Z"/>
          <path class="st59" d="M62.1,33.1c.6-.4,0-1.3-.6-.9-.6.4,0,1.3.6.9Z"/>
          <path class="st59" d="M64.5,36.6c.6-.4,0-1.3-.6-.9-.6.4,0,1.3.6.9Z"/>
          <path class="st59" d="M66.8,40.1c.6-.4,0-1.3-.6-.9s0,1.3.6.9Z"/>
          <path class="st59" d="M69.2,43.6c.6-.4,0-1.3-.6-.9-.6.4,0,1.3.6.9Z"/>
          <path class="st59" d="M71.5,47.2c.6-.4,0-1.3-.6-.9s0,1.3.6.9Z"/>
          <path class="st59" d="M44.9,1.1c.6-.4,0-1.3-.6-.9-.6.4,0,1.3.6.9Z"/>
          <path class="st59" d="M47.3,4.7c.6-.4,0-1.3-.6-.9-.6.4,0,1.3.6.9Z"/>
          <path class="st59" d="M49.6,8.2c.6-.4,0-1.3-.6-.9-.6.4,0,1.3.6.9Z"/>
          <path class="st59" d="M52,11.7c.6-.4,0-1.3-.6-.9-.6.4,0,1.3.6.9Z"/>
          <path class="st59" d="M54.3,15.2c.6-.4,0-1.3-.6-.9-.6.4,0,1.3.6.9Z"/>
          <path class="st59" d="M56.6,18.7c.6-.4,0-1.3-.6-.9-.6.4,0,1.3.6.9Z"/>
          <path class="st59" d="M59,22.3c.6-.4,0-1.3-.6-.9-.6.4,0,1.3.6.9Z"/>
          <path class="st59" d="M61.3,25.8c.6-.4,0-1.3-.6-.9-.6.4,0,1.3.6.9Z"/>
          <path class="st59" d="M63.7,29.3c.6-.4,0-1.3-.6-.9-.6.4,0,1.3.6.9Z"/>
          <path class="st59" d="M66,32.8c.6-.4,0-1.3-.6-.9-.6.4,0,1.3.6.9Z"/>
          <path class="st59" d="M68.4,36.3c.6-.4,0-1.3-.6-.9s0,1.3.6.9Z"/>
          <path class="st59" d="M70.7,39.9c.6-.4,0-1.3-.6-.9-.6.4,0,1.3.6.9Z"/>
        </g>
      </g>
      <path class="st28" d="M22,32.4c1.2,1.8.5,4.2-1.5,5.1l-5.5,2.4.7-5.9c.4-3.2,4.5-4.2,6.3-1.5h0Z"/>
      <path class="st28" d="M5.5,43.4c1.2,1.8,3.7,2.1,5.2.6l4.3-4.1-5.7-1.6c-3.1-.9-5.6,2.5-3.8,5.2h0Z"/>
      <path class="st28" d="M15,39.8v12.5"/>
      <path class="st28" d="M15,39.8l11.6,4.8"/>
      <path class="st28" d="M4.7,24.3l32.2,48.4"/>
      <path class="st9" d="M186.3,450.6h-110.6v34.8h110.6v-34.8Z"/>
      <path class="st57" d="M89.7,485.1l-13.8-17.2,13.8-17.2,13.8,17.2-13.8,17.2Z"/>
      <path class="st57" d="M117.3,485.1l-13.8-17.2,13.8-17.2,13.8,17.2-13.8,17.2Z"/>
      <path class="st57" d="M144.9,485.1l-13.8-17.2,13.8-17.2,13.8,17.2-13.8,17.2Z"/>
      <path class="st57" d="M172.5,485.1l-13.8-17.2,13.8-17.2,13.8,17.2-13.8,17.2Z"/>
      <path class="st8" d="M186.3,450.6h-110.6v34.8h110.6v-34.8Z"/>
      <path class="st43" d="M148.6,435.4l-3.1,3.7c-.2.3-.5.5-.8.7,0,0-.1,0-.2.1-1.5.9-3.4.7-4.7-.4-1.7-1.4-1.9-4-.5-5.7l3.1-3.7c2.4-2.8,2-7.1-.8-9.5-1.4-1.2-3.1-1.7-5-1.5-.1,0-.3,0-.4,0-1.6.3-3,1.1-4.1,2.3l-34.3,41-6.2-5.2,34.3-41c1.8-2.2,4.3-3.8,7-4.7,0,0,0,0,.1,0,1.9-.6,3.9-.7,5.9-.5.3,0,.5,0,.8.1,2.6.4,5,1.5,7,3.2,5.9,5,7,13.8,2.5,20-.2.2-.3.4-.5.6,0,.1-.1.2-.2.2h0Z"/>
      <path class="st41" d="M104.7,454.3l-4.6,5.5-3.5-8.5,4.6-5.5,3.5,8.5Z"/>
      <path class="st41" d="M116.5,440.2l-3.5-8.5-4.6,5.5,3.5,8.5,4.6-5.5Z"/>
      <path class="st41" d="M124.8,417.7l3.5,8.5-4.6,5.5-3.5-8.5,4.6-5.5Z"/>
      <path class="st41" d="M148.6,435.4l-3.1,3.7c-.2.3-.5.5-.8.7l-3.4-8.3,1.2-1.4c2.4-2.8,2-7.1-.8-9.5-1.4-1.2-3.1-1.7-5-1.5-.1,0-.3,0-.4,0l-3.1-7.6c1.9-.6,3.9-.7,5.9-.5.3,0,.5,0,.8.1l9.6,23.2c-.2.2-.3.4-.5.6,0,.1-.1.2-.2.2h0Z"/>
      <path class="st18" d="M363.3,19.3l-12.4,20.7"/>
      <path class="st18" d="M367.5,35.9l-20.7-12.4"/>
      <path class="st18" d="M368.8,26.7l-23.4,5.9"/>
      <path class="st18" d="M360.1,41.4l-5.9-23.4"/>
      <path class="st18" d="M369,31.6l-23.8-3.8"/>
      <path class="st18" d="M355.2,41.6l3.8-23.8"/>
      <path class="st18" d="M366.9,22.6l-19.5,14.2"/>
      <path class="st18" d="M364.2,39.5l-14.2-19.5"/>
      <path class="st19" d="M378.1,41.8l-41.5-24.8-21.5,36.1,41.5,24.8,21.5-36.1Z"/>
      <path class="st17" d="M343.6,21.2l-21.5,36.1"/>
      <path class="st17" d="M352.7,26.7l-21.5,36.1"/>
      <path class="st17" d="M361.8,32.1l-21.5,36.1"/>
      <path class="st17" d="M371,37.6l-21.5,36.1"/>
      <path class="st12" d="M378.1,41.8l-41.5-24.8-21.5,36.1,41.5,24.8,21.5-36.1Z"/>
      <path class="st9" d="M236.5,44.6c8.1-1.8,13.1-9.9,11.3-17.9-1.8-8.1-9.9-13.1-17.9-11.3-8.1,1.8-13.1,9.9-11.3,17.9,1.8,8.1,9.9,13.1,17.9,11.3Z"/>
      <path class="st55" d="M240.6,17h0c-.4-.2-.4-.3-.6-.4-.4-.2-.4-.2-.7-.3-.2,0-.4-.2-.6-.2.8.3,1.6.9,2.2,1.8,0-.5,0-.7-.2-.8Z"/>
      <path class="st55" d="M245.2,21.1c-.6-.8-1.1-1.4-2.2-2.4-.5-.5-1.2-.8-2.1-.8,1.9.8,2.9,1.5,4.4,3.3Z"/>
      <path class="st8" d="M236.5,44.6c8.1-1.8,13.1-9.9,11.3-17.9-1.8-8.1-9.9-13.1-17.9-11.3-8.1,1.8-13.1,9.9-11.3,17.9,1.8,8.1,9.9,13.1,17.9,11.3Z"/>
      <path class="st28" d="M245.4,13.5l6.3,23.4c1,3.8,3.7,7,7.2,8.8,3,1.5,8.7,3.4,11.2,0,1.1-1.4.2-3.3-1-4.4-2.6-2.5-6.8-3.2-10.2-3.5-4.4-.4-8.8-.2-13.1.4"/>
      <path class="st13" d="M242.6,17.5c.3.3.8.2,1.1-.1l2.4-2.9c.3-.3.2-.8-.1-1.1-.3-.3-.8-.2-1.1.1l-2.4,2.9c-.3.3-.2.8.1,1.1Z"/>
      <path class="st13" d="M238.9,16.6l2.3-2.8c.2-.3.6-.3.9,0l4.4,3.6c.3.2.3.6,0,.9l-2.3,2.8c-.3.3-.8.4-1.1.1l-4.2-3.4c-.3-.3-.4-.8-.1-1.1h0Z"/>
      <path class="st15" d="M225.9,31.1v7.8"/>
      <path class="st15" d="M229.8,35h-7.8"/>
      <path class="st15" d="M223.1,32.2l5.5,5.5"/>
      <path class="st15" d="M228.6,32.2l-5.5,5.5"/>
      <path class="st15" d="M231.4,17.4v7.8"/>
      <path class="st15" d="M235.3,21.3h-7.8"/>
      <path class="st15" d="M228.6,18.6l5.5,5.5"/>
      <path class="st15" d="M234.2,18.6l-5.5,5.5"/>
      <path class="st15" d="M240.9,30v7.8"/>
      <path class="st15" d="M244.8,33.9h-7.8"/>
      <path class="st15" d="M238.1,31.1l5.5,5.5"/>
      <path class="st15" d="M243.7,31.1l-5.5,5.5"/>
      <path class="st55" d="M233.8,30.2c0,.3-.3.6-.6.6s-.6-.3-.6-.6.3-.6.6-.6.6.3.6.6Z"/>
      <path class="st55" d="M222.2,26c0,.3-.3.6-.6.6s-.6-.3-.6-.6.3-.6.6-.6.6.3.6.6Z"/>
      <path class="st55" d="M242.3,24.6c.3,0,.6-.3.6-.6s-.3-.6-.6-.6-.6.3-.6.6.3.6.6.6Z"/>
      <path class="st55" d="M235.1,40.5c0,.3-.3.6-.6.6s-.6-.3-.6-.6.3-.6.6-.6.6.3.6.6Z"/>
      <path class="st9" d="M65.7,267.2c1.8-8.1-3.2-16.1-11.3-17.9-8.1-1.8-16.1,3.2-17.9,11.3-1.8,8.1,3.2,16.1,11.3,18,8.1,1.8,16.1-3.2,17.9-11.3Z"/>
      <path class="st55" d="M43.7,250.9h0c.4-.2.4-.3.6-.4.4-.2.4-.2.7-.3.2,0,.4-.2.6-.2-.8.3-1.6.9-2.2,1.8,0-.5,0-.7.2-.8Z"/>
      <path class="st55" d="M39.1,255c.6-.8,1.1-1.4,2.2-2.4.5-.5,1.2-.8,2.1-.8-1.9.8-2.9,1.5-4.4,3.3Z"/>
      <path class="st8" d="M65.7,267.2c1.8-8.1-3.2-16.1-11.3-17.9-8.1-1.8-16.1,3.2-17.9,11.3-1.8,8.1,3.2,16.1,11.3,18,8.1,1.8,16.1-3.2,17.9-11.3Z"/>
      <path class="st28" d="M38.9,247.4l-6.3,23.4c-1,3.8-3.7,7-7.2,8.8-3,1.5-8.7,3.4-11.2,0-1.1-1.4-.2-3.3,1-4.4,2.6-2.5,6.8-3.2,10.2-3.5,4.4-.4,8.8-.2,13.1.4"/>
      <path class="st13" d="M41.7,251.4c-.3.3-.8.2-1.1-.1l-2.4-2.9c-.3-.3-.2-.8.1-1.1.3-.3.8-.2,1.1.1l2.4,2.9c.3.3.2.8-.1,1.1Z"/>
      <path class="st13" d="M45.4,250.5l-2.3-2.8c-.2-.3-.6-.3-.9,0l-4.4,3.6c-.3.2-.3.6,0,.9l2.3,2.8c.3.3.8.4,1.1.1l4.2-3.4c.3-.3.4-.8.1-1.1h0Z"/>
      <path class="st54" d="M41.5,271.9l-4.8-7.5,4.8-7.5,4.8,7.5-4.8,7.5Z"/>
      <path class="st54" d="M51.1,271.9l-4.8-7.5,4.8-7.5,4.8,7.5-4.8,7.5Z"/>
      <path class="st54" d="M60.7,271.9l-4.8-7.5,4.8-7.5,4.8,7.5-4.8,7.5Z"/>
      <path class="st28" d="M361.1,460.9l-2.2-1,3.7-13c.5-1.9,2.6-2.8,4.4-2,1.8.8,2.4,3,1.4,4.7l-7.3,11.4h0Z"/>
      <path class="st58" d="M357.7,496c6.5-13.9,11.6-21.1,18.5-31l-28.6-13-11.9,30.2-10.6-2.3c-4.1-.9-7.8-2.9-10.6-6-.2-.2-.3-.3-.5-.5-3-3.5-3.3-6.7-3.8-8.6l-3.8,18.2c0,.4-.2.8-.3,1.2-2,7.8,3.4,15.6,11.4,16.8,7.4,1,11,.7,21.2,7.2,0,0,0,0,.1,0,5.5,3.6,12.8,1.3,15.4-4.7,1.1-2.5,2.2-5,3.4-7.6h0Z"/>
      <g class="st51">
        <g>
          <path class="st25" d="M339.3,465.2l31.3,14.2"/>
          <path class="st25" d="M337.1,470l31.3,14.2"/>
          <path class="st25" d="M334.9,474.9l31.3,14.2"/>
          <path class="st25" d="M304,466.6l60.1,27.3"/>
          <path class="st25" d="M303.9,472.5l57.9,26.3"/>
          <path class="st25" d="M302.9,477.8l56.8,25.8"/>
          <path class="st25" d="M300.8,482.7l56.7,25.7"/>
          <path class="st25" d="M301.1,488.7l54.1,24.6"/>
          <path class="st16" d="M331.5,498.4v7.8"/>
          <path class="st16" d="M335.4,502.4h-7.8"/>
          <path class="st16" d="M328.8,499.6l5.5,5.5"/>
          <path class="st16" d="M334.3,499.6l-5.5,5.5"/>
        </g>
      </g>
      <path class="st28" d="M357.7,496c6.5-13.9,11.6-21.1,18.5-31l-28.6-13-11.9,30.2-10.6-2.3c-4.1-.9-7.8-2.9-10.6-6-.2-.2-.3-.3-.5-.5-3-3.5-3.3-6.7-3.8-8.6l-3.8,18.2c0,.4-.2.8-.3,1.2-2,7.8,3.4,15.6,11.4,16.8,7.4,1,11,.7,21.2,7.2,0,0,0,0,.1,0,5.5,3.6,12.8,1.3,15.4-4.7,1.1-2.5,2.2-5,3.4-7.6h0Z"/>
      <path class="st40" d="M314.8,468.1c-1.3,2.8-4.6,4-7.4,2.8s-4-4.6-2.8-7.4c1.3-2.8,4.6-4,7.4-2.8,2.8,1.3,4,4.6,2.8,7.4Z"/>
      <path class="st38" d="M354.3,503.6c-2.6,6-9.9,8.3-15.4,4.7,0,0,0,0-.1,0-1.4-.9-2.7-1.7-3.8-2.3,3.8-7.2,12.6-10.3,20.2-6.9.3.2.7.3,1,.5-.6,1.4-1.2,2.7-1.8,4.1h0Z"/>
      <path class="st16" d="M357.9,475.5v7.8"/>
      <path class="st16" d="M361.8,479.4h-7.8"/>
      <path class="st16" d="M355.1,476.6l5.5,5.5"/>
      <path class="st16" d="M360.6,476.6l-5.5,5.5"/>
      <path class="st16" d="M340.9,482.1v7.8"/>
      <path class="st16" d="M344.8,486h-7.8"/>
      <path class="st16" d="M338.1,483.3l5.5,5.5"/>
      <path class="st16" d="M343.7,483.3l-5.5,5.5"/>
      <path class="st16" d="M350,461.3v7.8"/>
      <path class="st16" d="M354,465.2h-7.8"/>
      <path class="st16" d="M347.3,462.4l5.5,5.5"/>
      <path class="st16" d="M352.8,462.4l-5.5,5.5"/>
      <path class="st16" d="M314.1,484.7v7.8"/>
      <path class="st16" d="M318,488.6h-7.8"/>
      <path class="st16" d="M311.3,485.8l5.5,5.5"/>
      <path class="st16" d="M316.9,485.8l-5.5,5.5"/>
      <path class="st40" d="M374.6,462.9c-.8-.4-1.7-.5-2.5-.5-.7,0-1.3-.3-1.7-.8-1.1-1.4-3-2.3-4.8-2.2-.7,0-1.3-.3-1.8-.8-1.1-1.4-3-2.2-4.8-2.2-.7,0-1.3-.3-1.8-.8-1.1-1.4-3-2.2-4.8-2.2-.7,0-1.3-.3-1.8-.8-2.6-3.2-8.4-2.7-10.1,1.3-2,4,1.5,8.6,5.6,8.5.7,0,1.3.3,1.8.8,1.1,1.4,3,2.2,4.8,2.2.7,0,1.3.3,1.8.8,1.1,1.4,3,2.2,4.8,2.2.7,0,1.3.3,1.8.8,1.2,1.4,3.1,2.2,4.9,2.2.7,0,1.3.2,1.7.7,5.8,7.1,16-4.2,7.2-9.1,0,0-.2,0-.2-.1h0Z"/>
    </g>
  </g>
</svg>