<svg width="448" height="370" viewBox="0 0 448 370" fill="none" xmlns="http://www.w3.org/2000/svg">
<path d="M120.197 51.7772C114.017 53.2552 110.782 48.2975 110.782 37.9979C110.782 27.71 114.098 21.891 120.197 18.7022C128.983 14.1285 136.885 11.7544 145.055 12.1384C150.735 12.4643 154.703 16.1302 154.703 28.4548C154.715 72.1087 141.645 98.6665 125.713 110.397C119.801 114.738 112.841 114.401 110.77 106.778C108.489 98.3755 110.398 91.0785 115.879 85.5156C125.003 76.2518 133.208 62.3212 133.208 46.1561C133.208 43.5958 133.208 41.0238 133.208 38.4634C132.382 42.1876 131.858 45.4695 131.858 49.1238C127.959 49.9617 124.072 50.8462 120.197 51.7772ZM179.341 71.3406C179.259 79.9643 179.038 89.1001 178.805 99.5277C178.573 109.059 174.115 114.925 168.296 115.262C162.559 115.6 158.136 110.363 157.904 101.064C157.147 70.9914 157.147 52.394 157.904 22.6242C158.136 13.2673 162.547 6.86643 168.296 5.94703C174.115 5.016 178.573 10.125 178.805 19.61C178.957 26.0225 179.108 31.9113 179.189 37.5557C179.422 37.5324 179.655 37.5091 179.876 37.4858C183.03 37.16 184.95 40.6164 184.95 54.035C184.95 67.3255 183.018 71.0613 179.876 71.3057C179.701 71.3057 179.527 71.3289 179.341 71.3406Z" fill="#72594F"/>
<path d="M191.2 64.0552C188.348 64.2298 186.114 60.3892 186.114 55.222C186.114 50.1944 188.348 45.8767 191.2 45.6673C212.741 44.1543 234.446 44.1427 256 45.6323C258.851 45.8302 261.167 50.1595 261.167 55.1871C261.167 60.3543 258.851 64.1949 256 64.0203C234.446 62.7401 212.741 62.7518 191.2 64.0552ZM223.285 42.0479C200.754 42.1526 189.966 37.0319 189.966 22.4612C189.966 8.12328 200.754 0.186207 223.285 0C245.817 0.116379 256.617 8.01854 256.617 22.3681C256.617 36.9505 245.828 42.1061 223.285 42.0479ZM218.875 97.6888C218.642 96.2574 217.944 95.0819 217.094 94.0462C217.874 97.3048 217.874 100.831 217.094 104.101C217.944 103.054 218.642 101.867 218.875 100.691C230.07 100.622 241.278 100.785 252.45 101.192C254.999 101.285 256.314 104.194 256.314 107.43C256.314 110.805 254.999 113.97 248.982 114.587C233.76 116.379 215.535 116.368 200.324 114.541C194.295 113.912 192.142 112.318 191.293 106.522C190.827 103.822 190.827 97.3513 191.444 93.0453C192.061 88.2272 194.295 85.1315 197.542 85.0035C207.656 84.5962 217.804 84.4216 227.941 84.4914C228.173 85.7949 228.953 86.9819 229.721 88.0293C228.942 84.7591 228.942 81.5005 229.721 78.1138C228.942 79.2776 228.173 80.453 227.941 81.6285C217.082 81.5586 206.213 81.7681 195.378 82.2453C192.91 82.35 191.514 78.8005 191.514 75.053C191.514 71.294 192.899 67.7211 195.378 67.5931C213.335 66.6737 231.397 66.6272 249.366 67.4535C253.695 67.663 254.766 70.7121 255.383 75.5302C256 79.8362 256 86.3069 255.383 90.4268C254.766 95.1983 253.684 98.2475 249.366 98.1078C239.218 97.7587 229.046 97.619 218.875 97.6888ZM217.711 16.5142C220.039 19.6099 220.108 23.6599 217.944 26.9535C221.039 23.1129 225.764 23.1129 228.779 27.0698C226.451 23.7879 226.451 19.7379 228.779 16.5026C225.683 20.3664 220.807 20.3664 217.711 16.5142Z" fill="#72594F"/>
<path d="M328.283 92.2657C333.415 93.1502 336.883 99.1903 336.883 105.975C336.883 112.993 333.415 117.322 328.283 117.066C310.209 116.414 291.274 114.867 272.235 112.167C266.939 111.503 263.39 106.068 263.39 98.3175C263.39 90.8343 266.928 85.0967 272.235 85.5041C277.658 85.9114 283.07 86.3886 288.458 86.9239C288.458 84.8989 288.458 82.8855 288.458 80.8605C276.017 77.0317 269.383 69.1411 269.383 54.5937C269.383 45.3532 273.003 38.5915 279.892 35.0536C278.31 34.8441 276.727 34.6463 275.144 34.4484C270.547 33.8898 266.846 27.873 266.846 20.6575C266.846 13.57 270.535 8.33289 275.144 9.00789C280.183 9.72945 285.199 10.5557 290.204 11.4868C290.204 11.2307 290.204 10.9864 290.204 10.7303C290.204 2.52558 294.859 0.291085 300.468 1.59453C306.159 2.92126 310.675 7.21566 310.675 15.176C310.675 15.4204 310.675 15.6648 310.675 15.9092C315.621 17.1312 320.544 18.4579 325.443 19.901C329.924 21.2277 333.473 27.5704 333.473 34.0411C333.473 40.6282 329.924 44.8411 325.443 43.7471C323.93 43.3631 322.406 43.0023 320.893 42.6299C327.62 48.4838 331.099 55.8971 331.099 64.4045C331.088 78.0092 324.454 83.4907 311.804 83.9679C311.804 85.8881 311.804 87.8084 311.804 89.7286C317.332 90.5084 322.825 91.3463 328.283 92.2657ZM292.426 49.6243C295.627 55.7691 295.627 57.9803 292.426 63.3338C296.767 57.4799 304.355 58.7717 308.568 65.7777C305.473 59.598 305.473 57.3286 308.568 52.3592C304.274 57.7941 296.767 56.6769 292.426 49.6243Z" fill="#72594F"/>
<path d="M30.1423 168.925C31.3991 172.114 33.9828 174.115 38.2888 176.489C41.7918 178.398 43.2233 184.427 40.9888 189.524C38.7543 194.796 35.2513 195.948 30.5379 194.214C27.3491 193.12 23.6134 190.979 21.1461 188.453C22.9034 186.161 24.4164 183.868 25.0681 180.505C21.1927 187.511 16.6423 191.165 11.1724 193.574C6.9013 195.343 3.03751 193.33 0.989232 189.152C-0.989218 184.845 0.605167 180.353 3.92198 178.573C7.99526 176.292 10.544 173.941 11.6263 170.38C9.79913 170.531 7.98362 170.682 6.17974 170.845C1.83879 171.194 0 168.331 0 164.177C0 159.87 1.83879 156.589 6.17974 155.285C8.0069 154.761 9.96208 154.203 12.0104 153.714C12.0104 148.686 15.8974 146.359 20.7039 145.242C25.5104 144.124 29.5604 144.753 29.6302 150.42C31.5504 150.176 33.4125 150.036 35.2164 149.92C39.8367 149.594 41.8849 153.062 41.8849 158.718C41.8849 164.188 39.8367 168.273 35.2164 168.576C33.5056 168.68 31.8181 168.808 30.1423 168.925ZM37.6138 202.384C41.722 202.768 43.0255 206.678 43.0138 212.649C43.0138 217.851 41.7104 221.33 37.6138 221.179C27.1746 220.76 15.2457 217.886 5.28363 214.127C1.45475 212.707 0.302586 209.53 0.290948 205.561C0.290948 201.011 1.45475 198.287 5.28363 198.753C7.85562 199.079 10.4509 199.405 13.081 199.719C13.081 198.66 13.081 197.589 13.081 196.53C13.081 193.527 16.7121 192.003 21.2741 192.259C25.8362 192.515 29.4789 194.668 29.4789 198.043C29.4789 199.218 29.4789 200.394 29.4789 201.569C32.1672 201.837 34.8789 202.116 37.6138 202.384ZM53.4182 227.196C48.5884 226.277 44.9224 221.342 44.7129 214.313C44.0961 191.467 44.0961 177.525 44.7129 155.064C44.9224 148.035 48.5884 143.182 53.4182 142.367C58.2479 141.552 62.0302 145.474 62.2397 153.051C62.8681 177.025 62.8681 192.305 62.2397 216.675C62.0302 224.263 58.2479 228.115 53.4182 227.196Z" fill="#72594F"/>
<path d="M66.6621 183.041C66.6737 154.354 72.388 139.632 83.6652 138.014C94.8841 136.455 100.947 151.107 100.936 183.123C100.947 215.022 94.8958 229.768 83.6652 228.15C72.388 226.486 66.6737 211.624 66.6621 183.041ZM86.9703 171.031C85.0966 174.522 82.8621 174.534 81.0698 171.217C82.9319 175.5 82.8621 187.278 81.0698 191.793C82.8621 188.581 85.0849 188.581 87.0401 191.956C85.1664 187.138 85.1664 175.628 86.9703 171.031ZM117.52 196.693C117.45 205.956 117.299 215.209 117.147 224.694C116.996 231.455 113.877 234.586 109.967 234.144C106.057 233.701 103.054 230 102.903 223.437C102.391 197.007 102.391 172.334 102.903 146.021C103.054 139.457 106.057 135.791 109.967 135.396C113.877 135 116.926 138.165 117.147 144.927C117.299 151.922 117.45 158.683 117.52 165.456C118.358 165.433 119.207 165.398 120.045 165.375C120.115 158.45 120.266 151.398 120.418 144.345C120.488 137.549 123.688 133.79 127.738 133.452C131.707 133.115 134.872 136.431 135.023 143.403C135.698 171.392 135.698 199.393 135.023 227.382C134.872 234.365 131.707 237.635 127.738 237.262C123.7 236.878 120.499 233.084 120.418 226.288C120.197 216.477 120.045 206.678 119.976 196.774C119.161 196.739 118.335 196.716 117.52 196.693Z" fill="#72594F"/>
<path d="M162.861 205.27C158.963 205.177 156.6 200.452 156.6 194.167C156.6 188.127 158.963 183.216 162.861 183.216C165.945 183.216 169.029 183.216 172.125 183.228C172.125 182.925 172.125 182.634 172.125 182.332C172.207 174.162 177.188 173.987 183.728 173.952C190.199 173.917 195.133 174.022 195.296 182.332C195.296 182.634 195.296 182.937 195.296 183.239C205.2 183.239 215.139 183.251 225.078 183.251C229.023 183.251 231.42 188.337 231.42 194.61C231.42 201.127 228.325 205.968 224.379 205.968C203.78 205.968 183.181 205.736 162.861 205.27ZM225.683 149.431C225.683 153.085 225.45 167.575 224.752 172.276C223.588 180.376 218.479 181.156 211.752 180.504C205.561 179.725 201.162 178.037 201.546 169.716C190.024 171.194 177.397 171.532 166.609 171.648C162.175 171.683 160.033 168.052 160.033 163.501C160.033 159.079 162.163 155.355 166.609 155.238C177.479 154.959 190.257 154.866 201.86 154.11C201.86 150.42 201.86 146.743 201.86 143.054C200.778 145.276 200.475 148.663 200.475 151.654C189.687 151.77 178.922 151.98 168.226 152.271C163.245 152.399 161.034 149.059 161.034 143.24C161.034 136.664 164.619 133.953 170.985 132.533C184.776 129.367 201.779 129.03 215.639 131.451C222.145 132.579 225.706 137.176 225.706 143.566C225.683 145.509 225.683 147.476 225.683 149.431ZM218.572 218.875C223.216 218.886 226.16 224.1 226.16 230.629C226.16 236.89 223.216 241.487 215.011 242.348C201.15 243.815 186.475 243.477 175.5 241.417C167.284 239.881 162.023 237.914 161.407 230.175C160.953 224.961 161.023 218.27 161.558 214.103C162.326 208.436 168.82 207.33 174.197 207.423C178.875 207.516 186.265 208.924 186.882 214.743C187.266 219.014 187.348 221.726 187.033 226.242C188.267 223.821 188.569 221.109 188.569 218.526C198.555 218.735 208.552 218.851 218.572 218.875Z" fill="#72594F"/>
<path d="M247.12 199.498C240.789 199.544 235.831 196.425 235.133 185.334C234.283 172.032 234.202 157.671 235.133 144.904C235.668 137.479 238.38 131.881 245.107 130.426C249.82 129.461 257.85 129.658 265.008 131.323C269.779 132.521 271.315 138.224 271.315 142.961C271.315 148.861 269.93 152.934 266.625 152.864C262.319 152.783 258.001 152.701 253.684 152.643C253.381 150.432 252.683 148.873 251.985 146.65C252.136 149.466 252.299 152.271 252.45 155.087C256.128 155.134 259.805 155.18 263.471 155.25C265.857 155.297 267.545 157.252 268.394 160.22C268.929 152.771 270.78 150.63 273.468 150.7C273.492 150.7 273.515 150.7 273.55 150.7C273.631 146.731 273.701 143.147 273.852 140.47C274.085 133.557 277.076 131.125 281.207 131.323C285.188 131.509 288.237 134.209 288.621 141.04C289.226 153.819 289.307 185.974 288.621 199.125C288.237 205.817 285.188 208.436 281.207 208.54C277.076 208.645 274.004 206.155 273.771 199.37C273.538 194.505 273.468 187.208 273.387 179.271C270.931 179.271 269.244 177.339 268.545 171.031C267.696 174.104 266.008 176.036 263.471 176.024C259.805 176.012 256.128 176.001 252.45 175.989C252.369 179.364 252.217 182.611 251.985 185.334C252.683 183.123 253.37 181.308 253.684 178.852C255.488 178.852 257.28 178.864 259.084 178.864C261.318 178.864 263.704 178.875 265.473 178.619C269.325 178.119 271.548 180.179 271.781 187.487C272.083 195.552 269.558 199.311 265.089 199.37C259.107 199.405 253.114 199.451 247.12 199.498ZM300.247 213.463C304.798 213.289 307.661 218.956 307.661 225.974C307.661 232.736 304.798 238.031 296.756 239.614C283.163 242.337 266.637 243.291 255.604 241.778C247.353 240.731 242.011 238.834 241.394 229.733C240.929 223.483 241.01 215.407 241.545 210.321C242.313 203.676 247.737 202.081 253.137 202.035C257.85 202 264.088 203.478 264.705 210.03C265.089 214.918 265.17 218.27 264.856 223.553C266.09 220.69 266.392 217.595 266.392 214.499C277.751 214.266 289.051 213.917 300.247 213.463ZM298.734 209.658C294.638 209.797 291.507 207.388 291.204 200.58C290.669 186.998 290.669 154.342 291.204 140.773C291.437 134.104 294.638 131.765 298.734 132.032C302.679 132.289 305.857 134.989 306.159 141.541C306.683 154.924 306.683 186.882 306.159 200.242C305.857 206.923 302.679 209.518 298.734 209.658Z" fill="#72594F"/>
<path d="M373.077 206.317C377.977 205.968 381.282 210.472 381.282 216.466C381.282 222.669 377.989 227.44 373.077 228.511C355.807 232.444 337.535 234.76 318.949 234.795C313.782 234.9 310.302 230.117 310.302 222.738C310.302 215.604 313.77 209.809 318.949 209.588C337.43 208.75 355.551 207.667 373.077 206.317ZM359.251 167.319C362.219 172.218 367.829 175.419 373.159 177.618C377.849 179.422 378.826 186.277 377.407 192.096C375.847 198.438 371.25 200.999 365.513 200.219C360.788 199.591 354.049 196.507 348.056 189.745C349.301 187.324 350.395 185.043 350.907 181.971C344.867 193.178 334.94 200.975 325.013 203.897C319.636 205.677 315.353 201.848 314.154 194.039C312.653 185.008 315.586 178.503 320.683 177.001C326.526 175.116 331.798 171.625 334.533 166.422C330.901 166.306 327.259 166.201 323.604 166.097C318.298 165.969 315.435 160.278 315.446 152.585C315.446 144.892 318.379 139.841 323.604 139.76C327.713 139.702 332.019 139.702 336.453 139.853C336.453 138.096 336.453 136.338 336.453 134.569C336.453 129.041 340.968 127.68 346.38 128.366C351.873 129.065 356.214 131.474 356.214 136.722C356.214 138.398 356.214 140.086 356.214 141.762C360.567 142.448 364.733 143.24 368.736 144.031C373.671 145.055 376.417 149.932 376.417 156.553C376.417 163.175 373.671 167.9 368.736 167.714C365.583 167.575 362.429 167.447 359.251 167.319Z" fill="#72594F"/>
<path d="M387.927 191.13C385.344 191.223 383.319 188.511 383.319 184.997C383.319 181.482 385.355 178.724 387.927 178.77C407.386 179.026 426.018 179.329 443.499 179.69C445.814 179.748 447.665 181.738 447.677 184.182C447.677 186.626 445.826 188.674 443.499 188.814C426.018 189.698 407.386 190.478 387.927 191.13ZM394.992 176.501C391.966 176.431 388.823 174.662 388.067 171.276C387.159 167.284 387.159 163.199 388.067 159.323C388.835 156.135 391.966 154.761 394.992 155.11C403.557 156.065 411.96 157.101 420.153 158.206C420.421 159.207 421.014 159.975 421.736 160.929C421.084 158.602 421.084 156.588 421.736 154.354C421.014 155.099 420.421 155.797 420.153 156.635C410.947 155.308 401.486 154.086 391.814 152.969C389.801 152.736 387.997 151.119 387.997 147.674C387.986 145.044 389.196 142.553 394.992 142.995C408.585 144.101 422.015 147.104 432.78 150.153C438.11 151.631 441.427 153.865 442.556 157.159C443.242 159.102 443.242 162.745 442.556 165.142C441.869 167.528 439.798 168.843 436.236 168.506C428.427 167.749 420.397 167.039 412.181 166.376C411.913 165.259 411.308 164.386 410.575 163.49C411.25 165.945 411.25 168.215 410.575 170.659C411.32 169.879 411.913 169.088 412.181 168.017C421.794 168.715 431.162 169.472 440.228 170.275C442.055 170.449 443.126 172.195 443.126 174.139C443.126 176.233 442.067 177.839 440.228 177.793C425.844 177.292 410.714 176.862 394.992 176.501ZM412.39 213.254C412.192 212.288 411.587 211.648 410.854 211.019C411.529 213.126 411.529 215.395 410.854 217.711C411.587 216.85 412.192 216.012 412.39 215.162C422.073 213.545 431.5 211.787 440.612 209.879C442.695 209.46 443.755 210.786 443.755 212.579C443.743 214.441 442.707 216.431 437.773 218.2C425.297 222.715 409.69 226.498 396.097 227.44C390.72 227.859 388.754 226.975 387.997 222.739C387.578 220.772 387.578 216 388.137 212.788C388.695 209.169 390.709 206.771 393.618 206.492C402.661 205.607 411.529 204.642 420.164 203.606C420.362 204.374 421.026 205.072 421.677 205.584C421.026 203.676 421.026 201.581 421.677 199.346C421.014 200.184 420.362 201.045 420.164 201.767C410.912 202.779 401.404 203.722 391.686 204.583C389.475 204.781 388.218 202.256 388.218 199.416C388.218 196.681 389.475 193.993 391.686 193.888C407.805 193.143 423.33 192.294 438.099 191.316C441.648 191.095 442.509 192.689 443.021 195.261C443.522 197.542 443.522 201.034 443.021 203.443C442.521 206.143 441.648 208.063 438.099 208.761C429.754 210.379 421.177 211.869 412.39 213.254Z" fill="#72594F"/>
<path d="M103.892 309.499C100.144 308.405 97.8867 303.727 97.8867 298.385C97.8867 293.276 100.144 289.657 103.892 290.564C109.885 292.031 115.937 293.381 122.024 294.626C122.024 293.229 122.024 291.833 122.024 290.436C118.369 289.715 114.727 288.97 111.107 288.167C106.01 287.038 102.053 284.233 101.692 279.566C101.029 271.269 101.25 261.923 101.692 253.486C101.762 249.948 106.01 249.226 111.107 249.925C116.275 250.646 120.604 252.613 120.674 256.337C120.72 258.013 120.779 259.701 120.825 261.376C122.163 261.213 123.513 261.4 125.003 261.97C125.05 260.329 125.108 258.688 125.154 257.059C125.306 253.358 129.484 252.415 133.697 252.869C138.736 253.416 142.064 255.22 142.216 259.072C142.297 260.771 142.367 262.47 142.448 264.169C143.729 263.948 144.939 264.076 146.312 264.588C146.335 262.854 146.359 261.109 146.394 259.375C146.545 255.534 151.095 254.475 156.193 254.882C161.372 255.301 165.817 257.129 165.887 261.074C166.422 270.524 166.574 280.975 165.887 289.936C165.503 294.987 161.372 296.581 156.193 295.918C152.515 295.452 148.838 294.952 145.183 294.405C145.183 295.848 145.183 297.303 145.183 298.746C151.596 299.735 158.043 300.596 164.514 301.341C168.413 301.783 170.787 306.741 170.787 312.49C170.787 318.495 167.714 322.604 163.816 322.068C143.484 319.31 123.42 315.109 103.892 309.499ZM144.415 328.411C144.415 322.336 149.035 321.964 154.354 322.813C159.684 323.674 163.664 325.467 164.502 331.821C165.654 340.491 165.654 347.369 164.805 354.596C163.967 361.823 160.441 363.755 155.11 363.29C140.272 362.114 126.632 358.146 112.213 351.407C107.034 349.022 103.589 345.391 102.856 338.571C102.123 331.856 102.053 325.42 103.147 318.042C103.95 312.653 107.697 312.583 112.876 313.968C118.055 315.353 122.606 317.634 122.606 323.523C122.606 323.919 122.606 324.326 122.606 324.722C130.822 325.234 136.164 326.398 144.404 329.656C144.415 329.237 144.415 328.83 144.415 328.411ZM118.009 269.767C120.162 273.096 120.162 276.936 118.009 279.52C120.837 276.366 125.236 277.064 128.087 281.173C125.992 277.798 125.992 274.073 128.087 271.362C125.224 274.69 120.825 273.922 118.009 269.767ZM128.599 336.86C130.845 340.468 130.845 344.378 128.599 346.799C131.52 343.854 136.327 345.03 139.353 349.441C137.095 345.938 136.944 342.237 139.05 339.758C136.036 342.539 131.45 341.236 128.599 336.86ZM139.283 272.921C141.471 276.285 141.471 280.253 139.283 283.023C142.146 279.625 146.615 280.183 149.501 284.291C147.371 280.893 147.371 277.053 149.501 274.178C146.615 277.728 142.146 277.123 139.283 272.921Z" fill="#72594F"/>
<path d="M173.696 308.72C173.696 273.212 182.739 256.768 196.798 257.163C210.705 257.582 219.922 274.923 219.922 311.233C219.922 347.369 210.705 364.942 196.798 363.872C182.739 362.708 173.696 344.052 173.696 308.72ZM199.882 297.815C197.868 301.76 195.482 301.632 193.551 297.501C195.552 302.796 195.482 316.68 193.551 321.998C195.482 318.239 197.868 318.367 199.963 322.382C197.95 316.68 197.95 303.052 199.882 297.815ZM243.524 326.607C243.442 334.94 243.291 343.668 243.058 353.7C242.826 363.336 238.648 369.318 233.236 369.47C227.813 369.621 223.402 363.848 223.402 354.189C222.855 323.116 222.704 304.053 223.402 272.979C223.402 263.32 227.813 257.582 233.236 257.524C238.648 257.466 242.826 263.099 243.058 272.723C243.21 279.881 243.373 286.247 243.442 292.368C243.617 292.357 243.803 292.357 243.989 292.345C247.155 292.24 249.087 295.79 249.087 309.29C249.087 322.662 247.155 326.421 243.989 326.572C243.838 326.595 243.675 326.607 243.524 326.607Z" fill="#72594F"/>
<path d="M272.584 322.697C272.281 321.195 271.583 319.985 270.745 318.914C271.595 322.673 271.595 326.386 270.745 330.331C271.595 329.086 272.281 327.724 272.584 326.153C275.633 325.816 278.67 325.432 281.708 325.036C284.385 324.675 286.142 324.303 289.04 323.36C293.229 322.103 297.035 325.106 297.861 335.3C298.618 344.879 296.43 351.605 290.785 353.828C279.345 358.472 271.816 359.577 261.656 358.483C256.267 357.89 252.322 351.954 251.088 341.271C249.925 331.611 249.925 321.079 251.088 311.28C252.473 299.258 256.954 293.078 262.342 292.717C266.09 292.461 269.837 292.17 273.573 291.844C273.876 293.357 274.574 294.568 275.412 295.638C274.562 291.879 274.562 288.423 275.412 284.513C274.562 285.735 273.876 287.073 273.573 288.632C269.069 289.016 264.554 289.342 260.038 289.622C254.638 289.959 251.17 284.256 251.17 274.527C251.17 264.786 254.72 260.271 261.423 258.292C268.743 256.035 278.03 255.499 283.756 256.593C290.25 257.897 294.056 262.075 295.115 271.362C296.488 282.872 296.488 292.845 295.115 304.576C294.044 314.119 291.693 320.171 286.351 320.951C281.789 321.614 277.192 322.196 272.584 322.697ZM319.741 316.482C319.671 324.244 319.52 332.391 319.287 341.771C319.135 350.872 315.016 357.296 309.744 358.681C304.542 360.043 300.364 355.504 300.142 346.322C299.456 316.808 299.456 298.56 300.142 268.836C300.375 259.572 304.542 253.719 309.744 253.195C315.027 252.659 319.135 257.513 319.287 266.439C319.438 273.084 319.589 278.985 319.659 284.664C319.857 284.629 320.055 284.594 320.253 284.559C323.325 284.035 325.187 287.05 325.187 299.502C325.187 311.838 323.325 315.656 320.253 316.354C320.09 316.4 319.915 316.435 319.741 316.482Z" fill="#72594F"/>
<path d="M337.954 317.669C333.008 319.089 329.656 316.156 328.911 307.637C327.643 293.288 327.201 278.275 327.876 263.506C328.318 254.824 332.566 250.483 337.954 249.738C343.273 249.005 347.509 252.008 347.87 260.154C348.533 274.097 348.091 288.539 346.845 302.994C346.112 311.536 342.819 316.261 337.954 317.669ZM337.954 350.058C331.681 352.292 327.724 347.904 327.724 338.815C327.724 329.714 331.681 323.104 337.954 321.289C344.227 319.473 348.091 323.558 348.091 332.228C348.091 340.887 344.227 347.811 337.954 350.058Z" fill="#72594F"/>
</svg>
