<?xml version="1.0" encoding="UTF-8"?>
<svg id="_레이어_2" data-name="레이어 2" xmlns="http://www.w3.org/2000/svg" xmlns:xlink="http://www.w3.org/1999/xlink" viewBox="0 0 1020.47 975.12">
  <defs>
    <style>
      .cls-1 {
        clip-path: url(#clippath);
      }

      .cls-2 {
        fill: none;
      }

      .cls-2, .cls-3, .cls-4, .cls-5, .cls-6, .cls-7, .cls-8 {
        stroke-width: 0px;
      }

      .cls-3 {
        fill: #6e9df9;
      }

      .cls-4 {
        fill: #288cf4;
      }

      .cls-5 {
        fill: #fff98d;
      }

      .cls-9 {
        clip-path: url(#clippath-1);
      }

      .cls-10 {
        clip-path: url(#clippath-2);
      }

      .cls-6 {
        fill: #b36ef9;
      }

      .cls-7 {
        fill: #deffe3;
      }

      .cls-8 {
        fill: #fff;
      }
    </style>
    <clipPath id="clippath">
      <rect class="cls-2" x="258.67" y="293.97" width="500.21" height="115.9"/>
    </clipPath>
    <clipPath id="clippath-1">
      <rect class="cls-2" x="215.97" y="454.61" width="587.64" height="246.04"/>
    </clipPath>
    <clipPath id="clippath-2">
      <rect class="cls-2" x="264.77" y="745.38" width="488.01" height="115.9"/>
    </clipPath>
  </defs>
  <g id="_레이어_1-2" data-name="레이어 1">
    <g>
      <g>
        <path class="cls-5" d="M876.84,355.78c40.65-40.65,40.65-106.56,0-147.21-40.65-40.65-106.56-40.65-147.21,0-40.65,40.65-106.56,40.65-147.21,0-40.65-40.65-106.56-40.65-147.21,0-40.65,40.65-106.56,40.65-147.21,0-40.7-40.65-106.61-40.65-147.26,0-40.65,40.65-40.65,106.56,0,147.21,40.65,40.65,40.65,106.56,0,147.21-40.65,40.65-40.65,106.56,0,147.21,40.65,40.65,40.65,106.56,0,147.21-40.65,40.65-40.65,106.56,0,147.21,40.65,40.65,106.56,40.65,147.21,0,40.65-40.65,106.56-40.65,147.21,0,40.65,40.65,106.56,40.65,147.21,0,40.65-40.65,106.56-40.65,147.21,0,40.65,40.65,106.56,40.65,147.21,0,40.65-40.65,40.65-106.56,0-147.21-40.65-40.65-40.65-106.56,0-147.21,40.65-40.65,40.65-106.56,0-147.21-40.65-40.65-40.65-106.56,0-147.21h.05Z"/>
        <g class="cls-1">
          <g>
            <path class="cls-3" d="M259.28,357.99c5.04.26,62.48.26,70.18,0,.79-4.35.66-12.78,0-17.39-7.83-.53-63.81-.66-70.18,0-.8,4.35-.8,12.91,0,17.39Z"/>
            <path class="cls-3" d="M265.25,409.23c7.56.92,111.16.79,117.53,0,.8-7.51.66-37.01,0-42.81-4.25-.39-17.11-.39-21.89,0-.26,7.25-.13,22.26,0,26.35-2.92.13-70.57.13-73.49,0,.13-4.08.27-19.1,0-26.35-4.51-.39-18.31-.39-22.15,0-.53,5.93-.8,33.46,0,42.81ZM292.44,366.94c4.77.53,17.78.53,22.28,0,.4-7.11.4-14.23,0-19.63-4.77-.53-17.78-.53-22.28,0-.4,5.4-.4,12.51,0,19.63Z"/>
            <path class="cls-4" d="M276.51,387.76c5.84.13,88.88.13,94.98,0,.66-1.98.66-13.43,0-15.41-5.97-.4-89.41-.13-94.98,0-.66,1.98-.66,13.43,0,15.41ZM324.81,330.06c5.04.26,16.71.26,21.62,0,.66-2.5.66-15.81,0-18.44-4.91-.4-16.58-.4-21.62,0-.66,2.5-.66,15.81,0,18.44ZM361.42,362.07c4.77.4,17.24.4,21.49,0,.79-6.19.79-61.12,0-67.05-4.51-.79-16.98-.79-21.49,0-.13,5.79-.13,60.72,0,67.05Z"/>
            <path class="cls-6" d="M292.17,358.12c7.96.13,16.18,0,22.82,0,0-3.95,0-7.64-.27-10.8-4.77-.53-17.78-.53-22.28,0-.27,3.16-.27,6.85-.27,10.8ZM335.02,361.54c5.17.66,16.98.66,20.83,0,.4-6.32.4-60.46,0-65.99-4.51-.66-16.32-.66-20.83,0-.53,5.53-.53,59.67,0,65.99Z"/>
            <path class="cls-3" d="M301.06,315.97c0,3.16-3.71,5.53-9.95,5.53s-9.95-2.37-9.95-5.53c0-2.9,3.71-5.53,9.95-5.53s9.95,2.63,9.95,5.53ZM321.63,315.97c0-13.3-12.35-21.87-30.51-21.87s-30.51,8.56-30.51,21.87,12.34,22,30.51,22,30.51-8.43,30.51-22Z"/>
            <path class="cls-3" d="M360.76,372.21v15.54h10.75c.66-1.98.66-13.43,0-15.41-1.2-.13-5.04-.13-10.75-.13ZM334.62,330.19c4.51.13,9.15,0,11.81-.13.66-2.5.66-15.81,0-18.44-2.65-.26-7.3-.26-11.81-.26v18.83Z"/>
            <path class="cls-4" d="M457.45,317.68c8.09-.13,14.2-.13,16.32-.26.66-3.42.66-17.65,0-20.15-6.77-1.05-71.77-1.05-79.46,0-.66,2.77-.66,17.26,0,20.15,1.86.13,8.36.26,16.85.26-7.69,12.91-17.51,29.9-18.97,33.85,2.92,2.9,14.2,9.48,18.57,10.67,3.45-4.21,17.25-28.72,23.75-41.23,6.24,11.59,20.03,35.43,23.48,39.91,4.64-1.45,15.26-7.9,18.44-11.2-1.59-3.82-11.28-19.76-18.97-32.01Z"/>
            <path class="cls-6" d="M481.73,376.82c5.17.53,18.17.53,22.02,0,.79-6.59.79-75.21,0-81.8-4.51-.79-17.51-.79-22.02,0-.53,6.59-.53,75.35,0,81.8Z"/>
            <path class="cls-3" d="M398.15,406.46c9.55.53,97.9.53,106.92,0,.79-4.35.79-16.2,0-20.68-5.84-.27-78.27-.27-84.37,0,.27-3.56.13-15.02,0-19.36-4.64-.79-18.04-.79-22.55,0-.66,7.9-.53,31.09,0,40.04Z"/>
            <path class="cls-3" d="M512.42,354.5c5.01.31,49.61.31,55.65,0,.41-3.35.51-10.59,0-13.64-6.05-.3-50.64-.3-55.65,0-.52,3.26-.52,10.38,0,13.64Z"/>
            <path class="cls-4" d="M548.5,322.65c0,1.83-1.84,3.46-8.31,3.46s-8.31-1.63-8.31-3.46,1.85-3.46,8.31-3.46,8.31,1.63,8.31,3.46ZM566.34,322.65c0-9.87-8.41-16.18-26.15-16.18s-26.13,6.31-26.13,16.18,8.41,16.19,26.13,16.19,26.15-6.31,26.15-16.19Z"/>
            <path class="cls-4" d="M514.98,397.45c8.81.52,43.46.52,52.28,0,.61-3.26.61-9.77,0-12.92-10.05-.1-27.47-.1-34.76,0v-2.95c7.79,0,23.68.2,32.71,0,.72-3.46.82-18.73,0-24.13-6.25-.3-44.39-.3-50.64,0-.51,4.07-.51,7.64,0,11.71,10.25.1,24.09.1,33.52,0v2.74c-9.13,0-22.96-.11-33.1,0-.62,5.7-.62,20.05,0,25.54"/>
            <path class="cls-3" d="M670.34,343.89c5.17.53,18.04.53,21.89,0,.93-6.46.93-42.28,0-48.87-4.51-.79-17.38-.79-21.89,0-.66,6.59-.66,42.41,0,48.87Z"/>
            <path class="cls-4" d="M670.61,409.36c5.31.4,16.45.4,21.62,0,.66-5.4.66-55.58,0-61.12-6.5-.53-37.01-.53-43.65,0-.4,3.82-.4,16.73,0,19.89h22.02c0,5.01-.13,37.28,0,41.23Z"/>
            <path class="cls-6" d="M597.25,408.44c10.74.66,45.23.66,56.11,0,.66-4.35.66-13.96,0-18.31-12.34-.27-27.06-.27-35.15,0v-4.74c7.96.13,12.6.26,24.81,0,.8-5.93.66-29.9,0-37.14-7.69-.4-38.2-.4-45.77,0-.66,5.4-.66,12.12,0,17.65,12.47.26,15.92.26,25.6,0v4.48c-9.55-.13-13.27-.26-25.6,0-.8,7.51-.8,30.82,0,38.07Z"/>
            <path class="cls-3" d="M641.42,319.13c0,4.21-3.98,7.24-14.06,7.24s-14.06-3.03-14.06-7.24,3.98-7.24,14.06-7.24,14.06,3.03,14.06,7.24ZM663.18,319.13c0-15.41-12.74-25.16-35.82-25.16s-35.82,9.75-35.82,25.16,12.73,25.16,35.82,25.16,35.82-9.75,35.82-25.16Z"/>
            <path class="cls-3" d="M730.83,387.89c.3-4.68.3-39.8,0-44.78-3.49-.51-13.73-.51-17.43,0-.31,4.98-.31,40.1,0,44.78,3.49.52,13.74.52,17.43,0Z"/>
            <path class="cls-4" d="M701,394.6c4.19.41,52.17.41,57.29,0,.82-3.66.71-11.7,0-15.77-5.13-.41-53.1-.52-57.29,0-.72,3.87-.72,11.81,0,15.77Z"/>
            <path class="cls-4" d="M713.2,378.52c.1,4.57.1,8.03.2,9.36,3.49.5,13.74.5,17.43,0,.11-1.33.11-4.79.2-9.36h-17.84ZM738.21,368.03c3.99.61,14.14.61,17.22,0,.41-5.09.41-52.11,0-57.09-6.05-.3-45.1-.3-51.66,0-.51,5.09-.51,10.59,0,15.68,4.92.2,30.96.31,34.44.11-.11,9.66-.21,35.11,0,41.32"/>
          </g>
        </g>
        <g class="cls-9">
          <g>
            <path class="cls-6" d="M217.38,601.19c16.39,1.73,126.25,1.44,140.05,0,1.72-18.74,1.72-123.96,0-141.26-9.2-1.44-37.1-1.44-47.45,0-.57,15.57-.29,89.66,0,100.32-6.33.58-38.54.58-44.86,0,.29-10.66.58-84.76,0-100.32-9.78-1.41-39.4-1.41-47.74,0-1.73,17.61-2.01,117.36,0,141.26Z"/>
            <path class="cls-3" d="M224,699.78c20.71,1.15,189.23,1.15,208.79,0,1.73-9.51,1.73-35.46,0-45.26-12.65-.58-146.67-.58-159.9,0,.58-7.78.29-27.68,0-37.19-10.07-1.73-39.11-1.73-48.89,0-1.44,17.3-1.15,62.85,0,82.45ZM241.54,530.84c11.22.29,88.29.29,99.51,0,1.44-5.77,1.44-30.56,0-39.78-10.93-1.15-88.58-.86-99.51,0-1.44,5.76-1.44,30.56,0,39.78Z"/>
            <path class="cls-4" d="M309.7,490.2v40.93c14.96,0,27.32-.29,31.35-.29,1.44-5.76,1.44-30.56,0-39.78-4.03-.29-16.39-.58-31.35-.86ZM382.17,634.92c11.22,1.15,39.4,1.15,47.74,0,2.01-14.42,2.01-164.61,0-179.02-9.78-1.73-37.96-1.73-47.74,0-1.15,14.41-1.15,164.9,0,179.02Z"/>
            <path class="cls-3" d="M241.54,530.84c3.45,0,12.37.29,23.87.29v-40.65c-11.5,0-20.71.29-23.87.58-1.44,5.76-1.44,30.56,0,39.78Z"/>
            <path class="cls-3" d="M529.99,604.36c11.79,1.44,35.66,1.44,47.16,0,1.73-14.42,1.73-130.31,0-144.72-14.38-1.44-104.11-1.73-118.48,0-1.44,11.24-1.44,32,0,43.24,12.94.29,58.09.29,71.32,0-.57,19.31-.57,81.58,0,101.48Z"/>
            <path class="cls-4" d="M619.72,561.98c10.64,1.44,44.58,1.44,55.51,0,1.44-6.05,1.44-36.61,0-42.95-10.93-1.44-44.86-1.44-55.51,0-1.72,6.34-1.72,36.9,0,42.95Z"/>
            <path class="cls-3" d="M455.22,570.05c13.81,1.73,82.82,1.73,100.08,0,1.44-9.23,1.44-31.71,0-40.94-17.26-.58-86.28-.58-100.08,0-1.44,9.23-1.44,31.71,0,40.94ZM601.31,634.92c11.22,1.15,39.4,1.15,47.74,0,2.01-14.42,2.01-164.61,0-179.02-9.78-1.73-37.96-1.73-47.74,0-1.15,14.41-1.15,164.9,0,179.02Z"/>
            <path class="cls-6" d="M463.27,699.78c20.7,1.15,169.1,1.15,188.65,0,1.73-9.51,1.73-35.46,0-45.26-12.65-.58-126.54-.58-139.77,0,.58-7.78.29-32.86,0-42.38-10.07-1.73-39.11-1.73-48.89,0-1.44,17.3-1.15,68.03,0,87.64ZM529.7,571.2c11.22-.29,20.42-.58,25.6-1.15,1.44-9.23,1.44-31.71,0-40.94-5.18-.29-14.38-.29-25.6-.29-.29,12.97-.29,28.54,0,42.38ZM619.72,561.98c5.75.86,18.7,1.15,30.77,1.15v-45.26c-12.08,0-25.02.29-30.77,1.15-1.72,6.34-1.72,36.9,0,42.95Z"/>
            <path class="cls-3" d="M682.2,586.09c10.88.68,107.56.68,120.66,0,.89-7.34,1.12-23.17,0-29.85-13.1-.68-109.78-.68-120.66,0-1.12,7.13-1.12,22.72,0,29.85Z"/>
            <path class="cls-4" d="M760.43,516.35c0,4.01-4,7.58-17.99,7.58s-18.01-3.56-18.01-7.58,4-7.58,18.01-7.58,17.99,3.56,17.99,7.58ZM799.09,516.35c0-21.6-18.22-35.41-56.68-35.41s-56.68,13.81-56.68,35.41,18.22,35.43,56.68,35.43,56.68-13.81,56.68-35.43Z"/>
            <path class="cls-4" d="M687.77,680.1c19.11,1.12,94.22,1.12,113.33,0,1.33-7.13,1.33-21.39,0-28.31-21.78-.21-59.56-.21-75.35,0v-6.47c16.89,0,51.35.44,70.9,0,1.57-7.58,1.78-40.99,0-52.78-13.54-.68-96.24-.68-109.78,0-1.12,8.91-1.12,16.69,0,25.61,22.22.21,52.24.21,72.65,0v6.03c-19.76,0-49.78-.23-71.76,0-1.33,12.48-1.33,43.87,0,55.9"/>
          </g>
        </g>
        <g class="cls-10">
          <g>
            <path class="cls-6" d="M719.22,841.22c.29-4.56.29-18.28,0-23.27-3.6-.61-13.1-.61-16.49,0-.2,4.98-.2,18.8,0,23.27,3.6.61,13.1.61,16.49,0Z"/>
            <path class="cls-4" d="M355.71,826.19c.64-3.42.64-17.22,0-19.72-6.59-.66-80.04-.66-87.54,0-.65,2.76-.65,16.82,0,19.72,2.07.13,11.64.26,23.66.26-11.77,7.89-24.05,16.56-26.77,18.8,1.68,3.94,8.4,13.14,12.15,16.04,4.14-2.24,22.11-15.12,34.78-24.84,12.67,9.73,30.52,22.61,34.65,24.84,3.75-2.89,10.48-12.09,12.15-16.04-2.71-2.24-15-10.91-26.76-18.8,11.77,0,21.21-.13,23.66-.26ZM367.6,764.81c-4.91-.66-20.17-.66-24.96,0-.77,2.89-.77,16.82,0,19.58,4.79.66,20.04.66,24.96,0,.65-2.76.65-16.69,0-19.58Z"/>
            <path class="cls-6" d="M286.66,781.5c-.39-4.21-.39-11.17,0-15.25,4.53-.26,12.8-.13,17.58,0,.39,4.08.39,11.04,0,15.25-4.66.26-12.54.26-17.58,0ZM265.45,799.9c6.21.66,53.66.66,59.87,0,.91-6.31.91-45.74,0-52.18-6.85-.79-53.01-.79-59.87,0-.91,6.44-.91,45.87,0,52.18Z"/>
            <path class="cls-3" d="M334.5,801.87c5.05.53,17.59.53,21.34,0,.91-6.57.91-49.29,0-55.86-4.4-.79-16.94-.79-21.34,0-.64,6.57-.64,49.42,0,55.86Z"/>
            <path class="cls-3" d="M342.65,784.39c2.59.4,8.41.53,13.84.53v-20.63c-5.43,0-11.25.13-13.84.53-.77,2.89-.77,16.82,0,19.58Z"/>
            <path class="cls-4" d="M523.28,846.19c3.89.61,13.68.61,16.68,0,.4-5.08.4-27.83,0-32.6-3.4-.71-13.19-.71-16.68,0-.4,4.77-.4,27.52,0,32.6Z"/>
            <path class="cls-4" d="M545.56,777.64c9.09,0,16.39-.1,18.39-.2.49-2.64.49-13.61,0-15.53-5.09-.81-58.86-.81-64.64,0-.49,2.13-.49,13.31,0,15.53,1.7.1,8.99.2,18.19.2-8.79,5.59-19.28,12.28-21.29,13.92,1,3.15,6.4,11.28,8.99,13.61,3-1.51,17.49-10.97,26.38-17.16,8.99,6.19,23.49,15.64,26.48,17.16,2.6-2.33,7.99-10.45,8.99-13.61-2-1.63-12.59-8.43-21.47-13.92"/>
            <path class="cls-6" d="M496.7,823.34c4.29.41,64.95.41,69.84,0,.8-3.66.7-11.37,0-15.44-5-.4-65.75-.5-69.84,0-.7,3.86-.7,11.47,0,15.44Z"/>
            <path class="cls-3" d="M522.98,823.64h17.28c-.09-4.56-.2-8.42-.31-10.05-3.4-.72-13.19-.72-16.69,0-.1,1.63-.2,5.48-.29,10.05"/>
            <path class="cls-4" d="M625.99,844.36c3.8.61,13.08.61,16.08,0,.4-5.08.4-79.22,0-84.3-3.39-.61-12.69-.61-16.08,0-.4,5.08-.4,79.22,0,84.3Z"/>
            <path class="cls-6" d="M616.3,803.74c4.89.31,13.39.31,19.38,0,.49-2.23.49-13.31,0-15.44-6-.2-14.49-.2-19.38,0-.49,2.23-.49,13.31,0,15.44ZM647.47,845.68c3.89.72,13.39.72,16.39,0,.6-4.97.6-80.94,0-86.02-3.4-.61-12.99-.61-16.39,0-.31,5.08-.31,81.05,0,86.02Z"/>
            <path class="cls-3" d="M585.43,842.53c1-2.74,7.79-34.22,10.19-48.64,1.89,15.44,8.29,45.1,9.19,47.74,4,0,13.28-2.24,16.08-3.56-.6-4.58-13.49-61.75-17.38-75.97-3.09-.51-13.19-.51-16.39,0-3.9,14.22-17.39,72.11-17.68,76.58,2.89,1.52,12.39,3.86,15.99,3.86Z"/>
            <path class="cls-3" d="M625.69,803.94c3.49,0,7-.1,9.99-.2.49-2.23.49-13.31,0-15.44-3-.1-6.5-.1-9.99-.2v15.84Z"/>
            <path class="cls-3" d="M709.02,786.99c0,7.82-4.4,12.39-10.49,12.39s-10.48-4.58-10.48-12.39,4.4-12.39,10.48-12.39,10.49,4.56,10.49,12.39ZM725.91,786.99c0-18.28-11.5-27.94-27.38-27.94s-27.38,9.66-27.38,27.94,11.48,27.94,27.38,27.94,27.38-9.64,27.38-27.94Z"/>
            <path class="cls-4" d="M670.96,845.48c4.2.51,49.76.51,54.85,0,.8-3.65.7-11.17,0-15.24-5.1-.4-50.66-.5-54.85,0-.7,3.86-.7,11.28,0,15.24Z"/>
            <path class="cls-3" d="M702.62,829.94c0,4.58,0,9.05.1,11.27,3.6.61,13.09.61,16.49,0,.1-2.23.2-6.59.2-11.17-4.4-.1-10.49-.1-16.79-.1ZM694.34,841.21c.29-4.56.29-18.28,0-23.26-3.6-.61-13.09-.61-16.49,0-.2,4.98-.2,18.79,0,23.26,3.6.61,13.1.61,16.49,0Z"/>
            <path class="cls-6" d="M677.75,830.05c0,4.58,0,8.94.09,11.17,3.6.61,13.1.61,16.49,0,.09-2.23.2-6.7.2-11.27-6.29,0-12.39,0-16.78.1Z"/>
            <path class="cls-3" d="M742.68,846.19c5.6,0,10.09-4.47,10.09-10.16s-4.5-10.16-10.09-10.16-10.1,4.47-10.1,10.16,4.5,10.16,10.1,10.16Z"/>
            <path class="cls-3" d="M750.98,818.97c.8-14.83.6-45.7.49-56.88-2.6-.51-14.19-.51-17.58,0-.4,9.44-.2,43.16.49,56.88,3.6.31,12.79.31,16.59,0"/>
            <path class="cls-3" d="M448.46,796.3c4.81.53,20.13.53,25.06,0,.64-2.9.64-17.29,0-20.19-4.94-.66-20.26-.66-25.06,0-.77,2.9-.77,17.29,0,20.19Z"/>
            <path class="cls-4" d="M371.33,776.77c7.66.4,63.76.4,72.21,0,.77-3.56.77-17.29,0-19.93-8.44-.53-64.54-.53-72.21,0-.91,3.04-.91,16.76,0,19.93ZM460.94,860.59c5.07.92,17.8.92,21.56,0,.9-6.46.9-105.21,0-111.8-4.42-.79-17.14-.79-21.56,0-.65,6.59-.65,105.34,0,111.8Z"/>
            <path class="cls-6" d="M448.47,838.54c4.81.53,20.12.53,25.06,0,.64-2.9.64-17.29,0-20.19-4.94-.66-20.27-.66-25.06,0-.78,2.9-.78,17.29,0,20.19ZM423.4,819.4c0,13.34-5.84,19.93-14.8,19.93s-14.81-6.59-14.81-19.93,5.84-19.93,14.81-19.93,14.8,6.59,14.8,19.93ZM444.44,819.4c0-25.74-13.76-38.81-35.84-38.81s-35.84,13.07-35.84,38.81,13.77,38.81,35.84,38.81,35.84-13.07,35.84-38.81ZM420.03,766.47c.39-5.15.52-14.65,0-20.6-4.68-.66-18.31-.66-22.99,0-.52,5.94-.39,15.45,0,20.6,4.68.66,18.31.66,22.99,0Z"/>
            <path class="cls-6" d="M460.42,796.7c5.2,0,10.52-.13,13.12-.39.64-2.9.64-17.29,0-20.19-2.6-.4-7.79-.53-12.99-.53,0,6.46-.13,13.73-.13,21.13"/>
            <path class="cls-3" d="M460.42,817.81c0,7.66.13,14.78.13,21.13,5.2,0,10.39-.13,12.99-.4.64-2.9.64-17.29,0-20.19-2.6-.39-7.92-.53-13.12-.53M396.65,756.43c0,3.82.13,7.39.39,10.03,4.68.66,18.31.66,22.98,0,.26-2.64.39-6.2.39-10.03h-23.77.01Z"/>
          </g>
        </g>
        <path class="cls-7" d="M69.09,155.83c3.42,5.4,5.54,11.07,6.73,17.08,2.79,14.23,1.49,28.18-2.89,41.91-.51,1.59-1.16,3.12-1.96,4.58-.48.88-1.04,1.7-1.73,2.43-.58.62-1.28.79-2.04.46-.68-.3-1.35-.64-1.97-1.05-1.17-.79-2.32-1.61-3.44-2.48-10.91-8.47-21.42-17.38-31.28-27.05-4.63-4.54-9.13-9.2-13.02-14.42-1.7-2.27-3.16-4.68-4.27-7.31-.68-1.62-1.15-3.3-1.13-5.08.01-1.82.77-3.19,2.33-4.14,1.75-1.06,3.67-1.53,5.68-1.66,5.93-.37,11.33,1.14,16.22,4.56,1.15.8,2.38,1.75,2.13,3.2-.47,2.65,1.16,8.35,2.21,9.59,1.16,2.32,3.11,3.4,5.65,3.39,3.32,0,10.43-3.63,7.52-13.57-.66-1.91-1.64-3.66-2.91-5.2-.68-.83-.96-1.69-.83-2.75.41-3.68,1.39-7.19,3.19-10.44.32-.58.71-1.13,1.09-1.67.77-1.05,1.82-1.37,3.07-1.13.9.18,1.74.53,2.55.98,1.23.7,2.34,1.58,3.37,2.55,2.3,2.19,4.23,4.68,5.75,7.2M39.07,150.82c-1.01,0-1.7-.51-2.44-.83-5.19-2.25-10.62-3.23-16.27-3.04-3.52.13-6.91.82-10.12,2.32-7.08,3.28-10.76,9.46-10.19,17.28.33,4.5,1.98,8.57,4.16,12.45,2.46,4.38,5.56,8.28,8.89,12.01,8.06,9,16.94,17.14,26.1,24.98,5.18,4.43,10.45,8.75,15.88,12.87,1.39,1.05,2.83,2.05,4.28,3.01,1.32.88,2.73,1.58,4.23,2.08,5.02,1.7,9.49.7,13.43-2.78,1.57-1.38,2.83-3.04,3.9-4.83,1.07-1.79,2-3.66,2.7-5.62,6.1-17.45,7.57-35.22,3.28-53.33-1.87-7.87-5.28-15.06-10.06-21.6-2.37-3.23-5.08-6.16-8.31-8.56-2.42-1.79-5.05-3.21-8.01-3.88-6.57-1.47-11.96.38-16.03,5.84-2.11,2.83-3.54,6.02-4.64,9.36-.26.77-.53,1.53-.81,2.31"/>
        <path class="cls-7" d="M713.23,29.84c-4.44,7.02-7.21,14.37-8.75,22.18-3.63,18.47-1.94,36.58,3.76,54.41.66,2.06,1.51,4.05,2.54,5.95.62,1.14,1.35,2.21,2.25,3.16.75.8,1.66,1.02,2.65.59.89-.39,1.76-.83,2.56-1.36,1.52-1.02,3.02-2.09,4.47-3.22,14.18-10.99,27.85-22.56,40.67-35.11,6.02-5.89,11.87-11.94,16.93-18.72,2.2-2.95,4.11-6.08,5.55-9.49.89-2.11,1.5-4.29,1.46-6.6-.01-2.36-1.01-4.14-3.03-5.37-2.28-1.38-4.77-1.99-7.38-2.15-7.71-.47-14.73,1.48-21.09,5.92-1.5,1.04-3.09,2.27-2.77,4.15.61,3.44-1.51,10.84-2.87,12.45-1.51,3.01-4.04,4.42-7.34,4.41-4.32,0-13.55-4.72-9.78-17.62.86-2.48,2.13-4.75,3.79-6.75.89-1.08,1.24-2.2,1.08-3.58-.53-4.78-1.81-9.33-4.14-13.56-.41-.76-.92-1.47-1.42-2.17-1.01-1.36-2.37-1.78-4-1.47-1.17.24-2.26.68-3.32,1.28-1.6.9-3.05,2.05-4.38,3.31-2.99,2.85-5.51,6.08-7.47,9.35M752.25,23.33c1.32,0,2.2-.67,3.17-1.08,6.75-2.92,13.81-4.2,21.15-3.95,4.57.16,8.98,1.07,13.16,3.01,9.2,4.26,13.98,12.28,13.24,22.43-.43,5.84-2.58,11.13-5.4,16.17-3.2,5.68-7.22,10.75-11.56,15.59-10.48,11.69-22.02,22.25-33.93,32.43-6.73,5.76-13.58,11.36-20.64,16.7-1.81,1.36-3.69,2.66-5.57,3.9-1.72,1.14-3.55,2.05-5.5,2.7-6.53,2.21-12.34.9-17.46-3.6-2.04-1.79-3.69-3.95-5.08-6.27-1.39-2.33-2.6-4.75-3.51-7.3-7.93-22.65-9.84-45.72-4.26-69.23,2.43-10.22,6.87-19.55,13.08-28.04,3.08-4.2,6.6-8,10.8-11.11,3.15-2.33,6.57-4.17,10.42-5.04,8.54-1.91,15.55.49,20.84,7.58,2.74,3.68,4.6,7.82,6.04,12.15.34.99.7,1.99,1.05,3"/>
        <path class="cls-8" d="M134.7,31.84c0,2.81-.02,5.6-.02,8.4,0,.91.39,1.88,1.05,2.52.66.64,1.65,1.09,2.52,1.05,1.93-.09,3.58-1.57,3.58-3.58,0-2.81.02-5.6.02-8.4,0-.91-.39-1.88-1.05-2.52-.66-.64-1.63-1.09-2.52-1.05-1.93.09-3.58,1.57-3.58,3.58Z"/>
        <path class="cls-8" d="M113.82,55.48c.66-.04,1.32.09,1.98.05.61-.04,1.2-.14,1.79-.29l.29-.07c.41-.09.38-.09-.11-.02.27-.12.84,0,1.13.04.29.04.57.02.86,0,.66,0,1.32-.04,1.97-.09.5-.04,1.02-.11,1.52-.18.2-.04.38-.05.55-.09-.48.05-.52.07-.11.04h1.98c1.32,0,2.63,0,3.95.02,1.88.05,3.67-1.68,3.58-3.58-.09-1.9-1.57-3.52-3.58-3.58-1.32-.04-2.63-.04-3.95-.02-.66,0-1.32-.04-1.98,0-.55.02-1.11.11-1.66.2-.14.02-.29.05-.43.07.48-.05.52-.05.11-.02-.66,0-1.32.07-1.97.09-.64.02-1.32-.09-1.98-.04-.5.04-1.02.11-1.5.21-.18.04-.38.09-.55.14-.41.09-.38.09.11.04-.21.09-.63,0-.86,0-.38-.02-.75-.05-1.14-.04-1.84.05-3.65,1.52-3.56,3.52.09,1.86,1.57,3.68,3.58,3.58Z"/>
        <path class="cls-8" d="M142.62,52.83c1.09-.13,2.15-.2,3.25-.2.79,0,1.57-.12,2.34-.27.72-.13-.84,0,.09,0,.27,0,.54.04.82.05.55.05,1.07.07,1.63.04.23-.02.46-.05.7-.05.29,0,1.27.14.21-.05,1.31.25,2.65.32,3.95.45.86.09,1.95-.46,2.52-1.05.63-.63,1.09-1.65,1.05-2.52-.09-2.09-1.57-3.38-3.58-3.58-.54-.05-1.07-.11-1.63-.14-.16,0-.3-.02-.46-.04.57.07.64.09.25.04-.46-.07-.95-.14-1.41-.2-1.09-.11-2.16.09-3.25,0-.8-.07-1.52,0-2.34.11-.21.04-.48.05-.7.11.57-.07.64-.07.25-.04h-.46c-1.09,0-2.16.09-3.25.2-.98.11-1.81.32-2.52,1.05-.63.63-1.09,1.64-1.05,2.52.07,1.77,1.59,3.79,3.58,3.58h.02Z"/>
        <path class="cls-8" d="M135.11,57.23c-.05,1.5-.04,2.97-.02,4.47.02,1.5-.07,2.86-.07,4.31,0,.7-.02,1.38-.04,2.07v.64q.07-.43,0,0c-.07.52-.18,1.05-.23,1.59-.02.32-.02.63,0,.95.02.27.25,1.05.11,1.29.07-.45.07-.54,0-.27-.04.14-.07.27-.11.41-.14.57-.21,1.16-.27,1.77-.18,1.86,1.77,3.67,3.58,3.58,2.09-.09,3.38-1.57,3.58-3.58-.09,1,.11-.2.16-.41.11-.48.2-1,.2-1.5,0-.38-.05-.75-.09-1.13,0-.16-.05-1.31-.11-.48.07-.95.3-1.9.32-2.86,0-.7.04-1.38.04-2.07,0-1.43.07-2.86.07-4.31s-.04-2.97.02-4.47c.07-1.88-1.7-3.66-3.58-3.58-2,.09-3.5,1.57-3.58,3.58h.02Z"/>
        <path class="cls-8" d="M184.24,47.24c-.05,1.22-.09,2.43-.14,3.67-.05,1.23.02,2.45-.14,3.67l.12-.95c-.11.82-.25,1.64-.25,2.49,0,.57.04,1.16,0,1.73-.05,1.88,1.68,3.67,3.58,3.58,1.9-.09,3.52-1.57,3.58-3.58.04-1.04-.05-2.06.09-3.08l-.13.95c.38-2.79.32-5.65.43-8.46.07-1.88-1.7-3.66-3.58-3.58-2,.09-3.5,1.57-3.58,3.58l.02-.02Z"/>
        <path class="cls-8" d="M168.15,68.03c.55-.16,1.09-.29,1.65-.43-.72.04.75-.18,0,0,.32,0,.64-.04.97-.05.48-.04.97-.07,1.45-.07.07,0,.97-.02.97,0l-.46-.05c.16.04.32.05.48.09,1.27.23,2.56.29,3.83.45.29.04.55.05.84.09.95.11-.61-.13.13.02.55.11,1.11.23,1.66.32.97.18,1.88.14,2.75-.36.73-.43,1.45-1.29,1.65-2.15.39-1.75-.54-4.04-2.5-4.4-1.43-.27-2.84-.5-4.29-.66-.55-.07-1.13-.13-1.68-.18-.04,0-.72-.04-.72-.05.55.09.63.09.23.02-.16-.04-.32-.05-.48-.09-2.74-.46-5.72-.14-8.37.63-1.79.52-3.09,2.54-2.5,4.4.59,1.86,2.47,3.06,4.4,2.5l.02-.02Z"/>
        <path class="cls-8" d="M184.19,71.82c-.16,3-.23,6.01-.2,8.99,0,.93.39,1.88,1.05,2.52.63.63,1.65,1.09,2.52,1.05,1.91-.09,3.61-1.57,3.58-3.58-.04-3,.04-6.01.2-8.99.09-1.88-1.72-3.67-3.58-3.58-2.02.09-3.47,1.57-3.58,3.58Z"/>
        <path class="cls-8" d="M195.79,69.05c1.47-.07,2.93-.2,4.4-.27.73-.04,1.47-.13,2.2-.16.73-.04,1.47.04,2.2.02.93-.04,1.86-.38,2.52-1.05.63-.63,1.09-1.64,1.05-2.52-.09-1.88-1.57-3.65-3.58-3.58-.73.02-1.47-.05-2.2-.02-.73.04-1.47.12-2.2.16-1.47.07-2.93.2-4.4.27-.95.05-1.84.36-2.52,1.05-.63.63-1.09,1.64-1.05,2.52.04.88.34,1.88,1.05,2.52s1.57,1.09,2.52,1.05Z"/>
        <path class="cls-8" d="M156.26,95.82c0,.72-.02,1.43-.02,2.15s.07,1.43.07,2.15c0,1.43-.07,2.86-.07,4.29,0,.91.39,1.88,1.05,2.52.66.64,1.64,1.09,2.52,1.05,1.93-.09,3.58-1.57,3.58-3.58,0-1.43.07-2.86.07-4.29,0-.72-.05-1.43-.07-2.15-.02-.72.02-1.43.02-2.15,0-.91-.39-1.88-1.05-2.52-.66-.64-1.64-1.09-2.52-1.05-1.95.09-3.58,1.57-3.58,3.58Z"/>
        <path class="cls-8" d="M141.42,114.77c1.36,0,2.74-.05,4.09.07l-.95-.12c1.18.16,2.34.38,3.52.52.93.11,1.86.21,2.79.34l-.95-.13c.89.13,1.77.21,2.66.32l-.95-.13c.14,0,.29.04.43.05.98.16,1.86.16,2.75-.36.73-.43,1.45-1.29,1.64-2.15.21-.91.16-1.95-.36-2.75-.46-.73-1.23-1.5-2.15-1.64-.97-.14-1.91-.23-2.88-.36l.95.13c-1.66-.23-3.34-.41-5.02-.61l.95.13c-1.22-.2-2.4-.43-3.63-.46-.97-.04-1.95,0-2.91,0-1.88,0-3.67,1.64-3.58,3.58.09,1.93,1.57,3.56,3.58,3.58Z"/>
        <path class="cls-8" d="M155.17,118.41c0,.59-.02,1.16-.02,1.75,0,.84.16,1.66.27,2.49l-.13-.95c.05.45.05.86,0,1.31l.13-.95c-.13.86-.3,1.72-.27,2.59.04.63.14,1.23.13,1.86,0,.59-.04,1.16-.04,1.75,0,.66.09,1.31.11,1.97.04,1.88,1.63,3.67,3.58,3.58,1.95-.09,3.61-1.57,3.58-3.58,0-1.09-.09-2.18-.07-3.27.02-1.09-.21-2.18-.09-3.27l-.13.95c.11-.75.27-1.5.27-2.25s-.16-1.52-.27-2.25l.13.95c-.11-.86-.04-1.75-.04-2.63,0-1.88-1.64-3.67-3.58-3.58-1.93.09-3.58,1.57-3.58,3.58l.02-.04Z"/>
        <path class="cls-8" d="M167.81,117.2c1.79-.23,3.58-.48,5.36-.72l-.95.13s.13,0,.18-.02c.5.02.95-.09,1.38-.3.45-.14.82-.39,1.14-.73.36-.32.59-.72.73-1.14.23-.43.32-.89.3-1.38-.04-.93-.34-1.88-1.05-2.52l-.72-.55c-.55-.32-1.16-.48-1.81-.48-1.02.14-2.04.29-3.08.43l.95-.12c-.82.11-1.64.21-2.49.32-.5-.02-.95.09-1.38.3-.45.14-.82.39-1.14.73-.36.32-.59.72-.73,1.14-.23.43-.32.89-.3,1.38.04.93.34,1.88,1.05,2.52l.72.55c.55.32,1.16.48,1.81.48l.02-.02Z"/>
        <path class="cls-8" d="M887.04,82.79c-2.36,1.09-4.51,2.52-6.84,3.65-1.15.57-2.39.98-3.56,1.52-1.17.54-2.3,1.46-3.59,1.83-2.43.71-4.93,1.26-7.18,2.49-1.03.56-1.74,1.48-2.71,2.08-1.1.68-2.63.75-3.82,1.27-1.12.5-2,1.48-3.11,1.93-1.01.4-2.19.17-3.26.45-1.38.36-2.63,1.2-3.9,1.82-1.51.75-3.09,1.31-4.57,2.1-2.01,1.07-3.81,2.42-5.78,3.54-1.07.61-2.22,1.04-3.28,1.68-1.26.78-2.33,1.8-3.56,2.61-.98.64-1.94,1.35-2.95,1.96-1.12.68-2.3,1.17-3.31,2.04-2.04,1.8-4.2,4.68-2.44,7.32,1.41,2.11,4.07,2.25,6.37,2,1.37-.14,1.94-.06,3.19.48,1.55.67,2.98.84,4.65.53.93-.17,1.45-.44,2.35-.22,1.26.31,2.27.89,3.59,1.03,1.32.14,2.64.11,3.96.22,1.52.12,3.06.45,4.6.44,2.41-.02,4.71-.31,7.12.19,1.4.28,2.61.98,4.06,1.06.65.03,1.34-.08,1.97-.23.48-.11,1.32-.59,1.8-.53,1.09.14,2.15,1.13,3.3,1.35,1.51.3,3.23.42,4.77.45,1.54.03,3.08-.45,4.68-.33,1.49.12,2.97.3,4.42.67,2.84.72,5.81.68,8.72.82,2.91.14,5.53.4,7.97-1.51.96-.76,1.24-2.77.48-3.76-1.04-1.37-2.42-1.91-3.59-3.06-.95-.93-1.32-2.35-2.31-3.31-2.31-2.25-5.25-3.56-7.82-5.42-1.24-.9-2.3-1.6-3.22-2.84-.92-1.24-1.91-2.08-3.06-3.03-1.46-1.2-2.75-2.13-4.49-2.86-1.38-.57-2.58-1.52-3.75-2.46-1.17-.93-2.01-2.07-3.03-3.08-1.15-1.15-1.92-2.6-3.26-3.57-1.03-.75-2.44-1.06-3.3-2-1.07-1.17-1.69-2.52-2.97-3.53-1.35-1.07-2.18-1.65-2.95-3.2-.67-1.34-1.49-2.35-2.66-3.31-1.17-.96-2.21-2.14-3.33-3.22s-1.57-2.53-2.33-3.9c-1.41-2.53-6.17-1.59-5.8,1.57.14,1.21.7,2.55.62,3.75-.06.92-.51,1.82-.59,2.75-.06.71.02,1.43.06,2.14.09,1.73.19,3.33.73,4.96.54,1.63.03,2.58-.02,4.21-.05,1.63.79,2.97.96,4.55.14,1.27-.11,2.94-.2,4.23-.11,1.57-.56,2.97-.14,4.54.34,1.31,1.18,2.08.9,3.43-.68,3.33.05,6.51.37,9.84.14,1.41-.22,2.81-.14,4.23.08,1.41.47,2.92.65,4.38.19,1.46.71,2.75.6,4.2-.12,1.54-.22,3.09-.37,4.63-.28,2.84.34,6.06,3.26,7.35,1.68.75,3.14.36,4.26-1.12.86-1.12,1.49-2.41,2.39-3.48.9-1.07,1.88-2.11,2.71-3.31.88-1.27,1.82-2.47,2.46-3.9.64-1.43,1.24-2.7,2.11-4.01.87-1.31,1.49-2.42,1.93-3.87.44-1.45,1.21-2.61,2.01-3.92.79-1.31,1.49-2.88,2.48-3.99.87-.99,1.98-1.43,2.67-2.63.7-1.2.73-2.46,1.26-3.65.59-1.32,1.76-2.56,2.52-3.79.87-1.4,1.82-2.75,2.33-4.32.45-1.32.76-2.13,1.66-3.25,1.88-2.32,3.65-4.82,5.18-7.38.7-1.2.96-2.38,1.38-3.67.44-1.37,1.63-2.41,2.42-3.61,2.19-3.36-3.19-6.48-5.36-3.14-.79,1.21-1.86,2.24-2.48,3.56-.58,1.21-.64,2.56-1.31,3.73-1.43,2.5-3.22,4.88-5.02,7.1-1,1.24-1.66,2.42-2.13,3.93-.47,1.51-1.21,2.61-2.02,3.9-.81,1.29-1.79,2.47-2.52,3.79-.59,1.07-.6,2.67-1.26,3.65-.61.92-1.85,1.41-2.54,2.35-.98,1.35-1.77,2.86-2.63,4.27-.85,1.41-1.8,2.75-2.33,4.32-.44,1.31-.84,2.28-1.62,3.47-.88,1.34-1.51,2.69-2.17,4.13-.64,1.37-1.52,2.55-2.39,3.76-.72,1.01-1.59,1.83-2.35,2.8-1.01,1.26-1.77,2.7-2.75,3.99l4.26-1.12c-.73-.33-.23.09-.3-.39-.11-.71.14-1.51.2-2.22.09-1.27.14-2.53.28-3.81.28-2.75-.83-5.61-1.18-8.33-.17-1.31.14-2.6.12-3.9-.01-1.31-.36-2.72-.51-4.07-.16-1.45-.4-3.11-.2-4.54.22-1.52.65-2.88.23-4.41-.28-1.03-1-1.93-1.04-2.98-.06-1.37.28-3.05.37-4.45.09-1.4.27-2.64-.05-3.98-.17-.73-.56-1.43-.68-2.16-.11-.65.05-1.17.14-1.83.23-1.43.22-2.77-.19-4.17-.48-1.63-.73-2.94-.76-4.68-.03-1.37.48-2.58.59-3.95.11-1.37-.48-2.58-.64-3.93l-5.8,1.57c.83,1.49,1.38,3,2.5,4.32.96,1.13,2.13,2.32,3.23,3.33,1.11,1.01,1.93,1.49,2.58,2.78.81,1.62,1.68,2.81,3.14,3.9,1.23.93,1.99,1.76,2.91,3,.92,1.24,1.96,2.19,3.36,2.91.65.33,1.29.56,1.83,1.07.55.51.95,1.26,1.43,1.85.9,1.09,1.98,2.14,2.97,3.16,1.16,1.18,2.61,2.11,3.95,3.08s2.81,1.27,4.12,2.13c1.04.7,2.29,1.66,3.13,2.63,1.12,1.29,1.85,2.49,3.26,3.53,2.55,1.88,5.32,3.29,7.8,5.24,1.29,1.01,1.71,2.28,2.75,3.51.79.95,2.56,1.62,3.12,2.36l.48-3.76c.4-.31-.95-.16-1.13-.17-.7-.03-1.4-.09-2.11-.12-1.54-.06-3.08-.17-4.63-.23-3.19-.11-6.28-1.26-9.51-1.34-2.91-.06-5.83.93-8.6-.4-1.52-.73-2.89-1.2-4.62-.89-.59.11-1.17.36-1.74.45-.87.14-1.13.05-2.02-.25-3.02-.98-6.25-1.04-9.39-.87-1.55.09-3.08-.19-4.62-.34-1.41-.14-2.95,0-4.35-.26-1.4-.26-2.63-1.12-4.15-1.2-1.23-.06-2.61.71-3.76.57-1.42-.19-2.61-1.21-4.14-1.32-.92-.06-1.77.14-2.67.22-.44.06-.88.08-1.34.05.34.14.31.08-.11-.17l1.12,1.12-.03-.03-.79,3.03c.92-1.01,1.54-2.25,2.69-2.98,1.3-.84,2.67-1.6,3.98-2.44,1.31-.84,2.43-1.8,3.67-2.67,1.16-.82,2.55-1.31,3.79-2.02,2.58-1.46,4.94-3.2,7.66-4.43,1.52-.68,3.09-1.68,4.65-2.22,1.23-.44,2.61-.19,3.89-.64,1.48-.51,2.5-1.69,3.92-2.3,1.41-.61,2.98-.67,4.34-1.52,1.12-.7,1.91-1.73,3.14-2.27,1.4-.61,2.8-1.15,4.29-1.48,3-.64,5.61-2.47,8.42-3.67,2.81-1.2,5.27-2.91,8.02-4.18,1.52-.7,1.91-2.91,1.12-4.26-.92-1.57-2.72-1.82-4.26-1.12l-.02.05Z"/>
        <path class="cls-8" d="M947.21,140.56c-1.07.26-2.05.76-3.11,1.06-.89.25-1.82.23-2.72.33-1.97.2-3.96.36-5.94.56-1.12.12-2.24.14-3.34.34-1.04.2-1.93.67-2.92,1.03-1.72.64-3.89,1.34-5.72,1.26-2.18-.09-3.76.25-5.72,1.18-1.6.76-3.36-.05-5.1.36-1.74.4-2.91,1.73-4.76,1.82-2.21.11-4.32.61-6.48,1.07-2.16.47-3.06,3.68-1.37,5.19,2.02,1.82,4.37,2.74,6.89,3.64,2.52.9,5.01,1.9,7.57,2.69,4.82,1.49,8.66,5.04,13.6,6.26,1.04.26,1.74.45,2.61,1.1,1.06.78,1.97,1.52,3.25,1.93,1.07.33,2.16.37,3.19.84,1.31.59,2.63,1.24,3.82,2.05,2.16,1.46,4.43,2.75,6.85,3.76.9.37,1.87.62,2.63,1.23,1.01.81,1.83,1.74,2.92,2.47,1.99,1.34,4.68-.44,4.68-2.69s-1.15-4.01-2.04-6.03c-.42-.95-.71-1.94-1.24-2.84-.68-1.17-1.66-2-2.54-3.02-1.32-1.54-2.2-3.64-3.15-5.42-.57-1.06-1.13-2.07-1.97-2.94-.76-.81-1.6-1.41-2.25-2.33-.68-.96-1.27-1.97-1.98-2.92-.64-.85-1.46-1.62-2-2.52-.48-.79-.68-1.74-1.06-2.6-.54-1.21-1.35-2.13-2.22-3.11-1.51-1.71-2.55-3.87-3.75-5.8-1.37-2.18-3.02-4.18-4.09-6.53-1.83-4.03-3.59-8.7-7.82-10.71-2.41-1.13-4.79-.34-6.05,2.07-1.18,2.25-.44,4.55-.28,6.93.14,2.21.08,4.45.12,6.67.05,2.6.76,5.04.87,7.63.05,1.15.06,2.04-.19,3.16-.25,1.12-.39,2.11-.28,3.22.26,2.44,1.09,4.83,1.2,7.29.06,1.34-.31,2.67-.33,4.01-.02,1.34.44,2.78.12,4.13-.31,1.35-.86,2.49-.76,3.9.08,1.31.51,2.47.36,3.78-.37,2.98-.73,5.97-.98,8.97-.14,1.6.09,2.92.4,4.48.28,1.41,0,2.86,0,4.29,0,1.68,1.42,3.12,3.11,3.11,2.98,0,5.11-1.15,6.37-3.89.48-1.04,1.26-1.71,2.04-2.56,1.01-1.12,2.02-2.28,2.98-3.45.87-1.06,1.48-2.25,2.29-3.36.72-.99,1.77-1.55,2.63-2.42.96-.96,1.44-2.08,1.96-3.31.51-1.23,1.31-1.94,2.15-2.89,1.71-1.94,3.99-2.98,5-5.5.93-2.32,2.63-3.96,4.27-5.84,3.56-4.1,7.32-8.02,10.72-12.26.98-1.21,2.07-1.96,3.23-2.98,1.07-.95,1.72-2.14,2.5-3.33.78-1.18,1.68-2.3,2.61-3.29.98-1.04,2.33-1.66,3.37-2.66,2.91-2.75-1.49-7.15-4.4-4.4-1.13,1.07-2.53,1.69-3.59,2.89-1.12,1.27-2.29,2.64-3.22,4.06-.84,1.26-1.42,2.11-2.61,3.05-1.2.93-2.11,2.08-3.09,3.28-4.21,5.25-9,10.02-13.34,15.17-.53.62-1.04,1.24-1.41,1.97-.33.65-.45,1.59-.86,2.21-.57.89-1.8,1.37-2.56,2.1-1.21,1.17-2.49,2.6-3.45,3.98-.84,1.21-1,2.74-2.1,3.75-1.11,1.01-2.15,1.77-3.02,3.02-.98,1.43-1.85,2.77-3,4.09-1.15,1.32-2.38,2.56-3.47,3.9-.59.75-.87,1.41-1.27,2.27-.19.28-.14.33.16.14-.3.06-.59.08-.9.05l3.11,3.11c0-1.54.26-3.08.05-4.6-.22-1.52-.59-2.63-.45-4.18.25-2.97.68-5.92.99-8.89.16-1.46-.45-2.77-.39-4.18.06-1.41.89-2.6.93-3.99.05-1.48-.31-2.92-.23-4.4.08-1.48.37-2.89.2-4.43-.17-1.54-.37-2.95-.62-4.4-.2-1.18-.65-2.19-.42-3.39.53-2.74.59-5.44.17-8.22-.22-1.45-.6-2.75-.64-4.21-.03-1.34-.03-2.67-.08-3.99-.05-1.32,0-2.67-.17-3.99-.08-.67-.25-1.34-.3-2-.08-1.29-.06-.51.03-.56h-3.14c1.23.62,1.89.89,2.67,2.04.84,1.23,1.4,2.46,1.99,3.81,1.07,2.38,2.25,4.6,3.76,6.71,1.74,2.44,3.06,5.16,4.74,7.63.73,1.07,1.79,1.91,2.49,2.97.65.99.82,2.3,1.41,3.34.67,1.2,1.71,2.18,2.5,3.28.76,1.04,1.38,2.16,2.13,3.2.75,1.04,1.65,1.69,2.49,2.6s1.32,2.19,1.99,3.28c.73,1.18,1.24,2.53,2.04,3.67.79,1.13,1.87,1.94,2.66,3.02.65.89.93,2,1.37,2.98.44.98,1.29,2.05,1.29,3.09l4.68-2.69c-.84-.56-1.51-1.4-2.28-2.02-1.09-.87-2.29-1.31-3.56-1.83-2.1-.87-4.18-1.93-6.04-3.23-2.15-1.51-4.79-3.02-7.37-3.54-.92-.19-1.62-.3-2.38-.86-1.1-.81-1.96-1.54-3.26-2-2.27-.82-4.6-1.26-6.73-2.49-2.13-1.23-4.19-2.56-6.54-3.54-2.35-.98-4.69-1.6-7.01-2.44-2.32-.84-5.07-1.4-6.9-3.05l-1.37,5.19c1.96-.42,3.81-.73,5.81-.9,1.07-.09,2.08-.25,3.08-.71.67-.31,1.37-1.01,2.05-1.2.75-.2,1.83.17,2.61.17.95,0,1.85-.19,2.74-.53.75-.3,1.48-.82,2.25-1.03.96-.25,2.16.06,3.17,0,1.91-.16,4.06-.76,5.87-1.4.93-.33,1.8-.87,2.78-1.06,1.06-.2,2.17-.19,3.25-.33,1.87-.23,3.79-.34,5.67-.5,1.13-.09,2.3-.16,3.4-.47,1.1-.31,2.04-.79,3.11-1.06,3.88-.93,2.24-6.93-1.65-6l-.02.14Z"/>
      </g>
      <rect class="cls-2" x="972.34" y="301.36" width="48.13" height="108.51"/>
    </g>
  </g>
</svg>