<?xml version="1.0" encoding="UTF-8"?>
<svg id="_레이어_1" data-name=" 레이어 1" xmlns="http://www.w3.org/2000/svg" version="1.1" viewBox="0 0 475 475">
  <defs>
    <style>
      .cls-1 {
        fill: #6172e8;
      }

      .cls-1, .cls-2 {
        stroke-width: 0px;
      }

      .cls-3, .cls-4 {
        fill: none;
        stroke: #3d2117;
      }

      .cls-4 {
        stroke-width: 4px;
      }

      .cls-2 {
        fill: #fff;
      }
    </style>
  </defs>
  <rect class="cls-1" x="2" y="2" width="471" height="471" rx="14.2" ry="14.2"/>
  <rect class="cls-3" x="2" y="2" width="471" height="471" rx="14.2" ry="14.2"/>
  <g>
    <path class="cls-4" d="M399.4,208.4c.4,0,.6-.3.6-.6v-1.3c0-.4-.2-.6-.6-.6s-.9,0-1.5.1c-.6,0-1.2,0-1.9.1s-1.4,0-2.1.1h-2.1c.2,0,.3-.2.4-.4s.2-.4.2-.6v-2.8c1.2,0,2.1-.3,2.9-.6s1.4-.7,1.9-1.2.9-1.1,1.1-1.8.3-1.4.3-2.3,0-1.8-.4-2.5-.8-1.3-1.4-1.8c-.7-.5-1.5-.9-2.6-1.2s-2.4-.4-3.9-.4-.7,0-1,0h-2.5c-.5,0-1.2,0-1.9.1-.4,0-.6.2-.6.6v1.4c0,.4.2.6.6.6.7,0,1.3,0,1.9-.1s1,0,1.5,0h2.2c1.1,0,2,0,2.7.2.7.1,1.3.3,1.7.6.4.3.7.6.9,1,.2.4.3.9.3,1.5s0,1.1-.2,1.5c0,.4-.4.8-.8,1-.4.3-.9.5-1.5.6s-1.4.2-2.4.2-2,0-3.1-.1-2.2-.2-3.3-.3c-.4,0-.6.1-.6.6v1.4c0,.4,0,.6.5.6,1.1.1,2,.2,2.8.3.8,0,1.6.1,2.3.1v3c0,.5-.3.7-.8.7h-3.3c-.5,0-1.1,0-1.6-.1-.5,0-1,0-1.4-.1-.4,0-.6.1-.6.6v1.3c0,.4.2.6.6.6s.9.1,1.5.2c.6,0,1.3,0,2,.1h5c3.8,0,6.6-.1,8.4-.4h-.2Z"/>
    <path class="cls-4" d="M379.1,193.5c.4,0,.6-.2.6-.6v-1.4c0-.4-.2-.6-.6-.6h-10.7c-.4,0-.6.2-.6.6v1.4c0,.4.2.6.6.6h1.2l.4,11.1h-1.9c-.4,0-.6.2-.6.6v1.4c0,.2,0,.4,0,.4,0,0,.2.1.5.2.3,0,.6,0,1,.1h7.9c1,0,1.8-.1,2.4-.2.2,0,.4,0,.5-.2,0,0,0-.2,0-.4v-1.4c0-.4-.2-.6-.6-.6h-1.9l.4-11.1h1.2ZM374.8,204.8h-2l-.4-11.2h2.9l-.4,11.2h0ZM363.1,210c0,.4.2.6.6.6h1.5c.4,0,.6-.2.6-.6v-20c0-.4-.2-.6-.6-.6h-1.5c-.4,0-.6.2-.6.6v8.2c-.2-.3-.5-.5-1-.5h-1.4c-.4,0-.6.2-.6.6v1.4c0,.4.2.6.6.6h1.6c.6,0,.8.3.8.8v8.8h0Z"/>
    <path class="cls-4" d="M355.8,201.2c.8,0,1.4-.2,1.8-.6.4-.4.7-.9.7-1.6v-8c0-.8-.4-1.1-1.1-1.1h-6c-1.1,0-1.9.3-2.5,1s-.9,1.7-.9,2.9.2,2,.6,2.9,1,1.5,1.7,1.9h-1.6c-.4,0-.6.2-.6.6v1.3c0,.4.2.6.6.6h7.3ZM356.3,203.9c0-.4-.3-.6-.7-.6h-1.4c-.2,0-.4,0-.5.2s-.2.3,0,.5v2.4c0,.7-.2,1.3-.6,1.6-.4.4-1,.6-1.8.6h-5.3c-.7,0-1.4,0-2.1-.1-.7,0-1.4-.1-2.1-.2-.4,0-.6.1-.6.6v1.3c-.1.4,0,.6.5.6,1.2.1,2.6.2,4.1.3,1.6,0,3.3.1,5.3.1s3-.4,3.9-1.2,1.4-1.9,1.4-3.3v-1.5c0-.5,0-.9,0-1.2h0ZM353.1,198.6c-.8,0-1.4-.3-1.9-1s-.7-1.5-.7-2.5.2-1.5.5-2,.8-.7,1.5-.7h2.4c.4,0,.6.2.6.6v4.8c0,.2,0,.4-.3.6-.2.1-.4.2-.7.2h-1.5,0ZM344.5,190c0-.4-.2-.6-.6-.6h-1.5c-.4,0-.6.2-.6.6v13.5c0,.4.2.6.6.6h1.5c.4,0,.6-.2.6-.6v-13.5Z"/>
    <path class="cls-4" d="M338.5,208.9c.4,0,.6-.3.6-.6v-1.4c0-.4-.2-.6-.6-.5-.6,0-1.2.2-1.8.2s-1.3.1-1.9.1c.4-.2.6-.5.6-1v-5.8c0-.4-.2-.6-.6-.6h-1.5c-.4,0-.6.2-.6.6v6c0,.5-.3.7-.8.7h-2.6c-.8,0-1.5-.1-1.9-.2-.4,0-.6,0-.6.5v1.4c0,.4.2.6.6.6.8.1,1.7.2,2.7.3h6.2c.8,0,1.7-.1,2.5-.3h-.3ZM332.3,193c.9,0,1.7,0,2.6.1.8,0,1.6.2,2.4.3.4,0,.6-.1.6-.6v-1.5c0-.2,0-.3-.1-.4,0,0-.2-.2-.5-.2-.6-.1-1.4-.2-2.3-.3s-1.9-.1-2.9-.1-1.6.1-2.2.3c-.6.2-1.1.5-1.4.9-.4.4-.6.9-.8,1.5s-.2,1.2-.2,2,0,2.3.2,3.5c.1,1.2.3,2.3.5,3.3,0,.2,0,.3.2.4h.5l1.6-.2c.2,0,.4,0,.4-.2v-.4c-.2-1.1-.4-2.1-.5-3.1s-.2-2-.2-2.8.2-1.6.6-1.9c.4-.4.9-.6,1.6-.6h-.1ZM322.3,210c0,.4.2.6.6.6h1.5c.4,0,.6-.2.6-.6v-20c0-.4-.2-.6-.6-.6h-1.5c-.4,0-.6.2-.6.6v8.2c-.2-.3-.5-.5-1-.5h-1.4c-.4,0-.6.2-.6.6v1.4c0,.4.2.6.6.6h1.6c.6,0,.8.3.8.8v8.8h0Z"/>
    <path class="cls-4" d="M310.7,193.5c.4,0,.6-.2.6-.6v-1.4c0-.4-.2-.6-.6-.6h-10.7c-.4,0-.6.2-.6.6v1.4c0,.4.2.6.6.6h1.2l.4,11.1h-1.9c-.4,0-.6.2-.6.6v1.4c0,.2,0,.4.1.4,0,0,.2.1.5.2.3,0,.6,0,1,.1h7.9c1,0,1.8-.1,2.4-.2.2,0,.4,0,.5-.2,0,0,.1-.2.1-.4v-1.4c0-.4-.2-.6-.6-.6h-1.9l.4-11.1h1.2ZM306.4,204.8h-2l-.4-11.2h2.9l-.4,11.2h-.1ZM294.7,210c0,.4.2.6.6.6h1.5c.4,0,.6-.2.6-.6v-20c0-.4-.2-.6-.6-.6h-1.5c-.4,0-.6.2-.6.6v8.2c-.2-.3-.5-.5-1-.5h-1.4c-.4,0-.6.2-.6.6v1.4c0,.4.2.6.6.6h1.6c.6,0,.8.3.8.8v8.8h0Z"/>
    <path class="cls-4" d="M287.4,200.2c.8,0,1.4-.2,1.8-.6s.7-.9.7-1.6v-7c0-.8-.4-1.1-1.1-1.1h-6c-1.1,0-1.9.3-2.5.9-.6.6-.9,1.4-.9,2.6s.2,1.8.6,2.6c.4.8,1,1.3,1.7,1.7h-1.6c-.4,0-.6.2-.6.6v1.3c0,.4.2.6.6.6h7.3ZM288.5,206.5c0-3-2.6-4.6-7.8-4.6s-7.8,1.5-7.8,4.6,2.6,4.6,7.8,4.6,7.8-1.5,7.8-4.6ZM284.7,197.7c-.8,0-1.4-.3-1.9-.8-.5-.6-.7-1.3-.7-2.2,0-1.5.7-2.2,2-2.2h2.4c.4,0,.6.2.6.6v3.9c0,.2,0,.4-.3.6-.2.1-.4.2-.7.2h-1.5,0ZM285.8,206.5c0,.3,0,.6-.3.9-.2.2-.5.5-.9.6-.4.2-.9.3-1.6.4-.6,0-1.4.1-2.4.1s-1.7,0-2.4-.1c-.6,0-1.2-.2-1.6-.4-.4-.2-.7-.4-.9-.6-.2-.2-.3-.5-.3-.9s0-.6.3-.9c.2-.2.5-.5.9-.6.4-.2.9-.3,1.6-.4.6,0,1.4-.1,2.4-.1s1.7,0,2.4.1c.6,0,1.2.2,1.6.4.4.2.7.4.9.6.2.2.3.5.3.9ZM273.3,200.2c0,.4.2.6.6.6h1.5c.4,0,.6-.2.6-.6v-10.1c0-.4-.2-.6-.6-.6h-1.5c-.4,0-.6.2-.6.6v10.1Z"/>
    <path class="cls-4" d="M258.3,206.3c-.4,0-.6,0-.6.5v1.4c0,.4.2.6.6.6.8.1,1.8.2,2.8.3h6.4c.9,0,1.8-.1,2.6-.3.4,0,.6-.3.6-.6v-1.4c0-.4-.2-.6-.6-.5-.8.1-1.7.2-2.6.3h-6.4c-1.1,0-2-.1-2.8-.3ZM269.7,196.6c0-1-.1-1.9-.4-2.7s-.6-1.5-1.1-2-1-1-1.7-1.3-1.4-.5-2.2-.5-1.6.2-2.2.5c-.7.3-1.2.7-1.7,1.3s-.8,1.2-1.1,2c-.2.8-.4,1.7-.4,2.7s.1,1.9.4,2.7c.3.8.6,1.5,1.1,2,.5.6,1,1,1.7,1.3s1.4.5,2.2.5,1.6-.2,2.2-.5c.7-.3,1.2-.7,1.7-1.3s.8-1.2,1.1-2,.4-1.7.4-2.7ZM264.3,200.6c-.8,0-1.5-.4-1.9-1.1-.5-.7-.7-1.7-.7-2.8s.2-2.1.7-2.8,1.1-1.1,1.9-1.1,1.5.4,1.9,1.1c.5.7.7,1.7.7,2.8s-.2,2.1-.7,2.8-1.1,1.1-1.9,1.1ZM253.4,210c0,.4.2.6.6.6h1.5c.4,0,.6-.2.6-.6v-20c0-.4-.2-.6-.6-.6h-1.5c-.4,0-.6.2-.6.6v20Z"/>
    <path class="cls-4" d="M232.7,190.2c-.4,0-.6.2-.6.6v1.2c0,.4.2.6.6.6h10.7c.4,0,.6-.2.6-.6v-1.2c0-.4-.2-.6-.6-.6h-4.4c.2-.1.4-.3.4-.6v-.6c0-.4-.2-.6-.6-.6h-1.6c-.4,0-.6.2-.6.6v.8c0,.3-.2.4-.5.4h-3.4,0ZM243.3,197.2c0-2.3-1.7-3.5-5.2-3.5s-5.2,1.2-5.2,3.5,1.7,3.5,5.2,3.5,5.2-1.2,5.2-3.5ZM239,210.8c.8,0,1.5-.2,2-.6.5-.4.7-1,.7-1.7l.3-5.8c0-.4-.2-.6-.6-.6h-1.5c-.4,0-.6.2-.6.6v1.1h-9.1v-1.1c-.1-.4-.3-.6-.7-.6h-1.5c-.4,0-.7.2-.6.6l.3,5.8c0,.7.3,1.3.7,1.7.5.4,1.1.6,2,.6h8.6ZM238.1,198.3c-.9,0-1.5,0-1.9-.3-.4-.2-.6-.5-.6-.9s.2-.7.6-.9c.4-.2,1-.3,1.9-.3s1.5,0,1.9.3c.4.2.6.5.6.9s-.2.7-.6.9c-.4.2-1,.3-1.9.3ZM239,207.4c0,.3-.1.6-.3.7-.2.1-.4.2-.8.2h-6.5c-.7,0-1.1-.3-1.1-.9v-1.2h8.7v1.2h0ZM227.3,199.9c0,.4.2.6.6.6h1.5c.4,0,.6-.2.6-.6v-9.9c0-.4-.2-.6-.6-.6h-1.5c-.4,0-.6.2-.6.6v3.8c-.2-.3-.5-.5-1-.5h-1.4c-.4,0-.6.2-.6.6v1.3c0,.4.2.6.6.6h1.6c.6,0,.8.3.8.8v3.3h0Z"/>
    <path class="cls-4" d="M215.8,193.2c0,.6,0,1.2-.3,1.8-.2.6-.4,1-.8,1.4-.3.4-.7.7-1.2.9s-.9.3-1.5.3-.6.2-.6.6v1.3c0,.4.2.6.6.6.6,0,1.2,0,1.8-.3.5-.2,1-.4,1.5-.8.4-.3.8-.7,1.1-1.1.3-.4.5-.9.7-1.3.2.5.4.9.7,1.3.3.4.7.8,1.1,1.1s.9.6,1.5.8,1.1.3,1.8.3.6-.2.6-.6v-1.3c0-.4-.2-.6-.6-.6s-1-.1-1.5-.3-.8-.5-1.2-.9c-.3-.4-.6-.9-.8-1.4-.2-.6-.3-1.1-.3-1.8v-2.6c0-.4-.2-.6-.6-.6h-1.5c-.4,0-.6.2-.6.6v2.6h0ZM221.1,206.5c0-3-2.6-4.6-7.8-4.6s-7.8,1.5-7.8,4.6,2.6,4.6,7.8,4.6,7.8-1.5,7.8-4.6h0ZM218.3,206.5c0,.3,0,.6-.3.9-.2.2-.5.5-.9.6-.4.2-.9.3-1.6.4-.6,0-1.4.1-2.4.1s-1.7,0-2.4-.1c-.6,0-1.2-.2-1.6-.4s-.7-.4-.9-.6c-.2-.2-.3-.5-.3-.9s0-.6.3-.9c.2-.2.5-.5.9-.6.4-.2.9-.3,1.6-.4.6,0,1.4-.1,2.4-.1s1.7,0,2.4.1c.6,0,1.2.2,1.6.4s.7.4.9.6c.2.2.3.5.3.9ZM208.7,190c0-.4-.2-.6-.6-.6h-1.5c-.4,0-.6.2-.6.6v10.1c0,.4.2.6.6.6h1.5c.4,0,.6-.2.6-.6v-5.4c.2.3.5.5,1,.5h2.5c.4,0,.6-.2.6-.6v-1.3c0-.4-.2-.6-.6-.6h-2.7c-.6,0-.8-.3-.8-.8v-1.9Z"/>
    <path class="cls-4" d="M192.2,199.3c0,3,.4,5.2,1.3,6.5.8,1.4,2.2,2.1,4,2.1s3.2-.7,4-2.1c.8-1.4,1.3-3.6,1.3-6.5s-.4-5.2-1.2-6.5c-.8-1.4-2.2-2.1-4-2.1s-3.2.7-4,2.1c-.8,1.4-1.3,3.6-1.3,6.5h0ZM197.5,193.3c.9,0,1.5.5,1.9,1.4s.6,2.4.6,4.6-.2,3.6-.6,4.6c-.4.9-1,1.4-1.9,1.4s-1.5-.5-1.9-1.4-.6-2.5-.6-4.6.2-3.6.6-4.6c.4-.9,1-1.4,1.9-1.4ZM188.7,190c0-.4-.2-.6-.6-.6h-1.5c-.4,0-.6.2-.6.6v20c0,.4.2.6.6.6h1.5c.4,0,.6-.2.6-.6v-10.2c.2.3.5.5,1,.5h1.1c.4,0,.6-.2.6-.6v-1.4c0-.4-.2-.6-.6-.6h-1.2c-.6,0-.8-.3-.8-.8v-6.9h-.1Z"/>
    <path class="cls-4" d="M181.9,208.4c.4,0,.6-.3.6-.6v-1.3c0-.4-.2-.6-.6-.6s-.9,0-1.5.1c-.6,0-1.2,0-1.9.1s-1.4,0-2.1.1h-2.1c.2,0,.3-.2.4-.4s.2-.4.2-.6v-2.5c1.1,0,2-.2,2.7-.3.7-.2,1.3-.4,1.8-.7.4-.3.8-.7.9-1.2.2-.5.3-1,.3-1.7s-.1-1.3-.3-1.8c-.2-.5-.6-.8-1.2-1.1-.5-.3-1.3-.5-2.2-.6s-2-.2-3.4-.2h-3c-1,0-1.6-.4-1.6-1.2s.1-.7.3-.8c.2-.2.6-.2,1.2-.2h4.8c.8,0,1.5,0,2.3.1.7,0,1.4.1,2,.2.4,0,.6-.1.6-.5v-1.4c0-.3-.2-.5-.5-.6-1-.1-2.2-.3-3.6-.3s-2.8-.1-4.2-.1h-2.9c-1.8,0-2.7.8-2.7,2.3s.2,1.2.5,1.7.8.8,1.3,1h-1.1c-.4,0-.5.2-.5.5v1.2c0,.4.2.6.5.6h8.6c.6,0,1,.1,1.3.2.3,0,.6.2.7.4s.2.4.2.6,0,.5-.2.6c-.2.2-.4.3-.9.4-.4,0-1,.2-1.7.2h-2.9c-1.2,0-1.9,0-2.9-.1-1,0-1.9-.2-2.8-.3-.3,0-.5.1-.6.5l-.2,1.4v.4c0,0,.2.2.4.2,1,.1,2,.3,3.1.3s2.1.1,2.9.1h0v2.7c0,.5-.3.7-.8.7h-3.3c-.5,0-1.1,0-1.6-.1-.5,0-1,0-1.4-.1-.4,0-.6.1-.6.6v1.3c0,.4.2.6.6.6s.9.1,1.5.2c.6,0,1.3,0,2,.1h5c3.8,0,6.6-.1,8.4-.4l.2.3Z"/>
    <path class="cls-4" d="M147,206.8c0,.2,0,.4.2.5,0,0,.2.1.5.1h1.4c.4,0,.6-.2.6-.6-.3-1.7-.5-3.6-.7-5.5s-.2-3.7-.2-5.5,0-.8,0-1.1.2-.5.3-.7c.2-.2.4-.3.6-.4.3,0,.6-.1,1-.1.8,0,1.5,0,2.2.1.7,0,1.3.2,1.9.3.2,0,.3,0,.5-.1.1-.1.2-.3.2-.5v-1.4c0-.4-.2-.6-.6-.6-.7-.1-1.4-.2-2.2-.3s-1.6-.1-2.3-.1-1.4,0-2,.2c-.5.2-1,.4-1.3.8-.3.4-.6.9-.7,1.5s-.2,1.3-.2,2.2v2.2h-2.2c-.3,0-.5,0-.6-.1-.1,0-.2-.3-.2-.5v-6.8c0-.4-.2-.6-.6-.6h-1.4c-.4,0-.6.2-.6.6v19.8c0,.4.2.6.6.6h1.4c.4,0,.6-.2.6-.6v-10.2c0,.1.2.2.3.3s.3.1.5.1h2.2c0,1.1.2,2.2.3,3.3.1,1.1.3,2.2.4,3.2h.1ZM136.4,210.1c0,.4.2.6.6.6h1.4c.4,0,.6-.2.6-.6v-20.1c0-.4-.2-.6-.6-.6h-1.4c-.4,0-.6.2-.6.6v20.1Z"/>
    <path class="cls-4" d="M122.5,199.3c0,3,.4,5.2,1.3,6.5.9,1.4,2.2,2.1,4.1,2.1s3.2-.7,4.1-2.1c.9-1.4,1.3-3.6,1.3-6.5s-.4-5.2-1.3-6.5c-.9-1.4-2.2-2.1-4.1-2.1s-3.2.7-4.1,2.1c-.9,1.4-1.3,3.6-1.3,6.5ZM127.9,193.3c.9,0,1.6.5,2,1.4s.6,2.4.6,4.6-.2,3.6-.6,4.6-1.1,1.4-2,1.4-1.6-.5-2-1.4-.6-2.5-.6-4.6.2-3.6.6-4.6c.4-.9,1.1-1.4,2-1.4ZM119.3,190c0-.4-.2-.6-.6-.6h-1.5c-.4,0-.6.2-.6.6v20c0,.4.2.6.6.6h1.5c.4,0,.6-.2.6-.6v-20Z"/>
    <path class="cls-4" d="M107.3,190.9c-.8,0-1.5.1-2.1.3s-1,.5-1.4,1-.6,1.1-.8,1.8c-.2.8-.2,1.7-.2,2.8,0,1.7.2,3.3.5,4.7.4,1.4.9,2.4,1.6,3.2h-1.4c-.4,0-.6.2-.6.6v1.4c0,.4.2.6.6.6h7.1c.8,0,1.4-.2,1.8-.6s.7-.9.7-1.6v-13.2c0-.8-.4-1.1-1.1-1.1h-4.7ZM108.1,204.8c-.4,0-.8-.1-1.1-.4-.3-.3-.6-.7-.8-1.2-.2-.5-.4-1.1-.5-1.9-.1-.7-.2-1.5-.2-2.5s0-1.8.1-2.5c0-.7.2-1.2.4-1.6s.4-.7.8-.9c.3-.2.7-.3,1.1-.3h1.8c.4,0,.6.2.6.6v9.9c0,.2,0,.4-.3.6-.2.1-.4.2-.7.2h-1.3.1ZM99.3,190c0-.4-.2-.6-.6-.6h-1.5c-.4,0-.6.2-.6.6v20c0,.4.2.6.6.6h1.5c.4,0,.6-.2.6-.6v-10.2c.2.3.5.5,1,.5h1.1c.4,0,.6-.2.6-.6v-1.4c0-.4-.2-.6-.6-.6h-1.2c-.6,0-.8-.3-.8-.8v-6.9h-.1Z"/>
    <path class="cls-4" d="M83.5,206.8c0,.4.3.6.7.6h1.5c.2,0,.4,0,.5-.2s.1-.3.1-.5c-.3-1.7-.6-3.5-.7-5.2s-.2-3.5-.2-5.2.2-1.7.6-2.1c.4-.4,1-.6,1.9-.6s1.7,0,2.4.1c.7,0,1.5.2,2.3.3.2,0,.3,0,.5-.1.1-.1.2-.3.2-.5v-1.4c0-.4-.2-.6-.6-.6-.9-.1-1.8-.2-2.7-.3-.9,0-1.7-.1-2.6-.1s-1.6,0-2.2.3-1.1.5-1.5.9-.7.9-.8,1.6c-.2.6-.3,1.4-.3,2.4,0,1.9,0,3.7.2,5.5.1,1.7.4,3.5.7,5.3v-.2ZM77.1,210c0,.4.2.6.6.6h1.5c.4,0,.6-.2.6-.6v-20c0-.4-.2-.6-.6-.6h-1.5c-.4,0-.6.2-.6.6v8.2c-.2-.3-.5-.5-1-.5h-1.4c-.4,0-.6.2-.6.6v1.4c0,.4.2.6.6.6h1.6c.6,0,.8.3.8.8v8.8h0Z"/>
  </g>
  <g>
    <path class="cls-4" d="M364.4,231.4c.6,0,1-.2,1.3-.5s.5-.8.5-1.4c0-1-.3-1.7-.9-2.3s-1.3-.8-2.2-.8-.2,0-.2.3v.5c0,.2,0,.3.2.3.5,0,.8.2,1,.6-.4,0-.8.2-1.1.6-.3.3-.4.7-.4,1.2s.2.9.5,1.3c.3.3.8.5,1.3.5v-.3Z"/>
    <path class="cls-4" d="M360.1,231.5c.4,0,.6-.2.6-.6v-1.4c0-.4-.2-.6-.6-.6h-10.7c-.4,0-.6.2-.6.6v1.4c0,.4.2.6.6.6h1.2l.4,11.1h-1.9c-.4,0-.6.2-.6.6v1.4c0,.2,0,.4,0,.4,0,0,.2.1.5.2.3,0,.6,0,1,.1h7.9c1,0,1.8-.1,2.4-.2.2,0,.4,0,.5-.2,0,0,0-.2,0-.4v-1.4c0-.4-.2-.6-.6-.6h-1.9l.4-11.1h1.2ZM355.7,242.8h-2l-.4-11.2h2.9l-.4,11.2h0ZM344,248c0,.4.2.6.6.6h1.5c.4,0,.6-.2.6-.6v-20c0-.4-.2-.6-.6-.6h-1.5c-.4,0-.6.2-.6.6v8.2c-.2-.3-.5-.5-1-.5h-1.4c-.4,0-.6.2-.6.6v1.4c0,.4.2.6.6.6h1.6c.6,0,.8.3.8.8v8.8h0Z"/>
    <path class="cls-4" d="M336.7,238.2c.8,0,1.4-.2,1.8-.6s.7-.9.7-1.6v-7c0-.8-.4-1.1-1.1-1.1h-6c-1.1,0-1.9.3-2.5.9-.6.6-.9,1.4-.9,2.6s.2,1.8.6,2.6c.4.8,1,1.3,1.7,1.7h-1.6c-.4,0-.6.2-.6.6v1.3c0,.4.2.6.6.6h7.3ZM337.8,244.5c0-3-2.6-4.6-7.8-4.6s-7.8,1.5-7.8,4.6,2.6,4.6,7.8,4.6,7.8-1.5,7.8-4.6ZM334,235.7c-.8,0-1.4-.3-1.9-.8-.5-.6-.7-1.3-.7-2.2,0-1.5.7-2.2,2-2.2h2.4c.4,0,.6.2.6.6v3.9c0,.2,0,.4-.3.6-.2.1-.4.2-.7.2h-1.5,0ZM335.1,244.5c0,.3,0,.6-.3.9-.2.2-.5.5-.9.6-.4.2-.9.3-1.6.4-.6,0-1.4.1-2.4.1s-1.7,0-2.4-.1c-.6,0-1.2-.2-1.6-.4-.4-.2-.7-.4-.9-.6-.2-.2-.3-.5-.3-.9s0-.6.3-.9c.2-.2.5-.5.9-.6.4-.2.9-.3,1.6-.4.6,0,1.4-.1,2.4-.1s1.7,0,2.4.1c.6,0,1.2.2,1.6.4.4.2.7.4.9.6.2.2.3.5.3.9ZM322.7,238.2c0,.4.2.6.6.6h1.5c.4,0,.6-.2.6-.6v-10.1c0-.4-.2-.6-.6-.6h-1.5c-.4,0-.6.2-.6.6v10.1Z"/>
    <path class="cls-4" d="M317.6,226.3c-.6,0-1,.2-1.3.5s-.5.8-.5,1.4c0,1,.3,1.7.9,2.3.6.6,1.3.8,2.2.8s.2,0,.2-.3v-.5c0-.2,0-.3-.2-.3-.5,0-.8-.2-1-.6.4,0,.8-.2,1.1-.6.3-.3.4-.7.4-1.2s-.2-.9-.5-1.3c-.3-.3-.8-.5-1.3-.5v.3Z"/>
    <path class="cls-4" d="M295.9,229.4c-.4,0-.6.2-.6.6v1.4c0,.4.2.6.6.6h10.7c.4,0,.6-.2.6-.6v-1.4c0-.4-.2-.6-.6-.6h-4.4c.2-.1.4-.3.4-.6v-1.3c0-.4-.2-.6-.6-.6h-1.6c-.4,0-.6.2-.6.6v1.5c0,.3-.2.4-.5.4h-3.4,0ZM296,239.5c0,1.9.5,3.3,1.4,4.4.9,1,2.2,1.5,3.9,1.5s2.9-.5,3.9-1.5c.9-1,1.4-2.5,1.4-4.4s-.5-3.3-1.4-4.4c-.9-1-2.2-1.5-3.9-1.5s-3,.5-3.9,1.5-1.4,2.5-1.4,4.4ZM301.3,236.2c.8,0,1.4.3,1.8.8.4.5.6,1.4.6,2.4s-.2,1.9-.7,2.5c-.4.6-1,.8-1.8.8s-1.4-.3-1.8-.8c-.4-.5-.7-1.4-.7-2.5s.2-1.9.7-2.4c.4-.5,1.1-.8,1.8-.8h0ZM290.5,248c0,.4.2.6.6.6h1.5c.4,0,.6-.2.6-.6v-20c0-.4-.2-.6-.6-.6h-1.5c-.4,0-.6.2-.6.6v8.2c-.2-.3-.5-.5-1-.5h-1.4c-.4,0-.6.2-.6.6v1.4c0,.4.2.6.6.6h1.6c.6,0,.8.3.8.8v8.8h0Z"/>
    <path class="cls-4" d="M279.8,228.9c-.8,0-1.5.1-2.1.3s-1,.5-1.4,1-.6,1.1-.8,1.8c-.2.8-.2,1.7-.2,2.8,0,1.7.2,3.3.6,4.7.4,1.4.9,2.4,1.6,3.2h-1.5c-.4,0-.6.2-.6.6v1.4c0,.4.2.6.6.6h7.1c.8,0,1.4-.2,1.8-.6s.7-.9.7-1.6v-13.2c0-.8-.4-1.1-1.1-1.1h-4.7ZM280.8,242.8c-.8,0-1.5-.5-1.9-1.6-.5-1.1-.7-2.5-.7-4.3s0-1.8.1-2.5c0-.7.2-1.2.4-1.6s.4-.7.8-.9c.3-.2.7-.3,1.1-.3h1.8c.4,0,.6.2.6.6v9.9c0,.2,0,.4-.3.6-.2.1-.4.2-.7.2h-1.2ZM271.9,228c0-.4-.2-.6-.6-.6h-1.5c-.4,0-.6.2-.6.6v20c0,.4.2.6.6.6h1.5c.4,0,.6-.2.6-.6v-6.6c.2.3.5.5,1,.5h1.1c.4,0,.6-.2.6-.6v-1.4c0-.4-.2-.6-.6-.6h-1.2c-.6,0-.8-.3-.8-.8v-4.5c.2.3.5.5,1,.5h1.1c.4,0,.6-.2.6-.6v-1.4c0-.4-.2-.6-.6-.6h-1.2c-.6,0-.8-.3-.8-.8v-3h-.2Z"/>
    <path class="cls-4" d="M248.5,237.3c0,3,.4,5.2,1.3,6.5.9,1.4,2.2,2.1,4.1,2.1s3.2-.7,4.1-2.1c.9-1.4,1.3-3.6,1.3-6.5s-.4-5.2-1.3-6.5c-.9-1.4-2.2-2.1-4.1-2.1s-3.2.7-4.1,2.1c-.9,1.4-1.3,3.6-1.3,6.5ZM253.9,231.3c.9,0,1.6.5,2,1.4s.6,2.4.6,4.6-.2,3.6-.6,4.6-1.1,1.4-2,1.4-1.6-.5-2-1.4-.6-2.5-.6-4.6.2-3.6.6-4.6c.4-.9,1.1-1.4,2-1.4ZM243,248c0,.4.2.6.6.6h1.5c.4,0,.6-.2.6-.6v-20c0-.4-.2-.6-.6-.6h-1.5c-.4,0-.6.2-.6.6v8.2c-.2-.3-.5-.5-1-.5h-1.4c-.4,0-.6.2-.6.6v1.4c0,.4.2.6.6.6h1.6c.6,0,.8.3.8.8v8.8h0Z"/>
    <path class="cls-4" d="M227.6,237.3c0,3,.4,5.2,1.3,6.5.9,1.4,2.2,2.1,4.1,2.1s3.2-.7,4.1-2.1c.9-1.4,1.3-3.6,1.3-6.5s-.4-5.2-1.3-6.5c-.9-1.4-2.2-2.1-4.1-2.1s-3.2.7-4.1,2.1c-.9,1.4-1.3,3.6-1.3,6.5ZM233,231.3c.9,0,1.6.5,2,1.4s.6,2.4.6,4.6-.2,3.6-.6,4.6-1.1,1.4-2,1.4-1.6-.5-2-1.4-.6-2.5-.6-4.6.2-3.6.6-4.6c.4-.9,1.1-1.4,2-1.4ZM224.4,228c0-.4-.2-.6-.6-.6h-1.5c-.4,0-.6.2-.6.6v20c0,.4.2.6.6.6h1.5c.4,0,.6-.2.6-.6v-20Z"/>
    <path class="cls-4" d="M209.1,238.2c.8.3,1.5.4,2.1.6.6.1,1.3.2,2,.2s1.8,0,2.5-.2c.7-.1,1.3-.4,1.7-.6.4-.3.8-.7,1-1.1.2-.5.3-1,.3-1.7s0-1.3-.3-1.8c-.2-.5-.5-.9-1-1.2s-1.1-.5-1.8-.6c-.8-.1-1.7-.2-2.8-.2h-1.1c-.3,0-.7,0-1.2.2-.2,0-.4.1-.5.2,0,.1-.1.3-.1.5v1.2c0,.4.2.6.7.6s.7-.1,1-.1h2.8c.5,0,.8,0,1.1.2.3,0,.5.2.6.4s.2.3.2.6c0,.5-.2.8-.7,1s-1.3.3-2.4.3-1.1,0-1.6-.1c-.5,0-1.1-.2-1.8-.4h-.4c-.2,0-.4.2-.5.5l-.3,1.2c-.1.4,0,.6.5.8v-.5ZM217.9,230.4c.4,0,.6-.2.6-.6v-1.2c0-.4-.2-.6-.6-.6h-8c-.4,0-.6.2-.6.6v1.2c0,.4.2.6.6.6h8ZM200,246.3c-.4,0-.6.2-.6.6v1.3c0,.4.2.6.6.6h13.1c.8,0,1.4-.2,1.8-.6.4-.4.7-.9.7-1.6v-5c0-.8-.4-1.1-1.1-1.1h-11.8c-.9,0-1.7.2-2.2.6-.5.4-.8,1.1-.8,1.9s.2,1.3.6,1.9c.4.6.8,1,1.4,1.3h-1.7ZM204.6,246.3c-.6,0-1.1-.2-1.5-.6-.4-.4-.6-.8-.6-1.4s.1-.8.4-1,.7-.3,1.2-.3h8.1c.4,0,.6.2.6.6v1.9c0,.2,0,.4-.3.6-.2.1-.4.2-.7.2h-7.2ZM207.3,232c-.3,0-.5,0-.6-.1-.1,0-.2-.3-.2-.5v-3.1c0-.4-.2-.6-.6-.6h-1.4c-.4,0-.6.2-.6.6v10c0,.4.2.6.6.6h1.4c.4,0,.6-.2.6-.6v-4c0,.1.2.2.3.3s.3.1.5.1h1.1c.4,0,.6-.2.6-.6v-1.4c0-.4-.2-.6-.6-.6h-1.2.1ZM199.8,238.2c0,.4.2.6.6.6h1.4c.4,0,.6-.2.6-.6v-10.2c0-.4-.2-.6-.6-.6h-1.4c-.4,0-.6.2-.6.6v10.2Z"/>
    <path class="cls-4" d="M178.9,235.9c-.4,0-.6.1-.6.5v1.2c0,.4.2.6.6.6s1,0,1.6.1h12.4c1.4,0,2.4,0,3.1-.2.4,0,.6-.2.6-.6v-1.2c0-.4-.2-.6-.6-.5h-13.4c-1.4,0-2.5,0-3.5-.2l-.2.3ZM179.7,248.6c.4,0,.9.1,1.5.2s1.1,0,1.7.1,1.2,0,1.7,0h1.5c1.7,0,3.2,0,4.3-.1,1.1,0,2-.2,2.6-.5.6-.2,1.1-.5,1.3-.9.2-.4.4-.9.4-1.5s-.1-1.1-.3-1.4c-.2-.4-.6-.7-1.2-.9s-1.3-.4-2.2-.5c-.9,0-2.1-.1-3.5-.1h-3.9c-.4,0-.8,0-.9-.2-.2,0-.3-.3-.3-.5s0-.5.3-.6c.2-.1.5-.2.9-.2h5c1,0,1.9,0,2.8.1.9,0,1.7,0,2.4.1.4,0,.5-.2.5-.6v-1.1c0-.4-.2-.5-.5-.6-.9,0-1.9-.1-3-.2h-9c-.8,0-1.4.2-1.7.5-.3.3-.5.7-.5,1.3s.1.9.4,1.3c.3.4.7.6,1.1.8h-.9c-.3,0-.5.2-.5.5v1c0,.4.2.6.5.5h9.5c.6,0,1,0,1.4.1.3,0,.5.1.6.3,0,.1.1.3.1.4s0,.4-.2.5-.4.2-.9.3h-8c-.6,0-1.1,0-1.7-.1-.6,0-1.1-.1-1.5-.2-.4,0-.5.1-.6.5v1.1c0,.4,0,.6.4.6h.4ZM194.7,231.4c0-.7-.1-1.2-.4-1.7s-.7-.9-1.3-1.2c-.6-.3-1.4-.5-2.3-.6-1-.1-2.1-.2-3.4-.2s-2.5,0-3.4.2c-1,.1-1.7.4-2.3.6-.6.3-1,.7-1.3,1.2s-.4,1-.4,1.7.1,1.2.4,1.7.7.9,1.3,1.2c.6.3,1.4.5,2.3.6,1,.1,2.1.2,3.4.2s2.5,0,3.4-.2c1-.1,1.7-.4,2.3-.6.6-.3,1-.7,1.3-1.2s.4-1,.4-1.7ZM191.9,231.4c0,.3,0,.5-.2.7s-.4.3-.8.5c-.4.1-.9.2-1.5.3h-4.6c-.6,0-1.1-.1-1.5-.3-.4-.1-.6-.3-.8-.5s-.2-.4-.2-.7,0-.5.2-.7.4-.3.8-.5c.4-.1.9-.2,1.5-.3h4.6c.6,0,1.1.1,1.5.3.4.1.6.3.8.5s.2.4.2.7Z"/>
    <path class="cls-4" d="M168.2,246.4c.4,0,.6-.3.6-.6v-1.3c0-.4-.2-.6-.6-.6s-.9,0-1.5.1c-.6,0-1.2,0-1.9.1s-1.4,0-2.1.1h-2.1c.2,0,.3-.2.4-.4s.2-.4.2-.6v-2.8h3.2c.8,0,1.4-.2,1.8-.6.4-.4.7-.9.7-1.6v-8.5c0-.8-.4-1.1-1.1-1.1h-9.5c-2.5,0-3.7,1.3-3.7,4s.2,2.2.7,3.1c.4.9,1,1.6,1.8,2h-2.2c-.4,0-.6.2-.6.6v1.3c0,.4.2.6.6.6h5.7v3c0,.5-.3.7-.8.7h-3.3c-.5,0-1.1,0-1.6-.1-.5,0-1,0-1.4-.1-.4,0-.6.1-.6.6v1.3c0,.4.2.6.6.6s.9.1,1.5.2c.6,0,1.3,0,2,.1h5c3.8,0,6.6-.1,8.4-.4l-.2.3ZM157.9,237.8c-.4,0-.7-.1-1-.3s-.6-.5-.9-.9c-.2-.4-.4-.8-.6-1.3s-.2-1-.2-1.5c0-.9.2-1.6.5-2,.4-.4.9-.6,1.7-.6h6.1c.4,0,.6.2.6.6v5.3c0,.2,0,.4-.3.6-.2.1-.4.2-.7.2h-5.2Z"/>
    <path class="cls-4" d="M147.3,243.8c-1.2.1-2.4.2-3.8.3-1.4,0-2.9.1-4.6.1h-4.8c-1.5,0-2.7-.2-3.6-.3-.4,0-.6.1-.6.6v1.3c0,.4.2.6.6.6s.9.1,1.5.2c.6,0,1.3,0,2,.1h5c3.8,0,6.6-.1,8.4-.4.4,0,.6-.3.6-.6v-1.3c0-.4-.2-.6-.6-.6h-.1ZM146.2,234.5c0-2-.7-3.5-2-4.5-1.3-1.1-3.1-1.6-5.5-1.6s-4.2.5-5.5,1.6-2,2.6-2,4.5.7,3.5,2,4.5c1.3,1.1,3.1,1.6,5.5,1.6s4.2-.5,5.5-1.6,1.9-2.6,1.9-4.5h.1ZM138.7,238.1c-1.6,0-2.7-.3-3.5-.9-.8-.6-1.2-1.5-1.2-2.6s.4-2,1.2-2.6c.8-.6,2-.9,3.6-.9s2.8.3,3.6.9c.8.6,1.2,1.5,1.2,2.6s-.4,2-1.2,2.6c-.8.6-2,.9-3.5.9h-.2Z"/>
    <path class="cls-4" d="M126.4,237.6h-13.3c-1.4,0-2.5,0-3.4-.2-.4,0-.6.1-.6.6v1.3c0,.4.2.6.6.6s1,0,1.6.1h12.3c1.4,0,2.4,0,3.1-.2.4,0,.6-.3.6-.6v-1.3c0-.4-.2-.6-.6-.6l-.3.3ZM125.1,248.8c.4,0,.6-.2.6-.6v-1.4c0-.4-.2-.6-.6-.6-.8,0-1.6,0-2.3-.3-.7-.2-1.3-.4-1.8-.8-.5-.3-.9-.7-1.2-1.1-.3-.4-.4-.9-.4-1.4v-.6c0-.4-.2-.6-.6-.6h-1.5c-.4,0-.6.2-.6.6v.6c0,.5-.1,1-.4,1.4s-.7.8-1.2,1.1-1.1.6-1.8.8c-.7.2-1.5.3-2.3.3s-.6.2-.6.6v1.4c0,.4.2.6.6.6.7,0,1.5,0,2.2-.2s1.4-.4,2.1-.7c.6-.3,1.2-.6,1.7-1.1.5-.4.9-.8,1.2-1.3.3.5.6.9,1.1,1.3.5.4,1.1.8,1.7,1.1s1.3.5,2.1.7c.7.2,1.5.2,2.2.2h-.2ZM111.8,230.7c.7,0,1.3,0,1.9-.1s1,0,1.5,0h4.9c.7,0,1.3.1,1.7.3.4.1.7.3.9.5.2.2.3.5.3.8s0,.6-.2.8c-.1.2-.4.4-.8.5s-.9.2-1.5.3h-2.4c-1,0-2,0-3.1-.1s-2.2-.2-3.3-.3c-.4,0-.6.1-.6.6v1.3c-.1.4,0,.6.5.6,1.3.2,2.5.3,3.5.3s1.9.1,2.6.1c1.5,0,2.7,0,3.7-.2s1.8-.4,2.5-.7c.6-.3,1.1-.8,1.4-1.3s.4-1.2.4-2-.1-1.4-.4-1.9-.8-1-1.4-1.3c-.7-.3-1.5-.6-2.6-.7-1.1-.1-2.4-.2-3.9-.2s-.7,0-1,0h-2.5c-.5,0-1.2,0-1.9.1-.4,0-.6.2-.6.6v1.3c0,.4.2.6.6.6h-.2Z"/>
  </g>
  <g>
    <path class="cls-4" d="M407.6,269.5c.4,0,.6-.2.6-.6v-1.4c0-.4-.2-.6-.6-.6h-9.8c-.4,0-.6.2-.6.6v1.4c0,.4.2.6.6.6h3.6v5.7c0,.7,0,1.4-.3,2-.2.6-.5,1.2-.8,1.7s-.7.9-1.2,1.2c-.4.3-.9.5-1.4.6-.4,0-.6.3-.6.6v1.4c0,.4.2.6.6.6.6,0,1.1-.2,1.7-.5.5-.3,1-.6,1.5-1,.4-.4.8-.8,1.2-1.3.3-.5.6-1,.7-1.6.2.6.4,1.1.7,1.6.3.5.7.9,1.2,1.3.4.4.9.7,1.5,1,.5.3,1.1.4,1.7.5.4,0,.6-.1.6-.6v-1.4c0-.4-.2-.6-.6-.6s-1-.3-1.4-.6c-.4-.3-.8-.7-1.2-1.2-.3-.5-.6-1.1-.8-1.7-.2-.6-.3-1.3-.3-2v-5.7h3.5,0ZM391.9,286c0,.4.2.6.6.6h1.5c.4,0,.6-.2.6-.6v-20c0-.4-.2-.6-.6-.6h-1.5c-.4,0-.6.2-.6.6v8.2c-.2-.3-.5-.5-1-.5h-1.4c-.4,0-.6.2-.6.6v1.4c0,.4.2.6.6.6h1.6c.6,0,.8.3.8.8v8.8h0Z"/>
    <path class="cls-4" d="M386.4,274.2h-12.2c-.2-.5-.3-1.1-.4-1.8,0-.6-.2-1.2-.2-1.6,0-.9.2-1.5.6-1.9s1.1-.6,2.1-.6h4.2c.7,0,1.3,0,2,.1s1.4.1,2.1.2c.4,0,.6-.1.6-.6v-1.3c0-.4-.2-.6-.6-.6-1.3-.1-2.7-.2-4.1-.3-1.4,0-2.9-.1-4.5-.1-3.4,0-5.2,1.4-5.2,4.3s0,1.5.2,2.2c0,.7.2,1.4.4,1.9h-1.7c-.4,0-.6.1-.6.6v1.3c0,.4.2.6.6.6s1,0,1.6.1h12.3c1.4,0,2.4,0,3.1-.2.4,0,.6-.3.6-.6v-1.3c0-.4-.2-.6-.6-.6l-.3.2ZM370.4,286.2c0,.4.3.6.7.6h1.4c.2,0,.4,0,.5-.2s.2-.3,0-.5v-2.8c0-.8.2-1.3.5-1.6.3-.3.8-.4,1.5-.4,3.2,0,6.4.1,9.7.4.4,0,.6-.2.6-.6v-1.3c0-.4-.2-.6-.6-.6-.8,0-1.6-.1-2.4-.2-.8,0-1.5,0-2.3-.1h-5.3c-1,0-1.6,0-2.1.2-.6.1-1.1.3-1.4.6-.4.3-.6.7-.8,1.2-.2.5-.2,1.1-.2,1.8,0,1.6,0,2.7,0,3.5h0Z"/>
    <path class="cls-4" d="M348.6,273.9c-.4,0-.6.1-.6.5v1.2c0,.4.2.6.6.6s1,0,1.6.1h12.4c1.4,0,2.4,0,3.1-.2.4,0,.6-.2.6-.6v-1.2c0-.4-.2-.6-.6-.5h-13.4c-1.4,0-2.5,0-3.5-.2l-.2.3ZM349.4,286.6c.4,0,.9.1,1.5.2s1.1,0,1.7.1,1.2,0,1.7,0h1.5c1.7,0,3.2,0,4.3-.1,1.1,0,2-.2,2.6-.5.6-.2,1.1-.5,1.3-.9.2-.4.4-.9.4-1.5s0-1.1-.3-1.4c-.2-.4-.6-.7-1.2-.9s-1.3-.4-2.2-.5c-.9,0-2.1-.1-3.5-.1h-3.9c-.4,0-.8,0-.9-.2-.2,0-.3-.3-.3-.5s0-.5.3-.6c.2-.1.5-.2.9-.2h5c1,0,1.9,0,2.8.1.9,0,1.7,0,2.4.1.4,0,.5-.2.5-.6v-1.1c0-.4-.2-.5-.5-.6-.9,0-1.9-.1-3-.2h-9c-.8,0-1.4.2-1.7.5-.3.3-.5.7-.5,1.3s0,.9.4,1.3.7.6,1.1.8h-.9c-.3,0-.5.2-.5.5v1c0,.4.2.6.5.5h9.5c.6,0,1,0,1.4.1.3,0,.5.1.6.3,0,.1,0,.3,0,.4s0,.4-.2.5-.4.2-.9.3h-8c-.6,0-1.1,0-1.7-.1-.6,0-1.1-.1-1.5-.2-.4,0-.5.1-.6.5v1.1c0,.4,0,.6.4.6h.4ZM364.4,269.4c0-.7,0-1.2-.4-1.7s-.7-.9-1.3-1.2c-.6-.3-1.4-.5-2.3-.6-1-.1-2.1-.2-3.4-.2s-2.5,0-3.4.2c-1,.1-1.7.4-2.3.6-.6.3-1,.7-1.3,1.2s-.4,1-.4,1.7,0,1.2.4,1.7.7.9,1.3,1.2c.6.3,1.4.5,2.3.6,1,.1,2.1.2,3.4.2s2.5,0,3.4-.2c1-.1,1.7-.4,2.3-.6.6-.3,1-.7,1.3-1.2s.4-1,.4-1.7ZM361.6,269.4c0,.3,0,.5-.2.7s-.4.3-.8.5c-.4.1-.9.2-1.5.3h-4.6c-.6,0-1.1-.1-1.5-.3-.4-.1-.6-.3-.8-.5s-.2-.4-.2-.7,0-.5.2-.7.4-.3.8-.5c.4-.1.9-.2,1.5-.3h4.6c.6,0,1.1.1,1.5.3.4.1.6.3.8.5s.2.4.2.7Z"/>
    <path class="cls-4" d="M327.3,280.8c.6,0,.8.2.8.7v3.6c0,.4.2.6.6.6h1.5c.4,0,.6-.2.6-.6v-3.3c0-.2,0-.5-.2-.6-.1-.2-.3-.3-.5-.4h4.2c.7,0,1.3,0,1.9-.1.6,0,1.1,0,1.6-.1.4,0,.6-.3.6-.7v-1.3c0-.4-.2-.6-.6-.6-1.2.1-2.4.2-3.8.3-1.4,0-2.9.1-4.6.1h-4.8c-1.5,0-2.7-.2-3.6-.3-.4,0-.6.1-.6.6v1.3c0,.4.2.6.6.7.4,0,.9,0,1.4.1.5,0,1,0,1.6.1h3.3,0ZM322.9,266.4c-.4,0-.6.2-.6.6v1.4c0,.4.2.6.6.6h5c0,.6-.2,1.2-.5,1.7s-.7,1-1.1,1.4c-.5.4-1,.7-1.7.9-.6.2-1.3.3-2.1.3s-.6.2-.6.6v1.5c0,.3,0,.5.3.5h.6c.7,0,1.4,0,2.1-.3.7-.2,1.3-.4,1.9-.8.6-.3,1.1-.8,1.5-1.2.4-.5.8-1,1.1-1.6.3.6.6,1.1,1.1,1.6.4.5,1,.9,1.5,1.2.6.3,1.2.6,1.9.8.7.2,1.4.3,2.1.3s.4,0,.6,0,.3-.2.3-.5v-1.5c0-.4-.2-.6-.6-.6-.8,0-1.4-.1-2.1-.3s-1.2-.5-1.7-.9-.9-.8-1.1-1.4c-.3-.5-.5-1.1-.5-1.7h5c.4,0,.6-.2.6-.6v-1.4c0-.4-.2-.6-.6-.6h-5.5c.3-.1.4-.4.4-.8v-.8c0-.4-.2-.6-.6-.6h-1.6c-.4,0-.6.2-.6.6v1.2c0,.3-.2.5-.5.5h-4.6Z"/>
    <path class="cls-4" d="M315.1,269c.4,0,.6-.1.6-.6v-1.5c0-.4-.2-.6-.6-.6-.7,0-1.3-.1-1.9-.2-.6,0-1.2,0-1.9-.1h-4.3c-1.8,0-3.2.5-4.2,1.5s-1.5,2.4-1.5,4.3v2.9c0,.8.2,1.6.3,2.4-.6,0-1.1,0-1.5-.1-.4,0-.6.1-.6.6v1.3c0,.4.2.6.6.7.4,0,.9,0,1.4.1.5,0,1,0,1.6.1h3.3c.5,0,.8.2.8.7v4.7c0,.4.2.6.6.6h1.5c.4,0,.6-.2.6-.6v-4.4c0-.2,0-.5-.2-.6-.1-.2-.3-.3-.5-.4h4.2c.7,0,1.3,0,1.9-.1.6,0,1.1,0,1.6-.1.4,0,.6-.3.6-.7v-1.3c0-.4-.2-.6-.6-.6-1.2.1-2.4.2-3.8.3-1.4,0-2.9.1-4.6.1h-4.2v-.3c-.3-1.3-.4-2.9-.4-4.6s.3-2.3.8-2.8c.5-.6,1.4-.8,2.7-.8h3.9c1.2,0,2.4.2,3.6.3l.2-.2Z"/>
    <path class="cls-4" d="M286.2,267.4c-.4,0-.6.2-.6.6v1.4c0,.4.2.6.6.6h10.7c.4,0,.6-.2.6-.6v-1.4c0-.4-.2-.6-.6-.6h-4.4c.2-.1.4-.3.4-.6v-1.3c0-.4-.2-.6-.6-.6h-1.6c-.4,0-.6.2-.6.6v1.5c0,.3-.2.4-.5.4h-3.4,0ZM286.3,277.5c0,1.9.5,3.3,1.4,4.4.9,1,2.2,1.5,3.9,1.5s2.9-.5,3.9-1.5c.9-1,1.4-2.5,1.4-4.4s-.5-3.3-1.4-4.4c-.9-1-2.2-1.5-3.9-1.5s-3,.5-3.9,1.5-1.4,2.5-1.4,4.4ZM291.6,274.2c.8,0,1.4.3,1.8.8.4.5.6,1.4.6,2.4s-.2,1.9-.7,2.5c-.4.6-1,.8-1.8.8s-1.4-.3-1.8-.8c-.4-.5-.7-1.4-.7-2.5s.2-1.9.7-2.4c.4-.5,1.1-.8,1.8-.8h0ZM280.8,286c0,.4.2.6.6.6h1.5c.4,0,.6-.2.6-.6v-20c0-.4-.2-.6-.6-.6h-1.5c-.4,0-.6.2-.6.6v8.2c-.2-.3-.5-.5-1-.5h-1.4c-.4,0-.6.2-.6.6v1.4c0,.4.2.6.6.6h1.6c.6,0,.8.3.8.8v8.8h0Z"/>
    <path class="cls-4" d="M270.1,266.9c-.8,0-1.5.1-2.1.3-.6.2-1,.5-1.4,1s-.6,1.1-.8,1.8c-.2.8-.2,1.7-.2,2.8,0,1.7.2,3.3.6,4.7.4,1.4.9,2.4,1.6,3.2h-1.5c-.4,0-.6.2-.6.6v1.4c0,.4.2.6.6.6h7.1c.8,0,1.4-.2,1.8-.6s.7-.9.7-1.6v-13.2c0-.8-.4-1.1-1.1-1.1h-4.7ZM271.1,280.8c-.8,0-1.5-.5-1.9-1.6-.5-1.1-.7-2.5-.7-4.3s0-1.8.1-2.5c0-.7.2-1.2.4-1.6s.4-.7.8-.9c.3-.2.7-.3,1.1-.3h1.8c.4,0,.6.2.6.6v9.9c0,.2,0,.4-.3.6-.2.1-.4.2-.7.2h-1.2ZM262.2,266c0-.4-.2-.6-.6-.6h-1.5c-.4,0-.6.2-.6.6v20c0,.4.2.6.6.6h1.5c.4,0,.6-.2.6-.6v-6.6c.2.3.5.5,1,.5h1.1c.4,0,.6-.2.6-.6v-1.4c0-.4-.2-.6-.6-.6h-1.2c-.6,0-.8-.3-.8-.8v-4.5c.2.3.5.5,1,.5h1.1c.4,0,.6-.2.6-.6v-1.4c0-.4-.2-.6-.6-.6h-1.2c-.6,0-.8-.3-.8-.8v-3h-.2Z"/>
    <path class="cls-4" d="M249.2,269.5c.4,0,.6-.2.6-.6v-1.4c0-.4-.2-.6-.6-.6h-8.7c-.4,0-.6.2-.6.6v1.4c0,.4.2.6.6.6h3v6.4c0,1.5-.3,2.6-.9,3.4-.6.8-1.3,1.3-2.3,1.4-.2,0-.4,0-.5.2,0,0-.1.2-.1.4v1.4c0,.4.2.6.6.6,1.1-.1,2-.5,2.8-1.1s1.4-1.4,1.7-2.5c.3,1,.9,1.8,1.7,2.5.8.6,1.7,1,2.8,1.1.4,0,.6-.2.6-.6v-1.4c0-.2,0-.4-.1-.4,0,0-.2-.1-.5-.2-.9-.1-1.7-.6-2.3-1.4s-.9-2-.9-3.4v-6.4h3.1ZM230.7,286.1c0,.4.2.6.6.6h1.4c.4,0,.6-.2.6-.6v-9.6h1.4c.3,0,.5,0,.6.1.1,0,.2.3.2.5v9c0,.4.2.6.6.6h1.4c.4,0,.6-.2.6-.6v-19.8c0-.4-.2-.6-.6-.6h-1.4c-.4,0-.6.2-.6.6v8c-.2-.3-.4-.4-.8-.4h-1.3v-7.8c0-.4-.2-.6-.6-.6h-1.4c-.4,0-.6.2-.6.6v20.1h0Z"/>
    <path class="cls-4" d="M221.3,266.9c-.8,0-1.5.1-2.1.3-.6.2-1,.5-1.4,1-.4.5-.6,1.1-.8,1.8-.2.8-.2,1.7-.2,2.8,0,1.7.2,3.3.6,4.7.4,1.4.9,2.4,1.6,3.2h-1.5c-.4,0-.6.2-.6.6v1.4c0,.4.2.6.6.6h7.3c.8,0,1.4-.2,1.8-.6s.7-.9.7-1.6v-13.2c0-.8-.4-1.1-1.1-1.1h-4.9ZM222.2,280.8c-.8,0-1.5-.5-1.9-1.6-.5-1.1-.7-2.5-.7-4.3s0-1.8.1-2.5c0-.7.2-1.2.4-1.6s.4-.7.8-.9c.3-.2.7-.3,1.1-.3h2c.4,0,.6.2.6.6v9.9c0,.2,0,.4-.3.6-.2.1-.4.2-.7.2h-1.4ZM213.6,266c0-.4-.2-.6-.6-.6h-1.5c-.4,0-.6.2-.6.6v20c0,.4.2.6.6.6h1.5c.4,0,.6-.2.6-.6v-20Z"/>
    <path class="cls-4" d="M189.8,274.9c-.4,0-.6.1-.6.5v1c0,.2,0,.3.1.4,0,0,.2.1.4.2.4,0,1,0,1.6.1h12.4c1.4,0,2.4,0,3.1-.2.3,0,.5-.2.5-.6v-1.1c0-.4-.2-.5-.6-.5h-13.6c-1.4,0-2.6,0-3.5-.2l.2.4ZM190.6,286.6c.4,0,.9,0,1.4.2.5,0,1.1.1,1.7.1h3.4c1.8,0,3.2,0,4.4-.1,1.1,0,2-.2,2.6-.4.6-.2,1.1-.5,1.3-.9.2-.4.3-.8.3-1.4s-.1-1-.3-1.4c-.2-.4-.6-.6-1.1-.9-.5-.2-1.3-.4-2.2-.4s-2.1-.1-3.6-.1h-3.9c-.4,0-.8,0-.9-.2-.2,0-.3-.2-.3-.5s0-.4.3-.5.5-.1.9-.1h8c.9,0,1.7,0,2.3.1.3,0,.5-.2.5-.5v-1c0-.2,0-.3-.1-.4,0,0-.2-.1-.4-.1-.9,0-1.9,0-2.9-.1s-2.1,0-3.2-.1h-5.8c-.8,0-1.4.2-1.7.4-.3.2-.5.6-.5,1.2s.1.9.4,1.2c.3.3.7.6,1.1.8h-.9c-.3,0-.5.1-.5.3v1.1c0,.4.2.6.5.5h10.9c.3,0,.5.1.6.2s.1.2.1.4,0,.3-.2.4c-.1,0-.4.2-.8.2s-1,0-1.8.1h-6.3c-.6,0-1.1,0-1.7-.1-.5,0-1-.1-1.5-.2-.4,0-.5.1-.6.5v1.4s.2.1.4.2h.1ZM191.6,270.9h10.4c.3,0,.5.1.6.2,0,0,.1.2.1.3s0,.3-.2.3-.4.2-.7.2h-7.7c-.5,0-1,0-1.6-.1-.5,0-1,0-1.4-.1-.3,0-.5,0-.5.4v1.4s.2.1.4.2c.4,0,.9,0,1.4.1.5,0,1,0,1.6.1s1.1,0,1.6,0h5.7c1.1,0,1.9-.2,2.5-.4s1-.5,1.2-.8.3-.8.3-1.3-.1-.9-.3-1.3c-.2-.3-.6-.6-1.1-.8-.5-.2-1.2-.3-2.1-.4-.9,0-2-.1-3.3-.1h-3.6c-.4,0-.8,0-.9-.1-.2,0-.3-.2-.3-.5s0-.3.3-.4c.2,0,.5-.1.9-.1h10.1c.1,0,0-.2,0-.4v-1.4c0-.1-.2-.1-.4-.1-.9,0-1.8,0-2.8-.1h-8.4c-.8,0-1.4.1-1.7.3-.3.2-.5.5-.5,1.1s.1.8.4,1.1c.3.3.7.6,1.1.7h-.9c-.3,0-.4.1-.4.4v1c0,.3.1.4.4.4l-.2.2Z"/>
    <path class="cls-4" d="M179.1,281.8c-1.2.1-2.4.2-3.8.3-1.4,0-2.9.1-4.6.1h-4.8c-1.5,0-2.7-.2-3.6-.3-.4,0-.6.1-.6.6v1.3c0,.4.2.6.6.6s.9.1,1.5.2c.6,0,1.3,0,2,.1h5c3.8,0,6.6-.1,8.4-.4.4,0,.6-.3.6-.6v-1.3c0-.4-.2-.6-.6-.6h-.1ZM177.6,267.3c0-.4-.3-.6-.7-.6h-1.5c-.4,0-.6.2-.6.6,0,.9,0,1.8.1,2.8v3.1c0,1.7-1,2.6-3,2.6s-3.1,0-4.5-.1c-1.4,0-2.7-.2-3.9-.3-.4,0-.6.1-.6.6v1.4c-.1.4,0,.6.5.6,1.2.2,2.6.3,4,.3h4.4c3.9,0,5.8-1.8,5.8-5.3s0-1,0-1.5v-4.4.2Z"/>
    <path class="cls-4" d="M153.9,282.8c0,.4.3.6.7.6h1.5c.2,0,.4,0,.5-.2.1-.1.2-.3.1-.5-.3-2.1-.5-4.1-.6-6.2s-.2-3.9-.2-5.6.3-1.4,1-1.4,1.1.2,2,.5h.4c.1-.1.2-.3.2-.5v-1.3c0-.3-.2-.6-.6-.7s-.8-.3-1.3-.3-.9-.1-1.2-.1c-1.1,0-2,.3-2.5.9,0-.2-.2-.3-.5-.4s-.6-.2-1-.3c-.4,0-.7-.1-1.1-.2h-.7c-2.2,0-3.4,1.3-3.4,3.8v2.9c0,.9,0,1.9.2,2.9,0,1,.2,2,.3,3,.1,1,.2,2.2.4,3.4,0,.4.3.6.7.6h1.5c.2,0,.4,0,.5-.2s.2-.3.1-.5c-.3-2.1-.5-4.1-.7-6.2s-.2-3.9-.2-5.6.4-1.4,1.1-1.4,1.3.1,2.1.4v3.7c0,.9,0,1.9.2,2.9,0,1,.2,2,.3,3s.2,2.2.4,3.4l-.2-.4ZM145,266c0-.4-.2-.6-.6-.6h-1.5c-.4,0-.6.2-.6.6v20c0,.4.2.6.6.6h1.5c.4,0,.6-.2.6-.6v-20Z"/>
    <path class="cls-4" d="M138.1,276.1h-13.3c-1.4,0-2.5,0-3.4-.2-.4,0-.6.1-.6.6v1.3c0,.4.2.6.6.6s1,0,1.6.1h12.3c1.4,0,2.4,0,3.1-.2.4,0,.6-.3.6-.6v-1.3c0-.4-.2-.6-.6-.6l-.3.3ZM136.9,280.9c0-.4-.3-.6-.7-.6h-1.5c-.2,0-.4,0-.5.2-.1.1-.1.3-.1.5,0,.3,0,.5.1.8v.9c0,1.3-.8,1.9-2.3,1.9h-5.4c-.8,0-1.5,0-2.2-.1s-1.4-.1-2.1-.2c-.4,0-.6.1-.6.6v1.3c-.1.4,0,.6.5.6,1.2.1,2.6.2,4.3.3,1.7,0,3.5.1,5.5.1s2.9-.4,3.8-1.1c.9-.8,1.3-1.8,1.3-3.2s0-.7,0-1,0-.6-.1-.8v-.2ZM136.6,266.5c0-.4-.3-.6-.7-.6h-1.5c-.2,0-.4,0-.5.2,0,.1-.1.3-.1.5v3.7c0,1.3-.8,1.9-2.3,1.9h-4.9c-.7,0-1.4,0-2.1-.1-.7,0-1.4-.1-2.1-.2-.4,0-.6.1-.6.6v1.3c-.1.4,0,.6.5.6,1.2.1,2.6.2,4.2.3s3.3.1,5.2.1,2.8-.4,3.6-1.1,1.2-1.8,1.2-3.2,0-.5,0-.9v-3h0Z"/>
    <path class="cls-4" d="M100.7,266.2c-.4,0-.6.2-.6.6v1.3c0,.4.2.6.6.6h10.6c.4,0,.6-.2.6-.6v-1.3c0-.4-.2-.6-.6-.6h-4.4c.2-.1.4-.3.4-.6v-.6c0-.4-.2-.6-.6-.6h-1.6c-.4,0-.6.2-.6.6v.8c0,.3-.2.4-.5.4h-3.3ZM111.2,273.9c0-2.6-1.7-4-5.2-4s-5.2,1.3-5.2,4,1.7,4,5.2,4,5.2-1.3,5.2-4ZM109.2,280.4c0-.4-.3-.6-.7-.6h-1.4c-.2,0-.4,0-.5.2s-.2.3-.1.5v1.9c0,.7-.2,1.3-.6,1.6-.4.4-1,.6-1.8.6h-5.3c-.7,0-1.4,0-2.1-.1-.7,0-1.4-.1-2.1-.2-.4,0-.6.1-.6.6v1.3c-.1.4,0,.6.5.6,1.2.1,2.6.2,4.1.3,1.6,0,3.3.1,5.3.1s3-.4,3.9-1.2c.9-.8,1.4-1.9,1.4-3.3s0-1.6-.1-2.2h.1ZM106,275.5c-.9,0-1.5-.1-1.9-.4-.4-.2-.6-.6-.6-1.1s.2-.9.6-1.1,1-.4,1.9-.4,1.5.1,1.9.4c.4.2.6.6.6,1.1s-.2.9-.6,1.1-1,.4-1.9.4ZM94.7,279.5c0,.4.2.6.6.6h1.5c.4,0,.6-.2.6-.6v-3.7c.2.3.5.5,1,.5h.7c.4,0,.6-.2.6-.6v-1.3c0-.4-.2-.6-.6-.6h-1.1c-.2,0-.4,0-.5-.2,0-.1-.1-.3-.1-.5v-2.1c.2.3.5.5,1,.5h.7c.4,0,.6-.2.6-.6v-1.3c0-.4-.2-.6-.6-.6h-1.1c-.2,0-.4,0-.5-.2,0-.1-.1-.3-.1-.5v-2.2c0-.4-.2-.6-.6-.6h-1.5c-.4,0-.6.2-.6.6v13.5h0Z"/>
    <path class="cls-4" d="M84.6,269.2c0,.6,0,1.2-.3,1.8-.2.6-.4,1-.8,1.4-.3.4-.7.7-1.2.9s-.9.3-1.5.3-.6.2-.6.6v1.3c0,.4.2.6.6.6.6,0,1.2,0,1.8-.3.5-.2,1-.4,1.5-.8.4-.3.8-.7,1.1-1.1.3-.4.5-.9.7-1.3.2.5.4.9.7,1.3.3.4.7.8,1.1,1.1.4.3.9.6,1.5.8s1.1.3,1.8.3.6-.2.6-.6v-1.3c0-.4-.2-.6-.6-.6s-1-.1-1.5-.3-.8-.5-1.2-.9c-.3-.4-.6-.9-.8-1.4-.2-.6-.3-1.1-.3-1.8v-2.6c0-.4-.2-.6-.6-.6h-1.5c-.4,0-.6.2-.6.6v2.6h0ZM89.9,282.5c0-3-2.5-4.6-7.6-4.6s-7.6,1.5-7.6,4.6,2.5,4.6,7.6,4.6,7.6-1.5,7.6-4.6ZM87.2,282.5c0,.3,0,.6-.2.9-.2.2-.4.5-.8.6-.4.2-.9.3-1.5.4-.6,0-1.4.1-2.3.1s-1.7,0-2.3-.1c-.6,0-1.1-.2-1.5-.4-.4-.2-.6-.4-.8-.6-.2-.2-.2-.5-.2-.9s0-.6.2-.9.4-.5.8-.6c.4-.2.9-.3,1.5-.4.6,0,1.4-.1,2.3-.1s1.7,0,2.3.1c.6,0,1.1.2,1.5.4.4.2.6.4.8.6.2.2.2.5.2.9ZM75.2,276.2c0,.4.2.6.6.6h1.5c.4,0,.6-.2.6-.6v-10.1c0-.4-.2-.6-.6-.6h-1.5c-.4,0-.6.2-.6.6v3.9c-.2-.3-.5-.5-1-.5h-1.4c-.4,0-.6.2-.6.6v1.3c0,.4.2.6.6.6h1.6c.6,0,.8.3.8.8v3.4h0Z"/>
    <path class="cls-4" d="M70.3,285.5c0-.5-.2-1-.5-1.3s-.8-.5-1.3-.5-1,.2-1.3.5-.5.7-.5,1.3.2.9.5,1.2.8.5,1.3.5,1-.2,1.3-.5.5-.7.5-1.2Z"/>
  </g>
  <g>
    <path class="cls-2" d="M399.4,208.4c.4,0,.6-.3.6-.6v-1.3c0-.4-.2-.6-.6-.6s-.9,0-1.5.1c-.6,0-1.2,0-1.9.1s-1.4,0-2.1.1h-2.1c.2,0,.3-.2.4-.4s.2-.4.2-.6v-2.8c1.2,0,2.1-.3,2.9-.6s1.4-.7,1.9-1.2.9-1.1,1.1-1.8.3-1.4.3-2.3,0-1.8-.4-2.5-.8-1.3-1.4-1.8c-.7-.5-1.5-.9-2.6-1.2s-2.4-.4-3.9-.4-.7,0-1,0h-2.5c-.5,0-1.2,0-1.9.1-.4,0-.6.2-.6.6v1.4c0,.4.2.6.6.6.7,0,1.3,0,1.9-.1s1,0,1.5,0h2.2c1.1,0,2,0,2.7.2.7.1,1.3.3,1.7.6.4.3.7.6.9,1,.2.4.3.9.3,1.5s0,1.1-.2,1.5c0,.4-.4.8-.8,1-.4.3-.9.5-1.5.6s-1.4.2-2.4.2-2,0-3.1-.1-2.2-.2-3.3-.3c-.4,0-.6.1-.6.6v1.4c0,.4,0,.6.5.6,1.1.1,2,.2,2.8.3.8,0,1.6.1,2.3.1v3c0,.5-.3.7-.8.7h-3.3c-.5,0-1.1,0-1.6-.1-.5,0-1,0-1.4-.1-.4,0-.6.1-.6.6v1.3c0,.4.2.6.6.6s.9.1,1.5.2c.6,0,1.3,0,2,.1h5c3.8,0,6.6-.1,8.4-.4h-.2Z"/>
    <path class="cls-2" d="M379.1,193.5c.4,0,.6-.2.6-.6v-1.4c0-.4-.2-.6-.6-.6h-10.7c-.4,0-.6.2-.6.6v1.4c0,.4.2.6.6.6h1.2l.4,11.1h-1.9c-.4,0-.6.2-.6.6v1.4c0,.2,0,.4,0,.4,0,0,.2.1.5.2.3,0,.6,0,1,.1h7.9c1,0,1.8-.1,2.4-.2.2,0,.4,0,.5-.2,0,0,0-.2,0-.4v-1.4c0-.4-.2-.6-.6-.6h-1.9l.4-11.1h1.2ZM374.8,204.8h-2l-.4-11.2h2.9l-.4,11.2h0ZM363.1,210c0,.4.2.6.6.6h1.5c.4,0,.6-.2.6-.6v-20c0-.4-.2-.6-.6-.6h-1.5c-.4,0-.6.2-.6.6v8.2c-.2-.3-.5-.5-1-.5h-1.4c-.4,0-.6.2-.6.6v1.4c0,.4.2.6.6.6h1.6c.6,0,.8.3.8.8v8.8h0Z"/>
    <path class="cls-2" d="M355.8,201.2c.8,0,1.4-.2,1.8-.6.4-.4.7-.9.7-1.6v-8c0-.8-.4-1.1-1.1-1.1h-6c-1.1,0-1.9.3-2.5,1s-.9,1.7-.9,2.9.2,2,.6,2.9,1,1.5,1.7,1.9h-1.6c-.4,0-.6.2-.6.6v1.3c0,.4.2.6.6.6h7.3ZM356.3,203.9c0-.4-.3-.6-.7-.6h-1.4c-.2,0-.4,0-.5.2s-.2.3,0,.5v2.4c0,.7-.2,1.3-.6,1.6-.4.4-1,.6-1.8.6h-5.3c-.7,0-1.4,0-2.1-.1-.7,0-1.4-.1-2.1-.2-.4,0-.6.1-.6.6v1.3c-.1.4,0,.6.5.6,1.2.1,2.6.2,4.1.3,1.6,0,3.3.1,5.3.1s3-.4,3.9-1.2,1.4-1.9,1.4-3.3v-1.5c0-.5,0-.9,0-1.2h0ZM353.1,198.6c-.8,0-1.4-.3-1.9-1s-.7-1.5-.7-2.5.2-1.5.5-2,.8-.7,1.5-.7h2.4c.4,0,.6.2.6.6v4.8c0,.2,0,.4-.3.6-.2.1-.4.2-.7.2h-1.5,0ZM344.5,190c0-.4-.2-.6-.6-.6h-1.5c-.4,0-.6.2-.6.6v13.5c0,.4.2.6.6.6h1.5c.4,0,.6-.2.6-.6v-13.5Z"/>
    <path class="cls-2" d="M338.5,208.9c.4,0,.6-.3.6-.6v-1.4c0-.4-.2-.6-.6-.5-.6,0-1.2.2-1.8.2s-1.3.1-1.9.1c.4-.2.6-.5.6-1v-5.8c0-.4-.2-.6-.6-.6h-1.5c-.4,0-.6.2-.6.6v6c0,.5-.3.7-.8.7h-2.6c-.8,0-1.5-.1-1.9-.2-.4,0-.6,0-.6.5v1.4c0,.4.2.6.6.6.8.1,1.7.2,2.7.3h6.2c.8,0,1.7-.1,2.5-.3h-.3ZM332.3,193c.9,0,1.7,0,2.6.1.8,0,1.6.2,2.4.3.4,0,.6-.1.6-.6v-1.5c0-.2,0-.3-.1-.4,0,0-.2-.2-.5-.2-.6-.1-1.4-.2-2.3-.3s-1.9-.1-2.9-.1-1.6.1-2.2.3c-.6.2-1.1.5-1.4.9-.4.4-.6.9-.8,1.5s-.2,1.2-.2,2,0,2.3.2,3.5c.1,1.2.3,2.3.5,3.3,0,.2,0,.3.2.4h.5l1.6-.2c.2,0,.4,0,.4-.2v-.4c-.2-1.1-.4-2.1-.5-3.1s-.2-2-.2-2.8.2-1.6.6-1.9c.4-.4.9-.6,1.6-.6h-.1ZM322.3,210c0,.4.2.6.6.6h1.5c.4,0,.6-.2.6-.6v-20c0-.4-.2-.6-.6-.6h-1.5c-.4,0-.6.2-.6.6v8.2c-.2-.3-.5-.5-1-.5h-1.4c-.4,0-.6.2-.6.6v1.4c0,.4.2.6.6.6h1.6c.6,0,.8.3.8.8v8.8h0Z"/>
    <path class="cls-2" d="M310.7,193.5c.4,0,.6-.2.6-.6v-1.4c0-.4-.2-.6-.6-.6h-10.7c-.4,0-.6.2-.6.6v1.4c0,.4.2.6.6.6h1.2l.4,11.1h-1.9c-.4,0-.6.2-.6.6v1.4c0,.2,0,.4.1.4,0,0,.2.1.5.2.3,0,.6,0,1,.1h7.9c1,0,1.8-.1,2.4-.2.2,0,.4,0,.5-.2,0,0,.1-.2.1-.4v-1.4c0-.4-.2-.6-.6-.6h-1.9l.4-11.1h1.2ZM306.4,204.8h-2l-.4-11.2h2.9l-.4,11.2h-.1ZM294.7,210c0,.4.2.6.6.6h1.5c.4,0,.6-.2.6-.6v-20c0-.4-.2-.6-.6-.6h-1.5c-.4,0-.6.2-.6.6v8.2c-.2-.3-.5-.5-1-.5h-1.4c-.4,0-.6.2-.6.6v1.4c0,.4.2.6.6.6h1.6c.6,0,.8.3.8.8v8.8h0Z"/>
    <path class="cls-2" d="M287.4,200.2c.8,0,1.4-.2,1.8-.6s.7-.9.7-1.6v-7c0-.8-.4-1.1-1.1-1.1h-6c-1.1,0-1.9.3-2.5.9-.6.6-.9,1.4-.9,2.6s.2,1.8.6,2.6c.4.8,1,1.3,1.7,1.7h-1.6c-.4,0-.6.2-.6.6v1.3c0,.4.2.6.6.6h7.3ZM288.5,206.5c0-3-2.6-4.6-7.8-4.6s-7.8,1.5-7.8,4.6,2.6,4.6,7.8,4.6,7.8-1.5,7.8-4.6ZM284.7,197.7c-.8,0-1.4-.3-1.9-.8-.5-.6-.7-1.3-.7-2.2,0-1.5.7-2.2,2-2.2h2.4c.4,0,.6.2.6.6v3.9c0,.2,0,.4-.3.6-.2.1-.4.2-.7.2h-1.5,0ZM285.8,206.5c0,.3,0,.6-.3.9-.2.2-.5.5-.9.6-.4.2-.9.3-1.6.4-.6,0-1.4.1-2.4.1s-1.7,0-2.4-.1c-.6,0-1.2-.2-1.6-.4-.4-.2-.7-.4-.9-.6-.2-.2-.3-.5-.3-.9s0-.6.3-.9c.2-.2.5-.5.9-.6.4-.2.9-.3,1.6-.4.6,0,1.4-.1,2.4-.1s1.7,0,2.4.1c.6,0,1.2.2,1.6.4.4.2.7.4.9.6.2.2.3.5.3.9ZM273.3,200.2c0,.4.2.6.6.6h1.5c.4,0,.6-.2.6-.6v-10.1c0-.4-.2-.6-.6-.6h-1.5c-.4,0-.6.2-.6.6v10.1Z"/>
    <path class="cls-2" d="M258.3,206.3c-.4,0-.6,0-.6.5v1.4c0,.4.2.6.6.6.8.1,1.8.2,2.8.3h6.4c.9,0,1.8-.1,2.6-.3.4,0,.6-.3.6-.6v-1.4c0-.4-.2-.6-.6-.5-.8.1-1.7.2-2.6.3h-6.4c-1.1,0-2-.1-2.8-.3ZM269.7,196.6c0-1-.1-1.9-.4-2.7s-.6-1.5-1.1-2-1-1-1.7-1.3-1.4-.5-2.2-.5-1.6.2-2.2.5c-.7.3-1.2.7-1.7,1.3s-.8,1.2-1.1,2c-.2.8-.4,1.7-.4,2.7s.1,1.9.4,2.7c.3.8.6,1.5,1.1,2,.5.6,1,1,1.7,1.3s1.4.5,2.2.5,1.6-.2,2.2-.5c.7-.3,1.2-.7,1.7-1.3s.8-1.2,1.1-2,.4-1.7.4-2.7ZM264.3,200.6c-.8,0-1.5-.4-1.9-1.1-.5-.7-.7-1.7-.7-2.8s.2-2.1.7-2.8,1.1-1.1,1.9-1.1,1.5.4,1.9,1.1c.5.7.7,1.7.7,2.8s-.2,2.1-.7,2.8-1.1,1.1-1.9,1.1ZM253.4,210c0,.4.2.6.6.6h1.5c.4,0,.6-.2.6-.6v-20c0-.4-.2-.6-.6-.6h-1.5c-.4,0-.6.2-.6.6v20Z"/>
    <path class="cls-2" d="M232.7,190.2c-.4,0-.6.2-.6.6v1.2c0,.4.2.6.6.6h10.7c.4,0,.6-.2.6-.6v-1.2c0-.4-.2-.6-.6-.6h-4.4c.2-.1.4-.3.4-.6v-.6c0-.4-.2-.6-.6-.6h-1.6c-.4,0-.6.2-.6.6v.8c0,.3-.2.4-.5.4h-3.4,0ZM243.3,197.2c0-2.3-1.7-3.5-5.2-3.5s-5.2,1.2-5.2,3.5,1.7,3.5,5.2,3.5,5.2-1.2,5.2-3.5ZM239,210.8c.8,0,1.5-.2,2-.6.5-.4.7-1,.7-1.7l.3-5.8c0-.4-.2-.6-.6-.6h-1.5c-.4,0-.6.2-.6.6v1.1h-9.1v-1.1c-.1-.4-.3-.6-.7-.6h-1.5c-.4,0-.7.2-.6.6l.3,5.8c0,.7.3,1.3.7,1.7.5.4,1.1.6,2,.6h8.6ZM238.1,198.3c-.9,0-1.5,0-1.9-.3-.4-.2-.6-.5-.6-.9s.2-.7.6-.9c.4-.2,1-.3,1.9-.3s1.5,0,1.9.3c.4.2.6.5.6.9s-.2.7-.6.9c-.4.2-1,.3-1.9.3ZM239,207.4c0,.3-.1.6-.3.7-.2.1-.4.2-.8.2h-6.5c-.7,0-1.1-.3-1.1-.9v-1.2h8.7v1.2h0ZM227.3,199.9c0,.4.2.6.6.6h1.5c.4,0,.6-.2.6-.6v-9.9c0-.4-.2-.6-.6-.6h-1.5c-.4,0-.6.2-.6.6v3.8c-.2-.3-.5-.5-1-.5h-1.4c-.4,0-.6.2-.6.6v1.3c0,.4.2.6.6.6h1.6c.6,0,.8.3.8.8v3.3h0Z"/>
    <path class="cls-2" d="M215.8,193.2c0,.6,0,1.2-.3,1.8-.2.6-.4,1-.8,1.4-.3.4-.7.7-1.2.9s-.9.3-1.5.3-.6.2-.6.6v1.3c0,.4.2.6.6.6.6,0,1.2,0,1.8-.3.5-.2,1-.4,1.5-.8.4-.3.8-.7,1.1-1.1.3-.4.5-.9.7-1.3.2.5.4.9.7,1.3.3.4.7.8,1.1,1.1s.9.6,1.5.8,1.1.3,1.8.3.6-.2.6-.6v-1.3c0-.4-.2-.6-.6-.6s-1-.1-1.5-.3-.8-.5-1.2-.9c-.3-.4-.6-.9-.8-1.4-.2-.6-.3-1.1-.3-1.8v-2.6c0-.4-.2-.6-.6-.6h-1.5c-.4,0-.6.2-.6.6v2.6h0ZM221.1,206.5c0-3-2.6-4.6-7.8-4.6s-7.8,1.5-7.8,4.6,2.6,4.6,7.8,4.6,7.8-1.5,7.8-4.6h0ZM218.3,206.5c0,.3,0,.6-.3.9-.2.2-.5.5-.9.6-.4.2-.9.3-1.6.4-.6,0-1.4.1-2.4.1s-1.7,0-2.4-.1c-.6,0-1.2-.2-1.6-.4s-.7-.4-.9-.6c-.2-.2-.3-.5-.3-.9s0-.6.3-.9c.2-.2.5-.5.9-.6.4-.2.9-.3,1.6-.4.6,0,1.4-.1,2.4-.1s1.7,0,2.4.1c.6,0,1.2.2,1.6.4s.7.4.9.6c.2.2.3.5.3.9ZM208.7,190c0-.4-.2-.6-.6-.6h-1.5c-.4,0-.6.2-.6.6v10.1c0,.4.2.6.6.6h1.5c.4,0,.6-.2.6-.6v-5.4c.2.3.5.5,1,.5h2.5c.4,0,.6-.2.6-.6v-1.3c0-.4-.2-.6-.6-.6h-2.7c-.6,0-.8-.3-.8-.8v-1.9Z"/>
    <path class="cls-2" d="M192.2,199.3c0,3,.4,5.2,1.3,6.5.8,1.4,2.2,2.1,4,2.1s3.2-.7,4-2.1c.8-1.4,1.3-3.6,1.3-6.5s-.4-5.2-1.2-6.5c-.8-1.4-2.2-2.1-4-2.1s-3.2.7-4,2.1c-.8,1.4-1.3,3.6-1.3,6.5h0ZM197.5,193.3c.9,0,1.5.5,1.9,1.4s.6,2.4.6,4.6-.2,3.6-.6,4.6c-.4.9-1,1.4-1.9,1.4s-1.5-.5-1.9-1.4-.6-2.5-.6-4.6.2-3.6.6-4.6c.4-.9,1-1.4,1.9-1.4ZM188.7,190c0-.4-.2-.6-.6-.6h-1.5c-.4,0-.6.2-.6.6v20c0,.4.2.6.6.6h1.5c.4,0,.6-.2.6-.6v-10.2c.2.3.5.5,1,.5h1.1c.4,0,.6-.2.6-.6v-1.4c0-.4-.2-.6-.6-.6h-1.2c-.6,0-.8-.3-.8-.8v-6.9h-.1Z"/>
    <path class="cls-2" d="M181.9,208.4c.4,0,.6-.3.6-.6v-1.3c0-.4-.2-.6-.6-.6s-.9,0-1.5.1c-.6,0-1.2,0-1.9.1s-1.4,0-2.1.1h-2.1c.2,0,.3-.2.4-.4s.2-.4.2-.6v-2.5c1.1,0,2-.2,2.7-.3.7-.2,1.3-.4,1.8-.7.4-.3.8-.7.9-1.2.2-.5.3-1,.3-1.7s-.1-1.3-.3-1.8c-.2-.5-.6-.8-1.2-1.1-.5-.3-1.3-.5-2.2-.6s-2-.2-3.4-.2h-3c-1,0-1.6-.4-1.6-1.2s.1-.7.3-.8c.2-.2.6-.2,1.2-.2h4.8c.8,0,1.5,0,2.3.1.7,0,1.4.1,2,.2.4,0,.6-.1.6-.5v-1.4c0-.3-.2-.5-.5-.6-1-.1-2.2-.3-3.6-.3s-2.8-.1-4.2-.1h-2.9c-1.8,0-2.7.8-2.7,2.3s.2,1.2.5,1.7.8.8,1.3,1h-1.1c-.4,0-.5.2-.5.5v1.2c0,.4.2.6.5.6h8.6c.6,0,1,.1,1.3.2.3,0,.6.2.7.4s.2.4.2.6,0,.5-.2.6c-.2.2-.4.3-.9.4-.4,0-1,.2-1.7.2h-2.9c-1.2,0-1.9,0-2.9-.1-1,0-1.9-.2-2.8-.3-.3,0-.5.1-.6.5l-.2,1.4v.4c0,0,.2.2.4.2,1,.1,2,.3,3.1.3s2.1.1,2.9.1h0v2.7c0,.5-.3.7-.8.7h-3.3c-.5,0-1.1,0-1.6-.1-.5,0-1,0-1.4-.1-.4,0-.6.1-.6.6v1.3c0,.4.2.6.6.6s.9.1,1.5.2c.6,0,1.3,0,2,.1h5c3.8,0,6.6-.1,8.4-.4l.2.3Z"/>
    <path class="cls-2" d="M147,206.8c0,.2,0,.4.2.5,0,0,.2.1.5.1h1.4c.4,0,.6-.2.6-.6-.3-1.7-.5-3.6-.7-5.5s-.2-3.7-.2-5.5,0-.8,0-1.1.2-.5.3-.7c.2-.2.4-.3.6-.4.3,0,.6-.1,1-.1.8,0,1.5,0,2.2.1.7,0,1.3.2,1.9.3.2,0,.3,0,.5-.1.1-.1.2-.3.2-.5v-1.4c0-.4-.2-.6-.6-.6-.7-.1-1.4-.2-2.2-.3s-1.6-.1-2.3-.1-1.4,0-2,.2c-.5.2-1,.4-1.3.8-.3.4-.6.9-.7,1.5s-.2,1.3-.2,2.2v2.2h-2.2c-.3,0-.5,0-.6-.1-.1,0-.2-.3-.2-.5v-6.8c0-.4-.2-.6-.6-.6h-1.4c-.4,0-.6.2-.6.6v19.8c0,.4.2.6.6.6h1.4c.4,0,.6-.2.6-.6v-10.2c0,.1.2.2.3.3s.3.1.5.1h2.2c0,1.1.2,2.2.3,3.3.1,1.1.3,2.2.4,3.2h.1ZM136.4,210.1c0,.4.2.6.6.6h1.4c.4,0,.6-.2.6-.6v-20.1c0-.4-.2-.6-.6-.6h-1.4c-.4,0-.6.2-.6.6v20.1Z"/>
    <path class="cls-2" d="M122.5,199.3c0,3,.4,5.2,1.3,6.5.9,1.4,2.2,2.1,4.1,2.1s3.2-.7,4.1-2.1c.9-1.4,1.3-3.6,1.3-6.5s-.4-5.2-1.3-6.5c-.9-1.4-2.2-2.1-4.1-2.1s-3.2.7-4.1,2.1c-.9,1.4-1.3,3.6-1.3,6.5ZM127.9,193.3c.9,0,1.6.5,2,1.4s.6,2.4.6,4.6-.2,3.6-.6,4.6-1.1,1.4-2,1.4-1.6-.5-2-1.4-.6-2.5-.6-4.6.2-3.6.6-4.6c.4-.9,1.1-1.4,2-1.4ZM119.3,190c0-.4-.2-.6-.6-.6h-1.5c-.4,0-.6.2-.6.6v20c0,.4.2.6.6.6h1.5c.4,0,.6-.2.6-.6v-20Z"/>
    <path class="cls-2" d="M107.3,190.9c-.8,0-1.5.1-2.1.3s-1,.5-1.4,1-.6,1.1-.8,1.8c-.2.8-.2,1.7-.2,2.8,0,1.7.2,3.3.5,4.7.4,1.4.9,2.4,1.6,3.2h-1.4c-.4,0-.6.2-.6.6v1.4c0,.4.2.6.6.6h7.1c.8,0,1.4-.2,1.8-.6s.7-.9.7-1.6v-13.2c0-.8-.4-1.1-1.1-1.1h-4.7ZM108.1,204.8c-.4,0-.8-.1-1.1-.4-.3-.3-.6-.7-.8-1.2-.2-.5-.4-1.1-.5-1.9-.1-.7-.2-1.5-.2-2.5s0-1.8.1-2.5c0-.7.2-1.2.4-1.6s.4-.7.8-.9c.3-.2.7-.3,1.1-.3h1.8c.4,0,.6.2.6.6v9.9c0,.2,0,.4-.3.6-.2.1-.4.2-.7.2h-1.3.1ZM99.3,190c0-.4-.2-.6-.6-.6h-1.5c-.4,0-.6.2-.6.6v20c0,.4.2.6.6.6h1.5c.4,0,.6-.2.6-.6v-10.2c.2.3.5.5,1,.5h1.1c.4,0,.6-.2.6-.6v-1.4c0-.4-.2-.6-.6-.6h-1.2c-.6,0-.8-.3-.8-.8v-6.9h-.1Z"/>
    <path class="cls-2" d="M83.5,206.8c0,.4.3.6.7.6h1.5c.2,0,.4,0,.5-.2s.1-.3.1-.5c-.3-1.7-.6-3.5-.7-5.2s-.2-3.5-.2-5.2.2-1.7.6-2.1c.4-.4,1-.6,1.9-.6s1.7,0,2.4.1c.7,0,1.5.2,2.3.3.2,0,.3,0,.5-.1.1-.1.2-.3.2-.5v-1.4c0-.4-.2-.6-.6-.6-.9-.1-1.8-.2-2.7-.3-.9,0-1.7-.1-2.6-.1s-1.6,0-2.2.3-1.1.5-1.5.9-.7.9-.8,1.6c-.2.6-.3,1.4-.3,2.4,0,1.9,0,3.7.2,5.5.1,1.7.4,3.5.7,5.3v-.2ZM77.1,210c0,.4.2.6.6.6h1.5c.4,0,.6-.2.6-.6v-20c0-.4-.2-.6-.6-.6h-1.5c-.4,0-.6.2-.6.6v8.2c-.2-.3-.5-.5-1-.5h-1.4c-.4,0-.6.2-.6.6v1.4c0,.4.2.6.6.6h1.6c.6,0,.8.3.8.8v8.8h0Z"/>
  </g>
  <g>
    <path class="cls-2" d="M364.4,231.4c.6,0,1-.2,1.3-.5s.5-.8.5-1.4c0-1-.3-1.7-.9-2.3s-1.3-.8-2.2-.8-.2,0-.2.3v.5c0,.2,0,.3.2.3.5,0,.8.2,1,.6-.4,0-.8.2-1.1.6-.3.3-.4.7-.4,1.2s.2.9.5,1.3c.3.3.8.5,1.3.5v-.3Z"/>
    <path class="cls-2" d="M360.1,231.5c.4,0,.6-.2.6-.6v-1.4c0-.4-.2-.6-.6-.6h-10.7c-.4,0-.6.2-.6.6v1.4c0,.4.2.6.6.6h1.2l.4,11.1h-1.9c-.4,0-.6.2-.6.6v1.4c0,.2,0,.4,0,.4,0,0,.2.1.5.2.3,0,.6,0,1,.1h7.9c1,0,1.8-.1,2.4-.2.2,0,.4,0,.5-.2,0,0,0-.2,0-.4v-1.4c0-.4-.2-.6-.6-.6h-1.9l.4-11.1h1.2ZM355.7,242.8h-2l-.4-11.2h2.9l-.4,11.2h0ZM344,248c0,.4.2.6.6.6h1.5c.4,0,.6-.2.6-.6v-20c0-.4-.2-.6-.6-.6h-1.5c-.4,0-.6.2-.6.6v8.2c-.2-.3-.5-.5-1-.5h-1.4c-.4,0-.6.2-.6.6v1.4c0,.4.2.6.6.6h1.6c.6,0,.8.3.8.8v8.8h0Z"/>
    <path class="cls-2" d="M336.7,238.2c.8,0,1.4-.2,1.8-.6s.7-.9.7-1.6v-7c0-.8-.4-1.1-1.1-1.1h-6c-1.1,0-1.9.3-2.5.9-.6.6-.9,1.4-.9,2.6s.2,1.8.6,2.6c.4.8,1,1.3,1.7,1.7h-1.6c-.4,0-.6.2-.6.6v1.3c0,.4.2.6.6.6h7.3ZM337.8,244.5c0-3-2.6-4.6-7.8-4.6s-7.8,1.5-7.8,4.6,2.6,4.6,7.8,4.6,7.8-1.5,7.8-4.6ZM334,235.7c-.8,0-1.4-.3-1.9-.8-.5-.6-.7-1.3-.7-2.2,0-1.5.7-2.2,2-2.2h2.4c.4,0,.6.2.6.6v3.9c0,.2,0,.4-.3.6-.2.1-.4.2-.7.2h-1.5,0ZM335.1,244.5c0,.3,0,.6-.3.9-.2.2-.5.5-.9.6-.4.2-.9.3-1.6.4-.6,0-1.4.1-2.4.1s-1.7,0-2.4-.1c-.6,0-1.2-.2-1.6-.4-.4-.2-.7-.4-.9-.6-.2-.2-.3-.5-.3-.9s0-.6.3-.9c.2-.2.5-.5.9-.6.4-.2.9-.3,1.6-.4.6,0,1.4-.1,2.4-.1s1.7,0,2.4.1c.6,0,1.2.2,1.6.4.4.2.7.4.9.6.2.2.3.5.3.9ZM322.7,238.2c0,.4.2.6.6.6h1.5c.4,0,.6-.2.6-.6v-10.1c0-.4-.2-.6-.6-.6h-1.5c-.4,0-.6.2-.6.6v10.1Z"/>
    <path class="cls-2" d="M317.6,226.3c-.6,0-1,.2-1.3.5s-.5.8-.5,1.4c0,1,.3,1.7.9,2.3.6.6,1.3.8,2.2.8s.2,0,.2-.3v-.5c0-.2,0-.3-.2-.3-.5,0-.8-.2-1-.6.4,0,.8-.2,1.1-.6.3-.3.4-.7.4-1.2s-.2-.9-.5-1.3c-.3-.3-.8-.5-1.3-.5v.3Z"/>
    <path class="cls-2" d="M295.9,229.4c-.4,0-.6.2-.6.6v1.4c0,.4.2.6.6.6h10.7c.4,0,.6-.2.6-.6v-1.4c0-.4-.2-.6-.6-.6h-4.4c.2-.1.4-.3.4-.6v-1.3c0-.4-.2-.6-.6-.6h-1.6c-.4,0-.6.2-.6.6v1.5c0,.3-.2.4-.5.4h-3.4,0ZM296,239.5c0,1.9.5,3.3,1.4,4.4.9,1,2.2,1.5,3.9,1.5s2.9-.5,3.9-1.5c.9-1,1.4-2.5,1.4-4.4s-.5-3.3-1.4-4.4c-.9-1-2.2-1.5-3.9-1.5s-3,.5-3.9,1.5-1.4,2.5-1.4,4.4ZM301.3,236.2c.8,0,1.4.3,1.8.8.4.5.6,1.4.6,2.4s-.2,1.9-.7,2.5c-.4.6-1,.8-1.8.8s-1.4-.3-1.8-.8c-.4-.5-.7-1.4-.7-2.5s.2-1.9.7-2.4c.4-.5,1.1-.8,1.8-.8h0ZM290.5,248c0,.4.2.6.6.6h1.5c.4,0,.6-.2.6-.6v-20c0-.4-.2-.6-.6-.6h-1.5c-.4,0-.6.2-.6.6v8.2c-.2-.3-.5-.5-1-.5h-1.4c-.4,0-.6.2-.6.6v1.4c0,.4.2.6.6.6h1.6c.6,0,.8.3.8.8v8.8h0Z"/>
    <path class="cls-2" d="M279.8,228.9c-.8,0-1.5.1-2.1.3s-1,.5-1.4,1-.6,1.1-.8,1.8c-.2.8-.2,1.7-.2,2.8,0,1.7.2,3.3.6,4.7.4,1.4.9,2.4,1.6,3.2h-1.5c-.4,0-.6.2-.6.6v1.4c0,.4.2.6.6.6h7.1c.8,0,1.4-.2,1.8-.6s.7-.9.7-1.6v-13.2c0-.8-.4-1.1-1.1-1.1h-4.7ZM280.8,242.8c-.8,0-1.5-.5-1.9-1.6-.5-1.1-.7-2.5-.7-4.3s0-1.8.1-2.5c0-.7.2-1.2.4-1.6s.4-.7.8-.9c.3-.2.7-.3,1.1-.3h1.8c.4,0,.6.2.6.6v9.9c0,.2,0,.4-.3.6-.2.1-.4.2-.7.2h-1.2ZM271.9,228c0-.4-.2-.6-.6-.6h-1.5c-.4,0-.6.2-.6.6v20c0,.4.2.6.6.6h1.5c.4,0,.6-.2.6-.6v-6.6c.2.3.5.5,1,.5h1.1c.4,0,.6-.2.6-.6v-1.4c0-.4-.2-.6-.6-.6h-1.2c-.6,0-.8-.3-.8-.8v-4.5c.2.3.5.5,1,.5h1.1c.4,0,.6-.2.6-.6v-1.4c0-.4-.2-.6-.6-.6h-1.2c-.6,0-.8-.3-.8-.8v-3h-.2Z"/>
    <path class="cls-2" d="M248.5,237.3c0,3,.4,5.2,1.3,6.5.9,1.4,2.2,2.1,4.1,2.1s3.2-.7,4.1-2.1c.9-1.4,1.3-3.6,1.3-6.5s-.4-5.2-1.3-6.5c-.9-1.4-2.2-2.1-4.1-2.1s-3.2.7-4.1,2.1c-.9,1.4-1.3,3.6-1.3,6.5ZM253.9,231.3c.9,0,1.6.5,2,1.4s.6,2.4.6,4.6-.2,3.6-.6,4.6-1.1,1.4-2,1.4-1.6-.5-2-1.4-.6-2.5-.6-4.6.2-3.6.6-4.6c.4-.9,1.1-1.4,2-1.4ZM243,248c0,.4.2.6.6.6h1.5c.4,0,.6-.2.6-.6v-20c0-.4-.2-.6-.6-.6h-1.5c-.4,0-.6.2-.6.6v8.2c-.2-.3-.5-.5-1-.5h-1.4c-.4,0-.6.2-.6.6v1.4c0,.4.2.6.6.6h1.6c.6,0,.8.3.8.8v8.8h0Z"/>
    <path class="cls-2" d="M227.6,237.3c0,3,.4,5.2,1.3,6.5.9,1.4,2.2,2.1,4.1,2.1s3.2-.7,4.1-2.1c.9-1.4,1.3-3.6,1.3-6.5s-.4-5.2-1.3-6.5c-.9-1.4-2.2-2.1-4.1-2.1s-3.2.7-4.1,2.1c-.9,1.4-1.3,3.6-1.3,6.5ZM233,231.3c.9,0,1.6.5,2,1.4s.6,2.4.6,4.6-.2,3.6-.6,4.6-1.1,1.4-2,1.4-1.6-.5-2-1.4-.6-2.5-.6-4.6.2-3.6.6-4.6c.4-.9,1.1-1.4,2-1.4ZM224.4,228c0-.4-.2-.6-.6-.6h-1.5c-.4,0-.6.2-.6.6v20c0,.4.2.6.6.6h1.5c.4,0,.6-.2.6-.6v-20Z"/>
    <path class="cls-2" d="M209.1,238.2c.8.3,1.5.4,2.1.6.6.1,1.3.2,2,.2s1.8,0,2.5-.2c.7-.1,1.3-.4,1.7-.6.4-.3.8-.7,1-1.1.2-.5.3-1,.3-1.7s0-1.3-.3-1.8c-.2-.5-.5-.9-1-1.2s-1.1-.5-1.8-.6c-.8-.1-1.7-.2-2.8-.2h-1.1c-.3,0-.7,0-1.2.2-.2,0-.4.1-.5.2,0,.1-.1.3-.1.5v1.2c0,.4.2.6.7.6s.7-.1,1-.1h2.8c.5,0,.8,0,1.1.2.3,0,.5.2.6.4s.2.3.2.6c0,.5-.2.8-.7,1s-1.3.3-2.4.3-1.1,0-1.6-.1c-.5,0-1.1-.2-1.8-.4h-.4c-.2,0-.4.2-.5.5l-.3,1.2c-.1.4,0,.6.5.8v-.5ZM217.9,230.4c.4,0,.6-.2.6-.6v-1.2c0-.4-.2-.6-.6-.6h-8c-.4,0-.6.2-.6.6v1.2c0,.4.2.6.6.6h8ZM200,246.3c-.4,0-.6.2-.6.6v1.3c0,.4.2.6.6.6h13.1c.8,0,1.4-.2,1.8-.6.4-.4.7-.9.7-1.6v-5c0-.8-.4-1.1-1.1-1.1h-11.8c-.9,0-1.7.2-2.2.6-.5.4-.8,1.1-.8,1.9s.2,1.3.6,1.9c.4.6.8,1,1.4,1.3h-1.7ZM204.6,246.3c-.6,0-1.1-.2-1.5-.6-.4-.4-.6-.8-.6-1.4s.1-.8.4-1,.7-.3,1.2-.3h8.1c.4,0,.6.2.6.6v1.9c0,.2,0,.4-.3.6-.2.1-.4.2-.7.2h-7.2ZM207.3,232c-.3,0-.5,0-.6-.1-.1,0-.2-.3-.2-.5v-3.1c0-.4-.2-.6-.6-.6h-1.4c-.4,0-.6.2-.6.6v10c0,.4.2.6.6.6h1.4c.4,0,.6-.2.6-.6v-4c0,.1.2.2.3.3s.3.1.5.1h1.1c.4,0,.6-.2.6-.6v-1.4c0-.4-.2-.6-.6-.6h-1.2.1ZM199.8,238.2c0,.4.2.6.6.6h1.4c.4,0,.6-.2.6-.6v-10.2c0-.4-.2-.6-.6-.6h-1.4c-.4,0-.6.2-.6.6v10.2Z"/>
    <path class="cls-2" d="M178.9,235.9c-.4,0-.6.1-.6.5v1.2c0,.4.2.6.6.6s1,0,1.6.1h12.4c1.4,0,2.4,0,3.1-.2.4,0,.6-.2.6-.6v-1.2c0-.4-.2-.6-.6-.5h-13.4c-1.4,0-2.5,0-3.5-.2l-.2.3ZM179.7,248.6c.4,0,.9.1,1.5.2s1.1,0,1.7.1,1.2,0,1.7,0h1.5c1.7,0,3.2,0,4.3-.1,1.1,0,2-.2,2.6-.5.6-.2,1.1-.5,1.3-.9.2-.4.4-.9.4-1.5s-.1-1.1-.3-1.4c-.2-.4-.6-.7-1.2-.9s-1.3-.4-2.2-.5c-.9,0-2.1-.1-3.5-.1h-3.9c-.4,0-.8,0-.9-.2-.2,0-.3-.3-.3-.5s0-.5.3-.6c.2-.1.5-.2.9-.2h5c1,0,1.9,0,2.8.1.9,0,1.7,0,2.4.1.4,0,.5-.2.5-.6v-1.1c0-.4-.2-.5-.5-.6-.9,0-1.9-.1-3-.2h-9c-.8,0-1.4.2-1.7.5-.3.3-.5.7-.5,1.3s.1.9.4,1.3c.3.4.7.6,1.1.8h-.9c-.3,0-.5.2-.5.5v1c0,.4.2.6.5.5h9.5c.6,0,1,0,1.4.1.3,0,.5.1.6.3,0,.1.1.3.1.4s0,.4-.2.5-.4.2-.9.3h-8c-.6,0-1.1,0-1.7-.1-.6,0-1.1-.1-1.5-.2-.4,0-.5.1-.6.5v1.1c0,.4,0,.6.4.6h.4ZM194.7,231.4c0-.7-.1-1.2-.4-1.7s-.7-.9-1.3-1.2c-.6-.3-1.4-.5-2.3-.6-1-.1-2.1-.2-3.4-.2s-2.5,0-3.4.2c-1,.1-1.7.4-2.3.6-.6.3-1,.7-1.3,1.2s-.4,1-.4,1.7.1,1.2.4,1.7.7.9,1.3,1.2c.6.3,1.4.5,2.3.6,1,.1,2.1.2,3.4.2s2.5,0,3.4-.2c1-.1,1.7-.4,2.3-.6.6-.3,1-.7,1.3-1.2s.4-1,.4-1.7ZM191.9,231.4c0,.3,0,.5-.2.7s-.4.3-.8.5c-.4.1-.9.2-1.5.3h-4.6c-.6,0-1.1-.1-1.5-.3-.4-.1-.6-.3-.8-.5s-.2-.4-.2-.7,0-.5.2-.7.4-.3.8-.5c.4-.1.9-.2,1.5-.3h4.6c.6,0,1.1.1,1.5.3.4.1.6.3.8.5s.2.4.2.7Z"/>
    <path class="cls-2" d="M168.2,246.4c.4,0,.6-.3.6-.6v-1.3c0-.4-.2-.6-.6-.6s-.9,0-1.5.1c-.6,0-1.2,0-1.9.1s-1.4,0-2.1.1h-2.1c.2,0,.3-.2.4-.4s.2-.4.2-.6v-2.8h3.2c.8,0,1.4-.2,1.8-.6.4-.4.7-.9.7-1.6v-8.5c0-.8-.4-1.1-1.1-1.1h-9.5c-2.5,0-3.7,1.3-3.7,4s.2,2.2.7,3.1c.4.9,1,1.6,1.8,2h-2.2c-.4,0-.6.2-.6.6v1.3c0,.4.2.6.6.6h5.7v3c0,.5-.3.7-.8.7h-3.3c-.5,0-1.1,0-1.6-.1-.5,0-1,0-1.4-.1-.4,0-.6.1-.6.6v1.3c0,.4.2.6.6.6s.9.1,1.5.2c.6,0,1.3,0,2,.1h5c3.8,0,6.6-.1,8.4-.4l-.2.3ZM157.9,237.8c-.4,0-.7-.1-1-.3s-.6-.5-.9-.9c-.2-.4-.4-.8-.6-1.3s-.2-1-.2-1.5c0-.9.2-1.6.5-2,.4-.4.9-.6,1.7-.6h6.1c.4,0,.6.2.6.6v5.3c0,.2,0,.4-.3.6-.2.1-.4.2-.7.2h-5.2Z"/>
    <path class="cls-2" d="M147.3,243.8c-1.2.1-2.4.2-3.8.3-1.4,0-2.9.1-4.6.1h-4.8c-1.5,0-2.7-.2-3.6-.3-.4,0-.6.1-.6.6v1.3c0,.4.2.6.6.6s.9.1,1.5.2c.6,0,1.3,0,2,.1h5c3.8,0,6.6-.1,8.4-.4.4,0,.6-.3.6-.6v-1.3c0-.4-.2-.6-.6-.6h-.1ZM146.2,234.5c0-2-.7-3.5-2-4.5-1.3-1.1-3.1-1.6-5.5-1.6s-4.2.5-5.5,1.6-2,2.6-2,4.5.7,3.5,2,4.5c1.3,1.1,3.1,1.6,5.5,1.6s4.2-.5,5.5-1.6,1.9-2.6,1.9-4.5h.1ZM138.7,238.1c-1.6,0-2.7-.3-3.5-.9-.8-.6-1.2-1.5-1.2-2.6s.4-2,1.2-2.6c.8-.6,2-.9,3.6-.9s2.8.3,3.6.9c.8.6,1.2,1.5,1.2,2.6s-.4,2-1.2,2.6c-.8.6-2,.9-3.5.9h-.2Z"/>
    <path class="cls-2" d="M126.4,237.6h-13.3c-1.4,0-2.5,0-3.4-.2-.4,0-.6.1-.6.6v1.3c0,.4.2.6.6.6s1,0,1.6.1h12.3c1.4,0,2.4,0,3.1-.2.4,0,.6-.3.6-.6v-1.3c0-.4-.2-.6-.6-.6l-.3.3ZM125.1,248.8c.4,0,.6-.2.6-.6v-1.4c0-.4-.2-.6-.6-.6-.8,0-1.6,0-2.3-.3-.7-.2-1.3-.4-1.8-.8-.5-.3-.9-.7-1.2-1.1-.3-.4-.4-.9-.4-1.4v-.6c0-.4-.2-.6-.6-.6h-1.5c-.4,0-.6.2-.6.6v.6c0,.5-.1,1-.4,1.4s-.7.8-1.2,1.1-1.1.6-1.8.8c-.7.2-1.5.3-2.3.3s-.6.2-.6.6v1.4c0,.4.2.6.6.6.7,0,1.5,0,2.2-.2s1.4-.4,2.1-.7c.6-.3,1.2-.6,1.7-1.1.5-.4.9-.8,1.2-1.3.3.5.6.9,1.1,1.3.5.4,1.1.8,1.7,1.1s1.3.5,2.1.7c.7.2,1.5.2,2.2.2h-.2ZM111.8,230.7c.7,0,1.3,0,1.9-.1s1,0,1.5,0h4.9c.7,0,1.3.1,1.7.3.4.1.7.3.9.5.2.2.3.5.3.8s0,.6-.2.8c-.1.2-.4.4-.8.5s-.9.2-1.5.3h-2.4c-1,0-2,0-3.1-.1s-2.2-.2-3.3-.3c-.4,0-.6.1-.6.6v1.3c-.1.4,0,.6.5.6,1.3.2,2.5.3,3.5.3s1.9.1,2.6.1c1.5,0,2.7,0,3.7-.2s1.8-.4,2.5-.7c.6-.3,1.1-.8,1.4-1.3s.4-1.2.4-2-.1-1.4-.4-1.9-.8-1-1.4-1.3c-.7-.3-1.5-.6-2.6-.7-1.1-.1-2.4-.2-3.9-.2s-.7,0-1,0h-2.5c-.5,0-1.2,0-1.9.1-.4,0-.6.2-.6.6v1.3c0,.4.2.6.6.6h-.2Z"/>
  </g>
  <g>
    <path class="cls-2" d="M407.6,269.5c.4,0,.6-.2.6-.6v-1.4c0-.4-.2-.6-.6-.6h-9.8c-.4,0-.6.2-.6.6v1.4c0,.4.2.6.6.6h3.6v5.7c0,.7,0,1.4-.3,2-.2.6-.5,1.2-.8,1.7s-.7.9-1.2,1.2c-.4.3-.9.5-1.4.6-.4,0-.6.3-.6.6v1.4c0,.4.2.6.6.6.6,0,1.1-.2,1.7-.5.5-.3,1-.6,1.5-1,.4-.4.8-.8,1.2-1.3.3-.5.6-1,.7-1.6.2.6.4,1.1.7,1.6.3.5.7.9,1.2,1.3.4.4.9.7,1.5,1,.5.3,1.1.4,1.7.5.4,0,.6-.1.6-.6v-1.4c0-.4-.2-.6-.6-.6s-1-.3-1.4-.6c-.4-.3-.8-.7-1.2-1.2-.3-.5-.6-1.1-.8-1.7-.2-.6-.3-1.3-.3-2v-5.7h3.5,0ZM391.9,286c0,.4.2.6.6.6h1.5c.4,0,.6-.2.6-.6v-20c0-.4-.2-.6-.6-.6h-1.5c-.4,0-.6.2-.6.6v8.2c-.2-.3-.5-.5-1-.5h-1.4c-.4,0-.6.2-.6.6v1.4c0,.4.2.6.6.6h1.6c.6,0,.8.3.8.8v8.8h0Z"/>
    <path class="cls-2" d="M386.4,274.2h-12.2c-.2-.5-.3-1.1-.4-1.8,0-.6-.2-1.2-.2-1.6,0-.9.2-1.5.6-1.9s1.1-.6,2.1-.6h4.2c.7,0,1.3,0,2,.1s1.4.1,2.1.2c.4,0,.6-.1.6-.6v-1.3c0-.4-.2-.6-.6-.6-1.3-.1-2.7-.2-4.1-.3-1.4,0-2.9-.1-4.5-.1-3.4,0-5.2,1.4-5.2,4.3s0,1.5.2,2.2c0,.7.2,1.4.4,1.9h-1.7c-.4,0-.6.1-.6.6v1.3c0,.4.2.6.6.6s1,0,1.6.1h12.3c1.4,0,2.4,0,3.1-.2.4,0,.6-.3.6-.6v-1.3c0-.4-.2-.6-.6-.6l-.3.2ZM370.4,286.2c0,.4.3.6.7.6h1.4c.2,0,.4,0,.5-.2s.2-.3,0-.5v-2.8c0-.8.2-1.3.5-1.6.3-.3.8-.4,1.5-.4,3.2,0,6.4.1,9.7.4.4,0,.6-.2.6-.6v-1.3c0-.4-.2-.6-.6-.6-.8,0-1.6-.1-2.4-.2-.8,0-1.5,0-2.3-.1h-5.3c-1,0-1.6,0-2.1.2-.6.1-1.1.3-1.4.6-.4.3-.6.7-.8,1.2-.2.5-.2,1.1-.2,1.8,0,1.6,0,2.7,0,3.5h0Z"/>
    <path class="cls-2" d="M348.6,273.9c-.4,0-.6.1-.6.5v1.2c0,.4.2.6.6.6s1,0,1.6.1h12.4c1.4,0,2.4,0,3.1-.2.4,0,.6-.2.6-.6v-1.2c0-.4-.2-.6-.6-.5h-13.4c-1.4,0-2.5,0-3.5-.2l-.2.3ZM349.4,286.6c.4,0,.9.1,1.5.2s1.1,0,1.7.1,1.2,0,1.7,0h1.5c1.7,0,3.2,0,4.3-.1,1.1,0,2-.2,2.6-.5.6-.2,1.1-.5,1.3-.9.2-.4.4-.9.4-1.5s0-1.1-.3-1.4c-.2-.4-.6-.7-1.2-.9s-1.3-.4-2.2-.5c-.9,0-2.1-.1-3.5-.1h-3.9c-.4,0-.8,0-.9-.2-.2,0-.3-.3-.3-.5s0-.5.3-.6c.2-.1.5-.2.9-.2h5c1,0,1.9,0,2.8.1.9,0,1.7,0,2.4.1.4,0,.5-.2.5-.6v-1.1c0-.4-.2-.5-.5-.6-.9,0-1.9-.1-3-.2h-9c-.8,0-1.4.2-1.7.5-.3.3-.5.7-.5,1.3s0,.9.4,1.3.7.6,1.1.8h-.9c-.3,0-.5.2-.5.5v1c0,.4.2.6.5.5h9.5c.6,0,1,0,1.4.1.3,0,.5.1.6.3,0,.1,0,.3,0,.4s0,.4-.2.5-.4.2-.9.3h-8c-.6,0-1.1,0-1.7-.1-.6,0-1.1-.1-1.5-.2-.4,0-.5.1-.6.5v1.1c0,.4,0,.6.4.6h.4ZM364.4,269.4c0-.7,0-1.2-.4-1.7s-.7-.9-1.3-1.2c-.6-.3-1.4-.5-2.3-.6-1-.1-2.1-.2-3.4-.2s-2.5,0-3.4.2c-1,.1-1.7.4-2.3.6-.6.3-1,.7-1.3,1.2s-.4,1-.4,1.7,0,1.2.4,1.7.7.9,1.3,1.2c.6.3,1.4.5,2.3.6,1,.1,2.1.2,3.4.2s2.5,0,3.4-.2c1-.1,1.7-.4,2.3-.6.6-.3,1-.7,1.3-1.2s.4-1,.4-1.7ZM361.6,269.4c0,.3,0,.5-.2.7s-.4.3-.8.5c-.4.1-.9.2-1.5.3h-4.6c-.6,0-1.1-.1-1.5-.3-.4-.1-.6-.3-.8-.5s-.2-.4-.2-.7,0-.5.2-.7.4-.3.8-.5c.4-.1.9-.2,1.5-.3h4.6c.6,0,1.1.1,1.5.3.4.1.6.3.8.5s.2.4.2.7Z"/>
    <path class="cls-2" d="M327.3,280.8c.6,0,.8.2.8.7v3.6c0,.4.2.6.6.6h1.5c.4,0,.6-.2.6-.6v-3.3c0-.2,0-.5-.2-.6-.1-.2-.3-.3-.5-.4h4.2c.7,0,1.3,0,1.9-.1.6,0,1.1,0,1.6-.1.4,0,.6-.3.6-.7v-1.3c0-.4-.2-.6-.6-.6-1.2.1-2.4.2-3.8.3-1.4,0-2.9.1-4.6.1h-4.8c-1.5,0-2.7-.2-3.6-.3-.4,0-.6.1-.6.6v1.3c0,.4.2.6.6.7.4,0,.9,0,1.4.1.5,0,1,0,1.6.1h3.3,0ZM322.9,266.4c-.4,0-.6.2-.6.6v1.4c0,.4.2.6.6.6h5c0,.6-.2,1.2-.5,1.7s-.7,1-1.1,1.4c-.5.4-1,.7-1.7.9-.6.2-1.3.3-2.1.3s-.6.2-.6.6v1.5c0,.3,0,.5.3.5h.6c.7,0,1.4,0,2.1-.3.7-.2,1.3-.4,1.9-.8.6-.3,1.1-.8,1.5-1.2.4-.5.8-1,1.1-1.6.3.6.6,1.1,1.1,1.6.4.5,1,.9,1.5,1.2.6.3,1.2.6,1.9.8.7.2,1.4.3,2.1.3s.4,0,.6,0,.3-.2.3-.5v-1.5c0-.4-.2-.6-.6-.6-.8,0-1.4-.1-2.1-.3s-1.2-.5-1.7-.9-.9-.8-1.1-1.4c-.3-.5-.5-1.1-.5-1.7h5c.4,0,.6-.2.6-.6v-1.4c0-.4-.2-.6-.6-.6h-5.5c.3-.1.4-.4.4-.8v-.8c0-.4-.2-.6-.6-.6h-1.6c-.4,0-.6.2-.6.6v1.2c0,.3-.2.5-.5.5h-4.6Z"/>
    <path class="cls-2" d="M315.1,269c.4,0,.6-.1.6-.6v-1.5c0-.4-.2-.6-.6-.6-.7,0-1.3-.1-1.9-.2-.6,0-1.2,0-1.9-.1h-4.3c-1.8,0-3.2.5-4.2,1.5s-1.5,2.4-1.5,4.3v2.9c0,.8.2,1.6.3,2.4-.6,0-1.1,0-1.5-.1-.4,0-.6.1-.6.6v1.3c0,.4.2.6.6.7.4,0,.9,0,1.4.1.5,0,1,0,1.6.1h3.3c.5,0,.8.2.8.7v4.7c0,.4.2.6.6.6h1.5c.4,0,.6-.2.6-.6v-4.4c0-.2,0-.5-.2-.6-.1-.2-.3-.3-.5-.4h4.2c.7,0,1.3,0,1.9-.1.6,0,1.1,0,1.6-.1.4,0,.6-.3.6-.7v-1.3c0-.4-.2-.6-.6-.6-1.2.1-2.4.2-3.8.3-1.4,0-2.9.1-4.6.1h-4.2v-.3c-.3-1.3-.4-2.9-.4-4.6s.3-2.3.8-2.8c.5-.6,1.4-.8,2.7-.8h3.9c1.2,0,2.4.2,3.6.3l.2-.2Z"/>
    <path class="cls-2" d="M286.2,267.4c-.4,0-.6.2-.6.6v1.4c0,.4.2.6.6.6h10.7c.4,0,.6-.2.6-.6v-1.4c0-.4-.2-.6-.6-.6h-4.4c.2-.1.4-.3.4-.6v-1.3c0-.4-.2-.6-.6-.6h-1.6c-.4,0-.6.2-.6.6v1.5c0,.3-.2.4-.5.4h-3.4,0ZM286.3,277.5c0,1.9.5,3.3,1.4,4.4.9,1,2.2,1.5,3.9,1.5s2.9-.5,3.9-1.5c.9-1,1.4-2.5,1.4-4.4s-.5-3.3-1.4-4.4c-.9-1-2.2-1.5-3.9-1.5s-3,.5-3.9,1.5-1.4,2.5-1.4,4.4ZM291.6,274.2c.8,0,1.4.3,1.8.8.4.5.6,1.4.6,2.4s-.2,1.9-.7,2.5c-.4.6-1,.8-1.8.8s-1.4-.3-1.8-.8c-.4-.5-.7-1.4-.7-2.5s.2-1.9.7-2.4c.4-.5,1.1-.8,1.8-.8h0ZM280.8,286c0,.4.2.6.6.6h1.5c.4,0,.6-.2.6-.6v-20c0-.4-.2-.6-.6-.6h-1.5c-.4,0-.6.2-.6.6v8.2c-.2-.3-.5-.5-1-.5h-1.4c-.4,0-.6.2-.6.6v1.4c0,.4.2.6.6.6h1.6c.6,0,.8.3.8.8v8.8h0Z"/>
    <path class="cls-2" d="M270.1,266.9c-.8,0-1.5.1-2.1.3-.6.2-1,.5-1.4,1s-.6,1.1-.8,1.8c-.2.8-.2,1.7-.2,2.8,0,1.7.2,3.3.6,4.7.4,1.4.9,2.4,1.6,3.2h-1.5c-.4,0-.6.2-.6.6v1.4c0,.4.2.6.6.6h7.1c.8,0,1.4-.2,1.8-.6s.7-.9.7-1.6v-13.2c0-.8-.4-1.1-1.1-1.1h-4.7ZM271.1,280.8c-.8,0-1.5-.5-1.9-1.6-.5-1.1-.7-2.5-.7-4.3s0-1.8.1-2.5c0-.7.2-1.2.4-1.6s.4-.7.8-.9c.3-.2.7-.3,1.1-.3h1.8c.4,0,.6.2.6.6v9.9c0,.2,0,.4-.3.6-.2.1-.4.2-.7.2h-1.2ZM262.2,266c0-.4-.2-.6-.6-.6h-1.5c-.4,0-.6.2-.6.6v20c0,.4.2.6.6.6h1.5c.4,0,.6-.2.6-.6v-6.6c.2.3.5.5,1,.5h1.1c.4,0,.6-.2.6-.6v-1.4c0-.4-.2-.6-.6-.6h-1.2c-.6,0-.8-.3-.8-.8v-4.5c.2.3.5.5,1,.5h1.1c.4,0,.6-.2.6-.6v-1.4c0-.4-.2-.6-.6-.6h-1.2c-.6,0-.8-.3-.8-.8v-3h-.2Z"/>
    <path class="cls-2" d="M249.2,269.5c.4,0,.6-.2.6-.6v-1.4c0-.4-.2-.6-.6-.6h-8.7c-.4,0-.6.2-.6.6v1.4c0,.4.2.6.6.6h3v6.4c0,1.5-.3,2.6-.9,3.4-.6.8-1.3,1.3-2.3,1.4-.2,0-.4,0-.5.2,0,0-.1.2-.1.4v1.4c0,.4.2.6.6.6,1.1-.1,2-.5,2.8-1.1s1.4-1.4,1.7-2.5c.3,1,.9,1.8,1.7,2.5.8.6,1.7,1,2.8,1.1.4,0,.6-.2.6-.6v-1.4c0-.2,0-.4-.1-.4,0,0-.2-.1-.5-.2-.9-.1-1.7-.6-2.3-1.4s-.9-2-.9-3.4v-6.4h3.1ZM230.7,286.1c0,.4.2.6.6.6h1.4c.4,0,.6-.2.6-.6v-9.6h1.4c.3,0,.5,0,.6.1.1,0,.2.3.2.5v9c0,.4.2.6.6.6h1.4c.4,0,.6-.2.6-.6v-19.8c0-.4-.2-.6-.6-.6h-1.4c-.4,0-.6.2-.6.6v8c-.2-.3-.4-.4-.8-.4h-1.3v-7.8c0-.4-.2-.6-.6-.6h-1.4c-.4,0-.6.2-.6.6v20.1h0Z"/>
    <path class="cls-2" d="M221.3,266.9c-.8,0-1.5.1-2.1.3-.6.2-1,.5-1.4,1-.4.5-.6,1.1-.8,1.8-.2.8-.2,1.7-.2,2.8,0,1.7.2,3.3.6,4.7.4,1.4.9,2.4,1.6,3.2h-1.5c-.4,0-.6.2-.6.6v1.4c0,.4.2.6.6.6h7.3c.8,0,1.4-.2,1.8-.6s.7-.9.7-1.6v-13.2c0-.8-.4-1.1-1.1-1.1h-4.9ZM222.2,280.8c-.8,0-1.5-.5-1.9-1.6-.5-1.1-.7-2.5-.7-4.3s0-1.8.1-2.5c0-.7.2-1.2.4-1.6s.4-.7.8-.9c.3-.2.7-.3,1.1-.3h2c.4,0,.6.2.6.6v9.9c0,.2,0,.4-.3.6-.2.1-.4.2-.7.2h-1.4ZM213.6,266c0-.4-.2-.6-.6-.6h-1.5c-.4,0-.6.2-.6.6v20c0,.4.2.6.6.6h1.5c.4,0,.6-.2.6-.6v-20Z"/>
    <path class="cls-2" d="M189.8,274.9c-.4,0-.6.1-.6.5v1c0,.2,0,.3.1.4,0,0,.2.1.4.2.4,0,1,0,1.6.1h12.4c1.4,0,2.4,0,3.1-.2.3,0,.5-.2.5-.6v-1.1c0-.4-.2-.5-.6-.5h-13.6c-1.4,0-2.6,0-3.5-.2l.2.4ZM190.6,286.6c.4,0,.9,0,1.4.2.5,0,1.1.1,1.7.1h3.4c1.8,0,3.2,0,4.4-.1,1.1,0,2-.2,2.6-.4.6-.2,1.1-.5,1.3-.9.2-.4.3-.8.3-1.4s-.1-1-.3-1.4c-.2-.4-.6-.6-1.1-.9-.5-.2-1.3-.4-2.2-.4s-2.1-.1-3.6-.1h-3.9c-.4,0-.8,0-.9-.2-.2,0-.3-.2-.3-.5s0-.4.3-.5.5-.1.9-.1h8c.9,0,1.7,0,2.3.1.3,0,.5-.2.5-.5v-1c0-.2,0-.3-.1-.4,0,0-.2-.1-.4-.1-.9,0-1.9,0-2.9-.1s-2.1,0-3.2-.1h-5.8c-.8,0-1.4.2-1.7.4-.3.2-.5.6-.5,1.2s.1.9.4,1.2c.3.3.7.6,1.1.8h-.9c-.3,0-.5.1-.5.3v1.1c0,.4.2.6.5.5h10.9c.3,0,.5.1.6.2s.1.2.1.4,0,.3-.2.4c-.1,0-.4.2-.8.2s-1,0-1.8.1h-6.3c-.6,0-1.1,0-1.7-.1-.5,0-1-.1-1.5-.2-.4,0-.5.1-.6.5v1.4s.2.1.4.2h.1ZM191.6,270.9h10.4c.3,0,.5.1.6.2,0,0,.1.2.1.3s0,.3-.2.3-.4.2-.7.2h-7.7c-.5,0-1,0-1.6-.1-.5,0-1,0-1.4-.1-.3,0-.5,0-.5.4v1.4s.2.1.4.2c.4,0,.9,0,1.4.1.5,0,1,0,1.6.1s1.1,0,1.6,0h5.7c1.1,0,1.9-.2,2.5-.4s1-.5,1.2-.8.3-.8.3-1.3-.1-.9-.3-1.3c-.2-.3-.6-.6-1.1-.8-.5-.2-1.2-.3-2.1-.4-.9,0-2-.1-3.3-.1h-3.6c-.4,0-.8,0-.9-.1-.2,0-.3-.2-.3-.5s0-.3.3-.4c.2,0,.5-.1.9-.1h10.1c.1,0,0-.2,0-.4v-1.4c0-.1-.2-.1-.4-.1-.9,0-1.8,0-2.8-.1h-8.4c-.8,0-1.4.1-1.7.3-.3.2-.5.5-.5,1.1s.1.8.4,1.1c.3.3.7.6,1.1.7h-.9c-.3,0-.4.1-.4.4v1c0,.3.1.4.4.4l-.2.2Z"/>
    <path class="cls-2" d="M179.1,281.8c-1.2.1-2.4.2-3.8.3-1.4,0-2.9.1-4.6.1h-4.8c-1.5,0-2.7-.2-3.6-.3-.4,0-.6.1-.6.6v1.3c0,.4.2.6.6.6s.9.1,1.5.2c.6,0,1.3,0,2,.1h5c3.8,0,6.6-.1,8.4-.4.4,0,.6-.3.6-.6v-1.3c0-.4-.2-.6-.6-.6h-.1ZM177.6,267.3c0-.4-.3-.6-.7-.6h-1.5c-.4,0-.6.2-.6.6,0,.9,0,1.8.1,2.8v3.1c0,1.7-1,2.6-3,2.6s-3.1,0-4.5-.1c-1.4,0-2.7-.2-3.9-.3-.4,0-.6.1-.6.6v1.4c-.1.4,0,.6.5.6,1.2.2,2.6.3,4,.3h4.4c3.9,0,5.8-1.8,5.8-5.3s0-1,0-1.5v-4.4.2Z"/>
    <path class="cls-2" d="M153.9,282.8c0,.4.3.6.7.6h1.5c.2,0,.4,0,.5-.2.1-.1.2-.3.1-.5-.3-2.1-.5-4.1-.6-6.2s-.2-3.9-.2-5.6.3-1.4,1-1.4,1.1.2,2,.5h.4c.1-.1.2-.3.2-.5v-1.3c0-.3-.2-.6-.6-.7s-.8-.3-1.3-.3-.9-.1-1.2-.1c-1.1,0-2,.3-2.5.9,0-.2-.2-.3-.5-.4s-.6-.2-1-.3c-.4,0-.7-.1-1.1-.2h-.7c-2.2,0-3.4,1.3-3.4,3.8v2.9c0,.9,0,1.9.2,2.9,0,1,.2,2,.3,3,.1,1,.2,2.2.4,3.4,0,.4.3.6.7.6h1.5c.2,0,.4,0,.5-.2s.2-.3.1-.5c-.3-2.1-.5-4.1-.7-6.2s-.2-3.9-.2-5.6.4-1.4,1.1-1.4,1.3.1,2.1.4v3.7c0,.9,0,1.9.2,2.9,0,1,.2,2,.3,3s.2,2.2.4,3.4l-.2-.4ZM145,266c0-.4-.2-.6-.6-.6h-1.5c-.4,0-.6.2-.6.6v20c0,.4.2.6.6.6h1.5c.4,0,.6-.2.6-.6v-20Z"/>
    <path class="cls-2" d="M138.1,276.1h-13.3c-1.4,0-2.5,0-3.4-.2-.4,0-.6.1-.6.6v1.3c0,.4.2.6.6.6s1,0,1.6.1h12.3c1.4,0,2.4,0,3.1-.2.4,0,.6-.3.6-.6v-1.3c0-.4-.2-.6-.6-.6l-.3.3ZM136.9,280.9c0-.4-.3-.6-.7-.6h-1.5c-.2,0-.4,0-.5.2-.1.1-.1.3-.1.5,0,.3,0,.5.1.8v.9c0,1.3-.8,1.9-2.3,1.9h-5.4c-.8,0-1.5,0-2.2-.1s-1.4-.1-2.1-.2c-.4,0-.6.1-.6.6v1.3c-.1.4,0,.6.5.6,1.2.1,2.6.2,4.3.3,1.7,0,3.5.1,5.5.1s2.9-.4,3.8-1.1c.9-.8,1.3-1.8,1.3-3.2s0-.7,0-1,0-.6-.1-.8v-.2ZM136.6,266.5c0-.4-.3-.6-.7-.6h-1.5c-.2,0-.4,0-.5.2,0,.1-.1.3-.1.5v3.7c0,1.3-.8,1.9-2.3,1.9h-4.9c-.7,0-1.4,0-2.1-.1-.7,0-1.4-.1-2.1-.2-.4,0-.6.1-.6.6v1.3c-.1.4,0,.6.5.6,1.2.1,2.6.2,4.2.3s3.3.1,5.2.1,2.8-.4,3.6-1.1,1.2-1.8,1.2-3.2,0-.5,0-.9v-3h0Z"/>
    <path class="cls-2" d="M100.7,266.2c-.4,0-.6.2-.6.6v1.3c0,.4.2.6.6.6h10.6c.4,0,.6-.2.6-.6v-1.3c0-.4-.2-.6-.6-.6h-4.4c.2-.1.4-.3.4-.6v-.6c0-.4-.2-.6-.6-.6h-1.6c-.4,0-.6.2-.6.6v.8c0,.3-.2.4-.5.4h-3.3ZM111.2,273.9c0-2.6-1.7-4-5.2-4s-5.2,1.3-5.2,4,1.7,4,5.2,4,5.2-1.3,5.2-4ZM109.2,280.4c0-.4-.3-.6-.7-.6h-1.4c-.2,0-.4,0-.5.2s-.2.3-.1.5v1.9c0,.7-.2,1.3-.6,1.6-.4.4-1,.6-1.8.6h-5.3c-.7,0-1.4,0-2.1-.1-.7,0-1.4-.1-2.1-.2-.4,0-.6.1-.6.6v1.3c-.1.4,0,.6.5.6,1.2.1,2.6.2,4.1.3,1.6,0,3.3.1,5.3.1s3-.4,3.9-1.2c.9-.8,1.4-1.9,1.4-3.3s0-1.6-.1-2.2h.1ZM106,275.5c-.9,0-1.5-.1-1.9-.4-.4-.2-.6-.6-.6-1.1s.2-.9.6-1.1,1-.4,1.9-.4,1.5.1,1.9.4c.4.2.6.6.6,1.1s-.2.9-.6,1.1-1,.4-1.9.4ZM94.7,279.5c0,.4.2.6.6.6h1.5c.4,0,.6-.2.6-.6v-3.7c.2.3.5.5,1,.5h.7c.4,0,.6-.2.6-.6v-1.3c0-.4-.2-.6-.6-.6h-1.1c-.2,0-.4,0-.5-.2,0-.1-.1-.3-.1-.5v-2.1c.2.3.5.5,1,.5h.7c.4,0,.6-.2.6-.6v-1.3c0-.4-.2-.6-.6-.6h-1.1c-.2,0-.4,0-.5-.2,0-.1-.1-.3-.1-.5v-2.2c0-.4-.2-.6-.6-.6h-1.5c-.4,0-.6.2-.6.6v13.5h0Z"/>
    <path class="cls-2" d="M84.6,269.2c0,.6,0,1.2-.3,1.8-.2.6-.4,1-.8,1.4-.3.4-.7.7-1.2.9s-.9.3-1.5.3-.6.2-.6.6v1.3c0,.4.2.6.6.6.6,0,1.2,0,1.8-.3.5-.2,1-.4,1.5-.8.4-.3.8-.7,1.1-1.1.3-.4.5-.9.7-1.3.2.5.4.9.7,1.3.3.4.7.8,1.1,1.1.4.3.9.6,1.5.8s1.1.3,1.8.3.6-.2.6-.6v-1.3c0-.4-.2-.6-.6-.6s-1-.1-1.5-.3-.8-.5-1.2-.9c-.3-.4-.6-.9-.8-1.4-.2-.6-.3-1.1-.3-1.8v-2.6c0-.4-.2-.6-.6-.6h-1.5c-.4,0-.6.2-.6.6v2.6h0ZM89.9,282.5c0-3-2.5-4.6-7.6-4.6s-7.6,1.5-7.6,4.6,2.5,4.6,7.6,4.6,7.6-1.5,7.6-4.6ZM87.2,282.5c0,.3,0,.6-.2.9-.2.2-.4.5-.8.6-.4.2-.9.3-1.5.4-.6,0-1.4.1-2.3.1s-1.7,0-2.3-.1c-.6,0-1.1-.2-1.5-.4-.4-.2-.6-.4-.8-.6-.2-.2-.2-.5-.2-.9s0-.6.2-.9.4-.5.8-.6c.4-.2.9-.3,1.5-.4.6,0,1.4-.1,2.3-.1s1.7,0,2.3.1c.6,0,1.1.2,1.5.4.4.2.6.4.8.6.2.2.2.5.2.9ZM75.2,276.2c0,.4.2.6.6.6h1.5c.4,0,.6-.2.6-.6v-10.1c0-.4-.2-.6-.6-.6h-1.5c-.4,0-.6.2-.6.6v3.9c-.2-.3-.5-.5-1-.5h-1.4c-.4,0-.6.2-.6.6v1.3c0,.4.2.6.6.6h1.6c.6,0,.8.3.8.8v3.4h0Z"/>
    <path class="cls-2" d="M70.3,285.5c0-.5-.2-1-.5-1.3s-.8-.5-1.3-.5-1,.2-1.3.5-.5.7-.5,1.3.2.9.5,1.2.8.5,1.3.5,1-.2,1.3-.5.5-.7.5-1.2Z"/>
  </g>
</svg>