<?xml version="1.0" encoding="UTF-8"?>
<svg id="_레이어_1" data-name=" 레이어 1" xmlns="http://www.w3.org/2000/svg" xmlns:xlink="http://www.w3.org/1999/xlink" version="1.1" viewBox="0 0 1920 550">
  <defs>
    <style>
      .cls-1 {
        fill: #d6d6d6;
      }

      .cls-1, .cls-2, .cls-3, .cls-4, .cls-5, .cls-6, .cls-7, .cls-8, .cls-9, .cls-10, .cls-11, .cls-12, .cls-13, .cls-14, .cls-15, .cls-16, .cls-17, .cls-18, .cls-19, .cls-20, .cls-21, .cls-22, .cls-23 {
        stroke-width: 0px;
      }

      .cls-2 {
        fill: #ada6a3;
      }

      .cls-3 {
        fill: #545454;
      }

      .cls-24 {
        clip-path: url(#clippath);
      }

      .cls-4 {
        fill: none;
      }

      .cls-5 {
        fill: #f7e0c4;
      }

      .cls-6 {
        fill: #c2bfbd;
      }

      .cls-7 {
        fill: #e0c2b2;
      }

      .cls-25 {
        clip-path: url(#clippath-1);
      }

      .cls-26 {
        clip-path: url(#clippath-4);
      }

      .cls-27 {
        clip-path: url(#clippath-3);
      }

      .cls-28 {
        clip-path: url(#clippath-2);
      }

      .cls-29 {
        clip-path: url(#clippath-7);
      }

      .cls-30 {
        clip-path: url(#clippath-8);
      }

      .cls-31 {
        clip-path: url(#clippath-6);
      }

      .cls-32 {
        clip-path: url(#clippath-5);
      }

      .cls-33 {
        clip-path: url(#clippath-9);
      }

      .cls-8 {
        fill: #ccc4c2;
      }

      .cls-9 {
        fill: #f0bfc9;
      }

      .cls-10 {
        fill: #ccb5bf;
      }

      .cls-34 {
        clip-path: url(#clippath-10);
      }

      .cls-35 {
        clip-path: url(#clippath-11);
      }

      .cls-11 {
        fill: #e3b0b2;
      }

      .cls-12 {
        fill: #3d2117;
      }

      .cls-13 {
        fill: #c9c7e8;
      }

      .cls-14 {
        fill: #faccc7;
      }

      .cls-15 {
        fill: #f0d1d1;
      }

      .cls-16 {
        fill: #db9ca8;
      }

      .cls-17 {
        fill: #fd8664;
      }

      .cls-18 {
        fill: #45424d;
      }

      .cls-19 {
        fill: #b2b8c4;
      }

      .cls-20 {
        fill: #ffd9d4;
      }

      .cls-21 {
        fill: #94878c;
      }

      .cls-22 {
        fill: #828282;
      }

      .cls-23 {
        fill: #fff;
      }
    </style>
    <clipPath id="clippath">
      <rect class="cls-4" width="1920" height="550"/>
    </clipPath>
    <clipPath id="clippath-1">
      <rect class="cls-4" width="1920" height="550"/>
    </clipPath>
    <clipPath id="clippath-2">
      <rect class="cls-4" width="1920" height="550"/>
    </clipPath>
    <clipPath id="clippath-3">
      <rect class="cls-4" width="1920" height="550"/>
    </clipPath>
    <clipPath id="clippath-4">
      <rect class="cls-4" width="1920" height="550"/>
    </clipPath>
    <clipPath id="clippath-5">
      <rect class="cls-4" width="1920" height="550"/>
    </clipPath>
    <clipPath id="clippath-6">
      <rect class="cls-4" width="1920" height="550"/>
    </clipPath>
    <clipPath id="clippath-7">
      <rect class="cls-4" width="1920" height="550"/>
    </clipPath>
    <clipPath id="clippath-8">
      <rect class="cls-4" width="1920" height="550"/>
    </clipPath>
    <clipPath id="clippath-9">
      <rect class="cls-4" width="1920" height="550"/>
    </clipPath>
    <clipPath id="clippath-10">
      <rect class="cls-4" width="1920" height="550"/>
    </clipPath>
    <clipPath id="clippath-11">
      <rect class="cls-4" width="1920" height="550"/>
    </clipPath>
  </defs>
  <rect class="cls-17" width="1920" height="550"/>
  <g class="cls-24">
    <g>
      <path class="cls-15" d="M1145.5,65.6c-70.8.5-133.6,34.5-173.5,86.9-39.9-52.4-102.7-86.4-173.5-86.9-128.3-1-228.2,109.8-221.5,237.9,2.5,47,20.6,88.7,41.8,122.1,26.7,42.2,63,77.4,105,104.5,53.9,34.7,164.6,105.7,217.6,138.3,9.4,5.8,20,8.7,30.6,8.9,10.6-.2,21.2-3.1,30.6-8.9,68.2-42.1,166-105,217.6-138.3,42-27.1,78.3-62.3,105-104.5,21.2-33.4,39.3-75.1,41.8-122.1,6.7-128.1-93.2-238.9-221.5-237.9"/>
      <path class="cls-23" d="M928.1,207h9.3c0-.1,0,0,0,0h6.3c.8,0,1.5-.7,1.5-1.5h0c0-2.4-2.1-4.3-4.5-4.1-.7,0-1.3.3-1.9.7-.2-3.8-3.3-6.8-7.1-6.8s-.8,0-1.1.1v-.6c0-3.9-3.2-7.1-7.1-7.1h0c-.8,0-1.4-.5-1.6-1.2-1-3.8-4.7-6.5-9-6-3.6.5-6.5,3.4-6.9,7.1-.2,2.1.3,4,1.4,5.5-2.3.5-4,2.6-4,5v.2c-1.5-.8-3.2-1.3-5-1.3-3.7,0-7,1.9-9,4.8-.9,1.4-2.4,2.3-4,2.6l-13.5,2.5h56.2,0Z"/>
      <path class="cls-23" d="M838.1,118.7h-10c0,0,0,0,0,0h-6.8c-.9,0-1.6-.7-1.7-1.6h0c0-2.6,2.2-4.6,4.8-4.4.7,0,1.4.3,2,.7.2-4.1,3.5-7.3,7.6-7.3s.8,0,1.2,0v-.7c0-4.2,3.4-7.6,7.6-7.6h0c.8,0,1.5-.5,1.7-1.3,1.1-4.1,5.1-7,9.6-6.4,3.9.5,7,3.7,7.5,7.6.3,2.2-.3,4.3-1.5,5.9,2.4.6,4.2,2.8,4.2,5.4v.2c1.6-.9,3.5-1.4,5.4-1.4,4,0,7.6,2,9.6,5.1,1,1.5,2.6,2.5,4.3,2.8l14.5,2.6h-60.3l.3.3Z"/>
      <path class="cls-23" d="M1307,174.1c-4.1-1.2-7.7-3.7-10-7.2-5.3-7.9-14.2-13.1-24.4-13.1s-9.4,1.2-13.4,3.2c-2.5-3.6-6.2-6.3-10.8-7.3-2.4-.5-4.8-.5-7-.1-1-1.5-2.6-2.6-4.5-3-4-.9-8,1.7-8.9,5.7-.5,2.1,0,4.3,1.2,5.9-.3.5-.5.9-.7,1.4-1-.4-2.1-.8-3.2-1.1-9.2-2-18.3,3.5-20.9,12.5-.4-.1-.8-.2-1.2-.3-9.1-2-18.2,2.2-22.8,9.7h148.3l-21.6-6.3h0Z"/>
      <path class="cls-23" d="M685.9,191.8c-2.7-4-7.3-6.7-12.5-6.7s-4.9.6-7.1,1.8v-.3c0-3.4-2.4-6.2-5.5-7,1.5-2.2,2.2-4.8,1.9-7.7-.6-5.1-4.6-9.2-9.7-9.9-5.9-.8-11.1,3-12.5,8.3-.3,1-1.2,1.7-2.3,1.7h0c-5.5,0-9.9,4.4-9.9,9.9s0,.6,0,.9c-.5,0-1-.1-1.6-.1-5.3,0-9.7,4.2-9.9,9.5-.8-.5-1.7-.9-2.6-1-3.4-.3-6.3,2.3-6.3,5.7h0c0,1.2,1,2.1,2.1,2.1h8.9c0-.1,0,0,0,0h91.2l-18.9-3.4c-2.3-.4-4.3-1.7-5.6-3.7"/>
      <path class="cls-11" d="M749.6,240.8v-.8h-20.4c-.2,0-.4,0-.6.2-.2.2-.2.4-.2.6v24.5c0,.2,0,.4.2.6s.4.2.6.2h20.4c.2,0,.4,0,.6-.2.2-.2.2-.4.2-.6v-24.5c0-.2,0-.4-.2-.6-.2-.2-.4-.2-.6-.2v.8h-.8v23.6h-18.7v-22.8h19.6v-.8h-.8.8,0Z"/>
      <path class="cls-11" d="M758.2,240.8h-.8v24.5c0,.2,0,.4.2.6s.4.2.6.2h20.4c.2,0,.4,0,.6-.2.2-.2.2-.4.2-.6v-24.5c0-.2,0-.4-.2-.6-.2-.2-.4-.2-.6-.2h-20.4c-.2,0-.4,0-.6.2-.2.2-.2.4-.2.6h.8v.8h19.6v22.8h-18.7v-23.6h-.8v.8-.8h0Z"/>
      <path class="cls-11" d="M837.2,276.7v-.8h-8.9c-.2,0-.4,0-.6.2-.2.2-.2.4-.2.6v10.7c0,.2,0,.4.2.6s.4.2.6.2h8.9c.2,0,.4,0,.6-.2.2-.2.2-.4.2-.6v-10.7c0-.2,0-.4-.2-.6s-.4-.2-.6-.2v.8h-.8v9.9h-7.3v-9h8.1v-.8h-.8.8Z"/>
      <path class="cls-11" d="M840.9,276.7h-.8v10.7c0,.2,0,.4.2.6s.4.2.6.2h8.9c.2,0,.4,0,.6-.2.2-.2.2-.4.2-.6v-10.7c0-.2,0-.4-.2-.6s-.4-.2-.6-.2h-8.9c-.2,0-.4,0-.6.2-.2.2-.2.4-.2.6h.8v.8h8.1v9h-7.3v-9.9h-.8v.8-.8h0Z"/>
      <path class="cls-11" d="M837.1,291.4v-.8h-8.9c-.2,0-.4,0-.6.2-.2.2-.2.4-.2.6v10.7c0,.2,0,.4.2.6s.4.2.6.2h8.9c.2,0,.4,0,.6-.2.2-.2.2-.4.2-.6v-10.7c0-.2,0-.4-.2-.6s-.4-.2-.6-.2v.8h-.8v9.9h-7.3v-9h8.1v-.8h-.8.8Z"/>
      <path class="cls-11" d="M840.9,291.4h-.8v10.7c0,.2,0,.4.2.6s.4.2.6.2h8.9c.2,0,.4,0,.6-.2.2-.2.2-.4.2-.6v-10.7c0-.2,0-.4-.2-.6s-.4-.2-.6-.2h-8.9c-.2,0-.4,0-.6.2-.2.2-.2.4-.2.6h.8v.8h8.1v9h-7.3v-9.9h-.8v.8-.8h0Z"/>
      <path class="cls-11" d="M836.7,306.6v-.8h-8.9c-.2,0-.4,0-.6.2-.2.2-.2.4-.2.6v10.7c0,.2,0,.4.2.6s.4.2.6.2h8.9c.2,0,.4,0,.6-.2.2-.2.2-.4.2-.6v-10.7c0-.2,0-.4-.2-.6s-.4-.2-.6-.2v.8h-.8v9.9h-7.3v-9h8.1v-.8h-.8.8Z"/>
      <path class="cls-11" d="M840.4,306.6h-.8v10.7c0,.2,0,.4.2.6s.4.2.6.2h8.9c.2,0,.4,0,.6-.2.2-.2.2-.4.2-.6v-10.7c0-.2,0-.4-.2-.6s-.4-.2-.6-.2h-8.9c-.2,0-.4,0-.6.2-.2.2-.2.4-.2.6h.8v.8h8.1v9h-7.3v-9.9h-.8v.8-.8h0Z"/>
      <path class="cls-11" d="M868.4,276.5v-.8h-8.9c-.2,0-.4,0-.6.2-.2.2-.2.4-.2.6v10.7c0,.2,0,.4.2.6s.4.2.6.2h8.9c.2,0,.4,0,.6-.2.2-.2.2-.4.2-.6v-10.7c0-.2,0-.4-.2-.6s-.4-.2-.6-.2v.8h-.8v9.9h-7.3v-9h8.1v-.8h-.8.8Z"/>
      <path class="cls-11" d="M872.1,276.5h-.8v10.7c0,.2,0,.4.2.6s.4.2.6.2h8.9c.2,0,.4,0,.6-.2.2-.2.2-.4.2-.6v-10.7c0-.2,0-.4-.2-.6s-.4-.2-.6-.2h-8.9c-.2,0-.4,0-.6.2-.2.2-.2.4-.2.6h.8v.8h8.1v9h-7.3v-9.9h-.8v.8-.8h0Z"/>
      <path class="cls-11" d="M868.3,291.1v-.8h-8.9c-.2,0-.4,0-.6.2-.2.2-.2.4-.2.6v10.7c0,.2,0,.4.2.6s.4.2.6.2h8.9c.2,0,.4,0,.6-.2.2-.2.2-.4.2-.6v-10.7c0-.2,0-.4-.2-.6s-.4-.2-.6-.2v.8h-.8v9.9h-7.3v-9h8.1v-.8h-.8.8Z"/>
      <path class="cls-11" d="M872.1,291.1h-.8v10.7c0,.2,0,.4.2.6s.4.2.6.2h8.9c.2,0,.4,0,.6-.2.2-.2.2-.4.2-.6v-10.7c0-.2,0-.4-.2-.6s-.4-.2-.6-.2h-8.9c-.2,0-.4,0-.6.2-.2.2-.2.4-.2.6h.8v.8h8.1v9h-7.3v-9.9h-.8v.8-.8h0Z"/>
      <path class="cls-11" d="M959.5,326.7v-.8h-68.5v-46.4h67.7v47.2h.8v-.8.8h.8v-48c0-.2,0-.4-.2-.6s-.4-.2-.6-.2h-69.3c-.2,0-.4,0-.6.2-.2.2-.2.4-.2.6v48c0,.2,0,.4.2.6s.4.2.6.2h69.3c.2,0,.4,0,.6-.2.2-.2.2-.4.2-.6h-.8Z"/>
      <path class="cls-11" d="M930.4,278.7v-4c0-.3,0-.5-.4-.7l-27.5-18.1h0l-28.8-18.5c-.3-.2-.6-.2-.9,0l-28.5,18.2h0l-28.1,18.4c-.2.2-.4.4-.4.7v52c0,.2,0,.4.2.6s.4.2.6.2h112.9c.5,0,.8-.4.8-.8s-.4-.8-.8-.8h-112.1v-50.7l27.7-18.2-.5-.7.4.7,28.1-17.9,28.4,18.2.4-.7-.5.7,27.1,17.9v3.5c0,.5.4.8.8.8s.8-.4.8-.8h.3Z"/>
      <path class="cls-11" d="M935,272.1l.5-.7-28.8-19.9h0l-32.3-21.9c-.4-.3-1-.4-1.5-.4s-1,.1-1.5.4l-32.2,22-29.6,20.2c-.2.2-.4.4-.5.6s0,.5,0,.7c0,.5.2,1,.4,1.5.4.7.9,1.4,1.5,1.9.3.3.6.5,1,.7.3.2.7.3,1.1.3s.3,0,.5-.1l59.6-38.7,58.4,38.1c0,0,.3.1.5.1.6,0,1-.2,1.5-.5.7-.4,1.3-1,1.8-1.6.2-.3.4-.7.6-1,.2-.3.3-.7.3-1.1s0-.5-.2-.7c0-.2-.3-.5-.5-.6h0l-.5.7-.5.7h0c0-.1,0,0,0,0h0c0,.1,0,.4-.2.7-.2.4-.7,1-1.1,1.4-.2.2-.5.3-.6.4-.2,0-.3.1-.4.1v.8l.5-.7-58.9-38.4c-.3-.2-.6-.2-.9,0l-60,39,.5.7v-.8s-.3,0-.6-.2c-.4-.3-.9-.8-1.3-1.3-.2-.2-.3-.5-.4-.7,0-.2,0-.4,0-.5h-.4l29.6-20.2,32.2-22c0,0,.3-.2.5-.2s.4,0,.5.2l32.3,21.9h0l28.8,19.8h0l.5-.7h.2Z"/>
      <path class="cls-11" d="M937.1,326.7v-.8h-21.6v-32.3h20.8v33.2h.8v-.8.8h.8v-34c0-.2,0-.4-.2-.6s-.4-.2-.6-.2h-22.4c-.2,0-.4,0-.6.2-.2.2-.2.4-.2.6v34c0,.2,0,.4.2.6s.4.2.6.2h22.4c.2,0,.4,0,.6-.2.2-.2.2-.4.2-.6h-.8Z"/>
      <path class="cls-11" d="M883.4,269.4v-.8h-21.8v-14.3h20.9v15.1h.8v-.8.8h.8v-15.9c0-.2,0-.4-.2-.6-.2-.2-.4-.2-.6-.2h-22.6c-.2,0-.4,0-.6.2-.2.2-.2.4-.2.6v15.9c0,.2,0,.4.2.6s.4.2.6.2h22.6c.2,0,.4,0,.6-.2.2-.2.2-.4.2-.6h-.8,0Z"/>
      <path class="cls-11" d="M761,276.8c-.6-2,.5-4.2,1.9-4l8.7,8,.9-11h0c1.8-4.6,6.1-4.6,7.9,0l.9,17,4.4-4-1.7-4.7c0-.8.6-1.4,1.1-1h0l2.3,4.2,3-2.8c1.4-.2,2.5,2,1.9,4h0l-10.5,15,1.4,26.5c0,1.5-.7,2.7-1.7,2.7h-12.2c-1,0-1.8-1.3-1.6-2.8l2.8-33.1-9.7-13.9h.2Z"/>
      <path class="cls-11" d="M799.1,272.2h.5c.3-.9.4-2,.4-3.2,0-6.9-4.9-12.7-11.5-13.9v.5c0,0,.4,0,.4,0v-.3c0-7.9-6.4-14.3-14.3-14.3s-14.3,6.4-14.3,14.3,0,1.7.2,2.5h.5v-.6c-6.1,1.1-10.6,6.4-10.6,12.7s.2,2.9.7,4.2l.5-.2-.4-.3c-1.6,2.1-2.6,4.6-2.6,7.4s1.5,6.6,3.9,8.9,5.7,3.7,9.4,3.7,3.5-.3,5.1-1l-.2-.5-.3.4c2.3,1.7,5.1,2.7,8.2,2.7s6.9-1.4,9.3-3.6l-.4-.4-.3.5c2,1.2,4.5,1.9,7.1,1.9s7-1.4,9.4-3.7c2.4-2.3,3.9-5.4,3.9-8.9s-1.7-6.9-4.3-9.2l-.4.4h.5c0,.1-.5,0-.5,0l-.4.4c2.4,2.1,3.9,5.1,3.9,8.4s-1.4,6-3.6,8.1c-2.2,2.1-5.3,3.4-8.6,3.4s-4.6-.6-6.5-1.8l-.4-.2-.3.3c-2.2,2.1-5.2,3.3-8.6,3.3s-5.4-.9-7.5-2.4l-.2-.2h-.3c-1.4.7-3,1-4.7,1-3.4,0-6.4-1.3-8.6-3.4-2.2-2.1-3.6-4.9-3.6-8.1s.9-4.8,2.3-6.7l.2-.2v-.3c-.5-1.2-.7-2.5-.7-3.8,0-5.8,4.2-10.7,9.7-11.6h.5v-.6c0-.8-.2-1.5-.2-2.4,0-3.6,1.5-6.9,3.9-9.3,2.4-2.4,5.7-3.9,9.3-3.9s6.9,1.5,9.3,3.9c2.4,2.4,3.9,5.7,3.9,9.3s0,.2,0,.3v.5h.4c6,1.2,10.6,6.5,10.6,12.9s0,2.1-.4,3.1v.3l.2.2.4-.4h0Z"/>
      <path class="cls-11" d="M1178.8,285.1c-.5-1.7.4-3.5,1.6-3.3l7.2,6.7.8-9.1h0c1.5-3.8,5.1-3.8,6.6,0l.8,14.2,3.6-3.4-1.4-3.9c0-.7.5-1.2.9-.9h0l1.9,3.5,2.5-2.3c1.2-.2,2.1,1.7,1.6,3.3h0l-8.7,12.5,1.2,22.1c0,1.2-.6,2.3-1.4,2.3h-10.1c-.8,0-1.5-1.1-1.4-2.4l2.4-27.5-8.1-11.6h0v-.2Z"/>
      <path class="cls-11" d="M1210.5,281.3h.5c.2-.8.3-1.7.3-2.7,0-5.8-4.1-10.6-9.6-11.7v.5c0,0,.4,0,.4,0v-.3h0c0-6.6-5.4-12-12-12s-12,5.4-12,12,0,1.4.2,2.1h.5v-.6c-5.1.9-8.9,5.4-8.9,10.7s.2,2.4.6,3.5l.5-.2-.4-.3c-1.4,1.7-2.2,3.9-2.2,6.2s1.3,5.6,3.3,7.5,4.8,3.1,7.9,3.1,3-.3,4.3-.8l-.2-.5-.3.4c1.9,1.4,4.3,2.2,6.9,2.2s5.8-1.2,7.8-3l-.4-.4-.3.5c1.7,1,3.7,1.6,5.9,1.6s5.9-1.2,7.9-3.1,3.3-4.6,3.3-7.5-1.4-5.8-3.6-7.8l-.4.4h.5c0,.1-.5,0-.5,0l-.4.4c2,1.7,3.2,4.2,3.2,6.9s-1.1,5-2.9,6.7-4.3,2.8-7.1,2.8-3.8-.5-5.4-1.5l-.4-.2-.3.3c-1.8,1.7-4.3,2.7-7.1,2.7s-4.5-.8-6.2-2l-.2-.2h-.3c-1.2.6-2.5.8-3.9.8-2.8,0-5.3-1.1-7.1-2.8-1.8-1.7-2.9-4.1-2.9-6.7s.7-4,1.9-5.6l.2-.2v-.3c-.4-1-.6-2.1-.6-3.2,0-4.8,3.5-8.8,8-9.6h.5v-.6c0-.6-.2-1.3-.2-1.9,0-3,1.2-5.7,3.2-7.7s4.7-3.2,7.7-3.2,5.7,1.2,7.7,3.2,3.2,4.7,3.2,7.7h.6-.6v.8h.4c5,1,8.8,5.4,8.8,10.6s0,1.7-.3,2.5v.3l.2.2.4-.4v.4Z"/>
      <path class="cls-11" d="M1000.1,284.1c.5-1.7-.4-3.6-1.6-3.4l-7.4,6.8-.8-9.4h0c-1.5-3.9-5.2-3.9-6.8,0l-.8,14.5-3.7-3.4,1.4-4c0-.7-.5-1.2-.9-.9h0l-2,3.6-2.6-2.4c-1.2-.2-2.1,1.7-1.6,3.4h0l9,12.8-1.2,22.7c0,1.2.6,2.3,1.4,2.3h10.4c.9,0,1.5-1.1,1.4-2.4l-2.4-28.2,8.3-11.9h-.1Z"/>
      <path class="cls-11" d="M1005.8,281.2h-.6c0,7.1-2.1,13.5-5.5,18.1s-8,7.4-13.1,7.4-9.7-2.8-13.1-7.4c-3.4-4.6-5.5-11-5.5-18.1s2.1-13.5,5.5-18.1,8-7.4,13.1-7.4,9.7,2.8,13.1,7.4c3.4,4.6,5.5,11,5.5,18.1h1.1c0-7.3-2.2-13.9-5.7-18.7-3.5-4.8-8.5-7.9-14-7.9s-10.4,3-14,7.9c-3.5,4.8-5.7,11.4-5.7,18.7s2.2,13.9,5.7,18.7c3.5,4.8,8.5,7.9,14,7.9s10.4-3,14-7.9c3.5-4.8,5.7-11.4,5.7-18.7h-.6,0Z"/>
    </g>
  </g>
  <polygon class="cls-11" points="1098 232.5 1093.9 232.5 1093.9 228.8 1083.8 228.8 1083.8 232.5 1079.7 232.5 1079.7 241.8 1083.8 241.8 1083.8 245.6 1093.9 245.6 1093.9 241.8 1098 241.8 1098 232.5"/>
  <g class="cls-25">
    <g>
      <path class="cls-11" d="M1086,259.4v-.8h-15.6c-.2,0-.4,0-.6.2s-.2.4-.2.6v18.7c0,.2,0,.4.2.6s.4.2.6.2h15.6c.2,0,.4,0,.6-.2s.2-.4.2-.6v-18.7c0-.2,0-.4-.2-.6s-.4-.2-.6-.2v.8h-.8v17.9h-13.9v-17h14.8v-.8h-.8.8,0Z"/>
      <path class="cls-11" d="M1092.5,259.4h-.8v18.7c0,.2,0,.4.2.6s.4.2.6.2h15.6c.2,0,.4,0,.6-.2s.2-.4.2-.6v-18.7c0-.2,0-.4-.2-.6s-.4-.2-.6-.2h-15.6c-.2,0-.4,0-.6.2s-.2.4-.2.6h.8v.8h14.8v17h-13.9v-17.9h-.8v.8-.8h0Z"/>
      <path class="cls-11" d="M1033.7,274.4v-.8h-8.5c-.2,0-.4,0-.6.2s-.2.4-.2.6v10.2c0,.2,0,.4.2.6s.4.2.6.2h8.5c.2,0,.4,0,.6-.2s.2-.4.2-.6v-10.2c0-.2,0-.4-.2-.6s-.4-.2-.6-.2v.8h-.8v9.3h-6.8v-8.5h7.6v-.8h-.8.8Z"/>
      <path class="cls-11" d="M1037.3,274.4h-.8v10.2c0,.2,0,.4.2.6s.4.2.6.2h8.5c.2,0,.4,0,.6-.2s.2-.4.2-.6v-10.2c0-.2,0-.4-.2-.6s-.4-.2-.6-.2h-8.5c-.2,0-.4,0-.6.2s-.2.4-.2.6h.8v.8h7.6v8.5h-6.8v-9.3h-.8v.8-.8h0Z"/>
      <path class="cls-11" d="M1033.7,288.3v-.8h-8.5c-.2,0-.4,0-.6.2s-.2.4-.2.6v10.2c0,.2,0,.4.2.6s.4.2.6.2h8.5c.2,0,.4,0,.6-.2s.2-.4.2-.6v-10.2c0-.2,0-.4-.2-.6s-.4-.2-.6-.2v.8h-.8v9.3h-6.8v-8.5h7.6v-.8h-.8.8Z"/>
      <path class="cls-11" d="M1037.2,288.3h-.8v10.2c0,.2,0,.4.2.6s.4.2.6.2h8.5c.2,0,.4,0,.6-.2s.2-.4.2-.6v-10.2c0-.2,0-.4-.2-.6s-.4-.2-.6-.2h-8.5c-.2,0-.4,0-.6.2s-.2.4-.2.6h.8v.8h7.6v8.5h-6.8v-9.3h-.8v.8-.8h0Z"/>
      <path class="cls-11" d="M1033.3,302.7v-.8h-8.5c-.2,0-.4,0-.6.2s-.2.4-.2.6v10.2c0,.2,0,.4.2.6s.4.2.6.2h8.5c.2,0,.4,0,.6-.2s.2-.4.2-.6v-10.2c0-.2,0-.4-.2-.6s-.4-.2-.6-.2v.8h-.8v9.3h-6.8v-8.5h7.6v-.8h-.8.8Z"/>
      <path class="cls-11" d="M1036.8,302.7h-.8v10.2c0,.2,0,.4.2.6s.4.2.6.2h8.5c.2,0,.4,0,.6-.2s.2-.4.2-.6v-10.2c0-.2,0-.4-.2-.6s-.4-.2-.6-.2h-8.5c-.2,0-.4,0-.6.2s-.2.4-.2.6h.8v.8h7.6v8.5h-6.8v-9.3h-.8v.8-.8h0Z"/>
      <path class="cls-11" d="M1138.8,274.4v-.8h-8.5c-.2,0-.4,0-.6.2s-.2.4-.2.6v10.2c0,.2,0,.4.2.6s.4.2.6.2h8.5c.2,0,.4,0,.6-.2s.2-.4.2-.6v-10.2c0-.2,0-.4-.2-.6s-.4-.2-.6-.2v.8h-.8v9.3h-6.8v-8.5h7.6v-.8h-.8.8Z"/>
      <path class="cls-11" d="M1142.3,274.4h-.8v10.2c0,.2,0,.4.2.6s.4.2.6.2h8.5c.2,0,.4,0,.6-.2s.2-.4.2-.6v-10.2c0-.2,0-.4-.2-.6s-.4-.2-.6-.2h-8.5c-.2,0-.4,0-.6.2s-.2.4-.2.6h.8v.8h7.6v8.5h-6.8v-9.3h-.8v.8-.8h0Z"/>
      <path class="cls-11" d="M1138.7,288.3v-.8h-8.5c-.2,0-.4,0-.6.2s-.2.4-.2.6v10.2c0,.2,0,.4.2.6s.4.2.6.2h8.5c.2,0,.4,0,.6-.2s.2-.4.2-.6v-10.2c0-.2,0-.4-.2-.6s-.4-.2-.6-.2v.8h-.8v9.3h-6.8v-8.5h7.6v-.8h-.8.8Z"/>
      <path class="cls-11" d="M1142.3,288.3h-.8v10.2c0,.2,0,.4.2.6s.4.2.6.2h8.5c.2,0,.4,0,.6-.2s.2-.4.2-.6v-10.2c0-.2,0-.4-.2-.6s-.4-.2-.6-.2h-8.5c-.2,0-.4,0-.6.2s-.2.4-.2.6h.8v.8h7.6v8.5h-6.8v-9.3h-.8v.8-.8h0Z"/>
      <path class="cls-11" d="M1138.3,302.7v-.8h-8.5c-.2,0-.4,0-.6.2s-.2.4-.2.6v10.2c0,.2,0,.4.2.6s.4.2.6.2h8.5c.2,0,.4,0,.6-.2s.2-.4.2-.6v-10.2c0-.2,0-.4-.2-.6s-.4-.2-.6-.2v.8h-.8v9.3h-6.8v-8.5h7.6v-.8h-.8.8Z"/>
      <path class="cls-11" d="M1141.8,302.7h-.8v10.2c0,.2,0,.4.2.6s.4.2.6.2h8.5c.2,0,.4,0,.6-.2s.2-.4.2-.6v-10.2c0-.2,0-.4-.2-.6s-.4-.2-.6-.2h-8.5c-.2,0-.4,0-.6.2s-.2.4-.2.6h.8v.8h7.6v8.5h-6.8v-9.3h-.8v.8-.8h0Z"/>
    </g>
  </g>
  <rect class="cls-11" x="1010.6" y="256.8" width="49.3" height="4.7"/>
  <rect class="cls-11" x="1118.1" y="256.8" width="44.4" height="4.7"/>
  <polygon class="cls-11" points="1120.5 259.1 1121 259.1 1121 256.8 1121 251.9 1121 222.1 1058.3 222.1 1058.3 251.9 1058.3 256.8 1058.3 258.6 1015.7 258.6 1015.7 327.2 1158.7 327.2 1158.7 258.6 1120.5 258.6 1120.5 259.1 1121 259.1 1120.5 259.1 1120.5 259.7 1157.6 259.7 1157.6 326.1 1016.8 326.1 1016.8 259.7 1059.4 259.7 1059.4 256.8 1059.4 251.9 1059.4 223.2 1119.9 223.2 1119.9 251.9 1119.9 256.8 1119.9 259.7 1120.5 259.7 1120.5 259.1"/>
  <rect class="cls-11" x="1054.4" y="216.6" width="69" height="6.5"/>
  <rect class="cls-11" x="1070.4" y="285.7" width="39.1" height="5.2"/>
  <g class="cls-28">
    <path class="cls-11" d="M1101.6,326.7v-.8h-22.4v-36.7h21.6v37.5h.8v-.8.8h.8v-38.4c0-.2,0-.4-.2-.6s-.4-.2-.6-.2h-23.2c-.2,0-.4,0-.6.2s-.2.4-.2.6v38.4c0,.2,0,.4.2.6s.4.2.6.2h23.2c.2,0,.4,0,.6-.2s.2-.4.2-.6h-.8Z"/>
  </g>
  <rect class="cls-11" x="1088.1" y="290.3" width="3.7" height="36.4"/>
  <g class="cls-27">
    <g>
      <path class="cls-18" d="M1199.5,217.6s-5,62.8-9.5,81.4,101,10.1,101,10.1c0,0-12-78.2-13.9-93.8-2.5-19.9-77.5,2.3-77.5,2.3"/>
      <path class="cls-12" d="M1199.5,217.6h-1.1s0,.9-.2,2.6c-.5,6.1-1.9,21.7-3.6,37.8-.9,8-1.8,16.2-2.8,23.4-1,7.2-2,13.3-3,17.3,0,.5-.2.9-.2,1.4,0,1.4.5,2.7,1.5,3.7,1.6,1.8,4.2,3.1,7.6,4.2,5.1,1.6,11.9,2.6,19.6,3.2s16.3.9,24.8.9c24.7,0,48.8-1.9,48.9-1.9.3,0,.6-.2.8-.4.2-.2.3-.5.2-.9,0,0-.2-1.2-.5-3.4-2.3-15.2-11.7-76.8-13.4-90.4-.2-1.8-1-3.3-2.1-4.5-1.7-1.8-4.2-3-7.2-3.7s-6.6-1-10.5-1c-11.6,0-26.4,2.7-38.2,5.3-11.9,2.7-20.8,5.3-20.9,5.3-.4.1-.8.5-.8,1h1.1l.3,1.1s.6-.2,1.6-.5c3.6-1,12.8-3.5,23.7-5.8,10.9-2.3,23.3-4.3,33.2-4.3s9.4.5,12.5,1.8c1.5.6,2.8,1.4,3.6,2.3.8.9,1.3,1.9,1.5,3.3,1,7.8,4.4,31.3,7.7,52.8,3.2,21.5,6.2,41.1,6.2,41.1l1.1-.2v-1.1h-1.2c-4.9.4-26.1,1.9-47.6,1.9s-26-.5-35.7-2.1c-4.9-.8-8.9-1.9-11.6-3.2-1.4-.7-2.4-1.4-3-2.1s-.9-1.4-.9-2.3,0-.6,0-.9c1.2-4.7,2.3-12.2,3.4-20.7,3.3-25.5,6.2-60.9,6.2-60.9h-1.1l.3,1-.3-1.1Z"/>
      <path class="cls-20" d="M1225.2,262v18.2l-13.9,2.9s22.1,33.5,63.9.8l-20.7-3.7-1.1-19.7-28.3,1.5h0Z"/>
      <path class="cls-12" d="M1225.2,262h-1.1v17.3l-14.6,3,.9,1.4s2.6,3.9,7.6,7.8,12.6,7.8,22.5,7.8,21.5-3.7,35.4-14.6l2-1.5-22.3-4-1.1-19.9-30.4,1.6v1h1.1v1.1l27.2-1.4,1.1,19.5,21.6,3.9.2-1.1-.7-.9c-13.6,10.6-24.9,14.1-34,14.1s-16.4-3.7-21.1-7.3c-2.4-1.8-4.2-3.7-5.4-5.1-.6-.7-1-1.3-1.3-1.7,0-.2-.3-.4-.3-.5h0c0-.1-.9.5-.9.5l.2,1.1,14.7-3.1v-19.1h-1.1v1.1-1.1h-.2Z"/>
      <path class="cls-9" d="M1154.3,352.4s7.7-44.5,19.6-59.1c7.6-9.3,44.2-13.7,44.2-13.7,0,0,21.9,15.8,45.2-.7,0,0,42.5,4.7,50.7,32s22.7,93,22.7,93l-41.4,18.8-104.3,11.4-40.1-23.8h-6.1l9.7-59.3"/>
      <path class="cls-12" d="M1155.4,352.6v-.5c.4-2.5,2.5-13.7,5.9-25.9,1.7-6.1,3.7-12.5,5.9-18.2,2.2-5.7,4.8-10.7,7.4-13.9.8-1,2.1-2,3.8-3,2.9-1.7,6.8-3.2,11.1-4.5,6.4-1.9,13.6-3.4,19.1-4.3,2.8-.5,5.1-.8,6.8-1.1.8-.1,1.5-.2,1.9-.3h.7v-1.1c0,0-.8.9-.8.9,0,0,9.7,7,23.2,7s15.1-1.9,23.3-7.7l-.6-.9v1.1c0,0,0,0,0,0,1.2.1,11.8,1.5,23,6.1,5.6,2.3,11.3,5.4,16.1,9.5,4.8,4.1,8.6,9.2,10.5,15.6,4.1,13.6,9.7,36.8,14.4,56.7,2.3,9.9,4.4,19,5.9,25.6.7,3.3,1.3,6,1.8,7.8.4,1.9.6,2.9.6,2.9l1.1-.2-.5-1-41.2,18.8-103.8,11.3-39.7-23.6c-.2-.1-.4-.2-.6-.2h-4.8l9.5-58c0-.6-.3-1.2-.9-1.3-.6,0-1.2.3-1.3.9l-9.7,59.3c0,.3,0,.6.2.9.2.2.5.4.8.4h5.8l39.8,23.7c.2.1.4.2.7.1l104.3-11.4h.3l41.4-18.8c.5-.2.7-.7.6-1.2,0,0-3.6-16.4-8.3-36.3-4.7-19.9-10.3-43.1-14.4-56.8-2.1-7.1-6.5-12.7-11.7-17-7.9-6.6-17.8-10.5-25.8-12.8s-14-3-14.1-3c-.3,0-.5,0-.8.2-7.8,5.5-15.4,7.3-22,7.3s-11.8-1.7-15.7-3.3c-1.9-.8-3.5-1.7-4.5-2.3s-.9-.6-1.2-.7c0,0-.2-.2-.3-.2h0c-.2-.2-.5-.2-.8-.2,0,0-9.2,1.1-19.3,3.4-5.1,1.1-10.4,2.6-15,4.3-2.3.9-4.4,1.8-6.2,2.9-1.8,1.1-3.3,2.2-4.4,3.5-3.1,3.8-5.8,9.4-8.2,15.7-7.2,18.8-11.6,43.9-11.6,43.9,0,.6.3,1.2.9,1.3s1.2-.3,1.3-.9v-.5Z"/>
    </g>
  </g>
  <polygon class="cls-5" points="1194.2 318.2 1186.8 286.7 1204.5 282.3 1211.2 313.2 1194.2 318.2"/>
  <g class="cls-26">
    <path class="cls-12" d="M1194.2,318.2l1.1-.3-7.1-30.4,15.6-3.9,6.2,28.8-16,4.7.3,1.1,1.1-.3-1.1.3.3,1.1,17-4.9c.6-.2.9-.7.8-1.3l-6.7-31c0-.3-.2-.5-.5-.7s-.6-.2-.9-.1l-17.7,4.5c-.6.1-.9.7-.8,1.3l7.4,31.5c0,.3.3.5.5.7.3.2.6.2.9.1l-.3-1.1h-.1Z"/>
  </g>
  <polygon class="cls-5" points="1278.6 316.4 1286 285 1268.2 280.5 1261.6 311.5 1278.6 316.4"/>
  <polygon class="cls-5" points="1278.6 316.4 1279.1 316.6 1286.6 284.6 1267.8 279.8 1260.9 311.9 1279 317.1 1279.1 316.6 1278.6 316.4 1278.8 315.9 1262.2 311.1 1268.7 281.2 1285.3 285.4 1278.1 316.3 1278.6 316.4 1278.8 315.9 1278.6 316.4"/>
  <g class="cls-32">
    <g>
      <path class="cls-5" d="M1180.5,411.9s7.9-57.6,5.4-88.6c-.4-5.2,2.8-10.1,7.9-11.7,19.7-6.6,67-16.4,99.8,4.9,0,0,5.4,67.3,10,91.8l5.3,71.4-127.9-2.4-.5-65.4h0Z"/>
      <path class="cls-5" d="M1180.5,411.9h.5s5.9-42.8,5.9-74.5-.2-9.8-.5-14.1v-.9c0-4.6,3-8.8,7.5-10.3,10.6-3.5,29.4-8,49.5-8s34.9,3.2,49.9,12.9l.3-.5h-.6s1.4,16.9,3.3,36.8,4.4,42.9,6.7,55.1h.5c0-.1-.6,0-.6,0l5.3,70.8-126.7-2.3-.4-64.9h-.6.5-1.1l.5,66,129,2.4-5.4-72h0c-2.3-12.2-4.8-35.2-6.7-55.1-1-9.9-1.8-19.1-2.4-25.8-.3-3.3-.5-6.1-.7-8s-.2-2.9-.2-2.9v-.3h-.3c-15.2-9.9-33.3-13.1-50.5-13.1s-39.1,4.5-49.8,8.1c-5,1.7-8.3,6.2-8.3,11.3v1c.3,4.2.5,9,.5,14,0,15.8-1.5,34.4-2.9,49.1-.7,7.3-1.5,13.7-2,18.2s-.5,4-.7,5.3-.3,1.9-.3,1.9h.6l.2-.2Z"/>
      <path class="cls-18" d="M1280.5,218.5c-.6,20.9-18,36.3-40.9,36.3s-39.8-9.1-41.5-37.8c-1.2-20.8,18.3-36.7,41.2-36.7s41.8,16.2,41.2,38.2"/>
      <path class="cls-12" d="M1280.5,218.5h-1.1c-.3,10.1-4.6,18.9-11.7,25.2s-16.9,10-28.1,10-21-2.2-28-7.9c-3.5-2.8-6.4-6.5-8.5-11.2s-3.5-10.6-3.9-17.6v-1.8c0-9.6,4.6-18,11.9-24s17.4-9.7,28.2-9.7,21.1,3.8,28.3,10.2c7.3,6.4,11.8,15.4,11.8,25.8v1h2.2v-1.1c0-11.1-4.8-20.7-12.5-27.5s-18.3-10.8-29.8-10.8-21.9,3.8-29.7,10.2c-7.7,6.4-12.7,15.4-12.7,25.7v2c.4,7.3,1.8,13.4,4.1,18.4,3.4,7.6,8.7,12.7,15.3,15.9,6.6,3.2,14.5,4.5,23.2,4.5s22.1-3.9,29.6-10.6c7.5-6.7,12.1-16,12.4-26.8h-1.1,0Z"/>
      <path class="cls-20" d="M1284.7,232.4c0,5.1-9.8,13.8-14.6,13.8s-3-10.6-3-15.7,4.5-8.1,9.3-8.1,8.2,4.9,8.2,10"/>
      <path class="cls-12" d="M1284.7,232.4h-1.1c0,.9-.5,2.3-1.4,3.7-1.4,2.2-3.7,4.5-6,6.2-1.2.9-2.3,1.6-3.4,2.1s-2,.7-2.7.7-.7-.1-.9-.3c-.4-.3-.7-1-1-2.1-.2-1.1-.3-2.4-.3-3.8,0-2.9.3-6.1.3-8.4s.9-3.9,2.4-5.1c1.5-1.2,3.6-1.9,5.8-1.9s3.7,1,5,2.7c1.3,1.6,2.1,3.9,2.1,6.2h2.2c0-2.8-.9-5.5-2.6-7.6-1.6-2.1-4-3.5-6.8-3.5s-5.2.8-7.1,2.4c-2,1.6-3.3,3.9-3.3,6.8s-.3,5.4-.3,8.4,0,3.9.7,5.5c.3.8.7,1.5,1.3,2.1.6.6,1.5.9,2.4.9,1.5,0,3.2-.6,4.8-1.6,2.5-1.4,5.2-3.6,7.2-6s1.9-2.4,2.6-3.7c.6-1.2,1.1-2.5,1.1-3.7h-1.1.1Z"/>
      <path class="cls-20" d="M1193.9,235.4c0,5.1,9.8,13.8,14.6,13.8s3-10.6,3-15.7-4.5-8.1-9.3-8.1-8.2,4.9-8.2,10"/>
      <path class="cls-12" d="M1193.9,235.4l-1.1-.3c0,1.6.7,3.6,1.8,5.2,1.6,2.5,4,4.9,6.5,6.8,1.3.9,2.5,1.7,3.8,2.3,1.2.6,2.4.9,3.6.9s1.8-.3,2.4-.9c.9-.8,1.4-2,1.7-3.3.3-1.3.4-2.8.4-4.3,0-3-.3-6.3-.3-8.4s-1.3-5.3-3.3-6.8c-2-1.6-4.5-2.4-7.1-2.4s-5.2,1.4-6.8,3.5c-1.6,2.1-2.6,4.8-2.6,7.6l2,.6c0-2.3,1-5.2,2.3-6.8,1.3-1.7,3-2.7,5-2.7s4.3.7,5.8,1.9,2.4,2.9,2.4,5.1.3,5.5.3,8.4-.2,3.6-.6,4.8c-.2.6-.5.9-.7,1.2-.3.2-.5.3-.9.3-.9,0-2.3-.4-3.8-1.3-2.2-1.3-4.7-3.3-6.6-5.5-.9-1.1-1.7-2.2-2.3-3.2-.5-1-.8-2-.8-2.7h-1.1Z"/>
      <path class="cls-20" d="M1269.6,235l1.4-12.1c.5-4.3-1.8-8.3-5.7-10.2-11.4-5.4-17.7-19.2-17.7-19.2-5.9,7.4-19.4,13.6-29.5,17.4-6.9,2.6-11.1,9.6-10.1,16.9.4,3.2.9,6.6,1.2,9.6"/>
      <path class="cls-12" d="M1270.7,235.1l1.4-12.1v-1.3c0-4.3-2.4-8.2-6.4-10-5.5-2.6-9.8-7.2-12.7-11.3-1.5-2-2.6-3.9-3.3-5.2-.4-.7-.7-1.2-.8-1.6,0-.2-.2-.3-.2-.4h0c0-.1-.8-1.7-.8-1.7l-1.1,1.4c-2.8,3.5-7.5,6.9-12.8,9.8-5.3,2.9-11.2,5.4-16.2,7.3-6.7,2.5-10.8,8.9-11,15.8s0,1.5.2,2.3c.4,3.2.9,6.6,1.2,9.6l2.2-.3c-.4-3-.8-6.4-1.2-9.6,0-.7,0-1.3,0-2,0-6.1,3.7-11.6,9.5-13.8,5.1-1.9,11-4.4,16.5-7.4,5.4-3,10.4-6.4,13.5-10.4l-.9-.7-1,.5s1.6,3.6,4.7,7.8,7.6,9.2,13.6,12c3.1,1.5,5.1,4.6,5.1,8v1l-1.4,12.1,2.2.3h-.2Z"/>
      <path class="cls-20" d="M1209.3,237c.6,5.2,1.1,7,1.1,7,0,13.5,13,24.5,29,24.5s29-11,29-24.5l1.3-9.4-60.4,2.5h0Z"/>
      <path class="cls-12" d="M1208.2,237.6c.6,5.2,1.1,6.9,1.1,7l1.1-.3h-1.1c0,7,3.4,13.4,8.9,17.9s12.9,7.3,21.2,7.3,15.7-2.8,21.2-7.3,8.9-10.9,8.9-17.9h-1.1l1.1.2,1.3-9.3-1.9-1.5-1.6,10.6h0c0,6.4-3.1,12.1-8.1,16.3s-12,6.8-19.8,6.8-14.8-2.6-19.8-6.8c-5-4.2-8.1-9.9-8.1-16.2h0v-.3h0c0-.2-.7-3-1.3-7.8l-2,1.4h0Z"/>
      <path class="cls-12" d="M1227.6,213.1c0,0-1.5-.7-3.8-.8-1.7,0-4,.4-6.5,1.7-.5.3-.7,1-.5,1.5.3.5,1,.7,1.5.5,2.2-1.2,4.1-1.5,5.5-1.5s1.6.1,2.1.3c.2,0,.4.1.5.2h0l.2-.3-.2.3h0l.2-.3-.2.3c.5.3,1.2,0,1.5-.5s0-1.2-.5-1.5h.1Z"/>
      <path class="cls-12" d="M1223.8,228.9c0,2.3,1,4.2,2.3,4.2s2.3-1.9,2.3-4.2-1-4.2-2.3-4.2-2.3,1.9-2.3,4.2"/>
      <path class="cls-12" d="M1223.8,228.9h-.6c0,1.2.3,2.4.7,3.2.2.4.5.8.9,1.1.3.3.8.5,1.2.5s.9-.2,1.2-.5c.5-.4.9-1,1.2-1.8.3-.7.4-1.6.4-2.5s-.3-2.4-.7-3.2c-.2-.4-.5-.8-.9-1.1-.3-.3-.8-.5-1.2-.5s-.9.2-1.2.5c-.5.4-.9,1-1.2,1.8-.3.7-.4,1.6-.4,2.5h1.2c0-1.1.2-2,.6-2.7.2-.3.4-.6.6-.7.2-.1.4-.2.5-.2.2,0,.3,0,.5.2.3.2.6.7.8,1.3.2.6.3,1.3.3,2.1s-.2,2-.6,2.7c-.2.3-.4.6-.6.7-.2.1-.4.2-.5.2-.2,0-.3,0-.5-.2-.3-.2-.6-.7-.8-1.3-.2-.6-.3-1.3-.3-2.1h-.6Z"/>
      <path class="cls-12" d="M1248.1,214.4l-.2-.4.2.4h0l-.2-.4.2.4s1.1-.5,2.8-.5,3.2.3,5.5,1.5c.5.3,1.2,0,1.5-.5s0-1.2-.5-1.5c-2.5-1.3-4.8-1.7-6.5-1.7s-3.7.7-3.8.8c-.5.3-.8.9-.5,1.5.3.5.9.8,1.5.5h0Z"/>
      <path class="cls-12" d="M1253.5,228.2c0,2.3-1,4.2-2.3,4.2s-2.3-1.9-2.3-4.2,1-4.2,2.3-4.2,2.3,1.9,2.3,4.2"/>
      <path class="cls-12" d="M1253.5,228.2h-.6c0,1.1-.2,2-.6,2.7-.2.3-.4.6-.6.7-.2.1-.4.2-.5.2-.2,0-.3,0-.5-.2-.3-.2-.6-.7-.8-1.3-.2-.6-.3-1.3-.3-2.1s.2-2,.6-2.7c.2-.3.4-.6.6-.7.2-.1.4-.2.5-.2.2,0,.3,0,.5.2.3.2.6.7.8,1.3.2.6.4,1.3.3,2.1h1.2c0-1.2-.3-2.4-.7-3.2-.2-.4-.5-.8-.9-1.1-.3-.3-.8-.5-1.2-.5s-.9.2-1.2.5c-.5.4-.9,1-1.2,1.8-.3.7-.4,1.6-.4,2.5s.3,2.4.7,3.2c.2.4.5.8.9,1.1.3.3.8.5,1.2.5s.9-.2,1.2-.5c.5-.4.9-1,1.2-1.8.3-.7.4-1.6.4-2.5h-.6Z"/>
      <path class="cls-12" d="M1239.3,228.7l-2.6,4.9c-.4.7-.6,1.6-.6,2.4,0,1.4.6,2.8,1.6,3.7l2,1.8c.4.4,1.1.4,1.6,0,.4-.4.4-1.1,0-1.6l-2-1.8c-.6-.6-.9-1.3-.9-2.1s0-.9.3-1.3l2.6-4.9c.3-.5,0-1.2-.5-1.5s-1.2,0-1.5.5h0Z"/>
      <path class="cls-14" d="M1219.4,237.3c-4.2,0-7.6,3.4-7.6,7.6s3.4,7.6,7.6,7.6,7.6-3.4,7.6-7.6-3.4-7.6-7.6-7.6"/>
      <path class="cls-14" d="M1258.6,237.5c-4.2,0-7.6,3.4-7.6,7.6s3.4,7.6,7.6,7.6,7.6-3.4,7.6-7.6-3.4-7.6-7.6-7.6"/>
      <path class="cls-16" d="M1243.3,246.1c1.8,0,3.4,1.4,3.3,3.3h0c-.3,3.9-3.5,6.8-7.3,6.5s-6.7-3.6-6.4-7.5h0c0-1.1,1-1.8,2-1.9l8.4-.4h0Z"/>
      <path class="cls-12" d="M1243.3,246.1v1.1h.2c.6,0,1.1.2,1.5.6.4.4.6.8.6,1.4h0c0,.1,1.1.2,1.1.2h-1.1c-.2,3.1-2.7,5.5-5.7,5.5h-.4c-3-.2-5.4-2.8-5.4-5.9s0-.3,0-.4h-1.1,1.1c0-.2,0-.4.3-.6.2-.2.4-.3.7-.3l8.4-.4v-2.2c0,0-8.5.4-8.5.4-.8,0-1.5.4-2.1.9s-.9,1.2-1,2h1.1-1.1v.6c0,4.2,3.2,7.8,7.4,8.1h.6c4.2,0,7.6-3.3,7.9-7.6h0v-.2c0-1.2-.5-2.2-1.3-3-.8-.7-1.8-1.2-3-1.2h-.2v1.1h0Z"/>
      <path class="cls-12" d="M1202.3,232.3h0s.6.8,1.2,1.9c.6,1.2,1.1,2.8,1.1,4.6s0,1.4-.3,2.1c0,.6.2,1.2.8,1.3.6.1,1.2-.2,1.3-.8.2-.9.3-1.8.3-2.7,0-2.3-.7-4.3-1.4-5.7-.7-1.4-1.4-2.2-1.4-2.3-.4-.5-1.1-.5-1.6-.1s-.5,1.1,0,1.6h0Z"/>
      <path class="cls-12" d="M1197.6,237.5h7.8c.6,0,1.1-.5,1.1-1.1s-.5-1.1-1.1-1.1h-7.8c-.6,0-1.1.5-1.1,1.1s.5,1.1,1.1,1.1"/>
      <path class="cls-12" d="M1274.7,228.8s-.7.9-1.4,2.3c-.7,1.4-1.4,3.4-1.4,5.7s0,1.7.3,2.7c0,.6.7,1,1.3.8.6-.1,1-.7.8-1.3-.2-.7-.3-1.5-.3-2.1,0-1.9.6-3.5,1.2-4.7.3-.6.6-1.1.8-1.4,0-.2.2-.3.3-.4h0c.4-.4.3-1.1,0-1.5-.5-.4-1.2-.3-1.6.1v-.2Z"/>
      <path class="cls-12" d="M1281.1,233.2h-7.8c-.6,0-1.1.5-1.1,1.1s.5,1.1,1.1,1.1h7.8c.6,0,1.1-.5,1.1-1.1s-.5-1.1-1.1-1.1"/>
      <path class="cls-12" d="M1300.4,378.7l-.4-.2.4.2h0l-.4-.2.4.2s.8-2,3.1-3.9c2.2-1.9,5.9-3.9,11.7-4.1v-2.2c-6.5.2-10.7,2.4-13.3,4.7-2.6,2.3-3.5,4.5-3.5,4.6l2,.8h0Z"/>
      <path class="cls-12" d="M1301.7,374.4h0c0-.2,1.3-2.4,3.2-4.6,1.9-2.2,4.6-4.5,7.5-5.2l-.5-2.2c-3.8.9-6.8,3.7-8.9,6.1-2.1,2.5-3.3,4.7-3.3,4.7l1.9,1.1h.1Z"/>
      <path class="cls-12" d="M1171.2,375.7h0s1.7.3,3.9,1.6c2.2,1.3,5,3.6,7.5,7.9l1.9-1.1c-2.8-4.8-6-7.4-8.5-8.9s-4.4-1.7-4.5-1.7l-.3,2.2Z"/>
      <path class="cls-12" d="M1184.7,378.7s-.2-1.8-1-4.2c-.8-2.4-2.1-5.3-4.5-7.8l-1.6,1.5c2,2.1,3.3,4.8,4,6.9.4,1.1.6,2,.7,2.7,0,.3,0,.6,0,.8v.2h0l2.2-.3v.2Z"/>
      <path class="cls-12" d="M1339.6,764.7v-1.1h-190.4v-57.8h189.3v58.9h1.1v-1.1,1.1h1.1v-60.1c0-.3,0-.6-.3-.8s-.5-.3-.8-.3h-191.5c-.3,0-.6,0-.8.3-.2.2-.3.5-.3.8v60.1c0,.3,0,.6.3.8.2.2.5.3.8.3h191.5c.3,0,.6,0,.8-.3s.3-.5.3-.8h-1.1Z"/>
      <path class="cls-22" d="M1157.1,474.1h0c-4.4,0-8-3.5-8-7.9v-34.4c0-4.4,3.6-7.9,8-7.9s8,3.5,8,7.9v34.4c0,4.4-3.6,7.9-8,7.9"/>
      <path class="cls-12" d="M1157.1,474.1v-1.1c-1.9,0-3.6-.8-4.8-2-1.2-1.2-2-2.9-2-4.8v-34.4c0-1.9.8-3.6,2-4.8,1.2-1.2,2.9-2,4.8-2s3.6.8,4.8,2c1.2,1.2,2,2.9,2,4.8v34.4c0,1.9-.8,3.6-2,4.8-1.2,1.2-2.9,2-4.8,2v2.2c5,0,9.1-4,9.1-9v-34.4c0-5-4.1-9-9.1-9s-9.1,4-9.1,9v34.4c0,5,4.1,9,9.1,9v-1.1Z"/>
      <path class="cls-22" d="M1323.7,471.8h0c-4.4,0-8-3.5-8-7.9v-34.4c0-4.4,3.6-7.9,8-7.9s8,3.5,8,7.9v34.4c0,4.4-3.6,7.9-8,7.9"/>
      <path class="cls-12" d="M1323.7,471.8v-1.1c-1.9,0-3.6-.8-4.8-2-1.2-1.2-2-2.9-2-4.8v-34.4c0-1.9.8-3.6,2-4.8,1.2-1.2,2.9-2,4.8-2s3.6.8,4.8,2c1.2,1.2,2,2.9,2,4.8v34.4c0,1.9-.8,3.6-2,4.8-1.2,1.2-2.9,2-4.8,2v2.2c5,0,9.1-4,9.1-9v-34.4c0-5-4.1-9-9.1-9s-9.1,4-9.1,9v34.4c0,5,4.1,9,9.1,9v-1.1Z"/>
      <path class="cls-1" d="M1318.9,651.8h-154.7c-9.6,0-17.4-7.8-17.4-17.4v-162.2c0-9.6,7.8-17.4,17.4-17.4h154.7c9.6,0,17.4,7.8,17.4,17.4v162.2c0,9.6-7.8,17.4-17.4,17.4"/>
      <path class="cls-12" d="M1318.9,651.8v-1.1h-154.7c-4.5,0-8.6-1.8-11.5-4.8-2.9-2.9-4.8-7-4.8-11.5v-162.2c0-4.5,1.8-8.6,4.8-11.5,2.9-2.9,7-4.8,11.5-4.8h154.7c4.5,0,8.6,1.8,11.5,4.8,2.9,2.9,4.8,7,4.8,11.5v162.2c0,4.5-1.8,8.6-4.8,11.5-2.9,2.9-7,4.8-11.5,4.8v2.2c10.2,0,18.5-8.3,18.5-18.5v-162.2c0-10.2-8.3-18.5-18.5-18.5h-154.7c-10.2,0-18.5,8.3-18.5,18.5v162.2c0,10.2,8.3,18.5,18.5,18.5h154.7v-1.1h0Z"/>
      <path class="cls-6" d="M1148,783.9h0c-5,0-9.1-4.1-9.1-9.1v-85.6c0-5,4.1-9.1,9.1-9.1s9.1,4.1,9.1,9.1v85.6c0,5-4.1,9.1-9.1,9.1"/>
      <path class="cls-12" d="M1148,783.9v-1.1c-2.2,0-4.2-.9-5.7-2.3-1.5-1.4-2.3-3.4-2.3-5.6v-85.6c0-2.2.9-4.2,2.3-5.6,1.5-1.4,3.4-2.3,5.7-2.3s4.2.9,5.7,2.3c1.5,1.4,2.3,3.4,2.3,5.6v85.6c0,2.2-.9,4.2-2.3,5.6-1.5,1.4-3.4,2.3-5.7,2.3v2.2c5.6,0,10.2-4.6,10.2-10.2v-85.6c0-5.6-4.6-10.2-10.2-10.2s-10.2,4.6-10.2,10.2v85.6c0,5.6,4.6,10.2,10.2,10.2v-1.1h0Z"/>
      <path class="cls-6" d="M1336.8,783.9h-1.1c-4.7,0-8.6-3.8-8.6-8.6v-86.6c0-4.7,3.8-8.6,8.6-8.6h1.1c4.7,0,8.6,3.8,8.6,8.6v86.6c0,4.7-3.8,8.6-8.6,8.6"/>
      <path class="cls-12" d="M1336.8,783.9v-1.1h-1.1c-2.1,0-3.9-.8-5.3-2.2s-2.2-3.2-2.2-5.3v-86.6c0-2.1.8-3.9,2.2-5.3,1.4-1.4,3.2-2.2,5.3-2.2h1.1c2.1,0,3.9.8,5.3,2.2s2.2,3.2,2.2,5.3v86.6c0,2.1-.8,3.9-2.2,5.3-1.4,1.4-3.2,2.2-5.3,2.2v2.2c5.3,0,9.7-4.3,9.7-9.7v-86.6c0-5.3-4.3-9.7-9.7-9.7h-1.1c-5.3,0-9.7,4.3-9.7,9.7v86.6c0,5.3,4.3,9.7,9.7,9.7h1.1v-1.1h0Z"/>
      <path class="cls-3" d="M1123.5,783.9h0c-5.9,0-10.8-4.8-10.8-10.7v-151.2c0-5.9,4.8-10.7,10.8-10.7s10.8,4.8,10.8,10.7v151.2c0,5.9-4.8,10.7-10.8,10.7"/>
      <path class="cls-12" d="M1123.5,783.9v-1.1c-2.7,0-5.1-1.1-6.8-2.8-1.7-1.7-2.8-4.1-2.8-6.8v-151.2c0-2.7,1.1-5,2.8-6.8,1.7-1.7,4.2-2.8,6.8-2.8s5.1,1.1,6.8,2.8c1.7,1.7,2.8,4.1,2.8,6.8v151.2c0,2.7-1.1,5-2.8,6.8-1.7,1.7-4.2,2.8-6.8,2.8v2.2c6.5,0,11.9-5.3,11.9-11.8v-151.2c0-6.5-5.3-11.8-11.9-11.8s-11.9,5.3-11.9,11.8v151.2c0,6.5,5.3,11.8,11.9,11.8v-1.1h0Z"/>
      <path class="cls-3" d="M1361.3,783.9h-1.3c-5.6,0-10.1-4.5-10.1-10.1v-152.4c0-5.6,4.5-10.1,10.1-10.1h1.3c5.6,0,10.1,4.5,10.1,10.1v152.4c0,5.6-4.5,10.1-10.1,10.1"/>
      <path class="cls-12" d="M1361.3,783.9v-1.1h-1.3c-2.5,0-4.7-1-6.4-2.6-1.6-1.6-2.6-3.9-2.6-6.4v-152.4c0-2.5,1-4.7,2.6-6.4,1.6-1.6,3.9-2.6,6.4-2.6h1.3c2.5,0,4.7,1,6.4,2.6,1.6,1.6,2.6,3.9,2.6,6.4v152.4c0,2.5-1,4.7-2.6,6.4-1.6,1.6-3.9,2.6-6.4,2.6v2.2c6.2,0,11.2-5,11.2-11.2v-152.4c0-6.2-5-11.2-11.2-11.2h-1.3c-6.2,0-11.2,5-11.2,11.2v152.4c0,6.2,5,11.2,11.2,11.2h1.3v-1.1h0Z"/>
      <path class="cls-6" d="M1140.5,643.9h0c-3.5,0-6.3-2.8-6.3-6.3v-80.9c0-3.5,2.8-6.3,6.3-6.3s6.3,2.8,6.3,6.3v80.9c0,3.5-2.8,6.3-6.3,6.3"/>
      <path class="cls-12" d="M1140.5,643.9v-1.1c-1.4,0-2.7-.6-3.7-1.5-.9-.9-1.5-2.2-1.5-3.7v-80.9c0-1.4.6-2.7,1.5-3.7.9-.9,2.2-1.5,3.7-1.5s2.7.6,3.7,1.5c.9.9,1.5,2.2,1.5,3.7v80.9c0,1.4-.6,2.7-1.5,3.7-.9.9-2.2,1.5-3.7,1.5v2.2c4.1,0,7.4-3.3,7.4-7.4v-80.9c0-4.1-3.3-7.4-7.4-7.4s-7.4,3.3-7.4,7.4v80.9c0,4.1,3.3,7.4,7.4,7.4v-1.1h0Z"/>
      <path class="cls-6" d="M1342.6,637.9h0c-3.5,0-6.3-2.8-6.3-6.3v-80.9c0-3.5,2.8-6.3,6.3-6.3s6.3,2.8,6.3,6.3v80.9c0,3.5-2.8,6.3-6.3,6.3"/>
      <path class="cls-12" d="M1342.6,637.9v-1.1c-1.4,0-2.7-.6-3.7-1.5-.9-.9-1.5-2.2-1.5-3.7v-80.9c0-1.4.6-2.7,1.5-3.7.9-.9,2.2-1.5,3.7-1.5s2.7.6,3.7,1.5c.9.9,1.5,2.2,1.5,3.7v80.9c0,1.4-.6,2.7-1.5,3.7-.9.9-2.2,1.5-3.7,1.5v2.2c4.1,0,7.4-3.3,7.4-7.4v-80.9c0-4.1-3.3-7.4-7.4-7.4s-7.4,3.3-7.4,7.4v80.9c0,4.1,3.3,7.4,7.4,7.4v-1.1h0Z"/>
      <path class="cls-12" d="M1327.2,779.2v-1.1h-168.9v-22h167.8v23.1h1.1v-1.1,1.1h1.1v-24.2c0-.3,0-.6-.3-.8s-.5-.3-.8-.3h-170c-.3,0-.6,0-.8.3-.2.2-.3.5-.3.8v24.2c0,.3,0,.6.3.8.2.2.5.3.8.3h170c.3,0,.6,0,.8-.3s.3-.5.3-.8h-1.1Z"/>
      <path class="cls-9" d="M1144.1,613.8c.9-21.7,10.4-43.7,29-53.8,6.6-3.6,14.2-6.2,22.9-6.7,27.4-1.5,74-.6,92.4-.2,10.3.2,20.5,2.8,29.6,7.9,10.3,5.7,21.2,15.5,24.6,31.8,7.2,34.1,6.3,126.8,6.3,126.8,0,0-33.7,14.1-60.8,12.6-27.1-1.5-62.7,3.1-85.6,0s-59.2-8.8-65.5-17.6c-4.6-6.4,5.5-66.2,7-100.9"/>
      <path class="cls-12" d="M1144.1,613.8h1.1c.5-10.7,3-21.5,7.8-30.8,4.7-9.3,11.6-17.2,20.7-22.1,6.5-3.5,14-6,22.4-6.5,11.5-.6,26.5-.9,41.3-.9s40.4.4,51,.7c10.2.2,20.2,2.8,29.1,7.7,5.1,2.8,10.3,6.6,14.6,11.7,4.3,5.1,7.8,11.4,9.5,19.4,2.9,13.4,4.5,36.2,5.3,58.7.9,22.5,1,44.8,1,57.4s0,5.8,0,7.6v2.8h1.1l-.4-1s0,0-.3,0c-1.7.7-9.6,3.8-20.1,6.8s-23.7,5.7-35.9,5.7-2.7,0-4,0c-3.9-.2-8-.3-12.2-.3-17.4,0-36.8,1.5-53.5,1.5s-14-.3-19.8-1c-11.4-1.5-26.2-3.7-38.9-6.6-6.3-1.5-12.1-3.1-16.7-4.9-2.3-.9-4.3-1.8-5.8-2.8-1.6-.9-2.7-1.9-3.4-2.8-.2-.3-.5-1.2-.7-2.5s-.3-3.1-.3-5.2c0-9.4,1.7-25.5,3.6-42.6,1.9-17.2,4-35.6,4.6-49.8h-2.2c-.6,14.1-2.7,32.4-4.6,49.6-1.9,17.2-3.7,33.2-3.7,42.9s0,4,.3,5.5c.2,1.5.5,2.7,1.1,3.5.9,1.3,2.3,2.4,4,3.4,3,1.8,7.1,3.5,11.9,5,14.4,4.5,35.2,7.6,50.3,9.6,6,.8,12.8,1.1,20.1,1.1,16.8,0,36.1-1.5,53.5-1.5s8.2,0,12.1.3c1.4,0,2.7,0,4.1,0,13.3,0,27.6-3.2,38.6-6.4s18.6-6.4,18.6-6.4c.4-.2.7-.6.7-1v-10.4c0-12.6,0-34.9-1-57.5s-2.5-45.4-5.4-59.1c-1.8-8.4-5.4-15.1-10-20.4-4.5-5.3-9.9-9.3-15.2-12.2-9.3-5.1-19.6-7.7-30.1-8-10.6-.3-30.7-.7-51.1-.7s-29.8.2-41.4.9c-8.8.5-16.6,3.1-23.4,6.8-9.5,5.2-16.7,13.4-21.6,23s-7.5,20.7-8,31.7h1.3Z"/>
      <path class="cls-23" d="M1229.9,758.8h-35.9c-2,0-3.5-1.6-3.5-3.5v-6.3c0-2,1.6-3.5,3.5-3.5h35.9c2,0,3.5,1.6,3.5,3.5v6.3c0,2-1.6,3.5-3.5,3.5"/>
      <path class="cls-12" d="M1229.9,758.8v-1.1h-35.9c-1.3,0-2.4-1.1-2.4-2.4v-6.3c0-1.3,1.1-2.4,2.4-2.4h35.9c1.3,0,2.4,1.1,2.4,2.4v6.3c0,1.3-1.1,2.4-2.4,2.4v2.2c2.6,0,4.6-2.1,4.6-4.6v-6.3c0-2.6-2.1-4.6-4.6-4.6h-35.9c-2.6,0-4.6,2.1-4.6,4.6v6.3c0,2.6,2.1,4.6,4.6,4.6h35.9v-1.1h0Z"/>
      <path class="cls-21" d="M1231.5,749.1c1,0,1.9-.8,1.9-1.8h0c0-11.8-9.6-21.4-21.5-21.4s-21.5,9.6-21.5,21.4h0c0,1,.9,1.8,1.9,1.8h39.2Z"/>
      <path class="cls-12" d="M1231.5,749.1v1.1c.8,0,1.5-.3,2.1-.8.5-.5.9-1.3.9-2.1h0c0-12.4-10.1-22.5-22.6-22.5s-22.6,10.1-22.6,22.5h0c0,.8.4,1.6.9,2.1s1.3.8,2.1.8h39.2v-2.2h-39.2c-.2,0-.4,0-.6-.2,0,0-.2-.3-.2-.5h0c0-5.6,2.3-10.7,6-14.3,3.7-3.7,8.8-5.9,14.4-5.9s10.7,2.3,14.4,5.9c3.7,3.7,6,8.7,6,14.3h0c0,.2,0,.4-.2.5,0,0-.3.2-.6.2v1.1h0Z"/>
      <path class="cls-23" d="M1292.8,758.8h-35.9c-2,0-3.5-1.6-3.5-3.5v-6.3c0-2,1.6-3.5,3.5-3.5h35.9c2,0,3.5,1.6,3.5,3.5v6.3c0,2-1.6,3.5-3.5,3.5"/>
      <path class="cls-12" d="M1292.8,758.8v-1.1h-35.9c-1.3,0-2.4-1.1-2.4-2.4v-6.3c0-1.3,1.1-2.4,2.4-2.4h35.9c1.3,0,2.4,1.1,2.4,2.4v6.3c0,1.3-1.1,2.4-2.4,2.4v2.2c2.6,0,4.6-2.1,4.6-4.6v-6.3c0-2.6-2.1-4.6-4.6-4.6h-35.9c-2.6,0-4.6,2.1-4.6,4.6v6.3c0,2.6,2.1,4.6,4.6,4.6h35.9v-1.1h0Z"/>
      <path class="cls-21" d="M1294.4,749.1c1,0,1.9-.8,1.9-1.8h0c0-11.8-9.6-21.4-21.5-21.4s-21.5,9.6-21.5,21.4h0c0,1,.9,1.8,1.9,1.8h39.2Z"/>
      <path class="cls-12" d="M1294.4,749.1v1.1c.8,0,1.5-.3,2.1-.8.5-.5.9-1.3.9-2.1h0c0-12.4-10.1-22.5-22.6-22.5s-22.6,10.1-22.6,22.5h0c0,.8.4,1.6.9,2.1s1.3.8,2.1.8h39.2v-2.2h-39.2c-.2,0-.4,0-.6-.2,0,0-.2-.3-.2-.5h0c0-5.6,2.3-10.7,6-14.3,3.7-3.7,8.8-5.9,14.4-5.9s10.7,2.3,14.4,5.9c3.7,3.7,6,8.7,6,14.3h0c0,.2,0,.4-.2.5,0,0-.3.2-.6.2v1.1h0Z"/>
      <path class="cls-12" d="M1192.9,680.2s0-.6,0-1.6c.3-3.6,1.1-12.9,2.7-23.8,1.6-10.9,4-23.3,7.4-33.2,8-22.8,9.9-31.2,9.9-31.3l-2.2-.5h0c-.2,1-2.4,9.7-9.8,31-4,11.5-6.6,26.3-8.2,38.2s-2.2,20.9-2.2,20.9h2.2v.3Z"/>
      <path class="cls-12" d="M1273.8,597.6s0,.2.2.6c1.2,2.7,6.5,15.3,12.1,31.2,5.7,15.9,11.6,35.1,14.1,51l2.2-.3c-2.7-17.2-9.4-38-15.4-54.5s-11.3-28.7-11.3-28.8l-2,.9h.1Z"/>
      <path class="cls-20" d="M1272.4,548.3l23.9,16.3s-10.1,8.8-15.4,12.3c-5.4,3.5-5.6,9.4-8.4,11.8-2.8,2.4-5.6-1.3-5.6-1.3,0,0-5.4,6-8-.5,0,0-4.7,4-5.8-2.6,0,0-4.7,5.8-6.1-.5s3.4-22.3,25.5-35.5"/>
      <path class="cls-12" d="M1272.4,548.3l-.6.9,23.9,16.3.6-.9-.7-.8s-.2,0-.4.4c-1,.9-3.6,3.1-6.5,5.5s-6.1,4.9-8.4,6.4c-2.9,1.9-4.5,4.5-5.6,6.7-.6,1.1-1,2.2-1.5,3.1-.5.9-.9,1.6-1.5,2-.5.4-.9.5-1.3.5s-.6,0-.9-.2c-.5-.2-.9-.6-1.3-.9-.2-.2-.3-.3-.4-.4h0c0,0-.8-1.2-.8-1.2l-.9,1h0s-.6.6-1.3,1.2c-.7.6-1.7,1-2.4,1s-.7,0-1.1-.4c-.4-.3-.8-.9-1.2-1.9l-.6-1.4-1.2,1,.3.3-.3-.3h0l.3.3-.3-.3s-.3.3-.8.5c-.4.2-1,.4-1.4.4s-.6,0-.9-.4c-.3-.3-.7-1.1-1-2.4l-.4-2.4-1.5,1.9h0s-.5.6-1.1,1.1c-.3.3-.6.5-1,.7-.3.2-.6.2-.8.2h-.3c0,0-.3-.2-.5-.5s-.4-.8-.6-1.6c0-.6-.2-1.2-.2-2,0-3.4,1.4-8.6,5.3-14.3,3.9-5.8,10.2-12.2,19.9-18l-.6-.9-.6.9.6-.9-.6-1c-10,6-16.6,12.6-20.6,18.7-4.1,6.1-5.6,11.6-5.6,15.6s0,1.7.2,2.5c.3,1.2.7,2.1,1.3,2.8.3.3.6.6,1,.8s.8.2,1.2.2c.7,0,1.3-.2,1.8-.5.8-.4,1.5-1,1.9-1.5.5-.5.8-.8.8-.9l-.9-.7-1.1.2c.3,1.6.8,2.7,1.5,3.5s1.7,1.1,2.6,1.1,1.9-.4,2.5-.7c.6-.4,1-.7,1.1-.7l-.7-.8-1,.4c.5,1.3,1.1,2.2,1.9,2.8s1.7.9,2.5.9c1.6,0,2.9-.8,3.8-1.5s1.6-1.4,1.6-1.4l-.8-.7-.9.7s.5.6,1.2,1.3c.4.3.8.6,1.4.9.5.2,1.2.4,1.9.4s1.9-.3,2.7-1.1c.9-.7,1.5-1.7,2-2.7.8-1.5,1.4-3.2,2.4-4.7.9-1.6,2.1-3.1,3.9-4.3,2.8-1.8,6.6-4.9,9.8-7.6,3.2-2.7,5.7-4.9,5.7-4.9l1.1-.9-25.6-17.5-.6.4.6,1v-.3Z"/>
      <path class="cls-12" d="M1257.8,570.8s-4.4,4.9-5.9,13.3l2.2.4c.7-3.9,2-7,3.2-9.1.6-1,1.1-1.8,1.5-2.4.2-.3.4-.5.5-.6h0v-.2h0l-.2-.2.2.2h0l-.2-.2.2.2-1.6-1.5h0Z"/>
      <path class="cls-12" d="M1263.9,573.9s-4.4,4.9-5.9,13.3l2.2.4c.7-3.9,2-7,3.2-9.1.6-1,1.1-1.8,1.5-2.4.2-.3.4-.5.5-.6h0v-.2h0l-.2-.2.2.2h0l-.2-.2.2.2-1.6-1.5h0Z"/>
      <path class="cls-12" d="M1271.6,574.3s-4.4,4.9-5.9,13.3l2.2.4c.7-3.9,2-7,3.2-9.1.6-1,1.1-1.8,1.5-2.4.2-.3.4-.5.5-.6h0v-.2h0l-.2-.2.2.2h0l-.2-.2.2.2-1.6-1.5h0Z"/>
      <path class="cls-20" d="M1213.5,548.3l-23.9,16.3s10.1,8.8,15.4,12.3c5.4,3.5,5.6,9.4,8.4,11.8,2.8,2.4,5.6-1.3,5.6-1.3,0,0,5.4,6,8-.5,0,0,4.7,4,5.8-2.6,0,0,4.7,5.8,6.1-.5s-3.4-22.3-25.5-35.5"/>
      <path class="cls-12" d="M1213.5,548.3l-.6-.9-25,17.1,1.1.9s2.5,2.2,5.7,4.9,7.1,5.7,9.8,7.6c2.4,1.6,3.7,3.7,4.8,5.9.5,1.1,1,2.1,1.5,3.1s1.1,1.9,2,2.7c.9.7,1.8,1.1,2.7,1.1s1.3-.2,1.9-.4c.8-.4,1.4-.9,1.9-1.3.4-.4.7-.8.7-.8l-.9-.7-.8.7s.6.7,1.6,1.4,2.2,1.5,3.8,1.5,1.7-.3,2.5-.9c.8-.6,1.4-1.6,1.9-2.8l-1-.4-.7.8s.4.4,1.1.7c.6.3,1.5.7,2.5.7s1.8-.3,2.6-1.1c.7-.8,1.2-1.9,1.5-3.5l-1.1-.2-.9.7s.5.7,1.3,1.4c.4.3.9.7,1.4,1s1.1.5,1.8.5.8,0,1.2-.2c.6-.3,1.1-.7,1.4-1.3.4-.6.6-1.3.9-2.2.2-.7.2-1.6.2-2.5,0-3.9-1.6-9.5-5.6-15.6-4.1-6.1-10.6-12.7-20.6-18.7l-.6-.4-.6.4.6.9-.6.9c9.8,5.8,16.1,12.2,19.9,18,3.9,5.8,5.3,11,5.3,14.3s0,1.4-.2,2c-.2,1-.5,1.6-.8,1.8,0,0-.2.2-.3.2h-.3c-.2,0-.5,0-.8-.2-.5-.3-1-.7-1.4-1.1-.2-.2-.4-.4-.5-.5h0v-.2h0l-1.5-1.9-.4,2.4c-.2,1.3-.6,2.1-1,2.4-.3.3-.6.4-.9.4s-1-.2-1.4-.5c-.2,0-.4-.2-.5-.3h0c0,0-.3.2-.3.2l.3-.3h0l-.3.3.3-.3-1.2-1-.6,1.4c-.4,1-.8,1.6-1.2,1.9-.4.3-.7.4-1.1.4-.7,0-1.7-.5-2.5-1.1s-.7-.6-.9-.8c0,0-.2-.2-.3-.3h0l-.9-1-.8,1.1.3.2-.3-.2h0l.3.2-.3-.2s-.4.5-.9.9c-.3.2-.6.4-.9.6-.3,0-.6.2-.9.2s-.8,0-1.3-.5c-.5-.5-1-1.2-1.5-2-.7-1.3-1.4-3.1-2.4-4.8-1-1.8-2.4-3.6-4.6-5-2.6-1.7-6.5-4.8-9.6-7.4-1.6-1.3-3-2.5-4-3.4-.5-.4-.9-.8-1.2-1-.3-.2-.4-.4-.4-.4l-.7.8.6.9,23.9-16.3-.6-.9-.6.9.6-.9h-.4Z"/>
      <path class="cls-12" d="M1226.5,572.3l.2-.2-.2.2h0l.2-.2-.2.2s4,4.5,5.3,12.2l2.2-.4c-1.5-8.4-5.8-13.3-5.9-13.3l-1.6,1.5Z"/>
      <path class="cls-12" d="M1220.4,575.4l.2-.2-.2.2h0l.2-.2-.2.2s4,4.5,5.3,12.2l2.2-.4c-1.5-8.4-5.8-13.3-5.9-13.3l-1.6,1.5Z"/>
      <path class="cls-12" d="M1212.8,575.8l.2-.2-.2.2h0l.2-.2-.2.2s4,4.5,5.3,12.2l2.2-.4c-1.5-8.4-5.8-13.3-5.9-13.3l-1.6,1.5Z"/>
      <path class="cls-19" d="M1268.4,550.9s13.3.5,23.6,17.4c0,0,27.2-16.7,30.7-32.3s-7-85.1-7-85.1c0,0-12.8-44.7-99.3-28.9,0,0-22,5.7-36.6,26.1-10.4,14.6-35.1,106.8,14,118.9,0,0,3.9-9.1,25.3-14.4l47.6-.5,1.6-1.1h.1Z"/>
      <path class="cls-12" d="M1268.4,550.9v1.1h0s3.3.2,7.7,2.4c4.4,2.2,10,6.4,15,14.5.2.3.4.4.7.5.3,0,.6,0,.8,0,0,0,6.9-4.2,14.2-10.4,3.7-3.1,7.4-6.7,10.5-10.5s5.6-7.9,6.5-12.1c.5-2.4.7-5.8.7-9.9,0-12.3-1.9-31.2-3.9-47-1.9-15.8-3.9-28.6-3.9-28.6h0c0-.3-2.4-8.6-11.9-16.8-9.5-8.3-26.1-16.4-54.2-16.4s-21.4,1-34.4,3.4h0s-5.6,1.5-13.1,5.5c-7.4,4-16.7,10.6-24.1,21-1.5,2.1-3.2,5.6-4.9,10.1-5.2,13.4-10.7,36.1-10.8,57.6,0,12.1,1.8,23.8,6.4,33.3,2.3,4.8,5.4,8.9,9.4,12.3,4,3.4,8.8,5.9,14.6,7.3.5,0,1.1,0,1.3-.6h0s1.1-2.2,4.6-5c3.6-2.8,9.7-6.2,19.9-8.7l-.3-1.1v1.1l47.6-.5c.2,0,.4,0,.6-.2l1.6-1.1-.6-.9v1.1-1.1l-.6-.9-1.4.9-47.2.5h-.3c-10.8,2.7-17.3,6.4-21.1,9.5-3.8,3.1-4.9,5.5-5,5.6l1,.4.3-1.1c-5.5-1.3-10-3.7-13.7-6.8-5.5-4.7-9.3-11.2-11.7-18.8-2.4-7.6-3.4-16.2-3.4-25.2,0-14.1,2.4-28.8,5.6-40.9,1.6-6.1,3.3-11.5,5-15.9s3.4-7.7,4.7-9.6c7.2-10,16.2-16.5,23.4-20.4,3.6-2,6.8-3.3,9-4.1,1.1-.4,2-.7,2.6-.9.3,0,.5-.2.7-.2h.2l-.3-1.1.2,1.1c12.9-2.4,24.2-3.4,34-3.4,27.7,0,43.7,8,52.8,15.9,4.5,3.9,7.4,7.9,9,10.8.8,1.5,1.4,2.7,1.7,3.5.2.4.3.7.4,1v.2h0l1.1-.3-1.1.2s0,.8.3,2.2c.7,5,2.6,18,4.2,32.4,1.7,14.4,3.1,30.1,3.1,40.7s-.2,7.3-.7,9.4c-.8,3.6-3.1,7.5-6.1,11.2-4.5,5.5-10.5,10.7-15.5,14.4-2.5,1.9-4.6,3.4-6.2,4.4-.8.5-1.4.9-1.8,1.2-.2,0-.4.2-.5.3,0,0-.2,0-.2,0l.6.9.9-.6c-5.2-8.6-11.3-13.1-16.1-15.5-4.8-2.3-8.3-2.5-8.4-2.5-.2,0-.5,0-.7.2l.6.9h.6Z"/>
      <path class="cls-12" d="M1220,549.6s-2.8-2.8-6.9-6.2-9.7-7.3-15.3-9.4c-7.2-2.7-11.5-3.2-13.7-3.2s-1.9.2-2,.2l.6,2.1v-.4c0,0,0,.4,0,.4h0v-.4c0,0,0,.4,0,.4,0,0,.6,0,1.5,0,1.9,0,5.9.4,12.9,3.1,5.3,2,10.7,5.8,14.7,9.1,2,1.6,3.7,3.1,4.9,4.2.6.5,1,1,1.4,1.3.2.2.3.3.4.4h0c0,0,1.6-1.4,1.6-1.4h0Z"/>
      <path class="cls-12" d="M1182.1,525.4h0c.3,0,3.2.9,6.2,2.4,1.5.8,3,1.8,4.3,3,1.2,1.2,2.2,2.6,2.6,4.1l2.1-.6c-.6-2.1-1.8-3.8-3.3-5.2-2.3-2.1-5.1-3.5-7.3-4.5-2.3-.9-4-1.4-4-1.4l-.5,2.1h0Z"/>
      <path class="cls-12" d="M1181.4,449.5s.2.5.6,1.3c1.4,3,5,10.7,8.3,18.9,1.6,4.1,3.2,8.2,4.4,12,1.2,3.7,1.9,7,2,9.2,0,2.2,0,4.6,0,7v8.7c0,2.9,0,6,.2,8.7s.5,5.1,1.1,7.1c.7,2.2.9,4.4.9,6.4s-.2,3.7-.4,4.9c0,.6-.2,1.1-.3,1.4v.4h0c0,0,2.1.8,2.1.8,0,0,1-3.2,1-7.5s-.2-4.5-1-7c-.5-1.8-.9-4-1-6.6-.2-2.6-.2-5.5-.2-8.5v-8.7c0-2.9,0-4.8,0-7.1,0-2.9-1.2-7-2.7-11.5-4.4-13.4-12.9-30.8-12.9-30.8l-2,1h0Z"/>
      <path class="cls-12" d="M1269.2,551.6s.2-.2.5-.5c1.1-1.2,4.1-4.3,7.3-7.2,1.6-1.4,3.3-2.8,4.8-3.9,1.5-1.1,2.9-1.8,3.7-2,4.3-1,10.4-1.1,11.8-1.1h.3v-2.2h-.3c-1.5,0-7.6,0-12.3,1.1-.8.2-1.6.6-2.5,1.1-3,1.7-6.7,5-9.7,7.9s-5.3,5.3-5.3,5.4l1.6,1.5h0Z"/>
      <path class="cls-12" d="M1297.6,528.4s-2.3.2-5.1,1.3c-2.8,1.1-6.1,3.1-8.2,6.6l1.9,1.1c1.7-2.9,4.5-4.7,7-5.7,1.2-.5,2.4-.8,3.2-1,.4,0,.7,0,1-.2h.3l-.2-2.2h0Z"/>
      <path class="cls-12" d="M1298.8,448.4s-2.5,4.4-5.1,10.1c-1.3,2.8-2.7,5.9-3.8,8.9-1.1,3-2,5.9-2.4,8.4-.4,2.4-.6,7.3-.9,13.2-.6,17.8-.8,45.6-.8,45.6h2.2v-2.1c0-4.8,0-16.9.4-28.8,0-6,.3-11.9.5-16.8s.5-8.9.7-10.8c.3-2.2,1.2-5,2.3-7.9,1.7-4.4,3.9-9.1,5.7-12.6.9-1.8,1.7-3.3,2.3-4.4.3-.5.5-1,.7-1.2.2-.3.2-.4.2-.4l-1.9-1.1h0Z"/>
      <path class="cls-23" d="M1249.7,471.4c-3.4,6-12,5.9-15.5-.2l-11.6-20.1-7.9-16.5c-3.5-6-3.3-15.9,3.6-15.8l23.2-.9,23,.3c6.9,0,8.9,8,5.5,13.9l-9,19.5-11.3,19.9h0Z"/>
      <path class="cls-12" d="M1249.7,471.4l-1-.5c-1.5,2.6-4,3.8-6.6,3.8s-5.4-1.3-6.9-4l-11.6-20.1-7.8-16.5h0c-1.3-2.3-2.1-5.3-2.1-7.8s.4-3.5,1.2-4.6c.4-.6.8-1,1.4-1.3s1.2-.5,2.1-.5h0l23.2-.9,22.9.3c2.1,0,3.5.8,4.5,2s1.6,2.9,1.6,4.9-.5,3.7-1.5,5.4h0l-9,19.6-11.3,19.8,1,.5,1,.5,11.3-19.9h0l9-19.6-1-.5,1,.5c1.2-2.1,1.7-4.3,1.7-6.5s-.7-4.6-2.1-6.3c-1.4-1.7-3.5-2.8-6.2-2.8l-23-.3h0l-23.2.9v1.1-1.1h0c-1.2,0-2.2.2-3.1.7-1.4.7-2.3,1.9-2.9,3.3s-.8,3-.8,4.6c0,3,.9,6.2,2.4,8.9l1-.6-1,.5,7.9,16.5h0l11.6,20.2c2,3.4,5.4,5.1,8.8,5.1s6.7-1.7,8.6-5l-1-.5v.2Z"/>
      <path class="cls-23" d="M1257.5,414.2c-7.3-.5-13.7,3.6-15.7,9.3-2.5-5.1-8.6-8.6-15.5-8-7.1.6-12.8,5.6-13.6,11.7-1,8,6.2,14.8,15.1,14.8s8.6-1.7,11.4-4.5c1.8-1.7,4.8-2,6.8-.4,2.7,2.2,6.4,3.6,10.4,3.6,9,0,16.1-6.8,15.1-14.8-.8-6.3-6.7-11.3-13.9-11.8"/>
      <path class="cls-12" d="M1257.5,414.2v-1.1h-1.2c-7.2,0-13.4,4.2-15.6,10.1l1,.4,1-.5c-2.6-5.2-8.3-8.7-15-8.7h-1.6c-3.8.3-7.2,1.8-9.8,4-2.6,2.2-4.4,5.3-4.8,8.7,0,.6,0,1.1,0,1.7,0,4,1.9,7.7,4.8,10.2,3,2.6,7,4.2,11.5,4.2s9.2-1.8,12.2-4.8c.7-.7,1.8-1.1,2.9-1.1s1.8.3,2.4.8c2.9,2.4,6.8,3.8,11.1,3.8s8.5-1.6,11.5-4.2,4.8-6.2,4.8-10.2,0-1.1,0-1.7h0c-.4-3.5-2.3-6.5-5-8.8-2.7-2.2-6.2-3.7-10-4v2.2c3.3.2,6.3,1.5,8.6,3.4,2.3,1.9,3.8,4.5,4.2,7.3h0v1.4c0,3.3-1.5,6.3-4.1,8.6-2.5,2.2-6.1,3.6-10,3.6s-7.2-1.3-9.7-3.3c-1.1-.9-2.5-1.3-3.8-1.3s-3.2.6-4.4,1.8c-2.6,2.5-6.4,4.2-10.6,4.2s-7.5-1.4-10-3.6-4.1-5.3-4.1-8.6v-1.4c.4-2.8,1.8-5.3,4.1-7.3,2.2-1.9,5.2-3.2,8.5-3.5h1.4c5.9,0,10.9,3.1,13,7.4.2.4.6.6,1.1.6s.8-.3,1-.7c1.7-4.9,7.1-8.6,13.5-8.6h1.1v-1.1h.2Z"/>
      <path class="cls-8" d="M1286.7,362.7c.2-1.2.3-2.5.3-3.8,0-13.4-9.6-24.5-21.9-25.9-5.6-6.5-13.9-10.7-23.1-10.7s-17.5,4.1-23.1,10.6c-.8,0-1.5-.1-2.3-.1-15.1,0-27.3,12.2-27.3,27.2s0,1.3,0,1.9c-5,4.6-8.2,11.1-8.2,18.4,0,13.8,11.2,24.9,25.1,24.9s23.6-9.8,24.9-22.3c.4-.3.9-.6,1.3-.9,3,1,6.2,1.5,9.5,1.5s2.2,0,3.3-.2c1.3,12.8,11.7,22.7,24.3,22.7s24.5-11.4,24.5-25.4-2.8-13.5-7.3-18.1"/>
      <path class="cls-12" d="M1286.7,362.7l1.1.2c.2-1.3.3-2.6.3-4,0-14-10-25.5-22.9-27v1.1c0,0,.7-.7.7-.7-5.8-6.8-14.4-11.1-24-11-9.6,0-18.1,4.3-23.9,11l.8.7v-1.1c-.7,0-1.5-.1-2.3-.1-15.7,0-28.4,12.6-28.4,28.3v2h1.1l-.7-.9c-5.3,4.8-8.6,11.6-8.6,19.3,0,14.4,11.7,26,26.2,26s24.7-10.2,26-23.3h-1.1c0-.1.6.8.6.8.5-.3.9-.6,1.3-.9l-.6-.9-.3,1c3.1,1,6.4,1.6,9.9,1.6s2.3,0,3.4-.2v-1.1c0,0-1.2.1-1.2.1.7,6.6,3.7,12.6,8.3,16.8,4.5,4.3,10.6,6.9,17.2,6.9s13.5-3,18.1-7.8,7.5-11.4,7.5-18.7-2.9-14.1-7.6-18.9l-.8.8,1.1.2-1.1-.2-.8.8c4.3,4.4,7,10.5,7,17.4s-2.6,12.8-6.9,17.2c-4.2,4.4-10.1,7.1-16.5,7.1s-11.5-2.4-15.7-6.3-7-9.3-7.6-15.4c0-.3-.2-.6-.4-.7-.2-.2-.5-.3-.8-.2-1,.1-2.1.2-3.2.2-3.2,0-6.3-.5-9.2-1.5-.3-.1-.7,0-1,.1-.4.3-.8.6-1.2.8-.3.2-.5.5-.5.8-1.2,12-11.4,21.3-23.8,21.3s-12.6-2.7-16.9-7-7-10.3-7-16.8,3-13.3,7.8-17.6c.3-.2.4-.6.4-.9v-1.9c0-7.2,2.9-13.7,7.7-18.4,4.7-4.7,11.3-7.6,18.5-7.6s1.5,0,2.2,0,.7-.1.9-.4c5.4-6.3,13.3-10.2,22.2-10.2s16.9,4,22.3,10.3c.2.2.4.3.7.4,11.7,1.3,21,11.9,21,24.8s0,2.5-.3,3.6c0,.3,0,.7.3.9l.8-.8h0Z"/>
      <path class="cls-20" d="M1190.2,396.2c0,5.3,9.5,14.6,15,14.6s1.5-13.5,1.5-18.7-4.3-8-9.8-8-6.7,6.8-6.7,12.1"/>
      <path class="cls-12" d="M1190.2,396.2h-1.1c0,1.6.7,3.4,1.7,5.1,1.6,2.6,4,5.2,6.5,7.2,1.3,1,2.6,1.8,3.9,2.5,1.3.6,2.6,1,3.9,1s1.4-.2,2-.6c.9-.6,1.3-1.5,1.6-2.5.3-1,.4-2.1.4-3.3,0-2.3-.4-4.9-.7-7.3-.3-2.4-.7-4.7-.7-6.1s-.3-2.8-.9-4c-.9-1.7-2.3-3-4-3.9-1.7-.8-3.8-1.2-6-1.2s-3,.5-4,1.4c-1.6,1.3-2.5,3.3-3,5.4s-.7,4.4-.7,6.4h2.2c0-2.5.3-5.5,1.2-7.6.4-1.1,1-1.9,1.7-2.5s1.5-.9,2.6-.9c2.5,0,4.8.6,6.3,1.8.8.6,1.3,1.3,1.8,2.1.4.8.6,1.8.6,3,0,1.7.4,4,.7,6.4.3,2.4.7,5,.7,7s-.2,2.6-.5,3.3c-.2.3-.3.5-.5.7-.2.1-.4.2-.8.2-1,0-2.5-.5-4.1-1.4-2.3-1.3-4.9-3.6-6.7-5.9-.9-1.2-1.7-2.3-2.3-3.4-.5-1.1-.8-2.1-.8-2.8h-1.1.1Z"/>
      <path class="cls-12" d="M1197.1,392.7h0s.7.8,1.4,2c.6,1.2,1.3,2.8,1.3,4.7s0,1.4-.3,2.2c-.2.6.2,1.2.8,1.4.6.2,1.2-.2,1.4-.8.3-.9.4-1.9.4-2.7,0-2.4-.8-4.4-1.6-5.9-.8-1.4-1.6-2.3-1.6-2.3-.4-.4-1.1-.5-1.6,0-.4.4-.5,1.1,0,1.6l-.2-.2Z"/>
      <path class="cls-12" d="M1194.3,398h6.2c.6,0,1.1-.5,1.1-1.1s-.5-1.1-1.1-1.1h-6.2c-.6,0-1.1.5-1.1,1.1s.5,1.1,1.1,1.1"/>
      <path class="cls-20" d="M1287.9,394.7c0,5.3-9.5,14.6-15,14.6s-1.5-13.5-1.5-18.7,4.3-8,9.8-8,6.7,6.8,6.7,12.1"/>
      <path class="cls-12" d="M1287.9,394.7h-1.1c0,1-.5,2.4-1.4,3.9-1.4,2.3-3.6,4.7-6,6.6-1.2.9-2.4,1.7-3.5,2.2s-2.2.8-2.9.8-.6,0-.8-.2c-.3-.2-.5-.6-.7-1.3-.2-.7-.3-1.6-.3-2.7,0-2.1.3-4.6.7-7,.3-2.4.7-4.7.7-6.4s.2-2.1.6-3c.6-1.2,1.6-2.2,3-2.9,1.4-.7,3.1-1,5-1s1.9.3,2.6.9c1,.8,1.8,2.4,2.3,4.2.5,1.8.7,4,.7,5.9h2.2c0-2.7-.3-5.9-1.4-8.5-.5-1.3-1.3-2.5-2.4-3.4s-2.5-1.4-4-1.4c-2.9,0-5.6.7-7.6,2.2-1,.8-1.8,1.7-2.4,2.9-.6,1.2-.9,2.5-.9,4s-.3,3.7-.7,6.1c-.3,2.4-.7,5.1-.7,7.3s.2,3,.7,4.2c.3.6.7,1.1,1.3,1.5.6.4,1.3.6,2,.6,1.7,0,3.4-.7,5.2-1.7,2.6-1.5,5.3-3.9,7.3-6.4,1-1.3,1.9-2.6,2.5-3.8.6-1.3,1-2.6,1-3.8h-1.1v.2Z"/>
      <path class="cls-12" d="M1279.3,389.6s-.8.9-1.6,2.3c-.8,1.4-1.6,3.5-1.6,5.9s0,1.8.4,2.7c.2.6.8.9,1.4.8.6-.2.9-.8.8-1.4-.2-.8-.3-1.5-.3-2.2,0-1.9.7-3.6,1.3-4.8.3-.6.7-1.1.9-1.4,0-.2.2-.3.3-.4h0c.4-.5.4-1.2,0-1.7-.4-.4-1.1-.4-1.6,0v.2Z"/>
      <path class="cls-12" d="M1283.8,394.2h-6.2c-.6,0-1.1.5-1.1,1.1s.5,1.1,1.1,1.1h6.2c.6,0,1.1-.5,1.1-1.1s-.5-1.1-1.1-1.1"/>
      <path class="cls-20" d="M1272.7,393.7l2.6-20.9c-17.7-2-27.6-21.8-27.6-21.8-11.3,12.9-47.3,22.1-47.3,22.1.8,1.9,2.6,14.2,3.8,23.1"/>
      <path class="cls-12" d="M1273.8,393.9l2.8-22h-1.1c-4.2-.6-8-2.2-11.3-4.2-5-3.1-8.8-7.4-11.5-10.9-1.3-1.8-2.3-3.3-3-4.4-.3-.6-.6-1-.8-1.3,0-.2,0-.3-.2-.3h0c0-.1-.7-1.6-.7-1.6l-1.1,1.2c-2.7,3.1-6.9,6-11.8,8.7-7.4,4-16.1,7.3-23,9.5-3.4,1.1-6.4,2-8.6,2.6-1.1.3-1.9.5-2.5.7s-.9.2-.9.2l-1.3.3.5,1.2c0,.1.2.5.3,1,.4,1.8,1,5.3,1.7,9.4.6,4,1.3,8.6,1.8,12.4l2.2-.3c-.6-4.4-1.4-9.7-2.1-14.2-.4-2.2-.7-4.2-1-5.8-.2-.8-.3-1.5-.4-2,0-.6-.3-1-.4-1.4l-1,.4.3,1.1s9.1-2.3,19.6-6.3c5.2-2,10.8-4.3,15.9-7.1,5-2.7,9.5-5.8,12.5-9.2l-.8-.7-1,.5s2.6,5.1,7.4,10.4c2.4,2.7,5.4,5.4,8.9,7.6s7.6,3.9,12.2,4.4v-1.1c0,0-1-.1-1-.1l-2.6,20.9,2.2.3h-.2Z"/>
      <path class="cls-20" d="M1204.2,396.2c.7,5.3,1.2,9.3,1.2,9.3,0,13.7,14.7,24.8,32.9,24.8s32.9-11.1,32.9-24.8l1.5-11.9"/>
      <path class="cls-12" d="M1203.1,396.4c.4,2.6.7,5,.9,6.6.2,1.7.3,2.7.3,2.7h1.1c0-.1-1.1-.1-1.1-.1,0,7.3,3.9,13.8,10.1,18.4s14.6,7.5,23.9,7.5,17.7-2.8,23.9-7.5c6.2-4.6,10.1-11.1,10.1-18.4h-1.1,1.1c0,.1,1.5-11.7,1.5-11.7l-2.2-.3-1.5,11.9h0c0,6.5-3.5,12.4-9.2,16.7-5.7,4.3-13.7,7-22.6,7s-16.8-2.7-22.6-7c-5.7-4.3-9.2-10.2-9.2-16.6h0c0-.1-.5-4.2-1.2-9.4l-2.2.3h0Z"/>
      <path class="cls-12" d="M1228.5,381.8c0,0-1.4-.7-3.6-.7s-3.8.4-6.1,1.6c-.5.3-.8,1-.5,1.5s1,.8,1.5.5c2.1-1.1,3.8-1.4,5.1-1.4s1.5.1,2,.3c.2,0,.4.1.5.2h0l.2-.4-.2.4h0l.2-.4-.2.4c.5.3,1.2,0,1.5-.5s0-1.2-.5-1.5Z"/>
      <path class="cls-12" d="M1223.4,392c0,2.2,1,3.9,2.1,3.9s2.1-1.8,2.1-3.9-1-3.9-2.1-3.9-2.1,1.8-2.1,3.9"/>
      <path class="cls-12" d="M1223.4,392h-.6c0,1.2.3,2.2.7,3s.5.8.8,1c.3.3.7.4,1.2.4s.9-.2,1.2-.4c.5-.4.9-1,1.1-1.7.3-.7.4-1.5.4-2.4s-.3-2.2-.7-3-.5-.8-.8-1c-.3-.3-.7-.4-1.2-.4s-.9.2-1.2.4c-.5.4-.9,1-1.1,1.7-.3.7-.4,1.5-.4,2.4h1.2c0-1,.2-1.9.6-2.5.2-.3.3-.5.5-.7.2-.1.3-.2.5-.2s.3,0,.5.2c.3.2.5.6.7,1.2s.3,1.2.3,2-.2,1.9-.6,2.5c-.2.3-.3.5-.5.7-.2.1-.3.2-.5.2s-.3,0-.5-.2c-.3-.2-.5-.6-.7-1.2s-.3-1.2-.3-2h-.6Z"/>
      <path class="cls-12" d="M1249.5,383l-.2-.4.2.4h0l-.2-.4.2.4s1-.5,2.6-.5,3,.3,5.1,1.4c.5.3,1.2,0,1.5-.5s0-1.2-.5-1.5c-2.4-1.2-4.5-1.6-6.1-1.6s-3.5.7-3.6.7c-.5.3-.8.9-.5,1.5.3.5.9.8,1.5.5Z"/>
      <path class="cls-12" d="M1253.3,391.6c0,2.2-1,3.9-2.1,3.9s-2.1-1.8-2.1-3.9,1-3.9,2.1-3.9,2.1,1.8,2.1,3.9"/>
      <path class="cls-12" d="M1253.3,391.6h-.6c0,1-.2,1.9-.6,2.5-.2.3-.3.5-.5.7-.2.1-.3.2-.5.2s-.3,0-.5-.2c-.3-.2-.5-.6-.7-1.2-.2-.5-.3-1.2-.3-2s.2-1.9.6-2.5c.2-.3.3-.5.5-.7.2-.1.3-.2.5-.2s.3,0,.5.2c.3.2.5.6.7,1.2.2.5.3,1.2.3,2h1.2c0-1.2-.3-2.2-.7-3.1-.2-.4-.5-.8-.8-1-.3-.3-.7-.4-1.2-.4s-.9.2-1.2.4c-.5.4-.9,1-1.1,1.7-.3.7-.4,1.5-.4,2.4s.3,2.2.7,3,.5.8.8,1c.3.3.7.4,1.2.4s.9-.2,1.2-.4c.5-.4.9-1,1.1-1.7.3-.7.4-1.5.4-2.4h-.6Z"/>
      <path class="cls-12" d="M1239.4,392.5l-2.4,4.6c-.4.7-.6,1.5-.6,2.2,0,1.3.5,2.6,1.6,3.6l1.9,1.7c.5.4,1.2.4,1.6,0,.4-.5.4-1.1,0-1.6l-1.9-1.7c-.6-.5-.8-1.2-.8-1.9s0-.8.3-1.2l2.4-4.6c.3-.5,0-1.2-.5-1.5s-1.2,0-1.5.5h0Z"/>
      <path class="cls-16" d="M1243.2,409.6c1.7,0,3.2,1.3,3.1,3h0c-.2,3.7-3.3,6.4-6.9,6.1s-6.3-3.4-6-7h0c0-1,.9-1.7,1.9-1.8l7.9-.4h0Z"/>
      <path class="cls-12" d="M1243.2,409.6v1.1h0c.5,0,1,.2,1.3.5s.5.8.5,1.2h0c0,.1,1.1.2,1.1.2h-1.1c-.2,2.9-2.5,5.1-5.3,5.1s-.3,0-.4,0c-2.8-.2-5-2.6-5-5.5s0-.2,0-.4h0c0-.2,0-.3.2-.5.2-.1.4-.2.6-.2l7.9-.4h0v-2.2l-8,.4c-.8,0-1.4.3-2,.8-.5.5-.9,1.2-1,2h1.1-1.1v.5c0,4,3.1,7.4,7.1,7.7h.6c4,0,7.3-3.1,7.5-7.1h0v-.2c0-1.1-.5-2.1-1.2-2.8-.7-.7-1.8-1.1-2.9-1.1h-.2v1.1l.2-.2Z"/>
      <path class="cls-12" d="M1247.8,407.1l.2-.3-.2.3h0l.2-.3-.2.3s1.3,1,2.6,2.7c1.3,1.7,2.7,4.1,3,7.2l2.2-.3c-.4-3.6-2-6.4-3.5-8.3s-2.9-3-2.9-3l-1.3,1.8h0Z"/>
      <path class="cls-12" d="M1229.4,405.9s-1.4,1.1-2.9,3-3.1,4.7-3.5,8.3l2.2.3c.4-3.1,1.7-5.5,3.1-7.2.7-.9,1.3-1.5,1.8-1.9.2-.2.4-.4.6-.5h0c0-.1-.2-.3-.2-.3l.2.2h0l-.2-.2.2.2-1.3-1.8h0Z"/>
      <path class="cls-12" d="M1229.3,397.1l.2.3-.2-.3h0l.2.3-.2-.3s-2.4,2-7.1,2.7l.3,2.2c5.4-.7,8.2-3.1,8.3-3.2l-1.5-1.7h0Z"/>
      <path class="cls-12" d="M1245.4,397.8c0,0,2.9,2.5,8.3,3.2l.3-2.2c-2.4-.3-4.2-1-5.4-1.6-.6-.3-1-.6-1.3-.8,0,0-.2-.2-.3-.2h0l-.2.3.2-.3h0l-.2.3.2-.3-1.5,1.7h0Z"/>
      <path class="cls-20" d="M1143.5,408.6c.2-1.5.8-2.9,1.7-4.1,3.1-4.3,9-12.5,29.1-3.9,0,0,4.1,7.7,4.7,18.7.8,15.5-11.7,18.9-11.7,18.9,5.6-1.3-5.7-16.1-13.4-9.6-3.5,3-2.5,18.3-2.5,18.3l-2.6-1.2c-5.4-2.5-8.8-7.9-8.9-13.8l3.7-23.3h0Z"/>
      <path class="cls-12" d="M1143.5,408.6l1.1.2c.2-1.3.7-2.6,1.5-3.6,1.1-1.5,2.4-3.3,4.4-4.7,2-1.4,4.6-2.5,8.6-2.5s8.5,1,14.8,3.7l.4-1-1,.5h0c.2.4,4,7.8,4.5,18.2v1.3c0,3.4-.7,6.1-1.7,8.3-1.5,3.2-3.9,5.3-5.8,6.6-1,.6-1.8,1-2.5,1.3-.3.1-.6.2-.7.3h-.2v.4c0,0,0-.4,0-.4h0v.4c0,0,0-.4,0-.4l.6,2.1c.7-.2,1.4-.6,1.8-1.1.4-.6.6-1.2.6-1.9,0-1.1-.4-2.2-1-3.4-1-1.7-2.5-3.4-4.3-4.8-1.8-1.3-4-2.3-6.3-2.3s-3.5.6-5.1,1.9c-.8.7-1.3,1.6-1.7,2.7-.6,1.6-.9,3.6-1.1,5.6s-.3,4.1-.3,5.9c0,2.8,0,4.9,0,4.9h1.1l.5-1.1-2.6-1.2c-5-2.3-8.2-7.3-8.3-12.8h-1.1l1.1.2,3.7-23.3-1.1-.2-1.1-.2-3.7,23.4h0c0,6.4,3.8,12.2,9.5,14.9l4.3,2v-1.9c0,0,0-.1,0-.4,0-.7,0-2.4,0-4.4s0-5.2.5-7.6c.2-1.2.4-2.3.7-3.2.3-.9.7-1.5,1-1.8,1.2-1,2.4-1.4,3.7-1.4s2.3.3,3.4.9c1.7.8,3.2,2.2,4.3,3.6.6.7,1,1.4,1.3,2.1.3.6.4,1.2.4,1.6s0,.5,0,.6c0,0-.2.2-.5.3l.3,1.1.3,1.1s3.2-.9,6.3-3.7c1.6-1.4,3.1-3.3,4.3-5.7,1.2-2.5,1.9-5.5,1.9-9.3v-1.4c-.6-11.2-4.8-19-4.8-19.1l-.2-.3-.4-.2c-6.5-2.8-11.6-3.9-15.7-3.9s-7.6,1.3-9.9,2.9c-2.3,1.7-3.8,3.7-4.9,5.2-1,1.4-1.6,2.9-1.9,4.6l1.1.2v.2Z"/>
      <path class="cls-12" d="M1151.1,442.1h0c0,0-1.7-1.1-3.1-2.7-.7-.8-1.4-1.8-1.9-2.8-.5-1.1-.8-2.2-.8-3.5s0-.4,0-.6h0c.3-3.1.7-5.3,1.1-6.6.2-.7.3-1.2.5-1.5,0-.2,0-.3,0-.3h0l-.4-.2.4.2h0l-.4-.2.4.2-2-1c0,.1-1.3,2.8-1.9,9.2h0v.8c0,1.7.5,3.2,1.1,4.5,1,2,2.4,3.6,3.6,4.6,1.2,1.1,2.2,1.7,2.2,1.7l1.2-1.9h0Z"/>
      <path class="cls-20" d="M1168.9,416s-1.5,12.7-5.1,16.6c-3.7,4.1,0,11.3,6.1,5.2"/>
      <path class="cls-12" d="M1167.8,415.8v.5c-.2,1.2-.6,4.3-1.4,7.6-.4,1.6-.9,3.2-1.5,4.6s-1.2,2.6-1.8,3.3c-1.2,1.3-1.8,3-1.8,4.5s.4,2.4,1.1,3.3,1.9,1.6,3.2,1.6,1.7-.2,2.5-.7c.9-.4,1.8-1.1,2.7-2l-1.6-1.6c-.8.8-1.5,1.3-2.1,1.6-.6.3-1.1.4-1.5.4-.7,0-1.1-.3-1.5-.7-.4-.5-.6-1.2-.6-2s.4-2.1,1.2-3c1.1-1.2,1.8-2.8,2.5-4.6,1-2.7,1.7-5.8,2.2-8.3s.7-4.3.7-4.3l-2.2-.3h0Z"/>
      <path class="cls-20" d="M1338,406.9c-.3-1.5-1-2.8-2-4-3.4-4.1-9.8-11.8-29.3-1.9,0,0-3.6,7.9-3.4,18.9.3,15.5,13,18.1,13,18.1-5.6-1,4.6-16.5,12.7-10.5,3.7,2.8,3.7,18.1,3.7,18.1l2.5-1.4c5.2-2.9,8.3-8.4,7.9-14.4l-5.3-23h.2Z"/>
      <path class="cls-12" d="M1338,406.9l1.1-.2c-.4-1.6-1.1-3.2-2.2-4.5s-2.6-3.1-4.8-4.6c-2.2-1.5-5.1-2.6-9-2.6s-9.8,1.4-16.9,5l-.3.2-.2.4s-3.5,7.7-3.5,18.5v.9h0c0,4,1,7.3,2.3,9.8,2,3.9,4.9,6.2,7.3,7.6s4.3,1.7,4.4,1.8l.2-1.1.2-1.1c-.4,0-.5-.2-.5-.3s-.2-.3-.2-.7c0-.6.2-1.5.7-2.5.7-1.5,2-3.1,3.5-4.3,1.5-1.2,3.3-2,4.9-2s2.2.3,3.4,1.2c.3.2.6.6.9,1.2.5,1,1,2.6,1.3,4.3.5,2.6.8,5.5.9,7.8,0,1.1,0,2.1,0,2.8v3l4.1-2.3c5.3-2.9,8.5-8.4,8.5-14.4s0-.6,0-1h0l-5.3-23.2-1.1.2-1.1.2,5.3,23,1.1-.2h-1.1v.9c0,5.2-2.8,10-7.4,12.5l-2.5,1.4.5,1h1.1s0-3.9-.5-8.1c-.2-2.1-.6-4.3-1.1-6.3-.3-1-.6-1.8-1-2.6-.4-.8-.9-1.4-1.5-1.9-1.5-1.1-3.1-1.6-4.7-1.6s-3,.5-4.4,1.2c-2,1.1-3.7,2.7-5,4.5-.6.9-1.1,1.8-1.5,2.7-.4.9-.6,1.7-.6,2.6s.2,1.4.6,2,1.2,1,1.9,1.1l.4-2.2h0c0,.1,0,0,0,0h0c0,.1,0,0,0,0,0,0-3.1-.7-6.1-3.1-1.5-1.2-3-2.9-4.1-5.1-1.1-2.3-1.9-5.1-2-8.8h0v-.9c0-5.1.8-9.6,1.7-12.7.4-1.6.8-2.8,1.1-3.6.2-.4.3-.7.4-1v-.2h0l-1-.5.5,1c6.9-3.5,12-4.7,15.9-4.7s5.9,1,7.8,2.2c1.9,1.3,3.2,2.8,4.3,4.1.9,1,1.4,2.2,1.7,3.5l1.1-.2h.4Z"/>
      <path class="cls-12" d="M1334,442.7s1.5-1.1,3.1-3c.8-.9,1.5-2.1,2.1-3.4s1-2.8,1-4.4,0-1,0-1.5c-1-6.4-2.4-9-2.5-9.1l-1.9,1.1.4-.2-.4.2h0l.4-.2-.4.2s1.3,2.4,2.3,8.3v1.1c0,1.2-.3,2.4-.8,3.4-.7,1.6-1.9,3-2.8,4-.5.5-.9.9-1.2,1.1-.2.1-.3.2-.4.3h0l1.3,1.8v.3Z"/>
      <path class="cls-20" d="M1313.2,416s2.4,12.6,6.2,16.2c4,3.8.8,11.3-5.8,5.6"/>
      <path class="cls-12" d="M1312.1,416.2s.6,3.2,1.7,6.8c.5,1.8,1.2,3.8,2,5.5.8,1.8,1.7,3.3,2.8,4.4,1,.9,1.4,2.1,1.4,3.2s-.2,1.4-.6,1.9c-.4.4-.8.7-1.5.7s-2.1-.4-3.6-1.8l-1.4,1.7c1.8,1.6,3.5,2.3,5.1,2.3s2.5-.6,3.2-1.5,1.1-2.1,1.1-3.3c0-1.7-.7-3.4-2.1-4.8-.8-.7-1.6-2.1-2.3-3.7-1.1-2.4-2-5.4-2.6-7.8-.3-1.2-.5-2.2-.7-2.9,0-.4,0-.7-.2-.9v-.3l-2.2.4h-.1Z"/>
      <path class="cls-3" d="M698,771.3c0-10.7-9.6-49.4-9.6-49.4h-35.2l-9,38.1c-.9,3.8-.6,7.6.7,11,13.1,2.9,33.1,5.3,53.1.2"/>
      <path class="cls-12" d="M698,771.3h1.1v-.2c0-2.9-.6-7.4-1.5-12.5-2.7-15.4-8.1-36.9-8.1-36.9,0-.5-.6-.8-1.1-.8h-35.2c-.5,0-1,.4-1.1.9l-9,38.1c-.4,1.5-.5,3.1-.5,4.6,0,2.5.5,4.9,1.3,7.1,0,.3.4.6.8.7,7.6,1.7,17.5,3.2,28.5,3.2s16.6-.8,25.1-3c.5,0,.8-.6.8-1.1h-1.1l-.3-1.1c-8.4,2.1-16.7,2.9-24.6,2.9s-20.5-1.5-28-3.2l-.2,1.1,1-.4c-.8-2-1.2-4.1-1.2-6.3s.2-2.7.5-4.1l8.8-37.3h34.3v-1.1l-1.1.3s0,.6.4,1.7c.9,3.7,3.2,13.2,5.3,22.9,1,4.9,2,9.8,2.7,14.1s1.2,8,1.2,10.3v.2h1.1l-.3-1.1.3,1.1h0Z"/>
      <path class="cls-23" d="M644.9,771.1c2.5,6.6,8.7,11.6,16.4,12.1,16.1,1,28.8,2.8,36.3-9.4.3-.4.4-1.3.4-2.4-20,5.1-40,2.7-53.1-.2"/>
      <path class="cls-12" d="M644.9,771.1l-1,.4c2.7,7,9.2,12.3,17.4,12.8,5.1.3,10,.7,14.5.7s9.1-.5,13-2c3.9-1.6,7.2-4.3,9.9-8.7.2-.4.4-.8.4-1.3s0-1,0-1.6-.2-.7-.4-.9c-.3-.2-.6-.3-1-.2-8.4,2.1-16.7,2.9-24.6,2.9s-20.5-1.5-28-3.2c-.4,0-.8,0-1.1.4-.3.3-.3.7-.2,1.1l1-.4-.2,1.1c7.6,1.7,17.5,3.2,28.5,3.2s16.6-.8,25.1-3l-.3-1.1h-1.1v1.3c0,.3,0,.5,0,.5-2.4,4-5.3,6.3-8.8,7.8-3.5,1.4-7.5,1.9-12.1,1.9s-9.1-.4-14.3-.7c-7.3-.4-13.1-5.1-15.5-11.4l-1,.4-.2,1.1.2-1.1h-.2Z"/>
      <path class="cls-3" d="M776.2,767c-.3-10.7-11.4-49-11.4-49l-35.2,1.3-7.6,38.4c-.8,3.9-.3,7.7,1.1,11,13.2,2.4,33.2,4.1,53.1-1.7"/>
      <path class="cls-12" d="M776.2,767h1.1c0-2.9-.8-7.3-1.9-12.4-3.3-15.4-9.5-36.9-9.5-36.9,0-.5-.6-.8-1.1-.8l-35.2,1.3c-.5,0-.9.4-1,.9l-7.6,38.4c-.3,1.3-.4,2.6-.4,3.9,0,2.7.6,5.4,1.6,7.8,0,.3.5.6.8.7,6.6,1.2,15,2.3,24.2,2.3s19.3-1,29.4-4c.5,0,.8-.6.8-1.1h-1.1l-.3-1c-9.8,2.9-19.7,3.9-28.7,3.9s-17.3-1-23.8-2.2l-.2,1.1,1-.4c-.9-2.1-1.4-4.5-1.4-6.9s0-2.3.3-3.5l7.4-37.6,34.3-1.2v-1.1l-1.1.3s.2.6.5,1.7c1.1,3.7,3.7,13.2,6.2,22.9,1.2,4.8,2.4,9.8,3.2,14,.9,4.3,1.4,7.9,1.5,10.1h1.1l-.3-1.1.3,1.1v-.2Z"/>
      <path class="cls-23" d="M723.1,768.7c2.8,6.5,9.1,11.3,16.9,11.5,16.1.4,28.9,1.8,35.9-10.8.2-.4.3-1.3.3-2.4-19.8,5.9-39.9,4.1-53.1,1.7"/>
      <path class="cls-12" d="M723.1,768.7l-1,.4c2.9,6.9,9.7,11.9,17.9,12.1,3.9,0,7.6.2,11.1.2,5.5,0,10.5-.4,14.9-2s8.1-4.6,10.9-9.6c.2-.4.3-.8.4-1.2v-1.4c0-.5,0-.3,0-.4,0-.3-.2-.7-.5-.9s-.6-.3-1-.2c-9.8,2.9-19.7,3.9-28.7,3.9s-17.3-1-23.8-2.2c-.4,0-.8,0-1.1.4-.3.3-.3.8-.2,1.1l1-.4-.2,1.1c6.6,1.2,15,2.3,24.2,2.3s19.3-1,29.4-4l-.3-1.1h-1.1v1.5c0,.3,0,.4,0,.4-2.5,4.5-5.8,7.1-9.7,8.6-4,1.5-8.7,1.9-14.1,1.9s-7.2-.2-11.1-.2c-7.3-.2-13.3-4.7-15.9-10.8l-1,.4-.2,1.1.2-1.1h0Z"/>
      <path class="cls-2" d="M646.3,495.1l1.2,234.1s26.7,15.7,51.5,0l1.5-228.7c0-.3.5-.3.5,0l13.1,228.7s28,10.9,58.6-2.4l-12.3-283.9-113.1,5.2-1.2,47h.2Z"/>
      <path class="cls-12" d="M646.3,495.1h-1.1l1.2,234.1c0,.4.2.8.5.9,0,0,12.1,7.1,27.7,7.1s16.5-1.8,25-7.1c.3-.2.5-.6.5-.9l1.5-228.7h-.9l.6.6c.2-.2.3-.4.3-.6h-.9l.6.6-.6-.6v.8c.2,0,.4,0,.6-.2l-.6-.6v.8-.8l-.5.6c.2.2.4.2.5.2v-.8l-.5.6.5-.7h-.9c0,.2,0,.5.3.7l.5-.7h-.9,1.1-1.1l13.1,228.7c0,.4.3.8.7,1,0,0,11,4.3,26.8,4.3s20.9-1.6,32.7-6.7c.4-.2.7-.6.7-1.1l-12.3-283.9c0-.3,0-.6-.4-.8-.2-.2-.5-.3-.8-.3l-113.1,5.2c-.6,0-1,.5-1.1,1.1l-1.2,47h2.2l1.2-45.9,111-5.1,12.2,282.8h1.1l-.4-1.1c-11.4,5-22.5,6.5-31.8,6.5s-14.2-1-18.8-2.1c-2.3-.5-4.1-1-5.3-1.4-.6-.2-1.1-.4-1.4-.5-.2,0-.3,0-.4,0h0l-.4,1h1.1l-13.1-228.7h0c0-.4-.2-.7-.5-1-.3-.2-.6-.3-.9-.3s-.6,0-.9.3c-.3.2-.5.6-.5,1l-1.5,228.7h1.1l-.6-.9c-8.1,5.1-16.3,6.8-23.8,6.8s-14.1-1.7-18.9-3.4c-2.4-.9-4.3-1.7-5.6-2.3-.7-.3-1.2-.6-1.5-.8-.2,0-.3-.2-.4-.2h0l-.6,1h1.1l-1.2-234.1h-1.1,1.1-1.1.1Z"/>
    </g>
  </g>
  <rect class="cls-3" x="654.1" y="434.4" width="95" height="16.3"/>
  <g class="cls-31">
    <path class="cls-12" d="M749.1,450.8v-1.1h-93.8v-14.1h92.7v15.2h1.1v-1.1,1.1h1.1v-16.3c0-.3,0-.6-.3-.8-.2-.2-.5-.3-.8-.3h-95c-.3,0-.6.1-.8.3-.2.2-.3.5-.3.8v16.3c0,.3,0,.6.3.8s.5.3.8.3h95c.3,0,.6-.1.8-.3.2-.2.3-.5.3-.8h-1.1Z"/>
  </g>
  <rect class="cls-6" x="692.3" y="434.4" width="20.3" height="16.3"/>
  <g class="cls-29">
    <g>
      <path class="cls-12" d="M712.6,450.8v-1.1h-19.2v-14.1h18v15.2h1.1v-1.1,1.1h1.1v-16.3c0-.3,0-.6-.3-.8-.2-.2-.5-.3-.8-.3h-20.3c-.3,0-.6.1-.8.3-.2.2-.3.5-.3.8v16.3c0,.3,0,.6.3.8s.5.3.8.3h20.3c.3,0,.6-.1.8-.3.2-.2.3-.5.3-.8h-1.1.1Z"/>
      <path class="cls-23" d="M684.5,280.2l-12.8,4,3.3,154.4s9.6-.4,19.2-3.5c9.6-3,27.8,6.1,35.3,1.3,7.5-4.8,0-156.2,0-156.2l-20.2-1.7-24.8,1.7Z"/>
      <path class="cls-12" d="M684.5,280.2l-.3-1.1-12.9,4c-.5.1-.8.6-.8,1.1l3.3,154.4c0,.3,0,.6.4.8.2.2.5.3.8.3,0,0,9.7-.4,19.5-3.5,1.3-.4,2.8-.6,4.5-.6,3.6,0,7.8.8,12.1,1.7,4.3.8,8.5,1.7,12.3,1.7s4.9-.4,6.8-1.6c.3-.2.6-.5.8-.8.4-.6.6-1.3.9-2.2.4-1.6.8-3.7,1-6.2.8-7.8,1.2-20,1.2-34.3,0-46.3-3.4-113.6-3.4-113.6,0-.6-.5-1-1-1l-20.2-1.7h-.2l-24.8,1.7h-.2l.3,1.1v1.1l24.8-1.7,20.1,1.7v-1.1h-1s0,1,0,3c.6,13.5,3.2,70.1,3.2,110.5s-.2,21.8-.7,29.3c-.3,3.8-.6,6.8-1,9s-.4,2-.7,2.5c0,.3-.2.5-.3.6h0v.2h0c-1.4.8-3.3,1.2-5.6,1.2-3.4,0-7.6-.8-11.9-1.7-4.3-.8-8.6-1.7-12.5-1.7s-3.6.2-5.1.7c-4.7,1.5-9.5,2.4-13.1,2.8-1.8.2-3.3.4-4.3.5h-1.6v1.1h1.2l-3.2-153.6,12.1-3.7-.3-1.1v1.1-1.1l-.2.2Z"/>
    </g>
  </g>
  <rect class="cls-20" x="686.8" y="260.4" width="28.5" height="34"/>
  <polygon class="cls-12" points="715.2 294.3 715.2 293.2 687.9 293.2 687.9 261.5 714.1 261.5 714.1 294.3 715.2 294.3 715.2 293.2 715.2 294.3 716.3 294.3 716.3 259.2 685.7 259.2 685.7 295.5 716.3 295.5 716.3 294.3 715.2 294.3"/>
  <g class="cls-30">
    <g>
      <path class="cls-18" d="M741.2,222.5c-.6,20.9-18,36.3-40.9,36.3s-39.8-9.1-41.5-37.8c-1.2-20.8,18.3-36.7,41.2-36.7s41.8,16.2,41.2,38.2"/>
      <path class="cls-12" d="M741.2,222.5h-1.1c-.3,10.1-4.6,18.9-11.7,25.2-7.1,6.3-16.9,10-28.1,10s-21-2.2-28-7.9c-3.5-2.8-6.4-6.5-8.5-11.2s-3.5-10.6-3.9-17.7v-1.8c0-9.6,4.6-18,11.9-24,7.3-6,17.4-9.7,28.2-9.7s21.1,3.8,28.3,10.2c7.3,6.4,11.8,15.4,11.8,25.8v1h2.2v-1.1c0-11.1-4.8-20.7-12.5-27.5s-18.3-10.8-29.8-10.8-21.9,3.8-29.7,10.2c-7.7,6.4-12.7,15.4-12.7,25.7v2c.4,7.3,1.8,13.4,4.1,18.4,3.4,7.6,8.7,12.7,15.3,15.9s14.5,4.5,23.2,4.5,22.1-3.9,29.6-10.6c7.5-6.7,12.1-16,12.4-26.8h-1.1v.2Z"/>
      <path class="cls-20" d="M745.5,236.5c0,5.1-9.8,13.8-14.6,13.8s-3-10.6-3-15.7,4.5-8.1,9.3-8.1,8.2,4.9,8.2,10"/>
      <path class="cls-12" d="M745.5,236.5h-1.1c0,.9-.5,2.3-1.4,3.7-1.4,2.2-3.7,4.5-6,6.2-1.2.9-2.3,1.6-3.4,2.1-1.1.5-2,.7-2.7.7s-.7-.1-.9-.3c-.4-.3-.7-1-1-2.1-.2-1.1-.3-2.4-.3-3.8,0-2.9.3-6.1.3-8.4s.9-3.9,2.4-5.1c1.5-1.2,3.6-1.9,5.8-1.9s3.7,1,5,2.7c1.3,1.6,2.1,3.9,2.1,6.2h2.2c0-2.8-.9-5.5-2.6-7.6-1.6-2.1-4-3.5-6.8-3.5s-5.2.8-7.1,2.4c-2,1.6-3.3,3.9-3.3,6.8s-.3,5.4-.3,8.4,0,3.9.7,5.5c.3.8.7,1.5,1.3,2.1s1.5.9,2.4.9c1.5,0,3.2-.6,4.8-1.6,2.5-1.4,5.2-3.6,7.2-6s1.9-2.4,2.6-3.7c.6-1.2,1.1-2.5,1.1-3.7h-1.1,0Z"/>
      <path class="cls-20" d="M654.6,239.4c0,5.1,9.8,13.8,14.6,13.8s3-10.6,3-15.7-4.5-8.1-9.3-8.1-8.2,4.9-8.2,10"/>
      <path class="cls-12" d="M654.6,239.4h-1.1c0,1.6.7,3.3,1.8,4.9,1.6,2.5,4,4.9,6.5,6.8,1.3.9,2.5,1.7,3.8,2.3,1.2.6,2.4.9,3.6.9s1.8-.3,2.4-.9c.9-.8,1.4-2,1.7-3.3s.4-2.8.4-4.3c0-3-.3-6.3-.3-8.4s-1.3-5.3-3.3-6.8c-2-1.6-4.5-2.4-7.1-2.4s-5.2,1.4-6.8,3.5-2.7,5-2.7,7.8h2.2c0-2.3.9-4.8,2.2-6.4,1.3-1.7,3-2.7,5-2.7s4.3.7,5.8,1.9,2.4,2.9,2.4,5.1.3,5.5.3,8.4-.2,3.6-.6,4.8c-.2.6-.5.9-.7,1.2-.3.2-.5.3-.9.3-.9,0-2.3-.4-3.8-1.3-2.2-1.3-4.7-3.3-6.6-5.5-.9-1.1-1.7-2.2-2.3-3.2-.5-1-.8-2-.8-2.7h-1.1Z"/>
      <path class="cls-20" d="M730.4,239l2.3-20.3c-15.6-2-24.3-21.2-24.3-21.2-9.9,12.6-41.7,21.5-41.7,21.5.7,1.9,2.3,13.8,3.4,22.5l60.4-2.5h-.1Z"/>
      <path class="cls-12" d="M731.5,239.1l2.4-21.4h-1.1c-3.7-.6-7-2.1-9.9-4.1-4.3-3-7.8-7.2-10.1-10.6-1.2-1.7-2-3.2-2.6-4.3-.3-.5-.5-1-.7-1.3,0-.1,0-.3-.2-.3h0c0-.1-.8-1.7-.8-1.7l-1.1,1.4c-2.3,3-6.1,5.8-10.4,8.4-6.5,3.9-14.2,7.1-20.2,9.3-3,1.1-5.7,2-7.5,2.6-.9.3-1.7.5-2.2.7s-.8.2-.8.2l-1.2.3.4,1.1c0,.1.2.5.3,1,.4,1.8.9,5.2,1.5,9.1.5,3.9,1.2,8.7,1.7,12.5l2.2-.3c-.5-4.3-1.3-9.9-1.9-14.2-.3-2.2-.6-4.1-.9-5.6,0-.8-.3-1.4-.4-2,0-.6-.2-1-.4-1.3l-1,.4.3,1.1s8-2.3,17.3-6.1c4.6-1.9,9.6-4.2,14-6.9s8.4-5.6,11-8.9l-.9-.7-1,.5s2.2,4.9,6.5,10.1c2.1,2.6,4.7,5.2,7.9,7.4,3.1,2.2,6.8,3.8,10.9,4.3v-1.1c0,0-1-.1-1-.1l-2.3,20.3,2.2.3h0Z"/>
      <path class="cls-20" d="M670,241.3c.6,5.1,1.1,6.9,1.1,6.9,0,13.4,13,24.3,29,24.3s29-10.9,29-24.3l1.3-9.4-60.4,2.5h0Z"/>
      <path class="cls-12" d="M668.9,241.6c.6,5.2,1.1,6.9,1.1,7l1.1-.3h-1.1c0,7,3.4,13.4,8.9,17.9s12.9,7.3,21.2,7.3,15.7-2.8,21.2-7.3,8.9-10.9,8.9-17.9h-1.1l1.1.2,1.4-9.8-2.3.2-1.3,9.4h0c0,6.4-3.1,12.1-8.1,16.3s-12,6.8-19.8,6.8-14.8-2.6-19.8-6.8c-5-4.2-8.1-9.9-8.1-16.2h0v-.3h0c0-.2-.5-2.5-1.1-7.3l-2.2.9h0Z"/>
      <path class="cls-12" d="M688.3,217.1c0,0-1.5-.7-3.8-.8-1.7,0-4,.4-6.5,1.7-.5.3-.7,1-.5,1.5.3.5,1,.8,1.5.5,2.2-1.2,4.1-1.5,5.5-1.5s1.6.1,2.1.3c.2,0,.4.1.5.2h0l.2-.3-.2.3h0l.2-.3-.2.3c.5.3,1.2,0,1.5-.5s0-1.2-.5-1.5h.1Z"/>
      <path class="cls-12" d="M684.5,232.9c0,2.3,1,4.2,2.3,4.2s2.3-1.9,2.3-4.2-1-4.2-2.3-4.2-2.3,1.9-2.3,4.2"/>
      <path class="cls-12" d="M684.5,232.9h-.6c0,1.2.3,2.4.7,3.2.2.4.5.8.9,1.1.3.3.8.5,1.2.5s.9-.2,1.2-.5c.5-.4.9-1,1.2-1.8.3-.7.4-1.6.4-2.5s-.3-2.4-.7-3.2c-.2-.4-.5-.8-.9-1.1-.3-.3-.8-.5-1.2-.5s-.9.2-1.2.5c-.5.4-.9,1-1.2,1.8-.3.7-.4,1.6-.4,2.5h1.2c0-1.1.2-2,.6-2.7.2-.3.4-.6.6-.7.2-.1.4-.2.5-.2.2,0,.3,0,.5.2.3.2.6.7.8,1.3s.3,1.3.3,2.1-.2,2-.6,2.7c-.2.3-.4.6-.6.7-.2.1-.4.2-.5.2-.2,0-.3,0-.5-.2-.3-.2-.6-.7-.8-1.3s-.3-1.3-.3-2.1h-.6Z"/>
      <path class="cls-12" d="M708.8,218.4l-.2-.4.2.4h0l-.2-.4.2.4s1.1-.5,2.8-.5,3.2.3,5.5,1.5c.5.3,1.2,0,1.5-.5s0-1.2-.5-1.5c-2.5-1.3-4.8-1.7-6.5-1.7s-3.7.7-3.8.8c-.5.3-.8.9-.5,1.5.3.5.9.8,1.5.5h0Z"/>
      <path class="cls-12" d="M714.2,232.2c0,2.3-1,4.2-2.3,4.2s-2.3-1.9-2.3-4.2,1-4.2,2.3-4.2,2.3,1.9,2.3,4.2"/>
      <path class="cls-12" d="M714.2,232.2h-.6c0,1.1-.2,2-.6,2.7-.2.3-.4.6-.6.7-.2.1-.4.2-.5.2-.2,0-.3,0-.5-.2-.3-.2-.6-.7-.8-1.3s-.4-1.3-.3-2.1c0-1.1.2-2,.6-2.7.2-.3.4-.6.6-.7.2-.1.4-.2.5-.2.2,0,.3,0,.5.2.3.2.6.7.8,1.3s.3,1.3.3,2.1h1.2c0-1.2-.3-2.4-.7-3.2-.2-.4-.5-.8-.9-1.1-.3-.3-.8-.5-1.2-.5s-.9.2-1.2.5c-.5.4-.9,1-1.2,1.8-.3.7-.4,1.6-.4,2.5s.3,2.4.7,3.2c.2.4.5.8.9,1.1.3.3.8.5,1.2.5s.9-.2,1.2-.5c.5-.4.9-1,1.2-1.8.3-.7.4-1.6.4-2.5h-.6Z"/>
      <path class="cls-12" d="M700.1,232.7l-2.6,4.9c-.4.7-.6,1.6-.6,2.4,0,1.4.6,2.8,1.6,3.7l2,1.8c.4.4,1.1.4,1.6,0,.4-.4.4-1.1,0-1.6l-2-1.8c-.6-.6-.9-1.3-.9-2.1s0-.9.3-1.3l2.6-4.9c.3-.5,0-1.2-.5-1.5s-1.2,0-1.5.5h0Z"/>
      <path class="cls-14" d="M680.1,241.3c-4.2,0-7.6,3.4-7.6,7.6s3.4,7.6,7.6,7.6,7.6-3.4,7.6-7.6-3.4-7.6-7.6-7.6"/>
      <path class="cls-14" d="M719.3,241.5c-4.2,0-7.6,3.4-7.6,7.6s3.4,7.6,7.6,7.6,7.6-3.4,7.6-7.6-3.4-7.6-7.6-7.6"/>
      <path class="cls-16" d="M704,250.1c1.8,0,3.4,1.4,3.3,3.3h0c-.3,3.9-3.5,6.8-7.3,6.5s-6.7-3.6-6.4-7.5h0c0-1.1,1-1.8,2-1.9l8.4-.4h0Z"/>
      <path class="cls-12" d="M704,250.1v1.1h.2c.6,0,1.1.2,1.5.6.4.4.6.8.6,1.4h0c0,.1,1.1.2,1.1.2h-1.1c-.2,3.1-2.7,5.5-5.7,5.5h-.4c-3-.2-5.4-2.8-5.4-5.9s0-.3,0-.4h0c0-.2,0-.4.3-.6.2-.2.4-.3.7-.3l8.4-.4v-2.2c0,0-8.5.4-8.5.4-.8,0-1.5.4-2.1.9s-.9,1.2-1,2h0v.6c0,4.2,3.2,7.8,7.4,8.1h.6c4.2,0,7.6-3.3,7.9-7.6h0v-.2c0-1.2-.5-2.2-1.3-3-.8-.7-1.8-1.2-3-1.2h-.2v1.1h0Z"/>
      <path class="cls-12" d="M696.8,232.8h-1.1c0,3-1.2,5.7-3.2,7.7s-4.7,3.2-7.7,3.2-5.7-1.2-7.7-3.2-3.2-4.7-3.2-7.7,1.2-5.7,3.2-7.7,4.7-3.2,7.7-3.2,5.7,1.2,7.7,3.2,3.2,4.7,3.2,7.7h2.2c0-7.2-5.9-13.1-13.1-13.1s-13.1,5.9-13.1,13.1,5.9,13.1,13.1,13.1,13.1-5.9,13.1-13.1h-1.1Z"/>
      <path class="cls-12" d="M727.2,232.4h-1.1c0,3-1.2,5.7-3.2,7.7s-4.7,3.2-7.7,3.2-5.7-1.2-7.7-3.2-3.2-4.7-3.2-7.7,1.2-5.7,3.2-7.7,4.7-3.2,7.7-3.2,5.7,1.2,7.7,3.2,3.2,4.7,3.2,7.7h2.2c0-7.2-5.9-13.1-13.1-13.1s-13.1,5.9-13.1,13.1,5.9,13.1,13.1,13.1,13.1-5.9,13.1-13.1h-1.1Z"/>
      <path class="cls-12" d="M698.2,233.8l-.2-.4.2.4h0l-.2-.4.2.4s1-.5,2.6-.5,1.4,0,2.2.3c.6.1,1.2-.2,1.3-.8s-.2-1.2-.8-1.3c-1-.3-1.9-.3-2.7-.3-2.3,0-3.6.8-3.7.8-.5.3-.7,1-.4,1.5s1,.7,1.5.4h0Z"/>
      <path class="cls-12" d="M663.1,236.3h0s.6.8,1.2,1.9c.6,1.2,1.1,2.8,1.1,4.6s0,1.4-.3,2.1c0,.6.2,1.2.8,1.3s1.2-.2,1.3-.8c.2-.9.3-1.8.3-2.7,0-2.3-.7-4.3-1.4-5.7s-1.4-2.2-1.4-2.3c-.4-.5-1.1-.5-1.6-.1s-.5,1.1,0,1.6h.1Z"/>
      <path class="cls-12" d="M658.4,241.5h7.8c.6,0,1.1-.5,1.1-1.1s-.5-1.1-1.1-1.1h-7.8c-.6,0-1.1.5-1.1,1.1s.5,1.1,1.1,1.1"/>
      <path class="cls-12" d="M735.4,232.9s-.7.9-1.4,2.3c-.7,1.4-1.4,3.4-1.4,5.7s0,1.7.3,2.7c0,.6.7,1,1.3.8s1-.7.8-1.3c-.2-.7-.3-1.5-.3-2.1,0-1.9.6-3.5,1.2-4.7.3-.6.6-1.1.8-1.4,0-.2.2-.3.3-.4h0c.4-.5.3-1.2,0-1.6-.5-.4-1.2-.3-1.6.1h.1Z"/>
      <path class="cls-12" d="M741.8,237.3h-7.8c-.6,0-1.1.5-1.1,1.1s.5,1.1,1.1,1.1h7.8c.6,0,1.1-.5,1.1-1.1s-.5-1.1-1.1-1.1"/>
      <path class="cls-19" d="M693.7,296.6c-1.2-2.1.3-4.7,2.7-4.7h7.1c2.4,0,3.9,2.6,2.7,4.7l-1.8,3.1-1.8,3.1c-1.2,2.1-4.2,2.1-5.5,0l-1.8-3.1-1.8-3.1h.2Z"/>
      <path class="cls-12" d="M693.7,296.6l1-.6c-.2-.3-.3-.7-.3-1,0-.5.2-1,.6-1.4.4-.4.9-.6,1.5-.6h7.1c.6,0,1.1.2,1.5.6s.6.9.6,1.4,0,.7-.3,1l-1.8,3.1-1.8,3.1c-.4.7-1.1,1-1.8,1s-1.4-.3-1.8-1l-1.8-3.1-1.8-3.1-1,.6-1,.6,1.8,3.1,1.8,3.1c.8,1.4,2.3,2.1,3.7,2.1s2.9-.7,3.7-2.1l1.8-3.1,1.8-3.1c.4-.7.6-1.4.6-2.1,0-1.1-.4-2.2-1.2-3s-1.8-1.3-3.1-1.3h-7.1c-1.2,0-2.3.5-3.1,1.3s-1.2,1.8-1.2,3,.2,1.4.6,2.1l1-.6Z"/>
    </g>
  </g>
  <polygon class="cls-19" points="697 301.3 703.6 301.3 709.3 331.3 693.3 331.9 697 301.3"/>
  <g class="cls-33">
    <g>
      <path class="cls-12" d="M697,301.3v1.1h5.6l5.3,27.8-13.4.5,3.6-29.3h-1.1c0-.1,0,1,0,1v-1.1h-1.1c0-.1-3.7,30.5-3.7,30.5,0,.3,0,.6.3.9s.5.4.9.4l16-.6c.3,0,.6-.2.8-.4.2-.3.3-.6.2-.9l-5.8-30c0-.5-.6-.9-1.1-.9h-6.5c-.6,0-1,.4-1.1,1h1.1Z"/>
      <path class="cls-23" d="M698,291.1l-11.3-14.6s-6.8,3.4-7,4.4c-.3.9,2.9,27.8,2.9,27.8l15.4-17.5h0Z"/>
      <path class="cls-12" d="M698,291.1l.9-.7-11.3-14.6c-.3-.4-.9-.6-1.4-.3,0,0-1.7.9-3.5,1.9-.9.5-1.8,1-2.5,1.5-.4.2-.7.5-.9.7,0,.1-.3.2-.4.4,0,.1-.2.3-.3.6h0v.5c0,.4,0,1.1,0,2.1.6,6.7,2.8,25.7,2.8,25.7,0,.4.4.8.8.9.4.1.9,0,1.2-.3l15.4-17.5c.3-.4.4-1,0-1.4l-.9.7-.8-.7-15.4,17.5.8.7h1.1c0-.1-.2-1.7-.5-4.1-.4-3.6-1-9-1.5-13.7-.3-2.4-.5-4.6-.6-6.4,0-.9,0-1.6-.2-2.2v-1.2h-.7c0-.1.7.1.7.1h0c0-.1-.7-.1-.7-.1h.7c0,.1-.7-.1-.7-.1l.6.4v-.2l-.7-.2.6.4h-.2c0-.1.2,0,.2,0h0l-.2-.2.2.2s.2-.2.4-.3c.8-.6,2.4-1.5,3.7-2.2.7-.4,1.3-.7,1.7-.9.5-.2.7-.4.7-.4l-.5-1-.9.7,11.3,14.6.9-.7-.8-.7.8.7v-.2Z"/>
      <path class="cls-23" d="M703.1,291.1l11.3-14.6s6.8,3.4,7,4.4c.3.9-2.9,27.8-2.9,27.8l-15.4-17.5h0Z"/>
      <path class="cls-12" d="M703.1,291.1l.9.7,11.3-14.6-.9-.7-.5,1s0,0,.3.1c.6.3,2.3,1.2,3.7,2s1.4.8,1.9,1.2c.2.2.4.3.5.4h0l.5-.3-.6.2v.2l.5-.4-.6.2.7-.2h-.7v.2l.7-.2h-.7c0,.4,0,1.1,0,2-.3,3.3-1,9.7-1.6,15.3s-.6,5.4-.8,7.3-.4,3.1-.4,3.1h1.1c0,.1.8-.6.8-.6l-15.4-17.5-.8.7.9.7-.9-.7-.8.7,15.4,17.5c.3.3.7.5,1.2.3.4-.1.7-.5.8-.9,0,0,.7-6.2,1.4-12.8.4-3.3.7-6.6,1-9.4,0-1.4.2-2.6.3-3.5,0-1,0-1.6,0-2.1v-.5c0-.3-.2-.5-.3-.6-.2-.3-.5-.5-.8-.7-1-.7-2.6-1.7-4-2.4-1.4-.8-2.5-1.3-2.5-1.3-.5-.2-1.1-.1-1.4.3l-11.3,14.6c-.3.4-.3,1,0,1.4l.8-.7h.3Z"/>
      <path class="cls-13" d="M718.5,277.5l8.2,317.5s33.5,6.4,46.7-3.8l-2.9-195.2s22.9,20.2,34.9,4c3.7-5,4.6-11.5,2.8-17.5l-21.9-72.6c-3.2-10.7-12.1-18.8-23.2-21.1l-44.6-11.4h0Z"/>
      <path class="cls-12" d="M718.5,277.5h-1.1l8.2,317.6c0,.5.4,1,.9,1.1,0,0,10.5,2,22.1,2s9.4-.3,13.9-1.2c4.4-.9,8.5-2.4,11.6-4.8.3-.2.4-.5.4-.9l-2.9-195.2h-1.1l-.7.8s3,2.6,7.4,5.3c4.4,2.6,10.2,5.3,16.1,5.3s4.7-.4,6.9-1.5,4.3-2.8,6.1-5.2c2.6-3.6,3.9-7.8,3.9-12.1s-.3-4.3-.9-6.3l-21.9-72.6c-3.4-11.1-12.6-19.5-24-21.9l-.2,1.1.3-1.1-44.6-11.4c-.3,0-.7,0-1,.2s-.4.5-.4.9h1.1l-.3,1,44.6,11.4h0c10.6,2.2,19.2,10,22.3,20.4l21.9,72.6c.6,1.9.8,3.8.8,5.7,0,3.9-1.2,7.7-3.5,10.8-1.6,2.2-3.4,3.6-5.3,4.6-1.9.9-3.9,1.3-6,1.3-5.2,0-10.7-2.5-14.9-5-2.1-1.3-3.9-2.5-5.1-3.5s-1.1-.9-1.4-1.1c-.2-.1-.3-.2-.4-.3h0c-.3-.4-.8-.5-1.2-.3-.4.2-.7.6-.6,1l2.9,195.2h1.1l-.7-.9c-2.7,2.1-6.5,3.5-10.7,4.4s-8.9,1.2-13.4,1.2-11.1-.5-15.1-1c-2-.2-3.7-.5-4.8-.7-.6,0-1-.2-1.3-.2h-.5l-.2,1.1h1.1l-8.2-317.6h-1.1l-.3,1.1.3-1.1v-.2Z"/>
      <path class="cls-12" d="M756.3,379.7l13.3,17.1c.4.5,1.1.6,1.6.2s.6-1.1.2-1.6l-13.3-17.1c-.4-.5-1.1-.6-1.6-.2s-.6,1.1-.2,1.6"/>
      <path class="cls-12" d="M805.4,389.8c.2-.1.4-.3.5-.5,0-.2,0-.4,0-.5,0-.3,0-.5-.2-.9-.4-.9-1.4-2.8-4.7-7.4-2.6-3.7-9.3-13.2-15.4-21.7-3-4.3-5.9-8.3-8-11.3-1.1-1.5-1.9-2.7-2.5-3.5s-.9-1.3-.9-1.3c-.2-.3-.6-.5-1.1-.5s-.8.3-.9.7c-1.7,5-5,7.8-8.6,9.4s-7.4,1.9-10,1.9h-3c-.6,0-1.2.3-1.3.9,0,.6.3,1.2.9,1.3,0,0,1.3.2,3.3.2s6.9-.4,10.9-2.1c4-1.8,7.8-5,9.7-10.7l-1-.4-.9.6s21.6,30.4,26.8,37.8c2.1,3,3.3,4.8,3.9,5.9.3.5.5.9.5,1.1v.2h.2-.2.2-.2.7c0-.1-.7-.1-.7-.1h0c0,.1.7,0,.7,0h-.7,1l-.9-.4v.4h1l-.9-.4,1,.5-.5-.9c-.2.1-.4.3-.5.5l1,.5-.5-.9c-.5.3-.7,1-.4,1.5s1,.7,1.5.4v-.3Z"/>
      <path class="cls-7" d="M750.8,320.2h0c-1.8-.4-2.9-2.1-2.5-3.9l6.2-28.2c.4-1.8,2.1-2.9,3.9-2.5h0c1.8.4,2.9,2.1,2.5,3.9l-6.2,28.2c-.4,1.8-2.1,2.9-3.9,2.5"/>
      <path class="cls-12" d="M750.8,320.2l.2-1.1h0c-1-.2-1.7-1.1-1.7-2.1s0-.3,0-.5h0l6.3-28.2c.2-1,1.1-1.7,2.1-1.7h.5c1,.2,1.7,1.1,1.7,2.1s0,.3,0,.5h0l-6.2,28.2c-.2,1-1.1,1.7-2.1,1.7s-.3,0-.5,0h0l-.2,1.1-.2,1.1c.3,0,.6.1.9.1,2,0,3.8-1.4,4.3-3.4l6.3-28.2h0c0-.3,0-.6,0-.9,0-2-1.4-3.8-3.4-4.3h0c-.3,0-.6-.1-1-.1-2,0-3.8,1.4-4.3,3.4l-6.2,28.2h0c0,.3,0,.6,0,.9,0,2,1.4,3.8,3.4,4.3h0l.2-1.1h0Z"/>
      <path class="cls-20" d="M740.7,320.7s-2-7,2.6-7.5c2.9-.4,10.7,1,16.4,2.1,3.9.8,7,3.6,8,7.4l5.6,20.6s-7.3,16.5-22.8,10.1-8.6-22.6-8.6-22.6c0,0-7.2-6.1-1.3-10.1"/>
      <path class="cls-12" d="M740.7,320.7l1.1-.3h0c0-.1-.4-1.5-.4-2.9s0-1.7.5-2.2c.2-.3.3-.5.6-.7.2-.2.6-.3,1-.4h1c1.6,0,4.1.3,6.9.7,2.7.4,5.7,1,8.2,1.4,3.5.7,6.2,3.2,7.1,6.6l5.6,20.6,1.1-.3-1-.4h0c0,.3-1.4,3.1-3.9,5.8-1.2,1.3-2.8,2.6-4.6,3.6s-3.9,1.6-6.3,1.6-4.1-.4-6.4-1.4c-3.9-1.6-6.2-3.8-7.6-6.2-1.4-2.4-1.8-5-1.8-7.3s.4-4,.7-5.4c.2-.7.4-1.3.5-1.6s0-.3.2-.4h0c0-.1.3-.8.3-.8l-.6-.5h0s-.9-.8-1.7-1.9c-.4-.5-.8-1.1-1.1-1.8-.3-.6-.4-1.2-.4-1.8s0-1,.4-1.4c.3-.5.7-1,1.4-1.5l.7-.5-.2-.8-1.1.3-.6-.9c-1,.7-1.7,1.4-2.1,2.2-.5.8-.7,1.7-.7,2.5s.3,2,.7,2.8c.6,1.3,1.4,2.3,2.1,3.1.7.8,1.2,1.2,1.3,1.2l.7-.8-1-.4s-1.6,3.8-1.6,8.5.5,5.7,2.1,8.5,4.4,5.4,8.7,7.1c2.6,1.1,5.1,1.5,7.3,1.5s5.4-.8,7.6-1.9c3.2-1.8,5.5-4.3,7-6.5,1.5-2.1,2.3-3.8,2.3-3.9l.2-.4-5.7-21c-1.1-4.2-4.6-7.4-8.9-8.2-2.5-.5-5.5-1-8.3-1.5-2.8-.4-5.4-.7-7.2-.7h-1.3c-.8,0-1.5.3-2,.7-.8.6-1.4,1.4-1.7,2.2-.3.8-.4,1.7-.4,2.5,0,1.9.5,3.4.5,3.5l1.1-.3-.6-.9.6.9h-.3Z"/>
      <path class="cls-12" d="M742.3,321.3h0c.7-.2,3.6-.7,6.8-.7s2.9.1,4.2.4,2.4.8,3,1.4c.4.4,1.1.4,1.6,0,.4-.4.4-1.1,0-1.6-1.1-1-2.5-1.6-4.1-2-1.5-.4-3.2-.5-4.7-.5-3.9,0-7.3.7-7.4.7-.6.1-1,.7-.9,1.3,0,.6.7,1,1.3.9h.1Z"/>
      <path class="cls-12" d="M739.4,328.4h.2c.9-.1,4.9-.8,9.2-.8s4.9.2,6.9.8c.6.2,1.2-.2,1.4-.8.2-.6-.2-1.2-.8-1.4-2.3-.6-4.9-.8-7.5-.8-5.1,0-9.7.8-9.7.8-.6.1-1,.7-.9,1.3,0,.6.7,1,1.3.9h-.1Z"/>
      <path class="cls-12" d="M760.8,315.5h0c0-.3.5-2.7,1.8-6,1.3-3.2,3.6-7.2,7.1-10.6.4-.4.5-1.1,0-1.6-.4-.4-1.1-.5-1.6,0-3.9,3.8-6.3,8.2-7.7,11.7s-1.8,6.1-1.8,6.1c0,.6.3,1.2.9,1.3.6.1,1.2-.3,1.3-.9Z"/>
      <path class="cls-12" d="M720.6,277.7l-.5,1,18.5,9.7-8.2,21.2c-.2.4,0,.9.2,1.2l8.1,8.1-16.9,46.2-2.3-86.1h-.4.4-.4.4v-.2h.2c0-.1.2,0,.2,0l.5-1,.5-1c-.4-.2-.8-.3-1.2-.3-.7,0-1.3.3-1.8.7-.5.4-.8,1.1-.8,1.8h1.1-1.1l2.4,92c0,.5.4,1,.9,1.1.5,0,1-.2,1.2-.7l19.1-52.3c0-.4,0-.9-.3-1.2l-8.1-8.1,8.3-21.5c.2-.5,0-1.1-.5-1.4l-19.4-10.2-.5,1h.4Z"/>
    </g>
  </g>
  <rect class="cls-6" x="702.3" y="322.7" width="34.1" height="9.1"/>
  <g class="cls-34">
    <path class="cls-12" d="M736.3,331.9v-1.1h-33v-6.9h31.9v8h1.1v-1.1,1.1h1.1v-9.1c0-.3,0-.6-.3-.8-.2-.2-.5-.3-.8-.3h-34.1c-.3,0-.6.1-.8.3-.2.2-.3.5-.3.8v9.1c0,.3,0,.6.3.8.2.2.5.3.8.3h34.1c.3,0,.6-.1.8-.3.2-.2.3-.5.3-.8h-1.1Z"/>
  </g>
  <rect class="cls-5" x="679.7" y="328" width="77.4" height="89.9"/>
  <g class="cls-35">
    <g>
      <path class="cls-12" d="M757.2,417.8v-1.1h-76.3v-87.7h75.2v88.8h1.1v-1.1,1.1h1.1v-89.9c0-.3,0-.6-.3-.8-.2-.2-.5-.3-.8-.3h-77.4c-.3,0-.6.1-.8.3-.2.2-.3.5-.3.8v89.9c0,.3,0,.6.3.8.2.2.5.3.8.3h77.4c.3,0,.6-.1.8-.3.2-.2.3-.5.3-.8h-1.1Z"/>
      <path class="cls-20" d="M683.8,379l4.9-5.1s12.9-11.4,14.7-9.9-3.1,8.9-4.2,10.8c-1.1,2-1.2,4.3,3.1,3.8s19.4-5.7,21.3-4.3c2,1.4.2,2.9-15,9.2,0,1.1,20.9-3.9,21.4.4.6,5-21.7,3.9-21.6,4.9.9,1.5,20.8-.8,20.2,4-.5,3.9-20.4,1-20.6,3.2.5,1.5,15.1,2,15.9,5.5.7,3.1-5.9,2-12.1,2.3-11.2.5-26.5,3.3-25.5-3.1,1.9-11.7-2.4-21.9-2.4-21.9"/>
      <path class="cls-12" d="M683.8,379l.8.8,4.9-5.1-.8-.8.7.8s.2-.2.5-.4c1.1-1,3.9-3.3,6.7-5.5,1.4-1.1,2.8-2.1,4-2.8.6-.4,1.1-.6,1.5-.8.4-.2.7-.2.8-.2h0v-.4l-.3.4c0,.1.2.1.3.1v-.5l-.3.4h0v-.2c0,0-.1,0-.1,0v.2-.2c0,0,0,.1,0,.1h0v.3c0,.4-.2,1.1-.5,2-.5,1.3-1.3,2.8-2.1,4.1-.8,1.3-1.5,2.5-1.9,3.1-.5.8-.8,1.7-.8,2.6s0,.8.2,1.2c.2.6.7,1.1,1.3,1.4s1.3.4,2.1.4h1.3c1.1-.1,2.5-.5,4.3-.9,2.6-.7,5.9-1.6,8.8-2.3,1.5-.4,2.9-.7,4.1-.9,1.2-.2,2.2-.4,2.9-.4h.5l.2-.3-.2.3h0l.2-.3-.2.3h0c0,0,.2.2.2.2h.3c0-.1-.4-.1-.4-.1v.2l.4-.2h-.4.3-.3.3-.3s-.2.3-.8.7c-.8.6-2.4,1.4-4.7,2.5s-5.4,2.4-9.5,4.1l-.7.3v.7c0,.2,0,.4.2.6.2.3.4.4.6.5.2.1.4.1.6.2h.5c.7,0,1.6-.1,2.8-.2,3.5-.4,9-1.3,12.8-1.3s2.5.1,3.2.3c.4.1.6.2.7.3h0v.4c0,.2-.5.5-1.1.8-1.1.5-2.9.9-5,1.2-3.1.4-6.7.6-9.5.8-1.4,0-2.6.1-3.5.2-.5,0-.8,0-1.2.2-.2,0-.3,0-.5.2,0,0-.2.1-.4.3,0,.2-.3.5-.3.8v.3h0v.2c0,.2.3.4.5.5.3.2.6.3.9.3.6.1,1.2.2,2.1.2,2.8.2,7.2,0,10.8.4,1.8.2,3.4.4,4.5.8.5.2.9.4,1.1.6l.2.2v.2h0c0,.1-.5.4-1.1.5-1.1.3-2.8.5-4.8.6-2.9.1-6.3,0-9,.1-1.4,0-2.5.1-3.5.3-.5,0-.9.2-1.3.4s-.4.2-.6.5c-.2.2-.3.5-.4.9v.4c0,.2.2.4.3.6.2.3.5.4.7.5.5.2,1,.4,1.6.5,2.1.5,5.5,1,8.3,1.7,1.4.3,2.7.7,3.6,1.2.4.2.8.4,1,.6s.3.3.3.4v.2h0l-.2.2c-.3.1-.8.3-1.6.4-.8,0-1.7.1-2.8.1h-6.5c-5.5.3-12,1-16.9,1s-4.5-.2-5.8-.7c-.7-.2-1.1-.5-1.3-.8s-.3-.5-.4-1v-.4h0c.3-2.2.5-4.2.5-6.2,0-9.2-3-16.1-3-16.2l-1,.4.8.8-.8-.8-1,.4h0c.3.8,2.8,7.2,2.8,15.4s0,3.9-.5,5.9h0v.7c0,.9.3,1.8.9,2.5.9,1,2.2,1.5,3.6,1.8,1.5.3,3.2.4,5.1.4,5.2,0,11.6-.8,17-1h6.4c1.7,0,3.1,0,4.4-.3.6-.2,1.2-.4,1.7-.8.2-.2.5-.5.6-.8s.2-.7.2-1v-.6c0-.4-.3-.8-.5-1.1-.4-.6-1-1-1.7-1.3-1.1-.6-2.6-1-4.1-1.4-2.3-.6-4.9-1-6.8-1.4-1-.2-1.8-.4-2.4-.6-.3,0-.5-.2-.6-.2h0l-.2.3.3-.2h0l-.2.2.3-.2-.6.5.7-.2c0-.1,0-.2,0-.3l-.6.5.7-.2-1.1.3h1.1-.7l.6.4s0-.2,0-.4h-.7l.6.4-.4-.3.3.4h0c0-.1-.4-.4-.4-.4l.3.4h.3c.4,0,1-.2,1.8-.2,2.7-.2,7,0,10.8-.2,1.9,0,3.6-.2,5-.6.7-.2,1.3-.4,1.8-.8.3-.2.5-.4.7-.7.2-.3.3-.6.4-1h0v-.4c0-.5,0-1-.4-1.4-.5-.7-1.2-1.2-1.9-1.5-1.4-.6-3.1-.9-5.1-1.1-2.9-.3-6.3-.3-8.9-.3s-2.5,0-3.3-.2c-.4,0-.7,0-.9-.1h0l-.3.6.5-.3c0-.2-.2-.2-.2-.3l-.3.6.5-.3-1,.6,1.1-.3-1,.3h1.1v-.3l-1,.3h1.1-1l.8.6c0-.1.2-.4.2-.6h-1l.8.6-.7-.5.3.8s0,0,.3-.3l-.7-.5.3.8v-.2c0,0,0,.3,0,.3h0v-.3c0,0,0,.3,0,.3h.6c1-.1,2.8-.2,4.9-.3,3.2-.2,7.1-.4,10.4-1,1.6-.3,3-.7,4.2-1.3.6-.3,1.1-.6,1.5-1.1s.7-1.1.7-1.8v-.3c0-.6-.4-1.2-.8-1.5-.7-.5-1.4-.8-2.3-1-.9-.2-1.9-.2-3-.2-2.8,0-6.1.4-9.1.8-1.5.2-2.9.4-4,.5s-2.1.2-2.5.2h-.2v.6c0,0,.2-.5.2-.5h-.2v.6c0,0,.2-.5.2-.5l-.5.8.8-.5c0-.2-.2-.2-.3-.3l-.5.8.8-.5-.9.6h1c0-.2,0-.4-.2-.6l-.9.6h1-1.1l.4,1c6-2.5,9.9-4.3,12.4-5.6,1.2-.7,2.1-1.2,2.8-1.8.3-.3.6-.5.8-.9.2-.3.4-.7.4-1.1s-.2-.9-.4-1.1c-.2-.3-.5-.5-.7-.7h0c-.3-.2-.6-.3-.9-.4h-.9c-1.2,0-2.8.3-4.6.7-2.7.6-6,1.5-8.9,2.3-1.5.4-2.8.8-4,1.1-1.2.3-2.2.5-2.8.6h-1c-.8,0-1.2-.2-1.3-.3h0v-.4c0-.3.2-.9.5-1.5.5-.8,1.6-2.6,2.7-4.6.5-1,1-2,1.4-3s.6-1.9.7-2.8c0-.3,0-.6-.2-1,0-.3-.3-.7-.6-.9h0c-.4-.3-.8-.4-1.2-.4-.7,0-1.2.2-1.9.5-1.1.5-2.5,1.4-3.9,2.4-4.2,3-9.2,7.3-9.2,7.4h0l-5.5,5.6.3.7,1-.4.3-.8Z"/>
      <path class="cls-13" d="M682.2,282.4l-2.5,96.6h4.1s5,9,1.5,29.6h-6.4l-1.8,186.7s-18.1,9-40,0v-178.6l-14.1-.5c-14.7-.9-25.1-14.8-21.7-29.1l24.4-80.8c1.9-7.9,7.9-14.3,15.8-16.6l40.7-11.3"/>
      <path class="cls-12" d="M681.1,282.4l-2.5,96.6c0,.3,0,.6.3.8.2.2.5.3.8.3h4.1v-1.1l-1,.5c0,.2,2.6,4.9,2.6,15.3s-.3,8.3-1.2,13.6l1.1.2v-1.1h-6.4c-.6,0-1.1.5-1.1,1.1l-1.8,186.7h1.1l-.5-1h0c-.4.2-8.1,3.9-19.4,3.9s-12.5-1-19.7-3.9l-.4,1h1.1v-178.6c0-.6-.5-1.1-1.1-1.1l-14.1-.5v1.1-1.1c-12.2-.8-21.3-10.9-21.3-22.5s.2-3.5.6-5.2l-1.1-.3,1.1.3,24.4-80.8h0c1.8-7.6,7.5-13.6,15-15.8l-.3-1.1.3,1.1,40.7-11.3c.6-.2.9-.8.8-1.4-.2-.6-.8-.9-1.4-.8l-40.7,11.3h0c-8.3,2.4-14.6,9-16.6,17.4l1.1.3-1.1-.3-24.4,80.8h0c-.5,2-.7,3.9-.7,5.8,0,12.7,10,23.9,23.4,24.7h0l13,.4v177.6c0,.4.3.9.7,1,7.4,3.1,14.5,4.1,20.5,4.1,12.1,0,20.3-4.1,20.4-4.1.4-.2.6-.6.6-1l1.7-185.6h5.3c.5,0,1-.4,1.1-.9.9-5.4,1.3-10.1,1.3-14,0-11.1-2.8-16.2-2.8-16.3-.2-.4-.6-.6-1-.6h-2.9l2.4-95.4c0-.6-.5-1.1-1.1-1.1s-1.1.5-1.1,1.1h.2Z"/>
      <path class="cls-12" d="M620.5,384.4h0c.9-.2,17.2-4.3,55.4-4.3s2.5,0,3.8,0,1.1-.5,1.1-1.1-.5-1.1-1.1-1.1h-3.8c-39.6,0-55.9,4.4-56,4.4-.6.2-.9.8-.8,1.4.2.6.8.9,1.4.8h0Z"/>
      <path class="cls-12" d="M637.4,417.8l41.7-8.1c.6-.1,1-.7.9-1.3,0-.6-.7-1-1.3-.9l-41.7,8.1c-.6.1-1,.7-.9,1.3,0,.6.7,1,1.3.9"/>
      <path class="cls-12" d="M640.8,379.4s-3.5-1.7-7.5-3.5-4.2-1.8-6.2-2.6c-2-.7-3.7-1.3-5-1.5-.6,0-1.2.3-1.3.9,0,.6.3,1.2.9,1.3,1,.1,2.7.7,4.6,1.4,2.9,1.1,6.2,2.6,8.9,3.8,1.3.6,2.5,1.2,3.3,1.6s1.3.6,1.3.6c.5.3,1.2,0,1.5-.5s0-1.2-.5-1.5h0Z"/>
      <path class="cls-12" d="M642.8,380.3v-62.4c0-.6-.5-1.1-1.1-1.1s-1.1.5-1.1,1.1v62.4c0,.6.5,1.1,1.1,1.1s1.1-.5,1.1-1.1"/>
      <path class="cls-12" d="M631,315.8s1.2,2.5,3.1,5.5c1.9,3,4.3,6.6,6.8,8.9.5.4,1.2.4,1.6,0,.4-.5.4-1.2,0-1.6-2.2-2-4.6-5.5-6.4-8.5s-1.6-2.8-2.2-3.8-.5-.9-.6-1.2c0-.1,0-.2-.2-.3h0c-.3-.7-.9-.9-1.5-.6-.5.3-.8.9-.5,1.5h0Z"/>
      <path class="cls-12" d="M680,279.7l-.5-1-19.4,10.2c-.5.3-.7.9-.5,1.4l8.3,21.5-8.1,8.1c-.3.3-.4.8-.3,1.2l19.1,52.3c.2.5.7.8,1.2.7.5,0,.9-.5.9-1.1l2.4-91.9h0c0-.7-.3-1.4-.8-1.8s-1.1-.7-1.8-.7-.8,0-1.2.3h0l.5,1,.5,1h.4v.2h0l-2.3,86.1-16.9-46.2,8.1-8.1c.3-.3.4-.8.2-1.2l-8.2-21.2,18.5-9.7h0l-.5-1h.4Z"/>
      <path class="cls-10" d="M654.3,347h-1c-.9,0-1.6-.7-1.6-1.6v-11.9c0-.9.7-1.6,1.6-1.6h1c.9,0,1.6.7,1.6,1.6v11.9c0,.9-.7,1.6-1.6,1.6"/>
      <path class="cls-12" d="M654.3,347v-1.1h-1c-.3,0-.5-.2-.5-.5v-11.9c0-.3.2-.5.5-.5h1c.3,0,.5.2.5.5v11.9c0,.3-.2.5-.5.5v2.2c1.5,0,2.7-1.2,2.7-2.7v-11.9c0-1.5-1.2-2.7-2.7-2.7h-1c-1.5,0-2.7,1.2-2.7,2.7v11.9c0,1.5,1.2,2.7,2.7,2.7h1v-1.1Z"/>
      <path class="cls-19" d="M660.7,347h0c-1.1,0-2.1-.9-2.1-2.1v-11c0-1.1.9-2.1,2.1-2.1s2.1.9,2.1,2.1v11c0,1.1-.9,2.1-2.1,2.1"/>
      <path class="cls-12" d="M660.7,347v-1.1c-.5,0-1-.4-1-1v-11c0-.5.4-1,1-1s1,.4,1,1v11c0,.5-.4,1-1,1v2.2c1.8,0,3.2-1.4,3.2-3.2v-11c0-1.8-1.4-3.2-3.2-3.2s-3.2,1.4-3.2,3.2v11c0,1.8,1.4,3.2,3.2,3.2v-1.1Z"/>
      <path class="cls-13" d="M665.2,349.1h-15.3c-1.5,0-2.7-1.2-2.7-2.7v-1.6c0-1.5,1.2-2.7,2.7-2.7h15.3c1.5,0,2.7,1.2,2.7,2.7v1.6c0,1.5-1.2,2.7-2.7,2.7"/>
      <path class="cls-12" d="M665.2,349.1v-1.1h-15.3c-.9,0-1.6-.7-1.6-1.6v-1.6c0-.9.7-1.6,1.6-1.6h15.3c.9,0,1.6.7,1.6,1.6v1.6c0,.9-.7,1.6-1.6,1.6v2.2c2.1,0,3.8-1.7,3.8-3.8v-1.6c0-2.1-1.7-3.8-3.8-3.8h-15.3c-2.1,0-3.8,1.7-3.8,3.8v1.6c0,2.1,1.7,3.8,3.8,3.8h15.3v-1.1Z"/>
      <path class="cls-13" d="M668.4,471.8h-25c-1.7,0-3.1-1.4-3.1-3.1v-4.4c0-1.7,1.4-3.1,3.1-3.1h25c1.7,0,3.1,1.4,3.1,3.1v4.4c0,1.7-1.4,3.1-3.1,3.1"/>
      <path class="cls-12" d="M668.4,471.8v-1.1h-25c-1.1,0-2-.9-2-2v-4.4c0-1.1.9-2,2-2h25c1.1,0,2,.9,2,2v4.4c0,1.1-.9,2-2,2v2.2c2.3,0,4.2-1.9,4.2-4.2v-4.4c0-2.3-1.9-4.2-4.2-4.2h-25c-2.3,0-4.2,1.9-4.2,4.2v4.4c0,2.3,1.9,4.2,4.2,4.2h25v-1.1Z"/>
      <path class="cls-13" d="M763.1,471.8h-25c-1.7,0-3.1-1.4-3.1-3.1v-4.4c0-1.7,1.4-3.1,3.1-3.1h25c1.7,0,3.1,1.4,3.1,3.1v4.4c0,1.7-1.4,3.1-3.1,3.1"/>
      <path class="cls-12" d="M763.1,471.8v-1.1h-25c-1.1,0-2-.9-2-2v-4.4c0-1.1.9-2,2-2h25c1.1,0,2,.9,2,2v4.4c0,1.1-.9,2-2,2v2.2c2.3,0,4.2-1.9,4.2-4.2v-4.4c0-2.3-1.9-4.2-4.2-4.2h-25c-2.3,0-4.2,1.9-4.2,4.2v4.4c0,2.3,1.9,4.2,4.2,4.2h25v-1.1Z"/>
      <path class="cls-12" d="M689.5,437.5h0c.7-.5,4-2.6,7.9-4.7,2-1,4.1-2,6.2-2.8,2.1-.8,4.1-1.4,5.7-1.6.6,0,1-.6,1-1.2s-.6-1-1.2-1c-2.1.2-4.4,1-6.7,1.9-7,2.8-14.2,7.5-14.2,7.5-.5.3-.7,1-.3,1.5.3.5,1,.7,1.5.3h0Z"/>
      <path class="cls-12" d="M688.9,500.8h23.4c.6,0,1.1-.5,1.1-1.1s-.5-1.1-1.1-1.1h-23.4c-.6,0-1.1.5-1.1,1.1s.5,1.1,1.1,1.1"/>
      <path class="cls-12" d="M698,450.7s-1.4,21.2-1.4,29.9,0,1.4,0,2,0,1,0,1.4c.3,1.9,1,4.3,1.6,6.1.6,1.8,1.1,3.2,1.1,3.2l1-.4h-1.1v7.6c0,.6.5,1.1,1.1,1.1s1.1-.5,1.1-1.1v-7.6c0-.1,0-.3,0-.4v-.2c-.4-1.1-2-5.6-2.6-8.7v-3c0-4.3.3-11.7.7-18.1.2-3.2.3-6.1.5-8.2,0-2.1.2-3.4.2-3.4,0-.6-.4-1.1-1-1.2-.6,0-1.1.4-1.2,1h0Z"/>
      <path class="cls-12" d="M801.4,372s-1-1.1-2.7-2.1-4.2-2-7.3-2-1.1.5-1.1,1.1.5,1.1,1.1,1.1c2.6,0,4.7.9,6.2,1.7.7.4,1.3.9,1.7,1.2.2.2.3.3.4.4h0c.4.5,1.1.6,1.6.1.4-.4.5-1.1,0-1.6h0Z"/>
      <path class="cls-12" d="M764.5,316.1h0c.4-.4,4-3.6,9.3-6.4.5-.3.8-1,.5-1.5s-1-.8-1.5-.5c-6,3.1-9.8,6.7-9.9,6.8-.4.4-.5,1.1,0,1.6.4.4,1.1.5,1.6,0h0Z"/>
    </g>
  </g>
</svg>