<?xml version="1.0" encoding="UTF-8"?>
<svg id="_레이어_1" data-name=" 레이어 1" xmlns="http://www.w3.org/2000/svg" version="1.1" viewBox="0 0 475 475">
  <defs>
    <style>
      .cls-1 {
        fill: #6172e8;
      }

      .cls-1, .cls-2 {
        stroke-width: 0px;
      }

      .cls-3, .cls-4 {
        fill: none;
        stroke: #3d2117;
      }

      .cls-4 {
        stroke-width: 4px;
      }

      .cls-2 {
        fill: #fff;
      }
    </style>
  </defs>
  <rect class="cls-1" x="2" y="2" width="471" height="471" rx="14.2" ry="14.2"/>
  <rect class="cls-3" x="2" y="2" width="471" height="471" rx="14.2" ry="14.2"/>
  <g>
    <path class="cls-4" d="M356.5,204.8c.6,0,.8.2.8.7v3.6c0,.4.2.6.6.6h1.5c.4,0,.6-.2.6-.6v-3.3c0-.2,0-.5-.2-.6,0-.2-.3-.3-.5-.4h4.2c.7,0,1.3,0,1.9-.1s1.1,0,1.6-.1c.4,0,.6-.3.6-.7v-1.3c0-.4-.2-.6-.6-.6-1.2.1-2.4.2-3.8.3-1.4,0-2.9.1-4.6.1h-4.8c-1.5,0-2.7-.2-3.6-.3-.4,0-.6.1-.6.6v1.3c0,.4.2.6.6.7.4,0,.9,0,1.4.1s1,0,1.6.1h3.3ZM365.6,190.5c0-.4-.3-.6-.7-.6h-1.5c-.4,0-.6.2-.6.6,0,.9,0,1.8,0,2.5v2.1c0,.7-.2,1.4-.7,1.8-.5.4-1.2.6-2.3.6h-4.3c-1.4,0-2.8-.2-4.1-.3-.4,0-.6.1-.6.6v1.4c0,.4,0,.6.5.6,1.1.1,2.4.2,3.8.3,1.4,0,3,.1,4.6.1s3.5-.4,4.4-1.2,1.4-2.1,1.4-3.8v-2.2c0-.7,0-1.5,0-2.3v-.2Z"/>
    <path class="cls-4" d="M344.3,193c.4,0,.6-.1.6-.6v-1.5c0-.4-.2-.6-.6-.6-.7,0-1.3-.1-1.9-.2-.6,0-1.2,0-1.9-.1h-4.3c-1.8,0-3.2.5-4.2,1.5s-1.5,2.4-1.5,4.3v2.9c0,.8.2,1.6.3,2.4-.6,0-1.1,0-1.5-.1-.4,0-.6.1-.6.6v1.3c0,.4.2.6.6.7.4,0,.9,0,1.4.1.5,0,1,0,1.6.1h3.3c.5,0,.8.2.8.7v4.7c0,.4.2.6.6.6h1.5c.4,0,.6-.2.6-.6v-4.4c0-.2,0-.5-.2-.6-.1-.2-.3-.3-.5-.4h4.2c.7,0,1.3,0,1.9-.1s1.1,0,1.6-.1c.4,0,.6-.3.6-.7v-1.3c0-.4-.2-.6-.6-.6-1.2.1-2.4.2-3.8.3-1.4,0-2.9.1-4.6.1h-4.2v-.3c-.3-1.3-.4-2.9-.4-4.6s.3-2.3.8-2.8c.5-.6,1.4-.8,2.7-.8h3.9c1.2,0,2.4.2,3.6.3l.2-.2Z"/>
    <path class="cls-4" d="M317,200.3c0,2.6.5,4.5,1.3,5.7s1.9,1.8,3.5,1.8,2.8-.7,3.6-2.1,1.2-3.6,1.2-6.5-.4-5.2-1.2-6.5-2-2.1-3.6-2.1-2.6.6-3.4,1.7c-.8,1.1-1.2,2.9-1.4,5.3h-2c-.3,0-.5,0-.6-.1-.1,0-.2-.3-.2-.5v-6.8c0-.4-.2-.6-.6-.6h-1.4c-.4,0-.6.2-.6.6v19.8c0,.4.2.6.6.6h1.4c.4,0,.6-.2.6-.6v-10.2c0,.1.2.2.3.3.1,0,.3.1.5.1h2ZM321.7,193.3c.7,0,1.3.5,1.6,1.4s.5,2.5.5,4.5-.2,3.6-.5,4.6c-.3.9-.9,1.4-1.6,1.4s-1.3-.5-1.6-1.4-.5-2.5-.5-4.6.2-3.6.5-4.6c.3-.9.9-1.4,1.6-1.4h0ZM307.4,210.1c0,.4.2.6.6.6h1.4c.4,0,.6-.2.6-.6v-20.1c0-.4-.2-.6-.6-.6h-1.4c-.4,0-.6.2-.6.6v20.1Z"/>
    <path class="cls-4" d="M296.1,206.8c0,.2,0,.4.2.5,0,0,.2.1.5.1h1.4c.4,0,.6-.2.6-.6-.3-1.7-.5-3.6-.7-5.5s-.2-3.7-.2-5.5,0-.8,0-1.1.2-.5.3-.7c.2-.2.4-.3.6-.4.3,0,.6-.1,1-.1.8,0,1.5,0,2.2.1.7,0,1.3.2,1.9.3.2,0,.3,0,.5-.1.1-.1.2-.3.2-.5v-1.4c0-.4-.2-.6-.6-.6-.7-.1-1.4-.2-2.2-.3s-1.6-.1-2.3-.1-1.4,0-2,.2c-.5.2-1,.4-1.3.8s-.6.9-.7,1.5c-.1.6-.2,1.3-.2,2.2v2.2h-2.2c-.3,0-.5,0-.6-.1-.1,0-.2-.3-.2-.5v-6.8c0-.4-.2-.6-.6-.6h-1.4c-.4,0-.6.2-.6.6v19.8c0,.4.2.6.6.6h1.4c.4,0,.6-.2.6-.6v-10.2c0,.1.2.2.3.3.1,0,.3.1.5.1h2.2c0,1.1.2,2.2.3,3.3s.3,2.2.4,3.2h.1ZM285.5,210.1c0,.4.2.6.6.6h1.4c.4,0,.6-.2.6-.6v-20.1c0-.4-.2-.6-.6-.6h-1.4c-.4,0-.6.2-.6.6v20.1Z"/>
    <path class="cls-4" d="M271.8,206.7c.8.3,1.6.6,2.3.7.7.2,1.4.2,2.1.2,2,0,3.4-.6,4.4-1.8s1.5-2.9,1.5-5.2v-4.9c0-.7-.1-1.5-.2-2.2,0-.7-.1-1.4-.2-2.2,0-.4-.3-.6-.7-.6h-1.5c-.5,0-.7.2-.6.7.2,1.6.3,3.2.4,4.7,0,1.5.1,3.1.1,4.7s-.3,2.5-.8,3.1-1.4.9-2.6.9-2.3-.3-3.6-.9h-.2c-.2,0-.3.2-.5.5l-.4,1.4c-.1.3,0,.6.5.8h0ZM266.1,210c0,.4.2.6.6.6h1.5c.4,0,.6-.2.6-.6v-20c0-.4-.2-.6-.6-.6h-1.5c-.4,0-.6.2-.6.6v8.2c-.2-.3-.5-.5-1-.5h-1.4c-.4,0-.6.2-.6.6v1.4c0,.4.2.6.6.6h1.6c.6,0,.8.3.8.8v8.8h0Z"/>
    <path class="cls-4" d="M254.5,192.3c.4,0,.6-.2.6-.6v-1.2c0-.4-.2-.6-.6-.6h-10.7c-.4,0-.6.2-.6.6v1.2c0,.4.2.6.6.6h1.2l.3,4.8c-.7,0-1.4,0-1.8-.1-.4,0-.6.1-.6.6v1.2c0,.2,0,.3.1.4,0,0,.2.1.4.2.3,0,.6,0,1,.1s.9,0,1.4,0h6.5c1,0,1.8-.1,2.4-.2.2,0,.4,0,.4-.2,0,0,.1-.2.1-.4v-1.2c0-.4-.2-.6-.6-.6s-1.1,0-1.8.1l.3-4.8h1.4ZM237.9,210.6c.5,0,1,.1,1.6.2.6,0,1.1,0,1.7.1s1.1,0,1.6,0h1.4c1.7,0,3.1,0,4.2-.1,1.1,0,2-.3,2.7-.5s1.1-.6,1.4-1c.3-.4.4-.9.4-1.6s-.1-1.1-.4-1.5-.6-.7-1.2-1c-.6-.2-1.3-.4-2.3-.5-.9,0-2.1-.1-3.5-.1h-3.8c-.7,0-1.2-.3-1.2-.8s.4-.8,1.2-.8h5c1,0,1.9,0,2.8.1s1.7,0,2.4.1c.4,0,.6-.2.6-.6v-1.2c0-.4-.2-.5-.6-.6-.9,0-1.9-.1-2.9-.2h-9c-.8,0-1.3.2-1.6.5s-.5.8-.5,1.4.1.9.4,1.3c.3.4.7.7,1.1.8h-.8c-.4,0-.5.2-.5.5v1.1c0,.4.2.5.5.5h9.4c.6,0,1.1,0,1.4.1.3,0,.6.1.7.3.1.1.2.3.2.5s0,.4-.2.5-.4.2-.9.3c-.4,0-1,.1-1.8.1h-6c-.6,0-1.1,0-1.7-.1s-1.1-.1-1.5-.2c-.4,0-.6.1-.6.5v1.2c0,.4,0,.6.4.6h0ZM250.3,197.3h-2.3l-.3-4.9h2.9l-.3,4.9h0ZM240.8,190c0-.4-.2-.6-.6-.6h-1.5c-.4,0-.6.2-.6.6v8.9c0,.4.2.6.6.6h1.5c.4,0,.6-.2.6-.6v-8.9Z"/>
    <path class="cls-4" d="M232.8,196.5c0-2-.7-3.5-2-4.5-1.3-1.1-3.1-1.6-5.5-1.6s-4.2.5-5.5,1.6-2,2.6-2,4.5.2,2.1.6,2.9c.4.8,1,1.5,1.8,2v3.9c0,.5-.3.7-.8.7h-2.4c-.4,0-.6.1-.6.6v1.3c0,.4.2.6.6.6s.9.1,1.5.2c.6,0,1.3,0,2,.1h5c3.8,0,6.6-.1,8.4-.4.4,0,.6-.3.6-.6v-1.3c0-.4-.2-.6-.6-.6-.7,0-1.3.2-1.9.3s-1.2.1-1.8.2c.4-.2.6-.5.6-1v-4c.7-.5,1.2-1.2,1.6-1.9.4-.8.5-1.7.5-2.7v-.3ZM225.3,200.1c-1.6,0-2.7-.3-3.5-.9-.8-.6-1.2-1.5-1.2-2.6s.4-2,1.2-2.6,2-.9,3.6-.9,2.8.3,3.6.9c.8.6,1.2,1.5,1.2,2.6s-.4,2-1.2,2.6-2,.9-3.5.9h-.2ZM223,202.5c.7.1,1.5.2,2.3.2s1.8,0,2.6-.3v3.1c0,.5-.3.7-.8.7h-4.8c.2,0,.3-.2.5-.4s.2-.4.2-.7v-2.7h0Z"/>
    <path class="cls-4" d="M203.1,190.2c-.4,0-.6.2-.6.6v1.3c0,.4.2.6.6.6h10.7c.4,0,.6-.2.6-.6v-1.3c0-.4-.2-.6-.6-.6h-4.4c.2-.1.4-.3.4-.6v-.6c0-.4-.2-.6-.6-.6h-1.6c-.4,0-.6.2-.6.6v.8c0,.3-.2.4-.5.4h-3.4ZM213.7,197.9c0-2.6-1.7-4-5.2-4s-5.2,1.3-5.2,4,1.7,4,5.2,4,5.2-1.3,5.2-4ZM211.7,204.4c0-.4-.3-.6-.7-.6h-1.4c-.2,0-.4,0-.5.2-.1.1-.2.3-.1.5v1.9c0,.7-.2,1.3-.6,1.6-.4.4-1,.6-1.8.6h-4.9c-.7,0-1.4,0-2-.1-.6,0-1.3-.1-2-.2-.4,0-.6.1-.6.6v1.3c-.1.4,0,.6.5.6,1.2.1,2.5.2,4,.3s3.1.1,5,.1,3-.4,3.9-1.2,1.4-1.9,1.4-3.3,0-1.6-.1-2.2h0ZM208.5,199.5c-.9,0-1.5-.1-1.9-.4-.4-.2-.6-.6-.6-1.1s.2-.9.6-1.1c.4-.2,1-.4,1.9-.4s1.5.1,1.9.4c.4.2.6.6.6,1.1s-.2.9-.6,1.1c-.4.2-1,.4-1.9.4ZM197.7,203.5c0,.4.2.6.6.6h1.5c.4,0,.6-.2.6-.6v-13.5c0-.4-.2-.6-.6-.6h-1.5c-.4,0-.6.2-.6.6v5.6c-.2-.3-.5-.5-1-.5h-1.4c-.4,0-.6.2-.6.6v1.3c0,.4.2.6.6.6h1.6c.6,0,.8.3.8.8v5.1h0Z"/>
    <path class="cls-4" d="M180.8,203.1c.2.6.4,1.1.7,1.6.3.5.7.9,1.2,1.3.4.4.9.7,1.5,1s1.1.4,1.7.5c.4,0,.6-.1.6-.6v-1.4c0-.4-.2-.6-.6-.6s-1-.3-1.4-.6-.8-.7-1.2-1.2-.6-1.1-.8-1.7c-.2-.6-.3-1.3-.3-2v-7.7c0-.4-.2-.6-.6-.6h-1.5c-.4,0-.6.2-.6.6v7.7c0,.7,0,1.4-.3,2-.2.6-.5,1.2-.8,1.7s-.7.9-1.2,1.2c-.4.3-.9.5-1.4.6-.4,0-.6.3-.6.6v1.4c0,.4.2.6.6.6.6,0,1.1-.2,1.7-.5s1-.6,1.5-1c.4-.4.8-.8,1.2-1.3.3-.5.6-1,.7-1.6h-.1ZM172.4,190c0-.4-.2-.6-.6-.6h-1.5c-.4,0-.6.2-.6.6v20c0,.4.2.6.6.6h1.5c.4,0,.6-.2.6-.6v-11.4c.2.3.5.5,1,.5h2.5c.4,0,.6-.2.6-.6v-1.4c0-.4-.2-.6-.6-.6h-2.7c-.6,0-.8-.3-.8-.8v-5.7Z"/>
    <path class="cls-4" d="M156,204.8c0,.8.3,1.5.8,1.9s1.2.7,2.1.7h4.2c.9,0,1.6-.2,2.1-.7s.8-1.1.8-1.9l.4-13.2c0-.4-.2-.6-.6-.6h-1.4c-.4,0-.7.2-.7.6v4.7h-5.1v-4.7c-.1-.4-.3-.6-.8-.6h-1.4c-.4,0-.6.2-.6.6l.4,13.2h-.2ZM163.3,203.8c0,.7-.4,1-1.1,1h-2.5c-.7,0-1-.3-1.1-1v-5c-.1,0,4.7,0,4.7,0v5ZM152.4,190c0-.4-.2-.6-.6-.6h-1.5c-.4,0-.6.2-.6.6v20c0,.4.2.6.6.6h1.5c.4,0,.6-.2.6-.6v-20Z"/>
    <path class="cls-4" d="M145.6,205.8c-1.2.1-2.4.2-3.8.3s-2.9.1-4.6.1h-4.8c-1.5,0-2.7-.2-3.6-.3-.4,0-.6.1-.6.6v1.3c0,.4.2.6.6.6s.9.1,1.5.2c.6,0,1.3,0,2,.1h5c3.8,0,6.6-.1,8.4-.4.4,0,.6-.3.6-.6v-1.3c0-.4-.2-.6-.6-.6h-.1ZM137.1,198.4c.3.6.6,1.1,1.1,1.6s1,.9,1.5,1.3c.6.4,1.2.6,1.9.8.7.2,1.4.3,2.1.3s.4,0,.6,0,.3-.2.3-.5v-1.5c0-.4-.2-.6-.6-.6-.8,0-1.5-.1-2.2-.4-.7-.3-1.2-.6-1.7-1.1-.5-.4-.9-1-1.1-1.6-.3-.6-.4-1.3-.4-2v-3.4c0-.4-.2-.6-.6-.6h-1.5c-.4,0-.6.2-.6.6v3.4c0,.7-.1,1.4-.4,2s-.6,1.1-1.1,1.6c-.5.4-1.1.8-1.7,1.1-.7.3-1.4.4-2.2.4s-.6.2-.6.6v1.5c0,.3,0,.5.3.5h.6c.7,0,1.4,0,2.1-.3.7-.2,1.3-.5,1.9-.8.6-.4,1.1-.8,1.5-1.3s.8-1,1.1-1.6h-.3Z"/>
    <path class="cls-4" d="M124.7,208.4c.4,0,.6-.3.6-.6v-1.3c0-.4-.2-.6-.6-.6s-.9,0-1.5.1c-.6,0-1.2,0-1.9.1-.7,0-1.4,0-2.1.1s-1.4,0-2.1,0c.2,0,.3-.2.4-.4s.2-.4.2-.6v-2.5c1.1,0,2-.2,2.7-.3.7-.2,1.3-.4,1.8-.7s.8-.7.9-1.2c.2-.5.3-1,.3-1.7s-.1-1.3-.3-1.8c-.2-.5-.6-.8-1.2-1.1s-1.3-.5-2.2-.6-2-.2-3.4-.2h-3c-1,0-1.6-.4-1.6-1.2s.1-.7.3-.8c.2-.2.6-.2,1.2-.2h4.8c.8,0,1.5,0,2.3.1.7,0,1.4.1,2,.2.4,0,.6-.1.6-.5v-1.4c0-.3-.2-.5-.5-.6-1-.1-2.2-.3-3.6-.3s-2.8-.1-4.2-.1h-2.9c-1.8,0-2.7.8-2.7,2.3s.2,1.2.5,1.7.8.8,1.3,1h-1.1c-.4,0-.5.2-.5.5v1.2c0,.4.2.6.5.6h8.6c.6,0,1,.1,1.3.2s.6.2.7.4.2.4.2.6,0,.5-.2.6c-.2.2-.4.3-.9.4-.4,0-1,.2-1.7.2h-2.9c-1.2,0-1.9,0-2.9-.1-1,0-1.9-.2-2.8-.3-.3,0-.5.1-.6.5l-.2,1.4v.4c0,.1.2.2.4.2,1,.1,2,.3,3.1.3s2.1.1,2.9.1h0v2.7c0,.5-.3.7-.8.7h-3.3c-.6,0-1.1,0-1.6-.1s-1,0-1.4-.1c-.4,0-.6.1-.6.6v1.3c0,.4.2.6.6.6s.9.1,1.5.2c.6,0,1.3,0,2,.1h5c3.8,0,6.6-.1,8.4-.4l.2.3Z"/>
  </g>
  <g>
    <path class="cls-4" d="M325.1,230.5c.4,0,.6-.2.6-.6v-1.3c0-.4-.2-.6-.6-.6h-9.8c-.4,0-.6.2-.6.6v1.3c0,.4.2.6.6.6h3.6v1.5c0,.7,0,1.3-.3,1.9-.2.6-.4,1.1-.8,1.5-.3.4-.7.8-1.2,1s-.9.4-1.5.4-.6.2-.6.6v1.3c0,.4.2.6.6.6.6,0,1.2,0,1.7-.3.5-.2,1-.5,1.5-.8.4-.3.8-.7,1.1-1.1.3-.4.5-.9.7-1.4.2.5.4.9.7,1.4.3.4.7.8,1.1,1.1.4.3.9.6,1.5.8s1.1.3,1.8.3.6-.2.6-.6v-1.3c0-.4-.2-.6-.6-.6s-1-.1-1.5-.4-.8-.6-1.2-1c-.3-.4-.6-.9-.8-1.5s-.3-1.2-.3-1.9v-1.5h3.7ZM323.5,241.9c0-.4-.3-.6-.7-.6h-1.4c-.2,0-.4,0-.5.2-.1.1-.2.3-.1.5v2.4c0,.7-.2,1.3-.6,1.6-.4.4-1,.6-1.8.6h-5.3c-.7,0-1.4,0-2.1-.1-.7,0-1.4-.1-2.1-.2-.4,0-.6.1-.6.6v1.3c-.1.4,0,.6.5.6,1.2.1,2.6.2,4.1.3,1.6,0,3.3.1,5.3.1s3-.4,3.9-1.2,1.4-1.9,1.4-3.3v-1.5c0-.5,0-.9-.1-1.2h.1ZM311.7,228c0-.4-.2-.6-.6-.6h-1.5c-.4,0-.6.2-.6.6v13.5c0,.4.2.6.6.6h1.5c.4,0,.6-.2.6-.6v-13.5Z"/>
    <path class="cls-4" d="M305.7,246.9c.4,0,.6-.3.6-.6v-1.4c0-.4-.2-.6-.6-.5-.6,0-1.3.2-2.2.2s-1.7.1-2.5.1c.4-.2.6-.5.6-1v-2.3c1.2-.2,2.1-.6,2.8-1.3.6-.7.9-1.6.9-2.7s-.4-2.4-1.3-3.1-2.2-1-3.9-1-3,.3-3.9,1-1.3,1.7-1.3,3.1.3,2.1,1,2.8,1.7,1.1,3,1.3v2.5c0,.5-.3.7-.8.7h-2.1c-.6,0-1.1-.1-1.6-.2-.4,0-.6,0-.6.5v1.4c0,.4.2.6.6.6.8.1,1.7.2,2.7.3s2.1,0,3.2,0h3c.8,0,1.7-.1,2.5-.3h0ZM294.7,229.2c-.4,0-.6.2-.6.6v1.4c0,.4.2.6.6.6h10.7c.4,0,.6-.2.6-.6v-1.4c0-.4-.2-.6-.6-.6h-4.4c.2-.1.4-.3.4-.6v-.9c0-.4-.2-.6-.6-.6h-1.6c-.4,0-.6.2-.6.6v1.1c0,.3-.2.4-.5.4h-3.5.1ZM302.5,237.3c0,.5-.2,1-.6,1.2-.4.3-1,.4-1.8.4s-1.4-.1-1.8-.4c-.4-.3-.6-.7-.6-1.2,0-1.1.8-1.6,2.5-1.6s2.5.5,2.5,1.6h-.2ZM289.5,248c0,.4.2.6.6.6h1.5c.4,0,.6-.2.6-.6v-20c0-.4-.2-.6-.6-.6h-1.5c-.4,0-.6.2-.6.6v8.2c-.2-.3-.5-.5-1-.5h-1.4c-.4,0-.6.2-.6.6v1.4c0,.4.2.6.6.6h1.6c.6,0,.8.3.8.8v8.8h0Z"/>
    <path class="cls-4" d="M274,228.2c-.4,0-.6.2-.6.6v1.2c0,.4.2.6.6.6h10.7c.4,0,.6-.2.6-.6v-1.2c0-.4-.2-.6-.6-.6h-4.4c.2-.1.4-.3.4-.6v-.6c0-.4-.2-.6-.6-.6h-1.6c-.4,0-.6.2-.6.6v.8c0,.3-.2.4-.5.4h-3.4,0ZM284.6,234.9c0-2.2-1.7-3.3-5.2-3.3s-5.2,1.1-5.2,3.3,1.7,3.3,5.2,3.3,5.2-1.1,5.2-3.3ZM268.5,248.6c.5,0,1,.1,1.6.2s1.1,0,1.6.1h2.8c1.7,0,3.1,0,4.2-.1,1.1,0,2-.2,2.6-.5.6-.2,1.1-.5,1.3-.9.3-.4.4-.9.4-1.5s-.1-1.1-.3-1.5-.6-.7-1.2-.9c-.5-.2-1.3-.4-2.2-.5s-2-.1-3.4-.1h-3.6c-.7,0-1.2-.2-1.2-.7s.4-.7,1.2-.7h4.7c.9,0,1.8,0,2.6.1.9,0,1.6,0,2.3.1.4,0,.6-.2.6-.6v-1.1c0-.4-.2-.5-.6-.6-.9,0-1.8-.1-2.9-.2h-8.5c-.8,0-1.3.2-1.6.5s-.5.7-.5,1.3.1.9.4,1.2c.3.4.7.6,1.1.8h-.8c-.4,0-.5.2-.5.5v1c0,.4.2.5.5.5h9c.6,0,1,0,1.3.1.3,0,.5.1.6.3s.1.3.1.4,0,.3-.2.5-.4.2-.8.3c-.4,0-1,0-1.7.1h-5.9c-.5,0-1,0-1.6-.1-.5,0-1-.1-1.5-.2-.4,0-.6.1-.6.5v1.1c0,.4,0,.6.4.6h.3ZM279.4,235.9c-.9,0-1.5,0-1.9-.2s-.6-.4-.6-.8.2-.6.6-.8c.4-.2,1-.2,1.9-.2s1.5,0,1.9.2.6.4.6.8-.2.6-.6.8c-.4.2-1,.2-1.9.2ZM268.6,237.5c0,.4.2.6.6.6h1.5c.4,0,.6-.2.6-.6v-9.4c0-.4-.2-.6-.6-.6h-1.5c-.4,0-.6.2-.6.6v3.6c-.2-.3-.5-.5-1-.5h-1.4c-.4,0-.6.2-.6.6v1.3c0,.4.2.6.6.6h1.6c.6,0,.8.3.8.8v3h0Z"/>
    <path class="cls-4" d="M248.5,240.6h7.8c.4,0,.6-.2.6-.6v-1.3c0-.4-.2-.6-.6-.6-.8,0-1.8.1-3.1.2h-12.1c-.6,0-1.1,0-1.6-.1-.4,0-.6.1-.6.6v1.3c0,.4.2.6.6.6s.9,0,1.5.1h4.6c.4,0,.6.2.6.6v2.7c0,.4.2.6.6.6h1.5c.4,0,.6-.2.6-.6v-2.7c0-.3,0-.5-.3-.6v-.2ZM248.5,234.9c0,1.2.7,1.8,1.9,1.8h3.1c1.2,0,1.9-.6,1.9-1.8l.2-6.4c0-.4-.2-.6-.6-.6h-1.3c-.4,0-.6.2-.6.6v1.3h-2.2v-1.3c0-.4-.2-.6-.6-.6h-1.3c-.4,0-.6.2-.6.6l.2,6.4h0ZM255.2,242.9c0-.4-.3-.6-.7-.6h-1.5c-.2,0-.4,0-.5.2-.1.1-.1.3-.1.5,0,.3,0,.5.1.8v.9c0,1.3-.8,1.9-2.3,1.9h-5.4c-.8,0-1.5,0-2.2-.1-.7,0-1.4-.1-2.1-.2-.4,0-.6.1-.6.6v1.3c-.1.4,0,.6.5.6,1.2.1,2.6.2,4.3.3s3.5.1,5.5.1,2.9-.4,3.8-1.1c.9-.8,1.3-1.8,1.3-3.2s0-.7,0-1,0-.6-.1-.8v-.2ZM252.9,233.8c0,.3-.2.5-.5.5h-.9c-.4,0-.5-.2-.5-.5v-1.6h2v1.6h-.1ZM240.5,234.9c0,1.2.7,1.8,1.9,1.8h3.1c1.2,0,1.9-.6,1.9-1.8l.2-6.4c0-.4-.2-.6-.6-.6h-1.3c-.4,0-.6.2-.6.6v1.3h-2.2v-1.3c0-.4-.2-.6-.6-.6h-1.3c-.4,0-.6.2-.6.6l.2,6.4h0ZM244.9,233.8c0,.3-.2.5-.5.5h-.9c-.4,0-.5-.2-.5-.5v-1.6h2v1.6h-.1Z"/>
    <path class="cls-4" d="M233.7,239.2c.8,0,1.4-.2,1.8-.6s.7-.9.7-1.6v-8c0-.8-.4-1.1-1.1-1.1h-6c-1.1,0-1.9.3-2.5,1s-.9,1.7-.9,2.9.2,2,.6,2.9c.4.9,1,1.5,1.7,1.9h-1.6c-.4,0-.6.2-.6.6v1.3c0,.4.2.6.6.6h7.3ZM234.2,241.9c0-.4-.3-.6-.7-.6h-1.4c-.2,0-.4,0-.5.2-.1.1-.2.3-.1.5v2.4c0,.7-.2,1.3-.6,1.6-.4.4-1,.6-1.8.6h-4.9c-.7,0-1.4,0-2-.1-.6,0-1.3-.1-2-.2-.4,0-.6.1-.6.6v1.3c-.1.4,0,.6.5.6,1.2.1,2.5.2,4,.3s3.1.1,5,.1,3-.4,3.9-1.2,1.4-1.9,1.4-3.3v-1.5c0-.5,0-.9-.1-1.2h0ZM231,236.6c-.8,0-1.4-.3-1.9-1-.5-.6-.7-1.5-.7-2.5s.2-1.5.5-2,.8-.7,1.5-.7h2.4c.4,0,.6.2.6.6v4.8c0,.2,0,.4-.3.6s-.4.2-.7.2h-1.5,0ZM220.1,241.5c0,.4.2.6.6.6h1.5c.4,0,.6-.2.6-.6v-13.5c0-.4-.2-.6-.6-.6h-1.5c-.4,0-.6.2-.6.6v5.6c-.2-.3-.5-.5-1-.5h-1.4c-.4,0-.6.2-.6.6v1.3c0,.4.2.6.6.6h1.6c.6,0,.8.3.8.8v5.1h0Z"/>
    <path class="cls-4" d="M198,237.3c0,3,.4,5.2,1.3,6.5s2.2,2.1,4.1,2.1,3.2-.7,4.1-2.1c.9-1.4,1.3-3.6,1.3-6.5s-.4-5.2-1.3-6.5c-.9-1.4-2.2-2.1-4.1-2.1s-3.2.7-4.1,2.1-1.3,3.6-1.3,6.5ZM203.4,231.3c.9,0,1.6.5,2,1.4s.6,2.4.6,4.6-.2,3.6-.6,4.6c-.4.9-1.1,1.4-2,1.4s-1.6-.5-2-1.4-.6-2.5-.6-4.6.2-3.6.6-4.6,1.1-1.4,2-1.4ZM192.5,248c0,.4.2.6.6.6h1.5c.4,0,.6-.2.6-.6v-20c0-.4-.2-.6-.6-.6h-1.5c-.4,0-.6.2-.6.6v8.2c-.2-.3-.5-.5-1-.5h-1.4c-.4,0-.6.2-.6.6v1.4c0,.4.2.6.6.6h1.6c.6,0,.8.3.8.8v8.8h0Z"/>
    <path class="cls-4" d="M177.4,244.7c.8.3,1.6.6,2.3.7.7.2,1.4.2,2.1.2,2,0,3.4-.6,4.4-1.8s1.5-2.9,1.5-5.2v-4.9c0-.7-.1-1.5-.2-2.2,0-.7-.1-1.4-.2-2.2,0-.4-.3-.6-.7-.6h-1.5c-.5,0-.7.2-.6.7.2,1.6.3,3.2.4,4.7,0,1.5.1,3.1.1,4.7s-.3,2.5-.8,3.1-1.4.9-2.6.9-2.3-.3-3.6-.9h-.2c-.2,0-.3.2-.5.5l-.4,1.4c-.1.3,0,.6.5.8h0ZM173.9,228c0-.4-.2-.6-.6-.6h-1.5c-.4,0-.6.2-.6.6v20c0,.4.2.6.6.6h1.5c.4,0,.6-.2.6-.6v-20Z"/>
    <path class="cls-4" d="M161.6,243c-1.3,0-2.6-.3-4-.9h-.3c-.2,0-.3.1-.4.4l-.4,1.4c-.1.4,0,.6.4.7,1,.3,1.9.6,2.7.7s1.7.2,2.5.2c3.8,0,5.7-1.7,5.7-5s-.5-2.9-1.4-3.6c-.9-.8-2.4-1.2-4.3-1.2s-1.3-.2-1.6-.5c-.3-.3-.5-.9-.5-1.6s.2-1.3.5-1.7c.4-.3.9-.5,1.8-.5s2.3.1,4.2.4c.4,0,.6-.1.6-.5v-1.5c0-.4-.2-.6-.6-.6s-.8-.1-1.2-.2-.8,0-1.2,0h-2.6c-2.9,0-4.4,1.2-4.4,3.5s.1,1.4.4,2,.6,1.1,1.1,1.5h-.8c-.4,0-.6.2-.6.6v1.3c0,.4.2.6.6.6h3.3c1.4,0,2.4.2,3,.5.6.4.9,1,.9,1.8s-.3,1.5-.8,1.8c-.5.4-1.4.5-2.7.5h0ZM151.7,248c0,.4.2.6.6.6h1.5c.4,0,.6-.2.6-.6v-20c0-.4-.2-.6-.6-.6h-1.5c-.4,0-.6.2-.6.6v8.2c-.2-.3-.5-.5-1-.5h-1.4c-.4,0-.6.2-.6.6v1.4c0,.4.2.6.6.6h1.6c.6,0,.8.3.8.8v8.8h0Z"/>
  </g>
  <g>
    <path class="cls-4" d="M393.1,279.8c.3,1,.9,1.8,1.7,2.5.8.6,1.7,1,2.8,1.1.4,0,.6-.2.6-.6v-1.4c0-.2,0-.4,0-.4,0,0-.2-.1-.5-.2-.9-.1-1.7-.6-2.3-1.4-.6-.8-.9-2-.9-3.4v-8.4c0-.4-.2-.6-.6-.6h-1.4c-.4,0-.6.2-.6.6v8.4c0,1.5-.3,2.6-.9,3.4s-1.3,1.3-2.3,1.4c-.2,0-.4,0-.5.2,0,0,0,.2,0,.4v1.4c0,.4.2.6.6.6,1.1-.1,2-.5,2.8-1.1s1.4-1.4,1.7-2.5ZM378.9,286.1c0,.4.2.6.6.6h1.4c.4,0,.6-.2.6-.6v-9.6h1.4c.3,0,.5,0,.6.1s.2.3.2.5v9c0,.4.2.6.6.6h1.4c.4,0,.6-.2.6-.6v-19.8c0-.4-.2-.6-.6-.6h-1.4c-.4,0-.6.2-.6.6v8c-.2-.3-.4-.4-.8-.4h-1.3v-7.8c0-.4-.2-.6-.6-.6h-1.4c-.4,0-.6.2-.6.6v20.1h0Z"/>
    <path class="cls-4" d="M374.9,284.4c.4,0,.6-.3.6-.6v-1.3c0-.4-.2-.6-.6-.6s-.9,0-1.5.1c-.6,0-1.2,0-1.9.1-.7,0-1.4,0-2.1.1s-1.4,0-2.1,0c.2,0,.3-.2.4-.4,0-.2.2-.4.2-.6v-2.5c1.1,0,2-.2,2.7-.3.7-.2,1.3-.4,1.8-.7s.8-.7.9-1.2c.2-.5.3-1,.3-1.7s0-1.3-.3-1.8c-.2-.5-.6-.8-1.2-1.1s-1.3-.5-2.2-.6-2-.2-3.4-.2h-3c-1,0-1.6-.4-1.6-1.2s0-.7.3-.8c.2-.2.6-.2,1.2-.2h4.8c.8,0,1.5,0,2.3.1.7,0,1.4.1,2,.2.4,0,.6-.1.6-.5v-1.4c0-.3-.2-.5-.5-.6-1-.1-2.2-.3-3.6-.3s-2.8-.1-4.2-.1h-2.9c-1.8,0-2.7.8-2.7,2.3s.2,1.2.5,1.7.8.8,1.3,1h-1.1c-.4,0-.5.2-.5.5v1.2c0,.4.2.6.5.6h8.6c.6,0,1,.1,1.3.2s.6.2.7.4c0,.2.2.4.2.6s0,.5-.2.6c-.2.2-.4.3-.9.4-.4,0-1,.2-1.7.2h-2.9c-1.2,0-1.9,0-2.9-.1-1,0-1.9-.2-2.8-.3-.3,0-.5.1-.6.5l-.2,1.4v.4c0,.1.2.2.4.2,1,.1,2,.3,3.1.3s2.1.1,2.9.1h0v2.7c0,.5-.3.7-.8.7h-3.3c-.6,0-1.1,0-1.6-.1s-1,0-1.4-.1c-.4,0-.6.1-.6.6v1.3c0,.4.2.6.6.6s.9.1,1.5.2c.6,0,1.3,0,2,.1h5c3.8,0,6.6-.1,8.4-.4l.2.3Z"/>
    <path class="cls-4" d="M346.2,278.6h7.8c.4,0,.6-.2.6-.6v-1.3c0-.4-.2-.6-.6-.6-.8,0-1.8.1-3.1.2h-12.1c-.6,0-1.1,0-1.6-.1-.4,0-.6.1-.6.6v1.3c0,.4.2.6.6.6s.9,0,1.5.1h4.6c.4,0,.6.2.6.6v2.7c0,.4.2.6.6.6h1.5c.4,0,.6-.2.6-.6v-2.7c0-.3,0-.5-.3-.6v-.2ZM352.8,280.9c0-.4-.3-.6-.7-.6h-1.5c-.2,0-.4,0-.5.2,0,.1,0,.3,0,.5,0,.3,0,.5,0,.8v.9c0,1.3-.8,1.9-2.3,1.9h-5.4c-.8,0-1.5,0-2.2-.1-.7,0-1.4-.1-2.1-.2-.4,0-.6.1-.6.6v1.3c-.1.4,0,.6.5.6,1.2.1,2.6.2,4.3.3s3.5.1,5.5.1,2.9-.4,3.8-1.1c.9-.8,1.3-1.8,1.3-3.2s0-.7,0-1,0-.6,0-.8v-.2ZM352.9,270.3c0-1.6-.6-2.7-1.8-3.5-1.2-.7-3.1-1.1-5.7-1.1s-4.5.4-5.7,1.1-1.8,1.9-1.8,3.5.6,2.7,1.8,3.5c1.2.7,3.1,1.1,5.7,1.1s4.5-.4,5.7-1.1,1.8-1.9,1.8-3.5ZM345.4,272.4c-.9,0-1.6,0-2.2-.1-.6,0-1.1-.2-1.5-.4-.4-.2-.6-.4-.8-.7-.2-.3-.3-.6-.3-1s0-.7.2-1,.4-.5.8-.6c.4-.2.9-.3,1.5-.4.6,0,1.3-.1,2.2-.1s1.6,0,2.2.1c.6,0,1.1.2,1.5.4s.6.4.8.6c.2.3.3.6.3,1s0,.7-.3,1c-.2.3-.4.5-.8.7s-.9.3-1.5.4c-.6,0-1.3.1-2.2.1h.1Z"/>
    <path class="cls-4" d="M320.7,275.5c-.1-.4-.2-.8-.3-1.3s-.2-.9-.3-1.4c0-.5-.2-.9-.2-1.3v-1.1c0-.7.2-1.1.5-1.4s.8-.4,1.4-.4h2.9c.3,0,.7,0,1.1.1.3,0,.7.1,1.1.2.2,0,.3,0,.5-.1.1-.1.2-.3.2-.5v-1.4c0-.4-.2-.6-.6-.6-.9-.1-1.8-.2-2.6-.3s-1.7-.1-2.6-.1c-1.6,0-2.8.4-3.5,1.1s-1,1.9-1,3.5,0,.7,0,1.1.1.9.2,1.3.2.9.3,1.4.2.9.3,1.3.1.4.2.4c0,0,.2.1.5.1h1.5c.2,0,.4,0,.5-.2.1-.1.1-.3,0-.5h0ZM325.7,282.5c0-3-2.6-4.6-7.8-4.6s-7.8,1.5-7.8,4.6,2.6,4.6,7.8,4.6,7.8-1.5,7.8-4.6ZM323,282.5c0,.3,0,.6-.3.9s-.5.5-.9.6c-.4.2-.9.3-1.6.4-.6,0-1.4.1-2.4.1s-1.7,0-2.4-.1c-.6,0-1.2-.2-1.6-.4-.4-.2-.7-.4-.9-.6s-.3-.5-.3-.9,0-.6.3-.9c.2-.2.5-.5.9-.6.4-.2.9-.3,1.6-.4.6,0,1.4-.1,2.4-.1s1.7,0,2.4.1c.6,0,1.2.2,1.6.4.4.2.7.4.9.6s.3.5.3.9ZM313.3,274.3c.2.3.5.5,1,.5h1.3c.4,0,.6-.2.6-.6v-1.3c0-.4-.2-.6-.6-.6h-1.7c-.2,0-.4,0-.5-.2,0-.1-.1-.3-.1-.5v-2.2c.2.3.5.5,1,.5h1.3c.4,0,.6-.2.6-.6v-1.3c0-.4-.2-.6-.6-.6h-1.7c-.2,0-.4,0-.5-.2,0-.1-.1-.3-.1-.5v-.7c0-.4-.2-.6-.6-.6h-1.5c-.4,0-.6.2-.6.6v10.1c0,.4.2.6.6.6h1.5c.4,0,.6-.2.6-.6v-1.8h0Z"/>
    <path class="cls-4" d="M307,269.5c.4,0,.6-.2.6-.6v-1.4c0-.4-.2-.6-.6-.6h-8.7c-.4,0-.6.2-.6.6v1.4c0,.4.2.6.6.6h3v6.4c0,1.5-.3,2.6-.9,3.4-.6.8-1.3,1.3-2.3,1.4-.2,0-.4,0-.5.2,0,0-.1.2-.1.4v1.4c0,.4.2.6.6.6,1.1-.1,2-.5,2.8-1.1s1.4-1.4,1.7-2.5c.3,1,.9,1.8,1.7,2.5.8.6,1.7,1,2.8,1.1.4,0,.6-.2.6-.6v-1.4c0-.2,0-.4-.1-.4,0,0-.2-.1-.5-.2-.9-.1-1.7-.6-2.3-1.4s-.9-2-.9-3.4v-6.4h3.1ZM296.1,273.6c-.3,0-.5,0-.6-.1-.1,0-.2-.3-.2-.5v-6.7c0-.4-.2-.6-.6-.6h-1.4c-.4,0-.6.2-.6.6v19.8c0,.4.2.6.6.6h1.4c.4,0,.6-.2.6-.6v-10.3c0,.1.2.2.3.3.1,0,.3.1.5.1h2.1c.4,0,.6-.2.6-.6v-1.4c0-.4-.2-.6-.6-.6h-2.2,0ZM288.5,286.1c0,.4.2.6.6.6h1.4c.4,0,.6-.2.6-.6v-20.1c0-.4-.2-.6-.6-.6h-1.4c-.4,0-.6.2-.6.6v20.1Z"/>
    <path class="cls-4" d="M284.8,268.5c.4,0,.6-.2.6-.6v-1.3c0-.4-.2-.6-.6-.6h-9.8c-.4,0-.6.2-.6.6v1.3c0,.4.2.6.6.6h3.6v1c0,.7,0,1.3-.3,1.9-.2.6-.4,1.1-.8,1.5-.3.4-.7.8-1.2,1-.4.2-.9.4-1.5.4s-.6.2-.6.6v1.3c0,.4.2.6.6.6.6,0,1.2,0,1.7-.3.5-.2,1-.5,1.5-.8.4-.3.8-.7,1.1-1.1s.5-.9.7-1.4c.2.5.4.9.7,1.4.3.4.7.8,1.1,1.1.4.3.9.6,1.5.8.5.2,1.1.3,1.8.3s.6-.2.6-.6v-1.3c0-.4-.2-.6-.6-.6s-1-.1-1.5-.4c-.4-.2-.8-.6-1.2-1-.3-.4-.6-.9-.8-1.5s-.3-1.2-.3-1.9v-1h3.7ZM268.9,286.2c0,.4.3.6.7.6h1.4c.2,0,.4,0,.5-.2.1-.1.2-.3.1-.5v-3.1c0-.8.2-1.3.5-1.6.3-.3.9-.4,1.7-.4,1.7,0,3.3,0,4.8.1,1.5,0,3,.2,4.5.3.4,0,.6-.1.6-.6v-1.3c0-.4-.2-.6-.6-.6-1.3-.1-2.7-.2-4.3-.3s-3.3-.1-5.3-.1-2.9.3-3.6.9c-.7.6-1.1,1.6-1.1,2.9v3.8h.1ZM271.4,266c0-.4-.2-.6-.6-.6h-1.5c-.4,0-.6.2-.6.6v10.1c0,.4.2.6.6.6h1.5c.4,0,.6-.2.6-.6v-4.1c.2.3.5.5,1,.5h1.7c.4,0,.6-.2.6-.6v-1.3c0-.4-.2-.6-.6-.6h-1.8c-.6,0-.8-.3-.8-.8v-3.2h0Z"/>
    <path class="cls-4" d="M258.8,269.5c.4,0,.6-.2.6-.6v-1.4c0-.4-.2-.6-.6-.6h-9c-.4,0-.6.2-.6.6v1.4c0,.4.2.6.6.6h.8l.4,11.1h-1.5c-.4,0-.6.2-.6.6v1.4c0,.2,0,.4.1.4s.2.1.5.2c.3,0,.6,0,.9.1h6.5c.8,0,1.6-.1,2.2-.2.2,0,.4,0,.5-.2s.1-.2.1-.4v-1.4c0-.4-.2-.6-.6-.6h-1.5l.4-11.1h.8ZM255,280.8h-1.4l-.4-11.2h2.2l-.4,11.2h0ZM239.9,286.1c0,.4.2.6.6.6h1.4c.4,0,.6-.2.6-.6v-9.6h1.4c.3,0,.5,0,.6.1s.2.3.2.5v9c0,.4.2.6.6.6h1.4c.4,0,.6-.2.6-.6v-19.8c0-.4-.2-.6-.6-.6h-1.4c-.4,0-.6.2-.6.6v8c-.2-.3-.4-.4-.8-.4h-1.3v-7.8c0-.4-.2-.6-.6-.6h-1.4c-.4,0-.6.2-.6.6v20.1h0Z"/>
    <path class="cls-4" d="M230.4,281c-.6,0-1.2,0-1.8-.2-.6-.1-1.2-.4-1.9-.7h-.3c-.2,0-.3.1-.4.4l-.4,1.4c-.1.4,0,.6.4.7.9.3,1.8.6,2.6.7.8.2,1.6.2,2.4.2,3.8,0,5.7-1.7,5.7-5s-.4-2.9-1.3-3.6-2.3-1.2-4.2-1.2-1.3-.2-1.6-.5-.5-.9-.5-1.6.2-1.3.5-1.7c.4-.3.9-.5,1.8-.5h1.6c.6,0,1.4.1,2.4.3.4,0,.6-.1.6-.5v-1.5c0-.4-.2-.6-.6-.6s-.8-.1-1.2-.2h-3.5c-2.9,0-4.4,1.2-4.4,3.5s.1,1.4.4,2c.3.6.6,1.1,1.1,1.5h-.8c-.4,0-.6.2-.6.6v1.3c0,.4.2.6.6.6h3.3c.7,0,1.2,0,1.7.1s.8.2,1.1.4c.3.2.5.4.6.7.1.3.2.7.2,1.1,0,.8-.3,1.5-.8,1.8-.5.4-1.4.5-2.7.5h0ZM222.8,266c0-.4-.2-.6-.6-.6h-1.5c-.4,0-.6.2-.6.6v20c0,.4.2.6.6.6h1.5c.4,0,.6-.2.6-.6v-11.4c.2.3.5.5,1,.5h1.1c.4,0,.6-.2.6-.6v-1.4c0-.4-.2-.6-.6-.6h-1.2c-.6,0-.8-.3-.8-.8v-5.7h-.1Z"/>
    <path class="cls-4" d="M214,275.3c0,1.9-.3,3.4-1,4.3-.6.9-1.6,1.4-2.9,1.4s-2.3-.3-3.6-.9h-.2c-.2,0-.3.2-.5.5l-.4,1.4c-.1.3,0,.6.5.8.8.3,1.5.5,2.2.7s1.4.2,2.1.2c2.2,0,3.8-.7,4.9-2.1s1.6-3.5,1.6-6.2-.6-5-1.7-6.4c-1.1-1.3-2.8-2-5-2s-1.3,0-1.8,0-1,0-1.4.2c-.2,0-.4,0-.5.2s-.1.2-.1.4v1.4c0,.4.2.6.6.6s.9-.1,1.4-.2,1,0,1.6,0,1.4.1,1.9.3c.5.2,1,.5,1.3,1s.6,1,.7,1.8.2,1.6.2,2.7h0ZM200.6,286c0,.4.2.6.6.6h1.5c.4,0,.6-.2.6-.6v-20c0-.4-.2-.6-.6-.6h-1.5c-.4,0-.6.2-.6.6v8.2c-.2-.3-.5-.5-1-.5h-1.4c-.4,0-.6.2-.6.6v1.4c0,.4.2.6.6.6h1.6c.6,0,.8.3.8.8v8.8h0Z"/>
    <path class="cls-4" d="M185.3,271.1c0,.8.1,1.6.4,2.2s.6,1.2,1.1,1.7,1,.8,1.7,1.1c.7.3,1.4.4,2.2.4s1.6-.1,2.2-.4c.7-.3,1.2-.6,1.7-1.1s.8-1,1.1-1.7c.3-.7.4-1.4.4-2.2s-.1-1.6-.4-2.2-.6-1.2-1.1-1.7-1-.8-1.7-1.1c-.7-.3-1.4-.4-2.2-.4s-1.6.1-2.2.4c-.7.3-1.2.6-1.7,1.1s-.8,1-1.1,1.7-.4,1.4-.4,2.2ZM179.4,284.3c-.4,0-.6.2-.6.6v1.3c0,.4.2.6.6.6h12.4c.8,0,1.4-.2,1.8-.6s.7-.9.7-1.6v-5.5c0-.8-.4-1.1-1.1-1.1h-11.1c-.9,0-1.7.2-2.2.7s-.8,1.2-.8,2.1.2,1.4.6,2,.9,1.1,1.5,1.4h-1.8ZM188,271.1c0-.9.2-1.6.7-2.1s1.1-.8,1.9-.8,1.5.3,1.9.8c.5.5.7,1.2.7,2.1s-.2,1.6-.7,2.1-1.1.8-1.9.8-1.5-.3-1.9-.8c-.5-.5-.7-1.2-.7-2.1ZM184,284.3c-.3,0-.6,0-.9-.2-.3-.1-.5-.3-.7-.5s-.3-.4-.5-.7c-.1-.3-.2-.6-.2-.9,0-.5.1-.9.4-1.1s.7-.3,1.2-.3h7.4c.4,0,.6.2.6.6v2.4c0,.2,0,.4-.3.6-.2.1-.4.2-.7.2h-6.5.2ZM182,266c0-.4-.2-.6-.6-.6h-1.5c-.4,0-.6.2-.6.6v9.6c0,.4.2.6.6.6h1.5c.4,0,.6-.2.6-.6v-9.6Z"/>
    <path class="cls-4" d="M165.3,275.3c0,3,.4,5.2,1.3,6.5s2.2,2.1,4.1,2.1,3.2-.7,4.1-2.1,1.3-3.6,1.3-6.5-.4-5.2-1.3-6.5c-.9-1.4-2.2-2.1-4.1-2.1s-3.2.7-4.1,2.1-1.3,3.6-1.3,6.5ZM170.7,269.3c.9,0,1.6.5,2,1.4s.6,2.4.6,4.6-.2,3.6-.6,4.6c-.4.9-1.1,1.4-2,1.4s-1.6-.5-2-1.4-.6-2.5-.6-4.6.2-3.6.6-4.6,1.1-1.4,2-1.4ZM162.1,266c0-.4-.2-.6-.6-.6h-1.5c-.4,0-.6.2-.6.6v20c0,.4.2.6.6.6h1.5c.4,0,.6-.2.6-.6v-20Z"/>
    <path class="cls-4" d="M138.4,274.2c.7.2,1.4.4,2.1.5s1.3.2,1.8.2v1.1c0,.4-.2.6-.7.6h-4.2c-.4,0-.6.1-.6.5v1.4c0,.4.2.6.6.6h9.6c1,0,1.9,0,2.7-.1.4,0,.6-.2.6-.6v-1.4c0-.4-.2-.5-.6-.5h-5c.3-.2.4-.4.4-.7v-1.2c1.4-.2,2.4-.7,3-1.4.6-.7.9-1.7.9-2.9s-.1-1.5-.4-2.1c-.2-.6-.6-1-1.2-1.4-.5-.4-1.2-.6-2.1-.8s-1.9-.2-3-.2h-1.8c-.5,0-.9,0-1.3.2-.4,0-.5.3-.5.6v1.3c0,.5.2.7.6.6.4,0,.8-.1,1.3-.2h3.5c.5,0,1,.2,1.3.3.3.1.5.3.7.6s.2.6.2,1,0,.7-.2,1-.3.4-.6.6c-.3.1-.7.2-1.2.3h-1.9c-.8,0-1,0-1.6-.1-.6,0-1.2-.2-1.8-.5-.4-.1-.6,0-.7.4l-.3,1.3c0,.4,0,.6.4.7v.3ZM147.7,280.9c0-.4-.3-.6-.7-.6h-1.5c-.2,0-.4,0-.5.2s-.1.3-.1.5c0,.3,0,.5.1.8v.9c0,1.3-.8,1.9-2.3,1.9h-5.7c-.8,0-1.6,0-2.3-.1-.7,0-1.4-.1-2.1-.2-.4,0-.6.1-.6.6v1.3c-.1.4,0,.6.5.6,1.2.1,2.7.2,4.4.3s3.6.1,5.7.1,2.9-.4,3.8-1.1c.9-.8,1.3-1.8,1.3-3.2s0-.7,0-1,0-.6-.1-.8v-.2ZM132.7,280c0,.4.2.6.6.6h1.5c.4,0,.6-.2.6-.6v-14c0-.4-.2-.6-.6-.6h-1.5c-.4,0-.6.2-.6.6v14Z"/>
    <path class="cls-4" d="M107.2,268.4c.8,0,1.4,0,2-.1h6.2c.7,0,1.3.1,1.7.2.4,0,.7.2.9.4s.3.4.3.6,0,.5-.2.6c-.1.2-.4.3-.8.4s-.9.2-1.5.2h-2.4c-1,0-2,0-3.1-.1s-2.2-.2-3.3-.3c-.4,0-.6.1-.6.5v1.2c-.1.3,0,.5.4.6,2.2.3,3.9.4,5.3.4v.6c0,.4-.2.6-.6.6h-4.9c-.6,0-1.1,0-1.5-.1-.4,0-.6.1-.6.5v1.2c0,.4.2.6.6.6s1,0,1.6.1h12.4c1.4,0,2.4,0,3.1-.2.4,0,.6-.2.6-.6v-1.2c0-.4-.2-.6-.6-.5h-7.4c.2-.1.4-.3.4-.6v-.6c1.2,0,2.1-.2,2.9-.3s1.4-.4,1.9-.7c.5-.3.8-.6,1-1.1.2-.4.3-.9.3-1.5s-.1-1.2-.4-1.7-.7-.8-1.4-1.1c-.6-.3-1.5-.5-2.6-.6s-2.4-.2-4-.2-.7,0-1,0h-2.6c-.5,0-1.2,0-1.9.1-.4,0-.6.2-.6.6v1.2c0,.4.2.5.6.5l-.2.4ZM105.8,286.6c.4,0,.9.1,1.5.2.6,0,1.1,0,1.7.1h3.2c1.7,0,3.2,0,4.3-.1,1.1,0,2-.2,2.6-.5.6-.2,1.1-.5,1.3-.9.2-.4.4-.9.4-1.5s-.1-1.1-.3-1.4c-.2-.4-.6-.7-1.2-.9-.6-.2-1.3-.4-2.2-.5s-2.1-.1-3.5-.1h-3.9c-.4,0-.8,0-.9-.2-.2,0-.3-.3-.3-.5s0-.5.3-.6c.2-.1.5-.2.9-.2h5c1,0,1.9,0,2.8.1s1.7,0,2.4.1c.4,0,.5-.2.5-.6v-1.1c0-.4-.2-.5-.5-.6-.9,0-1.9-.1-3-.2h-9c-.8,0-1.4.2-1.7.5s-.5.7-.5,1.3.1.9.4,1.3.7.6,1.1.8h-.9c-.3,0-.5.2-.5.5v1c0,.4.2.6.5.5h9.5c.6,0,1,0,1.4.1.3,0,.5.1.6.3,0,.1.1.3.1.4s0,.4-.2.5-.4.2-.9.3-1,0-1.8,0h-6.2c-.6,0-1.1,0-1.7-.1s-1.1-.1-1.5-.2c-.4,0-.5.1-.6.5v1.1c0,.4,0,.6.4.6h.4Z"/>
    <path class="cls-4" d="M101.1,277.6c.4,0,.6-.3.6-.6v-1.3c0-.4-.2-.6-.6-.6h-7.4c.2-.1.4-.3.4-.6v-1h3c.8,0,1.5-.2,1.9-.6s.7-.9.7-1.7l.4-4.9c0-.4-.2-.6-.6-.6h-1.5c-.4,0-.6.2-.6.6v.6h-9.2v-.6c0-.4-.3-.6-.7-.6h-1.5c-.4,0-.7.2-.6.6l.4,4.9c0,.7.3,1.3.7,1.7s1.1.6,1.9.6h3v1c0,.4-.2.6-.6.6h-4.9c-.6,0-1,0-1.5-.1-.4,0-.6.1-.6.6v1.3c0,.4.2.6.6.6s1,0,1.6.1,1.3,0,2.1,0h10.2c1.4,0,2.4,0,3.1-.2l-.3.2ZM85.2,284.3c-.4,0-.6.2-.6.6v1.3c0,.4.2.6.6.6h12.4c.8,0,1.4-.2,1.8-.5s.6-.9.6-1.5v-4.8c0-.7-.4-1.1-1.1-1.1h-11.4c-.8,0-1.5.2-2,.6s-.7,1-.7,1.7.2,1.2.5,1.8.7,1,1.3,1.3h-1.5.1ZM89.5,284.3c-.5,0-.9-.2-1.3-.5-.4-.4-.5-.8-.5-1.3s.1-.6.3-.8.5-.3,1-.3h7.7c.4,0,.6.2.6.6v1.7c0,.5-.3.7-.9.7h-6.9ZM96.9,270.4c0,.3-.1.5-.3.6-.1.1-.4.2-.7.2h-6.7c-.3,0-.6,0-.7-.2s-.2-.3-.3-.6v-.7h8.7v.7Z"/>
    <path class="cls-4" d="M80.7,285.5c0-.5-.2-1-.5-1.3s-.8-.5-1.3-.5-1,.2-1.3.5-.5.7-.5,1.3.2.9.5,1.2c.3.3.8.5,1.3.5s1-.2,1.3-.5.5-.7.5-1.2Z"/>
  </g>
  <g>
    <path class="cls-2" d="M356.5,204.8c.6,0,.8.2.8.7v3.6c0,.4.2.6.6.6h1.5c.4,0,.6-.2.6-.6v-3.3c0-.2,0-.5-.2-.6,0-.2-.3-.3-.5-.4h4.2c.7,0,1.3,0,1.9-.1s1.1,0,1.6-.1c.4,0,.6-.3.6-.7v-1.3c0-.4-.2-.6-.6-.6-1.2.1-2.4.2-3.8.3-1.4,0-2.9.1-4.6.1h-4.8c-1.5,0-2.7-.2-3.6-.3-.4,0-.6.1-.6.6v1.3c0,.4.2.6.6.7.4,0,.9,0,1.4.1s1,0,1.6.1h3.3ZM365.6,190.5c0-.4-.3-.6-.7-.6h-1.5c-.4,0-.6.2-.6.6,0,.9,0,1.8,0,2.5v2.1c0,.7-.2,1.4-.7,1.8-.5.4-1.2.6-2.3.6h-4.3c-1.4,0-2.8-.2-4.1-.3-.4,0-.6.1-.6.6v1.4c0,.4,0,.6.5.6,1.1.1,2.4.2,3.8.3,1.4,0,3,.1,4.6.1s3.5-.4,4.4-1.2,1.4-2.1,1.4-3.8v-2.2c0-.7,0-1.5,0-2.3v-.2Z"/>
    <path class="cls-2" d="M344.3,193c.4,0,.6-.1.6-.6v-1.5c0-.4-.2-.6-.6-.6-.7,0-1.3-.1-1.9-.2-.6,0-1.2,0-1.9-.1h-4.3c-1.8,0-3.2.5-4.2,1.5s-1.5,2.4-1.5,4.3v2.9c0,.8.2,1.6.3,2.4-.6,0-1.1,0-1.5-.1-.4,0-.6.1-.6.6v1.3c0,.4.2.6.6.7.4,0,.9,0,1.4.1.5,0,1,0,1.6.1h3.3c.5,0,.8.2.8.7v4.7c0,.4.2.6.6.6h1.5c.4,0,.6-.2.6-.6v-4.4c0-.2,0-.5-.2-.6-.1-.2-.3-.3-.5-.4h4.2c.7,0,1.3,0,1.9-.1s1.1,0,1.6-.1c.4,0,.6-.3.6-.7v-1.3c0-.4-.2-.6-.6-.6-1.2.1-2.4.2-3.8.3-1.4,0-2.9.1-4.6.1h-4.2v-.3c-.3-1.3-.4-2.9-.4-4.6s.3-2.3.8-2.8c.5-.6,1.4-.8,2.7-.8h3.9c1.2,0,2.4.2,3.6.3l.2-.2Z"/>
    <path class="cls-2" d="M317,200.3c0,2.6.5,4.5,1.3,5.7s1.9,1.8,3.5,1.8,2.8-.7,3.6-2.1,1.2-3.6,1.2-6.5-.4-5.2-1.2-6.5-2-2.1-3.6-2.1-2.6.6-3.4,1.7c-.8,1.1-1.2,2.9-1.4,5.3h-2c-.3,0-.5,0-.6-.1-.1,0-.2-.3-.2-.5v-6.8c0-.4-.2-.6-.6-.6h-1.4c-.4,0-.6.2-.6.6v19.8c0,.4.2.6.6.6h1.4c.4,0,.6-.2.6-.6v-10.2c0,.1.2.2.3.3.1,0,.3.1.5.1h2ZM321.7,193.3c.7,0,1.3.5,1.6,1.4s.5,2.5.5,4.5-.2,3.6-.5,4.6c-.3.9-.9,1.4-1.6,1.4s-1.3-.5-1.6-1.4-.5-2.5-.5-4.6.2-3.6.5-4.6c.3-.9.9-1.4,1.6-1.4h0ZM307.4,210.1c0,.4.2.6.6.6h1.4c.4,0,.6-.2.6-.6v-20.1c0-.4-.2-.6-.6-.6h-1.4c-.4,0-.6.2-.6.6v20.1Z"/>
    <path class="cls-2" d="M296.1,206.8c0,.2,0,.4.2.5,0,0,.2.1.5.1h1.4c.4,0,.6-.2.6-.6-.3-1.7-.5-3.6-.7-5.5s-.2-3.7-.2-5.5,0-.8,0-1.1.2-.5.3-.7c.2-.2.4-.3.6-.4.3,0,.6-.1,1-.1.8,0,1.5,0,2.2.1.7,0,1.3.2,1.9.3.2,0,.3,0,.5-.1.1-.1.2-.3.2-.5v-1.4c0-.4-.2-.6-.6-.6-.7-.1-1.4-.2-2.2-.3s-1.6-.1-2.3-.1-1.4,0-2,.2c-.5.2-1,.4-1.3.8s-.6.9-.7,1.5c-.1.6-.2,1.3-.2,2.2v2.2h-2.2c-.3,0-.5,0-.6-.1-.1,0-.2-.3-.2-.5v-6.8c0-.4-.2-.6-.6-.6h-1.4c-.4,0-.6.2-.6.6v19.8c0,.4.2.6.6.6h1.4c.4,0,.6-.2.6-.6v-10.2c0,.1.2.2.3.3.1,0,.3.1.5.1h2.2c0,1.1.2,2.2.3,3.3s.3,2.2.4,3.2h.1ZM285.5,210.1c0,.4.2.6.6.6h1.4c.4,0,.6-.2.6-.6v-20.1c0-.4-.2-.6-.6-.6h-1.4c-.4,0-.6.2-.6.6v20.1Z"/>
    <path class="cls-2" d="M271.8,206.7c.8.3,1.6.6,2.3.7.7.2,1.4.2,2.1.2,2,0,3.4-.6,4.4-1.8s1.5-2.9,1.5-5.2v-4.9c0-.7-.1-1.5-.2-2.2,0-.7-.1-1.4-.2-2.2,0-.4-.3-.6-.7-.6h-1.5c-.5,0-.7.2-.6.7.2,1.6.3,3.2.4,4.7,0,1.5.1,3.1.1,4.7s-.3,2.5-.8,3.1-1.4.9-2.6.9-2.3-.3-3.6-.9h-.2c-.2,0-.3.2-.5.5l-.4,1.4c-.1.3,0,.6.5.8h0ZM266.1,210c0,.4.2.6.6.6h1.5c.4,0,.6-.2.6-.6v-20c0-.4-.2-.6-.6-.6h-1.5c-.4,0-.6.2-.6.6v8.2c-.2-.3-.5-.5-1-.5h-1.4c-.4,0-.6.2-.6.6v1.4c0,.4.2.6.6.6h1.6c.6,0,.8.3.8.8v8.8h0Z"/>
    <path class="cls-2" d="M254.5,192.3c.4,0,.6-.2.6-.6v-1.2c0-.4-.2-.6-.6-.6h-10.7c-.4,0-.6.2-.6.6v1.2c0,.4.2.6.6.6h1.2l.3,4.8c-.7,0-1.4,0-1.8-.1-.4,0-.6.1-.6.6v1.2c0,.2,0,.3.1.4,0,0,.2.1.4.2.3,0,.6,0,1,.1s.9,0,1.4,0h6.5c1,0,1.8-.1,2.4-.2.2,0,.4,0,.4-.2,0,0,.1-.2.1-.4v-1.2c0-.4-.2-.6-.6-.6s-1.1,0-1.8.1l.3-4.8h1.4ZM237.9,210.6c.5,0,1,.1,1.6.2.6,0,1.1,0,1.7.1s1.1,0,1.6,0h1.4c1.7,0,3.1,0,4.2-.1,1.1,0,2-.3,2.7-.5s1.1-.6,1.4-1c.3-.4.4-.9.4-1.6s-.1-1.1-.4-1.5-.6-.7-1.2-1c-.6-.2-1.3-.4-2.3-.5-.9,0-2.1-.1-3.5-.1h-3.8c-.7,0-1.2-.3-1.2-.8s.4-.8,1.2-.8h5c1,0,1.9,0,2.8.1s1.7,0,2.4.1c.4,0,.6-.2.6-.6v-1.2c0-.4-.2-.5-.6-.6-.9,0-1.9-.1-2.9-.2h-9c-.8,0-1.3.2-1.6.5s-.5.8-.5,1.4.1.9.4,1.3c.3.4.7.7,1.1.8h-.8c-.4,0-.5.2-.5.5v1.1c0,.4.2.5.5.5h9.4c.6,0,1.1,0,1.4.1.3,0,.6.1.7.3.1.1.2.3.2.5s0,.4-.2.5-.4.2-.9.3c-.4,0-1,.1-1.8.1h-6c-.6,0-1.1,0-1.7-.1s-1.1-.1-1.5-.2c-.4,0-.6.1-.6.5v1.2c0,.4,0,.6.4.6h0ZM250.3,197.3h-2.3l-.3-4.9h2.9l-.3,4.9h0ZM240.8,190c0-.4-.2-.6-.6-.6h-1.5c-.4,0-.6.2-.6.6v8.9c0,.4.2.6.6.6h1.5c.4,0,.6-.2.6-.6v-8.9Z"/>
    <path class="cls-2" d="M232.8,196.5c0-2-.7-3.5-2-4.5-1.3-1.1-3.1-1.6-5.5-1.6s-4.2.5-5.5,1.6-2,2.6-2,4.5.2,2.1.6,2.9c.4.8,1,1.5,1.8,2v3.9c0,.5-.3.7-.8.7h-2.4c-.4,0-.6.1-.6.6v1.3c0,.4.2.6.6.6s.9.1,1.5.2c.6,0,1.3,0,2,.1h5c3.8,0,6.6-.1,8.4-.4.4,0,.6-.3.6-.6v-1.3c0-.4-.2-.6-.6-.6-.7,0-1.3.2-1.9.3s-1.2.1-1.8.2c.4-.2.6-.5.6-1v-4c.7-.5,1.2-1.2,1.6-1.9.4-.8.5-1.7.5-2.7v-.3ZM225.3,200.1c-1.6,0-2.7-.3-3.5-.9-.8-.6-1.2-1.5-1.2-2.6s.4-2,1.2-2.6,2-.9,3.6-.9,2.8.3,3.6.9c.8.6,1.2,1.5,1.2,2.6s-.4,2-1.2,2.6-2,.9-3.5.9h-.2ZM223,202.5c.7.1,1.5.2,2.3.2s1.8,0,2.6-.3v3.1c0,.5-.3.7-.8.7h-4.8c.2,0,.3-.2.5-.4s.2-.4.2-.7v-2.7h0Z"/>
    <path class="cls-2" d="M203.1,190.2c-.4,0-.6.2-.6.6v1.3c0,.4.2.6.6.6h10.7c.4,0,.6-.2.6-.6v-1.3c0-.4-.2-.6-.6-.6h-4.4c.2-.1.4-.3.4-.6v-.6c0-.4-.2-.6-.6-.6h-1.6c-.4,0-.6.2-.6.6v.8c0,.3-.2.4-.5.4h-3.4ZM213.7,197.9c0-2.6-1.7-4-5.2-4s-5.2,1.3-5.2,4,1.7,4,5.2,4,5.2-1.3,5.2-4ZM211.7,204.4c0-.4-.3-.6-.7-.6h-1.4c-.2,0-.4,0-.5.2-.1.1-.2.3-.1.5v1.9c0,.7-.2,1.3-.6,1.6-.4.4-1,.6-1.8.6h-4.9c-.7,0-1.4,0-2-.1-.6,0-1.3-.1-2-.2-.4,0-.6.1-.6.6v1.3c-.1.4,0,.6.5.6,1.2.1,2.5.2,4,.3s3.1.1,5,.1,3-.4,3.9-1.2,1.4-1.9,1.4-3.3,0-1.6-.1-2.2h0ZM208.5,199.5c-.9,0-1.5-.1-1.9-.4-.4-.2-.6-.6-.6-1.1s.2-.9.6-1.1c.4-.2,1-.4,1.9-.4s1.5.1,1.9.4c.4.2.6.6.6,1.1s-.2.9-.6,1.1c-.4.2-1,.4-1.9.4ZM197.7,203.5c0,.4.2.6.6.6h1.5c.4,0,.6-.2.6-.6v-13.5c0-.4-.2-.6-.6-.6h-1.5c-.4,0-.6.2-.6.6v5.6c-.2-.3-.5-.5-1-.5h-1.4c-.4,0-.6.2-.6.6v1.3c0,.4.2.6.6.6h1.6c.6,0,.8.3.8.8v5.1h0Z"/>
    <path class="cls-2" d="M180.8,203.1c.2.6.4,1.1.7,1.6.3.5.7.9,1.2,1.3.4.4.9.7,1.5,1s1.1.4,1.7.5c.4,0,.6-.1.6-.6v-1.4c0-.4-.2-.6-.6-.6s-1-.3-1.4-.6-.8-.7-1.2-1.2-.6-1.1-.8-1.7c-.2-.6-.3-1.3-.3-2v-7.7c0-.4-.2-.6-.6-.6h-1.5c-.4,0-.6.2-.6.6v7.7c0,.7,0,1.4-.3,2-.2.6-.5,1.2-.8,1.7s-.7.9-1.2,1.2c-.4.3-.9.5-1.4.6-.4,0-.6.3-.6.6v1.4c0,.4.2.6.6.6.6,0,1.1-.2,1.7-.5s1-.6,1.5-1c.4-.4.8-.8,1.2-1.3.3-.5.6-1,.7-1.6h-.1ZM172.4,190c0-.4-.2-.6-.6-.6h-1.5c-.4,0-.6.2-.6.6v20c0,.4.2.6.6.6h1.5c.4,0,.6-.2.6-.6v-11.4c.2.3.5.5,1,.5h2.5c.4,0,.6-.2.6-.6v-1.4c0-.4-.2-.6-.6-.6h-2.7c-.6,0-.8-.3-.8-.8v-5.7Z"/>
    <path class="cls-2" d="M156,204.8c0,.8.3,1.5.8,1.9s1.2.7,2.1.7h4.2c.9,0,1.6-.2,2.1-.7s.8-1.1.8-1.9l.4-13.2c0-.4-.2-.6-.6-.6h-1.4c-.4,0-.7.2-.7.6v4.7h-5.1v-4.7c-.1-.4-.3-.6-.8-.6h-1.4c-.4,0-.6.2-.6.6l.4,13.2h-.2ZM163.3,203.8c0,.7-.4,1-1.1,1h-2.5c-.7,0-1-.3-1.1-1v-5c-.1,0,4.7,0,4.7,0v5ZM152.4,190c0-.4-.2-.6-.6-.6h-1.5c-.4,0-.6.2-.6.6v20c0,.4.2.6.6.6h1.5c.4,0,.6-.2.6-.6v-20Z"/>
    <path class="cls-2" d="M145.6,205.8c-1.2.1-2.4.2-3.8.3s-2.9.1-4.6.1h-4.8c-1.5,0-2.7-.2-3.6-.3-.4,0-.6.1-.6.6v1.3c0,.4.2.6.6.6s.9.1,1.5.2c.6,0,1.3,0,2,.1h5c3.8,0,6.6-.1,8.4-.4.4,0,.6-.3.6-.6v-1.3c0-.4-.2-.6-.6-.6h-.1ZM137.1,198.4c.3.6.6,1.1,1.1,1.6s1,.9,1.5,1.3c.6.4,1.2.6,1.9.8.7.2,1.4.3,2.1.3s.4,0,.6,0,.3-.2.3-.5v-1.5c0-.4-.2-.6-.6-.6-.8,0-1.5-.1-2.2-.4-.7-.3-1.2-.6-1.7-1.1-.5-.4-.9-1-1.1-1.6-.3-.6-.4-1.3-.4-2v-3.4c0-.4-.2-.6-.6-.6h-1.5c-.4,0-.6.2-.6.6v3.4c0,.7-.1,1.4-.4,2s-.6,1.1-1.1,1.6c-.5.4-1.1.8-1.7,1.1-.7.3-1.4.4-2.2.4s-.6.2-.6.6v1.5c0,.3,0,.5.3.5h.6c.7,0,1.4,0,2.1-.3.7-.2,1.3-.5,1.9-.8.6-.4,1.1-.8,1.5-1.3s.8-1,1.1-1.6h-.3Z"/>
    <path class="cls-2" d="M124.7,208.4c.4,0,.6-.3.6-.6v-1.3c0-.4-.2-.6-.6-.6s-.9,0-1.5.1c-.6,0-1.2,0-1.9.1-.7,0-1.4,0-2.1.1s-1.4,0-2.1,0c.2,0,.3-.2.4-.4s.2-.4.2-.6v-2.5c1.1,0,2-.2,2.7-.3.7-.2,1.3-.4,1.8-.7s.8-.7.9-1.2c.2-.5.3-1,.3-1.7s-.1-1.3-.3-1.8c-.2-.5-.6-.8-1.2-1.1s-1.3-.5-2.2-.6-2-.2-3.4-.2h-3c-1,0-1.6-.4-1.6-1.2s.1-.7.3-.8c.2-.2.6-.2,1.2-.2h4.8c.8,0,1.5,0,2.3.1.7,0,1.4.1,2,.2.4,0,.6-.1.6-.5v-1.4c0-.3-.2-.5-.5-.6-1-.1-2.2-.3-3.6-.3s-2.8-.1-4.2-.1h-2.9c-1.8,0-2.7.8-2.7,2.3s.2,1.2.5,1.7.8.8,1.3,1h-1.1c-.4,0-.5.2-.5.5v1.2c0,.4.2.6.5.6h8.6c.6,0,1,.1,1.3.2s.6.2.7.4.2.4.2.6,0,.5-.2.6c-.2.2-.4.3-.9.4-.4,0-1,.2-1.7.2h-2.9c-1.2,0-1.9,0-2.9-.1-1,0-1.9-.2-2.8-.3-.3,0-.5.1-.6.5l-.2,1.4v.4c0,.1.2.2.4.2,1,.1,2,.3,3.1.3s2.1.1,2.9.1h0v2.7c0,.5-.3.7-.8.7h-3.3c-.6,0-1.1,0-1.6-.1s-1,0-1.4-.1c-.4,0-.6.1-.6.6v1.3c0,.4.2.6.6.6s.9.1,1.5.2c.6,0,1.3,0,2,.1h5c3.8,0,6.6-.1,8.4-.4l.2.3Z"/>
  </g>
  <g>
    <path class="cls-2" d="M325.1,230.5c.4,0,.6-.2.6-.6v-1.3c0-.4-.2-.6-.6-.6h-9.8c-.4,0-.6.2-.6.6v1.3c0,.4.2.6.6.6h3.6v1.5c0,.7,0,1.3-.3,1.9-.2.6-.4,1.1-.8,1.5-.3.4-.7.8-1.2,1s-.9.4-1.5.4-.6.2-.6.6v1.3c0,.4.2.6.6.6.6,0,1.2,0,1.7-.3.5-.2,1-.5,1.5-.8.4-.3.8-.7,1.1-1.1.3-.4.5-.9.7-1.4.2.5.4.9.7,1.4.3.4.7.8,1.1,1.1.4.3.9.6,1.5.8s1.1.3,1.8.3.6-.2.6-.6v-1.3c0-.4-.2-.6-.6-.6s-1-.1-1.5-.4-.8-.6-1.2-1c-.3-.4-.6-.9-.8-1.5s-.3-1.2-.3-1.9v-1.5h3.7ZM323.5,241.9c0-.4-.3-.6-.7-.6h-1.4c-.2,0-.4,0-.5.2-.1.1-.2.3-.1.5v2.4c0,.7-.2,1.3-.6,1.6-.4.4-1,.6-1.8.6h-5.3c-.7,0-1.4,0-2.1-.1-.7,0-1.4-.1-2.1-.2-.4,0-.6.1-.6.6v1.3c-.1.4,0,.6.5.6,1.2.1,2.6.2,4.1.3,1.6,0,3.3.1,5.3.1s3-.4,3.9-1.2,1.4-1.9,1.4-3.3v-1.5c0-.5,0-.9-.1-1.2h.1ZM311.7,228c0-.4-.2-.6-.6-.6h-1.5c-.4,0-.6.2-.6.6v13.5c0,.4.2.6.6.6h1.5c.4,0,.6-.2.6-.6v-13.5Z"/>
    <path class="cls-2" d="M305.7,246.9c.4,0,.6-.3.6-.6v-1.4c0-.4-.2-.6-.6-.5-.6,0-1.3.2-2.2.2s-1.7.1-2.5.1c.4-.2.6-.5.6-1v-2.3c1.2-.2,2.1-.6,2.8-1.3.6-.7.9-1.6.9-2.7s-.4-2.4-1.3-3.1-2.2-1-3.9-1-3,.3-3.9,1-1.3,1.7-1.3,3.1.3,2.1,1,2.8,1.7,1.1,3,1.3v2.5c0,.5-.3.7-.8.7h-2.1c-.6,0-1.1-.1-1.6-.2-.4,0-.6,0-.6.5v1.4c0,.4.2.6.6.6.8.1,1.7.2,2.7.3s2.1,0,3.2,0h3c.8,0,1.7-.1,2.5-.3h0ZM294.7,229.2c-.4,0-.6.2-.6.6v1.4c0,.4.2.6.6.6h10.7c.4,0,.6-.2.6-.6v-1.4c0-.4-.2-.6-.6-.6h-4.4c.2-.1.4-.3.4-.6v-.9c0-.4-.2-.6-.6-.6h-1.6c-.4,0-.6.2-.6.6v1.1c0,.3-.2.4-.5.4h-3.5.1ZM302.5,237.3c0,.5-.2,1-.6,1.2-.4.3-1,.4-1.8.4s-1.4-.1-1.8-.4c-.4-.3-.6-.7-.6-1.2,0-1.1.8-1.6,2.5-1.6s2.5.5,2.5,1.6h-.2ZM289.5,248c0,.4.2.6.6.6h1.5c.4,0,.6-.2.6-.6v-20c0-.4-.2-.6-.6-.6h-1.5c-.4,0-.6.2-.6.6v8.2c-.2-.3-.5-.5-1-.5h-1.4c-.4,0-.6.2-.6.6v1.4c0,.4.2.6.6.6h1.6c.6,0,.8.3.8.8v8.8h0Z"/>
    <path class="cls-2" d="M274,228.2c-.4,0-.6.2-.6.6v1.2c0,.4.2.6.6.6h10.7c.4,0,.6-.2.6-.6v-1.2c0-.4-.2-.6-.6-.6h-4.4c.2-.1.4-.3.4-.6v-.6c0-.4-.2-.6-.6-.6h-1.6c-.4,0-.6.2-.6.6v.8c0,.3-.2.4-.5.4h-3.4,0ZM284.6,234.9c0-2.2-1.7-3.3-5.2-3.3s-5.2,1.1-5.2,3.3,1.7,3.3,5.2,3.3,5.2-1.1,5.2-3.3ZM268.5,248.6c.5,0,1,.1,1.6.2s1.1,0,1.6.1h2.8c1.7,0,3.1,0,4.2-.1,1.1,0,2-.2,2.6-.5.6-.2,1.1-.5,1.3-.9.3-.4.4-.9.4-1.5s-.1-1.1-.3-1.5-.6-.7-1.2-.9c-.5-.2-1.3-.4-2.2-.5s-2-.1-3.4-.1h-3.6c-.7,0-1.2-.2-1.2-.7s.4-.7,1.2-.7h4.7c.9,0,1.8,0,2.6.1.9,0,1.6,0,2.3.1.4,0,.6-.2.6-.6v-1.1c0-.4-.2-.5-.6-.6-.9,0-1.8-.1-2.9-.2h-8.5c-.8,0-1.3.2-1.6.5s-.5.7-.5,1.3.1.9.4,1.2c.3.4.7.6,1.1.8h-.8c-.4,0-.5.2-.5.5v1c0,.4.2.5.5.5h9c.6,0,1,0,1.3.1.3,0,.5.1.6.3s.1.3.1.4,0,.3-.2.5-.4.2-.8.3c-.4,0-1,0-1.7.1h-5.9c-.5,0-1,0-1.6-.1-.5,0-1-.1-1.5-.2-.4,0-.6.1-.6.5v1.1c0,.4,0,.6.4.6h.3ZM279.4,235.9c-.9,0-1.5,0-1.9-.2s-.6-.4-.6-.8.2-.6.6-.8c.4-.2,1-.2,1.9-.2s1.5,0,1.9.2.6.4.6.8-.2.6-.6.8c-.4.2-1,.2-1.9.2ZM268.6,237.5c0,.4.2.6.6.6h1.5c.4,0,.6-.2.6-.6v-9.4c0-.4-.2-.6-.6-.6h-1.5c-.4,0-.6.2-.6.6v3.6c-.2-.3-.5-.5-1-.5h-1.4c-.4,0-.6.2-.6.6v1.3c0,.4.2.6.6.6h1.6c.6,0,.8.3.8.8v3h0Z"/>
    <path class="cls-2" d="M248.5,240.6h7.8c.4,0,.6-.2.6-.6v-1.3c0-.4-.2-.6-.6-.6-.8,0-1.8.1-3.1.2h-12.1c-.6,0-1.1,0-1.6-.1-.4,0-.6.1-.6.6v1.3c0,.4.2.6.6.6s.9,0,1.5.1h4.6c.4,0,.6.2.6.6v2.7c0,.4.2.6.6.6h1.5c.4,0,.6-.2.6-.6v-2.7c0-.3,0-.5-.3-.6v-.2ZM248.5,234.9c0,1.2.7,1.8,1.9,1.8h3.1c1.2,0,1.9-.6,1.9-1.8l.2-6.4c0-.4-.2-.6-.6-.6h-1.3c-.4,0-.6.2-.6.6v1.3h-2.2v-1.3c0-.4-.2-.6-.6-.6h-1.3c-.4,0-.6.2-.6.6l.2,6.4h0ZM255.2,242.9c0-.4-.3-.6-.7-.6h-1.5c-.2,0-.4,0-.5.2-.1.1-.1.3-.1.5,0,.3,0,.5.1.8v.9c0,1.3-.8,1.9-2.3,1.9h-5.4c-.8,0-1.5,0-2.2-.1-.7,0-1.4-.1-2.1-.2-.4,0-.6.1-.6.6v1.3c-.1.4,0,.6.5.6,1.2.1,2.6.2,4.3.3s3.5.1,5.5.1,2.9-.4,3.8-1.1c.9-.8,1.3-1.8,1.3-3.2s0-.7,0-1,0-.6-.1-.8v-.2ZM252.9,233.8c0,.3-.2.5-.5.5h-.9c-.4,0-.5-.2-.5-.5v-1.6h2v1.6h-.1ZM240.5,234.9c0,1.2.7,1.8,1.9,1.8h3.1c1.2,0,1.9-.6,1.9-1.8l.2-6.4c0-.4-.2-.6-.6-.6h-1.3c-.4,0-.6.2-.6.6v1.3h-2.2v-1.3c0-.4-.2-.6-.6-.6h-1.3c-.4,0-.6.2-.6.6l.2,6.4h0ZM244.9,233.8c0,.3-.2.5-.5.5h-.9c-.4,0-.5-.2-.5-.5v-1.6h2v1.6h-.1Z"/>
    <path class="cls-2" d="M233.7,239.2c.8,0,1.4-.2,1.8-.6s.7-.9.7-1.6v-8c0-.8-.4-1.1-1.1-1.1h-6c-1.1,0-1.9.3-2.5,1s-.9,1.7-.9,2.9.2,2,.6,2.9c.4.9,1,1.5,1.7,1.9h-1.6c-.4,0-.6.2-.6.6v1.3c0,.4.2.6.6.6h7.3ZM234.2,241.9c0-.4-.3-.6-.7-.6h-1.4c-.2,0-.4,0-.5.2-.1.1-.2.3-.1.5v2.4c0,.7-.2,1.3-.6,1.6-.4.4-1,.6-1.8.6h-4.9c-.7,0-1.4,0-2-.1-.6,0-1.3-.1-2-.2-.4,0-.6.1-.6.6v1.3c-.1.4,0,.6.5.6,1.2.1,2.5.2,4,.3s3.1.1,5,.1,3-.4,3.9-1.2,1.4-1.9,1.4-3.3v-1.5c0-.5,0-.9-.1-1.2h0ZM231,236.6c-.8,0-1.4-.3-1.9-1-.5-.6-.7-1.5-.7-2.5s.2-1.5.5-2,.8-.7,1.5-.7h2.4c.4,0,.6.2.6.6v4.8c0,.2,0,.4-.3.6s-.4.2-.7.2h-1.5,0ZM220.1,241.5c0,.4.2.6.6.6h1.5c.4,0,.6-.2.6-.6v-13.5c0-.4-.2-.6-.6-.6h-1.5c-.4,0-.6.2-.6.6v5.6c-.2-.3-.5-.5-1-.5h-1.4c-.4,0-.6.2-.6.6v1.3c0,.4.2.6.6.6h1.6c.6,0,.8.3.8.8v5.1h0Z"/>
    <path class="cls-2" d="M198,237.3c0,3,.4,5.2,1.3,6.5s2.2,2.1,4.1,2.1,3.2-.7,4.1-2.1c.9-1.4,1.3-3.6,1.3-6.5s-.4-5.2-1.3-6.5c-.9-1.4-2.2-2.1-4.1-2.1s-3.2.7-4.1,2.1-1.3,3.6-1.3,6.5ZM203.4,231.3c.9,0,1.6.5,2,1.4s.6,2.4.6,4.6-.2,3.6-.6,4.6c-.4.9-1.1,1.4-2,1.4s-1.6-.5-2-1.4-.6-2.5-.6-4.6.2-3.6.6-4.6,1.1-1.4,2-1.4ZM192.5,248c0,.4.2.6.6.6h1.5c.4,0,.6-.2.6-.6v-20c0-.4-.2-.6-.6-.6h-1.5c-.4,0-.6.2-.6.6v8.2c-.2-.3-.5-.5-1-.5h-1.4c-.4,0-.6.2-.6.6v1.4c0,.4.2.6.6.6h1.6c.6,0,.8.3.8.8v8.8h0Z"/>
    <path class="cls-2" d="M177.4,244.7c.8.3,1.6.6,2.3.7.7.2,1.4.2,2.1.2,2,0,3.4-.6,4.4-1.8s1.5-2.9,1.5-5.2v-4.9c0-.7-.1-1.5-.2-2.2,0-.7-.1-1.4-.2-2.2,0-.4-.3-.6-.7-.6h-1.5c-.5,0-.7.2-.6.7.2,1.6.3,3.2.4,4.7,0,1.5.1,3.1.1,4.7s-.3,2.5-.8,3.1-1.4.9-2.6.9-2.3-.3-3.6-.9h-.2c-.2,0-.3.2-.5.5l-.4,1.4c-.1.3,0,.6.5.8h0ZM173.9,228c0-.4-.2-.6-.6-.6h-1.5c-.4,0-.6.2-.6.6v20c0,.4.2.6.6.6h1.5c.4,0,.6-.2.6-.6v-20Z"/>
    <path class="cls-2" d="M161.6,243c-1.3,0-2.6-.3-4-.9h-.3c-.2,0-.3.1-.4.4l-.4,1.4c-.1.4,0,.6.4.7,1,.3,1.9.6,2.7.7s1.7.2,2.5.2c3.8,0,5.7-1.7,5.7-5s-.5-2.9-1.4-3.6c-.9-.8-2.4-1.2-4.3-1.2s-1.3-.2-1.6-.5c-.3-.3-.5-.9-.5-1.6s.2-1.3.5-1.7c.4-.3.9-.5,1.8-.5s2.3.1,4.2.4c.4,0,.6-.1.6-.5v-1.5c0-.4-.2-.6-.6-.6s-.8-.1-1.2-.2-.8,0-1.2,0h-2.6c-2.9,0-4.4,1.2-4.4,3.5s.1,1.4.4,2,.6,1.1,1.1,1.5h-.8c-.4,0-.6.2-.6.6v1.3c0,.4.2.6.6.6h3.3c1.4,0,2.4.2,3,.5.6.4.9,1,.9,1.8s-.3,1.5-.8,1.8c-.5.4-1.4.5-2.7.5h0ZM151.7,248c0,.4.2.6.6.6h1.5c.4,0,.6-.2.6-.6v-20c0-.4-.2-.6-.6-.6h-1.5c-.4,0-.6.2-.6.6v8.2c-.2-.3-.5-.5-1-.5h-1.4c-.4,0-.6.2-.6.6v1.4c0,.4.2.6.6.6h1.6c.6,0,.8.3.8.8v8.8h0Z"/>
  </g>
  <g>
    <path class="cls-2" d="M393.1,279.8c.3,1,.9,1.8,1.7,2.5.8.6,1.7,1,2.8,1.1.4,0,.6-.2.6-.6v-1.4c0-.2,0-.4,0-.4,0,0-.2-.1-.5-.2-.9-.1-1.7-.6-2.3-1.4-.6-.8-.9-2-.9-3.4v-8.4c0-.4-.2-.6-.6-.6h-1.4c-.4,0-.6.2-.6.6v8.4c0,1.5-.3,2.6-.9,3.4s-1.3,1.3-2.3,1.4c-.2,0-.4,0-.5.2,0,0,0,.2,0,.4v1.4c0,.4.2.6.6.6,1.1-.1,2-.5,2.8-1.1s1.4-1.4,1.7-2.5ZM378.9,286.1c0,.4.2.6.6.6h1.4c.4,0,.6-.2.6-.6v-9.6h1.4c.3,0,.5,0,.6.1s.2.3.2.5v9c0,.4.2.6.6.6h1.4c.4,0,.6-.2.6-.6v-19.8c0-.4-.2-.6-.6-.6h-1.4c-.4,0-.6.2-.6.6v8c-.2-.3-.4-.4-.8-.4h-1.3v-7.8c0-.4-.2-.6-.6-.6h-1.4c-.4,0-.6.2-.6.6v20.1h0Z"/>
    <path class="cls-2" d="M374.9,284.4c.4,0,.6-.3.6-.6v-1.3c0-.4-.2-.6-.6-.6s-.9,0-1.5.1c-.6,0-1.2,0-1.9.1-.7,0-1.4,0-2.1.1s-1.4,0-2.1,0c.2,0,.3-.2.4-.4,0-.2.2-.4.2-.6v-2.5c1.1,0,2-.2,2.7-.3.7-.2,1.3-.4,1.8-.7s.8-.7.9-1.2c.2-.5.3-1,.3-1.7s0-1.3-.3-1.8c-.2-.5-.6-.8-1.2-1.1s-1.3-.5-2.2-.6-2-.2-3.4-.2h-3c-1,0-1.6-.4-1.6-1.2s0-.7.3-.8c.2-.2.6-.2,1.2-.2h4.8c.8,0,1.5,0,2.3.1.7,0,1.4.1,2,.2.4,0,.6-.1.6-.5v-1.4c0-.3-.2-.5-.5-.6-1-.1-2.2-.3-3.6-.3s-2.8-.1-4.2-.1h-2.9c-1.8,0-2.7.8-2.7,2.3s.2,1.2.5,1.7.8.8,1.3,1h-1.1c-.4,0-.5.2-.5.5v1.2c0,.4.2.6.5.6h8.6c.6,0,1,.1,1.3.2s.6.2.7.4c0,.2.2.4.2.6s0,.5-.2.6c-.2.2-.4.3-.9.4-.4,0-1,.2-1.7.2h-2.9c-1.2,0-1.9,0-2.9-.1-1,0-1.9-.2-2.8-.3-.3,0-.5.1-.6.5l-.2,1.4v.4c0,.1.2.2.4.2,1,.1,2,.3,3.1.3s2.1.1,2.9.1h0v2.7c0,.5-.3.7-.8.7h-3.3c-.6,0-1.1,0-1.6-.1s-1,0-1.4-.1c-.4,0-.6.1-.6.6v1.3c0,.4.2.6.6.6s.9.1,1.5.2c.6,0,1.3,0,2,.1h5c3.8,0,6.6-.1,8.4-.4l.2.3Z"/>
    <path class="cls-2" d="M346.2,278.6h7.8c.4,0,.6-.2.6-.6v-1.3c0-.4-.2-.6-.6-.6-.8,0-1.8.1-3.1.2h-12.1c-.6,0-1.1,0-1.6-.1-.4,0-.6.1-.6.6v1.3c0,.4.2.6.6.6s.9,0,1.5.1h4.6c.4,0,.6.2.6.6v2.7c0,.4.2.6.6.6h1.5c.4,0,.6-.2.6-.6v-2.7c0-.3,0-.5-.3-.6v-.2ZM352.8,280.9c0-.4-.3-.6-.7-.6h-1.5c-.2,0-.4,0-.5.2,0,.1,0,.3,0,.5,0,.3,0,.5,0,.8v.9c0,1.3-.8,1.9-2.3,1.9h-5.4c-.8,0-1.5,0-2.2-.1-.7,0-1.4-.1-2.1-.2-.4,0-.6.1-.6.6v1.3c-.1.4,0,.6.5.6,1.2.1,2.6.2,4.3.3s3.5.1,5.5.1,2.9-.4,3.8-1.1c.9-.8,1.3-1.8,1.3-3.2s0-.7,0-1,0-.6,0-.8v-.2ZM352.9,270.3c0-1.6-.6-2.7-1.8-3.5-1.2-.7-3.1-1.1-5.7-1.1s-4.5.4-5.7,1.1-1.8,1.9-1.8,3.5.6,2.7,1.8,3.5c1.2.7,3.1,1.1,5.7,1.1s4.5-.4,5.7-1.1,1.8-1.9,1.8-3.5ZM345.4,272.4c-.9,0-1.6,0-2.2-.1-.6,0-1.1-.2-1.5-.4-.4-.2-.6-.4-.8-.7-.2-.3-.3-.6-.3-1s0-.7.2-1,.4-.5.8-.6c.4-.2.9-.3,1.5-.4.6,0,1.3-.1,2.2-.1s1.6,0,2.2.1c.6,0,1.1.2,1.5.4s.6.4.8.6c.2.3.3.6.3,1s0,.7-.3,1c-.2.3-.4.5-.8.7s-.9.3-1.5.4c-.6,0-1.3.1-2.2.1h.1Z"/>
    <path class="cls-2" d="M320.7,275.5c-.1-.4-.2-.8-.3-1.3s-.2-.9-.3-1.4c0-.5-.2-.9-.2-1.3v-1.1c0-.7.2-1.1.5-1.4s.8-.4,1.4-.4h2.9c.3,0,.7,0,1.1.1.3,0,.7.1,1.1.2.2,0,.3,0,.5-.1.1-.1.2-.3.2-.5v-1.4c0-.4-.2-.6-.6-.6-.9-.1-1.8-.2-2.6-.3s-1.7-.1-2.6-.1c-1.6,0-2.8.4-3.5,1.1s-1,1.9-1,3.5,0,.7,0,1.1.1.9.2,1.3.2.9.3,1.4.2.9.3,1.3.1.4.2.4c0,0,.2.1.5.1h1.5c.2,0,.4,0,.5-.2.1-.1.1-.3,0-.5h0ZM325.7,282.5c0-3-2.6-4.6-7.8-4.6s-7.8,1.5-7.8,4.6,2.6,4.6,7.8,4.6,7.8-1.5,7.8-4.6ZM323,282.5c0,.3,0,.6-.3.9s-.5.5-.9.6c-.4.2-.9.3-1.6.4-.6,0-1.4.1-2.4.1s-1.7,0-2.4-.1c-.6,0-1.2-.2-1.6-.4-.4-.2-.7-.4-.9-.6s-.3-.5-.3-.9,0-.6.3-.9c.2-.2.5-.5.9-.6.4-.2.9-.3,1.6-.4.6,0,1.4-.1,2.4-.1s1.7,0,2.4.1c.6,0,1.2.2,1.6.4.4.2.7.4.9.6s.3.5.3.9ZM313.3,274.3c.2.3.5.5,1,.5h1.3c.4,0,.6-.2.6-.6v-1.3c0-.4-.2-.6-.6-.6h-1.7c-.2,0-.4,0-.5-.2,0-.1-.1-.3-.1-.5v-2.2c.2.3.5.5,1,.5h1.3c.4,0,.6-.2.6-.6v-1.3c0-.4-.2-.6-.6-.6h-1.7c-.2,0-.4,0-.5-.2,0-.1-.1-.3-.1-.5v-.7c0-.4-.2-.6-.6-.6h-1.5c-.4,0-.6.2-.6.6v10.1c0,.4.2.6.6.6h1.5c.4,0,.6-.2.6-.6v-1.8h0Z"/>
    <path class="cls-2" d="M307,269.5c.4,0,.6-.2.6-.6v-1.4c0-.4-.2-.6-.6-.6h-8.7c-.4,0-.6.2-.6.6v1.4c0,.4.2.6.6.6h3v6.4c0,1.5-.3,2.6-.9,3.4-.6.8-1.3,1.3-2.3,1.4-.2,0-.4,0-.5.2,0,0-.1.2-.1.4v1.4c0,.4.2.6.6.6,1.1-.1,2-.5,2.8-1.1s1.4-1.4,1.7-2.5c.3,1,.9,1.8,1.7,2.5.8.6,1.7,1,2.8,1.1.4,0,.6-.2.6-.6v-1.4c0-.2,0-.4-.1-.4,0,0-.2-.1-.5-.2-.9-.1-1.7-.6-2.3-1.4s-.9-2-.9-3.4v-6.4h3.1ZM296.1,273.6c-.3,0-.5,0-.6-.1-.1,0-.2-.3-.2-.5v-6.7c0-.4-.2-.6-.6-.6h-1.4c-.4,0-.6.2-.6.6v19.8c0,.4.2.6.6.6h1.4c.4,0,.6-.2.6-.6v-10.3c0,.1.2.2.3.3.1,0,.3.1.5.1h2.1c.4,0,.6-.2.6-.6v-1.4c0-.4-.2-.6-.6-.6h-2.2,0ZM288.5,286.1c0,.4.2.6.6.6h1.4c.4,0,.6-.2.6-.6v-20.1c0-.4-.2-.6-.6-.6h-1.4c-.4,0-.6.2-.6.6v20.1Z"/>
    <path class="cls-2" d="M284.8,268.5c.4,0,.6-.2.6-.6v-1.3c0-.4-.2-.6-.6-.6h-9.8c-.4,0-.6.2-.6.6v1.3c0,.4.2.6.6.6h3.6v1c0,.7,0,1.3-.3,1.9-.2.6-.4,1.1-.8,1.5-.3.4-.7.8-1.2,1-.4.2-.9.4-1.5.4s-.6.2-.6.6v1.3c0,.4.2.6.6.6.6,0,1.2,0,1.7-.3.5-.2,1-.5,1.5-.8.4-.3.8-.7,1.1-1.1s.5-.9.7-1.4c.2.5.4.9.7,1.4.3.4.7.8,1.1,1.1.4.3.9.6,1.5.8.5.2,1.1.3,1.8.3s.6-.2.6-.6v-1.3c0-.4-.2-.6-.6-.6s-1-.1-1.5-.4c-.4-.2-.8-.6-1.2-1-.3-.4-.6-.9-.8-1.5s-.3-1.2-.3-1.9v-1h3.7ZM268.9,286.2c0,.4.3.6.7.6h1.4c.2,0,.4,0,.5-.2.1-.1.2-.3.1-.5v-3.1c0-.8.2-1.3.5-1.6.3-.3.9-.4,1.7-.4,1.7,0,3.3,0,4.8.1,1.5,0,3,.2,4.5.3.4,0,.6-.1.6-.6v-1.3c0-.4-.2-.6-.6-.6-1.3-.1-2.7-.2-4.3-.3s-3.3-.1-5.3-.1-2.9.3-3.6.9c-.7.6-1.1,1.6-1.1,2.9v3.8h.1ZM271.4,266c0-.4-.2-.6-.6-.6h-1.5c-.4,0-.6.2-.6.6v10.1c0,.4.2.6.6.6h1.5c.4,0,.6-.2.6-.6v-4.1c.2.3.5.5,1,.5h1.7c.4,0,.6-.2.6-.6v-1.3c0-.4-.2-.6-.6-.6h-1.8c-.6,0-.8-.3-.8-.8v-3.2h0Z"/>
    <path class="cls-2" d="M258.8,269.5c.4,0,.6-.2.6-.6v-1.4c0-.4-.2-.6-.6-.6h-9c-.4,0-.6.2-.6.6v1.4c0,.4.2.6.6.6h.8l.4,11.1h-1.5c-.4,0-.6.2-.6.6v1.4c0,.2,0,.4.1.4s.2.1.5.2c.3,0,.6,0,.9.1h6.5c.8,0,1.6-.1,2.2-.2.2,0,.4,0,.5-.2s.1-.2.1-.4v-1.4c0-.4-.2-.6-.6-.6h-1.5l.4-11.1h.8ZM255,280.8h-1.4l-.4-11.2h2.2l-.4,11.2h0ZM239.9,286.1c0,.4.2.6.6.6h1.4c.4,0,.6-.2.6-.6v-9.6h1.4c.3,0,.5,0,.6.1s.2.3.2.5v9c0,.4.2.6.6.6h1.4c.4,0,.6-.2.6-.6v-19.8c0-.4-.2-.6-.6-.6h-1.4c-.4,0-.6.2-.6.6v8c-.2-.3-.4-.4-.8-.4h-1.3v-7.8c0-.4-.2-.6-.6-.6h-1.4c-.4,0-.6.2-.6.6v20.1h0Z"/>
    <path class="cls-2" d="M230.4,281c-.6,0-1.2,0-1.8-.2-.6-.1-1.2-.4-1.9-.7h-.3c-.2,0-.3.1-.4.4l-.4,1.4c-.1.4,0,.6.4.7.9.3,1.8.6,2.6.7.8.2,1.6.2,2.4.2,3.8,0,5.7-1.7,5.7-5s-.4-2.9-1.3-3.6-2.3-1.2-4.2-1.2-1.3-.2-1.6-.5-.5-.9-.5-1.6.2-1.3.5-1.7c.4-.3.9-.5,1.8-.5h1.6c.6,0,1.4.1,2.4.3.4,0,.6-.1.6-.5v-1.5c0-.4-.2-.6-.6-.6s-.8-.1-1.2-.2h-3.5c-2.9,0-4.4,1.2-4.4,3.5s.1,1.4.4,2c.3.6.6,1.1,1.1,1.5h-.8c-.4,0-.6.2-.6.6v1.3c0,.4.2.6.6.6h3.3c.7,0,1.2,0,1.7.1s.8.2,1.1.4c.3.2.5.4.6.7.1.3.2.7.2,1.1,0,.8-.3,1.5-.8,1.8-.5.4-1.4.5-2.7.5h0ZM222.8,266c0-.4-.2-.6-.6-.6h-1.5c-.4,0-.6.2-.6.6v20c0,.4.2.6.6.6h1.5c.4,0,.6-.2.6-.6v-11.4c.2.3.5.5,1,.5h1.1c.4,0,.6-.2.6-.6v-1.4c0-.4-.2-.6-.6-.6h-1.2c-.6,0-.8-.3-.8-.8v-5.7h-.1Z"/>
    <path class="cls-2" d="M214,275.3c0,1.9-.3,3.4-1,4.3-.6.9-1.6,1.4-2.9,1.4s-2.3-.3-3.6-.9h-.2c-.2,0-.3.2-.5.5l-.4,1.4c-.1.3,0,.6.5.8.8.3,1.5.5,2.2.7s1.4.2,2.1.2c2.2,0,3.8-.7,4.9-2.1s1.6-3.5,1.6-6.2-.6-5-1.7-6.4c-1.1-1.3-2.8-2-5-2s-1.3,0-1.8,0-1,0-1.4.2c-.2,0-.4,0-.5.2s-.1.2-.1.4v1.4c0,.4.2.6.6.6s.9-.1,1.4-.2,1,0,1.6,0,1.4.1,1.9.3c.5.2,1,.5,1.3,1s.6,1,.7,1.8.2,1.6.2,2.7h0ZM200.6,286c0,.4.2.6.6.6h1.5c.4,0,.6-.2.6-.6v-20c0-.4-.2-.6-.6-.6h-1.5c-.4,0-.6.2-.6.6v8.2c-.2-.3-.5-.5-1-.5h-1.4c-.4,0-.6.2-.6.6v1.4c0,.4.2.6.6.6h1.6c.6,0,.8.3.8.8v8.8h0Z"/>
    <path class="cls-2" d="M185.3,271.1c0,.8.1,1.6.4,2.2s.6,1.2,1.1,1.7,1,.8,1.7,1.1c.7.3,1.4.4,2.2.4s1.6-.1,2.2-.4c.7-.3,1.2-.6,1.7-1.1s.8-1,1.1-1.7c.3-.7.4-1.4.4-2.2s-.1-1.6-.4-2.2-.6-1.2-1.1-1.7-1-.8-1.7-1.1c-.7-.3-1.4-.4-2.2-.4s-1.6.1-2.2.4c-.7.3-1.2.6-1.7,1.1s-.8,1-1.1,1.7-.4,1.4-.4,2.2ZM179.4,284.3c-.4,0-.6.2-.6.6v1.3c0,.4.2.6.6.6h12.4c.8,0,1.4-.2,1.8-.6s.7-.9.7-1.6v-5.5c0-.8-.4-1.1-1.1-1.1h-11.1c-.9,0-1.7.2-2.2.7s-.8,1.2-.8,2.1.2,1.4.6,2,.9,1.1,1.5,1.4h-1.8ZM188,271.1c0-.9.2-1.6.7-2.1s1.1-.8,1.9-.8,1.5.3,1.9.8c.5.5.7,1.2.7,2.1s-.2,1.6-.7,2.1-1.1.8-1.9.8-1.5-.3-1.9-.8c-.5-.5-.7-1.2-.7-2.1ZM184,284.3c-.3,0-.6,0-.9-.2-.3-.1-.5-.3-.7-.5s-.3-.4-.5-.7c-.1-.3-.2-.6-.2-.9,0-.5.1-.9.4-1.1s.7-.3,1.2-.3h7.4c.4,0,.6.2.6.6v2.4c0,.2,0,.4-.3.6-.2.1-.4.2-.7.2h-6.5.2ZM182,266c0-.4-.2-.6-.6-.6h-1.5c-.4,0-.6.2-.6.6v9.6c0,.4.2.6.6.6h1.5c.4,0,.6-.2.6-.6v-9.6Z"/>
    <path class="cls-2" d="M165.3,275.3c0,3,.4,5.2,1.3,6.5s2.2,2.1,4.1,2.1,3.2-.7,4.1-2.1,1.3-3.6,1.3-6.5-.4-5.2-1.3-6.5c-.9-1.4-2.2-2.1-4.1-2.1s-3.2.7-4.1,2.1-1.3,3.6-1.3,6.5ZM170.7,269.3c.9,0,1.6.5,2,1.4s.6,2.4.6,4.6-.2,3.6-.6,4.6c-.4.9-1.1,1.4-2,1.4s-1.6-.5-2-1.4-.6-2.5-.6-4.6.2-3.6.6-4.6,1.1-1.4,2-1.4ZM162.1,266c0-.4-.2-.6-.6-.6h-1.5c-.4,0-.6.2-.6.6v20c0,.4.2.6.6.6h1.5c.4,0,.6-.2.6-.6v-20Z"/>
    <path class="cls-2" d="M138.4,274.2c.7.2,1.4.4,2.1.5s1.3.2,1.8.2v1.1c0,.4-.2.6-.7.6h-4.2c-.4,0-.6.1-.6.5v1.4c0,.4.2.6.6.6h9.6c1,0,1.9,0,2.7-.1.4,0,.6-.2.6-.6v-1.4c0-.4-.2-.5-.6-.5h-5c.3-.2.4-.4.4-.7v-1.2c1.4-.2,2.4-.7,3-1.4.6-.7.9-1.7.9-2.9s-.1-1.5-.4-2.1c-.2-.6-.6-1-1.2-1.4-.5-.4-1.2-.6-2.1-.8s-1.9-.2-3-.2h-1.8c-.5,0-.9,0-1.3.2-.4,0-.5.3-.5.6v1.3c0,.5.2.7.6.6.4,0,.8-.1,1.3-.2h3.5c.5,0,1,.2,1.3.3.3.1.5.3.7.6s.2.6.2,1,0,.7-.2,1-.3.4-.6.6c-.3.1-.7.2-1.2.3h-1.9c-.8,0-1,0-1.6-.1-.6,0-1.2-.2-1.8-.5-.4-.1-.6,0-.7.4l-.3,1.3c0,.4,0,.6.4.7v.3ZM147.7,280.9c0-.4-.3-.6-.7-.6h-1.5c-.2,0-.4,0-.5.2s-.1.3-.1.5c0,.3,0,.5.1.8v.9c0,1.3-.8,1.9-2.3,1.9h-5.7c-.8,0-1.6,0-2.3-.1-.7,0-1.4-.1-2.1-.2-.4,0-.6.1-.6.6v1.3c-.1.4,0,.6.5.6,1.2.1,2.7.2,4.4.3s3.6.1,5.7.1,2.9-.4,3.8-1.1c.9-.8,1.3-1.8,1.3-3.2s0-.7,0-1,0-.6-.1-.8v-.2ZM132.7,280c0,.4.2.6.6.6h1.5c.4,0,.6-.2.6-.6v-14c0-.4-.2-.6-.6-.6h-1.5c-.4,0-.6.2-.6.6v14Z"/>
    <path class="cls-2" d="M107.2,268.4c.8,0,1.4,0,2-.1h6.2c.7,0,1.3.1,1.7.2.4,0,.7.2.9.4s.3.4.3.6,0,.5-.2.6c-.1.2-.4.3-.8.4s-.9.2-1.5.2h-2.4c-1,0-2,0-3.1-.1s-2.2-.2-3.3-.3c-.4,0-.6.1-.6.5v1.2c-.1.3,0,.5.4.6,2.2.3,3.9.4,5.3.4v.6c0,.4-.2.6-.6.6h-4.9c-.6,0-1.1,0-1.5-.1-.4,0-.6.1-.6.5v1.2c0,.4.2.6.6.6s1,0,1.6.1h12.4c1.4,0,2.4,0,3.1-.2.4,0,.6-.2.6-.6v-1.2c0-.4-.2-.6-.6-.5h-7.4c.2-.1.4-.3.4-.6v-.6c1.2,0,2.1-.2,2.9-.3s1.4-.4,1.9-.7c.5-.3.8-.6,1-1.1.2-.4.3-.9.3-1.5s-.1-1.2-.4-1.7-.7-.8-1.4-1.1c-.6-.3-1.5-.5-2.6-.6s-2.4-.2-4-.2-.7,0-1,0h-2.6c-.5,0-1.2,0-1.9.1-.4,0-.6.2-.6.6v1.2c0,.4.2.5.6.5l-.2.4ZM105.8,286.6c.4,0,.9.1,1.5.2.6,0,1.1,0,1.7.1h3.2c1.7,0,3.2,0,4.3-.1,1.1,0,2-.2,2.6-.5.6-.2,1.1-.5,1.3-.9.2-.4.4-.9.4-1.5s-.1-1.1-.3-1.4c-.2-.4-.6-.7-1.2-.9-.6-.2-1.3-.4-2.2-.5s-2.1-.1-3.5-.1h-3.9c-.4,0-.8,0-.9-.2-.2,0-.3-.3-.3-.5s0-.5.3-.6c.2-.1.5-.2.9-.2h5c1,0,1.9,0,2.8.1s1.7,0,2.4.1c.4,0,.5-.2.5-.6v-1.1c0-.4-.2-.5-.5-.6-.9,0-1.9-.1-3-.2h-9c-.8,0-1.4.2-1.7.5s-.5.7-.5,1.3.1.9.4,1.3.7.6,1.1.8h-.9c-.3,0-.5.2-.5.5v1c0,.4.2.6.5.5h9.5c.6,0,1,0,1.4.1.3,0,.5.1.6.3,0,.1.1.3.1.4s0,.4-.2.5-.4.2-.9.3-1,0-1.8,0h-6.2c-.6,0-1.1,0-1.7-.1s-1.1-.1-1.5-.2c-.4,0-.5.1-.6.5v1.1c0,.4,0,.6.4.6h.4Z"/>
    <path class="cls-2" d="M101.1,277.6c.4,0,.6-.3.6-.6v-1.3c0-.4-.2-.6-.6-.6h-7.4c.2-.1.4-.3.4-.6v-1h3c.8,0,1.5-.2,1.9-.6s.7-.9.7-1.7l.4-4.9c0-.4-.2-.6-.6-.6h-1.5c-.4,0-.6.2-.6.6v.6h-9.2v-.6c0-.4-.3-.6-.7-.6h-1.5c-.4,0-.7.2-.6.6l.4,4.9c0,.7.3,1.3.7,1.7s1.1.6,1.9.6h3v1c0,.4-.2.6-.6.6h-4.9c-.6,0-1,0-1.5-.1-.4,0-.6.1-.6.6v1.3c0,.4.2.6.6.6s1,0,1.6.1,1.3,0,2.1,0h10.2c1.4,0,2.4,0,3.1-.2l-.3.2ZM85.2,284.3c-.4,0-.6.2-.6.6v1.3c0,.4.2.6.6.6h12.4c.8,0,1.4-.2,1.8-.5s.6-.9.6-1.5v-4.8c0-.7-.4-1.1-1.1-1.1h-11.4c-.8,0-1.5.2-2,.6s-.7,1-.7,1.7.2,1.2.5,1.8.7,1,1.3,1.3h-1.5.1ZM89.5,284.3c-.5,0-.9-.2-1.3-.5-.4-.4-.5-.8-.5-1.3s.1-.6.3-.8.5-.3,1-.3h7.7c.4,0,.6.2.6.6v1.7c0,.5-.3.7-.9.7h-6.9ZM96.9,270.4c0,.3-.1.5-.3.6-.1.1-.4.2-.7.2h-6.7c-.3,0-.6,0-.7-.2s-.2-.3-.3-.6v-.7h8.7v.7Z"/>
    <path class="cls-2" d="M80.7,285.5c0-.5-.2-1-.5-1.3s-.8-.5-1.3-.5-1,.2-1.3.5-.5.7-.5,1.3.2.9.5,1.2c.3.3.8.5,1.3.5s1-.2,1.3-.5.5-.7.5-1.2Z"/>
  </g>
</svg>