<?xml version="1.0" encoding="UTF-8"?>
<svg id="_레이어_1" data-name="레이어 1" xmlns="http://www.w3.org/2000/svg" xmlns:xlink="http://www.w3.org/1999/xlink" version="1.1" viewBox="0 0 475 475">
  <defs>
    <style>
      .cls-1 {
        clip-path: url(#clippath);
      }

      .cls-2, .cls-3, .cls-4, .cls-5, .cls-6, .cls-7, .cls-8, .cls-9, .cls-10, .cls-11, .cls-12, .cls-13 {
        stroke-width: 0px;
      }

      .cls-2, .cls-14, .cls-15 {
        fill: none;
      }

      .cls-3 {
        fill: #edaba8;
      }

      .cls-4 {
        fill: #000;
      }

      .cls-5 {
        fill: #a8e8bf;
      }

      .cls-14, .cls-15 {
        stroke: #3d2117;
      }

      .cls-6 {
        fill: #1ab476;
      }

      .cls-7 {
        fill: #3d2117;
      }

      .cls-8 {
        fill: #faccc7;
      }

      .cls-9 {
        fill: #ebcf69;
      }

      .cls-10 {
        fill: #fd8664;
      }

      .cls-11 {
        fill: #ffd9d4;
      }

      .cls-12 {
        fill: #d98c21;
      }

      .cls-15 {
        stroke-width: 4px;
      }

      .cls-13 {
        fill: #fff;
      }
    </style>
    <clipPath id="clippath">
      <path class="cls-2" d="M197.8,224.9c0,2.8,2.2,5,5,5s5-2.2,5-5-2.2-5-5-5-5,2.2-5,5"/>
    </clipPath>
  </defs>
  <rect class="cls-6" x="2" y="2" width="471" height="471" rx="14.2" ry="14.2"/>
  <rect class="cls-14" x="2" y="2" width="471" height="471" rx="14.2" ry="14.2"/>
  <rect class="cls-10" x="12" y="12" width="451" height="451" rx="14.2" ry="14.2"/>
  <rect class="cls-14" x="12" y="12" width="451" height="451" rx="14.2" ry="14.2"/>
  <g>
    <path class="cls-15" d="M129.7,104.9c2.5,0,5.2-.6,7.9-1.8.2,0,.4-.1.5-.1.4,0,.7.3.9.8l.9,2.9c.2.7,0,1.2-.9,1.5-1.9.7-3.7,1.2-5.4,1.5-1.7.3-3.4.5-5,.5-7.6,0-11.4-3.4-11.4-10.1s.9-5.7,2.8-7.3c1.9-1.6,4.8-2.4,8.7-2.4s2.5-.3,3.2-1c.7-.7,1-1.8,1-3.2s-.4-2.6-1.1-3.3c-.7-.7-1.9-1-3.5-1s-4.6.2-8.4.7c-.8,0-1.2-.2-1.2-1v-3.1c0-.7.4-1.1,1.1-1.2.9-.1,1.7-.2,2.4-.3.8,0,1.5-.1,2.3-.2.8,0,1.6,0,2.4,0,.8,0,1.7,0,2.7,0,5.9,0,8.8,2.3,8.8,7s-.3,2.9-.8,4.1c-.5,1.2-1.3,2.2-2.3,3h1.5c.7,0,1.1.4,1.1,1.1v2.6c0,.7-.4,1.1-1.1,1.1-1.3,0-2.5,0-3.6,0-1.1,0-2.1,0-3,0-2.8,0-4.8.4-5.9,1.1-1.1.7-1.7,1.9-1.7,3.7s.5,2.9,1.6,3.6c1.1.7,2.9,1.1,5.4,1.1ZM144.8,74.9c0-.9.4-1.3,1.2-1.3h3c.8,0,1.2.4,1.2,1.3v39.9c0,.9-.4,1.3-1.2,1.3h-3c-.8,0-1.2-.4-1.2-1.3v-39.9Z"/>
    <path class="cls-15" d="M169.2,80c-1.8,0-3.5,0-5.1.2-1.6.1-3.2.4-4.8.6-.8.2-1.2-.2-1.2-1.2v-2.9c0-.4,0-.6.3-.8.2-.2.5-.3.9-.4,1.3-.3,2.8-.5,4.7-.6,1.8-.1,3.8-.2,5.9-.2s3.2.2,4.4.6c1.2.4,2.2,1.1,2.9,1.9.7.8,1.2,1.8,1.6,3,.3,1.2.5,2.5.5,4s-.1,4.3-.3,6.7c-.2,2.4-.5,4.6-.9,6.6.5,0,1.1-.1,1.6-.2.5,0,1-.1,1.4-.2.8-.2,1.2.2,1.2,1.1v2.7c0,.8-.4,1.2-1.2,1.3-.5,0-1.1.1-1.7.2s-1.4.1-2.2.2c-.8,0-1.5.1-2.3.1-.8,0-1.5,0-2.3,0-1.1,0-1.7.5-1.7,1.5v9.8c0,.9-.4,1.3-1.2,1.3h-3c-.8,0-1.2-.4-1.2-1.3v-9.1c0-.5.1-.9.4-1.3.2-.4.6-.6.9-.8-1.8,0-3.6-.2-5.5-.3-1.9-.1-3.5-.3-4.8-.5-.8-.1-1.2-.5-1.2-1.2v-2.8c0-.8.4-1.2,1.3-1,3.2.5,7.2.7,11.9.7h2c.7,0,1.4,0,2,0,0-.2,0-.4,0-.5.2-1,.4-1.9.6-2.9.1-1,.3-2,.4-2.9-2.6,0-5,.2-7.3.3-2.3.1-4.3.2-6.2.4-.8,0-1.2-.3-1.2-1.2v-2.9c0-.7.4-1.2,1.2-1.2,1.7-.2,3.7-.3,6.1-.4,2.4-.1,5-.2,7.8-.3,0-.9,0-1.7,0-2.4,0-.8-.2-1.4-.5-2-.3-.6-.7-1-1.3-1.3-.6-.3-1.4-.5-2.5-.5ZM190.2,114.9c0,.9-.4,1.3-1.2,1.3h-3c-.8,0-1.2-.4-1.2-1.3v-39.9c0-.9.4-1.3,1.2-1.3h3c.8,0,1.2.4,1.2,1.3v39.9Z"/>
    <path class="cls-15" d="M198.4,106.5c2.3.3,4.8.5,7.6.6,2.8.1,5.8.2,9.2.2s6.7,0,9.6-.2c3-.1,5.4-.3,7.3-.6.9,0,1.3.3,1.3,1.2v2.6c0,.7-.4,1.2-1.2,1.3-.8.1-1.8.2-3,.3-1.2,0-2.5.2-4,.3-1.5,0-3.1.1-4.8.2-1.7,0-3.5,0-5.3,0-7.6,0-13.2-.3-16.8-.9-.8-.1-1.2-.6-1.2-1.3v-2.6c0-.9.4-1.2,1.3-1.2ZM227,81.9c-1.4,0-2.7-.2-3.7-.2s-2.1,0-2.9-.1c-.9,0-1.6,0-2.4,0-.7,0-1.4,0-2,0-2.1,0-3.9.1-5.3.4-1.4.2-2.5.6-3.4,1.2-.8.5-1.4,1.2-1.8,2-.4.8-.5,1.8-.5,3s.1,2.1.4,3c.3.8.8,1.5,1.6,2.1.8.5,1.8.9,3,1.2,1.3.3,2.9.4,4.8.4s4,0,6.2-.2,4.4-.4,6.5-.6c.8,0,1.2.3,1.2,1.2l.2,2.9c0,.7-.4,1.1-1.2,1.2-2.7.3-5,.6-7,.7-2,.1-3.7.2-5.3.2-2.9,0-5.4-.3-7.5-.8s-3.7-1.3-5-2.3c-1.3-1-2.2-2.3-2.8-3.7-.6-1.5-.8-3.2-.8-5s.3-3.6.9-5c.6-1.5,1.5-2.7,2.8-3.7,1.3-1,3-1.8,5.2-2.3,2.1-.5,4.7-.8,7.8-.8s1.3,0,2,0c.7,0,1.4,0,2.2,0,.8,0,1.8,0,2.9.1,1.1,0,2.4.1,3.9.2.8,0,1.2.4,1.2,1.2v2.8c0,.8-.4,1.2-1.2,1.2Z"/>
    <path class="cls-15" d="M274,95.6c-.9,0-1.9.2-3.2.2-1.3,0-2.6.1-4.1.1-1.5,0-3.1,0-4.7,0h-5c-4.4,0-8,0-10.7-.1-2.7,0-4.8-.2-6.2-.3-.7,0-1.1-.5-1.1-1.2v-2.4c0-.8.4-1.1,1.2-1.1.9,0,2,.1,3.2.2,1.2,0,2.5,0,3.8.1,1.3,0,2.7,0,4.1.1,1.4,0,2.6,0,3.8,0-.5-.3-.7-.7-.7-1.3v-1.1c-2.5,0-4.8-.1-6.7-.2-1.9,0-3.5-.2-4.6-.3-.4,0-.7-.2-.8-.3-.1-.1-.2-.4-.2-.7v-2.5c0-.7.4-1,1.2-.9.5,0,1.2.1,1.9.2.7,0,1.5.1,2.5.2l-.8-5.4h-2.9c-.7,0-1.1-.4-1.1-1.1v-2.3c0-.7.4-1.1,1.1-1.1h26.8c.7,0,1.1.4,1.1,1.1v2.3c0,.7-.4,1.1-1.1,1.1h-2.9l-.8,5.4c.9,0,1.8-.1,2.5-.2.7,0,1.4-.1,1.9-.2.8,0,1.2.2,1.2.9v2.5c0,.4,0,.6-.2.7-.1.1-.4.2-.8.3-1.2.1-2.8.2-4.7.3-2,0-4.2.2-6.8.2v1.2c0,.8.4,1.2,1.2,1.2.9,0,2,0,3.1,0s2.3,0,3.5,0c1.2,0,2.3,0,3.4-.1,1.1,0,2.1-.1,3-.2.8,0,1.2.3,1.2,1.1v2.3c0,.7-.4,1.1-1.1,1.2ZM272.3,116.1c-.9.1-1.9.2-3,.3-1.1,0-2.3.2-3.5.3-1.2,0-2.3.1-3.5.2-1.1,0-2.1,0-3.1,0-3.5,0-6.4,0-8.6-.3-2.2-.2-4-.5-5.3-.9-1.3-.4-2.2-1.1-2.6-1.8s-.7-1.8-.7-3,.2-2.1.6-2.9c.4-.8,1.2-1.4,2.3-1.8s2.6-.8,4.4-1c1.9-.2,4.2-.3,7.1-.3s2.6,0,4,0c1.3,0,2.6,0,3.9,0,.9,0,1.5-.1,1.9-.3.4-.2.5-.5.5-1.1s-.2-.9-.5-1.2c-.3-.2-.9-.3-1.8-.3-1.2,0-2.7,0-4.5,0-1.8,0-3.6,0-5.5.1-1.9,0-3.8.1-5.6.2-1.8,0-3.4.2-4.8.3-.7,0-1.1-.3-1.1-1.1v-2.2c0-.7.4-1.1,1.1-1.1,1.8-.1,3.8-.2,5.9-.3,2.1,0,4.2-.1,6.4-.2,2.1,0,4.2,0,6.2,0,2,0,3.8,0,5.3,0,1.6,0,2.8.4,3.4.9.7.5,1,1.4,1,2.6s-.3,1.8-.8,2.5c-.6.7-1.3,1.2-2.3,1.6h1.7c.7,0,1,.4,1,1.1v2c0,.8-.3,1.1-1,1.1-1.5,0-3.4-.1-5.8-.1-2.4,0-5.2,0-8.5,0s-3.6,0-4.8,0c-1.2,0-2.1.1-2.7.2-.6.1-1,.3-1.2.5-.2.2-.3.5-.3.9s.2.7.5,1c.3.2.9.4,1.7.5.8.1,2,.2,3.6.2,1.5,0,3.5,0,5.9,0s1.9,0,3,0c1.1,0,2.2,0,3.3-.2,1.1,0,2.3-.2,3.4-.3s2.1-.2,3-.3c.7,0,1.1.2,1.2,1v2.2c.2.7-.1,1.1-.8,1.2ZM257.1,84.6h2.1c.7,0,1.4,0,2,0l.9-5.6h-10l.9,5.6c.6,0,1.3,0,2,0h2.1Z"/>
    <path class="cls-15" d="M292.9,104.9c2.5,0,5.2-.6,7.9-1.8.2,0,.4-.1.5-.1.4,0,.7.3.9.8l.9,2.9c.2.7,0,1.2-.9,1.5-1.9.7-3.7,1.2-5.4,1.5-1.7.3-3.4.5-5,.5-7.6,0-11.4-3.4-11.4-10.1s.9-5.7,2.8-7.3c1.9-1.6,4.8-2.4,8.7-2.4s2.5-.3,3.2-1c.7-.7,1-1.8,1-3.2s-.4-2.6-1.1-3.3c-.7-.7-1.9-1-3.5-1s-4.6.2-8.4.7c-.8,0-1.2-.2-1.2-1v-3.1c0-.7.4-1.1,1.1-1.2.9-.1,1.7-.2,2.4-.3.8,0,1.5-.1,2.3-.2.8,0,1.6,0,2.4,0,.8,0,1.7,0,2.7,0,5.9,0,8.8,2.3,8.8,7s-.3,2.9-.8,4.1c-.5,1.2-1.3,2.2-2.3,3h1.5c.7,0,1.1.4,1.1,1.1v2.6c0,.7-.4,1.1-1.1,1.1-1.3,0-2.5,0-3.6,0-1.1,0-2.1,0-3,0-2.8,0-4.8.4-5.9,1.1-1.1.7-1.7,1.9-1.7,3.7s.5,2.9,1.6,3.6c1.1.7,2.9,1.1,5.4,1.1ZM308,74.9c0-.9.4-1.3,1.2-1.3h3c.8,0,1.2.4,1.2,1.3v39.9c0,.9-.4,1.3-1.2,1.3h-3c-.8,0-1.2-.4-1.2-1.3v-39.9Z"/>
    <path class="cls-15" d="M341.8,97.2c-1.6.5-3.2.9-4.6,1.1-1.4.2-3,.3-4.7.3-4.4,0-7.5-.7-9.4-2-1.9-1.3-2.9-3.3-2.9-6s.2-2.7.7-3.7c.5-1,1.2-1.9,2.3-2.5,1-.7,2.4-1.1,4.1-1.4,1.7-.3,3.8-.5,6.2-.5s4.2.1,6,.4c.4,0,.8.2.9.4.2.2.2.5.2,1v2.4c0,.9-.4,1.3-1.3,1.1-.7-.1-1.6-.2-2.5-.3s-2,0-3,0c-1.5,0-2.8,0-3.9.2-1,.1-1.9.3-2.5.6s-1.1.5-1.3.9c-.3.4-.4.8-.4,1.3,0,1,.5,1.8,1.6,2.3,1,.5,2.8.8,5.4.8s2.5,0,3.7-.3c1.3-.2,2.6-.5,4.2-.8.5-.1.8-.1,1.1,0,.2.1.4.4.5.8l.6,2.3c.2.8,0,1.3-1,1.6ZM322,79.6c-.8,0-1.2-.4-1.2-1.2v-2.5c0-.8.4-1.2,1.2-1.2h18.4c.8,0,1.2.4,1.2,1.2v2.5c0,.8-.4,1.2-1.2,1.2h-18.4ZM324.3,103.6c.2-.8.6-1.2,1.4-1.2h2.9c.4,0,.7.1,1,.4.2.2.3.6.3.9,0,.6-.1,1.2-.2,1.7,0,.6,0,1.3,0,2.1,0,1.4.4,2.5,1.3,3.3.9.8,2,1.1,3.5,1.1s3.8,0,5.4,0,3.1,0,4.5-.2,2.7-.2,4-.3c1.3,0,2.6-.2,4.1-.3.8,0,1.2.3,1.2,1.2l.2,2.6c0,.7-.4,1.1-1.2,1.2-2.4.3-5.1.5-8,.6-2.9.2-6.3.2-10,.2s-6-.8-7.8-2.4c-1.8-1.6-2.8-3.8-2.8-6.6s0-3.2.3-4.4ZM352.4,101.9c0,.9-.4,1.3-1.2,1.3h-3c-.8,0-1.2-.4-1.2-1.3v-27c0-.9.4-1.3,1.2-1.3h3c.8,0,1.2.4,1.2,1.3v11.2c.4-.6,1-1,2-1h2.8c.8,0,1.2.4,1.2,1.2v2.6c0,.8-.4,1.2-1.2,1.2h-3.1c-1.1,0-1.7.5-1.7,1.5v10.2Z"/>
  </g>
  <g>
    <path class="cls-13" d="M129.7,104.9c2.5,0,5.2-.6,7.9-1.8.2,0,.4-.1.5-.1.4,0,.7.3.9.8l.9,2.9c.2.7,0,1.2-.9,1.5-1.9.7-3.7,1.2-5.4,1.5-1.7.3-3.4.5-5,.5-7.6,0-11.4-3.4-11.4-10.1s.9-5.7,2.8-7.3c1.9-1.6,4.8-2.4,8.7-2.4s2.5-.3,3.2-1c.7-.7,1-1.8,1-3.2s-.4-2.6-1.1-3.3c-.7-.7-1.9-1-3.5-1s-4.6.2-8.4.7c-.8,0-1.2-.2-1.2-1v-3.1c0-.7.4-1.1,1.1-1.2.9-.1,1.7-.2,2.4-.3.8,0,1.5-.1,2.3-.2.8,0,1.6,0,2.4,0,.8,0,1.7,0,2.7,0,5.9,0,8.8,2.3,8.8,7s-.3,2.9-.8,4.1c-.5,1.2-1.3,2.2-2.3,3h1.5c.7,0,1.1.4,1.1,1.1v2.6c0,.7-.4,1.1-1.1,1.1-1.3,0-2.5,0-3.6,0-1.1,0-2.1,0-3,0-2.8,0-4.8.4-5.9,1.1-1.1.7-1.7,1.9-1.7,3.7s.5,2.9,1.6,3.6c1.1.7,2.9,1.1,5.4,1.1ZM144.8,74.9c0-.9.4-1.3,1.2-1.3h3c.8,0,1.2.4,1.2,1.3v39.9c0,.9-.4,1.3-1.2,1.3h-3c-.8,0-1.2-.4-1.2-1.3v-39.9Z"/>
    <path class="cls-13" d="M169.2,80c-1.8,0-3.5,0-5.1.2-1.6.1-3.2.4-4.8.6-.8.2-1.2-.2-1.2-1.2v-2.9c0-.4,0-.6.3-.8.2-.2.5-.3.9-.4,1.3-.3,2.8-.5,4.7-.6,1.8-.1,3.8-.2,5.9-.2s3.2.2,4.4.6c1.2.4,2.2,1.1,2.9,1.9.7.8,1.2,1.8,1.6,3,.3,1.2.5,2.5.5,4s-.1,4.3-.3,6.7c-.2,2.4-.5,4.6-.9,6.6.5,0,1.1-.1,1.6-.2.5,0,1-.1,1.4-.2.8-.2,1.2.2,1.2,1.1v2.7c0,.8-.4,1.2-1.2,1.3-.5,0-1.1.1-1.7.2s-1.4.1-2.2.2c-.8,0-1.5.1-2.3.1-.8,0-1.5,0-2.3,0-1.1,0-1.7.5-1.7,1.5v9.8c0,.9-.4,1.3-1.2,1.3h-3c-.8,0-1.2-.4-1.2-1.3v-9.1c0-.5.1-.9.4-1.3.2-.4.6-.6.9-.8-1.8,0-3.6-.2-5.5-.3-1.9-.1-3.5-.3-4.8-.5-.8-.1-1.2-.5-1.2-1.2v-2.8c0-.8.4-1.2,1.3-1,3.2.5,7.2.7,11.9.7h2c.7,0,1.4,0,2,0,0-.2,0-.4,0-.5.2-1,.4-1.9.6-2.9.1-1,.3-2,.4-2.9-2.6,0-5,.2-7.3.3-2.3.1-4.3.2-6.2.4-.8,0-1.2-.3-1.2-1.2v-2.9c0-.7.4-1.2,1.2-1.2,1.7-.2,3.7-.3,6.1-.4,2.4-.1,5-.2,7.8-.3,0-.9,0-1.7,0-2.4,0-.8-.2-1.4-.5-2-.3-.6-.7-1-1.3-1.3-.6-.3-1.4-.5-2.5-.5ZM190.2,114.9c0,.9-.4,1.3-1.2,1.3h-3c-.8,0-1.2-.4-1.2-1.3v-39.9c0-.9.4-1.3,1.2-1.3h3c.8,0,1.2.4,1.2,1.3v39.9Z"/>
    <path class="cls-13" d="M198.4,106.5c2.3.3,4.8.5,7.6.6,2.8.1,5.8.2,9.2.2s6.7,0,9.6-.2c3-.1,5.4-.3,7.3-.6.9,0,1.3.3,1.3,1.2v2.6c0,.7-.4,1.2-1.2,1.3-.8.1-1.8.2-3,.3-1.2,0-2.5.2-4,.3-1.5,0-3.1.1-4.8.2-1.7,0-3.5,0-5.3,0-7.6,0-13.2-.3-16.8-.9-.8-.1-1.2-.6-1.2-1.3v-2.6c0-.9.4-1.2,1.3-1.2ZM227,81.9c-1.4,0-2.7-.2-3.7-.2s-2.1,0-2.9-.1c-.9,0-1.6,0-2.4,0-.7,0-1.4,0-2,0-2.1,0-3.9.1-5.3.4-1.4.2-2.5.6-3.4,1.2-.8.5-1.4,1.2-1.8,2-.4.8-.5,1.8-.5,3s.1,2.1.4,3c.3.8.8,1.5,1.6,2.1.8.5,1.8.9,3,1.2,1.3.3,2.9.4,4.8.4s4,0,6.2-.2,4.4-.4,6.5-.6c.8,0,1.2.3,1.2,1.2l.2,2.9c0,.7-.4,1.1-1.2,1.2-2.7.3-5,.6-7,.7-2,.1-3.7.2-5.3.2-2.9,0-5.4-.3-7.5-.8s-3.7-1.3-5-2.3c-1.3-1-2.2-2.3-2.8-3.7-.6-1.5-.8-3.2-.8-5s.3-3.6.9-5c.6-1.5,1.5-2.7,2.8-3.7,1.3-1,3-1.8,5.2-2.3,2.1-.5,4.7-.8,7.8-.8s1.3,0,2,0c.7,0,1.4,0,2.2,0,.8,0,1.8,0,2.9.1,1.1,0,2.4.1,3.9.2.8,0,1.2.4,1.2,1.2v2.8c0,.8-.4,1.2-1.2,1.2Z"/>
    <path class="cls-13" d="M274,95.6c-.9,0-1.9.2-3.2.2-1.3,0-2.6.1-4.1.1-1.5,0-3.1,0-4.7,0h-5c-4.4,0-8,0-10.7-.1-2.7,0-4.8-.2-6.2-.3-.7,0-1.1-.5-1.1-1.2v-2.4c0-.8.4-1.1,1.2-1.1.9,0,2,.1,3.2.2,1.2,0,2.5,0,3.8.1,1.3,0,2.7,0,4.1.1,1.4,0,2.6,0,3.8,0-.5-.3-.7-.7-.7-1.3v-1.1c-2.5,0-4.8-.1-6.7-.2-1.9,0-3.5-.2-4.6-.3-.4,0-.7-.2-.8-.3-.1-.1-.2-.4-.2-.7v-2.5c0-.7.4-1,1.2-.9.5,0,1.2.1,1.9.2.7,0,1.5.1,2.5.2l-.8-5.4h-2.9c-.7,0-1.1-.4-1.1-1.1v-2.3c0-.7.4-1.1,1.1-1.1h26.8c.7,0,1.1.4,1.1,1.1v2.3c0,.7-.4,1.1-1.1,1.1h-2.9l-.8,5.4c.9,0,1.8-.1,2.5-.2.7,0,1.4-.1,1.9-.2.8,0,1.2.2,1.2.9v2.5c0,.4,0,.6-.2.7-.1.1-.4.2-.8.3-1.2.1-2.8.2-4.7.3-2,0-4.2.2-6.8.2v1.2c0,.8.4,1.2,1.2,1.2.9,0,2,0,3.1,0s2.3,0,3.5,0c1.2,0,2.3,0,3.4-.1,1.1,0,2.1-.1,3-.2.8,0,1.2.3,1.2,1.1v2.3c0,.7-.4,1.1-1.1,1.2ZM272.3,116.1c-.9.1-1.9.2-3,.3-1.1,0-2.3.2-3.5.3-1.2,0-2.3.1-3.5.2-1.1,0-2.1,0-3.1,0-3.5,0-6.4,0-8.6-.3-2.2-.2-4-.5-5.3-.9-1.3-.4-2.2-1.1-2.6-1.8s-.7-1.8-.7-3,.2-2.1.6-2.9c.4-.8,1.2-1.4,2.3-1.8s2.6-.8,4.4-1c1.9-.2,4.2-.3,7.1-.3s2.6,0,4,0c1.3,0,2.6,0,3.9,0,.9,0,1.5-.1,1.9-.3.4-.2.5-.5.5-1.1s-.2-.9-.5-1.2c-.3-.2-.9-.3-1.8-.3-1.2,0-2.7,0-4.5,0-1.8,0-3.6,0-5.5.1-1.9,0-3.8.1-5.6.2-1.8,0-3.4.2-4.8.3-.7,0-1.1-.3-1.1-1.1v-2.2c0-.7.4-1.1,1.1-1.1,1.8-.1,3.8-.2,5.9-.3,2.1,0,4.2-.1,6.4-.2,2.1,0,4.2,0,6.2,0,2,0,3.8,0,5.3,0,1.6,0,2.8.4,3.4.9.7.5,1,1.4,1,2.6s-.3,1.8-.8,2.5c-.6.7-1.3,1.2-2.3,1.6h1.7c.7,0,1,.4,1,1.1v2c0,.8-.3,1.1-1,1.1-1.5,0-3.4-.1-5.8-.1-2.4,0-5.2,0-8.5,0s-3.6,0-4.8,0c-1.2,0-2.1.1-2.7.2-.6.1-1,.3-1.2.5-.2.2-.3.5-.3.9s.2.7.5,1c.3.2.9.4,1.7.5.8.1,2,.2,3.6.2,1.5,0,3.5,0,5.9,0s1.9,0,3,0c1.1,0,2.2,0,3.3-.2,1.1,0,2.3-.2,3.4-.3s2.1-.2,3-.3c.7,0,1.1.2,1.2,1v2.2c.2.7-.1,1.1-.8,1.2ZM257.1,84.6h2.1c.7,0,1.4,0,2,0l.9-5.6h-10l.9,5.6c.6,0,1.3,0,2,0h2.1Z"/>
    <path class="cls-13" d="M292.9,104.9c2.5,0,5.2-.6,7.9-1.8.2,0,.4-.1.5-.1.4,0,.7.3.9.8l.9,2.9c.2.7,0,1.2-.9,1.5-1.9.7-3.7,1.2-5.4,1.5-1.7.3-3.4.5-5,.5-7.6,0-11.4-3.4-11.4-10.1s.9-5.7,2.8-7.3c1.9-1.6,4.8-2.4,8.7-2.4s2.5-.3,3.2-1c.7-.7,1-1.8,1-3.2s-.4-2.6-1.1-3.3c-.7-.7-1.9-1-3.5-1s-4.6.2-8.4.7c-.8,0-1.2-.2-1.2-1v-3.1c0-.7.4-1.1,1.1-1.2.9-.1,1.7-.2,2.4-.3.8,0,1.5-.1,2.3-.2.8,0,1.6,0,2.4,0,.8,0,1.7,0,2.7,0,5.9,0,8.8,2.3,8.8,7s-.3,2.9-.8,4.1c-.5,1.2-1.3,2.2-2.3,3h1.5c.7,0,1.1.4,1.1,1.1v2.6c0,.7-.4,1.1-1.1,1.1-1.3,0-2.5,0-3.6,0-1.1,0-2.1,0-3,0-2.8,0-4.8.4-5.9,1.1-1.1.7-1.7,1.9-1.7,3.7s.5,2.9,1.6,3.6c1.1.7,2.9,1.1,5.4,1.1ZM308,74.9c0-.9.4-1.3,1.2-1.3h3c.8,0,1.2.4,1.2,1.3v39.9c0,.9-.4,1.3-1.2,1.3h-3c-.8,0-1.2-.4-1.2-1.3v-39.9Z"/>
    <path class="cls-13" d="M341.8,97.2c-1.6.5-3.2.9-4.6,1.1-1.4.2-3,.3-4.7.3-4.4,0-7.5-.7-9.4-2-1.9-1.3-2.9-3.3-2.9-6s.2-2.7.7-3.7c.5-1,1.2-1.9,2.3-2.5,1-.7,2.4-1.1,4.1-1.4,1.7-.3,3.8-.5,6.2-.5s4.2.1,6,.4c.4,0,.8.2.9.4.2.2.2.5.2,1v2.4c0,.9-.4,1.3-1.3,1.1-.7-.1-1.6-.2-2.5-.3s-2,0-3,0c-1.5,0-2.8,0-3.9.2-1,.1-1.9.3-2.5.6s-1.1.5-1.3.9c-.3.4-.4.8-.4,1.3,0,1,.5,1.8,1.6,2.3,1,.5,2.8.8,5.4.8s2.5,0,3.7-.3c1.3-.2,2.6-.5,4.2-.8.5-.1.8-.1,1.1,0,.2.1.4.4.5.8l.6,2.3c.2.8,0,1.3-1,1.6ZM322,79.6c-.8,0-1.2-.4-1.2-1.2v-2.5c0-.8.4-1.2,1.2-1.2h18.4c.8,0,1.2.4,1.2,1.2v2.5c0,.8-.4,1.2-1.2,1.2h-18.4ZM324.3,103.6c.2-.8.6-1.2,1.4-1.2h2.9c.4,0,.7.1,1,.4.2.2.3.6.3.9,0,.6-.1,1.2-.2,1.7,0,.6,0,1.3,0,2.1,0,1.4.4,2.5,1.3,3.3.9.8,2,1.1,3.5,1.1s3.8,0,5.4,0,3.1,0,4.5-.2,2.7-.2,4-.3c1.3,0,2.6-.2,4.1-.3.8,0,1.2.3,1.2,1.2l.2,2.6c0,.7-.4,1.1-1.2,1.2-2.4.3-5.1.5-8,.6-2.9.2-6.3.2-10,.2s-6-.8-7.8-2.4c-1.8-1.6-2.8-3.8-2.8-6.6s0-3.2.3-4.4ZM352.4,101.9c0,.9-.4,1.3-1.2,1.3h-3c-.8,0-1.2-.4-1.2-1.3v-27c0-.9.4-1.3,1.2-1.3h3c.8,0,1.2.4,1.2,1.3v11.2c.4-.6,1-1,2-1h2.8c.8,0,1.2.4,1.2,1.2v2.6c0,.8-.4,1.2-1.2,1.2h-3.1c-1.1,0-1.7.5-1.7,1.5v10.2Z"/>
  </g>
  <path class="cls-7" d="M229.6,177.4c3.3,5.9,1.2,13.3-4.6,16.6-5.9,3.3-13.3,1.2-16.6-4.6-3.3-5.9-1.2-13.3,4.6-16.6,5.9-3.3,13.3-1.2,16.6,4.6"/>
  <path class="cls-7" d="M229.6,177.4l-.5.3c1,1.8,1.5,3.8,1.5,5.7,0,4.1-2.1,8-5.9,10.1-1.8,1-3.8,1.5-5.7,1.5-4.1,0-8-2.1-10.1-5.9-1-1.8-1.5-3.8-1.5-5.7,0-4.1,2.1-8,5.9-10.1,1.8-1,3.8-1.5,5.7-1.5,4.1,0,8,2.1,10.1,5.9l.5-.3.5-.3c-2.3-4.2-6.7-6.5-11.1-6.5-2.1,0-4.3.5-6.3,1.6-4.2,2.3-6.5,6.7-6.5,11.1,0,2.1.5,4.3,1.6,6.3,2.3,4.2,6.7,6.5,11.1,6.5,2.1,0,4.3-.5,6.3-1.6,4.2-2.3,6.5-6.7,6.5-11.1,0-2.1-.5-4.3-1.6-6.3l-.5.3Z"/>
  <path class="cls-7" d="M213.4,164.8c3.3,5.9,1.2,13.3-4.6,16.6-5.9,3.3-13.3,1.2-16.6-4.6-3.3-5.9-1.2-13.3,4.6-16.6,5.9-3.3,13.3-1.2,16.6,4.6"/>
  <path class="cls-7" d="M213.4,164.8l-.5.3c1,1.8,1.5,3.8,1.5,5.7,0,4.1-2.1,8-5.9,10.1-1.8,1-3.8,1.5-5.7,1.5-4.1,0-8-2.1-10.1-5.9-1-1.8-1.5-3.8-1.5-5.7,0-4.1,2.1-8,5.9-10.1,1.8-1,3.8-1.5,5.7-1.5,4.1,0,8,2.1,10.1,5.9l.5-.3.5-.3c-2.3-4.2-6.7-6.5-11.1-6.5-2.1,0-4.3.5-6.3,1.6-4.2,2.3-6.5,6.7-6.5,11.1,0,2.1.5,4.3,1.7,6.3,2.3,4.2,6.7,6.5,11.1,6.5,2.1,0,4.3-.5,6.3-1.6,4.2-2.3,6.5-6.7,6.5-11.1,0-2.1-.5-4.3-1.6-6.3l-.5.3Z"/>
  <path class="cls-7" d="M195.9,162.1c3.3,5.9,1.2,13.3-4.6,16.6-5.9,3.3-13.3,1.2-16.6-4.6-3.3-5.9-1.2-13.3,4.6-16.6,5.9-3.3,13.3-1.2,16.6,4.6"/>
  <path class="cls-7" d="M195.9,162.1l-.5.3c1,1.8,1.5,3.8,1.5,5.7,0,4.1-2.1,8-5.9,10.1-1.8,1-3.8,1.5-5.7,1.5-4.1,0-8-2.1-10.1-5.9-1-1.8-1.5-3.8-1.5-5.7,0-4.1,2.1-8,5.9-10.1,1.8-1,3.8-1.5,5.7-1.5,4.1,0,8,2.1,10.1,5.9l.5-.3.5-.3c-2.3-4.2-6.7-6.5-11.1-6.5-2.1,0-4.3.5-6.3,1.6-4.2,2.3-6.5,6.7-6.5,11.1,0,2.1.5,4.3,1.6,6.3,2.3,4.2,6.7,6.5,11.1,6.5,2.1,0,4.3-.5,6.3-1.6,4.2-2.3,6.5-6.7,6.5-11.1,0-2.1-.5-4.3-1.6-6.3l-.5.3Z"/>
  <polygon class="cls-11" points="226.2 256 217.8 263.8 209.5 256 209.5 242.5 226.2 242.5 226.2 256"/>
  <path class="cls-7" d="M226.2,256l-.4-.4-8,7.4-7.8-7.3v-12.6h15.6v12.9h.6l-.4-.4.4.4h.6v-13.4c0-.2,0-.3-.2-.4-.1-.1-.3-.2-.4-.2h-16.7c-.2,0-.3,0-.4.2-.1.1-.2.3-.2.4v13.4c0,.2,0,.3.2.4l8.4,7.8c.2.2.6.2.8,0l8.4-7.8c.1-.1.2-.3.2-.4h-.6Z"/>
  <path class="cls-11" d="M243.8,215.1c-.3,0-.5,0-.8,0-1.4-13.2-12.3-23.5-25.4-23.5s-24,10.2-25.4,23.4c-.1,0-.2,0-.3,0-3.5,0-6.5,2.8-6.6,6.5,0,3.7,2.7,6.7,6.3,6.8.8,0,1.6-.1,2.3-.4,3.8,9.7,13,16.6,23.7,16.6s20.1-6.9,23.8-16.7c.8.4,1.7.6,2.7.6,3.5,0,6.4-3.1,6.3-6.8,0-3.7-3-6.6-6.6-6.5"/>
  <path class="cls-7" d="M243.8,215.1v-1.1c-.4,0-.7,0-.9,0l.2,1.1h1.1c-.7-7-3.9-13.1-8.6-17.5-4.7-4.4-11-7.1-17.8-7.1-6.9,0-13.1,2.7-17.8,7.1-4.7,4.4-7.9,10.5-8.7,17.3h1.1c0,.1,0-1,0-1,0,0-.2,0-.4,0h-.2c-4.1,0-7.4,3.3-7.5,7.5h0s0,.2,0,.2c0,2.1.8,4,2.1,5.4,1.3,1.4,3.2,2.3,5.2,2.3h.2c.9,0,1.8-.2,2.6-.5l-.4-1-1,.4c3.9,10.1,13.5,17.3,24.7,17.3,11.3,0,20.9-7.2,24.8-17.4l-1-.4-.4,1c.9.4,1.9.7,3,.6h.2s0,0,0,0c2,0,3.9-.9,5.2-2.3,1.3-1.4,2.1-3.3,2.1-5.4v-.2s0,0,0,0c0-4.2-3.4-7.5-7.5-7.5h-.2s0,0,0,0v1.1s0,1.1,0,1.1h.1c2.9,0,5.3,2.4,5.3,5.4h0s0,.1,0,.1c0,1.5-.6,2.9-1.5,3.9-.9,1-2.2,1.6-3.7,1.7h0-.1c-.7,0-1.4-.2-2.1-.5-.3-.1-.6-.1-.9,0-.3.1-.5.3-.6.6-3.6,9.4-12.5,16-22.8,16-10.3,0-19.1-6.6-22.7-15.9-.2-.5-.8-.8-1.4-.6-.6.2-1.2.3-1.8.3h-.1c-1.4,0-2.7-.7-3.7-1.7-.9-1-1.5-2.4-1.5-3.9h0c0-3.2,2.5-5.6,5.3-5.6h.1s0,0,0,0c0,0,.1,0,.3,0,.6,0,1.1-.4,1.2-1,.7-6.3,3.6-11.9,8-16,4.3-4,10.1-6.5,16.4-6.5,6.3,0,12,2.5,16.4,6.5,4.3,4,7.3,9.7,8,16,0,.3.2.6.4.7.2.2.5.3.8.2.3,0,.5,0,.6,0h0s0-1.1,0-1.1Z"/>
  <path class="cls-11" d="M246.9,221.2s-2.1-.7-4.3.9"/>
  <path class="cls-7" d="M247.3,220.2c0,0-.7-.2-1.6-.2-1,0-2.4.3-3.7,1.3-.5.4-.6,1-.2,1.5.4.5,1,.6,1.5.2.9-.7,1.8-.8,2.4-.8.3,0,.5,0,.7,0h.2s0,0,0,0v-.3c0,0,0,.3,0,.3h0s0-.3,0-.3v.3c.5.2,1.1-.1,1.3-.7.2-.6-.1-1.2-.7-1.4Z"/>
  <path class="cls-7" d="M211.3,219.2c0,1.1-.6,2-1.4,2s-1.4-.9-1.4-2,.6-2,1.4-2,1.4.9,1.4,2"/>
  <path class="cls-7" d="M211.3,219.2h-.6c0,.5-.1.9-.3,1.1-.2.3-.4.3-.5.3-.1,0-.3,0-.5-.3-.2-.3-.3-.7-.3-1.1,0-.5.1-.9.3-1.1.2-.3.4-.3.5-.3.1,0,.3,0,.5.3.2.3.3.7.3,1.1h1.1c0-.7-.2-1.3-.5-1.8-.3-.5-.8-.9-1.4-.9-.6,0-1.1.4-1.4.9-.3.5-.5,1.1-.5,1.8,0,.7.2,1.3.5,1.8.3.5.8.9,1.4.9.6,0,1.1-.4,1.4-.9.3-.5.5-1.1.5-1.8h-.6Z"/>
  <path class="cls-7" d="M226.6,219.2c0,1.1-.6,2-1.4,2s-1.4-.9-1.4-2,.6-2,1.4-2,1.4.9,1.4,2"/>
  <path class="cls-7" d="M226.6,219.2h-.6c0,.5-.1.9-.3,1.1-.2.3-.4.3-.5.3-.1,0-.3,0-.5-.3-.2-.3-.3-.7-.3-1.1,0-.5.1-.9.3-1.1.2-.3.4-.3.5-.3.1,0,.3,0,.5.3.2.3.3.7.3,1.1h1.1c0-.7-.2-1.3-.5-1.8-.3-.5-.8-.9-1.4-.9-.6,0-1.1.4-1.4.9-.3.5-.5,1.1-.5,1.8,0,.7.2,1.3.5,1.8.3.5.8.9,1.4.9.6,0,1.1-.4,1.4-.9.3-.5.5-1.1.5-1.8h-.6Z"/>
  <path class="cls-7" d="M221.7,226.2c-.9.9-2.3,1.5-3.9,1.5-1.6,0-3-.6-3.9-1.5-.4-.4-1.1-.4-1.5,0-.4.4-.4,1.1,0,1.5,1.3,1.3,3.3,2.1,5.4,2.1,2.1,0,4-.8,5.4-2.1.4-.4.4-1.1,0-1.5-.4-.4-1.1-.4-1.5,0Z"/>
  <path class="cls-7" d="M223.2,211.3c.7-.5,1.9-.9,3.2-.9,1.3,0,2.5.4,3.2.9.5.3,1.2.2,1.5-.2.3-.5.2-1.2-.2-1.5-1.2-.8-2.7-1.3-4.5-1.3-1.7,0-3.3.5-4.5,1.3-.5.3-.6,1-.2,1.5.3.5,1,.6,1.5.2Z"/>
  <path class="cls-7" d="M213.7,209.5c-1.2-.8-2.7-1.3-4.5-1.3-1.7,0-3.3.5-4.5,1.3-.5.3-.6,1-.2,1.5.3.5,1,.6,1.5.2.7-.5,1.9-.9,3.2-.9,1.3,0,2.5.4,3.2.9.5.3,1.2.2,1.5-.2.3-.5.2-1.2-.2-1.5Z"/>
  <g class="cls-1">
    <rect class="cls-8" x="200.3" y="233.8" width="9.3" height="9.3"/>
  </g>
  <path class="cls-8" d="M232.9,219.9c-2.8,0-5,2.2-5,5s2.2,5,5,5,5-2.2,5-5-2.2-5-5-5"/>
  <path class="cls-7" d="M191.9,215.1s1.2,3.3,3.5,1.2c2.3-2.1,2.5-7.1,7.4-10.8,4.9-3.7,10.3,1.8,19.7-6.2,0,0,1.8,6.5,12,8.9,0,0,2.1.8,3.4,3.4,1.2,2.7,2.9,4.8,5.2,3.6,0,0,2.9-1.2,1.9-8.2-1-7-9.5-19.9-27.3-19.9s-25.1,12.9-26.1,20.5c-.8,5.9.3,7.5.3,7.5"/>
  <path class="cls-7" d="M191.9,215.1l-.5.2s.2.6.6,1.1c.2.3.4.6.8.8.3.2.7.4,1.2.4.6,0,1.2-.3,1.9-.8.7-.6,1.1-1.4,1.6-2.2,1.3-2.6,2.3-5.9,5.8-8.6.8-.6,1.7-1,2.6-1.2.9-.2,1.9-.2,3-.2s.7,0,1,0c1.7,0,3.6,0,5.8-.7,2.2-.6,4.6-1.9,7.3-4.2l-.4-.4-.6.2c0,0,.5,1.8,2.3,3.8,1.8,2,4.9,4.3,10.2,5.5v-.6c.1,0,0,.5,0,.5h0c0-.1,0,0,0,0h0s0-.1,0-.1h0c0,.1,1.9.9,3,3.3.5,1.1,1.1,2.1,1.8,2.9.7.8,1.6,1.4,2.6,1.4.5,0,1-.1,1.6-.4l-.3-.5.2.5c0,0,.7-.3,1.3-1.2.6-.9,1.2-2.4,1.2-4.8,0-.8,0-1.7-.2-2.7-.5-3.7-2.9-8.7-7.5-12.9-4.6-4.2-11.3-7.5-20.4-7.5-9.1,0-15.5,3.3-19.8,7.6-4.3,4.3-6.4,9.5-6.9,13.4-.2,1.5-.3,2.8-.3,3.8,0,3,.6,4,.7,4.1l.5-.3-.5.2.5-.2.5-.3-.2.2.3-.2h0s-.2.2-.2.2l.3-.2s-.1-.2-.3-.7c-.1-.5-.3-1.4-.3-2.7s0-2.2.3-3.7c.5-3.6,2.5-8.7,6.6-12.7,4.1-4.1,10.2-7.2,19-7.2,8.8,0,15.2,3.2,19.6,7.2,4.4,4,6.7,8.9,7.2,12.2.1,1,.2,1.8.2,2.6,0,2.2-.5,3.5-1,4.2-.2.3-.5.6-.6.7h-.2c0,.1,0,.1,0,.1h0s.1.3.1.3v-.3c-.1,0-.1,0-.1,0v.3c.1,0,0-.3,0-.3h0c-.4.2-.7.3-1,.3-.6,0-1.2-.3-1.8-1-.6-.6-1.1-1.6-1.6-2.6-1.3-2.9-3.6-3.7-3.7-3.7h0c-5-1.2-7.9-3.3-9.6-5.2-.8-.9-1.3-1.8-1.7-2.4-.2-.3-.3-.5-.3-.7v-.2c0,0,0,0,0,0h0c0-.2-.2-.3-.4-.4s-.4,0-.5.1c-2.6,2.2-4.9,3.4-6.9,4-2,.6-3.8.6-5.5.6s-.7,0-1,0c-1.1,0-2.2,0-3.2.2-1,.2-2.1.6-3.1,1.4-2.5,1.9-3.9,4.2-4.8,6.2-.5,1-.9,2-1.3,2.7-.4.8-.8,1.4-1.3,1.9-.5.4-.8.5-1.1.5-.2,0-.4,0-.6-.2-.3-.2-.5-.5-.7-.8,0-.1-.1-.3-.2-.4h0c0-.1,0-.1,0-.1h0s0-.1,0-.1l-.5.3Z"/>
  <path class="cls-3" d="M219.3,222.5c0,.8-.6,1.4-1.4,1.4s-1.4-.6-1.4-1.4.6-1.4,1.4-1.4,1.4.6,1.4,1.4"/>
  <path class="cls-7" d="M125.2,291.5s12.3,18.9,33.3,37.7c10.5,9.4,23.2,18.9,37.8,25.9,14.5,7.1,30.8,11.8,48.4,11.8,17.6,0,36.6-4.7,56.4-16.6,19.8-11.8,40.4-30.7,61.4-58.9l-1.7-1.3c-20.9,28-41.3,46.7-60.7,58.3-19.5,11.6-38,16.3-55.3,16.3-17.3,0-33.2-4.6-47.5-11.6-21.4-10.5-39-26.2-51.2-39.3-6.1-6.6-10.9-12.5-14.1-16.7-1.6-2.1-2.9-3.8-3.7-5-.4-.6-.7-1.1-.9-1.4-.1-.2-.2-.3-.2-.3h0c0-.1-1.8,1.1-1.8,1.1ZM125.3,289.2s12.3,13.3,33.4,26.5c21,13.2,50.9,26.5,86.1,26.5,35.2,0,75.6-13.3,117.6-52.9l-1.5-1.6c-41.7,39.3-81.5,52.3-116.1,52.3-34.6,0-64.1-13.1-84.9-26.1-10.4-6.5-18.7-13.1-24.3-18-2.8-2.5-5-4.5-6.4-5.9-.7-.7-1.3-1.3-1.7-1.7-.2-.2-.3-.3-.4-.4h-.1c0-.1-1.6,1.3-1.6,1.3ZM125.5,287.6c0,0,49.1,32.3,119.2,32.3,35.1,0,75.4-8.1,117.4-32.2l-1.1-1.9c-41.7,24-81.6,31.9-116.3,31.9-34.7,0-64.3-8-85.1-16-10.4-4-18.7-8-24.3-11-2.8-1.5-5-2.7-6.4-3.6-.7-.4-1.3-.8-1.6-1-.2-.1-.3-.2-.4-.3h-.1c0,0-1.2,1.7-1.2,1.7h0ZM241.4,366.5h2.2v-48.3h-2.2v48.3ZM161.9,331.3l24.6-19.5-1.3-1.7-24.6,19.5,1.3,1.7ZM217,362.5l13.2-44.7-2.1-.6-13.2,44.7,2.1.6ZM193.8,352.8l21.3-35.4-1.8-1.1-21.3,35.4,1.8,1.1ZM177,342.1l23-26.8-1.6-1.4-23,26.8,1.6,1.4ZM270,363.2l-13.2-44.7-2.1.6,13.2,44.7,2.1-.6ZM292.9,353.1l-20.9-36.5-1.9,1.1,20.9,36.5,1.9-1.1ZM310.5,343.6l-23.6-29-1.7,1.4,23.6,29,1.7-1.4ZM324.3,330.9l-24.6-19.5-1.3,1.7,24.6,19.5,1.3-1.7Z"/>
  <polygon class="cls-5" points="107.8 295.8 108.3 418.3 122.5 418.3 122 295.8 107.8 295.8"/>
  <path class="cls-7" d="M122.5,418.3v-1.1h-13.1l-.5-120.3h12l.5,121.4h1.1v-1.1,1.1h1.1s-.5-122.5-.5-122.5c0-.6-.5-1.1-1.1-1.1h-14.1c-.3,0-.6.1-.8.3-.2.2-.3.5-.3.8l.5,122.5c0,.6.5,1.1,1.1,1.1h14.1c.3,0,.6-.1.8-.3.2-.2.3-.5.3-.8h-1.1Z"/>
  <path class="cls-6" d="M172.3,263.4c0,31-25.2,56.2-56.2,56.2s-56.2-25.2-56.2-56.2,25.2-87.6,56.2-87.6,56.2,56.6,56.2,87.6"/>
  <path class="cls-7" d="M172.3,263.4h-1.1c0,15.2-6.2,29-16.2,39-10,10-23.8,16.1-39,16.1-15.2,0-29-6.2-39-16.1-10-10-16.2-23.7-16.2-39,0-7.6,1.6-16.9,4.4-26.5,4.2-14.4,11.3-29.5,20.2-40.9,4.4-5.7,9.3-10.5,14.5-13.9,5.2-3.3,10.6-5.2,16.1-5.2,7.4,0,14.6,3.4,21.2,9.1,9.9,8.5,18.4,22.1,24.4,36.5,6,14.4,9.5,29.5,9.5,40.9h2.2c0-7.9-1.6-17.3-4.5-27.1-4.3-14.6-11.5-29.9-20.6-41.6-4.5-5.9-9.6-10.8-15-14.4-5.4-3.5-11.2-5.6-17.3-5.6-8.1,0-15.7,3.7-22.6,9.6-10.3,8.9-18.9,22.7-25,37.3-6.1,14.6-9.7,29.9-9.7,41.8,0,31.6,25.7,57.3,57.3,57.3s57.3-25.6,57.3-57.3h-1.1Z"/>
  <polygon class="cls-5" points="371.5 368.1 361.3 368.1 360.9 262.7 371.1 262.7 371.5 368.1"/>
  <path class="cls-7" d="M371.5,368.1v-1.1h-9.1l-.4-103.2h8.1l.4,104.3h1.1v-1.1,1.1h1.1s-.4-105.3-.4-105.3c0-.6-.5-1.1-1.1-1.1h-10.2c-.3,0-.6.1-.8.3-.2.2-.3.5-.3.8l.4,105.3c0,.6.5,1.1,1.1,1.1h10.2c.3,0,.6-.1.8-.3.2-.2.3-.5.3-.8h-1.1Z"/>
  <path class="cls-6" d="M407.2,244.8c0,22.3-18.1,40.3-40.3,40.3s-40.3-18-40.3-40.3,18.1-62.8,40.3-62.8,40.3,40.6,40.3,62.8"/>
  <path class="cls-7" d="M407.2,244.8h-1.1c0,10.8-4.4,20.6-11.5,27.7-7.1,7.1-16.9,11.5-27.8,11.5-10.8,0-20.7-4.4-27.8-11.5-7.1-7.1-11.5-16.9-11.5-27.7,0-5.4,1.1-12.1,3.1-18.9,3-10.3,8.1-21.1,14.4-29.3,3.2-4.1,6.6-7.5,10.3-9.9,3.7-2.4,7.5-3.7,11.4-3.7,5.2,0,10.3,2.4,15,6.4,7,6.1,13.2,15.8,17.5,26.1,4.3,10.3,6.8,21.1,6.8,29.3h2.2c0-5.7-1.2-12.5-3.2-19.5-3.1-10.5-8.3-21.5-14.8-30-3.3-4.2-6.9-7.8-10.8-10.4-3.9-2.6-8.2-4.1-12.6-4.1-5.9,0-11.5,2.7-16.4,6.9-7.4,6.4-13.6,16.4-18,26.9-4.4,10.5-7,21.5-7,30.1,0,22.9,18.5,41.4,41.4,41.4,22.9,0,41.4-18.5,41.4-41.4h-1.1Z"/>
  <path class="cls-12" d="M244.1,312.2l-43.7,5.4-5.2-42.2c-1.5-12,7.1-23,19.1-24.5,12.1-1.5,23,7.1,24.5,19.1l5.2,42.2Z"/>
  <path class="cls-7" d="M244.1,312.2v-1.1c-.1,0-42.7,5.2-42.7,5.2l-5.1-41.1c-.1-.9-.2-1.7-.2-2.6,0-10.4,7.8-19.4,18.4-20.7.9-.1,1.7-.2,2.6-.2,10.4,0,19.4,7.8,20.7,18.3l5.2,42.2h1.1c0-.1-.1-1.2-.1-1.2v1.1c.1,0,1.2-.1,1.2-.1l-5.2-42.2c-1.4-11.7-11.4-20.2-22.9-20.2s-1.9,0-2.8.2c-11.7,1.4-20.3,11.4-20.3,22.8s0,1.9.2,2.8l5.2,42.2c0,.6.6,1,1.2.9l43.7-5.4c.3,0,.5-.2.7-.4s.3-.5.2-.8h-1.1Z"/>
  <path class="cls-4" d="M282.9,375.7l-.6,7.4,26.6,2.3c6,.5,10.5,5.8,10,11.9-.5,6.1-5.8,10.6-11.9,10l-40.1-3.4,1.5-18,.3-3.9.6-7.4,13.5,1.2Z"/>
  <path class="cls-7" d="M282.9,375.7h-1.1c0,0-.6,7.3-.6,7.3,0,.6.4,1.1,1,1.2l26.6,2.3c5.2.4,9.1,4.8,9.1,9.9,0,.3,0,.6,0,.9-.4,5.2-4.8,9.1-9.9,9.1s-.6,0-.8,0l-39-3.3,1.4-17,.3-3.9.5-6.3,12.4,1.1v-1.1c0,0-1,0-1,0h1.1c0,0,0-1,0-1l-13.5-1.2c-.3,0-.6,0-.8.2-.2.2-.4.4-.4.7l-.6,7.4-.3,3.9-1.5,18c0,.6.4,1.1,1,1.2l40.1,3.4c.3,0,.7,0,1,0,6.2,0,11.5-4.8,12-11.1,0-.3,0-.7,0-1,0-6.2-4.7-11.5-11-12l-25.5-2.2.5-6.3c0-.6-.4-1.1-1-1.2v1.1Z"/>
  <polygon class="cls-11" points="274.1 320.4 287.7 321.5 283 376.3 269.4 375.2 274.1 320.4"/>
  <path class="cls-7" d="M274.1,320.4v1.1c0,0,12.4.9,12.4.9l-4.5,52.7-11.5-.9,4.6-53.7h-1.1c0,0,0,1,0,1v-1.1c0,0-1,0-1,0l-4.7,54.8c0,.3,0,.6.3.8.2.2.5.4.7.4l13.6,1c.6,0,1.1-.4,1.2-1l4.7-54.8c0-.3,0-.6-.3-.8s-.5-.4-.7-.4l-13.6-1c-.6,0-1.1.4-1.2,1h1.1Z"/>
  <path class="cls-4" d="M301.1,356l2.3,7,25.3-8.4c5.8-1.9,12,1.2,13.9,7,1.9,5.8-1.2,12-7,13.9l-38.2,12.7-5.7-17.2-1.2-3.7-2.3-7,12.9-4.3Z"/>
  <path class="cls-7" d="M301.1,356l-1,.3,2.3,7c0,.3.3.5.5.6.3.1.5.2.8,0l25.3-8.4c1-.3,2.1-.5,3.1-.5,4.1,0,8,2.6,9.4,6.8.3,1,.5,2.1.5,3.1,0,4.2-2.6,8.1-6.8,9.4l-37.2,12.4-5.3-16.1-1.2-3.7-2-6,11.9-3.9-.3-1-1,.3,1-.3-.3-1-12.9,4.3c-.6.2-.9.8-.7,1.4l2.3,7,1.2,3.7,5.7,17.2c0,.3.3.5.5.6.3.1.6.2.8,0l38.2-12.7c5.1-1.7,8.3-6.4,8.3-11.5,0-1.3-.2-2.5-.6-3.8-1.7-5.1-6.4-8.3-11.4-8.3-1.3,0-2.5.2-3.8.6l-24.3,8.1-2-6c0-.3-.3-.5-.5-.6-.3-.1-.5-.1-.8,0l.3,1Z"/>
  <polygon class="cls-11" points="271.2 308.7 284 304.3 301.4 356.5 288.5 360.9 271.2 308.7"/>
  <path class="cls-7" d="M271.2,308.7l.3,1,11.8-4,16.7,50.2-10.8,3.7-17-51.2-1,.3.3,1-.3-1-1,.3,17.4,52.2c0,.3.3.5.5.6.3.1.6.1.8,0l12.8-4.3c.6-.2.9-.8.7-1.4l-17.4-52.2c0-.3-.3-.5-.5-.6-.3-.1-.6-.1-.8,0l-12.8,4.3c-.6.2-.9.8-.7,1.4l1-.3Z"/>
  <path class="cls-9" d="M271.6,352.2l-34,2.3c-16.4,1.1-31.1-9.8-34.8-25.8l-3.2-13.7,77.4-18.3-5.4,55.6Z"/>
  <path class="cls-7" d="M271.6,352.2v-1.1c0,0-34.1,2.3-34.1,2.3-.7,0-1.5,0-2.2,0-14.9,0-28.1-10.3-31.5-25.1l-2.9-12.7,74.9-17.7-5.3,54.1h1.1c0,.1,0-1,0-1v1.1c0,0,1.1.1,1.1.1l5.4-55.6c0-.3,0-.7-.4-.9-.3-.2-.6-.3-1-.2l-77.4,18.3c-.6.1-.9.7-.8,1.3l3.2,13.7c3.6,15.7,17.6,26.7,33.6,26.7s1.5,0,2.3,0l34-2.3c.5,0,.9-.4,1-1h-1.1Z"/>
  <polyline class="cls-12" points="198.1 261.9 178.5 304.8 199.5 309"/>
  <path class="cls-7" d="M197.1,261.5l-19.6,42.9c-.1.3-.1.6,0,.9.1.3.4.5.7.6l21,4.3.4-2.1-19.7-4,19-41.6-2-.9Z"/>
  <path class="cls-11" d="M211.4,294.6l-25.2,1.1c-6,.8-10.1,6.6-9,12.6,1.1,5.5,6.2,9.2,11.6,8.5l19.5-2.6"/>
  <path class="cls-7" d="M211.3,293.5l-25.2,1.1h0c-5.9.8-10.1,5.9-10.1,11.6s0,1.5.2,2.3c1.1,5.5,5.9,9.5,11.4,9.5s1,0,1.5,0h0l19.5-2.6-.3-2.1-19.5,2.6h0c-.4,0-.8,0-1.2,0-4.5,0-8.4-3.2-9.3-7.7-.1-.6-.2-1.2-.2-1.9,0-4.7,3.4-8.8,8.2-9.5v-1.1c-.1,0,0,1.1,0,1.1l25.2-1.1v-2.1Z"/>
  <polygon class="cls-13" points="208 313.8 280.5 307.3 279.9 300.4 207.4 306.8 208 313.8"/>
  <path class="cls-7" d="M208,313.8v1.1c0,0,72.5-6.4,72.5-6.4.6,0,1-.6,1-1.2l-.6-6.9c0-.3-.2-.5-.4-.7-.2-.2-.5-.3-.8-.2l-72.4,6.4c-.6,0-1,.6-1,1.2l.6,6.9c0,.3.2.5.4.7.2.2.5.3.8.2v-1.1c0,0,1,0,1,0l-.5-5.9,70.3-6.3.4,4.8-71.3,6.4v1.1c0,0,1.2,0,1.2,0h-1.1Z"/>
  <polygon class="cls-13" points="235.3 311.4 299.2 305.8 312.7 254.2 248.7 259.8 235.3 311.4"/>
  <path class="cls-7" d="M235.3,311.4v1.1c0,0,64-5.6,64-5.6.5,0,.8-.4.9-.8l13.5-51.6c0-.3,0-.7-.2-1-.2-.3-.6-.4-.9-.4l-63.9,5.6c-.5,0-.8.4-.9.8l-13.5,51.6c0,.3,0,.7.2,1,.2.3.6.4.9.4v-1.1c0,0,.9.3.9.3l13.3-50.9,61.6-5.4-12.9,49.4-63.2,5.5v1.1c0,0,1.1.3,1.1.3l-1-.3Z"/>
  <path class="cls-13" d="M267.5,284.5c-.3,4.5,2.9,7.8,7.3,7.4,4.3-.4,8.1-4.3,8.4-8.8.3-4.5-2.9-7.8-7.3-7.4-4.3.4-8.1,4.3-8.4,8.8"/>
  <path class="cls-7" d="M267.5,284.5h-1.1c0,.1,0,.4,0,.6,0,2.2.8,4.2,2.2,5.6,1.4,1.4,3.3,2.3,5.5,2.3.3,0,.5,0,.8,0,2.5-.2,4.7-1.4,6.4-3.2,1.7-1.8,2.8-4.1,3-6.6,0-.2,0-.4,0-.7,0-2.2-.8-4.2-2.2-5.6-1.4-1.4-3.3-2.3-5.5-2.3-.2,0-.5,0-.8,0-2.5.2-4.7,1.4-6.4,3.2-1.7,1.8-2.8,4.1-3,6.6h1.1c0,0,1.1.1,1.1.1.1-1.9,1-3.8,2.4-5.2,1.4-1.4,3.1-2.4,5-2.5.2,0,.4,0,.6,0,1.6,0,3,.6,4,1.6,1,1,1.6,2.4,1.6,4.1,0,.2,0,.3,0,.5-.1,1.9-1,3.8-2.4,5.2-1.4,1.4-3.1,2.4-5,2.5-.2,0-.4,0-.6,0-1.6,0-3-.6-4-1.6-1-1-1.6-2.4-1.6-4.1,0-.2,0-.3,0-.5h-1.1Z"/>
  <path class="cls-11" d="M206.9,298.8l2.3,5.6c.4,2.6,2.7,4.4,5.1,4.1,1.5-.2,2.7-1.2,3.3-2.5,1,1.1,2.4,1.6,3.9,1.4,1.5-.2,2.7-1.2,3.3-2.5,1,1.1,2.4,1.6,3.9,1.4,1.5-.2,2.7-1.2,3.3-2.5,1,1.1,2.4,1.6,3.9,1.4,2.4-.4,4.1-2.8,3.8-5.4l-2.2-5c-1.3-3.1-4.6-4.8-7.9-4.3l-27.2,4.5"/>
  <path class="cls-7" d="M205.9,299.2l2.3,5.6,1-.4-1.1.2c.4,2.9,2.8,5,5.6,5,.3,0,.5,0,.8,0h0c1.9-.3,3.3-1.5,4.1-3.1l-1-.5-.8.7c1,1.1,2.5,1.8,4,1.8.3,0,.5,0,.8,0,1.9-.3,3.3-1.5,4.1-3.1l-1-.5-.8.7c1,1.1,2.5,1.8,4,1.8.3,0,.5,0,.8,0,1.9-.3,3.3-1.5,4.1-3.1l-1-.5-.8.7c1,1.1,2.5,1.8,4,1.8.3,0,.5,0,.8,0,1.4-.2,2.6-.9,3.4-2,.8-1,1.3-2.3,1.3-3.7,0-.3,0-.6,0-.9,0,0,0-.2,0-.3l-2.2-5c-1.3-3.1-4.4-5-7.6-5-.5,0-1,0-1.4.1l.2,1.1-.2-1.1-27.2,4.5.3,2.1,27.2-4.5h0c.4,0,.7,0,1.1,0,2.4,0,4.6,1.4,5.6,3.7l2.2,5,1-.4-1.1.2c0,.2,0,.4,0,.6,0,.9-.3,1.8-.8,2.4-.5.6-1.2,1.1-2.1,1.2-.2,0-.3,0-.5,0-.9,0-1.8-.4-2.5-1.1-.2-.3-.6-.4-.9-.3s-.7.3-.8.6c-.5,1-1.4,1.7-2.5,1.9-.2,0-.3,0-.5,0-.9,0-1.8-.4-2.5-1.1-.2-.3-.6-.4-.9-.3-.3,0-.7.3-.8.6-.5,1-1.4,1.7-2.5,1.9-.2,0-.3,0-.5,0-.9,0-1.8-.4-2.5-1.1-.2-.3-.6-.4-.9-.3-.3,0-.7.3-.8.6-.5,1-1.4,1.7-2.5,1.9h0c-.2,0-.3,0-.5,0-1.6,0-3.2-1.3-3.4-3.2v-.3c0,0-2.4-5.6-2.4-5.6l-2,.8Z"/>
  <polyline class="cls-7" points="232.9 303.5 228.7 294.4 226.8 295.3 230.9 304.4"/>
  <polyline class="cls-7" points="225.9 304.7 221.7 295.6 219.8 296.4 223.9 305.6"/>
  <polyline class="cls-7" points="218.8 305.9 214.7 296.7 212.7 297.6 216.9 306.7"/>
</svg>