<?xml version="1.0" encoding="UTF-8"?>
<svg id="_레이어_1" data-name=" 레이어 1" xmlns="http://www.w3.org/2000/svg" version="1.1" viewBox="0 0 475 475">
  <defs>
    <style>
      .cls-1 {
        fill: #63f3f3;
      }

      .cls-1, .cls-2 {
        stroke-width: 0px;
      }

      .cls-3, .cls-4 {
        fill: none;
        stroke: #3d2117;
      }

      .cls-4 {
        stroke-width: 4px;
      }

      .cls-2 {
        fill: #fff;
      }
    </style>
  </defs>
  <rect class="cls-1" x="2" y="2" width="471" height="471" rx="14.2" ry="14.2"/>
  <rect class="cls-3" x="2" y="2" width="471" height="471" rx="14.2" ry="14.2"/>
  <g>
    <path class="cls-4" d="M365.3,222.1c.2.6.4,1.1.7,1.6.3.5.7.9,1.2,1.3.4.4.9.7,1.5,1,.5.3,1.1.4,1.7.5.4,0,.6-.1.6-.6v-1.4c0-.4-.2-.6-.6-.6s-1-.3-1.4-.6-.8-.7-1.2-1.2c-.3-.5-.6-1.1-.8-1.7-.2-.6-.3-1.3-.3-2v-7.7c0-.4-.2-.6-.6-.6h-1.5c-.4,0-.6.2-.6.6v7.7c0,.7,0,1.4-.3,2-.2.6-.5,1.2-.8,1.7s-.7.9-1.2,1.2c-.4.3-.9.5-1.4.6-.4,0-.6.3-.6.6v1.4c0,.4.2.6.6.6.6,0,1.1-.2,1.7-.5.5-.3,1-.6,1.5-1,.4-.4.8-.8,1.2-1.3.3-.5.6-1,.7-1.6h0ZM356.8,209c0-.4-.2-.6-.6-.6h-1.5c-.4,0-.6.2-.6.6v20c0,.4.2.6.6.6h1.5c.4,0,.6-.2.6-.6v-20Z"/>
    <path class="cls-4" d="M343.8,219.5c-.1-.5-.2-1-.3-1.5s-.2-1.1-.3-1.6-.2-1-.2-1.5v-1.3c0-1.3.7-2,2-2h3c.4,0,.7,0,1.1.1.3,0,.7.1,1.1.2.2,0,.3,0,.5-.1s.2-.3.2-.5v-1.4c0-.4-.2-.6-.6-.6-.9-.1-1.8-.2-2.6-.3-.8-.1-1.7-.1-2.7-.1-1.6,0-2.8.4-3.5,1.1-.7.7-1.1,1.9-1.1,3.6s0,.8,0,1.3.1,1,.2,1.5.2,1.1.3,1.6.2,1.1.3,1.5c0,.2.1.4.3.5.1,0,.3.1.5.1h1.5c.2,0,.4,0,.5-.2,0-.1.1-.3,0-.5h-.2ZM348.7,222.9c0-.4-.3-.6-.7-.6h-1.4c-.2,0-.4,0-.5.2-.1.1-.2.3-.1.5v2.4c0,.7-.2,1.3-.6,1.6-.4.4-1,.6-1.8.6h-4.9c-.7,0-1.4,0-2-.1-.6,0-1.3-.1-2-.2-.4,0-.6.1-.6.6v1.3c-.1.4,0,.6.5.6,1.2.1,2.5.2,4,.3,1.5,0,3.1.1,5,.1s3-.4,3.9-1.2,1.4-1.9,1.4-3.3v-1.5c0-.5,0-.9,0-1.2h0ZM334.6,222.5c0,.4.2.6.6.6h1.5c.4,0,.6-.2.6-.6v-13.5c0-.4-.2-.6-.6-.6h-1.5c-.4,0-.6.2-.6.6v5.6c-.2-.3-.5-.5-1-.5h-1.4c-.4,0-.6.2-.6.6v1.3c0,.4.2.6.6.6h1.6c.6,0,.8.3.8.8v5.1h0Z"/>
    <path class="cls-4" d="M327.9,226.8c-.6,0-1,.2-1.3.5s-.5.8-.5,1.4c0,1,.3,1.7.9,2.3.6.6,1.3.8,2.2.8s.2,0,.2-.3v-.5c0-.2,0-.3-.2-.3-.5,0-.8-.2-1-.6.4,0,.8-.2,1.1-.6.3-.3.4-.7.4-1.2s-.2-.9-.5-1.3-.8-.5-1.3-.5v.3Z"/>
    <path class="cls-4" d="M316.7,211.5c.4,0,.6-.2.6-.6v-1.3c0-.4-.2-.6-.6-.6h-9.8c-.4,0-.6.2-.6.6v1.3c0,.4.2.6.6.6h3.6v.7c0,.6,0,1.2-.3,1.8-.2.6-.4,1-.8,1.4-.3.4-.7.7-1.2.9s-.9.3-1.5.3-.6.2-.6.6v1.3c0,.4.2.6.6.6.6,0,1.2,0,1.8-.3s1-.4,1.5-.8c.4-.3.8-.7,1.1-1.1.3-.4.5-.9.7-1.3.2.5.4.9.7,1.3.3.4.7.8,1.1,1.1.4.3.9.6,1.5.8s1.1.3,1.8.3.6-.2.6-.6v-1.3c0-.4-.2-.6-.6-.6s-1-.1-1.5-.3-.8-.5-1.2-.9c-.3-.4-.6-.9-.8-1.4-.2-.6-.3-1.1-.3-1.8v-.7h3.6ZM315.7,225.5c0-3-2.5-4.6-7.6-4.6s-7.6,1.5-7.6,4.6,2.5,4.6,7.6,4.6,7.6-1.5,7.6-4.6ZM312.9,225.5c0,.3,0,.6-.2.9-.2.2-.4.5-.8.6-.4.2-.9.3-1.5.4-.6,0-1.4.1-2.3.1s-1.7,0-2.3-.1c-.6,0-1.1-.2-1.5-.4s-.6-.4-.8-.6c-.2-.2-.2-.5-.2-.9s0-.6.2-.9c.2-.2.4-.5.8-.6.4-.2.9-.3,1.5-.4.6,0,1.4-.1,2.3-.1s1.7,0,2.3.1c.6,0,1.1.2,1.5.4s.6.4.8.6c.2.2.2.5.2.9ZM301,219.2c0,.4.2.6.6.6h1.5c.4,0,.6-.2.6-.6v-10.1c0-.4-.2-.6-.6-.6h-1.5c-.4,0-.6.2-.6.6v3.9c-.2-.3-.5-.5-1-.5h-1.4c-.4,0-.6.2-.6.6v1.3c0,.4.2.6.6.6h1.6c.6,0,.8.3.8.8v3.4h0Z"/>
    <path class="cls-4" d="M295.5,227.4c.4,0,.6-.3.6-.6v-1.3c0-.4-.2-.6-.6-.6s-.9,0-1.5.1c-.6,0-1.2,0-1.9.1s-1.4,0-2.1.1h-2.1c.2,0,.3-.2.4-.4.1-.2.2-.4.2-.6v-2.8c0-.4-.2-.6-.6-.6h-1.5c-.4,0-.6.2-.6.6v3c0,.5-.3.7-.8.7h-3.3c-.5,0-1.1,0-1.6-.1-.5,0-1,0-1.4-.1-.4,0-.6.1-.6.6v1.3c0,.4.2.6.6.6s.9.1,1.5.2c.6,0,1.3,0,2,.1h5c3.8,0,6.6-.1,8.4-.4h0ZM286.9,217.4c.3.6.6,1.1,1.1,1.6s1,.9,1.5,1.3c.6.4,1.2.6,1.9.8s1.4.3,2.1.3.4,0,.6,0,.3-.2.3-.5v-1.5c0-.4-.2-.6-.6-.6-.8,0-1.5-.1-2.2-.4-.7-.3-1.2-.6-1.7-1.1-.5-.4-.9-1-1.1-1.6-.3-.6-.4-1.3-.4-2v-3.4c0-.4-.2-.6-.6-.6h-1.5c-.4,0-.6.2-.6.6v3.4c0,.7-.1,1.4-.4,2-.3.6-.6,1.1-1.1,1.6-.5.4-1.1.8-1.7,1.1-.7.3-1.4.4-2.2.4s-.6.2-.6.6v1.5c0,.3,0,.5.3.5h.6c.7,0,1.4,0,2.1-.3.7-.2,1.3-.5,1.9-.8.6-.4,1.1-.8,1.5-1.3s.8-1,1.1-1.6h-.3Z"/>
    <path class="cls-4" d="M273.4,226.8c-.6,0-1,.2-1.3.5s-.5.8-.5,1.4c0,1,.3,1.7.9,2.3.6.6,1.3.8,2.2.8s.2,0,.2-.3v-.5c0-.2,0-.3-.2-.3-.5,0-.8-.2-1-.6.4,0,.8-.2,1.1-.6.3-.3.4-.7.4-1.2s-.2-.9-.5-1.3-.8-.5-1.3-.5v.3Z"/>
    <path class="cls-4" d="M258.4,223.7c.7,0,1.3,0,1.9-.1.6,0,1.1-.1,1.6-.2.4,0,.6-.3.6-.7v-1.3c0-.4-.2-.6-.6-.6-1.2.1-2.4.2-3.8.3-1.4,0-2.9.1-4.6.1h-4.8c-1.5,0-2.7-.2-3.6-.3-.4,0-.6.1-.6.6v1.3c0,.4.2.6.6.7h2.2c.3,0,.5,0,.6.2.1,0,.2.3.2.6v3.7c0,.4.2.6.6.6h1.5c.4,0,.6-.2.6-.6v-3.4c0-.5-.2-.8-.6-1h5.4c.6,0,.8.2.8.7v3.6c0,.4.2.6.6.6h1.5c.4,0,.6-.2.6-.6v-3.4c0-.3,0-.5-.2-.7-.1-.2-.3-.3-.5-.4v.3ZM260.7,214c0-3.5-2.5-5.3-7.5-5.3s-7.5,1.8-7.5,5.3,2.5,5.3,7.5,5.3,7.5-1.8,7.5-5.3ZM253.2,216.7c-1.6,0-2.8-.2-3.6-.7-.8-.4-1.2-1.1-1.2-2.1s.4-1.6,1.1-2.1c.8-.4,2-.6,3.6-.6s2.8.2,3.6.6c.8.4,1.1,1.1,1.1,2.1s-.4,1.6-1.2,2.1c-.8.4-2,.7-3.6.7h.2Z"/>
    <path class="cls-4" d="M226.1,212.2c-.3,0-.5.2-.5.5v1.1c0,.4.2.5.5.5,1.3,0,2.5-.1,3.6-.1h6.7c.4,0,.5.1.6.2.1,0,.2.2.2.3s0,.3-.2.4c-.1.1-.3.2-.7.3-.3,0-.8.1-1.4.1h-6.3c-1.1,0-2-.1-2.9-.2-.4,0-.6.1-.6.5v1.1c0,.3,0,.5.5.6.9.1,1.8.2,2.7.2h2.9v.8c0,.4-.2.6-.6.6h-4.9c-.6,0-1.1,0-1.5-.1-.4,0-.6.1-.6.6v1.2c0,.2,0,.4.1.4,0,0,.2.1.4.2.4,0,1,0,1.6.1h12.4c1.4,0,2.4,0,3.1-.2.4,0,.6-.3.6-.6v-1.2c0-.4-.2-.6-.6-.6h-7.4c.2-.1.4-.3.4-.6v-.8c1.2,0,2.2,0,3-.2.8-.1,1.4-.3,1.8-.5.4-.2.8-.5.9-.9.2-.4.3-.8.3-1.3s-.1-1-.3-1.3c-.2-.4-.6-.7-1.2-.9-.6-.2-1.3-.4-2.3-.5-1,0-2.2-.1-3.6-.1h-3.7c-1.1,0-2,0-2.8.1l-.2.3ZM240.2,226.3c0-1.3-.6-2.3-1.9-2.9-1.3-.6-3.3-.9-5.9-.9s-4.6.3-5.9.9c-1.3.6-1.9,1.5-1.9,2.9s.6,2.3,1.9,2.9,3.3.9,5.9.9,4.6-.3,5.9-.9c1.3-.6,1.9-1.5,1.9-2.9ZM226.1,208.9c-.4,0-.6.2-.6.6v1.1c0,.4.2.6.6.6h13.1c.4,0,.6-.2.6-.6v-1.1c0-.4-.2-.6-.6-.6h-13.1ZM237.5,226.3c0,.6-.4,1-1.2,1.2s-2.1.3-3.9.3-3.1-.1-3.9-.3c-.8-.2-1.2-.6-1.2-1.2s.4-1,1.2-1.2,2.1-.3,3.9-.3,3.1.1,3.9.3c.8.2,1.2.6,1.2,1.2Z"/>
    <path class="cls-4" d="M208.3,210c0,.3-.2.4-.5.4h-2.5c-.4,0-.6.2-.6.6v1.4c0,.4.2.6.6.6h3v5.9c0,1.5-.3,2.6-.9,3.4-.6.8-1.3,1.3-2.3,1.4-.2,0-.4,0-.5.2s-.1.2-.1.4v1.4c0,.4.2.6.6.6,1.1-.1,2-.5,2.8-1.1s1.4-1.4,1.7-2.5c.3,1,.9,1.8,1.7,2.5.8.6,1.7,1,2.8,1.1.4,0,.6-.2.6-.6v-1.4c0-.2,0-.4-.1-.4,0,0-.2-.1-.5-.2-.9-.1-1.7-.6-2.3-1.4-.6-.8-.9-2-.9-3.4v-5.9h3c.4,0,.6-.2.6-.6v-1.4c0-.4-.2-.6-.6-.6h-3.4c.2-.1.4-.3.4-.6v-1.3c0-.4-.2-.6-.6-.6h-1.4c-.4,0-.6.2-.6.6v1.5h0ZM195.5,229.1c0,.4.2.6.6.6h1.4c.4,0,.6-.2.6-.6v-9.6h1.4c.3,0,.5,0,.6.1.1,0,.2.3.2.5v9c0,.4.2.6.6.6h1.4c.4,0,.6-.2.6-.6v-19.8c0-.4-.2-.6-.6-.6h-1.4c-.4,0-.6.2-.6.6v8c-.2-.3-.4-.4-.8-.4h-1.3v-7.8c0-.4-.2-.6-.6-.6h-1.4c-.4,0-.6.2-.6.6v20.1h-.1Z"/>
    <path class="cls-4" d="M181.7,217.9c.4.1.8.2,1.3.3.5,0,1,.2,1.5.3.5,0,1,.1,1.5.2s.9,0,1.4,0c1.6,0,2.8-.4,3.6-1.1.8-.8,1.2-1.9,1.2-3.3s0-1.6-.1-2.4c0-.7-.2-1.5-.4-2.3,0-.4-.3-.6-.7-.6h-1.5c-.2,0-.4,0-.5.2-.1.1-.1.3,0,.5.2.8.3,1.6.4,2.4s.1,1.6.1,2.2-.2,1.2-.5,1.5c-.4.3-.9.5-1.7.5h-1c-.4,0-.8,0-1.3-.2-.4,0-.9-.2-1.3-.3s-.9-.2-1.2-.3c-.3-.1-.6,0-.7.5l-.4,1.3c0,.4,0,.6.5.8l-.2-.2ZM175.4,229.6c.5,0,1,.1,1.6.2.6,0,1.1,0,1.7.1s1.1,0,1.6,0h1.4c1.7,0,3.1,0,4.2-.1,1.1,0,2-.3,2.7-.5s1.1-.6,1.4-1,.4-.9.4-1.6-.1-1.1-.4-1.5c-.2-.4-.6-.7-1.2-1-.6-.2-1.3-.4-2.3-.5-.9,0-2.1-.1-3.5-.1h-3.8c-.7,0-1.2-.3-1.2-.8s.4-.8,1.2-.8h5c1,0,1.9,0,2.8.1s1.7,0,2.4.1c.4,0,.6-.2.6-.6v-1.2c0-.4-.2-.5-.6-.6-.9,0-1.9-.1-2.9-.2h-9c-.8,0-1.3.2-1.6.5-.3.3-.5.8-.5,1.4s.1.9.4,1.3c.3.4.7.7,1.1.8h-.8c-.4,0-.5.2-.5.5v1.1c0,.4.2.5.5.5h9.4c.6,0,1.1,0,1.4.1.3,0,.6.1.7.3.1.1.2.3.2.5s0,.4-.2.5-.4.2-.9.3-1,.1-1.8.1h-6c-.6,0-1.1,0-1.7-.1-.6,0-1.1-.1-1.5-.2-.4,0-.6.1-.6.5v1.2c0,.4,0,.6.4.6h-.1ZM178.3,209c0-.4-.2-.6-.6-.6h-1.5c-.4,0-.6.2-.6.6v8.9c0,.4.2.6.6.6h1.5c.4,0,.6-.2.6-.6v-4.9c.2.3.5.5,1,.5h4c.4,0,.6-.2.6-.6v-1.3c0-.4-.2-.6-.6-.6h-4.1c-.6,0-.8-.3-.8-.8v-1.2h-.1Z"/>
    <path class="cls-4" d="M163.1,219.3c0,2.6.5,4.5,1.3,5.7s1.9,1.8,3.5,1.8,2.8-.7,3.6-2.1,1.2-3.6,1.2-6.5-.4-5.2-1.2-6.5-2-2.1-3.6-2.1-2.6.6-3.4,1.7c-.8,1.1-1.2,2.9-1.4,5.3h-2c-.3,0-.5,0-.6-.1-.1,0-.2-.3-.2-.5v-6.8c0-.4-.2-.6-.6-.6h-1.4c-.4,0-.6.2-.6.6v19.8c0,.4.2.6.6.6h1.4c.4,0,.6-.2.6-.6v-10.2c0,.1.2.2.3.3.1,0,.3.1.5.1h2ZM167.9,212.3c.7,0,1.3.5,1.6,1.4.3.9.5,2.5.5,4.5s-.2,3.6-.5,4.6-.9,1.4-1.6,1.4-1.3-.5-1.6-1.4c-.3-.9-.5-2.5-.5-4.6s.2-3.6.5-4.6c.3-.9.9-1.4,1.6-1.4h0ZM153.6,229.1c0,.4.2.6.6.6h1.4c.4,0,.6-.2.6-.6v-20.1c0-.4-.2-.6-.6-.6h-1.4c-.4,0-.6.2-.6.6v20.1Z"/>
    <path class="cls-4" d="M137.2,223.6h0c.5-1.4.7-3.1.7-5.3s0-2.8-.2-3.9c-.2-1.1-.4-1.9-.8-2.6-.3-.7-.8-1.1-1.4-1.5-.6-.3-1.2-.5-2-.5s-.5,0-.7,0h-.6c-.2,0-.4,0-.5.2,0,0-.1.2-.1.5v1.4c0,.4.2.6.6.6h1c.4,0,.7,0,1,.2s.5.5.6.9c.2.4.3,1,.3,1.8v2.9c0,1.2,0,2-.1,2.7,0,.7-.2,1.3-.3,1.8-.2.4-.4.8-.6.9-.3.2-.6.3-1,.3s-.9,0-1.4-.3h-.2c-.2,0-.4.2-.4.5l-.2,1.4c0,.4.1.6.5.7.4.1.7.2,1,.3h1.1c1.2,0,2.2-.5,3-1.6v.4c-.1.4,0,.6.4.7.5.2.9.3,1.3.4.4,0,.8.1,1.2.1,1.5,0,2.6-.7,3.4-2.1s1.2-3.5,1.2-6.2,0-2.8-.2-3.9c-.2-1.1-.4-1.9-.8-2.6-.4-.7-.8-1.1-1.4-1.5-.6-.3-1.2-.5-2-.5s-.4,0-.6,0h-.6c-.2,0-.4,0-.5.2,0,0-.1.2-.1.5v1.4c0,.4.2.6.6.6h.9c.4,0,.7,0,1,.2s.5.5.6.9.2,1,.3,1.8v2.9c0,1.2,0,1.9-.1,2.7,0,.7-.2,1.3-.4,1.8-.2.5-.4.8-.7,1s-.7.3-1.1.3-1.1-.1-1.8-.4h.1ZM127,229c0,.4.2.6.6.6h1.5c.4,0,.6-.2.6-.6v-20c0-.4-.2-.6-.6-.6h-1.5c-.4,0-.6.2-.6.6v8.2c-.2-.3-.5-.5-1-.5h-.9c-.4,0-.6.2-.6.6v1.4c0,.4.2.6.6.6h1.1c.6,0,.8.3.8.8v8.8h0Z"/>
    <path class="cls-4" d="M116.4,224c-1.3,0-2.6-.3-4-.9h-.3c-.2,0-.3.1-.4.4l-.4,1.4c-.1.4,0,.6.4.7,1,.3,1.9.6,2.7.7.8.2,1.7.2,2.5.2,3.8,0,5.7-1.7,5.7-5s-.5-2.9-1.4-3.6c-.9-.8-2.4-1.2-4.3-1.2s-1.3-.2-1.6-.5-.5-.9-.5-1.6.2-1.3.5-1.7c.4-.3.9-.5,1.8-.5s2.3.1,4.2.4c.4,0,.6-.1.6-.5v-1.5c0-.4-.2-.6-.6-.6s-.8-.1-1.2-.2h-3.8c-2.9,0-4.4,1.2-4.4,3.5s.1,1.4.4,2,.6,1.1,1.1,1.5h-.8c-.4,0-.6.2-.6.6v1.3c0,.4.2.6.6.6h3.3c1.4,0,2.4.2,3,.5.6.4.9,1,.9,1.8s-.3,1.5-.8,1.8c-.5.4-1.4.5-2.7.5h0ZM106.6,229c0,.4.2.6.6.6h1.5c.4,0,.6-.2.6-.6v-20c0-.4-.2-.6-.6-.6h-1.5c-.4,0-.6.2-.6.6v8.2c-.2-.3-.5-.5-1-.5h-1.4c-.4,0-.6.2-.6.6v1.4c0,.4.2.6.6.6h1.6c.6,0,.8.3.8.8v8.8h0Z"/>
  </g>
  <g>
    <path class="cls-4" d="M343.6,263.8c0,.4.3.6.7.6h1.5c.2,0,.4,0,.5-.2.1-.1.1-.3.1-.5-.3-1.7-.6-3.5-.7-5.2-.1-1.7-.2-3.5-.2-5.2s.2-1.7.6-2.1,1-.6,1.9-.6,1.7,0,2.4.1c.7,0,1.5.2,2.3.3.2,0,.3,0,.5-.1s.2-.3.2-.5v-1.4c0-.4-.2-.6-.6-.6-.9-.1-1.8-.2-2.7-.3-.9,0-1.7-.1-2.6-.1s-1.6,0-2.2.3c-.6.2-1.1.5-1.5.9s-.7.9-.8,1.6-.3,1.4-.3,2.4c0,1.9,0,3.7.2,5.5.1,1.7.4,3.5.7,5.3v-.2ZM337.2,267c0,.4.2.6.6.6h1.5c.4,0,.6-.2.6-.6v-20c0-.4-.2-.6-.6-.6h-1.5c-.4,0-.6.2-.6.6v8.2c-.2-.3-.5-.5-1-.5h-1.4c-.4,0-.6.2-.6.6v1.4c0,.4.2.6.6.6h1.6c.6,0,.8.3.8.8v8.8h0Z"/>
    <path class="cls-4" d="M326,257c-.1-.4-.2-.9-.3-1.4s-.2-1-.3-1.5c0-.5-.2-1-.2-1.5v-1.2c0-.7.2-1.1.5-1.4.3-.3.8-.4,1.4-.4h2.9c.4,0,.7,0,1.1.1.3,0,.7.1,1.1.2.2,0,.3,0,.5-.1.1-.1.2-.3.2-.5v-1.4c0-.4-.2-.6-.6-.6-.9-.1-1.8-.2-2.6-.3s-1.7-.1-2.6-.1c-1.6,0-2.8.4-3.5,1.1-.7.7-1,1.9-1,3.5s0,.7,0,1.2.1,1,.2,1.5c0,.5.2,1,.3,1.5s.2,1,.3,1.4.1.4.2.4c0,0,.2.1.5.1h1.5c.2,0,.4,0,.5-.2.1-.1.1-.3,0-.5h0ZM316,267.2c0,.4.3.6.7.6h1.4c.2,0,.4,0,.5-.2s.2-.3.1-.5v-3.1c0-.8.2-1.3.5-1.6.3-.3.9-.4,1.7-.4,1.7,0,3.3,0,4.8.1,1.5,0,3,.2,4.5.3.4,0,.6-.1.6-.6v-1.3c0-.4-.2-.6-.6-.6-1.3-.1-2.7-.2-4.3-.3-1.6,0-3.3-.1-5.3-.1s-2.9.3-3.6.9c-.7.6-1.1,1.6-1.1,2.9v3.8h.1ZM315.8,257.2c0,.4.2.6.6.6h1.5c.4,0,.6-.2.6-.6v-1.5c.2.3.5.5,1,.5h1.3c.4,0,.6-.2.6-.6v-1.3c0-.4-.2-.6-.6-.6h-1.7c-.2,0-.4,0-.5-.2s-.1-.3-.1-.5v-2.3c.2.3.5.5,1,.5h1.3c.4,0,.6-.2.6-.6v-1.3c0-.4-.2-.6-.6-.6h-1.7c-.2,0-.4,0-.5-.2s-.1-.3-.1-.5v-.9c0-.4-.2-.6-.6-.6h-1.5c-.4,0-.6.2-.6.6v10.1h0Z"/>
    <path class="cls-4" d="M294.9,254.9c-.4,0-.6.1-.6.5v1.2c0,.4.2.6.6.6s1,0,1.6.1h12.4c1.4,0,2.4,0,3.1-.2.4,0,.6-.2.6-.6v-1.2c0-.4-.2-.6-.6-.5h-13.4c-1.4,0-2.5,0-3.5-.2l-.2.3ZM295.7,267.6c.4,0,.9.1,1.5.2.6,0,1.1,0,1.7.1h3.2c1.7,0,3.2,0,4.3-.1s2-.2,2.6-.5c.6-.2,1.1-.5,1.3-.9s.4-.9.4-1.5-.1-1.1-.3-1.4c-.2-.4-.6-.7-1.2-.9s-1.3-.4-2.2-.5-2.1-.1-3.5-.1h-3.9c-.4,0-.8,0-.9-.2-.2,0-.3-.3-.3-.5s0-.5.3-.6c.2-.1.5-.2.9-.2h5c1,0,1.9,0,2.8.1.9,0,1.7,0,2.4.1.4,0,.5-.2.5-.6v-1.1c0-.4-.2-.5-.5-.6-.9,0-1.9-.1-3-.2h-9c-.8,0-1.4.2-1.7.5s-.5.7-.5,1.3.1.9.4,1.3c.3.4.7.6,1.1.8h-.9c-.3,0-.5.2-.5.5v1c0,.4.2.6.5.5h9.5c.6,0,1,0,1.4.1.3,0,.5.1.6.3,0,.1.1.3.1.4s0,.4-.2.5-.4.2-.9.3-1,0-1.8,0h-6.2c-.6,0-1.1,0-1.7-.1s-1.1-.1-1.5-.2c-.4,0-.5.1-.6.5v1.1c0,.4,0,.6.4.6h.4ZM310.6,250.4c0-.7-.1-1.2-.4-1.7-.3-.5-.7-.9-1.3-1.2s-1.4-.5-2.3-.6c-1-.1-2.1-.2-3.4-.2s-2.5,0-3.4.2c-1,.1-1.7.4-2.3.6-.6.3-1,.7-1.3,1.2s-.4,1-.4,1.7.1,1.2.4,1.7c.3.5.7.9,1.3,1.2s1.4.5,2.3.6,2.1.2,3.4.2,2.5,0,3.4-.2,1.7-.4,2.3-.6c.6-.3,1-.7,1.3-1.2s.4-1,.4-1.7ZM307.9,250.4c0,.3,0,.5-.2.7s-.4.3-.8.5c-.4.1-.9.2-1.5.3h-4.6c-.6,0-1.1-.1-1.5-.3-.4-.1-.6-.3-.8-.5s-.2-.4-.2-.7,0-.5.2-.7.4-.3.8-.5.9-.2,1.5-.3,1.4,0,2.3,0h2.3c.6,0,1.1.1,1.5.3s.6.3.8.5.2.4.2.7Z"/>
    <path class="cls-4" d="M282.2,256.3c0,1.9-.3,3.4-1,4.3-.6.9-1.6,1.4-2.9,1.4s-2.3-.3-3.6-.9h-.2c-.2,0-.3.2-.5.5l-.4,1.4c-.1.3,0,.6.5.8.8.3,1.5.5,2.2.7s1.4.2,2.1.2c2.2,0,3.8-.7,4.9-2.1s1.6-3.5,1.6-6.2-.6-5-1.7-6.4c-1.1-1.3-2.8-2-5-2s-1.3,0-1.8,0-1,0-1.4.2c-.2,0-.4,0-.5.2s-.1.2-.1.4v1.4c0,.4.2.6.6.6s.9-.1,1.4-.2,1,0,1.6,0,1.4.1,1.9.3,1,.5,1.3,1,.6,1,.7,1.8.2,1.6.2,2.7h0ZM268.8,267c0,.4.2.6.6.6h1.5c.4,0,.6-.2.6-.6v-20c0-.4-.2-.6-.6-.6h-1.5c-.4,0-.6.2-.6.6v8.2c-.2-.3-.5-.5-1-.5h-1.4c-.4,0-.6.2-.6.6v1.4c0,.4.2.6.6.6h1.6c.6,0,.8.3.8.8v8.8h0Z"/>
    <path class="cls-4" d="M263.3,262.8c-1.2.1-2.4.2-3.8.3-1.4,0-2.9.1-4.6.1h-4.8c-1.5,0-2.7-.2-3.6-.3-.4,0-.6.1-.6.6v1.3c0,.4.2.6.6.6s.9.1,1.5.2c.6,0,1.3,0,2,.1h5c3.8,0,6.6-.1,8.4-.4.4,0,.6-.3.6-.6v-1.3c0-.4-.2-.6-.6-.6h0ZM248.3,252.5c-.4,0-.5.2-.5.5v1.2c0,.4.2.6.5.6h8.6c.6,0,1,.1,1.3.2.3,0,.6.2.7.4.1.2.2.4.2.6s0,.5-.2.6c-.2.2-.4.3-.9.4-.4,0-1,.2-1.7.2h-2.9c-1.2,0-1.9,0-2.9-.1-1,0-1.9-.2-2.8-.3-.3,0-.5.1-.6.5l-.2,1.4v.4c0,.1.2.2.4.2,1,.1,2,.3,3.1.3s2.1.1,2.9.1c1.7,0,3,0,4.1-.2,1.1-.1,2-.3,2.6-.6.6-.3,1.1-.7,1.4-1.2.3-.5.4-1.1.4-1.9s-.1-1.3-.3-1.8-.6-.8-1.2-1.1c-.5-.3-1.3-.5-2.2-.6s-2-.2-3.4-.2h-3c-1,0-1.6-.4-1.6-1.2s.1-.7.3-.8c.2-.2.6-.2,1.2-.2h4.8c.8,0,1.5,0,2.3.1.7,0,1.4.1,2,.2.4,0,.6-.1.6-.5v-1.4c0-.3-.2-.5-.5-.6-1-.1-2.2-.3-3.6-.3s-2.8-.1-4.2-.1h-2.9c-1.8,0-2.7.8-2.7,2.3s.2,1.2.5,1.7.8.8,1.3,1h-1.1l.2.2Z"/>
    <path class="cls-4" d="M235.1,263.8c0,.2,0,.4.2.5,0,0,.2.1.5.1h1.4c.4,0,.6-.2.6-.6-.3-1.7-.5-3.6-.7-5.5s-.2-3.7-.2-5.5,0-.8,0-1.1.2-.5.3-.7c.2-.2.4-.3.6-.4s.6-.1,1-.1c.8,0,1.5,0,2.2.1.7,0,1.3.2,1.9.3.2,0,.3,0,.5-.1.1-.1.2-.3.2-.5v-1.4c0-.4-.2-.6-.6-.6-.7-.1-1.4-.2-2.2-.3s-1.6-.1-2.3-.1-1.4,0-2,.2c-.5.2-1,.4-1.3.8-.3.4-.6.9-.7,1.5-.1.6-.2,1.3-.2,2.2v2.2h-2.2c-.3,0-.5,0-.6-.1-.1,0-.2-.3-.2-.5v-6.8c0-.4-.2-.6-.6-.6h-1.4c-.4,0-.6.2-.6.6v19.8c0,.4.2.6.6.6h1.4c.4,0,.6-.2.6-.6v-10.2c0,.1.2.2.3.3.1,0,.3.1.5.1h2.2c0,1.1.2,2.2.3,3.3s.3,2.2.4,3.2h.1ZM224.5,267.1c0,.4.2.6.6.6h1.4c.4,0,.6-.2.6-.6v-20.1c0-.4-.2-.6-.6-.6h-1.4c-.4,0-.6.2-.6.6v20.1Z"/>
    <path class="cls-4" d="M203.8,248.4c-.4,0-.6.2-.6.6v1.4c0,.4.2.6.6.6h10.7c.4,0,.6-.2.6-.6v-1.4c0-.4-.2-.6-.6-.6h-4.4c.2-.1.4-.3.4-.6v-1.3c0-.4-.2-.6-.6-.6h-1.6c-.4,0-.6.2-.6.6v1.5c0,.3-.2.4-.5.4h-3.4ZM203.9,258.5c0,1.9.5,3.3,1.4,4.4.9,1,2.2,1.5,3.9,1.5s2.9-.5,3.9-1.5c.9-1,1.4-2.5,1.4-4.4s-.5-3.3-1.4-4.4c-.9-1-2.2-1.5-3.9-1.5s-3,.5-3.9,1.5-1.4,2.5-1.4,4.4ZM209.2,255.2c.8,0,1.4.3,1.8.8s.6,1.4.6,2.4-.2,1.9-.7,2.5c-.4.6-1,.8-1.8.8s-1.4-.3-1.8-.8-.7-1.4-.7-2.5.2-1.9.7-2.4c.4-.5,1.1-.8,1.8-.8h.1ZM198.4,267c0,.4.2.6.6.6h1.5c.4,0,.6-.2.6-.6v-20c0-.4-.2-.6-.6-.6h-1.5c-.4,0-.6.2-.6.6v8.2c-.2-.3-.5-.5-1-.5h-1.4c-.4,0-.6.2-.6.6v1.4c0,.4.2.6.6.6h1.6c.6,0,.8.3.8.8v8.8h0Z"/>
    <path class="cls-4" d="M192.8,257.1h-13.3c-1.4,0-2.5,0-3.4-.2-.4,0-.6.1-.6.6v1.3c0,.4.2.6.6.6s1,0,1.6.1h12.3c1.4,0,2.4,0,3.1-.2.4,0,.6-.3.6-.6v-1.3c0-.4-.2-.6-.6-.6l-.3.3ZM191.7,261.9c0-.4-.3-.6-.7-.6h-1.5c-.2,0-.4,0-.5.2-.1.1-.1.3-.1.5,0,.3,0,.5.1.8v.9c0,1.3-.8,1.9-2.3,1.9h-5.4c-.8,0-1.5,0-2.2-.1s-1.4-.1-2.1-.2c-.4,0-.6.1-.6.6v1.3c-.1.4,0,.6.5.6,1.2.1,2.6.2,4.3.3,1.7,0,3.5.1,5.5.1s2.9-.4,3.8-1.1,1.3-1.8,1.3-3.2,0-.7,0-1,0-.6-.1-.8v-.2ZM191.3,247.5c0-.4-.3-.6-.7-.6h-1.5c-.2,0-.4,0-.5.2,0,.1-.1.3-.1.5v3.7c0,1.3-.8,1.9-2.3,1.9h-4.9c-.7,0-1.4,0-2.1-.1-.7,0-1.4-.1-2.1-.2-.4,0-.6.1-.6.6v1.3c-.1.4,0,.6.5.6,1.2.1,2.6.2,4.2.3s3.3.1,5.2.1,2.8-.4,3.6-1.1,1.2-1.8,1.2-3.2,0-.5,0-.9v-3h0Z"/>
    <path class="cls-4" d="M165.5,249.5c.4,0,.6-.2.6-.6v-1.3c0-.4-.2-.6-.6-.6h-9.8c-.4,0-.6.2-.6.6v1.3c0,.4.2.6.6.6h3.6v1.5c0,.7,0,1.3-.3,1.9-.2.6-.4,1.1-.8,1.5-.3.4-.7.8-1.2,1-.4.2-.9.4-1.5.4s-.6.2-.6.6v1.3c0,.4.2.6.6.6.6,0,1.2,0,1.7-.3.5-.2,1-.5,1.5-.8.4-.3.8-.7,1.1-1.1.3-.4.5-.9.7-1.4.2.5.4.9.7,1.4.3.4.7.8,1.1,1.1.4.3.9.6,1.5.8s1.1.3,1.8.3.6-.2.6-.6v-1.3c0-.4-.2-.6-.6-.6s-1-.1-1.5-.4c-.4-.2-.8-.6-1.2-1-.3-.4-.6-.9-.8-1.5-.2-.6-.3-1.2-.3-1.9v-1.5h3.7ZM163.9,260.9c0-.4-.3-.6-.7-.6h-1.4c-.2,0-.4,0-.5.2-.1.1-.2.3-.1.5v2.4c0,.7-.2,1.3-.6,1.6-.4.4-1,.6-1.8.6h-5.3c-.7,0-1.4,0-2.1-.1-.7,0-1.4-.1-2.1-.2-.4,0-.6.1-.6.6v1.3c-.1.4,0,.6.5.6,1.2.1,2.6.2,4.1.3,1.6,0,3.3.1,5.3.1s3-.4,3.9-1.2c.9-.8,1.4-1.9,1.4-3.3v-1.5c0-.5,0-.9-.1-1.2h.1ZM152.2,247c0-.4-.2-.6-.6-.6h-1.5c-.4,0-.6.2-.6.6v13.5c0,.4.2.6.6.6h1.5c.4,0,.6-.2.6-.6v-7.2c.2.3.5.5,1,.5h1.7c.4,0,.6-.2.6-.6v-1.3c0-.4-.2-.6-.6-.6h-1.8c-.6,0-.8-.3-.8-.8v-3.4h-.1Z"/>
    <path class="cls-4" d="M135.2,257.5c.3.1.6.2,1.1.3.4.1.9.2,1.3.3.5,0,1,.1,1.5.2h1.5c1,0,1.9,0,2.6-.2.7-.1,1.3-.3,1.7-.6.4-.3.8-.7,1-1.1s.3-1,.3-1.7-.1-1.2-.3-1.7c-.2-.5-.6-.8-1-1.1-.5-.3-1.1-.5-1.9-.6s-1.7-.2-2.8-.2-1.8-.3-1.8-1,.1-.5.4-.7c.3-.1.8-.2,1.5-.2h1.9c.8,0,1.7.1,2.7.3.4,0,.6-.1.6-.5v-1.3c0-.2,0-.3-.1-.4s-.2-.2-.5-.2c-.8-.1-1.6-.2-2.4-.3h-2.7c-1.5,0-2.6.2-3.2.6-.6.4-.9.9-.9,1.7s.4,1.8,1.3,2.3h-.6c-.4,0-.5.2-.5.5v1.2c0,.4.2.5.5.5h5c.5,0,.9.1,1.2.2.3,0,.5.2.7.4.1.2.2.3.2.6s0,.4-.2.5c-.1.1-.3.2-.5.3s-.6.1-1,.2h-1.6c-.6,0-1.3,0-2-.2s-1.5-.3-2.1-.6h-.3c-.2,0-.4.1-.4.4l-.3,1.3v.5c0,.1.2.2.4.3h-.3ZM130.1,267.2c0,.4.3.6.7.6h1.4c.2,0,.4,0,.5-.2s.2-.3.1-.5v-2.6c0-.8.2-1.3.5-1.6.3-.3.9-.4,1.7-.4,1.6,0,3.1,0,4.5.1,1.4,0,2.8.2,4.3.3.4,0,.6-.1.6-.6v-1.3c0-.4-.2-.6-.6-.6-1.3-.1-2.7-.2-4.2-.3-1.5,0-3.1-.1-4.9-.1s-2.9.3-3.6.9-1.1,1.6-1.1,2.9v3.3h.1ZM130,253.6c-.2-.3-.5-.5-1-.5h-1.4c-.4,0-.6.2-.6.6v1.3c0,.4.2.6.6.6h1.6c.6,0,.8.3.8.8v1.3c0,.4.2.6.6.6h1.5c.4,0,.6-.2.6-.6v-10.6c0-.4-.2-.6-.6-.6h-1.5c-.4,0-.6.2-.6.6v1.4c-.2-.3-.5-.5-1-.5h-1.4c-.4,0-.6.2-.6.6v1.3c0,.4.2.6.6.6h1.6c.6,0,.8.3.8.8v2.3h0Z"/>
    <path class="cls-4" d="M125,266.5c0-.5-.2-1-.5-1.3s-.8-.5-1.3-.5-1,.2-1.3.5-.5.7-.5,1.3.2.9.5,1.2c.3.3.8.5,1.3.5s1-.2,1.3-.5.5-.7.5-1.2Z"/>
  </g>
  <g>
    <path class="cls-2" d="M365.3,222.1c.2.6.4,1.1.7,1.6.3.5.7.9,1.2,1.3.4.4.9.7,1.5,1,.5.3,1.1.4,1.7.5.4,0,.6-.1.6-.6v-1.4c0-.4-.2-.6-.6-.6s-1-.3-1.4-.6-.8-.7-1.2-1.2c-.3-.5-.6-1.1-.8-1.7-.2-.6-.3-1.3-.3-2v-7.7c0-.4-.2-.6-.6-.6h-1.5c-.4,0-.6.2-.6.6v7.7c0,.7,0,1.4-.3,2-.2.6-.5,1.2-.8,1.7s-.7.9-1.2,1.2c-.4.3-.9.5-1.4.6-.4,0-.6.3-.6.6v1.4c0,.4.2.6.6.6.6,0,1.1-.2,1.7-.5.5-.3,1-.6,1.5-1,.4-.4.8-.8,1.2-1.3.3-.5.6-1,.7-1.6h0ZM356.8,209c0-.4-.2-.6-.6-.6h-1.5c-.4,0-.6.2-.6.6v20c0,.4.2.6.6.6h1.5c.4,0,.6-.2.6-.6v-20Z"/>
    <path class="cls-2" d="M343.8,219.5c-.1-.5-.2-1-.3-1.5s-.2-1.1-.3-1.6-.2-1-.2-1.5v-1.3c0-1.3.7-2,2-2h3c.4,0,.7,0,1.1.1.3,0,.7.1,1.1.2.2,0,.3,0,.5-.1s.2-.3.2-.5v-1.4c0-.4-.2-.6-.6-.6-.9-.1-1.8-.2-2.6-.3-.8-.1-1.7-.1-2.7-.1-1.6,0-2.8.4-3.5,1.1-.7.7-1.1,1.9-1.1,3.6s0,.8,0,1.3.1,1,.2,1.5.2,1.1.3,1.6.2,1.1.3,1.5c0,.2.1.4.3.5.1,0,.3.1.5.1h1.5c.2,0,.4,0,.5-.2,0-.1.1-.3,0-.5h-.2ZM348.7,222.9c0-.4-.3-.6-.7-.6h-1.4c-.2,0-.4,0-.5.2-.1.1-.2.3-.1.5v2.4c0,.7-.2,1.3-.6,1.6-.4.4-1,.6-1.8.6h-4.9c-.7,0-1.4,0-2-.1-.6,0-1.3-.1-2-.2-.4,0-.6.1-.6.6v1.3c-.1.4,0,.6.5.6,1.2.1,2.5.2,4,.3,1.5,0,3.1.1,5,.1s3-.4,3.9-1.2,1.4-1.9,1.4-3.3v-1.5c0-.5,0-.9,0-1.2h0ZM334.6,222.5c0,.4.2.6.6.6h1.5c.4,0,.6-.2.6-.6v-13.5c0-.4-.2-.6-.6-.6h-1.5c-.4,0-.6.2-.6.6v5.6c-.2-.3-.5-.5-1-.5h-1.4c-.4,0-.6.2-.6.6v1.3c0,.4.2.6.6.6h1.6c.6,0,.8.3.8.8v5.1h0Z"/>
    <path class="cls-2" d="M327.9,226.8c-.6,0-1,.2-1.3.5s-.5.8-.5,1.4c0,1,.3,1.7.9,2.3.6.6,1.3.8,2.2.8s.2,0,.2-.3v-.5c0-.2,0-.3-.2-.3-.5,0-.8-.2-1-.6.4,0,.8-.2,1.1-.6.3-.3.4-.7.4-1.2s-.2-.9-.5-1.3-.8-.5-1.3-.5v.3Z"/>
    <path class="cls-2" d="M316.7,211.5c.4,0,.6-.2.6-.6v-1.3c0-.4-.2-.6-.6-.6h-9.8c-.4,0-.6.2-.6.6v1.3c0,.4.2.6.6.6h3.6v.7c0,.6,0,1.2-.3,1.8-.2.6-.4,1-.8,1.4-.3.4-.7.7-1.2.9s-.9.3-1.5.3-.6.2-.6.6v1.3c0,.4.2.6.6.6.6,0,1.2,0,1.8-.3s1-.4,1.5-.8c.4-.3.8-.7,1.1-1.1.3-.4.5-.9.7-1.3.2.5.4.9.7,1.3.3.4.7.8,1.1,1.1.4.3.9.6,1.5.8s1.1.3,1.8.3.6-.2.6-.6v-1.3c0-.4-.2-.6-.6-.6s-1-.1-1.5-.3-.8-.5-1.2-.9c-.3-.4-.6-.9-.8-1.4-.2-.6-.3-1.1-.3-1.8v-.7h3.6ZM315.7,225.5c0-3-2.5-4.6-7.6-4.6s-7.6,1.5-7.6,4.6,2.5,4.6,7.6,4.6,7.6-1.5,7.6-4.6ZM312.9,225.5c0,.3,0,.6-.2.9-.2.2-.4.5-.8.6-.4.2-.9.3-1.5.4-.6,0-1.4.1-2.3.1s-1.7,0-2.3-.1c-.6,0-1.1-.2-1.5-.4s-.6-.4-.8-.6c-.2-.2-.2-.5-.2-.9s0-.6.2-.9c.2-.2.4-.5.8-.6.4-.2.9-.3,1.5-.4.6,0,1.4-.1,2.3-.1s1.7,0,2.3.1c.6,0,1.1.2,1.5.4s.6.4.8.6c.2.2.2.5.2.9ZM301,219.2c0,.4.2.6.6.6h1.5c.4,0,.6-.2.6-.6v-10.1c0-.4-.2-.6-.6-.6h-1.5c-.4,0-.6.2-.6.6v3.9c-.2-.3-.5-.5-1-.5h-1.4c-.4,0-.6.2-.6.6v1.3c0,.4.2.6.6.6h1.6c.6,0,.8.3.8.8v3.4h0Z"/>
    <path class="cls-2" d="M295.5,227.4c.4,0,.6-.3.6-.6v-1.3c0-.4-.2-.6-.6-.6s-.9,0-1.5.1c-.6,0-1.2,0-1.9.1s-1.4,0-2.1.1h-2.1c.2,0,.3-.2.4-.4.1-.2.2-.4.2-.6v-2.8c0-.4-.2-.6-.6-.6h-1.5c-.4,0-.6.2-.6.6v3c0,.5-.3.7-.8.7h-3.3c-.5,0-1.1,0-1.6-.1-.5,0-1,0-1.4-.1-.4,0-.6.1-.6.6v1.3c0,.4.2.6.6.6s.9.1,1.5.2c.6,0,1.3,0,2,.1h5c3.8,0,6.6-.1,8.4-.4h0ZM286.9,217.4c.3.6.6,1.1,1.1,1.6s1,.9,1.5,1.3c.6.4,1.2.6,1.9.8s1.4.3,2.1.3.4,0,.6,0,.3-.2.3-.5v-1.5c0-.4-.2-.6-.6-.6-.8,0-1.5-.1-2.2-.4-.7-.3-1.2-.6-1.7-1.1-.5-.4-.9-1-1.1-1.6-.3-.6-.4-1.3-.4-2v-3.4c0-.4-.2-.6-.6-.6h-1.5c-.4,0-.6.2-.6.6v3.4c0,.7-.1,1.4-.4,2-.3.6-.6,1.1-1.1,1.6-.5.4-1.1.8-1.7,1.1-.7.3-1.4.4-2.2.4s-.6.2-.6.6v1.5c0,.3,0,.5.3.5h.6c.7,0,1.4,0,2.1-.3.7-.2,1.3-.5,1.9-.8.6-.4,1.1-.8,1.5-1.3s.8-1,1.1-1.6h-.3Z"/>
    <path class="cls-2" d="M273.4,226.8c-.6,0-1,.2-1.3.5s-.5.8-.5,1.4c0,1,.3,1.7.9,2.3.6.6,1.3.8,2.2.8s.2,0,.2-.3v-.5c0-.2,0-.3-.2-.3-.5,0-.8-.2-1-.6.4,0,.8-.2,1.1-.6.3-.3.4-.7.4-1.2s-.2-.9-.5-1.3-.8-.5-1.3-.5v.3Z"/>
    <path class="cls-2" d="M258.4,223.7c.7,0,1.3,0,1.9-.1.6,0,1.1-.1,1.6-.2.4,0,.6-.3.6-.7v-1.3c0-.4-.2-.6-.6-.6-1.2.1-2.4.2-3.8.3-1.4,0-2.9.1-4.6.1h-4.8c-1.5,0-2.7-.2-3.6-.3-.4,0-.6.1-.6.6v1.3c0,.4.2.6.6.7h2.2c.3,0,.5,0,.6.2.1,0,.2.3.2.6v3.7c0,.4.2.6.6.6h1.5c.4,0,.6-.2.6-.6v-3.4c0-.5-.2-.8-.6-1h5.4c.6,0,.8.2.8.7v3.6c0,.4.2.6.6.6h1.5c.4,0,.6-.2.6-.6v-3.4c0-.3,0-.5-.2-.7-.1-.2-.3-.3-.5-.4v.3ZM260.7,214c0-3.5-2.5-5.3-7.5-5.3s-7.5,1.8-7.5,5.3,2.5,5.3,7.5,5.3,7.5-1.8,7.5-5.3ZM253.2,216.7c-1.6,0-2.8-.2-3.6-.7-.8-.4-1.2-1.1-1.2-2.1s.4-1.6,1.1-2.1c.8-.4,2-.6,3.6-.6s2.8.2,3.6.6c.8.4,1.1,1.1,1.1,2.1s-.4,1.6-1.2,2.1c-.8.4-2,.7-3.6.7h.2Z"/>
    <path class="cls-2" d="M226.1,212.2c-.3,0-.5.2-.5.5v1.1c0,.4.2.5.5.5,1.3,0,2.5-.1,3.6-.1h6.7c.4,0,.5.1.6.2.1,0,.2.2.2.3s0,.3-.2.4c-.1.1-.3.2-.7.3-.3,0-.8.1-1.4.1h-6.3c-1.1,0-2-.1-2.9-.2-.4,0-.6.1-.6.5v1.1c0,.3,0,.5.5.6.9.1,1.8.2,2.7.2h2.9v.8c0,.4-.2.6-.6.6h-4.9c-.6,0-1.1,0-1.5-.1-.4,0-.6.1-.6.6v1.2c0,.2,0,.4.1.4,0,0,.2.1.4.2.4,0,1,0,1.6.1h12.4c1.4,0,2.4,0,3.1-.2.4,0,.6-.3.6-.6v-1.2c0-.4-.2-.6-.6-.6h-7.4c.2-.1.4-.3.4-.6v-.8c1.2,0,2.2,0,3-.2.8-.1,1.4-.3,1.8-.5.4-.2.8-.5.9-.9.2-.4.3-.8.3-1.3s-.1-1-.3-1.3c-.2-.4-.6-.7-1.2-.9-.6-.2-1.3-.4-2.3-.5-1,0-2.2-.1-3.6-.1h-3.7c-1.1,0-2,0-2.8.1l-.2.3ZM240.2,226.3c0-1.3-.6-2.3-1.9-2.9-1.3-.6-3.3-.9-5.9-.9s-4.6.3-5.9.9c-1.3.6-1.9,1.5-1.9,2.9s.6,2.3,1.9,2.9,3.3.9,5.9.9,4.6-.3,5.9-.9c1.3-.6,1.9-1.5,1.9-2.9ZM226.1,208.9c-.4,0-.6.2-.6.6v1.1c0,.4.2.6.6.6h13.1c.4,0,.6-.2.6-.6v-1.1c0-.4-.2-.6-.6-.6h-13.1ZM237.5,226.3c0,.6-.4,1-1.2,1.2s-2.1.3-3.9.3-3.1-.1-3.9-.3c-.8-.2-1.2-.6-1.2-1.2s.4-1,1.2-1.2,2.1-.3,3.9-.3,3.1.1,3.9.3c.8.2,1.2.6,1.2,1.2Z"/>
    <path class="cls-2" d="M208.3,210c0,.3-.2.4-.5.4h-2.5c-.4,0-.6.2-.6.6v1.4c0,.4.2.6.6.6h3v5.9c0,1.5-.3,2.6-.9,3.4-.6.8-1.3,1.3-2.3,1.4-.2,0-.4,0-.5.2s-.1.2-.1.4v1.4c0,.4.2.6.6.6,1.1-.1,2-.5,2.8-1.1s1.4-1.4,1.7-2.5c.3,1,.9,1.8,1.7,2.5.8.6,1.7,1,2.8,1.1.4,0,.6-.2.6-.6v-1.4c0-.2,0-.4-.1-.4,0,0-.2-.1-.5-.2-.9-.1-1.7-.6-2.3-1.4-.6-.8-.9-2-.9-3.4v-5.9h3c.4,0,.6-.2.6-.6v-1.4c0-.4-.2-.6-.6-.6h-3.4c.2-.1.4-.3.4-.6v-1.3c0-.4-.2-.6-.6-.6h-1.4c-.4,0-.6.2-.6.6v1.5h0ZM195.5,229.1c0,.4.2.6.6.6h1.4c.4,0,.6-.2.6-.6v-9.6h1.4c.3,0,.5,0,.6.1.1,0,.2.3.2.5v9c0,.4.2.6.6.6h1.4c.4,0,.6-.2.6-.6v-19.8c0-.4-.2-.6-.6-.6h-1.4c-.4,0-.6.2-.6.6v8c-.2-.3-.4-.4-.8-.4h-1.3v-7.8c0-.4-.2-.6-.6-.6h-1.4c-.4,0-.6.2-.6.6v20.1h-.1Z"/>
    <path class="cls-2" d="M181.7,217.9c.4.1.8.2,1.3.3.5,0,1,.2,1.5.3.5,0,1,.1,1.5.2s.9,0,1.4,0c1.6,0,2.8-.4,3.6-1.1.8-.8,1.2-1.9,1.2-3.3s0-1.6-.1-2.4c0-.7-.2-1.5-.4-2.3,0-.4-.3-.6-.7-.6h-1.5c-.2,0-.4,0-.5.2-.1.1-.1.3,0,.5.2.8.3,1.6.4,2.4s.1,1.6.1,2.2-.2,1.2-.5,1.5c-.4.3-.9.5-1.7.5h-1c-.4,0-.8,0-1.3-.2-.4,0-.9-.2-1.3-.3s-.9-.2-1.2-.3c-.3-.1-.6,0-.7.5l-.4,1.3c0,.4,0,.6.5.8l-.2-.2ZM175.4,229.6c.5,0,1,.1,1.6.2.6,0,1.1,0,1.7.1s1.1,0,1.6,0h1.4c1.7,0,3.1,0,4.2-.1,1.1,0,2-.3,2.7-.5s1.1-.6,1.4-1,.4-.9.4-1.6-.1-1.1-.4-1.5c-.2-.4-.6-.7-1.2-1-.6-.2-1.3-.4-2.3-.5-.9,0-2.1-.1-3.5-.1h-3.8c-.7,0-1.2-.3-1.2-.8s.4-.8,1.2-.8h5c1,0,1.9,0,2.8.1s1.7,0,2.4.1c.4,0,.6-.2.6-.6v-1.2c0-.4-.2-.5-.6-.6-.9,0-1.9-.1-2.9-.2h-9c-.8,0-1.3.2-1.6.5-.3.3-.5.8-.5,1.4s.1.9.4,1.3c.3.4.7.7,1.1.8h-.8c-.4,0-.5.2-.5.5v1.1c0,.4.2.5.5.5h9.4c.6,0,1.1,0,1.4.1.3,0,.6.1.7.3.1.1.2.3.2.5s0,.4-.2.5-.4.2-.9.3-1,.1-1.8.1h-6c-.6,0-1.1,0-1.7-.1-.6,0-1.1-.1-1.5-.2-.4,0-.6.1-.6.5v1.2c0,.4,0,.6.4.6h-.1ZM178.3,209c0-.4-.2-.6-.6-.6h-1.5c-.4,0-.6.2-.6.6v8.9c0,.4.2.6.6.6h1.5c.4,0,.6-.2.6-.6v-4.9c.2.3.5.5,1,.5h4c.4,0,.6-.2.6-.6v-1.3c0-.4-.2-.6-.6-.6h-4.1c-.6,0-.8-.3-.8-.8v-1.2h-.1Z"/>
    <path class="cls-2" d="M163.1,219.3c0,2.6.5,4.5,1.3,5.7s1.9,1.8,3.5,1.8,2.8-.7,3.6-2.1,1.2-3.6,1.2-6.5-.4-5.2-1.2-6.5-2-2.1-3.6-2.1-2.6.6-3.4,1.7c-.8,1.1-1.2,2.9-1.4,5.3h-2c-.3,0-.5,0-.6-.1-.1,0-.2-.3-.2-.5v-6.8c0-.4-.2-.6-.6-.6h-1.4c-.4,0-.6.2-.6.6v19.8c0,.4.2.6.6.6h1.4c.4,0,.6-.2.6-.6v-10.2c0,.1.2.2.3.3.1,0,.3.1.5.1h2ZM167.9,212.3c.7,0,1.3.5,1.6,1.4.3.9.5,2.5.5,4.5s-.2,3.6-.5,4.6-.9,1.4-1.6,1.4-1.3-.5-1.6-1.4c-.3-.9-.5-2.5-.5-4.6s.2-3.6.5-4.6c.3-.9.9-1.4,1.6-1.4h0ZM153.6,229.1c0,.4.2.6.6.6h1.4c.4,0,.6-.2.6-.6v-20.1c0-.4-.2-.6-.6-.6h-1.4c-.4,0-.6.2-.6.6v20.1Z"/>
    <path class="cls-2" d="M137.2,223.6h0c.5-1.4.7-3.1.7-5.3s0-2.8-.2-3.9c-.2-1.1-.4-1.9-.8-2.6-.3-.7-.8-1.1-1.4-1.5-.6-.3-1.2-.5-2-.5s-.5,0-.7,0h-.6c-.2,0-.4,0-.5.2,0,0-.1.2-.1.5v1.4c0,.4.2.6.6.6h1c.4,0,.7,0,1,.2s.5.5.6.9c.2.4.3,1,.3,1.8v2.9c0,1.2,0,2-.1,2.7,0,.7-.2,1.3-.3,1.8-.2.4-.4.8-.6.9-.3.2-.6.3-1,.3s-.9,0-1.4-.3h-.2c-.2,0-.4.2-.4.5l-.2,1.4c0,.4.1.6.5.7.4.1.7.2,1,.3h1.1c1.2,0,2.2-.5,3-1.6v.4c-.1.4,0,.6.4.7.5.2.9.3,1.3.4.4,0,.8.1,1.2.1,1.5,0,2.6-.7,3.4-2.1s1.2-3.5,1.2-6.2,0-2.8-.2-3.9c-.2-1.1-.4-1.9-.8-2.6-.4-.7-.8-1.1-1.4-1.5-.6-.3-1.2-.5-2-.5s-.4,0-.6,0h-.6c-.2,0-.4,0-.5.2,0,0-.1.2-.1.5v1.4c0,.4.2.6.6.6h.9c.4,0,.7,0,1,.2s.5.5.6.9.2,1,.3,1.8v2.9c0,1.2,0,1.9-.1,2.7,0,.7-.2,1.3-.4,1.8-.2.5-.4.8-.7,1s-.7.3-1.1.3-1.1-.1-1.8-.4h.1ZM127,229c0,.4.2.6.6.6h1.5c.4,0,.6-.2.6-.6v-20c0-.4-.2-.6-.6-.6h-1.5c-.4,0-.6.2-.6.6v8.2c-.2-.3-.5-.5-1-.5h-.9c-.4,0-.6.2-.6.6v1.4c0,.4.2.6.6.6h1.1c.6,0,.8.3.8.8v8.8h0Z"/>
    <path class="cls-2" d="M116.4,224c-1.3,0-2.6-.3-4-.9h-.3c-.2,0-.3.1-.4.4l-.4,1.4c-.1.4,0,.6.4.7,1,.3,1.9.6,2.7.7.8.2,1.7.2,2.5.2,3.8,0,5.7-1.7,5.7-5s-.5-2.9-1.4-3.6c-.9-.8-2.4-1.2-4.3-1.2s-1.3-.2-1.6-.5-.5-.9-.5-1.6.2-1.3.5-1.7c.4-.3.9-.5,1.8-.5s2.3.1,4.2.4c.4,0,.6-.1.6-.5v-1.5c0-.4-.2-.6-.6-.6s-.8-.1-1.2-.2h-3.8c-2.9,0-4.4,1.2-4.4,3.5s.1,1.4.4,2,.6,1.1,1.1,1.5h-.8c-.4,0-.6.2-.6.6v1.3c0,.4.2.6.6.6h3.3c1.4,0,2.4.2,3,.5.6.4.9,1,.9,1.8s-.3,1.5-.8,1.8c-.5.4-1.4.5-2.7.5h0ZM106.6,229c0,.4.2.6.6.6h1.5c.4,0,.6-.2.6-.6v-20c0-.4-.2-.6-.6-.6h-1.5c-.4,0-.6.2-.6.6v8.2c-.2-.3-.5-.5-1-.5h-1.4c-.4,0-.6.2-.6.6v1.4c0,.4.2.6.6.6h1.6c.6,0,.8.3.8.8v8.8h0Z"/>
  </g>
  <g>
    <path class="cls-2" d="M343.6,263.8c0,.4.3.6.7.6h1.5c.2,0,.4,0,.5-.2.1-.1.1-.3.1-.5-.3-1.7-.6-3.5-.7-5.2-.1-1.7-.2-3.5-.2-5.2s.2-1.7.6-2.1,1-.6,1.9-.6,1.7,0,2.4.1c.7,0,1.5.2,2.3.3.2,0,.3,0,.5-.1s.2-.3.2-.5v-1.4c0-.4-.2-.6-.6-.6-.9-.1-1.8-.2-2.7-.3-.9,0-1.7-.1-2.6-.1s-1.6,0-2.2.3c-.6.2-1.1.5-1.5.9s-.7.9-.8,1.6-.3,1.4-.3,2.4c0,1.9,0,3.7.2,5.5.1,1.7.4,3.5.7,5.3v-.2ZM337.2,267c0,.4.2.6.6.6h1.5c.4,0,.6-.2.6-.6v-20c0-.4-.2-.6-.6-.6h-1.5c-.4,0-.6.2-.6.6v8.2c-.2-.3-.5-.5-1-.5h-1.4c-.4,0-.6.2-.6.6v1.4c0,.4.2.6.6.6h1.6c.6,0,.8.3.8.8v8.8h0Z"/>
    <path class="cls-2" d="M326,257c-.1-.4-.2-.9-.3-1.4s-.2-1-.3-1.5c0-.5-.2-1-.2-1.5v-1.2c0-.7.2-1.1.5-1.4.3-.3.8-.4,1.4-.4h2.9c.4,0,.7,0,1.1.1.3,0,.7.1,1.1.2.2,0,.3,0,.5-.1.1-.1.2-.3.2-.5v-1.4c0-.4-.2-.6-.6-.6-.9-.1-1.8-.2-2.6-.3s-1.7-.1-2.6-.1c-1.6,0-2.8.4-3.5,1.1-.7.7-1,1.9-1,3.5s0,.7,0,1.2.1,1,.2,1.5c0,.5.2,1,.3,1.5s.2,1,.3,1.4.1.4.2.4c0,0,.2.1.5.1h1.5c.2,0,.4,0,.5-.2.1-.1.1-.3,0-.5h0ZM316,267.2c0,.4.3.6.7.6h1.4c.2,0,.4,0,.5-.2s.2-.3.1-.5v-3.1c0-.8.2-1.3.5-1.6.3-.3.9-.4,1.7-.4,1.7,0,3.3,0,4.8.1,1.5,0,3,.2,4.5.3.4,0,.6-.1.6-.6v-1.3c0-.4-.2-.6-.6-.6-1.3-.1-2.7-.2-4.3-.3-1.6,0-3.3-.1-5.3-.1s-2.9.3-3.6.9c-.7.6-1.1,1.6-1.1,2.9v3.8h.1ZM315.8,257.2c0,.4.2.6.6.6h1.5c.4,0,.6-.2.6-.6v-1.5c.2.3.5.5,1,.5h1.3c.4,0,.6-.2.6-.6v-1.3c0-.4-.2-.6-.6-.6h-1.7c-.2,0-.4,0-.5-.2s-.1-.3-.1-.5v-2.3c.2.3.5.5,1,.5h1.3c.4,0,.6-.2.6-.6v-1.3c0-.4-.2-.6-.6-.6h-1.7c-.2,0-.4,0-.5-.2s-.1-.3-.1-.5v-.9c0-.4-.2-.6-.6-.6h-1.5c-.4,0-.6.2-.6.6v10.1h0Z"/>
    <path class="cls-2" d="M294.9,254.9c-.4,0-.6.1-.6.5v1.2c0,.4.2.6.6.6s1,0,1.6.1h12.4c1.4,0,2.4,0,3.1-.2.4,0,.6-.2.6-.6v-1.2c0-.4-.2-.6-.6-.5h-13.4c-1.4,0-2.5,0-3.5-.2l-.2.3ZM295.7,267.6c.4,0,.9.1,1.5.2.6,0,1.1,0,1.7.1h3.2c1.7,0,3.2,0,4.3-.1s2-.2,2.6-.5c.6-.2,1.1-.5,1.3-.9s.4-.9.4-1.5-.1-1.1-.3-1.4c-.2-.4-.6-.7-1.2-.9s-1.3-.4-2.2-.5-2.1-.1-3.5-.1h-3.9c-.4,0-.8,0-.9-.2-.2,0-.3-.3-.3-.5s0-.5.3-.6c.2-.1.5-.2.9-.2h5c1,0,1.9,0,2.8.1.9,0,1.7,0,2.4.1.4,0,.5-.2.5-.6v-1.1c0-.4-.2-.5-.5-.6-.9,0-1.9-.1-3-.2h-9c-.8,0-1.4.2-1.7.5s-.5.7-.5,1.3.1.9.4,1.3c.3.4.7.6,1.1.8h-.9c-.3,0-.5.2-.5.5v1c0,.4.2.6.5.5h9.5c.6,0,1,0,1.4.1.3,0,.5.1.6.3,0,.1.1.3.1.4s0,.4-.2.5-.4.2-.9.3-1,0-1.8,0h-6.2c-.6,0-1.1,0-1.7-.1s-1.1-.1-1.5-.2c-.4,0-.5.1-.6.5v1.1c0,.4,0,.6.4.6h.4ZM310.6,250.4c0-.7-.1-1.2-.4-1.7-.3-.5-.7-.9-1.3-1.2s-1.4-.5-2.3-.6c-1-.1-2.1-.2-3.4-.2s-2.5,0-3.4.2c-1,.1-1.7.4-2.3.6-.6.3-1,.7-1.3,1.2s-.4,1-.4,1.7.1,1.2.4,1.7c.3.5.7.9,1.3,1.2s1.4.5,2.3.6,2.1.2,3.4.2,2.5,0,3.4-.2,1.7-.4,2.3-.6c.6-.3,1-.7,1.3-1.2s.4-1,.4-1.7ZM307.9,250.4c0,.3,0,.5-.2.7s-.4.3-.8.5c-.4.1-.9.2-1.5.3h-4.6c-.6,0-1.1-.1-1.5-.3-.4-.1-.6-.3-.8-.5s-.2-.4-.2-.7,0-.5.2-.7.4-.3.8-.5.9-.2,1.5-.3,1.4,0,2.3,0h2.3c.6,0,1.1.1,1.5.3s.6.3.8.5.2.4.2.7Z"/>
    <path class="cls-2" d="M282.2,256.3c0,1.9-.3,3.4-1,4.3-.6.9-1.6,1.4-2.9,1.4s-2.3-.3-3.6-.9h-.2c-.2,0-.3.2-.5.5l-.4,1.4c-.1.3,0,.6.5.8.8.3,1.5.5,2.2.7s1.4.2,2.1.2c2.2,0,3.8-.7,4.9-2.1s1.6-3.5,1.6-6.2-.6-5-1.7-6.4c-1.1-1.3-2.8-2-5-2s-1.3,0-1.8,0-1,0-1.4.2c-.2,0-.4,0-.5.2s-.1.2-.1.4v1.4c0,.4.2.6.6.6s.9-.1,1.4-.2,1,0,1.6,0,1.4.1,1.9.3,1,.5,1.3,1,.6,1,.7,1.8.2,1.6.2,2.7h0ZM268.8,267c0,.4.2.6.6.6h1.5c.4,0,.6-.2.6-.6v-20c0-.4-.2-.6-.6-.6h-1.5c-.4,0-.6.2-.6.6v8.2c-.2-.3-.5-.5-1-.5h-1.4c-.4,0-.6.2-.6.6v1.4c0,.4.2.6.6.6h1.6c.6,0,.8.3.8.8v8.8h0Z"/>
    <path class="cls-2" d="M263.3,262.8c-1.2.1-2.4.2-3.8.3-1.4,0-2.9.1-4.6.1h-4.8c-1.5,0-2.7-.2-3.6-.3-.4,0-.6.1-.6.6v1.3c0,.4.2.6.6.6s.9.1,1.5.2c.6,0,1.3,0,2,.1h5c3.8,0,6.6-.1,8.4-.4.4,0,.6-.3.6-.6v-1.3c0-.4-.2-.6-.6-.6h0ZM248.3,252.5c-.4,0-.5.2-.5.5v1.2c0,.4.2.6.5.6h8.6c.6,0,1,.1,1.3.2.3,0,.6.2.7.4.1.2.2.4.2.6s0,.5-.2.6c-.2.2-.4.3-.9.4-.4,0-1,.2-1.7.2h-2.9c-1.2,0-1.9,0-2.9-.1-1,0-1.9-.2-2.8-.3-.3,0-.5.1-.6.5l-.2,1.4v.4c0,.1.2.2.4.2,1,.1,2,.3,3.1.3s2.1.1,2.9.1c1.7,0,3,0,4.1-.2,1.1-.1,2-.3,2.6-.6.6-.3,1.1-.7,1.4-1.2.3-.5.4-1.1.4-1.9s-.1-1.3-.3-1.8-.6-.8-1.2-1.1c-.5-.3-1.3-.5-2.2-.6s-2-.2-3.4-.2h-3c-1,0-1.6-.4-1.6-1.2s.1-.7.3-.8c.2-.2.6-.2,1.2-.2h4.8c.8,0,1.5,0,2.3.1.7,0,1.4.1,2,.2.4,0,.6-.1.6-.5v-1.4c0-.3-.2-.5-.5-.6-1-.1-2.2-.3-3.6-.3s-2.8-.1-4.2-.1h-2.9c-1.8,0-2.7.8-2.7,2.3s.2,1.2.5,1.7.8.8,1.3,1h-1.1l.2.2Z"/>
    <path class="cls-2" d="M235.1,263.8c0,.2,0,.4.2.5,0,0,.2.1.5.1h1.4c.4,0,.6-.2.6-.6-.3-1.7-.5-3.6-.7-5.5s-.2-3.7-.2-5.5,0-.8,0-1.1.2-.5.3-.7c.2-.2.4-.3.6-.4s.6-.1,1-.1c.8,0,1.5,0,2.2.1.7,0,1.3.2,1.9.3.2,0,.3,0,.5-.1.1-.1.2-.3.2-.5v-1.4c0-.4-.2-.6-.6-.6-.7-.1-1.4-.2-2.2-.3s-1.6-.1-2.3-.1-1.4,0-2,.2c-.5.2-1,.4-1.3.8-.3.4-.6.9-.7,1.5-.1.6-.2,1.3-.2,2.2v2.2h-2.2c-.3,0-.5,0-.6-.1-.1,0-.2-.3-.2-.5v-6.8c0-.4-.2-.6-.6-.6h-1.4c-.4,0-.6.2-.6.6v19.8c0,.4.2.6.6.6h1.4c.4,0,.6-.2.6-.6v-10.2c0,.1.2.2.3.3.1,0,.3.1.5.1h2.2c0,1.1.2,2.2.3,3.3s.3,2.2.4,3.2h.1ZM224.5,267.1c0,.4.2.6.6.6h1.4c.4,0,.6-.2.6-.6v-20.1c0-.4-.2-.6-.6-.6h-1.4c-.4,0-.6.2-.6.6v20.1Z"/>
    <path class="cls-2" d="M203.8,248.4c-.4,0-.6.2-.6.6v1.4c0,.4.2.6.6.6h10.7c.4,0,.6-.2.6-.6v-1.4c0-.4-.2-.6-.6-.6h-4.4c.2-.1.4-.3.4-.6v-1.3c0-.4-.2-.6-.6-.6h-1.6c-.4,0-.6.2-.6.6v1.5c0,.3-.2.4-.5.4h-3.4ZM203.9,258.5c0,1.9.5,3.3,1.4,4.4.9,1,2.2,1.5,3.9,1.5s2.9-.5,3.9-1.5c.9-1,1.4-2.5,1.4-4.4s-.5-3.3-1.4-4.4c-.9-1-2.2-1.5-3.9-1.5s-3,.5-3.9,1.5-1.4,2.5-1.4,4.4ZM209.2,255.2c.8,0,1.4.3,1.8.8s.6,1.4.6,2.4-.2,1.9-.7,2.5c-.4.6-1,.8-1.8.8s-1.4-.3-1.8-.8-.7-1.4-.7-2.5.2-1.9.7-2.4c.4-.5,1.1-.8,1.8-.8h.1ZM198.4,267c0,.4.2.6.6.6h1.5c.4,0,.6-.2.6-.6v-20c0-.4-.2-.6-.6-.6h-1.5c-.4,0-.6.2-.6.6v8.2c-.2-.3-.5-.5-1-.5h-1.4c-.4,0-.6.2-.6.6v1.4c0,.4.2.6.6.6h1.6c.6,0,.8.3.8.8v8.8h0Z"/>
    <path class="cls-2" d="M192.8,257.1h-13.3c-1.4,0-2.5,0-3.4-.2-.4,0-.6.1-.6.6v1.3c0,.4.2.6.6.6s1,0,1.6.1h12.3c1.4,0,2.4,0,3.1-.2.4,0,.6-.3.6-.6v-1.3c0-.4-.2-.6-.6-.6l-.3.3ZM191.7,261.9c0-.4-.3-.6-.7-.6h-1.5c-.2,0-.4,0-.5.2-.1.1-.1.3-.1.5,0,.3,0,.5.1.8v.9c0,1.3-.8,1.9-2.3,1.9h-5.4c-.8,0-1.5,0-2.2-.1s-1.4-.1-2.1-.2c-.4,0-.6.1-.6.6v1.3c-.1.4,0,.6.5.6,1.2.1,2.6.2,4.3.3,1.7,0,3.5.1,5.5.1s2.9-.4,3.8-1.1,1.3-1.8,1.3-3.2,0-.7,0-1,0-.6-.1-.8v-.2ZM191.3,247.5c0-.4-.3-.6-.7-.6h-1.5c-.2,0-.4,0-.5.2,0,.1-.1.3-.1.5v3.7c0,1.3-.8,1.9-2.3,1.9h-4.9c-.7,0-1.4,0-2.1-.1-.7,0-1.4-.1-2.1-.2-.4,0-.6.1-.6.6v1.3c-.1.4,0,.6.5.6,1.2.1,2.6.2,4.2.3s3.3.1,5.2.1,2.8-.4,3.6-1.1,1.2-1.8,1.2-3.2,0-.5,0-.9v-3h0Z"/>
    <path class="cls-2" d="M165.5,249.5c.4,0,.6-.2.6-.6v-1.3c0-.4-.2-.6-.6-.6h-9.8c-.4,0-.6.2-.6.6v1.3c0,.4.2.6.6.6h3.6v1.5c0,.7,0,1.3-.3,1.9-.2.6-.4,1.1-.8,1.5-.3.4-.7.8-1.2,1-.4.2-.9.4-1.5.4s-.6.2-.6.6v1.3c0,.4.2.6.6.6.6,0,1.2,0,1.7-.3.5-.2,1-.5,1.5-.8.4-.3.8-.7,1.1-1.1.3-.4.5-.9.7-1.4.2.5.4.9.7,1.4.3.4.7.8,1.1,1.1.4.3.9.6,1.5.8s1.1.3,1.8.3.6-.2.6-.6v-1.3c0-.4-.2-.6-.6-.6s-1-.1-1.5-.4c-.4-.2-.8-.6-1.2-1-.3-.4-.6-.9-.8-1.5-.2-.6-.3-1.2-.3-1.9v-1.5h3.7ZM163.9,260.9c0-.4-.3-.6-.7-.6h-1.4c-.2,0-.4,0-.5.2-.1.1-.2.3-.1.5v2.4c0,.7-.2,1.3-.6,1.6-.4.4-1,.6-1.8.6h-5.3c-.7,0-1.4,0-2.1-.1-.7,0-1.4-.1-2.1-.2-.4,0-.6.1-.6.6v1.3c-.1.4,0,.6.5.6,1.2.1,2.6.2,4.1.3,1.6,0,3.3.1,5.3.1s3-.4,3.9-1.2c.9-.8,1.4-1.9,1.4-3.3v-1.5c0-.5,0-.9-.1-1.2h.1ZM152.2,247c0-.4-.2-.6-.6-.6h-1.5c-.4,0-.6.2-.6.6v13.5c0,.4.2.6.6.6h1.5c.4,0,.6-.2.6-.6v-7.2c.2.3.5.5,1,.5h1.7c.4,0,.6-.2.6-.6v-1.3c0-.4-.2-.6-.6-.6h-1.8c-.6,0-.8-.3-.8-.8v-3.4h-.1Z"/>
    <path class="cls-2" d="M135.2,257.5c.3.1.6.2,1.1.3.4.1.9.2,1.3.3.5,0,1,.1,1.5.2h1.5c1,0,1.9,0,2.6-.2.7-.1,1.3-.3,1.7-.6.4-.3.8-.7,1-1.1s.3-1,.3-1.7-.1-1.2-.3-1.7c-.2-.5-.6-.8-1-1.1-.5-.3-1.1-.5-1.9-.6s-1.7-.2-2.8-.2-1.8-.3-1.8-1,.1-.5.4-.7c.3-.1.8-.2,1.5-.2h1.9c.8,0,1.7.1,2.7.3.4,0,.6-.1.6-.5v-1.3c0-.2,0-.3-.1-.4s-.2-.2-.5-.2c-.8-.1-1.6-.2-2.4-.3h-2.7c-1.5,0-2.6.2-3.2.6-.6.4-.9.9-.9,1.7s.4,1.8,1.3,2.3h-.6c-.4,0-.5.2-.5.5v1.2c0,.4.2.5.5.5h5c.5,0,.9.1,1.2.2.3,0,.5.2.7.4.1.2.2.3.2.6s0,.4-.2.5c-.1.1-.3.2-.5.3s-.6.1-1,.2h-1.6c-.6,0-1.3,0-2-.2s-1.5-.3-2.1-.6h-.3c-.2,0-.4.1-.4.4l-.3,1.3v.5c0,.1.2.2.4.3h-.3ZM130.1,267.2c0,.4.3.6.7.6h1.4c.2,0,.4,0,.5-.2s.2-.3.1-.5v-2.6c0-.8.2-1.3.5-1.6.3-.3.9-.4,1.7-.4,1.6,0,3.1,0,4.5.1,1.4,0,2.8.2,4.3.3.4,0,.6-.1.6-.6v-1.3c0-.4-.2-.6-.6-.6-1.3-.1-2.7-.2-4.2-.3-1.5,0-3.1-.1-4.9-.1s-2.9.3-3.6.9-1.1,1.6-1.1,2.9v3.3h.1ZM130,253.6c-.2-.3-.5-.5-1-.5h-1.4c-.4,0-.6.2-.6.6v1.3c0,.4.2.6.6.6h1.6c.6,0,.8.3.8.8v1.3c0,.4.2.6.6.6h1.5c.4,0,.6-.2.6-.6v-10.6c0-.4-.2-.6-.6-.6h-1.5c-.4,0-.6.2-.6.6v1.4c-.2-.3-.5-.5-1-.5h-1.4c-.4,0-.6.2-.6.6v1.3c0,.4.2.6.6.6h1.6c.6,0,.8.3.8.8v2.3h0Z"/>
    <path class="cls-2" d="M125,266.5c0-.5-.2-1-.5-1.3s-.8-.5-1.3-.5-1,.2-1.3.5-.5.7-.5,1.3.2.9.5,1.2c.3.3.8.5,1.3.5s1-.2,1.3-.5.5-.7.5-1.2Z"/>
  </g>
</svg>