<?xml version="1.0" encoding="UTF-8"?>
<svg id="_레이어_1" data-name="레이어 1" xmlns="http://www.w3.org/2000/svg" version="1.1" viewBox="0 0 475 475">
  <defs>
    <style>
      .cls-1 {
        fill: #edc259;
      }

      .cls-1, .cls-2, .cls-3, .cls-4, .cls-5, .cls-6, .cls-7, .cls-8, .cls-9, .cls-10, .cls-11 {
        stroke-width: 0px;
      }

      .cls-2, .cls-12, .cls-13 {
        fill: none;
      }

      .cls-3 {
        fill: #6172e8;
      }

      .cls-4 {
        fill: #edaba8;
      }

      .cls-5 {
        fill: #63f3f3;
      }

      .cls-12, .cls-13 {
        stroke: #3d2117;
      }

      .cls-6 {
        fill: #3d2117;
      }

      .cls-7 {
        fill: #faccc7;
      }

      .cls-8 {
        fill: #ffd9d4;
      }

      .cls-9 {
        fill: #75bd99;
      }

      .cls-13 {
        stroke-width: 4px;
      }

      .cls-10 {
        fill: #fff;
      }

      .cls-11 {
        fill: #e5e5e5;
      }
    </style>
  </defs>
  <rect class="cls-3" x="2" y="2" width="471" height="471" rx="14.2" ry="14.2"/>
  <rect class="cls-12" x="2" y="2" width="471" height="471" rx="14.2" ry="14.2"/>
  <rect class="cls-5" x="12" y="12" width="451" height="451" rx="14.2" ry="14.2"/>
  <rect class="cls-12" x="12" y="12" width="451" height="451" rx="14.2" ry="14.2"/>
  <g>
    <path class="cls-13" d="M109,111.6c-.8-.1-1.2-.6-1.2-1.3v-2.6c0-.9.4-1.2,1.3-1.2.9,0,1.9.2,3.1.3,1.2,0,2.5.2,3.8.3,1.4,0,2.8.2,4.2.2,1.4,0,2.8.1,4.2.1-.4-.2-.6-.4-.9-.8-.2-.4-.3-.8-.3-1.3v-4.1c-4-.3-6.9-1-8.7-2.3-1.8-1.3-2.7-3.2-2.7-5.7s1.1-4.8,3.4-6.1c2.3-1.3,6-1.9,11.1-1.9s8.8.6,11.1,1.9c2.3,1.3,3.4,3.3,3.4,6.1s-1,4.4-2.9,5.8c-1.9,1.3-5,2.1-9.2,2.3v4.5c0,1,.6,1.5,1.7,1.5s2.1,0,3.2,0c1.1,0,2.2,0,3.3-.1,1.1,0,2.1-.1,3.1-.2,1,0,1.9-.2,2.7-.3.9,0,1.3.3,1.3,1.2v2.6c0,.7-.4,1.2-1.2,1.3-.8.1-1.8.2-3,.3-1.2,0-2.5.2-4,.3-1.5,0-3.1.1-4.8.2-1.7,0-3.5,0-5.3,0-7.6,0-13.2-.3-16.8-.9ZM140.9,77.2c.8,0,1.2.4,1.2,1.2v2.9c0,.8-.4,1.2-1.2,1.2h-29.2c-.8,0-1.2-.4-1.2-1.2v-2.9c0-.8.4-1.2,1.2-1.2h12.9c-.5-.3-.8-.8-.8-1.7v-1.1c0-.8.4-1.2,1.2-1.2h3.1c.8,0,1.2.4,1.2,1.2v1.8c0,.6.4.9,1.1.9h10.6ZM117.3,93.3c0,.5.2,1,.5,1.4.3.4.8.7,1.5.9.7.2,1.6.4,2.8.5,1.2.1,2.6.2,4.3.2s3.1,0,4.3-.2c1.2-.1,2.1-.3,2.8-.5.7-.2,1.2-.6,1.5-.9s.4-.8.4-1.4-.1-1-.4-1.4c-.3-.4-.8-.7-1.5-.9-.7-.2-1.6-.4-2.8-.5-1.2-.1-2.6-.2-4.3-.2s-3.1,0-4.3.2c-1.2.1-2.1.3-2.8.5-.7.2-1.2.6-1.5.9-.3.4-.5.8-.5,1.4Z"/>
    <path class="cls-13" d="M150.7,111.6c-.8-.1-1.2-.6-1.2-1.3v-2.6c0-.9.4-1.2,1.3-1.2.9,0,1.9.2,3.1.3,1.2,0,2.5.2,3.8.3,1.4,0,2.8.2,4.2.2,1.4,0,2.8.1,4.2.1-.4-.2-.6-.4-.9-.8-.2-.4-.3-.8-.3-1.3v-5.7h-6.4c-1.5,0-2.7-.4-3.6-1.1-.9-.7-1.3-1.8-1.3-3.1v-17c0-1.5.7-2.3,2.2-2.3h19.1c5,0,7.5,2.7,7.5,8s-.4,4.4-1.3,6.3c-.9,1.9-2.1,3.2-3.5,4.1h4.3c.8,0,1.2.4,1.2,1.3v2.6c0,.8-.4,1.2-1.2,1.2h-11.3v6.1c0,1,.6,1.5,1.7,1.5s2.1,0,3.2,0c1.1,0,2.2,0,3.3-.1,1.1,0,2.1-.1,3.1-.2,1,0,1.9-.2,2.7-.3.9,0,1.3.3,1.3,1.2v2.6c0,.7-.4,1.2-1.2,1.3-.8.1-1.8.2-3,.3-1.2,0-2.5.2-4,.3-1.5,0-3.1.1-4.8.2-1.7,0-3.5,0-5.3,0-7.6,0-13.2-.3-16.8-.9ZM171.4,94.5c.7,0,1.4-.2,2.1-.6.7-.4,1.2-1,1.7-1.7.5-.7.9-1.6,1.2-2.5s.4-2,.4-3.1c0-1.9-.4-3.2-1.1-4-.7-.8-1.8-1.2-3.4-1.2h-12.1c-.8,0-1.2.4-1.2,1.2v10.5c0,.5.2.9.5,1.1.3.3.8.4,1.4.4h10.5Z"/>
    <path class="cls-13" d="M206,106.5c2.3.3,4.8.5,7.6.6,2.8.1,5.8.2,9.2.2s6.7,0,9.6-.2c3-.1,5.4-.3,7.3-.6.9,0,1.3.3,1.3,1.2v2.6c0,.7-.4,1.2-1.2,1.3-.8.1-1.8.2-3,.3-1.2,0-2.5.2-4,.3-1.5,0-3.1.1-4.8.2-1.7,0-3.5,0-5.3,0-7.6,0-13.2-.3-16.8-.9-.8-.1-1.2-.6-1.2-1.3v-2.6c0-.9.4-1.2,1.3-1.2ZM209.7,81.3c-.8,0-1.2-.4-1.2-1.2v-2.7c0-.8.4-1.2,1.2-1.2h26.6c.8,0,1.2.4,1.2,1.2v2.7c0,.8-.4,1.2-1.2,1.2h-2.6l-1.2,13.2c.9,0,1.8-.1,2.5-.2s1.4-.1,1.9-.2c.8,0,1.2.2,1.2,1v3.1c0,.6-.4,1-1.1,1.1-1.4.2-3.3.3-5.7.4-2.4.1-5.2.2-8.4.2s-6,0-8.4-.2c-2.4-.1-4.3-.2-5.7-.4-.7,0-1.1-.5-1.1-1.1v-3.1c0-.7.4-1.1,1.2-1,.5,0,1.2.1,1.9.2.8,0,1.6.1,2.5.2l-1.2-13.2h-2.6ZM223,94.8h2c.7,0,1.3,0,1.9,0l1.2-13.4h-10.4l1.2,13.4c.6,0,1.3,0,1.9,0h2Z"/>
    <path class="cls-13" d="M279.2,91.5c-2.4.3-4.6.5-6.6.6-2.1.2-3.8.3-5.2.3v1.7c0,.8.4,1.2,1.2,1.2.9,0,2,0,3.1,0s2.3,0,3.5,0c1.2,0,2.3,0,3.4-.1,1.1,0,2.1-.1,3-.2.8,0,1.2.3,1.2,1.1v2.4c0,.4,0,.7-.2.9-.1.2-.4.3-.9.4-.9,0-1.9.2-3.2.2-1.3,0-2.6.1-4.1.1-1.5,0-3.1,0-4.7,0h-5c-4.4,0-8,0-10.7-.1-2.7,0-4.8-.2-6.2-.3-.7,0-1.1-.5-1.1-1.2v-2.4c0-.8.4-1.1,1.2-1.1.9,0,2,.1,3.2.2,1.2,0,2.5,0,3.8.1s2.7,0,4.1.1c1.4,0,2.6,0,3.8,0-.5-.3-.7-.7-.7-1.3v-1.7c-2.2,0-4-.3-5.5-.5-1.5-.2-2.6-.6-3.5-1.1-.9-.5-1.5-1.1-1.8-1.8-.4-.7-.5-1.6-.5-2.6s.2-1.9.6-2.6c.4-.7,1.1-1.2,2.1-1.6,1-.4,2.4-.7,4.2-.8,1.8-.2,4-.2,6.8-.2s2.5,0,3.6,0c1.1,0,2.3,0,3.5,0,.9,0,1.5-.1,1.9-.3.4-.2.5-.4.5-.8s-.2-.7-.5-.8c-.3-.2-.9-.2-1.8-.2-2,0-3.9,0-5.8,0-1.9,0-3.7,0-5.3,0-1.6,0-3.1,0-4.5.1-1.3,0-2.5.1-3.4.2-.7,0-1.1-.3-1.1-1v-2.1c0-.7.4-1.1,1.1-1.1,1.6,0,3.3-.2,5.2-.2,1.9,0,3.8-.1,5.7-.1,2,0,3.9,0,5.8,0s3.8,0,5.5,0c1.6,0,2.8.3,3.4.7.7.4,1,1.1,1,2.2s-.3,1.7-.9,2.4c-.6.7-1.3,1.2-2.3,1.5h1.8c.6,0,1,.3,1,1v2c0,.7-.3,1-1,1-1.9-.2-3.9-.2-6-.2-2.1,0-4.6,0-7.5,0s-3.2,0-4.2,0c-1.1,0-1.9,0-2.5.2-.6,0-1,.2-1.2.4-.2.2-.3.4-.3.6s.1.4.3.6c.2.2.7.4,1.4.6.8.2,1.8.3,3.3.4,1.4,0,3.4.1,5.9.1s3.3,0,5.4-.2c2.1-.2,4.2-.4,6.6-.7.7,0,1.1.2,1.2,1l.2,2c0,.4,0,.7-.1.8-.1.2-.4.3-.9.4ZM279.4,111.6c.8,0,1.2.4,1.2,1.2v2.4c0,.8-.4,1.2-1.2,1.2h-24.8c-1.5,0-2.7-.4-3.6-1.1-.8-.7-1.3-1.7-1.3-3.1v-8.1c0-1.4.7-2.2,2.1-2.2h23.2c3.3,0,4.9,1.3,4.9,4s-.3,2.2-.9,3.2c-.6,1-1.4,1.8-2.5,2.4h2.9ZM270.8,112c1,0,1.9-.3,2.6-1,.7-.6,1.1-1.4,1.1-2.4s-.2-1.2-.5-1.5c-.3-.4-.9-.6-1.6-.6h-16c-.7,0-1.1.4-1.1,1.1v3c0,.9.6,1.4,1.7,1.4h13.8Z"/>
    <path class="cls-13" d="M289.6,106.5c2.3.3,4.8.5,7.6.6,2.8.1,5.8.2,9.2.2s6.7,0,9.6-.2c3-.1,5.4-.3,7.3-.6.9,0,1.3.3,1.3,1.2v2.6c0,.7-.4,1.2-1.2,1.3-.8.1-1.8.2-3,.3-1.2,0-2.5.2-4,.3-1.5,0-3.1.1-4.8.2-1.7,0-3.5,0-5.3,0-7.6,0-13.2-.3-16.8-.9-.8-.1-1.2-.6-1.2-1.3v-2.6c0-.9.4-1.2,1.3-1.2ZM293.2,81.3c-.8,0-1.2-.4-1.2-1.2v-2.7c0-.8.4-1.2,1.2-1.2h26.6c.8,0,1.2.4,1.2,1.2v2.7c0,.8-.4,1.2-1.2,1.2h-2.6l-1.2,13.2c.9,0,1.8-.1,2.5-.2s1.4-.1,1.9-.2c.8,0,1.2.2,1.2,1v3.1c0,.6-.4,1-1.1,1.1-1.4.2-3.3.3-5.7.4-2.4.1-5.2.2-8.4.2s-6,0-8.4-.2c-2.4-.1-4.3-.2-5.7-.4-.7,0-1.1-.5-1.1-1.1v-3.1c0-.7.4-1.1,1.2-1,.5,0,1.2.1,1.9.2.8,0,1.6.1,2.5.2l-1.2-13.2h-2.6ZM306.5,94.8h2c.7,0,1.3,0,1.9,0l1.2-13.4h-10.4l1.2,13.4c.6,0,1.3,0,1.9,0h2Z"/>
    <path class="cls-13" d="M331.3,106.5c2.3.3,4.8.5,7.6.6,2.8.1,5.8.2,9.2.2s6.7,0,9.6-.2c3-.1,5.4-.3,7.3-.6.9,0,1.3.3,1.3,1.2v2.6c0,.7-.4,1.2-1.2,1.3-.8.1-1.8.2-3,.3-1.2,0-2.5.2-4,.3-1.5,0-3.1.1-4.8.2-1.7,0-3.5,0-5.3,0-7.6,0-13.2-.3-16.8-.9-.8-.1-1.2-.6-1.2-1.3v-2.6c0-.9.4-1.2,1.3-1.2ZM361,84.6c.7,0,1.1.4,1.1,1.2v2.8c0,.8-.4,1.2-1.2,1.1-2.3-.2-4.6-.2-6.8-.3-2.2,0-4.4,0-6.4,0s-3.2,0-4.3.1c-1.1,0-2,.3-2.7.5-.7.2-1.2.5-1.4.9-.3.4-.4.9-.4,1.5s.2,1.2.5,1.6c.3.4.8.8,1.5,1,.7.3,1.7.4,2.9.6,1.2.1,2.7.2,4.4.2,2.8,0,5.3,0,7.4-.2,2.1-.1,4.1-.3,5.8-.5.8,0,1.2.2,1.3,1l.2,2.8c0,.7-.3,1.2-1.1,1.2-1,.1-2,.2-3,.3-1,0-2.1.1-3.2.2-1.1,0-2.3,0-3.6.1-1.2,0-2.6,0-4,0-2.8,0-5.1-.1-7-.4-1.9-.3-3.4-.8-4.5-1.4-1.1-.6-1.9-1.5-2.4-2.6-.5-1.1-.7-2.4-.7-4s.3-2.8.8-3.8c.5-1,1.4-1.9,2.5-2.5,1.2-.6,2.7-1.1,4.6-1.4,1.9-.3,4.2-.4,6.9-.4s5.2,0,7.4,0c2.2,0,4,.1,5.5.2ZM334.9,81.2c-.8,0-1.2-.4-1.2-1.2v-2.6c0-.8.4-1.2,1.2-1.2h26c.8,0,1.2.4,1.2,1.2v2.6c0,.8-.4,1.2-1.2,1.2h-26Z"/>
  </g>
  <g>
    <path class="cls-10" d="M109,111.6c-.8-.1-1.2-.6-1.2-1.3v-2.6c0-.9.4-1.2,1.3-1.2.9,0,1.9.2,3.1.3,1.2,0,2.5.2,3.8.3,1.4,0,2.8.2,4.2.2,1.4,0,2.8.1,4.2.1-.4-.2-.6-.4-.9-.8-.2-.4-.3-.8-.3-1.3v-4.1c-4-.3-6.9-1-8.7-2.3-1.8-1.3-2.7-3.2-2.7-5.7s1.1-4.8,3.4-6.1c2.3-1.3,6-1.9,11.1-1.9s8.8.6,11.1,1.9c2.3,1.3,3.4,3.3,3.4,6.1s-1,4.4-2.9,5.8c-1.9,1.3-5,2.1-9.2,2.3v4.5c0,1,.6,1.5,1.7,1.5s2.1,0,3.2,0c1.1,0,2.2,0,3.3-.1,1.1,0,2.1-.1,3.1-.2,1,0,1.9-.2,2.7-.3.9,0,1.3.3,1.3,1.2v2.6c0,.7-.4,1.2-1.2,1.3-.8.1-1.8.2-3,.3-1.2,0-2.5.2-4,.3-1.5,0-3.1.1-4.8.2-1.7,0-3.5,0-5.3,0-7.6,0-13.2-.3-16.8-.9ZM140.9,77.2c.8,0,1.2.4,1.2,1.2v2.9c0,.8-.4,1.2-1.2,1.2h-29.2c-.8,0-1.2-.4-1.2-1.2v-2.9c0-.8.4-1.2,1.2-1.2h12.9c-.5-.3-.8-.8-.8-1.7v-1.1c0-.8.4-1.2,1.2-1.2h3.1c.8,0,1.2.4,1.2,1.2v1.8c0,.6.4.9,1.1.9h10.6ZM117.3,93.3c0,.5.2,1,.5,1.4.3.4.8.7,1.5.9.7.2,1.6.4,2.8.5,1.2.1,2.6.2,4.3.2s3.1,0,4.3-.2c1.2-.1,2.1-.3,2.8-.5.7-.2,1.2-.6,1.5-.9s.4-.8.4-1.4-.1-1-.4-1.4c-.3-.4-.8-.7-1.5-.9-.7-.2-1.6-.4-2.8-.5-1.2-.1-2.6-.2-4.3-.2s-3.1,0-4.3.2c-1.2.1-2.1.3-2.8.5-.7.2-1.2.6-1.5.9-.3.4-.5.8-.5,1.4Z"/>
    <path class="cls-10" d="M150.7,111.6c-.8-.1-1.2-.6-1.2-1.3v-2.6c0-.9.4-1.2,1.3-1.2.9,0,1.9.2,3.1.3,1.2,0,2.5.2,3.8.3,1.4,0,2.8.2,4.2.2,1.4,0,2.8.1,4.2.1-.4-.2-.6-.4-.9-.8-.2-.4-.3-.8-.3-1.3v-5.7h-6.4c-1.5,0-2.7-.4-3.6-1.1-.9-.7-1.3-1.8-1.3-3.1v-17c0-1.5.7-2.3,2.2-2.3h19.1c5,0,7.5,2.7,7.5,8s-.4,4.4-1.3,6.3c-.9,1.9-2.1,3.2-3.5,4.1h4.3c.8,0,1.2.4,1.2,1.3v2.6c0,.8-.4,1.2-1.2,1.2h-11.3v6.1c0,1,.6,1.5,1.7,1.5s2.1,0,3.2,0c1.1,0,2.2,0,3.3-.1,1.1,0,2.1-.1,3.1-.2,1,0,1.9-.2,2.7-.3.9,0,1.3.3,1.3,1.2v2.6c0,.7-.4,1.2-1.2,1.3-.8.1-1.8.2-3,.3-1.2,0-2.5.2-4,.3-1.5,0-3.1.1-4.8.2-1.7,0-3.5,0-5.3,0-7.6,0-13.2-.3-16.8-.9ZM171.4,94.5c.7,0,1.4-.2,2.1-.6.7-.4,1.2-1,1.7-1.7.5-.7.9-1.6,1.2-2.5s.4-2,.4-3.1c0-1.9-.4-3.2-1.1-4-.7-.8-1.8-1.2-3.4-1.2h-12.1c-.8,0-1.2.4-1.2,1.2v10.5c0,.5.2.9.5,1.1.3.3.8.4,1.4.4h10.5Z"/>
    <path class="cls-10" d="M206,106.5c2.3.3,4.8.5,7.6.6,2.8.1,5.8.2,9.2.2s6.7,0,9.6-.2c3-.1,5.4-.3,7.3-.6.9,0,1.3.3,1.3,1.2v2.6c0,.7-.4,1.2-1.2,1.3-.8.1-1.8.2-3,.3-1.2,0-2.5.2-4,.3-1.5,0-3.1.1-4.8.2-1.7,0-3.5,0-5.3,0-7.6,0-13.2-.3-16.8-.9-.8-.1-1.2-.6-1.2-1.3v-2.6c0-.9.4-1.2,1.3-1.2ZM209.7,81.3c-.8,0-1.2-.4-1.2-1.2v-2.7c0-.8.4-1.2,1.2-1.2h26.6c.8,0,1.2.4,1.2,1.2v2.7c0,.8-.4,1.2-1.2,1.2h-2.6l-1.2,13.2c.9,0,1.8-.1,2.5-.2s1.4-.1,1.9-.2c.8,0,1.2.2,1.2,1v3.1c0,.6-.4,1-1.1,1.1-1.4.2-3.3.3-5.7.4-2.4.1-5.2.2-8.4.2s-6,0-8.4-.2c-2.4-.1-4.3-.2-5.7-.4-.7,0-1.1-.5-1.1-1.1v-3.1c0-.7.4-1.1,1.2-1,.5,0,1.2.1,1.9.2.8,0,1.6.1,2.5.2l-1.2-13.2h-2.6ZM223,94.8h2c.7,0,1.3,0,1.9,0l1.2-13.4h-10.4l1.2,13.4c.6,0,1.3,0,1.9,0h2Z"/>
    <path class="cls-10" d="M279.2,91.5c-2.4.3-4.6.5-6.6.6-2.1.2-3.8.3-5.2.3v1.7c0,.8.4,1.2,1.2,1.2.9,0,2,0,3.1,0s2.3,0,3.5,0c1.2,0,2.3,0,3.4-.1,1.1,0,2.1-.1,3-.2.8,0,1.2.3,1.2,1.1v2.4c0,.4,0,.7-.2.9-.1.2-.4.3-.9.4-.9,0-1.9.2-3.2.2-1.3,0-2.6.1-4.1.1-1.5,0-3.1,0-4.7,0h-5c-4.4,0-8,0-10.7-.1-2.7,0-4.8-.2-6.2-.3-.7,0-1.1-.5-1.1-1.2v-2.4c0-.8.4-1.1,1.2-1.1.9,0,2,.1,3.2.2,1.2,0,2.5,0,3.8.1s2.7,0,4.1.1c1.4,0,2.6,0,3.8,0-.5-.3-.7-.7-.7-1.3v-1.7c-2.2,0-4-.3-5.5-.5-1.5-.2-2.6-.6-3.5-1.1-.9-.5-1.5-1.1-1.8-1.8-.4-.7-.5-1.6-.5-2.6s.2-1.9.6-2.6c.4-.7,1.1-1.2,2.1-1.6,1-.4,2.4-.7,4.2-.8,1.8-.2,4-.2,6.8-.2s2.5,0,3.6,0c1.1,0,2.3,0,3.5,0,.9,0,1.5-.1,1.9-.3.4-.2.5-.4.5-.8s-.2-.7-.5-.8c-.3-.2-.9-.2-1.8-.2-2,0-3.9,0-5.8,0-1.9,0-3.7,0-5.3,0-1.6,0-3.1,0-4.5.1-1.3,0-2.5.1-3.4.2-.7,0-1.1-.3-1.1-1v-2.1c0-.7.4-1.1,1.1-1.1,1.6,0,3.3-.2,5.2-.2,1.9,0,3.8-.1,5.7-.1,2,0,3.9,0,5.8,0s3.8,0,5.5,0c1.6,0,2.8.3,3.4.7.7.4,1,1.1,1,2.2s-.3,1.7-.9,2.4c-.6.7-1.3,1.2-2.3,1.5h1.8c.6,0,1,.3,1,1v2c0,.7-.3,1-1,1-1.9-.2-3.9-.2-6-.2-2.1,0-4.6,0-7.5,0s-3.2,0-4.2,0c-1.1,0-1.9,0-2.5.2-.6,0-1,.2-1.2.4-.2.2-.3.4-.3.6s.1.4.3.6c.2.2.7.4,1.4.6.8.2,1.8.3,3.3.4,1.4,0,3.4.1,5.9.1s3.3,0,5.4-.2c2.1-.2,4.2-.4,6.6-.7.7,0,1.1.2,1.2,1l.2,2c0,.4,0,.7-.1.8-.1.2-.4.3-.9.4ZM279.4,111.6c.8,0,1.2.4,1.2,1.2v2.4c0,.8-.4,1.2-1.2,1.2h-24.8c-1.5,0-2.7-.4-3.6-1.1-.8-.7-1.3-1.7-1.3-3.1v-8.1c0-1.4.7-2.2,2.1-2.2h23.2c3.3,0,4.9,1.3,4.9,4s-.3,2.2-.9,3.2c-.6,1-1.4,1.8-2.5,2.4h2.9ZM270.8,112c1,0,1.9-.3,2.6-1,.7-.6,1.1-1.4,1.1-2.4s-.2-1.2-.5-1.5c-.3-.4-.9-.6-1.6-.6h-16c-.7,0-1.1.4-1.1,1.1v3c0,.9.6,1.4,1.7,1.4h13.8Z"/>
    <path class="cls-10" d="M289.6,106.5c2.3.3,4.8.5,7.6.6,2.8.1,5.8.2,9.2.2s6.7,0,9.6-.2c3-.1,5.4-.3,7.3-.6.9,0,1.3.3,1.3,1.2v2.6c0,.7-.4,1.2-1.2,1.3-.8.1-1.8.2-3,.3-1.2,0-2.5.2-4,.3-1.5,0-3.1.1-4.8.2-1.7,0-3.5,0-5.3,0-7.6,0-13.2-.3-16.8-.9-.8-.1-1.2-.6-1.2-1.3v-2.6c0-.9.4-1.2,1.3-1.2ZM293.2,81.3c-.8,0-1.2-.4-1.2-1.2v-2.7c0-.8.4-1.2,1.2-1.2h26.6c.8,0,1.2.4,1.2,1.2v2.7c0,.8-.4,1.2-1.2,1.2h-2.6l-1.2,13.2c.9,0,1.8-.1,2.5-.2s1.4-.1,1.9-.2c.8,0,1.2.2,1.2,1v3.1c0,.6-.4,1-1.1,1.1-1.4.2-3.3.3-5.7.4-2.4.1-5.2.2-8.4.2s-6,0-8.4-.2c-2.4-.1-4.3-.2-5.7-.4-.7,0-1.1-.5-1.1-1.1v-3.1c0-.7.4-1.1,1.2-1,.5,0,1.2.1,1.9.2.8,0,1.6.1,2.5.2l-1.2-13.2h-2.6ZM306.5,94.8h2c.7,0,1.3,0,1.9,0l1.2-13.4h-10.4l1.2,13.4c.6,0,1.3,0,1.9,0h2Z"/>
    <path class="cls-10" d="M331.3,106.5c2.3.3,4.8.5,7.6.6,2.8.1,5.8.2,9.2.2s6.7,0,9.6-.2c3-.1,5.4-.3,7.3-.6.9,0,1.3.3,1.3,1.2v2.6c0,.7-.4,1.2-1.2,1.3-.8.1-1.8.2-3,.3-1.2,0-2.5.2-4,.3-1.5,0-3.1.1-4.8.2-1.7,0-3.5,0-5.3,0-7.6,0-13.2-.3-16.8-.9-.8-.1-1.2-.6-1.2-1.3v-2.6c0-.9.4-1.2,1.3-1.2ZM361,84.6c.7,0,1.1.4,1.1,1.2v2.8c0,.8-.4,1.2-1.2,1.1-2.3-.2-4.6-.2-6.8-.3-2.2,0-4.4,0-6.4,0s-3.2,0-4.3.1c-1.1,0-2,.3-2.7.5-.7.2-1.2.5-1.4.9-.3.4-.4.9-.4,1.5s.2,1.2.5,1.6c.3.4.8.8,1.5,1,.7.3,1.7.4,2.9.6,1.2.1,2.7.2,4.4.2,2.8,0,5.3,0,7.4-.2,2.1-.1,4.1-.3,5.8-.5.8,0,1.2.2,1.3,1l.2,2.8c0,.7-.3,1.2-1.1,1.2-1,.1-2,.2-3,.3-1,0-2.1.1-3.2.2-1.1,0-2.3,0-3.6.1-1.2,0-2.6,0-4,0-2.8,0-5.1-.1-7-.4-1.9-.3-3.4-.8-4.5-1.4-1.1-.6-1.9-1.5-2.4-2.6-.5-1.1-.7-2.4-.7-4s.3-2.8.8-3.8c.5-1,1.4-1.9,2.5-2.5,1.2-.6,2.7-1.1,4.6-1.4,1.9-.3,4.2-.4,6.9-.4s5.2,0,7.4,0c2.2,0,4,.1,5.5.2ZM334.9,81.2c-.8,0-1.2-.4-1.2-1.2v-2.6c0-.8.4-1.2,1.2-1.2h26c.8,0,1.2.4,1.2,1.2v2.6c0,.8-.4,1.2-1.2,1.2h-26Z"/>
  </g>
  <path class="cls-6" d="M263.6,159.4c5.8,10.2,2.2,23.2-8.1,29-10.2,5.8-23.2,2.2-29-8.1-5.8-10.2-2.2-23.2,8.1-29,10.2-5.8,23.2-2.2,29,8.1"/>
  <path class="cls-6" d="M263.6,159.4l-.9.5c1.8,3.2,2.6,6.6,2.6,9.9,0,7.1-3.7,13.9-10.3,17.7-3.2,1.8-6.6,2.6-9.9,2.6-7.1,0-13.9-3.7-17.7-10.3-1.8-3.1-2.6-6.6-2.6-9.9,0-7.1,3.7-13.9,10.3-17.7,3.1-1.8,6.6-2.6,9.9-2.6,7.1,0,13.9,3.7,17.7,10.3l.9-.5.9-.5c-4.1-7.2-11.6-11.3-19.4-11.3-3.7,0-7.5.9-10.9,2.9-7.2,4.1-11.3,11.6-11.3,19.4,0,3.7.9,7.5,2.9,10.9,4.1,7.2,11.6,11.3,19.4,11.3,3.7,0,7.5-.9,10.9-2.9,7.2-4.1,11.3-11.6,11.3-19.4,0-3.7-.9-7.5-2.9-10.9l-.9.5Z"/>
  <path class="cls-1" d="M313.6,421.3s1.8-7,4-17.8h11s14.1-56.8-3.6-88.6c-14.9-26.7-52.2-25.8-63.7-24.8l-13.1-2.3h-4.3l-15.3,2.6s-49.5-7.4-67.2,24.4c-17.7,31.8-3.6,88.6-3.6,88.6h16.6c2.1,10.8,4,17.8,4,17.8"/>
  <path class="cls-6" d="M314.5,421.6s1.8-7,4-17.8l-1-.2v1h11c.5,0,.9-.3,1-.8,0,0,5.3-21.5,5.3-45.6,0-15.1-2.1-31.3-9.1-43.8-6.2-11.1-16.2-17.6-26.6-21.2-10.4-3.6-21.2-4.5-29.2-4.5-3.7,0-6.8.2-8.9.4v1c0,0,.3-1,.3-1l-13.1-2.3h-.2s-4.3,0-4.3,0h-.2s-15.3,2.6-15.3,2.6l.2,1v-1c.1,0-4.9-.7-12.3-.7-8,0-18.8.9-29.2,4.5-10.4,3.6-20.4,10.1-26.6,21.2-7,12.5-9,28.7-9.1,43.8,0,24,5.3,45.5,5.3,45.6.1.4.5.8,1,.8h16.6v-1l-1,.2c2.1,10.8,4,17.8,4,17.8.1.5.7.9,1.2.7.5-.1.9-.7.7-1.2,0,0-.1-.4-.3-1.2-.6-2.5-2-8.4-3.6-16.5,0-.5-.5-.8-1-.8h-16.6v1l1-.2s0,0,0-.2c-.6-2.4-5.2-22.6-5.2-44.9,0-14.9,2.1-30.8,8.8-42.8,5.9-10.6,15.4-16.7,25.5-20.3,10.1-3.5,20.7-4.4,28.5-4.4,3.6,0,6.7.2,8.8.4,1.1,0,1.9.2,2.5.2.3,0,.5,0,.6,0,.1,0,.2,0,.2,0,.1,0,.2,0,.3,0l15.2-2.6h4.2l13,2.2h.3c2.1-.2,5.2-.3,8.8-.3,7.8,0,18.4.9,28.5,4.4,10.1,3.5,19.6,9.7,25.5,20.3,6.7,12,8.8,27.9,8.8,42.8,0,11.9-1.3,23.2-2.6,31.5-.7,4.2-1.3,7.6-1.8,9.9-.2,1.2-.5,2.1-.6,2.7,0,.3-.1.6-.2.7,0,.2,0,.2,0,.2l1,.2v-1h-11c-.5,0-.9.3-1,.8-1.1,5.4-2.1,9.8-2.8,12.9-.4,1.5-.7,2.8-.9,3.6-.2.8-.3,1.2-.3,1.2-.1.5.2,1.1.7,1.2.5.1,1.1-.2,1.2-.7Z"/>
  <polygon class="cls-8" points="257.8 291 243.1 304.6 228.5 291 228.5 267.5 257.8 267.5 257.8 291"/>
  <path class="cls-6" d="M257.8,291l-.7-.7-13.9,13-13.6-12.7v-22h27.2v22.5h1l-.7-.7.7.7h1v-23.5c0-.3-.1-.5-.3-.7-.2-.2-.4-.3-.7-.3h-29.2c-.3,0-.5.1-.7.3-.2.2-.3.4-.3.7v23.5c0,.3.1.5.3.7l14.6,13.6c.4.4,1,.4,1.4,0l14.6-13.6c.2-.2.3-.5.3-.7h-1Z"/>
  <path class="cls-8" d="M288.5,225.2c-.5,0-.9,0-1.3.1-2.5-23-21.4-40.9-44.3-40.9s-41.8,17.9-44.3,40.8c-.2,0-.4,0-.6,0-6.2-.2-11.3,4.9-11.5,11.3-.2,6.4,4.7,11.7,10.9,11.9,1.4,0,2.8-.2,4.1-.7,6.6,17,22.6,28.9,41.4,28.9s35-12.1,41.5-29.2c1.4.6,3,1,4.7,1,6.2-.2,11.1-5.5,10.9-11.9-.2-6.4-5.3-11.4-11.5-11.3"/>
  <path class="cls-6" d="M288.5,225.2v-1.1c-.5,0-1,0-1.5.1l.2,1.1h1.1c-1.3-11.9-6.7-22.4-14.8-29.9-8.1-7.5-18.8-12.1-30.6-12.1-11.8,0-22.5,4.6-30.6,12.1-8.1,7.5-13.6,18-14.9,29.7h1.1c0,.1,0-1,0-1-.2,0-.4,0-.7,0-.1,0-.2,0-.3,0-6.7,0-12.1,5.5-12.3,12.4,0,.1,0,.2,0,.3,0,3.4,1.3,6.5,3.5,8.8,2.2,2.3,5.2,3.8,8.5,3.8.1,0,.2,0,.3,0,1.5,0,2.9-.3,4.2-.8l-.4-1-1,.4c6.7,17.3,23.2,29.6,42.4,29.6,19.4,0,35.9-12.4,42.5-29.9l-1-.4-.5,1c1.5.7,3.2,1.1,4.9,1.1s.2,0,.3,0c3.4,0,6.4-1.6,8.5-3.8,2.2-2.3,3.5-5.4,3.5-8.8s0-.2,0-.3h0c-.2-6.9-5.6-12.4-12.3-12.4-.1,0-.2,0-.3,0h0v1.1s0,1.1,0,1.1h.2c5.4,0,10,4.5,10.1,10.2h0c0,0,0,.2,0,.3,0,2.8-1.1,5.4-2.9,7.3-1.8,1.9-4.2,3.1-7,3.1h-.2c-1.4,0-2.8-.3-4-.9-.3-.1-.6-.1-.9,0-.3.1-.5.3-.6.6-6.4,16.7-22.1,28.5-40.5,28.5-18.3,0-34-11.7-40.4-28.2-.2-.6-.8-.8-1.4-.6-1.1.4-2.2.6-3.4.6h-.2c-2.7,0-5.2-1.3-7-3.2-1.8-1.9-2.9-4.5-2.9-7.3v-.3c.1-5.7,4.7-10.2,10.1-10.2h.3c.2,0,.3,0,.5,0,.6,0,1.1-.4,1.2-1,1.2-11.2,6.5-21.2,14.2-28.4,7.7-7.2,17.9-11.5,29.1-11.5,11.2,0,21.4,4.4,29.1,11.5,7.7,7.2,12.9,17.2,14.2,28.4,0,.3.2.6.4.8.2.2.5.3.8.2.4,0,.8-.1,1.2-.1h0s0-1.1,0-1.1Z"/>
  <path class="cls-8" d="M192.4,236s3.7-1.3,7.5,1.5"/>
  <path class="cls-6" d="M192.7,236.9v-.3c-.1,0,0,.3,0,.3h0s-.1-.3-.1-.3v.3c.1,0,.8-.2,1.9-.2,1.3,0,3,.3,4.8,1.6.4.3,1.1.2,1.4-.2.3-.4.2-1.1-.2-1.4-2.2-1.6-4.4-2-6-2-1.4,0-2.4.3-2.4.3-.5.2-.8.7-.6,1.3.2.5.7.8,1.3.6Z"/>
  <path class="cls-8" d="M293.9,236s-3.7-1.3-7.5,1.5"/>
  <path class="cls-6" d="M294.2,235c0,0-1-.3-2.4-.3-1.6,0-3.8.4-6,2-.4.3-.5,1-.2,1.4.3.4,1,.5,1.4.2,1.8-1.3,3.5-1.6,4.8-1.6.6,0,1,0,1.4.1.2,0,.3,0,.4,0h0s0,0,0,0v-.3c0,0,0,.3,0,.3h0s0-.3,0-.3v.3c.4.2,1,0,1.2-.6s0-1.1-.6-1.3Z"/>
  <path class="cls-6" d="M231.7,232.4c0,2-1.1,3.6-2.4,3.6s-2.4-1.6-2.4-3.6,1.1-3.6,2.4-3.6,2.4,1.6,2.4,3.6"/>
  <path class="cls-6" d="M231.7,232.4h-1c0,.8-.2,1.5-.5,2-.2.2-.3.4-.5.5-.1,0-.3.1-.4.1-.1,0-.2,0-.4-.1-.2-.1-.5-.4-.7-.9-.2-.4-.3-1-.3-1.6,0-.8.2-1.5.5-2,.2-.2.3-.4.5-.5.1,0,.3-.1.4-.1.1,0,.2,0,.4.1.2.1.5.4.7.9.2.4.3,1,.3,1.6h2c0-1.2-.3-2.2-.9-3.1-.3-.4-.6-.8-1.1-1.1-.4-.3-.9-.4-1.5-.4-.5,0-1,.2-1.5.4-.6.4-1.1,1-1.4,1.7-.3.7-.5,1.5-.5,2.4,0,1.2.3,2.2.9,3.1.3.4.6.8,1.1,1.1.4.3.9.4,1.5.4.5,0,1-.2,1.5-.4.6-.4,1.1-1,1.4-1.7.3-.7.5-1.5.5-2.4h-1Z"/>
  <path class="cls-6" d="M258.4,232.4c0,2-1.1,3.6-2.4,3.6s-2.4-1.6-2.4-3.6,1.1-3.6,2.4-3.6,2.4,1.6,2.4,3.6"/>
  <path class="cls-6" d="M258.4,232.4h-1c0,.8-.2,1.5-.5,2-.2.2-.3.4-.5.5-.1,0-.3.1-.4.1-.1,0-.2,0-.4-.1-.2-.1-.5-.4-.7-.9-.2-.4-.3-1-.3-1.6,0-.8.2-1.5.5-2,.2-.2.3-.4.5-.5.1,0,.3-.1.4-.1.1,0,.2,0,.4.1.2.1.5.4.7.9.2.4.3,1,.3,1.6h2c0-1.2-.3-2.2-.9-3.1-.3-.4-.6-.8-1.1-1.1-.4-.3-.9-.4-1.5-.4-.5,0-1,.2-1.5.4-.6.4-1.1,1-1.4,1.7-.3.7-.5,1.5-.5,2.4,0,1.2.3,2.2.9,3.1.3.4.6.8,1.1,1.1.4.3.9.4,1.5.4.5,0,1-.2,1.5-.4.6-.4,1.1-1,1.4-1.7.3-.7.5-1.5.5-2.4h-1Z"/>
  <path class="cls-6" d="M250.5,245.2c-1.8,1.7-4.4,2.8-7.4,2.8-3,0-5.6-1.1-7.4-2.8-.4-.4-1-.4-1.4,0-.4.4-.4,1,0,1.4,2.2,2.1,5.3,3.4,8.8,3.4,3.5,0,6.6-1.3,8.8-3.4.4-.4.4-1,0-1.4-.4-.4-1-.4-1.4,0Z"/>
  <path class="cls-6" d="M252.1,217.8c1.4-1,3.6-1.7,6.1-1.7,2.5,0,4.7.7,6.1,1.7.4.3,1.1.2,1.4-.2.3-.4.2-1.1-.2-1.4-1.8-1.3-4.4-2.1-7.3-2.1-2.9,0-5.4.8-7.3,2.1-.4.3-.6.9-.2,1.4.3.4.9.6,1.4.2Z"/>
  <path class="cls-6" d="M235.4,216.2c-1.8-1.3-4.4-2.1-7.3-2.1-2.9,0-5.4.8-7.3,2.1-.4.3-.6.9-.2,1.4.3.4.9.6,1.4.2,1.4-1,3.6-1.7,6.1-1.7,2.5,0,4.7.7,6.1,1.7.4.3,1.1.2,1.4-.2.3-.4.2-1.1-.2-1.4Z"/>
  <rect class="cls-7" x="208.2" y="233.6" width="17.4" height="17.4"/>
  <path class="cls-2" d="M208.2,242.3c0,4.8,3.9,8.7,8.7,8.7s8.7-3.9,8.7-8.7-3.9-8.7-8.7-8.7-8.7,3.9-8.7,8.7"/>
  <path class="cls-7" d="M269.4,233.6c-4.8,0-8.7,3.9-8.7,8.7s3.9,8.7,8.7,8.7,8.7-3.9,8.7-8.7-3.9-8.7-8.7-8.7"/>
  <path class="cls-6" d="M197.8,225.2s2.1,5.8,6.1,2.2c4.1-3.6,4.4-12.5,12.9-18.9,8.5-6.5,18,3.1,34.3-10.9,0,0,3.1,11.3,21,15.5,0,0,3.7,1.3,5.8,6,2.2,4.7,5,8.4,9,6.3,0,0,5-2.1,3.4-14.3-1.7-12.2-16.6-34.7-47.7-34.7s-43.8,22.6-45.5,35.7c-1.3,10.3.6,13.1.6,13.1"/>
  <path class="cls-6" d="M197.8,225.2l-.9.3s.3,1,1,1.9c.3.5.8,1,1.4,1.4.6.4,1.3.7,2.1.7,1.1,0,2.2-.5,3.2-1.5,1.2-1,2-2.4,2.8-3.9,2.3-4.5,4-10.3,10.1-15,1.5-1.1,2.9-1.7,4.5-2,1.6-.3,3.3-.4,5.2-.4.6,0,1.2,0,1.8,0,3,0,6.4,0,10.2-1.2,3.8-1.1,8-3.3,12.7-7.3l-.7-.8-1,.3c0,.1.9,3.1,4,6.6,3.1,3.5,8.6,7.5,17.7,9.6l.2-1-.3.9v-.2c0,0,0,.2,0,.2h0s0-.2,0-.2v.2s.8.3,1.9,1.2c1.1.8,2.4,2.2,3.3,4.3.9,1.9,1.9,3.7,3.1,5.1.6.7,1.3,1.3,2,1.7.8.4,1.6.7,2.5.7.9,0,1.8-.2,2.7-.7l-.5-.9.4.9c.1,0,1.2-.6,2.3-2.2,1-1.6,2-4.2,2-8.4,0-1.4-.1-3-.3-4.7-.4-3.2-1.7-7-3.9-10.9-3.3-5.9-8.5-12-15.9-16.7-7.4-4.7-17-7.9-28.9-7.9-15.8,0-27.1,5.8-34.5,13.2-7.5,7.5-11.1,16.6-12,23.4-.3,2.7-.5,4.9-.5,6.7,0,5.2,1.1,6.9,1.2,7.2l.8-.6-.9.3.9-.3.8-.6-.4.3.4-.3h0s-.4.3-.4.3l.4-.3s0,0-.1-.3c-.3-.6-.8-2.3-.8-5.8s.1-3.8.5-6.4c.8-6.4,4.3-15.1,11.5-22.2,7.1-7.1,17.8-12.6,33.1-12.6,15.3,0,26.6,5.5,34.2,12.5,3.8,3.5,6.8,7.4,8.8,11.1,2.1,3.7,3.3,7.3,3.7,10.2.2,1.7.3,3.2.3,4.5,0,3.9-.9,6.1-1.7,7.3-.4.6-.8,1-1.1,1.2-.1.1-.2.2-.3.2h0s0,0,0,0l.3.6-.2-.6h0s.3.6.3.6l-.2-.6h0c-.7.4-1.3.5-1.8.5-.5,0-1-.1-1.5-.4-.8-.4-1.5-1.2-2.3-2.2-.7-1-1.4-2.3-2.1-3.7-1.2-2.5-2.7-4.1-4-5.1-1.3-1-2.3-1.4-2.4-1.4h-.1c-8.8-2.1-13.8-5.8-16.7-9-1.4-1.6-2.3-3.1-2.9-4.1-.3-.5-.4-1-.6-1.2,0-.1,0-.3-.1-.3h0c0,0,0,0,0,0h-.2c0,0,.2,0,.2,0h0s-.2,0-.2,0h.2c0-.4-.3-.7-.7-.8-.3,0-.7,0-.9.2-4.5,3.9-8.5,5.9-12,6.9-3.5,1-6.6,1.1-9.6,1.1s-1.2,0-1.8,0c-1.9,0-3.8,0-5.6.4-1.8.4-3.6,1.1-5.3,2.4-4.4,3.4-6.7,7.4-8.4,10.9-.8,1.8-1.5,3.4-2.3,4.8-.7,1.4-1.4,2.5-2.3,3.3-.9.8-1.5.9-1.9.9-.3,0-.7-.1-1-.3-.5-.3-.9-.9-1.2-1.5-.1-.3-.3-.5-.3-.7v-.2c0,0,0,0,0,0h0s-.2,0-.2,0h.2c0,0,0,0,0,0h-.2c0,0,.2,0,.2,0v-.2c-.1,0-.9.6-.9.6Z"/>
  <polygon class="cls-10" points="228.5 281.9 217.9 289.7 225.6 324.5 243.1 304.6 228.5 281.9"/>
  <path class="cls-6" d="M228.5,281.9l-.6-.8-10.7,7.9c-.3.2-.5.6-.4,1l7.7,34.7c0,.4.4.7.7.8.4,0,.8,0,1-.3l17.6-19.9c.3-.3.3-.8,0-1.2l-14.6-22.7c-.1-.2-.4-.4-.7-.4-.3,0-.6,0-.8.2l.6.8-.8.5,14.2,22.1-15.8,17.8-7.2-32.2,10.1-7.5-.6-.8-.8.5.8-.5Z"/>
  <polygon class="cls-10" points="257.8 281.9 268.4 289.7 260.7 324.5 243.1 304.6 257.8 281.9"/>
  <path class="cls-6" d="M257.8,281.9l-.6.8,10.1,7.5-7.2,32.2-15.8-17.8,14.2-22.1-.8-.5-.6.8.6-.8-.8-.5-14.6,22.7c-.2.4-.2.9,0,1.2l17.6,19.9c.2.3.6.4,1,.3.4,0,.6-.4.7-.8l7.7-34.7c0-.4,0-.8-.4-1l-10.7-7.9c-.2-.2-.5-.2-.8-.2-.3,0-.5.2-.7.4l.8.5Z"/>
  <path class="cls-4" d="M245.6,238.1c0,1.4-1.1,2.5-2.5,2.5s-2.5-1.1-2.5-2.5,1.1-2.5,2.5-2.5,2.5,1.1,2.5,2.5"/>
  <path class="cls-1" d="M159.3,319s-51.3,97-4.8,103.8c38.8,5.7,29.8-31.8,29.8-31.8"/>
  <path class="cls-6" d="M158.4,318.5s-6.1,11.5-12.2,26.9c-6.1,15.4-12.2,34.6-12.2,50.3,0,7.1,1.3,13.5,4.5,18.5,1.6,2.5,3.7,4.6,6.4,6.2,2.6,1.6,5.8,2.7,9.6,3.3,2.8.4,5.3.6,7.7.6,5.1,0,9.2-.9,12.4-2.4,4.9-2.3,7.9-6.1,9.6-10.1,1.7-4.1,2.2-8.4,2.2-12.1,0-5.1-.9-8.9-.9-8.9-.1-.5-.7-.9-1.2-.7-.5.1-.9.7-.7,1.2h0c0,.4.9,3.9.9,8.5,0,4.7-.8,10.4-4,14.9-1.6,2.2-3.7,4.2-6.7,5.6-2.9,1.4-6.7,2.3-11.6,2.3s-4.7-.2-7.4-.6c-3.5-.5-6.4-1.6-8.8-3-3.6-2.2-6-5.3-7.6-9.3-1.6-3.9-2.3-8.6-2.3-13.8,0-15.2,6-34.3,12.1-49.6,3-7.6,6.1-14.3,8.3-19.1,1.1-2.4,2.1-4.3,2.7-5.6.3-.7.6-1.2.8-1.5.2-.3.3-.5.3-.5.3-.5,0-1.1-.4-1.4-.5-.3-1.1,0-1.4.4Z"/>
  <path class="cls-1" d="M143.4,418.3s6.4,6.8,23.2,9c16.8,2.2,37.4-11.7,29.8-27.1-4-8.1-11.1-14.6-11.1-14.6l3-11.3"/>
  <path class="cls-6" d="M142.7,418.9c.1.1,6.8,7.1,23.8,9.3,1.2.2,2.4.2,3.7.2,6.9,0,14.1-2.4,19.5-6.2,2.7-1.9,5.1-4.2,6.7-6.9,1.6-2.6,2.6-5.5,2.6-8.6,0-2.3-.5-4.7-1.7-7.1-4.1-8.3-11.2-14.9-11.3-14.9l-.7.7,1,.3,3-11.3c.1-.5-.2-1.1-.7-1.2-.5-.1-1.1.2-1.2.7l-3,11.3c0,.4,0,.7.3,1h0c.7.8,7.1,6.9,10.8,14.3,1.1,2.1,1.5,4.2,1.5,6.2,0,2.6-.8,5.2-2.3,7.5-2.2,3.5-5.9,6.6-10.3,8.7-4.4,2.2-9.4,3.4-14.3,3.4-1.1,0-2.3,0-3.4-.2-8.3-1.1-13.9-3.3-17.5-5.2-1.8-1-3.1-1.8-3.9-2.5-.4-.3-.7-.6-.9-.8,0,0-.2-.2-.2-.2h0s0,0,0,0l-.2.2.2-.2h0s-.2.2-.2.2l.2-.2c-.4-.4-1-.4-1.4,0-.4.4-.4,1,0,1.4Z"/>
  <path class="cls-8" d="M196.3,396.9s2.1.7,13.3,4.9c11.2,4.2,13.9,13.3,15.9,18.9,2,5.6,1.7,10.6-2.4,11.7-5.5,1.5-8.9-8.6-8.9-8.6,0,0,2.8,14.4-3.7,15.6-4.6.8-6-1.8-6-1.8,0,0-1,5.3-6.3,4.3-6.3-1.1-5.5-10.6-5.5-10.6,0,0-.3,2.9-5.1,2.2-5.9-.8-6.2-12-6.2-12,0,0-5.3.9-9.6-.5,0,0-7-1.3-8.2-8.9-1.1-7.6,5.4-16.5,16.5-17.4,7.9-.6,15.9,2.1,15.9,2.1"/>
  <path class="cls-6" d="M196.3,396.9l-.3.9h.1c.5.2,3.4,1.2,13.2,4.8,5.4,2,8.7,5.2,10.9,8.5,2.2,3.4,3.4,7,4.4,9.8.7,2.1,1.1,4,1.1,5.6,0,1.3-.3,2.4-.7,3.2-.5.8-1.1,1.3-2.1,1.6-.3,0-.6.1-.9.1-.9,0-1.8-.4-2.6-1.1-1.3-1.1-2.4-2.8-3.1-4.3-.4-.7-.7-1.4-.8-1.9,0-.2-.2-.4-.2-.6h0c0-.1,0-.2,0-.2-.2-.5-.7-.8-1.2-.7s-.8.6-.7,1.2h0c.1.7.6,3.5.6,6.4,0,1.9-.2,3.9-.8,5.4-.3.7-.6,1.3-1.1,1.8-.4.4-.9.7-1.6.8-.6.1-1.1.1-1.5.1-1.4,0-2.3-.4-2.8-.8-.2-.2-.4-.4-.5-.5h0c0-.1,0-.2,0-.2l-.4.2.4-.2h0s-.4.2-.4.2l.4-.2c-.2-.4-.6-.6-1-.5-.4,0-.8.4-.8.8h.1s-.1,0-.1,0h0s.1,0,.1,0h-.1s-.2,1-.9,1.9c-.3.4-.7.9-1.2,1.2-.5.3-1.1.5-2,.5-.3,0-.7,0-1.1-.1-1.1-.2-1.8-.6-2.4-1.2-.9-.9-1.5-2.3-1.8-3.6-.3-1.4-.4-2.7-.4-3.6,0-.3,0-.6,0-.7v-.2s0,0,0,0c0-.5-.4-1-.9-1.1-.5,0-1,.3-1.1.9h.5s-.5,0-.5,0h0s.5,0,.5,0h-.5c0,0,0,.3-.4.6-.3.3-.9.7-2.3.7-.4,0-.8,0-1.2,0-1.2-.2-2.1-.8-2.8-1.8-1.1-1.5-1.8-3.8-2.2-5.8-.2-1-.3-1.8-.3-2.4,0-.3,0-.6,0-.7v-.2s0,0,0,0c0-.3-.1-.6-.4-.7-.2-.2-.5-.3-.8-.2h0c-.3,0-1.8.3-3.8.3-1.7,0-3.6-.2-5.3-.7h-.1s0,.3,0,.3v-.4c0,0,0,0,0,0v.4c0,0,0-.4,0-.4,0,0-1.7-.3-3.4-1.5-.9-.6-1.7-1.4-2.4-2.4-.7-1.1-1.3-2.4-1.6-4.1,0-.5-.1-1-.1-1.6,0-3.3,1.5-6.8,4.2-9.5,2.7-2.8,6.6-4.8,11.5-5.2.8,0,1.5,0,2.3,0,3.4,0,6.8.5,9.2,1.1,1.2.3,2.2.5,2.9.7.4.1.6.2.8.2,0,0,.2,0,.2,0h0s0,0,0,0l.3-.9.3-.9c0,0-6.6-2.3-13.9-2.3-.8,0-1.6,0-2.4,0-5.4.4-9.7,2.6-12.8,5.7-3,3.1-4.8,7-4.8,10.9,0,.6,0,1.2.1,1.9.3,2,1,3.7,1.9,5,1.4,2,3.1,3.1,4.5,3.8,1.4.7,2.5.9,2.5.9l.2-1-.3,1c2,.6,4.1.8,5.9.8,2.3,0,4.1-.3,4.1-.3l-.2-1h-1c0,0,0,2.9.9,5.9.4,1.5,1.1,3.1,2,4.4,1,1.3,2.3,2.4,4.1,2.6.5,0,1,.1,1.5.1,1,0,1.8-.2,2.4-.4,1-.4,1.6-1.1,1.9-1.7.3-.6.4-1,.4-1.1h-1c0-.1-1-.2-1-.2,0,0,0,.5,0,1.1,0,1.3.1,3.6,1,5.7.4,1.1,1,2.1,1.9,3,.9.9,2.1,1.5,3.5,1.8.5,0,1,.1,1.4.1,1.2,0,2.3-.3,3.1-.8,1.2-.8,2-1.9,2.4-2.8.4-.9.6-1.6.6-1.6l-1-.2-.9.4c0,0,.4.7,1.2,1.3.8.6,2.1,1.2,4,1.2.6,0,1.2,0,1.9-.2,1.1-.2,2-.7,2.7-1.4,1-1,1.6-2.4,2-3.9.3-1.5.5-3.1.5-4.7,0-3.6-.6-6.7-.6-6.8l-1,.2-1,.3s.8,2.3,2.2,4.6c.7,1.2,1.6,2.3,2.6,3.3,1.1.9,2.4,1.6,3.9,1.6s.9,0,1.4-.2c1.5-.4,2.6-1.3,3.3-2.5.7-1.2,1-2.6,1-4.2,0-1.9-.5-4.1-1.3-6.3-1-2.8-2.2-6.5-4.6-10.2-2.4-3.6-6.1-7.2-11.9-9.3-11.2-4.2-13.3-4.9-13.4-4.9h0s-.3.9-.3.9Z"/>
  <path class="cls-8" d="M214.4,423.7s0-6.6-4.7-9.8"/>
  <path class="cls-6" d="M215.4,423.7c0,0,0-1.8-.7-4-.6-2.2-1.9-4.8-4.5-6.6-.5-.3-1.1-.2-1.4.3s-.2,1.1.3,1.4c2,1.4,3.1,3.6,3.7,5.5.3,1,.4,1.8.5,2.5,0,.3,0,.6,0,.7v.2s0,0,0,0h0c0,.6.5,1,1,1,.6,0,1-.5,1-1Z"/>
  <path class="cls-8" d="M192.9,431.2s.6-2.2.4-6.2c-.2-4-.6-7.4-5-10.5"/>
  <path class="cls-6" d="M193.9,431.4c0,0,.4-1.7.4-4.8s0-1.1,0-1.7c-.1-2-.2-4-1-5.9-.7-1.9-2.1-3.8-4.4-5.4-.4-.3-1.1-.2-1.4.2-.3.5-.2,1.1.2,1.4,2.1,1.5,3.1,2.9,3.7,4.5.6,1.6.8,3.3.9,5.3,0,.6,0,1.1,0,1.6,0,1.4,0,2.5-.2,3.2,0,.4,0,.6-.1.8v.2s0,0,0,0h0s.3,0,.3,0h-.3c0,0,0,0,0,0h.3c0,0-.3,0-.3,0-.1.5.2,1.1.7,1.2.5.1,1.1-.2,1.2-.7Z"/>
  <path class="cls-8" d="M204.8,437.4s.7-3.5.8-7.8c.1-4.3-.8-12.2-6-15.7"/>
  <path class="cls-6" d="M205.7,437.6s.7-3.6.8-8c0-.2,0-.5,0-.7,0-2.3-.3-5.3-1.2-8.2-.9-2.9-2.5-5.8-5.2-7.6-.5-.3-1.1-.2-1.4.3-.3.5-.2,1.1.3,1.4,2.2,1.5,3.6,3.9,4.4,6.6.8,2.6,1.1,5.5,1.1,7.6,0,.2,0,.5,0,.7,0,2.1-.3,4-.4,5.4,0,.7-.2,1.3-.2,1.6,0,.2,0,.3,0,.4,0,.1,0,.1,0,.1-.1.5.2,1.1.8,1.2.5.1,1.1-.2,1.2-.8Z"/>
  <path class="cls-1" d="M327,319s51.3,97,4.8,103.8c-38.8,5.7-29.8-31.8-29.8-31.8"/>
  <path class="cls-6" d="M326.1,319.5s0,.2.3.5c1.3,2.6,7.3,14.4,13,29.1,5.7,14.7,11,32.5,10.9,46.7,0,6.9-1.2,12.9-4.2,17.4-1.5,2.3-3.3,4.1-5.7,5.6-2.4,1.5-5.3,2.5-8.8,3-2.7.4-5.1.6-7.4.6-4.8,0-8.6-.9-11.6-2.3-4.4-2.1-7-5.4-8.6-9.1-1.6-3.7-2-7.8-2-11.3,0-2.4.2-4.5.4-6.1.1-.8.2-1.4.3-1.8,0-.2,0-.4,0-.5h0c0-.1,0-.2,0-.2.1-.5-.2-1.1-.7-1.2-.5-.1-1.1.2-1.2.7,0,0-.9,3.9-.9,8.9,0,4.9.8,11,4.3,16,1.7,2.5,4.2,4.7,7.4,6.2,3.3,1.5,7.3,2.5,12.4,2.5s4.9-.2,7.7-.6c3.7-.6,6.9-1.7,9.6-3.3,4-2.4,6.7-6,8.4-10.2,1.7-4.2,2.4-9.2,2.4-14.5,0-15.7-6.1-34.9-12.2-50.3-6.1-15.4-12.2-26.9-12.2-26.9-.3-.5-.9-.7-1.4-.4-.5.3-.7.9-.4,1.4Z"/>
  <path class="cls-1" d="M342.9,418.3s-6.4,6.8-23.2,9c-16.8,2.2-37.4-11.7-29.8-27.1,4-8.1,11.1-14.6,11.1-14.6l-3-11.3"/>
  <path class="cls-6" d="M342.2,417.6l.2.2-.2-.2h0s.2.2.2.2l-.2-.2c0,0-6.3,6.6-22.6,8.7-1.1.1-2.3.2-3.4.2-6.5,0-13.3-2.2-18.4-5.9-2.6-1.8-4.7-3.9-6.2-6.3-1.5-2.3-2.3-4.9-2.3-7.5,0-2,.5-4.1,1.5-6.2,2-4,4.7-7.6,6.9-10.2,1.1-1.3,2.1-2.3,2.8-3.1.4-.4.6-.6.8-.8,0,0,.2-.2.2-.2h0c.3-.3.4-.7.3-1.1l-3-11.3c-.1-.5-.7-.8-1.2-.7-.5.1-.8.7-.7,1.2l3,11.3,1-.3-.7-.7s-7.1,6.6-11.3,14.9c-1.2,2.4-1.7,4.8-1.7,7.1,0,3.1,1,6,2.6,8.6,2.5,3.9,6.4,7.2,11.1,9.5,4.6,2.3,10,3.6,15.2,3.6,1.2,0,2.5,0,3.7-.2,17-2.2,23.7-9.1,23.8-9.3.4-.4.4-1,0-1.4-.4-.4-1-.4-1.4,0Z"/>
  <path class="cls-8" d="M289.9,396.9s-2.1.7-13.3,4.9c-11.2,4.2-13.9,13.3-15.9,18.9-2,5.6-1.7,10.6,2.4,11.7,5.5,1.5,8.9-8.6,8.9-8.6,0,0-2.8,14.4,3.7,15.6,4.6.8,6-1.8,6-1.8,0,0,1,5.3,6.3,4.3,6.3-1.1,5.5-10.6,5.5-10.6,0,0,.3,2.9,5.1,2.2,5.9-.8,6.2-12,6.2-12,0,0,5.3.9,9.6-.5,0,0,7-1.3,8.2-8.9,1.1-7.6-5.4-16.5-16.5-17.4-7.9-.6-15.9,2.1-15.9,2.1"/>
  <path class="cls-6" d="M289.9,396.9l-.3-.9s-2.1.7-13.4,4.9c-5.8,2.2-9.5,5.7-11.9,9.3-2.4,3.6-3.6,7.4-4.6,10.2-.8,2.2-1.3,4.4-1.3,6.3,0,1.6.3,3,1,4.2.7,1.2,1.8,2.1,3.3,2.5.5.1.9.2,1.4.2,1.5,0,2.8-.7,3.9-1.6,1.6-1.4,2.8-3.3,3.6-4.9.8-1.6,1.2-2.9,1.2-2.9l-.9-.3-1-.2s-.6,3.2-.6,6.8c0,2.1.2,4.2.9,6.1.4.9.8,1.8,1.5,2.5.7.7,1.6,1.2,2.7,1.4.7.1,1.3.2,1.9.2,1.8,0,3.1-.6,4-1.2.8-.6,1.1-1.2,1.2-1.3l-.9-.4-1,.2c0,0,.2,1.3,1.1,2.6.4.6,1,1.3,1.8,1.8.8.5,1.9.8,3.1.8.5,0,.9,0,1.4-.1,1.4-.3,2.6-.9,3.5-1.8,1.3-1.3,2-3,2.4-4.6.4-1.6.5-3.1.5-4.1,0-.7,0-1.1,0-1.1h-1c0,0-1,.2-1,.2,0,.1.1.9.8,1.7.3.4.8.8,1.5,1.1.7.3,1.5.4,2.4.4s1,0,1.5-.1c1.8-.3,3.2-1.3,4.1-2.6,1.5-2,2.1-4.5,2.5-6.6.4-2.1.4-3.7.4-3.7h-1s-.2,1-.2,1c0,0,1.8.3,4.1.3,1.8,0,3.9-.2,5.9-.8l-.3-1,.2,1c0,0,2-.4,4-1.8,1-.7,2.1-1.7,3-3,.9-1.3,1.6-3,1.9-5,0-.6.1-1.2.1-1.9,0-3.9-1.7-7.8-4.8-10.9-3-3.1-7.4-5.3-12.8-5.7-.8,0-1.6,0-2.4,0-7.3,0-13.8,2.3-13.9,2.3h0s.3.9.3.9l.3.9h0c.7-.2,6.7-2.2,13.2-2.2.8,0,1.5,0,2.3,0,4.9.4,8.8,2.4,11.5,5.2,2.7,2.8,4.2,6.2,4.2,9.5,0,.5,0,1.1-.1,1.6-.3,1.7-.9,3.1-1.6,4.2-1.1,1.6-2.6,2.6-3.7,3.2-.6.3-1.1.5-1.5.6-.2,0-.3,0-.4.1h-.1s0,0,0,0h0s0,0,0,0h0s0,0,0,0h-.1c-1.7.6-3.6.7-5.3.7-1.1,0-2.1,0-2.7-.1-.3,0-.6,0-.8,0,0,0-.2,0-.2,0h0c-.3,0-.6,0-.8.2-.2.2-.4.5-.4.7h0c0,.7-.2,3.4-1,5.9-.4,1.3-1,2.5-1.7,3.4-.7.9-1.6,1.5-2.7,1.6-.5,0-.9,0-1.2,0-.8,0-1.3-.1-1.7-.3-.6-.2-.8-.5-.9-.8,0-.1-.1-.2-.1-.3h0c0,0-.6,0-.6,0h.6c0,0,0,0,0,0h-.6c0,0,.6,0,.6,0,0-.5-.5-.9-1.1-.9s-.9.5-.9,1.1h0c0,.2,0,.5,0,1,0,1.2-.1,3.2-.8,5-.3.9-.8,1.7-1.4,2.3-.6.6-1.4,1.1-2.4,1.2-.4,0-.8.1-1.1.1-.9,0-1.5-.2-2.1-.5-.8-.5-1.3-1.2-1.6-1.9-.2-.3-.3-.6-.3-.8,0-.1,0-.2,0-.2h0c0,0,0,0,0,0h-.3c0,0,.3,0,.3,0h0s-.3,0-.3,0h.3c0-.5-.4-.8-.8-.9-.4,0-.8.2-1,.5l.4.2-.4-.2h0s.4.2.4.2l-.4-.2s-.2.4-.7.7c-.5.3-1.3.7-2.7.7-.4,0-1,0-1.5-.1-.7-.1-1.2-.4-1.6-.8-.6-.6-1.1-1.7-1.4-3-.3-1.3-.4-2.8-.4-4.2,0-1.7.1-3.3.3-4.5,0-.6.1-1.1.2-1.4,0-.2,0-.3,0-.4h0c.1-.6-.2-1.2-.7-1.3-.5-.1-1,.2-1.2.7h0c0,.2-.8,2.4-2.1,4.4-.6,1-1.4,2-2.2,2.6-.8.7-1.7,1.1-2.5,1.1s-.6,0-.9-.1c-1-.3-1.6-.8-2.1-1.6-.5-.8-.7-1.8-.7-3.2,0-1.6.4-3.6,1.1-5.6,1-2.8,2.2-6.4,4.4-9.8,2.2-3.4,5.5-6.5,10.9-8.5,5.6-2.1,8.9-3.3,10.9-4,1-.3,1.6-.6,1.9-.7.2,0,.3-.1.4-.1h.1s0,0,0,0l-.3-.9Z"/>
  <path class="cls-8" d="M271.9,423.7s0-6.6,4.7-9.8"/>
  <path class="cls-6" d="M272.9,423.7h0c0-.1,0-1.7.6-3.6.6-1.9,1.7-4,3.7-5.3.5-.3.6-.9.3-1.4-.3-.5-.9-.6-1.4-.3-2.6,1.8-3.9,4.4-4.5,6.6-.6,2.2-.7,3.9-.7,4,0,.6.4,1,1,1,.6,0,1-.4,1-1Z"/>
  <path class="cls-8" d="M293.3,431.2s-.6-2.2-.4-6.2c.2-4,.6-7.4,5-10.5"/>
  <path class="cls-6" d="M294.3,430.9h-.3c0,0,.3,0,.3,0h0s-.3,0-.3,0h.3c0-.1-.4-1.6-.4-4.3s0-1,0-1.6c0-2,.2-3.7.9-5.3.6-1.6,1.7-3,3.7-4.5.5-.3.6-.9.2-1.4-.3-.5-.9-.6-1.4-.2-2.3,1.7-3.7,3.5-4.4,5.4-.7,1.9-.9,3.9-1,5.9,0,.6,0,1.2,0,1.7,0,3,.4,4.7.4,4.8.1.5.7.9,1.2.7.5-.1.9-.7.7-1.2Z"/>
  <path class="cls-8" d="M281.5,437.4s-.7-3.5-.8-7.8c-.1-4.3.8-12.2,6-15.7"/>
  <path class="cls-6" d="M282.5,437.2s0,0,0-.1c-.1-.7-.7-3.8-.8-7.5,0-.2,0-.4,0-.7,0-2.1.3-5,1.1-7.6.8-2.6,2.2-5.1,4.5-6.6.5-.3.6-.9.3-1.4-.3-.5-.9-.6-1.4-.3-2.7,1.8-4.3,4.7-5.2,7.6-.9,2.9-1.2,5.9-1.2,8.2,0,.3,0,.5,0,.7.1,4.4.8,8,.8,8,.1.5.6.9,1.2.8.5-.1.9-.6.8-1.2Z"/>
  <path class="cls-10" d="M338.3,368.6h-195.2c-15.2,0-27.5-12.3-27.5-27.5s12.3-27.5,27.5-27.5h195.2c15.2,0,27.5,12.3,27.5,27.5s-12.3,27.5-27.5,27.5"/>
  <path class="cls-6" d="M338.3,368.6v-1h-195.2c-7.3,0-13.9-3-18.7-7.8-4.8-4.8-7.8-11.4-7.8-18.7,0-7.3,3-13.9,7.8-18.7,4.8-4.8,11.4-7.8,18.7-7.8h195.2c7.3,0,13.9,3,18.7,7.8,4.8,4.8,7.8,11.4,7.8,18.7,0,7.3-3,13.9-7.8,18.7-4.8,4.8-11.4,7.8-18.7,7.8v2c15.7,0,28.5-12.8,28.5-28.5h0c0-15.7-12.8-28.5-28.5-28.5h-195.2c-15.7,0-28.5,12.8-28.5,28.5,0,15.7,12.8,28.5,28.5,28.5h195.2v-1Z"/>
  <path class="cls-10" d="M143.1,362.6c-11.9,0-21.5-9.6-21.5-21.5s9.6-21.5,21.5-21.5h195.2c11.9,0,21.5,9.6,21.5,21.5s-9.6,21.5-21.5,21.5h-195.2Z"/>
  <path class="cls-6" d="M143.1,362.6v-1c-5.7,0-10.8-2.3-14.5-6-3.7-3.7-6-8.8-6-14.5s2.3-10.8,6-14.5c3.7-3.7,8.8-6,14.5-6h195.2c5.7,0,10.8,2.3,14.5,6,3.7,3.7,6,8.8,6,14.5,0,5.7-2.3,10.8-6,14.5-3.7,3.7-8.8,6-14.5,6h-195.2v2h195.2c12.4,0,22.5-10.1,22.5-22.5,0-12.4-10.1-22.5-22.5-22.5h-195.2c-12.4,0-22.5,10.1-22.5,22.5,0,12.4,10.1,22.5,22.5,22.5v-1Z"/>
  <path class="cls-9" d="M359.8,341.1c0,11.9-9.6,21.5-21.5,21.5s-21.5-9.6-21.5-21.5,9.6-21.5,21.5-21.5,21.5,9.6,21.5,21.5"/>
  <path class="cls-6" d="M359.8,341.1h-1c0,5.7-2.3,10.8-6,14.5-3.7,3.7-8.8,6-14.5,6s-10.8-2.3-14.5-6c-3.7-3.7-6-8.8-6-14.5,0-5.7,2.3-10.8,6-14.5,3.7-3.7,8.8-6,14.5-6,5.7,0,10.8,2.3,14.5,6,3.7,3.7,6,8.8,6,14.5h2c0-12.4-10.1-22.5-22.5-22.5-12.4,0-22.5,10.1-22.5,22.5s10.1,22.5,22.5,22.5,22.5-10.1,22.5-22.5h-1Z"/>
  <path class="cls-6" d="M143.8,341.1h2.4c1.4,0,2.2-1.1,2.2-2.2h0c0-1.3-.8-2.4-2.2-2.4h-1.8c-.5,0-.6.1-.6.6v4ZM143.8,344.7v5h-4.3v-13.6c0-2.4.8-3.3,3.3-3.3h3.7c3.6,0,6.3,1.8,6.3,5.8v.4c0,4-2.7,5.8-6.3,5.8h-2.6Z"/>
  <path class="cls-6" d="M158.8,340.5h2.7c1.4,0,2.1-.9,2.1-2h0c0-1.2-.7-2.1-2.1-2.1h-2.1c-.5,0-.6.1-.6.6v3.5ZM165.5,343l4,6.7h-4.8l-3.2-5.7h-2.7v5.7h-4.3v-13.6c0-2.4.8-3.3,3.3-3.3h3.9c3.6,0,6.3,1.7,6.3,5.5v.3c0,2-1.1,3.5-2.5,4.5"/>
  <path class="cls-6" d="M179.6,339c0-1.9-1.4-2.7-2.8-2.7s-2.8.8-2.8,2.7v4.9c0,1.7,1.6,2.7,2.8,2.7s2.8-1,2.8-2.7v-4.9ZM169.8,339.1c0-4.8,3.9-6.4,7.1-6.4s7.1,1.6,7.1,6.4v4.6c0,4.8-4,6.4-7.1,6.4s-7.1-1.6-7.1-6.4v-4.6Z"/>
  <path class="cls-6" d="M192.4,348l-2.1-7.7-1,9.5h-4l1.8-14.9c.1-1.3,1.3-2,2.2-2.1,1,0,2.4.3,2.8,1.7l2.5,9.6,2.5-9.6c.4-1.4,1.8-1.8,2.8-1.7.9,0,2.1.8,2.2,2.1l1.8,14.9h-4l-.9-9.5-2.1,7.7c-.2.7-1.5,1-2.3,1s-2-.3-2.3-1"/>
  <path class="cls-6" d="M210.2,341.1h2.4c1.4,0,2.2-1.1,2.2-2.2h0c0-1.3-.8-2.4-2.2-2.4h-1.8c-.5,0-.6.1-.6.6v4ZM210.2,344.7v5h-4.3v-13.6c0-2.4.8-3.3,3.3-3.3h3.7c3.6,0,6.3,1.8,6.3,5.8v.4c0,4-2.7,5.8-6.3,5.8h-2.6Z"/>
  <path class="cls-6" d="M224.7,349.7v-13.2h-3.2c-1.2,0-1.7-1-1.7-1.9s.5-1.8,1.7-1.8h10.8c1.2,0,1.7.9,1.7,1.8s-.5,1.9-1.7,1.9h-3.2v13.2h-4.4Z"/>
  <path class="cls-6" d="M243,343.7c1.4,0,2.3.8,2.3,2.1s-.8,2.1-2.3,2.1-2.3-.8-2.3-2.1.8-2.1,2.3-2.1M243,334.5c1.4,0,2.3.8,2.3,2.1s-.8,2.1-2.3,2.1-2.3-.8-2.3-2.1.8-2.1,2.3-2.1"/>
  <path class="cls-6" d="M254.1,346.1h7.6c1.2,0,1.7.9,1.7,1.8s-.5,1.9-1.7,1.9h-7.6c-1.2,0-1.7-1-1.7-1.9s.5-1.8,1.7-1.8"/>
  <path class="cls-11" d="M141.7,263.7c-4.7,0-8.5-3.8-8.5-8.5s3.8-8.5,8.5-8.5,8.5,3.8,8.5,8.5-3.8,8.5-8.5,8.5M174.2,259.4v-8.4l-8.4-1.7c-.6-2.5-1.6-4.8-2.9-6.9l4.7-7.1-5.9-5.9-7.1,4.7c-2.1-1.3-4.5-2.3-6.9-2.9l-1.7-8.4h-8.4l-1.7,8.4c-2.5.6-4.8,1.6-6.9,2.9l-7.1-4.7-5.9,5.9,4.7,7.1c-1.3,2.1-2.3,4.5-2.9,6.9l-8.4,1.7v8.4l8.4,1.7c.6,2.5,1.6,4.8,2.9,6.9l-4.7,7.1,5.9,5.9,7.1-4.7c2.1,1.3,4.5,2.3,6.9,2.9l1.7,8.4h8.4l1.7-8.4c2.5-.6,4.8-1.6,6.9-2.9l7.1,4.7,5.9-5.9-4.7-7.1c1.3-2.1,2.3-4.5,2.9-6.9l8.4-1.7Z"/>
  <path class="cls-6" d="M141.7,263.7v-1c-2.1,0-3.9-.8-5.3-2.2-1.4-1.4-2.2-3.2-2.2-5.3,0-2.1.8-3.9,2.2-5.3,1.4-1.4,3.2-2.2,5.3-2.2,2.1,0,3.9.8,5.3,2.2,1.4,1.4,2.2,3.2,2.2,5.3s-.8,3.9-2.2,5.3c-1.4,1.4-3.2,2.2-5.3,2.2v2c5.2,0,9.5-4.2,9.5-9.5s-4.2-9.5-9.5-9.5-9.5,4.2-9.5,9.5,4.2,9.5,9.5,9.5v-1ZM174.2,259.4h1v-8.4c0-.5-.3-.9-.8-1l-8.4-1.7-.2,1,1-.2c-.6-2.6-1.6-5-3-7.2l-.9.5.8.6,4.7-7.1c.3-.4.2-.9-.1-1.3l-5.9-5.9c-.3-.3-.9-.4-1.3-.1l-7.1,4.7.6.8.5-.9c-2.2-1.3-4.6-2.4-7.2-3l-.2,1,1-.2-1.7-8.4c0-.5-.5-.8-1-.8h-8.4c-.5,0-.9.3-1,.8l-1.7,8.4,1,.2-.2-1c-2.6.6-5,1.6-7.2,3l.5.9.6-.8-7.1-4.7c-.4-.3-.9-.2-1.3.1l-5.9,5.9c-.3.3-.4.9-.1,1.3l4.7,7.1.8-.6-.9-.5c-1.3,2.2-2.4,4.6-3,7.2l1,.2-.2-1-8.4,1.7c-.5,0-.8.5-.8,1v8.4c0,.5.3.9.8,1l8.4,1.7.2-1-1,.2c.6,2.6,1.6,5,3,7.2l.9-.5-.8-.6-4.7,7.1c-.3.4-.2.9.1,1.3l5.9,5.9c.3.3.9.4,1.3.1l7.1-4.7-.6-.8-.5.9c2.2,1.3,4.6,2.4,7.2,3l.2-1-1,.2,1.7,8.4c0,.5.5.8,1,.8h8.4c.5,0,.9-.3,1-.8l1.7-8.4-1-.2.2,1c2.6-.6,5-1.6,7.2-3l-.5-.9-.6.8,7.1,4.7c.4.3.9.2,1.3-.1l5.9-5.9c.3-.3.4-.9.1-1.3l-4.7-7.1-.8.6.9.5c1.3-2.2,2.4-4.6,3-7.2l-1-.2.2,1,8.4-1.7c.5,0,.8-.5.8-1h-1l-.2-1-8.4,1.7c-.4,0-.7.4-.8.7-.6,2.4-1.5,4.6-2.8,6.7-.2.3-.2.7,0,1.1l4.3,6.5-4.8,4.8-6.5-4.3c-.3-.2-.7-.2-1.1,0-2,1.2-4.3,2.2-6.7,2.8-.4,0-.7.4-.7.8l-1.6,7.6h-6.8l-1.6-7.6c0-.4-.4-.7-.7-.8-2.4-.6-4.6-1.5-6.7-2.8-.3-.2-.7-.2-1.1,0l-6.5,4.3-4.8-4.8,4.3-6.5c.2-.3.2-.7,0-1.1-1.2-2-2.2-4.3-2.8-6.7,0-.4-.4-.7-.8-.7l-7.6-1.6v-6.8l7.6-1.6c.4,0,.7-.4.8-.7.6-2.4,1.5-4.6,2.8-6.7.2-.3.2-.7,0-1.1l-4.3-6.5,4.8-4.8,6.5,4.3c.3.2.7.2,1.1,0,2-1.2,4.3-2.2,6.7-2.8.4,0,.7-.4.7-.8l1.6-7.6h6.8l1.6,7.6c0,.4.4.7.7.8,2.4.6,4.6,1.5,6.7,2.8.3.2.7.2,1.1,0l6.5-4.3,4.8,4.8-4.3,6.5c-.2.3-.2.7,0,1.1,1.2,2,2.2,4.3,2.8,6.7,0,.4.4.7.8.7l7.6,1.6v7.6h1l-.2-1,.2,1Z"/>
  <polygon class="cls-3" points="346 268.1 318 254 332.2 281.9 337.7 276.4 349.6 288.3 352.4 285.5 340.5 273.6 346 268.1"/>
  <path class="cls-6" d="M346,268.1l.5-.9-27.9-14.1c-.4-.2-.9-.1-1.2.2-.3.3-.4.8-.2,1.2l14.1,27.9c.1.3.4.5.7.5.3,0,.6,0,.9-.3l4.8-4.8,11.2,11.2c.2.2.4.3.7.3s.5-.1.7-.3l2.8-2.8c.2-.2.3-.4.3-.7s-.1-.5-.3-.7l-11.2-11.2,4.8-4.8c.2-.2.3-.5.3-.9,0-.3-.2-.6-.5-.7l-.5.9-.7-.7-5.5,5.5c-.4.4-.4,1,0,1.4l11.2,11.2-1.4,1.4-11.2-11.2c-.2-.2-.4-.3-.7-.3s-.5.1-.7.3l-4.5,4.5-12.1-24,25.2,12.7.5-.9-.7-.7.7.7Z"/>
</svg>