<?xml version="1.0" encoding="UTF-8"?>
<svg id="_레이어_1" data-name=" 레이어 1" xmlns="http://www.w3.org/2000/svg" version="1.1" viewBox="0 0 475 475">
  <defs>
    <style>
      .cls-1 {
        fill: #6172e8;
      }

      .cls-1, .cls-2 {
        stroke-width: 0px;
      }

      .cls-3, .cls-4 {
        fill: none;
        stroke: #3d2117;
      }

      .cls-4 {
        stroke-width: 4px;
      }

      .cls-2 {
        fill: #fff;
      }
    </style>
  </defs>
  <rect class="cls-1" x="2" y="2" width="471" height="471" rx="14.2" ry="14.2"/>
  <rect class="cls-3" x="2" y="2" width="471" height="471" rx="14.2" ry="14.2"/>
  <g>
    <path class="cls-4" d="M324.4,195.5c0,.9.1,1.7.4,2.4.3.7.6,1.3,1.1,1.8s1,.9,1.7,1.2,1.4.4,2.2.4,1.6-.1,2.2-.4c.7-.3,1.2-.7,1.7-1.2s.8-1.1,1.1-1.8.4-1.5.4-2.4-.1-1.7-.4-2.4c-.3-.7-.6-1.3-1.1-1.8s-1-.9-1.7-1.2-1.4-.4-2.2-.4-1.6.1-2.2.4c-.7.3-1.2.7-1.7,1.2s-.8,1.1-1.1,1.8-.4,1.5-.4,2.4ZM332.9,203.9c0-.4-.3-.6-.7-.6h-1.4c-.2,0-.4,0-.5.2-.1.1-.2.3-.1.5v2.4c0,.7-.2,1.3-.6,1.6-.4.4-1,.6-1.8.6h-5.3c-.7,0-1.4,0-2.1-.1-.7,0-1.4-.1-2.1-.2-.4,0-.6.1-.6.6v1.3c-.1.4,0,.6.5.6,1.2.1,2.6.2,4.1.3,1.6,0,3.3.1,5.3.1s3-.4,3.9-1.2,1.4-1.9,1.4-3.3v-1.5c0-.5,0-.9-.1-1.2h.1ZM327.1,195.5c0-1,.2-1.8.7-2.4.5-.6,1.1-.9,1.9-.9s1.5.3,1.9.9c.5.6.7,1.4.7,2.4s-.2,1.8-.7,2.4c-.5.6-1.1.9-1.9.9s-1.5-.3-1.9-.9c-.5-.6-.7-1.4-.7-2.4ZM321.2,190c0-.4-.2-.6-.6-.6h-1.5c-.4,0-.6.2-.6.6v13.5c0,.4.2.6.6.6h1.5c.4,0,.6-.2.6-.6v-13.5Z"/>
    <path class="cls-4" d="M314.3,201.2c.4,0,.6-.3.6-.6v-1.3c0-.4-.2-.6-.6-.6-.9,0-1.9.1-3,.2h-3.2c.2-.1.4-.3.4-.6v-2.6c0-.4-.2-.6-.6-.6h-1.5c-.4,0-.6.2-.6.6v2.6c0,.4-.2.6-.6.6h-5.9c-.7,0-1.2,0-1.7-.1-.4,0-.6.1-.6.6v1.3c0,.4.2.6.6.6s1,0,1.6.1h12.3c1.4,0,2.4,0,3.1-.2h-.3ZM313.6,206.8c0-1.5-.6-2.5-1.9-3.2-1.3-.7-3.3-1-5.9-1s-4.6.3-5.9,1-1.9,1.7-1.9,3.2.6,2.5,1.9,3.2c1.3.7,3.3,1,5.9,1s4.6-.3,5.9-1c1.3-.7,1.9-1.8,1.9-3.2ZM301.3,194.7c0-.8.2-1.4.6-1.7s1-.5,1.9-.5h4.3c1.3,0,2.8.2,4.2.3.4,0,.6-.1.6-.6v-1.3c0-.4-.2-.6-.6-.6-1.3-.1-2.7-.2-4.2-.3-1.5,0-3.1-.1-4.6-.1s-2.9.3-3.7,1-1.2,1.7-1.2,3.1v1.8c0,.5.1,1,.2,1.4,0,.2.1.3.2.4h.5l1.6-.2c.4,0,.5-.2.4-.6,0-.4-.2-.7-.2-1.1v-1.1h0ZM310.8,206.8c0,.7-.4,1.1-1.2,1.4s-2.1.4-3.9.4-3.1-.1-3.9-.4-1.2-.7-1.2-1.4.4-1.1,1.2-1.4,2.1-.4,3.9-.4,3.1.1,3.9.4,1.2.7,1.2,1.4Z"/>
    <path class="cls-4" d="M293.8,193.5c.4,0,.6-.2.6-.6v-1.4c0-.4-.2-.6-.6-.6h-9.8c-.4,0-.6.2-.6.6v1.4c0,.4.2.6.6.6h3.6v5.7c0,.7,0,1.4-.3,2-.2.6-.5,1.2-.8,1.7s-.7.9-1.2,1.2c-.4.3-.9.5-1.4.6-.4,0-.6.3-.6.6v1.4c0,.4.2.6.6.6.6,0,1.1-.2,1.7-.5.5-.3,1-.6,1.5-1,.4-.4.8-.8,1.2-1.3.3-.5.6-1,.7-1.6.2.6.4,1.1.7,1.6s.7.9,1.2,1.3c.4.4.9.7,1.5,1,.5.3,1.1.4,1.7.5.4,0,.6-.1.6-.6v-1.4c0-.4-.2-.6-.6-.6s-1-.3-1.4-.6-.8-.7-1.2-1.2c-.3-.5-.6-1.1-.8-1.7-.2-.6-.3-1.3-.3-2v-5.7h3.5,0ZM280.4,190c0-.4-.2-.6-.6-.6h-1.5c-.4,0-.6.2-.6.6v20c0,.4.2.6.6.6h1.5c.4,0,.6-.2.6-.6v-20Z"/>
    <path class="cls-4" d="M273.5,198.9h-13.3c-1.4,0-2.5,0-3.4-.2-.4,0-.6.1-.6.6v1.3c0,.4.2.6.6.6s1,0,1.6.1,1.3,0,2.1,0h10.2c1.4,0,2.4,0,3.1-.2.4,0,.6-.3.6-.6v-1.3c0-.4-.2-.6-.6-.6l-.3.3ZM272.8,206.9c0-1.4-.6-2.4-1.9-3.1-1.3-.7-3.3-1-5.9-1s-4.6.3-5.9,1c-1.3.7-1.9,1.7-1.9,3.1s.6,2.4,1.9,3.1,3.3,1,5.9,1,4.6-.3,5.9-1c1.3-.7,1.9-1.7,1.9-3.1ZM272,190.5c0-.4-.3-.6-.7-.6h-1.5c-.2,0-.4,0-.5.2-.1.1-.1.3-.1.5,0,.4,0,.9.1,1.5v1.4c0,.6-.2,1.1-.5,1.4-.3.3-.9.4-1.7.4h-4.9c-.7,0-1.5,0-2.2-.1s-1.4-.1-2.1-.2c-.4,0-.6.1-.6.6v1.3c-.1.4,0,.6.5.6,1.2.1,2.6.2,4.3.3,1.6,0,3.4.1,5.3.1s2.7-.4,3.5-1.1c.8-.7,1.2-1.8,1.2-3.1v-1.6c0-.6,0-1-.1-1.5h0ZM270,206.9c0,.6-.4,1-1.2,1.3s-2.1.4-3.9.4-3.1-.1-3.9-.4-1.2-.7-1.2-1.3.4-1,1.2-1.3,2.1-.4,3.9-.4,3.1.1,3.9.4,1.2.7,1.2,1.3Z"/>
    <path class="cls-4" d="M245.9,198.9h-13.3c-1.4,0-2.5,0-3.4-.2-.4,0-.6.1-.6.6v1.3c0,.4.2.6.6.6s1,0,1.6.1,1.3,0,2.1,0h10.2c1.4,0,2.4,0,3.1-.2.4,0,.6-.3.6-.6v-1.3c0-.4-.2-.6-.6-.6l-.3.3ZM245.2,206.9c0-1.4-.6-2.4-1.9-3.1-1.3-.7-3.3-1-5.9-1s-4.6.3-5.9,1c-1.3.7-1.9,1.7-1.9,3.1s.6,2.4,1.9,3.1,3.3,1,5.9,1,4.6-.3,5.9-1c1.3-.7,1.9-1.7,1.9-3.1ZM231.2,192.7c.7,0,1.3,0,1.9-.1s1,0,1.5,0h4.9c.7,0,1.3.1,1.7.2s.7.3.9.4c.2.2.3.4.3.7s0,.5-.2.7c-.1.2-.4.3-.8.4-.4.1-.9.2-1.5.2h-2.4c-1,0-2,0-3.1-.1-1.1,0-2.2-.2-3.3-.3-.4,0-.6.1-.6.6v1.3c-.1.4,0,.6.5.6,1.3.2,2.5.3,3.5.3s1.9.1,2.6.1c1.5,0,2.7,0,3.7-.2,1-.1,1.8-.4,2.5-.7.6-.3,1.1-.7,1.4-1.2.3-.5.4-1.1.4-1.9s-.1-1.3-.4-1.8c-.3-.5-.8-.9-1.4-1.2-.7-.3-1.5-.5-2.6-.7-1.1-.1-2.4-.2-3.9-.2s-.7,0-1,0h-2.5c-.5,0-1.2,0-1.9.1-.4,0-.6.2-.6.6v1.3c0,.4.2.6.6.6l-.2.3ZM242.4,206.9c0,.6-.4,1-1.2,1.3s-2.1.4-3.9.4-3.1-.1-3.9-.4-1.2-.7-1.2-1.3.4-1,1.2-1.3,2.1-.4,3.9-.4,3.1.1,3.9.4,1.2.7,1.2,1.3Z"/>
    <path class="cls-4" d="M212.3,193.9c0,.7,0,1.3-.3,1.9-.2.6-.4,1.1-.8,1.5-.3.4-.7.8-1.2,1-.4.2-.9.4-1.5.4s-.6.2-.6.6v1.3c0,.4.2.6.6.6.6,0,1.2,0,1.7-.3.5-.2,1-.5,1.5-.8.4-.3.8-.7,1.1-1.1.3-.4.5-.9.7-1.4.2.5.4.9.7,1.4.3.4.7.8,1.1,1.1s.9.6,1.5.8,1.1.3,1.8.3.6-.2.6-.6v-1.3c0-.4-.2-.6-.6-.6s-1-.1-1.5-.4c-.4-.2-.8-.6-1.2-1-.3-.4-.6-.9-.8-1.5-.2-.6-.3-1.2-.3-1.9v-3.3c0-.4-.2-.6-.6-.6h-1.5c-.4,0-.6.2-.6.6v3.3h.2ZM217,203.9c0-.4-.3-.6-.7-.6h-1.4c-.2,0-.4,0-.5.2-.1.1-.2.3-.1.5v2.4c0,.7-.2,1.3-.6,1.6-.4.4-1,.6-1.8.6h-5.3c-.7,0-1.4,0-2.1-.1-.7,0-1.4-.1-2.1-.2-.4,0-.6.1-.6.6v1.3c-.1.4,0,.6.5.6,1.2.1,2.6.2,4.1.3,1.6,0,3.3.1,5.3.1s3-.4,3.9-1.2,1.4-1.9,1.4-3.3v-1.5c0-.5,0-.9-.1-1.2h.1ZM205.2,190c0-.4-.2-.6-.6-.6h-1.5c-.4,0-.6.2-.6.6v13.5c0,.4.2.6.6.6h1.5c.4,0,.6-.2.6-.6v-13.5Z"/>
    <path class="cls-4" d="M189.4,206.8c0,.4.3.6.7.6h1.5c.2,0,.4,0,.5-.2.1-.1.1-.3.1-.5-.3-1.7-.6-3.5-.7-5.2s-.2-3.5-.2-5.2.2-1.7.6-2.1c.4-.4,1-.6,1.9-.6s1.7,0,2.4.1c.7,0,1.5.2,2.3.3.2,0,.3,0,.5-.1s.2-.3.2-.5v-1.4c0-.4-.2-.6-.6-.6-.9-.1-1.8-.2-2.7-.3-.9,0-1.7-.1-2.6-.1s-1.6,0-2.2.3c-.6.2-1.1.5-1.5.9s-.7.9-.8,1.6-.3,1.4-.3,2.4c0,1.9,0,3.7.2,5.5.1,1.7.4,3.5.7,5.3v-.2ZM185.3,190c0-.4-.2-.6-.6-.6h-1.5c-.4,0-.6.2-.6.6v20c0,.4.2.6.6.6h1.5c.4,0,.6-.2.6-.6v-20Z"/>
    <path class="cls-4" d="M162.4,210.6c.4,0,.9.1,1.5.2.6,0,1.1,0,1.7.1h3.2c1.7,0,3.2,0,4.3-.1s2-.2,2.6-.5c.6-.2,1.1-.5,1.3-.9s.4-.9.4-1.5-.1-1.1-.3-1.4c-.2-.4-.6-.7-1.2-.9s-1.3-.4-2.2-.5-2.1-.1-3.5-.1h-3.9c-.4,0-.8,0-.9-.2-.2,0-.3-.3-.3-.5s0-.5.3-.6c.2-.1.5-.2.9-.2h5c1,0,1.9,0,2.8.1.9,0,1.7,0,2.4.1.4,0,.5-.2.5-.6v-1.1c0-.4-.2-.5-.5-.6-.8,0-1.6,0-2.4-.1-.8,0-1.7,0-2.6-.1v-.6c0-.3,0-.5-.3-.6h5.8c.6,0,1.1,0,1.6-.1.4,0,.6-.2.6-.6v-1.2c0-.4-.2-.6-.6-.5-.8,0-1.8.1-3.1.2s-3.1,0-5.3,0h-7c-.6,0-1.2,0-1.6-.1-.4,0-.6.1-.6.5v1.2c0,.4.2.6.6.6s.9,0,1.5.1h5.1c.5,0,.6.2.6.6v.6h-4.1c-.8,0-1.4.2-1.7.5s-.5.7-.5,1.3.1.9.4,1.3c.3.4.7.6,1.1.8h-.9c-.3,0-.5.2-.5.5v1c0,.4.2.6.5.5h9.5c.6,0,1,0,1.4.1.3,0,.5.1.6.3,0,.1.1.3.1.4s0,.4-.2.5-.4.2-.9.3-1,0-1.8,0h-6.2c-.6,0-1.1,0-1.7-.1s-1.1-.1-1.5-.2c-.4,0-.5.1-.6.5v1.1c0,.4,0,.6.4.6h.2ZM169.2,189.9c-.4,0-.6.2-.6.6v.3c0,.5-.1,1-.4,1.5s-.6.9-1.1,1.2-1.1.6-1.7.8c-.7.2-1.4.3-2.2.3s-.4,0-.4.1c0,0-.1.2-.1.4v1.2c0,.2,0,.4.1.4,0,0,.2.1.4.1.7,0,1.4,0,2.1-.2s1.4-.4,2-.7,1.2-.7,1.6-1.1c.5-.4.8-.8,1.1-1.3.3.4.6.9,1.1,1.3.5.4,1,.8,1.6,1.1s1.3.5,2,.7,1.4.2,2.1.2.4,0,.5-.1c0,0,.1-.2.1-.4v-1.2c0-.2,0-.3-.1-.4,0,0-.2-.1-.5-.1-.8,0-1.6-.1-2.2-.3-.7-.2-1.2-.5-1.7-.8s-.8-.7-1.1-1.2c-.3-.5-.4-.9-.4-1.5v-.3c0-.4-.2-.6-.6-.6h-1.6Z"/>
    <path class="cls-4" d="M140.7,197.9c-.4,0-.6.1-.6.5v1.2c0,.4.2.6.6.6s1,0,1.6.1h12.4c1.4,0,2.4,0,3.1-.2.4,0,.6-.2.6-.6v-1.2c0-.4-.2-.6-.6-.5h-13.4c-1.4,0-2.5,0-3.5-.2l-.2.3ZM141.5,210.6c.4,0,.9.1,1.5.2.6,0,1.1,0,1.7.1h3.2c1.7,0,3.2,0,4.3-.1s2-.2,2.6-.5c.6-.2,1.1-.5,1.3-.9s.4-.9.4-1.5-.1-1.1-.3-1.4c-.2-.4-.6-.7-1.2-.9s-1.3-.4-2.2-.5-2.1-.1-3.5-.1h-3.9c-.4,0-.8,0-.9-.2-.2,0-.3-.3-.3-.5s0-.5.3-.6c.2-.1.5-.2.9-.2h5c1,0,1.9,0,2.8.1.9,0,1.7,0,2.4.1.4,0,.5-.2.5-.6v-1.1c0-.4-.2-.5-.5-.6-.9,0-1.9-.1-3-.2h-9c-.8,0-1.4.2-1.7.5s-.5.7-.5,1.3.1.9.4,1.3c.3.4.7.6,1.1.8h-.9c-.3,0-.5.2-.5.5v1c0,.4.2.6.5.5h9.5c.6,0,1,0,1.4.1.3,0,.5.1.6.3,0,.1.1.3.1.4s0,.4-.2.5-.4.2-.9.3-1,0-1.8,0h-6.2c-.6,0-1.1,0-1.7-.1s-1.1-.1-1.5-.2c-.4,0-.5.1-.6.5v1.1c0,.4,0,.6.4.6h.4ZM156.5,193.4c0-.7-.1-1.2-.4-1.7s-.7-.9-1.3-1.2c-.6-.3-1.4-.5-2.3-.6-1-.1-2.1-.2-3.4-.2s-2.5,0-3.4.2c-1,.1-1.7.4-2.3.6-.6.3-1,.7-1.3,1.2s-.4,1-.4,1.7.1,1.2.4,1.7.7.9,1.3,1.2c.6.3,1.4.5,2.3.6s2.1.2,3.4.2,2.5,0,3.4-.2,1.7-.4,2.3-.6c.6-.3,1-.7,1.3-1.2s.4-1,.4-1.7ZM153.7,193.4c0,.3,0,.5-.2.7s-.4.3-.8.5c-.4.1-.9.2-1.5.3h-4.6c-.6,0-1.1-.1-1.5-.3-.4-.1-.6-.3-.8-.5s-.2-.4-.2-.7,0-.5.2-.7.4-.3.8-.5.9-.2,1.5-.3,1.4,0,2.3,0h2.3c.6,0,1.1.1,1.5.3s.6.3.8.5.2.4.2.7Z"/>
  </g>
  <g>
    <path class="cls-4" d="M339.6,236.9h-13.3c-1.4,0-2.5,0-3.4-.2-.4,0-.6.1-.6.6v1.3c0,.4.2.6.6.6s1,0,1.6.1,1.3,0,2.1,0h10.2c1.4,0,2.4,0,3.1-.2.4,0,.6-.3.6-.6v-1.3c0-.4-.2-.6-.6-.6l-.3.3ZM338.8,244.9c0-1.4-.6-2.4-1.9-3.1-1.3-.7-3.3-1-5.9-1s-4.6.3-5.9,1c-1.3.7-1.9,1.7-1.9,3.1s.6,2.4,1.9,3.1,3.3,1,5.9,1,4.6-.3,5.9-1c1.3-.7,1.9-1.7,1.9-3.1ZM338,228.5c0-.4-.3-.6-.7-.6h-1.5c-.2,0-.4,0-.5.2-.1.1-.1.3-.1.5,0,.4,0,.9.1,1.5v1.4c0,.6-.2,1.1-.5,1.4-.3.3-.9.4-1.7.4h-4.9c-.7,0-1.5,0-2.2-.1s-1.4-.1-2.1-.2c-.4,0-.6.1-.6.6v1.3c-.1.4,0,.6.5.6,1.2.1,2.6.2,4.3.3,1.6,0,3.4.1,5.3.1s2.7-.4,3.5-1.1c.8-.7,1.2-1.8,1.2-3.1v-1.6c0-.6,0-1-.1-1.5h0ZM336.1,244.9c0,.6-.4,1-1.2,1.3s-2.1.4-3.9.4-3.1-.1-3.9-.4-1.2-.7-1.2-1.3.4-1,1.2-1.3,2.1-.4,3.9-.4,3.1.1,3.9.4,1.2.7,1.2,1.3Z"/>
    <path class="cls-4" d="M302.7,248.2c0,.4.3.6.7.6h1.4c.2,0,.4,0,.5-.2s.2-.3.1-.5v-2c0-.8.2-1.3.5-1.6s.8-.4,1.5-.4c3.2,0,6.4.1,9.7.4.4,0,.6-.2.6-.6v-1.3c0-.4-.2-.6-.6-.6-1,0-1.9-.2-2.7-.2s-1.8-.1-2.7-.1v-1c0-.3,0-.5-.3-.6h7.4c.4,0,.6-.2.6-.6v-1.3c0-.4-.2-.6-.6-.6-.8,0-1.8.1-3.1.2h-12.1c-.6,0-1.1,0-1.6-.1-.4,0-.6.1-.6.6v1.3c0,.4.2.6.6.6s.9,0,1.5.1h4.9c.4,0,.6.2.6.6v.9h-1.7c-.8,0-1.6,0-2.1.2s-1.1.3-1.4.6c-.4.3-.6.7-.8,1.2s-.2,1.1-.2,1.8v1.6c0,.4,0,.8.1,1.2l-.2-.2ZM310.2,232.7c.3.5.6,1,1.1,1.4s1,.8,1.6,1.1,1.3.5,2,.7,1.4.2,2.2.2.6-.2.6-.6v-1.4c0-.4-.2-.6-.6-.6-.8,0-1.5,0-2.2-.3-.7-.2-1.2-.5-1.7-.8-.5-.4-.9-.8-1.1-1.3-.3-.5-.4-1-.4-1.7v-1c0-.4-.2-.6-.6-.6h-1.5c-.4,0-.6.2-.6.6v1c0,.6-.1,1.2-.4,1.7-.3.5-.6.9-1.1,1.3-.5.4-1.1.6-1.7.8-.7.2-1.4.3-2.2.3s-.6.2-.6.6v1.4c0,.4.2.6.6.6.7,0,1.5,0,2.2-.2s1.4-.4,2-.7,1.1-.7,1.6-1.1c.5-.4.8-.9,1.1-1.4h-.3Z"/>
    <path class="cls-4" d="M287.9,229.4c-.4,0-.6.2-.6.6v1.4c0,.4.2.6.6.6h10.7c.4,0,.6-.2.6-.6v-1.4c0-.4-.2-.6-.6-.6h-4.4c.2-.1.4-.3.4-.6v-1.3c0-.4-.2-.6-.6-.6h-1.6c-.4,0-.6.2-.6.6v1.5c0,.3-.2.4-.5.4h-3.4,0ZM288,239.5c0,1.9.5,3.3,1.4,4.4.9,1,2.2,1.5,3.9,1.5s2.9-.5,3.9-1.5c.9-1,1.4-2.5,1.4-4.4s-.5-3.3-1.4-4.4c-.9-1-2.2-1.5-3.9-1.5s-3,.5-3.9,1.5-1.4,2.5-1.4,4.4ZM293.3,236.2c.8,0,1.4.3,1.8.8.4.5.6,1.4.6,2.4s-.2,1.9-.7,2.5c-.4.6-1,.8-1.8.8s-1.4-.3-1.8-.8c-.4-.5-.7-1.4-.7-2.5s.2-1.9.7-2.4c.4-.5,1.1-.8,1.8-.8h0ZM282.5,248c0,.4.2.6.6.6h1.5c.4,0,.6-.2.6-.6v-20c0-.4-.2-.6-.6-.6h-1.5c-.4,0-.6.2-.6.6v8.2c-.2-.3-.5-.5-1-.5h-1.4c-.4,0-.6.2-.6.6v1.4c0,.4.2.6.6.6h1.6c.6,0,.8.3.8.8v8.8h0Z"/>
    <path class="cls-4" d="M269.6,244.8c0,.2,0,.4.2.5,0,0,.2.1.5.1h1.4c.4,0,.6-.2.6-.6-.3-1.7-.5-3.6-.7-5.5s-.2-3.7-.2-5.5,0-.8,0-1.1.2-.5.3-.7c.2-.2.4-.3.6-.4s.6-.1,1-.1c.8,0,1.5,0,2.2.1.7,0,1.3.2,1.9.3.2,0,.3,0,.5-.1.1-.1.2-.3.2-.5v-1.4c0-.4-.2-.6-.6-.6-.7-.1-1.4-.2-2.2-.3s-1.6-.1-2.3-.1-1.4,0-2,.2c-.5.2-1,.4-1.3.8-.3.4-.6.9-.7,1.5-.1.6-.2,1.3-.2,2.2v2.2h-2.2c-.3,0-.5,0-.6-.1-.1,0-.2-.3-.2-.5v-6.8c0-.4-.2-.6-.6-.6h-1.4c-.4,0-.6.2-.6.6v19.8c0,.4.2.6.6.6h1.4c.4,0,.6-.2.6-.6v-10.2c0,.1.2.2.3.3.1,0,.3.1.5.1h2.2c0,1.1.2,2.2.3,3.3s.3,2.2.4,3.2h.1ZM259,248.1c0,.4.2.6.6.6h1.4c.4,0,.6-.2.6-.6v-20.1c0-.4-.2-.6-.6-.6h-1.4c-.4,0-.6.2-.6.6v20.1Z"/>
    <path class="cls-4" d="M237.6,242.8c.6,0,.8.2.8.7v3.6c0,.4.2.6.6.6h1.5c.4,0,.6-.2.6-.6v-3.3c0-.2,0-.5-.2-.6-.1-.2-.3-.3-.5-.4h4.2c.7,0,1.3,0,1.9-.1.6,0,1.1,0,1.6-.1.4,0,.6-.3.6-.7v-1.3c0-.4-.2-.6-.6-.6-1.2.1-2.4.2-3.8.3-1.4,0-2.9.1-4.6.1h-4.8c-1.5,0-2.7-.2-3.6-.3-.4,0-.6.1-.6.6v1.3c0,.4.2.6.6.7.4,0,.9,0,1.4.1.5,0,1,0,1.6.1h3.3,0ZM243.9,238c.9,0,1.6-.2,2.1-.6.5-.4.8-1,.8-1.8l.4-7c0-.4-.2-.6-.6-.6h-1.5c-.4,0-.6.2-.6.6v1.5h-9.1v-1.5c-.1-.4-.3-.6-.7-.6h-1.5c-.4,0-.7.2-.6.6l.4,7c0,.8.3,1.4.8,1.8.5.4,1.2.6,2.1.6h8.2-.2ZM244.2,234.5c0,.6-.4,1-1.1,1h-6.5c-.7,0-1.1-.3-1.1-1v-1.8h8.8v1.8h0Z"/>
    <path class="cls-4" d="M217.2,237.5c.3,0,.6.2,1.1.3s.9.2,1.4.2,1,.1,1.5.1h1.5c1,0,1.9,0,2.6-.2s1.3-.3,1.7-.6.8-.6,1-1,.3-.9.3-1.5-.1-1.1-.3-1.5-.6-.7-1-1c-.5-.3-1.1-.4-1.9-.6-.8-.1-1.7-.2-2.8-.2s-1.8-.3-1.8-.8.1-.5.4-.6c.3-.1.8-.2,1.5-.2h2c.8,0,1.7.1,2.7.3.4,0,.6-.1.6-.5v-1.2c0-.3-.2-.5-.5-.6-.8-.1-1.6-.2-2.4-.3h-2.8c-1.5,0-2.6.2-3.2.5-.6.3-.9.8-.9,1.6s.1.9.3,1.2c.2.3.5.6.9.8h-.6c-.3,0-.5.2-.5.5v1c0,.3.2.5.5.5h5.1c.5,0,.9.1,1.2.2.3,0,.5.2.7.3.1.1.2.3.2.5s0,.3-.2.4c-.1.1-.3.2-.5.3-.3,0-.6.1-1,.2h-2.6c-.4,0-.7,0-1.1-.1-.4,0-.7-.1-1.1-.2-.4,0-.7-.2-1-.3h-.3c-.2,0-.3.1-.4.4l-.3,1.1v.4c0,.1.2.2.4.3l-.4.3ZM211.4,248.6c.5,0,1,.1,1.6.2.6,0,1.1,0,1.7.1s1.1,0,1.6,0h1.4c1.7,0,3.1,0,4.2-.1s2-.2,2.7-.5c.7-.2,1.1-.5,1.4-.9.3-.4.4-.9.4-1.5s-.1-1.1-.4-1.5c-.2-.4-.6-.7-1.2-.9s-1.3-.4-2.3-.5c-.9,0-2.1-.1-3.5-.1h-3.8c-.7,0-1.2-.2-1.2-.7s.4-.7,1.2-.7h5c1,0,1.9,0,2.8.1.9,0,1.7,0,2.4.1.4,0,.6-.2.6-.6v-1.1c0-.4-.2-.5-.6-.6-.9,0-1.9-.1-2.9-.2h-9c-.8,0-1.3.2-1.6.5s-.5.7-.5,1.3.1.9.4,1.2c.3.4.7.6,1.1.8h-.8c-.4,0-.5.2-.5.5v1c0,.4.2.5.5.5h9.4c.6,0,1.1,0,1.4.1s.6.1.7.3c.1.1.2.3.2.4s0,.3-.2.5c-.2.1-.4.2-.9.3s-1,0-1.8.1h-6c-.6,0-1.1,0-1.7-.1s-1.1-.1-1.5-.2c-.4,0-.6.1-.6.5v1.1c0,.4,0,.6.4.6h-.1ZM214.3,228c0-.4-.2-.6-.6-.6h-1.5c-.4,0-.6.2-.6.6v9.4c0,.4.2.6.6.6h1.5c.4,0,.6-.2.6-.6v-9.4Z"/>
    <path class="cls-4" d="M184.6,248.6c.4,0,.9.1,1.5.2.6,0,1.1,0,1.7.1h3.2c1.7,0,3.2,0,4.3-.1s2-.2,2.6-.5c.6-.2,1.1-.5,1.3-.9s.4-.9.4-1.5-.1-1.1-.3-1.4c-.2-.4-.6-.7-1.2-.9s-1.3-.4-2.2-.5-2.1-.1-3.5-.1h-3.9c-.4,0-.8,0-.9-.2-.2,0-.3-.3-.3-.5s0-.5.3-.6c.2-.1.5-.2.9-.2h5c1,0,1.9,0,2.8.1.9,0,1.7,0,2.4.1.4,0,.5-.2.5-.6v-1.1c0-.4-.2-.5-.5-.6-.8,0-1.6,0-2.4-.1-.8,0-1.7,0-2.6-.1v-.6c0-.3,0-.5-.3-.6h5.8c.6,0,1.1,0,1.6-.1.4,0,.6-.2.6-.6v-1.2c0-.4-.2-.6-.6-.5-.8,0-1.8.1-3.1.2s-3.1,0-5.3,0h-7c-.6,0-1.2,0-1.6-.1-.4,0-.6.1-.6.5v1.2c0,.4.2.6.6.6s.9,0,1.5.1h5.1c.5,0,.6.2.6.6v.6h-4.1c-.8,0-1.4.2-1.7.5s-.5.7-.5,1.3.1.9.4,1.3c.3.4.7.6,1.1.8h-.9c-.3,0-.5.2-.5.5v1c0,.4.2.6.5.5h9.5c.6,0,1,0,1.4.1.3,0,.5.1.6.3,0,.1.1.3.1.4s0,.4-.2.5-.4.2-.9.3-1,0-1.8,0h-6.2c-.6,0-1.1,0-1.7-.1s-1.1-.1-1.5-.2c-.4,0-.5.1-.6.5v1.1c0,.4,0,.6.4.6h.2ZM199,235c.2,0,.4,0,.5-.1,0,0,.1-.2.1-.4v-1.2c0-.2,0-.3-.1-.4,0,0-.2-.1-.5-.1-1.6,0-2.9-.2-3.9-.6-1-.4-1.5-1-1.6-1.7h5.1c.4,0,.6-.2.6-.6v-1.2c0-.4-.2-.6-.6-.6h-12.9c-.4,0-.6.2-.6.6v1.2c0,.4.2.6.6.6h5.1c0,.7-.6,1.3-1.6,1.7s-2.2.6-3.8.6-.4,0-.5.1c0,0-.1.2-.1.4v1.2c0,.2,0,.4.1.4,0,0,.2.1.5.1.7,0,1.5,0,2.2-.1s1.4-.3,2-.5,1.1-.5,1.6-.9.8-.7,1.1-1.2c.3.4.6.8,1.1,1.2s1,.6,1.6.9c.6.2,1.3.4,2,.5s1.4.2,2.2.1h-.2Z"/>
    <path class="cls-4" d="M163.3,237.3c0,3,.4,5.2,1.3,6.5s2.2,2.1,4.1,2.1,3.2-.7,4.1-2.1c.9-1.4,1.3-3.6,1.3-6.5s-.4-5.2-1.3-6.5c-.9-1.4-2.2-2.1-4.1-2.1s-3.2.7-4.1,2.1-1.3,3.6-1.3,6.5ZM168.7,231.3c.9,0,1.6.5,2,1.4s.6,2.4.6,4.6-.2,3.6-.6,4.6c-.4.9-1.1,1.4-2,1.4s-1.6-.5-2-1.4-.6-2.5-.6-4.6.2-3.6.6-4.6c.4-.9,1.1-1.4,2-1.4ZM157.8,248c0,.4.2.6.6.6h1.5c.4,0,.6-.2.6-.6v-20c0-.4-.2-.6-.6-.6h-1.5c-.4,0-.6.2-.6.6v8.2c-.2-.3-.5-.5-1-.5h-1.4c-.4,0-.6.2-.6.6v1.4c0,.4.2.6.6.6h1.6c.6,0,.8.3.8.8v8.8h0Z"/>
    <path class="cls-4" d="M152.2,238.1h-13.3c-1.4,0-2.5,0-3.4-.2-.4,0-.6.1-.6.6v1.3c0,.4.2.6.6.6s1,0,1.6.1h12.3c1.4,0,2.4,0,3.1-.2.4,0,.6-.3.6-.6v-1.3c0-.4-.2-.6-.6-.6l-.3.3ZM151.1,242.9c0-.4-.3-.6-.7-.6h-1.5c-.2,0-.4,0-.5.2-.1.1-.1.3-.1.5,0,.3,0,.5.1.8v.9c0,1.3-.8,1.9-2.3,1.9h-5.4c-.8,0-1.5,0-2.2-.1s-1.4-.1-2.1-.2c-.4,0-.6.1-.6.6v1.3c-.1.4,0,.6.5.6,1.2.1,2.6.2,4.3.3,1.7,0,3.5.1,5.5.1s2.9-.4,3.8-1.1,1.3-1.8,1.3-3.2,0-.7,0-1,0-.6-.1-.8v-.2ZM150.7,228.5c0-.4-.3-.6-.7-.6h-1.5c-.2,0-.4,0-.5.2,0,.1-.1.3-.1.5v3.7c0,1.3-.8,1.9-2.3,1.9h-4.9c-.7,0-1.4,0-2.1-.1-.7,0-1.4-.1-2.1-.2-.4,0-.6.1-.6.6v1.3c-.1.4,0,.6.5.6,1.2.1,2.6.2,4.2.3s3.3.1,5.2.1,2.8-.4,3.6-1.1,1.2-1.8,1.2-3.2,0-.5,0-.9v-3h0Z"/>
  </g>
  <g>
    <path class="cls-4" d="M317.4,271.5c0,.9.1,1.7.4,2.4.3.7.6,1.3,1.1,1.8s1,.9,1.7,1.2c.7.3,1.4.4,2.2.4s1.6-.1,2.2-.4c.7-.3,1.2-.7,1.7-1.2s.8-1.1,1.1-1.8c.3-.7.4-1.5.4-2.4s-.1-1.7-.4-2.4c-.3-.7-.6-1.3-1.1-1.8s-1-.9-1.7-1.2c-.7-.3-1.4-.4-2.2-.4s-1.6.1-2.2.4c-.7.3-1.2.7-1.7,1.2s-.8,1.1-1.1,1.8-.4,1.5-.4,2.4ZM326,279.9c0-.4-.3-.6-.7-.6h-1.4c-.2,0-.4,0-.5.2-.1.1-.2.3-.1.5v2.4c0,.7-.2,1.3-.6,1.6-.4.4-1,.6-1.8.6h-5.3c-.7,0-1.4,0-2.1-.1-.7,0-1.4-.1-2.1-.2-.4,0-.6.1-.6.6v1.3c-.1.4,0,.6.5.6,1.2.1,2.6.2,4.1.3,1.6,0,3.3.1,5.3.1s3-.4,3.9-1.2c.9-.8,1.4-1.9,1.4-3.3v-1.5c0-.5,0-.9-.1-1.2h.1ZM320.2,271.5c0-1,.2-1.8.7-2.4s1.1-.9,1.9-.9,1.5.3,1.9.9c.5.6.7,1.4.7,2.4s-.2,1.8-.7,2.4-1.1.9-1.9.9-1.5-.3-1.9-.9c-.5-.6-.7-1.4-.7-2.4ZM314.2,266c0-.4-.2-.6-.6-.6h-1.5c-.4,0-.6.2-.6.6v13.5c0,.4.2.6.6.6h1.5c.4,0,.6-.2.6-.6v-13.5Z"/>
    <path class="cls-4" d="M301.2,276.5c-.1-.5-.2-1-.3-1.5s-.2-1.1-.3-1.6-.2-1-.2-1.5v-1.3c0-1.3.7-2,2-2h3c.4,0,.7,0,1.1.1.3,0,.7.1,1.1.2.2,0,.3,0,.5-.1s.2-.3.2-.5v-1.4c0-.4-.2-.6-.6-.6-.9-.1-1.8-.2-2.6-.3s-1.7-.1-2.7-.1c-1.6,0-2.8.4-3.5,1.1s-1.1,1.9-1.1,3.6,0,.8,0,1.3.1,1,.2,1.5.2,1.1.3,1.6.2,1.1.3,1.5c0,.2.1.4.3.5.1,0,.3.1.5.1h1.5c.2,0,.4,0,.5-.2,0-.1.1-.3,0-.5h-.2ZM306.1,279.9c0-.4-.3-.6-.7-.6h-1.4c-.2,0-.4,0-.5.2-.1.1-.2.3-.1.5v2.4c0,.7-.2,1.3-.6,1.6-.4.4-1,.6-1.8.6h-4.9c-.7,0-1.4,0-2-.1-.6,0-1.3-.1-2-.2-.4,0-.6.1-.6.6v1.3c-.1.4,0,.6.5.6,1.2.1,2.5.2,4,.3,1.5,0,3.1.1,5,.1s3-.4,3.9-1.2c.9-.8,1.4-1.9,1.4-3.3v-1.5c0-.5,0-.9-.1-1.2h0ZM292,279.5c0,.4.2.6.6.6h1.5c.4,0,.6-.2.6-.6v-13.5c0-.4-.2-.6-.6-.6h-1.5c-.4,0-.6.2-.6.6v5.6c-.2-.3-.5-.5-1-.5h-1.4c-.4,0-.6.2-.6.6v1.3c0,.4.2.6.6.6h1.6c.6,0,.8.3.8.8v5.1h0Z"/>
    <path class="cls-4" d="M275.5,282.3c-.4,0-.6,0-.6.5v1.4c0,.4.2.6.6.6.8.1,1.8.2,2.8.3h6.4c.9,0,1.8-.1,2.6-.3.4,0,.6-.3.6-.6v-1.4c0-.4-.2-.6-.6-.5-.8.1-1.7.2-2.6.3h-6.4c-1.1,0-2-.1-2.8-.3ZM286.9,272.6c0-1-.1-1.9-.4-2.7s-.6-1.5-1.1-2-1-1-1.7-1.3-1.4-.5-2.2-.5-1.6.2-2.2.5c-.7.3-1.2.7-1.7,1.3s-.8,1.2-1.1,2-.4,1.7-.4,2.7.1,1.9.4,2.7c.3.8.6,1.5,1.1,2,.5.6,1,1,1.7,1.3s1.4.5,2.2.5,1.6-.2,2.2-.5c.7-.3,1.2-.7,1.7-1.3.5-.6.8-1.2,1.1-2s.4-1.7.4-2.7ZM281.5,276.6c-.8,0-1.5-.4-1.9-1.1-.5-.7-.7-1.7-.7-2.8s.2-2.1.7-2.8,1.1-1.1,1.9-1.1,1.5.4,1.9,1.1.7,1.7.7,2.8-.2,2.1-.7,2.8c-.5.7-1.1,1.1-1.9,1.1ZM270.7,286c0,.4.2.6.6.6h1.5c.4,0,.6-.2.6-.6v-20c0-.4-.2-.6-.6-.6h-1.5c-.4,0-.6.2-.6.6v20Z"/>
    <path class="cls-4" d="M259.8,274.9h-13.3c-1.4,0-2.5,0-3.4-.2-.4,0-.6.1-.6.6v1.3c0,.4.2.6.6.6s1,0,1.6.1,1.3,0,2.1,0h10.2c1.4,0,2.4,0,3.1-.2.4,0,.6-.3.6-.6v-1.3c0-.4-.2-.6-.6-.6l-.3.3ZM259.1,282.9c0-1.4-.6-2.4-1.9-3.1-1.3-.7-3.3-1-5.9-1s-4.6.3-5.9,1c-1.3.7-1.9,1.7-1.9,3.1s.6,2.4,1.9,3.1,3.3,1,5.9,1,4.6-.3,5.9-1c1.3-.7,1.9-1.7,1.9-3.1ZM258.3,266.5c0-.4-.3-.6-.7-.6h-1.5c-.2,0-.4,0-.5.2-.1.1-.1.3-.1.5,0,.4,0,.9.1,1.5v1.4c0,.6-.2,1.1-.5,1.4s-.9.4-1.7.4h-4.9c-.7,0-1.5,0-2.2-.1s-1.4-.1-2.1-.2c-.4,0-.6.1-.6.6v1.3c-.1.4,0,.6.5.6,1.2.1,2.6.2,4.3.3,1.6,0,3.4.1,5.3.1s2.7-.4,3.5-1.1,1.2-1.8,1.2-3.1v-1.6c0-.6,0-1-.1-1.5h0ZM256.3,282.9c0,.6-.4,1-1.2,1.3s-2.1.4-3.9.4-3.1-.1-3.9-.4-1.2-.7-1.2-1.3.4-1,1.2-1.3,2.1-.4,3.9-.4,3.1.1,3.9.4,1.2.7,1.2,1.3Z"/>
    <path class="cls-4" d="M229.1,276.5c.6.2,1.3.4,2.3.6s1.9.3,2.8.3,1.9,0,2.6-.2c.7-.1,1.3-.3,1.7-.6.4-.3.8-.7,1-1.1s.3-1,.3-1.7,0-1.2-.3-1.7c-.2-.5-.5-.8-1-1.1s-1.1-.5-1.8-.6-1.7-.2-2.7-.2-1.8-.3-1.8-1,.1-.5.4-.7c.3-.1.8-.2,1.5-.2h1.8c.7,0,1.6.1,2.5.3.4,0,.6-.1.6-.5v-1.3c0-.2,0-.3-.1-.4s-.2-.2-.5-.2c-.8-.1-1.6-.2-2.3-.3h-2.6c-1.5,0-2.6.2-3.2.6-.6.4-.9.9-.9,1.7s.4,1.8,1.3,2.3h-.6c-.4,0-.5.2-.5.5v1.2c0,.4.2.5.5.5h4.9c.5,0,.9.1,1.2.2s.5.2.6.4c.1.2.2.3.2.6s0,.4-.2.5c-.1.1-.3.2-.5.3s-.6.1-1,.2h-1.6c-.6,0-1.2,0-1.9-.2-.7-.1-1.3-.3-1.9-.6h-.3c-.2,0-.4.1-.4.4l-.3,1.3v.5c0,.1.2.2.4.3h-.2ZM223.3,286.2c0,.4.3.6.7.6h1.4c.2,0,.4,0,.5-.2s.2-.3.1-.5v-2.6c0-.8.2-1.3.5-1.6.3-.3.9-.4,1.7-.4,1.7,0,3.3,0,4.8.1,1.5,0,3,.2,4.5.3.4,0,.6-.1.6-.6v-1.3c0-.4-.2-.6-.6-.6-1.3-.1-2.7-.2-4.3-.3-1.6,0-3.3-.1-5.3-.1s-2.9.3-3.6.9c-.7.6-1.1,1.6-1.1,2.9v3.3h.1ZM223.1,276.7c0,.4.2.6.6.6h1.5c.4,0,.6-.2.6-.6v-2c.2.3.5.5,1,.5h.9c.4,0,.6-.2.6-.6v-1.3c0-.4-.2-.6-.6-.6h-1.2c-.2,0-.4,0-.5-.2s-.1-.3-.1-.5v-2.3c.2.3.5.5,1,.5h.9c.4,0,.6-.2.6-.6v-1.3c0-.4-.2-.6-.6-.6h-1.2c-.2,0-.4,0-.5-.2s-.1-.3-.1-.5v-.9c0-.4-.2-.6-.6-.6h-1.5c-.4,0-.6.2-.6.6v10.6h-.2Z"/>
    <path class="cls-4" d="M202.2,273.9c-.4,0-.6.1-.6.5v1.2c0,.4.2.6.6.6s1,0,1.6.1h12.4c1.4,0,2.4,0,3.1-.2.4,0,.6-.2.6-.6v-1.2c0-.4-.2-.6-.6-.5h-13.4c-1.4,0-2.5,0-3.5-.2l-.2.3ZM203,286.6c.4,0,.9.1,1.5.2.6,0,1.1,0,1.7.1h3.2c1.7,0,3.2,0,4.3-.1s2-.2,2.6-.5c.6-.2,1.1-.5,1.3-.9s.4-.9.4-1.5-.1-1.1-.3-1.4c-.2-.4-.6-.7-1.2-.9s-1.3-.4-2.2-.5-2.1-.1-3.5-.1h-3.9c-.4,0-.8,0-.9-.2-.2,0-.3-.3-.3-.5s0-.5.3-.6c.2-.1.5-.2.9-.2h5c1,0,1.9,0,2.8.1.9,0,1.7,0,2.4.1.4,0,.5-.2.5-.6v-1.1c0-.4-.2-.5-.5-.6-.9,0-1.9-.1-3-.2h-9c-.8,0-1.4.2-1.7.5s-.5.7-.5,1.3.1.9.4,1.3.7.6,1.1.8h-.9c-.3,0-.5.2-.5.5v1c0,.4.2.6.5.5h9.5c.6,0,1,0,1.4.1.3,0,.5.1.6.3,0,.1.1.3.1.4s0,.4-.2.5-.4.2-.9.3-1,0-1.8,0h-6.2c-.6,0-1.1,0-1.7-.1s-1.1-.1-1.5-.2c-.4,0-.5.1-.6.5v1.1c0,.4,0,.6.4.6h.4ZM217.9,269.4c0-.7-.1-1.2-.4-1.7s-.7-.9-1.3-1.2c-.6-.3-1.4-.5-2.3-.6-1-.1-2.1-.2-3.4-.2s-2.5,0-3.4.2c-1,.1-1.7.4-2.3.6-.6.3-1,.7-1.3,1.2s-.4,1-.4,1.7.1,1.2.4,1.7.7.9,1.3,1.2c.6.3,1.4.5,2.3.6s2.1.2,3.4.2,2.5,0,3.4-.2,1.7-.4,2.3-.6c.6-.3,1-.7,1.3-1.2s.4-1,.4-1.7ZM215.2,269.4c0,.3,0,.5-.2.7s-.4.3-.8.5c-.4.1-.9.2-1.5.3h-4.6c-.6,0-1.1-.1-1.5-.3-.4-.1-.6-.3-.8-.5s-.2-.4-.2-.7,0-.5.2-.7.4-.3.8-.5.9-.2,1.5-.3,1.4,0,2.3,0h2.3c.6,0,1.1.1,1.5.3s.6.3.8.5.2.4.2.7Z"/>
    <path class="cls-4" d="M185.3,275.5c-.1-.4-.2-.8-.3-1.3-.1-.5-.2-.9-.3-1.4s-.2-.9-.2-1.3v-1.1c0-.7.2-1.1.5-1.4s.8-.4,1.4-.4h3c.4,0,.8,0,1.1.1.4,0,.7.1,1.1.2.2,0,.3,0,.5-.1s.2-.3.2-.5v-1.4c0-.4-.2-.6-.6-.6-.9-.1-1.8-.2-2.7-.3s-1.8-.1-2.7-.1c-1.6,0-2.8.4-3.5,1.1s-1,1.9-1,3.5,0,.7,0,1.1.1.9.2,1.3.2.9.3,1.4c.1.5.2.9.3,1.3,0,.2.1.4.2.4,0,0,.2.1.5.1h1.5c.2,0,.4,0,.5-.2s.1-.3,0-.5h0ZM190.8,282.5c0-3-2.5-4.6-7.6-4.6s-7.6,1.5-7.6,4.6,2.5,4.6,7.6,4.6,7.6-1.5,7.6-4.6ZM188,282.5c0,.3,0,.6-.2.9-.2.2-.4.5-.8.6-.4.2-.9.3-1.5.4-.6,0-1.4.1-2.3.1s-1.7,0-2.3-.1c-.6,0-1.1-.2-1.5-.4-.4-.2-.6-.4-.8-.6-.2-.2-.2-.5-.2-.9s0-.6.2-.9c.2-.2.4-.5.8-.6.4-.2.9-.3,1.5-.4.6,0,1.4-.1,2.3-.1s1.7,0,2.3.1c.6,0,1.1.2,1.5.4.4.2.6.4.8.6.2.2.2.5.2.9ZM176.1,276.2c0,.4.2.6.6.6h1.5c.4,0,.6-.2.6-.6v-10.1c0-.4-.2-.6-.6-.6h-1.5c-.4,0-.6.2-.6.6v3.9c-.2-.3-.5-.5-1-.5h-1.4c-.4,0-.6.2-.6.6v1.3c0,.4.2.6.6.6h1.6c.6,0,.8.3.8.8v3.4h0Z"/>
    <path class="cls-4" d="M170.6,284.4c.4,0,.6-.3.6-.6v-1.3c0-.4-.2-.6-.6-.6s-.9,0-1.5.1c-.6,0-1.2,0-1.9.1s-1.4,0-2.1.1h-2.1c.2,0,.3-.2.4-.4.1-.2.2-.4.2-.6v-2.8c0-.4-.2-.6-.6-.6h-1.5c-.4,0-.6.2-.6.6v3c0,.5-.3.7-.8.7h-3.3c-.5,0-1.1,0-1.6-.1-.5,0-1,0-1.4-.1-.4,0-.6.1-.6.6v1.3c0,.4.2.6.6.6s.9.1,1.5.2c.6,0,1.3,0,2,.1h5c3.8,0,6.6-.1,8.4-.4h0ZM155.6,266.7c-.4,0-.6.2-.6.6v1.4c0,.4.2.6.6.6h5.1v1.4c0,.7-.1,1.4-.4,2s-.6,1.1-1.1,1.6c-.5.4-1.1.8-1.7,1.1-.7.3-1.4.4-2.2.4s-.6.2-.6.6v1.5c0,.3,0,.5.3.5h.6c.7,0,1.4,0,2.1-.3.7-.2,1.3-.5,1.9-.8.6-.4,1.1-.8,1.5-1.3s.8-1,1.1-1.6c.3.6.6,1.1,1.1,1.6s1,.9,1.5,1.3c.6.4,1.2.6,1.9.8.7.2,1.4.3,2.1.3s.4,0,.6,0,.3-.2.3-.5v-1.5c0-.4-.2-.6-.6-.6-.8,0-1.5-.1-2.2-.4s-1.2-.6-1.7-1.1c-.5-.4-.9-1-1.1-1.6-.3-.6-.4-1.3-.4-2v-1.4h5.1c.4,0,.6-.2.6-.6v-1.4c0-.4-.2-.6-.6-.6h-13.2Z"/>
    <path class="cls-4" d="M150.3,285.5c0-.5-.2-1-.5-1.3s-.8-.5-1.3-.5-1,.2-1.3.5-.5.7-.5,1.3.2.9.5,1.2c.3.3.8.5,1.3.5s1-.2,1.3-.5.5-.7.5-1.2Z"/>
  </g>
  <g>
    <path class="cls-2" d="M324.4,195.5c0,.9.1,1.7.4,2.4.3.7.6,1.3,1.1,1.8s1,.9,1.7,1.2,1.4.4,2.2.4,1.6-.1,2.2-.4c.7-.3,1.2-.7,1.7-1.2s.8-1.1,1.1-1.8.4-1.5.4-2.4-.1-1.7-.4-2.4c-.3-.7-.6-1.3-1.1-1.8s-1-.9-1.7-1.2-1.4-.4-2.2-.4-1.6.1-2.2.4c-.7.3-1.2.7-1.7,1.2s-.8,1.1-1.1,1.8-.4,1.5-.4,2.4ZM332.9,203.9c0-.4-.3-.6-.7-.6h-1.4c-.2,0-.4,0-.5.2-.1.1-.2.3-.1.5v2.4c0,.7-.2,1.3-.6,1.6-.4.4-1,.6-1.8.6h-5.3c-.7,0-1.4,0-2.1-.1-.7,0-1.4-.1-2.1-.2-.4,0-.6.1-.6.6v1.3c-.1.4,0,.6.5.6,1.2.1,2.6.2,4.1.3,1.6,0,3.3.1,5.3.1s3-.4,3.9-1.2,1.4-1.9,1.4-3.3v-1.5c0-.5,0-.9-.1-1.2h.1ZM327.1,195.5c0-1,.2-1.8.7-2.4.5-.6,1.1-.9,1.9-.9s1.5.3,1.9.9c.5.6.7,1.4.7,2.4s-.2,1.8-.7,2.4c-.5.6-1.1.9-1.9.9s-1.5-.3-1.9-.9c-.5-.6-.7-1.4-.7-2.4ZM321.2,190c0-.4-.2-.6-.6-.6h-1.5c-.4,0-.6.2-.6.6v13.5c0,.4.2.6.6.6h1.5c.4,0,.6-.2.6-.6v-13.5Z"/>
    <path class="cls-2" d="M314.3,201.2c.4,0,.6-.3.6-.6v-1.3c0-.4-.2-.6-.6-.6-.9,0-1.9.1-3,.2h-3.2c.2-.1.4-.3.4-.6v-2.6c0-.4-.2-.6-.6-.6h-1.5c-.4,0-.6.2-.6.6v2.6c0,.4-.2.6-.6.6h-5.9c-.7,0-1.2,0-1.7-.1-.4,0-.6.1-.6.6v1.3c0,.4.2.6.6.6s1,0,1.6.1h12.3c1.4,0,2.4,0,3.1-.2h-.3ZM313.6,206.8c0-1.5-.6-2.5-1.9-3.2-1.3-.7-3.3-1-5.9-1s-4.6.3-5.9,1-1.9,1.7-1.9,3.2.6,2.5,1.9,3.2c1.3.7,3.3,1,5.9,1s4.6-.3,5.9-1c1.3-.7,1.9-1.8,1.9-3.2ZM301.3,194.7c0-.8.2-1.4.6-1.7s1-.5,1.9-.5h4.3c1.3,0,2.8.2,4.2.3.4,0,.6-.1.6-.6v-1.3c0-.4-.2-.6-.6-.6-1.3-.1-2.7-.2-4.2-.3-1.5,0-3.1-.1-4.6-.1s-2.9.3-3.7,1-1.2,1.7-1.2,3.1v1.8c0,.5.1,1,.2,1.4,0,.2.1.3.2.4h.5l1.6-.2c.4,0,.5-.2.4-.6,0-.4-.2-.7-.2-1.1v-1.1h0ZM310.8,206.8c0,.7-.4,1.1-1.2,1.4s-2.1.4-3.9.4-3.1-.1-3.9-.4-1.2-.7-1.2-1.4.4-1.1,1.2-1.4,2.1-.4,3.9-.4,3.1.1,3.9.4,1.2.7,1.2,1.4Z"/>
    <path class="cls-2" d="M293.8,193.5c.4,0,.6-.2.6-.6v-1.4c0-.4-.2-.6-.6-.6h-9.8c-.4,0-.6.2-.6.6v1.4c0,.4.2.6.6.6h3.6v5.7c0,.7,0,1.4-.3,2-.2.6-.5,1.2-.8,1.7s-.7.9-1.2,1.2c-.4.3-.9.5-1.4.6-.4,0-.6.3-.6.6v1.4c0,.4.2.6.6.6.6,0,1.1-.2,1.7-.5.5-.3,1-.6,1.5-1,.4-.4.8-.8,1.2-1.3.3-.5.6-1,.7-1.6.2.6.4,1.1.7,1.6s.7.9,1.2,1.3c.4.4.9.7,1.5,1,.5.3,1.1.4,1.7.5.4,0,.6-.1.6-.6v-1.4c0-.4-.2-.6-.6-.6s-1-.3-1.4-.6-.8-.7-1.2-1.2c-.3-.5-.6-1.1-.8-1.7-.2-.6-.3-1.3-.3-2v-5.7h3.5,0ZM280.4,190c0-.4-.2-.6-.6-.6h-1.5c-.4,0-.6.2-.6.6v20c0,.4.2.6.6.6h1.5c.4,0,.6-.2.6-.6v-20Z"/>
    <path class="cls-2" d="M273.5,198.9h-13.3c-1.4,0-2.5,0-3.4-.2-.4,0-.6.1-.6.6v1.3c0,.4.2.6.6.6s1,0,1.6.1,1.3,0,2.1,0h10.2c1.4,0,2.4,0,3.1-.2.4,0,.6-.3.6-.6v-1.3c0-.4-.2-.6-.6-.6l-.3.3ZM272.8,206.9c0-1.4-.6-2.4-1.9-3.1-1.3-.7-3.3-1-5.9-1s-4.6.3-5.9,1c-1.3.7-1.9,1.7-1.9,3.1s.6,2.4,1.9,3.1,3.3,1,5.9,1,4.6-.3,5.9-1c1.3-.7,1.9-1.7,1.9-3.1ZM272,190.5c0-.4-.3-.6-.7-.6h-1.5c-.2,0-.4,0-.5.2-.1.1-.1.3-.1.5,0,.4,0,.9.1,1.5v1.4c0,.6-.2,1.1-.5,1.4-.3.3-.9.4-1.7.4h-4.9c-.7,0-1.5,0-2.2-.1s-1.4-.1-2.1-.2c-.4,0-.6.1-.6.6v1.3c-.1.4,0,.6.5.6,1.2.1,2.6.2,4.3.3,1.6,0,3.4.1,5.3.1s2.7-.4,3.5-1.1c.8-.7,1.2-1.8,1.2-3.1v-1.6c0-.6,0-1-.1-1.5h0ZM270,206.9c0,.6-.4,1-1.2,1.3s-2.1.4-3.9.4-3.1-.1-3.9-.4-1.2-.7-1.2-1.3.4-1,1.2-1.3,2.1-.4,3.9-.4,3.1.1,3.9.4,1.2.7,1.2,1.3Z"/>
    <path class="cls-2" d="M245.9,198.9h-13.3c-1.4,0-2.5,0-3.4-.2-.4,0-.6.1-.6.6v1.3c0,.4.2.6.6.6s1,0,1.6.1,1.3,0,2.1,0h10.2c1.4,0,2.4,0,3.1-.2.4,0,.6-.3.6-.6v-1.3c0-.4-.2-.6-.6-.6l-.3.3ZM245.2,206.9c0-1.4-.6-2.4-1.9-3.1-1.3-.7-3.3-1-5.9-1s-4.6.3-5.9,1c-1.3.7-1.9,1.7-1.9,3.1s.6,2.4,1.9,3.1,3.3,1,5.9,1,4.6-.3,5.9-1c1.3-.7,1.9-1.7,1.9-3.1ZM231.2,192.7c.7,0,1.3,0,1.9-.1s1,0,1.5,0h4.9c.7,0,1.3.1,1.7.2s.7.3.9.4c.2.2.3.4.3.7s0,.5-.2.7c-.1.2-.4.3-.8.4-.4.1-.9.2-1.5.2h-2.4c-1,0-2,0-3.1-.1-1.1,0-2.2-.2-3.3-.3-.4,0-.6.1-.6.6v1.3c-.1.4,0,.6.5.6,1.3.2,2.5.3,3.5.3s1.9.1,2.6.1c1.5,0,2.7,0,3.7-.2,1-.1,1.8-.4,2.5-.7.6-.3,1.1-.7,1.4-1.2.3-.5.4-1.1.4-1.9s-.1-1.3-.4-1.8c-.3-.5-.8-.9-1.4-1.2-.7-.3-1.5-.5-2.6-.7-1.1-.1-2.4-.2-3.9-.2s-.7,0-1,0h-2.5c-.5,0-1.2,0-1.9.1-.4,0-.6.2-.6.6v1.3c0,.4.2.6.6.6l-.2.3ZM242.4,206.9c0,.6-.4,1-1.2,1.3s-2.1.4-3.9.4-3.1-.1-3.9-.4-1.2-.7-1.2-1.3.4-1,1.2-1.3,2.1-.4,3.9-.4,3.1.1,3.9.4,1.2.7,1.2,1.3Z"/>
    <path class="cls-2" d="M212.3,193.9c0,.7,0,1.3-.3,1.9-.2.6-.4,1.1-.8,1.5-.3.4-.7.8-1.2,1-.4.2-.9.4-1.5.4s-.6.2-.6.6v1.3c0,.4.2.6.6.6.6,0,1.2,0,1.7-.3.5-.2,1-.5,1.5-.8.4-.3.8-.7,1.1-1.1.3-.4.5-.9.7-1.4.2.5.4.9.7,1.4.3.4.7.8,1.1,1.1s.9.6,1.5.8,1.1.3,1.8.3.6-.2.6-.6v-1.3c0-.4-.2-.6-.6-.6s-1-.1-1.5-.4c-.4-.2-.8-.6-1.2-1-.3-.4-.6-.9-.8-1.5-.2-.6-.3-1.2-.3-1.9v-3.3c0-.4-.2-.6-.6-.6h-1.5c-.4,0-.6.2-.6.6v3.3h.2ZM217,203.9c0-.4-.3-.6-.7-.6h-1.4c-.2,0-.4,0-.5.2-.1.1-.2.3-.1.5v2.4c0,.7-.2,1.3-.6,1.6-.4.4-1,.6-1.8.6h-5.3c-.7,0-1.4,0-2.1-.1-.7,0-1.4-.1-2.1-.2-.4,0-.6.1-.6.6v1.3c-.1.4,0,.6.5.6,1.2.1,2.6.2,4.1.3,1.6,0,3.3.1,5.3.1s3-.4,3.9-1.2,1.4-1.9,1.4-3.3v-1.5c0-.5,0-.9-.1-1.2h.1ZM205.2,190c0-.4-.2-.6-.6-.6h-1.5c-.4,0-.6.2-.6.6v13.5c0,.4.2.6.6.6h1.5c.4,0,.6-.2.6-.6v-13.5Z"/>
    <path class="cls-2" d="M189.4,206.8c0,.4.3.6.7.6h1.5c.2,0,.4,0,.5-.2.1-.1.1-.3.1-.5-.3-1.7-.6-3.5-.7-5.2s-.2-3.5-.2-5.2.2-1.7.6-2.1c.4-.4,1-.6,1.9-.6s1.7,0,2.4.1c.7,0,1.5.2,2.3.3.2,0,.3,0,.5-.1s.2-.3.2-.5v-1.4c0-.4-.2-.6-.6-.6-.9-.1-1.8-.2-2.7-.3-.9,0-1.7-.1-2.6-.1s-1.6,0-2.2.3c-.6.2-1.1.5-1.5.9s-.7.9-.8,1.6-.3,1.4-.3,2.4c0,1.9,0,3.7.2,5.5.1,1.7.4,3.5.7,5.3v-.2ZM185.3,190c0-.4-.2-.6-.6-.6h-1.5c-.4,0-.6.2-.6.6v20c0,.4.2.6.6.6h1.5c.4,0,.6-.2.6-.6v-20Z"/>
    <path class="cls-2" d="M162.4,210.6c.4,0,.9.1,1.5.2.6,0,1.1,0,1.7.1h3.2c1.7,0,3.2,0,4.3-.1s2-.2,2.6-.5c.6-.2,1.1-.5,1.3-.9s.4-.9.4-1.5-.1-1.1-.3-1.4c-.2-.4-.6-.7-1.2-.9s-1.3-.4-2.2-.5-2.1-.1-3.5-.1h-3.9c-.4,0-.8,0-.9-.2-.2,0-.3-.3-.3-.5s0-.5.3-.6c.2-.1.5-.2.9-.2h5c1,0,1.9,0,2.8.1.9,0,1.7,0,2.4.1.4,0,.5-.2.5-.6v-1.1c0-.4-.2-.5-.5-.6-.8,0-1.6,0-2.4-.1-.8,0-1.7,0-2.6-.1v-.6c0-.3,0-.5-.3-.6h5.8c.6,0,1.1,0,1.6-.1.4,0,.6-.2.6-.6v-1.2c0-.4-.2-.6-.6-.5-.8,0-1.8.1-3.1.2s-3.1,0-5.3,0h-7c-.6,0-1.2,0-1.6-.1-.4,0-.6.1-.6.5v1.2c0,.4.2.6.6.6s.9,0,1.5.1h5.1c.5,0,.6.2.6.6v.6h-4.1c-.8,0-1.4.2-1.7.5s-.5.7-.5,1.3.1.9.4,1.3c.3.4.7.6,1.1.8h-.9c-.3,0-.5.2-.5.5v1c0,.4.2.6.5.5h9.5c.6,0,1,0,1.4.1.3,0,.5.1.6.3,0,.1.1.3.1.4s0,.4-.2.5-.4.2-.9.3-1,0-1.8,0h-6.2c-.6,0-1.1,0-1.7-.1s-1.1-.1-1.5-.2c-.4,0-.5.1-.6.5v1.1c0,.4,0,.6.4.6h.2ZM169.2,189.9c-.4,0-.6.2-.6.6v.3c0,.5-.1,1-.4,1.5s-.6.9-1.1,1.2-1.1.6-1.7.8c-.7.2-1.4.3-2.2.3s-.4,0-.4.1c0,0-.1.2-.1.4v1.2c0,.2,0,.4.1.4,0,0,.2.1.4.1.7,0,1.4,0,2.1-.2s1.4-.4,2-.7,1.2-.7,1.6-1.1c.5-.4.8-.8,1.1-1.3.3.4.6.9,1.1,1.3.5.4,1,.8,1.6,1.1s1.3.5,2,.7,1.4.2,2.1.2.4,0,.5-.1c0,0,.1-.2.1-.4v-1.2c0-.2,0-.3-.1-.4,0,0-.2-.1-.5-.1-.8,0-1.6-.1-2.2-.3-.7-.2-1.2-.5-1.7-.8s-.8-.7-1.1-1.2c-.3-.5-.4-.9-.4-1.5v-.3c0-.4-.2-.6-.6-.6h-1.6Z"/>
    <path class="cls-2" d="M140.7,197.9c-.4,0-.6.1-.6.5v1.2c0,.4.2.6.6.6s1,0,1.6.1h12.4c1.4,0,2.4,0,3.1-.2.4,0,.6-.2.6-.6v-1.2c0-.4-.2-.6-.6-.5h-13.4c-1.4,0-2.5,0-3.5-.2l-.2.3ZM141.5,210.6c.4,0,.9.1,1.5.2.6,0,1.1,0,1.7.1h3.2c1.7,0,3.2,0,4.3-.1s2-.2,2.6-.5c.6-.2,1.1-.5,1.3-.9s.4-.9.4-1.5-.1-1.1-.3-1.4c-.2-.4-.6-.7-1.2-.9s-1.3-.4-2.2-.5-2.1-.1-3.5-.1h-3.9c-.4,0-.8,0-.9-.2-.2,0-.3-.3-.3-.5s0-.5.3-.6c.2-.1.5-.2.9-.2h5c1,0,1.9,0,2.8.1.9,0,1.7,0,2.4.1.4,0,.5-.2.5-.6v-1.1c0-.4-.2-.5-.5-.6-.9,0-1.9-.1-3-.2h-9c-.8,0-1.4.2-1.7.5s-.5.7-.5,1.3.1.9.4,1.3c.3.4.7.6,1.1.8h-.9c-.3,0-.5.2-.5.5v1c0,.4.2.6.5.5h9.5c.6,0,1,0,1.4.1.3,0,.5.1.6.3,0,.1.1.3.1.4s0,.4-.2.5-.4.2-.9.3-1,0-1.8,0h-6.2c-.6,0-1.1,0-1.7-.1s-1.1-.1-1.5-.2c-.4,0-.5.1-.6.5v1.1c0,.4,0,.6.4.6h.4ZM156.5,193.4c0-.7-.1-1.2-.4-1.7s-.7-.9-1.3-1.2c-.6-.3-1.4-.5-2.3-.6-1-.1-2.1-.2-3.4-.2s-2.5,0-3.4.2c-1,.1-1.7.4-2.3.6-.6.3-1,.7-1.3,1.2s-.4,1-.4,1.7.1,1.2.4,1.7.7.9,1.3,1.2c.6.3,1.4.5,2.3.6s2.1.2,3.4.2,2.5,0,3.4-.2,1.7-.4,2.3-.6c.6-.3,1-.7,1.3-1.2s.4-1,.4-1.7ZM153.7,193.4c0,.3,0,.5-.2.7s-.4.3-.8.5c-.4.1-.9.2-1.5.3h-4.6c-.6,0-1.1-.1-1.5-.3-.4-.1-.6-.3-.8-.5s-.2-.4-.2-.7,0-.5.2-.7.4-.3.8-.5.9-.2,1.5-.3,1.4,0,2.3,0h2.3c.6,0,1.1.1,1.5.3s.6.3.8.5.2.4.2.7Z"/>
  </g>
  <g>
    <path class="cls-2" d="M339.6,236.9h-13.3c-1.4,0-2.5,0-3.4-.2-.4,0-.6.1-.6.6v1.3c0,.4.2.6.6.6s1,0,1.6.1,1.3,0,2.1,0h10.2c1.4,0,2.4,0,3.1-.2.4,0,.6-.3.6-.6v-1.3c0-.4-.2-.6-.6-.6l-.3.3ZM338.8,244.9c0-1.4-.6-2.4-1.9-3.1-1.3-.7-3.3-1-5.9-1s-4.6.3-5.9,1c-1.3.7-1.9,1.7-1.9,3.1s.6,2.4,1.9,3.1,3.3,1,5.9,1,4.6-.3,5.9-1c1.3-.7,1.9-1.7,1.9-3.1ZM338,228.5c0-.4-.3-.6-.7-.6h-1.5c-.2,0-.4,0-.5.2-.1.1-.1.3-.1.5,0,.4,0,.9.1,1.5v1.4c0,.6-.2,1.1-.5,1.4-.3.3-.9.4-1.7.4h-4.9c-.7,0-1.5,0-2.2-.1s-1.4-.1-2.1-.2c-.4,0-.6.1-.6.6v1.3c-.1.4,0,.6.5.6,1.2.1,2.6.2,4.3.3,1.6,0,3.4.1,5.3.1s2.7-.4,3.5-1.1c.8-.7,1.2-1.8,1.2-3.1v-1.6c0-.6,0-1-.1-1.5h0ZM336.1,244.9c0,.6-.4,1-1.2,1.3s-2.1.4-3.9.4-3.1-.1-3.9-.4-1.2-.7-1.2-1.3.4-1,1.2-1.3,2.1-.4,3.9-.4,3.1.1,3.9.4,1.2.7,1.2,1.3Z"/>
    <path class="cls-2" d="M302.7,248.2c0,.4.3.6.7.6h1.4c.2,0,.4,0,.5-.2s.2-.3.1-.5v-2c0-.8.2-1.3.5-1.6s.8-.4,1.5-.4c3.2,0,6.4.1,9.7.4.4,0,.6-.2.6-.6v-1.3c0-.4-.2-.6-.6-.6-1,0-1.9-.2-2.7-.2s-1.8-.1-2.7-.1v-1c0-.3,0-.5-.3-.6h7.4c.4,0,.6-.2.6-.6v-1.3c0-.4-.2-.6-.6-.6-.8,0-1.8.1-3.1.2h-12.1c-.6,0-1.1,0-1.6-.1-.4,0-.6.1-.6.6v1.3c0,.4.2.6.6.6s.9,0,1.5.1h4.9c.4,0,.6.2.6.6v.9h-1.7c-.8,0-1.6,0-2.1.2s-1.1.3-1.4.6c-.4.3-.6.7-.8,1.2s-.2,1.1-.2,1.8v1.6c0,.4,0,.8.1,1.2l-.2-.2ZM310.2,232.7c.3.5.6,1,1.1,1.4s1,.8,1.6,1.1,1.3.5,2,.7,1.4.2,2.2.2.6-.2.6-.6v-1.4c0-.4-.2-.6-.6-.6-.8,0-1.5,0-2.2-.3-.7-.2-1.2-.5-1.7-.8-.5-.4-.9-.8-1.1-1.3-.3-.5-.4-1-.4-1.7v-1c0-.4-.2-.6-.6-.6h-1.5c-.4,0-.6.2-.6.6v1c0,.6-.1,1.2-.4,1.7-.3.5-.6.9-1.1,1.3-.5.4-1.1.6-1.7.8-.7.2-1.4.3-2.2.3s-.6.2-.6.6v1.4c0,.4.2.6.6.6.7,0,1.5,0,2.2-.2s1.4-.4,2-.7,1.1-.7,1.6-1.1c.5-.4.8-.9,1.1-1.4h-.3Z"/>
    <path class="cls-2" d="M287.9,229.4c-.4,0-.6.2-.6.6v1.4c0,.4.2.6.6.6h10.7c.4,0,.6-.2.6-.6v-1.4c0-.4-.2-.6-.6-.6h-4.4c.2-.1.4-.3.4-.6v-1.3c0-.4-.2-.6-.6-.6h-1.6c-.4,0-.6.2-.6.6v1.5c0,.3-.2.4-.5.4h-3.4,0ZM288,239.5c0,1.9.5,3.3,1.4,4.4.9,1,2.2,1.5,3.9,1.5s2.9-.5,3.9-1.5c.9-1,1.4-2.5,1.4-4.4s-.5-3.3-1.4-4.4c-.9-1-2.2-1.5-3.9-1.5s-3,.5-3.9,1.5-1.4,2.5-1.4,4.4ZM293.3,236.2c.8,0,1.4.3,1.8.8.4.5.6,1.4.6,2.4s-.2,1.9-.7,2.5c-.4.6-1,.8-1.8.8s-1.4-.3-1.8-.8c-.4-.5-.7-1.4-.7-2.5s.2-1.9.7-2.4c.4-.5,1.1-.8,1.8-.8h0ZM282.5,248c0,.4.2.6.6.6h1.5c.4,0,.6-.2.6-.6v-20c0-.4-.2-.6-.6-.6h-1.5c-.4,0-.6.2-.6.6v8.2c-.2-.3-.5-.5-1-.5h-1.4c-.4,0-.6.2-.6.6v1.4c0,.4.2.6.6.6h1.6c.6,0,.8.3.8.8v8.8h0Z"/>
    <path class="cls-2" d="M269.6,244.8c0,.2,0,.4.2.5,0,0,.2.1.5.1h1.4c.4,0,.6-.2.6-.6-.3-1.7-.5-3.6-.7-5.5s-.2-3.7-.2-5.5,0-.8,0-1.1.2-.5.3-.7c.2-.2.4-.3.6-.4s.6-.1,1-.1c.8,0,1.5,0,2.2.1.7,0,1.3.2,1.9.3.2,0,.3,0,.5-.1.1-.1.2-.3.2-.5v-1.4c0-.4-.2-.6-.6-.6-.7-.1-1.4-.2-2.2-.3s-1.6-.1-2.3-.1-1.4,0-2,.2c-.5.2-1,.4-1.3.8-.3.4-.6.9-.7,1.5-.1.6-.2,1.3-.2,2.2v2.2h-2.2c-.3,0-.5,0-.6-.1-.1,0-.2-.3-.2-.5v-6.8c0-.4-.2-.6-.6-.6h-1.4c-.4,0-.6.2-.6.6v19.8c0,.4.2.6.6.6h1.4c.4,0,.6-.2.6-.6v-10.2c0,.1.2.2.3.3.1,0,.3.1.5.1h2.2c0,1.1.2,2.2.3,3.3s.3,2.2.4,3.2h.1ZM259,248.1c0,.4.2.6.6.6h1.4c.4,0,.6-.2.6-.6v-20.1c0-.4-.2-.6-.6-.6h-1.4c-.4,0-.6.2-.6.6v20.1Z"/>
    <path class="cls-2" d="M237.6,242.8c.6,0,.8.2.8.7v3.6c0,.4.2.6.6.6h1.5c.4,0,.6-.2.6-.6v-3.3c0-.2,0-.5-.2-.6-.1-.2-.3-.3-.5-.4h4.2c.7,0,1.3,0,1.9-.1.6,0,1.1,0,1.6-.1.4,0,.6-.3.6-.7v-1.3c0-.4-.2-.6-.6-.6-1.2.1-2.4.2-3.8.3-1.4,0-2.9.1-4.6.1h-4.8c-1.5,0-2.7-.2-3.6-.3-.4,0-.6.1-.6.6v1.3c0,.4.2.6.6.7.4,0,.9,0,1.4.1.5,0,1,0,1.6.1h3.3,0ZM243.9,238c.9,0,1.6-.2,2.1-.6.5-.4.8-1,.8-1.8l.4-7c0-.4-.2-.6-.6-.6h-1.5c-.4,0-.6.2-.6.6v1.5h-9.1v-1.5c-.1-.4-.3-.6-.7-.6h-1.5c-.4,0-.7.2-.6.6l.4,7c0,.8.3,1.4.8,1.8.5.4,1.2.6,2.1.6h8.2-.2ZM244.2,234.5c0,.6-.4,1-1.1,1h-6.5c-.7,0-1.1-.3-1.1-1v-1.8h8.8v1.8h0Z"/>
    <path class="cls-2" d="M217.2,237.5c.3,0,.6.2,1.1.3s.9.2,1.4.2,1,.1,1.5.1h1.5c1,0,1.9,0,2.6-.2s1.3-.3,1.7-.6.8-.6,1-1,.3-.9.3-1.5-.1-1.1-.3-1.5-.6-.7-1-1c-.5-.3-1.1-.4-1.9-.6-.8-.1-1.7-.2-2.8-.2s-1.8-.3-1.8-.8.1-.5.4-.6c.3-.1.8-.2,1.5-.2h2c.8,0,1.7.1,2.7.3.4,0,.6-.1.6-.5v-1.2c0-.3-.2-.5-.5-.6-.8-.1-1.6-.2-2.4-.3h-2.8c-1.5,0-2.6.2-3.2.5-.6.3-.9.8-.9,1.6s.1.9.3,1.2c.2.3.5.6.9.8h-.6c-.3,0-.5.2-.5.5v1c0,.3.2.5.5.5h5.1c.5,0,.9.1,1.2.2.3,0,.5.2.7.3.1.1.2.3.2.5s0,.3-.2.4c-.1.1-.3.2-.5.3-.3,0-.6.1-1,.2h-2.6c-.4,0-.7,0-1.1-.1-.4,0-.7-.1-1.1-.2-.4,0-.7-.2-1-.3h-.3c-.2,0-.3.1-.4.4l-.3,1.1v.4c0,.1.2.2.4.3l-.4.3ZM211.4,248.6c.5,0,1,.1,1.6.2.6,0,1.1,0,1.7.1s1.1,0,1.6,0h1.4c1.7,0,3.1,0,4.2-.1s2-.2,2.7-.5c.7-.2,1.1-.5,1.4-.9.3-.4.4-.9.4-1.5s-.1-1.1-.4-1.5c-.2-.4-.6-.7-1.2-.9s-1.3-.4-2.3-.5c-.9,0-2.1-.1-3.5-.1h-3.8c-.7,0-1.2-.2-1.2-.7s.4-.7,1.2-.7h5c1,0,1.9,0,2.8.1.9,0,1.7,0,2.4.1.4,0,.6-.2.6-.6v-1.1c0-.4-.2-.5-.6-.6-.9,0-1.9-.1-2.9-.2h-9c-.8,0-1.3.2-1.6.5s-.5.7-.5,1.3.1.9.4,1.2c.3.4.7.6,1.1.8h-.8c-.4,0-.5.2-.5.5v1c0,.4.2.5.5.5h9.4c.6,0,1.1,0,1.4.1s.6.1.7.3c.1.1.2.3.2.4s0,.3-.2.5c-.2.1-.4.2-.9.3s-1,0-1.8.1h-6c-.6,0-1.1,0-1.7-.1s-1.1-.1-1.5-.2c-.4,0-.6.1-.6.5v1.1c0,.4,0,.6.4.6h-.1ZM214.3,228c0-.4-.2-.6-.6-.6h-1.5c-.4,0-.6.2-.6.6v9.4c0,.4.2.6.6.6h1.5c.4,0,.6-.2.6-.6v-9.4Z"/>
    <path class="cls-2" d="M184.6,248.6c.4,0,.9.1,1.5.2.6,0,1.1,0,1.7.1h3.2c1.7,0,3.2,0,4.3-.1s2-.2,2.6-.5c.6-.2,1.1-.5,1.3-.9s.4-.9.4-1.5-.1-1.1-.3-1.4c-.2-.4-.6-.7-1.2-.9s-1.3-.4-2.2-.5-2.1-.1-3.5-.1h-3.9c-.4,0-.8,0-.9-.2-.2,0-.3-.3-.3-.5s0-.5.3-.6c.2-.1.5-.2.9-.2h5c1,0,1.9,0,2.8.1.9,0,1.7,0,2.4.1.4,0,.5-.2.5-.6v-1.1c0-.4-.2-.5-.5-.6-.8,0-1.6,0-2.4-.1-.8,0-1.7,0-2.6-.1v-.6c0-.3,0-.5-.3-.6h5.8c.6,0,1.1,0,1.6-.1.4,0,.6-.2.6-.6v-1.2c0-.4-.2-.6-.6-.5-.8,0-1.8.1-3.1.2s-3.1,0-5.3,0h-7c-.6,0-1.2,0-1.6-.1-.4,0-.6.1-.6.5v1.2c0,.4.2.6.6.6s.9,0,1.5.1h5.1c.5,0,.6.2.6.6v.6h-4.1c-.8,0-1.4.2-1.7.5s-.5.7-.5,1.3.1.9.4,1.3c.3.4.7.6,1.1.8h-.9c-.3,0-.5.2-.5.5v1c0,.4.2.6.5.5h9.5c.6,0,1,0,1.4.1.3,0,.5.1.6.3,0,.1.1.3.1.4s0,.4-.2.5-.4.2-.9.3-1,0-1.8,0h-6.2c-.6,0-1.1,0-1.7-.1s-1.1-.1-1.5-.2c-.4,0-.5.1-.6.5v1.1c0,.4,0,.6.4.6h.2ZM199,235c.2,0,.4,0,.5-.1,0,0,.1-.2.1-.4v-1.2c0-.2,0-.3-.1-.4,0,0-.2-.1-.5-.1-1.6,0-2.9-.2-3.9-.6-1-.4-1.5-1-1.6-1.7h5.1c.4,0,.6-.2.6-.6v-1.2c0-.4-.2-.6-.6-.6h-12.9c-.4,0-.6.2-.6.6v1.2c0,.4.2.6.6.6h5.1c0,.7-.6,1.3-1.6,1.7s-2.2.6-3.8.6-.4,0-.5.1c0,0-.1.2-.1.4v1.2c0,.2,0,.4.1.4,0,0,.2.1.5.1.7,0,1.5,0,2.2-.1s1.4-.3,2-.5,1.1-.5,1.6-.9.8-.7,1.1-1.2c.3.4.6.8,1.1,1.2s1,.6,1.6.9c.6.2,1.3.4,2,.5s1.4.2,2.2.1h-.2Z"/>
    <path class="cls-2" d="M163.3,237.3c0,3,.4,5.2,1.3,6.5s2.2,2.1,4.1,2.1,3.2-.7,4.1-2.1c.9-1.4,1.3-3.6,1.3-6.5s-.4-5.2-1.3-6.5c-.9-1.4-2.2-2.1-4.1-2.1s-3.2.7-4.1,2.1-1.3,3.6-1.3,6.5ZM168.7,231.3c.9,0,1.6.5,2,1.4s.6,2.4.6,4.6-.2,3.6-.6,4.6c-.4.9-1.1,1.4-2,1.4s-1.6-.5-2-1.4-.6-2.5-.6-4.6.2-3.6.6-4.6c.4-.9,1.1-1.4,2-1.4ZM157.8,248c0,.4.2.6.6.6h1.5c.4,0,.6-.2.6-.6v-20c0-.4-.2-.6-.6-.6h-1.5c-.4,0-.6.2-.6.6v8.2c-.2-.3-.5-.5-1-.5h-1.4c-.4,0-.6.2-.6.6v1.4c0,.4.2.6.6.6h1.6c.6,0,.8.3.8.8v8.8h0Z"/>
    <path class="cls-2" d="M152.2,238.1h-13.3c-1.4,0-2.5,0-3.4-.2-.4,0-.6.1-.6.6v1.3c0,.4.2.6.6.6s1,0,1.6.1h12.3c1.4,0,2.4,0,3.1-.2.4,0,.6-.3.6-.6v-1.3c0-.4-.2-.6-.6-.6l-.3.3ZM151.1,242.9c0-.4-.3-.6-.7-.6h-1.5c-.2,0-.4,0-.5.2-.1.1-.1.3-.1.5,0,.3,0,.5.1.8v.9c0,1.3-.8,1.9-2.3,1.9h-5.4c-.8,0-1.5,0-2.2-.1s-1.4-.1-2.1-.2c-.4,0-.6.1-.6.6v1.3c-.1.4,0,.6.5.6,1.2.1,2.6.2,4.3.3,1.7,0,3.5.1,5.5.1s2.9-.4,3.8-1.1,1.3-1.8,1.3-3.2,0-.7,0-1,0-.6-.1-.8v-.2ZM150.7,228.5c0-.4-.3-.6-.7-.6h-1.5c-.2,0-.4,0-.5.2,0,.1-.1.3-.1.5v3.7c0,1.3-.8,1.9-2.3,1.9h-4.9c-.7,0-1.4,0-2.1-.1-.7,0-1.4-.1-2.1-.2-.4,0-.6.1-.6.6v1.3c-.1.4,0,.6.5.6,1.2.1,2.6.2,4.2.3s3.3.1,5.2.1,2.8-.4,3.6-1.1,1.2-1.8,1.2-3.2,0-.5,0-.9v-3h0Z"/>
  </g>
  <g>
    <path class="cls-2" d="M317.4,271.5c0,.9.1,1.7.4,2.4.3.7.6,1.3,1.1,1.8s1,.9,1.7,1.2c.7.3,1.4.4,2.2.4s1.6-.1,2.2-.4c.7-.3,1.2-.7,1.7-1.2s.8-1.1,1.1-1.8c.3-.7.4-1.5.4-2.4s-.1-1.7-.4-2.4c-.3-.7-.6-1.3-1.1-1.8s-1-.9-1.7-1.2c-.7-.3-1.4-.4-2.2-.4s-1.6.1-2.2.4c-.7.3-1.2.7-1.7,1.2s-.8,1.1-1.1,1.8-.4,1.5-.4,2.4ZM326,279.9c0-.4-.3-.6-.7-.6h-1.4c-.2,0-.4,0-.5.2-.1.1-.2.3-.1.5v2.4c0,.7-.2,1.3-.6,1.6-.4.4-1,.6-1.8.6h-5.3c-.7,0-1.4,0-2.1-.1-.7,0-1.4-.1-2.1-.2-.4,0-.6.1-.6.6v1.3c-.1.4,0,.6.5.6,1.2.1,2.6.2,4.1.3,1.6,0,3.3.1,5.3.1s3-.4,3.9-1.2c.9-.8,1.4-1.9,1.4-3.3v-1.5c0-.5,0-.9-.1-1.2h.1ZM320.2,271.5c0-1,.2-1.8.7-2.4s1.1-.9,1.9-.9,1.5.3,1.9.9c.5.6.7,1.4.7,2.4s-.2,1.8-.7,2.4-1.1.9-1.9.9-1.5-.3-1.9-.9c-.5-.6-.7-1.4-.7-2.4ZM314.2,266c0-.4-.2-.6-.6-.6h-1.5c-.4,0-.6.2-.6.6v13.5c0,.4.2.6.6.6h1.5c.4,0,.6-.2.6-.6v-13.5Z"/>
    <path class="cls-2" d="M301.2,276.5c-.1-.5-.2-1-.3-1.5s-.2-1.1-.3-1.6-.2-1-.2-1.5v-1.3c0-1.3.7-2,2-2h3c.4,0,.7,0,1.1.1.3,0,.7.1,1.1.2.2,0,.3,0,.5-.1s.2-.3.2-.5v-1.4c0-.4-.2-.6-.6-.6-.9-.1-1.8-.2-2.6-.3s-1.7-.1-2.7-.1c-1.6,0-2.8.4-3.5,1.1s-1.1,1.9-1.1,3.6,0,.8,0,1.3.1,1,.2,1.5.2,1.1.3,1.6.2,1.1.3,1.5c0,.2.1.4.3.5.1,0,.3.1.5.1h1.5c.2,0,.4,0,.5-.2,0-.1.1-.3,0-.5h-.2ZM306.1,279.9c0-.4-.3-.6-.7-.6h-1.4c-.2,0-.4,0-.5.2-.1.1-.2.3-.1.5v2.4c0,.7-.2,1.3-.6,1.6-.4.4-1,.6-1.8.6h-4.9c-.7,0-1.4,0-2-.1-.6,0-1.3-.1-2-.2-.4,0-.6.1-.6.6v1.3c-.1.4,0,.6.5.6,1.2.1,2.5.2,4,.3,1.5,0,3.1.1,5,.1s3-.4,3.9-1.2c.9-.8,1.4-1.9,1.4-3.3v-1.5c0-.5,0-.9-.1-1.2h0ZM292,279.5c0,.4.2.6.6.6h1.5c.4,0,.6-.2.6-.6v-13.5c0-.4-.2-.6-.6-.6h-1.5c-.4,0-.6.2-.6.6v5.6c-.2-.3-.5-.5-1-.5h-1.4c-.4,0-.6.2-.6.6v1.3c0,.4.2.6.6.6h1.6c.6,0,.8.3.8.8v5.1h0Z"/>
    <path class="cls-2" d="M275.5,282.3c-.4,0-.6,0-.6.5v1.4c0,.4.2.6.6.6.8.1,1.8.2,2.8.3h6.4c.9,0,1.8-.1,2.6-.3.4,0,.6-.3.6-.6v-1.4c0-.4-.2-.6-.6-.5-.8.1-1.7.2-2.6.3h-6.4c-1.1,0-2-.1-2.8-.3ZM286.9,272.6c0-1-.1-1.9-.4-2.7s-.6-1.5-1.1-2-1-1-1.7-1.3-1.4-.5-2.2-.5-1.6.2-2.2.5c-.7.3-1.2.7-1.7,1.3s-.8,1.2-1.1,2-.4,1.7-.4,2.7.1,1.9.4,2.7c.3.8.6,1.5,1.1,2,.5.6,1,1,1.7,1.3s1.4.5,2.2.5,1.6-.2,2.2-.5c.7-.3,1.2-.7,1.7-1.3.5-.6.8-1.2,1.1-2s.4-1.7.4-2.7ZM281.5,276.6c-.8,0-1.5-.4-1.9-1.1-.5-.7-.7-1.7-.7-2.8s.2-2.1.7-2.8,1.1-1.1,1.9-1.1,1.5.4,1.9,1.1.7,1.7.7,2.8-.2,2.1-.7,2.8c-.5.7-1.1,1.1-1.9,1.1ZM270.7,286c0,.4.2.6.6.6h1.5c.4,0,.6-.2.6-.6v-20c0-.4-.2-.6-.6-.6h-1.5c-.4,0-.6.2-.6.6v20Z"/>
    <path class="cls-2" d="M259.8,274.9h-13.3c-1.4,0-2.5,0-3.4-.2-.4,0-.6.1-.6.6v1.3c0,.4.2.6.6.6s1,0,1.6.1,1.3,0,2.1,0h10.2c1.4,0,2.4,0,3.1-.2.4,0,.6-.3.6-.6v-1.3c0-.4-.2-.6-.6-.6l-.3.3ZM259.1,282.9c0-1.4-.6-2.4-1.9-3.1-1.3-.7-3.3-1-5.9-1s-4.6.3-5.9,1c-1.3.7-1.9,1.7-1.9,3.1s.6,2.4,1.9,3.1,3.3,1,5.9,1,4.6-.3,5.9-1c1.3-.7,1.9-1.7,1.9-3.1ZM258.3,266.5c0-.4-.3-.6-.7-.6h-1.5c-.2,0-.4,0-.5.2-.1.1-.1.3-.1.5,0,.4,0,.9.1,1.5v1.4c0,.6-.2,1.1-.5,1.4s-.9.4-1.7.4h-4.9c-.7,0-1.5,0-2.2-.1s-1.4-.1-2.1-.2c-.4,0-.6.1-.6.6v1.3c-.1.4,0,.6.5.6,1.2.1,2.6.2,4.3.3,1.6,0,3.4.1,5.3.1s2.7-.4,3.5-1.1,1.2-1.8,1.2-3.1v-1.6c0-.6,0-1-.1-1.5h0ZM256.3,282.9c0,.6-.4,1-1.2,1.3s-2.1.4-3.9.4-3.1-.1-3.9-.4-1.2-.7-1.2-1.3.4-1,1.2-1.3,2.1-.4,3.9-.4,3.1.1,3.9.4,1.2.7,1.2,1.3Z"/>
    <path class="cls-2" d="M229.1,276.5c.6.2,1.3.4,2.3.6s1.9.3,2.8.3,1.9,0,2.6-.2c.7-.1,1.3-.3,1.7-.6.4-.3.8-.7,1-1.1s.3-1,.3-1.7,0-1.2-.3-1.7c-.2-.5-.5-.8-1-1.1s-1.1-.5-1.8-.6-1.7-.2-2.7-.2-1.8-.3-1.8-1,.1-.5.4-.7c.3-.1.8-.2,1.5-.2h1.8c.7,0,1.6.1,2.5.3.4,0,.6-.1.6-.5v-1.3c0-.2,0-.3-.1-.4s-.2-.2-.5-.2c-.8-.1-1.6-.2-2.3-.3h-2.6c-1.5,0-2.6.2-3.2.6-.6.4-.9.9-.9,1.7s.4,1.8,1.3,2.3h-.6c-.4,0-.5.2-.5.5v1.2c0,.4.2.5.5.5h4.9c.5,0,.9.1,1.2.2s.5.2.6.4c.1.2.2.3.2.6s0,.4-.2.5c-.1.1-.3.2-.5.3s-.6.1-1,.2h-1.6c-.6,0-1.2,0-1.9-.2-.7-.1-1.3-.3-1.9-.6h-.3c-.2,0-.4.1-.4.4l-.3,1.3v.5c0,.1.2.2.4.3h-.2ZM223.3,286.2c0,.4.3.6.7.6h1.4c.2,0,.4,0,.5-.2s.2-.3.1-.5v-2.6c0-.8.2-1.3.5-1.6.3-.3.9-.4,1.7-.4,1.7,0,3.3,0,4.8.1,1.5,0,3,.2,4.5.3.4,0,.6-.1.6-.6v-1.3c0-.4-.2-.6-.6-.6-1.3-.1-2.7-.2-4.3-.3-1.6,0-3.3-.1-5.3-.1s-2.9.3-3.6.9c-.7.6-1.1,1.6-1.1,2.9v3.3h.1ZM223.1,276.7c0,.4.2.6.6.6h1.5c.4,0,.6-.2.6-.6v-2c.2.3.5.5,1,.5h.9c.4,0,.6-.2.6-.6v-1.3c0-.4-.2-.6-.6-.6h-1.2c-.2,0-.4,0-.5-.2s-.1-.3-.1-.5v-2.3c.2.3.5.5,1,.5h.9c.4,0,.6-.2.6-.6v-1.3c0-.4-.2-.6-.6-.6h-1.2c-.2,0-.4,0-.5-.2s-.1-.3-.1-.5v-.9c0-.4-.2-.6-.6-.6h-1.5c-.4,0-.6.2-.6.6v10.6h-.2Z"/>
    <path class="cls-2" d="M202.2,273.9c-.4,0-.6.1-.6.5v1.2c0,.4.2.6.6.6s1,0,1.6.1h12.4c1.4,0,2.4,0,3.1-.2.4,0,.6-.2.6-.6v-1.2c0-.4-.2-.6-.6-.5h-13.4c-1.4,0-2.5,0-3.5-.2l-.2.3ZM203,286.6c.4,0,.9.1,1.5.2.6,0,1.1,0,1.7.1h3.2c1.7,0,3.2,0,4.3-.1s2-.2,2.6-.5c.6-.2,1.1-.5,1.3-.9s.4-.9.4-1.5-.1-1.1-.3-1.4c-.2-.4-.6-.7-1.2-.9s-1.3-.4-2.2-.5-2.1-.1-3.5-.1h-3.9c-.4,0-.8,0-.9-.2-.2,0-.3-.3-.3-.5s0-.5.3-.6c.2-.1.5-.2.9-.2h5c1,0,1.9,0,2.8.1.9,0,1.7,0,2.4.1.4,0,.5-.2.5-.6v-1.1c0-.4-.2-.5-.5-.6-.9,0-1.9-.1-3-.2h-9c-.8,0-1.4.2-1.7.5s-.5.7-.5,1.3.1.9.4,1.3.7.6,1.1.8h-.9c-.3,0-.5.2-.5.5v1c0,.4.2.6.5.5h9.5c.6,0,1,0,1.4.1.3,0,.5.1.6.3,0,.1.1.3.1.4s0,.4-.2.5-.4.2-.9.3-1,0-1.8,0h-6.2c-.6,0-1.1,0-1.7-.1s-1.1-.1-1.5-.2c-.4,0-.5.1-.6.5v1.1c0,.4,0,.6.4.6h.4ZM217.9,269.4c0-.7-.1-1.2-.4-1.7s-.7-.9-1.3-1.2c-.6-.3-1.4-.5-2.3-.6-1-.1-2.1-.2-3.4-.2s-2.5,0-3.4.2c-1,.1-1.7.4-2.3.6-.6.3-1,.7-1.3,1.2s-.4,1-.4,1.7.1,1.2.4,1.7.7.9,1.3,1.2c.6.3,1.4.5,2.3.6s2.1.2,3.4.2,2.5,0,3.4-.2,1.7-.4,2.3-.6c.6-.3,1-.7,1.3-1.2s.4-1,.4-1.7ZM215.2,269.4c0,.3,0,.5-.2.7s-.4.3-.8.5c-.4.1-.9.2-1.5.3h-4.6c-.6,0-1.1-.1-1.5-.3-.4-.1-.6-.3-.8-.5s-.2-.4-.2-.7,0-.5.2-.7.4-.3.8-.5.9-.2,1.5-.3,1.4,0,2.3,0h2.3c.6,0,1.1.1,1.5.3s.6.3.8.5.2.4.2.7Z"/>
    <path class="cls-2" d="M185.3,275.5c-.1-.4-.2-.8-.3-1.3-.1-.5-.2-.9-.3-1.4s-.2-.9-.2-1.3v-1.1c0-.7.2-1.1.5-1.4s.8-.4,1.4-.4h3c.4,0,.8,0,1.1.1.4,0,.7.1,1.1.2.2,0,.3,0,.5-.1s.2-.3.2-.5v-1.4c0-.4-.2-.6-.6-.6-.9-.1-1.8-.2-2.7-.3s-1.8-.1-2.7-.1c-1.6,0-2.8.4-3.5,1.1s-1,1.9-1,3.5,0,.7,0,1.1.1.9.2,1.3.2.9.3,1.4c.1.5.2.9.3,1.3,0,.2.1.4.2.4,0,0,.2.1.5.1h1.5c.2,0,.4,0,.5-.2s.1-.3,0-.5h0ZM190.8,282.5c0-3-2.5-4.6-7.6-4.6s-7.6,1.5-7.6,4.6,2.5,4.6,7.6,4.6,7.6-1.5,7.6-4.6ZM188,282.5c0,.3,0,.6-.2.9-.2.2-.4.5-.8.6-.4.2-.9.3-1.5.4-.6,0-1.4.1-2.3.1s-1.7,0-2.3-.1c-.6,0-1.1-.2-1.5-.4-.4-.2-.6-.4-.8-.6-.2-.2-.2-.5-.2-.9s0-.6.2-.9c.2-.2.4-.5.8-.6.4-.2.9-.3,1.5-.4.6,0,1.4-.1,2.3-.1s1.7,0,2.3.1c.6,0,1.1.2,1.5.4.4.2.6.4.8.6.2.2.2.5.2.9ZM176.1,276.2c0,.4.2.6.6.6h1.5c.4,0,.6-.2.6-.6v-10.1c0-.4-.2-.6-.6-.6h-1.5c-.4,0-.6.2-.6.6v3.9c-.2-.3-.5-.5-1-.5h-1.4c-.4,0-.6.2-.6.6v1.3c0,.4.2.6.6.6h1.6c.6,0,.8.3.8.8v3.4h0Z"/>
    <path class="cls-2" d="M170.6,284.4c.4,0,.6-.3.6-.6v-1.3c0-.4-.2-.6-.6-.6s-.9,0-1.5.1c-.6,0-1.2,0-1.9.1s-1.4,0-2.1.1h-2.1c.2,0,.3-.2.4-.4.1-.2.2-.4.2-.6v-2.8c0-.4-.2-.6-.6-.6h-1.5c-.4,0-.6.2-.6.6v3c0,.5-.3.7-.8.7h-3.3c-.5,0-1.1,0-1.6-.1-.5,0-1,0-1.4-.1-.4,0-.6.1-.6.6v1.3c0,.4.2.6.6.6s.9.1,1.5.2c.6,0,1.3,0,2,.1h5c3.8,0,6.6-.1,8.4-.4h0ZM155.6,266.7c-.4,0-.6.2-.6.6v1.4c0,.4.2.6.6.6h5.1v1.4c0,.7-.1,1.4-.4,2s-.6,1.1-1.1,1.6c-.5.4-1.1.8-1.7,1.1-.7.3-1.4.4-2.2.4s-.6.2-.6.6v1.5c0,.3,0,.5.3.5h.6c.7,0,1.4,0,2.1-.3.7-.2,1.3-.5,1.9-.8.6-.4,1.1-.8,1.5-1.3s.8-1,1.1-1.6c.3.6.6,1.1,1.1,1.6s1,.9,1.5,1.3c.6.4,1.2.6,1.9.8.7.2,1.4.3,2.1.3s.4,0,.6,0,.3-.2.3-.5v-1.5c0-.4-.2-.6-.6-.6-.8,0-1.5-.1-2.2-.4s-1.2-.6-1.7-1.1c-.5-.4-.9-1-1.1-1.6-.3-.6-.4-1.3-.4-2v-1.4h5.1c.4,0,.6-.2.6-.6v-1.4c0-.4-.2-.6-.6-.6h-13.2Z"/>
    <path class="cls-2" d="M150.3,285.5c0-.5-.2-1-.5-1.3s-.8-.5-1.3-.5-1,.2-1.3.5-.5.7-.5,1.3.2.9.5,1.2c.3.3.8.5,1.3.5s1-.2,1.3-.5.5-.7.5-1.2Z"/>
  </g>
</svg>