<svg width="980" height="130" viewBox="0 0 980 130" fill="none" xmlns="http://www.w3.org/2000/svg">
<rect x="502" width="24" height="24" rx="12" transform="rotate(90 502 0)" fill="black"/>
<path d="M495.5 11L490 16L484.5 11" stroke="white" stroke-width="2" stroke-miterlimit="10" stroke-linecap="square"/>
<path d="M316.847 48.216H321.103V66.072H316.847V48.216ZM319.919 55.512H325.039V59H319.919V55.512ZM301.839 67.352H321.103V77.528H301.839V67.352ZM316.943 70.712H306.031V74.168H316.943V70.712ZM297.775 50.872H315.215V54.232H297.775V50.872ZM306.511 55.096C310.799 55.096 313.775 57.272 313.775 60.44C313.775 63.64 310.799 65.752 306.511 65.752C302.191 65.752 299.215 63.64 299.215 60.44C299.215 57.272 302.191 55.096 306.511 55.096ZM306.511 58.264C304.591 58.264 303.311 59 303.311 60.44C303.311 61.88 304.591 62.648 306.511 62.648C308.399 62.648 309.711 61.88 309.711 60.44C309.711 59 308.399 58.264 306.511 58.264ZM304.367 48.024H308.623V52.696H304.367V48.024ZM330.188 51.576H333.772C333.772 59.096 333.068 65.72 329.388 71.608L326.124 69.848C329.58 64.408 330.188 59.256 330.188 51.928V51.576ZM327.084 51.576H332.46V55H327.084V51.576ZM336.812 51.576H340.396C340.396 59.32 339.948 66.712 335.98 73.048L332.716 71.256C336.492 65.368 336.812 59.352 336.812 51.96V51.576ZM334.668 51.576H339.212V55H334.668V51.576ZM348.236 48.216H352.3V77.848H348.236V48.216ZM338.956 59.32H343.148V62.744H338.956V59.32ZM342.508 48.856H346.476V76.536H342.508V48.856ZM374.378 48.216H378.602V77.848H374.378V48.216ZM377.642 59.768H382.89V63.32H377.642V59.768ZM355.242 52.6H372.49V55.992H355.242V52.6ZM363.914 57.656C368.234 57.656 371.434 60.6 371.434 64.728C371.434 68.856 368.234 71.8 363.914 71.8C359.594 71.8 356.394 68.856 356.394 64.728C356.394 60.6 359.594 57.656 363.914 57.656ZM363.914 61.112C361.898 61.112 360.458 62.456 360.458 64.728C360.458 67 361.898 68.344 363.914 68.344C365.93 68.344 367.37 67 367.37 64.728C367.37 62.456 365.93 61.112 363.914 61.112ZM361.77 48.696H366.026V53.88H361.77V48.696ZM387.495 56.216H408.039V59.576H387.495V56.216ZM384.167 62.648H411.015V66.04H384.167V62.648ZM387.495 49.272H391.719V57.88H387.495V49.272ZM387.207 73.816H408.199V77.208H387.207V73.816ZM387.207 68.408H391.463V74.712H387.207V68.408ZM426.231 53.4H429.655V54.488C429.655 59.64 427.031 64.28 421.367 65.912L419.383 62.584C424.151 61.24 426.231 57.848 426.231 54.488V53.4ZM427.031 53.4H430.487V54.488C430.487 57.528 432.599 60.632 437.367 61.88L435.447 65.176C429.751 63.672 427.031 59.352 427.031 54.488V53.4ZM420.407 51.288H436.311V54.616H420.407V51.288ZM426.231 48.12H430.487V52.6H426.231V48.12ZM435.479 56.12H441.143V59.544H435.479V56.12ZM440.119 48.216H444.375V66.104H440.119V48.216ZM434.327 66.616C440.599 66.616 444.471 68.664 444.471 72.216C444.471 75.768 440.599 77.848 434.327 77.848C428.055 77.848 424.183 75.768 424.183 72.216C424.183 68.664 428.055 66.616 434.327 66.616ZM434.327 69.848C430.455 69.848 428.439 70.616 428.439 72.216C428.439 73.816 430.455 74.616 434.327 74.616C438.231 74.616 440.247 73.816 440.247 72.216C440.247 70.616 438.231 69.848 434.327 69.848ZM453.3 66.904H473.173V77.528H453.3V66.904ZM468.98 70.232H457.492V74.168H468.98V70.232ZM468.917 48.248H473.173V65.624H468.917V48.248ZM464.181 51.928H469.684V55.32H464.181V51.928ZM449.492 61.496H451.764C457.588 61.496 460.308 61.432 463.573 60.92L463.924 64.28C460.596 64.888 457.716 64.92 451.764 64.92H449.492V61.496ZM449.46 49.528H462.484V58.68H453.716V64.12H449.492V55.544H458.26V52.92H449.46V49.528ZM464.181 58.04H469.684V61.432H464.181V58.04ZM478.546 81.848L477.586 79.288C480.082 78.36 481.458 76.664 481.426 74.776L481.266 71.448L482.93 74.2C482.45 74.68 481.81 74.904 481.106 74.904C479.57 74.904 478.162 73.88 478.162 72.12C478.162 70.424 479.538 69.336 481.234 69.336C483.378 69.336 484.594 71.064 484.594 73.944C484.594 77.72 482.45 80.568 478.546 81.848ZM493.578 70.904H520.394V74.392H493.578V70.904ZM504.714 64.312H508.938V71.832H504.714V64.312ZM504.554 49.848H508.266V51.992C508.266 58.296 503.69 63.864 495.946 65.272L494.186 61.72C500.938 60.632 504.554 56.088 504.554 51.992V49.848ZM505.386 49.848H509.098V51.992C509.098 56.184 512.714 60.632 519.498 61.72L517.738 65.272C509.962 63.832 505.386 58.392 505.386 51.992V49.848ZM522.312 63.48H549.128V66.808H522.312V63.48ZM533.576 60.312H537.832V64.696H533.576V60.312ZM525.64 58.456H546.28V61.688H525.64V58.456ZM525.64 48.952H546.056V52.184H529.864V60.28H525.64V48.952ZM528.68 53.752H545.384V56.856H528.68V53.752ZM535.688 68.12C542.184 68.12 545.96 69.848 545.96 72.984C545.96 76.152 542.184 77.848 535.688 77.848C529.16 77.848 525.384 76.152 525.384 72.984C525.384 69.848 529.16 68.12 535.688 68.12ZM535.688 71.256C531.56 71.256 529.672 71.768 529.672 72.984C529.672 74.232 531.56 74.744 535.688 74.744C539.784 74.744 541.672 74.232 541.672 72.984C541.672 71.768 539.784 71.256 535.688 71.256ZM570.149 48.216H574.373V77.848H570.149V48.216ZM573.413 59.768H578.661V63.32H573.413V59.768ZM551.013 52.6H568.261V55.992H551.013V52.6ZM559.685 57.656C564.005 57.656 567.205 60.6 567.205 64.728C567.205 68.856 564.005 71.8 559.685 71.8C555.365 71.8 552.165 68.856 552.165 64.728C552.165 60.6 555.365 57.656 559.685 57.656ZM559.685 61.112C557.669 61.112 556.229 62.456 556.229 64.728C556.229 67 557.669 68.344 559.685 68.344C561.701 68.344 563.141 67 563.141 64.728C563.141 62.456 561.701 61.112 559.685 61.112ZM557.541 48.696H561.797V53.88H557.541V48.696ZM583.267 56.216H603.811V59.576H583.267V56.216ZM579.939 62.648H606.787V66.04H579.939V62.648ZM583.267 49.272H587.491V57.88H583.267V49.272ZM582.979 73.816H603.971V77.208H582.979V73.816ZM582.979 68.408H587.235V74.712H582.979V68.408ZM628.594 66.648C634.994 66.648 639.09 68.76 639.09 72.28C639.09 75.736 634.994 77.848 628.594 77.848C622.194 77.848 618.098 75.736 618.098 72.28C618.098 68.76 622.194 66.648 628.594 66.648ZM628.594 69.848C624.594 69.848 622.322 70.68 622.322 72.28C622.322 73.848 624.594 74.648 628.594 74.648C632.594 74.648 634.866 73.848 634.866 72.28C634.866 70.68 632.594 69.848 628.594 69.848ZM618.418 49.528H637.17V52.888H618.418V49.528ZM615.41 61.432H642.098V64.824H615.41V61.432ZM625.298 56.28H629.522V62.296H625.298V56.28ZM634.706 49.528H638.93V51.96C638.93 54.296 638.93 56.824 638.13 59.896L633.906 59.448C634.706 56.408 634.706 54.264 634.706 51.96V49.528ZM663.216 48.216H667.472V69.624H663.216V48.216ZM666.256 56.28H671.408V59.768H666.256V56.28ZM645.264 61.368H647.728C654.16 61.368 657.36 61.24 660.912 60.472L661.328 63.832C657.712 64.632 654.32 64.792 647.728 64.792H645.264V61.368ZM645.264 50.552H658.512V53.976H649.488V63.192H645.264V50.552ZM648.368 73.944H668.528V77.336H648.368V73.944ZM648.368 67.384H652.624V75.672H648.368V67.384ZM676.045 66.936L675.341 55.128L675.213 50.68H679.917L679.789 55.128L679.117 66.936H676.045ZM677.549 75.448C675.885 75.448 674.637 74.136 674.637 72.376C674.637 70.616 675.885 69.336 677.549 69.336C679.245 69.336 680.493 70.616 680.493 72.376C680.493 74.136 679.245 75.448 677.549 75.448ZM345.141 101.864H352.053V105.288H345.141V101.864ZM349.813 94.248H354.069V115.848H349.813V94.248ZM334.517 119.944H354.741V123.336H334.517V119.944ZM334.517 114.024H338.773V121.96H334.517V114.024ZM336.117 98.12H339.573V99.976C339.573 105.544 336.949 110.696 331.253 112.584L329.109 109.192C334.005 107.592 336.117 103.72 336.117 99.976V98.12ZM337.013 98.12H340.437V99.976C340.437 103.432 342.453 107.112 347.125 108.68L345.045 112.008C339.541 110.184 337.013 105.256 337.013 99.976V98.12ZM330.261 96.232H346.197V99.592H330.261V96.232ZM369.298 110.888H373.522V115.368H369.298V110.888ZM358.066 108.328H384.85V111.688H358.066V108.328ZM361.042 114.184H381.618V123.848H377.362V117.544H361.042V114.184ZM361.49 94.952H365.682V97.576H377.234V94.952H381.458V106.408H361.49V94.952ZM365.682 100.744V103.08H377.234V100.744H365.682ZM393.52 99.4H396.944V100.488C396.944 105.64 394.32 110.28 388.656 111.912L386.672 108.584C391.44 107.24 393.52 103.848 393.52 100.488V99.4ZM394.32 99.4H397.776V100.488C397.776 103.528 399.888 106.632 404.656 107.88L402.736 111.176C397.04 109.672 394.32 105.352 394.32 100.488V99.4ZM387.696 97.288H403.6V100.616H387.696V97.288ZM393.52 94.12H397.776V98.6H393.52V94.12ZM402.768 102.12H408.432V105.544H402.768V102.12ZM407.408 94.216H411.664V112.104H407.408V94.216ZM401.616 112.616C407.888 112.616 411.76 114.664 411.76 118.216C411.76 121.768 407.888 123.848 401.616 123.848C395.344 123.848 391.472 121.768 391.472 118.216C391.472 114.664 395.344 112.616 401.616 112.616ZM401.616 115.848C397.744 115.848 395.728 116.616 395.728 118.216C395.728 119.816 397.744 120.616 401.616 120.616C405.52 120.616 407.536 119.816 407.536 118.216C407.536 116.616 405.52 115.848 401.616 115.848ZM420.589 112.904H440.461V123.528H420.589V112.904ZM436.269 116.232H424.781V120.168H436.269V116.232ZM436.205 94.248H440.461V111.624H436.205V94.248ZM431.469 97.928H436.973V101.32H431.469V97.928ZM416.781 107.496H419.053C424.877 107.496 427.597 107.432 430.861 106.92L431.213 110.28C427.885 110.888 425.005 110.92 419.053 110.92H416.781V107.496ZM416.749 95.528H429.773V104.68H421.005V110.12H416.781V101.544H425.549V98.92H416.749V95.528ZM431.469 104.04H436.973V107.432H431.469V104.04ZM447.787 103.432H468.523V106.824H447.787V103.432ZM444.491 110.184H471.307V113.608H444.491V110.184ZM455.627 112.232H459.883V123.848H455.627V112.232ZM447.787 95.528H452.043V105.032H447.787V95.528ZM493.672 94.184H497.928V123.912H493.672V94.184ZM474.856 113.544H477.48C482.728 113.544 486.92 113.352 491.624 112.552L492.04 115.976C487.24 116.84 482.888 117 477.48 117H474.856V113.544ZM474.824 96.712H488.808V108.168H479.176V114.824H474.856V104.808H484.456V100.104H474.824V96.712ZM502.054 108.84H528.87V112.232H502.054V108.84ZM513.67 110.984H517.958V117.224H513.67V110.984ZM505.35 95.464H525.478V106.472H505.35V95.464ZM521.286 98.792H509.51V103.144H521.286V98.792ZM505.158 119.944H525.926V123.336H505.158V119.944ZM505.158 114.728H509.382V121.064H505.158V114.728ZM537.699 111.752H541.955V116.552H537.699V111.752ZM550.147 94.216H554.435V123.848H550.147V94.216ZM552.931 106.248H558.147V109.768H552.931V106.248ZM531.043 118.92L530.531 115.496C535.651 115.496 542.691 115.464 548.675 114.632L548.995 117.704C542.755 118.92 536.035 118.92 531.043 118.92ZM531.075 97.48H548.515V100.808H531.075V97.48ZM539.843 101.992C544.067 101.992 547.075 104.232 547.075 107.528C547.075 110.856 544.067 113.096 539.843 113.096C535.587 113.096 532.611 110.856 532.611 107.528C532.611 104.232 535.587 101.992 539.843 101.992ZM539.843 105.192C537.891 105.192 536.643 106.024 536.643 107.528C536.643 109.064 537.891 109.896 539.843 109.896C541.763 109.896 543.043 109.064 543.043 107.528C543.043 106.024 541.763 105.192 539.843 105.192ZM537.699 94.376H541.955V99.976H537.699V94.376ZM581.057 94.216H585.089V123.848H581.057V94.216ZM571.297 104.328H576.193V107.784H571.297V104.328ZM575.073 94.696H579.041V122.504H575.073V94.696ZM564.897 99.048H568.097V102.088C568.097 108.744 566.273 115.368 561.569 118.312L559.041 115.176C563.393 112.456 564.897 107.144 564.897 102.088V99.048ZM565.857 99.048H569.025V102.088C569.025 107.016 570.497 112.008 574.785 114.504L572.289 117.608C567.585 114.824 565.857 108.616 565.857 102.088V99.048ZM560.161 97.192H573.377V100.616H560.161V97.192ZM601.936 95.752H605.488V98.408C605.488 104.36 602.832 109.576 597.008 111.528L594.8 108.104C599.856 106.472 601.936 102.472 601.936 98.408V95.752ZM602.832 95.752H606.256V98.216C606.256 102.152 608.176 105.8 612.88 107.304L610.672 110.632C605.2 108.744 602.832 103.976 602.832 98.216V95.752ZM615.6 94.216H619.856V111.56H615.6V94.216ZM609.808 112.328C616.08 112.328 619.952 114.472 619.952 118.088C619.952 121.736 616.08 123.848 609.808 123.848C603.536 123.848 599.664 121.736 599.664 118.088C599.664 114.472 603.536 112.328 609.808 112.328ZM609.808 115.624C605.968 115.624 603.92 116.424 603.92 118.088C603.92 119.752 605.968 120.584 609.808 120.584C613.68 120.584 615.728 119.752 615.728 118.088C615.728 116.424 613.68 115.624 609.808 115.624ZM610.192 99.592H616.208V103.048H610.192V99.592ZM630.67 111.496H634.83V118.472H630.67V111.496ZM640.046 111.464H644.206V118.472H640.046V111.464ZM623.886 117.128H650.702V120.584H623.886V117.128ZM626.894 96.136H647.694V105.96H631.182V110.984H626.958V102.632H643.47V99.496H626.894V96.136ZM626.958 109.192H648.366V112.616H626.958V109.192Z" fill="white"/>
</svg>
