<svg width="400" height="277" viewBox="0 0 400 277" fill="none" xmlns="http://www.w3.org/2000/svg">
<g clip-path="url(#clip0_761_30823)">
<path d="M268.205 116.992L269.571 124.021C295.918 124.025 361.548 124.025 366.497 124.025H368.082L367.766 125.186C360.46 152.156 352.675 180.735 345.143 208.376C337.722 235.61 330.052 263.762 322.84 290.382H330.467C331.953 284.873 333.84 278.088 335.663 271.512C337.282 265.688 338.806 260.188 340.07 255.542C341.646 249.74 343.23 243.936 344.81 238.129C346.71 231.152 348.614 224.175 350.506 217.197C352.79 208.785 355.066 200.373 357.347 191.961C359.772 182.999 362.202 174.036 364.636 165.077C366.984 156.43 369.337 147.784 371.694 139.141C373.487 132.561 375.277 125.981 377.07 119.401C377.275 118.649 377.459 117.885 377.651 117.078C377.655 117.052 377.664 117.026 377.668 116.996H268.205V116.992Z" fill="white"/>
<path d="M336.907 211.214C338.935 203.788 340.964 196.362 342.992 188.933C347.488 172.437 351.98 155.938 356.468 139.438L357.608 135.249C357.907 134.156 358.189 133.055 358.488 131.906C358.539 131.71 358.59 131.513 358.642 131.312H270.99L272.357 138.345H349.034L348.718 139.507C342.018 164.171 334.853 190.384 327.923 215.736C321.133 240.575 314.118 266.246 307.559 290.38H315.198C317.448 282.101 320.096 272.51 322.658 263.231C325.011 254.713 327.44 245.908 329.503 238.328C331.971 229.289 334.439 220.249 336.907 211.214Z" fill="white"/>
<path d="M307.889 261.482C309.657 254.966 311.416 248.445 313.18 241.925C314.883 235.618 316.587 229.315 318.295 223.013C319.879 217.167 321.468 211.321 323.056 205.472C324.483 200.228 325.904 194.984 327.326 189.741C330.217 179.074 333.104 168.403 335.99 157.732L337.767 151.161C338.181 149.632 338.591 148.099 339.009 146.545L339.342 145.298H328.355C314.99 145.298 287.073 145.294 273.703 145.285C274.578 149.376 278.212 152.326 282.405 152.326C291.817 152.326 327.856 152.369 328.539 152.399L329.683 152.45L323.342 175.931C319.089 191.692 314.849 207.397 310.605 223.098C307.706 233.825 304.383 245.96 301.164 257.694C298.136 268.732 295.015 280.138 292.244 290.377H299.853C300.856 286.713 302.095 282.298 303.397 277.64C305.011 271.909 306.672 265.982 307.889 261.482Z" fill="white"/>
<path d="M123.714 167.255C122.689 155.704 118.56 145.183 111.446 135.977C110.652 134.948 110.528 133.914 111.066 132.719C113.483 127.33 114.998 121.685 115.571 115.942C116.894 102.615 113.807 90.6674 106.386 80.4278C94.4852 64.0052 78.1907 56.5582 57.9463 58.2876C45.4992 59.3508 34.6618 64.509 25.7374 73.6128C24.7382 74.6333 23.8201 75.7393 22.8465 76.9093C22.6288 77.174 22.4067 77.4387 22.1804 77.7078C22.4921 77.917 22.8038 78.122 23.1113 78.3226C24.6101 79.309 26.0235 80.2442 27.4112 81.2391C27.6375 81.4014 27.7614 81.4569 27.8126 81.4782C27.8639 81.4441 27.9791 81.3544 28.1713 81.1238C34.5081 73.6213 42.3094 68.6382 51.3491 66.3153C68.0109 62.0281 82.5205 65.6748 94.4724 77.1527C107.21 89.3821 111.523 104.652 107.3 122.535C107.031 123.679 106.655 124.772 106.262 125.929C106.078 126.467 105.89 127.014 105.711 127.586L105.237 129.076L104.037 128.073C103.636 127.736 103.26 127.411 102.906 127.095C102.167 126.446 101.526 125.882 100.835 125.434C99.1908 124.367 99.3317 123.043 99.6861 121.886C102.018 114.285 102.03 106.731 99.7288 99.438C95.8345 87.0976 86.15 77.6224 73.8224 74.0825C61.4606 70.5341 48.1808 73.4505 38.2999 81.8796C37.1768 82.8361 36.1264 83.9079 35.0162 85.0394C34.7643 85.2956 34.5123 85.5561 34.2518 85.8166L40.0378 89.7408C45.6614 83.5705 52.8308 80.0264 60.8244 79.4713C69.1168 78.8948 77.6911 81.7131 83.746 87.0079C93.6055 95.6292 96.4537 110.549 92.8455 118.551L92.4142 119.507L91.4577 119.08C91.1118 118.927 90.766 118.764 90.4201 118.602C89.6387 118.235 88.8999 117.885 88.1356 117.62C86.6838 117.112 86.1415 116.125 86.4746 114.605C87.2517 111.035 87.0724 107.342 85.9408 103.618C83.4855 95.5566 77.4434 89.7408 69.3559 87.6612C61.2129 85.5647 52.5576 87.768 46.7716 93.4045C46.6521 93.524 46.5325 93.6521 46.413 93.7888C47.0492 94.2115 47.852 94.7453 48.6932 95.3046C50.8239 96.718 53.5952 96.812 55.9309 95.5438C60.8756 92.8622 67.0458 93.0116 71.6489 95.9238C77.9131 99.8864 81.0559 106.949 79.4631 113.495L79.2454 114.392L78.3273 114.294C78.2035 114.281 78.0754 114.268 77.9473 114.255C77.6398 114.225 77.3238 114.195 76.995 114.144C76.0514 113.995 75.0949 113.82 74.1725 113.653C72.2638 113.307 70.2868 112.953 68.3525 112.778C60.6877 112.09 53.1554 112.82 45.9646 114.947C45.9219 114.96 45.8835 114.972 45.8493 114.981C45.892 115.101 45.9689 115.276 46.1012 115.54C46.9979 117.308 47.6684 119.08 48.0954 120.814C48.1808 121.164 48.2533 121.343 48.296 121.437C48.3516 121.433 48.4412 121.416 48.5693 121.386C51.2125 120.729 53.3603 120.276 55.3245 119.96C66.5035 118.154 77.1872 119.751 87.0724 124.712C96.8679 129.627 104.819 137.164 110.067 146.511C115.306 155.841 117.629 166.585 116.792 177.576C115.84 190.014 111.198 200.775 102.991 209.558C92.064 221.254 79.1173 227.138 64.3941 227.138C60.4913 227.138 56.4646 226.724 52.3184 225.896C37.6551 222.971 26.2028 215.058 18.2648 202.38C16.7318 203.205 15.6216 204.601 15.1605 206.322C14.6267 208.311 15.0708 210.361 16.3732 211.95C16.4415 212.035 16.5098 212.112 16.5781 212.193C26.3608 223.854 38.8678 230.896 53.7489 233.12C63.4718 234.572 72.8061 233.932 81.4957 231.216C109.375 222.505 126.344 196.799 123.714 167.255Z" fill="white"/>
<path d="M32.2711 197.033L25.7422 199.497C26.8396 201.141 27.9712 202.725 29.2821 204.143C43.2836 219.302 64.4972 223.452 83.3281 214.711C104.478 204.895 115.016 179.381 106.822 157.839C99.9514 139.781 86.6673 129.537 67.3495 127.393C62.4262 126.847 57.2338 127.325 51.0123 128.892C50.897 128.922 50.8116 128.948 50.7519 128.969C50.7647 129.016 50.786 129.076 50.8202 129.148C51.6657 131.159 52.4513 133.192 53.1559 135.19C53.1858 135.271 53.2071 135.336 53.2285 135.382C53.2712 135.374 53.3267 135.357 53.395 135.34C59.988 133.384 66.8927 133.397 73.9254 135.378C82.3844 137.761 89.5623 142.607 94.6779 149.393C99.614 155.938 102.304 163.847 102.479 172.314C102.479 172.314 102.509 175.743 102.355 176.87C102.01 179.39 101.647 181.994 100.844 184.462C95.5917 200.561 84.5877 209.861 68.1352 212.098C59.4414 213.281 51.1319 211.556 43.4287 206.97C38.9281 204.297 35.179 200.958 32.2711 197.033Z" fill="white"/>
<path d="M66.6151 197.474C59.672 198.593 52.3489 196.368 46.8832 191.521L39.8633 194.169C49.0055 204.063 64.0958 207.274 76.3423 201.765C91.5864 194.908 98.8113 177.9 93.145 162.208C87.6537 146.993 71.9185 138.65 55.7052 142.322C56.5677 144.448 57.3833 146.583 58.1263 148.676C58.1348 148.706 58.1434 148.727 58.1519 148.748C58.1989 148.744 58.2586 148.731 58.3355 148.714C61.9053 147.971 65.411 147.984 68.7587 148.757C76.0391 150.435 82.0983 155.158 85.3905 161.712C88.7297 168.369 88.8792 176.209 85.8005 183.225C82.3118 191.197 75.8555 195.988 66.6151 197.474Z" fill="white"/>
<path d="M322.632 84.3473H312.252C309.352 84.3473 307.004 81.9988 307.004 79.0995C307.004 76.2001 309.352 73.8516 312.252 73.8516H322.632C325.532 73.8516 327.88 76.2001 327.88 79.0995C327.88 81.9988 325.532 84.3473 322.632 84.3473Z" fill="#FFF5E6"/>
<path d="M322.149 87.4557V80.709H315.406L322.149 87.4557Z" fill="#FFF5E6"/>
<path d="M321.89 78.0913H312.53C312.385 78.0913 312.27 77.976 312.27 77.8308C312.27 77.6856 312.385 77.5703 312.53 77.5703H321.89C322.035 77.5703 322.15 77.6856 322.15 77.8308C322.15 77.976 322.035 78.0913 321.89 78.0913Z" fill="#FF6239"/>
<path d="M321.89 79.9155H312.53C312.385 79.9155 312.27 79.8002 312.27 79.655C312.27 79.5098 312.385 79.3945 312.53 79.3945H321.89C322.035 79.3945 322.15 79.5098 322.15 79.655C322.15 79.7959 322.035 79.9155 321.89 79.9155Z" fill="#FF6239"/>
<path d="M301.675 101.537H291.585C290.782 101.537 290.133 100.888 290.133 100.085V89.9948C290.133 89.192 290.782 88.543 291.585 88.543H301.675C302.478 88.543 303.127 89.192 303.127 89.9948V100.085C303.131 100.888 302.478 101.537 301.675 101.537Z" fill="#FFF5E6"/>
<path d="M293.373 99.9082V103.619L296.405 99.9082H293.373Z" fill="#FFF5E6"/>
<path d="M293.512 92.6074H292.658V93.4614H293.512V92.6074Z" fill="#FF6239"/>
<path d="M301.01 92.6074H299.055V93.4614H301.01V92.6074Z" fill="#FF6239"/>
<path d="M298.299 92.6074H294.037V93.4614H298.299V92.6074Z" fill="#FF6239"/>
<path d="M298.859 95.4492H301.016V94.5952H298.859V95.4492Z" fill="#FF6239"/>
<path d="M292.66 95.4492H294.615V94.5952H292.66V95.4492Z" fill="#FF6239"/>
<path d="M295.374 95.4492H298.521V94.5952H295.374V95.4492Z" fill="#FF6239"/>
<path d="M298.037 97.4668H301.014V96.6128H298.037V97.4668Z" fill="#FF6239"/>
<path d="M292.659 97.4668H293.658V96.6128H292.659V97.4668Z" fill="#FF6239"/>
<path d="M294.416 97.4668H297.699V96.6128H294.416V97.4668Z" fill="#FF6239"/>
<path d="M276.476 88.6001H267.935C267.342 88.6001 266.859 88.1176 266.859 87.524V84.4667C266.859 83.8731 267.342 83.3906 267.935 83.3906H276.471C277.065 83.3906 277.547 83.8731 277.547 84.4667V87.524C277.547 88.1218 277.069 88.6001 276.476 88.6001Z" fill="#FFF5E6"/>
<path d="M273.133 87.9336L275.631 90.6109L275.507 87.9336H273.133Z" fill="#FFF5E6"/>
<path d="M269.991 85.9993C269.991 86.2341 269.799 86.4263 269.564 86.4263C269.329 86.4263 269.137 86.2341 269.137 85.9993C269.137 85.7644 269.329 85.5723 269.564 85.5723C269.799 85.5723 269.991 85.7601 269.991 85.9993Z" fill="#FF6239"/>
<path d="M272.629 85.9993C272.629 86.2341 272.437 86.4263 272.202 86.4263C271.968 86.4263 271.775 86.2341 271.775 85.9993C271.775 85.7644 271.968 85.5723 272.202 85.5723C272.437 85.5723 272.629 85.7601 272.629 85.9993Z" fill="#FF6239"/>
<path d="M275.27 85.9993C275.27 86.2341 275.078 86.4263 274.843 86.4263C274.608 86.4263 274.416 86.2341 274.416 85.9993C274.416 85.7644 274.608 85.5723 274.843 85.5723C275.082 85.5723 275.27 85.7601 275.27 85.9993Z" fill="#FF6239"/>
<path d="M287.975 173.858C289.914 166.676 291.003 159.007 291.003 150.847C291.003 124.62 274.631 96.1602 244.57 96.1602C223.519 96.1602 205.743 110.49 200.051 130.128V173.862H287.975V173.858Z" fill="#F88B2D"/>
<path d="M200.048 130.126C194.356 110.488 176.58 96.1582 155.528 96.1582C120.377 96.1582 109.096 124.622 109.096 150.845C109.096 159.069 110.018 166.729 111.675 173.856H200.048V130.126Z" fill="#FFF5E6"/>
<path d="M111.676 173.857C126.484 237.575 200.049 258.823 200.049 258.823V173.857H111.676Z" fill="url(#paint0_linear_761_30823)"/>
<path d="M200.047 173.857V258.823C200.047 258.823 272.194 232.366 287.976 173.857H200.047Z" fill="#FFF5E6"/>
<path d="M157.822 93.5824C157.822 93.5824 143.739 90.7214 139.021 97.7243C134.302 104.727 135.054 131.936 135.054 131.936H155.985L157.822 93.5824Z" fill="url(#paint1_linear_761_30823)"/>
<path d="M159.638 124.615H148.689V136.96H159.638V124.615Z" fill="#FFC8D4"/>
<path d="M162.817 114.641C169.618 114.641 175.132 109.128 175.132 102.327C175.132 95.5253 169.618 90.0117 162.817 90.0117C156.015 90.0117 150.502 95.5253 150.502 102.327C150.502 109.128 156.015 114.641 162.817 114.641Z" fill="#78AFF0"/>
<path d="M160.853 100.67C147.432 99.4658 146.095 111.503 146.253 117.673C146.411 123.844 149.674 131.017 159.119 131.875C168.564 132.734 170.926 123.194 171.609 116.909C172.288 110.632 170.631 101.55 160.853 100.67Z" fill="#FFC8D4"/>
<path d="M140.552 114.058C139.843 118.204 144.723 120.399 148.724 120.971L149.754 109.699C149.754 109.699 141.589 107.973 140.552 114.058Z" fill="#FFC8D4"/>
<path d="M153.461 110.952C153.461 110.952 155.421 109.406 157.816 111.196" stroke="#524B50" stroke-width="0.427005" stroke-miterlimit="10" stroke-linecap="round" stroke-linejoin="round"/>
<path d="M165.898 112.061C165.898 112.061 167.589 111.019 169.199 112.749" stroke="#524B50" stroke-width="0.427005" stroke-miterlimit="10" stroke-linecap="round" stroke-linejoin="round"/>
<path d="M157.439 114.679C157.384 115.661 157.017 116.438 156.615 116.417C156.214 116.395 155.932 115.58 155.987 114.598C156.043 113.616 156.41 112.838 156.812 112.86C157.213 112.881 157.491 113.697 157.439 114.679Z" fill="#524B50"/>
<path d="M167.687 115.193C167.632 116.175 167.265 116.952 166.863 116.93C166.462 116.909 166.18 116.093 166.235 115.111C166.291 114.129 166.658 113.352 167.06 113.373C167.465 113.399 167.743 114.21 167.687 115.193Z" fill="#524B50"/>
<path d="M143.547 113.9C143.547 113.9 146.433 114.366 147.087 116.398" stroke="#FF8380" stroke-width="0.427005" stroke-miterlimit="10" stroke-linecap="round" stroke-linejoin="round"/>
<path d="M154.16 118.18C154.138 118.534 153.579 118.795 152.904 118.756C152.229 118.718 151.7 118.402 151.721 118.043C151.743 117.689 152.302 117.428 152.977 117.467C153.647 117.501 154.181 117.821 154.16 118.18Z" fill="#FF8080"/>
<path d="M169.404 119.316C169.382 119.671 168.823 119.931 168.148 119.893C167.474 119.854 166.944 119.539 166.965 119.18C166.987 118.825 167.546 118.565 168.221 118.603C168.896 118.642 169.425 118.962 169.404 119.316Z" fill="#FF8080"/>
<path d="M162.49 112.686C162.49 112.686 161.453 115.675 162.776 116.336C164.907 117.4 165.309 118.536 163.122 119.834" stroke="#FF8380" stroke-width="0.427005" stroke-miterlimit="10" stroke-linecap="round" stroke-linejoin="round"/>
<path d="M162.816 121.73C162.816 121.73 162.017 124.476 160.591 124.058C159.165 123.639 158.008 120.791 158.008 120.791C158.008 120.791 161.326 121.453 163.341 121.59" stroke="#FF8380" stroke-width="0.427005" stroke-miterlimit="10" stroke-linecap="round" stroke-linejoin="round"/>
<path d="M141.953 105.892C141.953 105.892 147.38 116.388 154.161 109.47C160.938 102.553 164.584 96.3401 164.584 96.3401L157.445 95.8789L141.953 105.892Z" fill="#78AFF0"/>
<path d="M147.247 125.604C149.029 124.691 149.734 122.506 148.821 120.724C147.909 118.942 145.724 118.237 143.942 119.15C142.16 120.063 141.455 122.247 142.368 124.03C143.28 125.812 145.465 126.516 147.247 125.604Z" fill="#FFF5E6"/>
<path d="M153.461 128.408C153.461 128.408 154.417 130.249 158.141 131.478" stroke="#FF8380" stroke-width="0.427005" stroke-miterlimit="10" stroke-linecap="round" stroke-linejoin="round"/>
<path d="M156.406 93.3502C156.406 93.3502 161.475 93.2648 162.512 95.1906C163.55 97.1206 161.991 99.3923 161.991 99.3923" stroke="#5296D7" stroke-width="0.427005" stroke-miterlimit="10" stroke-linecap="round" stroke-linejoin="round"/>
<path d="M157.603 97.1465C157.603 97.1465 152.829 103.761 150.988 106.293" stroke="#5296D7" stroke-width="0.427005" stroke-miterlimit="10" stroke-linecap="round" stroke-linejoin="round"/>
<path d="M154.294 96.5547C154.294 96.5547 149.52 103.169 147.68 105.701" stroke="#5296D7" stroke-width="0.427005" stroke-miterlimit="10" stroke-linecap="round" stroke-linejoin="round"/>
<path d="M166.237 135.895H143.422L154.831 153.184L166.237 135.895Z" fill="#FFC8D4"/>
<path d="M166.238 135.895L154.833 153.188L143.427 135.895H129.379L119.477 159.747H190.829V151.523C190.829 142.893 183.207 135.895 173.809 135.895H166.238Z" fill="#FF6239"/>
<path d="M135.363 195.883H131.392C116.088 195.883 103.684 190.661 103.684 175.357V163.597C103.684 148.293 116.088 135.889 131.392 135.889H140.402L158.016 163.375V173.226C158.016 185.737 147.874 195.883 135.363 195.883Z" fill="#FF6239"/>
<path d="M128.764 154.859C128.764 154.859 134.96 155.338 143.551 158.51" stroke="#DC4F32" stroke-width="0.427005" stroke-miterlimit="10" stroke-linecap="round" stroke-linejoin="round"/>
<path d="M132.43 150.924C132.43 150.924 134.676 153.204 135.278 156.005" stroke="#DC4F32" stroke-width="0.427005" stroke-miterlimit="10" stroke-linecap="round" stroke-linejoin="round"/>
<path d="M191.605 121.921C191.605 121.921 193.591 114.316 192.178 112.002H193.975C193.975 112.002 193.01 113.219 194.829 121.093C195.786 125.239 191.605 121.921 191.605 121.921Z" fill="#30A531"/>
<path d="M193.12 112.939C192.65 114.442 190.186 115.155 187.714 114.246C185.015 113.255 181.582 112.947 181.582 112.947C181.582 112.947 184.101 108.378 188.79 108.408C193.508 108.438 193.589 111.436 193.12 112.939Z" fill="#89C344"/>
<path d="M193.264 112.962C193.742 114.465 196.313 115.396 198.679 114.23C202.739 112.228 205.037 112.787 205.037 112.787C205.037 112.787 201.856 107.868 196.689 108.402C192.927 108.79 192.786 111.463 193.264 112.962Z" fill="#89C344"/>
<path d="M193.948 111.49C196.882 109.33 200.622 110.542 203.419 112.289C203.658 112.438 203.88 112.058 203.641 111.909C200.721 110.086 196.784 108.864 193.726 111.11C193.5 111.281 193.718 111.661 193.948 111.49Z" fill="#4D9E53"/>
<path d="M192.89 111.446C192.476 110.763 191.729 110.506 190.973 110.391C189.969 110.237 188.936 110.229 187.928 110.323C185.87 110.519 183.885 111.181 182.121 112.261C181.882 112.406 182.1 112.787 182.343 112.641C183.936 111.668 185.721 111.032 187.574 110.801C188.458 110.69 189.355 110.673 190.243 110.745C191.045 110.814 192.049 110.908 192.51 111.668C192.66 111.907 193.04 111.685 192.89 111.446Z" fill="#4D9E53"/>
<path d="M189.99 110.424C189.841 110.924 189.606 111.394 189.333 111.838C189.06 112.282 188.748 112.705 188.368 113.063C188.163 113.255 188.475 113.567 188.68 113.375C189.085 112.991 189.422 112.534 189.713 112.06C190.003 111.586 190.255 111.078 190.413 110.544C190.494 110.271 190.072 110.155 189.99 110.424Z" fill="#4D9E53"/>
<path d="M186.504 110.504C185.97 111.131 185.381 111.721 184.757 112.254C184.668 112.331 184.676 112.485 184.757 112.566C184.847 112.656 184.975 112.643 185.069 112.566C185.693 112.032 186.282 111.439 186.816 110.815C186.892 110.726 186.905 110.593 186.816 110.504C186.734 110.422 186.581 110.414 186.504 110.504Z" fill="#4D9E53"/>
<path d="M186.603 109.563C186.603 109.563 186.654 109.584 186.637 109.576C186.616 109.567 186.667 109.588 186.671 109.588C186.705 109.606 186.739 109.618 186.774 109.635C186.842 109.67 186.906 109.704 186.97 109.742C187.107 109.823 187.243 109.909 187.371 110.003C187.593 110.165 187.828 110.378 188.016 110.609C188.089 110.703 188.247 110.686 188.328 110.609C188.418 110.519 188.401 110.391 188.328 110.297C188.119 110.037 187.863 109.819 187.594 109.623C187.324 109.426 187.034 109.26 186.722 109.136C186.611 109.093 186.483 109.183 186.453 109.29C186.415 109.418 186.492 109.52 186.603 109.563Z" fill="#4D9E53"/>
<path d="M190.208 109.502C190.225 109.506 190.243 109.515 190.264 109.519C190.285 109.523 190.208 109.489 190.243 109.511C190.251 109.515 190.26 109.519 190.268 109.523C190.285 109.532 190.302 109.549 190.319 109.558C190.307 109.553 190.277 109.519 190.307 109.549C190.315 109.558 190.324 109.562 190.328 109.57C190.345 109.583 190.358 109.6 190.371 109.617C190.379 109.626 190.383 109.634 190.392 109.643C190.418 109.673 190.388 109.656 190.388 109.634C190.388 109.647 190.422 109.681 190.43 109.694C190.448 109.72 190.465 109.745 190.477 109.771C190.546 109.886 190.606 110.01 190.661 110.134C190.678 110.168 190.695 110.207 190.708 110.241C190.717 110.258 190.725 110.279 190.734 110.296C190.738 110.301 190.759 110.356 190.746 110.322C190.785 110.416 190.823 110.51 190.862 110.604C190.904 110.711 191.011 110.796 191.131 110.757C191.233 110.723 191.331 110.604 191.284 110.488C191.156 110.164 191.028 109.827 190.84 109.528C190.721 109.336 190.554 109.139 190.324 109.088C190.213 109.062 190.08 109.122 190.055 109.242C190.029 109.344 190.089 109.476 190.208 109.502Z" fill="#4D9E53"/>
<path d="M195.547 110.625C196.081 111.705 197.008 112.584 198.118 113.063C198.225 113.11 198.353 113.097 198.417 112.986C198.472 112.892 198.447 112.734 198.34 112.687C197.29 112.239 196.436 111.432 195.928 110.407C195.799 110.151 195.419 110.373 195.547 110.625Z" fill="#4D9E53"/>
<path d="M198.862 110.377C199.084 110.796 199.43 111.124 199.81 111.398C200.19 111.671 200.617 111.876 201.061 112.021C201.33 112.106 201.446 111.684 201.177 111.598C200.421 111.355 199.618 110.877 199.238 110.155C199.11 109.907 198.734 110.129 198.862 110.377Z" fill="#4D9E53"/>
<path d="M197.481 110.19C197.567 110.092 197.657 109.998 197.75 109.909C197.797 109.866 197.849 109.823 197.9 109.78C197.9 109.78 197.943 109.746 197.93 109.759C197.913 109.772 197.96 109.738 197.96 109.738C197.985 109.716 198.011 109.699 198.041 109.682C198.148 109.61 198.259 109.541 198.374 109.482C198.434 109.452 198.489 109.426 198.549 109.4C198.583 109.388 198.523 109.409 198.558 109.396C198.575 109.388 198.592 109.383 198.609 109.375C198.643 109.362 198.677 109.349 198.711 109.336C198.818 109.298 198.903 109.183 198.865 109.067C198.831 108.961 198.711 108.875 198.596 108.914C198.049 109.106 197.554 109.435 197.174 109.879C197.101 109.964 197.08 110.105 197.174 110.19C197.255 110.263 197.405 110.284 197.481 110.19Z" fill="#4D9E53"/>
<path d="M200.87 110.805C200.939 110.766 201.007 110.732 201.08 110.702C201.101 110.694 201.127 110.681 201.148 110.672C201.161 110.668 201.173 110.664 201.182 110.655C201.122 110.681 201.165 110.664 201.178 110.655C201.229 110.634 201.276 110.613 201.327 110.595C201.494 110.531 201.669 110.463 201.844 110.425C201.955 110.399 202.032 110.262 201.998 110.156C201.959 110.036 201.848 109.976 201.729 110.002C201.549 110.04 201.37 110.113 201.199 110.177C201.015 110.25 200.819 110.322 200.648 110.425C200.55 110.484 200.507 110.625 200.571 110.724C200.635 110.826 200.768 110.869 200.87 110.805Z" fill="#4D9E53"/>
<path d="M215.9 146.208C217.844 133.73 209.304 122.038 196.826 120.095C184.347 118.151 172.656 126.691 170.712 139.17C168.769 151.648 177.309 163.339 189.787 165.283C202.266 167.226 213.957 158.686 215.9 146.208Z" fill="#FFDF6D"/>
<path d="M207.637 157.027C215.548 149.116 215.548 136.29 207.637 128.379C199.727 120.469 186.901 120.468 178.99 128.379C171.079 136.29 171.079 149.116 178.99 157.027C186.901 164.938 199.727 164.938 207.637 157.027Z" stroke="#E5A403" stroke-width="2.48056" stroke-miterlimit="10"/>
<path d="M180.366 143.049C189 143.049 197.634 143.049 206.268 143.049C207.596 143.049 207.601 140.982 206.268 140.982C197.634 140.982 189 140.982 180.366 140.982C179.034 140.982 179.034 143.049 180.366 143.049Z" fill="#E5A403"/>
<path d="M180.366 146.555C189 146.555 197.634 146.555 206.268 146.555C207.596 146.555 207.601 144.488 206.268 144.488C197.634 144.488 189 144.488 180.366 144.488C179.034 144.488 179.034 146.555 180.366 146.555Z" fill="#E5A403"/>
<path d="M172.359 137.022C172.359 137.022 174.324 125.557 187.586 121.568" stroke="white" stroke-width="0.427005" stroke-miterlimit="10" stroke-linecap="round"/>
<path d="M189.125 121.076C189.125 121.076 192.298 120.316 194.266 120.611" stroke="white" stroke-width="0.427005" stroke-miterlimit="10" stroke-linecap="round"/>
<path d="M214.205 137.02C214.205 137.02 215.964 142.835 214.205 148.596" stroke="white" stroke-width="0.427005" stroke-miterlimit="10" stroke-linecap="round"/>
<path d="M197.772 145.193L200.018 134.774C200.078 134.428 200.198 134.147 200.377 133.92C200.556 133.694 200.766 133.519 201.005 133.391C201.244 133.263 201.504 133.182 201.79 133.143C202.077 133.105 202.358 133.109 202.644 133.156C202.913 133.203 203.17 133.293 203.409 133.438C203.648 133.579 203.849 133.758 204.002 133.967C204.16 134.176 204.271 134.428 204.34 134.719C204.408 135.009 204.404 135.321 204.327 135.65L200.778 151.278H195.838L193.212 140.052L190.607 151.278H186.004L182.298 135.671C182.221 135.325 182.221 135.013 182.285 134.727C182.353 134.441 182.468 134.194 182.635 133.976C182.802 133.758 183.006 133.579 183.254 133.438C183.502 133.297 183.758 133.203 184.027 133.156C184.313 133.109 184.595 133.109 184.881 133.143C185.167 133.182 185.432 133.263 185.68 133.391C185.927 133.519 186.136 133.694 186.307 133.92C186.478 134.147 186.602 134.428 186.679 134.774L188.767 144.608L190.833 135.381C190.923 135.052 191.06 134.774 191.248 134.548C191.436 134.322 191.636 134.147 191.854 134.018C192.072 133.89 192.298 133.801 192.537 133.749C192.776 133.698 193.003 133.673 193.212 133.673C193.421 133.673 193.647 133.698 193.887 133.749C194.126 133.801 194.356 133.89 194.57 134.018C194.788 134.147 194.988 134.322 195.176 134.548C195.364 134.774 195.501 135.052 195.59 135.381L197.772 145.193Z" fill="#E5A403"/>
<path d="M157.946 156.316L166.487 148.792C166.487 148.792 167.417 144.902 170.628 144.988C175.005 145.103 176.039 149.616 173.336 154.352L172.238 156.128L178.579 157.819C178.579 157.819 192.521 156.705 195.553 157.392C198.683 158.101 198.209 160.573 198.209 160.573C198.209 160.573 201.155 159.95 202.509 161.12C204.456 162.798 201.492 165.902 201.492 165.902C200.562 168.524 197.116 169.212 192.867 171.146C188.921 172.939 181.534 173.597 181.534 173.597C181.534 173.597 161.918 179.221 156.674 176.044C151.435 172.871 148.39 162.913 157.946 156.316Z" fill="#FFC8D4"/>
<path d="M198.114 161C197.849 161.589 197.477 163.361 190.043 164.548C184.62 165.411 177.912 165.005 177.912 165.005" stroke="#FF8380" stroke-width="0.427005" stroke-miterlimit="10" stroke-linecap="round" stroke-linejoin="round"/>
<path d="M201.074 165.771C201.074 165.771 199.003 167.334 194.268 168.773C189.532 170.212 181.543 169.956 181.543 169.956" stroke="#FF8380" stroke-width="0.427005" stroke-miterlimit="10" stroke-linecap="round" stroke-linejoin="round"/>
<path d="M168.435 146.746C169.365 147.463 171.351 148.142 171.142 149.283C170.928 150.423 169.408 151.482 167.803 150.593C166.671 149.966 166.705 149.154 166.705 149.154" stroke="#FF8380" stroke-width="0.427005" stroke-miterlimit="10" stroke-linecap="round" stroke-linejoin="round"/>
<path d="M197.457 161.817C197.457 161.817 197.32 160.015 195.937 159.955C194.557 159.896 194.617 161.083 194.771 161.578C194.925 162.073 195.399 162.94 195.659 163.055" stroke="#FF8380" stroke-width="0.427005" stroke-miterlimit="10" stroke-linecap="round" stroke-linejoin="round"/>
<path d="M201.778 163.192C201.778 163.192 201.334 162.051 200.237 162.453C199.139 162.854 198.968 164.101 199.477 165.263C199.985 166.424 201.167 165.792 201.697 165.263C202.222 164.737 202.222 164.186 201.778 163.192Z" stroke="#FF8380" stroke-width="0.427005" stroke-miterlimit="10" stroke-linecap="round" stroke-linejoin="round"/>
<path d="M157.217 161.001C155.022 160.843 146.96 162.841 138.253 164.626C132.95 165.715 128.765 169.938 127.958 175.289C127.288 179.755 128.697 183.79 131.921 186.613C135.836 190.037 141.486 190.656 146.153 188.359C156.926 183.064 166.7 175.95 166.7 175.95L157.217 161.001Z" fill="#FFC8D4"/>
<mask id="mask0_761_30823" style="mask-type:luminance" maskUnits="userSpaceOnUse" x="200" y="96" width="92" height="78">
<path d="M287.977 173.858C289.916 166.676 291.005 159.007 291.005 150.847C291.005 124.62 274.633 96.1602 244.572 96.1602C223.521 96.1602 205.745 110.49 200.053 130.128V173.862H287.977V173.858Z" fill="white"/>
</mask>
<g mask="url(#mask0_761_30823)">
<path d="M271.178 173.797H291.606L295.457 151.61L272.702 151.051L271.178 173.797Z" fill="#FFC8D4"/>
</g>
<mask id="mask1_761_30823" style="mask-type:luminance" maskUnits="userSpaceOnUse" x="200" y="96" width="92" height="78">
<path d="M287.977 173.858C289.916 166.676 291.005 159.007 291.005 150.847C291.005 124.62 274.633 96.1602 244.572 96.1602C223.521 96.1602 205.745 110.49 200.053 130.128V173.862H287.977V173.858Z" fill="white"/>
</mask>
<g mask="url(#mask1_761_30823)">
<path d="M294.665 98.3855L292.082 98.0866C289.212 87.4542 274.203 79.3496 256.111 79.3496C235.969 79.3496 219.645 89.397 219.645 101.793C219.645 113.04 233.091 122.358 250.632 123.984L276.039 165.105L295.455 153.7L307.864 136.965L294.665 98.3855Z" fill="#7F7FDE"/>
</g>
<path d="M268.199 127.806C268.199 127.806 278.2 120.611 286.731 123.501C295.263 126.392 298.367 140.727 292.269 148.075C286.176 155.424 269.331 154.425 269.331 154.425L268.199 127.806Z" fill="#FFC8D4"/>
<path d="M230.48 100.123C230.48 100.123 223.251 113.762 225.599 129.275C226.97 138.31 218.165 149.852 213.639 153.798L222.247 160.062L231.744 173.798H280.905L287.976 150.779L272.702 125.252L259.503 108.949L230.48 100.123Z" fill="#FFC8D4"/>
<path d="M246.911 119.339C246.911 119.339 241.053 115.278 233.811 120.069" stroke="#524B50" stroke-width="0.427005" stroke-miterlimit="10" stroke-linecap="round" stroke-linejoin="round"/>
<path d="M236.093 134.08C236.264 137.175 237.43 139.626 238.69 139.554C239.954 139.486 240.837 136.919 240.662 133.823C240.492 130.728 239.326 128.277 238.066 128.349C236.806 128.422 235.923 130.988 236.093 134.08Z" fill="#524B50"/>
<path d="M273.676 140.061C273.676 140.061 277.895 136.513 284.295 136.043" stroke="#FF8380" stroke-width="0.427005" stroke-miterlimit="10" stroke-linecap="round" stroke-linejoin="round"/>
<path d="M234.162 168.909C234.162 168.909 246.302 169.452 251.345 159.037" stroke="#FF8380" stroke-width="0.427005" stroke-miterlimit="10" stroke-linecap="round" stroke-linejoin="round"/>
<path d="M230.48 100.123C230.48 100.123 242.893 112.942 262.514 117.912L267.006 142.461L272.703 125.248V109.363L230.48 100.123Z" fill="#7F7FDE"/>
<mask id="mask2_761_30823" style="mask-type:luminance" maskUnits="userSpaceOnUse" x="111" y="173" width="90" height="86">
<path d="M111.668 173.859C126.476 237.577 200.041 258.825 200.041 258.825V173.859H111.668Z" fill="white"/>
</mask>
<g mask="url(#mask2_761_30823)">
<path d="M194.28 210.643L192.294 215.686C187.033 213.188 180.402 211.565 172.174 212.018C144.662 213.542 128.76 217.94 128.76 217.94L124.516 232.202L168.301 268.758L200.044 258.822L222.953 250.969C225.037 227.919 194.28 210.643 194.28 210.643Z" fill="#FF6239"/>
</g>
<path d="M175.035 189.287C176.837 193.519 181.726 195.487 185.953 193.69C190.185 191.888 192.153 186.999 190.356 182.771C188.554 178.54 183.664 176.571 179.437 178.369C175.205 180.166 173.233 185.056 175.035 189.287Z" fill="#F8A757"/>
<path d="M166.862 210.069C174.973 210.069 181.547 205.192 181.547 199.176C181.547 193.16 174.973 188.283 166.862 188.283C158.752 188.283 152.178 193.16 152.178 199.176C152.178 205.192 158.752 210.069 166.862 210.069Z" fill="#F8A757"/>
<path d="M173.173 207.034C180.84 207.034 187.055 202.157 187.055 196.141C187.055 190.125 180.84 185.248 173.173 185.248C165.506 185.248 159.291 190.125 159.291 196.141C159.291 202.157 165.506 207.034 173.173 207.034Z" fill="#F8A757"/>
<path d="M192.705 202.848C192.705 202.848 190.51 197.451 189.964 195.004C189.417 192.562 190.233 189.581 192.5 192.148C194.768 194.71 196.48 199.24 197.902 203.796C199.32 208.352 198.585 216.585 195.097 219.147C192.539 221.022 187.761 221.376 185.049 217.05C182.333 212.721 192.705 202.848 192.705 202.848Z" fill="#FFC8D4"/>
<path d="M192.255 193.328C192.255 193.328 189.394 187.209 187.195 187.598C185.001 187.986 185.133 190.604 186.235 192.696C187.336 194.789 189.339 198.627 189.339 198.627L194.203 197.931L192.255 193.328Z" fill="#FFC8D4"/>
<path d="M187.337 189.292C187.337 189.292 184.591 184.966 183.075 186.832C181.559 188.698 185.069 193.797 185.069 193.797L189.497 193.344L187.337 189.292Z" fill="#FFC8D4"/>
<path d="M184.006 187.919C184.006 187.919 183.101 186.826 181.794 188.146C180.488 189.465 181.162 193.278 182.559 195.635C183.955 197.992 186.449 201.814 186.449 201.814L185.347 205.183C185.347 205.183 180.129 212.062 185.048 217.054C189.967 222.046 195.962 204.461 195.962 204.461C195.962 204.461 193.093 197.288 192.798 196.989C192.504 196.69 188.981 192.377 188.981 192.377L184.006 187.919Z" fill="#FFC8D4"/>
<path d="M188.029 206.683L185.753 205.039C185.753 205.039 186.688 197.148 183.562 196.777C180.437 196.405 180.454 203.938 180.539 206.427C180.646 209.579 182.226 214.903 185.044 217.051C187.862 219.199 188.029 206.683 188.029 206.683Z" fill="#FFC8D4"/>
<path d="M190.233 191.555C190.233 191.555 188.696 192.571 189.964 195.009C190.827 196.67 192.787 202.157 192.787 202.157" stroke="#FF8380" stroke-width="0.427005" stroke-miterlimit="10" stroke-linecap="round" stroke-linejoin="round"/>
<path d="M186.095 188.121C186.095 188.121 184.553 189.376 185.928 192.015C187.303 194.654 190.117 198.745 190.787 200.871" stroke="#FF8380" stroke-width="0.427005" stroke-miterlimit="10" stroke-linecap="round" stroke-linejoin="round"/>
<path d="M182.905 188.121C182.905 188.121 182.094 190.107 184.592 193.036C187.09 195.965 188.525 200.577 188.525 200.577" stroke="#FF8380" stroke-width="0.427005" stroke-miterlimit="10" stroke-linecap="round" stroke-linejoin="round"/>
<path d="M183.299 196.854C183.299 196.854 185.152 199.804 185.656 200.581" stroke="#FF8380" stroke-width="0.427005" stroke-miterlimit="10" stroke-linecap="round" stroke-linejoin="round"/>
<path d="M185.842 203.955C185.842 203.955 185.407 206.244 185.219 206.799" stroke="#FF8380" stroke-width="0.427005" stroke-miterlimit="10" stroke-linecap="round" stroke-linejoin="round"/>
<path d="M191.966 204.217C191.966 204.217 189.071 205.152 188.029 211.544" stroke="#FF8380" stroke-width="0.427005" stroke-miterlimit="10" stroke-linecap="round" stroke-linejoin="round"/>
<path d="M167.58 193.232C180.151 190.252 183.067 201.491 183.763 207.366C184.459 213.242 182.346 220.497 173.502 222.606C164.659 224.715 161.111 215.987 159.599 210.12C158.096 204.253 158.425 195.406 167.58 193.232Z" fill="#FFC8D4"/>
<path d="M188.676 203.153C189.919 206.987 185.589 209.741 181.865 210.835L179.342 200.279C179.346 200.279 186.853 197.52 188.676 203.153Z" fill="#FFC8D4"/>
<path d="M176.248 201.38C176.248 201.38 174.177 200.184 172.145 202.208" stroke="#524B50" stroke-width="0.427005" stroke-miterlimit="10" stroke-linecap="round" stroke-linejoin="round"/>
<path d="M164.352 204.736C164.352 204.736 162.606 203.98 161.316 205.842" stroke="#524B50" stroke-width="0.427005" stroke-miterlimit="10" stroke-linecap="round" stroke-linejoin="round"/>
<path d="M175.061 204.775C175.248 205.697 175.705 206.385 176.081 206.312C176.457 206.235 176.615 205.424 176.427 204.501C176.239 203.579 175.782 202.892 175.406 202.964C175.026 203.041 174.873 203.848 175.061 204.775Z" fill="#524B50"/>
<path d="M164.402 207.654C164.59 208.576 165.047 209.263 165.423 209.191C165.799 209.114 165.957 208.303 165.769 207.38C165.581 206.458 165.124 205.771 164.748 205.843C164.368 205.92 164.214 206.731 164.402 207.654Z" fill="#524B50"/>
<path d="M167.709 205.736L167.948 207.752L166.863 209.652L168.307 210.117" stroke="#FF8380" stroke-width="0.427005" stroke-miterlimit="10" stroke-linecap="round" stroke-linejoin="round"/>
<path d="M185.81 203.418C185.81 203.418 183.137 204.255 182.791 206.275" stroke="#FF8380" stroke-width="0.427005" stroke-miterlimit="10" stroke-linecap="round" stroke-linejoin="round"/>
<path d="M177.093 207.727C177.161 208.06 177.729 208.231 178.365 208.103C179.001 207.975 179.458 207.599 179.39 207.266C179.322 206.933 178.754 206.762 178.117 206.89C177.486 207.014 177.024 207.39 177.093 207.727Z" fill="#FF8080"/>
<path d="M162.968 211.522C163.036 211.855 163.604 212.026 164.24 211.898C164.876 211.77 165.333 211.394 165.265 211.061C165.197 210.728 164.629 210.557 163.992 210.685C163.36 210.813 162.899 211.189 162.968 211.522Z" fill="#FF8080"/>
<path d="M167.887 211.94L173.169 209.989C173.515 209.861 173.9 210.053 173.998 210.407C174.284 211.432 174.48 213.456 172.175 214.669C170.163 215.728 168.481 214.549 167.516 213.533C167.033 213.025 167.23 212.188 167.887 211.94Z" fill="#FF8380"/>
<path d="M183.219 214.01C183.616 212.729 183.821 211.405 183.872 210.099C186.951 208.728 189.697 206.307 188.676 203.156C187.523 199.594 184.103 199.39 181.737 199.718C181.549 199.317 181.349 198.92 181.131 198.531" stroke="#FF8380" stroke-width="0.427005" stroke-miterlimit="10" stroke-linecap="round" stroke-linejoin="round"/>
<path d="M166.367 189.742C166.367 189.742 165.534 195.028 169.77 198.308C173.268 201.015 180.954 199.324 180.727 203.688C180.727 203.688 184.468 200.156 182.461 197.027C180.454 193.892 170.582 187.325 166.367 189.742Z" fill="#F8A757"/>
<path d="M171.611 191.557C171.611 191.557 172.747 195.511 177.893 197.407" stroke="#F78F32" stroke-width="0.427005" stroke-miterlimit="10" stroke-linecap="round" stroke-linejoin="round"/>
<path d="M174.979 191.166C174.979 191.166 176.516 194.885 179.723 195.573" stroke="#F78F32" stroke-width="0.427005" stroke-miterlimit="10" stroke-linecap="round" stroke-linejoin="round"/>
<path d="M176.248 185.516C176.248 185.516 179.058 186.152 181.095 187.488" stroke="#F78F32" stroke-width="0.427005" stroke-miterlimit="10" stroke-linecap="round" stroke-linejoin="round"/>
<path d="M164.117 191.166C164.117 191.166 155.384 193.1 156.627 199.177" stroke="#F78F32" stroke-width="0.427005" stroke-miterlimit="10" stroke-linecap="round" stroke-linejoin="round"/>
<path d="M164.117 192.738C164.117 192.738 159.714 194.352 159.719 196.855" stroke="#F78F32" stroke-width="0.427005" stroke-miterlimit="10" stroke-linecap="round" stroke-linejoin="round"/>
<path d="M187.048 220.471C187.048 220.471 185.912 226.402 187.048 230.475" stroke="#DC4F32" stroke-width="0.427005" stroke-miterlimit="10" stroke-linecap="round" stroke-linejoin="round"/>
<path d="M152.711 227.92C153.646 226.506 154.06 223.799 152.156 222.253C150.743 221.109 148.697 221.386 147.583 222.095C145.016 223.718 142.728 227.33 143.291 230.072C143.77 232.433 147.467 235.84 152.711 227.92Z" fill="#FFC8D4"/>
<path d="M148.244 231.322C148.56 230.724 148.419 229.554 147.424 228.764C146.429 227.978 145.327 227.795 144.593 228.721C143.82 229.695 145.268 230.263 145.865 230.903C146.459 231.539 147.509 232.705 148.244 231.322Z" stroke="#FF8380" stroke-width="0.427005" stroke-miterlimit="10" stroke-linecap="round" stroke-linejoin="round"/>
<path d="M147.473 224.365C148.408 222.951 148.822 220.244 146.918 218.698C145.504 217.554 143.459 217.832 142.344 218.541C139.778 220.163 137.489 223.776 138.053 226.517C138.536 228.878 142.233 232.286 147.473 224.365Z" fill="#FFC8D4"/>
<path d="M143.011 227.767C143.327 227.169 143.187 225.999 142.192 225.209C141.197 224.424 140.095 224.24 139.361 225.167C138.588 226.14 140.035 226.708 140.633 227.349C141.227 227.985 142.273 229.15 143.011 227.767Z" stroke="#FF8380" stroke-width="0.427005" stroke-miterlimit="10" stroke-linecap="round" stroke-linejoin="round"/>
<path d="M142.502 220.529C143.437 219.116 143.851 216.408 141.947 214.863C140.534 213.718 138.488 213.996 137.374 214.705C134.807 216.327 132.519 219.94 133.082 222.681C133.565 225.042 137.263 228.45 142.502 220.529Z" fill="#FFC8D4"/>
<path d="M138.035 223.929C138.351 223.331 138.21 222.161 137.215 221.371C136.22 220.586 135.118 220.402 134.384 221.329C133.611 222.302 135.059 222.87 135.656 223.506C136.254 224.147 137.3 225.317 138.035 223.929Z" stroke="#FF8380" stroke-width="0.427005" stroke-miterlimit="10" stroke-linecap="round" stroke-linejoin="round"/>
<path d="M136.969 215.269C137.315 213.928 136.905 211.725 135.017 211.054C133.617 210.559 132.109 211.328 131.435 212.173C129.885 214.12 129.086 217.528 130.256 219.488C131.26 221.174 135.039 222.797 136.969 215.269Z" fill="#FFC8D4"/>
<path d="M134.422 219.104C134.508 218.557 134.081 217.691 133.103 217.358C132.121 217.02 131.22 217.182 130.9 218.096C130.562 219.057 131.835 219.1 132.471 219.428C133.103 219.757 134.226 220.372 134.422 219.104Z" stroke="#FF8380" stroke-width="0.427005" stroke-miterlimit="10" stroke-linecap="round" stroke-linejoin="round"/>
<path d="M147.908 222.734C147.908 222.734 146.943 225.267 144.078 228.004" stroke="#FF8380" stroke-width="0.427005" stroke-miterlimit="10" stroke-linecap="round" stroke-linejoin="round"/>
<path d="M142.911 219.018C142.873 219.099 140.708 222.54 138.932 224.184" stroke="#FF8380" stroke-width="0.427005" stroke-miterlimit="10" stroke-linecap="round" stroke-linejoin="round"/>
<path d="M136.771 215.471C136.771 215.471 136.058 217.888 135.302 219.339C134.547 220.795 133.496 220.902 133.496 220.902" stroke="#FF8380" stroke-width="0.427005" stroke-miterlimit="10" stroke-linecap="round" stroke-linejoin="round"/>
<mask id="mask3_761_30823" style="mask-type:luminance" maskUnits="userSpaceOnUse" x="200" y="159" width="88" height="100">
<path d="M200.049 173.854V258.82C200.049 258.82 272.196 232.362 287.978 173.854H275.765L250.956 159.037L219.32 173.854H200.049Z" fill="white"/>
</mask>
<g mask="url(#mask3_761_30823)">
<path d="M279.794 233.626C279.448 227.767 276.331 219.722 271.732 214.052C263.935 204.436 244.959 205.819 244.959 205.819C233.139 205.798 226.098 209.846 221.99 215.371C221.345 215.478 219.449 216.127 218.783 216.417C214.257 218.386 195.076 246.688 218.301 260.467C224.928 264.4 231.418 264.942 237.264 263.345C238.776 264.276 240.475 265.07 242.384 265.694C270.861 275.007 282.672 254.865 279.794 233.626Z" fill="#78AFF0"/>
<path d="M245.962 211.392C249.035 211.392 251.526 210.394 251.526 209.163C251.526 207.932 249.035 206.934 245.962 206.934C242.889 206.934 240.398 207.932 240.398 209.163C240.398 210.394 242.889 211.392 245.962 211.392Z" fill="#FFC8D4"/>
<path d="M231.107 202.164C230.778 202.164 230.454 202.318 230.138 202.578C229.134 199.073 227.815 195.785 226.393 195.857C226.158 195.87 225.949 195.938 225.769 196.045C225.492 195.627 225.18 195.366 224.821 195.319C224.019 195.217 223.438 195.746 223.011 196.767C222.87 196.669 222.716 196.604 222.558 196.583C221.136 196.404 220.41 198.206 220.005 201.199C219.351 201.284 218.754 202.053 218.442 203.364C217.609 206.87 217.003 216.289 221.094 220.606C224.676 224.385 231.393 221.665 233.028 217.024C234.856 211.81 233.528 202.147 231.107 202.164Z" fill="#FFC8D4"/>
<path d="M228.099 200.682C227.77 200.682 227.446 200.835 227.13 201.096C226.126 197.59 224.807 194.302 223.385 194.375C223.15 194.388 222.941 194.456 222.761 194.563C222.484 194.144 222.172 193.884 221.814 193.837C221.011 193.734 220.43 194.264 220.003 195.284C219.862 195.186 219.708 195.122 219.55 195.101C218.128 194.921 217.403 196.723 216.997 199.717C216.344 199.802 215.746 200.571 215.434 201.882C214.601 205.387 213.995 214.807 218.086 219.124C221.668 222.903 228.385 220.183 230.021 215.541C231.852 210.328 230.52 200.665 228.099 200.682Z" fill="#FFC8D4"/>
<path d="M220.451 201.301C220.451 201.301 221.344 201.207 222.087 203.748C222.868 206.421 222.847 209.175 222.847 209.175" stroke="#FF8380" stroke-width="0.427005" stroke-miterlimit="10" stroke-linecap="round" stroke-linejoin="round"/>
<path d="M223.004 196.762C223.004 196.762 225.297 199.204 226.108 207.206" stroke="#FF8380" stroke-width="0.427005" stroke-miterlimit="10" stroke-linecap="round" stroke-linejoin="round"/>
<path d="M226.008 196.301C226.008 196.301 227.033 197.462 227.827 200.844C228.608 204.175 228.685 206.801 228.685 206.801" stroke="#FF8380" stroke-width="0.427005" stroke-miterlimit="10" stroke-linecap="round" stroke-linejoin="round"/>
<path d="M230.197 202.785C230.197 202.785 231.141 205.531 231.307 209.374" stroke="#FF8380" stroke-width="0.427005" stroke-miterlimit="10" stroke-linecap="round" stroke-linejoin="round"/>
<path d="M224.308 195.34C223.761 195.476 223.334 195.972 223.005 196.762C222.864 196.664 222.711 196.6 222.553 196.578C221.131 196.399 220.405 198.201 219.999 201.194C219.346 201.279 218.748 202.048 218.436 203.359C217.68 206.536 217.113 214.581 220.063 219.269" stroke="#FF8380" stroke-width="0.427005" stroke-miterlimit="10" stroke-linecap="round" stroke-linejoin="round"/>
<path d="M217.273 199.732C217.273 199.732 218.905 199.557 219.323 201.551" stroke="#FF8380" stroke-width="0.427005" stroke-miterlimit="10" stroke-linecap="round" stroke-linejoin="round"/>
<path d="M220.182 195.404C220.506 195.648 221.159 196.258 221.159 197.262" stroke="#FF8380" stroke-width="0.427005" stroke-miterlimit="10" stroke-linecap="round" stroke-linejoin="round"/>
<path d="M222.852 194.738C222.852 194.738 223.279 195.345 223.176 196.404" stroke="#FF8380" stroke-width="0.427005" stroke-miterlimit="10" stroke-linecap="round" stroke-linejoin="round"/>
<path d="M242.976 175.638L236.977 173.379C236.977 173.379 232.323 184.408 242.976 182.811C253.63 181.21 242.976 175.638 242.976 175.638Z" fill="#FF6239"/>
<path d="M263.693 181.138C264.731 188.623 260.525 191.189 252.382 196.164C249.03 198.209 248.795 183.704 248.795 180.126C248.795 176.547 251.98 173.652 255.909 173.652C259.837 173.652 263.112 176.945 263.693 181.138Z" fill="#FF6239"/>
<path d="M241.566 208.104H250.354V198.197H241.566V208.104Z" fill="#FFC8D4"/>
<path d="M250.365 177.896C259.947 182.154 256.16 191.108 253.649 195.378C251.138 199.648 246.125 203.44 239.379 200.455C232.632 197.466 233.704 188.764 236.373 184.455C239.379 179.596 243.384 174.792 250.365 177.896Z" fill="#FFC8D4"/>
<path d="M258.987 195.142C257.804 198.494 253.299 198.105 250.109 196.879L253.991 188.139C253.987 188.139 260.725 190.227 258.987 195.142Z" fill="#FFC8D4"/>
<path d="M245.645 187.611C245.299 188.32 245.252 189.012 245.542 189.153C245.833 189.293 246.345 188.832 246.691 188.123C247.037 187.415 247.084 186.723 246.793 186.582C246.503 186.441 245.986 186.902 245.645 187.611Z" fill="#524B50"/>
<path d="M238.885 185.267C238.539 185.976 238.492 186.668 238.782 186.809C239.073 186.95 239.585 186.489 239.931 185.78C240.277 185.071 240.324 184.379 240.034 184.238C239.743 184.097 239.231 184.558 238.885 185.267Z" fill="#524B50"/>
<path d="M256.835 194.204C256.835 194.204 254.752 192.876 253.197 193.785" stroke="#FF8380" stroke-width="0.427005" stroke-miterlimit="10" stroke-linecap="round" stroke-linejoin="round"/>
<path d="M246.519 190.357C246.416 190.626 246.745 190.998 247.253 191.19C247.761 191.382 248.252 191.322 248.355 191.053C248.457 190.784 248.129 190.413 247.62 190.221C247.112 190.028 246.617 190.092 246.519 190.357Z" fill="#FF8080"/>
<path d="M236.376 186.823C236.274 187.092 236.602 187.464 237.111 187.656C237.619 187.848 238.11 187.788 238.212 187.519C238.315 187.25 237.986 186.879 237.478 186.687C236.97 186.494 236.479 186.554 236.376 186.823Z" fill="#FF8080"/>
<path d="M243.678 185.045L242.243 187.043C242.243 187.043 241.389 185.946 240.48 186.356C238.673 187.171 240.305 189.298 240.305 189.298" stroke="#FF8380" stroke-width="0.427005" stroke-miterlimit="10" stroke-linecap="round" stroke-linejoin="round"/>
<path d="M240.223 194.729C240.73 194.729 241.141 193.882 241.141 192.837C241.141 191.792 240.73 190.945 240.223 190.945C239.716 190.945 239.305 191.792 239.305 192.837C239.305 193.882 239.716 194.729 240.223 194.729Z" stroke="#FF8380" stroke-width="0.427005" stroke-miterlimit="10" stroke-linecap="round" stroke-linejoin="round"/>
<path d="M245.959 182.949C250.291 182.949 253.803 180.051 253.803 176.475C253.803 172.9 250.291 170.002 245.959 170.002C241.627 170.002 238.115 172.9 238.115 176.475C238.115 180.051 241.627 182.949 245.959 182.949Z" fill="#FF6239"/>
<path d="M248.285 177.584C248.285 177.584 249.028 185.753 252.807 187.653L252.325 192.431L258.555 188.985L258.883 180.377L248.285 177.584Z" fill="#FF6239"/>
<path d="M242.461 201.384C242.461 201.384 244.874 201.738 247.286 200.316" stroke="#FF8380" stroke-width="0.427005" stroke-miterlimit="10" stroke-linecap="round" stroke-linejoin="round"/>
<path d="M258.066 177.262C258.066 177.262 261.739 181.233 259.275 187.168" stroke="#DC4F32" stroke-width="0.427005" stroke-miterlimit="10" stroke-linecap="round" stroke-linejoin="round"/>
<path d="M255.66 178.709C255.66 178.709 258.641 182.936 256.975 186.929" stroke="#DC4F32" stroke-width="0.427005" stroke-miterlimit="10" stroke-linecap="round" stroke-linejoin="round"/>
<path d="M241.834 175.209C241.834 175.209 244.52 179.001 248.286 177.583" stroke="#DC4F32" stroke-width="0.427005" stroke-miterlimit="10" stroke-linecap="round" stroke-linejoin="round"/>
<path d="M245.062 173.652C245.062 173.652 247.847 171.85 250.964 174.527" stroke="#DC4F32" stroke-width="0.427005" stroke-miterlimit="10" stroke-linecap="round" stroke-linejoin="round"/>
<path d="M249.333 185.401C249.333 185.401 249.345 183.628 247.24 184.009" stroke="#524B50" stroke-width="0.427005" stroke-miterlimit="10" stroke-linecap="round" stroke-linejoin="round"/>
<path d="M241.834 182.215C241.834 182.215 241.779 180.529 239.973 181.114" stroke="#524B50" stroke-width="0.427005" stroke-miterlimit="10" stroke-linecap="round" stroke-linejoin="round"/>
<path d="M220.451 223.674C220.451 223.674 215.933 246.186 233.3 260.114" stroke="#5296D7" stroke-width="0.427005" stroke-miterlimit="10" stroke-linecap="round" stroke-linejoin="round"/>
<path d="M233.879 218.119C233.879 218.119 244.81 224.225 253.696 234.678C255.515 234.627 257.181 234.781 258.406 235.84" stroke="#5296D7" stroke-width="0.427005" stroke-miterlimit="10" stroke-linecap="round" stroke-linejoin="round"/>
<path d="M253.682 234.677C253.682 234.677 254.835 233.26 258.669 233.712" stroke="#5296D7" stroke-width="0.427005" stroke-miterlimit="10" stroke-linecap="round" stroke-linejoin="round"/>
<path d="M255.338 227.66L254.65 234.065" stroke="#5296D7" stroke-width="0.427005" stroke-miterlimit="10" stroke-linecap="round" stroke-linejoin="round"/>
</g>
<mask id="mask4_761_30823" style="mask-type:luminance" maskUnits="userSpaceOnUse" x="200" y="159" width="88" height="100">
<path d="M200.049 173.854V258.82C200.049 258.82 272.196 232.362 287.978 173.854H275.765L250.956 159.037L219.32 173.854H200.049Z" fill="white"/>
</mask>
<g mask="url(#mask4_761_30823)">
<path d="M233.02 255.9H198.471V261.682H233.02V255.9Z" fill="#E5A403"/>
<path d="M215.749 257.15C225.288 257.15 233.021 256.592 233.021 255.903C233.021 255.214 225.288 254.656 215.749 254.656C206.21 254.656 198.477 255.214 198.477 255.903C198.477 256.592 206.21 257.15 215.749 257.15Z" fill="#FFDF6D"/>
<path d="M201.695 257.477V261.405" stroke="#D3840C" stroke-width="0.826852" stroke-miterlimit="10" stroke-linecap="round"/>
<path d="M206.254 258.012V261.944" stroke="#D3840C" stroke-width="0.826852" stroke-miterlimit="10" stroke-linecap="round"/>
<path d="M210.82 258.184V262.112" stroke="#D3840C" stroke-width="0.826852" stroke-miterlimit="10" stroke-linecap="round"/>
<path d="M230.189 257.477V261.405" stroke="#D3840C" stroke-width="0.826852" stroke-miterlimit="10" stroke-linecap="round"/>
<path d="M225.627 258.012V261.944" stroke="#D3840C" stroke-width="0.826852" stroke-miterlimit="10" stroke-linecap="round"/>
<path d="M221.068 258.184V262.112" stroke="#D3840C" stroke-width="0.826852" stroke-miterlimit="10" stroke-linecap="round"/>
<path d="M215.746 258.184V262.112" stroke="#D3840C" stroke-width="0.826852" stroke-miterlimit="10" stroke-linecap="round"/>
<path d="M233.02 248.789H198.471V254.571H233.02V248.789Z" fill="#E5A403"/>
<path d="M233.021 248.792C233.021 249.479 225.288 250.039 215.749 250.039C206.21 250.039 198.477 249.479 198.477 248.792C198.477 248.104 206.21 247.545 215.749 247.545C225.288 247.545 233.021 248.1 233.021 248.792Z" fill="#FFDF6D"/>
<path d="M233.021 254.575C233.021 255.262 225.288 255.822 215.749 255.822C206.21 255.822 198.477 255.262 198.477 254.575C198.477 253.888 206.21 253.328 215.749 253.328C225.288 253.328 233.021 253.883 233.021 254.575Z" fill="#E5A403"/>
<path d="M201.695 250.365V254.294" stroke="#D3840C" stroke-width="0.826852" stroke-miterlimit="10" stroke-linecap="round"/>
<path d="M206.254 250.904V254.833" stroke="#D3840C" stroke-width="0.826852" stroke-miterlimit="10" stroke-linecap="round"/>
<path d="M210.82 251.072V255.001" stroke="#D3840C" stroke-width="0.826852" stroke-miterlimit="10" stroke-linecap="round"/>
<path d="M230.189 250.365V254.294" stroke="#D3840C" stroke-width="0.826852" stroke-miterlimit="10" stroke-linecap="round"/>
<path d="M225.627 250.904V254.833" stroke="#D3840C" stroke-width="0.826852" stroke-miterlimit="10" stroke-linecap="round"/>
<path d="M221.068 251.072V255.001" stroke="#D3840C" stroke-width="0.826852" stroke-miterlimit="10" stroke-linecap="round"/>
<path d="M215.746 251.072V255.001" stroke="#D3840C" stroke-width="0.826852" stroke-miterlimit="10" stroke-linecap="round"/>
<path d="M233.02 242.031H198.471V247.813H233.02V242.031Z" fill="#E5A403"/>
<path d="M233.021 242.034C233.021 242.721 225.288 243.281 215.749 243.281C206.21 243.281 198.477 242.721 198.477 242.034C198.477 241.347 206.21 240.787 215.749 240.787C225.288 240.787 233.021 241.347 233.021 242.034Z" fill="#FFDF6D"/>
<path d="M215.749 249.064C225.288 249.064 233.021 248.506 233.021 247.817C233.021 247.129 225.288 246.57 215.749 246.57C206.21 246.57 198.477 247.129 198.477 247.817C198.477 248.506 206.21 249.064 215.749 249.064Z" fill="#E5A403"/>
<path d="M201.695 243.607V247.536" stroke="#D3840C" stroke-width="0.826852" stroke-miterlimit="10" stroke-linecap="round"/>
<path d="M206.254 244.146V248.075" stroke="#D3840C" stroke-width="0.826852" stroke-miterlimit="10" stroke-linecap="round"/>
<path d="M210.82 244.314V248.247" stroke="#D3840C" stroke-width="0.826852" stroke-miterlimit="10" stroke-linecap="round"/>
<path d="M230.189 243.607V247.536" stroke="#D3840C" stroke-width="0.826852" stroke-miterlimit="10" stroke-linecap="round"/>
<path d="M225.627 244.146V248.075" stroke="#D3840C" stroke-width="0.826852" stroke-miterlimit="10" stroke-linecap="round"/>
<path d="M221.068 244.314V248.247" stroke="#D3840C" stroke-width="0.826852" stroke-miterlimit="10" stroke-linecap="round"/>
<path d="M215.746 244.314V248.247" stroke="#D3840C" stroke-width="0.826852" stroke-miterlimit="10" stroke-linecap="round"/>
<path d="M233.02 234.92H198.471V240.702H233.02V234.92Z" fill="#E5A403"/>
<path d="M233.021 234.923C233.021 235.61 225.288 236.169 215.749 236.169C206.21 236.169 198.477 235.61 198.477 234.923C198.477 234.235 206.21 233.676 215.749 233.676C225.288 233.676 233.021 234.235 233.021 234.923Z" fill="#FFDF6D"/>
<path d="M233.021 240.706C233.021 241.393 225.288 241.953 215.749 241.953C206.21 241.953 198.477 241.393 198.477 240.706C198.477 240.018 206.21 239.459 215.749 239.459C225.288 239.459 233.021 240.018 233.021 240.706Z" fill="#E5A403"/>
<path d="M201.695 236.496V240.429" stroke="#D3840C" stroke-width="0.826852" stroke-miterlimit="10" stroke-linecap="round"/>
<path d="M206.254 237.035V240.964" stroke="#D3840C" stroke-width="0.826852" stroke-miterlimit="10" stroke-linecap="round"/>
<path d="M210.82 237.203V241.136" stroke="#D3840C" stroke-width="0.826852" stroke-miterlimit="10" stroke-linecap="round"/>
<path d="M230.189 236.496V240.429" stroke="#D3840C" stroke-width="0.826852" stroke-miterlimit="10" stroke-linecap="round"/>
<path d="M225.627 237.035V240.964" stroke="#D3840C" stroke-width="0.826852" stroke-miterlimit="10" stroke-linecap="round"/>
<path d="M221.068 237.203V241.136" stroke="#D3840C" stroke-width="0.826852" stroke-miterlimit="10" stroke-linecap="round"/>
<path d="M215.746 237.203V241.136" stroke="#D3840C" stroke-width="0.826852" stroke-miterlimit="10" stroke-linecap="round"/>
<path d="M233.02 227.635H198.471V233.416H233.02V227.635Z" fill="#E5A403"/>
<path d="M233.021 227.637C233.021 228.325 225.288 228.884 215.749 228.884C206.21 228.884 198.477 228.325 198.477 227.637C198.477 226.95 206.21 226.391 215.749 226.391C225.288 226.391 233.021 226.946 233.021 227.637Z" fill="#FFDF6D"/>
<path d="M215.749 234.662C225.288 234.662 233.021 234.103 233.021 233.415C233.021 232.726 225.288 232.168 215.749 232.168C206.21 232.168 198.477 232.726 198.477 233.415C198.477 234.103 206.21 234.662 215.749 234.662Z" fill="#E5A403"/>
<path d="M201.695 229.211V233.139" stroke="#D3840C" stroke-width="0.826852" stroke-miterlimit="10" stroke-linecap="round"/>
<path d="M206.254 229.746V233.679" stroke="#D3840C" stroke-width="0.826852" stroke-miterlimit="10" stroke-linecap="round"/>
<path d="M210.82 229.918V233.846" stroke="#D3840C" stroke-width="0.826852" stroke-miterlimit="10" stroke-linecap="round"/>
<path d="M230.189 229.211V233.139" stroke="#D3840C" stroke-width="0.826852" stroke-miterlimit="10" stroke-linecap="round"/>
<path d="M225.627 229.746V233.679" stroke="#D3840C" stroke-width="0.826852" stroke-miterlimit="10" stroke-linecap="round"/>
<path d="M221.068 229.918V233.846" stroke="#D3840C" stroke-width="0.826852" stroke-miterlimit="10" stroke-linecap="round"/>
<path d="M215.746 229.918V233.846" stroke="#D3840C" stroke-width="0.826852" stroke-miterlimit="10" stroke-linecap="round"/>
<path d="M233.02 220.525H198.471V226.307H233.02V220.525Z" fill="#E5A403"/>
<path d="M215.749 221.775C225.288 221.775 233.021 221.217 233.021 220.528C233.021 219.839 225.288 219.281 215.749 219.281C206.21 219.281 198.477 219.839 198.477 220.528C198.477 221.217 206.21 221.775 215.749 221.775Z" fill="#FFDF6D"/>
<path d="M233.021 226.311C233.021 226.999 225.288 227.558 215.749 227.558C206.21 227.558 198.477 226.999 198.477 226.311C198.477 225.624 206.21 225.064 215.749 225.064C225.288 225.064 233.021 225.62 233.021 226.311Z" fill="#E5A403"/>
<path d="M201.695 222.104V226.032" stroke="#D3840C" stroke-width="0.826852" stroke-miterlimit="10" stroke-linecap="round"/>
<path d="M206.254 222.641V226.569" stroke="#D3840C" stroke-width="0.826852" stroke-miterlimit="10" stroke-linecap="round"/>
<path d="M210.82 222.809V226.737" stroke="#D3840C" stroke-width="0.826852" stroke-miterlimit="10" stroke-linecap="round"/>
<path d="M230.189 222.104V226.032" stroke="#D3840C" stroke-width="0.826852" stroke-miterlimit="10" stroke-linecap="round"/>
<path d="M225.627 222.641V226.569" stroke="#D3840C" stroke-width="0.826852" stroke-miterlimit="10" stroke-linecap="round"/>
<path d="M221.068 222.809V226.737" stroke="#D3840C" stroke-width="0.826852" stroke-miterlimit="10" stroke-linecap="round"/>
<path d="M215.746 222.809V226.737" stroke="#D3840C" stroke-width="0.826852" stroke-miterlimit="10" stroke-linecap="round"/>
<path d="M212.769 204.569C210.356 203.655 207.662 204.863 206.744 207.276L206.415 208.138L205.553 207.81C203.14 206.896 200.446 208.104 199.528 210.517C198.614 212.929 199.822 215.624 202.235 216.542L203.097 216.871L211.808 220.244L211.83 220.184L211.889 220.206L215.207 211.473L215.476 210.589C216.39 208.181 215.177 205.487 212.769 204.569Z" fill="#E89AE1"/>
<path d="M201.862 209.43C200.889 210.511 200.649 212.095 201.239 213.423C201.303 213.564 201.508 213.598 201.632 213.525C201.777 213.44 201.798 213.273 201.734 213.132C201.256 212.056 201.482 210.711 202.268 209.84C202.515 209.563 202.11 209.153 201.862 209.43Z" fill="white"/>
<path d="M202.303 210.447C201.97 211.1 201.962 211.86 202.278 212.522C202.342 212.659 202.547 212.706 202.67 212.625C202.811 212.535 202.841 212.377 202.773 212.232C202.764 212.215 202.756 212.198 202.747 212.181C202.756 212.206 202.756 212.202 202.743 212.168C202.73 212.129 202.717 212.095 202.705 212.057C202.683 211.993 202.666 211.924 202.653 211.86C202.645 211.822 202.636 211.783 202.632 211.745C202.641 211.796 202.628 211.711 202.628 211.707C202.619 211.634 202.619 211.561 202.619 211.485C202.619 211.412 202.623 211.339 202.632 211.267C202.623 211.318 202.641 211.228 202.641 211.228C202.649 211.19 202.658 211.152 202.666 211.113C202.705 210.959 202.743 210.857 202.803 210.742C202.871 210.609 202.841 210.421 202.7 210.349C202.564 210.276 202.376 210.306 202.303 210.447Z" fill="white"/>
<path d="M213.371 208.523C213.431 209.855 213.345 211.188 213.111 212.499C213.047 212.861 213.602 213.015 213.666 212.652C213.909 211.29 214.007 209.907 213.948 208.523C213.93 208.156 213.358 208.152 213.371 208.523Z" fill="white"/>
</g>
<path d="M210.451 186.023L215.75 193.795" stroke="#DC4F32" stroke-width="0.427005" stroke-miterlimit="10" stroke-linecap="round" stroke-linejoin="round"/>
<path d="M216.289 183.432L219.556 191.553" stroke="#DC4F32" stroke-width="0.427005" stroke-miterlimit="10" stroke-linecap="round" stroke-linejoin="round"/>
<path d="M223.03 183.992L222.68 190.081" stroke="#DC4F32" stroke-width="0.427005" stroke-miterlimit="10" stroke-linecap="round" stroke-linejoin="round"/>
<path d="M226.502 191.166L228.449 187.037" stroke="#DC4F32" stroke-width="0.427005" stroke-miterlimit="10" stroke-linecap="round" stroke-linejoin="round"/>
<path d="M205.955 193.1L212.676 196.14" stroke="#DC4F32" stroke-width="0.427005" stroke-miterlimit="10" stroke-linecap="round" stroke-linejoin="round"/>
<path d="M372.747 148.982C372.627 148.982 372.533 148.888 372.533 148.769V142.667C372.533 142.547 372.627 142.453 372.747 142.453C372.866 142.453 372.96 142.547 372.96 142.667V148.769C372.96 148.888 372.862 148.982 372.747 148.982Z" fill="#7F7FFF"/>
<path d="M372.747 182.587C372.627 182.587 372.533 182.494 372.533 182.374V176.272C372.533 176.153 372.627 176.059 372.747 176.059C372.866 176.059 372.96 176.153 372.96 176.272V182.374C372.96 182.494 372.862 182.587 372.747 182.587Z" fill="#7F7FFF"/>
<path d="M365.868 150.83C365.795 150.83 365.722 150.792 365.684 150.723L362.631 145.437C362.571 145.334 362.605 145.206 362.708 145.147C362.81 145.087 362.938 145.121 362.998 145.223L366.051 150.51C366.111 150.612 366.077 150.74 365.974 150.8C365.94 150.821 365.902 150.83 365.868 150.83Z" fill="#7F7FFF"/>
<path d="M382.668 179.928C382.596 179.928 382.523 179.889 382.485 179.821L379.432 174.535C379.372 174.432 379.406 174.304 379.509 174.244C379.611 174.184 379.739 174.219 379.799 174.321L382.852 179.607C382.912 179.71 382.878 179.838 382.775 179.898C382.741 179.919 382.707 179.928 382.668 179.928Z" fill="#7F7FFF"/>
<path d="M360.837 155.864C360.803 155.864 360.765 155.856 360.731 155.834L355.444 152.781C355.342 152.722 355.308 152.594 355.367 152.491C355.427 152.389 355.555 152.354 355.658 152.414L360.944 155.467C361.046 155.527 361.081 155.655 361.021 155.758C360.982 155.826 360.91 155.864 360.837 155.864Z" fill="#7F7FFF"/>
<path d="M389.935 172.665C389.901 172.665 389.862 172.657 389.828 172.635L384.542 169.582C384.439 169.522 384.405 169.394 384.465 169.292C384.525 169.189 384.653 169.155 384.755 169.215L390.042 172.268C390.144 172.328 390.178 172.456 390.118 172.558C390.08 172.627 390.008 172.665 389.935 172.665Z" fill="#7F7FFF"/>
<path d="M358.997 162.738H352.895C352.776 162.738 352.682 162.644 352.682 162.524C352.682 162.404 352.776 162.311 352.895 162.311H358.997C359.117 162.311 359.211 162.404 359.211 162.524C359.211 162.644 359.112 162.738 358.997 162.738Z" fill="#7F7FFF"/>
<path d="M392.597 162.738H386.495C386.375 162.738 386.281 162.644 386.281 162.524C386.281 162.404 386.375 162.311 386.495 162.311H392.597C392.716 162.311 392.81 162.404 392.81 162.524C392.81 162.644 392.712 162.738 392.597 162.738Z" fill="#7F7FFF"/>
<path d="M355.553 172.665C355.48 172.665 355.408 172.627 355.369 172.558C355.309 172.456 355.344 172.328 355.446 172.268L360.732 169.215C360.835 169.155 360.963 169.189 361.023 169.292C361.083 169.394 361.048 169.522 360.946 169.582L355.66 172.635C355.625 172.657 355.587 172.665 355.553 172.665Z" fill="#7F7FFF"/>
<path d="M384.651 155.864C384.578 155.864 384.505 155.826 384.467 155.758C384.407 155.655 384.441 155.527 384.544 155.467L389.83 152.414C389.933 152.354 390.061 152.389 390.12 152.491C390.18 152.594 390.146 152.722 390.044 152.781L384.757 155.834C384.723 155.856 384.689 155.864 384.651 155.864Z" fill="#7F7FFF"/>
<path d="M362.815 179.928C362.78 179.928 362.742 179.919 362.708 179.898C362.605 179.838 362.571 179.71 362.631 179.607L365.684 174.321C365.744 174.219 365.872 174.184 365.974 174.244C366.077 174.304 366.111 174.432 366.051 174.535L362.998 179.821C362.96 179.894 362.887 179.928 362.815 179.928Z" fill="#7F7FFF"/>
<path d="M379.615 150.83C379.581 150.83 379.543 150.821 379.509 150.8C379.406 150.74 379.372 150.612 379.432 150.51L382.485 145.223C382.545 145.121 382.673 145.087 382.775 145.147C382.878 145.206 382.912 145.334 382.852 145.437L379.799 150.723C379.765 150.792 379.692 150.83 379.615 150.83Z" fill="#7F7FFF"/>
<path d="M372.747 173.578C372.627 173.578 372.533 173.484 372.533 173.365V164.944C372.533 164.824 372.627 164.73 372.747 164.73C372.866 164.73 372.96 164.824 372.96 164.944V173.365C372.96 173.484 372.862 173.578 372.747 173.578Z" fill="#7F7FFF"/>
<path d="M365.069 170.404C365.013 170.404 364.958 170.382 364.92 170.34C364.834 170.254 364.834 170.122 364.92 170.036L370.876 164.08C370.962 163.994 371.094 163.994 371.179 164.08C371.265 164.165 371.265 164.297 371.179 164.383L365.223 170.34C365.18 170.387 365.124 170.404 365.069 170.404Z" fill="#7F7FFF"/>
<path d="M370.32 162.738H361.899C361.779 162.738 361.686 162.644 361.686 162.524C361.686 162.404 361.779 162.311 361.899 162.311H370.32C370.439 162.311 370.533 162.404 370.533 162.524C370.533 162.644 370.435 162.738 370.32 162.738Z" fill="#7F7FFF"/>
<path d="M371.026 161.023C370.97 161.023 370.915 161.001 370.876 160.959L364.92 155.002C364.834 154.917 364.834 154.784 364.92 154.699C365.005 154.613 365.137 154.613 365.223 154.699L371.179 160.656C371.265 160.741 371.265 160.873 371.179 160.959C371.137 161.001 371.081 161.023 371.026 161.023Z" fill="#7F7FFF"/>
<path d="M372.747 160.31C372.627 160.31 372.533 160.216 372.533 160.097V151.676C372.533 151.557 372.627 151.463 372.747 151.463C372.866 151.463 372.96 151.557 372.96 151.676V160.097C372.96 160.216 372.862 160.31 372.747 160.31Z" fill="#7F7FFF"/>
<path d="M374.458 161.023C374.402 161.023 374.347 161.001 374.308 160.959C374.223 160.873 374.223 160.741 374.308 160.656L380.265 154.699C380.35 154.613 380.483 154.613 380.568 154.699C380.653 154.784 380.653 154.917 380.568 155.002L374.611 160.959C374.569 161.001 374.513 161.023 374.458 161.023Z" fill="#7F7FFF"/>
<path d="M383.593 162.738H375.172C375.053 162.738 374.959 162.644 374.959 162.524C374.959 162.404 375.053 162.311 375.172 162.311H383.593C383.713 162.311 383.807 162.404 383.807 162.524C383.807 162.644 383.708 162.738 383.593 162.738Z" fill="#7F7FFF"/>
<path d="M380.414 170.406C380.359 170.406 380.303 170.384 380.265 170.342L374.308 164.385C374.223 164.299 374.223 164.167 374.308 164.082C374.394 163.996 374.526 163.996 374.611 164.082L380.568 170.038C380.653 170.124 380.653 170.256 380.568 170.342C380.521 170.384 380.47 170.406 380.414 170.406Z" fill="#7F7FFF"/>
<path d="M380.357 109.974C380.293 109.974 380.225 109.948 380.173 109.897C380.075 109.799 380.075 109.632 380.173 109.534L385.511 104.197C385.609 104.098 385.771 104.098 385.874 104.197C385.972 104.295 385.972 104.461 385.874 104.56L380.536 109.897C380.489 109.948 380.421 109.974 380.357 109.974Z" fill="#FFF5E6"/>
<path d="M387.162 103.169C387.097 103.169 387.029 103.144 386.978 103.093C386.88 102.994 386.88 102.828 386.978 102.73L389.13 100.578C389.228 100.479 389.395 100.479 389.493 100.578C389.591 100.676 389.591 100.842 389.493 100.941L387.341 103.093C387.294 103.144 387.226 103.169 387.162 103.169Z" fill="#FFF5E6"/>
<path d="M391.915 98.4153C391.851 98.4153 391.783 98.3897 391.736 98.3384C391.638 98.2402 391.638 98.0737 391.736 97.9755L399.593 90.1186C399.691 90.0204 399.857 90.0204 399.956 90.1186C400.054 90.2168 400.054 90.3833 399.956 90.4815L392.099 98.3384C392.047 98.3897 391.983 98.4153 391.915 98.4153Z" fill="#FFF5E6"/>
<path d="M377.737 85.4343H370.188C370.047 85.4343 369.932 85.319 369.932 85.1781C369.932 85.0372 370.047 84.9219 370.188 84.9219H377.737C377.878 84.9219 377.993 85.0372 377.993 85.1781C377.993 85.3233 377.878 85.4343 377.737 85.4343Z" fill="#FFF5E6"/>
<path d="M382.857 85.4343H379.817C379.676 85.4343 379.561 85.319 379.561 85.1781C379.561 85.0372 379.676 84.9219 379.817 84.9219H382.857C382.998 84.9219 383.113 85.0372 383.113 85.1781C383.113 85.3233 382.998 85.4343 382.857 85.4343Z" fill="#FFF5E6"/>
<path d="M397.648 85.4343H386.537C386.397 85.4343 386.281 85.319 386.281 85.1781C386.281 85.0372 386.397 84.9219 386.537 84.9219H397.648C397.789 84.9219 397.904 85.0372 397.904 85.1781C397.904 85.3233 397.789 85.4343 397.648 85.4343Z" fill="#FFF5E6"/>
<path d="M385.69 66.2241C385.626 66.2241 385.558 66.1985 385.511 66.1472L380.173 60.8097C380.075 60.7114 380.075 60.5449 380.173 60.4467C380.271 60.3485 380.438 60.3485 380.536 60.4467L385.874 65.7843C385.972 65.8825 385.972 66.049 385.874 66.1472C385.823 66.1985 385.754 66.2241 385.69 66.2241Z" fill="#FFF5E6"/>
<path d="M389.31 69.8414C389.246 69.8414 389.177 69.8157 389.126 69.7645L386.974 67.6124C386.876 67.5142 386.876 67.3477 386.974 67.2494C387.072 67.1512 387.239 67.1512 387.337 67.2494L389.489 69.4015C389.587 69.4998 389.587 69.6663 389.489 69.7645C389.438 69.8157 389.374 69.8414 389.31 69.8414Z" fill="#FFF5E6"/>
<path d="M399.768 80.302C399.704 80.302 399.636 80.2764 399.585 80.2251L391.728 72.3683C391.63 72.27 391.63 72.1035 391.728 72.0053C391.826 71.9071 391.993 71.9071 392.091 72.0053L399.948 79.8622C400.046 79.9604 400.046 80.1227 399.948 80.2251C399.901 80.2764 399.837 80.302 399.768 80.302Z" fill="#FFF5E6"/>
<path d="M396.691 104.108C396.657 104.108 396.623 104.099 396.589 104.086C396.461 104.031 396.401 103.877 396.456 103.749L398.241 99.6883C398.297 99.5602 398.45 99.5004 398.579 99.5559C398.707 99.6114 398.766 99.7651 398.711 99.8932L396.926 103.954C396.883 104.052 396.789 104.108 396.691 104.108Z" fill="#FFF5E6"/>
<path d="M398.967 98.9246C398.932 98.9246 398.898 98.916 398.864 98.9032C398.736 98.8477 398.676 98.694 398.732 98.5659L399.449 96.9305C399.505 96.8024 399.658 96.7426 399.786 96.7981C399.914 96.8536 399.974 97.0073 399.919 97.1354L399.201 98.7709C399.159 98.8691 399.065 98.9246 398.967 98.9246Z" fill="#FFF5E6"/>
<path d="M385.888 92.8357C385.785 92.8357 385.687 92.7716 385.648 92.6734C385.597 92.541 385.661 92.3916 385.794 92.3403L389.927 90.7305C390.059 90.6793 390.209 90.7433 390.26 90.8757C390.311 91.0081 390.247 91.1575 390.115 91.2088L385.982 92.8186C385.952 92.8271 385.922 92.8357 385.888 92.8357Z" fill="#FFF5E6"/>
<path d="M391.163 90.7831C391.061 90.7831 390.962 90.7191 390.924 90.6208C390.873 90.4885 390.937 90.339 391.069 90.2878L392.734 89.6387C392.867 89.5875 393.016 89.6515 393.067 89.7839C393.119 89.9163 393.055 90.0657 392.922 90.117L391.257 90.766C391.227 90.7788 391.193 90.7831 391.163 90.7831Z" fill="#FFF5E6"/>
<path d="M394.847 89.3477C394.744 89.3477 394.646 89.2836 394.607 89.1854C394.556 89.053 394.62 88.9036 394.753 88.8524L400.837 86.4825C400.97 86.4312 401.119 86.4953 401.171 86.6277C401.222 86.76 401.158 86.9095 401.025 86.9607L394.941 89.3306C394.906 89.3434 394.876 89.3477 394.847 89.3477Z" fill="#FFF5E6"/>
<path d="M390.289 79.0096C390.255 79.0096 390.221 79.001 390.187 78.9882L386.126 77.2034C385.998 77.1478 385.938 76.9941 385.993 76.866C386.049 76.7379 386.203 76.6781 386.331 76.7336L390.392 78.5185C390.52 78.574 390.579 78.7278 390.524 78.8559C390.481 78.9541 390.387 79.0096 390.289 79.0096Z" fill="#FFF5E6"/>
<path d="M393.041 80.2253C393.007 80.2253 392.973 80.2167 392.939 80.2039L391.304 79.4866C391.175 79.431 391.116 79.2773 391.171 79.1492C391.227 79.0211 391.38 78.9613 391.508 79.0168L393.144 79.7342C393.272 79.7897 393.332 79.9434 393.276 80.0716C393.234 80.1655 393.14 80.2253 393.041 80.2253Z" fill="#FFF5E6"/>
<path d="M401.001 83.7199C400.967 83.7199 400.933 83.7114 400.899 83.6986L394.921 81.0725C394.793 81.017 394.733 80.8633 394.788 80.7352C394.844 80.6071 394.998 80.5473 395.126 80.6028L401.104 83.2289C401.232 83.2844 401.292 83.4381 401.236 83.5662C401.193 83.6601 401.099 83.7199 401.001 83.7199Z" fill="#FFF5E6"/>
<path d="M399.111 70.5487C399.008 70.5487 398.91 70.4847 398.872 70.3864L397.262 66.253C397.211 66.1207 397.275 65.9712 397.407 65.92C397.539 65.8687 397.689 65.9328 397.74 66.0652L399.35 70.1986C399.401 70.3309 399.337 70.4804 399.205 70.5316C399.175 70.5444 399.145 70.5487 399.111 70.5487Z" fill="#FFF5E6"/>
<path d="M400.203 73.3541C400.1 73.3541 400.002 73.29 399.964 73.1918L399.315 71.5265C399.263 71.3941 399.327 71.2447 399.46 71.1934C399.592 71.1422 399.742 71.2062 399.793 71.3386L400.442 73.0039C400.493 73.1363 400.429 73.2857 400.297 73.337C400.267 73.3498 400.233 73.3541 400.203 73.3541Z" fill="#FFF5E6"/>
<path d="M275.6 199.203C275.536 199.203 275.484 199.151 275.484 199.087V193.156C275.484 193.092 275.536 193.041 275.6 193.041C275.664 193.041 275.715 193.092 275.715 193.156V199.087C275.715 199.147 275.664 199.203 275.6 199.203Z" fill="#FF6239"/>
<path d="M275.6 198.543C275.536 198.543 275.484 198.491 275.484 198.427V192.496C275.484 192.432 275.536 192.381 275.6 192.381C275.664 192.381 275.715 192.432 275.715 192.496V198.427C275.715 198.491 275.664 198.543 275.6 198.543Z" fill="#FF6239"/>
<path d="M275.6 199.203C275.536 199.203 275.484 199.151 275.484 199.087V193.156C275.484 193.092 275.536 193.041 275.6 193.041C275.664 193.041 275.715 193.092 275.715 193.156V199.087C275.715 199.147 275.664 199.203 275.6 199.203Z" fill="#FF6239"/>
<path d="M275.6 198.543C275.536 198.543 275.484 198.491 275.484 198.427V192.496C275.484 192.432 275.536 192.381 275.6 192.381C275.664 192.381 275.715 192.432 275.715 192.496V198.427C275.715 198.491 275.664 198.543 275.6 198.543Z" fill="#FF6239"/>
<path d="M275.6 225.482C275.536 225.482 275.484 225.431 275.484 225.367V219.436C275.484 219.372 275.536 219.32 275.6 219.32C275.664 219.32 275.715 219.372 275.715 219.436V225.367C275.715 225.431 275.664 225.482 275.6 225.482Z" fill="#FF6239"/>
<path d="M273.078 199.537C273.014 199.554 272.95 199.515 272.937 199.456L271.404 193.73C271.387 193.665 271.426 193.601 271.486 193.589C271.545 193.576 271.614 193.61 271.627 193.67L273.159 199.396C273.177 199.456 273.142 199.52 273.078 199.537Z" fill="#FF6239"/>
<path d="M272.91 198.901C272.846 198.919 272.782 198.88 272.769 198.82L271.236 193.094C271.219 193.03 271.258 192.966 271.318 192.953C271.382 192.936 271.446 192.975 271.459 193.034L272.991 198.761C273.009 198.82 272.974 198.884 272.91 198.901Z" fill="#FF6239"/>
<path d="M273.078 199.537C273.014 199.554 272.95 199.515 272.937 199.456L271.404 193.73C271.387 193.665 271.426 193.601 271.486 193.589C271.545 193.576 271.614 193.61 271.627 193.67L273.159 199.396C273.177 199.456 273.142 199.52 273.078 199.537Z" fill="#FF6239"/>
<path d="M272.91 198.901C272.846 198.919 272.782 198.88 272.769 198.82L271.236 193.094C271.219 193.03 271.258 192.966 271.318 192.953C271.382 192.936 271.446 192.975 271.459 193.034L272.991 198.761C273.009 198.82 272.974 198.884 272.91 198.901Z" fill="#FF6239"/>
<path d="M279.879 224.925C279.815 224.942 279.751 224.904 279.738 224.844L278.205 219.118C278.188 219.054 278.227 218.99 278.286 218.977C278.35 218.96 278.414 218.998 278.427 219.058L279.96 224.784C279.982 224.844 279.943 224.908 279.879 224.925Z" fill="#FF6239"/>
<path d="M273.078 199.537C273.014 199.554 272.95 199.515 272.937 199.456L271.404 193.73C271.387 193.665 271.426 193.601 271.486 193.589C271.545 193.576 271.614 193.61 271.627 193.67L273.159 199.396C273.177 199.456 273.142 199.52 273.078 199.537Z" fill="#FF6239"/>
<path d="M272.91 198.901C272.846 198.919 272.782 198.88 272.769 198.82L271.236 193.094C271.219 193.03 271.258 192.966 271.318 192.953C271.382 192.936 271.446 192.975 271.459 193.034L272.991 198.761C273.009 198.82 272.974 198.884 272.91 198.901Z" fill="#FF6239"/>
<path d="M273.078 199.537C273.014 199.554 272.95 199.515 272.937 199.456L271.404 193.73C271.387 193.665 271.426 193.601 271.486 193.589C271.545 193.576 271.614 193.61 271.627 193.67L273.159 199.396C273.177 199.456 273.142 199.52 273.078 199.537Z" fill="#FF6239"/>
<path d="M272.91 198.901C272.846 198.919 272.782 198.88 272.769 198.82L271.236 193.094C271.219 193.03 271.258 192.966 271.318 192.953C271.382 192.936 271.446 192.975 271.459 193.034L272.991 198.761C273.009 198.82 272.974 198.884 272.91 198.901Z" fill="#FF6239"/>
<path d="M279.879 224.925C279.815 224.942 279.751 224.904 279.738 224.844L278.205 219.118C278.188 219.054 278.227 218.99 278.286 218.977C278.35 218.96 278.414 218.998 278.427 219.058L279.96 224.784C279.982 224.844 279.943 224.908 279.879 224.925Z" fill="#FF6239"/>
<path d="M270.728 200.504C270.672 200.539 270.6 200.517 270.57 200.462L267.606 195.325C267.572 195.269 267.593 195.197 267.649 195.167C267.704 195.133 267.777 195.154 267.807 195.21L270.77 200.346C270.805 200.402 270.783 200.47 270.728 200.504Z" fill="#FF6239"/>
<path d="M270.39 199.932C270.334 199.966 270.262 199.945 270.232 199.889L267.268 194.753C267.234 194.697 267.256 194.624 267.311 194.595C267.367 194.56 267.439 194.582 267.469 194.637L270.433 199.774C270.467 199.83 270.445 199.902 270.39 199.932Z" fill="#FF6239"/>
<path d="M270.728 200.504C270.672 200.539 270.6 200.517 270.57 200.462L267.606 195.325C267.572 195.269 267.593 195.197 267.649 195.167C267.704 195.133 267.777 195.154 267.807 195.21L270.77 200.346C270.805 200.402 270.783 200.47 270.728 200.504Z" fill="#FF6239"/>
<path d="M270.39 199.932C270.334 199.966 270.262 199.945 270.232 199.889L267.268 194.753C267.234 194.697 267.256 194.624 267.311 194.595C267.367 194.56 267.439 194.582 267.469 194.637L270.433 199.774C270.467 199.83 270.445 199.902 270.39 199.932Z" fill="#FF6239"/>
<path d="M283.874 223.274C283.819 223.308 283.746 223.287 283.716 223.231L280.753 218.094C280.719 218.039 280.74 217.966 280.795 217.936C280.851 217.902 280.924 217.924 280.953 217.979L283.917 223.116C283.951 223.171 283.93 223.244 283.874 223.274Z" fill="#FF6239"/>
<path d="M268.713 202.049C268.666 202.096 268.594 202.096 268.547 202.049L264.354 197.856C264.307 197.809 264.307 197.736 264.354 197.69C264.401 197.643 264.473 197.643 264.52 197.69L268.713 201.883C268.76 201.93 268.76 202.002 268.713 202.049Z" fill="#FF6239"/>
<path d="M268.245 201.596C268.198 201.643 268.125 201.643 268.078 201.596L263.885 197.403C263.838 197.356 263.838 197.283 263.885 197.236C263.932 197.189 264.004 197.189 264.051 197.236L268.245 201.43C268.292 201.477 268.292 201.549 268.245 201.596Z" fill="#FF6239"/>
<path d="M268.713 202.049C268.666 202.096 268.594 202.096 268.547 202.049L264.354 197.856C264.307 197.809 264.307 197.736 264.354 197.69C264.401 197.643 264.473 197.643 264.52 197.69L268.713 201.883C268.76 201.93 268.76 202.002 268.713 202.049Z" fill="#FF6239"/>
<path d="M268.245 201.596C268.198 201.643 268.125 201.643 268.078 201.596L263.885 197.403C263.838 197.356 263.838 197.283 263.885 197.236C263.932 197.189 264.004 197.189 264.051 197.236L268.245 201.43C268.292 201.477 268.292 201.549 268.245 201.596Z" fill="#FF6239"/>
<path d="M287.301 220.643C287.254 220.69 287.182 220.69 287.135 220.643L282.941 216.45C282.895 216.403 282.895 216.33 282.941 216.283C282.988 216.236 283.061 216.236 283.108 216.283L287.301 220.476C287.348 220.523 287.348 220.596 287.301 220.643Z" fill="#FF6239"/>
<path d="M267.161 204.066C267.126 204.121 267.058 204.142 267.003 204.108L261.866 201.145C261.81 201.111 261.789 201.042 261.823 200.987C261.857 200.931 261.926 200.91 261.981 200.944L267.118 203.908C267.173 203.937 267.195 204.01 267.161 204.066Z" fill="#FF6239"/>
<path d="M266.598 203.743C266.564 203.799 266.496 203.82 266.44 203.786L261.303 200.823C261.248 200.788 261.226 200.72 261.261 200.665C261.295 200.609 261.363 200.588 261.419 200.622L266.555 203.585C266.611 203.615 266.628 203.688 266.598 203.743Z" fill="#FF6239"/>
<path d="M267.161 204.066C267.126 204.121 267.058 204.142 267.003 204.108L261.866 201.145C261.81 201.111 261.789 201.042 261.823 200.987C261.857 200.931 261.926 200.91 261.981 200.944L267.118 203.908C267.173 203.937 267.195 204.01 267.161 204.066Z" fill="#FF6239"/>
<path d="M266.598 203.743C266.564 203.799 266.496 203.82 266.44 203.786L261.303 200.823C261.248 200.788 261.226 200.72 261.261 200.665C261.295 200.609 261.363 200.588 261.419 200.622L266.555 203.585C266.611 203.615 266.628 203.688 266.598 203.743Z" fill="#FF6239"/>
<path d="M289.934 217.214C289.9 217.27 289.832 217.291 289.776 217.257L284.639 214.293C284.584 214.259 284.562 214.191 284.597 214.135C284.631 214.08 284.699 214.058 284.755 214.093L289.891 217.056C289.947 217.086 289.968 217.159 289.934 217.214Z" fill="#FF6239"/>
<path d="M266.187 206.422C266.17 206.486 266.106 206.52 266.046 206.503L260.32 204.97C260.256 204.953 260.222 204.889 260.239 204.829C260.256 204.77 260.32 204.731 260.38 204.748L266.106 206.281C266.17 206.294 266.204 206.358 266.187 206.422Z" fill="#FF6239"/>
<path d="M265.558 206.249C265.541 206.313 265.477 206.347 265.417 206.33L259.691 204.797C259.627 204.78 259.593 204.716 259.61 204.656C259.627 204.592 259.691 204.558 259.751 204.575L265.477 206.108C265.541 206.12 265.575 206.185 265.558 206.249Z" fill="#FF6239"/>
<path d="M266.187 206.422C266.17 206.486 266.106 206.52 266.046 206.503L260.32 204.97C260.256 204.953 260.222 204.889 260.239 204.829C260.256 204.77 260.32 204.731 260.38 204.748L266.106 206.281C266.17 206.294 266.204 206.358 266.187 206.422Z" fill="#FF6239"/>
<path d="M265.558 206.249C265.541 206.313 265.477 206.347 265.417 206.33L259.691 204.797C259.627 204.78 259.593 204.716 259.61 204.656C259.627 204.592 259.691 204.558 259.751 204.575L265.477 206.108C265.541 206.12 265.575 206.185 265.558 206.249Z" fill="#FF6239"/>
<path d="M291.583 213.223C291.566 213.287 291.502 213.321 291.442 213.304L285.716 211.771C285.652 211.754 285.618 211.69 285.635 211.63C285.652 211.566 285.716 211.532 285.776 211.549L291.502 213.082C291.562 213.099 291.6 213.163 291.583 213.223Z" fill="#FF6239"/>
<path d="M265.861 208.936C265.861 209 265.81 209.051 265.746 209.051H259.815C259.75 209.051 259.699 209 259.699 208.936C259.699 208.872 259.75 208.821 259.815 208.821H265.746C265.81 208.816 265.861 208.872 265.861 208.936Z" fill="#FF6239"/>
<path d="M265.199 208.936C265.199 209 265.148 209.051 265.083 209.051H259.152C259.088 209.051 259.037 209 259.037 208.936C259.037 208.872 259.088 208.821 259.152 208.821H265.083C265.143 208.816 265.199 208.872 265.199 208.936Z" fill="#FF6239"/>
<path d="M265.861 208.936C265.861 209 265.81 209.051 265.746 209.051H259.815C259.75 209.051 259.699 209 259.699 208.936C259.699 208.872 259.75 208.821 259.815 208.821H265.746C265.81 208.816 265.861 208.872 265.861 208.936Z" fill="#FF6239"/>
<path d="M265.199 208.936C265.199 209 265.148 209.051 265.083 209.051H259.152C259.088 209.051 259.037 209 259.037 208.936C259.037 208.872 259.088 208.821 259.152 208.821H265.083C265.143 208.816 265.199 208.872 265.199 208.936Z" fill="#FF6239"/>
<path d="M292.152 208.936C292.152 209 292.101 209.051 292.037 209.051H286.106C286.041 209.051 285.99 209 285.99 208.936C285.99 208.872 286.041 208.821 286.106 208.821H292.037C292.101 208.816 292.152 208.872 292.152 208.936Z" fill="#FF6239"/>
<path d="M266.187 211.458C266.204 211.522 266.166 211.586 266.106 211.599L260.38 213.132C260.316 213.149 260.252 213.111 260.239 213.051C260.226 212.991 260.26 212.923 260.32 212.91L266.046 211.377C266.11 211.356 266.174 211.394 266.187 211.458Z" fill="#FF6239"/>
<path d="M265.558 211.632C265.575 211.696 265.536 211.76 265.477 211.773L259.75 213.306C259.686 213.323 259.622 213.284 259.61 213.225C259.592 213.161 259.631 213.097 259.691 213.084L265.417 211.551C265.481 211.53 265.545 211.568 265.558 211.632Z" fill="#FF6239"/>
<path d="M266.187 211.458C266.204 211.522 266.166 211.586 266.106 211.599L260.38 213.132C260.316 213.149 260.252 213.111 260.239 213.051C260.226 212.991 260.26 212.923 260.32 212.91L266.046 211.377C266.11 211.356 266.174 211.394 266.187 211.458Z" fill="#FF6239"/>
<path d="M265.558 211.632C265.575 211.696 265.536 211.76 265.477 211.773L259.75 213.306C259.686 213.323 259.622 213.284 259.61 213.225C259.592 213.161 259.631 213.097 259.691 213.084L265.417 211.551C265.481 211.53 265.545 211.568 265.558 211.632Z" fill="#FF6239"/>
<path d="M291.583 204.652C291.6 204.716 291.562 204.78 291.502 204.793L285.776 206.325C285.712 206.343 285.648 206.304 285.635 206.244C285.618 206.18 285.656 206.116 285.716 206.103L291.442 204.57C291.502 204.553 291.566 204.592 291.583 204.652Z" fill="#FF6239"/>
<path d="M267.163 213.801C267.197 213.857 267.175 213.929 267.12 213.959L261.983 216.923C261.928 216.957 261.855 216.936 261.825 216.88C261.791 216.825 261.812 216.752 261.868 216.722L267.005 213.759C267.06 213.729 267.133 213.746 267.163 213.801Z" fill="#FF6239"/>
<path d="M266.598 214.122C266.632 214.177 266.611 214.25 266.555 214.28L261.419 217.243C261.363 217.277 261.29 217.256 261.261 217.2C261.226 217.145 261.248 217.072 261.303 217.042L266.44 214.079C266.491 214.049 266.564 214.066 266.598 214.122Z" fill="#FF6239"/>
<path d="M267.163 213.801C267.197 213.857 267.175 213.929 267.12 213.959L261.983 216.923C261.928 216.957 261.855 216.936 261.825 216.88C261.791 216.825 261.812 216.752 261.868 216.722L267.005 213.759C267.06 213.729 267.133 213.746 267.163 213.801Z" fill="#FF6239"/>
<path d="M266.598 214.122C266.632 214.177 266.611 214.25 266.555 214.28L261.419 217.243C261.363 217.277 261.29 217.256 261.261 217.2C261.226 217.145 261.248 217.072 261.303 217.042L266.44 214.079C266.491 214.049 266.564 214.066 266.598 214.122Z" fill="#FF6239"/>
<path d="M289.934 200.653C289.968 200.708 289.947 200.781 289.891 200.811L284.755 203.774C284.699 203.809 284.626 203.787 284.597 203.732C284.562 203.676 284.584 203.604 284.639 203.574L289.776 200.61C289.832 200.58 289.904 200.597 289.934 200.653Z" fill="#FF6239"/>
<path d="M268.713 215.819C268.76 215.866 268.76 215.939 268.713 215.986L264.52 220.179C264.473 220.226 264.401 220.226 264.354 220.179C264.307 220.132 264.307 220.059 264.354 220.012L268.547 215.819C268.594 215.776 268.671 215.776 268.713 215.819Z" fill="#FF6239"/>
<path d="M268.245 216.28C268.292 216.327 268.292 216.4 268.245 216.447L264.051 220.64C264.004 220.687 263.932 220.687 263.885 220.64C263.838 220.593 263.838 220.52 263.885 220.473L268.078 216.28C268.125 216.237 268.202 216.237 268.245 216.28Z" fill="#FF6239"/>
<path d="M268.713 215.819C268.76 215.866 268.76 215.939 268.713 215.986L264.52 220.179C264.473 220.226 264.401 220.226 264.354 220.179C264.307 220.132 264.307 220.059 264.354 220.012L268.547 215.819C268.594 215.776 268.671 215.776 268.713 215.819Z" fill="#FF6239"/>
<path d="M268.245 216.28C268.292 216.327 268.292 216.4 268.245 216.447L264.051 220.64C264.004 220.687 263.932 220.687 263.885 220.64C263.838 220.593 263.838 220.52 263.885 220.473L268.078 216.28C268.125 216.237 268.202 216.237 268.245 216.28Z" fill="#FF6239"/>
<path d="M287.301 197.233C287.348 197.28 287.348 197.353 287.301 197.4L283.108 201.593C283.061 201.64 282.988 201.64 282.941 201.593C282.895 201.546 282.895 201.473 282.941 201.426L287.135 197.233C287.182 197.19 287.259 197.19 287.301 197.233Z" fill="#FF6239"/>
<path d="M270.728 217.356C270.783 217.391 270.805 217.459 270.77 217.514L267.807 222.651C267.773 222.707 267.704 222.728 267.649 222.694C267.593 222.66 267.572 222.591 267.606 222.536L270.57 217.399C270.604 217.344 270.672 217.326 270.728 217.356Z" fill="#FF6239"/>
<path d="M270.39 217.934C270.445 217.969 270.467 218.037 270.433 218.092L267.469 223.229C267.435 223.285 267.367 223.306 267.311 223.272C267.256 223.238 267.234 223.17 267.268 223.114L270.232 217.977C270.266 217.922 270.334 217.905 270.39 217.934Z" fill="#FF6239"/>
<path d="M270.728 217.356C270.783 217.391 270.805 217.459 270.77 217.514L267.807 222.651C267.773 222.707 267.704 222.728 267.649 222.694C267.593 222.66 267.572 222.591 267.606 222.536L270.57 217.399C270.604 217.344 270.672 217.326 270.728 217.356Z" fill="#FF6239"/>
<path d="M270.39 217.934C270.445 217.969 270.467 218.037 270.433 218.092L267.469 223.229C267.435 223.285 267.367 223.306 267.311 223.272C267.256 223.238 267.234 223.17 267.268 223.114L270.232 217.977C270.266 217.922 270.334 217.905 270.39 217.934Z" fill="#FF6239"/>
<path d="M283.874 194.597C283.93 194.631 283.951 194.699 283.917 194.755L280.953 199.891C280.919 199.947 280.851 199.968 280.795 199.934C280.74 199.9 280.719 199.832 280.753 199.776L283.716 194.639C283.75 194.584 283.819 194.567 283.874 194.597Z" fill="#FF6239"/>
<path d="M273.078 218.334C273.142 218.351 273.177 218.415 273.159 218.475L271.627 224.201C271.609 224.265 271.545 224.299 271.486 224.282C271.426 224.265 271.387 224.201 271.404 224.141L272.937 218.415C272.955 218.356 273.019 218.317 273.078 218.334Z" fill="#FF6239"/>
<path d="M272.911 218.973C272.975 218.99 273.009 219.054 272.992 219.114L271.459 224.84C271.442 224.904 271.378 224.938 271.318 224.921C271.254 224.904 271.22 224.84 271.237 224.78L272.77 219.054C272.787 218.994 272.851 218.956 272.911 218.973Z" fill="#FF6239"/>
<path d="M273.078 218.334C273.142 218.351 273.177 218.415 273.159 218.475L271.627 224.201C271.609 224.265 271.545 224.299 271.486 224.282C271.426 224.265 271.387 224.201 271.404 224.141L272.937 218.415C272.955 218.356 273.019 218.317 273.078 218.334Z" fill="#FF6239"/>
<path d="M272.911 218.973C272.975 218.99 273.009 219.054 272.992 219.114L271.459 224.84C271.442 224.904 271.378 224.938 271.318 224.921C271.254 224.904 271.22 224.84 271.237 224.78L272.77 219.054C272.787 218.994 272.851 218.956 272.911 218.973Z" fill="#FF6239"/>
<path d="M279.879 192.953C279.943 192.97 279.978 193.034 279.961 193.094L278.428 198.82C278.41 198.884 278.346 198.919 278.287 198.901C278.223 198.884 278.188 198.82 278.206 198.761L279.738 193.034C279.756 192.975 279.82 192.936 279.879 192.953Z" fill="#FF6239"/>
<path d="M275.6 216.74C275.536 216.74 275.484 216.689 275.484 216.625V213.209C275.484 213.145 275.536 213.094 275.6 213.094C275.664 213.094 275.715 213.145 275.715 213.209V216.625C275.715 216.689 275.664 216.74 275.6 216.74Z" fill="#FF6239"/>
<path d="M275.6 211.805C275.536 211.805 275.484 211.753 275.484 211.689V210.729C275.484 210.665 275.536 210.613 275.6 210.613C275.664 210.613 275.715 210.665 275.715 210.729V211.689C275.715 211.749 275.664 211.805 275.6 211.805Z" fill="#FF6239"/>
<path d="M270.165 214.494C270.135 214.494 270.105 214.481 270.084 214.46C270.037 214.413 270.037 214.34 270.084 214.294L272.497 211.881C272.544 211.834 272.616 211.834 272.663 211.881C272.71 211.928 272.71 212 272.663 212.047L270.251 214.46C270.225 214.486 270.195 214.494 270.165 214.494Z" fill="#FF6239"/>
<path d="M273.651 211.005C273.622 211.005 273.592 210.992 273.57 210.971C273.523 210.924 273.523 210.851 273.57 210.804L274.249 210.125C274.296 210.078 274.369 210.078 274.416 210.125C274.463 210.172 274.463 210.245 274.416 210.292L273.737 210.971C273.711 210.992 273.681 211.005 273.651 211.005Z" fill="#FF6239"/>
<path d="M271.322 209.051H267.906C267.842 209.051 267.791 209 267.791 208.936C267.791 208.872 267.842 208.82 267.906 208.82H271.322C271.386 208.82 271.438 208.872 271.438 208.936C271.438 209 271.386 209.051 271.322 209.051Z" fill="#FF6239"/>
<path d="M273.805 209.051H272.844C272.78 209.051 272.729 209 272.729 208.936C272.729 208.872 272.78 208.82 272.844 208.82H273.805C273.869 208.82 273.92 208.872 273.92 208.936C273.92 209 273.869 209.051 273.805 209.051Z" fill="#FF6239"/>
<path d="M272.578 206.023C272.548 206.023 272.518 206.011 272.497 205.989L270.084 203.577C270.037 203.53 270.037 203.457 270.084 203.41C270.131 203.363 270.204 203.363 270.251 203.41L272.663 205.823C272.71 205.87 272.71 205.942 272.663 205.989C272.638 206.011 272.608 206.023 272.578 206.023Z" fill="#FF6239"/>
<path d="M274.33 207.776C274.301 207.776 274.271 207.763 274.249 207.742L273.57 207.063C273.523 207.016 273.523 206.944 273.57 206.897C273.617 206.85 273.69 206.85 273.737 206.897L274.416 207.575C274.463 207.622 274.463 207.695 274.416 207.742C274.39 207.763 274.36 207.776 274.33 207.776Z" fill="#FF6239"/>
<path d="M275.6 204.774C275.536 204.774 275.484 204.722 275.484 204.658V201.242C275.484 201.178 275.536 201.127 275.6 201.127C275.664 201.127 275.715 201.178 275.715 201.242V204.658C275.715 204.718 275.664 204.774 275.6 204.774Z" fill="#FF6239"/>
<path d="M275.6 207.256C275.536 207.256 275.484 207.205 275.484 207.141V206.18C275.484 206.116 275.536 206.064 275.6 206.064C275.664 206.064 275.715 206.116 275.715 206.18V207.141C275.715 207.205 275.664 207.256 275.6 207.256Z" fill="#FF6239"/>
<path d="M278.622 206.023C278.592 206.023 278.562 206.011 278.541 205.989C278.494 205.942 278.494 205.87 278.541 205.823L280.954 203.41C281.001 203.363 281.073 203.363 281.12 203.41C281.167 203.457 281.167 203.53 281.12 203.577L278.708 205.989C278.682 206.011 278.652 206.023 278.622 206.023Z" fill="#FF6239"/>
<path d="M276.864 207.776C276.835 207.776 276.805 207.763 276.783 207.742C276.736 207.695 276.736 207.622 276.783 207.575L277.462 206.897C277.509 206.85 277.582 206.85 277.629 206.897C277.676 206.944 277.676 207.016 277.629 207.063L276.95 207.742C276.924 207.763 276.894 207.776 276.864 207.776Z" fill="#FF6239"/>
<path d="M283.291 209.051H279.875C279.811 209.051 279.76 209 279.76 208.936C279.76 208.872 279.811 208.82 279.875 208.82H283.291C283.355 208.82 283.406 208.872 283.406 208.936C283.406 209 283.355 209.051 283.291 209.051Z" fill="#FF6239"/>
<path d="M278.353 209.051H277.393C277.329 209.051 277.277 209 277.277 208.936C277.277 208.872 277.329 208.82 277.393 208.82H278.353C278.417 208.82 278.469 208.872 278.469 208.936C278.469 209 278.417 209.051 278.353 209.051Z" fill="#FF6239"/>
<path d="M281.035 214.494C281.005 214.494 280.975 214.481 280.954 214.46L278.541 212.047C278.494 212 278.494 211.928 278.541 211.881C278.588 211.834 278.661 211.834 278.708 211.881L281.12 214.294C281.167 214.34 281.167 214.413 281.12 214.46C281.095 214.486 281.065 214.494 281.035 214.494Z" fill="#FF6239"/>
<path d="M277.543 211.005C277.513 211.005 277.484 210.992 277.462 210.971L276.783 210.292C276.736 210.245 276.736 210.172 276.783 210.125C276.83 210.078 276.903 210.078 276.95 210.125L277.629 210.804C277.676 210.851 277.676 210.924 277.629 210.971C277.603 210.992 277.573 211.005 277.543 211.005Z" fill="#FF6239"/>
<path d="M117.789 227.273V222.281L115.112 227.828L117.789 227.273Z" fill="#FFF5E6"/>
<path d="M115.714 224.552C112.591 224.552 110.06 227.083 110.06 230.206C110.06 233.328 112.591 235.859 115.714 235.859C118.836 235.859 121.367 233.328 121.367 230.206C121.367 227.083 118.836 224.552 115.714 224.552Z" fill="#FFF5E6"/>
<path d="M113.379 230.032H118.025C118.119 230.032 118.191 230.109 118.191 230.199C118.191 230.288 118.115 230.365 118.025 230.365H113.379C113.285 230.365 113.213 230.288 113.213 230.199C113.213 230.109 113.289 230.032 113.379 230.032Z" fill="#FF6239"/>
<path d="M113.379 231.265H118.025C118.119 231.265 118.191 231.341 118.191 231.431C118.191 231.521 118.115 231.598 118.025 231.598H113.379C113.285 231.598 113.213 231.521 113.213 231.431C113.213 231.341 113.289 231.265 113.379 231.265Z" fill="#FF6239"/>
<path d="M114.542 228.8H116.865C116.959 228.8 117.031 228.877 117.031 228.966C117.031 229.056 116.954 229.133 116.865 229.133H114.542C114.448 229.133 114.375 229.056 114.375 228.966C114.375 228.877 114.452 228.8 114.542 228.8Z" fill="#FF6239"/>
<path d="M130.553 244.567H139.823C140.549 244.567 141.139 245.156 141.139 245.877V248.538V252.172C141.139 252.897 140.549 253.482 139.823 253.482H130.553C129.827 253.482 129.242 252.893 129.242 252.172V245.877C129.238 245.156 129.827 244.567 130.553 244.567Z" fill="#FFF5E6"/>
<path d="M141.133 241.864L137.315 247.608L141.133 249.623V241.864Z" fill="#FFF5E6"/>
<path d="M137.616 248.769C137.38 248.769 137.189 248.96 137.189 249.196C137.189 249.432 137.38 249.623 137.616 249.623C137.852 249.623 138.043 249.432 138.043 249.196C138.043 248.96 137.852 248.769 137.616 248.769Z" fill="#FF6239"/>
<path d="M134.761 249.196C134.761 248.961 134.953 248.769 135.188 248.769C135.423 248.769 135.615 248.961 135.615 249.196C135.615 249.431 135.423 249.623 135.188 249.623C134.953 249.623 134.761 249.435 134.761 249.196Z" fill="#FF6239"/>
<path d="M132.76 248.769C132.525 248.769 132.333 248.96 132.333 249.196C132.333 249.432 132.525 249.623 132.76 249.623C132.996 249.623 133.188 249.432 133.188 249.196C133.188 248.96 132.996 248.769 132.76 248.769Z" fill="#FF6239"/>
</g>
<defs>
<linearGradient id="paint0_linear_761_30823" x1="111.676" y1="216.34" x2="200.05" y2="216.34" gradientUnits="userSpaceOnUse">
<stop stop-color="#7F7FDE"/>
<stop offset="0.9997" stop-color="#5C4DC0"/>
</linearGradient>
<linearGradient id="paint1_linear_761_30823" x1="144.482" y1="112.508" x2="130.392" y2="111.895" gradientUnits="userSpaceOnUse">
<stop stop-color="#78AFF0"/>
<stop offset="0.9997" stop-color="#788EE9"/>
</linearGradient>
<clipPath id="clip0_761_30823">
<rect width="666.835" height="276.459" fill="white" transform="translate(-140.002)"/>
</clipPath>
</defs>
</svg>
