<svg width="314" height="158" viewBox="0 0 314 158" fill="none" xmlns="http://www.w3.org/2000/svg">
<path d="M220.424 74.3301L301.001 166.419L271.032 184.645H227.759L169.641 120.712L173.364 121.053L185.892 127.144L198.078 128.159L208.575 123.761L216.532 120.08L221.777 109.878L225.276 100.059L224.148 87.8726L220.424 74.3301Z" fill="url(#paint0_linear_794_9021)"/>
<path d="M303.002 0H272V44.2741H313.025V10.0225L303.002 0Z" fill="white"/>
<path d="M303.002 10.0225H313.024L303.002 0V10.0225Z" fill="#123040"/>
<path d="M284.25 3.47266H275.77V5.73853H284.25V3.47266Z" fill="#D6CEC9"/>
<path d="M284.25 7.62109H275.77V9.88696H284.25V7.62109Z" fill="#D6CEC9"/>
<path d="M286.268 31.6973H281.512V37.3145H286.268V31.6973Z" fill="#123040"/>
<path d="M294.96 24.3184H290.203V37.3129H294.96V24.3184Z" fill="#123040"/>
<path d="M303.524 17.4414H298.768V37.3143H303.524V17.4414Z" fill="#FF9EB1"/>
<path d="M199.102 17.6074H75.9648V102.077H199.102V17.6074Z" fill="#617C9C"/>
<path d="M83.8579 22.0452C83.8579 23.0183 83.071 23.8052 82.0979 23.8052C81.1283 23.8052 80.3379 23.0183 80.3379 22.0452C80.3379 21.0721 81.1248 20.2852 82.0979 20.2852C83.071 20.2852 83.8579 21.0721 83.8579 22.0452Z" fill="#92ADCC"/>
<path d="M89.9106 22.0452C89.9106 23.0183 89.1237 23.8052 88.1506 23.8052C87.181 23.8052 86.3906 23.0183 86.3906 22.0452C86.3906 21.0721 87.1775 20.2852 88.1506 20.2852C89.1237 20.2852 89.9106 21.0721 89.9106 22.0452Z" fill="#92ADCC"/>
<path d="M95.9673 22.0452C95.9673 23.0183 95.1804 23.8052 94.2073 23.8052C93.2377 23.8052 92.4473 23.0183 92.4473 22.0452C92.4473 21.0721 93.2342 20.2852 94.2073 20.2852C95.1804 20.2852 95.9673 21.0721 95.9673 22.0452Z" fill="#92ADCC"/>
<path d="M193.604 21.0195H182.078V23.0711H193.604V21.0195Z" fill="#92ADCC"/>
<path d="M199.102 25.6914H75.9648V31.3157H199.102V25.6914Z" fill="#92ADCC"/>
<path d="M214.809 30.2988H85.7383V120.568H214.809V30.2988Z" fill="#123040"/>
<path d="M211.926 33.2012H88.627V117.671H211.926V33.2012Z" fill="white"/>
<path d="M42.8092 15.4719C42.8092 14.9309 42.3666 14.4883 41.8256 14.4883H20.2629C19.7219 14.4883 19.2793 14.9309 19.2793 15.4719V18.9744H42.8057V15.4719H42.8092Z" fill="#123040"/>
<path d="M19.2832 18.9746V33.961C19.2832 34.502 19.7258 34.9446 20.2668 34.9446H41.8295C42.3705 34.9446 42.8131 34.502 42.8131 33.961V18.9746H19.2832Z" fill="white"/>
<path d="M26.7812 16.1534C26.7812 16.062 26.855 15.9883 26.9463 15.9883H28.06C28.1513 15.9883 28.2251 16.062 28.2251 16.1534V17.267C28.2251 17.3583 28.1513 17.4321 28.06 17.4321H26.9463C26.8585 17.4321 26.7812 17.3583 26.7812 17.267V16.1534Z" fill="white"/>
<path d="M24.1484 16.1534C24.1484 16.062 24.2222 15.9883 24.3135 15.9883H25.4271C25.5185 15.9883 25.5923 16.062 25.5923 16.1534V17.267C25.5923 17.3583 25.5185 17.4321 25.4271 17.4321H24.3135C24.2222 17.4321 24.1484 17.3583 24.1484 17.267V16.1534Z" fill="white"/>
<path d="M21.5176 16.1534C21.5176 16.062 21.5914 15.9883 21.6827 15.9883H22.7963C22.8876 15.9883 22.9614 16.062 22.9614 16.1534V17.267C22.9614 17.3583 22.8876 17.4321 22.7963 17.4321H21.6827C21.5914 17.4321 21.5176 17.3583 21.5176 17.267V16.1534Z" fill="white"/>
<path d="M33.838 105.896V102.538L30.9889 102.152C30.736 100.985 30.2758 99.8963 29.6505 98.9232L31.3929 96.6327L29.0182 94.2579L26.7277 96.0039C25.7546 95.375 24.6656 94.9148 23.4993 94.6654L23.1128 91.8164H19.7544L19.368 94.6654C18.2017 94.9184 17.1091 95.3786 16.1396 96.0039L13.8491 94.2579L11.4708 96.6327L13.2168 98.9232C12.5879 99.8963 12.1277 100.985 11.8783 102.152L9.0293 102.538V105.896L11.8783 106.283C12.1313 107.449 12.5879 108.542 13.2168 109.511L11.4708 111.802L13.8491 114.177L16.1396 112.434C17.1091 113.063 18.2017 113.523 19.368 113.773L19.7544 116.622H23.1128L23.4993 113.773C24.6691 113.52 25.7546 113.059 26.7277 112.434L29.0182 114.177L31.3929 111.802L29.6505 109.511C30.2793 108.538 30.7395 107.449 30.9889 106.283L33.838 105.896ZM21.4301 107.607C19.5612 107.607 18.0401 106.086 18.0401 104.217C18.0401 102.348 19.5612 100.827 21.4301 100.827C23.299 100.827 24.8201 102.348 24.8201 104.217C24.8201 106.086 23.299 107.607 21.4301 107.607Z" fill="#123040"/>
<path d="M21.43 96.8203C17.3514 96.8203 14.0352 100.14 14.0352 104.219C14.0352 108.297 17.3549 111.617 21.43 111.617C25.5085 111.617 28.8283 108.297 28.8283 104.219C28.8283 100.14 25.5085 96.8203 21.43 96.8203ZM21.43 109.625C18.4439 109.625 16.0235 107.205 16.0235 104.219C16.0235 101.233 18.4439 98.8122 21.43 98.8122C24.416 98.8122 26.8365 101.233 26.8365 104.219C26.8365 107.205 24.416 109.625 21.43 109.625Z" fill="#FF9EB1"/>
<path d="M19.2931 87.4292V84.9209L17.1677 84.6329C16.9815 83.7616 16.6373 82.9501 16.1701 82.223L17.4699 80.5156L15.6958 78.7416L13.9885 80.0449C13.2613 79.5777 12.4498 79.2334 11.5786 79.0472L11.2905 76.9219H8.78577L8.4977 79.0472C7.62649 79.2369 6.81147 79.5777 6.08779 80.0449L4.38049 78.7416L2.60644 80.5156L3.90624 82.223C3.43901 82.9466 3.09474 83.7616 2.90855 84.6329L0.783203 84.9209V87.4292L2.90855 87.7173C3.09474 88.5885 3.43901 89.4 3.90624 90.1272L2.60644 91.8345L4.38049 93.6085L6.08779 92.3087C6.81147 92.7759 7.62297 93.1202 8.4977 93.3064L8.78577 95.4318H11.2905L11.5786 93.3064C12.4498 93.1202 13.2613 92.7759 13.9885 92.3087L15.6958 93.6085L17.4699 91.8345L16.1701 90.1272C16.6373 89.4035 16.9815 88.5885 17.1677 87.7173L19.2931 87.4292ZM10.0364 88.7079C8.64174 88.7079 7.50704 87.5732 7.50704 86.1786C7.50704 84.7839 8.64174 83.6492 10.0364 83.6492C11.431 83.6492 12.5657 84.7839 12.5657 86.1786C12.5657 87.5732 11.431 88.7079 10.0364 88.7079Z" fill="#123040"/>
<path d="M10.0365 80.6602C6.99423 80.6602 4.51758 83.1368 4.51758 86.1791C4.51758 89.2213 6.99423 91.6979 10.0365 91.6979C13.0787 91.6979 15.5554 89.2213 15.5554 86.1791C15.5554 83.1368 13.0787 80.6602 10.0365 80.6602ZM10.0365 90.212C7.80924 90.212 6.00356 88.4063 6.00356 86.1791C6.00356 83.9518 7.80924 82.1462 10.0365 82.1462C12.2637 82.1462 14.0694 83.9518 14.0694 86.1791C14.0694 88.4063 12.2637 90.212 10.0365 90.212Z" fill="#FF9EB1"/>
<path d="M96.4594 37.7151C96.4594 38.6882 95.6725 39.4751 94.6994 39.4751C93.7263 39.4751 92.9395 38.6882 92.9395 37.7151C92.9395 36.742 93.7263 35.9551 94.6994 35.9551C95.6725 35.9586 96.4594 36.7455 96.4594 37.7151Z" fill="#BCBCBC"/>
<path d="M102.516 37.7151C102.516 38.6882 101.729 39.4751 100.756 39.4751C99.783 39.4751 98.9961 38.6882 98.9961 37.7151C98.9961 36.742 99.783 35.9551 100.756 35.9551C101.729 35.9586 102.516 36.7455 102.516 37.7151Z" fill="#BCBCBC"/>
<path d="M108.573 37.7151C108.573 38.6882 107.786 39.4751 106.813 39.4751C105.84 39.4751 105.053 38.6882 105.053 37.7151C105.053 36.742 105.84 35.9551 106.813 35.9551C107.786 35.9551 108.573 36.7455 108.573 37.7151Z" fill="#BCBCBC"/>
<path d="M206.21 36.6895H194.684V38.741H206.21V36.6895Z" fill="#BCBCBC"/>
<path d="M211.764 41.5918H88.627V47.2161H211.764V41.5918Z" fill="#BCBCBC"/>
<path d="M105.279 110.458H97.6309V85.8569L105.279 79.9199V110.458Z" fill="#FF9EB1"/>
<path d="M119.2 110.46H111.553V80.3223L119.2 90.4888V110.46Z" fill="#E2791C"/>
<path d="M133.12 110.459H125.473V95.8556L133.12 89.8379V110.459Z" fill="#FF9EB1"/>
<path d="M147.041 110.459H139.396V85.0428L147.041 79.1445V110.459Z" fill="#E2791C"/>
<path d="M62.258 105.267L61.0215 103.655L107.382 68.0999L110.512 65.8551L112.581 68.8517L125.281 85.6894L166.017 53.9391L168.793 51.8102L171.122 54.5398L179.462 64.0459L187.064 62.0716L193.11 61.3339L230.027 35.8086L231.183 37.4808L193.854 63.2906L187.443 64.0705L178.759 66.3259L169.587 55.8677L168.501 54.596L167.261 55.5445L124.902 88.563L110.92 70.0215L110.017 68.7112L108.58 69.744L62.258 105.267Z" fill="#123040"/>
<path d="M224.727 31.5545L241.529 28.1504L233.657 43.3827L224.727 31.5545Z" fill="#123040"/>
<path d="M138.924 63.7949H121.113V65.6006H138.924V63.7949Z" fill="#BCBCBC"/>
<path d="M136.34 59.7852H120.064V61.5908H136.34V59.7852Z" fill="#BCBCBC"/>
<path d="M133.178 67.5879H120.064V69.3936H133.178V67.5879Z" fill="#BCBCBC"/>
<path d="M160.966 83.4412V68.1738L153.318 74.0897V110.463H162.238C159.101 102.253 157.643 91.5422 160.966 83.4412Z" fill="#FF9EB1"/>
<path d="M218.305 115.221L211.557 121.578L220.968 131.569L227.716 125.212L218.305 115.221Z" fill="#2C363D"/>
<path d="M233.326 128.488L229.033 123.928L219.629 132.787L222.439 135.774L247.396 162.297L256.874 152.818L233.326 128.488Z" fill="#5A3A35"/>
<path d="M191.628 110.459H181.148V75.5643L191.628 67.5195V110.459Z" fill="#FFCA22"/>
<path d="M173.634 71.1035C173.177 71.4829 172.731 71.8799 172.292 72.2909C167.128 77.1529 163.169 83.413 162.252 89.9296V98.3783C162.849 102.608 164.128 106.736 166.541 110.459H173.634V71.1035Z" fill="#BCBCBC"/>
<path d="M209.581 110.46V69.1932C206.352 67.0292 202.787 65.5537 199.102 64.7773V110.46H209.581Z" fill="#FF9EB1"/>
<path d="M266.467 61.4336C257.698 61.4336 250.588 64.258 250.588 67.7429C250.588 71.2278 257.698 74.0522 266.467 74.0522C275.235 74.0522 282.345 71.2278 282.345 67.7429C282.345 64.258 275.235 61.4336 266.467 61.4336Z" fill="#F0D63D"/>
<path d="M274.252 67.2536H273.036L274.234 65.462C274.252 65.4339 274.238 65.4058 274.196 65.3847C274.153 65.3637 274.087 65.3496 274.016 65.3496H272.467C272.365 65.3496 272.274 65.3777 272.249 65.4164L271.073 67.2536H268.761L267.602 65.4164C267.574 65.3777 267.486 65.3496 267.38 65.3496H265.561C265.459 65.3496 265.367 65.3777 265.343 65.4164L264.162 67.2536H261.854L260.695 65.4164C260.671 65.3777 260.579 65.3496 260.477 65.3496H258.946C258.875 65.3496 258.809 65.3637 258.767 65.3847C258.724 65.4058 258.71 65.4339 258.724 65.462L259.908 67.2536H258.686C258.563 67.2536 258.461 67.2958 258.461 67.3415V67.893C258.461 67.9422 258.563 67.9843 258.686 67.9843H260.39L261.967 70.3732C261.995 70.4118 262.086 70.4399 262.185 70.4399H263.825C263.927 70.4399 264.018 70.4118 264.043 70.3732L265.589 67.9879H267.331L268.873 70.3732C268.902 70.4118 268.989 70.4399 269.091 70.4399H270.732C270.834 70.4399 270.925 70.4118 270.953 70.3732L272.548 67.9843H274.252C274.375 67.9843 274.48 67.9422 274.48 67.893V67.3415C274.477 67.2958 274.375 67.2536 274.252 67.2536ZM270.605 67.9843L269.913 69.0593L269.221 67.9843H270.605ZM266.853 67.2536H266.07L266.467 66.6459L266.853 67.2536ZM263.695 67.9843L263.003 69.0593L262.308 67.9843H263.695Z" fill="#EFA003"/>
<path d="M266.467 81.3558C275.235 81.3558 282.345 78.5313 282.345 75.0464V70.8379C279.647 73.8661 273.029 75.4364 266.467 75.4364C259.904 75.4364 253.286 73.8661 250.588 70.8379V75.0464C250.588 78.5313 257.698 81.3558 266.467 81.3558Z" fill="#F0D63D"/>
<path d="M266.467 88.9044C275.235 88.9044 282.345 86.08 282.345 82.5951V78.1406C279.647 81.1688 273.029 82.7391 266.467 82.7391C259.904 82.7391 253.286 81.1688 250.588 78.1406V82.5951C250.588 86.0835 257.698 88.9044 266.467 88.9044Z" fill="#F0D63D"/>
<path d="M266.467 96.6644C275.235 96.6644 282.345 93.84 282.345 90.3551V85.6934C279.647 88.7215 273.029 90.2918 266.467 90.2918C259.904 90.2918 253.286 88.7215 250.588 85.6934V90.3551C250.588 93.84 257.698 96.6644 266.467 96.6644Z" fill="#F0D63D"/>
<path opacity="0.55" d="M224.686 95.7542C225.122 78.1835 211.231 63.5863 193.661 63.1504C176.09 62.7145 161.493 76.605 161.057 94.1757C160.621 111.746 174.511 126.344 192.082 126.779C209.653 127.215 224.25 113.325 224.686 95.7542Z" fill="white"/>
<path d="M217.989 71.3186C204.928 57.4529 183.095 56.7995 169.229 69.8608C155.363 82.922 154.71 104.752 167.771 118.621C180.832 132.487 202.665 133.14 216.531 120.079C230.397 107.018 231.05 85.1844 217.989 71.3186ZM213.464 116.826C201.394 128.194 182.395 127.625 171.027 115.558C159.659 103.487 160.225 84.4888 172.296 73.1173C184.366 61.7493 203.364 62.3149 214.736 74.3855C226.1 86.4561 225.535 105.454 213.464 116.826Z" fill="#123040"/>
<path d="M207.734 92.5099C207.615 92.4572 207.221 92.4151 206.856 92.4151H205.89C205.524 92.4151 205.303 92.127 205.398 91.7757L207.316 84.5706C207.411 84.2193 207.492 83.8118 207.495 83.6642C207.495 83.6642 207.495 83.6642 207.407 83.5589C207.334 83.457 207.334 83.457 207.334 83.457C207.193 83.4218 206.779 83.3902 206.417 83.3902H204.825C204.46 83.3902 204.081 83.4218 203.979 83.457C203.877 83.4956 203.68 83.998 203.589 84.3493L201.699 91.7687C201.607 92.12 201.239 92.4116 200.873 92.4116H197.856C197.49 92.4116 197.121 92.1235 197.034 91.7687L195.172 84.3528C195.084 84.0015 194.961 83.6397 194.901 83.5483C194.841 83.4605 194.297 83.3867 193.935 83.3867H191.831C191.466 83.3867 191.09 83.4183 190.991 83.4535C190.893 83.4921 190.689 83.9945 190.601 84.3458L188.708 91.7652C188.616 92.1165 188.248 92.408 187.882 92.408H184.858C184.492 92.408 184.123 92.12 184.036 91.7652L182.177 84.3528C182.089 83.998 181.966 83.6397 181.907 83.5483C181.847 83.4605 181.306 83.3867 180.941 83.3867H179.381C179.016 83.3867 178.604 83.4148 178.464 83.4535C178.464 83.4535 178.464 83.4535 178.38 83.5553C178.299 83.6607 178.299 83.6607 178.299 83.6607C178.302 83.8083 178.383 84.2158 178.475 84.5671L180.364 91.7687C180.456 92.12 180.234 92.408 179.869 92.408H178.9C178.534 92.408 178.141 92.4502 178.025 92.5029C177.909 92.5556 177.811 93.1282 177.811 93.49V94.7758C177.811 95.1411 177.853 95.5311 177.909 95.6505C177.962 95.7665 178.538 95.8613 178.9 95.8613H180.783C181.148 95.8613 181.52 96.1494 181.612 96.5007L184.243 106.534C184.334 106.885 184.461 107.243 184.52 107.331C184.58 107.415 185.121 107.486 185.483 107.486H187.243C187.608 107.486 187.988 107.458 188.086 107.423C188.184 107.387 188.395 106.882 188.483 106.53L191.054 96.5042C191.146 96.1529 191.518 95.8648 191.88 95.8648H193.844C194.209 95.8648 194.578 96.1529 194.669 96.5042L197.237 106.53C197.329 106.882 197.452 107.243 197.508 107.328C197.568 107.416 198.112 107.486 198.474 107.486H200.237C200.603 107.486 200.979 107.458 201.081 107.426C201.179 107.391 201.39 106.889 201.481 106.537L204.14 96.5042C204.235 96.1529 204.608 95.8648 204.973 95.8648H206.852C207.218 95.8648 207.611 95.8227 207.731 95.77C207.85 95.7173 207.945 95.1447 207.945 94.7793V93.4936C207.948 93.1352 207.854 92.5626 207.734 92.5099ZM200.009 95.8718C200.374 95.8718 200.596 96.1599 200.504 96.5112L199.524 100.326C199.433 100.678 199.285 100.678 199.198 100.326L198.224 96.5112C198.133 96.1599 198.358 95.8683 198.723 95.8683H200.009V95.8718ZM193.436 91.7722C193.524 92.1235 193.299 92.4151 192.937 92.4151H192.793C192.428 92.4151 192.207 92.127 192.298 91.7757L192.709 90.1878C192.8 89.8365 192.948 89.8365 193.036 90.1878L193.436 91.7722ZM187.008 95.8718C187.373 95.8718 187.594 96.1599 187.506 96.5112L186.53 100.326C186.438 100.678 186.291 100.678 186.2 100.326L185.219 96.5112C185.128 96.1599 185.353 95.8718 185.718 95.8718H187.008Z" fill="#123040"/>
<path d="M243.861 145.276C243.861 145.276 243.179 145.023 242.684 143.225C242.189 141.426 242.076 135.573 242.006 131.952C241.939 128.488 239.663 127.012 237.393 126.851C235.124 126.689 232.978 127.676 232.749 130.877C232.521 134.077 232.848 142.195 232.479 146.32C232.138 150.135 233.153 155.344 231.713 158.078" fill="#FFBE94"/>
<path d="M253.743 143.994C252.303 142.853 251.836 141.578 251.355 138.686C250.979 136.428 250.694 132.763 249.001 130.8C247.223 128.741 242.948 129.026 241.768 130.259C241.768 130.259 241.982 138.233 242.432 143.952" fill="#FFBE94"/>
<path d="M261.613 143.725C260.103 143.065 258.462 138.617 257.215 136.253C255.796 133.559 252.033 133.495 250.586 134.423C250.586 134.423 251.91 142.295 251.91 142.9" fill="#FFBE94"/>
<path d="M232.57 144.906C231.387 141.225 229.065 136.416 226.324 135.084C224.213 134.058 221.891 134.666 221.74 136.802C221.589 138.934 222.748 140.347 223.511 142.465C224.382 144.878 224.248 146.329 225.088 148.802C225.773 150.822 226.184 152.164 226.546 156.274C226.774 158.885 225.91 161.797 228.443 165.092C230.976 168.384 235.441 176.035 238.283 179.144C239.287 180.24 240.204 183.574 241.033 184.645H271.034C270.599 181.564 270.353 175.241 270.43 172.926C270.556 169.199 270.96 157.469 271.463 153.352C271.965 149.238 270.894 148.226 269.928 147.225C268.961 146.224 267.774 144.776 265.723 141.425C263.457 137.722 259.919 137.691 258.324 138.147" fill="#FFBE94"/>
<path d="M243.665 145.806C243.441 145.722 242.671 145.304 242.141 143.375C241.631 141.52 241.519 135.808 241.442 132.028V131.962C241.431 131.41 241.315 130.774 241.217 130.398L242.309 130.117C242.425 130.574 242.555 131.291 242.569 131.94V132.007C242.64 135.503 242.755 141.355 243.226 143.077C243.613 144.482 244.087 144.763 244.094 144.766C244.069 144.752 244.055 144.749 244.055 144.749L243.665 145.806Z" fill="#EDA983"/>
<path d="M253.392 144.436C251.762 143.146 251.273 141.65 250.796 138.78C250.739 138.432 250.676 138.018 250.609 137.568C250.469 136.602 250.307 135.509 250.104 134.578L251.207 134.336C251.417 135.302 251.582 136.419 251.727 137.403C251.79 137.845 251.849 138.253 251.909 138.59C252.401 141.545 252.851 142.563 254.091 143.547L253.392 144.436Z" fill="#EDA983"/>
<path d="M261.387 144.242C260.255 143.747 259.166 141.783 257.67 138.554L258.692 138.08C259.402 139.608 260.877 142.787 261.84 143.209L261.387 144.242Z" fill="#EDA983"/>
<path d="M232.213 158.336L231.215 157.809C232.072 156.179 231.984 153.424 231.896 150.758C231.847 149.233 231.794 147.656 231.917 146.265C231.942 146.005 231.963 145.594 231.981 145.232L231.998 144.898L233.126 144.958L233.108 145.288C233.091 145.661 233.07 146.082 233.042 146.363C232.922 147.684 232.975 149.226 233.024 150.719C233.112 153.537 233.21 156.442 232.213 158.336Z" fill="#EDA983"/>
<path d="M112.725 68.0898C112.725 69.5337 111.551 70.707 110.107 70.707C108.66 70.707 107.49 69.5372 107.49 68.0898C107.49 66.6425 108.664 65.4727 110.107 65.4727C111.551 65.4727 112.725 66.6425 112.725 68.0898Z" fill="#123040"/>
<path d="M171.34 53.8301C171.34 55.2739 170.166 56.4472 168.723 56.4472C167.275 56.4472 166.105 55.2739 166.105 53.8301C166.105 52.3827 167.279 51.2129 168.723 51.2129C170.17 51.2094 171.34 52.3827 171.34 53.8301Z" fill="#123040"/>
<path d="M38.7132 22.4922H26.6953V23.4372H38.7132V22.4922Z" fill="#3D4553"/>
<path d="M38.7132 26.168H26.6953V27.113H38.7132V26.168Z" fill="#3D4553"/>
<path d="M38.7132 29.8457H26.6953V30.7907H38.7132V29.8457Z" fill="#3D4553"/>
<path d="M24.7174 22.293H23.3789V23.6314H24.7174V22.293Z" fill="#3D4553"/>
<path d="M24.7174 25.9707H23.3789V27.3091H24.7174V25.9707Z" fill="#3D4553"/>
<path d="M24.7174 29.6484H23.3789V30.9869H24.7174V29.6484Z" fill="#3D4553"/>
<defs>
<linearGradient id="paint0_linear_794_9021" x1="245.077" y1="153.464" x2="212.252" y2="116.772" gradientUnits="userSpaceOnUse">
<stop stop-color="#C2D6E6"/>
<stop offset="1" stop-color="#B6CCDE"/>
</linearGradient>
</defs>
</svg>
