<svg width="742" height="271" viewBox="0 0 742 271" fill="none" xmlns="http://www.w3.org/2000/svg">
<path d="M42.8925 7.33078C42.8925 9.77078 41.3925 11.5308 38.1925 13.2508C36.4725 14.1708 35.4325 14.9308 34.9525 15.6508H42.8925C43.2925 15.6508 43.5125 15.8708 43.5125 16.2708V17.8308C43.5125 18.2308 43.2925 18.4508 42.8925 18.4508H32.4725C31.7125 18.4508 31.3325 18.0508 31.3325 17.2908C31.3325 14.7308 32.7325 13.0708 36.3925 11.0708C38.9925 9.65078 39.9925 8.77078 39.9925 7.47078C39.9925 6.15078 38.9125 5.33078 37.2525 5.33078C35.5925 5.33078 34.5125 6.15078 34.5125 7.47078C34.5125 7.89078 34.2725 8.13078 33.8525 8.13078H32.2725C31.8525 8.13078 31.6125 7.89078 31.6125 7.47078C31.6125 4.29078 33.6525 2.53078 37.2525 2.53078C40.8125 2.53078 42.8925 4.27078 42.8925 7.33078ZM44.9258 10.5908C44.9258 5.17078 47.0858 2.53078 51.2058 2.53078C55.3258 2.53078 57.4858 5.17078 57.4858 10.5908C57.4858 16.0108 55.3258 18.6508 51.2058 18.6508C47.0858 18.6508 44.9258 16.0108 44.9258 10.5908ZM47.7858 10.5908C47.7858 14.1908 48.9058 15.8908 51.2058 15.8908C53.5058 15.8908 54.6258 14.1908 54.6258 10.5908C54.6258 6.99078 53.5058 5.29078 51.2058 5.29078C48.9058 5.29078 47.7858 6.99078 47.7858 10.5908ZM59.4766 18.3508C59.4766 17.3108 60.1566 16.6308 61.1766 16.6308C62.2166 16.6308 62.8966 17.3108 62.8966 18.3508C62.8966 19.3708 62.2166 20.0508 61.1766 20.0508C60.1566 20.0508 59.4766 19.3708 59.4766 18.3508ZM65.0263 12.3708L71.7263 3.43078C72.0463 2.99078 72.5063 2.73078 73.0463 2.73078H74.5263C75.2863 2.73078 75.6662 3.13078 75.6662 3.89078V12.5108H77.1663C77.5663 12.5108 77.7863 12.7308 77.7863 13.1308V14.6908C77.7863 15.0908 77.5663 15.3108 77.1663 15.3108H75.6662V17.7908C75.6662 18.2108 75.4263 18.4508 75.0063 18.4508H73.4263C73.0063 18.4508 72.7663 18.2108 72.7663 17.7908V15.3108H65.8863C65.1063 15.3108 64.7063 14.9308 64.7063 14.1708V13.2908C64.7063 12.9908 64.7863 12.6908 65.0263 12.3708ZM68.2463 12.5708H72.7663V6.55078L68.2463 12.5708ZM84.4083 17.9508C84.2483 18.3308 84.0483 18.4508 83.5883 18.4508H81.8683C81.4483 18.4508 81.2083 18.1708 81.3683 17.8108L86.4883 5.53078H79.2083C78.8083 5.53078 78.5883 5.31078 78.5883 4.91078V3.35078C78.5883 2.95078 78.8083 2.73078 79.2083 2.73078H88.5083C89.2883 2.73078 89.6883 3.11078 89.6883 3.87078V4.77078C89.6883 5.15078 89.5883 5.53078 89.4483 5.87078L84.4083 17.9508ZM91.293 6.87078C91.293 4.01078 92.513 2.51078 94.853 2.51078C97.193 2.51078 98.413 4.01078 98.413 6.87078C98.413 9.75078 97.193 11.2708 94.853 11.2708C92.533 11.2708 91.293 9.75078 91.293 6.87078ZM102.853 2.81078C103.033 2.49078 103.333 2.33078 103.753 2.33078H105.633C106.033 2.33078 106.233 2.61078 106.033 2.95078L97.133 18.3708C96.953 18.6908 96.653 18.8508 96.233 18.8508H94.353C93.953 18.8508 93.753 18.5708 93.953 18.2308L102.853 2.81078ZM108.693 14.3108C108.693 17.1708 107.473 18.6708 105.133 18.6708C102.793 18.6708 101.573 17.1708 101.573 14.3108C101.573 11.4308 102.793 9.91078 105.133 9.91078C107.453 9.91078 108.693 11.4308 108.693 14.3108ZM106.193 14.3108C106.193 13.1308 105.873 12.6308 105.133 12.6308C104.393 12.6308 104.073 13.1308 104.073 14.3108C104.073 15.4708 104.393 15.9708 105.133 15.9708C105.853 15.9708 106.193 15.4508 106.193 14.3108ZM93.793 6.87078C93.793 8.05078 94.113 8.55078 94.853 8.55078C95.593 8.55078 95.913 8.05078 95.913 6.87078C95.913 5.71078 95.593 5.21078 94.853 5.21078C94.133 5.21078 93.793 5.73078 93.793 6.87078Z" fill="#FF9EB1"/>
<path d="M52.5 51.5508C52.5 41.8858 60.335 34.0508 70 34.0508C79.665 34.0508 87.5 41.8858 87.5 51.5508V237.051H52.5V51.5508Z" fill="#FF9EB1"/>
<path d="M55.7335 253.915V267.291C55.7335 267.563 55.6055 267.691 55.3335 267.691H54.3735C54.1015 267.691 53.9735 267.563 53.9735 267.291V260.875H53.0135C52.6455 260.875 52.5335 260.987 52.5335 261.307V267.291C52.5335 267.563 52.4055 267.691 52.1335 267.691H51.1735C50.9015 267.691 50.7735 267.563 50.7735 267.291V254.075C50.7735 253.803 50.9015 253.675 51.1735 253.675H52.1335C52.4055 253.675 52.5335 253.803 52.5335 254.075V259.403C52.6455 259.227 52.8535 259.115 53.0775 259.115H53.9735V253.915C53.9735 253.643 54.1015 253.515 54.3735 253.515H55.3335C55.6055 253.515 55.7335 253.643 55.7335 253.915ZM49.2055 261.563C49.2055 264.107 48.1335 265.515 46.1815 265.515C44.2455 265.515 43.1735 264.107 43.1735 261.563C43.1735 259.035 44.2455 257.627 46.1815 257.627C48.1335 257.627 49.2055 259.019 49.2055 261.563ZM47.4135 254.843H49.2855C49.5575 254.843 49.6855 254.971 49.6855 255.243V256.203C49.6855 256.475 49.5575 256.603 49.2855 256.603H43.0935C42.8215 256.603 42.6935 256.475 42.6935 256.203V255.243C42.6935 254.971 42.8215 254.843 43.0935 254.843H45.5575C45.4135 254.763 45.3175 254.619 45.3175 254.411V253.531C45.3175 253.259 45.4455 253.131 45.7175 253.131H46.6775C46.9495 253.131 47.0775 253.259 47.0775 253.531V254.555C47.0775 254.763 47.1735 254.843 47.4135 254.843ZM46.1815 259.387C45.3335 259.387 44.9335 260.091 44.9335 261.563C44.9335 263.019 45.3495 263.755 46.1815 263.755C47.0295 263.755 47.4455 263.035 47.4455 261.563C47.4455 260.107 47.0295 259.387 46.1815 259.387ZM58.1341 258.347C58.1341 255.707 59.5261 254.043 61.7341 254.043C63.9421 254.043 65.3341 255.707 65.3341 258.347C65.3341 260.619 64.2941 262.171 62.6141 262.571V264.507C62.6141 264.859 62.7901 265.003 63.1741 265.003C64.2301 265.003 65.1421 264.923 65.7501 264.811C66.0221 264.763 66.1661 264.891 66.1661 265.163V266.075C66.1661 266.347 66.0541 266.459 65.7661 266.507C64.6941 266.667 63.1741 266.731 61.6701 266.731C60.1181 266.731 58.9181 266.651 57.8461 266.491C57.5581 266.443 57.4461 266.331 57.4461 266.075V265.131C57.4461 264.859 57.6061 264.747 57.8781 264.795C58.7101 264.923 60.0061 265.019 61.1741 265.051C60.9341 264.939 60.7741 264.683 60.7741 264.363V262.555C59.1421 262.123 58.1341 260.571 58.1341 258.347ZM68.9821 267.259C68.9821 267.531 68.8221 267.691 68.5661 267.691H67.5581C67.3021 267.691 67.1421 267.531 67.1421 267.259V253.947C67.1421 253.675 67.3021 253.515 67.5581 253.515H68.5661C68.8221 253.515 68.9821 253.675 68.9821 253.947V267.259ZM61.7341 260.955C62.8221 260.955 63.4941 259.899 63.4941 258.347C63.4941 256.795 62.8221 255.755 61.7341 255.755C60.6461 255.755 59.9741 256.795 59.9741 258.347C59.9741 259.899 60.6461 260.955 61.7341 260.955ZM81.6874 253.883C81.9594 253.883 82.0874 254.011 82.0874 254.283V255.243C82.0874 255.515 81.9594 255.643 81.6874 255.643H78.3114C78.3434 257.467 79.7994 258.795 81.9274 258.795C82.2154 258.795 82.3274 258.907 82.3274 259.163V260.155C82.3274 260.555 82.0714 260.555 81.7514 260.555C79.8634 260.555 78.0714 259.515 77.3994 257.979C76.7114 259.515 74.9194 260.555 73.0314 260.555C72.7114 260.555 72.4554 260.555 72.4554 260.155V259.163C72.4554 258.907 72.5674 258.795 72.8554 258.795C74.9834 258.795 76.4394 257.467 76.4714 255.643H73.0954C72.8234 255.643 72.6954 255.515 72.6954 255.243V254.283C72.6954 254.011 72.8234 253.883 73.0954 253.883H81.6874ZM78.8074 263.787C78.4234 263.787 78.2474 263.931 78.2474 264.283V266.699C78.2474 266.971 78.0874 267.131 77.8314 267.131H76.8234C76.5674 267.131 76.4074 266.971 76.4074 266.699V264.491C76.4074 264.171 76.5674 263.899 76.8234 263.803C75.0474 263.787 72.8554 263.675 71.6874 263.531C71.3994 263.499 71.2874 263.339 71.2874 263.083V262.203C71.2874 261.931 71.4474 261.803 71.7194 261.835C73.2394 262.011 75.0794 262.107 77.3034 262.107C79.5914 262.107 81.6874 262.011 82.9354 261.851C83.2074 261.819 83.3674 261.947 83.3674 262.219V263.099C83.3674 263.371 83.2554 263.499 82.9674 263.547C81.8794 263.691 80.1834 263.787 78.8074 263.787ZM96.0573 267.355C96.0253 267.627 95.8653 267.771 95.5933 267.771H94.6333C94.3613 267.771 94.1853 267.595 94.2173 267.339C94.2812 266.795 94.2973 265.915 94.2973 265.291C94.2973 264.267 93.9613 263.963 92.8253 263.963C90.5373 263.963 88.6013 264.059 86.6332 264.235C86.3613 264.267 86.2333 264.123 86.2333 263.851V262.971C86.2333 262.715 86.3453 262.587 86.6332 262.555C88.3293 262.379 90.4573 262.283 93.0173 262.283C95.2253 262.283 96.1373 263.019 96.1373 264.827C96.1373 265.899 96.1213 266.795 96.0573 267.355ZM89.6093 254.315V256.219C89.6093 257.995 90.6333 259.355 92.0413 259.355C92.3133 259.355 92.4413 259.483 92.4413 259.755V260.635C92.4413 260.907 92.3133 261.035 92.0413 261.035C90.3773 261.035 89.1293 259.931 88.6973 258.667C88.2493 259.931 87.0173 261.035 85.3372 261.035C85.0653 261.035 84.9373 260.907 84.9373 260.635V259.755C84.9373 259.483 85.0653 259.355 85.3372 259.355C86.7453 259.355 87.7693 257.995 87.7693 256.219V254.315C87.7693 254.043 87.9293 253.883 88.1853 253.883H89.1933C89.4493 253.883 89.6093 254.043 89.6093 254.315ZM94.3453 253.947C94.3453 253.675 94.5053 253.515 94.7613 253.515H95.7693C96.0253 253.515 96.1853 253.675 96.1853 253.947V260.699C96.1853 260.971 96.0253 261.131 95.7693 261.131H94.7613C94.5053 261.131 94.3453 260.971 94.3453 260.699V253.947Z" fill="black"/>
<path d="M192.818 126.731C190.378 126.731 189.198 127.411 189.198 128.811C189.198 130.231 190.418 130.951 192.818 130.951C195.218 130.951 196.438 130.231 196.438 128.811C196.438 127.411 195.258 126.731 192.818 126.731ZM192.818 120.271C190.878 120.271 189.778 120.951 189.778 122.171C189.778 123.351 190.878 124.031 192.818 124.031C194.758 124.031 195.858 123.351 195.858 122.171C195.858 120.951 194.758 120.271 192.818 120.271ZM192.818 133.671C188.618 133.671 186.338 132.031 186.338 129.011C186.338 127.171 187.458 125.671 189.118 125.171C187.798 124.671 186.918 123.331 186.918 121.631C186.918 119.171 189.258 117.551 192.818 117.551C196.378 117.551 198.718 119.171 198.718 121.631C198.718 123.331 197.838 124.671 196.518 125.171C198.178 125.671 199.298 127.171 199.298 129.011C199.298 132.031 197.018 133.671 192.818 133.671ZM201.203 133.351C201.203 132.311 201.883 131.631 202.903 131.631C203.943 131.631 204.623 132.311 204.623 133.351C204.623 134.371 203.943 135.051 202.903 135.051C201.883 135.051 201.203 134.371 201.203 133.351ZM213.273 120.291C210.953 120.291 209.853 121.491 209.593 124.411C210.713 123.591 212.193 123.131 213.693 123.131C217.053 123.131 219.233 125.131 219.253 128.231C219.273 131.471 216.833 133.631 213.113 133.651C208.693 133.671 206.633 131.191 206.633 125.831C206.633 120.331 208.893 117.531 213.293 117.531C216.313 117.531 218.413 119.031 218.653 121.331C218.693 121.731 218.473 121.971 218.033 121.971H216.593C216.133 121.971 215.873 121.831 215.753 121.491C215.453 120.671 214.653 120.291 213.273 120.291ZM209.573 127.011C209.773 129.811 210.833 130.911 213.213 130.911C215.133 130.911 216.353 129.891 216.353 128.311C216.353 126.771 215.053 125.811 213.013 125.811C211.733 125.811 210.333 126.311 209.573 127.011ZM224.661 132.851V121.211L221.801 122.771C221.701 122.831 221.581 122.851 221.501 122.851C221.261 122.851 221.081 122.651 221.081 122.351V120.511C221.081 120.111 221.241 119.931 221.601 119.731L224.601 118.031C224.981 117.811 225.361 117.751 225.761 117.751H226.901C227.321 117.751 227.561 117.991 227.561 118.411V132.851C227.561 133.271 227.321 133.511 226.901 133.511H225.321C224.901 133.511 224.661 133.271 224.661 132.851ZM230.168 121.871C230.168 119.011 231.388 117.511 233.728 117.511C236.068 117.511 237.288 119.011 237.288 121.871C237.288 124.751 236.068 126.271 233.728 126.271C231.408 126.271 230.168 124.751 230.168 121.871ZM241.728 117.811C241.908 117.491 242.208 117.331 242.628 117.331H244.508C244.908 117.331 245.108 117.611 244.908 117.951L236.008 133.371C235.828 133.691 235.528 133.851 235.108 133.851H233.228C232.828 133.851 232.628 133.571 232.828 133.231L241.728 117.811ZM247.568 129.311C247.568 132.171 246.348 133.671 244.008 133.671C241.668 133.671 240.448 132.171 240.448 129.311C240.448 126.431 241.668 124.911 244.008 124.911C246.328 124.911 247.568 126.431 247.568 129.311ZM245.068 129.311C245.068 128.131 244.748 127.631 244.008 127.631C243.268 127.631 242.948 128.131 242.948 129.311C242.948 130.471 243.268 130.971 244.008 130.971C244.728 130.971 245.068 130.451 245.068 129.311ZM232.668 121.871C232.668 123.051 232.988 123.551 233.728 123.551C234.468 123.551 234.788 123.051 234.788 121.871C234.788 120.711 234.468 120.211 233.728 120.211C233.008 120.211 232.668 120.731 232.668 121.871Z" fill="#E2791C"/>
<path d="M199.5 166.551C199.5 156.886 207.335 149.051 217 149.051C226.665 149.051 234.5 156.886 234.5 166.551V237.051H199.5V166.551Z" fill="#E2791C"/>
<path d="M199.117 257.195C199.117 256.043 198.573 255.547 197.325 255.547C195.277 255.547 193.757 255.627 191.773 255.835C191.517 255.867 191.373 255.739 191.373 255.451V254.555C191.373 254.299 191.485 254.171 191.773 254.139C193.501 253.963 195.469 253.867 197.517 253.867C199.821 253.867 200.957 254.811 200.957 256.731C200.957 257.691 200.845 258.603 200.669 259.291C201.069 259.275 201.405 259.243 201.693 259.211C201.965 259.179 202.125 259.323 202.125 259.595V260.459C202.125 260.731 202.013 260.859 201.725 260.891C200.557 261.003 198.653 261.035 197.405 261.035C197.133 261.035 197.005 261.179 197.005 261.435V262.507C197.373 262.507 197.741 262.507 198.141 262.507C200.397 262.507 201.197 263.163 201.197 265.035C201.197 266.091 201.165 266.859 201.101 267.355C201.069 267.627 200.909 267.771 200.637 267.771H199.693C199.421 267.771 199.245 267.595 199.277 267.339C199.341 266.875 199.357 266.091 199.357 265.499C199.357 264.475 198.973 264.187 198.013 264.187C195.917 264.187 193.741 264.283 191.533 264.475C191.261 264.491 191.133 264.363 191.133 264.091V263.211C191.133 262.955 191.245 262.827 191.533 262.795C192.797 262.683 193.917 262.603 195.165 262.555V261.435C195.165 261.259 195.229 261.115 195.357 261.035C193.757 261.019 191.661 260.971 190.445 260.875C190.173 260.859 190.045 260.715 190.045 260.443V259.579C190.045 259.307 190.205 259.179 190.477 259.195C191.485 259.275 193.133 259.339 196.061 259.355C196.989 259.355 197.901 259.355 198.749 259.355C198.749 259.323 198.765 259.307 198.765 259.275C198.989 258.555 199.117 257.739 199.117 257.195ZM216.335 253.915V267.291C216.335 267.563 216.207 267.691 215.935 267.691H214.975C214.703 267.691 214.575 267.563 214.575 267.291V260.875H213.615C213.247 260.875 213.135 260.987 213.135 261.307V267.291C213.135 267.563 213.007 267.691 212.735 267.691H211.775C211.503 267.691 211.375 267.563 211.375 267.291V254.075C211.375 253.803 211.503 253.675 211.775 253.675H212.735C213.007 253.675 213.135 253.803 213.135 254.075V259.403C213.247 259.227 213.455 259.115 213.679 259.115H214.575V253.915C214.575 253.643 214.703 253.515 214.975 253.515H215.935C216.207 253.515 216.335 253.643 216.335 253.915ZM209.855 265.131C208.927 265.515 208.191 265.691 207.439 265.691C204.991 265.691 203.775 264.363 203.775 261.643C203.775 259.131 203.903 256.603 204.127 254.875C204.159 254.619 204.319 254.523 204.591 254.523H205.519C205.823 254.523 205.935 254.683 205.903 254.955C205.663 256.763 205.535 259.035 205.535 261.803C205.535 263.355 206.047 263.915 207.471 263.915C208.127 263.915 208.783 263.739 209.471 263.403C209.519 263.387 209.567 263.371 209.615 263.371C209.743 263.371 209.839 263.483 209.919 263.707L210.191 264.619C210.255 264.843 210.159 265.003 209.855 265.131ZM229.008 253.883C229.28 253.883 229.408 254.011 229.408 254.283V255.243C229.408 255.515 229.28 255.643 229.008 255.643H225.632C225.664 257.467 227.12 258.795 229.248 258.795C229.536 258.795 229.648 258.907 229.648 259.163V260.155C229.648 260.555 229.392 260.555 229.072 260.555C227.184 260.555 225.392 259.515 224.72 257.979C224.032 259.515 222.24 260.555 220.352 260.555C220.032 260.555 219.776 260.555 219.776 260.155V259.163C219.776 258.907 219.888 258.795 220.176 258.795C222.304 258.795 223.76 257.467 223.792 255.643H220.416C220.144 255.643 220.016 255.515 220.016 255.243V254.283C220.016 254.011 220.144 253.883 220.416 253.883H229.008ZM226.128 263.787C225.744 263.787 225.568 263.931 225.568 264.283V266.699C225.568 266.971 225.408 267.131 225.152 267.131H224.144C223.888 267.131 223.728 266.971 223.728 266.699V264.491C223.728 264.171 223.888 263.899 224.144 263.803C222.368 263.787 220.176 263.675 219.008 263.531C218.72 263.499 218.608 263.339 218.608 263.083V262.203C218.608 261.931 218.768 261.803 219.04 261.835C220.56 262.011 222.4 262.107 224.624 262.107C226.912 262.107 229.008 262.011 230.256 261.851C230.528 261.819 230.688 261.947 230.688 262.219V263.099C230.688 263.371 230.576 263.499 230.288 263.547C229.2 263.691 227.504 263.787 226.128 263.787ZM243.378 267.355C243.346 267.627 243.186 267.771 242.914 267.771H241.954C241.682 267.771 241.506 267.595 241.538 267.339C241.602 266.795 241.618 265.915 241.618 265.291C241.618 264.267 241.282 263.963 240.146 263.963C237.858 263.963 235.922 264.059 233.954 264.235C233.682 264.267 233.554 264.123 233.554 263.851V262.971C233.554 262.715 233.666 262.587 233.954 262.555C235.65 262.379 237.778 262.283 240.338 262.283C242.546 262.283 243.458 263.019 243.458 264.827C243.458 265.899 243.442 266.795 243.378 267.355ZM236.93 254.315V256.219C236.93 257.995 237.954 259.355 239.362 259.355C239.634 259.355 239.762 259.483 239.762 259.755V260.635C239.762 260.907 239.634 261.035 239.362 261.035C237.698 261.035 236.45 259.931 236.018 258.667C235.57 259.931 234.338 261.035 232.658 261.035C232.386 261.035 232.258 260.907 232.258 260.635V259.755C232.258 259.483 232.386 259.355 232.658 259.355C234.066 259.355 235.09 257.995 235.09 256.219V254.315C235.09 254.043 235.25 253.883 235.506 253.883H236.514C236.77 253.883 236.93 254.043 236.93 254.315ZM241.666 253.947C241.666 253.675 241.826 253.515 242.082 253.515H243.09C243.346 253.515 243.506 253.675 243.506 253.947V260.699C243.506 260.971 243.346 261.131 243.09 261.131H242.082C241.826 261.131 241.666 260.971 241.666 260.699V253.947Z" fill="black"/>
<path d="M337.637 141.951C337.477 142.331 337.277 142.451 336.817 142.451H335.097C334.677 142.451 334.437 142.171 334.597 141.811L339.717 129.531H332.437C332.037 129.531 331.817 129.311 331.817 128.911V127.351C331.817 126.951 332.037 126.731 332.437 126.731H341.737C342.517 126.731 342.917 127.111 342.917 127.871V128.771C342.917 129.151 342.817 129.531 342.677 129.871L337.637 141.951ZM344.521 142.351C344.521 141.311 345.201 140.631 346.221 140.631C347.261 140.631 347.941 141.311 347.941 142.351C347.941 143.371 347.261 144.051 346.221 144.051C345.201 144.051 344.521 143.371 344.521 142.351ZM349.971 131.971C349.951 128.731 352.291 126.571 356.111 126.551C360.431 126.531 362.591 128.991 362.591 134.371C362.591 139.871 360.631 142.671 356.031 142.671C353.011 142.671 350.791 141.171 350.571 138.871C350.531 138.471 350.751 138.231 351.191 138.231H352.631C353.091 138.231 353.351 138.371 353.471 138.711C353.771 139.511 354.651 139.911 356.051 139.911C358.551 139.911 359.451 138.731 359.651 135.771C358.511 136.591 357.051 137.071 355.531 137.071C352.171 137.071 349.991 135.071 349.971 131.971ZM359.651 133.191C359.431 130.391 358.291 129.291 356.011 129.291C353.991 129.291 352.871 130.311 352.871 131.891C352.871 133.431 354.171 134.391 356.211 134.391C357.491 134.391 358.871 133.911 359.651 133.191ZM365.184 127.871C365.224 127.151 365.744 126.731 366.564 126.731H374.544C374.944 126.731 375.164 126.951 375.164 127.351V128.911C375.164 129.311 374.944 129.531 374.544 129.531H367.944L367.664 133.191C368.464 132.451 369.744 132.011 371.164 132.011C374.404 132.011 376.384 133.991 376.384 137.211C376.384 140.711 374.244 142.651 370.384 142.651C366.584 142.651 364.404 141.131 364.404 138.491C364.404 138.091 364.664 137.851 365.104 137.851H366.604C367.024 137.851 367.204 138.011 367.304 138.431C367.564 139.491 368.404 139.891 370.384 139.891C372.484 139.891 373.484 139.051 373.484 137.291C373.484 135.731 372.344 134.751 370.564 134.751C369.344 134.751 368.364 135.051 367.684 135.611C367.444 135.811 367.284 135.871 366.964 135.871H365.264C364.864 135.871 364.644 135.691 364.664 135.351L365.184 127.871ZM378.389 130.871C378.389 128.011 379.609 126.511 381.949 126.511C384.289 126.511 385.509 128.011 385.509 130.871C385.509 133.751 384.289 135.271 381.949 135.271C379.629 135.271 378.389 133.751 378.389 130.871ZM389.949 126.811C390.129 126.491 390.429 126.331 390.849 126.331H392.729C393.129 126.331 393.329 126.611 393.129 126.951L384.229 142.371C384.049 142.691 383.749 142.851 383.329 142.851H381.449C381.049 142.851 380.849 142.571 381.049 142.231L389.949 126.811ZM395.789 138.311C395.789 141.171 394.569 142.671 392.229 142.671C389.889 142.671 388.669 141.171 388.669 138.311C388.669 135.431 389.889 133.911 392.229 133.911C394.549 133.911 395.789 135.431 395.789 138.311ZM393.289 138.311C393.289 137.131 392.969 136.631 392.229 136.631C391.489 136.631 391.169 137.131 391.169 138.311C391.169 139.471 391.489 139.971 392.229 139.971C392.949 139.971 393.289 139.451 393.289 138.311ZM380.889 130.871C380.889 132.051 381.209 132.551 381.949 132.551C382.689 132.551 383.009 132.051 383.009 130.871C383.009 129.711 382.689 129.211 381.949 129.211C381.229 129.211 380.889 129.731 380.889 130.871Z" fill="#5CA090"/>
<path d="M346.5 175.551C346.5 165.886 354.335 158.051 364 158.051C373.665 158.051 381.5 165.886 381.5 175.551V237.051H346.5V175.551Z" fill="#5CA090"/>
<path d="M349.374 253.915V267.291C349.374 267.563 349.246 267.691 348.974 267.691H348.014C347.742 267.691 347.614 267.563 347.614 267.291V260.875H346.654C346.286 260.875 346.174 260.987 346.174 261.307V267.291C346.174 267.563 346.046 267.691 345.774 267.691H344.814C344.542 267.691 344.414 267.563 344.414 267.291V254.075C344.414 253.803 344.542 253.675 344.814 253.675H345.774C346.046 253.675 346.174 253.803 346.174 254.075V259.403C346.286 259.227 346.494 259.115 346.718 259.115H347.614V253.915C347.614 253.643 347.742 253.515 348.014 253.515H348.974C349.246 253.515 349.374 253.643 349.374 253.915ZM342.846 261.563C342.846 264.107 341.774 265.515 339.822 265.515C337.886 265.515 336.814 264.107 336.814 261.563C336.814 259.035 337.886 257.627 339.822 257.627C341.774 257.627 342.846 259.019 342.846 261.563ZM341.054 254.843H342.926C343.198 254.843 343.326 254.971 343.326 255.243V256.203C343.326 256.475 343.198 256.603 342.926 256.603H336.734C336.462 256.603 336.334 256.475 336.334 256.203V255.243C336.334 254.971 336.462 254.843 336.734 254.843H339.198C339.054 254.763 338.958 254.619 338.958 254.411V253.531C338.958 253.259 339.086 253.131 339.358 253.131H340.318C340.59 253.131 340.718 253.259 340.718 253.531V254.555C340.718 254.763 340.814 254.843 341.054 254.843ZM339.822 259.387C338.974 259.387 338.574 260.091 338.574 261.563C338.574 263.019 338.99 263.755 339.822 263.755C340.67 263.755 341.086 263.035 341.086 261.563C341.086 260.107 340.67 259.387 339.822 259.387ZM351.775 258.347C351.775 255.707 353.167 254.043 355.375 254.043C357.583 254.043 358.975 255.707 358.975 258.347C358.975 260.619 357.935 262.171 356.255 262.571V264.507C356.255 264.859 356.431 265.003 356.815 265.003C357.871 265.003 358.783 264.923 359.391 264.811C359.663 264.763 359.807 264.891 359.807 265.163V266.075C359.807 266.347 359.695 266.459 359.407 266.507C358.335 266.667 356.815 266.731 355.311 266.731C353.759 266.731 352.559 266.651 351.487 266.491C351.199 266.443 351.087 266.331 351.087 266.075V265.131C351.087 264.859 351.247 264.747 351.519 264.795C352.351 264.923 353.647 265.019 354.815 265.051C354.575 264.939 354.415 264.683 354.415 264.363V262.555C352.783 262.123 351.775 260.571 351.775 258.347ZM362.623 267.259C362.623 267.531 362.463 267.691 362.207 267.691H361.199C360.943 267.691 360.783 267.531 360.783 267.259V253.947C360.783 253.675 360.943 253.515 361.199 253.515H362.207C362.463 253.515 362.623 253.675 362.623 253.947V267.259ZM355.375 260.955C356.463 260.955 357.135 259.899 357.135 258.347C357.135 256.795 356.463 255.755 355.375 255.755C354.287 255.755 353.615 256.795 353.615 258.347C353.615 259.899 354.287 260.955 355.375 260.955ZM377.296 253.915V267.291C377.296 267.563 377.168 267.691 376.896 267.691H375.936C375.664 267.691 375.536 267.563 375.536 267.291V260.875H374.576C374.208 260.875 374.096 260.987 374.096 261.307V267.291C374.096 267.563 373.968 267.691 373.696 267.691H372.736C372.464 267.691 372.336 267.563 372.336 267.291V254.075C372.336 253.803 372.464 253.675 372.736 253.675H373.696C373.968 253.675 374.096 253.803 374.096 254.075V259.403C374.208 259.227 374.416 259.115 374.64 259.115H375.536V253.915C375.536 253.643 375.664 253.515 375.936 253.515H376.896C377.168 253.515 377.296 253.643 377.296 253.915ZM368.752 253.531V254.555C368.752 254.763 368.848 254.843 369.088 254.843H370.752C371.024 254.843 371.152 254.971 371.152 255.243V256.203C371.152 256.475 371.024 256.603 370.752 256.603H368.736V260.539C368.736 262.475 369.6 263.595 370.832 263.755C371.104 263.787 371.232 263.883 371.232 264.155V265.115C371.232 265.403 371.104 265.547 370.832 265.515C369.44 265.339 368.304 264.491 367.856 263.131C367.408 264.491 366.288 265.339 364.896 265.515C364.624 265.547 364.496 265.403 364.496 265.115V264.155C364.496 263.883 364.624 263.787 364.896 263.755C366.128 263.595 366.976 262.475 366.976 260.539V256.603H364.976C364.704 256.603 364.576 256.475 364.576 256.203V255.243C364.576 254.971 364.704 254.843 364.976 254.843H367.232C367.088 254.763 366.992 254.619 366.992 254.411V253.531C366.992 253.259 367.12 253.131 367.392 253.131H368.352C368.624 253.131 368.752 253.259 368.752 253.531ZM383.649 255.627C382.353 255.627 381.281 255.723 380.257 255.915C380.001 255.963 379.857 255.819 379.857 255.531V254.555C379.857 254.315 379.953 254.203 380.257 254.139C381.073 253.963 382.353 253.867 383.841 253.867C385.905 253.867 386.881 254.843 386.881 256.667C386.881 257.387 386.769 258.603 386.561 259.483C386.897 259.467 387.217 259.451 387.473 259.435C387.745 259.419 387.889 259.515 387.889 259.787V260.699C387.889 260.971 387.777 261.115 387.489 261.131C386.881 261.179 385.889 261.211 384.785 261.211C384.497 261.211 384.337 261.339 384.337 261.595V263.579C384.337 263.851 384.177 264.011 383.921 264.011H382.913C382.657 264.011 382.497 263.851 382.497 263.579V261.675C382.497 261.451 382.593 261.307 382.753 261.243C381.537 261.211 379.969 261.179 379.249 261.115C378.961 261.099 378.849 260.955 378.849 260.699V259.755C378.849 259.483 379.009 259.403 379.281 259.419C380.321 259.499 381.681 259.547 383.233 259.547C383.697 259.547 384.193 259.547 384.673 259.531C384.673 259.499 384.673 259.467 384.689 259.419C384.913 258.651 385.041 257.531 385.041 256.971C385.041 256.171 384.561 255.627 383.649 255.627ZM388.705 253.947C388.705 253.675 388.865 253.515 389.121 253.515H390.129C390.385 253.515 390.545 253.675 390.545 253.947V264.539C390.545 264.811 390.385 264.971 390.129 264.971H389.121C388.865 264.971 388.705 264.811 388.705 264.539V263.995C388.593 264.203 388.369 264.315 388.049 264.315H386.065C385.793 264.315 385.665 264.187 385.665 263.915V263.067C385.665 262.795 385.793 262.667 386.065 262.667H388.145C388.529 262.667 388.705 262.507 388.705 262.155V253.947ZM380.225 263.339C380.273 263.067 380.433 262.923 380.705 262.923H381.681C381.953 262.923 382.113 263.099 382.065 263.355C382.001 263.691 381.953 264.395 381.953 264.955C381.953 265.835 382.433 266.251 383.473 266.251C386.465 266.251 388.609 266.155 390.497 265.979C390.753 265.947 390.897 266.075 390.913 266.363L390.977 267.243C390.993 267.483 390.865 267.611 390.593 267.643C389.009 267.803 386.321 267.931 383.521 267.931C381.345 267.931 380.113 266.875 380.113 265.035C380.113 264.395 380.161 263.659 380.225 263.339Z" fill="black"/>
<path d="M485.574 145.951C485.414 146.331 485.214 146.451 484.754 146.451H483.034C482.614 146.451 482.374 146.171 482.534 145.811L487.654 133.531H480.374C479.974 133.531 479.754 133.311 479.754 132.911V131.351C479.754 130.951 479.974 130.731 480.374 130.731H489.674C490.454 130.731 490.854 131.111 490.854 131.871V132.771C490.854 133.151 490.754 133.531 490.614 133.871L485.574 145.951ZM492.459 146.351C492.459 145.311 493.139 144.631 494.159 144.631C495.199 144.631 495.879 145.311 495.879 146.351C495.879 147.371 495.199 148.051 494.159 148.051C493.139 148.051 492.459 147.371 492.459 146.351ZM503.309 145.951C503.149 146.331 502.949 146.451 502.489 146.451H500.769C500.349 146.451 500.109 146.171 500.269 145.811L505.389 133.531H498.109C497.709 133.531 497.489 133.311 497.489 132.911V131.351C497.489 130.951 497.709 130.731 498.109 130.731H507.409C508.189 130.731 508.589 131.111 508.589 131.871V132.771C508.589 133.151 508.489 133.531 508.349 133.871L503.309 145.951ZM509.823 135.971C509.803 132.731 512.143 130.571 515.963 130.551C520.283 130.531 522.443 132.991 522.443 138.371C522.443 143.871 520.483 146.671 515.883 146.671C512.863 146.671 510.643 145.171 510.423 142.871C510.383 142.471 510.603 142.231 511.043 142.231H512.483C512.943 142.231 513.203 142.371 513.323 142.711C513.623 143.511 514.503 143.911 515.903 143.911C518.403 143.911 519.303 142.731 519.503 139.771C518.363 140.591 516.903 141.071 515.383 141.071C512.023 141.071 509.843 139.071 509.823 135.971ZM519.503 137.191C519.283 134.391 518.143 133.291 515.863 133.291C513.843 133.291 512.723 134.311 512.723 135.891C512.723 137.431 514.023 138.391 516.063 138.391C517.343 138.391 518.723 137.911 519.503 137.191ZM524.451 134.871C524.451 132.011 525.671 130.511 528.011 130.511C530.351 130.511 531.571 132.011 531.571 134.871C531.571 137.751 530.351 139.271 528.011 139.271C525.691 139.271 524.451 137.751 524.451 134.871ZM536.011 130.811C536.191 130.491 536.491 130.331 536.911 130.331H538.791C539.191 130.331 539.391 130.611 539.191 130.951L530.291 146.371C530.111 146.691 529.811 146.851 529.391 146.851H527.511C527.111 146.851 526.911 146.571 527.111 146.231L536.011 130.811ZM541.851 142.311C541.851 145.171 540.631 146.671 538.291 146.671C535.951 146.671 534.731 145.171 534.731 142.311C534.731 139.431 535.951 137.911 538.291 137.911C540.611 137.911 541.851 139.431 541.851 142.311ZM539.351 142.311C539.351 141.131 539.031 140.631 538.291 140.631C537.551 140.631 537.231 141.131 537.231 142.311C537.231 143.471 537.551 143.971 538.291 143.971C539.011 143.971 539.351 143.451 539.351 142.311ZM526.951 134.871C526.951 136.051 527.271 136.551 528.011 136.551C528.751 136.551 529.071 136.051 529.071 134.871C529.071 133.711 528.751 133.211 528.011 133.211C527.291 133.211 526.951 133.731 526.951 134.871Z" fill="#6464D8"/>
<path d="M493.5 179.551C493.5 169.886 501.335 162.051 511 162.051C520.665 162.051 528.5 169.886 528.5 179.551V237.051H493.5V179.551Z" fill="#6464D8"/>
<path d="M492.758 257.195C492.758 256.043 492.214 255.547 490.966 255.547C488.918 255.547 487.398 255.627 485.414 255.835C485.158 255.867 485.014 255.739 485.014 255.451V254.555C485.014 254.299 485.126 254.171 485.414 254.139C487.142 253.963 489.11 253.867 491.158 253.867C493.462 253.867 494.598 254.811 494.598 256.731C494.598 257.691 494.486 258.603 494.31 259.291C494.71 259.275 495.046 259.243 495.334 259.211C495.606 259.179 495.766 259.323 495.766 259.595V260.459C495.766 260.731 495.654 260.859 495.366 260.891C494.198 261.003 492.294 261.035 491.046 261.035C490.774 261.035 490.646 261.179 490.646 261.435V262.507C491.014 262.507 491.382 262.507 491.782 262.507C494.038 262.507 494.838 263.163 494.838 265.035C494.838 266.091 494.806 266.859 494.742 267.355C494.71 267.627 494.55 267.771 494.278 267.771H493.334C493.062 267.771 492.886 267.595 492.918 267.339C492.982 266.875 492.998 266.091 492.998 265.499C492.998 264.475 492.614 264.187 491.654 264.187C489.558 264.187 487.382 264.283 485.174 264.475C484.902 264.491 484.774 264.363 484.774 264.091V263.211C484.774 262.955 484.886 262.827 485.174 262.795C486.438 262.683 487.558 262.603 488.806 262.555V261.435C488.806 261.259 488.87 261.115 488.998 261.035C487.398 261.019 485.302 260.971 484.086 260.875C483.814 260.859 483.686 260.715 483.686 260.443V259.579C483.686 259.307 483.846 259.179 484.118 259.195C485.126 259.275 486.774 259.339 489.702 259.355C490.63 259.355 491.542 259.355 492.39 259.355C492.39 259.323 492.406 259.307 492.406 259.275C492.63 258.555 492.758 257.739 492.758 257.195ZM509.976 253.915V267.291C509.976 267.563 509.848 267.691 509.576 267.691H508.616C508.344 267.691 508.216 267.563 508.216 267.291V260.875H507.256C506.888 260.875 506.776 260.987 506.776 261.307V267.291C506.776 267.563 506.648 267.691 506.376 267.691H505.416C505.144 267.691 505.016 267.563 505.016 267.291V254.075C505.016 253.803 505.144 253.675 505.416 253.675H506.376C506.648 253.675 506.776 253.803 506.776 254.075V259.403C506.888 259.227 507.096 259.115 507.32 259.115H508.216V253.915C508.216 253.643 508.344 253.515 508.616 253.515H509.576C509.848 253.515 509.976 253.643 509.976 253.915ZM503.496 265.131C502.568 265.515 501.832 265.691 501.08 265.691C498.632 265.691 497.416 264.363 497.416 261.643C497.416 259.131 497.544 256.603 497.768 254.875C497.8 254.619 497.96 254.523 498.232 254.523H499.16C499.464 254.523 499.576 254.683 499.544 254.955C499.304 256.763 499.176 259.035 499.176 261.803C499.176 263.355 499.688 263.915 501.112 263.915C501.768 263.915 502.424 263.739 503.112 263.403C503.16 263.387 503.208 263.371 503.256 263.371C503.384 263.371 503.48 263.483 503.56 263.707L503.832 264.619C503.896 264.843 503.8 265.003 503.496 265.131ZM524.616 253.915V267.291C524.616 267.563 524.488 267.691 524.216 267.691H523.256C522.984 267.691 522.856 267.563 522.856 267.291V260.875H521.896C521.528 260.875 521.416 260.987 521.416 261.307V267.291C521.416 267.563 521.288 267.691 521.016 267.691H520.056C519.784 267.691 519.656 267.563 519.656 267.291V254.075C519.656 253.803 519.784 253.675 520.056 253.675H521.016C521.288 253.675 521.416 253.803 521.416 254.075V259.403C521.528 259.227 521.736 259.115 521.96 259.115H522.856V253.915C522.856 253.643 522.984 253.515 523.256 253.515H524.216C524.488 253.515 524.616 253.643 524.616 253.915ZM516.072 253.531V254.555C516.072 254.763 516.168 254.843 516.408 254.843H518.072C518.344 254.843 518.472 254.971 518.472 255.243V256.203C518.472 256.475 518.344 256.603 518.072 256.603H516.056V260.539C516.056 262.475 516.92 263.595 518.152 263.755C518.424 263.787 518.552 263.883 518.552 264.155V265.115C518.552 265.403 518.424 265.547 518.152 265.515C516.76 265.339 515.624 264.491 515.176 263.131C514.728 264.491 513.608 265.339 512.216 265.515C511.944 265.547 511.816 265.403 511.816 265.115V264.155C511.816 263.883 511.944 263.787 512.216 263.755C513.448 263.595 514.296 262.475 514.296 260.539V256.603H512.296C512.024 256.603 511.896 256.475 511.896 256.203V255.243C511.896 254.971 512.024 254.843 512.296 254.843H514.552C514.408 254.763 514.312 254.619 514.312 254.411V253.531C514.312 253.259 514.44 253.131 514.712 253.131H515.672C515.944 253.131 516.072 253.259 516.072 253.531ZM530.969 255.627C529.673 255.627 528.601 255.723 527.577 255.915C527.321 255.963 527.177 255.819 527.177 255.531V254.555C527.177 254.315 527.273 254.203 527.577 254.139C528.393 253.963 529.673 253.867 531.161 253.867C533.225 253.867 534.201 254.843 534.201 256.667C534.201 257.387 534.089 258.603 533.881 259.483C534.217 259.467 534.537 259.451 534.793 259.435C535.065 259.419 535.209 259.515 535.209 259.787V260.699C535.209 260.971 535.097 261.115 534.809 261.131C534.201 261.179 533.209 261.211 532.105 261.211C531.817 261.211 531.657 261.339 531.657 261.595V263.579C531.657 263.851 531.497 264.011 531.241 264.011H530.233C529.977 264.011 529.817 263.851 529.817 263.579V261.675C529.817 261.451 529.913 261.307 530.073 261.243C528.857 261.211 527.289 261.179 526.569 261.115C526.281 261.099 526.169 260.955 526.169 260.699V259.755C526.169 259.483 526.329 259.403 526.601 259.419C527.641 259.499 529.001 259.547 530.553 259.547C531.017 259.547 531.513 259.547 531.993 259.531C531.993 259.499 531.993 259.467 532.009 259.419C532.233 258.651 532.361 257.531 532.361 256.971C532.361 256.171 531.881 255.627 530.969 255.627ZM536.025 253.947C536.025 253.675 536.185 253.515 536.441 253.515H537.449C537.705 253.515 537.865 253.675 537.865 253.947V264.539C537.865 264.811 537.705 264.971 537.449 264.971H536.441C536.185 264.971 536.025 264.811 536.025 264.539V263.995C535.913 264.203 535.689 264.315 535.369 264.315H533.385C533.113 264.315 532.985 264.187 532.985 263.915V263.067C532.985 262.795 533.113 262.667 533.385 262.667H535.465C535.849 262.667 536.025 262.507 536.025 262.155V253.947ZM527.545 263.339C527.593 263.067 527.753 262.923 528.025 262.923H529.001C529.273 262.923 529.433 263.099 529.385 263.355C529.321 263.691 529.273 264.395 529.273 264.955C529.273 265.835 529.753 266.251 530.793 266.251C533.785 266.251 535.929 266.155 537.817 265.979C538.073 265.947 538.217 266.075 538.233 266.363L538.297 267.243C538.313 267.483 538.185 267.611 537.913 267.643C536.329 267.803 533.641 267.931 530.841 267.931C528.665 267.931 527.433 266.875 527.433 265.035C527.433 264.395 527.481 263.659 527.545 263.339Z" fill="black"/>
<path d="M630.876 200.851V189.211L628.016 190.771C627.916 190.831 627.796 190.851 627.716 190.851C627.476 190.851 627.296 190.651 627.296 190.351V188.511C627.296 188.111 627.456 187.931 627.816 187.731L630.816 186.031C631.196 185.811 631.576 185.751 631.976 185.751H633.116C633.536 185.751 633.776 185.991 633.776 186.411V200.851C633.776 201.271 633.536 201.511 633.116 201.511H631.536C631.116 201.511 630.876 201.271 630.876 200.851ZM636.383 201.351C636.383 200.311 637.063 199.631 638.083 199.631C639.123 199.631 639.803 200.311 639.803 201.351C639.803 202.371 639.123 203.051 638.083 203.051C637.063 203.051 636.383 202.371 636.383 201.351ZM648.453 188.291C646.133 188.291 645.033 189.491 644.773 192.411C645.893 191.591 647.373 191.131 648.873 191.131C652.233 191.131 654.413 193.131 654.433 196.231C654.453 199.471 652.013 201.631 648.293 201.651C643.873 201.671 641.813 199.191 641.813 193.831C641.813 188.331 644.073 185.531 648.473 185.531C651.493 185.531 653.593 187.031 653.833 189.331C653.873 189.731 653.653 189.971 653.213 189.971H651.773C651.313 189.971 651.053 189.831 650.933 189.491C650.633 188.671 649.833 188.291 648.453 188.291ZM644.753 195.011C644.953 197.811 646.013 198.911 648.393 198.911C650.313 198.911 651.533 197.891 651.533 196.311C651.533 194.771 650.233 193.811 648.193 193.811C646.913 193.811 645.513 194.311 644.753 195.011ZM663.101 188.291C660.781 188.291 659.681 189.491 659.421 192.411C660.541 191.591 662.021 191.131 663.521 191.131C666.881 191.131 669.061 193.131 669.081 196.231C669.101 199.471 666.661 201.631 662.941 201.651C658.521 201.671 656.461 199.191 656.461 193.831C656.461 188.331 658.721 185.531 663.121 185.531C666.141 185.531 668.241 187.031 668.481 189.331C668.521 189.731 668.301 189.971 667.861 189.971H666.421C665.961 189.971 665.701 189.831 665.581 189.491C665.281 188.671 664.481 188.291 663.101 188.291ZM659.401 195.011C659.601 197.811 660.661 198.911 663.041 198.911C664.961 198.911 666.181 197.891 666.181 196.311C666.181 194.771 664.881 193.811 662.841 193.811C661.561 193.811 660.161 194.311 659.401 195.011ZM671.109 189.871C671.109 187.011 672.329 185.511 674.669 185.511C677.009 185.511 678.229 187.011 678.229 189.871C678.229 192.751 677.009 194.271 674.669 194.271C672.349 194.271 671.109 192.751 671.109 189.871ZM682.669 185.811C682.849 185.491 683.149 185.331 683.569 185.331H685.449C685.849 185.331 686.049 185.611 685.849 185.951L676.949 201.371C676.769 201.691 676.469 201.851 676.049 201.851H674.169C673.769 201.851 673.569 201.571 673.769 201.231L682.669 185.811ZM688.509 197.311C688.509 200.171 687.289 201.671 684.949 201.671C682.609 201.671 681.389 200.171 681.389 197.311C681.389 194.431 682.609 192.911 684.949 192.911C687.269 192.911 688.509 194.431 688.509 197.311ZM686.009 197.311C686.009 196.131 685.689 195.631 684.949 195.631C684.209 195.631 683.889 196.131 683.889 197.311C683.889 198.471 684.209 198.971 684.949 198.971C685.669 198.971 686.009 198.451 686.009 197.311ZM673.609 189.871C673.609 191.051 673.929 191.551 674.669 191.551C675.409 191.551 675.729 191.051 675.729 189.871C675.729 188.711 675.409 188.211 674.669 188.211C673.949 188.211 673.609 188.731 673.609 189.871Z" fill="#9F9F9F"/>
<path d="M640.5 234.551C640.5 224.886 648.335 217.051 658 217.051C667.665 217.051 675.5 224.886 675.5 234.551V237.051H640.5V234.551Z" fill="#9F9F9F"/>
<path d="M642.734 253.915V267.291C642.734 267.563 642.606 267.691 642.334 267.691H641.374C641.102 267.691 640.974 267.563 640.974 267.291V260.875H640.014C639.646 260.875 639.534 260.987 639.534 261.307V267.291C639.534 267.563 639.406 267.691 639.134 267.691H638.174C637.902 267.691 637.774 267.563 637.774 267.291V254.075C637.774 253.803 637.902 253.675 638.174 253.675H639.134C639.406 253.675 639.534 253.803 639.534 254.075V259.403C639.646 259.227 639.854 259.115 640.078 259.115H640.974V253.915C640.974 253.643 641.102 253.515 641.374 253.515H642.334C642.606 253.515 642.734 253.643 642.734 253.915ZM631.854 260.107C631.854 262.651 632.622 263.915 634.141 263.915C634.75 263.915 635.358 263.787 636.046 263.499C636.11 263.467 636.174 263.467 636.222 263.467C636.382 263.467 636.494 263.563 636.526 263.739L636.734 264.699C636.782 264.955 636.702 265.083 636.43 265.195C635.678 265.499 634.878 265.675 634.03 265.675C631.438 265.675 630.094 263.787 630.094 260.107C630.094 256.299 631.39 254.523 634.174 254.523C634.894 254.523 635.342 254.555 635.822 254.651C636.158 254.715 636.238 254.795 636.238 255.067V256.027C636.238 256.331 636.078 256.475 635.822 256.427C635.294 256.331 634.894 256.283 634.302 256.283C632.51 256.283 631.854 257.307 631.854 260.107ZM648.83 253.531V254.555C648.83 254.763 648.926 254.843 649.166 254.843H650.83C651.102 254.843 651.23 254.971 651.23 255.243V256.203C651.23 256.475 651.102 256.603 650.83 256.603H648.814V260.539C648.814 262.475 649.678 263.595 650.91 263.755C651.182 263.787 651.31 263.883 651.31 264.155V265.115C651.31 265.403 651.182 265.547 650.91 265.515C649.518 265.339 648.382 264.491 647.934 263.131C647.486 264.491 646.366 265.339 644.974 265.515C644.702 265.547 644.574 265.403 644.574 265.115V264.155C644.574 263.883 644.702 263.787 644.974 263.755C646.206 263.595 647.054 262.475 647.054 260.539V256.603H645.054C644.782 256.603 644.654 256.475 644.654 256.203V255.243C644.654 254.971 644.782 254.843 645.054 254.843H647.31C647.166 254.763 647.07 254.619 647.07 254.411V253.531C647.07 253.259 647.198 253.131 647.47 253.131H648.43C648.702 253.131 648.83 253.259 648.83 253.531ZM650.878 259.211H652.334C652.702 259.211 652.814 259.099 652.814 258.779V254.075C652.814 253.803 652.942 253.675 653.214 253.675H654.174C654.446 253.675 654.574 253.803 654.574 254.075V267.291C654.574 267.563 654.446 267.691 654.174 267.691H653.214C652.942 267.691 652.814 267.563 652.814 267.291V260.683C652.718 260.859 652.494 260.971 652.27 260.971H650.878C650.606 260.971 650.478 260.843 650.478 260.571V259.611C650.478 259.339 650.606 259.211 650.878 259.211ZM657.374 253.915V267.291C657.374 267.563 657.246 267.691 656.974 267.691H656.014C655.742 267.691 655.614 267.563 655.614 267.291V253.915C655.614 253.643 655.742 253.515 656.014 253.515H656.974C657.246 253.515 657.374 253.643 657.374 253.915ZM667.167 263.947C666.783 263.947 666.607 264.091 666.607 264.443V266.859C666.607 267.131 666.447 267.291 666.191 267.291H665.183C664.927 267.291 664.767 267.131 664.767 266.859V264.651C664.767 264.331 664.927 264.059 665.183 263.963C663.407 263.947 661.215 263.835 660.047 263.691C659.759 263.659 659.647 263.499 659.647 263.243V262.363C659.647 262.091 659.807 261.963 660.079 261.995C661.599 262.171 663.439 262.267 665.663 262.267C667.951 262.267 670.047 262.171 671.295 262.011C671.567 261.979 671.727 262.107 671.727 262.379V263.259C671.727 263.531 671.615 263.659 671.327 263.707C670.239 263.851 668.543 263.947 667.167 263.947ZM669.967 256.411C670.207 256.427 670.319 256.555 670.319 256.795V257.659C670.319 257.899 670.175 258.043 669.935 258.027C668.415 257.931 666.911 257.931 665.535 257.931C663.023 257.931 662.575 258.027 662.575 258.603C662.575 259.211 663.231 259.371 665.663 259.371C667.439 259.371 668.863 259.307 670.063 259.147C670.303 259.115 670.479 259.243 670.495 259.483L670.575 260.347C670.591 260.587 670.463 260.731 670.207 260.763C668.911 260.923 667.567 260.987 665.615 260.987C661.903 260.987 660.735 260.411 660.735 258.603C660.735 256.859 661.887 256.315 665.663 256.315C667.871 256.315 669.135 256.363 669.967 256.411ZM661.263 255.483C660.991 255.483 660.863 255.355 660.863 255.083V254.283C660.863 254.011 660.991 253.883 661.263 253.883H669.919C670.191 253.883 670.319 254.011 670.319 254.283V255.083C670.319 255.355 670.191 255.483 669.919 255.483H661.263ZM673.777 256.283C673.505 256.283 673.377 256.155 673.377 255.883V254.923C673.377 254.651 673.505 254.523 673.777 254.523H680.337C680.609 254.523 680.737 254.651 680.737 254.923V255.883C680.737 256.155 680.609 256.283 680.337 256.283H677.969V260.091C677.969 261.931 679.089 263.595 680.433 263.755C680.705 263.787 680.801 263.915 680.801 264.187V265.147C680.801 265.419 680.673 265.547 680.401 265.515C678.865 265.323 677.457 264.107 677.057 262.619C676.641 264.107 675.233 265.323 673.697 265.515C673.425 265.547 673.297 265.419 673.297 265.147V264.187C673.297 263.915 673.393 263.787 673.665 263.755C675.009 263.595 676.129 261.931 676.129 260.091V256.283H673.777ZM684.225 267.259C684.225 267.531 684.065 267.691 683.809 267.691H682.801C682.545 267.691 682.385 267.531 682.385 267.259V253.947C682.385 253.675 682.545 253.515 682.801 253.515H683.809C684.065 253.515 684.225 253.675 684.225 253.947V259.435C684.337 259.227 684.561 259.115 684.881 259.115H685.825C686.097 259.115 686.225 259.243 686.225 259.515V260.475C686.225 260.747 686.097 260.875 685.825 260.875H684.785C684.401 260.875 684.225 261.035 684.225 261.387V267.259Z" fill="black"/>
<rect y="236.051" width="742" height="1" fill="black"/>
</svg>
