<svg width="1440" height="597" viewBox="0 0 1440 597" fill="none" xmlns="http://www.w3.org/2000/svg">
<g clip-path="url(#clip0_750_18930)">
<rect width="1440" height="597" fill="#92CF8D"/>
<rect x="732" y="49" width="24" height="24" rx="12" transform="rotate(90 732 49)" fill="black"/>
<path d="M725.5 60L720 65L714.5 60" stroke="white" stroke-width="2" stroke-miterlimit="10" stroke-linecap="square"/>
<path d="M622.388 119.904H649.204V123.392H622.388V119.904ZM633.524 113.312H637.748V120.832H633.524V113.312ZM633.364 98.848H637.076V100.992C637.076 107.296 632.5 112.864 624.756 114.272L622.996 110.72C629.748 109.632 633.364 105.088 633.364 100.992V98.848ZM634.196 98.848H637.908V100.992C637.908 105.184 641.524 109.632 648.308 110.72L646.548 114.272C638.772 112.832 634.196 107.392 634.196 100.992V98.848ZM651.121 112.48H677.937V115.808H651.121V112.48ZM662.385 109.312H666.641V113.696H662.385V109.312ZM654.449 107.456H675.089V110.688H654.449V107.456ZM654.449 97.952H674.865V101.184H658.673V109.28H654.449V97.952ZM657.489 102.752H674.193V105.856H657.489V102.752ZM664.497 117.12C670.993 117.12 674.769 118.848 674.769 121.984C674.769 125.152 670.993 126.848 664.497 126.848C657.969 126.848 654.193 125.152 654.193 121.984C654.193 118.848 657.969 117.12 664.497 117.12ZM664.497 120.256C660.369 120.256 658.481 120.768 658.481 121.984C658.481 123.232 660.369 123.744 664.497 123.744C668.593 123.744 670.481 123.232 670.481 121.984C670.481 120.768 668.593 120.256 664.497 120.256ZM698.959 97.216H703.183V126.848H698.959V97.216ZM702.223 108.768H707.471V112.32H702.223V108.768ZM679.823 101.6H697.071V104.992H679.823V101.6ZM688.495 106.656C692.815 106.656 696.015 109.6 696.015 113.728C696.015 117.856 692.815 120.8 688.495 120.8C684.175 120.8 680.975 117.856 680.975 113.728C680.975 109.6 684.175 106.656 688.495 106.656ZM688.495 110.112C686.479 110.112 685.039 111.456 685.039 113.728C685.039 116 686.479 117.344 688.495 117.344C690.511 117.344 691.951 116 691.951 113.728C691.951 111.456 690.511 110.112 688.495 110.112ZM686.351 97.696H690.607V102.88H686.351V97.696ZM712.076 105.216H732.62V108.576H712.076V105.216ZM708.748 111.648H735.596V115.04H708.748V111.648ZM712.076 98.272H716.3V106.88H712.076V98.272ZM711.788 122.816H732.78V126.208H711.788V122.816ZM711.788 117.408H716.044V123.712H711.788V117.408ZM750.812 102.4H754.236V103.488C754.236 108.64 751.612 113.28 745.948 114.912L743.964 111.584C748.732 110.24 750.812 106.848 750.812 103.488V102.4ZM751.612 102.4H755.068V103.488C755.068 106.528 757.18 109.632 761.948 110.88L760.028 114.176C754.332 112.672 751.612 108.352 751.612 103.488V102.4ZM744.988 100.288H760.892V103.616H744.988V100.288ZM750.812 97.12H755.068V101.6H750.812V97.12ZM760.06 105.12H765.724V108.544H760.06V105.12ZM764.7 97.216H768.956V115.104H764.7V97.216ZM758.908 115.616C765.18 115.616 769.052 117.664 769.052 121.216C769.052 124.768 765.18 126.848 758.908 126.848C752.636 126.848 748.764 124.768 748.764 121.216C748.764 117.664 752.636 115.616 758.908 115.616ZM758.908 118.848C755.036 118.848 753.02 119.616 753.02 121.216C753.02 122.816 755.036 123.616 758.908 123.616C762.812 123.616 764.828 122.816 764.828 121.216C764.828 119.616 762.812 118.848 758.908 118.848ZM777.881 115.904H797.753V126.528H777.881V115.904ZM793.561 119.232H782.073V123.168H793.561V119.232ZM793.497 97.248H797.753V114.624H793.497V97.248ZM788.761 100.928H794.265V104.32H788.761V100.928ZM774.073 110.496H776.345C782.169 110.496 784.889 110.432 788.153 109.92L788.505 113.28C785.177 113.888 782.297 113.92 776.345 113.92H774.073V110.496ZM774.041 98.528H787.065V107.68H778.297V113.12H774.073V104.544H782.841V101.92H774.041V98.528ZM788.761 107.04H794.265V110.432H788.761V107.04ZM804.855 115.936L804.151 104.128L804.023 99.68H808.727L808.599 104.128L807.927 115.936H804.855ZM806.359 124.448C804.695 124.448 803.447 123.136 803.447 121.376C803.447 119.616 804.695 118.336 806.359 118.336C808.055 118.336 809.303 119.616 809.303 121.376C809.303 123.136 808.055 124.448 806.359 124.448ZM575.141 150.864H582.053V154.288H575.141V150.864ZM579.813 143.248H584.069V164.848H579.813V143.248ZM564.517 168.944H584.741V172.336H564.517V168.944ZM564.517 163.024H568.773V170.96H564.517V163.024ZM566.117 147.12H569.573V148.976C569.573 154.544 566.949 159.696 561.253 161.584L559.109 158.192C564.005 156.592 566.117 152.72 566.117 148.976V147.12ZM567.013 147.12H570.437V148.976C570.437 152.432 572.453 156.112 577.125 157.68L575.045 161.008C569.541 159.184 567.013 154.256 567.013 148.976V147.12ZM560.261 145.232H576.197V148.592H560.261V145.232ZM599.298 159.888H603.522V164.368H599.298V159.888ZM588.066 157.328H614.85V160.688H588.066V157.328ZM591.042 163.184H611.618V172.848H607.362V166.544H591.042V163.184ZM591.49 143.952H595.682V146.576H607.234V143.952H611.458V155.408H591.49V143.952ZM595.682 149.744V152.08H607.234V149.744H595.682ZM623.52 148.4H626.944V149.488C626.944 154.64 624.32 159.28 618.656 160.912L616.672 157.584C621.44 156.24 623.52 152.848 623.52 149.488V148.4ZM624.32 148.4H627.776V149.488C627.776 152.528 629.888 155.632 634.656 156.88L632.736 160.176C627.04 158.672 624.32 154.352 624.32 149.488V148.4ZM617.696 146.288H633.6V149.616H617.696V146.288ZM623.52 143.12H627.776V147.6H623.52V143.12ZM632.768 151.12H638.432V154.544H632.768V151.12ZM637.408 143.216H641.664V161.104H637.408V143.216ZM631.616 161.616C637.888 161.616 641.76 163.664 641.76 167.216C641.76 170.768 637.888 172.848 631.616 172.848C625.344 172.848 621.472 170.768 621.472 167.216C621.472 163.664 625.344 161.616 631.616 161.616ZM631.616 164.848C627.744 164.848 625.728 165.616 625.728 167.216C625.728 168.816 627.744 169.616 631.616 169.616C635.52 169.616 637.536 168.816 637.536 167.216C637.536 165.616 635.52 164.848 631.616 164.848ZM650.589 161.904H670.461V172.528H650.589V161.904ZM666.269 165.232H654.781V169.168H666.269V165.232ZM666.205 143.248H670.461V160.624H666.205V143.248ZM661.469 146.928H666.973V150.32H661.469V146.928ZM646.781 156.496H649.053C654.877 156.496 657.597 156.432 660.861 155.92L661.213 159.28C657.885 159.888 655.005 159.92 649.053 159.92H646.781V156.496ZM646.749 144.528H659.773V153.68H651.005V159.12H646.781V150.544H655.549V147.92H646.749V144.528ZM661.469 153.04H666.973V156.432H661.469V153.04ZM677.787 152.432H698.523V155.824H677.787V152.432ZM674.491 159.184H701.307V162.608H674.491V159.184ZM685.627 161.232H689.883V172.848H685.627V161.232ZM677.787 144.528H682.043V154.032H677.787V144.528ZM723.672 143.184H727.928V172.912H723.672V143.184ZM704.856 162.544H707.48C712.728 162.544 716.92 162.352 721.624 161.552L722.04 164.976C717.24 165.84 712.888 166 707.48 166H704.856V162.544ZM704.824 145.712H718.808V157.168H709.176V163.824H704.856V153.808H714.456V149.104H704.824V145.712ZM732.054 157.84H758.87V161.232H732.054V157.84ZM743.67 159.984H747.958V166.224H743.67V159.984ZM735.35 144.464H755.478V155.472H735.35V144.464ZM751.286 147.792H739.51V152.144H751.286V147.792ZM735.158 168.944H755.926V172.336H735.158V168.944ZM735.158 163.728H739.382V170.064H735.158V163.728ZM767.699 160.752H771.955V165.552H767.699V160.752ZM780.147 143.216H784.435V172.848H780.147V143.216ZM782.931 155.248H788.147V158.768H782.931V155.248ZM761.043 167.92L760.531 164.496C765.651 164.496 772.691 164.464 778.675 163.632L778.995 166.704C772.755 167.92 766.035 167.92 761.043 167.92ZM761.075 146.48H778.515V149.808H761.075V146.48ZM769.843 150.992C774.067 150.992 777.075 153.232 777.075 156.528C777.075 159.856 774.067 162.096 769.843 162.096C765.587 162.096 762.611 159.856 762.611 156.528C762.611 153.232 765.587 150.992 769.843 150.992ZM769.843 154.192C767.891 154.192 766.643 155.024 766.643 156.528C766.643 158.064 767.891 158.896 769.843 158.896C771.763 158.896 773.043 158.064 773.043 156.528C773.043 155.024 771.763 154.192 769.843 154.192ZM767.699 143.376H771.955V148.976H767.699V143.376ZM811.057 143.216H815.089V172.848H811.057V143.216ZM801.297 153.328H806.193V156.784H801.297V153.328ZM805.073 143.696H809.041V171.504H805.073V143.696ZM794.897 148.048H798.097V151.088C798.097 157.744 796.273 164.368 791.569 167.312L789.041 164.176C793.393 161.456 794.897 156.144 794.897 151.088V148.048ZM795.857 148.048H799.025V151.088C799.025 156.016 800.497 161.008 804.785 163.504L802.289 166.608C797.585 163.824 795.857 157.616 795.857 151.088V148.048ZM790.161 146.192H803.377V149.616H790.161V146.192ZM831.936 144.752H835.488V147.408C835.488 153.36 832.832 158.576 827.008 160.528L824.8 157.104C829.856 155.472 831.936 151.472 831.936 147.408V144.752ZM832.832 144.752H836.256V147.216C836.256 151.152 838.176 154.8 842.88 156.304L840.672 159.632C835.2 157.744 832.832 152.976 832.832 147.216V144.752ZM845.6 143.216H849.856V160.56H845.6V143.216ZM839.808 161.328C846.08 161.328 849.952 163.472 849.952 167.088C849.952 170.736 846.08 172.848 839.808 172.848C833.536 172.848 829.664 170.736 829.664 167.088C829.664 163.472 833.536 161.328 839.808 161.328ZM839.808 164.624C835.968 164.624 833.92 165.424 833.92 167.088C833.92 168.752 835.968 169.584 839.808 169.584C843.68 169.584 845.728 168.752 845.728 167.088C845.728 165.424 843.68 164.624 839.808 164.624ZM840.192 148.592H846.208V152.048H840.192V148.592ZM860.67 160.496H864.83V167.472H860.67V160.496ZM870.046 160.464H874.206V167.472H870.046V160.464ZM853.886 166.128H880.702V169.584H853.886V166.128ZM856.894 145.136H877.694V154.96H861.182V159.984H856.958V151.632H873.47V148.496H856.894V145.136ZM856.958 158.192H878.366V161.616H856.958V158.192Z" fill="white"/>
<g clip-path="url(#clip1_750_18930)">
<path d="M854.67 330.901C849.76 347.811 823.23 358.281 795.4 354.281L752.63 348.151C724.79 344.161 706.2 327.221 711.1 310.311C715.99 293.411 742.53 282.931 770.37 286.931L813.14 293.071C840.97 297.061 859.57 314.001 854.67 330.901Z" fill="#F9C9A2"/>
<path d="M824.409 441.69C800.439 477.37 735.909 493.84 680.269 478.47L594.759 454.88C539.099 439.53 513.409 398.17 537.369 362.5C561.309 326.84 625.849 310.36 681.519 325.71L767.019 349.3C822.659 364.66 848.349 406.03 824.409 441.69Z" fill="#FFD8B5"/>
<path d="M731.819 312.502C745.469 327.312 736.199 346.382 711.119 355.092L672.599 368.492C647.529 377.212 616.139 372.272 602.499 357.472C588.849 342.672 598.119 323.602 623.189 314.882L661.709 301.492C686.799 292.772 718.189 297.702 731.819 312.502Z" fill="#FFD8B5"/>
<path d="M907.409 344.732C931.019 380.512 904.909 421.762 849.109 436.882L763.379 460.132C707.579 475.262 643.209 458.542 619.619 422.772C596.009 387.012 622.109 345.752 677.909 330.612L763.649 307.372C819.439 292.252 883.809 308.992 907.409 344.732Z" fill="#F9C9A2"/>
<path d="M807.378 346.642C845.118 357.062 862.538 385.102 846.278 409.272L821.328 446.432C805.088 470.612 761.338 481.782 723.618 471.372C685.898 460.972 668.468 432.922 684.708 408.742L709.668 371.592C725.908 347.402 769.668 336.242 807.378 346.642Z" fill="#FFD8B5"/>
<path d="M576.028 305.081C562.383 304.181 548.749 303.071 535.134 301.781L507.102 446.081C521.876 447.421 536.844 448.601 552.005 449.601L576.028 305.081Z" fill="#6D6DB9"/>
<path d="M-7 337.292C118.776 388.772 291.937 441.162 504.335 460.362L507.112 446.082C291.53 426.552 117.239 372.262 -7 320.172V337.292Z" fill="#6D6DB9"/>
<path d="M120.851 199.161C183.724 225.521 250.087 247.551 318.088 264.631C388.866 282.421 461.701 294.861 535.145 301.781L537.913 287.521C466.707 280.781 396.07 268.701 327.408 251.491C261.025 234.851 196.199 213.391 134.73 187.701C68.5509 160.051 20.2696 133.251 -7 116.791V136.471C22.0299 153.141 65.2236 175.841 120.851 199.161Z" fill="#6D6DB9"/>
<path d="M318.077 264.631C250.077 247.541 183.714 225.511 120.841 199.161C65.2236 175.841 22.0197 153.141 -7 136.471V320.181C117.239 372.271 291.53 426.561 507.102 446.091L535.135 301.791C461.69 294.861 388.856 282.421 318.077 264.631Z" fill="#6D6DB9"/>
<path d="M864.578 296.001L888.178 440.521C903.078 439.521 917.788 438.341 932.308 437.001L904.758 292.701C891.388 293.981 877.988 295.101 864.578 296.001Z" fill="white"/>
<path d="M1311.93 190.081C1368.17 166.091 1411.48 142.761 1440 125.961V106.211C1413.7 122.511 1365.34 150.111 1298.29 178.621C1237.88 204.311 1174.18 225.771 1108.93 242.411C1041.44 259.621 972.029 271.701 902.049 278.441L904.769 292.701C976.949 285.781 1048.54 273.341 1118.09 255.551C1184.92 238.461 1250.14 216.431 1311.93 190.081Z" fill="#464B56"/>
<path d="M932.318 437.001L935.048 451.281C1145.15 431.951 1316.2 379.001 1440 327.201V310.061C1317.75 362.461 1145.59 417.341 932.318 437.001Z" fill="#464B56"/>
<path d="M1440 125.961C1411.48 142.751 1368.17 166.091 1311.93 190.081C1250.14 216.441 1184.92 238.471 1118.09 255.551C1048.53 273.341 976.948 285.781 904.768 292.701L932.318 437.001C1145.59 417.351 1317.75 362.461 1440 310.061V125.961Z" fill="#464B56"/>
<path d="M405.419 433.382C412.814 433.382 418.809 427.387 418.809 419.992C418.809 412.596 412.814 406.602 405.419 406.602C398.024 406.602 392.029 412.596 392.029 419.992C392.029 427.387 398.024 433.382 405.419 433.382Z" fill="#F9E450"/>
<path d="M458.548 440.952C465.943 440.952 471.938 434.957 471.938 427.562C471.938 420.167 465.943 414.172 458.548 414.172C451.153 414.172 445.158 420.167 445.158 427.562C445.158 434.957 451.153 440.952 458.548 440.952Z" fill="#F9E450"/>
<path d="M1035.2 424.301C1042.59 424.301 1048.59 418.307 1048.59 410.912C1048.59 403.516 1042.59 397.521 1035.2 397.521C1027.8 397.521 1021.81 403.516 1021.81 410.912C1021.81 418.307 1027.8 424.301 1035.2 424.301Z" fill="#F9E450"/>
<path d="M982.07 431.86C989.465 431.86 995.46 425.865 995.46 418.47C995.46 411.075 989.465 405.08 982.07 405.08C974.675 405.08 968.68 411.075 968.68 418.47C968.68 425.865 974.675 431.86 982.07 431.86Z" fill="#F9E450"/>
<path d="M729.209 446.7L807.189 447.49L884.859 410.93L868.999 355.65L797.979 414.26L729.539 413.57L729.209 446.7Z" fill="#5CA090"/>
<path d="M567.189 227.631C557.879 229.761 548.609 223.951 546.479 214.651L543.199 200.361C541.059 191.061 546.869 181.791 556.179 179.651C565.479 177.511 574.749 183.321 576.889 192.631L580.169 206.921C582.299 216.231 576.489 225.501 567.189 227.631Z" fill="#FFD8B5"/>
<path d="M565.009 214.081C561.719 209.861 562.479 203.771 566.699 200.481L573.189 195.431C577.409 192.141 583.499 192.901 586.779 197.121C590.069 201.341 589.319 207.431 585.089 210.721L578.599 215.771C574.389 219.061 568.299 218.301 565.009 214.081Z" fill="#FFD8B5"/>
<path d="M899.33 226.22C908.64 228.35 917.91 222.54 920.04 213.24L923.32 198.95C925.46 189.65 919.65 180.38 910.34 178.24C901.04 176.1 891.77 181.91 889.63 191.22L886.35 205.51C884.22 214.81 890.04 224.08 899.33 226.22Z" fill="#FFD8B5"/>
<path d="M901.52 212.661C904.81 208.441 904.05 202.351 899.83 199.061L893.34 194.011C889.12 190.721 883.03 191.481 879.75 195.701C876.46 199.921 877.21 206.011 881.44 209.301L887.93 214.351C892.13 217.641 898.23 216.891 901.52 212.661Z" fill="#FFD8B5"/>
<path d="M695.518 758.941L642.898 623.111L688.308 518.061L740.218 537.831L701.488 623.801L730.768 745.681L695.518 758.941Z" fill="#333133"/>
<path d="M789.3 783.121L747.78 780.641V634.201L715.66 540.661L778.01 519.881L798.99 634.591L789.3 783.121Z" fill="#333133"/>
<path d="M777.069 562.39H688.259L681.639 501.92L781.789 502.87L777.069 562.39Z" fill="#333133"/>
<path d="M775.329 341.13C771.589 339.96 767.639 339.24 763.539 339.07L713.169 337C708.689 336.82 704.339 337.3 700.199 338.33C681.119 343.12 666.639 359.98 665.799 380.63L682.459 515.5L781.909 518.65L807.179 386.43C808.039 365.42 794.499 347.14 775.329 341.13Z" fill="#CFF5FF"/>
<path d="M739.38 313.011C762.504 313.011 781.25 294.162 781.25 270.911C781.25 247.659 762.504 228.811 739.38 228.811C716.256 228.811 697.51 247.659 697.51 270.911C697.51 294.162 716.256 313.011 739.38 313.011Z" fill="#9B7D68"/>
<path d="M752.28 312.641H725.59L723.49 328.621L752.75 316.251L752.28 312.641Z" fill="#DFB593"/>
<path d="M752.749 316.25L723.489 328.62L722.779 334.02H755.099L752.749 316.25Z" fill="#FFD8B5"/>
<path d="M698.889 280.3C698.889 285.05 701.839 289.1 705.989 290.75V269.84C701.839 271.5 698.889 275.55 698.889 280.3Z" fill="#DFB593"/>
<path d="M778.969 280.3C778.969 275.55 776.039 271.5 771.869 269.84V290.75C776.039 289.11 778.969 285.05 778.969 280.3Z" fill="#DFB593"/>
<path d="M774.339 282.281C774.339 301.841 758.489 317.681 738.939 317.681C719.389 317.681 703.539 301.831 703.539 282.281C703.539 262.731 719.389 246.881 738.939 246.881C758.489 246.881 774.339 262.741 774.339 282.281Z" fill="#FFD8B5"/>
<path d="M723.869 281.521C723.869 283.071 725.129 284.331 726.679 284.331C728.229 284.331 729.489 283.071 729.489 281.521C729.489 279.961 728.229 278.711 726.679 278.711C725.129 278.701 723.869 279.961 723.869 281.521Z" fill="#1F0A0C"/>
<path d="M748.41 281.521C748.41 283.071 749.67 284.331 751.22 284.331C752.78 284.331 754.03 283.071 754.03 281.521C754.03 279.961 752.77 278.711 751.22 278.711C749.67 278.701 748.41 279.961 748.41 281.521Z" fill="#1F0A0C"/>
<path d="M741.339 282.83V293.27H736.559" stroke="#F49479" stroke-width="3" stroke-miterlimit="10" stroke-linecap="round" stroke-linejoin="round"/>
<path d="M732.969 297.691C732.969 302.161 735.859 305.791 739.429 305.791C742.999 305.791 745.889 302.161 745.889 297.691" fill="#F49479"/>
<path d="M779.27 273.01C779.27 273.01 789.98 253.65 778.36 239.38C766.74 225.12 752.49 228.22 752.49 228.22L756.73 253.78L779.27 273.01Z" fill="#9B7D68"/>
<path d="M671.25 391.38L599.68 326.06L551.66 233.29L580.74 217.4L624.19 301.8L710.93 336.58L671.25 391.38Z" fill="#CFF5FF"/>
<path d="M802.58 394.22L763.84 339.42L839.43 289.34L883.32 214.32L913.08 228.91L869.85 317.06L802.58 394.22Z" fill="#CFF5FF"/>
<path d="M718.94 330.32C718.66 337.09 727.07 342.93 737.72 343.36C748.37 343.8 757.23 338.67 757.5 331.9" fill="#FFD8B5"/>
<path d="M744.16 338.621L731.69 338.111L726.99 347.011L731.79 353.291L742.82 353.751L748.11 347.881L744.16 338.621Z" fill="#4F4F4F"/>
<path d="M740.119 352.39L738.599 352.33L736.099 352.22L734.579 352.16L724.129 462.76L733.209 481.5L743.799 463.56L740.119 352.39Z" fill="#4F4F4F"/>
<path d="M710.76 336.681L720.31 322.791L737.96 337.831L728.87 359.061L710.76 336.681Z" fill="#CFF5FF"/>
<path d="M765.121 339.022L756.791 324.352L737.891 337.832L745.091 359.762L765.121 339.022Z" fill="#CFF5FF"/>
<path d="M737.96 337.83L728.87 359.06L715.52 342.56" stroke="white" stroke-width="2" stroke-miterlimit="10" stroke-linecap="round" stroke-linejoin="round"/>
<path d="M737.891 337.83L745.091 359.76L759.941 344.38" stroke="white" stroke-width="2" stroke-miterlimit="10" stroke-linecap="round" stroke-linejoin="round"/>
<path d="M747.309 251.961L719.229 268.171C710.929 272.961 700.319 270.121 695.529 261.821C690.739 253.521 693.579 242.911 701.879 238.121L729.959 221.911C738.259 217.121 748.868 219.961 753.658 228.261C758.458 236.551 755.609 247.161 747.309 251.961Z" fill="#9B7D68"/>
<path d="M758.949 270.981L755.219 267.521C748.909 261.661 748.539 251.801 754.399 245.491C760.259 239.181 770.119 238.811 776.429 244.671L780.159 248.131C786.469 253.991 786.839 263.851 780.979 270.161C775.119 276.471 765.259 276.841 758.949 270.981Z" fill="#9B7D68"/>
<path d="M709.029 331.66C707.509 354.78 722.819 373.49 729.739 394.48C730.309 396.21 732.869 394.98 732.299 393.27C725.569 372.86 710.369 354.41 711.849 331.94C711.969 330.11 709.149 329.84 709.029 331.66Z" fill="#5E79DB"/>
<path d="M764.739 338.56C766.089 349.92 760.139 359.75 753.729 368.59C747.379 377.34 740.739 385.89 733.969 394.32C732.829 395.75 735.149 397.37 736.289 395.95C744.069 386.25 751.949 376.47 758.909 366.16C764.579 357.76 768.759 348.41 767.529 338.08C767.319 336.26 764.529 336.76 764.739 338.56Z" fill="#5E79DB"/>
<path d="M743.729 427.581C743.609 429.131 742.239 430.311 740.679 430.181L719.959 428.541C718.409 428.421 717.229 427.051 717.359 425.491L719.889 393.471C720.009 391.921 721.379 390.741 722.939 390.871L743.659 392.511C745.209 392.631 746.389 394.001 746.259 395.561L743.729 427.581Z" fill="#DEE7FF"/>
<path d="M738.702 400.985L726.51 400.021L725.546 412.214L737.738 413.177L738.702 400.985Z" fill="#ADADAD"/>
<path d="M738.227 416.105L724.6 415.027L724.543 415.745L738.17 416.822L738.227 416.105Z" fill="#ADADAD"/>
<path d="M738.057 418.255L724.43 417.178L724.373 417.896L738.001 418.973L738.057 418.255Z" fill="#ADADAD"/>
<path d="M737.887 420.403L724.26 419.326L724.203 420.044L737.831 421.121L737.887 420.403Z" fill="#ADADAD"/>
<path d="M670.96 491.05C666.34 499.41 669.38 509.92 677.73 514.53L690.57 521.62C698.92 526.24 709.44 523.2 714.05 514.85C718.66 506.5 715.63 495.98 707.28 491.37L694.44 484.28C686.08 479.66 675.57 482.7 670.96 491.05Z" fill="#FFD8B5"/>
<path d="M683.39 496.88C686.54 501.2 692.61 502.15 696.93 499L703.57 494.15C707.89 491 708.84 484.94 705.69 480.62C702.54 476.3 696.48 475.34 692.15 478.5L685.5 483.35C681.18 486.49 680.23 492.55 683.39 496.88Z" fill="#FFD8B5"/>
<path d="M488.49 197.481C479.6 193.981 475.24 183.951 478.73 175.071L484.1 161.421C487.59 152.541 497.62 148.171 506.51 151.661C515.39 155.151 519.76 165.181 516.27 174.071L510.9 187.721C507.41 196.611 497.37 200.971 488.49 197.481Z" fill="#FFD8B5"/>
<path d="M494.351 185.06C494.021 179.72 498.091 175.12 503.431 174.79L511.641 174.29C516.981 173.96 521.581 178.02 521.901 183.36C522.231 188.7 518.171 193.3 512.831 193.63L504.621 194.13C499.281 194.47 494.681 190.41 494.351 185.06Z" fill="#FFD8B5"/>
<path d="M475.21 671.65L429.52 659.65L446.2 597.89L462.07 490.25L508.8 497.14L492.55 607.36L475.21 671.65Z" fill="#D68F5F"/>
<path d="M411.07 611.152L414.34 630.822L490.5 611.022L479.46 580.432L411.07 611.152Z" fill="#FFD8B5"/>
<path d="M531.3 493.741L534.28 478.701L462 464.361L458.08 484.111C454.56 501.861 466.09 519.111 483.85 522.641L498.66 568.341L442.92 587.241L455.2 632.591L563.42 597.101L531.3 493.741Z" fill="#E89E69"/>
<path d="M588.193 288.209L507.693 267.061L482.334 363.587L562.834 384.736L588.193 288.209Z" fill="#634A3F"/>
<path d="M563.359 351.781C560.329 350.051 557.039 348.671 553.509 347.751L510.129 336.351C506.269 335.341 502.399 334.931 498.609 335.041C481.119 335.561 465.319 347.461 460.649 365.241L465.599 429.441C463.939 439.521 453.829 470.311 463.709 472.901L529.429 486.811C539.309 489.401 545.229 460.761 548.739 451.171L582.399 397.221C587.149 379.121 578.869 360.661 563.359 351.781Z" fill="white"/>
<path d="M666.099 507.441L597.689 470.011L547.789 400.161L577.079 365.201L621.969 445.521L682.009 478.371L666.099 507.441Z" fill="white"/>
<path d="M474.93 187.211L505.78 199.291L480.82 263.021L503.39 345.361L460.87 368.041L446.49 259.821L474.93 187.211Z" fill="white"/>
<path d="M588.634 287.547C594.542 265.059 581.201 242.065 558.835 236.189C536.47 230.313 513.549 243.781 507.641 266.269C501.733 288.758 515.074 311.752 537.44 317.627C559.806 323.503 582.726 310.036 588.634 287.547Z" fill="#634A3F"/>
<path d="M551.4 318.971L525.59 312.191L519.49 327.111L550.94 322.581L551.4 318.971Z" fill="#DFB593"/>
<path d="M550.94 322.58L519.49 327.11L517.43 332.16L548.69 340.37L550.94 322.58Z" fill="#FFD8B5"/>
<path d="M507.98 274.13C506.77 278.72 508.59 283.39 512.19 286.04L517.5 265.82C513.07 266.36 509.19 269.54 507.98 274.13Z" fill="#DFB593"/>
<path d="M585.43 294.481C586.64 289.891 584.83 285.221 581.22 282.561L575.91 302.781C580.36 302.251 584.23 299.071 585.43 294.481Z" fill="#DFB593"/>
<path d="M580.441 295.22C575.471 314.14 556.121 325.43 537.201 320.47C518.291 315.5 506.991 296.15 511.961 277.23C516.931 258.32 536.291 247.02 555.191 251.99C574.111 256.95 585.411 276.31 580.441 295.22Z" fill="#FFD8B5"/>
<path d="M531.83 281.65C531.44 283.15 532.33 284.69 533.83 285.09C535.33 285.48 536.87 284.58 537.27 283.08C537.67 281.58 536.76 280.04 535.26 279.64C533.76 279.25 532.22 280.15 531.83 281.65Z" fill="#1F0A0C"/>
<path d="M555.56 287.891C555.17 289.391 556.06 290.931 557.57 291.331C559.07 291.731 560.61 290.831 561.01 289.321C561.41 287.821 560.51 286.281 559 285.881C557.49 285.491 555.95 286.381 555.56 287.891Z" fill="#1F0A0C"/>
<path d="M548.399 287.361L545.739 297.461L541.109 296.241" stroke="#F49479" stroke-width="3" stroke-miterlimit="10" stroke-linecap="round" stroke-linejoin="round"/>
<path d="M514.74 331.09C513.02 337.64 519.98 345.15 530.29 347.85C540.6 350.56 550.35 347.44 552.07 340.89" fill="#FFD8B5"/>
<path d="M537.649 299.051C537.129 301.011 539.049 303.221 541.929 303.971C544.809 304.731 547.559 303.751 548.079 301.791" stroke="#F49479" stroke-width="3" stroke-miterlimit="10" stroke-linecap="round" stroke-linejoin="round"/>
<path d="M509.16 268.311C509.16 268.311 527.86 280.131 542.78 269.371C557.7 258.611 555.44 244.191 555.44 244.191L529.68 246.921L509.16 268.311Z" fill="#634A3F"/>
<path d="M570.29 256.73C570.29 256.73 568.77 268.55 572.3 275.39C577.45 285.38 585.95 285.89 585.95 285.89L587.09 274.96L576.96 257.62L570.29 256.73Z" fill="#634A3F"/>
<path d="M559.118 332.993L512.646 321.717L504.181 356.604L550.653 367.88L559.118 332.993Z" fill="white"/>
<path d="M504.25 330.83C498.77 353.34 510.63 374.41 513.84 396.28C514.1 398.08 516.84 397.31 516.57 395.53C513.45 374.26 501.65 353.48 506.98 331.59C507.42 329.81 504.68 329.06 504.25 330.83Z" fill="#5E79DB"/>
<path d="M557.94 347.22C557.32 358.64 549.76 367.31 541.92 374.9C534.16 382.43 526.15 389.7 518.03 396.84C516.66 398.05 518.67 400.05 520.03 398.84C529.37 390.63 538.81 382.35 547.44 373.39C554.47 366.09 560.2 357.6 560.76 347.21C560.88 345.4 558.04 345.4 557.94 347.22Z" fill="#5E79DB"/>
<path d="M521.921 431.291C521.531 432.801 519.981 433.721 518.471 433.331L498.341 428.151C496.831 427.761 495.911 426.211 496.301 424.701L504.311 393.591C504.701 392.081 506.251 391.161 507.761 391.551L527.891 396.731C529.401 397.121 530.321 398.671 529.931 400.181L521.921 431.291Z" fill="#DEE7FF"/>
<path d="M521.543 404.173L509.699 401.125L506.651 412.969L518.495 416.016L521.543 404.173Z" fill="#ADADAD"/>
<path d="M518.474 418.991L505.236 415.584L505.057 416.281L518.295 419.688L518.474 418.991Z" fill="#ADADAD"/>
<path d="M517.935 421.08L504.697 417.674L504.518 418.371L517.756 421.778L517.935 421.08Z" fill="#ADADAD"/>
<path d="M517.396 423.17L504.158 419.764L503.979 420.461L517.217 423.867L517.396 423.17Z" fill="#ADADAD"/>
<path d="M988.14 219.912C997.67 219.362 1004.95 211.192 1004.4 201.662L1003.56 187.022C1003.01 177.492 994.84 170.212 985.32 170.762C975.79 171.312 968.51 179.472 969.06 189.002L969.9 203.642C970.44 213.182 978.61 220.462 988.14 219.912Z" fill="#FFD8B5"/>
<path d="M986.45 206.282C988.43 201.312 986 195.672 981.03 193.692L973.39 190.652C968.42 188.672 962.78 191.102 960.81 196.072C958.83 201.042 961.25 206.682 966.23 208.662L973.87 211.702C978.83 213.692 984.47 211.262 986.45 206.282Z" fill="#FFD8B5"/>
<path d="M964.23 538.78L983.97 601.2L1026.72 707.37L1060 696.19L1030.78 583.52L1011.71 478.09L930 489.32L874.83 597.13L928.56 688.71L960.71 677.19L935.54 601.25L964.23 538.78Z" fill="#93684C"/>
<path d="M1004.24 214.381L971.151 216.231L974.98 284.571L917.48 333.331L961.17 390.571L1008.6 292.241L1004.24 214.381Z" fill="#5CA090"/>
<path d="M877.379 328.372L902.039 318.182L910.079 332.142L878.309 331.882L877.379 328.372Z" fill="#DFB593"/>
<path d="M878.311 331.881L910.091 332.141L912.811 336.871L882.931 349.201L878.311 331.881Z" fill="#FFD8B5"/>
<path d="M914.38 278.101C916.19 282.491 915.02 287.361 911.81 290.471L903.83 271.141C908.29 271.091 912.56 273.711 914.38 278.101Z" fill="#DFB593"/>
<path d="M840.359 308.671C838.549 304.281 839.709 299.411 842.929 296.301L850.909 315.631C846.429 315.681 842.169 313.051 840.359 308.671Z" fill="#DFB593"/>
<path d="M845.399 308.731C852.869 326.811 873.559 335.401 891.639 327.941C909.709 320.481 918.309 299.781 910.839 281.711C903.379 263.641 882.679 255.041 864.609 262.501C846.539 269.961 837.939 290.661 845.399 308.731Z" fill="#FFD8B5"/>
<path d="M891.76 288.76C892.35 290.19 891.67 291.84 890.24 292.43C888.81 293.02 887.16 292.34 886.57 290.9C885.98 289.46 886.66 287.82 888.1 287.23C889.52 286.63 891.16 287.32 891.76 288.76Z" fill="#1F0A0C"/>
<path d="M869.079 298.121C869.669 299.551 868.989 301.201 867.549 301.801C866.109 302.391 864.469 301.711 863.869 300.271C863.279 298.831 863.959 297.191 865.399 296.601C866.839 296.001 868.479 296.681 869.079 298.121Z" fill="#1F0A0C"/>
<path d="M876.1 296.631L880.09 306.291L884.51 304.461" stroke="#F49479" stroke-width="3" stroke-miterlimit="10" stroke-linecap="round" stroke-linejoin="round"/>
<path d="M972.691 355.882C965.551 337.992 948.221 327.722 930.811 329.522C927.031 329.912 923.261 330.862 919.581 332.432L917.491 333.332C919.291 343.122 914.081 353.172 904.501 357.132C895.091 361.012 884.531 357.762 878.821 349.872L878.211 350.132C874.841 351.572 871.771 353.442 869.021 355.652C854.901 366.982 849.301 387.322 856.571 405.542L910.931 525.502L1016.43 488.022L972.691 355.882Z" fill="#5CA090"/>
<path d="M904.5 357.132C914.08 353.172 919.29 343.122 917.49 333.332L878.82 349.872C884.52 357.762 895.09 361.012 904.5 357.132Z" fill="#FFD8B5"/>
<path d="M888.32 306.781C889.09 308.661 887.49 311.101 884.74 312.231C881.99 313.371 879.13 312.771 878.35 310.891" stroke="#F49479" stroke-width="3" stroke-miterlimit="10" stroke-linecap="round" stroke-linejoin="round"/>
<path d="M924.348 326.871C932.808 348.441 923.878 370.921 923.638 393.011C923.618 394.831 920.808 394.441 920.828 392.631C921.058 371.141 929.958 348.951 921.738 327.981C921.068 326.291 923.678 325.171 924.348 326.871Z" fill="#5E79DB"/>
<path d="M873.339 350.32C875.489 361.55 884.139 369.13 892.929 375.6C901.629 382.01 910.549 388.15 919.549 394.13C921.069 395.14 919.349 397.39 917.829 396.39C907.469 389.5 896.999 382.57 887.239 374.85C879.289 368.56 872.479 360.92 870.519 350.7C870.189 348.91 872.999 348.54 873.339 350.32Z" fill="#5E79DB"/>
<path d="M920.33 428.8C920.92 430.24 922.58 430.94 924.02 430.36L943.27 422.52C944.71 421.93 945.41 420.27 944.83 418.83L932.72 389.08C932.13 387.64 930.47 386.94 929.03 387.52L909.78 395.36C908.34 395.95 907.64 397.61 908.22 399.05L920.33 428.8Z" fill="#DEE7FF"/>
<path d="M921.651 413.268L932.979 408.656L928.367 397.329L917.039 401.941L921.651 413.268Z" fill="#ADADAD"/>
<path d="M922.339 416.876L935 411.721L934.728 411.054L922.067 416.209L922.339 416.876Z" fill="#ADADAD"/>
<path d="M923.147 418.878L935.809 413.723L935.537 413.056L922.876 418.211L923.147 418.878Z" fill="#ADADAD"/>
<path d="M923.964 420.874L936.625 415.719L936.353 415.052L923.692 420.207L923.964 420.874Z" fill="#ADADAD"/>
<path d="M904.55 229.531C903.19 235.351 897.23 237.071 891.44 237.301C885.72 234.051 877.37 233.261 868.88 235.751C855.37 239.721 846.64 250.501 849.38 259.841C852.12 269.181 865.3 273.541 878.8 269.571C880.09 269.191 881.33 268.751 882.52 268.261C885.17 276.851 894.23 281.741 902.88 279.201C911.6 276.641 916.6 267.491 914.04 258.771C913.46 256.781 912.52 254.991 911.33 253.431C917.49 242.501 904.55 229.531 904.55 229.531Z" fill="#473D3A"/>
<path d="M855.549 255.122C848.359 251.712 839.519 254.862 836.109 262.042C834.209 266.052 832.299 270.062 830.399 274.072C830.009 274.892 829.619 275.722 829.219 276.552C825.809 283.742 828.959 292.582 836.139 295.992C843.329 299.402 852.169 296.252 855.579 289.072C855.969 288.242 856.369 287.422 856.759 286.592C858.659 282.582 860.569 278.572 862.469 274.562C865.889 267.372 862.739 258.532 855.549 255.122Z" fill="#473D3A"/>
<path d="M433.1 208.572L406.39 140.832L386.35 154.192L433.1 208.572Z" fill="white"/>
<path d="M430.239 219.073L354.869 165.643L337.699 199.993L430.239 219.073Z" fill="white"/>
<path d="M422.609 229.562L351.049 230.523L354.869 251.512L422.609 229.562Z" fill="white"/>
<path d="M1026.61 174.081L1047.46 114.611L1067.55 127.741L1026.61 174.081Z" fill="white"/>
<path d="M1026.61 185.671L1093.04 146.281L1102.3 172.541L1026.61 185.671Z" fill="white"/>
<path d="M1030.47 196.48L1084.54 201.89L1077.59 218.11L1030.47 196.48Z" fill="white"/>
<path d="M1017.34 149.37L1020.43 116.15L1006.53 117.7L1017.34 149.37Z" fill="white"/>
</g>
</g>
<defs>
<clipPath id="clip0_750_18930">
<rect width="1440" height="597" fill="white"/>
</clipPath>
<clipPath id="clip1_750_18930">
<rect width="1440" height="597" fill="white"/>
</clipPath>
</defs>
</svg>
