<?xml version="1.0" encoding="UTF-8"?>
<svg id="_레이어_1" data-name="레이어 1" xmlns="http://www.w3.org/2000/svg" version="1.1" viewBox="0 0 779.2 373.3">
  <defs>
    <style>
      .cls-1 {
        fill: #ffaf00;
      }

      .cls-1, .cls-2, .cls-3, .cls-4, .cls-5, .cls-6, .cls-7, .cls-8, .cls-9, .cls-10, .cls-11, .cls-12, .cls-13, .cls-14, .cls-15 {
        stroke-width: 0px;
      }

      .cls-16 {
        stroke-miterlimit: 10;
      }

      .cls-16, .cls-17, .cls-18, .cls-19 {
        fill: none;
      }

      .cls-16, .cls-18 {
        stroke: #fff;
        stroke-width: 2px;
      }

      .cls-2 {
        fill: #fee;
      }

      .cls-3 {
        fill: #ffba20;
      }

      .cls-17 {
        stroke: #ff9696;
      }

      .cls-17, .cls-18, .cls-19 {
        stroke-linecap: round;
        stroke-linejoin: round;
      }

      .cls-17, .cls-19 {
        stroke-width: 1.5px;
      }

      .cls-4 {
        fill: #fff7e5;
      }

      .cls-5, .cls-8 {
        fill: #00b094;
      }

      .cls-6 {
        fill: #ffcf39;
      }

      .cls-7 {
        fill: #ec9400;
      }

      .cls-8 {
        fill-rule: evenodd;
      }

      .cls-20 {
        opacity: .3;
      }

      .cls-9 {
        fill: #00846a;
      }

      .cls-19 {
        stroke: #f8f8f8;
      }

      .cls-10 {
        fill: #ff8aa9;
      }

      .cls-11 {
        fill: #694439;
      }

      .cls-12 {
        fill: #fff;
      }

      .cls-13 {
        fill: #ff9d00;
      }

      .cls-14 {
        fill: #ffe382;
      }

      .cls-15 {
        fill: #ffd4d2;
      }
    </style>
  </defs>
  <path class="cls-14" d="M433.6,144.5c0,.7-.6,1.2-1.2,1.2s-1.2-.6-1.2-1.2.6-1.2,1.2-1.2,1.2.6,1.2,1.2Z"/>
  <path class="cls-14" d="M215.4,108c0,.7-.6,1.2-1.2,1.2s-1.2-.6-1.2-1.2.6-1.2,1.2-1.2,1.2.6,1.2,1.2Z"/>
  <path class="cls-12" d="M308.2,170.4c-.5,0-1-.2-1.5-.5-1.5-.9-2-2.9-1-4.4l82.7-131.6c.5-.7,1.2-1.2,2-1.4.8-.2,1.7,0,2.4.4l51.2,33.6,34.3-62.4c.9-1.6,2.8-2.1,4.3-1.3,1.5.8,2.1,2.8,1.3,4.3l-36,65.5c-.4.8-1.2,1.3-2,1.6-.9.2-1.8,0-2.5-.4l-51.4-33.7-81,128.9c-.7,1-1.8,1.6-2.9,1.5Z"/>
  <path class="cls-12" d="M487.2,23.8c-1.3,0-2.5-1-2.9-2.4l-3.7-14.3-14.3,3.7c-1.7.4-3.5-.6-3.9-2.3-.4-1.7.6-3.5,2.3-3.9L482.2.1c1.7-.4,3.5.6,3.9,2.3l4.5,17.4c.4,1.7-.6,3.5-2.3,3.9-.4,0-.7.1-1,.1Z"/>
  <path class="cls-1" d="M399.5,36.8c-.3,4.7-4.4,8.2-9.1,7.9s-8.2-4.4-7.9-9.1c.3-4.7,4.4-8.2,9.1-7.9,4.7.3,8.2,4.4,7.9,9.1Z"/>
  <path class="cls-1" d="M456.4,72.7c-.5,6.6-6.2,11.6-12.9,11.2s-11.6-6.2-11.2-12.8c.5-6.6,6.2-11.6,12.8-11.2,6.6.5,11.6,6.2,11.2,12.9Z"/>
  <path class="cls-12" d="M451.1,72.3c-.3,3.7-3.5,6.5-7.2,6.2s-6.5-3.5-6.2-7.2c.3-3.7,3.5-6.5,7.2-6.2,3.7.3,6.5,3.5,6.2,7.2Z"/>
  <path class="cls-14" d="M371.5,157c6.2-37.2-18.9-72.4-56.1-78.7-37.2-6.2-72.4,18.9-78.7,56.1-6.2,37.2,18.9,72.4,56.1,78.7,37.2,6.2,72.4-18.9,78.7-56.1Z"/>
  <path class="cls-3" d="M304.2,201c30.6,0,55.3-24.8,55.3-55.3s-24.8-55.3-55.3-55.3-55.3,24.8-55.3,55.3,24.8,55.3,55.3,55.3Z"/>
  <path class="cls-14" d="M332.5,125.2l-11.8,40.9h-9.2l-7.3-25.7-7.3,25.7h-9.2l-11.8-40.9h9.8l7,26.8,7-26.8h9.5l7,26.7,7.1-26.7h9.3Z"/>
  <path class="cls-14" d="M335.8,136.2h-63.2v4.2h63.2v-4.2Z"/>
  <g class="cls-20">
    <path class="cls-4" d="M236.7,134.8l60.9,78.9c2.1.2,4.3.3,6.5.3,15.2,0,29.2-5,40.6-13.4l-83.5-108.1c-12.8,10.4-21.8,25.3-24.6,42.3Z"/>
    <path class="cls-4" d="M365,176.8l-75.5-97.8c-5,1.1-9.9,2.8-14.5,4.9l81.5,105.6c3.3-3.9,6.1-8.2,8.4-12.7Z"/>
  </g>
  <path class="cls-6" d="M304.2,208.3c-34.5,0-62.6-28.1-62.6-62.6s28.1-62.6,62.6-62.6,62.6,28.1,62.6,62.6-28.1,62.6-62.6,62.6ZM304.2,84.6c-33.7,0-61.1,27.4-61.1,61.1s27.4,61.1,61.1,61.1,61.1-27.4,61.1-61.1-27.4-61.1-61.1-61.1Z"/>
  <path class="cls-7" d="M341.5,182.2c-9.7,0-18.3,3.2-23.3,8-3-4.8-8.1-8-14-8s-8.8,2-11.9,5.2c-3-6.6-10.4-11.3-19-11.3s-20.5,8-20.5,17.8,9.2,17.8,20.5,17.8,11.3-2.2,15.1-5.8c2.3,6.9,8.5,11.8,15.8,11.8s11-3.2,14-8c5,4.8,13.6,8,23.3,8,15.5,0,28-8,28-17.8,0-9.8-12.5-17.8-28-17.8Z"/>
  <path class="cls-5" d="M411.3,164.5c-1.6-6.8-5.4-11.7-11.6-14.2,2.2,2.4,3.7,5.5,4.5,9.2.2.8.3,1.5.4,2.3v3c-.2,1-.3,2.1-.5,3.1-.9,3.8-2.7,7-5.5,9.8-8,8-15.9,15.9-23.9,23.9-2.7,2.7-6.4,3-9.3,1.1,1.6,1.6,3.3,3.3,4.9,4.9,3.1,3.1,7.7,3.1,10.8,0,8.1-8.1,16.3-16.3,24.4-24.4,2.8-2.8,4.7-6.1,5.6-10,.2-1,.4-2.1.6-3.2v-3.1c-.2-.8-.2-1.6-.4-2.4Z"/>
  <path class="cls-9" d="M404.3,159.5c-.8-3.6-2.3-6.7-4.5-9.2-.6-.2-1.2-.5-1.9-.7-7.1-2.3-13.6-.8-19.2,4-1,.9-1.8,1.9-2.7,3-.7-.7-1.2-1.2-1.8-1.8-1.3-1.3-2.7-2.5-4.3-3.4-.4-.2-.8-.5-1.2-.7-.3-.1-.6-.3-1-.4-6.1-2.5-12.1-2.3-17.9.9-5.3,3-8.6,7.6-9.8,13.6-.2.8-.3,1.6-.4,2.4v2.9c0,.2,0,.4.1.6.5,4.8,2.5,8.8,5.9,12.2,6.6,6.6,13.2,13.2,19.8,19.8,2.9,1.9,6.6,1.6,9.3-1.1,8-8,16-15.9,23.9-23.9,2.7-2.8,4.6-6,5.5-9.8.2-1,.4-2.1.5-3.1v-3c-.1-.8-.2-1.5-.4-2.3Z"/>
  <path class="cls-2" d="M352.5,156.5c-2.2.3-4.1,1.9-5.2,3.8-1.3,2.2-1.5,4.9-1.1,7.4,0,.6.5,1.1,1.1,1.1s1.2-.5,1.1-1.1c-.3-2.1-.2-4.3.8-6.1.8-1.5,2.2-2.7,4-2.9.6,0,.9-.8.8-1.4-.2-.7-.8-.9-1.4-.8Z"/>
  <path class="cls-2" d="M348.5,173.7c.2.2.3.4.5.7,0,.1.2.2.3.3.1.1.2.2.4.2.1,0,.3,0,.5,0,.1,0,.3,0,.4-.1,0,0,.1-.1.2-.2.1-.1.2-.3.3-.5,0-.1,0-.2,0-.3,0-.2,0-.4-.1-.6-.2-.2-.3-.4-.5-.7,0-.1-.2-.2-.3-.3-.1,0-.2-.2-.4-.2-.1,0-.3,0-.4,0-.1,0-.3,0-.4.1,0,0-.1.1-.2.2-.1.1-.2.3-.3.5,0,0,0,.2,0,.3,0,.2,0,.4.1.6Z"/>
  <path class="cls-1" d="M234.9,225.8c.4-1.2,1-2.4,1.7-3.6,5.1-8.4,16-11.1,24.4-6l59.4,35.9,55.4-11.7c.3-.4.6-.8.8-1.2h-41.6c-11.5,0-20.8-9.3-20.8-20.8s9.3-20.8,20.8-20.8h29.8c-6.2-3.8-13.8-6-22-6s-17.6,2.8-24.2,7.4c-3-.6-6.2-.9-9.5-.9-4.7,0-9.3.7-13.5,1.9-6.7-10.6-20-17.9-35.2-17.9-22,0-39.9,15.2-39.9,33.9s0,1.9.1,2.8c2.3.3,4.6,1.1,6.7,2.4l7.5,4.6Z"/>
  <path class="cls-1" d="M382.9,197.5c-1.8-.4-3.6-.5-5.6-.5s-3.8.2-5.6.5h11.1Z"/>
  <path class="cls-13" d="M260.4,250c4.1,0,8.2-.5,11.9-1.5,6.7,11.5,20.6,19.4,36.7,19.4s22.8-4.4,30.3-11.4c1.1,0,2.2.1,3.4.1,14.1,0,26.4-6.5,33-16.2l-55.4,11.7-59.4-35.9c-8.4-5.1-19.3-2.4-24.4,6-.7,1.2-1.2,2.4-1.7,3.6l-7.5-4.6c-2.1-1.3-4.4-2.1-6.7-2.4,1.7,17.4,18.8,31.2,39.8,31.2Z"/>
  <path class="cls-13" d="M314.1,218.3c0,11.5,9.3,20.8,20.8,20.8h41.6c0,0,.1-.1.2-.2.2,0,.4,0,.7,0,13.6,0,24.6-9.4,24.6-20.9s-8.1-18.3-19.1-20.4h-11.1c-1.7.3-3.3.8-4.8,1.4-.7-.5-1.4-1-2.2-1.4h-29.8c-11.5,0-20.8,9.3-20.8,20.8Z"/>
  <path class="cls-8" d="M385.4,131.6c0,.3,0,.6-.1.9-.2,1.1-.8,1.9-1.5,2.7l-6.6,6.6c-.8.8-2.1.8-2.9,0-2.2-2.2-4.4-4.4-6.6-6.6-.9-.9-1.4-2-1.6-3.3,0,0,0-.1,0-.2v-.8c0-.2,0-.4.1-.6.3-1.6,1.2-2.8,2.6-3.6,1.5-.9,3.2-.9,4.8-.2.7.3,1.2.7,1.7,1.2.1.1.3.3.5.5.3-.3.5-.6.7-.8,1.5-1.3,3.3-1.7,5.2-1.1,2,.6,3.1,2,3.6,4,0,.2,0,.4.1.6,0,.3,0,.6,0,.8Z"/>
  <path class="cls-10" d="M192.2,74.7c.8-3.5-1.3-7.1-4.9-7.9-3.5-.8-7.1,1.3-7.9,4.9s1.3,7.1,4.9,7.9c3.5.8,7.1-1.3,7.9-4.9Z"/>
  <path class="cls-10" d="M179.3,216.7c23.1,0,41.8-18.7,41.8-41.8s-18.7-41.8-41.8-41.8-41.8,18.7-41.8,41.8,18.7,41.8,41.8,41.8Z"/>
  <path class="cls-10" d="M157.8,45.2c11.9-2.8,19.3-14.7,16.6-26.6-2.8-11.9-14.7-19.3-26.6-16.6-11.9,2.8-19.3,14.7-16.6,26.6,2.8,11.9,14.7,19.3,26.6,16.6Z"/>
  <path class="cls-3" d="M346.7,28.1c0,1.8-3.4,3.2-3.8,4.9-.5,1.8,1.7,4.6.9,6.1-.9,1.6-4.5,1.1-5.8,2.3-1.3,1.3-.8,4.9-2.3,5.8-1.5.9-4.4-1.3-6.1-.9-1.7.5-3.1,3.8-4.9,3.8s-3.2-3.4-4.9-3.8c-1.8-.5-4.6,1.7-6.1.9-1.6-.9-1.1-4.5-2.3-5.8-1.3-1.3-4.9-.8-5.8-2.3-.9-1.5,1.3-4.4.9-6.1-.4-1.7-3.8-3.1-3.8-4.9s3.4-3.2,3.8-4.9c.5-1.8-1.7-4.6-.9-6.1.9-1.5,4.5-1.1,5.8-2.3s.8-4.8,2.3-5.8c1.5-.9,4.4,1.3,6.1.9,1.7-.5,3.1-3.8,4.9-3.8s3.2,3.4,4.9,3.8c1.8.5,4.6-1.7,6.1-.9,1.5.9,1.1,4.5,2.3,5.8,1.3,1.3,4.9.8,5.8,2.3.9,1.5-1.3,4.4-.9,6.1.5,1.7,3.8,3.1,3.8,4.9Z"/>
  <path class="cls-14" d="M324.7,43.8c8.7,0,15.7-7,15.7-15.7s-7-15.7-15.7-15.7-15.7,7-15.7,15.7,7,15.7,15.7,15.7Z"/>
  <path class="cls-12" d="M322.3,35.7h0c-.5,0-1-.3-1.2-.7l-4.7-7.5c-.4-.7-.2-1.6.5-2.1.7-.4,1.6-.2,2.1.5l3.5,5.7,8.1-10.6c.5-.7,1.4-.8,2.1-.3s.8,1.5.3,2.1l-9.4,12.3c-.3.4-.7.6-1.2.6Z"/>
  <path class="cls-12" d="M241.5,91.4c16.7,0,30.2-13.5,30.2-30.2s-13.5-30.2-30.2-30.2-30.2,13.5-30.2,30.2,13.5,30.2,30.2,30.2Z"/>
  <path class="cls-12" d="M244.4,83.8l22.5,17.1-8.8-27.8-13.7,10.7Z"/>
  <path class="cls-7" d="M258.1,63.8h-33.2c-1.4,0-2.5-1.1-2.5-2.5s1.1-2.5,2.5-2.5h33.2c1.4,0,2.5,1.1,2.5,2.5,0,1.4-1.1,2.5-2.5,2.5Z"/>
  <path class="cls-7" d="M241.5,80.4c-1.4,0-2.5-1.1-2.5-2.5v-33.2c0-1.4,1.1-2.5,2.5-2.5s2.5,1.1,2.5,2.5v33.2c0,1.4-1.1,2.5-2.5,2.5Z"/>
  <path class="cls-1" d="M256.3,62h-33.2c-1.4,0-2.5-1.1-2.5-2.5s1.1-2.5,2.5-2.5h33.2c1.4,0,2.5,1.1,2.5,2.5s-1.1,2.5-2.5,2.5Z"/>
  <path class="cls-1" d="M239.8,78.6c-1.4,0-2.5-1.1-2.5-2.5v-33.2c0-1.4,1.1-2.5,2.5-2.5s2.5,1.1,2.5,2.5v33.2c0,1.4-1.1,2.5-2.5,2.5Z"/>
  <path class="cls-3" d="M292.3,26.7c0,1.7-1.4,3.1-3.1,3.1s-3.1-1.4-3.1-3.1,1.4-3.1,3.1-3.1,3.1,1.4,3.1,3.1Z"/>
  <path class="cls-3" d="M399.5,121.1c3.3,0,6-2.7,6-6.1s-2.7-6.1-6-6.1-6.1,2.7-6.1,6.1,2.7,6.1,6.1,6.1Z"/>
  <path class="cls-15" d="M279,300.5c-3.2,0-6.4-.9-9.2-2.6l-67.9-41.1c-8.4-5.1-11.1-16-6-24.4,5.1-8.4,16-11.1,24.4-6l61.9,37.5,111.3-23.6c9.6-2,19,4.1,21.1,13.7,2,9.6-4.1,19-13.7,21.1l-118.2,25c-1.2.2-2.5.4-3.7.4Z"/>
  <path class="cls-15" d="M312.6,295.5c-3.2,0-6.4-.9-9.2-2.6l-67.9-41.1c-8.4-5.1-11.1-16-6-24.4,5.1-8.4,16-11.1,24.4-6l61.9,37.5,111.4-23.6c9.6-2,19,4.1,21.1,13.7,2,9.6-4.1,19-13.7,21.1l-118.2,25c-1.2.3-2.5.4-3.7.4Z"/>
  <path class="cls-15" d="M482.6,211.3c-15-5.6-30.9-8.5-46.9-8.5h-107.8c-11.5,0-20.8,9.3-20.8,20.8s9.3,20.8,20.8,20.8h42.2v17.8l-139.4,4.8,59.3,53.6c14,12.7,33,18.3,51.6,15.2l197.6-32v-71.3l-56.6-21.2Z"/>
  <path class="cls-17" d="M199,240s15.1,5.9,15.1,11.9"/>
  <path class="cls-17" d="M230.7,240l72.7,53s20.1,18.2,38.1,13.2"/>
  <path class="cls-17" d="M237.8,231.8s16,7.2,16.4,14.1"/>
  <path class="cls-17" d="M264.7,291.4l34.9,25.6s15.1,10.1,30.2,9.7"/>
  <path class="cls-17" d="M320,211.2h14.6s5.2,1.7,5.2,11.8-2.6,11.8-5.2,12.9c-2.6,1.1-15.7,0-15.7,0"/>
  <path class="cls-11" d="M579.6,204.1h-65.5v125.9h65.5v-125.9Z"/>
  <path class="cls-14" d="M645.3,204.1h-65.8v125.9h65.8v-125.9Z"/>
  <path class="cls-19" d="M529.2,218.9v96.3"/>
  <path class="cls-19" d="M555.9,310.2c2.2-2.2,2.2-5.8,0-8.1-2.2-2.2-5.8-2.2-8.1,0-2.2,2.2-2.2,5.8,0,8.1,2.2,2.2,5.8,2.2,8.1,0Z"/>
  <path class="cls-18" d="M2.9,101v74.5"/>
  <path class="cls-18" d="M20.1,175.6v-74.5"/>
  <path class="cls-18" d="M37.3,101v74.5"/>
  <path class="cls-18" d="M54.4,101v74.5"/>
  <path class="cls-18" d="M71.6,101v74.5"/>
  <path class="cls-18" d="M74.6,104H0"/>
  <path class="cls-18" d="M74.6,121.1H0"/>
  <path class="cls-18" d="M74.6,138.3H0"/>
  <path class="cls-18" d="M74.6,155.5H0"/>
  <path class="cls-18" d="M74.6,172.7H0"/>
  <path class="cls-12" d="M49.7,172.2h9.5v-42h-9.5v42Z"/>
  <path class="cls-12" d="M32.5,172.2h9.5v-25.8h-9.5v25.8Z"/>
  <path class="cls-12" d="M14.9,172.2h9.5v-57.8h-9.5v57.8Z"/>
  <path class="cls-18" d="M711.7,250c-4.6-6.2-6.9-13.8-6.6-21.4.2-6.6,2.4-13.1,6.6-18.8"/>
  <path class="cls-18" d="M758.9,202.7c2.3,1.7,4.3,3.6,6,5.7,2.5,3.1,4.5,6.5,5.8,10.2,3.6,10.2,2.3,22-4.6,31.4-2.3,3.2-5.1,5.8-8.2,7.9"/>
  <path class="cls-18" d="M738.9,270.2c22.3,0,40.3-18.1,40.3-40.3s-18.1-40.3-40.3-40.3-40.3,18.1-40.3,40.3,18.1,40.3,40.3,40.3Z"/>
  <path class="cls-18" d="M758.7,236.5l-.7-.5c-.7-.5-.7-1.6,0-2.1l2.3-1.8c.7-.5.7-1.6,0-2.1l-2.8-2.1c-.5-.4-1.1-.3-1.6,0l-3.4,2.7c-.5.4-1.1.4-1.6,0l-3.4-2.5c-.5-.4-.7-1-.4-1.6l1.6-4c.2-.6,0-1.2-.4-1.6l-3.5-2.6c-.5-.4-1.1-.3-1.6,0l-3.4,2.7c-.5.4-1.1.4-1.6,0l-3.4-2.5c-.5-.4-.7-1-.4-1.6l1.6-4c.2-.6,0-1.2-.4-1.5l-3.1-2.3c-.7-.5-1.7-.2-2,.6l-1,2.7c-.3.8-1.3,1.1-2,.6l-.7-.5c-.6-.4-1.4-.3-1.8.3l-1.6,2.1c-.4.6-.3,1.4.3,1.8l2.5,1.9c.5.3.7,1,.5,1.5l-5.1,13.8c-.2.5,0,1.2.5,1.5l3.4,2.5c.5.4,1.1.3,1.6,0l12.4-9.6.5.4-5.5,14.7c-.2.6,0,1.2.4,1.5l3.4,2.5c.5.3,1.1.3,1.6,0l11.7-9c.5-.4,1.1-.4,1.6,0l2.5,1.9c.6.4,1.4.3,1.8-.3l1.6-2.1c.4-.5.3-1.4-.3-1.8ZM731.3,224.9h0c.3-.9,1.3-1.1,2-.6h0c.7.5.7,1.6,0,2.1h0c-1.1.9-2.5-.2-2-1.5ZM744.1,234.2c.3-.8,1.3-1.1,2-.6.7.5.7,1.6,0,2.1-1,.8-2.5-.3-2-1.5Z"/>
  <path class="cls-16" d="M652.5,103.3v14.4"/>
  <path class="cls-16" d="M659.7,110.5h-14.4"/>
  <path class="cls-16" d="M71.6,209.5v14.4"/>
  <path class="cls-16" d="M78.8,216.7h-14.4"/>
  <path class="cls-18" d="M629.2,145.3v-5.2h-3.2c-.2-1.4-.6-2.7-1.1-4l2.8-1.6-2.6-4.5-2.8,1.6c-.9-1.1-1.8-2.1-2.9-2.9l1.6-2.8-4.5-2.6-1.6,2.8c-1.3-.5-2.6-.9-4-1.1v-3.2h-5.2v3.2c-1.4.2-2.7.6-4,1.1l-1.6-2.8-4.5,2.6,1.6,2.8c-1.1.9-2.1,1.8-2.9,2.9l-2.8-1.6-2.6,4.5,2.8,1.6c-.5,1.3-.9,2.6-1.1,4h-3.2v5.2h3.2c.2,1.4.6,2.7,1.1,4l-2.8,1.6,2.6,4.5,2.8-1.6c.9,1.1,1.8,2.1,2.9,2.9l-1.6,2.8,4.5,2.6,1.6-2.8c1.3.5,2.6.9,4,1.1v3.2h5.2v-3.2c1.4-.2,2.7-.6,4-1.1l1.6,2.8,4.5-2.6-1.6-2.8c1.1-.9,2.1-1.8,2.9-2.9l2.8,1.6,2.6-4.5-2.8-1.6c.5-1.3.9-2.6,1.1-4h3.2Z"/>
  <path class="cls-18" d="M608.3,146c1.8,0,3.3-1.5,3.3-3.3s-1.5-3.3-3.3-3.3-3.3,1.5-3.3,3.3,1.5,3.3,3.3,3.3Z"/>
  <path class="cls-18" d="M635.7,49.8h-38.8c-3.1,0-5.7,2.5-5.7,5.7v38.8c0,3.1,2.5,5.7,5.7,5.7h7l5.9,9.8v-9.8h25.9c3.1,0,5.7-2.5,5.7-5.7v-38.8c0-3.1-2.5-5.7-5.7-5.7Z"/>
  <path class="cls-12" d="M614.1,88.9c-.7,0-1.4-.4-1.8-1l-9.2-14c-.6-1-.4-2.3.6-3,1-.7,2.3-.4,3,.6l7.4,11.1,11.8-19.5c.6-1,1.9-1.3,2.9-.7s1.3,1.9.7,2.9l-13.5,22.4c-.4.6-1,1-1.8,1h0Z"/>
</svg>