<svg width="400" height="214" viewBox="0 0 400 214" fill="none" xmlns="http://www.w3.org/2000/svg">
<g clip-path="url(#clip0_878_11828)">
<g clip-path="url(#clip1_878_11828)">
<path d="M141.277 77.4203C141.277 75.3413 139.256 73.6565 136.732 73.592C136.865 73.0973 136.936 72.5811 136.936 72.0542C136.936 68.0646 132.983 64.8348 128.104 64.8348C126.864 64.8348 125.681 65.0463 124.609 65.4227C123.688 59.691 117.694 55.2676 110.432 55.2676C102.531 55.2676 96.1294 60.5047 96.1294 66.9641C96.1294 67.129 96.1366 67.2939 96.1437 67.4588C91.8207 67.7635 88.4297 70.7279 88.4297 74.3412C88.4297 78.1588 92.215 81.2523 96.8821 81.2523H136.936V81.2379C139.363 81.0946 141.277 79.4421 141.277 77.4203Z" fill="white"/>
<path d="M308.335 78.7451C308.335 77.3865 307.012 76.2825 305.363 76.243C305.449 75.9204 305.496 75.5835 305.496 75.2358C305.496 72.6298 302.911 70.5149 299.721 70.5149C298.907 70.5149 298.137 70.6511 297.434 70.8984C296.832 67.1525 292.914 64.2598 288.164 64.2598C282.999 64.2598 278.812 67.683 278.812 71.9057C278.812 72.0132 278.816 72.1208 278.823 72.2283C275.995 72.429 273.779 74.3647 273.779 76.7306C273.779 79.2254 276.253 81.2507 279.307 81.2507H305.496V81.24C307.08 81.1468 308.335 80.0678 308.335 78.7451Z" fill="white"/>
<path d="M67.1784 58.1305C67.1784 56.5139 65.6048 55.2019 63.6404 55.1518C63.7444 54.7646 63.7981 54.3667 63.7981 53.9545C63.7981 50.8502 60.7226 48.3339 56.9265 48.3339C55.9586 48.3339 55.041 48.4988 54.2058 48.7927C53.4889 44.3335 48.8253 40.8887 43.1724 40.8887C37.0248 40.8887 32.0423 44.9644 32.0423 49.9899C32.0423 50.119 32.0494 50.248 32.053 50.3735C28.6871 50.6101 26.0488 52.9186 26.0488 55.7325C26.0488 58.7041 28.9954 61.1129 32.6266 61.1129H63.7981V61.1022C65.6872 60.9911 67.1784 59.7042 67.1784 58.1305Z" fill="white"/>
<path d="M33.9765 209.226C26.9829 204.612 20.2009 200.357 13.5228 200.357C6.8232 200.357 0.0626681 204.612 -6.93087 209.226C-11.7199 212.384 -16.939 213.961 -22.1582 213.961H49.2181C43.9918 213.965 38.7691 212.387 33.9765 209.226Z" fill="#A7DF87"/>
<path d="M13.5273 213.965H49.2155C43.9928 213.968 38.7664 212.388 33.9738 209.23C26.9803 204.616 20.2018 200.365 13.5273 200.361V213.965Z" fill="#75CC62"/>
<path d="M335.282 204.902C335.282 204.902 342.021 205.773 342.021 196.45C342.021 189.202 338.895 184.696 336.899 182.563C336.028 181.627 334.536 181.627 333.665 182.563C331.672 184.699 328.543 189.202 328.543 196.45C328.543 205.773 335.282 204.902 335.282 204.902Z" fill="#75CC62"/>
<path d="M342.018 196.449C342.018 189.201 338.893 184.695 336.896 182.562C336.459 182.096 335.871 181.859 335.279 181.859V204.901C335.283 204.901 342.018 205.772 342.018 196.449Z" fill="#A7DF87"/>
<path d="M336.073 200.383H334.492V211.137H336.073V200.383Z" fill="#AA7D57"/>
<path d="M336.068 200.383H335.279V211.137H336.068V200.383Z" fill="#BF9773"/>
<path d="M76.4102 106.121L79.8621 110.656L83.3105 106.121L86.7589 110.656L90.2109 106.121L93.6592 110.656L97.1112 106.121L100.56 110.656L104.012 106.121L107.467 110.656L110.923 106.121V106.426V149.842L107.471 145.308L104.022 149.842L100.574 145.308L97.1219 149.842L93.6736 145.308L90.2216 149.842L86.7732 145.308L83.3213 149.842L79.8657 145.308L76.4102 149.842L75.1699 107.63L76.4102 106.121Z" fill="#DDDDDD"/>
<path d="M75.1699 107.631L78.6219 112.169L82.0703 107.631L85.5222 112.169L88.9706 107.631L92.4226 112.169L95.8709 107.631L99.3229 112.169L102.775 107.631L106.227 112.169L109.682 107.631V107.939V151.356L106.23 146.818L102.782 151.356L99.3336 146.818L95.8817 151.356L92.4333 146.818L88.9813 151.356L85.533 146.818L82.081 151.356L78.6255 146.818L75.1699 151.356V107.939V107.631Z" fill="white"/>
<path d="M83.6606 134.84C83.8004 134.84 83.9223 134.872 84.0298 134.94C84.1374 135.008 84.2162 135.12 84.2664 135.281L84.9367 137.607H86.3526L87.0337 135.152C87.0696 135.016 87.1484 134.93 87.2631 134.887C87.3814 134.844 87.4997 134.836 87.6252 134.858C87.7721 134.883 87.8797 134.937 87.9478 135.023C88.0159 135.109 88.0338 135.22 87.998 135.353L87.3061 137.604H88.274C88.3672 137.604 88.4353 137.629 88.4783 137.683C88.5177 137.736 88.5392 137.801 88.5392 137.88C88.5392 137.959 88.5177 138.027 88.4783 138.077C88.4389 138.131 88.3708 138.156 88.274 138.156H87.152L86.2953 141.023C86.2451 141.181 86.1627 141.296 86.048 141.364C85.9332 141.432 85.815 141.464 85.6895 141.464C85.5569 141.464 85.435 141.428 85.3203 141.357C85.2056 141.285 85.1267 141.17 85.0837 141.013L84.2592 138.156H83.019L82.1623 141.023C82.1121 141.181 82.026 141.296 81.9113 141.364C81.793 141.432 81.6748 141.464 81.5493 141.464C81.4238 141.464 81.3055 141.428 81.1873 141.357C81.069 141.285 80.9901 141.17 80.9471 141.013L80.0796 138.156H78.9684C78.8716 138.156 78.8035 138.131 78.7641 138.077C78.7246 138.027 78.7031 137.959 78.7031 137.88C78.7031 137.801 78.7246 137.733 78.7641 137.683C78.8035 137.632 78.8716 137.604 78.9684 137.604H79.9255L79.2552 135.353C79.2121 135.216 79.2265 135.109 79.2982 135.023C79.3699 134.937 79.481 134.883 79.628 134.858C79.7534 134.826 79.8717 134.833 79.99 134.876C80.1083 134.919 80.1836 135.012 80.2194 135.152L80.9005 137.607H82.3522L83.0548 135.281C83.105 135.123 83.1839 135.008 83.2842 134.94C83.3918 134.876 83.5137 134.84 83.6606 134.84ZM82.1909 138.159H81.0582L81.6066 140.081L82.1909 138.159ZM84.1015 137.607L83.6606 136.073L83.1875 137.607H84.1015ZM86.1985 138.159H85.1016L85.6608 140.081L86.1985 138.159Z" fill="#ADADAD"/>
<path d="M78.9863 125.041H105.867" stroke="#ADADAD" stroke-width="0.896147" stroke-miterlimit="10" stroke-linecap="round" stroke-linejoin="round"/>
<path d="M78.9863 130.346H105.867" stroke="#ADADAD" stroke-width="0.896147" stroke-miterlimit="10" stroke-linecap="round" stroke-linejoin="round"/>
<path d="M91.125 139.83H105.868" stroke="#ADADAD" stroke-width="0.896147" stroke-miterlimit="10" stroke-linecap="round" stroke-linejoin="round"/>
<path d="M409.896 206.791C397.618 199.804 385.717 193.359 373.996 193.359C362.238 193.359 350.373 199.804 338.096 206.791C329.694 211.573 320.532 213.964 311.373 213.964H436.647C427.478 213.967 418.309 211.576 409.896 206.791Z" fill="#A7DF87"/>
<path d="M374.006 213.964H436.643C427.474 213.967 418.304 211.576 409.895 206.791C397.621 199.808 385.727 193.367 374.009 193.359V213.964H374.006Z" fill="#75CC62"/>
<path d="M119.021 213.939H69.8547C68.9012 213.939 68.127 213.165 68.127 212.211V146.466C68.127 145.513 68.9012 144.738 69.8547 144.738H119.021C119.974 144.738 120.749 145.513 120.749 146.466V212.211C120.749 213.165 119.974 213.939 119.021 213.939Z" fill="#AAA388"/>
<path d="M116.462 213.939H67.2961C66.3426 213.939 65.5684 213.165 65.5684 212.211V146.466C65.5684 145.513 66.3426 144.738 67.2961 144.738H116.462C117.416 144.738 118.19 145.513 118.19 146.466V212.211C118.19 213.165 117.416 213.939 116.462 213.939Z" fill="#C6BA9E"/>
<path d="M79.1852 183.623H72.6899C72.1271 183.623 71.6719 183.168 71.6719 182.605V176.11C71.6719 175.547 72.1271 175.092 72.6899 175.092H79.1852C79.748 175.092 80.2032 175.547 80.2032 176.11V182.605C80.2032 183.168 79.748 183.623 79.1852 183.623Z" fill="#CCB38F"/>
<path d="M90.5663 183.623H84.0747C83.5119 183.623 83.0566 183.168 83.0566 182.605V176.11C83.0566 175.547 83.5119 175.092 84.0747 175.092H90.5699C91.1327 175.092 91.588 175.547 91.588 176.11V182.605C91.5844 183.168 91.1291 183.623 90.5663 183.623Z" fill="#CCB38F"/>
<path d="M101.947 183.623H95.4516C94.8888 183.623 94.4336 183.168 94.4336 182.605V176.11C94.4336 175.547 94.8888 175.092 95.4516 175.092H101.947C102.51 175.092 102.965 175.547 102.965 176.11V182.605C102.965 183.168 102.51 183.623 101.947 183.623Z" fill="#CCB38F"/>
<path d="M113.334 183.623H106.838C106.276 183.623 105.82 183.168 105.82 182.605V176.11C105.82 175.547 106.276 175.092 106.838 175.092H113.334C113.896 175.092 114.352 175.547 114.352 176.11V182.605C114.348 183.168 113.893 183.623 113.334 183.623Z" fill="#CCB38F"/>
<path d="M79.1852 195.647H72.6899C72.1271 195.647 71.6719 195.191 71.6719 194.629V188.133C71.6719 187.57 72.1271 187.115 72.6899 187.115H79.1852C79.748 187.115 80.2032 187.57 80.2032 188.133V194.629C80.2032 195.191 79.748 195.647 79.1852 195.647Z" fill="#CCB38F"/>
<path d="M90.5663 195.647H84.0747C83.5119 195.647 83.0566 195.191 83.0566 194.629V188.133C83.0566 187.57 83.5119 187.115 84.0747 187.115H90.5699C91.1327 187.115 91.588 187.57 91.588 188.133V194.629C91.5844 195.191 91.1291 195.647 90.5663 195.647Z" fill="#CCB38F"/>
<path d="M101.947 195.647H95.4516C94.8888 195.647 94.4336 195.191 94.4336 194.629V188.133C94.4336 187.57 94.8888 187.115 95.4516 187.115H101.947C102.51 187.115 102.965 187.57 102.965 188.133V194.629C102.965 195.191 102.51 195.647 101.947 195.647Z" fill="#CCB38F"/>
<path d="M113.334 207.673H106.838C106.276 207.673 105.82 207.218 105.82 206.655V188.133C105.82 187.57 106.276 187.115 106.838 187.115H113.334C113.896 187.115 114.352 187.57 114.352 188.133V206.655C114.348 207.218 113.893 207.673 113.334 207.673Z" fill="#CCB38F"/>
<path d="M79.1852 207.672H72.6899C72.1271 207.672 71.6719 207.217 71.6719 206.654V200.163C71.6719 199.6 72.1271 199.145 72.6899 199.145H79.1852C79.748 199.145 80.2032 199.6 80.2032 200.163V206.658C80.2032 207.217 79.748 207.672 79.1852 207.672Z" fill="#CCB38F"/>
<path d="M90.5663 207.672H84.0747C83.5119 207.672 83.0566 207.217 83.0566 206.654V200.163C83.0566 199.6 83.5119 199.145 84.0747 199.145H90.5699C91.1327 199.145 91.588 199.6 91.588 200.163V206.658C91.5844 207.217 91.1291 207.672 90.5663 207.672Z" fill="#CCB38F"/>
<path d="M101.947 207.672H95.4516C94.8888 207.672 94.4336 207.217 94.4336 206.654V200.163C94.4336 199.6 94.8888 199.145 95.4516 199.145H101.947C102.51 199.145 102.965 199.6 102.965 200.163V206.658C102.965 207.217 102.51 207.672 101.947 207.672Z" fill="#CCB38F"/>
<path d="M113.219 153.514H70.5449V168.637H113.219V153.514Z" fill="white"/>
<path d="M78.0524 183.604H71.5571C70.9943 183.604 70.5391 183.148 70.5391 182.586V176.09C70.5391 175.528 70.9943 175.072 71.5571 175.072H78.0524C78.6151 175.072 79.0704 175.528 79.0704 176.09V182.586C79.0704 183.148 78.6151 183.604 78.0524 183.604Z" fill="#E8D6B1"/>
<path d="M89.4332 183.604H82.9379C82.3752 183.604 81.9199 183.148 81.9199 182.586V176.09C81.9199 175.528 82.3752 175.072 82.9379 175.072H89.4332C89.996 175.072 90.4513 175.528 90.4513 176.09V182.586C90.4513 183.148 89.996 183.604 89.4332 183.604Z" fill="#E8D6B1"/>
<path d="M100.814 183.604H94.3188C93.756 183.604 93.3008 183.148 93.3008 182.586V176.09C93.3008 175.528 93.756 175.072 94.3188 175.072H100.814C101.377 175.072 101.832 175.528 101.832 176.09V182.586C101.832 183.148 101.377 183.604 100.814 183.604Z" fill="#E8D6B1"/>
<path d="M112.201 183.604H105.706C105.143 183.604 104.688 183.148 104.688 182.586V176.09C104.688 175.528 105.143 175.072 105.706 175.072H112.201C112.764 175.072 113.219 175.528 113.219 176.09V182.586C113.215 183.148 112.76 183.604 112.201 183.604Z" fill="#E8D6B1"/>
<path d="M78.0524 195.629H71.5571C70.9943 195.629 70.5391 195.174 70.5391 194.611V188.116C70.5391 187.553 70.9943 187.098 71.5571 187.098H78.0524C78.6151 187.098 79.0704 187.553 79.0704 188.116V194.611C79.0704 195.174 78.6151 195.629 78.0524 195.629Z" fill="#E8D6B1"/>
<path d="M89.4332 195.629H82.9379C82.3752 195.629 81.9199 195.174 81.9199 194.611V188.116C81.9199 187.553 82.3752 187.098 82.9379 187.098H89.4332C89.996 187.098 90.4513 187.553 90.4513 188.116V194.611C90.4513 195.174 89.996 195.629 89.4332 195.629Z" fill="#E8D6B1"/>
<path d="M100.814 195.629H94.3188C93.756 195.629 93.3008 195.174 93.3008 194.611V188.116C93.3008 187.553 93.756 187.098 94.3188 187.098H100.814C101.377 187.098 101.832 187.553 101.832 188.116V194.611C101.832 195.174 101.377 195.629 100.814 195.629Z" fill="#E8D6B1"/>
<path d="M112.201 207.655H105.706C105.143 207.655 104.688 207.2 104.688 206.637V188.116C104.688 187.553 105.143 187.098 105.706 187.098H112.201C112.764 187.098 113.219 187.553 113.219 188.116V206.637C113.215 207.2 112.76 207.655 112.201 207.655Z" fill="#E8D6B1"/>
<path d="M78.0524 207.654H71.5571C70.9943 207.654 70.5391 207.199 70.5391 206.636V200.141C70.5391 199.578 70.9943 199.123 71.5571 199.123H78.0524C78.6151 199.123 79.0704 199.578 79.0704 200.141V206.636C79.0704 207.199 78.6151 207.654 78.0524 207.654Z" fill="#E8D6B1"/>
<path d="M89.4332 207.654H82.9379C82.3752 207.654 81.9199 207.199 81.9199 206.636V200.141C81.9199 199.578 82.3752 199.123 82.9379 199.123H89.4332C89.996 199.123 90.4513 199.578 90.4513 200.141V206.636C90.4513 207.199 89.996 207.654 89.4332 207.654Z" fill="#E8D6B1"/>
<path d="M100.814 207.654H94.3188C93.756 207.654 93.3008 207.199 93.3008 206.636V200.141C93.3008 199.578 93.756 199.123 94.3188 199.123H100.814C101.377 199.123 101.832 199.578 101.832 200.141V206.636C101.832 207.199 101.377 207.654 100.814 207.654Z" fill="#E8D6B1"/>
<path d="M95.9222 164.517H94.3988V158.982H93.1836V157.652H95.9222V164.517Z" fill="#E8D6B1"/>
<path d="M102.748 159.621C102.748 160.338 102.404 160.951 101.2 162.198L100.214 163.216H102.884V164.514H97.9735V163.639L100.225 161.324C101.049 160.474 101.243 160.026 101.243 159.639C101.243 159.134 100.963 158.797 100.3 158.797C99.6761 158.797 99.3392 159.302 99.3392 159.825H97.8301C97.8301 158.478 98.8481 157.467 100.3 157.467C101.838 157.467 102.748 158.374 102.748 159.621Z" fill="#E8D6B1"/>
<path d="M109.007 159.527C109.007 160.319 108.426 160.9 107.852 161C108.483 161.101 109.193 161.649 109.193 162.534C109.193 163.857 108.071 164.682 106.648 164.682C105.139 164.682 104.203 163.839 104.096 162.517H105.605C105.662 163.065 106.01 163.391 106.648 163.391C107.279 163.391 107.702 163.047 107.702 162.538C107.702 161.964 107.221 161.663 106.505 161.663H105.823V160.416H106.505C107.128 160.416 107.497 160.079 107.497 159.556C107.497 159.05 107.161 158.738 106.587 158.738C105.988 158.738 105.712 159.219 105.712 159.706H104.203C104.203 158.401 105.189 157.455 106.598 157.455C108.021 157.466 109.007 158.297 109.007 159.527Z" fill="#E8D6B1"/>
<path d="M37.7953 178.584H67.0527V172.623H37.7953V178.584Z" fill="#FFCB51"/>
<path d="M64.8554 178.584H67.0527V172.623H64.8554V178.584Z" fill="#EFA748"/>
<path d="M58.6394 178.584H61.8906V172.623H58.6394V178.584Z" fill="#FFD788"/>
<path d="M37.7941 178.584H46.752V172.623H37.7941V178.584Z" fill="#EFA748"/>
<path d="M37.7953 178.584H67.0527V177.76H37.7953V178.584Z" fill="#D88F39"/>
<path d="M39.7484 184.475H69.0059V178.513H39.7484V184.475Z" fill="#FFCB51"/>
<path d="M66.8085 184.475H69.0059V178.513H66.8085V184.475Z" fill="#EFA748"/>
<path d="M60.5925 184.475H63.8438V178.513H60.5925V184.475Z" fill="#FFD788"/>
<path d="M39.7472 184.475H48.7051V178.513H39.7472V184.475Z" fill="#EFA748"/>
<path d="M39.7484 184.475H69.0059V183.65H39.7484V184.475Z" fill="#D88F39"/>
<path d="M43.1703 190.369H72.4277V184.408H43.1703V190.369Z" fill="#FFCB51"/>
<path d="M70.2304 190.369H72.4277V184.408H70.2304V190.369Z" fill="#EFA748"/>
<path d="M64.0105 190.369H67.2617V184.408H64.0105V190.369Z" fill="#FFD788"/>
<path d="M43.1691 190.369H52.127V184.408H43.1691V190.369Z" fill="#EFA748"/>
<path d="M43.1703 190.369H72.4277V189.545H43.1703V190.369Z" fill="#D88F39"/>
<path d="M37.7953 196.264H67.0527V190.302H37.7953V196.264Z" fill="#FFCB51"/>
<path d="M64.8554 196.264H67.0527V190.302H64.8554V196.264Z" fill="#EFA748"/>
<path d="M58.6394 196.264H61.8906V190.302H58.6394V196.264Z" fill="#FFD788"/>
<path d="M37.7941 196.264H46.752V190.302H37.7941V196.264Z" fill="#EFA748"/>
<path d="M37.7953 196.26H67.0527V195.435H37.7953V196.26Z" fill="#D88F39"/>
<path d="M41.5414 202.158H70.7988V196.197H41.5414V202.158Z" fill="#FFCB51"/>
<path d="M68.6015 202.158H70.7988V196.197H68.6015V202.158Z" fill="#EFA748"/>
<path d="M62.3816 202.158H65.6328V196.197H62.3816V202.158Z" fill="#FFD788"/>
<path d="M41.5402 202.158H50.498V196.197H41.5402V202.158Z" fill="#EFA748"/>
<path d="M41.5414 202.154H70.7988V201.33H41.5414V202.154Z" fill="#D88F39"/>
<path d="M39.3461 208.053H68.6035V202.092H39.3461V208.053Z" fill="#FFCB51"/>
<path d="M66.4062 208.053H68.6035V202.092H66.4062V208.053Z" fill="#EFA748"/>
<path d="M60.1863 208.053H63.4375V202.092H60.1863V208.053Z" fill="#FFD788"/>
<path d="M39.3448 208.053H48.3027V202.092H39.3448V208.053Z" fill="#EFA748"/>
<path d="M39.3461 208.049H68.6035V207.224H39.3461V208.049Z" fill="#D88F39"/>
<path d="M41.5414 213.943H70.7988V207.982H41.5414V213.943Z" fill="#FFCB51"/>
<path d="M68.6015 213.943H70.7988V207.982H68.6015V213.943Z" fill="#EFA748"/>
<path d="M62.3816 213.943H65.6328V207.982H62.3816V213.943Z" fill="#FFD788"/>
<path d="M41.5402 213.943H50.498V207.982H41.5402V213.943Z" fill="#EFA748"/>
<path d="M41.5414 213.939H70.7988V213.115H41.5414V213.939Z" fill="#D88F39"/>
<path d="M51.9323 201.563C54.1032 192.817 48.7731 183.967 40.0273 181.796C31.2815 179.626 22.4318 184.956 20.2609 193.701C18.0899 202.447 23.42 211.297 32.1658 213.468C40.9116 215.639 49.7613 210.309 51.9323 201.563Z" fill="#D88F39"/>
<path d="M45.088 209.175C51.4601 202.802 51.4601 192.471 45.088 186.099C38.7158 179.727 28.3845 179.727 22.0124 186.099C15.6403 192.471 15.6403 202.802 22.0124 209.175C28.3845 215.547 38.7158 215.547 45.088 209.175Z" fill="#FFCB51"/>
<path d="M19.6582 197.638C19.6582 189.978 25.8918 183.744 33.5521 183.744C41.2123 183.744 47.4459 189.978 47.4459 197.638C47.4459 205.298 41.2123 211.532 33.5521 211.532C25.8918 211.532 19.6582 205.298 19.6582 197.638ZM20.4791 197.638C20.4791 204.847 26.3435 210.711 33.5521 210.711C40.7607 210.711 46.6251 204.847 46.6251 197.638C46.6251 190.429 40.7607 184.565 33.5521 184.565C26.3435 184.569 20.4791 190.429 20.4791 197.638Z" fill="#EFA748"/>
<path d="M43.4452 198.209H40.7352L38.8964 205.177H37.2439L35.4731 198.209H33.394L31.6232 205.177H29.9707L28.1318 198.209H25.4219V196.793H27.7554L26.3754 191.527H28.1139L29.4079 196.793H32.2541L33.584 191.527H35.3548L36.699 196.793H39.5452L40.8392 191.527H42.4917L41.1116 196.793H43.4452V198.209ZM31.8956 198.209H29.7664L30.8239 202.503L31.8956 198.209ZM35.1146 196.797L34.4335 194.087L33.7525 196.797H35.1146ZM39.2046 198.209H37.0575L38.1472 202.521L39.2046 198.209Z" fill="#EFA748"/>
<path d="M42.5663 197.494H39.8563L38.0174 204.463H36.3649L34.5942 197.494H32.5151L30.7443 204.463H29.0918L27.2529 197.494H24.543V196.078H26.8765L25.4965 190.812H27.235L28.529 196.078H31.3752L32.7051 190.812H34.4759L35.8201 196.078H38.6663L39.9603 190.812H41.6128L40.2327 196.078H42.5663V197.494ZM31.0167 197.494H28.8875L29.9449 201.789L31.0167 197.494ZM34.2357 196.078L33.5546 193.368L32.8736 196.078H34.2357ZM38.3257 197.494H36.1785L37.2683 201.806L38.3257 197.494Z" fill="#FFD788"/>
<path d="M114.998 138.609H113.217L132.52 213.965H134.298L114.998 138.609Z" fill="#3F3F3F"/>
<path d="M131.864 138.609H130.082L149.381 213.965H151.163L131.864 138.609Z" fill="#3F3F3F"/>
<path d="M148.044 203.73H130.799V204.745H148.044V203.73Z" fill="#3F3F3F"/>
<path d="M145.921 195.752H128.676V196.766H145.921V195.752Z" fill="#3F3F3F"/>
<path d="M143.804 187.771H126.559V188.786H143.804V187.771Z" fill="#3F3F3F"/>
<path d="M141.681 179.793H124.436V180.807H141.681V179.793Z" fill="#3F3F3F"/>
<path d="M139.564 171.789H122.318V172.804H139.564V171.789Z" fill="#3F3F3F"/>
<path d="M137.441 163.785H120.195V164.8H137.441V163.785Z" fill="#3F3F3F"/>
<path d="M135.324 155.779H118.078V156.794H135.324V155.779Z" fill="#3F3F3F"/>
<path d="M133.201 147.771H115.955V148.786H133.201V147.771Z" fill="#3F3F3F"/>
<path d="M150.941 210.134C144.5 206.402 138.255 202.961 132.104 202.961C125.935 202.961 119.709 206.402 113.267 210.134C108.858 212.686 104.051 213.966 99.2441 213.966H164.978C160.168 213.966 155.357 212.69 150.941 210.134Z" fill="#A7DF87"/>
<path d="M132.111 213.966H164.978C160.168 213.969 155.357 212.69 150.941 210.134C144.503 206.406 138.259 202.965 132.111 202.961V213.966Z" fill="#75CC62"/>
<path d="M245.953 207.977C236.249 202.144 226.847 196.768 217.581 196.768C208.289 196.768 198.912 202.144 189.209 207.977C182.566 211.966 175.329 213.963 168.092 213.963H267.095C259.847 213.966 252.598 211.97 245.953 207.977Z" fill="#A7DF87"/>
<path d="M217.591 213.963H267.091C259.847 213.966 252.599 211.97 245.949 207.977C236.249 202.148 226.85 196.771 217.588 196.768V213.963H217.591Z" fill="#75CC62"/>
<path d="M265.161 118.008H161.584V169.816H265.161V118.008Z" fill="#5EA560"/>
<path d="M262.776 118.008H159.199V169.816H262.776V118.008Z" fill="#76BD7B"/>
<path d="M258.453 131.909C253.001 131.909 248.577 127.489 248.574 122.037L173.358 122.109C173.358 122.112 173.358 122.116 173.358 122.116C173.358 127.568 168.938 131.992 163.486 131.995L163.508 155.915C163.511 155.915 163.515 155.915 163.515 155.915C168.971 155.915 173.391 160.335 173.394 165.787L248.61 165.715C248.61 165.712 248.61 165.705 248.61 165.701C248.61 160.249 253.029 155.825 258.482 155.822L258.46 131.909C258.46 131.909 258.456 131.909 258.453 131.909Z" stroke="#5EA560" stroke-width="1.07538" stroke-miterlimit="10"/>
<path d="M210.987 161.667C220.792 161.667 228.741 153.718 228.741 143.913C228.741 134.107 220.792 126.158 210.987 126.158C201.181 126.158 193.232 134.107 193.232 143.913C193.232 153.718 201.181 161.667 210.987 161.667Z" fill="#93CE95"/>
<path d="M210.987 166.758C198.391 166.758 188.143 156.509 188.143 143.913C188.143 131.317 198.391 121.068 210.987 121.068C223.583 121.068 233.832 131.317 233.832 143.913C233.832 156.509 223.583 166.758 210.987 166.758ZM210.987 123.008C199.459 123.008 190.082 132.385 190.082 143.913C190.082 155.441 199.459 164.818 210.987 164.818C222.515 164.818 231.896 155.441 231.896 143.913C231.896 132.385 222.515 123.008 210.987 123.008Z" fill="white"/>
<path d="M224.063 143.703H220.135L217.464 153.815H215.066L212.496 143.703H209.481L206.911 153.815H204.513L201.842 143.703H197.91V141.652H201.298L199.294 134.014H201.814L203.692 141.652H207.822L209.75 134.014H212.32L214.274 141.652H218.403L220.282 134.014H222.68L220.676 141.652H224.063V143.703ZM207.305 143.703H204.215L205.75 149.933L207.305 143.703ZM211.976 141.652L210.987 137.724L209.997 141.652H211.976ZM217.909 143.703H214.794L216.374 149.958L217.909 143.703Z" fill="#5EA560"/>
<path d="M247.08 148.849C249.786 148.849 251.98 146.655 251.98 143.949C251.98 141.243 249.786 139.049 247.08 139.049C244.374 139.049 242.18 141.243 242.18 143.949C242.18 146.655 244.374 148.849 247.08 148.849Z" fill="#5EA560"/>
<path d="M174.892 148.849C177.599 148.849 179.792 146.655 179.792 143.949C179.792 141.243 177.599 139.049 174.892 139.049C172.186 139.049 169.992 141.243 169.992 143.949C169.992 146.655 172.186 148.849 174.892 148.849Z" fill="#5EA560"/>
<path d="M195.742 159.317L194.523 157.936L186.955 164.614L188.174 165.995L195.742 159.317Z" fill="white"/>
<path d="M189.147 167.094L185.988 163.514L163.917 182.989L167.076 186.569L189.147 167.094Z" fill="#007CBA"/>
<path d="M307.675 185.952C312.512 185.952 316.432 184.63 316.432 182.999C316.432 181.367 312.512 180.045 307.675 180.045C302.839 180.045 298.918 181.367 298.918 182.999C298.918 184.63 302.839 185.952 307.675 185.952Z" fill="#FFCB51"/>
<path d="M298.918 185.873C298.918 187.504 302.84 188.826 307.675 188.826C312.511 188.826 316.432 187.504 316.432 185.873V182.994C316.432 184.625 312.511 185.948 307.675 185.948C302.84 185.948 298.918 184.625 298.918 182.994V185.873Z" fill="#E5AE41"/>
<path d="M298.918 188.787C298.918 190.418 302.84 191.74 307.675 191.74C312.511 191.74 316.432 190.418 316.432 188.787V185.908C316.432 187.539 312.511 188.862 307.675 188.862C302.84 188.862 298.918 187.539 298.918 185.908V188.787Z" fill="#FFCB51"/>
<path d="M298.918 191.707C298.918 193.338 302.84 194.66 307.675 194.66C312.511 194.66 316.432 193.338 316.432 191.707V188.828C316.432 190.459 312.511 191.782 307.675 191.782C302.84 191.782 298.918 190.459 298.918 188.828V191.707Z" fill="#E5AE41"/>
<path d="M298.918 194.621C298.918 196.252 302.84 197.574 307.675 197.574C312.511 197.574 316.432 196.252 316.432 194.621V191.742C316.432 193.373 312.511 194.696 307.675 194.696C302.84 194.696 298.918 193.373 298.918 191.742V194.621Z" fill="#FFCB51"/>
<path d="M298.918 197.535C298.918 199.166 302.84 200.488 307.675 200.488C312.511 200.488 316.432 199.166 316.432 197.535V194.656C316.432 196.287 312.511 197.61 307.675 197.61C302.84 197.61 298.918 196.287 298.918 194.656V197.535Z" fill="#E5AE41"/>
<path d="M298.918 200.449C298.918 202.08 302.84 203.402 307.675 203.402C312.511 203.402 316.432 202.08 316.432 200.449V197.57C316.432 199.201 312.511 200.524 307.675 200.524C302.84 200.524 298.918 199.201 298.918 197.57V200.449Z" fill="#FFCB51"/>
<path d="M298.918 203.365C298.918 204.996 302.84 206.318 307.675 206.318C312.511 206.318 316.432 204.996 316.432 203.365V200.486C316.432 202.117 312.511 203.44 307.675 203.44C302.84 203.44 298.918 202.117 298.918 200.486V203.365Z" fill="#E5AE41"/>
<path d="M298.918 206.281C298.918 207.912 302.84 209.234 307.675 209.234C312.511 209.234 316.432 207.912 316.432 206.281V203.402C316.432 205.033 312.511 206.356 307.675 206.356C302.84 206.356 298.918 205.033 298.918 203.402V206.281Z" fill="#FFCB51"/>
<path d="M298.918 212.068C298.918 213.699 302.84 215.022 307.675 215.022C312.511 215.022 316.432 213.699 316.432 212.068V209.189C316.432 210.82 312.511 212.143 307.675 212.143C302.84 212.143 298.918 210.82 298.918 209.189V212.068Z" fill="#FFCB51"/>
<path d="M298.918 209.195C298.918 210.826 302.84 212.149 307.675 212.149C312.511 212.149 316.432 210.826 316.432 209.195V206.316C316.432 207.947 312.511 209.27 307.675 209.27C302.84 209.27 298.918 207.947 298.918 206.316V209.195Z" fill="#E5AE41"/>
<path d="M284.852 190.977H245.529V211.298H284.852V190.977Z" fill="#5EA560"/>
<path d="M284.852 206.334H245.529V208.893H284.852V206.334Z" fill="#68AD69"/>
<path d="M284.852 211.299H245.529V213.858H284.852V211.299Z" fill="#68AD69"/>
<path d="M284.852 201.215H245.529V203.774H284.852V201.215Z" fill="#68AD69"/>
<path d="M284.852 196.096H245.529V198.655H284.852V196.096Z" fill="#68AD69"/>
<path d="M284.852 190.977H245.529V193.536H284.852V190.977Z" fill="#68AD69"/>
<path d="M284.849 190.977H245.529L255.606 180.055H284.849V190.977Z" fill="#76BD7B"/>
<path d="M285.109 189.674H249.213L256.888 181.357H285.109V189.674ZM250.403 189.154H284.586V181.881H257.113L250.403 189.154Z" fill="#5EA560"/>
<path d="M269.28 190.977L279.356 180.055H272.638L262.559 190.977H269.28Z" fill="white"/>
<path d="M269.276 190.977H262.559V211.298H269.276V190.977Z" fill="#DDDDDD"/>
<path d="M261.808 185.671C262.461 185.03 262.085 184.438 260.966 184.352C259.848 184.266 258.414 184.718 257.762 185.36C257.109 186.001 257.485 186.593 258.604 186.679C259.722 186.765 261.156 186.313 261.808 185.671Z" fill="#5EA560"/>
<path d="M299.475 203.558C299.475 205.189 295.554 206.512 290.718 206.512C285.882 206.512 281.961 205.189 281.961 203.558V170.336H299.475V203.558Z" fill="#FFCB51"/>
<path d="M290.718 171.659C295.555 171.659 299.475 170.337 299.475 168.706C299.475 167.074 295.555 165.752 290.718 165.752C285.882 165.752 281.961 167.074 281.961 168.706C281.961 170.337 285.882 171.659 290.718 171.659Z" fill="#FFCB51"/>
<path d="M281.961 171.584C281.961 173.214 285.882 174.537 290.718 174.537C295.554 174.537 299.475 173.214 299.475 171.584V168.705C299.475 170.336 295.554 171.659 290.718 171.659C285.882 171.659 281.961 170.336 281.961 168.705V171.584Z" fill="#E5AE41"/>
<path d="M281.961 174.498C281.961 176.129 285.882 177.451 290.718 177.451C295.554 177.451 299.475 176.129 299.475 174.498V171.619C299.475 173.25 295.554 174.573 290.718 174.573C285.882 174.573 281.961 173.25 281.961 171.619V174.498Z" fill="#FFCB51"/>
<path d="M281.961 177.414C281.961 179.045 285.882 180.367 290.718 180.367C295.554 180.367 299.475 179.045 299.475 177.414V174.535C299.475 176.166 295.554 177.489 290.718 177.489C285.882 177.489 281.961 176.166 281.961 174.535V177.414Z" fill="#E5AE41"/>
<path d="M281.961 180.332C281.961 181.963 285.882 183.285 290.718 183.285C295.554 183.285 299.475 181.963 299.475 180.332V177.453C299.475 179.084 295.554 180.407 290.718 180.407C285.882 180.407 281.961 179.084 281.961 177.453V180.332Z" fill="#FFCB51"/>
<path d="M281.961 183.244C281.961 184.875 285.882 186.197 290.718 186.197C295.554 186.197 299.475 184.875 299.475 183.244V180.365C299.475 181.996 295.554 183.319 290.718 183.319C285.882 183.319 281.961 181.996 281.961 180.365V183.244Z" fill="#E5AE41"/>
<path d="M281.961 186.16C281.961 187.791 285.882 189.113 290.718 189.113C295.554 189.113 299.475 187.791 299.475 186.16V183.281C299.475 184.912 295.554 186.235 290.718 186.235C285.882 186.235 281.961 184.912 281.961 183.281V186.16Z" fill="#FFCB51"/>
<path d="M281.961 189.072C281.961 190.703 285.882 192.025 290.718 192.025C295.554 192.025 299.475 190.703 299.475 189.072V186.193C299.475 187.824 295.554 189.147 290.718 189.147C285.882 189.147 281.961 187.824 281.961 186.193V189.072Z" fill="#E5AE41"/>
<path d="M281.961 191.99C281.961 193.621 285.882 194.943 290.718 194.943C295.554 194.943 299.475 193.621 299.475 191.99V189.111C299.475 190.742 295.554 192.065 290.718 192.065C285.882 192.065 281.961 190.742 281.961 189.111V191.99Z" fill="#FFCB51"/>
<path d="M281.961 194.908C281.961 196.539 285.882 197.861 290.718 197.861C295.554 197.861 299.475 196.539 299.475 194.908V192.029C299.475 193.66 295.554 194.983 290.718 194.983C285.882 194.983 281.961 193.66 281.961 192.029V194.908Z" fill="#E5AE41"/>
<path d="M281.961 197.82C281.961 199.451 285.882 200.774 290.718 200.774C295.554 200.774 299.475 199.451 299.475 197.82V194.941C299.475 196.572 295.554 197.895 290.718 197.895C285.882 197.895 281.961 196.572 281.961 194.941V197.82Z" fill="#FFCB51"/>
<path d="M281.961 200.734C281.961 202.365 285.882 203.688 290.718 203.688C295.554 203.688 299.475 202.365 299.475 200.734V197.855C299.475 199.486 295.554 200.809 290.718 200.809C285.882 200.809 281.961 199.486 281.961 197.855V200.734Z" fill="#E5AE41"/>
<path d="M281.961 206.474C281.961 208.105 285.882 209.428 290.718 209.428C295.554 209.428 299.475 208.105 299.475 206.474V203.596C299.475 205.227 295.554 206.549 290.718 206.549C285.882 206.549 281.961 205.227 281.961 203.596V206.474Z" fill="#E5AE41"/>
<path d="M281.961 209.386C281.961 211.017 285.882 212.34 290.718 212.34C295.554 212.34 299.475 211.017 299.475 209.386V206.508C299.475 208.139 295.554 209.462 290.718 209.462C285.882 209.462 281.961 208.139 281.961 206.508V209.386Z" fill="#FFCB51"/>
<path d="M281.961 212.306C281.961 213.937 285.882 215.26 290.718 215.26C295.554 215.26 299.475 213.937 299.475 212.306V209.428C299.475 211.059 295.554 212.381 290.718 212.381C285.882 212.381 281.961 211.059 281.961 209.428V212.306Z" fill="#E5AE41"/>
<path d="M333.438 165.445C333.438 165.445 328.495 162.118 320.387 163.226L328.911 176.163" fill="#CE572E"/>
<path d="M318.679 166.399L325.113 176.163H328.909L320.385 163.227C318.758 163.23 317.783 165.04 318.679 166.399Z" fill="#BF4528"/>
<path d="M360.883 209.124L362.428 213.964H372.555L377.466 205.038C378.448 203.253 379.527 201.522 380.627 199.808C383.527 195.288 385.101 189.872 384.327 182.616C381.936 160.274 354.363 161.263 354.363 161.263C354.363 161.263 322.779 159.202 316.255 181.52L313.703 182.706V195.481H317.908C317.908 195.481 321.023 203.737 332.709 207.476L336.293 213.96H346.732V209.809C346.728 209.813 356.037 210.304 360.883 209.124Z" fill="#E16635"/>
<path d="M322.395 180.308C322.395 181.444 323.072 182.362 323.907 182.362C324.742 182.362 325.42 181.441 325.42 180.308C325.42 179.172 324.742 178.254 323.907 178.254C323.072 178.254 322.395 179.172 322.395 180.308Z" fill="#BF4528"/>
<path d="M313.012 189.091C313.012 185.564 313.32 182.703 313.7 182.703C314.08 182.703 314.388 185.564 314.388 189.091C314.388 192.618 314.08 195.479 313.7 195.479C313.32 195.479 313.012 192.618 313.012 189.091Z" fill="#BF4528"/>
<path d="M333.435 166.045C333.435 166.045 329.255 163.231 322.395 164.17L329.603 175.114" fill="#E16635"/>
<path d="M320.952 166.851L326.393 175.11H329.605L322.396 164.166C321.02 164.17 320.195 165.7 320.952 166.851Z" fill="#CE572E"/>
<path d="M341.094 169.542H366.871C367.387 169.542 367.803 169.126 367.803 168.61C367.803 168.094 367.387 167.678 366.871 167.678H341.094C340.578 167.678 340.162 168.094 340.162 168.61C340.162 169.126 340.578 169.542 341.094 169.542Z" fill="#BF4528"/>
<path d="M356.293 168.611C364.445 168.611 371.054 162.002 371.054 153.849C371.054 145.697 364.445 139.088 356.293 139.088C348.14 139.088 341.531 145.697 341.531 153.849C341.531 162.002 348.14 168.611 356.293 168.611Z" fill="#D88F39"/>
<path d="M353.98 168.611C362.133 168.611 368.741 162.002 368.741 153.849C368.741 145.697 362.133 139.088 353.98 139.088C345.828 139.088 339.219 145.697 339.219 153.849C339.219 162.002 345.828 168.611 353.98 168.611Z" fill="#FFCB51"/>
<path d="M353.98 166.37C347.076 166.37 341.459 160.753 341.459 153.849C341.459 146.945 347.076 141.328 353.98 141.328C360.884 141.328 366.501 146.945 366.501 153.849C366.501 160.757 360.884 166.37 353.98 166.37ZM353.98 141.977C347.431 141.977 342.104 147.304 342.104 153.853C342.104 160.402 347.431 165.728 353.98 165.728C360.529 165.728 365.856 160.402 365.856 153.853C365.856 147.304 360.529 141.977 353.98 141.977Z" fill="#EFA748"/>
<path d="M362.935 154.364H360.483L358.82 160.669H357.325L355.723 154.364H353.841L352.239 160.669H350.744L349.081 154.364H346.629V153.084H348.74L347.493 148.32H349.066L350.239 153.084H352.812L354.013 148.32H355.615L356.834 153.084H359.408L360.58 148.32H362.075L360.827 153.084H362.939V154.364H362.935ZM352.483 154.364H350.554L351.511 158.25L352.483 154.364ZM355.397 153.084L354.78 150.632L354.164 153.084H355.397ZM359.096 154.364H357.153L358.139 158.264L359.096 154.364Z" fill="#EFA748"/>
<path d="M362.136 153.721H359.685L358.021 160.027H356.526L354.924 153.721H353.042L351.44 160.027H349.945L348.282 153.721H345.83V152.442H347.941L346.694 147.678H348.268L349.44 152.442H352.013L353.214 147.678H354.817L356.035 152.442H358.609L359.781 147.678H361.276L360.029 152.442H362.14V153.721H362.136ZM351.687 153.721H349.759L350.716 157.607L351.687 153.721ZM354.598 152.442L353.981 149.99L353.365 152.442H354.598ZM358.297 153.721H356.354L357.34 157.621L358.297 153.721Z" fill="#FFD788"/>
<path d="M384.327 182.617C383.588 175.731 380.459 171.068 376.484 167.902C380.488 175.961 379.319 186.22 373.258 193.149C369.365 197.601 364.045 200.59 358.485 202.529C350.334 205.372 341.52 206.867 332.684 207.473C332.691 207.476 332.698 207.476 332.705 207.48L336.29 213.964H346.728V209.813C346.728 209.813 356.037 210.304 360.884 209.125L362.429 213.964H372.555L377.466 205.039C378.448 203.254 379.527 201.522 380.627 199.809C383.527 195.289 385.101 189.872 384.327 182.617Z" fill="#CE572E"/>
</g>
</g>
<defs>
<clipPath id="clip0_878_11828">
<rect width="516.181" height="214" fill="white" transform="translate(-39.0918)"/>
</clipPath>
<clipPath id="clip1_878_11828">
<rect width="516.181" height="214" fill="white" transform="translate(-39.0918)"/>
</clipPath>
</defs>
</svg>
