<svg width="980" height="408" viewBox="0 0 980 408" fill="none" xmlns="http://www.w3.org/2000/svg">
<path d="M143.969 147.59C157.224 147.59 167.969 136.845 167.969 123.59C167.969 110.335 157.224 99.59 143.969 99.59C130.714 99.59 119.969 110.335 119.969 123.59C119.969 136.845 130.714 147.59 143.969 147.59Z" fill="#FFD76D"/>
<path d="M143.969 142.45C154.385 142.45 162.829 134.006 162.829 123.59C162.829 113.174 154.385 104.73 143.969 104.73C133.553 104.73 125.109 113.174 125.109 123.59C125.109 134.006 133.553 142.45 143.969 142.45Z" fill="#FFBA20"/>
<path d="M157.388 120.48H154.868L156.048 116.38H152.188L151.098 120.48H147.448L146.378 116.38H142.458L141.378 120.48H137.718L136.638 116.38H132.588L133.768 120.48H131.248V123.09H134.518L137.458 133.29H141.278L144.188 123.09H144.418L147.328 133.29H151.148L154.088 123.09H157.358V120.48H157.388ZM139.548 127.44L138.408 123.09H140.698L139.548 127.44ZM149.258 127.4L148.128 123.09H150.398L149.258 127.4Z" fill="#FFA600"/>
<path d="M194.11 90.8625C211.238 80.6044 216.807 58.4036 206.549 41.2755C196.291 24.1474 174.09 18.5782 156.962 28.8363C139.834 39.0944 134.265 61.2952 144.523 78.4232C154.781 95.5513 176.982 101.121 194.11 90.8625Z" fill="#FFD76D"/>
<path d="M196.705 78.8055C207.172 67.1161 206.181 49.1548 194.492 38.6877C182.803 28.2206 164.841 29.2115 154.374 40.9008C143.907 52.5902 144.898 70.5515 156.587 81.0186C168.277 91.4857 186.238 90.4948 196.705 78.8055Z" fill="#FFBA20"/>
<path d="M188.722 75.88L187.032 72.48L193.352 71.33L190.772 66.12L184.522 67.4L182.082 62.48L186.892 58.29L184.242 53L178.002 54.29L175.552 49.36L180.352 45.17L177.642 39.71L172.912 44.05L171.222 40.65L167.702 42.4L169.892 46.82L158.102 57.62L160.662 62.77L176.372 59.87L176.522 60.18L164.712 70.95L167.272 76.1L183.002 73.21L185.192 77.63L188.722 75.88ZM167.382 56.49L172.482 52.03L174.012 55.11L167.382 56.49ZM173.942 69.56L179.002 65.15L180.522 68.22L173.942 69.56Z" fill="#FFA600"/>
<path d="M239.812 332.35H137.842V337.82H239.812V332.35Z" fill="#F39000"/>
<path d="M239.812 321.83H137.842V332.35H239.812V321.83Z" fill="#FFA600"/>
<path d="M230.842 321.75V337.89" stroke="#FFD592" stroke-width="1.5" stroke-miterlimit="10"/>
<path d="M220.342 321.75V337.89" stroke="#FFD592" stroke-width="1.5" stroke-miterlimit="10"/>
<path d="M209.832 321.75V337.89" stroke="#FFD592" stroke-width="1.5" stroke-miterlimit="10"/>
<path d="M199.332 321.75V337.89" stroke="#FFD592" stroke-width="1.5" stroke-miterlimit="10"/>
<path d="M188.822 321.75V337.89" stroke="#FFD592" stroke-width="1.5" stroke-miterlimit="10"/>
<path d="M178.322 321.75V337.89" stroke="#FFD592" stroke-width="1.5" stroke-miterlimit="10"/>
<path d="M167.812 321.75V337.89" stroke="#FFD592" stroke-width="1.5" stroke-miterlimit="10"/>
<path d="M157.312 321.75V337.89" stroke="#FFD592" stroke-width="1.5" stroke-miterlimit="10"/>
<path d="M146.803 321.75V337.89" stroke="#FFD592" stroke-width="1.5" stroke-miterlimit="10"/>
<path d="M239.812 316.28H137.842V321.75H239.812V316.28Z" fill="#F39000"/>
<path d="M239.812 305.77H137.842V316.29H239.812V305.77Z" fill="#FFA600"/>
<path d="M230.842 305.69V321.83" stroke="#FFD592" stroke-width="1.5" stroke-miterlimit="10"/>
<path d="M220.342 305.69V321.83" stroke="#FFD592" stroke-width="1.5" stroke-miterlimit="10"/>
<path d="M209.832 305.69V321.83" stroke="#FFD592" stroke-width="1.5" stroke-miterlimit="10"/>
<path d="M199.332 305.69V321.83" stroke="#FFD592" stroke-width="1.5" stroke-miterlimit="10"/>
<path d="M188.822 305.69V321.83" stroke="#FFD592" stroke-width="1.5" stroke-miterlimit="10"/>
<path d="M178.322 305.69V321.83" stroke="#FFD592" stroke-width="1.5" stroke-miterlimit="10"/>
<path d="M167.812 305.69V321.83" stroke="#FFD592" stroke-width="1.5" stroke-miterlimit="10"/>
<path d="M157.312 305.69V321.83" stroke="#FFD592" stroke-width="1.5" stroke-miterlimit="10"/>
<path d="M146.803 305.69V321.83" stroke="#FFD592" stroke-width="1.5" stroke-miterlimit="10"/>
<path d="M239.812 321.75H137.842" stroke="#D28000" stroke-width="1.5" stroke-miterlimit="10"/>
<path d="M250.302 300.22H148.332V305.69H250.302V300.22Z" fill="#F39000"/>
<path d="M250.302 289.71H148.332V300.23H250.302V289.71Z" fill="#FFA600"/>
<path d="M241.332 289.63V305.77" stroke="#FFD592" stroke-width="1.5" stroke-miterlimit="10"/>
<path d="M230.832 289.63V305.77" stroke="#FFD592" stroke-width="1.5" stroke-miterlimit="10"/>
<path d="M220.322 289.63V305.77" stroke="#FFD592" stroke-width="1.5" stroke-miterlimit="10"/>
<path d="M209.822 289.63V305.77" stroke="#FFD592" stroke-width="1.5" stroke-miterlimit="10"/>
<path d="M199.312 289.63V305.77" stroke="#FFD592" stroke-width="1.5" stroke-miterlimit="10"/>
<path d="M188.812 289.63V305.77" stroke="#FFD592" stroke-width="1.5" stroke-miterlimit="10"/>
<path d="M178.303 289.63V305.77" stroke="#FFD592" stroke-width="1.5" stroke-miterlimit="10"/>
<path d="M167.803 289.63V305.77" stroke="#FFD592" stroke-width="1.5" stroke-miterlimit="10"/>
<path d="M157.303 289.63V305.77" stroke="#FFD592" stroke-width="1.5" stroke-miterlimit="10"/>
<path d="M239.812 305.69H137.842" stroke="#D28000" stroke-width="1.5" stroke-miterlimit="10"/>
<path d="M241.241 284.16H139.271V289.63H241.241V284.16Z" fill="#F39000"/>
<path d="M241.241 273.64H139.271V284.16H241.241V273.64Z" fill="#FFA600"/>
<path d="M232.281 273.57V289.71" stroke="#FFD592" stroke-width="1.5" stroke-miterlimit="10"/>
<path d="M221.771 273.57V289.71" stroke="#FFD592" stroke-width="1.5" stroke-miterlimit="10"/>
<path d="M211.271 273.57V289.71" stroke="#FFD592" stroke-width="1.5" stroke-miterlimit="10"/>
<path d="M200.762 273.57V289.71" stroke="#FFD592" stroke-width="1.5" stroke-miterlimit="10"/>
<path d="M190.262 273.57V289.71" stroke="#FFD592" stroke-width="1.5" stroke-miterlimit="10"/>
<path d="M179.752 273.57V289.71" stroke="#FFD592" stroke-width="1.5" stroke-miterlimit="10"/>
<path d="M169.252 273.57V289.71" stroke="#FFD592" stroke-width="1.5" stroke-miterlimit="10"/>
<path d="M158.752 273.57V289.71" stroke="#FFD592" stroke-width="1.5" stroke-miterlimit="10"/>
<path d="M148.242 273.57V289.71" stroke="#FFD592" stroke-width="1.5" stroke-miterlimit="10"/>
<path d="M250.302 289.63H148.332" stroke="#D28000" stroke-width="1.5" stroke-miterlimit="10"/>
<path d="M231.501 268.02H129.531V273.49H231.501V268.02Z" fill="#F39000"/>
<path d="M231.501 257.5H129.531V268.02H231.501V257.5Z" fill="#FFA600"/>
<path d="M222.541 257.42V273.57" stroke="#FFD592" stroke-width="1.5" stroke-miterlimit="10"/>
<path d="M212.031 257.42V273.57" stroke="#FFD592" stroke-width="1.5" stroke-miterlimit="10"/>
<path d="M201.531 257.42V273.57" stroke="#FFD592" stroke-width="1.5" stroke-miterlimit="10"/>
<path d="M191.021 257.42V273.57" stroke="#FFD592" stroke-width="1.5" stroke-miterlimit="10"/>
<path d="M180.521 257.42V273.57" stroke="#FFD592" stroke-width="1.5" stroke-miterlimit="10"/>
<path d="M170.012 257.42V273.57" stroke="#FFD592" stroke-width="1.5" stroke-miterlimit="10"/>
<path d="M159.512 257.42V273.57" stroke="#FFD592" stroke-width="1.5" stroke-miterlimit="10"/>
<path d="M149.002 257.42V273.57" stroke="#FFD592" stroke-width="1.5" stroke-miterlimit="10"/>
<path d="M138.502 257.42V273.57" stroke="#FFD592" stroke-width="1.5" stroke-miterlimit="10"/>
<path d="M241.251 273.49H139.271" stroke="#D28000" stroke-width="1.5" stroke-miterlimit="10"/>
<path d="M246.011 251.88H144.041V257.35H246.011V251.88Z" fill="#F39000"/>
<path d="M246.011 241.36H144.041V251.88H246.011V241.36Z" fill="#FFA600"/>
<path d="M237.051 241.28V257.42" stroke="#FFD592" stroke-width="1.5" stroke-miterlimit="10"/>
<path d="M226.551 241.28V257.42" stroke="#FFD592" stroke-width="1.5" stroke-miterlimit="10"/>
<path d="M216.041 241.28V257.42" stroke="#FFD592" stroke-width="1.5" stroke-miterlimit="10"/>
<path d="M205.541 241.28V257.42" stroke="#FFD592" stroke-width="1.5" stroke-miterlimit="10"/>
<path d="M195.031 241.28V257.42" stroke="#FFD592" stroke-width="1.5" stroke-miterlimit="10"/>
<path d="M184.531 241.28V257.42" stroke="#FFD592" stroke-width="1.5" stroke-miterlimit="10"/>
<path d="M174.021 241.28V257.42" stroke="#FFD592" stroke-width="1.5" stroke-miterlimit="10"/>
<path d="M163.521 241.28V257.42" stroke="#FFD592" stroke-width="1.5" stroke-miterlimit="10"/>
<path d="M153.012 241.28V257.42" stroke="#FFD592" stroke-width="1.5" stroke-miterlimit="10"/>
<path d="M231.501 257.35H129.531" stroke="#D28000" stroke-width="1.5" stroke-miterlimit="10"/>
<path d="M259.001 235.74H157.031V241.21H259.001V235.74Z" fill="#F39000"/>
<path d="M259.001 225.22H157.031V235.74H259.001V225.22Z" fill="#FFA600"/>
<path d="M250.041 225.14V241.28" stroke="#FFD592" stroke-width="1.5" stroke-miterlimit="10"/>
<path d="M239.531 225.14V241.28" stroke="#FFD592" stroke-width="1.5" stroke-miterlimit="10"/>
<path d="M229.031 225.14V241.28" stroke="#FFD592" stroke-width="1.5" stroke-miterlimit="10"/>
<path d="M218.521 225.14V241.28" stroke="#FFD592" stroke-width="1.5" stroke-miterlimit="10"/>
<path d="M208.021 225.14V241.28" stroke="#FFD592" stroke-width="1.5" stroke-miterlimit="10"/>
<path d="M197.521 225.14V241.28" stroke="#FFD592" stroke-width="1.5" stroke-miterlimit="10"/>
<path d="M187.012 225.14V241.28" stroke="#FFD592" stroke-width="1.5" stroke-miterlimit="10"/>
<path d="M176.512 225.14V241.28" stroke="#FFD592" stroke-width="1.5" stroke-miterlimit="10"/>
<path d="M166.002 225.14V241.28" stroke="#FFD592" stroke-width="1.5" stroke-miterlimit="10"/>
<path d="M246.021 241.21H144.041" stroke="#D28000" stroke-width="1.5" stroke-miterlimit="10"/>
<path d="M196.58 182.43L194.01 197.97L157.91 202.28L163.23 170.21L196.58 182.43Z" fill="#2F78FC"/>
<path d="M223.801 327.61L226.941 325.75L224.291 319.29C221.551 312.62 220.141 305.47 220.141 298.26V276.88C220.141 267.59 222.481 258.44 226.951 250.29C213.951 250.29 203.411 233.54 203.411 220.54V209.79C203.411 188.45 220.711 171.16 242.041 171.16H217.251C195.911 171.16 178.621 188.46 178.621 209.79V220.54C178.621 233.54 189.161 250.29 202.161 250.29C197.691 258.44 195.351 267.59 195.351 276.88V298.26C195.351 305.47 196.761 312.62 199.501 319.29L202.151 325.75L199.011 327.61C193.601 330.81 195.871 339.1 202.151 339.1H226.941C220.651 339.1 218.391 330.8 223.801 327.61Z" fill="#0D6EE5"/>
<path d="M339.591 327.61L336.451 325.75L339.141 318.54C341.451 312.35 342.631 305.8 342.631 299.19V275.72C342.631 267.16 340.651 258.73 336.831 251.07L336.441 250.29V223.92C336.441 194.77 312.811 171.15 283.671 171.15H242.021C220.681 171.15 203.391 188.45 203.391 209.78V220.53C203.391 233.53 213.931 250.28 226.931 250.28C222.461 258.43 220.121 267.58 220.121 276.87V298.25C220.121 305.46 221.531 312.61 224.271 319.28L226.921 325.74L223.781 327.6C218.371 330.8 220.641 339.09 226.921 339.09H336.441C342.741 339.1 345.001 330.8 339.591 327.61Z" fill="#2F78FC"/>
<path d="M179.33 206.04C178.71 206.04 178.08 205.89 177.5 205.56C175.69 204.55 175.04 202.25 176.05 200.44L189.92 175.65C190.93 173.84 193.23 173.19 195.04 174.2C196.85 175.21 197.5 177.51 196.49 179.32L182.62 204.11C181.93 205.35 180.65 206.04 179.33 206.04Z" fill="#FFCA49"/>
<path d="M260.849 254.89L268.909 285.24L276.859 254.89H287.659L295.659 285.35L303.659 254.89H314.799L301.369 301.46H290.849L282.509 272.26L274.169 301.46H263.659L250.229 254.89H260.849Z" fill="#FFD76D"/>
<path d="M318.499 267.39H246.529V272.15H318.499V267.39Z" fill="#FFD76D"/>
<path d="M337.17 112.22H198.93V121.27H337.17V112.22Z" fill="#B5C8F5"/>
<path d="M358.41 130.57H220.17V139.62H358.41V130.57Z" fill="#B5C8F5"/>
<path d="M517.28 188.5H401.58V216.79H517.28V188.5Z" fill="#B5C8F5"/>
<path d="M445.38 227.06H329.68V241.2H445.38V227.06Z" fill="#B5C8F5"/>
<path d="M469.149 164.08H353.449V178.22H469.149V164.08Z" fill="#B5C8F5"/>
<path d="M500.07 345.66H815.24V133.48C815.24 116.2 801.24 102.2 783.96 102.2H531.35C514.07 102.2 500.07 116.2 500.07 133.48V345.66Z" fill="#2F78FC"/>
<path d="M772.06 154.6L714.86 181.41L657.66 229.08L600.45 210.74L543.25 242.32" stroke="white" stroke-miterlimit="10"/>
<path d="M777.233 159.781C780.092 156.922 780.092 152.288 777.233 149.429C774.374 146.57 769.74 146.57 766.881 149.429C764.022 152.288 764.022 156.922 766.881 159.781C769.74 162.64 774.374 162.64 777.233 159.781Z" fill="white"/>
<path d="M716.512 188.536C720.446 187.604 722.879 183.66 721.946 179.726C721.014 175.793 717.07 173.359 713.136 174.292C709.202 175.224 706.769 179.169 707.702 183.102C708.634 187.036 712.578 189.469 716.512 188.536Z" fill="white"/>
<path d="M659.894 236.034C663.75 234.818 665.889 230.706 664.673 226.851C663.456 222.995 659.344 220.856 655.489 222.072C651.633 223.289 649.494 227.4 650.71 231.256C651.927 235.112 656.038 237.251 659.894 236.034Z" fill="white"/>
<path d="M593.131 210.74C593.131 214.78 596.411 218.06 600.451 218.06C604.491 218.06 607.771 214.78 607.771 210.74C607.771 206.7 604.491 203.42 600.451 203.42C596.411 203.42 593.131 206.7 593.131 210.74Z" fill="white"/>
<path d="M544.37 249.548C548.367 248.942 551.116 245.209 550.509 241.212C549.902 237.215 546.17 234.467 542.173 235.074C538.176 235.681 535.427 239.413 536.034 243.41C536.641 247.407 540.373 250.155 544.37 249.548Z" fill="white"/>
<path d="M762.767 345.668L781.367 345.668L781.367 183.918L762.767 183.918L762.767 345.668Z" fill="#FFD76D"/>
<path d="M705.56 345.666L724.16 345.666L724.16 213.616L705.56 213.616L705.56 345.666Z" fill="#FFD76D"/>
<path d="M648.353 345.663L666.953 345.663L666.953 260.163L648.353 260.163L648.353 345.663Z" fill="#FFD76D"/>
<path d="M591.156 345.665L609.756 345.665L609.756 242.325L591.156 242.325L591.156 345.665Z" fill="#FFD76D"/>
<path d="M533.949 345.666L552.549 345.666L552.549 268.806L533.949 268.806L533.949 345.666Z" fill="#FFD76D"/>
<path d="M748.44 327.63H757.53V305.34H748.44C744.38 305.34 741.1 308.63 741.1 312.68V320.28C741.09 324.34 744.38 327.63 748.44 327.63Z" fill="#FF7E7E"/>
<path d="M858.57 353.26L862.86 363.74C864.6 367.98 861.48 372.63 856.89 372.63H848.4C846.31 372.63 844.35 371.62 843.14 369.91L835.09 358.54L858.57 353.26Z" fill="#D74A4A"/>
<path d="M782.33 353.26L778.04 363.74C776.3 367.98 779.42 372.63 784.01 372.63H792.5C794.59 372.63 796.55 371.62 797.76 369.91L805.81 358.54L782.33 353.26Z" fill="#D74A4A"/>
<path d="M785.2 346.29H821.08C844.42 346.29 863.35 327.37 863.35 304.02C863.35 302.67 863.28 301.34 863.16 300.03C867.73 306.78 870.4 314.92 870.4 323.69C870.4 347.03 851.48 365.96 828.13 365.96H792.25C770.25 365.96 752.19 349.16 750.18 327.69C757.77 338.91 770.62 346.29 785.2 346.29Z" fill="#EF6363"/>
<path d="M749.969 323.69C749.969 300.35 768.889 281.42 792.239 281.42H828.119C842.699 281.42 855.549 288.8 863.149 300.03C863.269 301.35 863.339 302.68 863.339 304.02C863.339 327.36 844.419 346.29 821.069 346.29H785.199C770.619 346.29 757.769 338.91 750.169 327.68C750.039 326.37 749.969 325.04 749.969 323.69Z" fill="#FF7E7E"/>
<path d="M850.58 353.26L854.87 363.74C856.61 367.98 853.49 372.63 848.9 372.63H840.41C838.32 372.63 836.36 371.62 835.15 369.91L827.1 358.54L850.58 353.26Z" fill="#EF6363"/>
<path d="M774.339 353.26L770.049 363.74C768.309 367.98 771.429 372.63 776.019 372.63H784.509C786.599 372.63 788.559 371.62 789.769 369.91L797.819 358.54L774.339 353.26Z" fill="#EF6363"/>
<path d="M772.289 290.08L781.939 279.95C782.869 278.97 783.969 278.52 785.019 278.57L790.689 278.3C791.889 278.46 793.009 279.23 793.779 280.58L799.139 290.04L795.079 292.88L795.089 292.9L772.289 290.08Z" fill="#EF6363"/>
<path d="M781.949 279.95C783.959 277.84 786.759 278.18 788.199 280.72L795.099 292.9L772.299 290.08L781.949 279.95Z" fill="#FF7E7E"/>
<path d="M766.82 305.7C768.333 305.7 769.56 304.473 769.56 302.96C769.56 301.447 768.333 300.22 766.82 300.22C765.307 300.22 764.08 301.447 764.08 302.96C764.08 304.473 765.307 305.7 766.82 305.7Z" fill="#643B3B"/>
<path d="M747.939 315.22C747.939 315.98 748.549 316.59 749.309 316.59C750.069 316.59 750.679 315.98 750.679 315.22C750.679 314.46 750.069 313.85 749.309 313.85C748.549 313.86 747.939 314.47 747.939 315.22Z" fill="#643B3B"/>
<path d="M743.1 315.22C743.1 315.98 743.71 316.59 744.47 316.59C745.23 316.59 745.84 315.98 745.84 315.22C745.84 314.46 745.23 313.85 744.47 313.85C743.71 313.86 743.1 314.47 743.1 315.22Z" fill="#643B3B"/>
<path d="M808.57 291.14H826.95C828 291.14 828.86 290.29 828.86 289.23C828.86 288.18 828.01 287.32 826.95 287.32H808.57C807.52 287.32 806.66 288.17 806.66 289.23C806.66 290.28 807.51 291.14 808.57 291.14Z" fill="#643B3B"/>
<path d="M788.07 343.49L780.92 341.94L777.07 344.35L770.57 343.94L771.55 348.36L776.9 351.06H782.86L786.88 353.46L792.15 351.41L790.43 347.96L788.07 343.49Z" fill="#643B3B"/>
<mask id="mask0_426_3041" style="mask-type:luminance" maskUnits="userSpaceOnUse" x="770" y="341" width="23" height="13">
<path d="M788.07 343.49L780.92 341.94L777.07 344.35L770.57 343.94L771.55 348.36L776.9 351.06H782.86L786.88 353.46L792.15 351.41L790.43 347.96L788.07 343.49Z" fill="white"/>
</mask>
<g mask="url(#mask0_426_3041)">
<path d="M775.271 354.22C775.271 354.22 774.401 347.16 781.371 348.1C781.371 348.1 780.831 346.42 782.691 344.57C784.551 342.72 789.751 343.77 791.691 347.7C793.631 351.63 793.751 354.22 793.751 354.22L781.981 357.19L775.271 354.22Z" fill="#FFA600"/>
</g>
<path d="M781.609 338.45L781.109 342.36" stroke="#643B3B" stroke-miterlimit="10" stroke-linecap="round" stroke-linejoin="round"/>
<path d="M768.75 349.75L773.46 347.7" stroke="#643B3B" stroke-miterlimit="10" stroke-linecap="round" stroke-linejoin="round"/>
<g opacity="0.2">
<path d="M802.072 249.066L828.412 249.066L828.412 167.726L802.072 167.726L802.072 249.066Z" fill="#FFD76D"/>
<path d="M843.14 188.87L815.24 141.51L787.34 188.87H843.14Z" fill="#FFD76D"/>
</g>
<g opacity="0.6">
<path d="M802.072 242.419L828.412 242.419L828.412 161.079L802.072 161.079L802.072 242.419Z" fill="#FFD76D"/>
<path d="M843.14 182.23L815.24 134.86L787.34 182.23H843.14Z" fill="#FFD76D"/>
</g>
<path d="M802.072 235.96L828.412 235.96L828.412 154.62L802.072 154.62L802.072 235.96Z" fill="#FFD76D"/>
<path d="M843.14 175.76L815.24 128.4L787.34 175.76H843.14Z" fill="#FFD76D"/>
<path d="M551.719 255.86H480.599C477.889 255.86 474.379 259.65 474.379 259.65C474.379 259.65 471.059 263.08 471.059 265.6V352.87C471.059 361.39 477.969 368.31 486.499 368.31H549.189C551.899 368.31 555.409 364.52 555.409 364.52C555.409 364.52 558.729 361.09 558.729 358.57V262.87C558.729 259 555.589 255.86 551.719 255.86Z" fill="#004AA1"/>
<path d="M549.478 364.51H486.178C480.148 364.51 475.258 359.62 475.258 353.59V265.72C475.258 259.69 480.148 254.8 486.178 254.8H549.478C555.508 254.8 560.398 259.69 560.398 265.72V353.59C560.398 359.62 555.508 364.51 549.478 364.51Z" fill="white"/>
<path d="M543.239 280.14H492.429C489.539 280.14 487.209 277.8 487.209 274.92V270.88C487.209 267.99 489.549 265.66 492.429 265.66H543.239C546.129 265.66 548.459 268 548.459 270.88V274.92C548.459 277.8 546.119 280.14 543.239 280.14Z" fill="#638EC1"/>
<path d="M520.91 297.47C524.03 297.47 526.58 295.44 526.58 292.97C526.58 290.49 524.03 288.47 520.91 288.47H514.75C511.63 288.47 509.08 290.5 509.08 292.97C509.08 295.45 511.63 297.47 514.75 297.47H520.91Z" fill="#638EC1"/>
<path d="M504.699 292.97C504.699 290.49 502.149 288.47 499.029 288.47H492.869C489.749 288.47 487.199 290.5 487.199 292.97C487.199 295.45 489.749 297.47 492.869 297.47H499.029C502.149 297.47 504.699 295.44 504.699 292.97Z" fill="#638EC1"/>
<path d="M530.969 292.97C530.969 295.45 533.519 297.47 536.639 297.47H542.799C545.919 297.47 548.469 295.44 548.469 292.97C548.469 290.49 545.919 288.47 542.799 288.47H536.639C533.519 288.47 530.969 290.49 530.969 292.97Z" fill="#638EC1"/>
<path d="M530.969 312.8C530.969 315.92 533.519 318.47 536.639 318.47H542.799C545.919 318.47 548.469 315.92 548.469 312.8V309.39C548.469 306.27 545.919 303.72 542.799 303.72H536.639C533.519 303.72 530.969 306.27 530.969 309.39V312.8Z" fill="#638EC1"/>
<path d="M504.699 309.39C504.699 306.27 502.149 303.72 499.029 303.72H492.869C489.749 303.72 487.199 306.27 487.199 309.39V312.8C487.199 315.92 489.749 318.47 492.869 318.47H499.029C502.149 318.47 504.699 315.92 504.699 312.8V309.39Z" fill="#638EC1"/>
<path d="M509.09 312.8C509.09 315.92 511.64 318.47 514.76 318.47H520.92C524.04 318.47 526.59 315.92 526.59 312.8V309.39C526.59 306.27 524.04 303.72 520.92 303.72H514.76C511.64 303.72 509.09 306.27 509.09 309.39V312.8Z" fill="#638EC1"/>
<path d="M509.09 331.97C509.09 335.09 511.64 337.64 514.76 337.64H520.92C524.04 337.64 526.59 335.09 526.59 331.97V328.56C526.59 325.44 524.04 322.89 520.92 322.89H514.76C511.64 322.89 509.09 325.44 509.09 328.56V331.97Z" fill="#638EC1"/>
<path d="M504.699 328.56C504.699 325.44 502.149 322.89 499.029 322.89H492.869C489.749 322.89 487.199 325.44 487.199 328.56V331.97C487.199 335.09 489.749 337.64 492.869 337.64H499.029C502.149 337.64 504.699 335.09 504.699 331.97V328.56Z" fill="#638EC1"/>
<path d="M530.969 331.97C530.969 335.09 533.519 337.64 536.639 337.64H542.799C545.919 337.64 548.469 335.09 548.469 331.97V328.56C548.469 325.44 545.919 322.89 542.799 322.89H536.639C533.519 322.89 530.969 325.44 530.969 328.56V331.97Z" fill="#638EC1"/>
<path d="M492.869 342.05C489.749 342.05 487.199 344.6 487.199 347.72V351.13C487.199 354.25 489.749 356.8 492.869 356.8H499.029C502.149 356.8 504.699 354.25 504.699 351.13V347.72C504.699 344.6 502.149 342.05 499.029 342.05H492.869Z" fill="#638EC1"/>
<path d="M514.75 342.05C511.63 342.05 509.08 344.6 509.08 347.72V351.13C509.08 354.25 511.63 356.8 514.75 356.8H520.91C524.03 356.8 526.58 354.25 526.58 351.13V347.72C526.58 344.6 524.03 342.05 520.91 342.05H514.75Z" fill="#638EC1"/>
<path d="M530.969 351.13C530.969 354.25 533.519 356.8 536.639 356.8H542.799C545.919 356.8 548.469 354.25 548.469 351.13V347.72C548.469 344.6 545.919 342.05 542.799 342.05H536.639C533.519 342.05 530.969 344.6 530.969 347.72V351.13Z" fill="#FFD76D"/>
<path d="M775.931 381.51H744.721C742.561 381.51 740.801 379.76 740.801 377.59C740.801 375.43 742.551 373.67 744.721 373.67H775.931C778.091 373.67 779.851 375.42 779.851 377.59C779.851 379.76 778.101 381.51 775.931 381.51Z" fill="#FFA600"/>
<path d="M780.81 375.95H754.34C752.18 375.95 750.42 374.2 750.42 372.03C750.42 369.87 752.17 368.11 754.34 368.11H780.81C782.97 368.11 784.73 369.86 784.73 372.03C784.72 374.19 782.97 375.95 780.81 375.95Z" fill="#FFA600"/>
<path d="M773.841 371.59H761.301C759.141 371.59 757.381 369.84 757.381 367.67C757.381 365.51 759.131 363.75 761.301 363.75H773.831C775.991 363.75 777.751 365.5 777.751 367.67C777.751 369.83 776.001 371.59 773.841 371.59Z" fill="#FFA600"/>
</svg>
