<svg width="1440" height="597" viewBox="0 0 1440 597" fill="none" xmlns="http://www.w3.org/2000/svg">
<g clip-path="url(#clip0_775_2284)">
<path d="M931.57 388.33L1160.94 650.47L1075.63 702.35H952.45L787.01 520.36L797.61 521.33L833.27 538.67L867.96 541.56L897.84 529.04L920.49 518.56L935.42 489.52L945.38 461.57L942.17 426.88L931.57 388.33Z" fill="url(#paint0_linear_775_2284)"/>
<path d="M1223.04 184H1134.79V310.03H1251.57V212.53L1223.04 184Z" fill="white"/>
<path d="M1223.04 212.53H1251.57L1223.04 184V212.53Z" fill="#123040"/>
<path d="M1169.65 193.881H1145.51V200.331H1169.65V193.881Z" fill="#D6CEC9"/>
<path d="M1169.65 205.691H1145.51V212.141H1169.65V205.691Z" fill="#D6CEC9"/>
<path d="M1175.39 274.221H1161.85V290.211H1175.39V274.221Z" fill="#123040"/>
<path d="M1200.13 253.221H1186.59V290.211H1200.13V253.221Z" fill="#123040"/>
<path d="M1224.51 233.641H1210.97V290.211H1224.51V233.641Z" fill="#FF9EB1"/>
<path d="M870.879 226.869H520.359V467.319H870.879V226.869Z" fill="#617C9C"/>
<path d="M542.829 239.498C542.829 242.268 540.589 244.508 537.819 244.508C535.059 244.508 532.809 242.268 532.809 239.498C532.809 236.728 535.049 234.488 537.819 234.488C540.589 234.488 542.829 236.728 542.829 239.498Z" fill="#92ADCC"/>
<path d="M560.059 239.498C560.059 242.268 557.819 244.508 555.049 244.508C552.289 244.508 550.039 242.268 550.039 239.498C550.039 236.728 552.279 234.488 555.049 234.488C557.819 234.488 560.059 236.728 560.059 239.498Z" fill="#92ADCC"/>
<path d="M577.299 239.498C577.299 242.268 575.059 244.508 572.289 244.508C569.529 244.508 567.279 242.268 567.279 239.498C567.279 236.728 569.519 234.488 572.289 234.488C575.059 234.488 577.299 236.728 577.299 239.498Z" fill="#92ADCC"/>
<path d="M855.23 236.58H822.42V242.42H855.23V236.58Z" fill="#92ADCC"/>
<path d="M870.879 249.879H520.359V265.889H870.879V249.879Z" fill="#92ADCC"/>
<path d="M915.59 263H548.18V519.96H915.59V263Z" fill="#123040"/>
<path d="M907.38 271.26H556.4V511.71H907.38V271.26Z" fill="white"/>
<path d="M425.98 220.8C425.98 219.26 424.72 218 423.18 218H361.8C360.26 218 359 219.26 359 220.8V230.77H425.97V220.8H425.98Z" fill="#123040"/>
<path d="M359.01 230.77V273.43C359.01 274.97 360.27 276.23 361.81 276.23H423.19C424.73 276.23 425.99 274.97 425.99 273.43V230.77H359.01Z" fill="white"/>
<path d="M380.35 222.74C380.35 222.48 380.56 222.27 380.82 222.27H383.99C384.25 222.27 384.46 222.48 384.46 222.74V225.91C384.46 226.17 384.25 226.38 383.99 226.38H380.82C380.57 226.38 380.35 226.17 380.35 225.91V222.74Z" fill="white"/>
<path d="M372.859 222.74C372.859 222.48 373.069 222.27 373.329 222.27H376.499C376.759 222.27 376.969 222.48 376.969 222.74V225.91C376.969 226.17 376.759 226.38 376.499 226.38H373.329C373.069 226.38 372.859 226.17 372.859 225.91V222.74Z" fill="white"/>
<path d="M365.369 222.74C365.369 222.48 365.579 222.27 365.839 222.27H369.009C369.269 222.27 369.479 222.48 369.479 222.74V225.91C369.479 226.17 369.269 226.38 369.009 226.38H365.839C365.579 226.38 365.369 226.17 365.369 225.91V222.74Z" fill="white"/>
<path d="M400.44 478.189V468.629L392.33 467.529C391.61 464.209 390.3 461.109 388.52 458.339L393.48 451.819L386.72 445.059L380.2 450.029C377.43 448.239 374.33 446.929 371.01 446.219L369.91 438.109H360.35L359.25 446.219C355.93 446.939 352.82 448.249 350.06 450.029L343.54 445.059L336.77 451.819L341.74 458.339C339.95 461.109 338.64 464.209 337.93 467.529L329.82 468.629V478.189L337.93 479.289C338.65 482.609 339.95 485.719 341.74 488.479L336.77 494.999L343.54 501.759L350.06 496.799C352.82 498.589 355.93 499.899 359.25 500.609L360.35 508.719H369.91L371.01 500.609C374.34 499.889 377.43 498.579 380.2 496.799L386.72 501.759L393.48 494.999L388.52 488.479C390.31 485.709 391.62 482.609 392.33 479.289L400.44 478.189ZM365.12 483.059C359.8 483.059 355.47 478.729 355.47 473.409C355.47 468.089 359.8 463.759 365.12 463.759C370.44 463.759 374.77 468.089 374.77 473.409C374.77 478.729 370.44 483.059 365.12 483.059Z" fill="#123040"/>
<path d="M365.12 452.35C353.51 452.35 344.07 461.8 344.07 473.41C344.07 485.02 353.52 494.47 365.12 494.47C376.73 494.47 386.18 485.02 386.18 473.41C386.18 461.8 376.73 452.35 365.12 452.35ZM365.12 488.8C356.62 488.8 349.73 481.91 349.73 473.41C349.73 464.91 356.62 458.02 365.12 458.02C373.62 458.02 380.51 464.91 380.51 473.41C380.51 481.91 373.62 488.8 365.12 488.8Z" fill="#FF9EB1"/>
<path d="M359.04 425.621V418.481L352.99 417.661C352.46 415.181 351.48 412.871 350.15 410.801L353.85 405.941L348.8 400.891L343.94 404.601C341.87 403.271 339.56 402.291 337.08 401.761L336.26 395.711H329.13L328.31 401.761C325.83 402.301 323.51 403.271 321.45 404.601L316.59 400.891L311.54 405.941L315.24 410.801C313.91 412.861 312.93 415.181 312.4 417.661L306.35 418.481V425.621L312.4 426.441C312.93 428.921 313.91 431.231 315.24 433.301L311.54 438.161L316.59 443.211L321.45 439.511C323.51 440.841 325.82 441.821 328.31 442.351L329.13 448.401H336.26L337.08 442.351C339.56 441.821 341.87 440.841 343.94 439.511L348.8 443.211L353.85 438.161L350.15 433.301C351.48 431.241 352.46 428.921 352.99 426.441L359.04 425.621ZM332.69 429.261C328.72 429.261 325.49 426.031 325.49 422.061C325.49 418.091 328.72 414.861 332.69 414.861C336.66 414.861 339.89 418.091 339.89 422.061C339.89 426.031 336.66 429.261 332.69 429.261Z" fill="#123040"/>
<path d="M332.69 406.352C324.03 406.352 316.98 413.402 316.98 422.062C316.98 430.722 324.03 437.772 332.69 437.772C341.35 437.772 348.4 430.722 348.4 422.062C348.4 413.402 341.35 406.352 332.69 406.352ZM332.69 433.542C326.35 433.542 321.21 428.402 321.21 422.062C321.21 415.722 326.35 410.582 332.69 410.582C339.03 410.582 344.17 415.722 344.17 422.062C344.17 428.402 339.03 433.542 332.69 433.542Z" fill="#FF9EB1"/>
<path d="M578.7 284.11C578.7 286.88 576.46 289.12 573.69 289.12C570.92 289.12 568.68 286.88 568.68 284.11C568.68 281.34 570.92 279.1 573.69 279.1C576.46 279.11 578.7 281.35 578.7 284.11Z" fill="#BCBCBC"/>
<path d="M595.94 284.11C595.94 286.88 593.7 289.12 590.93 289.12C588.16 289.12 585.92 286.88 585.92 284.11C585.92 281.34 588.16 279.1 590.93 279.1C593.7 279.11 595.94 281.35 595.94 284.11Z" fill="#BCBCBC"/>
<path d="M613.18 284.11C613.18 286.88 610.94 289.12 608.17 289.12C605.4 289.12 603.16 286.88 603.16 284.11C603.16 281.34 605.4 279.1 608.17 279.1C610.94 279.1 613.18 281.35 613.18 284.11Z" fill="#BCBCBC"/>
<path d="M891.111 281.189H858.301V287.029H891.111V281.189Z" fill="#BCBCBC"/>
<path d="M906.92 295.141H556.4V311.151H906.92V295.141Z" fill="#BCBCBC"/>
<path d="M603.799 491.18H582.029V421.15L603.799 404.25V491.18Z" fill="#FF9EB1"/>
<path d="M643.43 491.181H621.66V405.391L643.43 434.331V491.181Z" fill="#E2791C"/>
<path d="M683.059 491.18H661.289V449.61L683.059 432.48V491.18Z" fill="#FF9EB1"/>
<path d="M722.68 491.179H700.92V418.829L722.68 402.039V491.179Z" fill="#E2791C"/>
<path d="M481.34 476.4L477.82 471.81L609.79 370.6L618.7 364.21L624.59 372.74L660.74 420.67L776.7 330.29L784.6 324.23L791.23 332L814.97 359.06L836.61 353.44L853.82 351.34L958.91 278.68L962.2 283.44L855.94 356.91L837.69 359.13L812.97 365.55L786.86 335.78L783.77 332.16L780.24 334.86L659.66 428.85L619.86 376.07L617.29 372.34L613.2 375.28L481.34 476.4Z" fill="#123040"/>
<path d="M943.82 266.571L991.65 256.881L969.24 300.241L943.82 266.571Z" fill="#123040"/>
<path d="M699.581 358.35H648.881V363.49H699.581V358.35Z" fill="#BCBCBC"/>
<path d="M692.221 346.93H645.891V352.07H692.221V346.93Z" fill="#BCBCBC"/>
<path d="M683.221 369.141H645.891V374.281H683.221V369.141Z" fill="#BCBCBC"/>
<path d="M762.321 414.271V370.811L740.551 387.651V491.191H765.941C757.011 467.821 752.861 437.331 762.321 414.271Z" fill="#FF9EB1"/>
<path d="M925.541 504.733L906.332 522.828L933.122 551.267L952.332 533.172L925.541 504.733Z" fill="#2C363D"/>
<path d="M968.301 542.5L956.081 529.52L929.311 554.74L937.311 563.24L1008.35 638.74L1035.33 611.76L968.301 542.5Z" fill="#5A3A35"/>
<path d="M849.6 491.179H819.77V391.849L849.6 368.949V491.179Z" fill="#FFCA22"/>
<path d="M798.38 379.15C797.08 380.23 795.81 381.36 794.56 382.53C779.86 396.37 768.59 414.19 765.98 432.74V456.79C767.68 468.83 771.32 480.58 778.19 491.18H798.38V379.15Z" fill="#BCBCBC"/>
<path d="M900.711 491.181V373.711C891.521 367.551 881.371 363.351 870.881 361.141V491.181H900.711Z" fill="#FF9EB1"/>
<path d="M1062.63 351.619C1037.67 351.619 1017.43 359.659 1017.43 369.579C1017.43 379.499 1037.67 387.539 1062.63 387.539C1087.59 387.539 1107.83 379.499 1107.83 369.579C1107.83 359.659 1087.59 351.619 1062.63 351.619Z" fill="#F0D63D"/>
<path d="M1084.79 368.19H1081.33L1084.74 363.09C1084.79 363.01 1084.75 362.93 1084.63 362.87C1084.51 362.81 1084.32 362.77 1084.12 362.77H1079.71C1079.42 362.77 1079.16 362.85 1079.09 362.96L1075.74 368.19H1069.16L1065.86 362.96C1065.78 362.85 1065.53 362.77 1065.23 362.77H1060.05C1059.76 362.77 1059.5 362.85 1059.43 362.96L1056.07 368.19H1049.5L1046.2 362.96C1046.13 362.85 1045.87 362.77 1045.58 362.77H1041.22C1041.02 362.77 1040.83 362.81 1040.71 362.87C1040.59 362.93 1040.55 363.01 1040.59 363.09L1043.96 368.19H1040.48C1040.13 368.19 1039.84 368.31 1039.84 368.44V370.01C1039.84 370.15 1040.13 370.27 1040.48 370.27H1045.33L1049.82 377.07C1049.9 377.18 1050.16 377.26 1050.44 377.26H1055.11C1055.4 377.26 1055.66 377.18 1055.73 377.07L1060.13 370.28H1065.09L1069.48 377.07C1069.56 377.18 1069.81 377.26 1070.1 377.26H1074.77C1075.06 377.26 1075.32 377.18 1075.4 377.07L1079.94 370.27H1084.79C1085.14 370.27 1085.44 370.15 1085.44 370.01V368.44C1085.43 368.31 1085.14 368.19 1084.79 368.19ZM1074.41 370.27L1072.44 373.33L1070.47 370.27H1074.41ZM1063.73 368.19H1061.5L1062.63 366.46L1063.73 368.19ZM1054.74 370.27L1052.77 373.33L1050.79 370.27H1054.74Z" fill="#EFA003"/>
<path d="M1062.63 408.329C1087.59 408.329 1107.83 400.289 1107.83 390.369V378.389C1100.15 387.009 1081.31 391.479 1062.63 391.479C1043.95 391.479 1025.11 387.009 1017.43 378.389V390.369C1017.43 400.289 1037.67 408.329 1062.63 408.329Z" fill="#F0D63D"/>
<path d="M1062.63 429.82C1087.59 429.82 1107.83 421.78 1107.83 411.86V399.18C1100.15 407.8 1081.31 412.27 1062.63 412.27C1043.95 412.27 1025.11 407.8 1017.43 399.18V411.86C1017.43 421.79 1037.67 429.82 1062.63 429.82Z" fill="#F0D63D"/>
<path d="M1062.63 451.91C1087.59 451.91 1107.83 443.87 1107.83 433.95V420.68C1100.15 429.3 1081.31 433.77 1062.63 433.77C1043.95 433.77 1025.11 429.3 1017.43 420.68V433.95C1017.43 443.87 1037.67 451.91 1062.63 451.91Z" fill="#F0D63D"/>
<path opacity="0.55" d="M943.708 449.319C944.949 399.303 905.409 357.75 855.392 356.51C805.376 355.269 763.823 394.809 762.583 444.826C761.342 494.842 800.882 536.395 850.899 537.635C900.915 538.876 942.467 499.336 943.708 449.319Z" fill="white"/>
<path d="M924.639 379.759C887.459 340.289 825.309 338.429 785.839 375.609C746.369 412.789 744.509 474.929 781.689 514.409C818.869 553.879 881.02 555.739 920.49 518.559C959.96 481.379 961.819 419.229 924.639 379.759ZM911.759 509.299C877.399 541.659 823.319 540.039 790.959 505.689C758.599 471.329 760.209 417.249 794.569 384.879C828.929 352.519 883.009 354.129 915.379 388.489C947.729 422.849 946.119 476.929 911.759 509.299Z" fill="#123040"/>
<path d="M895.45 440.089C895.11 439.939 893.99 439.819 892.95 439.819H890.2C889.16 439.819 888.53 438.999 888.8 437.999L894.26 417.489C894.53 416.489 894.76 415.329 894.77 414.909C894.77 414.909 894.77 414.909 894.52 414.609C894.31 414.319 894.31 414.319 894.31 414.319C893.91 414.219 892.73 414.129 891.7 414.129H887.17C886.13 414.129 885.05 414.219 884.76 414.319C884.47 414.429 883.91 415.859 883.65 416.859L878.27 437.979C878.01 438.979 876.96 439.809 875.92 439.809H867.33C866.29 439.809 865.24 438.989 864.99 437.979L859.69 416.869C859.44 415.869 859.09 414.839 858.92 414.579C858.75 414.329 857.2 414.119 856.17 414.119H850.18C849.14 414.119 848.07 414.209 847.79 414.309C847.51 414.419 846.93 415.849 846.68 416.849L841.29 437.969C841.03 438.969 839.98 439.799 838.94 439.799H830.33C829.29 439.799 828.24 438.979 827.99 437.969L822.7 416.869C822.45 415.859 822.1 414.839 821.93 414.579C821.76 414.329 820.22 414.119 819.18 414.119H814.74C813.7 414.119 812.53 414.199 812.13 414.309C812.13 414.309 812.13 414.309 811.89 414.599C811.66 414.899 811.66 414.899 811.66 414.899C811.67 415.319 811.9 416.479 812.16 417.479L817.54 437.979C817.8 438.979 817.17 439.799 816.13 439.799H813.37C812.33 439.799 811.21 439.919 810.88 440.069C810.55 440.219 810.27 441.849 810.27 442.879V446.539C810.27 447.579 810.39 448.689 810.55 449.029C810.7 449.359 812.34 449.629 813.37 449.629H818.73C819.77 449.629 820.83 450.449 821.09 451.449L828.58 480.009C828.84 481.009 829.2 482.029 829.37 482.279C829.54 482.519 831.08 482.719 832.11 482.719H837.12C838.16 482.719 839.24 482.639 839.52 482.539C839.8 482.439 840.4 480.999 840.65 479.999L847.97 451.459C848.23 450.459 849.29 449.639 850.32 449.639H855.91C856.95 449.639 858 450.459 858.26 451.459L865.57 479.999C865.83 480.999 866.18 482.029 866.34 482.269C866.51 482.519 868.06 482.719 869.09 482.719H874.11C875.15 482.719 876.22 482.639 876.51 482.549C876.79 482.449 877.39 481.019 877.65 480.019L885.22 451.459C885.49 450.459 886.55 449.639 887.59 449.639H892.94C893.98 449.639 895.1 449.519 895.44 449.369C895.78 449.219 896.05 447.589 896.05 446.549V442.889C896.06 441.869 895.79 440.239 895.45 440.089ZM873.46 449.659C874.5 449.659 875.13 450.479 874.87 451.479L872.08 462.339C871.82 463.339 871.4 463.339 871.15 462.339L868.38 451.479C868.12 450.479 868.76 449.649 869.8 449.649H873.46V449.659ZM854.75 437.989C855 438.989 854.36 439.819 853.33 439.819H852.92C851.88 439.819 851.25 438.999 851.51 437.999L852.68 433.479C852.94 432.479 853.36 432.479 853.61 433.479L854.75 437.989ZM836.45 449.659C837.49 449.659 838.12 450.479 837.87 451.479L835.09 462.339C834.83 463.339 834.41 463.339 834.15 462.339L831.36 451.479C831.1 450.479 831.74 449.659 832.78 449.659H836.45Z" fill="#123040"/>
<path d="M998.289 590.291C998.289 590.291 996.349 589.571 994.939 584.451C993.529 579.331 993.209 562.671 993.009 552.361C992.819 542.501 986.339 538.3 979.879 537.84C973.419 537.38 967.309 540.191 966.659 549.301C966.009 558.411 966.939 581.521 965.889 593.261C964.919 604.121 967.809 618.951 963.709 626.731" fill="#FFBE94"/>
<path d="M1026.42 586.64C1022.32 583.39 1020.99 579.76 1019.62 571.53C1018.55 565.1 1017.74 554.67 1012.92 549.08C1007.86 543.22 995.69 544.03 992.33 547.54C992.33 547.54 992.94 570.24 994.22 586.52" fill="#FFBE94"/>
<path d="M1048.82 585.87C1044.52 583.99 1039.85 571.33 1036.3 564.6C1032.26 556.93 1021.55 556.75 1017.43 559.39C1017.43 559.39 1021.2 581.8 1021.2 583.52" fill="#FFBE94"/>
<path d="M966.149 589.241C962.779 578.761 956.169 565.071 948.369 561.281C942.359 558.361 935.749 560.091 935.319 566.171C934.889 572.241 938.189 576.261 940.359 582.291C942.839 589.161 942.459 593.291 944.849 600.331C946.799 606.081 947.969 609.901 948.999 621.601C949.649 629.031 947.189 637.321 954.399 646.701C961.609 656.071 974.319 677.851 982.409 686.701C985.269 689.821 987.879 699.311 990.239 702.361H1075.64C1074.4 693.591 1073.7 675.591 1073.92 669.001C1074.28 658.391 1075.43 625.001 1076.86 613.281C1078.29 601.571 1075.24 598.691 1072.49 595.841C1069.74 592.991 1066.36 588.871 1060.52 579.331C1054.07 568.791 1044 568.701 1039.46 570.001" fill="#FFBE94"/>
<path d="M997.73 591.801C997.09 591.561 994.9 590.371 993.39 584.881C991.94 579.601 991.62 563.341 991.4 552.581V552.391C991.37 550.821 991.04 549.011 990.76 547.941L993.87 547.141C994.2 548.441 994.57 550.481 994.61 552.331V552.521C994.81 562.471 995.14 579.131 996.48 584.031C997.58 588.031 998.93 588.831 998.95 588.841C998.88 588.801 998.84 588.791 998.84 588.791L997.73 591.801Z" fill="#EDA983"/>
<path d="M1025.42 587.9C1020.78 584.23 1019.39 579.97 1018.03 571.8C1017.87 570.81 1017.69 569.63 1017.5 568.35C1017.1 565.6 1016.64 562.49 1016.06 559.84L1019.2 559.15C1019.8 561.9 1020.27 565.08 1020.68 567.88C1020.86 569.14 1021.03 570.3 1021.2 571.26C1022.6 579.67 1023.88 582.57 1027.41 585.37L1025.42 587.9Z" fill="#EDA983"/>
<path d="M1048.18 587.351C1044.96 585.941 1041.86 580.351 1037.6 571.161L1040.51 569.811C1042.53 574.161 1046.73 583.211 1049.47 584.411L1048.18 587.351Z" fill="#EDA983"/>
<path d="M965.129 627.471L962.289 625.971C964.729 621.331 964.479 613.491 964.229 605.901C964.089 601.561 963.939 597.071 964.289 593.111C964.359 592.371 964.419 591.201 964.469 590.171L964.519 589.221L967.729 589.391L967.679 590.331C967.629 591.391 967.569 592.591 967.489 593.391C967.149 597.151 967.299 601.541 967.439 605.791C967.689 613.811 967.969 622.081 965.129 627.471Z" fill="#EDA983"/>
<path d="M625 370.569C625 374.679 621.66 378.019 617.55 378.019C613.43 378.019 610.1 374.689 610.1 370.569C610.1 366.449 613.44 363.119 617.55 363.119C621.66 363.119 625 366.449 625 370.569Z" fill="#123040"/>
<path d="M791.849 329.979C791.849 334.089 788.509 337.429 784.399 337.429C780.279 337.429 776.949 334.089 776.949 329.979C776.949 325.859 780.289 322.529 784.399 322.529C788.519 322.519 791.849 325.859 791.849 329.979Z" fill="#123040"/>
<path d="M217.23 324.25H122.6V381.66H217.23V324.25Z" fill="#3D4553"/>
<path d="M210.629 329.99H129.199V375.92H210.629V329.99Z" fill="white"/>
<path d="M122.6 381.66L110 399.41H230.73L217.23 381.66H122.6Z" fill="#BCBCBC"/>
<path d="M230.73 399.41H110V403.46H230.73V399.41Z" fill="#828282"/>
<path d="M203.9 347.65C205.87 347.65 207.47 350.11 207.47 353.15C207.47 356.19 205.87 358.65 203.9 358.65H169.07C167.1 358.65 161.82 354.04 161.82 353.15C161.82 352.27 167.1 347.65 169.07 347.65H203.9Z" fill="#43ACED"/>
<path d="M176.77 342.201H173.11V347.651H169.06C167.6 347.651 164.34 350.171 162.74 351.851H207.36C206.98 349.441 205.57 347.651 203.9 347.651H184.23V342.201H180.57V347.651H176.78L176.77 342.201Z" fill="#3D4553"/>
<path d="M218.97 336.971C227.7 336.971 234.79 344.051 234.79 352.791C234.79 361.521 227.71 368.611 218.97 368.611C210.23 368.611 203.15 361.531 203.15 352.791C203.16 344.051 210.24 336.971 218.97 336.971Z" fill="#3D4553"/>
<path d="M202.49 352.791C202.49 361.891 209.87 369.281 218.98 369.281C228.09 369.281 235.47 361.901 235.47 352.791C235.47 343.681 228.09 336.301 218.98 336.301C209.87 336.301 202.49 343.681 202.49 352.791ZM231.51 352.791C231.51 359.711 225.9 365.321 218.98 365.321C212.06 365.321 206.45 359.711 206.45 352.791C206.45 345.871 212.06 340.261 218.98 340.261C225.9 340.251 231.51 345.871 231.51 352.791Z" fill="#43ACED"/>
<path d="M219.451 352.801C219.451 355.291 221.461 357.301 223.951 357.301C226.441 357.301 228.451 355.291 228.451 352.801C228.451 350.321 226.431 348.301 223.951 348.301C221.461 348.301 219.451 350.321 219.451 352.801Z" fill="white"/>
<path d="M414.319 240.77H380.109V243.46H414.319V240.77Z" fill="#3D4553"/>
<path d="M414.319 251.238H380.109V253.928H414.319V251.238Z" fill="#3D4553"/>
<path d="M414.319 261.709H380.109V264.399H414.319V261.709Z" fill="#3D4553"/>
<path d="M374.48 240.209H370.67V244.019H374.48V240.209Z" fill="#3D4553"/>
<path d="M374.48 250.68H370.67V254.49H374.48V250.68Z" fill="#3D4553"/>
<path d="M374.48 261.148H370.67V264.958H374.48V261.148Z" fill="#3D4553"/>
</g>
<defs>
<linearGradient id="paint0_linear_775_2284" x1="1001.74" y1="613.591" x2="908.308" y2="509.144" gradientUnits="userSpaceOnUse">
<stop stop-color="#C2D6E6"/>
<stop offset="1" stop-color="#B6CCDE"/>
</linearGradient>
<clipPath id="clip0_775_2284">
<rect width="1440" height="597" fill="white"/>
</clipPath>
</defs>
</svg>
