<svg width="400" height="174" viewBox="0 0 400 174" fill="none" xmlns="http://www.w3.org/2000/svg">
<path d="M56.7234 55.6372C62.0935 55.6372 66.4468 51.2839 66.4468 45.9138C66.4468 40.5437 62.0935 36.1904 56.7234 36.1904C51.3533 36.1904 47 40.5437 47 45.9138C47 51.2839 51.3533 55.6372 56.7234 55.6372Z" fill="#FFD76D"/>
<path d="M56.723 53.5547C60.943 53.5547 64.364 50.1337 64.364 45.9137C64.364 41.6937 60.943 38.2728 56.723 38.2728C52.503 38.2728 49.082 41.6937 49.082 45.9137C49.082 50.1337 52.503 53.5547 56.723 53.5547Z" fill="#FFBA20"/>
<path d="M62.1607 44.6538H61.1398L61.6178 42.9927H60.054L59.6124 44.6538H58.1336L57.7001 42.9927H56.112L55.6744 44.6538H54.1916L53.754 42.9927H52.1132L52.5913 44.6538H51.5703V45.7112H52.8951L54.0862 49.8437H55.6339L56.8129 45.7112H56.906L58.085 49.8437H59.6326L60.8238 45.7112H62.1486V44.6538H62.1607ZM54.933 47.4736L54.4711 45.7112H55.3989L54.933 47.4736ZM58.8669 47.4574L58.4091 45.7112H59.3288L58.8669 47.4574Z" fill="#FFA600"/>
<path d="M77.0367 32.6545C83.976 28.4985 86.2323 19.504 82.0764 12.5647C77.9204 5.6254 68.9259 3.36908 61.9866 7.52505C55.0473 11.681 52.791 20.6755 56.9469 27.6148C61.1029 34.5541 70.0974 36.8104 77.0367 32.6545Z" fill="#FFD76D"/>
<path d="M78.0882 27.7697C82.3288 23.0338 81.9274 15.7569 77.1915 11.5163C72.4557 7.27561 65.1788 7.67705 60.9381 12.4129C56.6975 17.1488 57.0989 24.4256 61.8348 28.6663C66.5706 32.9069 73.8475 32.5055 78.0882 27.7697Z" fill="#FFBA20"/>
<path d="M74.8527 26.5844L74.168 25.2069L76.7285 24.741L75.6833 22.6302L73.1511 23.1488L72.1626 21.1555L74.1113 19.458L73.0377 17.3148L70.5096 17.8374L69.517 15.84L71.4617 14.1425L70.3637 11.9304L68.4474 13.6887L67.7627 12.3113L66.3366 13.0203L67.2239 14.811L62.4473 19.1865L63.4844 21.273L69.8492 20.0981L69.91 20.2237L65.1253 24.5871L66.1624 26.6735L72.5353 25.5027L73.4226 27.2934L74.8527 26.5844ZM66.207 18.7287L68.2732 16.9218L68.8931 18.1696L66.207 18.7287ZM68.8647 24.0239L70.9147 22.2372L71.5306 23.481L68.8647 24.0239Z" fill="#FFA600"/>
<path d="M95.5545 130.491H54.2422V132.707H95.5545V130.491Z" fill="#F39000"/>
<path d="M95.5545 126.229H54.2422V130.491H95.5545V126.229Z" fill="#FFA600"/>
<path d="M91.9199 126.197V132.736" stroke="#FFD592" stroke-width="0.607713" stroke-miterlimit="10"/>
<path d="M87.666 126.197V132.736" stroke="#FFD592" stroke-width="0.607713" stroke-miterlimit="10"/>
<path d="M83.4082 126.197V132.736" stroke="#FFD592" stroke-width="0.607713" stroke-miterlimit="10"/>
<path d="M79.1543 126.197V132.736" stroke="#FFD592" stroke-width="0.607713" stroke-miterlimit="10"/>
<path d="M74.8965 126.197V132.736" stroke="#FFD592" stroke-width="0.607713" stroke-miterlimit="10"/>
<path d="M70.6426 126.197V132.736" stroke="#FFD592" stroke-width="0.607713" stroke-miterlimit="10"/>
<path d="M66.3848 126.197V132.736" stroke="#FFD592" stroke-width="0.607713" stroke-miterlimit="10"/>
<path d="M62.1309 126.197V132.736" stroke="#FFD592" stroke-width="0.607713" stroke-miterlimit="10"/>
<path d="M57.873 126.197V132.736" stroke="#FFD592" stroke-width="0.607713" stroke-miterlimit="10"/>
<path d="M95.5545 123.981H54.2422V126.197H95.5545V123.981Z" fill="#F39000"/>
<path d="M95.5545 119.723H54.2422V123.985H95.5545V119.723Z" fill="#FFA600"/>
<path d="M91.9199 119.69V126.229" stroke="#FFD592" stroke-width="0.607713" stroke-miterlimit="10"/>
<path d="M87.666 119.69V126.229" stroke="#FFD592" stroke-width="0.607713" stroke-miterlimit="10"/>
<path d="M83.4082 119.69V126.229" stroke="#FFD592" stroke-width="0.607713" stroke-miterlimit="10"/>
<path d="M79.1543 119.69V126.229" stroke="#FFD592" stroke-width="0.607713" stroke-miterlimit="10"/>
<path d="M74.8965 119.69V126.229" stroke="#FFD592" stroke-width="0.607713" stroke-miterlimit="10"/>
<path d="M70.6426 119.69V126.229" stroke="#FFD592" stroke-width="0.607713" stroke-miterlimit="10"/>
<path d="M66.3848 119.69V126.229" stroke="#FFD592" stroke-width="0.607713" stroke-miterlimit="10"/>
<path d="M62.1309 119.69V126.229" stroke="#FFD592" stroke-width="0.607713" stroke-miterlimit="10"/>
<path d="M57.873 119.69V126.229" stroke="#FFD592" stroke-width="0.607713" stroke-miterlimit="10"/>
<path d="M95.5526 126.197H54.2402" stroke="#D28000" stroke-width="0.607713" stroke-miterlimit="10"/>
<path d="M99.8045 117.474H58.4922V119.69H99.8045V117.474Z" fill="#F39000"/>
<path d="M99.8045 113.216H58.4922V117.478H99.8045V113.216Z" fill="#FFA600"/>
<path d="M96.1699 113.184V119.723" stroke="#FFD592" stroke-width="0.607713" stroke-miterlimit="10"/>
<path d="M91.916 113.184V119.723" stroke="#FFD592" stroke-width="0.607713" stroke-miterlimit="10"/>
<path d="M87.6582 113.184V119.723" stroke="#FFD592" stroke-width="0.607713" stroke-miterlimit="10"/>
<path d="M83.4043 113.184V119.723" stroke="#FFD592" stroke-width="0.607713" stroke-miterlimit="10"/>
<path d="M79.1465 113.184V119.723" stroke="#FFD592" stroke-width="0.607713" stroke-miterlimit="10"/>
<path d="M74.8926 113.184V119.723" stroke="#FFD592" stroke-width="0.607713" stroke-miterlimit="10"/>
<path d="M70.6348 113.184V119.723" stroke="#FFD592" stroke-width="0.607713" stroke-miterlimit="10"/>
<path d="M66.3809 113.184V119.723" stroke="#FFD592" stroke-width="0.607713" stroke-miterlimit="10"/>
<path d="M62.127 113.184V119.723" stroke="#FFD592" stroke-width="0.607713" stroke-miterlimit="10"/>
<path d="M95.5526 119.69H54.2402" stroke="#D28000" stroke-width="0.607713" stroke-miterlimit="10"/>
<path d="M96.1327 110.967H54.8203V113.184H96.1327V110.967Z" fill="#F39000"/>
<path d="M96.1327 106.705H54.8203V110.967H96.1327V106.705Z" fill="#FFA600"/>
<path d="M92.502 106.677V113.216" stroke="#FFD592" stroke-width="0.607713" stroke-miterlimit="10"/>
<path d="M88.2441 106.677V113.216" stroke="#FFD592" stroke-width="0.607713" stroke-miterlimit="10"/>
<path d="M83.9902 106.677V113.216" stroke="#FFD592" stroke-width="0.607713" stroke-miterlimit="10"/>
<path d="M79.7324 106.677V113.216" stroke="#FFD592" stroke-width="0.607713" stroke-miterlimit="10"/>
<path d="M75.4785 106.677V113.216" stroke="#FFD592" stroke-width="0.607713" stroke-miterlimit="10"/>
<path d="M71.2207 106.677V113.216" stroke="#FFD592" stroke-width="0.607713" stroke-miterlimit="10"/>
<path d="M66.9668 106.677V113.216" stroke="#FFD592" stroke-width="0.607713" stroke-miterlimit="10"/>
<path d="M62.7129 106.677V113.216" stroke="#FFD592" stroke-width="0.607713" stroke-miterlimit="10"/>
<path d="M58.4551 106.677V113.216" stroke="#FFD592" stroke-width="0.607713" stroke-miterlimit="10"/>
<path d="M99.8026 113.184H58.4902" stroke="#D28000" stroke-width="0.607713" stroke-miterlimit="10"/>
<path d="M92.1854 104.429H50.873V106.645H92.1854V104.429Z" fill="#F39000"/>
<path d="M92.1854 100.166H50.873V104.428H92.1854V100.166Z" fill="#FFA600"/>
<path d="M88.5547 100.134V106.677" stroke="#FFD592" stroke-width="0.607713" stroke-miterlimit="10"/>
<path d="M84.2969 100.134V106.677" stroke="#FFD592" stroke-width="0.607713" stroke-miterlimit="10"/>
<path d="M80.043 100.134V106.677" stroke="#FFD592" stroke-width="0.607713" stroke-miterlimit="10"/>
<path d="M75.7852 100.134V106.677" stroke="#FFD592" stroke-width="0.607713" stroke-miterlimit="10"/>
<path d="M71.5312 100.134V106.677" stroke="#FFD592" stroke-width="0.607713" stroke-miterlimit="10"/>
<path d="M67.2734 100.134V106.677" stroke="#FFD592" stroke-width="0.607713" stroke-miterlimit="10"/>
<path d="M63.0195 100.134V106.677" stroke="#FFD592" stroke-width="0.607713" stroke-miterlimit="10"/>
<path d="M58.7617 100.134V106.677" stroke="#FFD592" stroke-width="0.607713" stroke-miterlimit="10"/>
<path d="M54.5078 100.134V106.677" stroke="#FFD592" stroke-width="0.607713" stroke-miterlimit="10"/>
<path d="M96.1367 106.645H54.8203" stroke="#D28000" stroke-width="0.607713" stroke-miterlimit="10"/>
<path d="M98.0663 97.8895H56.7539V100.106H98.0663V97.8895Z" fill="#F39000"/>
<path d="M98.0663 93.6274H56.7539V97.8895H98.0663V93.6274Z" fill="#FFA600"/>
<path d="M94.4355 93.595V100.134" stroke="#FFD592" stroke-width="0.607713" stroke-miterlimit="10"/>
<path d="M90.1816 93.595V100.134" stroke="#FFD592" stroke-width="0.607713" stroke-miterlimit="10"/>
<path d="M85.9238 93.595V100.134" stroke="#FFD592" stroke-width="0.607713" stroke-miterlimit="10"/>
<path d="M81.6699 93.595V100.134" stroke="#FFD592" stroke-width="0.607713" stroke-miterlimit="10"/>
<path d="M77.4121 93.595V100.134" stroke="#FFD592" stroke-width="0.607713" stroke-miterlimit="10"/>
<path d="M73.1582 93.595V100.134" stroke="#FFD592" stroke-width="0.607713" stroke-miterlimit="10"/>
<path d="M68.9004 93.595V100.134" stroke="#FFD592" stroke-width="0.607713" stroke-miterlimit="10"/>
<path d="M64.6465 93.595V100.134" stroke="#FFD592" stroke-width="0.607713" stroke-miterlimit="10"/>
<path d="M60.3887 93.595V100.134" stroke="#FFD592" stroke-width="0.607713" stroke-miterlimit="10"/>
<path d="M92.1854 100.106H50.873" stroke="#D28000" stroke-width="0.607713" stroke-miterlimit="10"/>
<path d="M103.328 91.3505H62.0156V93.5667H103.328V91.3505Z" fill="#F39000"/>
<path d="M103.328 87.0884H62.0156V91.3505H103.328V87.0884Z" fill="#FFA600"/>
<path d="M99.6973 87.056V93.595" stroke="#FFD592" stroke-width="0.607713" stroke-miterlimit="10"/>
<path d="M95.4395 87.056V93.595" stroke="#FFD592" stroke-width="0.607713" stroke-miterlimit="10"/>
<path d="M91.1855 87.056V93.595" stroke="#FFD592" stroke-width="0.607713" stroke-miterlimit="10"/>
<path d="M86.9277 87.056V93.595" stroke="#FFD592" stroke-width="0.607713" stroke-miterlimit="10"/>
<path d="M82.6738 87.056V93.595" stroke="#FFD592" stroke-width="0.607713" stroke-miterlimit="10"/>
<path d="M78.4199 87.056V93.595" stroke="#FFD592" stroke-width="0.607713" stroke-miterlimit="10"/>
<path d="M74.1621 87.056V93.595" stroke="#FFD592" stroke-width="0.607713" stroke-miterlimit="10"/>
<path d="M69.9082 87.056V93.595" stroke="#FFD592" stroke-width="0.607713" stroke-miterlimit="10"/>
<path d="M65.6504 87.056V93.595" stroke="#FFD592" stroke-width="0.607713" stroke-miterlimit="10"/>
<path d="M98.0684 93.5666H56.752" stroke="#D28000" stroke-width="0.607713" stroke-miterlimit="10"/>
<path d="M78.0399 69.7523L76.9987 76.0482L62.373 77.7944L64.5284 64.8015L78.0399 69.7523Z" fill="#2F78FC"/>
<path d="M89.068 128.571L90.3401 127.817L89.2665 125.2C88.1564 122.498 87.5852 119.601 87.5852 116.68V108.018C87.5852 104.254 88.5332 100.547 90.3442 97.2452C85.0773 97.2452 80.8072 90.4591 80.8072 85.1923V80.837C80.8072 72.1912 87.8161 65.1863 96.4578 65.1863H86.4143C77.7686 65.1863 70.7637 72.1953 70.7637 80.837V85.1923C70.7637 90.4591 75.0339 97.2452 80.3007 97.2452C78.4897 100.547 77.5417 104.254 77.5417 108.018V116.68C77.5417 119.601 78.113 122.498 79.223 125.2L80.2967 127.817L79.0245 128.571C76.8327 129.867 77.7524 133.226 80.2967 133.226H90.3401C87.7918 133.226 86.8762 129.863 89.068 128.571Z" fill="#0D6EE5"/>
<path d="M135.979 128.571L134.707 127.817L135.797 124.896C136.733 122.388 137.211 119.735 137.211 117.057V107.548C137.211 104.08 136.409 100.665 134.861 97.5613L134.703 97.2453V86.5617C134.703 74.7518 125.129 65.1823 113.324 65.1823H96.4495C87.8037 65.1823 80.7988 72.1913 80.7988 80.833V85.1882C80.7988 90.4551 85.069 97.2412 90.3359 97.2412C88.5249 100.543 87.5769 104.25 87.5769 108.014V116.676C87.5769 119.597 88.1481 122.494 89.2582 125.196L90.3318 127.813L89.0597 128.567C86.8679 129.863 87.7875 133.222 90.3318 133.222H134.703C137.255 133.226 138.171 129.863 135.979 128.571Z" fill="#2F78FC"/>
<path d="M71.051 79.3177C70.7998 79.3177 70.5446 79.2569 70.3096 79.1232C69.5763 78.714 69.313 77.7822 69.7222 77.0489L75.3415 67.0054C75.7507 66.2721 76.6825 66.0088 77.4158 66.418C78.1491 66.8272 78.4125 67.759 78.0033 68.4923L72.3839 78.5358C72.1044 79.0381 71.5858 79.3177 71.051 79.3177Z" fill="#FFCA49"/>
<path d="M104.078 99.1089L107.343 111.405L110.564 99.1089H114.94L118.181 111.45L121.422 99.1089H125.935L120.494 117.976H116.232L112.853 106.146L109.475 117.976H105.216L99.7754 99.1089H104.078Z" fill="#FFD76D"/>
<path d="M127.433 104.173H98.2754V106.102H127.433V104.173Z" fill="#FFD76D"/>
<path d="M134.997 41.3073H78.9902V44.9739H134.997V41.3073Z" fill="#B5C8F5"/>
<path d="M143.603 48.7417H87.5957V52.4082H143.603V48.7417Z" fill="#B5C8F5"/>
<path d="M207.967 72.2115H161.092V83.673H207.967V72.2115Z" fill="#B5C8F5"/>
<path d="M178.838 87.8339H131.963V93.5626H178.838V87.8339Z" fill="#B5C8F5"/>
<path d="M188.469 62.318H141.594V68.0467H188.469V62.318Z" fill="#B5C8F5"/>
<path d="M200.994 135.884H328.683V49.9207C328.683 42.9198 323.011 37.2478 316.01 37.2478H213.667C206.666 37.2478 200.994 42.9198 200.994 49.9207V135.884Z" fill="#2F78FC"/>
<path d="M311.189 58.4773L288.015 69.3392L264.841 88.6523L241.662 81.222L218.488 94.0164" stroke="white" stroke-width="0.405142" stroke-miterlimit="10"/>
<path d="M313.284 60.5763C314.442 59.4182 314.442 57.5404 313.284 56.3823C312.126 55.2242 310.248 55.2242 309.09 56.3823C307.932 57.5404 307.932 59.4182 309.09 60.5763C310.248 61.7345 312.126 61.7345 313.284 60.5763Z" fill="white"/>
<path d="M288.684 72.2264C290.278 71.8487 291.263 70.2506 290.886 68.657C290.508 67.0633 288.91 66.0776 287.316 66.4553C285.723 66.833 284.737 68.4311 285.115 70.0247C285.492 71.6184 287.09 72.6041 288.684 72.2264Z" fill="white"/>
<path d="M265.746 91.4698C267.308 90.977 268.175 89.3112 267.682 87.7491C267.189 86.1871 265.523 85.3203 263.961 85.8132C262.399 86.306 261.532 87.9718 262.025 89.5338C262.518 91.0959 264.184 91.9627 265.746 91.4698Z" fill="white"/>
<path d="M238.697 81.2219C238.697 82.8587 240.026 84.1876 241.663 84.1876C243.3 84.1876 244.629 82.8587 244.629 81.2219C244.629 79.5852 243.3 78.2563 241.663 78.2563C240.026 78.2563 238.697 79.5852 238.697 81.2219Z" fill="white"/>
<path d="M218.942 96.9449C220.561 96.699 221.674 95.187 221.429 93.5676C221.183 91.9482 219.671 90.8348 218.051 91.0806C216.432 91.3265 215.318 92.8385 215.564 94.4579C215.81 96.0773 217.322 97.1907 218.942 96.9449Z" fill="white"/>
<path d="M307.424 135.887L314.96 135.887L314.96 70.3553L307.424 70.3553L307.424 135.887Z" fill="#FFD76D"/>
<path d="M284.248 135.886L291.783 135.886L291.783 82.3869L284.248 82.3869L284.248 135.886Z" fill="#FFD76D"/>
<path d="M261.07 135.885L268.605 135.885L268.605 101.245L261.07 101.245L261.07 135.885Z" fill="#FFD76D"/>
<path d="M237.898 135.886L245.434 135.886L245.434 94.0184L237.898 94.0184L237.898 135.886Z" fill="#FFD76D"/>
<path d="M214.72 135.886L222.256 135.886L222.256 104.747L214.72 104.747L214.72 135.886Z" fill="#FFD76D"/>
<path d="M301.62 128.579H305.303V119.548H301.62C299.975 119.548 298.646 120.881 298.646 122.522V125.601C298.642 127.246 299.975 128.579 301.62 128.579Z" fill="#FF7E7E"/>
<path d="M346.238 138.963L347.976 143.209C348.681 144.927 347.417 146.81 345.558 146.81H342.118C341.271 146.81 340.477 146.401 339.987 145.708L336.726 141.102L346.238 138.963Z" fill="#D74A4A"/>
<path d="M315.35 138.963L313.612 143.209C312.907 144.927 314.171 146.81 316.031 146.81H319.47C320.317 146.81 321.111 146.401 321.601 145.708L324.863 141.102L315.35 138.963Z" fill="#D74A4A"/>
<path d="M316.513 136.139H331.05C340.506 136.139 348.175 128.474 348.175 119.014C348.175 118.467 348.147 117.928 348.098 117.397C349.95 120.132 351.031 123.43 351.031 126.983C351.031 136.439 343.366 144.108 333.906 144.108H319.37C310.456 144.108 303.14 137.302 302.325 128.603C305.4 133.149 310.606 136.139 316.513 136.139Z" fill="#EF6363"/>
<path d="M302.24 126.983C302.24 117.527 309.906 109.857 319.366 109.857H333.902C339.809 109.857 345.015 112.847 348.094 117.397C348.143 117.932 348.171 118.471 348.171 119.014C348.171 128.47 340.506 136.139 331.046 136.139H316.513C310.606 136.139 305.4 133.149 302.321 128.599C302.269 128.069 302.24 127.53 302.24 126.983Z" fill="#FF7E7E"/>
<path d="M343.001 138.963L344.739 143.209C345.444 144.927 344.18 146.81 342.32 146.81H338.881C338.034 146.81 337.24 146.401 336.75 145.708L333.488 141.102L343.001 138.963Z" fill="#EF6363"/>
<path d="M312.113 138.963L310.375 143.209C309.67 144.927 310.934 146.81 312.793 146.81H316.233C317.08 146.81 317.874 146.401 318.364 145.708L321.626 141.102L312.113 138.963Z" fill="#EF6363"/>
<path d="M311.282 113.366L315.192 109.262C315.569 108.865 316.014 108.683 316.44 108.703L318.737 108.593C319.223 108.658 319.677 108.97 319.989 109.517L322.16 113.35L320.515 114.5L320.519 114.508L311.282 113.366Z" fill="#EF6363"/>
<path d="M315.196 109.262C316.01 108.407 317.144 108.545 317.728 109.574L320.523 114.508L311.286 113.366L315.196 109.262Z" fill="#FF7E7E"/>
<path d="M309.067 119.694C309.68 119.694 310.177 119.197 310.177 118.584C310.177 117.971 309.68 117.474 309.067 117.474C308.454 117.474 307.957 117.971 307.957 118.584C307.957 119.197 308.454 119.694 309.067 119.694Z" fill="#643B3B"/>
<path d="M301.417 123.551C301.417 123.859 301.664 124.106 301.972 124.106C302.28 124.106 302.527 123.859 302.527 123.551C302.527 123.243 302.28 122.996 301.972 122.996C301.664 123 301.417 123.247 301.417 123.551Z" fill="#643B3B"/>
<path d="M299.456 123.551C299.456 123.859 299.703 124.106 300.011 124.106C300.319 124.106 300.566 123.859 300.566 123.551C300.566 123.243 300.319 122.996 300.011 122.996C299.703 123 299.456 123.247 299.456 123.551Z" fill="#643B3B"/>
<path d="M325.982 113.795H333.428C333.854 113.795 334.202 113.451 334.202 113.022C334.202 112.596 333.858 112.248 333.428 112.248H325.982C325.556 112.248 325.208 112.592 325.208 113.022C325.208 113.447 325.552 113.795 325.982 113.795Z" fill="#643B3B"/>
<path d="M317.676 135.005L314.779 134.377L313.219 135.353L310.586 135.187L310.983 136.978L313.15 138.072H315.565L317.194 139.044L319.329 138.213L318.632 136.816L317.676 135.005Z" fill="#643B3B"/>
<mask id="mask0_434_7908" style="mask-type:luminance" maskUnits="userSpaceOnUse" x="310" y="134" width="10" height="6">
<path d="M317.676 135.005L314.779 134.377L313.219 135.353L310.586 135.187L310.983 136.978L313.15 138.072H315.565L317.194 139.044L319.329 138.213L318.632 136.816L317.676 135.005Z" fill="white"/>
</mask>
<g mask="url(#mask0_434_7908)">
<path d="M312.491 139.352C312.491 139.352 312.138 136.491 314.962 136.872C314.962 136.872 314.743 136.192 315.497 135.442C316.25 134.693 318.357 135.118 319.143 136.71C319.929 138.302 319.978 139.352 319.978 139.352L315.209 140.555L312.491 139.352Z" fill="#FFA600"/>
</g>
<path d="M315.059 132.963L314.856 134.547" stroke="#643B3B" stroke-width="0.405142" stroke-miterlimit="10" stroke-linecap="round" stroke-linejoin="round"/>
<path d="M309.849 137.541L311.757 136.71" stroke="#643B3B" stroke-width="0.405142" stroke-miterlimit="10" stroke-linecap="round" stroke-linejoin="round"/>
<g opacity="0.2">
<path d="M323.347 96.7492L334.019 96.7492L334.019 63.7949L323.347 63.7949L323.347 96.7492Z" fill="#FFD76D"/>
<path d="M339.986 72.3614L328.682 53.1739L317.379 72.3614H339.986Z" fill="#FFD76D"/>
</g>
<g opacity="0.6">
<path d="M323.347 94.0563L334.019 94.0563L334.019 61.102L323.347 61.102L323.347 94.0563Z" fill="#FFD76D"/>
<path d="M339.986 69.6713L328.682 50.4797L317.379 69.6713H339.986Z" fill="#FFD76D"/>
</g>
<path d="M323.347 91.4396L334.019 91.4396L334.019 58.4854L323.347 58.4854L323.347 91.4396Z" fill="#FFD76D"/>
<path d="M339.986 67.05L328.682 47.8625L317.379 67.05H339.986Z" fill="#FFD76D"/>
<path d="M221.919 99.5021H193.105C192.007 99.5021 190.585 101.038 190.585 101.038C190.585 101.038 189.24 102.427 189.24 103.448V138.805C189.24 142.257 192.04 145.06 195.496 145.06H220.894C221.992 145.06 223.414 143.525 223.414 143.525C223.414 143.525 224.759 142.135 224.759 141.114V102.342C224.759 100.774 223.487 99.5021 221.919 99.5021Z" fill="#004AA1"/>
<path d="M221.011 143.521H195.366C192.923 143.521 190.941 141.54 190.941 139.097V103.497C190.941 101.054 192.923 99.0726 195.366 99.0726H221.011C223.454 99.0726 225.435 101.054 225.435 103.497V139.097C225.435 141.54 223.454 143.521 221.011 143.521Z" fill="white"/>
<path d="M218.483 109.339H197.898C196.727 109.339 195.783 108.391 195.783 107.224V105.587C195.783 104.416 196.731 103.472 197.898 103.472H218.483C219.654 103.472 220.598 104.42 220.598 105.587V107.224C220.598 108.391 219.65 109.339 218.483 109.339Z" fill="#638EC1"/>
<path d="M209.437 116.36C210.701 116.36 211.735 115.538 211.735 114.537C211.735 113.532 210.701 112.714 209.437 112.714H206.942C205.678 112.714 204.645 113.536 204.645 114.537C204.645 115.542 205.678 116.36 206.942 116.36H209.437Z" fill="#638EC1"/>
<path d="M202.867 114.537C202.867 113.532 201.834 112.714 200.57 112.714H198.074C196.81 112.714 195.777 113.536 195.777 114.537C195.777 115.542 196.81 116.36 198.074 116.36H200.57C201.834 116.36 202.867 115.538 202.867 114.537Z" fill="#638EC1"/>
<path d="M213.512 114.537C213.512 115.542 214.545 116.36 215.809 116.36H218.305C219.569 116.36 220.602 115.538 220.602 114.537C220.602 113.532 219.569 112.714 218.305 112.714H215.809C214.545 112.714 213.512 113.532 213.512 114.537Z" fill="#638EC1"/>
<path d="M213.512 122.571C213.512 123.835 214.545 124.868 215.809 124.868H218.305C219.569 124.868 220.602 123.835 220.602 122.571V121.189C220.602 119.925 219.569 118.892 218.305 118.892H215.809C214.545 118.892 213.512 119.925 213.512 121.189V122.571Z" fill="#638EC1"/>
<path d="M202.867 121.189C202.867 119.925 201.834 118.892 200.57 118.892H198.074C196.81 118.892 195.777 119.925 195.777 121.189V122.571C195.777 123.835 196.81 124.868 198.074 124.868H200.57C201.834 124.868 202.867 123.835 202.867 122.571V121.189Z" fill="#638EC1"/>
<path d="M204.648 122.571C204.648 123.835 205.682 124.868 206.946 124.868H209.441C210.705 124.868 211.738 123.835 211.738 122.571V121.189C211.738 119.925 210.705 118.892 209.441 118.892H206.946C205.682 118.892 204.648 119.925 204.648 121.189V122.571Z" fill="#638EC1"/>
<path d="M204.648 130.337C204.648 131.601 205.682 132.635 206.946 132.635H209.441C210.705 132.635 211.738 131.601 211.738 130.337V128.956C211.738 127.692 210.705 126.659 209.441 126.659H206.946C205.682 126.659 204.648 127.692 204.648 128.956V130.337Z" fill="#638EC1"/>
<path d="M202.867 128.956C202.867 127.692 201.834 126.659 200.57 126.659H198.074C196.81 126.659 195.777 127.692 195.777 128.956V130.337C195.777 131.601 196.81 132.635 198.074 132.635H200.57C201.834 132.635 202.867 131.601 202.867 130.337V128.956Z" fill="#638EC1"/>
<path d="M213.512 130.337C213.512 131.601 214.545 132.635 215.809 132.635H218.305C219.569 132.635 220.602 131.601 220.602 130.337V128.956C220.602 127.692 219.569 126.659 218.305 126.659H215.809C214.545 126.659 213.512 127.692 213.512 128.956V130.337Z" fill="#638EC1"/>
<path d="M198.074 134.421C196.81 134.421 195.777 135.454 195.777 136.718V138.1C195.777 139.364 196.81 140.397 198.074 140.397H200.57C201.834 140.397 202.867 139.364 202.867 138.1V136.718C202.867 135.454 201.834 134.421 200.57 134.421H198.074Z" fill="#638EC1"/>
<path d="M206.942 134.421C205.678 134.421 204.645 135.454 204.645 136.718V138.1C204.645 139.364 205.678 140.397 206.942 140.397H209.437C210.701 140.397 211.735 139.364 211.735 138.1V136.718C211.735 135.454 210.701 134.421 209.437 134.421H206.942Z" fill="#638EC1"/>
<path d="M213.512 138.1C213.512 139.364 214.545 140.397 215.809 140.397H218.305C219.569 140.397 220.602 139.364 220.602 138.1V136.718C220.602 135.454 219.569 134.421 218.305 134.421H215.809C214.545 134.421 213.512 135.454 213.512 136.718V138.1Z" fill="#FFD76D"/>
<path d="M312.758 150.408H300.114C299.238 150.408 298.525 149.699 298.525 148.82C298.525 147.945 299.234 147.232 300.114 147.232H312.758C313.633 147.232 314.346 147.941 314.346 148.82C314.346 149.699 313.637 150.408 312.758 150.408Z" fill="#FFA600"/>
<path d="M314.735 148.155H304.011C303.136 148.155 302.423 147.446 302.423 146.567C302.423 145.692 303.132 144.979 304.011 144.979H314.735C315.61 144.979 316.323 145.688 316.323 146.567C316.319 147.442 315.61 148.155 314.735 148.155Z" fill="#FFA600"/>
<path d="M311.912 146.389H306.831C305.956 146.389 305.243 145.68 305.243 144.801C305.243 143.926 305.952 143.213 306.831 143.213H311.908C312.783 143.213 313.496 143.922 313.496 144.801C313.496 145.676 312.787 146.389 311.912 146.389Z" fill="#FFA600"/>
</svg>
