<svg width="400" height="351" viewBox="0 0 400 351" fill="none" xmlns="http://www.w3.org/2000/svg">
<g clip-path="url(#clip0_759_29897)">
<rect width="400" height="350" transform="translate(0 0.0195312)" fill="#92CF8D"/>
<rect x="212" y="49" width="24" height="24" rx="12" transform="rotate(90 212 49)" fill="black"/>
<path d="M205.5 60L200 65L194.5 60" stroke="white" stroke-width="2" stroke-miterlimit="10" stroke-linecap="square"/>
<path d="M80.9573 94.586H83.8833V106.862H80.9573V94.586ZM83.0693 99.602H86.5893V102H83.0693V99.602ZM70.6393 107.742H83.8833V114.738H70.6393V107.742ZM81.0233 110.052H73.5213V112.428H81.0233V110.052ZM67.8453 96.412H79.8353V98.722H67.8453V96.412ZM73.8513 99.316C76.7993 99.316 78.8453 100.812 78.8453 102.99C78.8453 105.19 76.7993 106.642 73.8513 106.642C70.8813 106.642 68.8353 105.19 68.8353 102.99C68.8353 100.812 70.8813 99.316 73.8513 99.316ZM73.8513 101.494C72.5313 101.494 71.6513 102 71.6513 102.99C71.6513 103.98 72.5313 104.508 73.8513 104.508C75.1493 104.508 76.0513 103.98 76.0513 102.99C76.0513 102 75.1493 101.494 73.8513 101.494ZM72.3773 94.454H75.3033V97.666H72.3773V94.454ZM90.1296 96.896H92.5936C92.5936 102.066 92.1096 106.62 89.5796 110.668L87.3356 109.458C89.7116 105.718 90.1296 102.176 90.1296 97.138V96.896ZM87.9956 96.896H91.6916V99.25H87.9956V96.896ZM94.6836 96.896H97.1476C97.1476 102.22 96.8396 107.302 94.1116 111.658L91.8676 110.426C94.4636 106.378 94.6836 102.242 94.6836 97.16V96.896ZM93.2096 96.896H96.3336V99.25H93.2096V96.896ZM102.538 94.586H105.332V114.958H102.538V94.586ZM96.1576 102.22H99.0396V104.574H96.1576V102.22ZM98.5996 95.026H101.328V114.056H98.5996V95.026ZM120.51 94.586H123.414V114.958H120.51V94.586ZM122.754 102.528H126.362V104.97H122.754V102.528ZM107.354 97.6H119.212V99.932H107.354V97.6ZM113.316 101.076C116.286 101.076 118.486 103.1 118.486 105.938C118.486 108.776 116.286 110.8 113.316 110.8C110.346 110.8 108.146 108.776 108.146 105.938C108.146 103.1 110.346 101.076 113.316 101.076ZM113.316 103.452C111.93 103.452 110.94 104.376 110.94 105.938C110.94 107.5 111.93 108.424 113.316 108.424C114.702 108.424 115.692 107.5 115.692 105.938C115.692 104.376 114.702 103.452 113.316 103.452ZM111.842 94.916H114.768V98.48H111.842V94.916ZM129.528 100.086H143.652V102.396H129.528V100.086ZM127.24 104.508H145.698V106.84H127.24V104.508ZM129.528 95.312H132.432V101.23H129.528V95.312ZM129.33 112.186H143.762V114.518H129.33V112.186ZM129.33 108.468H132.256V112.802H129.33V108.468ZM156.159 98.15H158.513V98.898C158.513 102.44 156.709 105.63 152.815 106.752L151.451 104.464C154.729 103.54 156.159 101.208 156.159 98.898V98.15ZM156.709 98.15H159.085V98.898C159.085 100.988 160.537 103.122 163.815 103.98L162.495 106.246C158.579 105.212 156.709 102.242 156.709 98.898V98.15ZM152.155 96.698H163.089V98.986H152.155V96.698ZM156.159 94.52H159.085V97.6H156.159V94.52ZM162.517 100.02H166.411V102.374H162.517V100.02ZM165.707 94.586H168.633V106.884H165.707V94.586ZM161.725 107.236C166.037 107.236 168.699 108.644 168.699 111.086C168.699 113.528 166.037 114.958 161.725 114.958C157.413 114.958 154.751 113.528 154.751 111.086C154.751 108.644 157.413 107.236 161.725 107.236ZM161.725 109.458C159.063 109.458 157.677 109.986 157.677 111.086C157.677 112.186 159.063 112.736 161.725 112.736C164.409 112.736 165.795 112.186 165.795 111.086C165.795 109.986 164.409 109.458 161.725 109.458ZM174.769 107.434H188.431V114.738H174.769V107.434ZM185.549 109.722H177.651V112.428H185.549V109.722ZM185.505 94.608H188.431V106.554H185.505V94.608ZM182.249 97.138H186.033V99.47H182.249V97.138ZM172.151 103.716H173.713C177.717 103.716 179.587 103.672 181.831 103.32L182.073 105.63C179.785 106.048 177.805 106.07 173.713 106.07H172.151V103.716ZM172.129 95.488H181.083V101.78H175.055V105.52H172.151V99.624H178.179V97.82H172.129V95.488ZM182.249 101.34H186.033V103.672H182.249V101.34ZM192.125 117.708L191.465 115.948C193.181 115.31 194.127 114.144 194.105 112.846L193.995 110.558L195.139 112.45C194.809 112.78 194.369 112.934 193.885 112.934C192.829 112.934 191.861 112.23 191.861 111.02C191.861 109.854 192.807 109.106 193.973 109.106C195.447 109.106 196.283 110.294 196.283 112.274C196.283 114.87 194.809 116.828 192.125 117.708ZM202.46 110.184H220.896V112.582H202.46V110.184ZM210.116 105.652H213.02V110.822H210.116V105.652ZM210.006 95.708H212.558V97.182C212.558 101.516 209.412 105.344 204.088 106.312L202.878 103.87C207.52 103.122 210.006 99.998 210.006 97.182V95.708ZM210.578 95.708H213.13V97.182C213.13 100.064 215.616 103.122 220.28 103.87L219.07 106.312C213.724 105.322 210.578 101.582 210.578 97.182V95.708ZM222.214 105.08H240.65V107.368H222.214V105.08ZM229.958 102.902H232.884V105.916H229.958V102.902ZM224.502 101.626H238.692V103.848H224.502V101.626ZM224.502 95.092H238.538V97.314H227.406V102.88H224.502V95.092ZM226.592 98.392H238.076V100.526H226.592V98.392ZM231.41 108.27C235.876 108.27 238.472 109.458 238.472 111.614C238.472 113.792 235.876 114.958 231.41 114.958C226.922 114.958 224.326 113.792 224.326 111.614C224.326 109.458 226.922 108.27 231.41 108.27ZM231.41 110.426C228.572 110.426 227.274 110.778 227.274 111.614C227.274 112.472 228.572 112.824 231.41 112.824C234.226 112.824 235.524 112.472 235.524 111.614C235.524 110.778 234.226 110.426 231.41 110.426ZM255.103 94.586H258.007V114.958H255.103V94.586ZM257.347 102.528H260.955V104.97H257.347V102.528ZM241.947 97.6H253.805V99.932H241.947V97.6ZM247.909 101.076C250.879 101.076 253.079 103.1 253.079 105.938C253.079 108.776 250.879 110.8 247.909 110.8C244.939 110.8 242.739 108.776 242.739 105.938C242.739 103.1 244.939 101.076 247.909 101.076ZM247.909 103.452C246.523 103.452 245.533 104.376 245.533 105.938C245.533 107.5 246.523 108.424 247.909 108.424C249.295 108.424 250.285 107.5 250.285 105.938C250.285 104.376 249.295 103.452 247.909 103.452ZM246.435 94.916H249.361V98.48H246.435V94.916ZM264.121 100.086H278.245V102.396H264.121V100.086ZM261.833 104.508H280.291V106.84H261.833V104.508ZM264.121 95.312H267.025V101.23H264.121V95.312ZM263.923 112.186H278.355V114.518H263.923V112.186ZM263.923 108.468H266.849V112.802H263.923V108.468ZM295.284 107.258C299.684 107.258 302.5 108.71 302.5 111.13C302.5 113.506 299.684 114.958 295.284 114.958C290.884 114.958 288.068 113.506 288.068 111.13C288.068 108.71 290.884 107.258 295.284 107.258ZM295.284 109.458C292.534 109.458 290.972 110.03 290.972 111.13C290.972 112.208 292.534 112.758 295.284 112.758C298.034 112.758 299.596 112.208 299.596 111.13C299.596 110.03 298.034 109.458 295.284 109.458ZM288.288 95.488H301.18V97.798H288.288V95.488ZM286.22 103.672H304.568V106.004H286.22V103.672ZM293.018 100.13H295.922V104.266H293.018V100.13ZM299.486 95.488H302.39V97.16C302.39 98.766 302.39 100.504 301.84 102.616L298.936 102.308C299.486 100.218 299.486 98.744 299.486 97.16V95.488ZM319.086 94.586H322.012V109.304H319.086V94.586ZM321.176 100.13H324.718V102.528H321.176V100.13ZM306.744 103.628H308.438C312.86 103.628 315.06 103.54 317.502 103.012L317.788 105.322C315.302 105.872 312.97 105.982 308.438 105.982H306.744V103.628ZM306.744 96.192H315.852V98.546H309.648V104.882H306.744V96.192ZM308.878 112.274H322.738V114.606H308.878V112.274ZM308.878 107.764H311.804V113.462H308.878V107.764ZM327.906 107.456L327.422 99.338L327.334 96.28H330.568L330.48 99.338L330.018 107.456H327.906ZM328.94 113.308C327.796 113.308 326.938 112.406 326.938 111.196C326.938 109.986 327.796 109.106 328.94 109.106C330.106 109.106 330.964 109.986 330.964 111.196C330.964 112.406 330.106 113.308 328.94 113.308ZM100.409 131.844H105.161V134.198H100.409V131.844ZM103.621 126.608H106.547V141.458H103.621V126.608ZM93.1053 144.274H107.009V146.606H93.1053V144.274ZM93.1053 140.204H96.0313V145.66H93.1053V140.204ZM94.2053 129.27H96.5813V130.546C96.5813 134.374 94.7773 137.916 90.8613 139.214L89.3873 136.882C92.7533 135.782 94.2053 133.12 94.2053 130.546V129.27ZM94.8213 129.27H97.1753V130.546C97.1753 132.922 98.5613 135.452 101.773 136.53L100.343 138.818C96.5593 137.564 94.8213 134.176 94.8213 130.546V129.27ZM90.1793 127.972H101.135V130.282H90.1793V127.972ZM117.018 138.048H119.922V141.128H117.018V138.048ZM109.296 136.288H127.71V138.598H109.296V136.288ZM111.342 140.314H125.488V146.958H122.562V142.624H111.342V140.314ZM111.65 127.092H114.532V128.896H122.474V127.092H125.378V134.968H111.65V127.092ZM114.532 131.074V132.68H122.474V131.074H114.532ZM133.67 130.15H136.024V130.898C136.024 134.44 134.22 137.63 130.326 138.752L128.962 136.464C132.24 135.54 133.67 133.208 133.67 130.898V130.15ZM134.22 130.15H136.596V130.898C136.596 132.988 138.048 135.122 141.326 135.98L140.006 138.246C136.09 137.212 134.22 134.242 134.22 130.898V130.15ZM129.666 128.698H140.6V130.986H129.666V128.698ZM133.67 126.52H136.596V129.6H133.67V126.52ZM140.028 132.02H143.922V134.374H140.028V132.02ZM143.218 126.586H146.144V138.884H143.218V126.586ZM139.236 139.236C143.548 139.236 146.21 140.644 146.21 143.086C146.21 145.528 143.548 146.958 139.236 146.958C134.924 146.958 132.262 145.528 132.262 143.086C132.262 140.644 134.924 139.236 139.236 139.236ZM139.236 141.458C136.574 141.458 135.188 141.986 135.188 143.086C135.188 144.186 136.574 144.736 139.236 144.736C141.92 144.736 143.306 144.186 143.306 143.086C143.306 141.986 141.92 141.458 139.236 141.458ZM152.28 139.434H165.942V146.738H152.28V139.434ZM163.06 141.722H155.162V144.428H163.06V141.722ZM163.016 126.608H165.942V138.554H163.016V126.608ZM159.76 129.138H163.544V131.47H159.76V129.138ZM149.662 135.716H151.224C155.228 135.716 157.098 135.672 159.342 135.32L159.584 137.63C157.296 138.048 155.316 138.07 151.224 138.07H149.662V135.716ZM149.64 127.488H158.594V133.78H152.566V137.52H149.662V131.624H155.69V129.82H149.64V127.488ZM159.76 133.34H163.544V135.672H159.76V133.34ZM170.978 132.922H185.234V135.254H170.978V132.922ZM168.712 137.564H187.148V139.918H168.712V137.564ZM176.368 138.972H179.294V146.958H176.368V138.972ZM170.978 127.488H173.904V134.022H170.978V127.488ZM202.525 126.564H205.451V147.002H202.525V126.564ZM189.589 139.874H191.393C195.001 139.874 197.883 139.742 201.117 139.192L201.403 141.546C198.103 142.14 195.111 142.25 191.393 142.25H189.589V139.874ZM189.567 128.302H199.181V136.178H192.559V140.754H189.589V133.868H196.189V130.634H189.567V128.302ZM208.287 136.64H226.723V138.972H208.287V136.64ZM216.273 138.114H219.221V142.404H216.273V138.114ZM210.553 127.444H224.391V135.012H210.553V127.444ZM221.509 129.732H213.413V132.724H221.509V129.732ZM210.421 144.274H224.699V146.606H210.421V144.274ZM210.421 140.688H213.325V145.044H210.421V140.688ZM232.793 138.642H235.719V141.942H232.793V138.642ZM241.351 126.586H244.299V146.958H241.351V126.586ZM243.265 134.858H246.851V137.278H243.265V134.858ZM228.217 143.57L227.865 141.216C231.385 141.216 236.225 141.194 240.339 140.622L240.559 142.734C236.269 143.57 231.649 143.57 228.217 143.57ZM228.239 128.83H240.229V131.118H228.239V128.83ZM234.267 131.932C237.171 131.932 239.239 133.472 239.239 135.738C239.239 138.026 237.171 139.566 234.267 139.566C231.341 139.566 229.295 138.026 229.295 135.738C229.295 133.472 231.341 131.932 234.267 131.932ZM234.267 134.132C232.925 134.132 232.067 134.704 232.067 135.738C232.067 136.794 232.925 137.366 234.267 137.366C235.587 137.366 236.467 136.794 236.467 135.738C236.467 134.704 235.587 134.132 234.267 134.132ZM232.793 126.696H235.719V130.546H232.793V126.696ZM262.602 126.586H265.374V146.958H262.602V126.586ZM255.892 133.538H259.258V135.914H255.892V133.538ZM258.488 126.916H261.216V146.034H258.488V126.916ZM251.492 129.908H253.692V131.998C253.692 136.574 252.438 141.128 249.204 143.152L247.466 140.996C250.458 139.126 251.492 135.474 251.492 131.998V129.908ZM252.152 129.908H254.33V131.998C254.33 135.386 255.342 138.818 258.29 140.534L256.574 142.668C253.34 140.754 252.152 136.486 252.152 131.998V129.908ZM248.236 128.632H257.322V130.986H248.236V128.632ZM276.956 127.642H279.398V129.468C279.398 133.56 277.572 137.146 273.568 138.488L272.05 136.134C275.526 135.012 276.956 132.262 276.956 129.468V127.642ZM277.572 127.642H279.926V129.336C279.926 132.042 281.246 134.55 284.48 135.584L282.962 137.872C279.2 136.574 277.572 133.296 277.572 129.336V127.642ZM286.35 126.586H289.276V138.51H286.35V126.586ZM282.368 139.038C286.68 139.038 289.342 140.512 289.342 142.998C289.342 145.506 286.68 146.958 282.368 146.958C278.056 146.958 275.394 145.506 275.394 142.998C275.394 140.512 278.056 139.038 282.368 139.038ZM282.368 141.304C279.728 141.304 278.32 141.854 278.32 142.998C278.32 144.142 279.728 144.714 282.368 144.714C285.03 144.714 286.438 144.142 286.438 142.998C286.438 141.854 285.03 141.304 282.368 141.304ZM282.632 130.282H286.768V132.658H282.632V130.282ZM296.71 138.466H299.57V143.262H296.71V138.466ZM303.156 138.444H306.016V143.262H303.156V138.444ZM292.046 142.338H310.482V144.714H292.046V142.338ZM294.114 127.906H308.414V134.66H297.062V138.114H294.158V132.372H305.51V130.216H294.114V127.906ZM294.158 136.882H308.876V139.236H294.158V136.882Z" fill="white"/>
<path d="M256.92 251.291C254.903 258.236 244.007 262.537 232.576 260.894L215.009 258.376C203.574 256.737 195.938 249.779 197.951 242.834C199.959 235.892 210.86 231.588 222.295 233.231L239.862 235.752C251.293 237.391 258.933 244.349 256.92 251.291Z" fill="#F9C9A2"/>
<path d="M244.492 296.793C234.647 311.448 208.142 318.213 185.289 311.9L150.167 302.211C127.305 295.906 116.753 278.918 126.595 264.267C136.428 249.62 162.937 242.851 185.802 249.156L220.92 258.845C243.774 265.154 254.325 282.146 244.492 296.793Z" fill="#FFD8B5"/>
<path d="M206.462 243.732C212.068 249.815 208.261 257.648 197.959 261.225L182.138 266.729C171.841 270.311 158.948 268.282 153.345 262.203C147.739 256.124 151.546 248.291 161.843 244.71L177.665 239.21C187.97 235.628 200.863 237.653 206.462 243.732Z" fill="#FFD8B5"/>
<path d="M278.582 256.97C288.279 271.666 277.555 288.609 254.636 294.819L219.423 304.369C196.504 310.583 170.065 303.716 160.376 289.024C150.678 274.336 161.399 257.389 184.318 251.17L219.534 241.625C242.449 235.414 268.888 242.29 278.582 256.97Z" fill="#F9C9A2"/>
<path d="M237.496 257.755C252.998 262.035 260.153 273.552 253.474 283.479L243.226 298.742C236.556 308.674 218.586 313.262 203.093 308.986C187.6 304.714 180.441 293.193 187.111 283.261L197.363 268.003C204.034 258.067 222.008 253.483 237.496 257.755Z" fill="#FFD8B5"/>
<path d="M142.471 240.684C136.866 240.314 131.266 239.858 125.674 239.328L114.16 298.597C120.229 299.148 126.376 299.632 132.604 300.043L142.471 240.684Z" fill="#6D6DB9"/>
<path d="M-97 253.913C-45.3393 275.057 25.7845 296.576 113.024 304.462L114.165 298.597C25.6173 290.575 -45.9704 268.276 -97 246.881V253.913Z" fill="#6D6DB9"/>
<path d="M-44.4867 197.178C-18.6627 208.005 8.59489 217.054 36.5253 224.069C65.5967 231.376 95.5124 236.486 125.679 239.328L126.816 233.471C97.5686 230.702 68.5557 225.741 40.3536 218.672C13.0877 211.837 -13.5388 203.023 -38.7861 192.471C-65.9685 181.114 -85.7994 170.106 -97 163.346V171.429C-85.0764 178.276 -67.3351 187.6 -44.4867 197.178Z" fill="#6D6DB9"/>
<path d="M36.5211 224.07C8.59069 217.05 -18.6669 208.002 -44.4909 197.179C-67.3351 187.6 -85.0806 178.277 -97 171.43V246.886C-45.9704 268.281 25.6173 290.58 114.161 298.602L125.675 239.333C95.5082 236.486 65.5925 231.377 36.5211 224.07Z" fill="#6D6DB9"/>
<path d="M260.99 236.955L270.684 296.315C276.804 295.904 282.846 295.419 288.809 294.869L277.494 235.6C272.002 236.125 266.498 236.585 260.99 236.955Z" fill="white"/>
<path d="M444.732 193.448C467.831 183.595 485.62 174.012 497.335 167.112V159C486.532 165.695 466.669 177.031 439.129 188.741C414.317 199.293 388.153 208.108 361.352 214.942C333.631 222.011 305.122 226.973 276.379 229.741L277.496 235.598C307.143 232.756 336.548 227.646 365.114 220.339C392.564 213.32 419.352 204.271 444.732 193.448Z" fill="#464B56"/>
<path d="M288.814 294.867L289.936 300.733C376.231 292.793 446.488 271.045 497.337 249.769V242.729C447.125 264.251 376.412 286.792 288.814 294.867Z" fill="#464B56"/>
<path d="M497.337 167.111C485.622 174.008 467.833 183.594 444.734 193.448C419.354 204.275 392.566 213.323 365.116 220.339C336.546 227.646 307.145 232.755 277.498 235.598L288.814 294.867C376.412 286.796 447.124 264.25 497.337 242.728V167.111Z" fill="#464B56"/>
<path d="M72.3982 293.382C75.4356 293.382 77.898 290.92 77.898 287.883C77.898 284.845 75.4356 282.383 72.3982 282.383C69.3608 282.383 66.8984 284.845 66.8984 287.883C66.8984 290.92 69.3608 293.382 72.3982 293.382Z" fill="#F9E450"/>
<path d="M94.2185 296.49C97.2559 296.49 99.7183 294.027 99.7183 290.99C99.7183 287.953 97.2559 285.49 94.2185 285.49C91.1811 285.49 88.7188 287.953 88.7188 290.99C88.7188 294.027 91.1811 296.49 94.2185 296.49Z" fill="#F9E450"/>
<path d="M331.07 289.65C334.107 289.65 336.57 287.188 336.57 284.15C336.57 281.113 334.107 278.65 331.07 278.65C328.033 278.65 325.57 281.113 325.57 284.15C325.57 287.188 328.033 289.65 331.07 289.65Z" fill="#F9E450"/>
<path d="M309.248 292.755C312.285 292.755 314.748 290.293 314.748 287.256C314.748 284.218 312.285 281.756 309.248 281.756C306.21 281.756 303.748 284.218 303.748 287.256C303.748 290.293 306.21 292.755 309.248 292.755Z" fill="#F9E450"/>
<path d="M205.395 298.853L237.424 299.177L269.326 284.161L262.811 261.455L233.641 285.528L205.53 285.245L205.395 298.853Z" fill="#5CA090"/>
<path d="M138.844 208.866C135.02 209.741 131.213 207.354 130.338 203.535L128.991 197.665C128.112 193.845 130.498 190.038 134.322 189.159C138.142 188.28 141.95 190.666 142.828 194.49L144.176 200.36C145.051 204.183 142.664 207.991 138.844 208.866Z" fill="#FFD8B5"/>
<path d="M137.948 203.299C136.596 201.566 136.909 199.065 138.642 197.713L141.308 195.639C143.041 194.288 145.542 194.6 146.889 196.333C148.241 198.067 147.933 200.568 146.195 201.919L143.53 203.994C141.8 205.345 139.299 205.033 137.948 203.299Z" fill="#FFD8B5"/>
<path d="M275.268 208.286C279.092 209.161 282.899 206.774 283.774 202.954L285.121 197.085C286 193.265 283.614 189.458 279.79 188.579C275.97 187.7 272.163 190.086 271.284 193.91L269.936 199.779C269.061 203.599 271.452 207.407 275.268 208.286Z" fill="#FFD8B5"/>
<path d="M276.168 202.715C277.519 200.982 277.207 198.481 275.474 197.129L272.808 195.055C271.075 193.704 268.574 194.016 267.226 195.749C265.875 197.483 266.183 199.984 267.92 201.335L270.586 203.41C272.311 204.761 274.817 204.453 276.168 202.715Z" fill="#FFD8B5"/>
<path d="M191.554 427.094L169.941 371.304L188.593 328.156L209.914 336.277L194.006 371.588L206.033 421.648L191.554 427.094Z" fill="#333133"/>
<path d="M230.075 437.027L213.021 436.008V375.86L199.828 337.439L225.438 328.904L234.055 376.02L230.075 437.027Z" fill="#333133"/>
<path d="M225.05 346.367H188.573L185.854 321.529L226.989 321.919L225.05 346.367Z" fill="#333133"/>
<path d="M224.338 255.487C222.801 255.006 221.179 254.711 219.495 254.641L198.806 253.791C196.966 253.717 195.179 253.914 193.479 254.337C185.642 256.304 179.695 263.229 179.35 271.711L186.192 327.107L227.04 328.401L237.42 274.093C237.773 265.464 232.211 257.956 224.338 255.487Z" fill="#CFF5FF"/>
<path d="M209.569 243.936C219.067 243.936 226.766 236.194 226.766 226.644C226.766 217.093 219.067 209.352 209.569 209.352C200.071 209.352 192.371 217.093 192.371 226.644C192.371 236.194 200.071 243.936 209.569 243.936Z" fill="#9B7D68"/>
<path d="M214.87 243.783H203.907L203.045 250.347L215.063 245.266L214.87 243.783Z" fill="#DFB593"/>
<path d="M215.062 245.266L203.044 250.346L202.752 252.564H216.027L215.062 245.266Z" fill="#FFD8B5"/>
<path d="M192.939 230.499C192.939 232.45 194.151 234.114 195.856 234.792V226.203C194.151 226.885 192.939 228.548 192.939 230.499Z" fill="#DFB593"/>
<path d="M225.83 230.499C225.83 228.548 224.627 226.885 222.914 226.203V234.792C224.627 234.118 225.83 232.45 225.83 230.499Z" fill="#DFB593"/>
<path d="M223.93 231.314C223.93 239.348 217.42 245.854 209.39 245.854C201.36 245.854 194.85 239.343 194.85 231.314C194.85 223.284 201.36 216.773 209.39 216.773C217.42 216.773 223.93 223.288 223.93 231.314Z" fill="#FFD8B5"/>
<path d="M203.199 231.004C203.199 231.64 203.717 232.158 204.353 232.158C204.99 232.158 205.508 231.64 205.508 231.004C205.508 230.363 204.99 229.85 204.353 229.85C203.717 229.846 203.199 230.363 203.199 231.004Z" fill="#1F0A0C"/>
<path d="M213.279 231.004C213.279 231.64 213.797 232.158 214.433 232.158C215.074 232.158 215.588 231.64 215.588 231.004C215.588 230.363 215.07 229.85 214.433 229.85C213.797 229.846 213.279 230.363 213.279 231.004Z" fill="#1F0A0C"/>
<path d="M210.375 231.541V235.829H208.412" stroke="#F49479" stroke-width="1.23221" stroke-miterlimit="10" stroke-linecap="round" stroke-linejoin="round"/>
<path d="M206.938 237.643C206.938 239.479 208.125 240.97 209.591 240.97C211.057 240.97 212.244 239.479 212.244 237.643" fill="#F49479"/>
<path d="M225.955 227.506C225.955 227.506 230.354 219.554 225.581 213.693C220.808 207.836 214.955 209.109 214.955 209.109L216.697 219.608L225.955 227.506Z" fill="#9B7D68"/>
<path d="M181.587 276.126L152.19 249.297L132.467 211.193L144.411 204.666L162.258 239.332L197.885 253.618L181.587 276.126Z" fill="#CFF5FF"/>
<path d="M235.527 277.292L219.615 254.784L250.663 234.214L268.69 203.4L280.914 209.393L263.157 245.599L235.527 277.292Z" fill="#CFF5FF"/>
<path d="M201.175 251.047C201.06 253.828 204.514 256.226 208.888 256.403C213.263 256.584 216.902 254.477 217.013 251.696" fill="#FFD8B5"/>
<path d="M211.535 254.452L206.413 254.242L204.482 257.898L206.454 260.477L210.984 260.666L213.157 258.255L211.535 254.452Z" fill="#4F4F4F"/>
<path d="M209.874 260.108L209.25 260.083L208.223 260.038L207.599 260.014L203.307 305.441L207.036 313.138L211.386 305.77L209.874 260.108Z" fill="#4F4F4F"/>
<path d="M197.814 253.652L201.737 247.947L208.986 254.125L205.253 262.845L197.814 253.652Z" fill="#CFF5FF"/>
<path d="M220.143 254.613L216.722 248.588L208.959 254.125L211.916 263.132L220.143 254.613Z" fill="#CFF5FF"/>
<path d="M208.986 254.125L205.253 262.845L199.77 256.068" stroke="white" stroke-width="0.821473" stroke-miterlimit="10" stroke-linecap="round" stroke-linejoin="round"/>
<path d="M208.959 254.125L211.916 263.132L218.016 256.815" stroke="white" stroke-width="0.821473" stroke-miterlimit="10" stroke-linecap="round" stroke-linejoin="round"/>
<path d="M212.827 218.861L201.294 225.519C197.885 227.487 193.527 226.32 191.559 222.911C189.592 219.502 190.759 215.144 194.168 213.176L205.701 206.518C209.11 204.551 213.468 205.717 215.436 209.127C217.407 212.532 216.236 216.89 212.827 218.861Z" fill="#9B7D68"/>
<path d="M217.607 226.673L216.075 225.252C213.483 222.845 213.331 218.795 215.738 216.204C218.145 213.612 222.195 213.46 224.786 215.867L226.318 217.288C228.91 219.695 229.062 223.745 226.655 226.336C224.248 228.928 220.199 229.08 217.607 226.673Z" fill="#9B7D68"/>
<path d="M197.104 251.596C196.48 261.092 202.768 268.777 205.61 277.398C205.844 278.109 206.896 277.604 206.662 276.901C203.897 268.518 197.654 260.94 198.262 251.711C198.311 250.959 197.153 250.848 197.104 251.596Z" fill="#5E79DB"/>
<path d="M219.985 254.432C220.54 259.098 218.096 263.135 215.463 266.766C212.855 270.36 210.127 273.872 207.347 277.335C206.879 277.922 207.831 278.587 208.3 278.004C211.495 274.02 214.732 270.003 217.591 265.768C219.919 262.318 221.636 258.478 221.131 254.235C221.045 253.487 219.899 253.693 219.985 254.432Z" fill="#5E79DB"/>
<path d="M211.359 290.994C211.309 291.631 210.747 292.116 210.106 292.062L201.595 291.389C200.959 291.339 200.474 290.777 200.527 290.136L201.567 276.984C201.616 276.347 202.179 275.863 202.819 275.916L211.33 276.59C211.966 276.639 212.451 277.202 212.398 277.842L211.359 290.994Z" fill="#DEE7FF"/>
<path d="M209.293 280.07L204.285 279.674L203.889 284.682L208.897 285.077L209.293 280.07Z" fill="#ADADAD"/>
<path d="M209.097 286.282L203.5 285.84L203.477 286.135L209.074 286.577L209.097 286.282Z" fill="#ADADAD"/>
<path d="M209.029 287.161L203.432 286.719L203.408 287.014L209.006 287.456L209.029 287.161Z" fill="#ADADAD"/>
<path d="M208.959 288.046L203.361 287.604L203.338 287.898L208.935 288.341L208.959 288.046Z" fill="#ADADAD"/>
<path d="M181.467 317.064C179.569 320.498 180.818 324.815 184.248 326.708L189.521 329.62C192.951 331.518 197.272 330.269 199.166 326.84C201.059 323.41 199.815 319.089 196.385 317.195L191.111 314.283C187.677 312.386 183.36 313.634 181.467 317.064Z" fill="#FFD8B5"/>
<path d="M186.573 319.459C187.867 321.233 190.36 321.624 192.135 320.33L194.862 318.338C196.636 317.044 197.027 314.555 195.733 312.781C194.439 311.006 191.95 310.612 190.171 311.91L187.44 313.902C185.666 315.192 185.275 317.681 186.573 319.459Z" fill="#FFD8B5"/>
<path d="M106.52 196.483C102.869 195.046 101.078 190.926 102.512 187.279L104.717 181.672C106.151 178.025 110.271 176.23 113.922 177.664C117.569 179.097 119.364 183.217 117.931 186.868L115.725 192.475C114.292 196.126 110.168 197.917 106.52 196.483Z" fill="#FFD8B5"/>
<path d="M108.928 191.381C108.792 189.187 110.464 187.298 112.657 187.162L116.029 186.957C118.223 186.821 120.112 188.489 120.243 190.682C120.379 192.876 118.711 194.765 116.518 194.901L113.146 195.106C110.953 195.246 109.063 193.578 108.928 191.381Z" fill="#FFD8B5"/>
<path d="M101.067 391.244L82.3008 386.315L89.1519 360.948L95.6703 316.736L114.864 319.566L108.19 364.838L101.067 391.244Z" fill="#D68F5F"/>
<path d="M124.104 318.169L125.328 311.992L95.6396 306.102L94.0295 314.214C92.5837 321.504 97.3195 328.589 104.614 330.039L110.697 348.81L87.8027 356.573L92.8466 375.2L137.296 360.623L124.104 318.169Z" fill="#E89E69"/>
<path d="M147.474 233.751L114.41 225.064L103.994 264.711L137.059 273.398L147.474 233.751Z" fill="#634A3F"/>
<path d="M137.272 259.863C136.028 259.153 134.676 258.586 133.226 258.208L115.409 253.526C113.823 253.111 112.234 252.942 110.677 252.988C103.493 253.201 97.0034 258.089 95.0853 265.392L97.1185 291.761C96.4366 295.901 92.2841 308.548 96.3422 309.612L123.336 315.325C127.394 316.389 129.825 304.625 131.267 300.686L145.092 278.527C147.043 271.093 143.643 263.511 137.272 259.863Z" fill="white"/>
<path d="M179.471 323.796L151.373 308.422L130.877 279.732L142.907 265.373L161.345 298.363L186.006 311.856L179.471 323.796Z" fill="white"/>
<path d="M100.949 192.266L113.62 197.227L103.368 223.404L112.638 257.224L95.174 266.539L89.2676 222.089L100.949 192.266Z" fill="white"/>
<path d="M147.655 233.478C150.082 224.241 144.602 214.797 135.415 212.383C126.229 209.97 116.815 215.501 114.388 224.738C111.961 233.975 117.441 243.419 126.628 245.833C135.814 248.246 145.228 242.715 147.655 233.478Z" fill="#634A3F"/>
<path d="M132.361 246.386L121.759 243.602L119.254 249.73L132.172 247.869L132.361 246.386Z" fill="#DFB593"/>
<path d="M132.172 247.869L119.254 249.73L118.408 251.804L131.248 255.176L132.172 247.869Z" fill="#FFD8B5"/>
<path d="M114.526 227.968C114.029 229.853 114.777 231.771 116.255 232.86L118.436 224.555C116.617 224.776 115.023 226.083 114.526 227.968Z" fill="#DFB593"/>
<path d="M146.338 236.328C146.835 234.442 146.092 232.524 144.609 231.432L142.428 239.737C144.256 239.519 145.845 238.213 146.338 236.328Z" fill="#DFB593"/>
<path d="M144.288 236.632C142.247 244.403 134.299 249.04 126.528 247.003C118.761 244.962 114.12 237.014 116.161 229.243C118.202 221.476 126.154 216.834 133.917 218.876C141.688 220.913 146.329 228.865 144.288 236.632Z" fill="#FFD8B5"/>
<path d="M124.321 231.058C124.161 231.674 124.526 232.307 125.142 232.471C125.758 232.631 126.391 232.262 126.555 231.646C126.72 231.029 126.346 230.397 125.73 230.233C125.114 230.072 124.481 230.442 124.321 231.058Z" fill="#1F0A0C"/>
<path d="M134.069 233.619C133.909 234.235 134.274 234.868 134.894 235.032C135.511 235.196 136.143 234.827 136.307 234.206C136.472 233.59 136.102 232.958 135.482 232.793C134.862 232.633 134.229 232.999 134.069 233.619Z" fill="#1F0A0C"/>
<path d="M131.127 233.402L130.035 237.551L128.133 237.05" stroke="#F49479" stroke-width="1.23221" stroke-miterlimit="10" stroke-linecap="round" stroke-linejoin="round"/>
<path d="M117.303 251.363C116.596 254.054 119.455 257.138 123.689 258.247C127.924 259.36 131.929 258.079 132.635 255.389" fill="#FFD8B5"/>
<path d="M126.713 238.205C126.499 239.01 127.288 239.918 128.471 240.226C129.654 240.538 130.783 240.136 130.997 239.331" stroke="#F49479" stroke-width="1.23221" stroke-miterlimit="10" stroke-linecap="round" stroke-linejoin="round"/>
<path d="M115.01 225.579C115.01 225.579 122.691 230.434 128.819 226.014C134.947 221.595 134.019 215.672 134.019 215.672L123.438 216.793L115.01 225.579Z" fill="#634A3F"/>
<path d="M140.118 220.822C140.118 220.822 139.494 225.677 140.944 228.487C143.059 232.59 146.55 232.799 146.55 232.799L147.018 228.31L142.858 221.188L140.118 220.822Z" fill="#634A3F"/>
<path d="M135.531 252.147L116.443 247.516L112.966 261.845L132.054 266.477L135.531 252.147Z" fill="white"/>
<path d="M112.994 251.259C110.743 260.504 115.614 269.158 116.933 278.141C117.04 278.881 118.165 278.564 118.054 277.833C116.773 269.097 111.926 260.562 114.115 251.571C114.296 250.84 113.17 250.531 112.994 251.259Z" fill="#5E79DB"/>
<path d="M135.046 257.989C134.791 262.68 131.686 266.241 128.466 269.358C125.278 272.451 121.988 275.437 118.653 278.37C118.09 278.867 118.916 279.688 119.475 279.191C123.311 275.819 127.188 272.418 130.733 268.738C133.62 265.74 135.974 262.252 136.204 257.985C136.253 257.241 135.087 257.241 135.046 257.989Z" fill="#5E79DB"/>
<path d="M120.253 292.522C120.093 293.142 119.456 293.52 118.836 293.359L110.568 291.232C109.948 291.072 109.57 290.435 109.73 289.815L113.02 277.037C113.18 276.417 113.817 276.039 114.437 276.199L122.705 278.327C123.326 278.487 123.703 279.123 123.543 279.744L120.253 292.522Z" fill="#DEE7FF"/>
<path d="M120.099 281.385L115.234 280.133L113.983 284.997L118.847 286.249L120.099 281.385Z" fill="#ADADAD"/>
<path d="M118.838 287.47L113.4 286.07L113.327 286.357L118.764 287.756L118.838 287.47Z" fill="#ADADAD"/>
<path d="M118.615 288.327L113.178 286.928L113.104 287.214L118.541 288.613L118.615 288.327Z" fill="#ADADAD"/>
<path d="M118.394 289.184L112.957 287.785L112.883 288.072L118.321 289.471L118.394 289.184Z" fill="#ADADAD"/>
<path d="M311.745 205.704C315.66 205.478 318.65 202.122 318.424 198.208L318.079 192.194C317.853 188.28 314.497 185.29 310.587 185.516C306.673 185.742 303.683 189.093 303.908 193.008L304.254 199.021C304.475 202.939 307.831 205.93 311.745 205.704Z" fill="#FFD8B5"/>
<path d="M311.051 200.105C311.865 198.064 310.867 195.747 308.825 194.934L305.687 193.686C303.646 192.872 301.329 193.87 300.52 195.912C299.707 197.953 300.701 200.27 302.746 201.083L305.884 202.332C307.922 203.149 310.238 202.151 311.051 200.105Z" fill="#FFD8B5"/>
<path d="M301.923 336.67L310.031 362.308L327.59 405.916L341.259 401.324L329.257 355.046L321.425 311.742L287.863 316.355L265.203 360.636L287.272 398.252L300.477 393.52L290.139 362.328L301.923 336.67Z" fill="#93684C"/>
<path d="M318.358 203.428L304.767 204.188L306.34 232.257L282.723 252.285L300.668 275.795L320.149 235.408L318.358 203.428Z" fill="#5CA090"/>
<path d="M266.252 250.248L276.381 246.062L279.683 251.796L266.634 251.69L266.252 250.248Z" fill="#DFB593"/>
<path d="M266.633 251.691L279.686 251.798L280.803 253.741L268.53 258.805L266.633 251.691Z" fill="#FFD8B5"/>
<path d="M281.45 229.601C282.194 231.404 281.713 233.405 280.395 234.682L277.117 226.742C278.949 226.722 280.703 227.798 281.45 229.601Z" fill="#DFB593"/>
<path d="M251.047 242.157C250.303 240.354 250.78 238.354 252.102 237.076L255.38 245.016C253.54 245.036 251.79 243.956 251.047 242.157Z" fill="#DFB593"/>
<path d="M253.116 242.18C256.184 249.606 264.682 253.135 272.108 250.071C279.53 247.006 283.063 238.504 279.994 231.082C276.93 223.66 268.428 220.128 261.006 223.192C253.584 226.256 250.052 234.758 253.116 242.18Z" fill="#FFD8B5"/>
<path d="M272.158 233.979C272.401 234.566 272.121 235.244 271.534 235.487C270.947 235.729 270.269 235.45 270.027 234.858C269.784 234.267 270.064 233.593 270.655 233.351C271.238 233.104 271.912 233.388 272.158 233.979Z" fill="#1F0A0C"/>
<path d="M262.842 237.823C263.085 238.411 262.805 239.088 262.214 239.335C261.623 239.577 260.949 239.298 260.702 238.706C260.46 238.115 260.739 237.441 261.331 237.199C261.922 236.953 262.596 237.232 262.842 237.823Z" fill="#1F0A0C"/>
<path d="M265.727 237.213L267.365 241.181L269.181 240.429" stroke="#F49479" stroke-width="1.23221" stroke-miterlimit="10" stroke-linecap="round" stroke-linejoin="round"/>
<path d="M305.4 261.549C302.467 254.201 295.349 249.983 288.198 250.722C286.645 250.882 285.097 251.273 283.586 251.917L282.727 252.287C283.466 256.308 281.326 260.436 277.392 262.063C273.527 263.656 269.189 262.321 266.844 259.081L266.593 259.187C265.209 259.779 263.948 260.547 262.819 261.455C257.019 266.108 254.719 274.463 257.705 281.946L280.033 331.218L323.365 315.824L305.4 261.549Z" fill="#5CA090"/>
<path d="M277.391 262.065C281.326 260.438 283.466 256.31 282.727 252.289L266.844 259.083C269.185 262.323 273.526 263.658 277.391 262.065Z" fill="#FFD8B5"/>
<path d="M270.745 241.383C271.062 242.155 270.405 243.157 269.275 243.621C268.145 244.09 266.971 243.843 266.65 243.071" stroke="#F49479" stroke-width="1.23221" stroke-miterlimit="10" stroke-linecap="round" stroke-linejoin="round"/>
<path d="M285.545 249.63C289.02 258.49 285.352 267.723 285.254 276.796C285.246 277.544 284.091 277.384 284.1 276.64C284.194 267.814 287.85 258.699 284.473 250.086C284.198 249.392 285.27 248.932 285.545 249.63Z" fill="#5E79DB"/>
<path d="M264.593 259.263C265.476 263.876 269.029 266.989 272.639 269.646C276.213 272.279 279.877 274.801 283.573 277.257C284.198 277.672 283.491 278.596 282.867 278.186C278.612 275.356 274.311 272.509 270.302 269.338C267.037 266.755 264.24 263.617 263.435 259.419C263.299 258.684 264.454 258.532 264.593 259.263Z" fill="#5E79DB"/>
<path d="M283.894 291.498C284.136 292.089 284.818 292.377 285.409 292.139L293.316 288.919C293.907 288.676 294.195 287.994 293.957 287.403L288.983 275.183C288.74 274.592 288.059 274.305 287.467 274.543L279.56 277.763C278.969 278.005 278.681 278.687 278.92 279.279L283.894 291.498Z" fill="#DEE7FF"/>
<path d="M284.437 285.119L289.09 283.225L287.196 278.572L282.543 280.466L284.437 285.119Z" fill="#ADADAD"/>
<path d="M284.72 286.602L289.92 284.484L289.808 284.21L284.608 286.328L284.72 286.602Z" fill="#ADADAD"/>
<path d="M285.053 287.424L290.254 285.307L290.142 285.033L284.942 287.15L285.053 287.424Z" fill="#ADADAD"/>
<path d="M285.387 288.244L290.588 286.127L290.476 285.853L285.276 287.97L285.387 288.244Z" fill="#ADADAD"/>
<path d="M277.412 209.652C276.853 212.043 274.405 212.749 272.027 212.844C269.678 211.509 266.248 211.184 262.761 212.207C257.212 213.838 253.626 218.265 254.752 222.102C255.877 225.938 261.29 227.729 266.835 226.098C267.365 225.942 267.875 225.761 268.363 225.56C269.452 229.088 273.173 231.097 276.726 230.054C280.308 229.002 282.361 225.244 281.31 221.662C281.071 220.845 280.685 220.11 280.197 219.469C282.727 214.98 277.412 209.652 277.412 209.652Z" fill="#473D3A"/>
<path d="M257.285 220.162C254.332 218.761 250.701 220.055 249.3 223.004C248.52 224.651 247.735 226.298 246.955 227.945C246.795 228.282 246.634 228.623 246.47 228.964C245.07 231.917 246.363 235.548 249.312 236.948C252.266 238.349 255.897 237.055 257.297 234.106C257.457 233.765 257.622 233.428 257.782 233.087C258.562 231.44 259.347 229.793 260.127 228.146C261.532 225.193 260.238 221.562 257.285 220.162Z" fill="#473D3A"/>
<path d="M83.7683 201.044L72.7976 173.221L64.5664 178.708L83.7683 201.044Z" fill="white"/>
<path d="M82.5935 205.358L51.6363 183.412L44.584 197.521L82.5935 205.358Z" fill="white"/>
<path d="M79.4587 209.666L50.0664 210.06L51.6354 218.682L79.4587 209.666Z" fill="white"/>
<path d="M327.545 186.878L336.109 162.451L344.36 167.844L327.545 186.878Z" fill="white"/>
<path d="M327.545 191.636L354.83 175.457L358.634 186.243L327.545 191.636Z" fill="white"/>
<path d="M329.13 196.078L351.338 198.3L348.484 204.962L329.13 196.078Z" fill="white"/>
<path d="M323.737 176.729L325.006 163.084L319.297 163.721L323.737 176.729Z" fill="white"/>
</g>
<defs>
<clipPath id="clip0_759_29897">
<rect width="400" height="350" fill="white" transform="translate(0 0.0195312)"/>
</clipPath>
</defs>
</svg>
