<svg width="400" height="351" viewBox="0 0 400 351" fill="none" xmlns="http://www.w3.org/2000/svg">
<g clip-path="url(#clip0_794_6006)">
<rect width="400" height="350" transform="translate(0 0.0195312)" fill="#6D6DB9"/>
<rect x="212" y="49" width="24" height="24" rx="12" transform="rotate(90 212 49)" fill="black"/>
<path d="M205.5 60L200 65L194.5 60" stroke="white" stroke-width="2" stroke-miterlimit="10" stroke-linecap="square"/>
<path d="M68.6878 95.444H81.6018V97.776H68.6878V95.444ZM66.4438 102.484H84.8798V104.816H66.4438V102.484ZM74.1658 104.134H77.0918V108.402H74.1658V104.134ZM79.8418 95.444H82.7238V97.072C82.7238 98.832 82.7238 100.878 82.0858 103.562L79.2038 103.276C79.8418 100.658 79.8418 98.788 79.8418 97.072V95.444ZM68.2918 107.676H82.7458V114.958H79.8198V109.986H68.2918V107.676ZM87.254 96.192H97.132V106.048H87.254V96.192ZM94.272 98.502H90.114V103.738H94.272V98.502ZM100.212 94.608H103.16V109.084H100.212V94.608ZM89.586 112.186H103.666V114.54H89.586V112.186ZM89.586 107.764H92.512V113.22H89.586V107.764ZM115.236 97.424H121.22V99.756H115.236V97.424ZM115.236 102.374H121.22V104.706H115.236V102.374ZM120.142 94.608H123.068V109.502H120.142V94.608ZM109.626 112.274H123.53V114.606H109.626V112.274ZM109.626 108.028H112.552V113.484H109.626V108.028ZM111.65 95.796C114.664 95.796 117.018 97.996 117.018 101.076C117.018 104.112 114.664 106.334 111.65 106.334C108.614 106.334 106.26 104.112 106.26 101.076C106.26 97.996 108.614 95.796 111.65 95.796ZM111.65 98.37C110.154 98.37 109.054 99.382 109.054 101.076C109.054 102.77 110.154 103.782 111.65 103.782C113.124 103.782 114.246 102.77 114.246 101.076C114.246 99.382 113.124 98.37 111.65 98.37ZM128.083 95.488H140.997V97.82H128.083V95.488ZM125.839 102.814H144.275V105.146H125.839V102.814ZM139.237 95.488H142.119V97.116C142.119 98.876 142.119 100.768 141.503 103.408L138.599 103.364C139.237 100.724 139.237 98.854 139.237 97.116V95.488ZM127.995 107.28H142.031V114.738H127.995V107.28ZM139.149 109.546H130.855V112.428H139.149V109.546ZM146.561 117.708L145.901 115.948C147.617 115.31 148.563 114.144 148.541 112.846L148.431 110.558L149.575 112.45C149.245 112.78 148.805 112.934 148.321 112.934C147.265 112.934 146.297 112.23 146.297 111.02C146.297 109.854 147.243 109.106 148.409 109.106C149.883 109.106 150.719 110.294 150.719 112.274C150.719 114.87 149.245 116.828 146.561 117.708ZM156.918 113V111.152C161.362 107.17 163.958 104.112 163.958 101.604C163.958 99.976 163.1 98.964 161.538 98.964C160.328 98.964 159.382 99.734 158.546 100.658L156.764 98.898C158.26 97.292 159.734 96.434 161.956 96.434C165.014 96.434 167.082 98.392 167.082 101.428C167.082 104.398 164.618 107.566 161.648 110.47C162.462 110.382 163.54 110.272 164.31 110.272H167.83V113H156.918ZM175.02 113.308C171.698 113.308 169.498 110.426 169.498 104.794C169.498 99.184 171.698 96.434 175.02 96.434C178.32 96.434 180.52 99.184 180.52 104.794C180.52 110.426 178.32 113.308 175.02 113.308ZM175.02 110.778C176.428 110.778 177.462 109.37 177.462 104.794C177.462 100.24 176.428 98.92 175.02 98.92C173.612 98.92 172.556 100.24 172.556 104.794C172.556 109.37 173.612 110.778 175.02 110.778ZM181.991 113V111.152C186.435 107.17 189.031 104.112 189.031 101.604C189.031 99.976 188.173 98.964 186.611 98.964C185.401 98.964 184.455 99.734 183.619 100.658L181.837 98.898C183.333 97.292 184.807 96.434 187.029 96.434C190.087 96.434 192.155 98.392 192.155 101.428C192.155 104.398 189.691 107.566 186.721 110.47C187.535 110.382 188.613 110.272 189.383 110.272H192.903V113H181.991ZM200.995 113V102.99C200.995 102.044 201.083 100.57 201.127 99.602H201.039C200.621 100.482 200.181 101.384 199.719 102.264L197.211 106.312H205.945V108.798H194.065V106.576L200.115 96.72H204.009V113H200.995ZM221.144 94.586H224.07V109.568H221.144V94.586ZM216.216 96.852H222.134V99.14H216.216V96.852ZM210.606 112.274H224.532V114.606H210.606V112.274ZM210.606 108.226H213.554V113.462H210.606V108.226ZM208.142 95.884H211.046V105.454H208.142V95.884ZM208.142 104.574H209.77C212.718 104.574 215.336 104.442 218.24 103.936L218.504 106.29C215.512 106.84 212.828 106.95 209.77 106.95H208.142V104.574ZM216.216 100.636H222.134V102.946H216.216V100.636ZM235.828 95.686H238.226V97.49C238.226 101.538 236.466 105.102 232.594 106.444L231.032 104.134C234.442 102.99 235.828 100.262 235.828 97.49V95.686ZM236.422 95.686H238.798V97.776C238.798 100.218 240.162 102.594 243.352 103.584L241.834 105.85C238.16 104.618 236.422 101.45 236.422 97.776V95.686ZM244.474 94.586H247.4V106.62H244.474V94.586ZM246.586 99.294H250.106V101.714H246.586V99.294ZM240.756 107.082C244.98 107.082 247.642 108.556 247.642 111.02C247.642 113.506 244.98 114.958 240.756 114.958C236.51 114.958 233.848 113.506 233.848 111.02C233.848 108.556 236.51 107.082 240.756 107.082ZM240.756 109.348C238.16 109.348 236.752 109.898 236.752 111.02C236.752 112.164 238.16 112.692 240.756 112.692C243.352 112.692 244.738 112.164 244.738 111.02C244.738 109.898 243.352 109.348 240.756 109.348ZM264.273 94.608H267.199V109.59H264.273V94.608ZM266.363 100.328H269.905V102.726H266.363V100.328ZM254.065 112.274H267.925V114.606H254.065V112.274ZM254.065 108.072H256.991V112.78H254.065V108.072ZM251.755 96.038H254.659V98.964H258.641V96.038H261.545V106.378H251.755V96.038ZM254.659 101.186V104.09H258.641V101.186H254.659ZM284.995 94.586H287.943V114.958H284.995V94.586ZM278.989 96.698H281.893C281.893 102.924 279.781 108.028 272.543 111.526L271.025 109.194C276.877 106.378 278.989 102.682 278.989 97.226V96.698ZM272.103 96.698H280.375V99.008H272.103V96.698ZM298.897 102.088H302.241V104.442H298.897V102.088ZM305.475 94.586H308.269V114.958H305.475V94.586ZM301.317 94.894H304.067V114.034H301.317V94.894ZM295.333 96.016C298.039 96.016 299.777 98.81 299.777 103.408C299.777 108.028 298.039 110.822 295.333 110.822C292.649 110.822 290.933 108.028 290.933 103.408C290.933 98.81 292.649 96.016 295.333 96.016ZM295.333 98.766C294.233 98.766 293.595 100.306 293.595 103.408C293.595 106.532 294.233 108.05 295.333 108.05C296.477 108.05 297.115 106.532 297.115 103.408C297.115 100.306 296.477 98.766 295.333 98.766ZM311.15 96.258H320.852V106.092H311.15V96.258ZM317.97 98.568H314.032V103.782H317.97V98.568ZM323.668 94.586H326.594V109.436H323.668V94.586ZM325.758 100.46H329.3V102.858H325.758V100.46ZM313.46 112.274H327.32V114.606H313.46V112.274ZM313.46 107.984H316.386V113.44H313.46V107.984ZM132.493 145V142.382H136.013V132.086H133.043V130.084C134.693 129.776 135.793 129.358 136.849 128.72H139.247V142.382H142.305V145H132.493ZM149.737 145.308C146.415 145.308 144.215 142.426 144.215 136.794C144.215 131.184 146.415 128.434 149.737 128.434C153.037 128.434 155.237 131.184 155.237 136.794C155.237 142.426 153.037 145.308 149.737 145.308ZM149.737 142.778C151.145 142.778 152.179 141.37 152.179 136.794C152.179 132.24 151.145 130.92 149.737 130.92C148.329 130.92 147.273 132.24 147.273 136.794C147.273 141.37 148.329 142.778 149.737 142.778ZM156.708 145V143.152C161.152 139.17 163.748 136.112 163.748 133.604C163.748 131.976 162.89 130.964 161.328 130.964C160.118 130.964 159.172 131.734 158.336 132.658L156.554 130.898C158.05 129.292 159.524 128.434 161.746 128.434C164.804 128.434 166.872 130.392 166.872 133.428C166.872 136.398 164.408 139.566 161.438 142.47C162.252 142.382 163.33 142.272 164.1 142.272H167.62V145H156.708ZM169.222 142.228H187.658V144.604H169.222V142.228ZM176.966 137.718H179.892V142.888H176.966V137.718ZM176.878 129.248H179.342V129.974C179.342 134.264 176.262 137.674 171.07 138.62L169.926 136.31C174.458 135.606 176.878 132.79 176.878 129.974V129.248ZM177.472 129.248H179.936V129.974C179.936 132.79 182.356 135.518 186.998 136.2L185.876 138.51C180.596 137.586 177.472 134.264 177.472 129.974V129.248ZM170.74 128.126H186.074V130.458H170.74V128.126ZM198.845 137.036H201.771V141.502H198.845V137.036ZM207.777 126.586H210.703V142.008H207.777V126.586ZM196.029 144.274H211.143V146.606H196.029V144.274ZM196.029 140.556H198.955V144.89H196.029V140.556ZM193.829 137.916L193.477 135.584C197.195 135.584 202.167 135.54 206.435 134.99L206.611 137.08C202.277 137.806 197.503 137.916 193.829 137.916ZM203.927 138.422H208.415V140.424H203.927V138.422ZM200.033 127.29C203.003 127.29 205.093 128.764 205.093 130.92C205.093 133.098 203.003 134.55 200.033 134.55C197.041 134.55 194.951 133.098 194.951 130.92C194.951 128.764 197.041 127.29 200.033 127.29ZM200.033 129.424C198.669 129.424 197.723 129.93 197.723 130.92C197.723 131.91 198.669 132.416 200.033 132.416C201.375 132.416 202.321 131.91 202.321 130.92C202.321 129.93 201.375 129.424 200.033 129.424ZM227.676 130.7H232.912V133.01H227.676V130.7ZM232.01 126.586H234.936V136.97H232.01V126.586ZM221.472 137.74H234.936V143.24H224.398V145.77H221.494V141.15H232.032V140.006H221.472V137.74ZM221.494 144.472H235.508V146.738H221.494V144.472ZM218.744 127.422H221.648V129.754H225.52V127.422H228.38V136.42H218.744V127.422ZM221.648 131.976V134.132H225.52V131.976H221.648ZM250.708 126.564H253.656V147.002H250.708V126.564ZM252.996 134.11H256.604V136.508H252.996V134.11ZM238.476 139.676H240.192C243.624 139.676 246.33 139.566 249.322 139.038L249.608 141.458C246.528 142.008 243.734 142.096 240.192 142.096H238.476V139.676ZM238.476 128.456H247.98V130.81H241.38V140.842H238.476V128.456ZM259.616 139.456L259.132 131.338L259.044 128.28H262.278L262.19 131.338L261.728 139.456H259.616ZM260.65 145.308C259.506 145.308 258.648 144.406 258.648 143.196C258.648 141.986 259.506 141.106 260.65 141.106C261.816 141.106 262.674 141.986 262.674 143.196C262.674 144.406 261.816 145.308 260.65 145.308ZM86.2534 158.586H89.2014V178.958H86.2534V158.586ZM80.2474 160.698H83.1514C83.1514 166.924 81.0394 172.028 73.8014 175.526L72.2834 173.194C78.1354 170.378 80.2474 166.682 80.2474 161.226V160.698ZM73.3614 160.698H81.6334V163.008H73.3614V160.698ZM94.2817 159.488H107.196V161.82H94.2817V159.488ZM92.0377 166.814H110.474V169.146H92.0377V166.814ZM105.436 159.488H108.318V161.116C108.318 162.876 108.318 164.768 107.702 167.408L104.798 167.364C105.436 164.724 105.436 162.854 105.436 161.116V159.488ZM94.1937 171.28H108.23V178.738H94.1937V171.28ZM105.348 173.546H97.0537V176.428H105.348V173.546ZM116.358 168.486H134.816V170.796H116.358V168.486ZM124.256 170.004H127.226V174.294H124.256V170.004ZM118.514 176.252H132.792V178.606H118.514V176.252ZM118.514 172.512H121.462V176.846H118.514V172.512ZM125.576 158.96C129.954 158.96 132.902 160.61 132.902 163.184C132.902 165.78 129.954 167.408 125.576 167.408C121.176 167.408 118.25 165.78 118.25 163.184C118.25 160.61 121.176 158.96 125.576 158.96ZM125.576 161.27C123.002 161.27 121.396 161.93 121.396 163.184C121.396 164.438 123.002 165.076 125.576 165.076C128.15 165.076 129.756 164.438 129.756 163.184C129.756 161.93 128.15 161.27 125.576 161.27ZM140.293 165.406H143.219V169.146H140.293V165.406ZM147.465 165.406H150.369V169.146H147.465V165.406ZM136.157 168.244H154.571V170.554H136.157V168.244ZM145.331 171.588C149.731 171.588 152.393 172.908 152.393 175.262C152.393 177.638 149.731 178.958 145.331 178.958C140.909 178.958 138.247 177.638 138.247 175.262C138.247 172.908 140.909 171.588 145.331 171.588ZM145.331 173.788C142.603 173.788 141.217 174.25 141.217 175.262C141.217 176.296 142.603 176.758 145.331 176.758C148.059 176.758 149.445 176.296 149.445 175.262C149.445 174.25 148.059 173.788 145.331 173.788ZM145.375 158.872C149.863 158.872 152.745 160.368 152.745 162.81C152.745 165.23 149.863 166.682 145.375 166.682C140.865 166.682 138.005 165.23 138.005 162.81C138.005 160.368 140.865 158.872 145.375 158.872ZM145.375 161.116C142.581 161.116 141.019 161.666 141.019 162.81C141.019 163.932 142.581 164.482 145.375 164.482C148.169 164.482 149.731 163.932 149.731 162.81C149.731 161.666 148.169 161.116 145.375 161.116ZM163.633 159.18H166.207V160.126C166.207 164.042 163.127 167.364 157.781 168.156L156.637 165.802C161.323 165.186 163.633 162.524 163.633 160.126V159.18ZM164.183 159.18H166.735V160.126C166.735 162.502 169.067 165.186 173.731 165.802L172.609 168.156C167.263 167.364 164.183 164.042 164.183 160.126V159.18ZM163.655 171.5H166.559V178.958H163.655V171.5ZM155.977 169.652H174.391V172.028H155.977V169.652ZM178.789 171.5H192.693V178.958H189.745V173.81H178.789V171.5ZM189.745 158.586H192.693V170.532H189.745V158.586ZM181.605 159.686C184.751 159.686 187.127 161.776 187.127 164.68C187.127 167.584 184.751 169.652 181.605 169.652C178.437 169.652 176.061 167.584 176.061 164.68C176.061 161.776 178.437 159.686 181.605 159.686ZM181.605 162.172C180.065 162.172 178.921 163.074 178.921 164.68C178.921 166.286 180.065 167.21 181.605 167.21C183.145 167.21 184.267 166.286 184.267 164.68C184.267 163.074 183.145 162.172 181.605 162.172ZM195.551 167.584H214.009V169.718H195.551V167.584ZM197.619 170.884H211.809V175.724H200.567V177.462H197.663V173.876H208.927V172.864H197.619V170.884ZM197.663 176.846H212.381V178.826H197.663V176.846ZM197.817 158.916H211.765V163.712H200.743V165.384H197.839V161.864H208.883V160.874H197.817V158.916ZM197.839 164.702H212.139V166.682H197.839V164.702ZM200.083 168.31H202.987V172.138H200.083V168.31ZM206.573 168.31H209.477V172.138H206.573V168.31ZM224.624 177.308C222.578 177.308 221.126 176.472 220.136 175.46L221.852 173.502C222.468 174.184 223.458 174.69 224.426 174.69C226.34 174.69 227.902 173.15 227.902 168.486C227.902 164.328 226.648 162.854 225.064 162.854C223.832 162.854 222.842 163.844 222.842 165.868C222.842 167.76 223.766 168.684 225.152 168.684C226.076 168.684 227.088 168.178 227.88 166.836L228.056 169.036C227.176 170.246 225.702 170.972 224.558 170.972C221.83 170.972 219.894 169.322 219.894 165.868C219.894 162.502 222.226 160.434 224.998 160.434C228.1 160.434 230.872 162.854 230.872 168.486C230.872 174.646 227.858 177.308 224.624 177.308ZM235.115 177.308C233.949 177.308 233.113 176.406 233.113 175.196C233.113 173.986 233.949 173.106 235.115 173.106C236.259 173.106 237.139 173.986 237.139 175.196C237.139 176.406 236.259 177.308 235.115 177.308ZM242.335 177C242.643 171.368 243.567 167.738 246.691 163.426H239.365V160.72H250.167V162.678C246.383 167.298 245.899 170.642 245.613 177H242.335ZM252.584 177V174.382H256.104V164.086H253.134V162.084C254.784 161.776 255.884 161.358 256.94 160.72H259.338V174.382H262.396V177H252.584ZM268.002 170.752C265.67 170.752 264.02 168.816 264.02 165.56C264.02 162.304 265.67 160.434 268.002 160.434C270.334 160.434 271.984 162.304 271.984 165.56C271.984 168.816 270.334 170.752 268.002 170.752ZM268.002 168.926C268.948 168.926 269.674 167.936 269.674 165.56C269.674 163.162 268.948 162.26 268.002 162.26C267.034 162.26 266.308 163.162 266.308 165.56C266.308 167.936 267.034 168.926 268.002 168.926ZM268.53 177.308L277.374 160.434H279.31L270.444 177.308H268.53ZM279.838 177.308C277.528 177.308 275.878 175.394 275.878 172.116C275.878 168.86 277.528 166.968 279.838 166.968C282.148 166.968 283.798 168.86 283.798 172.116C283.798 175.394 282.148 177.308 279.838 177.308ZM279.838 175.482C280.784 175.482 281.532 174.514 281.532 172.116C281.532 169.718 280.784 168.816 279.838 168.816C278.892 168.816 278.144 169.718 278.144 172.116C278.144 174.514 278.892 175.482 279.838 175.482ZM297.25 164.328H300.176V168.222H297.25V164.328ZM291.794 163.25H305.786V165.538H291.794V163.25ZM291.794 159.268H305.61V161.578H294.698V164.482H291.794V159.268ZM289.506 166.836H307.92V169.124H289.506V166.836ZM291.618 170.202H305.698V175.438H294.522V177.22H291.64V173.414H302.816V172.358H291.618V170.202ZM291.64 176.626H306.226V178.826H291.64V176.626ZM309.568 160.456H320.81V162.788H309.568V160.456ZM309.348 174.316L309.04 171.918C312.582 171.918 317.378 171.874 321.404 171.368L321.558 173.502C317.444 174.228 312.824 174.316 309.348 174.316ZM311.306 162.282H314.144V172.556H311.306V162.282ZM316.234 162.282H319.072V172.556H316.234V162.282ZM322.328 158.586H325.276V178.958H322.328V158.586ZM324.616 166.308H328.224V168.706H324.616V166.308Z" fill="white"/>
<path d="M280.424 267.33L361.001 359.419L331.032 377.645H287.759L229.641 313.712L233.364 314.053L245.892 320.144L258.078 321.159L268.575 316.761L276.532 313.08L281.777 302.878L285.276 293.059L284.148 280.873L280.424 267.33Z" fill="url(#paint0_linear_794_6006)"/>
<path d="M363.002 193H332V237.274H373.025V203.023L363.002 193Z" fill="white"/>
<path d="M363.002 203.023H373.024L363.002 193V203.023Z" fill="#123040"/>
<path d="M344.25 196.473H335.77V198.739H344.25V196.473Z" fill="#D6CEC9"/>
<path d="M344.25 200.621H335.77V202.887H344.25V200.621Z" fill="#D6CEC9"/>
<path d="M346.268 224.697H341.512V230.315H346.268V224.697Z" fill="#123040"/>
<path d="M354.96 217.318H350.203V230.313H354.96V217.318Z" fill="#123040"/>
<path d="M363.524 210.441H358.768V230.314H363.524V210.441Z" fill="#FF9EB1"/>
<path d="M259.102 210.607H135.965V295.077H259.102V210.607Z" fill="#617C9C"/>
<path d="M143.858 215.045C143.858 216.018 143.071 216.805 142.098 216.805C141.128 216.805 140.338 216.018 140.338 215.045C140.338 214.072 141.125 213.285 142.098 213.285C143.071 213.285 143.858 214.072 143.858 215.045Z" fill="#92ADCC"/>
<path d="M149.911 215.045C149.911 216.018 149.124 216.805 148.151 216.805C147.181 216.805 146.391 216.018 146.391 215.045C146.391 214.072 147.178 213.285 148.151 213.285C149.124 213.285 149.911 214.072 149.911 215.045Z" fill="#92ADCC"/>
<path d="M155.967 215.045C155.967 216.018 155.18 216.805 154.207 216.805C153.238 216.805 152.447 216.018 152.447 215.045C152.447 214.072 153.234 213.285 154.207 213.285C155.18 213.285 155.967 214.072 155.967 215.045Z" fill="#92ADCC"/>
<path d="M253.604 214.02H242.078V216.071H253.604V214.02Z" fill="#92ADCC"/>
<path d="M259.102 218.691H135.965V224.316H259.102V218.691Z" fill="#92ADCC"/>
<path d="M274.809 223.299H145.738V313.568H274.809V223.299Z" fill="#123040"/>
<path d="M271.926 226.201H148.627V310.671H271.926V226.201Z" fill="white"/>
<path d="M102.809 208.472C102.809 207.931 102.367 207.488 101.826 207.488H80.2629C79.7219 207.488 79.2793 207.931 79.2793 208.472V211.974H102.806V208.472H102.809Z" fill="#123040"/>
<path d="M79.2832 211.975V226.961C79.2832 227.502 79.7258 227.945 80.2668 227.945H101.829C102.37 227.945 102.813 227.502 102.813 226.961V211.975H79.2832Z" fill="white"/>
<path d="M86.7812 209.153C86.7812 209.062 86.855 208.988 86.9463 208.988H88.06C88.1513 208.988 88.2251 209.062 88.2251 209.153V210.267C88.2251 210.358 88.1513 210.432 88.06 210.432H86.9463C86.8585 210.432 86.7812 210.358 86.7812 210.267V209.153Z" fill="white"/>
<path d="M84.1484 209.153C84.1484 209.062 84.2222 208.988 84.3135 208.988H85.4271C85.5185 208.988 85.5923 209.062 85.5923 209.153V210.267C85.5923 210.358 85.5185 210.432 85.4271 210.432H84.3135C84.2222 210.432 84.1484 210.358 84.1484 210.267V209.153Z" fill="white"/>
<path d="M81.5176 209.153C81.5176 209.062 81.5914 208.988 81.6827 208.988H82.7963C82.8876 208.988 82.9614 209.062 82.9614 209.153V210.267C82.9614 210.358 82.8876 210.432 82.7963 210.432H81.6827C81.5914 210.432 81.5176 210.358 81.5176 210.267V209.153Z" fill="white"/>
<path d="M93.838 298.896V295.538L90.9889 295.152C90.736 293.985 90.2758 292.896 89.6505 291.923L91.3929 289.633L89.0182 287.258L86.7277 289.004C85.7546 288.375 84.6656 287.915 83.4993 287.665L83.1128 284.816H79.7544L79.368 287.665C78.2017 287.918 77.1091 288.379 76.1396 289.004L73.8491 287.258L71.4708 289.633L73.2168 291.923C72.5879 292.896 72.1277 293.985 71.8783 295.152L69.0293 295.538V298.896L71.8783 299.283C72.1313 300.449 72.5879 301.542 73.2168 302.511L71.4708 304.802L73.8491 307.177L76.1396 305.434C77.1091 306.063 78.2017 306.523 79.368 306.773L79.7544 309.622H83.1128L83.4993 306.773C84.6691 306.52 85.7546 306.059 86.7277 305.434L89.0182 307.177L91.3929 304.802L89.6505 302.511C90.2793 301.538 90.7395 300.449 90.9889 299.283L93.838 298.896ZM81.4301 300.607C79.5612 300.607 78.0401 299.086 78.0401 297.217C78.0401 295.348 79.5612 293.827 81.4301 293.827C83.299 293.827 84.8201 295.348 84.8201 297.217C84.8201 299.086 83.299 300.607 81.4301 300.607Z" fill="#123040"/>
<path d="M81.43 289.82C77.3514 289.82 74.0352 293.14 74.0352 297.219C74.0352 301.297 77.3549 304.617 81.43 304.617C85.5085 304.617 88.8283 301.297 88.8283 297.219C88.8283 293.14 85.5085 289.82 81.43 289.82ZM81.43 302.625C78.4439 302.625 76.0235 300.205 76.0235 297.219C76.0235 294.233 78.4439 291.812 81.43 291.812C84.416 291.812 86.8365 294.233 86.8365 297.219C86.8365 300.205 84.416 302.625 81.43 302.625Z" fill="#FF9EB1"/>
<path d="M79.2931 280.429V277.921L77.1677 277.633C76.9815 276.762 76.6373 275.95 76.1701 275.223L77.4699 273.516L75.6958 271.742L73.9885 273.045C73.2613 272.578 72.4498 272.233 71.5786 272.047L71.2905 269.922H68.7858L68.4977 272.047C67.6265 272.237 66.8115 272.578 66.0878 273.045L64.3805 271.742L62.6064 273.516L63.9062 275.223C63.439 275.947 63.0947 276.762 62.9086 277.633L60.7832 277.921V280.429L62.9086 280.717C63.0947 281.588 63.439 282.4 63.9062 283.127L62.6064 284.834L64.3805 286.609L66.0878 285.309C66.8115 285.776 67.623 286.12 68.4977 286.306L68.7858 288.432H71.2905L71.5786 286.306C72.4498 286.12 73.2613 285.776 73.9885 285.309L75.6958 286.609L77.4699 284.834L76.1701 283.127C76.6373 282.403 76.9815 281.588 77.1677 280.717L79.2931 280.429ZM70.0364 281.708C68.6417 281.708 67.507 280.573 67.507 279.179C67.507 277.784 68.6417 276.649 70.0364 276.649C71.431 276.649 72.5657 277.784 72.5657 279.179C72.5657 280.573 71.431 281.708 70.0364 281.708Z" fill="#123040"/>
<path d="M70.0365 273.66C66.9942 273.66 64.5176 276.137 64.5176 279.179C64.5176 282.221 66.9942 284.698 70.0365 284.698C73.0787 284.698 75.5554 282.221 75.5554 279.179C75.5554 276.137 73.0787 273.66 70.0365 273.66ZM70.0365 283.212C67.8092 283.212 66.0036 281.406 66.0036 279.179C66.0036 276.952 67.8092 275.146 70.0365 275.146C72.2637 275.146 74.0694 276.952 74.0694 279.179C74.0694 281.406 72.2637 283.212 70.0365 283.212Z" fill="#FF9EB1"/>
<path d="M156.459 230.715C156.459 231.688 155.673 232.475 154.699 232.475C153.726 232.475 152.939 231.688 152.939 230.715C152.939 229.742 153.726 228.955 154.699 228.955C155.673 228.959 156.459 229.746 156.459 230.715Z" fill="#BCBCBC"/>
<path d="M162.516 230.715C162.516 231.688 161.729 232.475 160.756 232.475C159.783 232.475 158.996 231.688 158.996 230.715C158.996 229.742 159.783 228.955 160.756 228.955C161.729 228.959 162.516 229.746 162.516 230.715Z" fill="#BCBCBC"/>
<path d="M168.573 230.715C168.573 231.688 167.786 232.475 166.813 232.475C165.84 232.475 165.053 231.688 165.053 230.715C165.053 229.742 165.84 228.955 166.813 228.955C167.786 228.955 168.573 229.746 168.573 230.715Z" fill="#BCBCBC"/>
<path d="M266.21 229.689H254.684V231.741H266.21V229.689Z" fill="#BCBCBC"/>
<path d="M271.764 234.592H148.627V240.216H271.764V234.592Z" fill="#BCBCBC"/>
<path d="M165.279 303.458H157.631V278.857L165.279 272.92V303.458Z" fill="#FF9EB1"/>
<path d="M179.2 303.46H171.553V273.322L179.2 283.489V303.46Z" fill="#E2791C"/>
<path d="M193.12 303.459H185.473V288.856L193.12 282.838V303.459Z" fill="#FF9EB1"/>
<path d="M207.041 303.459H199.396V278.043L207.041 272.145V303.459Z" fill="#E2791C"/>
<path d="M122.258 298.267L121.021 296.655L167.382 261.1L170.512 258.855L172.581 261.852L185.281 278.689L226.017 246.939L228.793 244.81L231.122 247.54L239.462 257.046L247.064 255.072L253.11 254.334L290.027 228.809L291.183 230.481L253.854 256.291L247.443 257.071L238.759 259.326L229.587 248.868L228.501 247.596L227.261 248.545L184.902 281.563L170.92 263.022L170.017 261.711L168.58 262.744L122.258 298.267Z" fill="#123040"/>
<path d="M284.727 224.554L301.529 221.15L293.657 236.383L284.727 224.554Z" fill="#123040"/>
<path d="M198.924 256.795H181.113V258.601H198.924V256.795Z" fill="#BCBCBC"/>
<path d="M196.34 252.785H180.064V254.591H196.34V252.785Z" fill="#BCBCBC"/>
<path d="M193.178 260.588H180.064V262.394H193.178V260.588Z" fill="#BCBCBC"/>
<path d="M220.966 276.441V261.174L213.318 267.09V303.463H222.238C219.101 295.253 217.643 284.542 220.966 276.441Z" fill="#FF9EB1"/>
<path d="M278.305 308.221L271.557 314.578L280.968 324.569L287.716 318.212L278.305 308.221Z" fill="#2C363D"/>
<path d="M293.326 321.488L289.033 316.928L279.629 325.787L282.439 328.774L307.396 355.297L316.874 345.818L293.326 321.488Z" fill="#5A3A35"/>
<path d="M251.628 303.459H241.148V268.564L251.628 260.52V303.459Z" fill="#FFCA22"/>
<path d="M233.634 264.104C233.177 264.483 232.731 264.88 232.292 265.291C227.128 270.153 223.169 276.413 222.252 282.93V291.378C222.849 295.608 224.128 299.736 226.541 303.459H233.634V264.104Z" fill="#BCBCBC"/>
<path d="M269.581 303.46V262.193C266.352 260.029 262.787 258.554 259.102 257.777V303.46H269.581Z" fill="#FF9EB1"/>
<path d="M326.467 254.434C317.698 254.434 310.588 257.258 310.588 260.743C310.588 264.228 317.698 267.052 326.467 267.052C335.235 267.052 342.345 264.228 342.345 260.743C342.345 257.258 335.235 254.434 326.467 254.434Z" fill="#F0D63D"/>
<path d="M334.252 260.254H333.036L334.234 258.462C334.252 258.434 334.238 258.406 334.196 258.385C334.153 258.364 334.087 258.35 334.016 258.35H332.467C332.365 258.35 332.274 258.378 332.249 258.416L331.073 260.254H328.761L327.602 258.416C327.574 258.378 327.486 258.35 327.38 258.35H325.561C325.459 258.35 325.367 258.378 325.343 258.416L324.162 260.254H321.854L320.695 258.416C320.671 258.378 320.579 258.35 320.477 258.35H318.946C318.875 258.35 318.809 258.364 318.767 258.385C318.724 258.406 318.71 258.434 318.724 258.462L319.908 260.254H318.686C318.563 260.254 318.461 260.296 318.461 260.341V260.893C318.461 260.942 318.563 260.984 318.686 260.984H320.39L321.967 263.373C321.995 263.412 322.086 263.44 322.185 263.44H323.825C323.927 263.44 324.018 263.412 324.043 263.373L325.589 260.988H327.331L328.873 263.373C328.902 263.412 328.989 263.44 329.091 263.44H330.732C330.834 263.44 330.925 263.412 330.953 263.373L332.548 260.984H334.252C334.375 260.984 334.48 260.942 334.48 260.893V260.341C334.477 260.296 334.375 260.254 334.252 260.254ZM330.605 260.984L329.913 262.059L329.221 260.984H330.605ZM326.853 260.254H326.07L326.467 259.646L326.853 260.254ZM323.695 260.984L323.003 262.059L322.308 260.984H323.695Z" fill="#EFA003"/>
<path d="M326.467 274.356C335.235 274.356 342.345 271.531 342.345 268.046V263.838C339.647 266.866 333.029 268.436 326.467 268.436C319.904 268.436 313.286 266.866 310.588 263.838V268.046C310.588 271.531 317.698 274.356 326.467 274.356Z" fill="#F0D63D"/>
<path d="M326.467 281.904C335.235 281.904 342.345 279.08 342.345 275.595V271.141C339.647 274.169 333.029 275.739 326.467 275.739C319.904 275.739 313.286 274.169 310.588 271.141V275.595C310.588 279.083 317.698 281.904 326.467 281.904Z" fill="#F0D63D"/>
<path d="M326.467 289.664C335.235 289.664 342.345 286.84 342.345 283.355V278.693C339.647 281.722 333.029 283.292 326.467 283.292C319.904 283.292 313.286 281.722 310.588 278.693V283.355C310.588 286.84 317.698 289.664 326.467 289.664Z" fill="#F0D63D"/>
<path opacity="0.55" d="M284.686 288.754C285.122 271.183 271.231 256.586 253.661 256.15C236.09 255.715 221.493 269.605 221.057 287.176C220.621 304.746 234.511 319.344 252.082 319.779C269.653 320.215 284.25 306.325 284.686 288.754Z" fill="white"/>
<path d="M277.989 264.319C264.928 250.453 243.095 249.799 229.229 262.861C215.363 275.922 214.71 297.752 227.771 311.621C240.832 325.487 262.665 326.14 276.531 313.079C290.397 300.018 291.05 278.184 277.989 264.319ZM273.464 309.826C261.394 321.194 242.395 320.625 231.027 308.558C219.659 296.487 220.225 277.489 232.296 266.117C244.366 254.749 263.364 255.315 274.736 267.385C286.1 279.456 285.535 298.454 273.464 309.826Z" fill="#123040"/>
<path d="M267.734 285.51C267.615 285.457 267.221 285.415 266.856 285.415H265.89C265.524 285.415 265.303 285.127 265.398 284.776L267.316 277.571C267.411 277.219 267.492 276.812 267.495 276.664C267.495 276.664 267.495 276.664 267.407 276.559C267.334 276.457 267.334 276.457 267.334 276.457C267.193 276.422 266.779 276.39 266.417 276.39H264.825C264.46 276.39 264.081 276.422 263.979 276.457C263.877 276.496 263.68 276.998 263.589 277.349L261.699 284.769C261.607 285.12 261.239 285.412 260.873 285.412H257.856C257.49 285.412 257.121 285.123 257.034 284.769L255.172 277.353C255.084 277.001 254.961 276.64 254.901 276.548C254.841 276.46 254.297 276.387 253.935 276.387H251.831C251.466 276.387 251.09 276.418 250.991 276.453C250.893 276.492 250.689 276.994 250.601 277.346L248.708 284.765C248.616 285.116 248.248 285.408 247.882 285.408H244.858C244.492 285.408 244.123 285.12 244.036 284.765L242.177 277.353C242.089 276.998 241.966 276.64 241.907 276.548C241.847 276.46 241.306 276.387 240.941 276.387H239.381C239.016 276.387 238.604 276.415 238.464 276.453C238.464 276.453 238.464 276.453 238.38 276.555C238.299 276.661 238.299 276.661 238.299 276.661C238.302 276.808 238.383 277.216 238.475 277.567L240.364 284.769C240.456 285.12 240.234 285.408 239.869 285.408H238.9C238.534 285.408 238.141 285.45 238.025 285.503C237.909 285.556 237.811 286.128 237.811 286.49V287.776C237.811 288.141 237.853 288.531 237.909 288.651C237.962 288.766 238.538 288.861 238.9 288.861H240.783C241.148 288.861 241.52 289.149 241.612 289.501L244.243 299.534C244.334 299.885 244.461 300.243 244.52 300.331C244.58 300.415 245.121 300.486 245.483 300.486H247.243C247.608 300.486 247.988 300.458 248.086 300.423C248.184 300.387 248.395 299.882 248.483 299.53L251.054 289.504C251.146 289.153 251.518 288.865 251.88 288.865H253.844C254.209 288.865 254.578 289.153 254.669 289.504L257.237 299.53C257.329 299.882 257.452 300.243 257.508 300.328C257.568 300.416 258.112 300.486 258.474 300.486H260.237C260.603 300.486 260.979 300.458 261.081 300.426C261.179 300.391 261.39 299.889 261.481 299.537L264.14 289.504C264.235 289.153 264.608 288.865 264.973 288.865H266.852C267.218 288.865 267.611 288.823 267.731 288.77C267.85 288.717 267.945 288.145 267.945 287.779V286.494C267.948 286.135 267.854 285.563 267.734 285.51ZM260.009 288.872C260.374 288.872 260.596 289.16 260.504 289.511L259.524 293.326C259.433 293.678 259.285 293.678 259.198 293.326L258.224 289.511C258.133 289.16 258.358 288.868 258.723 288.868H260.009V288.872ZM253.436 284.772C253.524 285.123 253.299 285.415 252.937 285.415H252.793C252.428 285.415 252.207 285.127 252.298 284.776L252.709 283.188C252.8 282.837 252.948 282.837 253.036 283.188L253.436 284.772ZM247.008 288.872C247.373 288.872 247.594 289.16 247.506 289.511L246.53 293.326C246.438 293.678 246.291 293.678 246.2 293.326L245.219 289.511C245.128 289.16 245.353 288.872 245.718 288.872H247.008Z" fill="#123040"/>
<path d="M303.861 338.276C303.861 338.276 303.179 338.023 302.684 336.225C302.189 334.426 302.076 328.573 302.006 324.952C301.939 321.488 299.663 320.012 297.393 319.851C295.124 319.689 292.978 320.676 292.749 323.877C292.521 327.077 292.848 335.195 292.479 339.32C292.138 343.135 293.153 348.344 291.713 351.078" fill="#FFBE94"/>
<path d="M313.743 336.994C312.303 335.853 311.836 334.578 311.355 331.686C310.979 329.428 310.694 325.763 309.001 323.8C307.223 321.741 302.948 322.026 301.768 323.259C301.768 323.259 301.982 331.233 302.432 336.952" fill="#FFBE94"/>
<path d="M321.613 336.725C320.103 336.065 318.462 331.617 317.215 329.253C315.796 326.559 312.033 326.495 310.586 327.423C310.586 327.423 311.91 335.295 311.91 335.9" fill="#FFBE94"/>
<path d="M292.57 337.906C291.387 334.225 289.065 329.416 286.324 328.084C284.213 327.058 281.891 327.666 281.74 329.802C281.589 331.934 282.748 333.347 283.511 335.465C284.382 337.878 284.248 339.329 285.088 341.802C285.773 343.822 286.184 345.164 286.546 349.274C286.774 351.885 285.91 354.797 288.443 358.092C290.976 361.384 295.441 369.035 298.283 372.144C299.287 373.24 300.204 376.574 301.033 377.645H331.034C330.599 374.564 330.353 368.241 330.43 365.926C330.556 362.199 330.96 350.469 331.463 346.352C331.965 342.238 330.894 341.226 329.928 340.225C328.961 339.224 327.774 337.776 325.723 334.425C323.457 330.722 319.919 330.691 318.324 331.147" fill="#FFBE94"/>
<path d="M303.665 338.806C303.441 338.722 302.671 338.304 302.141 336.375C301.631 334.52 301.519 328.808 301.442 325.028V324.962C301.431 324.41 301.315 323.774 301.217 323.398L302.309 323.117C302.425 323.574 302.555 324.291 302.569 324.94V325.007C302.64 328.503 302.755 334.355 303.226 336.077C303.613 337.482 304.087 337.763 304.094 337.766C304.069 337.752 304.055 337.749 304.055 337.749L303.665 338.806Z" fill="#EDA983"/>
<path d="M313.392 337.436C311.762 336.146 311.273 334.65 310.796 331.78C310.739 331.432 310.676 331.018 310.609 330.568C310.469 329.602 310.307 328.509 310.104 327.578L311.207 327.336C311.417 328.302 311.582 329.419 311.727 330.403C311.79 330.845 311.849 331.253 311.909 331.59C312.401 334.545 312.851 335.563 314.091 336.547L313.392 337.436Z" fill="#EDA983"/>
<path d="M321.387 337.242C320.255 336.747 319.166 334.783 317.67 331.554L318.692 331.08C319.402 332.608 320.877 335.787 321.84 336.209L321.387 337.242Z" fill="#EDA983"/>
<path d="M292.213 351.336L291.215 350.809C292.072 349.179 291.984 346.424 291.896 343.758C291.847 342.233 291.794 340.656 291.917 339.265C291.942 339.005 291.963 338.594 291.981 338.232L291.998 337.898L293.126 337.958L293.108 338.288C293.091 338.661 293.07 339.082 293.042 339.363C292.922 340.684 292.975 342.226 293.024 343.719C293.112 346.537 293.21 349.442 292.213 351.336Z" fill="#EDA983"/>
<path d="M172.725 261.09C172.725 262.534 171.551 263.707 170.107 263.707C168.66 263.707 167.49 262.537 167.49 261.09C167.49 259.642 168.664 258.473 170.107 258.473C171.551 258.473 172.725 259.642 172.725 261.09Z" fill="#123040"/>
<path d="M231.34 246.83C231.34 248.274 230.166 249.447 228.723 249.447C227.275 249.447 226.105 248.274 226.105 246.83C226.105 245.383 227.279 244.213 228.723 244.213C230.17 244.209 231.34 245.383 231.34 246.83Z" fill="#123040"/>
<path d="M98.7132 215.492H86.6953V216.437H98.7132V215.492Z" fill="#3D4553"/>
<path d="M98.7132 219.168H86.6953V220.113H98.7132V219.168Z" fill="#3D4553"/>
<path d="M98.7132 222.846H86.6953V223.791H98.7132V222.846Z" fill="#3D4553"/>
<path d="M84.7174 215.293H83.3789V216.631H84.7174V215.293Z" fill="#3D4553"/>
<path d="M84.7174 218.971H83.3789V220.309H84.7174V218.971Z" fill="#3D4553"/>
<path d="M84.7174 222.648H83.3789V223.987H84.7174V222.648Z" fill="#3D4553"/>
</g>
<defs>
<linearGradient id="paint0_linear_794_6006" x1="305.077" y1="346.464" x2="272.252" y2="309.772" gradientUnits="userSpaceOnUse">
<stop stop-color="#C2D6E6"/>
<stop offset="1" stop-color="#B6CCDE"/>
</linearGradient>
<clipPath id="clip0_794_6006">
<rect width="400" height="350" fill="white" transform="translate(0 0.0195312)"/>
</clipPath>
</defs>
</svg>
