<?xml version="1.0" encoding="UTF-8"?>
<svg id="_레이어_1" data-name="레이어 1" xmlns="http://www.w3.org/2000/svg" version="1.1" viewBox="0 0 270 270">
  <defs>
    <style>
      .cls-1 {
        fill: #ffd086;
      }

      .cls-1, .cls-2 {
        stroke-width: 0px;
      }

      .cls-2 {
        fill: #000;
      }

      .cls-3 {
        fill: none;
        stroke: #000;
        stroke-miterlimit: 10;
      }
    </style>
  </defs>
  <path class="cls-1" d="M235.5,148c0,55.5-45,100.5-100.5,100.5s-100.5-45-100.5-100.5,45-100.5,100.5-100.5,100.5,45,100.5,100.5"/>
  <path class="cls-2" d="M178.9,141h0c-2.1,0-3.9,1.7-3.9,3.9,0,2.1,1.7,3.9,3.9,3.9h0c2.1,0,3.9-1.7,3.9-3.9,0-2.1-1.7-3.9-3.9-3.9"/>
  <path class="cls-3" d="M178.9,141h0c-2.1,0-3.9,1.7-3.9,3.9,0,2.1,1.7,3.9,3.9,3.9h0c2.1,0,3.9-1.7,3.9-3.9,0-2.1-1.7-3.9-3.9-3.9Z"/>
  <path class="cls-2" d="M198.6,172.9c-.7,1.9-2.7,2.9-4.1,2.7l-4.4-.5c0,0-.2,0-.3,0-1.7,0-2.7,1.6-3.5,2.9-.1.2-.2.3-.3.4-2.2,3.1-4.9,5.9-8,8.5-1.2,1-1.8,2.5-1.5,4.1,0,0,0,.2,0,.2l4.6,16.9c.1,1.1-.7,2.2-1.8,2.3l-13.8,2c-.6,0-1.3.2-2.6-2.4l-3.3-8.2c0,0,0-.1,0-.2-1.7-3.4-4.1-3.1-5.1-2.8-6.1,1.6-12.4,2.4-18.9,2.4-6.5,0-12.8-.9-18.9-2.6-3-.8-4.4,1.6-5.1,2.7,0,0,0,0,0,0l-5.1,8.9c-1.4,2.6-2,2.6-2.7,2.5l-13.7-2.2c-.6,0-1.1-.4-1.4-.9-.3-.4-.4-.9-.4-1.4l6.6-18.8c.3-.7.1-1.5-.4-2.1-8.2-9.6-16.1-20.4-14.4-36.6.3-2.6.9-5.2,1.8-7.8.1-.4.3-.8.4-1.1,0,0,0-.1,0-.2,0,0,0,0,0,0,5-12.7,14.8-21.8,29-27.1,1.5,1.7,3.2,3.2,5.1,4.5-1.8.5-3.2,1.1-4.2,1.6-1.1.5-1.5,1.8-1,2.9.5,1.1,1.8,1.5,2.9,1,2.5-1.2,10.5-3.7,19.7-3.6,9.1,0,17.2,2.6,19.6,3.8.3.2.6.2,1,.2.8,0,1.5-.4,1.9-1.2.5-1.1.1-2.3-1-2.9-1-.5-2.4-1-4.2-1.6,2.5-1.7,4.7-3.8,6.6-6.1,1.4.4,3.4,1.2,4.9,1.7,1.5.5,2.8,1,3.4,1.2.6.2,1.3,0,1.8-.3,7.9-5.4,13.5-5.7,19.1-4.7-3.8,4.1-5.8,7.5-7.8,12.5-.3.8,0,1.8.6,2.4,8.6,7.6,10,12,12.4,19.2h0c.6,1.8,2,2.9,3.7,3l8.6.3c.5,0,1,.4,1.4.8.3.4.5.9.5,1.4l-7.9,22.1ZM107.6,94.1c0-7,2.8-13.6,7.8-18.6,5-4.9,11.5-7.6,18.5-7.6s0,0,.1,0c14.5,0,26.2,11.9,26.2,26.4,0,10-5.9,19.3-15,23.6-3.4-.7-7.4-1.2-11.5-1.2-4.1,0-8,.4-11.5,1.1-9-4.4-14.8-13.7-14.7-23.7M64,159.9c-2.3,1.5-5.6,1.8-7.9.6-1.7-.9-2.6-2.5-2.6-4.8,0-1.8.8-3,1.6-3.6,1.1-1,2.5-1.5,4-1.5s.3,0,.5,0c3.2.3,5.7,1.9,7.1,4.7.3.6.6,1.3.8,2-1.1,1-2.3,1.9-3.5,2.7M209.4,146.7c-1.1-1.3-2.6-2.2-4.3-2.4,0,0-.1,0-.2,0l-8.6-.3h0c-2.3-7.1-4-12.2-12.5-20.1,2-4.7,4.3-7.8,9-12.4.6-.5.8-1.3.6-2.1-.2-.7-.8-1.3-1.5-1.5-7.4-1.9-14.8-3-25.4,3.8-.6-.2-1.4-.5-2.3-.8-1.5-.5-2.8-1-3.9-1.4,2.7-4.6,4.2-9.8,4.2-15.3,0-16.9-13.6-30.6-30.4-30.7-8.2,0-15.9,3.1-21.7,8.8-5.8,5.7-9,13.4-9.1,21.6,0,6.2,1.9,12.2,5.2,17.2-14.8,5.8-24.9,15.6-30.3,29.2-2.1,5.4-4.6,9.8-7.5,13.3,0-.2-.2-.4-.3-.5-2.1-4.1-5.8-6.6-10.6-7-2.9-.2-5.7.7-7.8,2.6-1.9,1.8-2.9,4.2-2.9,6.8,0,3.9,1.8,6.9,4.9,8.5,3.6,1.9,8.6,1.6,12.2-.8.6-.4,1.1-.7,1.6-1.1-.2,2.6-1.1,5.4-2.5,7.8-.6,1-.3,2.3.7,2.9.3.2.7.3,1.1.3.7,0,1.4-.4,1.8-1,2.6-4.3,3.6-9.2,3.1-13.7,1.2-1.3,2.4-2.6,3.4-4.1-.2,15.2,7.3,25.9,14.9,34.9l-6.3,17.9c0,.1,0,.2,0,.4-.3,1.7.1,3.4,1.2,4.8,1,1.4,2.5,2.3,4.2,2.6l13.7,2.2c.3,0,.7,0,1,0,3.4,0,5.1-3,6.1-4.7l5.1-8.9c.2-.3.4-.5.4-.7,6.4,1.8,13,2.7,19.8,2.7,6.8,0,13.5-.8,19.9-2.5,0,0,.2.2.3.5l3.3,8.2c0,0,0,.1,0,.2.8,1.6,2.7,5.4,7.1,4.8l13.8-2c3.5-.5,5.9-3.8,5.4-7.3,0,0,0-.2,0-.2l-4.5-16.9s0,0,0-.1c3.3-2.8,6.2-5.9,8.7-9.3.1-.2.3-.4.5-.7.1-.2.3-.5.5-.8l3.6.4c3,.3,7.1-1.5,8.6-5.5l8-22.4c0-.2,0-.3.1-.5.2-1.7-.3-3.4-1.4-4.7"/>
  <path class="cls-3" d="M198.6,172.9c-.7,1.9-2.7,2.9-4.1,2.7l-4.4-.5c0,0-.2,0-.3,0-1.7,0-2.7,1.6-3.5,2.9-.1.2-.2.3-.3.4-2.2,3.1-4.9,5.9-8,8.5-1.2,1-1.8,2.5-1.5,4.1,0,0,0,.2,0,.2l4.6,16.9c.1,1.1-.7,2.2-1.8,2.3l-13.8,2c-.6,0-1.3.2-2.6-2.4l-3.3-8.2c0,0,0-.1,0-.2-1.7-3.4-4.1-3.1-5.1-2.8-6.1,1.6-12.4,2.4-18.9,2.4-6.5,0-12.8-.9-18.9-2.6-3-.8-4.4,1.6-5.1,2.7,0,0,0,0,0,0l-5.1,8.9c-1.4,2.6-2,2.6-2.7,2.5l-13.7-2.2c-.6,0-1.1-.4-1.4-.9-.3-.4-.4-.9-.4-1.4l6.6-18.8c.3-.7.1-1.5-.4-2.1-8.2-9.6-16.1-20.4-14.4-36.6.3-2.6.9-5.2,1.8-7.8.1-.4.3-.8.4-1.1,0,0,0-.1,0-.2,0,0,0,0,0,0,5-12.7,14.8-21.8,29-27.1,1.5,1.7,3.2,3.2,5.1,4.5-1.8.5-3.2,1.1-4.2,1.6-1.1.5-1.5,1.8-1,2.9.5,1.1,1.8,1.5,2.9,1,2.5-1.2,10.5-3.7,19.7-3.6,9.1,0,17.2,2.6,19.6,3.8.3.2.6.2,1,.2.8,0,1.5-.4,1.9-1.2.5-1.1.1-2.3-1-2.9-1-.5-2.4-1-4.2-1.6,2.5-1.7,4.7-3.8,6.6-6.1,1.4.4,3.4,1.2,4.9,1.7,1.5.5,2.8,1,3.4,1.2.6.2,1.3,0,1.8-.3,7.9-5.4,13.5-5.7,19.1-4.7-3.8,4.1-5.8,7.5-7.8,12.5-.3.8,0,1.8.6,2.4,8.6,7.6,10,12,12.4,19.2h0c.6,1.8,2,2.9,3.7,3l8.6.3c.5,0,1,.4,1.4.8.3.4.5.9.5,1.4l-7.9,22.1ZM107.6,94.1c0-7,2.8-13.6,7.8-18.6,5-4.9,11.5-7.6,18.5-7.6s0,0,.1,0c14.5,0,26.2,11.9,26.2,26.4,0,10-5.9,19.3-15,23.6-3.4-.7-7.4-1.2-11.5-1.2-4.1,0-8,.4-11.5,1.1-9-4.4-14.8-13.7-14.7-23.7ZM64,159.9c-2.3,1.5-5.6,1.8-7.9.6-1.7-.9-2.6-2.5-2.6-4.8,0-1.8.8-3,1.6-3.6,1.1-1,2.5-1.5,4-1.5s.3,0,.5,0c3.2.3,5.7,1.9,7.1,4.7.3.6.6,1.3.8,2-1.1,1-2.3,1.9-3.5,2.7ZM209.4,146.7c-1.1-1.3-2.6-2.2-4.3-2.4,0,0-.1,0-.2,0l-8.6-.3h0c-2.3-7.1-4-12.2-12.5-20.1,2-4.7,4.3-7.8,9-12.4.6-.5.8-1.3.6-2.1-.2-.7-.8-1.3-1.5-1.5-7.4-1.9-14.8-3-25.4,3.8-.6-.2-1.4-.5-2.3-.8-1.5-.5-2.8-1-3.9-1.4,2.7-4.6,4.2-9.8,4.2-15.3,0-16.9-13.6-30.6-30.4-30.7-8.2,0-15.9,3.1-21.7,8.8-5.8,5.7-9,13.4-9.1,21.6,0,6.2,1.9,12.2,5.2,17.2-14.8,5.8-24.9,15.6-30.3,29.2-2.1,5.4-4.6,9.8-7.5,13.3,0-.2-.2-.4-.3-.5-2.1-4.1-5.8-6.6-10.6-7-2.9-.2-5.7.7-7.8,2.6-1.9,1.8-2.9,4.2-2.9,6.8,0,3.9,1.8,6.9,4.9,8.5,3.6,1.9,8.6,1.6,12.2-.8.6-.4,1.1-.7,1.6-1.1-.2,2.6-1.1,5.4-2.5,7.8-.6,1-.3,2.3.7,2.9.3.2.7.3,1.1.3.7,0,1.4-.4,1.8-1,2.6-4.3,3.6-9.2,3.1-13.7,1.2-1.3,2.4-2.6,3.4-4.1-.2,15.2,7.3,25.9,14.9,34.9l-6.3,17.9c0,.1,0,.2,0,.4-.3,1.7.1,3.4,1.2,4.8,1,1.4,2.5,2.3,4.2,2.6l13.7,2.2c.3,0,.7,0,1,0,3.4,0,5.1-3,6.1-4.7l5.1-8.9c.2-.3.4-.5.4-.7,6.4,1.8,13,2.7,19.8,2.7,6.8,0,13.5-.8,19.9-2.5,0,0,.2.2.3.5l3.3,8.2c0,0,0,.1,0,.2.8,1.6,2.7,5.4,7.1,4.8l13.8-2c3.5-.5,5.9-3.8,5.4-7.3,0,0,0-.2,0-.2l-4.5-16.9s0,0,0-.1c3.3-2.8,6.2-5.9,8.7-9.3.1-.2.3-.4.5-.7.1-.2.3-.5.5-.8l3.6.4c3,.3,7.1-1.5,8.6-5.5l8-22.4c0-.2,0-.3.1-.5.2-1.7-.3-3.4-1.4-4.7Z"/>
  <path class="cls-2" d="M127.4,86.4c0-2,1.8-3.5,4.4-4v8.7c-2.8-.9-4.4-2.6-4.4-4.7M136.1,96.4c2.8.9,4.4,2.6,4.4,4.7,0,1.1-.5,2.1-1.6,2.9-.8.6-1.7.9-2.9,1.2v-8.7ZM127.4,101.1c0-1.2-1-2.1-2.1-2.1h0c-1.2,0-2.1,1-2.1,2.1,0,4.4,3.5,7.7,8.6,8.4h0c0,.1,0,.1,0,.2v2.6c0,1.2.9,2.1,2.1,2.1h0c1.2,0,2.1-1,2.1-2.1v-2.8c2.1-.3,3.9-1,5.4-2,2.1-1.6,3.3-3.8,3.3-6.3,0-4.4-3.3-7.8-8.6-9.2v-9.6c2.4.5,4.5,1.8,4.5,4.1,0,1.2,1,2.1,2.1,2.1h0c1.2,0,2.1-1,2.1-2.1,0-4.4-3.5-7.7-8.7-8.4v-2.8c0-1.2-.9-2.1-2.1-2.1-1.2,0-2.1.9-2.1,2.1v2.7s0,0,0,0h0c-5.1.8-8.7,4.1-8.7,8.4,0,4.4,3.3,7.8,8.6,9.2v9.6c-2.4-.5-4.4-1.8-4.4-4.1"/>
  <path class="cls-3" d="M127.4,86.4c0-2,1.8-3.5,4.4-4v8.7c-2.8-.9-4.4-2.6-4.4-4.7ZM136.1,96.4c2.8.9,4.4,2.6,4.4,4.7,0,1.1-.5,2.1-1.6,2.9-.8.6-1.7.9-2.9,1.2v-8.7ZM127.4,101.1c0-1.2-1-2.1-2.1-2.1h0c-1.2,0-2.1,1-2.1,2.1,0,4.4,3.5,7.7,8.6,8.4h0c0,.1,0,.1,0,.2v2.6c0,1.2.9,2.1,2.1,2.1h0c1.2,0,2.1-1,2.1-2.1v-2.8c2.1-.3,3.9-1,5.4-2,2.1-1.6,3.3-3.8,3.3-6.3,0-4.4-3.3-7.8-8.6-9.2v-9.6c2.4.5,4.5,1.8,4.5,4.1,0,1.2,1,2.1,2.1,2.1h0c1.2,0,2.1-1,2.1-2.1,0-4.4-3.5-7.7-8.7-8.4v-2.8c0-1.2-.9-2.1-2.1-2.1-1.2,0-2.1.9-2.1,2.1v2.7s0,0,0,0h0c-5.1.8-8.7,4.1-8.7,8.4,0,4.4,3.3,7.8,8.6,9.2v9.6c-2.4-.5-4.4-1.8-4.4-4.1Z"/>
</svg>