<?xml version="1.0" encoding="UTF-8"?>
<svg id="_레이어_1" data-name="레이어 1" xmlns="http://www.w3.org/2000/svg" version="1.1" viewBox="0 0 270 270">
  <defs>
    <style>
      .cls-1 {
        fill: none;
        stroke: #000;
        stroke-miterlimit: 10;
        stroke-width: .9px;
      }

      .cls-2 {
        fill: #000;
      }

      .cls-2, .cls-3 {
        stroke-width: 0px;
      }

      .cls-3 {
        fill: #00a9bd;
      }
    </style>
  </defs>
  <path class="cls-3" d="M235.5,148c0,55.5-45,100.5-100.5,100.5s-100.5-45-100.5-100.5,45-100.5,100.5-100.5,100.5,45,100.5,100.5"/>
  <path class="cls-2" d="M125.9,102.8c0-3.8,3.5-6.7,8.7-7.3v15.7c-5.4-1.3-8.7-4.4-8.7-8.4M147.6,124.7c0,2.6-1.5,4.2-2.7,5.1-1.5,1.1-3.6,1.9-6,2.1v-15.7c5.4,1.3,8.7,4.4,8.7,8.4M125.9,124.7c0-1.2-1-2.1-2.1-2.1-1.2,0-2.1,1-2.1,2.1,0,6.3,5.3,10.9,13,11.6v4.3c0,1.2,1,2.1,2.1,2.1s2.1-1,2.1-2.1v-3.2s0,0,0,0v-1c3.3-.3,6.2-1.3,8.5-3,2.9-2.1,4.5-5.2,4.5-8.6,0-6.2-5-11.1-13-12.8v-16.4c4.5.6,8.7,2.9,8.7,7.3,0,1.2,1,2.1,2.1,2.1h0c1.2,0,2.1-1,2.1-2.1,0-6.3-5.3-10.9-13-11.6h0v-5.1c0-1.2-1-2.1-2.1-2.1s-2.1,1-2.1,2.1v5h0c-7.7.8-13,5.4-13,11.7,0,6.2,5,11.1,13,12.8v16.4c-4.5-.6-8.7-2.9-8.7-7.3"/>
  <path class="cls-1" d="M125.9,102.8c0-3.8,3.5-6.7,8.7-7.3v15.7c-5.4-1.3-8.7-4.4-8.7-8.4ZM147.6,124.7c0,2.6-1.5,4.2-2.7,5.1-1.5,1.1-3.6,1.9-6,2.1v-15.7c5.4,1.3,8.7,4.4,8.7,8.4ZM125.9,124.7c0-1.2-1-2.1-2.1-2.1-1.2,0-2.1,1-2.1,2.1,0,6.3,5.3,10.9,13,11.6v4.3c0,1.2,1,2.1,2.1,2.1s2.1-1,2.1-2.1v-3.2s0,0,0,0v-1c3.3-.3,6.2-1.3,8.5-3,2.9-2.1,4.5-5.2,4.5-8.6,0-6.2-5-11.1-13-12.8v-16.4c4.5.6,8.7,2.9,8.7,7.3,0,1.2,1,2.1,2.1,2.1h0c1.2,0,2.1-1,2.1-2.1,0-6.3-5.3-10.9-13-11.6h0v-5.1c0-1.2-1-2.1-2.1-2.1s-2.1,1-2.1,2.1v5h0c-7.7.8-13,5.4-13,11.7,0,6.2,5,11.1,13,12.8v16.4c-4.5-.6-8.7-2.9-8.7-7.3Z"/>
  <path class="cls-2" d="M136.8,79.2c19.3,0,35.1,15.7,35.1,35s-15.7,35.1-35.1,35.1-35.1-15.7-35.1-35.1,15.7-35,35.1-35M136.8,153.5c21.7,0,39.3-17.6,39.3-39.3s-17.6-39.3-39.3-39.3-39.3,17.6-39.3,39.3,17.6,39.3,39.3,39.3"/>
  <path class="cls-1" d="M136.8,79.2c19.3,0,35.1,15.7,35.1,35s-15.7,35.1-35.1,35.1-35.1-15.7-35.1-35.1,15.7-35,35.1-35ZM136.8,153.5c21.7,0,39.3-17.6,39.3-39.3s-17.6-39.3-39.3-39.3-39.3,17.6-39.3,39.3,17.6,39.3,39.3,39.3Z"/>
  <path class="cls-2" d="M181.1,189.3c-9.3,9.8-22.2,10.3-30.6,5.9,9-12.3,19.9-22.2,20.1-22.4.9-.8.9-2.1.2-3-.8-.9-2.1-.9-3-.2-.8.7-11.3,10.2-20.3,22.5-4.3-7.2-5.8-19.8,3.8-29.6,6.1-5.7,12.9-7.1,20.7-8.7,6.5-1.3,13.1-2.7,19.9-6.7,0,13.7-.5,30.4-10.8,42.1M91.3,189.3c-10.3-11.7-10.8-28.4-10.8-42.1,6.8,3.9,13.5,5.3,19.9,6.7,7.8,1.6,14.6,3,20.7,8.7,9.6,9.7,8.2,22.3,3.8,29.6-9-12.2-19.5-21.8-20.3-22.5-.9-.8-2.2-.7-3,.2-.8.9-.7,2.2.2,3,.2.2,11.1,10.1,20.1,22.4-8.3,4.4-21.2,3.9-30.6-5.9M196.2,143.3c0,0,0-.2,0-.3,0,0,0-.1,0-.2,0,0,0-.1,0-.2,0,0,0-.1,0-.2,0,0,0,0,0-.1,0,0,0-.2-.1-.2,0,0,0,0,0,0,0,0,0,0,0-.1,0,0-.1-.1-.2-.2,0,0-.1,0-.2-.1,0,0-.1,0-.2-.1,0,0-.1,0-.2,0,0,0-.1,0-.2,0,0,0-.1,0-.2,0,0,0-.1,0-.2,0,0,0-.2,0-.2,0,0,0-.1,0-.2,0h0s0,0,0,0c0,0-.2,0-.3,0,0,0,0,0-.1,0,0,0-.1,0-.2,0,0,0-.1,0-.2,0,0,0,0,0-.1,0,0,0-.2,0-.3.1,0,0,0,0,0,0-7.3,5.1-14.6,6.6-21.7,8.1-8.1,1.7-15.8,3.3-22.8,9.8,0,0,0,0,0,0-7.1,7.1-8.5,15.1-8.4,20.5,0,5.8,1.9,11.6,5,15.9-3.6,5.4-6.8,11.2-8.6,16.9-1.8-5.7-4.9-11.5-8.6-16.9,3.1-4.3,4.9-10.1,5-15.9,0-5.4-1.4-13.3-8.4-20.5,0,0,0,0,0,0-7-6.5-14.7-8.1-22.8-9.8-7.1-1.5-14.4-3-21.7-8.1,0,0,0,0,0,0,0,0-.2,0-.3-.1,0,0,0,0-.1,0,0,0-.1,0-.2,0,0,0-.1,0-.2,0,0,0,0,0-.1,0-.1,0-.2,0-.3,0,0,0,0,0,0,0h0s0,0-.1,0c0,0-.2,0-.2,0,0,0-.1,0-.2,0,0,0-.1,0-.2,0,0,0-.1,0-.2,0,0,0-.1,0-.2.1,0,0-.1,0-.2.1,0,0-.1,0-.2.1,0,0-.1.1-.2.2,0,0,0,0,0,.1,0,0,0,0,0,0,0,0,0,.2-.1.2,0,0,0,0,0,.1,0,0,0,.1,0,.2s0,.1,0,.2c0,0,0,.1,0,.2,0,0,0,.2,0,.3s0,0,0,0c0,.8,0,1.5,0,2.3,0,14,.1,33.1,11.9,46.5,0,0,0,0,0,0,6.7,7,14.9,9.9,22.6,9.9s9.7-1.2,13.6-3.4c5.1,7.7,9.1,16,9.1,23.3s1,2.1,2.1,2.1.4,0,.6,0c.2,0,.4,0,.6,0,1.2,0,2.1-1,2.1-2.1,0-7.3,4-15.6,9.1-23.3,3.9,2.1,8.6,3.4,13.6,3.4,7.7,0,15.9-2.9,22.6-9.9,0,0,0,0,0,0,11.8-13.4,11.9-32.5,11.9-46.5,0-.8,0-1.6,0-2.3,0,0,0,0,0,0"/>
  <path class="cls-1" d="M181.1,189.3c-9.3,9.8-22.2,10.3-30.6,5.9,9-12.3,19.9-22.2,20.1-22.4.9-.8.9-2.1.2-3-.8-.9-2.1-.9-3-.2-.8.7-11.3,10.2-20.3,22.5-4.3-7.2-5.8-19.8,3.8-29.6,6.1-5.7,12.9-7.1,20.7-8.7,6.5-1.3,13.1-2.7,19.9-6.7,0,13.7-.5,30.4-10.8,42.1ZM91.3,189.3c-10.3-11.7-10.8-28.4-10.8-42.1,6.8,3.9,13.5,5.3,19.9,6.7,7.8,1.6,14.6,3,20.7,8.7,9.6,9.7,8.2,22.3,3.8,29.6-9-12.2-19.5-21.8-20.3-22.5-.9-.8-2.2-.7-3,.2-.8.9-.7,2.2.2,3,.2.2,11.1,10.1,20.1,22.4-8.3,4.4-21.2,3.9-30.6-5.9ZM196.2,143.3c0,0,0-.2,0-.3,0,0,0-.1,0-.2,0,0,0-.1,0-.2,0,0,0-.1,0-.2,0,0,0,0,0-.1,0,0,0-.2-.1-.2,0,0,0,0,0,0,0,0,0,0,0-.1,0,0-.1-.1-.2-.2,0,0-.1,0-.2-.1,0,0-.1,0-.2-.1,0,0-.1,0-.2,0,0,0-.1,0-.2,0,0,0-.1,0-.2,0,0,0-.1,0-.2,0,0,0-.2,0-.2,0,0,0-.1,0-.2,0h0s0,0,0,0c0,0-.2,0-.3,0,0,0,0,0-.1,0,0,0-.1,0-.2,0,0,0-.1,0-.2,0,0,0,0,0-.1,0,0,0-.2,0-.3.1,0,0,0,0,0,0-7.3,5.1-14.6,6.6-21.7,8.1-8.1,1.7-15.8,3.3-22.8,9.8,0,0,0,0,0,0-7.1,7.1-8.5,15.1-8.4,20.5,0,5.8,1.9,11.6,5,15.9-3.6,5.4-6.8,11.2-8.6,16.9-1.8-5.7-4.9-11.5-8.6-16.9,3.1-4.3,4.9-10.1,5-15.9,0-5.4-1.4-13.3-8.4-20.5,0,0,0,0,0,0-7-6.5-14.7-8.1-22.8-9.8-7.1-1.5-14.4-3-21.7-8.1,0,0,0,0,0,0,0,0-.2,0-.3-.1,0,0,0,0-.1,0,0,0-.1,0-.2,0,0,0-.1,0-.2,0,0,0,0,0-.1,0-.1,0-.2,0-.3,0,0,0,0,0,0,0h0s0,0-.1,0c0,0-.2,0-.2,0,0,0-.1,0-.2,0,0,0-.1,0-.2,0,0,0-.1,0-.2,0,0,0-.1,0-.2.1,0,0-.1,0-.2.1,0,0-.1,0-.2.1,0,0-.1.1-.2.2,0,0,0,0,0,.1,0,0,0,0,0,0,0,0,0,.2-.1.2,0,0,0,0,0,.1,0,0,0,.1,0,.2s0,.1,0,.2c0,0,0,.1,0,.2,0,0,0,.2,0,.3s0,0,0,0c0,.8,0,1.5,0,2.3,0,14,.1,33.1,11.9,46.5,0,0,0,0,0,0,6.7,7,14.9,9.9,22.6,9.9s9.7-1.2,13.6-3.4c5.1,7.7,9.1,16,9.1,23.3s1,2.1,2.1,2.1.4,0,.6,0c.2,0,.4,0,.6,0,1.2,0,2.1-1,2.1-2.1,0-7.3,4-15.6,9.1-23.3,3.9,2.1,8.6,3.4,13.6,3.4,7.7,0,15.9-2.9,22.6-9.9,0,0,0,0,0,0,11.8-13.4,11.9-32.5,11.9-46.5,0-.8,0-1.6,0-2.3,0,0,0,0,0,0Z"/>
</svg>