<?xml version="1.0" encoding="UTF-8"?>
<svg id="_레이어_1" data-name="레이어 1" xmlns="http://www.w3.org/2000/svg" version="1.1" viewBox="0 0 270 270">
  <defs>
    <style>
      .cls-1 {
        fill: none;
        stroke: #202020;
        stroke-linecap: round;
        stroke-linejoin: round;
      }

      .cls-1, .cls-2, .cls-3 {
        stroke-width: 0px;
      }

      .cls-2 {
        fill: #00bb68;
      }

      .cls-3 {
        fill: #202020;
      }
    </style>
  </defs>
  <path class="cls-2" d="M209.6,87.2c-.3,0-.6,0-.9,0h-.6c0,0,0,.2,0,.3v.4c0,.2-.1.5-.1.7,0,.9-.1,1.7-.1,2.5,0-.5,0-.9.1-1.4v-.7c0,0,.1-.3.1-.3h0c0-.1,0-.1,0-.1,0,0,0,0,0,0h0c0,0,0,.1,0,.1,0,0,0,.1,0,.2,0,.2,0,.5,0,.7,0,.6,0,1.3,0,2,0,1.5.1,3.2.1,4.4,0,.2,0,.4,0,.4,0-.1,0-.3,0-.4,0-.5-.2-1.3-.2-1.7-.1,0-.4,1-.1,2.9.1.2.2.5.3.7v.8c.2,1.4.3,1.2.3,1,0-.1,0-.2,0-.1,0,0,.1.4.3,1.1-.1.9.6,3.9,2,6.7,1.4,2.9,3.3,5.5,3.9,6.6.8.6,0-.5-.8-1.5-.7-1.1-1.5-2.2-.7-1.4.4.7.5,1.2,1.7,2.6l-.2-.7c2.6,3.4,4.9,5.3,7.2,7,2.4,1.6,4.8,3,8.4,4.3h-.3c.6.2,1.2.4,1.7.6.5.2,1,.3,1.4.4.2,0,.3,0,.5,0-3.1-14.2-9.3-27.3-17.7-38.6-1.2.2-2.5.4-3.7.5-.9,0-1.8.1-2.7.2"/>
  <path class="cls-2" d="M105.4,145.7c-.2,0-.4.2-.6.3.3,0,.5,0,.7,0,.2,0,.3,0,.5-.3-.1,0-.4,0-.6,0"/>
  <path class="cls-2" d="M45.7,155c0,0,0-.1,0-.2l.4.2c-.1,0-.2,0-.3,0M45.6,154.2c-.1-.3.2,0,.3,0,0,.2-.2,0-.3,0M43.3,157.5h-.1s.3-.1.3-.1h-.2ZM41,146.2c0-.4-.3.2-.4-.3.3-.3.3-.2.6,0,0,0,0,0,.2,0,0,0-.1,0-.2,0-.2,0,0,.3-.1.3M45.7,153.4c.2.1.7.6.3.7-.2-.2-.4-.5-.7-.5.4-.3.2.3.5,0,0-.2-.2-.2-.3-.2.2,0,.2-.3.3-.3-.2-.6-.1-1-.4-1.6,0,0,0,0,0,0h0s0,0,0,0c0-.1-.1-.3-.2-.4-.3-.1-.7-.1-.8,0-.2-.3,0-.4-.2-.7-.1.6,0-.1-.4,0-.2-.3.1-.2.2-.4,0,0-.2,0-.4,0,0,0,0,.1,0,.2,0-.1,0-.2,0-.2.2-.3.7,0,1-.3,0-.2-.1-.3-.2-.5h-.1c0,0,0,0,0,0h.1c0-.2-.1-.3-.2-.5-.5.2-1,.6-1.2.8-.2,0,.1-.4,0-.5.2-.5-.6-.4-.6-.8h.3c0,0-.3-.4-.5-.3.1,0,.7-.1.8-.4-.3-.6-1.2-.7-1.5-.4l.8.6c-.3.2-.6-.4-1-.1-.1-.3-.2-.5-.4-.8,0,0,.3.3.4,0-.2-.3,0-.2,0-.5.3,0,.9,0,1.5.1-.1-.2-.3-.4-.4-.6-.5,0-1,.2-1.2.2-.1-.3.5-.7.7-.7-.4-.6-1.2,0-1.5-.5v.3c-.1,0-.4-.6-.4-.5,0-.2.3-.6.5-.6h-.9c.1,0,.5-.4.6-.4-.1-.2-.8.2-.7.3,0-.6,0-.4,0-1-.1,0-.4.4-.4.6-.3-.1-.4-.3-.4-.4,0,0,0,0,0,0h0c0-.2-.1-.3-.5-.2.3-.2.6-.3.9-.5l-.4.7h0c.4.1.7-.3,1-.7,0,0-.2-.2-.2-.2-.5.1-.9.2-1.4.4,0,0,.5-.4.6-.5-.2.2-.6,0-.9-.2-.3-.2-.7-.5-.9-.7h0c.2,0-.1-.5-.4-.4,0,0,.1,0,.2,0-.1-.6-.9.4-1-.3.3.2.5.1.6,0-.4,0-.8-.6-1,0,0-.2-.3-.2-.1-.5h-.8c0,0,.2-.2,0-.4.3.3,1,0,.9.4.2-.3.2-.6.5-.7-.8-.3-1.5,0-2.2.3,0,0-.1-.1-.2-.2-.2,2.5-.3,5-.3,7.5,0,4.8.3,9.6,1,14.3,2.3-.4,4.4-1.2,6.4-2.3,0,0,0,0,0,0,0,0,0,0,0,0,.1,0,.3-.2.4-.2,0,0,0,0,0,0,0,0,0,0,0,0,.2,0,.3-.2.5-.3,0,0,0-.2,0-.3.1,0,0,.1.1.2,0,0,0,0,0,0,0,0,.1-.2.2-.3,0,0,0,0,0,.1.7-.5,1.4-.9,2.1-1.5,0,0,0-.2,0-.4.4-.1.8-.5,1.1-.7.3-.2.5-.4.7-.5.1-.1.3-.2.4-.4-.1-.5-.3-.9-.4-1.4-.2,0-.4,0-.6,0"/>
  <path class="cls-2" d="M109.3,161.1c0-.2-.2-.3-.3-.5,0,0-.1,0-.2,0,0,.2,0,.3,0,.5.2.1.4.2.5.1"/>
  <path class="cls-2" d="M109.1,162c0-.3-.1-.5-.3-.6,0,.3,0,.5.3.6"/>
  <path class="cls-2" d="M203.2,77.8c0,.3-.2.6-.2.8,0,.1,0,.2,0,.2,0,0,0,0,0,.1v-.2c0,0,.2-.2.2-.2,0-.2.1-.3.2-.5.1-.3.2-.7.3-1,.2-.6.4-1.3.8-1.9.3-.9.5-1.3.1-.2,0,0,0,.2-.1.2-.3.9-.7,2.3-.7,2.7.6-1.3,1.1-2.5,1.5-3.5-.2-.2-.4-.3-.5-.5-.3.6-.5,1.1-.7,1.7-.4.9-.7,1.7-.8,2.3"/>
  <path class="cls-2" d="M154.2,116s0,0,0,0c0,0,0,0,0,0,0,0,0,0,0-.1"/>
  <path class="cls-2" d="M130.5,135.7s0,0,0,0c0,0,0,0,0,0,0,0,0,0,0,0"/>
  <path class="cls-2" d="M87.3,108.4c-.2.1,0,.4.1.5,0-.2.2-.4-.1-.5"/>
  <path class="cls-2" d="M108.9,160.2s0,0,0,.1c0,0,0,0,.1.1,0,0,0-.2-.1-.2"/>
  <path class="cls-2" d="M90,118.9c0-.2,0-.3,0-.4,0,.2,0,.4,0,.4"/>
  <path class="cls-2" d="M90.5,118.3c0-.1,0-.2-.1-.3,0,0-.1,0-.2,0,0,.1-.1.2-.2.3.2,0,.3,0,.4,0"/>
  <path class="cls-2" d="M130.6,136.4c0,.2.1.3.2.2,0-.1-.1-.2-.2-.2"/>
  <path class="cls-2" d="M130.9,135.9c0,0-.1-.1-.2-.2,0,0,0,0-.1,0,0,.1,0,.2,0,.3.1,0,.3-.1.3-.2"/>
  <path class="cls-2" d="M90.3,117.7s0,0,0,0c0,0,0,0,0,0,0,0,0-.1,0-.2"/>
  <path class="cls-2" d="M124.4,131.8c0-.2,0-.4-.3-.3,0,.2.2.2.3.3"/>
  <path class="cls-2" d="M154.4,116.6c0-.1,0-.2,0-.3,0,0-.1,0-.2,0,0,.1-.1.2-.2.3.2,0,.3.1.4,0"/>
  <path class="cls-2" d="M131.6,70.3c-.2,0-.3,0-.5,0,0,.1,0,.3,0,.5.2,0,.4-.2.4-.4"/>
  <path class="cls-2" d="M96.4,71.2s0,0,0,0c0,0,0,0,0,0h0s0,0,0,0"/>
  <path class="cls-2" d="M48.2,163.2c0,0,0,.2,0,.3,0,.1,0,.2,0,.3,0-.2,0-.4,0-.6"/>
  <path class="cls-2" d="M37.2,133c-.2-.1-.5-.3-.8-.4.8.3,2.5,1.1,3.5,1.9-.1,0-.6-.1-.7,0-.7-.8-1.4-.8-1.9-.9,1.1.5,1.2.6,1.1.6,0,0-.2,0,.2.4.7.4,1.2.7,1.5.7.3,0,.5,0,.3-.2,1.5,1.2,1.9,1.6,3.4,2.7h-.5c.4.4.9.7,1.3,1.1-.4-.3-.9-.5-1.3-.7,1.1,1.2,1.2,1.3,1.5,1.3.2,0,.5.1,1.6,1.6l-.2.2c.5.5.9.8,1.2,1.1.3.3.6.6.7,1.2.9,1.1-.9-2.2.9.5,0,.3.3.7.4,1.2,0,.2.2.5.3.7,0,.1,0,.2.1.3,0,0,0,0,0,.1.1.1.2,0,.2-.2h0c0,0,0,0,0,0h0c0-.2,0-.3-.1-.4,0-.1-.1-.2-.1-.3,0-.1,0-.2-.1-.3,0,0,0,.2.1.3,0,.2.2.3.3.5.2.3.1.2.1.3,0,.1,0,.2,0,.3,0,.2,0,.5,0,.8,0,.3,0,.6.1,1,0,0,0,.2,0,.3,0,0,.1-.1.2-.2.1-.2.3-.4.4-.7-.2.1-.2-.2-.2-.4,0-.1,0-.2,0-.2,0,0,0,0-.1,0,0,0-.1.2-.1,0,0,0,0,0,0,0,0,0,0,0,0,0,0,0,0,0,0,0,0,0,.1,0,.2-.1.2,0,.4-.3.4-.7,0,.2,0,.4,0,.7,0-.1.1-.3.2-.4,0,0,0-.2.1-.3,0-.1,0-.2.1-.3l.2.3c.3-1,.8-1.8,1.2-2.5.4-.7.7-1.4.7-2.1,0,.5.2.1.4-.4.2-.6.4-1.3.6-1.6,0,.4-.2.9-.4,1.4-.2.5-.4,1-.6,1.4-.2.5-.4.9-.5,1.2-.1.3-.2.6-.1.7.5-.6.6-1.4,1-2,.2-.5.3-.7,0-.1,0,0,0,0,0,.1-.2.5-.4,1.3-.4,1.5,1.4-2.2,1.4-3.8,1.9-5.3-.3.9-.6,1.7-.9,2.6-.4-.4.4-1.2.3-2,.4-.6.5-1.2.7-1.7.2-.6.3-1.1.5-1.6,0,.3,0,.3-.1.6.9-2.9,1.8-3.5,2.1-4.7.3-1.1.5-3.4.1-2.6,0-1-.7,4-.9,2.1,1.1-1.5.5-3.5,1.4-7.1,0,1.7.5-.9.5.6.2-1.8,0-1.9,0-2.7l.3-.5c-.2-1.2-.3-1.3-.3-1.6,0-.3,0-.7-.2-2.5.1,1.2.4-1.4.5-.5,0-1,0-1.9-.2-2.7h0c-.2-3.5.2-2.8-.2-6.1v.3c-.4-2.1-.7-4.5-1.1-6.9-.4-2.4-.8-4.8-1.3-7,0,.5.1.9.2,1.4,0,0,0,0,0,.1,0,0,0,0,0-.1-.1-.7-.8-2.9-.9-4.1,0-.1,0-.2,0-.2,0,0,0,.1,0,.2,0,.3.2.7.3,1,.1,0,.2-.6,0-1.7l-.3-.3v-.5c-.3-1.6-.1.5-.5-1,.2-.5-.2-2.3-.6-4,0-.2-.1-.5-.2-.7-10.7,13.6-18,29.9-20.6,47.8.3,0,.7.1,1,.2.5.2,1.1.3,1.7.5"/>
  <polygon class="cls-2" points="131.1 70.8 131.1 70.8 131.1 70.8 131.1 70.8"/>
  <path class="cls-2" d="M83.5,59.7c0,0-.2.1-.3.2.3.1.4,0,.3-.2"/>
  <path class="cls-2" d="M97.4,70.8c.2,0,.4,0,.6-.2,0,0,0-.2,0-.4,0,0-.1-.2-.1-.2-.7.2-1.4,0-2.1-.1-.1,0-.3,0-.4.1,0,0,0,.3,0,.4.2.4.6.7,1,.8.2-.3.6-.4.9-.4"/>
  <path class="cls-2" d="M90.1,66.3c.4,0,.7,0,.9-.5q0-.8-.8-.8c-.2-.1-.4-.2-.6-.3-.2-.1-.4-.1-.6,0-.2.2-.1.5.1.8.3.3.7.5,1,.8,0,0,0,0,0,0,0,0,0,0,0,0h0Z"/>
  <path class="cls-2" d="M34,139c0-.1-.1-.2-.2-.2,0,0,0,0,0,0,0,.1.1.2.2.1"/>
  <path class="cls-2" d="M172.7,57.3c-.3.2-.5.3-.8.5-.1,0-.2.1-.4.2-.1,0-.3.2-.3.1,0,0,.2-.2.3-.4.2-.2.3-.3.4-.4,1.6-.7,2.3-1.5,2.9-2.2-3.3,2.3-.9.5-2.5,1.5-.3.2-.6.4-.8.5-.1,0-.2.2-.4.2-.1,0-.2.2-.3.2-.2.2-.4.3-.4.4-.1.2,0,.3.3.2,0,0-.1,0-.2.1,0,0,0,0,0,0h0c0,.2.1.3.2.4,0,.1.1.2.2.3,0,0,0,0,.1.2l.2.3c.3.4.6.8.9,1.3.4.4.8.9,1.3,1.5l-.6-.3c.6.8,1.3,1.4,1.9,2.1-.6-.5-1.2-1-1.8-1.5.8,1.1,1.3,1.7,1.7,2,.3.3.5.4.7.4.4.1.7.4,2.8,2.5l-.2.2c1.9,1.5,2.8,1.6,4,3,2,1.2-2.9-2.6,1.5.5.3.3.9.8,1.6,1.3.7.5,1.4.9,2.1,1.4.8.3.5.1,0-.3-.5-.4-1.2-.8-1.7-1.1,0,0-.1,0-.2-.1,0,0,.1,0,.2.1,3.3,1.9,4.4,2.5,5.3,3.2.5.4,1,.6,1.7,1,.4.2.9.4,1.5.6.6.2,1.3.4,2.2.6-1.2-.5-.6-.4-.5-.5.1,0-.2-.2-2.9-1.3.7.2,1.3.4,1.9.7.6.3,1.3.5,1.9.7,1.3.5,2.7.9,4.1,1-.6,0-1.3,0-1.9,0,1,.3,2.2.4,2.8.4l-.3.2h.3c0,0,.1,0,.2,0,.1,0,.2,0,.3,0,.2,0,.4,0,.5,0,0-.3.2-.6.3-.8.2-.6.4-1.1.6-1.7.4-1.1.8-2,.9-2.9,0,.7.1.3.4-.4-8.2-7.8-17.8-14.3-28.2-19-.6.4-1.4,1-2.2,1.6-.5.4-1,.7-1.5,1"/>
  <path class="cls-2" d="M176.4,54.7c0,0-.1,0-.2,0-.3.2-.6.5-.8.7.2-.1.6-.4,1-.7"/>
  <path class="cls-2" d="M33.9,138.3s0,0-.1,0c0,0,0,.1,0,.2,0,0,0-.1.1-.2"/>
  <path class="cls-2" d="M146.6,63.2c-.1,0-.3,0-.4,0-.2,0-.4.2-.6.3.3-.1.7-.2,1-.4"/>
  <path class="cls-2" d="M48.3,165.4c0-.4,0-.8,0-1.3,0-.1-.1-.2-.2-.3,0,.3-.1.6-.2.9.1.4.3.7.4.7"/>
  <path class="cls-2" d="M43.6,184.2c0,.1,0,.3-.2.4,0,.6,1-1.6,1.2-2.6,0,.2,0,.4-.2.8,1-1.6,0-2.5,1-4.2-.5,1.6-.4,2-.2,2,.1-.7.5-1.8.7-2.7.2-.9.2-1.5-.2-1.3.4-.8.4-1.7.7-1.5,0-.6.1-1.2.1-1.7v-1.7c0,.3.2.5.4-.5-.2,1-.2,1.9-.2,2.8,0,.8-.2,1.6-.5,2,.4.1.7-.5.8.4.7-3.8.1-5.9-.2-8.3.2-1.1.2-2.2.3-3.3h-.2c.1-.3.3-.4.4-.6-.1-.3-.2-.4-.2-.5,0,0,0,0,.2,0,0-.2,0-.4-.1-.5,0,0-.1.1-.1.2,0-.3,0-.3.1-.2.2-.3.5,0,.8.5,0-.1,0-.2,0-.3,0-.4-.2-.7-.3-1-.1-.3-.2-.4-.3-.5-.2-.2-.3,0-.4.7,0,.3,0,.6,0,.9,0-.4,0-.6,0-.9v-.6s0-.3,0-.3v-.2s0,0,0,0h-.2c-.7.9-.9,1.1-1.2,1.4-.1.1-.2.2-.4.4h0c0,0,0,0,0,.1,0,0-.2.1-.3.2-.2.2-.5.3-.8.6-.2,0,.4-.5-.1-.4-.8.7-2.1,1.2-3.1,1.4-1.1.3-1.9.4-2.1.6-1.6.6-.6.6-1.6,1,0,0,.1-.2-.2-.1l-1.2.6c-.5,0,1.1-.5-.3-.3,0,0,0,0-.1,0,1.4,7.2,3.6,14.1,6.5,20.7.2-.4.4-.9.6-1.3.4-.8.7-1.6,1-2.3"/>
  <path class="cls-2" d="M142.9,64.4c.7-.2,1.4-.4,2.1-.7.2-.1.4-.2.6-.4-.5,0-1.1.2-1.6.3-.6.3-1.1.6-1.1.8"/>
  <path class="cls-2" d="M87.2,61.1s0,0,.1,0h0c.3.2.6.3.8.5.3.1.5.2.8.4.6.2,1.2.4,2.1.6-.9,0-1.9,0-2.8-.1-.3-.4-.6-.8-.9-1.3,0,0,0,0-.1,0-1.9-.8-2.3-.6-2.4-.3,0,.1,0,.3,0,.5.8.4,1.6.8,2.5,1.2,2.1.5,4.2.9,6.3,1.2-.3,0-1.2.3-1.1.4.2,0,1,.1,2.1.4.6.1,1.2.3,1.9.5.7.2,1.5.3,2.3.5,0,0,.1,0,.2,0,0,0,0,0,0,0-.2.2-.4.4-.6.6-.1-.2-.3-.3-.4-.5-.3,0-.6,0-.9,0-.4.4-.5.5-.2.8.2.2.4.4.6.5,0,0,0,.1,0,.2,0,.4-.2.7-.6.9-.5.2-.7-.2-.9-.4-.2-.2-.4-.1-.6,0-.2.2-.1.7,0,.8.5.2.9.4,1.4.6.5.2.7,0,1.1-.5.5-.6.2-1.1,0-1.7.4,0,.7-.1,1.1-.2.3.3.1.7.3,1,0,.2.3.3.4.5.2-.1.3-.3.5-.4.7-.3,1-.9,1.1-1.6-.4-.6-1.3-.4-1.7-.8,1.9.4,4,.8,5.8,1.1,0,0,.1.2.1.2.1,0,.2,0,.4-.1.9.1,1.8.2,2.5.3-.2,0-.5,0-.8,0-1,0,3.3.7,5,.5-.3,0-.7,0-1.5,0,.4,0,.8.1,1.2.1,0,0,0,0,0,0-.2,0-.4.2-.3.5,0,.2.1.4.2.6,0,0,.1,0,.2,0,.2,0,.4-.2.3-.5,0-.2-.1-.4-.2-.5.3,0,.5,0,.8,0,.6,0,1.2-.1,1.7-.2.5,0,1.1-.2,1.7-.2.6,0,1.3,0,2.2,0-3.1,0-3.7.2-3.5.4.3,0,.7,0,1.1,0,.4,0,.8,0,1.3,0,.9,0,1.8,0,2.6-.1.8,0,1.5-.1,1.9-.2.4-.1.5-.2.2-.3,1.6,0,3.1-.2,3,0,1-.2,2.1-.4,3.1-.6,1-.2,2-.4,3-.7-.4.1-.8.4,1,.1-3.4.6-6.7,1.6-8.6,1.3,0,.4,1.3.5-.4.9.9-.1,1.8-.2,2.6-.4,0,.2,0,.4,0,.5,0,0,.1,0,.2,0,.2,0,.5-.4.5-.7,1.9-.3,3.5-.8,4.9-1.2,2.2-.7,4.1-1.3,6.1-2.1,1.9-.4,3.9-.8,5.8-1.4l.2-.2h1.1c.7-.2,1.1-.5,1.3-.5.1,0,0,.1-.3.3.6-.2,1.1-.5,1.4-.6,0,0-.2,0-.4,0,.7-.2.7-.1.4,0,.3.1-.6.7-1.6,1.3.2,0,.4,0,.5,0,2.6-1.2,5.5-2.8,3-2.1-.7.2-1.5.4-2.2.6,1-.3,1.7-.5,2.2-.6,1.1-.3,2.2-.7,3.3-1.1,1.8-1,2.5-1.4,3.4-1.9.8-.5,1.8-1,3.9-2.2.3,0-.8.7,0,.4l.3-.2h.2c.1-.2.2-.3.3-.3.2-.2.6-.2.3-.6-.1-.3-.2-.6-.3-.9,0-.2,0-.3-.1-.5,0-.2-.1-.5-.2-.7-.2-.9-.4-1.8-.6-2.4-.1-.7-.3-1.1-.4-1.3,0-.3-.2-.6-.2-.8-7.8-1.9-15.9-2.9-24.3-2.9-18.5,0-35.9,5-50.8,13.6.5.3,1,.5,1.4.7.7.4,1.3.7,1.8,1"/>
  <path class="cls-2" d="M47.7,165.5c-.1.6-.1,1.1,0,1.5,0-.5,0-1,0-1.5"/>
  <path class="cls-2" d="M180.5,77.2c.5.4,1.1.7,1.6,1.1l.7.5c-.8-.5-1.6-1-2.3-1.5M178,103.1c-.3,2.2-.9,4.4-1.6,6.5,0,0,0,0,0,.1,0,0,0,0,0,0,0,.2-.1.3-.2.5,0,0,0,0,0,0,0,0,0,0,0,0,0,.2-.1.4-.2.6,0,.1,0,.2.2.2,0,0-.1,0-.2-.1,0,0,0,0,0,0v.4c0,0-.1,0-.1,0,0,.2-.2.5-.3.7h0,0c-.3.7-.6,1.4-1,2.1,0,0,0,.3,0,.4-.6.6-1.2,1.9-1.6,2.3-.4.7-.8,1.4-1.3,2.1,0,.2.2.4.3.5,0-.4.2-1.1.6-1,0,.4-.3.9-.1,1.1-.6,0,.3-.6-.3-.4-.1.2,0,.4,0,.5,0-.2-.4,0-.5,0-.5.6-.9.9-1.4,1.5,0,0,0,0,0,0h0s0,0,0,0c-.1.1-.2.3-.3.4,0,.4.1.8.3.8-.3.4-.5.2-.7.6.7-.2-.1,0,.1.4-.3.3-.3,0-.5,0,0,0,0,.3,0,.4,0,0,.2,0,.3,0-.2.1-.2.1-.3,0-.4,0-.2-.7-.5-1-.2.1-.3.3-.5.4h.1c0,.1,0,.2,0,.2h0c-.2,0-.3.1-.5.2.3.4.8.9,1.1,1,.1.2-.5,0-.7.2-.7,0-.6.8-1.1.9,0-.1.1-.3.2-.4-.1,0-.7.4-.7.6,0-.1,0-.8-.3-.8-.4.2-.7.4-.9.8-.2.3-.3.6-.2.8.4-.3.8-.6,1.1-.9.2.3-.8.7-.6,1.1-.4,0-.9.2-1.3.2.2,0,.6-.3.4-.4-.5.2-.3,0-.7,0,.3-.3.6-.8.8-1.3,0,0,0-.1,0-.2-.3.1-.6.2-.9.3,0,0,0,0,0,0-.2.5-.4.9-.5,1.1-.5,0-.4-.8-.3-.9-.8,0-.9,1.1-1.9.9.1,0,.2.2.4.2-.3,0-1.1-.3-1-.1-.1-.3-.2-.8,0-.8-.3.1-.7.3-1,.3.1,0,.3-.6.4-.7-.3-.2-.8.4-.7.5-.2-.3-.3-.5-.4-.6,0-.1-.1-.2-.2-.6-.2,0-.4.5-.3.7-.5-.1-.6-.4-.8-.6,0,0,0,0,0,0h0c-.1-.2-.2-.4-.7-.4.3-.1.7-.2,1-.4-.1.2-.2.5-.3.7,0,0,0,0,0,0,.5.2.8-.3,1-.7-.1,0-.2-.2-.3-.3-.5,0-1,.1-1.6.1.1,0,.6-.3.7-.4-.2.1-.7-.1-1-.5-.4-.4-.7-.9-.9-1.3h0c.2.2,0-.5-.3-.7.1,0,.1,0,.2.2,0-.7-1-.3-.9-1,.2.5.4.5.6.4-.4-.3-.5-1.2-1-.8,0-.3-.2-.5.1-.6l-.7-.8c0,0,.3,0,.2-.2.1.6.8.9.6,1.3.4-.1.5-.4.9-.3-.6-.9-1.4-1.2-2-1.8,0-.3,0-.7,0-1h-.2s.4-.3.4-.3c-.1,0-.2-.1-.2-.2s0,0,.2,0c0,0-.1-.2-.2-.2,0,0-.1,0-.1,0,0-.1,0-.1.1,0,.2,0,.5,0,.8.1,0,0,0,0,0,0-.4-.3-.9-.8-1-.3v.4c0-.2,0-.3,0-.4v-.6c-.5-.5-.3-.4-.8-1.1.1,0,.3.1.4,0-.6-.5.3-1.5-.1-1.5-.2-.4-.4-.1-.6-.4,0,0,.1,0,.1,0l-.4-.3c0-.2.3.3.3-.1-.3-.6-.6-1-.5-1.6-.2-.8-.6.4-.6-.3.2-.1.5-.3.5-.7-.2-.2-.4-.1-.6-.5h.4c0-.4-.2-.6.1-.7-.2-.3-.2-.5-.1-.6-.3-.5-.8.5-.9.6.2-.6,0-.9.5-1.2v.5c.3-.5.2-.7,0-.9,0,0,0,0,0-.1,0,0,0-.1,0-.2,0-.1.1-.3.3-.4,0,.1,0,.3,0,.4,0,.1,0,.2,0,.3,0,.1.2.2.3,0,0-.1-.1-.4-.2-.6.1,0,0,.4.2,0,0,0-.1-.2-.2-.4,0-.2,0-.3-.1-.5h-.1c0-.2,0-.1.1,0h0c0-.2.1-.4.2-.7,0-.2.2-.4.4-.6-.2.2-.1.3,0,.1.2-.3.4-.5.6-.8,0,0,.1-.1.2-.2,0,0-.2.1-.2.2-.2.3.1.1.5,0,.3,0,.4-.2.6-.3.1-.1.2-.2.3-.3.2-.2.4-.4.8-.2-.1,0-.2,0-.3,0,.2,0,.3.1.5.2,0-.4.8-.4,1.5,0,.4.1.7.4,1,.5.3.1.5.2.7.1.2.4.1.4,0,.3-.2-.1-.5-.4-1-.5.2.2.3.4.4.7-.2-.2-.4-.4-.7-.5.3.4.6.7,1,.9.3.3.6.5.8.7,0,.2-.2.2-.3.2,0,0,0,0,0,.2,0,0,0,.2.1.5.2.7.3.6.5.5.1-.2.2-.4.3,0l-.4.4c.4.6.1,1.1.1,1.7,0,.1.1.2.2.2h0s0,0,0,0c.1,0,.3-.1.3.2l-.3-.2s0,0,0,0c-.1.6.6,1.2.5,1.6-.1,0-.2.3-.3.4l.4.7c-.2-.3-.4-.3-.7-.3,0,.2.2.3.3.5-.1,0-.2-.2-.3,0,.2.3.4.5.6.7,0,0,0-.2,0-.2,0,.2.3.6.2,1,0,0-.2,0-.3,0,.2-.3,0-.4-.3-.5.2.6,0,.2-.1.5.1.4.5.5.6.3,0,.5,0,.6.4,1h-.3s.2.4.2.4l-.5-.2c0,.9.6,0,.7.9h-.3c.2.4.7.4.5.7.3.3.2-.7.5,0,0,.2-.1.6,0,.8.2.2.3-.3.2-.5.3.6,0,.8,0,1.1-.2.2-.3.5,0,.8,0-.4.6,0,.3-.7.3.3-.1.9.3,1-.1,0-.3,0-.4,0,0,.1.2.2.3.2h-.3c.3.2.4.4.5.5,0,.1.2.3.4,0-.2.2-.2.2,0,.2.1,0,.2,0,.3.1-.2.1-.4,0-.5-.1-.1-.1-.3-.2-.5,0,0,.2.3.2.3.4.1,0,.2,0,0,0,0,0,0,0,0,0-.1,0-.3,0-.4,0,.1.3.4.4.6.4.2,0,.4-.1.6-.1-.2,0-.4,0-.5-.1.3-.4.3,0,.5-.3,0,.2.2.2.3.1,0,0,.2,0,.2,0,0,0,0,0,0,0,.2,0,.4.2.6.3.2.1.4.3.5.2.3,0,.6-.7.3-.7,0-.1-.1,0-.3.2-.2,0-.3,0-.4-.3.3.2.5,0,.6-.2.1-.2.3-.6.8-.8,0,.5.5,0,.4.5.3-.4.2-.5.2-.8h.3c0-.8-.2-.4.1-1.3,0,.4.5,0,.5.2.2-.2.3-.5.3-.7h0c.5-.8.7-.4,1-1.3h-.2c.3-1.2,1.2-2.3,1.6-3.4l-.3.3c.1,0,.2-.8.5-1,0,0,0,0,0,0,0,0,0,0,0,0,0,0,0,.2,0,.3.1,0,.4,0,.6-.2l-.2-.2h.2c.2-.4-.4,0-.2-.4.7,0,.8-1.7,1.5-1.8-.4-.4-.4.8-.7.3.1,0,.2-.1.4-.4h-.3c.6-1.2,1-1.6,1.2-2.8h0c.2-.3.2-.6,0-.8.2,0,.2.3.3.1-.6-.9.9-1.3.4-1.9.3,0,.5,0,.8-.2,0-.3.1-.6.2-1,.5-2.9,4.9-1.7,4.4,1.2M175,113.2v-.3c.1,0,.3,0,.3,0l-.3.4ZM173.2,117.3c.1,0,.2,0,.3,0v.3s-.3-.2-.3-.2ZM172.8,118.5c.3-.3.1.1.2.2-.3.5-.1-.1-.2-.2M163,127.2c-.6-.2,0,.4-.8.2-.2-.4,0-.3.4-.5,0,0,0,0,.2-.1,0,0-.1,0-.2.1-.2.1.5.1.3.3M150.7,108.4l.2-.3c0,.2,0,.3,0,.3h0ZM160,149.6c-1.2,4.6-3.3,9.8-6.2,14.5,0,0,0,.1,0,.2,0,0,0,0,0,0-.2.3-.3.5-.5.8,0,0,0,0,0,0,0,0,0,0,0,0-.2.3-.4.6-.6.9,0,.2,0,.3,0,.4-.2.1-.1-.1-.2-.2,0,0,0,0,0,0,0,.2-.2.4-.3.6,0,0,0,0-.1,0-1,1.4-2.1,2.8-3.3,4,0,.1-.1.4-.2.6-.6.5-1.4,1.2-2.2,1.8-.6.5-1.1.9-1.4,1.1-1.1.8-2.2,1.6-3.4,2.3,0,.2-.1.5,0,.6.4-.4,1.2-1.3,1.6-1-.4.4-1.2,1-1.1,1.3-.4,0-.1-.2,0-.3.2-.1.4-.3,0-.2-.3.2-.4.4-.6.6.1-.3-.5,0-.6-.1-1.2.6-1.9.7-3.2,1.1,0,0,0,0,0,0,0,0,0,0,0,0,0,0,0,0,0,0-.3,0-.5.2-.8.3-.4.4-.6.8-.4.9-.8.2-.9,0-1.5.3,1.2.2-.2,0-.3.4-.7.2-.3-.2-.6-.2-.1,0-.4.2-.4.4,0,0,.2,0,.4,0-.3,0-.4,0-.4,0-.4-.2.4-.8.3-1.1-.3,0-.5,0-.8.1,0,0-.2,0-.3,0v.2s-.2,0-.2,0v-.2c-.3,0-.7,0-1,0,0,.5.2,1.2.5,1.4,0,.2-.7-.2-1-.2-.5-.2-.8-.1-1.1,0-.3,0-.7.2-1,0l.6-.2c-.1-.1-1.2,0-1.4,0,0-.1.7-.6.3-.8-1.3-.2-2.7.1-2.7.5h1.1c.4,0,.7,0,1.1,0,0,.2-.4.2-.8.2-.4,0-.8,0-.8.2-.3-.1-.6-.2-1-.3l-.9-.4c.2,0,1,.2.8,0-.8-.3-.4-.2-.9-.5.5,0,1.3-.2,2-.4.1,0,.2,0,.3-.1-.5-.1-1-.3-1.5-.4,0,0,0,0-.1,0-.6.2-1.1.5-1.3.6-.7-.4,0-.9.1-1-.6-.3-1-.3-1.5-.2-.4,0-.9,0-1.5-.4l.4.4c-.2,0-.5-.3-.8-.5-.3-.2-.5-.4-.5-.3-.1-.3,0-.9.3-.8-.5,0-1-.2-1.4-.3.2,0,.5-.5.6-.5-.4-.3-1.1,0-.9.2-.5-1-.4-.7-.7-1.6-.2-.2-.4.5-.3.7-.6-.4-.8-.7-1-1,0,0,0,0,0,0h0c-.2-.3-.3-.6-.9-.7.4,0,.8,0,1.2-.1-.1.3-.2.5-.3.8,0,0,0,0,0,0,.7.4,1,0,1.2-.5-.2-.2-.3-.4-.5-.5-.6-.1-1.3-.2-2-.4.1,0,.7-.2.7-.3-.3,0-.8-.4-1.4-1-.6-.6-1.2-1.5-1.5-2v.2c.4.1,0-.9-.5-1.2.1,0,.2.1.3.3-.1-.9-1.3-.5-1.4-1.5.4.7.6.7.8.6-.5-.5-1.1-1.9-1.5-1.3-.1-.4-.4-.7,0-.8l-1.1-1.2c.1,0,.3,0,.1-.4.4.8,1.3,1.3,1.2,1.9.3-.2.3-.6.8-.4-1-1.4-2-2-2.9-2.7l-.5-1.5h-.2s.3-.4.3-.4c-.2-.1-.3-.2-.3-.2,0,0,0,0,.2,0,0-.1-.2-.2-.3-.3,0,0,0,0-.1.2,0-.2,0-.2.1-.2.2-.2.5,0,.9.1,0,0,0-.1,0-.2-.6-.5-1.3-1.1-1.2-.4v.6c0-.3,0-.5,0-.6l-.2-.9c-.8-.7-.7-.6-1.5-1.6.1-.1.4.1.4-.1-.8-.6-.5-2.3-1-2.3-.4-.6-.5-.1-.8-.5,0,0,.2,0,.1-.1l-.5-.4c0-.3.4.4.3-.3-.7-.9-1.1-1.3-1.4-2.2-.7-1.2-.2.9-.8-.3,0-.2.1-.4.1-.6,0-.1,0-.3,0-.5,0-.2,0-.4,0-.7-.1-.6-.4-.6-.2-1.7l.3.2c.3-.9.9-1.4,1.1-1.2.2-.3.4-.5.6-.6.2-.1.4-.2.6-.2.6-.3.3-.4-.2-.5-.3,0-.6,0-.9.1-.3,0-.5.2-.6.2.4-.2.7-.3,1-.5.2,0,.3-.1.4-.2.2,0,.3,0,.4,0,.3,0,.6,0,.8,0,.3,0,.5.1.7.3-.2,0-.5,0-.7,0-.2,0-.4,0-.6.2,1.3,0,2,.2,2.5.2.2,0,.4.1.6.3.1.2.3.4.3.7-.2-.2-.3-.3-.5-.4-.2-.1-.4-.2-.5-.2-.3,0-.5,0-.3.2.2,0,.4.1.6.2.2,0,.3.2.5.3,0,.2-.5-.4-.2,0,0,0,.2,0,.3.2,0,0,.2.1.3.2.1,0,.2.2.3.2,0,0,.1,0,.2.1h.1c0,0,0,0-.1,0h0c.3.4.5.8.8,1.3-.1-.3-.3-.2-.2,0l.6.8c0,0,.1.1.2.3l-.2-.3c-.2-.2-.2.1,0,.5.4,1.2,1.2.5,1.3,1.5,0-.1-.1-.1-.2-.3v.5c.9-.3,1.3,2.6,2.1,2.3,0,.8-.2.1-.9-.5v.8c0-.3-.1-.5-.3-.8,0,1,.9,1.7,1.3,2,0,.4-.7,0-.1.9.8,1.3.4-.5.9.2v.8c.7.9.8,1.7,1.2,2.6.1.2.2.2.3.3h0s0,0,0,0c.1,0,.1-.3.4.2l-.4-.2s0,0,0,0c.3,1,1.4,1.6,1.6,2.3-.2-.1,0,.5,0,.6l.9,1c-.4-.4-.6-.3-.9-.2.2.3.5.4.6.7-.2,0-.3-.2-.3,0,.4.3.7.6,1.1.9,0,0,0-.2-.2-.3.2.3.8.8.9,1.3-.1,0-.3,0-.4,0,0-.5-.3-.6-.6-.6.6.8,0,.2.2.7.4.5.9.6.9.3.4.7.5.9,1.2,1.3h-.4c0,.1.6.6.6.6h-.7c.8,1,.6-.3,1.5.8l-.2.2c.5.3,1,0,1.1.6.5.2-.5-.9.6-.2,0,.2.4.7.7.9.4,0,0-.4-.3-.6.8.5.9.8,1.1,1.2.1.3.3.7,1.1.8-.4-.4.7-.3-.6-.9.3,0,.6.3.8.5.3.2.5.4.9.3l-.5.2c.2,0,.5,0,.7,0v.3c.3-.1.7,0,1,.2.3.1.7.2.9-.1-.2.2,0,.3.2.2.2,0,.6,0,.7,0-.4.2-.9.1-1.3,0-.4,0-.8,0-.9.1.3.2.6,0,.9.2.2,0,.3,0,0,0,0,0,0,0,0,0-.2,0-.6.1-.7.2,1.1.5,1.8,0,2.5-.2-.4,0-.8,0-1.2,0,.1-.5.5,0,.9-.4.6.3,1-.1,1.5,0-.1,0-.1,0-.3,0,1.2-.1,1.7.5,2.3.5.5,0,1.4-.6,1-.7.4-.2-1.6.6-1.1-.2.4.2.8,0,1.2-.2.2-.1.4-.3.7-.4.3-.1.6-.3,1-.3-.5.5.6.2,0,.6.7-.4.7-.5.9-.9h.3c.6-.9,0-.4,1.1-1.5-.3.4.7,0,.5.3.4-.2.7-.6.8-.9h0c1.2-1,1.2-.5,2.1-1.7h-.2c1.1-1.6,2.9-3.2,4-4.8l-.5.5c.2-.1.7-1.2,1.2-1.5,0,0,0,0,0,0,0,0,0,0,0,0,0,.1-.1.3-.2.4.1,0,.5,0,.8-.3v-.3c0,0,.2,0,.2,0,.4-.6-.4,0,0-.6.4,0,.9-.6,1.3-1.3.4-.7.9-1.4,1.3-1.5-.2-.7-.8,1.2-.9.5.2-.2.3-.2.6-.6h-.3c1.2-1.8,1.8-2.5,2.5-4.3h0c.4-.5.5-.9.3-1.3.2,0,0,.4.3.2-.3-1.4,1.3-2.2,1.1-3,.2.1.6,0,.9-.3.1-.5.3-1,.4-1.6.7-2.9,5.2-1.7,4.4,1.2M150,169.3l.3-.4h.2c0-.1-.5.4-.5.4ZM145.1,175l-.2-.3c.2,0,.2,0,.4,0,0,.1-.1.2-.2.3M143.6,176.4c-.8.6,0-.2,0-.3.6-.3,0,.2,0,.3M122.9,179.3c-.7-.6-.3.3-1.1-.3,0-.5.2-.3.8-.1,0,0,.1,0,.3,0-.1,0-.2,0-.3,0-.1,0,0,.1.2.2.1.1.3.2.2.2M102.9,146.5c-.4.3-.5.6-.7.6h0c.2-.3.4-.5.7-.6M107.4,121.2c-.2.6-.1,0-.2-.2.2-.4.2,0,.2.2M107.3,119.8c.1,0,.2,0,.3-.1v.3c0,0-.3-.1-.3-.1ZM108.4,115l-.2.4v-.3c0,0,.2-.1.2-.1ZM101.7,129.6c0-.1,0-.8-.2-.9-.4.1-.7.4-1,.7-.3.3-.4.6-.4.8.5-.2.9-.5,1.3-.8,0,.2-.1.3-.4.5-.2.2-.5.3-.4.5-.5,0-1,0-1.4,0,.2,0,.7-.2.5-.3-.6,0-.3,0-.7-.2.3-.2.8-.6,1.1-1.1,0,0,0-.1.1-.2,0,0-.2,0-.3,0-.2,0-.4,0-.7,0,0,0,0,0,0,0-.3.4-.6.8-.7,1-.5-.1-.2-.9,0-1-.8-.2-1.1.8-2,.3,0,.1.2.2.3.3-.3,0-1-.6-.9-.4,0-.3,0-.8.3-.7-.3,0-.7,0-1.1,0,.1,0,.5-.5.6-.5-.2-.2-.9.2-.8.4-.2-.8-.2-.5-.2-1.2-.2-.1-.5.4-.4.6-.4-.2-.5-.5-.6-.7,0,0,0,0,0,0h0c0-.2-.1-.4-.6-.4.4,0,.7-.1,1.1-.2-.2.2-.3.4-.5.7,0,0,0,0,0,0,.5.3.8-.2,1.1-.5,0-.1-.2-.2-.3-.4-.5,0-1,0-1.6,0,.1,0,.6-.2.7-.3-.2,0-.6-.2-1-.6-.3-.4-.6-1-.8-1.3h0c.2.2,0-.5-.2-.7.1,0,.1,0,.2.2.1-.6-1-.3-.8-1,.2.5.4.5.6.4-.3-.3-.5-1.2-1-.8,0-.3-.2-.5.1-.6l-.7-.8c0,0,.3,0,.2-.2.1.6.9.8.6,1.3.4-.1.5-.4.9-.3-.6-.9-1.4-1.2-2-1.7v-1s-.2,0-.2,0l.4-.3c-.1,0-.2-.1-.2-.2,0,0,0,0,.2,0,0,0-.1-.2-.2-.2,0,0-.1,0-.1.1,0-.1,0-.1.1-.1.2-.1.5,0,.8,0,0,0,0,0,0-.1-.4-.3-.9-.7-1.1-.3v.4c0-.2,0-.3,0-.4v-.6c-.5-.5-.4-.4-.9-1.1.1,0,.3,0,.4,0-.6-.5.3-1.5-.2-1.5-.2-.4-.4-.1-.6-.4,0,0,.1,0,.1,0l-.4-.3c0-.2.3.3.3-.1-.3-.6-.6-1-.5-1.6-.2-.8-.6.4-.6-.3.2-.1.5-.3.5-.7-.2-.2-.4-.2-.5-.5h.4c0-.4-.1-.6.2-.7-.2-.3-.2-.5-.1-.6-.2-.5-.8.4-.9.6.3-.6,0-.9.5-1.2v.5c.6-1-.5-.9.4-1.4,0,.3.2.7.4.5l-.2-.5c.1,0,0,.3.2,0,0,0-.1-.1-.2-.3,0-.1-.1-.3-.2-.4h-.1c0-.2,0-.1.1,0h0c0-.2,0-.4.1-.7v-.3c0,0,.3-.3.3-.3-.2.2,0,.4,0,.1,0-.2,0-.3.2-.5,0-.1.2-.3.2-.4,0,0,0-.2.2-.3,0,0-.1.2-.2.3-.1.3.2.1.5,0,.5-.3.6-.5.7-.8.1-.3.3-.5.8-.4-.1,0-.2,0-.3,0,.2,0,.3,0,.5,0,0-.2.2-.3.5-.4.3,0,.7,0,1.1,0,.8.1,1.4.6,1.7.3.2.4.2.4,0,.3-.2,0-.6-.3-1.1-.3.2.2.4.3.5.6-.2-.1-.5-.3-.8-.3.2.2.4.3.6.4.2.1.4.2.5.3.3.2.7.4.9.5,0,.2-.1.2-.2.3,0,0,0,0,0,.2,0,0,0,.2.2.4.2.3.3.4.3.5,0,0,.1,0,.2-.1.1-.2.2-.5.3,0,0,.3-.2.5-.3.7.4.8,0,1.2,0,1.8,0,.1,0,.2.1.2h0s0,0,0,0c.1,0,.3-.1.3.2l-.3-.2s0,0,0,0c-.1.6.5,1.2.4,1.6-.1,0-.2.3-.3.3l.4.7c-.2-.3-.4-.3-.7-.3,0,.2.2.3.3.5-.1,0-.2-.2-.3,0,.2.3.4.5.6.8,0,0,0-.2,0-.2,0,.2.3.6.1.9,0,0-.2,0-.3,0,.2-.3,0-.4-.2-.5.2.6,0,.2-.2.5,0,.4.5.5.6.3,0,.5,0,.6.3,1h-.3s.2.4.2.4l-.5-.2c0,.9.6,0,.7.9h-.3c.2.4.7.4.5.7.3.3.2-.7.5,0,0,.2-.1.5,0,.8.2.2.3-.3.2-.4.5,1.1-.7,1.1,0,2,0-.4.6,0,.3-.7.3.3-.1.9.4,1.2h-.5c0,0,.2.1.3.2h-.3c.7.4.2,1.1.9,1.1-.6,0,.2.3.1.6-.5-.2-.6-1.1-1-.9,0,.3.3.3.2.6.1,0,.2.1,0,0,0,0,0,0,0,0-.1,0-.3-.2-.4-.2,0,.8.8.8,1.1,1.1-.2-.2-.3-.4-.5-.6.5-.2.2.2.7.2,0,.1,0,.2,0,.3,0,0,0,0,.1,0,0,0,.2,0,.1.2,0,0,0,0,0,0,.1.2.1.4.1.7,0,.3,0,.6.2.7.1.1.3.1.4,0,.1,0,.2-.2.1-.4,0,0,0,0-.2-.1-.2,0-.2-.3,0-.6,0,.5.2.5.4.3.2-.1.3-.3.6-.3h0s0,0,0,0c0,.2,0,.3.1.4,0,0,.2.1.1.3,0,0,0,0,0,0,.2-.3.1-.4,0-.7,0,0,.1,0,.2,0,0-.4-.2-.5-.2-.6,0-.1,0-.1,0-.5,0,.3.4-.2.5,0,.1-.2.1-.5,0-.7h0c.2-.9.5-.6.6-1.6h-.2c0-.6.2-1.2.4-1.9.2-.6.4-1.3.5-1.9l-.2.4c.1-.1,0-.8.3-1.1,0,0,0,0,0,0,0,0,0,0,0,0,0,0,0,.2,0,.3.1,0,.4,0,.5-.3l-.2-.2h.2c.1-.5-.4,0-.2-.5.7,0,.5-1.8,1.2-2.1-.4-.4-.2.8-.6.4,0-.1.2-.2.3-.4h-.3c.4-1.2.8-1.7.9-2.9h0c.2-.3.2-.6,0-.8.1,0,.2.2.3,0-.6-.8.7-1.4.3-1.9.3,0,.5,0,.8-.2,0-.3,0-.6.1-1,.2-2.9,4.9-3,4.6,0-.2,2.2-.5,4.5-.9,6.7,0,0,0,0,0,.1,0,0,0,0,0,0,0,.2,0,.4-.1.5,0,0,0,0,0,0,0,0,0,0,0,0,0,.2,0,.4-.1.6,0,.1.1.2.2.2,0,.1-.2,0-.2,0,0,0,0,0,0,0v.4s0,0,0,0c0,.3-.1.5-.2.8h0,0c-.2.8-.4,1.5-.6,2.3,0,0,.1.3.1.4-.5.7-.7,2.1-1.1,2.6-.1.4-.3.8-.4,1.2-.1.4-.3.7-.4,1.1.1.2.3.3.4.4,0-.4,0-1.1.3-1.1,0,.4,0,1,.1,1.1-.5.2.1-.7-.4-.3,0,.2,0,.4,0,.5-.1-.2-.4,0-.5.1-.3.7-.6,1.1-1.1,1.8,0,0,0,0,0,0h0s0,0,0,0c0,.2-.2.3-.2.5,0,.4.3.7.5.7-.3.4-.4.3-.6.8.7-.3-.1,0,.2.4-.2.4-.3,0-.5.1,0,0,0,.3,0,.4,0,0,.2,0,.3-.1-.2.2-.2.2-.3.1-.4,0-.3-.7-.6-.9-.1.2-.3.3-.4.5h.1c0,.1,0,.2,0,.2h-.1c-.1,0-.3.2-.4.3.4.4.9.8,1.2.9,0,.1,0,.1-.2.2-.2,0-.4,0-.5,0-.4,0-.5.2-.6.4-.1.2-.3.5-.5.5,0-.1.2-.2.3-.4-.1,0-.7.4-.8.6M98.1,130.1c-.6-.3-.2.3-.8,0,0-.5.1-.3.6-.4,0,0,.1,0,.2,0,0,0-.2,0-.2,0-.2,0,.5.2.3.3M86.8,110h0s.2-.3.2-.3c0,.2,0,.3-.1.3M88.6,103.8c.1,0,.2.2.3.2-.1,0-.3-.1-.4-.2h.1ZM90.2,69.8c0,0-.2,0-.5,0,0,0,0-.1,0-.2.2,0,.3.1.5.2M95.2,105.3c-.4.3-.1-.3-.6-.8.2.3.4.5.6.8M111,150.1h0c0,.1-.3.4-.3.4l.2-.4ZM114.3,156.1c-.4.3-.1-.2-.4-.8.1.3.3.5.4.8M117.7,74s0,0,0,0c0,0,0,0,0,0M120.4,127.3c0-.1-.2-.2-.2-.4.4-.2,0,.1.2.4M122.5,129.4l-.2.3h0c0,0,.3-.3.3-.3ZM124.4,132.9h0s0-.3,0-.3c0,.1.1.2,0,.3M126.2,123.7v-.2c0,0,0,0,0,0,0,0,0,.2,0,.3M128.6,126.2l-.3.2c0-.1.1-.1.1-.3h.2ZM129,126.9c-.1-.3.2,0,.3-.1.3.3-.2,0-.3.1M136.5,132.5c0,0,0-.1,0-.2,0,0,0,0,0,0,0,0,0,0,0,0,0,0,0,0,.1,0,0,0,.2-.1.4.1,0,.4-.2.2-.6.2,0,0-.1,0-.2,0,0,0,.1,0,.2,0,0,0,0-.1,0-.2M118.3,117.2c.2-.1.5-.4.7-.6,0-.3-.3,0-.5.1,0,0,0,0,0,.1,0,0,0,0,0-.1.2-.3.3-.5.5-.6.2,0,.4,0,.5,0,.3,0,.5,0,1-.4-.2,0-.2-.2-.3-.3,0-.1-.2-.2-.7.2.2-.2.5-.3.8-.3.3,0,.6,0,.8-.3,0,.2-.2.3-.3.5.2,0,.4-.2.5-.3v.3c.1-.2.3-.2.4-.2.1,0,.3,0,.4,0,.1,0,.2,0,.4,0,.1,0,.2,0,.3-.2-.3.5.3,0,.5.3-.2.2-.5.1-.7,0-.3,0-.5,0-.6.2.2.1.4,0,.6,0,.1,0,.2,0,0,0,0,0,0,0,0,0-.2,0-.4.2-.4.3.3.2.5.1.7,0,.2,0,.4-.2.6-.3h-.6c.1-.5.3,0,.5-.4.3.3.6,0,.8.2,0,0,0,0-.1,0,.6.1.7.9.9,1,.2.1.8,0,.6-.3.2,0-.9,0-.4-.6.2.8.8-.1,1.5.5-.4.2.1.4-.2.6.4,0,.4-.1.6-.3v.2c.6-.4.3-.4,1-.6-.3.1.2.4,0,.5.2,0,.4,0,.6-.1h0c.7,0,.6.4,1.2.1h0c.8-.5,1.9-.3,2.6-.7,0,0-.2,0-.3,0,.1,0,.4-.3.7-.2,0,0,0,0,0,0,0,0,0,0,0,0,0,0,0,.1-.1.1,0,.1.2.3.4.3v-.2s.1.1.1.1c.3-.1-.2-.3,0-.4.1.1.3.1.6.1.1,0,.2,0,.4,0,.1,0,.3,0,.4,0,.6,0,1.1,0,1.2.4.2-.2,0-.3-.2-.3-.2,0-.5,0-.2-.3.2,0,.2.2.5.3,0-.1,0-.2,0-.3.4.1.7.4.9.5.2.2.4.4.5.6.1.2.3.4.4.6.1.2.3.5.4.7h0c0,.4.2.6.4.8-.1.1-.2-.2-.3,0,.4.4.3.9,0,1.2-.3.3-.6.5-.5.8-.2-.2-.5-.2-.8-.3-.2.2-.4.3-.6.4-3.4,1.6-6.9,1.4-10.5.8,0,0,0,0,0,0,0,0,0,0,0,0-.1,0-.3,0-.4,0,0,0,0,0,0,0,0,0,0,0,0,0,0,0,0,0,0,0,0,.1.1.3.2.4.1.1.3.2.4.3,0,0-.3-.2-.4-.2,0,0,0,0,0,0l.3.4c0,0-.2,0-.2-.1.3.7.7,1.5,1.1,2.2.1,0,.3.1.4.2,0,.3.3.7.5,1.1.2.3.3.5.4.7.4.5.7,1,1.1,1.5.2,0,.4-.1.5-.2-.3,0-.8-.3-.6-.6.3.1.6.4.8.2-.2.5-.4-.3-.5.2.1.1.3,0,.4.1-.2,0-.1.3-.2.4.4.4.5.8.9,1.3,0,0,0,0,0,0h0s0,0,0,0c0,0,.2.2.3.3.3,0,.7-.2.8-.4.3.2.1.4.4.5,0-.6,0,.1.3-.2.3.2,0,.2,0,.4,0,0,.3,0,.3-.1,0,0,0-.1,0-.2,0,.1,0,.2,0,.2,0,.3-.6.4-.8.7.1.1.2.2.4.3h0c0-.1,0,0,0,0h-.1c.1.2.2.3.4.4.3-.4.7-1,.7-1.3.2-.2,0,.4.1.5,0,.5.6.1.8.4h-.3c0,.2.4.3.6.2,0,.1-.6.4-.6.7.4.4,1.3,0,1.5-.3-.3,0-.6,0-1-.1.2-.3.7,0,.9-.3.2.2.4.4.6.5,0,0-.4-.1-.4.1.3.2.1.1.2.4-.3.1-.9.3-1.4.6.2.1.4.3.6.4.4-.3.8-.6,1-.7.2.2-.2.8-.4.9.3.2.5,0,.9,0,.2,0,.3,0,.5,0,.2,0,.3.1.5.4,0-.1,0-.3-.1-.4.3,0,.6,1,.6.9-.1.3-.5.6-.7.4.1,0,.3.2.4.3.1.1.3.2.4.4,0-.1-.7,0-.8,0,0,.2.7.5.8.3-.2.3-.3.4-.4.5,0,0-.2.2-.5.3,0,.2.6.2.7,0,0,.5-.2.7-.3.9,0,0,0,0,0,0h0c-.2.2-.3.3-.3.7-.1-.3-.3-.7-.5-1,.2,0,.5.2.8.2h0c0-.4-.2-.6-.6-.7-.1,0-.3,0-.4-.1,0,.1-.1.2-.2.3.2.4.3.9.3,1.5,0-.1-.3-.6-.4-.7.1.2,0,.7-.5,1-.5.3-1.1.4-1.6.4h.1c0-.1,0-.2-.2-.2-.2,0-.4,0-.6,0,0,0,.1,0,.2,0-.2-.2-.4-.1-.6,0-.1,0-.2,0-.4,0,0,0-.2,0-.2-.2,0,0,.1,0,.2.1,0,0,.1,0,.2,0,.1,0,.2-.1.2-.2-.3,0-.5-.1-.7-.2-.2,0-.4,0-.5.3-.1-.2-.3-.2-.1-.5-.3,0-.6,0-.9,0,0,0,.2-.1,0-.3.3.3,1,0,1,.5.2-.3.2-.6.5-.8-.8-.2-1.5,0-2.2.1-.2-.2-.3-.4-.5-.6h-.1c0,.1.2-.3.2-.3-.1,0-.2,0-.2,0,0,0,0,0,.1-.1,0,0-.2,0-.2,0,0,0,0,0,0,.2,0,0,0-.1,0-.2.1-.2.4-.3.6-.5,0,0,0,0,0-.1-.4,0-1,0-.9.5v.3c0-.1,0-.2,0-.3l-.2-.5c-.7,0-.5,0-1.2-.1,0-.1.3-.1.3-.3-.7,0-.4-1.1-.8-.9-.3-.2-.4.2-.6.1,0,0,.1,0,0-.1h-.4c0-.1.3,0,.2-.3-.5-.2-.9-.3-1.1-.7-.5-.4-.3.6-.6.2.1-.2.3-.5.1-.8-.2,0-.4.1-.7,0l.3-.2c-.2-.2-.4-.3-.2-.5-.3,0-.4-.2-.4-.3-.4-.2-.4.8-.5.9,0-.5-.4-.6-.1-1.1l.3.2c-.1-.9-.9-.2-.5-1,.1.2.5.3.6,0l-.4-.2c0,0,.2.1.2,0-.1,0-.4,0-.6,0h-.1s0,0,.1,0h0s-.5-.5-.5-.5c0,.1.2,0,.1,0l-.4-.3c.2,0,.2-.1.1-.3-.2-.6-1,0-.9-.5,0,0,0,0,.1.1v-.3c-.7.4-.8-1.2-1.5-.8.1-.5.2-.1.7,0v-.4c.1.1.1.2.3.3,0-.6-.5-.7-.8-.9,0-.2.6-.2.3-.6-.5-.6-.5.4-.8,0l.2-.5c-.6-.4-.4-.9-.6-1.3,0,0-.1-.1-.2-.1,0,0,0,0,0,0h0c-.1,0-.2.2-.3,0h.3c0,0,0,0,0,0,0-.5-.8-.8-.8-1.2.1,0,.2-.3.3-.4-.2-.2-.3-.4-.5-.6.2.3.4.2.7.1,0-.2-.2-.2-.3-.4.1,0,.2.1.3,0l-.6-.6c0,0,0,.1,0,.2,0-.2-.3-.5-.2-.8,0,0,.2,0,.3,0-.2.3,0,.3.3.4-.2-.5,0-.1.1-.4,0-.3-.4-.4-.6-.2,0-.4,0-.5-.3-.9h.3v-.2c-.1,0-.2-.1-.2-.2.2.1.3.2.5.2,0,0,0-.2,0-.2,0,0,0-.1,0-.1,0,0-.1,0-.2-.1-.2,0-.3-.1-.2-.7h.3c0-.4-.5-.7-.1-.9,0-.2-.2,0-.3,0-.1,0-.2.1,0-.4M143.1,69.8s0,0,0,0c0,0-.1,0-.2,0,0,0,0,0,.1,0M144.3,69.6c.1,0,.2,0,.4.1-.6,0-.6,0-.4-.1M149.8,67.3c.3,0,.6-.1.7-.1-.2.1-.5.2-.8.3,0,0,0-.1,0-.2M153.6,102.5c-.1,0-.2-.2-.4-.2h.1c0,0,.2.1.2.2M152.9,66.5c2.6-1-.2.3-.4.5-3.6,1.4.2-.3.4-.5M159.4,104.8c-.4.2,0-.3-.4-.9.1.3.3.6.4.9M160.9,62.8l-1.2.8v-.4c.4-.1.5,0,1.2-.4M82.5,66.3c-.1.3-.3.5-.4.8-.1,0-.3-.1-.4-.2-1.1-.6-2.1-1.2-3.2-1.9.8.5,3.3,1.7,2.5,1-2.8-1.5-1.4-.8-3.1-2.1.4.2.9.4,1.4.6.5.2,1,.4,1.6.6.2,0,.3.1.5.2,0,0,0,0,0,.1,0,0,0,0,.1.1,0,0,0-.1.1-.2.3.1.7.2,1,.4,0,0,.2,0,.2,0,0,.2-.1.3-.2.4M61.4,141.1l-.3-.2c.2-.2.3-.2.5-.6v.8ZM59.9,145.4c-.9,2,0-.2-.1-.4.7-1.4,0,.2.1.4M48.8,190.2c-.6.3-.3-.2.1-1.4,0-.1,0-.3.2-.6,0,.2-.1.4-.2.6,0,.2.1,0,.3-.4.2-.3.4-.7.3-.4-.9,1.6.2.4-.8,2.2M208,113.8c-5.1-7.8-7-17.4-5.9-26.6,0-.3,0-.6,0-.9,0-.2,0-.4,0-.5,0-.1,0-.2,0-.3-1-.1-2.1-.3-3.1-.5,0,0-.2,0-.3,0,0,0-.2,0-.3,0-1.4-.3-2.8-.6-4.2-1.1-.6-.1-1-.2-1.1-.1-.7-.3.1-.1.2-.2-.1,0-.2,0-.3-.1-.8-.2-1.7-.5-2.5-.7,0,0,0-.1,0-.1-6.4-2.4-12.3-6.1-17.3-10.8-.3-.1-1.2-.9-1.7-1.4-.5-.6-1-1.2-1.6-1.9,0,0,0,0,0,0,.7,0,1.5,0,2.2,0,.7,0,1.3,0,1.8-.7.2-.3.6-.1.9.4,0,.1.2.2.3.3.6,0,.9-.1,1.3-.8-.3-.1-.5-.3-.8-.4-.3,0-.6-.1-.9-.1-.5,0-1,0-1.6,0-1.2,0-2.4.2-3.5-.4-.1,0-.3,0-.4,0-.2,0-.4.1-.5.2-.2-.2-.3-.4-.5-.6-.6-.8-1.2-1.5-1.7-2.4-.5-.8-1.1-1.6-1.6-2.4-.2-.4-.5-.8-.7-1.2,0,0,0,0,0,0h0s-.1.1-.1.1h-.3c-.2.2-.4.3-.6.4-.7.4-1.4.8-2.1,1.1-.6.3-1.2.5-1.6.8-3.2,1.5-6.5,2.9-9.8,4.1,0-.1,0-.2,0-.3-.3-.4-.7-.7-1.1-.5-.7.2-1.3.1-2,.3-.3,0-.5.3-.5.6.5.4,1.1.1,1.7.2.2,0,.4.1.6.3-.2,0-.4.1-.6.2-.1,0-.2,0-.3,0-.3.1-.7.2-1,.4-.7,0-1.4,0-2,.4-1.5,0-3,0-4.5,0-.2-.3-.3-.3-.5,0-.8,0-1.6,0-2.2.5-2.1,0-4.2,0-6.3,0-1.1,0-2.2,0-3.3,0-.3,0-.6.2-.7.4-1.3,0-2.7,0-4,0q-.3.2,0,.4h0c0,.2.2.4.5.4h.9c.2,0,.4-.2.5-.4,1.5,0,3,0,4.5,0,0,.2,0,.4.2.6,0,0,.2,0,.4.1,0-.1,0-.2,0-.4,0-.1-.1-.3-.2-.4.5,0,.9,0,1.4,0,0-.2,0-.3,0-.5,2.1,0,4.2,0,6.3,0,.7,0,1.4,0,1.4,1,0,0,.2,0,.3,0,0,0,.1,0,.2-.1,0-.3.1-.5.2-.9.5,0,1,0,1.5-.3.5-.3,1-.2,1.3.3,0,.1.2.2.3.3-.5,0-1.4.3-1.7.3-1.2.3-2.3.6-3.3.8-.7.1-1.3.3-2,.4,0,0,0,0,0,0,0-.4,0-.7-.4-1-.2-.2-.4-.1-.5.1,0,.1,0,.3,0,.4.3.1.4.3.4.6-.2,0-.3,0-.5,0-1,.2-2,.3-3.1.5,0,0,0,0,0,0,0-.4-.2-.8-.4-1.1-.5.3-.6.9-.9,1.3,0,0,0,0,0,0-.3,0-.7-.1-1.1-.2,0,.1-.1.2-.2.4-.3,0-.6,0-.9.1.2,0,.2,0,0,0,0,0,0,0,0,0,0,0-.1,0-.2,0-1.1.1-2.3.3-3.4.4-.4,0-.8.2-1.2.3-.2,0-.4.1-.6.2,0-.5,0-1-.1-1.5.3-.2.4-.4.3-.7-.1-.3-.4-.5-.7-.4-.4.2-.9,0-1.2.5.3.4.2.9.2,1.5h0c-.1.2-.3.3-.4.5-.2.1-.3.2-.2.5,0,0,0,.2.1.3-.8,0-1.3,0-1.8,0-.4,0-.8,0-1.2,0,0-.2-.2-.4-.3-.6,0-.1-.4-.1-.6,0-.1,0-.2.2-.3.3,0,0,0,.1,0,.2,0,0,.1.2.2.2-.2,0-.3,0-.5,0,.2,0,.4,0,.6,0,0,0,0,0,0,.1-.8,0-1.7,0-1.9.2-.2,0-.4,0-.6,0,0,0-.1,0-.1,0,0,0-.1,0-.2,0-1.3,0-.2-.2-1.2-.3-.4,0-1.5,0-1.6.2.3,0,.7.2,1.5.2-1.2,0-1.6-.2-1.5-.2-.8-.2,0-.4.8-.5.6-.1,1.1-.3,1-.4-1.4,0-2.7-.2-4.1-.3v.2s-.8,0-.8,0h.2c-1.3-.3-2.6-.4-4-.6,0,.5.4,1.2,1.5,1.7,0,0,0,0-.2,0-.7-.4-1.5-.8-2.2-1.2,0,0-.1,0-.2,0,0,.2,0,.4,0,.6-.4-.1-.8-.2-1.1-.3-.8-.3-1.6-.4-2.3-.6-.7-.2-1.3-.2-1.9-.3-.2,0-.4,0-.7,0,0-.1,0-.2,0-.3-.2-.2-.4-.3-.7-.5,0,.2,0,.5,0,.7-.6-.1-1.1-.2-1.7-.4,0,0,0,0,0,0l1.4.2c-.1,0-.7-.2-1.4-.4,0-.1-.2-.3-.4-.4-.2-.1-.4-.1-.6-.2-.3-.4-.7-.4-1.1-.3-.1,0-.3.1-.4.2-.6-.2-1.1-.3-1.3-.3,0-.2,2.3,0,1.1-.6-.8-.3-1.7-.6-2.4-.8,0-.5,0-.9-.2-1.4,0-.2.1-.5.2-.8.1-.2.3-.3.4-.5-.6,0-1.1,0-1.7-.2-.4,0-.4,0-.6.6.2.3.5.5.7.8-.1.2-.2.4-.3.6,0,0-.1.2-.2.2-.4-.1-.8-.3-1.2-.4-.1-.1-.2-.2-.3-.4,0-.3,0-.7-.2-.8-.5-.5-.5-1.2-1-1.8-.4,0-.7-.1-1.1-.2-.4,0-.6-.7-1.2-.5,0,.3-.1.7-.2,1-1-.5-2.1-1.1-3.1-1.7-.1,0-.2,0-.3-.1-.5-.2-1-.3-1.4-.5-6.8,4.6-13,10-18.5,16.1,3,10.5,5.3,21.2,5.8,32.1,0,0,0,0,0,.1,0,0,0,0,0,0,0,.7,0,1.5,0,2.2,0,0,0,0,0,0,0,0,0,0,0,.1,0,.8,0,1.7,0,2.5,0,.3.1.5.2.5,0,.4-.1,0-.2,0,0,0,0,.2,0,.3,0,.5,0,.9,0,1.4,0,0,0,0-.1,0,0,1.8-.2,3.6-.4,5.5h0s.1-.5.1-.5l-.2,1.3c0,.5-.1.9-.2,1.4-.2,1.2-.4,2.5-.6,3.7,0,.2,0,.8,0,1.2-.5,1.6-1.1,3.9-1.7,5.9-.5,1.5-1,2.9-1.4,3.7-1,2.8-2.3,5.5-3.8,8.1,0,.5,0,.8.1.9.2-.6.6-1.4.9-2.2.3-.8.7-1.4.9-1.5-.2.6-.5,1.4-.8,2-.3.6-.5,1.2-.4,1.3-1,.9,1-2.1-.1-.8-.4.8-.5,1.2-.6,1.5.2-.6-.7.5-.9.7-.4.6-.7,1.1-1.1,1.6-.3.5-.7.9-1.1,1.4-.4.4-.7.9-1.1,1.3-.2.2-.4.5-.6.7-.1.1-.2.2-.3.4h0c0,.1,0,.2,0,.2,0,0,0,.2,0,.3,0,0,0-.1,0,0,0,0,0,0,0,0,0,0,0,0,0,0,.1.6.2,1.2.3,1.9.1.2.2.4.3.6.3.6.6,1,.7.7.3,1.7,0,1.8.3,3.3.2-2.4,0,.5.4.7,0,1.5-.2.5-.3,1.2,0,.3.2.9.3.9,0-.2.1-.4.1-.9,0,.7,0,.9-.1.9-.3.8-.7-1.1-1.1-.9,0,.8,0,1.5,0,2.3h.2s0,.4,0,.4h-.1c0,.6,0,1.4-.1,2.1.5,0,1.2-.2,1.5-.9.3.1-.4,1.4-.4,2.1-.1.5-.2.9-.2,1.3,0,.4,0,.8,0,1.1,0,.7,0,1.4-.2,2.2,0-.4,0-.8,0-1.2,0,.3-.5,2.6-.4,3-.1,0-.5-1.3-.8-.7-.1.7-.3,1.4-.4,2,0,.6-.1,1.3-.2,1.8,0,1,0,1.7.2,1.7.1-.7.3-1.5.4-2.2l.3-2.2c.4,0-.4,3.2,0,3.1l-.7,2c-.2.7-.5,1.3-.7,1.9.2-.5.6-2,.2-1.5-.6,1.7-.4.8-.9,1.9.2-1.2.3-2.9.2-4.4-.3,1.1-.7,2.2-1.1,3.2,0,0,0,.1,0,.2,0,1.1.1,2,.1,2.4-.7,1.4-1.2.6-1.1.2-1.3,2.8-.3,3.2-1.9,5.9l.7-1c-.3.7-1.8,2.9-1.5,2.7-.1.1-.3.2-.4.3,17.1,31.8,50.7,53.4,89.3,53.4,56,0,101.4-45.4,101.4-101.4s-.4-10.8-1.3-16.1c-10.8-2-20.8-8.1-26.8-17.2"/>
  <path class="cls-2" d="M92.9,65.9c-.2,0-.4.2-.4.4,0,.3,0,.6-.1.8-.1.2-.3.3-.3.5,0,.3.2.5.5.7,0,0,.3,0,.3-.1,0-.1,0-.3.1-.4.4-.5.5-1.1.6-1.8-.3,0-.5-.1-.7,0"/>
  <path class="cls-2" d="M140,64.6c1-.2,1.8-.4,2.6-.7-1.1.2-2,.4-2.6.7"/>
  <polygon class="cls-2" points="170.5 62.9 170.6 62.9 170.5 62.8 170.5 62.9"/>
  <path class="cls-2" d="M208.7,80.9c.1-.1.2-.2.2-.2l.3-.2-.5.4ZM210,80.3c.2,0-.2.2-.3.3,0,0,.2-.2.3-.3M208.9,78.7h0c0-.1,0-.2,0-.2l-.2.2c-.1.3-.2.5-.3.8,0,0,.2,0,.2,0-.4.5-.5,1.1-.7,1.5,0,0,0,0,.1,0,.5,0,1,0,1.5,0,.2-.2.4-.4.5-.6-.2.2-.9.5-.6,0,.3-.2.6-.3.8-.5-.2.5-.4.1-.4.5.1,0,.3-.2.4-.2-.2.2,0,.3-.1.4.4,0,.6.2,1.1.2,0,0,0,0,0,0h0s0,0,0,0c0,0,.2,0,.3,0-.8-1-1.7-1.9-2.6-2.9,0,.2-.1.3-.2.5"/>
  <path class="cls-2" d="M140.5,66.7c-.4,0-.9,0-1.3.1,0,0-.2.2-.2.3,0,.1.2.2.3.3,0,0,.2,0,.2,0,.7-.5,1.1.1,1.5.5.5-.4,1-.7,1.7-1.3-.9,0-1.5,0-2.2,0"/>
  <path class="cls-2" d="M166.5,50.9c.1.2-.2.2-.2.4,0,0,.2,0,.3,0,0,0,0-.1,0-.2,0,.1,0,.2,0,.2,0,.2-.3.3-.5.3-.2,0-.3,0-.5.2,0,.2.2.4.3.7v-.2c.1,0,.2.1.2.1,0,0,0,0-.1.1,0,.2.2.4.2.7.3-.7.7-1.5.9-1.9,0-.1,0,0,0,.1,0,.2,0,.4,0,.5,0,.2,0,.4,0,.3,0,0,.1-.1.2-.3.1-.2.2-.4.3-.4,0,.1-.1.3-.2.4,0,.1.4-.3.4-.5,0,0,0,.3,0,.5,0,.2,0,.5,0,.5.3-.2.6-.5.7-.9,0-.1,0-.2,0-.3-.1,0-.2,0-.3-.1,0,.1-.1.3-.2.4,0-.2,0-.3,0-.4-.5-.2-1.1-.4-1.7-.6,0,0,0,.3.3.2"/>
  <path class="cls-2" d="M117.6,69.5c-.5-.1-1-.2-1.4.3-.5.1-1,0-1.5.2.1,0,.2.2.3.2.2,0,.4,0,.7,0-.3.6-1.2.6-1.5,1.2,0,.4.2.7.3,1.1,0,.3.5.5.7.2.4-.5,1.1-.4,1.5-.8-.1-.6-.3-1.1-.4-1.7.1,0,.3,0,.4,0,.3,0,.6,0,.8,0,.2,0,.4-.3.3-.5,0-.1-.2-.2-.3-.3"/>
  <path class="cls-2" d="M102.9,68.8c-.1,0-.3.1-.3.2-.1.3-.2.5-.2.8-.2.3-.4.6-.6.9,0,0,0,.3,0,.4,0,0,.3.1.4.1.8-.1.9-.3,1.1-1.3,0-.2,0-.4,0-.6,0-.2,0-.4-.3-.4"/>
  <path class="cls-2" d="M121.3,67.7c0,0-.2.1-.3.2,0,.1,0,.3,0,.4,0,.2-.1.4.2.5.2,0,.6-.2.7-.5.1-.3-.2-.7-.6-.7"/>
  <path class="cls-2" d="M120.2,69.4c-.4,0-.7,0-1.1.2-.2,0-.3.3-.4.5.5.4,1,.2,1.5.2.3,0,.6,0,.7-.4.1-.3-.2-.5-.8-.5"/>
  <path class="cls-2" d="M119.7,68.5s0-.1,0-.2c-.5-.3-1.1-.3-1.6.2,0,0,0,.3,0,.3.2,0,.4.1.6.2.3,0,.6,0,.8-.2,0,0,.1-.2.2-.4"/>
  <path class="cls-2" d="M166,50.7c0,0,0,.1,0,.2,0-.1,0-.2,0-.2,0,0-.1,0-.2,0,0,0,0,0,0,.1"/>
  <path class="cls-2" d="M128.5,71.1c.2,0,.4-.3.3-.4,0,0-.2-.2-.3-.2-.2,0-.4.3-.3.4,0,0,.2.1.3.2"/>
  <path class="cls-2" d="M110.9,70c0,0-.3,0-.3.1-.1.2,0,.4.2.5.1,0,.3,0,.3-.1.1-.2,0-.4-.2-.5"/>
  <path class="cls-2" d="M105,68.5c-.2,0-.4.2-.3.5,0,.3.4.4.7.3.4-.1.5-.3.3-1.1-.2,0-.4.1-.6.2"/>
  <path class="cls-2" d="M108.9,70.8c.1,0,.2-.2.4-.2,0,0-.2-.2-.3-.3-.3-.1-.5-.3-.8-.4-.1,0-.3,0-.4,0-.2,0-.4.3-.3.5.3.6.5,1.1.7,1.8,0,.3.5.4.8.2.2,0,.3-.3.5-.4-.3-.5-.5-.9-.7-1.2,0,0,.2,0,.2,0"/>
  <path class="cls-2" d="M151.3,106.8c-.2.1,0,.4.1.5,0-.2.2-.4-.1-.5"/>
  <path class="cls-2" d="M153.9,117.2c0-.2,0-.3,0-.4,0,.2,0,.4,0,.4"/>
  <path class="cls-2" d="M168.9,51.6c0,.2,0,.3-.1.5,0,0,0,.2,0,.3.3-.2.5-.4.8-.5-.2,0-.4-.1-.6-.2"/>
  <path class="cls-3" d="M88.3,104.6c0,0,.1-.2.2-.3-.1,0-.2.2-.2.3"/>
  <path class="cls-3" d="M87.2,106.6h.1c0,0-.1,0-.1,0"/>
  <path class="cls-3" d="M89.2,117.5c0,0,0,.2,0,.4v-.4Z"/>
  <path class="cls-3" d="M95.1,109.1l.3.2c0-.3-.2-.2-.3-.2"/>
  <path class="cls-3" d="M102.1,114.5s0,0,0,0c0,0,0,0,0,0"/>
  <path class="cls-3" d="M105.1,124.4h0c0,0,0,0,0,0"/>
  <path class="cls-3" d="M97.3,120.8s0,0,0,0c.2,0,.1,0,0,0"/>
  <path class="cls-3" d="M93.4,126.9s0,0,0,0c0,0,0,0,0,0h0Z"/>
  <path class="cls-3" d="M92.9,126.5c.4,0,.5.2.6.4.1-.2.3-.4.5-.7-.3,0-.7.2-1.1.2"/>
  <path class="cls-3" d="M90,118.5c0,.1,0,.2,0,.4-.1,0-.1-.2,0-.4M87.4,108.9c0-.1-.3-.4-.1-.5.3.1.2.3.1.5M102.2,129.4c.3,0,.4-.3.5-.5.1-.2.3-.4.6-.4,0,0,.3,0,.5,0,.2,0,.3,0,.2-.2-.4,0-.8-.5-1.2-.9.2-.1.3-.3.4-.4h.1c0,.1,0,0,0,0h-.1c.1-.3.3-.4.4-.6.3.2.3.9.6.9,0,0,0-.3,0-.4.2-.1.2.3.5-.1-.3-.3.6-.7-.2-.4.2-.4.3-.3.6-.8-.2,0-.4-.4-.5-.7,0-.2.2-.3.2-.5,0,0,0,0,0,0,.4-.7.8-1.1,1.1-1.8.1,0,.4-.3.5-.1,0-.1-.1-.3,0-.5.5-.3-.1.5.4.3-.2-.1,0-.7-.1-1.1-.4,0-.3.7-.3,1.1-.2,0-.3-.2-.4-.4.1-.4.3-.7.4-1.1.1-.4.3-.8.4-1.2.3-.5.6-1.9,1.1-2.6,0-.1,0-.3-.1-.4.2-.8.4-1.5.6-2.3h0s0,0,0,0c0-.3.1-.5.2-.8,0,0,0,0,.1,0v-.4s0,0,0,0c0,0,.1.2.2,0,0,0-.1-.1-.2-.2,0-.2,0-.4.1-.6,0,0,0,0,0,0,0,0,0,0,0,0,0-.2,0-.4.1-.5,0,0,0,0,0,0,0,0,0,0,0-.1.4-2.2.7-4.4.9-6.7.2-3-4.4-2.9-4.6,0,0,.3,0,.6-.1,1-.3.1-.5.3-.8.2.5.5-.9,1.1-.3,1.9-.1.1-.2-.2-.3,0,.2.2.2.5,0,.9h0c-.1,1.1-.5,1.6-.9,2.9h.3c0,.2-.2.3-.3.4.4.4.2-.8.6-.4-.6.3-.5,2-1.2,2.1-.1.4.4,0,.2.4h-.2c0,0,.2.2.2.2-.1.3-.4.3-.5.3,0,0,0-.2,0-.3-.3.3-.2,1-.3,1.1l.2-.4c0,.6-.3,1.2-.5,1.9-.2.6-.3,1.2-.4,1.9h.2c0,.9-.4.6-.6,1.6h0c0,.2,0,.4,0,.7,0-.3-.4.3-.5,0,0,.3,0,.4,0,.5,0,0,.1.2.2.6,0,0-.1,0-.2,0,0,.3.1.4,0,.7,0,0,0,0,0,0,0-.2,0-.3-.1-.3,0,0-.2-.2-.1-.4,0,0,0,0,0,0h0c-.3,0-.4.1-.6.3-.2.1-.4.1-.4-.3-.2.3-.1.5,0,.6.1,0,.3,0,.2.1,0,.1,0,.3-.1.4-.1,0-.3,0-.4,0-.1,0-.2-.4-.2-.7,0-.3,0-.6-.1-.7,0,0,0,0,0,0,0-.1,0-.1-.2-.2,0,0,0,0,0,0,0,0,0-.1,0-.3-.4,0-.2-.4-.7-.2.1.2.3.4.5.6-.3-.3-1-.3-1.1-1.1.1,0,.3.1.4.2,0-.2-.3-.3-.2-.6.5-.2.5.8,1,.9,0-.3-.7-.5-.1-.6-.7,0-.3-.7-.9-1h.3c0-.1-.3-.3-.3-.4h.5c-.5-.2,0-.8-.4-1.1.3.8-.3.3-.3.7-.8-.9.5-.8,0-2,0,.1,0,.7-.2.4,0-.2,0-.6,0-.8-.3-.8-.2.2-.5,0,.3-.4-.3-.3-.5-.6h.3c0-1-.7-.2-.7-1l.5.2-.2-.4h.3c-.4-.4-.3-.6-.3-1-.2.2-.5,0-.6-.3.1-.3.3,0,.2-.5.2,0,.5.2.2.5,0,0,.2,0,.3,0,.1-.3-.1-.7-.1-.9,0,0,0,.2,0,.2-.2-.2-.4-.5-.6-.8,0-.1.2,0,.3,0,0-.2-.2-.3-.3-.5.2,0,.5,0,.7.3l-.4-.7c0,0,.2-.4.3-.3,0-.4-.6-1-.4-1.6,0,0,0,0-.1-.2,0-.6.3-1,0-1.8.1-.2.2-.5.3-.7-.2-.5-.2-.2-.3,0,0,0-.1.2-.2.1,0,0-.2-.2-.3-.5-.1-.2-.2-.3-.2-.4,0,0,0-.1,0-.2,0,0,.3,0,.2-.3-.2-.2-.6-.3-.9-.5-.2,0-.4-.2-.5-.3-.2-.1-.4-.2-.6-.4.3,0,.5.2.8.3-.1-.2-.3-.4-.5-.6.5,0,.9.2,1.1.3.2,0,.2,0,0-.3-.3.3-1-.1-1.7-.3-.4-.1-.8,0-1.1,0-.3,0-.5.2-.5.4-.2,0-.3,0-.5,0,.1,0,.2,0,.3-.1-.5,0-.7.1-.8.4-.1.3-.2.5-.7.8-.3.2-.6.4-.5,0,0,.1-.2.3-.2.4,0,.2-.1.3-.2.5-.1.2-.2.1,0-.1l-.2.3v.3c-.2.2-.2.5-.2.7h0c0,0,.1.2.2.4,0,.2.1.2.2.3-.1.2,0-.1-.2,0l.2.5c-.2.2-.4-.2-.4-.5-.8.5.2.4-.2,1.4v-.5c-.6.3-.4.7-.7,1.2.1-.1.7-1.1.9-.6,0,.2,0,.4.1.6-.3,0-.2.3-.2.7h-.4c.2.4.3.3.5.5,0,.4-.3.6-.5.7,0,.7.4-.5.6.3,0,.6.1,1,.5,1.6,0,.4-.2,0-.3.1l.4.3c0,0,0,0-.1,0,.2.3.4,0,.6.4.4,0-.4,1.1.2,1.5,0,.2-.3,0-.4,0,.5.7.4.6,1,1.1v.6c0-.5.5,0,1,.3,0,0,0,0,0,0,0,0,0,.1,0,.2,0,0,0,0,0,0,0,0,0,0,0,.1,0,0,.1,0,.2,0,0,.1,0,.2.1.3-.1,0-.3,0-.4,0,0-.1.1-.2.2-.3-.3,0-.6-.2-.8,0,0,0,.1.1.2.2,0,0-.1,0-.2,0,0,0,0,0,.2.2l-.4.3h.2s0,1,0,1c.7.5,1.5.8,2,1.7-.4-.1-.5.2-.9.3.3-.4-.5-.7-.6-1.3,0,.3-.1.3-.2.2l.7.8c-.3.1-.1.3-.1.6.5-.4.7.5,1,.8-.2.1-.4.1-.6-.4-.2.7,1,.3.8,1,0-.1,0-.2-.2-.2.3.2.5.9.2.8h0c.1.3.4.8.8,1.2.3.4.7.7,1,.6,0,0-.6.3-.7.3.5,0,1,0,1.6,0,0,.1.2.2.3.3-.3.4-.7.8-1.1.5,0,.2.2.5.6.7,0-.1.2-.7.4-.6,0,.7,0,.4.2,1.2-.1-.2.6-.6.8-.4-.1,0-.4.6-.6.5.4,0,.7,0,1.1,0-.2,0-.4.5-.3.7,0-.2.7.4.9.4-.1,0-.2-.2-.3-.3.9.5,1.2-.5,2-.3-.1.1-.4.8,0,1,.1-.2.4-.6.7-1,0,0,0,0,0,0,.2,0,.4,0,.7,0,0,0,.2,0,.3,0,0,0,0,.1-.1.2-.3.4-.7.9-1.1,1.1.4.2.1.2.7.2.2.2-.3.3-.5.3.5,0,1,0,1.4,0,0-.2.2-.3.4-.5.2-.2.4-.3.4-.5-.4.3-.8.5-1.3.8,0-.2.1-.5.4-.8.3-.3.6-.6,1-.7.3,0,.1.8.2.9,0-.2.7-.6.8-.6,0,.1-.2.3-.3.4"/>
  <path class="cls-3" d="M89.3,117.9s0,0,.1-.1c0,0-.1,0-.1.1"/>
  <path class="cls-3" d="M95.1,109h0s0,0,0,0h0Z"/>
  <path class="cls-3" d="M104.8,127.1c-.1,0-.2.1-.3.1,0,0,.1,0,.3-.1"/>
  <polygon class="cls-3" points="108.4 115 108.3 115.1 108.2 115.4 108.4 115"/>
  <path class="cls-3" d="M107.5,119.7c-.1,0-.2,0-.3.1h.4c0,.1,0-.1,0-.1Z"/>
  <path class="cls-3" d="M107.2,121c0,0,0,.7.2.2,0,0,0-.6-.2-.2"/>
  <path class="cls-3" d="M97.8,129.8c-.4,0-.6,0-.6.4.7.3.3-.3.8,0,.2-.1-.5-.3-.3-.3"/>
  <path class="cls-3" d="M97.8,129.8c0,0,.1,0,.2,0-.1,0-.2,0-.2,0"/>
  <path class="cls-3" d="M86.8,110c0,0,.1-.2.1-.3l-.2.3h0Z"/>
  <path class="cls-3" d="M88.6,103.8h-.1c.1.1.3.2.4.2,0,0-.2-.2-.3-.2"/>
  <path class="cls-3" d="M95.2,105.3c-.1-.3-.4-.6-.6-.8.5.5.2,1.1.6.8"/>
  <path class="cls-3" d="M123.3,130.6h.1c0,0-.1,0-.1,0"/>
  <path class="cls-3" d="M129.6,136.2c0,0,0,.2.1.3v-.3Z"/>
  <path class="cls-3" d="M119.6,124.5h-.3c.1.2.2,0,.3,0"/>
  <path class="cls-3" d="M133.1,115.6s0,0,0,0c0,0,0,0,0,0"/>
  <path class="cls-3" d="M130.5,129.6h0c0,0,0,0,0,0"/>
  <path class="cls-3" d="M122.8,115.7s0,0,0,0c.2,0,0,0,0,0"/>
  <path class="cls-3" d="M137.7,137.3s0,0,0,0h0s0,0,0,0Z"/>
  <path class="cls-3" d="M137.4,138c0-.5,0-.6.3-.7-.3,0-.5-.1-.8-.2.2.3.4.6.5,1"/>
  <path class="cls-3" d="M124.4,131.8c-.1,0-.4,0-.3-.3.3-.1.3,0,.3.3M130.6,136.4c0,0,.2.1.2.2-.1,0-.2,0-.2-.2M118.4,117.7c.1,0,.3-.2.3,0-.4.2,0,.5.1.9h-.3c0,.6,0,.6.2.7,0,0,.2,0,.2.1,0,0,0,0,0,.1,0,0,0,.1,0,.2-.2,0-.3,0-.5-.2,0,0,0,.2,0,.2v.2c0,0-.3,0-.3,0,.3.3.3.5.3.9.2-.1.5,0,.6.2-.1.3-.3,0-.1.4-.2,0-.5-.1-.3-.4,0,0-.2,0-.3,0-.1.3.1.6.2.8,0,0,0-.2,0-.2l.6.6c0,.1-.2,0-.3,0,0,.1.2.2.3.4-.2,0-.5.1-.7-.1.2.2.3.4.5.6,0,0-.2.4-.3.4,0,.4.7.7.8,1.2,0,0,.1,0,.2.1.1.4,0,1,.6,1.3l-.2.5c.3.3.3-.6.8,0,.3.4-.2.3-.3.6.3.1.9.3.8.9-.1,0-.2-.2-.2-.3v.4c-.6-.2-.6-.5-.8,0,.8-.4.8,1.2,1.5.8v.3c0,0,0,0-.1-.1,0,.6.7,0,.9.5,0,.2,0,.4-.1.3l.4.3c0,.1,0,.2-.1,0l.5.5h0c.2,0,.5,0,.6.1,0,.2-.1,0-.2,0l.4.2c0,.3-.4.1-.6,0-.4.8.4.1.5,1l-.3-.2c-.2.5,0,.6.1,1.1,0-.2,0-1.1.5-.9,0,.1.1.3.4.3-.2.2,0,.3.2.5l-.3.2c.3.2.4,0,.7,0,.2.3,0,.5-.1.8.3.4,0-.6.6-.2.2.4.5.5,1.1.7.1.3-.2.1-.2.3h.4s0,0,0,0c.3,0,.3-.3.6-.1.4-.3.1,1,.8.9,0,.2-.2.2-.3.3.7.1.6.2,1.2.1l.2.5c0-.4.5-.5.9-.5,0,0,0,0,0,0,0,0,0,0,0,0,0,0,0,0,0,0,0,0,0,0,0,.1,0,0,0,0,.1,0,0,0,.1.1.2.2,0,0-.2.2-.3.2,0-.1,0-.2,0-.3-.2.1-.5.3-.6.5,0,0,.1,0,.2,0,0,0-.1,0-.1.1,0,0,0,0,.2,0l-.2.4h.1c.1,0,.3.3.5.5.7,0,1.4-.4,2.2-.1-.3.2-.3.4-.5.8,0-.5-.7-.2-1-.5.2.2,0,.3,0,.3.3,0,.6,0,.9,0-.2.3,0,.3.1.5,0-.3.3-.3.5-.3.2,0,.4.2.7.2,0,0,0,.2-.2.2,0,0-.1,0-.2,0,0,0-.1,0-.2-.1,0,.2.1.2.2.2.1,0,.2,0,.4,0,.2-.1.4-.2.6,0-.1,0-.2,0-.2,0,.2,0,.4,0,.6,0,.2,0,.3.1.2.2h-.1c.4,0,1.1,0,1.6-.3.5-.3.7-.7.5-1,0,0,.4.5.4.7,0-.6-.1-1.1-.3-1.5,0,0,.1-.2.2-.3.1,0,.3,0,.4.1.3.1.6.3.6.7.1-.2.4-.4.3-.9-.1.1-.7.1-.7,0,.3-.1.4-.2.5-.3,0,0,.1-.2.4-.5-.1.2-.8,0-.8-.3.1,0,.7-.1.8,0-.1-.1-.3-.3-.4-.4-.2-.1-.3-.2-.4-.3.2.1.6-.1.7-.4,0,.1-.4-.8-.6-.9,0,.1,0,.2.1.4-.1-.2-.3-.3-.5-.4-.2,0-.3,0-.5,0-.3,0-.6.2-.9,0,.1,0,.6-.7.4-.9-.2.1-.6.4-1,.7-.2-.1-.4-.2-.6-.4.5-.2,1-.4,1.4-.6-.1-.3,0-.2-.2-.4,0-.2.3-.1.4-.1-.2-.2-.4-.3-.6-.5-.2.4-.7,0-.9.3.3,0,.6,0,1,.1-.2.4-1.1.7-1.5.3,0-.2.5-.5.6-.7-.1,0-.6,0-.6-.2h.3c-.2-.3-.7.1-.8-.4,0-.1,0-.7-.1-.5,0,.3-.4.8-.7,1.3-.1,0-.2-.2-.4-.3h.1c0-.1,0-.2,0-.2h0c-.1,0-.2,0-.4-.2.2-.3.8-.4.8-.7,0,0-.3.1-.3.1,0-.2.3-.2,0-.4-.3.3-.4-.4-.3.2-.3-.1-.2-.3-.4-.5,0,.2-.4.3-.8.4,0,0-.2-.2-.3-.3,0,0,0,0,0,0-.4-.5-.5-.9-.9-1.3,0-.1,0-.4.2-.4-.1,0-.3,0-.4-.1,0-.5.3.3.5-.2-.2.1-.6-.1-.8-.2-.3.3.3.5.6.6-.1.1-.3.2-.5.2-.4-.5-.8-1-1.1-1.5,0-.2-.2-.4-.4-.7-.2-.4-.5-.8-.5-1.1-.1,0-.3-.2-.4-.2-.4-.7-.7-1.4-1.1-2.2,0,0,.1,0,.2.1l-.3-.4s0,0,0,0c.1,0,.3.3.4.2-.1,0-.3-.2-.4-.3,0-.1-.1-.3-.2-.4,0,0,0,0,0,0,0,0,0,0,0,0,0,0,0,0,0,0,.1,0,.3,0,.4,0,0,0,0,0,0,0,0,0,0,0,0,0,3.5.5,7.1.7,10.5-.8.3-.1.4-.3.6-.4.3,0,.6.1.8.3,0-.4.3-.5.5-.8.3-.3.4-.9,0-1.2,0-.2.2.1.3,0-.3-.2-.4-.4-.4-.9h0c-.1-.3-.3-.5-.4-.7-.1-.2-.3-.4-.4-.6-.1-.2-.3-.4-.5-.6-.2-.2-.5-.4-.9-.5,0,.1,0,.2,0,.3-.3-.1-.4-.2-.5-.3-.2.2,0,.2.2.3.2,0,.4.2.2.3,0-.3-.7-.5-1.2-.4-.1,0-.3,0-.4,0-.1,0-.2,0-.4,0-.2,0-.4,0-.6-.1-.3,0,.2.3,0,.4h-.1c0-.1,0,.1,0,.1-.2,0-.4-.1-.4-.3,0,0,.1,0,.1-.1-.3-.1-.6.3-.7.2,0,0,.2,0,.3,0-.7.4-1.7.2-2.6.6h0c-.7.4-.5,0-1.2,0h0c-.2,0-.4.1-.6.1.2-.1-.3-.4,0-.5-.8.2-.4.2-.9.6v-.2c-.3.2-.3.3-.7.3.3-.1-.2-.4.2-.6-.7-.6-1.2.3-1.5-.5-.5.6.6.5.4.6.1.2-.4.4-.6.3-.2,0-.3-.9-.9-1,0,0,0,0,.1,0-.2-.2-.5.1-.8-.2-.2.3-.4,0-.5.4h.6c-.2,0-.4.2-.6.3-.2,0-.4.1-.7,0,0,0,.3-.2.4-.3-.2-.2-.4,0-.6,0,0-.2.3-.3.6-.2.3,0,.5,0,.7,0-.1-.2-.8.2-.5-.3,0,.2-.2.2-.3.2-.1,0-.2,0-.4,0s-.3,0-.4,0c-.1,0-.3,0-.4.2v-.3c-.1,0-.3.2-.5.3,0-.2.2-.3.3-.5-.2.2-.5.2-.8.3-.3,0-.6,0-.8.3.5-.3.6-.3.7-.2,0,.1,0,.3.3.3-.5.5-.7.4-1,.4-.2,0-.3,0-.5,0-.2,0-.4.2-.5.6.2-.2.5-.4.5-.1-.2.2-.5.5-.7.6-.2.5,0,.5,0,.4"/>
  <path class="cls-1" d="M118.6,116.7s0,0,0,.1h0Z"/>
  <path class="cls-3" d="M129.8,136.5c0,0,0-.1,0-.2,0,0,0,0,0,.2"/>
  <path class="cls-3" d="M119.7,124.5s0,0,0,0c0,0,0,0,0,0h0Z"/>
  <path class="cls-3" d="M132.6,129.9c0,0,0,.2,0,.2,0,0,0-.1,0-.2"/>
  <path class="cls-3" d="M126.2,123.7c0,0,0-.2,0-.3h0c0,0,0,.3,0,.3Z"/>
  <path class="cls-3" d="M128.6,126.2h-.2c0,0,0,.1-.1.2l.3-.2Z"/>
  <path class="cls-3" d="M129,126.9c.1,0,.5.2.3-.1-.1,0-.4-.2-.3.1"/>
  <path class="cls-3" d="M137.2,132.5c-.2-.3-.3-.2-.4-.1,0,0,0,0-.1,0,0,0,0,0,0,0,0,0,0,0,0,0,0,0,0,.1,0,.2,0,0,.2.2,0,.2.4,0,.5.3.6-.2"/>
  <path class="cls-3" d="M136.3,132.6c0,0,.2,0,.2,0,0,0-.1,0-.2,0"/>
  <path class="cls-3" d="M124.3,132.9h0c0-.1,0-.2,0-.3v.3Z"/>
  <polygon class="cls-3" points="122.2 129.7 122.5 129.4 122.2 129.6 122.2 129.7"/>
  <path class="cls-3" d="M120.1,126.9c0,.1.2.2.2.4-.2-.2.1-.6-.2-.4"/>
  <path class="cls-3" d="M153.9,117.2c-.1,0-.1-.2,0-.4,0,.1,0,.2,0,.4M151.4,107.3c0-.1-.3-.4-.1-.5.4.1.2.2.1.5M173.6,101.8c0,.3-.1.6-.2,1-.3.1-.6.3-.8.2.4.6-1,1-.4,1.9-.2.1-.2-.2-.3-.1.2.2.2.5,0,.9h0c-.2,1.1-.6,1.5-1.2,2.7h.3c-.1.3-.2.3-.4.4.3.5.3-.7.7-.3-.7.2-.7,1.9-1.5,1.8-.2.4.4,0,.2.4h-.2s.2.2.2.2c-.2.2-.4.3-.6.2,0,0,0-.2,0-.3-.3.2-.4,1-.5,1l.3-.3c-.4,1.1-1.3,2.3-1.6,3.4h.2c-.3.9-.5.5-1,1.3h0c0,.2-.1.4-.3.6,0-.3-.5.2-.5-.2-.4.9-.1.5-.1,1.3h-.3c0,.3,0,.4-.2.8.1-.4-.5,0-.4-.5-.5.2-.6.5-.8.8-.1.2-.3.4-.6.2,0,.3.2.4.4.3.2,0,.3-.3.3-.2.3,0,0,.6-.3.7-.1,0-.3,0-.5-.2-.2-.2-.4-.3-.6-.3,0,0,0,0,0,0,0,0-.1,0-.2,0,0,0-.2,0-.3-.1-.3.3-.2-.1-.5.3.2,0,.4.1.5.1-.2,0-.4.1-.6.1-.2,0-.5,0-.6-.4.1,0,.3,0,.4,0,0-.2-.3-.1-.3-.4.2-.1.3,0,.5,0,.1.1.3.2.5,0,0-.1-.1,0-.2,0-.1,0-.2,0,0-.2-.3.2-.4.1-.4,0,0-.1-.1-.3-.5-.4h.3c0-.2-.3-.2-.3-.3.2,0,.3,0,.4,0-.5-.1,0-.7-.3-1,.3.7-.3.3-.3.7-.4-.4-.2-.6,0-.8.2-.2.3-.5,0-1.1,0,.2,0,.7-.2.5,0-.2,0-.6,0-.8-.3-.8-.2.2-.5,0,.3-.4-.3-.3-.5-.6h.3c0-1-.7-.1-.7-1l.5.2-.2-.4h.3c-.4-.4-.3-.6-.4-1-.2.2-.5,0-.6-.3.1-.3.3,0,.1-.5.2,0,.5.2.3.5,0,0,.2,0,.3,0,.1-.3-.1-.7-.2-1,0,0,0,.2,0,.2-.2-.2-.4-.5-.6-.7,0-.2.2,0,.3,0,0-.2-.2-.3-.3-.5.2,0,.5,0,.7.3l-.4-.7c0,0,.2-.5.3-.4,0-.5-.6-1-.5-1.6,0,0-.1,0-.2-.2,0-.6.2-1.1-.1-1.7l.4-.4c-.1-.5-.2-.2-.3,0-.1.1-.3.2-.5-.5,0-.2-.1-.4-.1-.5,0,0,0-.1,0-.2.1,0,.3,0,.3-.2-.2-.2-.5-.4-.8-.7-.3-.2-.6-.5-1-.9.3.1.5.3.7.5-.1-.2-.3-.4-.4-.7.5,0,.9.4,1,.5.2.1.2,0,0-.3-.2.1-.4,0-.7-.1-.3-.1-.6-.3-1-.5-.7-.3-1.5-.3-1.5,0-.1,0-.3-.1-.5-.2.1,0,.2,0,.3,0-.5-.2-.7,0-.8.2,0,.1-.2.2-.3.3-.1.1-.3.2-.6.3-.4,0-.7.2-.5,0-.2.2-.5.5-.6.8-.2.2-.3,0,0-.1-.2.2-.3.4-.4.6-.1.2-.2.5-.2.7h0c0,.1,0,.3.1.4,0,.2.1.3.2.4-.1.3,0-.2-.2,0,0,.2.1.5.2.6-.1.1-.2,0-.3,0,0,0,0-.1,0-.3,0-.1,0-.3,0-.4-.2.2-.3.3-.3.4,0,0,0,.1,0,.2,0,0,0,0,0,.1.1.2.3.4,0,.9v-.5c-.6.3-.4.7-.6,1.2.1-.1.6-1.1.9-.6,0,.2,0,.4.1.6-.3,0-.2.3-.1.7h-.4c.2.4.3.3.6.5,0,.4-.3.5-.5.7,0,.7.4-.5.6.3,0,.6.1,1,.5,1.6,0,.4-.2,0-.3.1l.4.3c0,0,0,0-.1,0,.2.3.4,0,.6.4.4,0-.5,1.1.1,1.5,0,.2-.2,0-.4,0,.5.7.4.6.9,1.1v.6c0-.5.5,0,.9.3,0,0,0,0,0,0,0,0,0,0,0,.1,0,0,0,0,0,0,0,0,0,0,0,0,0,0,.1,0,.2,0,0,.1,0,.2,0,.3-.1,0-.3,0-.4,0,0-.1.1-.2.2-.3-.3-.1-.6-.2-.8-.1,0,0,.1.1.2.2,0,0-.1,0-.2,0,0,0,0,0,.2.2l-.4.3h.2c0,.3,0,.7,0,1,.6.5,1.4.9,2,1.8-.4-.1-.5.1-.9.3.3-.4-.5-.7-.6-1.3,0,.3-.1.3-.2.2l.7.8c-.3,0-.1.3-.1.6.5-.4.7.5,1,.8-.2.1-.4.1-.6-.4-.2.7.9.3.9,1,0-.1,0-.2-.2-.2.3.2.5.9.3.8h0c.2.3.5.8.9,1.2.4.4.8.7,1,.5,0,0-.5.3-.7.4.5,0,1.1,0,1.6-.1.1.1.2.2.3.3-.3.4-.5.9-1,.7.1.2.3.4.8.6,0-.1,0-.7.3-.7,0,.3.1.5.2.6,0,.1.1.2.4.6-.2-.2.4-.7.7-.5,0,0-.3.6-.4.7.4,0,.7-.2,1-.3-.2,0-.2.5,0,.8,0-.2.8.2,1,.1-.1,0-.2-.1-.4-.2,1,.2,1-.9,1.9-.9,0,.1-.2.9.3.9,0-.2.3-.6.5-1.1,0,0,0,0,0,0,.3,0,.6-.2.9-.3,0,0,0,.1,0,.2-.2.5-.5,1-.8,1.3.4,0,.2.2.7,0,.2.1-.2.4-.4.4.5,0,.9-.2,1.3-.2-.2-.4.8-.8.6-1.1-.4.3-.7.6-1.1.9,0-.2,0-.5.2-.8.2-.3.5-.6.9-.8.3,0,.2.7.3.8,0-.2.6-.6.7-.6,0,.1-.1.3-.2.4.5-.1.4-.9,1.1-.9.2,0,.8,0,.7-.2-.3,0-.8-.5-1.1-1,.2-.1.3-.3.5-.4h0c0,.1,0,0,0,0h-.1c.2-.3.3-.4.5-.5.3.2.2.9.5,1,0,0,0-.3,0-.4.2,0,.2.3.5,0-.2-.3.6-.6-.1-.4.2-.4.4-.3.7-.6-.2,0-.3-.4-.3-.8.1-.1.2-.3.3-.4,0,0,0,0,0,0,.6-.6,1-.9,1.4-1.5.1,0,.4-.2.5,0,0-.1,0-.3,0-.5.6-.2-.3.5.3.4-.2-.2,0-.7.1-1.1-.4-.1-.5.6-.6,1-.1-.1-.3-.3-.3-.5.5-.7.9-1.4,1.3-2.1.4-.4,1-1.7,1.6-2.3,0-.1,0-.3,0-.4.4-.7.7-1.4,1-2.1h0s0,0,0,0c.1-.2.2-.5.3-.7,0,0,0,0,.1,0v-.4s0,0,0,0c0,0,.1.2.2.1,0,0-.1-.1-.2-.2,0-.2.2-.4.2-.6,0,0,0,0,0,0,0,0,0,0,0,0,0-.2.1-.3.2-.5,0,0,0,0,0,0,0,0,0,0,0-.1.7-2.1,1.3-4.3,1.6-6.5.5-2.9-4-4.2-4.4-1.2"/>
  <path class="cls-3" d="M152.8,102.9c0,0,.2-.1.2-.2-.1,0-.2.1-.2.2"/>
  <path class="cls-3" d="M151.3,104.7h0s0,0,0,0"/>
  <path class="cls-3" d="M153.2,115.8c0,0,0,.2,0,.4v-.4Z"/>
  <path class="cls-3" d="M159.2,108.2l.3.2c0-.3-.2-.2-.3-.2"/>
  <path class="cls-3" d="M169.3,110.8s0,0,0,0c0,0,0,0,0,0"/>
  <path class="cls-3" d="M170.1,121.3h0c0,0,0,0,0,0"/>
  <path class="cls-3" d="M161.7,119.5s0,0,0,0c.2,0,.1,0,0,0"/>
  <path class="cls-3" d="M157.7,125.2s0,0,0,0c0,0,0,0,0,0h0Z"/>
  <path class="cls-3" d="M157,124.8c.5,0,.5.1.7.3.1-.2.2-.5.3-.7-.3.1-.7.3-1,.4"/>
  <path class="cls-3" d="M153.2,116.2s0,0,.1,0c0,0-.1,0-.1,0"/>
  <path class="cls-3" d="M159.2,108.1h0s0,0,0,0h0Z"/>
  <path class="cls-3" d="M169.2,123.9c-.1,0-.2,0-.3,0,0,0,.1,0,.3,0"/>
  <polygon class="cls-3" points="175 113.2 175.3 112.8 175.2 112.9 175 113.2"/>
  <path class="cls-3" d="M173.2,117.3l.3.2v-.3c-.1,0-.2,0-.3,0"/>
  <path class="cls-3" d="M172.8,118.5c0,0-.1.7.2.2,0,0,.1-.5-.2-.2"/>
  <path class="cls-3" d="M162.7,127c-.4.2-.6,0-.4.5.7.1.2-.4.8-.2.1-.2-.5-.1-.3-.3"/>
  <path class="cls-3" d="M162.7,127c0,0,.1,0,.2-.1-.1,0-.2,0-.2.1"/>
  <path class="cls-3" d="M150.9,108l-.2.3h0c0,0,0-.1,0-.3"/>
  <path class="cls-3" d="M153.6,102.5c0,0-.2-.2-.2-.3h-.1c.1.1.3.2.4.3"/>
  <path class="cls-3" d="M159.4,104.8c0-.3-.3-.6-.4-.9.4.6,0,1.1.4.9"/>
  <path class="cls-3" d="M108.8,161.4c.1.2.2.4.3.6-.2,0-.2-.3-.3-.6M105.5,145.9c-.2,0-.4,0-.7,0,.1,0,.4-.2.6-.3.2,0,.5,0,.6,0-.2.2-.3.2-.5.3M155.5,148.4c-.1.5-.3,1-.4,1.6-.3.2-.6.4-.9.3.3.9-1.3,1.7-1.1,3-.2.2,0-.3-.3-.2.1.4,0,.8-.3,1.4h0c-.7,1.7-1.3,2.4-2.5,4.2h.3c-.3.4-.4.4-.6.6.1.7.7-1.1.9-.5-.4.1-.8.8-1.3,1.5-.4.7-.9,1.3-1.3,1.3-.4.6.4,0,0,.6h-.3c0,0,0,.3,0,.3-.3.4-.6.4-.8.3,0,0,.2-.3.2-.4-.5.4-1,1.4-1.2,1.5l.5-.5c-1.1,1.7-2.9,3.3-4,4.8h.2c-.9,1.2-1,.7-2.1,1.8h0c-.2.2-.5.6-.8.8.2-.4-.8.2-.5-.3-1.1,1.1-.5.6-1.1,1.6h-.3c-.2.3-.2.4-.9.8.5-.4-.6-.1,0-.6-.4,0-.8.2-1,.3-.3.1-.5.3-.7.4-.4.3-.8.4-1.2.2-.6.8,1.4,0,1.1.2.4,0-.5.6-1,.7-.5,0-1-.6-2.3-.5.1,0,.1,0,.3,0-.5-.1-.9.3-1.5,0-.3.4-.8,0-.9.4.4,0,.8,0,1.2,0-.7.1-1.4.6-2.5.2.1,0,.5-.2.7-.2-.3-.2-.6,0-.9-.2,0-.2.4-.2.9-.1.4,0,.9.1,1.3,0-.2-.1-.5,0-.7,0-.2,0-.4,0-.2-.2-.3.3-.6.2-.9.1-.3-.1-.7-.3-1.2-.2v-.3s-.3,0-.5,0l.5-.2c-.4,0-.7-.1-.9-.3-.3-.2-.5-.4-.8-.5,1.2.6.1.5.6.9-.9-.2-1-.5-1.1-.8-.1-.3-.2-.7-1.1-1.2.2.1.7.7.3.6-.3-.2-.6-.6-.7-.9-1-.7,0,.4-.6.2-.1-.6-.6-.3-1.1-.6l.2-.2c-.9-1.2-.7.2-1.5-1h.7c0,.1-.6-.3-.6-.3h.3c-.7-.5-.8-.8-1.2-1.4,0,.3-.5.3-.9-.3-.1-.5.4,0-.2-.7.3,0,.6.1.6.6.1,0,.3,0,.4,0-.1-.5-.7-1-.9-1.3,0,.1.1.3.2.3-.4-.3-.7-.6-1.1-.9,0-.2.1-.1.3,0-.2-.2-.4-.3-.6-.7.3,0,.5-.2.9.2l-.9-1c0-.1,0-.7,0-.6-.3-.7-1.3-1.4-1.6-2.3,0,0-.2,0-.3-.3-.4-.9-.5-1.7-1.3-2.6v-.8c-.4-.8,0,1-.8-.2-.6-.9.2-.5.1-.9-.4-.4-1.2-1-1.3-2,.2.3.3.5.4.8v-.8c.6.6.8,1.3.8.5-.8.3-1.3-2.6-2.1-2.3v-.5c0,.1,0,.1.1.3,0-1-.8-.4-1.3-1.5-.1-.4-.2-.7,0-.5l-.6-.8c-.1-.3,0-.3.2,0-.2-.4-.5-.8-.8-1.3h0c0,0-.1,0-.2-.1,0,0-.2-.2-.3-.2-.1,0-.2-.2-.3-.2-.1,0-.2-.1-.3-.2-.3-.5.3.1.2,0-.2-.1-.3-.2-.5-.3-.2,0-.4-.1-.6-.2-.2-.2,0-.3.3-.2.2,0,.4.1.5.2.2.1.4.3.5.4,0-.4-.2-.6-.3-.7-.2-.1-.4-.2-.6-.3-.5,0-1.1-.3-2.5-.2.2,0,.4-.1.6-.2.2,0,.4,0,.7,0-.2-.1-.5-.2-.7-.3-.3,0-.5,0-.8,0-.1,0-.3,0-.4,0-.1,0-.3.1-.4.2-.3.1-.6.3-1,.5.1,0,.3-.1.6-.2.3,0,.6-.1.9-.1.6,0,.8.2.2.5-.2,0-.4.1-.6.2-.2.2-.5.3-.6.6-.2-.2-.7.3-1.1,1.2l-.3-.2c-.3,1.1,0,1.1.2,1.7,0,.3,0,.5,0,.7,0,.2,0,.3,0,.5,0,.3,0,.4-.1.6.5,1.2,0-.9.8.3.3.9.7,1.3,1.4,2.2.2.6-.3,0-.3.3l.5.4c0,.1,0,.1-.1.1.3.4.4-.1.8.5.5,0,.1,1.7,1,2.3,0,.3-.3,0-.4.1.8,1,.7.9,1.5,1.6l.2.9c0-.7.7-.1,1.2.4,0,0,0,0,0-.1,0,0,0,.2.1.2,0,0,0,0-.1-.1,0,0,0,.1,0,.2,0,0,.1,0,.2,0,0,.2.2.3.3.5-.1,0-.3,0-.5-.1,0-.2,0-.3,0-.5-.3-.2-.7-.3-.9-.1,0,0,.2.2.3.3,0,0-.2,0-.2,0,0,0,.1.1.3.2l-.3.4h.2s.5,1.5.5,1.5c.9.8,1.9,1.3,2.9,2.7-.5-.2-.5.2-.8.4.1-.6-.8-1.1-1.2-1.9.2.4,0,.4-.1.4l1.1,1.2c-.3.1,0,.4,0,.8.4-.6,1,.8,1.5,1.3-.2.1-.4.1-.8-.6,0,1,1.2.6,1.4,1.5-.1-.2-.1-.3-.3-.3.4.3.9,1.3.6,1.2v-.2c.2.6.8,1.4,1.4,2,.6.6,1.2,1.1,1.4,1,0,0-.6.3-.7.3.7.2,1.3.3,2,.4.2.2.3.4.5.5-.3.4-.6.9-1.2.5.2.3.4.6,1,1-.1-.2,0-.8.3-.7.2.9.2.6.7,1.6-.2-.3.6-.6.9-.2-.1,0-.4.6-.6.5.5.1,1,.2,1.4.3-.3,0-.4.4-.3.8,0,0,.2,0,.5.3.3.2.6.4.8.5l-.4-.4c.6.4,1,.4,1.5.4.4,0,.8,0,1.5.2-.2,0-.8.6-.1,1,.2,0,.7-.3,1.3-.6,0,0,0,0,.1,0,.5.2,1,.3,1.5.5,0,0-.2,0-.3.1-.7.3-1.4.4-2,.4.5.3,0,.3.9.5.2.3-.5.1-.8,0l.9.4c.3.1.6.2,1,.3,0-.2.4-.2.8-.2.4,0,.8,0,.8-.2-.4,0-.7,0-1.1,0h-1.1c0-.5,1.5-.9,2.7-.6.3.2-.4.7-.3.8.2,0,1.3-.1,1.4,0l-.6.2c.4.1.7,0,1,0,.3-.1.7-.2,1.1,0,.3,0,1,.5,1,.2-.3-.3-.5-.9-.5-1.4.3,0,.7,0,1,0v.2s.2,0,.2,0v-.2c0,0,.2,0,.2,0,.3,0,.5,0,.8-.1.2.3-.7.9-.3,1.1,0-.1.3-.3.4-.4.3,0,0,.4.6.2,0-.4,1.4-.3.3-.4.6-.3.7,0,1.5-.3-.2-.1,0-.6.4-.9.3,0,.5-.2.8-.3,0,0,0,0,0,0,1.3-.4,2-.5,3.2-1.1.2,0,.8-.2.6.1.1-.2.2-.4.6-.6.4,0,.2,0,0,.2-.2.1-.4.3,0,.3,0-.2.7-.8,1.1-1.3-.4-.2-1.1.6-1.6,1,0-.2,0-.4,0-.6,1.2-.7,2.3-1.4,3.4-2.3.4-.2.9-.6,1.4-1.1.7-.6,1.5-1.4,2.1-1.8,0-.2.2-.5.2-.6,1.2-1.3,2.3-2.6,3.3-4,0,0,0,0,.1,0,0-.2.2-.4.3-.6,0,0,0,0,0,0,0,0,0,.3.2.2,0,0,0-.2,0-.4.2-.3.4-.6.6-.9,0,0,0,0,0,0,0,0,0,0,0,0,.2-.3.3-.5.5-.8,0,0,0,0,0,0,0,0,0-.1,0-.2,2.9-4.7,5.1-9.8,6.2-14.5.7-2.9-3.7-4.1-4.4-1.2"/>
  <path class="cls-3" d="M110.4,149.7l.2.3c0-.1-.1-.2-.2-.3"/>
  <path class="cls-3" d="M109.4,147.7h-.1c.1,0,.2,0,.1,0"/>
  <path class="cls-3" d="M107.6,159.9c0,.1,0,.3.1.6v-.6Z"/>
  <path class="cls-3" d="M115.9,160.6l.4.2c-.3-.5-.3-.2-.4-.2"/>
  <path class="cls-3" d="M147.3,162.5s0,0,0,0c0,0,0,0,0,0"/>
  <path class="cls-3" d="M137.4,178.5s0,0,0,0c0,0,0,0,0,0"/>
  <path class="cls-3" d="M129.1,174s0,0,0,0c.3,0,.2,0,0,0"/>
  <path class="cls-3" d="M116.3,174.1s0,0,0,0c0,0,0,0,0,0h0Z"/>
  <path class="cls-3" d="M115.5,173.5c.6.1.7.4.9.7.1-.3.2-.5.3-.8-.4,0-.8,0-1.2.1"/>
  <path class="cls-3" d="M107.9,160.5c0,0,0-.1.1-.2,0,0-.1,0-.1.2"/>
  <path class="cls-3" d="M115.9,160.6h0s0,0,0,0h0Z"/>
  <path class="cls-3" d="M133.8,180.6c-.2,0-.3,0-.4,0,0,0,.1.1.4,0"/>
  <polygon class="cls-3" points="150 169.3 150.5 168.8 150.3 168.9 150 169.3"/>
  <path class="cls-3" d="M144.9,174.7l.2.3c0-.1.1-.2.2-.3-.2,0-.3,0-.4,0"/>
  <path class="cls-3" d="M143.5,176.1c0,.1-.8.9,0,.3,0-.1.6-.6,0-.3"/>
  <path class="cls-3" d="M122.7,179.1c-.1-.1-.3-.2-.2-.2-.6-.1-.8-.4-.8.1.8.6.4-.2,1.1.3.1,0,0-.1-.2-.2"/>
  <path class="cls-3" d="M122.6,178.9c0,0,.2,0,.3,0-.2,0-.3,0-.3,0"/>
  <path class="cls-3" d="M102.3,147.2c.2,0,.3-.3.7-.6-.2.1-.5.3-.7.5h0Z"/>
  <polygon class="cls-3" points="111 150.1 110.8 150.5 111.1 150.2 111 150.1"/>
  <path class="cls-3" d="M114.3,156.1c-.1-.3-.3-.5-.4-.8.3.5,0,1,.4.8"/>
  <path class="cls-3" d="M25.1,138.8h0s0,0,0,0"/>
  <path class="cls-3" d="M32.8,138.9c0,0,0,.2.2.3l-.2-.3Z"/>
  <path class="cls-3" d="M20,142.1v.3c.3-.2,0-.2,0-.3"/>
  <path class="cls-3" d="M23.1,158.1s0,0,0,0c0,0,0,0,0,0"/>
  <path class="cls-3" d="M45.5,151.4h0s0,0,0,0"/>
  <path class="cls-3" d="M38.8,143.2s0,0,0,0h0s0,0,0,0Z"/>
  <path class="cls-3" d="M38.4,143c.4-.1.4,0,.5.2l.4-.7c-.3.2-.6.3-.9.5"/>
  <path class="cls-3" d="M33,139.1c0,0,0-.1,0-.2,0,0,0,0,0,.2"/>
  <path class="cls-3" d="M19.9,142h0s0,0,0,0h0Z"/>
  <path class="cls-3" d="M43.7,150.2c0-.1,0-.2,0-.2,0,0-.1,0,0,.2"/>
  <polygon class="cls-3" points="43.3 157.5 43.5 157.4 43.2 157.5 43.3 157.5"/>
  <path class="cls-3" d="M45.7,155c.1,0,.2,0,.3,0l-.4-.2c0,0,0,.1,0,.2"/>
  <path class="cls-3" d="M45.9,154.3c-.1,0-.4-.4-.3,0,.1,0,.3.3.3,0"/>
  <path class="cls-3" d="M41.1,145.8c-.3-.1-.3-.3-.6,0,.1.4.4-.2.4.3.2,0,0-.3.1-.3"/>
  <path class="cls-3" d="M41.1,145.8s0,0,.2,0c0,0-.1,0-.2,0"/>
  <path class="cls-3" d="M27.1,139l.2.2h0c0-.2-.1-.2-.2-.2"/>
  <polygon class="cls-3" points="24 139.6 24 139.5 23.8 139.2 24 139.6"/>
  <path class="cls-3" d="M21.8,141.2c0,0,.2-.2.3-.2-.2.2-.5-.1-.3.2"/>
  <path class="cls-3" d="M47.7,165.5c0,.4,0,.9,0,1.5,0-.3,0-.9,0-1.5M46.3,155.1c-.2,0-.4.3-.7.5-.4.3-.8.6-1.1.7,0,.1,0,.3,0,.4-.7.5-1.4,1-2.1,1.5,0,0,0,0,0-.1,0,.1-.1.2-.2.3,0,0,0,0,0,0,0,0,0-.2-.1-.2,0,0,0,.2,0,.3-.2,0-.3.2-.5.3,0,0,0,0,0,0,0,0,0,0,0,0-.1,0-.3.2-.4.2,0,0,0,0,0,0,0,0,0,0,0,0-2,1.1-4.2,1.9-6.4,2.3-1.4.3-2.9.4-4.3.3-.3,0-.5,0-.8,0-.1-.3-.2-.5-.2-.8-.2.3-.4,0-.7-.2-.2-.2-.5-.4-.8,0-.1-.1.1-.2.1-.3-.2.2-.4.2-.7,0h0c-.5-.1-.8-.3-1.1-.4-.1,0-.3-.2-.5-.3-.2-.1-.3-.2-.6-.4v.3c-.2-.1-.2-.2-.3-.3-.4.3.6.3.2.6,0-.6-1.4-.7-1.3-1.4-.3-.2,0,.3-.4.2v-.2s-.2.2-.2.2c-.2-.1-.1-.4,0-.5,0,0,.2,0,.2,0,0-.2-.2-.2-.4-.3-.2,0-.3-.1-.3-.2l.2.3c-.8-.4-1.6-1.2-2.4-1.6h0c-.7-.2-.3-.4-.8-.9h0c-.2,0-.4-.1-.5-.3.2,0,0-.5.3-.4-.6-.4-.4-.2-1.1-.3v-.2c-.1,0-.2,0-.5-.3.3.2.2-.4.6-.2,0-.5-.2-.6-.4-.8-.2-.2-.3-.3,0-.6-.7-.1,0,.8-.3.6-.1.2-.6,0-.6-.4,0-.2.6-.7.4-1.3,0,0,0,0,0,.1,0-.3-.4-.4-.1-.7-.4,0,0-.4-.5-.3l.2.5c-.2-.3-.8-.5-.6-1.1,0,0,.2.2.3.3.1-.2-.1-.3,0-.5.5,0,.2.7.7.9.2-.2-.5-.6,0-.5-.7-.1,0-.6-.6-.9h.3c0,0-.2-.2-.2-.3l.4.2c-.4-.3.3-.6,0-.9,0,.6-.4.1-.6.4-.2-.4,0-.5.2-.7.2-.1.4-.2.5-.6,0,.1-.2.3-.3.2,0-.2.2-.4.4-.4,0-.6-.3,0-.5-.2.4-.1-.1-.3-.1-.6h.3c.4-.5-.6-.3-.2-.8,0,.1.2.3.3.4,0-.1,0-.2,0-.3l.3.2c-.1-.4,0-.5.2-.8-.2,0-.5-.3-.4-.5.3-.1.2.2.4-.2.1.2.3.4,0,.4,0,0,.1.2.2.2.3-.1.3-.5.4-.6,0,0,0,.1-.1.1,0-.2,0-.5,0-.7.2,0,.2,0,.2.2,0-.1,0-.3,0-.4.2.2.4.3.4.6v-.6c.2,0,.5,0,.5,0,.3-.1.1-.9.5-1.1,0,0,0-.1,0-.2.2-.1.4-.2.5-.3.2-.1.3-.2.4-.5l.5.2c.2-.3-.6-.2-.2-.7.3-.4.4.2.5.2,0-.3.1-.9.7-.8,0,.1-.2.1-.3.2h.4c-.1.6-.4.6,0,.7-.2-.4,0-.5.3-.7.2-.2.5-.3.4-.7h.3c0,0,0,.1-.1.2.5.2,0-.7.6-.8.2,0,.4,0,.3.2l.3-.3c.1,0,.1.1,0,.1.2,0,.4-.2.6-.2h0c0-.1.2-.4.3-.5.2,0,0,.1,0,.2l.3-.3c.2.2,0,.4-.3.5.5.8.2-.3,1,.1-.1,0-.2,0-.3.1.3.4.5.3.9.5,0-.1-.8-.7-.4-.9.1,0,.3,0,.4-.1,0,.3.2.2.5.2v.4c.3-.1.2-.3.4-.5.3,0,.4.3.4.6.5,0-.3-.5.2-.6.4.2.7,0,1.2-.1.3.2,0,.2,0,.4,0-.1.2-.2.3-.3,0,0,0,.1,0,.2.2,0,0-.4.4-.4.2-.4.6.7,1.1.4,0,.1-.1.2-.1.4.6-.1.5-.1,1.1-.4l.3.4c-.2-.4.3-.6.7-.7,0,0,0,0,0,0,0,0,0,0,.1,0,0,0,0,0-.1,0,0,0,0,0,0,0,0,0,0,0,.1-.1,0,0,0,0,.1,0,0,0,0,0,.1,0,0,0,0,.1-.1.2,0,0-.1,0-.2.1,0,0,0-.2,0-.3-.2.2-.4.4-.5.6,0,0,.1,0,.2,0,0,0,0,0,0,.1,0,0,0,0,.2,0v.4c0,0,0-.2,0-.2.1.1.2.2.3.3,0,0,.1.1.2.2.6-.2,1.3-.5,2.2-.3-.3.2-.3.4-.5.7,0-.5-.6-.2-.9-.4.2.1,0,.3,0,.3h.8c-.2.3,0,.3.1.5.2-.6.7,0,1,0-.1.2-.3.3-.6,0,0,.6.8-.3,1,.3,0,0,0-.1-.2,0,.3,0,.6.4.4.5h0c.2.2.6.4.9.6.3.2.7.3.9.2,0,0-.5.4-.6.5.5-.1.9-.3,1.4-.4,0,0,.2.2.2.2-.3.4-.7.8-1,.7,0,.1.1.3.4.4,0-.1.3-.6.4-.6-.1.6,0,.4,0,1,0-.2.6-.5.7-.3-.1,0-.5.5-.6.5h.9c-.2,0-.5.3-.5.6,0-.1.3.4.4.5v-.3c.3.6,1.2,0,1.5.5-.2,0-.8.4-.7.7.2,0,.7-.2,1.2-.2.1.2.3.4.4.6-.6,0-1.2,0-1.5-.1,0,.3-.2.2,0,.5,0,.2-.4,0-.4,0,.1.2.2.5.4.8.3-.3.7.3,1,.1l-.8-.6c.3-.3,1.3-.2,1.5.4,0,.2-.7.3-.8.4.2,0,.5.4.5.5h-.3c0,.2.7.1.6.6,0,.1-.3.6,0,.5.2-.2.7-.6,1.2-.8,0,.1.1.3.2.4h-.1s0,.1,0,.1h.1c0,0,.1.2.2.4-.3.2-.9,0-1,.3.1,0,.3,0,.4,0,0,.2-.3,0-.2.4.4-.1.2.6.4,0,.2.2,0,.3.2.7.1-.1.5-.1.8,0,0,.1.1.3.2.4,0,0,0,0,0,0,.2.6.2,1,.4,1.6,0,0,0,.4-.3.3,0,0,.2,0,.3.2-.3.3-.2-.3-.5,0,.2,0,.4.3.7.5.4,0,0-.5-.3-.7.2,0,.4,0,.6,0,.2.5.3.9.4,1.4-.1.1-.3.2-.4.4M17.8,163.8c.7,0,.9.4,1.6.9-.5-.2-1.4-.6-1.6-.9M26.5,138.5c0,0-.2.3-.3.1,0-.3.2-.2.3-.1M33.7,138.8s0,0,0,0c0,0,.2,0,.2.2,0,0-.2,0-.2-.1,0,0,0,0,0,0M47.4,192l-.7,1c1.6-2.7.6-3.2,1.9-5.9,0,.4.4,1.2,1.1-.2,0-.4,0-1.3-.1-2.4,0,0,0-.1,0-.2.4-1.1.7-2.2,1.1-3.2,0,1.5,0,3.3-.2,4.4.5-1,.3-.2.9-1.9.4-.5,0,1-.2,1.5.2-.6.5-1.3.7-1.9l.7-2c-.4,0,.4-3.2,0-3.1l-.3,2.2c-.1.7-.3,1.5-.4,2.2-.2,0-.3-.7-.2-1.7,0-.5,0-1.1.2-1.8,0-.7.2-1.3.4-2,.3-.7.6.7.8.7,0-.4.3-2.7.4-3,0,.4,0,.8,0,1.2.2-.8.2-1.5.2-2.2,0-.4,0-.7,0-1.1,0-.4,0-.8.2-1.3,0-.7.7-2,.5-2.1-.3.6-1,.9-1.5.9,0-.7,0-1.5.1-2.2h.1c0,0,0-.3,0-.3h-.2c0-.8,0-1.5,0-2.3.3-.2.8,1.7,1.1.9-.1,0-.3-.6-.3-.9,0-.7.4.3.3-1.2-.4-.2-.2-3.1-.4-.7-.2-1.5,0-1.6-.3-3.3,0,.3-.4,0-.7-.7,0-.2-.2-.4-.3-.6-.1-.6-.2-1.2-.3-1.9,0,0,0,0,0,0,0,0,0-.2,0-.3,0,0,0,0,0-.1h0c.1-.2.2-.4.3-.5.2-.2.4-.5.6-.7.4-.4.8-.9,1.1-1.3.4-.4.7-.9,1.1-1.4.4-.5.7-1,1.1-1.6.2-.2,1-1.3.9-.7.2-.4.2-.8.6-1.5,1.1-1.3-.9,1.7.1.8,0-.1.1-.6.4-1.3.3-.7.6-1.4.8-2-.3,0-.6.7-.9,1.5-.3.7-.7,1.6-.9,2.2-.2,0-.2-.4-.1-.9,1.5-2.6,2.7-5.3,3.8-8.1.4-.8.9-2.1,1.4-3.7.6-2,1.2-4.3,1.7-5.9,0-.4,0-1.1,0-1.2.2-1.3.5-2.5.6-3.7,0-.5.1-.9.2-1.4l.2-1.3v.4c-.1,0-.1,0-.1,0,.2-1.8.3-3.6.4-5.5,0,0,0,0,.1,0,0-.5,0-.9,0-1.4,0,0,0-.2,0-.3,0,0,.2.5.2,0,0,0-.1-.2-.2-.5,0-.8,0-1.7,0-2.5,0,0,0,0,0-.1,0,0,0,0,0,0,0-.7,0-1.5,0-2.2,0,0,0,0,0,0,0,0,0,0,0-.1-.4-10.8-2.8-21.6-5.8-32.1-1.7-5.8-3.5-11.6-5.4-17.4-.4-1.4-1.7-1.8-2.8-1.5-.3,0-.6,0-.9,0-.4,0-.6.1-.7,0-.3.5-.7,1-.8,1.7,0,.2,0,.4,0,.6,0,.2,0,.4,0,.6,0,.4.1.6.2.9.2,1.2.5,2.6,1.3,3.8,0,.6-.3-.4-.4,0,.5.6.8,1.4,1.1,2.9v-.2c1.3,4.2,1.6,6.1,2.8,10.9l.2-.4c.2,1,.2,1.3.3,1.8.8,1.1-.8-2.9,0-1.9,0,.7.3,2.1.7,3.6,0,.2.1.5.2.7.5,1.8.8,3.5.6,4,.4,1.6.2-.5.6,1v.5c0,0,.2.3.2.3.2,1.1,0,1.6,0,1.7,0-.3-.2-.7-.3-1,0,1.3.8,3.5.9,4.1,0-.5-.1-.9-.2-1.4.5,2.2.9,4.6,1.3,7,.3,2.4.6,4.8,1,6.9v-.3c.6,3.3.2,2.6.3,6.2h0c.1.6.2,1.5.2,2.5-.1-.9-.4,1.7-.5.5,0,1.8,0,2.2.2,2.5,0,.3.2.4.3,1.6l-.3.5c.1.8.3.9,0,2.7,0-1.5-.5,1.1-.5-.6-.9,3.6-.4,5.6-1.4,7.1.3,1.8,1-3.1.9-2.1.4-.8.2,1.5-.1,2.6-.3,1.2-1.2,1.8-2.1,4.7,0-.3,0-.3.1-.6-.2.5-.4,1-.5,1.6-.2.6-.3,1.2-.7,1.7,0,.9-.7,1.6-.3,2,.3-.9.7-1.7.9-2.6-.4,1.5-.5,3.1-1.9,5.3,0-.2.2-1,.4-1.5-.5.6-.5,1.4-1,2,0-.1,0-.3.1-.7.1-.3.3-.8.5-1.2.2-.5.5-1,.6-1.4.2-.5.3-1,.4-1.4-.2.3-.5,1.1-.6,1.6-.2.5-.4.9-.4.4,0,.7-.3,1.3-.7,2.1-.4.7-.9,1.5-1.2,2.5l-.2-.3c0,0,0,.2-.1.3,0,.1-.1.2-.1.3,0,.1,0,.3-.2.4,0-.3,0-.5,0-.7,0,.3-.3.6-.4.7,0,0-.2,0-.2.1,0,0,0,0,0,0,0,0,0,0,0,0,0,0,0,0,0,0,0,.2.1,0,.1,0,0,0,0,0,0,0,0,0,0,0,0,.2,0,.2,0,.6.2.4-.1.3-.3.5-.4.7,0,0-.1.2-.2.2,0,0,0-.2,0-.3,0-.3-.1-.7-.1-1,0-.3,0-.6,0-.8,0-.1,0-.2,0-.3,0,0,0,0-.1-.3,0-.1-.2-.3-.3-.5,0,0,.1.2.2.3,0,.1,0,.2.1.3h0c0,.1,0,0,0,0h0c0,.2,0,.3-.2.2,0,0,0,0,0-.1,0-.1,0-.2-.1-.3,0-.2-.2-.5-.3-.7-.2-.5-.4-.9-.4-1.2-1.8-2.7,0,.6-.9-.5-.1-.6-.4-.9-.7-1.2-.3-.3-.7-.6-1.2-1.1l.2-.2c-1.1-1.5-1.4-1.6-1.6-1.6-.3,0-.4,0-1.5-1.3.4.2.9.4,1.3.7-.4-.4-.9-.8-1.3-1.2h.5c-1.5-1.1-1.9-1.5-3.4-2.7.1.2,0,.3-.3.2-.3,0-.8-.3-1.5-.7-.4-.4-.3-.3-.2-.4,0,0,0-.1-1.1-.6.5,0,1.2.1,1.9.9.1,0,.5.1.7,0-.9-.8-2.7-1.6-3.5-1.9.3.1.7.3.8.4-.5-.2-1.1-.3-1.7-.5-.3,0-.7-.2-1-.2-.2,0-.4,0-.6-.1-.5-.3,0-.2.4-.2-.3-.1-.6-.1-1-.2-.3,0-.7,0-1.2-.2.3-.2.3-.4,1.8-.2l-1.6-.3c-.6,0-1.1-.1-1.7-.1-.2-.1-1.7-.4-1.2-.5-.5,0-1,0-1.5,0-.6,0-1.1.1-1.7.2-.6.1-1.2.2-1.8.4-.6.1-1.2.3-1.8.4-.1,0-.3.2-.8.4-.5.2-1.1.3-1.6.5l-.8.3c-.3.1-.5.2-.8.4-1,.5-2,1.2-3,2.2-.5.2-1,.5-1.5.8-.7.8-.2.5,0,.4.4-.2.5-.2-.6,1.2-.7,1-.9,1.2-1,1.1-.1,0-.2-.3-.4,0-.1.3-.3.7-.4,1.1-.1.4-.3.9-.5,1.3-.1.5-.3,1-.5,1.5-.2.5-.4,1.1-.6,1.6,0-.4.1-.7.2-1,.1-.3.2-.6.3-1-.3.5-.5,1.1-.7,1.6,0-.6.1-1.1.2-1.5,0-.4.2-.8.3-1,.1-.5,0-.5-.4.3.3.3-.3,2-.5,3.7,0,.4-.1.9-.1,1.3,0,.4,0,.8,0,1.1,0,.7.2,1.1.4,1.2,0,.4,0,.8,0,1.2,0-.3,0-.4-.1-.7,0,.6,0,1,0,1.3,0,.3.2.5.4.7.3.5.6,1,1,2.3.2,1,.4,1.6,0,1l.5,1c.2.3.4.6.6.9.2.4.1.5,0,.3.5.9,1,1.7,1.6,2.5h0c.4.3,1.2,1,1.7,1.3.5.7-.4-.3-.3,0l.7.6c.2.2.5.4.7.6.4.7-.9-.2-1.7-1.2.3.9.6,1.2,1.2,1.6.6.4,1.3.9,2.8,2.1l-.8-.4c-.3-.2-.5-.3-.8-.5.2.3.4.5.6.8.2.2.5.4.8.7.3.2.7.4,1,.7.4.2.8.5,1.2.8,0,0-.4-.3-.7-.5s-.6-.5-.9-.8c-.5-.5-.7-.9.2-.5.5.3,1.1.7,2.2,1-.1.3.9.6,2.2,1l-.2.4c1.4.3,1.4,0,2.2,0,.8.2,1.2.3,1.6.5.3.2.5.3.7.5,2.6.3-1.7-.6,1.3-.5,2.1.2,3.6,0,6-.6,0,0,0,0,.1,0,1.5-.2-.2.3.3.3l1.2-.6c.3,0,.2,0,.2.1,1-.4,0-.4,1.6-1,.2-.3,1-.4,2.1-.6,1.1-.3,2.3-.7,3.1-1.4.5-.2-.1.3.1.4.3-.2.6-.4.8-.6.1,0,.2-.2.3-.2,0,0,0,0,0,0h0c.2-.2.3-.3.4-.4.2-.3.4-.5,1.2-1.3h.2c0,0,0-.1,0-.1v.2s0,.3,0,.3v.6c0-.6.2-.9.4-.7,0,0,.2.3.3.5.1.3.2.6.3,1,0,0,0-.2,0-.3,0,.2,0,.4,0,.6,0-.1,0-.2,0-.3,0,.1,0,.2,0,.3,0,.1.1.2.2.3,0,.4,0,.8,0,1.3-.1,0-.3-.3-.4-.7,0-.3.1-.6.2-.9-.3-.5-.6-.8-.8-.5,0,0,.1.3.1.5,0,0-.1-.1-.2,0,0,0,0,.2.2.5-.1.2-.3.3-.4.4h.2c0,1.2-.1,2.3-.3,3.4.3,2.3.8,4.5.2,8.3-.1-1-.5-.3-.8-.4.3-.5.4-1.2.5-2,0-.8,0-1.8.2-2.8-.2,1-.3.7-.3.5v1.7c0,.6-.2,1.1-.2,1.7-.3-.1-.4.7-.7,1.5.4-.3.3.4.2,1.3-.2.9-.5,2-.7,2.7-.2,0-.3-.4.2-2-1,1.7,0,2.6-1,4.2.2-.4.3-.6.2-.8-.2,1-1.2,3.2-1.2,2.6,0-.1.1-.3.2-.4-.3.6-.6,1.4-1,2.3-.2.4-.4.9-.6,1.3-.2.4-.4.8-.6,1.2-.8,1.6-1.5,3-1.4,3.3,0,0-.3-.7-.3-.9-.2.9-.4,1.7-.7,2.6,0,.3-.2.7-.2,1-.3.5-.3,1.1,0,1.5-.1.1-.2.2-.3.3-.1.1-.3.2-.5,0-.1,0-.3-.3-.4-.5-.1-.3-.2-.7,0-1.2,0,.3-.1.6-.1.9,0,.3,0,.7.3,1.1.3.7,1,1.4,2,1.7-.1,0-.3-.2-.4-.3-.1-.1-.2-.3-.2-.4,0-.2,0-.4.3-.2.4.4.7.6,1,.7.3.1.5.2.7.2.2,0,.5,0,.9,0,0,0,.2,0,.3,0,.1,0,.2,0,.4-.1.3,0,.6-.2.9-.4-.5.3-.5,0-.4-.3,0-.2.1-.4.3-.6.1-.2.2-.5.4-.7,0,.2.6.3.4.7.3-.9.7-1.8,1-2.7-.2.5.1.5.5.3.1,0,.3-.2.4-.3-.3.2,1.3-2,1.5-2.7"/>
  <path class="cls-3" d="M47.1,162.7c0,.3,0,.5,0,.9,0-.3,0-.6,0-.9"/>
  <path class="cls-3" d="M22.5,131.5l.8-.5c-1.3.4-.7.3-.8.5"/>
  <path class="cls-3" d="M56.4,91.8c0,0,0-.2,0-.2,0,0,0,0,0,.2"/>
  <path class="cls-3" d="M51.9,156.7s0,0,0,0c0-.2,0-.1,0,0"/>
  <path class="cls-3" d="M54.4,142.4s0,0,0-.1c.2-.6,0-.4,0,.1"/>
  <path class="cls-3" d="M37.3,195s0,0,0,.1c0,0,0-.1,0-.1h0Z"/>
  <path class="cls-3" d="M38.5,192.6c-.1.5-.3.8-.5,1.1-.1.2-.2.4-.3.5,0,.1-.1.2-.2.3,0,.1-.1.3-.2.4.3-.3.8-.5,1.1-.6v-1.8Z"/>
  <path class="cls-1" d="M57.3,96.1s0,0,0-.1h0ZM49.6,145.2c0,0,0,.2.1.3v-.3Z"/>
  <path class="cls-3" d="M47.2,163.5c0-.1,0-.2.1-.2,0,0-.1,0-.1.2"/>
  <path class="cls-3" d="M22.3,131.6h0s0,0,0,0h-.1Z"/>
  <path class="cls-3" d="M54,165.2c0,.5,0,.7-.1.9,0,0,.1-.2.1-.9"/>
  <path class="cls-3" d="M61.1,141l.3.2v-.8c0,.4-.2.4-.3.6"/>
  <path class="cls-3" d="M59.8,145c0,.2-.8,2.4.1.4,0-.2.6-1.8-.1-.4"/>
  <path class="cls-3" d="M49.3,188.4c-.2.3-.4.7-.3.4-.4,1.2-.8,1.7-.1,1.4,1-1.8-.1-.6.8-2.2,0-.3-.1,0-.3.4"/>
  <path class="cls-3" d="M49,188.8c0-.2.1-.4.2-.6-.1.3-.2.5-.2.6"/>
  <path class="cls-3" d="M22.7,167h.1c-.2-.2-.5-.3-1.1-.6.3.2.6.4,1,.6"/>
  <path class="cls-3" d="M228.9,71.6h0s0,0,0,0"/>
  <path class="cls-3" d="M230.2,67.4h-.3c0,0,.1,0,.3,0"/>
  <path class="cls-3" d="M219.9,66s0,0,0,0c0,0,0,0,0,0"/>
  <path class="cls-3" d="M211.4,81.1h0s0,0,0,0"/>
  <path class="cls-3" d="M227.1,62.8s0,0,0,0c-.1,0,0,0,0,0"/>
  <path class="cls-3" d="M219.2,78.3s0,0,0,0h0s0,0,0,0Z"/>
  <path class="cls-3" d="M219.5,78c0,.4-.1.4-.3.3l.4.7v-1Z"/>
  <path class="cls-3" d="M224.4,76s0,0,.1.1c0,0,0-.1-.1-.1"/>
  <path class="cls-3" d="M230.2,67.4s0,0,0,0c0,0,0,0,0,0h0Z"/>
  <path class="cls-3" d="M212.8,79.8c0,0,.1,0,.2.1,0,0,0-.1-.2-.1"/>
  <path class="cls-3" d="M208.7,80.9l.5-.4-.3.2c0,0-.1.1-.2.2"/>
  <path class="cls-3" d="M210,80.3c-.1.1-.4.2-.3.3.1-.1.6-.3.3-.3"/>
  <path class="cls-3" d="M216.6,79.1c.2-.2.3-.1,0-.5-.4,0,0,.4-.3.3,0,.2.3,0,.2.2"/>
  <path class="cls-3" d="M216.6,79.1s0,0,0,.1c0,0,0,0,0-.1"/>
  <path class="cls-3" d="M227.6,72.4h-.3s0,0,0,0c0,0,.1,0,.2,0"/>
  <polygon class="cls-3" points="229.1 70.5 229.1 70.6 229.5 70.7 229.1 70.5"/>
  <path class="cls-3" d="M229.5,68.6c0,0,0,.2,0,.2,0-.2.4-.1,0-.2"/>
  <path class="cls-3" d="M190.4,28.9v-.2c0,0,0,.2,0,.2"/>
  <path class="cls-3" d="M189.6,30.1h0s0,0,0,0"/>
  <path class="cls-3" d="M182.6,39.7c-.1,0-.2,0-.4.2l.4-.2Z"/>
  <path class="cls-3" d="M193.7,21.5l-.2-.3c-.1.3,0,.2.2.3"/>
  <path class="cls-3" d="M164.9,49.2h0c0,0,0,0,0,0"/>
  <path class="cls-3" d="M174.2,47s0,0,0,0c0,0,0,0,0,0h0Z"/>
  <path class="cls-3" d="M174.6,46.4c0,.5-.2.5-.4.6l.7.5-.2-1.1Z"/>
  <path class="cls-3" d="M182.3,39.9c0,0,.1,0,.2,0,0,0,0-.1-.2,0"/>
  <path class="cls-3" d="M193.7,21.6h0s0,0,0,0h0Z"/>
  <path class="cls-3" d="M166.6,51.2c0,0,0-.1,0-.2,0,0,0,.2,0,.2"/>
  <path class="cls-3" d="M164.2,43.5h.4s-.2-.3-.2-.3c0,.1-.1.2-.2.3"/>
  <path class="cls-3" d="M164.7,44.7c.1,0,.4.7.3,0-.1,0-.3-.5-.3,0"/>
  <path class="cls-3" d="M170.2,50c.2-.3.4-.4,0-.6-.6.2.1.4-.5.6,0,.2.5-.1.4,0"/>
  <path class="cls-3" d="M170.2,50c0,0,0,.1-.1.2,0,0,0-.1.1-.2"/>
  <path class="cls-3" d="M187.5,32.4h-.4c0,.1,0,.2,0,.2.1,0,.2,0,.3-.2"/>
  <polygon class="cls-3" points="190.4 28.3 190.3 28.3 190.7 28.4 190.4 28.3"/>
  <path class="cls-3" d="M192,24.2c0,.2-.1.4-.2.5.1-.4.6-.4.2-.5"/>
  <path class="cls-3" d="M149.2,61.2c-.5.1-1.2.3-2.2.6.7-.2,1.5-.4,2.2-.6"/>
  <path class="cls-3" d="M193.7,37.8l-.7,1.3c1.4-1.8.7-1.1.7-1.3"/>
  <path class="cls-3" d="M208.2,96c0,.1,0,.3,0,.4,0,0,0-.1,0-.4"/>
  <path class="cls-3" d="M128,72.4s0,0,0,0c.3,0,.3,0,0,0"/>
  <path class="cls-3" d="M204.5,75.2c0,0,0-.1.1-.2.4-1.1.2-.6-.1.2"/>
  <path class="cls-3" d="M87.3,61.1s0,0-.1,0c0,0,.1,0,.1,0h0Z"/>
  <path class="cls-3" d="M91,62.6c-.9-.2-1.5-.4-2.1-.6-.3-.1-.6-.2-.8-.4-.3-.1-.5-.3-.8-.4.3.4.6.9.9,1.3,1,0,1.9.1,2.8.1"/>
  <path class="cls-1" d="M181,51.3c-.2.1-.3.3-.4.4l.4-.4ZM185.3,72.7c0,0-.1,0-.2-.1h.2Z"/>
  <path class="cls-3" d="M208.1,88.5s0,0,0,0c0,0,0,0,0,0h0c0,0,0-.1,0-.1Z"/>
  <path class="cls-3" d="M146.9,62c.2,0,.3,0,.4,0,.3-.2.3-.2-.4,0"/>
  <path class="cls-3" d="M193.9,37.5h0c0,.2,0,.2,0,.2v-.2Z"/>
  <path class="cls-3" d="M112.5,74.3c-.8,0-1.3-.2-1.5-.2,0,0,.3.2,1.5.2"/>
  <path class="cls-3" d="M180.5,77.2c.7.6,1.5,1,2.3,1.5l-.7-.5c-.6-.3-1.1-.7-1.6-1.1"/>
  <path class="cls-3" d="M160.9,62.8c-.8.3-.8.3-1.3.4v.4c0,0,1.3-.8,1.3-.8Z"/>
  <path class="cls-3" d="M152.4,67c.3-.2,3-1.4.4-.5-.2.2-4,1.9-.4.5"/>
  <path class="cls-3" d="M72.3,60.1c-1.9-1.2-2.6-2.1-2.1-1.1,1.4,1.2,1.6,1.3,1.8,1.3.2,0,.3,0,1.6,1.1.8.4-2.1-1.8-1.3-1.3"/>
  <path class="cls-3" d="M72.3,60.1c.3.2.6.4.9.6-.5-.4-.8-.5-.9-.6"/>
  <path class="cls-3" d="M161.5,20.9c.2-.3.3-.7.6-1.2-.4.5-.7,1.1-1,1.6v.2c.1-.1.3-.4.4-.6"/>
  <path class="cls-3" d="M203,20.3c.1-.6.2-1.2.3-1.8,0-.3,0-.6,0-1,0-.3,0-.6,0-1,0,2.7-.9,4-.4,3.7"/>
  <path class="cls-3" d="M81.4,65.4c0,0,0,.1,0,.2,0,0,0,0-.1-.1,0,0,0,0,0-.1-.2,0-.3-.1-.5-.2-.5-.2-1.1-.4-1.6-.6-.5-.2-.9-.4-1.4-.6,1.7,1.2.4.5,3.1,2.1.9.7-1.6-.6-2.5-1,1,.6,2.1,1.2,3.2,1.9.1,0,.3.1.4.2.1-.3.3-.5.4-.8,0-.1.2-.3.2-.4,0,0-.2,0-.2,0-.3-.1-.7-.2-1-.4"/>
  <path class="cls-3" d="M90.2,69.8c-.2,0-.3-.1-.5-.2,0,0,0,.1,0,.2.3,0,.5,0,.5,0"/>
  <path class="cls-3" d="M143.1,69.8s0,0-.1,0c0,0,.1,0,.2,0,0,0,0,0,0,0"/>
  <path class="cls-3" d="M149.8,67.3c0,0,0,.1,0,.2.3-.1.5-.2.8-.3-.1,0-.4,0-.7.1"/>
  <path class="cls-3" d="M117.7,74s0,0,0,0c0,0,0,0,0,0"/>
  <path class="cls-3" d="M144.7,69.7c-.1,0-.2,0-.4-.1-.2.1-.2.2.4.1"/>
  <path class="cls-3" d="M209.4,77.5s0,0,0,0c0,0,.1.1.2,0,0,0-.1-.1-.2-.2,0-.1.1-.3.2-.4,0,0,0,0,0,0,0,0,0,0,0,0,0-.1,0-.2.1-.3,0,0,0,0,0,0,0,0,0,0,0,0,1.2-2.6,2.7-5.1,4.6-7.4.1-.2.3-.3.4-.5.3,0,.5.2.7.3-.2-.6,1.1,0,.8-.9.2,0,0,.2.2.2-.1-.3,0-.4.2-.5h0c.5-.5.9-.6,1.6-1l-.2-.2c.2,0,.2,0,.4,0-.1-.5-.4.3-.6-.2.6.3.9-.8,1.5-.4.2-.2-.3-.2,0-.4h.2c0,0,0-.1,0-.1.2,0,.4,0,.5.2,0,0,0,.1,0,.1.3,0,.5-.4.6-.4h-.3c.5-.5,1.3-.8,1.8-1.4h-.1c.4-.6.4-.2.9-.5h0c0-.1.2-.3.3-.3,0,.2.4.2.2.4.4-.4.2-.3.4-.9v.2c.2-.2.2-.3.5-.5-.2.2.2.3,0,.6.3.2.5,0,.7,0,.2-.1.3-.2.5.2.2-.7-.5-.3-.4-.5-.2-.2.2-.5.4-.4.2,0,.4.8.8.8,0,0,0,0,0,0,.2.2.3-.2.5,0,.2-.4.3,0,.4-.4-.1,0-.3,0-.4,0,.2-.1.6-.7.9-.3,0,0-.2.2-.3.3,0,.2.2,0,.3.1-.1.5-.5,0-.8.4,0,.2.5-.3.3.2.1-.3.2-.3.4-.2.1,0,.2.2.4,0v.3s0-.1.2-.1l-.3.3c.3-.3.3.4.6.3-.4-.1,0-.4,0-.6.3,0,.4.1.3.4,0,.2,0,.5.2.6,0,0-.2-.3,0-.4,0,0,.1.3,0,.4.3.1.1-.3.4-.3,0,.4.2,0,.5,0l-.2.2c.2.4.5-.4.6.1-.1,0-.3,0-.4.1h.2c0,0-.3.3-.3.3.3,0,.3.1.3.3.2-.1.5-.3.6,0-.1.2-.3,0-.1.3-.2,0-.4,0-.2-.2,0,0-.2,0-.3,0-.1.2,0,.3.1.4,0,0,0,0,0-.1.2,0,.4.1.5.2,0,0-.2,0-.3,0,0,0,.2,0,.2.2-.2,0-.5,0-.6,0l.3.3c0,0-.3.3-.4.2,0,.1,0,.2.2.4.1.1.2.3.1.4,0,0,0,0,.1.1,0,.1-.1.3-.2.4,0,.1,0,.3,0,.5-.1,0-.3,0-.5.1,0,.3.6-.2.7.3,0,.4-.4,0-.5.1.2.2.5.6,0,.8,0-.1,0-.2,0-.3h-.3c-.3-.3-.1-.4-.5-.3.4.1.3.3.3.6,0,.2-.1.4.2.6h-.2s0,0,0,0c-.5,0,.4.5.1.8-.1,0-.3.1-.3,0v.4c0,0-.2,0-.1,0,0,.1-.1.3-.2.4h0c0,.1.1.4.2.5-.2,0,0-.1-.1-.1v.3c-.3,0-.3-.4-.1-.5-.8-.3,0,.3-.7.4,0,0,0-.2,0-.3-.5-.2-.5,0-.9,0,.1,0,.9,0,.9.4-.1,0-.2,0-.2.3-.2-.2-.3,0-.4.1l-.3-.3c0,.2,0,.4.1.6-.2.1-.4,0-.7-.2-.3.2.5.2.2.5-.3,0-.4.4-.6.8-.3,0-.1-.2-.3-.2v.4s0,0,0-.1c0,.2.2.3,0,.6.2.4-.8-.2-.8.4-.1,0-.1-.2-.2-.3-.2.5-.2.4-.3,1h-.4c.4,0,.3.5.2.9,0,0,0,0,0,0,0,0,0,0,0,0,0,0,0,0,0,0,0,0,0,0,0,0,0,0,0,.1,0,.2,0,0-.1,0-.2.1,0-.1,0-.2,0-.4,0,0,.2,0,.3.1,0-.3,0-.5-.2-.7,0,0,0,.1,0,.2,0,0,0-.1,0-.2,0,0,0,0,0,.2l-.3-.3v.2c0,0-.5,0-.5,0-.1.6-.1,1.3-.6,1.8,0-.4-.2-.5-.4-.8.3.3.4-.4.7-.5-.2,0-.2-.1-.2-.2-.1.2-.2.4-.3.6-.1-.3-.2-.2-.4-.2.4.5-.2.6-.3.8-.1-.2-.1-.4.1-.5-.5-.3,0,.8-.5.6,0,0,.1,0,0-.1,0,.2-.5.3-.5,0h0c-.5,0-1.3.5-1.2,1,0,0-.2-.6-.2-.7,0,.4,0,.9-.1,1.3,0,0-.2,0-.2,0-.2-.4-.4-1-.2-1.2-.1,0-.3,0-.4.2,0,0,.4.6.3.6-.4-.4-.3-.2-.7-.5.1,0,.2.8,0,.8,0-.1-.2-.7-.2-.8l-.2.8c0-.2-.1-.6-.3-.7,0,.1-.4,0-.5.2h.2c-.5.1-.2,1.2-.8,1.3,0-.2,0-.9-.3-.9,0,.2,0,.7-.2,1.2-.2,0-.4,0-.6.1.2-.5.3-1,.5-1.3-.2-.1-.1-.2-.4-.1-.1-.2,0-.3.2-.3h-.7c.1.4-.4.5-.3.9l.6-.6c.1.4-.2,1.2-.7,1.2-.1-.1,0-.7,0-.9,0,.2-.4.3-.5.3l.2-.3c-.3-.1-.3.6-.7.3-.1,0-.4-.5-.4-.2.1.3.3.9.4,1.4-.1,0-.3,0-.4,0v-.2s0,0,0,0v.2c-.1,0-.2,0-.4,0,0-.3.2-.8,0-1.1,0,.1,0,.3-.1.3-.1,0,0-.4-.2-.3,0,.4-.5,0,0,.4-.2.1-.3,0-.6,0,0,.2,0,.5-.2.8,0,0,0,0,0,0,0,0-.2,0-.3,0,0,0,0,0,0,0-.5,0-.7-.2-1.1-.2,0-.1,0-.2,0-.4,0,0-.2.2-.4.2,0-.4.3,0,.4-.5-.2.3-.5.4-.8.5-.3.4.4,0,.6,0-.1.2-.3.4-.5.6-.5,0-1,0-1.5,0,0,0,0,0-.1,0,.2-.4.3-1.1.7-1.5,0,0-.1,0-.2,0,0-.3.2-.5.3-.8l.2-.2h0c0,0,0,.2,0,.2,0-.2.1-.3.2-.5,0-.2.1-.3.2-.5,0,0,0,0,.1,0v-.3ZM228.3,72.5c0,0,0-.3.1-.3.2.3,0,.2-.1.3M224.1,76.7c0-.1.1-.1.2,0,0,0-.1,0-.2,0M170.5,62.9h0c0-.1.1,0,.1,0h-.1ZM168.7,52.4c0,0,0-.2,0-.3,0-.2,0-.3.1-.5,0-.4.2-.7.3-1-.4,0-.2-.1-.7.2-.3,0,0-.4.2-.5l-.6.3h-.3c0,.2,0,.2,0,.2.1.2,0,.4,0,.5,0,.1-.1.3,0,.4,0-.1.2-.3.2-.4,0,0,0,0,0,0,0,0,0-.1,0-.2h0c0-.1,0-.2,0-.2,0,0,.1.2.1.4,0,0,0,.1,0,.2,0,0,0,.2,0,.3,0,.3-.4.7-.7.9,0,0,0-.3,0-.5,0-.2,0-.5,0-.5,0,.2-.4.6-.4.5,0-.1.1-.3.2-.4,0,0-.2.2-.3.4,0,.1-.1.2-.2.3,0,0,0-.1,0-.3,0,0,0-.3,0-.5,0-.2,0-.3,0-.1-.2.4-.5,1.3-.9,1.9,0-.2-.2-.4-.2-.7,0,0,0,0,.1-.1h0c0-.1-.1,0-.1,0,0-.2-.2-.4-.3-.7.1-.1.3-.1.5-.2.2,0,.4-.1.5-.3,0,0-.2,0-.3,0,0-.2.3-.2.2-.4-.2,0-.2-.1-.3-.2,0,0,0,0,0,0s0,0,0,.2c0,0,0-.1,0-.2,0,0,0,0,0-.1,0,0,0,0,0,0,0-.1,0-.3,0-.5-.1.2-.5,0-.9-.2,0-.2-.1-.4-.2-.6,0,0,0,0,0,0-.2-.9-.1-1.4-.3-2.3,0,0,.1-.5.3-.4,0-.1-.3-.2-.3-.5.3-.6.2.6.5.1-.2,0-.4-.6-.7-1-.4.2,0,.9.3,1.2-.2,0-.4,0-.6-.1-.2-.9-.3-1.9-.4-2.8,0-.7-.2-2.2,0-3.1,0-.1-.2-.3-.2-.4,0-.5,0-1.1,0-1.6v-.4c.1,0,0,.1,0,.1v.2c0-.7,0-1.3,0-2,0,0,0,0,.1,0,0-.2,0-.3,0-.5,0,0,0,0,0,0,0,0,.1.2.2,0,0,0-.2,0-.2-.2,0-.3,0-.5,0-.8,0,0,0,0,0,0,0,0,0,0,0,0,0-.2,0-.4,0-.6,0,0,0,0,0,0,0,0,0,0,0-.1.8-5.2,2.7-10.2,5.7-14.7.2-.3.4-.6.6-.9.3,0,.7,0,.9.2-.1-.7,1.4-.6,1.4-1.7.2,0,0,.2.2.3,0-.3,0-.6.5-.8h0c.9-.9,1.5-1.2,2.7-2.1h-.3c.3-.3.4-.3.5-.3,0-.6-.7.6-.8,0,.4,0,.8-.3,1.2-.6.4-.3.9-.6,1.2-.4.4-.3-.3-.2,0-.5h.2c0,0,0-.2,0-.2.3-.2.5,0,.6,0,0,0-.2.2-.2.2.5,0,.9-.7,1.1-.7h-.5c1-.7,2.6-1.2,3.7-2h-.1c.9-.7.8-.2,1.8-.6h0c.2-.1.4-.3.7-.3-.2.2.6.2.2.5,1-.5.5-.3,1.1-.9l.2.2c.2-.2.2-.3.8-.4-.4.2.4.3-.1.6.6.2.9.1,1.3,0,.3,0,.6-.1.8.3.3-.3,0-.4-.2-.5-.3,0-.6,0-.4,0-.2-.2.5-.4.8-.3.4,0,.5.9,1.2,1.1,0,0,0,0-.2,0,.2.2.7,0,.9.4.4-.3.4.2.7-.2-.2-.1-.5-.2-.7-.2.4,0,1.1-.2,1.6.4-.1,0-.4,0-.5,0,0,.2.4.2.5.4-.3.3-.8-.5-1.4-.3,0,.3.9.1.4.4.3-.2.5,0,.6,0,.1.2.3.4.7.4l-.2.2c0,0,.3,0,.4.2-.2,0-.3,0-.5,0,.3,0,.3.2.4.4,0,.2,0,.4.2.5-.2-.3-.2-.4,0-.5.1,0,.3,0,.2-.3.5.3.4.6.3.8-.1.3-.2.5,0,.9,0-.2,0-.5.2-.4,0,.2,0,.5,0,.7.3.7.3-.2.5,0-.3.4.2.4.4.7h-.3c0,1,.7.2.5,1.2l-.4-.4c0,.2,0,.3.1.5h-.3c.3.4.2.6,0,1.1.2-.1.5,0,.5.6-.2.3-.3-.2-.3.4-.2-.2-.4-.3,0-.6,0,0-.2-.2-.3-.2-.2.3-.1.8-.2,1,0,0,0-.2.1-.2.1.3.2.6.3,1-.1.1-.2,0-.3-.1,0,.2,0,.3,0,.6-.2-.1-.5-.2-.5-.6v.9c0,0-.3.4-.4.2-.3.4.1,1.3-.3,1.9,0,0,0,.1,0,.3-.3.6-.7,1-.7,1.8l-.6.2c-.1.6.7-.3.5.7-.2.7-.4,0-.7.2,0,.4.2,1.1-.4,1.5,0-.2.2-.3.2-.5l-.4.3c0-.7.2-1-.3-.8.7.4-.8,1.7-.1,2.1l-.3.2c0,0,0-.1,0-.2-.7.3.3.7-.2,1.3-.2.2-.4.3-.4,0,0,.2-.1.4-.2.6-.1.1-.2,0,0-.1l-.5.8h0c0,.2,0,.5,0,.7-.2.1,0-.2-.1-.2v.6c-.4,0-.4-.4-.1-.7-1,0,0,.5-1.1,1.1l.2-.5c-.6,0-.7.4-1.2.7.2,0,1.3-.5,1.1.1-.1,0-.3.3-.3.6-.2-.2-.4.1-.6.4l-.3-.3c-.2.4,0,.5,0,.8-.3.3-.6.2-.9.2-.5.5.7-.1.2.6-.5.4-.6.8-.9,1.5-.4.2-.1-.2-.3-.2v.5c0,0-.1,0-.2,0-.1.3.3.3,0,.7.2.4-1.2.4-1.2,1.2-.2,0-.1-.2-.3-.3-.3.9-.3.7-.5,1.5l-.6.3c.5-.1.4.5.2,1.1,0,0,0,0,0,0,0,0,0,0-.1.1,0,0,0,0,0-.1,0,0,0,0-.1,0,0,0,0,.1,0,.2,0,0-.2.2-.3.3,0,0-.1-.2-.1-.4.1,0,.3,0,.4,0,0-.3,0-.6-.3-.8,0,0,0,.2-.1.3,0,0,0-.1,0-.2,0,0,0,.1,0,.3l-.4-.2v.2c-.2.2-.5.4-.8.5-.2.8-.2,1.8-1,2.7,0-.4-.3-.4-.6-.7.5,0,.5-.8,1-1.1-.3.2-.3,0-.3,0l-.5,1c-.2-.2-.3,0-.6,0,.6.3-.3.9-.5,1.3-.2-.1-.2-.4.2-.7-.8,0,0,1.1-.8,1.2,0,0,.2-.1.1-.2-.1.3-.8.7-.8.5h0c-.7.4-2,1.6-1.8,2.1,0,0-.3-.6-.3-.7,0,.5,0,1.1,0,1.6-.1.1-.3.2-.4.3-.3-.3-.8-.7-.5-1.2-.2,0-.5.2-.7.6.2,0,.7.3.5.4-.7,0-.5,0-1.2,0,.2,0,.5.7.2.8,0-.1-.4-.5-.4-.7l-.3,1.1c0-.2-.3-.5-.6-.5.2,0-.6.4-.7.6h.4c-.8.4-.2,1.3-1,1.8,0-.2-.3-.9-.7-.7,0,.2,0,.7,0,1.2,0,0,0,0,0,.1,0,0,0,0-.1,0-.3.2-.5.4-.8.5M166.9,13.2c-.3,1-.9,1.5-1.9,2.6.4-.8,1.4-2.2,1.9-2.6M188.4,32.1c0-.2,0-.5.2-.5.2.3,0,.3-.2.5M181.7,41.2c0-.1.2-.2.4-.3,0,.1-.2.2-.4.3M141,68c-.5-.4-.8-1-1.5-.5,0,0-.2,0-.2,0-.1,0-.3-.2-.3-.3,0-.1,0-.3.2-.3.4,0,.9-.1,1.3-.1.7,0,1.3,0,2.2,0-.7.5-1.2.9-1.7,1.3M142.5,63.9c-.7.2-1.6.5-2.6.7.6-.3,1.5-.5,2.6-.7M128.4,70.5c.1,0,.3,0,.3.2.1.2,0,.4-.3.4-.1,0-.3,0-.3-.2-.1-.2,0-.4.3-.4M121.9,68.4c0,.3-.5.5-.7.5-.3,0-.2-.3-.2-.5,0-.1,0-.3,0-.4,0,0,.2-.2.3-.2.4,0,.7.4.6.7M121,69.9c-.1.3-.4.4-.7.4-.5,0-1,.2-1.5-.2.1-.2.2-.4.4-.5.3-.1.7-.2,1.1-.2.6,0,.9.2.8.5M118,68.8c0,0,0-.3,0-.4.5-.5,1.1-.5,1.6-.2,0,0,0,.1,0,.2,0,.1,0,.3-.2.4-.3,0-.6.1-.8.2-.2,0-.5,0-.6-.2M117.6,70.2c-.3,0-.6,0-.8,0-.1,0-.3,0-.4,0,.1.6.3,1.1.4,1.7-.4.4-1.1.3-1.5.8-.2.2-.6,0-.7-.2-.1-.4-.2-.7-.3-1.1.3-.6,1.2-.5,1.5-1.2-.2,0-.4,0-.7,0-.1,0-.2-.2-.3-.2.4-.3,1-.1,1.5-.2.4-.5.9-.4,1.4-.3.1,0,.2.2.3.3.1.1,0,.4-.3.5M111.1,70.5c0,0-.2.1-.3.1-.2-.1-.3-.3-.2-.5,0,0,.2-.2.3-.1.2,0,.3.3.2.5M108.8,72.4c-.3.1-.7,0-.8-.2-.2-.6-.3-1.2-.7-1.8-.1-.2.1-.4.3-.5.1,0,.3,0,.4,0,.3.1.5.3.8.4.1,0,.2.2.3.3-.1,0-.2.2-.4.2,0,0-.1,0-.2,0,.2.4.4.8.7,1.2-.2.1-.3.3-.5.4M105.4,69.3c-.3,0-.7,0-.7-.3,0-.2.1-.4.3-.5.2,0,.4-.1.6-.2.2.8.2.9-.3,1.1M103.2,69.9c-.1,1-.3,1.2-1.1,1.3-.1,0-.3,0-.4-.1,0,0,0-.3,0-.4.2-.3.4-.6.6-.9,0-.3.1-.6.2-.8,0-.1.2-.2.3-.2.3,0,.3.2.3.4,0,.2,0,.4,0,.6M92.9,67.7c0,.1,0,.3-.1.4,0,0-.2.2-.3.1-.3-.1-.5-.4-.5-.7,0-.2.2-.3.3-.5,0-.3,0-.6.1-.8,0-.2.2-.4.4-.4.2,0,.4,0,.7,0-.2.7-.2,1.3-.6,1.8M255.9,124.4c-2,.8-4,1.4-6,1.8-1.2,0-2.4-.1-2.3-.4-1.4.5-3.4.5-5.6.3-2.2-.2-4.6-.6-7-.7-.5-.2-.3-.2,0-.2.3,0,.7,0,.4,0-.5,0-1,0-1.7-.2-.2,0-.3,0-.5,0-.4,0-.9-.2-1.4-.4-.5-.2-1.1-.3-1.7-.6h.3c-3.7-1.2-6.1-2.6-8.4-4.2-2.3-1.7-4.6-3.6-7.2-7l.2.7c-1.1-1.5-1.2-1.9-1.7-2.6-.8-.8,0,.3.7,1.4.8,1,1.6,2.1.8,1.5-.6-1.1-2.5-3.8-3.9-6.6-1.4-2.8-2.2-5.9-2-6.7-.2-.7-.2-1-.3-1.1,0,0,0,0,0,.1,0,.2,0,.4-.4-1v-.8c0-.2-.2-.5-.3-.7-.2-1.9,0-2.8.1-2.9,0,.4.1,1.3.2,1.7,0-1.2-.1-2.9-.1-4.4,0-.7,0-1.4,0-2,0-.3,0-.5,0-.7,0,0,0-.2,0-.2h0c0,0,0,.4,0,.4v.7c-.1.5-.2.9-.2,1.4,0-.8,0-1.7.1-2.5,0-.2,0-.5,0-.7v-.4c0-.1,0-.3.1-.3h.6c.3,0,.6,0,.9,0,.9,0,1.8,0,2.7-.1,1.3-.1,2.5-.3,3.7-.5.5,0,1.1-.2,1.6-.3,3.5-.8,6.8-2.2,9.5-3.9l-.6.2c2.6-1.6,3.5-2.4,4.6-3.2.5-.4,1-.8,1.7-1.5.7-.7,1.4-1.6,2.3-3.1v.2c.5-1.3,1.3-2.9,1.8-4.7-.1.9.1,0,.4-.6.2-.7.3-1.5.3-.3,0-.9.1-1.6,0-2.2,0-.3,0-.6,0-.8,0-.2,0-.4-.1-.6-.1-.7-.3-1.1-.4-1.3-.1-.3-.2-.5-.4-.8-.1-.2-.3-.4-.4-.7-.2-.3-.5-.7-.8-1.1-.1-.3-.3-.6-.4-1-.3-.3-.5-.5-.7-.6-.2-.2-.4-.4-.7-.5-.5-.4-1.2-1-2.8-1.6,1.3.5.9.2.4-.1-.4-.3-.8-.6.7,0-1.6-1-3.3-1.4-4.7-1.5-1.5-.1-2.7,0-3.8.3-2.2.5-3.7,1.3-5.3,1.8-1.3,1.1,0,.3,1.7-.4.8-.4,1.7-.6,2.2-.8.6-.1.8-.2.4,0,.4,0,.4,0,.2.1-.2,0-.6.3-1.1.5-1.1.4-2.4,1.2-3.4,1.7-.9.6-1.8.9-3,1.7-1.2.7-2.7,1.8-4.5,4,.4-.4.4-.5.7-.9-1.5,1.5-2.5,3.3-4.1,5.4-.5,1.4-1.7,2.9-1.5,3.5.7-1.5,1.6-3,2.5-4.5-.8,1.2-1.4,2.5-2,4-.2.6-.5,1.2-.8,1.9-.4,1-.9,2.2-1.5,3.5,0-.4.4-1.8.7-2.7-.3.6-.6,1.3-.8,1.9-.1.3-.2.6-.3,1,0,.2-.1.3-.2.5v.2c0,0-.2.2-.2.2,0,0,0,0,0-.1,0,0,0,0,0-.2,0-.2,0-.5.2-.8.2-.6.5-1.5.8-2.3.2-.5.5-1.1.7-1.7.6-1.3,1.2-2.5,1.7-3.5-.5.6-1.1,2-1.6,3,0,.2-.1.3-.2.5-.3.7-.5,1.1-.4.4-.1.9-.5,1.9-.9,2.9-.2.5-.4,1.1-.6,1.7-.1.3-.2.5-.3.8-.2,0-.4,0-.5,0-.1,0-.2,0-.3,0,0,0,0,0-.2,0h-.3s.3-.3.3-.3c-.6,0-1.8-.1-2.8-.4.6,0,1.3,0,1.9,0-1.5-.1-2.8-.5-4.1-1-.7-.2-1.3-.5-1.9-.7-.6-.3-1.3-.5-1.9-.7,2.7,1,3,1.2,2.9,1.3-.1,0-.7,0,.5.5-.9-.2-1.6-.4-2.2-.6-.6-.2-1.1-.4-1.5-.6-.8-.4-1.3-.7-1.7-1-.9-.7-2-1.3-5.3-3.2.5.3,1.2.7,1.7,1.1.6.4.8.6,0,.3-.6-.4-1.4-.9-2.1-1.4-.7-.5-1.2-.9-1.6-1.3-4.4-3,.5.7-1.5-.5-1.3-1.4-2.2-1.5-4-3l.2-.2c-2.2-2.2-2.5-2.4-2.8-2.5-.2,0-.3-.1-.7-.4-.3-.3-.8-.9-1.7-2,.6.5,1.2,1,1.8,1.5-.6-.7-1.3-1.4-1.9-2.1l.6.3c-.5-.6-.9-1.1-1.3-1.5-.3-.5-.6-.9-.9-1.3l-.2-.3c0-.1,0-.1-.1-.2,0,0-.1-.2-.2-.3,0,0-.1-.2-.2-.3h0c0-.1,0-.1,0-.1,0,0,.1,0,.2-.1-.2,0-.4,0-.3-.2,0-.1.2-.3.4-.4,0,0,.2-.1.3-.2.1,0,.2-.2.4-.2.2-.2.5-.3.8-.5,1.7-.9-.7.9,2.5-1.4-.6.7-1.3,1.4-2.9,2.2,0,0-.2.2-.4.4-.2.2-.4.3-.3.4,0,0,.2,0,.3-.1.1,0,.2-.1.4-.2.2-.1.5-.3.8-.5.5-.3,1-.7,1.5-1,.9-.6,1.6-1.2,2.2-1.6,0,0,.2-.2.3-.2,0,0-.2.1-.3.2-.4.3-.8.5-1,.7.3-.2.6-.5.9-.7,1.2-1,2.4-2.1,3.5-3.1.8-.5.3,0-.2.6.9-.8,1.4-1.4,2.7-2.5-.2.4,0,.6-1.3,1.9,1.2-1.1,2.4-2.3,3.6-3.5.3-.2,2.3-1.8,1.8-1.2,1.1-1,2.4-2.5,3.6-4.1,1.3-1.6,2.5-3.4,3.8-4.9,0-.2.3-.6.8-1.3,1.1-1.5,2.2-3,3.2-4.7,1-1.6,2-3.4,2.7-5.7.5-.8.9-1.5,1.3-2.4.5-1.8,0-1-.2-.4-.2.3-.3.5-.3.2,0-.1,0-.4.1-.7,0-.2,0-.4.2-.7,0-.3.1-.6.2-1,.4-2.1.5-2.5.6-2.6.1,0,.2.3.4-.5,0-1.1,0-2.7-.4-4.4-.4-1.8-1-3.7-2-5.6.2.3.4.6.6.8.1.3.3.6.4.8l.2.4.2.4c.1.3.2.6.3.9-.2-.5-.3-1-.5-1.6-.2-.5-.4-1-.6-1.5,1.2,1.6,1.7,3.3,1.9,4.1.1.4.2.6.2.5,0-.1,0-.5-.1-1.3-.2,0-.6-.9-1.1-2-.5-1.1-1.4-2.5-2.5-3.7-.5-.6-1.2-1.1-1.8-1.6-.6-.4-1.2-.8-1.8-1.1-.3-.1-.5-.3-.8-.4-.2,0-.5-.1-.6-.2-.4,0-.6-.1-.7,0-.7-.3-1.3-.6-2-.8.6.1.7.1,1.3.3-.2-.1-.5-.2-.7-.3-.2,0-.4-.1-.6-.2-.4,0-.7-.2-1-.2-.6,0-1,0-1.5,0-.9.2-1.9.3-4.4.6-1.7.2-3,.5-1.8,0-1.3.4-2.5.9-3.6,1.4-.8.3-.9.3-.4,0-1.6.7-3.1,1.6-4.5,2.6h0c-.3.2-.8.7-1.3,1.2-.5.5-1,1-1.3,1.3-1.2.9.5-.6.2-.4-.8.7-1.5,1.5-2.2,2.3-1.1.8.6-1.3,2.4-2.7-1.4.7-1.9,1.2-2.6,2-.4.4-.8.9-1.4,1.7-.3.4-.7.8-1.1,1.2-.4.5-.9,1-1.4,1.6.6-.8,1.2-1.7,1.8-2.5-1.7,1.2-3,3.2-5,6.1.1-.2.4-.6.9-1.1.4-.5.9-1.1,1.3-1.5.4-.5.8-.8.9-.8.1,0,0,.2-.4,1-.6.8-1.4,1.9-2.1,3.6-.1,0-.4.3-.8,1-.3.7-.8,1.6-1.2,2.7l-.3-.3c-.4,1.2-.5,1.8-.6,2.2,0,.4,0,.8-.2,1.5-.4,1.3-.8,2.1-1,2.6-.2.5-.5.8-.7,1.1-.3,1.1-.3,1.5-.3,1.5,0,0,.2-.3.3-.7.1-.3.3-.6.3-.5,0,0,0,.2,0,.5,0,.3,0,.8-.2,1.4,0,.5-.2.9-.3,1.3,0,.4-.1.9-.2,1.3,0,.8-.2,1.6-.2,2.5,0,.8,0,1.7,0,2.6,0,.5,0,.9.1,1.4,0,.5,0,1,.2,1.6.1,2.6-.3-.4-.3.5.2.8.3,1.5.6,2.2,0,.6,0,.4-.1.3.2.9.3,1,.5,1.1.1.1.2.3.4,1.1,0,.2.1.5.2.8.2.2.3.6.4,1.3.1.7.4,1.5.6,2.4,0,.2.1.5.2.7,0,.2,0,.3.1.5,0,.3.2.6.3.9.3.4-.2.4-.3.6-.1,0-.2.1-.3.2h-.2c0,.1-.3.3-.3.3-.8.3.3-.4,0-.4-2.1,1.3-3.1,1.8-3.9,2.2-.8.5-1.5.9-3.3,1.9-1.1.4-2.2.7-3.3,1.1,2.5-.7-.4.9-3,2.1.1,0,.3,0,.4,0-.3.1-.7.2-1,.4.2,0,.4-.2.6-.3-.2,0-.3,0-.5,0-.2.1-.4.2-.6.4-.7.2-1.4.5-2.1.7,0-.1.5-.4,1.1-.8.6,0,1.1-.2,1.6-.3,1-.6,1.9-1.2,1.6-1.3-.3.1-.8.4-1.4.6.3-.2.4-.3.3-.3-.2,0-.6.3-1.3.6h-1.1c0,0-.2.1-.2.1-1.9.5-3.8,1-5.8,1.4-2,.7-3.9,1.4-6.1,2.1-1.4.4-3,.8-4.9,1.2,0,.3-.3.6-.5.7,0,0-.2,0-.2,0,0-.1,0-.3,0-.5-.8.1-1.7.3-2.6.4,1.7-.5.3-.6.4-.9,1.9.3,5.2-.7,8.6-1.3-1.8.3-1.4,0-1-.1-1,.3-2,.5-3,.7-1,.2-2,.4-3.1.6.1-.3-1.3-.1-3,0,.3.1.2.2-.2.3-.4,0-1.1.2-1.9.2-.8,0-1.8.1-2.6.1-.4,0-.9,0-1.3,0-.4,0-.8,0-1.1,0-.2-.2.5-.4,3.5-.4-.9,0-1.6,0-2.2,0-.6,0-1.2.1-1.7.2-.5,0-1.1.2-1.7.2-.2,0-.5,0-.8,0,0,.2.2.4.2.5,0,.2-.1.4-.3.5,0,0-.2,0-.2,0,0-.2-.2-.4-.2-.6,0-.2.1-.4.3-.5,0,0,0,0,0,0-.4,0-.7,0-1.2-.1.8,0,1.2,0,1.5,0-1.8.1-6.1-.5-5-.5.2,0,.5,0,.8,0-.7,0-1.6-.2-2.5-.3-.1,0-.2,0-.4.1,0,0,0,0-.1-.2-1.8-.3-3.9-.6-5.8-1.1.5.5,1.3.2,1.7.8-.1.7-.4,1.3-1.1,1.6l-.5.4c-.1-.2-.3-.3-.4-.5-.1-.3,0-.7-.3-1-.4,0-.7.1-1.1.2.3.5.5,1.1,0,1.7-.4.5-.6.7-1.1.5-.5-.2-1-.4-1.4-.6-.2,0-.3-.6,0-.8.2-.2.4-.2.6,0,.3.3.5.6.9.4.4-.2.6-.5.6-.9,0,0,0-.1,0-.2-.2-.2-.5-.3-.6-.5-.2-.3-.2-.4.2-.8.3,0,.6,0,.9,0,.1.2.3.3.4.5.2-.2.4-.4.6-.6,0,0,0,0,0,0,0,0-.1,0-.2,0-.8-.2-1.6-.4-2.3-.5-.7-.2-1.3-.4-1.9-.5-1.1-.3-1.9-.4-2.1-.4,0,0,.8-.4,1.1-.4-2.1-.3-4.2-.7-6.3-1.2-.8-.4-1.7-.8-2.5-1.2,0-.2,0-.3,0-.5,0-.4.4-.5,2.4.3-.5-.3-1.1-.6-1.8-1-.4-.2-.8-.5-1.4-.7-.4-.2-.9-.4-1.4-.7.4.3.8.7.9,1,0,.2,0,.3-.3.2,0,0-.1,0-.2,0-1.2-1-1.6-1.3-2.1-1.7-.5-.4-1.1-.8-2.5-2,.5.4.3.5-.1.4-.5,0-1.2-.4-2-1,.3.1.3-.6.9-.3-.7-.4-1.4-.8-2.1-1.2l-1.9-1.2c.3.2.4.1.4-.1,0-.1-.1-.3-.2-.5,0-.2-.4-.5-.7-.8.1.1-.1,0-.7-.2-.6-.2-1.5-.3-2.4,0-.9.3-1.8,1.1-2.1,2-.2.4-.3.9-.3,1.3,0,.2,0,.4,0,.6,0,.2,0,.3.1.4-.3-1.1,0-2.2.7-2.9-.6.8-.8,1.7-.7,2.5.2.9.7,1.4,1.1,1.7.7.5,1.3.9,1.9,1.2.6.3,1.2.7,1.9,1.1.7.4,1.5,1.1,2.7,1.8-.6-.3-1.9-.2.4,1.5.4.2,1.3.4,2.5.8.4.1.9.3,1.4.5.1,0,.2,0,.3.1,1,.6,2.1,1.2,3.1,1.7,0-.3.1-.7.2-1,.6-.2.7.4,1.2.5.4,0,.7.1,1.1.2.4.6.5,1.3,1,1.8.2.2.2.6.2.8.1.1.2.2.3.4.4.1.8.2,1.2.4,0,0,.2-.1.2-.2.1-.2.2-.4.3-.6-.2-.3-.5-.5-.7-.8.2-.7.2-.7.6-.6.6,0,1.1.1,1.7.2h0c-.3-.3-.7-.5-1-.8-.3-.2-.3-.6-.1-.8.2-.2.4-.2.6,0,.2.1.4.2.6.3q.8,0,.8.8c-.1.5-.5.5-.9.5h0s0,0,0,0c-.1.2-.3.3-.4.5,0,.3-.3.6-.2.8.2.5.2.9.2,1.4.8.3,1.6.5,2.4.8,1.2.6-1.2.4-1.1.6.2,0,.7.1,1.3.3.1,0,.3-.1.4-.2.4-.2.8,0,1.1.3.2,0,.4,0,.6.2.2,0,.4.3.4.4.7.2,1.3.4,1.4.4l-1.4-.2s0,0,0,0c.6.2,1.2.3,1.7.4,0-.2,0-.5,0-.7,0,0,0,0,0,0,0,0,0,0,0,0-.4-.1-.8-.4-1-.8,0-.1,0-.3,0-.4,0,0,.3-.2.4-.1.7.2,1.4.4,2.1.1,0,0,.1,0,.1.2,0,.1,0,.3,0,.4-.2.1-.4.2-.6.2-.4,0-.7,0-.9.4,0,0,0,0,0,0h0c.2.2.5.3.7.5,0,0,0,.2,0,.3.2,0,.4,0,.7,0,.6,0,1.3.2,1.9.3.7.1,1.4.3,2.3.6.3,0,.7.2,1.1.3,0-.2,0-.4,0-.6,0,0,.2,0,.2,0,.7.4,1.5.8,2.2,1.2,0,0,.2,0,.2,0-1.1-.4-1.6-1.2-1.5-1.7,1.3.2,2.6.4,4,.5h-.2c0,.1.8.2.8.2v-.2c1.3.1,2.7.2,4.1.3.2.2-.4.3-1,.4-.8.2-1.6.3-.8.5,0-.1,1.2-.2,1.6-.2,1.1.1,0,.3,1.2.3,0,0,.1,0,.2,0,0,0,0,0,.1,0,.2,0,.4,0,.6,0,.2-.1,1.1-.2,1.9-.2,0,0,0,0,0-.1-.2,0-.4,0-.6,0,.2,0,.4,0,.5,0,0,0-.1-.2-.2-.2,0,0,0-.1,0-.2.1-.1.2-.3.3-.3.2,0,.5,0,.6,0,.1.2.2.4.3.6.5,0,.8,0,1.2,0,.5,0,1.1,0,1.8,0,0,0,0-.2-.1-.3-.1-.2,0-.4.2-.5.1-.1.3-.3.4-.4h0c0-.5,0-1-.2-1.5.3-.5.8-.4,1.2-.5.3-.1.6.1.7.4.1.3,0,.6-.3.7.1.5.2,1,.1,1.5.2,0,.4-.1.6-.2.4,0,.7-.2,1.2-.3,1.1-.1,2.3-.2,3.4-.4,0,0,.1,0,.2,0,.3,0,.6,0,.9-.1,0-.1.1-.2.2-.4.4,0,.7.1,1.1.2,0,0,0,0,0,0,.3-.4.4-1,.9-1.3,0,0,0,0,0,0h0c0-.2,0-.3,0-.5.2,0,.3,0,.5,0,0,.2-.2.4-.4.4h0c.2.4.4.7.4,1.1,0,0,0,0,0,0,1.1-.2,2.1-.3,3.1-.5.2,0,.3,0,.5,0,0-.2-.2-.4-.4-.6,0-.1,0-.3,0-.4.1-.2.3-.3.5-.1.3.3.4.6.4,1,0,0,0,0,0,0,.7-.1,1.3-.3,2-.4,1-.2,2.1-.5,3.3-.8.3,0,1.2-.2,1.7-.3-.1,0-.2-.1-.3-.3-.4-.5-.8-.6-1.3-.3-.5.2-1,.2-1.5.3,0,.3-.2.6-.2.9,0,0-.1.1-.2.1-.1,0-.3,0-.3,0,0-1-.7-1-1.4-1-2.1,0-4.2,0-6.3,0,0,.2,0,.3,0,.5-.5,0-.9,0-1.4,0,0,.1.1.3.2.4,0,.1,0,.2,0,.4-.1,0-.3,0-.4-.1,0-.2-.1-.4-.2-.6-1.5,0-3,0-4.5,0,0,.2-.2.4-.5.4-.3,0-.6,0-.9,0-.2,0-.4-.2-.5-.4h0q-.3-.2,0-.4c1.3,0,2.7,0,4,0,.2-.3.4-.4.7-.4,1.1,0,2.2,0,3.3,0,2.1,0,4.2,0,6.3,0,.7-.5,1.5-.5,2.2-.5.2-.3.3-.3.5,0,1.5,0,3,0,4.5,0,.6-.4,1.3-.4,2-.4.4-.1.7-.2,1-.4,0,0,.2,0,.3,0,.2,0,.4-.1.6-.2-.1-.1-.3-.2-.6-.3-.6,0-1.2.2-1.7-.2,0-.3.2-.5.5-.6.6-.2,1.3,0,2-.3.4-.1.8.2,1.1.5,0,.1,0,.2,0,.3,3.3-1.2,6.6-2.6,9.8-4.1.5-.2,1-.5,1.6-.8.7-.3,1.4-.7,2.1-1.1.2,0,.4-.2.6-.3h.3c0-.1.1-.2.1-.2h0c0,0,0,0,0,0,.2.4.5.8.7,1.2.4.8,1,1.6,1.6,2.4.5.8,1.2,1.6,1.7,2.4.2.2.3.4.5.6.2,0,.4-.1.5-.2.1,0,.3,0,.4,0,1.1.6,2.3.3,3.5.4.5,0,1,0,1.6,0,.3,0,.6,0,.9.1.3,0,.5.3.8.4-.5.7-.8.8-1.3.8-.1,0-.2-.1-.3-.3-.3-.5-.7-.7-.9-.4-.4.7-1.1.7-1.8.7-.7,0-1.5,0-2.2,0,0,0,0,0,0,0,.6.7,1.1,1.3,1.6,1.9.6.5,1.5,1.2,1.7,1.4,5,4.7,10.9,8.3,17.3,10.8,0,0,0,0,0,.1.8.3,1.7.5,2.5.7.1,0,.2,0,.3.1-.1,0-1-.1-.2.2,0,0,.5,0,1.1.1,1.4.4,2.8.8,4.2,1.1,0,0,.2,0,.3,0,0,0,.2,0,.3,0,1,.2,2.1.4,3.1.5,0,.1,0,.2,0,.3,0,.1,0,.3,0,.5,0,.3,0,.6,0,.9-1.1,9.2.7,18.9,5.9,26.6,6.1,9.2,16.1,15.3,26.8,17.2,3.8.7,7.7.9,11.5.5,3.7-.4,7.3-1.2,10.8-2.7,2.7-1.1,1.5-5.6-1.2-4.4"/>
</svg>