<?xml version="1.0" encoding="UTF-8"?>
<svg id="_레이어_1" data-name="레이어 1" xmlns="http://www.w3.org/2000/svg" version="1.1" viewBox="0 0 980 2080">
  <defs>
    <style>
      .cls-1 {
        fill: #f7f7f0;
        stroke-width: 0px;
      }
    </style>
  </defs>
  <path class="cls-1" d="M977.4,354.6c-4-22.8,4.2-45.5-.9-69.6-.7-3.3-1.5-5.9-2.4-8.6,0-4.2-.1-8.4-.3-12.8,1.1-11.9,1.9-23.9,2.2-36.1.6-21.3-1.5-42-2.9-62.9,0-4.2.2-8.3.5-12.3,1.5-18.5,1.8-41.6.1-60-.3-3.1-.7-6.1-1.2-8.9-.3-4.6-.6-9.1-1.3-13.8-.6-4.4-1.8-7.9-3.4-10.4v-21.9h-5.3c-.2-.6-.4-1.1-.6-1.7-4.8-11.5-13.2-13.1-20-14-16-2.1-32.7,1.9-48.7,2.8-6.9.4-13.9,2.1-20.5,7.2-2.1,1.7-4.4,4.3-6.7,5.7h-5.7c-2.2-1.3-4.3-3.8-6.6-5.5-13.6-9.5-27.8,4.3-41.6-2.7-6.1-3.1-11.7-7.6-18.1-6.7-6.1.9-10.5,7.2-16.5,1.6-9-8.4-14.8-12.6-24.8-4.7-2.5,1.9-4.6,4.4-6.6,8,0-.3,0-.6,0-.9-1.1-7.7-7.6-15.5-11-17.5-10.8-6.2-19,7.2-27.6,17.5-1.1-1.3-2.3-2.5-3.6-3.1-3.9-1.8-8.3-.5-12.2,0-8.8,1.4-17.3,4.9-25.8,10.4-1.9-1.8-3.7-3.6-5.7-4.9-5.5-3.8-10.9-4.5-16.5-2.8-3,.9-8.4,1.7-12.1,5.6-1.4-1.2-3-1.7-4.5-2.6-4.6-2.7-9.5-6.1-14.2-2.6-2.6,2-3.9,3.5-5.1,4.6-3.3-.3-6.5-.4-9.8,0-8.9,1.1-16.1-.9-24.7-5.1-3.8-1.8-7.3-2.3-10.9-1.7-8.3-2.7-16.4-5.1-25.3-3.9-7.6,1-14.9-1.6-22.5-1.4-5.6.2-11.1,3.1-16.6,5.2-9.2,3.5-17.4-1.1-25.2,3.5-.3,0-.6,0-.9.1-6-10-13-15.4-21.1-11.5-3.4,1.7-6.5,4.7-9.5,8.6-2.2.2-4.4.9-6.7,2.3-3.2,1.9-6.1,4.4-9.2,5.3-.9-.3-1.8-.7-2.7-.9-3-.8-6.1-1.5-9.2-2.1-1.4-.7-2.8-1.3-4.3-1.6-1.2-.2-2.4-.2-3.6,0-9.2-1.6-18.5-2.6-27.6-2.3-5.3-1.5-10.7-2.9-16.1-3.1-3.9-3.6-7.4-9.2-12.3-12.3-7.3-4.7-12.8.7-19.7,4.8-6.4,3.8-10.9-9.5-17.2-11.8-7.7-2.8-13.2,6.5-19.8,12.6-7.1,6.6-15,4.4-22.5,7-7.9,2.8-13.4,10.9-20.8,2.6-14.8-16.5-24.8.6-39.5,5.2-6.1,1.9-12-1.9-18.2.3-3.8,1.3-7.4,3.8-10.9,6.4h-21.6c-3.1-3-6.2-6.6-9.5-8.7-5.2-3.3-10.8-4.1-16.1-1.8-3.1,1.3-6.4,5.2-9.7,5-2.6,0-5.5-2.7-8.1-3.4-6-1.6-11.7.6-17.7,2.5-7,2.2-12,.8-18.9-2.4-5.9-2.7-11.5-3.8-17.4-2-6,1.9-12.6,9.8-18.7,9.5-5.2-.3-9-10.6-14.3-12.6-2.4-.9-4.9-.9-7.3.2-.6.3-4.7,1.8-3,2.3-6.8-1.9-11.9,5.3-12.5,20-.7,15.7,2.2,31.3,1.4,46.7-.6,11-4,19.7-5,30.5-1.2,13.5,2.5,20.9,3.2,33,.7,10.9-3,21.9-3.8,32.7-.7,10.7-.3,20.9,2.6,30.2.6,1.9,1,3.4,1.3,4.7-2.7,14.3-3.5,28.5-2.4,44.5,1.2,17.1,1.5,34.1,1.6,51.2-2.3,14.7-2.1,27.9-.2,46.8,1.3,13.3,1,23-1.1,35.8-1.5,9.6-3.4,19.6-3.2,29.9.1,5,.8,10,1.9,14.5.5,2.1,2.2,5.5,3.2,8.6-.2,3.6-.4,7.2-.7,10.7-.4,1.4-.8,2.7-.9,3.6-.9,5.8-.9,11.9-.9,17.9,0,3,0,5.9.2,8.8,0,1.2-.1,2.3-.1,3.5-.9,32.5,2.4,65.3,1.9,97.6-1.9,9.7-3.4,18.9-3.1,30.2,0,3,.4,6.1.8,9.1-2.5,33.7-3.8,66.7-3,101.3.8,35.4-.7,71.7,1.1,106.8.6,10.9,1.6,20.6,3.8,29.6.1,2.7.2,5.3.4,8-1.9,8.5-2.4,18.7-1.8,29.5.6,9.7,2,19.4,2.2,29.2.4,15.6-.4,31.7-.2,47.5,0,6.2,0,12.4,0,18.6-.6,11.4-.6,22.8-.5,34.2-.1,11.4,0,22.8.5,34.2,0,6.2.1,12.4,0,18.6-.1,15.7.7,31.9.2,47.5-.3,9.8-1.7,19.5-2.2,29.2-.6,10.8,0,21,1.8,29.5-.1,2.7-.3,5.3-.4,8-2.1,9.1-3.2,18.8-3.8,29.6-1.8,35.1-.2,71.4-1.1,106.8-.8,34.6.4,67.6,3,101.3-.4,3-.8,6.1-.8,9.1-.3,11.4,1.2,20.6,3.1,30.2.4,32.3-2.9,65.1-1.9,97.6,0,1.2,0,2.3.1,3.5-.1,2.9-.2,5.8-.2,8.8,0,6,0,12.1.9,17.9.1.9.5,2.3.9,3.6.2,3.6.4,7.2.7,10.7-1.1,3.1-2.7,6.5-3.2,8.6-1.1,4.5-1.8,9.5-1.9,14.5-.3,10.3,1.7,20.3,3.2,29.9,2,12.8,2.4,22.5,1.1,35.8-1.8,18.9-2.1,32.1.2,46.8-.1,17-.4,34.1-1.6,51.2-1.1,16-.3,30.2,2.4,44.5-.3,1.3-.7,2.8-1.3,4.7-2.8,9.4-3.3,19.5-2.6,30.2.7,10.8,4.4,21.8,3.8,32.7-.7,12.1-4.5,19.6-3.2,33,1,10.7,4.5,19.5,5,30.5.8,15.4-2.1,31-1.4,46.7.7,14.7,5.8,21.9,12.5,20-1.7.5,2.4,2,3,2.3,2.4,1.1,4.9,1.2,7.3.2,5.4-2,9.2-12.4,14.3-12.6,6-.3,12.7,7.6,18.7,9.5,6,1.8,11.6.7,17.4-2,6.9-3.1,11.9-4.6,18.9-2.4,6,1.9,11.6,4.1,17.7,2.5,2.7-.7,5.5-3.3,8.1-3.4,3.2-.1,6.5,3.7,9.7,5,5.3,2.3,10.9,1.5,16.1-1.8,3.3-2.1,6.4-5.7,9.5-8.7h21.6c3.6,2.6,7.2,5,10.9,6.4,6.1,2.2,12.1-1.6,18.2.3,14.7,4.6,24.7,21.8,39.5,5.2,7.4-8.3,12.9-.2,20.8,2.6,7.6,2.7,15.4.4,22.5,7,6.6,6.2,12.1,15.4,19.8,12.6,6.3-2.3,10.8-15.6,17.2-11.8,6.9,4.1,12.4,9.5,19.7,4.8,4.9-3.1,8.3-8.6,12.3-12.3,5.3-.1,10.8-1.5,16.1-3.1,9.1.3,18.4-.7,27.6-2.3,1.2.2,2.4.2,3.6,0,1.4-.3,2.9-.9,4.3-1.6,3.1-.7,6.2-1.4,9.2-2.1.9-.2,1.8-.6,2.7-.9,3.1.9,6,3.4,9.2,5.3,2.3,1.4,4.6,2.1,6.7,2.3,3,3.8,6.1,6.9,9.5,8.6,8.1,4,15.2-1.5,21.1-11.5.3,0,.6,0,.9.1,7.8,4.6,16,0,25.2,3.5,5.5,2.1,11,5,16.6,5.2,7.6.2,14.8-2.4,22.5-1.4,9,1.2,17.1-1.2,25.3-3.9,3.5.6,7.1.1,10.9-1.7,8.7-4.2,15.8-6.2,24.7-5.1,3.3.4,6.5.3,9.8,0,1.1,1.1,2.5,2.6,5.1,4.6,4.7,3.5,9.6.1,14.2-2.6,1.5-.9,3-1.4,4.5-2.6,3.6,3.9,9,4.7,12.1,5.6,5.7,1.7,11.1.9,16.5-2.8,2-1.3,3.8-3.1,5.7-4.9,8.4,5.5,17,9,25.8,10.4,3.9.6,8.3,1.9,12.2,0,1.3-.6,2.5-1.8,3.6-3.1,8.6,10.3,16.7,23.7,27.6,17.5,3.4-2,9.9-9.8,11-17.5,0-.3,0-.6,0-.9,2,3.6,4.2,6,6.6,8,10,7.9,15.8,3.7,24.8-4.7,6-5.6,10.4.7,16.5,1.6,6.4.9,12-3.6,18.1-6.7,13.8-7,27.9,6.8,41.6-2.7,2.3-1.6,4.4-4.1,6.6-5.5h5.7c2.3,1.4,4.5,4,6.7,5.7,6.5,5.1,13.5,6.8,20.5,7.2,16,.9,32.8,5,48.7,2.8,6.8-.9,15.2-2.5,20-14,.2-.5.4-1.1.6-1.7h5.3v-21.9c1.6-2.5,2.8-6,3.4-10.4.6-4.6,1-9.2,1.3-13.8.5-2.8.9-5.7,1.2-8.9,1.6-18.4,1.4-41.5-.1-60-.3-4-.5-8.1-.5-12.3,1.4-20.9,3.4-41.6,2.9-62.9-.3-12.2-1.2-24.2-2.2-36.1.2-4.3.2-8.6.3-12.8.9-2.7,1.7-5.3,2.4-8.6,5.1-24.2-3-46.8.9-69.6,2-11.7,3.7-23.6,1.6-36-1.8-11.1-4.8-12.7-4.4-24.6,0-.3,0-.6,0-.9.6-13.4,1.7-26.4.8-39.9-.7-10.5-3.4-19.4-3.3-30,.3-29.6,4.6-59,5.3-88.7.3-14-.7-26.9-1.8-40.6-.3-3.3-.5-6.6-.7-9.9,0-.8.2-1.5.2-2.3,1.2-14,.3-27.4-.4-41.4-.7-15.6-1.3-30.8-1.2-45.9.2-5.5.3-11.1.4-16.6.3-7,.8-13.9,1.5-21,1.3-12.3,2.5-24.2,2.3-36.7,1.2-8.8,2.2-17.7,2.2-27.2,0-15.3-2.2-30.1-3.1-45.2-.7-11.2-.8-21.7-2-32.4.2-2.1.4-4.2.8-6.5,3.5-25.2-1.3-45-3.4-69.5.2-8.6,2.3-17.3,2.2-26.1,0-5-.4-9.6-1.4-14.2,0,0,0-.2,0-.3,1.3-6.9,2-14.4,1.3-23.3-.2-2.1-.6-4.8-1.2-7.6.6-2.8,1.1-5.5,1.2-7.6.7-8.9,0-16.4-1.3-23.3,0,0,0-.2,0-.3.9-4.6,1.3-9.2,1.4-14.2,0-8.8-2.1-17.6-2.2-26.1,2.2-24.5,6.9-44.3,3.4-69.5-.3-2.3-.5-4.4-.8-6.5,1.2-10.7,1.3-21.2,2-32.4.9-15,3.1-29.9,3.1-45.2,0-9.4-1-18.3-2.2-27.2.2-12.5-1-24.4-2.3-36.7-.7-7.1-1.2-14-1.5-21,0-5.5-.2-11-.4-16.6,0-15.2.5-30.3,1.2-45.9.7-14,1.6-27.4.4-41.4,0-.8-.2-1.5-.2-2.3.2-3.3.4-6.7.7-9.9,1.1-13.7,2.2-26.6,1.8-40.6-.7-29.6-5-59-5.3-88.7,0-10.6,2.6-19.5,3.3-30,.9-13.5-.2-26.5-.8-39.9,0-.3,0-.6,0-.9-.4-11.8,2.6-13.5,4.4-24.6,2.1-12.4.4-24.3-1.6-36"/>
</svg>