<?xml version="1.0" encoding="UTF-8"?>
<svg id="_레이어_1" data-name="레이어 1" xmlns="http://www.w3.org/2000/svg" version="1.1" viewBox="0 0 600 430">
  <defs>
    <style>
      .cls-1 {
        fill: #ff8c63;
      }

      .cls-1, .cls-2, .cls-3, .cls-4, .cls-5, .cls-6, .cls-7, .cls-8, .cls-9, .cls-10, .cls-11, .cls-12, .cls-13 {
        stroke-width: 0px;
      }

      .cls-2 {
        fill: #002933;
      }

      .cls-3 {
        fill: #2e382e;
      }

      .cls-4 {
        fill: #00bf78;
      }

      .cls-5 {
        fill: #ffbf00;
      }

      .cls-6 {
        fill: #000;
      }

      .cls-7 {
        fill: #002e33;
      }

      .cls-8 {
        fill: #8ca691;
      }

      .cls-9 {
        fill: #e8e3d1;
      }

      .cls-10 {
        fill: #f05705;
      }

      .cls-11 {
        fill: #fdf6b2;
      }

      .cls-12 {
        fill: #fff;
      }

      .cls-13 {
        fill: #ffabc7;
      }
    </style>
  </defs>
  <path class="cls-11" d="M250.4,419c112.7,0,204-91.3,204-204S363,11,250.4,11,46.4,102.3,46.4,215s91.3,204,204,204"/>
  <path class="cls-13" d="M312.4,161.2c0-.6,0-1.2,0-1.8,0-.3,0-.5,0-.8,0-.4,0-.9,0-1.3,0-.3,0-.6,0-.9,0-.4,0-.8,0-1.2,0-.3,0-.6,0-.9,0-.4,0-.8,0-1.1,0-.3,0-.6,0-1,0-.4,0-.7-.1-1.1,0-.3,0-.6-.1-1,0-.4,0-.7-.1-1.1,0-.3,0-.6-.1-1,0-.4-.1-.7-.2-1.1,0-.3-.1-.6-.2-1,0-.4-.1-.7-.2-1.1,0-.3-.1-.6-.2-1,0-.3-.1-.7-.2-1,0-.3-.1-.6-.2-1,0-.3-.1-.7-.2-1,0-.3-.1-.6-.2-1,0-.3-.2-.7-.2-1,0-.3-.2-.6-.2-1,0-.3-.2-.7-.3-1,0-.3-.2-.6-.3-1,0-.3-.2-.7-.3-1,0-.3-.2-.6-.3-.9,0-.3-.2-.7-.3-1,0-.3-.2-.6-.3-.9-.1-.3-.2-.6-.3-1-.1-.3-.2-.6-.3-.9-.1-.3-.2-.6-.3-.9-.1-.3-.2-.6-.3-.9-.1-.3-.2-.6-.4-.9-.1-.3-.2-.6-.4-.9-.1-.3-.2-.6-.4-.9s-.3-.6-.4-.9c-.1-.3-.3-.6-.4-.9-.1-.3-.3-.6-.4-.9-.1-.3-.3-.6-.4-.9-.1-.3-.3-.6-.4-.9-.1-.3-.3-.6-.4-.9-.1-.3-.3-.6-.4-.9-.1-.3-.3-.6-.5-.9-.2-.3-.3-.6-.5-.9-.2-.3-.3-.6-.5-.9-.2-.3-.3-.6-.5-.9-.2-.3-.3-.6-.5-.9-.2-.3-.3-.6-.5-.9-.2-.3-.3-.6-.5-.8-.2-.3-.3-.6-.5-.9-.2-.3-.3-.5-.5-.8-.2-.3-.4-.6-.5-.8-.2-.3-.4-.5-.5-.8-.2-.3-.4-.6-.6-.8-.2-.3-.4-.5-.5-.8-.2-.3-.4-.5-.6-.8-.2-.3-.4-.5-.6-.8-.2-.3-.4-.5-.6-.8-.2-.3-.4-.5-.6-.8-.2-.3-.4-.5-.6-.8-.2-.2-.4-.5-.6-.7-.2-.3-.4-.5-.6-.8-.2-.2-.4-.5-.6-.7-.2-.3-.4-.5-.7-.8-.2-.2-.4-.5-.6-.7-.2-.3-.4-.5-.7-.8-.2-.2-.4-.5-.6-.7-.2-.3-.5-.5-.7-.8-.2-.2-.4-.5-.6-.7-.2-.2-.5-.5-.7-.7-.2-.2-.4-.4-.7-.7-.2-.2-.5-.5-.7-.7-.2-.2-.4-.4-.7-.6-.2-.2-.5-.5-.7-.7-.2-.2-.4-.4-.7-.6-.3-.2-.5-.5-.8-.7-.2-.2-.5-.4-.7-.6-.3-.2-.5-.5-.8-.7-.2-.2-.5-.4-.7-.6-.3-.2-.5-.5-.8-.7-.2-.2-.5-.4-.7-.6-.3-.2-.5-.4-.8-.7-.2-.2-.5-.4-.7-.6-.3-.2-.6-.4-.8-.6-.2-.2-.5-.4-.7-.5-.3-.2-.6-.4-.9-.6-.2-.2-.5-.3-.7-.5-.3-.2-.6-.4-.9-.6-.2-.2-.5-.3-.7-.5-.3-.2-.6-.4-.9-.6-.2-.2-.5-.3-.7-.5-.3-.2-.6-.4-.9-.6-.2-.2-.5-.3-.7-.5-.3-.2-.6-.4-.9-.6-.2-.2-.5-.3-.7-.4-.3-.2-.6-.4-.9-.6-.2-.1-.5-.3-.7-.4-.3-.2-.6-.4-1-.5-.2-.1-.5-.3-.7-.4-.3-.2-.7-.4-1-.5-.2-.1-.5-.3-.7-.4-.3-.2-.7-.4-1-.5-.2-.1-.5-.2-.7-.4-.4-.2-.7-.3-1.1-.5-.2-.1-.5-.2-.7-.3-.4-.2-.7-.3-1.1-.5-.2-.1-.5-.2-.7-.3-.4-.2-.7-.3-1.1-.5-.2,0-.5-.2-.7-.3-.4-.2-.8-.3-1.2-.5-.2,0-.4-.2-.7-.3-.4-.2-.8-.3-1.2-.5-.2,0-.4-.1-.6-.2-.4-.2-.8-.3-1.3-.4-.2,0-.4-.1-.5-.2-.5-.2-.9-.3-1.4-.5-.1,0-.3,0-.4-.1-.5-.2-1-.3-1.5-.5,0,0,0,0,0,0-2.5-.7-5.1-1.4-7.7-1.9,0,0,0,0,0,0-.7-.1-1.4-.3-2.1-.4-.7-.1-1.3-.2-2-.3-4.7-.7-9.6-1.1-14.5-1.1s-1.5,0-2.3,0c-.2,0-.5,0-.7,0-.5,0-1,0-1.5,0-.3,0-.6,0-.9,0-.5,0-.9,0-1.4,0-.3,0-.6,0-.9,0-.4,0-.9,0-1.3.1-.3,0-.6,0-1,0-.4,0-.8,0-1.3.1-.3,0-.6,0-1,.1-.4,0-.8.1-1.2.2-.3,0-.6,0-1,.1-.4,0-.8.1-1.2.2-.3,0-.6.1-.9.2-.4,0-.9.2-1.3.2-.3,0-.6.1-.9.2-.5.1-1,.2-1.5.3-.3,0-.6.1-1,.2-.6.1-1.2.3-1.8.4-.3,0-.6.2-.9.3-.4.1-.8.2-1.1.3-.3,0-.7.2-1,.3-.3.1-.7.2-1,.3-.4.1-.7.2-1.1.3-.3.1-.7.2-1,.3-.4.1-.7.2-1.1.4-.3.1-.6.2-.9.3-.4.1-.7.3-1.1.4-.3.1-.6.2-.9.3-.4.1-.7.3-1.1.4-.3.1-.6.2-.8.3-.4.2-.8.3-1.1.5-.3.1-.5.2-.8.3-.4.2-.8.4-1.2.5-.2,0-.3.2-.5.2-1.6.7-3.1,1.5-4.6,2.3-.1,0-.3.2-.4.2-.4.2-.8.5-1.3.7-.2.1-.4.2-.6.3-.4.2-.8.5-1.2.7-.2.1-.4.2-.6.4-.4.2-.8.5-1.2.7-.2.1-.4.2-.6.4-.4.3-.8.5-1.2.8-.2.1-.4.2-.6.4-.4.3-.8.5-1.2.8-.2.1-.3.2-.5.3-.4.3-.8.6-1.2.9-.1,0-.2.2-.4.3-.7.5-1.3,1-1.9,1.5-.1.1-.3.2-.4.3-.6.5-1.2.9-1.8,1.4,0,0,0,0-.1.1-.6.5-1.2,1-1.7,1.4,0,0,0,0,0,0-19.7,17-32.2,42.1-32.2,70.1s4.4,32.4,12.2,46c.8,1.5,1.7,2.9,2.7,4.4,3.4-1.7,6.8-3.4,10.2-5.3,4.2-2.3,8.2-5,11.6-8.3.6-.6,1.1-1.1,1.7-1.7.3-.3.5-.6.8-.9.7-1.2,1.2-2.4,1.7-3.7.2-.9.4-1.8.5-2.6,1-5.4,2-10.8,3-16.2,0-.4.1-.8.2-1.2-2.3,2.9-6.5,5.4-10.1,3.4-2.4-1.3-3-3.6-2.6-5.9-1.9,1.5-4,2.6-6.6,2.4-4.1-.4-6.2-3.8-5.5-7.8.8-4.5,3.3-9.1,5.7-13,1.8-2.9,3.8-5.6,6.1-8.2-2.5-1.7-4.5-4-5.8-6.9-2.1-5-1.7-10.8,1.3-15.3,3-4.5,8.1-7.5,13.5-7.9.6,0,1.1,0,1.7,0,2.2-.3,4.5,0,6.6.9.2-.3.4-.6.6-.9,6.8-10.5,16.8-18.8,28.5-23.3,7.5-2.9,15.6-3.9,23.4-3,.8,0,1.6.2,2.5.3.1,0,.3,0,.4,0,.8.1,1.6.3,2.4.5,2.2.5,4.5,1.2,6.6,2,11,4.2,20.6,12.2,25.7,22.9,1,2,1.7,4.1,2.4,6.2.3.8.5,1.7.7,2.5.7,3,1.1,6,1.2,9,0,.9,0,1.9,0,2.8.8-.3,1.5-.5,2.3-.6,1.8-.3,3.6-.1,5.3.4,7.9,2.4,10.8,12.2,6.9,19.1-3.7,6.5-11.2,8.8-18,7.2.6,2.3,1.2,4.6,1.7,6.9.8,3.3,1.4,6.7,1.1,10.1-.2,2.3-.7,5.8-3.3,6.6-1.6.5-2.8-.2-3.7-1.3-1,3.1-2.7,6-6.3,6.3-2.4.2-3.9-1-4.9-2.8-.3,2.3-.7,4.6-1,6.9-.1.8-.2,1.7-.4,2.5,0,.2,0,.4,0,.6,1.9,1.3,3.3,3.4,3.8,5.6,0,.3.1.7.2,1,0,.3,0,.5,0,.8,1.9-.7,3.9-1.1,6-1,.6,0,1.3.1,1.9.3,1.4.3,2.6,1,3.6,1.8.9.8,1.5,1.7,2,2.8,0,0,0,0,0,.1,2,.4,4,.9,5.9,1.4,7.4,2,14.5,4.8,21.2,8.2,11-15.2,17.4-33.9,17.4-54.1s0-.2,0-.3"/>
  <path class="cls-5" d="M274.2,149.9c5.3.2,5.8-7.6.5-7.9-1.5,0-1.5-2.5,0-2.4,3.5.2,6.4,2.9,6.3,6.6-.1,3.6-3.2,6.2-6.7,6.1-1.5,0-1.5-2.4,0-2.4M266.9,158.8s0,0,.1,0c6.8,1.6,14.3-.7,18-7.2,3.9-6.9,1-16.7-6.9-19.1-1.7-.5-3.5-.6-5.3-.4-.2,9.1-2.2,18.1-5.8,26.4,0,0,0,.1,0,.2"/>
  <path class="cls-5" d="M233.2,221.6c-1.5,1.4-3,2.8-4.3,4.3-1.3,1.4-2.7,3.1-2.7,5,3.2-.6,5.9-2.7,8.1-5,2.7-2.7,5.1-5.7,7.6-8.7,2.4-2.9,4.7-5.8,6.9-8.8-1.9,1.4-3.8,2.8-5.6,4.3-3.4,2.8-6.7,5.7-9.9,8.7"/>
  <path class="cls-5" d="M267.7,205.9s0,0,0-.1c0,.4-.1.8-.2,1.2-.5,2.4-1.2,4.7-2,7,1-.5,2-1,3-1.4,1.7-.7,3.8-1.2,5.3.2,1.4,1.2,1.5,3.3,1.2,5-.6,4.1-2.5,7.9-4.8,11.3,3.1-.8,6.3-.7,8.1,2.4.2.4.4.9.5,1.3,6.1-5,11.5-10.8,16.1-17.2-6.8-3.4-13.9-6.2-21.2-8.2-2-.5-4-1-5.9-1.4"/>
  <path class="cls-5" d="M243.5,246.3c1.1-1.9,3.3-3.4,5-4.8,1.8-1.4,3.6-2.8,5.4-4.1,3.9-2.8,8.1-5.1,12.5-7,.8-1.1,1.5-2.2,2.2-3.3,1.2-1.9,2.3-3.8,3-5.9.6-1.7,1.4-4,1-5.7-.7-2.5-3.9-.4-5.3.3-1.1.6-2.3,1.2-3.4,1.8-2,4.2-4.5,8.2-7.6,11.8-2.8,3.2-5.9,6.1-9.4,8.5-1.6,1.1-3.6,2.7-5.5,3.2-1.6.4-2.9-.7-2.8-2.4.1-1.9,1.8-3.5,2.9-4.9,1.5-1.8,3-3.6,4.6-5.3,3.2-3.3,6.7-6.3,10.5-9,1.8-1.3,3.6-2.5,5.5-3.6,1.8-4.1,3-8.4,3.6-12.8-1-.9-2.2-1.5-3.6-1.8-.6-.2-1.3-.2-1.9-.3-1.8,1.1-3.6,2.3-5.4,3.4-3.9,5.3-7.9,10.6-12.2,15.6-4.6,5.5-9.8,13-17.6,13.5-.5,0-1-.4-1.1-.9-1.1-4.5,2.7-7.9,5.6-10.7,3.4-3.4,6.9-6.6,10.6-9.6,4.2-3.5,8.6-6.7,13.1-9.7.3-.5.7-.9,1-1.4,0-.3-.1-.7-.2-1-.6-2.3-1.9-4.3-3.8-5.6,0-.2,0-.4,0-.6-11.6,2.7-22.7,7.5-32.7,14-12.1,7.8-22.6,18.2-30.3,30.3-1.6,2.6-3.2,5.2-4.6,7.9.1,0,.3.1.4.2,0,0,.2,0,.3.1.4.2.8.3,1.2.5.2,0,.4.1.5.2.4.2.8.3,1.2.5.1,0,.3,0,.4.1.8.3,1.5.6,2.3.8.2,0,.5.2.7.2.4.1.7.2,1.1.4.3,0,.5.2.8.3.3.1.7.2,1,.3.5.1.9.3,1.4.4.4.1.8.2,1.2.3.3,0,.7.2,1,.3.3,0,.6.2.9.2.4,0,.7.2,1.1.3.3,0,.6.1.8.2.6.1,1.2.3,1.8.4.2,0,.5.1.8.1.4,0,.9.2,1.3.2.3,0,.5,0,.8.1.5,0,1,.2,1.5.2.2,0,.4,0,.6,0,.7,0,1.3.2,2,.3.2,0,.4,0,.6,0,.5,0,1,.1,1.5.2.2,0,.5,0,.7,0,.6,0,1.2.1,1.8.2.1,0,.2,0,.3,0,.7,0,1.4,0,2.1.1.2,0,.4,0,.6,0,.5,0,1.1,0,1.6,0,.2,0,.4,0,.6,0,.7,0,1.4,0,2.1,0,4.3,0,8.6-.3,12.7-.9,1.3-.2,2.5-.4,3.8-.6,2.6-.5,5.1-1,7.6-1.7-1.3-1.1-1.3-3.1-.5-4.5"/>
  <path class="cls-5" d="M274,231.1c-2-.5-4.1.4-6,1.2-2.3,3.2-4.9,6.2-7.7,8.9-2.7,2.6-5.6,5.1-8.7,7.2,9.1-3.3,17.5-8,25-13.8.1-1.6-.7-3.1-2.5-3.5"/>
  <path class="cls-5" d="M245.3,248.4c.2,1.5,2.4-.3,3-.7,1.5-1,2.9-2,4.3-3,3.1-2.4,6-5.1,8.7-8,.7-.7,1.3-1.5,1.9-2.2-5.8,3-11.1,6.9-16,11.2-.7.6-2.1,1.6-2,2.7"/>
  <path class="cls-5" d="M244.8,233.4c-.7.8-1.3,1.6-2,2.4-.5.7-1.4,1.5-1.7,2.3-.2.6-.4.4,0,.3.4,0,.9-.5,1.3-.7.7-.4,1.4-.8,2-1.2,6.4-4.2,11.7-9.9,15.5-16.6-2.5,1.6-4.9,3.4-7.1,5.4-2.9,2.5-5.6,5.2-8.1,8.1"/>
  <path class="cls-5" d="M211.4,129.7c-.4-.6-.3-1.3-.2-2,0-.4.2-.7.3-1.1.2-1.4.6-3.4,2.3-2.7,1.7.6,1,3.1.8,4.4-.2.8-.4,1.5-1.1,1.9-.7.4-1.6.2-2-.5M218.2,154.7c5,3.5,11.3,4.3,17,2.2,1.4-.5,2.1,1.8.6,2.3-6.2,2.3-13.4,1.4-18.8-2.4-1.2-.9,0-2.9,1.2-2.1M227.2,147c2.5,0,4.9.1,7.4.2l-5.8-13.9c-.6-1.4,1.7-2,2.3-.6l6.4,15.4c.3.7-.5,1.5-1.1,1.5-3.1,0-6.1-.1-9.2-.2-1.5,0-1.5-2.4,0-2.4M172.6,125.3c-5.2-1.1-6.8,6.5-1.6,7.8,1.5.4.9,2.7-.6,2.3-3.4-.8-5.7-4.2-4.9-7.7.8-3.5,4.3-5.4,7.8-4.7,1.5.3.9,2.6-.6,2.3M246.4,135.6c0-.4.2-.7.3-1.1.2-1.4.6-3.4,2.3-2.7,1.7.6,1,3.1.8,4.4-.2.8-.4,1.5-1.1,1.9-.7.4-1.6.2-2-.5-.4-.6-.3-1.3-.2-2M202.2,217c13.6-12.5,30.4-21.4,48.4-25.5.3-2.3.7-4.6,1-6.9.5-3.6,1-7.2,1.5-10.8,4.3-4.8,8.1-10.1,11-15.9.1,0,.3.1.4.2.5-1.1.9-2.2,1.3-3.3,3-7.9,4.5-16.4,4.5-24.9-.1-3-.5-6.1-1.2-9-9.1-1.5-17.1-7.1-24.4-12.5-5.6-4.2-11.2-9.1-14.2-15.4-3.4,5.2-8,9.7-13.3,13-9.5,6-20.6,7.1-31.5,7.7-.8,1.8-1.7,3.5-2.7,5.3-1.7-2.3-3.8-4.2-6.5-5.3-.2,0-.3-.1-.5-.2-2.1-.8-4.4-1.1-6.6-.9-.6,0-1.1,0-1.7,0-5.4.4-10.5,3.4-13.5,7.9-3,4.5-3.4,10.4-1.3,15.3,1.2,2.9,3.3,5.2,5.8,6.9,2.1,1.4,4.4,2.3,6.9,2.7,3.7.6,7.4.2,10.9-1,0,.3.1.6.2.9,0,.2,0,.3,0,.5.1.2.3.4.4.6,1.3,4,3.8,7.6,6.3,10.9,3.1,4,6.5,7.7,10.4,11,5.8,4.9,12.3,8.8,19.2,11.6-15-.5-29.3-7.5-39.2-18.7-.7,3.6-1.3,7.2-2,10.8,0,.4-.1.8-.2,1.2-1,5.4-2,10.8-3,16.2-.2.8-.3,1.7-.5,2.6-.5,1.3-1,2.5-1.7,3.7-.3.3-.5.6-.8.9,10.4,9.4,22.9,16.5,36.5,20.5,0,0,0,0,0,0"/>
  <path class="cls-6" d="M183.1,119c1-1.7,1.9-3.5,2.7-5.3,10.9-.6,22-1.7,31.5-7.7,5.3-3.3,9.9-7.8,13.3-13,3,6.2,8.6,11.2,14.2,15.4,7.3,5.4,15.3,11,24.4,12.5-.2-.9-.4-1.7-.7-2.5-.6-2.1-1.4-4.2-2.4-6.2-5.1-10.7-14.7-18.8-25.7-22.9-2.2-.8-4.4-1.5-6.6-2-.8-.2-1.6-.3-2.4-.5-.1,0-.3,0-.4,0-.8-.1-1.6-.2-2.5-.3-7.9-.9-15.9.1-23.4,3-11.7,4.5-21.7,12.8-28.5,23.3-.2.3-.4.6-.6.9.2,0,.3.1.5.2,2.6,1.2,4.8,3.1,6.5,5.3"/>
  <path class="cls-6" d="M264.6,158.1c-.1,0-.3-.1-.4-.2-2.9,5.8-6.7,11.1-11,15.9-.5,3.6-1,7.2-1.5,10.8,1,1.8,2.5,3,4.9,2.8,3.6-.3,5.4-3.2,6.3-6.3.9,1.1,2.1,1.8,3.7,1.3,2.6-.8,3.1-4.3,3.3-6.6.3-3.4-.3-6.8-1.1-10.1-.5-2.3-1.1-4.6-1.7-6.9,0,0,0,0-.1,0,0,0,0-.1,0-.2,3.6-8.3,5.6-17.3,5.8-26.4-.8.1-1.6.3-2.3.6,0-.9,0-1.9,0-2.8,0,8.5-1.5,16.9-4.5,24.9-.4,1.1-.9,2.2-1.3,3.3"/>
  <path class="cls-6" d="M173.3,123c-3.4-.7-7,1.2-7.8,4.7-.8,3.5,1.5,6.8,4.9,7.7,1.5.4,2.1-1.9.6-2.3-5.2-1.2-3.6-8.9,1.6-7.8,1.5.3,2.1-2,.6-2.3"/>
  <path class="cls-6" d="M274.2,152.3c3.5.1,6.6-2.5,6.7-6.1.1-3.6-2.8-6.4-6.3-6.6-1.5,0-1.5,2.3,0,2.4,5.3.3,4.8,8.1-.5,7.9-1.5,0-1.5,2.3,0,2.4"/>
  <path class="cls-6" d="M241.8,217.4c-2.4,2.9-4.9,6-7.6,8.7-2.3,2.3-4.9,4.4-8.1,5,0-1.9,1.5-3.7,2.7-5,1.4-1.5,2.9-2.9,4.3-4.3,3.2-3,6.5-5.9,9.9-8.7,1.8-1.5,3.7-2.9,5.6-4.3-2.3,3-4.6,5.9-6.9,8.8M240.1,212.3c-3.7,3-7.2,6.2-10.6,9.6-2.9,2.8-6.7,6.3-5.6,10.7.1.5.6.9,1.1.9,7.8-.5,13.1-8,17.6-13.5,4.2-5.1,8.3-10.3,12.2-15.6,1.8-1.2,3.6-2.3,5.4-3.4-2,0-4,.4-6,1,0-.3,0-.5,0-.8-.3.5-.7.9-1,1.4-4.5,3-8.9,6.3-13.1,9.7"/>
  <path class="cls-6" d="M217.6,208c10-6.5,21.1-11.3,32.7-14,.1-.8.2-1.7.4-2.5-18,4.1-34.9,13-48.4,25.5,0,0,0,0,0,0-13.5-4-26-11-36.5-20.5-.5.6-1.1,1.2-1.7,1.7,10.4,9.4,22.8,16.5,36.2,20.7-4.1,4-7.9,8.3-11.3,12.9-3.2,4.3-5.9,8.8-8.3,13.5.7.3,1.4.7,2.1,1,1.4-2.7,2.9-5.3,4.6-7.9,7.8-12.1,18.3-22.5,30.3-30.3"/>
  <path class="cls-6" d="M261.3,236.7c-2.7,2.9-5.6,5.6-8.7,8-1.4,1.1-2.8,2.1-4.3,3-.6.4-2.9,2.2-3,.7-.1-1.1,1.3-2.1,2-2.7,4.8-4.3,10.2-8.2,16-11.2-.6.8-1.3,1.5-1.9,2.2M244.6,236.5c-.7.4-1.3.8-2,1.2-.3.2-.9.6-1.3.7-.5.1-.3.2,0-.3.3-.8,1.1-1.7,1.7-2.3.6-.8,1.3-1.6,2-2.4,2.5-2.9,5.2-5.6,8.1-8.1,2.3-1.9,4.6-3.7,7.1-5.4-3.7,6.7-9.1,12.4-15.5,16.6M270.2,229c2.2-3.5,4.2-7.2,4.8-11.3.2-1.7.2-3.8-1.2-5-1.5-1.3-3.6-.9-5.3-.2-1,.4-2,.9-3,1.4.8-2.3,1.5-4.6,2-7,0-.4.2-.8.2-1.2-.4-1.1-1.1-2.1-2-2.8-.6,4.4-1.8,8.7-3.6,12.8-1.9,1.1-3.7,2.3-5.5,3.6-3.8,2.7-7.3,5.7-10.5,9-1.6,1.7-3.2,3.4-4.6,5.3-1.1,1.4-2.7,3-2.9,4.9-.1,1.6,1.2,2.7,2.8,2.4,1.9-.5,3.9-2,5.5-3.2,3.5-2.4,6.7-5.3,9.4-8.5,3-3.6,5.6-7.5,7.6-11.8,1.1-.6,2.3-1.2,3.4-1.8,1.4-.7,4.6-2.8,5.3-.3.5,1.8-.4,4.1-1,5.7-.8,2.1-1.9,4-3,5.9-.7,1.1-1.4,2.2-2.2,3.3-4.4,1.9-8.6,4.3-12.5,7-1.9,1.3-3.7,2.7-5.4,4.1-1.7,1.4-3.9,2.9-5,4.8-.8,1.4-.8,3.4.5,4.5,2.6-.7,5.1-1.5,7.6-2.4,3.1-2.2,6-4.6,8.7-7.2,2.8-2.7,5.4-5.7,7.7-8.9,1.8-.8,4-1.7,6-1.2,1.8.4,2.7,1.9,2.6,3.5.8-.6,1.5-1.2,2.3-1.9-.1-.4-.3-.9-.5-1.3-1.7-3.1-5-3.1-8.1-2.4"/>
  <path class="cls-5" d="M200.2,218.9c-13.4-4.2-25.8-11.3-36.2-20.7-3.4,3.3-7.5,6-11.6,8.3-3.3,1.9-6.7,3.6-10.2,5.3,5.3,8.2,11.8,15.4,19.4,21.5h0s0,0,.1,0c.6.5,1.3,1,1.9,1.5,0,0,0,0,.1,0,.7.5,1.4,1,2.1,1.5,0,0,0,0,0,0,1,.7,2,1.4,3,2,0,0,0,0,0,0,.4.3.8.5,1.2.8.2.1.4.3.6.4.7.5,1.5.9,2.2,1.4,0,0,.1,0,.2,0,1.8,1.1,3.7,2.1,5.6,3,.1,0,.2.1.3.2.4.2.9.4,1.3.6,0,0,0,0,0,0,0,0,.1,0,.2,0,2.4-4.7,5.2-9.2,8.3-13.5,3.4-4.6,7.2-8.9,11.3-12.9"/>
  <path class="cls-6" d="M213.1,179.9c-7-2.8-13.5-6.7-19.2-11.6-3.9-3.3-7.3-7-10.4-11-2.5-3.3-4.9-6.9-6.3-10.9-.1-.2-.3-.4-.4-.6,0-.2,0-.3,0-.5,0-.3-.2-.6-.2-.9-3.5,1.2-7.2,1.7-10.9,1-2.5-.4-4.9-1.4-6.9-2.7-2.3,2.5-4.3,5.3-6.1,8.2-2.4,3.9-4.9,8.5-5.7,13-.7,3.9,1.4,7.4,5.5,7.8,2.6.2,4.8-.8,6.6-2.4-.3,2.3.2,4.6,2.6,5.9,3.7,2,7.8-.5,10.1-3.4.7-3.6,1.3-7.2,2-10.8,9.8,11.2,24.2,18.2,39.2,18.7"/>
  <path class="cls-6" d="M227.2,149.3c3.1,0,6.1.1,9.2.2.7,0,1.5-.8,1.2-1.5l-6.5-15.4c-.6-1.4-2.9-.8-2.3.6l5.8,13.9c-2.5,0-4.9-.1-7.4-.2-1.5,0-1.5,2.3,0,2.4"/>
  <path class="cls-6" d="M248.6,138.1c.7-.4,1-1.1,1.1-1.9.3-1.3.9-3.8-.8-4.4-1.7-.7-2.1,1.3-2.3,2.7,0,.4-.2.7-.3,1.1-.2.7-.2,1.4.2,2,.5.7,1.3.9,2,.5"/>
  <path class="cls-6" d="M214.6,128.3c.3-1.3.9-3.8-.8-4.4-1.7-.7-2.1,1.3-2.3,2.7,0,.4-.2.7-.3,1.1-.2.7-.2,1.4.2,2,.5.7,1.3.9,2,.5.7-.4,1-1.1,1.1-1.9"/>
  <path class="cls-6" d="M217,156.7c5.4,3.8,12.6,4.8,18.8,2.4,1.4-.5.8-2.8-.6-2.3-5.7,2.1-12,1.3-17-2.2-1.3-.9-2.4,1.2-1.2,2.1"/>
  <path class="cls-9" d="M402.2,246.4h-9.4c0-4.9.1-10,.2-15h9.2v15ZM402.2,263h-9.7c0,0,.1-.2.1-.3,0-4.8.1-9.6.2-14.4h9.4c0,0,0,14.8,0,14.8ZM402.2,288.8h-9.4c0-4.9.1-10,.2-15h9.2v15ZM402.2,305.4h-9.7c0,0,.1-.2.1-.3,0-4.8.1-9.6.2-14.4h9.4c0,0,0,14.8,0,14.8ZM402.2,329.9h-9.4c0-4.9.1-10,.2-15h9.2v15ZM402.2,346.5h-9.7c0,0,.1-.2.1-.3,0-4.8.1-9.6.2-14.4h9.4c0,0,0,14.8,0,14.8ZM391,246.5c-3.5,0-6.9,0-10.4,0v-15.1h10.6c0,5-.1,10-.2,15.1M391,288.8c-3.5,0-6.9,0-10.4,0v-15.1h10.6c0,5-.1,10-.2,15.1M391,330c-3.5,0-6.9,0-10.4,0v-15.1h10.6c0,5-.1,10-.2,15.1M390.9,346.5h-10.3v-14.7c3.5,0,6.9,0,10.4,0,0,4.8-.1,9.6-.2,14.4,0,.1,0,.2.1.3M390.9,305.4h-10.3v-14.7c3.5,0,6.9,0,10.4,0,0,4.8-.1,9.6-.2,14.4,0,.1,0,.2.1.3M390.9,263h-10.3v-14.7c3.5,0,6.9,0,10.4,0,0,4.8-.1,9.6-.2,14.4,0,.1,0,.2.1.3M371.1,189c3.6,0,7.1,0,10.7,0v17.2h-10.6c0-5.7,0-11.5-.1-17.2M370.9,169.6c6.2.2,10.8,5.1,10.8,5.1v12.2c-3.6,0-7.1,0-10.7,0v-17.2ZM360.2,206.3v-17.3c3,0,6.1,0,9.1,0,0,5.8,0,11.5.1,17.3h-9.3ZM364.6,246.4c-3.1,0-6.3,0-9.4,0,0-5,.1-10,.2-15h9.2v15ZM364.6,263h-9.7c0,0,.1-.2.1-.3,0-4.8.1-9.6.2-14.4h9.4c0,0,0,14.8,0,14.8ZM364.6,288.8c-3.1,0-6.3,0-9.4,0,0-5,.1-10,.2-15h9.2v15ZM364.6,305.4h-9.7c0,0,.1-.2.1-.3,0-4.8.1-9.6.2-14.4h9.4c0,0,0,14.8,0,14.8ZM364.6,329.9c-3.1,0-6.3,0-9.4,0,0-5,.1-10,.2-15h9.2v15ZM364.6,346.5h-9.7c0,0,.1-.2.1-.3,0-4.8.1-9.6.2-14.4h9.4c0,0,0,14.8,0,14.8ZM353.4,246.5h-10.4c0,0,0-15.1,0-15.1h10.6c0,5-.1,10-.2,15.1M353.4,288.8h-10.4c0,0,0-15.1,0-15.1h10.6c0,5-.1,10-.2,15.1M353.4,330c-3.5,0-6.9,0-10.4,0v-15.1h10.6c0,5-.1,10-.2,15.1M353.3,346.5h-10.4v-14.7c3.5,0,6.9,0,10.4,0,0,4.8-.1,9.6-.2,14.4,0,.1,0,.3.1.3M343,290.7c3.5,0,6.9,0,10.4,0,0,4.8-.1,9.6-.2,14.4,0,.1,0,.3.1.3h-10.4v-14.7ZM343,248.3c3.5,0,6.9,0,10.4,0,0,4.8-.1,9.6-.2,14.4,0,.1,0,.3.1.3h-10.4v-14.7ZM360.2,174.7c3-3.4,6.1-4.8,9-5.1,0,5.7,0,11.4.1,17.1-3,0-6.1,0-9.1,0v-12ZM416.8,210.5l-.4-1.1-4.8-13.1-.4-1-1.1-3-3.2-8.7-8.4-23-.6-1.8-4.6-12.5-.4-1-6.4-17.5-.2-.5-3.3-9.1-2-5.4-1.1-3-5.3-14.4-49.9,125.5,2,181.3h93.9v-181.3l-3.9-10.6Z"/>
  <path class="cls-2" d="M510.7,262.6c-3.1,0-6.3,0-9.4,0l.2-15h9.2v15ZM510.7,279.2h-9.7c0,0,.1-.2.1-.3l.2-14.4h9.4c0,0,0,14.8,0,14.8ZM510.7,304.9c-3.1,0-6.3,0-9.4,0,0-5,.1-10,.2-15h9.2v15ZM510.7,321.5h-9.7c0,0,.1-.2.1-.3,0-4.8.1-9.6.2-14.4h9.4c0,0,0,14.8,0,14.8ZM499.5,262.7c-3.5,0-6.9,0-10.4,0v-15.1h10.6l-.2,15.1M499.5,305c-3.5,0-6.9,0-10.4,0v-15.1h10.6c0,5-.1,10-.2,15.1M499.4,321.5h-10.3v-14.7c3.5,0,6.9,0,10.4,0,0,4.8-.1,9.6-.2,14.4,0,.1,0,.2.1.3M452.6,402.3v-37s9.5-16.7,21.5,0l.9,37h-22.4ZM451.5,306.9c3.5,0,6.9,0,10.4,0,0,4.8-.1,9.6-.2,14.4,0,.1,0,.3.1.3h-10.4v-14.7ZM451.5,289.9h10.6c0,5-.1,10-.2,15.1-3.5,0-6.9,0-10.4,0v-15.1ZM451.5,264.6c3.5,0,6.9,0,10.4,0,0,4.8-.1,9.6-.2,14.4,0,.1,0,.3.1.3h-10.4v-14.7ZM451.5,247.7h10.6l-.2,15.1c-3.5,0-6.9,0-10.4,0v-15.1ZM473.1,306.7v14.8h-9.7c0,0,.1-.2.1-.3,0-4.8.1-9.6.2-14.4,3.1,0,6.3,0,9.4,0M463.6,305c0-5,.1-10,.2-15h9.2v15c-3.1,0-6.3,0-9.4,0M463.4,278.9c0-4.8.1-9.6.2-14.4,3.1,0,6.3,0,9.4,0v14.8h-9.7c0,0,.1-.2.1-.3M463.8,247.7h9.2v15c-3.1,0-6.3,0-9.4,0,0-5,.1-10,.2-15M489.1,264.6c3.5,0,6.9,0,10.4,0,0,4.8-.1,9.6-.2,14.4,0,.1,0,.2.1.3h-10.3v-14.7ZM420.7,402.4h112.6v-181.3h-112.6v181.3Z"/>
  <path class="cls-2" d="M355,262.6c0,.1,0,.3-.1.3h9.7v-14.8c-3.1,0-6.3,0-9.4,0,0,4.8-.1,9.6-.2,14.4"/>
  <path class="cls-2" d="M343,246.5c3.5,0,6.9,0,10.4,0,0-5,.1-10,.2-15.1h-10.6v15.1Z"/>
  <path class="cls-2" d="M353.2,262.6c0-4.8.1-9.6.2-14.4-3.5,0-6.9,0-10.4,0v14.7h10.4c0,0-.1-.2-.1-.3"/>
  <path class="cls-2" d="M355.2,246.4c3.1,0,6.3,0,9.4,0v-15h-9.2c0,5-.1,10-.2,15"/>
  <path class="cls-12" d="M380.6,248.3v14.7h10.3c0,0-.1-.2-.1-.3,0-4.8.1-9.6.2-14.4-3.5,0-6.9,0-10.4,0"/>
  <path class="cls-12" d="M392.8,246.4h9.4v-15h-9.2c0,5-.1,10-.2,15"/>
  <path class="cls-12" d="M392.6,262.6c0,.1,0,.2-.1.3h9.7v-14.8h-9.4c0,4.9-.1,9.7-.2,14.5"/>
  <path class="cls-12" d="M380.6,246.5c3.5,0,6.9,0,10.4,0,0-5,.1-10,.2-15.1h-10.6v15.1Z"/>
  <path class="cls-12" d="M355.2,288.8c3.1,0,6.3,0,9.4,0v-15h-9.2c0,5-.1,10-.2,15"/>
  <path class="cls-12" d="M355,305c0,.1,0,.3-.1.3h9.7v-14.8c-3.1,0-6.3,0-9.4,0,0,4.8-.1,9.6-.2,14.4"/>
  <path class="cls-12" d="M353.2,305c0-4.8.1-9.6.2-14.4-3.5,0-6.9,0-10.4,0v14.7h10.4c0,0-.1-.2-.1-.3"/>
  <path class="cls-12" d="M343,288.9c3.5,0,6.9,0,10.4,0,0-5,.1-10,.2-15.1h-10.6v15.1Z"/>
  <path class="cls-12" d="M392.8,288.8h9.4v-15h-9.2c0,5-.1,10-.2,15"/>
  <path class="cls-12" d="M380.6,290.7v14.7h10.3c0,0-.1-.2-.1-.3,0-4.8.1-9.6.2-14.4-3.5,0-6.9,0-10.4,0"/>
  <path class="cls-12" d="M380.6,288.9c3.5,0,6.9,0,10.4,0,0-5,.1-10,.2-15.1h-10.6v15.1Z"/>
  <path class="cls-12" d="M392.6,305c0,.1,0,.2-.1.3h9.7v-14.8h-9.4c0,4.9-.1,9.7-.2,14.5"/>
  <path class="cls-12" d="M355.2,330c3.1,0,6.3,0,9.4,0v-15h-9.2c0,5-.1,10-.2,15"/>
  <path class="cls-12" d="M343,331.8v14.7h10.4c0,0-.1-.2-.1-.3,0-4.8.1-9.6.2-14.4-3.5,0-6.9,0-10.4,0"/>
  <path class="cls-12" d="M355,346.2c0,.1,0,.3-.1.3h9.7v-14.8c-3.1,0-6.3,0-9.4,0,0,4.8-.1,9.6-.2,14.4"/>
  <path class="cls-12" d="M343,330.1c3.5,0,6.9,0,10.4,0,0-5,.1-10,.2-15.1h-10.6v15.1Z"/>
  <path class="cls-8" d="M380.6,331.8v14.7h10.3c0,0-.1-.2-.1-.3,0-4.8.1-9.6.2-14.4-3.5,0-6.9,0-10.4,0"/>
  <path class="cls-8" d="M392.6,346.2c0,.1,0,.2-.1.3h9.7v-14.8h-9.4c0,4.9-.1,9.7-.2,14.5"/>
  <path class="cls-8" d="M380.6,330.1c3.5,0,6.9,0,10.4,0,0-5,.1-10,.2-15.1h-10.6v15.1Z"/>
  <path class="cls-8" d="M392.8,330h9.4v-15h-9.2c0,5-.1,10-.2,15"/>
  <path class="cls-10" d="M473.1,264.4h-9.4c0,4.9-.1,9.7-.2,14.5,0,.1,0,.3-.1.3h9.7v-14.8Z"/>
  <path class="cls-10" d="M461.7,278.9c0-4.8.1-9.6.2-14.4-3.5,0-6.9,0-10.4,0v14.7h10.4c0,0-.1-.2-.1-.3"/>
  <path class="cls-10" d="M473.1,247.7h-9.2c0,5-.1,10-.2,15,3.1,0,6.3,0,9.4,0v-15Z"/>
  <path class="cls-10" d="M462,247.7h-10.6v15.1c3.5,0,6.9,0,10.4,0l.2-15.1"/>
  <path class="cls-12" d="M501.3,262.7c3.1,0,6.3,0,9.4,0v-15h-9.2c0,5-.1,10-.2,15"/>
  <path class="cls-12" d="M489.1,262.8c3.5,0,6.9,0,10.4,0,0-5,.1-10,.2-15.1h-10.6v15.1Z"/>
  <path class="cls-12" d="M501.1,278.9c0,.1,0,.2-.1.3h9.7v-14.8h-9.4c0,0-.2,14.5-.2,14.5Z"/>
  <path class="cls-12" d="M499.3,278.9c0-4.8.1-9.6.2-14.4-3.5,0-6.9,0-10.4,0v14.7h10.3c0,0-.1-.2-.1-.3"/>
  <path class="cls-12" d="M461.7,321.2c0-4.8.1-9.6.2-14.4-3.5,0-6.9,0-10.4,0v14.7h10.4c0,0-.1-.2-.1-.3"/>
  <path class="cls-12" d="M462,289.9h-10.6v15.1c3.5,0,6.9,0,10.4,0,0-5,.1-10,.2-15.1"/>
  <path class="cls-12" d="M463.4,321.2c0,.1,0,.3-.1.3h9.7v-14.8c-3.1,0-6.3,0-9.4,0,0,4.8-.1,9.6-.2,14.4"/>
  <path class="cls-12" d="M473.1,289.9h-9.2c0,5-.1,10-.2,15,3.1,0,6.3,0,9.4,0v-15Z"/>
  <path class="cls-12" d="M489.1,306.9v14.7h10.3c0,0-.1-.2-.1-.3,0-4.8.1-9.6.2-14.4-3.5,0-6.9,0-10.4,0"/>
  <path class="cls-12" d="M501.3,305c3.1,0,6.3,0,9.4,0v-15h-9.2c0,5-.1,10-.2,15"/>
  <path class="cls-12" d="M501.1,321.2c0,.1,0,.2-.1.3h9.7v-14.8h-9.4c0,4.9-.1,9.7-.2,14.5"/>
  <path class="cls-12" d="M489.1,305.1c3.5,0,6.9,0,10.4,0,0-5,.1-10,.2-15.1h-10.6v15.1Z"/>
  <path class="cls-10" d="M404.3,176.5c37.8.2,75.6.6,113.4,1.2l-5.2-14.5c-37.8-.6-75.7-.9-113.5-1.2l5.3,14.5Z"/>
  <path class="cls-10" d="M407,183.8l3.2,8.7c37.8.2,75.5.7,113.3,1.2l-4.7-13c-37.8-.6-75.6-1-113.4-1.2l1.6,4.3Z"/>
  <path class="cls-10" d="M397.9,159c37.9.2,75.7.6,113.6,1.2l-4.5-12.5c-37.9-.6-75.8-1-113.7-1.2l4.6,12.5Z"/>
  <path class="cls-10" d="M494,111.2l-3.3-9.3-115.9-6.3,5.3,14.4c38,.2,76,.6,114,1.1"/>
  <path class="cls-10" d="M383.1,118.4l3.3,9.1c37.9.2,75.9.6,113.8,1.2l-5.2-14.5c-38-.5-76-.9-113.9-1.1l2,5.4Z"/>
  <path class="cls-10" d="M392.3,143.5c37.9.2,75.8.6,113.7,1.2l-4.7-13c-37.9-.6-75.9-1-113.8-1.2l4.8,13Z"/>
  <path class="cls-10" d="M420.7,221.1h112.6l-3.3-9.3c-37.7-.6-75.4-1-113.2-1.2l3.9,10.6Z"/>
  <path class="cls-10" d="M411.6,196.4l4.1,11.1c37.7.2,75.5.7,113.2,1.2l-4.3-12.1c-37.8-.6-75.5-1-113.3-1.2l.4,1Z"/>
  <path class="cls-3" d="M381.1,113c38,.2,76,.6,113.9,1.1l-1.1-3c-38-.5-76-.9-114-1.1l1.1,3Z"/>
  <path class="cls-3" d="M386.4,127.5l.2.5.9,2.5c37.9.2,75.9.6,113.8,1.2l-1.1-3c-37.9-.6-75.9-1-113.8-1.2"/>
  <path class="cls-3" d="M393,145.5l.4,1c37.9.2,75.8.6,113.7,1.2l-1.1-3c-37.9-.6-75.8-1-113.7-1.2l.7,2Z"/>
  <path class="cls-3" d="M398.6,160.8l.4,1.2c37.9.2,75.7.6,113.5,1.2l-1.1-3c-37.9-.5-75.7-.9-113.6-1.2l.6,1.8Z"/>
  <path class="cls-3" d="M405.4,179.4c37.8.2,75.6.7,113.4,1.2l-1.1-3c-37.8-.6-75.6-1-113.4-1.2l1.1,3Z"/>
  <path class="cls-3" d="M411.3,195.4c37.8.2,75.5.7,113.3,1.2l-1.1-3c-37.8-.6-75.5-1-113.3-1.2l1.1,3Z"/>
  <path class="cls-3" d="M416.4,209.5l.4,1.1c37.7.2,75.4.7,113.2,1.2l-1.1-3c-37.7-.6-75.5-1-113.2-1.2l.7,1.9Z"/>
  <path class="cls-12" d="M381.8,189.1c-3.6,0-7.1,0-10.7,0,0,5.7,0,11.5.1,17.2h10.6v-17.1Z"/>
  <path class="cls-12" d="M360.2,189v17.3h9.3c0-5.8,0-11.5-.1-17.3-3,0-6.1,0-9.1,0"/>
  <path class="cls-12" d="M369.2,169.6c-2.9.3-5.9,1.7-9,5.1v12c3,0,6.1,0,9.1,0,0-5.7,0-11.4-.1-17.1"/>
  <path class="cls-12" d="M381.8,174.7s-4.7-4.9-10.8-5.1v17.2c3.7,0,7.3,0,10.8,0v-12.2Z"/>
  <path class="cls-9" d="M452.6,365.2v37h22.4l-.9-37c-12-16.7-21.5,0-21.5,0"/>
  <path class="cls-4" d="M163.9,267.7c0-.2-.1-.4-.2-.6-.2-.5-.4-1-.6-1.4,0-.2-.2-.5-.3-.7-.2-.4-.3-.8-.5-1.2-.1-.3-.2-.5-.4-.8-.2-.4-.3-.8-.5-1.1-.1-.3-.3-.6-.4-.8-.2-.4-.3-.7-.5-1.1-.1-.3-.3-.6-.4-.8-.2-.3-.4-.7-.5-1-.1-.3-.3-.6-.5-.8-.2-.3-.4-.7-.6-1-.2-.3-.3-.6-.5-.8-.2-.3-.4-.7-.6-1-.2-.3-.3-.6-.5-.8-.2-.3-.4-.6-.6-.9-.2-.3-.4-.6-.5-.8-.2-.3-.4-.6-.6-.9-.2-.3-.4-.5-.6-.8-.2-.3-.4-.6-.6-.9-.2-.3-.4-.5-.6-.8-.2-.3-.4-.6-.6-.9-.2-.3-.4-.5-.6-.8-.2-.3-.4-.6-.6-.9-.2-.3-.4-.5-.6-.8-.2-.3-.4-.6-.7-.8-.2-.3-.4-.5-.6-.8-.2-.3-.4-.5-.7-.8-.2-.3-.4-.5-.7-.8-.2-.3-.5-.5-.7-.8-.2-.2-.5-.5-.7-.7-.2-.3-.5-.5-.7-.8-.2-.2-.5-.5-.7-.7-.2-.2-.5-.5-.7-.7-.2-.2-.5-.5-.7-.7-.2-.2-.5-.5-.7-.7-.2-.2-.5-.5-.7-.7-.2-.2-.5-.5-.7-.7-.2-.2-.5-.5-.8-.7-.3-.2-.5-.4-.8-.7-.3-.2-.5-.4-.8-.7-.3-.2-.5-.4-.8-.6-.3-.2-.5-.4-.8-.6-.3-.2-.5-.4-.8-.6-.3-.2-.5-.4-.8-.6-.3-.2-.5-.4-.8-.6-.3-.2-.6-.4-.8-.6-.3-.2-.5-.4-.8-.6-.3-.2-.6-.4-.8-.6-.3-.2-.5-.4-.8-.6-.3-.2-.6-.4-.9-.6-.3-.2-.5-.4-.8-.5-.3-.2-.6-.4-.9-.6-.3-.2-.5-.3-.8-.5-.3-.2-.6-.4-.9-.5-.3-.2-.6-.3-.8-.5-.3-.2-.6-.4-.9-.5-.3-.2-.6-.3-.8-.5-.3-.2-.6-.3-.9-.5-.3-.1-.6-.3-.8-.4-.3-.2-.6-.3-.9-.5-.3-.1-.6-.3-.8-.4-.3-.2-.6-.3-1-.5-.3-.1-.6-.3-.9-.4-.3-.1-.7-.3-1-.4-.3-.1-.6-.3-.9-.4-.3-.1-.7-.3-1-.4-.3-.1-.6-.2-.9-.4-.3-.1-.7-.3-1-.4-.3-.1-.6-.2-.9-.3-.3-.1-.7-.3-1-.4-.3-.1-.6-.2-.9-.3-.3-.1-.7-.2-1-.4-.3,0-.6-.2-.9-.3-.3-.1-.7-.2-1.1-.3-.3,0-.6-.2-.9-.3-.4-.1-.7-.2-1.1-.3-.3,0-.6-.2-.9-.2-.4,0-.7-.2-1.1-.3-.3,0-.6-.1-.9-.2-.4,0-.7-.2-1.1-.3-.3,0-.6-.1-.9-.2-.4,0-.7-.2-1.1-.2-.3,0-.6-.1-.9-.2-.4,0-.8-.1-1.1-.2-.3,0-.6-.1-.9-.2-.4,0-.8-.1-1.1-.2-.3,0-.6,0-.9-.1-.4,0-.8-.1-1.2-.2-.3,0-.6,0-.9-.1-.4,0-.8,0-1.2-.1-.3,0-.6,0-.9,0-.4,0-.8,0-1.2-.1-.3,0-.6,0-.8,0-.4,0-.8,0-1.2,0-.3,0-.6,0-.8,0-.4,0-.8,0-1.2,0-.3,0-.6,0-.8,0-.4,0-.8,0-1.2,0-.3,0-.5,0-.8,0-.4,0-.8,0-1.2,0-.3,0-.5,0-.8,0-.4,0-.8,0-1.3,0-.3,0-.5,0-.8,0-.4,0-.8,0-1.3,0-.3,0-.5,0-.8,0-.4,0-.9,0-1.3,0-.3,0-.5,0-.8,0-.4,0-.9,0-1.3.1-.2,0-.5,0-.7,0-.4,0-.9.1-1.3.2-.2,0-.5,0-.7.1-.5,0-.9.1-1.4.2-.2,0-.5,0-.7.1-.5,0-.9.2-1.4.2-.2,0-.4,0-.6.1-.5,0-.9.2-1.4.3-.2,0-.4,0-.6.1-.5.1-1,.2-1.5.3-.2,0-.3,0-.5.1-.5.1-1,.3-1.5.4-.1,0-.3,0-.4.1-.5.1-1.1.3-1.6.5,0,0-.2,0-.3,0-.6.2-1.2.4-1.8.5-.4.1-.7.2-1.1.4-.3.1-.6.2-.9.3-44.1,15.4-67.3,63.5-52,107.6,4.3,12.3,11.2,23,19.8,31.7,6.3-4.9,12.8-9.4,19.5-13.7.3-.2.5-.3.8-.5.1-1,.2-2,.3-3,.3-2.7.6-5.3.9-8,0-.7.2-1.5.2-2.2.3-2.5.5-4.9.8-7.4,0-.3,0-.7.1-1-1.2.3-2.4.4-3.6.5-.2,0-.5,0-.8,0,0,0-.2,0-.3,0-.6,0-1.3,0-1.9,0-1.7-.1-3.4-.5-5-1.1-10.5-3.7-16.1-16-11-26.1,2.3-4.7,6.6-8.1,11.7-9.2,3.4-.7,6.9-.3,10,1,.1,0,.3.1.4.2,1.3.6,2.5,1.3,3.5,2.2-.1-.7-.3-1.4-.4-2.1-.1-.6-.2-1.3-.3-1.9-1.5-8.9-1.9-18.3,3-26.2,5-8.1,14.5-12.8,22.8-16.8,9.8-4.8,20.3-8.3,31-10.5,4.5-.9,9.3-1.7,13.8-.5,3.8,1.1,7.5,3.6,8.8,7.5,1.3,3.7.1,7.8-2.1,10.9-1.5,2.2-3.6,3.9-5.8,5.4,2.3.6,4.6,1.4,6.6,2.6,2.9,1.8,5.4,4.5,6.2,7.9.7,3,0,6.1-1.7,8.7-.9,1.4-1.9,2.5-3.1,3.5-.8.7-1.7,1.2-2.6,1.7.2.4.4.7.5,1.1,1.7,3.6,3,7.4,3.8,11.3.3,1.3.5,2.7.6,4,.1,0,.2,0,.3,0,.7,0,1.3.1,2,.3,2.1.4,4.1,1.4,5.9,2.7,5.8,4.5,6.6,13.1,2.2,18.9-2.9,3.9-7.8,5.6-12.5,5-.7,0-1.3-.2-2-.4-.1,0-.3,0-.4-.1,0,.2-.2.3-.3.5-3.1,6.2-7.5,11.7-12.9,16,1.6,0,3.2.1,4.8.2.7,0,1.4,0,2,.1,9.2.7,18.3,2.3,27.3,4.8,2.1.6,4.3,1.2,6.4,1.9,0,0,0,0,0-.1.2-.2.3-.4.4-.7.2-.3.4-.6.6-1,.1-.2.3-.4.4-.6.2-.4.4-.7.7-1.1.1-.2.2-.4.4-.6.3-.5.6-1,.9-1.5,0,0,0,0,0-.1.3-.5.6-1.1.9-1.7.1-.2.2-.4.3-.6.2-.4.4-.7.6-1.1.1-.2.2-.4.3-.7.2-.3.3-.7.5-1,.1-.2.2-.5.3-.7.2-.3.3-.7.5-1,.1-.2.2-.5.3-.7.2-.4.3-.7.5-1.1,0-.2.2-.5.3-.7.2-.4.3-.8.5-1.2,0-.2.2-.4.2-.6.2-.6.4-1.1.6-1.7,0,0,0,0,0,0,.2-.6.4-1.2.6-1.8,0-.2.1-.4.2-.6.1-.4.3-.8.4-1.2,0-.2.1-.5.2-.7.1-.4.2-.8.3-1.1,0-.2.1-.5.2-.7.1-.4.2-.7.3-1.1,0-.2.1-.5.2-.8,0-.4.2-.8.3-1.1,0-.2.1-.5.2-.7,0-.4.2-.8.3-1.3,0-.2,0-.4.1-.6.1-.6.3-1.2.4-1.8,0,0,0,0,0,0,.1-.6.2-1.3.3-1.9,0-.2,0-.4,0-.6,0-.4.1-.9.2-1.3,0-.2,0-.5,0-.7,0-.4.1-.8.2-1.2,0-.3,0-.5,0-.8,0-.4,0-.8.1-1.2,0-.3,0-.5,0-.8,0-.4,0-.8,0-1.2,0-.2,0-.5,0-.7,0-.4,0-.9,0-1.3,0-.2,0-.4,0-.6,0-.6,0-1.3,0-1.9h0c0-.7,0-1.3,0-2,0-.2,0-.4,0-.6,0-.4,0-.9,0-1.3,0-.2,0-.5,0-.7,0-.4,0-.8,0-1.2,0-.3,0-.5,0-.8,0-.4,0-.8,0-1.2,0-.3,0-.5,0-.8,0-.4,0-.8-.1-1.2,0-.2,0-.5,0-.8,0-.4-.1-.9-.2-1.3,0-.2,0-.4,0-.6-.2-1.3-.4-2.6-.6-3.9,0-.2,0-.4-.1-.6,0-.4-.2-.9-.3-1.3,0-.2-.1-.5-.2-.7,0-.4-.2-.8-.3-1.2,0-.3-.1-.5-.2-.8,0-.4-.2-.8-.3-1.2,0-.3-.1-.5-.2-.8-.1-.4-.2-.8-.3-1.2,0-.2-.1-.5-.2-.7-.1-.4-.3-.9-.4-1.3,0-.2-.1-.4-.2-.6-.2-.7-.4-1.3-.7-2-.2-.7-.5-1.4-.7-2"/>
  <path class="cls-1" d="M43,297.5c-5,2.1-4.5,9,.4,10.8,1.2.4.3,2.2-.9,1.8-3-1.1-5.1-4-5.1-7.2,0-3.2,2-6,4.9-7.2,1.2-.5,1.8,1.4.6,1.9M78.2,295.2c0-.1,0-.3.1-.4,0-.1,0-.3.1-.4,0-.2.1-.3.2-.4.4-.7,1.1-1,1.9-.3.6.6.7,1.7.7,2.5,0,.9,0,1.9-.2,2.7-.2.8-.6,1.5-1.4,1.6-.8.2-1.5-.3-1.7-1.1-.4-1.4-.2-3,.3-4.4M101.2,316.2c1.2-.3,1.9,1.5.6,1.9-6,1.6-12.5.2-17.4-3.7-1-.8.3-2.3,1.3-1.5,4.3,3.4,10.1,4.7,15.5,3.3M96.4,309.1c2.1-.6,4.2-1.1,6.3-1.7-2.8-2.4-5.6-4.9-8.5-7.3-1-.8.3-2.3,1.3-1.5,3.3,2.9,6.6,5.7,9.9,8.6.5.5.4,1.5-.3,1.7-2.7.7-5.4,1.4-8.1,2.2-1.2.3-1.9-1.5-.6-1.9M112.9,295.6c0-.1,0-.3.1-.4,0-.1,0-.3.1-.4,0-.2.1-.3.2-.4.4-.7,1.1-1,1.9-.3.7.6.7,1.7.7,2.5,0,.9,0,1.9-.2,2.7-.2.8-.6,1.5-1.4,1.6-.8.2-1.5-.3-1.7-1.1-.4-1.4-.2-3,.3-4.4M55.7,357.5c10.3,9.6,25.4,11.9,38.4,7,11.7-4.4,20.7-14.4,24.8-26.1-1.6,0-3.2-.2-4.8-.2,5.4-4.3,9.8-9.8,12.9-16,0-.2.2-.3.3-.5.1,0,.3,0,.4.1,3.6-8.3,5.1-17.5,4.3-26.6-.1,0-.2,0-.3,0-.2-1.3-.4-2.7-.6-4-.8-3.9-2.1-7.7-3.8-11.3-7.4,2.2-15.4,1.9-22.9,0-10.7-2.7-20.3-8.5-29.7-14.2-3.8,4.8-8,9.3-12.7,13.3-2.3,2-4.8,4.1-7.4,5.7-1.4.8-2.9,1.5-4.4,1.8.1.7.3,1.4.4,2.1-1.1-.9-2.3-1.6-3.5-2.2,0,0,0,0,0,0-.2,0-.3,0-.4-.2-3.1-1.3-6.7-1.7-10-1-5.1,1-9.4,4.5-11.7,9.2-5,10.1.6,22.4,11,26.1,1.6.6,3.3.9,5,1.1.6,0,1.2,0,1.9,0,0,0,.2,0,.3,0,.2,0,.5,0,.8,0,0,0,0,0,.1,0,2.6-.3,5.1-1.3,7-2.9,8.4,11,18.3,22.5,31.7,26.5-3,.1-6.1-1.1-9-1.9-3.9-1.1-7.8-2.3-11.6-3.7-5.5-2-10.9-4.5-15.8-7.9-.3,2.7-.6,5.3-.9,8,1.5,6.7,5.2,12.9,10.2,17.6"/>
  <path class="cls-1" d="M135.8,311.9c2.5-1.9,2.1-5.4-.5-7.1-1.1-.7.2-2.2,1.3-1.5,3.7,2.4,3.7,7.6.3,10.2-1,.8-2.1-.8-1.1-1.6M142.1,317.2c4.3-5.8,3.6-14.4-2.2-18.9-1.7-1.3-3.8-2.3-5.9-2.7.7,9.1-.8,18.3-4.3,26.7,4.7.6,9.5-1.1,12.5-5"/>
  <path class="cls-1" d="M120.9,338.6c-2.2,6.6-5.9,12.8-10.8,17.8-10.2,10.4-25.6,15.1-39.8,11.4-12.1-3.2-22.1-12.6-25.9-24.4-6.7,4.2-13.2,8.8-19.5,13.7,22.2,22.4,56.1,31.3,87.8,20.3,1.4-.5,2.9-1.1,4.3-1.6,0,0,0,0,0,0,0,0,.2,0,.3-.1.6-.3,1.3-.5,1.9-.8.1,0,.2-.1.3-.1.6-.3,1.3-.6,1.9-.9.1,0,.2-.1.3-.2.6-.3,1.3-.6,1.9-.9,0,0,.2,0,.2-.1.7-.4,1.4-.7,2.1-1.1,0,0,0,0,0,0,.8-.4,1.6-.9,2.3-1.3,0,0,0,0,0,0,.6-.3,1.1-.7,1.7-1,.2-.1.4-.3.6-.4.4-.2.7-.5,1.1-.7.2-.1.4-.3.7-.4.3-.2.6-.4,1-.7.2-.2.5-.3.7-.5.3-.2.6-.4.9-.7.2-.2.4-.3.7-.5.3-.2.6-.5.9-.7.2-.2.4-.3.6-.5.3-.3.6-.5,1-.8.2-.1.4-.3.6-.4.4-.4.9-.7,1.3-1.1,0,0,.1-.1.2-.2.5-.4,1-.8,1.4-1.3.2-.2.3-.3.5-.5.3-.3.6-.6.9-.9.2-.2.4-.4.6-.5.3-.3.6-.5.8-.8.2-.2.4-.4.6-.6.3-.3.5-.5.8-.8.2-.2.4-.4.6-.6.3-.3.5-.6.8-.8.2-.2.4-.4.5-.6.3-.3.5-.6.8-.9.2-.2.3-.3.5-.5.4-.4.7-.9,1.1-1.3,0,0,.1-.1.2-.2.4-.5.8-1,1.2-1.5.1-.2.3-.3.4-.5.3-.3.5-.7.8-1,.2-.2.3-.4.5-.6.2-.3.5-.6.7-.9.2-.2.3-.4.5-.7.2-.3.4-.5.6-.8-2.1-.7-4.2-1.3-6.4-1.9-8.9-2.5-18.1-4.1-27.3-4.8"/>
  <path class="cls-6" d="M47,286.6s0,0,0,0c-.1,0-.3-.1-.4-.2.1,0,.2.1.4.2"/>
  <path class="cls-6" d="M54.6,284.9c2.7-1.6,5.1-3.7,7.4-5.7,4.6-4,8.9-8.5,12.7-13.3,9.4,5.7,18.9,11.5,29.7,14.2,7.5,1.9,15.5,2.2,22.9,0-.2-.4-.3-.7-.5-1.1.9-.5,1.8-1.1,2.6-1.7,1.2-1,2.2-2.1,3.1-3.5,1.6-2.6,2.4-5.7,1.7-8.7-.8-3.4-3.3-6.1-6.2-7.9-2-1.3-4.3-2.1-6.6-2.6,2.2-1.5,4.3-3.2,5.8-5.4,2.2-3.1,3.4-7.2,2.1-10.9-1.4-3.9-5-6.4-8.8-7.5-4.5-1.2-9.3-.4-13.8.5-10.7,2.2-21.1,5.8-31,10.5-8.3,4-17.8,8.7-22.8,16.8-4.9,7.9-4.4,17.3-3,26.2.1.6.2,1.3.3,1.9,1.6-.3,3-.9,4.4-1.8"/>
  <path class="cls-6" d="M62.1,339.8c3.8,1.4,7.7,2.6,11.6,3.7,2.9.8,6,2,9,1.9-13.3-4-23.3-15.5-31.7-26.5-2,1.6-4.4,2.6-7,2.9,0,0,0,0-.1,0,1.2,0,2.4-.2,3.6-.5,0,.3,0,.7-.1,1-.3,2.5-.5,4.9-.8,7.4,0,.7-.2,1.5-.2,2.2,4.8,3.3,10.2,5.8,15.8,7.9"/>
  <path class="cls-6" d="M129.6,322.2c3.6-8.4,5.1-17.6,4.3-26.7-.7-.1-1.3-.2-2-.3.8,9.1-.7,18.2-4.3,26.6.7.2,1.3.3,2,.4"/>
  <path class="cls-6" d="M136.9,313.5c3.4-2.6,3.4-7.8-.3-10.2-1-.7-2.3.8-1.3,1.5,2.6,1.7,2.9,5.2.5,7.1-1,.8.1,2.4,1.1,1.6"/>
  <path class="cls-6" d="M42.3,295.6c-2.9,1.2-4.9,4-4.9,7.2,0,3.2,2.2,6.1,5.1,7.2,1.2.4,2-1.3.9-1.8-4.9-1.8-5.4-8.7-.4-10.8,1.2-.5.5-2.4-.6-1.9"/>
  <path class="cls-6" d="M70.3,367.7c14.2,3.7,29.6-1,39.8-11.4,4.9-5,8.6-11.1,10.8-17.8-.7,0-1.4,0-2-.1-4.1,11.7-13,21.7-24.8,26.1-13,4.8-28.1,2.5-38.4-7-5.1-4.7-8.7-10.9-10.2-17.6-.1,1-.2,2-.3,3-.3.2-.5.3-.8.5,3.8,11.8,13.8,21.2,25.9,24.4"/>
  <path class="cls-6" d="M97,311c2.7-.7,5.4-1.4,8.1-2.2.7-.2.8-1.2.3-1.7-3.3-2.9-6.6-5.7-9.9-8.6-1-.8-2.2.7-1.3,1.5,2.8,2.4,5.6,4.9,8.5,7.3-2.1.6-4.2,1.1-6.3,1.7-1.2.3-.6,2.2.6,1.9"/>
  <path class="cls-6" d="M79.6,300.7c.8-.2,1.2-.9,1.4-1.6.2-.9.3-1.8.2-2.7,0-.8,0-1.9-.7-2.5-.8-.7-1.4-.4-1.9.3,0,0-.2.2-.2.4,0,.1,0,.3-.1.4,0,.1,0,.3-.1.4-.4,1.4-.7,3-.3,4.4.2.8.9,1.2,1.7,1.1"/>
  <path class="cls-6" d="M114.4,301.1c.8-.2,1.2-.9,1.4-1.6.2-.9.3-1.8.2-2.7,0-.8,0-1.9-.7-2.5-.8-.7-1.4-.4-1.9.3,0,0-.2.2-.2.4,0,.1,0,.3-.1.4,0,.1,0,.3-.1.4-.4,1.4-.7,3-.3,4.4.2.8.9,1.2,1.7,1.1"/>
  <path class="cls-6" d="M84.4,314.3c4.9,3.9,11.4,5.2,17.4,3.7,1.2-.3.6-2.2-.6-1.9-5.4,1.4-11.2.1-15.5-3.3-1-.8-2.3.7-1.3,1.5"/>
  <path class="cls-9" d="M572.6,345.8c0-2,0-4.1,0-6.1,4.1,0,8.3,0,12.4.1,0,2.1,0,4.1,0,6.2l-12.4-.2ZM559.6,345.6c0-2,0-4.1,0-6.1,3.5,0,7.1.1,10.6.1,0,2,0,4.1,0,6.1h-10.6ZM555.1,384.3c0-2.9,0-5.8.1-8.6h8.1v8.6h-8.2ZM545.7,375.6h8c0,2.9,0,5.8-.1,8.7h-7.9v-8.7ZM526.3,345.2c.1-2.1.3-4.2.4-6.4,4.5.1,8.9.2,13.4.3l-.3,6.2-13.5-.2ZM527.7,325.9c4.4,0,8.7,0,13.1.1l-.5,10.7c-4.5,0-8.9-.2-13.4-.3.2-3.5.5-7,.8-10.6M543.8,312.8c4.4.1,8.8.2,13.2.3,0,3.6,0,7.1.1,10.7-4.6,0-9.2-.2-13.8-.2l.5-10.8ZM544.3,302.9c4.2.1,8.4.2,12.5.3,0,2.5.1,5,.1,7.5-4.3,0-8.7-.2-13-.3l.4-7.5ZM569.9,313.4c0,3.6.1,7.1.2,10.7-3.5,0-7-.2-10.6-.2,0-3.6,0-7.1-.1-10.7,3.5,0,7,.2,10.5.2M542.7,336.8l.5-10.8c4.7,0,9.3.1,13.9.2,0,3.6,0,7.2,0,10.8-4.8,0-9.7-.2-14.5-.3M563.3,365.5c-2.7,0-5.3,0-8,0,0-2.3,0-4.6,0-6.8h7.9v6.9ZM555.3,366.9c2.7,0,5.3,0,8,0v7.3h-8.1c0-2.5,0-4.9,0-7.3M545.7,365.4v-6.8h8.2c0,2.3,0,4.6,0,6.8-2.7,0-5.4,0-8.1,0M545.7,366.8c2.7,0,5.4,0,8.1,0,0,2.4,0,4.9,0,7.3-2.7,0-5.3,0-8,0v-7.3ZM558.6,345.6l-17.6-.2h1.2s.3-6.2.3-6.2c4.9,0,9.7.2,14.6.3,0,2,0,4.1,0,6.1h1.5ZM570.2,337.2c-3.5,0-7.1,0-10.6-.1,0-3.6,0-7.2,0-10.8,3.5,0,7,.1,10.6.2,0,3.6,0,7.1,0,10.7M597.8,346.1h-10.3c0-2.2,0-4.2,0-6.3,1.9,0,3.7,0,5.6,0l-1.9-2.4c-1.2,0-2.5,0-3.7,0,0-1.6,0-3.2,0-4.8l-2.4-3.2c0,2.7,0,5.3,0,8-4.1,0-8.3,0-12.4-.1,0-3.6,0-7.1,0-10.7,3.5,0,7,.2,10.5.3l-1.9-2.5c-2.9,0-5.7-.2-8.6-.2,0-3.6,0-7.1-.2-10.7.1,0,.2,0,.4,0l-.4-.5-1.5-2-1-1.3c0,.4,0,.8,0,1.2-3.5,0-7-.1-10.5-.2,0-2.5,0-5-.1-7.5,1.9,0,3.8,0,5.7.1l-1.9-2.4c-1.3,0-2.6,0-3.9,0,0-1.7,0-3.4-.1-5.2l-2.5-3.3c0,2.8.2,5.6.2,8.3-4.1,0-8.2-.2-12.4-.3l.5-10.6c3.3,0,6.6.2,9.9.3l-1.9-2.4c-2.4,0-4.9-.1-7.3-.2l-.6,1-.8,1.4-1.8,2.9-.4,7.7c-1.4,0-2.8,0-4.3-.1l-1.5,2.4c1.9,0,3.7,0,5.6.1l-.4,7.5c-3.3,0-6.5-.2-9.8-.3l-1.4,2.4c3.7.1,7.4.2,11.1.3l-.5,10.8c-4.3,0-8.7,0-13-.1.2-2.7.4-5.5.7-8.2l-2.8,4.5c-.1,1.2-.2,2.4-.3,3.7-.6,0-1.3,0-2,0l-1.5,2.4c1.1,0,2.2,0,3.2,0-.3,3.5-.5,7-.8,10.5-2.9,0-5.9-.1-8.8-.2l-1.5,2.4c3.4,0,6.7.2,10.1.3-.1,2.1-.3,4.3-.4,6.4l-13.6-.2v58.8l89.3-1.9-1.9-55.9Z"/>
  <path class="cls-7" d="M553.7,375.6h-8s0,8.6,0,8.6h7.9c0-2.9,0-5.8.1-8.6"/>
  <path class="cls-7" d="M555.3,365.4c2.7,0,5.3,0,8,0v-6.9h-7.9c0,2.3,0,4.6,0,6.8"/>
  <path class="cls-7" d="M555.2,375.6c0,2.9,0,5.8-.1,8.6h8.2v-8.6h-8.1Z"/>
  <path class="cls-7" d="M553.9,366.9c-2.7,0-5.4,0-8.1,0v7.3c2.7,0,5.3,0,8,0,0-2.4,0-4.9,0-7.3"/>
  <path class="cls-7" d="M563.3,366.9c-2.7,0-5.3,0-8,0,0,2.4,0,4.9,0,7.3h8.1s0-7.3,0-7.3Z"/>
  <path class="cls-7" d="M545.7,358.6v6.8c2.7,0,5.4,0,8.1,0,0-2.3,0-4.6,0-6.8h-8.2Z"/>
  <path class="cls-7" d="M540.2,339.1c-4.5,0-8.9-.2-13.4-.3-.1,2.1-.3,4.2-.4,6.4l13.5.2.3-6.2Z"/>
  <path class="cls-7" d="M570.2,339.6c-3.5,0-7.1,0-10.6-.1,0,2,0,4.1,0,6.1h10.6c0-1.9,0-3.9,0-6"/>
  <path class="cls-7" d="M542.6,339.2l-.3,6.2,14.9.2c0-2,0-4.1,0-6.1-4.9,0-9.7-.2-14.6-.3"/>
  <path class="cls-7" d="M524.4,338.8c-3.4,0-6.7-.2-10.1-.3l-4,6.5,13.6.2c.1-2.1.3-4.3.4-6.4"/>
  <path class="cls-7" d="M587.4,345.9h10.3c0,.1-4.8-6.1-4.8-6.1-1.9,0-3.7,0-5.6,0,0,2.1,0,4.1,0,6.2"/>
  <path class="cls-7" d="M585,339.7c-4.1,0-8.3,0-12.4-.1,0,2,0,4.1,0,6.1l12.4.2c0-2.1,0-4.1,0-6.2"/>
  <path class="cls-7" d="M541.9,302.8c-1.9,0-3.7,0-5.6-.1l-4.5,7.4c3.3,0,6.5.2,9.8.3l.4-7.5Z"/>
  <path class="cls-7" d="M559.4,310.8c3.5,0,7,.2,10.5.2,0-.4,0-.8,0-1.2l-4.9-6.4c-1.9,0-3.8,0-5.7-.1,0,2.5.1,5,.1,7.5"/>
  <path class="cls-7" d="M556.8,303.2c-4.2,0-8.4-.2-12.5-.3l-.4,7.5c4.3.1,8.7.2,13,.3,0-2.5,0-5-.1-7.5"/>
  <path class="cls-7" d="M540.9,323.6l.5-10.8c-3.7-.1-7.4-.2-11.1-.3l-1.7,2.8c-.2,2.7-.5,5.5-.7,8.2,4.3,0,8.7,0,13,.1"/>
  <path class="cls-7" d="M525.8,319.8l-2.2,3.7c.7,0,1.3,0,2,0,0-1.2.2-2.4.3-3.7"/>
  <path class="cls-7" d="M572.5,324.2c2.9,0,5.7.1,8.6.2l-8.4-10.9c-.1,0-.2,0-.4,0,0,3.6.1,7.1.2,10.7"/>
  <path class="cls-7" d="M570.1,324.1c0-3.6,0-7.1-.2-10.7-3.5,0-7-.1-10.5-.2,0,3.6,0,7.1.1,10.7,3.5,0,7,.1,10.6.2"/>
  <path class="cls-7" d="M557,313.2c-4.4-.1-8.8-.2-13.2-.3l-.5,10.8c4.6,0,9.2.1,13.8.2,0-3.6,0-7.1-.1-10.7"/>
  <path class="cls-7" d="M548.8,282.3l-3.2,5.2c2.4,0,4.9.1,7.3.2l-4.1-5.4Z"/>
  <path class="cls-7" d="M542.4,292.8l-4.6,7.5c1.4,0,2.8,0,4.3.1l.4-7.7Z"/>
  <path class="cls-7" d="M563.1,300.9l-4-5.2c0,1.7,0,3.4.1,5.2,1.3,0,2.6,0,3.9,0"/>
  <path class="cls-7" d="M544.4,300.5c4.1.1,8.2.2,12.4.3,0-2.8-.1-5.6-.2-8.4l-1.8-2.3c-3.3,0-6.6-.2-9.9-.3l-.5,10.6Z"/>
  <path class="cls-7" d="M543.2,326l-.5,10.8c4.8,0,9.7.2,14.5.3,0-3.6,0-7.2,0-10.8-4.6,0-9.3-.2-13.9-.2"/>
  <path class="cls-7" d="M572.6,337.2c4.1,0,8.3,0,12.4.1,0-2.7,0-5.3,0-8l-1.9-2.5c-3.5-.1-7-.2-10.5-.3,0,3.6,0,7.1,0,10.7"/>
  <path class="cls-7" d="M540.8,326c-4.4,0-8.7,0-13.1-.1-.3,3.5-.5,7-.8,10.6,4.5.1,8.9.2,13.4.3l.5-10.7Z"/>
  <path class="cls-7" d="M591.1,337.4l-3.7-4.9c0,1.6,0,3.2,0,4.8,1.2,0,2.5,0,3.7,0"/>
  <path class="cls-7" d="M559.6,337.1c3.5,0,7.1.1,10.6.1,0-3.6,0-7.1,0-10.7-3.5,0-7-.2-10.6-.2,0,3.6,0,7.2,0,10.8"/>
  <path class="cls-7" d="M525.3,325.9c-1.1,0-2.2,0-3.2,0l-6.3,10.3c2.9,0,5.9.1,8.8.2.2-3.5.5-7,.8-10.5"/>
  <path class="cls-7" d="M31.5,70.7l-1.1,23.6s22.1-11.2,21.5-11.8c-.6-.6-20.3-11.8-20.3-11.8"/>
  <path class="cls-7" d="M64.2,96.2l-1.1,23.6s22.1-11.2,21.5-11.8c-.6-.6-20.3-11.8-20.3-11.8"/>
  <path class="cls-7" d="M107.5,27.9l-1.1,23.6s22.1-11.2,21.5-11.8c-.6-.6-20.3-11.8-20.3-11.8"/>
  <path class="cls-7" d="M97.3,126.3l-1.1,23.6s22.1-11.2,21.5-11.8c-.6-.6-20.3-11.8-20.3-11.8"/>
  <path class="cls-7" d="M105.5,73.1l-21.7,9.4s19.8,14.9,20.1,14,1.6-23.4,1.6-23.4"/>
  <path class="cls-7" d="M59,46.3l6.6,22.6s17.2-17.8,16.4-18.2c-.8-.4-23-4.5-23-4.5"/>
</svg>