<?xml version="1.0" encoding="UTF-8"?>
<svg id="_레이어_1" data-name="레이어 1" xmlns="http://www.w3.org/2000/svg" version="1.1" viewBox="0 0 270 270">
  <defs>
    <style>
      .cls-1 {
        fill: #ffaab0;
        stroke-width: 0px;
      }

      .cls-2 {
        stroke-linecap: round;
        stroke-linejoin: round;
      }

      .cls-2, .cls-3 {
        fill: none;
        stroke: #000;
        stroke-width: 6px;
      }

      .cls-3 {
        stroke-miterlimit: 10;
      }
    </style>
  </defs>
  <path class="cls-1" d="M235.5,148c0,55.5-45,100.5-100.5,100.5s-100.5-45-100.5-100.5,45-100.5,100.5-100.5,100.5,45,100.5,100.5"/>
  <polyline class="cls-2" points="147.8 179.2 114.8 200.1 66.8 167.1"/>
  <path class="cls-3" d="M114.8,137.1v6M156.8,110.1v6"/>
  <polygon class="cls-2" points="147.8 148.9 98.4 115.6 120.6 102.1 133.7 110.3 171.8 134.3 171.8 182.2 147.8 197.7 147.8 148.9"/>
  <path class="cls-3" d="M111.2,124.2l-18.8,11.9c3.1,2,2.6,4.3,0,5.9l18.9,11.9c2.6-1.6,6.3-2,9.4,0l17.8-11.2M161.9,128l17.2-10.9c-2.6-1.6-3.1-4,0-6l-18.9-11.9c-3.1,2-6.8,1.6-9.4,0l-17.3,10.9"/>
  <path class="cls-2" d="M204.8,143.1l-33,20.9M204.8,158.1l-33,20.9M147.8,194.2l-33,20.9-48-33M204.8,128.1l-33,20.9M147.8,164.3l-33,20.8-48-33M123.9,104.2l32.8-21.1,48,30-33.2,21M147.8,149.2l-33,20.9-48-30,35.5-22"/>
</svg>