<?xml version="1.0" encoding="UTF-8"?>
<svg id="_레이어_1" data-name=" 레이어 1" xmlns="http://www.w3.org/2000/svg" version="1.1" viewBox="0 0 500 102">
  <defs>
    <style>
      .cls-1 {
        fill: #ffa800;
      }

      .cls-1, .cls-2 {
        stroke-width: 0px;
      }

      .cls-2 {
        fill: #00c240;
      }
    </style>
  </defs>
  <g>
    <path class="cls-2" d="M75.9,42.7c-1.1,0-2-.2-2.8-.6s-1.6-1-2.1-1.9-1.1-2-1.4-3.4c-.3-1.4-.5-3.1-.6-5,0-1.7,0-3.3,0-4.6.1-1.3.3-2.5.5-3.6.3-1,.6-1.9,1-2.7.4-.7,1-1.4,1.6-2,.6-.5,1.1-1.1,1.5-1.6.4-.5.8-1.1,1.1-1.7s.6-1.3.7-2.1c.2-.8.2-1.7.2-2.7,0-2.4.4-4,1.3-5,.9-1,2.3-1.5,4.4-1.5s3.3.5,4.2,1.4c.9,1,1.4,2.6,1.4,4.9s.1,1.8.4,2.6c.2.8.6,1.4,1,2.1.4.6.9,1.3,1.4,1.8.5.6,1.1,1.2,1.6,1.8.4.4.8,1,1.2,1.7.4.7.7,1.5.9,2.5.2,1,.4,2.3.5,3.7.1,1.5.1,3.2,0,5.3,0,2.2-.2,4.1-.5,5.5-.2,1.4-.5,2.5-.9,3.2-.4.8-.9,1.3-1.5,1.6-.6.3-1.3.4-2,.4s-1.9-.1-2.6-.4c-.7-.2-1.3-.7-1.7-1.5-.4-.8-.7-1.9-.9-3.3-.2-1.4-.3-3.3-.3-5.6s-.2-5-.4-6.8c-.3-1.8-.9-3.5-1.8-5-.2-.2-.3-.3-.5-.4-.2,0-.4,0-.5,0-.2,0-.2.2-.3.5,0,.2,0,.5.2.8.4.5.7,1.2.9,1.9.3.7.5,1.5.6,2.5.2.9.3,2,.4,3.1,0,1.2.1,2.5.1,4s-.1,3.8-.3,5.1c-.2,1.3-.6,2.3-1.1,3-.5.7-1.2,1.2-2,1.4-.8.2-1.9.4-3.1.4ZM106.7,31c0,1.4-.1,2.7-.2,4,0,1.3-.2,2.7-.4,4-.2,1.8-.8,3.2-1.8,4.1-1,.9-2.3,1.3-3.9,1.3s-3.3-.5-4.4-1.5-1.5-2.5-1.3-4.6c.6-4.9.9-9.7.9-14.5s-.3-9.5-.9-14.2c-.1-1.1,0-2.1.2-2.9.2-.8.6-1.5,1.1-2s1.1-.9,1.9-1.2c.7-.3,1.6-.4,2.5-.4,1.6,0,2.9.5,3.9,1.4,1,.9,1.6,2.3,1.8,4.1.1,1.1.2,2.1.3,3.2,0,1.1.1,2.2.2,3.3h1.3c1-.3,1.9.2,2.4,1.5.6,1.3.9,3.4.9,6.4s-.3,5.2-.9,6.5c-.6,1.3-1.4,1.9-2.4,1.8l-1.2-.2Z"/>
    <path class="cls-2" d="M120.9,32.2c-1.5-.4-2.7-.9-3.8-1.5-1.1-.7-1.9-1.4-2.6-2.4-.7-.9-1.2-1.9-1.5-3.1-.3-1.1-.5-2.4-.5-3.7,0-2.1.3-3.8.9-5.2.6-1.3,1.4-2.3,2.3-2.9-1.8-.5-2.7-1.6-2.7-3.1s.2-1.4.6-1.8c.4-.5.9-.8,1.6-1,.6-.2,1.3-.4,2-.5.7,0,1.4-.1,2-.1-.3-.2-.5-.5-.5-.7s-.1-.5-.1-.8c0-1,.6-1.7,1.9-2.2,1.3-.5,2.9-.7,4.9-.7s3.6.2,4.9.7c1.2.5,1.9,1.2,1.9,2.2s0,.5-.1.8c0,.2-.2.5-.5.7.4,0,.7,0,1.1,0s.7,0,1.1,0c1.7,0,2.9.4,3.7,1,.8.6,1.2,1.4,1.2,2.4,0,1.5-.9,2.5-2.7,3.1.9.6,1.7,1.6,2.3,2.9.6,1.4.9,3.1.9,5.2s-.7,4.8-2,6.7c-1.3,1.9-3.4,3.2-6.2,3.9v1.4c.9,0,1.7-.1,2.5-.2.8,0,1.4,0,2-.2,1.2-.2,2.1.1,2.7,1s.9,1.9.9,3.2-.3,2.7-.9,3.6-1.5,1.4-2.7,1.6c-.7,0-1.6.2-2.7.2-1.1,0-2.2.1-3.4.2-1.2,0-2.4,0-3.7,0s-2.5,0-3.7,0c-1.2,0-2.3,0-3.3-.1-1,0-1.9-.1-2.5-.2-1.2-.2-2.1-.7-2.7-1.6s-.9-2.1-.9-3.6.3-2.4.9-3.2,1.5-1.1,2.7-.9c.6,0,1.3.1,2.1.2.8,0,1.7,0,2.7.1v-1.4ZM125.2,23.8c0,.2,0,.3.2.4.1.1.3.2.5.2s.3,0,.5-.2c.1-.1.2-.2.2-.4v-5c0-.2,0-.3-.2-.4-.2-.1-.3-.2-.5-.2s-.3,0-.5.2c-.2.1-.2.2-.2.4v5ZM145.5,44.4c-1.8,0-3.3-.5-4.3-1.5-1.1-1-1.5-2.5-1.2-4.6.5-4.9.8-9.7.8-14.5s-.3-9.5-.8-14.2c-.3-2.2.1-3.9,1.2-5,1.1-1.1,2.5-1.6,4.3-1.6s2.9.5,4,1.4c1,.9,1.7,2.3,1.9,4.1.5,4.9.7,10,.7,15.2s-.2,10.3-.7,15.3c-.2,1.8-.8,3.2-1.9,4.1-1,.9-2.4,1.3-4,1.3Z"/>
    <path class="cls-2" d="M181,19.4h-.5c0,.6,0,1.3,0,2.1,0,1.1-.2,2-.5,2.6s-.5,1.2-.9,1.6c-.4.4-.9.6-1.5.7-.6.1-1.3.2-2,.2s-1.9,0-2.6-.2c-.7-.1-1.3-.4-1.7-.7-.4-.4-.7-.9-.9-1.6-.2-.7-.3-1.6-.3-2.7s-.1-2.4-.4-3.3c-.3-.9-.9-1.7-1.9-2.4-.2-.1-.4-.2-.6-.2-.2,0-.3,0-.4.2,0,.1-.1.3,0,.4s.2.3.4.4c.7.4,1.1,1.1,1.3,1.9.2.9.3,1.9.3,3.2s-.1,1.8-.3,2.4c-.2.6-.6,1.1-1.1,1.4-.5.3-1.2.6-2,.7-.8.1-1.9.2-3.1.2-2.1,0-3.8-.4-5-1.2-1.2-.8-1.9-2.1-2-4,0-1.7.1-3,.6-3.9s1.4-1.7,2.6-2.2c.9-.4,1.6-.8,2.2-1.2s1-.9,1.2-1.6c-.2,0-.3,0-.4,0-.1,0-.3,0-.4,0-1.7,0-3-.5-3.8-1.3-.8-.8-1.2-1.8-1.2-2.9s.4-2,1.2-2.9c.8-.9,2.1-1.3,3.7-1.4,1.3,0,2.4,0,3.6-.1,1.1,0,2.3,0,3.6,0s2.4,0,3.5,0,2.3,0,3.5.1c1.7,0,2.9.5,3.7,1.4.8.9,1.2,1.8,1.2,2.9s-.1,1.1-.4,1.6c.1,0,.3,0,.5,0h1.9c0-.2,0-.4,0-.6,0-.2,0-.4,0-.6-.1-.9,0-1.7.2-2.4.2-.7.6-1.2,1.1-1.6.5-.4,1.1-.8,1.8-1,.7-.2,1.6-.3,2.5-.3,1.6,0,2.9.4,3.9,1.1,1,.7,1.6,1.8,1.8,3.4.8,5.1.8,10.2,0,15.3-.2,1.5-.8,2.6-1.8,3.3-1,.7-2.3,1.1-3.9,1.1s-3.3-.4-4.3-1.2c-1.1-.8-1.5-2-1.3-3.7,0-.5.1-1,.2-1.5,0-.5.1-.9.2-1.4h-1.4ZM163.9,37.9c-2.2,0-3.9-.4-5.3-1-1.3-.6-2.1-1.6-2.2-3,0-.7.1-1.4.5-1.9.4-.6,1-1.1,1.7-1.5s1.6-.8,2.7-1.2c1-.3,2.1-.6,3.3-.8,1.6-.2,3.3-.5,5.2-.7,1.8-.2,3.7-.4,5.5-.4,1.9,0,3.7,0,5.4,0,1.8,0,3.4.2,5,.5,2.2.4,3.8,1,5.1,1.8,1.2.8,2.1,1.6,2.6,2.5.7,1.3,1,2.7.9,4.2-.2,1.5-.7,2.9-1.6,4.2-.8,1.1-1.9,2-3.4,2.6-1.5.6-3.4.9-5.7,1-2.5,0-4.4-.3-5.9-1.1-1.4-.8-2.3-1.8-2.6-3-.3-1.4-.2-2.7.3-3.7.5-1,1.2-2,2.2-3,0-.1.1-.2,0-.3,0,0-.1-.1-.2-.2-.1,0-.2,0-.4,0-.1,0-.2,0-.3.2-1.7,1.5-3.7,2.8-6,3.7-2.2.9-4.5,1.4-6.9,1.3ZM173.9,12.5c.3.5.8,1,1.5,1.4.7.4,1.4.8,2.2,1.2,0-.6,0-1.1,0-1.7,0-.6.1-1.1.3-1.7-.4.2-.8.3-1.2.5-.5.1-1,.2-1.5.2-.2,0-.5,0-.7,0s-.5,0-.7,0Z"/>
    <path class="cls-2" d="M210.8,11.5c-1.6-.4-2.4-1.3-2.4-2.6s.4-1.7,1.2-2.1c.8-.5,2-.7,3.8-.8.2,0,.4,0,.5,0,.2,0,.3,0,.5,0-.4-.4-.6-.8-.6-1.3,0-.8.6-1.5,1.7-1.9,1.1-.4,2.6-.7,4.5-.7s3.3.2,4.4.7,1.7,1.1,1.7,1.9-.2.9-.5,1.3h1c.3,0,.7,0,1,0,1.7,0,2.9.4,3.7.8.8.5,1.2,1.2,1.2,2.1s-.8,2.2-2.5,2.6c.9.5,1.6,1.3,2.1,2.3.6,1,.8,2.3.8,4s-.2,2.5-.7,3.7c-.5,1.1-1.2,2.1-2.2,3-1,.8-2.3,1.5-3.9,2-1.6.5-3.5.7-5.8.7s-4.2-.2-5.8-.7c-1.6-.5-2.9-1.1-3.9-2-1-.8-1.7-1.8-2.2-3-.5-1.1-.7-2.4-.7-3.7s.3-2.9.9-4,1.3-1.8,2.2-2.3ZM224.8,32.1c.8,0,1.5,0,2.2,0s1.4,0,2.2,0v-1c0-.7.4-1.2,1.1-1.7.7-.5,1.6-.8,2.7-1s2.3-.3,3.5-.3,2.5.1,3.6.4c1.1.3,2.1.7,3,1.2s1.4,1.2,1.6,1.9c.4,1.5.6,2.9.7,4.4,0,1.5-.2,2.9-.7,4.3-.3,1-1.1,1.9-2.3,2.5-1.2.6-2.7,1-4.6,1.1-3.6.3-7.2.5-10.7.5-3.5,0-7.1-.1-10.8-.5-1.9-.2-3.4-.5-4.6-1.1s-1.9-1.4-2.3-2.5c-.4-1.4-.6-2.9-.6-4.3s.2-3,.6-4.4c.2-.8.7-1.4,1.6-1.9.8-.5,1.8-.9,3-1.2,1.1-.3,2.4-.4,3.6-.4s2.5.1,3.5.3c1.1.2,1.9.5,2.7,1,.7.5,1.1,1,1.1,1.7v1ZM219.6,19.2c0,.2,0,.4.2.5.1.1.3.2.5.2s.3,0,.5-.2c.1-.1.2-.3.2-.5v-3.4c0-.2,0-.3-.2-.4-.2-.1-.3-.2-.5-.2s-.3,0-.5.2c-.2.1-.2.2-.2.4v3.4ZM223.8,38.2c1,.5,2.1.8,3.2.7,1.1,0,2.2-.3,3.2-.7.2,0,.3-.2.4-.4.1-.2.1-.4,0-.6,0-.1-.2-.3-.4-.4-.2-.1-.4-.1-.6,0-.8.4-1.8.6-2.8.6-1,0-1.9-.2-2.7-.7-.2,0-.3,0-.5,0-.2,0-.4.2-.5.4-.2.4,0,.8.6,1.1ZM245,21.6c0,.2,0,.5,0,.7s0,.5-.1.7c-.2,1.5-.8,2.6-1.8,3.3-1,.7-2.3,1.1-3.9,1.1s-1.7-.1-2.5-.3c-.7-.2-1.4-.5-1.8-.9-.5-.4-.9-.9-1.1-1.6-.2-.6-.3-1.3-.2-2.1.1-1.1.3-2.3.3-3.6,0-1.3,0-2.5,0-3.8s0-2.5,0-3.7c0-1.2-.2-2.3-.3-3.4-.1-.9,0-1.7.2-2.3.2-.6.6-1.1,1.1-1.5.5-.4,1.1-.7,1.8-.9.7-.2,1.6-.3,2.5-.3,1.6,0,2.9.4,3.9,1.1,1,.7,1.6,1.8,1.8,3.3v.8c.1,0,1.7-.2,1.7-.2,1,0,1.9.4,2.4,1.4.6,1.1.9,2.8.9,5.4s-.3,4.3-.9,5.4c-.6,1.1-1.4,1.6-2.4,1.5l-1.5-.2Z"/>
    <path class="cls-2" d="M254.8,42.8c-1.2-.2-2.1-.7-2.7-1.6s-.9-2.1-.9-3.6.3-2.4.9-3.2,1.5-1.1,2.7-.9c.7,0,1.5.2,2.5.2,1,0,2.1,0,3.3.1,1.2,0,2.4,0,3.7,0,1.3,0,2.5,0,3.7,0,1.2,0,2.3,0,3.4-.1s1.9-.1,2.7-.2c1.2-.2,2.1.1,2.7,1s.9,1.9.9,3.2-.3,2.7-.9,3.6-1.5,1.4-2.7,1.6c-.7,0-1.6.2-2.7.2s-2.2.1-3.4.2c-1.2,0-2.4,0-3.7,0s-2.5,0-3.7,0c-1.2,0-2.3,0-3.3-.1-1,0-1.9-.1-2.5-.2ZM264.3,32.3c-2.4,0-4.4-.3-6-1-1.6-.7-3-1.6-4-2.8-1-1.2-1.8-2.7-2.2-4.4-.4-1.7-.7-3.6-.7-5.8s.2-4.1.6-5.8c.4-1.7,1.1-3.2,2.1-4.4,1-1.2,2.3-2.2,4-2.8,1.6-.7,3.7-1,6.2-1s4.6.3,6.2,1c1.7.7,3,1.6,4,2.8,1,1.2,1.7,2.7,2.1,4.4.4,1.7.6,3.7.6,5.8s-.2,4-.7,5.8c-.5,1.7-1.2,3.2-2.2,4.4-1,1.2-2.4,2.2-4,2.8s-3.7,1-6,1ZM263.5,21.1c0,.2,0,.3.3.4.2.1.4.2.6.2s.4,0,.6-.2c.2-.1.3-.2.3-.4v-5.8c0-.2,0-.4-.3-.5-.2,0-.4-.1-.6-.1s-.4,0-.6.1c-.2,0-.3.2-.3.5v5.8ZM284.1,44.5c-1.8,0-3.3-.5-4.3-1.5s-1.5-2.5-1.2-4.6c.5-4.9.8-9.7.8-14.5s-.3-9.5-.8-14.2c-.3-2.2.1-3.9,1.2-5s2.5-1.6,4.3-1.6,2.9.5,4,1.4c1,.9,1.7,2.3,1.9,4.1.5,4.9.7,10,.7,15.2s-.2,10.3-.7,15.3c-.2,1.8-.8,3.2-1.9,4.1-1,.9-2.4,1.3-4,1.3Z"/>
    <path class="cls-2" d="M293.7,23.6c0-.8.4-1.6,1.1-2.2.7-.6,1.7-.9,3-.8,2.4.2,5,.3,7.7.3,2.7,0,5.4,0,8.2,0s5.5,0,8.3,0c2.7,0,5.4-.2,7.9-.3,1.3,0,2.3.2,3.1.8.7.6,1.1,1.3,1.1,2.2s-.4,1.8-1.1,2.3c-.7.5-1.8.8-3.1.9-2.5.2-5.1.3-7.8.4-2.7,0-5.5.1-8.3.1s-5.5,0-8.2-.1c-2.7,0-5.2-.2-7.7-.4-1.3-.1-2.3-.4-3-.9-.7-.5-1.1-1.3-1.1-2.3ZM308.1,33.3c-1.3.4-2.7.8-4.1,1-1.4.3-2.8.4-4.2.5-1.7,0-2.8-.2-3.5-.9-.7-.7-1-1.5-1-2.6s.3-1.7.9-2.4c.6-.6,1.5-.9,2.8-.8,2.3.2,4.7.3,7.3.4s5.1.1,7.7.1,5.1,0,7.7-.1c2.5,0,5-.2,7.3-.4,1.3,0,2.2.2,2.8.7.6.5.9,1.2.9,2.1s-.3,1.4-.8,1.9c-.5.5-1.2.8-2,.9-2.5,0-4.9.4-7.2,1.1-2.3.6-4.2,1.5-5.8,2.6-.2,0-.2.2-.3.4,0,.2,0,.3,0,.4s.1.2.3.2.3,0,.5-.1c1.4-.8,2.9-1.5,4.6-2.2,1.6-.6,3.4-1,5.2-1.1,1.8,0,3.2.4,4.2,1.1,1,.8,1.5,1.9,1.5,3.2s-.5,2.5-1.6,3.1c-1.1.6-2.6,1-4.6,1.2-2.2.1-4.4.3-6.7.3-2.3,0-4.6,0-6.9,0s-4.6,0-6.8-.1c-2.2,0-4.4-.2-6.4-.3-1.6,0-2.8-.4-3.6-.9s-1.3-1.3-1.3-2.5.5-2.4,1.5-3.1c1-.7,2.3-1.2,3.9-1.3,1.4-.2,2.8-.3,4.1-.5s2.7-.5,4.1-1c.2,0,.2-.2.3-.3,0-.1,0-.3,0-.4,0-.1-.1-.2-.2-.3-.1,0-.3,0-.4,0ZM295.3,16.2c0-1.4.5-2.4,1.5-3.1,1-.7,2.3-1.2,4-1.3,1.3-.1,2.6-.3,3.8-.5,1.2-.2,2.5-.5,3.9-1,.2,0,.2-.2.3-.3s0-.3,0-.4c0-.1-.1-.2-.2-.3-.1,0-.3,0-.4,0-1.3.5-2.6.8-3.9,1.1-1.3.3-2.6.4-4,.5-1.7,0-2.8-.2-3.5-.9s-1-1.6-1-2.6.3-1.7.9-2.2c.6-.5,1.5-.8,2.8-.9,4.7-.2,9.6-.3,14.5-.3s9.8,0,14.6.3c1.2,0,2.1.3,2.7.7.6.4.9,1.1.9,2s-.3,1.4-.8,1.9c-.5.5-1.2.8-2,.8-2.5,0-4.8.4-7,1.1s-4,1.6-5.6,2.6c-.3.2-.4.5-.2.7.1.3.4.3.7.1,1.4-.8,2.9-1.6,4.4-2.2,1.5-.6,3.2-1,5-1,1.8,0,3.2.3,4.2,1.1,1,.8,1.5,1.9,1.5,3.2s-.5,2.4-1.6,3.1c-1.1.7-2.6,1.1-4.6,1.2-4.4.3-8.8.4-13.2.4-4.4,0-8.7-.2-12.8-.4-1.6-.1-2.8-.4-3.6-.9s-1.3-1.3-1.3-2.5Z"/>
    <path class="cls-2" d="M359.3,22.3v-.6c0-.2,0-.4,0-.5-.8,0-1.5-.1-2.2-.2-.7,0-1.5-.1-2.2-.2-2.1-.2-3.7-.9-4.8-1.9-1.1-1.1-1.7-2.6-1.7-4.5v-4.6c0-3.2,1.6-4.9,4.8-5.1,5-.2,9.9-.3,14.8-.3,4.9,0,9.8,0,14.8.2.9,0,1.5.2,1.9.5.4.3.5.7.5,1.3s-.2,1.1-.5,1.5c-.4.4-1,.6-1.9.6h-19.6c-.2,0-.4,0-.5.2s-.2.2-.2.4,0,.3.2.4c.1.1.3.2.5.2h19.2c.9,0,1.5.2,1.9.4.4.3.5.7.5,1.3s-.2.9-.5,1.2c-.4.3-1,.4-1.9.4h-19.2c-.2,0-.4.1-.5.2-.1.1-.2.3-.2.4s0,.3.2.4c.1.1.3.2.5.2h19.3c1,0,1.9.3,2.5.9.6.6.9,1.4.9,2.5s-.3,1.8-.9,2.4c-.6.6-1.4.9-2.5,1-2.6.2-5.2.4-7.8.5,0,.2,0,.3,0,.5,0,.2,0,.4,0,.5v.4c1.4,0,2.9-.1,4.3-.2,1.4,0,2.8-.1,4.1-.2,1.3,0,2.3.2,3.1.7.7.6,1.1,1.3,1.1,2.2s-.4,1.8-1.1,2.4c-.7.5-1.8.8-3.1,1-2.5.2-5.1.3-7.8.4-2.7,0-5.5.1-8.3.1s-5.5,0-8.2-.1c-2.7,0-5.2-.2-7.7-.4-1.3-.2-2.3-.5-3-1-.7-.5-1.1-1.3-1.1-2.3s.4-1.6,1.1-2.2c.7-.6,1.7-.8,3-.7,1.3,0,2.7.2,4.1.2,1.4,0,2.8,0,4.3.2v-.4ZM348.6,37.4c0-1.4.4-2.6,1.3-3.6.8-1,2.1-1.7,3.6-2.3,1.6-.6,3.5-1,5.8-1.3,2.3-.3,4.8-.4,7.7-.4s5.4.1,7.7.3c2.3.2,4.2.6,5.8,1.2,1.6.6,2.8,1.3,3.6,2.3.8,1,1.3,2.2,1.3,3.7s-.4,2.7-1.3,3.7-2,1.7-3.6,2.3c-1.6.6-3.5,1-5.8,1.2-2.3.2-4.8.3-7.7.3s-5.5-.1-7.7-.4c-2.3-.2-4.2-.7-5.8-1.2-1.6-.6-2.8-1.4-3.6-2.3-.8-1-1.3-2.2-1.3-3.6ZM364.9,39.9c-.1.1-.2.3-.1.4,0,.2,0,.3.2.4s.3.2.5.2.4,0,.6-.2c.9-.7,1.6-1.6,2.1-2.6s1-2.1,1.3-3.2c0-.2,0-.4,0-.6,0-.2-.2-.3-.4-.3-.2,0-.3,0-.5,0-.2,0-.3.2-.3.4-.3,1-.8,2-1.3,2.8-.5.9-1.2,1.7-2,2.6Z"/>
    <path class="cls-2" d="M392.2,12.6c-1.7-.5-2.5-1.5-2.5-2.9s.4-1.7,1.2-2.3c.8-.6,2-.9,3.8-.9.2,0,.4,0,.5,0,.2,0,.4,0,.5,0-.5-.4-.7-1-.7-1.5,0-.8.6-1.5,1.7-2,1.1-.5,2.6-.8,4.5-.8s3.3.3,4.4.8c1.1.5,1.7,1.2,1.7,2s0,.5-.1.7c0,.3-.2.5-.5.7.3,0,.7,0,1,0s.7,0,1,0c1.7,0,2.9.4,3.7.9.8.6,1.2,1.3,1.2,2.3,0,1.5-.9,2.5-2.6,3,.9.6,1.6,1.4,2.2,2.6.6,1.2.9,2.6.9,4.3s-.2,2.6-.7,3.8c-.5,1.2-1.2,2.2-2.2,3.2-1,.9-2.3,1.6-3.9,2.1-1.6.5-3.5.8-5.8.8s-4.2-.3-5.8-.8c-1.6-.5-2.9-1.2-3.9-2.1s-1.7-1.9-2.2-3.2c-.5-1.2-.7-2.5-.7-3.8s.3-3.2.9-4.3c.6-1.2,1.3-2,2.2-2.6ZM390.6,37c0-2.1.5-3.7,1.5-4.8,1-1.1,2.3-1.7,4-2,.9-.2,1.8-.2,2.7-.2.9,0,1.7.2,2.5.4.8.2,1.5.6,2,1s1,1,1.3,1.7c.2.4.3.9.4,1.4,0,.5,0,1.1,0,1.6,0,.5-.2,1-.5,1.5-.2.5-.6.9-.9,1.2-.3.2-.4.5-.2.8.2.3.4.3.8,0,1.2-.9,2.4-1.7,3.6-2.5,1.2-.8,2.5-1.5,3.8-2.2,1.3-.6,2.7-1.1,4.1-1.5,1.5-.4,3-.6,4.7-.6s1.6,0,2.4.2c.8.1,1.4.4,2,.7.6.3,1.1.7,1.5,1.3s.6,1.2.7,2.1c.2,1.8-.2,3.2-1.3,4.2s-2.8,1.6-5.5,2c-2.9.4-6.1.6-9.8.6-3.7,0-7.6,0-11.9-.3-2.6-.2-4.6-.9-6-2.1-1.4-1.3-2-2.8-2-4.7ZM401,21.3c0,.2,0,.4.2.5.1.1.3.2.5.2s.3,0,.5-.2.2-.3.2-.5v-4c0-.2,0-.3-.2-.4-.2-.1-.3-.2-.5-.2s-.3,0-.5.2c-.2.1-.2.2-.2.4v4ZM426.5,24c0,1.3-.2,2.5-.4,3.6-.2,1.5-.8,2.6-1.8,3.4-1,.7-2.3,1.1-3.9,1.1s-1.7-.1-2.5-.3c-.7-.2-1.3-.5-1.8-.9-.5-.4-.9-.9-1.1-1.5-.2-.6-.3-1.3-.2-2.1.2-1.3.3-2.7.4-4.4,0-1.7.1-3.4.1-5.1s0-3.4-.1-5c0-1.6-.2-3-.3-4.2-.3-1.9.1-3.2,1.2-4,1-.8,2.5-1.3,4.3-1.3s2.9.4,3.9,1.1c1,.7,1.6,1.8,1.8,3.4,0,.5.1,1,.2,1.5s.1,1.1.2,1.7h1.3c1-.3,1.8.2,2.4,1.3.6,1.1.9,2.9.9,5.4s-.3,4.2-.9,5.3-1.4,1.6-2.4,1.4h-1.3Z"/>
  </g>
  <g>
    <path class="cls-1" d="M114,77.3c-1,1.3-2.2,2.3-3.9,3s-3.7,1.1-6.2,1.1-4.3-.3-5.9-1c-1.6-.7-2.9-1.6-3.8-2.7-1-1.1-1.7-2.4-2.1-4-.4-1.5-.6-3.1-.6-4.8s.2-3.4.6-4.9c.4-1.5,1-2.9,2-4.1.9-1.2,2.2-2.1,3.8-2.7,1.6-.7,3.6-1,6.1-1s4.9.4,6.5,1.2,2.9,1.9,3.9,3.2h3.6c0-1.6.5-2.7,1.5-3.5,1-.7,2.4-1.1,4.1-1.1s2.9.4,3.9,1.1c1,.7,1.6,1.8,1.8,3.4.2,1.3.4,2.7.5,4.4,0,1.7.1,3.4.1,5.2s0,3.5-.1,5.2c0,1.7-.2,3.1-.5,4.4-.2,1.5-.8,2.6-1.8,3.3-1,.7-2.3,1.1-3.9,1.1s-3.3-.4-4.3-1.2c-1.1-.8-1.5-2.1-1.3-3.8,0-.3.1-.6.1-.9,0-.3,0-.6,0-.9h-4.1ZM92.8,89.6c0-2.2.5-4,1.5-5.2,1-1.2,2.4-2,4.1-2.2.9-.2,1.8-.2,2.7-.1.9,0,1.7.3,2.5.6.8.3,1.5.7,2,1.2.6.5,1,1.1,1.3,1.9.2.5.3,1,.4,1.6,0,.6,0,1.2,0,1.8,0,.6-.2,1.2-.4,1.7-.2.5-.6,1-1,1.3-.2,0-.2.2-.3.4,0,.1,0,.3,0,.4,0,.1.2.2.3.2.1,0,.3,0,.4-.2,1.2-.9,2.4-1.8,3.7-2.7,1.3-.9,2.6-1.7,4.1-2.4,1.4-.7,2.9-1.3,4.5-1.8,1.5-.5,3.2-.7,4.8-.7s1.6,0,2.4.2c.7.2,1.4.4,2,.8.6.4,1.1.9,1.5,1.4.4.6.6,1.3.8,2.1.2,1.8-.2,3.3-1.3,4.4s-2.9,1.9-5.5,2.2c-1.4.2-3,.3-4.7.4-1.7.1-3.5.2-5.5.2-1.9,0-3.9,0-6,0-2.1,0-4.2-.1-6.3-.2-1.3,0-2.5-.3-3.5-.8-1-.4-1.8-1-2.5-1.6-.7-.7-1.2-1.4-1.5-2.2-.3-.8-.5-1.7-.5-2.7ZM100.6,67.7c.6.9,1.5,1.6,2.5,2.2,1.1.6,2.2,1.1,3.3,1.4.3,0,.5,0,.7,0,.2-.1.3-.3.4-.5,0-.2,0-.4,0-.6,0-.2-.2-.3-.3-.4-1.1-.3-2.1-.8-3-1.4-.9-.6-1.8-1.3-2.7-2.1-.2-.1-.3-.2-.5-.1-.2,0-.3.1-.4.3-.1.2-.2.3-.2.5s0,.4.2.6ZM118.4,70.6v-1.6c0-.5,0-1.1,0-1.6h-2.1c0,.2,0,.5,0,.8v1.6c0,.3,0,.5,0,.8h2.1Z"/>
    <path class="cls-1" d="M133.7,76.8c0-.9.4-1.6,1.1-2.2.7-.6,1.7-.9,3-.8,2.4.2,4.9.3,7.6.3,2.7,0,5.4.1,8.2.1s5.5,0,8.3-.1c2.7,0,5.4-.2,7.9-.3,1.3,0,2.3.2,3.1.8.7.6,1.1,1.4,1.1,2.2s-.4,1.9-1.1,2.5c-.7.6-1.8.9-3.1,1-2.5.2-5.1.3-7.8.4-2.7,0-5.5.1-8.3.1s-5.5,0-8.2-.1-5.2-.2-7.6-.4c-1.3,0-2.3-.4-3-1-.7-.6-1.1-1.4-1.1-2.4ZM141.9,69.3c-.8,0-1.6,0-2.4-.3-.8-.2-1.4-.5-2-.9-.6-.4-1.1-.9-1.5-1.5-.4-.6-.6-1.3-.7-2.2-.2-1.8.2-3.3,1.3-4.5,1-1.2,2.9-2,5.5-2.3,1.4-.2,3-.3,4.7-.4,1.7-.1,3.5-.2,5.5-.2,1.9,0,3.9,0,6,0,2.1,0,4.2.2,6.3.3,1.3,0,2.5.3,3.5.7,1,.4,1.8,1,2.5,1.6.7.7,1.2,1.4,1.5,2.3.3.9.5,1.7.5,2.6,0,2.2-.5,4.1-1.5,5.6-1,1.5-2.3,2.4-4,2.7-.9.2-1.8.2-2.7.2-.9,0-1.7-.2-2.5-.4-.8-.2-1.4-.6-2-1.1-.6-.5-1.1-1.1-1.4-1.9-.4-1-.6-2.1-.5-3.3.1-1.1.7-2.1,1.6-2.9.4-.4.4-.7.2-.9-.2-.2-.5-.2-.8,0-1.2.9-2.5,1.7-3.8,2.5-1.3.8-2.7,1.5-4.1,2.2-1.4.6-2.9,1.1-4.4,1.5-1.5.4-3.2.6-4.8.6ZM136.1,94c-.2-.6-.3-1.2-.4-2,0-.7-.1-1.5-.1-2.3s0-1.5,0-2.2c0-.7.1-1.3.3-1.9.2-1,.7-1.6,1.2-2,.6-.4,1.5-.7,2.6-.9,2.2-.3,4.5-.5,6.9-.7,2.4-.2,4.8-.2,7.2-.2s4.8,0,7.2.2c2.4.2,4.6.4,6.8.7,1.2.2,2.1.5,2.7.9.6.4,1,1.1,1.3,2,.1.5.2,1.2.3,1.9,0,.7,0,1.5,0,2.2,0,.8,0,1.5-.1,2.3,0,.8-.2,1.4-.3,2-.2,1-.6,1.6-1.2,2-.6.4-1.4.7-2.6.8-2.2.2-4.5.4-6.9.5-2.4.1-4.8.2-7.2.2s-4.8,0-7.2-.2c-2.4-.1-4.7-.3-6.9-.5-1.2-.2-2-.4-2.6-.8-.5-.4-.9-1.1-1.2-2ZM150.1,88.9c-.2.4,0,.8.6,1.1,1,.6,2.1.8,3.2.8,1.1,0,2.2-.3,3.2-.8.5-.2.6-.6.5-1,0-.2-.2-.4-.4-.5-.2-.1-.4-.1-.7,0-.8.5-1.7.7-2.7.7-1,0-2-.2-2.8-.7-.2-.1-.3-.1-.5,0-.2,0-.4.2-.5.4Z"/>
    <path class="cls-1" d="M186.4,95.8c-1.1,0-2.1-.4-3-1s-1.7-1.3-2.3-2.2c-.6-.9-1.1-2-1.4-3.3s-.4-2.7-.3-4.3c0-1.7.5-3.4,1.1-5.1.6-1.6,1.5-3.2,2.5-4.6,1-1.4,2.1-2.8,3.3-3.9,1.2-1.2,2.4-2.2,3.7-3,.2-.1.3-.3.3-.5,0-.2,0-.4,0-.5,0-.2-.2-.3-.3-.4-.2,0-.3,0-.5,0-1.1.9-2.2,1.7-3.4,2.4-1.2.6-2.4,1-3.4,1.1-.8.1-1.6,0-2.4,0s-1.5-.5-2.1-.9c-.6-.4-1.2-1-1.6-1.6-.5-.6-.7-1.4-.9-2.2-.3-1.8,0-3.3.8-4.4.8-1.1,2-2,3.6-2.6,1.3-.5,2.5-.8,3.7-1,1.2-.2,2.6-.3,4.2-.3s2.4.2,3.4.6c.9.4,1.7,1,2.4,1.7.6.7,1.2,1.6,1.6,2.6.4,1,.7,2.2.9,3.4.2,1.6.4,3.3.5,5.2s.1,3.7,0,5.6-.2,3.8-.3,5.6-.4,3.6-.7,5.2c-.3,1.3-.7,2.4-1.1,3.5-.5,1.1-1.1,2-1.8,2.7-.7.8-1.6,1.3-2.6,1.7-1,.4-2.1.5-3.4.4ZM206.6,80.8c0,3.8-.3,7.5-.5,11.1-.2,1.8-.6,3.1-1.4,4s-1.8,1.3-3.1,1.3-2.5-.5-3.3-1.5c-.8-1-1.1-2.5-.9-4.5.4-4.8.6-9.5.7-14.2,0-4.7-.2-9.3-.6-13.9-.2-2.2,0-3.8.9-4.9.8-1,1.9-1.6,3.3-1.6s2.3.4,3.1,1.3,1.3,2.2,1.4,4c.2,2.2.3,4.5.4,6.9h1.8c0-.9-.1-2-.2-3,0-1-.2-2.1-.2-3.1-.2-2.2,0-3.9.9-5s1.9-1.6,3.3-1.6,2.3.5,3.1,1.4c.8.9,1.3,2.3,1.4,4.1.4,4.9.5,10,.5,15.2s-.2,10.3-.5,15.3c-.2,1.8-.6,3.2-1.4,4.1-.8.9-1.8,1.3-3.1,1.3s-2.5-.5-3.4-1.5c-.8-1-1.1-2.5-.9-4.6.1-1.8.3-3.6.4-5.3.1-1.8.2-3.5.2-5.3h-1.8Z"/>
    <path class="cls-1" d="M242.7,77.9c-1,1.1-2.3,2-4,2.6-1.7.6-3.9.9-6.5.9s-4.2-.2-5.8-.7c-1.6-.5-2.9-1.2-3.9-2-1-.9-1.7-1.9-2.2-3.1-.5-1.2-.7-2.4-.7-3.8s.3-3.1.9-4.2c.6-1.1,1.3-1.9,2.2-2.4-1.6-.5-2.5-1.4-2.5-2.8s1.7-3,5-3.2c.2,0,.4,0,.5,0,.2,0,.4,0,.5,0-.3-.2-.4-.5-.5-.7,0-.2-.1-.5-.1-.7,0-.8.6-1.5,1.7-2s2.6-.7,4.5-.7,3.4.2,4.5.7,1.7,1.2,1.7,2,0,.5-.1.7c0,.2-.2.4-.5.7.3,0,.7,0,1,0s.7,0,1,0c3.3.2,4.9,1.2,4.9,3.2s-.2,1.3-.7,1.8h2.9c0-.5-.1-1-.2-1.5,0-.5,0-.9-.2-1.4-.2-1.9.2-3.2,1.2-4,1-.8,2.5-1.3,4.3-1.3s2.9.4,3.9,1.1c1,.7,1.6,1.8,1.8,3.4.2,1.3.4,2.6.5,4.1,0,1.5.1,2.9.1,4.4s0,3-.1,4.4c0,1.5-.2,2.8-.5,4.1-.2,1.5-.8,2.6-1.8,3.4-1,.7-2.3,1.1-3.9,1.1s-2.9-.3-4-.9c-1-.6-1.6-1.6-1.7-3h-3.4ZM241.6,87.5c0,0,.1-.2,0-.2,0,0-.1-.1-.2-.1-.1,0-.2,0-.4,0s-.2,0-.3.1c-1.7,1.5-3.6,2.7-5.8,3.6-2.1.9-4.5,1.3-7.1,1.3-2.2,0-3.9-.4-5.3-.9-1.4-.6-2.1-1.5-2.2-2.9,0-.7.1-1.3.5-1.8.4-.5,1-1,1.7-1.5.7-.4,1.6-.8,2.6-1.1,1-.3,2.1-.6,3.3-.8,1.7-.3,3.5-.5,5.4-.7,1.8-.2,3.7-.4,5.5-.5,1.8,0,3.6,0,5.3,0,1.7,0,3.4.3,4.9.6,2.2.4,3.8,1,5,1.7,1.2.7,2.1,1.5,2.6,2.3.3.5.5,1,.7,1.7.1.6.2,1.3.1,2,0,.7-.2,1.4-.5,2-.3.7-.6,1.3-1.1,1.8-.9,1-2,1.7-3.5,2.2-1.4.4-3.3.7-5.7.7-2.5,0-4.4-.2-5.9-.8-1.5-.6-2.3-1.5-2.5-2.6-.2-1.3,0-2.5.4-3.4.5-.9,1.2-1.9,2.1-2.7ZM231.5,73.5c0,.2,0,.3.2.4.1,0,.3.1.5.1s.3,0,.5-.1c.1,0,.2-.2.2-.4v-3.9c0-.2,0-.3-.2-.4-.1,0-.3-.1-.5-.1s-.3,0-.5.1c-.1,0-.2.2-.2.4v3.9ZM244.8,71.9h1.8c0-.3,0-.6,0-.9v-.9h-1.9c0,.2,0,.5,0,.8v.9h0Z"/>
    <path class="cls-1" d="M279.4,65.4c-.2,0-.3,0-.5,0-.2,0-.3,0-.5,0-1.7,0-3-.5-3.8-1.3s-1.2-1.8-1.2-2.9.4-2,1.2-2.9c.8-.9,2.1-1.3,3.8-1.4,1.3,0,2.5,0,3.7-.1,1.2,0,2.4,0,3.7,0s2.5,0,3.6,0c1.2,0,2.4,0,3.6.1,1.7,0,2.9.5,3.8,1.4.8.9,1.3,1.8,1.3,2.9s-.4,2.1-1.2,2.9c-.8.8-2.1,1.3-3.8,1.3-.3,0-.5,0-.8,0s-.5,0-.8,0c.3.7.9,1.3,1.7,1.8.8.5,1.6,1,2.6,1.5.5.2.9.5,1.2.9.4.3.7.8.9,1.3.3.5.4,1.2.6,1.9.1.8.1,1.7,0,2.7,0,1.2-.2,2.1-.5,2.8-.2.7-.5,1.3-.9,1.7-.4.4-.9.7-1.5.8-.6.1-1.3.2-2.1.2s-1.9,0-2.6-.2c-.7-.1-1.3-.4-1.7-.8-.4-.4-.8-.9-.9-1.7-.2-.7-.3-1.7-.3-2.9s-.2-2.6-.5-3.5c-.3-.9-1-1.8-1.9-2.6-.2-.1-.4-.2-.6-.2-.2,0-.3,0-.4.2,0,.1-.1.3,0,.5,0,.2.2.3.4.5.7.4,1.1,1.1,1.3,2s.3,2.1.3,3.5-.1,2-.3,2.6c-.2.7-.6,1.2-1.1,1.5s-1.2.6-2.1.7c-.9.1-1.9.2-3.2.2-2.1,0-3.8-.4-5.1-1.3-1.3-.9-1.9-2.3-2-4.3,0-1.8.1-3.2.6-4.2.5-1,1.4-1.8,2.7-2.4,1-.5,1.8-.9,2.4-1.4.6-.5,1-1.1,1.2-1.9ZM274.2,89.6c0-2.2.5-4,1.5-5.2,1-1.2,2.4-2,4-2.2.9-.2,1.8-.2,2.7-.1.9,0,1.7.3,2.5.6s1.5.7,2,1.2c.6.5,1,1.1,1.3,1.9.2.5.3,1,.4,1.6,0,.6,0,1.2,0,1.8,0,.6-.2,1.2-.5,1.7s-.6,1-1,1.3c-.2,0-.2.2-.3.4,0,.1,0,.3,0,.4,0,.1.2.2.3.2.1,0,.3,0,.4-.2,1.2-.9,2.4-1.8,3.7-2.7,1.3-.9,2.6-1.7,4.1-2.4s2.9-1.3,4.5-1.8,3.2-.7,4.8-.7,1.6,0,2.4.2c.7.2,1.4.4,2,.8.6.4,1.1.9,1.5,1.4s.6,1.3.8,2.1c.2,1.8-.2,3.3-1.3,4.4s-2.9,1.9-5.5,2.2c-1.4.2-3,.3-4.7.4-1.7.1-3.5.2-5.5.2-1.9,0-3.9,0-6,0-2.1,0-4.2-.1-6.3-.2-1.3,0-2.5-.3-3.5-.8-1-.4-1.8-1-2.5-1.6-.7-.7-1.2-1.4-1.5-2.2-.3-.8-.5-1.7-.5-2.7ZM299.2,79.2c.2-1.2.3-2.6.4-4.2,0-1.6.1-3.2.1-4.8s0-3.2-.1-4.7-.2-2.9-.4-4c-.1-.9,0-1.7.2-2.4s.6-1.2,1.1-1.6,1.1-.8,1.8-1,1.6-.3,2.5-.3c1.6,0,2.9.4,3.9,1.1,1,.7,1.6,1.8,1.8,3.4.2,1.3.4,2.7.5,4.4,0,1.7.1,3.4.1,5.2s0,3.5-.1,5.2c0,1.7-.2,3.1-.5,4.4-.2,1.5-.8,2.6-1.8,3.3-1,.7-2.3,1.1-3.9,1.1s-3.3-.4-4.3-1.2c-1.1-.8-1.5-2.1-1.3-3.8Z"/>
    <path class="cls-1" d="M317.3,65.3c-.9-.2-1.5-.6-1.8-1.1-.4-.5-.5-1.1-.5-1.9s.3-1.7,1-2.2c.6-.5,1.7-.8,3.3-.9h.3c-.5-.5-.7-.9-.7-1.4,0-.8.5-1.5,1.4-2,.9-.5,2.3-.7,4.2-.7s3.2.2,4.1.7c.9.5,1.4,1.2,1.4,2s0,.5-.1.7c0,.2-.3.5-.5.7h.6c.2,0,.4,0,.7,0,1.6,0,2.7.4,3.3.9.6.5.9,1.3.9,2.2s-.2,1.4-.5,1.9c-.4.5-1,.8-1.9,1.1.8.6,1.5,1.4,2.1,2.5.6,1.1.8,2.5.8,4.1s-.2,2.6-.5,3.8c-.4,1.2-1,2.2-1.8,3.1s-1.9,1.6-3.2,2.1c-1.3.5-3,.8-4.9.8s-3.5-.3-4.9-.8-2.4-1.2-3.2-2.1c-.8-.9-1.4-1.9-1.8-3.1-.4-1.2-.5-2.5-.5-3.8s.3-3,.9-4.1,1.3-2,2.1-2.5ZM317,90.6c0-2.6,1.6-4.6,4.7-6,3.2-1.3,8-2,14.4-2s11.1.7,14.3,2c3.2,1.4,4.7,3.3,4.7,5.9s-.3,2.5-1,3.3c-.7.9-1.8,1.6-3.3,2.1s-3.5.9-5.9,1.1c-2.4.2-5.3.3-8.7.3s-6.3,0-8.8-.3c-2.4-.2-4.4-.5-6-1.1s-2.7-1.2-3.4-2.1c-.7-.9-1.1-2-1.1-3.3ZM324.1,73.7c0,.2,0,.3.2.4.2,0,.3.1.5.1s.3,0,.5-.1c.1,0,.2-.2.2-.4v-3.9c0-.2,0-.3-.2-.4-.2-.1-.3-.2-.5-.2s-.3,0-.5.2c-.2.1-.2.2-.2.4v3.9ZM332.9,90.9c1,.5,2.1.8,3.3.8,1.1,0,2.2-.3,3.3-.8.1,0,.3-.2.4-.4.1-.2.1-.4,0-.7,0-.2-.2-.3-.4-.4s-.4-.1-.6,0c-.8.4-1.8.7-2.8.7-1,0-1.9-.2-2.7-.7-.2,0-.3-.1-.5,0-.2,0-.3.2-.5.5-.2.5,0,.9.5,1.2ZM344.7,74.6c0,.4,0,.8,0,1.1,0,.4,0,.7,0,1.1-.1,1.8-.6,3.1-1.4,4-.8.9-1.9,1.3-3.1,1.3s-2.5-.5-3.3-1.6-1.1-2.5-.9-4.5c.2-2.2.3-4.5.3-6.7s0-4.4-.2-6.4c-.2-2.2.1-3.9.9-4.9.8-1,1.9-1.5,3.3-1.5s2.3.4,3.1,1.3c.8.9,1.3,2.2,1.4,4,0,.4,0,.9,0,1.3,0,.5,0,.9,0,1.4l1.8.2c0-.4,0-.7,0-1.1,0-.4,0-.7,0-1.1-.2-2.2,0-3.9.9-5s1.9-1.6,3.3-1.6,2.3.5,3.1,1.4c.8.9,1.3,2.3,1.4,4.1,0,1.2.1,2.4.1,3.8s0,2.7,0,4.1,0,2.8,0,4.1c0,1.3,0,2.6-.1,3.8-.2,1.8-.6,3.2-1.4,4.1-.8.9-1.8,1.3-3.1,1.3s-2.5-.5-3.3-1.5c-.8-1-1.1-2.5-.9-4.6,0-.4,0-.7,0-1.1,0-.4,0-.8,0-1.1l-1.7.2Z"/>
    <path class="cls-1" d="M380.7,82.5c0-.2,0-.4,0-.7v-1.3c-3,0-5.8-.2-8.4-.4s-2.3-.4-3-.9c-.7-.5-1.1-1.3-1.1-2.4s.4-1.6,1.1-2.2c.7-.6,1.7-.8,3-.8,2.4.2,5,.3,7.7.4s5.4.1,8.2.1,5.5,0,8.3-.1c2.7,0,5.4-.2,7.9-.4,1.3,0,2.3.2,3.1.8.7.6,1.1,1.3,1.1,2.2s-.4,1.8-1.1,2.4c-.7.5-1.8.8-3.1.9-2.6.2-5.4.3-8.3.4v1.3c0,.2,0,.4,0,.6,3.5.4,6.1,1.2,8,2.3,1.9,1.2,2.8,2.9,2.8,5.2s-.4,2.8-1.3,3.8c-.8,1-2,1.8-3.6,2.4-1.6.6-3.5,1-5.8,1.3-2.3.3-4.8.4-7.7.4s-5.5-.1-7.7-.4c-2.3-.3-4.2-.7-5.8-1.3-1.6-.6-2.8-1.4-3.6-2.4s-1.3-2.3-1.3-3.8c0-2.2.9-3.9,2.8-5.1,1.9-1.2,4.5-2,8-2.4ZM378.6,63.6c-1.6,0-3.1-.2-4.5-.3-1.2,0-2.2-.4-3-.9-.8-.5-1.1-1.2-1.1-2.2s.4-1.6,1.1-2.1c.8-.5,1.8-.8,3-.8,2.2-.2,4.5-.3,6.9-.4,2.4,0,4.9,0,7.4,0s4.9,0,7.3,0c2.4,0,4.8.2,7,.4,1.2,0,2.2.3,2.9.8.7.5,1.1,1.2,1.1,2.1s-.4,1.7-1.1,2.2c-.8.5-1.7.8-2.9.9-.7,0-1.4.1-2,.2-.7,0-1.4,0-2.1.1.9.3,1.7.5,2.6.7.9.2,1.7.3,2.4.4.7,0,1.3.3,1.8.6s.9.7,1.2,1.1c.3.4.5.9.7,1.4.2.5.2,1,.2,1.5,0,1.4-.6,2.4-1.9,3-1.3.6-3.1.8-5.5.8s-3.7,0-4.8-.1c-1.1,0-2-.3-2.5-.5-.5-.3-.8-.7-.9-1.2-.1-.5-.2-1.2-.2-2,0-1-.4-1.8-.9-2.5-.5-.7-1.3-1.3-2.2-1.7-.2,0-.4-.1-.5,0-.2,0-.3,0-.4.2,0,.1-.1.2,0,.4s.2.2.4.3c.8.4,1.4.9,1.8,1.6.4.7.6,1.4.6,2.1s0,1.4-.2,1.9c-.1.5-.5.8-1.1,1.1-.6.2-1.7.4-3.1.4-1.4,0-3.4,0-6,0s-3,0-4.3-.2c-1.3-.1-2.4-.3-3.3-.6s-1.6-.7-2.1-1.1c-.5-.5-.7-1.1-.7-1.8,0-1.3.3-2.3,1-3.1.7-.8,1.7-1.3,3.2-1.5.9,0,1.8-.2,2.7-.4s1.7-.4,2.5-.7ZM386.3,92.5c-.1.1-.2.3-.1.4,0,.2,0,.3.2.4.1.1.3.2.5.2.2,0,.4,0,.6-.2.9-.7,1.6-1.6,2.1-2.6.5-1,1-2.1,1.3-3.2,0-.2,0-.4,0-.6,0-.2-.2-.3-.4-.3-.2,0-.3,0-.5,0-.2,0-.3.2-.3.3-.3,1.1-.8,2-1.3,2.9-.5.9-1.2,1.7-2,2.6Z"/>
  </g>
</svg>