<svg width="360" height="40" viewBox="0 0 360 40" fill="none" xmlns="http://www.w3.org/2000/svg">
<rect width="360" height="40" fill="#CCCDCC"/>
<path d="M26.7617 21.7105C27.5577 18.3103 25.4451 14.9089 22.043 14.1132C18.6409 13.3176 15.2375 15.429 14.4414 18.8292C13.6454 22.2294 15.758 25.6308 19.1601 26.4265C22.5622 27.2221 25.9656 25.1107 26.7617 21.7105Z" fill="#E15956"/>
<path d="M41.8211 26.3215C45.1622 25.3 47.0422 21.7648 46.0201 18.4255C44.9979 15.0862 41.4608 13.2074 38.1196 14.2289C34.7784 15.2505 32.8984 18.7856 33.9206 22.1249C34.9427 25.4642 38.4799 27.3431 41.8211 26.3215Z" fill="#F9D761"/>
<path d="M62.1666 26.1076C65.3884 24.7561 66.9038 21.0502 65.5515 17.8303C64.1992 14.6104 60.4912 13.0958 57.2695 14.4474C54.0478 15.7989 52.5323 19.5048 53.8846 22.7247C55.2369 25.9446 58.9449 27.4592 62.1666 26.1076Z" fill="#81BF4B"/>
</svg>
