<?xml version="1.0" encoding="UTF-8"?>
<svg id="_레이어_1" data-name="레이어 1" xmlns="http://www.w3.org/2000/svg" version="1.1" viewBox="0 0 600 430">
  <defs>
    <style>
      .cls-1 {
        fill: #002933;
      }

      .cls-1, .cls-2, .cls-3, .cls-4, .cls-5, .cls-6, .cls-7, .cls-8, .cls-9 {
        stroke-width: 0px;
      }

      .cls-2 {
        fill: #698ab5;
      }

      .cls-3 {
        fill: #ebdbcc;
      }

      .cls-4 {
        fill: #00bf78;
      }

      .cls-5 {
        fill: #ffbf00;
      }

      .cls-6 {
        fill: #000803;
      }

      .cls-7 {
        fill: #f05705;
      }

      .cls-8 {
        fill: #fdf6b2;
      }

      .cls-9 {
        fill: #ff8c52;
      }
    </style>
  </defs>
  <path class="cls-8" d="M336.2,418.5c112.7,0,204-91.3,204-204S448.9,10.5,336.2,10.5s-204,91.3-204,204,91.3,204,204,204"/>
  <path class="cls-5" d="M93.6,90.6c-3-9.3-9.9-17.1-18.9-21.1,9.6-5.4,16.2-15.3,18.2-26.1,2.7,8.6,8.1,16.4,15.4,21.9-9.9,4.3-13.3,14.9-14.7,25.3M111.3,64.7c-10.3-6.9-16.9-18.4-18-30.7-.3-1.7-.5-3.4-.7-5.1-.3-.1-.6-.2-.8-.1-.7,0-1.6.5-1.4,1.5,3.3,15.3-5,31.7-19.1,38.4-1,.5-.6,1.8.3,2.1,11.7,4.2,20.2,15.2,21.2,27.6.1,1.5,2.2,1.5,2.3,0,.9-11.7,2.7-27.4,15.9-31.5,1-.3,1.1-1.6.3-2.1"/>
  <path class="cls-7" d="M328.7,87c7.6-5.7,13.1-13.7,16-22.7,2,11.1,8.8,21.3,18.8,27-9.3,4.2-16.4,12.3-19.5,21.9-1.5-10.7-5-21.7-15.2-26.1M325.8,88.5c13.6,4.3,15.6,20.5,16.5,32.6.1,1.6,2.3,1.6,2.4,0,1-12.8,9.9-24.2,21.9-28.5.9-.3,1.3-1.7.3-2.2-14.6-6.9-23.1-23.9-19.8-39.8.2-1-.7-1.6-1.4-1.5-.3,0-.6,0-.9.1-.2,1.8-.4,3.6-.7,5.3-1.1,12.7-8,24.5-18.6,31.7-.9.6-.7,1.9.3,2.2"/>
  <path class="cls-4" d="M363.9,157.2c0-.1,0-.2-.2-.3,0-.1,0-.2,0-.3-.4-2.3,1.6-4.6,3.9-4.8,2-.1,3.5,1.7,3.8,3.5.7,4.5-5.9,5.8-7.5,1.8M374,154.6c-.7-3.4-3.7-6.1-7.3-5.5-3.8.7-6.4,4.4-5.8,8.2,0,.1,0,.2,0,.3,0,0,0,.2,0,.3,1.3,3.2,4.8,5,8.2,4.2,3.5-.8,5.3-4.2,4.6-7.6"/>
  <path class="cls-1" d="M180.6,40.7c0-.1,0-.2-.2-.3,0-.1,0-.2,0-.3-.4-2.3,1.6-4.6,3.9-4.8,2-.1,3.5,1.7,3.8,3.5.7,4.5-5.9,5.8-7.5,1.8M190.8,38.1c-.7-3.4-3.7-6.1-7.3-5.5-3.8.7-6.4,4.4-5.8,8.2,0,.1,0,.2,0,.3,0,0,0,.2,0,.3,1.3,3.2,4.8,5,8.2,4.2,3.5-.8,5.3-4.2,4.6-7.6"/>
  <path class="cls-1" d="M82.3,233.6c0-.1,0-.2-.2-.3,0-.1,0-.2,0-.3-.4-2.3,1.6-4.6,3.9-4.8,2-.1,3.5,1.7,3.8,3.5.7,4.5-5.9,5.8-7.5,1.8M92.5,231c-.7-3.4-3.7-6.1-7.3-5.5-3.8.7-6.4,4.4-5.8,8.2,0,.1,0,.2,0,.3,0,0,0,.2,0,.3,1.3,3.2,4.8,5,8.2,4.2,3.5-.8,5.3-4.2,4.6-7.6"/>
  <path class="cls-7" d="M344.9,185.4c.3,3.9.6,7.8.8,11.7.1,1.5,2.4,1.3,2.3-.2-.3-3.9-.6-7.8-.8-11.7-.1-1.5-2.4-1.3-2.3.2"/>
  <path class="cls-7" d="M338.4,202.5h-9.5c-1.4,0-1.2,2.2.2,2.2h9.5c1.4,0,1.2-2.2-.2-2.2"/>
  <path class="cls-7" d="M363.2,202.6c-3.4,0-6.8,0-10.1,0-1.5,0-1.3,2.3.2,2.3,3.4,0,6.8,0,10.1,0,1.5,0,1.3-2.3-.2-2.3"/>
  <path class="cls-7" d="M345.8,209.8v10.6c-.1,1.5,2.2,1.3,2.2-.2v-10.6c.1-1.5-2.2-1.3-2.2.2"/>
  <path class="cls-5" d="M66.4,119.6c.3,3.9.6,7.8.8,11.7.1,1.5,2.4,1.3,2.3-.2-.3-3.9-.6-7.8-.8-11.7-.1-1.5-2.4-1.3-2.3.2"/>
  <path class="cls-5" d="M60,136.7h-9.5c-1.4,0-1.2,2.2.2,2.2h9.5c1.4,0,1.2-2.2-.2-2.2"/>
  <path class="cls-5" d="M84.8,136.8c-3.4,0-6.8,0-10.1,0-1.5,0-1.3,2.3.2,2.3,3.4,0,6.8,0,10.1,0,1.5,0,1.3-2.3-.2-2.3"/>
  <path class="cls-5" d="M67.3,144v10.6c-.1,1.5,2.2,1.3,2.2-.2v-10.6c.1-1.5-2.2-1.3-2.2.2"/>
  <path class="cls-2" d="M179.5,119.9c25.9-6.1,52.8-7.9,79.2-11,6.5-.7,13-1.5,19.5-2.2,3-.3,6.3-.9,9.5-1.1,1.3,0,2.6,0,3.8.2,1.2.2,2.4.4,3.5.9,5.8,2.3,6.3,8.7,6.2,14.1,0,6.7-.4,13.4-.9,20-1.1,15.1-3.2,30.1-5.8,45.1-1.3,7.6-2.9,19.9-9,26.1-.2.2-.3.3-.5.5-.3.4-.5.7-.8,1.1-.3.4-.6.8-.7,1.3-.4.9-.4,1.7.4,2.6,0,0,.2.2.2.2,3.3,1,6.5,2.4,9.6,4-.8-.9-1.6-1.8-2.5-2.7.3-.3.7-.6,1-.9,1.5-1.4,2.7-3,3.7-4.7.5-.9,1-1.8,1.5-2.8.3-.7.7-1.5.9-2.2,2.4-4.9,3.9-10.2,4.8-15.6,1.6-10.2,1.8-20.6,3.1-30.8,1.8-14.5,4.2-29.3,3.3-43.9,0-9.8-1.3-19.5-5.6-28.7-4.9-10.3-12.2-19.1-19.6-27.6-.3-.3-.6-.7-.9-1-.2-.2-.4-.5-.6-.7,0,0-.2-.2-.3-.2-1-1-2-2-3.2-2.8-5.9-4.5-13-5-20.2-4.4-16.2,1.5-32.3,4.1-48.2,7.3-4.8.8-9.7,1.6-14.5,2.4-9.7,1.6-19.5,3.2-29.2,4.8-9.2,1.5-18.5,2.7-27.6,4.6-7,1.5-14.2,3.9-19.4,9-1.5,1.5-2.8,3.2-4,5,10.5,17.3,23,33.2,37.3,47.4,5.9-8,16.2-11,25.7-13.2"/>
  <path class="cls-2" d="M293.2,342.2c-1.9,1.8-4.7,2.2-7.1,2.8-3.2.7-6.4,1.2-9.7,1.4-2.2.1-4.8.1-6.4-1.6-1.6-1.8-1-4.2-.2-6.2.2-.5.5-.7.9-.8,2.7-1.5,5.8-1.9,8.8-2.3,3.1-.5,6.3-.9,9.4-.8,2.1,0,4.7,0,5.7,2.2.9,1.9,0,4.1-1.5,5.4M352.3,293.3c-.5-.8-1-1.6-1.6-2.4-.6-.7-1.3-1.4-2-2.1-.5,2.6-1.4,5-2.8,7.3-.5.9-1.1,1.8-1.8,2.6-1.2,1.4-2.5,2.6-4,3.6-5.7,3.9-13.3,5.2-19.9,6.5-20.3,4-40.6,7.7-61,11.2-9.7,1.7-19.4,3.4-29.1,5-5.6.8-11.2,1.4-16.8,1.2-5.5-.2-10.9-1-16.1-3.1,0,0,0,0,0,0-.2,0-.4-.2-.6-.3-3.5,22.1-3.6,44.8-.2,66.9.6.2,1.3.4,1.9.6.9.3,1.7.5,2.6.7.4,0,.8.2,1.2.2,6.9,1.2,13.9.5,20.8-.4,15.1-1.9,30.3-3.8,45.4-6,15.5-2.2,31-4.8,46.4-7.9,7.1-1.4,14.3-2.8,21.2-4.8,5.2-1.5,10.5-3.8,13.8-8.2,4.2-5.6,4.6-13,5.2-19.8.7-8.4,1.2-16.8,1.4-25.2.2-8.1.5-18.5-3.8-25.9"/>
  <path class="cls-2" d="M194,322c-9.9-4.9-17.8-13.1-24.6-21.6-8.4-10.5-15.7-22-21.7-34.1-.6-1.1-1.2-2.6-1.9-4.2-.5-1.7-.7-3.3-.9-4.5,0-.2,0-.5,0-.7,0,0,0-.1,0-.2,0-.2,0-.3,0-.5,0,0,0-.1,0-.2,0-.2,0-.4,0-.5,0,0,0,0,0,0,0-.1,0-.3,0-.4,0,0,0,0,0-.1,0,0,0-.2,0-.3,0,0,0,0,0,0,0,0,0-.1,0-.2,0,0,0,0,0,0-3.1.2-6.2.1-9.2-.2-.3.1-.6.3-.9.4-.5.2-.9.5-1.3.8-.5.4-.9.7-1.3,1.2-2.4,2.5-3.5,6-4.3,9.3-2.2,10-4,20.5-4.6,30.7-.6,9.6,1.4,18.3,6.9,26.2,1.9,2.6,3.9,5.1,6,7.6,6.7,9.2,15,17,23,25.1.5.5.9,1,1.4,1.4,2.3,2.5,4.7,5.1,7,7.6,1.8,2,3.5,4.1,5.3,6.1,3.9,4.7,8,9.4,12.8,13.2,2.4,1.9,5,3.5,7.7,4.8-3.2-22.2-3-44.8.6-66.9"/>
  <path class="cls-2" d="M145.5,251.7c.7-3,1.9-5.8,3.5-8.4,0-.3,0-.5,0-.8,0,0,0,0,0-.1,0-.3,0-.5,0-.8-.3-.2-.6-.4-.9-.7-.9-.6-1.7-1.3-2.4-2.1-2.1-2.1-3.8-4.6-4.4-7.8-.3-1.2-.4-2.4-.4-3.6,0-.9-.1-1.8-.1-2.7,0-1.5,0-3.1.2-4.6.2-4.5.5-9.1.7-13.6,1.3-11.4,2.5-22.8,3.8-34.2.7-6.5,1.4-12.9,2.2-19.4.7-5.6,1.6-11.5,4.2-16.6.2-.4.4-.7.6-1.1-14.3-14.1-26.8-29.9-37.3-47-1.9,3.9-3.2,8.3-4.1,12.6-3.9,18.7-6.8,37.7-10.1,56.6-1.6,9.2-3.3,18.7-2.1,28,1,8.5,4.5,16.3,8.5,23.7,4.6,8.5,9.6,16.8,14.6,25.1,3.5,5.8,6.9,13.9,13.4,17,.2.1.5.2.7.3,3.2.3,6.4.3,9.6.1"/>
  <path class="cls-2" d="M290.4,337.2c-.7-.2-1.7,0-2.4,0-1.8,0-3.5.1-5.3.4-3.5.4-7.6.8-10.8,2.5-.3.6-.5,1.3-.4,1.8.2,2.1,2.5,2,3.9,2,1.8,0,3.6-.2,5.3-.5,3.1-.5,7.4-.8,10.1-2.5,1.6-1,2.4-2.5-.4-3.5"/>
  <path class="cls-4" d="M311.7,294.9c-17.4,3-34.8,6.1-52.2,9.1-8.7,1.5-17.5,3.1-26.2,4.6-7.5,1.3-15.1,2.4-22.7,2.1-7.3-.3-14.4-1.9-20.7-5.6-6.4-3.7-11.7-8.9-16.6-14.2-9.9-10.6-19.3-21.7-28.2-33.2.1,1.2.3,2.7.9,4.5h0c.7,1.5,1.3,3,1.9,4.2,6,12,13.3,23.6,21.7,34.1,6.8,8.5,14.7,16.8,24.6,21.6.8.4,1.6.8,2.5,1.1.2,0,.4.2.6.3,2.8.7,5.8,1,8.9,1,8.8,0,17.6-2.1,26.2-3.7,8.8-1.6,17.7-3.2,26.5-4.9,18-3.3,36.1-6.6,54.1-9.9,8.2-1.5,16.8-2.5,24.8-5.2,3-1,5.9-2.5,8.3-4.4,1.3-2.3,2.2-4.7,2.8-7.3l-5-7.3c-6.8,8.9-21.6,11.3-32,13.1"/>
  <path class="cls-4" d="M309.9,308.9l-57.7,10.6c-9.5,1.7-19,3.5-28.5,5.2-3.5.6-7,1.3-10.5,1.7,5.6.2,11.2-.4,16.8-1.2,9.7-1.7,19.4-3.3,29.1-5,20.4-3.6,40.7-7.2,61-11.2,6.7-1.3,14.2-2.6,19.9-6.5-4.4,1.7-9.1,2.6-13.8,3.5-5.4,1-10.9,2-16.3,3"/>
  <path class="cls-4" d="M293.5,123.5c-.3,4.5-.7,9-1.1,13.5-.8,9.2-1.7,18.3-2.7,27.4-1,9-2,18.1-3,27.1-.8,7.1-1.9,14.1-4.4,20.8,1.1-.1,2.2-.3,3.3-.4,6.1-6.2,7.7-18.5,9-26.1,2.6-14.9,4.7-29.9,5.8-45.1.5-6.7.8-13.3.9-20,0-5.4-.4-11.8-6.2-14.1-1.1-.4-2.3-.7-3.5-.9,1.2,1.6,2,3.5,2.4,5.6.6,4,0,8.1-.3,12.1"/>
  <path class="cls-4" d="M207,170.1c3.6,5.2,7.3,10.4,10.9,15.6-.8.4-1.5.9-2.2,1.4-3.6-5.2-7.2-10.3-10.9-15.5.7-.5,1.4-1,2.1-1.5M238.9,155.7c0,.1,0,.2,0,.4.4,7.4,1.1,14.8,2,22.2-.8.2-1.7.4-2.5.5-1-7.5-1.7-15.1-2.1-22.6.8-.1,1.7-.3,2.5-.4M264.6,164.4c.1-.3.3-.5.5-.7.7.4,1.4.7,2.1,1.1,0,0,0,.2,0,.3-2.2,6.3-4.7,12.4-7.6,18.3l-2.4-1c2.9-5.9,5.4-11.9,7.5-18.1M162.6,226.7c0-.5.4-1.1,1-1.3,20.4-4.4,41-8.2,61.6-11.5,0-.2,0-.3,0-.5.1-1,.5-2,1-2.8.5-.7,1.1-1.4,1.8-2,1.6-1.2,3.5-2,5.6-2.7.9-.3,1.9-.5,2.9-.8,1.6-.4,3.1-.7,4.6-1,4.1-.9,9-2.3,12.9,0,0,0,0,0,0,0,.7.4,1.4,1,2,1.6,1,1,1.9,2.1,2.6,3.2,2.9-.4,5.8-.8,8.6-1.1.5,0,1.2.5,1.3,1,.2,1.7.5,3.5.7,5.2,3.4-.5,6.8-.9,10.2-1.3,3.7-9.1,4.4-19,5.5-28.6,1.1-10,2.2-20,3.2-30,1-10,1.9-20,2.7-30,.3-4.5,1.5-10,0-14.4-.6-1.7-1.7-3.1-3.1-4-3.2.1-6.5.7-9.5,1.1-6.5.7-13,1.5-19.5,2.2-26.4,3-53.3,4.9-79.2,11-9.5,2.2-19.8,5.2-25.7,13.2-.5.7-1,1.4-1.5,2.2-.2.4-.4.7-.6,1.1-2.6,5.1-3.5,11-4.2,16.6-.8,6.5-1.4,12.9-2.2,19.4-1.3,11.4-2.5,22.8-3.8,34.2-.2,4.5-.5,9.1-.7,13.6,0,1.5-.2,3-.2,4.6,0,.9,0,1.8.1,2.7h0c0,1.2.2,2.4.4,3.6.7,3.2,2.3,5.7,4.4,7.8,5.8-1.5,11.5-3,17.3-4.5-.2-2.6-.3-5.2-.5-7.8"/>
  <path class="cls-4" d="M225.3,216.5c-20.1,3.2-40.2,7-60.1,11.2.1,2,.3,4.1.4,6.1,4.6-1.1,9.2-2.2,13.8-3.3,14.9-3.5,29.9-6.5,45-9.3,1-.2,2-.4,2.9-.5,0,0,0-.2-.1-.2-.2-.2-.3-.4-.5-.7-.1-.2-.3-.5-.4-.7-.5-.9-.8-1.7-1-2.6"/>
  <path class="cls-4" d="M261.8,215.1c1.6-.2,3.3-.5,4.9-.7-.2-1.3-.3-2.5-.5-3.8-2,.3-4.1.5-6.1.8.4.6.7,1.3,1,1.9.3.6.5,1.2.7,1.8"/>
  <path class="cls-4" d="M291.6,248.6c-1.8.3-3.7.7-5.5,1-.1,0-.2,0-.3,0-.3,0-.6.1-.9.2-.6.1-1.2.2-1.8.3,0,0-.2,0-.3,0-.1,0-.3,0-.4,0-.9.2-1.9.3-2.8.5,0,0-.1,0-.2,0-.5,0-1,.2-1.4.3-1,.2-2,.4-3,.5,0,0-.1,0-.2,0-16,2.9-32,5.8-47.9,8.7-2.7.5-5.4,1-8.1,1.5-.4,0-.8.2-1.3.2-.2,0-.5,0-.7.1-1,.2-1.9.3-2.9.5-1.6.3-3.2.6-4.7.9-1.7.3-3.4.6-5.2.9-3.7.7-7.4,1.3-11.1,2-8.6,1.5-24.2,3-24.1,14.8,0,.2,0,.4-.1.6,2.8,3.1,5.7,6.2,8.6,9.3,5,5.2,10.5,10.1,17.1,13.2,6.9,3.2,14.7,3.9,22.2,3.5,7.4-.4,14.6-1.7,21.8-3,8.2-1.4,16.4-2.9,24.5-4.3,16-2.8,32.1-5.6,48.1-8.4,10-1.7,25.7-3.7,31.4-13.2-.3-.7-.7-1.3-1.1-2-3.4-6-8-11.3-12.6-16.4-4.8-5.3-9.6-10.7-14.4-16-6.4,1.2-12.8,2.3-19.2,3.5-1.2.2-2.3.4-3.5.6"/>
  <path class="cls-4" d="M244.8,239.2c-11.6,1.4-20.1,9.6-24.8,19.7,17.5-3.2,35.1-6.3,52.6-9.5-7.3-7.2-17.2-11.5-27.8-10.2"/>
  <path class="cls-4" d="M231.5,225.9c-.8-.8-1.6-1.7-2.3-2.5,0-.1-.2-.2-.3-.3-.6.1-1.3.2-1.9.3-26.5,4.8-52.9,10.7-78.9,17.6.3.2.6.5.9.7,0,.3,0,.5,0,.8,0,0,0,0,0,.1,0,.3,0,.5,0,.8-1.6,2.6-2.8,5.4-3.5,8.4-.1.6-.3,1.1-.4,1.7.2.3.4.6.7.9,0,0,0,0,0,.1,1.6,2.1,3.2,4.2,4.8,6.2,0,0,0,0,0,0,.8,1,1.6,2,2.4,3,0,0,.2.2.2.3.8.9,1.5,1.9,2.3,2.8.2.2.3.4.5.6.7.8,1.4,1.7,2.1,2.5.3.3.5.6.8.9.6.7,1.2,1.4,1.8,2.1.4.5.9,1,1.3,1.5.4.5.9,1,1.3,1.5.9,1,1.8,2,2.7,3.1,1.4-10.4,14-13.1,22.8-14.7l15.1-2.7c2-8.4,5.6-16.5,11.1-23.2,4.5-5.6,10.1-9.8,16.3-12.6"/>
  <path class="cls-4" d="M284,217.4c-.8-.9-.7-1.8-.4-2.6-.7,0-1.4.2-2.1.2-4.4.5-8.8,1.1-13.1,1.7-2,.3-4,.6-6,.8,0,.8,0,1.6-.1,2.4-.2,1.3-.7,2.5-1.4,3.8,0,0,0,0,0,0,12.2,3.4,22.4,11.9,29.3,22.5,7.4-1.3,14.8-2.7,22.2-4-.2-.2-.3-.4-.5-.6-6-6.7-12-13.3-18-20-3.1-1.6-6.3-2.9-9.6-4,0,0-.2-.2-.2-.2"/>
  <path class="cls-6" d="M145,254.4s0,0,0,0c0,0,0,.1,0,.2,0,0,0,0,0,0,0,0,0,.2,0,.3,0,0,0,0,0,.1,0,.1,0,.3,0,.4,0,0,0,0,0,0,0,.2,0,.3,0,.5,0,0,0,.1,0,.2,0,.1,0,.3,0,.5,0,0,0,.1,0,.2,0,.2,0,.4,0,.7,8.9,11.5,18.3,22.6,28.2,33.2,5,5.3,10.3,10.5,16.6,14.2,6.3,3.7,13.5,5.3,20.7,5.6,7.6.3,15.2-.8,22.7-2.1,8.7-1.5,17.5-3.1,26.2-4.6,17.4-3,34.8-6.1,52.2-9.1,10.4-1.8,25.3-4.2,32-13.1-.1-.3-.2-.6-.4-.8,0-.1-.1-.3-.2-.4-.2-.5-.5-1-.7-1.4-5.8,9.5-21.5,11.5-31.4,13.2-16,2.8-32,5.6-48.1,8.4-8.2,1.4-16.4,2.9-24.5,4.3-7.2,1.3-14.5,2.6-21.8,3-7.5.4-15.3-.3-22.2-3.5-6.6-3.1-12.1-8-17.1-13.2-2.9-3-5.8-6.1-8.6-9.3,0-.2.1-.4.1-.6,0-11.9,15.6-13.3,24.1-14.8,3.7-.7,7.4-1.3,11.1-2,1.7-.3,3.4-.6,5.2-.9,1.6-.3,3.2-.6,4.7-.9,1-.2,1.9-.3,2.9-.5.2,0,.5,0,.7-.1.4,0,.8-.2,1.3-.2,2.7-.5,5.4-1,8.1-1.5,16-2.9,32-5.8,47.9-8.7,0,0,.1,0,.2,0,1-.2,2-.4,3-.5.5,0,1-.2,1.4-.3,0,0,.1,0,.2,0,.9-.2,1.9-.3,2.8-.5.1,0,.3,0,.4,0,0,0,.2,0,.3,0,.6-.1,1.2-.2,1.8-.3.3,0,.6-.1.9-.2.1,0,.2,0,.3,0,1.8-.3,3.7-.7,5.5-1,1.2-.2,2.3-.4,3.5-.6,6.4-1.2,12.8-2.3,19.2-3.5-.2-.2-.3-.4-.5-.5-.5-.6-1-1.2-1.6-1.7-7.4,1.3-14.8,2.7-22.2,4-1.9.3-3.8.7-5.6,1,0,0-.2,0-.2,0-.1,0-.3,0-.4,0-.8.1-1.6.3-2.4.4h-.5c-.2.1-.4.2-.7.2-.9.2-1.8.3-2.7.5-.1,0-.3,0-.4,0-.4,0-.9.2-1.3.2-1,.2-2,.4-3,.5-.1,0-.2,0-.3,0-17.5,3.2-35.1,6.3-52.6,9.5-.3,0-.6.1-.9.2,0,0-.1,0-.2,0-.9.2-1.9.3-2.8.5,0,0,0,0-.1,0,0,0,0,0,0,0-.3,0-.7.1-1,.2-.5,0-1,.2-1.6.3-1.2.2-2.3.4-3.5.6-.2,0-.4,0-.6.1-1,.2-1.9.3-2.9.5-.7.1-1.5.3-2.2.4l-15.1,2.7c-8.8,1.6-21.4,4.3-22.8,14.7-.9-1-1.8-2-2.7-3.1-.4-.5-.9-1-1.3-1.5-.4-.5-.9-1-1.3-1.5-.6-.7-1.2-1.4-1.8-2.1-.3-.3-.5-.6-.8-.9-.7-.8-1.4-1.7-2.1-2.5-.2-.2-.3-.4-.5-.6-.8-.9-1.5-1.9-2.3-2.8,0,0-.2-.2-.2-.3-.8-1-1.6-2-2.4-3,0,0,0,0,0,0-1.6-2.1-3.2-4.1-4.8-6.2,0,0,0,0,0-.1h0c-.2-.3-.4-.6-.7-.9,0-.6.2-1.2.4-1.7-3.2.2-6.4.2-9.6-.1.2,0,.4.1.5.2.5.2,1.1.3,1.7.5.7.1,1.4.2,2.1.2-.2.3-.3.6-.5,1-.6,0-1.1,0-1.7,0-.2,0-.4,0-.5,0-.6.1-1.1.3-1.6.5,3.1.3,6.2.3,9.2.2"/>
  <path class="cls-6" d="M312.8,305.7c-18,3.3-36.1,6.6-54.1,9.9l-26.5,4.9c-8.6,1.6-17.4,3.7-26.2,3.7-3.1,0-6-.3-8.9-1,0,0,0,0,0,0,5.2,2.1,10.6,3,16.1,3.1,3.5-.4,7.1-1,10.5-1.7,9.5-1.7,19-3.5,28.5-5.2l57.7-10.6c5.4-1,10.9-2,16.3-3,4.7-.9,9.4-1.7,13.8-3.5,1.5-1,2.8-2.2,4-3.6.7-.8,1.3-1.7,1.8-2.6-2.5,1.9-5.4,3.4-8.3,4.4-7.9,2.7-16.6,3.6-24.8,5.2"/>
  <path class="cls-6" d="M243,220.2c-.7,0-1.3,0-1.9,0,2.8-3.2,5.7-6.2,8.8-9.1.8,2.7,1.6,5.4,2.4,8-3.1.5-6.2.9-9.3,1.1M290.8,109.7c1.5,4.4.4,9.9,0,14.4-.7,10-1.7,20-2.7,30-1,10-2.1,20-3.2,30-1.1,9.6-1.8,19.6-5.5,28.6-3.4.4-6.8.9-10.2,1.3-.2-1.7-.5-3.5-.7-5.2,0-.5-.8-1-1.3-1-2.9.4-5.8.7-8.6,1.1.5.8,1,1.6,1.4,2.4,2-.3,4.1-.5,6.1-.8.2,1.3.3,2.5.5,3.8-1.6.2-3.3.5-4.9.7.2.8.4,1.5.5,2.3-2.5.5-4.9.9-7.4,1.4-1-3.2-1.9-6.4-2.9-9.6,1.3-1.2,2.6-2.3,4-3.4-.6-.6-1.3-1.2-2-1.6,0,0,0,0,0,0-3.4,2.8-6.7,5.8-9.8,9-2.6-2.7-5.1-5.3-7.7-8-1,.2-1.9.5-2.9.8,2.9,3,5.8,6.1,8.7,9.1-1.5,1.6-2.9,3.2-4.3,4.8-2.1-.6-4.1-1.7-6-3.4-2.1-1.8-4-3.8-5.9-5.9-.6.9-.9,1.8-1,2.8,4.3,4.8,9.2,9.4,15.8,9.5,0,0,0,0,0,0,2.8,0,5.6-.3,8.4-.8,1.5-.2,2.9-.5,4.3-.7,2.8-.4,5.6-.9,8.4-1.5.1-.8.2-1.6.1-2.4,2-.3,4-.6,6-.8,4.4-.6,8.7-1.2,13.1-1.7.7,0,1.4-.2,2.1-.2.2-.4.5-.8.7-1.3.3-.4.5-.7.8-1.1.2-.2.3-.3.5-.5-1.1.1-2.2.3-3.3.4,2.5-6.7,3.5-13.7,4.4-20.8,1-9,2-18.1,3-27.1,1-9.1,1.9-18.3,2.7-27.4.4-4.5.8-9,1.1-13.5.3-4,.9-8.1.3-12.1-.3-2.1-1.1-4.1-2.4-5.6-1.2-.2-2.5-.2-3.8-.2,1.4.9,2.5,2.3,3.1,4"/>
  <path class="cls-6" d="M290.7,340.8c-2.7,1.7-7,2.1-10.1,2.5-1.7.3-3.5.5-5.3.5-1.4,0-3.6.2-3.9-2,0-.5.2-1.2.4-1.8,3.1-1.7,7.3-2,10.8-2.5,1.7-.2,3.5-.4,5.3-.4.7,0,1.7-.1,2.4,0,2.7,1,2,2.5.4,3.5M288.9,334.6c-3.2-.1-6.3.3-9.4.8-3,.5-6.1.9-8.8,2.3-.4.1-.7.4-.9.8-.8,2-1.4,4.4.2,6.2,1.6,1.8,4.2,1.7,6.4,1.6,3.3-.2,6.5-.7,9.7-1.4,2.5-.5,5.2-1,7.1-2.8,1.4-1.3,2.4-3.5,1.5-5.4-1-2.2-3.7-2.2-5.7-2.2"/>
  <path class="cls-6" d="M153.8,133.1c-14.3-14.2-26.9-30.2-37.3-47.4-.5.9-1,1.7-1.5,2.6,10.5,17.1,23.1,32.9,37.3,47,.5-.8.9-1.5,1.5-2.2"/>
  <path class="cls-6" d="M196.5,322.9c-.8-.3-1.6-.7-2.5-1.1-3.6,22.1-3.8,44.7-.6,66.9.9.4,1.8.8,2.8,1.2-3.4-22.2-3.3-44.8.2-66.9"/>
  <path class="cls-3" d="M242.8,228.5c-1.1,0-2.2,0-3.2-.1-2.6-.2-5.1-.8-7.5-1.9.4.4.8.8,1.3,1.2.7.7,1.4,1.3,2.1,1.9,0,0,0,0,0,0,1.2,1,2.4,1.9,3.6,2.6.3.2.6.3.8.5.6.4,1.3.7,1.9.9.2,0,.5.2.7.3.1,0,.3,0,.4.1,2.8.9,5.8,1,8.5-.2,0,0,0,0,0,0,.2,0,.3-.1.5-.2.8-.4,1.6-.9,2.3-1.5.1-.1.3-.2.4-.4,1.1-1,2.1-2.1,3-3.3,0,0,0,0,0,0,.4-.5.8-1.1,1.1-1.6-1.8.3-3.5.6-5.3.8-3.6.5-7.2.8-10.9.9"/>
  <path class="cls-3" d="M254.9,218.7c2.5-.4,4.9-.9,7.4-1.4,0-.7-.2-1.5-.5-2.3-.2-.6-.4-1.2-.7-1.8-.3-.6-.6-1.3-1-1.9-.4-.8-.9-1.6-1.4-2.4-.8-1.2-1.7-2.3-2.6-3.2-1.4,1.1-2.7,2.3-4,3.4,1,3.2,1.9,6.4,2.9,9.6"/>
  <path class="cls-3" d="M249.5,222.1c-2.8.4-5.6.8-8.4.8,0,0,0,0,0,0-6.6-.1-11.5-4.8-15.8-9.5,0,.2,0,.3,0,.5,0,.9,0,1.7.2,2.6.2.9.6,1.8,1,2.6.1.2.3.5.4.7,2,1.6,4,3.2,6.3,4.3.5.2.9.4,1.4.6,3.2,1.2,6.7,1.3,10.1,1.1,5.4-.3,10.8-1.1,16.2-2.1,0,0,0,0,0,0,.7-1.3,1.2-2.5,1.4-3.8-2.8.5-5.6,1-8.4,1.5-1.4.2-2.9.5-4.3.7"/>
  <path class="cls-3" d="M241.1,220.2c.6,0,1.3,0,1.9,0,3.1-.2,6.2-.6,9.3-1.1-.8-2.7-1.6-5.4-2.4-8-3.1,2.9-6,5.9-8.8,9.1"/>
  <path class="cls-3" d="M254,204.1c-3.9-2.3-8.8-.9-12.9,0-1.4.3-3,.6-4.6,1,2.6,2.7,5.1,5.3,7.7,8,3.1-3.2,6.4-6.2,9.8-9"/>
  <path class="cls-3" d="M232.1,216.4c1.9,1.7,3.8,2.8,6,3.4,1.4-1.6,2.8-3.2,4.3-4.8-2.9-3-5.8-6.1-8.7-9.1-2,.6-4,1.4-5.6,2.7-.8.6-1.4,1.3-1.8,2,1.9,2,3.8,4,5.9,5.9"/>
  <path class="cls-6" d="M229,223c0,.1.2.2.3.3.7.8,1.5,1.7,2.3,2.5.2.2.4.4.5.6,2.4,1.1,4.9,1.7,7.5,1.9,1.1,0,2.1.1,3.2.1,3.6,0,7.3-.4,10.9-.9,1.8-.2,3.5-.5,5.3-.8.2-.2.3-.5.5-.7.3-.4.5-.8.8-1.2.2-.4.4-.7.6-1.1,0,0,0,0,0,0,0,0,0,0,0,0-5.4,1-10.7,1.8-16.2,2.1-3.5.2-6.9,0-10.1-1.1-.5-.2-.9-.4-1.4-.6-2.3-1.1-4.4-2.7-6.3-4.3.1.2.3.4.5.7,0,0,0,.2.1.2-1,.2-2,.4-2.9.5-15.1,2.8-30.1,5.9-45,9.3-4.6,1.1-9.2,2.2-13.8,3.3-.1-2-.3-4.1-.4-6.1,19.9-4.3,40-8,60.1-11.2-.2-.9-.3-1.7-.2-2.6-20.6,3.3-41.2,7.1-61.6,11.5-.5.1-1,.7-1,1.3.2,2.6.3,5.2.5,7.8-5.8,1.4-11.6,2.9-17.3,4.5.8.7,1.6,1.4,2.4,2.1,26.1-6.9,52.4-12.8,78.9-17.6.6-.1,1.3-.2,1.9-.3"/>
  <path class="cls-6" d="M217.9,185.7c-3.6-5.2-7.3-10.4-10.9-15.6-.7.5-1.4,1-2.1,1.5,3.6,5.2,7.2,10.3,10.9,15.5.7-.5,1.5-.9,2.2-1.4"/>
  <path class="cls-6" d="M240.9,178.2c-.9-7.4-1.6-14.8-2-22.2,0-.1,0-.3,0-.4-.8.1-1.7.3-2.5.4.4,7.6,1.1,15.1,2.1,22.6.8-.2,1.7-.3,2.5-.5"/>
  <path class="cls-6" d="M267.1,165.1c0,0,0-.2,0-.3-.7-.3-1.4-.7-2.1-1.1-.2.1-.4.4-.5.7-2.2,6.2-4.7,12.2-7.5,18.1.8.3,1.6.7,2.4,1,2.9-6,5.4-12.1,7.6-18.3"/>
  <path class="cls-9" d="M248.1,235c-13.5,1.8-25,11.2-29.3,24.1,0,0,.1,0,.2,0,.3,0,.6-.1.9-.2,4.8-10.1,13.2-18.3,24.8-19.7,10.6-1.3,20.5,3,27.8,10.2.1,0,.2,0,.3,0,1-.2,2-.4,3-.5.4,0,.9-.2,1.3-.2.1,0,.3,0,.4,0,.9-.2,1.8-.3,2.7-.5.2,0,.4,0,.7-.1-8-9.5-20.4-14.5-32.8-12.9"/>
  <path class="cls-9" d="M260.8,223.8c-.2.4-.4.7-.6,1.1-.3.4-.5.8-.8,1.2-.2.2-.3.5-.5.7-.4.5-.7,1.1-1.1,1.6,0,0,0,0,0,0-.9,1.2-1.9,2.3-3,3.3-.1.1-.3.2-.4.4,11.4.5,22.3,6.1,29.4,15.2.1,0,.3,0,.4,0,0,0,.2,0,.2,0,1.9-.3,3.8-.7,5.6-1-6.9-10.5-17.1-19-29.3-22.5"/>
  <path class="cls-9" d="M241.9,233.7c-.7-.3-1.3-.6-1.9-.9-.3-.2-.6-.3-.8-.5-1.2-.8-2.5-1.7-3.6-2.6,0,0,0,0,0,0-.7-.6-1.5-1.2-2.1-1.9-.4-.4-.8-.8-1.3-1.2-.2-.2-.4-.4-.5-.6-6.2,2.8-11.8,7.1-16.3,12.6-5.5,6.8-9.1,14.8-11.1,23.2.7-.1,1.5-.3,2.2-.4,1-.2,1.9-.3,2.9-.5.2,0,.4,0,.6-.1,1.2-.2,2.3-.4,3.5-.6.5,0,1-.2,1.6-.3.3,0,.7-.1,1-.2,0,0,0,0,0,0,3.7-12.6,13.6-22.2,25.9-25.9"/>
  <path class="cls-6" d="M254.4,232.1c-.7.6-1.5,1.1-2.3,1.5-.2,0-.3.2-.5.2,0,0,0,0,0,0-2.8,1.2-5.7,1.2-8.5.2-.1,0-.3,0-.4-.1-.2,0-.5-.2-.7-.3-12.3,3.7-22.2,13.3-25.9,25.9,0,0,0,0,.1,0,.9-.2,1.9-.3,2.8-.5,4.3-12.9,15.8-22.2,29.3-24.1,12.4-1.7,24.8,3.4,32.8,12.9h.5c.8-.2,1.6-.4,2.4-.5-7.1-9.1-18-14.8-29.4-15.2"/>
</svg>