<?xml version="1.0" encoding="UTF-8"?>
<svg id="_레이어_2" data-name="레이어 2" xmlns="http://www.w3.org/2000/svg" viewBox="0 0 980 51.17">
  <defs>
    <style>
      .cls-1 {
        fill: #f9d761;
      }

      .cls-1, .cls-2, .cls-3, .cls-4 {
        stroke-width: 0px;
      }

      .cls-2 {
        fill: #cccdcc;
      }

      .cls-3 {
        fill: #e15956;
      }

      .cls-4 {
        fill: #81bf4b;
      }
    </style>
  </defs>
  <g id="_레이어_1-2" data-name="레이어 1">
    <path class="cls-2" d="M0,51.17V17.91C0,8.02,8.02,0,17.92,0h944.17c9.9,0,17.92,8.02,17.92,17.91v33.27"/>
    <path class="cls-3" d="M48.19,30.81c1.12-4.79-1.85-9.57-6.64-10.69-4.79-1.12-9.58,1.85-10.7,6.64-1.12,4.79,1.85,9.57,6.64,10.69,4.79,1.12,9.58-1.85,10.7-6.64Z"/>
    <path class="cls-1" d="M69.39,37.3c4.7-1.44,7.35-6.41,5.91-11.11-1.44-4.7-6.42-7.35-11.12-5.91-4.7,1.44-7.35,6.41-5.91,11.11,1.44,4.7,6.42,7.35,11.12,5.91Z"/>
    <path class="cls-4" d="M98.03,37c4.54-1.9,6.67-7.12,4.76-11.65-1.9-4.53-7.12-6.66-11.66-4.76-4.53,1.9-6.67,7.12-4.76,11.65,1.9,4.53,7.12,6.66,11.66,4.76Z"/>
  </g>
</svg>