<svg width="128" height="93" viewBox="0 0 128 93" fill="none" xmlns="http://www.w3.org/2000/svg">
<g clip-path="url(#clip0_1061_2868)">
<path d="M61.9751 91.9218C50.3151 91.6418 40.2251 85.8518 30.4451 79.2718C30.1651 79.0818 29.9351 78.8418 29.6851 78.6218C18.8551 69.0218 13.5051 46.4018 18.9151 33.0318C19.7251 31.0218 20.6451 29.0518 21.4551 27.0418C30.9651 3.60181 60.2751 -5.77819 81.4951 4.75181C94.0351 10.9718 103.405 19.6718 107.835 32.7118C119.285 66.4218 93.6951 94.0318 61.9751 91.9218Z" fill="white"/>
<path d="M62.8453 77.322H62.9553C64.2753 77.432 65.5753 77.482 66.8253 77.482C84.2853 77.482 94.6754 67.842 96.0954 50.352C97.3854 34.382 88.3853 22.002 71.3853 16.402C68.4153 15.422 65.2053 14.922 61.8553 14.922C52.0753 14.922 42.5253 19.262 38.0853 25.722C28.7153 39.382 28.2453 55.212 36.8953 66.042C37.8453 67.242 39.0053 68.292 40.1553 69.012C47.0653 73.332 54.5053 77.332 62.1453 77.332C62.3353 77.332 62.5353 77.332 62.7253 77.332H62.8353L62.8453 77.322ZM66.8253 81.822C65.4953 81.822 64.1253 81.772 62.7353 81.662C62.5453 81.662 62.3453 81.662 62.1553 81.662C53.4253 81.662 45.3253 77.342 37.8653 72.682C36.2853 71.692 34.7753 70.332 33.5053 68.742C28.6653 62.682 26.2253 55.142 26.4353 46.932C26.6453 38.832 29.4353 30.642 34.5053 23.252C39.7953 15.542 50.5253 10.562 61.8553 10.562C65.6753 10.562 69.3453 11.132 72.7553 12.252C82.1553 15.352 89.3754 20.312 94.1954 26.972C98.9854 33.602 101.145 41.792 100.425 50.682C99.6353 60.462 96.2754 68.162 90.4554 73.592C84.5954 79.042 76.6453 81.812 66.8353 81.812" fill="#176868"/>
<path d="M127.765 20.272C127.485 22.632 126.505 25.262 124.545 27.292C121.225 30.722 116.405 30.402 113.415 26.552C110.065 22.232 109.645 15.312 113.075 10.512C116.575 5.63202 122.485 5.83202 125.755 10.912C127.305 13.322 128.105 16.722 127.765 20.272Z" fill="#D9D9D9"/>
<path d="M121.395 66.9021C120.735 71.4321 119.525 73.2721 118.525 71.0121C117.675 69.0921 117.325 65.6021 117.195 61.5621C117.025 56.1921 117.365 55.1121 117.525 49.7821C117.745 42.8021 117.725 31.6121 118.285 25.0121C118.385 23.8621 118.385 22.0021 119.495 22.1121C120.595 22.2221 120.695 26.8921 120.815 28.6521C121.485 37.9321 120.975 48.6121 121.195 59.6321C121.275 61.8121 121.815 63.9221 121.385 66.8921" fill="#D9D9D9"/>
<path d="M122.725 82.8219C121.605 86.0719 119.525 87.3919 117.805 85.7719C116.345 84.3919 115.755 81.8919 115.535 78.9919C115.235 75.1419 115.365 71.3219 115.655 67.4919C116.025 62.4819 116.145 57.5219 117.105 52.7919C117.275 51.9619 117.575 50.6119 119.465 50.6919C121.355 50.7719 121.725 54.0919 121.945 55.3519C123.095 62.0119 123.255 68.9319 123.645 76.8319C123.785 78.4019 123.455 80.6919 122.715 82.8219" fill="#FAC78A"/>
<path d="M118.045 79.0415C118.335 78.3115 119.145 77.9115 119.845 78.1615C120.515 78.4015 120.925 79.2615 120.705 79.9715C120.495 80.6615 119.645 81.0615 118.905 80.8115C118.155 80.5615 117.765 79.7515 118.045 79.0415Z" fill="#EDAD6E"/>
<path d="M118.045 57.2514C118.335 56.5214 119.145 56.1214 119.845 56.3714C120.515 56.6114 120.925 57.4714 120.705 58.1814C120.495 58.8714 119.645 59.2614 118.905 59.0114C118.155 58.7614 117.765 57.9514 118.045 57.2414" fill="#EDAD6E"/>
<path d="M9.49526 66.9021C8.83526 71.4321 7.62526 73.2721 6.62526 71.0121C5.77526 69.0921 5.42526 65.6021 5.29526 61.5621C5.11526 56.1921 5.45526 55.1121 5.62526 49.7821C5.84526 42.8021 5.82526 31.6121 6.38526 25.0121C6.48526 23.8621 6.48526 22.0021 7.59526 22.1121C8.69526 22.2221 8.79526 26.8921 8.91526 28.6521C9.58526 37.9321 9.07526 48.6121 9.29526 59.6321C9.37526 61.8121 9.91526 63.9221 9.48526 66.8921" fill="#D9D9D9"/>
<path d="M10.8255 82.8219C9.70549 86.0719 7.62549 87.3919 5.91549 85.7719C4.45549 84.3919 3.86549 81.8919 3.64549 78.9919C3.34549 75.1419 3.47549 71.3219 3.76549 67.4919C4.13549 62.4819 4.25549 57.5219 5.21549 52.7919C5.38549 51.9619 5.68549 50.6119 7.57549 50.6919C9.46549 50.7719 9.83549 54.0919 10.0555 55.3519C11.2055 62.0119 11.3655 68.9319 11.7555 76.8319C11.8955 78.4019 11.5655 80.6919 10.8255 82.8219Z" fill="#FAC78A"/>
<path d="M6.1455 79.0415C6.4355 78.3115 7.2455 77.9115 7.9455 78.1615C8.6155 78.4015 9.0255 79.2615 8.8055 79.9715C8.5955 80.6615 7.7455 81.0615 7.0055 80.8115C6.2555 80.5615 5.8655 79.7515 6.1455 79.0415Z" fill="#EDAD6E"/>
<path d="M6.1455 57.2514C6.4355 56.5214 7.2455 56.1214 7.9455 56.3714C8.6155 56.6114 9.0255 57.4714 8.8055 58.1814C8.5955 58.8714 7.7455 59.2614 7.0055 59.0114C6.2555 58.7614 5.8655 57.9514 6.1455 57.2414" fill="#EDAD6E"/>
<path d="M14.5252 19.2817C14.5252 18.3417 14.4252 17.4017 14.2852 16.4617C14.0152 14.6217 13.7152 12.7917 13.1052 11.0617C12.9952 10.7617 12.9152 10.4417 12.7152 10.2017C12.4852 9.93169 12.2152 9.76169 11.8852 9.89169C11.5252 10.0417 11.2152 10.2817 11.0352 10.7117C10.8452 11.1417 10.7052 11.6017 10.5852 12.0617C10.0752 14.1117 9.8852 16.2117 9.7552 18.5317C9.7152 17.8417 9.6352 17.1417 9.5352 16.4517C9.2652 14.6117 8.9652 12.7817 8.3552 11.0517C8.2452 10.7517 8.1652 10.4317 7.9652 10.1917C7.7352 9.92169 7.4652 9.75169 7.1352 9.88169C6.7752 10.0317 6.4652 10.2717 6.2852 10.7017C6.0952 11.1317 5.9552 11.5917 5.8352 12.0517C5.3252 14.1017 5.1352 16.2017 5.0052 18.5217C4.9652 17.8317 4.8852 17.1317 4.7852 16.4417C4.5152 14.6017 4.2152 12.7717 3.6052 11.0417C3.4952 10.7417 3.4052 10.4217 3.2052 10.1817C2.9752 9.91169 2.7052 9.74169 2.3752 9.87169C2.0152 10.0217 1.7052 10.2617 1.5252 10.6917C1.3352 11.1217 1.1952 11.5817 1.0752 12.0417C0.465199 14.5317 0.315199 17.0717 0.165199 19.9817C0.145199 20.1417 0.155199 20.3217 0.175199 20.5117C0.155199 21.7617 0.455199 23.1617 0.655199 23.9917C1.0552 25.6417 2.0452 27.1017 3.4652 28.3317C4.2952 29.0517 5.0052 29.8617 5.9852 30.4617C7.4952 31.3917 8.9052 31.3217 10.1352 30.1717C11.4252 28.9617 12.5152 27.6417 13.3852 26.1917C13.8052 25.4917 14.1352 24.7617 14.3152 23.9917C14.5252 23.1017 14.6652 21.1717 14.5352 19.2817" fill="#D9D9D9"/>
<path d="M63.1172 28.6999C64.1599 28.4239 65.2486 28.4699 66.3832 28.8379C66.8432 28.9912 67.4106 29.2826 68.0852 29.7119C68.7599 30.1106 69.2046 30.4172 69.4192 30.6319C70.3392 31.6746 70.8452 32.7019 70.9372 33.7139C70.9679 34.1432 71.0446 34.4499 71.1672 34.6339C71.2899 34.8486 71.3512 35.1552 71.3512 35.5539C71.3512 35.9219 71.2899 36.2286 71.1672 36.4739C71.0446 36.7192 70.9526 37.0566 70.8912 37.4859C70.8299 37.9152 70.6152 38.4212 70.2472 39.0039C69.9099 39.5866 69.7412 39.9086 69.7412 39.9699C69.7412 40.0006 69.5572 40.2152 69.1892 40.6139C68.8212 41.0126 68.6679 41.3039 68.7292 41.4879C68.7906 41.6412 69.1739 42.0859 69.8792 42.8219C71.0752 44.0179 71.7959 44.9072 72.0412 45.4899C72.1639 45.7352 72.2866 45.9346 72.4092 46.0879C72.5319 46.2412 72.6392 46.5786 72.7312 47.0999C72.8232 47.6519 72.9152 48.0199 73.0072 48.2039C73.1299 48.4492 73.1759 48.9552 73.1452 49.7219C73.1452 50.4886 73.0686 51.0099 72.9152 51.2859C72.7926 51.5619 72.7006 51.9146 72.6392 52.3439C72.6086 52.7732 72.5166 53.1259 72.3632 53.4019C72.2099 53.6166 72.0872 53.8312 71.9952 54.0459C71.9339 54.2606 71.8266 54.4599 71.6732 54.6439C71.5199 54.8586 71.4432 54.9966 71.4432 55.0579C71.4432 55.2726 71.0446 55.7172 70.2472 56.3919C69.4499 57.0666 68.7292 57.5572 68.0852 57.8639C67.0426 58.3852 66.1839 58.7226 65.5092 58.8759C64.8652 59.0599 63.9759 59.1672 62.8412 59.1979C61.7372 59.1979 60.9552 59.1519 60.4952 59.0599C60.0352 58.9679 59.3759 58.7072 58.5172 58.2779C56.8919 57.4806 55.8339 56.2079 55.3432 54.4599C54.9139 52.8652 55.1439 51.7152 56.0332 51.0099C56.4319 50.7339 56.9226 50.5959 57.5052 50.5959C58.0879 50.5959 58.6399 50.8259 59.1612 51.2859C59.6826 51.7459 60.0046 52.2826 60.1272 52.8959C60.2806 53.5706 61.1699 53.9079 62.7952 53.9079C65.0032 53.9079 66.4599 53.3252 67.1652 52.1599C67.2266 52.0372 67.3492 51.8532 67.5332 51.6079C67.6252 51.4546 67.7479 51.1172 67.9012 50.5959C68.0852 49.8599 68.0546 49.1852 67.8092 48.5719C67.5639 47.9279 67.0426 47.2072 66.2452 46.4099C65.5399 45.7046 64.9879 45.2906 64.5892 45.1679C64.2212 45.0146 63.5006 44.9379 62.4272 44.9379C61.4152 44.9379 60.7099 44.8766 60.3112 44.7539C59.9126 44.6312 59.5446 44.3859 59.2072 44.0179C58.5326 43.3126 58.3332 42.4539 58.6092 41.4419C58.8852 40.4299 59.4832 39.8319 60.4032 39.6479C61.3232 39.4639 62.3506 39.0499 63.4852 38.4059C64.6506 37.7619 65.4172 37.1639 65.7852 36.6119C66.2759 35.8452 66.2146 35.1246 65.6012 34.4499C64.9879 33.7446 64.2672 33.6066 63.4392 34.0359C63.1939 34.1586 63.0252 34.2199 62.9332 34.2199C62.8106 34.2199 62.4886 34.5112 61.9672 35.0939C61.5072 35.5846 61.1699 35.8759 60.9552 35.9679C60.7406 36.0599 60.3266 36.1059 59.7132 36.1059C58.7012 36.1059 57.9959 35.5999 57.5972 34.5879C57.2292 33.5452 57.3826 32.5486 58.0572 31.5979C58.6092 30.7699 59.0692 30.2639 59.4372 30.0799C59.6212 29.9879 59.7899 29.8959 59.9432 29.8039C60.5566 29.4052 61.2926 29.1139 62.1512 28.9299C62.4886 28.8686 62.8106 28.7919 63.1172 28.6999Z" fill="#176868"/>
</g>
<defs>
<clipPath id="clip0_1061_2868">
<rect width="127.69" height="91.57" fill="white" transform="translate(0.155273 0.461914)"/>
</clipPath>
</defs>
</svg>
