<svg width="128" height="93" viewBox="0 0 128 93" fill="none" xmlns="http://www.w3.org/2000/svg">
<g clip-path="url(#clip0_1061_3415)">
<path d="M61.9751 92.352C50.3151 92.072 40.2251 86.282 30.4451 79.702C30.1651 79.512 29.9351 79.272 29.6851 79.052C18.8551 69.452 13.5051 46.832 18.9151 33.462C19.7251 31.452 20.6451 29.482 21.4551 27.472C30.9651 4.03199 60.2751 -5.34801 81.4951 5.18199C94.0351 11.402 103.405 20.102 107.835 33.142C119.285 66.852 93.6951 94.462 61.9751 92.352Z" fill="white"/>
<path d="M62.8453 77.7522H62.9553C64.2753 77.8622 65.5753 77.9122 66.8253 77.9122C84.2853 77.9122 94.6754 68.2722 96.0954 50.7822C97.3854 34.8122 88.3853 22.4322 71.3853 16.8322C68.4153 15.8522 65.2053 15.3522 61.8553 15.3522C52.0753 15.3522 42.5253 19.6922 38.0853 26.1522C28.7153 39.8122 28.2453 55.6422 36.8953 66.4722C37.8453 67.6722 39.0053 68.7222 40.1553 69.4422C47.0653 73.7622 54.5053 77.7622 62.1453 77.7622C62.3353 77.7622 62.5353 77.7622 62.7253 77.7622H62.8353L62.8453 77.7522ZM66.8253 82.2522C65.4953 82.2522 64.1253 82.2022 62.7353 82.0922C62.5453 82.0922 62.3453 82.0922 62.1553 82.0922C53.4253 82.0922 45.3253 77.7722 37.8653 73.1122C36.2853 72.1222 34.7753 70.7622 33.5053 69.1722C28.6653 63.1122 26.2253 55.5722 26.4353 47.3622C26.6453 39.2622 29.4353 31.0722 34.5053 23.6822C39.7953 15.9722 50.5253 10.9922 61.8553 10.9922C65.6753 10.9922 69.3453 11.5622 72.7553 12.6822C82.1553 15.7822 89.3754 20.7422 94.1954 27.4022C98.9854 34.0322 101.145 42.2222 100.425 51.1122C99.6353 60.8922 96.2754 68.5922 90.4554 74.0222C84.5954 79.4722 76.6453 82.2422 66.8353 82.2422" fill="#176868"/>
<path d="M127.765 20.7022C127.485 23.0622 126.505 25.6922 124.545 27.7222C121.225 31.1522 116.405 30.8322 113.415 26.9822C110.065 22.6622 109.645 15.7422 113.075 10.9422C116.575 6.0622 122.485 6.2622 125.755 11.3422C127.305 13.7522 128.105 17.1522 127.765 20.7022Z" fill="#D9D9D9"/>
<path d="M121.395 67.3323C120.735 71.8623 119.525 73.7023 118.525 71.4423C117.675 69.5223 117.325 66.0323 117.195 61.9923C117.025 56.6223 117.365 55.5423 117.525 50.2123C117.745 43.2323 117.725 32.0423 118.285 25.4423C118.385 24.2923 118.385 22.4323 119.495 22.5423C120.595 22.6523 120.695 27.3223 120.815 29.0823C121.485 38.3623 120.975 49.0423 121.195 60.0623C121.275 62.2423 121.815 64.3523 121.385 67.3223" fill="#D9D9D9"/>
<path d="M122.725 83.2521C121.605 86.5021 119.525 87.822 117.805 86.202C116.345 84.822 115.755 82.3221 115.535 79.4221C115.235 75.5721 115.365 71.7521 115.655 67.9221C116.025 62.9121 116.145 57.9521 117.105 53.2221C117.275 52.3921 117.575 51.0421 119.465 51.1221C121.355 51.2021 121.725 54.5221 121.945 55.7821C123.095 62.4421 123.255 69.3621 123.645 77.2621C123.785 78.8321 123.455 81.1221 122.715 83.2521" fill="#FAC78A"/>
<path d="M118.045 79.4722C118.335 78.7422 119.145 78.3421 119.845 78.5921C120.515 78.8321 120.925 79.6922 120.705 80.4022C120.495 81.0922 119.645 81.4921 118.905 81.2421C118.155 80.9921 117.765 80.1822 118.045 79.4722Z" fill="#EDAD6E"/>
<path d="M118.045 57.6821C118.335 56.9521 119.145 56.5521 119.845 56.8021C120.515 57.0421 120.925 57.9021 120.705 58.6121C120.495 59.3021 119.645 59.6921 118.905 59.4421C118.155 59.1921 117.765 58.3821 118.045 57.6721" fill="#EDAD6E"/>
<path d="M9.49526 67.3323C8.83526 71.8623 7.62526 73.7023 6.62526 71.4423C5.77526 69.5223 5.42526 66.0323 5.29526 61.9923C5.11526 56.6223 5.45526 55.5423 5.62526 50.2123C5.84526 43.2323 5.82526 32.0423 6.38526 25.4423C6.48526 24.2923 6.48526 22.4323 7.59526 22.5423C8.69526 22.6523 8.79526 27.3223 8.91526 29.0823C9.58526 38.3623 9.07526 49.0423 9.29526 60.0623C9.37526 62.2423 9.91526 64.3523 9.48526 67.3223" fill="#D9D9D9"/>
<path d="M10.8255 83.2521C9.70549 86.5021 7.62549 87.822 5.91549 86.202C4.45549 84.822 3.86549 82.3221 3.64549 79.4221C3.34549 75.5721 3.47549 71.7521 3.76549 67.9221C4.13549 62.9121 4.25549 57.9521 5.21549 53.2221C5.38549 52.3921 5.68549 51.0421 7.57549 51.1221C9.46549 51.2021 9.83549 54.5221 10.0555 55.7821C11.2055 62.4421 11.3655 69.3621 11.7555 77.2621C11.8955 78.8321 11.5655 81.1221 10.8255 83.2521Z" fill="#FAC78A"/>
<path d="M6.1455 79.4722C6.4355 78.7422 7.2455 78.3421 7.9455 78.5921C8.6155 78.8321 9.0255 79.6922 8.8055 80.4022C8.5955 81.0922 7.7455 81.4921 7.0055 81.2421C6.2555 80.9921 5.8655 80.1822 6.1455 79.4722Z" fill="#EDAD6E"/>
<path d="M6.1455 57.6821C6.4355 56.9521 7.2455 56.5521 7.9455 56.8021C8.6155 57.0421 9.0255 57.9021 8.8055 58.6121C8.5955 59.3021 7.7455 59.6921 7.0055 59.4421C6.2555 59.1921 5.8655 58.3821 6.1455 57.6721" fill="#EDAD6E"/>
<path d="M14.5252 19.7119C14.5252 18.7719 14.4252 17.8319 14.2852 16.8919C14.0152 15.0519 13.7152 13.2219 13.1052 11.4919C12.9952 11.1919 12.9152 10.8719 12.7152 10.6319C12.4852 10.3619 12.2152 10.1919 11.8852 10.3219C11.5252 10.4719 11.2152 10.7119 11.0352 11.1419C10.8452 11.5719 10.7052 12.0319 10.5852 12.4919C10.0752 14.5419 9.8852 16.6419 9.7552 18.9619C9.7152 18.2719 9.6352 17.5719 9.5352 16.8819C9.2652 15.0419 8.9652 13.2119 8.3552 11.4819C8.2452 11.1819 8.1652 10.8619 7.9652 10.6219C7.7352 10.3519 7.4652 10.1819 7.1352 10.3119C6.7752 10.4619 6.4652 10.7019 6.2852 11.1319C6.0952 11.5619 5.9552 12.0219 5.8352 12.4819C5.3252 14.5319 5.1352 16.6319 5.0052 18.9519C4.9652 18.2619 4.8852 17.5619 4.7852 16.8719C4.5152 15.0319 4.2152 13.2019 3.6052 11.4719C3.4952 11.1719 3.4052 10.8519 3.2052 10.6119C2.9752 10.3419 2.7052 10.1719 2.3752 10.3019C2.0152 10.4519 1.7052 10.6919 1.5252 11.1219C1.3352 11.5519 1.1952 12.0119 1.0752 12.4719C0.465199 14.9619 0.315199 17.5019 0.165199 20.4119C0.145199 20.5719 0.155199 20.7519 0.175199 20.9419C0.155199 22.1919 0.455199 23.5919 0.655199 24.4219C1.0552 26.0719 2.0452 27.5319 3.4652 28.7619C4.2952 29.4819 5.0052 30.2919 5.9852 30.8919C7.4952 31.8219 8.9052 31.7519 10.1352 30.6019C11.4252 29.3919 12.5152 28.0719 13.3852 26.6219C13.8052 25.9219 14.1352 25.1919 14.3152 24.4219C14.5252 23.5319 14.6652 21.6019 14.5352 19.7119" fill="#D9D9D9"/>
<path d="M62.0815 29.2681C62.6335 29.1148 63.3695 29.0228 64.2895 28.9921C65.2402 28.9614 65.8382 29.0074 66.0835 29.1301C66.2368 29.2221 66.4668 29.3294 66.7735 29.4521C67.1722 29.5748 67.6782 29.9121 68.2915 30.4641C68.9355 30.9854 69.3342 31.4148 69.4875 31.7521C69.5795 31.9361 69.7175 32.1508 69.9015 32.3961C70.0548 32.5801 70.1468 32.7641 70.1775 32.9481C70.2388 33.1934 70.3462 33.4848 70.4995 33.8221C70.6528 34.2208 70.7448 34.6808 70.7755 35.2021C70.8062 35.6928 70.8982 36.0914 71.0515 36.3981C71.2355 36.7354 71.3275 37.2721 71.3275 38.0081C71.3275 38.7441 71.2355 39.2808 71.0515 39.6181C70.8982 39.8941 70.8215 40.2621 70.8215 40.7221C70.8215 41.5501 70.6682 42.3168 70.3615 43.0221C70.2388 43.2981 70.1775 43.5128 70.1775 43.6661C70.1775 43.7888 70.0855 44.0034 69.9015 44.3101C69.7175 44.6168 69.6255 44.8468 69.6255 45.0001C69.6255 45.1228 69.5642 45.3068 69.4415 45.5521C69.3495 45.7361 69.2115 45.9968 69.0275 46.3341C68.9355 46.5181 68.7822 46.7941 68.5675 47.1621C68.5062 47.2234 68.4142 47.3614 68.2915 47.5761C68.1688 47.7908 68.0922 47.9288 68.0615 47.9901C67.9082 48.2968 67.7702 48.5268 67.6475 48.6801C67.5248 48.8334 67.4328 48.9868 67.3715 49.1401C67.2488 49.3548 67.0495 49.6308 66.7735 49.9681C66.4668 50.3054 66.3135 50.5201 66.3135 50.6121C66.3135 50.6734 66.1295 50.9188 65.7615 51.3481C65.3935 51.7774 65.1635 52.1148 65.0715 52.3601C64.9182 52.6054 64.8108 52.7434 64.7495 52.7741C64.6575 52.8048 64.6115 52.8661 64.6115 52.9581C64.6115 53.0194 64.4735 53.2034 64.1975 53.5101C63.7988 53.9394 63.6455 54.2001 63.7375 54.2921C63.7682 54.3534 64.8875 54.3994 67.0955 54.4301C68.9662 54.4608 70.0702 54.5068 70.4075 54.5681C70.7448 54.6294 71.1128 54.8901 71.5115 55.3501C72.0942 55.9941 72.2782 56.7301 72.0635 57.5581C71.8488 58.3554 71.3122 58.9534 70.4535 59.3521C70.1162 59.5054 69.7788 59.5821 69.4415 59.5821C69.1042 59.6128 68.0462 59.6128 66.2675 59.5821C63.9368 59.5514 62.6028 59.4901 62.2655 59.3981C61.9282 59.3061 61.4528 59.2601 60.8395 59.2601C59.3675 59.2601 58.2482 59.0148 57.4815 58.5241C56.6228 57.9721 56.1782 57.2208 56.1475 56.2701C56.1168 55.2888 56.5002 54.3841 57.2975 53.5561C58.2482 52.5441 58.8768 51.8234 59.1835 51.3941C59.5515 50.9648 59.9195 50.5354 60.2875 50.1061C61.3302 48.8794 61.9435 48.1128 62.1275 47.8061C62.2195 47.6221 62.2962 47.5148 62.3575 47.4841C62.5108 47.3614 62.8175 46.9474 63.2775 46.2421C63.7375 45.5368 64.0595 44.9694 64.2435 44.5401C64.3662 44.2641 64.4735 44.0801 64.5655 43.9881C64.6268 43.8961 64.7035 43.7121 64.7955 43.4361C64.9182 43.1601 65.0102 42.9761 65.0715 42.8841C65.1635 42.7921 65.2555 42.5314 65.3475 42.1021C65.4395 41.6421 65.5468 41.3354 65.6695 41.1821C65.9148 40.8141 66.0375 39.8481 66.0375 38.2841C66.0682 36.6894 65.9455 35.7234 65.6695 35.3861C65.5468 35.2021 65.4395 34.9874 65.3475 34.7421C65.1635 34.4354 64.8415 34.2514 64.3815 34.1901C63.9522 34.1288 63.5382 34.2208 63.1395 34.4661C62.7102 34.7114 62.2962 35.1561 61.8975 35.8001C61.4988 36.4134 61.2842 36.9041 61.2535 37.2721C61.2535 38.1614 60.8855 38.8821 60.1495 39.4341C59.4135 39.9554 58.6468 40.0321 57.8495 39.6641C57.2668 39.3881 56.8068 38.8821 56.4695 38.1461C56.1322 37.3794 56.0708 36.6894 56.2855 36.0761C56.3775 35.8308 56.4235 35.6468 56.4235 35.5241C56.4235 35.4014 56.5155 35.1561 56.6995 34.7881C56.8835 34.4201 56.9755 34.1901 56.9755 34.0981C56.9755 34.0061 57.0215 33.8834 57.1135 33.7301C57.2055 33.6381 57.3435 33.4234 57.5275 33.0861C58.6008 31.0928 60.1188 29.8201 62.0815 29.2681Z" fill="#176868"/>
</g>
<defs>
<clipPath id="clip0_1061_3415">
<rect width="127.69" height="91.57" fill="white" transform="translate(0.155273 0.89209)"/>
</clipPath>
</defs>
</svg>
