<svg width="227" height="182" viewBox="0 0 227 182" fill="none" xmlns="http://www.w3.org/2000/svg">
<path d="M191.424 0.142578H0.263672V146.083C0.263672 165.383 15.9137 181.033 35.2137 181.033H226.374V35.0926C226.374 15.7926 210.724 0.142578 191.424 0.142578Z" fill="#D3CECA"/>
<path d="M116.158 170.559C154.654 170.559 185.862 165.21 185.862 158.611C185.862 152.013 154.654 146.664 116.158 146.664C77.6615 146.664 46.4541 152.013 46.4541 158.611C46.4541 165.21 77.6615 170.559 116.158 170.559Z" fill="#E8ECF1"/>
<path d="M196.717 51.0833C200.609 52.8424 203.66 56.3606 204.852 60.4676C206.044 64.5674 205.348 69.1769 203 72.7454C201.808 74.5548 200.243 76.0841 198.699 77.6063C193.149 83.099 187.649 89.08 185.279 96.5185C183.635 101.674 183.614 107.174 183.003 112.552C182.393 117.922 181.043 123.508 177.346 127.45C170.316 134.946 160.86 139.599 154.377 147.576C149.753 153.262 145.875 159.961 139.464 163.523C131.293 168.053 121.097 166.308 112.287 163.199C109.81 162.323 107.362 161.354 104.827 160.651C95.285 158.015 85.1683 159.387 75.267 159.645C65.3658 159.904 54.6675 158.705 47.2721 152.113C40.5516 146.118 36.8539 135.98 28.1589 133.646C27.1393 133.374 26.0623 133.216 25.172 132.641C22.8528 131.148 23.0395 127.443 24.8201 125.339C26.6008 123.235 29.3866 122.316 32.0217 121.498C43.6534 117.879 57.1231 120.091 69.0707 117.714C103.506 110.857 133.131 89.9416 163.983 73.1906C173.038 68.2723 182.458 63.5406 189.516 56.0375C191.921 53.4742 193.292 50.3078 196.717 51.0833Z" fill="#665244"/>
<mask id="mask0_1028_13943" style="mask-type:luminance" maskUnits="userSpaceOnUse" x="23" y="50" width="183" height="117">
<path d="M196.717 51.0833C200.609 52.8424 203.66 56.3606 204.852 60.4676C206.044 64.5674 205.348 69.1769 203 72.7454C201.808 74.5548 200.243 76.0841 198.699 77.6063C193.149 83.099 187.649 89.08 185.279 96.5185C183.635 101.674 183.614 107.174 183.003 112.552C182.393 117.922 181.043 123.508 177.346 127.45C170.316 134.946 160.86 139.599 154.377 147.576C149.753 153.262 145.875 159.961 139.464 163.523C131.293 168.053 121.097 166.308 112.287 163.199C109.81 162.323 107.362 161.354 104.827 160.651C95.285 158.015 85.1683 159.387 75.267 159.645C65.3658 159.904 54.6675 158.705 47.2721 152.113C40.5516 146.118 36.8539 135.98 28.1589 133.646C27.1393 133.374 26.0623 133.216 25.172 132.641C22.8528 131.148 23.0395 127.443 24.8201 125.339C26.6008 123.235 29.3866 122.316 32.0217 121.498C43.6534 117.879 57.1231 120.091 69.0707 117.714C103.506 110.857 133.131 89.9416 163.983 73.1906C173.038 68.2723 182.458 63.5406 189.516 56.0375C191.921 53.4742 193.292 50.3078 196.717 51.0833Z" fill="white"/>
</mask>
<g mask="url(#mask0_1028_13943)">
<path d="M197.751 87.6509C203.086 80.8155 210.18 75.373 210.862 66.0175C211.199 61.3648 210.481 56.4895 209.512 51.9518C208.658 47.9453 207.487 43.3357 204.414 40.4637C203.43 39.5447 201.994 40.0832 201.197 40.8945C198.742 43.386 197.83 47.4642 197.134 50.7958C196.308 54.7951 196.308 58.8661 195.69 62.8869C194.707 69.2987 187.649 73.6354 183.829 78.4963C179.284 84.2834 175.637 90.9896 173.253 97.9542C172.966 98.7871 172.721 99.5913 172.492 100.381C170.733 101.831 169.189 103.476 167.882 105.271C164.034 109.686 160.752 114.49 157.859 119.645C153.996 126.538 149.192 136.03 156.035 142.7C162.476 148.983 172.291 146.233 177.252 139.613C182.027 133.244 185.387 125.174 188.668 117.965C190.219 114.569 189.257 111.46 187.168 109.356C187.34 108.76 187.512 108.157 187.677 107.568C189.595 100.869 193.127 93.5816 197.751 87.6509Z" fill="#584539"/>
</g>
<mask id="mask1_1028_13943" style="mask-type:luminance" maskUnits="userSpaceOnUse" x="23" y="50" width="183" height="117">
<path d="M196.717 51.0833C200.609 52.8424 203.66 56.3606 204.852 60.4676C206.044 64.5674 205.348 69.1769 203 72.7454C201.808 74.5548 200.243 76.0841 198.699 77.6063C193.149 83.099 187.649 89.08 185.279 96.5185C183.635 101.674 183.614 107.174 183.003 112.552C182.393 117.922 181.043 123.508 177.346 127.45C170.316 134.946 160.86 139.599 154.377 147.576C149.753 153.262 145.875 159.961 139.464 163.523C131.293 168.053 121.097 166.308 112.287 163.199C109.81 162.323 107.362 161.354 104.827 160.651C95.285 158.015 85.1683 159.387 75.267 159.645C65.3658 159.904 54.6675 158.705 47.2721 152.113C40.5516 146.118 36.8539 135.98 28.1589 133.646C27.1393 133.374 26.0623 133.216 25.172 132.641C22.8528 131.148 23.0395 127.443 24.8201 125.339C26.6008 123.235 29.3866 122.316 32.0217 121.498C43.6534 117.879 57.1231 120.091 69.0707 117.714C103.506 110.857 133.131 89.9416 163.983 73.1906C173.038 68.2723 182.458 63.5406 189.516 56.0375C191.921 53.4742 193.292 50.3078 196.717 51.0833Z" fill="white"/>
</mask>
<g mask="url(#mask1_1028_13943)">
<path d="M101.208 140.108C98.975 137.373 95.6292 136.231 92.513 136.892C91.4073 136.841 90.3806 137.014 89.4328 137.38C89.1887 137.265 88.9445 137.15 88.6789 137.043C84.5934 135.405 81.6568 136.461 79.4382 138.759C79.1294 138.859 78.835 138.974 78.5407 139.103C76.9323 139.11 75.5466 139.498 74.3332 140.173C71.9925 140.259 69.5943 141.185 68.3091 143.016C68.2948 143.023 68.2804 143.031 68.2589 143.045C66.3274 143.318 64.5396 144.323 63.3406 146.283C61.9476 148.574 60.6265 150.9 59.4993 153.334C57.137 158.453 60.5547 163.041 65.0063 164.334C65.5879 164.793 66.2485 165.195 67.0095 165.511C69.9964 166.746 73.5218 166.021 75.8625 163.925C76.4154 164.126 76.9898 164.276 77.5714 164.348C77.9017 164.391 78.2247 164.406 78.5407 164.413C81.5706 166.581 86.1156 166.926 89.1025 164.65C89.7128 165.964 90.7754 167.055 92.3622 167.708C95.6004 169.044 99.6787 167.471 100.971 164.14C104.181 157.254 106.478 146.556 101.208 140.108Z" fill="#584539"/>
</g>
<mask id="mask2_1028_13943" style="mask-type:luminance" maskUnits="userSpaceOnUse" x="23" y="50" width="183" height="117">
<path d="M196.717 51.0833C200.609 52.8424 203.66 56.3606 204.852 60.4676C206.044 64.5674 205.348 69.1769 203 72.7454C201.808 74.5548 200.243 76.0841 198.699 77.6063C193.149 83.099 187.649 89.08 185.279 96.5185C183.635 101.674 183.614 107.174 183.003 112.552C182.393 117.922 181.043 123.508 177.346 127.45C170.316 134.946 160.86 139.599 154.377 147.576C149.753 153.262 145.875 159.961 139.464 163.523C131.293 168.053 121.097 166.308 112.287 163.199C109.81 162.323 107.362 161.354 104.827 160.651C95.285 158.015 85.1683 159.387 75.267 159.645C65.3658 159.904 54.6675 158.705 47.2721 152.113C40.5516 146.118 36.8539 135.98 28.1589 133.646C27.1393 133.374 26.0623 133.216 25.172 132.641C22.8528 131.148 23.0395 127.443 24.8201 125.339C26.6008 123.235 29.3866 122.316 32.0217 121.498C43.6534 117.879 57.1231 120.091 69.0707 117.714C103.506 110.857 133.131 89.9416 163.983 73.1906C173.038 68.2723 182.458 63.5406 189.516 56.0375C191.921 53.4742 193.292 50.3078 196.717 51.0833Z" fill="white"/>
</mask>
<g mask="url(#mask2_1028_13943)">
<path d="M0.651694 123.142C1.34816 127.206 7.10652 128.828 10.4596 129.891C15.1194 131.377 19.6644 133 23.9868 135.312C27.2465 137.057 30.456 139.39 32.8829 142.162C35.999 145.716 37.6288 151.496 42.3318 153.09C46.1946 154.404 50.596 152.975 52.2259 148.99C54.8322 142.628 49.5405 135.649 45.3187 131.105C41.3122 126.789 36.7098 123.242 31.2458 120.959C25.7746 118.669 19.5926 117.75 13.6906 117.642C10.7612 117.599 -0.27453 117.714 0.651694 123.142Z" fill="#776153"/>
</g>
<mask id="mask3_1028_13943" style="mask-type:luminance" maskUnits="userSpaceOnUse" x="23" y="50" width="183" height="117">
<path d="M196.717 51.0833C200.609 52.8424 203.66 56.3606 204.852 60.4676C206.044 64.5674 205.348 69.1769 203 72.7454C201.808 74.5548 200.243 76.0841 198.699 77.6063C193.149 83.099 187.649 89.08 185.279 96.5185C183.635 101.674 183.614 107.174 183.003 112.552C182.393 117.922 181.043 123.508 177.346 127.45C170.316 134.946 160.86 139.599 154.377 147.576C149.753 153.262 145.875 159.961 139.464 163.523C131.293 168.053 121.097 166.308 112.287 163.199C109.81 162.323 107.362 161.354 104.827 160.651C95.285 158.015 85.1683 159.387 75.267 159.645C65.3658 159.904 54.6675 158.705 47.2721 152.113C40.5516 146.118 36.8539 135.98 28.1589 133.646C27.1393 133.374 26.0623 133.216 25.172 132.641C22.8528 131.148 23.0395 127.443 24.8201 125.339C26.6008 123.235 29.3866 122.316 32.0217 121.498C43.6534 117.879 57.1231 120.091 69.0707 117.714C103.506 110.857 133.131 89.9416 163.983 73.1906C173.038 68.2723 182.458 63.5406 189.516 56.0375C191.921 53.4742 193.292 50.3078 196.717 51.0833Z" fill="white"/>
</mask>
<g mask="url(#mask3_1028_13943)">
<path d="M141.617 166.402C141.596 166.847 141.574 167.299 141.545 167.744C141.538 167.026 141.531 166.308 141.524 165.59C141.316 164.161 140.892 163.422 140.289 162.345C141.129 157.52 141.423 152.68 141.165 147.604C140.957 143.533 136.627 140.474 132.85 140.575C130.359 140.64 128.392 141.609 126.977 143.188C126.661 143.109 126.338 143.052 126.015 143.002C124.27 141.609 121.944 140.876 119.812 141.185C119.804 141.185 119.804 141.185 119.797 141.185C119.582 140.798 119.273 140.446 118.864 140.151C118.792 140.101 118.72 140.044 118.641 139.993C116.968 138.801 114.886 139.153 113.558 140.675C112.122 142.32 112.517 144.811 112.617 146.829C112.754 149.773 113.062 152.716 113.428 155.639C113.665 159.947 114.06 164.219 114.778 168.527C114.951 169.568 115.331 170.544 115.855 171.42C116.15 173.136 116.444 174.845 116.731 176.561C118.06 184.488 129.878 184.912 131.393 177.071C132.7 176.597 133.798 175.822 134.71 174.809C136.16 174.615 137.64 173.955 139.097 172.706C140.77 171.255 142.242 168.735 141.617 166.402Z" fill="#776153"/>
</g>
<path d="M152.431 135.578C157.651 133.366 161.844 128.843 163.653 123.465C165.398 118.267 165.097 112.221 168.443 107.877C170.668 104.991 174.244 103.289 176.19 100.202C177.281 98.4714 177.769 96.4467 178.423 94.5152C180.67 87.9024 185.1 82.0435 190.859 78.0873C192.747 76.7878 194.793 75.6748 196.423 74.0593C199.202 71.3094 200.473 67.3891 201.255 63.5621C201.7 61.365 202.016 59.0962 201.657 56.8847C201.298 54.6733 200.171 52.4977 198.268 51.313C195.482 49.5683 191.864 50.3006 188.705 51.234C185.553 52.1674 182.12 53.2301 179.062 52.0023C177.497 51.3704 176.089 50.1498 174.395 50.1427C173.346 50.1355 172.363 50.6094 171.429 51.0689C168.371 52.5695 164.572 55.499 161.313 56.497C156.653 57.933 151.634 58.6582 146.91 57.4807C141.546 56.1452 136.965 52.469 131.566 51.2771C127.502 50.3796 123.122 51.0043 119.46 52.9931C115.755 55.0107 112.826 58.3351 108.92 59.9219C102.027 62.7221 94.3374 59.448 86.9205 58.8161C76.61 57.933 65.9979 62.7005 59.8015 70.9863C57.8342 73.6214 56.2904 76.5652 54.2729 79.1572C52.2481 81.7492 49.5915 84.0539 46.3676 84.7217C39.8051 86.0715 34.8652 90.4442 31.7778 96.3892C30.6864 98.4858 29.9182 100.884 30.3634 103.203C30.8372 105.659 32.6251 107.777 32.7902 110.275C32.9554 112.788 31.4404 115.1 29.6956 116.917C27.9509 118.733 25.9046 120.292 24.5404 122.41C23.1833 124.528 22.6735 127.479 24.1885 129.489C25.3876 131.076 27.5273 131.658 29.5161 131.693C31.505 131.729 33.4867 131.327 35.4755 131.406C42.3684 131.686 47.5523 137.43 53.0522 141.595C60.1605 146.973 69.7817 150.103 78.089 146.879C81.7006 145.479 84.8885 142.952 88.6867 142.191C92.7004 141.386 97.0443 141.609 100.728 143.397C104.411 145.185 107.771 147.64 111.577 149.141C118.182 151.747 125.965 151.18 132.126 147.64C139.191 143.584 144.942 138.744 152.431 135.578Z" fill="#D0C5BE"/>
<path d="M58.8248 121.469C59.5572 123.436 59.55 125.296 60.8568 127.041C62.2999 128.972 64.2816 130.487 66.3423 131.7C71.433 134.695 77.3924 135.463 83.2154 135.219C88.6507 134.989 94.007 133.625 99.4638 133.596C105.344 133.574 110.894 135.843 116.739 136.08C126.712 136.497 137.008 133.503 144.641 126.897C148.748 123.343 151.935 119.15 154.255 114.239C156.358 109.78 157.493 105.328 161.033 101.731C165.305 97.3943 170.431 93.991 173.964 88.929C177.992 83.1635 181.553 73.7864 174.624 68.6311C172.327 66.9223 168.794 66.7787 166.532 68.667C163.574 71.1298 163.244 74.0233 161.7 77.2471C160.832 79.0637 159.482 80.6864 158.067 82.1152C153.824 86.4017 148.669 89.7476 145.193 94.7808C142.049 99.3401 140.541 105.536 137.834 109.679C135.443 113.334 132.097 115.94 128.198 117.692C123.976 119.588 119.819 120.184 115.368 119.774C108.884 119.186 102.731 117.987 96.1969 118.999C89.9215 119.976 83.8401 121.979 77.5791 123.027C74.786 123.494 71.8925 123.889 69.0635 123.573C66.7587 123.314 62.2712 122.366 60.9645 120.191C60.1962 118.949 58.3581 120.205 58.8248 121.469Z" fill="#E0DED9"/>
<path d="M100.627 78.8772C98.006 78.0371 96.0674 77.0534 93.2098 76.9601C90.2301 76.8668 87.3006 77.4914 84.522 78.5469C78.8713 80.7009 73.795 84.9658 70.2624 89.8195C63.3337 99.3331 61.3233 112.623 67.0888 123.214C73.8596 135.65 87.315 137.308 99.9806 133.941C106.364 132.246 112.574 130.049 119.273 130.444C125.922 130.839 132.635 131.507 138.545 127.802C144.267 124.212 147.017 118.173 149.652 112.221C150.887 109.428 152.036 106.499 153.766 103.964C155.453 101.487 157.722 99.7352 159.733 97.5524C161.434 95.7072 159.869 92.4474 157.507 92.2536C147.491 91.435 142.896 103.383 138.86 110.419C136.843 113.937 134.093 117.757 129.943 118.748C125.003 119.933 119.546 118.561 114.513 118.899C108.877 119.272 103.506 121.254 98.1137 122.797C93.0734 124.241 86.9416 125.734 81.9443 123.365C74.1396 119.667 73.0842 109.141 75.1879 101.781C76.7388 96.3462 80.0272 91.5212 84.5507 88.1466C86.9057 86.3875 89.5049 85.1597 92.14 83.9032C94.7607 82.661 97.6829 80.7799 100.483 80.0547C101.007 79.9326 101.273 79.0854 100.627 78.8772Z" fill="#584539"/>
<path opacity="0.65" d="M148.23 131.6C152.847 129.647 156.552 125.648 158.146 120.895C159.69 116.299 159.424 110.958 162.382 107.116C164.35 104.56 167.509 103.059 169.225 100.331C170.187 98.8017 170.618 97.0139 171.199 95.3051C173.188 89.4605 177.101 84.2837 182.192 80.787C183.865 79.6382 185.674 78.6546 187.11 77.2258C189.566 74.7917 190.693 71.3309 191.382 67.9491C191.777 66.0105 192.057 64.0073 191.734 62.0472C191.411 60.0942 190.42 58.1699 188.74 57.1217C186.277 55.578 183.075 56.2313 180.289 57.0499C177.503 57.8756 174.466 58.8162 171.767 57.732C170.381 57.1719 169.139 56.0949 167.645 56.0877C166.719 56.0806 165.85 56.497 165.025 56.9063C162.318 58.2346 158.965 60.8194 156.085 61.7025C151.971 62.9662 147.534 63.6124 143.355 62.5713C138.609 61.3866 134.567 58.1412 129.792 57.0929C126.202 56.3031 122.325 56.8488 119.094 58.6079C115.82 60.3886 113.228 63.3324 109.774 64.7325C103.686 67.2096 96.8861 64.3089 90.3307 63.7488C81.2192 62.9734 71.8421 67.1809 66.3638 74.5045C64.619 76.8308 63.262 79.4372 61.4742 81.7276C59.6863 84.0181 57.3384 86.0572 54.488 86.6459C48.6865 87.8378 44.3211 91.7007 41.5927 96.9565C40.6305 98.8089 39.9484 100.927 40.3433 102.981C40.7597 105.156 42.3394 107.023 42.483 109.227C42.6266 111.446 41.2911 113.492 39.7474 115.1C38.2037 116.709 36.3943 118.08 35.188 119.954C33.989 121.828 33.5366 124.434 34.8793 126.208C35.9419 127.608 37.8303 128.125 39.5894 128.154C41.3485 128.182 43.1004 127.831 44.8596 127.895C50.9554 128.139 55.5291 133.223 60.39 136.899C66.6725 141.652 75.1737 144.424 82.5188 141.566C85.7068 140.324 88.5285 138.098 91.8816 137.423C95.4285 136.712 99.2698 136.906 102.53 138.486C105.789 140.065 108.755 142.234 112.122 143.562C117.959 145.867 124.838 145.364 130.28 142.234C136.527 138.672 141.61 134.4 148.23 131.6Z" fill="#AB9F8C"/>
<path d="M108.64 126.905C112.395 123.824 117.522 122.489 122.296 123.343C124.896 123.81 127.394 124.887 130.037 124.959C132.801 125.031 135.479 123.982 137.956 122.747C142.515 120.471 146.96 117.197 148.733 112.415C149.839 109.428 149.817 106.097 151.11 103.189C153.171 98.5721 158.024 96.016 162.375 93.4456C166.726 90.8751 171.264 87.3354 171.81 82.3093C172.025 80.3348 171.573 78.3531 170.927 76.4792C170.144 74.2246 168.995 71.9845 167.05 70.6059C165.491 69.5074 163.574 69.0622 161.693 68.775C157.514 68.1288 153.049 68.1575 149.293 70.1033C146.299 71.6542 144.023 74.2749 141.41 76.4074C137.784 79.3799 133.332 81.4836 128.651 81.7493C125.678 81.9216 122.713 81.3616 119.798 80.7585C109.006 78.5398 97.6186 75.7899 87.1932 79.3584C83.2442 80.7082 63.9659 89.7694 68.7693 110.807C70.6935 119.236 74.8149 127.881 82.957 130.81C87.2866 132.369 92.0182 132.34 96.5991 131.923C101.166 131.514 105.1 129.812 108.64 126.905Z" fill="url(#paint0_linear_1028_13943)"/>
<path d="M85.7139 113.391C87.2648 114.368 89.1029 114.669 90.7902 113.772C93.4396 112.365 93.9494 109.399 95.1485 106.929C97.6256 101.817 103.37 97.703 109.257 99.2683C112.74 100.195 115.698 102.291 119.281 103.023C122.354 103.648 125.743 103.605 128.787 102.858C131.939 102.083 135.156 100.711 137.647 98.5862C140.498 96.1593 141.603 93.6822 141.094 90.085C140.907 88.7639 139.571 87.7156 138.229 87.9525C138.48 88.0387 138.731 88.1177 138.975 88.2039C138.624 88.1105 138.265 88.0172 137.913 87.9238C137.144 87.9166 136.527 87.9956 135.787 88.2254C134.38 88.6706 133.124 89.6327 131.903 90.4225C129.742 91.8154 127.48 92.8924 124.938 93.3878C118.713 94.5941 113.788 90.4009 107.706 90.2932C102.242 90.1927 96.8215 92.397 93.016 96.3388C91.1492 98.2774 89.5194 100.661 88.7798 103.275C88.3275 104.869 89.0383 113.104 86.0873 112.465C85.5991 112.343 85.2831 113.119 85.7139 113.391Z" fill="#CAB69C"/>
<path d="M149.271 85.5688C149.408 85.5042 149.566 85.4611 149.702 85.3965C149.12 85.6837 149.228 85.5257 149.566 85.4683C150.118 85.3749 150.635 85.1667 151.174 85.0159C150.901 85.0949 150.628 85.1739 150.348 85.2457C150.937 85.1093 151.511 84.9944 152.035 84.6785C152.718 84.2764 153.256 83.7163 153.565 82.9696C153.981 81.9572 153.845 80.7223 153.141 79.8678C152.33 78.877 151.138 78.4175 149.867 78.5395C149.149 78.6113 148.503 78.956 147.9 79.315C146.852 79.9325 146.105 80.9449 145.76 82.1152C145.451 83.1707 145.538 84.1902 146.363 85.0016C147.103 85.7267 148.302 86.014 149.271 85.5688Z" fill="#E0DED9"/>
<mask id="mask4_1028_13943" style="mask-type:luminance" maskUnits="userSpaceOnUse" x="34" y="56" width="158" height="89">
<path d="M148.23 131.6C152.847 129.647 156.552 125.648 158.146 120.895C159.69 116.299 159.424 110.958 162.382 107.116C164.35 104.56 167.509 103.059 169.225 100.331C170.187 98.8017 170.618 97.0139 171.199 95.3051C173.188 89.4605 177.101 84.2837 182.192 80.787C183.865 79.6382 185.674 78.6546 187.11 77.2258C189.566 74.7917 190.693 71.3309 191.382 67.9491C191.777 66.0105 192.057 64.0073 191.734 62.0472C191.411 60.0942 190.42 58.1699 188.74 57.1217C186.277 55.578 183.075 56.2313 180.289 57.0499C177.503 57.8756 174.466 58.8162 171.767 57.732C170.381 57.1719 169.139 56.0949 167.645 56.0877C166.719 56.0806 165.85 56.497 165.025 56.9063C162.318 58.2346 158.965 60.8194 156.085 61.7025C151.971 62.9662 147.534 63.6124 143.355 62.5713C138.609 61.3866 134.567 58.1412 129.792 57.0929C126.202 56.3031 122.325 56.8488 119.094 58.6079C115.82 60.3886 113.228 63.3324 109.774 64.7325C103.686 67.2096 96.8861 64.3089 90.3307 63.7488C81.2192 62.9734 71.8421 67.1809 66.3638 74.5045C64.619 76.8308 63.262 79.4372 61.4742 81.7276C59.6863 84.0181 57.3384 86.0572 54.488 86.6459C48.6865 87.8378 44.3211 91.7007 41.5927 96.9565C40.6305 98.8089 39.9484 100.927 40.3433 102.981C40.7597 105.156 42.3394 107.023 42.483 109.227C42.6266 111.446 41.2911 113.492 39.7474 115.1C38.2037 116.709 36.3943 118.08 35.188 119.954C33.989 121.828 33.5366 124.434 34.8793 126.208C35.9419 127.608 37.8303 128.125 39.5894 128.154C41.3485 128.182 43.1004 127.831 44.8596 127.895C50.9554 128.139 55.5291 133.223 60.39 136.899C66.6725 141.652 75.1737 144.424 82.5188 141.566C85.7068 140.324 88.5285 138.098 91.8816 137.423C95.4285 136.712 99.2698 136.906 102.53 138.486C105.789 140.065 108.755 142.234 112.122 143.562C117.959 145.867 124.838 145.364 130.28 142.234C136.527 138.672 141.61 134.4 148.23 131.6Z" fill="white"/>
</mask>
<g mask="url(#mask4_1028_13943)">
<g opacity="0.47">
<path d="M194.829 57.0857C193.357 54.4506 191.174 52.5551 188.13 51.8873C184.059 50.9898 181.266 52.8566 177.776 54.4506C174.423 55.98 170.926 52.6556 167.516 52.1961C163.114 51.6073 159.725 53.8403 155.604 54.7522C147.62 56.5185 139.621 50.9396 131.766 50.2431C128.09 49.9128 124.299 50.2216 120.867 51.6648C117.198 53.2085 114.628 56.3892 111.081 58.0622C104.497 61.1568 96.1678 59.0889 89.1672 59.4694C81.7144 59.8715 74.2041 62.5425 69.9032 68.983C67.7708 72.1781 66.5789 75.9907 63.9295 78.8268C61.3518 81.5911 58.2213 82.8907 54.6026 83.659C46.7476 85.3319 40.2138 90.3077 39.065 98.7442C38.7922 100.755 38.907 102.83 39.3307 104.804C39.6609 106.355 41.1687 109.299 40.6733 110.871C40.6805 110.843 38.268 112.666 37.5572 113.262C35.7263 114.792 33.9959 116.536 32.4379 118.339C26.5215 125.181 22.752 136.317 29.4007 143.978C31.3895 146.269 35.633 145.493 35.9417 142.176C36.5664 135.47 38.8065 129.525 43.6172 124.686C45.9291 122.367 48.8586 120.514 50.6895 117.764C53.1307 114.102 52.8435 109.924 51.7665 105.867C51.0772 103.268 49.9715 100.647 51.4506 98.1196C53.0086 95.4414 55.7442 95.2763 58.4942 94.5583C65.5665 92.7202 71.7198 88.4624 75.4893 82.1368C77.1479 79.351 78.2536 75.8686 80.6805 73.6285C82.8417 71.6396 85.9506 70.9862 88.7652 70.62C95.4282 69.7584 102.213 71.0078 108.848 69.7225C112.215 69.0691 115.403 67.906 118.268 66.0105C121.032 64.1796 123.287 61.3004 126.618 60.5106C133.382 58.8951 140.792 62.6574 147.361 63.799C151.741 64.5601 156.092 64.3662 160.3 62.88C161.973 62.2912 163.653 61.2214 165.441 61.0203C167.2 60.8265 168.966 61.566 170.668 61.9035C174.617 62.6861 177.963 62.9877 181.546 60.8552C185.337 58.6007 188.166 57.5021 192.509 59.4264C193.845 60.0008 195.597 58.4642 194.829 57.0857Z" fill="#A99E88"/>
</g>
</g>
<mask id="mask5_1028_13943" style="mask-type:luminance" maskUnits="userSpaceOnUse" x="68" y="68" width="104" height="65">
<path d="M108.64 126.905C112.395 123.824 117.522 122.489 122.296 123.343C124.896 123.81 127.394 124.887 130.037 124.959C132.801 125.031 135.479 123.982 137.956 122.747C142.515 120.471 146.96 117.197 148.733 112.415C149.839 109.428 149.817 106.097 151.11 103.189C153.171 98.5721 158.024 96.016 162.375 93.4456C166.726 90.8751 171.264 87.3354 171.81 82.3093C172.025 80.3348 171.573 78.3531 170.927 76.4792C170.144 74.2246 168.995 71.9845 167.05 70.6059C165.491 69.5074 163.574 69.0622 161.693 68.775C157.514 68.1288 153.049 68.1575 149.293 70.1033C146.299 71.6542 144.023 74.2749 141.41 76.4074C137.784 79.3799 133.332 81.4836 128.651 81.7493C125.678 81.9216 122.713 81.3616 119.798 80.7585C109.006 78.5398 97.6186 75.7899 87.1932 79.3584C83.2442 80.7082 63.9659 89.7694 68.7693 110.807C70.6935 119.236 74.8149 127.881 82.957 130.81C87.2866 132.369 92.0182 132.34 96.5991 131.923C101.166 131.514 105.1 129.812 108.64 126.905Z" fill="white"/>
</mask>
<g mask="url(#mask5_1028_13943)">
<g opacity="0.3">
<path d="M105.531 76.2637C112.869 83.6017 124.464 87.2635 133.899 84.8654C139.672 83.4006 147.311 76.1201 152.926 74.3681C157.306 73.0039 163.366 74.8995 165.405 79.3583C167.064 82.977 161.37 84.571 158.979 85.8059C153.809 88.4769 149.623 92.11 146.78 97.2365C145.308 99.8788 144.411 102.693 143.851 105.666C143.377 108.2 143.427 111.037 141.962 113.255C138.983 117.764 132.592 117.104 127.897 117.219C121.793 117.362 116.093 118.712 110.815 121.843C105.631 124.923 85.3046 130.523 85.4984 136.992C85.5702 139.326 103.578 139.29 105.437 138.572C110.471 136.633 113.752 131.938 118.9 129.963C124.615 127.773 130.639 129.102 136.57 128.592C142.853 128.053 148.783 124.851 152.151 119.437C155.504 114.045 154.491 107.324 157.923 102.09C161.061 97.3083 166.604 95.9872 171.12 92.9357C176.297 89.439 179.011 83.336 177.417 77.2043C175.823 71.0797 170.869 66.3265 165.154 63.8853C158.139 60.8912 151.009 61.6379 144.633 65.6444C138.71 69.3708 133.705 72.4367 126.547 73.047C119.733 73.6286 112.531 71.532 106.033 74.2892C105.351 74.5907 104.935 75.6677 105.531 76.2637Z" fill="#C9BC9C"/>
</g>
</g>
<mask id="mask6_1028_13943" style="mask-type:luminance" maskUnits="userSpaceOnUse" x="68" y="68" width="104" height="65">
<path d="M108.64 126.905C112.395 123.824 117.522 122.489 122.296 123.343C124.896 123.81 127.394 124.887 130.037 124.959C132.801 125.031 135.479 123.982 137.956 122.747C142.515 120.471 146.96 117.197 148.733 112.415C149.839 109.428 149.817 106.097 151.11 103.189C153.171 98.5721 158.024 96.016 162.375 93.4456C166.726 90.8751 171.264 87.3354 171.81 82.3093C172.025 80.3348 171.573 78.3531 170.927 76.4792C170.144 74.2246 168.995 71.9845 167.05 70.6059C165.491 69.5074 163.574 69.0622 161.693 68.775C157.514 68.1288 153.049 68.1575 149.293 70.1033C146.299 71.6542 144.023 74.2749 141.41 76.4074C137.784 79.3799 133.332 81.4836 128.651 81.7493C125.678 81.9216 122.713 81.3616 119.798 80.7585C109.006 78.5398 97.6186 75.7899 87.1932 79.3584C83.2442 80.7082 63.9659 89.7694 68.7693 110.807C70.6935 119.236 74.8149 127.881 82.957 130.81C87.2866 132.369 92.0182 132.34 96.5991 131.923C101.166 131.514 105.1 129.812 108.64 126.905Z" fill="white"/>
</mask>
<g mask="url(#mask6_1028_13943)">
<path d="M102.63 75.0216C98.7526 71.9342 94.8323 72.1783 90.3304 73.9661C85.8932 75.7252 81.5277 78.4105 77.7295 81.2826C69.695 87.3712 63.6494 96.5114 62.7806 106.721C61.9262 116.738 66.2773 126.352 74.6851 131.981C83.8684 138.127 96.0529 140.051 105.717 133.955C108.654 132.103 106.679 128.06 103.929 127.472C96.8643 125.957 88.8513 126.467 82.4898 122.604C76.9756 119.258 73.5435 113.521 74.0533 106.994C74.6062 99.9794 78.4331 94.1061 83.3227 89.2452C85.807 86.7753 88.6287 84.6069 91.5008 82.6037C94.4517 80.5502 98.451 77.4412 102.091 77.0607C103.104 76.9674 103.369 75.6175 102.63 75.0216Z" fill="url(#paint1_linear_1028_13943)"/>
</g>
<g opacity="0.39">
<path d="M148.833 77.0248C145.236 77.4556 143.52 78.9706 140.756 81.1677C138.681 82.8119 136.361 84.6931 133.619 84.8511C130.74 85.0162 128.033 83.9105 125.362 82.9986C121.721 81.7565 118.024 80.5502 114.218 79.9112C106.981 78.6978 99.3125 79.6025 92.8864 83.2571C87.1424 86.5168 78.6986 94.0774 80.508 101.566C81.2547 104.661 83.0785 107.188 86.3239 107.985C89.1959 108.696 92.8577 107.863 94.5953 105.214C97.4601 100.834 98.6161 97.6674 104.195 96.1955C110.743 94.4723 116.846 96.6981 123.172 98.1628C129.921 99.7281 137.022 99.7496 142.795 95.4129C147.519 91.8588 151.72 84.5567 151.037 78.6547C150.901 77.5992 149.846 76.9028 148.833 77.0248Z" fill="white"/>
</g>
<path d="M91.1494 94.9961C92.4706 94.5797 93.0594 93.5745 94.1364 92.7631C95.5365 91.7077 97.3961 91.004 99.1049 90.6307C103.564 89.6614 108.101 90.645 112.424 91.7651C116.926 92.9355 127.703 95.4772 128.945 88.4336C129.067 87.7443 128.493 87.0981 127.832 87.0047C126.073 86.7678 124.465 87.3207 122.742 87.5935C120.832 87.8951 119.015 87.7874 117.12 87.4499C112.295 86.5955 107.886 84.8866 102.91 84.9872C99.5788 85.0518 95.9026 85.698 93.124 87.6581C91.092 89.087 88.4498 91.8441 89.8212 94.4576C90.094 94.9889 90.5894 95.1684 91.1494 94.9961Z" fill="white"/>
<path d="M122.325 108.667C127.466 115.459 142.709 110.347 143.671 102.133C143.772 101.286 142.932 100.733 142.171 101.006C139.263 102.061 136.908 104.323 134.072 105.601C130.754 107.102 126.791 107.597 123.187 107.145C122.361 107.03 121.83 108.014 122.325 108.667Z" fill="white"/>
<path d="M39.4963 110.577C40.0564 107.016 42.0812 103.067 43.6967 99.8644C44.9891 97.3083 47.0426 95.42 49.5053 93.9911C54.3446 91.1766 59.7799 89.5611 63.6069 85.2459C67.8288 80.4855 69.0781 73.765 74.7646 70.2468C80.6738 66.5921 87.5523 67.303 93.7486 64.8043C94.8472 64.3591 94.8688 62.6216 93.7343 62.2051C87.3369 59.8716 78.29 60.8122 72.2516 63.7991C69.0134 65.4002 66.1845 67.6476 64.0449 70.5699C61.8047 73.6286 60.3902 77.276 57.8198 80.0978C53.4902 84.8509 46.5041 85.9854 41.8155 90.3508C39.3169 92.6772 37.4572 95.901 36.6674 99.2325C35.6622 103.469 36.7967 106.836 37.9455 110.8C38.1752 111.632 39.3815 111.309 39.4963 110.577Z" fill="#DDD4CE"/>
<path d="M170.913 93.8476C169.52 94.982 169.003 96.5975 167.883 97.9474C166.576 99.5198 164.702 100.568 163.022 101.674C159.662 103.878 157.055 106.283 155.44 110.017C153.867 113.65 154.858 117.951 153.279 121.491C151.821 124.765 146.989 125.82 144.282 127.917C138.05 132.742 130.561 140.159 121.938 138.938C115.447 138.019 105.345 132.11 99.5289 137.552C97.7985 139.175 98.2867 142.406 100.943 142.693C103.234 142.937 105.46 142.485 107.75 142.866C109.847 143.21 111.85 143.943 113.867 144.589C118.025 145.924 122.282 147.131 126.691 146.556C131.272 145.96 135.415 143.555 139.356 141.3C143.449 138.96 146.809 135.384 150.974 133.287C154.858 131.335 158.606 129.705 160.674 125.619C162.67 121.677 162.304 117.211 162.591 112.932C162.936 107.727 167.754 106.384 171.006 103.009C173.311 100.611 175.702 96.5401 172.629 93.8476C172.176 93.4383 171.372 93.4742 170.913 93.8476Z" fill="#EBE4DF"/>
<path d="M32.9887 17.3926H37.2137V30.3426H32.9887V23.8426H29.1387V20.0176H32.9887V17.3926ZM23.7887 25.7926C22.0137 28.2176 19.4387 29.8676 16.4137 30.0426V26.1676C19.7137 25.7676 21.9887 22.1176 22.0637 17.4926L26.3137 17.7426C26.3137 19.3926 26.0387 20.9926 25.5137 22.4676L31.4637 26.9676L28.9637 29.7926L23.7887 25.7926ZM18.0137 34.7176V31.0926H37.2137V38.9926H32.9137V34.7176H18.0137ZM54.8115 19.2426V22.8426H40.4115V19.2426H45.4115V17.2426H49.7615V19.2426H54.8115ZM63.0865 24.9926V29.0926H60.6365V38.7426H56.4115V17.3926H60.6365V24.9926H63.0865ZM49.6865 32.2176V34.0176C51.6615 34.0176 53.8615 33.7676 55.1865 33.1676V36.8926C53.8615 37.4926 51.7115 37.7426 49.5865 37.7426H40.5365V34.0176H45.4865V32.1926C42.9115 31.7176 41.1865 30.2676 41.1865 27.9426C41.1865 25.0426 43.9115 23.4926 47.6365 23.4926C51.3615 23.4926 54.0865 25.0426 54.0865 27.9426C54.0865 30.2926 52.3115 31.7426 49.6865 32.2176ZM45.1365 27.9426C45.1365 28.6926 46.1365 29.0676 47.6365 29.0676C49.1365 29.0676 50.1365 28.6926 50.1365 27.9426C50.1365 27.1926 49.1365 26.8176 47.6365 26.8176C46.1365 26.8176 45.1365 27.1926 45.1365 27.9426ZM66.5994 38.0776C64.8894 36.2476 63.7794 34.0576 63.7794 31.2826C63.7794 28.5076 64.8894 26.3176 66.5994 24.4876H69.2844C67.5744 26.2726 66.3894 28.5826 66.3894 31.2826C66.3894 33.9826 67.5744 36.2926 69.2844 38.0776H66.5994ZM80.2821 24.8926H82.7571V31.5226H80.2821V29.3176H78.3621C77.6121 30.6076 76.2471 31.4026 74.4171 31.5226V29.4376C75.6921 29.2426 76.5921 28.4326 76.5921 27.3826V27.0526H74.8521V25.0426H78.9771V26.8126V27.0226H80.2821V24.8926ZM74.4171 26.8276C74.4171 29.2576 72.9021 31.1926 70.3821 31.3726V29.2876C71.4471 29.1376 72.0921 28.3876 72.0921 27.3376V27.0526H70.3821V25.0426H74.4171V26.8276ZM80.2671 32.8126V31.9726H82.7571V37.7026H71.2221V31.9726H73.7121V32.8126H80.2671ZM73.7121 35.6926H80.2671V34.7776H73.7121V35.6926ZM95.0408 24.8926H97.4108V37.7026H95.0408V24.8926ZM91.8158 29.6026V24.9526H94.1558V37.4776H91.8158V31.9726H89.3258V29.6026H91.8158ZM87.3308 34.8826H88.2008C89.2058 34.8826 90.4058 34.6876 91.1858 34.3726V36.5626C90.4208 36.9076 89.0558 37.1026 87.9758 37.1026H84.8858V25.1926H90.6308V27.4126H87.3308V34.8826ZM111.479 24.8926V37.7026H108.944V24.8926H111.479ZM106.964 25.1926V28.6576C106.964 33.8626 104.069 37.1026 99.5845 37.1026V34.7026C102.689 34.6726 104.369 32.3626 104.369 28.6576V27.5026H99.5845V25.1926H106.964ZM124.153 24.8926H126.343V37.7026H124.153V32.0026H123.343V37.4776H121.183V36.3826L120.013 36.9376L118.993 34.3576C118.453 35.9926 117.628 36.9376 116.428 37.1026H116.413V37.0576L115.588 34.4626C115.048 36.0526 114.238 36.9526 113.053 37.1026V34.5076C114.043 34.2526 114.283 31.5076 114.298 27.4726H113.293V25.1926H116.833V27.4726H116.458C116.428 28.7926 116.368 29.9926 116.263 31.0426L117.163 33.7876C117.523 32.5276 117.643 30.3076 117.658 27.4726H117.283V25.1926H120.688V27.4726H119.818C119.788 28.8076 119.728 30.0076 119.623 31.0726L121.183 34.6726V24.9526H123.343V29.6026H124.153V24.8926ZM135.717 34.9426H140.907V37.2526H127.947V34.9426H133.137V33.5026H128.667V28.2826H137.697V27.4126H128.637V25.1926H140.202V30.3976H131.172V31.2826H140.352V33.5026H135.717V34.9426ZM158.97 24.8926V31.9876H156.435V24.8926H158.97ZM154.935 28.3576C154.935 30.4426 153.255 31.8076 150.765 31.8076C148.275 31.8076 146.595 30.4426 146.595 28.3576C146.595 26.2876 148.275 24.9076 150.765 24.9076C153.255 24.9076 154.935 26.2876 154.935 28.3576ZM149.115 28.3576C149.115 29.1976 149.775 29.7376 150.765 29.7376C151.755 29.7376 152.415 29.1976 152.415 28.3576C152.415 27.5176 151.755 26.9776 150.765 26.9776C149.775 26.9776 149.115 27.5176 149.115 28.3576ZM159.885 36.0226L158.445 37.8376L156.315 36.1426C155.415 37.1476 154.185 37.7026 152.865 37.7026L150.915 36.1576C150 37.1476 148.785 37.7026 147.51 37.7026V35.4076C148.725 35.4076 149.79 34.0876 149.985 32.3776L152.43 32.7826C152.355 33.3526 152.22 33.8776 152.04 34.3426L153.435 35.3026C154.395 34.9726 155.175 33.8176 155.34 32.3776L157.785 32.7826C157.71 33.3376 157.59 33.8476 157.41 34.3276L159.885 36.0226ZM164.338 24.8176V27.9226H173.308V30.0226H161.788V24.8176H164.338ZM173.968 30.9076V33.0226H161.008V30.9076H173.968ZM164.338 33.7276V35.5876H173.368V37.7026H161.758V33.7276H164.338ZM189.271 28.5826V26.9326H180.346V24.8926H191.821V28.5826H189.271ZM192.601 30.9676H187.381V31.7626H191.851V35.4676H182.881V35.9926H191.986V37.7026H180.406V33.9826H189.376V33.4576H180.376V31.7626H184.876V30.9676H179.641V29.0326H192.601V30.9676ZM196.23 38.0776H193.545C195.255 36.2926 196.44 33.9826 196.44 31.2826C196.44 28.5826 195.255 26.2726 193.545 24.4876H196.23C197.94 26.3176 199.05 28.5076 199.05 31.2826C199.05 34.0576 197.94 36.2476 196.23 38.0776Z" fill="#3D3938"/>
<defs>
<linearGradient id="paint0_linear_1028_13943" x1="68.0125" y1="100.281" x2="171.871" y2="100.281" gradientUnits="userSpaceOnUse">
<stop stop-color="#FFE9B0"/>
<stop offset="0.4525" stop-color="#FFECBB"/>
<stop offset="1" stop-color="#FFF2CE"/>
</linearGradient>
<linearGradient id="paint1_linear_1028_13943" x1="62.674" y1="105.168" x2="107.175" y2="105.168" gradientUnits="userSpaceOnUse">
<stop stop-color="#3E3A39"/>
<stop offset="0.5051" stop-color="#333034"/>
<stop offset="1" stop-color="#24232E"/>
</linearGradient>
</defs>
</svg>
