<?xml version="1.0" encoding="UTF-8"?>
<svg id="_레이어_1" data-name="레이어_1" xmlns="http://www.w3.org/2000/svg" xmlns:xlink="http://www.w3.org/1999/xlink" version="1.1" viewBox="0 0 361 910">
  <!-- Generator: Adobe Illustrator 29.0.1, SVG Export Plug-In . SVG Version: 2.1.0 Build 192)  -->
  <defs>
    <style>
      .st0 {
        mask: url(#mask);
      }

      .st1 {
        fill: #d3fee9;
      }

      .st2 {
        fill: #fff;
      }

      .st3 {
        opacity: .3;
      }

      .st4 {
        fill: none;
        stroke: #71ad71;
        stroke-miterlimit: 10;
        stroke-width: .8px;
      }
    </style>
    <mask id="mask" x="-12.4" y="-30" width="386.1" height="960.9" maskUnits="userSpaceOnUse">
      <g id="mask0_1051_25672">
        <path class="st2" d="M343.1,682.3c21.1-52.5,19-102.3,14.4-128.6-4.7-26.3-23-80.2-7.5-131,16.4-54,11.1-100.4-2.5-140.8-13.6-40.4-15.8-85.1-3.2-123.1,12.6-38,14.3-106.5-11.5-137.2-19.1-22.7-42.4-12.2-70.4-.6C234.3,32.6,218.4,1.5,180.4.8c-38,.7-53.8,31.8-81.8,20.2-28-11.6-51.2-22-70.4.6C.7,54.1,4.1,120.8,16.7,158.8c12.6,38,10.4,82.7-3.2,123.1-13.6,40.4-18.9,86.9-2.5,140.8,15.4,50.8-2.9,104.7-7.5,131-4.7,26.3-6.7,76.1,14.4,128.6,14,34.9,5,88.8-2.9,131.7-7.9,42.9,6.1,114.2,59.6,90.6,52.2-23,67.4.9,99.3,0,4.4-.1,8.8-.1,13.2,0,31.9,1,47.1-22.9,99.3,0,53.5,23.5,67.5-47.8,59.6-90.6-7.9-42.9-16.9-96.7-2.9-131.7Z"/>
      </g>
    </mask>
  </defs>
  <path class="st1" d="M343.1,682.5c21.1-52.5,19-102.2,14.4-128.5-4.7-26.3-23-80.2-7.5-131,16.4-53.9,11.1-100.4-2.5-140.7-13.6-40.4-15.8-85.1-3.2-123,12.6-37.9,14.3-106.5-11.5-137.1-19.1-22.7-42.4-12.2-70.4-.6-28,11.6-43.8-19.5-81.8-20.2-38,.7-53.8,31.8-81.8,20.2C70.7,10,47.5-.4,28.3,22.2.9,54.6,4.3,121.3,16.9,159.3c12.6,37.9,10.4,82.6-3.2,123C0,322.7-5.3,369.1,11.1,423c15.4,50.8-2.9,104.6-7.5,131-4.7,26.3-6.7,76,14.4,128.5,14,34.9,5,88.7-2.9,131.6-7.9,42.8,6.1,114.1,59.6,90.6,52.1-22.9,67.4.9,99.3,0,4.4-.1,8.8-.1,13.2,0,31.9,1,47.1-22.9,99.2,0,53.5,23.5,67.5-47.7,59.6-90.6-7.9-42.8-16.9-96.7-2.9-131.6Z"/>
  <g class="st0">
    <g class="st3">
      <path class="st4" d="M1.8-30v960.3"/>
      <path class="st4" d="M22.8-30v960.3"/>
      <path class="st4" d="M43.9-30v960.3"/>
      <path class="st4" d="M64.9-30v960.3"/>
      <path class="st4" d="M86-30v960.3"/>
      <path class="st4" d="M107-30v960.3"/>
      <path class="st4" d="M128.1-30v960.3"/>
      <path class="st4" d="M149.1-30v960.3"/>
      <path class="st4" d="M170.2-30v960.3"/>
      <path class="st4" d="M191.2-30v960.3"/>
      <path class="st4" d="M212.3-29.4v960.3"/>
      <path class="st4" d="M233.3-29.4v960.3"/>
      <path class="st4" d="M254.4-29.4v960.3"/>
      <path class="st4" d="M275.4-29.4v960.3"/>
      <path class="st4" d="M296.5-29.4v960.3"/>
      <path class="st4" d="M317.5-29.4v960.3"/>
      <path class="st4" d="M338.6-29.4v960.3"/>
      <path class="st4" d="M359.6-29.4v960.3"/>
      <path class="st4" d="M-12.4,282.1h386.1"/>
      <path class="st4" d="M-12.4,244.7h386.1"/>
      <path class="st4" d="M-12.4,207.3h386.1"/>
      <path class="st4" d="M-12.4,169.9h386.1"/>
      <path class="st4" d="M-12.4,132.5h386.1"/>
      <path class="st4" d="M-12.4,95.1h386.1"/>
      <path class="st4" d="M-12.4,57.7h386.1"/>
      <path class="st4" d="M-12.4,20.3h386.1"/>
      <path class="st4" d="M-12.4,618.7h386.1"/>
      <path class="st4" d="M-12.4,581.3h386.1"/>
      <path class="st4" d="M-12.4,543.9h386.1"/>
      <path class="st4" d="M-12.4,506.5h386.1"/>
      <path class="st4" d="M-12.4,469.1h386.1"/>
      <path class="st4" d="M-12.4,431.7h386.1"/>
      <path class="st4" d="M-12.4,394.3h386.1"/>
      <path class="st4" d="M-12.4,356.9h386.1"/>
      <path class="st4" d="M-12.4,319.5h386.1"/>
      <path class="st4" d="M-12.4,880.5h386.1"/>
      <path class="st4" d="M-12.4,843.1h386.1"/>
      <path class="st4" d="M-12.4,805.7h386.1"/>
      <path class="st4" d="M-12.4,768.3h386.1"/>
      <path class="st4" d="M-12.4,730.9h386.1"/>
      <path class="st4" d="M-12.4,693.5h386.1"/>
      <path class="st4" d="M-12.4,656.1h386.1"/>
    </g>
  </g>
</svg>