<svg width="26" height="26" viewBox="0 0 26 26" fill="none" xmlns="http://www.w3.org/2000/svg">
<rect x="0.5" y="0.844482" width="25" height="25" rx="12.5" fill="#5062AB"/>
<path d="M12.0984 5.96448C12.3384 5.89781 12.6584 5.85781 13.0584 5.84448C13.4717 5.83115 13.7317 5.85115 13.8384 5.90448C13.905 5.94448 14.005 5.99115 14.1384 6.04448C14.3117 6.09781 14.5317 6.24448 14.7984 6.48448C15.0784 6.71115 15.2517 6.89782 15.3184 7.04448C15.3584 7.12448 15.4184 7.21781 15.4984 7.32448C15.565 7.40448 15.605 7.48448 15.6184 7.56448C15.645 7.67115 15.6917 7.79781 15.7584 7.94448C15.825 8.11782 15.865 8.31782 15.8784 8.54448C15.8917 8.75782 15.9317 8.93115 15.9984 9.06448C16.0784 9.21115 16.1184 9.44448 16.1184 9.76448C16.1184 10.0845 16.0784 10.3178 15.9984 10.4645C15.9317 10.5845 15.8984 10.7445 15.8984 10.9445C15.8984 11.3045 15.8317 11.6378 15.6984 11.9445C15.645 12.0645 15.6184 12.1578 15.6184 12.2245C15.6184 12.2778 15.5784 12.3711 15.4984 12.5045C15.4184 12.6378 15.3784 12.7378 15.3784 12.8045C15.3784 12.8578 15.3517 12.9378 15.2984 13.0445C15.2584 13.1245 15.1984 13.2378 15.1184 13.3845C15.0784 13.4645 15.0117 13.5845 14.9184 13.7445C14.8917 13.7711 14.8517 13.8311 14.7984 13.9245C14.745 14.0178 14.7117 14.0778 14.6984 14.1045C14.6317 14.2378 14.5717 14.3378 14.5184 14.4045C14.465 14.4711 14.425 14.5378 14.3984 14.6045C14.345 14.6978 14.2584 14.8178 14.1384 14.9645C14.005 15.1111 13.9384 15.2045 13.9384 15.2445C13.9384 15.2711 13.8584 15.3778 13.6984 15.5645C13.5384 15.7511 13.4384 15.8978 13.3984 16.0045C13.3317 16.1111 13.285 16.1711 13.2584 16.1845C13.2184 16.1978 13.1984 16.2245 13.1984 16.2645C13.1984 16.2911 13.1384 16.3711 13.0184 16.5045C12.845 16.6911 12.7784 16.8045 12.8184 16.8445C12.8317 16.8711 13.3184 16.8911 14.2784 16.9045C15.0917 16.9178 15.5717 16.9378 15.7184 16.9645C15.865 16.9911 16.025 17.1045 16.1984 17.3045C16.4517 17.5845 16.5317 17.9045 16.4384 18.2645C16.345 18.6111 16.1117 18.8711 15.7384 19.0445C15.5917 19.1111 15.445 19.1445 15.2984 19.1445C15.1517 19.1578 14.6917 19.1578 13.9184 19.1445C12.905 19.1311 12.325 19.1045 12.1784 19.0645C12.0317 19.0245 11.825 19.0045 11.5584 19.0045C10.9184 19.0045 10.4317 18.8978 10.0984 18.6845C9.72503 18.4445 9.53169 18.1178 9.51836 17.7045C9.50503 17.2778 9.67169 16.8845 10.0184 16.5245C10.4317 16.0845 10.705 15.7711 10.8384 15.5845C10.9984 15.3978 11.1584 15.2111 11.3184 15.0245C11.7717 14.4911 12.0384 14.1578 12.1184 14.0245C12.1584 13.9445 12.1917 13.8978 12.2184 13.8845C12.285 13.8311 12.4184 13.6511 12.6184 13.3445C12.8184 13.0378 12.9584 12.7911 13.0384 12.6045C13.0917 12.4845 13.1384 12.4045 13.1784 12.3645C13.205 12.3245 13.2384 12.2445 13.2784 12.1245C13.3317 12.0045 13.3717 11.9245 13.3984 11.8845C13.4384 11.8445 13.4784 11.7311 13.5184 11.5445C13.5584 11.3445 13.605 11.2111 13.6584 11.1445C13.765 10.9845 13.8184 10.5645 13.8184 9.88448C13.8317 9.19115 13.7784 8.77115 13.6584 8.62448C13.605 8.54448 13.5584 8.45115 13.5184 8.34448C13.4384 8.21115 13.2984 8.13115 13.0984 8.10448C12.9117 8.07782 12.7317 8.11782 12.5584 8.22448C12.3717 8.33115 12.1917 8.52448 12.0184 8.80448C11.845 9.07115 11.7517 9.28448 11.7384 9.44448C11.7384 9.83115 11.5784 10.1445 11.2584 10.3845C10.9384 10.6111 10.605 10.6445 10.2584 10.4845C10.005 10.3645 9.80503 10.1445 9.65836 9.82448C9.51169 9.49115 9.48503 9.19115 9.57836 8.92448C9.61836 8.81782 9.63836 8.73782 9.63836 8.68448C9.63836 8.63115 9.67836 8.52448 9.75836 8.36448C9.83836 8.20448 9.87836 8.10448 9.87836 8.06448C9.87836 8.02448 9.89836 7.97115 9.93836 7.90448C9.97836 7.86448 10.0384 7.77115 10.1184 7.62448C10.585 6.75781 11.245 6.20448 12.0984 5.96448Z" fill="white"/>
</svg>
