<svg width="366" height="26" viewBox="0 0 366 26" fill="none" xmlns="http://www.w3.org/2000/svg">
<rect x="0.5" y="0.800781" width="25" height="25" rx="12.5" fill="#B8B949"/>
<path d="M12.5105 5.92078C12.9905 5.72078 13.4238 5.80745 13.8105 6.18078C13.9438 6.31411 14.0171 6.48078 14.0305 6.68078C14.0571 6.88078 14.0638 7.54078 14.0505 8.66078C14.0505 10.6341 14.0505 12.5608 14.0505 14.4408C14.0638 16.4541 14.0571 17.6341 14.0305 17.9808C14.0171 18.3141 13.9638 18.5274 13.8705 18.6208C13.8038 18.6874 13.7571 18.7408 13.7305 18.7808C13.7038 18.8074 13.6105 18.8741 13.4505 18.9808C13.1305 19.1674 12.8105 19.1741 12.4905 19.0008C12.1705 18.8408 11.9905 18.5741 11.9505 18.2008C11.9371 18.0008 11.9305 16.0074 11.9305 12.2208V6.52078L12.1105 6.26078C12.2305 6.10078 12.3638 5.98745 12.5105 5.92078Z" fill="white"/>
<path d="M39.1 4.48078C39.62 4.38745 40.0133 4.60078 40.28 5.12078C40.4267 5.40078 40.3133 5.78078 39.94 6.26078C39.82 6.42078 39.76 6.53411 39.76 6.60078C39.76 6.66745 39.8267 6.74078 39.96 6.82078C40.0667 6.90078 40.1467 6.96078 40.2 7.00078C40.24 7.04078 40.3067 7.08745 40.4 7.14078C40.5067 7.20745 40.6533 7.30745 40.84 7.44078C41.04 7.60078 41.22 7.72745 41.38 7.82078C41.54 7.92745 41.62 7.98745 41.62 8.00078C41.6467 8.01411 41.7067 8.05411 41.8 8.12078C41.92 8.18745 42.04 8.28745 42.16 8.42078C42.28 8.55411 42.3467 8.64745 42.36 8.70078C42.3733 8.78078 42.3933 8.82745 42.42 8.84078C42.4867 8.88078 42.4867 9.00078 42.42 9.20078C42.3533 9.38745 42.2667 9.54078 42.16 9.66078C41.8933 9.91411 41.56 9.98745 41.16 9.88078C40.76 9.77411 40.22 9.46745 39.54 8.96078C39.0067 8.56078 38.6867 8.33411 38.58 8.28078C38.4733 8.22745 38.3733 8.25411 38.28 8.36078C38.24 8.40078 38.16 8.48745 38.04 8.62078C37.9467 8.72745 37.8333 8.86745 37.7 9.04078C37.5667 9.21411 37.4733 9.32745 37.42 9.38078C37.3667 9.43411 37.3067 9.51411 37.24 9.62078C36.88 10.1541 36.4933 10.4541 36.08 10.5208C35.6667 10.5741 35.3533 10.3741 35.14 9.92078C35.0467 9.70745 35.0333 9.49411 35.1 9.28078C35.18 9.06745 35.38 8.75411 35.7 8.34078C35.74 8.27411 35.8933 8.06745 36.16 7.72078C36.4267 7.37411 36.5733 7.19411 36.6 7.18078C36.6133 7.15411 36.7533 6.97411 37.02 6.64078C37.3 6.28078 37.46 6.07411 37.5 6.02078C37.8733 5.58078 38.14 5.26078 38.3 5.06078C38.5667 4.72745 38.8333 4.53411 39.1 4.48078ZM38.5 9.24078C38.6733 9.14745 38.92 9.16745 39.24 9.30078C39.5733 9.43411 39.7467 9.58745 39.76 9.76078C39.76 9.80078 39.7733 9.84745 39.8 9.90078C39.84 9.95411 39.8733 10.2808 39.9 10.8808C39.9133 11.4941 39.9333 11.8274 39.96 11.8808C39.9733 11.9474 40.1667 11.9874 40.54 12.0008C40.9133 12.0008 41.32 11.9741 41.76 11.9208C42.4933 11.8408 43.02 11.8741 43.34 12.0208C43.6733 12.1674 43.84 12.4474 43.84 12.8608C43.8267 13.2474 43.7 13.5074 43.46 13.6408C43.2333 13.7741 42.78 13.8474 42.1 13.8608C41.4733 13.8741 41.04 13.8941 40.8 13.9208C40.4933 13.9608 39.2467 14.0141 37.06 14.0808C36.2867 14.1074 35.8133 14.1341 35.64 14.1608C35.04 14.2541 34.5667 14.2208 34.22 14.0608C33.8733 13.9008 33.7 13.6274 33.7 13.2408C33.7 13.0141 33.76 12.8208 33.88 12.6608C34 12.4874 34.1467 12.3808 34.32 12.3408C34.4133 12.3274 34.48 12.3141 34.52 12.3008C34.5733 12.2741 34.9667 12.2474 35.7 12.2208C37.1533 12.1674 37.9067 12.1008 37.96 12.0208C37.9867 11.9808 37.9933 11.6074 37.98 10.9008C37.98 10.2741 38.0067 9.87411 38.06 9.70078C38.1133 9.52745 38.26 9.37411 38.5 9.24078ZM38.62 14.8808C38.6733 14.8408 38.9467 14.8408 39.44 14.8808C39.9467 14.9074 40.2267 14.9408 40.28 14.9808C40.3067 15.0074 40.3667 15.0274 40.46 15.0408C40.5667 15.0674 40.6533 15.0941 40.72 15.1208C40.7333 15.1341 40.76 15.1541 40.8 15.1808C40.8533 15.1941 40.88 15.2008 40.88 15.2008C41.0267 15.2541 41.2133 15.3741 41.44 15.5608C41.96 15.9741 42.2933 16.4874 42.44 17.1008C42.5867 17.7008 42.5267 18.3474 42.26 19.0408C42.1267 19.4141 42.0133 19.6408 41.92 19.7208C41.88 19.7741 41.8333 19.8474 41.78 19.9408C41.6733 20.1008 41.46 20.2874 41.14 20.5008C40.8333 20.7274 40.62 20.8408 40.5 20.8408C40.46 20.8408 40.4067 20.8608 40.34 20.9008C39.94 21.1274 39.34 21.2074 38.54 21.1408C37.7533 21.0874 37.12 20.9141 36.64 20.6208C36.44 20.5008 36.2267 20.3074 36 20.0408C35.7733 19.7874 35.66 19.6008 35.66 19.4808C35.66 19.4408 35.6467 19.4074 35.62 19.3808C35.58 19.3408 35.5267 19.1074 35.46 18.6808C35.42 18.5208 35.42 18.2874 35.46 17.9808C35.5133 17.6741 35.5667 17.4941 35.62 17.4408C35.6467 17.4141 35.66 17.3808 35.66 17.3408C35.66 17.2874 35.6867 17.2141 35.74 17.1208C35.78 17.0274 35.8 16.9674 35.8 16.9408C35.8133 16.8608 35.9267 16.6808 36.14 16.4008C36.3533 16.1074 36.5333 15.9008 36.68 15.7808C36.9333 15.5674 37.2467 15.3674 37.62 15.1808C37.9933 14.9941 38.2733 14.9008 38.46 14.9008C38.5267 14.9008 38.58 14.8941 38.62 14.8808ZM39.94 17.0008C39.7133 16.9341 39.4267 16.9141 39.08 16.9408C38.7467 16.9674 38.4667 17.0341 38.24 17.1408C37.9067 17.2874 37.6533 17.5274 37.48 17.8608C37.3067 18.1808 37.28 18.4608 37.4 18.7008C37.52 18.9141 37.8067 19.0674 38.26 19.1608C38.7133 19.2541 39.1467 19.2474 39.56 19.1408C39.92 19.0474 40.1933 18.8474 40.38 18.5408C40.5667 18.2341 40.62 17.9274 40.54 17.6208C40.46 17.3141 40.26 17.1074 39.94 17.0008ZM53.6469 6.80078C53.7402 6.74745 53.8602 6.72078 54.0069 6.72078C54.1535 6.70745 54.2669 6.72078 54.3469 6.76078C54.4269 6.80078 54.4802 6.82078 54.5069 6.82078C54.6135 6.82078 54.7202 6.92078 54.8269 7.12078C54.9335 7.30745 55.0002 7.52078 55.0269 7.76078C55.0669 8.00078 55.0935 9.54745 55.1069 12.4008C55.1202 15.2408 55.1135 16.7808 55.0869 17.0208C55.0469 17.3408 55.0202 17.5741 55.0069 17.7208C54.9669 18.1341 54.8535 18.4341 54.6669 18.6208C54.3335 18.9808 53.9602 19.0408 53.5469 18.8008C53.1335 18.5474 52.9669 18.1608 53.0469 17.6408C53.0735 17.3608 53.1002 16.6608 53.1269 15.5408C53.1535 14.4074 53.1602 13.4208 53.1469 12.5808C53.0935 9.20745 53.1069 7.43411 53.1869 7.26078C53.3069 7.04745 53.4602 6.89411 53.6469 6.80078ZM46.9069 8.60078C47.0002 8.56078 47.1669 8.54078 47.4069 8.54078C47.6469 8.54078 47.8335 8.56078 47.9669 8.60078C48.7135 8.82745 49.2669 9.10078 49.6269 9.42078C49.9869 9.72745 50.2802 10.1874 50.5069 10.8008C50.6802 11.4008 50.7202 12.0208 50.6269 12.6608C50.5469 13.3008 50.3335 13.9008 49.9869 14.4608C49.6402 15.0074 49.2402 15.3741 48.7869 15.5608C48.7735 15.5608 48.7469 15.5741 48.7069 15.6008C48.6669 15.6141 48.6335 15.6274 48.6069 15.6408C48.1935 15.8141 47.7269 15.8741 47.2069 15.8208C46.7002 15.7541 46.2402 15.5874 45.8269 15.3208C45.6002 15.1608 45.3735 14.9541 45.1469 14.7008C44.9202 14.4474 44.7602 14.2208 44.6669 14.0208C44.6535 14.0074 44.6402 13.9874 44.6269 13.9608C44.6135 13.9208 44.5935 13.8808 44.5669 13.8408C44.5535 13.7874 44.5402 13.7408 44.5269 13.7008C44.4469 13.5408 44.4069 13.4408 44.4069 13.4008C44.4069 13.3474 44.3935 13.2808 44.3669 13.2008C44.2869 12.9874 44.2469 12.6741 44.2469 12.2608C44.2469 11.8341 44.2869 11.5074 44.3669 11.2808C44.7402 10.2408 45.2802 9.48745 45.9869 9.02078C46.2269 8.86078 46.3669 8.78078 46.4069 8.78078C46.4469 8.78078 46.4869 8.76078 46.5269 8.72078C46.5802 8.68078 46.6335 8.66078 46.6869 8.66078C46.7535 8.66078 46.8269 8.64078 46.9069 8.60078ZM48.1469 10.7608C47.8669 10.6141 47.5802 10.5941 47.2869 10.7008C46.9935 10.8074 46.7535 10.9874 46.5669 11.2408C46.3935 11.4941 46.2735 11.7941 46.2069 12.1408C46.1402 12.4741 46.1935 12.8074 46.3669 13.1408C46.5402 13.4874 46.8269 13.7008 47.2269 13.7808C47.6402 13.8608 47.9669 13.7674 48.2069 13.5008C48.4335 13.2474 48.5935 12.8741 48.6869 12.3808C48.7802 11.8874 48.7602 11.5141 48.6269 11.2608C48.5069 11.0341 48.3469 10.8674 48.1469 10.7608ZM67.3133 6.66078C67.4733 6.59411 67.6333 6.58745 67.7933 6.64078C67.8999 6.68078 67.9666 6.70078 67.9933 6.70078C68.0466 6.70078 68.1199 6.75411 68.2133 6.86078C68.3199 6.95411 68.3999 7.05411 68.4533 7.16078C68.5199 7.29411 68.5533 8.13411 68.5533 9.68078C68.5666 11.2274 68.5466 12.7408 68.4933 14.2208C68.4533 15.1274 68.4333 16.0074 68.4333 16.8608C68.4466 17.6208 68.4199 18.0874 68.3533 18.2608C68.1933 18.6741 67.9199 18.8808 67.5333 18.8808C67.1599 18.8808 66.8533 18.6608 66.6133 18.2208C66.5733 18.1674 66.5466 18.0208 66.5333 17.7808C66.5333 17.5408 66.5399 16.8208 66.5533 15.6208C66.5533 13.9541 66.5399 13.1074 66.5133 13.0808C66.4866 13.0408 66.0399 13.0141 65.1733 13.0008C64.3866 12.9741 63.8933 12.9408 63.6933 12.9008C63.4933 12.8608 63.2999 12.7474 63.1133 12.5608C63.0199 12.4541 62.9666 12.4408 62.9533 12.5208C62.9399 12.5741 62.9266 12.7341 62.9133 13.0008C62.8999 13.3474 62.8799 13.6141 62.8533 13.8008C62.8266 13.9874 62.7999 14.2874 62.7733 14.7008C62.7333 15.1141 62.6933 15.4408 62.6533 15.6808C62.6266 15.9074 62.5666 16.1274 62.4733 16.3408C62.3799 16.5408 62.2733 16.6808 62.1533 16.7608C62.0466 16.8408 61.8666 16.9074 61.6133 16.9608C61.3599 17.0141 61.0933 17.0408 60.8133 17.0408C60.5333 17.0274 60.1466 17.0008 59.6533 16.9608C59.3333 16.9341 59.0733 16.9141 58.8733 16.9008C58.6866 16.8874 58.4933 16.8541 58.2933 16.8008C58.1066 16.7474 57.9666 16.7008 57.8733 16.6608C57.7799 16.6074 57.6866 16.5208 57.5933 16.4008C57.4999 16.2808 57.4399 16.1674 57.4133 16.0608C57.3866 15.9408 57.3599 15.7674 57.3333 15.5408C57.3066 15.3008 57.2933 15.0741 57.2933 14.8608C57.3066 14.6341 57.3266 14.3341 57.3533 13.9608C57.3666 13.3341 57.3733 12.2741 57.3733 10.7808C57.3733 9.62078 57.3733 8.94078 57.3733 8.74078C57.3866 8.52745 57.4133 8.37411 57.4533 8.28078C57.5466 8.09411 57.6866 7.94745 57.8733 7.84078C58.0599 7.73411 58.2333 7.70745 58.3933 7.76078C58.4866 7.78745 58.5533 7.80078 58.5933 7.80078C58.6466 7.80078 58.7266 7.84078 58.8333 7.92078C58.9533 8.00078 59.0266 8.06745 59.0533 8.12078C59.1599 8.29411 59.2266 8.46078 59.2533 8.62078C59.2799 8.78078 59.3066 9.20745 59.3333 9.90078C59.3466 10.4474 59.3599 10.7274 59.3733 10.7408C59.4399 10.8208 59.7999 10.8541 60.4533 10.8408C60.4799 10.8408 60.5199 10.8408 60.5733 10.8408C60.8266 10.8408 60.9733 10.8008 61.0133 10.7208C61.0666 10.6408 61.0933 10.3808 61.0933 9.94078C61.1066 9.83411 61.1133 9.75411 61.1133 9.70078C61.1133 9.07411 61.1266 8.68078 61.1533 8.52078C61.1799 8.34745 61.2466 8.17411 61.3533 8.00078C61.5133 7.74745 61.7733 7.64078 62.1333 7.68078C62.4933 7.72078 62.7399 7.88078 62.8733 8.16078C62.9666 8.36078 63.0199 8.50745 63.0333 8.60078C63.0466 8.69411 63.0399 8.96078 63.0133 9.40078C62.9599 10.6408 62.9666 11.2941 63.0333 11.3608C63.0599 11.3874 63.1266 11.3608 63.2333 11.2808C63.4866 11.0808 63.9066 11.0008 64.4933 11.0408C64.8533 11.0808 65.2666 11.1008 65.7333 11.1008H66.5333L66.5733 9.88078C66.5866 9.26745 66.5999 8.80745 66.6133 8.50078C66.6266 8.19411 66.6466 7.90745 66.6733 7.64078C66.6999 7.37411 66.7399 7.19411 66.7933 7.10078C66.8599 6.99411 66.9266 6.90745 66.9933 6.84078C67.0599 6.77411 67.1666 6.71411 67.3133 6.66078ZM60.9133 13.0408C60.8866 12.9608 60.6399 12.9208 60.1733 12.9208C59.7066 12.9208 59.4333 12.9608 59.3533 13.0408C59.2866 13.1074 59.2533 13.4408 59.2533 14.0408C59.2533 14.5074 59.2799 14.7674 59.3333 14.8208C59.3866 14.8741 59.6199 14.9008 60.0333 14.9008C60.4866 14.9008 60.7399 14.8674 60.7933 14.8008C60.8599 14.7341 60.9066 14.4141 60.9333 13.8408C60.9599 13.3741 60.9533 13.1074 60.9133 13.0408ZM80.6503 5.18078C80.7036 5.14078 80.8703 5.14745 81.1503 5.20078C81.2436 5.22745 81.3436 5.28745 81.4503 5.38078C81.5703 5.47411 81.657 5.57411 81.7103 5.68078C81.7636 5.78745 81.7903 6.04745 81.7903 6.46078C81.7903 6.87411 81.7703 7.92745 81.7303 9.62078C81.7036 11.0608 81.677 11.9674 81.6503 12.3408C81.6236 12.7008 81.5836 12.9408 81.5303 13.0608C81.357 13.4074 81.0703 13.5808 80.6703 13.5808C80.2703 13.5674 79.9903 13.3874 79.8303 13.0408C79.7903 12.9341 79.7636 12.4541 79.7503 11.6008L79.7303 10.3208L78.4903 10.3008C77.717 10.2874 77.2236 10.2541 77.0103 10.2008C76.797 10.1341 76.617 9.98745 76.4703 9.76078C76.417 9.68078 76.3903 9.54078 76.3903 9.34078C76.4036 9.12745 76.4436 8.97411 76.5103 8.88078C76.657 8.62745 76.857 8.46745 77.1103 8.40078C77.377 8.33411 77.9036 8.30745 78.6903 8.32078C79.4236 8.32078 79.8036 8.30745 79.8303 8.28078C79.857 8.24078 79.8703 7.84745 79.8703 7.10078C79.8703 6.54078 79.8703 6.20745 79.8703 6.10078C79.8836 5.98078 79.9103 5.87411 79.9503 5.78078C80.0036 5.66078 80.0903 5.54078 80.2103 5.42078C80.3436 5.28745 80.4436 5.22078 80.5103 5.22078C80.5503 5.22078 80.597 5.20745 80.6503 5.18078ZM74.5103 5.80078C74.7236 5.70745 74.9036 5.70078 75.0503 5.78078C75.117 5.82078 75.177 5.84078 75.2303 5.84078C75.2703 5.84078 75.3436 5.89411 75.4503 6.00078C75.557 6.09411 75.6103 6.16078 75.6103 6.20078C75.6103 6.21411 75.637 6.26078 75.6903 6.34078C75.7436 6.39411 75.7636 6.51411 75.7503 6.70078C75.7503 6.87411 75.7236 7.01411 75.6703 7.12078C75.6303 7.18745 75.6036 7.24745 75.5903 7.30078C75.577 7.34078 75.5436 7.39411 75.4903 7.46078C75.477 7.47411 75.417 7.58078 75.3103 7.78078C75.2303 7.92745 75.177 8.00078 75.1503 8.00078C75.137 8.00078 75.1303 8.01411 75.1303 8.04078C75.1303 8.06745 75.057 8.21411 74.9103 8.48078C74.7503 8.73411 74.6703 8.88745 74.6703 8.94078C74.6703 8.96745 74.737 9.08745 74.8703 9.30078C75.017 9.50078 75.1303 9.63411 75.2103 9.70078C75.237 9.74078 75.2503 9.76745 75.2503 9.78078C75.2503 9.79411 75.2903 9.84745 75.3703 9.94078C75.4636 10.0474 75.5503 10.1541 75.6303 10.2608C75.7903 10.4741 75.937 10.6541 76.0703 10.8008C76.9103 11.7741 76.9503 12.4408 76.1903 12.8008C75.8836 12.9608 75.5903 12.9608 75.3103 12.8008C75.0436 12.6408 74.677 12.2541 74.2103 11.6408C73.9303 11.2674 73.7503 11.0474 73.6703 10.9808C73.6036 10.9141 73.5503 10.8941 73.5103 10.9208C73.4436 10.9474 73.4103 10.9808 73.4103 11.0208C73.4103 11.0608 73.3903 11.1008 73.3503 11.1408C73.3236 11.1674 73.297 11.2141 73.2703 11.2808C73.217 11.3874 73.1503 11.4874 73.0703 11.5808C73.0436 11.6208 73.0303 11.6474 73.0303 11.6608C73.0303 11.7674 72.897 11.9741 72.6303 12.2808C72.3636 12.5874 72.177 12.7541 72.0703 12.7808C72.0036 12.7941 71.9636 12.8141 71.9503 12.8408C71.9236 12.8808 71.8303 12.8941 71.6703 12.8808C71.5236 12.8674 71.397 12.8341 71.2903 12.7808C70.9703 12.6341 70.797 12.4074 70.7703 12.1008C70.7436 11.7808 70.8703 11.4074 71.1503 10.9808C71.217 10.8874 71.257 10.8141 71.2703 10.7608C71.297 10.7074 71.317 10.6741 71.3303 10.6608C71.357 10.6474 71.3903 10.6008 71.4303 10.5208C71.5903 10.2141 71.6836 10.0474 71.7103 10.0208C71.7236 10.0074 71.7436 9.96745 71.7703 9.90078C71.8103 9.82078 71.8903 9.68745 72.0103 9.50078C72.0636 9.40745 72.1036 9.33411 72.1303 9.28078C72.157 9.21411 72.177 9.17411 72.1903 9.16078C72.2036 9.16078 72.237 9.11411 72.2903 9.02078C72.4636 8.70078 72.577 8.49411 72.6303 8.40078C72.697 8.29411 72.737 8.23411 72.7503 8.22078C72.7903 8.12745 72.8303 8.06078 72.8703 8.02078C72.9236 7.92745 72.9636 7.84745 72.9903 7.78078C73.017 7.71411 73.0436 7.68078 73.0703 7.68078C73.097 7.68078 73.1103 7.66745 73.1103 7.64078C73.1103 7.61411 73.1703 7.50078 73.2903 7.30078C73.4236 7.11411 73.4903 7.01411 73.4903 7.00078C73.4903 6.98745 73.5303 6.92078 73.6103 6.80078C73.6903 6.69411 73.7303 6.62745 73.7303 6.60078C73.7303 6.53411 73.8236 6.40078 74.0103 6.20078C74.197 6.00078 74.3636 5.86745 74.5103 5.80078ZM78.3303 13.8808C78.5436 13.7741 78.7236 13.7741 78.8703 13.8808C78.9236 13.9074 78.9836 13.9274 79.0503 13.9408C79.117 13.9674 79.1903 14.0274 79.2703 14.1208C79.3636 14.2008 79.437 14.2874 79.4903 14.3808C79.5036 14.4074 79.5236 14.4541 79.5503 14.5208C79.577 14.5741 79.5903 14.6008 79.5903 14.6008C79.7103 14.8541 79.4703 15.3608 78.8703 16.1208C78.7503 16.2674 78.6903 16.3674 78.6903 16.4208C78.6903 16.4474 78.7436 16.5208 78.8503 16.6408C78.9703 16.7474 79.0903 16.8408 79.2103 16.9208C79.317 17.0008 79.377 17.0474 79.3903 17.0608C79.4036 17.0874 79.5036 17.1674 79.6903 17.3008C79.877 17.4341 80.037 17.5608 80.1703 17.6808C80.357 17.8541 80.497 17.9741 80.5903 18.0408C80.7503 18.1608 80.857 18.2474 80.9103 18.3008C80.937 18.3274 81.017 18.3941 81.1503 18.5008C81.4303 18.7274 81.5903 18.9274 81.6303 19.1008C81.657 19.1674 81.6836 19.2074 81.7103 19.2208C81.8036 19.2874 81.7903 19.4741 81.6703 19.7808C81.5636 20.1008 81.4503 20.2608 81.3303 20.2608C81.2903 20.2608 81.2636 20.2741 81.2503 20.3008C81.2236 20.4074 81.037 20.4274 80.6903 20.3608C80.357 20.3074 80.1303 20.2074 80.0103 20.0608C79.9836 20.0341 79.877 19.9474 79.6903 19.8008C79.517 19.6674 79.417 19.5874 79.3903 19.5608C79.377 19.5474 79.1436 19.3674 78.6903 19.0208C78.237 18.6608 77.997 18.4674 77.9703 18.4408C77.917 18.4008 77.837 18.3341 77.7303 18.2408C77.5836 18.1474 77.5103 18.0874 77.5103 18.0608C77.5103 17.9941 77.4436 18.0008 77.3103 18.0808C77.2703 18.1074 77.237 18.1341 77.2103 18.1608C77.197 18.1874 77.1636 18.2274 77.1103 18.2808C77.057 18.3341 77.0236 18.3674 77.0103 18.3808C76.9036 18.5008 76.7503 18.6874 76.5503 18.9408C76.4836 19.0208 76.337 19.1874 76.1103 19.4408C75.8836 19.6808 75.7636 19.8074 75.7503 19.8208C75.7236 19.8608 75.657 19.9208 75.5503 20.0008C75.4436 20.0808 75.3636 20.1208 75.3103 20.1208C75.2303 20.1474 75.1703 20.1674 75.1303 20.1808C75.1036 20.2074 75.037 20.2208 74.9303 20.2208C74.8236 20.2208 74.757 20.2141 74.7303 20.2008C74.7036 20.1741 74.657 20.1474 74.5903 20.1208C74.3636 20.0674 74.197 19.8808 74.0903 19.5608C73.997 19.2541 74.0236 19.0141 74.1703 18.8408C74.2103 18.7874 74.277 18.7008 74.3703 18.5808C74.7036 18.1408 75.157 17.5808 75.7303 16.9008C75.7703 16.8608 75.817 16.8008 75.8703 16.7208C75.937 16.6408 75.9903 16.5741 76.0303 16.5208C76.0836 16.4674 76.1236 16.4274 76.1503 16.4008C76.2436 16.2808 76.3103 16.2008 76.3503 16.1608C76.377 16.1208 76.4636 16.0074 76.6103 15.8208C76.7436 15.6608 76.8236 15.5674 76.8503 15.5408C76.8636 15.5274 76.9103 15.4608 76.9903 15.3408C77.0703 15.2341 77.137 15.1541 77.1903 15.1008C77.2303 15.0474 77.3036 14.9474 77.4103 14.8008C77.517 14.6408 77.577 14.5541 77.5903 14.5408C77.617 14.5141 77.677 14.4408 77.7703 14.3208C77.8903 14.1608 78.077 14.0141 78.3303 13.8808ZM88.633 4.86078C88.7796 4.84745 88.9863 4.84745 89.253 4.86078C89.5196 4.87411 89.6996 4.89411 89.793 4.92078C89.913 4.97411 90.0463 5.01411 90.193 5.04078C91.1263 5.29411 91.7796 5.74078 92.153 6.38078C92.3663 6.74078 92.4796 7.16078 92.493 7.64078C92.5196 8.10745 92.453 8.54745 92.293 8.96078C92.0663 9.50745 91.7463 9.94078 91.333 10.2608C91.2396 10.3408 91.093 10.4341 90.893 10.5408C90.7063 10.6474 90.593 10.7008 90.553 10.7008C90.513 10.7008 90.4596 10.7141 90.393 10.7408C90.313 10.7808 90.253 10.8008 90.213 10.8008C90.173 10.8008 90.0996 10.8208 89.993 10.8608C89.913 10.9008 89.6796 10.9208 89.293 10.9208C88.9063 10.9208 88.6463 10.9074 88.513 10.8808C88.3663 10.8541 88.253 10.8274 88.173 10.8008C88.0396 10.7874 87.9596 10.7608 87.933 10.7208C87.9063 10.7074 87.873 10.7008 87.833 10.7008C87.793 10.7008 87.6796 10.6541 87.493 10.5608C87.3063 10.4541 87.153 10.3674 87.033 10.3008C86.8596 10.1808 86.6596 10.0008 86.433 9.76078C86.2196 9.50745 86.093 9.30745 86.053 9.16078C86.0396 9.09411 86.0196 9.04745 85.993 9.02078C85.9396 8.95411 85.893 8.76745 85.853 8.46078C85.813 8.15411 85.8063 7.92078 85.833 7.76078C85.8996 7.37411 85.953 7.14078 85.993 7.06078C86.0063 7.03411 86.0463 6.94745 86.113 6.80078C86.313 6.34745 86.6396 5.94078 87.093 5.58078C87.2263 5.47411 87.4263 5.34745 87.693 5.20078C87.9596 5.05411 88.1196 4.98078 88.173 4.98078C88.213 4.98078 88.273 4.96078 88.353 4.92078C88.433 4.89411 88.5263 4.87411 88.633 4.86078ZM89.633 6.98078C89.1663 6.91411 88.7996 6.94078 88.533 7.06078C88.2796 7.16745 88.073 7.38745 87.913 7.72078C87.6863 8.20078 87.8263 8.56745 88.333 8.82078C88.493 8.90078 88.7463 8.94078 89.093 8.94078C89.4396 8.94078 89.713 8.90078 89.913 8.82078C90.0463 8.75411 90.1463 8.68078 90.213 8.60078C90.293 8.50745 90.3996 8.32745 90.533 8.06078C90.6396 7.83411 90.5996 7.61411 90.413 7.40078C90.2396 7.17411 89.9796 7.03411 89.633 6.98078ZM90.873 12.0208C91.5396 11.9808 92.1863 11.9674 92.813 11.9808C93.453 11.9941 93.813 12.0208 93.893 12.0608C94.253 12.2474 94.4396 12.5208 94.453 12.8808C94.4663 13.2408 94.2996 13.5341 93.953 13.7608C93.8196 13.8541 93.513 13.9141 93.033 13.9408C92.5663 13.9541 91.1396 13.9808 88.753 14.0208C86.8196 14.0474 85.7463 14.0674 85.533 14.0808C85.1463 14.0941 84.873 14.0741 84.713 14.0208C84.553 13.9674 84.393 13.8541 84.233 13.6808C84.0063 13.4408 83.933 13.1674 84.013 12.8608C84.1063 12.5408 84.313 12.3074 84.633 12.1608C84.7263 12.1208 85.6996 12.0941 87.553 12.0808C89.313 12.0674 90.4196 12.0474 90.873 12.0208ZM85.933 15.0608C86.1063 15.0208 86.293 15.0274 86.493 15.0808C86.693 15.1208 86.8396 15.2008 86.933 15.3208C87.0663 15.4674 87.1396 15.6141 87.153 15.7608C87.1796 15.8941 87.193 16.3541 87.193 17.1408C87.2063 18.0874 87.2196 18.5741 87.233 18.6008C87.2596 18.6274 88.093 18.6341 89.733 18.6208C90.9596 18.6208 91.6796 18.6274 91.893 18.6408C92.1196 18.6408 92.2863 18.6674 92.393 18.7208C92.6596 18.8408 92.8263 19.0341 92.893 19.3008C92.973 19.5674 92.933 19.8208 92.773 20.0608C92.6263 20.3008 92.3996 20.4541 92.093 20.5208C91.973 20.5474 91.0396 20.5741 89.293 20.6008C87.5596 20.6408 86.6063 20.6541 86.433 20.6408C85.7396 20.5474 85.353 20.1074 85.273 19.3208C85.2463 19.0541 85.2263 18.4274 85.213 17.4408C85.213 16.4408 85.2263 15.9274 85.253 15.9008C85.2796 15.8874 85.2996 15.8341 85.313 15.7408C85.3263 15.6341 85.353 15.5674 85.393 15.5408C85.433 15.5008 85.453 15.4674 85.453 15.4408C85.453 15.4008 85.5196 15.3341 85.653 15.2408C85.7863 15.1341 85.8796 15.0741 85.933 15.0608ZM111.368 5.18078C111.502 5.11411 111.675 5.10078 111.888 5.14078C112.102 5.16745 112.275 5.24078 112.408 5.36078C112.555 5.50745 112.642 5.66078 112.668 5.82078C112.695 5.96745 112.708 6.50745 112.708 7.44078C112.722 8.60078 112.742 9.52078 112.768 10.2008C112.835 11.8541 112.828 12.7474 112.748 12.8808C112.562 13.2274 112.268 13.4008 111.868 13.4008C111.482 13.4008 111.202 13.2341 111.028 12.9008C110.962 12.7674 110.915 12.4341 110.888 11.9008C110.862 11.3541 110.842 10.2141 110.828 8.48078C110.828 7.18745 110.828 6.42078 110.828 6.18078C110.828 5.92745 110.848 5.76078 110.888 5.68078C110.982 5.48078 111.142 5.31411 111.368 5.18078ZM104.428 5.70078C104.562 5.60745 104.735 5.58078 104.948 5.62078C105.175 5.66078 105.342 5.74078 105.448 5.86078C105.702 6.15411 105.802 6.43411 105.748 6.70078C105.708 6.87411 105.562 7.17411 105.308 7.60078C105.068 8.00078 104.902 8.26078 104.808 8.38078C104.688 8.55411 104.682 8.68745 104.788 8.78078C104.868 8.86078 104.995 8.94745 105.168 9.04078C105.342 9.12078 105.455 9.16078 105.508 9.16078C105.575 9.16078 105.635 9.11411 105.688 9.02078C105.755 8.92745 105.882 8.68745 106.068 8.30078C106.148 8.16745 106.195 8.09411 106.208 8.08078C106.235 8.05411 106.435 7.67411 106.808 6.94078C107.235 6.10078 107.695 5.76078 108.188 5.92078C108.495 6.02745 108.682 6.16745 108.748 6.34078C108.762 6.34078 108.775 6.35411 108.788 6.38078C108.802 6.40745 108.808 6.43411 108.808 6.46078C108.822 6.47411 108.835 6.49411 108.848 6.52078C108.888 6.58745 108.902 6.70745 108.888 6.88078C108.875 7.08078 108.795 7.32078 108.648 7.60078C108.328 8.25411 108.115 8.67411 108.008 8.86078C107.902 9.03411 107.882 9.18078 107.948 9.30078C108.015 9.42078 108.248 9.66078 108.648 10.0208C109.248 10.5541 109.595 10.9008 109.688 11.0608C109.848 11.3808 109.848 11.6808 109.688 11.9608C109.528 12.2274 109.268 12.3741 108.908 12.4008C108.695 12.4141 108.502 12.3741 108.328 12.2808C108.168 12.1874 107.928 11.9941 107.608 11.7008C107.168 11.2608 106.915 11.0408 106.848 11.0408C106.795 11.0408 106.695 11.1608 106.548 11.4008C106.148 12.0541 105.822 12.5074 105.568 12.7608C105.328 13.0008 105.075 13.1208 104.808 13.1208C104.368 13.1208 104.082 12.9341 103.948 12.5608C103.828 12.1741 103.928 11.7741 104.248 11.3608C104.475 11.0541 104.515 10.8741 104.368 10.8208C104.355 10.8074 104.335 10.8008 104.308 10.8008C104.282 10.8008 104.248 10.7874 104.208 10.7608C104.168 10.7208 104.102 10.6741 104.008 10.6208C103.915 10.5541 103.848 10.5008 103.808 10.4608C103.782 10.4341 103.748 10.4208 103.708 10.4208C103.682 10.4074 103.642 10.4341 103.588 10.5008C103.535 10.5541 103.475 10.6274 103.408 10.7208C103.342 10.8008 103.255 10.9274 103.148 11.1008C102.695 11.7808 102.408 12.1274 102.288 12.1408C102.262 12.1408 102.208 12.1608 102.128 12.2008C101.808 12.3741 101.482 12.3074 101.148 12.0008C100.828 11.6941 100.755 11.3808 100.928 11.0608C100.955 10.9941 100.968 10.9474 100.968 10.9208C100.968 10.8808 101.055 10.7341 101.228 10.4808C101.402 10.2274 101.488 10.0941 101.488 10.0808C101.488 10.0674 101.542 9.98078 101.648 9.82078C101.755 9.67411 101.888 9.46745 102.048 9.20078C102.155 9.02745 102.248 8.87411 102.328 8.74078C102.408 8.60745 102.455 8.53411 102.468 8.52078C102.522 8.41411 102.562 8.34078 102.588 8.30078C103.055 7.52745 103.362 7.04078 103.508 6.84078C103.535 6.80078 103.635 6.64078 103.808 6.36078C104.008 6.02745 104.215 5.80745 104.428 5.70078ZM108.708 13.9008C109.055 13.6874 109.408 13.7408 109.768 14.0608C110.128 14.3808 110.222 14.7208 110.048 15.0808C109.995 15.1741 109.968 15.2408 109.968 15.2808C109.968 15.3208 109.955 15.3408 109.928 15.3408C109.902 15.3408 109.888 15.3608 109.888 15.4008C109.888 15.4274 109.782 15.5608 109.568 15.8008C109.368 16.0408 109.262 16.1941 109.248 16.2608C109.248 16.3274 109.315 16.4274 109.448 16.5608C109.702 16.8008 109.902 16.9674 110.048 17.0608C110.168 17.1541 110.242 17.2141 110.268 17.2408C110.575 17.5074 111.062 17.8874 111.728 18.3808C112.075 18.6474 112.275 18.8741 112.328 19.0608C112.342 19.1274 112.362 19.1741 112.388 19.2008C112.455 19.2408 112.455 19.3741 112.388 19.6008C112.335 19.8408 112.262 20.0074 112.168 20.1008C111.782 20.4608 111.348 20.4608 110.868 20.1008C110.855 20.1008 110.662 19.9541 110.288 19.6608C109.915 19.3808 109.708 19.2274 109.668 19.2008C109.655 19.1874 109.495 19.0674 109.188 18.8408C108.882 18.6008 108.722 18.4741 108.708 18.4608C108.682 18.4341 108.615 18.3808 108.508 18.3008C108.415 18.2208 108.315 18.1341 108.208 18.0408C108.102 17.9474 108.015 17.9141 107.948 17.9408C107.895 17.9541 107.775 18.0741 107.588 18.3008C107.388 18.5408 107.255 18.7008 107.188 18.7808C107.015 18.9808 106.882 19.1408 106.788 19.2608C106.668 19.4074 106.508 19.5808 106.308 19.7808C106.108 19.9941 105.995 20.1008 105.968 20.1008C105.915 20.1141 105.848 20.1408 105.768 20.1808C105.488 20.3141 105.208 20.2741 104.928 20.0608C104.648 19.8474 104.522 19.5808 104.548 19.2608C104.562 19.0074 104.622 18.8341 104.728 18.7408C104.742 18.7274 104.822 18.6274 104.968 18.4408C105.088 18.2808 105.182 18.1608 105.248 18.0808C105.448 17.8674 105.748 17.5008 106.148 16.9808C106.215 16.8874 106.315 16.7608 106.448 16.6008C106.582 16.4408 106.655 16.3474 106.668 16.3208C106.735 16.2408 106.835 16.1141 106.968 15.9408C107.075 15.8074 107.175 15.6808 107.268 15.5608C107.375 15.4408 107.455 15.3474 107.508 15.2808C107.642 15.0808 107.828 14.8341 108.068 14.5408C108.308 14.2341 108.435 14.0808 108.448 14.0808C108.462 14.0808 108.488 14.0674 108.528 14.0408C108.542 14.0274 108.602 13.9808 108.708 13.9008ZM124.389 6.70078C124.882 6.56745 125.269 6.75411 125.549 7.26078C125.602 7.35411 125.629 9.04745 125.629 12.3408C125.629 15.6208 125.602 17.3874 125.549 17.6408C125.509 17.8274 125.489 17.9541 125.489 18.0208C125.489 18.3141 125.342 18.5541 125.049 18.7408C124.755 18.9141 124.475 18.9341 124.209 18.8008C123.755 18.5741 123.562 18.1808 123.629 17.6208C123.655 17.3941 123.675 15.6474 123.689 12.3808C123.702 9.90078 123.715 8.44745 123.729 8.02078C123.742 7.59411 123.775 7.32745 123.829 7.22078C123.882 7.11411 123.969 7.00745 124.089 6.90078C124.209 6.79411 124.309 6.72745 124.389 6.70078ZM118.849 8.00078C119.075 7.97411 119.382 7.96078 119.769 7.96078C120.169 7.96078 120.402 7.97411 120.469 8.00078C120.562 8.02745 120.635 8.04078 120.689 8.04078C120.849 8.08078 121.029 8.24745 121.229 8.54078C121.295 8.66078 121.329 8.81411 121.329 9.00078C121.329 9.18745 121.295 9.34745 121.229 9.48078C121.162 9.62745 120.982 9.94078 120.689 10.4208C120.395 10.9008 120.195 11.2274 120.089 11.4008C119.835 11.7741 119.715 12.0074 119.729 12.1008C119.742 12.1941 119.929 12.4141 120.289 12.7608C120.689 13.1341 121.095 13.4874 121.509 13.8208C121.935 14.1541 122.169 14.4808 122.209 14.8008C122.262 15.1208 122.122 15.3808 121.789 15.5808C121.455 15.7941 121.095 15.8074 120.709 15.6208C120.335 15.4208 119.735 14.9141 118.909 14.1008C118.682 13.8874 118.562 13.7808 118.549 13.7808C118.495 13.7808 118.389 13.9074 118.229 14.1608C118.189 14.2274 118.135 14.2941 118.069 14.3608C117.989 14.4541 117.849 14.6341 117.649 14.9008C117.142 15.5541 116.802 15.9008 116.629 15.9408C116.562 15.9674 116.502 15.9941 116.449 16.0208C116.342 16.1008 116.162 16.0941 115.909 16.0008C115.562 15.8808 115.355 15.6741 115.289 15.3808C115.235 15.0874 115.329 14.7808 115.569 14.4608C115.675 14.3141 115.869 14.0408 116.149 13.6408C116.242 13.5074 116.302 13.4408 116.329 13.4408C116.342 13.4274 116.349 13.4074 116.349 13.3808C116.349 13.3541 116.449 13.2074 116.649 12.9408C116.862 12.6741 117.035 12.4408 117.169 12.2408C117.302 12.0408 117.389 11.9208 117.429 11.8808C117.695 11.5074 117.829 11.3141 117.829 11.3008C117.829 11.2608 117.935 11.1141 118.149 10.8608C118.149 10.8474 118.189 10.7874 118.269 10.6808C118.322 10.5741 118.389 10.4741 118.469 10.3808C118.509 10.3274 118.542 10.2674 118.569 10.2008C118.595 10.1341 118.609 10.0874 118.609 10.0608C118.609 10.0208 118.595 9.99411 118.569 9.98078C118.529 9.98078 118.049 9.98078 117.129 9.98078C116.369 9.96745 115.909 9.95411 115.749 9.94078C115.602 9.91411 115.449 9.82745 115.289 9.68078C115.102 9.50745 115.009 9.28078 115.009 9.00078C115.009 8.72078 115.115 8.48745 115.329 8.30078C115.475 8.16745 115.629 8.09411 115.789 8.08078C115.949 8.05411 116.409 8.04078 117.169 8.04078C118.102 8.02745 118.662 8.01411 118.849 8.00078ZM141.817 4.70078C141.884 4.67411 141.997 4.65411 142.157 4.64078C142.331 4.62745 142.431 4.64078 142.457 4.68078C142.471 4.69411 142.511 4.71411 142.577 4.74078C142.804 4.78078 142.957 4.92078 143.037 5.16078C143.117 5.40078 143.164 5.84078 143.177 6.48078C143.177 6.57411 143.177 6.69411 143.177 6.84078C143.177 7.24078 143.204 7.47411 143.257 7.54078C143.311 7.59411 143.504 7.61411 143.837 7.60078C143.944 7.58745 144.037 7.58078 144.117 7.58078C144.997 7.54078 145.504 7.56078 145.637 7.64078C145.717 7.69411 145.811 7.79411 145.917 7.94078C146.037 8.07411 146.097 8.16078 146.097 8.20078C146.097 8.25411 146.117 8.30745 146.157 8.36078C146.211 8.49411 146.171 8.68745 146.037 8.94078C145.917 9.19411 145.804 9.32078 145.697 9.32078C145.671 9.32078 145.637 9.34078 145.597 9.38078C145.504 9.46078 145.044 9.52078 144.217 9.56078C144.137 9.56078 144.037 9.56745 143.917 9.58078C143.557 9.59411 143.344 9.64078 143.277 9.72078C143.211 9.80078 143.184 10.0674 143.197 10.5208C143.197 10.6808 143.197 10.8074 143.197 10.9008C143.184 11.5674 143.164 11.9808 143.137 12.1408C143.111 12.3008 143.017 12.4474 142.857 12.5808C142.551 12.8341 142.217 12.8874 141.857 12.7408C141.511 12.5941 141.304 12.3074 141.237 11.8808C141.211 11.6808 141.197 10.5874 141.197 8.60078C141.197 6.60078 141.217 5.54078 141.257 5.42078C141.351 5.11411 141.537 4.87411 141.817 4.70078ZM134.977 5.80078C135.151 5.76078 135.691 5.74078 136.597 5.74078C137.517 5.74078 138.057 5.76745 138.217 5.82078C138.737 5.95411 139.057 6.31411 139.177 6.90078C139.204 7.06078 139.211 7.52745 139.197 8.30078C139.184 9.07411 139.157 9.77411 139.117 10.4008C139.064 11.1608 138.684 11.6408 137.977 11.8408C137.724 11.9208 137.151 11.9408 136.257 11.9008C135.364 11.8608 134.831 11.7941 134.657 11.7008C134.404 11.5674 134.224 11.4208 134.117 11.2608C134.011 11.1008 133.931 10.8808 133.877 10.6008C133.837 10.3741 133.817 9.72745 133.817 8.66078C133.817 7.59411 133.837 6.98745 133.877 6.84078C133.957 6.53411 134.077 6.30745 134.237 6.16078C134.411 6.00078 134.657 5.88078 134.977 5.80078ZM137.197 7.74078C137.171 7.71411 136.964 7.70078 136.577 7.70078C136.191 7.68745 135.957 7.69411 135.877 7.72078C135.811 7.73411 135.771 8.09411 135.757 8.80078C135.744 9.49411 135.771 9.87411 135.837 9.94078C135.891 9.99411 136.104 10.0274 136.477 10.0408C136.864 10.0408 137.084 10.0074 137.137 9.94078C137.191 9.88745 137.224 9.52078 137.237 8.84078C137.251 8.16078 137.237 7.79411 137.197 7.74078ZM139.677 13.3608C139.811 13.3474 140.004 13.3408 140.257 13.3408C141.377 13.3141 142.037 13.3074 142.237 13.3208C142.437 13.3341 142.597 13.3941 142.717 13.5008C142.731 13.5141 142.744 13.5274 142.757 13.5408C142.944 13.7141 143.057 13.8941 143.097 14.0808C143.137 14.2674 143.157 14.7608 143.157 15.5608C143.157 16.3341 143.144 16.8141 143.117 17.0008C143.091 17.1741 142.997 17.3408 142.837 17.5008C142.624 17.7274 142.337 17.8674 141.977 17.9208C141.631 17.9741 140.551 18.0341 138.737 18.1008C138.257 18.1274 137.997 18.1608 137.957 18.2008C137.931 18.2274 137.917 18.3408 137.917 18.5408C137.917 18.7274 137.937 18.8408 137.977 18.8808C138.004 18.9341 138.377 18.9741 139.097 19.0008C139.817 19.0274 140.531 19.0341 141.237 19.0208C141.771 19.0074 142.131 19.0141 142.317 19.0408C142.504 19.0808 142.664 19.1674 142.797 19.3008C142.944 19.4341 143.017 19.5141 143.017 19.5408C143.017 19.5674 143.037 19.6208 143.077 19.7008C143.197 19.9008 143.184 20.1208 143.037 20.3608C142.891 20.6141 142.677 20.7941 142.397 20.9008C142.157 20.9808 141.244 21.0008 139.657 20.9608C138.071 20.9341 137.151 20.8741 136.897 20.7808C136.497 20.6208 136.231 20.4074 136.097 20.1408C135.977 19.8874 135.911 19.3874 135.897 18.6408C135.871 18.0141 135.904 17.5408 135.997 17.2208C136.024 17.0741 136.091 16.9274 136.197 16.7808C136.317 16.6341 136.444 16.5274 136.577 16.4608C136.764 16.3808 137.044 16.3208 137.417 16.2808C137.804 16.2408 138.477 16.2008 139.437 16.1608C140.624 16.1208 141.251 16.0541 141.317 15.9608C141.331 15.9208 141.331 15.8074 141.317 15.6208C141.317 15.4208 141.304 15.3008 141.277 15.2608C141.237 15.1941 140.584 15.2008 139.317 15.2808C138.077 15.3608 137.237 15.3608 136.797 15.2808C136.357 15.1874 136.077 14.9741 135.957 14.6408C135.797 14.2274 135.871 13.9008 136.177 13.6608C136.497 13.4208 136.984 13.3208 137.637 13.3608C137.931 13.3741 138.611 13.3741 139.677 13.3608ZM153.031 7.02078C154.004 6.91411 154.704 7.01411 155.131 7.32078C155.411 7.53411 155.564 7.99411 155.591 8.70078C155.604 9.14078 155.624 9.44745 155.651 9.62078C155.691 9.88745 155.684 10.5474 155.631 11.6008C155.591 12.6541 155.544 13.2608 155.491 13.4208C155.331 13.8608 155.058 14.0941 154.671 14.1208C154.284 14.1341 153.991 13.9274 153.791 13.5008C153.738 13.3941 153.704 13.2474 153.691 13.0608C153.678 12.8741 153.671 12.2741 153.671 11.2608C153.671 11.0874 153.671 10.8608 153.671 10.5808C153.671 9.82078 153.664 9.38078 153.651 9.26078C153.651 9.14078 153.624 9.07411 153.571 9.06078C153.558 9.06078 153.544 9.06078 153.531 9.06078C153.358 9.03411 152.764 9.04745 151.751 9.10078C150.751 9.15411 150.091 9.21411 149.771 9.28078C149.264 9.36078 148.864 9.25411 148.571 8.96078C148.278 8.66745 148.224 8.31411 148.411 7.90078C148.531 7.63411 148.731 7.46745 149.011 7.40078C149.304 7.32078 150.024 7.26078 151.171 7.22078C151.798 7.19411 152.211 7.16078 152.411 7.12078C152.651 7.08078 152.858 7.04745 153.031 7.02078ZM151.231 11.8008C151.244 11.8008 151.271 11.8074 151.311 11.8208C151.364 11.8341 151.404 11.8408 151.431 11.8408C151.644 11.8808 151.838 12.0141 152.011 12.2408C152.131 12.4008 152.204 12.6141 152.231 12.8808C152.258 13.1474 152.271 13.7808 152.271 14.7808C152.271 15.9541 152.284 16.5541 152.311 16.5808C152.324 16.6074 152.738 16.6274 153.551 16.6408C154.378 16.6408 154.871 16.6208 155.031 16.5808C156.204 16.3674 156.904 16.6074 157.131 17.3008C157.184 17.5008 157.138 17.7274 156.991 17.9808C156.844 18.2341 156.678 18.3741 156.491 18.4008C156.411 18.4141 156.358 18.4341 156.331 18.4608C156.304 18.5141 155.164 18.5541 152.911 18.5808C151.924 18.5941 150.518 18.6141 148.691 18.6408C147.971 18.6541 147.518 18.6474 147.331 18.6208C147.158 18.5941 146.998 18.5141 146.851 18.3808C146.651 18.1941 146.558 17.9608 146.571 17.6808C146.584 17.3874 146.691 17.1608 146.891 17.0008C146.918 16.9741 146.951 16.9408 146.991 16.9008C147.044 16.8608 147.071 16.8408 147.071 16.8408C147.178 16.7474 147.731 16.6941 148.731 16.6808C149.398 16.6808 149.798 16.6741 149.931 16.6608C150.078 16.6474 150.164 16.6008 150.191 16.5208C150.244 16.3874 150.271 15.4408 150.271 13.6808C150.271 12.9341 150.291 12.5208 150.331 12.4408C150.358 12.3608 150.371 12.3074 150.371 12.2808C150.384 12.2141 150.458 12.1341 150.591 12.0408C150.724 11.9341 150.858 11.8674 150.991 11.8408C151.124 11.8141 151.204 11.8008 151.231 11.8008ZM169.844 6.52078C170.017 6.49411 170.417 6.48078 171.044 6.48078C171.684 6.48078 172.03 6.49411 172.084 6.52078C172.124 6.54745 172.19 6.58078 172.284 6.62078C172.55 6.72745 172.71 6.94078 172.764 7.26078C172.817 7.56745 172.744 7.82745 172.544 8.04078C172.344 8.25411 172.024 8.39411 171.584 8.46078L171.364 8.48078V9.04078C171.364 9.88078 171.39 10.6608 171.444 11.3808C171.457 11.5941 171.49 11.7208 171.544 11.7608C171.61 11.7874 171.837 11.8074 172.224 11.8208C172.544 11.8341 172.75 11.8608 172.844 11.9008C172.937 11.9274 173.064 12.0208 173.224 12.1808C173.397 12.3541 173.47 12.5874 173.444 12.8808C173.417 13.1741 173.297 13.4008 173.084 13.5608C172.924 13.6808 172.77 13.7541 172.624 13.7808C172.49 13.7941 172.097 13.8074 171.444 13.8208C170.63 13.8341 170.204 13.8541 170.164 13.8808C170.097 13.9341 170.044 14.4408 170.004 15.4008C169.977 16.3608 169.99 16.8674 170.044 16.9208C170.137 17.0008 171.157 17.0008 173.104 16.9208C173.464 16.9074 173.697 16.9208 173.804 16.9608C173.91 16.9874 174.044 17.0808 174.204 17.2408C174.577 17.6141 174.597 18.0141 174.264 18.4408C174.104 18.6408 173.89 18.7674 173.624 18.8208C173.357 18.8741 172.697 18.9074 171.644 18.9208C170.524 18.9341 169.704 18.9541 169.184 18.9808C168.344 19.0208 167.324 19.0341 166.124 19.0208C164.937 19.0074 164.29 18.9808 164.184 18.9408C163.904 18.8208 163.71 18.6274 163.604 18.3608C163.497 18.0808 163.517 17.8274 163.664 17.6008C163.837 17.3474 164.024 17.1874 164.224 17.1208C164.424 17.0408 164.764 17.0141 165.244 17.0408C165.71 17.0541 166.264 17.0541 166.904 17.0408C167.544 17.0141 167.884 16.9874 167.924 16.9608C167.964 16.9341 167.984 16.8408 167.984 16.6808C167.997 16.5208 168.01 16.0274 168.024 15.2008C168.037 14.4141 168.024 14.0074 167.984 13.9808C167.957 13.9408 167.57 13.9141 166.824 13.9008C166.05 13.9008 165.557 13.8608 165.344 13.7808C165.13 13.7008 164.97 13.5141 164.864 13.2208C164.73 12.8608 164.764 12.5541 164.964 12.3008C165.177 12.0474 165.524 11.8808 166.004 11.8008C166.297 11.7608 166.45 11.7341 166.464 11.7208C166.49 11.7074 166.504 11.6208 166.504 11.4608C166.504 11.3008 166.49 11.1608 166.464 11.0408C166.424 10.8408 166.377 10.2808 166.324 9.36078C166.297 9.02745 166.27 8.84078 166.244 8.80078C166.23 8.76078 166.13 8.74078 165.944 8.74078C165.197 8.75411 164.757 8.48078 164.624 7.92078C164.584 7.73411 164.617 7.53411 164.724 7.32078C164.844 7.09411 165.017 6.94078 165.244 6.86078C165.47 6.78078 165.917 6.72745 166.584 6.70078C167.17 6.67411 167.517 6.65411 167.624 6.64078C167.744 6.61411 168.104 6.58745 168.704 6.56078C169.29 6.54745 169.67 6.53411 169.844 6.52078ZM169.304 8.64078C169.25 8.57411 169.097 8.54078 168.844 8.54078C168.59 8.54078 168.437 8.58078 168.384 8.66078C168.344 8.71411 168.33 9.06745 168.344 9.72078C168.37 10.3608 168.41 10.8941 168.464 11.3208C168.504 11.5608 168.544 11.7074 168.584 11.7608C168.637 11.8008 168.77 11.8208 168.984 11.8208C168.997 11.8208 169.024 11.8208 169.064 11.8208C169.277 11.8208 169.397 11.7808 169.424 11.7008C169.45 11.6208 169.45 11.3341 169.424 10.8408C169.424 10.7608 169.417 10.7008 169.404 10.6608C169.364 10.0074 169.344 9.51411 169.344 9.18078C169.344 8.87411 169.33 8.69411 169.304 8.64078ZM183.971 6.52078C184.065 6.46745 184.218 6.46745 184.431 6.52078C184.645 6.56078 184.805 6.62745 184.911 6.72078C185.058 6.85411 185.145 7.02745 185.171 7.24078C185.198 7.44078 185.211 7.99411 185.211 8.90078C185.225 10.3674 185.278 11.1408 185.371 11.2208C185.385 11.2341 185.798 11.2408 186.611 11.2408C187.278 11.2541 187.691 11.2741 187.851 11.3008C188.011 11.3141 188.165 11.3808 188.311 11.5008C188.445 11.6074 188.545 11.7808 188.611 12.0208C188.691 12.2474 188.691 12.4141 188.611 12.5208C188.571 12.5608 188.551 12.6008 188.551 12.6408C188.551 12.7074 188.505 12.7874 188.411 12.8808C188.331 12.9741 188.231 13.0541 188.111 13.1208C187.991 13.1874 187.865 13.2274 187.731 13.2408C187.611 13.2541 187.245 13.2608 186.631 13.2608C186.018 13.2608 185.651 13.2674 185.531 13.2808C185.425 13.2941 185.365 13.3208 185.351 13.3608C185.311 13.4141 185.298 14.0874 185.311 15.3808C185.311 17.2874 185.258 18.2941 185.151 18.4008C185.125 18.4274 185.111 18.4608 185.111 18.5008C185.111 18.5274 185.085 18.5874 185.031 18.6808C184.831 18.9608 184.571 19.1008 184.251 19.1008C183.931 19.1008 183.678 18.9608 183.491 18.6808L183.351 18.4608L183.331 13.8408C183.331 10.7741 183.318 8.99411 183.291 8.50078C183.278 7.84745 183.311 7.39411 183.391 7.14078C183.471 6.88745 183.665 6.68078 183.971 6.52078ZM175.811 8.24078C175.918 8.21411 176.551 8.20078 177.711 8.20078C178.751 8.20078 179.418 8.22078 179.711 8.26078C180.005 8.28745 180.225 8.37411 180.371 8.52078C180.638 8.78745 180.751 9.08745 180.711 9.42078C180.671 9.74078 180.471 10.2141 180.111 10.8408C180.098 10.8674 180.085 10.9074 180.071 10.9608C180.031 11.0274 179.985 11.1074 179.931 11.2008C179.665 11.6808 179.538 11.9541 179.551 12.0208C179.565 12.0474 179.638 12.1474 179.771 12.3208C179.905 12.4808 180.011 12.6008 180.091 12.6808C180.145 12.7474 180.245 12.8674 180.391 13.0408C180.551 13.2274 180.805 13.5008 181.151 13.8608C181.525 14.2341 181.738 14.5541 181.791 14.8208C181.845 15.0874 181.751 15.3341 181.511 15.5608C180.925 16.1208 180.165 15.8341 179.231 14.7008C178.791 14.1541 178.531 13.8741 178.451 13.8608C178.411 13.8608 178.371 13.9074 178.331 14.0008C178.265 14.1474 178.131 14.3408 177.931 14.5808C177.931 14.5808 177.891 14.6474 177.811 14.7808C177.691 14.9674 177.565 15.1474 177.431 15.3208C177.391 15.3741 177.325 15.4608 177.231 15.5808C177.045 15.8341 176.898 15.9608 176.791 15.9608C176.778 15.9608 176.765 15.9741 176.751 16.0008C176.711 16.1074 176.551 16.1408 176.271 16.1008C175.991 16.0474 175.785 15.9541 175.651 15.8208C175.505 15.6741 175.425 15.4808 175.411 15.2408C175.398 14.9874 175.458 14.7941 175.591 14.6608C175.618 14.6341 175.631 14.6074 175.631 14.5808C175.631 14.5541 175.665 14.4941 175.731 14.4008C175.785 14.3208 175.838 14.2474 175.891 14.1808C176.118 13.8074 176.311 13.4941 176.471 13.2408C176.511 13.1874 176.571 13.0941 176.651 12.9608C176.745 12.8141 176.805 12.7208 176.831 12.6808C176.925 12.5341 176.985 12.4341 177.011 12.3808C177.038 12.3674 177.131 12.2208 177.291 11.9408C177.465 11.6474 177.565 11.4808 177.591 11.4408C177.618 11.3874 177.651 11.3274 177.691 11.2608C177.745 11.1674 177.778 11.1074 177.791 11.0808C177.831 11.0008 177.905 10.8808 178.011 10.7208C178.158 10.4541 178.218 10.3074 178.191 10.2808C178.138 10.2274 177.738 10.1941 176.991 10.1808C176.218 10.1674 175.718 10.1274 175.491 10.0608C175.278 9.99411 175.098 9.82745 174.951 9.56078C174.845 9.34745 174.858 9.10078 174.991 8.82078C175.125 8.54078 175.305 8.36745 175.531 8.30078C175.558 8.30078 175.585 8.30078 175.611 8.30078C175.651 8.28745 175.691 8.27411 175.731 8.26078C175.771 8.24745 175.798 8.24078 175.811 8.24078ZM198.651 6.92078C198.798 6.81411 198.998 6.78745 199.251 6.84078C199.504 6.88078 199.684 6.97411 199.791 7.12078C199.911 7.28078 199.978 7.43411 199.991 7.58078C200.018 7.71411 200.038 8.16745 200.051 8.94078C200.078 10.7274 200.144 11.6674 200.251 11.7608C200.304 11.8008 200.558 11.8141 201.011 11.8008C201.704 11.7741 202.198 11.8074 202.491 11.9008C202.784 11.9808 202.998 12.1608 203.131 12.4408C203.224 12.6274 203.231 12.8541 203.151 13.1208C203.084 13.3741 202.964 13.5474 202.791 13.6408C202.604 13.7474 202.458 13.8074 202.351 13.8208C202.244 13.8341 201.911 13.8474 201.351 13.8608C200.644 13.8741 200.278 13.8874 200.251 13.9008C200.238 13.9274 200.231 14.5408 200.231 15.7408C200.244 16.6874 200.244 17.2808 200.231 17.5208C200.218 17.7474 200.164 17.9408 200.071 18.1008C199.951 18.3408 199.758 18.5074 199.491 18.6008C199.238 18.6808 199.011 18.6541 198.811 18.5208C198.798 18.5208 198.778 18.5141 198.751 18.5008C198.511 18.3541 198.371 18.1941 198.331 18.0208C198.291 17.8341 198.264 17.2941 198.251 16.4008C198.251 16.3074 198.251 16.2408 198.251 16.2008C198.211 12.9874 198.158 10.7074 198.091 9.36078C198.051 8.54745 198.064 7.98078 198.131 7.66078C198.211 7.34078 198.384 7.09411 198.651 6.92078ZM192.471 7.50078C192.778 7.38078 193.218 7.42078 193.791 7.62078C193.911 7.66078 193.998 7.68078 194.051 7.68078C194.144 7.70745 194.218 7.73411 194.271 7.76078C194.271 7.76078 194.291 7.77411 194.331 7.80078C194.371 7.81411 194.418 7.83411 194.471 7.86078C194.538 7.88745 194.598 7.91411 194.651 7.94078C194.944 8.08745 195.238 8.34745 195.531 8.72078C195.838 9.09411 195.991 9.40078 195.991 9.64078C195.991 9.68078 196.011 9.78078 196.051 9.94078C196.131 10.2741 196.138 10.6074 196.071 10.9408C196.044 11.0474 196.018 11.1674 195.991 11.3008C195.938 11.5541 195.811 11.8274 195.611 12.1208C195.411 12.4141 195.184 12.6541 194.931 12.8408C194.771 12.9741 194.664 13.0608 194.611 13.1008C194.558 13.1408 194.511 13.1608 194.471 13.1608C194.444 13.1608 194.404 13.1874 194.351 13.2408C194.311 13.2941 194.278 13.6941 194.251 14.4408C194.224 15.1741 194.231 15.5608 194.271 15.6008C194.311 15.6408 194.691 15.6608 195.411 15.6608C196.064 15.6608 196.484 15.6874 196.671 15.7408C196.858 15.7941 197.018 15.9474 197.151 16.2008C197.244 16.3874 197.231 16.6408 197.111 16.9608C196.991 17.2808 196.844 17.4408 196.671 17.4408C196.631 17.4408 196.611 17.4541 196.611 17.4808C196.611 17.6141 196.091 17.6541 195.051 17.6008C194.091 17.5608 193.164 17.5741 192.271 17.6408C191.884 17.6674 191.384 17.6808 190.771 17.6808C190.171 17.6674 189.831 17.6408 189.751 17.6008C189.391 17.4274 189.171 17.1941 189.091 16.9008C189.011 16.6074 189.091 16.3141 189.331 16.0208C189.464 15.8474 189.604 15.7474 189.751 15.7208C189.911 15.6808 190.331 15.6608 191.011 15.6608C191.624 15.6608 191.978 15.6541 192.071 15.6408C192.178 15.6274 192.238 15.5941 192.251 15.5408C192.278 15.4608 192.278 15.0874 192.251 14.4208C192.238 13.8474 192.218 13.5141 192.191 13.4208C192.164 13.3274 192.071 13.2741 191.911 13.2608C191.844 13.2608 191.764 13.2408 191.671 13.2008C191.578 13.1474 191.518 13.1208 191.491 13.1208C191.464 13.1208 191.391 13.0808 191.271 13.0008C191.164 12.9208 191.104 12.8808 191.091 12.8808C191.011 12.8808 190.864 12.7674 190.651 12.5408C190.438 12.3008 190.264 12.0741 190.131 11.8608C189.971 11.5808 189.878 11.2141 189.851 10.7608C189.824 10.2941 189.871 9.92745 189.991 9.66078C190.031 9.60745 190.071 9.52745 190.111 9.42078C190.258 9.10078 190.484 8.78078 190.791 8.46078C191.111 8.12745 191.404 7.90078 191.671 7.78078C191.978 7.63411 192.171 7.56078 192.251 7.56078C192.304 7.56078 192.378 7.54078 192.471 7.50078ZM193.791 9.70078C193.698 9.63411 193.531 9.59411 193.291 9.58078C193.064 9.55411 192.878 9.56078 192.731 9.60078C192.331 9.70745 192.058 9.94745 191.911 10.3208C191.778 10.6808 191.838 10.9808 192.091 11.2208C192.304 11.4208 192.611 11.5141 193.011 11.5008C193.411 11.4874 193.698 11.3741 193.871 11.1608C194.058 10.9341 194.144 10.6674 194.131 10.3608C194.118 10.0541 194.004 9.83411 193.791 9.70078ZM215.718 5.28078C215.745 5.25411 215.898 5.24745 216.178 5.26078C216.458 5.27411 216.645 5.29411 216.738 5.32078C217.085 5.44078 217.312 5.68078 217.418 6.04078C217.525 6.40078 217.465 6.72078 217.238 7.00078C217.225 7.01411 217.092 7.19411 216.838 7.54078C216.585 7.88745 216.458 8.10078 216.458 8.18078C216.472 8.23411 216.712 8.42078 217.178 8.74078C217.245 8.78078 217.298 8.82745 217.338 8.88078C217.392 8.92078 217.452 8.96078 217.518 9.00078C217.732 9.13411 217.952 9.30745 218.178 9.52078C218.405 9.73411 218.552 9.89411 218.618 10.0008C218.738 10.2541 218.745 10.5208 218.638 10.8008C218.532 11.0808 218.365 11.2474 218.138 11.3008C218.058 11.3141 218.012 11.3341 217.998 11.3608C217.985 11.3874 217.898 11.4008 217.738 11.4008C217.592 11.3874 217.498 11.3741 217.458 11.3608C217.392 11.3208 217.332 11.2941 217.278 11.2808C217.172 11.2274 216.925 11.0608 216.538 10.7808C215.592 10.0741 215.092 9.72078 215.038 9.72078C214.998 9.72078 214.665 10.0408 214.038 10.6808C213.412 11.3074 213.072 11.6341 213.018 11.6608C212.965 11.6741 212.918 11.6941 212.878 11.7208C212.852 11.7608 212.818 11.7808 212.778 11.7808C212.738 11.7808 212.685 11.8008 212.618 11.8408C212.472 11.9208 212.285 11.9274 212.058 11.8608C211.845 11.7941 211.672 11.6741 211.538 11.5008C211.458 11.4074 211.412 11.3408 211.398 11.3008C211.385 11.2474 211.378 11.1408 211.378 10.9808C211.378 10.7541 211.452 10.5408 211.598 10.3408C211.758 10.1274 212.192 9.66078 212.898 8.94078C213.592 8.22078 214.005 7.78745 214.138 7.64078C214.272 7.49411 214.325 7.39411 214.298 7.34078C214.285 7.30078 213.832 7.29411 212.938 7.32078C212.272 7.33411 211.872 7.34078 211.738 7.34078C211.605 7.32745 211.492 7.28745 211.398 7.22078C211.118 7.07411 210.938 6.87411 210.858 6.62078C210.792 6.36745 210.832 6.12745 210.978 5.90078C211.125 5.67411 211.352 5.52078 211.658 5.44078C211.832 5.40078 212.545 5.36745 213.798 5.34078C215.052 5.32745 215.692 5.30745 215.718 5.28078ZM218.798 12.9008C218.825 12.8874 218.878 12.8874 218.958 12.9008C219.052 12.9141 219.192 12.9274 219.378 12.9408C219.698 12.9674 219.938 13.1008 220.098 13.3408C220.272 13.5808 220.325 13.8408 220.258 14.1208C220.192 14.4008 220.018 14.6141 219.738 14.7608C219.552 14.8541 218.772 14.9141 217.398 14.9408C216.572 14.9541 216.145 14.9741 216.118 15.0008C216.105 15.0274 216.098 15.2608 216.098 15.7008C216.112 16.1408 216.132 16.4274 216.158 16.5608C216.198 16.7474 216.218 17.2941 216.218 18.2008C216.218 19.0941 216.192 19.5808 216.138 19.6608C216.098 19.7274 216.078 19.7741 216.078 19.8008C216.078 19.8408 216.032 19.9008 215.938 19.9808C215.845 20.0741 215.752 20.1408 215.658 20.1808C215.458 20.2874 215.225 20.2941 214.958 20.2008C214.692 20.1208 214.505 19.9741 214.398 19.7608C214.345 19.6408 214.298 19.5541 214.258 19.5008C214.232 19.4474 214.212 18.9008 214.198 17.8608C214.158 16.0341 214.112 15.1008 214.058 15.0608C214.018 15.0474 213.392 15.0474 212.178 15.0608C211.152 15.0608 210.552 15.0541 210.378 15.0408C210.205 15.0141 210.038 14.9274 209.878 14.7808C209.612 14.5274 209.532 14.2208 209.638 13.8608C209.745 13.5008 209.985 13.2741 210.358 13.1808C210.598 13.1274 211.672 13.0941 213.578 13.0808C214.165 13.0808 214.618 13.0674 214.938 13.0408C215.165 13.0141 215.865 12.9874 217.038 12.9608C218.198 12.9341 218.785 12.9141 218.798 12.9008ZM230.693 5.10078C230.933 5.07411 231.166 5.11411 231.393 5.22078C231.619 5.31411 231.733 5.42745 231.733 5.56078C231.733 5.57411 231.759 5.62745 231.813 5.72078C231.853 5.78745 231.879 6.48078 231.893 7.80078C231.906 9.10745 231.893 10.0674 231.853 10.6808C231.813 11.5074 231.786 12.0941 231.773 12.4408C231.746 13.1474 231.713 13.5808 231.673 13.7408C231.553 14.1674 231.293 14.4008 230.893 14.4408C230.506 14.4808 230.186 14.3074 229.933 13.9208C229.879 13.8141 229.853 13.5274 229.853 13.0608C229.853 12.5808 229.839 12.3341 229.813 12.3208C229.799 12.2941 229.353 12.2808 228.473 12.2808C227.806 12.2674 227.406 12.2608 227.273 12.2608C227.153 12.2474 227.033 12.2141 226.913 12.1608C226.686 12.0541 226.526 11.9341 226.433 11.8008C226.339 11.6674 226.293 11.4874 226.293 11.2608C226.293 10.5541 226.866 10.2474 228.013 10.3408C228.279 10.3674 228.606 10.3741 228.993 10.3608C229.393 10.3474 229.639 10.3274 229.733 10.3008C229.879 10.2474 229.933 10.0608 229.893 9.74078C229.879 9.74078 229.873 9.73411 229.873 9.72078C229.859 9.61411 229.799 9.54745 229.693 9.52078C229.586 9.49411 229.226 9.47411 228.613 9.46078C228.546 9.46078 228.493 9.45411 228.453 9.44078C227.786 9.42745 227.373 9.40745 227.213 9.38078C227.066 9.35411 226.926 9.28745 226.793 9.18078C226.486 8.94078 226.373 8.64078 226.453 8.28078C226.533 7.90745 226.773 7.65411 227.173 7.52078C227.306 7.48078 227.446 7.46078 227.593 7.46078C227.753 7.46078 228.299 7.48078 229.233 7.52078C229.593 7.53411 229.793 7.51411 229.833 7.46078C229.873 7.40745 229.893 7.16078 229.893 6.72078C229.893 6.17411 229.953 5.77411 230.073 5.52078C230.206 5.26745 230.413 5.12745 230.693 5.10078ZM221.433 5.48078C221.513 5.45411 221.626 5.46078 221.773 5.50078C221.933 5.52745 222.059 5.57411 222.153 5.64078C222.339 5.77411 222.466 5.94745 222.533 6.16078C222.599 6.36078 222.646 6.73411 222.673 7.28078C222.686 7.66745 222.713 7.88745 222.753 7.94078C222.806 7.98078 223.026 7.98745 223.413 7.96078C223.813 7.93411 224.026 7.92078 224.053 7.92078C224.146 7.92078 224.173 7.68745 224.133 7.22078C224.093 6.47411 224.253 5.97411 224.613 5.72078C224.826 5.57411 225.093 5.54745 225.413 5.64078C225.733 5.73411 225.926 5.89411 225.993 6.12078C226.006 6.17411 226.026 6.22745 226.053 6.28078C226.079 6.32078 226.093 6.79411 226.093 7.70078C226.106 8.60745 226.099 9.14745 226.073 9.32078C226.046 9.48078 226.013 9.80745 225.973 10.3008C225.906 11.1141 225.859 11.6341 225.833 11.8608C225.806 12.0741 225.746 12.2674 225.653 12.4408C225.586 12.6008 225.473 12.7541 225.313 12.9008C225.166 13.0474 225.053 13.1208 224.973 13.1208C224.946 13.1208 224.893 13.1408 224.813 13.1808C224.733 13.2208 224.319 13.2474 223.573 13.2608C222.826 13.2608 222.333 13.2408 222.093 13.2008C221.546 13.1074 221.186 12.8874 221.013 12.5408C220.906 12.3408 220.839 12.0341 220.813 11.6208C220.786 11.1941 220.746 10.0341 220.693 8.14078C220.679 7.68745 220.673 7.36078 220.673 7.16078C220.673 6.94745 220.679 6.72745 220.693 6.50078C220.706 6.26078 220.719 6.10745 220.733 6.04078C220.759 5.97411 220.806 5.89411 220.873 5.80078C220.953 5.70745 221.026 5.64745 221.093 5.62078C221.159 5.58078 221.273 5.53411 221.433 5.48078ZM223.993 10.0808C223.979 10.0274 223.939 10.0008 223.873 10.0008C223.806 9.98745 223.573 9.99411 223.173 10.0208C222.906 10.0474 222.753 10.0808 222.713 10.1208C222.686 10.1608 222.679 10.3274 222.693 10.6208C222.693 10.9408 222.713 11.1274 222.753 11.1808C222.806 11.2208 222.986 11.2408 223.293 11.2408C223.533 11.2408 223.686 11.2341 223.753 11.2208C223.819 11.1941 223.873 11.1341 223.913 11.0408C223.939 11.0008 223.959 10.8474 223.973 10.5808C223.999 10.3141 224.006 10.1474 223.993 10.0808ZM225.493 14.5608C225.933 14.5074 226.266 14.6541 226.493 15.0008C226.546 15.0808 226.573 15.1941 226.573 15.3408C226.586 15.4874 226.593 15.9541 226.593 16.7408C226.593 17.7808 226.606 18.3074 226.633 18.3208C226.646 18.3474 227.286 18.3608 228.553 18.3608C229.473 18.3741 230.019 18.3874 230.193 18.4008C230.379 18.4008 230.513 18.4208 230.593 18.4608C231.006 18.6741 231.186 18.9874 231.133 19.4008C231.079 19.8274 230.819 20.1274 230.353 20.3008C230.219 20.3408 229.506 20.3608 228.213 20.3608C226.919 20.3608 226.139 20.3341 225.873 20.2808C225.526 20.2274 225.266 20.1341 225.093 20.0008C224.919 19.8674 224.786 19.6674 224.693 19.4008C224.626 19.2008 224.606 18.4874 224.633 17.2608C224.659 16.0208 224.713 15.3141 224.793 15.1408C224.966 14.7941 225.199 14.6008 225.493 14.5608ZM245.691 7.14078C245.851 7.06078 246.051 7.04745 246.291 7.10078C246.531 7.14078 246.711 7.23411 246.831 7.38078C246.844 7.38078 246.857 7.39411 246.871 7.42078C246.991 7.55411 247.057 7.75411 247.071 8.02078C247.097 8.27411 247.111 9.11411 247.111 10.5408C247.111 10.7541 247.111 10.9208 247.111 11.0408C247.124 13.2141 247.144 14.4674 247.171 14.8008C247.197 15.3074 247.204 15.8874 247.191 16.5408C247.191 17.1808 247.171 17.5808 247.131 17.7408C247.051 18.0474 246.884 18.2674 246.631 18.4008C246.377 18.5341 246.117 18.5541 245.851 18.4608C245.584 18.3674 245.404 18.1741 245.311 17.8808C245.244 17.6674 245.191 15.9608 245.151 12.7608C245.111 9.56078 245.117 7.88078 245.171 7.72078C245.264 7.46745 245.437 7.27411 245.691 7.14078ZM242.591 8.00078C242.657 7.96078 242.757 7.96078 242.891 8.00078C242.984 8.02745 243.057 8.04745 243.111 8.06078C243.271 8.08745 243.417 8.21411 243.551 8.44078C243.657 8.60078 243.717 8.89411 243.731 9.32078C243.757 9.74745 243.771 10.9208 243.771 12.8408C243.771 14.5874 243.764 15.6208 243.751 15.9408C243.737 16.2474 243.704 16.4541 243.651 16.5608C243.437 17.0008 243.124 17.2008 242.711 17.1608C242.311 17.1208 242.031 16.8674 241.871 16.4008C241.817 16.2541 241.784 15.6741 241.771 14.6608C241.771 13.6474 241.751 13.1208 241.711 13.0808C241.657 13.0541 241.377 13.0408 240.871 13.0408C240.364 13.0408 240.097 13.0541 240.071 13.0808C240.044 13.1074 240.017 13.1608 239.991 13.2408C239.911 13.6274 239.704 14.0808 239.371 14.6008C239.291 14.7208 239.157 14.8741 238.971 15.0608C238.784 15.2474 238.637 15.3674 238.531 15.4208C238.531 15.4208 238.451 15.4608 238.291 15.5408C237.904 15.7541 237.444 15.8208 236.911 15.7408C236.351 15.6741 235.977 15.5608 235.791 15.4008C235.751 15.3608 235.717 15.3408 235.691 15.3408C235.651 15.3408 235.471 15.2008 235.151 14.9208C235.031 14.8008 234.897 14.6341 234.751 14.4208C234.604 14.2074 234.504 14.0341 234.451 13.9008C234.424 13.8208 234.397 13.7608 234.371 13.7208C234.211 13.3474 234.117 12.8874 234.091 12.3408C234.064 11.7941 234.117 11.3808 234.251 11.1008C234.291 11.0074 234.311 10.9408 234.311 10.9008C234.311 10.8474 234.324 10.8074 234.351 10.7808C234.377 10.7408 234.437 10.6408 234.531 10.4808C234.611 10.3208 234.677 10.2074 234.731 10.1408C234.771 10.1008 234.791 10.0674 234.791 10.0408C234.791 10.0141 234.804 9.98078 234.831 9.94078C234.857 9.91411 234.944 9.80745 235.091 9.62078C235.357 9.28745 235.784 8.98745 236.371 8.72078C236.437 8.69411 236.664 8.68078 237.051 8.68078C237.437 8.68078 237.644 8.69411 237.671 8.72078C237.711 8.74745 237.764 8.76745 237.831 8.78078C237.964 8.82078 238.191 8.94745 238.511 9.16078C238.844 9.37411 239.077 9.55411 239.211 9.70078C239.451 9.96745 239.644 10.3008 239.791 10.7008C239.884 10.9408 239.951 11.0741 239.991 11.1008C240.044 11.1141 240.237 11.1141 240.571 11.1008C240.944 11.0874 241.237 11.0808 241.451 11.0808C241.464 11.0808 241.484 11.0808 241.511 11.0808C241.684 11.0808 241.784 11.0408 241.811 10.9608C241.837 10.8674 241.837 10.5674 241.811 10.0608C241.811 9.99411 241.811 9.94745 241.811 9.92078C241.784 9.25411 241.797 8.84078 241.851 8.68078C241.891 8.54745 241.977 8.40745 242.111 8.26078C242.257 8.11411 242.371 8.04078 242.451 8.04078C242.504 8.04078 242.551 8.02745 242.591 8.00078ZM237.531 10.8808C237.104 10.6941 236.717 10.8074 236.371 11.2208C236.037 11.6208 235.924 12.1074 236.031 12.6808C236.097 13.0808 236.251 13.3874 236.491 13.6008C236.744 13.8008 237.011 13.8674 237.291 13.8008C237.571 13.7341 237.777 13.5341 237.911 13.2008C237.991 12.9874 238.031 12.8808 238.031 12.8808C238.191 12.4808 238.217 12.0808 238.111 11.6808C238.017 11.2674 237.824 11.0008 237.531 10.8808ZM258.619 4.08078C258.779 4.02745 258.953 4.02745 259.139 4.08078C259.406 4.14745 259.586 4.28078 259.679 4.48078C259.786 4.68078 259.853 5.00745 259.879 5.46078C259.893 5.79411 259.926 5.98078 259.979 6.02078C260.033 6.06078 260.266 6.07411 260.679 6.06078C261.199 6.04745 261.493 6.01411 261.559 5.96078C261.639 5.90745 261.673 5.70745 261.659 5.36078C261.659 4.93411 261.773 4.60745 261.999 4.38078C262.226 4.14078 262.486 4.08078 262.779 4.20078C262.833 4.22745 262.899 4.24745 262.979 4.26078C263.059 4.27411 263.153 4.34078 263.259 4.46078C263.366 4.58078 263.433 4.68078 263.459 4.76078C263.473 4.85411 263.493 4.92078 263.519 4.96078C263.559 4.98745 263.579 5.74078 263.579 7.22078C263.579 8.31411 263.573 8.96745 263.559 9.18078C263.546 9.38078 263.513 9.54745 263.459 9.68078C263.339 9.96078 263.206 10.1608 263.059 10.2808C262.913 10.3874 262.686 10.4608 262.379 10.5008C262.073 10.5274 261.526 10.5474 260.739 10.5608C259.873 10.5608 259.373 10.5541 259.239 10.5408C259.119 10.5274 258.933 10.4608 258.679 10.3408C258.453 10.2341 258.253 9.96745 258.079 9.54078C258.053 9.46078 258.026 9.26745 257.999 8.96078C257.973 8.50745 257.946 8.20078 257.919 8.04078C257.879 7.57411 257.866 6.94745 257.879 6.16078C257.893 5.37411 257.926 4.90745 257.979 4.76078C258.086 4.41411 258.299 4.18745 258.619 4.08078ZM261.559 8.00078H260.959C260.493 8.00078 260.186 8.02745 260.039 8.08078C259.906 8.12078 259.859 8.22078 259.899 8.38078C259.926 8.46078 259.986 8.50745 260.079 8.52078C260.173 8.53411 260.419 8.54078 260.819 8.54078C261.246 8.52745 261.493 8.50745 261.559 8.48078C261.639 8.44078 261.653 8.33411 261.599 8.16078L261.559 8.00078ZM260.619 11.4208C260.646 11.3941 261.273 11.3874 262.499 11.4008C263.726 11.4141 264.433 11.4341 264.619 11.4608C264.979 11.5008 265.246 11.6341 265.419 11.8608C265.593 12.0874 265.633 12.3408 265.539 12.6208C265.459 12.8874 265.266 13.1074 264.959 13.2808C264.866 13.3208 264.746 13.3474 264.599 13.3608C264.466 13.3608 264.039 13.3674 263.319 13.3808L261.859 13.4008L261.839 13.7408C261.839 13.7674 261.839 13.8074 261.839 13.8608C261.826 14.1008 261.853 14.2408 261.919 14.2808C261.986 14.3074 262.226 14.3208 262.639 14.3208C262.746 14.3208 262.826 14.3208 262.879 14.3208C263.386 14.3208 263.686 14.3274 263.779 14.3408C263.886 14.3541 263.986 14.3874 264.079 14.4408C264.186 14.5074 264.293 14.6008 264.399 14.7208C264.506 14.8408 264.559 14.9341 264.559 15.0008C264.559 15.0408 264.573 15.0674 264.599 15.0808C264.706 15.1474 264.686 15.3341 264.539 15.6408C264.393 15.9341 264.253 16.0808 264.119 16.0808C264.079 16.0808 264.059 16.0941 264.059 16.1208C264.033 16.2008 263.466 16.2474 262.359 16.2608C260.173 16.2874 259.026 16.3408 258.919 16.4208C258.853 16.4608 258.819 16.5408 258.819 16.6608C258.819 16.7674 258.846 16.8341 258.899 16.8608C258.953 16.8874 259.693 16.9008 261.119 16.9008C262.186 16.9008 262.819 16.9074 263.019 16.9208C263.219 16.9208 263.366 16.9474 263.459 17.0008C263.779 17.1741 263.946 17.4341 263.959 17.7808C263.973 18.1274 263.826 18.4141 263.519 18.6408C263.359 18.7474 263.166 18.8074 262.939 18.8208C262.726 18.8474 262.066 18.8674 260.959 18.8808L258.919 18.9208L258.899 19.0408C258.873 19.1341 258.866 19.2208 258.879 19.3008C258.906 19.3941 258.946 19.4474 258.999 19.4608C259.053 19.4741 259.819 19.4808 261.299 19.4808C262.513 19.4808 263.219 19.4874 263.419 19.5008C263.619 19.5274 263.786 19.6074 263.919 19.7408C264.213 20.0341 264.286 20.3541 264.139 20.7008C264.006 21.0608 263.713 21.2941 263.259 21.4008C263.086 21.4408 262.219 21.4608 260.659 21.4608C259.099 21.4608 258.239 21.4408 258.079 21.4008C257.626 21.2808 257.326 21.0808 257.179 20.8008C257.033 20.5341 256.946 19.9941 256.919 19.1808C256.839 17.5274 256.799 16.5874 256.799 16.3608C256.799 16.1341 256.813 15.9541 256.839 15.8208C256.893 15.6608 256.919 15.5541 256.919 15.5008C256.919 15.4341 256.959 15.3274 257.039 15.1808C257.119 15.0341 257.206 14.9208 257.299 14.8408C257.459 14.6941 257.646 14.5941 257.859 14.5408C258.086 14.4741 258.433 14.4341 258.899 14.4208C259.393 14.4208 259.673 14.4008 259.739 14.3608C259.819 14.3208 259.853 14.1741 259.839 13.9208C259.839 13.6541 259.826 13.5141 259.799 13.5008C259.759 13.4741 259.013 13.4874 257.559 13.5408C256.813 13.5674 256.373 13.5608 256.239 13.5208C255.773 13.3874 255.499 13.1208 255.419 12.7208C255.339 12.3074 255.493 11.9741 255.879 11.7208C255.959 11.6674 256.059 11.6341 256.179 11.6208C256.299 11.6074 256.673 11.5941 257.299 11.5808C257.966 11.5674 258.679 11.5408 259.439 11.5008C260.199 11.4608 260.593 11.4341 260.619 11.4208ZM270.625 4.86078C270.772 4.84745 270.978 4.84745 271.245 4.86078C271.512 4.87411 271.692 4.89411 271.785 4.92078C271.905 4.97411 272.038 5.01411 272.185 5.04078C273.118 5.29411 273.772 5.74078 274.145 6.38078C274.358 6.74078 274.472 7.16078 274.485 7.64078C274.512 8.10745 274.445 8.54745 274.285 8.96078C274.058 9.50745 273.738 9.94078 273.325 10.2608C273.232 10.3408 273.085 10.4341 272.885 10.5408C272.698 10.6474 272.585 10.7008 272.545 10.7008C272.505 10.7008 272.452 10.7141 272.385 10.7408C272.305 10.7808 272.245 10.8008 272.205 10.8008C272.165 10.8008 272.092 10.8208 271.985 10.8608C271.905 10.9008 271.672 10.9208 271.285 10.9208C270.898 10.9208 270.638 10.9074 270.505 10.8808C270.358 10.8541 270.245 10.8274 270.165 10.8008C270.032 10.7874 269.952 10.7608 269.925 10.7208C269.898 10.7074 269.865 10.7008 269.825 10.7008C269.785 10.7008 269.672 10.6541 269.485 10.5608C269.298 10.4541 269.145 10.3674 269.025 10.3008C268.852 10.1808 268.652 10.0008 268.425 9.76078C268.212 9.50745 268.085 9.30745 268.045 9.16078C268.032 9.09411 268.012 9.04745 267.985 9.02078C267.932 8.95411 267.885 8.76745 267.845 8.46078C267.805 8.15411 267.798 7.92078 267.825 7.76078C267.892 7.37411 267.945 7.14078 267.985 7.06078C267.998 7.03411 268.038 6.94745 268.105 6.80078C268.305 6.34745 268.632 5.94078 269.085 5.58078C269.218 5.47411 269.418 5.34745 269.685 5.20078C269.952 5.05411 270.112 4.98078 270.165 4.98078C270.205 4.98078 270.265 4.96078 270.345 4.92078C270.425 4.89411 270.518 4.87411 270.625 4.86078ZM271.625 6.98078C271.158 6.91411 270.792 6.94078 270.525 7.06078C270.272 7.16745 270.065 7.38745 269.905 7.72078C269.678 8.20078 269.818 8.56745 270.325 8.82078C270.485 8.90078 270.738 8.94078 271.085 8.94078C271.432 8.94078 271.705 8.90078 271.905 8.82078C272.038 8.75411 272.138 8.68078 272.205 8.60078C272.285 8.50745 272.392 8.32745 272.525 8.06078C272.632 7.83411 272.592 7.61411 272.405 7.40078C272.232 7.17411 271.972 7.03411 271.625 6.98078ZM272.865 12.0208C273.532 11.9808 274.178 11.9674 274.805 11.9808C275.445 11.9941 275.805 12.0208 275.885 12.0608C276.245 12.2474 276.432 12.5208 276.445 12.8808C276.458 13.2408 276.292 13.5341 275.945 13.7608C275.812 13.8541 275.505 13.9141 275.025 13.9408C274.558 13.9541 273.132 13.9808 270.745 14.0208C268.812 14.0474 267.738 14.0674 267.525 14.0808C267.138 14.0941 266.865 14.0741 266.705 14.0208C266.545 13.9674 266.385 13.8541 266.225 13.6808C265.998 13.4408 265.925 13.1674 266.005 12.8608C266.098 12.5408 266.305 12.3074 266.625 12.1608C266.718 12.1208 267.692 12.0941 269.545 12.0808C271.305 12.0674 272.412 12.0474 272.865 12.0208ZM267.925 15.0608C268.098 15.0208 268.285 15.0274 268.485 15.0808C268.685 15.1208 268.832 15.2008 268.925 15.3208C269.058 15.4674 269.132 15.6141 269.145 15.7608C269.172 15.8941 269.185 16.3541 269.185 17.1408C269.198 18.0874 269.212 18.5741 269.225 18.6008C269.252 18.6274 270.085 18.6341 271.725 18.6208C272.952 18.6208 273.672 18.6274 273.885 18.6408C274.112 18.6408 274.278 18.6674 274.385 18.7208C274.652 18.8408 274.818 19.0341 274.885 19.3008C274.965 19.5674 274.925 19.8208 274.765 20.0608C274.618 20.3008 274.392 20.4541 274.085 20.5208C273.965 20.5474 273.032 20.5741 271.285 20.6008C269.552 20.6408 268.598 20.6541 268.425 20.6408C267.732 20.5474 267.345 20.1074 267.265 19.3208C267.238 19.0541 267.218 18.4274 267.205 17.4408C267.205 16.4408 267.218 15.9274 267.245 15.9008C267.272 15.8874 267.292 15.8341 267.305 15.7408C267.318 15.6341 267.345 15.5674 267.385 15.5408C267.425 15.5008 267.445 15.4674 267.445 15.4408C267.445 15.4008 267.512 15.3341 267.645 15.2408C267.778 15.1341 267.872 15.0741 267.925 15.0608ZM292.241 6.80078C292.334 6.74745 292.454 6.72078 292.601 6.72078C292.747 6.70745 292.861 6.72078 292.941 6.76078C293.021 6.80078 293.074 6.82078 293.101 6.82078C293.207 6.82078 293.314 6.92078 293.421 7.12078C293.527 7.30745 293.594 7.52078 293.621 7.76078C293.661 8.00078 293.687 9.54745 293.701 12.4008C293.714 15.2408 293.707 16.7808 293.681 17.0208C293.641 17.3408 293.614 17.5741 293.601 17.7208C293.561 18.1341 293.447 18.4341 293.261 18.6208C292.927 18.9808 292.554 19.0408 292.141 18.8008C291.727 18.5474 291.561 18.1608 291.641 17.6408C291.667 17.3608 291.694 16.6608 291.721 15.5408C291.747 14.4074 291.754 13.4208 291.741 12.5808C291.687 9.20745 291.701 7.43411 291.781 7.26078C291.901 7.04745 292.054 6.89411 292.241 6.80078ZM285.501 8.60078C285.594 8.56078 285.761 8.54078 286.001 8.54078C286.241 8.54078 286.427 8.56078 286.561 8.60078C287.307 8.82745 287.861 9.10078 288.221 9.42078C288.581 9.72745 288.874 10.1874 289.101 10.8008C289.274 11.4008 289.314 12.0208 289.221 12.6608C289.141 13.3008 288.927 13.9008 288.581 14.4608C288.234 15.0074 287.834 15.3741 287.381 15.5608C287.367 15.5608 287.341 15.5741 287.301 15.6008C287.261 15.6141 287.227 15.6274 287.201 15.6408C286.787 15.8141 286.321 15.8741 285.801 15.8208C285.294 15.7541 284.834 15.5874 284.421 15.3208C284.194 15.1608 283.967 14.9541 283.741 14.7008C283.514 14.4474 283.354 14.2208 283.261 14.0208C283.247 14.0074 283.234 13.9874 283.221 13.9608C283.207 13.9208 283.187 13.8808 283.161 13.8408C283.147 13.7874 283.134 13.7408 283.121 13.7008C283.041 13.5408 283.001 13.4408 283.001 13.4008C283.001 13.3474 282.987 13.2808 282.961 13.2008C282.881 12.9874 282.841 12.6741 282.841 12.2608C282.841 11.8341 282.881 11.5074 282.961 11.2808C283.334 10.2408 283.874 9.48745 284.581 9.02078C284.821 8.86078 284.961 8.78078 285.001 8.78078C285.041 8.78078 285.081 8.76078 285.121 8.72078C285.174 8.68078 285.227 8.66078 285.281 8.66078C285.347 8.66078 285.421 8.64078 285.501 8.60078ZM286.741 10.7608C286.461 10.6141 286.174 10.5941 285.881 10.7008C285.587 10.8074 285.347 10.9874 285.161 11.2408C284.987 11.4941 284.867 11.7941 284.801 12.1408C284.734 12.4741 284.787 12.8074 284.961 13.1408C285.134 13.4874 285.421 13.7008 285.821 13.7808C286.234 13.8608 286.561 13.7674 286.801 13.5008C287.027 13.2474 287.187 12.8741 287.281 12.3808C287.374 11.8874 287.354 11.5141 287.221 11.2608C287.101 11.0341 286.941 10.8674 286.741 10.7608ZM300.087 4.28078C300.447 4.22745 301.08 4.22745 301.987 4.28078C302.907 4.33411 303.46 4.40745 303.647 4.50078C303.914 4.62078 304.087 4.79411 304.167 5.02078C304.26 5.24745 304.307 5.63411 304.307 6.18078C304.307 7.36745 304.234 8.22745 304.087 8.76078C303.954 9.28078 303.707 9.59411 303.347 9.70078C303.294 9.71411 303.247 9.73411 303.207 9.76078C303.154 9.80078 302.547 9.81411 301.387 9.80078C300.24 9.78745 299.6 9.76078 299.467 9.72078C298.987 9.58745 298.68 9.37411 298.547 9.08078C298.414 8.78745 298.32 8.14078 298.267 7.14078C298.24 6.44745 298.24 5.97411 298.267 5.72078C298.294 5.46745 298.36 5.23411 298.467 5.02078C298.494 4.99411 298.52 4.94745 298.547 4.88078C298.6 4.76078 298.72 4.65411 298.907 4.56078C299.107 4.45411 299.334 4.38745 299.587 4.36078C299.814 4.33411 299.98 4.30745 300.087 4.28078ZM302.327 6.30078C302.287 6.26078 301.947 6.24078 301.307 6.24078C300.667 6.24078 300.327 6.26078 300.287 6.30078C300.26 6.34078 300.247 6.54078 300.247 6.90078C300.247 7.24745 300.267 7.49411 300.307 7.64078C300.32 7.70745 300.38 7.74745 300.487 7.76078C300.607 7.77411 300.9 7.78078 301.367 7.78078C301.887 7.78078 302.174 7.75411 302.227 7.70078C302.294 7.64745 302.334 7.40078 302.347 6.96078C302.36 6.53411 302.354 6.31411 302.327 6.30078ZM301.007 10.9808C301.234 10.9541 302.034 10.9474 303.407 10.9608C304.78 10.9608 305.514 10.9674 305.607 10.9808C305.874 11.0341 306.087 11.1808 306.247 11.4208C306.407 11.6474 306.447 11.8741 306.367 12.1008C306.247 12.4474 306.054 12.6674 305.787 12.7608C305.52 12.8408 304.914 12.8808 303.967 12.8808C303.874 12.8808 303.74 12.8808 303.567 12.8808C302.967 12.8808 302.62 12.9074 302.527 12.9608C302.434 13.0008 302.414 13.1608 302.467 13.4408C302.48 13.5208 302.487 13.5808 302.487 13.6208L302.507 13.8008L303.487 13.8208C304.14 13.8341 304.527 13.8674 304.647 13.9208C304.74 13.9608 304.84 14.0341 304.947 14.1408C305.054 14.2474 305.107 14.3274 305.107 14.3808C305.107 14.4208 305.12 14.4408 305.147 14.4408C305.24 14.4408 305.287 14.8674 305.287 15.7208C305.3 16.5741 305.254 17.0474 305.147 17.1408C305.12 17.1808 305.107 17.2208 305.107 17.2608C305.107 17.3941 304.994 17.5674 304.767 17.7808C304.567 17.9808 304.3 18.1208 303.967 18.2008C303.647 18.2808 303.074 18.3474 302.247 18.4008C301.794 18.4408 301.42 18.4741 301.127 18.5008C300.887 18.5274 300.62 18.5408 300.327 18.5408C299.927 18.5408 299.68 18.5808 299.587 18.6608C299.507 18.7408 299.5 18.9274 299.567 19.2208C299.58 19.3008 299.734 19.3474 300.027 19.3608C300.32 19.3874 301.2 19.4141 302.667 19.4408C303.76 19.4541 304.4 19.4741 304.587 19.5008C304.787 19.5274 304.954 19.6274 305.087 19.8008C305.394 20.1741 305.407 20.5474 305.127 20.9208C305.087 20.9741 305.014 21.0408 304.907 21.1208C304.814 21.2008 304.754 21.2408 304.727 21.2408C304.7 21.2408 304.647 21.2608 304.567 21.3008C304.407 21.3808 303.434 21.4208 301.647 21.4208C299.86 21.4208 298.874 21.3808 298.687 21.3008C298.247 21.1008 297.96 20.8608 297.827 20.5808C297.707 20.3141 297.607 19.7141 297.527 18.7808C297.474 18.0874 297.514 17.6674 297.647 17.5208C297.674 17.4808 297.687 17.4408 297.687 17.4008C297.687 17.3608 297.76 17.2674 297.907 17.1208C298.04 16.9874 298.18 16.9008 298.327 16.8608C298.474 16.8074 298.7 16.7674 299.007 16.7408C299.34 16.7141 299.614 16.6941 299.827 16.6808C300.08 16.6541 300.367 16.6408 300.687 16.6408C301.034 16.6274 301.247 16.6074 301.327 16.5808C301.434 16.5541 301.694 16.5341 302.107 16.5208C302.854 16.4674 303.254 16.4208 303.307 16.3808C303.347 16.3408 303.36 16.2408 303.347 16.0808C303.347 15.9208 303.334 15.8274 303.307 15.8008C303.267 15.7608 302.867 15.7408 302.107 15.7408C301.347 15.7274 300.86 15.7341 300.647 15.7608C300.367 15.8141 299.867 15.8341 299.147 15.8208C298.427 15.8074 298.02 15.7808 297.927 15.7408C297.62 15.5941 297.434 15.3674 297.367 15.0608C297.314 14.7541 297.4 14.4808 297.627 14.2408C297.747 14.1074 297.867 14.0274 297.987 14.0008C298.12 13.9741 298.454 13.9474 298.987 13.9208C299.88 13.8941 300.374 13.8541 300.467 13.8008C300.534 13.7474 300.527 13.5541 300.447 13.2208C300.447 13.2208 300.447 13.2074 300.447 13.1808C300.42 13.0741 300.34 13.0141 300.207 13.0008C300.087 12.9874 299.654 12.9941 298.907 13.0208C298.774 13.0341 298.667 13.0408 298.587 13.0408C297.734 13.0674 297.187 13.0741 296.947 13.0608C296.72 13.0341 296.527 12.9674 296.367 12.8608C296.1 12.7008 295.947 12.4874 295.907 12.2208C295.88 11.9408 295.967 11.6941 296.167 11.4808C296.3 11.3208 296.46 11.2274 296.647 11.2008C296.834 11.1608 297.34 11.1341 298.167 11.1208C299.047 11.1074 299.694 11.0808 300.107 11.0408C300.227 11.0408 300.4 11.0341 300.627 11.0208C300.854 10.9941 300.98 10.9808 301.007 10.9808ZM315.665 4.68078C315.839 4.58745 316.045 4.56745 316.285 4.62078C316.539 4.67411 316.719 4.78078 316.825 4.94078C316.919 5.08745 316.979 5.23411 317.005 5.38078C317.032 5.52745 317.052 5.86078 317.065 6.38078C317.092 7.03411 317.119 7.51411 317.145 7.82078C317.185 8.28745 317.199 9.04745 317.185 10.1008C317.185 11.1408 317.159 11.7074 317.105 11.8008C316.985 12.0674 316.785 12.2408 316.505 12.3208C316.239 12.4008 315.979 12.3674 315.725 12.2208C315.485 12.0741 315.332 11.8474 315.265 11.5408C315.252 11.4341 315.232 10.4074 315.205 8.46078C315.179 6.50078 315.172 5.46078 315.185 5.34078C315.199 5.23411 315.252 5.11411 315.345 4.98078C315.452 4.83411 315.559 4.73411 315.665 4.68078ZM311.225 5.30078C311.999 5.19411 312.539 5.32078 312.845 5.68078C313.045 5.90745 313.119 6.14745 313.065 6.40078C313.025 6.65411 312.852 6.99411 312.545 7.42078C312.465 7.52745 312.359 7.67411 312.225 7.86078C312.145 7.99411 312.019 8.16745 311.845 8.38078C311.659 8.63411 311.565 8.78078 311.565 8.82078C311.565 8.86078 311.705 9.02078 311.985 9.30078C312.279 9.58078 312.485 9.76078 312.605 9.84078C313.019 10.1341 313.285 10.4074 313.405 10.6608C313.525 10.9008 313.512 11.1608 313.365 11.4408C313.232 11.7074 313.012 11.8674 312.705 11.9208C312.399 11.9741 312.099 11.9008 311.805 11.7008C311.605 11.5674 311.305 11.3141 310.905 10.9408C310.599 10.6474 310.399 10.4808 310.305 10.4408C310.212 10.3874 310.125 10.4074 310.045 10.5008C309.992 10.5674 309.945 10.6274 309.905 10.6808C309.892 10.6941 309.859 10.7341 309.805 10.8008C309.752 10.8541 309.679 10.9341 309.585 11.0408C309.492 11.1474 309.412 11.2474 309.345 11.3408C308.785 11.9941 308.405 12.3541 308.205 12.4208C308.099 12.4608 307.979 12.4874 307.845 12.5008C307.725 12.5008 307.659 12.4874 307.645 12.4608C307.632 12.4341 307.585 12.4074 307.505 12.3808C307.385 12.3674 307.265 12.2674 307.145 12.0808C307.025 11.8941 306.959 11.7274 306.945 11.5808C306.945 11.3808 307.125 11.0274 307.485 10.5208C307.845 10.0141 308.312 9.46745 308.885 8.88078C308.952 8.81411 309.092 8.66078 309.305 8.42078C309.359 8.35411 309.432 8.26745 309.525 8.16078C309.632 8.04078 309.699 7.96745 309.725 7.94078C309.979 7.66078 310.072 7.49411 310.005 7.44078C309.925 7.38745 309.425 7.38078 308.505 7.42078C307.919 7.44745 307.519 7.41411 307.305 7.32078C307.065 7.18745 306.905 6.98745 306.825 6.72078C306.759 6.44078 306.805 6.18745 306.965 5.96078C307.112 5.74745 307.285 5.61411 307.485 5.56078C307.685 5.50745 308.159 5.47411 308.905 5.46078C309.945 5.43411 310.719 5.38078 311.225 5.30078ZM312.625 13.2008C314.412 13.1741 315.312 13.1608 315.325 13.1608C315.365 13.1608 315.485 13.1741 315.685 13.2008C316.165 13.2408 316.479 13.4874 316.625 13.9408C316.665 14.0741 316.692 14.5808 316.705 15.4608C316.719 16.3274 316.705 16.7808 316.665 16.8208C316.625 16.8741 316.599 16.9274 316.585 16.9808C316.519 17.1674 316.359 17.3474 316.105 17.5208C315.905 17.6408 315.692 17.7208 315.465 17.7608C315.239 17.7874 314.645 17.8274 313.685 17.8808C313.125 17.9074 312.739 17.9341 312.525 17.9608C312.325 17.9874 312.079 18.0008 311.785 18.0008C311.412 18.0008 311.212 18.0408 311.185 18.1208C311.172 18.1741 311.172 18.2941 311.185 18.4808C311.212 18.6541 311.239 18.7608 311.265 18.8008C311.345 18.8674 312.459 18.9074 314.605 18.9208C315.272 18.9208 315.699 18.9274 315.885 18.9408C316.085 18.9674 316.239 19.0208 316.345 19.1008C316.652 19.3408 316.779 19.6274 316.725 19.9608C316.685 20.2941 316.485 20.5474 316.125 20.7208C315.979 20.7874 315.812 20.8208 315.625 20.8208C315.452 20.8341 314.892 20.8408 313.945 20.8408C313.319 20.8274 312.832 20.8208 312.485 20.8208C312.139 20.8208 311.772 20.8008 311.385 20.7608C310.999 20.7341 310.719 20.7074 310.545 20.6808C310.372 20.6541 310.185 20.6008 309.985 20.5208C309.799 20.4408 309.672 20.3608 309.605 20.2808C309.552 20.2141 309.492 20.1008 309.425 19.9408C309.359 19.7808 309.319 19.6274 309.305 19.4808C309.292 19.3341 309.279 19.1274 309.265 18.8608C309.239 18.4341 309.212 18.0808 309.185 17.8008C309.145 17.2274 309.292 16.7808 309.625 16.4608C309.772 16.3274 309.979 16.2408 310.245 16.2008C310.512 16.1474 311.092 16.0941 311.985 16.0408C312.505 16.0141 312.885 15.9874 313.125 15.9608C313.445 15.9341 313.792 15.9141 314.165 15.9008C314.525 15.9008 314.745 15.8608 314.825 15.7808C314.905 15.7008 314.912 15.5274 314.845 15.2608L314.805 15.1008H312.425C311.252 15.1141 310.552 15.1208 310.325 15.1208C310.112 15.1074 309.959 15.0808 309.865 15.0408C309.492 14.8674 309.299 14.5874 309.285 14.2008C309.285 13.8008 309.465 13.4941 309.825 13.2808C309.905 13.2408 310.839 13.2141 312.625 13.2008ZM323.904 4.36078C324.077 4.33411 324.297 4.33411 324.564 4.36078C324.844 4.37411 325.03 4.39411 325.124 4.42078C325.217 4.44745 325.317 4.47411 325.424 4.50078C325.917 4.59411 326.357 4.76745 326.744 5.02078C327.13 5.27411 327.41 5.57411 327.584 5.92078C327.677 6.12078 327.724 6.23411 327.724 6.26078C327.724 6.30078 327.744 6.38745 327.784 6.52078C327.837 6.66745 327.857 6.89411 327.844 7.20078C327.83 7.50745 327.784 7.76078 327.704 7.96078C327.424 8.73411 326.95 9.28078 326.284 9.60078C325.964 9.76078 325.777 9.84078 325.724 9.84078C325.684 9.84078 325.63 9.85411 325.564 9.88078C325.484 9.92078 325.397 9.94078 325.304 9.94078C325.21 9.94078 325.09 9.96078 324.944 10.0008C324.624 10.0674 324.164 10.0208 323.564 9.86078C322.964 9.68745 322.524 9.48078 322.244 9.24078C321.75 8.82745 321.47 8.46078 321.404 8.14078C321.39 8.06078 321.37 8.00078 321.344 7.96078C321.317 7.92078 321.304 7.70745 321.304 7.32078C321.304 6.93411 321.317 6.72745 321.344 6.70078C321.384 6.67411 321.404 6.62745 321.404 6.56078C321.404 6.50745 321.43 6.43411 321.484 6.34078C321.524 6.24745 321.55 6.18745 321.564 6.16078C321.564 5.94745 321.824 5.61411 322.344 5.16078C322.877 4.70745 323.264 4.48078 323.504 4.48078C323.557 4.48078 323.597 4.46078 323.624 4.42078C323.65 4.39411 323.744 4.37411 323.904 4.36078ZM325.204 6.46078C325.017 6.42078 324.764 6.40078 324.444 6.40078C324.124 6.40078 323.917 6.42745 323.824 6.48078C323.61 6.58745 323.45 6.75411 323.344 6.98078C323.25 7.19411 323.237 7.39411 323.304 7.58078C323.41 7.84745 323.75 8.00745 324.324 8.06078C324.91 8.10078 325.33 8.00078 325.584 7.76078C325.864 7.49411 325.964 7.24078 325.884 7.00078C325.817 6.74745 325.59 6.56745 325.204 6.46078ZM327.244 10.7608C328.27 10.7208 328.897 10.7541 329.124 10.8608C329.217 10.9141 329.31 10.9874 329.404 11.0808C329.51 11.1741 329.564 11.2474 329.564 11.3008C329.564 11.3274 329.577 11.3474 329.604 11.3608C329.724 11.4008 329.75 11.5608 329.684 11.8408C329.617 12.1208 329.51 12.3141 329.364 12.4208C329.19 12.5408 329.044 12.6141 328.924 12.6408C328.804 12.6541 328.43 12.6608 327.804 12.6608C327.044 12.6741 326.524 12.6941 326.244 12.7208C325.99 12.7474 325.517 12.7608 324.824 12.7608C324.17 12.7608 323.457 12.7808 322.684 12.8208C321.63 12.8741 320.904 12.8874 320.504 12.8608C320.117 12.8208 319.844 12.7208 319.684 12.5608C319.457 12.3474 319.357 12.0941 319.384 11.8008C319.424 11.5074 319.577 11.2741 319.844 11.1008C319.937 11.0341 320.144 10.9941 320.464 10.9808C320.784 10.9674 322.03 10.9341 324.204 10.8808C325.457 10.8674 326.157 10.8474 326.304 10.8208C326.424 10.8074 326.737 10.7874 327.244 10.7608ZM325.024 13.5808C326.21 13.5674 326.964 13.5674 327.284 13.5808C327.604 13.5808 327.817 13.6074 327.924 13.6608C328.204 13.7941 328.39 14.0341 328.484 14.3808C328.537 14.5674 328.55 15.0208 328.524 15.7408C328.497 16.4474 328.45 16.8608 328.384 16.9808C328.37 17.0074 328.33 17.0874 328.264 17.2208C328.17 17.4341 327.977 17.6274 327.684 17.8008C327.404 17.9608 327.13 18.0408 326.864 18.0408C326.744 18.0408 326.644 18.0541 326.564 18.0808C326.457 18.1074 326.277 18.1341 326.024 18.1608C325.77 18.1741 325.51 18.1941 325.244 18.2208C324.857 18.2608 324.197 18.3141 323.264 18.3808L322.904 18.4008V18.7608C322.904 18.7874 322.904 18.8208 322.904 18.8608C322.904 19.0341 322.984 19.1341 323.144 19.1608C323.304 19.2008 323.884 19.2141 324.884 19.2008C325.15 19.2008 325.357 19.2008 325.504 19.2008C326.717 19.2008 327.437 19.2008 327.664 19.2008C327.89 19.2141 328.044 19.2408 328.124 19.2808C328.364 19.4008 328.524 19.5741 328.604 19.8008C328.684 20.0274 328.664 20.2541 328.544 20.4808C328.384 20.8008 328.104 20.9874 327.704 21.0408C327.304 21.1074 326.064 21.1541 323.984 21.1808C323.184 21.1941 322.657 21.1808 322.404 21.1408C322.15 21.1141 321.897 21.0408 321.644 20.9208C321.297 20.7474 321.077 20.3141 320.984 19.6208C320.944 19.2341 320.917 18.7674 320.904 18.2208C320.904 17.6608 320.93 17.3541 320.984 17.3008C321.024 17.2474 321.044 17.2074 321.044 17.1808C321.044 17.1274 321.104 17.0408 321.224 16.9208C321.357 16.7874 321.477 16.6941 321.584 16.6408C321.717 16.5741 321.997 16.5274 322.424 16.5008C322.85 16.4874 323.17 16.4674 323.384 16.4408C323.637 16.4141 323.904 16.4008 324.184 16.4008C324.504 16.4008 324.777 16.3808 325.004 16.3408C325.23 16.3008 325.437 16.2808 325.624 16.2808C325.81 16.2808 326.004 16.2608 326.204 16.2208C326.417 16.1808 326.53 16.1608 326.544 16.1608C326.597 16.1608 326.63 16.0741 326.644 15.9008C326.67 15.7274 326.657 15.6074 326.604 15.5408C326.577 15.4874 326.284 15.4608 325.724 15.4608C325.177 15.4474 324.617 15.4608 324.044 15.5008C322.364 15.6074 321.417 15.5674 321.204 15.3808C321.164 15.3541 321.13 15.3408 321.104 15.3408C321.01 15.3408 320.904 15.1874 320.784 14.8808C320.664 14.5741 320.644 14.3941 320.724 14.3408C320.75 14.3274 320.777 14.2808 320.804 14.2008C320.817 14.1208 320.877 14.0274 320.984 13.9208C321.13 13.7741 321.304 13.6808 321.504 13.6408C321.704 13.6008 322.064 13.5941 322.584 13.6208C322.797 13.6208 323.61 13.6074 325.024 13.5808ZM345.762 5.10078C346.056 5.03411 346.316 5.06745 346.542 5.20078C346.782 5.33411 346.942 5.54078 347.022 5.82078C347.129 6.18078 347.129 7.17411 347.022 8.80078C346.982 9.45411 346.956 9.98078 346.942 10.3808C346.916 11.0208 346.889 11.5208 346.862 11.8808C346.862 12.0008 346.849 12.2141 346.822 12.5208C346.809 12.8274 346.802 13.0274 346.802 13.1208C346.762 13.6141 346.689 13.9541 346.582 14.1408C346.489 14.3141 346.302 14.4341 346.022 14.5008C345.622 14.5941 345.282 14.4341 345.002 14.0208C344.909 13.8874 344.856 13.7408 344.842 13.5808C344.829 13.4074 344.842 13.0608 344.882 12.5408C344.949 11.4341 344.956 10.8608 344.902 10.8208C344.849 10.7808 344.529 10.7608 343.942 10.7608C343.342 10.7608 342.922 10.7341 342.682 10.6808C342.456 10.6141 342.282 10.4874 342.162 10.3008C341.989 10.0208 341.936 9.74745 342.002 9.48078C342.082 9.20078 342.256 8.99411 342.522 8.86078C342.629 8.82078 342.736 8.79411 342.842 8.78078C342.962 8.76745 343.309 8.76078 343.882 8.76078H345.022L345.062 8.62078C345.089 8.54078 345.102 8.04078 345.102 7.12078C345.102 6.44078 345.102 6.03411 345.102 5.90078C345.116 5.76745 345.149 5.65411 345.202 5.56078C345.362 5.29411 345.549 5.14078 345.762 5.10078ZM340.102 5.96078C340.769 5.93411 341.222 5.94078 341.462 5.98078C341.716 6.02078 341.916 6.12745 342.062 6.30078C342.289 6.55411 342.362 6.84745 342.282 7.18078C342.216 7.51411 342.036 7.74745 341.742 7.88078C341.609 7.93411 341.169 7.96745 340.422 7.98078C339.662 7.99411 339.276 8.00745 339.262 8.02078C339.222 8.03411 339.042 8.05411 338.722 8.08078C338.429 8.09411 338.256 8.12078 338.202 8.16078C338.149 8.20078 338.122 8.30078 338.122 8.46078C338.122 8.47411 338.122 8.49411 338.122 8.52078C338.122 8.65411 338.162 8.73411 338.242 8.76078C338.336 8.78745 338.662 8.79411 339.222 8.78078C339.329 8.78078 339.416 8.78078 339.482 8.78078C340.256 8.78078 340.722 8.80078 340.882 8.84078C341.042 8.88078 341.216 9.02078 341.402 9.26078C341.482 9.38078 341.522 9.55411 341.522 9.78078C341.522 10.0074 341.469 10.1941 341.362 10.3408C341.296 10.4474 341.182 10.5541 341.022 10.6608C340.862 10.7541 340.742 10.8008 340.662 10.8008C340.622 10.8008 340.589 10.8141 340.562 10.8408C340.536 10.8674 340.129 10.8874 339.342 10.9008C339.276 10.9008 339.189 10.9008 339.082 10.9008C338.549 10.9008 338.236 10.9208 338.142 10.9608C338.062 10.9874 338.029 11.0941 338.042 11.2808C338.042 11.3208 338.042 11.3474 338.042 11.3608C338.042 11.3874 338.049 11.4141 338.062 11.4408C338.062 11.6141 338.109 11.7141 338.202 11.7408C338.296 11.7674 338.622 11.7741 339.182 11.7608C339.276 11.7608 339.342 11.7608 339.382 11.7608C340.249 11.7341 340.776 11.7274 340.962 11.7408C341.149 11.7408 341.289 11.7741 341.382 11.8408C341.582 11.9608 341.709 12.0741 341.762 12.1808C341.816 12.2874 341.842 12.4408 341.842 12.6408C341.842 13.0808 341.696 13.3808 341.402 13.5408C341.162 13.6608 340.962 13.7274 340.802 13.7408C340.656 13.7541 340.082 13.7608 339.082 13.7608C338.109 13.7608 337.529 13.7541 337.342 13.7408C337.156 13.7274 336.982 13.6741 336.822 13.5808C336.796 13.5541 336.749 13.5274 336.682 13.5008C336.362 13.3674 336.176 12.9608 336.122 12.2808C336.096 11.8941 336.096 11.0741 336.122 9.82078C336.162 8.56745 336.209 7.79411 336.262 7.50078C336.329 7.08745 336.476 6.78078 336.702 6.58078C336.942 6.36745 337.282 6.24078 337.722 6.20078C337.949 6.17411 338.416 6.12078 339.122 6.04078C339.389 6.00078 339.716 5.97411 340.102 5.96078ZM340.562 14.8808C340.722 14.7874 340.916 14.7674 341.142 14.8208C341.382 14.8608 341.562 14.9474 341.682 15.0808C341.789 15.2008 341.849 15.3608 341.862 15.5608C341.876 15.7474 341.869 16.2808 341.842 17.1608C341.829 17.8141 341.829 18.1741 341.842 18.2408C341.869 18.3341 342.849 18.4074 344.782 18.4608C345.409 18.4741 345.776 18.5074 345.882 18.5608C346.162 18.7208 346.322 18.9541 346.362 19.2608C346.416 19.5674 346.329 19.8408 346.102 20.0808C345.942 20.2674 345.742 20.3741 345.502 20.4008C345.276 20.4408 344.776 20.4474 344.002 20.4208C343.522 20.4074 342.896 20.3874 342.122 20.3608C341.429 20.3341 340.929 20.2608 340.622 20.1408C340.316 20.0208 340.089 19.8074 339.942 19.5008C339.836 19.2741 339.816 18.6008 339.882 17.4808C339.896 17.3208 339.916 16.9408 339.942 16.3408C339.956 15.9008 340.009 15.5741 340.102 15.3608C340.196 15.1474 340.349 14.9874 340.562 14.8808ZM358.025 6.46078C358.159 6.43411 358.312 6.45411 358.485 6.52078C358.659 6.57411 358.799 6.65411 358.905 6.76078C359.052 6.90745 359.139 7.07411 359.165 7.26078C359.205 7.43411 359.232 7.90078 359.245 8.66078C359.259 10.3274 359.292 11.1808 359.345 11.2208C359.359 11.2341 359.565 11.2541 359.965 11.2808C360.365 11.3074 360.725 11.3208 361.045 11.3208C361.632 11.3074 362.019 11.3474 362.205 11.4408C362.539 11.6141 362.712 11.8674 362.725 12.2008C362.739 12.5341 362.592 12.8208 362.285 13.0608C362.152 13.1674 362.005 13.2408 361.845 13.2808C361.699 13.3074 361.445 13.3208 361.085 13.3208C359.939 13.3341 359.339 13.3874 359.285 13.4808C359.259 13.5341 359.245 14.2474 359.245 15.6208C359.259 17.3808 359.219 18.3474 359.125 18.5208C359.085 18.6008 359.065 18.6541 359.065 18.6808C359.065 18.7074 359.019 18.7674 358.925 18.8608C358.672 19.1274 358.372 19.2341 358.025 19.1808C357.692 19.1274 357.452 18.9341 357.305 18.6008C357.265 18.4941 357.259 16.5474 357.285 12.7608L357.325 7.08078L357.465 6.86078C357.612 6.64745 357.799 6.51411 358.025 6.46078ZM353.105 8.52078C353.945 8.48078 354.439 8.48078 354.585 8.52078C354.892 8.61411 355.105 8.80078 355.225 9.08078C355.345 9.34745 355.332 9.61411 355.185 9.88078C354.972 10.2408 354.532 10.4208 353.865 10.4208C353.532 10.4208 353.219 10.4341 352.925 10.4608C352.579 10.4874 352.305 10.5074 352.105 10.5208C352.065 10.5208 352.005 10.5208 351.925 10.5208C351.712 10.5341 351.585 10.5674 351.545 10.6208C351.505 10.6741 351.485 10.8674 351.485 11.2008C351.485 11.3208 351.479 11.4141 351.465 11.4808C351.452 12.1074 351.432 12.5874 351.405 12.9208C351.325 13.9341 351.292 14.4608 351.305 14.5008C351.345 14.5674 351.992 14.6074 353.245 14.6208C354.072 14.6208 354.565 14.6341 354.725 14.6608C354.885 14.6741 355.025 14.7208 355.145 14.8008C355.492 15.0274 355.612 15.3274 355.505 15.7008C355.412 16.0741 355.145 16.3341 354.705 16.4808C354.452 16.5608 353.699 16.6074 352.445 16.6208C351.205 16.6208 350.452 16.5741 350.185 16.4808C349.892 16.3874 349.679 16.2474 349.545 16.0608C349.412 15.8608 349.332 15.5874 349.305 15.2408C349.292 15.0408 349.299 14.7274 349.325 14.3008C349.352 13.8608 349.385 13.5474 349.425 13.3608C349.452 13.2008 349.465 12.6141 349.465 11.6008C349.479 10.5874 349.512 9.98078 349.565 9.78078C349.725 9.08745 350.219 8.71411 351.045 8.66078C351.365 8.63411 351.639 8.60745 351.865 8.58078C352.212 8.55411 352.625 8.53411 353.105 8.52078ZM363.754 17.2208C364.1 17.0474 364.42 17.0274 364.714 17.1608C364.954 17.2674 365.074 17.3608 365.074 17.4408C365.074 17.4674 365.094 17.5074 365.134 17.5608C365.2 17.6274 365.227 17.7674 365.214 17.9808C365.214 18.1941 365.18 18.3608 365.114 18.4808C365.034 18.6274 364.987 18.7208 364.974 18.7608C364.92 18.8941 364.74 18.9941 364.434 19.0608C364.127 19.1408 363.9 19.1408 363.754 19.0608C363.647 19.0074 363.587 18.9808 363.574 18.9808C363.534 18.9808 363.474 18.9408 363.394 18.8608C363.327 18.7808 363.274 18.6941 363.234 18.6008C363.074 18.3074 363.074 18.0208 363.234 17.7408C363.327 17.5674 363.4 17.4541 363.454 17.4008C363.507 17.3474 363.607 17.2874 363.754 17.2208Z" fill="black"/>
</svg>
