<svg width="26" height="26" viewBox="0 0 26 26" fill="none" xmlns="http://www.w3.org/2000/svg">
<rect x="0.5" y="0.844482" width="25" height="25" rx="12.5" fill="#5062AB"/>
<path d="M11.6147 5.88448C11.6947 5.87115 12.1614 5.88448 13.0147 5.92448C13.868 5.95115 14.3614 5.97781 14.4947 6.00448C14.628 6.04448 14.7547 6.06448 14.8747 6.06448C15.088 6.06448 15.2947 6.18448 15.4947 6.42448C15.708 6.65115 15.8147 6.88448 15.8147 7.12448C15.8147 7.41782 15.688 7.67782 15.4347 7.90448C15.1947 8.11782 14.9347 8.20448 14.6547 8.16448C14.4814 8.13782 14.1014 8.12448 13.5147 8.12448C12.968 8.11115 12.648 8.11782 12.5547 8.14448C12.4614 8.15782 12.428 8.23782 12.4547 8.38448C12.4547 8.49115 12.4347 8.68448 12.3947 8.96448C12.3547 9.25782 12.3347 9.57782 12.3347 9.92448C12.3347 10.2711 12.3547 10.4711 12.3947 10.5245C12.448 10.5778 12.6214 10.6045 12.9147 10.6045C13.448 10.6045 13.848 10.6845 14.1147 10.8445C14.1814 10.8978 14.268 10.9378 14.3747 10.9645C14.6014 11.0311 14.9214 11.2578 15.3347 11.6445C15.748 12.0178 16.048 12.3578 16.2347 12.6645C16.2614 12.7045 16.308 12.7845 16.3747 12.9045C16.4414 13.0245 16.4747 13.1045 16.4747 13.1445C16.4747 13.1711 16.5214 13.2711 16.6147 13.4445C16.7214 13.6845 16.768 14.1445 16.7547 14.8245C16.7547 15.5045 16.6947 15.9578 16.5747 16.1845C16.508 16.3045 16.4747 16.3778 16.4747 16.4045C16.4747 16.4445 16.428 16.5511 16.3347 16.7245C16.2414 16.8978 16.168 17.0245 16.1147 17.1045C16.048 17.1845 16.008 17.2511 15.9947 17.3045C15.968 17.3978 15.7814 17.6045 15.4347 17.9245C15.088 18.2445 14.8814 18.4045 14.8147 18.4045C14.8014 18.4045 14.748 18.4445 14.6547 18.5245C14.508 18.6311 14.2147 18.7645 13.7747 18.9245C12.3614 19.4445 11.1147 19.1045 10.0347 17.9045C9.66135 17.5045 9.42135 17.0978 9.31469 16.6845C9.20802 16.2711 9.23469 15.9245 9.39469 15.6445C9.55469 15.3645 9.83469 15.2111 10.2347 15.1845C10.3547 15.1711 10.4947 15.1978 10.6547 15.2645C10.828 15.3311 10.9414 15.4111 10.9947 15.5045C11.008 15.5178 11.028 15.5511 11.0547 15.6045C11.0947 15.6578 11.128 15.6978 11.1547 15.7245C11.2214 15.8178 11.2814 15.9245 11.3347 16.0445C11.4014 16.1778 11.4614 16.2711 11.5147 16.3245C11.568 16.3778 11.5947 16.4178 11.5947 16.4445C11.5947 16.4711 11.6614 16.5378 11.7947 16.6445C11.9414 16.7378 12.0947 16.8245 12.2547 16.9045C12.4547 16.9978 12.6947 17.0045 12.9747 16.9245C13.308 16.8178 13.6214 16.6445 13.9147 16.4045C14.208 16.1511 14.3814 15.9111 14.4347 15.6845C14.448 15.6178 14.4947 15.5111 14.5747 15.3645C14.7747 14.9911 14.768 14.5645 14.5547 14.0845C14.3414 13.5911 14.0014 13.2178 13.5347 12.9645L13.1747 12.7645L12.0947 12.7845C11.428 12.7845 10.9947 12.7511 10.7947 12.6845C10.5947 12.6045 10.4147 12.3911 10.2547 12.0445C10.188 11.8978 10.148 11.4778 10.1347 10.7845C10.1214 10.0778 10.148 9.61115 10.2147 9.38448C10.2547 9.23782 10.2814 8.88448 10.2947 8.32448C10.308 7.77782 10.3414 7.41782 10.3947 7.24448C10.448 7.01782 10.4814 6.87115 10.4947 6.80448C10.588 6.39115 10.8547 6.11782 11.2947 5.98448C11.4814 5.93115 11.588 5.89782 11.6147 5.88448Z" fill="white"/>
</svg>
