<svg width="128" height="92" viewBox="0 0 128 92" fill="none" xmlns="http://www.w3.org/2000/svg">
<g clip-path="url(#clip0_691_920)">
<path d="M61.9751 91.624C50.3151 91.344 40.2251 85.554 30.4451 78.974C30.1651 78.784 29.9351 78.544 29.6851 78.324C18.8551 68.724 13.5051 46.104 18.9151 32.734C19.7251 30.724 20.6451 28.754 21.4551 26.744C30.9651 3.30396 60.2751 -6.07604 81.4951 4.45396C94.0351 10.674 103.405 19.374 107.835 32.414C119.285 66.124 93.6951 93.734 61.9751 91.624Z" fill="white"/>
<path d="M62.845 77.0237H62.955C64.275 77.1337 65.575 77.1837 66.825 77.1837C84.285 77.1837 94.675 67.5437 96.095 50.0537C97.385 34.0837 88.385 21.7037 71.385 16.1037C68.415 15.1237 65.205 14.6237 61.855 14.6237C52.075 14.6237 42.525 18.9637 38.085 25.4237C28.715 39.0837 28.245 54.9137 36.895 65.7437C37.845 66.9437 39.005 67.9937 40.155 68.7137C47.065 73.0337 54.505 77.0337 62.145 77.0337C62.335 77.0337 62.535 77.0337 62.725 77.0337H62.835L62.845 77.0237ZM66.825 81.5237C65.495 81.5237 64.125 81.4737 62.735 81.3637C62.545 81.3637 62.345 81.3637 62.155 81.3637C53.425 81.3637 45.325 77.0437 37.865 72.3837C36.285 71.3937 34.775 70.0337 33.505 68.4437C28.665 62.3837 26.225 54.8437 26.435 46.6337C26.645 38.5337 29.435 30.3437 34.505 22.9537C39.795 15.2437 50.525 10.2637 61.855 10.2637C65.675 10.2637 69.345 10.8337 72.755 11.9537C82.155 15.0537 89.375 20.0137 94.195 26.6737C98.985 33.3037 101.145 41.4937 100.425 50.3837C99.635 60.1637 96.275 67.8637 90.455 73.2937C84.595 78.7437 76.645 81.5137 66.835 81.5137" fill="#B8B949"/>
<path d="M127.765 19.9742C127.485 22.3342 126.505 24.9642 124.545 26.9942C121.225 30.4242 116.405 30.1042 113.415 26.2542C110.065 21.9342 109.645 15.0142 113.075 10.2142C116.575 5.33417 122.485 5.53417 125.755 10.6142C127.305 13.0242 128.105 16.4242 127.765 19.9742Z" fill="#D9D9D9"/>
<path d="M121.395 66.6033C120.735 71.1333 119.525 72.9733 118.525 70.7133C117.675 68.7933 117.325 65.3033 117.195 61.2633C117.025 55.8933 117.365 54.8133 117.525 49.4833C117.745 42.5033 117.725 31.3133 118.285 24.7133C118.385 23.5633 118.385 21.7033 119.495 21.8133C120.595 21.9233 120.695 26.5933 120.815 28.3533C121.485 37.6333 120.975 48.3133 121.195 59.3333C121.275 61.5133 121.815 63.6233 121.385 66.5933" fill="#D9D9D9"/>
<path d="M122.725 82.524C121.605 85.774 119.525 87.094 117.805 85.474C116.345 84.094 115.755 81.594 115.535 78.694C115.235 74.844 115.365 71.024 115.655 67.194C116.025 62.184 116.145 57.224 117.105 52.494C117.275 51.664 117.575 50.314 119.465 50.394C121.355 50.474 121.725 53.794 121.945 55.054C123.095 61.714 123.255 68.634 123.645 76.534C123.785 78.104 123.455 80.394 122.715 82.524" fill="#FAC78A"/>
<path d="M118.045 78.7436C118.335 78.0136 119.145 77.6136 119.845 77.8636C120.515 78.1036 120.925 78.9636 120.705 79.6736C120.495 80.3636 119.645 80.7636 118.905 80.5136C118.155 80.2636 117.765 79.4536 118.045 78.7436Z" fill="#EDAD6E"/>
<path d="M118.045 56.9546C118.335 56.2246 119.145 55.8246 119.845 56.0746C120.515 56.3146 120.925 57.1746 120.705 57.8846C120.495 58.5746 119.645 58.9646 118.905 58.7146C118.155 58.4646 117.765 57.6546 118.045 56.9446" fill="#EDAD6E"/>
<path d="M9.49502 66.6033C8.83502 71.1333 7.62502 72.9733 6.62502 70.7133C5.77502 68.7933 5.42502 65.3033 5.29502 61.2633C5.11502 55.8933 5.45502 54.8133 5.62502 49.4833C5.84502 42.5033 5.82502 31.3133 6.38502 24.7133C6.48502 23.5633 6.48502 21.7033 7.59502 21.8133C8.69502 21.9233 8.79502 26.5933 8.91502 28.3533C9.58502 37.6333 9.07502 48.3133 9.29502 59.3333C9.37502 61.5133 9.91502 63.6233 9.48502 66.5933" fill="#D9D9D9"/>
<path d="M10.825 82.524C9.705 85.774 7.625 87.094 5.915 85.474C4.455 84.094 3.865 81.594 3.645 78.694C3.345 74.844 3.475 71.024 3.765 67.194C4.135 62.184 4.255 57.224 5.215 52.494C5.385 51.664 5.685 50.314 7.575 50.394C9.465 50.474 9.835 53.794 10.055 55.054C11.205 61.714 11.365 68.634 11.755 76.534C11.895 78.104 11.565 80.394 10.825 82.524Z" fill="#FAC78A"/>
<path d="M6.14502 78.7436C6.43502 78.0136 7.24502 77.6136 7.94502 77.8636C8.61502 78.1036 9.02502 78.9636 8.80502 79.6736C8.59502 80.3636 7.74502 80.7636 7.00502 80.5136C6.25502 80.2636 5.86502 79.4536 6.14502 78.7436Z" fill="#EDAD6E"/>
<path d="M6.14502 56.9546C6.43502 56.2246 7.24502 55.8246 7.94502 56.0746C8.61502 56.3146 9.02502 57.1746 8.80502 57.8846C8.59502 58.5746 7.74502 58.9646 7.00502 58.7146C6.25502 58.4646 5.86502 57.6546 6.14502 56.9446" fill="#EDAD6E"/>
<path d="M14.525 18.9838C14.525 18.0438 14.425 17.1038 14.285 16.1638C14.015 14.3238 13.715 12.4938 13.105 10.7638C12.995 10.4638 12.915 10.1438 12.715 9.90384C12.485 9.63384 12.215 9.46384 11.885 9.59384C11.525 9.74384 11.215 9.98384 11.035 10.4138C10.845 10.8438 10.705 11.3038 10.585 11.7638C10.075 13.8138 9.88502 15.9138 9.75502 18.2338C9.71502 17.5438 9.63502 16.8438 9.53502 16.1538C9.26502 14.3138 8.96502 12.4838 8.35502 10.7538C8.24502 10.4538 8.16502 10.1338 7.96502 9.89384C7.73502 9.62384 7.46502 9.45384 7.13502 9.58384C6.77502 9.73384 6.46502 9.97384 6.28502 10.4038C6.09502 10.8338 5.95502 11.2938 5.83502 11.7538C5.32502 13.8038 5.13502 15.9038 5.00502 18.2238C4.96502 17.5338 4.88502 16.8338 4.78502 16.1438C4.51502 14.3038 4.21502 12.4738 3.60502 10.7438C3.49502 10.4438 3.40502 10.1238 3.20502 9.88384C2.97502 9.61384 2.70502 9.44384 2.37502 9.57384C2.01502 9.72384 1.70502 9.96384 1.52502 10.3938C1.33502 10.8238 1.19502 11.2838 1.07502 11.7438C0.465015 14.2338 0.315015 16.7738 0.165015 19.6838C0.145015 19.8438 0.155015 20.0238 0.175015 20.2138C0.155015 21.4638 0.455015 22.8638 0.655015 23.6938C1.05502 25.3438 2.04502 26.8038 3.46502 28.0338C4.29502 28.7538 5.00502 29.5638 5.98502 30.1638C7.49502 31.0938 8.90502 31.0238 10.135 29.8738C11.425 28.6638 12.515 27.3438 13.385 25.8938C13.805 25.1938 14.135 24.4638 14.315 23.6938C14.525 22.8038 14.665 20.8738 14.535 18.9838" fill="#D9D9D9"/>
<path d="M63.117 28.4021C64.1596 28.1261 65.2483 28.1721 66.383 28.5401C66.843 28.6934 67.4103 28.9847 68.085 29.4141C68.7596 29.8127 69.2043 30.1194 69.419 30.3341C70.339 31.3767 70.845 32.4041 70.937 33.4161C70.9676 33.8454 71.0443 34.1521 71.167 34.3361C71.2896 34.5507 71.351 34.8574 71.351 35.2561C71.351 35.6241 71.2896 35.9307 71.167 36.1761C71.0443 36.4214 70.9523 36.7587 70.891 37.1881C70.8296 37.6174 70.615 38.1234 70.247 38.7061C69.9096 39.2887 69.741 39.6107 69.741 39.6721C69.741 39.7027 69.557 39.9174 69.189 40.3161C68.821 40.7147 68.6676 41.0061 68.729 41.1901C68.7903 41.3434 69.1736 41.7881 69.879 42.5241C71.075 43.7201 71.7956 44.6094 72.041 45.1921C72.1636 45.4374 72.2863 45.6367 72.409 45.7901C72.5316 45.9434 72.639 46.2807 72.731 46.8021C72.823 47.3541 72.915 47.7221 73.007 47.9061C73.1296 48.1514 73.1756 48.6574 73.145 49.4241C73.145 50.1907 73.0683 50.7121 72.915 50.9881C72.7923 51.2641 72.7003 51.6167 72.639 52.0461C72.6083 52.4754 72.5163 52.8281 72.363 53.1041C72.2096 53.3187 72.087 53.5334 71.995 53.7481C71.9336 53.9627 71.8263 54.1621 71.673 54.3461C71.5196 54.5607 71.443 54.6987 71.443 54.7601C71.443 54.9747 71.0443 55.4194 70.247 56.0941C69.4496 56.7687 68.729 57.2594 68.085 57.5661C67.0423 58.0874 66.1836 58.4247 65.509 58.5781C64.865 58.7621 63.9756 58.8694 62.841 58.9001C61.737 58.9001 60.955 58.8541 60.495 58.7621C60.035 58.6701 59.3756 58.4094 58.517 57.9801C56.8916 57.1827 55.8336 55.9101 55.343 54.1621C54.9136 52.5674 55.1436 51.4174 56.033 50.7121C56.4316 50.4361 56.9223 50.2981 57.505 50.2981C58.0876 50.2981 58.6396 50.5281 59.161 50.9881C59.6823 51.4481 60.0043 51.9847 60.127 52.5981C60.2803 53.2727 61.1696 53.6101 62.795 53.6101C65.003 53.6101 66.4596 53.0274 67.165 51.8621C67.2263 51.7394 67.349 51.5554 67.533 51.3101C67.625 51.1567 67.7476 50.8194 67.901 50.2981C68.085 49.5621 68.0543 48.8874 67.809 48.2741C67.5636 47.6301 67.0423 46.9094 66.245 46.1121C65.5396 45.4067 64.9876 44.9927 64.589 44.8701C64.221 44.7167 63.5003 44.6401 62.427 44.6401C61.415 44.6401 60.7096 44.5787 60.311 44.4561C59.9123 44.3334 59.5443 44.0881 59.207 43.7201C58.5323 43.0147 58.333 42.1561 58.609 41.1441C58.885 40.1321 59.483 39.5341 60.403 39.3501C61.323 39.1661 62.3503 38.7521 63.485 38.1081C64.6503 37.4641 65.417 36.8661 65.785 36.3141C66.2756 35.5474 66.2143 34.8267 65.601 34.1521C64.9876 33.4467 64.267 33.3087 63.439 33.7381C63.1936 33.8607 63.025 33.9221 62.933 33.9221C62.8103 33.9221 62.4883 34.2134 61.967 34.7961C61.507 35.2867 61.1696 35.5781 60.955 35.6701C60.7403 35.7621 60.3263 35.8081 59.713 35.8081C58.701 35.8081 57.9956 35.3021 57.597 34.2901C57.229 33.2474 57.3823 32.2507 58.057 31.3001C58.609 30.4721 59.069 29.9661 59.437 29.7821C59.621 29.6901 59.7896 29.5981 59.943 29.5061C60.5563 29.1074 61.2923 28.8161 62.151 28.6321C62.4883 28.5707 62.8103 28.4941 63.117 28.4021Z" fill="#B8B949"/>
</g>
<defs>
<clipPath id="clip0_691_920">
<rect width="127.69" height="91.57" fill="white" transform="translate(0.155029 0.164062)"/>
</clipPath>
</defs>
</svg>
