<svg width="25" height="26" viewBox="0 0 25 26" fill="none" xmlns="http://www.w3.org/2000/svg">
<rect y="0.84375" width="25" height="25" rx="12.5" fill="#F68044"/>
<path d="M12.0105 5.96375C12.4905 5.76375 12.9238 5.85042 13.3105 6.22375C13.4438 6.35708 13.5171 6.52375 13.5305 6.72375C13.5571 6.92375 13.5638 7.58375 13.5505 8.70375C13.5505 10.6771 13.5505 12.6037 13.5505 14.4837C13.5638 16.4971 13.5571 17.6771 13.5305 18.0237C13.5171 18.3571 13.4638 18.5704 13.3705 18.6637C13.3038 18.7304 13.2571 18.7837 13.2305 18.8237C13.2038 18.8504 13.1105 18.9171 12.9505 19.0238C12.6305 19.2104 12.3105 19.2171 11.9905 19.0438C11.6705 18.8838 11.4905 18.6171 11.4505 18.2437C11.4371 18.0437 11.4305 16.0504 11.4305 12.2637V6.56375L11.6105 6.30375C11.7305 6.14375 11.8638 6.03042 12.0105 5.96375Z" fill="white"/>
</svg>
