<svg width="26" height="26" viewBox="0 0 26 26" fill="none" xmlns="http://www.w3.org/2000/svg">
<rect x="0.5" y="0.844482" width="25" height="25" rx="12.5" fill="#05C1EB"/>
<path d="M12.5487 5.90448C13.002 5.78448 13.4753 5.80448 13.9687 5.96448C14.1687 6.03115 14.4153 6.15781 14.7087 6.34448C15.002 6.51782 15.1953 6.65115 15.2887 6.74448C15.6887 7.19782 15.9087 7.64448 15.9487 8.08448C15.962 8.27115 15.9953 8.40448 16.0487 8.48448C16.102 8.57782 16.1287 8.71115 16.1287 8.88448C16.1287 9.04448 16.102 9.17782 16.0487 9.28448C15.9953 9.39115 15.9553 9.53782 15.9287 9.72448C15.902 9.91115 15.8087 10.1311 15.6487 10.3845C15.502 10.6378 15.4287 10.7778 15.4287 10.8045C15.4287 10.8178 15.3487 10.9111 15.1887 11.0845C15.0287 11.2578 14.962 11.3845 14.9887 11.4645C15.0153 11.5311 15.182 11.7245 15.4887 12.0445C16.0087 12.5645 16.322 12.9511 16.4287 13.2045C16.482 13.3111 16.5353 13.3978 16.5887 13.4645C16.642 13.5311 16.6887 13.6778 16.7287 13.9045C16.7687 14.1445 16.8087 14.3045 16.8487 14.3845C16.902 14.4911 16.922 14.7111 16.9087 15.0445C16.9087 15.3778 16.8753 15.6045 16.8087 15.7245C16.7553 15.8445 16.7153 15.9978 16.6887 16.1845C16.6753 16.3711 16.6353 16.5245 16.5687 16.6445C16.502 16.7378 16.4487 16.8311 16.4087 16.9245C16.382 17.0178 16.3353 17.1045 16.2687 17.1845C16.202 17.2778 16.1687 17.3378 16.1687 17.3645C16.1687 17.4578 15.9953 17.6511 15.6487 17.9445C15.302 18.2378 14.9887 18.4511 14.7087 18.5845C14.2553 18.8111 13.882 18.9578 13.5887 19.0245C13.3087 19.1045 12.922 19.1511 12.4287 19.1645C11.9487 19.1645 11.6087 19.1445 11.4087 19.1045C11.2087 19.0645 10.922 18.9511 10.5487 18.7645C9.84201 18.4178 9.38201 17.8645 9.16867 17.1045C8.98201 16.4111 9.08201 15.9111 9.46867 15.6045C9.64201 15.4845 9.85534 15.4245 10.1087 15.4245C10.362 15.4245 10.602 15.5245 10.8287 15.7245C11.0553 15.9245 11.1953 16.1578 11.2487 16.4245C11.3153 16.7178 11.702 16.8645 12.4087 16.8645C13.3687 16.8645 14.002 16.6111 14.3087 16.1045C14.3353 16.0511 14.3887 15.9711 14.4687 15.8645C14.5087 15.7978 14.562 15.6511 14.6287 15.4245C14.7087 15.1045 14.6953 14.8111 14.5887 14.5445C14.482 14.2645 14.2553 13.9511 13.9087 13.6045C13.602 13.2978 13.362 13.1178 13.1887 13.0645C13.0287 12.9978 12.7153 12.9645 12.2487 12.9645C11.8087 12.9645 11.502 12.9378 11.3287 12.8845C11.1553 12.8311 10.9953 12.7245 10.8487 12.5645C10.5553 12.2578 10.4687 11.8845 10.5887 11.4445C10.7087 11.0045 10.9687 10.7445 11.3687 10.6645C11.7687 10.5845 12.2153 10.4045 12.7087 10.1245C13.2153 9.84448 13.5487 9.58448 13.7087 9.34448C13.922 9.01115 13.8953 8.69782 13.6287 8.40448C13.362 8.09782 13.0487 8.03782 12.6887 8.22448C12.582 8.27782 12.5087 8.30448 12.4687 8.30448C12.4153 8.30448 12.2753 8.43115 12.0487 8.68448C11.8487 8.89782 11.702 9.02448 11.6087 9.06448C11.5153 9.10448 11.3353 9.12448 11.0687 9.12448C10.6287 9.12448 10.322 8.90448 10.1487 8.46448C9.98867 8.01115 10.0553 7.57781 10.3487 7.16448C10.5887 6.80448 10.7887 6.58448 10.9487 6.50448C11.0287 6.46448 11.102 6.42448 11.1687 6.38448C11.4353 6.21115 11.7553 6.08448 12.1287 6.00448C12.2753 5.97781 12.4153 5.94448 12.5487 5.90448Z" fill="white"/>
</svg>
