<svg width="26" height="26" viewBox="0 0 26 26" fill="none" xmlns="http://www.w3.org/2000/svg">
<rect x="0.5" y="0.844482" width="25" height="25" rx="12.5" fill="#5062AB"/>
<path d="M12.5105 5.96448C12.9905 5.76448 13.4238 5.85115 13.8105 6.22448C13.9438 6.35781 14.0171 6.52448 14.0305 6.72448C14.0571 6.92448 14.0638 7.58448 14.0505 8.70448C14.0505 10.6778 14.0505 12.6045 14.0505 14.4845C14.0638 16.4978 14.0571 17.6778 14.0305 18.0245C14.0171 18.3578 13.9638 18.5711 13.8705 18.6645C13.8038 18.7311 13.7571 18.7845 13.7305 18.8245C13.7038 18.8511 13.6105 18.9178 13.4505 19.0245C13.1305 19.2111 12.8105 19.2178 12.4905 19.0445C12.1705 18.8845 11.9905 18.6178 11.9505 18.2445C11.9371 18.0445 11.9305 16.0511 11.9305 12.2645V6.56448L12.1105 6.30448C12.2305 6.14448 12.3638 6.03115 12.5105 5.96448Z" fill="white"/>
</svg>
