<svg width="164" height="155" viewBox="0 0 164 155" fill="none" xmlns="http://www.w3.org/2000/svg">
<g clip-path="url(#clip0_640_4676)">
<path d="M153.38 44.9944C156.25 59.0244 168.96 87.7344 160.85 102.374C155.84 111.404 141.75 111.774 128.91 118.844C120.94 123.234 114.68 132.814 107.64 140.784C80.78 171.164 26.26 143.644 28.15 114.464C29.4 95.1344 7.77998 93.8844 1.34998 57.7044C-5.08002 21.5244 25.41 7.38441 51.26 12.8144C70.16 16.7844 73.25 1.04441 92.45 0.844413C105.05 0.714413 145.25 5.29441 153.38 44.9844" fill="white"/>
<path d="M115.16 83.0439C109.84 102.194 90.01 113.404 70.86 108.094C51.71 102.774 40.5 82.9439 45.81 63.7939C51.13 44.6439 70.96 33.4339 90.11 38.7439C109.26 44.0639 120.47 63.8939 115.16 83.0439Z" fill="#FFE366"/>
<path d="M81.92 43.6035C75.11 43.9635 67.97 44.6935 61.98 48.2335C56.64 51.4035 52.74 56.5135 52 62.7535C51.83 64.1435 53.3 65.3335 54.58 65.3335C56.11 65.3335 57 64.1435 57.16 62.7535C57.71 58.1335 61.39 54.4135 65.3 52.2935C70.34 49.5635 76.3 49.0735 81.92 48.7735C85.22 48.5935 85.25 43.4335 81.92 43.6135" fill="#FFED9E"/>
<path d="M72.12 99.7631C77.25 100.703 82.41 100.683 87.54 99.7031C88.87 99.4531 89.75 97.7831 89.34 96.5331C88.88 95.1131 87.59 94.4531 86.16 94.7331C85.59 94.8431 85.02 94.9331 84.45 95.0231C84.27 95.0531 84.27 95.0531 84.48 95.0231C84.3 95.0431 84.13 95.0631 83.95 95.0831C83.69 95.1131 83.42 95.1431 83.15 95.1631C82.04 95.2631 80.93 95.3231 79.82 95.3231C77.49 95.3231 75.41 95.1331 73.48 94.7831C72.16 94.5431 70.63 95.1431 70.3 96.5831C70.01 97.8431 70.68 99.5031 72.1 99.7531" fill="#FFED9E"/>
<path d="M84.01 149.943C89.68 149.843 95.27 148.353 99.75 144.753C103.97 141.353 106.78 136.553 109.58 132.003C111.28 129.243 112.98 126.493 114.69 123.733C116.22 121.253 117.63 118.563 119.95 116.713C124.47 113.113 130.54 111.643 135.82 109.553C141.52 107.293 146.89 104.403 150.69 99.4633C151.35 98.6033 150.82 97.2233 149.97 96.7233C148.94 96.1233 147.89 96.5833 147.23 97.4433C140.51 106.183 128.02 106.733 119.22 112.353C114.3 115.493 111.72 120.923 108.75 125.743C105.89 130.373 103.26 135.423 99.55 139.453C95.45 143.913 89.99 145.833 84.01 145.943C81.44 145.993 81.43 149.993 84.01 149.943Z" fill="#FFF7DE"/>
<path d="M17.47 33.7438C14.29 39.4938 9.13001 44.2438 8.17001 51.0138C7.65001 54.7338 8.14001 58.6338 8.93001 62.2838C9.69001 65.7838 11.01 69.1938 13.12 72.1038C13.75 72.9738 14.86 73.4038 15.86 72.8238C16.72 72.3238 17.21 70.9638 16.58 70.0838C14.65 67.4138 13.49 64.4138 12.8 61.2138C12.1 58.0038 11.59 54.4238 12.18 51.1638C13.26 45.2438 18.11 40.8538 20.93 35.7538C22.18 33.5038 18.73 31.4838 17.48 33.7338" fill="#FFF7DE"/>
<path d="M140.85 38.8333C149.26 45.5433 149.52 57.0233 149.11 66.8733C149 69.4433 153 69.4433 153.11 66.8733C153.56 56.0333 152.9 43.3633 143.68 36.0133C142.84 35.3433 141.67 35.1933 140.85 36.0133C140.15 36.7133 140 38.1633 140.85 38.8433" fill="#FFF7DE"/>
<path d="M100.35 74.0837C100.43 74.0437 100.79 74.0337 101.45 74.0537C102.1 74.0737 102.46 74.1137 102.52 74.1637C102.58 74.2137 102.6 74.8737 102.59 76.1437C102.58 77.4137 102.55 78.0837 102.49 78.1437C102.41 78.2237 102.02 78.2537 101.34 78.2437C100.65 78.2437 100.28 78.2037 100.24 78.1437C100.2 78.0637 100.19 77.3837 100.21 76.1037C100.21 75.1437 100.21 74.5737 100.22 74.4137C100.22 74.2437 100.27 74.1337 100.35 74.0937M101.46 61.4337C101 61.4737 100.32 61.5137 99.42 61.5537C98.42 61.5937 97.76 61.6437 97.44 61.7037C97.12 61.7637 96.85 61.8937 96.63 62.0937C96.21 62.4537 96.03 62.8937 96.11 63.4137C96.18 63.9337 96.46 64.3137 96.96 64.5537C97.28 64.6737 98.07 64.6737 99.33 64.5537C100.21 64.4537 101.03 64.3937 101.79 64.3837C102.55 64.3737 102.96 64.4037 103.02 64.4837C103.12 64.6237 103.15 64.8937 103.11 65.2937C103.07 65.6937 102.99 65.9237 102.87 65.9837C102.79 66.0437 101.74 66.1237 99.72 66.2237C98.4 66.3037 97.54 66.3837 97.15 66.4637C96.76 66.5437 96.44 66.7237 96.21 67.0037C95.95 67.2837 95.76 67.8637 95.65 68.7537C95.54 69.6437 95.55 70.5737 95.66 71.5637C95.72 72.1037 95.88 72.5737 96.16 72.9937C96.43 73.4037 96.72 73.6037 97.05 73.6037C97.15 73.6037 97.2 73.7037 97.22 73.9037C97.22 74.1037 97.24 74.7837 97.26 75.9437V76.4837C97.26 77.4237 97.23 77.9737 97.18 78.1237C97.13 78.2737 96.97 78.3337 96.72 78.2937C96.64 78.2737 96.58 78.2637 96.54 78.2637C96.02 78.1837 95.49 78.1637 94.95 78.2037C94.41 78.2437 94.07 78.3237 93.93 78.4437C93.41 78.8637 93.17 79.3337 93.22 79.8437C93.27 80.3537 93.58 80.7437 94.16 81.0237C94.34 81.1237 96.71 81.1737 101.27 81.1737C105.83 81.1737 108.24 81.1237 108.5 81.0237C109.24 80.8037 109.65 80.3837 109.73 79.7637C109.81 79.1437 109.53 78.6437 108.89 78.2637C108.77 78.1837 108.64 78.1437 108.49 78.1237C108.34 78.1037 107.88 78.1237 107.13 78.1337H105.6L105.57 76.2137V75.8237C105.57 74.9637 105.58 74.4637 105.61 74.3237C105.64 74.1837 105.76 74.0937 105.99 74.0537C106.05 74.0337 106.09 74.0237 106.11 74.0237C106.35 73.9837 106.5 73.9437 106.56 73.9037C106.6 73.8837 106.66 73.8537 106.74 73.8137C107.24 73.5937 107.52 73.2137 107.6 72.6737C107.67 72.1337 107.48 71.7037 107.04 71.3837C106.78 71.1837 106.51 71.0637 106.23 71.0337C105.95 71.0037 104.93 70.9937 103.17 70.9937C100.35 70.9937 98.86 70.9137 98.7 70.7537C98.64 70.6937 98.6 70.4437 98.59 70.0037C98.58 69.5637 98.6 69.3237 98.66 69.2837C98.72 69.2237 99.44 69.1837 100.82 69.1637C101.7 69.1637 102.38 69.1537 102.86 69.1237C103.34 69.0937 103.77 69.0537 104.15 69.0037C104.53 68.9537 104.81 68.8537 104.99 68.7037C105.17 68.5537 105.32 68.3837 105.44 68.2037C105.56 68.0237 105.68 67.7537 105.8 67.3937C105.9 67.0937 105.95 66.2437 105.95 64.8537C105.95 63.4637 105.9 62.6637 105.8 62.4337C105.56 61.9537 105.2 61.6437 104.72 61.5037C104.52 61.4437 104.05 61.4037 103.32 61.3837C102.59 61.3637 101.96 61.3737 101.44 61.4137M71.2 64.4437C70.64 64.6237 70.3 64.9737 70.18 65.4937C70.06 66.0137 70.21 66.4737 70.63 66.8737C70.87 67.0937 71.11 67.2237 71.35 67.2637C71.59 67.3037 72.18 67.3237 73.12 67.3237C74.24 67.3237 74.84 67.3637 74.92 67.4437C74.98 67.5037 74.88 67.7537 74.62 68.1937C74.48 68.4537 74.34 68.6837 74.2 68.8837C74.16 69.0037 74.12 69.0737 74.08 69.0937C74.06 69.1137 73.95 69.2937 73.75 69.6337C73.45 70.1137 73.08 70.7037 72.64 71.4037C72.6 71.4637 72.55 71.5337 72.51 71.6137C72.46 71.6937 72.41 71.7637 72.37 71.8037C72.33 71.8537 72.31 71.8837 72.31 71.9137C72.03 72.3537 71.88 72.5837 71.86 72.6037C71.8 72.6437 71.72 72.7837 71.62 73.0237C71.58 73.1037 71.55 73.1537 71.53 73.1737C71.45 73.2337 71.25 73.5537 70.93 74.1337C70.71 74.5537 70.66 74.9437 70.76 75.3137C70.87 75.6837 71.12 75.9637 71.53 76.1637C71.97 76.3637 72.37 76.3537 72.73 76.1337C73.09 75.9137 73.56 75.3637 74.14 74.4837C74.4 74.1237 74.58 73.8737 74.68 73.7337C74.88 73.4937 74.98 73.3537 74.98 73.3237C74.98 73.2937 75.01 73.2237 75.07 73.1037C75.15 73.0237 75.21 72.9837 75.25 72.9837C75.35 72.9837 75.77 73.4437 76.51 74.3637C77.65 75.8237 78.65 76.1837 79.51 75.4437C79.71 75.2637 79.85 75.0037 79.93 74.6837C80.01 74.3537 79.99 74.1037 79.87 73.9237C79.81 73.8237 79.78 73.7537 79.78 73.7137C79.78 73.6137 79.56 73.3237 79.12 72.8437C78.82 72.4837 78.42 72.0337 77.92 71.4937C77.82 71.3737 77.66 71.1937 77.44 70.9537C77.14 70.6137 76.98 70.3737 76.96 70.2337C76.94 70.0937 77.03 69.8437 77.23 69.4837C77.41 69.2037 77.52 69.0037 77.56 68.8837C77.58 68.8837 77.66 68.7437 77.8 68.4637C77.92 68.2437 77.99 68.1237 78.02 68.0837C78.05 68.0537 78.19 67.8137 78.42 67.3537C78.48 67.2337 78.52 67.1637 78.54 67.1437C78.56 67.1237 78.62 67.0237 78.72 66.8437C78.94 66.3637 78.95 65.8837 78.75 65.4037C78.55 64.9237 78.22 64.6037 77.76 64.4437C77.6 64.3837 76.5 64.3537 74.47 64.3537C72.44 64.3537 71.35 64.3837 71.19 64.4437M89.16 62.4037C88.86 62.2237 88.52 62.1737 88.14 62.2537C87.76 62.3337 87.49 62.4837 87.33 62.7037C87.17 62.9237 87.06 63.3037 87 63.8537C86.94 64.4037 86.9 65.3537 86.88 66.6837C86.88 68.4237 86.86 69.3137 86.83 69.3537C86.8 69.3937 86.68 69.4137 86.45 69.4137C86.22 69.4137 86.05 69.4037 85.91 69.3837C85.79 69.3437 85.5 69.3037 85.04 69.2637C84.6 69.2437 84.37 69.2137 84.35 69.1737C84.31 69.1337 84.3 68.2737 84.32 66.5937C84.32 65.3137 84.32 64.5537 84.31 64.3137C84.3 64.0737 84.24 63.8637 84.14 63.6837C83.86 63.1237 83.45 62.8437 82.89 62.8437C82.33 62.8437 81.92 63.1237 81.62 63.6837C81.48 63.9637 81.38 65.5937 81.32 68.5737C81.3 69.8937 81.27 71.7937 81.23 74.2737C81.21 75.8737 81.26 76.9137 81.38 77.3937C81.5 77.8737 81.79 78.2237 82.25 78.4437C82.43 78.5037 82.63 78.5337 82.83 78.5437C83.03 78.5537 83.16 78.5337 83.21 78.4737C83.23 78.4337 83.29 78.3937 83.39 78.3537C83.59 78.2937 83.78 78.0937 83.96 77.7537C84.04 77.5937 84.08 77.3937 84.1 77.1437C84.1 76.8937 84.13 76.1337 84.14 74.8537C84.16 73.1137 84.2 72.2237 84.26 72.1837C84.4 72.1037 84.76 72.1037 85.34 72.1837C85.58 72.2237 85.88 72.2637 86.24 72.3037L86.81 72.3337V73.2937C86.81 73.8937 86.79 74.4437 86.75 74.9437C86.67 75.5237 86.64 76.3337 86.66 77.3837C86.68 78.4337 86.72 79.0237 86.78 79.1637C86.84 79.3037 86.95 79.4537 87.11 79.6137C87.27 79.7737 87.39 79.8537 87.47 79.8537C87.55 79.8537 87.61 79.8737 87.65 79.9137C87.85 80.1337 88.18 80.1237 88.62 79.8737C89.06 79.6237 89.36 79.3037 89.47 78.9037C89.57 78.6437 89.65 76.3437 89.71 72.0037C89.75 69.2437 89.79 67.2737 89.83 66.0937C89.85 64.7937 89.86 64.0137 89.86 63.7637C89.86 63.5137 89.83 63.3337 89.77 63.2037C89.69 63.0237 89.65 62.9237 89.65 62.9037C89.65 62.8637 89.58 62.7737 89.44 62.6337C89.3 62.4937 89.2 62.4137 89.14 62.3937M55.21 73.2837C54.75 73.3837 54.42 73.6137 54.22 73.9737C54.02 74.3337 53.98 74.7137 54.12 75.1137C54.26 75.5137 54.53 75.8037 54.95 75.9837C55.15 76.0637 55.46 76.1137 55.89 76.1337C56.32 76.1537 57.51 76.1837 59.45 76.2237C61.83 76.2637 63.06 76.3037 63.14 76.3437C63.2 76.3837 63.24 76.4537 63.24 76.5537C63.25 76.6537 63.24 76.9537 63.23 77.4537C63.15 79.7537 63.08 81.0637 63.02 81.3837C62.92 81.9037 63.05 82.3237 63.41 82.6637C63.77 83.0037 64.19 83.1237 64.68 83.0437C65.17 82.9637 65.53 82.6737 65.75 82.1737C66.03 81.5537 66.14 79.8037 66.08 76.9237C66.06 75.7237 66.03 74.9937 66 74.7237C65.97 74.4537 65.86 74.2137 65.68 73.9837C65.66 73.9437 65.63 73.9037 65.59 73.8637C65.39 73.6037 65.12 73.4437 64.78 73.4037C64.44 73.3537 63.34 73.3237 61.48 73.2937H60.67C58.05 73.2737 56.51 73.2537 56.05 73.2337C55.77 73.2137 55.49 73.2337 55.21 73.2937M57.07 60.0337C56.59 60.2137 56.11 60.7037 55.63 61.5037C55.51 61.6637 55.45 61.7637 55.45 61.8037C55.21 62.0837 54.97 62.4237 54.73 62.8237C54.69 62.8837 54.64 62.9637 54.58 63.0537C54.52 63.1437 54.47 63.2137 54.43 63.2737C54.39 63.3337 54.36 63.3837 54.34 63.4237C54.26 63.5237 54.22 63.5837 54.22 63.6037C54.22 63.6237 54.16 63.7137 54.04 63.8737C53.92 64.0337 53.86 64.1237 53.86 64.1637C53.86 64.2037 53.78 64.3337 53.62 64.5937C53.4 64.8937 53.18 65.2337 52.96 65.6137C52.94 65.6537 52.83 65.8237 52.63 66.1237C52.09 66.9437 51.73 67.5037 51.55 67.8037C51.45 67.9837 51.36 68.1337 51.28 68.2537C51.2 68.3737 51.13 68.5437 51.07 68.7637C50.95 69.1637 51.03 69.5437 51.31 69.9037C51.59 70.2637 51.94 70.4437 52.36 70.4437C52.94 70.4437 53.47 70.1037 53.95 69.4237C54.21 69.0637 54.35 68.8637 54.37 68.8237C54.43 68.7637 54.5 68.6637 54.58 68.5237C54.78 68.1837 55.09 67.7437 55.51 67.2037C55.59 67.0837 55.69 67.0537 55.81 67.1237C55.93 67.1937 56.2 67.4437 56.62 67.8637C57.5 68.7037 58.04 69.2137 58.24 69.3937C58.44 69.5737 58.67 69.7137 58.93 69.8137C59.15 69.9137 59.4 69.9637 59.67 69.9637C59.94 69.9637 60.11 69.9137 60.2 69.8137C60.24 69.7537 60.29 69.7237 60.35 69.7237C60.49 69.7237 60.65 69.5737 60.83 69.2737C61.03 68.9137 61.08 68.5737 60.98 68.2537C60.88 67.9337 60.61 67.5637 60.17 67.1437C58.31 65.4237 57.38 64.4937 57.38 64.3537C57.38 64.2937 57.41 64.2137 57.47 64.1137C57.81 63.5137 58.02 63.1837 58.1 63.1237C58.14 63.0837 58.25 62.9137 58.44 62.5937C58.63 62.2837 58.76 62.0637 58.82 61.9537C59.08 61.4337 58.99 60.9337 58.56 60.4537C58.13 59.9737 57.64 59.8337 57.08 60.0337M64.76 59.4637C64.4 59.7037 64.18 59.9737 64.1 60.2737C64.02 60.5737 63.98 61.2937 63.98 62.4337C63.98 63.7537 63.96 64.5837 63.92 64.9137C63.88 65.2437 63.85 66.3037 63.83 68.1037C63.81 69.4237 63.81 70.2037 63.83 70.4437C63.85 70.6837 63.89 70.8637 63.95 70.9837C64.29 71.4837 64.72 71.7337 65.25 71.7337C65.78 71.7337 66.21 71.4737 66.53 70.9537C66.61 70.8137 66.66 70.3537 66.68 69.5737C66.7 68.9337 66.73 68.2137 66.77 67.4137C66.83 66.3337 66.85 64.8837 66.85 63.0637C66.84 61.2437 66.8 60.2737 66.74 60.1537C66.56 59.8137 66.25 59.5737 65.82 59.4137C65.39 59.2537 65.04 59.2837 64.76 59.4537" fill="#231815"/>
</g>
<defs>
<clipPath id="clip0_640_4676">
<rect width="163.04" height="153.18" fill="white" transform="translate(0.47998 0.84375)"/>
</clipPath>
</defs>
</svg>
