<?xml version="1.0" encoding="UTF-8"?>
<svg id="_레이어_1" data-name="레이어 1" xmlns="http://www.w3.org/2000/svg" version="1.1" viewBox="0 0 497.7 365.9">
  <defs>
    <style>
      .cls-1 {
        fill: #8db2de;
      }

      .cls-1, .cls-2, .cls-3, .cls-4 {
        stroke-width: 0px;
      }

      .cls-2 {
        fill: #040000;
      }

      .cls-3 {
        fill: #b2b1b2;
      }

      .cls-4 {
        fill: #fff;
      }
    </style>
  </defs>
  <rect class="cls-4" x="-.3" width="497.7" height="365.9" rx="14.2" ry="14.2"/>
  <path class="cls-3" d="M157.7,281.2c-13.9,0-25.2,11.3-25.2,25.2s11.3,25.2,25.2,25.2h181.7c13.9,0,25.2-11.3,25.2-25.2s-11.3-25.2-25.2-25.2h-181.7Z"/>
  <g>
    <path class="cls-4" d="M229.2,296.1h11v2.6h-8.1v4.8c3.2-.1,6.9-.4,9.7-.9v2.6c-3.8.7-8.8,1-12.6,1v-10.1ZM229.7,307.8h16.6v2.6h-13.6v2.8c4.8-.1,9.4-.4,13.8-1.2v2.6c-5.3.9-10.9,1.2-16.8,1.3v-8.1ZM243.2,295.7h3v4.3h2.3v2.8h-2.3v4.3h-3v-11.3Z"/>
    <path class="cls-4" d="M250.1,312.2c4.4-.6,8.5-4.1,8.5-11.1v-2.3h-8v-2.7h11v5c0,7.8-4.6,13.1-11.5,13.9v-2.9ZM264.8,295.7h3v20.1h-3v-20.1Z"/>
  </g>
  <g>
    <path class="cls-1" d="M176.9,58.5h32.8v4.4h-32.8v-4.4ZM178.1,71.6c0-3.4,2.8-6.2,6.2-6.2h17.9c3.4,0,6.2,2.8,6.2,6.2s-2.8,6.2-6.2,6.2h-17.9c-3.4,0-6.2-2.8-6.2-6.2ZM178.5,43.7h29.6v4.3h-24.5v3.8h24.6v4.3h-29.8v-12.5ZM185.2,73.6h16.3c1.1,0,2-.9,2-2s-.9-2-2-2h-16.3c-1.1,0-2,.9-2,2s.9,2,2,2Z"/>
    <path class="cls-1" d="M213.7,61.1h13.8v-2.2h-12.2v-9.4h24.6v-1.9h-24.6v-3.8h29.6v9.4h-24.6v1.9h24.7v3.8h-12.4v2.2h13.8v4.1h-32.8v-4.1ZM239.7,71.3h-24.4v-4.1h29.6v10.6h-5.2v-6.5Z"/>
    <path class="cls-1" d="M250.1,60.6h9.2v-3.3h-1.2c-3.8,0-6.8-3.1-6.8-6.8s3-6.8,6.8-6.8h7.7c3.8,0,6.8,3.1,6.8,6.8s-3,6.8-6.8,6.8h-1.2v3.3h11.2v-17.8h5.2v9.4h4v4.8h-4v11.5h-5.2v-3.6h-25.6v-4.3ZM257.3,66.9v6.8c8.3-.2,16.4-.7,24-2.1v4.4c-9.2,1.6-19,2-29.2,2.2v-11.3h5.2ZM258.9,53.2h6.1c1.4,0,2.5-1.2,2.5-2.7s-1.1-2.7-2.5-2.7h-6.1c-1.4,0-2.5,1.2-2.5,2.7s1.1,2.7,2.5,2.7Z"/>
    <path class="cls-1" d="M294.1,71.8v-5.9c-1.7,0-3.4,0-5.2.1v-13.8h24.6v-4h-24.6v-4.6h29.6v13h-24.6v4.8c8.6-.2,16.9-.7,24.8-2.1v4.6c-1.8.3-3.6.6-5.4.8v5.8c2.3-.3,4.6-.6,6.8-1v4.7c-10.1,1.9-21.8,2.3-32.8,2.4v-4.7c2.2,0,4.5,0,6.8,0ZM308.3,71.1v-5.8c-3,.3-6.1.4-9.2.6v5.9c3.1-.2,6.2-.3,9.2-.6Z"/>
  </g>
  <g>
    <path class="cls-2" d="M145.5,119.9c1.9-.4,3.7-2,3.7-3.6v-.3h-3.5v-2.1h9.4v2.1h-3.5v.3c0,1.5,1.8,3.2,3.7,3.6v2.2c-1.7-.3-3.8-1.4-4.9-3-1.1,1.6-3.1,2.7-4.9,3v-2.2ZM145.8,126.4c0-1.7,1.4-3,3-3h7.5c1.7,0,3,1.4,3,3s-1.3,3-3,3h-7.5c-1.7,0-3-1.4-3-3ZM149.1,127.4h7c.6,0,1-.5,1-1s-.4-1-1-1h-7c-.6,0-1,.5-1,1s.4,1,1,1ZM154.5,116.9h2.3v-3.2h2.3v9.1h-2.3v-3.8h-2.3v-2.1Z"/>
    <path class="cls-2" d="M161.8,119.7c1.9-.5,3.7-2.5,3.7-4.3v-1.5h2.3v1.5c0,1.8,1.8,3.8,3.7,4.3v2.2c-1.7-.4-3.8-1.7-4.9-3.4-1.1,1.7-3.1,3.1-4.9,3.4v-2.2ZM162.2,126.3c0-1.7,1.4-3.1,3.1-3.1h7.1c1.7,0,3.1,1.4,3.1,3.1s-1.4,3.1-3.1,3.1h-7.1c-1.7,0-3.1-1.4-3.1-3.1ZM165.5,127.4h6.7c.6,0,1-.5,1-1.1s-.5-1.1-1-1.1h-6.7c-.6,0-1,.5-1,1.1s.5,1.1,1,1.1ZM173,113.7h2.3v3.3h1.8v2.2h-1.8v3.5h-2.3v-9Z"/>
    <path class="cls-2" d="M178.6,120.9c1.9-.5,3.7-2.6,3.7-4.3v-.5h-3.5v-2.1h9.4v2.1h-3.5v.5c0,1.5,1.8,3.2,3.7,3.5v2.2c-1.7-.2-3.7-1.3-4.8-2.8-1,1.8-3.2,3.2-4.9,3.5v-2.2ZM179.1,126.5v-2.1c4.6,0,8.9-.5,13.1-1.4v6.4h-2.3v-3.8c-3.5.6-7,.9-10.8,1ZM187.6,117h2.3v-3.3h2.3v8.6c-.8.2-1.6.4-2.3.5v-3.7h-2.3v-2.1Z"/>
    <path class="cls-2" d="M209.5,125.6v2.2c-4.6.9-9.8,1-14.8,1.1v-2.2c5,0,10.2-.2,14.8-1.1ZM199.9,114h4.5c2.5,0,4.6,2.1,4.6,4.6s-2.1,4.6-4.6,4.6h-4.5c-2.5,0-4.6-2.1-4.6-4.6s2.1-4.6,4.6-4.6ZM200.1,121.2h4.2c1.4,0,2.5-1.1,2.5-2.5s-1.1-2.5-2.5-2.5h-4.2c-1.4,0-2.5,1.1-2.5,2.5s1.1,2.5,2.5,2.5Z"/>
    <path class="cls-2" d="M214.3,119.8v2.2c3.9-.1,7.6-.3,11.1-.9v2.1c-1.8.3-3.7.5-5.6.7v2.6c2.1-.2,4.2-.4,6.2-.8v2.1c-4.6.9-9.8,1-14.8,1.1v-2.1c2.1,0,4.1,0,6.2-.2v-2.6c-1.8,0-3.6.1-5.5.2v-6.2h11.1v-1.8h-11.1v-2.1h13.3v5.8h-11.1Z"/>
    <path class="cls-2" d="M232.8,126.3c1.2-1,2.5-3.2,2.5-6.4v-3.8h-2.3v-2.1h7v2.1h-2.3v3.8c0,3,1.3,5.1,2.5,6v2.5c-1.2-.6-2.7-2.1-3.6-4-.9,2.2-2.4,3.8-3.7,4.5v-2.6ZM240.9,121.4h-1.8v-2.1h1.8v-5.6h2.2v15.5h-2.2v-7.9ZM244.2,113.7h2.3v15.7h-2.3v-15.7Z"/>
    <path class="cls-2" d="M249,120.1h14.8v1.8h-6.2v.9h5.5v4.1h-11.1v.9c3.7,0,7.5-.1,11.2-.5v1.7c-4.5.5-9.2.5-13.5.5v-4.3h11.1v-.7h-11.1v-1.7h5.5v-.9h-6.2v-1.8ZM249.5,117.7c2.3,0,5.2-.6,5.6-1.6h-5.4v-1.8h5.5v-1h2.3v1h5.5v1.8h-5.4c.5,1,3.3,1.6,5.6,1.6v1.8c-2.3,0-5.5-.6-6.8-1.9-1.3,1.3-4.5,1.9-6.8,1.9v-1.8Z"/>
    <path class="cls-2" d="M269.7,126.6v-3.5c-1.2,0-2.3.1-3.4.1v-9.3h9.2v2.1h-6.9v5.1c2.4-.1,5-.4,7-.7v2.1c-1,.2-2.2.4-3.5.5v3.5c1.8-.2,3.5-.5,5.2-.8v-11.9h2.3v15.7h-2.3v-1.7c-3.8.9-8.1,1.2-11.7,1.2v-2.1c1.3,0,2.7,0,4.1-.1Z"/>
    <path class="cls-2" d="M293.8,119h-2.3c-.5,1.9-2.3,3.1-4.5,3.1s-4.6-1.7-4.6-4.1,2.1-4.1,4.6-4.1,4,1.2,4.5,3.1h2.3v-3.3h2.3v8.8h-2.3v-3.5ZM282.8,127.2c1.1-.3,2.7-1.5,2.7-3.1v-.9h2.3v.9c0,1.6,1.2,2.8,1.9,3.1.7-.3,1.9-1.5,1.9-3.1v-.9h2.3v.9c0,1.6,1.6,2.9,2.7,3.1v2.2c-1.2-.2-2.8-1.1-3.8-2.6-.8,1.4-2.2,2.4-3,2.6-.8-.2-2.2-1.1-3-2.6-1,1.4-2.6,2.4-3.8,2.6v-2.2ZM287,120.1c1.3,0,2.3-.8,2.3-2.1s-1-2.1-2.3-2.1-2.3.8-2.3,2.1,1,2.1,2.3,2.1Z"/>
    <path class="cls-2" d="M298.6,120.5h14.8v2h-14.8v-2ZM299.2,117.5c2.5,0,5.7-1,5.7-2.8v-.8h2.3v.8c0,1.7,3.2,2.8,5.7,2.8v2c-2.3,0-5.5-.9-6.8-2.5-1.4,1.7-4.5,2.5-6.8,2.5v-2ZM301.6,123.4v1h8.8v-1h2.3v5.2c-4.3.7-9,.9-13.3,1v-6.2h2.3ZM310.4,127.1v-.7h-8.8v1.3c2.9,0,5.9-.2,8.8-.6Z"/>
    <path class="cls-2" d="M315.7,114h2.3v12.6c2.6-.1,5.5-.4,7.7-.9v2.2c-3,.6-7,.9-10.1,1v-14.8ZM326.9,113.7h2.3v15.7h-2.3v-15.7Z"/>
    <path class="cls-2" d="M340.8,114v2.1h-6.3v10.5c2.6-.1,5.5-.4,7.8-.9v2.1c-3,.6-7,.9-10.1,1v-14.8h8.6ZM343.1,113.7h2.3v6.1h1.8v2.2h-1.8v7.4h-2.3v-15.7Z"/>
    <path class="cls-2" d="M348.7,128.6v-2.9h2.9v2.7c-.9.1-2,.2-2.9.2Z"/>
  </g>
  <g>
    <path class="cls-2" d="M97.3,154.3c1.2-1,2.5-3.2,2.5-6.4v-3.8h-2.3v-2.1h7v2.1h-2.3v3.8c0,3,1.3,5.1,2.5,6v2.5c-1.2-.6-2.7-2.1-3.6-4-.9,2.2-2.4,3.8-3.7,4.5v-2.6ZM105.4,149.4h-1.8v-2.1h1.8v-5.6h2.2v15.5h-2.2v-7.9ZM108.7,141.7h2.3v15.7h-2.3v-15.7Z"/>
    <path class="cls-2" d="M113.5,148.1h14.8v1.8h-6.2v.9h5.5v4.1h-11.1v.9c3.7,0,7.5-.1,11.2-.5v1.7c-4.5.5-9.2.5-13.5.5v-4.3h11.1v-.7h-11.1v-1.7h5.5v-.9h-6.2v-1.8ZM114,145.7c2.3,0,5.2-.6,5.6-1.6h-5.4v-1.8h5.5v-1h2.3v1h5.5v1.8h-5.4c.5,1,3.3,1.6,5.6,1.6v1.8c-2.3,0-5.5-.6-6.8-1.9-1.4,1.3-4.5,1.9-6.8,1.9v-1.8Z"/>
    <path class="cls-2" d="M130.1,142.5h3.9v-1.2h2.3v1.2h3.9v2h-10.1v-2ZM133.1,145.4h4.1c1.5,0,2.8,1.3,2.8,2.9s-1.3,2.9-2.8,2.9h-4.1c-1.5,0-2.8-1.3-2.8-2.9s1.3-2.9,2.8-2.9ZM133.1,152.2v3.2c3.7,0,7.4-.3,10.8-.9v2.1c-4.2.7-8.6.9-13.1,1v-5.4h2.3ZM133.4,149.2h3.3c.5,0,.9-.4.9-1s-.4-1-.9-1h-3.3c-.5,0-.9.4-.9,1s.4,1,.9,1ZM141.4,141.7h2.3v4.3h1.8v2.2h-1.8v5h-2.3v-11.4Z"/>
    <path class="cls-2" d="M151.7,142h2.3v2.2h4.1v-2.2h2.3v3.2h2.5v-3.5h2.3v11.3h-2.3v-5.6h-2.5v3.2h-8.6v-8.5ZM154.4,151.9v3.5c3.8,0,7.5-.3,11-.9v2.1c-4.2.7-8.7.9-13.3,1v-5.7h2.3ZM158,148.5v-2.3h-4.1v2.3h4.1Z"/>
    <path class="cls-2" d="M173.9,154.6v-2.6h-2.4c-1.7,0-3.1-1.3-3.1-3s1.4-3,3.1-3h7.2c1.7,0,3.1,1.3,3.1,3s-1.4,3-3.1,3h-2.4v2.4c2.1-.2,4.2-.4,6.2-.8v2.1c-4.6.9-9.8,1-14.8,1.1v-2.1c2.1,0,4.1,0,6.2-.2ZM168.2,142.7h5.7v-1.4h2.3v1.4h5.7v2.1h-13.7v-2.1ZM171.7,150h6.7c.6,0,1-.4,1-1s-.5-1-1-1h-6.7c-.6,0-1,.4-1,1s.5,1,1,1Z"/>
    <path class="cls-2" d="M187.2,147.9v2.2c3.9-.1,7.6-.3,11.1-.9v2.1c-1.8.3-3.7.5-5.6.7v2.6c2.1-.2,4.2-.4,6.2-.8v2.1c-4.6.9-9.8,1-14.8,1.1v-2.1c2.1,0,4.1,0,6.2-.2v-2.6c-1.8,0-3.6.1-5.5.2v-6.2h11.1v-1.8h-11.1v-2.1h13.3v5.8h-11.1Z"/>
    <path class="cls-2" d="M205.5,154.7c2.4-.4,4.7-2.6,4.7-8v-2.6h-4.3v-2.1h6.6v4.6c0,6.1-2.6,9.6-7,10.2v-2.2ZM213.7,141.7h2.2v6.3h1.2v-6.4h2.3v15.7h-2.3v-7.3h-1.2v7.1h-2.2v-15.5Z"/>
    <path class="cls-2" d="M222.4,142h2.3v1.6h4.1v-1.6h2.3v1h2.5v-1.4h2.3v8h-2.3v-1.5h-2.5v1h-8.6v-7.2ZM233.6,153v-.8h-10.9v-1.8h13.1v4.4h-10.9v1c3.7,0,7.7-.1,11.1-.5v1.8c-4,.5-9.1.5-13.3.5v-4.5h10.9ZM228.8,147.2v-1.7h-4.1v1.7h4.1ZM233.6,146.2v-1.3h-2.5v1.3h2.5Z"/>
    <path class="cls-2" d="M247.9,141.8c1.4,0,2.7.6,3.5,1.5h3.2v-1.7h2.3v11.2h-2.3v-3.7h-3.2c-.8,1-2.1,1.5-3.5,1.5-2.5,0-4.6-1.8-4.6-4.4s2.1-4.4,4.6-4.4ZM246.2,151.8v3.7c3.8,0,7.5-.3,11-.9v2.1c-4.2.7-8.7.9-13.3,1v-5.8h2.3ZM247.9,148.7c1.3,0,2.3-.9,2.3-2.4s-1-2.4-2.3-2.4-2.3.9-2.3,2.4,1,2.4,2.3,2.4ZM254.6,147.2v-1.8h-2.2c0,.3,0,.6,0,.9s0,.6,0,.9h2.2Z"/>
    <path class="cls-2" d="M259.8,145.5h6.4v-1.5h-6.4v-2h8.6v5.4h-6.4v1.7c2.5-.1,5.4-.4,7.6-.8v2c-3,.5-6.9.8-9.9.8v-5.7ZM260.2,154.8v-2.1c4.6,0,8.8-.5,13-1.4v6.2h-2.3v-3.6c-3.4.6-6.9.9-10.6,1ZM270.8,141.7h2.3v3.5h1.8v2.2h-1.8v3.2c-.8.2-1.6.4-2.3.5v-9.3Z"/>
    <path class="cls-2" d="M276,154.7c5,0,10.2-.2,14.8-1.1v2.2c-4.6.9-9.8,1-14.8,1.1v-2.2ZM290.1,142v2.1h-11v5.1c3.8,0,7.6-.3,11.1-.9v2.1c-4.2.7-8.8.9-13.4,1v-9.4h13.3Z"/>
    <path class="cls-2" d="M293.1,144.8h6.4v-.8h-6.4v-1.9h8.6v4.6h-6.4v1.1c2.5-.1,5.4-.4,7.6-.8v1.9c-3,.5-6.9.8-9.9.8v-4.9ZM293.5,153.1h10.9v-.7h-10.9v-1.8h13.1v4.3h-10.9v.9c3.7,0,7.7-.1,11.1-.5v1.8c-4,.5-9.1.5-13.3.5v-4.4ZM304.3,141.7h2.3v8.2h-2.3v-8.2Z"/>
    <path class="cls-2" d="M314.2,153.7v-8.6c0-2,1.4-3.3,3.3-3.3s3.1,1.1,3.3,2.8h1.4v-2.9h2.2v15.5h-2.2v-3.7h-1.4v.2c0,2-1.4,3.3-3.3,3.3s-3.3-1.3-3.3-3.3ZM317.5,155c.7,0,1.1-.5,1.1-1.3v-8.6c0-.8-.4-1.3-1.1-1.3s-1.1.5-1.1,1.3v8.6c0,.8.4,1.3,1.1,1.3ZM322.2,151.5v-4.8h-1.4v4.8h1.4ZM325.4,141.7h2.3v15.7h-2.3v-15.7Z"/>
    <path class="cls-2" d="M330.6,147.9c1.9-.4,3.7-2,3.7-3.6v-.3h-3.5v-2.1h9.4v2.1h-3.5v.3c0,1.5,1.8,3.2,3.7,3.6v2.2c-1.7-.3-3.8-1.4-4.9-3-1.1,1.6-3.1,2.7-4.9,3v-2.2ZM330.9,154.4c0-1.7,1.4-3,3-3h7.5c1.7,0,3,1.4,3,3s-1.3,3-3,3h-7.5c-1.7,0-3-1.4-3-3ZM334.2,155.4h7c.6,0,1-.5,1-1s-.4-1-1-1h-7c-.6,0-1,.5-1,1s.4,1,1,1ZM339.6,144.9h2.3v-3.2h2.3v9.1h-2.3v-3.8h-2.3v-2.1Z"/>
    <path class="cls-2" d="M351.7,141.8c2.5,0,4.6,1.7,4.6,4.1s-2.1,4.1-4.6,4.1-4.6-1.7-4.6-4.1,2.1-4.1,4.6-4.1ZM350,150.9v1.2h8.6v-1.2h2.3v5.7c-4.2.7-8.6.9-13.1,1v-6.7h2.3ZM351.7,148c1.3,0,2.3-.8,2.3-2.1s-1-2.1-2.3-2.1-2.3.8-2.3,2.1,1,2.1,2.3,2.1ZM358.6,154.9v-.9h-8.6v1.4c3,0,5.8-.2,8.6-.6ZM358.5,141.7h2.3v8.6h-2.3v-8.6Z"/>
    <path class="cls-2" d="M363.9,142h2.3v12.6c2.6-.1,5.5-.4,7.7-.9v2.2c-3,.6-7,.9-10.1,1v-14.8ZM375.1,141.7h2.3v15.7h-2.3v-15.7Z"/>
    <path class="cls-2" d="M388.9,142v2.1h-6.3v10.5c2.6-.1,5.5-.4,7.8-.9v2.1c-3,.6-7,.9-10.1,1v-14.8h8.6ZM391.3,141.7h2.3v6.1h1.8v2.2h-1.8v7.4h-2.3v-15.7Z"/>
    <path class="cls-2" d="M396.8,156.6v-2.9h2.9v2.7c-.9.1-2,.2-2.9.2Z"/>
  </g>
  <g>
    <path class="cls-2" d="M205.5,175.9c3.7,0,6.7-1.7,6.7-3.6v-.2h-6.3v-2.1h8.6v1.6c0,4-4.1,6.3-9,6.3v-2.1ZM206.2,179.2h13v5.4c-4.1.7-8.4.9-13,1v-6.4ZM216.9,183v-1.7h-8.4v2.3c2.9,0,5.7-.2,8.4-.6ZM216.8,169.7h2.3v3.3h1.8v2.2h-1.8v3.3h-2.3v-8.8Z"/>
    <path class="cls-2" d="M222.2,182.3c1.8-1.2,3.7-4,3.7-8v-4.3h2.3v4.3c0,3.5,1.9,6.2,3.7,7.2v2.5c-1.8-.8-3.7-2.6-4.8-4.8-1.1,2.7-3.1,4.7-5,5.7v-2.6ZM233.4,169.7h2.3v6.1h1.8v2.2h-1.8v7.4h-2.3v-15.7Z"/>
    <path class="cls-2" d="M238.6,170.4h3.9v-1.1h2.3v1.1h3.9v2h-10.1v-2ZM241.5,173.1h4.3c1.5,0,2.7,1.2,2.7,2.7s-1.2,2.7-2.7,2.7h-4.3c-1.5,0-2.7-1.2-2.7-2.7s1.2-2.7,2.7-2.7ZM241.6,179.3v1h8.4v-1h2.3v5.3c-4.1.7-8.4.9-13,1v-6.3h2.3ZM241.9,176.5h3.6c.5,0,.8-.3.8-.8s-.3-.8-.8-.8h-3.6c-.5,0-.8.3-.8.8s.3.8.8.8ZM250,183v-.7h-8.4v1.2c2.9,0,5.7-.2,8.4-.6ZM250,169.7h2.3v3.5h1.8v2.2h-1.8v3.4h-2.3v-9Z"/>
    <path class="cls-2" d="M255.7,170h2.3v12.6c2.6-.1,5.5-.4,7.7-.9v2.2c-3,.6-7,.9-10.1,1v-14.8ZM266.9,169.7h2.3v15.7h-2.3v-15.7Z"/>
    <path class="cls-2" d="M280.7,170v2.1h-6.3v10.5c2.6-.1,5.5-.4,7.8-.9v2.1c-3,.6-7,.9-10.1,1v-14.8h8.6ZM283.1,169.7h2.3v6.1h1.8v2.2h-1.8v7.4h-2.3v-15.7Z"/>
    <path class="cls-2" d="M288.6,184.6v-2.9h2.9v2.7c-.9.1-2,.2-2.9.2Z"/>
  </g>
  <g>
    <path class="cls-2" d="M76.4,212.9l1-1.7-1.7-.7.3-.8,1.8.4.2-1.9h.9l.2,1.9,1.8-.4.3.8-1.7.7,1,1.7-.7.5-1.3-1.5-1.3,1.5-.7-.5Z"/>
    <path class="cls-2" d="M89.3,211.5c-.9,2.3-3.1,4-6.2,4.9l-.5-1c3.4-1,5.6-2.9,5.8-5.4h-5.1v-1.1h6.5c0,.5,0,1.1-.2,1.6h3.2v-2.6h1.3v8.6h-1.3v-1.9h-3.8v-1.1h3.8v-1.9h-3.6ZM94.3,219.3c0,1.7-1.9,2.8-4.8,2.8s-4.8-1-4.8-2.8,1.9-2.8,4.8-2.8,4.8,1,4.8,2.8ZM93,219.3c0-1.1-1.3-1.7-3.5-1.7s-3.5.7-3.5,1.7,1.3,1.7,3.5,1.7,3.5-.7,3.5-1.7Z"/>
    <path class="cls-2" d="M103.6,215.8v1.7h4.2v4.5h-9.8v-4.5h4.2v-1.7h-5.8v-1.1h13v1.1h-5.8ZM99.9,209.3h-2.2v-1.1h10.5v1.1h-2.2v3h2.1v1.1h-10.4v-1.1h2.1v-3ZM106.6,218.5h-7.2v2.4h7.2v-2.4ZM104.7,209.3h-3.6v3h3.6v-3Z"/>
    <path class="cls-2" d="M120.8,214.6h-6.6v-6.3h1.3v2.1h4.1v-2.1h1.3v6.3ZM119.5,211.4h-4.1v2.1h4.1v-2.1ZM116.9,220.9h8.3v1h-9.6v-3.6h7.8v-1.5h-7.8v-1h9.1v3.5h-7.8v1.6ZM126.8,210.9v1.1h-2.1v3.2h-1.3v-7.4h1.3v3.1h2.1Z"/>
    <path class="cls-2" d="M140.6,214.9v1.1h-13v-1.1h5.8v-2.1h1.3v2.1h5.8ZM139.3,213.5c-2.2-.4-4.3-1.5-5.2-3.1-.9,1.6-3,2.8-5.2,3.1l-.5-1c2.6-.4,5-2,5-3.9v-.6h1.3v.6c0,1.9,2.5,3.5,5,3.9l-.5,1ZM139,219.6c0,1.6-1.8,2.5-4.9,2.5s-4.9-.9-4.9-2.5,1.8-2.5,4.9-2.5,4.9.9,4.9,2.5ZM137.7,219.6c0-.9-1.3-1.5-3.6-1.5s-3.6.5-3.6,1.5,1.3,1.5,3.6,1.5,3.6-.5,3.6-1.5Z"/>
    <path class="cls-2" d="M149.8,211.6c0,2.6,1.7,5.3,3.8,6.2l-.8,1.1c-1.6-.8-3-2.5-3.7-4.5-.7,2.2-2,4-3.7,4.8l-.8-1.1c2.1-1,3.9-3.8,3.9-6.5v-2.6h1.3v2.6ZM156.4,207.8v14.4h-1.3v-14.4h1.3Z"/>
    <path class="cls-2" d="M158.8,223.1c1-.4,1.6-1.2,1.6-2.2,0,0-.1,0-.2,0-.6,0-1.1-.4-1.1-1s.5-1,1.1-1,1.2.7,1.2,1.7c0,1.5-.9,2.7-2.3,3.3l-.4-.9Z"/>
    <path class="cls-2" d="M165.3,215.6v-1.2l7.7-3v1.3l-3.8,1.4-2.4.9h0c0,0,2.4,1,2.4,1l3.8,1.4v1.3l-7.7-3Z"/>
    <path class="cls-2" d="M175.8,217.3c1.4,0,2.9-.1,4.6-.4v1.1c-1.8.4-3.5.4-5,.4h-.9v-8.9h1.3v7.7ZM186,207.8v14.3h-1.3v-7.4h-2v6.7h-1.2v-13.3h1.2v5.5h2v-5.8h1.3Z"/>
    <path class="cls-2" d="M197.8,211c-.9,2.3-3.1,3.9-6.3,4.8l-.5-1c3.6-.9,5.6-2.7,5.8-5.1h-5.1v-1.1h6.5c0,.5,0,.9-.1,1.4h3.2v-2.2h1.3v7.7h-1.3v-1.7h-3.7v-1h3.7v-1.8h-3.5ZM203,220.9v1h-9.5v-5.8h9.2v1h-7.9v1.4h7.7v1h-7.7v1.5h8.2Z"/>
    <path class="cls-2" d="M213.1,208.1h1.2v13.3h-1.2v-7h-1.8c-.1,2.8-1.3,4.5-3,4.5s-3.1-1.9-3.1-5,1.2-5,3.1-5,2.9,1.7,3,4.4h1.8v-5.3ZM210.1,213.9c0-2.3-.7-3.8-1.9-3.8s-1.9,1.5-1.9,3.8.7,3.8,1.9,3.8,1.9-1.5,1.9-3.8ZM217.2,207.8v14.4h-1.2v-14.4h1.2Z"/>
    <path class="cls-2" d="M229.2,214.6v2.6h4.3v4.8h-1.3v-3.8h-8.7v-1.1h4.5v-2.6h-5.8v-1.1h9.7c.4-1.7.4-3,.4-4.1h-8.4v-1.1h9.7v1c0,1.1,0,2.4-.4,4.1h2v1.1h-5.9Z"/>
    <path class="cls-2" d="M243.6,215.7h-6.7v-6.7h6.7v6.7ZM242.3,210.1h-4.1v4.6h4.1v-4.6ZM248.3,220.6v1.1h-9.7v-4.5h1.3v3.5h8.4ZM247.9,218.1h-1.3v-10.3h1.3v10.3Z"/>
    <path class="cls-2" d="M257.1,214.5c-.7.8-1.7,1.4-2.9,1.4-2.1,0-3.7-1.5-3.7-3.6s1.6-3.6,3.7-3.6,2.3.5,2.9,1.3h3.6v-2.2h1.3v10.6h-1.3v-3.9h-3.6ZM254.1,214.7c1.4,0,2.4-1,2.4-2.4s-1-2.4-2.4-2.4-2.4,1-2.4,2.4,1,2.4,2.4,2.4ZM262.4,220.7v1.1h-9.6v-4.5h1.3v3.4h8.3ZM257.6,211.1c.1.4.2.8.2,1.2s0,.8-.2,1.2h3.1v-2.4h-3.1Z"/>
    <path class="cls-2" d="M277.3,213.8v1.1h-13v-1.1h9.7c.4-1.8.4-3.1.4-4.2h-8.4v-1.1h9.7v1.1c0,1.1,0,2.4-.4,4.2h2.1ZM265.9,216.8h9.8v5.1h-9.8v-5.1ZM267.2,220.9h7.2v-3h-7.2v3Z"/>
    <path class="cls-2" d="M278.2,217.3l3.8-1.4,2.4-.9h0c0,0-2.4-1-2.4-1l-3.8-1.4v-1.3l7.7,3v1.2l-7.7,3v-1.3Z"/>
    <path class="cls-2" d="M286.8,217.9c2.6,0,6.2,0,9.3-.5v1c-3.1.6-6.6.6-9.2.6l-.2-1.1ZM295.2,212.2c0,2-1.6,3.4-3.8,3.4s-3.8-1.4-3.8-3.4,1.6-3.4,3.8-3.4,3.8,1.4,3.8,3.4ZM288.8,212.2c0,1.3,1.1,2.3,2.6,2.3s2.6-.9,2.6-2.3-1.1-2.3-2.6-2.3-2.6.9-2.6,2.3ZM298.4,207.8v14.4h-1.3v-14.4h1.3Z"/>
    <path class="cls-2" d="M316.7,215.9h-5.9v6.2h-1.3v-6.2h-5.8v-1.1h9.5c.4-2.1.4-3.6.4-4.9v-.2h-8.4v-1.1h9.6v1.2c0,1.3,0,2.9-.4,4.9h2.1v1.1Z"/>
    <path class="cls-2" d="M330.8,214.9v1.1h-13v-1.1h5.8v-1.7h-4.2v-4.9h9.7v1.1h-8.4v2.8h8.6v1.1h-4.4v1.7h5.8ZM319.3,217.4h10v4.9h-1.3v-3.8h-8.6v-1.1Z"/>
    <path class="cls-2" d="M336.7,212.2c0,2.3,1.6,4.8,3.7,5.8l-.8,1.1c-1.6-.8-2.9-2.5-3.6-4.4-.7,2.1-2,3.9-3.7,4.8l-.8-1c2-1,3.8-3.7,3.8-6.2v-1.8h-3.3v-1.1h7.8v1.1h-3.2v1.8ZM345.3,214.7h-2.4v7.5h-1.3v-14.3h1.3v5.8h2.4v1.1Z"/>
    <path class="cls-2" d="M353.3,209.3c0,4.1-1.9,7.8-6.5,10.1l-.7-1c3.7-1.8,5.6-4.6,5.9-8h-5.3v-1.1h6.6ZM359.4,214.7h-2.3v7.4h-1.3v-14.4h1.3v5.8h2.3v1.1Z"/>
    <path class="cls-2" d="M370.5,213.9c0,3.1-1.5,5-3.6,5s-3.6-2-3.6-5,1.5-5,3.6-5,3.6,2,3.6,5ZM369.2,213.9c0-2.3-1-3.8-2.4-3.8s-2.4,1.5-2.4,3.8,1,3.8,2.4,3.8,2.4-1.5,2.4-3.8ZM376.5,214.6h-2.4v7.5h-1.3v-14.3h1.3v5.7h2.4v1.1Z"/>
    <path class="cls-2" d="M386.3,213.6c-2.4.5-4.4.6-7.1.6h-1.2v-5.8h1.3v4.7c2.5,0,4.5-.2,6.7-.6l.2,1.1ZM389.4,220.9v1h-9.7v-3.7h8v-1.5h-8v-1h9.3v3.5h-8v1.7h8.4ZM388.9,214.9h-1.3v-7.2h1.3v7.2Z"/>
    <path class="cls-2" d="M401.1,211.5c-.9,2.3-3.1,4-6.2,4.9l-.5-1c3.4-1,5.6-2.9,5.8-5.4h-5.1v-1.1h6.5c0,.5,0,1.1-.2,1.6h3.2v-2.6h1.3v8.6h-1.3v-1.9h-3.8v-1.1h3.8v-1.9h-3.6ZM406.1,219.3c0,1.7-1.9,2.8-4.8,2.8s-4.8-1-4.8-2.8,1.9-2.8,4.8-2.8,4.8,1,4.8,2.8ZM404.8,219.3c0-1.1-1.3-1.7-3.5-1.7s-3.5.7-3.5,1.7,1.3,1.7,3.5,1.7,3.5-.7,3.5-1.7Z"/>
    <path class="cls-2" d="M421.3,217.1h-5.9v5.1h-1.3v-5.1h-5.8v-1.1h13v1.1ZM409.8,211.5c0-1.9,2-3.1,5-3.1s5,1.2,5,3.1-2,3.2-5,3.2-5-1.2-5-3.2ZM411.1,211.5c0,1.3,1.5,2.1,3.7,2.1s3.7-.8,3.7-2.1-1.5-2.1-3.7-2.1-3.7.8-3.7,2.1Z"/>
  </g>
  <g>
    <path class="cls-2" d="M197.6,238.7c-2,.4-3.7.5-6.7.5h-1.1v-6.3h6.3v1.1h-5v4.2c2.8,0,4.5,0,6.4-.5v1.1ZM200.4,243.4c0,1.7-1.8,2.8-4.7,2.8s-4.7-1-4.7-2.8,1.8-2.8,4.7-2.8,4.7,1,4.7,2.8ZM199.1,243.4c0-1.1-1.3-1.7-3.4-1.7s-3.4.6-3.4,1.7,1.3,1.7,3.4,1.7,3.4-.6,3.4-1.7ZM202.4,235.5v1.1h-2.1v3.7h-1.3v-8.5h1.3v3.7h2.1Z"/>
    <path class="cls-2" d="M211.1,239.8c-1.6-.5-3-1.6-3.6-2.9-.6,1.5-1.9,2.7-3.6,3.2l-.6-1c2.1-.7,3.6-2.3,3.6-4.2v-.3h-3.2v-1.1h3.2v-1.7h1.3v1.7h3.2v1.1h-3.2v.3c0,1.8,1.5,3.3,3.6,4l-.6,1ZM205.7,241h9.3v4.9h-9.3v-4.9ZM207,244.9h6.8v-2.8h-6.8v2.8ZM215,231.8v8.5h-1.3v-3.4h-2.8v-1.1h2.8v-4h1.3Z"/>
    <path class="cls-2" d="M225.1,237.9c0,3.1-1.5,5-3.6,5s-3.6-2-3.6-5,1.5-5,3.6-5,3.6,2,3.6,5ZM219.1,237.9c0,2.3,1,3.8,2.4,3.8s2.4-1.5,2.4-3.8-1-3.8-2.4-3.8-2.4,1.5-2.4,3.8ZM229.1,231.8v14.4h-1.3v-14.4h1.3Z"/>
    <path class="cls-2" d="M243.9,240.3c-1.3.2-2.8.4-4.1.4v4.9h-1.3v-4.8c-1.4,0-2.8,0-4,0l-.2-1.1c2.7,0,6.3,0,9.5-.5v1ZM235,237.8c2.1-.5,3.5-1.8,3.5-3.3h0s-3.2,0-3.2,0v-1h3.2v-1.6h1.3v1.6h3.2v1h-3.2c0,1.5,1.4,2.7,3.4,3.2l-.5,1c-1.6-.4-2.9-1.3-3.5-2.4-.6,1.3-1.9,2.2-3.6,2.6l-.6-1ZM246.1,231.8v14.4h-1.3v-14.4h1.3Z"/>
    <path class="cls-2" d="M261.5,243.2v1.1h-13v-1.1h5.8v-3.5h1.3v3.5h5.9ZM260.3,239.9c-2.2-.5-4.4-2-5.4-4-.9,2-3.2,3.5-5.4,4l-.5-1.1c2.5-.4,5.2-2.6,5.2-4.9v-1.1h1.4v1.1c0,2.4,2.7,4.5,5.2,4.9l-.6,1.1Z"/>
    <path class="cls-2" d="M271.9,239.1c-3.1.5-6.6.6-9.1.6l-.2-1.1c1.2,0,2.6,0,4,0v-1.5h-2.8v-4.5h6.8v1.1h-5.5v2.4h5.6v1.1h-2.8v1.5c1.3,0,2.6-.2,3.9-.4v.9ZM273,240.7h1.3v5.2h-9.4v-5.2h1.3v1.5h6.8v-1.5ZM273,243.2h-6.8v1.7h6.8v-1.7ZM274.3,231.8v8.3h-1.3v-8.3h1.3Z"/>
    <path class="cls-2" d="M278.9,241.3c2.2,0,4.4-.2,6.8-.7v1.1c-2.4.5-4.6.7-6.9.7h-1.2v-9.3h1.3v8.1ZM288.4,231.8v14.3h-1.3v-14.3h1.3Z"/>
    <path class="cls-2" d="M292.7,241.4c2.5,0,4.4-.1,6.5-.5v1.1c-2,.4-3.9.5-6.6.5h-1.1v-9.4h6.7v1.1h-5.4v7.2ZM304.2,238.5h-2.4v7.6h-1.3v-14.4h1.3v5.7h2.4v1.1Z"/>
    <path class="cls-2" d="M305.2,244c0-.7.5-1.1,1.1-1.1s1.1.5,1.1,1.1-.5,1.1-1.1,1.1-1.1-.4-1.1-1.1Z"/>
  </g>
</svg>