<?xml version="1.0" encoding="UTF-8"?>
<svg id="_레이어_1" data-name="레이어 1" xmlns="http://www.w3.org/2000/svg" version="1.1" viewBox="0 0 497.7 263">
  <defs>
    <style>
      .cls-1 {
        fill: #8db2de;
      }

      .cls-1, .cls-2, .cls-3 {
        stroke-width: 0px;
      }

      .cls-2 {
        fill: #b2b1b2;
      }

      .cls-3 {
        fill: #fff;
      }
    </style>
  </defs>
  <rect class="cls-3" width="497.7" height="263" rx="14.2" ry="14.2"/>
  <path class="cls-2" d="M157.9,178.3c-13.9,0-25.2,11.3-25.2,25.2s11.3,25.2,25.2,25.2h181.7c13.9,0,25.2-11.3,25.2-25.2s-11.3-25.2-25.2-25.2h-181.7Z"/>
  <g>
    <path class="cls-3" d="M229.4,193.3h11v2.6h-8.1v4.8c3.2-.1,6.9-.4,9.7-.9v2.6c-3.8.7-8.8,1-12.6,1v-10.1ZM229.9,205h16.6v2.6h-13.6v2.8c4.8-.1,9.4-.4,13.8-1.2v2.6c-5.3.9-10.9,1.2-16.8,1.3v-8.1ZM243.5,192.8h3v4.3h2.3v2.8h-2.3v4.3h-3v-11.3Z"/>
    <path class="cls-3" d="M250.4,209.4c4.4-.6,8.5-4.1,8.5-11.1v-2.3h-8v-2.7h11v5c0,7.8-4.6,13.1-11.5,13.9v-2.8ZM265.1,192.8h3v20.1h-3v-20.1Z"/>
  </g>
  <g>
    <path class="cls-1" d="M133.3,57.4h14.4v3.4h-10.6v6.2c4.2-.2,8.9-.6,12.7-1.2v3.4c-4.9.9-11.5,1.3-16.5,1.4v-13.2ZM133.6,77.8c0-2.9,2.3-5.2,5.2-5.2h11.9c2.8,0,5.2,2.3,5.2,5.2s-2.3,5.2-5.2,5.2h-11.9c-2.8,0-5.2-2.3-5.2-5.2ZM139.1,79.6h11.2c1,0,1.7-.8,1.7-1.8s-.8-1.8-1.7-1.8h-11.2c-1,0-1.7.8-1.7,1.8s.8,1.8,1.7,1.8ZM151.6,56.8h3.9v5.5h3v3.6h-3v5.8h-3.9v-15Z"/>
    <path class="cls-1" d="M160.9,67.5c3.2-.5,6.2-3,6.2-5.4v-.4h-5.9v-3.4h5.9v-2.2h3.9v2.2h5.8v3.4h-5.8v.4c0,2.4,3,4.9,6.1,5.4v3.5c-2.8-.4-6.3-2.1-8.1-4.6-1.8,2.5-5.2,4.2-8.1,4.6v-3.5ZM161.8,72.9h21.9v8.8c-6.9,1.2-14.3,1.5-21.9,1.6v-10.4ZM179.9,78.9v-2.6h-14.3v3.6c4.9-.1,9.7-.4,14.3-1ZM175.9,62.8h3.9v-6h3.9v14.9h-3.9v-5.5h-3.9v-3.4Z"/>
    <path class="cls-1" d="M196,67.2c3.2-.6,6.2-3.4,6.2-5.9v-.5h-5.8v-3.4h15.6v3.4h-5.8v.5c0,2.5,3,5.3,6.1,5.9v3.6c-2.9-.4-6.3-2.3-8.1-4.9-1.8,2.6-5.2,4.5-8.1,4.9v-3.6ZM196.6,78c0-2.8,2.2-5,5-5h12.4c2.8,0,5,2.2,5,5s-2.2,5-5,5h-12.4c-2.8,0-5-2.2-5-5ZM202,79.6h11.7c.9,0,1.6-.8,1.6-1.7s-.7-1.7-1.6-1.7h-11.7c-.9,0-1.6.8-1.6,1.7s.7,1.7,1.6,1.7ZM211,62.2h3.9v-5.4h3.9v15.2h-3.9v-6.4h-3.9v-3.5Z"/>
    <path class="cls-1" d="M223,69.3h19.5v-5.4h-2.2v-3.2h2.2v-3.9h3.9v19.3h-3.9v-3.5h-8.4v3.8h-3.9v-3.8h-7.2v-3.2ZM228.8,57.4h5.7c2.7,0,4.9,2.2,4.9,5s-2.2,4.9-4.9,4.9h-5.7c-2.7,0-4.9-2.2-4.9-4.9s2.2-5,4.9-5ZM228.4,74.8v5.1c6.3-.1,12.5-.5,18.3-1.6v3.3c-7,1.2-14.5,1.5-22.2,1.6v-8.5h3.9ZM229.4,64.2h4.5c1,0,1.8-.8,1.8-1.8s-.8-1.8-1.8-1.8h-4.5c-1,0-1.8.8-1.8,1.8s.8,1.8,1.8,1.8Z"/>
    <path class="cls-1" d="M251.5,75.2v-10.9c0-4.1,3.2-7.2,7.2-7.2s7.2,3.1,7.2,7.2v10.9c0,4.1-3.2,7.2-7.2,7.2s-7.2-3.1-7.2-7.2ZM258.7,78.9c1.9,0,3.4-1.6,3.4-3.7v-10.9c0-2.1-1.5-3.7-3.4-3.7s-3.4,1.6-3.4,3.7v10.9c0,2.1,1.5,3.7,3.4,3.7ZM270.1,56.8h3.9v26.2h-3.9v-26.2Z"/>
    <path class="cls-1" d="M286.6,78.4c0-2.5,2-4.6,4.6-4.6h4.9v-1.9h-10.3v-3.3h24.6v3.3h-10.3v1.9h4.9c2.5,0,4.6,2,4.6,4.6s-2,4.6-4.6,4.6h-13.7c-2.5,0-4.6-2-4.6-4.6ZM286.6,64.2c3.8,0,8.3-1.1,9.3-2.9h-9v-3.2h9.1v-1.9h3.9v1.9h9.2v3.2h-9c1,1.7,5.5,2.9,9.3,2.9v3.2c-3.9,0-9.1-1.2-11.4-3.5-2.2,2.3-7.5,3.5-11.4,3.5v-3.2ZM291.7,79.8h12.5c.8,0,1.4-.6,1.4-1.4s-.6-1.4-1.4-1.4h-12.5c-.8,0-1.4.6-1.4,1.4s.6,1.4,1.4,1.4Z"/>
    <path class="cls-1" d="M313.3,69.3h10.3v-2.6h3.9v2.6h10.3v3.3h-24.6v-3.3ZM314.2,64.3c4.1,0,9.3-1.5,9.5-3.7h-9.1v-3.2h22.2v3.2h-9.2c.2,2.2,5.3,3.7,9.5,3.7v3.2c-3.9,0-9.1-1.3-11.4-3.7-2.2,2.4-7.5,3.7-11.4,3.7v-3.2ZM332.8,77.9h-18.3v-3.3h22.2v8.4h-3.9v-5.1Z"/>
    <path class="cls-1" d="M345.6,60.7v8.4c2.6-.2,5.5-.4,7.7-.7v3.4c-1.2.2-2.5.3-3.9.4v5.6c1.8-.1,3.6-.3,5.4-.6v-20.4h3.7v10.5h1.9v-10.6h3.8v26.2h-3.8v-12.1h-1.9v11.9h-3.7v-2.1c-4.8.7-9.6.9-14,1v-3.4c1.6,0,3.2,0,4.8-.1v-5.6c-1.3,0-2.6.1-3.8.1v-15.2h11.3v3.4h-7.6Z"/>
  </g>
  <g>
    <path class="cls-1" d="M104.8,121.2v-10.9c0-4.1,3.2-7.2,7.2-7.2s7.2,3.1,7.2,7.2v10.9c0,4.1-3.2,7.2-7.2,7.2s-7.2-3.1-7.2-7.2ZM112,124.9c1.9,0,3.4-1.6,3.4-3.7v-10.9c0-2.1-1.5-3.7-3.4-3.7s-3.4,1.6-3.4,3.7v10.9c0,2.1,1.5,3.7,3.4,3.7ZM123.4,102.8h3.9v26.2h-3.9v-26.2Z"/>
    <path class="cls-1" d="M132.4,103.4h3.7v3.8h3.7v-3.8h3.7v5.4h2.3v-5.8h3.7v18.1h-3.7v-8.8h-2.3v5.4h-11v-14.1ZM136.9,119.9v5.8c6.3-.2,12.5-.5,18.3-1.6v3.5c-7,1.2-14.5,1.5-22.2,1.6v-9.4h3.9ZM139.7,114.2v-3.9h-3.7v3.9h3.7ZM151.1,102.8h3.8v18.5h-3.8v-18.5Z"/>
    <path class="cls-1" d="M183.7,122.8v3.5c-7.6,1.4-16.3,1.7-24.6,1.8v-3.5c8.3,0,17-.4,24.6-1.8ZM160.3,103.4h22.2v3.4h-18.4v3.1h18.1v3.3h-18.1v3.7c6.4-.2,12.7-.5,18.6-1.6v3.4c-7,1.2-14.6,1.5-22.3,1.6v-16.9Z"/>
    <path class="cls-1" d="M197.8,109.9v-3h-10.5v-3.5h14.4v6.5c0,10.2-6.1,17.1-15,18.2v-3.7c5.7-.8,11.1-5.3,11.1-14.5ZM205.6,102.8h3.9v10.2h3v3.7h-3v12.3h-3.9v-26.2Z"/>
    <path class="cls-1" d="M221.8,114.8h10.3v-2.5h3.9v2.5h10.3v3.3h-24.6v-3.3ZM222.7,110c4,0,9-1.3,9.4-3.4h-9.1v-3.2h22.2v3.2h-9.1c.5,2,5.4,3.4,9.4,3.4v3.2c-3.9,0-9.1-1.2-11.4-3.6-2.2,2.3-7.5,3.6-11.4,3.6v-3.2ZM222.7,124.4c0-2.5,2-4.6,4.6-4.6h13.7c2.5,0,4.6,2,4.6,4.6s-2,4.6-4.6,4.6h-13.7c-2.5,0-4.6-2-4.6-4.6ZM227.8,125.8h12.5c.8,0,1.4-.6,1.4-1.4s-.6-1.4-1.4-1.4h-12.5c-.8,0-1.4.6-1.4,1.4s.6,1.4,1.4,1.4Z"/>
    <path class="cls-1" d="M254.4,124.5v-4.4c-1.3,0-2.6,0-3.9,0v-10.4h18.4v-3h-18.4v-3.4h22.2v9.7h-18.4v3.6c6.4-.2,12.7-.5,18.6-1.6v3.4c-1.3.2-2.7.4-4,.6v4.4c1.7-.2,3.4-.5,5.1-.8v3.5c-7.6,1.4-16.3,1.7-24.6,1.8v-3.5c1.7,0,3.4,0,5.1,0ZM265.1,123.9v-4.4c-2.3.2-4.6.3-6.9.4v4.4c2.3-.1,4.6-.2,6.9-.4Z"/>
    <path class="cls-1" d="M277,114.8h4.8v-2h-3.8v-9.4h11.3v3.1h-7.6v3.1h7.7v3.1h-3.9v2h5.4v-11.9h3.7v5.8h1.9v-5.9h3.8v15.7h-3.8v-6.4h-1.9v5.9h-17.7v-3.2ZM278.2,125.6c1.9-.3,4.5-2.3,4.5-4.9v-1h3.8v1c0,2.6,2,4.5,3.1,4.9,1.1-.4,3.1-2.3,3.1-4.9v-1h3.8v1c0,2.6,2.6,4.6,4.5,4.9v3.4c-1.9-.2-4.7-1.6-6.3-3.9-1.3,2.2-3.8,3.7-5.1,3.9-1.3-.2-3.7-1.7-5.1-3.9-1.6,2.3-4.4,3.7-6.3,3.9v-3.4Z"/>
    <path class="cls-1" d="M304.6,114.1h24.6v3.3h-24.6v-3.3ZM305.5,109.1c4.2,0,9.4-1.7,9.4-4.6v-1.3h3.9v1.3c0,2.9,5.2,4.6,9.5,4.6v3.4c-3.9,0-9.1-1.4-11.4-4.2-2.2,2.8-7.5,4.2-11.4,4.2v-3.4ZM309.5,119v1.7h14.6v-1.7h3.8v8.7c-7.2,1.2-15,1.5-22.2,1.6v-10.3h3.8ZM324.2,125.1v-1.2h-14.6v2.2c4.8-.1,9.8-.4,14.6-1Z"/>
    <path class="cls-1" d="M333.1,103.4h3.9v21c4.3-.2,9.1-.7,12.9-1.5v3.6c-4.9,1-11.6,1.5-16.8,1.6v-24.7ZM351.7,102.8h3.9v26.2h-3.9v-26.2Z"/>
    <path class="cls-1" d="M374.8,103.4v3.5h-10.6v17.5c4.4-.2,9.2-.7,13-1.5v3.5c-4.9,1-11.6,1.5-16.8,1.6v-24.7h14.4ZM378.7,102.8h3.9v10.2h3v3.7h-3v12.3h-3.9v-26.2Z"/>
    <path class="cls-1" d="M388,127.7v-4.8h4.8v4.5c-1.5.2-3.3.3-4.8.3Z"/>
  </g>
</svg>