<?xml version="1.0" encoding="UTF-8"?>
<svg id="_레이어_2" data-name="레이어 2" xmlns="http://www.w3.org/2000/svg" viewBox="0 0 289 341">
  <defs>
    <style>
      .cls-1 {
        fill: #053c95;
      }

      .cls-1, .cls-2, .cls-3, .cls-4 {
        stroke-width: 0px;
      }

      .cls-2 {
        fill: #76f1f2;
      }

      .cls-3 {
        fill: #000;
      }

      .cls-4 {
        fill: #fff;
      }
    </style>
  </defs>
  <g id="_레이어_1-2" data-name="레이어 1">
    <g>
      <circle class="cls-1" cx="108.5" cy="16.5" r="16.5"/>
      <circle class="cls-1" cx="132.5" cy="16.5" r="16.5"/>
      <circle class="cls-1" cx="156.5" cy="16.5" r="16.5"/>
      <circle class="cls-1" cx="180.5" cy="16.5" r="16.5"/>
      <path class="cls-4" d="M105.61,15.19c-.99,1.07-2.45,1.85-4.15,1.89v-2.13c1.49-.12,2.5-1.1,2.88-2.22h-2.73v-2.04h2.82v-1.17h2.58v1.17h2.82v2.04h-2.88c-.06.21-.12.42-.19.63l3.4,1.73-1.1,1.89-3.45-1.78ZM114.83,12.07v2.46h-1.5v2.61h-2.53v-7.4h2.53v2.32h1.5ZM102.02,22.56v-4.97h11.31v4.97h-11.31ZM104.54,19.58v1h6.27v-1h-6.27ZM135.74,9.75h2.49v12.81h-2.49v-3.09h-1.46l.17-2.37h1.29v-2.27h-1.29l-.17-2.37h1.46v-2.72ZM130.04,9.9c2.37,0,3.93,1.89,3.93,6.1s-1.56,6.11-3.93,6.11-3.95-1.89-3.95-6.11,1.58-6.1,3.95-6.1ZM130.04,19.78c.82,0,1.44-.9,1.44-3.78s-.62-3.78-1.44-3.78-1.46.91-1.46,3.78.62,3.78,1.46,3.78ZM162.29,11.95h1.5v2.46h-1.5v2.56h-2.53v-7.23h2.53v2.2ZM158.36,9.9v6.6h-7.82v-6.6h2.46v1.28h2.89v-1.28h2.46ZM153.01,14.46h2.89v-1.31h-2.89v1.31ZM156.64,17.19c3.23,0,5.78.7,5.78,2.76s-2.55,2.76-5.78,2.76-5.77-.7-5.77-2.76,2.55-2.76,5.77-2.76ZM156.64,20.72c1.7,0,3.04-.19,3.04-.76s-1.35-.77-3.04-.77-3.04.21-3.04.77,1.35.76,3.04.76ZM184.65,9.75h2.53v6.84h-2.53v-2.32h-1.74v2.09h-7.82v-6.45h2.46v1.26h2.89v-1.26h2.46v2h1.74v-2.15ZM177.56,14.37h2.89v-1.29h-2.89v1.29ZM184.7,17.82v-.78h2.49v5.52h-11.46v-5.52h2.49v.78h6.48ZM178.22,20.59h6.48v-.85h-6.48v.85Z"/>
      <path class="cls-4" d="M69.49,190.73c.2-.04.4-.08.59-.13.19-.05.39-.1.58-.17.38-.13.75-.27,1.1-.43.72-.32,1.38-.68,1.98-1.1.6-.44,1.14-.94,1.61-1.46.47-.53.88-1.09,1.21-1.69.33-.61.58-1.25.76-1.9.35-1.3.4-2.68.14-4.06.26,1.39.8,2.66,1.6,3.76.1.14.2.27.31.4.11.13.22.25.34.38.23.25.48.48.74.7.53.44,1.11.83,1.74,1.16.32.17.64.32.99.45.34.13.69.23,1.05.32.72.18,1.47.3,2.26.34.1,0,.2,0,.3.01h.29c.2,0,.39-.01.59-.03.4-.03.8-.07,1.21-.14.4-.07.81-.15,1.22-.25.4-.12.8-.26,1.21-.41.4-.16.79-.33,1.17-.51.18-.09.37-.19.55-.29.18-.1.35-.21.53-.32.68-.45,1.31-.96,1.86-1.49.14-.14.28-.27.4-.41.13-.15.25-.29.37-.44.24-.3.46-.6.66-.91.2-.31.39-.62.55-.95.16-.32.31-.64.43-.98.49-1.35.66-2.72.52-4.06-.07-.66-.23-1.33-.46-1.98-.23-.65-.53-1.27-.9-1.87.75,1.2,1.71,2.18,2.85,2.91,1.14.72,2.48,1.21,3.88,1.34.71.07,1.43.07,2.18,0,.38-.04.74-.1,1.11-.19.37-.09.74-.19,1.11-.32.74-.25,1.48-.56,2.17-.99.7-.42,1.38-.91,2.02-1.48.62-.59,1.18-1.21,1.66-1.87.12-.16.24-.33.35-.49.11-.17.21-.34.31-.52.19-.35.38-.7.53-1.05.65-1.4.93-2.9.92-4.3,0-.35-.02-.7-.07-1.04-.05-.35-.12-.69-.2-1.02-.17-.67-.41-1.31-.72-1.91-.62-1.2-1.51-2.25-2.65-3.1,1.13.85,2.4,1.44,3.72,1.7,1.32.26,2.72.22,4.11-.14.68-.19,1.35-.46,2.01-.8.66-.34,1.32-.75,1.9-1.26.59-.5,1.16-1.07,1.68-1.7.5-.64.94-1.36,1.34-2.12.4-.76.68-1.55.88-2.34.11-.4.19-.79.26-1.18.03-.2.07-.39.08-.59.02-.2.03-.39.04-.59.03-.78-.01-1.54-.12-2.27-.03-.18-.06-.36-.1-.54-.04-.18-.09-.35-.14-.53-.1-.35-.22-.69-.35-1.02-.54-1.32-1.31-2.45-2.35-3.35-1.02-.9-2.24-1.55-3.6-1.93,1.36.38,2.74.47,4.08.24,1.36-.22,2.61-.78,3.77-1.62.29-.21.57-.44.84-.68.14-.12.27-.25.4-.38.12-.13.25-.27.37-.41.48-.56.91-1.18,1.3-1.86.4-.68.68-1.42.93-2.19.12-.39.22-.79.31-1.2.04-.21.08-.41.11-.62.03-.21.05-.42.06-.63.07-.85.06-1.69-.02-2.49-.02-.2-.05-.4-.09-.6-.04-.2-.08-.39-.12-.59-.09-.39-.19-.76-.32-1.13-.24-.73-.54-1.42-.94-2.06-.38-.64-.82-1.22-1.3-1.73-.24-.26-.49-.5-.75-.72-.27-.22-.55-.43-.84-.62-.58-.38-1.19-.69-1.83-.93-1.27-.47-2.64-.64-4.05-.51.71-.07,1.39-.2,2.04-.41.66-.21,1.29-.49,1.86-.83,1.16-.69,2.15-1.66,2.93-2.86.1-.15.19-.3.28-.46.08-.15.17-.31.24-.47.15-.32.3-.66.42-1.01.25-.69.45-1.44.56-2.21.18-1.53.12-3.2-.38-4.84-.44-1.66-1.28-3.11-2.24-4.31-.5-.6-1.06-1.12-1.64-1.59-.58-.46-1.18-.85-1.84-1.15-1.3-.61-2.66-.91-4-.9-1.36.02-2.71.36-3.98.99,1.27-.63,2.34-1.49,3.17-2.56.42-.54.77-1.12,1.07-1.75.15-.32.26-.63.37-.96.11-.33.19-.67.26-1.01.14-.69.2-1.42.2-2.17-.02-.74-.13-1.48-.31-2.24-.09-.38-.2-.76-.32-1.14-.13-.37-.3-.74-.47-1.11-.18-.36-.37-.73-.59-1.09-.22-.36-.44-.72-.71-1.05-.53-.67-1.1-1.28-1.71-1.83-.3-.28-.63-.51-.96-.74-.33-.23-.66-.43-1-.62-.34-.19-.68-.36-1.02-.51-.34-.15-.71-.27-1.06-.38-.71-.21-1.43-.35-2.13-.41-.7-.07-1.41-.03-2.09.07-.68.11-1.34.29-1.97.54-1.26.5-2.38,1.3-3.34,2.34.96-1.05,1.65-2.24,2.04-3.53.19-.65.31-1.31.35-2,.02-.34.02-.69,0-1.04-.02-.35-.05-.71-.12-1.05-.13-.69-.33-1.38-.61-2.07-.14-.34-.3-.69-.48-1.02-.18-.33-.39-.65-.61-.97-.45-.63-.96-1.25-1.54-1.82-.6-.55-1.27-1.06-1.99-1.52-.18-.11-.36-.22-.55-.33-.19-.1-.38-.19-.56-.28-.38-.18-.76-.34-1.15-.48-.38-.14-.77-.26-1.15-.36-.38-.1-.78-.16-1.17-.22-.78-.11-1.54-.14-2.27-.1-.74.05-1.46.2-2.14.4-.68.2-1.32.47-1.92.8-.6.34-1.15.76-1.65,1.22-.99.93-1.76,2.07-2.27,3.38.51-1.31.72-2.68.62-4.03-.05-.69-.19-1.34-.4-1.99-.21-.65-.5-1.28-.87-1.89-.18-.31-.38-.61-.6-.9-.22-.29-.46-.55-.72-.82-.52-.53-1.1-1.02-1.74-1.47-.08-.06-.16-.11-.24-.17-.08-.05-.17-.1-.25-.15-.17-.1-.34-.19-.52-.29-.35-.18-.72-.36-1.1-.51-.38-.16-.77-.3-1.17-.43-.4-.11-.82-.2-1.24-.28-.42-.07-.84-.13-1.26-.17-.42-.04-.83-.07-1.24-.04-.82.03-1.62.13-2.37.3-.76.15-1.48.43-2.15.75-.67.32-1.29.69-1.85,1.12-1.12.88-2,1.98-2.59,3.18-.59,1.21-.88,2.56-.88,3.97,0-1.41-.3-2.76-.88-3.97-.59-1.21-1.46-2.31-2.59-3.18-.56-.43-1.18-.8-1.85-1.12-.67-.31-1.39-.6-2.15-.75-.76-.17-1.55-.27-2.37-.3-.41-.02-.82,0-1.24.04-.42.04-.84.09-1.26.17-.42.07-.84.17-1.24.28-.4.13-.79.27-1.17.43-.38.16-.75.33-1.1.51-.18.09-.35.19-.52.29-.08.05-.17.1-.25.15-.08.05-.16.11-.24.17-.64.45-1.23.94-1.74,1.47-.26.26-.5.54-.72.82-.22.29-.42.59-.6.9-.37.61-.66,1.25-.87,1.89-.21.65-.35,1.3-.4,1.99-.1,1.35.11,2.71.62,4.03-.51-1.31-1.28-2.46-2.27-3.38-.49-.46-1.05-.88-1.65-1.22-.6-.33-1.24-.6-1.92-.8-.68-.2-1.4-.34-2.14-.4-.74-.04-1.5,0-2.27.1-.38.06-.78.12-1.16.22-.38.1-.77.22-1.15.36-.38.14-.77.3-1.15.48-.19.09-.38.18-.56.28-.19.11-.37.22-.55.33-.72.46-1.39.97-1.99,1.52-.59.57-1.1,1.19-1.54,1.82-.22.32-.43.64-.61.97-.18.34-.34.68-.48,1.02-.28.69-.49,1.38-.61,2.07-.07.34-.1.7-.12,1.05-.02.35-.02.7,0,1.04.04.69.16,1.35.35,2,.38,1.29,1.08,2.48,2.03,3.53-.96-1.05-2.09-1.84-3.34-2.34-.63-.25-1.29-.43-1.97-.54-.68-.1-1.39-.14-2.09-.07-.7.06-1.42.2-2.13.41-.35.11-.72.23-1.06.38-.34.15-.69.33-1.02.51-.34.19-.68.4-1,.62-.33.23-.66.47-.96.74-.6.54-1.18,1.16-1.71,1.83-.27.33-.49.69-.71,1.05-.21.36-.41.72-.59,1.09-.18.37-.34.73-.47,1.11-.13.38-.23.76-.32,1.14-.18.76-.29,1.51-.31,2.24,0,.75.06,1.47.2,2.17.07.35.15.69.26,1.01.11.33.22.65.37.96.29.63.65,1.21,1.07,1.75.83,1.07,1.91,1.93,3.17,2.56-1.27-.63-2.62-.97-3.98-.99-1.35-.01-2.7.29-4,.9-.66.3-1.25.69-1.84,1.15-.58.46-1.14.99-1.64,1.59-.96,1.21-1.8,2.66-2.24,4.31-.5,1.64-.55,3.31-.38,4.84.11.77.31,1.51.56,2.21.13.35.27.68.42,1.01.08.16.16.32.24.47.09.16.19.31.28.46.79,1.19,1.78,2.17,2.93,2.86.57.35,1.2.62,1.86.83.65.21,1.34.34,2.04.41-1.41-.13-2.78.04-4.05.51-.64.24-1.25.54-1.83.93-.29.19-.57.4-.84.62-.26.22-.51.46-.75.72-.48.51-.92,1.1-1.3,1.73-.4.64-.69,1.33-.94,2.06-.12.37-.23.75-.32,1.13-.04.19-.08.39-.12.59-.04.2-.07.4-.09.6-.08.81-.09,1.64-.02,2.49.02.21.04.42.06.63.03.21.08.41.11.62.09.41.19.81.31,1.2.24.78.53,1.52.93,2.19.38.68.82,1.3,1.3,1.86.12.14.24.28.37.41.13.13.26.26.4.38.27.25.55.47.84.68,1.16.84,2.4,1.39,3.77,1.62,1.34.23,2.72.14,4.08-.24-1.36.39-2.58,1.04-3.6,1.93-1.04.9-1.81,2.03-2.35,3.35-.13.33-.25.67-.35,1.02-.05.18-.1.35-.14.53-.04.18-.07.36-.1.54-.11.73-.15,1.49-.12,2.27,0,.19.02.39.04.59.02.2.05.39.08.59.07.39.15.79.26,1.18.21.79.48,1.59.88,2.34.39.76.83,1.48,1.34,2.12.52.63,1.08,1.2,1.67,1.7.58.51,1.24.92,1.9,1.26.66.34,1.33.61,2.01.8,1.39.36,2.79.4,4.11.14,1.32-.26,2.59-.84,3.72-1.7-1.13.85-2.03,1.9-2.65,3.1-.31.6-.55,1.24-.72,1.91-.08.33-.15.68-.2,1.02-.04.34-.06.69-.07,1.04,0,1.41.26,2.91.92,4.3.16.36.34.71.53,1.05.1.18.2.35.31.52.11.17.23.33.35.49.49.65,1.04,1.28,1.66,1.87.64.57,1.32,1.05,2.02,1.48.69.43,1.43.74,2.18.99.37.12.74.23,1.11.32.37.09.73.16,1.11.19.75.07,1.47.08,2.18,0,1.4-.13,2.74-.62,3.88-1.34,1.14-.73,2.1-1.71,2.85-2.91-.37.6-.68,1.22-.9,1.87-.23.65-.38,1.31-.45,1.98-.14,1.34.04,2.71.52,4.06.12.34.27.65.43.98.16.32.35.64.55.95.2.31.42.61.66.91.12.15.24.29.37.44.13.15.26.28.4.41.56.54,1.18,1.04,1.86,1.49.17.11.34.23.53.32.18.1.37.2.55.29.38.18.76.36,1.16.51.4.16.8.29,1.2.41.41.1.82.18,1.22.25.41.07.81.11,1.2.14.2.01.4.02.59.03h.3c.1,0,.19,0,.3-.01.78-.04,1.54-.16,2.26-.34.36-.09.71-.2,1.05-.32.34-.14.67-.29.99-.45.64-.33,1.22-.72,1.74-1.16.26-.22.51-.45.74-.7.11-.12.23-.25.34-.38.11-.13.21-.27.31-.4.8-1.1,1.34-2.37,1.6-3.76-.26,1.39-.21,2.76.14,4.06.18.65.43,1.29.76,1.9.33.59.73,1.15,1.2,1.69.47.53,1.01,1.02,1.61,1.46.6.42,1.27.79,1.98,1.1.36.16.72.3,1.1.43.19.07.38.12.58.17.19.05.39.09.59.13.8.16,1.63.25,2.49.27.86-.02,1.69-.11,2.49-.27h0Z"/>
      <path class="cls-3" d="M25.33,130.1h-5.51v2.46h4.01v4.53h-1.23v-3.54h-8.19v-.99h4.19v-2.46h-5.47v-1h9.06c.36-1.62.36-2.81.36-3.81h-7.86v-.99h9.08v.97c0,1,0,2.24-.33,3.83h1.9v1ZM37.21,123.67v9.66h-1.23v-9.66h1.23ZM31.96,130.09v-4.27h-3.89v4.27h3.89ZM33.16,124.82v6.26h-6.28v-6.26h6.28ZM29.78,135.67h7.83v.99h-9.06v-4.25h1.23v3.26ZM40.6,127.89c0,1.33.97,2.29,2.29,2.29s2.28-.96,2.28-2.29-.97-2.3-2.28-2.3-2.29.96-2.29,2.3ZM49.06,126.76h-2.89c.12.35.18.72.18,1.12s-.06.76-.18,1.11h2.89v-2.23ZM49.06,129.99h-3.4c-.63.79-1.61,1.27-2.76,1.27-1.98,0-3.46-1.41-3.46-3.37s1.49-3.38,3.46-3.38c1.15,0,2.11.48,2.75,1.26h3.42v-2.1h1.25v9.93h-1.25v-3.62ZM42.94,135.8h7.74v1.01h-8.99v-4.23h1.24v3.22ZM54.97,133.13v2.81h6.76v-2.81h-6.76ZM53.77,136.93v-4.78h9.18v4.78h-9.18ZM62.54,129.32h1.94v.99h-12.23v-.99h9.04c.39-1.68.39-2.91.39-3.96h-7.88v-.99h9.09v.99c0,1.05,0,2.28-.36,3.96ZM80.1,130.32v1.01h-5.49v5.8h-1.25v-5.8h-5.43v-1.01h8.93c.42-1.93.42-3.36.42-4.62v-.18h-7.83v-.99h9.03v1.17c0,1.26,0,2.69-.38,4.62h1.99ZM82.32,133.66v-1.01h9.35v4.56h-1.25v-3.55h-8.1ZM87.67,130.36h5.47v.99h-12.18v-.99h5.47v-1.6h-3.94v-4.56h9.14v.99h-7.91v2.58h8.03v.99h-4.08v1.6ZM105.06,123.65v9.87h-1.23v-9.87h1.23ZM102.12,130.36l-.64.98c-1.53-.59-2.72-1.8-3.32-3.33-.57,1.63-1.79,2.94-3.36,3.6l-.65-1c2.02-.78,3.38-2.73,3.38-4.83v-1.36h1.23v1.36c0,2.03,1.37,3.86,3.36,4.59ZM97.63,135.8h7.83v1.01h-9.06v-4.2h1.23v3.19ZM114.22,127.48h2.69v-3.83h1.24v8.16h-1.24v-3.32h-2.69v-1.02ZM115.03,130.3l-.57.94c-1.54-.48-2.77-1.49-3.39-2.79-.57,1.47-1.79,2.61-3.38,3.13l-.6-.94c1.98-.68,3.33-2.31,3.33-4.13v-.25h-2.99v-.99h2.99v-1.68h1.23v1.68h2.97v.99h-2.97v.25c0,1.68,1.39,3.18,3.38,3.78ZM113.7,136.13c2.06,0,3.27-.57,3.27-1.51s-1.21-1.5-3.27-1.5-3.24.57-3.24,1.5,1.22,1.51,3.24,1.51ZM113.7,132.16c2.79,0,4.5.9,4.5,2.46s-1.71,2.48-4.5,2.48-4.47-.9-4.47-2.48,1.71-2.46,4.47-2.46ZM46.03,154.73v-3.54h-3.75v3.54h3.75ZM50.38,145.65h1.23v13.49h-1.23v-7.5h-3.15v4.1h-6.17v-9.01h1.22v3.49h3.75v-3.49h1.2v3.93h3.15v-4.99ZM64.29,150.89v.96h-9.14v-5.7h9.06v.96h-7.83v1.41h7.47v.93h-7.47v1.44h7.91ZM56.36,155.07v2.73h8.1v1.01h-9.33v-3.74h1.23ZM53.55,153.11h12.17v.99h-12.17v-.99ZM71.91,156.56v1.41h8.51v.96h-9.72v-3.28h8.04v-1.26h-8.07v-.96h9.27v3.13h-8.03ZM79.54,151.16h1.83v.99h-12.12v-.99h9.04c.14-.63.21-1.2.27-1.71l-7.97.36-.15-.97,8.17-.26c.01-.45.01-.87.01-1.26v-.05h-7.86v-.97h9.08v1.02c0,1.05,0,2.25-.32,3.84ZM90.45,151.7l.14.99c-2.21.36-4.04.43-6.53.43h-1.08v-3.88h4.86v-1.79h-4.9v-1.01h6.12v3.74h-4.88v1.93c2.38,0,4.14-.07,6.27-.42ZM84.33,155.62v-1.01h8.99v4.5h-1.23v-3.49h-7.75ZM92.08,145.67h1.23v8.22h-1.23v-8.22Z"/>
      <path class="cls-2" d="M70.27,85.8v26.08h-5.79v-21.02h-4.61v-5.06h10.4Z"/>
      <path class="cls-4" d="M224.49,190.73c.2-.04.4-.08.59-.13.19-.05.39-.1.58-.17.38-.13.75-.27,1.1-.43.71-.32,1.38-.68,1.98-1.1.6-.44,1.14-.94,1.61-1.46.47-.53.88-1.09,1.21-1.69.33-.61.58-1.25.76-1.9.35-1.3.4-2.68.14-4.06.26,1.39.8,2.66,1.6,3.76.1.14.2.27.31.4.11.13.22.25.33.38.23.25.48.48.74.7.52.44,1.11.83,1.74,1.16.32.17.64.32.99.45.34.13.69.23,1.05.32.72.18,1.47.3,2.26.34.1,0,.2,0,.3.01h.29c.2,0,.39-.01.59-.03.4-.03.8-.07,1.21-.14.4-.07.81-.15,1.22-.25.4-.12.8-.26,1.21-.41.4-.16.79-.33,1.17-.51.18-.09.37-.19.55-.29.18-.1.35-.21.52-.32.68-.45,1.31-.96,1.86-1.49.14-.14.28-.27.4-.41.13-.15.25-.29.37-.44.24-.3.46-.6.66-.91s.39-.62.55-.95c.16-.32.31-.64.43-.98.48-1.35.66-2.72.52-4.06-.07-.66-.23-1.33-.45-1.98-.23-.65-.53-1.27-.9-1.87.75,1.2,1.71,2.18,2.86,2.91,1.14.72,2.48,1.21,3.88,1.34.71.07,1.43.07,2.18,0,.38-.04.74-.1,1.11-.19.37-.09.74-.19,1.11-.32.74-.25,1.48-.56,2.17-.99.7-.42,1.38-.91,2.02-1.48.62-.59,1.18-1.21,1.66-1.87.12-.16.24-.33.35-.49.11-.17.21-.34.31-.52.19-.35.38-.7.53-1.05.65-1.4.93-2.9.92-4.3,0-.35-.02-.7-.07-1.04-.05-.35-.11-.69-.2-1.02-.17-.67-.41-1.31-.72-1.91-.62-1.2-1.51-2.25-2.65-3.1,1.13.85,2.4,1.44,3.72,1.7,1.32.26,2.72.22,4.11-.14.68-.19,1.35-.46,2.01-.8.66-.34,1.32-.75,1.9-1.26.59-.5,1.16-1.07,1.68-1.7.5-.64.94-1.36,1.34-2.12.4-.76.67-1.55.88-2.34.11-.4.19-.79.26-1.18.03-.2.07-.39.08-.59.02-.2.03-.39.04-.59.03-.78-.01-1.54-.12-2.27-.03-.18-.06-.36-.1-.54-.04-.18-.09-.35-.14-.53-.1-.35-.22-.69-.35-1.02-.54-1.32-1.31-2.45-2.35-3.35-1.02-.9-2.24-1.55-3.6-1.93,1.36.38,2.74.47,4.08.24,1.36-.22,2.61-.78,3.77-1.62.29-.21.57-.44.84-.68.14-.12.27-.25.4-.38.12-.13.25-.27.37-.41.48-.56.91-1.18,1.3-1.86.4-.68.68-1.42.93-2.19.12-.39.22-.79.31-1.2.04-.21.08-.41.12-.62.03-.21.05-.42.06-.63.07-.85.06-1.69-.02-2.49-.02-.2-.05-.4-.09-.6-.04-.2-.08-.39-.12-.59-.09-.39-.19-.76-.32-1.13-.24-.73-.54-1.42-.93-2.06-.38-.64-.82-1.22-1.3-1.73-.24-.26-.49-.5-.75-.72-.26-.22-.55-.43-.84-.62-.58-.38-1.19-.69-1.83-.93-1.27-.47-2.64-.64-4.05-.51.71-.07,1.39-.2,2.04-.41.66-.21,1.29-.49,1.86-.83,1.16-.69,2.15-1.66,2.93-2.86.1-.15.19-.3.28-.46.08-.15.17-.31.24-.47.15-.32.3-.66.42-1.01.25-.69.45-1.44.56-2.21.18-1.53.12-3.2-.38-4.84-.44-1.66-1.28-3.11-2.24-4.31-.5-.6-1.06-1.12-1.64-1.59-.58-.46-1.18-.85-1.84-1.15-1.3-.61-2.66-.91-4-.9-1.36.02-2.71.36-3.98.99,1.27-.63,2.34-1.49,3.17-2.56.42-.54.77-1.12,1.07-1.75.15-.32.27-.63.37-.96.11-.33.19-.67.26-1.01.14-.69.2-1.42.2-2.17-.02-.74-.13-1.48-.31-2.24-.09-.38-.2-.76-.32-1.14-.13-.37-.3-.74-.47-1.11-.18-.36-.37-.73-.59-1.09-.22-.36-.44-.72-.71-1.05-.53-.67-1.1-1.28-1.71-1.83-.3-.28-.63-.51-.96-.74-.33-.23-.66-.43-1-.62-.34-.19-.68-.36-1.02-.51-.34-.15-.71-.27-1.06-.38-.71-.21-1.43-.35-2.13-.41-.7-.07-1.41-.03-2.09.07-.68.11-1.34.29-1.97.54-1.26.5-2.38,1.3-3.34,2.34.96-1.05,1.65-2.24,2.03-3.53.19-.65.31-1.31.35-2,.02-.34.02-.69,0-1.04-.02-.35-.05-.71-.12-1.05-.13-.69-.33-1.38-.61-2.07-.14-.34-.3-.69-.48-1.02-.18-.33-.39-.65-.61-.97-.44-.63-.96-1.25-1.54-1.82-.6-.55-1.27-1.06-1.99-1.52-.18-.11-.36-.22-.55-.33-.19-.1-.38-.19-.57-.28-.38-.18-.76-.34-1.15-.48-.38-.14-.77-.26-1.15-.36-.38-.1-.78-.16-1.16-.22-.78-.11-1.54-.14-2.27-.1-.74.05-1.46.2-2.14.4-.68.2-1.32.47-1.92.8-.6.34-1.15.76-1.65,1.22-.99.93-1.76,2.07-2.27,3.38.51-1.31.72-2.68.62-4.03-.05-.69-.19-1.34-.4-1.99-.21-.65-.5-1.28-.87-1.89-.18-.31-.38-.61-.6-.9-.22-.29-.46-.55-.72-.82-.52-.53-1.1-1.02-1.74-1.47-.08-.06-.16-.11-.24-.17-.08-.05-.17-.1-.25-.15-.17-.1-.34-.19-.52-.29-.35-.18-.72-.36-1.1-.51-.38-.16-.77-.3-1.17-.43-.4-.11-.82-.2-1.24-.28-.42-.07-.84-.13-1.26-.17-.42-.04-.83-.07-1.24-.04-.82.03-1.61.13-2.37.3-.76.15-1.48.43-2.15.75-.67.32-1.29.69-1.85,1.12-1.12.88-2,1.98-2.59,3.18-.59,1.21-.88,2.56-.88,3.97,0-1.41-.3-2.76-.88-3.97-.59-1.21-1.47-2.31-2.59-3.18-.56-.43-1.18-.8-1.85-1.12-.67-.31-1.39-.6-2.15-.75-.76-.17-1.55-.27-2.37-.3-.41-.02-.82,0-1.24.04-.42.04-.84.09-1.26.17-.42.07-.84.17-1.24.28-.4.13-.79.27-1.17.43-.38.16-.74.33-1.1.51-.18.09-.35.19-.52.29-.08.05-.17.1-.25.15-.08.05-.16.11-.24.17-.64.45-1.23.94-1.74,1.47-.26.26-.5.54-.72.82-.22.29-.42.59-.6.9-.37.61-.66,1.25-.87,1.89-.21.65-.35,1.3-.4,1.99-.1,1.35.11,2.71.62,4.03-.51-1.31-1.28-2.46-2.27-3.38-.49-.46-1.05-.88-1.65-1.22-.6-.33-1.24-.6-1.92-.8-.68-.2-1.4-.34-2.14-.4-.74-.04-1.5,0-2.27.1-.38.06-.78.12-1.17.22-.38.1-.77.22-1.15.36-.38.14-.77.3-1.15.48-.19.09-.38.18-.56.28-.19.11-.37.22-.55.33-.72.46-1.39.97-1.99,1.52-.59.57-1.1,1.19-1.54,1.82-.22.32-.43.64-.61.97-.18.34-.34.68-.48,1.02-.28.69-.49,1.38-.61,2.07-.07.34-.1.7-.12,1.05-.02.35-.02.7,0,1.04.04.69.16,1.35.35,2,.38,1.29,1.08,2.48,2.04,3.53-.96-1.05-2.09-1.84-3.34-2.34-.63-.25-1.29-.43-1.97-.54-.68-.1-1.39-.14-2.09-.07-.7.06-1.42.2-2.13.41-.35.11-.72.23-1.06.38-.34.15-.69.33-1.02.51-.34.19-.68.4-1,.62-.33.23-.66.47-.96.74-.6.54-1.18,1.16-1.71,1.83-.27.33-.49.69-.71,1.05-.21.36-.41.72-.59,1.09-.18.37-.34.73-.47,1.11-.13.38-.23.76-.32,1.14-.18.76-.29,1.51-.31,2.24,0,.75.06,1.47.2,2.17.07.35.15.69.26,1.01.11.33.22.65.37.96.29.63.65,1.21,1.07,1.75.83,1.07,1.91,1.93,3.17,2.56-1.27-.63-2.62-.97-3.98-.99-1.35-.01-2.7.29-4,.9-.66.3-1.25.69-1.84,1.15-.58.46-1.14.99-1.64,1.59-.96,1.21-1.8,2.66-2.24,4.31-.5,1.64-.55,3.31-.38,4.84.11.77.31,1.51.56,2.21.13.35.27.68.42,1.01.08.16.16.32.24.47.09.16.19.31.28.46.78,1.19,1.78,2.17,2.93,2.86.57.35,1.2.62,1.86.83.65.21,1.34.34,2.04.41-1.41-.13-2.78.04-4.05.51-.64.24-1.25.54-1.83.93-.29.19-.57.4-.84.62-.26.22-.51.46-.75.72-.48.51-.92,1.1-1.3,1.73-.4.64-.69,1.33-.94,2.06-.12.37-.23.75-.32,1.13-.04.19-.08.39-.12.59-.04.2-.07.4-.09.6-.08.81-.09,1.64-.02,2.49.02.21.04.42.06.63.03.21.07.41.11.62.09.41.19.81.31,1.2.24.78.52,1.52.93,2.19.38.68.82,1.3,1.3,1.86.12.14.24.28.37.41.13.13.26.26.4.38.27.25.55.47.84.68,1.16.84,2.41,1.39,3.77,1.62,1.34.23,2.72.14,4.08-.24-1.36.39-2.58,1.04-3.6,1.93-1.04.9-1.81,2.03-2.35,3.35-.13.33-.25.67-.35,1.02-.05.18-.1.35-.14.53-.04.18-.07.36-.1.54-.11.73-.15,1.49-.12,2.27,0,.19.02.39.04.59.02.2.05.39.08.59.07.39.15.79.26,1.18.21.79.48,1.59.88,2.34.39.76.83,1.48,1.34,2.12.52.63,1.08,1.2,1.67,1.7.58.51,1.24.92,1.9,1.26.66.34,1.33.61,2.01.8,1.39.36,2.79.4,4.11.14,1.32-.26,2.59-.84,3.72-1.7-1.13.85-2.03,1.9-2.65,3.1-.31.6-.55,1.24-.72,1.91-.08.33-.15.68-.2,1.02-.04.34-.06.69-.07,1.04,0,1.41.26,2.91.92,4.3.16.36.34.71.53,1.05.1.18.2.35.31.52.11.17.23.33.35.49.49.65,1.04,1.28,1.66,1.87.64.57,1.32,1.05,2.02,1.48.69.43,1.43.74,2.18.99.37.12.74.23,1.11.32.37.09.73.16,1.11.19.75.07,1.47.08,2.18,0,1.4-.13,2.74-.62,3.88-1.34,1.14-.73,2.1-1.71,2.85-2.91-.37.6-.67,1.22-.9,1.87-.23.65-.38,1.31-.46,1.98-.14,1.34.04,2.71.52,4.06.12.34.27.65.43.98.16.32.35.64.55.95.2.31.42.61.66.91.12.15.24.29.37.44.13.15.26.28.4.41.56.54,1.18,1.04,1.86,1.49.17.11.34.23.53.32.18.1.37.2.55.29.38.18.76.36,1.16.51.4.16.8.29,1.21.41.41.1.82.18,1.22.25.4.07.81.11,1.2.14.2.01.4.02.59.03h.3c.1,0,.19,0,.3-.01.78-.04,1.54-.16,2.26-.34.36-.09.71-.2,1.05-.32.34-.14.67-.29.99-.45.63-.33,1.22-.72,1.74-1.16.26-.22.51-.45.74-.7.12-.12.23-.25.34-.38.11-.13.21-.27.31-.4.8-1.1,1.34-2.37,1.6-3.76-.26,1.39-.21,2.76.14,4.06.18.65.43,1.29.76,1.9.33.59.73,1.15,1.2,1.69.47.53,1.01,1.02,1.61,1.46.61.42,1.27.79,1.98,1.1.36.16.72.3,1.1.43.19.07.38.12.58.17.19.05.39.09.59.13.8.16,1.63.25,2.49.27.86-.02,1.69-.11,2.49-.27h0Z"/>
      <path class="cls-3" d="M193.35,140.32v1.01h-5.49v5.8h-1.24v-5.8h-5.43v-1.01h8.92c.42-1.93.42-3.36.42-4.62v-.18h-7.83v-.99h9.03v1.17c0,1.26,0,2.68-.38,4.62h1.99ZM195.57,143.66v-1.01h9.35v4.56h-1.24v-3.55h-8.1ZM200.92,140.36h5.47v.99h-12.18v-.99h5.47v-1.6h-3.94v-4.56h9.13v.99h-7.9v2.58h8.03v.99h-4.08v1.6ZM220.91,133.65v9.87h-1.23v-9.87h1.23ZM217.97,140.36l-.64.98c-1.53-.59-2.72-1.8-3.32-3.33-.57,1.63-1.79,2.94-3.36,3.6l-.65-1c2.03-.78,3.38-2.73,3.38-4.83v-1.37h1.23v1.37c0,2.02,1.37,3.85,3.36,4.59ZM213.49,145.8h7.83v1.01h-9.06v-4.2h1.23v3.19ZM230.08,137.48h2.68v-3.82h1.24v8.16h-1.24v-3.32h-2.68v-1.02ZM230.89,140.3l-.57.94c-1.55-.48-2.77-1.49-3.39-2.79-.57,1.47-1.78,2.61-3.38,3.13l-.6-.94c1.98-.68,3.33-2.31,3.33-4.12v-.26h-2.98v-.99h2.98v-1.68h1.23v1.68h2.97v.99h-2.97v.26c0,1.68,1.39,3.18,3.38,3.78ZM229.55,146.13c2.06,0,3.27-.57,3.27-1.51s-1.21-1.5-3.27-1.5-3.24.57-3.24,1.5,1.21,1.51,3.24,1.51ZM229.55,142.16c2.79,0,4.5.9,4.5,2.46s-1.71,2.48-4.5,2.48-4.47-.9-4.47-2.48,1.71-2.46,4.47-2.46ZM240.48,136.93c0,1.04.89,1.71,2.18,1.71s2.16-.67,2.16-1.71-.9-1.71-2.16-1.71-2.18.69-2.18,1.71ZM246.93,140.51l.09.9c-2.8.51-6,.55-8.3.55l-.16-1c1.03,0,2.25-.01,3.49-.06v-1.35c-1.64-.2-2.71-1.18-2.71-2.62,0-1.57,1.35-2.64,3.32-2.64s3.31,1.07,3.31,2.64c0,1.43-1.08,2.41-2.68,2.61v1.32c1.25-.07,2.49-.16,3.65-.35ZM241.72,143.09v2.7h7.76v1.01h-8.98v-3.71h1.23ZM249,138.21h1.98v1.02h-1.98v4.73h-1.23v-10.29h1.23v4.54ZM256.24,141.89v2.55h3.07v-2.55h-3.07ZM260.53,144.44h3.3v1.01h-12.23v-1.01h3.42v-2.55h-1.89v-4.15h7.98v-2.09h-8.01v-1h9.21v4.08h-7.96v2.16h8.28v1.01h-2.1v2.55Z"/>
      <path class="cls-2" d="M221.13,85.1c5.86,0,9.31,3.46,9.31,8.19,0,2.72-1.31,5.06-5.89,9.79l-3.74,3.87h10.14v4.93h-18.66v-3.33l8.54-8.8c3.14-3.23,3.87-4.93,3.87-6.4,0-1.92-1.06-3.2-3.58-3.2-2.37,0-3.65,1.92-3.65,3.9h-5.73c0-5.12,3.87-8.96,9.38-8.96Z"/>
      <path class="cls-4" d="M69.49,340.73c.2-.04.4-.08.59-.13.19-.05.39-.1.58-.17.38-.13.75-.27,1.1-.43.72-.32,1.38-.68,1.98-1.1.6-.44,1.14-.93,1.61-1.46.47-.53.88-1.09,1.21-1.69.33-.61.58-1.25.76-1.9.35-1.3.4-2.68.14-4.06.26,1.39.8,2.66,1.6,3.76.1.14.2.27.31.4.11.13.22.26.34.38.23.25.48.48.74.7.53.44,1.11.83,1.74,1.16.32.17.64.32.99.45.34.13.69.23,1.05.32.72.18,1.47.3,2.26.34.1,0,.2,0,.3.01h.29c.2,0,.39-.01.59-.03.4-.03.8-.07,1.21-.14.4-.07.81-.15,1.22-.25.4-.12.8-.26,1.21-.41.4-.16.79-.33,1.17-.51.18-.09.37-.19.55-.29.18-.1.35-.21.53-.32.68-.45,1.31-.96,1.86-1.49.14-.14.28-.27.4-.41.13-.14.25-.29.37-.44.24-.3.46-.6.66-.91.2-.31.39-.62.55-.95.16-.32.31-.64.43-.98.49-1.35.66-2.72.52-4.06-.07-.66-.23-1.33-.46-1.98-.23-.65-.53-1.27-.9-1.87.75,1.2,1.71,2.18,2.85,2.91,1.14.72,2.48,1.21,3.88,1.34.71.07,1.43.07,2.18,0,.38-.03.74-.1,1.11-.19.37-.09.74-.19,1.11-.32.74-.25,1.48-.56,2.17-.99.7-.42,1.38-.91,2.02-1.48.62-.59,1.18-1.21,1.66-1.87.12-.16.24-.33.35-.49.11-.17.21-.34.31-.52.19-.35.38-.7.53-1.05.65-1.4.93-2.9.92-4.31,0-.35-.02-.7-.07-1.04-.05-.35-.12-.69-.2-1.02-.17-.67-.41-1.3-.72-1.91-.62-1.2-1.51-2.24-2.65-3.1,1.13.85,2.4,1.44,3.72,1.7,1.32.26,2.72.22,4.11-.14.68-.19,1.35-.46,2.01-.8.66-.34,1.32-.75,1.9-1.26.59-.5,1.16-1.07,1.68-1.7.5-.64.94-1.36,1.34-2.12.4-.76.68-1.55.88-2.34.11-.4.19-.79.26-1.18.03-.2.07-.39.08-.58.02-.2.03-.39.04-.59.03-.78-.01-1.54-.12-2.27-.03-.18-.06-.36-.1-.54-.04-.18-.09-.36-.14-.53-.1-.35-.22-.69-.35-1.02-.54-1.32-1.31-2.45-2.35-3.35-1.02-.9-2.24-1.55-3.6-1.93,1.36.38,2.74.47,4.08.24,1.36-.22,2.61-.78,3.77-1.62.29-.21.57-.43.84-.68.14-.12.27-.25.4-.38.12-.13.25-.27.37-.41.48-.56.91-1.18,1.3-1.86.4-.68.68-1.41.93-2.19.12-.39.22-.79.31-1.2.04-.21.08-.41.11-.62.03-.21.05-.42.06-.63.07-.85.06-1.69-.02-2.49-.02-.2-.05-.4-.09-.6-.04-.2-.08-.39-.12-.59-.09-.39-.19-.76-.32-1.13-.24-.73-.54-1.42-.94-2.06-.38-.64-.82-1.22-1.3-1.73-.24-.26-.49-.5-.75-.73-.27-.22-.55-.43-.84-.62-.58-.38-1.19-.69-1.83-.93-1.27-.47-2.64-.64-4.05-.51.71-.07,1.39-.2,2.04-.41.66-.21,1.29-.49,1.86-.83,1.16-.69,2.15-1.66,2.93-2.86.1-.15.19-.3.28-.46.08-.15.17-.31.24-.47.15-.33.3-.66.42-1.01.25-.69.45-1.44.56-2.21.18-1.53.12-3.2-.38-4.84-.44-1.66-1.28-3.11-2.24-4.31-.5-.6-1.06-1.12-1.64-1.59-.58-.46-1.18-.85-1.84-1.15-1.3-.61-2.66-.91-4-.9-1.36.02-2.71.36-3.98.99,1.27-.63,2.34-1.49,3.17-2.56.42-.54.77-1.12,1.07-1.75.15-.32.26-.63.37-.96.11-.33.19-.67.26-1.01.14-.69.2-1.42.2-2.17-.02-.74-.13-1.49-.31-2.24-.09-.38-.2-.76-.32-1.14-.13-.37-.3-.74-.47-1.11-.18-.36-.37-.73-.59-1.09-.22-.35-.44-.72-.71-1.05-.53-.67-1.1-1.28-1.71-1.83-.3-.28-.63-.51-.96-.74-.33-.23-.66-.43-1-.62-.34-.19-.68-.37-1.02-.51-.34-.15-.71-.27-1.06-.38-.71-.21-1.43-.35-2.13-.41-.7-.07-1.41-.03-2.09.07-.68.11-1.34.29-1.97.54-1.26.5-2.38,1.3-3.34,2.34.96-1.05,1.65-2.24,2.04-3.53.19-.65.31-1.31.35-2,.02-.34.02-.69,0-1.04-.02-.35-.05-.71-.12-1.05-.13-.69-.33-1.38-.61-2.07-.14-.34-.3-.68-.48-1.02-.18-.33-.39-.65-.61-.97-.45-.63-.96-1.25-1.54-1.82-.6-.55-1.27-1.06-1.99-1.52-.18-.12-.36-.22-.55-.33-.19-.1-.38-.19-.56-.28-.38-.18-.76-.34-1.15-.48-.38-.14-.77-.26-1.15-.36-.38-.1-.78-.16-1.17-.22-.78-.11-1.54-.14-2.27-.1-.74.05-1.46.2-2.14.4-.68.2-1.32.47-1.92.8-.6.34-1.15.75-1.65,1.22-.99.93-1.76,2.07-2.27,3.38.51-1.31.72-2.68.62-4.03-.05-.69-.19-1.34-.4-1.99-.21-.65-.5-1.28-.87-1.89-.18-.31-.38-.61-.6-.9-.22-.29-.46-.55-.72-.82-.52-.53-1.1-1.02-1.74-1.47-.08-.06-.16-.11-.24-.17-.08-.05-.17-.1-.25-.15-.17-.1-.34-.19-.52-.29-.35-.18-.72-.36-1.1-.51-.38-.16-.77-.3-1.17-.43-.4-.11-.82-.2-1.24-.28-.42-.08-.84-.13-1.26-.17-.42-.03-.83-.07-1.24-.04-.82.03-1.62.13-2.37.3-.76.15-1.48.43-2.15.75-.67.32-1.29.69-1.85,1.12-1.12.88-2,1.98-2.59,3.19-.59,1.21-.88,2.56-.88,3.97,0-1.41-.3-2.76-.88-3.97-.59-1.21-1.46-2.31-2.59-3.19-.56-.43-1.18-.8-1.85-1.12-.67-.31-1.39-.6-2.15-.75-.76-.17-1.55-.27-2.37-.3-.41-.02-.82,0-1.24.04-.42.04-.84.09-1.26.17-.42.07-.84.17-1.24.28-.4.13-.79.27-1.17.43-.38.16-.75.33-1.1.51-.18.09-.35.19-.52.29-.08.05-.17.1-.25.15-.08.05-.16.11-.24.17-.64.45-1.23.94-1.74,1.47-.26.26-.5.54-.72.82-.22.29-.42.59-.6.9-.37.61-.66,1.25-.87,1.89-.21.65-.35,1.3-.4,1.99-.1,1.35.11,2.71.62,4.03-.51-1.31-1.28-2.46-2.27-3.38-.49-.46-1.05-.88-1.65-1.22-.6-.33-1.24-.6-1.92-.8-.68-.2-1.4-.34-2.14-.4-.74-.04-1.5,0-2.27.1-.38.06-.78.12-1.16.22-.38.1-.77.22-1.15.36-.38.14-.77.3-1.15.48-.19.09-.38.18-.56.28-.19.11-.37.21-.55.33-.72.46-1.39.97-1.99,1.52-.59.57-1.1,1.19-1.54,1.82-.22.32-.43.64-.61.97-.18.34-.34.68-.48,1.02-.28.68-.49,1.38-.61,2.07-.07.34-.1.7-.12,1.05-.02.35-.02.7,0,1.04.04.69.16,1.35.35,2,.38,1.29,1.08,2.48,2.03,3.53-.96-1.05-2.09-1.84-3.34-2.34-.63-.25-1.29-.43-1.97-.54-.68-.1-1.39-.15-2.09-.07-.7.06-1.42.2-2.13.41-.35.11-.72.23-1.06.38-.34.15-.69.33-1.02.51-.34.19-.68.4-1,.62-.33.23-.66.47-.96.74-.6.54-1.18,1.15-1.71,1.83-.27.33-.49.7-.71,1.05-.21.36-.41.72-.59,1.09-.18.37-.34.73-.47,1.11-.13.38-.23.76-.32,1.14-.18.75-.29,1.51-.31,2.24,0,.75.06,1.47.2,2.17.07.35.15.68.26,1.01.11.33.22.65.37.96.29.63.65,1.21,1.07,1.75.83,1.07,1.91,1.93,3.17,2.56-1.27-.63-2.62-.97-3.98-.99-1.35-.01-2.7.29-4,.9-.66.3-1.25.7-1.84,1.15-.58.46-1.14.99-1.64,1.59-.96,1.21-1.8,2.66-2.24,4.31-.5,1.64-.55,3.31-.38,4.84.11.77.31,1.51.56,2.21.13.35.27.68.42,1.01.08.16.16.32.24.47.09.16.19.31.28.46.79,1.19,1.78,2.17,2.93,2.86.57.35,1.2.62,1.86.83.65.21,1.34.34,2.04.41-1.41-.13-2.78.04-4.05.51-.64.24-1.25.55-1.83.93-.29.19-.57.4-.84.62-.26.22-.51.47-.75.73-.48.51-.92,1.1-1.3,1.73-.4.64-.69,1.33-.94,2.06-.12.37-.23.75-.32,1.13-.04.19-.08.39-.12.59-.04.2-.07.4-.09.6-.08.81-.09,1.64-.02,2.49.02.21.04.42.06.63.03.21.08.41.11.62.09.41.19.81.31,1.2.24.78.53,1.52.93,2.19.38.68.82,1.3,1.3,1.86.12.14.24.28.37.41.13.13.26.26.4.38.27.25.55.47.84.68,1.16.84,2.4,1.39,3.77,1.62,1.34.23,2.72.14,4.08-.24-1.36.39-2.58,1.04-3.6,1.93-1.04.9-1.81,2.03-2.35,3.35-.13.33-.25.67-.35,1.02-.05.18-.1.35-.14.53-.04.18-.07.36-.1.54-.11.72-.15,1.48-.12,2.27,0,.19.02.39.04.59.02.2.05.39.08.58.07.39.15.79.26,1.18.21.79.48,1.59.88,2.34.39.76.83,1.48,1.34,2.12.52.63,1.08,1.2,1.67,1.7.58.51,1.24.92,1.9,1.26.66.34,1.33.61,2.01.8,1.39.36,2.79.4,4.11.14,1.32-.26,2.59-.84,3.72-1.7-1.13.85-2.03,1.9-2.65,3.1-.31.6-.55,1.24-.72,1.91-.08.33-.15.68-.2,1.02-.04.34-.06.69-.07,1.04,0,1.41.26,2.91.92,4.31.16.36.34.71.53,1.05.1.18.2.35.31.52.11.17.23.33.35.49.49.65,1.04,1.28,1.66,1.87.64.57,1.32,1.05,2.02,1.48.69.43,1.43.74,2.18.99.37.12.74.23,1.11.32.37.09.73.16,1.11.19.75.08,1.47.08,2.18,0,1.4-.13,2.74-.61,3.88-1.34s2.1-1.71,2.85-2.91c-.37.6-.68,1.22-.9,1.87s-.38,1.31-.45,1.98c-.14,1.34.04,2.71.52,4.06.12.34.27.65.43.98.16.32.35.64.55.95.2.31.42.61.66.91.12.15.24.29.37.44.13.14.26.28.4.41.56.54,1.18,1.04,1.86,1.49.17.11.34.23.53.32.18.1.37.2.55.29.38.18.76.36,1.16.51.4.16.8.29,1.2.41.41.1.82.18,1.22.25.41.07.81.11,1.2.14.2.01.4.02.59.03h.3c.1,0,.19,0,.3-.01.78-.04,1.54-.16,2.26-.34.36-.09.71-.2,1.05-.32.34-.14.67-.29.99-.45.64-.33,1.22-.72,1.74-1.16.26-.22.51-.45.74-.7.11-.12.23-.25.34-.38.11-.13.21-.27.31-.4.8-1.1,1.34-2.37,1.6-3.76-.26,1.39-.21,2.76.14,4.06.18.65.43,1.29.76,1.9.33.59.73,1.15,1.2,1.69.47.53,1.01,1.02,1.61,1.46.6.42,1.27.79,1.98,1.1.36.16.72.3,1.1.43.19.07.38.12.58.17.19.05.39.09.59.13.8.16,1.63.25,2.49.27.86-.02,1.69-.11,2.49-.27h0Z"/>
      <path class="cls-3" d="M35.56,295.94v-1.53h-6.64v1.53h6.64ZM35.56,293.45v-1.34h1.23v4.82h-9.09v-4.82h1.22v1.34h6.64ZM33.94,286.27v1.47h2.08v-1.47h-2.08ZM30.56,287.73v-1.47h-2.07v1.47h2.07ZM32.87,290.21h5.46v.99h-12.17v-.99h5.47v-1.48h-4.32v-4.85h1.17v1.45h2.07v-1.45h1.17v4.71h1.05v-4.71h1.16v1.45h2.08v-1.45h1.17v4.85h-4.32v1.48ZM40.01,285.11h6.3c0,3.89-1.78,7.31-6.25,9.5l-.66-1.01c3.61-1.73,5.41-4.3,5.67-7.5h-5.06v-.99ZM49.03,283.65h1.23v13.45h-1.23v-13.45ZM60.38,292.73v-3.54h-3.75v3.54h3.75ZM64.73,283.65h1.23v13.49h-1.23v-7.5h-3.15v4.09h-6.17v-9.01h1.21v3.49h3.75v-3.49h1.2v3.93h3.15v-4.99ZM78.65,288.89v.96h-9.13v-5.7h9.06v.96h-7.83v1.41h7.47v.93h-7.47v1.44h7.9ZM70.71,293.08v2.73h8.1v1.01h-9.33v-3.73h1.23ZM67.91,291.11h12.17v.99h-12.17v-.99ZM86.26,294.56v1.41h8.5v.96h-9.72v-3.29h8.04v-1.26h-8.07v-.96h9.27v3.14h-8.03ZM93.89,289.16h1.83v.99h-12.12v-.99h9.04c.14-.63.21-1.2.27-1.71l-7.96.36-.15-.98,8.17-.26c.01-.45.01-.87.01-1.26v-.05h-7.86v-.98h9.07v1.02c0,1.05,0,2.25-.31,3.84ZM104.8,289.7l.14.99c-2.21.36-4.04.43-6.53.43h-1.08v-3.89h4.86v-1.79h-4.9v-1h6.12v3.73h-4.88v1.93c2.39,0,4.14-.07,6.27-.42ZM98.68,293.61v-1.01h8.99v4.5h-1.23v-3.49h-7.76ZM106.43,283.67h1.23v8.22h-1.23v-8.22Z"/>
      <path class="cls-2" d="M66.17,235.1c5.41,0,9.15,3.17,9.15,7.84,0,3.01-2.21,5.22-4.38,5.6,2.4.38,5.09,2.46,5.09,5.82,0,5.02-4.26,8.16-9.66,8.16-5.73,0-9.28-3.2-9.7-8.22h5.73c.22,2.08,1.54,3.33,3.97,3.33s4-1.31,4-3.23c0-2.18-1.82-3.33-4.54-3.33h-2.59v-4.74h2.59c2.37,0,3.78-1.28,3.78-3.26s-1.28-3.1-3.46-3.1-3.33,1.82-3.33,3.68h-5.73c0-4.96,3.74-8.54,9.09-8.54Z"/>
      <path class="cls-4" d="M224.49,340.73c.2-.04.4-.08.59-.13.19-.05.39-.1.58-.17.38-.13.75-.27,1.1-.43.71-.32,1.38-.68,1.98-1.1.6-.44,1.14-.93,1.61-1.46.47-.53.88-1.09,1.21-1.69.33-.61.58-1.25.76-1.9.35-1.3.4-2.68.14-4.06.26,1.39.8,2.66,1.6,3.76.1.14.2.27.31.4.11.13.22.26.33.38.23.25.48.48.74.7.52.44,1.11.83,1.74,1.16.32.17.64.32.99.45.34.13.69.23,1.05.32.72.18,1.47.3,2.26.34.1,0,.2,0,.3.01h.29c.2,0,.39-.01.59-.03.4-.03.8-.07,1.21-.14.4-.07.81-.15,1.22-.25.4-.12.8-.26,1.21-.41.4-.16.79-.33,1.17-.51.18-.09.37-.19.55-.29.18-.1.35-.21.52-.32.68-.45,1.31-.96,1.86-1.49.14-.14.28-.27.4-.41.13-.14.25-.29.37-.44.24-.3.46-.6.66-.91s.39-.62.55-.95c.16-.32.31-.64.43-.98.48-1.35.66-2.72.52-4.06-.07-.66-.23-1.33-.45-1.98-.23-.65-.53-1.27-.9-1.87.75,1.2,1.71,2.18,2.86,2.91,1.14.72,2.48,1.21,3.88,1.34.71.07,1.43.07,2.18,0,.38-.03.74-.1,1.11-.19.37-.09.74-.19,1.11-.32.74-.25,1.48-.56,2.17-.99.7-.42,1.38-.91,2.02-1.48.62-.59,1.18-1.21,1.66-1.87.12-.16.24-.33.35-.49.11-.17.21-.34.31-.52.19-.35.38-.7.53-1.05.65-1.4.93-2.9.92-4.31,0-.35-.02-.7-.07-1.04-.05-.35-.11-.69-.2-1.02-.17-.67-.41-1.3-.72-1.91-.62-1.2-1.51-2.24-2.65-3.1,1.13.85,2.4,1.44,3.72,1.7,1.32.26,2.72.22,4.11-.14.68-.19,1.35-.46,2.01-.8.66-.34,1.32-.75,1.9-1.26.59-.5,1.16-1.07,1.68-1.7.5-.64.94-1.36,1.34-2.12.4-.76.67-1.55.88-2.34.11-.4.19-.79.26-1.18.03-.2.07-.39.08-.58.02-.2.03-.39.04-.59.03-.78-.01-1.54-.12-2.27-.03-.18-.06-.36-.1-.54-.04-.18-.09-.36-.14-.53-.1-.35-.22-.69-.35-1.02-.54-1.32-1.31-2.45-2.35-3.35-1.02-.9-2.24-1.55-3.6-1.93,1.36.38,2.74.47,4.08.24,1.36-.22,2.61-.78,3.77-1.62.29-.21.57-.43.84-.68.14-.12.27-.25.4-.38.12-.13.25-.27.37-.41.48-.56.91-1.18,1.3-1.86.4-.68.68-1.41.93-2.19.12-.39.22-.79.31-1.2.04-.21.08-.41.12-.62.03-.21.05-.42.06-.63.07-.85.06-1.69-.02-2.49-.02-.2-.05-.4-.09-.6-.04-.2-.08-.39-.12-.59-.09-.39-.19-.76-.32-1.13-.24-.73-.54-1.42-.93-2.06-.38-.64-.82-1.22-1.3-1.73-.24-.26-.49-.5-.75-.73-.26-.22-.55-.43-.84-.62-.58-.38-1.19-.69-1.83-.93-1.27-.47-2.64-.64-4.05-.51.71-.07,1.39-.2,2.04-.41.66-.21,1.29-.49,1.86-.83,1.16-.69,2.15-1.66,2.93-2.86.1-.15.19-.3.28-.46.08-.15.17-.31.24-.47.15-.33.3-.66.42-1.01.25-.69.45-1.44.56-2.21.18-1.53.12-3.2-.38-4.84-.44-1.66-1.28-3.11-2.24-4.31-.5-.6-1.06-1.12-1.64-1.59-.58-.46-1.18-.85-1.84-1.15-1.3-.61-2.66-.91-4-.9-1.36.02-2.71.36-3.98.99,1.27-.63,2.34-1.49,3.17-2.56.42-.54.77-1.12,1.07-1.75.15-.32.27-.63.37-.96.11-.33.19-.67.26-1.01.14-.69.2-1.42.2-2.17-.02-.74-.13-1.49-.31-2.24-.09-.38-.2-.76-.32-1.14-.13-.37-.3-.74-.47-1.11-.18-.36-.37-.73-.59-1.09-.22-.35-.44-.72-.71-1.05-.53-.67-1.1-1.28-1.71-1.83-.3-.28-.63-.51-.96-.74-.33-.23-.66-.43-1-.62-.34-.19-.68-.37-1.02-.51-.34-.15-.71-.27-1.06-.38-.71-.21-1.43-.35-2.13-.41-.7-.07-1.41-.03-2.09.07-.68.11-1.34.29-1.97.54-1.26.5-2.38,1.3-3.34,2.34.96-1.05,1.65-2.24,2.03-3.53.19-.65.31-1.31.35-2,.02-.34.02-.69,0-1.04-.02-.35-.05-.71-.12-1.05-.13-.69-.33-1.38-.61-2.07-.14-.34-.3-.68-.48-1.02-.18-.33-.39-.65-.61-.97-.44-.63-.96-1.25-1.54-1.82-.6-.55-1.27-1.06-1.99-1.52-.18-.12-.36-.22-.55-.33-.19-.1-.38-.19-.57-.28-.38-.18-.76-.34-1.15-.48-.38-.14-.77-.26-1.15-.36-.38-.1-.78-.16-1.16-.22-.78-.11-1.54-.14-2.27-.1-.74.05-1.46.2-2.14.4-.68.2-1.32.47-1.92.8-.6.34-1.15.75-1.65,1.22-.99.93-1.76,2.07-2.27,3.38.51-1.31.72-2.68.62-4.03-.05-.69-.19-1.34-.4-1.99-.21-.65-.5-1.28-.87-1.89-.18-.31-.38-.61-.6-.9-.22-.29-.46-.55-.72-.82-.52-.53-1.1-1.02-1.74-1.47-.08-.06-.16-.11-.24-.17-.08-.05-.17-.1-.25-.15-.17-.1-.34-.19-.52-.29-.35-.18-.72-.36-1.1-.51-.38-.16-.77-.3-1.17-.43-.4-.11-.82-.2-1.24-.28-.42-.08-.84-.13-1.26-.17-.42-.03-.83-.07-1.24-.04-.82.03-1.61.13-2.37.3-.76.15-1.48.43-2.15.75-.67.32-1.29.69-1.85,1.12-1.12.88-2,1.98-2.59,3.19-.59,1.21-.88,2.56-.88,3.97,0-1.41-.3-2.76-.88-3.97-.59-1.21-1.47-2.31-2.59-3.19-.56-.43-1.18-.8-1.85-1.12-.67-.31-1.39-.6-2.15-.75-.76-.17-1.55-.27-2.37-.3-.41-.02-.82,0-1.24.04-.42.04-.84.09-1.26.17-.42.07-.84.17-1.24.28-.4.13-.79.27-1.17.43-.38.16-.74.33-1.1.51-.18.09-.35.19-.52.29-.08.05-.17.1-.25.15-.08.05-.16.11-.24.17-.64.45-1.23.94-1.74,1.47-.26.26-.5.54-.72.82-.22.29-.42.59-.6.9-.37.61-.66,1.25-.87,1.89-.21.65-.35,1.3-.4,1.99-.1,1.35.11,2.71.62,4.03-.51-1.31-1.28-2.46-2.27-3.38-.49-.46-1.05-.88-1.65-1.22-.6-.33-1.24-.6-1.92-.8-.68-.2-1.4-.34-2.14-.4-.74-.04-1.5,0-2.27.1-.38.06-.78.12-1.17.22-.38.1-.77.22-1.15.36-.38.14-.77.3-1.15.48-.19.09-.38.18-.56.28-.19.11-.37.21-.55.33-.72.46-1.39.97-1.99,1.52-.59.57-1.1,1.19-1.54,1.82-.22.32-.43.64-.61.97-.18.34-.34.68-.48,1.02-.28.68-.49,1.38-.61,2.07-.07.34-.1.7-.12,1.05-.02.35-.02.7,0,1.04.04.69.16,1.35.35,2,.38,1.29,1.08,2.48,2.04,3.53-.96-1.05-2.09-1.84-3.34-2.34-.63-.25-1.29-.43-1.97-.54-.68-.1-1.39-.15-2.09-.07-.7.06-1.42.2-2.13.41-.35.11-.72.23-1.06.38-.34.15-.69.33-1.02.51-.34.19-.68.4-1,.62-.33.23-.66.47-.96.74-.6.54-1.18,1.15-1.71,1.83-.27.33-.49.7-.71,1.05-.21.36-.41.72-.59,1.09-.18.37-.34.73-.47,1.11-.13.38-.23.76-.32,1.14-.18.75-.29,1.51-.31,2.24,0,.75.06,1.47.2,2.17.07.35.15.68.26,1.01.11.33.22.65.37.96.29.63.65,1.21,1.07,1.75.83,1.07,1.91,1.93,3.17,2.56-1.27-.63-2.62-.97-3.98-.99-1.35-.01-2.7.29-4,.9-.66.3-1.25.7-1.84,1.15-.58.46-1.14.99-1.64,1.59-.96,1.21-1.8,2.66-2.24,4.31-.5,1.64-.55,3.31-.38,4.84.11.77.31,1.51.56,2.21.13.35.27.68.42,1.01.08.16.16.32.24.47.09.16.19.31.28.46.78,1.19,1.78,2.17,2.93,2.86.57.35,1.2.62,1.86.83.65.21,1.34.34,2.04.41-1.41-.13-2.78.04-4.05.51-.64.24-1.25.55-1.83.93-.29.19-.57.4-.84.62-.26.22-.51.47-.75.73-.48.51-.92,1.1-1.3,1.73-.4.64-.69,1.33-.94,2.06-.12.37-.23.75-.32,1.13-.04.19-.08.39-.12.59-.04.2-.07.4-.09.6-.08.81-.09,1.64-.02,2.49.02.21.04.42.06.63.03.21.07.41.11.62.09.41.19.81.31,1.2.24.78.52,1.52.93,2.19.38.68.82,1.3,1.3,1.86.12.14.24.28.37.41.13.13.26.26.4.38.27.25.55.47.84.68,1.16.84,2.41,1.39,3.77,1.62,1.34.23,2.72.14,4.08-.24-1.36.39-2.58,1.04-3.6,1.93-1.04.9-1.81,2.03-2.35,3.35-.13.33-.25.67-.35,1.02-.05.18-.1.35-.14.53-.04.18-.07.36-.1.54-.11.72-.15,1.48-.12,2.27,0,.19.02.39.04.59.02.2.05.39.08.58.07.39.15.79.26,1.18.21.79.48,1.59.88,2.34.39.76.83,1.48,1.34,2.12.52.63,1.08,1.2,1.67,1.7.58.51,1.24.92,1.9,1.26.66.34,1.33.61,2.01.8,1.39.36,2.79.4,4.11.14,1.32-.26,2.59-.84,3.72-1.7-1.13.85-2.03,1.9-2.65,3.1-.31.6-.55,1.24-.72,1.91-.08.33-.15.68-.2,1.02-.04.34-.06.69-.07,1.04,0,1.41.26,2.91.92,4.31.16.36.34.71.53,1.05.1.18.2.35.31.52.11.17.23.33.35.49.49.65,1.04,1.28,1.66,1.87.64.57,1.32,1.05,2.02,1.48.69.43,1.43.74,2.18.99.37.12.74.23,1.11.32.37.09.73.16,1.11.19.75.08,1.47.08,2.18,0,1.4-.13,2.74-.61,3.88-1.34,1.14-.73,2.1-1.71,2.85-2.91-.37.6-.67,1.22-.9,1.87-.23.65-.38,1.31-.46,1.98-.14,1.34.04,2.71.52,4.06.12.34.27.65.43.98.16.32.35.64.55.95.2.31.42.61.66.91.12.15.24.29.37.44.13.14.26.28.4.41.56.54,1.18,1.04,1.86,1.49.17.11.34.23.53.32.18.1.37.2.55.29.38.18.76.36,1.16.51.4.16.8.29,1.21.41.41.1.82.18,1.22.25.4.07.81.11,1.2.14.2.01.4.02.59.03h.3c.1,0,.19,0,.3-.01.78-.04,1.54-.16,2.26-.34.36-.09.71-.2,1.05-.32.34-.14.67-.29.99-.45.63-.33,1.22-.72,1.74-1.16.26-.22.51-.45.74-.7.12-.12.23-.25.34-.38.11-.13.21-.27.31-.4.8-1.1,1.34-2.37,1.6-3.76-.26,1.39-.21,2.76.14,4.06.18.65.43,1.29.76,1.9.33.59.73,1.15,1.2,1.69.47.53,1.01,1.02,1.61,1.46.61.42,1.27.79,1.98,1.1.36.16.72.3,1.1.43.19.07.38.12.58.17.19.05.39.09.59.13.8.16,1.63.25,2.49.27.86-.02,1.69-.11,2.49-.27h0Z"/>
      <path class="cls-3" d="M203.32,289.11l.13,1.01c-1.85.38-3.45.46-6.29.46h-1.05v-5.89h5.94v.99h-4.72v3.9c2.67,0,4.21-.09,5.99-.46ZM201.69,296.11c1.98,0,3.21-.6,3.21-1.59s-1.23-1.59-3.21-1.59-3.22.6-3.22,1.59,1.23,1.59,3.22,1.59ZM201.69,291.93c2.71,0,4.43.96,4.43,2.58s-1.71,2.58-4.43,2.58-4.44-.96-4.44-2.58,1.71-2.58,4.44-2.58ZM205.98,287.15h1.98v1.02h-1.98v3.49h-1.25v-8.01h1.25v3.49ZM216.55,290.18l-.58.98c-1.54-.46-2.79-1.45-3.4-2.76-.57,1.41-1.8,2.51-3.39,3.02l-.6-.96c1.99-.63,3.36-2.19,3.36-3.98v-.26h-2.99v-.99h2.99v-1.64h1.23v1.64h2.97v.99h-2.97v.26c0,1.7,1.4,3.13,3.39,3.7ZM212.11,293.3v2.64h6.35v-2.64h-6.35ZM210.91,296.93v-4.6h8.75v4.6h-8.75ZM218.41,283.65h1.25v7.96h-1.25v-3.2h-2.65v-1.02h2.65v-3.75ZM232.22,284.89v.93h-7.73v-.93h3.26v-1.32h1.23v1.32h3.24ZM226.38,288.3c0,.71.77,1.15,1.98,1.15s1.96-.45,1.96-1.15-.78-1.14-1.96-1.14-1.98.43-1.98,1.14ZM232.62,290.89l.09.88c-2.88.51-6.06.51-8.42.53l-.14-.99c1.07,0,2.3,0,3.59-.04v-.98c-1.56-.15-2.54-.87-2.54-1.98,0-1.23,1.24-1.99,3.15-1.99s3.14.77,3.14,1.99c0,1.1-.98,1.82-2.52,1.98v.93c1.23-.06,2.48-.15,3.65-.33ZM225.8,294.33v-.98h8.85v3.75h-1.23v-2.77h-7.62ZM236.63,287.73v1.02h-1.98v3.93h-1.23v-9.01h1.23v4.06h1.98ZM248.31,283.67v9.82h-1.23v-9.82h1.23ZM238.79,287.9c0,1.33.99,2.27,2.29,2.27s2.33-.93,2.33-2.27-.99-2.23-2.33-2.23-2.29.93-2.29,2.23ZM244.61,287.9c0,1.95-1.51,3.33-3.52,3.33s-3.49-1.38-3.49-3.33,1.5-3.3,3.49-3.3,3.52,1.36,3.52,3.3ZM240.89,295.8h7.83v1.01h-9.06v-4.32h1.23v3.32Z"/>
      <path class="cls-2" d="M222.96,261.88v-5.25h-11.71v-4.8l10.08-16.03h7.14v16.03h3.42v4.8h-3.42v5.25h-5.5ZM216.82,251.83h6.14v-10.05l-6.14,10.05Z"/>
    </g>
  </g>
</svg>