<svg width="30" height="31" viewBox="0 0 30 31" fill="none" xmlns="http://www.w3.org/2000/svg">
<g clip-path="url(#clip0_1151_3253)">
<path d="M25.8198 25.8698C31.6777 20.0119 31.6777 10.5144 25.8198 4.65658C19.9619 -1.20128 10.4645 -1.20128 4.6066 4.65658C-1.25126 10.5144 -1.25126 20.0119 4.6066 25.8698C10.4645 31.7276 19.9619 31.7276 25.8198 25.8698Z" fill="#F2D676"/>
<path d="M23.5352 23.5861C28.1318 18.9895 28.1318 11.5369 23.5352 6.94025C18.9386 2.34362 11.486 2.34362 6.88934 6.94025C2.29271 11.5369 2.29271 18.9895 6.88934 23.5861C11.486 28.1827 18.9386 28.1827 23.5352 23.5861Z" fill="white"/>
<path d="M20.4916 15.1347H21.954V12.9721H20.8584L21.43 9.64722H19.2531L18.7625 12.9721H16.7285L16.1569 9.64722H14.1991L13.6561 12.9721H11.6031L11.0934 9.64722H8.89746L9.48812 12.9721H8.46875V15.1347H9.88348L10.9076 20.8841H14.2849L15.1804 15.4062L16.1331 20.8841H19.5151L20.4916 15.1347ZM12.6653 18.9978H12.5367L11.9318 15.1347H13.2846L12.6653 18.9978ZM17.8813 18.9978H17.7527L17.0858 15.1347H18.4386L17.8813 18.9978Z" fill="#977D52"/>
</g>
<defs>
<clipPath id="clip0_1151_3253">
<rect width="30" height="30" fill="white" transform="translate(0 0.0500488)"/>
</clipPath>
</defs>
</svg>
