<?xml version="1.0" encoding="UTF-8"?>
<svg id="_레이어_1" data-name="레이어_1" xmlns="http://www.w3.org/2000/svg" xmlns:xlink="http://www.w3.org/1999/xlink" version="1.1" viewBox="0 0 360 858">
  <!-- Generator: Adobe Illustrator 29.0.1, SVG Export Plug-In . SVG Version: 2.1.0 Build 192)  -->
  <defs>
    <style>
      .st0, .st1, .st2, .st3 {
        fill: none;
      }

      .st4 {
        mask: url(#mask);
      }

      .st5 {
        fill: #3ec8a7;
      }

      .st6, .st7 {
        fill: #02de95;
      }

      .st8 {
        fill: #4d4d4d;
      }

      .st9 {
        mask: url(#mask-1);
      }

      .st10 {
        clip-path: url(#clippath-1);
      }

      .st11 {
        clip-path: url(#clippath-3);
      }

      .st12 {
        clip-path: url(#clippath-2);
      }

      .st13, .st14, .st15 {
        fill: #fff;
      }

      .st14, .st15, .st1, .st2, .st3, .st16, .st7 {
        stroke: #4d4d4d;
        stroke-linecap: round;
        stroke-linejoin: round;
      }

      .st14, .st3, .st7 {
        stroke-width: 1.2px;
      }

      .st15, .st1, .st16 {
        stroke-width: 1.3px;
      }

      .st2 {
        stroke-width: 1.1px;
      }

      .st17 {
        fill: #7b6a58;
      }

      .st16, .st18 {
        fill: #00e18b;
      }

      .st19 {
        fill: #ada196;
      }

      .st20 {
        clip-path: url(#clippath);
      }
    </style>
    <clipPath id="clippath">
      <rect class="st0" x="50" y="115.3" width="62.8" height="60"/>
    </clipPath>
    <clipPath id="clippath-1">
      <rect class="st0" x="50" y="266.2" width="54.9" height="62.2"/>
    </clipPath>
    <mask id="mask" x="50" y="570.3" width="27" height="22.8" maskUnits="userSpaceOnUse">
      <g id="path-52-inside-1_1153_4338">
        <path class="st13" d="M50,570.3h27v22h-27v-22Z"/>
      </g>
    </mask>
    <clipPath id="clippath-2">
      <rect class="st0" x="50" y="604.8" width="54.9" height="69"/>
    </clipPath>
    <mask id="mask-1" x="50" y="697.3" width="54" height="22.8" maskUnits="userSpaceOnUse">
      <g id="path-94-inside-2_1153_4338">
        <path class="st13" d="M50,697.3h54v22h-54v-22Z"/>
      </g>
    </mask>
    <clipPath id="clippath-3">
      <rect class="st0" x="50" y="731.3" width="76.2" height="69.9"/>
    </clipPath>
  </defs>
  <path class="st5" d="M351.2,20H109.7l-6.4-14.7C102,2.1,98.8,0,95.3,0H8.8C3.9,0,0,4,0,8.8v842.8c0,3.3,2.7,6.1,6.1,6.1h347.9c3.3,0,6.1-2.7,6.1-6.1V28.8c0-4.9-3.9-8.8-8.8-8.8h0ZM18.9,19c-2.3,0-4.1-1.8-4.1-4.1s1.8-4.1,4.1-4.1,4.1,1.8,4.1,4.1-1.8,4.1-4.1,4.1ZM41.2,19c-2.3,0-4.1-1.8-4.1-4.1s1.8-4.1,4.1-4.1,4.1,1.8,4.1,4.1-1.8,4.1-4.1,4.1ZM63.5,19c-2.3,0-4.1-1.8-4.1-4.1s1.8-4.1,4.1-4.1,4.1,1.8,4.1,4.1-1.8,4.1-4.1,4.1ZM85.8,19c-2.3,0-4.1-1.8-4.1-4.1s1.8-4.1,4.1-4.1,4.1,1.8,4.1,4.1-1.8,4.1-4.1,4.1Z"/>
  <g>
    <rect class="st13" x="30" y="50.3" width="300" height="773" rx="13.4" ry="13.4" shape-rendering="crispEdges"/>
    <rect class="st17" x="50" y="70.3" width="124.7" height="28" rx="6.7" ry="6.7"/>
    <path class="st18" d="M63.9,86.8h1c.3,0,.5.2.5.5v1c0,.3-.2.5-.5.5h-4c-1.3,0-1.9-.6-1.9-1.6v-8.7c0-.5.3-.8.8-.8h3c1.9,0,2.6,1,2.6,3.9s-.5,4.3-1.5,5.2ZM69.9,77.1c0-.3.2-.5.5-.5h1.2c.3,0,.5.2.5.5v13.3c0,.3-.2.5-.5.5h-1.2c-.3,0-.5-.2-.5-.5v-6.2h-.7c-.4,0-.6.3-.6.6v5.6c0,.3-.2.5-.5.5h-1.2c-.3,0-.5-.2-.5-.5v-13.2c0-.3.2-.5.5-.5h1.2c.3,0,.5.2.5.5v5.1c.1-.2.4-.3.7-.3h.6v-4.9ZM61.9,86.7c.8,0,1.4-1.1,1.4-3.5s-.4-3.4-1.3-3.4h-.3c-.3,0-.4.1-.4.4v5.9c0,.3.2.5.6.5h0ZM85.2,88.8c-1.2,0-2.1,0-5.1,0s-3.1,0-3.1.4.7.4,4,.4,3.5,0,4.5-.3c.3,0,.4,0,.4.3v.9c0,.2,0,.4-.3.4-1.2.2-3.4.3-4.7.3-4.8,0-6.3-.4-6.3-2.1s1.7-2.1,5.4-2.1,1.9,0,2.8,0,.6,0,.6-.3-.2-.3-.6-.3c-1.8,0-5.5.1-7.4.3-.3,0-.4-.1-.4-.4v-.9c0-.2.1-.4.4-.4.5,0,1,0,1.5,0v-.2c0-.3.1-.4.3-.5-1.3,0-2.4,0-3.3-.1-.4,0-.5-.2-.5-.5v-.8c0-.3.2-.5.5-.4,1.1,0,2.3.1,4.1.1s3.5,0,4.2-.1c.3,0,.5.1.5.4v.8c0,.3-.1.4-.5.5-.5,0-1.6,0-2.4,0-.4,0-.5.2-.5.5v.2c1.6,0,3.4,0,4.9,0,1,0,1.6.4,1.6,1.2s-.4,1.1-.9,1.3h.4c.2,0,.4.1.4.4v.8c0,.2-.2.4-.4.4ZM74.3,79.4c0-1.7,1.2-2.5,3.7-2.5s3.7.8,3.7,2.5-1.2,2.5-3.7,2.5-3.7-.8-3.7-2.5ZM83.3,80.3c-.2.2-.4.3-.7.3h-.2c-.3,0-.5-.1-.5-.5v-1.2c0-.3.1-.5.5-.5h.2c.5,0,.7-.2.7-.6v-.7c0-.3.2-.5.5-.5h1.3c.3,0,.5.2.5.5v6.6c0,.3-.2.5-.5.5h-1.3c-.3,0-.5-.2-.5-.5v-3.4ZM78,80.1c.9,0,1.4-.2,1.4-.8s-.4-.8-1.4-.8-1.4.2-1.4.8.4.8,1.4.8ZM94.3,80.8c0,1.2.5,1.9,1.4,1.9s1.4-.7,1.4-1.9-.5-1.9-1.4-1.9-1.4.7-1.4,1.9ZM101.4,77.5v-.3c0-.3.2-.5.5-.5h1.3c.3,0,.5.2.5.5v9c0,.3-.2.5-.5.5h-1.3c-.3,0-.5-.2-.5-.5v-2.8c-.2.2-.4.4-.8.4h-.4c-.3,0-.5-.2-.5-.5v-1.1c0-.3.2-.5.5-.5h.7c.5,0,.6-.2.6-.6v-1.1c-.2.2-.4.4-.8.4h-.4c-.3,0-.5-.2-.5-.5v-1.1c0-.3.2-.5.5-.5h.7c.5,0,.6-.1.6-.6ZM95.7,76.9c2.3,0,3.7,1.5,3.7,4s-1.4,4-3.7,4-3.7-1.5-3.7-4,1.4-4,3.7-4ZM97.3,91.2c-2.4,0-3.8-1.2-3.8-3.2s0-1.2,0-1.6c0-.3.2-.5.5-.5h1.3c.3,0,.6.2.5.5,0,.5,0,.8,0,1.2,0,.9.6,1.4,1.8,1.4,2.2,0,4.3-.1,6-.3.3,0,.5.2.5.5v1.2c0,.3,0,.5-.4.5-1.6.2-3.6.3-6.4.3ZM116.2,89.2h1c.3,0,.5.2.5.5v.8c0,.3-.2.5-.5.5h-8.3c-1.3,0-2-.6-2-1.7v-3.2c0-.6.3-.9.9-.9h7.6c1.3,0,2,.7,2,1.9s-.5,1.7-1.3,2.1ZM114.1,77c2.2,0,3.2.9,3.2,2.8s-.2,1.6-.4,2.3c.4,0,.7,0,1,0,.3,0,.5.1.5.5v.9c0,.3-.2.5-.5.5-1,0-3.3.1-5.8.1s-4.4,0-5.7-.1c-.4,0-.5-.2-.5-.5v-.9c0-.3.2-.5.5-.5,1.4.1,3.5.1,5.7.1s1.7,0,2.4,0c.2-.4.4-1.2.4-1.8,0-.9-.5-1.3-1.6-1.3-1.7,0-3.6.1-5.7.3-.3,0-.5-.2-.5-.4v-1.2c0-.3.2-.4.5-.5,1.4-.1,3.9-.3,6.4-.3ZM114.1,89.1c.6,0,1-.5,1-1.1s-.2-.8-.7-.8h-4.8c-.3,0-.4.1-.4.4v1c0,.4.3.6.7.6h4.2ZM131.5,77.7c.3,0,.5.2.5.5v1.1c0,.3-.2.5-.5.5h-2.1v3.7c0,1.6,1,3,2.2,3.2.3,0,.5.2.5.5v1.2c0,.3-.2.5-.5.4-1.6-.2-2.9-1.2-3.4-2.6-.4,1.4-1.8,2.4-3.4,2.6-.3,0-.5-.1-.5-.4v-1.2c0-.3.2-.5.5-.5,1.2-.2,2.2-1.5,2.2-3.2v-3.7h-2.1c-.3,0-.5-.2-.5-.5v-1.1c0-.3.2-.5.5-.5h6.6ZM133.7,77.2c0-.3.2-.5.5-.5h1.3c.3,0,.5.2.5.5v13.3c0,.3-.2.5-.5.5h-1.3c-.3,0-.5-.2-.5-.5v-13.3ZM141.3,91.1c-1.2,0-1.9-.5-2-1.6l-.3-4c0-.3.2-.5.5-.5h1.3c.3,0,.5.2.5.5v.8h6.1v-.8c0-.4.2-.5.6-.5h1.3c.3,0,.5.2.5.5l-.3,4c0,1.1-.7,1.6-2,1.6h-6.3ZM146.4,77c2.2,0,3.2.9,3.2,2.8s-.1,1.4-.4,2.1c.4,0,.7,0,1,0,.3,0,.5.1.5.5v.9c0,.3-.2.5-.5.5-1,0-3.3.1-5.8.1s-4.4,0-5.7-.1c-.4,0-.5-.2-.5-.5v-.9c0-.3.2-.5.5-.5,1.4.1,3.5.1,5.7.1s1.7,0,2.4,0c.2-.4.4-1.1.4-1.6,0-.9-.5-1.3-1.6-1.3-1.7,0-3.6.1-5.7.3-.3,0-.5-.2-.5-.4v-1.2c0-.3.2-.4.5-.5,1.4-.1,3.9-.3,6.4-.3ZM141.5,88.1v.7c0,.3.2.5.5.5h4.7c.3,0,.5-.1.5-.5v-.7s-5.7,0-5.7,0ZM158.5,80.7c0,2.4-1.1,3.8-3.2,3.8s-3.3-1.4-3.3-3.8,1.1-3.8,3.2-3.8,3.2,1.4,3.2,3.8ZM162.9,77.1c0-.3.2-.5.5-.5h1.2c.3,0,.5.2.5.5v6.8c0,.3-.2.5-.5.5h-1.2c-.3,0-.5-.2-.5-.5v-2.4h-.6c-.4,0-.6.3-.6.6v1.8c0,.3-.2.5-.5.5h-1.2c-.3,0-.5-.2-.5-.5v-6.6c0-.3.2-.5.5-.5h1.2c.3,0,.5.2.5.5v2.4c.1-.2.4-.3.6-.3h.6v-2.2ZM154.6,85.8c1.6-.2,3.9-.3,7.2-.3s3.2.9,3.2,2.8,0,1.9,0,2.3c0,.3-.2.5-.5.5h-1.3c-.3,0-.5-.2-.5-.5,0-.5,0-1.2,0-1.7,0-.8-.4-1.2-1.2-1.2-2.7,0-5,.2-6.8.3-.3,0-.5-.2-.5-.5v-1.2c0-.3.2-.5.5-.5ZM154.2,80.7c0,1.2.3,1.7,1.1,1.7s1.1-.6,1.1-1.7-.4-1.7-1.1-1.7-1.1.6-1.1,1.7Z"/>
    <g class="st20">
      <g>
        <path class="st16" d="M96.6,131.3c0,8.3-6.8,15-15.3,15s-15.3-6.7-15.3-15,6.8-15,15.2-15,15.3,6.7,15.3,15h0Z"/>
        <path class="st1" d="M51.1,143.2v-14.2c0-1.8,1.5-3.2,3.2-3.2s3.2,1.4,3.2,3.2v11.6"/>
        <path class="st1" d="M62.5,170.9v-7.6l-10.4-10.2c-.6-.6-.9-1.4-.9-2.2v-7.6"/>
        <path class="st1" d="M69.4,157.2l-10.4-10.2c-1.3-1.2-1.3-3.2,0-4.5,1.3-1.2,3.3-1.2,4.6,0l11.3,11.1c.6.6.9,1.4.9,2.2v15"/>
        <path class="st15" d="M78.5,166.9h-20.5v7.2h20.5v-7.2Z"/>
        <path class="st1" d="M100.3,170.9v-7.6l10.4-10.2c.6-.6.9-1.4.9-2.2v-21.8c0-1.8-1.5-3.2-3.2-3.2s-3.2,1.4-3.2,3.2v11.6"/>
        <path class="st1" d="M93.4,157.2l10.4-10.2c1.3-1.2,1.3-3.2,0-4.5-1.3-1.2-3.3-1.2-4.6,0l-11.3,11.1c-.6.6-.9,1.4-.9,2.2v15"/>
        <path class="st15" d="M104.7,166.9h-20.4v7.2h20.4v-7.2Z"/>
        <path class="st1" d="M72.6,126.6l4.4,10.8,4-10.8,4.1,10.8,3.5-10.8"/>
        <path class="st1" d="M70.4,130.7h20.6"/>
      </g>
    </g>
    <path class="st5" d="M143.3,145.1c-1.3,0-2-.7-2-2v-5c0-1.3.7-2,2-2,7.8,0,10.8-1.7,10.8-6.1s-3.2-5.1-8.8-5.1-8.8,1.6-8.8,4.9-.8,2.1-2.1,2.1h-5.1c-1.3,0-2.1-.8-2.1-2.1,0-8.8,6.5-13.9,18-13.9s18,4.7,18,12.5-2.8,9.2-7.1,11.1c5.8,1.5,9.7,6.5,9.7,12.9,0,9.3-7.6,15.1-20,15.1s-20-5.2-20-13.9.8-2.1,2.1-2.1h5.1c1.3,0,2.1.8,2.1,2.1,0,3.2,3.8,4.9,10.7,4.9s10.7-2.3,10.7-6.8-3.1-6.7-13.4-6.7ZM179.2,149.9c.3,0,.5.2.5.5v1c0,.3-.2.5-.5.5h-2.8v.6c0,1.7,1.1,2.6,3,2.6s.5.1.5.4v1.1c0,.4-.3.4-.6.4-1.9,0-3.4-.8-4-2.2-.5,1.4-2,2.2-4,2.2s-.6,0-.6-.4v-1.1c0-.3.2-.4.5-.4,2,0,3.1-.9,3.1-2.6v-.6h-2.9c-.3,0-.5-.2-.5-.5v-1c0-.3.2-.5.5-.5h7.7ZM170.3,160.3c-.3,0-.5-.2-.5-.4v-1c0-.3.2-.4.5-.4,1.1,0,2.9.2,4.5.3-.3-.1-.4-.4-.4-.7v-1c0-.3.2-.5.5-.5h1.1c.3,0,.4.2.4.5v1.1c0,.6.4.6.9.6.8,0,2.2,0,3.1-.2.3,0,.5.1.5.4v1c0,.3-.1.4-.5.4-.9.2-2.9.2-5,.2s-3.8,0-5-.2ZM223.9,124.8c-7.4,0-10.9,3.8-11.8,13.2,3.6-2.6,8.3-4.1,13.1-4.1,10.8,0,17.7,6.4,17.8,16.3,0,10.4-7.7,17.3-19.6,17.3-14.1,0-20.7-7.9-20.7-25s7.2-26.6,21.3-26.6,16.4,4.8,17.2,12.2c.1,1.3-.6,2-2,2h-4.6c-1.5,0-2.3-.4-2.7-1.5-1-2.6-3.5-3.8-7.9-3.8ZM212.1,146.3c.6,9,4,12.5,11.6,12.5s10-3.3,10-8.3-4.2-8-10.7-8-8.6,1.6-11,3.8ZM251.2,149.5c0,.2.1.3.4.3h1.4c.3,0,.5.2.5.5v1c0,.3-.2.5-.5.5h-1.7v.5c0,1.3.8,2.1,1.9,2.1s.4.1.4.4v1c0,.3-.1.4-.4.4-1.4,0-2.6-.6-2.9-1.8-.4,1.2-1.6,1.8-3,1.8s-.5-.2-.5-.4v-1c0-.3.2-.4.5-.4,1.1,0,1.9-.8,1.9-2.1v-.5h-1.9c-.3,0-.5-.2-.5-.5v-1c0-.3.2-.5.5-.5h2c-.1,0-.2-.2-.2-.4v-.4c0-.3.1-.4.4-.4h1.2c.3,0,.4.1.4.4v.5ZM251.5,161.9c-2.1,0-3.4-1-3.4-2.8s0-1,0-1.4c0-.3.2-.5.5-.5h1.1c.3,0,.5.2.5.5,0,.4,0,.7,0,1.1,0,.8.5,1.2,1.6,1.2,1.9,0,3.8-.1,5.2-.3.3,0,.4.2.4.4v1c0,.3,0,.4-.4.4-1.4.2-3.1.3-5.6.3ZM255.1,153.5c-.1.2-.4.4-.8.4h-.6c-.3,0-.4-.2-.4-.4v-1c0-.3.2-.4.4-.4h.7c.5,0,.7-.3.7-.7v-1.7c0-.3.2-.5.5-.5h1.1c.3,0,.5.2.5.5v7.6c0,.3-.2.5-.5.5h-1.1c-.3,0-.5-.2-.5-.5v-3.6ZM260.8,152.6c0,1,.4,1.5,1.2,1.5s1.2-.6,1.2-1.5-.4-1.5-1.2-1.5-1.2.5-1.2,1.5ZM265.2,152.6c0,2.1-1.2,3.3-3.2,3.3s-3.2-1.3-3.2-3.3,1.2-3.3,3.2-3.3,3.2,1.2,3.2,3.3ZM267,153c-.1.2-.4.4-.8.4h-.3c-.3,0-.4-.2-.4-.4v-1c0-.3.2-.4.4-.4h.3c.5,0,.7-.3.7-.7v-1.2c0-.3.2-.5.5-.5h1.1c.3,0,.5.2.5.5v5.9c0,.3-.2.5-.5.5h-1.1c-.3,0-.5-.2-.5-.5v-2.4ZM266.2,156.8c1.9,0,2.8.8,2.8,2.5s0,1.6,0,2c0,.3-.2.4-.5.4h-1.1c-.3,0-.5-.2-.4-.5,0-.4,0-1.1,0-1.5,0-.7-.3-1-1.1-1-2.2,0-4.1.1-5.7.3-.3,0-.4-.2-.4-.4v-1c0-.3.2-.4.4-.4,1.4-.2,3.2-.3,6-.3ZM279.7,157c-.3,0-.5.2-.5.4v.9c0,.3-.2.5-.4.5h-1.1c-.1,0-.2,0-.3,0,0,.1,0,.2,0,.3,0,.6.4.9,1.1.9,2.3,0,4.7-.1,6.2-.3.3,0,.5.1.5.4v1c0,.3,0,.4-.4.5-1.8.2-4.3.3-6.6.3s-2.9-.9-2.9-2.6,0-.7,0-1c0-.3.2-.5.5-.5h1.1c0,0,.2,0,.2,0v-.4c0-.2.1-.4.3-.5-1,0-2,0-2.8,0-.3,0-.5-.2-.5-.4v-.8c0-.3.2-.4.5-.4.9,0,2,0,3.5,0s3.1,0,3.6,0c.3,0,.5.1.5.4v.8c0,.3-.1.4-.5.4-.4,0-1.4,0-2.1,0ZM274.9,152c0-1.8,1.1-2.7,3.3-2.7s3.3.9,3.3,2.7-1.1,2.7-3.3,2.7-3.3-.9-3.3-2.7ZM282.8,158.7c-.2.3-.5.4-.9.4h-1.3c-.3,0-.4-.2-.4-.4v-.8c0-.3.2-.4.4-.4h1.3c.5,0,.8-.3.8-.8v-7.1c0-.3.2-.5.5-.5h1.1c.3,0,.5.2.5.5v9.2c0,.3-.2.5-.5.5h-1.1c-.3,0-.5-.2-.5-.5h0ZM278.2,153c.9,0,1.3-.3,1.3-1s-.4-1-1.3-1-1.3.3-1.3,1,.4,1,1.3,1Z"/>
    <rect class="st17" x="50" y="222.3" width="176" height="28" rx="6.7" ry="6.7"/>
    <path class="st18" d="M69.9,240.8c-1.2,0-2.1,0-5.1,0s-3.1,0-3.1.4.7.4,4,.4,3.5,0,4.5-.3c.3,0,.4,0,.4.3v.9c0,.2,0,.4-.3.4-1.2.2-3.4.3-4.7.3-4.8,0-6.3-.4-6.3-2.1s1.7-2.1,5.4-2.1,1.9,0,2.8,0,.6,0,.6-.3-.2-.3-.6-.3c-1.8,0-5.5.1-7.4.3-.3,0-.4-.1-.4-.4v-.9c0-.2.1-.4.4-.4.5,0,1,0,1.5,0v-.2c0-.3.1-.4.3-.5-1.3,0-2.4,0-3.3-.1-.4,0-.5-.2-.5-.5v-.8c0-.3.2-.5.5-.4,1.1,0,2.3.1,4.1.1s3.5,0,4.2-.1c.3,0,.5.1.5.4v.8c0,.3-.1.4-.5.5-.5,0-1.6,0-2.4,0-.4,0-.5.2-.5.5v.2c1.6,0,3.4,0,4.9,0,1,0,1.6.4,1.6,1.2s-.4,1.1-.9,1.3h.4c.2,0,.4.1.4.4v.8c0,.2-.2.4-.4.4ZM59,231.4c0-1.7,1.2-2.5,3.7-2.5s3.7.8,3.7,2.5-1.2,2.5-3.7,2.5-3.7-.8-3.7-2.5ZM68,232.4c-.2.2-.4.3-.7.3h-.2c-.3,0-.5-.1-.5-.5v-1.2c0-.3.1-.5.5-.5h.2c.5,0,.7-.2.7-.6v-.7c0-.3.2-.5.5-.5h1.3c.3,0,.5.2.5.5v6.6c0,.3-.2.5-.5.5h-1.3c-.3,0-.5-.2-.5-.5v-3.4ZM62.7,232.1c.9,0,1.4-.2,1.4-.8s-.4-.8-1.4-.8-1.4.2-1.4.8.4.8,1.4.8ZM79.6,241.7v-9.3l-2.3,1.2c0,0-.2,0-.2,0-.2,0-.3-.2-.3-.4v-1.5c0-.3.1-.5.4-.6l2.4-1.4c.3-.2.6-.2.9-.2h.9c.3,0,.5.2.5.5v11.6c0,.3-.2.5-.5.5h-1.3c-.3,0-.5-.2-.5-.5ZM84,235.9c0-4.3,1.7-6.4,5-6.4s5,2.1,5,6.4-1.7,6.4-5,6.4-5-2.1-5-6.4ZM86.3,235.9c0,2.9.9,4.2,2.7,4.2s2.7-1.4,2.7-4.2-.9-4.2-2.7-4.2-2.7,1.4-2.7,4.2ZM95.3,235.9c0-4.3,1.7-6.4,5-6.4s5,2.1,5,6.4-1.7,6.4-5,6.4-5-2.1-5-6.4ZM97.6,235.9c0,2.9.9,4.2,2.7,4.2s2.7-1.4,2.7-4.2-.9-4.2-2.7-4.2-2.7,1.4-2.7,4.2ZM110,234.6h.7c.8,0,1.4-.8,1.4-2s-.4-1.5-1.2-1.5h-1.1c-.3,0-.5.2-.5.5v2.4c0,.4.3.6.8.6ZM109.1,236.7c-1.3,0-2.1-.7-2.1-1.9v-4.8c0-.6.3-.9.9-.9h4c1.5,0,2.4.9,2.4,2.5s-.6,2.6-1.6,3.1h1c.3,0,.5.2.5.5v1c0,.3-.2.5-.5.5h-4.6ZM118.2,238.1c0,.3-.2.5-.5.5h-1.3c-.3,0-.5-.2-.5-.5v-9c0-.3.2-.5.5-.5h1.3c.3,0,.5.2.5.5v3.6c.2-.3.5-.4,1-.4h.5c.3,0,.5.2.5.5v1.2c0,.3-.2.5-.5.5h-.6c-.5,0-.9.4-.9.9v2.8ZM112,243.2c-2.4,0-3.8-1.2-3.8-3.2s0-1.2,0-1.6c0-.3.2-.5.5-.5h1.3c.3,0,.6.2.5.5,0,.5,0,.8,0,1.2,0,.9.6,1.4,1.8,1.4,2,0,4-.1,5.7-.3.3,0,.5.2.5.5v1.2c0,.3,0,.5-.4.5-1.6.2-3.4.3-6,.3ZM131.3,237.7c-.4,0-.6.2-.6.5v1c0,.3-.2.5-.5.5h-1.3c-.1,0-.2,0-.3,0,0,.1,0,.3,0,.4,0,.7.4,1.1,1.2,1.1,2.6,0,5.4-.1,7.1-.3.3,0,.6.2.6.5v1.1c0,.3,0,.5-.4.5-2,.2-4.9.3-7.6.3s-3.3-1.1-3.3-2.9,0-.8,0-1.1c0-.4.2-.5.5-.5h1.3c0,0,.2,0,.3,0v-.4c0-.3.1-.5.4-.6-1.2,0-2.3,0-3.2-.1-.4,0-.5-.2-.5-.5v-.9c0-.3.2-.5.5-.5,1.1,0,2.3.1,4,.1s3.5,0,4.2-.1c.3,0,.5.1.5.5v.9c0,.3-.2.5-.5.5-.5,0-1.6,0-2.4,0ZM125.9,231.9c0-2,1.3-3.1,3.8-3.1s3.8,1.1,3.8,3.1-1.3,3.1-3.8,3.1-3.8-1.1-3.8-3.1ZM134.9,239.6c-.2.3-.5.5-1,.5h-1.5c-.3,0-.5-.2-.5-.5v-.9c0-.3.2-.5.5-.5h1.5c.5,0,.9-.4.9-.9v-8.1c0-.3.2-.5.5-.5h1.3c.3,0,.5.2.5.5v10.6c0,.3-.2.5-.5.5h-1.3c-.3,0-.5-.2-.5-.5h0ZM129.6,233.1c1,0,1.5-.4,1.5-1.2s-.5-1.2-1.5-1.2-1.5.4-1.5,1.2.5,1.2,1.5,1.2ZM147.4,229.5c2.6,0,3.8,1.8,3.8,5.8s-1.2,5.8-3.8,5.8-3.7-1.8-3.7-5.8,1.2-5.8,3.7-5.8ZM145.9,235.3c0,2.6.4,3.7,1.5,3.7s1.5-1,1.5-3.7-.4-3.6-1.5-3.6-1.5,1-1.5,3.6ZM153,229.2c0-.3.2-.5.5-.5h1.3c.3,0,.5.2.5.5v13.3c0,.3-.2.5-.5.5h-1.3c-.3,0-.5-.2-.5-.5v-13.3ZM163.6,241.2c2.3,0,3-.3,3-1s-.7-1-3-1-3,.3-3,1,.7,1,3,1ZM163.6,237c3.6,0,5.3,1,5.3,3.1s-1.7,3.1-5.3,3.1-5.3-1-5.3-3.1,1.7-3.1,5.3-3.1ZM161.1,233.7c-.4,1.3-1.8,2.3-3.4,2.3s-.5-.2-.5-.5v-1.2c0-.3.2-.5.5-.5,1.3,0,2.2-1.2,2.2-2.7v-1.6c0-.4.2-.6.5-.6h1.3c.3,0,.5.2.5.6v1.6c0,1.5.9,2.7,2.2,2.7s.5.2.5.5v1.2c0,.3-.2.5-.5.5-1.6,0-2.9-1-3.4-2.3ZM168.5,235.9c0,.3-.2.5-.5.5h-1.3c-.3,0-.5-.2-.5-.5v-6.7c0-.3.2-.5.5-.5h1.3c.3,0,.5.2.5.5v2.5c.2-.3.5-.4,1-.4h.5c.3,0,.5.2.5.5v1.2c0,.3-.2.5-.5.5h-.6c-.5,0-.9.4-.9.9v1.6ZM183.6,240v1.9c0,.3-.2.5-.5.5h-1.3c-.3,0-.5-.2-.5-.5v-1.8c0-.3.2-.6.5-.8-2,0-3.8,0-5.1-.3-.4,0-.5-.2-.5-.5v-1.2c0-.3.2-.5.5-.5,1.4.2,3.5.3,5.7.3s4.8-.1,5.8-.3c.3,0,.5.1.5.5v1.2c0,.3-.2.4-.5.5-.8.1-2.3.3-3.9.3s-.7.2-.7.7ZM182.5,233.3c-.6,1.4-2.2,2.5-4.4,2.5s-.8,0-.8-.5v-1.2c0-.3.2-.5.5-.5,2.3,0,3.5-1.3,3.5-3.1v-1.1c0-.3.2-.5.5-.5h1.3c.3,0,.5.2.5.5v1.1c0,1.8,1.2,3.1,3.5,3.1s.5.2.5.5v1.2c0,.5-.4.5-.8.5-2.1,0-3.8-1.1-4.4-2.5ZM193.5,243.1c-1.2,0-1.9-.5-2-1.6l-.3-4c0-.3.2-.5.5-.5h1.3c.3,0,.5.2.5.5v.8h6.1v-.8c0-.4.2-.5.6-.5h1.3c.3,0,.5.2.5.5l-.3,4c0,1.1-.7,1.6-2,1.6h-6.3ZM198.6,229c2.2,0,3.2.9,3.2,2.8s-.1,1.4-.4,2.1c.4,0,.7,0,1,0,.3,0,.5.1.5.5v.9c0,.3-.2.5-.5.5-1,0-3.3.1-5.8.1s-4.4,0-5.7-.1c-.4,0-.5-.2-.5-.5v-.9c0-.3.2-.5.5-.5,1.4.1,3.5.1,5.7.1s1.7,0,2.4,0c.2-.4.4-1.1.4-1.6,0-.9-.5-1.3-1.6-1.3-1.7,0-3.6.1-5.7.3-.3,0-.5-.2-.5-.4v-1.2c0-.3.2-.4.5-.5,1.4-.1,3.9-.3,6.4-.3ZM193.8,240.1v.7c0,.3.2.5.5.5h4.7c.3,0,.5-.1.5-.5v-.7s-5.7,0-5.7,0ZM204.9,229.7h6.6c.3,0,.5.2.5.5v1.1c0,.3-.2.5-.5.5h-2.1v3.7c0,1.6,1,3,2.2,3.2.3,0,.5.2.5.5v1.2c0,.3-.2.5-.5.4-1.6-.2-2.9-1.2-3.4-2.6-.4,1.4-1.8,2.4-3.4,2.6-.3,0-.5-.1-.5-.4v-1.2c0-.3.2-.5.5-.5,1.2-.2,2.2-1.5,2.2-3.2v-3.7h-2.1c-.3,0-.5-.2-.5-.5v-1.1c0-.3.2-.5.5-.5ZM215.7,242.5c0,.3-.2.5-.5.5h-1.3c-.3,0-.5-.2-.5-.5v-13.3c0-.3.2-.5.5-.5h1.3c.3,0,.5.2.5.5v5.4c.2-.3.5-.4,1-.4h.5c.3,0,.5.2.5.5v1.2c0,.3-.2.5-.5.5h-.6c-.5,0-.9.4-.9.9v5.2Z"/>
    <g class="st10">
      <g>
        <path class="st13" d="M103.8,289.4v23.4l-20.4,14.6-32.3-22.1v-23.4l52.7,7.6Z"/>
        <path class="st7" d="M51.1,281.8l32.3,22.1,20.4-14.6-32.3-22.1-20.4,14.6Z"/>
        <path class="st3" d="M71.2,303.4l12.2,8.4,20.4-14.6"/>
        <path class="st3" d="M51.1,289.7l13.6,9.3"/>
        <path class="st3" d="M51.1,297.5l32.3,22.1,20.4-14.6"/>
        <path class="st3" d="M51.1,305.2l32.3,22.1,20.4-14.6"/>
        <path class="st14" d="M64.7,313.6v-21.9l20.6-14.4,6.4,4-20.6,14.4v23.4l-6.4-5.4Z"/>
      </g>
    </g>
    <path class="st5" d="M138.5,297.5c-7.8,0-11.6,2.2-11.6,6.7s3.9,6.8,11.6,6.8,11.6-2.3,11.6-6.8-3.8-6.7-11.6-6.7ZM138.5,276.8c-6.2,0-9.7,2.2-9.7,6.1s3.5,6,9.7,6,9.7-2.2,9.7-6-3.5-6.1-9.7-6.1ZM138.5,319.7c-13.4,0-20.7-5.2-20.7-14.9s3.6-10.7,8.9-12.3c-4.2-1.6-7-5.9-7-11.3,0-7.9,7.5-13.1,18.9-13.1s18.9,5.2,18.9,13.1-2.8,9.7-7,11.3c5.3,1.6,8.9,6.4,8.9,12.3,0,9.7-7.3,14.9-20.7,14.9ZM181.4,297.1c-1.3,0-2-.7-2-2v-5c0-1.3.7-2,2-2,7.8,0,10.8-1.7,10.8-6.1s-3.2-5.1-8.8-5.1-8.8,1.6-8.8,4.9-.8,2.1-2.1,2.1h-5.1c-1.3,0-2.1-.8-2.1-2.1,0-8.8,6.5-13.9,18-13.9s18,4.7,18,12.5-2.8,9.2-7.1,11.1c5.8,1.5,9.7,6.5,9.7,12.9,0,9.3-7.6,15.1-20,15.1s-20-5.2-20-13.9.8-2.1,2.1-2.1h5.1c1.3,0,2.1.8,2.1,2.1,0,3.2,3.8,4.9,10.7,4.9s10.7-2.3,10.7-6.8-3.1-6.7-13.4-6.7ZM210.6,306.3h.6c.7,0,1.2-.7,1.2-1.7s-.4-1.3-1.1-1.3h-.9c-.3,0-.4.2-.4.4v2.1c0,.3.3.5.7.5ZM209.8,308.1c-1.2,0-1.9-.6-1.9-1.6v-4.2c0-.5.3-.8.8-.8h3.5c1.3,0,2.1.8,2.1,2.2s-.5,2.3-1.4,2.7h.9c.3,0,.4.2.4.4v.9c0,.3-.2.4-.4.4h-4ZM217.7,309.4c0,.3-.2.5-.5.5h-1.1c-.3,0-.5-.2-.5-.5v-7.8c0-.3.2-.5.5-.5h1.1c.3,0,.5.2.5.5v3.1c.2-.2.5-.4.9-.4h.4c.3,0,.4.2.4.4v1c0,.3-.2.4-.4.4h-.5c-.5,0-.8.3-.8.8v2.4ZM212.4,313.9c-2.1,0-3.4-1-3.4-2.8s0-1,0-1.4c0-.3.2-.5.5-.5h1.1c.3,0,.5.2.5.5,0,.4,0,.7,0,1,0,.8.5,1.2,1.6,1.2,1.8,0,3.5-.1,5-.3.3,0,.4.2.4.4v1c0,.3,0,.4-.4.4-1.4.2-3,.3-5.3.3ZM258.1,297.1c-1.3,0-2-.7-2-2v-5c0-1.3.7-2,2-2,7.8,0,10.8-1.7,10.8-6.1s-3.2-5.1-8.8-5.1-8.8,1.6-8.8,4.9-.8,2.1-2.1,2.1h-5.1c-1.3,0-2.1-.8-2.1-2.1,0-8.8,6.5-13.9,18-13.9s18,4.7,18,12.5-2.8,9.2-7.1,11.1c5.8,1.5,9.7,6.5,9.7,12.9,0,9.3-7.6,15.1-20,15.1s-20-5.2-20-13.9.8-2.1,2.1-2.1h5.1c1.3,0,2.1.8,2.1,2.1,0,3.2,3.8,4.9,10.7,4.9s10.7-2.3,10.7-6.8-3.1-6.7-13.4-6.7ZM288.8,301.5c0,.2.1.3.4.3h1.4c.3,0,.5.2.5.5v1c0,.3-.2.5-.5.5h-1.7v.5c0,1.3.8,2.1,1.9,2.1s.4.1.4.4v1c0,.3-.1.4-.4.4-1.4,0-2.6-.6-2.9-1.8-.4,1.2-1.6,1.8-3,1.8s-.5-.2-.5-.4v-1c0-.3.2-.4.5-.4,1.1,0,1.9-.8,1.9-2.1v-.5h-1.9c-.3,0-.5-.2-.5-.5v-1c0-.3.2-.5.5-.5h2c-.1,0-.2-.2-.2-.4v-.4c0-.3.1-.4.4-.4h1.2c.3,0,.4.1.4.4v.5ZM289.1,313.9c-2.1,0-3.4-1-3.4-2.8s0-1,0-1.4c0-.3.2-.5.5-.5h1.1c.3,0,.5.2.5.5,0,.4,0,.7,0,1,0,.8.5,1.2,1.6,1.2,1.9,0,3.8-.1,5.2-.3.3,0,.4.2.4.4v1c0,.3,0,.4-.4.4-1.4.2-3.1.3-5.6.3ZM292.7,305.5c-.1.2-.4.4-.8.4h-.6c-.3,0-.4-.2-.4-.4v-1c0-.3.2-.4.4-.4h.7c.5,0,.7-.3.7-.7v-1.7c0-.3.2-.5.5-.5h1.1c.3,0,.5.2.5.5v7.6c0,.3-.2.5-.5.5h-1.1c-.3,0-.5-.2-.5-.5v-3.6ZM306.1,312.1c2.1,0,2.7-.2,2.7-.9s-.7-.9-2.7-.9-2.8.2-2.8.9.7.9,2.8.9ZM303.1,305.7h.5c.7,0,1.2-.6,1.2-1.4s-.4-1-1.1-1h-.8c-.3,0-.4.2-.4.4v1.5c0,.3.2.5.6.5ZM306.1,308.4c3.2,0,4.8.9,4.8,2.7s-1.6,2.7-4.8,2.7-4.8-.9-4.8-2.7,1.6-2.7,4.8-2.7ZM302.3,307.6c-1.2,0-1.8-.6-1.8-1.6v-3.7c0-.5.3-.8.8-.8h3.4c1.3,0,2.1.7,2.1,1.9s-.5,2-1.4,2.4h.9c.3,0,.4.2.4.4v.9c0,.3-.2.4-.4.4h-3.9ZM308.5,301.7h0c0-.4.2-.5.5-.5h1.1c.3,0,.5.2.5.5v5.9c0,.3-.2.5-.5.5h-1.1c-.3,0-.5-.2-.5-.5v-.9c-.1.2-.4.3-.7.3h-.3c-.3,0-.4-.2-.4-.4v-1c0-.3.2-.4.4-.4h.5c.4,0,.5-.2.5-.6v-.8c-.1.2-.4.3-.7.3h-.3c-.3,0-.4-.2-.4-.4v-1c0-.3.2-.4.4-.4h.5c.5,0,.5-.2.5-.6Z"/>
    <rect class="st17" x="50" y="374.3" width="180" height="28" rx="6.7" ry="6.7"/>
    <path class="st18" d="M70,392.8c-1.2,0-2.1,0-5.1,0s-3.1,0-3.1.4.7.4,4,.4,3.5,0,4.5-.3c.3,0,.4,0,.4.3v.9c0,.2,0,.4-.3.4-1.2.2-3.4.3-4.7.3-4.8,0-6.3-.4-6.3-2.1s1.7-2.1,5.4-2.1,1.9,0,2.8,0,.6,0,.6-.3-.2-.3-.6-.3c-1.8,0-5.5.1-7.4.3-.3,0-.4-.1-.4-.4v-.9c0-.2.1-.4.4-.4.5,0,1,0,1.5,0v-.2c0-.3.1-.4.3-.5-1.3,0-2.4,0-3.3-.1-.4,0-.5-.2-.5-.5v-.8c0-.3.2-.5.5-.4,1.1,0,2.3.1,4.1.1s3.5,0,4.2-.1c.3,0,.5.1.5.4v.8c0,.3-.1.4-.5.5-.5,0-1.6,0-2.4,0-.4,0-.5.2-.5.5v.2c1.6,0,3.4,0,4.9,0,1,0,1.6.4,1.6,1.2s-.4,1.1-.9,1.3h.4c.2,0,.4.1.4.4v.8c0,.2-.2.4-.4.4ZM59.1,383.4c0-1.7,1.2-2.5,3.7-2.5s3.7.8,3.7,2.5-1.2,2.5-3.7,2.5-3.7-.8-3.7-2.5ZM68.1,384.4c-.2.2-.4.3-.7.3h-.2c-.3,0-.5-.1-.5-.5v-1.2c0-.3.1-.5.5-.5h.2c.5,0,.7-.2.7-.6v-.7c0-.3.2-.5.5-.5h1.3c.3,0,.5.2.5.5v6.6c0,.3-.2.5-.5.5h-1.3c-.3,0-.5-.2-.5-.5v-3.4ZM62.8,384.1c.9,0,1.4-.2,1.4-.8s-.4-.8-1.4-.8-1.4.2-1.4.8.4.8,1.4.8ZM86.3,385.3c0,2-1.2,3.4-3.8,4.7-1.4.7-2.2,1.3-2.6,1.9h6.4c.3,0,.5.2.5.5v1.2c0,.3-.2.5-.5.5h-8.3c-.6,0-.9-.3-.9-.9,0-2,1.1-3.4,4-5,2.1-1.1,2.9-1.8,2.9-2.9s-.9-1.7-2.2-1.7-2.2.7-2.2,1.7-.2.5-.5.5h-1.3c-.3,0-.5-.2-.5-.5,0-2.5,1.6-4,4.5-4s4.5,1.4,4.5,3.8ZM87.9,387.9c0-4.3,1.7-6.4,5-6.4s5,2.1,5,6.4-1.7,6.4-5,6.4-5-2.1-5-6.4ZM90.2,387.9c0,2.9.9,4.2,2.7,4.2s2.7-1.4,2.7-4.2-.9-4.2-2.7-4.2-2.7,1.4-2.7,4.2ZM99.2,387.9c0-4.3,1.7-6.4,5-6.4s5,2.1,5,6.4-1.7,6.4-5,6.4-5-2.1-5-6.4ZM101.5,387.9c0,2.9.9,4.2,2.7,4.2s2.7-1.4,2.7-4.2-.9-4.2-2.7-4.2-2.7,1.4-2.7,4.2ZM113.9,386.6h.7c.8,0,1.4-.8,1.4-2s-.4-1.5-1.2-1.5h-1.1c-.3,0-.5.2-.5.5v2.4c0,.4.3.6.8.6ZM113,388.7c-1.3,0-2.1-.7-2.1-1.9v-4.8c0-.6.3-.9.9-.9h4c1.5,0,2.4.9,2.4,2.5s-.6,2.6-1.6,3.1h1c.3,0,.5.2.5.5v1c0,.3-.2.5-.5.5h-4.6ZM122,390.1c0,.3-.2.5-.5.5h-1.3c-.3,0-.5-.2-.5-.5v-9c0-.3.2-.5.5-.5h1.3c.3,0,.5.2.5.5v3.6c.2-.3.5-.4,1-.4h.5c.3,0,.5.2.5.5v1.2c0,.3-.2.5-.5.5h-.6c-.5,0-.9.4-.9.9v2.8ZM115.9,395.2c-2.4,0-3.8-1.2-3.8-3.2s0-1.2,0-1.6c0-.3.2-.5.5-.5h1.3c.3,0,.6.2.5.5,0,.5,0,.8,0,1.2,0,.9.6,1.4,1.8,1.4,2,0,4-.1,5.7-.3.3,0,.5.2.5.5v1.2c0,.3,0,.5-.4.5-1.6.2-3.4.3-6,.3ZM135.2,389.7c-.4,0-.6.2-.6.5v1c0,.3-.2.5-.5.5h-1.3c-.1,0-.2,0-.3,0,0,.1,0,.3,0,.4,0,.7.4,1.1,1.2,1.1,2.6,0,5.4-.1,7.1-.3.3,0,.6.2.6.5v1.1c0,.3,0,.5-.4.5-2,.2-4.9.3-7.6.3s-3.3-1.1-3.3-2.9,0-.8,0-1.1c0-.4.2-.5.5-.5h1.3c0,0,.2,0,.3,0v-.4c0-.3.1-.5.4-.6-1.2,0-2.3,0-3.2-.1-.4,0-.5-.2-.5-.5v-.9c0-.3.2-.5.5-.5,1.1,0,2.3.1,4,.1s3.5,0,4.2-.1c.3,0,.5.1.5.5v.9c0,.3-.2.5-.5.5-.5,0-1.6,0-2.4,0ZM129.8,383.9c0-2,1.3-3.1,3.8-3.1s3.8,1.1,3.8,3.1-1.3,3.1-3.8,3.1-3.8-1.1-3.8-3.1ZM138.8,391.6c-.2.3-.5.5-1,.5h-1.5c-.3,0-.5-.2-.5-.5v-.9c0-.3.2-.5.5-.5h1.5c.5,0,.9-.4.9-.9v-8.1c0-.3.2-.5.5-.5h1.3c.3,0,.5.2.5.5v10.6c0,.3-.2.5-.5.5h-1.3c-.3,0-.5-.2-.5-.5h0ZM133.5,385.1c1,0,1.5-.4,1.5-1.2s-.5-1.2-1.5-1.2-1.5.4-1.5,1.2.5,1.2,1.5,1.2ZM151.3,381.5c2.6,0,3.8,1.8,3.8,5.8s-1.2,5.8-3.8,5.8-3.7-1.8-3.7-5.8,1.2-5.8,3.7-5.8ZM149.8,387.3c0,2.6.4,3.7,1.5,3.7s1.5-1,1.5-3.7-.4-3.6-1.5-3.6-1.5,1-1.5,3.6ZM156.8,381.2c0-.3.2-.5.5-.5h1.3c.3,0,.5.2.5.5v13.3c0,.3-.2.5-.5.5h-1.3c-.3,0-.5-.2-.5-.5v-13.3ZM167.5,393.2c2.3,0,3-.3,3-1s-.7-1-3-1-3,.3-3,1,.7,1,3,1ZM167.5,389c3.6,0,5.3,1,5.3,3.1s-1.7,3.1-5.3,3.1-5.3-1-5.3-3.1,1.7-3.1,5.3-3.1ZM165,385.7c-.4,1.3-1.8,2.3-3.4,2.3s-.5-.2-.5-.5v-1.2c0-.3.2-.5.5-.5,1.3,0,2.2-1.2,2.2-2.7v-1.6c0-.4.2-.6.5-.6h1.3c.3,0,.5.2.5.6v1.6c0,1.5.9,2.7,2.2,2.7s.5.2.5.5v1.2c0,.3-.2.5-.5.5-1.6,0-2.9-1-3.4-2.3ZM172.4,387.9c0,.3-.2.5-.5.5h-1.3c-.3,0-.5-.2-.5-.5v-6.7c0-.3.2-.5.5-.5h1.3c.3,0,.5.2.5.5v2.5c.2-.3.5-.4,1-.4h.5c.3,0,.5.2.5.5v1.2c0,.3-.2.5-.5.5h-.6c-.5,0-.9.4-.9.9v1.6ZM187.5,392v1.9c0,.3-.2.5-.5.5h-1.3c-.3,0-.5-.2-.5-.5v-1.8c0-.3.2-.6.5-.8-2,0-3.8,0-5.1-.3-.4,0-.5-.2-.5-.5v-1.2c0-.3.2-.5.5-.5,1.4.2,3.5.3,5.7.3s4.8-.1,5.8-.3c.3,0,.5.1.5.5v1.2c0,.3-.2.4-.5.5-.8.1-2.3.3-3.9.3s-.7.2-.7.7ZM186.4,385.3c-.6,1.4-2.2,2.5-4.4,2.5s-.8,0-.8-.5v-1.2c0-.3.2-.5.5-.5,2.3,0,3.5-1.3,3.5-3.1v-1.1c0-.3.2-.5.5-.5h1.3c.3,0,.5.2.5.5v1.1c0,1.8,1.2,3.1,3.5,3.1s.5.2.5.5v1.2c0,.5-.4.5-.8.5-2.1,0-3.8-1.1-4.4-2.5ZM197.4,395.1c-1.2,0-1.9-.5-2-1.6l-.3-4c0-.3.2-.5.5-.5h1.3c.3,0,.5.2.5.5v.8h6.1v-.8c0-.4.2-.5.6-.5h1.3c.3,0,.5.2.5.5l-.3,4c0,1.1-.7,1.6-2,1.6h-6.3ZM202.5,381c2.2,0,3.2.9,3.2,2.8s-.1,1.4-.4,2.1c.4,0,.7,0,1,0,.3,0,.5.1.5.5v.9c0,.3-.2.5-.5.5-1,0-3.3.1-5.8.1s-4.4,0-5.7-.1c-.4,0-.5-.2-.5-.5v-.9c0-.3.2-.5.5-.5,1.4.1,3.5.1,5.7.1s1.7,0,2.4,0c.2-.4.4-1.1.4-1.6,0-.9-.5-1.3-1.6-1.3-1.7,0-3.6.1-5.7.3-.3,0-.5-.2-.5-.4v-1.2c0-.3.2-.4.5-.5,1.4-.1,3.9-.3,6.4-.3ZM197.6,392.1v.7c0,.3.2.5.5.5h4.7c.3,0,.5-.1.5-.5v-.7s-5.7,0-5.7,0ZM208.8,381.7h6.6c.3,0,.5.2.5.5v1.1c0,.3-.2.5-.5.5h-2.1v3.7c0,1.6,1,3,2.2,3.2.3,0,.5.2.5.5v1.2c0,.3-.2.5-.5.4-1.6-.2-2.9-1.2-3.4-2.6-.4,1.4-1.8,2.4-3.4,2.6-.3,0-.5-.1-.5-.4v-1.2c0-.3.2-.5.5-.5,1.2-.2,2.2-1.5,2.2-3.2v-3.7h-2.1c-.3,0-.5-.2-.5-.5v-1.1c0-.3.2-.5.5-.5ZM219.6,394.5c0,.3-.2.5-.5.5h-1.3c-.3,0-.5-.2-.5-.5v-13.3c0-.3.2-.5.5-.5h1.3c.3,0,.5.2.5.5v5.4c.2-.3.5-.4,1-.4h.5c.3,0,.5.2.5.5v1.2c0,.3-.2.5-.5.5h-.6c-.5,0-.9.4-.9.9v5.2Z"/>
    <path class="st13" d="M93,435.9v12.7l-11.1,7.9-17.5-12v-12.7l28.6,4.1Z"/>
    <path class="st7" d="M64.3,431.8l17.5,12,11.1-7.9-17.5-12-11.1,7.9Z"/>
    <path class="st3" d="M75.2,443.5l6.6,4.6,11.1-7.9"/>
    <path class="st3" d="M64.3,436l7.4,5.1"/>
    <path class="st3" d="M64.3,440.3l17.5,12,11.1-7.9"/>
    <path class="st2" d="M64.3,444.5l17.5,12,11.1-7.9"/>
    <path class="st14" d="M71.7,449v-11.9l11.2-7.8,3.5,2.2-11.2,7.8v12.7l-3.5-3Z"/>
    <path class="st13" d="M103.2,452.8v12.7l-11.1,7.9-17.5-12v-12.7l28.6,4.1Z"/>
    <path class="st7" d="M74.5,448.7l17.5,12,11.1-7.9-17.5-12-11.1,7.9Z"/>
    <path class="st3" d="M85.4,460.4l6.6,4.6,11.1-7.9"/>
    <path class="st2" d="M74.5,453l7.4,5.1"/>
    <path class="st3" d="M74.5,457.2l17.5,12,11.1-7.9"/>
    <path class="st3" d="M74.5,461.4l17.5,12,11.1-7.9"/>
    <path class="st14" d="M81.9,465.9v-11.9l11.2-7.8,3.5,2.2-11.2,7.8v12.7l-3.5-3Z"/>
    <path class="st13" d="M81,454.2v12.7l-11.1,7.9-17.5-12v-12.7l28.6,4.1Z"/>
    <path class="st7" d="M52.4,450l17.5,12,11.1-7.9-17.5-12-11.1,7.9Z"/>
    <path class="st3" d="M63.3,461.8l6.6,4.6,11.1-7.9"/>
    <path class="st3" d="M52.4,454.3l7.4,5.1"/>
    <path class="st3" d="M52.4,458.5l17.5,12,11.1-7.9"/>
    <path class="st3" d="M52.4,462.7l17.5,12,11.1-7.9"/>
    <path class="st14" d="M59.8,467.3v-11.9l11.2-7.8,3.5,2.2-11.2,7.8v12.7l-3.5-3Z"/>
    <path class="st5" d="M118.5,451.5l21.4-28.6c1-1.4,2.5-2.2,4.2-2.2h4.7c2.4,0,3.6,1.3,3.6,3.7v27.6h4.8c1.3,0,2,.7,2,2v5c0,1.3-.7,2-2,2h-4.8v7.9c0,1.3-.8,2.1-2.1,2.1h-5.1c-1.3,0-2.1-.8-2.1-2.1v-7.9h-22c-2.5,0-3.8-1.2-3.8-3.6v-2.8c0-1,.3-1.9,1-2.9ZM128.8,452.1h14.5v-19.3l-14.5,19.3ZM164,458.3h.6c.7,0,1.2-.7,1.2-1.7s-.4-1.3-1.1-1.3h-.9c-.3,0-.4.2-.4.4v2.1c0,.3.3.5.7.5ZM163.2,460.1c-1.2,0-1.9-.6-1.9-1.6v-4.2c0-.5.3-.8.8-.8h3.5c1.3,0,2.1.8,2.1,2.2s-.5,2.3-1.4,2.7h.9c.3,0,.4.2.4.4v.9c0,.3-.2.4-.4.4h-4ZM171.1,461.4c0,.3-.2.5-.5.5h-1.1c-.3,0-.5-.2-.5-.5v-7.8c0-.3.2-.5.5-.5h1.1c.3,0,.5.2.5.5v3.1c.2-.2.5-.4.9-.4h.4c.3,0,.4.2.4.4v1c0,.3-.2.4-.4.4h-.5c-.5,0-.8.3-.8.8v2.4ZM165.8,465.9c-2.1,0-3.4-1-3.4-2.8s0-1,0-1.4c0-.3.2-.5.5-.5h1.1c.3,0,.5.2.5.5,0,.4,0,.7,0,1,0,.8.5,1.2,1.6,1.2,1.8,0,3.5-.1,5-.3.3,0,.4.2.4.4v1c0,.3,0,.4-.4.4-1.4.2-3,.3-5.3.3ZM194.6,451.5l21.4-28.6c1-1.4,2.5-2.2,4.2-2.2h4.7c2.4,0,3.6,1.3,3.6,3.7v27.6h4.8c1.3,0,2,.7,2,2v5c0,1.3-.7,2-2,2h-4.8v7.9c0,1.3-.8,2.1-2.1,2.1h-5.1c-1.3,0-2.1-.8-2.1-2.1v-7.9h-22c-2.5,0-3.8-1.2-3.8-3.6v-2.8c0-1,.3-1.9,1-2.9ZM204.9,452.1h14.5v-19.3l-14.5,19.3ZM241.6,453.5c0,.2.1.3.4.3h1.4c.3,0,.5.2.5.5v1c0,.3-.2.5-.5.5h-1.7v.5c0,1.3.8,2.1,1.9,2.1s.4.1.4.4v1c0,.3-.1.4-.4.4-1.4,0-2.6-.6-2.9-1.8-.4,1.2-1.6,1.8-3,1.8s-.5-.2-.5-.4v-1c0-.3.2-.4.5-.4,1.1,0,1.9-.8,1.9-2.1v-.5h-1.9c-.3,0-.5-.2-.5-.5v-1c0-.3.2-.5.5-.5h2c-.1,0-.2-.2-.2-.4v-.4c0-.3.1-.4.4-.4h1.2c.3,0,.4.1.4.4v.5ZM241.8,465.9c-2.1,0-3.4-1-3.4-2.8s0-1,0-1.4c0-.3.2-.5.5-.5h1.1c.3,0,.5.2.5.5,0,.4,0,.7,0,1,0,.8.5,1.2,1.6,1.2,1.9,0,3.8-.1,5.2-.3.3,0,.4.2.4.4v1c0,.3,0,.4-.4.4-1.4.2-3.1.3-5.6.3ZM245.4,457.5c-.1.2-.4.4-.8.4h-.6c-.3,0-.4-.2-.4-.4v-1c0-.3.2-.4.4-.4h.7c.5,0,.7-.3.7-.7v-1.7c0-.3.2-.5.5-.5h1.1c.3,0,.5.2.5.5v7.6c0,.3-.2.5-.5.5h-1.1c-.3,0-.5-.2-.5-.5v-3.6ZM258.8,464.1c2.1,0,2.7-.2,2.7-.9s-.7-.9-2.7-.9-2.8.2-2.8.9.7.9,2.8.9ZM255.9,457.7h.5c.7,0,1.2-.6,1.2-1.4s-.4-1-1.1-1h-.8c-.3,0-.4.2-.4.4v1.5c0,.3.2.5.6.5ZM258.8,460.4c3.2,0,4.8.9,4.8,2.7s-1.6,2.7-4.8,2.7-4.8-.9-4.8-2.7,1.6-2.7,4.8-2.7ZM255,459.6c-1.2,0-1.8-.6-1.8-1.6v-3.7c0-.5.3-.8.8-.8h3.4c1.3,0,2.1.7,2.1,1.9s-.5,2-1.4,2.4h.9c.3,0,.4.2.4.4v.9c0,.3-.2.4-.4.4h-3.9ZM261.2,453.7h0c0-.4.2-.5.5-.5h1.1c.3,0,.5.2.5.5v5.9c0,.3-.2.5-.5.5h-1.1c-.3,0-.5-.2-.5-.5v-.9c-.1.2-.4.3-.7.3h-.3c-.3,0-.4-.2-.4-.4v-1c0-.3.2-.4.4-.4h.5c.4,0,.5-.2.5-.6v-.8c-.1.2-.4.3-.7.3h-.3c-.3,0-.4-.2-.4-.4v-1c0-.3.2-.4.4-.4h.5c.5,0,.5-.2.5-.6Z"/>
    <rect class="st17" x="50" y="526.3" width="185" height="28" rx="6.7" ry="6.7"/>
    <path class="st18" d="M67.4,541.7c2.2,0,3.2.9,3.2,2.8s0,1.7,0,2c0,.3-.2.5-.5.5h-1.3c-.3,0-.5-.2-.5-.5,0-.4,0-1,0-1.5,0-.8-.4-1.2-1.2-1.2-2.5,0-4.7.2-6.5.3-.3,0-.5-.2-.5-.5v-1.2c0-.3.2-.5.5-.5,1-.1,2.1-.2,3.5-.2v-1c0-.3.1-.4.3-.6-1.7,0-3.7,0-4.9-.1-.4,0-.5-.2-.5-.5v-.9c0-.3.2-.5.5-.5,1.4.1,3.5.1,5.7.1s1.7,0,2.5,0c.2-.4.4-1.1.4-1.8s-.5-1.4-1.6-1.4c-1.7,0-3.6.1-5.7.3-.3,0-.5-.2-.5-.4v-1.2c0-.3.2-.4.5-.5,1.4-.1,3.9-.3,6.4-.3s3.2.9,3.2,2.9-.1,1.7-.3,2.4c.4,0,.7,0,1,0,.3,0,.5.1.5.5v.9c0,.3-.2.5-.5.5-.8,0-2.5.1-4,.1s-.6.2-.6.5v1h1ZM76.3,538.6h.7c.8,0,1.4-.8,1.4-2s-.4-1.5-1.2-1.5h-1.1c-.3,0-.5.2-.5.5v2.4c0,.4.3.6.8.6ZM75.4,540.7c-1.3,0-2.1-.7-2.1-1.9v-4.8c0-.6.3-.9.9-.9h4c1.5,0,2.4.9,2.4,2.5s-.6,2.6-1.6,3.1h1c.3,0,.5.2.5.5v1c0,.3-.2.5-.5.5h-4.6ZM82.4,533.2c0-.3.2-.5.5-.5h1.3c.3,0,.5.2.5.5v9c0,.3-.2.5-.5.5h-1.3c-.3,0-.5-.2-.5-.5v-9ZM78.3,547.2c-2.4,0-3.8-1.2-3.8-3.2s0-1.2,0-1.6c0-.3.2-.5.5-.5h1.3c.3,0,.6.2.5.5,0,.5,0,.8,0,1.2,0,.9.6,1.4,1.8,1.4,2.2,0,4.3-.1,6-.3.3,0,.5.2.5.5v1.2c0,.3,0,.5-.4.5-1.6.2-3.6.3-6.4.3ZM88.9,536.8c0,1.2.5,1.9,1.4,1.9s1.4-.7,1.4-1.9-.5-1.9-1.4-1.9-1.4.7-1.4,1.9ZM96,533.5v-.3c0-.3.2-.5.5-.5h1.3c.3,0,.5.2.5.5v9c0,.3-.2.5-.5.5h-1.3c-.3,0-.5-.2-.5-.5v-2.8c-.2.2-.4.4-.8.4h-.4c-.3,0-.5-.2-.5-.5v-1.1c0-.3.2-.5.5-.5h.7c.5,0,.6-.2.6-.6v-1.1c-.2.2-.4.4-.8.4h-.4c-.3,0-.5-.2-.5-.5v-1.1c0-.3.2-.5.5-.5h.7c.5,0,.6-.1.6-.6ZM90.3,532.9c2.3,0,3.7,1.5,3.7,4s-1.4,4-3.7,4-3.7-1.5-3.7-4,1.4-4,3.7-4ZM91.9,547.2c-2.4,0-3.8-1.2-3.8-3.2s0-1.2,0-1.6c0-.3.2-.5.5-.5h1.3c.3,0,.6.2.5.5,0,.5,0,.8,0,1.2,0,.9.6,1.4,1.8,1.4,2.2,0,4.3-.1,6-.3.3,0,.5.2.5.5v1.2c0,.3,0,.5-.4.5-1.6.2-3.6.3-6.4.3ZM110.8,545.2h1c.3,0,.5.2.5.5v.8c0,.3-.2.5-.5.5h-8.3c-1.3,0-2-.6-2-1.7v-3.2c0-.6.3-.9.9-.9h7.6c1.3,0,2,.7,2,1.9s-.5,1.7-1.3,2.1ZM108.7,533c2.2,0,3.2.9,3.2,2.8s-.2,1.6-.4,2.3c.4,0,.7,0,1,0,.3,0,.5.1.5.5v.9c0,.3-.2.5-.5.5-1,0-3.3.1-5.8.1s-4.4,0-5.7-.1c-.4,0-.5-.2-.5-.5v-.9c0-.3.2-.5.5-.5,1.4.1,3.5.1,5.7.1s1.7,0,2.4,0c.2-.4.4-1.2.4-1.8,0-.9-.5-1.3-1.6-1.3-1.7,0-3.6.1-5.7.3-.3,0-.5-.2-.5-.4v-1.2c0-.3.2-.4.5-.5,1.4-.1,3.9-.3,6.4-.3ZM108.7,545.2c.6,0,1-.5,1-1.1s-.2-.8-.7-.8h-4.8c-.3,0-.4.1-.4.4v1c0,.4.3.6.7.6h4.2ZM124.2,533v.8c0,.2.1.4.4.4h1.7c.3,0,.5.2.5.5v1.1c0,.3-.2.5-.5.5h-2.1v.8c0,1.3.8,2.1,2.1,2.1s.5.2.5.5v1.2c0,.4-.3.5-.6.5-1.5,0-2.7-.9-3.2-2.1-.4,1.2-1.7,2.1-3.2,2.1s-.7,0-.7-.5v-1.2c0-.3.2-.5.5-.5,1.3,0,2.1-.8,2.1-2.1v-.8h-2.1c-.3,0-.5-.2-.5-.5v-1.1c0-.3.2-.5.5-.5h2.4c-.2,0-.2-.2-.2-.5v-.7c0-.3.2-.5.5-.5h1.3c.3,0,.5.2.5.5ZM130.6,546.5c0,.3-.2.5-.5.5h-1.3c-.3,0-.5-.2-.5-.5v-13.3c0-.3.2-.5.5-.5h1.3c.3,0,.5.2.5.5v13.3ZM118.6,545.3v-1.2c0-.3.2-.5.5-.5.8.1,1.9.2,3.1.2-.3-.1-.4-.4-.4-.8v-.8c0-.3.2-.5.5-.5h1.3c.3,0,.5.2.5.5v.9c0,.4.2.7.7.7s1.5,0,2.2-.2c.3,0,.5.1.5.5v1.2c0,.3-.2.4-.5.5-.7.1-2.5.2-4,.2s-2.8,0-3.9-.2c-.4,0-.5-.2-.5-.5ZM141.9,541.3c-.3,0-.4-.2-.4-.5.2-1.1.3-2.3.3-3.3s-.7-1.9-1.9-1.9-3.2.2-5.4.3c-.3,0-.5-.2-.5-.4v-1.2c0-.3.2-.4.5-.5,2.2-.2,4.2-.3,5.9-.3,2.4,0,3.6,1.3,3.6,3.6s0,2.9-.3,4c0,.3-.2.4-.5.4l-1.3-.2ZM133.3,545.5c-.4,0-.5-.2-.5-.5v-1.2c0-.3.2-.5.5-.5,1.2.1,2.8.2,4.2.3-.3-.1-.5-.4-.5-.8v-2.9c0-.3.2-.5.5-.5h1.3c.3,0,.5.2.5.5v3.1c0,.4.2.7.7.7,1.1,0,3.5,0,4.8-.2.3,0,.5.1.5.5v1.2c0,.3-.2.4-.5.5-1,.2-3.3.3-5.8.3s-4.4,0-5.7-.3ZM161.8,545.2h1c.3,0,.5.2.5.5v.8c0,.3-.2.5-.5.5h-8.3c-1.3,0-2-.6-2-1.7v-3.2c0-.6.3-.9.9-.9h7.6c1.3,0,2,.7,2,1.9s-.5,1.7-1.3,2.1ZM159.7,533c2.2,0,3.2.9,3.2,2.8s-.2,1.6-.4,2.3c.4,0,.7,0,1,0,.3,0,.5.1.5.5v.9c0,.3-.2.5-.5.5-1,0-3.3.1-5.8.1s-4.4,0-5.7-.1c-.4,0-.5-.2-.5-.5v-.9c0-.3.2-.5.5-.5,1.4.1,3.5.1,5.7.1s1.7,0,2.4,0c.2-.4.4-1.2.4-1.8,0-.9-.5-1.3-1.6-1.3-1.7,0-3.6.1-5.7.3-.3,0-.5-.2-.5-.4v-1.2c0-.3.2-.4.5-.5,1.4-.1,3.9-.3,6.4-.3ZM159.8,545.2c.6,0,1-.5,1-1.1s-.2-.8-.7-.8h-4.8c-.3,0-.4.1-.4.4v1c0,.4.3.6.7.6h4.2ZM171.8,536.7c0,2.4-1.1,3.8-3.2,3.8s-3.3-1.4-3.3-3.8,1.1-3.8,3.2-3.8,3.2,1.4,3.2,3.8ZM176.2,533.2c0-.3.2-.5.5-.5h1.2c.3,0,.5.2.5.5v6.8c0,.3-.2.5-.5.5h-1.2c-.3,0-.5-.2-.5-.5v-2.4h-.6c-.4,0-.6.3-.6.6v1.8c0,.3-.2.5-.5.5h-1.2c-.3,0-.5-.2-.5-.5v-6.6c0-.3.2-.5.5-.5h1.2c.3,0,.5.2.5.5v2.4c.1-.2.4-.3.6-.3h.6v-2.2ZM167.9,541.8c1.6-.2,3.9-.3,7.2-.3s3.2.9,3.2,2.8,0,1.9,0,2.3c0,.3-.2.5-.5.5h-1.3c-.3,0-.5-.2-.5-.5,0-.5,0-1.2,0-1.7,0-.8-.4-1.2-1.2-1.2-2.7,0-5,.2-6.8.3-.3,0-.5-.2-.5-.5v-1.2c0-.3.2-.5.5-.5ZM167.5,536.7c0,1.2.3,1.7,1.1,1.7s1.1-.6,1.1-1.7-.4-1.7-1.1-1.7-1.1.6-1.1,1.7ZM192.4,544v1.9c0,.3-.2.5-.5.5h-1.3c-.3,0-.5-.2-.5-.5v-1.8c0-.3.2-.6.5-.8-2,0-3.8,0-5.1-.3-.4,0-.5-.2-.5-.5v-1.2c0-.3.2-.5.5-.5,1.4.2,3.5.3,5.7.3s4.8-.1,5.8-.3c.3,0,.5.1.5.5v1.2c0,.3-.2.4-.5.5-.8.1-2.3.3-3.9.3s-.7.2-.7.7ZM191.3,537.3c-.6,1.4-2.2,2.5-4.4,2.5s-.8,0-.8-.5v-1.2c0-.3.2-.5.5-.5,2.3,0,3.5-1.3,3.5-3.1v-1.1c0-.3.2-.5.5-.5h1.3c.3,0,.5.2.5.5v1.1c0,1.8,1.2,3.1,3.5,3.1s.5.2.5.5v1.2c0,.5-.4.5-.8.5-2.1,0-3.8-1.1-4.4-2.5ZM202.4,547.1c-1.2,0-1.9-.5-2-1.6l-.3-4c0-.3.2-.5.5-.5h1.3c.3,0,.5.2.5.5v.8h6.1v-.8c0-.4.2-.5.6-.5h1.3c.3,0,.5.2.5.5l-.3,4c0,1.1-.7,1.6-2,1.6h-6.3ZM207.4,533c2.2,0,3.2.9,3.2,2.8s-.1,1.4-.4,2.1c.4,0,.7,0,1,0,.3,0,.5.1.5.5v.9c0,.3-.2.5-.5.5-1,0-3.3.1-5.8.1s-4.4,0-5.7-.1c-.4,0-.5-.2-.5-.5v-.9c0-.3.2-.5.5-.5,1.4.1,3.5.1,5.7.1s1.7,0,2.4,0c.2-.4.4-1.1.4-1.6,0-.9-.5-1.3-1.6-1.3-1.7,0-3.6.1-5.7.3-.3,0-.5-.2-.5-.4v-1.2c0-.3.2-.4.5-.5,1.4-.1,3.9-.3,6.4-.3ZM202.6,544.1v.7c0,.3.2.5.5.5h4.7c.3,0,.5-.1.5-.5v-.7s-5.7,0-5.7,0ZM213.8,533.7h6.6c.3,0,.5.2.5.5v1.1c0,.3-.2.5-.5.5h-2.1v3.7c0,1.6,1,3,2.2,3.2.3,0,.5.2.5.5v1.2c0,.3-.2.5-.5.4-1.6-.2-2.9-1.2-3.4-2.6-.4,1.4-1.8,2.4-3.4,2.6-.3,0-.5-.1-.5-.4v-1.2c0-.3.2-.5.5-.5,1.2-.2,2.2-1.5,2.2-3.2v-3.7h-2.1c-.3,0-.5-.2-.5-.5v-1.1c0-.3.2-.5.5-.5ZM224.6,546.5c0,.3-.2.5-.5.5h-1.3c-.3,0-.5-.2-.5-.5v-13.3c0-.3.2-.5.5-.5h1.3c.3,0,.5.2.5.5v5.4c.2-.3.5-.4,1-.4h.5c.3,0,.5.2.5.5v1.2c0,.3-.2.5-.5.5h-.6c-.5,0-.9.4-.9.9v5.2Z"/>
    <g class="st4">
      <path class="st17" d="M77,591.4h-27v1.7h27v-1.7Z"/>
    </g>
    <path class="st17" d="M60.9,572.9c0-.3.1-.5.5-.5h1.1c.3,0,.5.1.5.5v12.5c0,.3-.1.5-.5.5h-1.1c-.3,0-.5-.2-.5-.5v-5.8h-.6c-.3,0-.6.2-.6.6v5.2c0,.3-.2.5-.5.5h-1.1c-.3,0-.5-.2-.5-.5v-12.4c0-.3.2-.5.5-.5h1.1c.3,0,.5.2.5.5v4.8c.1-.2.4-.3.6-.3h.6v-4.6ZM54.5,576.6c0-1-.3-1.2-1-1.2s-1.7.2-2.5.3c-.3,0-.5-.2-.5-.5v-1.1c0-.3.1-.4.5-.5.8-.2,1.8-.3,2.7-.3,2,0,2.9.8,2.9,3s-.2,4.8-.6,7c0,.3-.2.4-.5.4h-1.1c-.3,0-.5-.1-.4-.5.3-2.5.5-4.7.5-6.7ZM73.5,572.9c0-.3.2-.5.5-.5h1.2c.3,0,.5.2.5.5v8.4c0,.3-.2.5-.5.5h-1.2c-.3,0-.5-.2-.5-.5v-8.4ZM68.3,572.6c2.2,0,3.5,1.4,3.5,3.7s-1.3,3.7-3.5,3.7-3.5-1.4-3.5-3.7,1.3-3.7,3.5-3.7ZM66.9,576.3c0,1.2.5,1.8,1.4,1.8s1.4-.6,1.4-1.8-.5-1.8-1.4-1.8-1.4.6-1.4,1.8ZM69.6,586.1c-2.3,0-3.6-1.1-3.6-3s0-1.1,0-1.5c0-.3.2-.5.5-.5h1.2c.3,0,.5.2.5.5,0,.5,0,.7,0,1.1,0,.9.6,1.3,1.7,1.3,2,0,4-.1,5.6-.3.3,0,.4.2.5.5v1.1c0,.3,0,.4-.4.5-1.5.2-3.3.3-6,.3Z"/>
    <g class="st12">
      <g>
        <path class="st6" d="M86.5,645.6h-18.1c-9.8,0-17.7,7.9-17.7,17.7v9.7h53.4v-9.7c0-9.8-7.9-17.7-17.7-17.7h0Z"/>
        <path class="st8" d="M104.2,673.8h-53.4c-.4,0-.7-.3-.7-.7v-9.7c0-10.2,8.3-18.4,18.4-18.4h18.1c10.2,0,18.4,8.3,18.4,18.4v9.7c0,.4-.3.7-.7.7h0ZM51.5,672.3h52v-9c0-9.3-7.6-16.9-16.9-16.9h-18.1c-9.3,0-16.9,7.6-16.9,16.9v9Z"/>
        <path class="st13" d="M82.6,645.6v-5.3h-10.3v5.3h-3.7c0,4.8,4,8.7,8.9,8.7s8.8-3.9,8.9-8.7h-3.7,0Z"/>
        <path class="st8" d="M77.4,655.1c-5.2,0-9.5-4.2-9.6-9.5,0-.2,0-.4.2-.5.1-.1.3-.2.5-.2h3v-4.5c0-.4.3-.7.7-.7h10.3c.4,0,.7.3.7.7v4.5h3c.2,0,.4,0,.5.2.1.1.2.3.2.5,0,5.2-4.4,9.5-9.6,9.5h0ZM69.4,646.4c.4,4.1,3.9,7.2,8.1,7.2s7.6-3.2,8.1-7.2h-2.9c-.4,0-.7-.3-.7-.7v-4.5h-8.8v4.5c0,.4-.3.7-.7.7h-2.9Z"/>
        <path class="st13" d="M64.6,626.8c0-2.2-1.8-4-4-4s-4,1.8-4,4,1.8,4,4,4,4-1.8,4-4Z"/>
        <path class="st8" d="M60.6,631.5c-2.6,0-4.7-2.1-4.7-4.7s2.1-4.7,4.7-4.7,4.7,2.1,4.7,4.7-2.1,4.7-4.7,4.7ZM60.6,623.5c-1.8,0-3.3,1.5-3.3,3.3s1.5,3.3,3.3,3.3,3.3-1.5,3.3-3.3-1.5-3.3-3.3-3.3Z"/>
        <path class="st13" d="M59.4,626.1s.7-.2,1.6.8l-1.6-.8Z"/>
        <path class="st8" d="M60.9,627.6c-.2,0-.4,0-.6-.3-.5-.5-.8-.6-.8-.6-.4,0-.8-.1-.9-.5-.1-.4,0-.8.5-.9.1,0,1.2-.4,2.4,1,.3.3.2.8,0,1-.1.1-.3.2-.5.2h0Z"/>
        <path class="st13" d="M90.3,626.8c0-2.2,1.8-4,4-4s4,1.8,4,4-1.8,4-4,4-4-1.8-4-4Z"/>
        <path class="st8" d="M94.3,631.5c-2.6,0-4.7-2.1-4.7-4.7s2.1-4.7,4.7-4.7,4.7,2.1,4.7,4.7-2.1,4.7-4.7,4.7ZM94.3,623.5c-1.8,0-3.3,1.5-3.3,3.3s1.5,3.3,3.3,3.3,3.3-1.5,3.3-3.3-1.5-3.3-3.3-3.3Z"/>
        <path class="st13" d="M95.5,626.1s-.7-.2-1.6.8l1.6-.8Z"/>
        <path class="st8" d="M94,627.6c-.2,0-.3,0-.5-.2-.3-.3-.4-.7,0-1,1.2-1.4,2.2-1.1,2.4-1,.4.1.6.5.5.9-.1.4-.5.6-.9.5,0,0-.4,0-.8.6-.1.2-.4.3-.6.3h0Z"/>
        <path class="st13" d="M94.1,623.5c0,9.9-5.8,19.7-16.7,19.7s-16.7-9.8-16.7-19.7,6.3-18,16.7-18,16.7,8,16.7,18Z"/>
        <path class="st8" d="M77.4,644c-5.3,0-9.8-2.2-13-6.4-2.9-3.7-4.4-8.7-4.4-14,0-11,7.2-18.7,17.4-18.7s17.4,7.9,17.4,18.7-1.6,10.3-4.4,14c-3.2,4.2-7.7,6.4-13,6.4ZM77.4,606.3c-9.4,0-15.9,7.1-15.9,17.2s5.5,19,15.9,19,15.9-9.6,15.9-19-6.7-17.2-15.9-17.2Z"/>
        <path class="st8" d="M72.5,625.9c0,.9-.6,1.7-1.4,1.7s-1.4-.8-1.4-1.7.6-1.7,1.4-1.7,1.4.8,1.4,1.7Z"/>
        <path class="st8" d="M85.1,625.9c0,.9-.6,1.7-1.4,1.7s-1.4-.8-1.4-1.7.6-1.7,1.4-1.7,1.4.8,1.4,1.7Z"/>
        <path class="st13" d="M79.2,628.2c-1-1.6-2.6-1.6-3.6,0h3.6Z"/>
        <path class="st8" d="M75.7,629c-.1,0-.3,0-.4-.1-.4-.2-.5-.7-.3-1,.6-1,1.5-1.6,2.4-1.6s1.8.6,2.4,1.6c.2.4,0,.8-.3,1s-.8,0-1-.3c-.3-.5-.7-.9-1.1-.9s-.8.3-1.1.9c-.1.2-.4.4-.6.4h0Z"/>
        <path class="st13" d="M72.9,629.4s-2.7,1.6-3.6,5.3l3.6-5.3Z"/>
        <path class="st8" d="M69.3,635.4c0,0-.1,0-.2,0-.4,0-.6-.5-.6-.9.9-4,3.8-5.7,3.9-5.8.4-.2.8,0,1,.3.2.4,0,.8-.3,1,0,0-2.5,1.5-3.2,4.8,0,.3-.4.6-.7.6h0Z"/>
        <path class="st13" d="M82,629.4s2.7,1.6,3.6,5.3l-3.6-5.3Z"/>
        <path class="st8" d="M85.6,635.4c-.3,0-.6-.2-.7-.6-.8-3.4-3.2-4.8-3.2-4.8-.4-.2-.5-.7-.3-1,.2-.4.7-.5,1-.3.1,0,3,1.8,3.9,5.8,0,.4-.2.8-.6.9,0,0-.1,0-.2,0h0Z"/>
        <path class="st8" d="M76.4,654.9c-.2,0-.5-.1-.6-.4l-5-8.1c-.2-.4-.1-.8.2-1,.4-.2.8-.1,1,.2l5,8.1c.2.4.1.8-.2,1-.1,0-.3.1-.4.1Z"/>
        <path class="st8" d="M78.4,654.9c-.1,0-.3,0-.4-.1-.4-.2-.5-.7-.2-1l5-8.1c.2-.4.7-.5,1-.2.4.2.5.7.2,1l-5,8.1c-.1.2-.4.4-.6.4Z"/>
        <path class="st8" d="M77.5,658.2c-6.9,0-12.6-5.4-12.7-12.1,0-.4.3-.7.7-.8.4,0,.7.3.8.7,0,5.9,5.1,10.6,11.2,10.6s11.1-4.8,11.2-10.6c0-.4.4-.7.8-.7.4,0,.7.3.7.8-.1,6.7-5.8,12.1-12.7,12.1Z"/>
        <path class="st8" d="M58.2,673.8c-.4,0-.7-.3-.7-.7v-13.4c0-.4.3-.7.7-.7s.7.3.7.7v13.4c0,.4-.3.7-.7.7Z"/>
        <path class="st8" d="M96.8,673.8c-.4,0-.7-.3-.7-.7v-13.4c0-.4.3-.7.7-.7s.7.3.7.7v13.4c0,.4-.3.7-.7.7Z"/>
        <path class="st8" d="M82.4,633.6h-9.9c-.3,0-.5-.2-.7-.4-.1-.2-.1-.5,0-.8,1.5-2.1,3.5-3.3,5.6-3.3s4.1,1.2,5.6,3.3c.2.2.2.5,0,.8-.1.2-.4.4-.7.4ZM74.1,632.1h6.7c-1-1-2.2-1.5-3.4-1.5s-2.4.5-3.4,1.5Z"/>
        <path class="st13" d="M74.3,632.9c0,2.3,1.4,4.2,3.1,4.2s3.1-1.9,3.1-4.2h-6.3Z"/>
        <path class="st8" d="M77.5,637.8c-2.1,0-3.9-2.2-3.9-4.9s.3-.7.7-.7h6.3c.4,0,.7.3.7.7,0,2.7-1.7,4.9-3.9,4.9ZM75.1,633.6c.2,1.5,1.2,2.7,2.3,2.7s2.1-1.2,2.3-2.7h-4.7Z"/>
        <path class="st8" d="M73.1,622.9c-.1,0-.2,0-.3,0-1.2-.6-2.5,0-2.5,0-.4.2-.8,0-1-.4-.2-.4,0-.8.4-1,0,0,2-.8,3.8,0,.4.2.5.6.4,1-.1.3-.4.4-.7.4h0Z"/>
        <path class="st8" d="M85,622.9c0,0-.2,0-.3,0,0,0-1.4-.6-2.5,0-.4.2-.8,0-1-.4s0-.8.4-1c1.8-.8,3.7,0,3.8,0,.4.2.5.6.4,1-.1.3-.4.4-.7.4Z"/>
        <path class="st13" d="M60.8,624.8s.5-2.6,2.7-4.9c2.2-2.2,6.4-8.7,2.1-10.4-4.3-1.8-9,8.1-4.9,15.3Z"/>
        <path class="st8" d="M60.8,625.6c-.3,0-.5-.1-.6-.4-2.6-4.6-1.8-10.2,0-13.4,1.2-2.1,2.8-3.2,4.4-3.2s.9,0,1.3.3c1.2.5,2,1.4,2.2,2.6.6,3.1-2.5,7.4-4.1,9-2,2-2.5,4.4-2.5,4.5,0,.3-.3.5-.6.6,0,0,0,0-.1,0ZM64.6,610.1c-1.1,0-2.2.9-3.1,2.5-1.4,2.5-2.2,6.6-.8,10.3.4-1,1.2-2.2,2.3-3.4,1.8-1.8,4.2-5.5,3.7-7.7-.1-.7-.6-1.2-1.3-1.5-.2-.1-.5-.2-.8-.2h0Z"/>
        <path class="st13" d="M94.2,624.8s-.5-2.6-2.7-4.9c-2.2-2.2-6.4-8.7-2.1-10.4,4.3-1.8,9,8.1,4.9,15.3Z"/>
        <path class="st8" d="M94.2,625.6s0,0-.1,0c-.3,0-.6-.3-.6-.6,0,0-.5-2.5-2.5-4.5-1.6-1.6-4.7-5.9-4.1-9,.2-1.2,1-2.1,2.2-2.6.4-.2.9-.3,1.3-.3,1.6,0,3.2,1.2,4.4,3.2,1.9,3.2,2.7,8.8,0,13.4-.1.2-.4.4-.6.4ZM90.3,610.1c-.3,0-.5,0-.8.2-.8.3-1.2.8-1.3,1.5-.4,2.2,1.9,5.9,3.7,7.7,1.1,1.1,1.9,2.4,2.3,3.4,1.4-3.7.7-7.8-.8-10.3-.9-1.6-2.1-2.5-3.1-2.5h0Z"/>
        <path class="st8" d="M81.3,618h-7.7c-.4,0-.7-.3-.7-.7s.3-.7.7-.7h7.7c.4,0,.7.3.7.7s-.3.7-.7.7Z"/>
        <path class="st8" d="M81.3,615.4h-7.7c-.4,0-.7-.3-.7-.7s.3-.7.7-.7h7.7c.4,0,.7.3.7.7s-.3.7-.7.7Z"/>
      </g>
    </g>
    <path class="st5" d="M155.2,625.4c0,7.8-4.8,13.4-15,18.9-5.5,2.9-8.8,5.4-10.4,7.7h25.4c1.3,0,2,.7,2,2v5c0,1.3-.7,2-2,2h-33.3c-2.4,0-3.6-1.3-3.6-3.7,0-8.2,4.5-13.5,16.2-19.9,8.3-4.5,11.5-7.4,11.5-11.5s-3.5-6.8-8.8-6.8-8.8,2.6-8.8,6.8-.8,2.1-2.1,2.1h-5.1c-1.3,0-2.1-.8-2.1-2.1,0-10.2,6.5-15.8,18-15.8s18,5.6,18,15.4ZM181.4,639.5c-7.8,0-11.6,2.2-11.6,6.7s3.9,6.8,11.6,6.8,11.6-2.3,11.6-6.8-3.8-6.7-11.6-6.7ZM181.4,618.8c-6.2,0-9.7,2.2-9.7,6.1s3.5,6,9.7,6,9.7-2.2,9.7-6-3.5-6.1-9.7-6.1ZM181.4,661.7c-13.4,0-20.7-5.2-20.7-14.9s3.6-10.7,8.9-12.3c-4.2-1.6-7-5.9-7-11.3,0-7.9,7.5-13.1,18.9-13.1s18.9,5.2,18.9,13.1-2.8,9.7-7,11.3c5.3,1.6,8.9,6.4,8.9,12.3,0,9.7-7.3,14.9-20.7,14.9ZM206.4,627.4c0-10.4,7.4-17.3,19.6-17.3,13.8,0,20.7,7.8,20.7,25s-6.3,26.6-21,26.6-16.8-4.8-17.5-12.2c-.1-1.3.6-2,2-2h4.6c1.5,0,2.3.4,2.7,1.5,1,2.6,3.8,3.8,8.3,3.8,8,0,10.9-3.8,11.5-13.2-3.6,2.6-8.3,4.2-13.2,4.2-10.8,0-17.7-6.4-17.8-16.3ZM237.4,631.3c-.7-9-4.4-12.5-11.6-12.5s-10,3.3-10,8.3,4.2,8,10.7,8,8.5-1.5,11-3.8ZM253.4,648.3h.6c.7,0,1.2-.7,1.2-1.7s-.4-1.3-1.1-1.3h-.9c-.3,0-.4.2-.4.4v2.1c0,.3.3.5.7.5ZM252.6,650.1c-1.2,0-1.9-.6-1.9-1.6v-4.2c0-.5.3-.8.8-.8h3.5c1.3,0,2.1.8,2.1,2.2s-.5,2.3-1.4,2.7h.9c.3,0,.4.2.4.4v.9c0,.3-.2.4-.4.4h-4ZM260.5,651.4c0,.3-.2.5-.5.5h-1.1c-.3,0-.5-.2-.5-.5v-7.8c0-.3.2-.5.5-.5h1.1c.3,0,.5.2.5.5v3.1c.2-.2.5-.4.9-.4h.4c.3,0,.4.2.4.4v1c0,.3-.2.4-.4.4h-.5c-.5,0-.8.3-.8.8v2.4ZM255.1,655.9c-2.1,0-3.4-1-3.4-2.8s0-1,0-1.4c0-.3.2-.5.5-.5h1.1c.3,0,.5.2.5.5,0,.4,0,.7,0,1,0,.8.5,1.2,1.6,1.2,1.7,0,3.5-.1,5-.3.3,0,.4.2.4.4v1c0,.3,0,.4-.4.4-1.4.2-3,.3-5.3.3ZM272,651c-.3,0-.5.2-.5.4v.9c0,.3-.2.5-.4.5h-1.1c-.1,0-.2,0-.3,0,0,.1,0,.2,0,.3,0,.6.4.9,1.1.9,2.3,0,4.7-.1,6.2-.3.3,0,.5.1.5.4v1c0,.3,0,.4-.4.5-1.8.2-4.3.3-6.6.3s-2.9-.9-2.9-2.6,0-.7,0-1c0-.3.2-.5.5-.5h1.1c0,0,.2,0,.2,0v-.4c0-.2.1-.4.3-.5-1.1,0-2,0-2.8,0-.3,0-.5-.2-.5-.4v-.8c0-.3.2-.4.5-.4.9,0,2,0,3.5,0s3.1,0,3.6,0c.3,0,.5.1.5.4v.8c0,.3-.1.4-.5.4-.4,0-1.4,0-2.1,0ZM267.2,646c0-1.8,1.1-2.7,3.3-2.7s3.3.9,3.3,2.7-1.1,2.7-3.3,2.7-3.3-.9-3.3-2.7ZM275.1,652.7c-.2.3-.5.4-.9.4h-1.3c-.3,0-.4-.2-.4-.4v-.8c0-.3.2-.4.4-.4h1.3c.5,0,.8-.3.8-.8v-7.1c0-.3.2-.5.5-.5h1.1c.3,0,.5.2.5.5v9.2c0,.3-.2.5-.5.5h-1.1c-.3,0-.5-.2-.5-.5h0ZM270.5,647c.9,0,1.3-.3,1.3-1s-.4-1-1.3-1-1.3.3-1.3,1,.4,1,1.3,1Z"/>
    <rect class="st19" x="50" y="686.3" width="260" height="1"/>
    <g class="st9">
      <path class="st17" d="M104,718.4h-54v1.7h54v-1.7Z"/>
    </g>
    <path class="st17" d="M54.5,702.9v.8c0,.3.2.5.6.5h3.8c.4,0,.5-.2.6-.5v-.8s-5,0-5,0ZM58.1,710v1.8c0,.3-.2.5-.5.5h-1.2c-.3,0-.5-.2-.5-.5v-1.7c0-.3.2-.6.5-.7-1.9,0-3.6,0-4.8-.3-.3,0-.5-.2-.5-.5v-1.1c0-.3.2-.5.5-.5,1.3.2,3.3.3,5.4.3s4.5-.1,5.4-.3c.3,0,.5.1.5.5v1.1c0,.3-.2.4-.5.5-.7.1-2.1.2-3.7.2s-.6.2-.6.6ZM59.6,706.2h-5.2c-1.2,0-1.9-.6-2-1.7l-.2-4.3c0-.3.2-.5.5-.5h1.2c.3,0,.5.1.5.4v.7h5.2v-.7c0-.3.2-.4.5-.4h1.2c.3,0,.5.2.5.5l-.2,4.3c0,1.1-.8,1.7-2,1.7ZM67.8,702.9v.8c0,.3.2.5.6.5h3.8c.4,0,.5-.2.6-.5v-.8s-5,0-5,0ZM71.4,710v1.8c0,.3-.2.5-.5.5h-1.2c-.3,0-.5-.2-.5-.5v-1.7c0-.3.2-.6.5-.7-1.9,0-3.6,0-4.8-.3-.3,0-.5-.2-.5-.5v-1.1c0-.3.2-.5.5-.5,1.3.2,3.3.3,5.4.3s4.5-.1,5.4-.3c.3,0,.5.1.5.5v1.1c0,.3-.2.4-.5.5-.7.1-2.1.2-3.7.2s-.6.2-.6.6ZM73,706.2h-5.2c-1.2,0-1.9-.6-2-1.7l-.2-4.3c0-.3.2-.5.5-.5h1.2c.3,0,.5.1.5.4v.7h5.2v-.7c0-.3.2-.4.5-.4h1.2c.3,0,.5.2.5.5l-.2,4.3c0,1.1-.8,1.7-2,1.7ZM79.9,704.4c0,.4.4.5,1.3.5s1.3-.1,1.3-.5-.4-.5-1.3-.5-1.3.1-1.3.5ZM80.9,710.1v.5c0,.3.2.4.5.4h4c.3,0,.4-.1.5-.4v-.5s-4.9,0-4.9,0ZM80.8,712.9c-1.2,0-1.9-.6-2-1.6l-.2-3.4c0-.3.2-.5.5-.5h1.2c.3,0,.5.2.5.5v.5h5.2v-.5c0-.3.2-.5.5-.5h1.2c.3,0,.5.2.5.5l-.2,3.4c0,1.1-.8,1.6-2,1.6h-5.2ZM81.2,702.2c2.3,0,3.4.6,3.4,2.2s-1.1,2.2-3.4,2.2-3.4-.6-3.4-2.2,1.1-2.2,3.4-2.2ZM82.3,699.2v.4c0,.2.1.3.4.3h1.9c.3,0,.5.1.5.5v.9c0,.3-.2.5-.5.5h-6.8c-.3,0-.5-.2-.5-.5v-.9c0-.3.1-.5.5-.5h2.6c-.2,0-.2-.2-.2-.4v-.3c0-.3.1-.5.5-.5h1.2c.3,0,.5.2.5.5ZM88.2,706c0,.3-.2.5-.5.5h-1.2c-.3,0-.5-.2-.5-.5v-6.1c0-.3.2-.5.5-.5h1.2c.3,0,.5.2.5.5v2.2c.2-.3.5-.4.9-.4h.5c.3,0,.5.2.5.5v1.1c0,.3-.2.5-.5.5h-.5c-.5,0-.9.3-.9.8v1.5ZM94.6,704.8c-.4,1.2-1.7,2.1-3.2,2.1s-.5-.2-.5-.5v-1.1c0-.3.2-.4.5-.4,1.2,0,2.1-1.1,2.1-2.5v-2.1c0-.3.2-.5.5-.5h1.2c.3,0,.5.2.5.5v2.1c0,1.4.9,2.5,2.1,2.5s.5.2.5.4v1.1c0,.3-.1.5-.5.5-1.5,0-2.7-1-3.2-2.1ZM101.6,708.3c0,.3-.2.5-.5.5h-1.2c-.3,0-.5-.2-.5-.5v-8.4c0-.3.2-.5.5-.5h1.2c.3,0,.5.2.5.5v3.4c.2-.3.5-.4.9-.4h.5c.3,0,.5.2.5.5v1.1c0,.3-.2.5-.5.5h-.5c-.5,0-.9.3-.9.8v2.6ZM95.8,713.1c-2.3,0-3.6-1.1-3.6-3s0-1.1,0-1.5c0-.3.2-.5.5-.5h1.2c.3,0,.5.2.5.5,0,.5,0,.7,0,1.1,0,.9.6,1.3,1.7,1.3,1.9,0,3.7-.1,5.3-.3.3,0,.4.2.5.5v1.1c0,.3,0,.4-.4.5-1.5.2-3.2.3-5.7.3Z"/>
    <g class="st11">
      <g>
        <path class="st6" d="M90.7,751.6c-.6-.6-1.5-1-2.4-1s-1.4.2-2,.7c-.6-.4-1.3-.7-2-.7s-1.7.3-2.4,1c-1.3,1.3-1.3,3.4,0,4.7l3.9,3.9c.1.1.3.2.4.2s.3,0,.4-.2l3.9-3.9c1.3-1.3,1.3-3.4,0-4.7Z"/>
        <path class="st8" d="M86.3,761c-.3,0-.6-.1-.8-.3l-3.9-3.9c-1.5-1.5-1.5-4,0-5.5.7-.7,1.7-1.1,2.7-1.1s1.4.2,2,.6c.6-.4,1.3-.6,2-.6,1,0,2,.4,2.7,1.1,1.5,1.5,1.5,4,0,5.5l-3.9,3.9c-.2.2-.5.3-.8.3ZM84.3,751.2c-.7,0-1.4.3-2,.8-1.1,1.1-1.1,2.9,0,4l3.9,3.9s0,0,.1,0l3.9-3.9c1.1-1.1,1.1-2.9,0-4-.5-.5-1.2-.8-2-.8s-1.2.2-1.7.6c-.2.2-.5.2-.7,0-.5-.4-1.1-.6-1.7-.6h0Z"/>
        <path class="st6" d="M93.5,733.5c-1-1-2.4-1.6-3.9-1.6s-2.4.4-3.3,1.1c-1-.7-2.1-1.1-3.3-1.1s-2.8.6-3.9,1.6c-2.1,2.1-2.1,5.6,0,7.8l6.5,6.5c.2.2.5.3.7.3s.5-.1.7-.3l6.5-6.5c2.1-2.1,2.1-5.6,0-7.8Z"/>
        <path class="st8" d="M86.3,748.6c-.4,0-.8-.2-1.1-.5l-6.5-6.5c-2.3-2.3-2.3-6.2,0-8.5,1.1-1.1,2.6-1.8,4.3-1.8s2.4.3,3.3,1c1-.7,2.1-1,3.3-1s3.1.6,4.3,1.8c2.3,2.3,2.3,6.2,0,8.5l-6.5,6.5c-.3.3-.7.5-1.1.5h0ZM83,732.4c-1.3,0-2.6.5-3.5,1.5-1.9,1.9-1.9,5.1,0,7l6.5,6.5c.2.2.5.2.7,0l6.5-6.5c1.9-1.9,1.9-5.1,0-7-.9-.9-2.2-1.5-3.5-1.5s-2.1.4-3,1c-.2.2-.5.2-.7,0-.9-.7-1.9-1-3-1Z"/>
        <path class="st13" d="M70.6,778.5c0,3.3-3,6-6.8,6s-6.8-2.7-6.8-6,3-6,6.8-6,6.8,2.7,6.8,6Z"/>
        <path class="st8" d="M63.7,785c-4,0-7.3-2.9-7.3-6.5s3.3-6.5,7.3-6.5,7.3,2.9,7.3,6.5-3.3,6.5-7.3,6.5ZM63.7,773c-3.5,0-6.3,2.4-6.3,5.5s2.8,5.5,6.3,5.5,6.3-2.4,6.3-5.5-2.8-5.5-6.3-5.5Z"/>
        <path class="st6" d="M76.4,782.5h-13.1c-7.1,0-12.8,5.7-12.8,12.8v5.5h38.6v-5.5c0-7.1-5.7-12.8-12.8-12.8h0Z"/>
        <path class="st8" d="M89.2,801.2h-38.6c-.3,0-.5-.2-.5-.5v-5.5c0-7.3,6-13.3,13.3-13.3h13.1c7.3,0,13.3,6,13.3,13.3v5.5c0,.3-.2.5-.5.5h0ZM51.1,800.1h37.5v-4.9c0-6.7-5.5-12.2-12.2-12.2h-13.1c-6.7,0-12.2,5.5-12.2,12.2v4.9Z"/>
        <path class="st13" d="M73.6,782.5v-2.9h-7.4v2.9h-2.7c0,3.5,2.9,6.3,6.4,6.3s6.3-2.8,6.4-6.3h-2.7,0Z"/>
        <path class="st8" d="M69.9,789.3c-3.8,0-6.9-3.1-6.9-6.8,0-.1,0-.3.2-.4.1-.1.2-.2.4-.2h2.1v-2.4c0-.3.2-.5.5-.5h7.4c.3,0,.5.2.5.5v2.4h2.1c.1,0,.3,0,.4.2.1.1.2.2.2.4,0,3.8-3.2,6.8-6.9,6.8h0ZM64,783c.3,2.9,2.8,5.2,5.8,5.2s5.5-2.3,5.8-5.2h-2.1c-.3,0-.5-.2-.5-.5v-2.4h-6.4v2.4c0,.3-.2.5-.5.5h-2.1Z"/>
        <path class="st13" d="M60.6,770.4c0-1.6-1.3-2.9-2.9-2.9s-2.9,1.3-2.9,2.9,1.3,2.9,2.9,2.9,2.9-1.3,2.9-2.9Z"/>
        <path class="st8" d="M57.7,773.8c-1.9,0-3.4-1.5-3.4-3.4s1.5-3.4,3.4-3.4,3.4,1.5,3.4,3.4-1.5,3.4-3.4,3.4ZM57.7,768c-1.3,0-2.4,1.1-2.4,2.4s1.1,2.4,2.4,2.4,2.4-1.1,2.4-2.4-1.1-2.4-2.4-2.4Z"/>
        <path class="st13" d="M56.8,769.9s.5-.2,1.1.6l-1.1-.6Z"/>
        <path class="st8" d="M57.9,771c-.2,0-.3,0-.4-.2-.3-.4-.6-.4-.6-.4-.3,0-.6,0-.6-.4,0-.3,0-.6.3-.7,0,0,.9-.3,1.7.8.2.2.2.6,0,.8-.1,0-.2.1-.3.1h0Z"/>
        <path class="st13" d="M79.2,770.4c0-1.6,1.3-2.9,2.9-2.9s2.9,1.3,2.9,2.9-1.3,2.9-2.9,2.9-2.9-1.3-2.9-2.9Z"/>
        <path class="st8" d="M82.1,773.8c-1.9,0-3.4-1.5-3.4-3.4s1.5-3.4,3.4-3.4,3.4,1.5,3.4,3.4-1.5,3.4-3.4,3.4ZM82.1,768c-1.3,0-2.4,1.1-2.4,2.4s1.1,2.4,2.4,2.4,2.4-1.1,2.4-2.4-1.1-2.4-2.4-2.4Z"/>
        <path class="st13" d="M82.9,769.9s-.5-.2-1.1.6l1.1-.6Z"/>
        <path class="st8" d="M81.8,771c-.1,0-.2,0-.3-.1-.2-.2-.3-.5,0-.8.8-1,1.6-.8,1.7-.8.3,0,.4.4.3.7,0,.3-.4.4-.6.4,0,0-.3,0-.6.4-.1.1-.3.2-.4.2h0Z"/>
        <path class="st13" d="M81.9,768.3c0,7.2-4.2,13.3-12,13.3s-12-6.2-12-13.3,5.4-13,12-13,12,5.8,12,13Z"/>
        <path class="st8" d="M69.9,782.2c-3.8,0-7.1-1.4-9.4-4.2-2.1-2.5-3.2-5.9-3.2-9.7,0-7.5,5.6-13.5,12.6-13.5s12.6,6.1,12.6,13.5-1.1,7.2-3.2,9.7c-2.3,2.7-5.5,4.2-9.4,4.2ZM69.9,755.9c-6.3,0-11.5,5.6-11.5,12.4s5.8,12.8,11.5,12.8,11.5-4,11.5-12.8-5.2-12.4-11.5-12.4Z"/>
        <path class="st8" d="M66.3,769.4c0,.7-.4,1.2-1,1.2s-1-.6-1-1.2.4-1.2,1-1.2,1,.6,1,1.2Z"/>
        <path class="st8" d="M75.4,769.4c0,.7-.4,1.2-1,1.2s-1-.6-1-1.2.4-1.2,1-1.2,1,.6,1,1.2Z"/>
        <path class="st13" d="M69,771.6c.5.5,1.3.5,1.8,0h-1.8Z"/>
        <path class="st8" d="M69.9,772.5c-.5,0-.9-.2-1.3-.5-.2-.2-.2-.6,0-.8.2-.2.6-.2.8,0,.3.3.7.3,1,0,.2-.2.6-.2.8,0,.2.2.2.6,0,.8-.3.3-.8.5-1.3.5h0Z"/>
        <path class="st8" d="M63,770.8h-.6c-.3,0-.5-.2-.5-.5s.2-.5.5-.5h.6c.3,0,.5.2.5.5s-.2.5-.5.5Z"/>
        <path class="st8" d="M62.9,772.3c-.2,0-.3,0-.4-.2-.2-.2-.1-.6.1-.8l.4-.3c.2-.2.6-.1.8.1.2.2.1.6-.1.8l-.4.3c0,0-.2.1-.3.1Z"/>
        <path class="st8" d="M77.3,770.8h-.6c-.3,0-.5-.2-.5-.5s.2-.5.5-.5h.6c.3,0,.5.2.5.5s-.2.5-.5.5Z"/>
        <path class="st8" d="M76.8,772.3c-.1,0-.2,0-.3-.1l-.4-.3c-.2-.2-.3-.5-.1-.8.2-.2.5-.3.8-.1l.4.3c.2.2.3.5.1.8-.1.1-.3.2-.4.2Z"/>
        <path class="st13" d="M67.1,773.5c0,1.5,1.2,2.8,2.8,2.8s2.8-1.2,2.8-2.8h-5.6Z"/>
        <path class="st8" d="M69.9,776.8c-1.8,0-3.3-1.5-3.3-3.3s.2-.5.5-.5h5.6c.3,0,.5.2.5.5,0,1.8-1.5,3.3-3.3,3.3ZM67.7,774.1c.2,1,1.1,1.7,2.2,1.7s1.9-.7,2.2-1.7h-4.4Z"/>
        <path class="st13" d="M57.6,767.6s7.3-2,12.3-8.3v-4.7s-12.3-.8-12.3,13Z"/>
        <path class="st8" d="M57.6,768.2c-.1,0-.2,0-.3-.1-.1-.1-.2-.3-.2-.4,0-12.9,10.3-13.6,12.4-13.6s.4,0,.4,0c.3,0,.5.3.5.5v4.7c0,.1,0,.2-.1.3-5,6.4-12.3,8.4-12.6,8.5,0,0,0,0-.1,0h0ZM69.3,755.1c-9.7,0-11,8.6-11.2,11.7,1.9-.7,7.3-2.9,11.2-7.7v-4h0Z"/>
        <path class="st13" d="M82.1,767.6s-7.3-2-12.3-8.3v-4.7s12.3-.8,12.3,13Z"/>
        <path class="st8" d="M82.1,768.2s0,0-.1,0c-.3,0-7.6-2.1-12.6-8.5,0,0-.1-.2-.1-.3v-4.7c0-.3.2-.5.5-.5,0,0,.2,0,.4,0,2.1,0,12.4.7,12.4,13.5,0,0,0,0,0,0,0,.3-.2.5-.5.5h0ZM70.4,759.2c3.9,4.9,9.3,7.1,11.2,7.7-.2-3.1-1.5-11.7-11.2-11.7v4h0Z"/>
        <path class="st8" d="M60.6,764.6c-.1,0-.2,0-.3,0-.2-.2-.3-.5-.1-.7.1-.2,3.3-4.6,9-6.4.3,0,.6,0,.7.4,0,.3,0,.6-.4.7-5.3,1.7-8.4,6-8.4,6-.1.2-.3.2-.4.2h0Z"/>
        <path class="st8" d="M77.7,762.1c-.2,0-.4,0-.5-.2-2.6-4.2-7-4.7-7-4.7-.3,0-.5-.3-.5-.6,0-.3.3-.5.6-.5.2,0,4.9.6,7.8,5.2.2.3,0,.6-.2.7,0,0-.2,0-.3,0h0Z"/>
        <path class="st13" d="M55.9,778.4c0-.7-.6-1.2-1.2-1.2s-1.2.6-1.2,1.2.6,1.2,1.2,1.2h4v-1.2h-2.8Z"/>
        <path class="st8" d="M58.7,780.2h-4c-1,0-1.8-.8-1.8-1.8s.8-1.8,1.8-1.8,1.5.5,1.7,1.2h2.3c.3,0,.5.2.5.5v1.2c0,.3-.2.5-.5.5ZM54.7,777.7c-.4,0-.7.3-.7.7s.3.7.7.7h3.5v-.2h-2.3c-.3,0-.5-.2-.5-.5s-.3-.7-.7-.7Z"/>
        <path class="st8" d="M56.3,801.2c-.3,0-.5-.2-.5-.5v-5.9c0-.3.2-.5.5-.5s.5.2.5.5v5.9c0,.3-.2.5-.5.5Z"/>
        <path class="st8" d="M83.4,801.2c-.3,0-.5-.2-.5-.5v-5.9c0-.3.2-.5.5-.5s.5.2.5.5v5.9c0,.3-.2.5-.5.5Z"/>
        <path class="st8" d="M64,767.3c-.2,0-.3,0-.4-.2-.2-.2-.1-.6.1-.7,0,0,1.4-1,2.9-.4.3.1.4.4.3.7-.1.3-.4.4-.7.3-.9-.4-1.8.2-1.9.2,0,0-.2.1-.3.1h0Z"/>
        <path class="st8" d="M75.7,767.3c-.1,0-.2,0-.3,0,0,0-.9-.6-1.9-.3-.3.1-.6,0-.7-.3-.1-.3,0-.6.3-.7,1.5-.6,2.8.3,2.9.4.2.2.3.5.1.8-.1.1-.3.2-.4.2h0Z"/>
        <path class="st6" d="M112.9,780.9h-13.1c-7.1,0-12.8,5.7-12.8,12.8v7h38.6v-7c0-7.1-5.7-12.8-12.8-12.8h0Z"/>
        <path class="st8" d="M125.7,801.2h-38.6c-.3,0-.5-.2-.5-.5v-7c0-7.3,6-13.3,13.3-13.3h13.1c7.3,0,13.3,6,13.3,13.3v7c0,.3-.2.5-.5.5h0ZM87.6,800.1h37.5v-6.5c0-6.7-5.5-12.2-12.2-12.2h-13.1c-6.7,0-12.2,5.5-12.2,12.2v6.5h0Z"/>
        <path class="st13" d="M110.1,780.9v-3.8h-7.4v3.8h-2.7c0,3.5,2.9,6.3,6.4,6.3s6.3-2.8,6.4-6.3h-2.7,0Z"/>
        <path class="st8" d="M106.3,787.7c-3.8,0-6.9-3.1-6.9-6.8,0-.1,0-.3.2-.4.1-.1.2-.2.4-.2h2.1v-3.3c0-.3.2-.5.5-.5h7.4c.3,0,.5.2.5.5v3.3h2.1c.1,0,.3,0,.4.2s.2.2.2.4c0,3.8-3.2,6.8-6.9,6.8h0ZM100.5,781.4c.3,2.9,2.8,5.2,5.8,5.2s5.5-2.3,5.8-5.2h-2.1c-.3,0-.5-.2-.5-.5v-3.3h-6.4v3.3c0,.3-.2.5-.5.5h-2.1Z"/>
        <path class="st13" d="M97,767.3c0-1.6-1.3-2.9-2.9-2.9s-2.9,1.3-2.9,2.9,1.3,2.9,2.9,2.9,2.9-1.3,2.9-2.9Z"/>
        <path class="st8" d="M94.1,770.7c-1.9,0-3.4-1.5-3.4-3.4s1.5-3.4,3.4-3.4,3.4,1.5,3.4,3.4-1.5,3.4-3.4,3.4ZM94.1,764.9c-1.3,0-2.4,1.1-2.4,2.4s1.1,2.4,2.4,2.4,2.4-1.1,2.4-2.4-1.1-2.4-2.4-2.4Z"/>
        <path class="st13" d="M93.3,766.8s.5-.2,1.1.6l-1.1-.6Z"/>
        <path class="st8" d="M94.4,767.9c-.2,0-.3,0-.4-.2-.3-.4-.6-.4-.6-.4-.3,0-.6,0-.6-.4,0-.3,0-.6.3-.7,0,0,.9-.3,1.7.8.2.2.2.6,0,.8-.1,0-.2.1-.3.1h0Z"/>
        <path class="st13" d="M115.6,767.3c0-1.6,1.3-2.9,2.9-2.9s2.9,1.3,2.9,2.9-1.3,2.9-2.9,2.9-2.9-1.3-2.9-2.9Z"/>
        <path class="st8" d="M118.5,770.7c-1.9,0-3.4-1.5-3.4-3.4s1.5-3.4,3.4-3.4,3.4,1.5,3.4,3.4-1.5,3.4-3.4,3.4ZM118.5,764.9c-1.3,0-2.4,1.1-2.4,2.4s1.1,2.4,2.4,2.4,2.4-1.1,2.4-2.4-1.1-2.4-2.4-2.4Z"/>
        <path class="st13" d="M119.4,766.8s-.5-.2-1.1.6l1.1-.6Z"/>
        <path class="st8" d="M118.3,767.9c-.1,0-.2,0-.3-.1-.2-.2-.3-.5,0-.8.8-1,1.6-.8,1.7-.8.3,0,.4.4.3.7,0,.3-.4.4-.6.4,0,0-.3,0-.6.4-.1.1-.3.2-.4.2h0Z"/>
        <path class="st13" d="M118.4,764.9c0,7.2-4.2,14.3-12,14.3s-12-7.1-12-14.3,4.5-13,12-13,12,5.8,12,13Z"/>
        <path class="st8" d="M106.3,779.7c-3.8,0-7.1-1.6-9.4-4.7-2.1-2.7-3.2-6.3-3.2-10.1,0-8,5.2-13.5,12.6-13.5s12.6,5.7,12.6,13.5-1.1,7.4-3.2,10.1c-2.3,3-5.6,4.7-9.4,4.7ZM106.3,752.5c-6.8,0-11.5,5.1-11.5,12.4s3.9,13.7,11.5,13.7,11.5-6.9,11.5-13.7-4.8-12.4-11.5-12.4Z"/>
        <path class="st8" d="M102.8,766.6c0,.7-.4,1.2-1,1.2s-1-.6-1-1.2.4-1.2,1-1.2,1,.6,1,1.2Z"/>
        <path class="st8" d="M111.8,766.6c0,.7-.4,1.2-1,1.2s-1-.6-1-1.2.4-1.2,1-1.2,1,.6,1,1.2Z"/>
        <path class="st13" d="M107.6,768.3c-.7-1.2-1.9-1.2-2.6,0h2.6Z"/>
        <path class="st8" d="M105.1,768.9c0,0-.2,0-.3,0-.3-.2-.3-.5-.2-.7.4-.7,1.1-1.1,1.7-1.1s1.3.4,1.7,1.1c.2.3,0,.6-.2.7-.3.2-.6,0-.7-.2-.2-.4-.5-.6-.8-.6s-.6.2-.8.6c-.1.2-.3.3-.5.3h0Z"/>
        <path class="st13" d="M103.1,769.2s-2,1.1-2.6,3.8l2.6-3.8Z"/>
        <path class="st8" d="M100.5,773.5s0,0-.1,0c-.3,0-.5-.4-.4-.6.7-2.9,2.8-4.1,2.8-4.2.3-.1.6,0,.7.2.1.3,0,.6-.2.7,0,0-1.8,1.1-2.3,3.5,0,.2-.3.4-.5.4h0Z"/>
        <path class="st13" d="M109.7,769.2s2,1.1,2.6,3.8l-2.6-3.8Z"/>
        <path class="st8" d="M112.2,773.5c-.2,0-.5-.2-.5-.4-.6-2.4-2.3-3.5-2.3-3.5-.3-.1-.3-.5-.2-.7.1-.3.5-.3.7-.2,0,0,2.2,1.3,2.8,4.2,0,.3-.1.6-.4.6,0,0,0,0-.1,0h0Z"/>
        <path class="st8" d="M105.6,787.6c-.2,0-.4,0-.5-.3l-3.6-5.9c-.2-.3,0-.6.2-.7.3-.2.6,0,.7.2l3.6,5.9c.2.3,0,.6-.2.7,0,0-.2,0-.3,0Z"/>
        <path class="st8" d="M107.1,787.6c0,0-.2,0-.3,0-.3-.2-.3-.5-.2-.7l3.6-5.9c.2-.3.5-.3.7-.2.3.2.3.5.2.7l-3.6,5.9c0,.2-.3.3-.5.3Z"/>
        <path class="st8" d="M106.4,790c-5,0-9.1-3.9-9.2-8.7,0-.3.2-.5.5-.5.3,0,.5.2.5.5,0,4.2,3.7,7.7,8.1,7.7s8-3.4,8.1-7.7c0-.3.3-.5.5-.5.3,0,.5.2.5.5,0,4.8-4.2,8.7-9.2,8.7Z"/>
        <path class="st8" d="M92.4,801.2c-.3,0-.5-.2-.5-.5v-9.7c0-.3.2-.5.5-.5s.5.2.5.5v9.7c0,.3-.2.5-.5.5Z"/>
        <path class="st8" d="M120.3,801.2c-.3,0-.5-.2-.5-.5v-9.7c0-.3.2-.5.5-.5s.5.2.5.5v9.7c0,.3-.2.5-.5.5Z"/>
        <path class="st8" d="M109.9,772.2h-7.2c-.2,0-.4-.1-.5-.3,0-.2,0-.4,0-.6,1.1-1.5,2.5-2.4,4-2.4s3,.8,4,2.4c.1.2.1.4,0,.6,0,.2-.3.3-.5.3ZM103.9,771.1h4.9c-.7-.7-1.6-1.1-2.4-1.1s-1.7.4-2.4,1.1Z"/>
        <path class="st13" d="M104.1,771.7c0,1.7,1,3,2.3,3s2.3-1.4,2.3-3h-4.5Z"/>
        <path class="st8" d="M106.4,775.2c-1.6,0-2.8-1.6-2.8-3.6s.2-.5.5-.5h4.5c.3,0,.5.2.5.5,0,2-1.3,3.6-2.8,3.6ZM104.7,772.2c.2,1.1.9,2,1.7,2s1.5-.9,1.7-2h-3.4Z"/>
        <path class="st8" d="M103.2,764.5c0,0-.2,0-.2,0-.8-.4-1.8,0-1.8,0-.3.1-.6,0-.7-.3-.1-.3,0-.6.3-.7,0,0,1.4-.6,2.7,0,.3.1.4.4.3.7,0,.2-.3.3-.5.3h0Z"/>
        <path class="st8" d="M111.8,764.5c0,0-.1,0-.2,0,0,0-1-.4-1.8,0-.3.1-.6,0-.7-.3-.1-.3,0-.6.3-.7,1.3-.6,2.7,0,2.7,0,.3.1.4.4.3.7,0,.2-.3.3-.5.3Z"/>
        <path class="st13" d="M94.3,765.9s.4-1.9,2-3.5c1.6-1.6,4.6-6.3,1.6-7.5-3.1-1.3-6.5,5.8-3.5,11.1Z"/>
        <path class="st8" d="M94.3,766.4c-.2,0-.4-.1-.5-.3-1.9-3.3-1.3-7.3,0-9.7.9-1.5,2-2.3,3.2-2.3s.6,0,1,.2c.9.4,1.4,1,1.6,1.9.4,2.2-1.8,5.4-3,6.5-1.5,1.5-1.8,3.2-1.8,3.2,0,.2-.2.4-.4.4,0,0,0,0,0,0ZM97,755.2c-.8,0-1.6.7-2.3,1.8-1,1.8-1.6,4.7-.6,7.4.3-.7.8-1.6,1.7-2.5,1.3-1.3,3-4,2.7-5.6-.1-.5-.4-.9-1-1.1-.2,0-.4-.1-.5-.1h0Z"/>
        <path class="st13" d="M118.4,765.9s-.4-1.9-2-3.5c-1.6-1.6-4.6-6.3-1.6-7.5,3.1-1.3,6.5,5.8,3.5,11.1Z"/>
        <path class="st8" d="M118.4,766.4s0,0,0,0c-.2,0-.4-.2-.4-.4,0,0-.4-1.8-1.8-3.2-1.2-1.2-3.4-4.3-3-6.5.2-.9.7-1.5,1.6-1.9.3-.1.6-.2,1-.2,1.2,0,2.3.9,3.2,2.3,1.3,2.3,1.9,6.3,0,9.7,0,.2-.3.3-.5.3ZM115.7,755.2c-.2,0-.4,0-.5.1-.6.2-.9.6-1,1.1-.3,1.6,1.4,4.2,2.7,5.6.8.8,1.3,1.7,1.7,2.5,1-2.7.5-5.6-.6-7.4-.7-1.1-1.5-1.8-2.3-1.8h0Z"/>
        <path class="st8" d="M109.1,760.9h-5.6c-.3,0-.5-.2-.5-.5s.2-.5.5-.5h5.6c.3,0,.5.2.5.5s-.2.5-.5.5Z"/>
        <path class="st8" d="M109.1,759.1h-5.6c-.3,0-.5-.2-.5-.5s.2-.5.5-.5h5.6c.3,0,.5.2.5.5s-.2.5-.5.5Z"/>
      </g>
    </g>
    <path class="st5" d="M141.9,741.3c.1-2.3,1.8-3.6,4.4-3.6h25.5c1.3,0,2,.7,2,2v5c0,1.3-.7,2-2,2h-21.1l-.9,11.7c2.6-2.4,6.7-3.8,11.2-3.8,10.4,0,16.7,6.3,16.7,16.6s-6.8,17.4-19.2,17.4-19.1-4.9-19.1-13.3.8-2,2.2-2h4.8c1.3,0,1.9.5,2.2,1.9.8,3.4,3.5,4.7,9.9,4.7s9.9-2.7,9.9-8.3-3.6-8.1-9.3-8.1-7,1-9.2,2.8c-.8.6-1.3.8-2.3.8h-5.4c-1.3,0-2-.6-1.9-1.7l1.7-23.9ZM201.4,766.1c-1.3,0-2-.7-2-2v-5c0-1.3.7-2,2-2,7.8,0,10.8-1.7,10.8-6.1s-3.2-5.1-8.8-5.1-8.8,1.6-8.8,4.9-.8,2.1-2.1,2.1h-5.1c-1.3,0-2.1-.8-2.1-2.1,0-8.8,6.5-13.9,18-13.9s18,4.7,18,12.5-2.8,9.2-7.1,11.1c5.8,1.5,9.7,6.5,9.7,12.9,0,9.3-7.6,15.1-20,15.1s-20-5.2-20-13.9.8-2.1,2.1-2.1h5.1c1.3,0,2.1.8,2.1,2.1,0,3.2,3.8,4.9,10.7,4.9s10.7-2.3,10.7-6.8-3.1-6.7-13.4-6.7ZM241.3,786v-37.2l-9.2,5c-.3.2-.7.3-1,.3-.8,0-1.3-.6-1.3-1.6v-5.9c0-1.3.5-1.9,1.7-2.5l9.6-5.4c1.2-.7,2.4-.9,3.7-.9h3.6c1.3,0,2.1.8,2.1,2.1v46.2c0,1.3-.8,2.1-2.1,2.1h-5.1c-1.3,0-2.1-.8-2.1-2.1ZM259.1,775.3h.6c.7,0,1.2-.7,1.2-1.7s-.4-1.3-1.1-1.3h-.9c-.3,0-.4.2-.4.4v2.1c0,.3.3.5.7.5ZM258.3,777.1c-1.2,0-1.9-.6-1.9-1.6v-4.2c0-.5.3-.8.8-.8h3.5c1.3,0,2.1.8,2.1,2.2s-.5,2.3-1.4,2.7h.9c.3,0,.4.2.4.4v.9c0,.3-.2.4-.4.4h-4ZM266.2,778.4c0,.3-.2.5-.5.5h-1.1c-.3,0-.5-.2-.5-.5v-7.8c0-.3.2-.5.5-.5h1.1c.3,0,.5.2.5.5v3.1c.2-.2.5-.4.9-.4h.4c.3,0,.4.2.4.4v1c0,.3-.2.4-.4.4h-.5c-.5,0-.8.3-.8.8v2.4ZM260.8,782.9c-2.1,0-3.4-1-3.4-2.8s0-1,0-1.4c0-.3.2-.5.5-.5h1.1c.3,0,.5.2.5.5,0,.4,0,.7,0,1,0,.8.5,1.2,1.6,1.2,1.8,0,3.5-.1,5-.3.3,0,.4.2.4.4v1c0,.3,0,.4-.4.4-1.4.2-3,.3-5.3.3ZM277.7,778c-.3,0-.5.2-.5.4v.9c0,.3-.2.5-.4.5h-1.1c-.1,0-.2,0-.3,0,0,.1,0,.2,0,.3,0,.6.4.9,1.1.9,2.3,0,4.7-.1,6.2-.3.3,0,.5.1.5.4v1c0,.3,0,.4-.4.5-1.8.2-4.3.3-6.6.3s-2.9-.9-2.9-2.6,0-.7,0-1c0-.3.2-.5.5-.5h1.1c0,0,.2,0,.2,0v-.4c0-.2.1-.4.3-.5-1.1,0-2,0-2.8,0-.3,0-.5-.2-.5-.4v-.8c0-.3.2-.4.5-.4.9,0,2,0,3.5,0s3.1,0,3.6,0c.3,0,.5.1.5.4v.8c0,.3-.1.4-.5.4-.4,0-1.4,0-2.1,0ZM272.9,773c0-1.8,1.1-2.7,3.3-2.7s3.3.9,3.3,2.7-1.1,2.7-3.3,2.7-3.3-.9-3.3-2.7ZM280.8,779.7c-.2.3-.5.4-.9.4h-1.3c-.3,0-.4-.2-.4-.4v-.8c0-.3.2-.4.4-.4h1.3c.5,0,.8-.3.8-.8v-7.1c0-.3.2-.5.5-.5h1.1c.3,0,.5.2.5.5v9.2c0,.3-.2.5-.5.5h-1.1c-.3,0-.5-.2-.5-.5h0ZM276.2,774c.9,0,1.3-.3,1.3-1s-.4-1-1.3-1-1.3.3-1.3,1,.4,1,1.3,1Z"/>
  </g>
</svg>