<svg width="1440" height="597" viewBox="0 0 1440 597" fill="none" xmlns="http://www.w3.org/2000/svg">
<g clip-path="url(#clip0_848_2387)">
<rect width="1440" height="597" fill="#84BCF7"/>
<rect x="732" y="49" width="24" height="24" rx="12" transform="rotate(90 732 49)" fill="black"/>
<path d="M725.5 60L720 65L714.5 60" stroke="white" stroke-width="2" stroke-miterlimit="10" stroke-linecap="square"/>
<path d="M556.698 104.384H562.33V107.84H556.698V104.384ZM561.178 97.216H565.434V114.816H561.178V97.216ZM555.386 115.456C561.658 115.456 565.53 117.6 565.53 121.184C565.53 124.8 561.658 126.88 555.386 126.88C549.114 126.88 545.242 124.8 545.242 121.184C545.242 117.6 549.114 115.456 555.386 115.456ZM555.386 118.688C551.546 118.688 549.498 119.488 549.498 121.184C549.498 122.848 551.546 123.648 555.386 123.648C559.258 123.648 561.306 122.848 561.306 121.184C561.306 119.488 559.258 118.688 555.386 118.688ZM547.482 100.192H550.938V102.048C550.938 107.712 548.314 112.896 542.65 114.816L540.474 111.456C545.37 109.792 547.482 105.856 547.482 102.048V100.192ZM548.378 100.192H551.802V102.048C551.802 105.536 553.818 109.152 558.49 110.72L556.41 114.08C550.906 112.256 548.378 107.328 548.378 102.048V100.192ZM541.626 99.008H557.562V102.4H541.626V99.008ZM569.432 114.272H596.28V117.632H569.432V114.272ZM580.632 115.968H584.856V126.848H580.632V115.968ZM572.504 98.336H576.728V101.696H588.888V98.336H593.112V111.456H572.504V98.336ZM576.728 105.024V108.064H588.888V105.024H576.728ZM599.605 130.848L598.645 128.288C601.141 127.36 602.517 125.664 602.485 123.776L602.325 120.448L603.989 123.2C603.509 123.68 602.869 123.904 602.165 123.904C600.629 123.904 599.221 122.88 599.221 121.12C599.221 119.424 600.597 118.336 602.293 118.336C604.437 118.336 605.653 120.064 605.653 122.944C605.653 126.72 603.509 129.568 599.605 130.848ZM614.67 124V121.312C621.134 115.52 624.91 111.072 624.91 107.424C624.91 105.056 623.662 103.584 621.39 103.584C619.63 103.584 618.254 104.704 617.038 106.048L614.446 103.488C616.622 101.152 618.766 99.904 621.998 99.904C626.446 99.904 629.454 102.752 629.454 107.168C629.454 111.488 625.87 116.096 621.55 120.32C622.734 120.192 624.302 120.032 625.422 120.032H630.542V124H614.67ZM634.153 124V120.192H639.273V105.216H634.953V102.304C637.353 101.856 638.953 101.248 640.489 100.32H643.977V120.192H648.425V124H634.153ZM671.62 97.216H675.876V119.008H671.62V97.216ZM664.452 100.512H673.06V103.84H664.452V100.512ZM656.292 122.944H676.548V126.336H656.292V122.944ZM656.292 117.056H660.58V124.672H656.292V117.056ZM652.708 99.104H656.932V113.024H652.708V99.104ZM652.708 111.744H655.076C659.364 111.744 663.172 111.552 667.396 110.816L667.78 114.24C663.428 115.04 659.524 115.2 655.076 115.2H652.708V111.744ZM664.452 106.016H673.06V109.376H664.452V106.016ZM680.737 99.648H694.849V113.952H680.737V99.648ZM690.657 103.008H684.929V110.592H690.657V103.008ZM698.945 97.216H703.201V118.816H698.945V97.216ZM701.985 105.76H707.137V109.248H701.985V105.76ZM684.097 122.944H704.257V126.336H684.097V122.944ZM684.097 116.704H688.353V124.64H684.097V116.704ZM720.511 108.128H725.375V111.552H720.511V108.128ZM730.079 97.216H734.143V126.848H730.079V97.216ZM724.031 97.664H728.031V125.504H724.031V97.664ZM715.327 99.296C719.263 99.296 721.791 103.36 721.791 110.048C721.791 116.768 719.263 120.832 715.327 120.832C711.423 120.832 708.927 116.768 708.927 110.048C708.927 103.36 711.423 99.296 715.327 99.296ZM715.327 103.296C713.727 103.296 712.799 105.536 712.799 110.048C712.799 114.592 713.727 116.8 715.327 116.8C716.991 116.8 717.919 114.592 717.919 110.048C717.919 105.536 716.991 103.296 715.327 103.296ZM745.55 99.872H759.79V119.808H745.55V99.872ZM755.63 103.2H749.742V116.448H755.63V103.2ZM764.398 97.184H768.686V126.912H764.398V97.184ZM773.676 116.8H775.756C779.276 116.8 782.38 116.736 786.028 116.16L786.348 119.584C782.572 120.224 779.372 120.32 775.756 120.32H773.676V116.8ZM773.644 100.096H784.876V111.552H777.804V118.08H773.676V108.192H780.748V103.488H773.644V100.096ZM794.284 97.216H798.316V126.848H794.284V97.216ZM790.316 108.416H795.244V111.808H790.316V108.416ZM787.66 97.728H791.596V125.44H787.66V97.728ZM801.673 110.496H828.521V113.6H801.673V110.496ZM804.681 115.072H825.321V122.112H808.969V124.64H804.745V119.424H821.129V117.952H804.681V115.072ZM804.745 123.744H826.153V126.624H804.745V123.744ZM804.969 97.728H825.257V104.704H809.225V107.136H805.001V102.048H821.065V100.576H804.969V97.728ZM805.001 106.24H825.801V109.12H805.001V106.24ZM846.681 98.4C851.193 98.4 854.457 100.992 854.457 104.736C854.457 108.416 851.193 111.072 846.681 111.072C842.201 111.072 838.937 108.416 838.937 104.736C838.937 100.992 842.201 98.4 846.681 98.4ZM846.681 101.856C844.537 101.856 843.001 102.88 843.001 104.736C843.001 106.56 844.537 107.584 846.681 107.584C848.857 107.584 850.393 106.56 850.393 104.736C850.393 102.88 848.857 101.856 846.681 101.856ZM844.697 114.016H848.953V125.952H844.697V114.016ZM857.657 97.216H861.881V126.848H857.657V97.216ZM837.689 116.256L837.177 112.8C842.361 112.8 849.689 112.736 855.961 111.776L856.249 114.88C849.817 116.16 842.809 116.224 837.689 116.256ZM884.95 97.248H889.206V119.392H884.95V97.248ZM887.99 106.272H893.142V109.76H887.99V106.272ZM865.878 100.32H883.318V103.648H865.878V100.32ZM874.614 104.704C878.87 104.704 881.878 107.04 881.878 110.432C881.878 113.824 878.87 116.128 874.614 116.128C870.326 116.128 867.318 113.824 867.318 110.432C867.318 107.04 870.326 104.704 874.614 104.704ZM874.614 107.936C872.726 107.936 871.414 108.832 871.414 110.432C871.414 112.032 872.726 112.896 874.614 112.896C876.502 112.896 877.814 112.032 877.814 110.432C877.814 108.832 876.502 107.936 874.614 107.936ZM872.47 97.184H876.726V101.952H872.47V97.184ZM870.102 122.944H890.262V126.336H870.102V122.944ZM870.102 117.728H874.358V124.416H870.102V117.728ZM562.46 144.816H565.948V147.44C565.948 153.328 563.388 158.512 557.756 160.464L555.484 157.104C560.444 155.44 562.46 151.472 562.46 147.44V144.816ZM563.324 144.816H566.78V147.856C566.78 151.408 568.764 154.864 573.404 156.304L571.196 159.6C565.852 157.808 563.324 153.2 563.324 147.856V144.816ZM575.036 143.216H579.292V160.72H575.036V143.216ZM578.108 150.064H583.228V153.584H578.108V150.064ZM569.628 161.392C575.772 161.392 579.644 163.536 579.644 167.12C579.644 170.736 575.772 172.848 569.628 172.848C563.452 172.848 559.58 170.736 559.58 167.12C559.58 163.536 563.452 161.392 569.628 161.392ZM569.628 164.688C565.852 164.688 563.804 165.488 563.804 167.12C563.804 168.784 565.852 169.552 569.628 169.552C573.404 169.552 575.42 168.784 575.42 167.12C575.42 165.488 573.404 164.688 569.628 164.688ZM590.105 145.008H593.433V148.432C593.433 153.456 591.417 158.48 586.585 160.528L584.345 157.232C588.473 155.408 590.105 151.76 590.105 148.432V145.008ZM590.873 145.008H594.201V148.432C594.201 151.6 595.801 154.8 599.705 156.336L597.433 159.568C592.825 157.744 590.873 153.264 590.873 148.432V145.008ZM605.977 143.248H610.009V161.328H605.977V143.248ZM602.425 150.416H607.129V153.84H602.425V150.416ZM599.705 143.792H603.673V160.4H599.705V143.792ZM599.961 161.744C606.169 161.744 610.169 163.824 610.169 167.312C610.169 170.768 606.169 172.848 599.961 172.848C593.721 172.848 589.785 170.768 589.785 167.312C589.785 163.824 593.721 161.744 599.961 161.744ZM599.961 164.944C596.153 164.944 594.009 165.744 594.009 167.312C594.009 168.88 596.153 169.648 599.961 169.648C603.769 169.648 605.881 168.88 605.881 167.312C605.881 165.744 603.769 164.944 599.961 164.944ZM623.095 145.168C627.767 145.168 631.255 148.208 631.255 152.464C631.255 156.752 627.767 159.792 623.095 159.792C618.455 159.792 614.903 156.752 614.903 152.464C614.903 148.208 618.455 145.168 623.095 145.168ZM623.095 148.816C620.823 148.816 619.095 150.16 619.095 152.464C619.095 154.8 620.823 156.144 623.095 156.144C625.367 156.144 627.095 154.8 627.095 152.464C627.095 150.16 625.367 148.816 623.095 148.816ZM634.039 143.184H638.295V172.912H634.039V143.184ZM614.199 166.896L613.687 163.472C618.903 163.472 626.167 163.408 632.407 162.48L632.727 165.552C626.295 166.832 619.319 166.896 614.199 166.896ZM662.374 147.344H671.078V150.736H662.374V147.344ZM662.374 154.544H671.078V157.936H662.374V154.544ZM669.51 143.248H673.766V164.912H669.51V143.248ZM654.214 168.944H674.438V172.336H654.214V168.944ZM654.214 162.768H658.47V170.704H654.214V162.768ZM657.158 144.976C661.542 144.976 664.966 148.176 664.966 152.656C664.966 157.072 661.542 160.304 657.158 160.304C652.742 160.304 649.318 157.072 649.318 152.656C649.318 148.176 652.742 144.976 657.158 144.976ZM657.158 148.72C654.982 148.72 653.382 150.192 653.382 152.656C653.382 155.12 654.982 156.592 657.158 156.592C659.302 156.592 660.934 155.12 660.934 152.656C660.934 150.192 659.302 148.72 657.158 148.72ZM681.06 144.528H699.844V147.92H681.06V144.528ZM677.796 155.184H704.612V158.576H677.796V155.184ZM697.284 144.528H701.476V146.896C701.476 149.456 701.476 152.208 700.58 156.048L696.356 155.984C697.284 152.144 697.284 149.424 697.284 146.896V144.528ZM680.932 161.68H701.348V172.528H680.932V161.68ZM697.156 164.976H685.092V169.168H697.156V164.976ZM727.873 143.216H731.937V172.848H727.873V143.216ZM724.129 154.384H729.025V157.776H724.129V154.384ZM715.297 146.832H719.361C719.361 155.184 716.929 161.936 708.641 166.768L706.177 163.824C712.929 159.824 715.297 154.832 715.297 147.728V146.832ZM707.681 146.832H716.545V150.256H707.681V146.832ZM721.313 143.984H725.281V171.568H721.313V143.984ZM735.455 145.744H751.711V149.072H735.455V145.744ZM743.775 150.096C747.743 150.096 750.719 152.464 750.719 155.76C750.719 159.056 747.743 161.424 743.775 161.424C739.807 161.424 736.831 159.056 736.831 155.76C736.831 152.464 739.807 150.096 743.775 150.096ZM743.775 153.296C742.047 153.296 740.799 154.192 740.799 155.76C740.799 157.328 742.047 158.224 743.775 158.224C745.503 158.224 746.783 157.328 746.783 155.76C746.783 154.192 745.503 153.296 743.775 153.296ZM741.663 142.96H745.919V148.112H741.663V142.96ZM755.903 143.216H760.159V162.064H755.903V143.216ZM752.095 149.84H757.503V153.2H752.095V149.84ZM751.999 155.536H757.439V158.928H751.999V155.536ZM739.967 163.408H760.159V172.848H755.903V166.768H739.967V163.408ZM783.228 143.216H787.484V164.752H783.228V143.216ZM786.268 151.696H791.42V155.184H786.268V151.696ZM768.38 168.944H788.54V172.336H768.38V168.944ZM768.38 162.512H772.636V170.448H768.38V162.512ZM772.412 145.104C776.956 145.104 780.476 148.272 780.476 152.656C780.476 157.008 776.956 160.176 772.412 160.176C767.868 160.176 764.348 157.008 764.348 152.656C764.348 148.272 767.868 145.104 772.412 145.104ZM772.412 148.816C770.236 148.816 768.508 150.224 768.508 152.656C768.508 155.056 770.236 156.464 772.412 156.464C774.62 156.464 776.316 155.056 776.316 152.656C776.316 150.224 774.62 148.816 772.412 148.816ZM820.876 143.216H824.94V172.848H820.876V143.216ZM817.004 154.64H821.932V158.032H817.004V154.64ZM814.252 143.728H818.22V171.44H814.252V143.728ZM800.716 146.48H804.972V163.6H800.716V146.48ZM800.716 162H802.764C805.612 162 808.94 161.84 812.62 161.136L813.036 164.784C809.164 165.488 805.772 165.648 802.764 165.648H800.716V162ZM830.761 160.752H852.681V163.92H830.761V160.752ZM831.785 149.072H852.329V152.368H831.785V149.072ZM828.361 154.48H855.209V157.808H828.361V154.48ZM831.785 143.664H836.009V151.088H831.785V143.664ZM839.785 150.352H844.041V156.016H839.785V150.352ZM841.705 164.752C847.401 164.752 850.761 166.192 850.761 168.816C850.761 171.44 847.401 172.848 841.705 172.848C836.009 172.848 832.649 171.44 832.649 168.816C832.649 166.192 836.009 164.752 841.705 164.752ZM841.705 167.632C838.697 167.632 837.161 167.92 837.161 168.816C837.161 169.68 838.697 170 841.705 170C844.713 170 846.249 169.68 846.249 168.816C846.249 167.92 844.713 167.632 841.705 167.632ZM839.593 158.704H843.849V162.672H839.593V158.704ZM865.095 145.264C869.607 145.264 872.871 149.36 872.871 155.824C872.871 162.352 869.607 166.448 865.095 166.448C860.583 166.448 857.319 162.352 857.319 155.824C857.319 149.36 860.583 145.264 865.095 145.264ZM865.095 149.136C862.887 149.136 861.415 151.472 861.415 155.824C861.415 160.24 862.887 162.608 865.095 162.608C867.303 162.608 868.807 160.24 868.807 155.824C868.807 151.472 867.303 149.136 865.095 149.136ZM876.103 143.216H880.391V172.848H876.103V143.216ZM879.431 154.384H884.679V157.904H879.431V154.384Z" fill="white"/>
<g clip-path="url(#clip1_848_2387)">
<g clip-path="url(#clip2_848_2387)">
<path d="M412.4 584.44C394.43 574.03 377.01 564.43 359.85 564.43C342.64 564.43 325.27 574.03 307.3 584.44C295 591.56 281.59 595.13 268.18 595.13H451.56C438.14 595.13 424.72 591.57 412.4 584.44Z" fill="#A7DF87"/>
<path d="M359.869 595.13H451.559C438.139 595.14 424.719 591.57 412.399 584.44C394.439 574.04 377.019 564.44 359.869 564.43V595.13Z" fill="#75CC62"/>
<path d="M677.45 578.43C650.38 562.16 624.15 547.16 598.3 547.16C572.38 547.16 546.22 562.16 519.15 578.43C500.62 589.56 480.43 595.13 460.24 595.13H736.43C716.21 595.14 695.99 589.57 677.45 578.43Z" fill="#A7DF87"/>
<path d="M598.33 595.13H736.42C716.21 595.14 695.99 589.57 677.44 578.43C650.38 562.17 624.16 547.17 598.32 547.16L598.33 595.13Z" fill="#75CC62"/>
<path d="M813.702 434.565C813.728 434.539 813.746 434.478 813.772 434.425C813.824 434.338 813.859 434.25 813.912 434.154C814.899 432.424 815.826 430.414 816.708 428.238C823.088 414.255 826.706 398.734 826.584 382.339C826.138 322.213 777.041 273.841 716.914 274.286C656.797 274.723 608.416 323.838 608.87 383.956C608.993 400.351 612.829 415.81 619.427 429.706C620.345 431.865 621.298 433.857 622.311 435.57C622.355 435.657 622.399 435.754 622.451 435.841C622.486 435.893 622.504 435.946 622.53 435.981C622.635 436.164 622.74 436.313 622.853 436.488C626.585 443.112 631.033 449.273 636.023 454.945C642.788 463.344 650.33 471.829 659.847 484.51C676.058 506.087 678.357 527.56 678.357 527.56L718.793 527.263L759.23 526.966C759.23 526.966 761.223 505.467 777.102 483.654C786.435 470.824 793.846 462.234 800.48 453.739C805.391 447.997 809.743 441.766 813.379 435.089C813.501 434.897 813.597 434.749 813.702 434.565Z" fill="white"/>
<path d="M669.818 441.363L691.396 529.482" stroke="#230900" stroke-width="4.1151" stroke-miterlimit="10" stroke-linecap="round" stroke-linejoin="round"/>
<path d="M764.22 440.471L742.643 528.58" stroke="#230900" stroke-width="4.1151" stroke-miterlimit="10" stroke-linecap="round" stroke-linejoin="round"/>
<path d="M677.902 525.512V553.722C677.902 577.694 696.124 597.13 718.593 597.13C741.07 597.13 759.283 577.703 759.283 553.722V525.512H677.902Z" fill="#3D3D3D"/>
<path d="M680.305 545.962L757.324 535.771" stroke="#7D7D7D" stroke-width="2.572" stroke-miterlimit="10" stroke-linecap="round" stroke-linejoin="round"/>
<path d="M680.305 560.942L757.324 550.752" stroke="#7D7D7D" stroke-width="2.572" stroke-miterlimit="10" stroke-linecap="round" stroke-linejoin="round"/>
<path d="M684.807 575.028L755.534 565.738" stroke="#7D7D7D" stroke-width="2.572" stroke-miterlimit="10" stroke-linecap="round" stroke-linejoin="round"/>
<path d="M697.393 588.215L747.443 581.617" stroke="#7D7D7D" stroke-width="2.572" stroke-miterlimit="10" stroke-linecap="round" stroke-linejoin="round"/>
<path d="M669.819 441.362C668.482 453.589 684.466 459.663 692.358 450.355C696.771 445.155 695.417 431.732 686.904 437.945C676.636 445.444 687.944 458.745 697.733 457.618C706.769 456.578 714.32 446.606 712.834 437.928C705.65 434.231 700.136 441.642 702.364 448.564C705.301 457.696 718.978 459.977 725.803 454.926C730.741 451.273 736.43 436.914 727.35 435.979C717.929 435.009 718.436 451.124 723.749 455.101C731.597 460.965 741.849 452.645 745.545 445.863C750.177 437.369 745.37 426.925 737.418 437.753C721.591 459.304 764.999 462.852 766.004 439.571" stroke="#230900" stroke-width="2.572" stroke-miterlimit="10" stroke-linecap="round" stroke-linejoin="round"/>
<path d="M716.109 202V248.117" stroke="white" stroke-width="2.572" stroke-miterlimit="10" stroke-linecap="round" stroke-linejoin="round"/>
<path d="M652.785 232.439L666.619 260.108" stroke="white" stroke-width="2.572" stroke-miterlimit="10" stroke-linecap="round" stroke-linejoin="round"/>
<path d="M584.539 249.963L619.584 289.613" stroke="white" stroke-width="2.572" stroke-miterlimit="10" stroke-linecap="round" stroke-linejoin="round"/>
<path d="M764.682 259.183L790.498 225.064" stroke="white" stroke-width="2.572" stroke-miterlimit="10" stroke-linecap="round" stroke-linejoin="round"/>
<path d="M802.488 284.079L846.762 248.117" stroke="white" stroke-width="2.572" stroke-miterlimit="10" stroke-linecap="round" stroke-linejoin="round"/>
<path d="M826.162 320.05L859.363 300.684" stroke="white" stroke-width="2.572" stroke-miterlimit="10" stroke-linecap="round" stroke-linejoin="round"/>
<path d="M561.484 308.979L598.373 320.051" stroke="white" stroke-width="2.572" stroke-miterlimit="10" stroke-linecap="round" stroke-linejoin="round"/>
<path d="M622.29 564.34C625.09 573.52 640.4 579.37 646.74 571.08C653.52 562.2 650.24 546.27 641.64 539.74C635.7 535.23 617.89 535.48 621.35 546.92" fill="#3B5DAD"/>
<path d="M984.16 490.301V598.141H1032.16V490.301H984.16ZM1010.83 499.181H1016.16V510.441H1010.83V499.181ZM1000.16 516.961H1005.49V528.221H1000.16V516.961ZM1000.16 499.181H1005.49V510.441H1000.16V499.181ZM990.09 516.961H995.42V528.221H990.09V516.961ZM990.09 499.181H995.42V510.441H990.09V499.181Z" fill="#3E86C6"/>
<path d="M936.189 454.111V598.551H983.699V454.111H936.189ZM962.799 462.661H967.549V474.061H962.799V462.661ZM952.349 480.711H957.099V492.111H952.349V480.711ZM952.349 462.661H957.099V474.061H952.349V462.661ZM941.889 480.711H947.589V492.111H941.889V480.711ZM941.889 462.661H947.589V474.061H941.889V462.661Z" fill="#3E86C6"/>
<path d="M436.85 488.871V596.711H484.85V488.871H436.85ZM463.52 497.761H468.85V509.021H463.52V497.761ZM452.85 515.541H458.18V526.801H452.85V515.541ZM452.85 497.761H458.18V509.021H452.85V497.761ZM442.78 515.541H448.11V526.801H442.78V515.541ZM442.78 497.761H448.11V509.021H442.78V497.761Z" fill="#3E86C6"/>
<path d="M340.41 518.801V597.181H388.41V518.801H340.41ZM367.07 527.691H372.4V538.951H367.07V527.691ZM356.41 545.471H361.74V556.731H356.41V545.471ZM356.41 527.691H361.74V538.951H356.41V527.691ZM346.34 545.471H351.67V556.731H346.34V545.471ZM346.34 527.691H351.67V538.951H346.34V527.691Z" fill="#3E86C6"/>
<path d="M388.85 453.16V597.6H436.36V453.16H388.85ZM415.46 461.71H420.21V473.11H415.46V461.71ZM405.01 479.76H409.76V491.16H405.01V479.76ZM405.01 461.71H409.76V473.11H405.01V461.71ZM394.55 479.76H400.25V491.16H394.55V479.76ZM394.55 461.71H400.25V473.11H394.55V461.71Z" fill="#3E86C6"/>
<path d="M576.74 517.26C574.72 517.02 572.19 515.57 571.83 513.3C572.14 513.16 572.42 513.16 572.73 513.03C572.57 511.38 570.28 509.75 571.57 508.44C573.19 506.79 575.53 509.41 576.77 509.87C579.63 510.93 584.29 511.66 584.51 515.75C582.65 516.71 580.54 516.9 578.5 517.28" fill="#FFD5B9"/>
<path d="M579.261 520.87C578.631 520.69 578.001 520.52 577.371 520.34C577.411 520.35 579.871 510.15 580.401 509.24C584.891 510.15 589.401 511.35 593.741 512.46C594.101 512.55 597.851 513.83 597.841 513.84C603.391 509.07 608.601 504.49 612.351 498.1C615.731 500.5 620.871 504.59 620.671 509.28C620.491 513.42 617.671 516.41 614.781 519.05C613.351 520.35 612.091 521.71 610.231 522.33C607.601 523.2 606.041 526.26 603.421 526.88C601.411 527.36 599.301 526.82 597.391 526.17C594.511 525.2 591.551 524.76 588.711 523.86C585.551 522.9 582.441 521.76 579.261 520.87Z" fill="#FF8B8B"/>
<path d="M537.202 482.101C539.222 481.861 541.752 480.411 542.112 478.141C541.802 478.001 541.522 478.001 541.212 477.871C541.372 476.221 543.662 474.591 542.372 473.281C540.752 471.631 538.412 474.251 537.172 474.711C534.312 475.771 529.652 476.501 529.432 480.591C531.292 481.551 533.402 481.741 535.442 482.121" fill="#FFD5B9"/>
<path d="M534.691 485.711C535.321 485.531 535.951 485.361 536.581 485.181C536.541 485.191 534.081 474.991 533.551 474.081C529.061 474.991 524.551 476.191 520.211 477.301C519.851 477.391 516.101 478.671 516.111 478.681C510.561 473.911 505.351 469.331 501.601 462.941C498.221 465.341 493.081 469.431 493.281 474.121C493.461 478.261 496.281 481.251 499.171 483.891C500.601 485.191 501.861 486.551 503.721 487.171C506.351 488.041 507.911 491.101 510.531 491.721C512.541 492.201 514.651 491.661 516.561 491.011C519.441 490.041 522.401 489.601 525.241 488.701C528.401 487.741 531.511 486.601 534.691 485.711Z" fill="#E5E5E5"/>
<path d="M815.509 587.849C812.919 588.979 805.389 590.769 805.169 594.249C804.929 598.049 812.849 595.909 815.089 595.559C817.309 595.199 821.839 595.139 822.619 592.879C823.419 590.569 820.669 587.729 820.089 585.629C818.069 586.059 813.799 587.819 812.639 587.129" fill="#BE8057"/>
<path d="M855.248 588.61C852.598 589.57 844.968 590.88 844.528 594.34C844.048 598.12 852.088 596.49 854.348 596.27C856.588 596.05 861.108 596.28 862.028 594.07C862.978 591.81 860.408 588.81 859.968 586.68C857.928 586.99 853.548 588.46 852.438 587.71" fill="#BE8057"/>
<path d="M814.459 527.09C810.739 536.3 807.679 546.06 807.249 555.72C807.109 558.81 811.979 588.87 812.929 588.93L822.389 589.55L821.909 559.58C821.839 555.25 823.069 551.22 824.879 547.29C826.909 542.86 829.749 537.85 832.869 534.14C836.179 530.2 841.079 527.62 842.809 522.44C836.299 521.86 830.509 519.58 824.219 518.26C818.889 517.13 818.139 518.38 816.059 523.25C815.519 524.51 814.979 525.79 814.459 527.09Z" fill="#404040"/>
<path d="M859.449 527.29C859.449 527.08 859.439 526.88 859.419 526.681C858.939 521.791 852.209 520.38 848.279 520.18C843.619 519.95 837.319 521.061 835.589 526.081C834.089 530.441 835.289 536.991 835.579 541.521C835.959 547.491 836.679 553.45 837.939 559.3C838.589 562.32 850.939 590.16 851.869 589.98L861.179 588.17C861.179 588.17 853.099 559.31 853.099 559.3C852.289 556.4 852.099 553.55 852.329 550.54C852.649 546.43 853.679 542.391 855.009 538.511C856.139 535.251 859.409 530.89 859.449 527.29Z" fill="#404040"/>
<path d="M812.699 527.661C812.779 527.661 859.369 528.521 859.369 528.521C858.279 513.921 856.329 499.161 852.919 484.921C851.789 480.191 851.939 469.211 847.279 466.261C845.009 464.821 840.609 465.571 837.979 465.261C834.349 464.831 830.759 464.051 827.089 464.501C820.979 465.241 820.779 470.411 819.049 475.101C817.079 480.431 809.569 527.591 812.699 527.661Z" fill="#007CA0"/>
<path d="M841.82 443.89C841.47 443.35 841.04 442.9 840.53 442.63C838.72 441.69 835.97 441.91 834.01 441.73C832.34 441.58 831.54 441.96 830.23 443.12C827.54 445.52 825.91 449.16 826.36 452.79C826.67 455.29 826.78 458.52 828.36 460.61C830.37 463.27 835 463.55 837.96 462.68C843 461.19 844.16 451.64 843.17 447.47C842.93 446.42 842.53 444.98 841.82 443.89Z" fill="#FFD5B9"/>
<path d="M827.531 449.549C828.091 448.439 829.421 446.649 829.471 445.389C829.521 444.239 828.581 443.419 827.461 444.279C826.591 444.939 825.971 447.029 825.661 448.029C825.411 448.849 825.091 450.009 825.301 450.859C825.381 451.189 825.581 451.499 825.681 451.829C825.801 452.239 825.741 452.729 825.981 453.099C826.181 452.619 826.261 452.129 826.501 451.649C826.861 450.969 827.171 450.249 827.531 449.549Z" fill="#794422"/>
<path d="M844.26 448.32C844.4 450.99 844.15 452.43 842.57 454.59C842.01 453.57 842.52 452.57 842.44 451.47C842.34 450.17 841.67 448.98 841.38 447.72C841.17 446.83 841.43 445.3 842.72 445.79C843.82 446.2 844.2 447.25 844.26 448.32Z" fill="#794422"/>
<path d="M841.43 446.22C841.99 446.91 842.45 447.74 843.18 448.25C843.4 446.08 843.85 443.89 842.06 442.29C838.83 439.4 831.26 439.11 828.15 442.45C826.99 443.7 823.78 447.94 826.15 449.41C827.75 450.4 831.76 448.43 833.17 447.69C834.35 447.07 835.41 446.15 836.63 445.66C836.22 446.35 835.49 446.92 835 447.62C836.71 447.89 838.36 446.71 839.68 445.74C839.54 446.16 839.7 446.67 839.61 447.08C840.47 447.11 841.08 446.31 841.27 445.47" fill="#794422"/>
<path d="M841.711 452.4C842.241 451.17 844.291 451.261 844.551 452.731C844.831 454.311 843.221 455.151 842.141 455.161" fill="#FFD5B9"/>
<path d="M827.41 451.781C827.04 450.491 824.99 450.331 824.55 451.751C824.08 453.281 825.57 454.321 826.64 454.461" fill="#FFD5B9"/>
<path d="M834.811 457.77C834.761 457.94 834.771 458.11 834.871 458.21" stroke="#230900" stroke-width="0.5324" stroke-miterlimit="10" stroke-linecap="round"/>
<path d="M838.571 464.34C838.431 466.6 836.481 468.32 834.221 468.18C831.961 468.04 830.241 466.09 830.381 463.83L830.561 460.95C830.701 458.69 832.651 456.97 834.911 457.11C837.171 457.25 838.891 459.2 838.751 461.46L838.571 464.34Z" fill="#FFD5B9"/>
<path d="M831.509 451.898C831.459 452.638 831.469 452.558 831.449 452.888" stroke="black" stroke-width="0.84" stroke-miterlimit="10" stroke-linecap="round" stroke-linejoin="round"/>
<path d="M838.98 452.369C838.93 453.109 838.94 453.029 838.92 453.359" stroke="black" stroke-width="0.84" stroke-miterlimit="10" stroke-linecap="round" stroke-linejoin="round"/>
<path d="M834.651 453.129C834.091 453.569 833.531 455.049 834.681 455.189" stroke="black" stroke-width="0.84" stroke-miterlimit="10" stroke-linecap="round" stroke-linejoin="round"/>
<path d="M832.439 457.35C832.879 457.7 833.729 457.72 834.249 457.73C834.859 457.75 835.469 457.55 836.079 457.56C835.919 458.33 836.119 459.05 835.619 459.76C835.199 460.35 834.329 460.89 833.649 460.42C832.929 459.92 833.039 458.71 833.229 457.97" stroke="black" stroke-width="0.84" stroke-miterlimit="10" stroke-linecap="round" stroke-linejoin="round"/>
<path d="M843.579 453.02C843.379 453.12 843.199 453.36 843.189 453.59" stroke="black" stroke-width="0.84" stroke-miterlimit="10" stroke-linecap="round" stroke-linejoin="round"/>
<path d="M825.84 452.539C826.05 452.609 826.25 452.699 826.46 452.779" stroke="black" stroke-width="0.84" stroke-miterlimit="10" stroke-linecap="round" stroke-linejoin="round"/>
<path d="M839.039 450.109C839.279 449.949 839.669 449.979 839.989 450.169" stroke="black" stroke-width="0.84" stroke-miterlimit="10" stroke-linecap="round" stroke-linejoin="round"/>
<path d="M830.721 449.949C831.021 449.799 831.341 449.729 831.681 449.769" stroke="black" stroke-width="0.84" stroke-miterlimit="10" stroke-linecap="round" stroke-linejoin="round"/>
<path d="M859.66 528.171L847.31 521.141C847.3 521.141 847.29 521.131 847.29 521.131C847.41 520.331 847.51 519.511 847.58 518.691C847.92 514.371 847.44 510.181 846.27 506.261L857.44 500.341C858.61 499.721 859.05 498.271 858.43 497.101L851.77 484.541C851.15 483.371 849.7 482.931 848.53 483.551L835.97 490.201L836.14 490.221C831.7 486.341 826.38 483.591 820.31 482.431L821.27 470.291C821.38 468.971 820.03 467.791 818.72 467.691L804.55 466.571C803.23 466.471 802.4 467.481 802.3 468.791L801.18 482.961C801.15 483.381 801.06 483.771 801.23 484.131C796.3 486.051 791.83 489.091 788.3 492.961C788.06 492.431 787.58 491.981 786.99 491.741L773.82 486.351C772.6 485.851 771.19 486.431 770.69 487.661L765.3 500.811C764.8 502.031 765.38 503.431 766.61 503.931L779.76 509.321C779.82 509.351 779.88 509.371 779.95 509.391C779.7 510.661 779.51 511.971 779.41 513.291C779.08 517.421 779.5 521.441 780.56 525.211C780.51 525.241 780.46 525.261 780.42 525.291L768.82 533.501C767.74 534.261 767.49 535.761 768.25 536.841L776.46 548.441C777.23 549.521 778.72 549.771 779.8 549.011L790.6 541.371C795.14 545.481 800.81 548.401 807.15 549.591L807.78 562.331C807.84 563.651 808.97 564.671 810.29 564.601L824.49 563.901C825.81 563.831 826.83 562.711 826.76 561.391L826.09 547.801C831.2 545.771 835.74 542.551 839.32 538.441L850.3 544.691C851.45 545.341 852.91 544.941 853.56 543.791L860.59 531.441C861.21 530.291 860.81 528.831 859.66 528.171ZM811.61 539.571C798.61 538.541 788.88 527.131 789.91 514.131C790.94 501.131 802.35 491.401 815.35 492.431C828.35 493.461 838.08 504.871 837.05 517.871C836.02 530.861 824.61 540.601 811.61 539.571Z" fill="#F3F300"/>
<path d="M843.469 511.76C842.639 513.62 840.499 515.6 838.229 515.27C838.189 514.94 838.269 514.66 838.239 514.33C836.619 513.99 834.379 515.69 833.519 514.07C832.429 512.03 835.619 510.58 836.429 509.53C838.289 507.12 840.369 502.88 844.339 503.88C844.699 505.94 844.259 508.01 844.019 510.08" fill="#FFD5B9"/>
<path d="M843.81 512.731L838.47 505.691C836.91 503.641 846.16 498.711 847.38 497.821C852.65 493.991 852.9 488.871 849.73 483.241C848.1 480.341 846.2 479.111 843.63 477.301C842.27 476.341 839.67 474.491 839.35 472.711C839.02 470.821 841.45 468.251 841.85 465.881C846.82 463.611 855.36 469.901 858.51 473.261C863.33 478.391 867.69 485.971 865.16 493.181C862.31 501.281 850.66 508.031 843.81 512.731Z" fill="#007CA0"/>
<path d="M793.062 502.68C792.132 504.49 791.912 507.39 793.582 508.96C793.862 508.79 794.032 508.55 794.312 508.37C795.582 509.43 795.652 512.24 797.452 511.9C799.732 511.48 798.872 508.08 799.192 506.8C799.922 503.84 801.932 499.58 798.682 497.09C796.852 498.09 795.502 499.73 794.032 501.2" fill="#FFD5B9"/>
<path d="M792.101 503.02L800.931 502.81C803.511 502.75 801.601 492.45 801.541 490.94C800.991 478.38 813.621 481.21 821.691 480.1C825.441 479.58 831.891 478.04 832.451 473.63C833.041 468.92 828.121 464.65 823.661 465.2C818.731 465.82 814.031 465.89 809.111 467.16C803.351 468.64 795.791 470.72 793.021 476.47C789.261 484.29 791.511 494.75 792.101 503.02Z" fill="#007CA0"/>
<path d="M895.921 450.43C896.011 453.23 895.701 456.05 895.831 458.87C895.921 460.74 896.091 462.69 896.061 464.55C899.671 464.86 903.431 464.14 907.041 463.97C908.351 463.91 909.351 463.52 910.571 463.22C911.631 462.96 914.241 463.32 915.021 462.48C915.991 461.43 915.071 459.57 914.811 458.42C914.061 455.07 914.631 451.54 913.981 448.18" fill="#794422"/>
<path d="M903.971 584.54C903.581 586.02 902.711 587.27 900.621 588.45C897.351 590.28 894.181 591.69 890.371 591.93C891.301 589.5 893.561 587.74 894.281 585.21C894.691 583.76 894.491 582.01 894.511 580.5C894.581 576.58 894.641 572.66 894.711 568.74C894.811 562.82 893.951 539.51 894.051 533.59C902.261 533.73 913.041 532.93 909.851 544.33C907.951 551.14 907.711 558.33 906.571 565.36C905.541 571.77 905.661 578.18 903.971 584.54Z" fill="#FFD5B9"/>
<path d="M892.301 587.02L890.271 590.33L904.751 583.9L902.251 593.51L900.971 593.48L901.781 589.38L885.281 595.82L884.311 594.38L892.301 587.02Z" fill="#FF4178"/>
<path d="M934.79 576.48C935.09 577.98 934.86 579.489 933.5 581.469C931.37 584.549 929.14 587.21 925.83 589.1C925.59 586.51 926.85 583.93 926.39 581.34C926.12 579.85 925.17 578.37 924.53 577.01C922.87 573.46 921.2 569.91 919.54 566.36C917.03 561 906 540.44 903.49 535.08C910.92 531.59 920.26 526.14 922.4 537.77C923.68 544.73 926.63 551.29 928.7 558.1C930.58 564.32 933.52 570.02 934.79 576.48Z" fill="#FFD5B9"/>
<path d="M925.411 583.839L925.031 587.709L935.201 575.559L937.191 585.289L936.031 585.829L934.951 581.779L922.961 594.829L921.471 593.959L925.411 583.839Z" fill="#FF4178"/>
<path d="M935.611 410.25L927.281 405.4C927.271 405.4 927.271 405.4 927.271 405.39C927.361 404.85 927.431 404.3 927.481 403.74C927.741 400.81 927.441 397.97 926.671 395.3L934.281 391.36C935.081 390.95 935.391 389.97 934.981 389.17L930.551 380.61C930.141 379.81 929.161 379.5 928.361 379.92L919.801 384.35C919.801 384.35 919.911 384.36 919.911 384.37C916.921 381.71 913.331 379.81 909.221 378.98L909.951 370.75C910.031 369.86 909.131 369.05 908.231 368.97L898.631 368.12C897.741 368.04 897.171 368.72 897.091 369.61L896.241 379.21C896.211 379.49 896.161 379.76 896.261 380C892.911 381.27 889.851 383.31 887.431 385.91C887.271 385.55 886.951 385.24 886.551 385.07L877.651 381.33C876.821 380.98 875.871 381.37 875.521 382.2L871.781 391.09C871.431 391.91 871.821 392.87 872.651 393.21L881.531 396.95C881.571 396.97 881.611 396.98 881.661 396.99C881.481 397.85 881.351 398.73 881.271 399.63C881.021 402.43 881.281 405.16 881.971 407.73C881.941 407.75 881.901 407.76 881.871 407.78L873.951 413.27C873.211 413.78 873.031 414.79 873.541 415.53L879.031 423.45C879.541 424.19 880.551 424.37 881.291 423.86L888.671 418.74C891.721 421.56 895.551 423.57 899.841 424.42L900.181 433.06C900.221 433.96 900.971 434.66 901.871 434.62L911.501 434.24C912.391 434.21 913.091 433.45 913.061 432.55L912.691 423.33C916.171 421.99 919.271 419.83 921.721 417.06L929.131 421.37C929.901 421.82 930.901 421.56 931.351 420.78L936.191 412.45C936.651 411.69 936.381 410.7 935.611 410.25ZM902.941 417.67C894.131 416.89 887.601 409.09 888.381 400.28C889.161 391.47 896.961 384.94 905.771 385.72C914.581 386.5 921.111 394.3 920.331 403.11C919.561 411.92 911.751 418.45 902.941 417.67Z" fill="#B5FFB8"/>
<path d="M931.71 533.658C923.36 523.048 923.07 505.068 922.9 492.558C922.8 485.228 925.25 470.968 916.55 466.998C912.76 465.268 908.37 466.538 904.37 466.868C889.94 468.068 886.54 471.468 888.26 485.598C889.34 494.428 887.71 504.238 887.15 513.088C886.59 521.938 882.53 529.678 880.25 538.138C888.22 538.548 896.39 540.138 904.49 539.398C909.29 538.958 914.23 539.858 919.04 539.858C920.17 539.858 934.81 536.978 933.62 535.798C932.94 535.128 932.3 534.408 931.71 533.658Z" fill="#FFA700"/>
<path d="M877.789 426.019C877.129 424.089 877.339 421.189 879.229 419.879C879.489 420.099 879.619 420.349 879.869 420.569C881.279 419.709 881.759 416.939 883.499 417.529C885.689 418.279 884.349 421.509 884.469 422.839C884.749 425.879 886.119 430.389 882.539 432.369C880.869 431.109 879.789 429.289 878.549 427.619" fill="#FFD5B9"/>
<path d="M876.65 426.009C876.69 426.019 885.35 427.509 885.36 427.509C885.43 427.519 887.12 446.739 887.36 448.059C888.18 452.639 889.11 457.589 891.77 461.519C894.18 465.089 900.8 467.209 901.4 471.799C902.08 476.979 894.97 481.229 892.35 485.099C881.15 477.099 876.25 465.469 875.26 452.419C875.09 450.199 873.35 425.469 876.65 426.009Z" fill="#FFA700"/>
<path d="M934.249 421.379C935.059 419.509 935.089 416.599 933.319 415.139C933.049 415.329 932.899 415.579 932.629 415.779C931.289 414.809 931.039 412.009 929.259 412.459C927.019 413.029 928.089 416.359 927.859 417.669C927.329 420.669 925.599 425.059 929.009 427.319C930.769 426.199 932.009 424.479 933.379 422.909" fill="#FFD5B9"/>
<path d="M935.189 420.979L926.389 421.759C925.779 428.789 924.419 435.848 922.559 442.648C919.739 452.928 917.209 460.089 910.639 468.379C907.729 472.049 906.849 470.349 911.099 473.029C914.769 475.339 918.829 476.639 922.279 479.309C938.379 466.239 937.739 439.579 935.189 420.979Z" fill="#FFA700"/>
<path d="M900.081 467.169C898.321 467.949 896.571 470.599 898.651 471.879C901.091 473.389 902.561 470.199 903.891 469.029C905.831 470.939 906.571 474.019 909.771 470.789C911.791 468.759 911.351 466.539 908.631 465.969" fill="white"/>
<path d="M910.659 445.229C910.279 444.709 909.819 444.289 909.289 444.059C907.429 443.239 904.689 443.629 902.729 443.569C901.049 443.519 900.279 443.949 899.049 445.189C896.509 447.749 895.119 451.489 895.799 455.079C896.269 457.549 896.579 460.769 898.289 462.759C900.469 465.289 905.099 465.279 907.999 464.229C912.939 462.429 913.489 452.819 912.249 448.719C911.919 447.689 911.429 446.269 910.659 445.229Z" fill="#FFD5B9"/>
<path d="M910.8 443.609C909.12 442.359 907.06 441.569 904.98 441.729C902.19 441.949 898.76 442.789 896.89 445.029C895.89 446.229 895.48 447.939 895.33 449.459C895.25 450.279 895.07 453.459 896.22 453.779C897 453.999 898.16 452.199 898.79 451.829C901.6 450.219 904.44 449.619 906.7 447.099C906.96 447.739 908.17 448.289 908.68 448.809C910 450.139 912.52 451.519 913.27 453.229C912.78 452.109 914.05 450.519 914.02 449.349C913.98 447.929 913.45 446.279 912.51 445.189C912.01 444.619 911.43 444.079 910.8 443.609Z" fill="#794422"/>
<path d="M911.08 453.719C911.53 452.459 913.58 452.419 913.93 453.869C914.31 455.429 912.75 456.369 911.68 456.449" fill="#FFD5B9"/>
<path d="M896.77 454.01C896.32 452.75 894.27 452.71 893.92 454.16C893.54 455.72 895.1 456.66 896.17 456.74" fill="#FFD5B9"/>
<path d="M904.529 459.52C904.489 459.69 904.519 459.86 904.619 459.95" stroke="#230900" stroke-width="0.5324" stroke-miterlimit="10" stroke-linecap="round"/>
<path d="M908.69 465.839C908.69 468.109 906.85 469.949 904.59 469.949C902.32 469.949 900.49 468.109 900.49 465.839V462.959C900.49 460.689 902.33 458.859 904.59 458.859C906.86 458.859 908.69 460.699 908.69 462.959V465.839Z" fill="#FFD5B9"/>
<path d="M900.869 453.867C900.869 454.607 900.869 454.527 900.869 454.857" stroke="black" stroke-width="0.84" stroke-miterlimit="10" stroke-linecap="round" stroke-linejoin="round"/>
<path d="M908.359 453.867C908.359 454.607 908.359 454.527 908.359 454.857" stroke="black" stroke-width="0.84" stroke-miterlimit="10" stroke-linecap="round" stroke-linejoin="round"/>
<path d="M904.08 454.898C903.55 455.378 903.08 456.888 904.24 456.958" stroke="black" stroke-width="0.84" stroke-miterlimit="10" stroke-linecap="round" stroke-linejoin="round"/>
<path d="M902.141 459.248C902.601 459.568 903.451 459.538 903.971 459.518C904.581 459.498 905.171 459.258 905.781 459.238C905.671 460.018 905.911 460.728 905.461 461.468C905.081 462.088 904.251 462.678 903.541 462.248C902.791 461.798 902.821 460.578 902.971 459.828" stroke="black" stroke-width="0.84" stroke-miterlimit="10" stroke-linecap="round" stroke-linejoin="round"/>
<path d="M912.991 454.229C912.791 454.339 912.641 454.599 912.631 454.819" stroke="black" stroke-width="0.84" stroke-miterlimit="10" stroke-linecap="round" stroke-linejoin="round"/>
<path d="M895.25 454.857C895.46 454.917 895.67 454.997 895.88 455.057" stroke="black" stroke-width="0.84" stroke-miterlimit="10" stroke-linecap="round" stroke-linejoin="round"/>
<path d="M908.279 451.608C908.509 451.428 908.899 451.438 909.229 451.608" stroke="black" stroke-width="0.84" stroke-miterlimit="10" stroke-linecap="round" stroke-linejoin="round"/>
<path d="M899.961 451.967C900.251 451.797 900.571 451.717 900.911 451.727" stroke="black" stroke-width="0.84" stroke-miterlimit="10" stroke-linecap="round" stroke-linejoin="round"/>
<path d="M508.45 588.612C511.1 589.572 518.73 590.882 519.17 594.342C519.65 598.122 511.61 596.492 509.35 596.272C507.11 596.052 502.59 596.282 501.67 594.072C500.72 591.812 503.29 588.812 503.73 586.682C505.77 586.992 510.14 588.462 511.26 587.712" fill="#3D3D3D"/>
<path d="M459.789 583.941C461.739 585.981 467.979 590.561 466.829 593.851C466.209 595.621 464.339 595.661 457.179 591.211C455.279 590.021 451.129 588.201 451.279 585.821C451.439 583.381 455.079 581.831 456.419 580.121C458.109 581.311 461.369 584.581 462.699 584.401" fill="#3D3D3D"/>
<path d="M509.749 512.253C509.749 512.253 514.919 549.773 513.939 587.843L500.439 589.463C500.439 589.463 492.879 527.913 486.939 511.713L509.749 512.253Z" fill="#005A7F"/>
<path d="M491.259 511.712C491.259 511.712 476.679 572.182 464.259 586.222L452.379 581.902C452.379 581.902 471.819 524.672 470.739 504.152L491.259 511.712Z" fill="#005A7F"/>
<path d="M512.999 519.662L466.359 517.592C468.359 503.092 471.229 488.482 475.539 474.482C477.519 468.042 480.209 456.522 486.219 452.392C504.719 439.692 512.329 471.502 513.589 482.762C513.919 485.802 514.439 519.722 512.999 519.662Z" fill="#FDFFFF"/>
<path d="M501.64 429.222C501.07 428.822 500.43 428.472 499.71 428.172C494.26 425.962 490.78 429.772 488.87 434.762C487.54 438.222 489.28 444.622 492.99 446.372C495.53 447.572 498.19 447.032 500.64 445.922C502.49 445.092 503.7 444.382 504.77 442.532C505.66 441.002 505.8 439.242 505.72 437.502C505.57 434.292 504.35 431.132 501.64 429.222Z" fill="#FFD5B9"/>
<path d="M500.55 428.841C500.87 429.311 505.25 433.161 505.05 433.331C506.68 431.981 504.86 429.121 503.97 427.861C502.74 426.121 500.46 424.861 498.33 424.771C496.21 424.681 494.04 423.931 491.89 423.781C487.64 423.501 484.34 427.001 483.51 430.771C482.8 433.981 481.79 436.031 483.54 439.091C484.82 441.321 487.48 443.971 490.27 443.851C490.24 443.851 490.36 436.201 491.07 435.471C493.74 432.741 500.16 433.811 500.55 428.841Z" fill="#8D6216"/>
<path d="M491.49 436.912C491.26 435.992 491.48 435.052 490.4 434.832C489.65 434.672 488.59 435.672 488.35 436.292C487.72 437.942 488.68 440.022 490.66 439.672" fill="#FFD5B9"/>
<path d="M490.66 449.302C490.66 451.692 492.6 453.642 495 453.642C497.39 453.642 499.34 451.702 499.34 449.302V444.672C499.34 442.282 497.4 440.332 495 440.332C492.61 440.332 490.66 442.272 490.66 444.672V449.302Z" fill="#FFD5B9"/>
<path d="M502.779 435.223C502.779 435.543 502.779 435.853 502.779 436.173" stroke="black" stroke-width="0.9502" stroke-miterlimit="10" stroke-linecap="round" stroke-linejoin="round"/>
<path d="M496.359 435.582C496.359 435.902 496.359 436.212 496.359 436.532" stroke="black" stroke-width="0.9502" stroke-miterlimit="10" stroke-linecap="round" stroke-linejoin="round"/>
<path d="M499.93 436.531C500.73 436.931 501.07 438.251 500.05 438.551" stroke="black" stroke-width="0.9502" stroke-miterlimit="10" stroke-linecap="round" stroke-linejoin="round"/>
<path d="M499.1 442.552C497.89 443.052 496.54 441.622 496.09 440.492" stroke="black" stroke-width="0.9502" stroke-miterlimit="10" stroke-linecap="round" stroke-linejoin="round"/>
<path d="M489.91 436.691C490.22 436.971 490.51 437.381 490.7 437.801" stroke="black" stroke-width="0.9502" stroke-miterlimit="10" stroke-linecap="round" stroke-linejoin="round"/>
<path d="M503.491 432.612C503.131 432.432 502.691 432.442 502.301 432.612" stroke="black" stroke-width="0.9502" stroke-miterlimit="10" stroke-linecap="round" stroke-linejoin="round"/>
<path d="M540.19 465.68C542.07 464.91 544.13 462.84 543.87 460.56C543.54 460.51 543.26 460.58 542.93 460.54C542.65 458.91 544.42 456.73 542.83 455.81C540.83 454.65 539.27 457.8 538.2 458.57C535.73 460.36 531.43 462.29 532.3 466.29C534.34 466.72 536.43 466.34 538.5 466.17" fill="#FFD5B9"/>
<path d="M538.719 469.82C539.279 469.48 539.839 469.14 540.399 468.81C540.369 468.83 535.279 459.65 534.529 458.92C530.449 460.99 526.409 463.35 522.529 465.57C522.209 465.75 518.939 467.99 518.949 467.99C512.329 464.87 507.989 458.98 502.679 453.82C500.059 457.03 494.289 465.2 495.729 469.66C496.999 473.6 500.519 475.74 504.009 477.51C505.739 478.39 507.309 479.36 509.269 479.47C512.039 479.61 514.349 482.14 517.049 482.05C519.109 481.98 521.009 480.9 522.669 479.77C525.179 478.07 527.919 476.86 530.429 475.24C533.199 473.45 535.889 471.53 538.719 469.82Z" fill="#FDFFFF"/>
<path d="M519.039 468.041C519.079 469.221 519.319 470.391 519.669 471.521" stroke="#E5E5E5" stroke-width="0.9502" stroke-miterlimit="10" stroke-linecap="round" stroke-linejoin="round"/>
<path d="M903.881 470.74C903.311 473.42 903.081 476.52 903.201 479.26C904.311 479.22 905.381 479.51 906.491 479.53" stroke="#FFC26C" stroke-width="0.9502" stroke-miterlimit="10" stroke-linecap="round" stroke-linejoin="round"/>
<path d="M905.07 473.111C905.07 473.271 905.07 473.431 905.07 473.591" stroke="#FFC26C" stroke-width="0.9502" stroke-miterlimit="10" stroke-linecap="round" stroke-linejoin="round"/>
<path d="M905.551 476.441C905.551 476.761 905.551 477.071 905.551 477.391" stroke="#FFC26C" stroke-width="0.9502" stroke-miterlimit="10" stroke-linecap="round" stroke-linejoin="round"/>
<path d="M921.699 474.301C921.819 475.871 922.229 477.321 922.649 478.811" stroke="#FFC26C" stroke-width="0.9502" stroke-miterlimit="10" stroke-linecap="round" stroke-linejoin="round"/>
<path d="M887.971 481.901C887.971 480.551 887.971 479.211 887.971 477.861" stroke="#FFC26C" stroke-width="0.9502" stroke-miterlimit="10" stroke-linecap="round" stroke-linejoin="round"/>
<path d="M879.89 538.441C879.23 541.421 885.58 541.301 886.07 538.511C886.42 543.691 893.8 541.731 895.59 538.511C894.79 543.801 903.23 542.361 905.14 539.221C906.27 541.011 908.1 542.681 910.35 542.491C912.13 542.341 914.5 540.881 914.32 538.981C915.85 542.341 923.07 543.701 923.64 538.981C926.59 542.841 933.97 537.661 931.44 536.061" stroke="#FFC26C" stroke-width="0.9502" stroke-miterlimit="10" stroke-linecap="round" stroke-linejoin="round"/>
<path d="M641.391 280.291C641.391 283.141 556.811 595.771 556.811 595.771" stroke="#808080" stroke-width="3.4738" stroke-miterlimit="10" stroke-linecap="round" stroke-linejoin="round"/>
<path d="M589.131 280.291C589.131 283.141 504.551 595.771 504.551 595.771" stroke="#808080" stroke-width="3.4738" stroke-miterlimit="10" stroke-linecap="round" stroke-linejoin="round"/>
<path d="M616.68 372.941H566.32" stroke="#808080" stroke-width="3.4738" stroke-miterlimit="10" stroke-linecap="round" stroke-linejoin="round"/>
<path d="M623.02 343.16H572.66" stroke="#808080" stroke-width="3.4738" stroke-miterlimit="10" stroke-linecap="round" stroke-linejoin="round"/>
<path d="M632.2 313.391H581.84" stroke="#808080" stroke-width="3.4738" stroke-miterlimit="10" stroke-linecap="round" stroke-linejoin="round"/>
<path d="M608.45 403.342H558.08" stroke="#808080" stroke-width="3.4738" stroke-miterlimit="10" stroke-linecap="round" stroke-linejoin="round"/>
<path d="M600.212 433.752H549.852" stroke="#808080" stroke-width="3.4738" stroke-miterlimit="10" stroke-linecap="round" stroke-linejoin="round"/>
<path d="M591.971 464.16H541.611" stroke="#808080" stroke-width="3.4738" stroke-miterlimit="10" stroke-linecap="round" stroke-linejoin="round"/>
<path d="M583.741 494.57H533.381" stroke="#808080" stroke-width="3.4738" stroke-miterlimit="10" stroke-linecap="round" stroke-linejoin="round"/>
<path d="M574.551 524.971H524.191" stroke="#808080" stroke-width="3.4738" stroke-miterlimit="10" stroke-linecap="round" stroke-linejoin="round"/>
<path d="M566.321 555.381H515.961" stroke="#808080" stroke-width="3.4738" stroke-miterlimit="10" stroke-linecap="round" stroke-linejoin="round"/>
<path d="M589.321 279.971C588.841 279.461 588.281 278.991 587.631 278.571C582.711 275.341 578.561 278.401 575.711 282.931C573.741 286.071 574.201 292.681 577.491 295.121C581.221 297.891 587.991 296.881 590.021 292.431C592.061 287.971 592.421 283.231 589.321 279.971Z" fill="#FFD5B9"/>
<path d="M584.471 298.761C584.551 297.611 584.601 296.451 584.481 295.411C584.211 292.891 582.171 291.161 581.241 288.911C580.821 287.911 580.981 286.311 580.381 285.461C578.821 283.241 575.071 284.011 573.751 285.851C571.531 288.961 573.151 292.591 573.761 295.891C574.311 298.901 574.691 301.081 577.771 302.391C579.181 302.981 581.551 303.731 583.081 303.331C585.711 302.621 584.321 301.051 584.471 298.761Z" fill="#FFD5B9"/>
<path d="M580.801 272.741C576.261 271.521 569.101 274.591 567.971 279.451C567.061 283.351 568.991 288.961 572.701 290.821C575.081 288.331 575.461 285.371 578.871 283.681C581.911 282.171 585.741 282.251 586.941 278.421C586.351 280.311 591.411 281.441 591.581 283.871C591.951 279.891 591.301 276.031 586.911 274.971C584.871 274.461 582.881 273.301 580.801 272.741Z" fill="#A25F13"/>
<path d="M578.061 284.6C578.011 283.65 578.411 282.77 577.391 282.35C576.691 282.05 575.451 282.82 575.091 283.38C574.151 284.87 574.691 287.11 576.701 287.15" fill="#FFD5B9"/>
<path d="M616.532 351.43C617.792 353.03 620.352 354.43 622.472 353.54C622.432 353.21 622.282 352.96 622.232 352.63C623.722 351.91 626.312 353.01 626.752 351.22C627.312 348.98 623.862 348.35 622.812 347.54C620.412 345.66 617.362 342.07 613.752 344.01C613.902 346.09 614.842 347.99 615.582 349.94" fill="#FFD5B9"/>
<path d="M615.931 352.4L619.381 344.27C619.381 344.27 591.711 326.27 587.941 309.57L579.621 319.57C579.621 319.57 586.661 341.59 615.931 352.4Z" fill="#DFC600"/>
<path d="M596.762 324.921C593.792 321.191 591.162 318.471 589.602 313.961" stroke="#FF72A2" stroke-width="0.8927" stroke-miterlimit="10" stroke-linecap="round" stroke-linejoin="round"/>
<path d="M587.781 332.43C585.701 330.21 583.971 327.85 582.111 325.34" stroke="#FF72A2" stroke-width="0.8927" stroke-miterlimit="10" stroke-linecap="round" stroke-linejoin="round"/>
<path d="M587.54 427.071C590.27 427.801 597.98 428.451 598.72 431.851C599.53 435.571 591.37 434.641 589.11 434.621C586.86 434.601 582.38 435.211 581.27 433.101C580.13 430.931 582.43 427.711 582.68 425.561C584.74 425.691 589.23 426.781 590.27 425.931" fill="#6B3908"/>
<path d="M551.66 410.111C552.32 412.861 555.43 419.941 552.79 422.221C549.9 424.711 546.831 417.101 545.771 415.101C544.711 413.121 542.03 409.461 543.36 407.481C544.72 405.441 548.65 405.931 550.66 405.121C551.53 406.991 552.711 411.461 553.961 411.971" fill="#6B3908"/>
<path d="M596.032 365.22C600.092 364.97 600.322 391.671 600.162 394.731C600.002 397.821 592.292 427.28 591.342 427.25L581.862 426.96L585.192 397.171C585.192 397.171 587.962 386.341 573.352 366.671C573.362 366.671 595.982 365.22 596.032 365.22Z" fill="#272727"/>
<path d="M590.961 375.501C590.131 381.121 587.341 385.421 584.961 390.411C581.451 397.801 575.421 400.641 568.451 404.481C566.311 405.661 564.231 406.961 562.081 408.131C559.431 409.581 556.461 412.011 553.691 413.031C552.131 413.601 547.621 406.161 546.771 404.821C549.491 403.081 552.541 401.681 554.941 399.491C557.351 397.291 559.651 394.971 561.931 392.651C564.071 390.471 566.181 388.261 568.351 386.111C569.401 385.081 570.641 383.491 572.051 382.921C569.211 375.231 563.931 369.311 559.991 362.231C568.591 361.971 586.201 353.671 590.141 365.161C591.301 368.521 591.481 372.031 590.961 375.501Z" fill="#272727"/>
<path d="M604.052 367.451L557.402 369.151C558.232 354.531 559.912 339.741 563.072 325.441C564.532 318.861 566.272 307.161 571.942 302.561C589.362 288.411 599.512 319.501 601.672 330.631C602.242 333.631 605.492 367.401 604.052 367.451Z" fill="#FFEE00"/>
<path d="M584.12 390.16C583.86 383.04 581.28 375.53 578.17 369.26" stroke="#5E5E5E" stroke-width="0.8927" stroke-miterlimit="10" stroke-linecap="round" stroke-linejoin="round"/>
<path d="M575.22 383.561C574.28 383.231 573.25 382.991 572.25 382.801" stroke="#5E5E5E" stroke-width="0.8927" stroke-miterlimit="10" stroke-linecap="round" stroke-linejoin="round"/>
<path d="M634.222 304.001C636.262 303.981 638.932 302.811 639.532 300.601C639.242 300.431 638.962 300.391 638.662 300.231C639.002 298.611 641.452 297.241 640.312 295.801C638.872 293.991 636.272 296.331 634.992 296.661C632.032 297.411 627.322 297.621 626.652 301.661C628.392 302.811 630.472 303.231 632.462 303.841" fill="#FFD5B9"/>
<path d="M634.621 305.071L630.301 297.361C630.301 297.361 599.131 308.231 583.621 300.991L576.361 323.851C576.361 323.851 608.161 321.601 634.621 305.071Z" fill="#FFEE00"/>
<path d="M589.051 286.59C589.051 286.91 589.051 287.22 589.051 287.54" stroke="black" stroke-width="0.9502" stroke-miterlimit="10" stroke-linecap="round" stroke-linejoin="round"/>
<path d="M582.643 286.939C582.643 287.259 582.643 287.569 582.643 287.889" stroke="black" stroke-width="0.9502" stroke-miterlimit="10" stroke-linecap="round" stroke-linejoin="round"/>
<path d="M586.201 287.891C587.001 288.291 587.341 289.611 586.321 289.911" stroke="black" stroke-width="0.9502" stroke-miterlimit="10" stroke-linecap="round" stroke-linejoin="round"/>
<path d="M585.371 293.91C584.161 294.41 582.811 292.98 582.361 291.85" stroke="black" stroke-width="0.9502" stroke-miterlimit="10" stroke-linecap="round" stroke-linejoin="round"/>
<path d="M576.182 284.01C576.492 284.29 576.782 284.7 576.972 285.12" stroke="black" stroke-width="0.9502" stroke-miterlimit="10" stroke-linecap="round" stroke-linejoin="round"/>
<path d="M589.762 283.969C589.402 283.789 588.962 283.799 588.572 283.969" stroke="black" stroke-width="0.9502" stroke-miterlimit="10" stroke-linecap="round" stroke-linejoin="round"/>
<path d="M583.432 283.42C582.942 283.37 582.442 283.42 582.002 283.66" stroke="black" stroke-width="0.9502" stroke-miterlimit="10" stroke-linecap="round" stroke-linejoin="round"/>
<path d="M573.521 277.36C569.541 277.36 563.991 276.68 561.711 280.79C559.471 284.83 560.871 289.22 556.981 292.79C554.471 295.09 549.081 297.44 547.171 293.25C546.801 292.45 544.141 295.26 543.971 295.52C542.791 297.31 542.951 298.88 543.641 300.78C544.441 302.99 546.411 305.7 548.611 306.62C555.321 309.42 564.291 303.14 564.771 296.23C565.271 289.09 563.781 284 571.611 281.16" fill="#A25F13"/>
<path d="M495.28 464.561C495.17 468.901 496.36 471.341 499.98 473.511C504.01 475.921 509.19 479.771 513.65 481.031" stroke="#E5E5E5" stroke-width="0.9502" stroke-miterlimit="10" stroke-linecap="round" stroke-linejoin="round"/>
<path d="M602.85 547.21L649.491 552.74C647.491 538.24 646.521 531.23 642.211 517.24C640.231 510.8 637.541 499.28 631.531 495.15C613.031 482.45 605.42 514.26 604.16 525.52C604.95 518.38 600.28 547.33 602.85 547.21Z" fill="#FFA4A4"/>
<path d="M616.111 471.979C616.681 471.579 617.321 471.229 618.041 470.929C623.491 468.719 626.971 472.529 628.881 477.519C630.211 480.979 628.471 487.379 624.761 489.129C622.221 490.329 619.561 489.789 617.111 488.679C615.261 487.849 614.051 487.139 612.981 485.289C612.091 483.759 611.951 481.999 612.031 480.259C612.181 477.049 613.401 473.889 616.111 471.979Z" fill="#FFD5B9"/>
<path d="M617.201 471.6C616.881 472.07 612.501 475.92 612.701 476.09C611.071 474.74 612.891 471.88 613.781 470.62C615.011 468.88 617.291 467.62 619.421 467.53C626.311 467.25 634.341 466.66 636.321 475.44C637.831 482.12 631.871 488.74 626.131 491.11C625.661 487.25 628.811 481.67 626.531 478.09C624.371 474.69 617.631 477.03 617.201 471.6Z" fill="#FC561F"/>
<path d="M626.262 479.669C626.492 478.749 626.272 477.809 627.352 477.589C628.102 477.429 629.162 478.429 629.402 479.049C630.032 480.699 629.072 482.779 627.092 482.429" fill="#FFD5B9"/>
<path d="M627.09 492.06C627.09 494.45 625.15 496.4 622.75 496.4C620.36 496.4 618.41 494.46 618.41 492.06V487.43C618.41 485.04 620.35 483.09 622.75 483.09C625.14 483.09 627.09 485.03 627.09 487.43V492.06Z" fill="#FFD5B9"/>
<path d="M614.969 477.98C614.969 478.3 614.969 478.61 614.969 478.93" stroke="black" stroke-width="0.9502" stroke-miterlimit="10" stroke-linecap="round" stroke-linejoin="round"/>
<path d="M621.391 478.34C621.391 478.66 621.391 478.97 621.391 479.29" stroke="black" stroke-width="0.9502" stroke-miterlimit="10" stroke-linecap="round" stroke-linejoin="round"/>
<path d="M617.82 479.289C617.02 479.689 616.68 481.009 617.7 481.309" stroke="black" stroke-width="0.9502" stroke-miterlimit="10" stroke-linecap="round" stroke-linejoin="round"/>
<path d="M618.65 485.31C619.86 485.81 621.21 484.38 621.66 483.25" stroke="black" stroke-width="0.9502" stroke-miterlimit="10" stroke-linecap="round" stroke-linejoin="round"/>
<path d="M627.839 479.449C627.529 479.729 627.239 480.139 627.049 480.559" stroke="black" stroke-width="0.9502" stroke-miterlimit="10" stroke-linecap="round" stroke-linejoin="round"/>
<path d="M614.26 475.37C614.62 475.19 615.06 475.2 615.45 475.37" stroke="black" stroke-width="0.9502" stroke-miterlimit="10" stroke-linecap="round" stroke-linejoin="round"/>
<path d="M577.56 508.44C575.68 507.67 573.62 505.6 573.88 503.32C574.21 503.27 574.49 503.34 574.82 503.3C575.1 501.67 573.33 499.49 574.92 498.57C576.92 497.41 578.48 500.56 579.55 501.33C582.02 503.12 586.32 505.05 585.45 509.05C583.41 509.48 581.32 509.1 579.25 508.93" fill="#FFD5B9"/>
<path d="M579.03 512.59C578.47 512.25 577.91 511.91 577.35 511.58C577.38 511.6 582.47 502.42 583.22 501.69C587.3 503.76 591.34 506.12 595.22 508.34C595.54 508.52 598.81 510.76 598.8 510.76C605.42 507.64 609.76 501.75 615.07 496.59C617.69 499.8 623.46 507.97 622.02 512.43C620.75 516.37 617.23 518.51 613.74 520.28C612.01 521.16 610.44 522.13 608.48 522.24C605.71 522.38 603.4 524.91 600.7 524.82C598.64 524.75 596.74 523.67 595.08 522.54C592.57 520.84 589.83 519.63 587.32 518.01C584.55 516.21 581.86 514.29 579.03 512.59Z" fill="#FFA4A4"/>
<path d="M622.47 507.32C622.58 511.66 621.39 514.1 617.77 516.27C613.74 518.68 608.56 522.53 604.1 523.79" stroke="#E5E5E5" stroke-width="0.9502" stroke-miterlimit="10" stroke-linecap="round" stroke-linejoin="round"/>
<path d="M608.49 587.912C607.3 590.232 605.39 592.192 603.12 593.642C601.8 594.492 600.73 594.422 599.31 594.802C597.55 595.272 596.15 596.242 594.25 596.272C595 593.102 596.81 591.642 598.47 589.102C599.99 586.772 599.53 583.672 599.54 581.052C599.56 576.782 600.11 566.122 606.03 573.202C607.93 575.472 609.36 578.202 609.72 581.172C610.01 583.622 609.52 585.902 608.49 587.912Z" fill="#FFD5B9"/>
<path d="M597.509 590.982L595.549 594.332L609.879 587.582L607.599 597.242H606.319L607.039 593.122L590.679 599.932L589.689 598.512L597.509 590.982Z" fill="#623720"/>
<path d="M611.619 576.831C611.779 578.601 611.999 580.371 612.269 582.071C610.049 582.991 607.569 583.251 605.309 584.131C604.179 584.571 600.499 586.071 599.339 585.181C596.869 583.301 597.129 573.891 596.469 570.521C595.099 563.611 594.889 556.661 594.159 549.691C593.459 543.011 592.399 528.861 603.189 528.801C611.969 528.751 610.619 543.641 610.529 549.321C610.459 553.621 610.939 557.971 611.109 562.271C611.229 565.391 611.329 568.521 611.359 571.651C611.369 573.341 611.459 575.091 611.619 576.831Z" fill="#3B5DAD"/>
<path d="M634.089 579.01C634.539 580.47 634.469 582 633.319 584.1C631.529 587.39 629.579 590.27 626.479 592.49C625.979 589.94 626.959 587.24 626.229 584.72C625.809 583.27 624.709 581.9 623.929 580.61C622.239 577.81 618.469 574.03 619.849 570.68C620.889 568.17 625.869 564.72 628.359 566.29C630.949 567.94 633.209 576.16 634.089 579.01Z" fill="#FFD5B9"/>
<path d="M625.518 587.309L625.548 591.199L634.398 578.059L637.388 587.529L636.288 588.179L634.798 584.279L624.238 598.499L622.648 597.789L625.518 587.309Z" fill="#623720"/>
<path d="M631.869 570.57C632.569 573.3 632.839 575.24 632.289 575.53C628.439 577.58 624.989 579.5 620.919 580.96C619.779 578.72 619.149 576.34 618.119 574.08C616.759 571.1 615.299 568.17 613.889 565.21C611.239 559.63 608.689 553.97 607.059 547.99C605.799 543.39 604.419 533.48 610.119 531.15C620.139 527.06 622.469 541.8 624.149 547.74C624.559 549.22 629.909 562.97 631.869 570.57Z" fill="#3B5DAD"/>
<path d="M606.789 533.67C597.229 542.25 611.279 556.54 613.149 565.04" stroke="#6185CC" stroke-width="0.9502" stroke-miterlimit="10"/>
<path d="M625.461 551.031C628.601 556.921 630.421 563.681 632.591 570.031" stroke="#6185CC" stroke-width="0.9502" stroke-miterlimit="10"/>
<path d="M626.891 554.361C629.951 558.241 635.051 561.401 636.391 566.241" stroke="#6185CC" stroke-width="0.9502" stroke-miterlimit="10"/>
<path d="M627.051 469.63C624.081 463.87 630.821 459.81 635.931 461.48C641.961 463.44 641.991 473.31 635.921 475.33" fill="#FC561F"/>
<path d="M1058.22 571.08C1058.22 571.08 1077.02 573.51 1077.02 547.5C1077.02 527.28 1068.3 514.71 1062.73 508.76C1060.3 506.15 1056.14 506.15 1053.71 508.76C1048.15 514.72 1039.42 527.28 1039.42 547.5C1039.42 573.51 1058.22 571.08 1058.22 571.08Z" fill="#75CC62"/>
<path d="M1077.01 547.501C1077.01 527.281 1068.29 514.711 1062.72 508.761C1061.5 507.461 1059.86 506.801 1058.21 506.801V571.081C1058.22 571.081 1077.01 573.511 1077.01 547.501Z" fill="#A7DF87"/>
<path d="M1060.43 558.48H1056.02V588.48H1060.43V558.48Z" fill="#AA7D57"/>
<path d="M1060.42 558.48H1058.22V588.48H1060.42V558.48Z" fill="#BF9773"/>
<path d="M1266.38 576.351C1232.13 556.861 1198.93 538.881 1166.23 538.881C1133.43 538.881 1100.33 556.861 1066.08 576.351C1042.64 589.691 1017.08 596.361 991.529 596.361H1341.01C1315.42 596.371 1289.84 589.701 1266.38 576.351Z" fill="#A7DF87"/>
<path d="M1166.26 596.361H1341C1315.42 596.371 1289.84 589.701 1266.38 576.351C1232.14 556.871 1198.96 538.901 1166.27 538.881V596.361H1166.26Z" fill="#75CC62"/>
<path d="M1179.72 461.01C1179.72 461.01 1165.93 451.73 1143.31 454.82L1167.09 490.91" fill="#CE572E"/>
<path d="M1138.55 463.67L1156.5 490.91H1167.09L1143.31 454.82C1138.77 454.83 1136.05 459.88 1138.55 463.67Z" fill="#BF4528"/>
<path d="M1256.29 582.861L1260.6 596.361H1288.85L1302.55 571.461C1305.29 566.481 1308.3 561.651 1311.37 556.871C1319.46 544.261 1323.85 529.151 1321.69 508.911C1315.02 446.581 1238.1 449.341 1238.1 449.341C1238.1 449.341 1149.99 443.591 1131.79 505.851L1124.67 509.161V544.801H1136.4C1136.4 544.801 1145.09 567.831 1177.69 578.261L1187.69 596.351H1216.81V584.771C1216.8 584.781 1242.77 586.151 1256.29 582.861Z" fill="#E16635"/>
<path d="M1148.92 502.47C1148.92 505.64 1150.81 508.2 1153.14 508.2C1155.47 508.2 1157.36 505.63 1157.36 502.47C1157.36 499.3 1155.47 496.74 1153.14 496.74C1150.81 496.74 1148.92 499.3 1148.92 502.47Z" fill="#BF4528"/>
<path d="M1122.74 526.98C1122.74 517.14 1123.6 509.16 1124.66 509.16C1125.72 509.16 1126.58 517.14 1126.58 526.98C1126.58 536.82 1125.72 544.8 1124.66 544.8C1123.6 544.8 1122.74 536.82 1122.74 526.98Z" fill="#BF4528"/>
<path d="M1179.72 462.681C1179.72 462.681 1168.06 454.831 1148.92 457.451L1169.03 487.981" fill="#E16635"/>
<path d="M1144.89 464.931L1160.07 487.971H1169.03L1148.92 457.441C1145.08 457.451 1142.78 461.721 1144.89 464.931Z" fill="#CE572E"/>
<path d="M1201.08 472.44H1272.99C1274.43 472.44 1275.59 471.28 1275.59 469.84C1275.59 468.4 1274.43 467.24 1272.99 467.24H1201.08C1199.64 467.24 1198.48 468.4 1198.48 469.84C1198.48 471.28 1199.64 472.44 1201.08 472.44Z" fill="#BF4528"/>
<path d="M1243.48 469.84C1266.22 469.84 1284.66 451.404 1284.66 428.66C1284.66 405.917 1266.22 387.48 1243.48 387.48C1220.74 387.48 1202.3 405.917 1202.3 428.66C1202.3 451.404 1220.74 469.84 1243.48 469.84Z" fill="#D88F39"/>
<path d="M1237.03 469.84C1259.77 469.84 1278.21 451.404 1278.21 428.66C1278.21 405.917 1259.77 387.48 1237.03 387.48C1214.29 387.48 1195.85 405.917 1195.85 428.66C1195.85 451.404 1214.29 469.84 1237.03 469.84Z" fill="#FFCB51"/>
<path d="M1237.03 463.59C1217.77 463.59 1202.1 447.92 1202.1 428.66C1202.1 409.4 1217.77 393.73 1237.03 393.73C1256.29 393.73 1271.96 409.4 1271.96 428.66C1271.96 447.93 1256.29 463.59 1237.03 463.59ZM1237.03 395.54C1218.76 395.54 1203.9 410.4 1203.9 428.67C1203.9 446.94 1218.76 461.8 1237.03 461.8C1255.3 461.8 1270.16 446.94 1270.16 428.67C1270.16 410.4 1255.3 395.54 1237.03 395.54Z" fill="#EFA748"/>
<path d="M1262.01 430.1H1255.17L1250.53 447.69H1246.36L1241.89 430.1H1236.64L1232.17 447.69H1228L1223.36 430.1H1216.52V426.53H1222.41L1218.93 413.24H1223.32L1226.59 426.53H1233.77L1237.12 413.24H1241.59L1244.99 426.53H1252.17L1255.44 413.24H1259.61L1256.13 426.53H1262.02V430.1H1262.01ZM1232.85 430.1H1227.47L1230.14 440.94L1232.85 430.1ZM1240.98 426.53L1239.26 419.69L1237.54 426.53H1240.98ZM1251.3 430.1H1245.88L1248.63 440.98L1251.3 430.1Z" fill="#EFA748"/>
<path d="M1259.78 428.301H1252.94L1248.3 445.891H1244.13L1239.66 428.301H1234.41L1229.94 445.891H1225.77L1221.13 428.301H1214.29V424.731H1220.18L1216.7 411.441H1221.09L1224.36 424.731H1231.54L1234.89 411.441H1239.36L1242.76 424.731H1249.94L1253.21 411.441H1257.38L1253.9 424.731H1259.79V428.301H1259.78ZM1230.63 428.301H1225.25L1227.92 439.141L1230.63 428.301ZM1238.75 424.731L1237.03 417.891L1235.31 424.731H1238.75ZM1249.07 428.301H1243.65L1246.4 439.181L1249.07 428.301Z" fill="#FFD788"/>
<path d="M1321.69 508.911C1319.63 489.701 1310.9 476.691 1299.81 467.861C1310.98 490.341 1307.72 518.961 1290.81 538.291C1279.95 550.711 1265.11 559.051 1249.6 564.461C1226.86 572.391 1202.27 576.561 1177.62 578.251C1177.64 578.261 1177.66 578.261 1177.68 578.271L1187.68 596.361H1216.8V584.781C1216.8 584.781 1242.77 586.151 1256.29 582.861L1260.6 596.361H1288.85L1302.55 571.461C1305.29 566.481 1308.3 561.651 1311.37 556.871C1319.46 544.261 1323.85 529.151 1321.69 508.911Z" fill="#CE572E"/>
<path d="M1376.46 587.71C1362.63 579.29 1349.23 571.52 1336.02 571.52C1322.78 571.52 1309.41 579.29 1295.58 587.71C1286.11 593.48 1275.8 596.359 1265.48 596.359H1406.59C1396.26 596.359 1385.93 593.48 1376.46 587.71Z" fill="#A7DF87"/>
<path d="M1336.03 596.359H1406.58C1396.25 596.369 1385.92 593.48 1376.45 587.71C1362.63 579.29 1349.23 571.52 1336.03 571.52V596.359Z" fill="#75CC62"/>
<path d="M171.459 584.32C151.949 571.45 133.029 559.58 114.399 559.58C95.7094 559.58 76.8494 571.45 57.3394 584.32C43.9794 593.13 29.4194 597.53 14.8594 597.53H213.979C199.399 597.54 184.829 593.14 171.459 584.32Z" fill="#A7DF87"/>
<path d="M114.41 597.54H213.97C199.4 597.55 184.82 593.14 171.45 584.33C151.94 571.46 133.03 559.6 114.41 559.59V597.54Z" fill="#75CC62"/>
<path d="M263.729 482.199H182.109V498.829H263.729V482.199Z" fill="#FFCB51"/>
<path d="M263.73 482.199H257.6V498.829H263.73V482.199Z" fill="#EFA748"/>
<path d="M249.32 482.199H240.25V498.829H249.32V482.199Z" fill="#FFD788"/>
<path d="M207.099 482.199H182.109V498.829H207.099V482.199Z" fill="#EFA748"/>
<path d="M263.729 496.529H182.109V498.829H263.729V496.529Z" fill="#D88F39"/>
<path d="M269.179 498.639H187.559V515.269H269.179V498.639Z" fill="#FFCB51"/>
<path d="M269.179 498.639H263.049V515.269H269.179V498.639Z" fill="#EFA748"/>
<path d="M254.769 498.639H245.699V515.269H254.769V498.639Z" fill="#FFD788"/>
<path d="M212.549 498.639H187.559V515.269H212.549V498.639Z" fill="#EFA748"/>
<path d="M269.179 512.969H187.559V515.269H269.179V512.969Z" fill="#D88F39"/>
<path d="M278.72 515.08H197.1V531.71H278.72V515.08Z" fill="#FFCB51"/>
<path d="M278.72 515.08H272.59V531.71H278.72V515.08Z" fill="#EFA748"/>
<path d="M264.31 515.08H255.24V531.71H264.31V515.08Z" fill="#FFD788"/>
<path d="M222.09 515.08H197.1V531.71H222.09V515.08Z" fill="#EFA748"/>
<path d="M278.72 529.41H197.1V531.71H278.72V529.41Z" fill="#D88F39"/>
<path d="M263.729 531.529H182.109V548.159H263.729V531.529Z" fill="#FFCB51"/>
<path d="M263.73 531.529H257.6V548.159H263.73V531.529Z" fill="#EFA748"/>
<path d="M249.32 531.529H240.25V548.159H249.32V531.529Z" fill="#FFD788"/>
<path d="M207.099 531.529H182.109V548.159H207.099V531.529Z" fill="#EFA748"/>
<path d="M263.729 545.85H182.109V548.15H263.729V545.85Z" fill="#D88F39"/>
<path d="M274.179 547.969H192.559V564.599H274.179V547.969Z" fill="#FFCB51"/>
<path d="M274.179 547.969H268.049V564.599H274.179V547.969Z" fill="#EFA748"/>
<path d="M259.769 547.969H250.699V564.599H259.769V547.969Z" fill="#FFD788"/>
<path d="M217.549 547.969H192.559V564.599H217.549V547.969Z" fill="#EFA748"/>
<path d="M274.179 562.289H192.559V564.589H274.179V562.289Z" fill="#D88F39"/>
<path d="M268.05 564.398H186.43V581.028H268.05V564.398Z" fill="#FFCB51"/>
<path d="M268.05 564.398H261.92V581.028H268.05V564.398Z" fill="#EFA748"/>
<path d="M253.64 564.398H244.57V581.028H253.64V564.398Z" fill="#FFD788"/>
<path d="M211.42 564.398H186.43V581.028H211.42V564.398Z" fill="#EFA748"/>
<path d="M268.05 578.729H186.43V581.029H268.05V578.729Z" fill="#D88F39"/>
<path d="M274.179 580.84H192.559V597.47H274.179V580.84Z" fill="#FFCB51"/>
<path d="M274.179 580.84H268.049V597.47H274.179V580.84Z" fill="#EFA748"/>
<path d="M259.769 580.84H250.699V597.47H259.769V580.84Z" fill="#FFD788"/>
<path d="M217.549 580.84H192.559V597.47H217.549V580.84Z" fill="#EFA748"/>
<path d="M274.179 595.17H192.559V597.47H274.179V595.17Z" fill="#D88F39"/>
<path d="M177.37 597.499C202.51 597.499 222.89 577.119 222.89 551.979C222.89 526.839 202.51 506.459 177.37 506.459C152.23 506.459 131.85 526.839 131.85 551.979C131.85 577.119 152.23 597.499 177.37 597.499Z" fill="#D88F39"/>
<path d="M170.27 597.509C195.41 597.509 215.79 577.129 215.79 551.989C215.79 526.849 195.41 506.469 170.27 506.469C145.13 506.469 124.75 526.849 124.75 551.989C124.75 577.129 145.13 597.509 170.27 597.509Z" fill="#FFCB51"/>
<path d="M131.52 551.998C131.52 530.628 148.91 513.238 170.28 513.238C191.65 513.238 209.04 530.628 209.04 551.998C209.04 573.368 191.65 590.758 170.28 590.758C148.91 590.758 131.52 573.368 131.52 551.998ZM133.81 551.998C133.81 572.108 150.17 588.468 170.28 588.468C190.39 588.468 206.75 572.108 206.75 551.998C206.75 531.888 190.39 515.528 170.28 515.528C150.17 515.538 133.81 531.888 133.81 551.998Z" fill="#EFA748"/>
<path d="M197.88 553.589H190.32L185.19 573.029H180.58L175.64 553.589H169.84L164.9 573.029H160.29L155.16 553.589H147.6V549.639H154.11L150.26 534.949H155.11L158.72 549.639H166.66L170.37 534.949H175.31L179.06 549.639H187L190.61 534.949H195.22L191.37 549.639H197.88V553.589ZM165.66 553.589H159.72L162.67 565.569L165.66 553.589ZM174.64 549.649L172.74 542.089L170.84 549.649H174.64ZM186.05 553.589H180.06L183.1 565.619L186.05 553.589Z" fill="#EFA748"/>
<path d="M195.421 551.599H187.861L182.731 571.039H178.121L173.181 551.599H167.381L162.441 571.039H157.831L152.701 551.599H145.141V547.649H151.651L147.801 532.959H152.651L156.261 547.649H164.201L167.911 532.959H172.851L176.601 547.649H184.541L188.151 532.959H192.761L188.911 547.649H195.421V551.599ZM163.201 551.599H157.261L160.211 563.579L163.201 551.599ZM172.181 547.649L170.281 540.089L168.381 547.649H172.181ZM183.591 551.599H177.601L180.641 563.629L183.591 551.599Z" fill="#FFD788"/>
</g>
</g>
</g>
<defs>
<clipPath id="clip0_848_2387">
<rect width="1440" height="597" fill="white"/>
</clipPath>
<clipPath id="clip1_848_2387">
<rect width="1440" height="597" fill="white"/>
</clipPath>
<clipPath id="clip2_848_2387">
<rect width="1440" height="597" fill="white"/>
</clipPath>
</defs>
</svg>
