<svg width="54" height="55" viewBox="0 0 54 55" fill="none" xmlns="http://www.w3.org/2000/svg">
<g clip-path="url(#clip0_761_33519)">
<path d="M-0.000753578 1.00243C-0.000753578 0.559783 0.362709 0.201172 0.81134 0.201172H32.4002C32.6245 0.201172 32.8248 0.292304 32.9748 0.435512L45.4129 12.7111C45.522 12.8153 45.5892 12.9431 45.6276 13.0769V13.0875L45.6312 13.0982L45.6348 13.1053V13.1183L45.642 13.155L45.6456 13.1621V13.1751L45.6492 13.2153L45.6528 13.2224V13.2591V17.2749H53.1884C53.637 17.2749 54.0016 17.6335 54.0016 18.0773V49.28C54.0016 50.6352 53.4439 51.8661 52.543 52.7561L52.5394 52.7596C51.6349 53.652 50.391 54.2024 49.0163 54.2024H4.98696C3.60988 54.2024 2.36235 53.652 1.46029 52.7596C0.555836 51.8708 -0.00195312 50.6399 -0.00195312 49.2812V1.00243H-0.000753578ZM45.3289 52.5975C44.53 51.7288 44.037 50.5807 44.0262 49.3203V13.6106L32.0643 1.80486H1.62463V49.28C1.62463 50.1961 2.00249 51.0246 2.61066 51.6246C3.21883 52.2247 4.05971 52.5975 4.98696 52.5975H45.3289ZM52.3739 49.28V18.8809H45.6516V49.28C45.6516 50.1961 46.0295 51.0246 46.6376 51.6246C47.2458 52.2247 48.0867 52.5975 49.0139 52.5975C49.9412 52.5975 50.7821 52.2247 51.3902 51.6246C51.996 51.0269 52.3727 50.1949 52.3727 49.28H52.3739ZM5.26646 43.2984C4.81783 43.2984 4.45076 42.9398 4.45076 42.4972C4.45076 42.0545 4.81783 41.6924 5.26646 41.6924H40.3844C40.833 41.6924 41.1977 42.0545 41.1977 42.4972C41.1977 42.9398 40.8342 43.2984 40.3844 43.2984H5.26646ZM20.8666 23.679H6.07855V36.7866H20.8666V23.679ZM5.26646 22.0753H21.6799C22.1321 22.0753 22.4955 22.4339 22.4955 22.8765V37.5914C22.4955 38.0341 22.1321 38.3939 21.6799 38.3939H5.26646C4.81783 38.3939 4.45076 38.0353 4.45076 37.5914V22.8765C4.45076 22.4339 4.81783 22.0753 5.26646 22.0753ZM40.3844 36.7866C40.833 36.7866 41.2001 37.1488 41.2001 37.5914C41.2001 38.0341 40.833 38.3939 40.3844 38.3939H25.8819C25.4332 38.3939 25.0686 38.0353 25.0686 37.5914C25.0686 37.1476 25.432 36.7866 25.8819 36.7866H40.3844ZM40.3844 31.8856C40.833 31.8856 41.2001 32.2442 41.2001 32.6869C41.2001 33.1295 40.833 33.4893 40.3844 33.4893H25.8819C25.4332 33.4893 25.0686 33.1307 25.0686 32.6869C25.0686 32.243 25.432 31.8856 25.8819 31.8856H40.3844ZM40.3844 26.981C40.833 26.981 41.2001 27.3396 41.2001 27.7823C41.2001 28.2249 40.833 28.5835 40.3844 28.5835H25.8819C25.4332 28.5835 25.0686 28.2249 25.0686 27.7823C25.0686 27.3396 25.432 26.981 25.8819 26.981H40.3844ZM40.3844 22.0765C40.833 22.0765 41.2001 22.4351 41.2001 22.8777C41.2001 23.3204 40.833 23.679 40.3844 23.679H25.8819C25.4332 23.679 25.0686 23.3204 25.0686 22.8777C25.0686 22.4351 25.432 22.0765 25.8819 22.0765H40.3844ZM5.26646 18.7708C4.81783 18.7708 4.45076 18.4122 4.45076 17.9696C4.45076 17.527 4.81783 17.1683 5.26646 17.1683H40.3844C40.833 17.1683 41.1977 17.527 41.1977 17.9696C41.1977 18.4122 40.8342 18.7708 40.3844 18.7708H5.26646ZM5.26646 48.203C4.81783 48.203 4.45076 47.8444 4.45076 47.4018C4.45076 46.9591 4.81783 46.597 5.26646 46.597H40.3844C40.833 46.597 41.1977 46.9591 41.1977 47.4018C41.1977 47.8444 40.8342 48.203 40.3844 48.203H5.26646ZM11.2714 13.1479C11.2714 13.239 11.2582 13.3159 11.227 13.3893C11.197 13.4568 11.1586 13.5171 11.1047 13.5633C11.0567 13.6106 10.9955 13.6438 10.9283 13.6639C10.8563 13.6876 10.7892 13.697 10.7208 13.697H10.0922C9.95908 13.697 9.84753 13.684 9.75276 13.6568C9.6616 13.6296 9.57283 13.5799 9.49126 13.5053C9.40969 13.4355 9.33532 13.3372 9.25975 13.213C9.18538 13.0922 9.10021 12.9313 9.00784 12.736L7.21212 9.20669C7.10656 8.99484 7.0046 8.7676 6.89544 8.52261C6.78628 8.28117 6.69152 8.04328 6.60275 7.81486H6.59196C6.60875 8.09654 6.61955 8.37467 6.62554 8.65398C6.63274 8.93211 6.63874 9.2209 6.63874 9.5156V13.4674C6.63874 13.5041 6.62914 13.5408 6.60875 13.5716C6.58476 13.6012 6.55117 13.6284 6.49959 13.6521C6.45161 13.6722 6.38084 13.6887 6.29567 13.6994C6.2105 13.7124 6.09894 13.7195 5.96579 13.7195C5.83264 13.7195 5.72468 13.7124 5.63952 13.6994C5.55435 13.6887 5.48597 13.6722 5.43919 13.6521C5.39121 13.6319 5.35762 13.6012 5.34083 13.5716C5.32044 13.5408 5.31084 13.5041 5.31084 13.4674V6.6834C5.31084 6.49876 5.36122 6.36147 5.46678 6.27034C5.56514 6.17684 5.6911 6.13305 5.84464 6.13305H6.63034C6.77309 6.13305 6.89184 6.1437 6.9902 6.16974C7.08497 6.19696 7.17374 6.2372 7.24811 6.29401C7.32248 6.35437 7.39805 6.43485 7.46283 6.539C7.5312 6.63961 7.59838 6.77098 7.67035 6.92129L9.07502 9.68248C9.15659 9.85054 9.23816 10.0174 9.31613 10.1796C9.3977 10.3405 9.47567 10.5015 9.54764 10.6624C9.62201 10.8234 9.69398 10.9808 9.76476 11.1382C9.83673 11.2956 9.9075 11.4507 9.97228 11.6045H9.97948C9.96988 11.3323 9.95908 11.0471 9.95189 10.7524C9.94469 10.4577 9.94469 10.1725 9.94469 9.9038V6.35792C9.94469 6.32123 9.95429 6.28691 9.97828 6.25377C9.99867 6.22418 10.0359 6.19696 10.091 6.17329C10.1414 6.14962 10.2098 6.13305 10.2986 6.1224C10.3837 6.11293 10.4929 6.10938 10.6284 6.10938C10.7544 6.10938 10.8635 6.11293 10.9475 6.1224C11.0327 6.13187 11.0975 6.14962 11.1442 6.17329C11.1922 6.19696 11.2258 6.223 11.2426 6.25377C11.2594 6.28691 11.2702 6.32123 11.2702 6.35792V13.1479H11.2714ZM17.1264 13.0804C17.1264 13.194 17.1228 13.2887 17.1132 13.3656C17.1024 13.4426 17.0892 13.5029 17.0688 13.5503C17.052 13.5976 17.028 13.6307 17.0004 13.6544C16.9728 13.6745 16.9392 13.684 16.9081 13.684H13.2794C13.1571 13.684 13.0551 13.6473 12.9699 13.5704C12.8884 13.497 12.844 13.3727 12.844 13.2011V6.61593C12.844 6.44432 12.8884 6.32123 12.9699 6.24667C13.0551 6.16974 13.1571 6.13305 13.2794 6.13305H16.8901C16.9213 6.13305 16.9512 6.1437 16.9788 6.16382C17.0028 6.18394 17.0268 6.21708 17.0472 6.26442C17.064 6.31532 17.0772 6.37449 17.088 6.45261C17.0988 6.52954 17.1012 6.62422 17.1012 6.74494C17.1012 6.85264 17.0976 6.94259 17.088 7.02307C17.0784 7.09645 17.064 7.16036 17.0472 7.20415C17.0268 7.25149 17.0028 7.28818 16.9788 7.3083C16.9512 7.33197 16.9213 7.34144 16.8901 7.34144H14.3098V9.17947H16.4822C16.5158 9.17947 16.547 9.18894 16.5734 9.21261C16.6034 9.23273 16.6238 9.26587 16.6454 9.30966C16.6658 9.35345 16.6753 9.41381 16.6861 9.49074C16.6969 9.56767 16.6993 9.6588 16.6993 9.76532C16.6993 9.87894 16.6957 9.97363 16.6861 10.047C16.6765 10.1204 16.6658 10.1807 16.6454 10.2245C16.625 10.2719 16.6046 10.3015 16.5734 10.318C16.5458 10.3382 16.5158 10.3476 16.4822 10.3476H14.3098V12.4744H16.9081C16.9416 12.4744 16.9728 12.4851 17.0004 12.5076C17.028 12.5277 17.0508 12.5608 17.0688 12.6117C17.0892 12.6555 17.1024 12.7194 17.1132 12.7928C17.1228 12.8733 17.1264 12.9644 17.1264 13.078V13.0804ZM26.0354 13.2946C26.0114 13.3881 25.9814 13.4627 25.9406 13.5195C25.9035 13.5728 25.8459 13.6201 25.7667 13.6473C25.6887 13.6781 25.5868 13.6982 25.4644 13.7077C25.3421 13.7183 25.1861 13.7207 24.9954 13.7207C24.7843 13.7207 24.6115 13.7171 24.4856 13.7077C24.356 13.6982 24.2541 13.6769 24.1797 13.6473C24.1053 13.6201 24.0502 13.5739 24.0166 13.5195C23.9854 13.4627 23.959 13.3881 23.9386 13.2946L22.7822 8.50723H22.7714L21.6763 13.2946C21.6559 13.3822 21.6319 13.4556 21.5983 13.5124C21.5647 13.5692 21.5095 13.613 21.4387 13.6438C21.3668 13.6769 21.2684 13.697 21.1425 13.7077C21.0165 13.7183 20.8534 13.7207 20.6494 13.7207C20.4323 13.7207 20.262 13.7171 20.1324 13.7077C20.0065 13.6982 19.9009 13.6769 19.8266 13.6473C19.7522 13.6201 19.7006 13.5739 19.667 13.5195C19.6334 13.4627 19.6058 13.3881 19.5854 13.2946L17.9433 6.70233C17.9097 6.56149 17.8917 6.45024 17.8893 6.37331C17.8821 6.29283 17.9061 6.22892 17.9505 6.18868C17.9984 6.14489 18.0728 6.11767 18.1784 6.1082C18.2875 6.09755 18.4339 6.09518 18.6198 6.09518C18.7961 6.09518 18.9329 6.09873 19.0385 6.10465C19.1404 6.1082 19.2148 6.12122 19.2664 6.14489C19.3203 6.16501 19.3551 6.19578 19.3755 6.23839C19.3923 6.27863 19.4067 6.33544 19.4199 6.41L20.6878 12.1975H20.695L22.0109 6.45024C22.0277 6.37686 22.0481 6.3165 22.0721 6.26916C22.0961 6.22182 22.1369 6.18513 22.1945 6.16146C22.252 6.13779 22.33 6.11767 22.432 6.1082C22.5303 6.09755 22.6671 6.09518 22.8326 6.09518C23.0126 6.09518 23.1529 6.09873 23.2609 6.1082C23.3664 6.1153 23.448 6.13187 23.5056 6.15554C23.5631 6.18276 23.6039 6.21945 23.6315 6.26679C23.6591 6.31058 23.6795 6.37449 23.6927 6.45142L25.0566 12.1987H25.0698L26.3281 6.42775C26.3377 6.36739 26.3557 6.31413 26.3725 6.26679C26.3929 6.223 26.4265 6.18631 26.478 6.16264C26.532 6.13897 26.6076 6.11885 26.7024 6.10938C26.8007 6.09873 26.9375 6.09636 27.1138 6.09636C27.2769 6.09636 27.4065 6.09991 27.4977 6.10938C27.59 6.11885 27.6536 6.14607 27.6944 6.18986C27.7352 6.2301 27.7556 6.29401 27.7484 6.37804C27.7412 6.46208 27.7244 6.57569 27.6872 6.72364L26.0342 13.2958L26.0354 13.2946ZM33.03 11.4187C33.03 11.8152 32.958 12.1632 32.8188 12.4626C32.6761 12.7609 32.4854 13.0094 32.2407 13.2106C31.9996 13.4118 31.7165 13.5633 31.3902 13.6639C31.0675 13.7645 30.7208 13.8154 30.3502 13.8154C30.1019 13.8154 29.8704 13.7953 29.6568 13.7515C29.4421 13.7077 29.2526 13.6544 29.0895 13.5941C28.9263 13.5337 28.7872 13.4698 28.678 13.4023C28.5653 13.3349 28.4873 13.2745 28.4405 13.2248C28.3925 13.1739 28.3589 13.1005 28.3349 13.0035C28.3145 12.91 28.3074 12.7715 28.3074 12.594C28.3074 12.4733 28.311 12.3727 28.3169 12.2922C28.3241 12.2081 28.3337 12.1442 28.3541 12.091C28.3709 12.0401 28.3913 12.0069 28.4189 11.9833C28.4489 11.9631 28.4801 11.9537 28.5173 11.9537C28.5677 11.9537 28.6432 11.9833 28.738 12.0507C28.8328 12.1146 28.9551 12.1845 29.105 12.2626C29.255 12.3395 29.4349 12.4141 29.6424 12.4768C29.8464 12.5407 30.0875 12.5739 30.3598 12.5739C30.5397 12.5739 30.6993 12.5502 30.8396 12.5064C30.9823 12.4626 31.1047 12.3987 31.2031 12.3182C31.3014 12.2377 31.377 12.1371 31.431 12.0164C31.4814 11.8992 31.5089 11.7643 31.5089 11.6176C31.5089 11.4459 31.4646 11.2992 31.3734 11.1785C31.2846 11.0542 31.1695 10.9465 31.0231 10.8494C30.8804 10.7559 30.7172 10.6648 30.5337 10.5808C30.3538 10.4967 30.163 10.4092 29.9687 10.3157C29.7744 10.2222 29.5849 10.118 29.4037 9.9973C29.2202 9.88013 29.0571 9.73928 28.9143 9.57477C28.768 9.40671 28.6528 9.21261 28.5641 8.98774C28.4753 8.75932 28.4309 8.49065 28.4309 8.17583C28.4309 7.81722 28.4957 7.4953 28.6216 7.22309C28.7512 6.94851 28.9239 6.72364 29.1422 6.54256C29.3594 6.35792 29.6149 6.22418 29.9111 6.13305C30.2074 6.04547 30.5229 6.00168 30.8528 6.00168C31.0231 6.00168 31.1959 6.0147 31.3662 6.04192C31.5401 6.06914 31.6997 6.10583 31.846 6.15317C31.996 6.20051 32.1279 6.25022 32.2443 6.31058C32.3594 6.36739 32.435 6.41828 32.4722 6.45852C32.5094 6.49521 32.5334 6.52954 32.5466 6.55557C32.5597 6.5828 32.5741 6.61949 32.5801 6.66328C32.5897 6.70707 32.5969 6.76388 32.6005 6.83489C32.6041 6.90235 32.6077 6.98638 32.6077 7.08698C32.6077 7.19823 32.6041 7.29528 32.5981 7.37221C32.5945 7.44914 32.5849 7.51305 32.5705 7.56631C32.5573 7.61366 32.537 7.6539 32.5166 7.67402C32.489 7.69769 32.459 7.71071 32.4182 7.71071C32.3774 7.71071 32.3126 7.68348 32.2215 7.63022C32.1327 7.57697 32.0247 7.51661 31.8916 7.44914C31.762 7.38523 31.6097 7.32842 31.4394 7.27753C31.2654 7.22427 31.0795 7.19705 30.8744 7.19705C30.7148 7.19705 30.5745 7.21717 30.4557 7.25741C30.337 7.29765 30.2386 7.35446 30.1571 7.42902C30.0791 7.49885 30.0179 7.58643 29.9771 7.68703C29.9399 7.78764 29.9195 7.89534 29.9195 8.00896C29.9195 8.17347 29.9639 8.32141 30.0527 8.44213C30.1379 8.5664 30.2566 8.6741 30.403 8.77115C30.5529 8.86465 30.7196 8.95223 30.9068 9.03627C31.0903 9.1203 31.281 9.21025 31.4778 9.30138C31.6721 9.39488 31.8616 9.50258 32.0451 9.61975C32.2323 9.74047 32.399 9.88131 32.5454 10.0458C32.6917 10.2139 32.8105 10.4044 32.8992 10.6293C32.988 10.8542 33.0324 11.1157 33.0324 11.4211L33.03 11.4187Z" fill="#5A5A5A"/>
</g>
<defs>
<clipPath id="clip0_761_33519">
<rect width="54" height="54" fill="white" transform="translate(0 0.201172)"/>
</clipPath>
</defs>
</svg>
