<svg width="1440" height="597" viewBox="0 0 1440 597" fill="none" xmlns="http://www.w3.org/2000/svg">
<g clip-path="url(#clip0_848_2387)">
<rect width="1440" height="597" fill="#84BCF7"/>
<rect x="732" y="49" width="24" height="24" rx="12" transform="rotate(90 732 49)" fill="black"/>
<path d="M725.5 60L720 65L714.5 60" stroke="white" stroke-width="2" stroke-miterlimit="10" stroke-linecap="square"/>
<path d="M556.698 104.384H562.33V107.84H556.698V104.384ZM561.178 97.216H565.434V114.816H561.178V97.216ZM555.386 115.456C561.658 115.456 565.53 117.6 565.53 121.184C565.53 124.8 561.658 126.88 555.386 126.88C549.114 126.88 545.242 124.8 545.242 121.184C545.242 117.6 549.114 115.456 555.386 115.456ZM555.386 118.688C551.546 118.688 549.498 119.488 549.498 121.184C549.498 122.848 551.546 123.648 555.386 123.648C559.258 123.648 561.306 122.848 561.306 121.184C561.306 119.488 559.258 118.688 555.386 118.688ZM547.482 100.192H550.938V102.048C550.938 107.712 548.314 112.896 542.65 114.816L540.474 111.456C545.37 109.792 547.482 105.856 547.482 102.048V100.192ZM548.378 100.192H551.802V102.048C551.802 105.536 553.818 109.152 558.49 110.72L556.41 114.08C550.906 112.256 548.378 107.328 548.378 102.048V100.192ZM541.626 99.008H557.562V102.4H541.626V99.008ZM569.432 114.272H596.28V117.632H569.432V114.272ZM580.632 115.968H584.856V126.848H580.632V115.968ZM572.504 98.336H576.728V101.696H588.888V98.336H593.112V111.456H572.504V98.336ZM576.728 105.024V108.064H588.888V105.024H576.728ZM599.605 130.848L598.645 128.288C601.141 127.36 602.517 125.664 602.485 123.776L602.325 120.448L603.989 123.2C603.509 123.68 602.869 123.904 602.165 123.904C600.629 123.904 599.221 122.88 599.221 121.12C599.221 119.424 600.597 118.336 602.293 118.336C604.437 118.336 605.653 120.064 605.653 122.944C605.653 126.72 603.509 129.568 599.605 130.848ZM614.67 124V121.312C621.134 115.52 624.91 111.072 624.91 107.424C624.91 105.056 623.662 103.584 621.39 103.584C619.63 103.584 618.254 104.704 617.038 106.048L614.446 103.488C616.622 101.152 618.766 99.904 621.998 99.904C626.446 99.904 629.454 102.752 629.454 107.168C629.454 111.488 625.87 116.096 621.55 120.32C622.734 120.192 624.302 120.032 625.422 120.032H630.542V124H614.67ZM634.153 124V120.192H639.273V105.216H634.953V102.304C637.353 101.856 638.953 101.248 640.489 100.32H643.977V120.192H648.425V124H634.153ZM671.62 97.216H675.876V119.008H671.62V97.216ZM664.452 100.512H673.06V103.84H664.452V100.512ZM656.292 122.944H676.548V126.336H656.292V122.944ZM656.292 117.056H660.58V124.672H656.292V117.056ZM652.708 99.104H656.932V113.024H652.708V99.104ZM652.708 111.744H655.076C659.364 111.744 663.172 111.552 667.396 110.816L667.78 114.24C663.428 115.04 659.524 115.2 655.076 115.2H652.708V111.744ZM664.452 106.016H673.06V109.376H664.452V106.016ZM680.737 99.648H694.849V113.952H680.737V99.648ZM690.657 103.008H684.929V110.592H690.657V103.008ZM698.945 97.216H703.201V118.816H698.945V97.216ZM701.985 105.76H707.137V109.248H701.985V105.76ZM684.097 122.944H704.257V126.336H684.097V122.944ZM684.097 116.704H688.353V124.64H684.097V116.704ZM720.511 108.128H725.375V111.552H720.511V108.128ZM730.079 97.216H734.143V126.848H730.079V97.216ZM724.031 97.664H728.031V125.504H724.031V97.664ZM715.327 99.296C719.263 99.296 721.791 103.36 721.791 110.048C721.791 116.768 719.263 120.832 715.327 120.832C711.423 120.832 708.927 116.768 708.927 110.048C708.927 103.36 711.423 99.296 715.327 99.296ZM715.327 103.296C713.727 103.296 712.799 105.536 712.799 110.048C712.799 114.592 713.727 116.8 715.327 116.8C716.991 116.8 717.919 114.592 717.919 110.048C717.919 105.536 716.991 103.296 715.327 103.296ZM745.55 99.872H759.79V119.808H745.55V99.872ZM755.63 103.2H749.742V116.448H755.63V103.2ZM764.398 97.184H768.686V126.912H764.398V97.184ZM773.676 116.8H775.756C779.276 116.8 782.38 116.736 786.028 116.16L786.348 119.584C782.572 120.224 779.372 120.32 775.756 120.32H773.676V116.8ZM773.644 100.096H784.876V111.552H777.804V118.08H773.676V108.192H780.748V103.488H773.644V100.096ZM794.284 97.216H798.316V126.848H794.284V97.216ZM790.316 108.416H795.244V111.808H790.316V108.416ZM787.66 97.728H791.596V125.44H787.66V97.728ZM801.673 110.496H828.521V113.6H801.673V110.496ZM804.681 115.072H825.321V122.112H808.969V124.64H804.745V119.424H821.129V117.952H804.681V115.072ZM804.745 123.744H826.153V126.624H804.745V123.744ZM804.969 97.728H825.257V104.704H809.225V107.136H805.001V102.048H821.065V100.576H804.969V97.728ZM805.001 106.24H825.801V109.12H805.001V106.24ZM846.681 98.4C851.193 98.4 854.457 100.992 854.457 104.736C854.457 108.416 851.193 111.072 846.681 111.072C842.201 111.072 838.937 108.416 838.937 104.736C838.937 100.992 842.201 98.4 846.681 98.4ZM846.681 101.856C844.537 101.856 843.001 102.88 843.001 104.736C843.001 106.56 844.537 107.584 846.681 107.584C848.857 107.584 850.393 106.56 850.393 104.736C850.393 102.88 848.857 101.856 846.681 101.856ZM844.697 114.016H848.953V125.952H844.697V114.016ZM857.657 97.216H861.881V126.848H857.657V97.216ZM837.689 116.256L837.177 112.8C842.361 112.8 849.689 112.736 855.961 111.776L856.249 114.88C849.817 116.16 842.809 116.224 837.689 116.256ZM884.95 97.248H889.206V119.392H884.95V97.248ZM887.99 106.272H893.142V109.76H887.99V106.272ZM865.878 100.32H883.318V103.648H865.878V100.32ZM874.614 104.704C878.87 104.704 881.878 107.04 881.878 110.432C881.878 113.824 878.87 116.128 874.614 116.128C870.326 116.128 867.318 113.824 867.318 110.432C867.318 107.04 870.326 104.704 874.614 104.704ZM874.614 107.936C872.726 107.936 871.414 108.832 871.414 110.432C871.414 112.032 872.726 112.896 874.614 112.896C876.502 112.896 877.814 112.032 877.814 110.432C877.814 108.832 876.502 107.936 874.614 107.936ZM872.47 97.184H876.726V101.952H872.47V97.184ZM870.102 122.944H890.262V126.336H870.102V122.944ZM870.102 117.728H874.358V124.416H870.102V117.728ZM562.46 144.816H565.948V147.44C565.948 153.328 563.388 158.512 557.756 160.464L555.484 157.104C560.444 155.44 562.46 151.472 562.46 147.44V144.816ZM563.324 144.816H566.78V147.856C566.78 151.408 568.764 154.864 573.404 156.304L571.196 159.6C565.852 157.808 563.324 153.2 563.324 147.856V144.816ZM575.036 143.216H579.292V160.72H575.036V143.216ZM578.108 150.064H583.228V153.584H578.108V150.064ZM569.628 161.392C575.772 161.392 579.644 163.536 579.644 167.12C579.644 170.736 575.772 172.848 569.628 172.848C563.452 172.848 559.58 170.736 559.58 167.12C559.58 163.536 563.452 161.392 569.628 161.392ZM569.628 164.688C565.852 164.688 563.804 165.488 563.804 167.12C563.804 168.784 565.852 169.552 569.628 169.552C573.404 169.552 575.42 168.784 575.42 167.12C575.42 165.488 573.404 164.688 569.628 164.688ZM590.105 145.008H593.433V148.432C593.433 153.456 591.417 158.48 586.585 160.528L584.345 157.232C588.473 155.408 590.105 151.76 590.105 148.432V145.008ZM590.873 145.008H594.201V148.432C594.201 151.6 595.801 154.8 599.705 156.336L597.433 159.568C592.825 157.744 590.873 153.264 590.873 148.432V145.008ZM605.977 143.248H610.009V161.328H605.977V143.248ZM602.425 150.416H607.129V153.84H602.425V150.416ZM599.705 143.792H603.673V160.4H599.705V143.792ZM599.961 161.744C606.169 161.744 610.169 163.824 610.169 167.312C610.169 170.768 606.169 172.848 599.961 172.848C593.721 172.848 589.785 170.768 589.785 167.312C589.785 163.824 593.721 161.744 599.961 161.744ZM599.961 164.944C596.153 164.944 594.009 165.744 594.009 167.312C594.009 168.88 596.153 169.648 599.961 169.648C603.769 169.648 605.881 168.88 605.881 167.312C605.881 165.744 603.769 164.944 599.961 164.944ZM623.095 145.168C627.767 145.168 631.255 148.208 631.255 152.464C631.255 156.752 627.767 159.792 623.095 159.792C618.455 159.792 614.903 156.752 614.903 152.464C614.903 148.208 618.455 145.168 623.095 145.168ZM623.095 148.816C620.823 148.816 619.095 150.16 619.095 152.464C619.095 154.8 620.823 156.144 623.095 156.144C625.367 156.144 627.095 154.8 627.095 152.464C627.095 150.16 625.367 148.816 623.095 148.816ZM634.039 143.184H638.295V172.912H634.039V143.184ZM614.199 166.896L613.687 163.472C618.903 163.472 626.167 163.408 632.407 162.48L632.727 165.552C626.295 166.832 619.319 166.896 614.199 166.896ZM662.374 147.344H671.078V150.736H662.374V147.344ZM662.374 154.544H671.078V157.936H662.374V154.544ZM669.51 143.248H673.766V164.912H669.51V143.248ZM654.214 168.944H674.438V172.336H654.214V168.944ZM654.214 162.768H658.47V170.704H654.214V162.768ZM657.158 144.976C661.542 144.976 664.966 148.176 664.966 152.656C664.966 157.072 661.542 160.304 657.158 160.304C652.742 160.304 649.318 157.072 649.318 152.656C649.318 148.176 652.742 144.976 657.158 144.976ZM657.158 148.72C654.982 148.72 653.382 150.192 653.382 152.656C653.382 155.12 654.982 156.592 657.158 156.592C659.302 156.592 660.934 155.12 660.934 152.656C660.934 150.192 659.302 148.72 657.158 148.72ZM681.06 144.528H699.844V147.92H681.06V144.528ZM677.796 155.184H704.612V158.576H677.796V155.184ZM697.284 144.528H701.476V146.896C701.476 149.456 701.476 152.208 700.58 156.048L696.356 155.984C697.284 152.144 697.284 149.424 697.284 146.896V144.528ZM680.932 161.68H701.348V172.528H680.932V161.68ZM697.156 164.976H685.092V169.168H697.156V164.976ZM727.873 143.216H731.937V172.848H727.873V143.216ZM724.129 154.384H729.025V157.776H724.129V154.384ZM715.297 146.832H719.361C719.361 155.184 716.929 161.936 708.641 166.768L706.177 163.824C712.929 159.824 715.297 154.832 715.297 147.728V146.832ZM707.681 146.832H716.545V150.256H707.681V146.832ZM721.313 143.984H725.281V171.568H721.313V143.984ZM735.455 145.744H751.711V149.072H735.455V145.744ZM743.775 150.096C747.743 150.096 750.719 152.464 750.719 155.76C750.719 159.056 747.743 161.424 743.775 161.424C739.807 161.424 736.831 159.056 736.831 155.76C736.831 152.464 739.807 150.096 743.775 150.096ZM743.775 153.296C742.047 153.296 740.799 154.192 740.799 155.76C740.799 157.328 742.047 158.224 743.775 158.224C745.503 158.224 746.783 157.328 746.783 155.76C746.783 154.192 745.503 153.296 743.775 153.296ZM741.663 142.96H745.919V148.112H741.663V142.96ZM755.903 143.216H760.159V162.064H755.903V143.216ZM752.095 149.84H757.503V153.2H752.095V149.84ZM751.999 155.536H757.439V158.928H751.999V155.536ZM739.967 163.408H760.159V172.848H755.903V166.768H739.967V163.408ZM783.228 143.216H787.484V164.752H783.228V143.216ZM786.268 151.696H791.42V155.184H786.268V151.696ZM768.38 168.944H788.54V172.336H768.38V168.944ZM768.38 162.512H772.636V170.448H768.38V162.512ZM772.412 145.104C776.956 145.104 780.476 148.272 780.476 152.656C780.476 157.008 776.956 160.176 772.412 160.176C767.868 160.176 764.348 157.008 764.348 152.656C764.348 148.272 767.868 145.104 772.412 145.104ZM772.412 148.816C770.236 148.816 768.508 150.224 768.508 152.656C768.508 155.056 770.236 156.464 772.412 156.464C774.62 156.464 776.316 155.056 776.316 152.656C776.316 150.224 774.62 148.816 772.412 148.816ZM820.876 143.216H824.94V172.848H820.876V143.216ZM817.004 154.64H821.932V158.032H817.004V154.64ZM814.252 143.728H818.22V171.44H814.252V143.728ZM800.716 146.48H804.972V163.6H800.716V146.48ZM800.716 162H802.764C805.612 162 808.94 161.84 812.62 161.136L813.036 164.784C809.164 165.488 805.772 165.648 802.764 165.648H800.716V162ZM830.761 160.752H852.681V163.92H830.761V160.752ZM831.785 149.072H852.329V152.368H831.785V149.072ZM828.361 154.48H855.209V157.808H828.361V154.48ZM831.785 143.664H836.009V151.088H831.785V143.664ZM839.785 150.352H844.041V156.016H839.785V150.352ZM841.705 164.752C847.401 164.752 850.761 166.192 850.761 168.816C850.761 171.44 847.401 172.848 841.705 172.848C836.009 172.848 832.649 171.44 832.649 168.816C832.649 166.192 836.009 164.752 841.705 164.752ZM841.705 167.632C838.697 167.632 837.161 167.92 837.161 168.816C837.161 169.68 838.697 170 841.705 170C844.713 170 846.249 169.68 846.249 168.816C846.249 167.92 844.713 167.632 841.705 167.632ZM839.593 158.704H843.849V162.672H839.593V158.704ZM865.095 145.264C869.607 145.264 872.871 149.36 872.871 155.824C872.871 162.352 869.607 166.448 865.095 166.448C860.583 166.448 857.319 162.352 857.319 155.824C857.319 149.36 860.583 145.264 865.095 145.264ZM865.095 149.136C862.887 149.136 861.415 151.472 861.415 155.824C861.415 160.24 862.887 162.608 865.095 162.608C867.303 162.608 868.807 160.24 868.807 155.824C868.807 151.472 867.303 149.136 865.095 149.136ZM876.103 143.216H880.391V172.848H876.103V143.216ZM879.431 154.384H884.679V157.904H879.431V154.384Z" fill="white"/>
<g clip-path="url(#clip1_848_2387)">
<g clip-path="url(#clip2_848_2387)">
<path d="M503.18 215.98C503.18 210.18 497.54 205.48 490.5 205.3C490.87 203.92 491.07 202.48 491.07 201.01C491.07 189.88 480.04 180.87 466.43 180.87C462.97 180.87 459.67 181.46 456.68 182.51C454.11 166.52 437.39 154.18 417.13 154.18C395.09 154.18 377.23 168.79 377.23 186.81C377.23 187.27 377.25 187.73 377.27 188.19C365.21 189.04 355.75 197.31 355.75 207.39C355.75 218.04 366.31 226.67 379.33 226.67H491.07V226.63C497.84 226.23 503.18 221.62 503.18 215.98Z" fill="white"/>
<path d="M1303.99 219.68C1303.99 215.89 1300.3 212.81 1295.7 212.7C1295.94 211.8 1296.07 210.86 1296.07 209.89C1296.07 202.62 1288.86 196.72 1279.96 196.72C1277.69 196.72 1275.54 197.1 1273.58 197.79C1271.9 187.34 1260.97 179.27 1247.72 179.27C1233.31 179.27 1221.63 188.82 1221.63 200.6C1221.63 200.9 1221.64 201.2 1221.66 201.5C1213.77 202.06 1207.59 207.46 1207.59 214.06C1207.59 221.02 1214.49 226.67 1223.01 226.67H1296.07V226.64C1300.49 226.38 1303.99 223.37 1303.99 219.68Z" fill="white"/>
<path d="M296.461 162.17C296.461 157.66 292.071 154 286.591 153.86C286.881 152.78 287.031 151.67 287.031 150.52C287.031 141.86 278.451 134.84 267.861 134.84C265.161 134.84 262.601 135.3 260.271 136.12C258.271 123.68 245.261 114.07 229.491 114.07C212.341 114.07 198.441 125.44 198.441 139.46C198.441 139.82 198.461 140.18 198.471 140.53C189.081 141.19 181.721 147.63 181.721 155.48C181.721 163.77 189.941 170.49 200.071 170.49H287.031V170.46C292.301 170.15 296.461 166.56 296.461 162.17Z" fill="white"/>
<path d="M203.84 583.681C184.33 570.811 165.41 558.941 146.78 558.941C128.09 558.941 109.23 570.811 89.7202 583.681C76.3602 592.491 61.8002 596.891 47.2402 596.891H246.36C231.78 596.901 217.21 592.501 203.84 583.681Z" fill="#A7DF87"/>
<path d="M146.791 596.901H246.351C231.781 596.911 217.201 592.501 203.831 583.691C184.321 570.821 165.411 558.961 146.791 558.951V596.901Z" fill="#75CC62"/>
<path d="M1044.4 571.619C1044.4 571.619 1063.2 574.049 1063.2 548.039C1063.2 527.819 1054.48 515.249 1048.91 509.299C1046.48 506.689 1042.32 506.689 1039.89 509.299C1034.33 515.259 1025.6 527.819 1025.6 548.039C1025.6 574.049 1044.4 571.619 1044.4 571.619Z" fill="#75CC62"/>
<path d="M1063.19 548.04C1063.19 527.82 1054.47 515.25 1048.9 509.3C1047.68 508 1046.04 507.34 1044.39 507.34V571.62C1044.4 571.62 1063.19 574.05 1063.19 548.04Z" fill="#A7DF87"/>
<path d="M1046.61 559.02H1042.2V589.02H1046.61V559.02Z" fill="#AA7D57"/>
<path d="M1046.6 559.02H1044.4V589.02H1046.6V559.02Z" fill="#BF9773"/>
<path d="M322.21 296.051L331.84 308.701L341.46 296.051L351.08 308.701L360.71 296.051L370.33 308.701L379.96 296.051L389.58 308.701L399.21 296.051L408.85 308.701L418.49 296.051V296.901V418.021L408.86 405.371L399.24 418.021L389.62 405.371L379.99 418.021L370.37 405.371L360.74 418.021L351.12 405.371L341.49 418.021L331.85 405.371L322.21 418.021L318.75 300.261L322.21 296.051Z" fill="#DDDDDD"/>
<path d="M318.75 300.262L328.38 312.922L338 300.262L347.63 312.922L357.25 300.262L366.88 312.922L376.5 300.262L386.13 312.922L395.76 300.262L405.39 312.922L415.03 300.262V301.122V422.242L405.4 409.582L395.78 422.242L386.16 409.582L376.53 422.242L366.91 409.582L357.28 422.242L347.66 409.582L338.03 422.242L328.39 409.582L318.75 422.242V301.122V300.262Z" fill="white"/>
<path d="M342.439 376.17C342.829 376.17 343.169 376.26 343.469 376.45C343.769 376.64 343.989 376.95 344.129 377.4L345.999 383.89H349.949L351.849 377.04C351.949 376.66 352.169 376.42 352.489 376.3C352.819 376.18 353.149 376.16 353.499 376.22C353.909 376.29 354.209 376.44 354.399 376.68C354.589 376.92 354.639 377.23 354.539 377.6L352.609 383.88H355.309C355.569 383.88 355.759 383.95 355.879 384.1C355.989 384.25 356.049 384.43 356.049 384.65C356.049 384.87 355.989 385.06 355.879 385.2C355.769 385.35 355.579 385.42 355.309 385.42H352.179L349.789 393.42C349.649 393.86 349.419 394.18 349.099 394.37C348.779 394.56 348.449 394.65 348.099 394.65C347.729 394.65 347.389 394.55 347.069 394.35C346.749 394.15 346.529 393.83 346.409 393.39L344.109 385.42H340.649L338.259 393.42C338.119 393.86 337.879 394.18 337.559 394.37C337.229 394.56 336.899 394.65 336.549 394.65C336.199 394.65 335.869 394.55 335.539 394.35C335.209 394.15 334.989 393.83 334.869 393.39L332.449 385.42H329.349C329.079 385.42 328.889 385.35 328.779 385.2C328.669 385.06 328.609 384.87 328.609 384.65C328.609 384.43 328.669 384.24 328.779 384.1C328.889 383.96 329.079 383.88 329.349 383.88H332.019L330.149 377.6C330.029 377.22 330.069 376.92 330.269 376.68C330.469 376.44 330.779 376.29 331.189 376.22C331.539 376.13 331.869 376.15 332.199 376.27C332.529 376.39 332.739 376.65 332.839 377.04L334.739 383.89H338.789L340.749 377.4C340.889 376.96 341.109 376.64 341.389 376.45C341.689 376.27 342.029 376.17 342.439 376.17ZM338.339 385.43H335.179L336.709 390.79L338.339 385.43ZM343.669 383.89L342.439 379.61L341.119 383.89H343.669ZM349.519 385.43H346.459L348.019 390.79L349.519 385.43Z" fill="#ADADAD"/>
<path d="M329.4 348.83H404.39" stroke="#ADADAD" stroke-width="2.5" stroke-miterlimit="10" stroke-linecap="round" stroke-linejoin="round"/>
<path d="M329.4 363.631H404.39" stroke="#ADADAD" stroke-width="2.5" stroke-miterlimit="10" stroke-linecap="round" stroke-linejoin="round"/>
<path d="M363.26 390.09H404.39" stroke="#ADADAD" stroke-width="2.5" stroke-miterlimit="10" stroke-linecap="round" stroke-linejoin="round"/>
<path d="M1252.55 576.89C1218.3 557.4 1185.1 539.42 1152.4 539.42C1119.6 539.42 1086.5 557.4 1052.25 576.89C1028.81 590.23 1003.25 596.9 977.701 596.9H1327.18C1301.6 596.91 1276.02 590.24 1252.55 576.89Z" fill="#A7DF87"/>
<path d="M1152.43 596.9H1327.17C1301.59 596.91 1276.01 590.24 1252.55 576.89C1218.31 557.41 1185.13 539.44 1152.44 539.42V596.9H1152.43Z" fill="#75CC62"/>
<path d="M441.091 596.831H303.931C301.271 596.831 299.111 594.671 299.111 592.011V408.601C299.111 405.941 301.271 403.781 303.931 403.781H441.091C443.751 403.781 445.911 405.941 445.911 408.601V592.011C445.911 594.671 443.751 596.831 441.091 596.831Z" fill="#AAA388"/>
<path d="M433.951 596.831H296.791C294.131 596.831 291.971 594.671 291.971 592.011V408.601C291.971 405.941 294.131 403.781 296.791 403.781H433.951C436.611 403.781 438.771 405.941 438.771 408.601V592.011C438.771 594.671 436.611 596.831 433.951 596.831Z" fill="#C6BA9E"/>
<path d="M329.96 512.261H311.84C310.27 512.261 309 510.991 309 509.421V491.301C309 489.731 310.27 488.461 311.84 488.461H329.96C331.53 488.461 332.8 489.731 332.8 491.301V509.421C332.8 510.991 331.53 512.261 329.96 512.261Z" fill="#CCB38F"/>
<path d="M361.71 512.261H343.6C342.03 512.261 340.76 510.991 340.76 509.421V491.301C340.76 489.731 342.03 488.461 343.6 488.461H361.72C363.29 488.461 364.56 489.731 364.56 491.301V509.421C364.55 510.991 363.28 512.261 361.71 512.261Z" fill="#CCB38F"/>
<path d="M393.46 512.261H375.34C373.77 512.261 372.5 510.991 372.5 509.421V491.301C372.5 489.731 373.77 488.461 375.34 488.461H393.46C395.03 488.461 396.3 489.731 396.3 491.301V509.421C396.3 510.991 395.03 512.261 393.46 512.261Z" fill="#CCB38F"/>
<path d="M425.22 512.261H407.1C405.53 512.261 404.26 510.991 404.26 509.421V491.301C404.26 489.731 405.53 488.461 407.1 488.461H425.22C426.79 488.461 428.06 489.731 428.06 491.301V509.421C428.05 510.991 426.78 512.261 425.22 512.261Z" fill="#CCB38F"/>
<path d="M329.96 545.802H311.84C310.27 545.802 309 544.532 309 542.962V524.842C309 523.272 310.27 522.002 311.84 522.002H329.96C331.53 522.002 332.8 523.272 332.8 524.842V542.962C332.8 544.532 331.53 545.802 329.96 545.802Z" fill="#CCB38F"/>
<path d="M361.71 545.802H343.6C342.03 545.802 340.76 544.532 340.76 542.962V524.842C340.76 523.272 342.03 522.002 343.6 522.002H361.72C363.29 522.002 364.56 523.272 364.56 524.842V542.962C364.55 544.532 363.28 545.802 361.71 545.802Z" fill="#CCB38F"/>
<path d="M393.46 545.802H375.34C373.77 545.802 372.5 544.532 372.5 542.962V524.842C372.5 523.272 373.77 522.002 375.34 522.002H393.46C395.03 522.002 396.3 523.272 396.3 524.842V542.962C396.3 544.532 395.03 545.802 393.46 545.802Z" fill="#CCB38F"/>
<path d="M425.22 579.352H407.1C405.53 579.352 404.26 578.082 404.26 576.512V524.842C404.26 523.272 405.53 522.002 407.1 522.002H425.22C426.79 522.002 428.06 523.272 428.06 524.842V576.512C428.05 578.082 426.78 579.352 425.22 579.352Z" fill="#CCB38F"/>
<path d="M329.96 579.351H311.84C310.27 579.351 309 578.081 309 576.511V558.401C309 556.831 310.27 555.561 311.84 555.561H329.96C331.53 555.561 332.8 556.831 332.8 558.401V576.521C332.8 578.081 331.53 579.351 329.96 579.351Z" fill="#CCB38F"/>
<path d="M361.71 579.351H343.6C342.03 579.351 340.76 578.081 340.76 576.511V558.401C340.76 556.831 342.03 555.561 343.6 555.561H361.72C363.29 555.561 364.56 556.831 364.56 558.401V576.521C364.55 578.081 363.28 579.351 361.71 579.351Z" fill="#CCB38F"/>
<path d="M393.46 579.351H375.34C373.77 579.351 372.5 578.081 372.5 576.511V558.401C372.5 556.831 373.77 555.561 375.34 555.561H393.46C395.03 555.561 396.3 556.831 396.3 558.401V576.521C396.3 578.081 395.03 579.351 393.46 579.351Z" fill="#CCB38F"/>
<path d="M424.902 428.262H305.852V470.452H424.902V428.262Z" fill="white"/>
<path d="M326.8 512.2H308.68C307.11 512.2 305.84 510.93 305.84 509.36V491.24C305.84 489.67 307.11 488.4 308.68 488.4H326.8C328.37 488.4 329.64 489.67 329.64 491.24V509.36C329.64 510.93 328.37 512.2 326.8 512.2Z" fill="#E8D6B1"/>
<path d="M358.55 512.2H340.43C338.86 512.2 337.59 510.93 337.59 509.36V491.24C337.59 489.67 338.86 488.4 340.43 488.4H358.55C360.12 488.4 361.39 489.67 361.39 491.24V509.36C361.39 510.93 360.12 512.2 358.55 512.2Z" fill="#E8D6B1"/>
<path d="M390.3 512.2H372.18C370.61 512.2 369.34 510.93 369.34 509.36V491.24C369.34 489.67 370.61 488.4 372.18 488.4H390.3C391.87 488.4 393.14 489.67 393.14 491.24V509.36C393.14 510.93 391.87 512.2 390.3 512.2Z" fill="#E8D6B1"/>
<path d="M422.062 512.2H403.942C402.372 512.2 401.102 510.93 401.102 509.36V491.24C401.102 489.67 402.372 488.4 403.942 488.4H422.062C423.632 488.4 424.902 489.67 424.902 491.24V509.36C424.892 510.93 423.622 512.2 422.062 512.2Z" fill="#E8D6B1"/>
<path d="M326.8 545.751H308.68C307.11 545.751 305.84 544.481 305.84 542.911V524.791C305.84 523.221 307.11 521.951 308.68 521.951H326.8C328.37 521.951 329.64 523.221 329.64 524.791V542.911C329.64 544.481 328.37 545.751 326.8 545.751Z" fill="#E8D6B1"/>
<path d="M358.55 545.751H340.43C338.86 545.751 337.59 544.481 337.59 542.911V524.791C337.59 523.221 338.86 521.951 340.43 521.951H358.55C360.12 521.951 361.39 523.221 361.39 524.791V542.911C361.39 544.481 360.12 545.751 358.55 545.751Z" fill="#E8D6B1"/>
<path d="M390.3 545.751H372.18C370.61 545.751 369.34 544.481 369.34 542.911V524.791C369.34 523.221 370.61 521.951 372.18 521.951H390.3C391.87 521.951 393.14 523.221 393.14 524.791V542.911C393.14 544.481 391.87 545.751 390.3 545.751Z" fill="#E8D6B1"/>
<path d="M422.062 579.301H403.942C402.372 579.301 401.102 578.031 401.102 576.461V524.791C401.102 523.221 402.372 521.951 403.942 521.951H422.062C423.632 521.951 424.902 523.221 424.902 524.791V576.461C424.892 578.031 423.622 579.301 422.062 579.301Z" fill="#E8D6B1"/>
<path d="M326.8 579.302H308.68C307.11 579.302 305.84 578.032 305.84 576.462V558.342C305.84 556.772 307.11 555.502 308.68 555.502H326.8C328.37 555.502 329.64 556.772 329.64 558.342V576.462C329.64 578.032 328.37 579.302 326.8 579.302Z" fill="#E8D6B1"/>
<path d="M358.55 579.302H340.43C338.86 579.302 337.59 578.032 337.59 576.462V558.342C337.59 556.772 338.86 555.502 340.43 555.502H358.55C360.12 555.502 361.39 556.772 361.39 558.342V576.462C361.39 578.032 360.12 579.302 358.55 579.302Z" fill="#E8D6B1"/>
<path d="M390.3 579.302H372.18C370.61 579.302 369.34 578.032 369.34 576.462V558.342C369.34 556.772 370.61 555.502 372.18 555.502H390.3C391.87 555.502 393.14 556.772 393.14 558.342V576.462C393.14 578.032 391.87 579.302 390.3 579.302Z" fill="#E8D6B1"/>
<path d="M376.65 458.962H372.4V443.522H369.01V439.812H376.65V458.962Z" fill="#E8D6B1"/>
<path d="M395.691 445.301C395.691 447.301 394.731 449.011 391.371 452.491L388.621 455.331H396.071V458.951H382.371V456.511L388.651 450.051C390.951 447.681 391.491 446.431 391.491 445.351C391.491 443.941 390.711 443.001 388.861 443.001C387.121 443.001 386.181 444.411 386.181 445.871H381.971C381.971 442.111 384.811 439.291 388.861 439.291C393.151 439.291 395.691 441.821 395.691 445.301Z" fill="#E8D6B1"/>
<path d="M413.149 445.042C413.149 447.252 411.529 448.872 409.929 449.152C411.689 449.432 413.669 450.962 413.669 453.432C413.669 457.122 410.539 459.422 406.569 459.422C402.359 459.422 399.749 457.072 399.449 453.382H403.659C403.819 454.912 404.789 455.822 406.569 455.822C408.329 455.822 409.509 454.862 409.509 453.442C409.509 451.842 408.169 451.002 406.169 451.002H404.269V447.522H406.169C407.909 447.522 408.939 446.582 408.939 445.122C408.939 443.712 407.999 442.842 406.399 442.842C404.729 442.842 403.959 444.182 403.959 445.542H399.749C399.749 441.902 402.499 439.262 406.429 439.262C410.399 439.292 413.149 441.612 413.149 445.042Z" fill="#E8D6B1"/>
<path d="M214.489 498.193H296.109V481.563H214.489V498.193Z" fill="#FFCB51"/>
<path d="M289.979 498.193H296.109V481.563H289.979V498.193Z" fill="#EFA748"/>
<path d="M272.637 498.193H281.707V481.563H272.637V498.193Z" fill="#FFD788"/>
<path d="M214.492 498.193H239.482V481.563H214.492V498.193Z" fill="#EFA748"/>
<path d="M214.489 498.197H296.109V495.897H214.489V498.197Z" fill="#D88F39"/>
<path d="M219.941 514.633H301.561V498.003H219.941V514.633Z" fill="#FFCB51"/>
<path d="M295.431 514.633H301.561V498.003H295.431V514.633Z" fill="#EFA748"/>
<path d="M278.088 514.633H287.158V498.003H278.088V514.633Z" fill="#FFD788"/>
<path d="M219.944 514.633H244.934V498.003H219.944V514.633Z" fill="#EFA748"/>
<path d="M219.941 514.637H301.561V512.337H219.941V514.637Z" fill="#D88F39"/>
<path d="M229.485 531.072H311.105V514.442H229.485V531.072Z" fill="#FFCB51"/>
<path d="M304.975 531.072H311.105V514.442H304.975V531.072Z" fill="#EFA748"/>
<path d="M287.623 531.072H296.693V514.442H287.623V531.072Z" fill="#FFD788"/>
<path d="M229.489 531.072H254.479V514.442H229.489V531.072Z" fill="#EFA748"/>
<path d="M229.485 531.076H311.105V528.776H229.485V531.076Z" fill="#D88F39"/>
<path d="M214.489 547.521H296.109V530.891H214.489V547.521Z" fill="#FFCB51"/>
<path d="M289.979 547.521H296.109V530.891H289.979V547.521Z" fill="#EFA748"/>
<path d="M272.637 547.521H281.707V530.891H272.637V547.521Z" fill="#FFD788"/>
<path d="M214.492 547.521H239.482V530.891H214.492V547.521Z" fill="#EFA748"/>
<path d="M214.489 547.516H296.109V545.216H214.489V547.516Z" fill="#D88F39"/>
<path d="M224.943 563.961H306.562V547.331H224.943V563.961Z" fill="#FFCB51"/>
<path d="M300.432 563.961H306.562V547.331H300.432V563.961Z" fill="#EFA748"/>
<path d="M283.08 563.961H292.15V547.331H283.08V563.961Z" fill="#FFD788"/>
<path d="M224.946 563.961H249.936V547.331H224.946V563.961Z" fill="#EFA748"/>
<path d="M224.943 563.955H306.562V561.655H224.943V563.955Z" fill="#D88F39"/>
<path d="M218.814 580.398H300.434V563.768H218.814V580.398Z" fill="#FFCB51"/>
<path d="M294.304 580.398H300.434V563.768H294.304V580.398Z" fill="#EFA748"/>
<path d="M276.952 580.398H286.021V563.768H276.952V580.398Z" fill="#FFD788"/>
<path d="M218.817 580.398H243.807V563.768H218.817V580.398Z" fill="#EFA748"/>
<path d="M218.814 580.393H300.434V578.093H218.814V580.393Z" fill="#D88F39"/>
<path d="M224.943 596.838H306.562V580.208H224.943V596.838Z" fill="#FFCB51"/>
<path d="M300.432 596.838H306.562V580.208H300.432V596.838Z" fill="#EFA748"/>
<path d="M283.08 596.838H292.15V580.208H283.08V596.838Z" fill="#FFD788"/>
<path d="M224.946 596.838H249.936V580.208H224.946V596.838Z" fill="#EFA748"/>
<path d="M224.943 596.832H306.562V594.532H224.943V596.832Z" fill="#D88F39"/>
<path d="M253.931 562.309C259.988 537.911 245.118 513.222 220.72 507.166C196.322 501.11 171.633 515.979 165.577 540.378C159.521 564.776 174.39 589.464 198.788 595.52C223.187 601.577 247.875 586.707 253.931 562.309Z" fill="#D88F39"/>
<path d="M234.839 583.547C252.615 565.77 252.615 536.949 234.839 519.172C217.062 501.396 188.241 501.396 170.465 519.172C152.688 536.949 152.688 565.77 170.465 583.547C188.241 601.323 217.062 601.323 234.839 583.547Z" fill="#FFCB51"/>
<path d="M163.9 551.362C163.9 529.992 181.29 512.602 202.66 512.602C224.03 512.602 241.42 529.992 241.42 551.362C241.42 572.732 224.03 590.122 202.66 590.122C181.29 590.122 163.9 572.732 163.9 551.362ZM166.19 551.362C166.19 571.472 182.55 587.832 202.66 587.832C222.77 587.832 239.13 571.472 239.13 551.362C239.13 531.252 222.77 514.892 202.66 514.892C182.55 514.902 166.19 531.252 166.19 551.362Z" fill="#EFA748"/>
<path d="M230.259 552.953H222.699L217.569 572.393H212.959L208.019 552.953H202.219L197.279 572.393H192.669L187.539 552.953H179.979V549.003H186.489L182.639 534.312H187.489L191.099 549.003H199.039L202.749 534.312H207.689L211.439 549.003H219.379L222.989 534.312H227.599L223.749 549.003H230.259V552.953ZM198.039 552.953H192.099L195.049 564.932L198.039 552.953ZM207.019 549.013L205.119 541.453L203.219 549.013H207.019ZM218.429 552.953H212.439L215.479 564.982L218.429 552.953Z" fill="#EFA748"/>
<path d="M227.8 550.962H220.24L215.11 570.402H210.5L205.56 550.962H199.76L194.82 570.402H190.21L185.08 550.962H177.52V547.012H184.03L180.18 532.322H185.03L188.64 547.012H196.58L200.29 532.322H205.23L208.98 547.012H216.92L220.53 532.322H225.14L221.29 547.012H227.8V550.962ZM195.58 550.962H189.64L192.59 562.942L195.58 550.962ZM204.56 547.012L202.66 539.452L200.76 547.012H204.56ZM215.97 550.962H209.98L213.02 562.992L215.97 550.962Z" fill="#FFD788"/>
<path d="M1150.84 461.551C1150.84 461.551 1137.05 452.271 1114.43 455.361L1138.21 491.451" fill="#CE572E"/>
<path d="M1109.67 464.211L1127.62 491.451H1138.21L1114.43 455.361C1109.89 455.371 1107.17 460.421 1109.67 464.211Z" fill="#BF4528"/>
<path d="M1227.41 583.402L1231.72 596.902H1259.97L1273.67 572.002C1276.41 567.022 1279.42 562.192 1282.49 557.412C1290.58 544.802 1294.97 529.692 1292.81 509.452C1286.14 447.122 1209.22 449.882 1209.22 449.882C1209.22 449.882 1121.11 444.132 1102.91 506.392L1095.79 509.702V545.342H1107.52C1107.52 545.342 1116.21 568.372 1148.81 578.802L1158.81 596.892H1187.93V585.312C1187.92 585.322 1213.89 586.692 1227.41 583.402Z" fill="#E16635"/>
<path d="M1120.04 503.011C1120.04 506.181 1121.93 508.741 1124.26 508.741C1126.59 508.741 1128.48 506.171 1128.48 503.011C1128.48 499.841 1126.59 497.281 1124.26 497.281C1121.93 497.281 1120.04 499.841 1120.04 503.011Z" fill="#BF4528"/>
<path d="M1093.86 527.521C1093.86 517.681 1094.72 509.701 1095.78 509.701C1096.84 509.701 1097.7 517.681 1097.7 527.521C1097.7 537.361 1096.84 545.341 1095.78 545.341C1094.72 545.341 1093.86 537.361 1093.86 527.521Z" fill="#BF4528"/>
<path d="M1150.84 463.222C1150.84 463.222 1139.18 455.372 1120.04 457.992L1140.15 488.522" fill="#E16635"/>
<path d="M1116.01 465.472L1131.19 488.512H1140.15L1120.04 457.982C1116.2 457.992 1113.9 462.262 1116.01 465.472Z" fill="#CE572E"/>
<path d="M1172.2 472.981H1244.11C1245.55 472.981 1246.71 471.821 1246.71 470.381C1246.71 468.941 1245.55 467.781 1244.11 467.781H1172.2C1170.76 467.781 1169.6 468.941 1169.6 470.381C1169.6 471.821 1170.76 472.981 1172.2 472.981Z" fill="#BF4528"/>
<path d="M1214.6 470.382C1237.34 470.382 1255.78 451.945 1255.78 429.202C1255.78 406.458 1237.34 388.021 1214.6 388.021C1191.86 388.021 1173.42 406.458 1173.42 429.202C1173.42 451.945 1191.86 470.382 1214.6 470.382Z" fill="#D88F39"/>
<path d="M1208.15 470.382C1230.89 470.382 1249.33 451.945 1249.33 429.202C1249.33 406.458 1230.89 388.021 1208.15 388.021C1185.41 388.021 1166.97 406.458 1166.97 429.202C1166.97 451.945 1185.41 470.382 1208.15 470.382Z" fill="#FFCB51"/>
<path d="M1208.15 464.132C1188.89 464.132 1173.22 448.462 1173.22 429.202C1173.22 409.942 1188.89 394.271 1208.15 394.271C1227.41 394.271 1243.08 409.942 1243.08 429.202C1243.08 448.472 1227.41 464.132 1208.15 464.132ZM1208.15 396.081C1189.88 396.081 1175.02 410.941 1175.02 429.211C1175.02 447.481 1189.88 462.341 1208.15 462.341C1226.42 462.341 1241.28 447.481 1241.28 429.211C1241.28 410.941 1226.42 396.081 1208.15 396.081Z" fill="#EFA748"/>
<path d="M1233.13 430.641H1226.29L1221.65 448.231H1217.48L1213.01 430.641H1207.76L1203.29 448.231H1199.12L1194.48 430.641H1187.64V427.071H1193.53L1190.05 413.781H1194.44L1197.71 427.071H1204.89L1208.24 413.781H1212.71L1216.11 427.071H1223.29L1226.56 413.781H1230.73L1227.25 427.071H1233.14V430.641H1233.13ZM1203.97 430.641H1198.59L1201.26 441.481L1203.97 430.641ZM1212.1 427.071L1210.38 420.231L1208.66 427.071H1212.1ZM1222.42 430.641H1217L1219.75 441.521L1222.42 430.641Z" fill="#EFA748"/>
<path d="M1230.9 428.842H1224.06L1219.42 446.432H1215.25L1210.78 428.842H1205.53L1201.06 446.432H1196.89L1192.25 428.842H1185.41V425.272H1191.3L1187.82 411.982H1192.21L1195.48 425.272H1202.66L1206.01 411.982H1210.48L1213.88 425.272H1221.06L1224.33 411.982H1228.5L1225.02 425.272H1230.91V428.842H1230.9ZM1201.75 428.842H1196.37L1199.04 439.682L1201.75 428.842ZM1209.87 425.272L1208.15 418.432L1206.43 425.272H1209.87ZM1220.19 428.842H1214.77L1217.52 439.722L1220.19 428.842Z" fill="#FFD788"/>
<path d="M1292.81 509.452C1290.75 490.242 1282.02 477.232 1270.93 468.402C1282.1 490.882 1278.84 519.502 1261.93 538.832C1251.07 551.252 1236.23 559.592 1220.72 565.002C1197.98 572.932 1173.39 577.102 1148.74 578.792C1148.76 578.802 1148.78 578.802 1148.8 578.812L1158.8 596.902H1187.92V585.322C1187.92 585.322 1213.89 586.692 1227.41 583.402L1231.72 596.902H1259.97L1273.67 572.002C1276.41 567.022 1279.42 562.192 1282.49 557.412C1290.58 544.802 1294.97 529.692 1292.81 509.452Z" fill="#CE572E"/>
<path d="M429.87 386.682H424.9L478.75 596.902H483.71L429.87 386.682Z" fill="#3F3F3F"/>
<path d="M476.921 386.682H471.951L525.791 596.902H530.761L476.921 386.682Z" fill="#3F3F3F"/>
<path d="M522.061 568.352H473.951V571.182H522.061V568.352Z" fill="#3F3F3F"/>
<path d="M516.141 546.092H468.031V548.922H516.141V546.092Z" fill="#3F3F3F"/>
<path d="M510.231 523.832H462.121V526.662H510.231V523.832Z" fill="#3F3F3F"/>
<path d="M504.311 501.572H456.201V504.402H504.311V501.572Z" fill="#3F3F3F"/>
<path d="M498.401 479.242H450.291V482.072H498.401V479.242Z" fill="#3F3F3F"/>
<path d="M492.481 456.912H444.371V459.742H492.481V456.912Z" fill="#3F3F3F"/>
<path d="M486.571 434.582H438.461V437.412H486.571V434.582Z" fill="#3F3F3F"/>
<path d="M480.651 412.242H432.541V415.072H480.651V412.242Z" fill="#3F3F3F"/>
<path d="M530.14 586.211C512.17 575.801 494.75 566.201 477.59 566.201C460.38 566.201 443.01 575.801 425.04 586.211C412.74 593.331 399.33 596.901 385.92 596.901H569.3C555.88 596.901 542.46 593.341 530.14 586.211Z" fill="#A7DF87"/>
<path d="M477.609 596.901H569.299C555.879 596.911 542.459 593.341 530.139 586.211C512.179 575.811 494.759 566.211 477.609 566.201V596.901Z" fill="#75CC62"/>
<path d="M795.19 580.202C768.12 563.932 741.89 548.932 716.04 548.932C690.12 548.932 663.961 563.932 636.891 580.202C618.361 591.332 598.17 596.902 577.98 596.902H854.17C833.95 596.912 813.73 591.342 795.19 580.202Z" fill="#A7DF87"/>
<path d="M716.071 596.902H854.161C833.951 596.912 813.731 591.342 795.181 580.202C768.121 563.942 741.901 548.942 716.061 548.932V596.902H716.071Z" fill="#75CC62"/>
<path d="M848.78 329.211H559.83V473.741H848.78V329.211Z" fill="#5EA560"/>
<path d="M842.13 329.211H553.18V473.741H842.13V329.211Z" fill="#76BD7B"/>
<path d="M830.071 367.991C814.861 367.991 802.521 355.661 802.511 340.451L592.681 340.651C592.681 340.661 592.681 340.671 592.681 340.671C592.681 355.881 580.351 368.221 565.141 368.231L565.201 434.961C565.211 434.961 565.221 434.961 565.221 434.961C580.441 434.961 592.771 447.291 592.781 462.501L802.611 462.301C802.611 462.291 802.611 462.271 802.611 462.261C802.611 447.051 814.941 434.711 830.151 434.701L830.091 367.991C830.091 367.991 830.081 367.991 830.071 367.991Z" stroke="#5EA560" stroke-width="3" stroke-miterlimit="10"/>
<path d="M697.649 451.011C725.004 451.011 747.179 428.836 747.179 401.481C747.179 374.127 725.004 351.951 697.649 351.951C670.295 351.951 648.119 374.127 648.119 401.481C648.119 428.836 670.295 451.011 697.649 451.011Z" fill="#93CE95"/>
<path d="M697.65 465.21C662.51 465.21 633.92 436.62 633.92 401.48C633.92 366.34 662.51 337.75 697.65 337.75C732.79 337.75 761.38 366.34 761.38 401.48C761.38 436.62 732.79 465.21 697.65 465.21ZM697.65 343.16C665.49 343.16 639.33 369.32 639.33 401.48C639.33 433.64 665.49 459.8 697.65 459.8C729.81 459.8 755.98 433.64 755.98 401.48C755.98 369.32 729.81 343.16 697.65 343.16Z" fill="white"/>
<path d="M734.13 400.891H723.17L715.72 429.101H709.03L701.86 400.891H693.45L686.28 429.101H679.59L672.14 400.891H661.17V395.171H670.62L665.03 373.861H672.06L677.3 395.171H688.82L694.2 373.861H701.37L706.82 395.171H718.34L723.58 373.861H730.27L724.68 395.171H734.13V400.891ZM687.38 400.891H678.76L683.04 418.271L687.38 400.891ZM700.41 395.171L697.65 384.211L694.89 395.171H700.41ZM716.96 400.891H708.27L712.68 418.341L716.96 400.891Z" fill="#5EA560"/>
<path d="M798.34 415.25C805.89 415.25 812.01 409.13 812.01 401.58C812.01 394.03 805.89 387.91 798.34 387.91C790.79 387.91 784.67 394.03 784.67 401.58C784.67 409.13 790.79 415.25 798.34 415.25Z" fill="#5EA560"/>
<path d="M596.959 415.25C604.509 415.25 610.629 409.13 610.629 401.58C610.629 394.03 604.509 387.91 596.959 387.91C589.409 387.91 583.289 394.03 583.289 401.58C583.289 409.13 589.409 415.25 596.959 415.25Z" fill="#5EA560"/>
<path d="M655.123 444.45L651.723 440.596L630.608 459.226L634.009 463.08L655.123 444.45Z" fill="white"/>
<path d="M636.723 466.146L627.91 456.158L566.337 510.489L575.149 520.476L636.723 466.146Z" fill="#007CBA"/>
<path d="M967.379 518.759C980.872 518.759 991.809 515.07 991.809 510.519C991.809 505.968 980.872 502.279 967.379 502.279C953.887 502.279 942.949 505.968 942.949 510.519C942.949 515.07 953.887 518.759 967.379 518.759Z" fill="#FFCB51"/>
<path d="M942.949 518.54C942.949 523.09 953.889 526.78 967.379 526.78C980.869 526.78 991.809 523.09 991.809 518.54V510.51C991.809 515.06 980.869 518.75 967.379 518.75C953.889 518.75 942.949 515.06 942.949 510.51V518.54Z" fill="#E5AE41"/>
<path d="M942.949 526.669C942.949 531.219 953.889 534.909 967.379 534.909C980.869 534.909 991.809 531.219 991.809 526.669V518.639C991.809 523.189 980.869 526.879 967.379 526.879C953.889 526.879 942.949 523.189 942.949 518.639V526.669Z" fill="#FFCB51"/>
<path d="M942.949 534.809C942.949 539.359 953.889 543.049 967.379 543.049C980.869 543.049 991.809 539.359 991.809 534.809V526.779C991.809 531.329 980.869 535.019 967.379 535.019C953.889 535.019 942.949 531.329 942.949 526.779V534.809Z" fill="#E5AE41"/>
<path d="M942.949 542.94C942.949 547.49 953.889 551.18 967.379 551.18C980.869 551.18 991.809 547.49 991.809 542.94V534.91C991.809 539.46 980.869 543.15 967.379 543.15C953.889 543.15 942.949 539.46 942.949 534.91V542.94Z" fill="#FFCB51"/>
<path d="M942.949 551.069C942.949 555.619 953.889 559.309 967.379 559.309C980.869 559.309 991.809 555.619 991.809 551.069V543.039C991.809 547.589 980.869 551.279 967.379 551.279C953.889 551.279 942.949 547.589 942.949 543.039V551.069Z" fill="#E5AE41"/>
<path d="M942.949 559.2C942.949 563.75 953.889 567.44 967.379 567.44C980.869 567.44 991.809 563.75 991.809 559.2V551.17C991.809 555.72 980.869 559.41 967.379 559.41C953.889 559.41 942.949 555.72 942.949 551.17V559.2Z" fill="#FFCB51"/>
<path d="M942.949 567.339C942.949 571.889 953.889 575.579 967.379 575.579C980.869 575.579 991.809 571.889 991.809 567.339V559.309C991.809 563.859 980.869 567.549 967.379 567.549C953.889 567.549 942.949 563.859 942.949 559.309V567.339Z" fill="#E5AE41"/>
<path d="M942.949 575.469C942.949 580.019 953.889 583.709 967.379 583.709C980.869 583.709 991.809 580.019 991.809 575.469V567.439C991.809 571.989 980.869 575.679 967.379 575.679C953.889 575.679 942.949 571.989 942.949 567.439V575.469Z" fill="#FFCB51"/>
<path d="M942.949 591.61C942.949 596.16 953.889 599.85 967.379 599.85C980.869 599.85 991.809 596.16 991.809 591.61V583.58C991.809 588.13 980.869 591.82 967.379 591.82C953.889 591.82 942.949 588.13 942.949 583.58V591.61Z" fill="#FFCB51"/>
<path d="M942.949 583.598C942.949 588.148 953.889 591.838 967.379 591.838C980.869 591.838 991.809 588.148 991.809 583.598V575.568C991.809 580.118 980.869 583.808 967.379 583.808C953.889 583.808 942.949 580.118 942.949 575.568V583.598Z" fill="#E5AE41"/>
<path d="M903.71 532.781H794.01V589.471H903.71V532.781Z" fill="#5EA560"/>
<path d="M903.71 575.621H794.01V582.761H903.71V575.621Z" fill="#68AD69"/>
<path d="M903.71 589.471H794.01V596.611H903.71V589.471Z" fill="#68AD69"/>
<path d="M903.71 561.34H794.01V568.48H903.71V561.34Z" fill="#68AD69"/>
<path d="M903.71 547.061H794.01V554.201H903.71V547.061Z" fill="#68AD69"/>
<path d="M903.71 532.781H794.01V539.921H903.71V532.781Z" fill="#68AD69"/>
<path d="M903.7 532.781H794.01L822.12 502.311H903.7V532.781Z" fill="#76BD7B"/>
<path d="M904.429 529.141H804.289L825.699 505.941H904.429V529.141ZM807.609 527.691H902.969V507.401H826.329L807.609 527.691Z" fill="#5EA560"/>
<path d="M860.27 532.781L888.38 502.311H869.64L841.52 532.781H860.27Z" fill="white"/>
<path d="M860.26 532.781H841.52V589.471H860.26V532.781Z" fill="#DDDDDD"/>
<path d="M839.429 517.981C841.249 516.191 840.199 514.541 837.079 514.301C833.959 514.061 829.959 515.321 828.139 517.111C826.319 518.901 827.369 520.551 830.489 520.791C833.609 521.031 837.609 519.771 839.429 517.981Z" fill="#5EA560"/>
<path d="M944.51 567.879C944.51 572.429 933.57 576.119 920.08 576.119C906.59 576.119 895.65 572.429 895.65 567.879V475.199H944.51V567.879Z" fill="#FFCB51"/>
<path d="M920.08 478.89C933.573 478.89 944.51 475.201 944.51 470.65C944.51 466.099 933.573 462.41 920.08 462.41C906.588 462.41 895.65 466.099 895.65 470.65C895.65 475.201 906.588 478.89 920.08 478.89Z" fill="#FFCB51"/>
<path d="M895.65 478.68C895.65 483.23 906.59 486.92 920.08 486.92C933.57 486.92 944.51 483.23 944.51 478.68V470.65C944.51 475.2 933.57 478.89 920.08 478.89C906.59 478.89 895.65 475.2 895.65 470.65V478.68Z" fill="#E5AE41"/>
<path d="M895.65 486.809C895.65 491.359 906.59 495.049 920.08 495.049C933.57 495.049 944.51 491.359 944.51 486.809V478.779C944.51 483.329 933.57 487.019 920.08 487.019C906.59 487.019 895.65 483.329 895.65 478.779V486.809Z" fill="#FFCB51"/>
<path d="M895.65 494.94C895.65 499.49 906.59 503.18 920.08 503.18C933.57 503.18 944.51 499.49 944.51 494.94V486.91C944.51 491.46 933.57 495.15 920.08 495.15C906.59 495.15 895.65 491.46 895.65 486.91V494.94Z" fill="#E5AE41"/>
<path d="M895.65 503.081C895.65 507.631 906.59 511.321 920.08 511.321C933.57 511.321 944.51 507.631 944.51 503.081V495.051C944.51 499.601 933.57 503.291 920.08 503.291C906.59 503.291 895.65 499.601 895.65 495.051V503.081Z" fill="#FFCB51"/>
<path d="M895.65 511.21C895.65 515.76 906.59 519.45 920.08 519.45C933.57 519.45 944.51 515.76 944.51 511.21V503.18C944.51 507.73 933.57 511.42 920.08 511.42C906.59 511.42 895.65 507.73 895.65 503.18V511.21Z" fill="#E5AE41"/>
<path d="M895.65 519.341C895.65 523.891 906.59 527.581 920.08 527.581C933.57 527.581 944.51 523.891 944.51 519.341V511.311C944.51 515.861 933.57 519.551 920.08 519.551C906.59 519.551 895.65 515.861 895.65 511.311V519.341Z" fill="#FFCB51"/>
<path d="M895.65 527.469C895.65 532.019 906.59 535.709 920.08 535.709C933.57 535.709 944.51 532.019 944.51 527.469V519.439C944.51 523.989 933.57 527.679 920.08 527.679C906.59 527.679 895.65 523.989 895.65 519.439V527.469Z" fill="#E5AE41"/>
<path d="M895.65 535.61C895.65 540.16 906.59 543.85 920.08 543.85C933.57 543.85 944.51 540.16 944.51 535.61V527.58C944.51 532.13 933.57 535.82 920.08 535.82C906.59 535.82 895.65 532.13 895.65 527.58V535.61Z" fill="#FFCB51"/>
<path d="M895.65 543.741C895.65 548.291 906.59 551.981 920.08 551.981C933.57 551.981 944.51 548.291 944.51 543.741V535.711C944.51 540.261 933.57 543.951 920.08 543.951C906.59 543.951 895.65 540.261 895.65 535.711V543.741Z" fill="#E5AE41"/>
<path d="M895.65 551.87C895.65 556.42 906.59 560.11 920.08 560.11C933.57 560.11 944.51 556.42 944.51 551.87V543.84C944.51 548.39 933.57 552.08 920.08 552.08C906.59 552.08 895.65 548.39 895.65 543.84V551.87Z" fill="#FFCB51"/>
<path d="M895.65 560.001C895.65 564.551 906.59 568.241 920.08 568.241C933.57 568.241 944.51 564.551 944.51 560.001V551.971C944.51 556.521 933.57 560.211 920.08 560.211C906.59 560.211 895.65 556.521 895.65 551.971V560.001Z" fill="#E5AE41"/>
<path d="M895.65 576.01C895.65 580.56 906.59 584.25 920.08 584.25C933.57 584.25 944.51 580.56 944.51 576.01V567.98C944.51 572.53 933.57 576.22 920.08 576.22C906.59 576.22 895.65 572.53 895.65 567.98V576.01Z" fill="#E5AE41"/>
<path d="M895.65 584.139C895.65 588.689 906.59 592.379 920.08 592.379C933.57 592.379 944.51 588.689 944.51 584.139V576.109C944.51 580.659 933.57 584.349 920.08 584.349C906.59 584.349 895.65 580.659 895.65 576.109V584.139Z" fill="#FFCB51"/>
<path d="M895.65 592.28C895.65 596.83 906.59 600.52 920.08 600.52C933.57 600.52 944.51 596.83 944.51 592.28V584.25C944.51 588.8 933.57 592.49 920.08 592.49C906.59 592.49 895.65 588.8 895.65 584.25V592.28Z" fill="#E5AE41"/>
<path d="M1362.64 588.251C1348.81 579.831 1335.41 572.061 1322.2 572.061C1308.96 572.061 1295.59 579.831 1281.76 588.251C1272.29 594.021 1261.98 596.901 1251.66 596.901H1392.77C1382.44 596.901 1372.11 594.021 1362.64 588.251Z" fill="#A7DF87"/>
<path d="M1322.21 596.901H1392.76C1382.43 596.911 1372.1 594.021 1362.63 588.251C1348.81 579.831 1335.41 572.061 1322.21 572.061V596.901Z" fill="#75CC62"/>
</g>
</g>
</g>
<defs>
<clipPath id="clip0_848_2387">
<rect width="1440" height="597" fill="white"/>
</clipPath>
<clipPath id="clip1_848_2387">
<rect width="1440" height="597" fill="white"/>
</clipPath>
<clipPath id="clip2_848_2387">
<rect width="1440" height="597" fill="white"/>
</clipPath>
</defs>
</svg>
