<svg width="361" height="163" viewBox="0 0 361 163" fill="none" xmlns="http://www.w3.org/2000/svg">
<rect x="11" y="0.201172" width="350" height="1" fill="#5A5A5A"/>
<path d="M21.208 32.2012H19.288V32.6492C19.288 32.9532 19.48 33.1292 19.864 33.1452C20.648 33.1772 22.616 33.1132 23.864 33.0172C24.2 32.9852 24.408 33.1612 24.408 33.4972V34.4412C24.408 34.7292 24.248 34.9212 23.88 34.9532C22.888 35.0492 20.616 35.0812 18.12 35.0812C15.88 35.0812 13.768 35.0652 12.376 34.9532C12.008 34.9212 11.848 34.7452 11.848 34.4412V33.4972C11.848 33.1612 12.04 32.9852 12.376 33.0172C13.576 33.1132 15.592 33.1452 17.32 33.1612C17.096 33.0652 16.968 32.8572 16.968 32.6012V32.2012H15.032C13.864 32.2012 13.288 31.7052 13.208 30.6332L12.968 27.4492C12.952 27.1452 13.144 26.9372 13.496 26.9372H14.76C15.128 26.9372 15.272 27.0652 15.304 27.4012L15.336 27.7692H20.904L20.936 27.4012C20.968 27.0652 21.128 26.9372 21.48 26.9372H22.744C23.096 26.9372 23.304 27.1292 23.272 27.4492L23.032 30.6332C22.952 31.7052 22.376 32.2012 21.208 32.2012ZM22.2 39.1612H23.208C23.544 39.1612 23.704 39.3372 23.704 39.6572V40.5052C23.704 40.8412 23.544 41.0012 23.208 41.0012H14.936C13.64 41.0012 12.936 40.3932 12.936 39.2572V36.5532C12.936 35.9612 13.224 35.6572 13.816 35.6572H21.432C22.76 35.6572 23.48 36.2332 23.48 37.2892C23.48 38.1372 23 38.8092 22.2 39.1612ZM20.152 39.0812C20.712 39.0812 21.16 38.6812 21.16 38.1852C21.16 37.7692 20.936 37.5772 20.472 37.5772H15.688C15.384 37.5772 15.256 37.7052 15.256 38.0092V38.4892C15.256 38.8572 15.512 39.0812 15.96 39.0812H20.152ZM15.464 29.5772L15.496 29.9932C15.512 30.2812 15.64 30.3932 15.992 30.3932H20.248C20.6 30.3932 20.728 30.2812 20.744 29.9932L20.776 29.5772H15.464ZM32.1624 30.5212C36.0504 30.5212 37.2344 31.3372 37.2344 33.2252C37.2344 34.9692 36.2584 35.8172 33.2024 35.9612V36.8732C33.2024 37.2892 33.3624 37.4492 33.8104 37.4652C34.5944 37.4972 36.5304 37.3852 37.7784 37.2252C38.1144 37.1772 38.3224 37.3692 38.3224 37.7052V38.8892C38.3224 39.1772 38.1624 39.3372 37.7944 39.4012C36.8024 39.5772 34.5304 39.6732 32.0344 39.6732C29.7944 39.6732 27.6824 39.5932 26.2904 39.4012C25.9224 39.3532 25.7624 39.1932 25.7624 38.8892V37.7052C25.7624 37.3692 25.9544 37.1932 26.2904 37.2252C27.4904 37.3372 29.4424 37.4812 31.2184 37.5132C30.9944 37.4012 30.8824 37.1772 30.8824 36.8412V35.9452C28.0024 35.7692 27.0904 34.9372 27.0904 33.2252C27.0904 31.3372 28.2744 30.5212 32.1624 30.5212ZM31.0744 26.9372C31.0744 26.6012 31.2344 26.4412 31.5704 26.4412H32.8984C33.2344 26.4412 33.3944 26.6012 33.3944 26.9372V27.4012C33.3944 27.6092 33.5384 27.7532 33.8264 27.7532H37.1704C37.4904 27.7532 37.6664 27.9292 37.6664 28.2492V29.3052C37.6664 29.6252 37.4904 29.8012 37.1704 29.8012H27.1544C26.8344 29.8012 26.6584 29.6252 26.6584 29.3052V28.2492C26.6584 27.9292 26.8344 27.7532 27.1544 27.7532H31.3144C31.1544 27.6572 31.0744 27.5132 31.0744 27.2892V26.9372ZM32.1624 34.0572C34.6904 34.0572 34.9464 33.7852 34.9464 33.2252C34.9464 32.7132 34.6904 32.4412 32.1624 32.4412C29.6344 32.4412 29.3784 32.7132 29.3784 33.2252C29.3784 33.7852 29.6344 34.0572 32.1624 34.0572ZM46.9131 28.1052L51.5531 37.1452V28.0732C51.5531 27.7372 51.7451 27.5452 52.0811 27.5452H53.3451C53.6811 27.5452 53.8731 27.7372 53.8731 28.0732V39.1932C53.8731 39.8012 53.5691 40.1212 52.9611 40.1212H51.4731C51.0251 40.1212 50.7691 39.9132 50.5771 39.5612L46.2731 31.4492V39.5932C46.2731 39.9292 46.0811 40.1212 45.7451 40.1212H44.4811C44.1451 40.1212 43.9531 39.9292 43.9531 39.5932V28.4732C43.9531 27.8652 44.2571 27.5452 44.8651 27.5452H46.0171C46.4651 27.5452 46.7371 27.7532 46.9131 28.1052ZM61.2049 33.8492C62.4369 33.8492 63.0769 33.1452 63.0769 31.8172C63.0769 30.4892 62.4369 29.7852 61.2049 29.7852H57.7969V33.8492H61.2049ZM61.3009 27.5452C63.9729 27.5452 65.3969 29.0332 65.3969 31.8172C65.3969 34.6012 63.9729 36.0892 61.3009 36.0892H57.7969V39.5932C57.7969 39.9292 57.6049 40.1212 57.2689 40.1212H56.0049C55.6689 40.1212 55.4769 39.9292 55.4769 39.5932V28.4732C55.4769 27.8652 55.7809 27.5452 56.3889 27.5452H61.3009ZM74.3045 36.9692C74.3045 36.1692 73.5845 35.6732 71.2485 34.8572C67.7925 33.6572 66.6725 32.6652 66.6725 30.8092C66.6725 28.5372 68.3045 27.3852 71.4085 27.3852C74.5125 27.3852 76.1445 28.6012 76.1445 31.0172C76.1445 31.3532 75.9525 31.5452 75.6165 31.5452H74.3525C74.0165 31.5452 73.8245 31.3532 73.8245 31.0172C73.8245 30.0732 73.0245 29.6252 71.3445 29.6252C69.7605 29.6252 68.9925 29.9772 68.9925 30.7132C68.9925 31.4012 69.8245 31.9452 71.9205 32.6332C75.3765 33.7692 76.6245 34.8892 76.6245 36.8572C76.6245 39.1612 74.9285 40.2812 71.5685 40.2812C68.1925 40.2812 66.5125 39.0972 66.5125 36.6492C66.5125 36.3132 66.7045 36.1212 67.0405 36.1212H68.3045C68.6405 36.1212 68.8325 36.3132 68.8325 36.6492C68.8325 37.6252 69.6805 38.0412 71.6325 38.0412C73.4565 38.0412 74.3045 37.7052 74.3045 36.9692ZM92.9716 37.1292C92.5396 37.1612 92.2836 37.3372 92.2836 37.8012V39.8332C92.2836 40.1692 92.1076 40.3612 91.7716 40.3612H90.4916C90.1556 40.3612 89.9636 40.1692 89.9636 39.8332V38.0892C89.9636 37.7052 90.1556 37.3852 90.4436 37.2572C89.4356 37.2732 87.8516 37.2732 87.3716 37.2732C86.9076 37.2732 86.6836 37.5132 86.6836 37.9452V39.8332C86.6836 40.1692 86.5076 40.3612 86.1716 40.3612H84.8916C84.5556 40.3612 84.3636 40.1692 84.3636 39.8332V38.0732C84.3636 37.6892 84.5556 37.3532 84.8436 37.2092C83.9956 37.1772 83.2756 37.0972 82.6516 37.0012C82.2836 36.9532 82.1236 36.7932 82.1236 36.4892V35.3052C82.1236 34.9692 82.3156 34.7772 82.6516 34.8252C84.0276 35.0012 86.1396 35.0972 88.3796 35.0972C90.8756 35.0972 93.1476 34.9852 94.1396 34.8252C94.4756 34.7612 94.6836 34.9692 94.6836 35.3052V36.4892C94.6836 36.7772 94.5236 36.9532 94.1556 37.0012C93.8036 37.0492 93.3876 37.0972 92.9716 37.1292ZM83.4516 30.2972C83.4516 29.2092 83.4836 28.2172 83.5476 27.4332C83.5796 27.1132 83.7716 26.9372 84.1396 26.9372H85.4036C85.7236 26.9372 85.8836 27.1132 85.8676 27.4652C85.8196 28.1852 85.7716 29.0172 85.7716 30.1532C85.7716 31.2892 86.2676 31.7372 87.5476 31.7372C89.3556 31.7372 91.5636 31.6092 93.1636 31.3692C93.4836 31.3212 93.6756 31.4972 93.7076 31.8332L93.8356 33.0172C93.8676 33.3212 93.6916 33.4812 93.3556 33.5292C91.7876 33.7532 89.5796 33.8972 87.4836 33.8972C84.7316 33.8972 83.4516 32.7772 83.4516 30.2972ZM102.39 32.8732C101.766 34.3132 100.15 35.3852 98.006 35.3852C97.638 35.3852 97.206 35.3852 97.206 34.8892V33.6892C97.206 33.3852 97.382 33.2252 97.734 33.2252C100.006 33.2252 101.238 31.9452 101.238 30.1692V27.9452C101.238 27.6092 101.43 27.4172 101.766 27.4172H103.03C103.366 27.4172 103.558 27.6092 103.558 27.9452V30.1692C103.558 31.9452 104.774 33.2252 107.03 33.2252C107.382 33.2252 107.558 33.3852 107.558 33.6892V34.8892C107.558 35.3852 107.126 35.3852 106.758 35.3852C104.614 35.3852 102.998 34.3132 102.39 32.8732ZM96.566 37.3852C97.958 37.5612 100.07 37.6572 102.31 37.6572C104.806 37.6572 107.078 37.5452 108.07 37.3852C108.406 37.3212 108.598 37.5292 108.598 37.8652V39.0492C108.598 39.3372 108.438 39.4972 108.07 39.5612C107.078 39.7372 104.806 39.8332 102.31 39.8332C100.07 39.8332 97.958 39.7532 96.566 39.5612C96.198 39.5132 96.038 39.3532 96.038 39.0492V37.8652C96.038 37.5292 96.23 37.3372 96.566 37.3852Z" fill="#E2791C"/>
<path d="M13.016 55.3052C12.264 55.3052 11.8 54.8252 11.8 54.0252C11.8 52.7452 12.664 51.9452 13.88 51.9452C13.992 51.9452 14.04 52.0092 14.04 52.1212V52.4572C14.04 52.5692 13.992 52.6332 13.88 52.6332C13.528 52.6332 13.336 52.7452 13.24 53.0172C13.816 53.0972 14.216 53.5452 14.216 54.1532C14.216 54.8572 13.736 55.3052 13.016 55.3052ZM24.6956 56.3452C24.6956 55.1932 24.1516 54.6972 22.9036 54.6972C20.8556 54.6972 19.3356 54.7772 17.3516 54.9852C17.0956 55.0172 16.9516 54.8892 16.9516 54.6012V53.7052C16.9516 53.4492 17.0636 53.3212 17.3516 53.2892C19.0796 53.1132 21.0476 53.0172 23.0956 53.0172C25.3996 53.0172 26.5356 53.9612 26.5356 55.8812C26.5356 56.8412 26.4236 57.7532 26.2476 58.4412C26.6476 58.4252 26.9836 58.3932 27.2716 58.3612C27.5436 58.3292 27.7036 58.4732 27.7036 58.7452V59.6092C27.7036 59.8812 27.5916 60.0092 27.3036 60.0412C26.1356 60.1532 24.2316 60.1852 22.9836 60.1852C22.7116 60.1852 22.5836 60.3292 22.5836 60.5852V61.6572C22.9516 61.6572 23.3196 61.6572 23.7196 61.6572C25.9756 61.6572 26.7756 62.3132 26.7756 64.1852C26.7756 65.2412 26.7436 66.0092 26.6796 66.5052C26.6476 66.7772 26.4876 66.9212 26.2156 66.9212H25.2716C24.9996 66.9212 24.8236 66.7452 24.8556 66.4892C24.9196 66.0252 24.9356 65.2412 24.9356 64.6492C24.9356 63.6252 24.5516 63.3372 23.5916 63.3372C21.4956 63.3372 19.3196 63.4332 17.1116 63.6252C16.8396 63.6412 16.7116 63.5132 16.7116 63.2412V62.3612C16.7116 62.1052 16.8236 61.9772 17.1116 61.9452C18.3756 61.8332 19.4956 61.7532 20.7436 61.7052V60.5852C20.7436 60.4092 20.8076 60.2652 20.9356 60.1852C19.3356 60.1692 17.2396 60.1212 16.0236 60.0252C15.7516 60.0092 15.6236 59.8652 15.6236 59.5932V58.7292C15.6236 58.4572 15.7836 58.3292 16.0556 58.3452C17.0636 58.4252 18.7116 58.4892 21.6396 58.5052C22.5676 58.5052 23.4796 58.5052 24.3276 58.5052C24.3276 58.4732 24.3436 58.4572 24.3436 58.4252C24.5676 57.7052 24.6956 56.8892 24.6956 56.3452ZM32.6495 58.8252C33.6735 58.8252 34.3775 57.8652 34.3775 56.4892C34.3775 55.3372 33.9295 54.7132 33.0175 54.7132H31.4175C31.1775 54.7132 31.0335 54.8412 31.0335 55.0972V58.3132C31.0335 58.6332 31.2735 58.8252 31.6575 58.8252H32.6495ZM35.7215 60.5052H30.8415C29.8175 60.5052 29.1935 59.9772 29.1935 59.0972V53.7852C29.1935 53.3052 29.4495 53.0332 29.9295 53.0332H33.9615C35.4335 53.0332 36.2175 53.9932 36.2175 55.6572C36.2175 57.0492 35.5775 58.2972 34.6495 58.8252H35.7215C35.9935 58.8252 36.1215 58.9532 36.1215 59.2252V60.1052C36.1215 60.3772 35.9935 60.5052 35.7215 60.5052ZM38.3615 53.0972C38.3615 52.8252 38.5215 52.6652 38.7775 52.6652H39.7855C40.0415 52.6652 40.2015 52.8252 40.2015 53.0972V62.0892C40.2015 62.3612 40.0415 62.5212 39.7855 62.5212H38.7775C38.5215 62.5212 38.3615 62.3612 38.3615 62.0892V53.0972ZM30.5055 62.3292C30.5535 62.0572 30.6975 61.9132 30.9695 61.9132H31.9295C32.2015 61.9132 32.3775 62.0892 32.3455 62.3452C32.2975 62.7292 32.2495 63.3052 32.2495 63.9292C32.2495 64.8892 32.8735 65.4012 33.8495 65.4012C36.6815 65.4012 38.2655 65.3052 40.1535 65.1292C40.4095 65.0972 40.5535 65.2252 40.5695 65.5132L40.6335 66.3932C40.6495 66.6332 40.5215 66.7612 40.2495 66.7932C38.6655 66.9532 36.5695 67.0812 33.9295 67.0812C31.7055 67.0812 30.4095 65.9612 30.4095 64.1052C30.4095 63.4332 30.4415 62.7292 30.5055 62.3292ZM47.1788 56.7612C47.1788 55.4172 46.5388 54.5532 45.4988 54.5532C44.4588 54.5532 43.8348 55.4172 43.8348 56.7612C43.8348 58.1052 44.4588 58.9852 45.4988 58.9852C46.5388 58.9852 47.1788 58.1052 47.1788 56.7612ZM49.0188 56.7612C49.0188 59.1292 47.6268 60.6652 45.4988 60.6652C43.3708 60.6652 41.9948 59.1292 41.9948 56.7612C41.9948 54.3932 43.3708 52.8732 45.4988 52.8732C47.6268 52.8732 49.0188 54.3932 49.0188 56.7612ZM53.1628 62.0892C53.1628 62.3612 53.0028 62.5212 52.7468 62.5212H51.7388C51.4828 62.5212 51.3228 62.3612 51.3228 62.0892V59.0652C51.2108 59.2572 50.9868 59.3852 50.6828 59.3852H49.7868C49.5148 59.3852 49.3868 59.2572 49.3868 58.9852V58.1052C49.3868 57.8332 49.5148 57.7052 49.7868 57.7052H50.8908C51.2108 57.7052 51.3228 57.5772 51.3228 57.2572V55.5932C51.2108 55.7852 50.9868 55.9132 50.6828 55.9132H49.7868C49.5148 55.9132 49.3868 55.7852 49.3868 55.5132V54.6332C49.3868 54.3612 49.5148 54.2332 49.7868 54.2332H50.8908C51.2108 54.2332 51.3228 54.1052 51.3228 53.7852V53.0972C51.3228 52.8252 51.4828 52.6652 51.7388 52.6652H52.7468C53.0028 52.6652 53.1628 52.8252 53.1628 53.0972V62.0892ZM43.4668 62.3292C43.5148 62.0572 43.6588 61.9132 43.9308 61.9132H44.8908C45.1628 61.9132 45.3388 62.0892 45.3068 62.3452C45.2588 62.7292 45.2108 63.3052 45.2108 63.9292C45.2108 64.8892 45.8348 65.4012 46.8108 65.4012C49.6428 65.4012 51.2268 65.3052 53.1148 65.1292C53.3708 65.0972 53.5148 65.2252 53.5308 65.5132L53.5948 66.3932C53.6108 66.6332 53.4828 66.7612 53.2108 66.7932C51.6268 66.9532 49.5308 67.0812 46.8908 67.0812C44.6668 67.0812 43.3708 65.9612 43.3708 64.1052C43.3708 63.4332 43.4028 62.7292 43.4668 62.3292ZM65.116 65.2412H66.124C66.396 65.2412 66.524 65.3692 66.524 65.6412V66.5212C66.524 66.7932 66.396 66.9212 66.124 66.9212H57.852C56.828 66.9212 56.236 66.4252 56.236 65.5452V61.8972C56.236 61.4172 56.46 61.1772 56.94 61.1772H64.508C65.628 61.1772 66.3 61.8652 66.3 62.9852C66.3 63.9612 65.82 64.8252 65.116 65.2412ZM55.58 58.0572C57.052 58.1372 59.292 58.2172 61.164 58.2172C62.172 58.2172 63.052 58.2172 63.836 58.2012C64.076 57.5772 64.22 56.7932 64.22 56.2652C64.22 55.1612 63.708 54.6972 62.508 54.6972C60.46 54.6972 58.86 54.7772 56.876 54.9852C56.62 55.0172 56.476 54.8892 56.476 54.6012V53.7052C56.476 53.4492 56.588 53.3212 56.876 53.2892C58.604 53.1132 60.652 53.0172 62.7 53.0172C64.956 53.0172 66.06 53.9292 66.06 55.8012C66.06 56.6332 65.948 57.4972 65.772 58.1532C66.156 58.1372 66.492 58.1052 66.796 58.0732C67.068 58.0412 67.228 58.1852 67.228 58.4572V59.3212C67.228 59.5932 67.116 59.7212 66.828 59.7532C65.676 59.8812 63.404 59.9132 61.164 59.8972C58.236 59.8812 56.508 59.8492 55.548 59.7372C55.276 59.7052 55.148 59.5772 55.148 59.3052V58.4412C55.148 58.1692 55.308 58.0412 55.58 58.0572ZM63.244 65.2732C63.948 65.2732 64.46 64.6492 64.46 63.8172C64.46 63.1932 64.14 62.8252 63.596 62.8252H58.444C58.204 62.8252 58.076 62.9372 58.076 63.1932V64.7932C58.076 65.1132 58.284 65.2732 58.668 65.2732H63.244ZM72.8023 65.2892C72.8023 63.1932 73.7463 61.9932 76.6103 60.4252C78.8663 59.1932 79.7463 58.2492 79.7303 57.0812C79.7143 55.8972 78.8343 55.2252 77.2983 55.2252C75.6823 55.2252 74.8663 55.9452 74.8663 57.3532C74.8663 57.6252 74.7063 57.7852 74.4503 57.7852H73.4423C73.1863 57.7852 73.0263 57.6252 73.0263 57.3532C73.0263 54.8572 74.5623 53.4652 77.2983 53.4652C80.0183 53.4652 81.5703 54.8252 81.5703 57.2252C81.5703 58.9372 80.3703 60.4572 78.0503 61.7052C76.2263 62.6812 75.2183 63.5292 75.0103 64.2812H81.6663C81.9383 64.2812 82.0663 64.4092 82.0663 64.6812V65.6412C82.0663 65.9132 81.9383 66.0412 81.6663 66.0412H73.5383C73.0583 66.0412 72.8023 65.7692 72.8023 65.2892ZM82.8725 59.8332C82.8725 55.5452 84.5525 53.4652 87.6565 53.4652C90.7605 53.4652 92.4405 55.5452 92.4405 59.8332C92.4405 64.1212 90.7605 66.2012 87.6565 66.2012C84.5525 66.2012 82.8725 64.1212 82.8725 59.8332ZM84.7125 59.8332C84.7125 62.9852 85.6885 64.4412 87.6565 64.4412C89.6245 64.4412 90.6005 62.9852 90.6005 59.8332C90.6005 56.6812 89.6245 55.2252 87.6565 55.2252C85.6885 55.2252 84.7125 56.6812 84.7125 59.8332ZM92.9435 65.2892C92.9435 63.1932 93.8875 61.9932 96.7515 60.4252C99.0075 59.1932 99.8875 58.2492 99.8715 57.0812C99.8555 55.8972 98.9755 55.2252 97.4395 55.2252C95.8235 55.2252 95.0075 55.9452 95.0075 57.3532C95.0075 57.6252 94.8475 57.7852 94.5915 57.7852H93.5835C93.3275 57.7852 93.1675 57.6252 93.1675 57.3532C93.1675 54.8572 94.7035 53.4652 97.4395 53.4652C100.16 53.4652 101.712 54.8252 101.712 57.2252C101.712 58.9372 100.512 60.4572 98.1915 61.7052C96.3675 62.6812 95.3595 63.5292 95.1515 64.2812H101.808C102.08 64.2812 102.208 64.4092 102.208 64.6812V65.6412C102.208 65.9132 102.08 66.0412 101.808 66.0412H93.6795C93.1995 66.0412 92.9435 65.7692 92.9435 65.2892ZM105.01 62.7932C105.01 63.9452 105.89 64.4412 107.922 64.4412C109.842 64.4412 110.834 63.7532 110.834 62.4252C110.834 60.8892 109.97 60.4252 107.154 60.4252C106.882 60.4252 106.754 60.2972 106.754 60.0252V59.0652C106.754 58.7932 106.882 58.6652 107.154 58.6652C109.346 58.6652 110.194 58.1372 110.194 56.7932C110.194 55.8012 109.314 55.2252 107.762 55.2252C106.082 55.2252 105.33 55.7372 105.33 56.8732C105.33 57.1452 105.17 57.3052 104.914 57.3052H103.906C103.65 57.3052 103.49 57.1452 103.49 56.8732C103.49 54.7132 105.058 53.4652 107.746 53.4652C110.45 53.4652 112.034 54.6172 112.034 56.5532C112.034 57.7692 111.346 58.8252 110.29 59.2892C111.714 59.6732 112.674 60.9052 112.674 62.4732C112.674 64.7772 110.866 66.2012 107.922 66.2012C104.978 66.2012 103.17 64.9052 103.17 62.7932C103.17 62.5212 103.33 62.3612 103.586 62.3612H104.594C104.85 62.3612 105.01 62.5212 105.01 62.7932ZM125.063 62.0892C125.063 62.3612 124.903 62.5212 124.647 62.5212H123.639C123.383 62.5212 123.223 62.3612 123.223 62.0892V58.3132C123.111 58.5052 122.887 58.6332 122.583 58.6332H120.871C120.887 58.6652 120.903 58.6812 120.903 58.7132L121.159 59.5932C121.223 59.8332 121.127 60.0092 120.823 60.1052C119.751 60.4412 118.535 60.6492 117.527 60.6492C115.255 60.6492 114.055 59.5132 114.055 57.3532C114.055 55.9132 114.151 54.6492 114.407 53.4012C114.471 53.1292 114.599 53.0332 114.855 53.0332H115.831C116.135 53.0332 116.311 53.2092 116.263 53.4812C115.991 55.2252 115.895 56.3772 115.895 57.5292C115.895 58.5212 116.407 58.9692 117.527 58.9692C118.231 58.9692 119.255 58.7932 120.231 58.4892C120.183 58.4252 120.167 58.3452 120.167 58.2332V57.3852C120.167 57.1132 120.295 56.9852 120.567 56.9852H122.791C123.111 56.9852 123.223 56.8572 123.223 56.5372V55.4492C123.111 55.6412 122.887 55.7692 122.583 55.7692H120.567C120.295 55.7692 120.167 55.6412 120.167 55.3692V54.5212C120.167 54.2492 120.295 54.1212 120.567 54.1212H122.791C123.111 54.1212 123.223 53.9932 123.223 53.6732V53.0972C123.223 52.8252 123.383 52.6652 123.639 52.6652H124.647C124.903 52.6652 125.063 52.8252 125.063 53.0972V62.0892ZM115.367 62.3292C115.415 62.0572 115.559 61.9132 115.831 61.9132H116.791C117.063 61.9132 117.239 62.0892 117.207 62.3452C117.159 62.7292 117.111 63.3052 117.111 63.9292C117.111 64.8892 117.735 65.4012 118.711 65.4012C121.543 65.4012 123.127 65.3052 125.015 65.1292C125.271 65.0972 125.415 65.2252 125.431 65.5132L125.495 66.3932C125.511 66.6332 125.383 66.7612 125.111 66.7932C123.527 66.9532 121.431 67.0812 118.791 67.0812C116.567 67.0812 115.271 65.9612 115.271 64.1052C115.271 63.4332 115.303 62.7292 115.367 62.3292ZM137.629 64.2812C137.581 64.5532 137.453 64.6652 137.181 64.6652H136.157C135.869 64.6652 135.709 64.4892 135.757 64.2332C136.173 61.9132 136.365 59.6252 136.365 57.2892C136.365 55.9292 135.933 55.4492 134.733 55.4492C133.565 55.4492 132.653 55.5932 131.597 55.7372C131.341 55.7692 131.181 55.5932 131.181 55.3212V54.3932C131.181 54.1372 131.309 53.9932 131.581 53.9612C132.813 53.7852 133.933 53.6732 135.085 53.6732C137.325 53.6732 138.221 54.6492 138.221 57.1132C138.221 59.6412 138.029 61.9292 137.629 64.2812ZM140.349 53.0972C140.349 52.8252 140.509 52.6652 140.765 52.6652H141.773C142.029 52.6652 142.189 52.8252 142.189 53.0972V66.4092C142.189 66.6812 142.029 66.8412 141.773 66.8412H140.765C140.509 66.8412 140.349 66.6812 140.349 66.4092V53.0972ZM154.142 65.2412H155.15C155.422 65.2412 155.55 65.3692 155.55 65.6412V66.5212C155.55 66.7932 155.422 66.9212 155.15 66.9212H146.878C145.854 66.9212 145.262 66.4252 145.262 65.5452V61.8972C145.262 61.4172 145.486 61.1772 145.966 61.1772H153.534C154.654 61.1772 155.326 61.8652 155.326 62.9852C155.326 63.9612 154.846 64.8252 154.142 65.2412ZM144.606 58.0572C146.078 58.1372 148.318 58.2172 150.19 58.2172C151.198 58.2172 152.078 58.2172 152.862 58.2012C153.102 57.5772 153.246 56.7932 153.246 56.2652C153.246 55.1612 152.734 54.6972 151.534 54.6972C149.486 54.6972 147.886 54.7772 145.902 54.9852C145.646 55.0172 145.502 54.8892 145.502 54.6012V53.7052C145.502 53.4492 145.614 53.3212 145.902 53.2892C147.63 53.1132 149.678 53.0172 151.726 53.0172C153.982 53.0172 155.086 53.9292 155.086 55.8012C155.086 56.6332 154.974 57.4972 154.798 58.1532C155.182 58.1372 155.518 58.1052 155.822 58.0732C156.094 58.0412 156.254 58.1852 156.254 58.4572V59.3212C156.254 59.5932 156.142 59.7212 155.854 59.7532C154.702 59.8812 152.43 59.9132 150.19 59.8972C147.262 59.8812 145.534 59.8492 144.574 59.7372C144.302 59.7052 144.174 59.5772 144.174 59.3052V58.4412C144.174 58.1692 144.334 58.0412 144.606 58.0572ZM152.27 65.2732C152.974 65.2732 153.486 64.6492 153.486 63.8172C153.486 63.1932 153.166 62.8252 152.622 62.8252H147.47C147.23 62.8252 147.102 62.9372 147.102 63.1932V64.7932C147.102 65.1132 147.31 65.2732 147.694 65.2732H152.27ZM168.1 57.3212C170.42 57.3212 171.252 56.9052 171.252 55.9132C171.252 54.9052 170.436 54.5052 168.1 54.5052C165.764 54.5052 164.948 54.9052 164.948 55.9132C164.948 56.9052 165.78 57.3212 168.1 57.3212ZM167.572 61.4652C165.716 61.4652 163.572 61.4012 162.34 61.3052C162.068 61.2892 161.94 61.1452 161.94 60.8732V60.0092C161.94 59.7372 162.1 59.6092 162.372 59.6252C163.38 59.7052 165.028 59.7692 167.956 59.7852C170.196 59.8012 172.436 59.7692 173.588 59.6412C173.86 59.6092 174.02 59.7532 174.02 60.0252V60.8892C174.02 61.1612 173.908 61.2892 173.62 61.3212C172.452 61.4332 170.548 61.4652 169.62 61.4652C169.348 61.4652 169.22 61.6092 169.22 61.8652V63.6412C169.22 63.9132 169.06 64.0732 168.804 64.0732H167.796C167.54 64.0732 167.38 63.9132 167.38 63.6412V61.8652C167.38 61.6892 167.444 61.5452 167.572 61.4652ZM163.108 55.9132C163.108 53.8172 164.628 52.8572 168.1 52.8572C171.572 52.8572 173.092 53.8172 173.092 55.9132C173.092 58.0092 171.572 58.9692 168.1 58.9692C164.612 58.9692 163.108 58.0252 163.108 55.9132ZM163.14 62.9692C163.188 62.6972 163.348 62.5532 163.62 62.5532H164.596C164.868 62.5532 165.028 62.7292 164.98 62.9852C164.916 63.3212 164.868 63.7052 164.868 64.1052C164.868 64.9852 165.348 65.4012 166.388 65.4012C169.22 65.4012 171.044 65.3052 172.932 65.1292C173.188 65.0972 173.332 65.2252 173.348 65.5132L173.412 66.3932C173.428 66.6332 173.3 66.7612 173.028 66.7932C171.444 66.9532 169.076 67.0812 166.436 67.0812C164.26 67.0812 163.028 66.0252 163.028 64.1852C163.028 63.7052 163.076 63.2892 163.14 62.9692ZM178.086 64.0572C178.086 64.8892 178.95 65.4172 181.478 65.4172C184.006 65.4172 184.87 64.8892 184.87 64.0572C184.87 63.2252 184.006 62.6972 181.478 62.6972C178.95 62.6972 178.086 63.2252 178.086 64.0572ZM180.534 56.4412C180.534 55.2892 179.894 54.5532 178.854 54.5532C177.814 54.5532 177.19 55.2892 177.19 56.4412C177.19 57.5932 177.83 58.3452 178.854 58.3452C179.894 58.3452 180.534 57.5932 180.534 56.4412ZM176.246 64.0572C176.246 62.0412 177.99 61.0172 181.478 61.0172C184.966 61.0172 186.71 62.0412 186.71 64.0572C186.71 66.0732 184.966 67.0972 181.478 67.0972C177.99 67.0972 176.246 66.0732 176.246 64.0572ZM182.374 56.4412C182.374 58.6012 180.998 60.0252 178.854 60.0252C176.726 60.0252 175.35 58.6012 175.35 56.4412C175.35 54.2812 176.71 52.8732 178.854 52.8732C180.998 52.8732 182.374 54.2812 182.374 56.4412ZM184.678 58.6172C184.566 58.8092 184.342 58.9372 184.038 58.9372H183.142C182.87 58.9372 182.742 58.8092 182.742 58.5372V57.6572C182.742 57.3852 182.87 57.2572 183.142 57.2572H184.246C184.566 57.2572 184.678 57.1292 184.678 56.8092V55.3692C184.566 55.5612 184.342 55.6892 184.038 55.6892H183.142C182.87 55.6892 182.742 55.5612 182.742 55.2892V54.4092C182.742 54.1372 182.87 54.0092 183.142 54.0092H184.246C184.566 54.0092 184.678 53.8812 184.678 53.5612V53.0972C184.678 52.8252 184.838 52.6652 185.094 52.6652H186.102C186.358 52.6652 186.518 52.8252 186.518 53.0972V59.8492C186.518 60.1212 186.358 60.2812 186.102 60.2812H185.094C184.838 60.2812 184.678 60.1212 184.678 59.8492V58.6172ZM200.188 62.9372C199.804 62.9372 199.628 63.0812 199.628 63.4332V65.8492C199.628 66.1212 199.468 66.2812 199.212 66.2812H198.204C197.948 66.2812 197.788 66.1212 197.788 65.8492V63.6412C197.788 63.3212 197.948 63.0492 198.204 62.9532C196.428 62.9372 194.236 62.8252 193.068 62.6812C192.78 62.6492 192.668 62.4892 192.668 62.2332V61.3532C192.668 61.0812 192.828 60.9532 193.1 60.9852C194.62 61.1612 196.46 61.2572 198.684 61.2572C200.972 61.2572 203.068 61.1612 204.316 61.0012C204.588 60.9692 204.748 61.0972 204.748 61.3692V62.2492C204.748 62.5212 204.636 62.6492 204.348 62.6972C203.26 62.8412 201.564 62.9372 200.188 62.9372ZM198.78 57.1292C198.092 58.6652 196.3 59.7052 194.412 59.7052C194.092 59.7052 193.836 59.7052 193.836 59.3052V58.3132C193.836 58.0572 193.948 57.9452 194.236 57.9452C196.38 57.9452 197.852 56.6012 197.852 54.7452V53.4492C197.852 53.1772 198.012 53.0172 198.268 53.0172H199.276C199.532 53.0172 199.692 53.1772 199.692 53.4492V54.7452C199.692 56.6012 201.164 57.9452 203.308 57.9452C203.596 57.9452 203.708 58.0572 203.708 58.3132V59.3052C203.708 59.7052 203.452 59.7052 203.132 59.7052C201.244 59.7052 199.452 58.6652 198.78 57.1292ZM213.262 56.6012C213.262 58.8572 211.854 60.3452 209.662 60.3452C207.486 60.3452 206.078 58.8572 206.078 56.6012C206.078 54.3452 207.47 52.8732 209.662 52.8732C211.854 52.8732 213.262 54.3452 213.262 56.6012ZM211.422 56.6012C211.422 55.3532 210.734 54.5532 209.662 54.5532C208.59 54.5532 207.918 55.3532 207.918 56.6012C207.918 57.8492 208.606 58.6652 209.662 58.6652C210.734 58.6652 211.422 57.8492 211.422 56.6012ZM217.118 66.5052C217.086 66.7772 216.926 66.9212 216.654 66.9212H215.694C215.422 66.9212 215.246 66.7452 215.278 66.4892C215.342 65.9452 215.358 65.0652 215.358 64.4412C215.358 63.4172 215.022 63.1132 213.886 63.1132C211.598 63.1132 209.662 63.2092 207.694 63.3852C207.422 63.4172 207.294 63.2732 207.294 63.0012V62.1212C207.294 61.8652 207.406 61.7372 207.694 61.7052C209.39 61.5292 211.518 61.4332 214.078 61.4332C216.286 61.4332 217.198 62.1692 217.198 63.9772C217.198 65.0492 217.182 65.9452 217.118 66.5052ZM215.406 53.0972C215.406 52.8252 215.566 52.6652 215.822 52.6652H216.83C217.086 52.6652 217.246 52.8252 217.246 53.0972V59.8492C217.246 60.1212 217.086 60.2812 216.83 60.2812H215.822C215.566 60.2812 215.406 60.1212 215.406 59.8492V53.0972ZM223.551 61.2412C224.703 61.1932 225.903 61.1612 226.991 61.1612V60.8412C226.991 60.6172 227.087 60.4572 227.247 60.3772C226.031 60.3932 224.927 60.3772 224.015 60.3772C223.695 60.3772 223.551 60.4892 223.551 60.7772V61.2412ZM230.399 66.8092C229.295 66.9532 227.359 67.0812 226.063 67.0812C221.279 67.0812 220.319 66.7612 220.319 65.2092C220.319 63.7372 221.295 63.3692 225.135 63.3692C225.999 63.3692 226.927 63.3852 227.759 63.3692C228.351 63.3532 228.559 63.2412 228.559 62.9532C228.559 62.6492 228.367 62.5532 227.807 62.5532C226.047 62.5532 222.623 62.6492 220.975 62.7612C220.735 62.7772 220.639 62.6652 220.639 62.4092V61.7212C220.639 61.4812 220.719 61.3852 220.975 61.3692C221.215 61.3532 221.455 61.3372 221.711 61.3212V60.8092C221.711 60.5692 221.807 60.4092 221.999 60.3452C221.151 60.3132 220.351 60.2812 219.567 60.2172C219.327 60.2012 219.231 60.0732 219.231 59.8332V59.1292C219.231 58.8732 219.343 58.7612 219.599 58.7772C220.607 58.8572 222.319 58.9212 225.247 58.9372C227.487 58.9532 229.791 58.9212 230.943 58.7932C231.199 58.7612 231.311 58.8892 231.311 59.1452V59.8332C231.311 60.0892 231.231 60.2172 230.975 60.2332C230.511 60.2652 229.647 60.3452 229.247 60.3452C228.943 60.3452 228.831 60.4412 228.831 60.7292V61.1772C229.599 61.1932 230.383 61.2412 230.383 62.2012C230.383 62.8092 229.983 63.3052 229.343 63.5132H229.919C230.127 63.5132 230.255 63.5932 230.255 63.7372V64.4572C230.255 64.7132 230.143 64.8252 229.919 64.8092C229.007 64.7452 227.535 64.7452 225.167 64.7452C222.495 64.7452 222.159 64.7772 222.159 65.2092C222.159 65.6092 222.575 65.7052 226.047 65.7052C227.279 65.7052 229.135 65.5932 230.287 65.4332C230.527 65.4012 230.639 65.4972 230.655 65.7372L230.703 66.4252C230.719 66.6812 230.639 66.7772 230.399 66.8092ZM229.727 56.3452C228.815 56.3132 227.215 56.2972 225.167 56.2972C222.735 56.2972 222.399 56.3132 222.399 56.7132C222.399 57.0812 222.815 57.1612 226.047 57.1612C227.279 57.1612 228.911 57.0492 230.063 56.9052C230.303 56.8732 230.399 56.9692 230.415 57.1932L230.463 57.8332C230.479 58.0732 230.415 58.1532 230.175 58.1852C229.071 58.3132 227.359 58.4412 226.063 58.4412C221.519 58.4412 220.559 58.1532 220.559 56.7132C220.559 55.3372 221.535 55.0172 225.135 55.0172C225.999 55.0172 226.687 55.0332 227.519 55.0172C228.111 55.0172 228.319 54.8892 228.319 54.6172C228.319 54.3452 228.127 54.2652 227.567 54.2652C225.807 54.2652 222.831 54.3292 221.183 54.4252C220.943 54.4412 220.879 54.3292 220.879 54.1052V53.4492C220.879 53.2252 220.943 53.1452 221.199 53.1292C223.567 53.0012 226.575 52.9212 228.671 52.9852C229.759 53.0172 230.143 53.2412 230.143 53.9132C230.143 54.4892 229.743 54.9372 229.103 55.1452H229.727C229.919 55.1452 230.015 55.2412 230.015 55.4332V56.0732C230.015 56.2652 229.935 56.3612 229.727 56.3452ZM12.168 83.2092C12.088 83.2572 12.024 83.2732 11.944 83.2732C11.8 83.2732 11.688 83.1612 11.688 82.9692V81.8012C11.688 81.5452 11.768 81.4172 11.96 81.2892L14.28 79.8332C14.472 79.7052 14.68 79.6412 14.952 79.6412H15.704C15.96 79.6412 16.104 79.7852 16.104 80.0412V91.6572C16.104 91.9292 15.944 92.0892 15.688 92.0892H14.68C14.424 92.0892 14.264 91.9292 14.264 91.6572V81.8972L12.168 83.2092ZM19.945 88.7932C19.945 89.9452 20.825 90.4412 22.857 90.4412C24.777 90.4412 25.769 89.7532 25.769 88.4252C25.769 86.8892 24.905 86.4252 22.089 86.4252C21.817 86.4252 21.689 86.2972 21.689 86.0252V85.0652C21.689 84.7932 21.817 84.6652 22.089 84.6652C24.281 84.6652 25.129 84.1372 25.129 82.7932C25.129 81.8012 24.249 81.2252 22.697 81.2252C21.017 81.2252 20.265 81.7372 20.265 82.8732C20.265 83.1452 20.105 83.3052 19.849 83.3052H18.841C18.585 83.3052 18.425 83.1452 18.425 82.8732C18.425 80.7132 19.993 79.4652 22.681 79.4652C25.385 79.4652 26.969 80.6172 26.969 82.5532C26.969 83.7692 26.281 84.8252 25.225 85.2892C26.649 85.6732 27.609 86.9052 27.609 88.4732C27.609 90.7772 25.801 92.2012 22.857 92.2012C19.913 92.2012 18.105 90.9052 18.105 88.7932C18.105 88.5212 18.265 88.3612 18.521 88.3612H19.529C19.785 88.3612 19.945 88.5212 19.945 88.7932ZM29.0544 92.0732C29.0544 91.3692 29.5504 90.9052 30.2544 90.9052C30.9744 90.9052 31.4704 91.3692 31.4704 92.0732C31.4704 92.7452 30.9744 93.2092 30.2544 93.2092C29.5504 93.2092 29.0544 92.7452 29.0544 92.0732ZM34.414 88.9212C34.622 89.9932 35.486 90.4732 37.166 90.4732C38.974 90.4732 39.854 89.6892 39.854 88.0732C39.854 86.6332 38.862 85.7212 37.31 85.7212C36.158 85.7212 35.31 85.9452 34.734 86.5692C34.59 86.7292 34.494 86.7772 34.302 86.7772H33.182C32.926 86.7772 32.782 86.6492 32.798 86.4252L33.23 80.3772C33.262 79.8812 33.534 79.6252 33.998 79.6252H40.318C40.59 79.6252 40.718 79.7532 40.718 80.0252V80.9852C40.718 81.2572 40.59 81.3852 40.318 81.3852H34.958L34.702 84.9052C35.278 84.3612 36.414 83.9932 37.566 83.9932C40.206 83.9932 41.694 85.4492 41.694 88.0252C41.694 90.7132 40.062 92.2012 37.134 92.2012C34.318 92.2012 32.59 90.9692 32.59 88.9532C32.59 88.6812 32.75 88.5212 33.006 88.5212H33.934C34.206 88.5212 34.366 88.6652 34.414 88.9212ZM50.1085 86.5052C49.1325 87.2572 47.8205 87.6732 46.5565 87.6732C44.4125 87.6732 42.3645 86.4412 42.3485 83.7852C42.3325 81.2092 44.1405 79.4972 47.0365 79.4812C50.3965 79.4652 51.9645 81.4172 51.9645 85.6572C51.9645 90.0092 50.4125 92.2172 47.0525 92.2172C44.7485 92.2172 43.0365 91.0652 42.8125 89.2572C42.7805 89.0012 42.9405 88.8252 43.2285 88.8252H44.1245C44.3965 88.8252 44.5405 88.9372 44.6365 89.1772C44.9725 90.0092 45.8845 90.4892 47.0365 90.4892C49.1325 90.4892 49.9645 89.3372 50.1085 86.5052ZM44.1885 83.7212C44.1885 85.2732 45.4685 86.0092 46.8605 86.0092C48.0285 86.0092 49.4205 85.5292 50.0925 84.6332C49.9325 82.1532 49.0205 81.1932 46.9565 81.1932C45.1805 81.1932 44.1885 82.1532 44.1885 83.7212ZM62.7509 88.7772C62.7509 89.9452 63.1189 90.4572 63.9189 90.4572C64.7189 90.4572 65.0869 89.9452 65.0869 88.7772C65.0869 87.6252 64.7189 87.1132 63.9189 87.1132C63.1509 87.1132 62.7509 87.6732 62.7509 88.7772ZM54.8469 82.8572C54.8469 84.0252 55.2149 84.5372 56.0149 84.5372C56.8149 84.5372 57.1829 84.0252 57.1829 82.8572C57.1829 81.7052 56.8149 81.1932 56.0149 81.1932C55.2469 81.1932 54.8469 81.7532 54.8469 82.8572ZM55.3589 91.9612L62.4949 79.6092C62.6069 79.4012 62.7669 79.3052 63.0389 79.3052H64.3189C64.5749 79.3052 64.7029 79.4812 64.5749 79.7052L57.4389 92.0572C57.3269 92.2652 57.1669 92.3612 56.8949 92.3612H55.6149C55.3589 92.3612 55.2309 92.1852 55.3589 91.9612ZM61.1509 88.7772C61.1509 86.5692 62.1269 85.3692 63.9189 85.3692C65.7109 85.3692 66.6869 86.5692 66.6869 88.7772C66.6869 91.0172 65.7109 92.2172 63.9189 92.2172C62.1429 92.2172 61.1509 90.9852 61.1509 88.7772ZM53.2469 82.8572C53.2469 80.6492 54.2229 79.4492 56.0149 79.4492C57.8069 79.4492 58.7829 80.6492 58.7829 82.8572C58.7829 85.0972 57.8069 86.2972 56.0149 86.2972C54.2389 86.2972 53.2469 85.0652 53.2469 82.8572ZM77.2581 82.6012C77.2581 81.3532 76.6181 80.5532 75.5781 80.5532C74.5381 80.5532 73.9141 81.3532 73.9141 82.6012C73.9141 83.8492 74.5541 84.6652 75.5781 84.6652C76.6181 84.6652 77.2581 83.8492 77.2581 82.6012ZM83.1141 92.5052C83.0821 92.7772 82.9221 92.9212 82.6501 92.9212H81.6901C81.4181 92.9212 81.2421 92.7452 81.2741 92.4892C81.3381 91.9452 81.3541 91.0652 81.3541 90.4412C81.3541 89.4172 81.0181 89.1132 79.8821 89.1132C77.5941 89.1132 75.6581 89.2092 73.6901 89.3852C73.4181 89.4172 73.2901 89.2732 73.2901 89.0012V88.1212C73.2901 87.8652 73.4021 87.7372 73.6901 87.7052C75.3861 87.5292 77.5141 87.4332 80.0741 87.4332C82.2821 87.4332 83.1941 88.1692 83.1941 89.9772C83.1941 91.0492 83.1781 91.9452 83.1141 92.5052ZM79.0981 82.6012C79.0981 84.8572 77.7381 86.3452 75.5781 86.3452C73.4341 86.3452 72.0741 84.8572 72.0741 82.6012C72.0741 80.3452 73.4181 78.8732 75.5781 78.8732C77.7381 78.8732 79.0981 80.3452 79.0981 82.6012ZM83.2421 85.8492C83.2421 86.1212 83.0821 86.2812 82.8261 86.2812H81.8181C81.5621 86.2812 81.4021 86.1212 81.4021 85.8492V84.8412C81.2901 85.0332 81.0661 85.1612 80.7621 85.1612H79.8661C79.5941 85.1612 79.4661 85.0332 79.4661 84.7612V83.8812C79.4661 83.6092 79.5941 83.4812 79.8661 83.4812H80.9701C81.2901 83.4812 81.4021 83.3532 81.4021 83.0332V81.4812C81.2901 81.6732 81.0661 81.8012 80.7621 81.8012H79.8661C79.5941 81.8012 79.4661 81.6732 79.4661 81.4012V80.5212C79.4661 80.2492 79.5941 80.1212 79.8661 80.1212H80.9701C81.2901 80.1212 81.4021 79.9932 81.4021 79.6732V79.0972C81.4021 78.8252 81.5621 78.6652 81.8181 78.6652H82.8261C83.0821 78.6652 83.2421 78.8252 83.2421 79.0972V85.8492ZM97.5954 79.0652V92.4412C97.5954 92.7132 97.4674 92.8412 97.1954 92.8412H96.2354C95.9634 92.8412 95.8354 92.7132 95.8354 92.4412V86.0252H94.8754C94.5074 86.0252 94.3954 86.1372 94.3954 86.4572V92.4412C94.3954 92.7132 94.2674 92.8412 93.9954 92.8412H93.0354C92.7634 92.8412 92.6354 92.7132 92.6354 92.4412V79.2252C92.6354 78.9532 92.7634 78.8252 93.0354 78.8252H93.9954C94.2674 78.8252 94.3954 78.9532 94.3954 79.2252V84.5532C94.5074 84.3772 94.7154 84.2652 94.9394 84.2652H95.8354V79.0652C95.8354 78.7932 95.9634 78.6652 96.2354 78.6652H97.1954C97.4674 78.6652 97.5954 78.7932 97.5954 79.0652ZM86.7154 85.2572C86.7154 87.8012 87.4834 89.0652 89.0034 89.0652C89.6114 89.0652 90.2194 88.9372 90.9074 88.6492C90.9714 88.6172 91.0354 88.6172 91.0834 88.6172C91.2434 88.6172 91.3554 88.7132 91.3874 88.8892L91.5954 89.8492C91.6434 90.1052 91.5634 90.2332 91.2914 90.3452C90.5394 90.6492 89.7394 90.8252 88.8914 90.8252C86.2994 90.8252 84.9554 88.9372 84.9554 85.2572C84.9554 81.4492 86.2514 79.6732 89.0354 79.6732C89.7554 79.6732 90.2034 79.7052 90.6834 79.8012C91.0194 79.8652 91.0994 79.9452 91.0994 80.2172V81.1772C91.0994 81.4812 90.9394 81.6252 90.6834 81.5772C90.1554 81.4812 89.7554 81.4332 89.1634 81.4332C87.3714 81.4332 86.7154 82.4572 86.7154 85.2572ZM108.704 80.1532H110.672C110.944 80.1532 111.072 80.2812 111.072 80.5532V81.5132C111.072 81.7852 110.944 81.9132 110.672 81.9132H108.336V82.6652C108.336 84.4092 109.232 85.4812 110.672 85.4812C110.944 85.4812 111.072 85.6092 111.072 85.8812V86.8412C111.072 87.1132 110.944 87.2412 110.672 87.2412C109.136 87.2412 107.872 86.3772 107.408 85.0652C106.96 86.3772 105.696 87.2412 104.16 87.2412C103.888 87.2412 103.76 87.1132 103.76 86.8412V85.8812C103.76 85.6092 103.888 85.4812 104.16 85.4812C105.6 85.4812 106.496 84.4092 106.496 82.6652V81.9132H104.16C103.888 81.9132 103.76 81.7852 103.76 81.5132V80.5532C103.76 80.2812 103.888 80.1532 104.16 80.1532H106.768C106.624 80.0732 106.528 79.9292 106.528 79.7212V78.9052C106.528 78.6332 106.656 78.5052 106.928 78.5052H107.968C108.24 78.5052 108.368 78.6332 108.368 78.9052V79.8652C108.368 80.0732 108.464 80.1532 108.704 80.1532ZM114.688 92.4092C114.688 92.6812 114.528 92.8412 114.272 92.8412H113.264C113.008 92.8412 112.848 92.6812 112.848 92.4092V79.0972C112.848 78.8252 113.008 78.6652 113.264 78.6652H114.272C114.528 78.6652 114.688 78.8252 114.688 79.0972V92.4092ZM103.552 91.6412C103.264 91.5932 103.152 91.4812 103.152 91.2252V90.2812C103.152 90.0092 103.312 89.8972 103.584 89.9452C104.416 90.0732 105.712 90.1692 106.88 90.2012C106.64 90.0892 106.48 89.8332 106.48 89.5132V88.0412C106.48 87.7692 106.64 87.6092 106.896 87.6092H107.904C108.16 87.6092 108.32 87.7692 108.32 88.0412V89.6572C108.32 90.0092 108.496 90.1532 108.88 90.1532C109.936 90.1532 110.848 90.0732 111.456 89.9612C111.728 89.9132 111.872 90.0412 111.872 90.3132V91.2252C111.872 91.4972 111.76 91.6092 111.472 91.6572C110.4 91.8172 108.88 91.8812 107.376 91.8812C105.824 91.8812 104.624 91.8012 103.552 91.6412ZM117.074 91.3052C116.786 91.2572 116.674 91.1292 116.674 90.8732V89.9932C116.674 89.7212 116.834 89.5772 117.106 89.6092C118.45 89.7692 120.066 89.8812 121.394 89.9132C121.154 89.8012 120.994 89.5452 120.994 89.2252V85.7052C120.994 85.4332 121.154 85.2732 121.41 85.2732H122.418C122.674 85.2732 122.834 85.4332 122.834 85.7052V89.3692C122.834 89.7212 123.01 89.8652 123.394 89.8652C125.138 89.8652 127.298 89.7372 128.322 89.6252C128.594 89.5932 128.754 89.7372 128.754 90.0092V90.8892C128.754 91.1612 128.642 91.2732 128.354 91.3212C127.298 91.4972 125.202 91.5932 122.69 91.5932C120.146 91.5932 118.274 91.4972 117.074 91.3052ZM118.402 81.5452C118.146 81.5772 118.002 81.4492 118.002 81.1612V80.1852C118.002 79.9292 118.114 79.8012 118.402 79.7692C120.178 79.5772 121.634 79.4972 123.826 79.4972C126.258 79.4972 127.602 80.8732 127.602 83.3692C127.602 84.9372 127.522 85.9292 127.298 87.0492C127.25 87.2892 127.138 87.3532 126.866 87.3212L125.762 87.1612C125.506 87.1292 125.426 87.0172 125.474 86.7612C125.65 85.8972 125.746 84.8572 125.746 83.7052C125.746 81.9292 125.122 81.2572 123.442 81.2572C121.602 81.2572 120.018 81.3372 118.402 81.5452ZM137.144 90.0572C137.144 90.8892 138.008 91.4172 140.536 91.4172C143.064 91.4172 143.928 90.8892 143.928 90.0572C143.928 89.2252 143.064 88.6972 140.536 88.6972C138.008 88.6972 137.144 89.2252 137.144 90.0572ZM135.304 90.0572C135.304 88.0412 137.048 87.0172 140.536 87.0172C144.024 87.0172 145.768 88.0412 145.768 90.0572C145.768 92.0732 144.024 93.0972 140.536 93.0972C137.048 93.0972 135.304 92.0732 135.304 90.0572ZM138.84 79.4652V81.2092C138.84 82.9372 139.864 84.1852 141.272 84.1852C141.544 84.1852 141.672 84.3132 141.672 84.5852V85.4652C141.672 85.7372 141.544 85.8652 141.272 85.8652C139.592 85.8652 138.36 84.7932 137.928 83.5612C137.48 84.7932 136.248 85.8652 134.568 85.8652C134.296 85.8652 134.168 85.7372 134.168 85.4652V84.5852C134.168 84.3132 134.296 84.1852 134.568 84.1852C135.976 84.1852 137 82.9372 137 81.2092V79.4652C137 79.1932 137.16 79.0332 137.416 79.0332H138.424C138.68 79.0332 138.84 79.1932 138.84 79.4652ZM143.576 79.0972C143.576 78.8252 143.736 78.6652 143.992 78.6652H145C145.256 78.6652 145.416 78.8252 145.416 79.0972V85.8492C145.416 86.1212 145.256 86.2812 145 86.2812H143.992C143.736 86.2812 143.576 86.1212 143.576 85.8492V82.2652C143.464 82.4732 143.24 82.5852 142.92 82.5852H141.24C140.968 82.5852 140.84 82.4572 140.84 82.1852V81.3052C140.84 81.0332 140.968 80.9052 141.24 80.9052H143.016C143.4 80.9052 143.576 80.7452 143.576 80.3932V79.0972ZM147.241 91.6412C146.953 91.5932 146.841 91.4812 146.841 91.2252V90.2812C146.841 90.0092 147.001 89.8972 147.273 89.9452C148.089 90.0732 148.873 90.1532 149.785 90.1852C149.545 90.0732 149.401 89.8332 149.401 89.5132V85.6252C149.401 85.3532 149.561 85.1932 149.817 85.1932H150.825C151.081 85.1932 151.241 85.3532 151.241 85.6252V89.6572C151.241 90.0092 151.417 90.1532 151.801 90.1532C153.017 90.1532 154.217 90.0732 154.825 89.9612C155.097 89.9132 155.241 90.0412 155.241 90.3132V91.2252C155.241 91.4972 155.129 91.6092 154.841 91.6572C153.769 91.8172 152.409 91.8812 150.905 91.8812C149.353 91.8812 148.313 91.8012 147.241 91.6412ZM151.401 81.0972C150.217 81.0972 149.145 81.1932 148.089 81.3852C147.833 81.4332 147.689 81.2892 147.689 81.0012V80.0252C147.689 79.7852 147.785 79.6732 148.089 79.6092C148.937 79.4332 150.217 79.3372 151.593 79.3372C153.945 79.3372 154.713 80.5212 154.713 82.4892C154.713 83.9452 154.537 85.6572 154.265 87.0012C154.217 87.2572 154.105 87.3212 153.833 87.2892L152.745 87.1292C152.457 87.0812 152.393 86.9692 152.441 86.7292C152.745 85.3212 152.873 83.8972 152.873 82.7772C152.873 81.5612 152.361 81.0972 151.401 81.0972ZM158.057 92.4092C158.057 92.6812 157.897 92.8412 157.641 92.8412H156.633C156.377 92.8412 156.217 92.6812 156.217 92.4092V79.0972C156.217 78.8252 156.377 78.6652 156.633 78.6652H157.641C157.897 78.6652 158.057 78.8252 158.057 79.0972V84.5852C158.169 84.3772 158.393 84.2652 158.713 84.2652H159.657C159.929 84.2652 160.057 84.3932 160.057 84.6652V85.6252C160.057 85.8972 159.929 86.0252 159.657 86.0252H158.617C158.233 86.0252 158.057 86.1852 158.057 86.5372V92.4092ZM162.075 77.9452C162.827 77.9452 163.291 78.4252 163.291 79.2252C163.291 80.5052 162.427 81.3052 161.211 81.3052C161.099 81.3052 161.051 81.2412 161.051 81.1292V80.7932C161.051 80.6812 161.099 80.6172 161.211 80.6172C161.563 80.6172 161.755 80.5052 161.851 80.2332C161.275 80.1532 160.875 79.7052 160.875 79.0972C160.875 78.3932 161.355 77.9452 162.075 77.9452Z" fill="#5A5A5A"/>
<g clip-path="url(#clip0_761_33514)">
<path d="M306.999 34.0024C306.999 33.5598 307.363 33.2012 307.811 33.2012H339.4C339.625 33.2012 339.825 33.2923 339.975 33.4355L352.413 45.7111C352.522 45.8153 352.589 45.9431 352.628 46.0769V46.0875L352.631 46.0982L352.635 46.1053V46.1183L352.642 46.155L352.646 46.1621V46.1751L352.649 46.2153L352.653 46.2224V46.2591V50.2749H360.188C360.637 50.2749 361.002 50.6335 361.002 51.0773V82.28C361.002 83.6352 360.444 84.8661 359.543 85.7561L359.539 85.7596C358.635 86.652 357.391 87.2024 356.016 87.2024H311.987C310.61 87.2024 309.362 86.652 308.46 85.7596C307.556 84.8708 306.998 83.6399 306.998 82.2812V34.0024H306.999ZM352.329 85.5975C351.53 84.7288 351.037 83.5807 351.026 82.3203V46.6106L339.064 34.8049H308.625V82.28C308.625 83.1961 309.002 84.0246 309.611 84.6246C310.219 85.2247 311.06 85.5975 311.987 85.5975H352.329ZM359.374 82.28V51.8809H352.652V82.28C352.652 83.1961 353.029 84.0246 353.638 84.6246C354.246 85.2247 355.087 85.5975 356.014 85.5975C356.941 85.5975 357.782 85.2247 358.39 84.6246C358.996 84.0269 359.373 83.1949 359.373 82.28H359.374ZM312.266 76.2984C311.818 76.2984 311.451 75.9398 311.451 75.4972C311.451 75.0545 311.818 74.6924 312.266 74.6924H347.384C347.833 74.6924 348.198 75.0545 348.198 75.4972C348.198 75.9398 347.834 76.2984 347.384 76.2984H312.266ZM327.867 56.679H313.079V69.7866H327.867V56.679ZM312.266 55.0753H328.68C329.132 55.0753 329.496 55.4339 329.496 55.8765V70.5914C329.496 71.0341 329.132 71.3939 328.68 71.3939H312.266C311.818 71.3939 311.451 71.0353 311.451 70.5914V55.8765C311.451 55.4339 311.818 55.0753 312.266 55.0753ZM347.384 69.7866C347.833 69.7866 348.2 70.1488 348.2 70.5914C348.2 71.0341 347.833 71.3939 347.384 71.3939H332.882C332.433 71.3939 332.069 71.0353 332.069 70.5914C332.069 70.1476 332.432 69.7866 332.882 69.7866H347.384ZM347.384 64.8856C347.833 64.8856 348.2 65.2442 348.2 65.6869C348.2 66.1295 347.833 66.4893 347.384 66.4893H332.882C332.433 66.4893 332.069 66.1307 332.069 65.6869C332.069 65.243 332.432 64.8856 332.882 64.8856H347.384ZM347.384 59.981C347.833 59.981 348.2 60.3396 348.2 60.7823C348.2 61.2249 347.833 61.5835 347.384 61.5835H332.882C332.433 61.5835 332.069 61.2249 332.069 60.7823C332.069 60.3396 332.432 59.981 332.882 59.981H347.384ZM347.384 55.0765C347.833 55.0765 348.2 55.4351 348.2 55.8777C348.2 56.3204 347.833 56.679 347.384 56.679H332.882C332.433 56.679 332.069 56.3204 332.069 55.8777C332.069 55.4351 332.432 55.0765 332.882 55.0765H347.384ZM312.266 51.7708C311.818 51.7708 311.451 51.4122 311.451 50.9696C311.451 50.527 311.818 50.1683 312.266 50.1683H347.384C347.833 50.1683 348.198 50.527 348.198 50.9696C348.198 51.4122 347.834 51.7708 347.384 51.7708H312.266ZM312.266 81.203C311.818 81.203 311.451 80.8444 311.451 80.4018C311.451 79.9591 311.818 79.597 312.266 79.597H347.384C347.833 79.597 348.198 79.9591 348.198 80.4018C348.198 80.8444 347.834 81.203 347.384 81.203H312.266ZM318.271 46.1479C318.271 46.239 318.258 46.3159 318.227 46.3893C318.197 46.4568 318.159 46.5171 318.105 46.5633C318.057 46.6106 317.995 46.6438 317.928 46.6639C317.856 46.6876 317.789 46.697 317.721 46.697H317.092C316.959 46.697 316.848 46.684 316.753 46.6568C316.662 46.6296 316.573 46.5799 316.491 46.5053C316.41 46.4355 316.335 46.3372 316.26 46.213C316.185 46.0922 316.1 45.9313 316.008 45.736L314.212 42.2067C314.107 41.9948 314.005 41.7676 313.895 41.5226C313.786 41.2812 313.692 41.0433 313.603 40.8149H313.592C313.609 41.0965 313.62 41.3747 313.626 41.654C313.633 41.9321 313.639 42.2209 313.639 42.5156V46.4674C313.639 46.5041 313.629 46.5408 313.609 46.5716C313.585 46.6012 313.551 46.6284 313.5 46.6521C313.452 46.6722 313.381 46.6887 313.296 46.6994C313.21 46.7124 313.099 46.7195 312.966 46.7195C312.833 46.7195 312.725 46.7124 312.64 46.6994C312.554 46.6887 312.486 46.6722 312.439 46.6521C312.391 46.6319 312.358 46.6012 312.341 46.5716C312.32 46.5408 312.311 46.5041 312.311 46.4674V39.6834C312.311 39.4988 312.361 39.3615 312.467 39.2703C312.565 39.1768 312.691 39.1331 312.845 39.1331H313.63C313.773 39.1331 313.892 39.1437 313.99 39.1697C314.085 39.197 314.174 39.2372 314.248 39.294C314.322 39.3544 314.398 39.4349 314.463 39.539C314.531 39.6396 314.598 39.771 314.67 39.9213L316.075 42.6825C316.157 42.8505 316.238 43.0174 316.316 43.1796C316.398 43.3405 316.476 43.5015 316.548 43.6624C316.622 43.8234 316.694 43.9808 316.765 44.1382C316.837 44.2956 316.908 44.4507 316.972 44.6045H316.979C316.97 44.3323 316.959 44.0471 316.952 43.7524C316.945 43.4577 316.945 43.1725 316.945 42.9038V39.3579C316.945 39.3212 316.954 39.2869 316.978 39.2538C316.999 39.2242 317.036 39.197 317.091 39.1733C317.141 39.1496 317.21 39.1331 317.299 39.1224C317.384 39.1129 317.493 39.1094 317.628 39.1094C317.754 39.1094 317.864 39.1129 317.948 39.1224C318.033 39.1319 318.097 39.1496 318.144 39.1733C318.192 39.197 318.226 39.223 318.243 39.2538C318.259 39.2869 318.27 39.3212 318.27 39.3579V46.1479H318.271ZM324.126 46.0804C324.126 46.194 324.123 46.2887 324.113 46.3656C324.102 46.4426 324.089 46.5029 324.069 46.5503C324.052 46.5976 324.028 46.6307 324 46.6544C323.973 46.6745 323.939 46.684 323.908 46.684H320.279C320.157 46.684 320.055 46.6473 319.97 46.5704C319.888 46.497 319.844 46.3727 319.844 46.2011V39.6159C319.844 39.4443 319.888 39.3212 319.97 39.2467C320.055 39.1697 320.157 39.1331 320.279 39.1331H323.89C323.921 39.1331 323.951 39.1437 323.979 39.1638C324.003 39.1839 324.027 39.2171 324.047 39.2644C324.064 39.3153 324.077 39.3745 324.088 39.4526C324.099 39.5295 324.101 39.6242 324.101 39.7449C324.101 39.8526 324.098 39.9426 324.088 40.0231C324.078 40.0965 324.064 40.1604 324.047 40.2042C324.027 40.2515 324.003 40.2882 323.979 40.3083C323.951 40.332 323.921 40.3414 323.89 40.3414H321.31V42.1795H323.482C323.516 42.1795 323.547 42.1889 323.573 42.2126C323.603 42.2327 323.624 42.2659 323.645 42.3097C323.666 42.3535 323.675 42.4138 323.686 42.4907C323.697 42.5677 323.699 42.6588 323.699 42.7653C323.699 42.8789 323.696 42.9736 323.686 43.047C323.677 43.1204 323.666 43.1807 323.645 43.2245C323.625 43.2719 323.605 43.3015 323.573 43.318C323.546 43.3382 323.516 43.3476 323.482 43.3476H321.31V45.4744H323.908C323.942 45.4744 323.973 45.4851 324 45.5076C324.028 45.5277 324.051 45.5608 324.069 45.6117C324.089 45.6555 324.102 45.7194 324.113 45.7928C324.123 45.8733 324.126 45.9644 324.126 46.078V46.0804ZM333.035 46.2946C333.011 46.3881 332.981 46.4627 332.941 46.5195C332.903 46.5728 332.846 46.6201 332.767 46.6473C332.689 46.6781 332.587 46.6982 332.464 46.7077C332.342 46.7183 332.186 46.7207 331.995 46.7207C331.784 46.7207 331.612 46.7171 331.486 46.7077C331.356 46.6982 331.254 46.6769 331.18 46.6473C331.105 46.6201 331.05 46.5739 331.017 46.5195C330.985 46.4627 330.959 46.3881 330.939 46.2946L329.782 41.5072H329.771L328.676 46.2946C328.656 46.3822 328.632 46.4556 328.598 46.5124C328.565 46.5692 328.51 46.613 328.439 46.6438C328.367 46.6769 328.268 46.697 328.142 46.7077C328.017 46.7183 327.853 46.7207 327.649 46.7207C327.432 46.7207 327.262 46.7171 327.132 46.7077C327.006 46.6982 326.901 46.6769 326.827 46.6473C326.752 46.6201 326.701 46.5739 326.667 46.5195C326.633 46.4627 326.606 46.3881 326.585 46.2946L324.943 39.7023C324.91 39.5615 324.892 39.4502 324.889 39.3733C324.882 39.2928 324.906 39.2289 324.95 39.1887C324.998 39.1449 325.073 39.1177 325.178 39.1082C325.288 39.0975 325.434 39.0952 325.62 39.0952C325.796 39.0952 325.933 39.0987 326.038 39.1046C326.14 39.1082 326.215 39.1212 326.266 39.1449C326.32 39.165 326.355 39.1958 326.376 39.2384C326.392 39.2786 326.407 39.3354 326.42 39.41L327.688 45.1975H327.695L329.011 39.4502C329.028 39.3769 329.048 39.3165 329.072 39.2692C329.096 39.2218 329.137 39.1851 329.194 39.1615C329.252 39.1378 329.33 39.1177 329.432 39.1082C329.53 39.0975 329.667 39.0952 329.833 39.0952C330.013 39.0952 330.153 39.0987 330.261 39.1082C330.366 39.1153 330.448 39.1319 330.506 39.1555C330.563 39.1828 330.604 39.2195 330.632 39.2668C330.659 39.3106 330.68 39.3745 330.693 39.4514L332.057 45.1987H332.07L333.328 39.4278C333.338 39.3674 333.356 39.3141 333.372 39.2668C333.393 39.223 333.426 39.1863 333.478 39.1626C333.532 39.139 333.608 39.1188 333.702 39.1094C333.801 39.0987 333.937 39.0964 334.114 39.0964C334.277 39.0964 334.406 39.0999 334.498 39.1094C334.59 39.1188 334.654 39.1461 334.694 39.1899C334.735 39.2301 334.756 39.294 334.748 39.378C334.741 39.4621 334.724 39.5757 334.687 39.7236L333.034 46.2958L333.035 46.2946ZM340.03 44.4187C340.03 44.8152 339.958 45.1632 339.819 45.4626C339.676 45.7609 339.485 46.0094 339.241 46.2106C339 46.4118 338.716 46.5633 338.39 46.6639C338.068 46.7645 337.721 46.8154 337.35 46.8154C337.102 46.8154 336.87 46.7953 336.657 46.7515C336.442 46.7077 336.253 46.6544 336.089 46.5941C335.926 46.5337 335.787 46.4698 335.678 46.4023C335.565 46.3349 335.487 46.2745 335.441 46.2248C335.393 46.1739 335.359 46.1005 335.335 46.0035C335.315 45.91 335.307 45.7715 335.307 45.594C335.307 45.4733 335.311 45.3727 335.317 45.2922C335.324 45.2081 335.334 45.1442 335.354 45.091C335.371 45.0401 335.391 45.0069 335.419 44.9833C335.449 44.9631 335.48 44.9537 335.517 44.9537C335.568 44.9537 335.643 44.9833 335.738 45.0507C335.833 45.1146 335.955 45.1845 336.105 45.2626C336.255 45.3395 336.435 45.4141 336.642 45.4768C336.846 45.5407 337.087 45.5739 337.36 45.5739C337.54 45.5739 337.699 45.5502 337.84 45.5064C337.982 45.4626 338.105 45.3987 338.203 45.3182C338.301 45.2377 338.377 45.1371 338.431 45.0164C338.481 44.8992 338.509 44.7643 338.509 44.6176C338.509 44.4459 338.465 44.2992 338.373 44.1785C338.285 44.0542 338.169 43.9465 338.023 43.8494C337.88 43.7559 337.717 43.6648 337.534 43.5808C337.354 43.4967 337.163 43.4092 336.969 43.3157C336.774 43.2222 336.585 43.118 336.404 42.9973C336.22 42.8801 336.057 42.7393 335.914 42.5748C335.768 42.4067 335.653 42.2126 335.564 41.9877C335.475 41.7593 335.431 41.4907 335.431 41.1758C335.431 40.8172 335.496 40.4953 335.622 40.2231C335.751 39.9485 335.924 39.7236 336.142 39.5426C336.359 39.3579 336.615 39.2242 336.911 39.1331C337.207 39.0455 337.523 39.0017 337.853 39.0017C338.023 39.0017 338.196 39.0147 338.366 39.0419C338.54 39.0691 338.7 39.1058 338.846 39.1532C338.996 39.2005 339.128 39.2502 339.244 39.3106C339.359 39.3674 339.435 39.4183 339.472 39.4585C339.509 39.4952 339.533 39.5295 339.547 39.5556C339.56 39.5828 339.574 39.6195 339.58 39.6633C339.59 39.7071 339.597 39.7639 339.601 39.8349C339.604 39.9024 339.608 39.9864 339.608 40.087C339.608 40.1982 339.604 40.2953 339.598 40.3722C339.595 40.4491 339.585 40.5131 339.571 40.5663C339.557 40.6137 339.537 40.6539 339.517 40.674C339.489 40.6977 339.459 40.7107 339.418 40.7107C339.377 40.7107 339.313 40.6835 339.221 40.6302C339.133 40.577 339.025 40.5166 338.892 40.4491C338.762 40.3852 338.61 40.3284 338.439 40.2775C338.265 40.2243 338.08 40.1971 337.874 40.1971C337.715 40.1971 337.574 40.2172 337.456 40.2574C337.337 40.2977 337.239 40.3545 337.157 40.429C337.079 40.4989 337.018 40.5864 336.977 40.687C336.94 40.7876 336.92 40.8953 336.92 41.009C336.92 41.1735 336.964 41.3214 337.053 41.4421C337.138 41.5664 337.257 41.6741 337.403 41.7712C337.553 41.8647 337.72 41.9522 337.907 42.0363C338.09 42.1203 338.281 42.2102 338.478 42.3014C338.672 42.3949 338.862 42.5026 339.045 42.6197C339.232 42.7405 339.399 42.8813 339.545 43.0458C339.692 43.2139 339.81 43.4044 339.899 43.6293C339.988 43.8542 340.032 44.1157 340.032 44.4211L340.03 44.4187Z" fill="#5A5A5A"/>
</g>
<g filter="url(#filter0_d_761_33514)">
<rect x="11" y="107.201" width="107" height="40" rx="20" fill="#E2791C" shape-rendering="crispEdges"/>
<path d="M36.4457 132.401C36.0777 132.353 35.9177 132.193 35.9177 131.889V130.705C35.9177 130.369 36.1097 130.193 36.4457 130.225C37.6457 130.337 39.7417 130.465 41.5337 130.513C41.2297 130.369 41.0377 130.065 41.0377 129.665V128.417H39.4217C38.1097 128.417 37.3257 127.713 37.2777 126.529L37.0377 120.945C37.0217 120.625 37.2297 120.433 37.5657 120.433H38.8297C39.1977 120.433 39.3577 120.561 39.3737 120.897L39.4217 122.273H44.9577L45.0057 120.897C45.0217 120.577 45.1817 120.433 45.5497 120.433H46.8137C47.1657 120.433 47.3577 120.625 47.3417 120.945L47.1017 126.529C47.0537 127.713 46.2697 128.417 44.9577 128.417H43.3577V129.793C43.3577 130.465 43.8537 130.465 44.3657 130.465C45.2457 130.465 46.8297 130.369 47.9337 130.225C48.2697 130.177 48.4777 130.369 48.4777 130.705V131.889C48.4777 132.177 48.3177 132.337 47.9497 132.401C46.9577 132.577 44.6857 132.673 42.1897 132.673C39.9497 132.673 37.8377 132.593 36.4457 132.401ZM39.5177 124.433L39.5657 125.729C39.5817 126.097 39.7577 126.257 40.1577 126.257H44.2217C44.6217 126.257 44.7977 126.097 44.8137 125.729L44.8617 124.433H39.5177ZM54.1361 120.593C56.0081 120.593 57.0001 121.441 57.0001 123.009C57.0001 123.937 56.6481 124.689 56.0081 125.185H56.4081C56.7281 125.185 56.8721 125.329 56.8721 125.649V126.721C56.8721 127.041 56.7281 127.185 56.4081 127.185C55.5601 127.185 54.9841 127.169 54.3921 127.169C52.6161 127.169 52.0881 127.473 52.0881 128.465C52.0881 129.377 52.6001 129.745 53.9281 129.745C54.7601 129.745 55.6881 129.553 56.5841 129.201C56.6481 129.169 56.7121 129.153 56.7761 129.153C56.9521 129.153 57.0641 129.297 57.1441 129.569L57.4641 130.689C57.5601 131.009 57.4321 131.185 57.0641 131.313C55.9281 131.713 54.7441 131.905 53.5601 131.905C51.0161 131.905 49.7681 130.721 49.7681 128.465C49.7681 126.209 51.0001 125.009 53.4961 125.009C54.3281 125.009 54.6801 124.673 54.6801 123.905C54.6801 123.105 54.3121 122.769 53.4001 122.769C52.5521 122.769 51.8481 122.833 50.7441 122.993C50.4241 123.041 50.2481 122.897 50.2481 122.577V121.297C50.2481 120.993 50.3761 120.849 50.7121 120.801C51.8001 120.641 52.5681 120.593 54.1361 120.593ZM58.9681 120.113C58.9681 119.777 59.1601 119.585 59.4961 119.585H60.7601C61.0961 119.585 61.2881 119.777 61.2881 120.113V133.393C61.2881 133.729 61.0961 133.921 60.7601 133.921H59.4961C59.1601 133.921 58.9681 133.729 58.9681 133.393V125.953C58.7921 126.241 58.4401 126.401 58.0081 126.401H57.7681C57.4481 126.401 57.2721 126.225 57.2721 125.905V124.657C57.2721 124.337 57.4481 124.161 57.7681 124.161H58.0721C58.6161 124.161 58.9681 123.825 58.9681 123.313V120.113ZM71.6862 131.217C72.0862 128.593 72.2622 126.561 72.2622 124.385C72.2622 123.185 71.9422 122.753 71.0302 122.753C69.6222 122.753 68.7902 122.929 67.7342 123.041C67.4302 123.073 67.2382 122.881 67.2382 122.545V121.377C67.2382 121.073 67.3822 120.929 67.7342 120.881C69.3502 120.657 70.2462 120.593 71.3822 120.593C73.6542 120.593 74.5982 121.617 74.5982 124.113C74.5982 126.673 74.4382 128.881 74.0062 131.281C73.9422 131.633 73.7982 131.745 73.4622 131.745H72.1822C71.8302 131.745 71.6382 131.537 71.6862 131.217ZM78.4062 133.393C78.4062 133.729 78.2142 133.921 77.8782 133.921H76.6142C76.2782 133.921 76.0862 133.729 76.0862 133.393V120.113C76.0862 119.777 76.2782 119.585 76.6142 119.585H77.8782C78.2142 119.585 78.4062 119.777 78.4062 120.113V125.473C78.5822 125.201 78.9502 125.025 79.3982 125.025H79.9102C80.2302 125.025 80.4062 125.201 80.4062 125.521V126.769C80.4062 127.089 80.2302 127.265 79.9102 127.265H79.3342C78.7902 127.265 78.4062 127.633 78.4062 128.145V133.393ZM85.6006 131.217C86.0006 128.593 86.1766 126.561 86.1766 124.385C86.1766 123.185 85.8566 122.753 84.9446 122.753C83.5366 122.753 82.7046 122.929 81.6486 123.041C81.3446 123.073 81.1526 122.881 81.1526 122.545V121.377C81.1526 121.073 81.2966 120.929 81.6486 120.881C83.2646 120.657 84.1606 120.593 85.2966 120.593C87.5686 120.593 88.5126 121.617 88.5126 124.113C88.5126 126.673 88.3526 128.881 87.9206 131.281C87.8566 131.633 87.7126 131.745 87.3766 131.745H86.0966C85.7446 131.745 85.5526 131.537 85.6006 131.217ZM90.3206 120.113C90.3206 119.777 90.5126 119.585 90.8486 119.585H92.1126C92.4486 119.585 92.6406 119.777 92.6406 120.113V133.393C92.6406 133.729 92.4486 133.921 92.1126 133.921H90.8486C90.5126 133.921 90.3206 133.729 90.3206 133.393V120.113Z" fill="white"/>
</g>
<defs>
<filter id="filter0_d_761_33514" x="0" y="100.201" width="129" height="62" filterUnits="userSpaceOnUse" color-interpolation-filters="sRGB">
<feFlood flood-opacity="0" result="BackgroundImageFix"/>
<feColorMatrix in="SourceAlpha" type="matrix" values="0 0 0 0 0 0 0 0 0 0 0 0 0 0 0 0 0 0 127 0" result="hardAlpha"/>
<feOffset dy="4"/>
<feGaussianBlur stdDeviation="5.5"/>
<feComposite in2="hardAlpha" operator="out"/>
<feColorMatrix type="matrix" values="0 0 0 0 0 0 0 0 0 0 0 0 0 0 0 0 0 0 0.25 0"/>
<feBlend mode="normal" in2="BackgroundImageFix" result="effect1_dropShadow_761_33514"/>
<feBlend mode="normal" in="SourceGraphic" in2="effect1_dropShadow_761_33514" result="shape"/>
</filter>
<clipPath id="clip0_761_33514">
<rect width="54" height="54" fill="white" transform="translate(307 33.2012)"/>
</clipPath>
</defs>
</svg>
