<svg width="120" height="59" viewBox="0 0 120 59" fill="none" xmlns="http://www.w3.org/2000/svg">
<g clip-path="url(#clip0_1089_7293)">
<path d="M120 23.74H0V58.03H120V23.74Z" fill="#E05D5D"/>
<path d="M120 0H0V23.74H120V0Z" fill="#251E1C"/>
<mask id="mask0_1089_7293" style="mask-type:luminance" maskUnits="userSpaceOnUse" x="0" y="0" width="120" height="59">
<path d="M120 0H0V58.02H120V0Z" fill="white"/>
</mask>
<g mask="url(#mask0_1089_7293)">
<path d="M43.4629 16.158L39.6469 9.23403V16.146C39.6469 16.35 39.5269 16.47 39.3349 16.47H38.5789C38.3869 16.47 38.2669 16.35 38.2669 16.146V7.72203C38.2669 7.36203 38.4589 7.15803 38.8189 7.15803H39.5869C39.8509 7.15803 40.0429 7.26603 40.1509 7.47003L43.9669 14.406V7.48203C43.9669 7.27803 44.0869 7.15803 44.2789 7.15803H45.0349C45.2269 7.15803 45.3469 7.27803 45.3469 7.48203V15.906C45.3469 16.266 45.1549 16.47 44.7949 16.47H44.0269C43.7629 16.47 43.5709 16.362 43.4629 16.158ZM50.7704 8.47803H48.1664V12.186H50.7704C51.8984 12.186 52.4864 11.538 52.4864 10.338C52.4864 9.12603 51.8984 8.47803 50.7704 8.47803ZM50.8424 13.506H48.1664V16.146C48.1664 16.35 48.0464 16.47 47.8544 16.47H47.0984C46.9064 16.47 46.7864 16.35 46.7864 16.146V7.72203C46.7864 7.36203 46.9784 7.15803 47.3384 7.15803H50.8424C52.7384 7.15803 53.8664 8.23803 53.8664 10.326C53.8664 12.414 52.7384 13.506 50.8424 13.506ZM58.5636 16.59C56.2116 16.59 54.9396 15.654 54.9396 13.914C54.9396 13.71 55.0596 13.59 55.2516 13.59H56.0076C56.1996 13.59 56.3196 13.71 56.3196 13.914C56.3196 14.826 57.0636 15.27 58.6116 15.27C60.0636 15.27 60.7956 14.898 60.7956 14.154C60.7956 13.494 60.2556 13.11 58.3236 12.402C55.8396 11.49 55.0716 10.818 55.0716 9.54603C55.0716 7.89003 56.2236 7.03803 58.4436 7.03803C60.6636 7.03803 61.8156 7.95003 61.8156 9.70203C61.8156 9.90603 61.6956 10.026 61.5036 10.026H60.7476C60.5556 10.026 60.4356 9.90603 60.4356 9.70203C60.4356 8.80203 59.7636 8.35803 58.3956 8.35803C57.1356 8.35803 56.4516 8.71803 56.4516 9.37803C56.4516 9.99003 56.9436 10.434 58.8276 11.106C61.2996 11.982 62.1756 12.69 62.1756 14.082C62.1756 15.774 60.9996 16.59 58.5636 16.59Z" fill="#251E1C"/>
<path d="M69.6588 16.9701C70.2788 17.3701 70.8787 17.5701 71.5287 17.5701C73.4087 17.5701 74.9987 15.9501 74.9987 13.9801C74.9987 12.7101 74.3387 11.7401 72.9987 11.0301C72.3187 10.6601 71.5287 10.5201 70.8387 10.1701C70.5487 10.0101 70.3587 9.71005 70.3587 9.31005C70.3587 8.83005 70.7588 8.43005 71.2988 8.43005C71.8388 8.43005 72.2388 8.83005 72.3688 9.59005H74.6488V6.46005H72.6287V6.77005C72.1087 6.37005 71.5587 6.18005 70.9187 6.18005C68.9887 6.18005 67.5287 7.65005 67.5287 9.54005C67.5287 10.9101 68.3188 11.9301 69.9088 12.6101C70.5888 12.9001 71.2387 13.0601 71.7487 13.3701C72.0387 13.5601 72.2288 13.8801 72.2288 14.2301C72.2288 14.8001 71.7688 15.2501 71.1488 15.2501C70.4788 15.2501 70.1588 14.7701 70.0488 13.7401H67.5488V17.3301H69.6787V16.9801L69.6588 16.9701ZM61.0487 11.4501V8.86005H61.7587C62.9487 8.86005 63.5187 9.20005 63.5187 10.1301C63.5187 11.1201 62.8687 11.4601 61.5387 11.4601H61.0487V11.4501ZM61.0287 15.0901V13.8201H61.7987C63.1987 13.8201 64.2187 13.6801 65.0187 12.9401C65.8387 12.1901 66.2387 11.2301 66.2387 10.0701C66.2387 8.70005 65.7288 7.66005 64.7588 6.98005C64.0188 6.46005 63.1387 6.38005 61.9787 6.38005H57.2587V8.63005H58.3187V15.0801H57.2587V17.3501H62.0287V15.0801H61.0287V15.0901ZM48.7287 15.0901V11.2501L52.8187 17.3601H55.1787V8.64005H56.1687V6.39005H51.4187V8.64005H52.4987V12.4801L48.4487 6.39005H44.9688V8.64005H46.0287V15.0901H44.9688V17.3601H49.7388V15.0901H48.7388H48.7287Z" fill="white"/>
<path d="M84.6883 48C85.5883 48.59 86.4683 48.88 87.4183 48.88C90.1683 48.88 92.4883 46.51 92.4883 43.63C92.4883 41.78 91.5183 40.36 89.5583 39.32C88.5683 38.78 87.4183 38.57 86.3983 38.06C85.9683 37.83 85.6983 37.38 85.6983 36.8C85.6983 36.1 86.2883 35.52 87.0783 35.52C87.8683 35.52 88.4583 36.11 88.6383 37.21H91.9783V32.63H89.0283V33.08C88.2583 32.49 87.4683 32.22 86.5283 32.22C83.7083 32.22 81.5683 34.36 81.5683 37.14C81.5683 39.15 82.7183 40.64 85.0383 41.63C86.0283 42.06 86.9783 42.28 87.7183 42.73C88.1483 43 88.4183 43.48 88.4183 43.99C88.4183 44.83 87.7383 45.48 86.8383 45.48C85.8683 45.48 85.3983 44.78 85.2383 43.27H81.5883V48.52H84.6983V48H84.6883ZM66.8783 48.56L69.3583 38.59L71.8183 48.56H75.4283L78.8583 35.82H80.0983V32.53H73.6283V35.82H74.9783L73.3783 42.61L71.0983 32.53H67.6283L65.3283 42.36L63.7483 35.82H65.0783V32.53H58.6083V35.82H59.8483L63.2783 48.56H66.8883H66.8783ZM53.6383 45.27H50.9583V42.22H54.4983V38.66H50.9583V35.82H53.6383V37.67H57.1583V32.53H45.4583V35.82H47.0183V45.27H45.4583V48.56H57.1583V43.4H53.6383V45.27ZM32.9883 45.25V39.64L38.9683 48.57H42.4183V35.83H43.8583V32.54H36.9183V35.83H38.4983V41.44L32.5883 32.53H27.4883V35.82H29.0483V45.25H27.4883V48.57H34.4583V45.25H32.9883Z" fill="white"/>
</g>
</g>
<defs>
<clipPath id="clip0_1089_7293">
<rect width="120" height="58.02" fill="white"/>
</clipPath>
</defs>
</svg>
