<?xml version="1.0" encoding="UTF-8"?>
<svg id="_레이어_2" data-name="레이어 2" xmlns="http://www.w3.org/2000/svg" xmlns:xlink="http://www.w3.org/1999/xlink" viewBox="0 0 560.85 262">
  <defs>
    <style>
      .cls-1 {
        fill: #01d6a9;
      }

      .cls-1, .cls-2, .cls-3, .cls-4, .cls-5, .cls-6, .cls-7, .cls-8, .cls-9 {
        stroke-width: 0px;
      }

      .cls-10 {
        clip-path: url(#clippath);
      }

      .cls-2, .cls-11 {
        fill: none;
      }

      .cls-3 {
        fill: #203a72;
      }

      .cls-11 {
        stroke: #000;
        stroke-linecap: round;
        stroke-linejoin: round;
        stroke-width: 2px;
      }

      .cls-4 {
        fill: #fdd41a;
      }

      .cls-5 {
        fill: #ff8bba;
      }

      .cls-12 {
        clip-path: url(#clippath-1);
      }

      .cls-13 {
        clip-path: url(#clippath-3);
      }

      .cls-14 {
        clip-path: url(#clippath-2);
      }

      .cls-15 {
        filter: url(#drop-shadow-4);
      }

      .cls-16 {
        filter: url(#drop-shadow-2);
      }

      .cls-17 {
        filter: url(#drop-shadow-3);
      }

      .cls-18 {
        filter: url(#drop-shadow-1);
      }

      .cls-6 {
        fill: #000;
      }

      .cls-7 {
        fill: #0ac3ff;
      }

      .cls-8 {
        fill: #ffe966;
      }

      .cls-9 {
        fill: #fff;
      }
    </style>
    <filter id="drop-shadow-1" filterUnits="userSpaceOnUse">
      <feOffset dx="0" dy="12.13"/>
      <feGaussianBlur result="blur" stdDeviation="6.87"/>
      <feFlood flood-color="#000" flood-opacity=".15"/>
      <feComposite in2="blur" operator="in"/>
      <feComposite in="SourceGraphic"/>
    </filter>
    <filter id="drop-shadow-2" filterUnits="userSpaceOnUse">
      <feOffset dx="0" dy="12.13"/>
      <feGaussianBlur result="blur-2" stdDeviation="6.87"/>
      <feFlood flood-color="#000" flood-opacity=".15"/>
      <feComposite in2="blur-2" operator="in"/>
      <feComposite in="SourceGraphic"/>
    </filter>
    <filter id="drop-shadow-3" filterUnits="userSpaceOnUse">
      <feOffset dx="0" dy="12.13"/>
      <feGaussianBlur result="blur-3" stdDeviation="6.87"/>
      <feFlood flood-color="#000" flood-opacity=".15"/>
      <feComposite in2="blur-3" operator="in"/>
      <feComposite in="SourceGraphic"/>
    </filter>
    <filter id="drop-shadow-4" filterUnits="userSpaceOnUse">
      <feOffset dx="0" dy="12.13"/>
      <feGaussianBlur result="blur-4" stdDeviation="6.87"/>
      <feFlood flood-color="#000" flood-opacity=".15"/>
      <feComposite in2="blur-4" operator="in"/>
      <feComposite in="SourceGraphic"/>
    </filter>
    <clipPath id="clippath">
      <rect class="cls-2" x="453" width="64" height="65"/>
    </clipPath>
    <clipPath id="clippath-1">
      <path class="cls-2" d="M159.5,3h0c16.29,0,29.5,13.21,29.5,29.5s-13.21,29.5-29.5,29.5-29.5-13.21-29.5-29.5,13.21-29.5,29.5-29.5Z"/>
    </clipPath>
    <clipPath id="clippath-2">
      <rect class="cls-2" x="144" y="10" width="32" height="57"/>
    </clipPath>
    <clipPath id="clippath-3">
      <rect class="cls-2" x="459" y="188" width="74" height="74"/>
    </clipPath>
  </defs>
  <g id="_레이어_1-2" data-name="레이어 1">
    <g class="cls-18">
      <path class="cls-4" d="M179.36,44h165.74c18.19,0,32.94,14.75,32.94,32.94h0c0,18.19-14.75,32.94-32.94,32.94h-165.74c-18.19,0-32.94-14.75-32.94-32.94h0c0-18.19,14.75-32.94,32.94-32.94Z" shape-rendering="crispEdges"/>
      <path class="cls-9" d="M207.91,85.58h13.84v6.32h-34.56v-6.32h13.84v-6.2h-11.96v-19.84h6.92v13.52h24.08v6.32h-12.16v6.2ZM223.83,66.42h12.64v-1.96h-12.72v-5.12h19.36v11.84h-12.6v1.96h7.48c2.64,0,5.2-.24,7-.68v-3.4h4.44v-2h-4.44v-5.52h4.44v-2.6h6.64v20.28h-6.64v-4.64h-3.56v2.68c-1.76.6-5.04,1-8.24,1h-13.8v-11.84ZM240.79,79.66c8.72,0,15.6,1.68,15.6,6.92s-6.88,6.92-15.6,6.92-15.6-1.68-15.6-6.92,6.88-6.92,15.6-6.92ZM240.79,88.34c4.64,0,8.36-.36,8.36-1.76s-3.72-1.76-8.36-1.76-8.36.4-8.36,1.76,3.72,1.76,8.36,1.76ZM281.35,70.78h3.76v-3.24h-3.76l-.4-5.96h4.16v-2.64h6.64v25.32h-6.64v-7.52h-4.16l.4-5.96ZM280.31,69.22c0,6.2-4.44,10.24-11,10.24s-11-4.04-11-10.24,4.44-10.24,11-10.24,11,4.08,11,10.24ZM264.99,69.22c0,2.96,1.76,4.6,4.32,4.6s4.32-1.64,4.32-4.6-1.76-4.6-4.32-4.6-4.32,1.64-4.32,4.6ZM268.47,87.06h23.76v6.04h-30.64v-11.96h6.88v5.92ZM326.62,58.94v11.36h-6.84v-5.8h-23.56v-5.56h30.4ZM328.78,71.58v5.52h-34.56v-5.52h34.56ZM326.78,79.14v13.96h-30.56v-13.96h30.56ZM302.9,87.82h17.2v-3.4h-17.2v3.4Z"/>
    </g>
    <g class="cls-16">
      <path class="cls-5" d="M62.94,135.36h193.74c18.19,0,32.94,14.75,32.94,32.94h0c0,18.19-14.75,32.94-32.94,32.94H62.94c-18.19,0-32.94-14.75-32.94-32.94h0c0-18.19,14.75-32.94,32.94-32.94Z" shape-rendering="crispEdges"/>
      <path class="cls-9" d="M103.81,150.3v16.72h-6.76v-16.72h6.76ZM83.17,161.54c-2.92,3.2-7.12,5.36-11.96,5.6v-5.88c5.4-.64,9.2-4.84,9.32-10.8l6.76.4c0,2.08-.4,4.08-1.16,5.92l9.4,4.96-3.12,4.88-9.24-5.08ZM79.97,179.78h24.2v4.68h-30.88v-10.2h23.84v-1.36h-23.92v-4.68h30.6v10.2h-23.84v1.36ZM132.88,150.3h6.76v17.68h-6.76v-5.76h-5.2c-1.36,3.56-5.2,5.72-10.4,5.72-6.56,0-10.96-3.44-10.96-8.8s4.4-8.8,10.96-8.8c5.12,0,8.92,2.12,10.32,5.56h5.28v-5.6ZM117.29,162.5c2.6,0,4.24-1.32,4.24-3.36s-1.64-3.36-4.24-3.36-4.24,1.32-4.24,3.36,1.64,3.36,4.24,3.36ZM133.01,171.42v-2.24h6.64v15.28h-30.16v-15.28h6.64v2.24h16.88ZM116.12,179.1h16.88v-2.44h-16.88v2.44ZM168.04,174.78v-5.44h-24.04v-6.28h24.04v-5.64h-24.04v-6.32h30.8v23.68h-6.76ZM142.12,176.94h34.56v6.32h-34.56v-6.32ZM205.48,150.3h6.32v34.16h-6.32v-34.16ZM196.88,163.14v-12.68h6.24v33.4h-6.24v-14.32h-2.76v-6.4h2.76ZM184.68,177.1h2.56c2.68,0,5.88-.4,7.96-1.16v5.68c-2.04.84-5.68,1.24-8.56,1.24h-8.24v-18.76h8.04v-7.24h-8.04v-5.76h14.28v18.68h-8v7.32ZM246.51,150.3v23.32h-6.76v-23.32h6.76ZM238.15,168.14c-1.76.76-4.76,1.2-7.96,1.2h-15.6v-18.64h21.6v5.64h-14.8v7.36h8.88c3.08,0,6.08-.44,7.88-1.2v5.64ZM248.04,178.9l-2.36,6-14.84-5.44c-3.92,3.32-9.52,5-15.2,5v-6.32c6.4,0,12.08-2.72,13.36-7.52l6.76,1.2c-.28,1-.64,1.92-1.08,2.8l13.36,4.28Z"/>
    </g>
    <g class="cls-17">
      <rect class="cls-1" x="337.23" y="82.81" width="223.62" height="65.87" rx="32.94" ry="32.94" shape-rendering="crispEdges"/>
      <path class="cls-9" d="M410.08,102.99h4v6.44h-4v7.12h-6.76v-18.8h6.76v5.24ZM390.16,110.71c-2.64,3.16-6.8,5.52-11.76,5.64v-5.92c4.4-.24,7.32-3.44,8-6.68h-7.52v-5.6h21.76v5.6h-7.4c-.04.64-.2,1.28-.36,1.92l8.96,4.96-3.16,5-8.52-4.92ZM395,117.03c8.6,0,15.4,1.96,15.4,7.64s-6.8,7.64-15.4,7.64-15.4-1.96-15.4-7.64,6.8-7.64,15.4-7.64ZM395,126.9c4.52,0,8.12-.6,8.12-2.24s-3.6-2.24-8.12-2.24-8.12.64-8.12,2.24,3.6,2.24,8.12,2.24ZM441.36,97.74h6.32v34.16h-6.32v-15.2h-2.84v14.6h-6.24v-33.4h6.24v12.4h2.84v-12.56ZM422.04,98.14c5.4,0,8.36,4.64,8.36,16.28s-2.96,16.28-8.36,16.28-8.36-4.6-8.36-16.28,2.96-16.28,8.36-16.28ZM422.04,124.58c1.52,0,2.08-3.08,2.08-10.16s-.56-10.16-2.08-10.16-2.08,3.08-2.08,10.16.56,10.16,2.08,10.16ZM472.16,109.58h3.76v-3.24h-3.76l-.4-5.96h4.16v-2.64h6.64v25.32h-6.64v-7.52h-4.16l.4-5.96ZM471.12,108.03c0,6.2-4.44,10.24-11,10.24s-11-4.04-11-10.24,4.44-10.24,11-10.24,11,4.08,11,10.24ZM455.8,108.03c0,2.96,1.76,4.6,4.32,4.6s4.32-1.64,4.32-4.6-1.76-4.6-4.32-4.6-4.32,1.64-4.32,4.6ZM459.28,125.86h23.76v6.04h-30.64v-11.96h6.88v5.92ZM517.43,97.74v11.36h-6.84v-5.8h-23.56v-5.56h30.4ZM519.59,110.39v5.52h-34.56v-5.52h34.56ZM517.59,117.94v13.96h-30.56v-13.96h30.56ZM493.71,126.62h17.2v-3.4h-17.2v3.4Z"/>
    </g>
    <g class="cls-15">
      <path class="cls-7" d="M296.6,161.23h157.74c18.19,0,32.94,14.75,32.94,32.94h0c0,18.19-14.75,32.94-32.94,32.94h-157.74c-18.19,0-32.94-14.75-32.94-32.94h0c0-18.19,14.75-32.94,32.94-32.94Z" shape-rendering="crispEdges"/>
      <path class="cls-9" d="M316.67,189.29c-2.68,3.12-6.76,5.4-11.64,5.52v-5.92c4.4-.24,7.32-3.48,8-6.72h-7.52v-5.6h21.76v4.88h3.6v-5.28h6.76v19.12h-6.76v-8.08h-4.56v-5.04h-6.44c-.08.72-.2,1.4-.44,2.12l9.12,5.2-3.24,4.96-8.64-5.16ZM322.35,195.77c8.72,0,15.6,1.92,15.6,7.48s-6.88,7.48-15.6,7.48-15.6-1.92-15.6-7.48,6.88-7.48,15.6-7.48ZM322.35,205.41c4.6,0,8.32-.6,8.32-2.16s-3.72-2.16-8.32-2.16-8.32.64-8.32,2.16,3.72,2.16,8.32,2.16ZM373.14,176.17v34.16h-6.76v-34.16h6.76ZM361.1,176.97v9.24c0,13.88-7.72,22.52-19.68,22.52v-6.4c8.28-.08,12.76-6.24,12.76-16.12v-3.08h-12.76v-6.16h19.68ZM402.34,192.89v-1.56h-5.32v-5.48h5.32v-1.96h-4v-5.48h4v-2.24h6.64v16.72h-6.64ZM396.74,181.01c0,8.88-8.76,11.88-20.16,11.88v-5.48c7.96-.08,13.36-2.04,13.36-5.04v-.36h-13.36v-5.44h20.16v4.44ZM385.14,205.65h24.2v4.68h-30.88v-10.2h23.84v-1.36h-23.92v-4.68h30.6v10.2h-23.84v1.36ZM423.7,189.29c-2.68,3.12-6.76,5.4-11.64,5.52v-5.92c4.4-.24,7.32-3.48,8-6.72h-7.52v-5.6h21.76v4.88h3.6v-5.28h6.76v19.12h-6.76v-8.08h-4.56v-5.04h-6.44c-.08.72-.2,1.4-.44,2.12l9.12,5.2-3.24,4.96-8.64-5.16ZM429.38,195.77c8.72,0,15.6,1.92,15.6,7.48s-6.88,7.48-15.6,7.48-15.6-1.92-15.6-7.48,6.88-7.48,15.6-7.48ZM429.38,205.41c4.6,0,8.32-.6,8.32-2.16s-3.72-2.16-8.32-2.16-8.32.64-8.32,2.16,3.72,2.16,8.32,2.16Z"/>
    </g>
    <path class="cls-7" d="M19.55,137c10.78,0,19.53,8.73,19.53,19.5,0,4.68-1.64,8.98-4.4,12.33,1.61,5.38,7.32,7.17,7.32,7.17h-22.47c-10.78-.01-19.53-8.73-19.53-19.5s8.75-19.5,19.55-19.5Z"/>
    <g class="cls-10">
      <g>
        <path class="cls-9" d="M508.7,0h-47.41c-4.58,0-8.3,3.98-8.3,8.91v31.74c0,4.92,3.72,8.9,8.3,8.9h15.4l8.3,15.45,8.31-15.45h15.4c4.58,0,8.3-3.98,8.3-8.9V8.91c0-4.94-3.7-8.91-8.3-8.91Z"/>
        <path class="cls-5" d="M494.96,17.43c-2.46-2.6-6.42-2.57-8.83.06l-1.13,1.23-1.13-1.23c-2.42-2.64-6.37-2.67-8.83-.06-2.46,2.6-2.49,6.85-.06,9.49l1.26,1.37,8.77,9.57,8.78-9.57,1.26-1.37c2.42-2.64,2.39-6.89-.06-9.49h-.03Z"/>
      </g>
    </g>
    <g class="cls-12">
      <g>
        <path class="cls-1" d="M159.5,3h0c16.29,0,29.5,13.21,29.5,29.5h0c0,16.29-13.21,29.5-29.5,29.5h0c-16.29,0-29.5-13.21-29.5-29.5h0c0-16.29,13.21-29.5,29.5-29.5Z"/>
        <g class="cls-14">
          <g>
            <path class="cls-3" d="M170.48,39.48c1.33,0,2.54-.89,2.88-2.23.38-1.56-.59-3.14-2.18-3.52l-5.32-1.27c-1.9-4.95-2.53-5.73-2.74-6-.39-.48-1.79-2.14-3.65-3.27l-2.05-1.24c-1.09-.66-2.43-.84-3.66-.49-1.23.35-2.27,1.21-2.83,2.34l-1.13,2.27-5.39,10.08c-.48.9-.54,1.96-.16,2.91l4.98,12.47v11.9c0,1.93,1.59,3.5,3.55,3.5s3.55-1.56,3.55-3.5v-12.56c0-.44-.09-.87-.25-1.28l-2.84-7.11,6.16-10.26c.47,1.13,1,2.49,1.46,3.72.34.91,1.12,1.6,2.08,1.83l6.84,1.64c.24.06.47.08.7.08h0Z"/>
            <path class="cls-3" d="M172.92,40.46c-.72.44-1.55.69-2.44.69-.37,0-.74-.04-1.1-.13l-.86-.21c-1.42.85-2.38,2.38-2.38,4.13,0,.83.68,1.51,1.53,1.51s1.53-.67,1.53-1.51c0-1.02.84-1.84,1.87-1.84s1.87.83,1.87,1.84v20.54c0,.83.68,1.51,1.53,1.51s1.53-.67,1.53-1.51v-20.54c0-2.03-1.28-3.77-3.08-4.49h0Z"/>
            <path class="cls-3" d="M164.09,22.19c3.4-.53,5.72-3.67,5.18-7.02-.54-3.35-3.73-5.63-7.13-5.1-3.4.53-5.72,3.67-5.18,7.02.54,3.34,3.73,5.63,7.13,5.1h0Z"/>
          </g>
        </g>
      </g>
    </g>
    <g class="cls-13">
      <g>
        <path class="cls-8" d="M533,225.01c0,20.43-16.56,37.01-37.01,37.01s-36.99-16.59-36.99-37.01,16.56-37.01,36.99-37.01,37.01,16.57,37.01,37.01Z"/>
        <path class="cls-11" d="M520.47,225.01c0,13.51-10.95,24.46-24.47,24.46s-24.46-10.95-24.46-24.46"/>
        <path class="cls-6" d="M492.36,219.57c0,5.46-1.94,9.88-4.35,9.88s-4.34-4.42-4.34-9.88,1.94-9.88,4.34-9.88,4.35,4.42,4.35,9.88Z"/>
        <path class="cls-6" d="M508.31,219.57c0,5.46-1.94,9.88-4.34,9.88s-4.35-4.42-4.35-9.88,1.94-9.88,4.35-9.88,4.34,4.42,4.34,9.88Z"/>
      </g>
    </g>
  </g>
</svg>