<?xml version="1.0" encoding="UTF-8"?>
<svg id="_레이어_1" data-name="레이어 1" xmlns="http://www.w3.org/2000/svg" xmlns:xlink="http://www.w3.org/1999/xlink" version="1.1" viewBox="0 0 980 400">
  <defs>
    <style>
      .cls-1 {
        fill: #b5b5b5;
      }

      .cls-1, .cls-2, .cls-3, .cls-4, .cls-5, .cls-6, .cls-7, .cls-8, .cls-9, .cls-10, .cls-11, .cls-12, .cls-13, .cls-14 {
        stroke-width: 0px;
      }

      .cls-15 {
        stroke-width: 1.1px;
      }

      .cls-15, .cls-16, .cls-17, .cls-18, .cls-19, .cls-3, .cls-20, .cls-21, .cls-22, .cls-23, .cls-24, .cls-25, .cls-26, .cls-27, .cls-28, .cls-29, .cls-30 {
        fill: none;
      }

      .cls-15, .cls-16, .cls-17, .cls-18, .cls-19, .cls-20, .cls-21, .cls-22, .cls-23, .cls-24, .cls-25, .cls-26, .cls-27, .cls-28, .cls-29, .cls-30 {
        stroke-linecap: round;
        stroke-linejoin: round;
      }

      .cls-15, .cls-16, .cls-17, .cls-19, .cls-22, .cls-25, .cls-28, .cls-29 {
        stroke: #00405c;
      }

      .cls-16, .cls-18 {
        stroke-width: 1.5px;
      }

      .cls-17, .cls-21 {
        stroke-width: 1.5px;
      }

      .cls-18, .cls-30 {
        stroke: #fff;
      }

      .cls-2 {
        fill: #818181;
      }

      .cls-31 {
        clip-path: url(#clippath);
      }

      .cls-19, .cls-30 {
        stroke-width: 1.5px;
      }

      .cls-20 {
        stroke-width: 1.5px;
      }

      .cls-20, .cls-26 {
        stroke: #ffec6d;
      }

      .cls-21 {
        stroke: #00556e;
      }

      .cls-4 {
        fill: #ffec6d;
      }

      .cls-5 {
        fill: #cab1f7;
      }

      .cls-6 {
        fill: #ffd4c8;
      }

      .cls-22 {
        stroke-width: 1.4px;
      }

      .cls-23 {
        stroke-width: 2.8px;
      }

      .cls-23, .cls-27 {
        stroke: #f9d620;
      }

      .cls-7 {
        fill: #d7e4f8;
      }

      .cls-24 {
        stroke: #a88cec;
        stroke-width: 2.7px;
      }

      .cls-8 {
        fill: #f9d620;
      }

      .cls-25 {
        stroke-width: 4.1px;
      }

      .cls-26 {
        stroke-width: 1.1px;
      }

      .cls-27 {
        stroke-width: .8px;
      }

      .cls-28 {
        stroke-width: 9.1px;
      }

      .cls-9 {
        fill: #b9cee7;
      }

      .cls-10 {
        fill: #79a7eb;
      }

      .cls-11 {
        fill: #00405c;
      }

      .cls-29 {
        stroke-width: 1.4px;
      }

      .cls-12 {
        fill: #468fe1;
      }

      .cls-13 {
        fill: #fff;
      }

      .cls-14 {
        fill: #a88cec;
      }
    </style>
    <clipPath id="clippath">
      <rect class="cls-3" width="980" height="400"/>
    </clipPath>
  </defs>
  <rect class="cls-7" width="980" height="400"/>
  <polygon class="cls-9" points="379.2 254.8 456.8 224 286.5 134.4 203.7 160.3 379.2 254.8"/>
  <g class="cls-31">
    <path class="cls-9" d="M141.3,336.4c0,6.1-19.8,11-44.1,11s-44.1-4.9-44.1-11,19.8-11,44.1-11,44.1,4.9,44.1,11"/>
    <path class="cls-9" d="M316.5,304.3c0,19.2-62.2,34.8-139,34.8s-139-15.6-139-34.8,62.2-34.8,139-34.8,139,15.6,139,34.8"/>
    <path class="cls-8" d="M448.5,220.6c-22.8,9.4-47.2,18.7-69.9,28-7.5-4.5-20.7-10.5-28-14.3-33.1-17.3-57.1-28.5-97.8-43.2-1.3-.5-4.1-1.2-4.3-1.5-.2-.5,0-13.2,0-14.8,0-7.7-1.6-22.9-6-34.1,22.8-.4,43.5,7.1,65.2,11.3,19.2,3.7,39.5,5,58.5,8.9,16.5,3.4,31.6,8.8,47.7,12.7,7.9,1.9,16,3.5,24.5,4.2,3,.3,6.5.3,9.5.3s-1.1,6.9-1.2,10.1c-.1,6.8-.1,25.5,1.6,32.2"/>
    <path class="cls-8" d="M448.1,178.3c-3.1-1-6.4-1.2-9.5-2-3.2-.9-6.3-1.9-9.3-2.9-6.2-2.1-12-4.6-17.5-7.4-7.6-3.9-14.4-8.3-21.6-12.5-16-9.3-34-17.4-51.8-25.4-1.2-.5-2.4-1.1-3.9-1.1-1.5,0-2.8.3-4.1.7-26.5,7.9-56.1,12.5-85.7,13.2-.7,0-1.5,0-2.2,0,3.2,1.4,6.4,2.7,9.6,4.1,2.7,1.1,5.3,2.4,7.8,3.7,2.9,1.5,6.3,2.6,9,4.2,3.1,1.8,6.4,3.4,9.8,4.9,13,5.8,25.8,11.7,38.6,17.6,12.8,5.9,25.5,11.9,38.3,17.9,3.8,1.8,7.5,3.5,11.3,5.3,1.9.9,3.8,1.8,5.8,2.7,1.7.8,3.4,1.5,5.2,2.1.2,0,5.6-3,6.3-3.4,2.9-1.4,6.9-3,10-4.2,3-1.1,5.1-2,8.1-3.1,2.5-1,6.3-2.1,8.9-3,2.5-.8,4.7-1.6,7.2-2.4,4.2-1.4,6.4-2.1,10.7-3.4,2.9-.8,5.1-1.5,7.2-2.1,1.8-.5,4.3-1.2,6.1-1.8.7-.2,5.3-1.7,5.8-1.5"/>
    <path class="cls-8" d="M334,118.7c6.4,8.4,17.7,15,29.3,21,13.8,7.2,28.3,13.8,43.5,19.9,7.7,3.1,15.6,6,23.6,8.9,3.8,1.3,7.7,2.8,11.7,4,2.4.7,4.9,1.1,7.2,2-.6-.2-4.1.9-4.9,1.1-2,.5-4,.9-6,1.4-3.9.9-7.7,1.9-11.5,3-7.6,2.1-15,4.5-22.1,7-7.1,2.6-14.5,5.3-20.7,8.7-3.1,1.7-1.6,1.9-6.3.4-3.6-1.2-7.4-2.2-11-3.4-5.2-1.8-10.4-3.8-15.4-5.8-10.1-4-19.8-8.4-29.1-13.1-8.1-4.1-15.3-8.8-23.3-12.8-8.6-4.3-17.7-8.1-25.7-12.9-9.3-5.4-18.7-10.2-26.4-16.6,6.8,0,12.8,0,19.6-.7,7.7-.8,15.3-1.9,22.9-3.2,15.1-2.5,30-5.7,44.7-8.8"/>
    <path class="cls-4" d="M339.1,115.8c4,4.2,8.4,8.4,13.8,12,13.4,8.8,27,17.7,42.5,25.2,15.5,7.5,33.2,13.7,52.5,16.3-26,7-51.2,15.1-75.3,24.2-26.1-11-50.9-23.2-74.1-36.5-11.9-6.8-24.4-13.6-33.1-22.1-2.8-2.8-6.1-5.1-8.4-8.1,3.7-.3,7.3-.2,11-.4,5.5-.3,11-1,16.5-1.4,3.8-.3,7.8-.5,11.6-1,14.7-2,29.1-4.8,43-8.3"/>
    <path class="cls-23" d="M336.6,121.8c3.5,3.7,8.7,8.4,13.5,11.5,11.7,7.7,25.1,15.9,38.6,22.4,13.5,6.5,26,11,40.5,14.3-22.7,6.1-35.5,9.8-56.5,17.8-22.8-9.6-44.1-19.4-64.3-31-10.4-6-20.3-11.2-29.4-18.4-2.9-2.3-6.8-5.3-8.7-7.9,3.2-.2,6.4-.1,9.6-.3,4.8-.3,9.6-.8,14.4-1.2,3.3-.3,6.8-.4,10.1-.9,12.8-1.8,20.2-3.3,32.3-6.3Z"/>
    <path class="cls-8" d="M317.6,125.3c2,2.7,7,4.3,11.9,4.5,4.9.2,9.8-.7,14.4-1.7-2.4.6-5.6-4.4-6.6-5-2.6-1.6-5.4.3-8.4.8-1,.2-10.9,1.8-11.2,1.4"/>
    <path class="cls-8" d="M279.8,137c2.5-.6,4.9-1.4,6.7-2.6,1.8-1.2,3-2.8,2.6-4.4.2.7-15.2.6-16.1,1.2-1.7,1.3,4.8,6.3,6.8,5.7"/>
    <path class="cls-8" d="M368.1,180.3c3.4-.8,7.1-1.2,10.7-1.1,3.6.2,7.2,1,9.9,2.4-5.6,1.5-10.8,3.4-15.6,5.6-.3.2-.7.3-1.1.3-.3,0-.6-.2-.8-.3-3-1.5-6-3.1-8.9-4.6,1.7-.9,3.7-1.9,5.8-2.4"/>
    <path class="cls-8" d="M407.9,176.4c-.8-1.8.4-3.7,1.9-5.4,1.4-1.7,3.2-3.4,6-4.1.4,0,.7-.2,1.1-.2.6,0,1.1.2,1.5.4,1.6.6,9.2,2.6,9.5,3.7.3,1-1.4,1-2.9,1.3-2.4.5-4.9.7-7.2,1.4-.8.2-9.8,3.6-10,2.9"/>
    <path class="cls-23" d="M314,142.8c-3.5-.9-3.5-2.7-.9-4.1,3.8-2,14.6-3.3,17.9,0,.8.8.4,1.9-.7,2.7-3.4,2.3-11.9,2.6-16.3,1.5Z"/>
    <path class="cls-23" d="M368.5,170.3c-3.5-.9-3.5-2.7-.9-4.1,3.8-2,14.6-3.3,17.9,0,.8.8.4,1.9-.7,2.7-3.4,2.3-11.9,2.6-16.3,1.5Z"/>
    <path class="cls-8" d="M357.4,162.6c5.2-1.1,10.8-3,12-6.2,1.2-3.5-3.5-6.9-8.9-8.5-6.9-2-15.2-2.1-22.2-.3-3.9,1-7.5,2.7-9.5,5-2,2.3-2.4,5.2-.3,7.4,2.5,2.7,7.1,2.9,11.5,3.6,5.9.9,11.7.2,17.3-1"/>
    <path class="cls-20" d="M380.5,196.6c9.9-4.4,20.1-8.1,30.5-11.1"/>
    <path class="cls-20" d="M380.6,201.7c2.6-1.2,5.3-2.2,8-2.8"/>
    <path class="cls-20" d="M424.6,203.3c2.6-1.2,5.3-2.2,8-2.8"/>
    <path class="cls-20" d="M385.4,236.4c2.6-1.2,16.5-6.2,19.3-6.9"/>
    <path class="cls-20" d="M405.1,203.4c12.4-4.3,24.9-8,37.7-11"/>
    <path class="cls-4" d="M412.7,207.4c-2.1,1.2-4.2,2.5-6.2,3.8-.7.5-7.3,5.8-7.5,5.7,0-.4-2.2-1-2.5-1-.9-.2-1.8-.3-2.7-.4-1.8-.1-3.5.2-5.4.3,4.3-1.9,8.7-3.6,13.1-5.1,4.1-1.4,8.1-2.8,12.2-4-.4.2-.8.5-1.2.7"/>
    <path class="cls-4" d="M418.9,222.9c3.4-2.6,6.9-4.9,10.5-7.1-6.5,2.5-13.1,5.1-19.6,7.6l9.1-.5Z"/>
    <path class="cls-20" d="M350.4,190.7c7,2.5,13.9,5.3,20.6,8.5"/>
    <path class="cls-20" d="M355.2,221.2c7,2.5,13.9,5.3,20.6,8.5"/>
    <path class="cls-5" d="M282.5,108.4c-38-25-87.4-32.4-132.3-24.8-3.5.6-7,1.3-10.4,2.1,18.3,1.5,40.1,3.9,57.2,7.2,2.5.5,4.2,2.9,3.7,5.4-.4,2.2-2.4,3.7-4.5,3.7s-.6,0-.9,0c-25.6-5-62.2-7.9-80.5-8.6,0,0-.1,0-.2,0-38.9,15.1-70.8,43.8-82,86.5-2.6,9.9-3.6,19.4-3.3,28.6,1,30.2,14.5,62.2,36.4,83.1,25.7,24.4,64.9,31.1,98.6,36.4,32.6,5.1,66.8,6.3,97.7-5.3,96.6-36.2,102.3-160.5,20.5-214.3"/>
    <path class="cls-14" d="M195.2,101.9c.3,0,.6,0,.9,0,2.2,0,4.1-1.5,4.5-3.7.5-2.5-1.2-4.9-3.7-5.4-17.1-3.3-38.9-5.7-57.2-7.2-8.6,2-17.1,4.5-25.3,7.7,0,0,.1,0,.2,0,18.3.7,54.8,3.6,80.5,8.6"/>
    <path class="cls-5" d="M317.7,142.9c-1.5-8.8-4.6-17.3-8.9-25.1-2.1-3.8-5-7.7-9.2-8.4-4.1-.7-8,1.9-11,4.8-4.6,4.3-8.3,9.6-10.9,15.3"/>
    <path class="cls-5" d="M276.2,290.1c1.8,8.5,1.8,11,3.6,19.5,6.8,1.4,13.8,2.4,20.8,2.7.9,0,2,0,2.8-.5,1-.6,1.3-1.9,1.5-3l3.8-16.5"/>
    <path class="cls-5" d="M175.3,321c1.8,8.5,1.8,11,3.6,19.5,6.8,1.4,13.8,2.4,20.8,2.7.9,0,2,0,2.8-.5,1-.6,1.3-1.9,1.5-3l3.8-16.5"/>
    <path class="cls-5" d="M59.7,278.6c1.8,8.5,2.1,21.2,3.9,29.7,6.8,1.4,13.8,2.4,20.8,2.7.9,0,2,0,2.8-.5,1-.6,2.8-10.8,3-12"/>
    <path class="cls-5" d="M214.9,159.8c-.3-8.9.9-17.9,3.5-26.4,1.3-4.1,3.3-8.5,7.3-10.1,3.9-1.5,8.2.2,11.7,2.4,5.4,3.3,10.1,7.6,13.8,12.7"/>
    <path class="cls-24" d="M214.9,159.8c-.3-8.9.9-17.9,3.5-26.4,1.3-4.1,3.3-8.5,7.3-10.1,3.9-1.5,8.2.2,11.7,2.4,5.4,3.3,10.1,7.6,13.8,12.7"/>
    <path class="cls-5" d="M235.4,238.4c-6.1-14,.2-31.1,11.6-41.4,11.4-10.3,26.6-14.9,41.6-18,25.4-5.2,60.3-5.9,65.1,27.3,2.6,17.8-9.4,35.4-25.6,41.9-13.4,5.4-27.4,9.7-41.8,10.8-19.3,1.6-42.2-1-50.9-20.8"/>
    <path class="cls-24" d="M235.4,238.4c-6.1-14,.2-31.1,11.6-41.4,11.4-10.3,26.6-14.9,41.6-18,25.4-5.2,60.3-5.9,65.1,27.3,2.6,17.8-9.4,35.4-25.6,41.9-13.4,5.4-27.4,9.7-41.8,10.8-19.3,1.6-42.2-1-50.9-20.8Z"/>
    <path class="cls-5" d="M247.8,244.6c-6.1-14,.2-31.1,11.6-41.4,11.4-10.3,26.6-14.9,41.6-18,25.4-5.2,60.3-5.9,65.1,27.3,2.6,17.8-9.4,35.4-25.6,41.9-13.4,5.4-27.4,9.7-41.8,10.8-19.3,1.6-42.2-1-50.9-20.8"/>
    <path class="cls-24" d="M247.8,244.6c-6.1-14,.2-31.1,11.6-41.4,11.4-10.3,26.6-14.9,41.6-18,25.4-5.2,60.3-5.9,65.1,27.3,2.6,17.8-9.4,35.4-25.6,41.9-13.4,5.4-27.4,9.7-41.8,10.8-19.3,1.6-42.2-1-50.9-20.8Z"/>
    <path class="cls-14" d="M282.1,219.5c1.4-.6,3-.7,4.4.2,3.3,2,4.5,7.1,4.2,10.7-.2,3.2-1.5,7.7-5,8.7-3.3.9-6.5-1.9-7.6-4.8-1.4-3.4-1.2-8.1.4-11.4.7-1.5,2.1-2.7,3.6-3.4"/>
    <path class="cls-24" d="M282.1,219.5c1.4-.6,3-.7,4.4.2,3.3,2,4.5,7.1,4.2,10.7-.2,3.2-1.5,7.7-5,8.7-3.3.9-6.5-1.9-7.6-4.8-1.4-3.4-1.2-8.1.4-11.4.7-1.5,2.1-2.7,3.6-3.4Z"/>
    <path class="cls-14" d="M339.2,209.8c1.4-.6,3-.7,4.4.2,3.3,2,4.5,7.1,4.2,10.7-.2,3.2-1.5,7.7-5,8.7-3.3.9-6.5-1.9-7.6-4.8-1.4-3.4-1.2-8.1.4-11.4.7-1.5,2.1-2.7,3.6-3.4"/>
    <path class="cls-24" d="M339.2,209.8c1.4-.6,3-.7,4.4.2,3.3,2,4.5,7.1,4.2,10.7-.2,3.2-1.5,7.7-5,8.7-3.3.9-6.5-1.9-7.6-4.8-1.4-3.4-1.2-8.1.4-11.4.7-1.5,2.1-2.7,3.6-3.4Z"/>
    <path class="cls-11" d="M261.4,178.4c2.6-.4,3.8-2.9,3.9-5.3.1-3.5-3.4-6.1-6.8-4.9-2.6.9-3.5,4.5-2.5,7.1.9,2.4,3,3.4,5.4,3.1"/>
    <path class="cls-11" d="M314.6,169c2.6-.4,3.8-2.9,3.9-5.3.1-3.5-3.4-6.1-6.8-4.9-2.6.9-3.5,4.5-2.5,7.1.9,2.4,3,3.4,5.4,3.1"/>
    <path class="cls-24" d="M294.7,118.2c19.1,15.4,32.9,36.7,38.8,60.6"/>
    <path class="cls-24" d="M292,306.8c7.4-4.9,14-11,19.4-18"/>
    <path class="cls-9" d="M479.6,251.2c0,4.4-10.7,8-24,8s-24-3.6-24-8,10.7-8,24-8,24,3.6,24,8"/>
    <path class="cls-27" d="M443,252.6c-4.2-2.5-.8-5.8,7.5-7.2,8.4-1.4,18.7-.5,22.9,2.1,4.2,2.5.9,5.8-7.5,7.2-8.4,1.4-18.7.5-22.9-2.1Z"/>
    <path class="cls-8" d="M461.7,251.1l1.8-4c.2-.5,1.2-.7,2.1-.6.9,0,1.6.4,1.3,1l-2.9,5.9h-3.9s-2-4.3-2-4.3l-2.1,4.3h-3.6s-2.9-6-2.9-6c-.2-.5.5-.9,1.4-.9.9,0,1.9.1,2.1.6l1.6,3.8,1.7-3.5c.3-.5,1.2-.6,1.9-.6s1.6.1,1.9.7l1.7,3.8Z"/>
    <path class="cls-8" d="M467.1,250.4h-17.7c-1-.1-1.8-.6-1.8-1,0-.5.8-.9,1.8-.9h17.7c1,.1,1.8.6,1.8,1,0,.5-.8.9-1.8.9"/>
    <path class="cls-8" d="M477.1,235.6h-42.4v13.3-.4c-.1,1.3.6,2.5,2.4,3.7,5.4,3.6,18.2,4.9,28.6,3,7.4-1.4,11.5-4,11.4-6.7h0v-13Z"/>
    <path class="cls-4" d="M465.7,242.4c-10.4,1.9-23.2.6-28.6-3-5.4-3.6-1.4-8.1,9-10,10.4-1.9,23.2-.6,28.6,3,5.4,3.6,1.4,8.1-9,10"/>
    <path class="cls-26" d="M476.1,242c-1.6,1.8-5.2,3.4-10.4,4.4-10.4,1.9-23.2.6-28.6-3-.7-.4-1.2-.9-1.6-1.4"/>
    <path class="cls-26" d="M476.1,246.7c-1.6,1.8-5.2,3.4-10.4,4.4-10.4,1.9-23.2.6-28.6-3-.7-.4-1.2-.9-1.6-1.4"/>
    <path class="cls-27" d="M440.9,238.1c-4.2-2.5-.8-5.8,7.5-7.2,8.4-1.4,18.7-.5,22.9,2.1,4.2,2.5.9,5.8-7.5,7.2-8.4,1.4-18.7.5-22.9-2.1Z"/>
    <path class="cls-8" d="M459.6,236.6l1.8-4c.2-.5,1.2-.7,2.1-.6.9,0,1.6.4,1.3,1l-2.9,5.9h-3.9s-2-4.3-2-4.3l-2.1,4.3h-3.6s-2.9-6-2.9-6c-.2-.5.5-.9,1.4-.9.9,0,1.9.1,2.1.6l1.6,3.8,1.7-3.5c.3-.5,1.2-.6,1.9-.6s1.6.1,1.9.7l1.7,3.8Z"/>
    <path class="cls-8" d="M465,236h-17.7c-1-.1-1.8-.6-1.8-1,0-.5.8-.9,1.8-.9h17.7c1,.1,1.8.6,1.8,1,0,.5-.8.9-1.8.9"/>
    <path class="cls-8" d="M479.8,230.4h-42.4v4.2-.4c-.1,1.3.6,2.5,2.4,3.7,5.4,3.6,18.2,4.9,28.6,3,7.4-1.4,11.5-4,11.4-6.7h0v-3.8Z"/>
    <path class="cls-4" d="M468.4,237.2c-10.4,1.9-23.2.6-28.6-3-5.4-3.6-1.4-8.1,9-10,10.4-1.9,23.2-.6,28.6,3,5.4,3.6,1.4,8.1-9,10"/>
    <path class="cls-27" d="M443.7,232.9c-4.2-2.5-.8-5.8,7.5-7.2,8.4-1.4,18.7-.5,22.9,2.1,4.2,2.5.9,5.8-7.5,7.2-8.4,1.4-18.7.5-22.9-2.1Z"/>
    <path class="cls-8" d="M462.4,231.4l1.8-4c.2-.5,1.2-.7,2.1-.6.9,0,1.6.4,1.3,1l-2.9,5.9h-3.9s-2-4.3-2-4.3l-2.1,4.3h-3.6s-2.9-6-2.9-6c-.2-.5.5-.9,1.4-.9.9,0,1.9.1,2.1.6l1.6,3.8,1.7-3.5c.3-.5,1.2-.6,1.9-.6s1.6.1,1.9.7l1.7,3.8Z"/>
    <path class="cls-8" d="M467.7,230.8h-17.7c-1-.1-1.8-.6-1.8-1,0-.5.8-.9,1.8-.9h17.7c1,.1,1.8.6,1.8,1,0,.5-.8.9-1.8.9"/>
    <path class="cls-8" d="M476.6,226.1h-42.4v4.2-.4c-.1,1.3.6,2.5,2.4,3.7,5.4,3.6,18.2,4.9,28.6,3,7.4-1.4,11.5-4,11.4-6.7h0v-3.8Z"/>
    <path class="cls-4" d="M465.1,232.9c-10.4,1.9-23.2.6-28.6-3-5.4-3.6-1.4-8.1,9-10,10.4-1.9,23.2-.6,28.6,3,5.4,3.6,1.4,8.1-9,10"/>
    <path class="cls-27" d="M440.4,228.6c-4.2-2.5-.8-5.8,7.5-7.2,8.4-1.4,18.7-.5,22.9,2.1,4.2,2.5.9,5.8-7.5,7.2-8.4,1.4-18.7.5-22.9-2.1Z"/>
    <path class="cls-8" d="M459.1,227.1l1.8-4c.2-.5,1.2-.7,2.1-.6.9,0,1.6.4,1.3,1l-2.9,5.9h-3.9s-2-4.3-2-4.3l-2.1,4.3h-3.6s-2.9-6-2.9-6c-.2-.5.5-.9,1.4-.9.9,0,1.9.1,2.1.6l1.6,3.8,1.7-3.5c.3-.5,1.2-.6,1.9-.6s1.6.1,1.9.7l1.7,3.8Z"/>
    <path class="cls-8" d="M464.5,226.5h-17.7c-1-.1-1.8-.6-1.8-1,0-.5.8-.9,1.8-.9h17.7c1,.1,1.8.6,1.8,1,0,.5-.8.9-1.8.9"/>
    <path class="cls-8" d="M478.8,212.6h-42.4v13.3-.4c-.1,1.3.6,2.5,2.4,3.7,5.4,3.6,18.2,4.9,28.6,3,7.4-1.4,11.5-4,11.4-6.7h0v-13Z"/>
    <path class="cls-4" d="M467.4,219.4c-10.4,1.9-23.2.6-28.6-3-5.4-3.6-1.4-8.1,9-10,10.4-1.9,23.2-.6,28.6,3s1.4,8.1-9,10"/>
    <path class="cls-26" d="M477.8,218.9c-1.6,1.8-5.2,3.4-10.4,4.4-10.4,1.9-23.2.6-28.6-3-.7-.4-1.2-.9-1.6-1.4"/>
    <path class="cls-26" d="M477.8,223.6c-1.6,1.8-5.2,3.4-10.4,4.4-10.4,1.9-23.2.6-28.6-3-.7-.4-1.2-.9-1.6-1.4"/>
    <path class="cls-8" d="M477.8,207.5h-42.4v4.2-.4c-.1,1.3.6,2.5,2.4,3.7,5.4,3.6,18.2,4.9,28.6,3,7.4-1.4,11.5-4,11.4-6.7h0v-3.8Z"/>
    <path class="cls-4" d="M466.3,214.4c-10.4,1.9-23.2.6-28.6-3-5.4-3.6-1.4-8.1,9-10,10.4-1.9,23.2-.6,28.6,3s1.4,8.1-9,10"/>
    <path class="cls-27" d="M441.6,210c-4.2-2.5-.8-5.8,7.5-7.2,8.4-1.4,18.7-.5,22.9,2.1,4.2,2.5.9,5.8-7.5,7.2-8.4,1.4-18.7.5-22.9-2.1Z"/>
    <path class="cls-8" d="M460.3,208.5l1.8-4c.2-.5,1.2-.7,2.1-.6.9,0,1.6.4,1.3,1l-2.9,5.9h-3.9s-2-4.3-2-4.3l-2.1,4.3h-3.6s-2.9-6-2.9-6c-.2-.5.5-.9,1.4-1,.9,0,1.9.1,2.1.6l1.6,3.8,1.7-3.5c.3-.5,1.2-.6,1.9-.6s1.6.1,1.9.7l1.7,3.8Z"/>
    <path class="cls-8" d="M465.7,207.9h-17.7c-1-.1-1.8-.6-1.8-1,0-.5.8-.9,1.8-.9h17.7c1,.1,1.8.6,1.8,1,0,.5-.8.9-1.8.9"/>
    <path class="cls-9" d="M890.1,297.1c0,8.6-27.8,15.5-62.1,15.5s-62.1-7-62.1-15.5,27.8-15.5,62.1-15.5,62.1,7,62.1,15.5"/>
    <path class="cls-9" d="M539.9,343.2c0,8.6-27.8,15.5-62.1,15.5s-62.1-7-62.1-15.5,27.8-15.5,62.1-15.5,62.1,7,62.1,15.5"/>
    <path class="cls-9" d="M712.2,317.6c0,13.5-43.9,24.5-98.1,24.5s-98.1-11-98.1-24.5,43.9-24.5,98.1-24.5,98.1,11,98.1,24.5"/>
    <path class="cls-25" d="M679.6,233.2c-2.8-19-6.4-43.7-9.1-62.7"/>
    <path class="cls-28" d="M644,157c12.3,7.3,24.7,14.7,37,22"/>
    <path class="cls-12" d="M594.5,335.5c-21.2.7-42.2-6.7-60.3-21.4-12-9.7-21.9-22-28.9-35.7-3.6-7-6.5-14.4-8.6-22-.4-1.6-2.7-8.4-1.2-9.8,2.5-2.3,5.2,2.7,6,4.6,9.4,20.9,20.9,37.9,39.5,51.9,10.2,7.7,21.2,14.8,33.3,19.2,13.2,4.7,25.7,3.6,39.5,2.8,1.1,0,2.3-.1,3.3.3,1,.5,1.8,1.6,1.4,2.7-.2.6-.7,1-1.2,1.3-4,2.9-7.9,4.4-12.7,5.2-3.4.5-6.7.8-10.1.9"/>
    <path class="cls-25" d="M578,286.6c2.2,13.4,5.4,30,7.6,43.4"/>
    <path class="cls-12" d="M703.6,302.7c-21.2.7-42.2-6.7-60.3-21.4-12-9.7-21.9-22-28.9-35.7-3.6-7-6.5-14.4-8.6-22-.4-1.6-2.7-8.4-1.2-9.8,2.5-2.3,5.2,2.7,6,4.6,9.4,20.9,20.9,37.9,39.5,51.9,10.2,7.7,21.2,14.8,33.3,19.2,13.2,4.7,25.7,3.6,39.5,2.8,1.1,0,2.3-.1,3.3.3,1,.5,1.8,1.6,1.4,2.7-.2.6-.7,1-1.2,1.3-4,2.9-7.9,4.4-12.7,5.2-3.4.5-6.7.8-10.1.9"/>
    <path class="cls-25" d="M687.1,253.8c2.2,13.4,5.4,30,7.6,43.4"/>
    <path class="cls-25" d="M527.1,254.4c-3.5,10.8-6.4,19.1-10.7,29.5"/>
    <path class="cls-10" d="M492,134.6c-1.9,4.3-1.2,9.4,0,14,1.9,6.8,5,13.3,7.8,19.8,10,23.5,16.1,48.7,18.1,74.1.2,3.2.5,6.4,1.9,9.3,1.1,2.3,2.9,4.1,4.8,5.9,11.8,11.4,25.1,21.3,39.4,29.4,7.1,4,14.7,7.6,22.8,7.9,4.3.2,8.7-.6,13-1.4,21-4.1,41.6-9.8,61.7-17.1,12.4-4.5,25.5-10.4,31.9-21.9,1.2-2.2,2.1-4.6,2.1-7.1,0-2.4-1-4.6-2-6.7-3-6.3-7-12.2-11.7-17.5-3.7-4.1-7.9-7.8-12.7-10.7-6.2-3.7-13.2-5.9-20-8.3-24.9-8.8-48.6-21.2-70-36.8-9.7-7.1-19-14.8-29.3-21.1-8.5-5.2-17.6-9.3-26.7-13.5-8-3.7-26-10-31.2,1.6"/>
    <path class="cls-13" d="M627.8,277.1c9.1-2.6,18.3-5.2,27.4-7.7,13.9-3.9,29.3-9.1,35.5-22.1,1.7-3.7,2.6-7.7,4.2-11.4.7-1.7,1.6-3.4,1.6-5.2,0-2.1-1.2-4-2.5-5.7-7.3-9.9-17.4-17.8-28.9-22.3-6.7-2.6-13.9-4.2-20-8-12.6-7.7-11.9-25.2-12.3-38.3-.4-14.2.9-29.2-3.8-42.9-4.3-12.5-16.2-20-29-16.7-5.6,1.5-10.8,5.2-16.7,7.1-8.7,2.9-17.8,1.5-26.7,3-8.4,1.4-15.7,1.3-24.4,1.4-15.5,0-31.3,6-33.9,22.6-2.9,18.8,8.6,36.3,15.1,54.2,3,8.2,5,16.7,5.9,25.4.6,5.6.8,11.2,2.5,16.6,3.3,10.4,11.8,18.1,20.4,24.9,6.4,5,13,9.8,19.7,14.4,5.1,3.6,9.3,8.6,15,11.4,15.3,7.7,35,3.8,50.8-.6"/>
    <path class="cls-11" d="M684,330.7c-2.7-1.2-5.2-2.9-7.2-5-2.4-2.5-4.9-5.1-7.3-7.6-2.2-2.2-4.4-4.6-5.3-7.6-.9-3,0-6.7,2.7-8.1,4.7-2.3,8.4-2.1,13.3-.4,7.4,2.6,14.6,7.4,19.9,13.1,2.2,2.4,4.3,5.2,4.3,8.5,0,3.4-2.6,6.5-5.8,7.7-4.8,1.9-10.1,1.4-14.7-.7"/>
    <path class="cls-6" d="M680.7,286.9c1.9,7.3,5,14.4,8.9,20.8-5.3,2.4-10.4,5.3-15.2,8.7-3.2-.8-6.1-3.2-6.8-6.4-.2-1.2-.2-2.3-.2-3.5-.2-5.4-2.5-10.5-4.9-15.4,6.3-.3,12.2-2.4,18.2-4.3"/>
    <path class="cls-11" d="M636.6,351.9c-2.6-1.5-4.8-3.6-6.5-5.8-2.1-2.8-4.2-5.6-6.3-8.4-1.9-2.5-3.8-5.1-4.3-8.1-.5-3.1.8-6.7,3.7-7.7,4.9-1.7,8.6-1.1,13.3,1.2,7.1,3.5,13.5,9.1,18.2,15.4,1.9,2.6,3.7,5.7,3.2,8.9-.5,3.4-3.4,6.1-6.7,7-5,1.3-10.2.1-14.6-2.5"/>
    <path class="cls-6" d="M638.6,308c1,7.5,3.2,14.9,6.3,21.7-5.6,1.8-11,4-16.2,6.8-3-1.2-5.7-3.9-6-7.1,0-1.2.1-2.3.2-3.5.5-5.4-1.3-10.7-3-15.8,6.2.4,12.4-1,18.5-2.1"/>
    <path class="cls-4" d="M621,190.5c12.7,10.9,25.4,21.9,38,32.8,3.5,3,7,6,9.5,9.8,3.5,5.1,5.1,11.1,6.6,17.1,2.3,8.9,4.6,17.8,6.9,26.6,1.9,7.4,4.1,14.8,5.4,22.3.3,1.7-11.9,5.6-13.4,5.9-.7.2-7.1,2.2-13.3,3.2-4.7-11.8-8.4-24.3-12.4-36.3-.1,4.9-.4,8.8-.6,12-.3,4.3-.6,8.5-.8,12.8-.5,7.9-1,15.7-1.7,23.5-6.5,2.3-11.9,3.1-19.8,3.2-2.8,0-6.4,0-10.4-.7,1.3-.2-6.6-58-7.5-63.3-12.7-2.1-23.9-6.1-34.6-13.5-16.4-11.4-20.5-27.1-21.5-46,5.3-1.2,13-.7,18.4-.7,16.7,0,35.8-2.3,51.2-8.7"/>
    <path class="cls-11" d="M623.9,196.4c-7.6,2.9-15.6,6.7-23.6,8.1-8.5,1.5-17.1,2.4-25.7,3.1-7.4.6-15.1.8-22.1-1.9-.9-.3-1.8-.8-2.4-1.5-1.9-2.1-.4-5.5-.7-8.3-11.8-1.4-22.9-11.1-25.4-23-.5-2.5-.1-5,.3-7.5,2.8-17.1,6.2-35,16.9-48.6,2.2-2.8,4.6-5.3,7.1-7.9,3.5-3.7,7.1-7.4,10.6-11.1,2.5-2.6,8.1-1.4,11.6-.7,9.9,2,17.5,5.1,26.9,8.5,9.5,3.4,18.6,8.3,25.8,15.3,3.4,3.4,6.4,7.2,9.1,11.1,2.2,3.1,4.4,6.4,5.7,10,1.3,3.6,1.7,7.4,2,11.2.6,8.4.6,17-1.9,25-2.5,8-6.3,15.2-14.2,18.1"/>
    <path class="cls-10" d="M562.7,91.7c-2,1.5-3.4,4.3-4.8,6.4-.2.3-.3.5-.4.8,0,.4.2.7.3,1,4.5,7.7,14.5,11.7,23.1,9.3,3-.9,5.9-2.5,7.4-5.2.2-.4.5-.9.4-1.4,0-.6-.3-1.1-.7-1.7-1-1.6-2-3.3-3.7-4.2-1-.6-2.2-.9-3.4-1.2-3.5-.8-7-1.7-10.6-2.5-2.1-.5-6-2.8-8-1.3"/>
    <path class="cls-6" d="M583.8,95.1c0-.1,0-.3.1-.4.1-.2.3-.2.5-.2,2.9-.7,5.4-2.8,7-5.3,2.7-4.4,2.9-8.6,1.6-13.5-.1-.5-.2-1-.2-1.5-.5-4.4-1.9-8.4-5-11.7-.8-.9-1.7-1.7-2.7-2.3-3.6-2.3-7.2-1.6-11-.4-4,1.3-7.5,3.7-9.8,7.3-1.6,2.4-2,5.1-3,7.7-.4,1.1-.8,2.1-.6,3.2.2,1.2.9,2.2,1.5,3.2.8,1.4,1.6,2.8,2.3,4.3.5,1.1,1,2.2,1.1,3.3,0,.7,0,1.5-.2,2.2-.2.8-.3,1.7-.6,2.5-.2.6-.7,1.3-.7,1.9,0,.8.7,1.5,1.3,2.1,4.2,3.5,8.8,7,14.2,7.6,2.7.3,2.5-1.8,2.9-3.7.4-2.1.9-4.2,1.3-6.4"/>
    <path class="cls-11" d="M581.1,76.1c-1.3-.4-1.4,1.9-.1,1.8.9-.1,1.1-1.4.2-1.7,0,0,0,0-.1,0"/>
    <path class="cls-16" d="M581.1,76.1c-1.3-.4-1.4,1.9-.1,1.8.9-.1,1.1-1.4.2-1.7,0,0,0,0-.1,0Z"/>
    <path class="cls-11" d="M590.2,75.2c-1.3-.4-1.4,1.9-.1,1.8.9-.1,1.1-1.4.2-1.7,0,0,0,0-.1,0"/>
    <path class="cls-16" d="M590.2,75.2c-1.3-.4-1.4,1.9-.1,1.8.9-.1,1.1-1.4.2-1.7,0,0,0,0-.1,0Z"/>
    <path class="cls-16" d="M581.5,75.7c-1.2,0-2.3.4-3.3,1.1"/>
    <path class="cls-16" d="M590.8,74.7c-1.2,0-2.3.4-3.3,1.1"/>
    <path class="cls-16" d="M585,76.9c.7,0,1.3.3,1.9.7.3.2.7.5.8.9.3.7,0,1.5-.5,2-.5.5-1.3.7-2,.8"/>
    <path class="cls-1" d="M560.2,78.6c-2.4-1.9-4.1-4.6-4.7-7.6-.9-4.6.6-10,4.7-12.4,1.3-.8,1-.5,1.6-1.8.4-.9.6-1.7,1.2-2.5,1.1-1.5,2.9-2.6,4.6-3.3,5.6-2.2,12.1-1.9,17.5.7,1.4.7,2.7,1.5,3.7,2.6,3.7,2.4,3,9.8,2,12.7-.9-1.5-1.6-2.8-2.7-4.1-1-1.1-1.5-1.6-2.1-2-.5-.4-1.1-.5-1.8-.5-1.8,0-3.7.1-5.5.4-1.1.2-2.2.4-3.1.9-3,1.6-3.8,5.7-4.1,8.7-.3,2.2.1,4.7-.4,6.8-.1.5-.6.9-1,.7-.3,0-.5-.4-.7-.7-.9-1.1-2.7-.6-3.8-.3-.5.2-4.4,2.4-4.6,2.2-.3-.2-.5-.4-.8-.6"/>
    <path class="cls-6" d="M566.4,82.1c-1-.2-2.1-.5-2.7-1.4-.2-.3-.3-.7-.4-1.1-.2-1.3.4-2.6,1.5-3.3,1.4-1,3.9-.8,4.4,1.1"/>
    <path class="cls-16" d="M566.4,82.1c-1-.2-2.1-.5-2.7-1.4-.2-.3-.3-.7-.4-1.1-.2-1.3.4-2.6,1.5-3.3,1.4-1,3.9-.8,4.4,1.1"/>
    <path class="cls-19" d="M563.4,58.5c2.9-.1,5.8.7,8.2,2.3"/>
    <path class="cls-15" d="M580.2,66.8c1.8-.7,3.7-1,5.7-.9"/>
    <path class="cls-15" d="M582.6,83c-1.6,1-2.9,2.5-3.9,4.2"/>
    <path class="cls-16" d="M577.7,72.5c1-.3,2.1-.5,3.1-.6"/>
    <path class="cls-16" d="M590.2,70.6c-1,0-2,.2-2.9.6"/>
    <path class="cls-16" d="M581.8,86.2c2.6,1,6.2.3,7.8-.8"/>
    <path class="cls-30" d="M571.4,58c1.1-1.3,2.4-2.5,3.9-3.3"/>
    <path class="cls-30" d="M573.7,59.7c3-1.6,6.4-2.4,9.8-2.3"/>
    <path class="cls-21" d="M537.4,164c3.8-2.3,8.2-3.5,12.7-3.4"/>
    <path class="cls-21" d="M543.1,157.6c1.3.2,2.6.4,4,.6"/>
    <path class="cls-21" d="M555.2,167c3.3,1.8,11.1,2,14.6,1.3,2.2-.4,4.6-1,6.5,0"/>
    <path class="cls-21" d="M557.7,196.8c6.2.7,12.5.2,18.4-1.6"/>
    <path class="cls-21" d="M556.7,143.1c-2.2,5.4-3.7,11-4.4,16.8"/>
    <path class="cls-17" d="M645.2,243.6c2.4,11.5,3.5,23.8,3.1,34.6"/>
    <path class="cls-17" d="M609.6,217.6c11.9,7.9,21,14.7,33.3,22"/>
    <path class="cls-17" d="M668.5,239c-.7,1.4-1.9,2.6-3.3,3.3"/>
    <path class="cls-25" d="M535.4,265.7c-2.8-19-5.5-38-8.3-57"/>
    <path class="cls-25" d="M554.5,280.1c-2.8-19-6.4-43.7-9.1-62.7"/>
    <path class="cls-28" d="M519,203.9c12.3,7.3,24.7,14.7,37,22"/>
    <path class="cls-1" d="M645.6,208.4c2,0,10.9-11.4,13-13.2,4.3-3.6,9.1-7.2,14.2-9.6-9.4-12.5-12.6-21.2-11.6-37.1,1.1-17.4,2.2-34.7,3.3-52.1-6.8,2-13.4,5.8-19.2,9.8-5,3.5-12,13.3-13.8,13-22-3.6-47.8-3.6-69.8-.3,11.3,22.7,20.2,47.6,19,72.9-.3,7.3-1.8,14.6-4.2,21.5,22.9-3.3,45.9-4.9,69-4.9"/>
    <path class="cls-17" d="M632.3,122.2c.7,13.1,1,26.3,1.1,39.4"/>
    <path class="cls-17" d="M634.2,167.6c3.2,12.3,6.9,24.5,11.2,36.6"/>
    <path class="cls-18" d="M599.4,124.9c1,2.2,1.3,4.5,1.7,6.9,1.2,7.9,3.2,15.8,3.8,23.7-3.8-.2-7.7-.7-11.5-.5-2,0-4,.1-5.9.2-2,0-4.3-.2-6.3.2-.7-4.9-1.4-10-2.9-14.7-1.7-5.1-3.7-10.1-6.1-15,8.8-1.4,18.4-1.6,27.3-.7Z"/>
    <path class="cls-13" d="M627.2,166.3c1.5,6.8,3,13.5,4.3,20.3-3.3.2-5.9.2-8.5.3-.8,0-9,.3-9,.1-1.2-7-2.1-14-3.6-21,2.8-.1,15.4-.6,16.6-.7,0,.3.1.6.2.9"/>
    <path class="cls-18" d="M604.3,125.1c5.6.2,11.1.3,16.7.5,1.8,0,3.6.1,5.4.5"/>
    <path class="cls-18" d="M604.5,128.7c7.2.4,14.5.9,21.7,1.5"/>
    <path class="cls-18" d="M605.2,132.9c7.2,0,14.4.5,21.5,1.2"/>
    <path class="cls-18" d="M605.7,137c6.8.7,13.6,1.3,20.5,1.7-.1,0-.2,0-.4,0"/>
    <path class="cls-18" d="M606,141.6c6.9-.1,13.8.1,20.6.6"/>
    <path class="cls-18" d="M606.6,145.8c6.8.4,13.6.8,20.4,1.2"/>
    <path class="cls-18" d="M583,160.7c6.5,0,37,0,44.2-.6"/>
    <path class="cls-18" d="M586.8,191.6c6.5,0,37.9-.8,45.4-.8"/>
    <path class="cls-18" d="M584.7,167.1c6.5,0,15.2,0,22.2,0"/>
    <path class="cls-18" d="M585.4,171.9c6.5,0,15.2,0,22.2,0"/>
    <path class="cls-18" d="M585.9,176.4c6.5,0,15.2,0,22.2,0"/>
    <path class="cls-18" d="M586.8,181.6c6.5,0,15.2,0,22.2,0"/>
    <path class="cls-18" d="M587.3,186.4c6.5,0,15.2,0,22.2,0"/>
    <path class="cls-18" d="M607.3,150.4c6.6-.5,13.2-.3,19.8.3"/>
    <path class="cls-18" d="M608.1,154.5c6.5.3,12.9.3,19.4-.2"/>
    <path class="cls-18" d="M635.9,123.9c.8-.8,1.6-1.6,2.4-2.4"/>
    <path class="cls-18" d="M641.9,118.8c3.4-4.1,8.1-6.8,12.7-9.5"/>
    <path class="cls-18" d="M657.4,107.8c.9-.7,1.9-1.4,2.8-2.1"/>
    <path class="cls-18" d="M636.3,130.5c7.5-6.8,15.8-12.7,24.8-17.6"/>
    <path class="cls-18" d="M637.8,150.7c7.5-6.8,12.1-10.9,21.1-15.7"/>
    <path class="cls-18" d="M636.9,136c2.1-2.3,4.5-4.3,7.1-6"/>
    <path class="cls-18" d="M637.6,139.7c1.3-1.3,4-3.1,6.3-5.1"/>
    <path class="cls-18" d="M637.2,144.6c2.4-1.6,4.7-3.2,7-5"/>
    <path class="cls-18" d="M638.3,163.2c2.2-2.2,9-6.8,11.5-8.6"/>
    <path class="cls-18" d="M639.6,167.5c2.2-2.2,9.3-7.6,11.8-9.4"/>
    <path class="cls-18" d="M641.1,171.2c2.2-2.2,9-7.2,11.5-9"/>
    <path class="cls-18" d="M642.5,175.1c2.2-2.2,8.9-7.3,11.4-9.1"/>
    <path class="cls-18" d="M653.8,179.8c2.2-2.2,5.2-4.2,7.7-6"/>
    <path class="cls-18" d="M655.2,183.5c2.2-2.2,5.2-4.2,7.7-6"/>
    <path class="cls-18" d="M656.6,186.9c2.2-2.2,5.2-4.2,7.7-6"/>
    <path class="cls-18" d="M657.9,190c2.2-2.2,5.2-4.2,7.7-6"/>
    <path class="cls-18" d="M643.8,181.1c2.2-2.2,12.3-9.6,14.8-11.4"/>
    <path class="cls-13" d="M659.4,130.4c-4.1,2.4-8.2,5-12,7.9-.3-3.5-.5-7.1-.6-10.7,0-.2,1.1-1.1,1.3-1.3.5-.4,1.1-.9,1.6-1.3,1.1-.8,2.3-1.7,3.4-2.4,2.4-1.6,4.8-3.1,7.2-4.5,0,2-.3,4.1-.5,6.1,0,1.1-.2,2.1-.3,3.2,0,.5,0,1,0,1.5,0,.2,0,1.5-.1,1.5"/>
    <path class="cls-13" d="M655.3,192.7c-2,2-4.3,4.5-6,6.9-.9-2.6-3.5-10.4-4.5-13.8,0-.2,1.1-1.1,1.3-1.3.5-.4,1.1-.9,1.6-1.3,1.1-.8,2.3-1.7,3.4-2.4l4.1,11.9Z"/>
    <path class="cls-18" d="M637.1,156.8c6.6-6.2,14-11.6,21.9-16"/>
    <path class="cls-18" d="M587.3,197.5c2.7-.3,5.4-.5,8-.5"/>
    <path class="cls-18" d="M586.6,201.2c3-.3,6-.5,9.1-.4"/>
    <path class="cls-18" d="M585.6,206.4c3.2-.5,6.5-.9,9.8-1.2"/>
    <path class="cls-18" d="M599.2,196.3c2.2,0,4.4-.2,6.6-.3"/>
    <path class="cls-18" d="M599.6,200.4c2.1-.3,4.2-.4,6.3-.3"/>
    <path class="cls-18" d="M599.2,204.8c2.2-.6,4.5-.9,6.8-.9"/>
    <path class="cls-18" d="M609.9,195.6c2-.3,4.1-.4,6.1-.2"/>
    <path class="cls-18" d="M610.2,199.9c1.7-.3,3.5-.4,5.2-.3"/>
    <path class="cls-18" d="M610.1,203.3c2.3,0,4.6,0,6.8-.2"/>
    <path class="cls-18" d="M620.5,195.4c1.6-.2,3.3-.3,4.9-.2"/>
    <path class="cls-18" d="M620.2,199c1.7,0,3.4-.1,5.1-.2"/>
    <path class="cls-18" d="M620.2,203.4c1.8,0,3.6-.2,5.4-.2"/>
    <path class="cls-18" d="M628.9,195c1.2,0,2.4-.2,3.7-.3"/>
    <path class="cls-18" d="M629.3,198.5c1.6-.2,3.3-.3,4.9-.5"/>
    <path class="cls-18" d="M629.4,203.3c2.4-.3,4.8-.3,7.2.2"/>
    <path class="cls-6" d="M671.1,154.3c.3,2.3.6,4.3,0,6.6-.2,1-.5,2-1.1,2.9-2.1,3.3-7.5,4.4-10.7,2.1-.4-.3-.9-.7-1-1.2-.2-.5,0-1.2.5-1.4-.9-.4-1.9-.8-2.5-1.6-.6-.8-.7-2.1.1-2.7-.9-.3-1.6-1.2-1.5-2.2,0-1,.9-1.8,1.9-1.9-.9-.5-1.3-1.6-1.3-2.6,0-1,.6-1.9,1.3-2.7,1.1-1.2,3.2-2.3,4.9-2-.5-1.1-.5-2.4-.2-3.6,4.3.6,7.9,4.1,9.2,8.2.2.7.3,1.4.4,2"/>
    <path class="cls-17" d="M662.9,154.8c-2.1.5-4.4.9-6.3,0"/>
    <path class="cls-17" d="M664.1,158.7c-2.4.9-5.2,1-7.6,0"/>
    <path class="cls-17" d="M665.5,162.7c-2.2,1.1-4.9,1.2-7.2.3"/>
    <path class="cls-17" d="M664,148.9c-1.3.6-2.6,1.1-3.9,1.7"/>
    <path class="cls-6" d="M572,183.3c1.3,3.8,4.2,8.6,8,9.2,3.6.5,8.6,1,11.1-2.3.3-.4.6-.9.6-1.5,0-.5-.4-1.1-.9-1.2.8-.6,1.6-1.3,1.9-2.3.3-.9,0-2.2-.9-2.6.8-.5,1.2-1.7.8-2.5-.4-.9-1.4-1.4-2.4-1.2.7-.7.8-1.9.5-2.8-.4-.9-1.1-1.7-2-2.2-2.1-1.2-4.9-1.2-6.9.2-.2.1-.4.3-.5.5,0,.2,0,.4.2.6-1-.2-1.3-.3-1.4-1.5,0-.8-.2-1.6-.3-2.4,0-.3-.2-.6-.5-.7-.1,0-.3,0-.4,0-2.4.9-4.7,2.5-6.1,4.7-1.7,2.6-1.8,5.2-.8,8"/>
    <path class="cls-17" d="M584.4,180.7c2.1-.2,4.5-.4,6.1-1.9"/>
    <path class="cls-17" d="M584.4,184.7c2.6.2,5.2-.6,7.3-2.2"/>
    <path class="cls-17" d="M584.3,189c2.5.4,5.1-.3,7-1.8"/>
    <path class="cls-17" d="M581.7,175.4c1.4.2,2.8.3,4.3.5"/>
    <path class="cls-17" d="M586.2,170.5c2.2-2.8,4.6-5.5,7.1-8.1"/>
    <path class="cls-17" d="M591.4,171.4c4.9-2.5,10.2-4.3,15.6-5.1"/>
    <path class="cls-17" d="M595.7,189.6c2.2,1.4,4.7,2.5,7.3,2.9"/>
    <path class="cls-17" d="M608.5,258.9c2.7.3,5.4.1,8.1-.5"/>
    <path class="cls-17" d="M612,262.8c1.7.8,3.5,1.5,5.4,1.9"/>
    <path class="cls-17" d="M641,271.8c-4.5,11.5-9.6,22.9-15.3,33.9"/>
    <path class="cls-13" d="M425.7,337c1.2,1.6,2.9,2.8,4.6,4,1.4,1,2.9,1.8,4.5,2.3,2.1.6,3.3,0,5.4,0,2.3.1,4.8,1.1,6.9,1.9.7.3,1.3.6,2,.6,3.4,0,8.7-5.2,5.9-8.5.5.3.9,0,1.4,0,.6,0,1.2.1,1.8.1,1.3,0,2.5,0,3.7.1,1.4.2,2.8.5,4.1.8,5.8,1.1,11.8,1,17.7.9-.3,1.6,1.3,3,2.7,3.8.6.4,1.2.7,1.8,1.1,1,.6,1.9,1.2,3,1.7,3.6,1.8,7.5,2.8,11.5,2.8.5,0,1,0,1.5.1.8.2,1.4.9,2.1,1.4,2.7,2,6.5,1.1,9.7,0,1.4-.4,2.7-.8,4.1-1.3,1.1-.3,2.3-.8,2.9-1.7.6-1,0-2.6-1.1-2.6,2-2.8-3.1-5.2-5-5.5,2.3-1.1,5-1.2,7.4-.2,1.1.5,2.1,1.1,3.2,1.6,4.2,2,9.1,1.8,13.8,1.5.7,0,1.4,0,2.1-.3,1.9-.5,3.5-2.2,3.7-4.1.2-1.9-1-4-2.9-4.6,0-2.7-2.3-3.8-4.5-4.3-3.4-.9-6.8-1.6-10.3-2.3-1.2-1.7-2.2-3.7-2.7-5.8-.2-.7-.3-1.4-.7-2-.5-.7-1.2-1.1-1.8-1.7-1.2-1.2-1.6-2.8-2.3-4.3-.7-1.5-1.8-3-3.4-3.3-1.5-.2-.9-1.4-1.5-2.9-.6-1.4-.9-3-1.8-4.3-2.3-3.3-7.2-2.9-10.8-4.8-1.4-.7-2.6-1.8-4-2.6-3.3-1.8-7.3-1.6-10.8-.5-1.6.5-3.9,1.2-5.2,2.3-1.3,1.1-1.4,2.7-3.6,2.9-.8,0-1.6,0-2.4,0-1.4.1-2.7,1-4.1,1.2-1.4.2-2.8-.1-4.2-.4-9.6-1.9-19.4.7-28.8,3.3-.8.2-2.2-2.7-2.6-3.1,1.5-2.4,3-5,3.3-7.8.1-1,.1-2.2-.5-3.1-.2-.2-.4-.5-.4-.8,0-.3.1-.5.2-.8.3-.8.2-1.7-.4-2.3-.8-.8-3.2-1.9-4.3-1.2-.8.5-1.2,1.4-1.5,2.3-.3.9-.4,1.8-.7,2.6-.9.2-1.5,1.1-2,1.9-.7,1.2-1.4,2.4-2.1,3.7-1.2,2-2.4,4.3-2.1,6.6,0,.6.2,1.2,0,1.8-.2.6-.7,1.1-.8,1.7,0,.3,0,.7.2,1,.6,1.8,2,3.9,1.8,5.9-.2,1.8-1.7,3.3-2.3,5-.8,2.3-1.6,4.7-1.6,7.2,0,1.2.2,1.9-.1,2.9-.3.9-1.3,1.5-1.6,2.5-.7,2.2,0,4.6,1.2,6.5.1.2.3.4.5.6"/>
    <path class="cls-13" d="M530.6,292.4c-.7-.6-.9-1.6-1.3-2.4-.5-1-1.3-1.8-2.2-2.3-2.5-1.3-2.3-2.8-3.6-4.9-1.4-2.2-2.1-3.7-4.5-4.9-1.6-.8-3.1-1.9-4.5-3.1-1.2-1-2.6-2.2-4.1-2-.3,0-.7.2-1,0-.6-.2-.8-1-1.5-1.2-.5-.2-1,0-1.5,0-1,0-1.9-.7-2.9-.5-.4,0-.8.3-1.2.5-1.4.3-2.8-1-4.1-.6-.8.2-1.3,1-1.8,1.6-1.2,1.4-2.9,2.2-4.6,3-1.7.8-3.5,1.6-5.2,2.4-.5.3-1.1.5-1.4,1-.6.9-.3,2.2-1.1,2.9-.4.4-.9.5-1.3.9-.8.8-.4,2.2-.1,3.3,0,.2.1.5,0,.7,0,.2-.2.2-.4.4-.6.5-.5,1.5,0,2.1.5.6,1.1,1.1,1.7,1.6,1.3,1.2.7,2.6.5,4.1-.7,5.4.3,11.1,3.4,15.6,3.9,5.6,11,8.6,17.7,7.9,3.4-.3,6.9-1.5,9.8-3.3,1.3-.8,2.5-1.7,3.5-2.8,0,0,2.1-2.6,1.6-2.6.9,0,1.5,1,2.3,1.1.4,0,.8,0,1.1-.2,1.3-.5,2.7-1,3.6-2,.2-.3.4-.6.7-.7.8-.4,2,.3,2.6-.4.3-.4.2-1,.5-1.4.3-.5.8-.7,1.3-1,1.4-.9,1.8-3,1-4.3-.2-.3-.5-.7-.5-1.1,0-.4.3-.8.5-1.2,1.1-1.8.3-4.5-1.6-5.5-.5-.2-1-.3-1.4-.7"/>
    <path class="cls-29" d="M517.3,310.6c.4-.2.6-.7.6-1.1,0-.1,0-.3,0-.4,0-.2.3-.2.5-.3.4-.2.4-.7.3-1.1,0-.4-.2-.8,0-1.2.1-.4.5-.6.7-.9.9-1.1-1.1-3.5-2.1-3.9-.2,0-.4,0-.5-.2-.1-.2,0-.4,0-.6.1-1.1-.9-2.2-2-2.2,0-.4,0-.7,0-1.1-1,0-1.9-.2-2.8-.5-1-.3-3.8-2.3-4.7-1.5-.3.2-.6.6-.9.7-.2,0-.5,0-.7.1-1.6.1-3.1,1-3.9,2.3-.1.2-.2.4-.4.5-.2.2-.6.2-.8.3-.5.2-.7.9-.4,1.3-.7.3-1.3.6-1.8,1.2-.4.6-.6,1.4-.3,2-.7,1-1.1,2.2-1.2,3.5,0,1,1.2,3.3,2.1,3.9"/>
    <path class="cls-11" d="M507.7,305.1c-.9-.1-1.7-1-1.7-2,0-1,.9-1.7,1.8-2,.9-.3,1.9-.1,2.8.2.3,0,.6.2.9.4.4.4.6,1,.5,1.5,0,1.2-1.1,2.3-2.3,2.5s-2.5-.4-3.1-1.5"/>
    <path class="cls-29" d="M507.7,305.1c-.9-.1-1.7-1-1.7-2,0-1,.9-1.7,1.8-2,.9-.3,1.9-.1,2.8.2.3,0,.6.2.9.4.4.4.6,1,.5,1.5,0,1.2-1.1,2.3-2.3,2.5s-2.5-.4-3.1-1.5"/>
    <path class="cls-13" d="M487.5,297.4c-.1,2.9.3,5.4-2,7.6-1.3,1.3-2.9,2.6-4.3,3.7-.7.6-3.1,2-4,1.5-.2-.1-.4-.3-.6-.5-.5-.3-1.2-.2-1.4-.8-.1-.4.2-.8,0-1.2-.1-.5-.9-.6-1.2-1-.5-.5-.7-1.9-1.1-2.5-.6-1.2-.4-1.7-.2-2.9.2-1.4-.6-1.9-.8-3.2-.3-1.5,1.1-1.7,1.4-2.9.2-.5,0-1.1-.1-1.6-.2-1.5.8-2.8,2-3.7,1.8-1.4,3.7-3.1,5.6-4.3,1.9-1.2,1.5-.6,3.5-1.6"/>
    <path class="cls-11" d="M499.4,294.8c-.8,0-1.6.4-1.9,1.1-.3.7.1,1.7.9,1.9.9.2,1.7-.7,1.8-1.6,0-.6-.1-1.3-.7-1.4"/>
    <path class="cls-29" d="M499.4,294.8c-.8,0-1.6.4-1.9,1.1-.3.7.1,1.7.9,1.9.9.2,1.7-.7,1.8-1.6,0-.6-.1-1.3-.7-1.4"/>
    <path class="cls-11" d="M514,294.6c.8-.2,1.7,0,2.1.7.5.6.3,1.7-.4,2.1-.8.4-1.8-.3-2.2-1.1-.2-.5-.2-1.3.4-1.5"/>
    <path class="cls-29" d="M514,294.6c.8-.2,1.7,0,2.1.7.5.6.3,1.7-.4,2.1-.8.4-1.8-.3-2.2-1.1-.2-.5-.2-1.3.4-1.5"/>
    <path class="cls-29" d="M503.3,309.3c.8.9,2.2,1.1,3.3.6,1.3-.5,1.8-1.9,2.6-2.9.6.3.8,1.1,1.3,1.5.7.6,1.8.9,2.7.6.4-.1.7-.3,1-.6,0,0,0,0,0,0"/>
    <path class="cls-29" d="M520.2,286.5c.9.6.3,2.4,1.3,2.9.3.1.7.2.8.5,0,.2,0,.4,0,.5,0,.5.5.9.9,1.2.7.5,1.4,1.4,1,2.1-.2.5-.9.9-.7,1.5,0,.2.3.3.5.5,1.1.9,1.1,4.8.3,5.9-.1.1-.2.2-.3.4-.1.4.2.7.3,1.1.1.5-.1,1-.4,1.4-.4.7-.8,1.4-1.2,2"/>
    <path class="cls-29" d="M491.5,295.9c0,.9-.2,2-1,2.3-.2,0-.4.1-.6.3-.6.5,0,1.5-.4,2.2-.3.6-1.2.6-1.5,1.3,0,.2,0,.4,0,.6-.1.5-.7,1-1.2.9-.9.4-.7.7-1.5,1.4-.4.9-1.5,1.5-2.5,1.3-.2,0-.4,0-.6,0-.3,0-.5.2-.8.4-1,.9-2.2,2-3.4,1.5-.4-.1-.7-.4-1.1-.4-.4,0-.8.2-1.2,0-.1,0-.3-.2-.4-.3-.7-.8-1.5-1.6-1.8-2.7"/>
    <path class="cls-29" d="M486.6,308.2c.7,1.6,1.6,3.1,2.7,4.4,1.1,1.2,2.6,2.4,4.2,1.9,0,1.3,1.7,2.3,2.8,1.6,1.2.7,2.4,1.5,3.8,1.6,1.4,0,3-.7,4.1.1.3.2.5.5.9.6.7.2,1.4-.5,2.1-.9,1.5-1,3.6-.5,5.4-1,1.9-.5,3.4-2.1,5.2-3"/>
    <path class="cls-29" d="M440.4,327.5c1.8.7,3.6,1.4,5.5,2.1.5.2,1,.4,1.4.6.4.2.8.5,1.1.8,1.3,1,2.6,1.9,4,2.7.7.4,1.5.8,1.7,1.6.1.4,0,.8.2,1.1.3.9,1.2,1.3,1.4,2.2.1.5,0,1-.2,1.4l-.6,2"/>
    <path class="cls-29" d="M506.6,332.5c.8.1,1.6.3,2.3.7.7.4,1.2,1.2,1.2,2,1.5,0,2.9,1.4,2.8,2.9,1.1,0,2.3.3,3.2.8"/>
    <path class="cls-8" d="M858.1,299.6c-19.8,9.4-45.6,6.9-62.1-8.8-16.1-15.3-21-41.2-11.5-61.2,18.4-38.8,72.6-36.5,94.4-2.1,9.8,15.4,10.4,35.2,1.6,51.3-5.2,9.5-13.1,16.5-22.4,20.8"/>
    <path class="cls-6" d="M785.1,254.5c.3.3.4.9.4,1.3,0,7,.2,13.9.3,20.9,0,2.7,0,5.5-.7,8.1-.6,2.1-1.7,4-2.8,5.8-2.9,4.7-6.4,9.2-11.3,11.7-2.4,1.2-5.2,2-7.8,1.2-2.6-.8-4.7-3.4-4.3-6,.2-1.4,1.1-2.7,2-3.8,2.3-3.1,4.7-6.2,7-9.4.8-1,1.5-2,1.9-3.2.4-1.3.3-2.8.2-4.2-.5-7.4-1-14.9-1.4-22.3-.3-.3.4-.2.9-.2,5.1-.4,10.2-.9,15.4-1.3,0,.8-.2.8.3,1.4"/>
    <path class="cls-1" d="M783.8,288.9s0,0,0,0c-2.5,2.7-6.3,5-9.7,6.6-3.6,1.6-7.8,2.4-11.6,1.2-.6-.2-1.3-.5-1.4-1.1-.2-.6.2-1.2.6-1.7,1.5-2.1,3-4.2,4.3-6.4.7,0,2.5-4.3,2.8-4.9.2-.3.3-.6.4-.9.2-.5.1-1,.1-1.6,0-2.7-.2-5.3-.3-8,0-1,0-2,0-3,0-.4-.4-2.3.6-1.9.8.3,1.4.7,2.3.9,2.3.5,4.6.6,6.9.4,2.2-.2,4.5-.5,6.4-1.7.1,0,.2-.1.3-.2.6-.1.5,2.5.5,2.9,0,1,0,1.9,0,2.9-.1,2.3.4,4.8.4,7.2,0,3.2-.3,6.8-2.6,9.3"/>
    <path class="cls-13" d="M760.6,305.3c.4,0,.9.1,1.3.3,1.9.9,3.2,2.7,5.6,2.7.9,0,1.7-.2,2.5-.5,3.2-1.1,6.4-2.6,8.3-5.4,1-1.5,1.6-3.3,2.6-4.8,1.9-2.8,5.2-4.4,6.9-7.3,1-1.8,1.3-3.9,2.3-5.6-.2-1.1-.4-2.1-.7-3.1-.1-.4-2.1-4.3-3-3.4-.1.1,0,.4,0,.6,0,.3-.2.6-.4.9-1,1.4-2.2,2.5-3.7,3.4-.2.1-3.9,2-3.9,1.5,0-1.8,0-4-1.7-4.9-.5-.3-1.1-.3-1.7-.4-2-.1-4-.3-6-.3-.2,0-.5,0-.7.1-.4.2-.5.8-.5,1.3-.1,2.8-.5,5.4-2.6,7.3-2.5,2.2-4.4,4.8-6.4,7.4-2,2.6-3.2,5.8-3.5,9.1,0,.6,0,1.2.1,1.8.1.5.4,1,.7,1.5,1.2-1.3,3-2.1,4.7-2"/>
    <path class="cls-11" d="M787.7,290.2c-1.7,2.9-5,4.6-6.9,7.3-1,1.5-1.6,3.3-2.6,4.8-1.9,2.8-5.1,4.3-8.3,5.4-.8.3-1.7.5-2.5.5-2.3,0-3.6-1.9-5.6-2.7-.4-.2-.8-.3-1.3-.3-1.8-.2-3.6.6-4.7,2,0,.1.1.2.2.3.6.9,1.4,1.9,2.4,2.4.6.3,1.3.5,1.9.6,3.8.7,7.7,0,11.2-1.6,2.4-1.1,4.7-2.9,6.4-4.9,2-2.4,2.9-5.5,5-7.8,2.1-2.3,5.2-3.8,6.5-6.6.6-1.3.7-2.7.6-4.2,0-.3,0-.6-.1-.9-.9,1.8-1.3,3.9-2.3,5.6"/>
    <path class="cls-6" d="M816,266.1c.3.4.3.9.3,1.4-.5,7.3-1.1,14.6-1.6,21.9-.2,2.9-.4,5.8-1.5,8.4-.8,2.1-2.1,4-3.5,5.9-3.5,4.7-7.6,9.1-12.9,11.3-2.6,1.1-5.6,1.6-8.3.5-2.6-1-4.6-4-3.9-6.7.4-1.5,1.4-2.7,2.5-3.8,2.7-3.1,5.5-6.1,8.2-9.2.9-1,1.8-2,2.3-3.2.6-1.4.6-2.9.6-4.3.2-7.9.3-15.7.5-23.6-.3-.4.5-.1.9-.1,5.4,0,10.8,0,16.2,0-.1.8-.3.8.2,1.5"/>
    <path class="cls-1" d="M811.6,302s0,0,0,0c-2.9,2.6-7.1,4.7-10.8,6-3.9,1.4-8.4,1.8-12.3.2-.6-.2-1.3-.6-1.4-1.3-.1-.6.3-1.2.8-1.7,1.8-2,3.5-4.1,5.1-6.3.7,0,3-4.3,3.4-4.9.2-.3.4-.6.5-.9.2-.5.2-1.1.3-1.6.2-2.8.3-5.6.4-8.4,0-1,.1-2.1.2-3.1,0-.4-.2-2.4.8-1.9.8.4,1.5.9,2.3,1.1,2.4.7,4.8,1,7.3,1,2.3,0,4.8,0,6.9-1.3.1,0,.2-.1.4-.2.7,0,.3,2.7.3,3.1,0,1,0,2-.2,3.1-.3,2.5,0,5.1-.3,7.6-.3,3.4-1,7.1-3.5,9.5"/>
    <path class="cls-5" d="M793.6,187.2c.7,2.6,2,5.1,3.5,7.3,1.9,2.9,4.4,5.6,7.5,7,6.3,2.9,13.8.2,19.6-3.8,8.7-6,15.6-15.2,17.1-25.6.2-1.3.3-2.6,0-3.9-1-3.3-5-4.7-8.5-5.1-4-.4-8.1,0-12.1.4-4,.5-8,1.1-12,1.9-3.3.6-9,.8-11.9,2.7-2.3,1.5-2.5,5.4-3,7.9-.7,3.7-1,7.4,0,11.1"/>
    <path class="cls-5" d="M794.3,173.1c-10,6.8-18.4,16-26.6,24.7-4.4,4.7-5.8,8.5-5.7,15.1.2,14.5,2.2,29,4.2,43.4,0,.6.2,1.3.5,1.8.5.8,1.4,1.1,2.3,1.4,3.5,1.2,7.2,1.8,10.9,1.6,2.1-.1,6.2-1.2,7.4-3,.5-.7.6-1.6.6-2.4,1-12.1,1.5-24.3,1.5-36.5,0-.5,0-1,.3-1.4.2-.3.5-.5.8-.7,6.3-4.2,12.5-8.4,18.8-12.6"/>
    <path class="cls-5" d="M834.1,171.6c3.1-.7,7.8,1.5,10.8,2.2,7,1.6,10,3.3,10.6,10.2.5,5.7,0,11.5-1.6,17-2,7.1-6.4,13.2-11.8,18.1-2.7,2.4-5.6,4.6-8.7,6.4-2.2,1.3-6.4,2.8-7.7,5-.4.7-.5,1.4-.6,2.2-1.3,10-2.5,19.9-3.8,29.9-.6,4.8-1.6,7.6-6.5,8.6-5.3,1-10.8.6-15.8-1.1-1.1-.4-2.3-.9-3.1-1.8-.9-1.1-1.1-2.7-1.3-4.2-.5-4.9-.9-9.8-1.4-14.7-.4-4.6-.9-9.1-1.3-13.7-.9-9-1.6-18.8,3.6-26.7,2.8-4.2,5.4-8.6,8.8-12.3"/>
    <path class="cls-6" d="M902.5,123.3c4.7,2.4,13.2,5.6,17.6,8.2,5.1,2.9,14.5,5.9,17.3,11.5,2,4-.9,7.7-4.8,8.8-.8.2-1.6.1-2.5,0-17.7-2.1-34.2-11-49.9-19-2.2-1.1-4.6-2.2-6.7-3.5-2.3-1.5-3.6-1.4-3.1-3.9.9-4.6,4.5-9.9,6.7-14.1.2-.4.4-.8.8-.9.4,0,.7,0,1,.3,9.1,4.8,14.6,7.3,23.4,12.6,0,0,0,0,.1,0"/>
    <path class="cls-6" d="M759.4,67.6c-3.2-.9-6.4-1.6-9.5-2.6-2.9-.9-5.7-1.4-8.4-2.9-.4-.2-.8-.4-1-.8-.6-.7-.8-2-1-2.9-.2-1.1-.1-2.2-.2-3.3-.2-2.7-.6-5.6-2.1-8-.1-.2-.2-.3-.4-.4-.4-.2-.8,0-1,.5s-.1.8,0,1.2c.2,1.6.3,3.2.5,4.9-.3-2.3-.7-4.6-1.2-6.9-.2-.9-.5-1.9-1.2-2.5-.2-.2-.5-.3-.7-.3-.4,0-.7.3-.8.7-.1.3,0,.7,0,1.1.1,2.2.3,4.3.4,6.5-.2-2.5-.4-4.9-.9-7.4-.2-.7-.4-2.3-1.3-2.5-1-.2-1.3,1.1-1.3,1.8-.2,2.7-.1,5.5.2,8.2-.4-1.6-.6-3.2-.7-4.8,0-1-.1-1.9-.5-2.8-.2-.4-.4-.8-.8-.8-.2,0-.5,0-.7.2-.9.7-.9,2-1,3.1-.1,1.5-.1,3.1-.1,4.7,0,3.1.2,6.2.5,9.3-1.4.4-2.5-1-3.5-1.9-1-.9-3.1-1.4-3.5,0-.2.6.1,1.2.4,1.8,2.9,5.1,7.1,9.3,12.2,12.1,1.8,1,3.6,1.8,5.4,2.7,6.6,3.8,13,8,20,11,11.1,4.8,22.1,9.5,33.2,14.3,1.8.8,4-10.4,4.2-11.4.4-1.8,2-4.4,2.1-6.1.1-2.1-3.3-3-5.4-4-10.2-4.8-20.8-8.7-31.7-11.7"/>
    <path class="cls-10" d="M817.4,182.9c7.1,1.3,14.5,1.7,21.7,1,3.8-.4,7.6-1.1,11.3-2.1,3.2-.8,4.4-2.4,6.7-4.8.5-.5.9-1,1.1-1.6.2-.7,0-1.4-.2-2-3.5-13.6-3.2-28.5,1.8-41.6-.6,1.5,16.8,5.4,19.4,2.9,1.8-1.6,2.6-6.4,3.5-8.7,1.5-3.7,3-7.5,4.5-11.2.1-.4.3-.8.2-1.2,0-.5-.5-.8-.8-1.1-8.9-7.9-19.1-14.3-30-18.9-7.2-3-14.4-5.9-21.9-8.2-7.4-2.3-15-3-22.4-5.2-3.7-1.1-7.4-2.3-11.2-3.3-6.1-1.6-12.4-2.4-18.8-2.5-2.5,0-5.9,9.1-6.7,10.9-3.4,8.5-.5,15.4,6.8,20.4,3.7,2.5,8,4.3,12.2,6-2.4,7.3-2.8,15.4-.9,22.9.4,1.7,1,3.5,1.2,5.2.2,1.9,0,3.8-.3,5.6-1.3,7.9-3.2,15.8-4.9,23.6-.1.5-.2,1,0,1.5.2.6.8,1.1,1.3,1.5,8.4,6.2,16.2,9,26.5,10.8"/>
    <path class="cls-6" d="M927.1,148.5c-1.4-1.4-2.8-3.1-3.6-4.8-1.1-2.2-1.9-4.6-2.4-7-.3-1.5-.1-6.6,2.3-4,.7.8,1.1,1.8,1.6,2.8.5,1,1.2,1.9,2.2,2.3-.2-2.7-.6-5.5-.6-8.2,0-2.8.3-5.6,1.2-8.2.7-2,2.1-1.5,2.8.2.1-1.3.4-2.8,1.3-3.8.2-.2.4-.4.7-.4.1,0,.3,0,.4.1.7.4,1.2,1.2,1.4,1.9.3.8.4,1.6.6,2.4,0-.5,0-1,.2-1.4.7-1.6,2-.5,2.5.5.8,1.6,1.2,3.1,1.4,4.9,0-.3,0-.5.1-.8.1-.2.4-.4.6-.4.2,0,.3.2.5.4,1.1,1.5,1.5,3.6,1.7,5.4.3,2.1.1,4.3.3,6.4.2,2,.2,3.7-.3,5.6-.7,2.8-2,5.5-4.5,7.2-1.1.7-2.4,1.2-3.7,1.4"/>
    <path class="cls-22" d="M927.1,148.5c-1.4-1.4-2.8-3.1-3.6-4.8-1.1-2.2-1.9-4.6-2.4-7-.3-1.5-.1-6.6,2.3-4,.7.8,1.1,1.8,1.6,2.8.5,1,1.2,1.9,2.2,2.3-.2-2.7-.6-5.5-.6-8.2,0-2.8.3-5.6,1.2-8.2.7-2,2.1-1.5,2.8.2.1-1.3.4-2.8,1.3-3.8.2-.2.4-.4.7-.4.1,0,.3,0,.4.1.7.4,1.2,1.2,1.4,1.9.3.8.4,1.6.6,2.4,0-.5,0-1,.2-1.4.7-1.6,2-.5,2.5.5.8,1.6,1.2,3.1,1.4,4.9,0-.3,0-.5.1-.8.1-.2.4-.4.6-.4.2,0,.3.2.5.4,1.1,1.5,1.5,3.6,1.7,5.4.3,2.1.1,4.3.3,6.4.2,2,.2,3.7-.3,5.6-.7,2.8-2,5.5-4.5,7.2-1.1.7-2.4,1.2-3.7,1.4"/>
    <path class="cls-22" d="M929.5,139.9c2.2.4,4.3,1.7,5.5,3.6"/>
    <path class="cls-22" d="M931.6,136.1c2.2-.7,4.6-.9,6.9-.6"/>
    <path class="cls-16" d="M804.2,138.3c5.5,10.2,15,18.1,26.1,21.5"/>
    <path class="cls-16" d="M825.1,231.8c.1-1.9,1.4-8.4,1.5-10.3"/>
    <path class="cls-6" d="M818.6,86c0-.1,0-.3-.1-.4-.1-.2-.3-.2-.5-.2-2.9-.7-5.4-2.8-7-5.3-2.7-4.4-2.9-8.6-1.6-13.5.1-.5.2-1,.2-1.5.5-4.4,1.9-8.4,5-11.7.8-.9,1.7-1.7,2.7-2.3,3.6-2.3,7.2-1.6,11-.4,4,1.3,7.5,3.7,9.8,7.3,1.6,2.4,2,5.1,3,7.7.4,1.1.8,2.1.6,3.2-.2,1.2-.9,2.2-1.5,3.2-.8,1.4-1.6,2.8-2.3,4.3-.5,1.1-1,2.2-1.1,3.3,0,.7,0,1.5.2,2.2.2.8.3,1.7.6,2.5.2.6.7,1.3.7,1.9,0,.8-.7,1.5-1.3,2.1-4.2,3.5-8.8,7-14.2,7.6-2.7.3-2.5-1.8-2.9-3.7-.4-2.1-.9-4.2-1.3-6.4"/>
    <path class="cls-11" d="M821.3,67.1c1.3-.4,1.4,1.9.1,1.8-.9-.1-1.1-1.4-.2-1.7,0,0,0,0,.1,0"/>
    <path class="cls-16" d="M821.3,67.1c1.3-.4,1.4,1.9.1,1.8-.9-.1-1.1-1.4-.2-1.7,0,0,0,0,.1,0Z"/>
    <path class="cls-11" d="M812.1,66.2c1.3-.4,1.4,1.9.1,1.8-.9-.1-1.1-1.4-.2-1.7,0,0,0,0,.1,0"/>
    <path class="cls-16" d="M812.1,66.2c1.3-.4,1.4,1.9.1,1.8-.9-.1-1.1-1.4-.2-1.7,0,0,0,0,.1,0Z"/>
    <path class="cls-16" d="M817.4,67.9c-.7,0-1.3.3-1.9.7-.3.2-.7.5-.8.9-.3.7,0,1.5.5,2,.5.5,1.3.7,2,.8"/>
    <path class="cls-1" d="M844.1,67.3c1.5-1.4,2.3-3.3,2.8-5.3.9-4.6-.6-10-4.7-12.4-1-.6-1.2-.9-1.8-2-1.9-3.8-6.1-6.2-10.3-6-.8-2.3-3.1-3.8-5.5-4.5-.8-.3-1.7-.5-2.6-.5-2.5-.2-5.1.8-7,2.4-1.9,1.6-3.3,3.9-4,6.3-.5,1.8-.7,3.8-.4,5.6.4,1.9,1.5,3.1,2.4,4.7-.1-.2,1.1-1.5,1.3-1.7,1-1.1,1.5-1.6,2.1-2,.5-.4,1.1-.5,1.8-.5,1.8,0,3.7.1,5.5.4,1.1.2,2.2.4,3.1.9,3,1.6,3.8,5.7,4.1,8.7.3,2.2-.1,4.7.4,6.8.1.5.6.9,1,.7.7-.2,1.1-1.2,1.9-1.5.8-.3,1.9.1,2.7.5.8.4,1.5,1.1,1.7,2,.2.8,0,1.8-.7,2.3-.3.2-.8.4-1.1.6-.6.3-.8.2-.9.9-.4,2.1.5,4.4,1.8,6,1.8,2.2,4.7,2.1,7.1.8,2.6-1.4,4.9-4.6,4.3-7.6-.2-1.3-1.1-2.5-2.1-3.4-.5-.5-1.3-.8-1.9-1.1-.4-.1-1.7-.6-2-.4.4-.2.7-.5,1-.8"/>
    <path class="cls-6" d="M836,73c1-.2,2.1-.5,2.7-1.4.2-.3.3-.7.4-1.1.2-1.3-.4-2.6-1.5-3.3-1.4-1-3.9-.8-4.4,1.1"/>
    <path class="cls-16" d="M836,73c1-.2,2.1-.5,2.7-1.4.2-.3.3-.7.4-1.1.2-1.3-.4-2.6-1.5-3.3-1.4-1-3.9-.8-4.4,1.1"/>
    <path class="cls-19" d="M839.2,50.2c-2.9-.1-5.8.7-8.2,2.3"/>
    <path class="cls-15" d="M822.2,57.8c-1.8-.7-3.7-1-5.7-.9"/>
    <path class="cls-15" d="M819.5,73.6c1.6,1,2.9,2.5,3.9,4.2"/>
    <path class="cls-16" d="M824.4,63.4c-1-.3-2.1-.5-3.1-.6"/>
    <path class="cls-16" d="M812.2,61.6c1,0,2,.2,2.9.6"/>
    <path class="cls-30" d="M831,49c-1.1-1.3-2.4-2.5-3.9-3.3"/>
    <path class="cls-30" d="M828.7,50.7c-3-1.6-6.4-2.4-9.8-2.3"/>
    <path class="cls-4" d="M838.7,81.7c-.7.4-1.3,1.1-1.8,1.7-2.8,3-6.5,5.1-10.4,6-1.1.3-2.3.4-3.4.2-1.3-.2-2.5-.8-3.8-.9-2.7,0-3.8,2.2-3.4,4.7.4,2.2,2.1,4,4.2,4.9,2,.9,4.4,1.1,6.6.9,4.2-.4,8.3-1.9,11.7-4.4,2.2-1.6,4.3-3.9,4.7-6.6.5-2.7-1.1-5.9-3.9-6.4"/>
    <path class="cls-4" d="M836.2,95c1.3.5,2.6,1.2,3.8,1.9,0,0,.2.1.2.2,0,0,0,.2,0,.3-.4,1.9-1.1,3.4-2,5.1,0,.1-.1.2-.2.3-.1,0-.3,0-.4,0-2.6-.4-5.2-1.2-7.6-2.2-1-.4-2.1-.8-2.7-1.7-.6-.9-.7-2-.8-3.1-.1-2.3,1.1-2.5,3.1-2.4,2.2.2,4.4.7,6.6,1.5"/>
    <path class="cls-4" d="M823.8,87.3c-1.9.4-3.3,2.3-3.6,4.2-.4,2-.3,4.2.2,6.2.2.7.4,1.4.9,1.9.8,1,2.2,1.4,3.5,1.4,1.4,0,3.2-.1,4.5-.6-.9-.5-1.2-1.6-1.5-2.6-.6-2.2-1-4.8-.4-7.1.2-.8,1-2,.3-2.7-.7-.8-3-.9-4-.7"/>
    <path class="cls-15" d="M822.7,94.7c-.1,1.5.5,3,1.6,4"/>
    <path class="cls-16" d="M811.1,64.8c1,.3,1.9.9,2.6,1.7"/>
    <path class="cls-16" d="M820.5,66c1,.3,1.9.9,2.6,1.7"/>
    <path class="cls-16" d="M813.1,74.7c1.9,1.2,3.8,1.2,5.9,1.1,0,0,0,0,.1,0,0,0,0,0,0,0,.6,1.7-.9,3-2.4,3.1-.7,0-1.4,0-2-.4-.6-.4-1.1-.9-1.2-1.6"/>
    <path class="cls-15" d="M820.1,90.7c-1.2,3.1-1.2,6.2,1,8.9"/>
    <path class="cls-15" d="M828.2,90.2c-.2,1.5-.4,3.1-.3,4.6s.4,3.1,1.2,4.5"/>
    <path class="cls-15" d="M829.5,92.9c2.2.3,4.3,1,6.2,2.2"/>
    <path class="cls-22" d="M930.8,123.5c.1,3.5.4,7,.8,10.5"/>
    <path class="cls-22" d="M935.1,124c.2,3,.5,6,.7,9.1"/>
    <path class="cls-22" d="M939.1,127.7c0,1.8.1,3.5.2,5.3"/>
    <path class="cls-16" d="M798.4,102.2c-1.2,3-2.5,5.9-3.7,8.9"/>
    <path class="cls-16" d="M849.5,127.8c2.8,1.8,5.9,3.1,9.1,3.9"/>
    <path class="cls-16" d="M848.7,133.9c1.5.3,3.1.4,4.7.3"/>
    <path class="cls-16" d="M793.8,214.1c4-6.4,8.8-12.3,14.2-17.6"/>
    <path class="cls-16" d="M818.5,244c-2.7,5-5.7,9.9-9,14.5-1.6,2.2-3.5,4.5-6.1,5.3"/>
    <path class="cls-13" d="M785.8,317.2c.5,0,.9.2,1.3.4,2,1.1,3.1,3.1,5.6,3.4.9,0,1.8-.1,2.7-.3,3.4-.8,7-2.2,9.2-4.9,1.2-1.5,2-3.4,3.2-4.9,2.2-2.8,5.9-4.2,7.9-7.1,1.2-1.8,1.8-4,2.9-5.7,0-1.1-.2-2.2-.4-3.3,0-.5-1.8-4.8-2.9-3.9-.2.1-.1.4-.2.6,0,.3-.3.6-.5.9-1.2,1.4-2.6,2.4-4.2,3.2-.3.1-4.3,1.7-4.2,1.2.3-1.9.3-4.3-1.3-5.2-.5-.3-1.2-.4-1.8-.5-2.1-.3-4.2-.6-6.2-.9-.3,0-.5,0-.8,0-.5.2-.6.8-.7,1.3-.4,2.9-1,5.6-3.4,7.4-2.8,2.1-5.1,4.7-7.4,7.2-2.4,2.6-3.9,5.8-4.5,9.3,0,.6-.2,1.3,0,1.9.1.6.3,1.1.6,1.6,1.3-1.3,3.3-2,5.2-1.6"/>
    <path class="cls-11" d="M815.6,303.8c-2,2.9-5.7,4.3-7.9,7.1-1.2,1.5-2,3.3-3.2,4.9-2.2,2.8-5.7,4.1-9.2,4.9-.9.2-1.8.4-2.7.3-2.4-.2-3.6-2.3-5.6-3.4-.4-.2-.9-.4-1.3-.4-1.8-.3-3.8.3-5.2,1.6,0,.1.1.2.2.3.6,1,1.3,2.1,2.3,2.7.6.4,1.3.6,2,.8,3.9,1.1,8.1.7,11.9-.7,2.6-.9,5.2-2.6,7.1-4.6,2.3-2.3,3.6-5.5,5.9-7.7,2.4-2.2,5.8-3.5,7.5-6.3.7-1.3,1-2.8,1-4.3s0-.7,0-1c-1.1,1.8-1.7,4-2.9,5.7"/>
    <path class="cls-16" d="M765.6,210.8c2.3,1.9,4.9,3.6,7.6,5"/>
    <path class="cls-22" d="M728.4,44.7c.7,2.8,1.1,5.7,1.1,8.7"/>
    <path class="cls-22" d="M732,44.3c.3,2.9.7,5.8,1,8.7"/>
    <path class="cls-22" d="M734.9,45.8c.7,2.4,1.1,4.8,1.2,7.2"/>
    <path class="cls-22" d="M732.7,63.3c1.7-1.1,3.8-1.6,5.9-1.5"/>
    <path class="cls-2" d="M917.1,332.1c2.2.7,5.7-4.1,7.7-10.6,2.1-6.6,2-12.4-.2-13.1l-9-2.9-7.6,23.8,9,2.9Z"/>
    <path class="cls-2" d="M908.1,329.2c2.2.7,5.7-4.1,7.7-10.6,2.1-6.6,2-12.4-.2-13.1-2.2-.7-5.7,4.1-7.7,10.6-2.1,6.6-2,12.4.2,13.1"/>
    <path class="cls-2" d="M908.4,321.7c.9.3,2.3-1.7,3.2-4.4.9-2.7.8-5.2,0-5.5l-21.7-6.9-3.1,9.9,21.7,6.9Z"/>
    <path class="cls-2" d="M887.9,322.8c2.2.7,5.7-4.1,7.7-10.6,2.1-6.6,2-12.4-.2-13.1l-9-2.9-7.6,23.8,9,2.9Z"/>
    <path class="cls-2" d="M878.9,319.9c2.2.7,5.7-4.1,7.7-10.6,2.1-6.6,2-12.4-.2-13.1-2.2-.7-5.7,4.1-7.7,10.6-2.1,6.6-2,12.4.2,13.1"/>
    <path class="cls-16" d="M882.2,316.6c1.7-2.5,3-5.2,3.9-8.1,1.1-3.4,1.8-7.3.8-10.8"/>
    <path class="cls-16" d="M894.7,314.5c1-2.1,1.7-4.2,2.1-6.5"/>
    <path class="cls-16" d="M910.3,327.4c3.3-2.8,7.4-12.9,6-20.5"/>
    <path class="cls-16" d="M908.7,321c1.8-1.2,3.5-5.8,2.6-8.5"/>
    <path class="cls-1" d="M859.6,328.1c0,2.3,5.6,4.2,12.5,4.2s12.5-1.9,12.5-4.2v-9.4h-24.9v9.4Z"/>
    <path class="cls-1" d="M859.6,318.6c0,2.3,5.6,4.2,12.5,4.2s12.5-1.9,12.5-4.2-5.6-4.2-12.5-4.2-12.5,1.9-12.5,4.2"/>
    <path class="cls-1" d="M866.9,316.7c0,1,2.3,1.7,5.2,1.7s5.2-.8,5.2-1.7v-22.8h-10.4v22.8Z"/>
    <path class="cls-1" d="M859.6,297.4c0,2.3,5.6,4.2,12.5,4.2s12.5-1.9,12.5-4.2v-9.4h-24.9v9.4Z"/>
    <path class="cls-1" d="M859.6,287.9c0,2.3,5.6,4.2,12.5,4.2s12.5-1.9,12.5-4.2-5.6-4.2-12.5-4.2-12.5,1.9-12.5,4.2"/>
    <path class="cls-16" d="M863.8,290.1c2.9.8,5.9,1.3,8.9,1.3,3.6,0,7.5-.5,10.5-2.5"/>
    <path class="cls-16" d="M869.5,301.4c2.3.3,4.6.3,6.8,0"/>
    <path class="cls-16" d="M862,320.1c3.6,2.3,14.6,3.2,21.3-.5"/>
    <path class="cls-16" d="M867.7,316.7c1.7,1.3,6.6,1.6,8.9,0"/>
  </g>
</svg>