<?xml version="1.0" encoding="UTF-8"?>
<svg id="_레이어_1" data-name="레이어 1" xmlns="http://www.w3.org/2000/svg" version="1.1" viewBox="0 0 380 85">
  <defs>
    <style>
      .cls-1 {
        fill: #000;
      }

      .cls-1, .cls-2 {
        stroke-width: 0px;
      }

      .cls-2 {
        fill: #fff;
      }

      .cls-3 {
        fill: none;
        stroke: #708cd9;
        stroke-linecap: round;
        stroke-linejoin: round;
      }
    </style>
  </defs>
  <g>
    <path class="cls-1" d="M108.1,14c0-.7.2-1.3.3-1.9,0-.6.1-1.2.2-1.7,0-.6,0-1.1.1-1.6,0-.5,0-1.1,0-1.6s0-1-.3-1.3c-.2-.2-.5-.4-1-.4s-.7,0-1,0c-.3,0-.6,0-.8,0-.3,0-.5,0-.8,0-.2,0-.5,0-.8,0-.3,0-.5-.1-.5-.5v-1.2c0-.3.2-.5.5-.5.4,0,.8,0,1.1-.1.3,0,.6,0,.9,0s.6,0,.8,0c.3,0,.5,0,.8,0,.6,0,1.1,0,1.5.2.4.1.7.3,1,.6.3.3.5.6.6,1.1.1.4.2,1,.2,1.6s0,1.3,0,1.9c0,.6,0,1.2-.1,1.8,0,.6-.1,1.2-.2,1.8,0,.6-.2,1.2-.3,1.8,0,.2,0,.3-.2.4,0,0-.2,0-.4,0h-1.3c-.2,0-.3,0-.4-.1,0,0-.1-.2,0-.4ZM114.8,16.2c0,.4-.2.5-.5.5h-1.3c-.4,0-.5-.2-.5-.5V2.9c0-.4.2-.5.5-.5h1.3c.4,0,.5.2.5.5v5.4c0-.1.2-.2.4-.3s.4-.1.6-.1h.5c.3,0,.5.2.5.5v1.2c0,.3-.2.5-.5.5h-.6c-.3,0-.5,0-.7.2-.2.2-.3.4-.3.6v5.2Z"/>
    <path class="cls-1" d="M125.2,6.1c0,.5,0,1-.3,1.5-.2.4-.4.8-.8,1.1-.3.3-.7.5-1.2.7-.5.2-1,.3-1.6.3s-1.1,0-1.5-.3c-.5-.2-.9-.4-1.2-.7-.3-.3-.6-.7-.8-1.1-.2-.4-.3-.9-.3-1.5s0-1,.3-1.5c.2-.4.4-.8.8-1.1s.7-.6,1.2-.7c.5-.2,1-.2,1.6-.2s1.1,0,1.6.2c.5.2.9.4,1.2.7.3.3.6.7.8,1.1.2.4.3.9.3,1.5ZM121.1,16.8c-.7,0-1.2-.1-1.6-.4-.4-.3-.6-.7-.6-1.3l-.2-3.9c0-.2,0-.3.1-.4,0,0,.2-.1.4-.1h1.3c.3,0,.5.2.5.5v.6h5.9v-.6c0-.4.2-.5.6-.5h1.3c.2,0,.3,0,.4.1s.1.2.1.4l-.2,3.9c0,.6-.2,1-.6,1.3-.4.3-.9.4-1.6.4h-5.9ZM121.5,4.7c-.4,0-.8.1-1.1.4s-.4.6-.4,1.1.1.8.4,1.1.6.4,1.1.4.8-.1,1.1-.4c.3-.3.4-.6.4-1.1s-.1-.8-.4-1.1c-.3-.3-.6-.4-1.1-.4ZM121.3,14.3c0,.3.2.5.5.5h4.6c.3,0,.5-.2.5-.5v-.7s-5.6,0-5.6,0v.7ZM127.1,2.9c0-.4.2-.5.5-.5h1.3c.4,0,.5.2.5.5v6.2c0,.4-.2.5-.5.5h-1.3c-.4,0-.5-.2-.5-.5V2.9Z"/>
    <path class="cls-1" d="M138.4,3.4c.4,0,.5.2.5.5v1.1c0,.4-.2.5-.5.5h-2.1v3.7c0,.4,0,.8.2,1.2.1.4.3.7.5,1,.2.3.4.5.7.7.3.2.6.3.9.3.3,0,.5.2.5.5v1.2c0,.3-.2.5-.5.4-.4,0-.8-.2-1.1-.3-.4-.1-.7-.3-1-.6-.3-.2-.5-.5-.8-.8-.2-.3-.4-.6-.5-1-.1.4-.3.7-.5,1-.2.3-.5.6-.8.8-.3.2-.6.4-1,.6-.4.1-.7.3-1.2.3-.2,0-.3,0-.4,0s-.1-.2-.1-.4v-1.2c0-.3.2-.5.5-.5.3,0,.6-.2.9-.3.3-.2.5-.4.7-.7.2-.3.4-.6.5-1,.1-.4.2-.8.2-1.2v-3.7h-2.1c-.4,0-.5-.2-.5-.5v-1.1c0-.4.2-.5.5-.5h6.6ZM142.7,16.2c0,.4-.2.5-.5.5h-1.3c-.4,0-.5-.2-.5-.5V2.9c0-.4.2-.5.5-.5h1.3c.4,0,.5.2.5.5v5.4c0-.1.2-.2.4-.3s.4-.1.6-.1h.5c.3,0,.5.2.5.5v1.2c0,.3-.2.5-.5.5h-.6c-.3,0-.5,0-.7.2-.2.2-.3.4-.3.6v5.2Z"/>
    <path class="cls-1" d="M157.7,15.6c0,.4-.2.5-.5.5h-1.3c-.4,0-.5-.2-.5-.5v-1.8c0-.2,0-.3.1-.5,0-.1.2-.2.4-.3-1,0-1.9,0-2.8,0s-1.6-.1-2.3-.2c-.4,0-.5-.2-.5-.5v-1.2c0-.2,0-.3.1-.4s.2-.1.4,0c.7,0,1.5.2,2.5.2,1,0,2.1,0,3.2,0s1.2,0,1.8,0,1.1,0,1.6,0c.5,0,1,0,1.4,0,.4,0,.7,0,1-.1.2,0,.3,0,.4,0,0,0,.1.2.1.4v1.2c0,.3-.2.4-.5.5-.4,0-.9.1-1.6.2s-1.5,0-2.3,0-.7.2-.7.7v1.9ZM156.6,7.1c-.2.4-.4.7-.6,1-.3.3-.6.6-1,.8-.4.2-.8.4-1.3.5s-1,.2-1.5.2-.2,0-.3,0c0,0-.2,0-.3,0,0,0-.1,0-.2-.1,0,0,0-.2,0-.3v-1.2c0-.3.2-.5.5-.5.6,0,1.1,0,1.5-.2s.8-.4,1.1-.6.5-.6.7-1c.1-.4.2-.8.2-1.2v-1.1c0-.4.2-.5.5-.5h1.3c.4,0,.5.2.5.5v1.1c0,.4,0,.9.2,1.2s.4.7.7,1,.7.5,1.1.6c.4.1.9.2,1.5.2s.5.2.5.5v1.2c0,.1,0,.2,0,.3,0,0-.1.1-.2.1,0,0-.2,0-.3,0,0,0-.2,0-.3,0-.5,0-1,0-1.5-.2-.5-.1-.9-.3-1.3-.5-.4-.2-.7-.5-1-.8-.3-.3-.5-.6-.6-1Z"/>
  </g>
  <g>
    <path class="cls-1" d="M130.4,45.4c0,1.3-.2,2.6-.6,3.7-.4,1.2-1,2.3-1.9,3.3-.9,1.1-1.9,2.1-3.2,3-1.3,1-2.8,1.9-4.6,2.9-3.7,2-6.1,3.7-7.1,5.3h17.4c.9,0,1.4.5,1.4,1.4v3.4c0,.9-.5,1.4-1.4,1.4h-22.8c-1.7,0-2.5-.8-2.5-2.5s.2-2.7.6-3.9c.4-1.2,1.1-2.3,1.9-3.4.9-1.1,2-2.1,3.4-3.2,1.4-1,3.1-2.1,5.1-3.2,1.4-.8,2.6-1.5,3.6-2.1,1-.6,1.8-1.3,2.4-1.9.6-.6,1.1-1.2,1.4-1.9.3-.6.4-1.3.4-2,0-1.5-.5-2.6-1.6-3.4-1.1-.8-2.5-1.2-4.4-1.2s-3.3.4-4.4,1.2c-1.1.8-1.6,2-1.6,3.4s-.5,1.4-1.4,1.4h-3.5c-1,0-1.4-.5-1.4-1.4,0-3.5,1.1-6.2,3.2-8,2.1-1.9,5.2-2.8,9.2-2.8s7,.9,9.1,2.7c2.2,1.8,3.2,4.4,3.2,7.8Z"/>
    <path class="cls-1" d="M137.7,65.8c1.2,0,2.1.4,2.8,1.1.7.7,1,1.7,1,3s-.2,1.7-.5,2.4c-.3.7-.8,1.4-1.4,1.9-.6.5-1.3,1-2,1.3-.8.3-1.6.5-2.6.5s-.6-.2-.6-.6v-1c0-.4.2-.6.5-.6.5,0,.9-.1,1.2-.2.3-.1.5-.3.7-.5-.9-.2-1.6-.6-2.1-1.2-.5-.6-.8-1.4-.8-2.3s.3-2,1-2.7c.7-.7,1.6-1,2.7-1Z"/>
    <path class="cls-1" d="M169.5,45.4c0,1.3-.2,2.6-.6,3.7-.4,1.2-1,2.3-1.9,3.3-.9,1.1-1.9,2.1-3.2,3-1.3,1-2.8,1.9-4.6,2.9-3.7,2-6.1,3.7-7.1,5.3h17.4c.9,0,1.4.5,1.4,1.4v3.4c0,.9-.5,1.4-1.4,1.4h-22.8c-1.7,0-2.5-.8-2.5-2.5s.2-2.7.6-3.9c.4-1.2,1.1-2.3,1.9-3.4.9-1.1,2-2.1,3.4-3.2,1.4-1,3.1-2.1,5.1-3.2,1.4-.8,2.6-1.5,3.6-2.1,1-.6,1.8-1.3,2.4-1.9.6-.6,1.1-1.2,1.4-1.9.3-.6.4-1.3.4-2,0-1.5-.5-2.6-1.6-3.4-1.1-.8-2.5-1.2-4.4-1.2s-3.3.4-4.4,1.2c-1.1.8-1.6,2-1.6,3.4s-.5,1.4-1.4,1.4h-3.5c-1,0-1.4-.5-1.4-1.4,0-3.5,1.1-6.2,3.2-8,2.1-1.9,5.2-2.8,9.2-2.8s7,.9,9.1,2.7c2.2,1.8,3.2,4.4,3.2,7.8Z"/>
    <path class="cls-1" d="M184.5,54.8c-.9,0-1.4-.5-1.4-1.4v-3.4c0-.9.5-1.4,1.4-1.4,2.7,0,4.6-.3,5.7-.9,1.1-.6,1.7-1.7,1.7-3.2s-.5-2-1.6-2.6c-1-.6-2.5-.9-4.4-.9-4,0-6,1.1-6,3.4s-.5,1.4-1.4,1.4h-3.5c-1,0-1.4-.5-1.4-1.4,0-3,1.1-5.4,3.2-7,2.1-1.6,5.2-2.5,9.2-2.5s7,.8,9.1,2.3c2.2,1.5,3.2,3.6,3.2,6.3s-.4,3.3-1.3,4.6c-.9,1.3-2.1,2.3-3.5,3,2,.5,3.6,1.6,4.8,3.2,1.2,1.6,1.8,3.5,1.8,5.7s-.3,3-.9,4.3c-.6,1.3-1.5,2.4-2.7,3.2-1.2.9-2.6,1.6-4.3,2.1-1.7.5-3.6.7-5.7.7s-4-.2-5.7-.7c-1.7-.4-3.1-1.1-4.3-1.9-1.2-.8-2.1-1.8-2.7-3-.6-1.2-.9-2.5-.9-4s.5-1.4,1.4-1.4h3.5c1,0,1.4.5,1.4,1.4s.6,1.9,1.9,2.5c1.3.6,3.1.9,5.4.9,4.9,0,7.3-1.5,7.3-4.6s-.1-1.6-.4-2.2c-.3-.6-.8-1.1-1.5-1.4-.7-.4-1.7-.6-2.8-.8-1.2-.1-2.6-.2-4.4-.2Z"/>
    <path class="cls-1" d="M216.2,70.3c-4.6,0-8.1-.9-10.6-2.6-2.4-1.7-3.6-4.3-3.6-7.6s.6-3.8,1.7-5.3c1.1-1.5,2.6-2.6,4.4-3.1-1.5-.6-2.6-1.5-3.5-2.9s-1.3-3-1.3-4.9.3-2.6.9-3.7c.6-1.1,1.5-2,2.6-2.8,1.1-.8,2.5-1.4,4.1-1.8,1.6-.4,3.4-.6,5.3-.6s3.7.2,5.3.6c1.6.4,3,1,4.1,1.8,1.1.8,2,1.7,2.6,2.8.6,1.1.9,2.3.9,3.7s-.4,3.5-1.3,4.9-2,2.3-3.5,2.9c1.8.6,3.3,1.6,4.4,3.1,1.1,1.5,1.7,3.3,1.7,5.3,0,3.3-1.2,5.9-3.6,7.6-2.4,1.7-5.9,2.6-10.6,2.6ZM216.2,55.1c-5.3,0-7.9,1.5-7.9,4.6s2.6,4.7,7.9,4.7,7.9-1.6,7.9-4.7-2.6-4.6-7.9-4.6ZM216.2,40.9c-2.1,0-3.8.4-4.9,1.1-1.2.7-1.7,1.7-1.7,3.1s.6,2.3,1.7,3c1.2.7,2.8,1.1,4.9,1.1s3.8-.4,4.9-1.1c1.2-.7,1.7-1.7,1.7-3s-.6-2.4-1.7-3.1c-1.2-.7-2.8-1.1-4.9-1.1Z"/>
    <path class="cls-1" d="M238.7,54.6c-1.8,0-3.3-.5-4.3-1.4-1-.9-1.6-2.1-1.6-3.7v-13.3c0-1.7.8-2.5,2.5-2.5h11.1c2,0,3.6.6,4.8,1.8,1.2,1.2,1.8,2.9,1.8,5.1s-.4,3.6-1.2,5.1c-.8,1.6-1.9,2.7-3.3,3.4h2.8c.9,0,1.4.5,1.4,1.4v2.8c0,.9-.5,1.4-1.4,1.4h-12.6ZM246.7,72.6c-3.4,0-6-.8-7.8-2.3-1.8-1.5-2.7-3.6-2.7-6.4s0-2,0-2.6c0-.6.1-1.2.2-1.7,0-.5.2-.8.4-1.1.2-.2.6-.4,1-.4h3.5c.5,0,.8.1,1.1.4.3.2.4.6.3,1.1,0,.7-.2,1.2-.2,1.7,0,.5,0,1,0,1.6,0,2.5,1.6,3.7,5,3.7s5.4,0,8.1-.2c2.6-.1,5.1-.3,7.5-.6.4,0,.8,0,1,.3.2.3.3.6.4,1.1l.2,3.2c0,.8-.4,1.3-1.4,1.4-1.1.1-2.2.2-3.4.3-1.2.1-2.4.2-3.8.2-1.3,0-2.8.1-4.3.2-1.5,0-3.2,0-5,0ZM243,48.9c1.1,0,2-.5,2.7-1.5.7-1,1-2.3,1-3.8s-.3-2.3-.8-3.1c-.6-.7-1.4-1.1-2.5-1.1h-2.9c-.9,0-1.4.5-1.4,1.4v6.4c0,.5.2.9.5,1.2.4.3.9.5,1.5.5h1.8ZM263.4,58.7c0,1-.5,1.4-1.4,1.4h-3.5c-1,0-1.4-.5-1.4-1.4v-24.5c0-1,.5-1.4,1.4-1.4h3.5c1,0,1.4.5,1.4,1.4v9.9c.2-.4.6-.7,1.1-.9.5-.2,1-.3,1.6-.3h1.4c.9,0,1.4.5,1.4,1.4v3.2c0,.9-.5,1.4-1.4,1.4h-1.6c-.8,0-1.4.2-1.8.7-.5.5-.7,1-.7,1.7v7.6Z"/>
    <path class="cls-1" d="M286.4,52.9c-1.8,0-3.2-.4-4.2-1.3-1-.8-1.5-2.1-1.5-3.6v-11.7c0-1.7.8-2.5,2.5-2.5h10.6c2,0,3.6.5,4.8,1.5,1.2,1,1.8,2.5,1.8,4.5s-.4,3.2-1.2,4.6c-.8,1.4-1.8,2.4-3.2,3h2.8c.9,0,1.4.5,1.4,1.4v2.8c0,.9-.5,1.4-1.4,1.4h-12.4ZM298.2,55.6c10,0,14.9,2.8,14.9,8.5s-5,8.5-14.9,8.5-8.9-.7-11.3-2.1-3.7-3.5-3.7-6.4,1.2-5,3.7-6.4c2.5-1.4,6.2-2.1,11.3-2.1ZM290.4,47.2c1.1,0,2-.4,2.7-1.2.7-.8,1-1.9,1-3.2,0-2.2-1.1-3.3-3.3-3.3h-2.5c-.9,0-1.4.5-1.4,1.4v4.8c0,1.1.7,1.6,2,1.6h1.4ZM298.2,67c1.6,0,3,0,4.1-.2,1.1-.1,2-.3,2.6-.5s1.1-.5,1.4-.9.4-.8.4-1.3-.1-1-.4-1.3c-.3-.4-.8-.7-1.4-.9-.7-.2-1.5-.4-2.6-.5-1.1-.1-2.5-.2-4.1-.2s-3,0-4.1.2c-1.1.1-2,.3-2.7.5-.7.2-1.2.5-1.4.9-.3.4-.4.8-.4,1.3s.1,1,.4,1.3c.3.4.8.7,1.4.9.7.2,1.6.4,2.7.5,1.1.1,2.5.2,4.1.2ZM305.8,34.2c0-1,.5-1.4,1.4-1.4h3.5c1,0,1.4.5,1.4,1.4v18.4c0,1-.5,1.4-1.4,1.4h-3.5c-1,0-1.4-.5-1.4-1.4v-2.8c-.4.6-1.2,1-2.3,1h-1c-.9,0-1.4-.5-1.4-1.4v-3c0-.9.5-1.4,1.4-1.4h1.6c.7,0,1.1-.1,1.4-.4.2-.3.4-.7.4-1.3v-2.4c-.4.6-1.2,1-2.3,1h-1c-.9,0-1.4-.5-1.4-1.4v-3c0-.9.5-1.4,1.4-1.4h1.6c.8,0,1.2-.1,1.4-.4.2-.3.3-.7.3-1.3v-.3Z"/>
  </g>
  <path class="cls-2" d="M15.6,16.1c-3.5,0-6.4-2.9-6.4-6.4s2.9-6.4,6.4-6.4,6.4,2.9,6.4,6.4-2.9,6.4-6.4,6.4M61.6,16.1c-3.5,0-6.4-2.9-6.4-6.4s2.9-6.4,6.4-6.4,6.4,2.9,6.4,6.4-2.9,6.4-6.4,6.4M38.6,17c-4.2,0-7.6-3.4-7.6-7.6s3.4-7.6,7.6-7.6,7.6,3.4,7.6,7.6-3.4,7.6-7.6,7.6M43.3,83.2c-2.1,0-3.9-1.2-4.7-3-.8,1.8-2.6,3-4.7,3s-5.2-2.3-5.2-5.2v-24.7c-2.1-.9-3.7-2.5-4.7-4.4v18.7c0,2.4-2,4.4-4.4,4.4s-3.2-1-3.9-2.4c-.7,1.4-2.2,2.4-3.9,2.4s-4.4-2-4.4-4.4v-20.6c-3-1.4-5-4.4-5-7.7v-12.9c0-4.5,3.6-8.1,8.1-8.1h10.4c.5,0,1.1.9,1.7,1h31.8c.6-.2,1.5-1,2.2-1h10.4c4.5,0,8.1,3.6,8.1,8.1v12.9c0,3.3-1.9,6.3-4.9,7.7v20.6c0,2.4-2,4.4-4.4,4.4s-3.2-1-3.9-2.4c-.7,1.4-2.2,2.4-3.9,2.4s-4.4-2-4.4-4.4v-18.8c-1,1.9-2.7,3.5-4.7,4.5v24.7c0,2.9-2.3,5.2-5.2,5.2"/>
  <path class="cls-3" d="M54.6,19c.6-.1,1.2-.2,1.8-.2h10.4c4.2,0,7.6,3.4,7.6,7.6v12.9c0,3.3-2,6.1-4.8,7.3M53.7,55v12.5c0,2.2,1.8,3.9,3.9,3.9s3.9-1.8,3.9-3.9v-7.8M69.5,30.3v37.3c0,2.2-1.8,3.9-3.9,3.9s-3.9-1.8-3.9-3.9v-17M67.5,9.7c0,3.3-2.7,5.9-5.9,5.9s-5.9-2.7-5.9-5.9,2.7-5.9,5.9-5.9,5.9,2.7,5.9,5.9ZM7.7,46.7c-2.9-1.2-5-4.1-5-7.4v-12.9h0c0-4.2,3.4-7.6,7.6-7.6h10.4c.5,0,1,0,1.5.2M7.7,30.3v37.3c0,2.2,1.8,3.9,3.9,3.9s3.9-1.8,3.9-3.9v-7.8M23.4,55v12.5c0,2.2-1.8,3.9-3.9,3.9s-3.9-1.8-3.9-3.9v-17M21.5,9.7c0,3.3-2.7,5.9-5.9,5.9s-5.9-2.7-5.9-5.9,2.7-5.9,5.9-5.9,5.9,2.7,5.9,5.9ZM29.2,53c-3.5-1.4-5.9-4.8-5.9-8.8v-15.4c0-5,4.1-9.1,9.1-9.1h12.4c5,0,9.1,4.1,9.1,9.1v15.4c0,3.9-2.4,7.3-5.7,8.7M29.2,33.4v44.6c0,2.6,2.1,4.7,4.7,4.7s4.7-2.1,4.7-4.7v-9.4M48,33.4v44.6c0,2.6-2.1,4.7-4.7,4.7s-4.7-2.1-4.7-4.7v-20.3M45.7,9.4c0,3.9-3.2,7.1-7.1,7.1s-7.1-3.2-7.1-7.1,3.2-7.1,7.1-7.1,7.1,3.2,7.1,7.1Z"/>
</svg>