<svg width="48" height="48" viewBox="0 0 48 48" fill="none" xmlns="http://www.w3.org/2000/svg">
<rect width="48" height="48" rx="24" fill="#7245AB"/>
<path d="M16.03 19.28C16.11 17.14 16.81 15.49 18.13 14.33C19.45 13.17 21.24 12.59 23.5 12.59C25 12.59 26.28 12.85 27.34 13.37C28.42 13.89 29.23 14.6 29.77 15.5C30.33 16.4 30.61 17.41 30.61 18.53C30.61 19.85 30.28 20.93 29.62 21.77C28.96 22.59 28.19 23.15 27.31 23.45V23.57C28.45 23.95 29.35 24.58 30.01 25.46C30.67 26.34 31 27.47 31 28.85C31 30.09 30.71 31.19 30.13 32.15C29.57 33.09 28.74 33.83 27.64 34.37C26.56 34.91 25.27 35.18 23.77 35.18C21.37 35.18 19.45 34.59 18.01 33.41C16.59 32.23 15.84 30.45 15.76 28.07H20.74C20.76 28.95 21.01 29.65 21.49 30.17C21.97 30.67 22.67 30.92 23.59 30.92C24.37 30.92 24.97 30.7 25.39 30.26C25.83 29.8 26.05 29.2 26.05 28.46C26.05 27.5 25.74 26.81 25.12 26.39C24.52 25.95 23.55 25.73 22.21 25.73H21.25V21.56H22.21C23.23 21.56 24.05 21.39 24.67 21.05C25.31 20.69 25.63 20.06 25.63 19.16C25.63 18.44 25.43 17.88 25.03 17.48C24.63 17.08 24.08 16.88 23.38 16.88C22.62 16.88 22.05 17.11 21.67 17.57C21.31 18.03 21.1 18.6 21.04 19.28H16.03Z" fill="white"/>
</svg>
