<svg width="360" height="604" viewBox="0 0 360 604" fill="none" xmlns="http://www.w3.org/2000/svg">
<g clip-path="url(#clip0_672_27325)">
<rect width="360" height="604" fill="#FF926A"/>
<path d="M366.176 180.525C361.842 183.265 357.61 180.444 354.723 178.16C349.426 173.972 345.011 168.778 341.323 162.813C339.186 159.36 342.565 159.522 342.778 157.81C344.284 145.696 349.066 133.758 335.953 123.656C329.209 118.462 328.665 107.516 321.995 100.97C321.767 100.743 321.686 100.486 321.708 100.192C321.723 100.008 321.774 99.8097 321.855 99.604C321.973 99.2954 322.171 98.9575 322.377 98.6122C323.141 97.3486 324.228 95.9087 323.765 94.6378C323.494 93.9031 322.7 93.2273 321.003 92.691C321.003 92.691 321.003 92.691 321.003 92.6836C318.829 86.2114 315.706 84.5144 309.072 88.4374C300.117 93.7342 292.051 101.933 279.959 99.6848C277.402 99.2073 275.925 101.183 276.822 104.049C264.619 99.6774 261.218 87.5852 256.994 77.8879C253.225 69.2485 250.051 60.1168 243.858 53.4463C233.588 42.3972 231.994 27.8072 225.933 15.1346C219.409 1.49955 205.855 -10.7837 191.368 -9.09402C181.457 -7.93328 181.854 -11.6359 183.794 -18.3652C181.876 -18.3652 179.959 -18.3652 178.034 -18.3652C179.599 -16.7564 178.541 -14.8096 177.395 -14.4496C164.693 -10.4531 154.239 -1.24802 141.089 1.47016C135.439 2.63825 130.15 4.43078 125.132 7.02408C114.788 12.3576 108.243 2.38848 99.5959 0.970612C99.3315 0.926533 99.067 0.838371 98.8025 0.720829C98.5748 0.617979 98.3397 0.49309 98.112 0.360855C96.4957 -0.557451 94.9016 -1.85043 93.3515 1.08815C93.1311 0.250656 92.9107 -0.579493 92.6903 -1.40964C91.39 -0.0652428 90.0896 1.27916 88.7893 2.61621C88.0326 0.889799 87.4743 -0.843962 84.9986 -0.998238C77.946 -1.45372 70.9007 -2.04143 63.8628 -2.70996C59.8517 -3.08463 58.4706 -0.212168 56.6927 2.46194C52.5787 8.66234 46.2534 10.6238 39.3331 10.4181C35.6305 10.3079 32.0233 10.1757 30.7157 4.41609C29.7974 0.368198 22.0028 -0.19013 20.6364 2.50602C16.4195 10.8589 11.659 6.59799 7.58906 3.93123C1.77802 0.118422 -2.28456 -0.528069 -9.3298 3.1525C-16.4779 6.88449 -26.0944 5.856 -34.6236 7.00204C-36.159 7.20774 -37.6356 7.83219 -39.1343 8.25828C-45.68 6.65676 -51.2559 13.5183 -57.9853 10.4181C-57.9853 11.6964 -57.9853 12.9747 -57.9853 14.253C-56.156 14.1648 -54.3268 14.0767 -52.5049 13.9812C-52.211 14.3558 -51.9686 14.7232 -51.7776 15.0758C-48.8831 20.3211 -56.4279 22.9438 -55.9797 27.5794C-54.0256 28.63 -55.8695 29.4748 -56.2515 30.4005C-56.4499 30.2315 -56.6042 30.0699 -56.7364 29.9083C-56.7658 29.8715 -56.7952 29.8348 -56.8172 29.7981C-56.9274 29.6438 -57.0156 29.4895 -57.067 29.3352C-57.067 29.3279 -57.0743 29.3205 -57.0743 29.3205C-57.1258 29.1442 -57.1405 28.9753 -57.1184 28.8063C-57.1184 28.7989 -57.1184 28.7989 -57.1184 28.7916C-57.0964 28.6226 -57.0303 28.461 -56.9274 28.2994C-57.1037 28.3067 -57.2874 28.27 -57.4637 28.1671C-57.64 28.0643 -57.8237 27.91 -58 27.6896C-58 30.8853 -58 34.0884 -58 37.2841C-57.5886 37.0417 -57.1992 36.88 -56.8319 36.7772C-54.2459 36.1013 -52.5563 38.6873 -50.3523 39.4219C-50.3523 39.4146 -50.3597 39.4072 -50.3597 39.3925H-50.3523C-49.9042 40.0096 -49.4561 40.6341 -49.0079 41.2512L-49.2136 41.2218L-49.3459 41.1997C-48.5672 41.7948 -47.7958 42.3899 -47.0244 42.9849C-47.0244 42.9849 -47.0244 42.9849 -47.0244 42.9923C-44.1373 46.6288 -44.174 52.5133 -38.5466 54.056C-42.3668 60.1756 -36.5704 67.3457 -40.5816 73.5682C-40.9048 74.0751 -39.3694 76.3011 -38.2528 77.1165C-33.4408 80.6501 -25.0879 80.8559 -26.9613 90.5238C-27.2111 91.8021 -23.4644 92.7718 -21.4514 89.3483C-17.1097 81.9725 -8.01478 79.5261 -3.73915 71.6655C-4.26075 80.1653 1.47683 86.902 -1.07974 95.0639C-1.66011 96.9078 2.27023 104.614 5.95815 108.471C10.8656 113.606 15.9199 110.925 21.3563 108.809C36.7324 102.829 40.8391 105.577 48.1708 125.17C50.316 130.907 50.698 138.092 58.5514 139.877C59.4256 145.269 58.8232 149.398 52.1673 150.816C47.4215 151.83 40.413 153.233 41.7207 159.419C42.874 164.855 48.7879 169.079 54.8341 169.425C60.4688 169.74 61.9087 172.312 64.715 176.771C70.8934 186.579 75.3453 196.107 74.5152 208.045C73.9128 216.772 70.842 224.883 68.6527 233.03C66.2357 242.052 72.0394 249.971 69.4535 258.728C68.7482 261.108 74.0744 263.452 76.4767 265.457C82.6918 270.651 82.0673 278.505 85.8801 284.492C87.6947 287.342 84.2198 288.481 81.6927 290.2C76.6016 293.66 68.9907 294.145 68.3295 303.813C68.0209 308.346 58.7497 309.044 53.2546 310.594C43.9025 313.231 45.2469 321.731 42.9328 328.247C40.8244 334.176 46.3709 333.897 49.1699 335.594C53.3721 338.143 57.4861 341.177 63.0106 338.187C65.288 336.953 67.8299 337.394 68.3368 341.067C68.6527 343.381 70.4526 345.585 72.4729 345.93C80.9066 347.363 80.7744 353.526 80.385 359.668C80.1205 363.885 81.0168 365.832 85.3732 368.168C96.2166 373.986 103.6 383.191 105.091 396.084C107.008 396.084 108.926 396.084 110.851 396.084C113.194 387.651 117.881 380.833 125.58 376.609C127.792 375.397 128.379 373.986 128.041 372.216C126.117 362.173 132.104 354.614 135.645 346.195C138.157 340.2 142.514 338.797 147.539 340.876C151.77 342.632 156.193 342.683 160.329 344.079C165.038 345.666 169.505 347.892 170.313 340.105C170.364 339.576 170.893 339.091 171.194 338.584C179.342 346.077 181.531 334.345 187.312 333.449C194.468 332.339 197.928 325.566 202.806 320.879C205.532 318.256 211.064 318.484 215.097 320.291C220.166 322.569 220.511 321.871 223.303 316.199C227.689 307.31 227.608 298.509 229.797 289.833C232.273 280.018 242.066 269.542 252.608 269.395C261.629 269.27 274.588 270.828 278.298 284.374C279.011 286.968 282.28 288.87 284.587 291.309C286.041 289.252 287.121 287.68 288.26 286.152C296.87 274.633 298.258 274.582 309.41 283.309C312.841 285.991 316.257 290.803 321.701 287.049C326.439 283.772 324.346 279.063 323.119 275.133C322.362 272.708 322.076 271.856 324.118 269.748C329.136 264.568 328.834 264.275 325.315 257.861C336.982 255.121 355.59 234.793 356.597 223.7C372.149 217.008 380.715 205.209 382.316 188.371C382.831 183.001 385.123 179.452 391 179.254C391 178.615 391 177.976 391 177.337C382.552 176.867 374.03 175.559 366.176 180.525Z" fill="#FFA87F"/>
<path d="M366.176 173.883C361.842 176.623 357.61 173.802 354.723 171.517C349.426 167.33 345.011 162.136 341.323 156.171C339.186 152.718 342.565 152.879 342.778 151.168C344.284 139.053 349.066 127.115 335.953 117.014C329.209 111.82 328.665 100.874 321.995 94.3283C321.767 94.1006 321.686 93.8434 321.708 93.5496C321.723 93.3659 321.774 93.1676 321.855 92.9619C321.973 92.6533 322.171 92.3154 322.377 91.9701C323.141 90.7065 324.228 89.2666 323.765 88.003C323.494 87.2684 322.7 86.5925 321.003 86.0562C321.003 86.0562 321.003 86.0562 321.003 86.0489C318.829 79.5766 315.706 77.8796 309.072 81.8026C300.117 87.0994 292.051 95.298 279.959 93.05C277.402 92.5725 275.925 94.5487 276.822 97.4138C264.619 93.0427 261.218 80.9504 256.994 71.2531C253.225 62.6137 250.051 53.4821 243.858 46.8115C233.588 35.7624 231.994 21.1724 225.933 8.49979C219.409 -5.13521 205.855 -17.4185 191.368 -15.7288C181.457 -14.568 181.854 -18.2707 183.794 -25C181.876 -25 179.959 -25 178.034 -25C179.599 -23.3911 178.541 -21.4443 177.395 -21.0843C164.693 -17.0879 154.239 -7.88278 141.089 -5.1646C135.439 -3.99652 130.15 -2.20398 125.132 0.389315C114.788 5.72283 108.243 -4.24629 99.5959 -5.66416C99.3315 -5.70824 99.067 -5.79639 98.8025 -5.91394C98.5748 -6.01679 98.3397 -6.14168 98.112 -6.27391C96.4957 -7.19222 94.9016 -8.48519 93.3515 -5.54662C93.1311 -6.38411 92.9107 -7.21426 92.6903 -8.04441C91.39 -6.70001 90.0896 -5.35561 88.7893 -4.01856C88.0326 -5.74497 87.4743 -7.47873 84.9986 -7.63301C77.946 -8.08848 70.9007 -8.6762 63.8628 -9.34473C59.8517 -9.7194 58.4706 -6.84694 56.6927 -4.17283C52.5787 2.02757 46.2534 3.98907 39.3331 3.78337C35.6305 3.67317 32.0233 3.54094 30.7157 -2.21868C29.7974 -6.26657 22.0028 -6.8249 20.6364 -4.12875C16.4195 4.22416 11.659 -0.0367794 7.58906 -2.70354C1.77802 -6.51634 -2.28456 -7.16283 -9.3298 -3.48227C-16.4779 0.249729 -26.0944 -0.778776 -34.6236 0.36727C-36.159 0.572971 -37.6356 1.19742 -39.1343 1.62352C-45.68 0.0219917 -51.2559 6.88357 -57.9853 3.78337C-57.9853 5.06165 -57.9853 6.33993 -57.9853 7.61821C-56.156 7.53006 -54.3268 7.44189 -52.5049 7.34639C-52.211 7.72106 -51.9686 8.08839 -51.7776 8.44102C-48.8831 13.6864 -56.4279 16.3091 -55.9797 20.9447C-54.0256 21.9952 -55.8695 22.84 -56.2515 23.7657C-56.4499 23.5967 -56.6042 23.4351 -56.7364 23.2735C-56.7658 23.2368 -56.7952 23.2 -56.8172 23.1633C-56.9274 23.009 -57.0156 22.8547 -57.067 22.7005C-57.067 22.6931 -57.0743 22.6858 -57.0743 22.6858C-57.1258 22.5095 -57.1405 22.3405 -57.1184 22.1715C-57.1184 22.1642 -57.1184 22.1642 -57.1184 22.1568C-57.0964 21.9879 -57.0303 21.8262 -56.9274 21.6646C-57.1037 21.672 -57.2874 21.6352 -57.4637 21.5324C-57.64 21.4295 -57.8237 21.2753 -58 21.0549C-58 24.2506 -58 27.4536 -58 30.6493C-57.5886 30.4069 -57.1992 30.2453 -56.8319 30.1424C-54.2459 29.4665 -52.5563 32.0525 -50.3523 32.7871C-50.3523 32.7798 -50.3597 32.7724 -50.3597 32.7577H-50.3523C-49.9042 33.3748 -49.4561 33.9993 -49.0079 34.6164L-49.2136 34.587L-49.3459 34.565C-48.5672 35.16 -47.7958 35.7551 -47.0244 36.3502C-47.0244 36.3502 -47.0244 36.3502 -47.0244 36.3575C-44.1373 39.994 -44.174 45.8785 -38.5466 47.4213C-42.3668 53.5408 -36.5704 60.711 -40.5816 66.9334C-40.9048 67.4403 -39.3694 69.6663 -38.2528 70.4817C-33.4408 74.0154 -25.0879 74.2211 -26.9613 83.889C-27.2111 85.1673 -23.4644 86.137 -21.4514 82.7136C-17.1097 75.3377 -8.01478 72.8914 -3.73915 65.0307C-4.26075 73.5305 1.47683 80.2672 -1.07974 88.4291C-1.66011 90.2731 2.27023 97.9795 5.95815 101.836C10.8656 106.972 15.9199 104.29 21.3563 102.174C36.7324 96.1943 40.8391 98.9419 48.1708 118.535C50.316 124.272 50.698 131.457 58.5514 133.242C59.4256 138.635 58.8232 142.763 52.1673 144.181C47.4215 145.195 40.413 146.598 41.7207 152.784C42.874 158.22 48.7879 162.445 54.8341 162.79C60.4688 163.106 61.9087 165.677 64.715 170.136C70.8934 179.944 75.3453 189.472 74.5152 201.41C73.9128 210.138 70.842 218.248 68.6527 226.395C66.2357 235.417 72.0394 243.336 69.4535 252.093C68.7482 254.473 74.0744 256.817 76.4767 258.823C82.6918 264.016 82.0673 271.87 85.8801 277.857C87.6947 280.708 84.2198 281.846 81.6927 283.565C76.6016 287.026 68.9907 287.51 68.3295 297.178C68.0209 301.711 58.7497 302.409 53.2546 303.959C43.9025 306.596 45.2469 315.096 42.9328 321.613C40.8244 327.541 46.3709 327.255 49.1699 328.959C53.3721 331.508 57.4861 334.542 63.0106 331.552C65.288 330.318 67.8299 330.759 68.3368 334.432C68.6527 336.746 70.4526 338.95 72.4729 339.296C80.9066 340.728 80.7744 346.892 80.385 353.033C80.1205 357.25 81.0168 359.197 85.3732 361.533C96.2166 367.352 103.6 376.557 105.091 389.45C107.008 389.45 108.926 389.45 110.851 389.45C113.194 381.016 117.881 374.198 125.58 369.974C127.792 368.762 128.379 367.352 128.041 365.581C126.117 355.538 132.104 347.979 135.645 339.56C138.157 333.565 142.514 332.162 147.539 334.241C151.77 335.997 156.193 336.048 160.329 337.444C165.038 339.031 169.505 341.257 170.313 333.47C170.364 332.941 170.893 332.456 171.194 331.949C179.342 339.442 181.531 327.71 187.312 326.814C194.468 325.705 197.928 318.931 202.806 314.244C205.532 311.621 211.064 311.849 215.097 313.656C220.166 315.934 220.511 315.236 223.303 309.564C227.689 300.675 227.608 291.874 229.797 283.198C232.273 273.383 242.066 262.907 252.608 262.76C261.629 262.635 274.588 264.193 278.298 277.74C279.011 280.333 282.28 282.236 284.587 284.675C286.041 282.618 287.121 281.046 288.26 279.517C296.87 267.998 298.258 267.947 309.41 276.674C312.841 279.356 316.257 284.168 321.701 280.414C326.439 277.137 324.346 272.428 323.119 268.498C322.362 266.073 322.076 265.221 324.118 263.113C329.136 257.934 328.834 257.64 325.315 251.226C336.982 248.486 355.59 228.158 356.597 217.065C372.149 210.373 380.715 198.574 382.316 181.736C382.831 176.366 385.123 172.818 391 172.619C391 171.98 391 171.341 391 170.702C382.552 170.224 374.03 168.917 366.176 173.883Z" fill="#FFDBB7"/>
<path d="M108.847 233.623L88.2031 233.33V233.322H88.0782H87.9533V233.33L44.6093 233.954L46.3577 245.194C46.3577 245.194 48.973 277.283 87.9533 277.416C87.9974 277.416 88.0341 277.416 88.0782 277.416C88.1223 277.416 88.159 277.416 88.2031 277.416C90.1132 277.408 91.9351 277.32 93.6762 277.173C100.868 270.018 107.818 257.066 108.847 233.623Z" fill="#D4C2A4"/>
<path d="M108.847 233.623C107.818 257.066 100.868 270.017 93.6761 277.173C127.433 274.205 129.799 245.194 129.799 245.194L131.547 233.954L108.847 233.623Z" fill="#BEA989"/>
<path d="M131.885 231.661C131.885 248.932 112.27 262.934 88.071 262.934C63.8718 262.934 44.2568 248.932 44.2568 231.661C44.2568 214.389 63.8718 200.387 88.071 200.387C112.27 200.387 131.885 214.389 131.885 231.661Z" fill="#EEE2CB"/>
<path d="M88.0782 202.053C65.1059 202.053 46.4827 215.306 46.4827 231.659C46.4827 235.068 47.2981 238.337 48.7821 241.378C49.2302 240.071 50.4865 238.197 54.0275 237.984C54.0275 237.984 53.8585 236.566 56.0257 236.985C58.1929 237.404 61.1902 235.986 62.5199 234.906C63.8497 233.826 72.6801 230.66 75.6774 233.657C75.6774 233.657 80.842 232.908 83.1708 236.155C84.5519 238.08 84.9707 239.821 85.0809 240.93C88.0929 240.93 98.6204 240.004 101.662 239.725C101.574 239.387 101.493 239.042 101.405 238.689C101.405 238.689 101.405 235.567 104.152 236.192C104.152 236.192 118.265 235.567 119.763 241.812C119.763 241.812 123.011 238.44 125.758 240.937C125.758 240.937 126.324 241.481 126.867 242.333C128.667 239.02 129.659 235.42 129.659 231.652C129.674 215.306 111.051 202.053 88.0782 202.053Z" fill="#BEA989"/>
<path d="M84.295 215.709C84.295 215.709 90.5395 210.839 91.6635 212.712L91.7883 214.211C91.7883 214.211 95.0355 214.585 97.6582 217.333C97.6582 217.333 110.896 214.211 112.77 221.954C114.643 229.697 95.0355 232.445 95.0355 232.445C95.0355 232.445 82.4216 229.073 84.295 215.709Z" fill="#00A623"/>
<path d="M94.9103 233.443C94.9103 233.443 94.9103 231.695 97.0334 231.445C97.0334 231.445 96.1592 230.321 97.1583 229.447C97.1583 229.447 94.7854 228.447 93.4116 229.197L94.2858 227.074C94.2858 227.074 96.5339 226.949 98.4072 227.948C98.4072 227.948 100.031 222.453 106.275 222.827C106.275 222.827 109.273 219.331 114.268 219.83C114.268 219.83 115.892 220.954 116.017 222.453C116.017 222.453 121.262 224.326 122.886 227.199C122.886 227.199 123.01 228.198 122.136 228.822C122.136 228.822 128.256 234.817 125.258 242.06L96.9012 241.686L94.9103 233.443Z" fill="#FF872B"/>
<path d="M97.783 229.823C97.783 229.823 109.523 234.818 118.147 227.949L119.396 229.448C119.396 229.448 112.902 236.442 98.2825 232.195L97.783 229.823Z" fill="#FF4D07"/>
<path d="M113.276 234.319C113.276 234.319 122.269 237.816 123.767 242.187L125.516 241.313C125.516 241.313 121.519 235.693 115.4 233.32" fill="#FF4D07"/>
<path d="M105.533 220.457C105.533 220.457 101.412 227.95 107.157 232.821L109.904 232.946C109.904 232.946 104.409 229.574 106.532 220.207L105.533 220.457Z" fill="#FF4D07"/>
<path d="M88.2913 224.577C90.2895 222.204 88.666 220.081 88.666 220.081C91.7882 217.333 90.4144 213.712 89.2904 214.836C88.1664 215.96 86.7926 215.71 86.7926 215.71C87.7918 213.087 83.1708 212.962 83.1708 212.962C83.1708 212.962 82.9211 210.09 79.5491 210.34C76.177 210.589 75.4277 215.21 75.4277 215.21C75.4277 215.21 72.0557 213.712 71.0565 214.836C70.0574 215.96 73.0548 217.333 73.0548 217.333C69.6828 217.958 69.3081 221.455 69.3081 221.455L78.5499 235.942C78.5499 235.942 90.0398 234.568 91.7882 230.322C93.5367 226.076 88.2913 224.577 88.2913 224.577Z" fill="#FF4D07"/>
<path d="M73.0548 217.334C73.0548 217.334 79.2993 217.834 79.2993 225.327C79.2993 225.826 84.5447 225.826 86.5429 231.571C86.5429 231.571 86.1682 225.327 81.2975 224.453C81.2975 224.453 81.7971 217.334 73.0548 217.334Z" fill="#EF2313"/>
<path d="M86.2929 215.834C86.2929 215.834 86.2415 215.871 86.1606 215.937C86.359 215.856 86.572 215.782 86.7924 215.709L86.2929 215.834Z" fill="#EF2313"/>
<path d="M83.92 221.58C83.0384 218.612 85.5436 216.422 86.1607 215.938C79.5342 218.479 83.2955 222.828 83.2955 222.828C85.6684 221.704 88.2911 224.577 88.2911 224.577C87.9165 221.58 83.92 221.58 83.92 221.58Z" fill="#EF2313"/>
<path d="M83.171 212.963C83.171 212.963 79.2994 214.462 78.9247 219.832L76.9265 217.907C76.9265 217.907 78.4252 212.838 83.171 212.963Z" fill="#EF2313"/>
<path d="M117.023 221.33C117.023 221.33 118.897 234.069 108.406 238.19L109.905 240.064C109.905 240.064 121.02 234.194 118.522 222.579L117.023 221.33Z" fill="#FF4D07"/>
<path d="M53.6893 238.687C53.6893 238.687 49.9426 236.564 50.567 235.565C51.1915 234.566 53.3146 236.314 53.3146 236.314C53.3146 236.314 51.0666 232.942 52.815 232.568C54.5635 232.193 54.1888 234.566 55.9373 235.065C55.9373 235.065 55.1879 231.319 52.6901 229.695C50.1924 228.072 53.3146 227.072 55.6875 230.569C58.0604 234.066 55.9373 231.069 55.9373 231.069C55.9373 231.069 55.063 227.072 58.6848 227.322C58.6848 227.322 57.436 223.825 62.5564 222.951C62.5564 222.951 67.6769 216.582 76.0445 224.949C76.0445 224.949 77.5432 226.198 76.1694 226.948C74.7956 227.697 73.2969 225.699 73.2969 225.699C73.2969 225.699 76.6689 229.196 79.1667 229.196C81.6645 229.196 80.9152 230.32 79.9161 230.819C78.917 231.319 75.2952 230.444 75.2952 230.444C75.2952 230.444 79.6663 230.569 80.2907 234.816C80.9225 239.062 53.6893 238.687 53.6893 238.687Z" fill="#A6613B"/>
<path d="M62.0642 225.699C62.0642 225.699 65.9358 229.571 70.8065 227.573C70.8065 227.573 72.8047 229.571 75.6772 229.696C75.6772 229.696 73.4292 230.945 70.8065 229.945C70.8065 229.945 62.9384 229.821 62.0642 225.699Z" fill="#804428"/>
<path d="M61.4325 236.814C61.4325 236.814 57.0613 230.32 57.9355 225.199C58.8098 220.079 59.9338 224.45 59.684 225.824C59.4342 227.197 62.3067 235.315 62.6813 235.44" fill="#804428"/>
<path d="M69.9324 228.696C69.9324 228.696 66.3106 222.951 69.4328 220.953C69.4328 220.953 69.4328 226.198 71.556 229.071C73.6791 231.943 73.4293 231.569 72.3053 234.191L70.6817 233.942C70.6817 233.942 72.8049 231.819 69.9324 228.696Z" fill="#804428"/>
<path d="M75.6774 233.659C72.6801 230.662 63.8496 233.828 62.5199 234.908C61.1902 235.988 58.1929 237.406 56.0257 236.987C53.8585 236.568 54.0275 237.986 54.0275 237.986C50.4865 238.199 49.2302 240.072 48.7821 241.38C51.8456 247.647 57.7815 252.958 65.4732 256.514C69.8664 243.665 82.9284 242.071 82.9284 242.071C83.7585 240.741 84.427 240.902 84.427 240.902C84.5593 240.925 84.787 240.932 85.0882 240.932C84.978 239.823 84.5593 238.081 83.1781 236.157C80.842 232.91 75.6774 233.659 75.6774 233.659Z" fill="#9DDD8C"/>
<path d="M84.4195 240.903C84.5518 240.926 84.7795 240.933 85.0807 240.933C85.044 240.588 84.9779 240.184 84.8677 239.728C82.5021 240.999 79.5047 238.905 79.5047 238.905C76.3899 240.426 73.9729 238.068 73.5688 237.634C74.4137 236.76 75.1263 235.651 75.5891 234.24C75.5891 234.24 72.0922 239.655 64.5107 239.566C64.5107 239.566 60.764 241.146 56.1798 238.567C56.1798 238.567 54.1816 236.4 54.3505 238.486C54.3579 238.553 54.6517 238.979 55.2174 239.493C54.086 239.713 51.4266 240.426 49.3256 242.446C49.5606 242.88 49.8178 243.306 50.0822 243.724C51.1695 242.799 53.2486 241.322 56.2973 240.323C57.1128 240.859 58.1707 241.352 59.449 241.579C59.6694 243.115 60.022 247.456 58.0237 252.129C58.4131 252.415 58.8098 252.702 59.2139 252.981C60.0881 250.975 61.4692 246.744 60.4187 241.69C61.6676 241.756 63.0855 241.55 64.6723 240.903C64.6723 240.903 65.4657 240.94 66.6411 240.793C66.3179 245.355 68.0516 248.331 69.1977 249.778C69.5797 249.322 69.9691 248.889 70.3658 248.485C67.7358 244.915 68.1618 241.3 68.3014 240.485C69.7119 240.147 71.3061 239.522 72.702 238.413C75.8315 241.175 79.5782 240.066 79.5782 240.066C80.6875 241.175 82.0613 241.528 83.2588 241.572C83.9347 240.786 84.4195 240.903 84.4195 240.903Z" fill="#00A623"/>
<path d="M84.4195 240.904C84.4195 240.904 83.751 240.735 82.9209 242.072C82.9209 242.072 69.8589 243.666 65.4657 256.515C71.9746 259.52 79.7325 261.268 88.0707 261.268C96.0049 261.268 103.417 259.689 109.728 256.941C106.856 254.465 104.042 249.242 101.654 239.729C98.319 240.03 85.9329 241.117 84.4195 240.904Z" fill="#FFECDB"/>
<path d="M84.6693 241.233C84.6693 241.233 84.3387 244.231 87.4977 246.31C87.4977 246.31 87.6667 259.967 104.74 256.889C121.813 253.811 101.823 241.064 101.823 241.064L84.6693 241.233Z" fill="#E8D5C5"/>
<path d="M97.9077 236.51C97.9077 240.198 94.33 243.181 89.9148 243.181C85.4996 243.181 81.9219 240.191 81.9219 236.51C81.9219 232.823 85.4996 229.84 89.9148 229.84C94.33 229.833 97.9077 232.823 97.9077 236.51Z" fill="#FFE300"/>
<path d="M126.882 242.336C126.338 241.491 125.773 240.94 125.773 240.94C123.025 238.442 119.778 241.814 119.778 241.814C118.279 235.569 104.167 236.194 104.167 236.194C101.419 235.569 101.419 238.692 101.419 238.692C103.858 248.859 106.768 254.369 109.743 256.933C117.486 253.568 123.561 248.44 126.882 242.336Z" fill="#FFC8B1"/>
<path d="M119.521 242.563C119.521 242.563 116.399 240.815 114.4 241.939C114.4 241.939 111.403 238.692 108.156 240.065L110.279 242.688C110.279 242.688 115.899 245.318 119.521 242.563Z" fill="#BF5145"/>
<path d="M88.7907 243.313C88.7907 243.313 88.2911 240.066 93.1618 239.691C98.0325 239.317 102.653 236.194 107.274 239.067C111.895 241.939 117.515 252.055 111.021 255.802C104.534 259.556 87.5418 261.18 88.7907 243.313Z" fill="#F50909"/>
<path d="M86.4176 242.402C86.4176 242.402 74.5091 247.729 70.182 257.977C70.182 257.977 79.5046 246.818 86.4176 242.402Z" fill="#E8D5C5"/>
<path d="M74.3474 252.893C74.3474 252.893 81.4294 250.814 87.9236 245.98C87.9163 245.98 82.0906 248.148 74.3474 252.893Z" fill="#E8D5C5"/>
<path d="M83.0091 261.053C83.0091 261.053 80.4305 254.309 77.345 251.723L76.3458 251.892C76.3458 251.892 80.0925 257.806 83.0091 261.053Z" fill="#E8D5C5"/>
<path d="M79.9236 250.232C79.9236 250.232 85.8375 256.807 92.5815 261.061C92.5815 261.054 84.5004 252.48 79.9236 250.232Z" fill="#E8D5C5"/>
<path d="M88.2545 247.896C88.2545 247.896 86.7558 252.473 87.9239 256.808L88.923 257.888L88.2545 247.896Z" fill="#E8D5C5"/>
<path d="M107.906 221.205C107.906 221.205 115.774 230.946 124.392 229.448L124.766 231.446C124.766 231.446 114.525 231.946 106.283 222.829L107.906 221.205Z" fill="#FFC36E"/>
<path d="M92.6624 215.336C92.6624 215.336 97.0335 218.708 94.2859 224.078C94.2859 224.078 94.2859 220.082 92.6624 215.336Z" fill="#00C933"/>
<path d="M108.656 217.332C108.656 217.332 101.412 217.332 97.9152 224.826C97.9079 224.826 97.0336 214.085 108.656 217.332Z" fill="#00C933"/>
<path d="M188.077 78.4238H172.627V85.4691H188.077V78.4238Z" fill="#BF5E4D"/>
<path d="M189.355 86.248H171.356V136.909H189.355V86.248Z" fill="#BF5E4D"/>
<path d="M167.147 119.498L153.651 128.887V169.182H168.322L167.147 119.498Z" fill="#BF5E4D"/>
<path d="M193.557 119.498L207.053 128.887V169.182H192.382L193.557 119.498Z" fill="#BF5E4D"/>
<path d="M180.356 117.148C176.102 117.148 172.642 120.609 172.642 124.862V151.559H188.07V124.862C188.062 120.609 184.602 117.148 180.356 117.148Z" fill="#E9DAC2"/>
<path d="M177.616 96.6855C176.58 96.6855 175.735 97.5304 175.735 98.5662V110.085H179.496V98.5662C179.496 97.5304 178.652 96.6855 177.616 96.6855Z" fill="#806A54"/>
<path d="M183.089 96.6855C182.053 96.6855 181.208 97.5304 181.208 98.5662V110.085H184.97V98.5662C184.97 97.5304 184.132 96.6855 183.089 96.6855Z" fill="#806A54"/>
<path d="M180.356 118.133C176.639 118.133 173.619 121.145 173.619 124.87V150.589H187.092V124.862C187.085 121.145 184.073 118.133 180.356 118.133Z" fill="#BF5E4D"/>
<path d="M171.062 95.4375L169.005 97.4872V112.746L166.464 115.486V144.144H173.604V95.4375H171.062Z" fill="#CEBC9B"/>
<path d="M189.641 95.4375L191.698 97.4872V112.746L194.24 115.486V144.144H187.1V95.4375H189.641Z" fill="#CEBC9B"/>
<path d="M181.156 132.06C181.156 130.29 179.716 128.857 177.953 128.857C176.183 128.857 174.75 130.297 174.75 132.06V138.018H181.156V132.06Z" fill="#CEBC9B"/>
<path d="M177.953 130.496C177.094 130.496 176.396 131.194 176.396 132.054V138.012H179.518V132.054C179.511 131.194 178.813 130.496 177.953 130.496Z" fill="#806A54"/>
<path d="M185.954 132.06C185.954 130.29 184.514 128.857 182.751 128.857C180.98 128.857 179.548 130.297 179.548 132.06V138.018H185.954V132.06Z" fill="#CEBC9B"/>
<path d="M182.751 130.496C181.891 130.496 181.193 131.194 181.193 132.054V138.012H184.315V132.054C184.315 131.194 183.61 130.496 182.751 130.496Z" fill="#806A54"/>
<path d="M188.569 137.688H172.135V144.145H188.569V137.688Z" fill="#E9DAC2"/>
<path d="M173.193 135.512V131.258L171.158 130.09L169.13 131.258V135.512L168.41 135.923V144.21H173.906V135.923L173.193 135.512Z" fill="#F6F7F7"/>
<path d="M191.573 135.512V131.258L189.546 130.09L187.518 131.258V135.512L186.798 135.923V144.21H192.293V135.923L191.573 135.512Z" fill="#F6F7F7"/>
<path d="M192.97 143.623H167.735V162.401H192.97V143.623Z" fill="#BF5E4D"/>
<path d="M191.405 159.205C191.405 153.108 186.446 148.156 180.356 148.156C174.265 148.156 169.307 153.115 169.307 159.205V179.746H191.412V159.205H191.405Z" fill="#CEBC9B"/>
<path d="M180.356 153.828C177.388 153.828 174.978 156.238 174.978 159.206V179.746H185.733V159.206C185.733 156.23 183.324 153.828 180.356 153.828Z" fill="#806A54"/>
<path d="M169.226 160.572C169.226 156.135 165.619 152.535 161.189 152.535C156.759 152.535 153.152 156.142 153.152 160.572V179.739H169.234V160.572H169.226Z" fill="#CEBC9B"/>
<path d="M161.182 156.662C159.022 156.662 157.266 158.418 157.266 160.578V179.745H165.09V160.578C165.098 158.411 163.342 156.662 161.182 156.662Z" fill="#806A54"/>
<path d="M207.559 160.572C207.559 156.135 203.952 152.535 199.515 152.535C195.085 152.535 191.478 156.142 191.478 160.572V179.739H207.559V160.572Z" fill="#CEBC9B"/>
<path d="M199.523 156.662C197.363 156.662 195.607 158.418 195.607 160.578V179.745H203.431V160.578C203.438 158.411 201.682 156.662 199.523 156.662Z" fill="#806A54"/>
<path d="M147.826 126.342L143.521 131.918V146.486L140.2 149.321V179.251H148.708L147.826 126.342Z" fill="#C2AE8D"/>
<path d="M155.665 114.99H147.253V179.734H155.665V114.99Z" fill="#E9DAC2"/>
<path d="M155.665 174.652H147.253V179.736H155.665V174.652Z" fill="#F6F7F7"/>
<path d="M156.348 126.047C156.348 126.319 156.128 126.539 155.856 126.539H147.055C146.783 126.539 146.563 126.319 146.563 126.047C146.563 125.775 146.783 125.555 147.055 125.555H155.856C156.128 125.555 156.348 125.775 156.348 126.047Z" fill="#CEBC9B"/>
<path d="M156.348 145.023C156.348 145.295 156.128 145.516 155.856 145.516H147.055C146.783 145.516 146.563 145.295 146.563 145.023C146.563 144.752 146.783 144.531 147.055 144.531H155.856C156.128 144.531 156.348 144.752 156.348 145.023Z" fill="#CEBC9B"/>
<path d="M151.455 118.906C150.831 118.906 150.331 119.406 150.331 120.03V123.402H152.579V120.03C152.587 119.413 152.08 118.906 151.455 118.906Z" fill="#806A54"/>
<path d="M151.455 134.555C150.831 134.555 150.331 135.054 150.331 135.679V139.051H152.579V135.679C152.587 135.062 152.08 134.555 151.455 134.555Z" fill="#806A54"/>
<path d="M151.455 151.18C150.831 151.18 150.331 151.679 150.331 152.304V155.676H152.579V152.304C152.587 151.687 152.08 151.18 151.455 151.18Z" fill="#806A54"/>
<path d="M151.455 164.285C150.831 164.285 150.331 164.792 150.331 165.409V168.781H152.579V165.409C152.587 164.792 152.08 164.285 151.455 164.285Z" fill="#806A54"/>
<path d="M156.444 112.846C156.444 109.283 154.211 106.389 151.456 106.389C148.701 106.389 146.468 109.276 146.468 112.846C146.468 113.64 146.585 114.396 146.784 115.094H156.121C156.334 114.389 156.444 113.64 156.444 112.846Z" fill="#005986"/>
<path d="M156.738 115.389C156.738 115.661 156.517 115.881 156.245 115.881H146.658C146.386 115.881 146.166 115.661 146.166 115.389C146.166 115.117 146.386 114.896 146.658 114.896H156.245C156.524 114.896 156.738 115.117 156.738 115.389Z" fill="#CEBC9B"/>
<path d="M212.879 126.342L217.184 131.918V146.486L220.504 149.321V179.251H211.997L212.879 126.342Z" fill="#C2AE8D"/>
<path d="M213.451 114.99H205.039V179.734H213.451V114.99Z" fill="#E9DAC2"/>
<path d="M213.451 174.652H205.039V179.736H213.451V174.652Z" fill="#F6F7F7"/>
<path d="M204.356 126.047C204.356 126.319 204.577 126.539 204.848 126.539H213.649C213.921 126.539 214.142 126.319 214.142 126.047C214.142 125.775 213.921 125.555 213.649 125.555H204.848C204.577 125.555 204.356 125.775 204.356 126.047Z" fill="#CEBC9B"/>
<path d="M204.356 145.023C204.356 145.295 204.577 145.516 204.848 145.516H213.649C213.921 145.516 214.142 145.295 214.142 145.023C214.142 144.752 213.921 144.531 213.649 144.531H204.848C204.577 144.531 204.356 144.752 204.356 145.023Z" fill="#CEBC9B"/>
<path d="M209.249 118.906C209.873 118.906 210.373 119.406 210.373 120.03V123.402H208.125V120.03C208.118 119.413 208.625 118.906 209.249 118.906Z" fill="#806A54"/>
<path d="M209.249 134.555C209.873 134.555 210.373 135.054 210.373 135.679V139.051H208.125V135.679C208.118 135.062 208.625 134.555 209.249 134.555Z" fill="#806A54"/>
<path d="M209.249 151.18C209.873 151.18 210.373 151.679 210.373 152.304V155.676H208.125V152.304C208.118 151.687 208.625 151.18 209.249 151.18Z" fill="#806A54"/>
<path d="M209.249 164.285C209.873 164.285 210.373 164.792 210.373 165.409V168.781H208.125V165.409C208.118 164.792 208.625 164.285 209.249 164.285Z" fill="#806A54"/>
<path d="M204.261 112.846C204.261 109.283 206.494 106.389 209.249 106.389C212.004 106.389 214.237 109.276 214.237 112.846C214.237 113.64 214.12 114.396 213.921 115.094H204.584C204.371 114.389 204.261 113.64 204.261 112.846Z" fill="#005986"/>
<path d="M203.967 115.389C203.967 115.661 204.188 115.881 204.459 115.881H214.047C214.318 115.881 214.539 115.661 214.539 115.389C214.539 115.117 214.318 114.896 214.047 114.896H204.452C204.18 114.896 203.967 115.117 203.967 115.389Z" fill="#CEBC9B"/>
<path d="M169.689 143.555H164.994V174.851H169.689V143.555Z" fill="#E9DAC2"/>
<path d="M169.689 174.85H164.994V179.742H169.689V174.85Z" fill="#F6F7F7"/>
<path d="M195.71 143.555H191.016V174.851H195.71V143.555Z" fill="#E9DAC2"/>
<path d="M195.71 174.85H191.016V179.742H195.71V174.85Z" fill="#F6F7F7"/>
<path d="M162.328 133.232C160.925 133.232 159.793 134.371 159.793 135.767V142.702H164.87V135.767C164.862 134.371 163.724 133.232 162.328 133.232Z" fill="#E9DAC2"/>
<path d="M162.328 134.209C161.468 134.209 160.771 134.907 160.771 135.766V141.724H163.893V135.766C163.885 134.907 163.187 134.209 162.328 134.209Z" fill="#806A54"/>
<path d="M198.377 133.232C196.981 133.232 195.842 134.371 195.842 135.767V142.702H200.919V135.767C200.919 134.371 199.78 133.232 198.377 133.232Z" fill="#E9DAC2"/>
<path d="M198.377 134.209C197.517 134.209 196.819 134.907 196.819 135.766V141.724H199.942V135.766C199.942 134.907 199.244 134.209 198.377 134.209Z" fill="#806A54"/>
<path d="M180.356 128.696C183.058 128.696 185.248 126.505 185.248 123.803C185.248 121.101 183.058 118.91 180.356 118.91C177.653 118.91 175.463 121.101 175.463 123.803C175.463 126.505 177.653 128.696 180.356 128.696Z" fill="#CEBC9B"/>
<path d="M183.478 123.802C183.478 122.076 182.082 120.68 180.356 120.68C178.629 120.68 177.233 122.076 177.233 123.802C177.233 125.528 178.629 126.924 180.356 126.924C182.075 126.924 183.478 125.528 183.478 123.802Z" fill="#806A54"/>
<path d="M181.722 92.6985C181.722 91.9418 181.112 91.332 180.355 91.332C179.599 91.332 178.989 91.9418 178.989 92.6985C178.989 93.4552 179.599 94.0649 180.355 94.0649C181.105 94.0723 181.722 93.4552 181.722 92.6985Z" fill="#806A54"/>
<path d="M171.775 74.0677C171.775 67.9408 175.617 62.9746 180.348 62.9746C185.087 62.9746 188.921 67.9408 188.921 74.0677C188.921 75.4268 188.723 76.7272 188.378 77.932H172.318C171.973 76.7272 171.775 75.4268 171.775 74.0677Z" fill="#005986"/>
<path d="M189.348 78.321C189.348 78.8059 188.951 79.2026 188.466 79.2026H172.23C171.745 79.2026 171.349 78.8059 171.349 78.321C171.349 77.8362 171.745 77.4395 172.23 77.4395H188.466C188.958 77.4395 189.348 77.8362 189.348 78.321Z" fill="#CEBC9B"/>
<path d="M190.192 85.2031H170.504V87.025H190.192V85.2031Z" fill="#CEBC9B"/>
<path d="M354.43 189.391H286.093V219.078H354.43V189.391Z" fill="#8D4E17"/>
<path d="M307.589 188.268H290.787V219.079H307.589V188.268Z" fill="#DCDDDD"/>
<path d="M307.589 198.074H290.787V216.837H307.589V198.074Z" fill="#00AF63"/>
<path d="M307.589 195.549H290.787V197.092H307.589V195.549Z" fill="#00AF63"/>
<path d="M307.589 190.42H290.787V194.659H307.589V190.42Z" fill="#00AF63"/>
<path d="M328.666 188.268H311.864V219.079H328.666V188.268Z" fill="#DCDDDD"/>
<path d="M328.666 198.074H311.865V216.837H328.666V198.074Z" fill="#00AF63"/>
<path d="M328.666 195.549H311.865V197.092H328.666V195.549Z" fill="#00AF63"/>
<path d="M328.666 190.42H311.865V194.659H328.666V190.42Z" fill="#00AF63"/>
<path d="M349.742 188.268H332.941V219.079H349.742V188.268Z" fill="#DCDDDD"/>
<path d="M349.742 198.074H332.941V216.837H349.742V198.074Z" fill="#00AF63"/>
<path d="M349.742 195.549H332.941V197.092H349.742V195.549Z" fill="#00AF63"/>
<path d="M349.742 190.42H332.941V194.659H349.742V190.42Z" fill="#00AF63"/>
<path d="M354.43 189.391H286.093V194.012H354.43V189.391Z" fill="#DCDDDD"/>
<path d="M350.44 167.168C343.05 168.527 332.273 169.394 320.261 169.394C308.25 169.394 297.473 168.534 290.082 167.168C287.996 175.719 283.72 182.368 278.409 185.108C279.606 189.435 281.67 192.3 284.014 192.3H356.501C358.845 192.3 360.909 189.435 362.107 185.108C356.81 182.368 352.527 175.719 350.44 167.168Z" fill="#005C7C"/>
<path d="M326.168 193.168H314.37V196.246H326.168V193.168Z" fill="#3D3736"/>
<path d="M370.048 218.24H270.482V225.381H370.048V218.24Z" fill="#DCDDDD"/>
<path d="M307.104 218.24H305.422V226.505H307.104V218.24Z" fill="#EEEEEE"/>
<path d="M314.105 218.24H312.423V226.505H314.105V218.24Z" fill="#EEEEEE"/>
<path d="M321.106 218.24H319.424V226.505H321.106V218.24Z" fill="#EEEEEE"/>
<path d="M328.107 218.24H326.425V226.505H328.107V218.24Z" fill="#EEEEEE"/>
<path d="M335.109 218.24H333.426V226.505H335.109V218.24Z" fill="#EEEEEE"/>
<path d="M242.455 109.867H238.547V123.649H242.455V109.867Z" fill="#00A052"/>
<path d="M242.455 123.648H238.547V150.647H242.455V123.648Z" fill="#8D4E17"/>
<path d="M259.028 109.867H255.12V123.649H259.028V109.867Z" fill="#00A052"/>
<path d="M259.029 123.648H255.12V150.647H259.029V123.648Z" fill="#8D4E17"/>
<path d="M297.201 109.867H293.292V123.649H297.201V109.867Z" fill="#00A052"/>
<path d="M297.201 123.648H293.292V150.647H297.201V123.648Z" fill="#8D4E17"/>
<path d="M313.774 109.867H309.866V123.649H313.774V109.867Z" fill="#00A052"/>
<path d="M313.774 123.648H309.866V150.647H313.774V123.648Z" fill="#8D4E17"/>
<path d="M315.266 120.482C315.266 121.304 314.597 121.973 313.774 121.973H238.547C237.724 121.973 237.055 121.304 237.055 120.482C237.055 119.659 237.724 118.99 238.547 118.99H313.774C314.597 118.99 315.266 119.659 315.266 120.482Z" fill="#00AF63"/>
<path d="M315.266 112.042C315.266 112.865 314.597 113.533 313.774 113.533H238.547C237.724 113.533 237.055 112.865 237.055 112.042C237.055 111.219 237.724 110.551 238.547 110.551H313.774C314.597 110.551 315.266 111.219 315.266 112.042Z" fill="#00AF63"/>
<path d="M288.583 112.783H263.752V120.482H288.583V112.783Z" fill="#21110D"/>
<path d="M312.276 97.1426C303.475 97.8258 290.633 98.2592 276.329 98.2592C262.026 98.2592 249.184 97.8258 240.383 97.1426C237.9 101.433 232.802 104.768 226.484 106.149C227.916 108.324 230.37 109.756 233.162 109.756H319.497C322.289 109.756 324.75 108.317 326.175 106.149C319.857 104.776 314.759 101.433 312.276 97.1426Z" fill="#005C7C"/>
<path d="M228.835 107.823C228.835 106.795 227.997 105.965 226.976 105.965C225.948 105.965 225.117 106.795 225.117 107.823C225.117 108.852 225.948 109.682 226.976 109.682C228.005 109.682 228.835 108.852 228.835 107.823Z" fill="#036D88"/>
<path d="M232.434 108.941C232.434 107.912 231.604 107.082 230.576 107.082C229.547 107.082 228.717 107.92 228.717 108.941C228.717 109.969 229.547 110.799 230.576 110.799C231.604 110.799 232.434 109.969 232.434 108.941Z" fill="#036D88"/>
<path d="M327.211 107.823C327.211 106.795 326.374 105.965 325.352 105.965C324.324 105.965 323.494 106.795 323.494 107.823C323.494 108.852 324.324 109.682 325.352 109.682C326.381 109.682 327.211 108.852 327.211 107.823Z" fill="#036D88"/>
<path d="M323.677 108.941C323.677 107.912 322.84 107.082 321.811 107.082C320.783 107.082 319.945 107.92 319.945 108.941C319.945 109.969 320.783 110.799 321.811 110.799C322.84 110.799 323.677 109.969 323.677 108.941Z" fill="#036D88"/>
<path d="M235.909 110.057C235.909 109.029 235.079 108.191 234.051 108.191C233.022 108.191 232.185 109.029 232.185 110.057C232.185 111.086 233.015 111.916 234.051 111.916C235.079 111.916 235.909 111.086 235.909 110.057Z" fill="#036D88"/>
<path d="M239.428 110.057C239.428 109.029 238.598 108.191 237.57 108.191C236.541 108.191 235.711 109.029 235.711 110.057C235.711 111.086 236.541 111.916 237.57 111.916C238.591 111.916 239.428 111.086 239.428 110.057Z" fill="#036D88"/>
<path d="M242.94 110.057C242.94 109.029 242.11 108.191 241.081 108.191C240.053 108.191 239.223 109.029 239.223 110.057C239.223 111.086 240.053 111.916 241.081 111.916C242.11 111.916 242.94 111.086 242.94 110.057Z" fill="#036D88"/>
<path d="M246.459 110.057C246.459 109.029 245.629 108.191 244.6 108.191C243.572 108.191 242.734 109.029 242.734 110.057C242.734 111.086 243.572 111.916 244.6 111.916C245.621 111.916 246.459 111.086 246.459 110.057Z" fill="#036D88"/>
<path d="M249.97 110.057C249.97 109.029 249.14 108.191 248.112 108.191C247.083 108.191 246.253 109.029 246.253 110.057C246.253 111.086 247.083 111.916 248.112 111.916C249.14 111.916 249.97 111.086 249.97 110.057Z" fill="#036D88"/>
<path d="M253.482 110.057C253.482 109.029 252.652 108.191 251.623 108.191C250.595 108.191 249.765 109.029 249.765 110.057C249.765 111.086 250.595 111.916 251.623 111.916C252.652 111.916 253.482 111.086 253.482 110.057Z" fill="#036D88"/>
<path d="M257.001 110.057C257.001 109.029 256.163 108.191 255.142 108.191C254.114 108.191 253.284 109.029 253.284 110.057C253.284 111.086 254.121 111.916 255.142 111.916C256.163 111.916 257.001 111.086 257.001 110.057Z" fill="#036D88"/>
<path d="M260.512 110.057C260.512 109.029 259.682 108.191 258.654 108.191C257.625 108.191 256.788 109.029 256.788 110.057C256.788 111.086 257.625 111.916 258.654 111.916C259.682 111.916 260.512 111.086 260.512 110.057Z" fill="#036D88"/>
<path d="M264.032 110.057C264.032 109.029 263.194 108.191 262.173 108.191C261.144 108.191 260.314 109.029 260.314 110.057C260.314 111.086 261.152 111.916 262.173 111.916C263.194 111.916 264.032 111.086 264.032 110.057Z" fill="#036D88"/>
<path d="M267.543 110.057C267.543 109.029 266.706 108.191 265.684 108.191C264.656 108.191 263.826 109.029 263.826 110.057C263.826 111.086 264.656 111.916 265.684 111.916C266.713 111.916 267.543 111.086 267.543 110.057Z" fill="#036D88"/>
<path d="M271.062 110.057C271.062 109.029 270.225 108.191 269.203 108.191C268.175 108.191 267.345 109.029 267.345 110.057C267.345 111.086 268.175 111.916 269.203 111.916C270.225 111.916 271.062 111.086 271.062 110.057Z" fill="#036D88"/>
<path d="M274.574 110.057C274.574 109.029 273.736 108.191 272.715 108.191C271.687 108.191 270.857 109.029 270.857 110.057C270.857 111.086 271.687 111.916 272.715 111.916C273.736 111.916 274.574 111.086 274.574 110.057Z" fill="#036D88"/>
<path d="M278.085 110.057C278.085 109.029 277.255 108.191 276.226 108.191C275.198 108.191 274.36 109.029 274.36 110.057C274.36 111.086 275.198 111.916 276.226 111.916C277.255 111.916 278.085 111.086 278.085 110.057Z" fill="#036D88"/>
<path d="M281.604 110.057C281.604 109.029 280.774 108.191 279.745 108.191C278.717 108.191 277.88 109.029 277.88 110.057C277.88 111.086 278.717 111.916 279.745 111.916C280.767 111.916 281.604 111.086 281.604 110.057Z" fill="#036D88"/>
<path d="M285.116 110.057C285.116 109.029 284.278 108.191 283.257 108.191C282.229 108.191 281.391 109.029 281.391 110.057C281.391 111.086 282.229 111.916 283.257 111.916C284.286 111.916 285.116 111.086 285.116 110.057Z" fill="#036D88"/>
<path d="M288.635 110.057C288.635 109.029 287.805 108.191 286.776 108.191C285.748 108.191 284.91 109.029 284.91 110.057C284.91 111.086 285.748 111.916 286.776 111.916C287.797 111.916 288.635 111.086 288.635 110.057Z" fill="#036D88"/>
<path d="M292.146 110.057C292.146 109.029 291.309 108.191 290.288 108.191C289.259 108.191 288.429 109.029 288.429 110.057C288.429 111.086 289.259 111.916 290.288 111.916C291.316 111.916 292.146 111.086 292.146 110.057Z" fill="#036D88"/>
<path d="M295.666 110.057C295.666 109.029 294.828 108.191 293.807 108.191C292.778 108.191 291.948 109.029 291.948 110.057C291.948 111.086 292.778 111.916 293.807 111.916C294.828 111.916 295.666 111.086 295.666 110.057Z" fill="#036D88"/>
<path d="M299.177 110.057C299.177 109.029 298.339 108.191 297.318 108.191C296.29 108.191 295.452 109.029 295.452 110.057C295.452 111.086 296.29 111.916 297.318 111.916C298.339 111.916 299.177 111.086 299.177 110.057Z" fill="#036D88"/>
<path d="M302.688 110.057C302.688 109.029 301.858 108.191 300.83 108.191C299.801 108.191 298.971 109.029 298.971 110.057C298.971 111.086 299.801 111.916 300.83 111.916C301.858 111.916 302.688 111.086 302.688 110.057Z" fill="#036D88"/>
<path d="M306.207 110.057C306.207 109.029 305.377 108.191 304.349 108.191C303.32 108.191 302.49 109.029 302.49 110.057C302.49 111.086 303.32 111.916 304.349 111.916C305.37 111.916 306.207 111.086 306.207 110.057Z" fill="#036D88"/>
<path d="M309.719 110.057C309.719 109.029 308.882 108.191 307.86 108.191C306.832 108.191 306.002 109.029 306.002 110.057C306.002 111.086 306.832 111.916 307.86 111.916C308.889 111.916 309.719 111.086 309.719 110.057Z" fill="#036D88"/>
<path d="M313.238 110.057C313.238 109.029 312.4 108.191 311.379 108.191C310.351 108.191 309.513 109.029 309.513 110.057C309.513 111.086 310.351 111.916 311.379 111.916C312.4 111.916 313.238 111.086 313.238 110.057Z" fill="#036D88"/>
<path d="M316.75 110.057C316.75 109.029 315.92 108.191 314.891 108.191C313.863 108.191 313.025 109.029 313.025 110.057C313.025 111.086 313.855 111.916 314.891 111.916C315.92 111.916 316.75 111.086 316.75 110.057Z" fill="#036D88"/>
<path d="M320.269 110.057C320.269 109.029 319.431 108.191 318.41 108.191C317.381 108.191 316.551 109.029 316.551 110.057C316.551 111.086 317.381 111.916 318.41 111.916C319.431 111.916 320.269 111.086 320.269 110.057Z" fill="#036D88"/>
<path d="M265.537 93.6843C265.537 94.2573 265.067 94.7275 264.494 94.7275C263.921 94.7275 263.451 94.2573 263.451 93.6843V90.3049C263.451 89.7319 263.921 89.2617 264.494 89.2617C265.067 89.2617 265.537 89.7319 265.537 90.3049V93.6843Z" fill="#BE9E80"/>
<path d="M268.417 86.2269C268.557 85.9036 268.63 85.551 268.63 85.191C268.63 84.4637 268.329 83.7952 267.822 83.2516C267.896 83.0312 267.94 82.7961 267.94 82.561C267.94 81.055 266.397 79.8281 264.487 79.8281C262.577 79.8281 261.034 81.0476 261.034 82.561C261.034 82.8034 261.078 83.0312 261.152 83.2516C260.645 83.7952 260.344 84.4637 260.344 85.191C260.344 85.551 260.424 85.9036 260.557 86.2269C260.028 86.8366 259.712 87.5713 259.712 88.372C259.712 90.4584 261.85 92.1481 264.48 92.1481C267.117 92.1481 269.247 90.4584 269.247 88.372C269.262 87.5713 268.954 86.8366 268.417 86.2269Z" fill="#FFB283"/>
<path d="M69.0278 326.551C69.0278 327.125 68.5576 327.595 67.9846 327.595C67.4116 327.595 66.9414 327.125 66.9414 326.551V323.172C66.9414 322.599 67.4116 322.129 67.9846 322.129C68.5576 322.129 69.0278 322.599 69.0278 323.172V326.551Z" fill="#BE9E80"/>
<path d="M71.9149 319.094C72.0545 318.771 72.1279 318.418 72.1279 318.058C72.1279 317.331 71.8267 316.662 71.3198 316.119C71.3933 315.898 71.4374 315.663 71.4374 315.428C71.4374 313.922 69.8946 312.695 67.9845 312.695C66.0745 312.695 64.5317 313.915 64.5317 315.428C64.5317 315.671 64.5758 315.898 64.6492 316.119C64.1423 316.662 63.8411 317.331 63.8411 318.058C63.8411 318.418 63.922 318.771 64.0542 319.094C63.5252 319.704 63.2094 320.438 63.2094 321.239C63.2094 323.326 65.3472 325.015 67.9772 325.015C70.6146 325.015 72.745 323.326 72.745 321.239C72.7597 320.438 72.4438 319.704 71.9149 319.094Z" fill="#FFB283"/>
<path d="M205.473 302.401C205.473 302.974 205.003 303.444 204.43 303.444C203.857 303.444 203.387 302.974 203.387 302.401V299.022C203.387 298.449 203.857 297.979 204.43 297.979C205.003 297.979 205.473 298.449 205.473 299.022V302.401Z" fill="#BE9E80"/>
<path d="M208.36 294.944C208.5 294.62 208.573 294.268 208.573 293.908C208.573 293.181 208.272 292.512 207.765 291.968C207.838 291.748 207.883 291.513 207.883 291.278C207.883 289.772 206.34 288.545 204.43 288.545C202.527 288.545 200.977 289.764 200.977 291.278C200.977 291.52 201.021 291.748 201.094 291.968C200.588 292.512 200.286 293.181 200.286 293.908C200.286 294.268 200.367 294.62 200.499 294.944C199.97 295.553 199.655 296.288 199.655 297.089C199.655 299.175 201.792 300.865 204.422 300.865C207.06 300.865 209.19 299.175 209.19 297.089C209.198 296.288 208.889 295.553 208.36 294.944Z" fill="#FFB283"/>
<path d="M87.5184 186.116C87.5184 186.689 87.0482 187.159 86.4752 187.159C85.9022 187.159 85.432 186.689 85.432 186.116V182.737C85.432 182.164 85.9022 181.693 86.4752 181.693C87.0482 181.693 87.5184 182.164 87.5184 182.737V186.116Z" fill="#BE9E80"/>
<path d="M90.4055 178.659C90.5451 178.335 90.6185 177.983 90.6185 177.623C90.6185 176.895 90.3173 176.227 89.8104 175.683C89.8839 175.463 89.928 175.228 89.928 174.993C89.928 173.487 88.3852 172.26 86.4751 172.26C84.5651 172.26 83.0223 173.479 83.0223 174.993C83.0223 175.235 83.0664 175.463 83.1399 175.683C82.633 176.227 82.3318 176.895 82.3318 177.623C82.3318 177.983 82.4126 178.335 82.5448 178.659C82.0158 179.268 81.7 180.003 81.7 180.804C81.7 182.89 83.8378 184.58 86.4678 184.58C89.1052 184.58 91.2356 182.89 91.2356 180.804C91.243 180.003 90.9344 179.268 90.4055 178.659Z" fill="#FFB283"/>
<path d="M150.955 23.7142C150.955 24.6104 150.228 25.3377 149.332 25.3377C148.435 25.3377 147.708 24.6104 147.708 23.7142V18.4615C147.708 17.5652 148.435 16.8379 149.332 16.8379C150.228 16.8379 150.955 17.5652 150.955 18.4615V23.7142Z" fill="#BE9E80"/>
<path d="M155.437 12.1287C155.65 11.6218 155.767 11.0782 155.767 10.5199C155.767 9.38851 155.297 8.35265 154.511 7.50781C154.629 7.16253 154.695 6.80255 154.695 6.42788C154.695 4.08437 152.292 2.18164 149.332 2.18164C146.371 2.18164 143.969 4.08437 143.969 6.42788C143.969 6.80255 144.035 7.16253 144.152 7.50781C143.366 8.35265 142.896 9.39585 142.896 10.5199C142.896 11.0855 143.014 11.6292 143.227 12.1287C142.404 13.0764 141.919 14.2225 141.919 15.4567C141.919 18.6964 145.24 21.3265 149.332 21.3265C153.424 21.3265 156.744 18.6964 156.744 15.4567C156.744 14.2225 156.267 13.0764 155.437 12.1287Z" fill="#FFB283"/>
<path d="M278.247 160.747C278.247 161.32 277.777 161.79 277.204 161.79C276.631 161.79 276.161 161.32 276.161 160.747V157.367C276.161 156.794 276.631 156.324 277.204 156.324C277.777 156.324 278.247 156.794 278.247 157.367V160.747Z" fill="#BE9E80"/>
<path d="M281.134 153.289C281.274 152.966 281.347 152.613 281.347 152.254C281.347 151.526 281.046 150.858 280.539 150.314C280.612 150.094 280.656 149.859 280.656 149.624C280.656 148.117 279.114 146.891 277.204 146.891C275.301 146.891 273.751 148.11 273.751 149.624C273.751 149.866 273.795 150.094 273.868 150.314C273.361 150.858 273.06 151.526 273.06 152.254C273.06 152.613 273.141 152.966 273.273 153.289C272.744 153.899 272.428 154.634 272.428 155.435C272.428 157.521 274.566 159.211 277.196 159.211C279.834 159.211 281.964 157.521 281.964 155.435C281.979 154.634 281.663 153.899 281.134 153.289Z" fill="#FFB283"/>
<path d="M169.747 205.173C169.747 205.746 169.277 206.216 168.704 206.216C168.131 206.216 167.661 205.746 167.661 205.173V201.793C167.661 201.22 168.131 200.75 168.704 200.75C169.277 200.75 169.747 201.22 169.747 201.793V205.173Z" fill="#BE9E80"/>
<path d="M172.634 197.715C172.774 197.392 172.847 197.039 172.847 196.679C172.847 195.952 172.546 195.283 172.039 194.74C172.113 194.519 172.157 194.284 172.157 194.049C172.157 192.543 170.614 191.316 168.704 191.316C166.794 191.316 165.251 192.536 165.251 194.049C165.251 194.292 165.295 194.519 165.369 194.74C164.862 195.283 164.56 195.952 164.56 196.679C164.56 197.039 164.641 197.392 164.774 197.715C164.245 198.325 163.929 199.06 163.929 199.86C163.929 201.947 166.067 203.636 168.697 203.636C171.334 203.636 173.464 201.947 173.464 199.86C173.472 199.06 173.163 198.325 172.634 197.715Z" fill="#FFB283"/>
<path d="M153.725 82.0543C153.725 82.6861 153.211 83.2003 152.579 83.2003C151.947 83.2003 151.433 82.6861 151.433 82.0543V79.4683C151.433 78.8365 151.947 78.3223 152.579 78.3223C153.211 78.3223 153.725 78.8365 153.725 79.4683V82.0543Z" fill="#BE9E80"/>
<path d="M155.936 73.9203V72.9359C155.936 71.0846 154.437 69.5859 152.586 69.5859C150.735 69.5859 149.236 71.0846 149.236 72.9359V73.9203C148.039 74.3317 147.179 75.4631 147.179 76.8002C147.179 78.4825 148.545 79.8489 150.228 79.8489H154.952C156.634 79.8489 158 78.4825 158 76.8002C157.993 75.4631 157.133 74.3317 155.936 73.9203Z" fill="#FFF4CF"/>
<path d="M82.0306 294.048C82.0306 294.68 81.5164 295.194 80.8846 295.194C80.2528 295.194 79.7385 294.68 79.7385 294.048V291.462C79.7385 290.831 80.2528 290.316 80.8846 290.316C81.5164 290.316 82.0306 290.831 82.0306 291.462V294.048Z" fill="#BE9E80"/>
<path d="M84.2348 285.914V284.93C84.2348 283.079 82.7361 281.58 80.8848 281.58C79.0335 281.58 77.5348 283.079 77.5348 284.93V285.914C76.3373 286.326 75.4778 287.457 75.4778 288.794C75.4778 290.477 76.8442 291.843 78.5266 291.843H83.2503C84.9327 291.843 86.2991 290.477 86.2991 288.794C86.2918 287.457 85.4322 286.319 84.2348 285.914Z" fill="#FFF4CF"/>
<path d="M197.752 304.349C197.752 304.981 197.238 305.495 196.606 305.495C195.974 305.495 195.46 304.981 195.46 304.349V301.763C195.46 301.131 195.974 300.617 196.606 300.617C197.238 300.617 197.752 301.131 197.752 301.763V304.349Z" fill="#BE9E80"/>
<path d="M199.963 296.215V295.231C199.963 293.38 198.465 291.881 196.613 291.881C194.762 291.881 193.263 293.38 193.263 295.231V296.215C192.066 296.627 191.206 297.758 191.206 299.095C191.206 300.777 192.573 302.144 194.255 302.144H198.979C200.661 302.144 202.028 300.777 202.028 299.095C202.013 297.758 201.153 296.627 199.963 296.215Z" fill="#FFF4CF"/>
<path d="M94.9455 188.06C94.9455 188.692 94.4313 189.206 93.7995 189.206C93.1677 189.206 92.6534 188.692 92.6534 188.06V185.474C92.6534 184.842 93.1677 184.328 93.7995 184.328C94.4313 184.328 94.9455 184.842 94.9455 185.474V188.06Z" fill="#BE9E80"/>
<path d="M97.1495 179.92V178.936C97.1495 177.085 95.6509 175.586 93.7996 175.586C91.9482 175.586 90.4496 177.085 90.4496 178.936V179.92C89.2521 180.332 88.3926 181.463 88.3926 182.8C88.3926 184.482 89.759 185.849 91.4413 185.849H96.1651C97.8475 185.849 99.2139 184.482 99.2139 182.8C99.2065 181.47 98.347 180.332 97.1495 179.92Z" fill="#FFF4CF"/>
<path d="M298.457 250.412C298.457 251.043 297.943 251.558 297.311 251.558C296.68 251.558 296.165 251.043 296.165 250.412V247.826C296.165 247.194 296.68 246.68 297.311 246.68C297.943 246.68 298.457 247.194 298.457 247.826V250.412Z" fill="#BE9E80"/>
<path d="M300.669 242.278V241.293C300.669 239.442 299.17 237.943 297.319 237.943C295.467 237.943 293.969 239.442 293.969 241.293V242.278C292.771 242.689 291.912 243.82 291.912 245.158C291.912 246.84 293.278 248.206 294.96 248.206H299.684C301.367 248.206 302.733 246.84 302.733 245.158C302.726 243.82 301.866 242.689 300.669 242.278Z" fill="#FFF4CF"/>
<path d="M276.925 100.074C276.925 100.706 276.41 101.22 275.779 101.22C275.147 101.22 274.633 100.706 274.633 100.074V97.4878C274.633 96.856 275.147 96.3418 275.779 96.3418C276.41 96.3418 276.925 96.856 276.925 97.4878V100.074Z" fill="#BE9E80"/>
<path d="M279.136 91.9399V90.9554C279.136 89.1041 277.637 87.6055 275.786 87.6055C273.935 87.6055 272.436 89.1041 272.436 90.9554V91.9399C271.238 92.3513 270.379 93.4826 270.379 94.8197C270.379 96.502 271.745 97.8685 273.428 97.8685H278.151C279.834 97.8685 281.2 96.502 281.2 94.8197C281.193 93.4826 280.333 92.3513 279.136 91.9399Z" fill="#FFF4CF"/>
<path d="M231.134 197.987C236.005 197.987 239.95 194.042 239.95 189.171C239.95 184.301 236.005 180.355 231.134 180.355C226.264 180.355 222.318 184.301 222.318 189.171C222.318 194.042 226.264 197.987 231.134 197.987Z" fill="#FF926A"/>
<path d="M230.407 185.874C229.908 185.896 229.518 185.888 229.056 185.874C229.026 185.455 229.019 184.397 229.056 183.846C229.504 183.773 232.163 183.773 232.597 183.846C232.67 184.485 232.67 193.228 232.597 193.852C232.214 193.925 230.944 193.925 230.444 193.852C230.393 193.426 230.371 188.981 230.407 185.874Z" fill="white"/>
<path d="M238.76 176.52C243.631 176.52 247.576 172.575 247.576 167.704C247.576 162.834 243.631 158.889 238.76 158.889C233.889 158.889 229.944 162.834 229.944 167.704C229.944 172.568 233.896 176.52 238.76 176.52Z" fill="#FF926A"/>
<path d="M236.358 164.34C236.321 163.84 236.306 162.848 236.343 162.341C236.791 162.319 237.386 162.305 237.937 162.305C240.575 162.305 241.691 163.429 241.691 165.376C241.691 166.698 241.412 167.653 240.611 168.637C240.127 169.232 239.502 169.938 239.01 170.393C240.068 170.371 241.199 170.378 241.875 170.393C241.912 170.915 241.912 171.921 241.875 172.377C241.089 172.428 237.085 172.428 236.196 172.377C236.13 171.767 236.13 171.04 236.196 170.467C236.791 169.864 237.71 168.784 238.18 168.241C239.208 167.043 239.554 166.345 239.554 165.53C239.554 164.714 239.054 164.332 237.82 164.332C237.328 164.325 236.791 164.34 236.358 164.34Z" fill="white"/>
<path d="M265.009 202.366C269.879 202.366 273.824 198.421 273.824 193.55C273.824 188.679 269.879 184.734 265.009 184.734C260.138 184.734 256.193 188.679 256.193 193.55C256.193 198.413 260.145 202.366 265.009 202.366Z" fill="#FF926A"/>
<path d="M268.491 195.24C268.491 197.077 267.271 198.26 264.671 198.26C264.289 198.26 263.642 198.245 263.216 198.223C263.179 197.738 263.179 196.724 263.216 196.239H264.414C265.802 196.239 266.346 195.784 266.346 195.057C266.346 194.329 265.795 193.933 264.362 193.933C264.054 193.933 263.841 193.933 263.613 193.903C263.591 193.485 263.576 192.618 263.613 192.067C263.826 192.037 264.032 192.037 264.325 192.037C265.472 192.037 265.883 191.641 265.883 190.994C265.883 190.399 265.347 190.076 264.23 190.076H263.348C263.312 189.62 263.312 188.636 263.348 188.166C263.752 188.144 264.112 188.114 264.48 188.129C266.787 188.202 267.984 189.069 267.984 190.906C267.984 191.685 267.771 192.419 267.066 192.831C268.043 193.279 268.491 194.08 268.491 195.24Z" fill="white"/>
<path d="M241.397 224.176C246.268 224.176 250.213 220.231 250.213 215.361C250.213 210.49 246.268 206.545 241.397 206.545C236.527 206.545 232.582 210.49 232.582 215.361C232.582 220.224 236.527 224.176 241.397 224.176Z" fill="#FF926A"/>
<path d="M245.093 218.4C244.938 218.4 244.468 218.4 243.822 218.415C243.807 219.282 243.807 219.892 243.792 220.046C243.432 220.097 242.294 220.097 241.794 220.046C241.779 219.803 241.779 219.194 241.779 218.415C239.936 218.415 237.959 218.415 237.629 218.4C237.592 217.842 237.592 217.232 237.629 216.49C238.033 215.557 240.633 210.591 240.949 210.033C241.383 209.981 242.881 209.981 243.792 210.033C243.829 210.385 243.829 213.75 243.829 216.476C244.402 216.49 244.872 216.49 245.093 216.49C245.129 216.931 245.122 217.879 245.093 218.4ZM241.787 216.476C241.802 214.793 241.809 213.052 241.824 212.464C241.515 213.199 240.229 215.712 239.84 216.49C240.193 216.476 240.957 216.476 241.787 216.476Z" fill="white"/>
<path d="M192.169 242.616H176.073L176.102 217.572L183.236 206.736L194.05 212.643L192.169 242.616Z" fill="white"/>
<path d="M183.463 217.939H181.054V220.349H183.463V217.939Z" fill="#D8C7C2"/>
<path d="M205.319 217.793H189.877V242.617H205.319V217.793Z" fill="#D4D9DB"/>
<path d="M198.2 206.736L205.473 218.028H194.248H190.104L183.037 206.736H198.2Z" fill="#FF866F"/>
<path d="M211.475 251.218H195.019L195.438 224.22L202.88 212.539L223.479 218.908L211.475 251.218Z" fill="#E8DFDA"/>
<path d="M230.201 224.455H209.859V251.226H230.201V224.455Z" fill="#D4D9DB"/>
<path d="M223.354 212.539L230.348 224.705H213.863H209.683L202.88 212.539H223.354Z" fill="#4B4A7A"/>
<path d="M204.65 251.218V241.535C204.65 239.956 203.511 238.678 202.101 238.678C200.69 238.678 199.552 239.956 199.552 241.535V251.218H204.65Z" fill="#D4D9DB"/>
<path d="M218.785 251.241H202.961L202.983 235.373L209.999 224.721L220.636 230.532L218.785 251.241Z" fill="white"/>
<path d="M210.226 236.057H207.861V238.422H210.226V236.057Z" fill="#D8C7C2"/>
<path d="M231.715 235.594H216.53V251.249H231.715V235.594Z" fill="#D4D9DB"/>
<path d="M224.721 224.721L231.869 235.821H220.834H216.757L209.807 224.721H224.721Z" fill="#EDC777"/>
<path d="M186.637 251.243H203.152L203.13 232.018L195.262 221.365L174.589 227.169L186.637 251.243Z" fill="#D8C7C2"/>
<path d="M197.429 230.645H193.837V235.552H197.429V230.645Z" fill="white"/>
<path d="M188.268 232.23H164.039V251.243H188.268V232.23Z" fill="white"/>
<path d="M170.901 221.365L163.885 232.458H184.242H188.437L195.262 221.365H170.901Z" fill="#437864"/>
<path d="M197.987 251.243V244.455C197.987 243.345 197.091 242.449 195.982 242.449C194.872 242.449 193.976 243.345 193.976 244.455V251.243H197.987Z" fill="#B4A29E"/>
<path d="M35.6384 379.242C41.3698 378.902 45.3303 375.953 45.4093 365.842C45.4963 353.961 45.4094 330.624 45.5754 327.083C48.777 326.577 57.038 326.577 60.3187 327.083C60.4056 329.106 60.4057 352.19 60.4057 365.842C60.4057 384.712 51.3067 392.886 35.8045 393.732C34.2867 393.819 30.7451 393.819 29.3142 393.732C28.8953 391.455 28.8953 381.518 29.3142 379.242C30.919 379.242 34.2946 379.328 35.6384 379.242Z" fill="white"/>
<path d="M103.719 393.314C98.9991 393.733 74.5639 393.733 68.2476 393.314C67.7417 384.887 67.7417 335.432 68.2476 327.005C75.6628 326.499 96.8093 326.586 102.628 327.092C102.881 329.787 102.881 338.72 102.628 340.57C99.592 340.657 86.1135 340.736 82.8249 340.57V352.452C90.493 352.452 100.011 352.618 101.442 352.792C101.782 355.574 101.782 363.575 101.442 366.357C99.2521 366.523 89.6472 366.523 82.8249 366.523V379.583C86.1135 379.417 100.691 379.496 103.719 379.583C103.972 382.444 103.972 390.618 103.719 393.314Z" fill="white"/>
<path d="M140.367 394.412C121.83 394.412 106.999 382.199 106.999 360.206C106.999 338.214 121.83 326 140.367 326C158.905 326 173.736 338.222 173.736 360.206C173.728 382.191 158.897 394.412 140.367 394.412ZM140.367 339.724C128.233 339.724 122.082 347.811 122.082 360.198C122.082 372.586 128.233 380.673 140.367 380.673C152.502 380.673 158.652 372.586 158.652 360.198C158.644 347.819 152.494 339.724 140.367 339.724Z" fill="white"/>
<path d="M180.21 327.09C183.159 326.584 194.028 326.584 196.977 327.09C202.455 337.035 211.633 354.893 218.124 368.293C218.124 350.767 218.124 329.699 218.29 327.177C220.898 326.584 229.412 326.584 232.701 327.177C233.207 331.304 233.207 389.194 232.701 393.4C229.752 393.906 218.883 393.906 215.934 393.4C210.543 383.542 201.357 365.676 194.866 352.284C194.953 369.81 194.779 390.791 194.613 393.321C192.005 393.914 183.491 393.914 180.202 393.321C179.704 389.186 179.704 331.304 180.21 327.09Z" fill="white"/>
<path d="M244.408 379.242C250.14 378.902 254.1 375.953 254.179 365.842C254.266 353.961 254.179 330.624 254.345 327.083C257.547 326.577 265.808 326.577 269.089 327.083C269.176 329.106 269.176 352.19 269.176 365.842C269.176 384.712 260.077 392.886 244.574 393.732C243.057 393.819 239.515 393.819 238.084 393.732C237.665 391.455 237.665 381.518 238.084 379.242C239.697 379.242 243.065 379.328 244.408 379.242Z" fill="white"/>
<path d="M276.425 366.348C276.425 351.858 276.425 329.106 276.678 327.083C279.792 326.577 288.219 326.577 291.421 327.083C291.587 330.624 291.508 353.368 291.508 365.842C291.508 374.775 295.469 379.747 304.149 379.747C312.829 379.747 316.789 374.775 316.789 365.842C316.789 353.376 316.702 330.624 316.876 327.083C320.078 326.577 328.505 326.577 331.619 327.083C331.872 329.106 331.872 351.85 331.872 366.348C331.872 383.202 322.773 393.985 304.149 393.985C285.524 393.985 276.425 383.202 276.425 366.348Z" fill="white"/>
<path d="M309 51.9003C309 48.1727 305.708 45.1558 301.65 45.1558C301.122 45.1558 300.609 45.2116 300.109 45.3091C298.703 42.1947 295.362 40 291.451 40C287.554 40 284.213 42.1878 282.799 45.2952C282.328 45.2116 281.85 45.1628 281.35 45.1628C277.292 45.1628 274 48.1797 274 51.9072C274 55.4954 277.06 58.4217 280.914 58.6307C281.428 58.8607 282.004 59 282.616 59H302.29C303.422 59 304.435 58.5541 305.138 57.8365C307.446 56.6868 309 54.4573 309 51.9003Z" fill="white"/>
<path d="M51 188.9C51 185.173 47.7082 182.156 43.6497 182.156C43.1222 182.156 42.6087 182.212 42.1093 182.309C40.7026 179.195 37.3615 177 33.4508 177C29.5541 177 26.213 179.188 24.7992 182.295C24.328 182.212 23.8497 182.163 23.3503 182.163C19.2918 182.163 16 185.18 16 188.907C16 192.495 19.0597 195.422 22.9142 195.631C23.4276 195.861 24.0044 196 24.6164 196H44.2898C45.4222 196 46.4351 195.554 47.1385 194.836C49.4455 193.687 51 191.457 51 188.9Z" fill="white"/>
<path d="M110 0H0V110H110V0Z" fill="#231815"/>
<path d="M9.68918 10.2993C11.026 10.2203 13.1523 10.2203 14.4523 10.2624C18.9997 10.3993 22.0523 12.8993 22.0523 17.9572C22.0523 23.1361 18.9997 25.5729 14.4523 25.8098C13.3313 25.8677 11.026 25.9098 9.68918 25.7677C9.55234 24.8045 9.55234 11.2835 9.68918 10.2993ZM14.6681 22.5835C17.1892 22.5835 18.5839 20.8729 18.5839 17.9572C18.5839 15.1624 17.1839 13.5098 14.6681 13.5098H13.0365C13.0365 15.0624 13.0365 21.0466 13.0365 22.5835H14.6681Z" fill="#FF926A"/>
<path d="M32.047 25.7676C31.3786 25.8676 29.547 25.8676 28.8207 25.7676C28.8207 25.6518 28.7997 25.5097 28.7997 25.336C28.2312 25.6728 27.5207 25.8676 26.7523 25.8676C24.0576 25.8676 22.7155 24.6465 22.7155 22.3465C22.7155 20.0623 24.0523 18.8834 26.7523 18.8834C27.5207 18.8834 28.2102 19.0623 28.7786 19.3728C28.6207 18.0728 28.0102 17.5834 26.4155 17.5834C25.747 17.5834 24.7049 17.7413 23.7207 17.957C23.5049 17.2097 23.3049 15.8307 23.3049 15.0255C24.1523 14.7676 25.8839 14.5939 27.0628 14.6518C30.2891 14.8097 31.9418 16.4834 32.0628 19.2202C32.147 20.9255 32.147 24.7676 32.047 25.7676ZM28.7786 22.2834C28.7786 21.6518 28.3049 21.2992 27.4576 21.2992C26.4733 21.2992 25.9997 21.6518 25.9997 22.3044C25.9997 22.9518 26.4523 23.2676 27.4576 23.2676C28.3102 23.2676 28.7786 22.9149 28.7786 22.2834Z" fill="#FF926A"/>
<path d="M34.6261 29.6885C34.7261 29.2727 35.5524 27.1306 36.3366 25.2201C35.4682 23.4095 32.7945 16.6201 32.4998 15.6359C33.0682 15.2622 35.0366 14.7095 35.7103 14.5938C36.0471 15.4201 37.1103 18.2359 38.1524 21.1306C39.1945 18.2359 40.2576 15.4201 40.5945 14.5938C41.2629 14.7095 43.2313 15.2622 43.805 15.6359C43.5103 16.6201 38.1155 29.7674 37.6419 30.578C36.8892 30.5148 35.2787 30.0411 34.6261 29.6885Z" fill="#FF926A"/>
<path d="M48.1103 13.331C48.0524 12.5625 48.0313 11.0257 48.0892 10.2415C48.7787 10.2046 49.705 10.1836 50.5471 10.1836C54.6208 10.1836 56.3524 11.9152 56.3524 14.9257C56.3524 16.9731 55.9208 18.4468 54.6787 19.9625C53.9313 20.8889 52.9681 21.9678 52.1997 22.6783C53.8313 22.6415 55.5839 22.6573 56.626 22.6783C56.6839 23.4836 56.6839 25.0415 56.626 25.7468C55.405 25.8257 49.226 25.8257 47.8471 25.7468C47.7471 24.7994 47.7471 23.6783 47.8471 22.7941C48.7734 21.8678 50.1892 20.1941 50.9155 19.352C52.5102 17.4994 53.0418 16.4204 53.0418 15.1573C53.0418 13.8941 52.2734 13.3046 50.3629 13.3046C49.605 13.3099 48.7787 13.331 48.1103 13.331Z" fill="#FF926A"/>
<path d="M22.0419 42.9359C20.7998 43.0149 10.2051 43.0149 9.18401 42.9359C9.08401 42.0359 9.08401 40.978 9.18401 40.157C9.5419 40.1359 11.1419 40.1149 13.1051 40.1149C13.1051 39.557 13.1051 38.9728 13.1472 38.4149C13.8682 38.3359 15.9261 38.3359 16.6051 38.4149C16.6261 38.9728 16.6472 39.557 16.6472 40.1149C19.1893 40.1149 21.5051 40.1359 22.0472 40.157C22.1209 41.0149 22.1419 42.078 22.0419 42.9359ZM13.1051 49.378C14.5261 49.357 19.9261 49.357 21.884 49.378C22.0051 50.057 22.0051 51.378 21.884 52.078C20.163 52.178 11.4051 52.178 9.68401 52.078C9.56296 50.9201 9.56296 47.8201 9.68401 46.6412C11.663 46.6201 16.3209 46.6412 18.1419 46.6412V46.0201C16.2998 46.0412 11.6051 46.0412 9.60506 46.0201C9.50506 45.1412 9.50506 44.4622 9.60506 43.5991C10.8261 43.5412 20.263 43.5412 21.484 43.5991C21.6419 44.7201 21.6261 48.0201 21.484 48.7359C19.7261 48.7938 14.6261 48.757 13.1051 48.7359V49.378ZM9.82611 37.7359C9.74717 37.257 9.74717 35.4938 9.82611 34.8938C10.8472 34.7359 20.4051 34.7359 21.284 34.8938C21.363 35.7359 21.363 38.9517 21.284 39.3938C20.463 39.4938 18.763 39.4938 17.9261 39.3938C17.9261 39.0149 17.9051 38.3359 17.9261 37.7359C17.0209 37.778 10.7261 37.778 9.82611 37.7359Z" fill="white"/>
<path d="M34.8841 45.8365C33.6841 45.8943 24.0051 45.8943 23.0262 45.8365C22.9262 44.6786 22.9262 43.8364 23.0262 42.8154C23.4051 42.7943 25.1683 42.7943 27.2051 42.7943V41.8522C25.4262 41.8522 23.9472 41.8101 23.5841 41.7733C23.442 40.6733 23.442 35.9365 23.5841 34.8154C24.6051 34.6943 33.3051 34.6943 34.3209 34.8154C34.463 35.9365 34.463 40.6733 34.3209 41.7733C33.963 41.8154 32.4788 41.8522 30.6999 41.8522V42.7943C32.6999 42.7943 34.4209 42.7943 34.8788 42.8154C34.9841 43.7943 34.963 44.6575 34.8841 45.8365ZM34.442 46.6943C34.5209 47.5154 34.5209 51.1154 34.442 51.7943C33.6209 51.8733 31.863 51.8733 31.0209 51.7943C31.0209 51.3733 30.9999 50.0365 31.0209 49.4733C30.1209 49.4943 24.342 49.4943 23.442 49.4733C23.342 48.9733 23.342 47.2312 23.442 46.6943C24.463 46.5943 33.563 46.5943 34.442 46.6943ZM26.8209 38.9786C27.5209 39.0364 30.363 39.0364 31.0577 38.9786V37.5575C30.3367 37.5154 27.4999 37.5154 26.8209 37.5575V38.9786Z" fill="white"/>
<path d="M48.7419 42.9359C47.4998 43.0149 36.905 43.0149 35.884 42.9359C35.784 42.0359 35.784 40.978 35.884 40.157C36.2419 40.1359 37.8419 40.1149 39.805 40.1149C39.805 39.557 39.805 38.9728 39.8471 38.4149C40.5682 38.3359 42.6261 38.3359 43.305 38.4149C43.3261 38.9728 43.3471 39.557 43.3471 40.1149C45.8892 40.1149 48.205 40.1359 48.7471 40.157C48.8208 41.0149 48.8419 42.078 48.7419 42.9359ZM39.805 49.378C41.2261 49.357 46.6261 49.357 48.584 49.378C48.705 50.057 48.705 51.378 48.584 52.078C46.8629 52.178 38.105 52.178 36.384 52.078C36.2629 50.9201 36.2629 47.8201 36.384 46.6412C38.3629 46.6201 43.0208 46.6412 44.8419 46.6412V46.0201C42.9997 46.0412 38.305 46.0412 36.305 46.0201C36.205 45.1412 36.205 44.4622 36.305 43.5991C37.5261 43.5412 46.9629 43.5412 48.184 43.5991C48.3419 44.7201 48.3261 48.0201 48.184 48.7359C46.4261 48.7938 41.3261 48.757 39.805 48.7359V49.378ZM36.5208 37.7359C36.4419 37.257 36.4419 35.4938 36.5208 34.8938C37.5419 34.7359 47.0998 34.7359 47.9787 34.8938C48.0576 35.7359 48.0576 38.9517 47.9787 39.3938C47.1576 39.4938 45.4576 39.4938 44.6208 39.3938C44.6208 39.0149 44.5997 38.3359 44.6208 37.7359C43.7208 37.778 37.4208 37.778 36.5208 37.7359Z" fill="white"/>
<path d="M61.5788 45.8365C60.3788 45.8943 50.6998 45.8943 49.7209 45.8365C49.6209 44.6786 49.6209 43.8364 49.7209 42.8154C50.0998 42.7943 51.863 42.7943 53.8998 42.7943V41.8522C52.1209 41.8522 50.6419 41.8101 50.2788 41.7733C50.1367 40.6733 50.1367 35.9365 50.2788 34.8154C51.2998 34.6943 59.9998 34.6943 61.0156 34.8154C61.1577 35.9365 61.1577 40.6733 61.0156 41.7733C60.6577 41.8154 59.1735 41.8522 57.3946 41.8522V42.7943C59.3946 42.7943 61.1156 42.7943 61.5735 42.8154C61.6788 43.7943 61.663 44.6575 61.5788 45.8365ZM61.1419 46.6943C61.2209 47.5154 61.2209 51.1154 61.1419 51.7943C60.3209 51.8733 58.563 51.8733 57.7209 51.7943C57.7209 51.3733 57.6998 50.0365 57.7209 49.4733C56.8209 49.4943 51.0419 49.4943 50.1419 49.4733C50.0419 48.9733 50.0419 47.2312 50.1419 46.6943C51.163 46.5943 60.263 46.5943 61.1419 46.6943ZM53.5209 38.9786C54.2209 39.0364 57.0577 39.0364 57.7577 38.9786V37.5575C57.0367 37.5154 54.1998 37.5154 53.5209 37.5575V38.9786Z" fill="white"/>
<path d="M9.20508 66.9568C9.20508 61.2778 11.684 58.8778 15.363 58.8778C19.2209 58.8778 21.5209 61.4989 21.5209 66.9568C21.5209 72.6357 19.0419 75.0357 15.363 75.0357C11.5261 75.0357 9.20508 72.4357 9.20508 66.9568ZM18.063 66.9568C18.063 63.4989 16.9209 62.0199 15.363 62.0199C13.7051 62.0199 12.663 63.5989 12.663 66.9568C12.663 70.4357 13.8051 71.8936 15.363 71.8936C17.0209 71.8936 18.063 70.2936 18.063 66.9568ZM22.484 58.6357C23.163 58.5147 25.1261 58.5147 25.8051 58.6357C25.9472 59.6357 25.9472 74.5936 25.8051 75.5725C25.2261 75.7147 23.263 75.7147 22.484 75.5725C22.363 74.5936 22.363 59.6357 22.484 58.6357Z" fill="white"/>
<path d="M38.2 66.9581C38.2 72.795 36.2 75.0371 32.7421 75.0371C29.2842 75.0371 27.2842 72.795 27.2842 66.9581C27.2842 61.1213 29.2842 58.8792 32.7421 58.8792C36.2052 58.8792 38.2 61.116 38.2 66.9581ZM34.7421 66.9581C34.7421 63.3371 33.8842 62.0371 32.7421 62.0371C31.6 62.0371 30.7421 63.3371 30.7421 66.9581C30.7421 70.5792 31.6 71.8792 32.7421 71.8792C33.8842 71.8792 34.7421 70.5792 34.7421 66.9581ZM44.2421 68.495C44.321 68.9371 44.321 71.1371 44.2421 71.5529C43.921 71.595 43.2842 71.6108 42.6 71.6318C42.6 73.7108 42.5579 75.2739 42.521 75.5686C41.9421 75.7476 40 75.7108 39.221 75.5686C39.1 74.5897 39.1 59.6318 39.221 58.6318C39.9 58.5108 41.8421 58.5108 42.521 58.6318C42.5631 58.8739 42.5789 59.9739 42.6 61.4897C43.2789 61.5108 43.921 61.5318 44.2421 61.5686C44.321 61.9897 44.321 64.1897 44.2421 64.6265C43.921 64.6476 43.2842 64.6686 42.621 64.6686V68.4476C43.2842 68.4581 43.921 68.4792 44.2421 68.495Z" fill="white"/>
<path d="M48.5209 62.3568C47.3788 62.3989 45.7209 62.4147 44.7999 62.3568C44.6999 61.7778 44.6999 59.6778 44.7999 59.0989C45.7999 58.9989 50.8999 58.9989 51.8999 59.0989C51.9999 60.3199 51.9999 73.9147 51.8999 74.9357C51.0999 75.0357 49.3209 75.0357 48.5209 74.9357C48.4841 73.9936 48.4841 63.3357 48.5209 62.3568ZM53.363 58.6357C54.042 58.5147 56.0051 58.5147 56.6841 58.6357C56.8262 59.6357 56.8262 74.5936 56.6841 75.5725C56.1051 75.7147 54.142 75.7147 53.363 75.5725C53.242 74.5936 53.242 59.6357 53.363 58.6357Z" fill="white"/>
<path d="M64.484 59.0989C64.584 60.3199 64.584 73.9147 64.484 74.9357C63.684 75.0357 61.9419 75.0357 61.1472 74.9357C61.1051 73.9936 61.1051 63.3357 61.1472 62.3568C60.0051 62.3989 58.9682 62.4147 58.0472 62.3568C57.9472 61.7778 57.9472 59.6778 58.0472 59.0989C59.0419 58.9989 63.484 58.9989 64.484 59.0989ZM70.9419 68.2778C70.5998 68.3199 69.9209 68.3357 69.2209 68.3357C69.2209 71.8778 69.1787 75.1357 69.1209 75.5725C68.5419 75.7147 66.5787 75.7147 65.7998 75.5725C65.6787 74.5936 65.6787 59.6357 65.7998 58.6357C66.4787 58.5147 68.4419 58.5147 69.1209 58.6357C69.1787 59.0568 69.2209 61.8568 69.2209 65.0568C69.9209 65.0568 70.5998 65.0989 70.9419 65.1357C71.0419 65.5778 71.0419 67.8357 70.9419 68.2778Z" fill="white"/>
<path d="M9.66293 91.4153C9.54188 90.1574 9.54188 84.0363 9.66293 83.0153C10.5208 82.9153 12.2419 82.9153 13.0629 83.0153C13.1208 83.9574 13.1208 87.3732 13.0629 88.5153C13.784 88.4732 17.6998 88.4574 18.6208 88.5153C18.7208 89.0942 18.7208 90.8363 18.6208 91.4153C17.6208 91.5363 10.6629 91.5363 9.66293 91.4153ZM23.7998 92.6363C23.9419 93.6153 23.9419 98.8153 23.7998 99.7732C22.8419 99.8732 11.0419 99.8732 10.084 99.7732C9.94188 98.8153 9.94188 93.6153 10.084 92.6363C11.1419 92.5153 22.7419 92.5153 23.7998 92.6363ZM20.4629 95.4574C19.705 95.4153 14.1629 95.3995 13.4419 95.4574C13.3998 96.0784 13.3998 96.5363 13.4419 96.9784C14.184 97.0363 19.7208 97.0363 20.4629 96.9784C20.4998 96.5363 20.4998 96.0784 20.4629 95.4574ZM16.484 87.2995C16.384 86.8784 16.384 84.7995 16.484 84.3784C17.3261 84.3205 19.0261 84.2995 20.4419 84.3205C20.4629 83.4995 20.484 82.8784 20.4998 82.6416C21.1787 82.5205 23.1208 82.5205 23.7998 82.6416C23.9419 83.6416 23.9419 90.9416 23.7998 91.9416C23.2208 92.0205 21.2787 92.0205 20.4998 91.9416C20.4577 91.4626 20.4208 89.3995 20.4208 87.3416C19.0208 87.3574 17.3419 87.3363 16.484 87.2995Z" fill="white"/>
<path d="M33.8209 87.6586C34.7788 91.1007 36.463 97.4796 36.5209 98.1954C35.9209 98.5165 33.9998 98.9743 33.284 98.9743C33.0419 98.3165 31.663 92.8533 30.8051 89.2743C29.984 92.8954 28.6472 98.3954 28.4051 99.0533C27.684 99.0533 25.763 98.6112 25.163 98.2954C25.2209 97.5743 26.8419 91.1375 27.784 87.6586C26.663 87.6586 25.784 87.6375 25.5051 87.6164C25.4051 87.1743 25.4051 84.9586 25.5051 84.5375C25.9261 84.4796 27.3472 84.4375 29.0051 84.4164C28.963 83.6375 28.984 82.6743 29.0472 82.1375C29.7261 82.0375 31.8472 82.0375 32.5472 82.1375C32.6051 82.6796 32.6261 83.6375 32.5893 84.4164C34.2682 84.4375 35.6893 84.4743 36.0682 84.5375C36.1682 84.9164 36.1682 87.0954 36.0682 87.6164C35.7419 87.6375 34.8998 87.6375 33.8209 87.6586ZM40.663 99.5743C40.063 99.7164 38.1051 99.7164 37.3209 99.5743C37.1998 98.5954 37.1998 83.6375 37.3209 82.6375C38.0209 82.5164 39.9788 82.5164 40.663 82.6375C40.7788 83.6375 40.763 98.5743 40.663 99.5743Z" fill="white"/>
<path d="M51.0841 95.7778C51.163 96.3199 51.1841 98.2199 51.0841 98.9357C49.9262 99.0147 43.8262 99.0147 42.5051 98.9357C42.363 97.0568 42.363 84.9357 42.5051 83.0568C43.463 82.9778 48.9841 82.9778 50.342 83.0568C50.4209 83.6147 50.4209 85.4357 50.342 86.1778C49.4209 86.1989 46.6209 86.1989 45.963 86.1778C45.9051 86.7199 45.9051 95.0568 45.963 95.7778C46.942 95.7357 50.2209 95.7357 51.0841 95.7778ZM57.4999 92.2778C57.1578 92.3199 56.4788 92.3357 55.7788 92.3357C55.7788 95.8778 55.7367 99.1357 55.6788 99.5726C55.0999 99.7147 53.1367 99.7147 52.3578 99.5726C52.2367 98.5936 52.2367 83.6357 52.3578 82.6357C53.0367 82.5147 54.9999 82.5147 55.6788 82.6357C55.7367 83.0568 55.7788 85.8568 55.7788 89.0568C56.4788 89.0568 57.1578 89.0989 57.4999 89.1357C57.5999 89.5778 57.5999 91.8357 57.4999 92.2778Z" fill="white"/>
<path d="M-0.00012207 531.45H296.874C316.755 531.45 332.874 515.331 332.874 495.45V466.926C332.874 447.045 316.755 430.926 296.874 430.926H-0.00012207" stroke="white" stroke-width="0.9"/>
<path d="M88.4969 441.6C94.4639 441.6 99.2969 436.767 99.2969 430.8C99.2969 424.833 94.4639 420 88.4969 420C82.5299 420 77.6969 424.833 77.6969 430.8C77.6969 436.767 82.5299 441.6 88.4969 441.6Z" fill="white"/>
<path d="M87.9659 426.759C87.3539 426.786 86.8769 426.777 86.3099 426.759C86.2829 426.246 86.2649 424.95 86.3099 424.275C86.8589 424.185 90.1169 424.185 90.6479 424.275C90.7379 425.058 90.7379 435.768 90.6479 436.533C90.1799 436.623 88.6229 436.623 88.0109 436.533C87.9479 436.011 87.9209 430.566 87.9659 426.759Z" fill="#FF926A"/>
<path d="M232.002 441.6C237.969 441.6 242.802 436.767 242.802 430.8C242.802 424.833 237.969 420 232.002 420C226.035 420 221.202 424.833 221.202 430.8C221.202 436.767 226.044 441.6 232.002 441.6Z" fill="white"/>
<path d="M228.734 426.679C228.689 426.067 228.671 424.852 228.716 424.231C229.265 424.204 229.994 424.186 230.669 424.186C233.9 424.186 235.268 425.563 235.268 427.948C235.268 429.568 234.926 430.738 233.945 431.944C233.351 432.673 232.586 433.537 231.983 434.095C233.279 434.068 234.665 434.077 235.493 434.095C235.538 434.734 235.538 435.967 235.493 436.525C234.53 436.588 229.625 436.588 228.536 436.525C228.455 435.778 228.455 434.887 228.536 434.185C229.265 433.447 230.39 432.124 230.966 431.458C232.226 429.991 232.649 429.136 232.649 428.137C232.649 427.138 232.037 426.67 230.525 426.67C229.913 426.67 229.265 426.679 228.734 426.679Z" fill="#FF926A"/>
<path d="M232.002 543.256C237.969 543.256 242.802 538.423 242.802 532.456C242.802 526.489 237.969 521.656 232.002 521.656C226.035 521.656 221.202 526.489 221.202 532.456C221.202 538.423 226.035 543.256 232.002 543.256Z" fill="white"/>
<path d="M235.269 534.535C235.269 536.785 233.775 538.234 230.589 538.234C230.121 538.234 229.329 538.216 228.807 538.189C228.762 537.595 228.762 536.353 228.807 535.759H230.274C231.975 535.759 232.641 535.201 232.641 534.31C232.641 533.419 231.966 532.933 230.211 532.933C229.833 532.933 229.572 532.933 229.293 532.897C229.257 532.384 229.248 531.322 229.293 530.647C229.554 530.611 229.806 530.611 230.166 530.611C231.57 530.611 232.065 530.125 232.065 529.333C232.065 528.604 231.408 528.208 230.04 528.208H228.96C228.915 527.65 228.915 526.444 228.96 525.868C229.455 525.841 229.896 525.805 230.346 525.823C233.172 525.913 234.639 526.975 234.639 529.225C234.639 530.179 234.378 531.079 233.514 531.583C234.729 532.132 235.269 533.113 235.269 534.535Z" fill="#FF926A"/>
<path d="M88.4973 544.338C94.4643 544.338 99.2973 539.505 99.2973 533.538C99.2973 527.571 94.4643 522.738 88.4973 522.738C82.5303 522.738 77.6973 527.571 77.6973 533.538C77.6973 539.505 82.5393 544.338 88.4973 544.338Z" fill="white"/>
<path d="M93.0333 537.263C92.8443 537.263 92.2683 537.263 91.4763 537.281C91.4583 538.343 91.4583 539.09 91.4493 539.279C91.0083 539.342 89.6042 539.342 89.0013 539.279C88.9833 538.982 88.9833 538.235 88.9833 537.281C86.7243 537.281 84.3033 537.281 83.8983 537.263C83.8533 536.579 83.8533 535.832 83.8983 534.923C84.3933 533.78 87.5792 527.696 87.9662 527.012C88.4972 526.949 90.3333 526.949 91.4493 527.012C91.4943 527.444 91.4943 531.566 91.4943 534.905C92.1963 534.923 92.7722 534.923 93.0422 534.923C93.0782 535.472 93.0603 536.624 93.0333 537.263ZM88.9743 534.905C88.9923 532.844 89.0013 530.711 89.0193 529.991C88.6413 530.891 87.0662 533.969 86.5892 534.923C87.0302 534.905 87.9663 534.905 88.9743 534.905Z" fill="#FF926A"/>
<path d="M58.3109 462.551C58.4369 462.137 60.3449 458.069 61.2989 456.071C59.9129 456.071 58.7429 456.053 58.3829 456.035C58.2929 455.783 58.2929 454.919 58.3829 454.667C59.3729 454.613 66.1409 454.613 67.0949 454.667C67.1849 454.919 67.1849 455.765 67.0949 456.035C66.7169 456.053 65.5109 456.071 64.1249 456.071C65.1149 457.997 67.1669 462.065 67.3109 462.461C67.0589 462.749 66.3749 463.055 65.9969 463.091C65.7449 462.713 63.5849 458.303 62.7209 456.449C61.8749 458.411 59.8769 462.731 59.6429 463.109C59.2649 463.091 58.5629 462.803 58.3109 462.551ZM72.6749 469.157C71.4509 469.211 59.9309 469.211 59.1569 469.157C59.1029 468.059 59.0849 465.053 59.1569 464.099C59.4629 463.991 60.2909 463.991 60.6869 464.099C60.6869 464.891 60.7049 466.907 60.6869 467.771C62.1629 467.753 71.8649 467.753 72.6749 467.771C72.7469 468.095 72.7469 468.815 72.6749 469.157ZM67.3289 459.419C67.2209 459.113 67.2209 458.375 67.3289 458.087C67.9049 458.051 69.6149 458.051 70.6409 458.069C70.6409 456.143 70.6409 454.505 70.6589 454.163C70.9829 454.055 71.8289 454.055 72.1529 454.163C72.2249 455.063 72.2249 464.441 72.1529 465.341C71.8829 465.413 71.0369 465.413 70.6589 465.341C70.6409 464.891 70.6229 462.119 70.6409 459.437C69.6149 459.473 67.9049 459.455 67.3289 459.419Z" fill="white"/>
<path d="M86.409 462.983C85.329 463.001 74.925 463.001 74.025 462.983C73.971 462.587 73.971 462.047 74.025 461.615C74.439 461.615 76.887 461.597 79.497 461.597C79.479 461.057 79.479 460.391 79.497 459.833C77.283 459.833 75.213 459.815 74.691 459.779C74.583 458.231 74.583 456.143 74.691 454.577C75.555 454.451 84.357 454.451 85.581 454.577C85.635 454.901 85.635 455.495 85.581 455.837C84.483 455.855 77.067 455.855 76.203 455.837V458.519C77.355 458.483 84.717 458.483 85.761 458.519C85.815 458.843 85.815 459.455 85.761 459.779C85.311 459.815 83.277 459.833 81.063 459.833C81.081 460.391 81.081 461.057 81.081 461.597C83.601 461.597 85.923 461.615 86.409 461.615C86.463 462.065 86.463 462.587 86.409 462.983ZM86.049 467.033C86.049 468.779 84.195 469.877 80.217 469.877C76.239 469.877 74.385 468.779 74.385 467.033C74.385 465.287 76.239 464.189 80.217 464.189C84.195 464.189 86.049 465.287 86.049 467.033ZM84.483 467.033C84.483 466.169 83.367 465.467 80.217 465.467C77.067 465.467 75.951 466.169 75.951 467.033C75.951 467.897 77.067 468.599 80.217 468.599C83.367 468.599 84.483 467.897 84.483 467.033Z" fill="white"/>
<path d="M88.623 462.371C88.263 462.317 87.579 462.011 87.345 461.759C87.687 460.877 90.441 455.549 91.035 454.451C91.395 454.379 92.151 454.379 92.511 454.451C93.123 455.459 95.985 460.589 96.345 461.399C96.129 461.669 95.463 462.029 95.103 462.101C94.617 461.399 92.313 457.061 91.809 456.035C91.341 457.115 89.073 461.633 88.623 462.371ZM102.105 466.295C102.105 468.347 100.179 469.643 95.283 469.643C90.369 469.643 88.461 468.347 88.461 466.295C88.461 464.243 90.369 462.947 95.283 462.947C100.179 462.947 102.105 464.243 102.105 466.295ZM100.521 466.295C100.521 465.125 99.243 464.297 95.283 464.297C91.323 464.297 90.027 465.125 90.027 466.295C90.027 467.465 91.323 468.293 95.283 468.293C99.243 468.293 100.521 467.465 100.521 466.295ZM96.381 458.303C96.273 458.051 96.273 457.241 96.381 456.971C96.939 456.953 98.973 456.953 100.233 456.953C100.233 455.639 100.233 454.505 100.251 454.163C100.575 454.055 101.421 454.055 101.745 454.163C101.817 455.063 101.817 461.543 101.745 462.443C101.475 462.515 100.629 462.515 100.251 462.443C100.233 462.011 100.233 460.157 100.233 458.321C98.973 458.339 96.939 458.339 96.381 458.303Z" fill="white"/>
<path d="M104.283 461.723C104.157 460.049 104.157 456.323 104.283 454.649C105.147 454.577 111.015 454.577 112.023 454.649C112.077 454.937 112.077 455.657 112.023 455.963C111.357 455.981 106.389 455.981 105.795 455.963C105.741 456.431 105.741 459.761 105.795 460.409C106.677 460.373 112.095 460.373 112.869 460.409C112.941 460.679 112.941 461.417 112.869 461.723C111.825 461.795 105.471 461.795 104.283 461.723ZM116.811 466.295C116.811 468.347 114.975 469.643 110.655 469.643C106.353 469.643 104.517 468.347 104.517 466.295C104.517 464.243 106.353 462.947 110.655 462.947C114.975 462.947 116.811 464.243 116.811 466.295ZM115.245 466.295C115.245 465.125 114.021 464.297 110.655 464.297C107.307 464.297 106.083 465.125 106.083 466.295C106.083 467.465 107.307 468.293 110.655 468.293C114.021 468.293 115.245 467.465 115.245 466.295ZM118.629 458.915C118.179 458.951 117.243 458.969 116.469 458.951C116.451 460.571 116.433 462.047 116.397 462.443C116.145 462.515 115.299 462.515 114.921 462.443C114.867 461.561 114.867 455.063 114.921 454.163C115.245 454.055 116.091 454.055 116.397 454.163C116.433 454.559 116.451 455.981 116.469 457.565C117.243 457.547 118.179 457.565 118.629 457.583C118.719 457.817 118.719 458.717 118.629 458.915Z" fill="white"/>
<path d="M211.761 456.017C211.689 455.729 211.689 454.973 211.761 454.667C212.895 454.613 217.161 454.613 217.827 454.685C217.881 455.783 217.899 461.093 217.827 462.011C217.485 462.119 216.747 462.119 216.315 462.011C216.315 461.129 216.297 456.953 216.315 456.017C214.893 456.053 212.589 456.053 211.761 456.017ZM224.109 466.295C224.109 468.347 222.129 469.643 218.205 469.643C214.281 469.643 212.301 468.347 212.301 466.295C212.301 464.243 214.281 462.947 218.205 462.947C222.129 462.947 224.109 464.243 224.109 466.295ZM222.525 466.295C222.525 465.125 221.193 464.297 218.205 464.297C215.217 464.297 213.885 465.125 213.885 466.295C213.885 467.465 215.217 468.293 218.205 468.293C221.193 468.293 222.525 467.465 222.525 466.295ZM222.237 459.257C222.219 458.609 222.219 457.925 222.237 457.259C221.121 457.277 219.375 457.277 218.889 457.241C218.781 456.989 218.781 456.215 218.889 455.927C219.375 455.909 221.121 455.909 222.237 455.909C222.237 455.063 222.237 454.415 222.255 454.163C222.579 454.055 223.425 454.055 223.749 454.163C223.821 455.063 223.821 461.525 223.749 462.425C223.479 462.497 222.633 462.497 222.255 462.425C222.237 462.173 222.237 461.489 222.237 460.607C221.121 460.625 219.375 460.625 218.889 460.589C218.781 460.337 218.781 459.545 218.889 459.275C219.375 459.257 221.121 459.257 222.237 459.257Z" fill="white"/>
<path d="M229.941 456.233C228.411 456.251 226.377 456.251 225.567 456.233C225.495 455.927 225.495 455.117 225.567 454.811C226.701 454.757 230.805 454.757 231.471 454.829C231.525 455.927 231.543 467.753 231.471 468.671C231.129 468.779 230.373 468.779 229.941 468.671C229.941 467.789 229.923 457.259 229.941 456.233ZM234.153 454.163C234.531 454.073 235.287 454.073 235.665 454.163C235.737 455.063 235.737 468.527 235.665 469.409C235.323 469.499 234.585 469.499 234.153 469.409C234.117 468.527 234.117 455.063 234.153 454.163Z" fill="white"/>
<path d="M237.879 462.551C238.005 462.137 239.913 458.069 240.867 456.071C239.481 456.071 238.311 456.053 237.951 456.035C237.861 455.783 237.861 454.919 237.951 454.667C238.941 454.613 245.709 454.613 246.663 454.667C246.753 454.919 246.753 455.765 246.663 456.035C246.285 456.053 245.079 456.071 243.693 456.071C244.683 457.997 246.735 462.065 246.879 462.461C246.627 462.749 245.943 463.055 245.565 463.091C245.313 462.713 243.153 458.303 242.289 456.449C241.443 458.411 239.445 462.731 239.211 463.109C238.833 463.091 238.131 462.803 237.879 462.551ZM252.243 469.157C251.019 469.211 239.499 469.211 238.725 469.157C238.671 468.059 238.653 465.053 238.725 464.099C239.031 463.991 239.859 463.991 240.255 464.099C240.255 464.891 240.273 466.907 240.255 467.771C241.731 467.753 251.433 467.753 252.243 467.771C252.315 468.095 252.315 468.815 252.243 469.157ZM246.897 459.419C246.789 459.113 246.789 458.375 246.897 458.087C247.473 458.051 249.183 458.051 250.209 458.069C250.209 456.143 250.209 454.505 250.227 454.163C250.551 454.055 251.397 454.055 251.721 454.163C251.793 455.063 251.793 464.441 251.721 465.341C251.451 465.413 250.605 465.413 250.227 465.341C250.209 464.891 250.191 462.119 250.209 459.437C249.183 459.473 247.473 459.455 246.897 459.419Z" fill="white"/>
<path d="M44.145 554.976C45.171 557.766 47.889 566.82 48.357 568.494C48.105 568.692 47.349 568.908 46.953 568.926C46.377 567.306 44.109 559.944 43.389 557.226C42.687 559.98 40.419 567.342 39.861 568.98C39.465 568.962 38.691 568.746 38.439 568.548C38.889 566.874 41.607 557.784 42.615 554.976C42.921 554.886 43.839 554.886 44.145 554.976ZM53.469 569.673C53.127 569.763 52.389 569.763 51.957 569.673C51.939 569.187 51.921 564.993 51.939 561.123C50.607 561.141 48.267 561.141 47.709 561.105C47.655 560.817 47.655 560.007 47.709 559.719C48.267 559.683 50.607 559.683 51.939 559.701C51.939 557.037 51.939 554.769 51.957 554.427C52.335 554.337 53.091 554.337 53.469 554.427C53.541 555.318 53.541 568.791 53.469 569.673Z" fill="white"/>
<path d="M55.4669 557.405C55.3409 557.171 55.3409 556.361 55.4669 556.127C56.0249 556.109 57.4829 556.091 59.0489 556.091C59.0309 555.425 59.0489 554.489 59.0669 553.985C59.3729 553.895 60.2909 553.877 60.5789 553.985C60.6149 554.489 60.6329 555.425 60.6149 556.091C62.1269 556.091 63.4769 556.109 63.9809 556.127C64.0889 556.343 64.0889 557.153 63.9809 557.405C62.7929 557.441 56.7449 557.441 55.4669 557.405ZM55.7369 561.221C55.7369 559.511 57.2309 558.305 59.8409 558.305C62.4509 558.305 63.9449 559.511 63.9449 561.221C63.9449 562.949 62.4509 564.155 59.8409 564.155C57.2309 564.155 55.7369 562.949 55.7369 561.221ZM67.0229 565.154C67.0769 566.144 67.0949 568.772 67.0229 569.654C66.6809 569.744 65.9249 569.744 65.4749 569.654V566.486C64.0169 566.504 57.0509 566.504 56.2409 566.486C56.1689 566.234 56.1689 565.46 56.2409 565.136C57.3749 565.082 66.3569 565.082 67.0229 565.154ZM57.1949 561.221C57.1949 562.229 58.0409 562.895 59.8409 562.895C61.6409 562.895 62.4869 562.229 62.4869 561.221C62.4869 560.231 61.6409 559.565 59.8409 559.565C58.0409 559.565 57.1949 560.231 57.1949 561.221ZM69.2729 560.771C68.8229 560.807 67.8869 560.825 67.1129 560.807C67.0949 562.517 67.0769 563.993 67.0409 564.353C66.7889 564.425 65.9429 564.425 65.5649 564.353C65.5109 563.471 65.5109 555.317 65.5649 554.417C65.8889 554.309 66.7349 554.309 67.0409 554.417C67.0949 554.867 67.1129 557.153 67.1129 559.421C67.8869 559.403 68.8229 559.421 69.2729 559.439C69.3629 559.655 69.3629 560.573 69.2729 560.771Z" fill="white"/>
<path d="M82.341 563.245C81.261 563.263 70.857 563.263 69.957 563.245C69.903 562.849 69.903 562.309 69.957 561.877C70.371 561.877 72.819 561.859 75.429 561.859C75.411 561.319 75.411 560.653 75.429 560.095C73.215 560.095 71.145 560.077 70.623 560.041C70.515 558.493 70.515 556.405 70.623 554.839C71.487 554.713 80.289 554.713 81.513 554.839C81.567 555.163 81.567 555.757 81.513 556.099C80.415 556.117 72.999 556.117 72.135 556.099V558.781C73.287 558.745 80.649 558.745 81.693 558.781C81.747 559.105 81.747 559.717 81.693 560.041C81.243 560.077 79.209 560.095 76.995 560.095C77.013 560.653 77.013 561.319 77.013 561.859C79.533 561.859 81.855 561.877 82.341 561.877C82.395 562.318 82.395 562.84 82.341 563.245ZM81.981 567.295C81.981 569.041 80.127 570.139 76.149 570.139C72.171 570.139 70.317 569.041 70.317 567.295C70.317 565.549 72.171 564.451 76.149 564.451C80.127 564.451 81.981 565.549 81.981 567.295ZM80.415 567.295C80.415 566.431 79.299 565.729 76.149 565.729C72.999 565.729 71.883 566.431 71.883 567.295C71.883 568.159 72.999 568.861 76.149 568.861C79.299 568.861 80.415 568.159 80.415 567.295Z" fill="white"/>
<path d="M95.6431 554.49C95.6971 555.39 95.6971 568.53 95.6431 569.43C95.3731 569.538 94.5271 569.538 94.1851 569.43C94.1671 569.142 94.1671 567.612 94.1671 565.632C93.2311 565.65 92.0071 565.65 91.2331 565.632C90.6391 568.062 89.3611 569.016 87.6151 569.016C85.1131 569.016 83.5831 567.09 83.5831 561.906C83.5831 556.668 85.1491 554.796 87.6151 554.796C89.2711 554.796 90.4951 555.66 91.1251 557.784C91.8811 557.766 93.1771 557.766 94.1671 557.766C94.1671 556.038 94.1671 554.76 94.1851 554.49C94.4911 554.382 95.3371 554.382 95.6431 554.49ZM90.0811 561.906C90.0811 557.676 89.1091 556.218 87.6151 556.218C86.0851 556.218 85.1311 557.712 85.1311 561.906C85.1311 566.136 86.0851 567.594 87.6151 567.594C89.1451 567.603 90.0811 566.109 90.0811 561.906ZM94.1671 564.228C94.1491 562.59 94.1491 560.772 94.1671 559.17C93.3031 559.188 92.2051 559.188 91.4311 559.17C91.5571 559.962 91.6111 560.862 91.6111 561.906C91.6111 562.77 91.5751 563.544 91.4851 564.228C92.2411 564.219 93.3211 564.219 94.1671 564.228ZM99.4051 569.691C99.1171 569.781 98.3251 569.781 97.9291 569.691C97.8751 568.809 97.8751 555.327 97.9291 554.427C98.3071 554.337 99.0631 554.337 99.4051 554.427C99.4591 555.318 99.4591 568.809 99.4051 569.691Z" fill="white"/>
<path d="M111.933 561.418C111.465 561.418 109.485 561.436 107.343 561.436C107.361 561.994 107.361 562.642 107.343 563.164C109.125 563.164 110.745 563.182 111.195 563.2C111.303 563.938 111.321 566.476 111.195 567.016C109.899 567.034 104.301 567.016 103.383 567.016V568.636C104.193 568.618 110.277 568.618 111.681 568.636C111.789 568.924 111.789 569.536 111.681 569.86C110.331 569.932 103.365 569.95 101.871 569.86C101.763 569.014 101.763 566.8 101.871 565.918C103.509 565.9 108.657 565.918 109.719 565.918V564.37H101.799C101.709 563.974 101.709 563.596 101.799 563.2C102.267 563.182 103.941 563.164 105.777 563.164C105.759 562.642 105.759 561.994 105.759 561.436C103.581 561.436 101.565 561.418 101.169 561.418C101.115 561.076 101.115 560.446 101.169 560.122C102.051 560.086 110.853 560.086 111.933 560.122C112.005 560.446 111.987 561.058 111.933 561.418ZM101.511 557.962C102.663 556.972 104.931 555.19 105.921 554.488C106.263 554.434 106.839 554.434 107.181 554.488C108.171 555.19 110.439 556.972 111.591 557.962C111.483 558.286 111.069 558.88 110.763 559.078C109.521 558.16 107.415 556.45 106.551 555.748C105.687 556.45 103.581 558.16 102.339 559.078C102.033 558.88 101.619 558.286 101.511 557.962Z" fill="white"/>
<path d="M121.023 555.083C121.131 556.001 121.131 567.917 121.023 568.889C120.141 568.961 114.579 568.961 113.715 568.889C113.589 567.953 113.589 556.019 113.715 555.083C114.669 554.921 120.069 554.921 121.023 555.083ZM119.511 556.433C119.169 556.361 115.569 556.361 115.209 556.433C115.155 557.639 115.155 566.279 115.209 567.503C115.569 567.557 119.169 567.557 119.511 567.503C119.565 566.288 119.565 557.639 119.511 556.433ZM127.215 562.355C126.765 562.373 125.829 562.373 125.073 562.373C125.073 565.847 125.055 569.231 125.037 569.663C124.785 569.789 123.885 569.789 123.525 569.663C123.489 568.781 123.489 555.317 123.525 554.417C123.831 554.309 124.731 554.309 125.037 554.417C125.055 554.813 125.073 557.747 125.073 560.933C125.829 560.915 126.747 560.933 127.215 560.951C127.287 561.167 127.287 562.121 127.215 562.355Z" fill="white"/>
<path d="M127.899 560.663C128.781 560.645 136.323 560.645 137.385 560.663C137.457 560.969 137.439 561.599 137.385 561.923C136.323 561.959 128.781 561.959 127.899 561.923C127.827 561.617 127.827 561.005 127.899 560.663ZM128.421 556.901C128.421 555.335 129.771 554.219 132.633 554.219C135.495 554.219 136.845 555.335 136.845 556.901C136.845 558.485 135.495 559.601 132.633 559.601C129.771 559.601 128.421 558.485 128.421 556.901ZM128.583 565.982C130.221 565.964 134.109 565.982 135.171 565.982V564.47H128.511C128.421 564.056 128.421 563.696 128.511 563.3C129.573 563.246 135.603 563.246 136.647 563.3C136.755 564.038 136.773 566.522 136.647 567.062C135.351 567.08 131.013 567.062 130.095 567.062V568.664C130.905 568.646 135.729 568.646 137.133 568.664C137.241 568.952 137.241 569.564 137.133 569.87C135.783 569.942 130.077 569.96 128.583 569.87C128.475 569.042 128.475 566.864 128.583 565.982ZM135.261 556.901C135.261 556.055 134.541 555.461 132.633 555.461C130.725 555.461 130.005 556.055 130.005 556.901C130.005 557.765 130.725 558.359 132.633 558.359C134.541 558.359 135.261 557.765 135.261 556.901Z" fill="white"/>
<path d="M216.716 558.648C215.69 558.684 213.98 558.666 213.404 558.63C213.296 558.324 213.296 557.586 213.404 557.298C213.98 557.262 215.69 557.262 216.716 557.28C216.716 555.354 216.716 553.716 216.734 553.374C217.058 553.266 217.904 553.266 218.228 553.374C218.3 554.274 218.3 563.652 218.228 564.552C217.958 564.624 217.112 564.624 216.734 564.552C216.716 564.102 216.698 561.33 216.716 558.648ZM205.718 562.32C205.34 562.302 204.638 562.014 204.386 561.762C204.512 561.348 206.42 557.28 207.374 555.282C205.988 555.282 204.818 555.264 204.458 555.246C204.368 554.994 204.368 554.13 204.458 553.878C205.448 553.824 212.216 553.824 213.17 553.878C213.26 554.13 213.26 554.976 213.17 555.246C212.792 555.264 211.586 555.282 210.2 555.282C211.19 557.208 213.242 561.276 213.386 561.672C213.134 561.96 212.45 562.266 212.072 562.302C211.82 561.924 209.66 557.514 208.796 555.66C207.95 557.622 205.952 561.942 205.718 562.32ZM218.75 566.982C218.822 567.306 218.822 568.026 218.75 568.368C217.526 568.422 206.006 568.422 205.232 568.368C205.178 567.27 205.16 564.264 205.232 563.31C205.538 563.202 206.366 563.202 206.762 563.31C206.762 564.102 206.78 566.118 206.762 566.982C208.238 566.964 217.94 566.964 218.75 566.982ZM221.101 561.186C220.795 561.006 220.327 560.412 220.183 560.088C220.417 559.836 223.351 556.974 225.061 555.354C222.847 555.354 220.903 555.354 220.705 555.336C220.633 555.03 220.633 554.238 220.705 553.968C221.245 553.914 231.325 553.914 231.883 553.968C231.955 554.238 231.955 555.03 231.883 555.336C231.631 555.354 229.723 555.354 227.545 555.354C229.219 556.956 232.153 559.818 232.405 560.088C232.279 560.394 231.793 561.006 231.487 561.186C231.145 560.952 227.869 557.712 226.303 556.128C224.737 557.712 221.461 560.934 221.101 561.186ZM232.441 562.284C232.531 562.644 232.549 563.328 232.441 563.652C232.027 563.67 229.633 563.67 227.059 563.67C227.077 565.128 227.077 567.99 227.041 568.728C226.753 568.8 225.907 568.8 225.511 568.728C225.493 567.99 225.493 565.128 225.511 563.67C222.883 563.67 220.453 563.67 220.111 563.652C220.021 563.31 220.021 562.626 220.111 562.284C220.849 562.248 231.541 562.248 232.441 562.284ZM243.528 556.218C242.232 556.254 235.032 556.254 233.754 556.218C233.628 555.984 233.628 555.192 233.754 554.958C234.33 554.922 236.076 554.904 237.966 554.904C237.948 554.256 237.966 553.41 237.984 552.942C238.29 552.852 239.208 552.834 239.496 552.942C239.532 553.41 239.55 554.256 239.532 554.904C241.332 554.904 242.97 554.922 243.528 554.958C243.636 555.174 243.636 555.966 243.528 556.218ZM246.66 559.53C247.434 559.512 248.352 559.53 248.802 559.548C248.892 559.764 248.892 560.646 248.802 560.844C248.352 560.88 247.416 560.898 246.642 560.88C246.624 561.762 246.606 562.446 246.588 562.68C246.336 562.752 245.49 562.752 245.112 562.68C245.058 561.798 245.058 554.274 245.112 553.374C245.436 553.266 246.282 553.266 246.588 553.374C246.624 553.68 246.642 554.796 246.642 556.164C247.416 556.146 248.352 556.164 248.802 556.182C248.892 556.416 248.892 557.28 248.802 557.478C248.352 557.514 247.434 557.532 246.66 557.514V559.53ZM238.758 562.356C235.608 562.356 234.024 561.294 234.024 559.728C234.024 558.198 235.608 557.118 238.758 557.118C241.908 557.118 243.492 558.198 243.492 559.728C243.492 561.294 241.908 562.356 238.758 562.356ZM238.758 558.342C236.544 558.342 235.482 558.9 235.482 559.728C235.482 560.574 236.544 561.132 238.758 561.132C240.972 561.132 242.034 560.574 242.034 559.728C242.034 558.9 240.972 558.342 238.758 558.342ZM240.756 563.202C245.238 563.202 247.002 564.318 247.002 566.028C247.002 567.738 245.238 568.854 240.756 568.854C236.292 568.854 234.528 567.738 234.528 566.028C234.528 564.318 236.292 563.202 240.756 563.202ZM240.756 567.54C244.23 567.54 245.436 566.892 245.436 566.028C245.436 565.164 244.23 564.516 240.756 564.516C237.3 564.516 236.094 565.164 236.094 566.028C236.094 566.892 237.3 567.54 240.756 567.54ZM260.679 555.372C259.779 555.408 251.013 555.408 250.167 555.372C250.077 555.03 250.077 554.4 250.167 554.04C251.157 553.968 261.309 553.968 262.173 554.04C262.245 554.832 262.209 563.31 262.173 564.03C261.795 564.102 261.111 564.102 260.679 564.03C260.661 563.112 260.661 556.668 260.679 555.372ZM262.965 566.73C263.019 567.108 263.037 567.72 262.965 568.08C262.047 568.116 250.275 568.116 249.501 568.08C249.429 567.702 249.429 567.09 249.501 566.73C249.735 566.712 250.923 566.712 252.525 566.694C252.507 564.894 252.507 560.592 252.543 559.836C252.867 559.746 253.731 559.746 254.055 559.836C254.073 560.592 254.073 564.876 254.055 566.694H256.593C256.575 564.876 256.575 560.592 256.611 559.836C256.935 559.746 257.799 559.746 258.123 559.836C258.141 560.592 258.141 564.894 258.123 566.694C260.535 566.712 262.605 566.712 262.965 566.73Z" fill="white"/>
</g>
<defs>
<clipPath id="clip0_672_27325">
<rect width="360" height="604" fill="white"/>
</clipPath>
</defs>
</svg>
