<svg width="48" height="48" viewBox="0 0 48 48" fill="none" xmlns="http://www.w3.org/2000/svg">
<rect width="48" height="48" rx="24" fill="#7245AB"/>
<path d="M16.17 30.89C16.85 30.35 17.16 30.1 17.1 30.14C19.06 28.52 20.6 27.19 21.72 26.15C22.86 25.11 23.82 24.02 24.6 22.88C25.38 21.74 25.77 20.63 25.77 19.55C25.77 18.73 25.58 18.09 25.2 17.63C24.82 17.17 24.25 16.94 23.49 16.94C22.73 16.94 22.13 17.23 21.69 17.81C21.27 18.37 21.06 19.17 21.06 20.21H16.11C16.15 18.51 16.51 17.09 17.19 15.95C17.89 14.81 18.8 13.97 19.92 13.43C21.06 12.89 22.32 12.62 23.7 12.62C26.08 12.62 27.87 13.23 29.07 14.45C30.29 15.67 30.9 17.26 30.9 19.22C30.9 21.36 30.17 23.35 28.71 25.19C27.25 27.01 25.39 28.79 23.13 30.53H31.23V34.7H16.17V30.89Z" fill="white"/>
</svg>
