<?xml version="1.0" encoding="UTF-8"?>
<svg id="_레이어_1" data-name="레이어 1" xmlns="http://www.w3.org/2000/svg" version="1.1" viewBox="0 0 27 27">
  <defs>
    <style>
      .cls-1 {
        fill: #000;
        stroke-width: 0px;
      }
    </style>
  </defs>
  <path class="cls-1" d="M16,25.5h9.9v-9.8h-5.6v-1.2c0-2.8.5-4.9,1.6-6.3,1-1.3,2.6-2.2,4.6-2.5V1.5c-3.9.7-6.6,2.3-8.2,4.8-1.6,2.5-2.3,5.6-2.3,9.4v9.8ZM.5,25.5h9.9v-9.8h-5.6v-1.2c0-2.8.5-4.9,1.6-6.3,1-1.3,2.6-2.2,4.6-2.5V1.5c-3.9.7-6.6,2.3-8.2,4.8C1.3,8.7.5,11.9.5,15.7v9.8Z"/>
</svg>