<?xml version="1.0" encoding="UTF-8"?>
<svg id="_레이어_1" data-name="레이어 1" xmlns="http://www.w3.org/2000/svg" version="1.1" viewBox="0 0 750 420">
  <defs>
    <style>
      .cls-1 {
        fill: #fad4c7;
      }

      .cls-1, .cls-2, .cls-3, .cls-4, .cls-5, .cls-6, .cls-7, .cls-8, .cls-9, .cls-10, .cls-11, .cls-12, .cls-13, .cls-14, .cls-15 {
        stroke-width: 0px;
      }

      .cls-16 {
        stroke-width: .7px;
      }

      .cls-16, .cls-17, .cls-18, .cls-19, .cls-20, .cls-21, .cls-22, .cls-23, .cls-24, .cls-25, .cls-26, .cls-27, .cls-28, .cls-29, .cls-30, .cls-31, .cls-32 {
        fill: none;
      }

      .cls-16, .cls-17, .cls-18, .cls-19, .cls-20, .cls-21, .cls-24, .cls-25, .cls-26, .cls-27, .cls-28, .cls-29, .cls-30, .cls-31, .cls-32 {
        stroke-linecap: round;
        stroke-linejoin: round;
      }

      .cls-16, .cls-18, .cls-24, .cls-32 {
        stroke: #fceb75;
      }

      .cls-17 {
        stroke-width: .5px;
      }

      .cls-17, .cls-19, .cls-25, .cls-26, .cls-29 {
        stroke: #1f425c;
      }

      .cls-2 {
        fill: #1f425c;
      }

      .cls-3 {
        fill: #f0d63d;
      }

      .cls-18 {
        stroke-width: .9px;
      }

      .cls-19 {
        stroke-width: .5px;
      }

      .cls-4 {
        fill: #bfcce5;
      }

      .cls-5 {
        fill: #ebe3c2;
      }

      .cls-6 {
        fill: #000;
      }

      .cls-7 {
        fill: #fceb75;
      }

      .cls-20 {
        stroke-width: 1.6px;
      }

      .cls-20, .cls-27, .cls-28, .cls-31 {
        stroke: #f0d63d;
      }

      .cls-21 {
        stroke: #2e576e;
        stroke-width: .5px;
      }

      .cls-8 {
        fill: #6b53cd;
      }

      .cls-22 {
        stroke: #000;
      }

      .cls-9 {
        fill: #87a6e8;
      }

      .cls-10 {
        fill: #ff7a00;
      }

      .cls-23 {
        stroke: #ff7a00;
        stroke-width: 2px;
      }

      .cls-24 {
        stroke-width: .3px;
      }

      .cls-11 {
        fill: #9e8ce8;
      }

      .cls-25 {
        stroke-width: .5px;
      }

      .cls-26 {
        stroke-width: .5px;
      }

      .cls-12 {
        fill: #788b99;
      }

      .cls-27 {
        stroke-width: 1px;
      }

      .cls-28 {
        stroke-width: .5px;
      }

      .cls-13 {
        fill: #c2b0f5;
      }

      .cls-29 {
        stroke-width: .6px;
      }

      .cls-30 {
        stroke: #9e8ce8;
        stroke-width: 1.6px;
      }

      .cls-31 {
        stroke-width: .5px;
      }

      .cls-14 {
        fill: #17214f;
      }

      .cls-15 {
        fill: #fff;
      }

      .cls-32 {
        stroke-width: .7px;
      }
    </style>
  </defs>
  <path class="cls-12" d="M55.9,349.6c-9.7,0-17.5,7.8-17.5,17.5v25h35v-25c0-9.7-7.8-17.5-17.5-17.5"/>
  <path class="cls-10" d="M55.9,353.6c2.5,0,4.5-2,4.5-4.5s-2-4.5-4.5-4.5-4.5,2-4.5,4.5,2,4.5,4.5,4.5"/>
  <path class="cls-12" d="M161.1,328.4c-9.7,0-17.5,7.8-17.5,17.5v45.8h35v-45.8c0-9.7-7.8-17.5-17.5-17.5"/>
  <path class="cls-10" d="M161.1,332.4c2.5,0,4.5-2,4.5-4.5s-2-4.5-4.5-4.5-4.5,2-4.5,4.5,2,4.5,4.5,4.5"/>
  <path class="cls-12" d="M266.2,306.4c-9.7,0-17.5,7.8-17.5,17.5v67.7h35v-67.7c0-9.7-7.8-17.5-17.5-17.5"/>
  <path class="cls-10" d="M266.2,310.4c2.5,0,4.5-2,4.5-4.5s-2-4.5-4.5-4.5-4.5,2-4.5,4.5,2,4.5,4.5,4.5"/>
  <path class="cls-12" d="M371.4,278.3c-9.7,0-17.5,7.8-17.5,17.5v95.8h35v-95.8c0-9.7-7.8-17.5-17.5-17.5"/>
  <path class="cls-10" d="M371.4,282.3c2.5,0,4.5-2,4.5-4.5s-2-4.5-4.5-4.5-4.5,2-4.5,4.5,2,4.5,4.5,4.5"/>
  <path class="cls-12" d="M476.5,233.1c-9.7,0-17.5,7.8-17.5,17.5v141h35v-141c0-9.7-7.8-17.5-17.5-17.5"/>
  <path class="cls-10" d="M476.5,237.2c2.5,0,4.5-2,4.5-4.5s-2-4.5-4.5-4.5-4.5,2-4.5,4.5,2,4.5,4.5,4.5"/>
  <path class="cls-12" d="M581.6,176.6c-9.7,0-17.5,7.8-17.5,17.5v197.5h35v-197.5c0-9.7-7.8-17.5-17.5-17.5"/>
  <path class="cls-10" d="M581.6,180.6c2.5,0,4.5-2,4.5-4.5s-2-4.5-4.5-4.5-4.5,2-4.5,4.5,2,4.5,4.5,4.5"/>
  <path class="cls-8" d="M686.8,100.6c-9.7,0-17.5,7.8-17.5,17.5v273.5h35V118.1c0-9.7-7.8-17.5-17.5-17.5"/>
  <path class="cls-10" d="M686.8,104.6c2.5,0,4.5-2,4.5-4.5s-2-4.5-4.5-4.5-4.5,2-4.5,4.5,2,4.5,4.5,4.5"/>
  <line class="cls-22" x1="10.2" y1="391.6" x2="733.2" y2="391.6"/>
  <polyline class="cls-23" points="55.2 349.6 163.2 328.6 265.2 307.6 373.2 280.6 475.2 232.6 583.2 181.6 685.2 102.1"/>
  <path class="cls-6" d="M69.3,413.6c2.9,0,4.5-1.1,4.5-3.3s-.8-2.3-1.9-2.7c.9-.4,1.5-1.3,1.5-2.5,0-1.7-1.6-2.9-4.1-2.9s-4.1,1.1-4.1,2.9.6,2.1,1.5,2.5c-1.2.4-1.9,1.4-1.9,2.7,0,2.1,1.6,3.3,4.5,3.3M69.3,404.2c1.4,0,2.1.5,2.1,1.3s-.8,1.3-2.1,1.3-2.1-.5-2.1-1.3.8-1.3,2.1-1.3M69.3,408.7c1.7,0,2.5.5,2.5,1.5s-.9,1.5-2.5,1.5-2.5-.5-2.5-1.5.8-1.5,2.5-1.5M59,413.6c2.9,0,4.5-1.1,4.5-3.3s-.8-2.3-1.9-2.7c.9-.4,1.5-1.3,1.5-2.5,0-1.7-1.6-2.9-4.1-2.9s-4.1,1.1-4.1,2.9.6,2.1,1.5,2.5c-1.2.4-1.9,1.4-1.9,2.7,0,2.1,1.6,3.3,4.5,3.3M59,404.2c1.4,0,2.1.5,2.1,1.3s-.8,1.3-2.1,1.3-2.1-.5-2.1-1.3.8-1.3,2.1-1.3M59,408.7c1.7,0,2.5.5,2.5,1.5s-.9,1.5-2.5,1.5-2.5-.5-2.5-1.5.8-1.5,2.5-1.5M51.1,406.9c-.5.5-1.5.8-2.4.8-1.4,0-2.3-.7-2.3-1.8s.8-1.8,2.2-1.8,2.4.8,2.5,2.7M44.3,406.1c0,2.2,1.5,3.6,3.9,3.6s2.1-.3,2.9-.9c-.1,2.1-.8,2.9-2.5,2.9s-1.6-.3-1.8-.8c0-.2-.3-.3-.6-.3h-1c-.3,0-.5.2-.4.4.2,1.6,1.7,2.7,3.8,2.7,3.2,0,4.6-2,4.6-5.8s-1.5-5.5-4.5-5.5c-2.7,0-4.3,1.5-4.3,3.8M40.4,413c0,.3.2.5.5.5h1.1c.3,0,.5-.2.5-.5v-10.1c0-.3-.2-.5-.5-.5h-.8c-.3,0-.5,0-.8.2l-2.1,1.2c-.3.1-.4.3-.4.5v1.3c0,.2.1.4.3.4s.1,0,.2,0l2-1.1v8.1Z"/>
  <path class="cls-6" d="M176.8,406.9c-.5.5-1.5.8-2.4.8-1.4,0-2.3-.7-2.3-1.8s.8-1.8,2.2-1.8,2.4.8,2.5,2.7M170,406.1c0,2.2,1.5,3.6,3.9,3.6s2.1-.3,2.9-.9c-.1,2.1-.8,2.9-2.5,2.9s-1.6-.3-1.8-.8c0-.2-.3-.3-.6-.3h-1c-.3,0-.5.2-.4.4.2,1.6,1.7,2.7,3.8,2.7,3.2,0,4.6-2,4.6-5.8s-1.5-5.5-4.5-5.5c-2.7,0-4.3,1.5-4.3,3.8M166.5,406.9c-.5.5-1.5.8-2.4.8-1.4,0-2.3-.7-2.3-1.8s.8-1.8,2.2-1.8,2.4.8,2.5,2.7M159.8,406.1c0,2.2,1.5,3.6,3.9,3.6s2.1-.3,2.9-.9c-.1,2.1-.8,2.9-2.5,2.9s-1.6-.3-1.8-.8c0-.2-.3-.3-.6-.3h-1c-.3,0-.5.2-.4.4.2,1.6,1.7,2.7,3.8,2.7,3.2,0,4.6-2,4.6-5.8s-1.5-5.5-4.5-5.5c-2.7,0-4.3,1.5-4.3,3.8M156.3,406.9c-.5.5-1.5.8-2.4.8-1.4,0-2.3-.7-2.3-1.8s.8-1.8,2.2-1.8,2.4.8,2.5,2.7M149.5,406.1c0,2.2,1.5,3.6,3.9,3.6s2.1-.3,2.9-.9c-.1,2.1-.8,2.9-2.5,2.9s-1.6-.3-1.8-.8c0-.2-.3-.3-.6-.3h-1c-.3,0-.5.2-.4.4.2,1.6,1.7,2.7,3.8,2.7,3.2,0,4.6-2,4.6-5.8s-1.5-5.5-4.5-5.5c-2.7,0-4.3,1.5-4.3,3.8M145.7,413c0,.3.2.5.5.5h1.1c.3,0,.5-.2.5-.5v-10.1c0-.3-.2-.5-.5-.5h-.8c-.3,0-.5,0-.8.2l-2.1,1.2c-.3.1-.4.3-.4.5v1.3c0,.2.1.4.3.4s.1,0,.2,0l2-1.1v8.1Z"/>
  <path class="cls-6" d="M280.2,408.7c2.2,0,2.9.4,2.9,1.5s-.8,1.5-2.3,1.5-2.3-.4-2.3-1.1-.2-.5-.5-.5h-1.1c-.3,0-.5.2-.5.5,0,1.9,1.7,3,4.4,3s4.4-1.3,4.4-3.3-.9-2.5-2.1-2.8c.9-.4,1.6-1.3,1.6-2.4,0-1.7-1.5-2.7-3.9-2.7s-3.9,1.1-3.9,3,.2.5.5.5h1.1c.3,0,.5-.2.5-.5,0-.7.6-1.1,1.9-1.1s1.9.4,1.9,1.1-.7,1.3-2.4,1.3-.4.2-.4.4v1.1c0,.3.2.4.4.4M268.7,407.9c0-2.5.8-3.7,2.4-3.7s2.4,1.2,2.4,3.7-.8,3.7-2.4,3.7-2.4-1.2-2.4-3.7M266.7,407.9c0,3.8,1.5,5.6,4.4,5.6s4.4-1.8,4.4-5.6-1.5-5.6-4.4-5.6-4.4,1.8-4.4,5.6M258.8,407.9c0-2.5.8-3.7,2.4-3.7s2.4,1.2,2.4,3.7-.8,3.7-2.4,3.7-2.4-1.2-2.4-3.7M256.8,407.9c0,3.8,1.5,5.6,4.4,5.6s4.4-1.8,4.4-5.6-1.5-5.6-4.4-5.6-4.4,1.8-4.4,5.6M255.3,405.6c0-2.1-1.5-3.4-3.9-3.4s-3.9,1.2-3.9,3.5.2.5.5.5h1.1c.3,0,.5-.2.5-.5,0-.9.8-1.5,1.9-1.5s1.9.6,1.9,1.5-.7,1.5-2.5,2.5c-2.6,1.4-3.5,2.6-3.5,4.4s.3.8.8.8h7.3c.3,0,.4-.2.4-.4v-1.1c0-.3-.2-.4-.4-.4h-5.6c.3-.5,1.1-1,2.3-1.7,2.2-1.2,3.3-2.4,3.3-4.1"/>
  <path class="cls-6" d="M386,413.1l3.5-8.5c0-.2.2-.5.2-.8v-.6c0-.5-.3-.8-.8-.8h-6.5c-.3,0-.4.2-.4.4v1.1c0,.3.2.4.4.4h5.1l-3.6,8.6c-.1.3,0,.4.3.4h1.2c.3,0,.5,0,.6-.4M374.7,407.9c0-2.5.8-3.7,2.4-3.7s2.4,1.2,2.4,3.7-.8,3.7-2.4,3.7-2.4-1.2-2.4-3.7M372.7,407.9c0,3.8,1.5,5.6,4.4,5.6s4.4-1.8,4.4-5.6-1.5-5.6-4.4-5.6-4.4,1.8-4.4,5.6M364.8,407.9c0-2.5.8-3.7,2.4-3.7s2.4,1.2,2.4,3.7-.8,3.7-2.4,3.7-2.4-1.2-2.4-3.7M362.8,407.9c0,3.8,1.5,5.6,4.4,5.6s4.4-1.8,4.4-5.6-1.5-5.6-4.4-5.6-4.4,1.8-4.4,5.6M361.4,405.6c0-2.1-1.5-3.4-3.9-3.4s-3.9,1.2-3.9,3.5.2.5.5.5h1.1c.3,0,.5-.2.5-.5,0-.9.8-1.5,1.9-1.5s1.9.6,1.9,1.5-.7,1.5-2.5,2.5c-2.6,1.4-3.5,2.6-3.5,4.4s.3.8.8.8h7.3c.3,0,.4-.2.4-.4v-1.1c0-.3-.2-.4-.4-.4h-5.6c.3-.5,1.1-1,2.3-1.7,2.2-1.2,3.3-2.4,3.3-4.1"/>
  <path class="cls-6" d="M489.4,413c0,.3.2.5.5.5h1.1c.3,0,.5-.2.5-.5v-10.1c0-.3-.2-.5-.5-.5h-.8c-.3,0-.5,0-.8.2l-2.1,1.2c-.3.1-.4.3-.4.5v1.3c0,.2.1.3.3.3s.1,0,.2,0l2-1.1v8.1ZM483.2,413c0,.3.2.5.5.5h1.1c.3,0,.5-.2.5-.5v-10.1c0-.3-.2-.5-.5-.5h-.8c-.3,0-.5,0-.8.2l-2.1,1.2c-.3.1-.4.3-.4.5v1.3c0,.2.1.3.3.3s.1,0,.2,0l2-1.1v8.1ZM472.6,407.9c0-2.5.8-3.7,2.4-3.7s2.4,1.2,2.4,3.7-.8,3.7-2.4,3.7-2.4-1.2-2.4-3.7M470.6,407.9c0,3.8,1.5,5.6,4.4,5.6s4.4-1.8,4.4-5.6-1.5-5.6-4.4-5.6-4.4,1.8-4.4,5.6M469.2,405.6c0-2.1-1.5-3.4-3.9-3.4s-3.9,1.2-3.9,3.5.2.5.5.5h1.1c.3,0,.5-.2.5-.5,0-.9.8-1.5,1.9-1.5s1.9.6,1.9,1.5-.7,1.5-2.5,2.5c-2.6,1.4-3.5,2.6-3.5,4.4s.3.8.8.8h7.3c.3,0,.4-.2.4-.4v-1.1c0-.3-.2-.4-.4-.4h-5.6c.3-.5,1.1-1,2.3-1.7,2.2-1.2,3.3-2.4,3.3-4.1"/>
  <path class="cls-6" d="M591,403.2l-.4,5.2c0,.2.1.4.4.4h1.2c.2,0,.3,0,.5-.2.5-.4,1.2-.6,2-.6,1.2,0,2,.7,2,1.8s-.7,1.8-2.2,1.8-2-.3-2.2-1c0-.3-.2-.4-.5-.4h-1c-.3,0-.5.2-.5.4,0,1.8,1.5,2.9,4.2,2.9s4.2-1.4,4.2-3.8-1.4-3.6-3.7-3.6-1.9.3-2.4.8l.2-2.6h4.6c.3,0,.4-.2.4-.4v-1.1c0-.3-.2-.4-.4-.4h-5.6c-.6,0-.9.3-1,.8M586.6,413c0,.3.2.5.5.5h1.1c.3,0,.5-.2.5-.5v-10.1c0-.3-.2-.5-.5-.5h-.8c-.3,0-.5,0-.8.2l-2.1,1.2c-.3.1-.4.3-.4.5v1.3c0,.2.1.3.3.3s.1,0,.2,0l2-1.1v8.1ZM576,407.9c0-2.5.8-3.7,2.4-3.7s2.4,1.2,2.4,3.7-.8,3.7-2.4,3.7-2.4-1.2-2.4-3.7M574,407.9c0,3.8,1.5,5.6,4.4,5.6s4.4-1.8,4.4-5.6-1.5-5.6-4.4-5.6-4.4,1.8-4.4,5.6M572.6,405.6c0-2.1-1.5-3.4-3.9-3.4s-3.9,1.2-3.9,3.5.2.5.5.5h1.1c.3,0,.5-.2.5-.5,0-.9.8-1.5,1.9-1.5s1.9.6,1.9,1.5-.7,1.5-2.5,2.5c-2.6,1.4-3.5,2.6-3.5,4.4s.3.8.8.8h7.3c.3,0,.4-.2.4-.4v-1.1c0-.3-.2-.4-.4-.4h-5.6c.3-.5,1.1-1,2.3-1.7,2.2-1.2,3.3-2.4,3.3-4.1"/>
  <path class="cls-6" d="M700.5,408.7c2.2,0,2.9.4,2.9,1.5s-.8,1.5-2.3,1.5-2.3-.4-2.3-1.1-.2-.5-.5-.5h-1.1c-.3,0-.5.2-.5.5,0,1.9,1.7,3,4.4,3s4.4-1.3,4.4-3.3-.9-2.5-2.1-2.8c.9-.4,1.6-1.3,1.6-2.4,0-1.7-1.5-2.7-3.9-2.7s-3.9,1.1-3.9,3,.2.5.5.5h1.1c.3,0,.5-.2.5-.5,0-.7.6-1.1,1.9-1.1s1.9.4,1.9,1.1-.7,1.3-2.4,1.3-.4.2-.4.4v1.1c0,.3.2.4.4.4M695.2,405.6c0-2.1-1.5-3.4-3.9-3.4s-3.9,1.2-3.9,3.5.2.5.5.5h1.1c.3,0,.5-.2.5-.5,0-.9.8-1.5,1.9-1.5s1.9.6,1.9,1.5-.7,1.5-2.5,2.5c-2.6,1.4-3.5,2.6-3.5,4.4s.3.8.8.8h7.3c.3,0,.4-.2.4-.4v-1.1c0-.3-.2-.4-.4-.4h-5.6c.3-.5,1.1-1,2.3-1.7,2.2-1.2,3.3-2.4,3.3-4.1M679.6,407.9c0-2.5.8-3.7,2.4-3.7s2.4,1.2,2.4,3.7-.8,3.7-2.4,3.7-2.4-1.2-2.4-3.7M677.6,407.9c0,3.8,1.5,5.6,4.4,5.6s4.4-1.8,4.4-5.6-1.5-5.6-4.4-5.6-4.4,1.8-4.4,5.6M676.2,405.6c0-2.1-1.5-3.4-3.9-3.4s-3.9,1.2-3.9,3.5.2.5.5.5h1.1c.3,0,.5-.2.5-.5,0-.9.8-1.5,1.9-1.5s1.9.6,1.9,1.5-.7,1.5-2.5,2.5c-2.6,1.4-3.5,2.6-3.5,4.4s.3.8.8.8h7.3c.3,0,.4-.2.4-.4v-1.1c0-.3-.2-.4-.4-.4h-5.6c.3-.5,1.1-1,2.3-1.7,2.2-1.2,3.3-2.4,3.3-4.1"/>
  <path class="cls-6" d="M210.9,8.1v16.6c0,.4.2.7.7.7h1.6c.4,0,.7-.2.7-.7V8.1c0-.4-.2-.7-.7-.7h-1.6c-.4,0-.7.2-.7.7M202.1,15.7c0-3.3.5-4.6,1.8-4.6s1.8,1.3,1.8,4.6-.5,4.6-1.8,4.6-1.8-1.3-1.8-4.6M203.9,8.5c-3.2,0-4.7,2.2-4.7,7.3s1.4,7.3,4.7,7.3,4.7-2.2,4.7-7.3-1.4-7.3-4.7-7.3M190.9,21.6c0-.5.3-.8.9-.8,2,0,3.9-.2,4.9-.3.5,0,.7-.3.7-.6v-1.5c0-.4-.3-.7-.7-.6-1.2.2-4.1.3-7.2.3s-5.4-.1-7.2-.3c-.4,0-.7.2-.7.6v1.5c0,.4.2.6.7.6,1.6.2,3.9.3,6.3.3-.4.2-.6.5-.6,1v2.2c0,.4.2.7.7.7h1.6c.4,0,.6-.2.6-.7v-2.4ZM191,7.8v-.8c0-.4-.2-.6-.6-.6h-1.7c-.4,0-.6.2-.6.6v.7c0,.3,0,.5.3.6h-4.4c-.4,0-.7.2-.7.7v1.4c0,.4.2.7.7.7h4.1c0,1.7-1.6,2.7-4.4,2.7s-.7.2-.7.6v1.5c0,.5.4.6.8.6,2.8,0,4.9-1,5.6-2.6.8,1.6,2.9,2.6,5.7,2.6s.8,0,.8-.6v-1.5c0-.4-.2-.6-.7-.6-2.8,0-4.3-1.1-4.3-2.7h4c.4,0,.7-.2.7-.7v-1.4c0-.4-.2-.7-.7-.7h-3.5c-.4,0-.5-.2-.5-.4M168.6,23h-5.2c-.6,0-.9-.3-.9-.7v-1.2c0-.4.2-.5.5-.5h6c.6,0,.9.4.9,1.1s-.6,1.4-1.3,1.4M168.5,7.9c-3.1,0-6.2.2-8,.3-.4,0-.6.3-.6.6v1.5c0,.4.3.6.6.6,2.7-.2,5-.3,7.1-.3s1.9.5,1.9,1.6-.3,1.7-.5,2.2c-.9,0-2,0-3,0-2.8,0-5.4,0-7.2-.2-.4,0-.7.2-.7.6v1.2c0,.4.2.6.7.6,1.7.1,4.4.2,7.2.2s6,0,7.2-.2c.5,0,.7-.3.7-.6v-1.2c0-.4-.3-.6-.7-.6-.3,0-.7,0-1.2,0,.3-.9.5-2,.5-2.9,0-2.4-1.2-3.5-4-3.5M171.1,23.1c1-.5,1.6-1.4,1.6-2.6s-.9-2.3-2.6-2.3h-9.5c-.7,0-1.1.4-1.1,1.1v4c0,1.4.9,2.2,2.5,2.2h10.3c.4,0,.6-.2.6-.6v-1.1c0-.4-.2-.6-.6-.6h-1.3ZM152.7,8.1v8.2c0,.4.2.7.7.7h1.6c.4,0,.7-.2.7-.7v-8.2c0-.4-.2-.7-.7-.7h-1.6c-.4,0-.7.2-.7.7M147,13.4c.7,0,1.6,0,2.7,0s.5-.2.5-.5v-1c0-.4-.2-.5-.5-.5h-.4c.7-.4,1.1-1,1.1-1.6,0-1.3-1.1-1.8-3.7-1.8s-3,0-4.4.3c-.4,0-.6.2-.6.6v1.2c0,.4.2.6.6.5,1.4-.2,2.4-.3,3.4-.3s1.7.1,1.7.5-.3.4-1.6.4c-3.4,0-4.8.8-4.8,3s1.4,2.9,4.8,2.9,3.2-.3,4.5-.7c.5-.2.6-.4.5-.8l-.3-1c-.1-.3-.2-.5-.4-.5s-.2,0-.3,0c-1,.4-2.3.6-3.5.6-2,0-2.4-.1-2.4-.7s.4-.6,3-.6M145.2,25.4h7.3c1.7,0,2.6-.8,2.7-2.2l.3-4.5c0-.4-.2-.7-.7-.7h-1.6c-.4,0-.6.2-.7.7v.6h-7.4v-.6c0-.4-.3-.7-.7-.7h-1.6c-.4,0-.7.3-.7.7l.3,4.5c.1,1.4,1,2.2,2.7,2.2M145.4,21.7h7v.7c0,.4-.3.6-.7.6h-5.7c-.4,0-.6-.2-.6-.6v-.7ZM135.7,13.2v3.3c0,.4.2.7.7.7h1.6c.4,0,.7-.2.7-.7v-8.4c0-.4-.2-.7-.7-.7h-1.6c-.4,0-.7.2-.7.7v1.9c0,.6-.4,1-1.1,1h-.9c-.4,0-.6.2-.6.6v1.5c0,.4.2.6.6.6h.9c.5,0,.9-.2,1.1-.5M126.1,18.8c-.4,0-.6.2-.6.6v1.5c0,.4.2.6.6.6,2.2-.2,4.7-.4,7.9-.4s1.5.4,1.5,1.5,0,1.5-.1,2.2c0,.4.2.7.6.7h1.6c.4,0,.6-.2.7-.6,0-.5.1-1.6.1-2.8,0-2.4-1.3-3.5-4-3.5-3.9,0-6.4.1-8.4.4M132.7,7.9h-8c-.4,0-.7.2-.7.7v1.4c0,.4.2.7.7.7h2.6v.7c0,1.9-1.1,3-2.7,3s-.7.2-.7.6v1.5c0,.4.2.6.7.6,1.9,0,3.6-.9,4.2-2.6.5,1.7,2.2,2.6,4.1,2.6s.6-.2.6-.6v-1.5c0-.4-.2-.6-.6-.6-1.6,0-2.7-1.1-2.7-3v-.7h2.5c.4,0,.7-.2.7-.7v-1.4c0-.4-.2-.7-.7-.7M111.2,23h-5.2c-.6,0-.9-.3-.9-.7v-1.2c0-.4.2-.5.5-.5h6c.6,0,.9.4.9,1.1s-.6,1.4-1.3,1.4M111.1,7.9c-3.1,0-6.2.2-8,.3-.4,0-.6.3-.6.6v1.5c0,.4.3.6.6.6,2.7-.2,5-.3,7.1-.3s1.9.5,1.9,1.6-.3,1.7-.5,2.2c-.9,0-2,0-3,0-2.8,0-5.4,0-7.2-.2-.4,0-.7.2-.7.6v1.2c0,.4.2.6.7.6,1.7.1,4.4.2,7.2.2s6,0,7.2-.2c.5,0,.7-.3.7-.6v-1.2c0-.4-.3-.6-.7-.6-.3,0-.7,0-1.2,0,.3-.9.5-2,.5-2.9,0-2.4-1.2-3.5-4-3.5M113.7,23.1c1-.5,1.6-1.4,1.6-2.6s-.9-2.3-2.6-2.3h-9.5c-.7,0-1.1.4-1.1,1.1v4c0,1.4.9,2.2,2.5,2.2h10.3c.4,0,.6-.2.6-.6v-1.1c0-.4-.2-.6-.6-.6h-1.3ZM95.3,8.1v16.6c0,.4.2.7.7.7h1.6c.4,0,.7-.2.7-.7V8.1c0-.4-.2-.7-.7-.7h-1.6c-.4,0-.7.2-.7.7M89.4,22c0,.4.2.7.6.7h1.6c.4,0,.6-.1.7-.6.5-3,.7-5.8.7-9s-1.2-4.4-4-4.4-2.5,0-4.6.4c-.4,0-.6.2-.6.6v1.5c0,.4.2.7.6.6,1.3-.1,2.4-.4,4.1-.4s1.5.5,1.5,2c0,2.7-.2,5.3-.7,8.5M76.4,23h-5.2c-.6,0-.9-.3-.9-.7v-1.2c0-.4.2-.5.5-.5h6c.6,0,.9.4.9,1.1s-.6,1.4-1.3,1.4M76.3,7.9c-3.1,0-6.2.2-8,.3-.4,0-.6.3-.6.6v1.5c0,.4.3.6.6.6,2.7-.2,5-.3,7.1-.3s1.9.5,1.9,1.6-.3,1.7-.5,2.2c-.9,0-2,0-3,0-2.8,0-5.4,0-7.2-.2-.4,0-.7.2-.7.6v1.2c0,.4.2.6.7.6,1.7.1,4.4.2,7.2.2s6,0,7.2-.2c.5,0,.7-.3.7-.6v-1.2c0-.4-.3-.6-.7-.6-.3,0-.7,0-1.2,0,.3-.9.5-2,.5-2.9,0-2.4-1.2-3.5-4-3.5M78.9,23.1c1-.5,1.6-1.4,1.6-2.6s-.9-2.3-2.6-2.3h-9.5c-.7,0-1.1.4-1.1,1.1v4c0,1.4.9,2.2,2.5,2.2h10.3c.4,0,.6-.2.6-.6v-1.1c0-.4-.2-.6-.6-.6h-1.3ZM55.3,25.6c3.5,0,6-.1,8-.4.4,0,.6-.2.6-.6v-1.5c-.1-.4-.3-.7-.7-.6-2.1.2-4.8.4-7.5.4s-2.3-.6-2.3-1.7,0-.9.1-1.5c0-.4-.2-.7-.7-.7h-1.6c-.4,0-.6.2-.7.7,0,.5-.1.9-.1,1.9,0,2.5,1.7,4,4.8,4M53.4,7.7c-2.9,0-4.6,1.9-4.6,5s1.7,5,4.6,5,4.6-1.9,4.6-5-1.7-5-4.6-5M60.5,8.5c0,.6-.2.8-.8.8h-.8c-.4,0-.6.2-.6.6v1.4c0,.4.2.6.6.6h.5c.5,0,.9-.1,1.1-.4v1.4c0,.5-.2.8-.8.8h-.8c-.4,0-.6.2-.6.6v1.4c0,.4.2.6.6.6h.5c.5,0,.9-.1,1.1-.4v3.5c0,.4.2.7.7.7h1.6c.4,0,.7-.2.7-.7v-11.2c0-.4-.2-.7-.7-.7h-1.6c-.4,0-.7.2-.7.7v.4ZM51.7,12.6c0-1.5.6-2.4,1.7-2.4s1.7.9,1.7,2.4-.6,2.4-1.7,2.4-1.7-.9-1.7-2.4M38.3,25.6c3.5,0,6-.1,8-.4.4,0,.6-.2.6-.6v-1.5c-.1-.4-.3-.7-.7-.6-2.1.2-4.8.4-7.5.4s-2.3-.6-2.3-1.7,0-.9.1-1.5c0-.4-.2-.7-.7-.7h-1.6c-.4,0-.6.2-.7.7,0,.5-.1.9-.1,1.9,0,2.5,1.7,4,4.8,4M43.5,8.1v11.2c0,.4.2.7.7.7h1.6c.4,0,.7-.2.7-.7v-11.2c0-.4-.2-.7-.7-.7h-1.6c-.4,0-.7.2-.7.7M34.7,17.4h5.8c.4,0,.6-.2.6-.6v-1.3c0-.4-.2-.6-.6-.6h-1.3c1.3-.6,2-2.2,2-3.9s-1.2-3.2-3-3.2h-5.1c-.8,0-1.1.4-1.1,1.2v6.1c0,1.4,1,2.3,2.7,2.3M35.8,14.8c-.6,0-.9-.3-.9-.8v-2.9c0-.4.2-.6.6-.6h1.3c1,0,1.5.7,1.5,1.9s-.7,2.4-1.7,2.4h-.8ZM24.8,18.8h-1.2v-1.2c0-.4.2-.6.7-.6,1.8,0,4,0,5-.2.5,0,.7-.3.7-.6v-1.2c0-.4-.3-.6-.7-.6-.3,0-.7,0-1.2,0,.2-.9.4-1.8.4-3,0-2.5-1.2-3.6-4-3.6s-6.2.2-8,.3c-.4,0-.6.3-.6.6v1.5c0,.4.3.6.6.6,2.7-.2,5-.3,7.1-.3s1.9.5,1.9,1.7-.2,1.8-.5,2.3c-1,0-2,0-3.1,0-2.8,0-5.4,0-7.2-.2-.4,0-.7.2-.7.6v1.2c0,.4.2.6.7.6,1.6.1,4.1.2,6.2.1-.3.1-.4.4-.4.7v1.2c-1.8,0-3.2.2-4.4.3-.4,0-.6.2-.6.6v1.5c0,.4.2.6.6.6,2.2-.2,4.9-.4,8.1-.4s1.5.4,1.5,1.5,0,1.3-.1,1.9c0,.4.2.7.6.7h1.6c.4,0,.6-.2.7-.6,0-.4.1-1.3.1-2.5,0-2.4-1.3-3.5-4-3.5"/>
  <path class="cls-6" d="M737.6,22.9c1.4-2.2,2.2-4.7,2.2-7.6s-.8-5.4-2.2-7.6l-.9.4c1.3,2.1,1.9,4.7,1.9,7.2s-.6,5.1-1.9,7.2l.9.4ZM723.7,15.6v1h5.6v2.7h1.2v-2.7h5.4v-1h-12.2ZM726.5,18h-1.2v3.8h9.3v-1h-8.1v-2.8ZM724.9,14.6c2.2-.3,4.2-1.4,4.9-3,.7,1.6,2.7,2.6,4.9,3l.5-1c-2.4-.3-4.5-1.7-4.5-3.3h0s4.2,0,4.2,0v-1h-10v1h4.2c0,1.6-2.2,3-4.6,3.3l.5,1ZM720.3,22.1h1.2v-13.5h-1.2v13.5ZM711.3,10.1v1h5.1c-.3,3.2-2.1,5.8-5.7,7.5l.7,1c4.5-2.2,6.3-5.6,6.3-9.5h-6.3ZM704.1,11.6v-2.9h-1.2v6.8h1.2v-2.9h2v-1h-2ZM696.8,19.5h7.3v-3.3h-8.6v1h7.3v1.4h-7.3v3.4h9v-1h-7.8v-1.5ZM700.4,9.4h-6.2v5.4h6.2v-5.4ZM699.2,13.8h-3.8v-3.4h3.8v3.4ZM680.1,21.1v-1.2h7.8v-2.8h-9v.9h7.8v1.1h-7.8v2.9h9.5v-.9h-8.2ZM680.5,16.6h1.2v-2.1c1.3,0,2.6-.2,3.9-.4v-.8c-3,.3-6.2.3-8.8.3l.2.9c1.1,0,2.3,0,3.5,0v2ZM681.2,13c2,0,3.3-.8,3.3-2s-1.3-2-3.3-2-3.3.8-3.3,2,1.3,2,3.3,2M681.2,9.8c1.3,0,2.2.5,2.2,1.2s-.8,1.2-2.2,1.2-2.2-.5-2.2-1.2.9-1.2,2.2-1.2M684,15.1v.8h2.7v.7h1.2v-7.9h-1.2v6.4h-2.7ZM669,21h6.9v-1.2h-3c-.6,0-1.2,0-1.8.1,2.6-2.4,4.3-4.7,4.3-6.9s-1.2-3.3-3.2-3.3-2.3.6-3.2,1.6l.8.8c.6-.7,1.4-1.3,2.3-1.3,1.4,0,2,.9,2,2.2,0,1.9-1.6,4.1-5,7.1v.8ZM662,21h6v-1.1h-2.2v-9.9h-1c-.6.3-1.3.6-2.3.8v.9h2v8.2h-2.4v1.1ZM655.6,20.9c.5,0,1-.4,1-1s-.5-1.1-1-1.1-1,.4-1,1.1.5,1,1,1M649.7,21.2c2,0,3.5-1.2,3.5-3.1s-1-2.5-2.3-2.8h0c1.2-.5,2-1.4,2-2.7s-1.3-2.8-3.2-2.8-2.2.6-3.1,1.3l.7.9c.6-.6,1.4-1.1,2.3-1.1,1.1,0,1.9.7,1.9,1.8s-.8,2.1-3,2.1v1c2.5,0,3.4.9,3.4,2.2s-.9,2-2.2,2-2.1-.6-2.7-1.3l-.7.9c.7.8,1.8,1.5,3.5,1.5M638.7,21h6.9v-1.2h-3c-.6,0-1.2,0-1.8.1,2.6-2.4,4.3-4.7,4.3-6.9s-1.2-3.3-3.2-3.3-2.3.6-3.2,1.6l.8.8c.6-.7,1.4-1.3,2.3-1.3,1.4,0,2,.9,2,2.2,0,1.9-1.6,4.1-5,7.1v.8ZM634.5,20.1c-1.3,0-2.1-1.4-2.1-4.6s.8-4.6,2.1-4.6,2.1,1.4,2.1,4.6-.8,4.6-2.1,4.6M634.5,21.2c2.1,0,3.4-1.9,3.4-5.7s-1.3-5.7-3.4-5.7-3.4,1.8-3.4,5.7,1.3,5.7,3.4,5.7M623.2,21h6.9v-1.2h-3c-.6,0-1.2,0-1.8.1,2.6-2.4,4.3-4.7,4.3-6.9s-1.2-3.3-3.2-3.3-2.3.6-3.2,1.6l.8.8c.6-.7,1.4-1.3,2.3-1.3,1.4,0,2,.9,2,2.2,0,1.9-1.6,4.1-5,7.1v.8ZM616.5,23.5c1.3-.6,2.2-1.7,2.2-3.1s-.4-1.6-1.2-1.6-1,.4-1,1,.5,1,1,1,.1,0,.2,0c0,.9-.6,1.6-1.5,2.1l.3.8ZM606.1,20.8v-2.9h-1.2v3.9h9.5v-1h-8.3ZM606.8,18.4h1.2v-2.7c1.2,0,2.5-.2,3.6-.4v-.9c-3,.4-6.3.4-8.8.4l.2,1c1.1,0,2.4,0,3.7,0v2.6ZM607.3,13.9c2,0,3.3-.9,3.3-2.4s-1.3-2.3-3.3-2.3-3.3.9-3.3,2.3,1.3,2.4,3.3,2.4M607.3,10.1c1.3,0,2.1.6,2.1,1.4s-.9,1.4-2.1,1.4-2.1-.6-2.1-1.4.9-1.4,2.1-1.4M610,16.6v.9h2.7v1.4h1.2v-10.2h-1.2v8h-2.7ZM592.9,19.4v-3.3h-1.2v3.3h-5.5v1h12.2v-1h-5.5ZM587.3,16.6c2-.4,4.1-1.8,5-3.6.9,1.8,3,3.2,5,3.6l.5-1c-2.3-.4-4.9-2.2-4.9-4.4v-.3h4.5v-1h-10.2v1h4.5v.3c0,2.1-2.6,4-4.9,4.4l.5,1ZM580.3,19.8c.5,0,1-.4,1-1s-.5-1.1-1-1.1-1,.4-1,1.1.4,1,1,1M580.3,12.1c.5,0,1-.4,1-1s-.5-1.1-1-1.1-1,.4-1,1.1.4,1,1,1M572,22.1h1.2v-13.5h-1.2v13.5ZM571,15.5c-3,.5-6.4.5-8.9.5l.2,1c1.1,0,2.4,0,3.7,0v4.8h1.2v-4.8c1.3,0,2.6-.2,3.9-.4v-.9ZM566.6,14.8c2,0,3.4-1.1,3.4-2.8s-1.4-2.8-3.4-2.8-3.4,1.1-3.4,2.8,1.4,2.8,3.4,2.8M566.6,10.3c1.3,0,2.2.7,2.2,1.8s-.9,1.8-2.2,1.8-2.2-.7-2.2-1.8.9-1.8,2.2-1.8M559.4,12.7v-4h-1.2v9.7h1.2v-4.7h2v-1h-2ZM552.3,17.4h-1.2v4.4h9v-1h-7.7v-3.4ZM556.8,14.6c-1.8.3-3.3.5-5.9.5v-4.2h4.7v-1h-6v6.2h1.1c2.8,0,4.4,0,6.3-.5v-1ZM547.3,22.9l.8-.4c-1.3-2.1-1.9-4.7-1.9-7.2s.6-5.1,1.9-7.2l-.8-.4c-1.4,2.2-2.2,4.7-2.2,7.6s.8,5.4,2.2,7.6"/>
  <path class="cls-8" d="M722,87.8c5.2,0,8.1-2,8.1-5.8s-1.4-4.2-3.5-4.8c1.6-.6,2.8-2.3,2.8-4.4,0-3.1-2.9-5.1-7.4-5.1s-7.4,2-7.4,5.1,1.1,3.8,2.8,4.4c-2.1.6-3.5,2.5-3.5,4.8,0,3.8,2.9,5.8,8.1,5.8M722,71.1c2.4,0,3.8.9,3.8,2.4s-1.4,2.3-3.8,2.3-3.8-.9-3.8-2.3,1.4-2.4,3.8-2.4M722,79.1c3,0,4.5.9,4.5,2.6s-1.5,2.7-4.5,2.7-4.5-.9-4.5-2.7,1.5-2.6,4.5-2.6M707.2,87.4c0,1.3.8,2.1,2.1,2.1s2.2-.9,2.2-2.1-.9-2.1-2.2-2.1-2.1.9-2.1,2.1M690.7,69.3l-.7,9.4c0,.4.2.6.8.6h2.1c.4,0,.6,0,.9-.3.8-.7,2.1-1.1,3.6-1.1,2.2,0,3.7,1.2,3.7,3.2s-1.2,3.2-3.9,3.2-3.5-.5-3.8-1.8c-.1-.5-.4-.7-.9-.7h-1.9c-.6,0-.9.3-.9.8,0,3.3,2.7,5.2,7.5,5.2s7.5-2.4,7.5-6.8-2.5-6.5-6.5-6.5-3.4.5-4.4,1.5l.3-4.6h8.2c.5,0,.8-.3.8-.8v-2c0-.5-.3-.8-.8-.8h-10c-1,0-1.7.5-1.7,1.4M678.9,79c4,0,5.2.6,5.2,2.6s-1.4,2.6-4.2,2.6-4.2-.7-4.2-1.9-.3-.8-.8-.8h-2c-.5,0-.8.3-.8.8,0,3.4,3,5.4,7.8,5.4s7.8-2.2,7.8-5.9-1.5-4.5-3.8-5.1c1.7-.7,2.8-2.4,2.8-4.3,0-3.1-2.6-4.9-7.1-4.9s-7.1,2-7.1,5.4.3.8.8.8h2c.5,0,.8-.3.8-.8,0-1.3,1.1-1.9,3.4-1.9s3.4.7,3.4,2-1.2,2.4-4.2,2.4-.8.3-.8.8v2c0,.5.3.8.8.8M658.3,77.7c0-4.5,1.4-6.6,4.3-6.6s4.3,2.1,4.3,6.6-1.4,6.6-4.3,6.6-4.3-2.1-4.3-6.6M654.7,77.7c0,6.8,2.7,10.1,7.8,10.1s7.8-3.3,7.8-10.1-2.7-10.1-7.8-10.1-7.8,3.3-7.8,10.1M647.8,86.8c0,.5.3.8.8.8h2c.5,0,.8-.3.8-.8v-18c0-.5-.3-.8-.8-.8h-1.4c-.5,0-1,0-1.4.4l-3.8,2.1c-.5.2-.7.5-.7,1v2.3c0,.4.2.6.5.6s.2,0,.4-.1l3.6-1.9v14.5Z"/>
  <path class="cls-6" d="M601.9,154.6c3.2,0,4.2.5,4.2,2.1s-1.1,2.1-3.3,2.1-3.3-.5-3.3-1.5-.2-.7-.7-.7h-1.6c-.4,0-.7.2-.7.7,0,2.7,2.4,4.3,6.2,4.3s6.2-1.8,6.2-4.7-1.2-3.6-3-4c1.3-.6,2.2-1.9,2.2-3.5,0-2.4-2.1-3.9-5.6-3.9s-5.6,1.6-5.6,4.3.2.7.7.7h1.6c.4,0,.7-.2.7-.7,0-1,.9-1.5,2.7-1.5s2.7.6,2.7,1.6-.9,1.9-3.4,1.9-.6.2-.6.6v1.6c0,.4.2.6.6.6M591.1,161.4c0,1,.7,1.7,1.7,1.7s1.7-.7,1.7-1.7-.7-1.7-1.7-1.7-1.7.7-1.7,1.7M588.7,150.3c0-3.1-2.1-4.8-5.6-4.8s-5.6,1.8-5.6,4.9.2.7.7.7h1.6c.4,0,.7-.2.7-.7,0-1.3,1.1-2.1,2.7-2.1s2.7.8,2.7,2.1-1,2.2-3.6,3.6c-3.7,2-5.1,3.7-5.1,6.2s.4,1.2,1.1,1.2h10.4c.4,0,.6-.2.6-.6v-1.6c0-.4-.2-.6-.6-.6h-7.9c.5-.7,1.5-1.5,3.2-2.4,3.2-1.7,4.7-3.5,4.7-5.9M571.6,160.9c0,.4.2.7.7.7h1.6c.4,0,.7-.2.7-.7v-14.4c0-.4-.2-.7-.7-.7h-1.1c-.4,0-.8,0-1.2.3l-3,1.7c-.4.2-.5.4-.5.8v1.8c0,.3.2.5.4.5s.2,0,.3,0l2.9-1.6v11.6ZM555,146.9l-.5,7.5c0,.3.2.5.6.5h1.7c.3,0,.5,0,.7-.3.7-.6,1.7-.9,2.9-.9,1.8,0,2.9,1,2.9,2.5s-1,2.6-3.1,2.6-2.8-.4-3.1-1.5c0-.4-.3-.6-.7-.6h-1.5c-.4,0-.7.2-.7.6,0,2.6,2.2,4.2,6,4.2s6-1.9,6-5.4-2-5.2-5.2-5.2-2.7.4-3.5,1.2l.3-3.7h6.6c.4,0,.6-.2.6-.6v-1.6c0-.4-.2-.6-.6-.6h-8c-.8,0-1.3.4-1.4,1.1"/>
  <path class="cls-6" d="M504.3,208.7c-.8.7-2.2,1.2-3.4,1.2-2,0-3.3-1-3.3-2.5s1.1-2.6,3.1-2.6,3.4,1.1,3.6,3.9M494.7,207.5c0,3.1,2.2,5.1,5.6,5.1s3-.5,4.1-1.3c-.2,3-1.1,4.1-3.6,4.1s-2.3-.4-2.6-1.2c-.1-.3-.4-.5-.8-.5h-1.4c-.4,0-.7.2-.6.6.2,2.3,2.4,3.8,5.5,3.8,4.6,0,6.6-2.8,6.6-8.3s-2.2-7.8-6.5-7.8c-3.8,0-6.2,2.2-6.1,5.4M489.2,217.9c0,1,.7,1.7,1.7,1.7s1.7-.7,1.7-1.7-.7-1.7-1.7-1.7-1.7.7-1.7,1.7M480.8,218.2c4.2,0,6.5-1.6,6.5-4.7s-1.1-3.3-2.8-3.8c1.3-.5,2.2-1.8,2.2-3.5,0-2.5-2.3-4.1-5.9-4.1s-5.9,1.6-5.9,4.1.9,3,2.2,3.5c-1.7.5-2.8,2-2.8,3.8,0,3,2.3,4.7,6.5,4.7M480.8,204.8c1.9,0,3,.7,3,1.9s-1.1,1.9-3,1.9-3-.7-3-1.9,1.1-1.9,3-1.9M480.8,211.2c2.4,0,3.6.7,3.6,2.1s-1.2,2.1-3.6,2.1-3.6-.7-3.6-2.1,1.2-2.1,3.6-2.1M463.5,212.1l4.5-6v6h-4.5ZM460.3,211.9c-.2.3-.3.6-.3.9v.9c0,.8.4,1.1,1.2,1.1h6.9v2.5c0,.4.2.7.7.7h1.6c.4,0,.7-.2.7-.7v-2.5h1.5c.4,0,.6-.2.6-.6v-1.6c0-.4-.2-.6-.6-.6h-1.5v-8.6c0-.8-.4-1.2-1.1-1.2h-1.5c-.5,0-1,.3-1.3.7l-6.7,8.9ZM451.1,211.1c3.2,0,4.2.5,4.2,2.1s-1.1,2.1-3.3,2.1-3.3-.5-3.3-1.5-.2-.7-.7-.7h-1.6c-.4,0-.7.2-.7.7,0,2.7,2.4,4.3,6.2,4.3s6.2-1.8,6.2-4.7-1.2-3.6-3-4c1.3-.6,2.2-1.9,2.2-3.5,0-2.4-2.1-3.9-5.6-3.9s-5.6,1.6-5.6,4.3.2.7.7.7h1.6c.4,0,.7-.2.7-.7,0-1,.9-1.5,2.7-1.5s2.7.6,2.7,1.6-.9,1.9-3.4,1.9-.6.2-.6.6v1.6c0,.4.2.6.6.6"/>
  <path class="cls-6" d="M387.6,248.5l-.5,7.5c0,.3.2.5.6.5h1.7c.3,0,.5,0,.7-.3.7-.6,1.7-.9,2.9-.9,1.8,0,2.9,1,2.9,2.5s-1,2.6-3.1,2.6-2.8-.4-3.1-1.5c-.1-.4-.3-.6-.7-.6h-1.5c-.4,0-.7.2-.7.6,0,2.6,2.2,4.2,6,4.2s6-1.9,6-5.4-2-5.2-5.2-5.2-2.7.4-3.5,1.2l.3-3.7h6.6c.4,0,.6-.2.6-.6v-1.6c0-.4-.2-.6-.6-.6h-8c-.8,0-1.3.4-1.4,1.1M381.4,263c0,1,.7,1.7,1.7,1.7s1.7-.7,1.7-1.7-.7-1.7-1.7-1.7-1.7.7-1.7,1.7M376.5,253.9c-.8.7-2.2,1.2-3.4,1.2-2,0-3.3-1-3.3-2.5s1.1-2.6,3.1-2.6,3.4,1.1,3.6,3.9M366.8,252.6c0,3.1,2.2,5.1,5.6,5.1s3-.5,4.1-1.3c-.2,3-1.1,4.1-3.6,4.1s-2.3-.4-2.6-1.2c-.1-.3-.4-.5-.8-.5h-1.4c-.4,0-.7.2-.6.6.2,2.3,2.4,3.8,5.5,3.8,4.6,0,6.6-2.8,6.6-8.3s-2.2-7.8-6.5-7.8c-3.8,0-6.2,2.2-6.1,5.4M361.3,262.5c0,.4.2.7.7.7h1.6c.4,0,.7-.2.7-.7v-14.4c0-.4-.2-.7-.7-.7h-1.1c-.4,0-.8,0-1.2.3l-3,1.7c-.4.2-.5.4-.5.8v1.8c0,.3.2.5.4.5s.2,0,.3,0l2.9-1.6v11.6ZM355.5,252c0-3.1-2.1-4.8-5.6-4.8s-5.6,1.8-5.6,4.9.2.7.7.7h1.6c.4,0,.7-.2.7-.7,0-1.3,1.1-2.1,2.7-2.1s2.7.8,2.7,2.1-1,2.2-3.6,3.6c-3.7,2-5.1,3.7-5.1,6.2s.4,1.2,1.1,1.2h10.4c.4,0,.6-.2.6-.6v-1.6c0-.4-.2-.6-.6-.6h-7.9c.5-.7,1.5-1.5,3.2-2.4,3.2-1.7,4.7-3.5,4.7-5.9"/>
  <path class="cls-6" d="M285.4,290.7l5-12.1c.1-.3.2-.7.2-1.1v-.9c0-.8-.4-1.1-1.2-1.1h-9.3c-.4,0-.6.2-.6.6v1.6c0,.4.2.6.6.6h7.3l-5.1,12.3c-.2.4,0,.6.5.6h1.7c.5,0,.7-.1.8-.5M274.6,291.1c0,1,.7,1.7,1.7,1.7s1.7-.7,1.7-1.7-.7-1.7-1.7-1.7-1.7.7-1.7,1.7M262.9,284.8c.8-.7,2.2-1.2,3.4-1.2,2,0,3.3,1,3.3,2.5s-1.2,2.6-3.1,2.6-3.4-1.1-3.6-3.9M266.6,278.1c1.4,0,2.2.4,2.5,1.2.1.3.4.5.8.5h1.4c.4,0,.7-.2.6-.6-.2-2.3-2.3-3.8-5.4-3.8-4.4,0-6.7,2.8-6.7,8.3s2.1,7.8,6.5,7.8c3.7,0,6.2-2.2,6.1-5.4,0-3.1-2.2-5.1-5.6-5.1s-3,.5-4.1,1.3c.3-2.9,1.4-4.1,3.7-4.1M254.4,290.6c0,.4.2.7.7.7h1.6c.4,0,.7-.2.7-.7v-14.4c0-.4-.2-.7-.7-.7h-1.1c-.4,0-.8,0-1.2.3l-3,1.7c-.4.2-.5.4-.5.8v1.8c0,.3.2.5.4.5s.2,0,.3,0l2.9-1.6v11.6ZM245.5,290.6c0,.4.2.7.7.7h1.6c.4,0,.7-.2.7-.7v-14.4c0-.4-.2-.7-.7-.7h-1.1c-.4,0-.8,0-1.2.3l-3,1.7c-.4.2-.5.4-.5.8v1.8c0,.3.2.5.4.5s.2,0,.3,0l2.9-1.6v11.6Z"/>
  <path class="cls-6" d="M182.6,302.1c0-3.1-2.1-4.8-5.6-4.8s-5.6,1.8-5.6,4.9.2.7.7.7h1.6c.4,0,.7-.2.7-.7,0-1.3,1.1-2.1,2.7-2.1s2.7.8,2.7,2.1-1,2.2-3.6,3.6c-3.7,2-5.1,3.7-5.1,6.2s.4,1.2,1.1,1.2h10.4c.4,0,.6-.2.6-.6v-1.6c0-.4-.2-.6-.6-.6h-7.9c.5-.7,1.5-1.5,3.2-2.4,3.2-1.7,4.7-3.5,4.7-5.9M165.6,313.1c0,1,.7,1.7,1.7,1.7s1.7-.7,1.7-1.7-.7-1.7-1.7-1.7-1.7.7-1.7,1.7M158.7,312.7l5-12.1c.1-.3.2-.7.2-1.1v-.9c0-.8-.4-1.1-1.2-1.1h-9.3c-.4,0-.6.2-.6.6v1.6c0,.4.2.6.6.6h7.3l-5.1,12.3c-.2.4,0,.6.5.6h1.7c.5,0,.7-.1.8-.5M142.5,307.3l4.5-6v6h-4.5ZM139.3,307.1c-.2.3-.3.6-.3.9v.9c0,.8.4,1.1,1.2,1.1h6.9v2.5c0,.4.2.7.7.7h1.6c.4,0,.7-.2.7-.7v-2.5h1.5c.4,0,.6-.2.6-.6v-1.6c0-.4-.2-.6-.6-.6h-1.5v-8.6c0-.8-.4-1.2-1.1-1.2h-1.5c-.5,0-1,.3-1.3.7l-6.7,8.9Z"/>
  <path class="cls-6" d="M60.7,319.9l-.5,7.5c0,.3.2.5.6.5h1.7c.3,0,.5,0,.7-.3.7-.6,1.7-.9,2.9-.9,1.8,0,2.9,1,2.9,2.5s-1,2.6-3.1,2.6-2.8-.4-3.1-1.5c0-.4-.3-.6-.7-.6h-1.5c-.4,0-.7.2-.7.6,0,2.6,2.2,4.2,6,4.2s6-1.9,6-5.4-2-5.2-5.2-5.2-2.7.4-3.5,1.2l.3-3.7h6.6c.4,0,.6-.2.6-.6v-1.6c0-.4-.2-.6-.6-.6h-8c-.8,0-1.3.4-1.4,1.1M54.5,334.4c0,1,.7,1.7,1.7,1.7s1.7-.7,1.7-1.7-.7-1.7-1.7-1.7-1.7.7-1.7,1.7M42.8,326.6c0-3.6,1.1-5.3,3.4-5.3s3.4,1.7,3.4,5.3-1.1,5.3-3.4,5.3-3.4-1.7-3.4-5.3M40,326.6c0,5.4,2.2,8.1,6.3,8.1s6.3-2.6,6.3-8.1-2.2-8.1-6.3-8.1-6.3,2.6-6.3,8.1"/>
  <polygon class="cls-4" points="253.3 211.1 299.5 192.8 198.2 139.5 149 154.9 253.3 211.1"/>
  <path class="cls-4" d="M111.8,259.6c0,3.6-11.8,6.6-26.2,6.6s-26.2-2.9-26.2-6.6,11.8-6.6,26.2-6.6,26.2,2.9,26.2,6.6"/>
  <path class="cls-4" d="M216.1,240.5c0,11.4-37,20.7-82.7,20.7s-82.7-9.3-82.7-20.7,37-20.7,82.7-20.7,82.7,9.3,82.7,20.7"/>
  <path class="cls-3" d="M294.5,190.8c-13.5,5.6-28.1,11.1-41.6,16.7-4.4-2.7-12.3-6.2-16.6-8.5-19.7-10.3-34-17-58.2-25.7-.8-.3-2.5-.7-2.5-.9-.1-.3,0-7.8,0-8.8,0-4.6-1-13.6-3.5-20.3,13.5-.2,25.9,4.2,38.8,6.7,11.4,2.2,23.5,2.9,34.8,5.3,9.8,2,18.8,5.2,28.4,7.5,4.7,1.1,9.5,2.1,14.5,2.5,1.8.2,3.9.2,5.7.2s-.7,4.1-.7,6c0,4,0,15.2,1,19.2"/>
  <path class="cls-3" d="M294.3,165.6c-1.8-.6-3.8-.7-5.7-1.2-1.9-.5-3.7-1.1-5.5-1.7-3.7-1.3-7.2-2.7-10.4-4.4-4.5-2.3-8.6-5-12.9-7.5-9.5-5.6-20.2-10.3-30.8-15.1-.7-.3-1.4-.6-2.3-.7-.9,0-1.7.2-2.5.4-15.8,4.7-33.4,7.5-51,7.8-.4,0-.9,0-1.3,0,1.9.8,3.8,1.6,5.7,2.4,1.6.7,3.1,1.4,4.6,2.2,1.7.9,3.7,1.5,5.4,2.5,1.8,1.1,3.8,2,5.9,2.9,7.7,3.4,15.3,7,22.9,10.5,7.6,3.5,15.2,7.1,22.8,10.6,2.2,1,4.5,2.1,6.7,3.1,1.1.5,2.3,1.1,3.4,1.6,1,.5,2,.9,3.1,1.3.1,0,3.3-1.8,3.8-2,1.7-.8,4.1-1.8,6-2.5,1.8-.7,3-1.2,4.8-1.8,1.5-.6,3.7-1.3,5.3-1.8,1.5-.5,2.8-.9,4.3-1.4,2.5-.8,3.8-1.3,6.4-2,1.7-.5,3-.9,4.3-1.2,1.1-.3,2.6-.7,3.6-1.1.4-.1,3.2-1,3.5-.9"/>
  <path class="cls-3" d="M226.5,130.2c3.8,5,10.5,8.9,17.4,12.5,8.2,4.3,16.8,8.2,25.8,11.8,4.6,1.8,9.2,3.6,14,5.3,2.3.8,4.6,1.7,7,2.4,1.4.4,2.9.7,4.3,1.2-.4-.1-2.5.5-2.9.6-1.2.3-2.4.5-3.6.8-2.3.5-4.6,1.1-6.9,1.8-4.5,1.2-8.9,2.6-13.2,4.2-4.2,1.5-8.6,3.2-12.3,5.2-1.8,1-1,1.2-3.7.2-2.2-.7-4.4-1.3-6.5-2-3.1-1.1-6.2-2.2-9.2-3.4-6-2.4-11.8-5-17.3-7.8-4.8-2.4-9.1-5.2-13.8-7.6-5.1-2.6-10.5-4.8-15.3-7.6-5.5-3.2-11.1-6.1-15.7-9.9,4.1,0,7.6,0,11.6-.4,4.6-.5,9.1-1.1,13.6-1.9,9-1.5,17.8-3.4,26.6-5.2"/>
  <path class="cls-7" d="M229.5,128.4c2.4,2.5,5,5,8.2,7.1,8,5.2,16,10.5,25.2,15,9.2,4.5,19.7,8.1,31.2,9.7-15.5,4.1-30.5,9-44.8,14.4-15.5-6.6-30.3-13.8-44-21.7-7.1-4.1-14.5-8.1-19.7-13.1-1.7-1.7-3.6-3-5-4.8,2.2-.2,4.3,0,6.5-.2,3.3-.2,6.5-.6,9.8-.8,2.3-.2,4.6-.3,6.9-.6,8.7-1.2,17.3-2.9,25.6-4.9"/>
  <path class="cls-20" d="M228,132c2.1,2.2,5.2,5,8,6.9,7,4.6,14.9,9.5,23,13.3,8,3.9,15.4,6.5,24.1,8.5-13.5,3.6-21.1,5.8-33.6,10.6-13.6-5.7-26.2-11.5-38.2-18.4-6.2-3.5-12-6.7-17.5-11-1.7-1.3-4-3.1-5.2-4.7,1.9-.1,3.8,0,5.7-.2,2.9-.2,5.7-.5,8.5-.7,2-.2,4-.2,6-.5,7.6-1.1,12-2,19.2-3.8Z"/>
  <path class="cls-3" d="M216.7,134.1c1.2,1.6,4.1,2.6,7.1,2.7,2.9.1,5.8-.4,8.5-1-1.4.3-3.4-2.6-3.9-3-1.5-1-3.2.2-5,.5-.6.1-6.5,1.1-6.7.8"/>
  <path class="cls-3" d="M194.2,141c1.5-.4,2.9-.8,4-1.5,1.1-.7,1.8-1.7,1.5-2.6.1.4-9.1.3-9.5.7-1,.8,2.8,3.7,4,3.4"/>
  <path class="cls-3" d="M246.7,166.8c2-.5,4.2-.7,6.4-.6,2.2,0,4.3.6,5.9,1.5-3.3.9-6.4,2-9.3,3.3-.2,0-.4.2-.7.2-.2,0-.3,0-.5-.2-1.8-.9-3.5-1.8-5.3-2.8,1-.5,2.2-1.1,3.5-1.4"/>
  <path class="cls-3" d="M270.4,164.5c-.5-1.1.3-2.2,1.1-3.2.8-1,1.9-2,3.6-2.4.2,0,.4-.1.7,0,.3,0,.6.1.9.2.9.4,5.5,1.6,5.7,2.2.2.6-.8.6-1.7.8-1.4.3-2.9.4-4.3.8-.5.1-5.8,2.1-6,1.7"/>
  <path class="cls-20" d="M247,160.9c-2.1-.5-2.1-1.6-.5-2.4,2.3-1.2,8.7-2,10.6,0,.5.5.2,1.1-.4,1.6-2,1.4-7.1,1.5-9.7.9ZM214.5,144.5c-2.1-.5-2.1-1.6-.5-2.4,2.3-1.2,8.7-2,10.6,0,.5.5.2,1.1-.4,1.6-2,1.4-7.1,1.5-9.7.9Z"/>
  <path class="cls-3" d="M240.4,156.3c3.1-.7,6.4-1.8,7.1-3.7.7-2.1-2.1-4.1-5.3-5-4.1-1.2-9-1.3-13.2-.2-2.3.6-4.4,1.6-5.7,3-1.2,1.3-1.4,3.1-.2,4.4,1.5,1.6,4.2,1.7,6.9,2.1,3.5.5,6.9.1,10.3-.6"/>
  <path class="cls-18" d="M268.8,180.6c7.4-2.6,14.8-4.7,22.4-6.6M257,200.2c1.5-.7,9.8-3.7,11.5-4.1M280.4,180.5c1.5-.7,3.1-1.3,4.8-1.7M254.2,179.5c1.5-.7,3.1-1.3,4.8-1.7M254.1,176.5c5.9-2.6,12-4.8,18.2-6.6"/>
  <path class="cls-7" d="M273.3,182.9c-1.2.7-2.5,1.5-3.7,2.3-.4.3-4.3,3.4-4.4,3.4,0-.2-1.3-.6-1.5-.6-.5-.1-1.1-.2-1.6-.2-1.1,0-2.1.1-3.2.2,2.6-1.1,5.2-2.1,7.8-3,2.4-.8,4.8-1.7,7.3-2.4-.2.1-.5.3-.7.4"/>
  <path class="cls-7" d="M277,192.1c2-1.5,4.1-2.9,6.2-4.2-3.9,1.5-7.8,3-11.6,4.5l5.4-.3Z"/>
  <path class="cls-18" d="M239.1,191.1c4.2,1.5,8.3,3.1,12.2,5M236.2,173c4.2,1.5,8.3,3.1,12.2,5"/>
  <path class="cls-13" d="M195.8,124c-22.6-14.9-52-19.3-78.7-14.8-2.1.4-4.1.8-6.2,1.2,10.9.9,23.8,2.3,34,4.3,1.5.3,2.5,1.7,2.2,3.2-.3,1.3-1.4,2.2-2.7,2.2s-.4,0-.5,0c-15.2-3-37-4.7-47.9-5.1,0,0,0,0-.1,0-23.1,9-42.1,26-48.8,51.5-1.5,5.9-2.1,11.5-1.9,17,.6,17.9,8.6,37,21.7,49.4,15.3,14.5,38.6,18.5,58.6,21.6,19.4,3.1,39.7,3.8,58.1-3.1,57.4-21.6,60.8-95.4,12.2-127.4"/>
  <path class="cls-11" d="M143.9,120.2c.2,0,.4,0,.5,0,1.3,0,2.4-.9,2.7-2.2.3-1.5-.7-2.9-2.2-3.2-10.2-2-23.2-3.4-34-4.3-5.1,1.2-10.2,2.7-15,4.6,0,0,0,0,.1,0,10.9.4,32.6,2.2,47.9,5.1"/>
  <path class="cls-13" d="M216.8,144.6c-.9-5.2-2.7-10.3-5.3-14.9-1.2-2.2-3-4.6-5.5-5-2.4-.4-4.7,1.1-6.5,2.8-2.7,2.6-4.9,5.7-6.5,9.1"/>
  <path class="cls-13" d="M192.1,232.1c1.1,5.1,1.1,6.6,2.2,11.6,4.1.9,8.2,1.4,12.3,1.6.6,0,1.2,0,1.6-.3.6-.4.8-1.1.9-1.8.8-3.3,1.5-6.6,2.3-9.8"/>
  <path class="cls-13" d="M132.1,250.5c1.1,5.1,1.1,6.6,2.2,11.6,4.1.9,8.2,1.4,12.3,1.6.6,0,1.2,0,1.6-.3.6-.4.8-1.1.9-1.8.8-3.3,1.5-6.6,2.3-9.8"/>
  <path class="cls-13" d="M63.3,225.3c1.1,5,1.3,12.6,2.3,17.7,4.1.9,8.2,1.4,12.3,1.6.6,0,1.2,0,1.6-.3.6-.4,1.6-6.5,1.8-7.1"/>
  <path class="cls-13" d="M155.7,154.6c-.2-5.3.5-10.6,2.1-15.7.8-2.4,1.9-5.1,4.3-6,2.3-.9,4.9.1,7,1.4,3.2,2,6,4.5,8.2,7.6"/>
  <path class="cls-30" d="M155.7,154.6c-.2-5.3.5-10.6,2.1-15.7.8-2.4,1.9-5.1,4.3-6,2.3-.9,4.9.1,7,1.4,3.2,2,6,4.5,8.2,7.6"/>
  <path class="cls-13" d="M167.8,201.4c-3.7-8.3.1-18.5,6.9-24.6,6.8-6.1,15.8-8.9,24.8-10.7,15.1-3.1,35.8-3.5,38.7,16.2,1.5,10.6-5.6,21-15.2,24.9-8,3.2-16.3,5.7-24.8,6.5-11.5.9-25.1-.6-30.3-12.3"/>
  <path class="cls-30" d="M167.8,201.4c-3.7-8.3.1-18.5,6.9-24.6,6.8-6.1,15.8-8.9,24.8-10.7,15.1-3.1,35.8-3.5,38.7,16.2,1.5,10.6-5.6,21-15.2,24.9-8,3.2-16.3,5.7-24.8,6.5-11.5.9-25.1-.6-30.3-12.3Z"/>
  <path class="cls-13" d="M175.2,205.1c-3.7-8.3.1-18.5,6.9-24.6,6.8-6.1,15.8-8.9,24.8-10.7,15.1-3.1,35.8-3.5,38.7,16.2,1.5,10.6-5.6,21-15.2,24.9-8,3.2-16.3,5.7-24.8,6.5-11.5.9-25.1-.6-30.3-12.3"/>
  <path class="cls-30" d="M175.2,205.1c-3.7-8.3.1-18.5,6.9-24.6,6.8-6.1,15.8-8.9,24.8-10.7,15.1-3.1,35.8-3.5,38.7,16.2,1.5,10.6-5.6,21-15.2,24.9-8,3.2-16.3,5.7-24.8,6.5-11.5.9-25.1-.6-30.3-12.3Z"/>
  <path class="cls-11" d="M195.6,190.1c.9-.4,1.8-.4,2.6.1,2,1.2,2.6,4.2,2.5,6.3-.1,1.9-.9,4.6-3,5.2-2,.5-3.9-1.2-4.5-2.8-.8-2-.7-4.8.2-6.8.4-.9,1.2-1.6,2.2-2"/>
  <path class="cls-30" d="M195.6,190.1c.9-.4,1.8-.4,2.6.1,2,1.2,2.6,4.2,2.5,6.3-.1,1.9-.9,4.6-3,5.2-2,.5-3.9-1.2-4.5-2.8-.8-2-.7-4.8.2-6.8.4-.9,1.2-1.6,2.2-2Z"/>
  <path class="cls-11" d="M229.5,184.3c.9-.4,1.8-.4,2.6.1,2,1.2,2.6,4.2,2.5,6.3-.1,1.9-.9,4.6-3,5.2-2,.5-3.9-1.2-4.5-2.8-.8-2-.7-4.8.2-6.8.4-.9,1.2-1.6,2.2-2"/>
  <path class="cls-30" d="M229.5,184.3c.9-.4,1.8-.4,2.6.1,2,1.2,2.6,4.2,2.5,6.3-.1,1.9-.9,4.6-3,5.2-2,.5-3.9-1.2-4.5-2.8-.8-2-.7-4.8.2-6.8.4-.9,1.2-1.6,2.2-2Z"/>
  <path class="cls-2" d="M183.3,165.7c1.6-.2,2.3-1.7,2.3-3.1,0-2.1-2-3.6-4-2.9-1.6.5-2.1,2.7-1.5,4.2.5,1.4,1.8,2,3.2,1.8"/>
  <path class="cls-2" d="M214.9,160.1c1.6-.2,2.3-1.7,2.3-3.1,0-2.1-2-3.6-4-2.9-1.6.5-2.1,2.7-1.5,4.2.5,1.4,1.8,2,3.2,1.8"/>
  <path class="cls-30" d="M201.5,242c4.4-2.9,8.3-6.6,11.5-10.7M203.1,129.9c11.4,9.1,19.6,21.8,23.1,36.1"/>
  <path class="cls-2" d="M154.4,66.4c-1.2.8-2.4,1.6-3.6,2.4.2-1.7.2-3.3,0-5,0-.5-.2-.9-.3-1.4l-.4-2c-.3-1.6-.6-3.2-.5-4.8.2-1.7,1.9-3,3.6-3.2.5,0,.9,0,1.3.2.5.3.7.8.9,1.3.3,1.1.3,2.3.1,3.5-.4,3-1.4,6-1,8.9"/>
  <path class="cls-1" d="M158.5,64.1c-1.1-.1-2.2.3-3.1.9-.7.5-1.8,1.4-2.1,2.3-.2.5,0,1.1,0,1.7.3,1.2.6,2.3,1.1,3.4,0,0,0,.2.1.2.1,0,.2,0,.3,0,1.7-.9,3-2.6,3.9-4.3.5-1,.8-2.1.7-3.2,0-.2,0-.4-.2-.6-.2-.3-.5-.3-.8-.4"/>
  <path class="cls-15" d="M151.5,91.1c.4,1.1.6,2.1.6,3.2,0,.2,2.2.2,2.5.3,1.7.2,3.5.2,5.2.2,1,0,1.9,0,2.9,0,1,0,2.9.3,3.8,0-.3-1.2-1.2-3.3-.9-4.5,1-.2,2-.2,3-.6.9-.4,1.8-1.2,2-2.2.1-.5,0-1,0-1.5-.4-4.3-.8-8.7-1.6-13-.2-.9-.1-1.7-.5-2.5-.4-.8-.9-1.4-1.7-1.9-1.9-1.3-4.2-1.7-5.9-3.2-.4-.3-.7-.7-1-1-.3-.4-1-1-1.4-.4,0,0,0,0,0,0,0,0,0,0,0,.1.4,1.1,0,2-.5,3-.8,1.6-2,2.9-3,4.4-.5-.6-.7-1.3-1-2-.2-.7-.4-1.3-.6-1.9,0-.3,0-1.9-.2-2.1-.5-.4-1.3.8-1.5,1.1-.7.7-1.1,1.6-2,2.1-.7.3-1.5.5-2.2.8-1,.4-1.9,1.2-2.7,1.9-3.2,2.6-6.8,4.5-10.5,6.5,0,0,2.9,5.5,3.2,6,.4.6,10.5-4.9,11.4-5.7-.4,1.2-.7,2.5-1.1,3.8-.1.5-.3,1-.2,1.6,0,.4.3.8.5,1.2,1.2,2,2.6,4.2,3.4,6.6"/>
  <path class="cls-1" d="M153.1,65.7c-.2-.8,0-1-.8-1.3-.5-.2-1-.4-1.4-.8-.8-.7-1.3-1.8-1.4-2.9,0-.6,0-1.1.1-1.7,0-.2,0-.3,0-.5,0-.8.1-1.6.4-2.3.5-1.4,1.8-2.4,3.2-2.8.7-.2,1.4-.3,2.1-.1.8.3,1.6.5,2.3,1.1.4.3.7.6,1,1,1.4,1.7,2,4.9.2,6.6-.3.3-.8.5-.8,1,0,.2,0,.5.2.7.2.5.4,1,.3,1.5,0,.4-.3.7-.5,1-.6,1-1.4,1.9-2.4,2.4-.3.2-.6.3-1,.3-.7,0-.9-.4-1-1-.2-.7-.3-1.5-.4-2.2"/>
  <path class="cls-2" d="M158,63.3c0,.1,0,.2.1.3,0,.1.1.2.2.3.3.3.8.2,1.2.3.4.1.7.5.9.8.3.4.6.7.9,1,.8.6,1.2.8,2.2,1.1,0,0,.5.3.5.2-.3-.8-.8-1.8-1-2.6-.1-.6-.2-1.2-.3-1.7-.2-1.4-.4-2.9-.6-4.3-.2-1.3-.4-2.6-.8-3.8-.4-1.2-1.1-2.4-2.2-3.2-1-.7-2.1-1-3.2-.8-.5,0-1-.1-1.6-.2-.6,0-1.2.1-1.8.4-.8.4-1.4.9-2,1.5-.6.6-1.1,1.4-1.1,2.3,0,1,0,2.2.2,3.2,0-.4,0-.8,0-1.2.1-.4.3-.9.5-1.3.4-.7,1-1.5,1.7-1.8.5-.2,1.1-.6,1.6-.4.6.2,1.1.7,1.4,1.2.8,1.1,1.1,2.5,1.9,3.6.2.3.4.5.6.8.2.2.5.3.7.5.5.4.3.9,0,1.4-.4.7-.4,1.6-.2,2.4"/>
  <path class="cls-1" d="M158.1,60.7c.3,0,.7-.2.8-.5,0-.1,0-.2,0-.4,0-.4-.2-.8-.6-1-.5-.3-1.3-.1-1.4.5"/>
  <path class="cls-17" d="M151.5,56.7c-.3-.2-.7-.2-1.1,0M155.1,57.1c-.3-.3-.9-.4-1.3-.2"/>
  <path class="cls-2" d="M153.9,58.9c.4-.1.4.6,0,.6-.3,0-.3-.4,0-.6,0,0,0,0,0,0"/>
  <path class="cls-17" d="M153.9,58.9c.4-.1.4.6,0,.6-.3,0-.3-.4,0-.6,0,0,0,0,0,0Z"/>
  <path class="cls-2" d="M150.8,58.7c.4-.1.4.6,0,.6-.3,0-.3-.4,0-.6,0,0,0,0,0,0"/>
  <path class="cls-17" d="M150.8,58.7c.4-.1.4.6,0,.6-.3,0-.3-.4,0-.6,0,0,0,0,0,0Z"/>
  <path class="cls-17" d="M151.2,61.6c.3,0,.6,0,.9,0,.3,0,.7,0,1,0,0,0,0,0,0,0,0,0,0,0,0,0,.2.4,0,1-.5,1.1-.2,0-.4,0-.6,0-.3,0-.5-.2-.6-.4M150.6,58.5c.4,0,.7.3,1,.5M152,59.2c-.2,0-.4.1-.6.3-.1,0-.2.2-.2.3,0,.2,0,.5.2.6.2.1.4.2.7.2M153.6,58.6c.4,0,.8.1,1.1.4"/>
  <path class="cls-1" d="M133.7,110.4c.5,6.9,1.1,15.4,1.6,22.3,0,1.2.3,2.6-.1,3.7-.4,1.2-1.3,2.2-2.1,3.1-.8.9-1.6,1.7-2.3,2.6,0,0-.2.2-.2.3,0,.2.2.4.4.5,2.3,1,4.8,0,6.7-1.4,1.3-.9,2.5-1.8,3.7-2.9.1,0,.2-.2.3-.3,0-.1,0-.3,0-.4-.2-.7-.7-1.2-.9-1.8-.3-.7-.3-1.4-.2-2.2.1-3.1.6-6,.9-9.1.4-4.2.8-10.1.5-14.3"/>
  <path class="cls-2" d="M141,136.6c1,1,1.5,2.4,1.3,3.8-.1,1.3-.8,2.5-.7,3.8-.5,0-.9,0-1.4,0,0-1.1-.2-2.1-.4-3.2-.7.4-1.4.9-2.1,1.3-1.1.7-2.2,1.4-3.5,1.7-1.7.5-3.5.4-5.2,0,.4-1,1.2-1.9,2.1-2.4.7.5,1.6.6,2.4.5,1.6-.1,3-.9,4.2-1.9,1.2-1,2.2-2.3,3.2-3.6"/>
  <path class="cls-1" d="M141.2,110.2c1.6,6.7,3.9,15.8,5.5,22.5.3,1.2.7,2.5.5,3.7-.2,1.2-.9,2.4-1.6,3.4-.6,1-1.3,2-1.9,2.9,0,0-.1.2-.1.3,0,.2.3.4.5.4,2.4.7,4.7-.8,6.4-2.4,1.2-1.1,2.2-2.2,3.2-3.5,0-.1.2-.2.2-.4,0-.1,0-.3,0-.4-.3-.6-.9-1.1-1.2-1.7-.4-.6-.5-1.4-.6-2.1-.4-3-.4-6.1-.6-9.1-.3-4.2-.5-10.2-1.8-14.2"/>
  <path class="cls-2" d="M152.8,135.7c1.1.8,1.9,2.2,1.9,3.6,0,1.3-.4,2.6-.1,3.8-.5,0-.9.1-1.4.2-.2-1.1-.5-2.1-.9-3.1-.6.6-1.3,1.1-1.9,1.7-1,.9-2,1.7-3.1,2.3-1.6.8-3.4.9-5.2.8.2-1.1.8-2.1,1.7-2.7.7.4,1.7.3,2.5.1,1.5-.4,2.9-1.4,3.9-2.5s1.8-2.7,2.6-4"/>
  <path class="cls-2" d="M141.1,98.7c-1.2.2-2.4.5-3.5.8-1.6.4-1.9,1.3-2.5,2.7-1.3,3.1-.9,6.8-2.2,10,2.9.8,5.9,1.5,8.9,1.9,1.5.2,2.9.3,4.4.3,1.6,0,3.2.1,4.7,0,0-.4-.5-4.6-.5-4.6,4,.7,8,.9,12,.7.8,0,1.8,0,2.6-.1.7-.2,1.1-.8,1.5-1.4,1-1.4,1.7-3,2.2-4.5.1-.4.3-.8.3-1.2,0-.4,0-.8-.2-1.1-.4-1.5-.8-3.1-1.2-4.6,0-.4-1.2-4.3-1.4-4.3-4,1-9.7,1.6-13.8,1-.2,0-.3,0-.4,0-.1,0-.4.4-.5.5-3.4,3.1-6.2,3-10.4,3.9"/>
  <path class="cls-21" d="M137.3,105.2c1.2,1.6,2.3,3.2,3.5,4.8"/>
  <path class="cls-17" d="M155.5,71.9c.9.6,1.6,1.5,2,2.4.7-2.6,3-4.7,3.2-7.4M151.6,68.7c0,1.8.4,3.6,1.2,5.3.5-.7,1.1-1.4,1.8-1.9"/>
  <path class="cls-21" d="M151.3,106c-.1.7-.3,1.3-.5,2M149.9,106.2c.2,1.2.3,2.3.5,3.5"/>
  <path class="cls-3" d="M146.5,85.1c0,7.9-6.2,14.3-13.8,14.3s-13.8-6.4-13.8-14.3,6.2-14.3,13.8-14.3,13.8,6.4,13.8,14.3"/>
  <path class="cls-7" d="M143.8,85.1c0,7.9-6.2,14.3-13.8,14.3s-13.8-6.4-13.8-14.3,6.2-14.3,13.8-14.3,13.8,6.4,13.8,14.3"/>
  <path class="cls-27" d="M130,96.6c-6.1,0-11.1-5.1-11.1-11.4s5-11.4,11.1-11.4,11.1,5.1,11.1,11.4-5,11.4-11.1,11.4Z"/>
  <path class="cls-3" d="M132.7,87.5l1.4-6.7c.2-.9.9-1.2,1.6-1,.7.1,1.2.7,1,1.6l-2.2,10h-3.1l-1.6-7.2-1.6,7.2h-2.9l-2.3-10c-.2-.9.4-1.5,1.1-1.6.7-.1,1.5.2,1.6,1l1.3,6.3,1.3-5.9c.2-.9,1-1.1,1.5-1.1s1.2.2,1.5,1.1l1.4,6.3Z"/>
  <path class="cls-3" d="M136.9,86.4h-13.9c-.8,0-1.4-.7-1.4-1.5s.6-1.5,1.4-1.5h13.9c.8,0,1.4.7,1.4,1.5s-.6,1.5-1.4,1.5"/>
  <path class="cls-24" d="M135.1,98.3h2.9M137.3,97h2.9M138.9,95.7h2.9M140.2,94.4h2.9M141.1,93.1h2.9M141.8,91.9h2.9M142.3,90.6h2.9M142.8,89.3h2.9M143.2,88h2.9M143.4,86.7h2.9M133.4,71.4h2.9M136.1,72.5h2.9M137.9,73.7h2.9M139.5,75h2.9M140.6,76.3h2.9M141.5,77.6h2.9M142.1,78.9h2.9M142.6,80.2h2.9M143,81.5h2.9M143.3,82.8h2.9M143.4,84.1h2.9M143.4,85.4h2.9"/>
  <path class="cls-1" d="M114.4,88.5c.3,1,.9,1.9,1.7,2.4,1.2.7,3.3.6,4.3-.4,0-.1.2-.2.1-.4,0,0,0,0,0,0,0,0,0-.1.1-.1.2-.1.4-.4.4-.6,0-.1-.2-.7-.2-.7.1-.3,0-.6-.1-.8-.2-.2-.4-.3-.5-.5,0,0,0-.2,0-.2,0-.2-.2-.4-.4-.5-.2-.1-.5-.2-.7-.2-.6-.1-1.3-.3-1.9-.6-.6-.3-1-.9-1-1.6,0-.4.2-.7,0-1.1-.4,0-.8.4-1,.8-.5.9-.7,1.9-.9,2.9-.1.5,0,1.1,0,1.7"/>
  <path class="cls-17" d="M114.4,88.5c.3,1,.9,1.9,1.7,2.4,1.2.7,3.3.6,4.3-.4,0-.1.2-.2.1-.4,0,0,0,0,0,0,0,0,0-.1.1-.1.2-.1.4-.4.4-.6,0-.1-.2-.7-.2-.7.1-.3,0-.6-.1-.8-.2-.2-.4-.3-.5-.5,0,0,0-.2,0-.2,0-.2-.2-.4-.4-.5-.2-.1-.5-.2-.7-.2-.6-.1-1.3-.3-1.9-.6-.6-.3-1-.9-1-1.6,0-.4.2-.7,0-1.1-.4,0-.8.4-1,.8-.5.9-.7,1.9-.9,2.9-.1.5,0,1.1,0,1.7Z"/>
  <path class="cls-15" d="M116.3,87c.4.4,1.1.6,1.7.6.7.1,1.3.1,2.1-.1"/>
  <path class="cls-17" d="M116.3,87c.4.4,1.1.6,1.7.6.7.1,1.3.1,2.1-.1"/>
  <path class="cls-15" d="M116.5,88.6c1.3.6,2.8.6,4.1.1"/>
  <path class="cls-17" d="M116.5,88.6c1.3.6,2.8.6,4.1.1"/>
  <path class="cls-15" d="M116.9,89.8c.3.2.7.3,1.1.4.7,0,1.5,0,2.2-.1"/>
  <path class="cls-17" d="M116.9,89.8c.3.2.7.3,1.1.4.7,0,1.5,0,2.2-.1"/>
  <path class="cls-17" d="M153.6,73c.4,1.9,1,3.8,1.6,5.7.4-1.8.9-3.8,1.2-5.9M149.2,76c-.2.9-.4,1.9-.6,2.8M162.6,76.5c.4,1.1.6,2.2.8,3.4M163,81.2c.8-.4,1.8-.5,2.7-.3M161.6,82c1.6-.2,3.3.3,4.5,1.4"/>
  <polygon class="cls-5" points="153.2 78.9 157.1 79 157 84.1 153.2 84.9 153.2 78.9"/>
  <path class="cls-1" d="M160.9,89.8c-3.4.2-6.9.2-10.3.4-1.1,0-2,.8-3,1.2-1.2.4-2.4.5-3.6.3-.3,0-1.1-.2-1.2-.4,0-.1,0-.7.3-.6-.4,0-.7-.2-1-.5-.2-.3-.1-.8.2-.9-.4,0-.8-.4-.9-.9.2-.2.5-.4.7-.5-.2-.2-.2-.6,0-.8.2-.2.5-.4.8-.5,1.1-.3,2.5.2,3.4-.6.4-.4.6-1.1.4-1.7,0-.2-.2-.4-.1-.6.1-.3.5-.3.8-.2.6.2,1,.6,1.3,1.1.1.2.7,1.2.8,1.2,3.7-1,7.6-1.7,11.3-2.6.3,0,.6-.1.9-.2,1.3,0,2.7,1.1,3.3,2.2.6,1.1,1.1,3.4-.3,4.1-.3.2-.6.2-1,.2-.9.1-1.8.2-2.7.2"/>
  <path class="cls-17" d="M142.5,90.5c1.2.2,2.3.2,3.5,0M141.7,88.8c.2.2.5.3.8.3,1.1.2,2.3.2,3.4,0M141.9,87.7c1.2.3,2.5.3,3.7,0h0"/>
  <path class="cls-2" d="M90.2,262.9c.1,0,.3,0,.4,0,1.5,0,3-.1,4.5-.2.2,0,.3,0,.5,0,.5-.3.2-1.4.7-1.6.2.6.5,1.2,1.1,1.4.2,0,.5,0,.7.1,3,.1,6.1,0,9.1-.5.3-.4,0-1-.3-1.4-.4-.4-.8-.6-1.3-.7-1.9-.7-3.7-1.5-5.4-2.6-.8-.5-1.4-1.2-2.3-1.3-1.2,0-2.4,0-3.6.1h-3.3c-.2.1-.4.1-.6.2-.7.3-.8,1.8-.8,2.5s0,3.6.6,4"/>
  <path class="cls-2" d="M65.8,253.7c0,.1.2.2.3.2,1.3.7,2.7,1.4,4,2,.1,0,.3.1.4.1.6,0,.8-1.1,1.4-1,0,.6-.2,1.3.2,1.8.2.2.4.3.6.4,2.6,1.6,5.3,3,8.1,4.1.4-.2.6-.8.5-1.3-.1-.5-.4-.9-.8-1.3-1.2-1.6-2.4-3.2-3.3-5-.4-.8-.6-1.7-1.3-2.2-1-.7-2.1-1.1-3.2-1.7-1-.5-1.9-1-2.9-1.5-.2,0-.4-.2-.6-.2-.8,0-1.6,1.2-2,1.8-.4.6-1.8,3.1-1.5,3.8"/>
  <path class="cls-15" d="M97.6,199.2c0,2.3-.2,4.6-.5,6.9-.4,2.8-.9,5.7-1.3,8.5-.3,1.8-.5,3.7-.6,5.6-.1,1.4-.2,2.7,0,4.1.4,2.8.7,5.7,1,8.5.4,3.1.8,6.2,1.2,9.3.2,1.6.4,3.1.6,4.7,0,.8.2,1.5.3,2.3,0,.6,0,1.2,0,1.8.1,1.8.3,3.6.6,5.4-.8.2-1.7.1-2.5.1-1.1,0-2.2.2-3.3.1-1.2,0-2.4-.2-3.6,0,0,0-.1,0-.2,0,0,0,0,0,0-.1-.4-2.5-.9-5.1-1.3-7.6-.2-1.1-.3-2.3-.5-3.4-.3-1.2-.5-2.5-.7-3.7-.2-.9-.3-1.8-.4-2.7,0-.4,0-.9-.2-1.3,0-.2-.3-.8-.2-1-.4.8-.8,1.6-1.2,2.3-1.1,2.2-2.4,4.3-3.6,6.5-1.1,2.2-2.2,4.4-3.7,6.3-.2.2-.3.4-.5.7-1.1-.7-2.3-1.3-3.5-2-.8-.4-1.5-.8-2.3-1.2-.9-.5-1.9-.7-2.7-1.3-.2,0,2.6-4.9,2.8-5.4.5-.9.9-1.7,1.3-2.6.4-1,.8-1.9,1.3-2.8.3-.6.7-1.2,1.1-1.9.6-1.1,1.2-2.2,1.8-3.4,1.4-2.7,2.8-5.4,4.3-8,.2-.3.4-.6.5-.9.1-.2.5-.6.5-.9,0-.3-.2-.7-.3-1-.1-.4-.3-.8-.4-1.1-.5-1.5-1-2.9-1.4-4.4-.7-2.2-1.4-4.4-2.2-6.7-.5-1.6-1.1-3.2-1.7-4.7-1.1-3-1.4-6-.9-9.2.8.6,1.9.6,2.8,1,1,.4,2,.9,3.1,1.3,2.5.9,5.6,1.1,8.3.9,1.4,0,2.8-.3,4.2-.6.4,0,4-.8,4-1.2,0,1,0,2.1-.1,3.1"/>
  <path class="cls-9" d="M75.1,192.9c0,.5,0,1,.3,1.5.2.4.6.6,1,.9,3.6,2.1,7.8,2.4,12,2.5,1.1,0,2.3,0,3.4-.1.6,0,1.2-.2,1.8-.3,1.3-.3,2.6-.5,3.8-1,.4-.1.8-.4.9-.8,0-.2,0-.5,0-.7-.7-3,.3-6.5,1.2-9.3.7-2.1,4.9-1.5,6.8-2.1,0-.7-.1-1.4-.3-2.1-.9-4.5-2.3-8.9-4-13.2-.2-.5-.4-1.1-.8-1.5-.4-.6-1-1-1.6-1.4-1.2-.8-2.5-1.4-3.8-1.9-2.2-.8-1.4-2.8-2.8-4.1-.9-.8-2.3-.3-3.4-.7-1.3-.4-3.4-1.7-4.8-1.1-1.1.4-1.4,1.8-2,2.7-.8,1.3-1.8,1.3-3.1,1.8-.9.3-1.7.7-2.5,1-1.1.5-2.1,1-2.9,1.9-1.1,1.2-1.1,3-1.2,4.5,0,1.9.1,3.8.6,5.7.3,1.4.8,2.7,1.1,4,.3,1.4.3,2.9.4,4.3.2,3.1.3,6.2.2,9.3"/>
  <path class="cls-1" d="M90.7,164.7c-1.2-.6-2.3-1.3-3.3-2.1-.5-.4-1.1-.9-1.6-1.4-.2-.2-1.3-1.2-1.3-1.4.2-1.1.3-2.2.3-3.4,0-.2,0-.4,0-.5,0-.2-.1-.4-.2-.5-.4-.7-.8-1.4-1.2-2.1-.1-.2-.3-.4-.3-.6-.1-.5,0-1.3.1-1.8,0-.6.3-1.3.6-1.8.7-1.4,1.8-2.4,3.2-3,1.3-.6,2.5-1,3.9-.3.4.2.7.4,1.1.7,1.2,1,1.9,2.4,2.3,3.9,0,.2,0,.4.2.5.7,1.7.8,3.2,0,4.8-.5,1-1.2,1.8-2.2,2.2,0,0-.1,0-.2.1,0,0,0,0,0,.1,0,1.2-.1,2.4-.2,3.6,0,.3-.3,3.2-.3,3.2-.1,0-.5-.1-.6-.2"/>
  <path class="cls-14" d="M90,151.2c-.5,0-.3.8,0,.6.3-.1.3-.6,0-.6,0,0,0,0,0,0"/>
  <path class="cls-19" d="M90,151.2c-.5,0-.3.8,0,.6.3-.1.3-.6,0-.6,0,0,0,0,0,0Z"/>
  <path class="cls-14" d="M93.3,150.6c-.5,0-.3.8,0,.6.3-.1.3-.6,0-.6,0,0,0,0,0,0"/>
  <path class="cls-19" d="M93.3,150.6c-.5,0-.3.8,0,.6.3-.1.3-.6,0-.6,0,0,0,0,0,0Z"/>
  <path class="cls-19" d="M91.6,151.7c.2,0,.5,0,.7.2.1,0,.3.1.3.3.1.2,0,.5,0,.7-.2.2-.4.3-.7.4M93.4,150.4c-.4,0-.8.3-1.1.6M90.1,151c-.4,0-.8.3-1.1.6"/>
  <path class="cls-2" d="M83.5,153.2c-.1,0-.2,0-.2,0-.8-.9-1.6-1.7-2.5-2.5,0,0-.2-.2-.2-.3,0,0,0-.2,0-.3,0-.9,0-1.8.2-2.7.4-1.7,1.4-2.4,2.7-3.4.3-.2.5-.4.6-.7.1-.3,0-.6.3-.8.2-.1.4-.1.5-.2,1.1-.2,1.9-1.4,3-1.2.5,0,1,.5,1.4.7.5.3,1.1.4,1.5,0,0,0,1.5,2.4,1.6,2.7.2.4.5.7.5,1.2,0,.3,0,.5,0,.8,0,0,0,.3,0,.6-.7-.8-1.4-1.4-2.3-1.7-.4-.2-.5,0-.4.4,0,.2.2.5.3.7.3.5.8.8,1.3,1-1.2.2-2.6-.4-3.2-1.5,0,.7-.4,1.5-1,1.8,0-.2,0-.4-.2-.5-.3.7-.7,1.4-.8,2.1,0,.4,0,.8,0,1.2,0,.4,0,.8,0,1.2-.1,0-1,.3-1,.4,0,.2-1.3.9-1.9,1"/>
  <path class="cls-19" d="M92,155.6h.4M90.8,154.6c.8.2,1.6,0,2.3-.3M91.9,149.4c.3-.3.7-.4,1.1-.5M88.3,150.3c.4-.5,1-.8,1.6-.8M89.1,167c.7,2.6,2.7,7.7,3.6,10.6l.7-11.3M83.3,173.1c.7,2.6,1.1,5.2,1.4,7.9"/>
  <path class="cls-26" d="M83.2,224.1c.7,1.8,1.4,3.6,2,5.5M88.2,238.3c1.4,3.8,2.7,7.6,4,11.4M94.3,227c-.5.5-.9.9-1.4,1.4M91.3,202.4c1,7.4,2.3,14.7,3.9,21.9"/>
  <path class="cls-19" d="M86.9,151.8c-.8-.4-1.6.3-1.6,1.1,0,.4.2.9.6,1.2.4.3.9.3,1.3,0"/>
  <path class="cls-25" d="M91.9,165.5c1.2,0,2.3,1,3.1,1.9-.3-1.3-.5-2.6-.8-3.9M82.5,162c1.3,2.6,3.2,5,5.4,7,.5-1.4,1.6-2.6,2.9-3.3"/>
  <path class="cls-3" d="M119.5,170.5h-27.1v33.1-.2c0,.8.4,1.6,1.5,2.4,3.5,2.3,11.7,3.1,18.3,1.9,4.7-.9,7.4-2.6,7.3-4.3h0v-32.9Z"/>
  <path class="cls-7" d="M112.2,174.8c-6.6,1.2-14.8.4-18.3-1.9-3.5-2.3-.9-5.1,5.8-6.4,6.6-1.2,14.8-.4,18.3,1.9,3.5,2.3.9,5.2-5.8,6.4"/>
  <path class="cls-32" d="M118.9,201.6c-1,1.2-3.3,2.2-6.7,2.8-6.6,1.2-14.8.4-18.3-1.9-.4-.3-.8-.6-1-.9M118.9,198.6c-1,1.2-3.3,2.2-6.7,2.8-6.6,1.2-14.8.4-18.3-1.9-.4-.3-.8-.6-1-.9M118.9,195.6c-1,1.2-3.3,2.2-6.7,2.8-6.6,1.2-14.8.4-18.3-1.9-.4-.3-.8-.6-1-.9M118.9,192.6c-1,1.2-3.3,2.2-6.7,2.8-6.6,1.2-14.8.4-18.3-1.9-.4-.3-.8-.6-1-.9M118.9,189.6c-1,1.2-3.3,2.2-6.7,2.8-6.6,1.2-14.8.4-18.3-1.9-.4-.3-.8-.6-1-.9M118.9,186.6c-1,1.2-3.3,2.2-6.7,2.8-6.6,1.2-14.8.4-18.3-1.9-.4-.3-.8-.6-1-.9M118.9,183.6c-1,1.2-3.3,2.2-6.7,2.8-6.6,1.2-14.8.4-18.3-1.9-.4-.3-.8-.6-1-.9M118.9,180.6c-1,1.2-3.3,2.2-6.7,2.8-6.6,1.2-14.8.4-18.3-1.9-.4-.3-.8-.6-1-.9M118.9,177.6c-1,1.2-3.3,2.2-6.7,2.8-6.6,1.2-14.8.4-18.3-1.9-.4-.3-.8-.6-1-.9M118.9,174.6c-1,1.2-3.3,2.2-6.7,2.8-6.6,1.2-14.8.4-18.3-1.9-.4-.3-.8-.6-1-.9"/>
  <path class="cls-31" d="M96.4,172.1c-2.7-1.6-.5-3.7,4.8-4.6,5.4-.9,11.9-.3,14.6,1.3,2.7,1.6.5,3.7-4.8,4.6-5.4.9-11.9.3-14.6-1.3Z"/>
  <path class="cls-3" d="M108.4,171.1l1.2-2.5c.1-.3.8-.4,1.3-.4.5,0,1,.3.8.6l-1.8,3.8h-2.5s-1.3-2.8-1.3-2.8l-1.3,2.7h-2.3s-1.8-3.8-1.8-3.8c-.1-.3.3-.6.9-.6.6,0,1.2,0,1.3.4l1,2.4,1.1-2.2c.2-.3.8-.4,1.2-.4.4,0,1,0,1.2.4l1.1,2.4Z"/>
  <path class="cls-3" d="M111.8,170.7h-11.3c-.6,0-1.2-.4-1.2-.7,0-.3.5-.6,1.2-.6h11.3c.6,0,1.2.4,1.2.7,0,.3-.5.6-1.2.6"/>
  <path class="cls-1" d="M86.3,191.4c4.1.3,8.2.3,12.4.5,1.4,0,2.4,1,3.6,1.4,1.4.5,2.9.6,4.3.4.3,0,1.3-.2,1.5-.5,0-.2,0-.8-.3-.7.4-.1.9-.2,1.2-.6.3-.4.2-1-.3-1.1.5,0,1-.5,1.1-1-.3-.2-.5-.4-.9-.6.3-.2.3-.7,0-1-.2-.3-.6-.5-.9-.5-1.4-.3-3,.2-4-.7-.5-.5-.7-1.3-.4-2,.1-.2.3-.5.2-.8-.1-.4-.6-.4-1-.2-.7.2-1.2.7-1.6,1.3-.1.2-.8,1.4-.9,1.4-4.5-1.2-9.1-2-13.6-3.1-.4,0-.7-.2-1.1-.2-1.6,0-3.2,1.4-4,2.7-.7,1.3-1.3,4.1.3,5,.4.2.8.2,1.2.3,1.1.1,2.1.2,3.2.3"/>
  <path class="cls-29" d="M108.3,192.3c-1.4.3-2.8.3-4.2,0M109.3,190.3c-.3.3-.6.4-1,.4-1.4.2-2.7.2-4.1,0M109,189c-1.4.4-3,.4-4.5,0,0,0,0,0,0,0"/>
  <path class="cls-1" d="M122,188.6c-.3,1.1-1,2.1-1.9,2.7-1.3.8-3.7.7-4.8-.4-.1-.1-.2-.3-.1-.4,0,0,0,0,0,0,0,0,0-.1-.1-.2-.2-.1-.5-.4-.5-.7,0-.2.3-.7.2-.8-.2-.3-.1-.7.1-.9.2-.2.4-.3.5-.6,0,0,0-.2,0-.3,0-.3.3-.5.5-.6.2-.1.5-.2.8-.2.7-.1,1.5-.3,2.1-.7.6-.4,1.1-1,1.1-1.8,0-.4-.2-.8,0-1.2.5,0,.9.5,1.1.9.6,1,.8,2.1,1,3.3.1.6,0,1.3,0,1.9"/>
  <path class="cls-25" d="M122,188.6c-.3,1.1-1,2.1-1.9,2.7-1.3.8-3.7.7-4.8-.4-.1-.1-.2-.3-.1-.4,0,0,0,0,0,0,0,0,0-.1-.1-.2-.2-.1-.5-.4-.5-.7,0-.2.3-.7.2-.8-.2-.3-.1-.7.1-.9.2-.2.4-.3.5-.6,0,0,0-.2,0-.3,0-.3.3-.5.5-.6.2-.1.5-.2.8-.2.7-.1,1.5-.3,2.1-.7.6-.4,1.1-1,1.1-1.8,0-.4-.2-.8,0-1.2.5,0,.9.5,1.1.9.6,1,.8,2.1,1,3.3.1.6,0,1.3,0,1.9Z"/>
  <path class="cls-15" d="M119.8,187c-.5.5-1.2.6-1.8.7-.8.1-1.5.1-2.3-.2"/>
  <path class="cls-25" d="M119.8,187c-.5.5-1.2.6-1.8.7-.8.1-1.5.1-2.3-.2"/>
  <path class="cls-15" d="M119.6,188.8c-1.4.6-3.1.7-4.6.1"/>
  <path class="cls-25" d="M119.6,188.8c-1.4.6-3.1.7-4.6.1"/>
  <path class="cls-15" d="M119.2,190.2c-.4.3-.8.4-1.3.4-.8,0-1.7.1-2.4-.1"/>
  <path class="cls-25" d="M119.2,190.2c-.4.3-.8.4-1.3.4-.8,0-1.7.1-2.4-.1"/>
  <path class="cls-19" d="M80.7,183.9c-1.3,1.2-2.1,2.9-2.2,4.6M86.3,182.7c-1-1.2-2.7-1.3-4.1-1.2-1.4.1-2.8.8-3.8,1.9"/>
  <path class="cls-4" d="M313.1,209c0,2.6-6.4,4.8-14.3,4.8s-14.3-2.1-14.3-4.8,6.4-4.8,14.3-4.8,14.3,2.1,14.3,4.8"/>
  <path class="cls-28" d="M291.3,209.8c-2.5-1.5-.5-3.4,4.5-4.3,5-.8,11.1-.3,13.6,1.2,2.5,1.5.5,3.4-4.5,4.3-5,.8-11.1.3-13.6-1.2Z"/>
  <path class="cls-3" d="M302.4,208.9l1.1-2.4c.1-.3.7-.4,1.2-.4.5,0,.9.3.8.6l-1.7,3.5h-2.3s-1.2-2.6-1.2-2.6l-1.2,2.5h-2.2s-1.7-3.6-1.7-3.6c-.1-.3.3-.5.8-.6.5,0,1.1,0,1.2.4l1,2.2,1-2.1c.2-.3.7-.4,1.1-.4.4,0,.9,0,1.1.4l1,2.2Z"/>
  <path class="cls-3" d="M305.6,208.5h-10.5c-.6,0-1.1-.3-1.1-.6,0-.3.5-.5,1.1-.5h10.5c.6,0,1.1.3,1.1.6,0,.3-.5.5-1.1.5"/>
  <path class="cls-3" d="M311.5,199.7h-25.2v7.9-.2c0,.8.4,1.5,1.4,2.2,3.2,2.1,10.8,2.9,17,1.8,4.4-.8,6.9-2.4,6.8-4h0v-7.7Z"/>
  <path class="cls-7" d="M304.7,203.8c-6.2,1.2-13.8.4-17-1.8-3.2-2.1-.8-4.8,5.4-5.9,6.2-1.2,13.8-.4,17,1.8,3.2,2.1.8,4.8-5.4,5.9"/>
  <path class="cls-16" d="M311,206.3c-1,1.1-3.1,2-6.2,2.6-6.2,1.2-13.8.4-17-1.8-.4-.3-.7-.5-.9-.8M311,203.5c-1,1.1-3.1,2-6.2,2.6-6.2,1.2-13.8.4-17-1.8-.4-.3-.7-.5-.9-.8"/>
  <path class="cls-28" d="M290,201.2c-2.5-1.5-.5-3.4,4.5-4.3,5-.8,11.1-.3,13.6,1.2,2.5,1.5.5,3.4-4.5,4.3-5,.8-11.1.3-13.6-1.2Z"/>
  <path class="cls-3" d="M301.2,200.3l1.1-2.4c.1-.3.7-.4,1.2-.4.5,0,.9.3.8.6l-1.7,3.5h-2.3s-1.2-2.6-1.2-2.6l-1.2,2.5h-2.2s-1.7-3.6-1.7-3.6c-.1-.3.3-.5.8-.6.5,0,1.1,0,1.2.4l1,2.2,1-2.1c.2-.3.7-.4,1.1-.4.4,0,.9,0,1.1.4l1,2.2Z"/>
  <path class="cls-3" d="M304.3,199.9h-10.5c-.6,0-1.1-.3-1.1-.6,0-.3.5-.5,1.1-.5h10.5c.6,0,1.1.3,1.1.6,0,.3-.5.5-1.1.5"/>
  <path class="cls-3" d="M313.2,196.6h-25.2v2.5-.2c0,.8.4,1.5,1.4,2.2,3.2,2.1,10.8,2.9,17,1.8,4.4-.8,6.9-2.4,6.8-4h0v-2.3Z"/>
  <path class="cls-7" d="M306.4,200.7c-6.2,1.2-13.8.4-17-1.8-3.2-2.1-.8-4.8,5.4-5.9,6.2-1.2,13.8-.4,17,1.8,3.2,2.1.8,4.8-5.4,5.9"/>
  <path class="cls-28" d="M291.7,198.1c-2.5-1.5-.5-3.4,4.5-4.3,5-.8,11.1-.3,13.6,1.2,2.5,1.5.5,3.4-4.5,4.3s-11.1.3-13.6-1.2Z"/>
  <path class="cls-3" d="M302.8,197.2l1.1-2.4c.1-.3.7-.4,1.2-.4.5,0,.9.3.8.6l-1.7,3.5h-2.3s-1.2-2.6-1.2-2.6l-1.2,2.5h-2.2s-1.7-3.6-1.7-3.6c-.1-.3.3-.5.8-.6.5,0,1.1,0,1.2.4l1,2.2,1-2.1c.2-.3.7-.4,1.1-.4.4,0,.9,0,1.1.4l1,2.2Z"/>
  <path class="cls-3" d="M306,196.8h-10.5c-.6,0-1.1-.3-1.1-.6,0-.3.5-.5,1.1-.5h10.5c.6,0,1.1.3,1.1.6,0,.3-.5.5-1.1.5"/>
  <path class="cls-3" d="M311.2,194h-25.2v2.5-.2c0,.8.4,1.5,1.4,2.2,3.2,2.1,10.8,2.9,17,1.8,4.4-.8,6.9-2.4,6.8-4h0v-2.2Z"/>
  <path class="cls-7" d="M304.4,198.1c-6.2,1.2-13.8.4-17-1.8-3.2-2.1-.8-4.8,5.4-5.9,6.2-1.2,13.8-.4,17,1.8,3.2,2.1.8,4.8-5.4,5.9"/>
  <path class="cls-28" d="M289.7,195.5c-2.5-1.5-.5-3.4,4.5-4.3,5-.8,11.1-.3,13.6,1.2,2.5,1.5.5,3.4-4.5,4.3-5,.8-11.1.3-13.6-1.2Z"/>
  <path class="cls-3" d="M300.9,194.6l1.1-2.4c.1-.3.7-.4,1.2-.4.5,0,.9.3.8.6l-1.7,3.5h-2.3s-1.2-2.6-1.2-2.6l-1.2,2.5h-2.2s-1.7-3.6-1.7-3.6c-.1-.3.3-.5.8-.6.5,0,1.1,0,1.2.4l1,2.2,1-2.1c.2-.3.7-.4,1.1-.4.4,0,.9,0,1.1.4l1,2.2Z"/>
  <path class="cls-3" d="M304,194.3h-10.5c-.6,0-1.1-.3-1.1-.6,0-.3.5-.5,1.1-.5h10.5c.6,0,1.1.3,1.1.6,0,.3-.5.5-1.1.5"/>
  <path class="cls-3" d="M312.6,186h-25.2v7.9-.2c0,.8.4,1.5,1.4,2.2,3.2,2.1,10.8,2.9,17,1.8,4.4-.8,6.9-2.4,6.8-4h0v-7.7Z"/>
  <path class="cls-7" d="M305.8,190c-6.2,1.2-13.8.4-17-1.8-3.2-2.1-.8-4.8,5.4-5.9,6.2-1.2,13.8-.4,17,1.8,3.2,2.1.8,4.8-5.4,5.9"/>
  <path class="cls-16" d="M312,192.6c-1,1.1-3.1,2-6.2,2.6-6.2,1.2-13.8.4-17-1.8-.4-.3-.7-.5-.9-.8M312,189.8c-1,1.1-3.1,2-6.2,2.6-6.2,1.2-13.8.4-17-1.8-.4-.3-.7-.5-.9-.8"/>
  <path class="cls-3" d="M311.9,183h-25.2v2.5-.2c0,.8.4,1.5,1.4,2.2,3.2,2.1,10.8,2.9,17,1.8,4.4-.8,6.9-2.4,6.8-4h0v-2.3Z"/>
  <path class="cls-7" d="M305.2,187.1c-6.2,1.2-13.8.4-17-1.8-3.2-2.1-.8-4.8,5.4-5.9,6.2-1.2,13.8-.4,17,1.8,3.2,2.1.8,4.8-5.4,5.9"/>
  <path class="cls-28" d="M290.4,184.5c-2.5-1.5-.5-3.4,4.5-4.3,5-.8,11.1-.3,13.6,1.2,2.5,1.5.5,3.4-4.5,4.3s-11.1.3-13.6-1.2Z"/>
  <path class="cls-3" d="M301.6,183.6l1.1-2.4c.1-.3.7-.4,1.2-.4.5,0,.9.3.8.6l-1.7,3.5h-2.3s-1.2-2.6-1.2-2.6l-1.2,2.5h-2.2s-1.7-3.6-1.7-3.6c-.1-.3.3-.5.8-.6.5,0,1.1,0,1.2.4l1,2.2,1-2.1c.2-.3.7-.4,1.1-.4.4,0,.9,0,1.1.4l1,2.2Z"/>
  <path class="cls-3" d="M304.8,183.2h-10.5c-.6,0-1.1-.3-1.1-.6,0-.3.5-.5,1.1-.5h10.5c.6,0,1.1.3,1.1.6,0,.3-.5.5-1.1.5"/>
</svg>