<?xml version="1.0" encoding="UTF-8"?>
<svg id="_레이어_1" data-name=" 레이어 1" xmlns="http://www.w3.org/2000/svg" version="1.1" viewBox="0 0 750 400">
  <defs>
    <style>
      .cls-1 {
        fill: #000;
      }

      .cls-1, .cls-2, .cls-3, .cls-4 {
        stroke-width: 0px;
      }

      .cls-2 {
        fill: #6b53cd;
      }

      .cls-5 {
        fill: none;
        stroke: #000;
      }

      .cls-3 {
        fill: #788b99;
      }

      .cls-4 {
        fill: #fff;
      }
    </style>
  </defs>
  <path class="cls-4" d="M691.7,182.8s-4.2-16-21.7-20.3c-1-.3-2.1-.4-3.1-.4h-159.2c-15.3,0-27.7-12.4-27.7-27.7v-38.1c0-15.3,12.4-27.7,27.7-27.7h161.4c15.3,0,27.7,12.4,27.7,27.7v38.1c0,6.5-2.2,12.4-5.9,17.1-.8,1-.9,2.4-.4,3.5,2,3.9,3.7,11.9,1.3,27.8"/>
  <path class="cls-3" d="M122.5,134.6c-9.7,0-17.5,7.8-17.5,17.5v144.5h35v-144.5c0-9.7-7.8-17.5-17.5-17.5"/>
  <path class="cls-2" d="M182.5,116.6c-9.7,0-17.5,7.8-17.5,17.5v162.5h35v-162.5c0-9.7-7.8-17.5-17.5-17.5"/>
  <path class="cls-3" d="M344.7,223.6c-9.7,0-17.5,7.8-17.5,17.5v55.5h35v-55.5c0-9.7-7.8-17.5-17.5-17.5"/>
  <path class="cls-2" d="M404.7,212.6c-9.7,0-17.5,7.8-17.5,17.5v66.5h35v-66.5c0-9.7-7.8-17.5-17.5-17.5"/>
  <path class="cls-3" d="M566.8,217.1c-9.7,0-17.5,7.8-17.5,17.5v62h35v-62c0-9.7-7.8-17.5-17.5-17.5"/>
  <path class="cls-2" d="M626.8,238.1c-9.7,0-17.5,7.8-17.5,17.5v41h35v-41c0-9.7-7.8-17.5-17.5-17.5"/>
  <line class="cls-5" x1="10.7" y1="296.6" x2="738.7" y2="296.6"/>
  <path class="cls-3" d="M308.6,362.1c-9.7,0-17.5,7.8-17.5,17.5v1.5h35v-1.5c0-9.7-7.8-17.5-17.5-17.5"/>
  <path class="cls-2" d="M410.8,362.1c-9.7,0-17.5,7.8-17.5,17.5v.8c0,.4,7.2.8,16,.8h19v-1.5c0-9.7-7.8-17.5-17.5-17.5"/>
  <path class="cls-1" d="M459,379.5h1.2v-13.5h-1.2v13.5ZM454.2,373.2c1.8-.2,3-1.4,3-3.1s-1.5-3.2-3.6-3.2-3.6,1.3-3.6,3.2,1.2,2.9,3,3.1v2.3h-3.6l.2,1c2.4,0,5.7,0,8.7-.6v-.9c-1.3.2-2.7.3-4,.4v-2.3h-.1ZM451.2,370c0-1.2,1-2.1,2.4-2.1s2.4.9,2.4,2.1-1,2.1-2.4,2.1-2.4-.9-2.4-2.1M446.3,366v5.7h-1.7v-5.4h-1.2v12.5h1.2v-6.1h1.7v6.8h1.2v-13.5h-1.2ZM440,366.4h-1.2v1.9h-2.7v1h6.7v-1h-2.7v-1.9h0ZM439.4,370.2c-1.7,0-2.9,1.3-2.9,3.1s1.2,3.1,2.9,3.1,2.9-1.2,2.9-3.1-1.2-3.1-2.9-3.1M439.4,375.3c-1.1,0-1.8-.9-1.8-2.1s.7-2,1.8-2,1.8.9,1.8,2-.8,2.1-1.8,2.1"/>
  <path class="cls-1" d="M357.5,366v5.5h-1.9v-5.2h-1.2v12.5h1.2v-6.3h1.9v6.9h1.2v-13.4h-1.2ZM349.2,367.6h-1.2v8.3h.9c1.5,0,3,0,4.8-.4v-1.1c-1.7.3-3.2.4-4.4.4v-7.3h0ZM346.3,372.5v-1h-1.9c.3-1.6.3-2.8.3-3.8v-1h-9.1v1h7.9c0,1,0,2.2-.4,3.8h-9.1v1h5.5v2.5h-4.2v1h8.2v3.5h1.2v-4.5h-4v-2.5h5.6Z"/>
  <path class="cls-1" d="M160.7,314.3c-2.8,0-4.5,0-5.9.3-.3,0-.4.2-.4.4v1c0,.3.2.4.4.4,1.6-.1,3.3-.3,5.5-.3s1.1.3,1.1,1v1.5c0,.3.1.5.4.5h1.1c.3,0,.4-.1.5-.4v-2c0-1.7-.9-2.5-2.8-2.5M161.6,307.1v5.9c0,.3.2.5.5.5h1.1c.3,0,.5-.2.5-.5v-5.9c0-.3-.2-.5-.5-.5h-1.1c-.3,0-.5.2-.5.5M156.8,311.3c.4,1.1,1.6,2,2.9,2s.4-.2.4-.4v-1.1c0-.3-.1-.4-.4-.4-1.1,0-1.9-1.1-1.9-2.3v-1.7c0-.3-.2-.5-.4-.5h-1.1c-.3,0-.5.2-.5.5v1.7c0,1.3-.8,2.3-1.9,2.3s-.5.1-.5.4v1.1c0,.3.2.4.5.4,1.4,0,2.6-.9,3-2M148.2,315.9c1.4,0,2.7-.1,3.4-.2.3,0,.5-.2.5-.4v-1c0-.3-.2-.5-.5-.4-.9.1-2.9.2-5,.2s-3.8,0-5-.2c-.3,0-.5.1-.5.4v1c0,.3.1.4.5.4,1.1.2,2.7.2,4.4.2-.3.1-.4.4-.4.7v1.6c0,.3.2.5.5.5h1.1c.3,0,.4-.2.4-.5v-1.7c0-.4.2-.6.6-.6M142.8,306.9c-.3,0-.5.2-.5.5v1c0,.3.2.5.5.5h2.9v.2c0,1.2-1.1,2-3.1,2s-.5.1-.5.4v1.1c0,.4.3.4.6.4,1.9,0,3.4-.7,3.9-1.8.6,1.1,2,1.8,4,1.8s.6,0,.6-.4v-1.1c0-.3-.2-.4-.5-.4-2,0-3-.8-3-2v-.2h2.8c.3,0,.5-.2.5-.5v-1c0-.3-.2-.5-.5-.5h-7.7Z"/>
  <path class="cls-1" d="M384,315.9h0c0,.4.2.6.5.6h1.1c.3,0,.5-.2.5-.5v-9c0-.3-.2-.5-.5-.5h-1.1c-.3,0-.5.2-.5.5v6.8c0,.4-.3.8-.8.8h-1.3c-.3,0-.4.2-.4.4v.8c0,.3.2.4.4.4h1.3c.4,0,.7-.2.9-.4M380.7,309.9c0,.5,0,1.3-.2,1.8h-4.6c-.3,0-.5.1-.5.4v.8c0,.3.1.4.5.4h2.8c-.2,0-.3.3-.3.5v.9h-1.3c-.3,0-.4.1-.5.5v1.4c0,1.7,1,2.6,2.9,2.6s4.9,0,6.7-.3c.3,0,.4-.2.4-.5v-1c0-.3-.3-.5-.6-.4-1.5.1-4,.3-6.2.3s-1.1-.3-1.1-.9v-.8h1.4c.3,0,.4-.2.4-.5v-1.4c0-.3.2-.4.5-.4h2.1c.3,0,.5-.2.5-.4v-.8c0-.3-.2-.4-.5-.4h-.6c.2-.8.2-1.6.2-2.3,0-1.7-.8-2.5-2.7-2.5s-2.5.1-3.3.2c-.3,0-.4.2-.4.4v1.1c0,.3.2.4.4.4,1-.1,1.9-.2,2.7-.2s1.3.4,1.3,1.1M366.5,306.7c0-.3-.1-.4-.4-.4h-1c-.3,0-.4.1-.4.4v.7c0,.2,0,.3.2.4h-1.8c-.3,0-.5.2-.5.5v1c0,.3.2.5.5.5h1.6v3.3c0,1.3-.7,2.2-1.7,2.4-.3,0-.5.2-.5.4v1.1c0,.3.2.4.5.4,1.3-.1,2.3-.9,2.6-2.1.3,1.1,1.3,1.9,2.5,2.1.3,0,.4-.1.4-.4v-1.1c0-.3-.1-.4-.4-.4-1-.1-1.6-1-1.6-2.4v-3.3h1.5c.3,0,.5-.2.5-.5v-1c0-.3-.2-.5-.5-.5h-1.1c-.3,0-.4-.1-.4-.3v-.8h0ZM372.3,307v4.3h-.5c-.2,0-.5,0-.6.3v-4.5c0-.3-.1-.4-.4-.4h-1c-.3,0-.4.1-.4.4v11.5c0,.3.1.4.4.4h1c.3,0,.4-.1.4-.4v-4.9c0-.3.2-.5.5-.5h.6v5.4c0,.3.1.4.4.4h1c.3,0,.4-.1.4-.4v-11.7c0-.3-.1-.4-.4-.4h-1c-.3,0-.4.1-.4.4"/>
  <path class="cls-1" d="M620.4,318.7v-4.6c0-.4.3-.8.8-.8h.5c.3,0,.4-.2.4-.4v-1.1c0-.3-.2-.4-.4-.4h-.4c-.4,0-.7.2-.9.4v-4.7c0-.3-.2-.5-.5-.5h-1.1c-.3,0-.5.2-.5.5v11.6c0,.3.2.5.5.5h1.1c.3,0,.5-.2.5-.5M610.9,307.5c-.3,0-.5.2-.5.5v1c0,.3.2.5.5.5h1.9v3.2c0,1.4-.9,2.6-1.9,2.8-.3,0-.5.2-.5.4v1.1c0,.3.2.4.5.4,1.4-.2,2.6-1.1,3-2.3.4,1.2,1.5,2.1,2.9,2.3.3,0,.4-.1.4-.4v-1.1c0-.3,0-.4-.4-.4-1.1-.2-1.9-1.3-1.9-2.8v-3.2h1.8c.3,0,.5-.2.5-.5v-1c0-.3-.2-.5-.5-.5h-5.8ZM607.5,306.9h-7.8c-.3,0-.4.2-.4.4v.8c0,.3.2.4.4.4h7.8c.3,0,.4-.2.4-.4v-.8c0-.3-.2-.4-.4-.4M607.6,309.2c-1.2-.1-2.2-.2-3.6-.2-3.8,0-4.8.4-4.8,2.1s.9,2.1,4.6,2.1,1.8,0,4-.3c.3,0,.4-.2.4-.4v-.8c0-.3-.2-.5-.5-.4-1.4.2-3.1.3-4.1.3-2.1,0-2.4,0-2.4-.5s.4-.5,2.7-.5,2.4,0,3.7.2c.3,0,.4-.1.4-.4v-.8c0-.3,0-.4-.4-.4M605.3,316.1c1.4,0,2.7-.1,3.4-.2.3,0,.5-.2.5-.4v-1c0-.3-.2-.5-.5-.4-.9.1-2.9.2-5,.2s-3.8,0-5-.2c-.3,0-.5.1-.5.4v1c0,.3,0,.4.5.4,1.1.2,2.7.2,4.4.2-.3.1-.4.4-.4.7v1.4c0,.3.2.5.5.5h1.1c.3,0,.4-.2.4-.5v-1.5c0-.4.2-.6.6-.6M594.5,307v11.7c0,.3,0,.4.4.4h1c.3,0,.4-.1.4-.4v-11.7c0-.3,0-.4-.4-.4h-1c-.3,0-.4.1-.4.4M591.8,313.2v5.5c0,.3,0,.4.4.4h1c.3,0,.4-.1.4-.4v-11.5c0-.3,0-.4-.4-.4h-1c-.3,0-.4.1-.4.4v3.9c0,.3-.2.4-.4.4h-1c-.3,0-.4.2-.4.4v1.1c0,.3.2.4.4.4h.9c.2,0,.4,0,.5-.2M588.7,306.7c0-.3,0-.4-.4-.4h-1c-.3,0-.4.1-.4.4v.7c0,.2,0,.3.2.4h-1.8c-.3,0-.5.2-.5.5v1c0,.3.2.5.5.5h1.6v3.3c0,1.3-.7,2.2-1.7,2.4-.3,0-.5.2-.5.4v1.1c0,.3.2.4.5.4,1.3-.1,2.3-.9,2.6-2.1.3,1.1,1.3,1.9,2.5,2.1.3,0,.4-.1.4-.4v-1.1c0-.3,0-.4-.4-.4-1-.1-1.6-1-1.6-2.4v-3.3h1.5c.3,0,.5-.2.5-.5v-1c0-.3-.2-.5-.5-.5h-1.1c-.3,0-.4-.1-.4-.3v-.8h0ZM577,315.1c-.5.2-1.1.3-1.7.3-1.1,0-1.7-1-1.7-3.1s.5-3.1,1.8-3.1,1,0,1.4.1c.3,0,.4,0,.4-.4v-1c0-.3,0-.4-.4-.4s-.9-.1-1.4-.1c-2.5,0-3.7,1.6-3.7,5s1.2,4.9,3.6,4.9,1.5-.1,2.1-.4c.3-.1.4-.3.3-.6l-.2-1c0-.2-.2-.3-.3-.3h-.2M581.4,307v4.3h-.5c-.2,0-.5,0-.6.3v-4.5c0-.3,0-.4-.4-.4h-1c-.3,0-.4.1-.4.4v11.5c0,.3,0,.4.4.4h1c.3,0,.4-.1.4-.4v-4.9c0-.3.2-.5.5-.5h.6v5.4c0,.3,0,.4.4.4h1c.3,0,.4-.1.4-.4v-11.7c0-.3,0-.4-.4-.4h-1c-.3,0-.4.1-.4.4"/>
  <path class="cls-1" d="M638.9,223.7c0-.8.2-1.2.7-1.2s.7.4.7,1.2-.2,1.2-.7,1.2-.7-.3-.7-1.2M647.6,228.9c0,.8-.2,1.2-.7,1.2s-.7-.3-.7-1.2.2-1.2.7-1.2.7.3.7,1.2M649.3,228.9c0-2-.9-3.1-2.5-3.1s-2.5,1.1-2.5,3.1.9,3.1,2.5,3.1,2.5-1.1,2.5-3.1M645.2,220.8l-6.2,10.8c0,.2,0,.4.3.4h1.3c.3,0,.5-.1.6-.3l6.2-10.8c0-.2,0-.4-.3-.4h-1.3c-.3,0-.5.1-.6.3M637.1,223.7c0,2,.9,3.1,2.5,3.1s2.5-1.1,2.5-3.1-.9-3.1-2.5-3.1-2.5,1-2.5,3.1M629.5,227.7l3.2-4.2v4.2h-3.2ZM627.2,227.5c-.2.2-.2.4-.2.6v.6c0,.5.3.8.8.8h4.8v1.7c0,.3.2.5.5.5h1.1c.3,0,.5-.2.5-.5v-1.7h1c.3,0,.4-.2.4-.4v-1.1c0-.3-.2-.4-.4-.4h-1v-6c0-.5-.3-.8-.8-.8h-1c-.4,0-.7.2-.9.5l-4.7,6.3h0ZM626,224c0-2.1-1.5-3.4-3.9-3.4s-3.9,1.2-3.9,3.5.2.5.5.5h1.1c.3,0,.5-.2.5-.5,0-.9.8-1.5,1.9-1.5s1.9.6,1.9,1.5-.7,1.5-2.5,2.5c-2.6,1.4-3.5,2.6-3.5,4.4s.3.8.8.8h7.3c.3,0,.4-.2.4-.4v-1.1c0-.3-.2-.4-.4-.4h-5.6c.3-.5,1.1-1,2.3-1.7,2.2-1.2,3.3-2.4,3.3-4.1M614.1,231.7c0,.7.5,1.2,1.2,1.2s1.2-.5,1.2-1.2-.5-1.2-1.2-1.2-1.2.5-1.2,1.2M604.9,221.6l-.4,5.2c0,.2,0,.4.4.4h1.2c.2,0,.3,0,.5-.2.5-.4,1.2-.6,2-.6,1.2,0,2,.7,2,1.8s-.7,1.8-2.2,1.8-2-.3-2.2-1c0-.3-.2-.4-.5-.4h-1.1c-.3,0-.5.2-.5.4,0,1.8,1.5,2.9,4.2,2.9s4.2-1.4,4.2-3.8-1.4-3.6-3.7-3.6-1.9.3-2.5.8l.2-2.6h4.6c.3,0,.4-.2.4-.4v-1.1c0-.3-.2-.4-.4-.4h-5.6c-.6,0-.9.3-1,.8"/>
  <path class="cls-1" d="M578.8,201.3c0-.8.2-1.2.7-1.2s.7.3.7,1.2-.2,1.2-.7,1.2-.7-.3-.7-1.2M587.5,206.5c0,.8-.2,1.2-.7,1.2s-.7-.4-.7-1.2.2-1.2.7-1.2.7.4.7,1.2M589.2,206.5c0-2-.9-3.1-2.5-3.1s-2.5,1.1-2.5,3.1.9,3.1,2.5,3.1,2.5-1,2.5-3.1M585.1,198.5l-6.2,10.8c0,.2,0,.4.3.4h1.3c.3,0,.5-.1.6-.3l6.2-10.8c0-.2,0-.4-.3-.4h-1.3c-.3,0-.5.1-.6.3M577.1,201.3c0,2,.9,3.1,2.5,3.1s2.5-1.1,2.5-3.1-.9-3.1-2.5-3.1-2.5,1.1-2.5,3.1M571.2,209.6c2.9,0,4.5-1.1,4.5-3.3s-.8-2.3-1.9-2.7c.9-.3,1.5-1.3,1.5-2.5,0-1.7-1.6-2.9-4.1-2.9s-4.1,1.1-4.1,2.9.6,2.1,1.5,2.5c-1.2.4-1.9,1.4-1.9,2.7,0,2.1,1.6,3.3,4.5,3.3M571.2,200.2c1.4,0,2.1.5,2.1,1.3s-.8,1.3-2.1,1.3-2.1-.5-2.1-1.3.8-1.3,2.1-1.3M571.2,204.7c1.7,0,2.5.5,2.5,1.5s-.9,1.5-2.5,1.5-2.5-.5-2.5-1.5.8-1.5,2.5-1.5M562.3,209.1l3.5-8.5c0-.2.2-.5.2-.8v-.6c0-.5-.3-.8-.8-.8h-6.5c-.3,0-.4.2-.4.4v1.1c0,.3.2.4.4.4h5.1l-3.6,8.6c0,.3,0,.4.3.4h1.2c.3,0,.5,0,.6-.4M554.7,209.4c0,.7.5,1.2,1.2,1.2s1.2-.5,1.2-1.2-.5-1.2-1.2-1.2-1.2.5-1.2,1.2M548.9,209.6c2.9,0,4.5-1.1,4.5-3.3s-.8-2.3-1.9-2.7c.9-.3,1.5-1.3,1.5-2.5,0-1.7-1.6-2.9-4.1-2.9s-4.1,1.1-4.1,2.9.6,2.1,1.5,2.5c-1.2.4-1.9,1.4-1.9,2.7,0,2.1,1.6,3.3,4.5,3.3M548.9,200.2c1.4,0,2.1.5,2.1,1.3s-.8,1.3-2.1,1.3-2.1-.5-2.1-1.3.8-1.3,2.1-1.3M548.9,204.7c1.7,0,2.5.5,2.5,1.5s-.9,1.5-2.5,1.5-2.5-.5-2.5-1.5.8-1.5,2.5-1.5"/>
  <path class="cls-1" d="M737.1,35.9c1.4-2.2,2.2-4.7,2.2-7.6s-.8-5.4-2.2-7.6l-.9.4c1.3,2.1,1.9,4.7,1.9,7.2s-.6,5.1-1.9,7.2l.9.4ZM728.5,34h6.9v-1.2h-3c-.6,0-1.2,0-1.8,0,2.6-2.4,4.3-4.7,4.3-6.9s-1.2-3.3-3.2-3.3-2.3.6-3.2,1.6l.8.8c.6-.7,1.4-1.3,2.3-1.3,1.4,0,2,.9,2,2.2,0,1.9-1.6,4.1-5,7.1v.8h0ZM721.5,34h6v-1.1h-2.2v-9.9h-1c-.6.3-1.3.6-2.3.8v.9h2v8.2h-2.4v1.1h0ZM718.7,33.8c.5,0,1-.4,1-1s-.5-1.1-1-1.1-1,.4-1,1.1.4,1,1,1M712.8,34.2c2,0,3.5-1.2,3.5-3.1s-1-2.5-2.3-2.8h0c1.2-.5,2-1.4,2-2.7s-1.3-2.8-3.2-2.8-2.2.6-3.1,1.3l.7.9c.6-.6,1.4-1.1,2.3-1.1s1.9.7,1.9,1.8-.8,2.1-3,2.1v1c2.5,0,3.4.9,3.4,2.2s-.9,2-2.2,2-2.1-.6-2.7-1.3l-.7.9c.7.8,1.8,1.5,3.5,1.5M701.8,34h6.9v-1.2h-3c-.6,0-1.2,0-1.8,0,2.6-2.4,4.3-4.7,4.3-6.9s-1.2-3.3-3.2-3.3-2.3.6-3.2,1.6l.8.8c.6-.7,1.4-1.3,2.3-1.3,1.4,0,2,.9,2,2.2,0,1.9-1.6,4.1-5,7.1v.8h0ZM697.6,33.1c-1.3,0-2.1-1.4-2.1-4.6s.8-4.6,2.1-4.6,2.1,1.3,2.1,4.6-.8,4.6-2.1,4.6M697.6,34.2c2.1,0,3.4-1.9,3.4-5.7s-1.3-5.7-3.4-5.7-3.4,1.8-3.4,5.7,1.3,5.7,3.4,5.7M686.3,34h6.9v-1.2h-3c-.6,0-1.2,0-1.8,0,2.6-2.4,4.3-4.7,4.3-6.9s-1.2-3.3-3.2-3.3-2.3.6-3.2,1.6l.8.8c.6-.7,1.4-1.3,2.3-1.3,1.4,0,2,.9,2,2.2,0,1.9-1.6,4.1-5,7.1v.8h0ZM683.6,29.5c.7,0,1.5-.4,2.1-1.5l-.8-.6c-.4.7-.8,1-1.3,1-1,0-1.7-1.4-3-1.4s-1.5.4-2.1,1.5l.8.5c.4-.7.8-1,1.3-1,.9,0,1.6,1.4,3,1.4M671.5,34h6v-1.1h-2.2v-9.9h-1c-.6.3-1.3.6-2.3.8v.9h1.9v8.2h-2.4v1.1ZM668.7,33.8c.5,0,1-.4,1-1s-.5-1.1-1-1.1-1,.4-1,1.1.5,1,1,1M662.9,34.2c2,0,3.5-1.2,3.5-3.1s-1-2.5-2.3-2.8h0c1.2-.5,2-1.4,2-2.7s-1.3-2.8-3.2-2.8-2.2.6-3.1,1.3l.7.9c.6-.6,1.4-1.1,2.3-1.1s1.9.7,1.9,1.8-.8,2.1-3,2.1v1c2.5,0,3.4.9,3.4,2.2s-.9,2-2.2,2-2.1-.6-2.7-1.3l-.7.9c.7.8,1.8,1.5,3.5,1.5M651.8,34h6.9v-1.2h-3c-.6,0-1.2,0-1.8,0,2.6-2.4,4.3-4.7,4.3-6.9s-1.2-3.3-3.2-3.3-2.3.6-3.2,1.6l.8.8c.6-.7,1.4-1.3,2.3-1.3,1.4,0,2,.9,2,2.2,0,1.9-1.6,4.1-5,7.1v.8h0ZM647.6,33.1c-1.3,0-2.1-1.4-2.1-4.6s.8-4.6,2.1-4.6,2.1,1.3,2.1,4.6-.8,4.6-2.1,4.6M647.6,34.2c2.1,0,3.4-1.9,3.4-5.7s-1.3-5.7-3.4-5.7-3.4,1.8-3.4,5.7,1.3,5.7,3.4,5.7M636.4,34h6.9v-1.2h-3c-.6,0-1.2,0-1.8,0,2.6-2.4,4.3-4.7,4.3-6.9s-1.2-3.3-3.2-3.3-2.3.6-3.2,1.6l.8.8c.6-.7,1.4-1.3,2.3-1.3,1.4,0,2,.9,2,2.2,0,1.9-1.6,4.1-5,7.1v.8h0ZM634.9,35.9l.8-.4c-1.3-2.1-1.9-4.7-1.9-7.2s.6-5.1,1.9-7.2l-.8-.4c-1.4,2.2-2.2,4.7-2.2,7.6s.8,5.4,2.2,7.6"/>
  <path class="cls-1" d="M230.4,23.6c.3,0,.4-.1.4-.4v-.9c0-.3-.1-.4-.4-.4h-.6c.7-.2,1.1-.7,1.1-1.3s-.6-1.2-1.8-1.2h-3.3c-2.1,0-4.4,0-6.7.2-.3,0-.4.2-.4.4v1.1c0,.3.1.4.4.4,2.1-.1,5.8-.2,8.2-.2s.7,0,.7.3-.2.3-.7.3h-2.9c-4.4,0-6,.4-6,2.2s1.5,2.3,7.2,2.3,4-.1,5.4-.4c.3,0,.4-.2.4-.5l-.2-1c0-.3-.2-.4-.5-.4-2,.3-4.1.4-6.1.4s-3.3,0-3.3-.4.5-.4,3.2-.4h6M224.5,34.2h6.2c1.5,0,.5-.2.5-.4v-1c0-.3-.2-.4-.5-.4h-.6c.7-.2,1.2-.7,1.2-1.5,0-1.2-1.1-1.3-2-1.3v-.6c0-.2.1-.3.4-.3h2.2c.5,0,.6-.2.6-.6v-.9c0-.4-.2-.6-.6-.6-1.2.1-4.1.2-7.2.2s-5.5,0-7.2-.2c-.4,0-.6.1-.6.6v.9c0,.4.2.6.6.6.9,0,1.6.1,2.7.1-.2,0-.3.3-.3.5v.5h-.8c-.4,0-.5.2-.5.4v1.1c0,.3.2.5.5.4,2.4-.2,6.8-.3,8.7-.3s.7,0,.7.4-.2.4-.7.4h-3.2c-4.6,0-6.3.5-6.3,2.4s1.5,2.4,7.5,2.4,4.2,0,5.6-.3c.3,0,.5-.2.5-.5v-1.1c-.1-.3-.3-.4-.7-.4-1.3.2-3.8.3-5.5.3-4.1,0-4.6,0-4.6-.4s.3-.5,3.5-.5M222.6,29.6v-.5c0-.2,0-.3.4-.3h3.6c-.2,0-.3.3-.3.5v.3h-3.7M211.2,19.5v8.4c0,.4.2.7.7.7h1.6c.4,0,.7-.2.7-.7v-8.4c0-.4-.2-.7-.7-.7h-1.6c-.4,0-.7.2-.7.7M201.6,30.3c-.4,0-.6.2-.6.6v1.5c0,.4.2.6.6.6,2.2-.2,4.7-.4,7.9-.4s1.5.4,1.5,1.5,0,1.5-.1,2.2c0,.4.2.7.6.7h1.6c.4,0,.6-.2.7-.6,0-.5.1-1.6.1-2.8,0-2.4-1.3-3.5-4-3.5-3.9,0-6.4.1-8.4.4M202.4,23.9c0-1.4.6-2.2,1.8-2.2s1.8.8,1.8,2.2-.6,2.2-1.8,2.2-1.8-.7-1.8-2.2M208.9,23.9c0-3-1.7-4.8-4.7-4.8s-4.7,1.8-4.7,4.8,1.8,4.8,4.7,4.8,4.7-1.8,4.7-4.8M189.9,24.7c.8,1.8,2.8,3.1,5.5,3.1s1,0,1-.6v-1.5c0-.4-.2-.6-.7-.6-2.8,0-4.3-1.6-4.3-3.8v-1.4c0-.4-.2-.7-.7-.7h-1.6c-.4,0-.7.2-.7.7v1.4c0,2.2-1.5,3.8-4.4,3.8s-.7.2-.7.6v1.5c0,.6.5.6,1,.6,2.7,0,4.7-1.3,5.5-3.1M191.2,33c0-.5.3-.8.9-.8,2,0,3.9-.2,4.9-.3.5,0,.7-.3.7-.6v-1.5c0-.4-.3-.7-.7-.6-1.2.2-4.1.3-7.2.3s-5.4-.1-7.2-.3c-.4,0-.7.2-.7.6v1.5c0,.4.2.6.7.6,1.6.2,3.9.3,6.3.3-.4.2-.6.5-.6,1v2.2c0,.4.2.7.7.7h1.6c.4,0,.6-.2.6-.7v-2.4ZM170.8,19.6c0,.5,0,.7-.7.7h-.9c-.4,0-.6.2-.6.6v1.2c0,.4.2.6.6.6h.5c.5,0,.9-.1,1.1-.4v1.2c0,.5-.2.7-.7.7h-.9c-.4,0-.6.2-.6.6v1.2c0,.4.2.6.6.6h.5c.5,0,.9-.1,1.1-.4v.9c0,.4.2.7.7.7h1.6c.4,0,.7-.2.7-.7v-7.4c0-.4-.2-.7-.7-.7h-1.6c-.4,0-.7.2-.7.7h0ZM161.6,27.5h4.2c1.4,0,2.1-.7,2.2-1.9l.3-5.6c0-.4-.2-.6-.7-.6h-1.6c-.5,0-.7.2-.7.6v1h-3.3v-1c0-.4-.3-.6-.7-.6h-1.6c-.4,0-.7.2-.7.6l.3,5.6c0,1.2.8,1.9,2.2,1.9M167,33.8h6.1c1.4,0,.5-.2.5-.5v-1.2c0-.3-.2-.5-.5-.5h-.5c.7-.3,1.2-.9,1.2-1.7s-.7-1.5-2-1.6c-3.1-.1-7.2,0-10.3.2-.4,0-.5.2-.5.5v1.3c0,.3.2.5.5.5,2.4-.2,6.8-.3,8.7-.3s.7.1.7.4-.2.4-.7.4h-3.2c-4.4,0-6.3.6-6.3,2.7s1.7,2.8,7.5,2.8,4.2-.2,5.6-.4c.3,0,.5-.2.5-.5v-1.3c-.1-.3-.3-.5-.7-.4-1.3.2-3.8.4-5.5.4-3.9,0-4.6,0-4.6-.5s.5-.5,3.5-.5M162.2,23.4h3v1c0,.4-.2.5-.6.5h-1.7c-.4,0-.5-.1-.6-.5v-1h0ZM147.8,37.1c3.3,0,5.6,0,7.6-.4.4,0,.6-.2.6-.6v-1.5c-.1-.4-.3-.7-.7-.6-2.1.2-4.6.4-7.1.4s-2.3-.6-2.3-1.7,0-.9.1-1.5c0-.4-.2-.7-.7-.7h-1.6c-.4,0-.6.2-.7.7,0,.5-.1.9-.1,1.9,0,2.5,1.7,4,4.8,4M155.5,30.7v-3.5c0-.6.5-1.1,1.2-1.1h.7c.4,0,.6-.2.6-.6v-1.5c0-.4-.2-.6-.6-.6h-.6c-.6,0-1,.2-1.2.6v-4.5c0-.4-.2-.7-.7-.7h-1.6c-.4,0-.7.2-.7.7v11.2c0,.4.2.7.7.7h1.6c.4,0,.7-.2.7-.7M146.1,26c.5,1.6,2.2,2.8,4.2,2.8s.6-.2.6-.6v-1.5c0-.4-.2-.6-.6-.6-1.6,0-2.8-1.5-2.8-3.3v-2.8c0-.5-.2-.7-.6-.7h-1.6c-.4,0-.7.3-.7.7v2.8c0,1.8-1.2,3.3-2.8,3.3s-.7.2-.7.6v1.5c0,.4.2.6.7.6,2,0,3.7-1.3,4.3-2.8M137.7,36.1v-6.6c0-.6.5-1.1,1.2-1.1h.7c.4,0,.6-.2.6-.6v-1.6c0-.4-.2-.6-.6-.6h-.6c-.6,0-1,.2-1.2.6v-6.7c0-.4-.2-.7-.7-.7h-1.6c-.4,0-.7.2-.7.7v16.6c0,.4.2.7.7.7h1.6c.4,0,.7-.2.7-.7M124.2,20.1c-.4,0-.7.2-.7.7v1.4c0,.4.2.7.7.7h2.7v4.6c0,2.1-1.2,3.7-2.8,3.9-.4,0-.7.3-.7.6v1.5c0,.4.2.6.7.6,2-.3,3.7-1.5,4.3-3.3.5,1.7,2.2,3,4.2,3.3.4,0,.6-.2.6-.6v-1.5c0-.4-.2-.6-.6-.6-1.6-.2-2.8-1.9-2.8-3.9v-4.6h2.6c.4,0,.7-.2.7-.7v-1.4c0-.4-.2-.7-.7-.7,0,0-8.2,0-8.2,0ZM110.7,34.5h-5.2c-.6,0-.9-.3-.9-.7v-1.2c0-.4.2-.5.5-.5h6c.6,0,.9.4.9,1.1s-.6,1.4-1.3,1.4M110.6,19.3c-3.1,0-6.2.2-8,.3-.4,0-.6.3-.6.6v1.5c0,.4.3.6.6.6,2.7-.2,5-.3,7.1-.3s1.9.5,1.9,1.6-.3,1.7-.5,2.2h-3c-2.8,0-5.4,0-7.2-.2-.4,0-.7.2-.7.6v1.2c0,.4.2.6.7.6,1.7.1,4.4.2,7.2.2s6,0,7.2-.2c.5,0,.7-.3.7-.6v-1.2c0-.4-.3-.6-.7-.6h-1.2c.3-.9.5-2,.5-2.9,0-2.4-1.2-3.5-4-3.5M113.2,34.6c1-.5,1.6-1.4,1.6-2.6s-.9-2.3-2.6-2.3h-9.5c-.7,0-1.1.4-1.1,1.1v4c0,1.4.9,2.2,2.5,2.2h10.3c.4,0,.6-.2.6-.6v-1.1c0-.4-.2-.6-.6-.6h-1.3,0ZM94.8,19.5v16.6c0,.4.2.7.7.7h1.6c.4,0,.7-.2.7-.7v-16.6c0-.4-.2-.7-.7-.7h-1.6c-.4,0-.7.2-.7.7M88.9,33.4c0,.4.2.7.6.7h1.6c.4,0,.6,0,.7-.6.5-3,.7-5.8.7-9s-1.2-4.4-4-4.4-2.5,0-4.6.4c-.4,0-.6.2-.6.6v1.5c0,.4.2.7.6.6,1.3-.1,2.4-.4,4.1-.4s1.5.5,1.5,2c0,2.7-.2,5.3-.7,8.5M75.9,34.5h-5.2c-.6,0-.9-.3-.9-.7v-1.2c0-.4.2-.5.5-.5h6c.6,0,.9.4.9,1.1s-.6,1.4-1.3,1.4M75.8,19.3c-3.1,0-6.2.2-8,.3-.4,0-.6.3-.6.6v1.5c0,.4.3.6.6.6,2.7-.2,5-.3,7.1-.3s1.9.5,1.9,1.6-.3,1.7-.5,2.2h-3c-2.8,0-5.4,0-7.2-.2-.4,0-.7.2-.7.6v1.2c0,.4.2.6.7.6,1.7.1,4.4.2,7.2.2s6,0,7.2-.2c.5,0,.7-.3.7-.6v-1.2c0-.4-.3-.6-.7-.6h-1.2c.3-.9.5-2,.5-2.9,0-2.4-1.2-3.5-4-3.5M78.4,34.6c1-.5,1.6-1.4,1.6-2.6s-.9-2.3-2.6-2.3h-9.5c-.7,0-1.1.4-1.1,1.1v4c0,1.4.9,2.2,2.5,2.2h10.3c.4,0,.6-.2.6-.6v-1.1c0-.4-.2-.6-.6-.6h-1.3,0ZM54.8,37.1c3.5,0,6,0,8-.4.4,0,.6-.2.6-.6v-1.5c0-.4-.3-.7-.7-.6-2.1.2-4.8.4-7.5.4s-2.3-.6-2.3-1.7,0-.9,0-1.5c0-.4-.2-.7-.7-.7h-1.6c-.4,0-.6.2-.7.7,0,.5,0,.9,0,1.9,0,2.5,1.7,4,4.8,4M52.9,19.1c-2.9,0-4.6,1.9-4.6,5s1.7,5,4.6,5,4.6-1.9,4.6-5-1.7-5-4.6-5M60,19.9c0,.6-.2.8-.8.8h-.8c-.4,0-.6.2-.6.6v1.4c0,.4.2.6.6.6h.5c.5,0,.9-.1,1.1-.4v1.4c0,.5-.2.8-.8.8h-.8c-.4,0-.6.2-.6.6v1.4c0,.4.2.6.6.6h.5c.5,0,.9-.1,1.1-.4v3.5c0,.4.2.7.7.7h1.6c.4,0,.7-.2.7-.7v-11.2c0-.4-.2-.7-.7-.7h-1.6c-.4,0-.7.2-.7.7v.4h0ZM51.2,24.1c0-1.5.6-2.4,1.7-2.4s1.7.9,1.7,2.4-.6,2.4-1.7,2.4-1.7-.9-1.7-2.4M37.8,37.1c3.5,0,6,0,8-.4.4,0,.6-.2.6-.6v-1.5c0-.4-.3-.7-.7-.6-2.1.2-4.8.4-7.5.4s-2.3-.6-2.3-1.7,0-.9,0-1.5c0-.4-.2-.7-.7-.7h-1.6c-.4,0-.6.2-.7.7,0,.5,0,.9,0,1.9,0,2.5,1.7,4,4.8,4M43,19.5v11.2c0,.4.2.7.7.7h1.6c.4,0,.7-.2.7-.7v-11.2c0-.4-.2-.7-.7-.7h-1.6c-.4,0-.7.2-.7.7M34.2,28.9h5.8c.4,0,.6-.2.6-.6v-1.3c0-.4-.2-.6-.6-.6h-1.3c1.3-.6,2-2.2,2-3.9s-1.2-3.2-3-3.2h-5.1c-.8,0-1.1.4-1.1,1.2v6.1c0,1.4,1,2.3,2.7,2.3M35.3,26.3c-.6,0-.9-.3-.9-.8v-2.9c0-.4.2-.6.6-.6h1.3c1,0,1.5.7,1.5,1.9s-.7,2.4-1.7,2.4c0,0-.8,0-.8,0ZM24.3,30.2h-1.2v-1.2c0-.4.2-.6.7-.6,1.8,0,4,0,5-.2.5,0,.7-.3.7-.6v-1.2c0-.4-.3-.6-.7-.6h-1.2c.2-.9.4-1.8.4-3,0-2.5-1.2-3.6-4-3.6s-6.2.2-8,.3c-.4,0-.6.3-.6.6v1.5c0,.4.3.6.6.6,2.7-.2,5-.3,7.1-.3s1.9.5,1.9,1.7-.2,1.8-.5,2.3h-3.1c-2.8,0-5.4,0-7.2-.2-.4,0-.7.2-.7.6v1.2c0,.4.2.6.7.6,1.6.1,4.1.2,6.2.1-.3.1-.4.4-.4.7v1.2c-1.8,0-3.2.2-4.4.3-.4,0-.6.2-.6.6v1.5c0,.4.2.6.6.6,2.2-.2,4.9-.4,8.1-.4s1.5.4,1.5,1.5,0,1.3-.1,1.9c0,.4.2.7.6.7h1.6c.4,0,.6-.2.7-.6,0-.4.1-1.3.1-2.5,0-2.4-1.3-3.5-4-3.5"/>
  <path class="cls-2" d="M610.8,125.4c0-1.3.4-1.8,1.2-1.8s1.2.6,1.2,1.8-.4,1.8-1.2,1.8-1.2-.6-1.2-1.8M624.4,133.5c0,1.3-.4,1.8-1.2,1.8s-1.2-.5-1.2-1.8.4-1.8,1.2-1.8,1.2.6,1.2,1.8M627.1,133.5c0-3.2-1.4-4.8-3.9-4.8s-3.9,1.7-3.9,4.8,1.3,4.8,3.9,4.8,3.9-1.7,3.9-4.8M620.7,120.9l-9.8,17c-.2.4,0,.7.4.7h2.1c.5,0,.8-.2,1-.5l9.8-17c.2-.4,0-.7-.4-.7h-2.1c-.5,0-.8.2-1,.5M608,125.4c0,3.2,1.4,4.8,3.9,4.8s3.9-1.7,3.9-4.8-1.3-4.8-3.9-4.8-3.9,1.6-3.9,4.8M602.6,127.9c-.9.8-2.4,1.3-3.8,1.3-2.2,0-3.7-1.1-3.7-2.8s1.2-2.9,3.5-2.9,3.8,1.2,4,4.3M591.9,126.6c0,3.4,2.4,5.6,6.1,5.6s3.3-.5,4.5-1.4c-.2,3.3-1.2,4.6-4,4.6s-2.5-.4-2.8-1.3c0-.4-.4-.5-.9-.5h-1.6c-.5,0-.7.3-.7.7.2,2.5,2.7,4.2,6,4.2,5.1,0,7.2-3.1,7.2-9.1s-2.4-8.6-7.1-8.6-6.8,2.4-6.8,6M578.3,122.1l-.6,8.2c0,.4.2.6.7.6h1.9c.4,0,.5,0,.8-.3.7-.6,1.8-.9,3.2-.9,2,0,3.2,1.1,3.2,2.8s-1.1,2.9-3.4,2.9-3.1-.4-3.4-1.6c0-.5-.3-.6-.8-.6h-1.7c-.5,0-.8.3-.8.7,0,2.9,2.4,4.6,6.6,4.6s6.6-2.1,6.6-6-2.2-5.7-5.7-5.7-3,.5-3.8,1.3l.3-4h7.3c.4,0,.7-.2.7-.7v-1.7c0-.4-.2-.7-.7-.7h-8.8c-.9,0-1.5.5-1.5,1.3M571.4,138c0,1.1.7,1.9,1.9,1.9s1.9-.7,1.9-1.9-.7-1.9-1.9-1.9-1.9.7-1.9,1.9M561.5,130.6c3.5,0,4.6.6,4.6,2.3s-1.2,2.3-3.7,2.3-3.7-.6-3.7-1.7-.3-.7-.7-.7h-1.7c-.5,0-.7.3-.7.7,0,3,2.6,4.8,6.9,4.8s6.9-2,6.9-5.2-1.3-3.9-3.3-4.4c1.5-.6,2.4-2.1,2.4-3.8,0-2.7-2.3-4.3-6.2-4.3s-6.2,1.7-6.2,4.8.3.7.7.7h1.7c.5,0,.7-.3.7-.7,0-1.1,1-1.7,3-1.7s3,.6,3,1.8-1,2.1-3.7,2.1-.7.2-.7.7v1.7c0,.4.2.7.7.7M549.5,137.4c0,.5.3.7.7.7h1.7c.5,0,.7-.3.7-.7v-15.9c0-.5-.3-.7-.7-.7h-1.3c-.4,0-.9,0-1.3.3l-3.3,1.9c-.4.2-.6.4-.6.9v2c0,.3.2.6.5.6h.3l3.1-1.7v12.8l.2-.2Z"/>
  <path class="cls-1" d="M667,95.4c.2,0,.3,0,.3-.3v-.7c0-.2,0-.3-.3-.3h-.7c.7-.2,1.2-.7,1.2-1.4s-.4-1-1.7-1c-2.4,0-5.7,0-8.4.2-.3,0-.4,0-.4.4v.7c0,.3,0,.4.3.4,1.9,0,5.2-.2,7.2-.2s.8,0,.8.4-.2.5-.9.5h-2.7c-4.1,0-5.1.4-5.1,1.9s1.1,1.9,6.2,1.9,3.4,0,4.6-.3c.3,0,.3,0,.3-.4v-.7c0-.3-.2-.4-.5-.3-1.3.2-3.1.3-4.5.3-3.6,0-4.1,0-4.1-.5s.4-.5,3.1-.5h5.1M667.7,107.2c.3,0,.4,0,.3-.4v-.8c0-.3-.2-.4-.5-.3-1.3.2-3.4.3-4.8.3-3.9,0-4.4,0-4.4-.6s.4-.5,3.4-.5h5.3c.3,0,.4,0,.4-.4v-.8c0-.2,0-.3-.4-.3h-.6c.7-.2,1.2-.8,1.2-1.5,0-1.1-.9-1.1-1.7-1.2v-.5c0-.3,0-.4.5-.4s1.4,0,1.9,0c.3,0,.4-.2.4-.4v-.8c0-.3,0-.4-.4-.4-1.3,0-3.9.2-6.4.2s-5.2,0-6.4-.2c-.3,0-.4,0-.4.4v.8c0,.3,0,.4.4.4.9,0,1.8,0,2.7,0-.2,0-.3.3-.3.5v.6h-.8c-.3,0-.4,0-.4.4v.8c0,.3,0,.4.4.4,1.9,0,5.7-.2,7.7-.2s.8,0,.8.4-.2.4-.9.5h-3c-4.3,0-5.4.4-5.4,2.1s1.1,2.1,6.5,2.1,3.6,0,4.9-.3M660,100.9v-.5c0-.3.2-.4.5-.4h3.6c-.2,0-.3.3-.3.5v.4h-3.9M650.5,91.8v7.6c0,.3.2.5.5.5h1.1c.3,0,.5-.2.5-.5v-7.6c0-.3-.2-.5-.5-.5h-1.1c-.3,0-.5.2-.5.5M652.4,106.8v-2.8c0-2-1-2.9-3.5-2.9s-5.3,0-7.2.3c-.3,0-.4.2-.4.5v1c0,.3,0,.5.4.4,2.2-.2,4.4-.3,7-.3s1.7.3,1.7,1.5v2.3c0,.3.2.5.5.5h1.1c.3,0,.5-.2.5-.5M646,95.7c0,1.4-.8,2.3-2,2.3s-2-.9-2-2.3.8-2.3,2-2.3,2,.9,2,2.3M648.1,95.7c0-2.5-1.6-4.2-4.1-4.2s-4,1.7-4,4.2,1.6,4.2,4,4.2,4.1-1.7,4.1-4.2M631.4,96.3c.8,1.7,2.8,2.9,4.9,2.9s.6,0,.6-.4v-1.1c0-.3,0-.4-.4-.4-2.4,0-4.1-1.5-4.1-3.6v-1.5c0-.3-.2-.5-.5-.5h-1.1c-.3,0-.5.2-.5.5v1.5c0,2.1-1.7,3.6-4.1,3.6s-.4,0-.4.4v1.1c0,.4.3.4.6.4,2.1,0,4.1-1.2,4.9-2.9M633,102.8c1.5,0,3.5,0,4.7-.3.3,0,.5-.2.5-.5v-1c0-.3-.2-.5-.5-.4-1.4.2-3.8.3-6.3.3s-4.6,0-6.3-.3c-.3,0-.5,0-.5.4v1c0,.3,0,.5.4.5,1.3.2,3.8.3,5.8.3-.3,0-.5.4-.5.8v2.5c0,.3.2.5.5.5h1.1c.3,0,.5-.2.5-.5v-2.7c0-.4.2-.6.6-.6M604.9,104.4c0,2.1,1.9,3.1,5.9,3.1s5.9-1,5.9-3.1-1.9-3.1-5.9-3.1-5.9,1-5.9,3.1M617.5,99c0-.3-.2-.5-.5-.4-.6,0-1.4,0-2,0s-.4,0-.4-.4v-1.2c1.3-.5,1.8-1.3,1.8-2.6,0-2.1-1.7-3.1-5.6-3.1s-5.6,1-5.6,3.1.5,1.9,1.6,2.4v1.1c0,.3,0,.5.3.6-.9,0-1.8,0-2.7,0-.3,0-.5,0-.5.4v1c0,.3,0,.4.5.5,1.1,0,3,.2,6.3.2s5.1,0,6.4-.2c.3,0,.5-.2.5-.5v-1h0ZM607,104.4c0-.9,1.1-1.2,3.8-1.2s3.8.3,3.8,1.2-1.1,1.2-3.8,1.2-3.8-.4-3.8-1.2M612.5,97.6v.6c0,.3,0,.5.4.6h-3.6c-.3,0-.4,0-.4-.4v-.8c.6,0,1.2,0,2,0h1.7M610.8,95.8c-2.6,0-3.5-.4-3.5-1.2s.9-1.2,3.5-1.2,3.5.3,3.5,1.2-.9,1.2-3.5,1.2M589.6,102.9c0,.4,0,.8,0,1.4,0,2.1,1.4,3.3,3.8,3.3s5.6,0,7.4-.3c.3,0,.4-.2.4-.4v-1c0-.3-.3-.5-.5-.4-2.1.2-4.2.3-7.4.3s-1.7-.5-1.7-1.5,0-.9,0-1.3c0-.3,0-.5-.4-.5h-1.1c-.3,0-.5.2-.5.5M589.5,94.9c0,2.4,1.7,3.4,5.6,3.4s5.6-1.1,5.6-3.4-1.7-3.4-5.6-3.4-5.6,1.1-5.6,3.4M594.5,101.2c0,0-.2.3-.2.4v2c0,.3.2.5.5.5h1.1c.3,0,.5-.2.5-.5v-2c0-.3,0-.4.5-.4,1,0,3.2,0,4.5-.2.3,0,.4-.2.4-.5v-1c0-.3-.2-.5-.5-.4-1.3,0-3.8.2-6.3.2s-5.1,0-6.3-.2c-.3,0-.5,0-.5.4v1c0,.3,0,.5.4.5,1.4,0,3.8.2,5.9.2M595.1,96.5c-2.6,0-3.5-.5-3.5-1.6s.9-1.6,3.5-1.6,3.5.5,3.5,1.6-.9,1.6-3.5,1.6M568,105.5c1.3.2,3.5.3,6.3.3s5.1,0,6.4-.3c.3,0,.5-.2.5-.5v-1c0-.3-.2-.5-.5-.4-1.2.2-3.1.3-4.6.3s-.6-.2-.6-.6v-2.2c1,0,2.2,0,3.8-.3.3,0,.4-.2.4-.4v-1.1c0-.3-.3-.5-.5-.4-1.6.2-3.3.3-4.8.3-2.9,0-3.7-.8-3.7-2.5s.9-2.4,4.1-2.4,2,0,4.1.2c.3,0,.5,0,.5-.4v-1.1c0-.3,0-.5-.5-.5-2.3,0-3.1-.2-4.1-.2-4.6,0-6.3,1.6-6.3,4.4s1.3,4.1,4.7,4.4v2.1c0,.4.2.6.5.8-2,0-4.4-.2-5.7-.3-.3,0-.5,0-.5.4v1c0,.3,0,.4.5.5M554,102.1c0,.5,0,1.2,0,2,0,2.1,1.5,3.3,4,3.3s5.3,0,7.1-.3c.3,0,.4-.2.4-.4v-1c0-.3-.3-.5-.5-.4-2.1.2-3.9.3-7.1.3s-1.8-.6-1.8-1.7,0-1.3,0-1.8c0-.3-.2-.5-.5-.5h-1.1c-.3,0-.5.2-.5.5M564.9,101.9v-10.1c0-.3-.2-.5-.5-.5h-1.1c-.3,0-.5.2-.5.5v.6c0,.4,0,.5-.5.5h-2.5c-.3,0-.5,0-.5.4v1c0,.3,0,.4.5.4h2.3c.3,0,.6,0,.7-.4v1.2c0,.4,0,.5-.5.5h-2.5c-.3,0-.5,0-.5.4v1.3c-1.1.3-2.2.5-3,.5-1.3,0-1.8-.5-1.8-1.6s0-2.6.4-4.6c0-.3,0-.5-.5-.5h-1.1c-.3,0-.4,0-.5.4-.3,1.4-.4,2.8-.4,4.4,0,2.4,1.3,3.7,3.9,3.7s2.5-.2,3.7-.6c.3,0,.4-.3.4-.6l-.3-1h1.9c.3,0,.6,0,.7-.4v4.2c0,.3.2.5.5.5h1.1c.3,0,.5-.2.5-.5M542,102.7c0-.3-.2-.5-.5-.5h-1.1c-.3,0-.5.2-.5.5,0,2.4,2,3.8,5.3,3.8s5.3-1.6,5.3-4.2-1.1-3.2-2.7-3.6c1.2-.5,2-1.7,2-3.1,0-2.2-1.8-3.5-4.8-3.5s-4.8,1.4-4.8,3.8.2.5.5.5h1.1c.3,0,.5-.2.5-.5,0-1.3.8-1.9,2.7-1.9s2.7.6,2.7,1.8-1,2.1-3.4,2.1-.4,0-.4.4v1.1c0,.3,0,.5.4.5,3.2,0,4.1.5,4.1,2.2s-1.1,2.3-3.3,2.3-3.3-.6-3.3-1.9M517.8,99.3c0-3.5,1.1-5.2,3.3-5.2s3.3,1.6,3.3,5.2-1.1,5.2-3.3,5.2-3.3-1.6-3.3-5.2M515.7,99.3c0,4.8,1.9,7.2,5.4,7.2s5.4-2.3,5.4-7.2-1.9-7.2-5.4-7.2-5.4,2.3-5.4,7.2M504,105.5c0,.5.3.8.8.8h9.1c.3,0,.4,0,.4-.4v-1.1c0-.3,0-.4-.4-.4h-7.5c.2-.8,1.4-1.8,3.4-2.9,2.6-1.4,4-3.1,4-5s-1.7-4.2-4.8-4.2-4.8,1.6-4.8,4.4.2.5.5.5h1.1c.3,0,.5-.2.5-.5,0-1.6.9-2.4,2.7-2.4s2.7.8,2.7,2.1-1,2.4-3.5,3.8c-3.2,1.8-4.3,3.1-4.3,5.5M528.3,105.5c0,.5.3.8.8.8h9.1c.3,0,.4,0,.4-.4v-1.1c0-.3,0-.4-.4-.4h-7.5c.2-.8,1.4-1.8,3.4-2.9,2.6-1.4,4-3.1,4-5s-1.7-4.2-4.8-4.2-4.8,1.6-4.8,4.4.2.5.5.5h1.1c.3,0,.5-.2.5-.5,0-1.6.9-2.4,2.7-2.4s2.7.8,2.7,2.1-1,2.4-3.5,3.8c-3.2,1.8-4.3,3.1-4.3,5.5"/>
  <path class="cls-1" d="M417.6,197.3c0-.8.2-1.2.7-1.2s.7.3.7,1.2-.2,1.2-.7,1.2-.7-.3-.7-1.2M426.3,202.5c0,.8-.2,1.2-.7,1.2s-.7-.4-.7-1.2.2-1.2.7-1.2.7.4.7,1.2M428,202.5c0-2-.9-3.1-2.5-3.1s-2.5,1.1-2.5,3.1.9,3.1,2.5,3.1,2.5-1,2.5-3.1M423.9,194.5l-6.2,10.8c-.1.2,0,.4.3.4h1.3c.3,0,.5-.1.6-.3l6.2-10.8c.1-.2,0-.4-.3-.4h-1.3c-.3,0-.5.1-.6.3M415.8,197.3c0,2,.9,3.1,2.5,3.1s2.5-1.1,2.5-3.1-.9-3.1-2.5-3.1-2.5,1.1-2.5,3.1M408.2,201.3l3.2-4.2v4.2h-3.2ZM405.9,201.2c-.2.2-.2.4-.2.6v.6c0,.5.3.8.8.8h4.8v1.7c0,.3.2.5.5.5h1.1c.3,0,.5-.2.5-.5v-1.7h1c.3,0,.4-.2.4-.4v-1.1c0-.3-.2-.4-.4-.4h-1v-6c0-.5-.3-.8-.8-.8h-1c-.4,0-.7.2-.9.5l-4.7,6.3h0ZM400,205.6c2.9,0,4.5-1.1,4.5-3.3s-.8-2.3-1.9-2.7c.9-.3,1.5-1.3,1.5-2.5,0-1.7-1.6-2.9-4.1-2.9s-4.1,1.1-4.1,2.9.6,2.1,1.5,2.5c-1.2.4-1.9,1.4-1.9,2.7,0,2.1,1.6,3.3,4.5,3.3M400,196.2c1.4,0,2.1.5,2.1,1.3s-.8,1.3-2.1,1.3-2.1-.5-2.1-1.3.8-1.3,2.1-1.3M400,200.7c1.7,0,2.5.5,2.5,1.5s-.9,1.5-2.5,1.5-2.5-.5-2.5-1.5.8-1.5,2.5-1.5M391.7,205.4c0,.7.5,1.2,1.2,1.2s1.2-.5,1.2-1.2-.5-1.2-1.2-1.2-1.2.5-1.2,1.2M385.8,205.6c2.9,0,4.5-1.1,4.5-3.3s-.8-2.3-1.9-2.7c.9-.3,1.5-1.3,1.5-2.5,0-1.7-1.6-2.9-4.1-2.9s-4.1,1.1-4.1,2.9.6,2.1,1.5,2.5c-1.2.4-1.9,1.4-1.9,2.7,0,2.1,1.6,3.3,4.5,3.3M385.8,196.2c1.4,0,2.1.5,2.1,1.3s-.8,1.3-2.1,1.3-2.1-.5-2.1-1.3.8-1.3,2.1-1.3M385.8,200.7c1.7,0,2.5.5,2.5,1.5s-.9,1.5-2.5,1.5-2.5-.5-2.5-1.5.8-1.5,2.5-1.5"/>
  <path class="cls-1" d="M356.6,209c0-.8.2-1.2.7-1.2s.7.3.7,1.2-.2,1.2-.7,1.2-.7-.3-.7-1.2M365.3,214.2c0,.8-.2,1.2-.7,1.2s-.7-.4-.7-1.2.2-1.2.7-1.2.7.4.7,1.2M367.1,214.2c0-2-.9-3.1-2.5-3.1s-2.5,1.1-2.5,3.1.9,3.1,2.5,3.1,2.5-1,2.5-3.1M363,206.2l-6.2,10.8c-.1.2,0,.4.3.4h1.3c.3,0,.5-.1.6-.3l6.2-10.8c.1-.2,0-.4-.3-.4h-1.3c-.3,0-.5.1-.6.3M354.9,209c0,2,.9,3.1,2.5,3.1s2.5-1.1,2.5-3.1-.9-3.1-2.5-3.1-2.5,1.1-2.5,3.1M346.7,211.6c0-2.5.8-3.7,2.4-3.7s2.4,1.2,2.4,3.7-.8,3.7-2.4,3.7-2.4-1.2-2.4-3.7M344.7,211.6c0,3.8,1.5,5.6,4.4,5.6s4.4-1.8,4.4-5.6-1.5-5.6-4.4-5.6-4.4,1.8-4.4,5.6M337,213l3.2-4.2v4.2h-3.2ZM334.8,212.9c-.2.2-.2.4-.2.6v.6c0,.5.3.8.8.8h4.8v1.7c0,.3.2.5.5.5h1.1c.3,0,.5-.2.5-.5v-1.7h1c.3,0,.4-.2.4-.4v-1.1c0-.3-.2-.4-.4-.4h-1v-6c0-.5-.3-.8-.8-.8h-1c-.4,0-.7.2-.9.5l-4.7,6.3h0ZM330.9,217.1c0,.7.5,1.2,1.2,1.2s1.2-.5,1.2-1.2-.5-1.2-1.2-1.2-1.2.5-1.2,1.2M326.1,216.8l3.5-8.5c0-.2.2-.5.2-.8v-.6c0-.5-.3-.8-.8-.8h-6.5c-.3,0-.4.2-.4.4v1.1c0,.3.2.4.4.4h5.1l-3.6,8.6c-.1.3,0,.4.3.4h1.2c.3,0,.5,0,.6-.4"/>
  <path class="cls-1" d="M200.1,101.3c0-.8.2-1.2.7-1.2s.7.3.7,1.2-.2,1.2-.7,1.2-.7-.4-.7-1.2M208.8,106.5c0,.8-.2,1.2-.7,1.2s-.7-.4-.7-1.2.2-1.2.7-1.2.7.4.7,1.2M210.5,106.5c0-2-.9-3.1-2.5-3.1s-2.5,1.1-2.5,3.1.9,3.1,2.5,3.1,2.5-1.1,2.5-3.1M206.4,98.4l-6.2,10.8c-.1.2,0,.4.3.4h1.3c.3,0,.5,0,.6-.3l6.2-10.8c.1-.2,0-.4-.3-.4h-1.3c-.3,0-.5,0-.6.3M198.3,101.3c0,2,.9,3.1,2.5,3.1s2.5-1.1,2.5-3.1-.9-3.1-2.5-3.1-2.5,1.1-2.5,3.1M194.9,102.9c-.5.5-1.5.8-2.4.8-1.4,0-2.3-.7-2.3-1.8s.8-1.8,2.2-1.8,2.4.8,2.5,2.7M188.1,102c0,2.2,1.5,3.6,3.9,3.6s2.1-.3,2.9-.9c-.1,2.1-.8,2.9-2.5,2.9s-1.6-.3-1.8-.8c0-.2-.3-.3-.6-.3h-1c-.3,0-.5.2-.4.4.2,1.6,1.7,2.7,3.8,2.7,3.2,0,4.6-2,4.6-5.8s-1.5-5.5-4.5-5.5-4.3,1.5-4.3,3.8M182.6,109.5c2.9,0,4.5-1.1,4.5-3.3s-.8-2.3-1.9-2.7c.9-.4,1.5-1.3,1.5-2.5,0-1.7-1.6-2.9-4.1-2.9s-4.1,1.1-4.1,2.9.6,2.1,1.5,2.5c-1.2.3-1.9,1.4-1.9,2.7,0,2.1,1.6,3.3,4.5,3.3M182.6,100.1c1.4,0,2.1.5,2.1,1.3s-.8,1.3-2.1,1.3-2.1-.5-2.1-1.3.8-1.3,2.1-1.3M182.6,104.7c1.7,0,2.5.5,2.5,1.5s-.9,1.5-2.5,1.5-2.5-.5-2.5-1.5.8-1.5,2.5-1.5M174.4,109.3c0,.7.5,1.2,1.2,1.2s1.2-.5,1.2-1.2-.5-1.2-1.2-1.2-1.2.5-1.2,1.2M168,104.6c2.2,0,2.9.4,2.9,1.5s-.8,1.5-2.3,1.5-2.3-.4-2.3-1.1-.2-.5-.5-.5h-1.1c-.3,0-.5.2-.5.5,0,1.9,1.7,3,4.4,3s4.4-1.3,4.4-3.3-.9-2.5-2.1-2.8c.9-.4,1.6-1.3,1.6-2.4,0-1.7-1.5-2.7-3.9-2.7s-3.9,1.1-3.9,3,.2.5.5.5h1.1c.3,0,.5-.2.5-.5,0-.7.6-1.1,1.9-1.1s1.9.4,1.9,1.1-.7,1.3-2.4,1.3-.4.2-.4.4v1.1c0,.3.2.4.4.4M162.7,101.6c0-2.1-1.5-3.4-3.9-3.4s-3.9,1.2-3.9,3.5.2.5.5.5h1.1c.3,0,.5-.2.5-.5,0-.9.8-1.5,1.9-1.5s1.9.6,1.9,1.5-.7,1.5-2.5,2.5c-2.6,1.4-3.5,2.6-3.5,4.4s.3.8.8.8h7.3c.3,0,.4-.2.4-.4v-1.1c0-.3-.2-.4-.4-.4h-5.6c.3-.5,1.1-1,2.3-1.7,2.2-1.2,3.3-2.4,3.3-4.1"/>
  <path class="cls-1" d="M137.9,116.6c0-.8.2-1.2.7-1.2s.7.3.7,1.2-.2,1.2-.7,1.2-.7-.4-.7-1.2M146.6,121.8c0,.8-.2,1.2-.7,1.2s-.7-.4-.7-1.2.2-1.2.7-1.2.7.4.7,1.2M148.3,121.8c0-2-.9-3.1-2.5-3.1s-2.5,1.1-2.5,3.1.9,3.1,2.5,3.1,2.5-1.1,2.5-3.1M144.3,113.8l-6.2,10.8c-.1.2,0,.4.3.4h1.3c.3,0,.5,0,.6-.3l6.2-10.8c.1-.2,0-.4-.3-.4h-1.3c-.3,0-.5,0-.6.3M136.2,116.6c0,2,.9,3.1,2.5,3.1s2.5-1.1,2.5-3.1-.9-3.1-2.5-3.1-2.5,1.1-2.5,3.1M134.5,116.9c0-2.1-1.5-3.4-3.9-3.4s-3.9,1.2-3.9,3.5.2.5.5.5h1.1c.3,0,.5-.2.5-.5,0-.9.8-1.5,1.9-1.5s1.9.6,1.9,1.5-.7,1.5-2.5,2.5c-2.6,1.4-3.5,2.6-3.5,4.4s.3.8.8.8h7.3c.3,0,.4-.2.4-.4v-1.1c0-.3-.2-.4-.4-.4h-5.6c.3-.5,1.1-1,2.3-1.7,2.2-1.2,3.3-2.4,3.3-4.1M122.5,124.3c0,.3.2.5.5.5h1.1c.3,0,.5-.2.5-.5v-10.1c0-.3-.2-.5-.5-.5h-.8c-.3,0-.5,0-.8.2l-2.1,1.2c-.3,0-.4.3-.4.5v1.3c0,.2,0,.4.3.4s0,0,.2,0l2-1.1s0,8.1,0,8.1ZM116.3,124.6c0,.7.5,1.2,1.2,1.2s1.2-.5,1.2-1.2-.5-1.2-1.2-1.2-1.2.5-1.2,1.2M114.7,116.9c0-2.1-1.5-3.4-3.9-3.4s-3.9,1.2-3.9,3.5.2.5.5.5h1.1c.3,0,.5-.2.5-.5,0-.9.8-1.5,1.9-1.5s1.9.6,1.9,1.5-.7,1.5-2.5,2.5c-2.6,1.4-3.5,2.6-3.5,4.4s.3.8.8.8h7.3c.3,0,.4-.2.4-.4v-1.1c0-.3-.2-.4-.4-.4h-5.6c.3-.5,1.1-1,2.3-1.7,2.2-1.2,3.3-2.4,3.3-4.1M104.9,116.9c0-2.1-1.5-3.4-3.9-3.4s-3.9,1.2-3.9,3.5.2.5.5.5h1.1c.3,0,.5-.2.5-.5,0-.9.8-1.5,1.9-1.5s1.9.6,1.9,1.5-.7,1.5-2.5,2.5c-2.6,1.4-3.5,2.6-3.5,4.4s.3.8.8.8h7.3c.3,0,.4-.2.4-.4v-1.1c0-.3-.2-.4-.4-.4h-5.6c.3-.5,1.1-1,2.3-1.7,2.2-1.2,3.3-2.4,3.3-4.1"/>
</svg>