<svg width="45" height="45" viewBox="0 0 45 45" fill="none" xmlns="http://www.w3.org/2000/svg">
<rect width="45" height="45" fill="#D70C16"/>
<path d="M27.36 36.6L24.66 32.97C23.86 33.13 23.08 33.21 22.32 33.21C20.34 33.21 18.52 32.75 16.86 31.83C15.22 30.91 13.91 29.63 12.93 27.99C11.97 26.33 11.49 24.47 11.49 22.41C11.49 20.35 11.97 18.5 12.93 16.86C13.91 15.22 15.22 13.94 16.86 13.02C18.52 12.1 20.34 11.64 22.32 11.64C24.3 11.64 26.11 12.1 27.75 13.02C29.41 13.94 30.71 15.22 31.65 16.86C32.61 18.5 33.09 20.35 33.09 22.41C33.09 24.21 32.72 25.86 31.98 27.36C31.26 28.84 30.25 30.07 28.95 31.05L33.57 36.6H27.36ZM16.74 22.41C16.74 24.27 17.24 25.76 18.24 26.88C19.26 27.98 20.62 28.53 22.32 28.53C24 28.53 25.34 27.97 26.34 26.85C27.36 25.73 27.87 24.25 27.87 22.41C27.87 20.55 27.36 19.07 26.34 17.97C25.34 16.85 24 16.29 22.32 16.29C20.62 16.29 19.26 16.84 18.24 17.94C17.24 19.04 16.74 20.53 16.74 22.41Z" fill="white"/>
</svg>
