<?xml version="1.0" encoding="UTF-8"?>
<svg id="_레이어_1" data-name="레이어 1" xmlns="http://www.w3.org/2000/svg" version="1.1" viewBox="0 0 335 55">
  <defs>
    <style>
      .cls-1 {
        fill: #000;
      }

      .cls-1, .cls-2, .cls-3 {
        stroke-width: 0px;
      }

      .cls-2 {
        fill: #006d3c;
      }

      .cls-3 {
        fill: #b2ff72;
      }
    </style>
  </defs>
  <path class="cls-2" d="M126,49.2c-2.9,0-5.7-.1-7.5-.4-.4,0-.7.2-.7.6v1.6c0,.4.2.6.7.7,1.8.3,4.6.4,7.5.4s6.3-.1,7.6-.4c.5,0,.7-.3.7-.7v-1.6c0-.4-.3-.7-.7-.6-1.3.2-4.3.4-7.6.4M131.4,36c-1.8-.2-3.3-.2-5.4-.2-5,0-7.2,1.7-7.2,5.3s2.2,5.3,6.9,5.3,3.1-.1,6-.4c.5,0,.7-.3.7-.7v-1.5c-.1-.5-.4-.7-.8-.7-2.1.2-4.6.4-6.2.4-2.5,0-3.5-.7-3.5-2.5s1.2-2.5,4.1-2.5,3.5.1,5.5.2c.4,0,.7-.2.7-.7v-1.5c0-.4-.2-.6-.7-.7M105.7,53.8c3.9,0,7.1-.1,9.2-.4.4,0,.7-.2.7-.7v-1.5c-.1-.4-.3-.7-.8-.7-2.2.2-5.7.4-8.7.4s-2.4-.5-2.4-1.6,0-.8.1-1.4c0-.4-.3-.7-.7-.7h-1.7c-.4,0-.6.3-.7.7,0,.4-.1.8-.1,1.8,0,2.5,1.8,3.9,5,3.9M103.2,41.6c.8,0,1.2,0,2.3,0s.5-.2.5-.6v-1.3c0-.4-.2-.6-.5-.6h-.4c.7-.4,1.1-1,1.1-1.8,0-1.5-1-2.2-3.4-2.2s-2.6.1-3.7.3c-.4,0-.6.2-.6.7v1.4c0,.4.2.6.6.5,1.2-.2,2.3-.3,2.8-.3,1.1,0,1.4.2,1.4.6s-.3.6-1.4.6c-2.9,0-4.1,1-4.1,3.5s1.5,3.4,4.7,3.4,2.6-.2,3.7-.6c.4-.2.5-.3.4-.8l-.3-1.3c0-.3-.2-.4-.4-.4s-.2,0-.3,0c-.7.3-2,.5-3,.5s-1.8-.3-1.8-.8.4-.8,2.5-.8M112.2,35.4v4.4h-.8c-.4,0-.7.1-.8.4v-4.6c0-.4-.2-.7-.7-.7h-1.5c-.4,0-.7.2-.7.7v11.6c0,.4.2.7.7.7h1.5c.4,0,.7-.2.7-.7v-3.8c0-.5.4-.8.8-.8h.8v4.6c0,.4.2.7.7.7h1.5c.4,0,.7-.2.7-.7v-11.8c0-.4-.2-.7-.7-.7h-1.5c-.4,0-.7.2-.7.7M86.5,39.6l-.3-2h3.5l-.3,1.9c-.5,0-.9,0-1.4,0h-1.4ZM88,51.3c-3.3,0-4.1-.2-4.1-1.1s.8-1.1,4.1-1.1,4.1.2,4.1,1.1-.8,1.1-4.1,1.1M81.9,37.7h1.3l.3,1.8c-.8,0-1.5,0-1.9-.1-.4,0-.6.1-.6.5v1.4c0,.4.1.5.5.6,1.2.1,3.6.3,6.4.3s5.3-.1,6.4-.3c.4,0,.5-.2.5-.6v-1.4c0-.4-.2-.5-.6-.5-.4,0-1.1,0-1.9.1l.3-1.8h1.3c.4,0,.6-.2.6-.6v-1.3c0-.4-.2-.6-.6-.6h-12.1c-.4,0-.6.2-.6.6v1.3c0,.4.2.6.6.6M80.9,50.2c0,2.6,2.1,3.7,7.2,3.7s7.2-1,7.2-3.7-1.7-3.4-5.8-3.6v-.3c0-.5.3-.8.9-.8,1.8,0,4.1,0,5.2-.2.5,0,.7-.3.7-.7v-1.2c0-.4-.3-.7-.7-.6-1.3.1-4.3.2-7.6.2s-5.7,0-7.5-.2c-.4,0-.7.2-.7.6v1.2c0,.4.2.6.7.7,1.7.1,3.9.2,6.6.2-.3.1-.5.5-.5.9v.2c-3.9.2-5.5,1.3-5.5,3.6M66,49.8c0-1,1-1.4,4.2-1.4s4.1.4,4.1,1.4-1,1.4-4.1,1.4-4.2-.4-4.2-1.4M73.8,40.9v3.4c0,.4.3.7.7.7h1.7c.4,0,.7-.3.7-.7v-8.8c0-.4-.3-.7-.7-.7h-1.7c-.4,0-.7.3-.7.7v2.1c0,.7-.4,1.1-1.1,1.1h-1c-.4,0-.7.2-.7.7v1.5c0,.4.2.7.7.7h.9c.6,0,1-.2,1.2-.6M68,34.4c0-.4-.2-.7-.7-.7h-1.7c-.4,0-.7.2-.7.7v.7c0,.3.1.5.3.6h-3c-.4,0-.7.3-.7.7v1.4c0,.4.3.7.7.7h2.8c0,2-1.2,3.1-2.9,3.1s-.7.2-.7.6v1.6c0,.4.2.7.7.7,2.1,0,3.9-.9,4.5-2.7.6,1.8,2.4,2.7,4.4,2.7s.7-.2.7-.7v-1.6c0-.4-.2-.6-.7-.6-1.7,0-2.9-1.1-2.9-3.1h2.6c.4,0,.7-.3.7-.7v-1.4c0-.4-.3-.7-.7-.7h-2.1c-.4,0-.6-.2-.6-.5v-.8ZM70.1,45.7c-4.8,0-7.2,1.3-7.2,4.1s2.4,4.1,7.2,4.1,7.2-1.3,7.2-4.1-2.4-4.1-7.2-4.1"/>
  <path class="cls-1" d="M223.1,19.3c-1.1,0-1.8.7-1.8,1.7s.5,1.5,1.4,1.7c-.1.2-.4.3-.9.4-.2,0-.3.1-.3.3v.5c0,.2.1.3.3.3,1.8,0,3.1-1.2,3.1-2.9s-.7-1.9-1.8-1.9M215.5,9.2v3.3c0,.4.3.7.7.7h1.7c.4,0,.7-.3.7-.7V4.1c0-.4-.3-.7-.7-.7h-1.7c-.4,0-.7.3-.7.7v1.8c0,.7-.4,1-1.1,1h-1c-.4,0-.7.2-.7.7v1.5c0,.4.2.7.7.7h.9c.6,0,1-.2,1.2-.6M209.3,13.3c1,0,2.5-.2,3.7-.6.5-.1.6-.4.5-.8l-.3-1.4c0-.4-.2-.5-.5-.5s-.2,0-.3,0c-.9.3-2.1.5-3,.5-2.2,0-2.9-.6-2.9-1.9s.9-1.9,3.2-1.9,1.7,0,2.5.2c.4,0,.7-.2.7-.6v-1.5c0-.4-.2-.6-.7-.7-.9-.1-1.9-.2-2.7-.2-4.1,0-6,1.5-6,4.7s1.8,4.7,5.9,4.7M211.9,14.4c-4.8,0-7.2,1.3-7.2,4.1s2.4,4.1,7.2,4.1,7.2-1.3,7.2-4.1-2.4-4.1-7.2-4.1M207.7,18.5c0-1,1-1.4,4.2-1.4s4.1.4,4.1,1.4-1,1.4-4.1,1.4-4.2-.4-4.2-1.4M191.7,8.4l-.3-2h3.5l-.3,1.9c-.5,0-.9,0-1.4,0h-1.4ZM193.3,20.1c-3.3,0-4.1-.2-4.1-1.1s.8-1.1,4.1-1.1,4.1.2,4.1,1.1-.8,1.1-4.1,1.1M187.1,6.4h1.3l.3,1.8c-.8,0-1.5,0-1.9-.1-.4,0-.6.1-.6.5v1.4c0,.4.1.5.5.6,1.2.1,3.6.3,6.4.3s5.3-.1,6.4-.3c.4,0,.5-.2.5-.6v-1.4c0-.4-.2-.5-.6-.5-.4,0-1.1,0-1.9.1l.3-1.8h1.3c.4,0,.6-.2.6-.6v-1.3c0-.4-.2-.6-.6-.6h-12.1c-.4,0-.6.2-.6.6v1.3c0,.4.2.6.6.6M186.1,18.9c0,2.6,2.1,3.7,7.2,3.7s7.2-1.1,7.2-3.7-1.7-3.4-5.8-3.6v-.3c0-.5.3-.8.9-.8,1.8,0,4.1,0,5.2-.2.5,0,.7-.3.7-.7v-1.2c0-.4-.3-.7-.7-.6-1.3.1-4.3.2-7.6.2s-5.7,0-7.5-.2c-.4,0-.7.2-.7.6v1.2c0,.4.2.6.7.7,1.7.1,3.9.2,6.6.2-.3.1-.5.5-.5.9v.2c-3.9.2-5.5,1.3-5.5,3.6M161,20.3c1.8.3,4.6.4,7.5.4s6.3-.1,7.6-.4c.5,0,.7-.3.7-.7v-1.6c0-.4-.3-.7-.7-.6-1.6.2-4.2.4-5.2.3-.6,0-.8-.2-.8-.8v-1.6c1.7,0,3.9-.3,5.2-.5.3,0,.5-.3.5-.7l-.3-1.6c0-.4-.3-.6-.6-.5-1.4.3-3.6.4-5.3.4-4.1,0-4.5-.1-4.5-.7s.2-.8,3.3-.8,4.6,0,6.1,0,.5-.3.5-.6v-1.4c0-.4-.2-.6-.5-.6h-.5c.8-.3,1.2-1.1,1.2-2.1s-.8-2-2.1-2c-.8,0-1.5,0-2.3,0-2.6,0-5.4.1-7.8.4-.4,0-.5.3-.5.6v1.6c0,.4.2.7.5.6,2.5-.3,6.5-.4,8.5-.4s.7.1.7.5-.2.6-.8.6h-3.1c-4.6,0-6.3.7-6.3,3.5s1,3.3,5,3.5v1.6c0,.4.1.7.4.9-2.3,0-4.9-.2-6.5-.4-.4,0-.7.2-.7.6v1.6c0,.4.2.6.7.7M142.3,17.6c-.4,0-.7.2-.7.6v1.6c0,.4.2.6.7.7,1.8.3,4.6.4,7.5.4s6.3-.1,7.6-.4c.5,0,.7-.3.7-.7v-1.6c0-.4-.3-.7-.7-.6-1.3.2-4.3.4-7.6.4s-5.7-.1-7.5-.4M150,7.2c2.8,0,3.8.8,3.8,2.6s-1.1,2.6-3.8,2.6-3.8-.8-3.8-2.6,1.1-2.6,3.8-2.6M150,15.3c4.5,0,6.9-1.9,6.9-5.5s-2.3-5.4-6.9-5.4-6.9,1.8-6.9,5.4,2.3,5.5,6.9,5.5M134,16c-4.1,0-6.9.1-9,.4-.4,0-.7.2-.7.7v1.5c0,.4.2.7.7.7,2.4-.2,5.2-.4,8.5-.4s1.6.5,1.6,1.5,0,.8-.1,1.3c0,.4.2.7.7.7h1.7c.4,0,.6-.2.7-.7,0-.4.1-.9.1-2,0-2.5-1.3-3.7-4.2-3.7M131.2,8.4c.9,1.7,3.3,3,6.1,2.8.5,0,.7-.3.7-.7v-1.6c0-.4-.2-.6-.7-.6-3,0-4.6-1.3-4.6-3.2v-.6c0-.4-.3-.7-.7-.7h-1.7c-.4,0-.7.3-.7.7v.6c0,1.9-1.6,3.2-4.6,3.2s-.7.2-.7.6v1.6c0,.4.2.6.7.7,2.8.1,5.2-1.1,6.1-2.8M130.1,12.7c-2.3,0-4.9,0-6.5-.2-.4,0-.7.2-.7.6v1.2c0,.4.2.6.7.7,1.8.1,4.6.2,7.5.2s6.3,0,7.6-.2c.5,0,.7-.3.7-.7v-1.2c0-.4-.3-.7-.7-.6-1.6.1-4.2.2-5.2.2-.5,0-.8-.3-.8-.7v-.8c0-.4-.2-.7-.7-.7h-1.7c-.4,0-.7.3-.7.7v.7c0,.3.2.6.5.7M106.7,13.2c-3.3,0-3.7-.4-3.7-1.1s.3-1,3.7-1,3.7.4,3.7,1-.3,1.1-3.7,1.1M105.3,3.9v.5c0,.3.1.5.3.6h-5.5c-.4,0-.7.2-.7.7v1.4c0,.4.2.7.7.7h13.1c.4,0,.7-.2.7-.7v-1.4c0-.4-.2-.7-.7-.7h-4.4c-.4,0-.6-.2-.6-.5v-.6c0-.4-.2-.7-.7-.7h-1.7c-.4,0-.7.2-.7.7M106.7,8.6c-5.1,0-6.7,1.1-6.7,3.5s1.2,3.3,5,3.6v1.2c0,.4.1.7.4.9-2.3,0-4.9-.2-6.5-.4-.4,0-.7.2-.7.6v1.6c0,.4.2.6.7.7,1.8.3,4.6.4,7.5.4s6.3-.1,7.6-.4c.5,0,.7-.3.7-.7v-1.6c0-.4-.3-.7-.7-.6-1.6.2-4.2.4-5.2.3-.6,0-.8-.2-.8-.8v-1.2c4-.2,5.3-1.3,5.3-3.6s-1.6-3.5-6.7-3.5M86.5,8.4l-.3-2h3.5l-.3,1.9c-.5,0-.9,0-1.4,0h-1.4ZM88,20.1c-3.3,0-4.1-.2-4.1-1.1s.8-1.1,4.1-1.1,4.1.2,4.1,1.1-.8,1.1-4.1,1.1M81.9,6.4h1.3l.3,1.8c-.8,0-1.5,0-1.9-.1-.4,0-.6.1-.6.5v1.4c0,.4.1.5.5.6,1.2.1,3.6.3,6.4.3s5.3-.1,6.4-.3c.4,0,.5-.2.5-.6v-1.4c0-.4-.2-.5-.6-.5-.4,0-1.1,0-1.9.1l.3-1.8h1.3c.4,0,.6-.2.6-.6v-1.3c0-.4-.2-.6-.6-.6h-12.1c-.4,0-.6.2-.6.6v1.3c0,.4.2.6.6.6M80.9,18.9c0,2.6,2.1,3.7,7.2,3.7s7.2-1.1,7.2-3.7-1.7-3.4-5.8-3.6v-.3c0-.5.3-.8.9-.8,1.8,0,4.1,0,5.2-.2.5,0,.7-.3.7-.7v-1.2c0-.4-.3-.7-.7-.6-1.3.1-4.3.2-7.6.2s-5.7,0-7.5-.2c-.4,0-.7.2-.7.6v1.2c0,.4.2.6.7.7,1.7.1,3.9.2,6.6.2-.3.1-.5.5-.5.9v.2c-3.9.2-5.5,1.3-5.5,3.6M66,18.5c0-1,1-1.4,4.2-1.4s4.1.4,4.1,1.4-1,1.4-4.1,1.4-4.2-.4-4.2-1.4M73.8,9.6v3.4c0,.4.3.7.7.7h1.7c.4,0,.7-.3.7-.7V4.1c0-.4-.3-.7-.7-.7h-1.7c-.4,0-.7.3-.7.7v2.1c0,.7-.4,1-1.1,1h-1c-.4,0-.7.2-.7.7v1.5c0,.4.2.7.7.7h.9c.6,0,1-.2,1.2-.6M68,3.2c0-.4-.2-.7-.7-.7h-1.7c-.4,0-.7.2-.7.7v.7c0,.3.1.5.3.6h-3c-.4,0-.7.3-.7.7v1.4c0,.4.3.7.7.7h2.8c0,2-1.2,3.1-2.9,3.1s-.7.2-.7.6v1.6c0,.4.2.7.7.7,2.1,0,3.9-.9,4.5-2.7.6,1.8,2.4,2.7,4.4,2.7s.7-.2.7-.7v-1.6c0-.4-.2-.6-.7-.6-1.7,0-2.9-1.1-2.9-3.1h2.6c.4,0,.7-.3.7-.7v-1.4c0-.4-.3-.7-.7-.7h-2.1c-.4,0-.6-.2-.6-.5v-.8ZM70.1,14.4c-4.8,0-7.2,1.3-7.2,4.1s2.4,4.1,7.2,4.1,7.2-1.3,7.2-4.1-2.4-4.1-7.2-4.1"/>
  <path class="cls-2" d="M24.9,49.1c13.3,0,24-10.7,24-24S38.2,1.1,24.9,1.1.9,11.9.9,25.1s10.7,24,24,24"/>
  <path class="cls-3" d="M27.8,23.5c1.6-.9,2.1-2.7,2.1-4.4,0-4.2-2.8-6.2-8.1-6.4-.9,0-1.7,0-2.6,0,0,1.1,0,3.4,0,4.4h2c2.6,0,3.8.7,3.8,2.1s-.9,2.4-3.6,2.4-1.1,0-1.6,0c0,1.3,0,3.3,0,4.2.5,0,1,0,1.7,0,3.3,0,4.6.9,4.6,2.6s-1.3,2.7-4.5,2.7h-2.8c0,1.1,0,3.5,0,4.6,1,0,2.5,0,3.4,0,6,0,8.8-2.7,8.8-7s-1-4.5-3.3-5.6"/>
</svg>