<?xml version="1.0" encoding="UTF-8"?>
<svg id="_레이어_1" data-name="레이어 1" xmlns="http://www.w3.org/2000/svg" version="1.1" viewBox="0 0 170 45">
  <defs>
    <style>
      .cls-1 {
        fill: #fd6e4a;
      }

      .cls-1, .cls-2 {
        stroke-width: 0px;
      }

      .cls-2 {
        fill: #b2ff72;
      }
    </style>
  </defs>
  <path class="cls-2" d="M85,43.5c46.4,0,84-9.4,84-21S131.4,1.5,85,1.5,1,10.9,1,22.5s37.6,21,84,21"/>
  <path class="cls-1" d="M99.4,23c0-3.3,1.3-4.8,3.6-4.8s3.6,1.5,3.6,4.8-1.3,4.8-3.6,4.8-3.6-1.5-3.6-4.8M96.9,23c0,4.9,2.2,7.3,6.2,7.3s6.2-2.4,6.2-7.3-2.2-7.3-6.2-7.3-6.2,2.4-6.2,7.3M86.2,15.9c-.7,0-1,.4-1,1v12.5c0,.4.2.6.6.6h1.4c.4,0,.6-.2.6-.6v-4.7h6.5c.4,0,.6-.2.6-.6v-1.3c0-.4-.2-.6-.6-.6h-6.5v-3.8h6.9c.4,0,.6-.2.6-.6v-1.3c0-.4-.2-.6-.6-.6h-8.5ZM75.2,16.5c-.2-.4-.5-.6-1-.6h-1.3c-.7,0-1,.4-1,1v12.5c0,.4.2.6.6.6h1.4c.4,0,.6-.2.6-.6v-9.2l4.8,9.1c.2.4.5.6,1,.6h1.7c.7,0,1-.4,1-1v-12.5c0-.4-.2-.6-.6-.6h-1.4c-.4,0-.6.2-.6.6v10.2l-5.2-10.2ZM68.6,15.9h-6.6c-.4,0-.6.2-.6.6v1.3c0,.4.2.6.6.6h2v9.1h-2.3c-.4,0-.6.2-.6.6v1.3c0,.4.2.6.6.6h7.2c.4,0,.6-.2.6-.6v-1.3c0-.4-.2-.6-.6-.6h-2.3v-9.1h2c.4,0,.6-.2.6-.6v-1.3c0-.4-.2-.6-.6-.6"/>
</svg>