<?xml version="1.0" encoding="UTF-8"?>
<svg id="_레이어_1" data-name="레이어 1" xmlns="http://www.w3.org/2000/svg" version="1.1" viewBox="0 0 335 55">
  <defs>
    <style>
      .cls-1 {
        fill: #000;
      }

      .cls-1, .cls-2, .cls-3 {
        stroke-width: 0px;
      }

      .cls-2 {
        fill: #006d3c;
      }

      .cls-3 {
        fill: #b2ff72;
      }
    </style>
  </defs>
  <path class="cls-2" d="M135.6,48.9c-.4,0-.7.2-.7.6v1.6c0,.4.2.6.7.7,1.8.3,4.6.4,7.5.4s6.3-.1,7.6-.4c.5,0,.7-.3.7-.7v-1.6c0-.4-.3-.7-.7-.6-1.3.2-4.3.4-7.6.4s-5.7-.1-7.5-.4M148.9,39.6c-1.8-.2-3.3-.2-5.4-.2-5.5,0-7.2,1-7.2,3.7s1.6,3.7,6.9,3.7,2.8-.1,6-.4c.5,0,.7-.3.7-.7v-1.3c-.1-.5-.4-.7-.8-.7-2,.2-4.6.4-6.2.4-3,0-3.5-.3-3.5-1.1s.7-1.1,4.1-1.1,3.5.1,5.5.2c.4,0,.7-.2.7-.7v-1.3c0-.4-.2-.6-.7-.7M137.2,35.8c-.4,0-.7.3-.7.7v1.2c0,.4.3.7.7.7h11.7c.4,0,.7-.3.7-.7v-1.2c0-.4-.3-.7-.7-.7h-11.7ZM116.9,51.5c1.8.3,4.6.4,7.5.4s6.3-.1,7.6-.4c.5,0,.7-.3.7-.7v-1.6c0-.4-.3-.7-.7-.6-1.4.2-3.5.3-4.7.3s-1.3,0-1.3-.9v-1.7c0-.4-.2-.7-.7-.7h-1.7c-.4,0-.7.3-.7.7v1.6c0,.5.3.9.7,1.1-2.4,0-5.1-.2-6.7-.4-.4,0-.7.2-.7.6v1.6c0,.4.2.6.7.7M130.3,35.8h-11.6c-.4,0-.7.3-.7.7v1.4c0,.4.3.7.7.7h4.3v.9c0,2.5-1.6,3.9-4.6,3.9s-.7.2-.7.6v1.6c0,.6.4.7.8.7,2.9,0,5.1-1.2,5.9-3.3.8,2.1,3,3.3,6,3.3s.8,0,.8-.7v-1.6c0-.4-.2-.6-.7-.6-3,0-4.6-1.4-4.6-3.9v-.9h4.2c.4,0,.7-.3.7-.7v-1.4c0-.4-.3-.7-.7-.7M110.3,35.4v17.4c0,.4.3.7.7.7h1.7c.4,0,.7-.3.7-.7v-17.4c0-.4-.3-.7-.7-.7h-1.7c-.4,0-.7.3-.7.7M104.1,36c-2.1,0-3.2,0-4.6.3-.4,0-.6.3-.6.7v1.7c0,.4.2.6.7.5,1.4-.2,2.5-.3,3.6-.3s1.8.4,1.8,1.5-.5,1.4-1.7,1.4c-3.3,0-5,1.6-5,4.5s1.7,4.5,5.1,4.5,3.2-.3,4.7-.8c.5-.2.7-.4.5-.8l-.4-1.5c-.1-.4-.3-.5-.5-.5s-.2,0-.3,0c-1.2.5-2.5.7-3.6.7-1.8,0-2.5-.5-2.5-1.7s.7-1.7,3.1-1.7,1.6,0,2.8,0,.6-.2.6-.6v-1.4c0-.4-.2-.6-.6-.6h-.5c.8-.7,1.3-1.6,1.3-2.9,0-2.1-1.3-3.2-3.9-3.2M86.5,39.6l-.3-2h3.5l-.3,1.9c-.5,0-.9,0-1.4,0h-1.4ZM88,51.3c-3.3,0-4.1-.2-4.1-1.1s.8-1.1,4.1-1.1,4.1.2,4.1,1.1-.8,1.1-4.1,1.1M81.9,37.7h1.3l.3,1.8c-.8,0-1.5,0-1.9-.1-.4,0-.6.1-.6.5v1.4c0,.4.1.5.5.6,1.2.1,3.6.3,6.4.3s5.3-.1,6.4-.3c.4,0,.5-.2.5-.6v-1.4c0-.4-.2-.5-.6-.5-.4,0-1.1,0-1.9.1l.3-1.8h1.3c.4,0,.6-.2.6-.6v-1.3c0-.4-.2-.6-.6-.6h-12.1c-.4,0-.6.2-.6.6v1.3c0,.4.2.6.6.6M80.9,50.2c0,2.6,2.1,3.7,7.2,3.7s7.2-1,7.2-3.7-1.7-3.4-5.8-3.6v-.3c0-.5.3-.8.9-.8,1.8,0,4.1,0,5.2-.2.5,0,.7-.3.7-.7v-1.2c0-.4-.3-.7-.7-.6-1.3.1-4.3.2-7.6.2s-5.7,0-7.5-.2c-.4,0-.7.2-.7.6v1.2c0,.4.2.6.7.7,1.7.1,3.9.2,6.6.2-.3.1-.5.5-.5.9v.2c-3.9.2-5.5,1.3-5.5,3.6M66,49.8c0-1,1-1.4,4.2-1.4s4.1.4,4.1,1.4-1,1.4-4.1,1.4-4.2-.4-4.2-1.4M73.8,40.9v3.4c0,.4.3.7.7.7h1.7c.4,0,.7-.3.7-.7v-8.8c0-.4-.3-.7-.7-.7h-1.7c-.4,0-.7.3-.7.7v2.1c0,.7-.4,1-1.1,1h-1c-.4,0-.7.2-.7.7v1.5c0,.4.2.7.7.7h.9c.6,0,1-.2,1.2-.6M68,34.4c0-.4-.2-.7-.7-.7h-1.7c-.4,0-.7.2-.7.7v.7c0,.3.1.5.3.6h-3c-.4,0-.7.3-.7.7v1.4c0,.4.3.7.7.7h2.8c0,2-1.2,3.1-2.9,3.1s-.7.2-.7.6v1.6c0,.4.2.7.7.7,2.1,0,3.9-.9,4.5-2.7.6,1.8,2.4,2.7,4.4,2.7s.7-.2.7-.7v-1.6c0-.4-.2-.6-.7-.6-1.7,0-2.9-1.1-2.9-3.1h2.6c.4,0,.7-.3.7-.7v-1.4c0-.4-.3-.7-.7-.7h-2.1c-.4,0-.6-.2-.6-.5v-.8ZM70.1,45.7c-4.8,0-7.2,1.3-7.2,4.1s2.4,4.1,7.2,4.1,7.2-1.3,7.2-4.1-2.4-4.1-7.2-4.1"/>
  <path class="cls-1" d="M149.9,11.7c.8,1.9,2.9,3.3,5.7,3.3s1,0,1-.7v-1.6c0-.4-.2-.6-.7-.6-3,0-4.6-1.7-4.6-4v-2.9c0-.4-.3-.7-.7-.7h-1.7c-.4,0-.7.3-.7.7v2.9c0,2.3-1.6,4-4.6,4s-.7.2-.7.6v1.6c0,.7.6.7,1,.7,2.8,0,4.9-1.4,5.8-3.3M142.3,20.3c1.8.3,4.6.4,7.5.4s6.3-.1,7.6-.4c.5,0,.7-.3.7-.7v-1.6c0-.4-.3-.7-.7-.6-1.4.2-3.5.3-4.7.3s-1.3,0-1.3-.9v-1.7c0-.4-.2-.7-.7-.7h-1.7c-.4,0-.7.3-.7.7v1.6c0,.5.3.9.7,1.1-2.4,0-5.1-.2-6.7-.4-.4,0-.7.2-.7.6v1.6c0,.4.2.6.7.7M131.2,8.4c.9,1.7,3.3,3,6.1,2.8.5,0,.7-.3.7-.7v-1.6c0-.4-.2-.6-.7-.6-3,0-4.6-1.3-4.6-3.2v-.6c0-.4-.3-.7-.7-.7h-1.7c-.4,0-.7.3-.7.7v.6c0,1.9-1.6,3.2-4.6,3.2s-.7.2-.7.6v1.6c0,.4.2.6.7.7,2.8.1,5.2-1.1,6.1-2.8M134,16h-1.3v-.4c0-.4.3-.7.8-.7,1.9,0,4.2,0,5.3-.2.5,0,.7-.3.7-.7v-1.2c0-.4-.3-.7-.7-.6-1.3.1-4.3.2-7.6.2s-5.7,0-7.5-.2c-.4,0-.7.2-.7.6v1.2c0,.4.2.6.7.7,1.7.1,4.3.2,6.5.1-.3.1-.4.4-.4.7v.4c-1.9,0-3.4.2-4.6.3-.4,0-.7.2-.7.7v1.5c0,.4.2.7.7.7,2.4-.2,5.2-.4,8.5-.4s1.6.5,1.6,1.5,0,.8-.1,1.3c0,.4.2.7.7.7h1.7c.4,0,.6-.2.7-.7,0-.4.1-.9.1-2,0-2.5-1.3-3.7-4.2-3.7M103.5,18.3h7.4v.9c0,.4-.3.6-.7.6h-6c-.4,0-.6-.2-.7-.6v-.9ZM111.2,4.1v8.2c0,.4.3.7.7.7h1.7c.4,0,.7-.3.7-.7V4.1c0-.4-.3-.7-.7-.7h-1.7c-.4,0-.7.3-.7.7M108.2,3.9h-8.6c-.4,0-.7.3-.7.7v1.4c0,.4.3.7.7.7h2.8v.2c0,2-1.2,3.1-2.9,3.1s-.7.2-.7.6v1.6c0,.4.2.7.7.7,2.1,0,3.9-.9,4.5-2.6.6,1.7,2.4,2.6,4.4,2.6s.7-.2.7-.7v-1.6c0-.4-.2-.6-.7-.6-1.7,0-2.9-1.1-2.9-3.1v-.2h2.8c.4,0,.7-.3.7-.7v-1.4c0-.4-.3-.7-.7-.7M103.4,22.4h7.7c1.7,0,2.7-.8,2.8-2.3l.3-5.2c0-.4-.3-.7-.7-.7h-1.7c-.4,0-.7.2-.7.7v.8h-7.8v-.8c0-.5-.3-.7-.7-.7h-1.7c-.4,0-.7.3-.7.7l.3,5.2c0,1.5,1.1,2.3,2.8,2.3M88.5,19.1c.9,1.9,3.3,3.3,5.9,3.3s1,0,1-.7v-1.6c0-.4-.2-.6-.7-.6-2.5,0-4.7-1.6-4.7-3.5v-.4c0-.4-.3-.7-.7-.7h-1.7c-.4,0-.7.3-.7.7v.4c0,1.9-2.1,3.5-4.7,3.5s-.7.2-.7.6v1.6c0,.6.5.7,1,.7,2.5,0,4.9-1.4,5.9-3.3M95.1,14.4v-2.9c0-.7.5-1.2,1.2-1.2h.8c.4,0,.7-.2.7-.7v-1.5c0-.4-.2-.7-.7-.7h-.7c-.6,0-1.1.2-1.3.6v-4c0-.4-.3-.7-.7-.7h-1.7c-.4,0-.7.3-.7.7v10.3c0,.4.3.7.7.7h1.7c.4,0,.7-.3.7-.7M83.2,13.5h6.1c.4,0,.7-.2.7-.7v-1.3c0-.4-.2-.7-.7-.7h-1.3c1.3-.6,2.1-2.2,2.1-3.9s-1.2-3.1-3.1-3.1h-5.3c-.8,0-1.2.4-1.2,1.2v6c0,1.5,1,2.4,2.8,2.4M84.4,10.8c-.6,0-1-.3-1-.8v-2.7c0-.4.2-.7.7-.7h1.4c1,0,1.6.7,1.6,1.8s-.7,2.4-1.8,2.4h-.9ZM73.7,12.9c1.7,0,2.7-.8,2.8-2.4l.3-6c0-.4-.2-.7-.7-.7h-1.7c-.5,0-.7.2-.7.6v1h-7.3v-1c0-.4-.3-.6-.8-.6h-1.7c-.4,0-.7.3-.7.7l.3,6c0,1.6,1,2.4,2.8,2.4h7.4ZM76,17.3c.5,0,1.1-.1,1.6-.2.5,0,.7-.3.7-.7v-1.6c0-.4-.3-.7-.7-.6-1.3.2-4.3.4-7.6.4s-5.7-.1-7.5-.4c-.4,0-.7.2-.7.6v1.6c0,.4.2.6.7.7.8.1,1.8.2,2.9.3-.4.2-.6.6-.6,1.1v2.3c0,.4.3.7.7.7h1.7c.4,0,.7-.3.7-.7v-2.5c0-.6.3-.9.9-.9s2.7,0,4,0c-.4.2-.6.6-.6,1.1v2.3c0,.4.3.7.7.7h1.7c.4,0,.7-.3.7-.7v-2.7c0-.6.3-.8.9-.9M66.5,8.3h7v1.1c0,.5-.3.7-.8.7h-5.3c-.5,0-.8-.2-.8-.7v-1.1Z"/>
  <path class="cls-2" d="M24.9,49.1c13.3,0,24-10.7,24-24S38.2,1.1,24.9,1.1.9,11.9.9,25.1s10.7,24,24,24"/>
  <path class="cls-3" d="M22.5,31.4c-.8,0-2.6,0-3.5,0,0,1.1,0,3.5,0,4.6,1,0,3.2,0,4,0,5.3-.2,8.1-2.6,8.1-7.1s-3-7.2-7.5-7c0-1.3,0-3.2,0-4.4,2.2,0,4.2,0,6,0,0-1.3,0-3.5,0-4.6-1.8-.1-8.5-.1-11,0-.1,1.4,0,11.9,0,13.3,1.1,0,2.7,0,3.9,0,2.5,0,3.7,1,3.7,2.7s-1.2,2.5-3.7,2.6"/>
</svg>