<?xml version="1.0" encoding="UTF-8"?>
<svg id="_레이어_1" data-name="레이어 1" xmlns="http://www.w3.org/2000/svg" version="1.1" viewBox="0 0 15 15">
  <defs>
    <style>
      .cls-1 {
        fill: none;
      }

      .cls-1, .cls-2, .cls-3 {
        stroke-width: 0px;
      }

      .cls-2 {
        fill: #241f21;
      }

      .cls-3 {
        fill: #fff;
      }
    </style>
  </defs>
  <g>
    <path class="cls-2" d="M.5,7.5C.5,3.6,3.6.5,7.5.5s7,3.1,7,7-3.1,7-7,7S.5,11.4.5,7.5"/>
    <path class="cls-3" d="M8.7,6.5c-.4,0-.8,0-1.2,0s-.8,0-1.2,0c0,.3,0,.6,0,1s0,.7,0,1c.8,0,1.6,0,2.4,0,0-.3,0-.6,0-1s0-.7,0-1"/>
    <path class="cls-3" d="M8.7,8.9c-.8,0-1.5,0-2.3,0,0,.5.2,1,.3,1.3.2.6.5,1,.8,1s.6-.4.8-1c.1-.4.3-.8.3-1.3"/>
    <path class="cls-3" d="M11.2,6.3h0c-.6.1-1.3.2-1.9.2,0,.3,0,.7,0,1s0,.7,0,1c.6,0,1.3.1,1.9.2h0c.1-.4.2-.8.2-1.2s0-.8-.2-1.2"/>
    <path class="cls-3" d="M6.3,6.1c.8,0,1.5,0,2.3,0,0-.5-.2-1-.3-1.3-.2-.6-.5-1-.8-1s-.6.4-.8,1c-.1.4-.3.8-.3,1.3"/>
    <path class="cls-3" d="M3.9,8.7c.6-.1,1.3-.2,1.9-.2,0-.3,0-.7,0-1s0-.7,0-1c-.6,0-1.3-.1-1.9-.2h0c-.1.4-.2.8-.2,1.2s0,.8.2,1.2h0Z"/>
    <path class="cls-3" d="M8.8,4.6c.2.4.3.9.4,1.5.6,0,1.3-.1,1.9-.2-.5-1.1-1.5-1.9-2.8-2.2.2.2.3.5.5.9"/>
    <path class="cls-3" d="M9.1,9c0,.5-.2,1-.4,1.5-.1.4-.3.7-.5.9,1.2-.2,2.2-1.1,2.8-2.2-.6,0-1.3-.2-1.9-.2"/>
    <path class="cls-3" d="M6.2,10.4c-.2-.4-.3-.9-.4-1.5-.6,0-1.3.1-1.9.2.5,1.1,1.5,1.9,2.8,2.2-.2-.2-.4-.5-.5-.9"/>
    <path class="cls-3" d="M5.9,6c0-.5.2-1,.4-1.5.1-.4.3-.7.5-.9-1.2.2-2.2,1.1-2.8,2.2.6,0,1.3.2,1.9.2"/>
  </g>
  <rect class="cls-1" x="-805" y="-7783.5" width="1920" height="14608"/>
  <rect class="cls-1" x="-805" y="-7783.5" width="1920" height="14608"/>
  <rect class="cls-1" x="-805" y="-7783.5" width="1920" height="14608"/>
  <rect class="cls-1" x="-805" y="-7783.5" width="1920" height="14608"/>
</svg>