<?xml version="1.0" encoding="UTF-8"?>
<svg id="_레이어_1" data-name="레이어 1" xmlns="http://www.w3.org/2000/svg" version="1.1" viewBox="0 0 15 15">
  <defs>
    <style>
      .cls-1 {
        fill: none;
      }

      .cls-1, .cls-2, .cls-3 {
        stroke-width: 0px;
      }

      .cls-2 {
        fill: #241f21;
      }

      .cls-3 {
        fill: #fff;
      }
    </style>
  </defs>
  <rect class="cls-1" x="-805" y="-7783.5" width="1920" height="14608"/>
  <g>
    <path class="cls-2" d="M.5,7.5C.5,3.6,3.6.5,7.5.5s7,3.1,7,7-3.1,7-7,7S.5,11.4.5,7.5"/>
    <path class="cls-3" d="M8.2,8.8l-.6.4-1.9-2.6.6-.4c.2-.1.2-.3.1-.5l-.8-1.6c-.1-.2-.4-.3-.6-.1-1.1.8-1.4,2.3-.6,3.4l2,2.8c.8,1.1,2.3,1.4,3.4.6.2-.1.2-.4,0-.6l-1.3-1.3c-.1-.1-.4-.2-.5,0"/>
    <path class="cls-3" d="M10.7,8s0,0,0,0c-.1,0-.2-.1-.2-.3.2-.8,0-1.6-.4-2.2-.4-.7-1.1-1.1-1.9-1.3-.1,0-.2-.1-.2-.3,0-.1.1-.2.3-.2,1.8.4,3,2.2,2.6,4,0,.1-.1.2-.2.2"/>
    <path class="cls-3" d="M9.6,7.7s0,0,0,0c-.1,0-.2-.1-.2-.3.2-.8-.4-1.7-1.2-1.9-.1,0-.2-.1-.2-.3,0-.1.1-.2.3-.2,1.1.2,1.8,1.3,1.5,2.4,0,.1-.1.2-.2.2"/>
  </g>
  <rect class="cls-1" x="-805" y="-7783.5" width="1920" height="14608"/>
  <rect class="cls-1" x="-805" y="-7783.5" width="1920" height="14608"/>
  <rect class="cls-1" x="-805" y="-7783.5" width="1920" height="14608"/>
</svg>