<?xml version="1.0" encoding="UTF-8"?>
<svg id="_레이어_1" data-name="레이어 1" xmlns="http://www.w3.org/2000/svg" version="1.1" viewBox="0 0 335 55">
  <defs>
    <style>
      .cls-1 {
        fill: #fd6e4a;
      }

      .cls-1, .cls-2, .cls-3 {
        stroke-width: 0px;
      }

      .cls-2 {
        fill: #000;
      }

      .cls-3 {
        fill: #b2ff72;
      }
    </style>
  </defs>
  <g>
    <path class="cls-1" d="M246,35c-4.9,0-6.9.9-6.9,3.3s2,3.3,6.9,3.3,6.9-.9,6.9-3.3-2-3.3-6.9-3.3M245.8,42.3c-2.9,0-5.8,0-7.6-.2-.4,0-.7.1-.7.6v1.1c0,.4.2.6.7.6,1.8.1,4.6.2,7.6.2s6.3,0,7.6-.2c.5,0,.7-.3.7-.6v-1.1c0-.4-.2-.6-.7-.6-1.3.1-4.3.2-7.6.2M252.1,50.6c.3,0,.5-.2.5-.5v-1.1c0-.3-.2-.5-.5-.5h-.5c.8-.3,1.2-.8,1.2-1.7s-.8-1.5-2.1-1.5c-3.3-.1-7.6,0-10.8.3-.4,0-.5.2-.5.5v1.2c0,.3.2.5.5.5,2.5-.2,7.1-.4,9.1-.4s.7.1.7.4-.2.4-.8.4c-.9,0-2.2,0-3.4,0-4.6,0-6.6.5-6.6,2.7s1.8,2.8,7.9,2.8,4.4-.2,5.9-.4c.3,0,.5-.3.5-.5v-1.2c-.1-.3-.4-.5-.7-.4-1.4.3-4,.4-5.7.4-4.1,0-4.8,0-4.8-.5s.5-.6,3.6-.6,4.9,0,6.4,0M242.1,38.3c0-.8.8-1,3.8-1s3.8.2,3.8,1-.9,1-3.8,1-3.8-.2-3.8-1M233.5,52.8v-6.9c0-.7.5-1.2,1.2-1.2h.8c.4,0,.7-.2.7-.7v-1.6c0-.4-.2-.7-.7-.7h-.7c-.6,0-1.1.2-1.3.6v-7c0-.4-.3-.7-.7-.7h-1.7c-.4,0-.7.3-.7.7v17.4c0,.4.3.7.7.7h1.7c.4,0,.7-.3.7-.7M221.6,50.7h6.1c.4,0,.7-.2.7-.7v-1.3c0-.4-.2-.7-.7-.7h-1.5c1.4-1.1,2.3-3.6,2.3-6.7s-1.2-5.3-4.2-5.3h-4.3c-.8,0-1.2.4-1.2,1.2v11.1c0,1.5,1,2.4,2.7,2.4M221.8,47v-7.5c0-.4.2-.7.7-.7h.9c1.5,0,2.1,1.2,2.1,4.4s-.8,4.5-2.2,4.5h-.5c-.6,0-.9-.3-.9-.8M214.8,52.8v-6.9c0-.7.5-1.2,1.2-1.2h.8c.4,0,.7-.2.7-.7v-1.6c0-.4-.2-.7-.7-.7h-.7c-.6,0-1.1.2-1.3.6v-7c0-.4-.3-.7-.7-.7h-1.7c-.4,0-.7.3-.7.7v17.4c0,.4.3.7.7.7h1.7c.4,0,.7-.3.7-.7M206.5,34.8c0-.4-.2-.7-.7-.7h-1.7c-.4,0-.7.2-.7.7v1c0,.3.1.5.3.6h-3.1c-.4,0-.7.3-.7.7v1.4c0,.4.3.7.7.7h2.8v4.4c0,2.2-1.3,3.9-2.9,4.1-.5,0-.7.3-.7.7v1.6c0,.4.3.7.7.6,2.1-.3,3.9-1.6,4.5-3.4.5,1.8,2.3,3.1,4.4,3.4.4,0,.7-.2.7-.6v-1.6c0-.4-.2-.6-.7-.7-1.6-.2-2.9-2-2.9-4.1v-4.4h2.8c.4,0,.7-.3.7-.7v-1.4c0-.4-.3-.7-.7-.7h-2.2c-.4,0-.6-.2-.6-.5v-1.1ZM194.3,35.4v17.4c0,.4.3.7.7.7h1.7c.4,0,.7-.3.7-.7v-17.4c0-.4-.3-.7-.7-.7h-1.7c-.4,0-.7.3-.7.7M188.1,50c0,.4.2.7.7.7h1.7c.4,0,.6-.1.7-.6.6-3.1.8-6,.8-9.4s-1.2-4.6-4.2-4.6-2.7,0-4.8.4c-.5,0-.7.3-.7.7v1.5c0,.4.3.7.7.7,1.4-.1,2.5-.4,4.3-.4s1.6.6,1.6,2.1c0,2.9-.2,5.5-.8,9M162,50.2c0-.9.8-1.1,4.1-1.1s4.1.2,4.1,1.1-.8,1.1-4.1,1.1-4.1-.2-4.1-1.1M166.2,46.5c-5.1,0-7.2,1-7.2,3.7s2.1,3.7,7.2,3.7,7.2-1.1,7.2-3.7-2.1-3.7-7.2-3.7M172.3,36c0-.4-.2-.6-.7-.7-2.3-.2-3.9-.2-5.4-.2-5.3,0-7.2.9-7.2,3.5s1.5,3.3,5.4,3.5v.5c0,.3.2.6.5.7-2.3,0-4.9,0-6.5-.2-.4,0-.7.2-.7.6v1.2c0,.4.2.6.7.7,1.8.1,4.6.2,7.5.2s6.3,0,7.6-.2c.5,0,.7-.3.7-.7v-1.2c0-.4-.3-.7-.7-.6-1.6.1-4.2.2-5.2.2-.5,0-.8-.3-.8-.7v-.5c1.4,0,3-.2,4.4-.3.5,0,.7-.3.7-.7v-1.3c-.1-.5-.4-.7-.8-.7-2.4.3-4.8.4-6.2.4-2.9,0-3.5-.2-3.5-.9s.9-.9,4.1-.9,3.5.1,5.5.2c.4,0,.7-.2.7-.7v-1.3ZM151.9,41.3v5.5c0,.4.3.7.7.7h1.7c.4,0,.7-.3.7-.7v-11.3c0-.4-.3-.7-.7-.7h-1.7c-.4,0-.7.3-.7.7v2.6c0,.7-.4,1.1-1.1,1.1h-1c-.4,0-.7.2-.7.7v1.5c0,.4.2.7.7.7h.9c.6,0,1-.2,1.2-.6M146.5,53.8c3.7,0,6.3-.1,8.4-.4.4,0,.7-.2.7-.7v-1.5c-.1-.4-.3-.7-.8-.7-2.2.2-5,.4-7.9.4s-2.4-.6-2.4-1.8,0-.9.1-1.6c0-.4-.3-.7-.7-.7h-1.7c-.4,0-.6.3-.7.7,0,.5-.1,1-.1,2,0,2.6,1.8,4.2,5,4.2M146.1,35.2v-.8c0-.4-.2-.7-.7-.7h-1.7c-.4,0-.7.2-.7.7v.7c0,.3.1.5.3.6h-3c-.4,0-.7.3-.7.7v1.4c0,.4.3.7.7.7h2.8v.8c0,2-1.2,3.2-2.9,3.2s-.7.2-.7.6v1.6c0,.4.2.7.7.7,2.1,0,3.9-.9,4.5-2.7.6,1.8,2.4,2.7,4.4,2.7s.7-.2.7-.7v-1.6c0-.4-.2-.6-.7-.6-1.7,0-2.9-1.2-2.9-3.2v-.8h2.6c.4,0,.7-.3.7-.7v-1.4c0-.4-.3-.7-.7-.7h-2.1c-.4,0-.6-.2-.6-.5M134.1,35.5c0,.6-.1.8-.8.8h-.9c-.4,0-.7.2-.7.7v1.4c0,.4.2.7.7.7h.6c.5,0,.9-.1,1.1-.5v1.2c0,.5-.2.8-.8.8h-.9c-.4,0-.7.2-.7.7v1.4c0,.4.2.7.7.7h.6c.5,0,.9-.1,1.1-.5v1.3c0,.4.3.7.7.7h1.7c.4,0,.7-.3.7-.7v-8.8c0-.4-.3-.7-.7-.7h-1.7c-.4,0-.7.3-.7.7h0ZM131.5,39.8c0-2.9-1.8-4.8-4.8-4.8s-4.8,1.8-4.8,4.8,1.8,4.8,4.8,4.8,4.8-1.9,4.8-4.8M123,49.8c0,2.8,2.4,4.1,7.2,4.1s7.2-1.3,7.2-4.1-2.4-4.1-7.2-4.1-7.2,1.3-7.2,4.1M124.8,39.8c0-1.3.6-2.1,1.8-2.1s1.8.8,1.8,2.1-.7,2.1-1.8,2.1-1.8-.8-1.8-2.1M130.2,51.1c-3.1,0-4.2-.4-4.2-1.4s1-1.4,4.2-1.4,4.1.4,4.1,1.4-1,1.4-4.1,1.4M103.4,44.1c-1.2,0-1.9-1.2-1.9-2.9s.7-2.9,1.9-2.9,1.9,1.2,1.9,2.9-.7,2.9-1.9,2.9M98.5,41.1c0,3.5,1.9,5.8,4.9,5.8s4.9-2.2,4.9-5.8-1.8-5.8-4.9-5.8-4.9,2.2-4.9,5.8M113.4,52.8v-17.4c0-.4-.3-.7-.7-.7h-1.7c-.4,0-.7.3-.7.7v17.4c0,.4.3.7.7.7h1.7c.4,0,.7-.3.7-.7M97.6,49.7v1.6c0,.4.2.6.7.7,1.4.2,2.8.3,5.1.3s4.4-.1,5.2-.3c.5-.1.7-.3.7-.7v-1.6c0-.4-.3-.7-.7-.6-.9.2-3.2.3-5.2.3s-3.7-.1-5.1-.3c-.4,0-.7.2-.7.6M91.3,46.3c-4.1,0-6.9.1-9,.4-.4,0-.7.2-.7.7v1.5c0,.4.2.7.7.7,2.4-.2,5.2-.4,8.5-.4s1.6.5,1.6,1.5,0,1.6-.1,2.3c0,.4.2.7.7.7h1.7c.4,0,.6-.2.7-.7,0-.5.1-1.7.1-3,0-2.5-1.3-3.7-4.2-3.7M92.5,40.5v3.7c0,.4.3.7.7.7h1.7c.4,0,.7-.3.7-.7v-8.8c0-.4-.3-.7-.7-.7h-1.7c-.4,0-.7.3-.7.7v1.8c0,.7-.4,1-1.1,1h-.5c-.4,0-.7.2-.7.7v1.5c0,.4.2.7.7.7h.4c.6,0,1-.2,1.2-.6M89.9,40c0-3.1-1.7-5-4.8-5s-4.8,1.9-4.8,5,1.8,5,4.8,5,4.8-1.9,4.8-5M83.2,40c0-1.4.6-2.3,1.8-2.3s1.8.8,1.8,2.3-.6,2.3-1.8,2.3-1.8-.8-1.8-2.3M71.6,49.6c0-.6.3-.9.9-.9,2.1,0,4.1-.2,5.1-.3.5,0,.7-.3.7-.7v-1.6c0-.4-.3-.7-.7-.6-1.3.2-4.3.4-7.6.4s-5.7-.1-7.5-.4c-.4,0-.7.2-.7.6v1.6c0,.4.2.6.7.7,1.6.2,4.1.3,6.7.4-.4.2-.6.6-.6,1v2.4c0,.4.3.7.7.7h1.7c.4,0,.7-.3.7-.7v-2.5ZM71.7,35.1v-.8c0-.4-.2-.7-.7-.7h-1.7c-.4,0-.7.2-.7.7v.7c0,.3.1.5.3.6h-4.6c-.4,0-.7.3-.7.7v1.4c0,.4.3.7.7.7h4.3c0,1.7-1.7,2.9-4.6,2.9s-.7.2-.7.6v1.6c0,.6.4.7.9.7,2.9,0,5.1-1.1,5.9-2.8.8,1.7,3,2.8,5.9,2.8s.9,0,.9-.7v-1.6c0-.4-.2-.6-.7-.6-2.9,0-4.5-1.1-4.6-2.9h4.2c.4,0,.7-.3.7-.7v-1.4c0-.4-.3-.7-.7-.7h-3.7c-.4,0-.6-.2-.6-.5"/>
    <path class="cls-2" d="M135.4,3.9v13.9c0,.4.3.7.7.7h1.7c.4,0,.7-.3.7-.7V3.9c0-.4-.3-.7-.7-.7h-1.7c-.4,0-.7.3-.7.7M135.4,20.2v1.7c0,.4.3.7.7.7h1.7c.4,0,.7-.3.7-.7v-1.7c0-.4-.3-.7-.7-.7h-1.7c-.4,0-.7.3-.7.7M123.1,8.8l-.4-2.4h3.6l-.4,2.4c-.5,0-.9,0-1.4,0h-1.4ZM127.3,16c-4.1,0-6.9.1-9,.4-.4,0-.7.2-.7.7v1.5c0,.4.2.7.7.7,2.4-.2,5.2-.4,8.5-.4s1.6.5,1.6,1.5,0,.8-.1,1.3c0,.4.2.7.7.7h1.7c.4,0,.6-.2.7-.7,0-.4.1-.9.1-2,0-2.5-1.3-3.7-4.2-3.7M118.4,6.4h1.3l.4,2.3c-.8,0-1.5,0-1.9-.1-.4,0-.6.1-.6.5v1.4c0,.4.1.5.5.6,1,.1,2.7.2,4.9.2v.7c0,.3.2.6.5.7-2.3,0-4.9,0-6.5-.2-.4,0-.7.2-.7.6v1.2c0,.4.2.6.7.7,1.8.1,4.6.2,7.5.2s6.3,0,7.6-.2c.5,0,.7-.3.7-.7v-1.2c0-.4-.3-.7-.7-.6-1.6.1-4.2.2-5.2.2-.5,0-.8-.3-.8-.7v-.7c2.2,0,4-.1,5-.3.4,0,.5-.2.5-.6v-1.4c0-.4-.2-.5-.6-.5-.4,0-1.1,0-1.9.1l.4-2.3h1.3c.4,0,.6-.2.6-.6v-1.3c0-.4-.2-.6-.6-.6h-12.1c-.4,0-.6.2-.6.6v1.3c0,.4.2.6.6.6M104.4,8.8l-.4-2.4h3.6l-.4,2.4c-.5,0-.9,0-1.4,0h-1.4ZM108.6,16c-4.1,0-6.9.1-9,.4-.4,0-.7.2-.7.7v1.5c0,.4.2.7.7.7,2.4-.2,5.2-.4,8.5-.4s1.6.5,1.6,1.5,0,.8-.1,1.3c0,.4.2.7.7.7h1.7c.4,0,.6-.2.7-.7,0-.4.1-.9.1-2,0-2.5-1.3-3.7-4.2-3.7M99.7,6.4h1.3l.4,2.3c-.8,0-1.5,0-1.9-.1-.4,0-.6.1-.6.5v1.4c0,.4.1.5.5.6,1,.1,2.7.2,4.9.2v.7c0,.3.2.6.5.7-2.3,0-4.9,0-6.5-.2-.4,0-.7.2-.7.6v1.2c0,.4.2.6.7.7,1.8.1,4.6.2,7.5.2s6.3,0,7.6-.2c.5,0,.7-.3.7-.7v-1.2c0-.4-.3-.7-.7-.6-1.6.1-4.2.2-5.2.2-.5,0-.8-.3-.8-.7v-.7c2.2,0,4-.1,5-.3.4,0,.5-.2.5-.6v-1.4c0-.4-.2-.5-.6-.5-.4,0-1.1,0-1.9.1l.4-2.3h1.3c.4,0,.6-.2.6-.6v-1.3c0-.4-.2-.6-.6-.6h-12.1c-.4,0-.6.2-.6.6v1.3c0,.4.2.6.6.6M91.6,4.1v8.8c0,.4.3.7.7.7h1.7c.4,0,.7-.3.7-.7V4.1c0-.4-.3-.7-.7-.7h-1.7c-.4,0-.7.3-.7.7M90.4,15c-4.1,0-6.7.1-8.8.4-.4,0-.7.2-.7.7v1.5c0,.4.2.7.7.7,2.4-.2,5-.4,8.3-.4s1.6.5,1.6,1.5,0,1.6-.1,2.3c0,.4.2.7.7.7h1.7c.4,0,.6-.2.7-.7,0-.5.1-1.7.1-3,0-2.5-1.3-3.7-4.2-3.7M85.9,4v-.8c0-.4-.2-.7-.7-.7h-1.7c-.4,0-.7.2-.7.7v.7c0,.3.1.5.3.6h-3.1c-.4,0-.7.3-.7.7v1.4c0,.4.3.7.7.7h2.8v.3c0,2-1.2,3.2-2.9,3.2s-.7.2-.7.6v1.6c0,.4.2.7.7.7,2.1,0,3.9-.9,4.5-2.7.6,1.8,2.4,2.7,4.4,2.7s.7-.2.7-.7v-1.6c0-.4-.2-.6-.7-.6-1.7,0-2.9-1.2-2.9-3.2v-.3h2.8c.4,0,.7-.3.7-.7v-1.4c0-.4-.3-.7-.7-.7h-2.2c-.4,0-.6-.2-.6-.5M73.8,4.1v8.8c0,.4.3.7.7.7h1.7c.4,0,.7-.3.7-.7V4.1c0-.4-.3-.7-.7-.7h-1.7c-.4,0-.7.3-.7.7M72.6,15c-4.1,0-6.7.1-8.8.4-.4,0-.7.2-.7.7v1.5c0,.4.2.7.7.7,2.4-.2,5-.4,8.3-.4s1.6.5,1.6,1.5,0,1.6-.1,2.3c0,.4.2.7.7.7h1.7c.4,0,.6-.2.7-.7,0-.5.1-1.7.1-3,0-2.5-1.3-3.7-4.2-3.7M68.1,4v-.8c0-.4-.2-.7-.7-.7h-1.7c-.4,0-.7.2-.7.7v.7c0,.3.1.5.3.6h-3.1c-.4,0-.7.3-.7.7v1.4c0,.4.3.7.7.7h2.8v.3c0,2-1.2,3.2-2.9,3.2s-.7.2-.7.6v1.6c0,.4.2.7.7.7,2.1,0,3.9-.9,4.5-2.7.6,1.8,2.4,2.7,4.4,2.7s.7-.2.7-.7v-1.6c0-.4-.2-.6-.7-.6-1.7,0-2.9-1.2-2.9-3.2v-.3h2.8c.4,0,.7-.3.7-.7v-1.4c0-.4-.3-.7-.7-.7h-2.2c-.4,0-.6-.2-.6-.5"/>
    <path class="cls-1" d="M24.9,49.1c13.3,0,24-10.7,24-24S38.2,1.1,24.9,1.1.9,11.9.9,25.1s10.7,24,24,24"/>
    <path class="cls-3" d="M22,17.3c2.9,0,4,.9,4,2.8s-.8,3.5-3.2,6.3c-1.1,1.3-3.2,3.8-4.6,5.2-.1,1.3-.1,3,0,4.4,2.1.1,11.3.1,13.1,0,0-1.1,0-3.4,0-4.6-1.6,0-4.2,0-6.6,0,1.1-1.1,2.6-2.7,3.7-4.1,1.9-2.3,2.5-4.5,2.5-7.5,0-4.5-2.6-7.1-8.7-7.1s-2.7,0-3.7,0c0,1.2,0,3.5,0,4.6,1,0,2.2,0,3.4,0"/>
  </g>
  <g>
    <path class="cls-1" d="M125.4,370c-4.9,0-6.9.9-6.9,3.3s2,3.3,6.9,3.3,6.9-.9,6.9-3.3-2-3.3-6.9-3.3M125.2,377.3c-2.9,0-5.8,0-7.6-.2-.4,0-.7.1-.7.6v1.1c0,.4.2.6.7.6,1.8.1,4.6.2,7.6.2s6.3,0,7.6-.2c.5,0,.7-.3.7-.6v-1.1c0-.4-.2-.6-.7-.6-1.3.1-4.3.2-7.6.2M131.6,385.6c.3,0,.5-.2.5-.5v-1.1c0-.3-.2-.5-.5-.5h-.5c.8-.3,1.2-.8,1.2-1.7s-.8-1.5-2.1-1.5c-3.3-.1-7.6,0-10.8.3-.4,0-.5.2-.5.5v1.2c0,.3.2.5.5.5,2.5-.2,7.1-.4,9.1-.4s.7.1.7.4-.2.4-.8.4c-.9,0-2.2,0-3.4,0-4.6,0-6.6.5-6.6,2.7s1.8,2.8,7.9,2.8,4.4-.2,5.9-.4c.3,0,.5-.3.5-.5v-1.2c-.1-.3-.4-.5-.7-.4-1.4.3-4,.4-5.7.4-4.1,0-4.8,0-4.8-.5s.5-.6,3.6-.6,4.9,0,6.4,0M121.6,373.3c0-.8.8-1,3.8-1s3.8.2,3.8,1-.9,1-3.8,1-3.8-.2-3.8-1M112.9,387.8v-6.9c0-.7.5-1.2,1.2-1.2h.8c.4,0,.7-.2.7-.7v-1.6c0-.4-.2-.7-.7-.7h-.7c-.6,0-1.1.2-1.3.6v-7c0-.4-.3-.7-.7-.7h-1.7c-.4,0-.7.3-.7.7v17.4c0,.4.3.7.7.7h1.7c.4,0,.7-.3.7-.7M101,385.7h6.1c.4,0,.7-.2.7-.7v-1.3c0-.4-.2-.7-.7-.7h-1.5c1.4-1.1,2.3-3.6,2.3-6.7s-1.2-5.3-4.2-5.3h-4.3c-.8,0-1.2.4-1.2,1.2v11.1c0,1.5,1,2.4,2.7,2.4M101.3,382.1v-7.5c0-.4.2-.7.7-.7h.9c1.5,0,2.1,1.2,2.1,4.4s-.8,4.5-2.2,4.5h-.5c-.6,0-.9-.3-.9-.8M88,378c.8,1.9,2.9,3.3,5.7,3.3s1,0,1-.7v-1.6c0-.4-.2-.6-.7-.6-3,0-4.6-1.7-4.6-4v-2.9c0-.4-.3-.7-.7-.7h-1.7c-.4,0-.7.3-.7.7v2.9c0,2.3-1.6,4-4.6,4s-.7.2-.7.6v1.6c0,.7.6.7,1.1.7,2.8,0,4.9-1.4,5.8-3.3M80.3,386.5c1.8.3,4.6.4,7.5.4s6.3-.1,7.6-.4c.5,0,.7-.3.7-.7v-1.6c0-.4-.3-.7-.7-.6-1.4.2-3.5.3-4.7.3s-1.3,0-1.3-.9v-1.7c0-.4-.2-.7-.7-.7h-1.7c-.4,0-.7.3-.7.7v1.6c0,.5.3.9.7,1.1-2.4,0-5.1-.2-6.7-.4-.4,0-.7.2-.7.6v1.6c0,.4.2.6.7.7M73.8,370.4v11.8c0,.4.3.7.7.7h1.7c.4,0,.7-.3.7-.7v-11.8c0-.4-.3-.7-.7-.7h-1.7c-.4,0-.7.3-.7.7M68.4,388.8c3.7,0,6.3-.1,8.4-.4.4,0,.7-.2.7-.7v-1.5c-.1-.4-.3-.7-.8-.7-2.2.2-5,.4-7.9.4s-2.4-.6-2.4-1.8,0-.9.1-1.6c0-.4-.3-.7-.7-.7h-1.7c-.4,0-.6.3-.7.7,0,.5-.1,1-.1,2,0,2.6,1.8,4.2,5,4.2M70.9,370.2h-8.6c-.4,0-.7.3-.7.7v1.4c0,.4.3.7.7.7h2.8v1.2c0,2-1.2,3.2-2.9,3.2s-.7.2-.7.6v1.6c0,.4.2.7.7.7,2.1,0,3.9-.9,4.5-2.7.6,1.8,2.4,2.7,4.4,2.7s.7-.2.7-.7v-1.6c0-.4-.2-.6-.7-.6-1.7,0-2.9-1.2-2.9-3.2v-1.2h2.8c.4,0,.7-.3.7-.7v-1.4c0-.4-.3-.7-.7-.7"/>
    <path class="cls-2" d="M205.1,338.9v13.9c0,.4.3.7.7.7h1.7c.4,0,.7-.3.7-.7v-13.9c0-.4-.3-.7-.7-.7h-1.7c-.4,0-.7.3-.7.7M205.1,355.2v1.7c0,.4.3.7.7.7h1.7c.4,0,.7-.3.7-.7v-1.7c0-.4-.3-.7-.7-.7h-1.7c-.4,0-.7.3-.7.7M188.6,339.8c-1,0-2.1,0-3,.3-.4,0-.6.3-.6.7v1.7c0,.4.2.6.7.5,1.3-.2,2-.3,2.6-.3,1.1,0,1.7.5,1.7,1.5s-.5,1.4-1.6,1.4c-2.6,0-4.1,1.6-4.1,4.5s1.8,4.5,4.8,4.5,2.5-.2,3.7-.7c.5-.2.7-.4.5-.8l-.4-1.5c-.1-.4-.3-.5-.5-.5s-.2,0-.3,0c-1,.4-2.1.6-2.8.6-1.4,0-2.2-.6-2.2-1.7s.7-1.7,2.5-1.7,1.2,0,2.3,0,.6-.2.6-.6v-1.4c0-.4-.2-.6-.6-.6h-.4c.8-.7,1.1-1.6,1.1-2.9,0-2.1-1.4-3.2-4.2-3.2M198.9,339.1v6.5h-.8c-.4,0-.7.1-.9.4v-6.7c0-.4-.2-.7-.7-.7h-1.5c-.4,0-.7.2-.7.7v17.3c0,.4.2.7.7.7h1.5c.4,0,.7-.2.7-.7v-7.3c0-.5.4-.8.8-.8h.9v8.1c0,.4.2.7.7.7h1.5c.4,0,.7-.2.7-.7v-17.5c0-.4-.2-.7-.7-.7h-1.5c-.4,0-.7.2-.7.7M180.8,346.9v-1.6c0-.7.5-1.2,1.2-1.2h.8c.4,0,.7-.2.7-.7v-1.5c0-.4-.2-.7-.7-.7h-.7c-.6,0-1.1.2-1.3.6v-2.7c0-.4-.3-.7-.7-.7h-1.7c-.4,0-.7.3-.7.7v7.8c0,.4.3.7.7.7h1.7c.4,0,.7-.3.7-.7M174.2,347.5c.5,0,.7-.1.8-.5.4-1,.8-2.9.8-4.3,0-2.7-1.2-3.8-4-3.8s-3,.1-5,.4c-.5,0-.7.3-.7.7v1.5c0,.4.3.7.7.7,1.4-.1,2.8-.4,4.5-.4s1.4.3,1.4,1.3-.3,2.4-.8,3.8c-.1.4,0,.7.5.7h1.7ZM174,354.1c3.7,0,4.7,0,6.2,0s.5-.2.5-.5v-1.2c0-.3-.2-.5-.5-.5h-.5c.8-.3,1.2-.9,1.2-1.7s-.8-1.6-2.1-1.6c-3-.1-7.2,0-10.4.3-.4,0-.5.2-.5.5v1.4c0,.3.2.5.5.5,2.5-.2,6.7-.4,8.7-.4s.7.1.7.5-.2.4-.8.4c-.9,0-2.1,0-3.2,0-4.5,0-6.4.7-6.4,2.9s1.7,2.9,7.6,2.9,4.2-.2,5.7-.4c.3,0,.5-.3.5-.5v-1.4c-.1-.3-.4-.5-.7-.4-1.4.3-3.9.4-5.5.4-4,0-4.6,0-4.6-.5s.4-.6,3.4-.6M162.1,356.6v-6.9c0-.7.5-1.2,1.2-1.2h.8c.4,0,.7-.2.7-.7v-1.6c0-.4-.2-.7-.7-.7h-.7c-.6,0-1.1.2-1.3.6v-7c0-.4-.3-.7-.7-.7h-1.7c-.4,0-.7.3-.7.7v17.4c0,.4.3.7.7.7h1.7c.4,0,.7-.3.7-.7M157.1,347.2c0-5.3-1.5-7.6-4.9-7.6s-4.9,2.3-4.9,7.6,1.5,7.6,4.9,7.6,4.9-2.3,4.9-7.6M152.1,342.4c1.4,0,1.9,1.3,1.9,4.8s-.5,4.8-1.9,4.8-1.9-1.3-1.9-4.8.5-4.8,1.9-4.8M143.3,354.4c.3,0,.5-.2.5-.5v-1.1c0-.3-.2-.5-.5-.5h-.5c.8-.3,1.2-.8,1.2-1.7s-.8-1.5-2.1-1.5c-3.3-.1-7.6,0-10.8.3-.4,0-.5.2-.5.5v1.2c0,.3.2.5.5.5,2.5-.2,7.1-.4,9.1-.4s.7.1.7.4-.2.4-.8.4c-.9,0-2.2,0-3.4,0-4.6,0-6.6.5-6.6,2.7s1.8,2.8,7.9,2.8,4.4-.2,5.9-.4c.3,0,.5-.3.5-.5v-1.2c-.1-.3-.4-.5-.7-.4-1.4.3-4,.4-5.7.4-4.1,0-4.8,0-4.8-.5s.5-.6,3.6-.6,4.9,0,6.4,0M142.7,339.1c-2.3-.2-3.9-.2-5.4-.2-5.3,0-7.2.7-7.2,3.2s1.5,3,5.4,3.2v.2c0,.3.1.5.3.7-2.2,0-4.8,0-6.4-.2-.4,0-.7.1-.7.6v1.1c0,.4.2.6.7.6,1.8.1,4.6.2,7.6.2s6.3,0,7.6-.2c.5,0,.7-.3.7-.6v-1.1c0-.4-.2-.6-.7-.6-1.6.1-4.3.2-5.4.2-.4,0-.6-.2-.6-.6v-.3c1.4,0,3-.2,4.5-.3.5,0,.7-.2.6-.6v-1.2c-.1-.5-.3-.6-.7-.6-2.4.3-4.8.4-6.2.4-2.9,0-3.5,0-3.5-.8s.9-.8,4.1-.8,3.5.1,5.5.2c.4,0,.6-.2.6-.6v-1.2c0-.4-.1-.6-.6-.6M117,339.1v17.4c0,.4.3.7.7.7h1.7c.4,0,.7-.3.7-.7v-17.4c0-.4-.3-.7-.7-.7h-1.7c-.4,0-.7.3-.7.7M109.9,350.8c.5,1.8,2.3,3.3,4.4,3.6.4,0,.7-.2.7-.6v-1.6c0-.4-.2-.6-.7-.7-1.6-.2-2.9-2.2-2.9-4.3v-6.7c0-.5-.3-.8-.7-.8h-1.7c-.4,0-.7.3-.7.8v6.7c0,2.2-1.3,4.1-2.9,4.3-.5,0-.7.3-.7.7v1.6c0,.4.3.7.7.6,2.1-.3,3.9-1.7,4.5-3.6M101,356.6v-6.9c0-.7.5-1.2,1.2-1.2h.8c.4,0,.7-.2.7-.7v-1.6c0-.4-.2-.7-.7-.7h-.7c-.6,0-1.1.2-1.3.6v-7c0-.4-.3-.7-.7-.7h-1.7c-.4,0-.7.3-.7.7v17.4c0,.4.3.7.7.7h1.7c.4,0,.7-.3.7-.7M95.2,339.9c-.6-.1-1.5-.2-2.9-.2-4.2,0-6.1,2.1-6.1,7.4s1.9,7.4,6.1,7.4,2.5-.3,3.7-.8c.5-.2.6-.4.5-.8l-.4-1.5c-.1-.4-.3-.5-.5-.5s-.2,0-.3,0c-1.1.4-2.3.7-3,.7-2.3,0-3.2-1.2-3.2-4.6s.9-4.6,3.2-4.6,2.1,0,2.8.2c.4,0,.7-.2.7-.6v-1.6c0-.4-.1-.6-.7-.7M73.4,356.6c0,.4.3.7.7.7h1.7c.4,0,.7-.3.7-.7v-6.9c0-.7.5-1.2,1.2-1.2h.8c.4,0,.7-.2.7-.7v-1.6c0-.4-.2-.7-.7-.7h-.7c-.6,0-1.1.2-1.3.6v-7c0-.4-.3-.7-.7-.7h-1.7c-.4,0-.7.3-.7.7v17.4ZM62.2,340.4c-.3,3.2-.5,5.2-.5,8.4s1.9,5.8,5.6,5.8,2.5-.3,3.7-.8c.5-.2.7-.4.5-.8l-.4-1.5c-.1-.4-.3-.5-.5-.5s-.2,0-.3,0c-1.1.4-2.3.7-3,.7-1.8,0-2.6-.9-2.6-3.1s.1-5.1.5-8.2c0-.4-.2-.7-.7-.7h-1.6c-.5,0-.7.2-.7.6"/>
    <path class="cls-1" d="M24.9,384.2c13.3,0,24-10.7,24-24s-10.7-24-24-24S.9,346.9.9,360.2s10.7,24,24,24"/>
    <path class="cls-3" d="M27.8,358.5c1.6-.9,2.1-2.7,2.1-4.4,0-4.2-2.8-6.2-8.1-6.4-.9,0-1.7,0-2.6,0,0,1.1,0,3.4,0,4.4h2c2.6,0,3.8.7,3.8,2.1s-.9,2.4-3.6,2.4-1.1,0-1.6,0c0,1.3,0,3.3,0,4.2.5,0,1,0,1.7,0,3.3,0,4.6.9,4.6,2.6s-1.3,2.7-4.5,2.7h-2.8c0,1.1,0,3.5,0,4.6,1,0,2.5,0,3.4,0,6,0,8.8-2.7,8.8-7s-1-4.5-3.3-5.6"/>
  </g>
</svg>