<svg width="980" height="700" viewBox="0 0 980 700" fill="none" xmlns="http://www.w3.org/2000/svg">
<g clip-path="url(#clip0_654_10756)">
<path d="M980 0.139648H0V700.14H980V0.139648Z" fill="#FF926A"/>
<path d="M0 534.5H329.86C351.95 534.5 369.86 516.59 369.86 494.5V396.14C369.86 374.05 351.95 356.14 329.86 356.14H0" stroke="white"/>
<path d="M98.3301 368C104.96 368 110.33 362.63 110.33 356C110.33 349.37 104.96 344 98.3301 344C91.7001 344 86.3301 349.37 86.3301 356C86.3301 362.63 91.7001 368 98.3301 368Z" fill="white"/>
<path d="M97.7396 351.51C97.0596 351.54 96.5296 351.53 95.8996 351.51C95.8696 350.94 95.8496 349.5 95.8996 348.75C96.5096 348.65 100.13 348.65 100.72 348.75C100.82 349.62 100.82 361.52 100.72 362.37C100.2 362.47 98.4696 362.47 97.7896 362.37C97.7196 361.79 97.6896 355.74 97.7396 351.51Z" fill="#FF926A"/>
<path d="M257.78 368C264.41 368 269.78 362.63 269.78 356C269.78 349.37 264.41 344 257.78 344C251.15 344 245.78 349.37 245.78 356C245.78 362.63 251.16 368 257.78 368Z" fill="white"/>
<path d="M254.15 351.42C254.1 350.74 254.08 349.39 254.13 348.7C254.74 348.67 255.55 348.65 256.3 348.65C259.89 348.65 261.41 350.18 261.41 352.83C261.41 354.63 261.03 355.93 259.94 357.27C259.28 358.08 258.43 359.04 257.76 359.66C259.2 359.63 260.74 359.64 261.66 359.66C261.71 360.37 261.71 361.74 261.66 362.36C260.59 362.43 255.14 362.43 253.93 362.36C253.84 361.53 253.84 360.54 253.93 359.76C254.74 358.94 255.99 357.47 256.63 356.73C258.03 355.1 258.5 354.15 258.5 353.04C258.5 351.93 257.82 351.41 256.14 351.41C255.46 351.41 254.74 351.42 254.15 351.42Z" fill="#FF926A"/>
<path d="M257.78 547.62C264.41 547.62 269.78 542.25 269.78 535.62C269.78 528.99 264.41 523.62 257.78 523.62C251.15 523.62 245.78 528.99 245.78 535.62C245.78 542.25 251.15 547.62 257.78 547.62Z" fill="white"/>
<path d="M261.41 537.93C261.41 540.43 259.75 542.04 256.21 542.04C255.69 542.04 254.81 542.02 254.23 541.99C254.18 541.33 254.18 539.95 254.23 539.29H255.86C257.75 539.29 258.49 538.67 258.49 537.68C258.49 536.69 257.74 536.151 255.79 536.151C255.37 536.151 255.08 536.15 254.77 536.11C254.73 535.54 254.72 534.36 254.77 533.61C255.06 533.57 255.34 533.571 255.74 533.571C257.3 533.571 257.85 533.031 257.85 532.151C257.85 531.341 257.12 530.901 255.6 530.901H254.4C254.35 530.281 254.35 528.94 254.4 528.3C254.95 528.27 255.44 528.231 255.94 528.251C259.08 528.351 260.71 529.531 260.71 532.031C260.71 533.091 260.42 534.091 259.46 534.651C260.81 535.261 261.41 536.35 261.41 537.93Z" fill="#FF926A"/>
<path d="M98.3301 548.82C104.96 548.82 110.33 543.45 110.33 536.82C110.33 530.19 104.96 524.82 98.3301 524.82C91.7001 524.82 86.3301 530.19 86.3301 536.82C86.3301 543.45 91.7101 548.82 98.3301 548.82Z" fill="white"/>
<path d="M103.37 540.96C103.16 540.96 102.52 540.96 101.64 540.98C101.62 542.16 101.62 542.99 101.61 543.2C101.12 543.27 99.5601 543.27 98.8901 543.2C98.8701 542.87 98.8701 542.04 98.8701 540.98C96.3601 540.98 93.6701 540.98 93.2201 540.96C93.1701 540.2 93.1701 539.37 93.2201 538.36C93.7701 537.09 97.3101 530.33 97.7401 529.57C98.3301 529.5 100.37 529.5 101.61 529.57C101.66 530.05 101.66 534.63 101.66 538.34C102.44 538.36 103.08 538.36 103.38 538.36C103.42 538.97 103.4 540.25 103.37 540.96ZM98.8601 538.34C98.8801 536.05 98.8901 533.68 98.9101 532.88C98.4901 533.88 96.7401 537.3 96.2101 538.36C96.7001 538.34 97.7401 538.34 98.8601 538.34Z" fill="#FF926A"/>
<path d="M852.96 100.04C852.96 94.69 848.28 90.36 842.51 90.36C841.76 90.36 841.03 90.44 840.32 90.58C838.32 86.11 833.57 82.96 828.01 82.96C822.47 82.96 817.72 86.1 815.71 90.56C815.04 90.44 814.36 90.37 813.65 90.37C807.88 90.37 803.2 94.7 803.2 100.05C803.2 105.2 807.55 109.4 813.03 109.7C813.76 110.03 814.58 110.23 815.45 110.23H843.42C845.03 110.23 846.47 109.59 847.47 108.57C850.75 106.92 852.96 103.72 852.96 100.04Z" fill="white"/>
<path d="M338.43 261.58C338.43 256.23 333.75 251.9 327.98 251.9C327.23 251.9 326.5 251.98 325.79 252.12C323.79 247.65 319.04 244.5 313.48 244.5C307.94 244.5 303.19 247.64 301.18 252.1C300.51 251.98 299.83 251.91 299.12 251.91C293.35 251.91 288.67 256.24 288.67 261.59C288.67 266.74 293.02 270.94 298.5 271.24C299.23 271.57 300.05 271.77 300.92 271.77H328.89C330.5 271.77 331.94 271.13 332.94 270.1C336.22 268.45 338.43 265.25 338.43 261.58Z" fill="white"/>
<path d="M919.58 160.44C919.58 155.09 914.9 150.76 909.13 150.76C908.38 150.76 907.65 150.84 906.94 150.98C904.94 146.51 900.19 143.36 894.63 143.36C889.09 143.36 884.34 146.5 882.33 150.96C881.66 150.84 880.98 150.77 880.27 150.77C874.5 150.77 869.82 155.1 869.82 160.45C869.82 165.6 874.17 169.8 879.65 170.1C880.38 170.43 881.2 170.63 882.07 170.63H910.04C911.65 170.63 913.09 169.99 914.09 168.96C917.37 167.31 919.58 164.11 919.58 160.44Z" fill="white"/>
<path d="M64.79 391.28C64.93 390.82 67.05 386.3 68.11 384.08C66.57 384.08 65.27 384.06 64.87 384.04C64.77 383.76 64.77 382.8 64.87 382.52C65.97 382.46 73.49 382.46 74.55 382.52C74.65 382.8 74.65 383.74 74.55 384.04C74.13 384.06 72.79 384.08 71.25 384.08C72.35 386.22 74.63 390.74 74.79 391.18C74.51 391.5 73.75 391.84 73.33 391.88C73.05 391.46 70.65 386.56 69.69 384.5C68.75 386.68 66.53 391.48 66.27 391.9C65.85 391.88 65.07 391.56 64.79 391.28ZM80.75 398.62C79.39 398.68 66.59 398.68 65.73 398.62C65.67 397.4 65.65 394.06 65.73 393C66.07 392.88 66.99 392.88 67.43 393C67.43 393.88 67.45 396.12 67.43 397.08C69.07 397.06 79.85 397.06 80.75 397.08C80.83 397.44 80.83 398.24 80.75 398.62ZM74.81 387.8C74.69 387.46 74.69 386.64 74.81 386.32C75.45 386.28 77.35 386.28 78.49 386.3C78.49 384.16 78.49 382.34 78.51 381.96C78.87 381.84 79.81 381.84 80.17 381.96C80.25 382.96 80.25 393.38 80.17 394.38C79.87 394.46 78.93 394.46 78.51 394.38C78.49 393.88 78.47 390.8 78.49 387.82C77.35 387.86 75.45 387.84 74.81 387.8Z" fill="white"/>
<path d="M96.0101 391.76C94.8101 391.78 83.2501 391.78 82.2501 391.76C82.1901 391.32 82.1901 390.72 82.2501 390.24C82.7101 390.24 85.4301 390.22 88.3301 390.22C88.3101 389.62 88.3101 388.88 88.3301 388.26C85.8701 388.26 83.5701 388.24 82.9901 388.2C82.8701 386.48 82.8701 384.16 82.9901 382.42C83.9501 382.28 93.7301 382.28 95.0901 382.42C95.1501 382.78 95.1501 383.44 95.0901 383.82C93.8701 383.84 85.6301 383.84 84.6701 383.82V386.8C85.9501 386.76 94.1301 386.76 95.2901 386.8C95.3501 387.16 95.3501 387.84 95.2901 388.2C94.7901 388.24 92.5301 388.26 90.0701 388.26C90.0901 388.88 90.0901 389.62 90.0901 390.22C92.8901 390.22 95.4701 390.24 96.0101 390.24C96.0701 390.74 96.0701 391.32 96.0101 391.76ZM95.6101 396.26C95.6101 398.2 93.5501 399.42 89.1301 399.42C84.7101 399.42 82.6501 398.2 82.6501 396.26C82.6501 394.32 84.7101 393.1 89.1301 393.1C93.5501 393.1 95.6101 394.32 95.6101 396.26ZM93.8701 396.26C93.8701 395.3 92.6301 394.52 89.1301 394.52C85.6301 394.52 84.3901 395.3 84.3901 396.26C84.3901 397.22 85.6301 398 89.1301 398C92.6301 398 93.8701 397.22 93.8701 396.26Z" fill="white"/>
<path d="M98.4698 391.08C98.0698 391.02 97.3098 390.68 97.0498 390.4C97.4298 389.42 100.49 383.5 101.15 382.28C101.55 382.2 102.39 382.2 102.79 382.28C103.47 383.4 106.65 389.1 107.05 390C106.81 390.3 106.07 390.7 105.67 390.78C105.13 390 102.57 385.18 102.01 384.04C101.49 385.24 98.9698 390.26 98.4698 391.08ZM113.45 395.44C113.45 397.72 111.31 399.16 105.87 399.16C100.41 399.16 98.2898 397.72 98.2898 395.44C98.2898 393.16 100.41 391.72 105.87 391.72C111.31 391.72 113.45 393.16 113.45 395.44ZM111.69 395.44C111.69 394.14 110.27 393.22 105.87 393.22C101.47 393.22 100.03 394.14 100.03 395.44C100.03 396.74 101.47 397.66 105.87 397.66C110.27 397.66 111.69 396.74 111.69 395.44ZM107.09 386.56C106.97 386.28 106.97 385.38 107.09 385.08C107.71 385.06 109.97 385.06 111.37 385.06C111.37 383.6 111.37 382.34 111.39 381.96C111.75 381.84 112.69 381.84 113.05 381.96C113.13 382.96 113.13 390.16 113.05 391.16C112.75 391.24 111.81 391.24 111.39 391.16C111.37 390.68 111.37 388.62 111.37 386.58C109.97 386.6 107.71 386.6 107.09 386.56Z" fill="white"/>
<path d="M115.87 390.36C115.73 388.5 115.73 384.36 115.87 382.5C116.83 382.42 123.35 382.42 124.47 382.5C124.53 382.82 124.53 383.62 124.47 383.96C123.73 383.98 118.21 383.98 117.55 383.96C117.49 384.48 117.49 388.18 117.55 388.9C118.53 388.86 124.55 388.86 125.41 388.9C125.49 389.2 125.49 390.02 125.41 390.36C124.25 390.44 117.19 390.44 115.87 390.36ZM129.79 395.44C129.79 397.72 127.75 399.16 122.95 399.16C118.17 399.16 116.13 397.72 116.13 395.44C116.13 393.16 118.17 391.72 122.95 391.72C127.75 391.72 129.79 393.16 129.79 395.44ZM128.05 395.44C128.05 394.14 126.69 393.22 122.95 393.22C119.23 393.22 117.87 394.14 117.87 395.44C117.87 396.74 119.23 397.66 122.95 397.66C126.69 397.66 128.05 396.74 128.05 395.44ZM131.81 387.24C131.31 387.28 130.27 387.3 129.41 387.28C129.39 389.08 129.37 390.72 129.33 391.16C129.05 391.24 128.11 391.24 127.69 391.16C127.63 390.18 127.63 382.96 127.69 381.96C128.05 381.84 128.99 381.84 129.33 381.96C129.37 382.4 129.39 383.98 129.41 385.74C130.27 385.72 131.31 385.74 131.81 385.76C131.91 386.02 131.91 387.02 131.81 387.24Z" fill="white"/>
<path d="M235.29 384.02C235.21 383.7 235.21 382.86 235.29 382.52C236.55 382.46 241.29 382.46 242.03 382.54C242.09 383.76 242.11 389.66 242.03 390.68C241.65 390.8 240.83 390.8 240.35 390.68C240.35 389.7 240.33 385.06 240.35 384.02C238.77 384.06 236.21 384.06 235.29 384.02ZM249.01 395.44C249.01 397.72 246.81 399.16 242.45 399.16C238.09 399.16 235.89 397.72 235.89 395.44C235.89 393.16 238.09 391.72 242.45 391.72C246.81 391.72 249.01 393.16 249.01 395.44ZM247.25 395.44C247.25 394.14 245.77 393.22 242.45 393.22C239.13 393.22 237.65 394.14 237.65 395.44C237.65 396.74 239.13 397.66 242.45 397.66C245.77 397.66 247.25 396.74 247.25 395.44ZM246.93 387.62C246.91 386.9 246.91 386.14 246.93 385.4C245.69 385.42 243.75 385.42 243.21 385.38C243.09 385.1 243.09 384.24 243.21 383.92C243.75 383.9 245.69 383.9 246.93 383.9C246.93 382.96 246.93 382.24 246.95 381.96C247.31 381.84 248.25 381.84 248.61 381.96C248.69 382.96 248.69 390.14 248.61 391.14C248.31 391.22 247.37 391.22 246.95 391.14C246.93 390.86 246.93 390.1 246.93 389.12C245.69 389.14 243.75 389.14 243.21 389.1C243.09 388.82 243.09 387.94 243.21 387.64C243.75 387.62 245.69 387.62 246.93 387.62Z" fill="white"/>
<path d="M255.49 384.26C253.79 384.28 251.53 384.28 250.63 384.26C250.55 383.92 250.55 383.02 250.63 382.68C251.89 382.62 256.45 382.62 257.19 382.7C257.25 383.92 257.27 397.06 257.19 398.08C256.81 398.2 255.97 398.2 255.49 398.08C255.49 397.1 255.47 385.4 255.49 384.26ZM260.17 381.96C260.59 381.86 261.43 381.86 261.85 381.96C261.93 382.96 261.93 397.92 261.85 398.9C261.47 399 260.65 399 260.17 398.9C260.13 397.92 260.13 382.96 260.17 381.96Z" fill="white"/>
<path d="M264.311 391.28C264.451 390.82 266.571 386.3 267.631 384.08C266.091 384.08 264.791 384.06 264.391 384.04C264.291 383.76 264.291 382.8 264.391 382.52C265.491 382.46 273.011 382.46 274.071 382.52C274.171 382.8 274.171 383.74 274.071 384.04C273.651 384.06 272.311 384.08 270.771 384.08C271.871 386.22 274.151 390.74 274.311 391.18C274.031 391.5 273.271 391.84 272.851 391.88C272.571 391.46 270.171 386.56 269.211 384.5C268.271 386.68 266.051 391.48 265.791 391.9C265.371 391.88 264.591 391.56 264.311 391.28ZM280.271 398.62C278.911 398.68 266.111 398.68 265.251 398.62C265.191 397.4 265.171 394.06 265.251 393C265.591 392.88 266.511 392.88 266.951 393C266.951 393.88 266.971 396.12 266.951 397.08C268.591 397.06 279.371 397.06 280.271 397.08C280.351 397.44 280.351 398.24 280.271 398.62ZM274.331 387.8C274.211 387.46 274.211 386.64 274.331 386.32C274.971 386.28 276.871 386.28 278.011 386.3C278.011 384.16 278.011 382.34 278.031 381.96C278.391 381.84 279.331 381.84 279.691 381.96C279.771 382.96 279.771 393.38 279.691 394.38C279.391 394.46 278.451 394.46 278.031 394.38C278.011 393.88 277.991 390.8 278.011 387.82C276.871 387.86 274.971 387.84 274.331 387.8Z" fill="white"/>
<path d="M49.05 560.64C50.19 563.74 53.21 573.8 53.73 575.66C53.45 575.88 52.61 576.12 52.17 576.14C51.53 574.34 49.01 566.16 48.21 563.14C47.43 566.2 44.91 574.38 44.29 576.2C43.85 576.18 42.99 575.94 42.71 575.72C43.21 573.86 46.23 563.76 47.35 560.64C47.69 560.54 48.71 560.54 49.05 560.64ZM59.41 576.97C59.03 577.07 58.21 577.07 57.73 576.97C57.71 576.43 57.69 571.77 57.71 567.47C56.23 567.49 53.63 567.49 53.01 567.45C52.95 567.13 52.95 566.23 53.01 565.91C53.63 565.87 56.23 565.87 57.71 565.89C57.71 562.93 57.71 560.41 57.73 560.03C58.15 559.93 58.99 559.93 59.41 560.03C59.49 561.02 59.49 575.99 59.41 576.97Z" fill="white"/>
<path d="M61.6304 563.34C61.4904 563.08 61.4904 562.18 61.6304 561.92C62.2504 561.9 63.8704 561.88 65.6104 561.88C65.5904 561.14 65.6104 560.1 65.6304 559.54C65.9704 559.44 66.9904 559.42 67.3104 559.54C67.3504 560.1 67.3704 561.14 67.3504 561.88C69.0304 561.88 70.5304 561.9 71.0904 561.92C71.2104 562.16 71.2104 563.06 71.0904 563.34C69.7704 563.38 63.0504 563.38 61.6304 563.34ZM61.9304 567.58C61.9304 565.68 63.5904 564.34 66.4904 564.34C69.3904 564.34 71.0504 565.68 71.0504 567.58C71.0504 569.5 69.3904 570.84 66.4904 570.84C63.5904 570.84 61.9304 569.5 61.9304 567.58ZM74.4704 571.95C74.5304 573.05 74.5504 575.97 74.4704 576.95C74.0904 577.05 73.2504 577.05 72.7504 576.95V573.43C71.1304 573.45 63.3904 573.45 62.4904 573.43C62.4104 573.15 62.4104 572.29 62.4904 571.93C63.7504 571.87 73.7304 571.87 74.4704 571.95ZM63.5504 567.58C63.5504 568.7 64.4904 569.44 66.4904 569.44C68.4904 569.44 69.4304 568.7 69.4304 567.58C69.4304 566.48 68.4904 565.74 66.4904 565.74C64.4904 565.74 63.5504 566.48 63.5504 567.58ZM76.9704 567.08C76.4704 567.12 75.4304 567.14 74.5704 567.12C74.5504 569.02 74.5304 570.66 74.4904 571.06C74.2104 571.14 73.2704 571.14 72.8504 571.06C72.7904 570.08 72.7904 561.02 72.8504 560.02C73.2104 559.9 74.1504 559.9 74.4904 560.02C74.5504 560.52 74.5704 563.06 74.5704 565.58C75.4304 565.56 76.4704 565.58 76.9704 565.6C77.0704 565.84 77.0704 566.86 76.9704 567.08Z" fill="white"/>
<path d="M91.4896 569.83C90.2896 569.85 78.7296 569.85 77.7296 569.83C77.6696 569.39 77.6696 568.79 77.7296 568.31C78.1896 568.31 80.9096 568.29 83.8096 568.29C83.7896 567.69 83.7896 566.95 83.8096 566.33C81.3496 566.33 79.0496 566.31 78.4696 566.27C78.3496 564.55 78.3496 562.23 78.4696 560.49C79.4296 560.35 89.2096 560.35 90.5696 560.49C90.6296 560.85 90.6296 561.51 90.5696 561.89C89.3496 561.91 81.1096 561.91 80.1496 561.89V564.87C81.4296 564.83 89.6096 564.83 90.7696 564.87C90.8296 565.23 90.8296 565.91 90.7696 566.27C90.2696 566.31 88.0096 566.33 85.5496 566.33C85.5696 566.95 85.5696 567.69 85.5696 568.29C88.3696 568.29 90.9496 568.31 91.4896 568.31C91.5496 568.8 91.5496 569.38 91.4896 569.83ZM91.0896 574.33C91.0896 576.27 89.0296 577.49 84.6096 577.49C80.1896 577.49 78.1296 576.27 78.1296 574.33C78.1296 572.39 80.1896 571.17 84.6096 571.17C89.0296 571.17 91.0896 572.39 91.0896 574.33ZM89.3496 574.33C89.3496 573.37 88.1096 572.59 84.6096 572.59C81.1096 572.59 79.8696 573.37 79.8696 574.33C79.8696 575.29 81.1096 576.07 84.6096 576.07C88.1096 576.07 89.3496 575.29 89.3496 574.33Z" fill="white"/>
<path d="M106.27 560.1C106.33 561.1 106.33 575.7 106.27 576.7C105.97 576.82 105.03 576.82 104.65 576.7C104.63 576.38 104.63 574.68 104.63 572.48C103.59 572.5 102.23 572.5 101.37 572.48C100.71 575.18 99.2901 576.24 97.3501 576.24C94.5701 576.24 92.8701 574.1 92.8701 568.34C92.8701 562.52 94.6101 560.44 97.3501 560.44C99.1901 560.44 100.55 561.4 101.25 563.76C102.09 563.74 103.53 563.74 104.63 563.74C104.63 561.82 104.63 560.4 104.65 560.1C104.99 559.98 105.93 559.98 106.27 560.1ZM100.09 568.34C100.09 563.64 99.0101 562.02 97.3501 562.02C95.6501 562.02 94.5901 563.68 94.5901 568.34C94.5901 573.04 95.6501 574.66 97.3501 574.66C99.0501 574.67 100.09 573.01 100.09 568.34ZM104.63 570.92C104.61 569.1 104.61 567.08 104.63 565.3C103.67 565.32 102.45 565.32 101.59 565.3C101.73 566.18 101.79 567.18 101.79 568.34C101.79 569.3 101.75 570.16 101.65 570.92C102.49 570.91 103.69 570.91 104.63 570.92ZM110.45 576.99C110.13 577.09 109.25 577.09 108.81 576.99C108.75 576.01 108.75 561.03 108.81 560.03C109.23 559.93 110.07 559.93 110.45 560.03C110.51 561.02 110.51 576.01 110.45 576.99Z" fill="white"/>
<path d="M124.37 567.8C123.85 567.8 121.65 567.82 119.27 567.82C119.29 568.44 119.29 569.16 119.27 569.74C121.25 569.74 123.05 569.76 123.55 569.78C123.67 570.6 123.69 573.42 123.55 574.02C122.11 574.04 115.89 574.02 114.87 574.02V575.82C115.77 575.8 122.53 575.8 124.09 575.82C124.21 576.14 124.21 576.82 124.09 577.18C122.59 577.26 114.85 577.28 113.19 577.18C113.07 576.24 113.07 573.78 113.19 572.8C115.01 572.78 120.73 572.8 121.91 572.8V571.08H113.11C113.01 570.64 113.01 570.22 113.11 569.78C113.63 569.76 115.49 569.74 117.53 569.74C117.51 569.16 117.51 568.44 117.51 567.82C115.09 567.82 112.85 567.8 112.41 567.8C112.35 567.42 112.35 566.72 112.41 566.36C113.39 566.32 123.17 566.32 124.37 566.36C124.45 566.72 124.43 567.4 124.37 567.8ZM112.79 563.96C114.07 562.86 116.59 560.88 117.69 560.1C118.07 560.04 118.71 560.04 119.09 560.1C120.19 560.88 122.71 562.86 123.99 563.96C123.87 564.32 123.41 564.98 123.07 565.2C121.69 564.18 119.35 562.28 118.39 561.5C117.43 562.28 115.09 564.18 113.71 565.2C113.37 564.98 112.91 564.32 112.79 563.96Z" fill="white"/>
<path d="M134.47 560.76C134.59 561.78 134.59 575.02 134.47 576.1C133.49 576.18 127.31 576.18 126.35 576.1C126.21 575.06 126.21 561.8 126.35 560.76C127.41 560.58 133.41 560.58 134.47 560.76ZM132.79 562.26C132.41 562.18 128.41 562.18 128.01 562.26C127.95 563.6 127.95 573.2 128.01 574.56C128.41 574.62 132.41 574.62 132.79 574.56C132.85 573.21 132.85 563.6 132.79 562.26ZM141.35 568.84C140.85 568.86 139.81 568.86 138.97 568.86C138.97 572.72 138.95 576.48 138.93 576.96C138.65 577.1 137.65 577.1 137.25 576.96C137.21 575.98 137.21 561.02 137.25 560.02C137.59 559.9 138.59 559.9 138.93 560.02C138.95 560.46 138.97 563.72 138.97 567.26C139.81 567.24 140.83 567.26 141.35 567.28C141.43 567.52 141.43 568.58 141.35 568.84Z" fill="white"/>
<path d="M142.11 566.96C143.09 566.94 151.47 566.94 152.65 566.96C152.73 567.3 152.71 568 152.65 568.36C151.47 568.4 143.09 568.4 142.11 568.36C142.03 568.02 142.03 567.34 142.11 566.96ZM142.69 562.78C142.69 561.04 144.19 559.8 147.37 559.8C150.55 559.8 152.05 561.04 152.05 562.78C152.05 564.54 150.55 565.78 147.37 565.78C144.19 565.78 142.69 564.54 142.69 562.78ZM142.87 572.87C144.69 572.85 149.01 572.87 150.19 572.87V571.19H142.79C142.69 570.73 142.69 570.33 142.79 569.89C143.97 569.83 150.67 569.83 151.83 569.89C151.95 570.71 151.97 573.47 151.83 574.07C150.39 574.09 145.57 574.07 144.55 574.07V575.85C145.45 575.83 150.81 575.83 152.37 575.85C152.49 576.17 152.49 576.85 152.37 577.19C150.87 577.27 144.53 577.29 142.87 577.19C142.75 576.27 142.75 573.85 142.87 572.87ZM150.29 562.78C150.29 561.84 149.49 561.18 147.37 561.18C145.25 561.18 144.45 561.84 144.45 562.78C144.45 563.74 145.25 564.4 147.37 564.4C149.49 564.4 150.29 563.74 150.29 562.78Z" fill="white"/>
<path d="M224.93 569.34C225.07 568.88 227.19 564.36 228.25 562.14C226.71 562.14 225.41 562.12 225.01 562.1C224.91 561.82 224.91 560.86 225.01 560.58C226.11 560.52 233.63 560.52 234.69 560.58C234.79 560.86 234.79 561.8 234.69 562.1C234.27 562.12 232.93 562.14 231.39 562.14C232.49 564.28 234.77 568.8 234.93 569.24C234.65 569.56 233.89 569.9 233.47 569.94C233.19 569.52 230.79 564.62 229.83 562.56C228.89 564.74 226.67 569.54 226.41 569.96C225.99 569.95 225.21 569.62 224.93 569.34ZM240.89 576.69C239.53 576.75 226.73 576.75 225.87 576.69C225.81 575.47 225.79 572.13 225.87 571.07C226.21 570.95 227.13 570.95 227.57 571.07C227.57 571.95 227.59 574.19 227.57 575.15C229.21 575.13 239.99 575.13 240.89 575.15C240.97 575.51 240.97 576.31 240.89 576.69ZM234.95 565.86C234.83 565.52 234.83 564.7 234.95 564.38C235.59 564.34 237.49 564.34 238.63 564.36C238.63 562.22 238.63 560.4 238.65 560.02C239.01 559.9 239.95 559.9 240.31 560.02C240.39 561.02 240.39 571.44 240.31 572.44C240.01 572.52 239.07 572.52 238.65 572.44C238.63 571.94 238.61 568.86 238.63 565.88C237.49 565.92 235.59 565.9 234.95 565.86Z" fill="white"/>
<path d="M256.15 569.83C254.95 569.85 243.39 569.85 242.39 569.83C242.33 569.39 242.33 568.79 242.39 568.31C242.85 568.31 245.57 568.29 248.47 568.29C248.45 567.69 248.45 566.95 248.47 566.33C246.01 566.33 243.71 566.31 243.13 566.27C243.01 564.55 243.01 562.23 243.13 560.49C244.09 560.35 253.87 560.35 255.23 560.49C255.29 560.85 255.29 561.51 255.23 561.89C254.01 561.91 245.77 561.91 244.81 561.89V564.87C246.09 564.83 254.27 564.83 255.43 564.87C255.49 565.23 255.49 565.91 255.43 566.27C254.93 566.31 252.67 566.33 250.21 566.33C250.23 566.95 250.23 567.69 250.23 568.29C253.03 568.29 255.61 568.31 256.15 568.31C256.21 568.8 256.21 569.38 256.15 569.83ZM255.75 574.33C255.75 576.27 253.69 577.49 249.27 577.49C244.85 577.49 242.79 576.27 242.79 574.33C242.79 572.39 244.85 571.17 249.27 571.17C253.69 571.17 255.75 572.39 255.75 574.33ZM254.01 574.33C254.01 573.37 252.77 572.59 249.27 572.59C245.77 572.59 244.53 573.37 244.53 574.33C244.53 575.29 245.77 576.07 249.27 576.07C252.77 576.07 254.01 575.29 254.01 574.33Z" fill="white"/>
<path d="M257.57 563.18C257.43 562.92 257.43 562.04 257.57 561.78C258.21 561.74 260.15 561.72 262.25 561.72C262.23 561 262.25 560.06 262.27 559.54C262.61 559.44 263.63 559.42 263.95 559.54C263.99 560.06 264.01 561 263.99 561.72C265.99 561.72 267.81 561.74 268.43 561.78C268.55 562.02 268.55 562.9 268.43 563.18C266.99 563.22 258.99 563.22 257.57 563.18ZM257.87 567.08C257.87 565.38 259.63 564.18 263.13 564.18C266.63 564.18 268.39 565.38 268.39 567.08C268.39 568.82 266.63 570 263.13 570C259.63 570 257.87 568.82 257.87 567.08ZM272.29 574.09C272.29 575.99 270.33 577.23 265.35 577.23C260.39 577.23 258.43 575.99 258.43 574.09C258.43 572.19 260.39 570.95 265.35 570.95C270.33 570.95 272.29 572.19 272.29 574.09ZM259.49 567.08C259.49 568.02 260.67 568.64 263.13 568.64C265.59 568.64 266.77 568.02 266.77 567.08C266.77 566.16 265.59 565.54 263.13 565.54C260.67 565.54 259.49 566.16 259.49 567.08ZM270.55 574.09C270.55 573.13 269.21 572.41 265.35 572.41C261.51 572.41 260.17 573.13 260.17 574.09C260.17 575.05 261.51 575.77 265.35 575.77C269.21 575.77 270.55 575.05 270.55 574.09ZM274.29 566.88C274.39 567.12 274.39 568.1 274.29 568.32C273.79 568.36 272.75 568.38 271.89 568.36C271.87 569.34 271.85 570.1 271.83 570.36C271.55 570.44 270.61 570.44 270.19 570.36C270.13 569.38 270.13 561.02 270.19 560.02C270.55 559.9 271.49 559.9 271.83 560.02C271.87 560.36 271.89 561.6 271.89 563.12C272.75 563.1 273.79 563.12 274.29 563.14C274.39 563.4 274.39 564.36 274.29 564.58C273.79 564.62 272.77 564.64 271.91 564.62V566.86C272.77 566.84 273.79 566.86 274.29 566.88Z" fill="white"/>
<path d="M290.03 576.369C289.01 576.409 275.93 576.409 275.07 576.369C274.99 575.949 274.99 575.269 275.07 574.869C275.33 574.849 276.65 574.849 278.43 574.829C278.41 572.829 278.41 568.049 278.45 567.209C278.81 567.109 279.77 567.109 280.13 567.209C280.15 568.049 280.15 572.809 280.13 574.829H282.95C282.93 572.809 282.93 568.049 282.97 567.209C283.33 567.109 284.29 567.109 284.65 567.209C284.67 568.049 284.67 572.829 284.65 574.829C287.33 574.849 289.63 574.849 290.03 574.869C290.09 575.289 290.11 575.969 290.03 576.369ZM275.81 562.239C275.71 561.859 275.71 561.159 275.81 560.759C276.91 560.679 288.19 560.679 289.15 560.759C289.23 561.639 289.19 571.059 289.15 571.859C288.73 571.939 287.97 571.939 287.49 571.859C287.47 570.839 287.47 563.679 287.49 562.239C286.49 562.279 276.75 562.279 275.81 562.239Z" fill="white"/>
<path d="M889.44 314.57C883.54 318.3 877.78 314.46 873.85 311.35C866.64 305.65 860.63 298.58 855.61 290.46C852.7 285.76 857.3 285.98 857.59 283.65C859.64 267.16 866.15 250.91 848.3 237.16C839.12 230.09 838.38 215.19 829.3 206.28C828.99 205.97 828.88 205.62 828.91 205.22C828.93 204.97 829 204.7 829.11 204.42C829.27 204 829.54 203.54 829.82 203.07C830.86 201.35 832.34 199.39 831.71 197.66C831.34 196.66 830.26 195.74 827.95 195.01C827.95 195.01 827.95 195.01 827.95 195C824.99 186.19 820.74 183.88 811.71 189.22C799.52 196.43 788.54 207.59 772.08 204.53C768.6 203.88 766.59 206.57 767.81 210.47C751.2 204.52 746.57 188.06 740.82 174.86C735.69 163.1 731.37 150.67 722.94 141.59C708.96 126.55 706.79 106.69 698.54 89.4398C689.66 70.8798 671.21 54.1598 651.49 56.4598C638 58.0398 638.54 52.9998 641.18 43.8398C638.57 43.8398 635.96 43.8398 633.34 43.8398C635.47 46.0298 634.03 48.6798 632.47 49.1698C615.18 54.6098 600.95 67.1398 583.05 70.8398C575.36 72.4298 568.16 74.8698 561.33 78.3998C547.25 85.6598 538.34 72.0898 526.57 70.1598C526.21 70.0998 525.85 69.9798 525.49 69.8198C525.18 69.6798 524.86 69.5098 524.55 69.3298C522.35 68.0798 520.18 66.3198 518.07 70.3198C517.77 69.1798 517.47 68.0498 517.17 66.9198C515.4 68.7498 513.63 70.5798 511.86 72.3998C510.83 70.0498 510.07 67.6898 506.7 67.4798C497.1 66.8598 487.51 66.0598 477.93 65.1498C472.47 64.6398 470.59 68.5498 468.17 72.1898C462.57 80.6298 453.96 83.2998 444.54 83.0198C439.5 82.8698 434.59 82.6898 432.81 74.8498C431.56 69.3398 420.95 68.5798 419.09 72.2498C413.35 83.6198 406.87 77.8198 401.33 74.1898C393.42 68.9998 387.89 68.1198 378.3 73.1298C368.57 78.2098 355.48 76.8098 343.87 78.3698C341.78 78.6498 339.77 79.4998 337.73 80.0798C328.82 77.8998 321.23 87.2398 312.07 83.0198C312.07 84.7598 312.07 86.4998 312.07 88.2398C314.56 88.1198 317.05 87.9998 319.53 87.8698C319.93 88.3798 320.26 88.8798 320.52 89.3598C324.46 96.4998 314.19 100.07 314.8 106.38C317.46 107.81 314.95 108.96 314.43 110.22C314.16 109.99 313.95 109.77 313.77 109.55C313.73 109.5 313.69 109.45 313.66 109.4C313.51 109.19 313.39 108.98 313.32 108.77C313.32 108.76 313.31 108.75 313.31 108.75C313.24 108.51 313.22 108.28 313.25 108.05C313.25 108.04 313.25 108.04 313.25 108.03C313.28 107.8 313.37 107.58 313.51 107.36C313.27 107.37 313.02 107.32 312.78 107.18C312.54 107.04 312.29 106.83 312.05 106.53C312.05 110.88 312.05 115.24 312.05 119.59C312.61 119.26 313.14 119.04 313.64 118.9C317.16 117.98 319.46 121.5 322.46 122.5C322.46 122.49 322.45 122.48 322.45 122.46H322.46C323.07 123.3 323.68 124.15 324.29 124.99L324.01 124.95L323.83 124.92C324.89 125.73 325.94 126.54 326.99 127.35C326.99 127.35 326.99 127.35 326.99 127.36C330.92 132.31 330.87 140.32 338.53 142.42C333.33 150.75 341.22 160.51 335.76 168.98C335.32 169.67 337.41 172.7 338.93 173.81C345.48 178.62 356.85 178.9 354.3 192.06C353.96 193.8 359.06 195.12 361.8 190.46C367.71 180.42 380.09 177.09 385.91 166.39C385.2 177.96 393.01 187.13 389.53 198.24C388.74 200.75 394.09 211.24 399.11 216.49C405.79 223.48 412.67 219.83 420.07 216.95C441 208.81 446.59 212.55 456.57 239.22C459.49 247.03 460.01 256.81 470.7 259.24C471.89 266.58 471.07 272.2 462.01 274.13C455.55 275.51 446.01 277.42 447.79 285.84C449.36 293.24 457.41 298.99 465.64 299.46C473.31 299.89 475.27 303.39 479.09 309.46C487.5 322.81 493.56 335.78 492.43 352.03C491.61 363.91 487.43 374.95 484.45 386.04C481.16 398.32 489.06 409.1 485.54 421.02C484.58 424.26 491.83 427.45 495.1 430.18C503.56 437.25 502.71 447.94 507.9 456.09C510.37 459.97 505.64 461.52 502.2 463.86C495.27 468.57 484.91 469.23 484.01 482.39C483.59 488.56 470.97 489.51 463.49 491.62C450.76 495.21 452.59 506.78 449.44 515.65C446.57 523.72 454.12 523.34 457.93 525.65C463.65 529.12 469.25 533.25 476.77 529.18C479.87 527.5 483.33 528.1 484.02 533.1C484.45 536.25 486.9 539.25 489.65 539.72C501.13 541.67 500.95 550.06 500.42 558.42C500.06 564.16 501.28 566.81 507.21 569.99C521.97 577.91 532.02 590.44 534.05 607.99C536.66 607.99 539.27 607.99 541.89 607.99C545.08 596.51 551.46 587.23 561.94 581.48C564.95 579.83 565.75 577.91 565.29 575.5C562.67 561.83 570.82 551.54 575.64 540.08C579.06 531.92 584.99 530.01 591.83 532.84C597.59 535.23 603.61 535.3 609.24 537.2C615.65 539.36 621.73 542.39 622.83 531.79C622.9 531.07 623.62 530.41 624.03 529.72C635.12 539.92 638.1 523.95 645.97 522.73C655.71 521.22 660.42 512 667.06 505.62C670.77 502.05 678.3 502.36 683.79 504.82C690.69 507.92 691.16 506.97 694.96 499.25C700.93 487.15 700.82 475.17 703.8 463.36C707.17 450 720.5 435.74 734.85 435.54C747.13 435.37 764.77 437.49 769.82 455.93C770.79 459.46 775.24 462.05 778.38 465.37C780.36 462.57 781.83 460.43 783.38 458.35C795.1 442.67 796.99 442.6 812.17 454.48C816.84 458.13 821.49 464.68 828.9 459.57C835.35 455.11 832.5 448.7 830.83 443.35C829.8 440.05 829.41 438.89 832.19 436.02C839.02 428.97 838.61 428.57 833.82 419.84C849.7 416.11 875.03 388.44 876.4 373.34C897.57 364.23 909.23 348.17 911.41 325.25C912.11 317.94 915.23 313.11 923.23 312.84C923.23 311.97 923.23 311.1 923.23 310.23C911.73 309.59 900.13 307.81 889.44 314.57Z" fill="#FFA87F"/>
<path d="M889.44 305.53C883.54 309.26 877.78 305.42 873.85 302.31C866.64 296.61 860.63 289.54 855.61 281.42C852.7 276.72 857.3 276.94 857.59 274.61C859.64 258.12 866.15 241.87 848.3 228.12C839.12 221.05 838.38 206.15 829.3 197.24C828.99 196.93 828.88 196.58 828.91 196.18C828.93 195.93 829 195.66 829.11 195.38C829.27 194.96 829.54 194.5 829.82 194.03C830.86 192.31 832.34 190.35 831.71 188.63C831.34 187.63 830.26 186.71 827.95 185.98C827.95 185.98 827.95 185.98 827.95 185.97C824.99 177.16 820.74 174.85 811.71 180.19C799.52 187.4 788.54 198.56 772.08 195.5C768.6 194.85 766.59 197.54 767.81 201.44C751.2 195.49 746.57 179.03 740.82 165.83C735.69 154.07 731.37 141.64 722.94 132.56C708.96 117.52 706.79 97.6596 698.54 80.4096C689.66 61.8496 671.21 45.1296 651.49 47.4296C638 49.0096 638.54 43.9696 641.18 34.8096C638.57 34.8096 635.96 34.8096 633.34 34.8096C635.47 36.9996 634.03 39.6496 632.47 40.1396C615.18 45.5796 600.95 58.1096 583.05 61.8096C575.36 63.3996 568.16 65.8396 561.33 69.3696C547.25 76.6296 538.34 63.0596 526.57 61.1296C526.21 61.0696 525.85 60.9496 525.49 60.7896C525.18 60.6496 524.86 60.4796 524.55 60.2996C522.35 59.0496 520.18 57.2896 518.07 61.2896C517.77 60.1496 517.47 59.0196 517.17 57.8896C515.4 59.7196 513.63 61.5496 511.86 63.3696C510.83 61.0196 510.07 58.6596 506.7 58.4496C497.1 57.8296 487.51 57.0296 477.93 56.1196C472.47 55.6096 470.59 59.5196 468.17 63.1596C462.57 71.5996 453.96 74.2696 444.54 73.9896C439.5 73.8396 434.59 73.6596 432.81 65.8196C431.56 60.3096 420.95 59.5496 419.09 63.2196C413.35 74.5896 406.87 68.7896 401.33 65.1596C393.42 59.9696 387.89 59.0896 378.3 64.0996C368.57 69.1796 355.48 67.7796 343.87 69.3396C341.78 69.6196 339.77 70.4696 337.73 71.0496C328.82 68.8696 321.23 78.2096 312.07 73.9896C312.07 75.7296 312.07 77.4696 312.07 79.2096C314.56 79.0896 317.05 78.9696 319.53 78.8396C319.93 79.3496 320.26 79.8496 320.52 80.3296C324.46 87.4696 314.19 91.0396 314.8 97.3496C317.46 98.7796 314.95 99.9296 314.43 101.19C314.16 100.96 313.95 100.74 313.77 100.52C313.73 100.47 313.69 100.42 313.66 100.37C313.51 100.16 313.39 99.9496 313.32 99.7396C313.32 99.7296 313.31 99.7196 313.31 99.7196C313.24 99.4796 313.22 99.2496 313.25 99.0196C313.25 99.0096 313.25 99.0096 313.25 98.9996C313.28 98.7696 313.37 98.5496 313.51 98.3296C313.27 98.3396 313.02 98.2896 312.78 98.1496C312.54 98.0096 312.29 97.7996 312.05 97.4996C312.05 101.85 312.05 106.21 312.05 110.56C312.61 110.23 313.14 110.01 313.64 109.87C317.16 108.95 319.46 112.47 322.46 113.47C322.46 113.46 322.45 113.45 322.45 113.43H322.46C323.07 114.27 323.68 115.12 324.29 115.96L324.01 115.92L323.83 115.89C324.89 116.7 325.94 117.51 326.99 118.32C326.99 118.32 326.99 118.32 326.99 118.33C330.92 123.28 330.87 131.29 338.53 133.39C333.33 141.72 341.22 151.48 335.76 159.95C335.32 160.64 337.41 163.67 338.93 164.78C345.48 169.59 356.85 169.87 354.3 183.03C353.96 184.77 359.06 186.09 361.8 181.43C367.71 171.39 380.09 168.06 385.91 157.36C385.2 168.93 393.01 178.1 389.53 189.21C388.74 191.72 394.09 202.21 399.11 207.46C405.79 214.45 412.67 210.8 420.07 207.92C441 199.78 446.59 203.52 456.57 230.19C459.49 238 460.01 247.78 470.7 250.21C471.89 257.55 471.07 263.17 462.01 265.1C455.55 266.48 446.01 268.39 447.79 276.81C449.36 284.21 457.41 289.96 465.64 290.43C473.31 290.86 475.27 294.36 479.09 300.43C487.5 313.78 493.56 326.75 492.43 343C491.61 354.88 487.43 365.92 484.45 377.01C481.16 389.29 489.06 400.07 485.54 411.99C484.58 415.23 491.83 418.42 495.1 421.15C503.56 428.22 502.71 438.91 507.9 447.06C510.37 450.94 505.64 452.49 502.2 454.83C495.27 459.54 484.91 460.2 484.01 473.36C483.59 479.53 470.97 480.48 463.49 482.59C450.76 486.18 452.59 497.75 449.44 506.62C446.57 514.69 454.12 514.3 457.93 516.62C463.65 520.09 469.25 524.22 476.77 520.15C479.87 518.47 483.33 519.07 484.02 524.07C484.45 527.22 486.9 530.22 489.65 530.69C501.13 532.64 500.95 541.03 500.42 549.39C500.06 555.13 501.28 557.78 507.21 560.96C521.97 568.88 532.02 581.41 534.05 598.96C536.66 598.96 539.27 598.96 541.89 598.96C545.08 587.48 551.46 578.2 561.94 572.45C564.95 570.8 565.75 568.88 565.29 566.47C562.67 552.8 570.82 542.51 575.64 531.05C579.06 522.89 584.99 520.98 591.83 523.81C597.59 526.2 603.61 526.27 609.24 528.17C615.65 530.33 621.73 533.36 622.83 522.76C622.9 522.04 623.62 521.38 624.03 520.69C635.12 530.89 638.1 514.92 645.97 513.7C655.71 512.19 660.42 502.97 667.06 496.59C670.77 493.02 678.3 493.33 683.79 495.79C690.69 498.89 691.16 497.94 694.96 490.22C700.93 478.12 700.82 466.14 703.8 454.33C707.17 440.97 720.5 426.71 734.85 426.51C747.13 426.34 764.77 428.46 769.82 446.9C770.79 450.43 775.24 453.02 778.38 456.34C780.36 453.54 781.83 451.4 783.38 449.32C795.1 433.64 796.99 433.57 812.17 445.45C816.84 449.1 821.49 455.65 828.9 450.54C835.35 446.08 832.5 439.67 830.83 434.32C829.8 431.02 829.41 429.86 832.19 426.99C839.02 419.94 838.61 419.54 833.82 410.81C849.7 407.08 875.03 379.41 876.4 364.31C897.57 355.2 909.23 339.14 911.41 316.22C912.11 308.91 915.23 304.08 923.23 303.81C923.23 302.94 923.23 302.07 923.23 301.2C911.73 300.55 900.13 298.77 889.44 305.53Z" fill="#FFDBB7"/>
<path d="M525.55 141.83L497.45 141.43V141.42H497.28H497.11V141.43L438.11 142.28L440.49 157.58C440.49 157.58 444.05 201.26 497.11 201.44C497.17 201.44 497.22 201.44 497.28 201.44C497.34 201.44 497.39 201.44 497.45 201.44C500.05 201.43 502.53 201.31 504.9 201.11C514.69 191.37 524.15 173.74 525.55 141.83Z" fill="#D4C2A4"/>
<path d="M525.55 141.83C524.15 173.74 514.69 191.37 504.9 201.11C550.85 197.07 554.07 157.58 554.07 157.58L556.45 142.28L525.55 141.83Z" fill="#BEA989"/>
<path d="M556.91 139.16C556.91 162.67 530.21 181.73 497.27 181.73C464.33 181.73 437.63 162.67 437.63 139.16C437.63 115.65 464.33 96.5898 497.27 96.5898C530.21 96.5898 556.91 115.65 556.91 139.16Z" fill="#EEE2CB"/>
<path d="M497.28 98.8594C466.01 98.8594 440.66 116.899 440.66 139.159C440.66 143.799 441.77 148.249 443.79 152.389C444.4 150.609 446.11 148.059 450.93 147.769C450.93 147.769 450.7 145.839 453.65 146.409C456.6 146.979 460.68 145.049 462.49 143.579C464.3 142.109 476.32 137.799 480.4 141.879C480.4 141.879 487.43 140.859 490.6 145.279C492.48 147.899 493.05 150.269 493.2 151.779C497.3 151.779 511.63 150.519 515.77 150.139C515.65 149.679 515.54 149.209 515.42 148.729C515.42 148.729 515.42 144.479 519.16 145.329C519.16 145.329 538.37 144.479 540.41 152.979C540.41 152.979 544.83 148.389 548.57 151.789C548.57 151.789 549.34 152.529 550.08 153.689C552.53 149.179 553.88 144.279 553.88 139.149C553.9 116.899 528.55 98.8594 497.28 98.8594Z" fill="#BEA989"/>
<path d="M492.13 117.449C492.13 117.449 500.63 110.819 502.16 113.369L502.33 115.409C502.33 115.409 506.75 115.919 510.32 119.659C510.32 119.659 528.34 115.409 530.89 125.949C533.44 136.489 506.75 140.229 506.75 140.229C506.75 140.229 489.58 135.639 492.13 117.449Z" fill="#00A623"/>
<path d="M506.58 141.59C506.58 141.59 506.58 139.21 509.47 138.87C509.47 138.87 508.28 137.34 509.64 136.15C509.64 136.15 506.41 134.79 504.54 135.81L505.73 132.92C505.73 132.92 508.79 132.75 511.34 134.11C511.34 134.11 513.55 126.63 522.05 127.14C522.05 127.14 526.13 122.38 532.93 123.06C532.93 123.06 535.14 124.59 535.31 126.63C535.31 126.63 542.45 129.18 544.66 133.09C544.66 133.09 544.83 134.45 543.64 135.3C543.64 135.3 551.97 143.46 547.89 153.32L509.29 152.81L506.58 141.59Z" fill="#FF872B"/>
<path d="M510.49 136.659C510.49 136.659 526.47 143.459 538.21 134.109L539.91 136.149C539.91 136.149 531.07 145.669 511.17 139.889L510.49 136.659Z" fill="#FF4D07"/>
<path d="M531.58 142.779C531.58 142.779 543.82 147.539 545.86 153.489L548.24 152.299C548.24 152.299 542.8 144.649 534.47 141.419" fill="#FF4D07"/>
<path d="M521.039 123.909C521.039 123.909 515.429 134.109 523.249 140.739L526.989 140.909C526.989 140.909 519.509 136.319 522.399 123.569L521.039 123.909Z" fill="#FF4D07"/>
<path d="M497.569 129.519C500.289 126.289 498.079 123.399 498.079 123.399C502.329 119.659 500.459 114.729 498.929 116.259C497.399 117.789 495.529 117.449 495.529 117.449C496.889 113.879 490.599 113.709 490.599 113.709C490.599 113.709 490.259 109.799 485.669 110.139C481.079 110.479 480.059 116.769 480.059 116.769C480.059 116.769 475.469 114.729 474.109 116.259C472.749 117.789 476.829 119.659 476.829 119.659C472.239 120.509 471.729 125.269 471.729 125.269L484.309 144.989C484.309 144.989 499.949 143.119 502.329 137.339C504.709 131.559 497.569 129.519 497.569 129.519Z" fill="#FF4D07"/>
<path d="M476.83 119.659C476.83 119.659 485.33 120.339 485.33 130.539C485.33 131.219 492.47 131.219 495.19 139.039C495.19 139.039 494.68 130.539 488.05 129.349C488.05 129.349 488.73 119.659 476.83 119.659Z" fill="#EF2313"/>
<path d="M494.849 117.619C494.849 117.619 494.779 117.669 494.669 117.759C494.939 117.649 495.229 117.549 495.529 117.449L494.849 117.619Z" fill="#EF2313"/>
<path d="M491.62 125.439C490.42 121.399 493.83 118.419 494.67 117.759C485.65 121.219 490.77 127.139 490.77 127.139C494 125.609 497.57 129.519 497.57 129.519C497.06 125.439 491.62 125.439 491.62 125.439Z" fill="#EF2313"/>
<path d="M490.6 113.709C490.6 113.709 485.33 115.749 484.82 123.059L482.1 120.439C482.1 120.439 484.14 113.539 490.6 113.709Z" fill="#EF2313"/>
<path d="M536.68 125.1C536.68 125.1 539.23 142.44 524.95 148.05L526.99 150.6C526.99 150.6 542.12 142.61 538.72 126.8L536.68 125.1Z" fill="#FF4D07"/>
<path d="M450.47 148.73C450.47 148.73 445.37 145.84 446.22 144.48C447.07 143.12 449.96 145.5 449.96 145.5C449.96 145.5 446.9 140.91 449.28 140.4C451.66 139.89 451.15 143.12 453.53 143.8C453.53 143.8 452.51 138.7 449.11 136.49C445.71 134.28 449.96 132.92 453.19 137.68C456.42 142.44 453.53 138.36 453.53 138.36C453.53 138.36 452.34 132.92 457.27 133.26C457.27 133.26 455.57 128.5 462.54 127.31C462.54 127.31 469.51 118.64 480.9 130.03C480.9 130.03 482.94 131.73 481.07 132.75C479.2 133.77 477.16 131.05 477.16 131.05C477.16 131.05 481.75 135.81 485.15 135.81C488.55 135.81 487.53 137.34 486.17 138.02C484.81 138.7 479.88 137.51 479.88 137.51C479.88 137.51 485.83 137.68 486.68 143.46C487.54 149.24 450.47 148.73 450.47 148.73Z" fill="#A6613B"/>
<path d="M461.87 131.05C461.87 131.05 467.14 136.32 473.77 133.6C473.77 133.6 476.49 136.32 480.4 136.49C480.4 136.49 477.34 138.19 473.77 136.83C473.77 136.83 463.06 136.66 461.87 131.05Z" fill="#804428"/>
<path d="M461.01 146.18C461.01 146.18 455.06 137.34 456.25 130.37C457.44 123.4 458.97 129.35 458.63 131.22C458.29 133.09 462.2 144.14 462.71 144.31" fill="#804428"/>
<path d="M472.58 135.13C472.58 135.13 467.65 127.31 471.9 124.59C471.9 124.59 471.9 131.73 474.79 135.64C477.68 139.55 477.34 139.04 475.81 142.61L473.6 142.27C473.6 142.27 476.49 139.38 472.58 135.13Z" fill="#804428"/>
<path d="M480.4 141.879C476.32 137.799 464.3 142.109 462.49 143.579C460.68 145.049 456.6 146.979 453.65 146.409C450.7 145.839 450.93 147.769 450.93 147.769C446.11 148.059 444.4 150.609 443.79 152.389C447.96 160.919 456.04 168.149 466.51 172.989C472.49 155.499 490.27 153.329 490.27 153.329C491.4 151.519 492.31 151.739 492.31 151.739C492.49 151.769 492.8 151.779 493.21 151.779C493.06 150.269 492.49 147.899 490.61 145.279C487.43 140.859 480.4 141.879 480.4 141.879Z" fill="#9DDD8C"/>
<path d="M492.299 151.74C492.479 151.77 492.789 151.78 493.199 151.78C493.149 151.31 493.059 150.76 492.909 150.14C489.689 151.87 485.609 149.02 485.609 149.02C481.369 151.09 478.079 147.88 477.529 147.29C478.679 146.1 479.649 144.59 480.279 142.67C480.279 142.67 475.519 150.04 465.199 149.92C465.199 149.92 460.099 152.07 453.859 148.56C453.859 148.56 451.139 145.61 451.369 148.45C451.379 148.54 451.779 149.12 452.549 149.82C451.009 150.12 447.389 151.09 444.529 153.84C444.849 154.43 445.199 155.01 445.559 155.58C447.039 154.32 449.869 152.31 454.019 150.95C455.129 151.68 456.569 152.35 458.309 152.66C458.609 154.75 459.089 160.66 456.369 167.02C456.899 167.41 457.439 167.8 457.989 168.18C459.179 165.45 461.059 159.69 459.629 152.81C461.329 152.9 463.259 152.62 465.419 151.74C465.419 151.74 466.499 151.79 468.099 151.59C467.659 157.8 470.019 161.85 471.579 163.82C472.099 163.2 472.629 162.61 473.169 162.06C469.589 157.2 470.169 152.28 470.359 151.17C472.279 150.71 474.449 149.86 476.349 148.35C480.609 152.11 485.709 150.6 485.709 150.6C487.219 152.11 489.089 152.59 490.719 152.65C491.639 151.58 492.299 151.74 492.299 151.74Z" fill="#00A623"/>
<path d="M492.299 151.74C492.299 151.74 491.39 151.51 490.26 153.33C490.26 153.33 472.48 155.5 466.5 172.99C475.36 177.08 485.92 179.46 497.27 179.46C508.069 179.46 518.16 177.31 526.75 173.57C522.84 170.2 519.01 163.09 515.76 150.14C511.22 150.55 494.359 152.03 492.299 151.74Z" fill="#FFECDB"/>
<path d="M492.639 152.19C492.639 152.19 492.189 156.27 496.489 159.1C496.489 159.1 496.719 177.69 519.959 173.5C543.199 169.31 515.989 151.96 515.989 151.96L492.639 152.19Z" fill="#E8D5C5"/>
<path d="M510.659 145.76C510.659 150.78 505.789 154.84 499.779 154.84C493.769 154.84 488.899 150.77 488.899 145.76C488.899 140.74 493.769 136.68 499.779 136.68C505.789 136.67 510.659 140.74 510.659 145.76Z" fill="#FFE300"/>
<path d="M550.099 153.69C549.359 152.54 548.589 151.79 548.589 151.79C544.849 148.39 540.429 152.98 540.429 152.98C538.389 144.48 519.179 145.33 519.179 145.33C515.439 144.48 515.439 148.73 515.439 148.73C518.759 162.57 522.719 170.07 526.769 173.56C537.309 168.98 545.579 162 550.099 153.69Z" fill="#FFC8B1"/>
<path d="M540.079 154C540.079 154 535.829 151.62 533.109 153.15C533.109 153.15 529.029 148.73 524.609 150.6L527.499 154.17C527.499 154.17 535.149 157.75 540.079 154Z" fill="#BF5145"/>
<path d="M498.25 155.02C498.25 155.02 497.57 150.6 504.2 150.09C510.83 149.58 517.12 145.33 523.41 149.24C529.7 153.15 537.35 166.92 528.51 172.02C519.68 177.13 496.55 179.34 498.25 155.02Z" fill="#F50909"/>
<path d="M495.019 153.779C495.019 153.779 478.809 161.029 472.919 174.979C472.919 174.979 485.609 159.789 495.019 153.779Z" fill="#E8D5C5"/>
<path d="M478.589 168.059C478.589 168.059 488.229 165.229 497.069 158.649C497.059 158.649 489.129 161.599 478.589 168.059Z" fill="#E8D5C5"/>
<path d="M490.38 179.17C490.38 179.17 486.87 169.99 482.67 166.47L481.31 166.7C481.31 166.7 486.41 174.75 490.38 179.17Z" fill="#E8D5C5"/>
<path d="M486.18 164.439C486.18 164.439 494.23 173.389 503.41 179.179C503.41 179.169 492.41 167.499 486.18 164.439Z" fill="#E8D5C5"/>
<path d="M497.52 161.26C497.52 161.26 495.48 167.49 497.07 173.39L498.43 174.86L497.52 161.26Z" fill="#E8D5C5"/>
<path d="M524.27 124.93C524.27 124.93 534.98 138.19 546.71 136.15L547.22 138.87C547.22 138.87 533.28 139.55 522.06 127.14L524.27 124.93Z" fill="#FFC36E"/>
<path d="M503.52 116.939C503.52 116.939 509.47 121.529 505.73 128.839C505.73 128.839 505.73 123.399 503.52 116.939Z" fill="#00C933"/>
<path d="M525.29 119.66C525.29 119.66 515.43 119.66 510.67 129.86C510.66 129.86 509.47 115.24 525.29 119.66Z" fill="#00C933"/>
<path d="M647.01 175.59H625.98V185.18H647.01V175.59Z" fill="#BF5E4D"/>
<path d="M648.75 186.239H624.25V255.199H648.75V186.239Z" fill="#BF5E4D"/>
<path d="M618.52 231.499L600.15 244.279V299.129H620.12L618.52 231.499Z" fill="#BF5E4D"/>
<path d="M654.47 231.499L672.84 244.279V299.129H652.87L654.47 231.499Z" fill="#BF5E4D"/>
<path d="M636.5 228.299C630.71 228.299 626 233.009 626 238.799V275.139H647V238.799C646.99 233.009 642.28 228.299 636.5 228.299Z" fill="#E9DAC2"/>
<path d="M632.77 200.449C631.36 200.449 630.21 201.599 630.21 203.009V218.689H635.33V203.009C635.33 201.599 634.18 200.449 632.77 200.449Z" fill="#806A54"/>
<path d="M640.22 200.449C638.81 200.449 637.66 201.599 637.66 203.009V218.689H642.78V203.009C642.78 201.599 641.64 200.449 640.22 200.449Z" fill="#806A54"/>
<path d="M636.5 229.64C631.44 229.64 627.33 233.74 627.33 238.81V273.82H645.67V238.8C645.66 233.74 641.56 229.64 636.5 229.64Z" fill="#BF5E4D"/>
<path d="M623.85 198.749L621.05 201.539V222.309L617.59 226.039V265.049H627.31V198.749H623.85Z" fill="#CEBC9B"/>
<path d="M649.14 198.749L651.94 201.539V222.309L655.4 226.039V265.049H645.68V198.749H649.14Z" fill="#CEBC9B"/>
<path d="M637.59 248.599C637.59 246.189 635.63 244.239 633.23 244.239C630.82 244.239 628.87 246.199 628.87 248.599V256.709H637.59V248.599Z" fill="#CEBC9B"/>
<path d="M633.229 246.47C632.059 246.47 631.109 247.42 631.109 248.59V256.7H635.359V248.59C635.349 247.42 634.399 246.47 633.229 246.47Z" fill="#806A54"/>
<path d="M644.119 248.599C644.119 246.189 642.159 244.239 639.759 244.239C637.349 244.239 635.399 246.199 635.399 248.599V256.709H644.119V248.599Z" fill="#CEBC9B"/>
<path d="M639.76 246.47C638.59 246.47 637.64 247.42 637.64 248.59V256.7H641.89V248.59C641.89 247.42 640.93 246.47 639.76 246.47Z" fill="#806A54"/>
<path d="M647.68 256.259H625.31V265.049H647.68V256.259Z" fill="#E9DAC2"/>
<path d="M626.75 253.299V247.509L623.98 245.919L621.22 247.509V253.299L620.24 253.859V265.139H627.72V253.859L626.75 253.299Z" fill="#F6F7F7"/>
<path d="M651.77 253.299V247.509L649.01 245.919L646.25 247.509V253.299L645.27 253.859V265.139H652.75V253.859L651.77 253.299Z" fill="#F6F7F7"/>
<path d="M653.67 264.339H619.32V289.899H653.67V264.339Z" fill="#BF5E4D"/>
<path d="M651.54 285.549C651.54 277.249 644.79 270.509 636.5 270.509C628.21 270.509 621.46 277.259 621.46 285.549V313.509H651.55V285.549H651.54Z" fill="#CEBC9B"/>
<path d="M636.5 278.229C632.46 278.229 629.18 281.508 629.18 285.548V313.509H643.82V285.548C643.82 281.498 640.54 278.229 636.5 278.229Z" fill="#806A54"/>
<path d="M621.35 287.409C621.35 281.369 616.44 276.469 610.41 276.469C604.38 276.469 599.47 281.379 599.47 287.409V313.499H621.36V287.409H621.35Z" fill="#CEBC9B"/>
<path d="M610.4 282.089C607.46 282.089 605.07 284.479 605.07 287.419V313.509H615.72V287.419C615.73 284.469 613.34 282.089 610.4 282.089Z" fill="#806A54"/>
<path d="M673.53 287.409C673.53 281.369 668.62 276.469 662.58 276.469C656.55 276.469 651.64 281.379 651.64 287.409V313.499H673.53V287.409Z" fill="#CEBC9B"/>
<path d="M662.59 282.089C659.65 282.089 657.26 284.479 657.26 287.419V313.509H667.91V287.419C667.92 284.469 665.53 282.089 662.59 282.089Z" fill="#806A54"/>
<path d="M592.22 240.819L586.36 248.409V268.239L581.84 272.099V312.839H593.42L592.22 240.819Z" fill="#C2AE8D"/>
<path d="M602.89 225.369H591.44V313.499H602.89V225.369Z" fill="#E9DAC2"/>
<path d="M602.89 306.579H591.44V313.499H602.89V306.579Z" fill="#F6F7F7"/>
<path d="M603.82 240.419C603.82 240.789 603.52 241.089 603.15 241.089H591.17C590.8 241.089 590.5 240.789 590.5 240.419C590.5 240.049 590.8 239.749 591.17 239.749H603.15C603.52 239.749 603.82 240.049 603.82 240.419Z" fill="#CEBC9B"/>
<path d="M603.82 266.249C603.82 266.619 603.52 266.919 603.15 266.919H591.17C590.8 266.919 590.5 266.619 590.5 266.249C590.5 265.879 590.8 265.579 591.17 265.579H603.15C603.52 265.579 603.82 265.879 603.82 266.249Z" fill="#CEBC9B"/>
<path d="M597.16 230.699C596.31 230.699 595.63 231.379 595.63 232.229V236.819H598.69V232.229C598.7 231.389 598.01 230.699 597.16 230.699Z" fill="#806A54"/>
<path d="M597.16 251.999C596.31 251.999 595.63 252.679 595.63 253.529V258.119H598.69V253.529C598.7 252.689 598.01 251.999 597.16 251.999Z" fill="#806A54"/>
<path d="M597.16 274.629C596.31 274.629 595.63 275.309 595.63 276.159V280.749H598.69V276.159C598.7 275.319 598.01 274.629 597.16 274.629Z" fill="#806A54"/>
<path d="M597.16 292.469C596.31 292.469 595.63 293.159 595.63 293.999V298.589H598.69V293.999C598.7 293.159 598.01 292.469 597.16 292.469Z" fill="#806A54"/>
<path d="M603.95 222.449C603.95 217.599 600.91 213.659 597.16 213.659C593.41 213.659 590.37 217.589 590.37 222.449C590.37 223.529 590.53 224.559 590.8 225.509H603.51C603.8 224.549 603.95 223.529 603.95 222.449Z" fill="#005986"/>
<path d="M604.35 225.909C604.35 226.279 604.05 226.579 603.68 226.579H590.63C590.26 226.579 589.96 226.279 589.96 225.909C589.96 225.539 590.26 225.239 590.63 225.239H603.68C604.06 225.239 604.35 225.539 604.35 225.909Z" fill="#CEBC9B"/>
<path d="M680.77 240.819L686.63 248.409V268.239L691.15 272.099V312.839H679.57L680.77 240.819Z" fill="#C2AE8D"/>
<path d="M681.55 225.369H670.1V313.499H681.55V225.369Z" fill="#E9DAC2"/>
<path d="M681.55 306.579H670.1V313.499H681.55V306.579Z" fill="#F6F7F7"/>
<path d="M669.169 240.419C669.169 240.789 669.469 241.089 669.839 241.089H681.819C682.189 241.089 682.489 240.789 682.489 240.419C682.489 240.049 682.189 239.749 681.819 239.749H669.839C669.469 239.749 669.169 240.049 669.169 240.419Z" fill="#CEBC9B"/>
<path d="M669.169 266.249C669.169 266.619 669.469 266.919 669.839 266.919H681.819C682.189 266.919 682.489 266.619 682.489 266.249C682.489 265.879 682.189 265.579 681.819 265.579H669.839C669.469 265.579 669.169 265.879 669.169 266.249Z" fill="#CEBC9B"/>
<path d="M675.829 230.699C676.679 230.699 677.359 231.379 677.359 232.229V236.819H674.299V232.229C674.289 231.389 674.979 230.699 675.829 230.699Z" fill="#806A54"/>
<path d="M675.829 251.999C676.679 251.999 677.359 252.679 677.359 253.529V258.119H674.299V253.529C674.289 252.689 674.979 251.999 675.829 251.999Z" fill="#806A54"/>
<path d="M675.829 274.629C676.679 274.629 677.359 275.309 677.359 276.159V280.749H674.299V276.159C674.289 275.319 674.979 274.629 675.829 274.629Z" fill="#806A54"/>
<path d="M675.829 292.469C676.679 292.469 677.359 293.159 677.359 293.999V298.589H674.299V293.999C674.289 293.159 674.979 292.469 675.829 292.469Z" fill="#806A54"/>
<path d="M669.04 222.449C669.04 217.599 672.08 213.659 675.83 213.659C679.58 213.659 682.62 217.589 682.62 222.449C682.62 223.529 682.46 224.559 682.19 225.509H669.48C669.19 224.549 669.04 223.529 669.04 222.449Z" fill="#005986"/>
<path d="M668.64 225.909C668.64 226.279 668.94 226.579 669.31 226.579H682.36C682.73 226.579 683.03 226.279 683.03 225.909C683.03 225.539 682.73 225.239 682.36 225.239H669.3C668.93 225.239 668.64 225.539 668.64 225.909Z" fill="#CEBC9B"/>
<path d="M621.98 264.249H615.59V306.849H621.98V264.249Z" fill="#E9DAC2"/>
<path d="M621.98 306.849H615.59V313.509H621.98V306.849Z" fill="#F6F7F7"/>
<path d="M657.4 264.249H651.01V306.849H657.4V264.249Z" fill="#E9DAC2"/>
<path d="M657.4 306.849H651.01V313.509H657.4V306.849Z" fill="#F6F7F7"/>
<path d="M611.96 250.199C610.05 250.199 608.51 251.749 608.51 253.649V263.089H615.42V253.649C615.41 251.749 613.86 250.199 611.96 250.199Z" fill="#E9DAC2"/>
<path d="M611.96 251.529C610.79 251.529 609.84 252.479 609.84 253.649V261.759H614.09V253.649C614.08 252.479 613.13 251.529 611.96 251.529Z" fill="#806A54"/>
<path d="M661.03 250.199C659.13 250.199 657.58 251.749 657.58 253.649V263.089H664.49V253.649C664.49 251.749 662.94 250.199 661.03 250.199Z" fill="#E9DAC2"/>
<path d="M661.03 251.529C659.86 251.529 658.91 252.479 658.91 253.649V261.759H663.16V253.649C663.16 252.479 662.21 251.529 661.03 251.529Z" fill="#806A54"/>
<path d="M636.5 244.019C640.178 244.019 643.16 241.037 643.16 237.359C643.16 233.681 640.178 230.699 636.5 230.699C632.822 230.699 629.84 233.681 629.84 237.359C629.84 241.037 632.822 244.019 636.5 244.019Z" fill="#CEBC9B"/>
<path d="M640.75 237.359C640.75 235.009 638.85 233.109 636.5 233.109C634.15 233.109 632.25 235.009 632.25 237.359C632.25 239.709 634.15 241.609 636.5 241.609C638.84 241.609 640.75 239.709 640.75 237.359Z" fill="#806A54"/>
<path d="M638.36 195.019C638.36 193.989 637.53 193.159 636.5 193.159C635.47 193.159 634.64 193.989 634.64 195.019C634.64 196.049 635.47 196.879 636.5 196.879C637.52 196.889 638.36 196.049 638.36 195.019Z" fill="#806A54"/>
<path d="M624.82 169.66C624.82 161.32 630.05 154.56 636.49 154.56C642.94 154.56 648.16 161.32 648.16 169.66C648.16 171.51 647.89 173.28 647.42 174.92H625.56C625.09 173.28 624.82 171.51 624.82 169.66Z" fill="#005986"/>
<path d="M648.74 175.45C648.74 176.11 648.2 176.65 647.54 176.65H625.44C624.78 176.65 624.24 176.11 624.24 175.45C624.24 174.79 624.78 174.25 625.44 174.25H647.54C648.21 174.25 648.74 174.79 648.74 175.45Z" fill="#CEBC9B"/>
<path d="M649.89 184.819H623.09V187.299H649.89V184.819Z" fill="#CEBC9B"/>
<path d="M873.45 326.64H780.43V367.05H873.45V326.64Z" fill="#8D4E17"/>
<path d="M809.69 325.109H786.82V367.049H809.69V325.109Z" fill="#DCDDDD"/>
<path d="M809.69 338.459H786.82V363.999H809.69V338.459Z" fill="#00AF63"/>
<path d="M809.69 335.02H786.82V337.12H809.69V335.02Z" fill="#00AF63"/>
<path d="M809.69 328.039H786.82V333.809H809.69V328.039Z" fill="#00AF63"/>
<path d="M838.38 325.109H815.51V367.049H838.38V325.109Z" fill="#DCDDDD"/>
<path d="M838.38 338.459H815.51V363.999H838.38V338.459Z" fill="#00AF63"/>
<path d="M838.38 335.02H815.51V337.12H838.38V335.02Z" fill="#00AF63"/>
<path d="M838.38 328.039H815.51V333.809H838.38V328.039Z" fill="#00AF63"/>
<path d="M867.07 325.109H844.2V367.049H867.07V325.109Z" fill="#DCDDDD"/>
<path d="M867.07 338.459H844.2V363.999H867.07V338.459Z" fill="#00AF63"/>
<path d="M867.07 335.02H844.2V337.12H867.07V335.02Z" fill="#00AF63"/>
<path d="M867.07 328.039H844.2V333.809H867.07V328.039Z" fill="#00AF63"/>
<path d="M873.45 326.64H780.43V332.93H873.45V326.64Z" fill="#DCDDDD"/>
<path d="M868.02 296.39C857.96 298.24 843.29 299.42 826.94 299.42C810.59 299.42 795.92 298.25 785.86 296.39C783.02 308.03 777.2 317.08 769.97 320.81C771.6 326.7 774.41 330.6 777.6 330.6H876.27C879.46 330.6 882.27 326.7 883.9 320.81C876.69 317.08 870.86 308.03 868.02 296.39Z" fill="#005C7C"/>
<path d="M834.98 331.779H818.92V335.969H834.98V331.779Z" fill="#3D3736"/>
<path d="M894.71 365.909H759.18V375.629H894.71V365.909Z" fill="#DCDDDD"/>
<path d="M809.03 365.909H806.74V377.159H809.03V365.909Z" fill="#EEEEEE"/>
<path d="M818.56 365.909H816.271V377.159H818.56V365.909Z" fill="#EEEEEE"/>
<path d="M828.09 365.909H825.8V377.159H828.09V365.909Z" fill="#EEEEEE"/>
<path d="M837.62 365.909H835.33V377.159H837.62V365.909Z" fill="#EEEEEE"/>
<path d="M847.15 365.909H844.86V377.159H847.15V365.909Z" fill="#EEEEEE"/>
<path d="M721.03 218.391H715.71V237.151H721.03V218.391Z" fill="#00A052"/>
<path d="M721.03 237.15H715.71V273.9H721.03V237.15Z" fill="#8D4E17"/>
<path d="M743.59 218.391H738.27V237.151H743.59V218.391Z" fill="#00A052"/>
<path d="M743.59 237.15H738.27V273.9H743.59V237.15Z" fill="#8D4E17"/>
<path d="M795.55 218.391H790.23V237.151H795.55V218.391Z" fill="#00A052"/>
<path d="M795.55 237.15H790.23V273.9H795.55V237.15Z" fill="#8D4E17"/>
<path d="M818.11 218.391H812.79V237.151H818.11V218.391Z" fill="#00A052"/>
<path d="M818.11 237.15H812.79V273.9H818.11V237.15Z" fill="#8D4E17"/>
<path d="M820.14 232.841C820.14 233.961 819.23 234.871 818.11 234.871H715.71C714.59 234.871 713.68 233.961 713.68 232.841C713.68 231.721 714.59 230.811 715.71 230.811H818.11C819.23 230.811 820.14 231.721 820.14 232.841Z" fill="#00AF63"/>
<path d="M820.14 221.35C820.14 222.47 819.23 223.38 818.11 223.38H715.71C714.59 223.38 713.68 222.47 713.68 221.35C713.68 220.23 714.59 219.32 715.71 219.32H818.11C819.23 219.32 820.14 220.23 820.14 221.35Z" fill="#00AF63"/>
<path d="M783.82 222.36H750.02V232.84H783.82V222.36Z" fill="#21110D"/>
<path d="M816.07 201.07C804.09 202 786.61 202.59 767.14 202.59C747.67 202.59 730.19 202 718.21 201.07C714.83 206.91 707.89 211.45 699.29 213.33C701.24 216.29 704.58 218.24 708.38 218.24H825.9C829.7 218.24 833.05 216.28 834.99 213.33C826.39 211.46 819.45 206.91 816.07 201.07Z" fill="#005C7C"/>
<path d="M702.49 215.61C702.49 214.21 701.35 213.08 699.96 213.08C698.56 213.08 697.43 214.21 697.43 215.61C697.43 217.01 698.56 218.14 699.96 218.14C701.36 218.14 702.49 217.01 702.49 215.61Z" fill="#036D88"/>
<path d="M707.39 217.131C707.39 215.731 706.26 214.601 704.86 214.601C703.46 214.601 702.33 215.741 702.33 217.131C702.33 218.531 703.46 219.661 704.86 219.661C706.26 219.661 707.39 218.531 707.39 217.131Z" fill="#036D88"/>
<path d="M836.4 215.61C836.4 214.21 835.26 213.08 833.87 213.08C832.47 213.08 831.34 214.21 831.34 215.61C831.34 217.01 832.47 218.14 833.87 218.14C835.27 218.14 836.4 217.01 836.4 215.61Z" fill="#036D88"/>
<path d="M831.59 217.131C831.59 215.731 830.45 214.601 829.05 214.601C827.65 214.601 826.51 215.741 826.51 217.131C826.51 218.531 827.65 219.661 829.05 219.661C830.45 219.661 831.59 218.531 831.59 217.131Z" fill="#036D88"/>
<path d="M712.12 218.65C712.12 217.25 710.99 216.11 709.59 216.11C708.19 216.11 707.05 217.25 707.05 218.65C707.05 220.05 708.18 221.18 709.59 221.18C710.99 221.18 712.12 220.05 712.12 218.65Z" fill="#036D88"/>
<path d="M716.91 218.65C716.91 217.25 715.78 216.11 714.38 216.11C712.98 216.11 711.85 217.25 711.85 218.65C711.85 220.05 712.98 221.18 714.38 221.18C715.77 221.18 716.91 220.05 716.91 218.65Z" fill="#036D88"/>
<path d="M721.69 218.65C721.69 217.25 720.56 216.11 719.16 216.11C717.76 216.11 716.63 217.25 716.63 218.65C716.63 220.05 717.76 221.18 719.16 221.18C720.56 221.18 721.69 220.05 721.69 218.65Z" fill="#036D88"/>
<path d="M726.48 218.65C726.48 217.25 725.35 216.11 723.95 216.11C722.55 216.11 721.41 217.25 721.41 218.65C721.41 220.05 722.55 221.18 723.95 221.18C725.34 221.18 726.48 220.05 726.48 218.65Z" fill="#036D88"/>
<path d="M731.26 218.65C731.26 217.25 730.13 216.11 728.73 216.11C727.33 216.11 726.2 217.25 726.2 218.65C726.2 220.05 727.33 221.18 728.73 221.18C730.13 221.18 731.26 220.05 731.26 218.65Z" fill="#036D88"/>
<path d="M736.04 218.65C736.04 217.25 734.91 216.11 733.51 216.11C732.11 216.11 730.98 217.25 730.98 218.65C730.98 220.05 732.11 221.18 733.51 221.18C734.91 221.18 736.04 220.05 736.04 218.65Z" fill="#036D88"/>
<path d="M740.83 218.65C740.83 217.25 739.69 216.11 738.3 216.11C736.9 216.11 735.77 217.25 735.77 218.65C735.77 220.05 736.91 221.18 738.3 221.18C739.69 221.18 740.83 220.05 740.83 218.65Z" fill="#036D88"/>
<path d="M745.61 218.65C745.61 217.25 744.48 216.11 743.08 216.11C741.68 216.11 740.54 217.25 740.54 218.65C740.54 220.05 741.68 221.18 743.08 221.18C744.48 221.18 745.61 220.05 745.61 218.65Z" fill="#036D88"/>
<path d="M750.4 218.65C750.4 217.25 749.26 216.11 747.87 216.11C746.47 216.11 745.34 217.25 745.34 218.65C745.34 220.05 746.48 221.18 747.87 221.18C749.26 221.18 750.4 220.05 750.4 218.65Z" fill="#036D88"/>
<path d="M755.18 218.65C755.18 217.25 754.04 216.11 752.65 216.11C751.25 216.11 750.12 217.25 750.12 218.65C750.12 220.05 751.25 221.18 752.65 221.18C754.05 221.18 755.18 220.05 755.18 218.65Z" fill="#036D88"/>
<path d="M759.97 218.65C759.97 217.25 758.83 216.11 757.44 216.11C756.04 216.11 754.91 217.25 754.91 218.65C754.91 220.05 756.04 221.18 757.44 221.18C758.83 221.18 759.97 220.05 759.97 218.65Z" fill="#036D88"/>
<path d="M764.75 218.65C764.75 217.25 763.61 216.11 762.22 216.11C760.82 216.11 759.69 217.25 759.69 218.65C759.69 220.05 760.82 221.18 762.22 221.18C763.61 221.18 764.75 220.05 764.75 218.65Z" fill="#036D88"/>
<path d="M769.53 218.65C769.53 217.25 768.4 216.11 767 216.11C765.6 216.11 764.46 217.25 764.46 218.65C764.46 220.05 765.6 221.18 767 221.18C768.4 221.18 769.53 220.05 769.53 218.65Z" fill="#036D88"/>
<path d="M774.32 218.65C774.32 217.25 773.19 216.11 771.79 216.11C770.39 216.11 769.25 217.25 769.25 218.65C769.25 220.05 770.39 221.18 771.79 221.18C773.18 221.18 774.32 220.05 774.32 218.65Z" fill="#036D88"/>
<path d="M779.1 218.65C779.1 217.25 777.96 216.11 776.57 216.11C775.17 216.11 774.03 217.25 774.03 218.65C774.03 220.05 775.17 221.18 776.57 221.18C777.97 221.18 779.1 220.05 779.1 218.65Z" fill="#036D88"/>
<path d="M783.89 218.65C783.89 217.25 782.76 216.11 781.36 216.11C779.96 216.11 778.82 217.25 778.82 218.65C778.82 220.05 779.96 221.18 781.36 221.18C782.75 221.18 783.89 220.05 783.89 218.65Z" fill="#036D88"/>
<path d="M788.67 218.65C788.67 217.25 787.53 216.11 786.14 216.11C784.74 216.11 783.61 217.25 783.61 218.65C783.61 220.05 784.74 221.18 786.14 221.18C787.54 221.18 788.67 220.05 788.67 218.65Z" fill="#036D88"/>
<path d="M793.46 218.65C793.46 217.25 792.32 216.11 790.93 216.11C789.53 216.11 788.4 217.25 788.4 218.65C788.4 220.05 789.53 221.18 790.93 221.18C792.32 221.18 793.46 220.05 793.46 218.65Z" fill="#036D88"/>
<path d="M798.24 218.65C798.24 217.25 797.1 216.11 795.71 216.11C794.31 216.11 793.17 217.25 793.17 218.65C793.17 220.05 794.31 221.18 795.71 221.18C797.1 221.18 798.24 220.05 798.24 218.65Z" fill="#036D88"/>
<path d="M803.02 218.65C803.02 217.25 801.89 216.11 800.49 216.11C799.09 216.11 797.96 217.25 797.96 218.65C797.96 220.05 799.09 221.18 800.49 221.18C801.89 221.18 803.02 220.05 803.02 218.65Z" fill="#036D88"/>
<path d="M807.81 218.65C807.81 217.25 806.68 216.11 805.28 216.11C803.88 216.11 802.75 217.25 802.75 218.65C802.75 220.05 803.88 221.18 805.28 221.18C806.67 221.18 807.81 220.05 807.81 218.65Z" fill="#036D88"/>
<path d="M812.59 218.65C812.59 217.25 811.45 216.11 810.06 216.11C808.66 216.11 807.53 217.25 807.53 218.65C807.53 220.05 808.66 221.18 810.06 221.18C811.46 221.18 812.59 220.05 812.59 218.65Z" fill="#036D88"/>
<path d="M817.38 218.65C817.38 217.25 816.24 216.11 814.85 216.11C813.45 216.11 812.31 217.25 812.31 218.65C812.31 220.05 813.45 221.18 814.85 221.18C816.24 221.18 817.38 220.05 817.38 218.65Z" fill="#036D88"/>
<path d="M822.16 218.65C822.16 217.25 821.03 216.11 819.63 216.11C818.23 216.11 817.09 217.25 817.09 218.65C817.09 220.05 818.22 221.18 819.63 221.18C821.03 221.18 822.16 220.05 822.16 218.65Z" fill="#036D88"/>
<path d="M826.95 218.65C826.95 217.25 825.81 216.11 824.42 216.11C823.02 216.11 821.89 217.25 821.89 218.65C821.89 220.05 823.02 221.18 824.42 221.18C825.81 221.18 826.95 220.05 826.95 218.65Z" fill="#036D88"/>
<path d="M349.39 107.59C349.39 108.63 348.55 109.47 347.51 109.47C346.47 109.47 345.63 108.63 345.63 107.59V101.5C345.63 100.46 346.47 99.6201 347.51 99.6201C348.55 99.6201 349.39 100.46 349.39 101.5V107.59Z" fill="#BE9E80"/>
<path d="M354.59 94.1301C354.84 93.5401 354.98 92.9101 354.98 92.2601C354.98 90.9501 354.44 89.7401 353.52 88.7601C353.65 88.3601 353.73 87.9401 353.73 87.5101C353.73 84.7901 350.94 82.5801 347.5 82.5801C344.06 82.5801 341.27 84.7901 341.27 87.5101C341.27 87.9401 341.35 88.3601 341.48 88.7601C340.57 89.7401 340.02 90.9501 340.02 92.2601C340.02 92.9101 340.16 93.5401 340.41 94.1301C339.45 95.2301 338.89 96.5601 338.89 97.9901C338.89 101.75 342.74 104.8 347.49 104.8C352.24 104.8 356.09 101.75 356.09 97.9901C356.11 96.5601 355.55 95.2301 354.59 94.1301Z" fill="#FFB283"/>
<path d="M752.45 196.36C752.45 197.14 751.81 197.78 751.03 197.78C750.25 197.78 749.61 197.14 749.61 196.36V191.76C749.61 190.98 750.25 190.34 751.03 190.34C751.81 190.34 752.45 190.98 752.45 191.76V196.36Z" fill="#BE9E80"/>
<path d="M756.37 186.21C756.56 185.77 756.66 185.29 756.66 184.8C756.66 183.81 756.25 182.9 755.56 182.16C755.66 181.86 755.72 181.54 755.72 181.22C755.72 179.17 753.62 177.5 751.02 177.5C748.42 177.5 746.32 179.16 746.32 181.22C746.32 181.55 746.38 181.86 746.48 182.16C745.79 182.9 745.38 183.81 745.38 184.8C745.38 185.29 745.49 185.77 745.67 186.21C744.95 187.04 744.52 188.04 744.52 189.13C744.52 191.97 747.43 194.27 751.01 194.27C754.6 194.27 757.5 191.97 757.5 189.13C757.52 188.04 757.1 187.04 756.37 186.21Z" fill="#FFB283"/>
<path d="M484.96 513.34C484.96 514.12 484.32 514.76 483.54 514.76C482.76 514.76 482.12 514.12 482.12 513.34V508.74C482.12 507.96 482.76 507.32 483.54 507.32C484.32 507.32 484.96 507.96 484.96 508.74V513.34Z" fill="#BE9E80"/>
<path d="M488.89 503.19C489.08 502.75 489.18 502.27 489.18 501.78C489.18 500.79 488.77 499.88 488.08 499.14C488.18 498.84 488.24 498.52 488.24 498.2C488.24 496.15 486.14 494.48 483.54 494.48C480.94 494.48 478.84 496.14 478.84 498.2C478.84 498.53 478.9 498.84 479 499.14C478.31 499.88 477.9 500.79 477.9 501.78C477.9 502.27 478.01 502.75 478.19 503.19C477.47 504.02 477.04 505.02 477.04 506.11C477.04 508.95 479.95 511.25 483.53 511.25C487.12 511.25 490.02 508.95 490.02 506.11C490.04 505.02 489.61 504.02 488.89 503.19Z" fill="#FFB283"/>
<path d="M670.69 480.47C670.69 481.25 670.05 481.89 669.27 481.89C668.49 481.89 667.85 481.25 667.85 480.47V475.87C667.85 475.09 668.49 474.45 669.27 474.45C670.05 474.45 670.69 475.09 670.69 475.87V480.47Z" fill="#BE9E80"/>
<path d="M674.62 470.32C674.81 469.88 674.91 469.4 674.91 468.91C674.91 467.92 674.5 467.01 673.81 466.27C673.91 465.97 673.97 465.65 673.97 465.33C673.97 463.28 671.87 461.61 669.27 461.61C666.68 461.61 664.57 463.27 664.57 465.33C664.57 465.66 664.63 465.97 664.73 466.27C664.04 467.01 663.63 467.92 663.63 468.91C663.63 469.4 663.74 469.88 663.92 470.32C663.2 471.15 662.77 472.15 662.77 473.24C662.77 476.08 665.68 478.38 669.26 478.38C672.85 478.38 675.75 476.08 675.75 473.24C675.76 472.15 675.34 471.15 674.62 470.32Z" fill="#FFB283"/>
<path d="M510.13 322.18C510.13 322.96 509.49 323.6 508.71 323.6C507.93 323.6 507.29 322.96 507.29 322.18V317.58C507.29 316.8 507.93 316.16 508.71 316.16C509.49 316.16 510.13 316.8 510.13 317.58V322.18Z" fill="#BE9E80"/>
<path d="M514.06 312.03C514.25 311.59 514.35 311.11 514.35 310.62C514.35 309.63 513.94 308.72 513.25 307.98C513.35 307.68 513.41 307.36 513.41 307.04C513.41 304.99 511.31 303.32 508.71 303.32C506.11 303.32 504.01 304.98 504.01 307.04C504.01 307.37 504.07 307.68 504.17 307.98C503.48 308.72 503.07 309.63 503.07 310.62C503.07 311.11 503.18 311.59 503.36 312.03C502.64 312.86 502.21 313.86 502.21 314.95C502.21 317.79 505.12 320.09 508.7 320.09C512.29 320.09 515.19 317.79 515.19 314.95C515.2 313.86 514.78 312.86 514.06 312.03Z" fill="#FFB283"/>
<path d="M596.48 101.12C596.48 102.34 595.49 103.33 594.27 103.33C593.05 103.33 592.06 102.34 592.06 101.12V93.9698C592.06 92.7498 593.05 91.7598 594.27 91.7598C595.49 91.7598 596.48 92.7498 596.48 93.9698V101.12Z" fill="#BE9E80"/>
<path d="M602.58 85.3496C602.87 84.6596 603.03 83.9196 603.03 83.1596C603.03 81.6196 602.39 80.2096 601.32 79.0596C601.48 78.5896 601.57 78.0996 601.57 77.5896C601.57 74.3996 598.3 71.8096 594.27 71.8096C590.24 71.8096 586.97 74.3996 586.97 77.5896C586.97 78.0996 587.06 78.5896 587.22 79.0596C586.15 80.2096 585.51 81.6296 585.51 83.1596C585.51 83.9296 585.67 84.6696 585.96 85.3496C584.84 86.6396 584.18 88.1996 584.18 89.8796C584.18 94.2896 588.7 97.8696 594.27 97.8696C599.84 97.8696 604.36 94.2896 604.36 89.8796C604.36 88.1996 603.71 86.6396 602.58 85.3496Z" fill="#FFB283"/>
<path d="M769.75 287.65C769.75 288.43 769.11 289.07 768.33 289.07C767.55 289.07 766.91 288.43 766.91 287.65V283.05C766.91 282.27 767.55 281.63 768.33 281.63C769.11 281.63 769.75 282.27 769.75 283.05V287.65Z" fill="#BE9E80"/>
<path d="M773.68 277.5C773.87 277.06 773.97 276.58 773.97 276.09C773.97 275.1 773.56 274.19 772.87 273.45C772.97 273.15 773.03 272.83 773.03 272.51C773.03 270.46 770.93 268.79 768.33 268.79C765.74 268.79 763.63 270.45 763.63 272.51C763.63 272.84 763.69 273.15 763.79 273.45C763.1 274.19 762.69 275.1 762.69 276.09C762.69 276.58 762.8 277.06 762.98 277.5C762.26 278.33 761.83 279.33 761.83 280.42C761.83 283.26 764.74 285.56 768.32 285.56C771.91 285.56 774.81 283.26 774.81 280.42C774.83 279.33 774.4 278.33 773.68 277.5Z" fill="#FFB283"/>
<path d="M622.06 348.12C622.06 348.9 621.42 349.54 620.64 349.54C619.86 349.54 619.22 348.9 619.22 348.12V343.52C619.22 342.74 619.86 342.1 620.64 342.1C621.42 342.1 622.06 342.74 622.06 343.52V348.12Z" fill="#BE9E80"/>
<path d="M625.99 337.97C626.18 337.53 626.28 337.05 626.28 336.56C626.28 335.57 625.87 334.66 625.18 333.92C625.28 333.62 625.34 333.3 625.34 332.98C625.34 330.93 623.24 329.26 620.64 329.26C618.04 329.26 615.94 330.92 615.94 332.98C615.94 333.31 616 333.62 616.1 333.92C615.41 334.66 615 335.57 615 336.56C615 337.05 615.11 337.53 615.29 337.97C614.57 338.8 614.14 339.8 614.14 340.89C614.14 343.73 617.05 346.03 620.63 346.03C624.22 346.03 627.12 343.73 627.12 340.89C627.13 339.8 626.71 338.8 625.99 337.97Z" fill="#FFB283"/>
<path d="M361.55 110.22C361.55 111.17 360.78 111.93 359.84 111.93C358.89 111.93 358.13 111.17 358.13 110.22V106.34C358.13 105.4 358.9 104.63 359.84 104.63C360.78 104.63 361.55 105.4 361.55 106.34V110.22Z" fill="#BE9E80"/>
<path d="M364.86 98.0398V96.5698C364.86 93.7998 362.61 91.5498 359.84 91.5498C357.07 91.5498 354.82 93.7998 354.82 96.5698V98.0398C353.03 98.6598 351.74 100.35 351.74 102.35C351.74 104.87 353.78 106.91 356.3 106.91H363.37C365.89 106.91 367.93 104.87 367.93 102.35C367.93 100.36 366.65 98.6598 364.86 98.0398Z" fill="#FFF4CF"/>
<path d="M600.25 180.529C600.25 181.389 599.55 182.089 598.69 182.089C597.83 182.089 597.13 181.389 597.13 180.529V177.009C597.13 176.149 597.83 175.449 598.69 175.449C599.55 175.449 600.25 176.149 600.25 177.009V180.529Z" fill="#BE9E80"/>
<path d="M603.26 169.46V168.12C603.26 165.6 601.22 163.56 598.7 163.56C596.18 163.56 594.14 165.6 594.14 168.12V169.46C592.51 170.02 591.34 171.56 591.34 173.38C591.34 175.67 593.2 177.53 595.49 177.53H601.92C604.21 177.53 606.07 175.67 606.07 173.38C606.06 171.56 604.89 170.02 603.26 169.46Z" fill="#FFF4CF"/>
<path d="M502.66 469.1C502.66 469.96 501.96 470.66 501.1 470.66C500.24 470.66 499.54 469.96 499.54 469.1V465.58C499.54 464.72 500.24 464.02 501.1 464.02C501.96 464.02 502.66 464.72 502.66 465.58V469.1Z" fill="#BE9E80"/>
<path d="M505.66 458.03V456.69C505.66 454.17 503.62 452.13 501.1 452.13C498.58 452.13 496.54 454.17 496.54 456.69V458.03C494.91 458.59 493.74 460.13 493.74 461.95C493.74 464.24 495.6 466.1 497.89 466.1H504.32C506.61 466.1 508.47 464.24 508.47 461.95C508.46 460.13 507.29 458.58 505.66 458.03Z" fill="#FFF4CF"/>
<path d="M660.18 483.12C660.18 483.98 659.48 484.68 658.62 484.68C657.76 484.68 657.06 483.98 657.06 483.12V479.6C657.06 478.74 657.76 478.04 658.62 478.04C659.48 478.04 660.18 478.74 660.18 479.6V483.12Z" fill="#BE9E80"/>
<path d="M663.19 472.05V470.71C663.19 468.19 661.15 466.15 658.63 466.15C656.11 466.15 654.07 468.19 654.07 470.71V472.05C652.44 472.61 651.27 474.15 651.27 475.97C651.27 478.26 653.13 480.12 655.42 480.12H661.85C664.14 480.12 666 478.26 666 475.97C665.98 474.15 664.81 472.61 663.19 472.05Z" fill="#FFF4CF"/>
<path d="M520.24 324.83C520.24 325.69 519.54 326.39 518.68 326.39C517.82 326.39 517.12 325.69 517.12 324.83V321.31C517.12 320.45 517.82 319.75 518.68 319.75C519.54 319.75 520.24 320.45 520.24 321.31V324.83Z" fill="#BE9E80"/>
<path d="M523.24 313.75V312.41C523.24 309.89 521.2 307.85 518.68 307.85C516.16 307.85 514.12 309.89 514.12 312.41V313.75C512.49 314.31 511.32 315.85 511.32 317.67C511.32 319.96 513.18 321.82 515.47 321.82H521.9C524.19 321.82 526.05 319.96 526.05 317.67C526.04 315.86 524.87 314.31 523.24 313.75Z" fill="#FFF4CF"/>
<path d="M797.26 409.7C797.26 410.56 796.56 411.26 795.7 411.26C794.84 411.26 794.14 410.56 794.14 409.7V406.18C794.14 405.32 794.84 404.62 795.7 404.62C796.56 404.62 797.26 405.32 797.26 406.18V409.7Z" fill="#BE9E80"/>
<path d="M800.27 398.63V397.29C800.27 394.77 798.23 392.73 795.71 392.73C793.19 392.73 791.15 394.77 791.15 397.29V398.63C789.52 399.19 788.35 400.73 788.35 402.55C788.35 404.84 790.21 406.7 792.5 406.7H798.93C801.22 406.7 803.08 404.84 803.08 402.55C803.07 400.73 801.9 399.19 800.27 398.63Z" fill="#FFF4CF"/>
<path d="M767.95 205.059C767.95 205.919 767.25 206.619 766.39 206.619C765.53 206.619 764.83 205.919 764.83 205.059V201.539C764.83 200.679 765.53 199.979 766.39 199.979C767.25 199.979 767.95 200.679 767.95 201.539V205.059Z" fill="#BE9E80"/>
<path d="M770.96 193.99V192.65C770.96 190.13 768.92 188.09 766.4 188.09C763.88 188.09 761.84 190.13 761.84 192.65V193.99C760.21 194.55 759.04 196.09 759.04 197.91C759.04 200.2 760.9 202.06 763.19 202.06H769.62C771.91 202.06 773.77 200.2 773.77 197.91C773.76 196.09 772.59 194.55 770.96 193.99Z" fill="#FFF4CF"/>
<path d="M705.62 338.34C712.25 338.34 717.62 332.97 717.62 326.34C717.62 319.71 712.25 314.34 705.62 314.34C698.99 314.34 693.62 319.71 693.62 326.34C693.62 332.97 698.99 338.34 705.62 338.34Z" fill="#FF926A"/>
<path d="M704.63 321.85C703.95 321.88 703.42 321.87 702.79 321.85C702.75 321.28 702.74 319.84 702.79 319.09C703.4 318.99 707.02 318.99 707.61 319.09C707.71 319.96 707.71 331.86 707.61 332.71C707.09 332.81 705.36 332.81 704.68 332.71C704.61 332.13 704.58 326.08 704.63 321.85Z" fill="white"/>
<path d="M716 309.12C722.63 309.12 728 303.75 728 297.12C728 290.49 722.63 285.12 716 285.12C709.37 285.12 704 290.49 704 297.12C704 303.74 709.38 309.12 716 309.12Z" fill="#FF926A"/>
<path d="M712.73 292.541C712.68 291.861 712.66 290.511 712.71 289.821C713.32 289.791 714.13 289.771 714.88 289.771C718.47 289.771 719.99 291.301 719.99 293.951C719.99 295.751 719.61 297.051 718.52 298.391C717.86 299.201 717.01 300.161 716.34 300.781C717.78 300.751 719.32 300.761 720.24 300.781C720.29 301.491 720.29 302.861 720.24 303.481C719.17 303.551 713.72 303.551 712.51 303.481C712.42 302.651 712.42 301.661 712.51 300.881C713.32 300.061 714.57 298.591 715.21 297.851C716.61 296.221 717.08 295.271 717.08 294.161C717.08 293.051 716.4 292.531 714.72 292.531C714.05 292.521 713.32 292.541 712.73 292.541Z" fill="white"/>
<path d="M751.73 344.3C758.36 344.3 763.73 338.93 763.73 332.3C763.73 325.67 758.36 320.3 751.73 320.3C745.1 320.3 739.73 325.67 739.73 332.3C739.73 338.92 745.11 344.3 751.73 344.3Z" fill="#FF926A"/>
<path d="M756.47 334.599C756.47 337.099 754.81 338.709 751.27 338.709C750.75 338.709 749.87 338.689 749.29 338.659C749.24 337.999 749.24 336.619 749.29 335.959H750.92C752.81 335.959 753.55 335.339 753.55 334.349C753.55 333.359 752.8 332.819 750.85 332.819C750.43 332.819 750.14 332.819 749.83 332.779C749.8 332.209 749.78 331.029 749.83 330.279C750.12 330.239 750.4 330.239 750.8 330.239C752.36 330.239 752.92 329.699 752.92 328.819C752.92 328.009 752.19 327.569 750.67 327.569H749.47C749.42 326.949 749.42 325.609 749.47 324.969C750.02 324.939 750.51 324.899 751.01 324.919C754.15 325.019 755.78 326.199 755.78 328.699C755.78 329.759 755.49 330.759 754.53 331.319C755.86 331.929 756.47 333.019 756.47 334.599Z" fill="white"/>
<path d="M719.59 373.99C726.22 373.99 731.59 368.62 731.59 361.99C731.59 355.36 726.22 349.99 719.59 349.99C712.96 349.99 707.59 355.36 707.59 361.99C707.59 368.61 712.96 373.99 719.59 373.99Z" fill="#FF926A"/>
<path d="M724.62 366.13C724.41 366.13 723.77 366.13 722.89 366.15C722.87 367.33 722.87 368.16 722.85 368.37C722.36 368.44 720.81 368.44 720.13 368.37C720.11 368.04 720.11 367.21 720.11 366.15C717.6 366.15 714.91 366.15 714.46 366.13C714.41 365.37 714.41 364.54 714.46 363.53C715.01 362.26 718.55 355.5 718.98 354.74C719.57 354.67 721.61 354.67 722.85 354.74C722.9 355.22 722.9 359.8 722.9 363.51C723.68 363.53 724.32 363.53 724.62 363.53C724.67 364.13 724.66 365.42 724.62 366.13ZM720.12 363.51C720.14 361.22 720.15 358.85 720.17 358.05C719.75 359.05 718 362.47 717.47 363.53C717.95 363.51 718.99 363.51 720.12 363.51Z" fill="white"/>
<path d="M652.58 399.09H630.67L630.71 365L640.42 350.25L655.14 358.29L652.58 399.09Z" fill="white"/>
<path d="M640.73 365.5H637.45V368.78H640.73V365.5Z" fill="#D8C7C2"/>
<path d="M670.48 365.3H649.46V399.09H670.48V365.3Z" fill="#D4D9DB"/>
<path d="M660.79 350.25L670.69 365.62H655.41H649.77L640.15 350.25H660.79Z" fill="#FF866F"/>
<path d="M678.86 410.8H656.46L657.03 374.05L667.16 358.15L695.2 366.82L678.86 410.8Z" fill="#E8DFDA"/>
<path d="M704.35 374.37H676.66V410.81H704.35V374.37Z" fill="#D4D9DB"/>
<path d="M695.03 358.15L704.55 374.71H682.11H676.42L667.16 358.15H695.03Z" fill="#4B4A7A"/>
<path d="M669.57 410.8V397.62C669.57 395.47 668.02 393.73 666.1 393.73C664.18 393.73 662.63 395.47 662.63 397.62V410.8H669.57Z" fill="#D4D9DB"/>
<path d="M688.81 410.83H667.27L667.3 389.23L676.85 374.73L691.33 382.64L688.81 410.83Z" fill="white"/>
<path d="M677.16 390.16H673.94V393.38H677.16V390.16Z" fill="#D8C7C2"/>
<path d="M706.41 389.53H685.74V410.84H706.41V389.53Z" fill="#D4D9DB"/>
<path d="M696.89 374.73L706.62 389.84H691.6H686.05L676.59 374.73H696.89Z" fill="#EDC777"/>
<path d="M645.05 410.83H667.53L667.5 384.66L656.79 370.16L628.65 378.06L645.05 410.83Z" fill="#D8C7C2"/>
<path d="M659.74 382.79H654.85V389.47H659.74V382.79Z" fill="white"/>
<path d="M647.27 384.95H614.29V410.83H647.27V384.95Z" fill="white"/>
<path d="M623.63 370.16L614.08 385.26H641.79H647.5L656.79 370.16H623.63Z" fill="#437864"/>
<path d="M660.5 410.83V401.59C660.5 400.08 659.28 398.86 657.77 398.86C656.26 398.86 655.04 400.08 655.04 401.59V410.83H660.5Z" fill="#B4A29E"/>
<path d="M209 0.139648H0V209.14H209V0.139648Z" fill="#231815"/>
<path d="M18.4098 19.7092C20.9498 19.5592 24.9898 19.5592 27.4598 19.6392C36.0998 19.8992 41.8998 24.6492 41.8998 34.2592C41.8998 44.0992 36.0998 48.7292 27.4598 49.1792C25.3298 49.2892 20.9498 49.3692 18.4098 49.0992C18.1498 47.2692 18.1498 21.5792 18.4098 19.7092ZM27.8698 43.0492C32.6598 43.0492 35.3098 39.7992 35.3098 34.2592C35.3098 28.9492 32.6498 25.8092 27.8698 25.8092H24.7698C24.7698 28.7592 24.7698 40.1292 24.7698 43.0492H27.8698Z" fill="#FF926A"/>
<path d="M60.8902 49.0992C59.6202 49.2892 56.1402 49.2892 54.7602 49.0992C54.7602 48.8792 54.7202 48.6092 54.7202 48.2792C53.6402 48.9192 52.2902 49.2892 50.8302 49.2892C45.7102 49.2892 43.1602 46.9692 43.1602 42.5992C43.1602 38.2592 45.7002 36.0192 50.8302 36.0192C52.2902 36.0192 53.6002 36.3592 54.6802 36.9492C54.3802 34.4792 53.2202 33.5492 50.1902 33.5492C48.9202 33.5492 46.9402 33.8492 45.0702 34.2592C44.6602 32.8392 44.2802 30.2192 44.2802 28.6892C45.8902 28.1992 49.1802 27.8692 51.4202 27.9792C57.5502 28.2792 60.6902 31.4592 60.9202 36.6592C61.0802 39.8992 61.0802 47.1992 60.8902 49.0992ZM54.6802 42.4792C54.6802 41.2792 53.7802 40.6092 52.1702 40.6092C50.3002 40.6092 49.4002 41.2792 49.4002 42.5192C49.4002 43.7492 50.2602 44.3492 52.1702 44.3492C53.7902 44.3492 54.6802 43.6792 54.6802 42.4792Z" fill="#FF926A"/>
<path d="M65.79 56.5491C65.98 55.7591 67.55 51.6891 69.04 48.0591C67.39 44.6191 62.31 31.7191 61.75 29.8491C62.83 29.1391 66.57 28.0891 67.85 27.8691C68.49 29.4391 70.51 34.7891 72.49 40.2891C74.47 34.7891 76.49 29.4391 77.13 27.8691C78.4 28.0891 82.14 29.1391 83.23 29.8491C82.67 31.7191 72.42 56.6991 71.52 58.2391C70.09 58.1191 67.03 57.2191 65.79 56.5491Z" fill="#FF926A"/>
<path d="M91.4101 25.4693C91.3001 24.0093 91.2601 21.0893 91.3701 19.5993C92.6801 19.5293 94.4401 19.4893 96.0401 19.4893C103.78 19.4893 107.07 22.7793 107.07 28.4993C107.07 32.3893 106.25 35.1893 103.89 38.0693C102.47 39.8293 100.64 41.8793 99.1801 43.2293C102.28 43.1593 105.61 43.1893 107.59 43.2293C107.7 44.7593 107.7 47.7193 107.59 49.0593C105.27 49.2093 93.5301 49.2093 90.9101 49.0593C90.7201 47.2593 90.7201 45.1293 90.9101 43.4493C92.6701 41.6893 95.3601 38.5093 96.7401 36.9093C99.7701 33.3893 100.78 31.3393 100.78 28.9393C100.78 26.5393 99.3201 25.4193 95.6901 25.4193C94.2501 25.4293 92.6801 25.4693 91.4101 25.4693Z" fill="#FF926A"/>
<path d="M41.8801 81.7198C39.5201 81.8698 19.3901 81.8698 17.4501 81.7198C17.2601 80.0098 17.2601 77.9998 17.4501 76.4398C18.1301 76.3998 21.1701 76.3598 24.9001 76.3598C24.9001 75.2998 24.9001 74.1898 24.9801 73.1298C26.3501 72.9798 30.2601 72.9798 31.5501 73.1298C31.5901 74.1898 31.6301 75.2998 31.6301 76.3598C36.4601 76.3598 40.8601 76.3998 41.8901 76.4398C42.0301 78.0698 42.0701 80.0898 41.8801 81.7198ZM24.9001 93.9598C27.6001 93.9198 37.8601 93.9198 41.5801 93.9598C41.8101 95.2498 41.8101 97.7598 41.5801 99.0898C38.3101 99.2798 21.6701 99.2798 18.4001 99.0898C18.1701 96.8898 18.1701 90.9998 18.4001 88.7598C22.1601 88.7198 31.0101 88.7598 34.4701 88.7598V87.5798C30.9701 87.6198 22.0501 87.6198 18.2501 87.5798C18.0601 85.9098 18.0601 84.6198 18.2501 82.9798C20.5701 82.8698 38.5001 82.8698 40.8201 82.9798C41.1201 85.1098 41.0901 91.3798 40.8201 92.7398C37.4801 92.8498 27.7901 92.7798 24.9001 92.7398V93.9598ZM18.6701 71.8398C18.5201 70.9298 18.5201 67.5798 18.6701 66.4398C20.6101 66.1398 38.7701 66.1398 40.4401 66.4398C40.5901 68.0398 40.5901 74.1498 40.4401 74.9898C38.8801 75.1798 35.6501 75.1798 34.0601 74.9898C34.0601 74.2698 34.0201 72.9798 34.0601 71.8398C32.3401 71.9198 20.3801 71.9198 18.6701 71.8398Z" fill="white"/>
<path d="M66.2799 87.2297C63.9999 87.3397 45.6099 87.3397 43.7499 87.2297C43.5599 85.0297 43.5599 83.4297 43.7499 81.4897C44.4699 81.4497 47.8199 81.4497 51.6899 81.4497V79.6597C48.3099 79.6597 45.4999 79.5797 44.8099 79.5097C44.5399 77.4197 44.5399 68.4197 44.8099 66.2897C46.7499 66.0597 63.2799 66.0597 65.2099 66.2897C65.4799 68.4197 65.4799 77.4197 65.2099 79.5097C64.5299 79.5897 61.7099 79.6597 58.3299 79.6597V81.4497C62.1299 81.4497 65.3999 81.4497 66.2699 81.4897C66.4699 83.3497 66.4299 84.9897 66.2799 87.2297ZM65.4399 88.8597C65.5899 90.4197 65.5899 97.2597 65.4399 98.5497C63.8799 98.6997 60.5399 98.6997 58.9399 98.5497C58.9399 97.7497 58.8999 95.2097 58.9399 94.1397C57.2299 94.1797 46.2499 94.1797 44.5399 94.1397C44.3499 93.1897 44.3499 89.8797 44.5399 88.8597C46.4799 88.6697 63.7699 88.6697 65.4399 88.8597ZM50.9599 74.1997C52.2899 74.3097 57.6899 74.3097 59.0099 74.1997V71.4997C57.6399 71.4197 52.2499 71.4197 50.9599 71.4997V74.1997Z" fill="white"/>
<path d="M92.6106 81.7198C90.2506 81.8698 70.1206 81.8698 68.1806 81.7198C67.9906 80.0098 67.9906 77.9998 68.1806 76.4398C68.8606 76.3998 71.9006 76.3598 75.6306 76.3598C75.6306 75.2998 75.6306 74.1898 75.7106 73.1298C77.0806 72.9798 80.9906 72.9798 82.2806 73.1298C82.3206 74.1898 82.3606 75.2998 82.3606 76.3598C87.1906 76.3598 91.5906 76.3998 92.6206 76.4398C92.7606 78.0698 92.8006 80.0898 92.6106 81.7198ZM75.6306 93.9598C78.3306 93.9198 88.5906 93.9198 92.3106 93.9598C92.5406 95.2498 92.5406 97.7598 92.3106 99.0898C89.0406 99.2798 72.4006 99.2798 69.1306 99.0898C68.9006 96.8898 68.9006 90.9998 69.1306 88.7598C72.8906 88.7198 81.7406 88.7598 85.2006 88.7598V87.5798C81.7006 87.6198 72.7806 87.6198 68.9806 87.5798C68.7906 85.9098 68.7906 84.6198 68.9806 82.9798C71.3006 82.8698 89.2306 82.8698 91.5506 82.9798C91.8506 85.1098 91.8206 91.3798 91.5506 92.7398C88.2106 92.8498 78.5206 92.7798 75.6306 92.7398V93.9598ZM69.3906 71.8398C69.2406 70.9298 69.2406 67.5798 69.3906 66.4398C71.3306 66.1398 89.4906 66.1398 91.1606 66.4398C91.3106 68.0398 91.3106 74.1498 91.1606 74.9898C89.6006 75.1798 86.3706 75.1798 84.7806 74.9898C84.7806 74.2698 84.7406 72.9798 84.7806 71.8398C83.0706 71.9198 71.1006 71.9198 69.3906 71.8398Z" fill="white"/>
<path d="M117 87.2297C114.72 87.3397 96.3296 87.3397 94.4696 87.2297C94.2796 85.0297 94.2796 83.4297 94.4696 81.4897C95.1896 81.4497 98.5397 81.4497 102.41 81.4497V79.6597C99.0297 79.6597 96.2196 79.5797 95.5296 79.5097C95.2596 77.4197 95.2596 68.4197 95.5296 66.2897C97.4696 66.0597 114 66.0597 115.93 66.2897C116.2 68.4197 116.2 77.4197 115.93 79.5097C115.25 79.5897 112.43 79.6597 109.05 79.6597V81.4497C112.85 81.4497 116.12 81.4497 116.99 81.4897C117.19 83.3497 117.16 84.9897 117 87.2297ZM116.17 88.8597C116.32 90.4197 116.32 97.2597 116.17 98.5497C114.61 98.6997 111.27 98.6997 109.67 98.5497C109.67 97.7497 109.63 95.2097 109.67 94.1397C107.96 94.1797 96.9796 94.1797 95.2696 94.1397C95.0796 93.1897 95.0796 89.8797 95.2696 88.8597C97.2096 88.6697 114.5 88.6697 116.17 88.8597ZM101.69 74.1997C103.02 74.3097 108.41 74.3097 109.74 74.1997V71.4997C108.37 71.4197 102.98 71.4197 101.69 71.4997V74.1997Z" fill="white"/>
<path d="M17.4902 127.359C17.4902 116.569 22.2002 112.009 29.1902 112.009C36.5202 112.009 40.8902 116.989 40.8902 127.359C40.8902 138.149 36.1802 142.709 29.1902 142.709C21.9002 142.709 17.4902 137.769 17.4902 127.359ZM34.3202 127.359C34.3202 120.789 32.1502 117.979 29.1902 117.979C26.0402 117.979 24.0602 120.979 24.0602 127.359C24.0602 133.969 26.2302 136.739 29.1902 136.739C32.3402 136.739 34.3202 133.699 34.3202 127.359ZM42.7202 111.549C44.0102 111.319 47.7402 111.319 49.0302 111.549C49.3002 113.449 49.3002 141.869 49.0302 143.729C47.9302 143.999 44.2002 143.999 42.7202 143.729C42.4902 141.869 42.4902 113.449 42.7202 111.549Z" fill="white"/>
<path d="M72.5798 127.36C72.5798 138.45 68.7798 142.71 62.2098 142.71C55.6398 142.71 51.8398 138.45 51.8398 127.36C51.8398 116.27 55.6398 112.01 62.2098 112.01C68.7898 112.01 72.5798 116.26 72.5798 127.36ZM66.0098 127.36C66.0098 120.48 64.3798 118.01 62.2098 118.01C60.0398 118.01 58.4098 120.48 58.4098 127.36C58.4098 134.24 60.0398 136.71 62.2098 136.71C64.3798 136.71 66.0098 134.24 66.0098 127.36ZM84.0598 130.28C84.2098 131.12 84.2098 135.3 84.0598 136.09C83.4498 136.17 82.2398 136.2 80.9398 136.24C80.9398 140.19 80.8598 143.16 80.7898 143.72C79.6898 144.06 75.9998 143.99 74.5198 143.72C74.2898 141.86 74.2898 113.44 74.5198 111.54C75.8098 111.31 79.4998 111.31 80.7898 111.54C80.8698 112 80.8998 114.09 80.9398 116.97C82.2298 117.01 83.4498 117.05 84.0598 117.12C84.2098 117.92 84.2098 122.1 84.0598 122.93C83.4498 122.97 82.2398 123.01 80.9798 123.01V130.19C82.2398 130.21 83.4498 130.25 84.0598 130.28Z" fill="white"/>
<path d="M92.19 118.619C90.02 118.699 86.87 118.729 85.12 118.619C84.93 117.519 84.93 113.529 85.12 112.429C87.02 112.239 96.71 112.239 98.61 112.429C98.8 114.749 98.8 140.579 98.61 142.519C97.09 142.709 93.71 142.709 92.19 142.519C92.12 140.729 92.12 120.479 92.19 118.619ZM101.39 111.549C102.68 111.319 106.41 111.319 107.7 111.549C107.97 113.449 107.97 141.869 107.7 143.729C106.6 143.999 102.87 143.999 101.39 143.729C101.16 141.869 101.16 113.449 101.39 111.549Z" fill="white"/>
<path d="M122.52 112.429C122.71 114.749 122.71 140.579 122.52 142.519C121 142.709 117.69 142.709 116.18 142.519C116.1 140.729 116.1 120.479 116.18 118.619C114.01 118.699 112.04 118.729 110.29 118.619C110.1 117.519 110.1 113.529 110.29 112.429C112.18 112.239 120.62 112.239 122.52 112.429ZM134.79 129.869C134.14 129.949 132.85 129.979 131.52 129.979C131.52 136.709 131.44 142.899 131.33 143.729C130.23 143.999 126.5 143.999 125.02 143.729C124.79 141.869 124.79 113.449 125.02 111.549C126.31 111.319 130.04 111.319 131.33 111.549C131.44 112.349 131.52 117.669 131.52 123.749C132.85 123.749 134.14 123.829 134.79 123.899C134.98 124.739 134.98 129.029 134.79 129.869Z" fill="white"/>
<path d="M18.36 173.83C18.13 171.44 18.13 159.81 18.36 157.87C19.99 157.68 23.26 157.68 24.82 157.87C24.93 159.66 24.93 166.15 24.82 168.32C26.19 168.24 33.63 168.21 35.38 168.32C35.57 169.42 35.57 172.73 35.38 173.83C33.48 174.06 20.26 174.06 18.36 173.83ZM45.22 176.15C45.49 178.01 45.49 187.89 45.22 189.71C43.4 189.9 20.98 189.9 19.16 189.71C18.89 187.89 18.89 178.01 19.16 176.15C21.17 175.92 43.21 175.92 45.22 176.15ZM38.88 181.51C37.44 181.43 26.91 181.4 25.54 181.51C25.46 182.69 25.46 183.56 25.54 184.4C26.95 184.51 37.47 184.51 38.88 184.4C38.95 183.56 38.95 182.69 38.88 181.51ZM31.32 166.01C31.13 165.21 31.13 161.26 31.32 160.46C32.92 160.35 36.15 160.31 38.84 160.35C38.88 158.79 38.92 157.61 38.95 157.16C40.24 156.93 43.93 156.93 45.22 157.16C45.49 159.06 45.49 172.93 45.22 174.83C44.12 174.98 40.43 174.98 38.95 174.83C38.87 173.92 38.8 170 38.8 166.09C36.14 166.12 32.95 166.08 31.32 166.01Z" fill="white"/>
<path d="M64.2605 166.69C66.0805 173.23 69.2805 185.35 69.3905 186.71C68.2505 187.32 64.6005 188.19 63.2405 188.19C62.7805 186.94 60.1605 176.56 58.5305 169.76C56.9705 176.64 54.4305 187.09 53.9705 188.34C52.6005 188.34 48.9505 187.5 47.8105 186.9C47.9205 185.53 51.0005 173.3 52.7905 166.69C50.6605 166.69 48.9905 166.65 48.4605 166.61C48.2705 165.77 48.2705 161.56 48.4605 160.76C49.2605 160.65 51.9605 160.57 55.1105 160.53C55.0305 159.05 55.0705 157.22 55.1905 156.2C56.4805 156.01 60.5105 156.01 61.8405 156.2C61.9505 157.23 61.9905 159.05 61.9205 160.53C65.1105 160.57 67.8105 160.64 68.5305 160.76C68.7205 161.48 68.7205 165.62 68.5305 166.61C67.9105 166.65 66.3105 166.65 64.2605 166.69ZM77.2605 189.33C76.1205 189.6 72.4005 189.6 70.9105 189.33C70.6805 187.47 70.6805 159.05 70.9105 157.15C72.2405 156.92 75.9605 156.92 77.2605 157.15C77.4805 159.05 77.4505 187.43 77.2605 189.33Z" fill="white"/>
<path d="M97.0601 182.12C97.2101 183.15 97.2501 186.76 97.0601 188.12C94.8601 188.27 83.2701 188.27 80.7601 188.12C80.4901 184.55 80.4901 161.52 80.7601 157.95C82.5801 157.8 93.0701 157.8 95.6501 157.95C95.8001 159.01 95.8001 162.47 95.6501 163.88C93.9001 163.92 88.5801 163.92 87.3301 163.88C87.2201 164.91 87.2201 180.75 87.3301 182.12C89.1901 182.04 95.4201 182.04 97.0601 182.12ZM109.25 175.47C108.6 175.55 107.31 175.58 105.98 175.58C105.98 182.31 105.9 188.5 105.79 189.33C104.69 189.6 100.96 189.6 99.4801 189.33C99.2501 187.47 99.2501 159.05 99.4801 157.15C100.77 156.92 104.5 156.92 105.79 157.15C105.9 157.95 105.98 163.27 105.98 169.35C107.31 169.35 108.6 169.43 109.25 169.5C109.44 170.34 109.44 174.63 109.25 175.47Z" fill="white"/>
<path d="M566.25 648.35C573.5 647.92 578.51 644.19 578.61 631.4C578.72 616.37 578.61 586.85 578.82 582.37C582.87 581.73 593.32 581.73 597.47 582.37C597.58 584.93 597.58 614.13 597.58 631.4C597.58 655.27 586.07 665.61 566.46 666.68C564.54 666.79 560.06 666.79 558.25 666.68C557.72 663.8 557.72 651.23 558.25 648.35C560.28 648.35 564.55 648.46 566.25 648.35Z" fill="white"/>
<path d="M652.37 666.15C646.4 666.68 615.49 666.68 607.5 666.15C606.86 655.49 606.86 592.93 607.5 582.27C616.88 581.63 643.63 581.74 650.99 582.38C651.31 585.79 651.31 597.09 650.99 599.43C647.15 599.54 630.1 599.64 625.94 599.43V614.46C635.64 614.46 647.68 614.67 649.49 614.89C649.92 618.41 649.92 628.53 649.49 632.05C646.72 632.26 634.57 632.26 625.94 632.26V648.78C630.1 648.57 648.54 648.67 652.37 648.78C652.69 652.4 652.69 662.74 652.37 666.15Z" fill="white"/>
<path d="M698.73 667.54C675.28 667.54 656.52 652.09 656.52 624.27C656.52 596.45 675.28 581 698.73 581C722.18 581 740.94 596.46 740.94 624.27C740.93 652.08 722.17 667.54 698.73 667.54ZM698.73 598.36C683.38 598.36 675.6 608.59 675.6 624.26C675.6 639.93 683.38 650.16 698.73 650.16C714.08 650.16 721.86 639.93 721.86 624.26C721.85 608.6 714.07 598.36 698.73 598.36Z" fill="white"/>
<path d="M749.13 582.38C752.86 581.74 766.61 581.74 770.34 582.38C777.27 594.96 788.88 617.55 797.09 634.5C797.09 612.33 797.09 585.68 797.3 582.49C800.6 581.74 811.37 581.74 815.53 582.49C816.17 587.71 816.17 660.94 815.53 666.26C811.8 666.9 798.05 666.9 794.32 666.26C787.5 653.79 775.88 631.19 767.67 614.25C767.78 636.42 767.56 662.96 767.35 666.16C764.05 666.91 753.28 666.91 749.12 666.16C748.49 660.93 748.49 587.71 749.13 582.38Z" fill="white"/>
<path d="M830.34 648.35C837.59 647.92 842.6 644.19 842.7 631.4C842.81 616.37 842.7 586.85 842.91 582.37C846.96 581.73 857.41 581.73 861.56 582.37C861.67 584.93 861.67 614.13 861.67 631.4C861.67 655.27 850.16 665.61 830.55 666.68C828.63 666.79 824.15 666.79 822.34 666.68C821.81 663.8 821.81 651.23 822.34 648.35C824.38 648.35 828.64 648.46 830.34 648.35Z" fill="white"/>
<path d="M870.84 632.04C870.84 613.71 870.84 584.93 871.16 582.37C875.1 581.73 885.76 581.73 889.81 582.37C890.02 586.85 889.92 615.62 889.92 631.4C889.92 642.7 894.93 648.99 905.91 648.99C916.89 648.99 921.9 642.7 921.9 631.4C921.9 615.63 921.79 586.85 922.01 582.37C926.06 581.73 936.72 581.73 940.66 582.37C940.98 584.93 940.98 613.7 940.98 632.04C940.98 653.36 929.47 667 905.91 667C882.35 667 870.84 653.36 870.84 632.04Z" fill="white"/>
</g>
<defs>
<clipPath id="clip0_654_10756">
<rect width="980" height="700" fill="white"/>
</clipPath>
</defs>
</svg>
