<svg width="360" height="605" viewBox="0 0 360 605" fill="none" xmlns="http://www.w3.org/2000/svg">
<g clip-path="url(#clip0_672_27325)">
<rect width="360" height="604" transform="translate(0 0.259766)" fill="#FF926A"/>
<path d="M366.176 180.785C361.842 183.525 357.61 180.704 354.723 178.419C349.426 174.232 345.011 169.038 341.323 163.073C339.186 159.62 342.565 159.781 342.778 158.07C344.284 145.955 349.066 134.017 335.953 123.916C329.209 118.722 328.665 107.776 321.995 101.23C321.767 101.002 321.686 100.745 321.708 100.451C321.723 100.268 321.774 100.069 321.855 99.8637C321.973 99.5552 322.171 99.2173 322.377 98.872C323.141 97.6084 324.228 96.1685 323.765 94.8976C323.494 94.1629 322.7 93.487 321.003 92.9507C321.003 92.9507 321.003 92.9507 321.003 92.9434C318.829 86.4712 315.706 84.7741 309.072 88.6972C300.117 93.9939 292.051 102.193 279.959 99.9445C277.402 99.467 275.925 101.443 276.822 104.308C264.619 99.9372 261.218 87.845 256.994 78.1477C253.225 69.5082 250.051 60.3766 243.858 53.706C233.588 42.657 231.994 28.0669 225.933 15.3943C219.409 1.75932 205.855 -10.5239 191.368 -8.83426C181.457 -7.67352 181.854 -11.3761 183.794 -18.1055C181.876 -18.1055 179.959 -18.1055 178.034 -18.1055C179.599 -16.4966 178.541 -14.5498 177.395 -14.1898C164.693 -10.1933 154.239 -0.988255 141.089 1.72993C135.439 2.89801 130.15 4.69055 125.132 7.28385C114.788 12.6174 108.243 2.64824 99.5959 1.23038C99.3315 1.1863 99.067 1.09814 98.8025 0.980595C98.5748 0.877745 98.3397 0.752855 98.112 0.620621C96.4957 -0.297686 94.9016 -1.59066 93.3515 1.34792C93.1311 0.510422 92.9107 -0.319727 92.6903 -1.14988C91.39 0.194523 90.0896 1.53893 88.7893 2.87598C88.0326 1.14956 87.4743 -0.584196 84.9986 -0.738472C77.946 -1.19395 70.9007 -1.78167 63.8628 -2.45019C59.8517 -2.82486 58.4706 0.0475979 56.6927 2.7217C52.5787 8.9221 46.2534 10.8836 39.3331 10.6779C35.6305 10.5677 32.0233 10.4355 30.7157 4.67586C29.7974 0.627964 22.0028 0.0696354 20.6364 2.76578C16.4195 11.1187 11.659 6.85775 7.58906 4.19099C1.77802 0.378187 -2.28456 -0.268303 -9.3298 3.41227C-16.4779 7.14426 -26.0944 6.11576 -34.6236 7.26181C-36.159 7.46751 -37.6356 8.09196 -39.1343 8.51805C-45.68 6.91652 -51.2559 13.7781 -57.9853 10.6779C-57.9853 11.9562 -57.9853 13.2345 -57.9853 14.5127C-56.156 14.4246 -54.3268 14.3364 -52.5049 14.2409C-52.211 14.6156 -51.9686 14.9829 -51.7776 15.3355C-48.8831 20.5809 -56.4279 23.2036 -55.9797 27.8392C-54.0256 28.8897 -55.8695 29.7346 -56.2515 30.6602C-56.4499 30.4913 -56.6042 30.3296 -56.7364 30.168C-56.7658 30.1313 -56.7952 30.0946 -56.8172 30.0578C-56.9274 29.9035 -57.0156 29.7493 -57.067 29.595C-57.067 29.5876 -57.0743 29.5803 -57.0743 29.5803C-57.1258 29.404 -57.1405 29.235 -57.1184 29.0661C-57.1184 29.0587 -57.1184 29.0587 -57.1184 29.0514C-57.0964 28.8824 -57.0303 28.7208 -56.9274 28.5591C-57.1037 28.5665 -57.2874 28.5298 -57.4637 28.4269C-57.64 28.3241 -57.8237 28.1698 -58 27.9494C-58 31.1451 -58 34.3481 -58 37.5438C-57.5886 37.3014 -57.1992 37.1398 -56.8319 37.0369C-54.2459 36.3611 -52.5563 38.947 -50.3523 39.6817C-50.3523 39.6743 -50.3597 39.667 -50.3597 39.6523H-50.3523C-49.9042 40.2694 -49.4561 40.8938 -49.0079 41.5109L-49.2136 41.4815L-49.3459 41.4595C-48.5672 42.0546 -47.7958 42.6496 -47.0244 43.2447C-47.0244 43.2447 -47.0244 43.2447 -47.0244 43.252C-44.1373 46.8885 -44.174 52.773 -38.5466 54.3158C-42.3668 60.4354 -36.5704 67.6055 -40.5816 73.8279C-40.9048 74.3348 -39.3694 76.5608 -38.2528 77.3763C-33.4408 80.9099 -25.0879 81.1156 -26.9613 90.7835C-27.2111 92.0618 -23.4644 93.0316 -21.4514 89.6081C-17.1097 82.2323 -8.01478 79.7859 -3.73915 71.9252C-4.26075 80.425 1.47683 87.1617 -1.07974 95.3236C-1.66011 97.1676 2.27023 104.874 5.95815 108.731C10.8656 113.866 15.9199 111.185 21.3563 109.069C36.7324 103.089 40.8391 105.836 48.1708 125.429C50.316 131.167 50.698 138.352 58.5514 140.137C59.4256 145.529 58.8232 149.658 52.1673 151.076C47.4215 152.09 40.413 153.493 41.7207 159.678C42.874 165.115 48.7879 169.339 54.8341 169.684C60.4688 170 61.9087 172.572 64.715 177.031C70.8934 186.838 75.3453 196.367 74.5152 208.305C73.9128 217.032 70.842 225.143 68.6527 233.29C66.2357 242.311 72.0394 250.231 69.4535 258.988C68.7482 261.368 74.0744 263.711 76.4767 265.717C82.6918 270.911 82.0673 278.764 85.8801 284.752C87.6947 287.602 84.2198 288.741 81.6927 290.46C76.6016 293.92 68.9907 294.405 68.3295 304.073C68.0209 308.606 58.7497 309.304 53.2546 310.854C43.9025 313.491 45.2469 321.991 42.9328 328.507C40.8244 334.436 46.3709 334.157 49.1699 335.854C53.3721 338.403 57.4861 341.437 63.0106 338.447C65.288 337.213 67.8299 337.653 68.3368 341.327C68.6527 343.641 70.4526 345.845 72.4729 346.19C80.9066 347.623 80.7744 353.786 80.385 359.928C80.1205 364.145 81.0168 366.092 85.3732 368.428C96.2166 374.246 103.6 383.451 105.091 396.344C107.008 396.344 108.926 396.344 110.851 396.344C113.194 387.91 117.881 381.093 125.58 376.869C127.792 375.657 128.379 374.246 128.041 372.476C126.117 362.433 132.104 354.874 135.645 346.455C138.157 340.46 142.514 339.057 147.539 341.136C151.77 342.892 156.193 342.943 160.329 344.339C165.038 345.926 169.505 348.152 170.313 340.364C170.364 339.835 170.893 339.35 171.194 338.844C179.342 346.337 181.531 334.605 187.312 333.708C194.468 332.599 197.928 325.826 202.806 321.139C205.532 318.516 211.064 318.744 215.097 320.551C220.166 322.828 220.511 322.13 223.303 316.459C227.689 307.57 227.608 298.769 229.797 290.093C232.273 280.278 242.066 269.802 252.608 269.655C261.629 269.53 274.588 271.087 278.298 284.634C279.011 287.227 282.28 289.13 284.587 291.569C286.041 289.512 287.121 287.94 288.26 286.412C296.87 274.893 298.258 274.841 309.41 283.569C312.841 286.25 316.257 291.062 321.701 287.308C326.439 284.032 324.346 279.323 323.119 275.392C322.362 272.968 322.076 272.116 324.118 270.007C329.136 264.828 328.834 264.534 325.315 258.121C336.982 255.381 355.59 235.053 356.597 223.96C372.149 217.267 380.715 205.469 382.316 188.631C382.831 183.261 385.123 179.712 391 179.514C391 178.875 391 178.236 391 177.596C382.552 177.126 374.03 175.819 366.176 180.785Z" fill="#FFA87F"/>
<path d="M366.176 174.143C361.842 176.883 357.61 174.062 354.723 171.777C349.426 167.59 345.011 162.396 341.323 156.43C339.186 152.978 342.565 153.139 342.778 151.428C344.284 139.313 349.066 127.375 335.953 117.274C329.209 112.08 328.665 101.134 321.995 94.5881C321.767 94.3603 321.686 94.1032 321.708 93.8093C321.723 93.6257 321.774 93.4273 321.855 93.2216C321.973 92.9131 322.171 92.5751 322.377 92.2299C323.141 90.9663 324.228 89.5264 323.765 88.2628C323.494 87.5281 322.7 86.8523 321.003 86.316C321.003 86.316 321.003 86.316 321.003 86.3086C318.829 79.8364 315.706 78.1394 309.072 82.0624C300.117 87.3592 292.051 95.5578 279.959 93.3098C277.402 92.8323 275.925 94.8085 276.822 97.6736C264.619 93.3024 261.218 81.2102 256.994 71.5129C253.225 62.8735 250.051 53.7418 243.858 47.0713C233.588 36.0222 231.994 21.4322 225.933 8.75956C219.409 -4.87545 205.855 -17.1587 191.368 -15.469C181.457 -14.3083 181.854 -18.0109 183.794 -24.7402C181.876 -24.7402 179.959 -24.7402 178.034 -24.7402C179.599 -23.1314 178.541 -21.1846 177.395 -20.8246C164.693 -16.8281 154.239 -7.62302 141.089 -4.90483C135.439 -3.73675 130.15 -1.94422 125.132 0.64908C114.788 5.9826 108.243 -3.98653 99.5959 -5.40439C99.3315 -5.44847 99.067 -5.53663 98.8025 -5.65417C98.5748 -5.75702 98.3397 -5.88191 98.112 -6.01415C96.4957 -6.93245 94.9016 -8.22543 93.3515 -5.28685C93.1311 -6.12434 92.9107 -6.95449 92.6903 -7.78464C91.39 -6.44024 90.0896 -5.09584 88.7893 -3.75879C88.0326 -5.4852 87.4743 -7.21896 84.9986 -7.37324C77.946 -7.82872 70.9007 -8.41644 63.8628 -9.08496C59.8517 -9.45963 58.4706 -6.58717 56.6927 -3.91306C52.5787 2.28733 46.2534 4.24883 39.3331 4.04313C35.6305 3.93294 32.0233 3.8007 30.7157 -1.95891C29.7974 -6.0068 22.0028 -6.56513 20.6364 -3.86898C16.4195 4.48392 11.659 0.222986 7.58906 -2.44377C1.77802 -6.25658 -2.28456 -6.90307 -9.3298 -3.2225C-16.4779 0.509495 -26.0944 -0.519011 -34.6236 0.627035C-36.159 0.832737 -37.6356 1.45719 -39.1343 1.88328C-45.68 0.281757 -51.2559 7.14333 -57.9853 4.04313C-57.9853 5.32141 -57.9853 6.5997 -57.9853 7.87798C-56.156 7.78982 -54.3268 7.70166 -52.5049 7.60616C-52.211 7.98083 -51.9686 8.34815 -51.7776 8.70078C-48.8831 13.9461 -56.4279 16.5688 -55.9797 21.2044C-54.0256 22.255 -55.8695 23.0998 -56.2515 24.0255C-56.4499 23.8565 -56.6042 23.6949 -56.7364 23.5332C-56.7658 23.4965 -56.7952 23.4598 -56.8172 23.4231C-56.9274 23.2688 -57.0156 23.1145 -57.067 22.9602C-57.067 22.9529 -57.0743 22.9455 -57.0743 22.9455C-57.1258 22.7692 -57.1405 22.6003 -57.1184 22.4313C-57.1184 22.4239 -57.1184 22.4239 -57.1184 22.4166C-57.0964 22.2476 -57.0303 22.086 -56.9274 21.9244C-57.1037 21.9317 -57.2874 21.895 -57.4637 21.7921C-57.64 21.6893 -57.8237 21.535 -58 21.3146C-58 24.5103 -58 27.7134 -58 30.9091C-57.5886 30.6667 -57.1992 30.505 -56.8319 30.4022C-54.2459 29.7263 -52.5563 32.3123 -50.3523 33.0469C-50.3523 33.0396 -50.3597 33.0322 -50.3597 33.0175H-50.3523C-49.9042 33.6346 -49.4561 34.2591 -49.0079 34.8762L-49.2136 34.8468L-49.3459 34.8247C-48.5672 35.4198 -47.7958 36.0149 -47.0244 36.6099C-47.0244 36.6099 -47.0244 36.6099 -47.0244 36.6173C-44.1373 40.2538 -44.174 46.1383 -38.5466 47.681C-42.3668 53.8006 -36.5704 60.9707 -40.5816 67.1932C-40.9048 67.7001 -39.3694 69.9261 -38.2528 70.7415C-33.4408 74.2751 -25.0879 74.4809 -26.9613 84.1488C-27.2111 85.4271 -23.4644 86.3968 -21.4514 82.9733C-17.1097 75.5975 -8.01478 73.1511 -3.73915 65.2905C-4.26075 73.7903 1.47683 80.527 -1.07974 88.6889C-1.66011 90.5328 2.27023 98.2393 5.95815 102.096C10.8656 107.231 15.9199 104.55 21.3563 102.434C36.7324 96.4541 40.8391 99.2016 48.1708 118.795C50.316 124.532 50.698 131.717 58.5514 133.502C59.4256 138.894 58.8232 143.023 52.1673 144.441C47.4215 145.455 40.413 146.858 41.7207 153.044C42.874 158.48 48.7879 162.704 54.8341 163.05C60.4688 163.365 61.9087 165.937 64.715 170.396C70.8934 180.204 75.3453 189.732 74.5152 201.67C73.9128 210.397 70.842 218.508 68.6527 226.655C66.2357 235.677 72.0394 243.596 69.4535 252.353C68.7482 254.733 74.0744 257.077 76.4767 259.082C82.6918 264.276 82.0673 272.13 85.8801 278.117C87.6947 280.967 84.2198 282.106 81.6927 283.825C76.6016 287.285 68.9907 287.77 68.3295 297.438C68.0209 301.971 58.7497 302.669 53.2546 304.219C43.9025 306.856 45.2469 315.356 42.9328 321.872C40.8244 327.801 46.3709 327.514 49.1699 329.219C53.3721 331.768 57.4861 334.802 63.0106 331.812C65.288 330.578 67.8299 331.019 68.3368 334.692C68.6527 337.006 70.4526 339.21 72.4729 339.555C80.9066 340.988 80.7744 347.151 80.385 353.293C80.1205 357.51 81.0168 359.457 85.3732 361.793C96.2166 367.611 103.6 376.816 105.091 389.709C107.008 389.709 108.926 389.709 110.851 389.709C113.194 381.276 117.881 374.458 125.58 370.234C127.792 369.022 128.379 367.611 128.041 365.841C126.117 355.798 132.104 348.239 135.645 339.82C138.157 333.825 142.514 332.422 147.539 334.501C151.77 336.257 156.193 336.308 160.329 337.704C165.038 339.291 169.505 341.517 170.313 333.73C170.364 333.201 170.893 332.716 171.194 332.209C179.342 339.702 181.531 327.97 187.312 327.074C194.468 325.964 197.928 319.191 202.806 314.504C205.532 311.881 211.064 312.109 215.097 313.916C220.166 316.194 220.511 315.496 223.303 309.824C227.689 300.935 227.608 292.134 229.797 283.458C232.273 273.643 242.066 263.167 252.608 263.02C261.629 262.895 274.588 264.453 278.298 277.999C279.011 280.593 282.28 282.495 284.587 284.934C286.041 282.877 287.121 281.305 288.26 279.777C296.87 268.258 298.258 268.207 309.41 276.934C312.841 279.616 316.257 284.428 321.701 280.674C326.439 277.397 324.346 272.688 323.119 268.758C322.362 266.333 322.076 265.481 324.118 263.373C329.136 258.193 328.834 257.9 325.315 251.486C336.982 248.746 355.59 228.418 356.597 217.325C372.149 210.633 380.715 198.834 382.316 181.996C382.831 176.626 385.123 173.077 391 172.879C391 172.24 391 171.601 391 170.962C382.552 170.484 374.03 169.177 366.176 174.143Z" fill="#FFDBB7"/>
<path d="M108.847 233.883L88.2032 233.589V233.582H88.0783H87.9534V233.589L44.6094 234.214L46.3578 245.454C46.3578 245.454 48.9732 277.543 87.9534 277.675C87.9975 277.675 88.0342 277.675 88.0783 277.675C88.1224 277.675 88.1591 277.675 88.2032 277.675C90.1133 277.668 91.9352 277.58 93.6763 277.433C100.868 270.278 107.818 257.326 108.847 233.883Z" fill="#D4C2A4"/>
<path d="M108.847 233.883C107.818 257.325 100.868 270.277 93.6763 277.433C127.433 274.465 129.799 245.453 129.799 245.453L131.547 234.213L108.847 233.883Z" fill="#BEA989"/>
<path d="M131.885 231.92C131.885 249.192 112.27 263.194 88.071 263.194C63.8718 263.194 44.2568 249.192 44.2568 231.92C44.2568 214.649 63.8718 200.646 88.071 200.646C112.27 200.646 131.885 214.649 131.885 231.92Z" fill="#EEE2CB"/>
<path d="M88.0782 202.312C65.1059 202.312 46.4827 215.565 46.4827 231.919C46.4827 235.327 47.2981 238.597 48.7821 241.638C49.2302 240.33 50.4865 238.457 54.0275 238.244C54.0275 238.244 53.8585 236.826 56.0257 237.245C58.1929 237.664 61.1902 236.246 62.5199 235.166C63.8497 234.086 72.6801 230.92 75.6774 233.917C75.6774 233.917 80.842 233.168 83.1708 236.415C84.5519 238.339 84.9707 240.081 85.0809 241.19C88.0929 241.19 98.6204 240.264 101.662 239.985C101.574 239.647 101.493 239.302 101.405 238.949C101.405 238.949 101.405 235.827 104.152 236.451C104.152 236.451 118.265 235.827 119.763 242.071C119.763 242.071 123.011 238.699 125.758 241.197C125.758 241.197 126.324 241.741 126.867 242.593C128.667 239.28 129.659 235.68 129.659 231.911C129.674 215.565 111.051 202.312 88.0782 202.312Z" fill="#BEA989"/>
<path d="M84.295 215.969C84.295 215.969 90.5395 211.098 91.6635 212.972L91.7883 214.471C91.7883 214.471 95.0355 214.845 97.6582 217.593C97.6582 217.593 110.896 214.471 112.77 222.214C114.643 229.957 95.0355 232.704 95.0355 232.704C95.0355 232.704 82.4216 229.332 84.295 215.969Z" fill="#00A623"/>
<path d="M94.9103 233.703C94.9103 233.703 94.9103 231.954 97.0334 231.705C97.0334 231.705 96.1592 230.581 97.1583 229.706C97.1583 229.706 94.7854 228.707 93.4116 229.457L94.2858 227.333C94.2858 227.333 96.5339 227.209 98.4072 228.208C98.4072 228.208 100.031 222.713 106.275 223.087C106.275 223.087 109.273 219.59 114.268 220.09C114.268 220.09 115.892 221.214 116.017 222.713C116.017 222.713 121.262 224.586 122.886 227.458C122.886 227.458 123.01 228.457 122.136 229.082C122.136 229.082 128.256 235.077 125.258 242.32L96.9012 241.946L94.9103 233.703Z" fill="#FF872B"/>
<path d="M97.783 230.082C97.783 230.082 109.523 235.078 118.147 228.209L119.396 229.708C119.396 229.708 112.902 236.701 98.2825 232.455L97.783 230.082Z" fill="#FF4D07"/>
<path d="M113.276 234.579C113.276 234.579 122.268 238.076 123.767 242.447L125.516 241.573C125.516 241.573 121.519 235.953 115.399 233.58" fill="#FF4D07"/>
<path d="M105.533 220.717C105.533 220.717 101.412 228.21 107.157 233.081L109.904 233.206C109.904 233.206 104.409 229.834 106.532 220.467L105.533 220.717Z" fill="#FF4D07"/>
<path d="M88.2913 224.837C90.2895 222.464 88.666 220.341 88.666 220.341C91.7882 217.593 90.4144 213.971 89.2904 215.095C88.1664 216.219 86.7926 215.97 86.7926 215.97C87.7918 213.347 83.1708 213.222 83.1708 213.222C83.1708 213.222 82.9211 210.35 79.5491 210.599C76.177 210.849 75.4277 215.47 75.4277 215.47C75.4277 215.47 72.0557 213.971 71.0565 215.095C70.0574 216.219 73.0548 217.593 73.0548 217.593C69.6828 218.218 69.3081 221.715 69.3081 221.715L78.5499 236.202C78.5499 236.202 90.0398 234.828 91.7882 230.582C93.5367 226.335 88.2913 224.837 88.2913 224.837Z" fill="#FF4D07"/>
<path d="M73.0549 217.594C73.0549 217.594 79.2994 218.093 79.2994 225.587C79.2994 226.086 84.5448 226.086 86.543 231.831C86.543 231.831 86.1683 225.587 81.2976 224.712C81.2976 224.712 81.7972 217.594 73.0549 217.594Z" fill="#EF2313"/>
<path d="M86.2926 216.094C86.2926 216.094 86.2412 216.13 86.1604 216.196C86.3588 216.116 86.5718 216.042 86.7922 215.969L86.2926 216.094Z" fill="#EF2313"/>
<path d="M83.9199 221.839C83.0383 218.871 85.5434 216.682 86.1605 216.197C79.5341 218.739 83.2954 223.088 83.2954 223.088C85.6683 221.964 88.291 224.837 88.291 224.837C87.9163 221.839 83.9199 221.839 83.9199 221.839Z" fill="#EF2313"/>
<path d="M83.171 213.223C83.171 213.223 79.2994 214.722 78.9247 220.092L76.9265 218.167C76.9265 218.167 78.4252 213.098 83.171 213.223Z" fill="#EF2313"/>
<path d="M117.023 221.59C117.023 221.59 118.896 234.329 108.406 238.45L109.904 240.323C109.904 240.323 121.02 234.453 118.522 222.839L117.023 221.59Z" fill="#FF4D07"/>
<path d="M53.6893 238.947C53.6893 238.947 49.9426 236.824 50.567 235.825C51.1915 234.826 53.3146 236.574 53.3146 236.574C53.3146 236.574 51.0666 233.202 52.815 232.827C54.5635 232.453 54.1888 234.826 55.9373 235.325C55.9373 235.325 55.1879 231.578 52.6901 229.955C50.1924 228.331 53.3146 227.332 55.6875 230.829C58.0604 234.326 55.9373 231.329 55.9373 231.329C55.9373 231.329 55.063 227.332 58.6848 227.582C58.6848 227.582 57.436 224.085 62.5564 223.211C62.5564 223.211 67.6769 216.841 76.0445 225.209C76.0445 225.209 77.5432 226.458 76.1694 227.207C74.7956 227.957 73.2969 225.958 73.2969 225.958C73.2969 225.958 76.6689 229.455 79.1667 229.455C81.6645 229.455 80.9152 230.579 79.9161 231.079C78.917 231.578 75.2952 230.704 75.2952 230.704C75.2952 230.704 79.6663 230.829 80.2907 235.075C80.9225 239.322 53.6893 238.947 53.6893 238.947Z" fill="#A6613B"/>
<path d="M62.0642 225.959C62.0642 225.959 65.9358 229.831 70.8065 227.832C70.8065 227.832 72.8047 229.831 75.6772 229.955C75.6772 229.955 73.4292 231.204 70.8065 230.205C70.8065 230.205 62.9384 230.08 62.0642 225.959Z" fill="#804428"/>
<path d="M61.4326 237.074C61.4326 237.074 57.0614 230.579 57.9357 225.459C58.8099 220.338 59.9339 224.71 59.6841 226.083C59.4343 227.457 62.3068 235.575 62.6815 235.7" fill="#804428"/>
<path d="M69.9324 228.956C69.9324 228.956 66.3106 223.211 69.4328 221.213C69.4328 221.213 69.4328 226.458 71.556 229.331C73.6791 232.203 73.4293 231.829 72.3053 234.451L70.6817 234.201C70.6817 234.201 72.8049 232.078 69.9324 228.956Z" fill="#804428"/>
<path d="M75.6775 233.919C72.6802 230.921 63.8498 234.088 62.5201 235.168C61.1904 236.247 58.193 237.665 56.0258 237.247C53.8586 236.828 54.0276 238.246 54.0276 238.246C50.4866 238.459 49.2304 240.332 48.7822 241.64C51.8457 247.906 57.7816 253.218 65.4734 256.773C69.8665 243.924 82.9285 242.33 82.9285 242.33C83.7586 241.001 84.4272 241.162 84.4272 241.162C84.5594 241.184 84.7871 241.192 85.0883 241.192C84.9781 240.082 84.5594 238.341 83.1783 236.416C80.8421 233.169 75.6775 233.919 75.6775 233.919Z" fill="#9DDD8C"/>
<path d="M84.4196 241.163C84.5519 241.185 84.7796 241.193 85.0808 241.193C85.0441 240.847 84.978 240.443 84.8678 239.988C82.5022 241.259 79.5049 239.165 79.5049 239.165C76.39 240.686 73.973 238.327 73.569 237.894C74.4138 237.02 75.1264 235.911 75.5892 234.5C75.5892 234.5 72.0923 239.914 64.5108 239.826C64.5108 239.826 60.7641 241.406 56.1799 238.827C56.1799 238.827 54.1817 236.66 54.3506 238.746C54.358 238.812 54.6518 239.238 55.2175 239.753C54.0862 239.973 51.4268 240.686 49.3257 242.706C49.5608 243.139 49.8179 243.566 50.0824 243.984C51.1696 243.059 53.2487 241.582 56.2975 240.583C57.1129 241.119 58.1708 241.611 59.4491 241.839C59.6695 243.375 60.0221 247.716 58.0239 252.389C58.4132 252.675 58.8099 252.962 59.214 253.241C60.0882 251.235 61.4694 247.004 60.4188 241.949C61.6677 242.015 63.0856 241.81 64.6724 241.163C64.6724 241.163 65.4658 241.2 66.6413 241.053C66.318 245.615 68.0518 248.59 69.1978 250.038C69.5798 249.582 69.9692 249.149 70.3659 248.745C67.7359 245.174 68.162 241.56 68.3015 240.744C69.7121 240.407 71.3063 239.782 72.7021 238.673C75.8317 241.435 79.5783 240.326 79.5783 240.326C80.6877 241.435 82.0614 241.788 83.2589 241.832C83.9348 241.046 84.4196 241.163 84.4196 241.163Z" fill="#00A623"/>
<path d="M84.4196 241.164C84.4196 241.164 83.7511 240.995 82.921 242.332C82.921 242.332 69.859 243.926 65.4658 256.775C71.9748 259.78 79.7326 261.528 88.0708 261.528C96.005 261.528 103.418 259.949 109.728 257.201C106.856 254.725 104.042 249.502 101.654 239.988C98.3191 240.289 85.933 241.377 84.4196 241.164Z" fill="#FFECDB"/>
<path d="M84.6693 241.493C84.6693 241.493 84.3387 244.491 87.4977 246.57C87.4977 246.57 87.6667 260.227 104.74 257.148C121.813 254.07 101.823 241.324 101.823 241.324L84.6693 241.493Z" fill="#E8D5C5"/>
<path d="M97.9077 236.77C97.9077 240.458 94.33 243.441 89.9148 243.441C85.4996 243.441 81.9219 240.451 81.9219 236.77C81.9219 233.082 85.4996 230.1 89.9148 230.1C94.33 230.092 97.9077 233.082 97.9077 236.77Z" fill="#FFE300"/>
<path d="M126.882 242.595C126.339 241.75 125.773 241.199 125.773 241.199C123.025 238.702 119.778 242.074 119.778 242.074C118.28 235.829 104.167 236.454 104.167 236.454C101.419 235.829 101.419 238.951 101.419 238.951C103.858 249.119 106.768 254.629 109.743 257.193C117.486 253.828 123.562 248.7 126.882 242.595Z" fill="#FFC8B1"/>
<path d="M119.521 242.823C119.521 242.823 116.399 241.075 114.4 242.199C114.4 242.199 111.403 238.951 108.156 240.325L110.279 242.948C110.279 242.948 115.899 245.578 119.521 242.823Z" fill="#BF5145"/>
<path d="M88.7909 243.573C88.7909 243.573 88.2914 240.326 93.1621 239.951C98.0328 239.576 102.654 236.454 107.275 239.327C111.895 242.199 117.516 252.315 111.021 256.062C104.534 259.816 87.542 261.439 88.7909 243.573Z" fill="#F50909"/>
<path d="M86.4178 242.662C86.4178 242.662 74.5092 247.988 70.1821 258.237C70.1821 258.237 79.5047 247.077 86.4178 242.662Z" fill="#E8D5C5"/>
<path d="M74.3477 253.153C74.3477 253.153 81.4296 251.074 87.9239 246.24C87.9165 246.24 82.0908 248.407 74.3477 253.153Z" fill="#E8D5C5"/>
<path d="M83.0092 261.312C83.0092 261.312 80.4306 254.568 77.3451 251.982L76.3459 252.151C76.3459 252.151 80.0926 258.065 83.0092 261.312Z" fill="#E8D5C5"/>
<path d="M79.9238 250.492C79.9238 250.492 85.8377 257.067 92.5818 261.321C92.5818 261.313 84.5007 252.74 79.9238 250.492Z" fill="#E8D5C5"/>
<path d="M88.2545 248.156C88.2545 248.156 86.7558 252.733 87.9239 257.067L88.923 258.147L88.2545 248.156Z" fill="#E8D5C5"/>
<path d="M107.906 221.465C107.906 221.465 115.774 231.206 124.392 229.708L124.766 231.706C124.766 231.706 114.525 232.205 106.283 223.088L107.906 221.465Z" fill="#FFC36E"/>
<path d="M92.6624 215.596C92.6624 215.596 97.0335 218.968 94.2859 224.338C94.2859 224.338 94.2859 220.342 92.6624 215.596Z" fill="#00C933"/>
<path d="M108.656 217.592C108.656 217.592 101.412 217.592 97.9152 225.085C97.9079 225.085 97.0336 214.345 108.656 217.592Z" fill="#00C933"/>
<path d="M188.077 78.6836H172.627V85.7288H188.077V78.6836Z" fill="#BF5E4D"/>
<path d="M189.355 86.5078H171.356V137.169H189.355V86.5078Z" fill="#BF5E4D"/>
<path d="M167.147 119.758L153.651 129.147V169.442H168.322L167.147 119.758Z" fill="#BF5E4D"/>
<path d="M193.557 119.758L207.053 129.147V169.442H192.382L193.557 119.758Z" fill="#BF5E4D"/>
<path d="M180.356 117.408C176.102 117.408 172.642 120.868 172.642 125.122V151.819H188.07V125.122C188.062 120.868 184.602 117.408 180.356 117.408Z" fill="#E9DAC2"/>
<path d="M177.616 96.9453C176.58 96.9453 175.735 97.7902 175.735 98.826V110.345H179.496V98.826C179.496 97.7902 178.652 96.9453 177.616 96.9453Z" fill="#806A54"/>
<path d="M183.089 96.9453C182.053 96.9453 181.208 97.7902 181.208 98.826V110.345H184.97V98.826C184.97 97.7902 184.132 96.9453 183.089 96.9453Z" fill="#806A54"/>
<path d="M180.356 118.393C176.639 118.393 173.619 121.405 173.619 125.129V150.849H187.092V125.122C187.085 121.405 184.073 118.393 180.356 118.393Z" fill="#BF5E4D"/>
<path d="M171.062 95.6973L169.005 97.7469V113.005L166.463 115.746V144.404H173.604V95.6973H171.062Z" fill="#CEBC9B"/>
<path d="M189.641 95.6973L191.698 97.7469V113.005L194.24 115.746V144.404H187.099V95.6973H189.641Z" fill="#CEBC9B"/>
<path d="M181.156 132.32C181.156 130.55 179.716 129.117 177.953 129.117C176.183 129.117 174.75 130.557 174.75 132.32V138.278H181.156V132.32Z" fill="#CEBC9B"/>
<path d="M177.953 130.756C177.093 130.756 176.396 131.454 176.396 132.313V138.271H179.518V132.313C179.51 131.454 178.812 130.756 177.953 130.756Z" fill="#806A54"/>
<path d="M185.953 132.32C185.953 130.55 184.514 129.117 182.75 129.117C180.98 129.117 179.547 130.557 179.547 132.32V138.278H185.953V132.32Z" fill="#CEBC9B"/>
<path d="M182.751 130.756C181.891 130.756 181.193 131.454 181.193 132.313V138.271H184.315V132.313C184.315 131.454 183.61 130.756 182.751 130.756Z" fill="#806A54"/>
<path d="M188.569 137.947H172.135V144.405H188.569V137.947Z" fill="#E9DAC2"/>
<path d="M173.193 135.771V131.518L171.158 130.35L169.13 131.518V135.771L168.41 136.183V144.469H173.906V136.183L173.193 135.771Z" fill="#F6F7F7"/>
<path d="M191.574 135.771V131.518L189.546 130.35L187.518 131.518V135.771L186.798 136.183V144.469H192.293V136.183L191.574 135.771Z" fill="#F6F7F7"/>
<path d="M192.97 143.883H167.735V162.66H192.97V143.883Z" fill="#BF5E4D"/>
<path d="M191.405 159.465C191.405 153.368 186.446 148.416 180.356 148.416C174.265 148.416 169.307 153.375 169.307 159.465V180.006H191.412V159.465H191.405Z" fill="#CEBC9B"/>
<path d="M180.356 154.088C177.388 154.088 174.978 156.498 174.978 159.465V180.006H185.733V159.465C185.733 156.49 183.324 154.088 180.356 154.088Z" fill="#806A54"/>
<path d="M169.226 160.832C169.226 156.395 165.619 152.795 161.189 152.795C156.759 152.795 153.152 156.402 153.152 160.832V179.999H169.234V160.832H169.226Z" fill="#CEBC9B"/>
<path d="M161.182 156.922C159.022 156.922 157.266 158.678 157.266 160.838V180.004H165.09V160.838C165.098 158.67 163.342 156.922 161.182 156.922Z" fill="#806A54"/>
<path d="M207.559 160.832C207.559 156.395 203.952 152.795 199.515 152.795C195.085 152.795 191.478 156.402 191.478 160.832V179.999H207.559V160.832Z" fill="#CEBC9B"/>
<path d="M199.523 156.922C197.363 156.922 195.607 158.678 195.607 160.838V180.004H203.431V160.838C203.438 158.67 201.682 156.922 199.523 156.922Z" fill="#806A54"/>
<path d="M147.826 126.602L143.521 132.178V146.746L140.2 149.581V179.511H148.708L147.826 126.602Z" fill="#C2AE8D"/>
<path d="M155.665 115.25H147.253V179.994H155.665V115.25Z" fill="#E9DAC2"/>
<path d="M155.665 174.912H147.253V179.996H155.665V174.912Z" fill="#F6F7F7"/>
<path d="M156.348 126.307C156.348 126.578 156.128 126.799 155.856 126.799H147.055C146.783 126.799 146.563 126.578 146.563 126.307C146.563 126.035 146.783 125.814 147.055 125.814H155.856C156.128 125.814 156.348 126.035 156.348 126.307Z" fill="#CEBC9B"/>
<path d="M156.348 145.283C156.348 145.555 156.128 145.775 155.856 145.775H147.055C146.783 145.775 146.563 145.555 146.563 145.283C146.563 145.011 146.783 144.791 147.055 144.791H155.856C156.128 144.791 156.348 145.011 156.348 145.283Z" fill="#CEBC9B"/>
<path d="M151.456 119.166C150.831 119.166 150.332 119.666 150.332 120.29V123.662H152.58V120.29C152.587 119.673 152.08 119.166 151.456 119.166Z" fill="#806A54"/>
<path d="M151.456 134.814C150.831 134.814 150.332 135.314 150.332 135.938V139.31H152.58V135.938C152.587 135.321 152.08 134.814 151.456 134.814Z" fill="#806A54"/>
<path d="M151.456 151.439C150.831 151.439 150.332 151.939 150.332 152.563V155.935H152.58V152.563C152.587 151.946 152.08 151.439 151.456 151.439Z" fill="#806A54"/>
<path d="M151.456 164.545C150.831 164.545 150.332 165.052 150.332 165.669V169.041H152.58V165.669C152.587 165.052 152.08 164.545 151.456 164.545Z" fill="#806A54"/>
<path d="M156.444 113.106C156.444 109.543 154.211 106.648 151.456 106.648C148.701 106.648 146.468 109.536 146.468 113.106C146.468 113.899 146.585 114.656 146.784 115.354H156.121C156.334 114.649 156.444 113.899 156.444 113.106Z" fill="#005986"/>
<path d="M156.738 115.648C156.738 115.92 156.517 116.141 156.245 116.141H146.658C146.386 116.141 146.166 115.92 146.166 115.648C146.166 115.377 146.386 115.156 146.658 115.156H156.245C156.524 115.156 156.738 115.377 156.738 115.648Z" fill="#CEBC9B"/>
<path d="M212.879 126.602L217.184 132.178V146.746L220.504 149.581V179.511H211.997L212.879 126.602Z" fill="#C2AE8D"/>
<path d="M213.451 115.25H205.04V179.994H213.451V115.25Z" fill="#E9DAC2"/>
<path d="M213.451 174.912H205.04V179.996H213.451V174.912Z" fill="#F6F7F7"/>
<path d="M204.356 126.307C204.356 126.578 204.577 126.799 204.849 126.799H213.65C213.922 126.799 214.142 126.578 214.142 126.307C214.142 126.035 213.922 125.814 213.65 125.814H204.849C204.577 125.814 204.356 126.035 204.356 126.307Z" fill="#CEBC9B"/>
<path d="M204.356 145.283C204.356 145.555 204.577 145.775 204.849 145.775H213.65C213.922 145.775 214.142 145.555 214.142 145.283C214.142 145.011 213.922 144.791 213.65 144.791H204.849C204.577 144.791 204.356 145.011 204.356 145.283Z" fill="#CEBC9B"/>
<path d="M209.249 119.166C209.874 119.166 210.373 119.666 210.373 120.29V123.662H208.125V120.29C208.118 119.673 208.625 119.166 209.249 119.166Z" fill="#806A54"/>
<path d="M209.249 134.814C209.874 134.814 210.373 135.314 210.373 135.938V139.31H208.125V135.938C208.118 135.321 208.625 134.814 209.249 134.814Z" fill="#806A54"/>
<path d="M209.249 151.439C209.874 151.439 210.373 151.939 210.373 152.563V155.935H208.125V152.563C208.118 151.946 208.625 151.439 209.249 151.439Z" fill="#806A54"/>
<path d="M209.249 164.545C209.874 164.545 210.373 165.052 210.373 165.669V169.041H208.125V165.669C208.118 165.052 208.625 164.545 209.249 164.545Z" fill="#806A54"/>
<path d="M204.261 113.106C204.261 109.543 206.494 106.648 209.249 106.648C212.004 106.648 214.237 109.536 214.237 113.106C214.237 113.899 214.12 114.656 213.921 115.354H204.584C204.371 114.649 204.261 113.899 204.261 113.106Z" fill="#005986"/>
<path d="M203.967 115.648C203.967 115.92 204.188 116.141 204.459 116.141H214.047C214.318 116.141 214.539 115.92 214.539 115.648C214.539 115.377 214.318 115.156 214.047 115.156H204.452C204.18 115.156 203.967 115.377 203.967 115.648Z" fill="#CEBC9B"/>
<path d="M169.689 143.814H164.994V175.11H169.689V143.814Z" fill="#E9DAC2"/>
<path d="M169.689 175.109H164.994V180.002H169.689V175.109Z" fill="#F6F7F7"/>
<path d="M195.71 143.814H191.015V175.11H195.71V143.814Z" fill="#E9DAC2"/>
<path d="M195.71 175.109H191.015V180.002H195.71V175.109Z" fill="#F6F7F7"/>
<path d="M162.328 133.492C160.925 133.492 159.793 134.631 159.793 136.027V142.962H164.87V136.027C164.862 134.631 163.724 133.492 162.328 133.492Z" fill="#E9DAC2"/>
<path d="M162.328 134.469C161.468 134.469 160.771 135.167 160.771 136.026V141.984H163.893V136.026C163.885 135.167 163.187 134.469 162.328 134.469Z" fill="#806A54"/>
<path d="M198.377 133.492C196.981 133.492 195.842 134.631 195.842 136.027V142.962H200.919V136.027C200.919 134.631 199.78 133.492 198.377 133.492Z" fill="#E9DAC2"/>
<path d="M198.377 134.469C197.517 134.469 196.819 135.167 196.819 136.026V141.984H199.942V136.026C199.942 135.167 199.244 134.469 198.377 134.469Z" fill="#806A54"/>
<path d="M180.356 128.955C183.058 128.955 185.248 126.765 185.248 124.063C185.248 121.36 183.058 119.17 180.356 119.17C177.653 119.17 175.463 121.36 175.463 124.063C175.463 126.765 177.653 128.955 180.356 128.955Z" fill="#CEBC9B"/>
<path d="M183.478 124.062C183.478 122.335 182.082 120.939 180.356 120.939C178.629 120.939 177.233 122.335 177.233 124.062C177.233 125.788 178.629 127.184 180.356 127.184C182.075 127.184 183.478 125.788 183.478 124.062Z" fill="#806A54"/>
<path d="M181.722 92.9582C181.722 92.2016 181.112 91.5918 180.355 91.5918C179.599 91.5918 178.989 92.2016 178.989 92.9582C178.989 93.7149 179.599 94.3247 180.355 94.3247C181.105 94.332 181.722 93.7149 181.722 92.9582Z" fill="#806A54"/>
<path d="M171.775 74.3275C171.775 68.2006 175.617 63.2344 180.348 63.2344C185.087 63.2344 188.921 68.2006 188.921 74.3275C188.921 75.6866 188.723 76.9869 188.378 78.1917H172.319C171.973 76.9869 171.775 75.6866 171.775 74.3275Z" fill="#005986"/>
<path d="M189.348 78.5808C189.348 79.0657 188.951 79.4624 188.466 79.4624H172.23C171.746 79.4624 171.349 79.0657 171.349 78.5808C171.349 78.0959 171.746 77.6992 172.23 77.6992H188.466C188.958 77.6992 189.348 78.0959 189.348 78.5808Z" fill="#CEBC9B"/>
<path d="M190.192 85.4629H170.504V87.2848H190.192V85.4629Z" fill="#CEBC9B"/>
<path d="M354.43 189.65H286.093V219.337H354.43V189.65Z" fill="#8D4E17"/>
<path d="M307.589 188.527H290.787V219.338H307.589V188.527Z" fill="#DCDDDD"/>
<path d="M307.589 198.334H290.787V217.097H307.589V198.334Z" fill="#00AF63"/>
<path d="M307.589 195.809H290.787V197.351H307.589V195.809Z" fill="#00AF63"/>
<path d="M307.589 190.68H290.787V194.919H307.589V190.68Z" fill="#00AF63"/>
<path d="M328.666 188.527H311.865V219.338H328.666V188.527Z" fill="#DCDDDD"/>
<path d="M328.666 198.334H311.865V217.097H328.666V198.334Z" fill="#00AF63"/>
<path d="M328.666 195.809H311.865V197.351H328.666V195.809Z" fill="#00AF63"/>
<path d="M328.666 190.68H311.865V194.919H328.666V190.68Z" fill="#00AF63"/>
<path d="M349.742 188.527H332.941V219.338H349.742V188.527Z" fill="#DCDDDD"/>
<path d="M349.742 198.334H332.941V217.097H349.742V198.334Z" fill="#00AF63"/>
<path d="M349.742 195.809H332.941V197.351H349.742V195.809Z" fill="#00AF63"/>
<path d="M349.742 190.68H332.941V194.919H349.742V190.68Z" fill="#00AF63"/>
<path d="M354.43 189.65H286.093V194.271H354.43V189.65Z" fill="#DCDDDD"/>
<path d="M350.441 167.428C343.05 168.787 332.273 169.654 320.261 169.654C308.25 169.654 297.473 168.794 290.082 167.428C287.996 175.979 283.72 182.628 278.409 185.368C279.606 189.695 281.671 192.56 284.014 192.56H356.501C358.845 192.56 360.909 189.695 362.107 185.368C356.81 182.628 352.527 175.979 350.441 167.428Z" fill="#005C7C"/>
<path d="M326.168 193.428H314.37V196.506H326.168V193.428Z" fill="#3D3736"/>
<path d="M370.048 218.5H270.482V225.641H370.048V218.5Z" fill="#DCDDDD"/>
<path d="M307.104 218.5H305.422V226.765H307.104V218.5Z" fill="#EEEEEE"/>
<path d="M314.106 218.5H312.423V226.765H314.106V218.5Z" fill="#EEEEEE"/>
<path d="M321.107 218.5H319.424V226.765H321.107V218.5Z" fill="#EEEEEE"/>
<path d="M328.108 218.5H326.425V226.765H328.108V218.5Z" fill="#EEEEEE"/>
<path d="M335.109 218.5H333.427V226.765H335.109V218.5Z" fill="#EEEEEE"/>
<path d="M242.455 110.127H238.547V123.909H242.455V110.127Z" fill="#00A052"/>
<path d="M242.455 123.908H238.546V150.906H242.455V123.908Z" fill="#8D4E17"/>
<path d="M259.028 110.127H255.12V123.909H259.028V110.127Z" fill="#00A052"/>
<path d="M259.029 123.908H255.12V150.906H259.029V123.908Z" fill="#8D4E17"/>
<path d="M297.201 110.127H293.292V123.909H297.201V110.127Z" fill="#00A052"/>
<path d="M297.201 123.908H293.292V150.906H297.201V123.908Z" fill="#8D4E17"/>
<path d="M313.774 110.127H309.866V123.909H313.774V110.127Z" fill="#00A052"/>
<path d="M313.774 123.908H309.865V150.906H313.774V123.908Z" fill="#8D4E17"/>
<path d="M315.266 120.741C315.266 121.564 314.597 122.233 313.774 122.233H238.547C237.724 122.233 237.055 121.564 237.055 120.741C237.055 119.919 237.724 119.25 238.547 119.25H313.774C314.597 119.25 315.266 119.919 315.266 120.741Z" fill="#00AF63"/>
<path d="M315.266 112.302C315.266 113.125 314.597 113.793 313.774 113.793H238.547C237.724 113.793 237.055 113.125 237.055 112.302C237.055 111.479 237.724 110.811 238.547 110.811H313.774C314.597 110.811 315.266 111.479 315.266 112.302Z" fill="#00AF63"/>
<path d="M288.583 113.043H263.752V120.742H288.583V113.043Z" fill="#21110D"/>
<path d="M312.276 97.4023C303.475 98.0856 290.633 98.519 276.33 98.519C262.026 98.519 249.184 98.0856 240.383 97.4023C237.9 101.693 232.802 105.028 226.484 106.409C227.916 108.584 230.37 110.016 233.162 110.016H319.497C322.289 110.016 324.75 108.576 326.175 106.409C319.857 105.035 314.759 101.693 312.276 97.4023Z" fill="#005C7C"/>
<path d="M228.835 108.083C228.835 107.055 227.998 106.225 226.976 106.225C225.948 106.225 225.118 107.055 225.118 108.083C225.118 109.112 225.948 109.942 226.976 109.942C228.005 109.942 228.835 109.112 228.835 108.083Z" fill="#036D88"/>
<path d="M232.435 109.2C232.435 108.172 231.604 107.342 230.576 107.342C229.547 107.342 228.717 108.179 228.717 109.2C228.717 110.229 229.547 111.059 230.576 111.059C231.604 111.059 232.435 110.229 232.435 109.2Z" fill="#036D88"/>
<path d="M327.211 108.083C327.211 107.055 326.374 106.225 325.353 106.225C324.324 106.225 323.494 107.055 323.494 108.083C323.494 109.112 324.324 109.942 325.353 109.942C326.381 109.942 327.211 109.112 327.211 108.083Z" fill="#036D88"/>
<path d="M323.678 109.2C323.678 108.172 322.84 107.342 321.812 107.342C320.783 107.342 319.946 108.179 319.946 109.2C319.946 110.229 320.783 111.059 321.812 111.059C322.84 111.059 323.678 110.229 323.678 109.2Z" fill="#036D88"/>
<path d="M235.909 110.317C235.909 109.289 235.079 108.451 234.051 108.451C233.022 108.451 232.185 109.289 232.185 110.317C232.185 111.346 233.015 112.176 234.051 112.176C235.079 112.176 235.909 111.346 235.909 110.317Z" fill="#036D88"/>
<path d="M239.428 110.317C239.428 109.289 238.598 108.451 237.57 108.451C236.541 108.451 235.711 109.289 235.711 110.317C235.711 111.346 236.541 112.176 237.57 112.176C238.591 112.176 239.428 111.346 239.428 110.317Z" fill="#036D88"/>
<path d="M242.94 110.317C242.94 109.289 242.11 108.451 241.082 108.451C240.053 108.451 239.223 109.289 239.223 110.317C239.223 111.346 240.053 112.176 241.082 112.176C242.11 112.176 242.94 111.346 242.94 110.317Z" fill="#036D88"/>
<path d="M246.459 110.317C246.459 109.289 245.629 108.451 244.6 108.451C243.572 108.451 242.734 109.289 242.734 110.317C242.734 111.346 243.572 112.176 244.6 112.176C245.622 112.176 246.459 111.346 246.459 110.317Z" fill="#036D88"/>
<path d="M249.97 110.317C249.97 109.289 249.14 108.451 248.112 108.451C247.083 108.451 246.253 109.289 246.253 110.317C246.253 111.346 247.083 112.176 248.112 112.176C249.14 112.176 249.97 111.346 249.97 110.317Z" fill="#036D88"/>
<path d="M253.482 110.317C253.482 109.289 252.652 108.451 251.623 108.451C250.595 108.451 249.765 109.289 249.765 110.317C249.765 111.346 250.595 112.176 251.623 112.176C252.652 112.176 253.482 111.346 253.482 110.317Z" fill="#036D88"/>
<path d="M257.001 110.317C257.001 109.289 256.163 108.451 255.142 108.451C254.114 108.451 253.284 109.289 253.284 110.317C253.284 111.346 254.121 112.176 255.142 112.176C256.163 112.176 257.001 111.346 257.001 110.317Z" fill="#036D88"/>
<path d="M260.513 110.317C260.513 109.289 259.683 108.451 258.654 108.451C257.626 108.451 256.788 109.289 256.788 110.317C256.788 111.346 257.626 112.176 258.654 112.176C259.683 112.176 260.513 111.346 260.513 110.317Z" fill="#036D88"/>
<path d="M264.032 110.317C264.032 109.289 263.194 108.451 262.173 108.451C261.145 108.451 260.314 109.289 260.314 110.317C260.314 111.346 261.152 112.176 262.173 112.176C263.194 112.176 264.032 111.346 264.032 110.317Z" fill="#036D88"/>
<path d="M267.543 110.317C267.543 109.289 266.706 108.451 265.685 108.451C264.656 108.451 263.826 109.289 263.826 110.317C263.826 111.346 264.656 112.176 265.685 112.176C266.713 112.176 267.543 111.346 267.543 110.317Z" fill="#036D88"/>
<path d="M271.062 110.317C271.062 109.289 270.225 108.451 269.204 108.451C268.175 108.451 267.345 109.289 267.345 110.317C267.345 111.346 268.175 112.176 269.204 112.176C270.225 112.176 271.062 111.346 271.062 110.317Z" fill="#036D88"/>
<path d="M274.574 110.317C274.574 109.289 273.736 108.451 272.715 108.451C271.687 108.451 270.857 109.289 270.857 110.317C270.857 111.346 271.687 112.176 272.715 112.176C273.736 112.176 274.574 111.346 274.574 110.317Z" fill="#036D88"/>
<path d="M278.085 110.317C278.085 109.289 277.255 108.451 276.227 108.451C275.198 108.451 274.361 109.289 274.361 110.317C274.361 111.346 275.198 112.176 276.227 112.176C277.255 112.176 278.085 111.346 278.085 110.317Z" fill="#036D88"/>
<path d="M281.604 110.317C281.604 109.289 280.774 108.451 279.746 108.451C278.717 108.451 277.88 109.289 277.88 110.317C277.88 111.346 278.717 112.176 279.746 112.176C280.767 112.176 281.604 111.346 281.604 110.317Z" fill="#036D88"/>
<path d="M285.116 110.317C285.116 109.289 284.278 108.451 283.257 108.451C282.229 108.451 281.391 109.289 281.391 110.317C281.391 111.346 282.229 112.176 283.257 112.176C284.286 112.176 285.116 111.346 285.116 110.317Z" fill="#036D88"/>
<path d="M288.635 110.317C288.635 109.289 287.805 108.451 286.776 108.451C285.748 108.451 284.91 109.289 284.91 110.317C284.91 111.346 285.748 112.176 286.776 112.176C287.798 112.176 288.635 111.346 288.635 110.317Z" fill="#036D88"/>
<path d="M292.147 110.317C292.147 109.289 291.309 108.451 290.288 108.451C289.26 108.451 288.429 109.289 288.429 110.317C288.429 111.346 289.26 112.176 290.288 112.176C291.317 112.176 292.147 111.346 292.147 110.317Z" fill="#036D88"/>
<path d="M295.666 110.317C295.666 109.289 294.828 108.451 293.807 108.451C292.778 108.451 291.948 109.289 291.948 110.317C291.948 111.346 292.778 112.176 293.807 112.176C294.828 112.176 295.666 111.346 295.666 110.317Z" fill="#036D88"/>
<path d="M299.177 110.317C299.177 109.289 298.339 108.451 297.318 108.451C296.29 108.451 295.452 109.289 295.452 110.317C295.452 111.346 296.29 112.176 297.318 112.176C298.339 112.176 299.177 111.346 299.177 110.317Z" fill="#036D88"/>
<path d="M302.688 110.317C302.688 109.289 301.858 108.451 300.83 108.451C299.801 108.451 298.971 109.289 298.971 110.317C298.971 111.346 299.801 112.176 300.83 112.176C301.858 112.176 302.688 111.346 302.688 110.317Z" fill="#036D88"/>
<path d="M306.208 110.317C306.208 109.289 305.377 108.451 304.349 108.451C303.32 108.451 302.49 109.289 302.49 110.317C302.49 111.346 303.32 112.176 304.349 112.176C305.37 112.176 306.208 111.346 306.208 110.317Z" fill="#036D88"/>
<path d="M309.719 110.317C309.719 109.289 308.882 108.451 307.861 108.451C306.832 108.451 306.002 109.289 306.002 110.317C306.002 111.346 306.832 112.176 307.861 112.176C308.889 112.176 309.719 111.346 309.719 110.317Z" fill="#036D88"/>
<path d="M313.238 110.317C313.238 109.289 312.401 108.451 311.379 108.451C310.351 108.451 309.513 109.289 309.513 110.317C309.513 111.346 310.351 112.176 311.379 112.176C312.401 112.176 313.238 111.346 313.238 110.317Z" fill="#036D88"/>
<path d="M316.75 110.317C316.75 109.289 315.92 108.451 314.891 108.451C313.863 108.451 313.025 109.289 313.025 110.317C313.025 111.346 313.855 112.176 314.891 112.176C315.92 112.176 316.75 111.346 316.75 110.317Z" fill="#036D88"/>
<path d="M320.269 110.317C320.269 109.289 319.431 108.451 318.41 108.451C317.381 108.451 316.551 109.289 316.551 110.317C316.551 111.346 317.381 112.176 318.41 112.176C319.431 112.176 320.269 111.346 320.269 110.317Z" fill="#036D88"/>
<path d="M265.538 93.944C265.538 94.5171 265.067 94.9872 264.494 94.9872C263.921 94.9872 263.451 94.5171 263.451 93.944V90.5647C263.451 89.9917 263.921 89.5215 264.494 89.5215C265.067 89.5215 265.538 89.9917 265.538 90.5647V93.944Z" fill="#BE9E80"/>
<path d="M268.417 86.4866C268.557 86.1634 268.63 85.8108 268.63 85.4508C268.63 84.7235 268.329 84.055 267.822 83.5113C267.896 83.2909 267.94 83.0559 267.94 82.8208C267.94 81.3147 266.397 80.0879 264.487 80.0879C262.577 80.0879 261.034 81.3074 261.034 82.8208C261.034 83.0632 261.078 83.2909 261.152 83.5113C260.645 84.055 260.344 84.7235 260.344 85.4508C260.344 85.8108 260.424 86.1634 260.557 86.4866C260.028 87.0964 259.712 87.831 259.712 88.6318C259.712 90.7182 261.85 92.4079 264.48 92.4079C267.117 92.4079 269.248 90.7182 269.248 88.6318C269.262 87.831 268.954 87.0964 268.417 86.4866Z" fill="#FFB283"/>
<path d="M69.0275 326.811C69.0275 327.384 68.5574 327.854 67.9844 327.854C67.4113 327.854 66.9412 327.384 66.9412 326.811V323.432C66.9412 322.859 67.4113 322.389 67.9844 322.389C68.5574 322.389 69.0275 322.859 69.0275 323.432V326.811Z" fill="#BE9E80"/>
<path d="M71.9148 319.354C72.0544 319.031 72.1278 318.678 72.1278 318.318C72.1278 317.591 71.8266 316.922 71.3197 316.379C71.3932 316.158 71.4372 315.923 71.4372 315.688C71.4372 314.182 69.8945 312.955 67.9844 312.955C66.0743 312.955 64.5316 314.175 64.5316 315.688C64.5316 315.93 64.5757 316.158 64.6491 316.379C64.1422 316.922 63.841 317.591 63.841 318.318C63.841 318.678 63.9218 319.031 64.0541 319.354C63.5251 319.964 63.2092 320.698 63.2092 321.499C63.2092 323.585 65.347 325.275 67.9771 325.275C70.6144 325.275 72.7449 323.585 72.7449 321.499C72.7596 320.698 72.4437 319.964 71.9148 319.354Z" fill="#FFB283"/>
<path d="M205.473 302.661C205.473 303.234 205.003 303.704 204.43 303.704C203.857 303.704 203.386 303.234 203.386 302.661V299.281C203.386 298.708 203.857 298.238 204.43 298.238C205.003 298.238 205.473 298.708 205.473 299.281V302.661Z" fill="#BE9E80"/>
<path d="M208.36 295.203C208.5 294.88 208.573 294.528 208.573 294.168C208.573 293.44 208.272 292.772 207.765 292.228C207.838 292.008 207.883 291.773 207.883 291.538C207.883 290.032 206.34 288.805 204.43 288.805C202.527 288.805 200.977 290.024 200.977 291.538C200.977 291.78 201.021 292.008 201.094 292.228C200.588 292.772 200.286 293.44 200.286 294.168C200.286 294.528 200.367 294.88 200.499 295.203C199.97 295.813 199.655 296.548 199.655 297.349C199.655 299.435 201.792 301.125 204.422 301.125C207.06 301.125 209.19 299.435 209.19 297.349C209.198 296.548 208.889 295.813 208.36 295.203Z" fill="#FFB283"/>
<path d="M87.5183 186.376C87.5183 186.949 87.0481 187.419 86.4751 187.419C85.902 187.419 85.4319 186.949 85.4319 186.376V182.996C85.4319 182.423 85.902 181.953 86.4751 181.953C87.0481 181.953 87.5183 182.423 87.5183 182.996V186.376Z" fill="#BE9E80"/>
<path d="M90.4055 178.918C90.5451 178.595 90.6185 178.242 90.6185 177.882C90.6185 177.155 90.3173 176.487 89.8104 175.943C89.8839 175.723 89.928 175.487 89.928 175.252C89.928 173.746 88.3852 172.52 86.4751 172.52C84.5651 172.52 83.0223 173.739 83.0223 175.252C83.0223 175.495 83.0664 175.723 83.1399 175.943C82.633 176.487 82.3318 177.155 82.3318 177.882C82.3318 178.242 82.4126 178.595 82.5448 178.918C82.0158 179.528 81.7 180.263 81.7 181.063C81.7 183.15 83.8378 184.84 86.4678 184.84C89.1052 184.84 91.2356 183.15 91.2356 181.063C91.243 180.263 90.9344 179.528 90.4055 178.918Z" fill="#FFB283"/>
<path d="M150.955 23.9739C150.955 24.8702 150.228 25.5975 149.332 25.5975C148.435 25.5975 147.708 24.8702 147.708 23.9739V18.7212C147.708 17.825 148.435 17.0977 149.332 17.0977C150.228 17.0977 150.955 17.825 150.955 18.7212V23.9739Z" fill="#BE9E80"/>
<path d="M155.437 12.3885C155.65 11.8816 155.767 11.338 155.767 10.7796C155.767 9.64827 155.297 8.61242 154.511 7.76758C154.629 7.4223 154.695 7.06232 154.695 6.68765C154.695 4.34413 152.292 2.44141 149.332 2.44141C146.371 2.44141 143.969 4.34413 143.969 6.68765C143.969 7.06232 144.035 7.4223 144.152 7.76758C143.366 8.61242 142.896 9.65562 142.896 10.7796C142.896 11.3453 143.014 11.8889 143.227 12.3885C142.404 13.3362 141.919 14.4822 141.919 15.7164C141.919 18.9562 145.24 21.5862 149.332 21.5862C153.424 21.5862 156.744 18.9562 156.744 15.7164C156.744 14.4822 156.267 13.3362 155.437 12.3885Z" fill="#FFB283"/>
<path d="M278.247 161.007C278.247 161.58 277.777 162.05 277.204 162.05C276.631 162.05 276.16 161.58 276.16 161.007V157.627C276.16 157.054 276.631 156.584 277.204 156.584C277.777 156.584 278.247 157.054 278.247 157.627V161.007Z" fill="#BE9E80"/>
<path d="M281.134 153.549C281.274 153.226 281.347 152.873 281.347 152.513C281.347 151.786 281.046 151.117 280.539 150.574C280.612 150.353 280.656 150.118 280.656 149.883C280.656 148.377 279.114 147.15 277.204 147.15C275.301 147.15 273.751 148.37 273.751 149.883C273.751 150.126 273.795 150.353 273.868 150.574C273.361 151.117 273.06 151.786 273.06 152.513C273.06 152.873 273.141 153.226 273.273 153.549C272.744 154.159 272.428 154.894 272.428 155.694C272.428 157.781 274.566 159.47 277.196 159.47C279.834 159.47 281.964 157.781 281.964 155.694C281.979 154.894 281.663 154.159 281.134 153.549Z" fill="#FFB283"/>
<path d="M169.747 205.43C169.747 206.003 169.277 206.474 168.704 206.474C168.131 206.474 167.661 206.003 167.661 205.43V202.051C167.661 201.478 168.131 201.008 168.704 201.008C169.277 201.008 169.747 201.478 169.747 202.051V205.43Z" fill="#BE9E80"/>
<path d="M172.634 197.973C172.774 197.65 172.847 197.297 172.847 196.937C172.847 196.21 172.546 195.541 172.039 194.998C172.113 194.777 172.157 194.542 172.157 194.307C172.157 192.801 170.614 191.574 168.704 191.574C166.794 191.574 165.251 192.794 165.251 194.307C165.251 194.55 165.295 194.777 165.369 194.998C164.862 195.541 164.56 196.21 164.56 196.937C164.56 197.297 164.641 197.65 164.774 197.973C164.245 198.583 163.929 199.317 163.929 200.118C163.929 202.205 166.067 203.894 168.697 203.894C171.334 203.894 173.464 202.205 173.464 200.118C173.472 199.317 173.163 198.583 172.634 197.973Z" fill="#FFB283"/>
<path d="M153.725 82.314C153.725 82.9458 153.21 83.4601 152.579 83.4601C151.947 83.4601 151.433 82.9458 151.433 82.314V79.7281C151.433 79.0963 151.947 78.582 152.579 78.582C153.21 78.582 153.725 79.0963 153.725 79.7281V82.314Z" fill="#BE9E80"/>
<path d="M155.936 74.1801V73.1957C155.936 71.3444 154.437 69.8457 152.586 69.8457C150.735 69.8457 149.236 71.3444 149.236 73.1957V74.1801C148.038 74.5915 147.179 75.7229 147.179 77.0599C147.179 78.7423 148.545 80.1087 150.228 80.1087H154.951C156.634 80.1087 158 78.7423 158 77.0599C157.993 75.7229 157.133 74.5915 155.936 74.1801Z" fill="#FFF4CF"/>
<path d="M82.0306 294.308C82.0306 294.94 81.5164 295.454 80.8846 295.454C80.2528 295.454 79.7385 294.94 79.7385 294.308V291.722C79.7385 291.09 80.2528 290.576 80.8846 290.576C81.5164 290.576 82.0306 291.09 82.0306 291.722V294.308Z" fill="#BE9E80"/>
<path d="M84.2348 286.174V285.19C84.2348 283.339 82.7361 281.84 80.8848 281.84C79.0335 281.84 77.5348 283.339 77.5348 285.19V286.174C76.3373 286.586 75.4778 287.717 75.4778 289.054C75.4778 290.736 76.8442 292.103 78.5266 292.103H83.2503C84.9327 292.103 86.2991 290.736 86.2991 289.054C86.2918 287.717 85.4322 286.578 84.2348 286.174Z" fill="#FFF4CF"/>
<path d="M197.752 304.609C197.752 305.241 197.238 305.755 196.606 305.755C195.974 305.755 195.46 305.241 195.46 304.609V302.023C195.46 301.391 195.974 300.877 196.606 300.877C197.238 300.877 197.752 301.391 197.752 302.023V304.609Z" fill="#BE9E80"/>
<path d="M199.963 296.475V295.491C199.963 293.639 198.465 292.141 196.613 292.141C194.762 292.141 193.263 293.639 193.263 295.491V296.475C192.066 296.886 191.206 298.018 191.206 299.355C191.206 301.037 192.573 302.404 194.255 302.404H198.979C200.661 302.404 202.028 301.037 202.028 299.355C202.013 298.018 201.153 296.886 199.963 296.475Z" fill="#FFF4CF"/>
<path d="M94.9454 188.32C94.9454 188.952 94.4312 189.466 93.7994 189.466C93.1676 189.466 92.6533 188.952 92.6533 188.32V185.734C92.6533 185.102 93.1676 184.588 93.7994 184.588C94.4312 184.588 94.9454 185.102 94.9454 185.734V188.32Z" fill="#BE9E80"/>
<path d="M97.1495 180.18V179.196C97.1495 177.344 95.6509 175.846 93.7996 175.846C91.9482 175.846 90.4496 177.344 90.4496 179.196V180.18C89.2521 180.592 88.3926 181.723 88.3926 183.06C88.3926 184.742 89.759 186.109 91.4413 186.109H96.1651C97.8475 186.109 99.2139 184.742 99.2139 183.06C99.2065 181.73 98.347 180.592 97.1495 180.18Z" fill="#FFF4CF"/>
<path d="M298.457 250.671C298.457 251.303 297.943 251.818 297.311 251.818C296.68 251.818 296.165 251.303 296.165 250.671V248.085C296.165 247.454 296.68 246.939 297.311 246.939C297.943 246.939 298.457 247.454 298.457 248.085V250.671Z" fill="#BE9E80"/>
<path d="M300.669 242.538V241.553C300.669 239.702 299.17 238.203 297.319 238.203C295.467 238.203 293.969 239.702 293.969 241.553V242.538C292.771 242.949 291.912 244.08 291.912 245.417C291.912 247.1 293.278 248.466 294.96 248.466H299.684C301.367 248.466 302.733 247.1 302.733 245.417C302.726 244.08 301.866 242.949 300.669 242.538Z" fill="#FFF4CF"/>
<path d="M276.925 100.334C276.925 100.965 276.41 101.48 275.779 101.48C275.147 101.48 274.633 100.965 274.633 100.334V97.7476C274.633 97.1158 275.147 96.6016 275.779 96.6016C276.41 96.6016 276.925 97.1158 276.925 97.7476V100.334Z" fill="#BE9E80"/>
<path d="M279.136 92.1996V91.2152C279.136 89.3639 277.637 87.8652 275.786 87.8652C273.935 87.8652 272.436 89.3639 272.436 91.2152V92.1996C271.238 92.611 270.379 93.7424 270.379 95.0794C270.379 96.7618 271.745 98.1282 273.428 98.1282H278.151C279.834 98.1282 281.2 96.7618 281.2 95.0794C281.193 93.7424 280.333 92.611 279.136 92.1996Z" fill="#FFF4CF"/>
<path d="M231.134 198.247C236.005 198.247 239.95 194.302 239.95 189.431C239.95 184.56 236.005 180.615 231.134 180.615C226.264 180.615 222.319 184.56 222.319 189.431C222.319 194.302 226.264 198.247 231.134 198.247Z" fill="#FF926A"/>
<path d="M230.407 186.134C229.908 186.156 229.518 186.148 229.056 186.134C229.026 185.715 229.019 184.657 229.056 184.106C229.504 184.032 232.163 184.032 232.597 184.106C232.67 184.745 232.67 193.487 232.597 194.112C232.215 194.185 230.944 194.185 230.444 194.112C230.393 193.686 230.371 189.241 230.407 186.134Z" fill="white"/>
<path d="M238.76 176.78C243.631 176.78 247.576 172.835 247.576 167.964C247.576 163.093 243.631 159.148 238.76 159.148C233.889 159.148 229.944 163.093 229.944 167.964C229.944 172.828 233.896 176.78 238.76 176.78Z" fill="#FF926A"/>
<path d="M236.358 164.599C236.321 164.1 236.307 163.108 236.343 162.601C236.791 162.579 237.386 162.564 237.937 162.564C240.575 162.564 241.691 163.688 241.691 165.635C241.691 166.958 241.412 167.913 240.612 168.897C240.127 169.492 239.502 170.197 239.01 170.653C240.068 170.631 241.199 170.638 241.875 170.653C241.912 171.174 241.912 172.181 241.875 172.636C241.089 172.688 237.085 172.688 236.196 172.636C236.13 172.027 236.13 171.299 236.196 170.726C236.791 170.124 237.71 169.044 238.18 168.5C239.208 167.303 239.554 166.605 239.554 165.79C239.554 164.974 239.054 164.592 237.82 164.592C237.328 164.585 236.791 164.599 236.358 164.599Z" fill="white"/>
<path d="M265.009 202.626C269.879 202.626 273.824 198.681 273.824 193.81C273.824 188.939 269.879 184.994 265.009 184.994C260.138 184.994 256.193 188.939 256.193 193.81C256.193 198.673 260.145 202.626 265.009 202.626Z" fill="#FF926A"/>
<path d="M268.491 195.5C268.491 197.337 267.271 198.519 264.671 198.519C264.289 198.519 263.642 198.505 263.216 198.483C263.179 197.998 263.179 196.984 263.216 196.499H264.413C265.802 196.499 266.346 196.044 266.346 195.316C266.346 194.589 265.795 194.192 264.362 194.192C264.054 194.192 263.841 194.192 263.613 194.163C263.591 193.744 263.576 192.877 263.613 192.326C263.826 192.297 264.031 192.297 264.325 192.297C265.471 192.297 265.883 191.9 265.883 191.254C265.883 190.659 265.346 190.336 264.23 190.336H263.348C263.312 189.88 263.312 188.896 263.348 188.425C263.752 188.403 264.112 188.374 264.48 188.389C266.786 188.462 267.984 189.329 267.984 191.166C267.984 191.944 267.771 192.679 267.066 193.09C268.043 193.539 268.491 194.339 268.491 195.5Z" fill="white"/>
<path d="M241.397 224.436C246.268 224.436 250.213 220.491 250.213 215.62C250.213 210.75 246.268 206.805 241.397 206.805C236.527 206.805 232.582 210.75 232.582 215.62C232.582 220.484 236.527 224.436 241.397 224.436Z" fill="#FF926A"/>
<path d="M245.093 218.66C244.939 218.66 244.468 218.66 243.822 218.675C243.807 219.542 243.807 220.151 243.793 220.306C243.433 220.357 242.294 220.357 241.794 220.306C241.78 220.063 241.78 219.453 241.78 218.675C239.936 218.675 237.959 218.675 237.629 218.66C237.592 218.102 237.592 217.492 237.629 216.75C238.033 215.817 240.634 210.851 240.949 210.292C241.383 210.241 242.882 210.241 243.793 210.292C243.829 210.645 243.829 214.01 243.829 216.735C244.402 216.75 244.872 216.75 245.093 216.75C245.13 217.191 245.122 218.138 245.093 218.66ZM241.787 216.735C241.802 215.053 241.809 213.312 241.824 212.724C241.515 213.459 240.229 215.971 239.84 216.75C240.193 216.735 240.957 216.735 241.787 216.735Z" fill="white"/>
<path d="M192.169 242.876H176.073L176.102 217.832L183.236 206.996L194.05 212.903L192.169 242.876Z" fill="white"/>
<path d="M183.463 218.199H181.054V220.609H183.463V218.199Z" fill="#D8C7C2"/>
<path d="M205.319 218.053H189.877V242.876H205.319V218.053Z" fill="#D4D9DB"/>
<path d="M198.2 206.996L205.473 218.288H194.248H190.104L183.037 206.996H198.2Z" fill="#FF866F"/>
<path d="M211.475 251.478H195.019L195.438 224.48L202.88 212.799L223.479 219.168L211.475 251.478Z" fill="#E8DFDA"/>
<path d="M230.201 224.715H209.859V251.485H230.201V224.715Z" fill="#D4D9DB"/>
<path d="M223.354 212.799L230.348 224.965H213.863H209.683L202.88 212.799H223.354Z" fill="#4B4A7A"/>
<path d="M204.65 251.478V241.795C204.65 240.216 203.511 238.938 202.101 238.938C200.69 238.938 199.552 240.216 199.552 241.795V251.478H204.65Z" fill="#D4D9DB"/>
<path d="M218.785 251.501H202.961L202.983 235.633L209.999 224.98L220.636 230.792L218.785 251.501Z" fill="white"/>
<path d="M210.226 236.316H207.861V238.682H210.226V236.316Z" fill="#D8C7C2"/>
<path d="M231.715 235.854H216.53V251.509H231.715V235.854Z" fill="#D4D9DB"/>
<path d="M224.721 224.98L231.869 236.081H220.834H216.757L209.807 224.98H224.721Z" fill="#EDC777"/>
<path d="M186.637 251.503H203.152L203.13 232.277L195.261 221.625L174.589 227.429L186.637 251.503Z" fill="#D8C7C2"/>
<path d="M197.429 230.904H193.836V235.812H197.429V230.904Z" fill="white"/>
<path d="M188.268 232.49H164.039V251.503H188.268V232.49Z" fill="white"/>
<path d="M170.901 221.625L163.885 232.718H184.242H188.437L195.262 221.625H170.901Z" fill="#437864"/>
<path d="M197.987 251.503V244.715C197.987 243.605 197.091 242.709 195.981 242.709C194.872 242.709 193.976 243.605 193.976 244.715V251.503H197.987Z" fill="#B4A29E"/>
<path d="M35.6384 379.501C41.3698 379.161 45.3303 376.213 45.4093 366.102C45.4963 354.22 45.4094 330.884 45.5754 327.342C48.777 326.836 57.038 326.836 60.3187 327.342C60.4056 329.366 60.4057 352.449 60.4057 366.102C60.4057 384.972 51.3067 393.146 35.8045 393.992C34.2867 394.079 30.7451 394.079 29.3142 393.992C28.8953 391.715 28.8953 381.778 29.3142 379.501C30.919 379.501 34.2946 379.588 35.6384 379.501Z" fill="white"/>
<path d="M103.719 393.574C98.9991 393.993 74.5639 393.993 68.2476 393.574C67.7417 385.147 67.7417 335.692 68.2476 327.265C75.6628 326.759 96.8093 326.846 102.628 327.351C102.881 330.047 102.881 338.98 102.628 340.83C99.592 340.917 86.1135 340.996 82.8249 340.83V352.712C90.493 352.712 100.011 352.878 101.442 353.052C101.782 355.834 101.782 363.834 101.442 366.617C99.2521 366.783 89.6472 366.783 82.8249 366.783V379.842C86.1135 379.676 100.691 379.756 103.719 379.842C103.972 382.704 103.972 390.878 103.719 393.574Z" fill="white"/>
<path d="M140.367 394.672C121.83 394.672 106.999 382.458 106.999 360.466C106.999 338.473 121.83 326.26 140.367 326.26C158.905 326.26 173.736 338.481 173.736 360.466C173.728 382.45 158.897 394.672 140.367 394.672ZM140.367 339.983C128.233 339.983 122.082 348.07 122.082 360.458C122.082 372.846 128.233 380.933 140.367 380.933C152.502 380.933 158.652 372.846 158.652 360.458C158.644 348.078 152.494 339.983 140.367 339.983Z" fill="white"/>
<path d="M180.21 327.35C183.159 326.844 194.028 326.844 196.977 327.35C202.455 337.295 211.633 355.153 218.124 368.552C218.124 351.026 218.124 329.959 218.29 327.437C220.898 326.844 229.412 326.844 232.701 327.437C233.207 331.564 233.207 389.454 232.701 393.66C229.752 394.165 218.883 394.165 215.934 393.66C210.543 383.802 201.357 365.936 194.866 352.544C194.953 370.07 194.779 391.051 194.613 393.58C192.005 394.173 183.491 394.173 180.202 393.58C179.704 389.446 179.704 331.564 180.21 327.35Z" fill="white"/>
<path d="M244.408 379.501C250.14 379.161 254.1 376.213 254.179 366.102C254.266 354.22 254.179 330.884 254.345 327.342C257.547 326.836 265.808 326.836 269.089 327.342C269.176 329.366 269.176 352.449 269.176 366.102C269.176 384.972 260.077 393.146 244.574 393.992C243.057 394.079 239.515 394.079 238.084 393.992C237.665 391.715 237.665 381.778 238.084 379.501C239.697 379.501 243.065 379.588 244.408 379.501Z" fill="white"/>
<path d="M276.425 366.608C276.425 352.117 276.425 329.366 276.678 327.342C279.792 326.836 288.219 326.836 291.421 327.342C291.587 330.884 291.508 353.627 291.508 366.102C291.508 375.035 295.469 380.007 304.149 380.007C312.829 380.007 316.789 375.035 316.789 366.102C316.789 353.635 316.702 330.884 316.876 327.342C320.078 326.836 328.505 326.836 331.619 327.342C331.872 329.366 331.872 352.11 331.872 366.608C331.872 383.462 322.773 394.245 304.149 394.245C285.524 394.245 276.425 383.462 276.425 366.608Z" fill="white"/>
<path d="M309 52.16C309 48.4325 305.708 45.4156 301.65 45.4156C301.122 45.4156 300.609 45.4714 300.109 45.5689C298.703 42.4545 295.362 40.2598 291.451 40.2598C287.554 40.2598 284.213 42.4475 282.799 45.555C282.328 45.4714 281.85 45.4226 281.35 45.4226C277.292 45.4226 274 48.4395 274 52.167C274 55.7552 277.06 58.6815 280.914 58.8905C281.428 59.1204 282.004 59.2598 282.616 59.2598H302.29C303.422 59.2598 304.435 58.8139 305.138 58.0962C307.446 56.9466 309 54.717 309 52.16Z" fill="white"/>
<path d="M51 189.16C51 185.432 47.7082 182.416 43.6497 182.416C43.1222 182.416 42.6087 182.471 42.1093 182.569C40.7026 179.454 37.3615 177.26 33.4508 177.26C29.5541 177.26 26.213 179.448 24.7992 182.555C24.328 182.471 23.8497 182.423 23.3503 182.423C19.2918 182.423 16 185.439 16 189.167C16 192.755 19.0597 195.681 22.9142 195.89C23.4276 196.12 24.0044 196.26 24.6164 196.26H44.2898C45.4222 196.26 46.4351 195.814 47.1385 195.096C49.4455 193.947 51 191.717 51 189.16Z" fill="white"/>
<path d="M110 0.259766H0V110.26H110V0.259766Z" fill="#231815"/>
<path d="M9.6893 10.559C11.0261 10.4801 13.1525 10.4801 14.4525 10.5222C18.9998 10.659 22.0525 13.159 22.0525 18.2169C22.0525 23.3959 18.9998 25.8327 14.4525 26.0696C13.3314 26.1274 11.0261 26.1695 9.6893 26.0274C9.55246 25.0643 9.55246 11.5432 9.6893 10.559ZM14.6682 22.8432C17.1893 22.8432 18.584 21.1327 18.584 18.2169C18.584 15.4222 17.184 13.7696 14.6682 13.7696H13.0367C13.0367 15.3222 13.0367 21.3064 13.0367 22.8432H14.6682Z" fill="#FF926A"/>
<path d="M32.0472 26.0273C31.3787 26.1273 29.5472 26.1273 28.8208 26.0273C28.8208 25.9116 28.7998 25.7694 28.7998 25.5958C28.2314 25.9326 27.5208 26.1273 26.7524 26.1273C24.0577 26.1273 22.7156 24.9063 22.7156 22.6063C22.7156 20.3221 24.0524 19.1431 26.7524 19.1431C27.5208 19.1431 28.2103 19.3221 28.7787 19.6326C28.6208 18.3326 28.0103 17.8431 26.4156 17.8431C25.7472 17.8431 24.705 18.001 23.7208 18.2168C23.505 17.4694 23.305 16.0905 23.305 15.2852C24.1524 15.0273 25.884 14.8537 27.0629 14.9116C30.2893 15.0694 31.9419 16.7431 32.0629 19.48C32.1472 21.1852 32.1472 25.0273 32.0472 26.0273ZM28.7787 22.5431C28.7787 21.9116 28.305 21.5589 27.4577 21.5589C26.4735 21.5589 25.9998 21.9116 25.9998 22.5642C25.9998 23.2116 26.4524 23.5273 27.4577 23.5273C28.3103 23.5273 28.7787 23.1747 28.7787 22.5431Z" fill="#FF926A"/>
<path d="M34.6261 29.9483C34.7261 29.5325 35.5524 27.3904 36.3366 25.4798C35.4682 23.6693 32.7945 16.8798 32.4998 15.8956C33.0682 15.5219 35.0366 14.9693 35.7103 14.8535C36.0471 15.6798 37.1103 18.4956 38.1524 21.3904C39.1945 18.4956 40.2576 15.6798 40.5945 14.8535C41.2629 14.9693 43.2313 15.5219 43.805 15.8956C43.5103 16.8798 38.1155 30.0272 37.6419 30.8377C36.8892 30.7746 35.2787 30.3009 34.6261 29.9483Z" fill="#FF926A"/>
<path d="M48.1104 13.5907C48.0525 12.8223 48.0314 11.2855 48.0893 10.5013C48.7788 10.4644 49.7051 10.4434 50.5472 10.4434C54.6209 10.4434 56.3525 12.1749 56.3525 15.1855C56.3525 17.2328 55.9209 18.7065 54.6788 20.2223C53.9314 21.1486 52.9683 22.2276 52.1998 22.9381C53.8314 22.9013 55.5841 22.917 56.6262 22.9381C56.6841 23.7434 56.6841 25.3013 56.6262 26.0065C55.4051 26.0855 49.2262 26.0855 47.8472 26.0065C47.7472 25.0592 47.7472 23.9381 47.8472 23.0539C48.7735 22.1276 50.1893 20.4539 50.9156 19.6118C52.5104 17.7591 53.042 16.6802 53.042 15.417C53.042 14.1539 52.2735 13.5644 50.363 13.5644C49.6051 13.5697 48.7788 13.5907 48.1104 13.5907Z" fill="#FF926A"/>
<path d="M22.042 43.1957C20.7999 43.2746 10.2052 43.2746 9.18413 43.1957C9.08413 42.2957 9.08413 41.2378 9.18413 40.4167C9.54203 40.3957 11.142 40.3746 13.1052 40.3746C13.1052 39.8167 13.1052 39.2325 13.1473 38.6746C13.8683 38.5957 15.9262 38.5957 16.6052 38.6746C16.6262 39.2325 16.6473 39.8167 16.6473 40.3746C19.1894 40.3746 21.5052 40.3957 22.0473 40.4167C22.121 41.2746 22.142 42.3378 22.042 43.1957ZM13.1052 49.6378C14.5262 49.6167 19.9262 49.6167 21.8841 49.6378C22.0052 50.3167 22.0052 51.6378 21.8841 52.3378C20.1631 52.4378 11.4052 52.4378 9.68413 52.3378C9.56308 51.1799 9.56308 48.0799 9.68413 46.9009C11.6631 46.8799 16.321 46.9009 18.142 46.9009V46.2799C16.2999 46.3009 11.6052 46.3009 9.60518 46.2799C9.50518 45.4009 9.50518 44.722 9.60518 43.8588C10.8262 43.8009 20.2631 43.8009 21.4841 43.8588C21.642 44.9799 21.6262 48.2799 21.4841 48.9957C19.7262 49.0536 14.6262 49.0167 13.1052 48.9957V49.6378ZM9.82624 37.9957C9.74729 37.5167 9.74729 35.7536 9.82624 35.1536C10.8473 34.9957 20.4052 34.9957 21.2841 35.1536C21.3631 35.9957 21.3631 39.2115 21.2841 39.6536C20.4631 39.7536 18.7631 39.7536 17.9262 39.6536C17.9262 39.2746 17.9052 38.5957 17.9262 37.9957C17.021 38.0378 10.7262 38.0378 9.82624 37.9957Z" fill="white"/>
<path d="M34.8841 46.0962C33.6841 46.1541 24.0051 46.1541 23.0262 46.0962C22.9262 44.9383 22.9262 44.0962 23.0262 43.0752C23.4051 43.0541 25.1683 43.0541 27.2051 43.0541V42.112C25.4262 42.112 23.9472 42.0699 23.5841 42.0331C23.442 40.9331 23.442 36.1962 23.5841 35.0752C24.6051 34.9541 33.3051 34.9541 34.3209 35.0752C34.463 36.1962 34.463 40.9331 34.3209 42.0331C33.963 42.0752 32.4788 42.112 30.6999 42.112V43.0541C32.6999 43.0541 34.4209 43.0541 34.8788 43.0752C34.9841 44.0541 34.963 44.9173 34.8841 46.0962ZM34.442 46.9541C34.5209 47.7752 34.5209 51.3752 34.442 52.0541C33.6209 52.1331 31.863 52.1331 31.0209 52.0541C31.0209 51.6331 30.9999 50.2962 31.0209 49.7331C30.1209 49.7541 24.342 49.7541 23.442 49.7331C23.342 49.2331 23.342 47.491 23.442 46.9541C24.463 46.8541 33.563 46.8541 34.442 46.9541ZM26.8209 39.2383C27.5209 39.2962 30.363 39.2962 31.0577 39.2383V37.8173C30.3367 37.7752 27.4999 37.7752 26.8209 37.8173V39.2383Z" fill="white"/>
<path d="M48.742 43.1957C47.4999 43.2746 36.9051 43.2746 35.8841 43.1957C35.7841 42.2957 35.7841 41.2378 35.8841 40.4167C36.242 40.3957 37.842 40.3746 39.8051 40.3746C39.8051 39.8167 39.8051 39.2325 39.8472 38.6746C40.5683 38.5957 42.6262 38.5957 43.3051 38.6746C43.3262 39.2325 43.3472 39.8167 43.3472 40.3746C45.8893 40.3746 48.2051 40.3957 48.7472 40.4167C48.8209 41.2746 48.842 42.3378 48.742 43.1957ZM39.8051 49.6378C41.2262 49.6167 46.6262 49.6167 48.5841 49.6378C48.7051 50.3167 48.7051 51.6378 48.5841 52.3378C46.863 52.4378 38.1051 52.4378 36.3841 52.3378C36.263 51.1799 36.263 48.0799 36.3841 46.9009C38.363 46.8799 43.0209 46.9009 44.842 46.9009V46.2799C42.9999 46.3009 38.3051 46.3009 36.3051 46.2799C36.2051 45.4009 36.2051 44.722 36.3051 43.8588C37.5262 43.8009 46.963 43.8009 48.1841 43.8588C48.342 44.9799 48.3262 48.2799 48.1841 48.9957C46.4262 49.0536 41.3262 49.0167 39.8051 48.9957V49.6378ZM36.5209 37.9957C36.442 37.5167 36.442 35.7536 36.5209 35.1536C37.542 34.9957 47.0999 34.9957 47.9788 35.1536C48.0578 35.9957 48.0578 39.2115 47.9788 39.6536C47.1578 39.7536 45.4578 39.7536 44.6209 39.6536C44.6209 39.2746 44.5999 38.5957 44.6209 37.9957C43.7209 38.0378 37.4209 38.0378 36.5209 37.9957Z" fill="white"/>
<path d="M61.5789 46.0962C60.3789 46.1541 50.6999 46.1541 49.721 46.0962C49.621 44.9383 49.621 44.0962 49.721 43.0752C50.0999 43.0541 51.8631 43.0541 53.8999 43.0541V42.112C52.121 42.112 50.642 42.0699 50.2789 42.0331C50.1368 40.9331 50.1368 36.1962 50.2789 35.0752C51.2999 34.9541 59.9999 34.9541 61.0157 35.0752C61.1578 36.1962 61.1578 40.9331 61.0157 42.0331C60.6578 42.0752 59.1736 42.112 57.3947 42.112V43.0541C59.3947 43.0541 61.1157 43.0541 61.5736 43.0752C61.6789 44.0541 61.6631 44.9173 61.5789 46.0962ZM61.142 46.9541C61.221 47.7752 61.221 51.3752 61.142 52.0541C60.321 52.1331 58.5631 52.1331 57.721 52.0541C57.721 51.6331 57.6999 50.2962 57.721 49.7331C56.821 49.7541 51.042 49.7541 50.142 49.7331C50.042 49.2331 50.042 47.491 50.142 46.9541C51.1631 46.8541 60.2631 46.8541 61.142 46.9541ZM53.521 39.2383C54.221 39.2962 57.0578 39.2962 57.7578 39.2383V37.8173C57.0368 37.7752 54.1999 37.7752 53.521 37.8173V39.2383Z" fill="white"/>
<path d="M9.20508 67.2165C9.20508 61.5376 11.684 59.1376 15.363 59.1376C19.2209 59.1376 21.5209 61.7586 21.5209 67.2165C21.5209 72.8955 19.0419 75.2955 15.363 75.2955C11.5261 75.2955 9.20508 72.6955 9.20508 67.2165ZM18.063 67.2165C18.063 63.7586 16.9209 62.2797 15.363 62.2797C13.7051 62.2797 12.663 63.8586 12.663 67.2165C12.663 70.6955 13.8051 72.1534 15.363 72.1534C17.0209 72.1534 18.063 70.5534 18.063 67.2165ZM22.484 58.8955C23.163 58.7744 25.1261 58.7744 25.8051 58.8955C25.9472 59.8955 25.9472 74.8534 25.8051 75.8323C25.2261 75.9744 23.263 75.9744 22.484 75.8323C22.363 74.8534 22.363 59.8955 22.484 58.8955Z" fill="white"/>
<path d="M38.2002 67.2179C38.2002 73.0547 36.2002 75.2968 32.7423 75.2968C29.2844 75.2968 27.2844 73.0547 27.2844 67.2179C27.2844 61.381 29.2844 59.1389 32.7423 59.1389C36.2055 59.1389 38.2002 61.3758 38.2002 67.2179ZM34.7423 67.2179C34.7423 63.5968 33.8844 62.2968 32.7423 62.2968C31.6002 62.2968 30.7423 63.5968 30.7423 67.2179C30.7423 70.8389 31.6002 72.1389 32.7423 72.1389C33.8844 72.1389 34.7423 70.8389 34.7423 67.2179ZM44.2423 68.7547C44.3213 69.1968 44.3213 71.3968 44.2423 71.8126C43.9213 71.8547 43.2844 71.8705 42.6002 71.8916C42.6002 73.9705 42.5581 75.5337 42.5213 75.8284C41.9423 76.0074 40.0002 75.9705 39.2213 75.8284C39.1002 74.8495 39.1002 59.8916 39.2213 58.8916C39.9002 58.7705 41.8423 58.7705 42.5213 58.8916C42.5634 59.1337 42.5792 60.2337 42.6002 61.7495C43.2792 61.7705 43.9213 61.7916 44.2423 61.8284C44.3213 62.2495 44.3213 64.4495 44.2423 64.8863C43.9213 64.9074 43.2844 64.9284 42.6213 64.9284V68.7074C43.2844 68.7179 43.9213 68.7389 44.2423 68.7547Z" fill="white"/>
<path d="M48.5209 62.6165C47.3788 62.6586 45.7209 62.6744 44.7999 62.6165C44.6999 62.0376 44.6999 59.9376 44.7999 59.3586C45.7999 59.2586 50.8999 59.2586 51.8999 59.3586C51.9999 60.5797 51.9999 74.1744 51.8999 75.1955C51.0999 75.2955 49.3209 75.2955 48.5209 75.1955C48.4841 74.2534 48.4841 63.5955 48.5209 62.6165ZM53.363 58.8955C54.042 58.7744 56.0051 58.7744 56.6841 58.8955C56.8262 59.8955 56.8262 74.8534 56.6841 75.8323C56.1051 75.9744 54.142 75.9744 53.363 75.8323C53.242 74.8534 53.242 59.8955 53.363 58.8955Z" fill="white"/>
<path d="M64.484 59.3586C64.584 60.5797 64.584 74.1744 64.484 75.1955C63.684 75.2955 61.9419 75.2955 61.1472 75.1955C61.1051 74.2534 61.1051 63.5955 61.1472 62.6165C60.0051 62.6586 58.9682 62.6744 58.0472 62.6165C57.9472 62.0376 57.9472 59.9376 58.0472 59.3586C59.0419 59.2586 63.484 59.2586 64.484 59.3586ZM70.9419 68.5376C70.5998 68.5797 69.9209 68.5955 69.2209 68.5955C69.2209 72.1376 69.1787 75.3955 69.1209 75.8323C68.5419 75.9744 66.5787 75.9744 65.7998 75.8323C65.6787 74.8534 65.6787 59.8955 65.7998 58.8955C66.4787 58.7744 68.4419 58.7744 69.1209 58.8955C69.1787 59.3165 69.2209 62.1165 69.2209 65.3165C69.9209 65.3165 70.5998 65.3586 70.9419 65.3955C71.0419 65.8376 71.0419 68.0955 70.9419 68.5376Z" fill="white"/>
<path d="M9.66306 91.675C9.542 90.4171 9.542 84.2961 9.66306 83.275C10.5209 83.175 12.242 83.175 13.0631 83.275C13.1209 84.2171 13.1209 87.6329 13.0631 88.775C13.7841 88.7329 17.6999 88.7171 18.6209 88.775C18.721 89.354 18.721 91.0961 18.6209 91.675C17.6209 91.7961 10.6631 91.7961 9.66306 91.675ZM23.7999 92.8961C23.942 93.875 23.942 99.075 23.7999 100.033C22.842 100.133 11.042 100.133 10.0841 100.033C9.942 99.075 9.942 93.875 10.0841 92.8961C11.142 92.775 22.742 92.775 23.7999 92.8961ZM20.4631 95.7171C19.7052 95.675 14.1631 95.6592 13.442 95.7171C13.3999 96.3382 13.3999 96.7961 13.442 97.2382C14.1841 97.2961 19.7209 97.2961 20.4631 97.2382C20.4999 96.7961 20.4999 96.3382 20.4631 95.7171ZM16.4841 87.5592C16.3841 87.1382 16.3841 85.0592 16.4841 84.6382C17.3262 84.5803 19.0262 84.5592 20.442 84.5803C20.4631 83.7592 20.4841 83.1382 20.4999 82.9013C21.1788 82.7803 23.1209 82.7803 23.7999 82.9013C23.942 83.9013 23.942 91.2013 23.7999 92.2013C23.2209 92.2803 21.2788 92.2803 20.4999 92.2013C20.4578 91.7224 20.4209 89.6592 20.4209 87.6013C19.0209 87.6171 17.342 87.5961 16.4841 87.5592Z" fill="white"/>
<path d="M33.821 87.9183C34.7789 91.3604 36.4631 97.7394 36.521 98.4552C35.921 98.7762 33.9999 99.2341 33.2841 99.2341C33.042 98.5762 31.6631 93.1131 30.8052 89.5341C29.9841 93.1552 28.6473 98.6552 28.4052 99.3131C27.6841 99.3131 25.7631 98.8709 25.1631 98.5552C25.221 97.8341 26.842 91.3973 27.7841 87.9183C26.6631 87.9183 25.7841 87.8973 25.5052 87.8762C25.4052 87.4341 25.4052 85.2183 25.5052 84.7973C25.9262 84.7394 27.3473 84.6973 29.0052 84.6762C28.9631 83.8973 28.9841 82.9341 29.0473 82.3973C29.7262 82.2973 31.8473 82.2973 32.5473 82.3973C32.6052 82.9394 32.6262 83.8973 32.5894 84.6762C34.2683 84.6973 35.6894 84.7341 36.0683 84.7973C36.1683 85.1762 36.1683 87.3552 36.0683 87.8762C35.742 87.8973 34.8999 87.8973 33.821 87.9183ZM40.6631 99.8341C40.0631 99.9762 38.1052 99.9762 37.321 99.8341C37.1999 98.8552 37.1999 83.8973 37.321 82.8973C38.021 82.7762 39.9789 82.7762 40.6631 82.8973C40.7789 83.8973 40.7631 98.8341 40.6631 99.8341Z" fill="white"/>
<path d="M51.0842 96.0376C51.1632 96.5797 51.1842 98.4797 51.0842 99.1955C49.9263 99.2744 43.8263 99.2744 42.5053 99.1955C42.3632 97.3165 42.3632 85.1955 42.5053 83.3165C43.4632 83.2376 48.9842 83.2376 50.3421 83.3165C50.4211 83.8744 50.4211 85.6955 50.3421 86.4376C49.4211 86.4586 46.621 86.4586 45.9632 86.4376C45.9053 86.9797 45.9053 95.3165 45.9632 96.0376C46.9421 95.9955 50.221 95.9955 51.0842 96.0376ZM57.5 92.5376C57.1579 92.5797 56.4789 92.5955 55.7789 92.5955C55.7789 96.1376 55.7368 99.3955 55.6789 99.8323C55.1 99.9744 53.1368 99.9744 52.3579 99.8323C52.2368 98.8534 52.2368 83.8955 52.3579 82.8955C53.0368 82.7744 55 82.7744 55.6789 82.8955C55.7368 83.3165 55.7789 86.1165 55.7789 89.3165C56.4789 89.3165 57.1579 89.3586 57.5 89.3955C57.6 89.8376 57.6 92.0955 57.5 92.5376Z" fill="white"/>
<path d="M-0.000244141 531.71H296.874C316.755 531.71 332.874 515.591 332.874 495.71V467.186C332.874 447.305 316.755 431.186 296.874 431.186H-0.000244141" stroke="white" stroke-width="0.9"/>
<path d="M88.497 441.86C94.464 441.86 99.297 437.027 99.297 431.06C99.297 425.093 94.464 420.26 88.497 420.26C82.53 420.26 77.697 425.093 77.697 431.06C77.697 437.027 82.53 441.86 88.497 441.86Z" fill="white"/>
<path d="M87.9659 427.018C87.3539 427.045 86.8769 427.036 86.3099 427.018C86.2829 426.505 86.2649 425.209 86.3099 424.534C86.8589 424.444 90.1169 424.444 90.6479 424.534C90.7379 425.317 90.7379 436.027 90.6479 436.792C90.1799 436.882 88.6229 436.882 88.0109 436.792C87.9479 436.27 87.9209 430.825 87.9659 427.018Z" fill="#FF926A"/>
<path d="M232.002 441.86C237.969 441.86 242.802 437.027 242.802 431.06C242.802 425.093 237.969 420.26 232.002 420.26C226.035 420.26 221.202 425.093 221.202 431.06C221.202 437.027 226.044 441.86 232.002 441.86Z" fill="white"/>
<path d="M228.735 426.938C228.69 426.326 228.672 425.111 228.717 424.49C229.266 424.463 229.995 424.445 230.67 424.445C233.901 424.445 235.269 425.822 235.269 428.207C235.269 429.827 234.927 430.997 233.946 432.203C233.352 432.932 232.587 433.796 231.984 434.354C233.28 434.327 234.666 434.336 235.494 434.354C235.539 434.993 235.539 436.226 235.494 436.784C234.531 436.847 229.626 436.847 228.537 436.784C228.456 436.037 228.456 435.146 228.537 434.444C229.266 433.706 230.391 432.383 230.967 431.717C232.227 430.25 232.65 429.395 232.65 428.396C232.65 427.397 232.038 426.929 230.526 426.929C229.914 426.929 229.266 426.938 228.735 426.938Z" fill="#FF926A"/>
<path d="M232.002 543.518C237.969 543.518 242.802 538.685 242.802 532.718C242.802 526.751 237.969 521.918 232.002 521.918C226.035 521.918 221.202 526.751 221.202 532.718C221.202 538.685 226.035 543.518 232.002 543.518Z" fill="white"/>
<path d="M235.269 534.797C235.269 537.047 233.775 538.496 230.589 538.496C230.121 538.496 229.329 538.478 228.807 538.451C228.762 537.857 228.762 536.615 228.807 536.021H230.274C231.975 536.021 232.641 535.463 232.641 534.572C232.641 533.681 231.966 533.195 230.211 533.195C229.833 533.195 229.572 533.195 229.293 533.159C229.257 532.646 229.248 531.584 229.293 530.909C229.554 530.873 229.806 530.873 230.166 530.873C231.57 530.873 232.065 530.387 232.065 529.595C232.065 528.866 231.408 528.47 230.04 528.47H228.96C228.915 527.912 228.915 526.706 228.96 526.13C229.455 526.103 229.896 526.067 230.346 526.085C233.172 526.175 234.639 527.237 234.639 529.487C234.639 530.441 234.378 531.341 233.514 531.845C234.729 532.394 235.269 533.375 235.269 534.797Z" fill="#FF926A"/>
<path d="M88.4973 544.596C94.4643 544.596 99.2973 539.763 99.2973 533.796C99.2973 527.829 94.4643 522.996 88.4973 522.996C82.5303 522.996 77.6973 527.829 77.6973 533.796C77.6973 539.763 82.5393 544.596 88.4973 544.596Z" fill="white"/>
<path d="M93.0333 537.521C92.8443 537.521 92.2683 537.521 91.4763 537.539C91.4583 538.601 91.4583 539.348 91.4493 539.537C91.0083 539.6 89.6042 539.6 89.0013 539.537C88.9833 539.24 88.9833 538.493 88.9833 537.539C86.7243 537.539 84.3033 537.539 83.8983 537.521C83.8533 536.837 83.8533 536.09 83.8983 535.181C84.3933 534.038 87.5792 527.954 87.9662 527.27C88.4972 527.207 90.3333 527.207 91.4493 527.27C91.4943 527.702 91.4943 531.824 91.4943 535.163C92.1963 535.181 92.7722 535.181 93.0422 535.181C93.0782 535.73 93.0603 536.882 93.0333 537.521ZM88.9743 535.163C88.9923 533.102 89.0013 530.969 89.0193 530.249C88.6413 531.149 87.0662 534.227 86.5892 535.181C87.0302 535.163 87.9663 535.163 88.9743 535.163Z" fill="#FF926A"/>
<path d="M58.3108 462.811C58.4368 462.397 60.3448 458.329 61.2988 456.331C59.9128 456.331 58.7428 456.313 58.3828 456.295C58.2928 456.043 58.2928 455.179 58.3828 454.927C59.3728 454.873 66.1408 454.873 67.0948 454.927C67.1848 455.179 67.1848 456.025 67.0948 456.295C66.7168 456.313 65.5108 456.331 64.1248 456.331C65.1148 458.257 67.1668 462.325 67.3108 462.721C67.0588 463.009 66.3748 463.315 65.9968 463.351C65.7448 462.973 63.5848 458.563 62.7208 456.709C61.8748 458.671 59.8768 462.991 59.6428 463.369C59.2648 463.351 58.5628 463.063 58.3108 462.811ZM72.6748 469.417C71.4508 469.471 59.9308 469.471 59.1568 469.417C59.1028 468.319 59.0848 465.313 59.1568 464.359C59.4628 464.251 60.2908 464.251 60.6868 464.359C60.6868 465.151 60.7048 467.167 60.6868 468.031C62.1628 468.013 71.8648 468.013 72.6748 468.031C72.7468 468.355 72.7468 469.075 72.6748 469.417ZM67.3288 459.679C67.2208 459.373 67.2208 458.635 67.3288 458.347C67.9048 458.311 69.6148 458.311 70.6408 458.329C70.6408 456.403 70.6408 454.765 70.6588 454.423C70.9828 454.315 71.8288 454.315 72.1528 454.423C72.2248 455.323 72.2248 464.701 72.1528 465.601C71.8828 465.673 71.0368 465.673 70.6588 465.601C70.6408 465.151 70.6228 462.379 70.6408 459.697C69.6148 459.733 67.9048 459.715 67.3288 459.679Z" fill="white"/>
<path d="M86.4089 463.243C85.3289 463.261 74.9249 463.261 74.0249 463.243C73.9709 462.847 73.9709 462.307 74.0249 461.875C74.4389 461.875 76.8869 461.857 79.4969 461.857C79.4789 461.317 79.4789 460.651 79.4969 460.093C77.2829 460.093 75.2129 460.075 74.6909 460.039C74.5829 458.491 74.5829 456.403 74.6909 454.837C75.5549 454.711 84.3569 454.711 85.5809 454.837C85.6349 455.161 85.6349 455.755 85.5809 456.097C84.4829 456.115 77.0669 456.115 76.2029 456.097V458.779C77.3549 458.743 84.7169 458.743 85.7609 458.779C85.8149 459.103 85.8149 459.715 85.7609 460.039C85.3109 460.075 83.2769 460.093 81.0629 460.093C81.0809 460.651 81.0809 461.317 81.0809 461.857C83.6009 461.857 85.9229 461.875 86.4089 461.875C86.4629 462.325 86.4629 462.847 86.4089 463.243ZM86.0489 467.293C86.0489 469.039 84.1949 470.137 80.2169 470.137C76.2389 470.137 74.3849 469.039 74.3849 467.293C74.3849 465.547 76.2389 464.449 80.2169 464.449C84.1949 464.449 86.0489 465.547 86.0489 467.293ZM84.4829 467.293C84.4829 466.429 83.3669 465.727 80.2169 465.727C77.0669 465.727 75.9509 466.429 75.9509 467.293C75.9509 468.157 77.0669 468.859 80.2169 468.859C83.3669 468.859 84.4829 468.157 84.4829 467.293Z" fill="white"/>
<path d="M88.6227 462.631C88.2627 462.577 87.5787 462.271 87.3447 462.019C87.6867 461.137 90.4407 455.809 91.0347 454.711C91.3947 454.639 92.1507 454.639 92.5107 454.711C93.1227 455.719 95.9847 460.849 96.3447 461.659C96.1287 461.929 95.4627 462.289 95.1027 462.361C94.6167 461.659 92.3127 457.321 91.8087 456.295C91.3407 457.375 89.0727 461.893 88.6227 462.631ZM102.105 466.555C102.105 468.607 100.179 469.903 95.2827 469.903C90.3687 469.903 88.4607 468.607 88.4607 466.555C88.4607 464.503 90.3687 463.207 95.2827 463.207C100.179 463.207 102.105 464.503 102.105 466.555ZM100.521 466.555C100.521 465.385 99.2427 464.557 95.2827 464.557C91.3227 464.557 90.0267 465.385 90.0267 466.555C90.0267 467.725 91.3227 468.553 95.2827 468.553C99.2427 468.553 100.521 467.725 100.521 466.555ZM96.3807 458.563C96.2727 458.311 96.2727 457.501 96.3807 457.231C96.9387 457.213 98.9727 457.213 100.233 457.213C100.233 455.899 100.233 454.765 100.251 454.423C100.575 454.315 101.421 454.315 101.745 454.423C101.817 455.323 101.817 461.803 101.745 462.703C101.475 462.775 100.629 462.775 100.251 462.703C100.233 462.271 100.233 460.417 100.233 458.581C98.9727 458.599 96.9387 458.599 96.3807 458.563Z" fill="white"/>
<path d="M104.283 461.983C104.157 460.309 104.157 456.583 104.283 454.909C105.147 454.837 111.015 454.837 112.023 454.909C112.077 455.197 112.077 455.917 112.023 456.223C111.357 456.241 106.389 456.241 105.795 456.223C105.741 456.691 105.741 460.021 105.795 460.669C106.677 460.633 112.095 460.633 112.869 460.669C112.941 460.939 112.941 461.677 112.869 461.983C111.825 462.055 105.471 462.055 104.283 461.983ZM116.811 466.555C116.811 468.607 114.975 469.903 110.655 469.903C106.353 469.903 104.517 468.607 104.517 466.555C104.517 464.503 106.353 463.207 110.655 463.207C114.975 463.207 116.811 464.503 116.811 466.555ZM115.245 466.555C115.245 465.385 114.021 464.557 110.655 464.557C107.307 464.557 106.083 465.385 106.083 466.555C106.083 467.725 107.307 468.553 110.655 468.553C114.021 468.553 115.245 467.725 115.245 466.555ZM118.629 459.175C118.179 459.211 117.243 459.229 116.469 459.211C116.451 460.831 116.433 462.307 116.397 462.703C116.145 462.775 115.299 462.775 114.921 462.703C114.867 461.821 114.867 455.323 114.921 454.423C115.245 454.315 116.091 454.315 116.397 454.423C116.433 454.819 116.451 456.241 116.469 457.825C117.243 457.807 118.179 457.825 118.629 457.843C118.719 458.077 118.719 458.977 118.629 459.175Z" fill="white"/>
<path d="M211.761 456.277C211.689 455.989 211.689 455.233 211.761 454.927C212.895 454.873 217.161 454.873 217.827 454.945C217.881 456.043 217.899 461.353 217.827 462.271C217.485 462.379 216.747 462.379 216.315 462.271C216.315 461.389 216.297 457.213 216.315 456.277C214.893 456.313 212.589 456.313 211.761 456.277ZM224.109 466.555C224.109 468.607 222.129 469.903 218.205 469.903C214.281 469.903 212.301 468.607 212.301 466.555C212.301 464.503 214.281 463.207 218.205 463.207C222.129 463.207 224.109 464.503 224.109 466.555ZM222.525 466.555C222.525 465.385 221.193 464.557 218.205 464.557C215.217 464.557 213.885 465.385 213.885 466.555C213.885 467.725 215.217 468.553 218.205 468.553C221.193 468.553 222.525 467.725 222.525 466.555ZM222.237 459.517C222.219 458.869 222.219 458.185 222.237 457.519C221.121 457.537 219.375 457.537 218.889 457.501C218.781 457.249 218.781 456.475 218.889 456.187C219.375 456.169 221.121 456.169 222.237 456.169C222.237 455.323 222.237 454.675 222.255 454.423C222.579 454.315 223.425 454.315 223.749 454.423C223.821 455.323 223.821 461.785 223.749 462.685C223.479 462.757 222.633 462.757 222.255 462.685C222.237 462.433 222.237 461.749 222.237 460.867C221.121 460.885 219.375 460.885 218.889 460.849C218.781 460.597 218.781 459.805 218.889 459.535C219.375 459.517 221.121 459.517 222.237 459.517Z" fill="white"/>
<path d="M229.941 456.493C228.411 456.511 226.377 456.511 225.567 456.493C225.495 456.187 225.495 455.377 225.567 455.071C226.701 455.017 230.805 455.017 231.471 455.089C231.525 456.187 231.543 468.013 231.471 468.931C231.129 469.039 230.373 469.039 229.941 468.931C229.941 468.049 229.923 457.519 229.941 456.493ZM234.153 454.423C234.531 454.333 235.287 454.333 235.665 454.423C235.737 455.323 235.737 468.787 235.665 469.669C235.323 469.759 234.585 469.759 234.153 469.669C234.117 468.787 234.117 455.323 234.153 454.423Z" fill="white"/>
<path d="M237.879 462.811C238.005 462.397 239.913 458.329 240.867 456.331C239.481 456.331 238.311 456.313 237.951 456.295C237.861 456.043 237.861 455.179 237.951 454.927C238.941 454.873 245.709 454.873 246.663 454.927C246.753 455.179 246.753 456.025 246.663 456.295C246.285 456.313 245.079 456.331 243.693 456.331C244.683 458.257 246.735 462.325 246.879 462.721C246.627 463.009 245.943 463.315 245.565 463.351C245.313 462.973 243.153 458.563 242.289 456.709C241.443 458.671 239.445 462.991 239.211 463.369C238.833 463.351 238.131 463.063 237.879 462.811ZM252.243 469.417C251.019 469.471 239.499 469.471 238.725 469.417C238.671 468.319 238.653 465.313 238.725 464.359C239.031 464.251 239.859 464.251 240.255 464.359C240.255 465.151 240.273 467.167 240.255 468.031C241.731 468.013 251.433 468.013 252.243 468.031C252.315 468.355 252.315 469.075 252.243 469.417ZM246.897 459.679C246.789 459.373 246.789 458.635 246.897 458.347C247.473 458.311 249.183 458.311 250.209 458.329C250.209 456.403 250.209 454.765 250.227 454.423C250.551 454.315 251.397 454.315 251.721 454.423C251.793 455.323 251.793 464.701 251.721 465.601C251.451 465.673 250.605 465.673 250.227 465.601C250.209 465.151 250.191 462.379 250.209 459.697C249.183 459.733 247.473 459.715 246.897 459.679Z" fill="white"/>
<path d="M44.145 555.238C45.171 558.028 47.889 567.082 48.357 568.756C48.105 568.954 47.349 569.17 46.953 569.188C46.377 567.568 44.109 560.206 43.389 557.488C42.687 560.242 40.419 567.604 39.861 569.242C39.465 569.224 38.691 569.008 38.439 568.81C38.889 567.136 41.607 558.046 42.615 555.238C42.921 555.148 43.839 555.148 44.145 555.238ZM53.469 569.935C53.127 570.025 52.389 570.025 51.957 569.935C51.939 569.449 51.921 565.255 51.939 561.385C50.607 561.403 48.267 561.403 47.709 561.367C47.655 561.079 47.655 560.269 47.709 559.981C48.267 559.945 50.607 559.945 51.939 559.963C51.939 557.299 51.939 555.031 51.957 554.689C52.335 554.599 53.091 554.599 53.469 554.689C53.541 555.58 53.541 569.053 53.469 569.935Z" fill="white"/>
<path d="M55.4671 557.666C55.3411 557.432 55.3411 556.622 55.4671 556.388C56.0251 556.37 57.4831 556.352 59.0491 556.352C59.0311 555.686 59.0491 554.75 59.0671 554.246C59.3731 554.156 60.2911 554.138 60.5791 554.246C60.6151 554.75 60.6331 555.686 60.6151 556.352C62.1271 556.352 63.4771 556.37 63.9811 556.388C64.0891 556.604 64.0891 557.414 63.9811 557.666C62.7931 557.702 56.7451 557.702 55.4671 557.666ZM55.7371 561.482C55.7371 559.772 57.2311 558.566 59.8411 558.566C62.4511 558.566 63.9451 559.772 63.9451 561.482C63.9451 563.21 62.4511 564.416 59.8411 564.416C57.2311 564.416 55.7371 563.21 55.7371 561.482ZM67.0231 565.415C67.0771 566.405 67.0951 569.033 67.0231 569.915C66.6811 570.005 65.9251 570.005 65.4751 569.915V566.747C64.0171 566.765 57.0511 566.765 56.2411 566.747C56.1691 566.495 56.1691 565.721 56.2411 565.397C57.3751 565.343 66.3571 565.343 67.0231 565.415ZM57.1951 561.482C57.1951 562.49 58.0411 563.156 59.8411 563.156C61.6411 563.156 62.4871 562.49 62.4871 561.482C62.4871 560.492 61.6411 559.826 59.8411 559.826C58.0411 559.826 57.1951 560.492 57.1951 561.482ZM69.2731 561.032C68.8231 561.068 67.8871 561.086 67.1131 561.068C67.0951 562.778 67.0771 564.254 67.0411 564.614C66.7891 564.686 65.9431 564.686 65.5651 564.614C65.5111 563.732 65.5111 555.578 65.5651 554.678C65.8891 554.57 66.7351 554.57 67.0411 554.678C67.0951 555.128 67.1131 557.414 67.1131 559.682C67.8871 559.664 68.8231 559.682 69.2731 559.7C69.3631 559.916 69.3631 560.834 69.2731 561.032Z" fill="white"/>
<path d="M82.341 563.506C81.261 563.524 70.857 563.524 69.957 563.506C69.903 563.11 69.903 562.57 69.957 562.138C70.371 562.138 72.819 562.12 75.429 562.12C75.411 561.58 75.411 560.914 75.429 560.356C73.215 560.356 71.145 560.338 70.623 560.302C70.515 558.754 70.515 556.666 70.623 555.1C71.487 554.974 80.289 554.974 81.513 555.1C81.567 555.424 81.567 556.018 81.513 556.36C80.415 556.378 72.999 556.378 72.135 556.36V559.042C73.287 559.006 80.649 559.006 81.693 559.042C81.747 559.366 81.747 559.978 81.693 560.302C81.243 560.338 79.209 560.356 76.995 560.356C77.013 560.914 77.013 561.58 77.013 562.12C79.533 562.12 81.855 562.138 82.341 562.138C82.395 562.579 82.395 563.101 82.341 563.506ZM81.981 567.556C81.981 569.302 80.127 570.4 76.149 570.4C72.171 570.4 70.317 569.302 70.317 567.556C70.317 565.81 72.171 564.712 76.149 564.712C80.127 564.712 81.981 565.81 81.981 567.556ZM80.415 567.556C80.415 566.692 79.299 565.99 76.149 565.99C72.999 565.99 71.883 566.692 71.883 567.556C71.883 568.42 72.999 569.122 76.149 569.122C79.299 569.122 80.415 568.42 80.415 567.556Z" fill="white"/>
<path d="M95.643 554.752C95.697 555.652 95.697 568.792 95.643 569.692C95.373 569.8 94.527 569.8 94.185 569.692C94.167 569.404 94.167 567.874 94.167 565.894C93.231 565.912 92.007 565.912 91.233 565.894C90.639 568.324 89.361 569.278 87.615 569.278C85.113 569.278 83.583 567.352 83.583 562.168C83.583 556.93 85.149 555.058 87.615 555.058C89.271 555.058 90.495 555.922 91.125 558.046C91.881 558.028 93.177 558.028 94.167 558.028C94.167 556.3 94.167 555.022 94.185 554.752C94.491 554.644 95.337 554.644 95.643 554.752ZM90.081 562.168C90.081 557.938 89.109 556.48 87.615 556.48C86.085 556.48 85.131 557.974 85.131 562.168C85.131 566.398 86.085 567.856 87.615 567.856C89.145 567.865 90.081 566.371 90.081 562.168ZM94.167 564.49C94.149 562.852 94.149 561.034 94.167 559.432C93.303 559.45 92.205 559.45 91.431 559.432C91.557 560.224 91.611 561.124 91.611 562.168C91.611 563.032 91.575 563.806 91.485 564.49C92.241 564.481 93.321 564.481 94.167 564.49ZM99.405 569.953C99.117 570.043 98.325 570.043 97.929 569.953C97.875 569.071 97.875 555.589 97.929 554.689C98.307 554.599 99.063 554.599 99.405 554.689C99.459 555.58 99.459 569.071 99.405 569.953Z" fill="white"/>
<path d="M111.933 561.679C111.465 561.679 109.485 561.698 107.343 561.698C107.361 562.256 107.361 562.903 107.343 563.425C109.125 563.425 110.745 563.444 111.195 563.462C111.303 564.2 111.321 566.738 111.195 567.278C109.899 567.296 104.301 567.278 103.383 567.278V568.898C104.193 568.88 110.277 568.88 111.681 568.898C111.789 569.186 111.789 569.797 111.681 570.121C110.331 570.193 103.365 570.211 101.871 570.121C101.763 569.275 101.763 567.061 101.871 566.179C103.509 566.161 108.657 566.179 109.719 566.179V564.632H101.799C101.709 564.236 101.709 563.858 101.799 563.462C102.267 563.444 103.941 563.425 105.777 563.425C105.759 562.903 105.759 562.256 105.759 561.698C103.581 561.698 101.565 561.679 101.169 561.679C101.115 561.337 101.115 560.707 101.169 560.383C102.051 560.347 110.853 560.347 111.933 560.383C112.005 560.707 111.987 561.319 111.933 561.679ZM101.511 558.224C102.663 557.234 104.931 555.451 105.921 554.749C106.263 554.695 106.839 554.695 107.181 554.749C108.171 555.451 110.439 557.234 111.591 558.224C111.483 558.548 111.069 559.142 110.763 559.34C109.521 558.422 107.415 556.712 106.551 556.01C105.687 556.712 103.581 558.422 102.339 559.34C102.033 559.142 101.619 558.548 101.511 558.224Z" fill="white"/>
<path d="M121.023 555.345C121.131 556.263 121.131 568.179 121.023 569.151C120.141 569.223 114.579 569.223 113.715 569.151C113.589 568.215 113.589 556.281 113.715 555.345C114.669 555.183 120.069 555.183 121.023 555.345ZM119.511 556.695C119.169 556.623 115.569 556.623 115.209 556.695C115.155 557.901 115.155 566.541 115.209 567.765C115.569 567.819 119.169 567.819 119.511 567.765C119.565 566.55 119.565 557.901 119.511 556.695ZM127.215 562.617C126.765 562.635 125.829 562.635 125.073 562.635C125.073 566.109 125.055 569.493 125.037 569.925C124.785 570.051 123.885 570.051 123.525 569.925C123.489 569.043 123.489 555.579 123.525 554.679C123.831 554.571 124.731 554.571 125.037 554.679C125.055 555.075 125.073 558.009 125.073 561.195C125.829 561.177 126.747 561.195 127.215 561.213C127.287 561.429 127.287 562.383 127.215 562.617Z" fill="white"/>
<path d="M127.899 560.924C128.781 560.906 136.323 560.906 137.385 560.924C137.457 561.23 137.439 561.86 137.385 562.184C136.323 562.22 128.781 562.22 127.899 562.184C127.827 561.878 127.827 561.266 127.899 560.924ZM128.421 557.163C128.421 555.597 129.771 554.48 132.633 554.48C135.495 554.48 136.845 555.597 136.845 557.163C136.845 558.747 135.495 559.863 132.633 559.863C129.771 559.863 128.421 558.747 128.421 557.163ZM128.583 566.243C130.221 566.225 134.109 566.243 135.171 566.243V564.731H128.511C128.421 564.317 128.421 563.957 128.511 563.561C129.573 563.507 135.603 563.507 136.647 563.561C136.755 564.299 136.773 566.783 136.647 567.323C135.351 567.341 131.013 567.323 130.095 567.323V568.925C130.905 568.907 135.729 568.907 137.133 568.925C137.241 569.213 137.241 569.825 137.133 570.131C135.783 570.203 130.077 570.221 128.583 570.131C128.475 569.303 128.475 567.125 128.583 566.243ZM135.261 557.163C135.261 556.317 134.541 555.722 132.633 555.722C130.725 555.722 130.005 556.317 130.005 557.163C130.005 558.027 130.725 558.621 132.633 558.621C134.541 558.621 135.261 558.027 135.261 557.163Z" fill="white"/>
<path d="M202.437 563.067C202.563 562.653 204.471 558.585 205.425 556.587C204.039 556.587 202.869 556.569 202.509 556.551C202.419 556.299 202.419 555.435 202.509 555.183C203.499 555.129 210.267 555.129 211.221 555.183C211.311 555.435 211.311 556.281 211.221 556.551C210.843 556.569 209.637 556.587 208.251 556.587C209.241 558.513 211.293 562.581 211.437 562.977C211.185 563.265 210.501 563.571 210.123 563.607C209.871 563.229 207.711 558.819 206.847 556.965C206.001 558.927 204.003 563.247 203.769 563.625C203.391 563.616 202.689 563.319 202.437 563.067ZM216.801 569.682C215.577 569.736 204.057 569.736 203.283 569.682C203.229 568.584 203.211 565.578 203.283 564.624C203.589 564.516 204.417 564.516 204.813 564.624C204.813 565.416 204.831 567.432 204.813 568.296C206.289 568.278 215.991 568.278 216.801 568.296C216.873 568.62 216.873 569.34 216.801 569.682ZM211.455 559.935C211.347 559.629 211.347 558.891 211.455 558.603C212.031 558.567 213.741 558.567 214.767 558.585C214.767 556.659 214.767 555.021 214.785 554.679C215.109 554.571 215.955 554.571 216.279 554.679C216.351 555.579 216.351 564.957 216.279 565.857C216.009 565.929 215.163 565.929 214.785 565.857C214.767 565.407 214.749 562.635 214.767 559.953C213.741 559.989 212.031 559.971 211.455 559.935Z" fill="white"/>
<path d="M230.535 563.506C229.455 563.524 219.051 563.524 218.151 563.506C218.097 563.11 218.097 562.57 218.151 562.138C218.565 562.138 221.013 562.12 223.623 562.12C223.605 561.58 223.605 560.914 223.623 560.356C221.409 560.356 219.339 560.338 218.817 560.302C218.709 558.754 218.709 556.666 218.817 555.1C219.681 554.974 228.483 554.974 229.707 555.1C229.761 555.424 229.761 556.018 229.707 556.36C228.609 556.378 221.193 556.378 220.329 556.36V559.042C221.481 559.006 228.843 559.006 229.887 559.042C229.941 559.366 229.941 559.978 229.887 560.302C229.437 560.338 227.403 560.356 225.189 560.356C225.207 560.914 225.207 561.58 225.207 562.12C227.727 562.12 230.049 562.138 230.535 562.138C230.589 562.579 230.589 563.101 230.535 563.506ZM230.175 567.556C230.175 569.302 228.321 570.4 224.343 570.4C220.365 570.4 218.511 569.302 218.511 567.556C218.511 565.81 220.365 564.712 224.343 564.712C228.321 564.712 230.175 565.81 230.175 567.556ZM228.609 567.556C228.609 566.692 227.493 565.99 224.343 565.99C221.193 565.99 220.077 566.692 220.077 567.556C220.077 568.42 221.193 569.122 224.343 569.122C227.493 569.122 228.609 568.42 228.609 567.556Z" fill="white"/>
<path d="M231.813 557.522C231.687 557.288 231.687 556.496 231.813 556.262C232.389 556.226 234.135 556.208 236.025 556.208C236.007 555.56 236.025 554.714 236.043 554.246C236.349 554.156 237.267 554.138 237.555 554.246C237.591 554.714 237.609 555.56 237.591 556.208C239.391 556.208 241.029 556.226 241.587 556.262C241.695 556.478 241.695 557.27 241.587 557.522C240.291 557.558 233.091 557.558 231.813 557.522ZM232.083 561.032C232.083 559.502 233.667 558.422 236.817 558.422C239.967 558.422 241.551 559.502 241.551 561.032C241.551 562.598 239.967 563.66 236.817 563.66C233.667 563.66 232.083 562.598 232.083 561.032ZM245.061 567.341C245.061 569.051 243.297 570.167 238.815 570.167C234.351 570.167 232.587 569.051 232.587 567.341C232.587 565.631 234.351 564.515 238.815 564.515C243.297 564.515 245.061 565.631 245.061 567.341ZM233.541 561.032C233.541 561.878 234.603 562.436 236.817 562.436C239.031 562.436 240.093 561.878 240.093 561.032C240.093 560.204 239.031 559.646 236.817 559.646C234.603 559.646 233.541 560.204 233.541 561.032ZM243.495 567.341C243.495 566.477 242.289 565.829 238.815 565.829C235.359 565.829 234.153 566.477 234.153 567.341C234.153 568.205 235.359 568.853 238.815 568.853C242.289 568.853 243.495 568.205 243.495 567.341ZM246.861 560.852C246.951 561.068 246.951 561.95 246.861 562.148C246.411 562.184 245.475 562.202 244.701 562.184C244.683 563.066 244.665 563.75 244.647 563.984C244.395 564.056 243.549 564.056 243.171 563.984C243.117 563.102 243.117 555.578 243.171 554.678C243.495 554.57 244.341 554.57 244.647 554.678C244.683 554.984 244.701 556.1 244.701 557.468C245.475 557.45 246.411 557.468 246.861 557.486C246.951 557.72 246.951 558.584 246.861 558.782C246.411 558.818 245.493 558.836 244.719 558.818V560.834C245.493 560.816 246.411 560.834 246.861 560.852Z" fill="white"/>
<path d="M261.027 569.392C260.109 569.428 248.337 569.428 247.563 569.392C247.491 569.014 247.491 568.402 247.563 568.042C247.797 568.024 248.985 568.024 250.587 568.006C250.569 566.206 250.569 561.904 250.605 561.148C250.929 561.058 251.793 561.058 252.117 561.148C252.135 561.904 252.135 566.188 252.117 568.006H254.655C254.637 566.188 254.637 561.904 254.673 561.148C254.997 561.058 255.861 561.058 256.185 561.148C256.203 561.904 256.203 566.206 256.185 568.006C258.597 568.024 260.667 568.024 261.027 568.042C261.081 568.42 261.099 569.032 261.027 569.392ZM248.229 556.675C248.139 556.333 248.139 555.703 248.229 555.343C249.219 555.271 259.371 555.271 260.235 555.343C260.307 556.135 260.271 564.613 260.235 565.333C259.857 565.405 259.173 565.405 258.741 565.333C258.723 564.415 258.723 557.971 258.741 556.675C257.841 556.711 249.075 556.711 248.229 556.675Z" fill="white"/>
</g>
<defs>
<clipPath id="clip0_672_27325">
<rect width="360" height="604" fill="white" transform="translate(0 0.259766)"/>
</clipPath>
</defs>
</svg>
