<svg width="400" height="199" viewBox="0 0 400 199" fill="none" xmlns="http://www.w3.org/2000/svg">
<g clip-path="url(#clip0_33_1196)">
<path d="M135.756 60.2802L113.357 61.6751V31.4375H132.482V38.052H121.004V54.6106L135.747 53.6387V60.2802H135.756ZM128.353 41.8047H136.629V30.3936H144.275V62.719H136.629V48.4191H128.353V41.8047Z" fill="#F6FFFF"/>
<path d="M151.624 38.1869C151.624 33.0753 155.798 30.3936 160.907 30.3936C166.017 30.3936 170.191 33.0753 170.191 38.1869V39.7168C170.191 44.8284 166.017 47.4382 160.907 47.4382C155.798 47.4382 151.624 44.8284 151.624 39.7168V38.1869ZM153.081 48.7611H181.525V57.4274H160.727V58.6783H182.217V62.71H153.072V53.8007H173.87V52.6218H153.072V48.7611H153.081ZM158.613 40.4098C158.613 41.7687 159.621 42.6056 160.979 42.6056C162.338 42.6056 163.381 41.7687 163.381 40.4098V37.449C163.381 36.0901 162.338 35.2262 160.979 35.2262C159.621 35.2262 158.613 36.0991 158.613 37.449V40.4098ZM173.879 30.3936H181.534V35.5411H185.15V41.4897H181.534V47.8882H173.879V30.3936Z" fill="#F6FFFF"/>
<path d="M185.708 55.9336H195.342V43.1636H202.853V55.9336H217.705V62.1971H185.708V55.9336ZM186.751 30.9155H216.661L215.204 55.0606H207.693L208.772 37.008H186.76V30.9155H186.751Z" fill="#F6FFFF"/>
<path d="M224.316 40.9407C229.083 39.5818 231.197 36.6301 231.197 32.1754V30.5735H238.879V32.1754C238.879 36.6301 241.002 39.5818 245.761 40.9407V47.2402C240.93 46.1963 237.35 44.2525 235.011 41.0127C232.682 44.2525 229.137 46.1963 224.298 47.2402V40.9407H224.316ZM251.509 57.8864H256.133V62.719H225.602V57.8864H230.127L229.713 54.0257H237.188L237.602 57.8864H244.034L244.484 54.0257H251.959L251.509 57.8864ZM225.953 48.4911H255.791V53.3237H225.953V48.4911ZM247.749 30.3936H255.575L255.611 47.6182H247.785L247.749 30.3936Z" fill="#F6FFFF"/>
<path d="M258.75 45.2155H290.747V50.813H258.75V45.2155ZM265.461 30.2227H284.063C287.266 30.2227 289.937 33.1834 289.937 36.7651C289.937 40.3469 287.257 43.2356 284.063 43.2356H265.461C262.222 43.2356 259.623 40.3469 259.623 36.7651C259.623 33.1834 262.231 30.2227 265.461 30.2227ZM290.045 62.7191H259.964V52.2439H267.512V57.5355H290.045V62.7191ZM267.61 37.7731H281.868C282.39 37.7731 282.768 37.2871 282.768 36.7291C282.768 36.2072 282.39 35.6852 281.868 35.6852H267.61C267.089 35.6852 266.702 36.2072 266.702 36.7291C266.702 37.2871 267.089 37.7731 267.61 37.7731Z" fill="#F6FFFF"/>
<path d="M147.1 140.293H154.333V141.895H158.543V140.608H165.217V141.895H169.355V140.293H176.659V152.154H165.532V153.891H177.874V158.939H145.877V153.891H158.192V152.154H147.1V140.293ZM147.1 159.848H154.504V161.621H169.211V159.848H176.65V172.825H169.211V171.925L147.091 172.825V159.848H147.1ZM154.333 147.843H158.543V146.206H154.333V147.843ZM154.504 167.984L169.211 167.498V166.103H154.504V167.984ZM165.217 146.206V147.843H169.355V146.206H165.217Z" fill="#F6FFFF"/>
<path d="M181.354 149.616C181.354 144.505 185.528 141.022 190.638 141.022C195.747 141.022 199.957 144.505 199.957 149.616V163.709C199.957 168.821 195.783 172.303 190.638 172.303C185.492 172.303 181.354 168.821 181.354 163.709V149.616ZM188.344 164.123C188.344 165.338 189.315 166.418 190.71 166.418C192.104 166.418 193.112 165.338 193.112 164.123V149.202C193.112 148.05 192.104 146.871 190.71 146.871C189.315 146.871 188.344 148.05 188.344 149.202V164.123ZM203.609 140.5H211.264V152.226H214.88V158.868H211.264V172.816H203.609V140.5Z" fill="#F6FFFF"/>
<path d="M216.14 141.544H234.742V158.94H223.786V164.888L237.486 163.736V170L216.131 171.773V153.018H227.186V147.627H216.131V141.544H216.14ZM238.395 140.5H246.05V152.226H249.666V158.868H246.05V172.816H238.395V140.5Z" fill="#F6FFFF"/>
<path d="M250.916 140.5H258.221V154.071L257.87 163.808H251.258L250.907 154.071V140.5H250.916ZM251.267 166.283H257.879V172.825H251.267V166.283Z" fill="#F6FFFF"/>
<path d="M74.1476 129.017V107.67H82.7832C76.0367 105.906 71.7998 100.921 71.7998 94.1714V87.8629C71.7998 79.3045 78.5104 73.563 88.4953 73.563C94.4413 73.563 99.2719 75.5338 102.222 79.1425H109.185V73.563H125.062V114.897H109.185V103.675H101.449C98.7951 106.383 94.8641 107.994 90.1865 108.309V116.265H125.889V129.017H74.1476ZM88.6123 85.757C88.1445 85.757 86.6153 85.883 86.6153 87.5299V94.4503C86.6153 95.9982 88.0096 96.1692 88.6123 96.1692C89.089 96.1692 90.6632 96.0432 90.6632 94.4503V87.5299C90.6632 86.225 89.6018 85.757 88.6123 85.757ZM109.185 91.9215V90.8866H105.191V91.9215H109.185Z" fill="#FF8BBA"/>
<path d="M123.253 75.3536V113.088H110.974V101.866H100.648C97.967 104.988 93.5592 106.554 88.4858 106.554C80.282 106.554 73.5894 102.369 73.5894 94.1621V87.8536C73.5894 79.6463 80.282 75.3536 88.4858 75.3536C94.009 75.3536 98.6956 77.1985 101.322 80.9332H110.974V75.3536H123.253ZM88.6028 97.9598C90.7797 97.9598 92.4528 96.6189 92.4528 94.4411V87.5207C92.4528 85.3428 90.7797 83.9479 88.6028 83.9479C86.4259 83.9479 84.8067 85.3428 84.8067 87.5207V94.4411C84.8067 96.6189 86.4259 97.9598 88.6028 97.9598ZM103.391 93.7212H110.983V89.0865H103.391V93.7212ZM88.3779 109.461V118.055H124.09V127.208H75.9462V109.461H88.3869M126.851 71.7539H107.376V77.3335H103.031C99.7121 73.7157 94.6297 71.7539 88.4858 71.7539C77.4214 71.7539 69.9912 78.2244 69.9912 87.8536V94.1621C69.9912 99.0128 71.8982 103.053 75.2176 105.861H72.348V130.807H127.697V114.456H126.86V71.7539H126.851ZM88.4139 87.5657C88.4678 87.5657 88.5308 87.5477 88.6118 87.5477C88.7197 87.5477 88.8007 87.5567 88.8636 87.5747V94.3421C88.8007 94.3511 88.7197 94.3601 88.6118 94.3601C88.5308 94.3601 88.4678 94.3601 88.4139 94.3511V87.5657ZM102.177 105.465H107.385V114.456H91.9851V109.929C96.078 109.38 99.5862 107.85 102.177 105.465Z" fill="white"/>
<path d="M128.434 129.017V105.403H126.482V92.7587H162.059L163.04 85.7482H128.156V73.5542H179.96L177.729 92.7587H181.418V105.403H179.466V129.017H128.443H128.434ZM143.862 116.76L158.182 116.292H143.862V116.76Z" fill="#0AC3FF"/>
<path d="M177.937 75.3539L175.877 93.1005H163.823L165.109 83.9482H129.955V75.3539H177.937ZM179.61 94.5583V103.603H128.273V94.5583H179.61ZM177.658 106.671V127.217H130.234V106.671H177.658ZM142.063 118.613L165.829 117.831V114.483H142.063V118.613ZM181.985 71.7542H126.357V87.5479H160.971L160.494 90.9586H124.684V107.202H126.636V130.816H181.256V107.202H183.208V90.9586H179.745L181.508 75.7678L181.976 71.7542H181.985Z" fill="white"/>
<path d="M211.678 129.017V127.919L209.987 127.199C204.635 124.931 200.569 121.619 197.636 117.111C194.704 121.637 190.647 124.949 185.34 127.199L182.839 128.261V113.25L183.639 112.719C189.01 109.119 190.818 103.243 190.818 89.4287V88.2678H183.397V75.2369H211.687V73.563H237.216V129.017H211.687H211.678ZM206.425 105.906C207.558 108.984 209.258 111.081 211.678 112.71V105.906H206.425ZM211.678 92.7585V88.2678H204.509V89.4287C204.509 90.5986 204.518 91.7056 204.545 92.7675H211.678V92.7585Z" fill="#FDD41A"/>
<path d="M235.408 75.3538V127.208H225.424V75.3538H235.408ZM223.247 75.3538V127.208H213.487V104.098H205.679V94.5493H213.487V75.3448H223.247M210.077 77.0187V86.45H202.71V89.4107C202.71 103.09 204.437 110.01 210.689 114.195V125.525C204.887 123.068 200.533 119.27 197.637 113.466C194.731 119.27 190.44 123.068 184.638 125.525V114.195C190.89 110.01 192.617 103.09 192.617 89.4107V86.45H185.196V77.0187H210.077ZM239.007 71.7451H209.879V73.419H181.589V90.0497H189.01C188.956 102.685 187.319 108.057 182.632 111.198L181.04 112.269V130.951L186.041 128.837C190.845 126.803 194.677 123.95 197.646 120.179C200.614 123.932 204.464 126.794 209.295 128.837L209.888 129.089V130.798H213.927L214.296 130.951V130.798H239.016V71.7541L239.007 71.7451ZM206.308 90.0497H209.879V90.9406H206.317C206.317 90.6436 206.317 90.3467 206.317 90.0497H206.308ZM209.286 107.688H209.879V108.561C209.673 108.282 209.475 107.994 209.286 107.688Z" fill="white"/>
<path d="M238.07 128.18V114.528H257.428V107.184H240.022V74.3909H291.044V87.5928H256.061V93.8203H291.602V107.184H273.638V114.528H292.996V128.18H238.07Z" fill="#01D6A9"/>
<path d="M289.246 76.1908V85.793H254.262V95.6202H289.803V105.384H241.822V76.1908H289.246ZM271.839 107.058V116.328H291.198V126.38H239.87V116.328H259.228V107.058H271.839ZM292.844 72.5911H238.223V108.984H255.63V112.728H236.271V129.98H294.796V112.728H275.438V108.984H293.401V92.0205H257.861V89.3927H292.844V72.5911Z" fill="white"/>
<path d="M75.4972 127.666V109.02H88.8375V117.614H124.54V127.666H75.4972ZM110.534 113.547V102.324H100.864C98.1747 105.348 93.7939 107.013 88.4956 107.013C79.1764 107.013 73.1494 101.973 73.1494 94.1711V87.8626C73.1494 79.9972 79.1764 74.9126 88.4956 74.9126C94.2977 74.9126 98.9213 76.8924 101.557 80.4922H110.525V74.9126H123.704V113.547H110.525H110.534ZM88.6126 84.4068C86.6156 84.4068 85.2663 85.6578 85.2663 87.5296V94.4501C85.2663 96.2859 86.6066 97.5188 88.6126 97.5188C90.6185 97.5188 92.0128 96.2859 92.0128 94.4501V87.5296C92.0128 85.6937 90.6185 84.4068 88.6126 84.4068ZM110.534 93.2711V89.5364H103.842V93.2711H110.534Z" fill="#FF8BBA"/>
<path d="M123.254 75.3535V113.088H110.975V101.865H100.648C97.9674 104.988 93.5596 106.554 88.4862 106.554C80.2824 106.554 73.5898 102.369 73.5898 94.1621V87.8536C73.5898 79.6462 80.2824 75.3535 88.4862 75.3535C94.0094 75.3535 98.696 77.1984 101.323 80.9331H110.975V75.3535H123.254ZM88.6031 97.9598C90.78 97.9598 92.4532 96.6189 92.4532 94.441V87.5206C92.4532 85.3428 90.78 83.9479 88.6031 83.9479C86.4263 83.9479 84.8071 85.3428 84.8071 87.5206V94.441C84.8071 96.6189 86.4263 97.9598 88.6031 97.9598ZM103.392 93.7211H110.984V89.0865H103.392V93.7211ZM88.3783 109.461V118.055H124.09V127.207H75.9466V109.461H88.3873M124.153 74.4536H110.075V80.0332H101.781C99.0379 76.4335 94.3422 74.4536 88.4952 74.4536C79.05 74.4536 72.6992 79.8442 72.6992 87.8536V94.1621C72.6992 102.234 78.8971 107.454 88.4952 107.454C93.8295 107.454 98.2732 105.789 101.062 102.765H110.084V113.987H124.162V74.4536H124.153ZM88.6031 97.0598C86.849 97.0598 85.7066 96.0339 85.7066 94.441V87.5206C85.7066 85.9007 86.84 84.8478 88.6031 84.8478C90.3663 84.8478 91.5536 85.9187 91.5536 87.5206V94.441C91.5536 96.3759 89.9615 97.0598 88.6031 97.0598ZM104.291 89.9864H110.084V92.8212H104.291V89.9864ZM89.2778 108.561H75.047V128.107H124.99V117.155H89.2868V108.561H89.2778Z" fill="#044583"/>
<path d="M129.785 127.666V106.221H178.108V127.666H129.785ZM142.514 118.154L165.38 117.398V114.932H142.514V118.145V118.154ZM127.833 104.052V94.1081H180.069V104.052H127.833ZM163.311 93.5591L164.597 84.4068H129.515V74.9126H178.45L176.282 93.5591H163.311Z" fill="#0AC3FF"/>
<path d="M177.937 75.3538L175.877 93.1004H163.823L165.11 83.9481H129.956V75.3538H177.937ZM179.61 94.5582V103.603H128.273V94.5582H179.61ZM177.658 106.671V127.217H130.234V106.671H177.658ZM142.063 118.613L165.829 117.83V114.483H142.063V118.613ZM178.954 74.4538H129.056V84.848H164.075L162.933 92.9744L162.834 93.6493H127.383V104.493H180.519V93.6493H176.723L176.777 93.1993L178.837 75.4527L178.954 74.4448V74.4538ZM178.567 105.771H129.344V128.117H178.567V105.771ZM142.972 115.383H164.939V116.957L142.972 117.677V115.374V115.383Z" fill="#044583"/>
<path d="M224.964 127.667V74.9038H235.848V127.658H224.964V127.667ZM213.027 127.667V104.556H205.219V94.1083H213.027V74.9038H223.687V127.658H213.027V127.667ZM210.508 125.957C204.688 123.491 200.469 119.729 197.627 114.465C194.784 119.747 190.574 123.518 184.799 125.957L184.179 126.218V113.97L184.377 113.835C190.197 109.938 192.158 103.783 192.158 89.4287V86.9179H184.736V76.5867H210.517V86.9179H203.15V89.4287C203.15 103.783 205.111 109.938 210.931 113.835L211.129 113.97V126.218L210.499 125.957H210.508Z" fill="#FDD41A"/>
<path d="M235.408 75.3538V127.208H225.423V75.3538H235.408ZM223.246 75.3538V127.208H213.486V104.097H205.678V94.5492H213.486V75.3448H223.246M210.077 77.0186V86.4499H202.709V89.4106C202.709 103.09 204.437 110.01 210.688 114.195V125.525C204.886 123.068 200.533 119.27 197.636 113.466C194.73 119.27 190.44 123.068 184.638 125.525V114.195C190.889 110.01 192.617 103.09 192.617 89.4106V86.4499H185.195V77.0186H210.077ZM236.307 74.4448H224.523V128.099H236.307V74.4538V74.4448ZM224.146 74.4448H212.586V93.6493H204.778V103.459C203.96 99.9308 203.618 95.3952 203.618 89.4196V87.3588H210.985V76.1277H184.305V87.3588H191.726V89.4196C191.726 103.594 189.81 109.659 184.143 113.457L183.747 113.727V126.893L184.997 126.362C190.611 123.986 194.766 120.386 197.645 115.374C200.524 120.359 204.697 123.968 210.347 126.362L211.597 126.893V113.727L211.201 113.457C208.287 111.504 206.362 108.948 205.183 104.997H212.586V128.108H224.146V74.4538V74.4448Z" fill="#044583"/>
<path d="M239.421 126.83V115.878H258.779V106.608H272.29V115.878H291.648V126.83H239.421ZM241.373 105.843V75.7407H289.696V86.2429H254.713V95.1702H290.254V105.834H241.373V105.843Z" fill="#01D6A9"/>
<path d="M289.246 76.1907V85.7929H254.263V95.6202H289.804V105.384H241.822V76.1907H289.246ZM271.84 107.058V116.328H291.198V126.38H239.87V116.328H259.228V107.058H271.84ZM290.146 75.2908H240.923V106.284H258.329V115.428H238.971V127.28H292.098V115.428H272.74V106.284H290.703V94.7202H255.162V86.6929H290.146V75.2908Z" fill="#044583"/>
<path d="M298.512 98.302H330.508V103H298.512V98.302ZM299.726 84.7671H329.285V92.3895H307.237V93.5414H329.456V97.0241H299.726V89.3657H321.738V88.2498H299.726V84.7671ZM299.726 104.386H329.285V112.287H307.237V113.439H329.807V117.093H299.726V108.984H321.738V107.868H299.726V104.386Z" fill="#F6FFFF"/>
</g>
<path d="M100.788 50.7216C100.788 50.7216 87.1339 23.6037 65.8334 41.0359C65.8334 41.0359 56.1176 50.8421 67.1798 56.8103C67.1798 56.8103 76.6946 57.6945 73.6001 48.6217C70.5055 39.5489 63.4221 38.2227 47.9391 37.1175C32.4561 36.0122 25.5938 58.3576 25.5938 58.3576" stroke="#FDD41A" stroke-width="3.01421" stroke-linecap="round" stroke-linejoin="round"/>
<path d="M311.501 56.8489C310.184 52.6892 307.874 49.3334 305 47.4244C307.863 45.5154 310.184 42.1596 311.501 38C312.817 42.1596 315.128 45.5154 318.001 47.4244C315.138 49.3334 312.817 52.6892 311.501 56.8489Z" fill="white"/>
<path d="M301.527 35.2081C300.813 32.9575 299.557 31.1389 298 30.1041C299.557 29.0692 300.813 27.2506 301.527 25C302.24 27.2506 303.496 29.0692 305.053 30.1041C303.496 31.1389 302.24 32.9575 301.527 35.2081Z" fill="white"/>
<path d="M111.013 24.3448C110.3 22.0942 109.044 20.2757 107.486 19.2408C109.044 18.2059 110.3 16.3873 111.013 14.1367C111.726 16.3873 112.982 18.2059 114.54 19.2408C112.982 20.2757 111.726 22.0942 111.013 24.3448Z" fill="white"/>
<path d="M86.8694 10.2181C86.156 7.96752 84.9001 6.14895 83.3428 5.11407C84.9001 4.07919 86.156 2.26062 86.8694 0.0100098C87.5828 2.26062 88.8387 4.07919 90.396 5.11407C88.8387 6.14895 87.5828 7.96752 86.8694 10.2181Z" fill="white"/>
<path d="M63.0874 78.4599C62.0223 75.084 60.1334 72.3511 57.8125 70.8038C60.1435 69.2565 62.0223 66.5236 63.0874 63.1477C64.1524 66.5236 66.0413 69.2565 68.3622 70.8038C66.0312 72.3511 64.1524 75.084 63.0874 78.4599Z" fill="white"/>
<path d="M309.115 135C309.115 135 302.936 155.617 319.674 161.023C336.413 166.428 345.958 162.831 346.983 152C348.008 141.169 331.782 141.953 330.747 147.619C329.712 153.286 327.401 156.12 338.222 167.975C349.043 179.831 381.506 166.941 380.481 151.488" stroke="#FDD41A" stroke-width="3.01421" stroke-linecap="round" stroke-linejoin="round"/>
<path d="M136.628 10.6518V8.67746H128.566V6.7168H138.986V10.6518H136.628ZM139.727 13.0512H134.969V14.3538H139.041V18.563H136.683V16.287H128.511V14.3538H132.638V13.0512H127.88V11.1043H139.727V13.0512ZM151.572 6.7168V15.3821H149.255V6.7168H151.572ZM147.897 6.85391V13.5174H140.63V6.85391H147.897ZM142.92 11.5568H145.607V8.81457H142.92V11.5568ZM143.455 14.3264V16.3419H151.736V18.4259H141.097V14.3264H143.455ZM160.428 10.7752H161.717V9.66465H160.428L160.291 7.62172H161.717V6.7168H163.993V15.3958H161.717V12.8182H160.291L160.428 10.7752ZM160.071 10.2405C160.071 12.3657 158.549 13.7505 156.301 13.7505C154.052 13.7505 152.53 12.3657 152.53 10.2405C152.53 8.12902 154.052 6.73051 156.301 6.73051C158.549 6.73051 160.071 8.12902 160.071 10.2405ZM154.82 10.2405C154.82 11.2551 155.423 11.8173 156.301 11.8173C157.178 11.8173 157.782 11.2551 157.782 10.2405C157.782 9.2259 157.178 8.66375 156.301 8.66375C155.423 8.66375 154.82 9.2259 154.82 10.2405ZM156.013 16.3556H164.157V18.4259H153.655V14.3264H156.013V16.3556ZM176.085 6.7168V10.6107H173.74V8.62262H165.664V6.7168H176.085ZM176.825 11.0495V12.9416H164.979V11.0495H176.825ZM176.139 13.6408V18.4259H165.664V13.6408H176.139ZM167.954 16.6161H173.85V15.4507H167.954V16.6161ZM191.69 6.7168V18.4259H189.373V6.7168H191.69ZM184.396 6.85391C186.603 6.85391 188.07 8.58148 188.07 12.4343C188.07 16.287 186.603 18.0146 184.396 18.0146C182.188 18.0146 180.708 16.287 180.708 12.4343C180.708 8.58148 182.188 6.85391 184.396 6.85391ZM184.396 8.9791C183.614 8.9791 182.997 9.81547 182.997 12.4343C182.997 15.0668 183.614 15.8894 184.396 15.8894C185.164 15.8894 185.781 15.0668 185.781 12.4343C185.781 9.81547 185.164 8.9791 184.396 8.9791ZM199.244 11.31C198.119 12.9553 195.816 13.7505 193.005 13.7505V11.7076C195.734 11.6802 197.626 10.693 197.626 9.11621V8.8557H193.005V6.85391H199.984V8.7323C199.984 8.88312 199.984 9.03394 199.97 9.18476H201.794V6.7168H204.111V14.7103H201.794V11.31H199.244ZM204.632 16.5064L203.837 18.563L198.736 16.7121C197.393 17.8501 195.473 18.4259 193.526 18.4259V16.2596C195.72 16.2596 197.667 15.3273 198.106 13.682L200.423 14.0933C200.327 14.4361 200.203 14.7514 200.053 15.053L204.632 16.5064ZM216.422 6.7168V18.4259H214.105V6.7168H216.422ZM209.128 6.85391C211.336 6.85391 212.803 8.58148 212.803 12.4343C212.803 16.287 211.336 18.0146 209.128 18.0146C206.921 18.0146 205.44 16.287 205.44 12.4343C205.44 8.58148 206.921 6.85391 209.128 6.85391ZM209.128 8.9791C208.347 8.9791 207.73 9.81547 207.73 12.4343C207.73 15.0668 208.347 15.8894 209.128 15.8894C209.896 15.8894 210.513 15.0668 210.513 12.4343C210.513 9.81547 209.896 8.9791 209.128 8.9791ZM229.272 10.4599V8.62262H221.128V6.7168H231.617V10.4599H229.272ZM232.33 12.777H227.572V13.6957C230.081 13.8465 231.754 14.5732 231.754 16.1088C231.754 17.8775 229.56 18.563 226.406 18.563C223.253 18.563 221.059 17.8775 221.059 16.1088C221.059 14.5732 222.732 13.8465 225.241 13.6957V12.777H220.483V10.8986H232.33V12.777ZM229.286 16.1088C229.286 15.6426 228.107 15.4095 226.406 15.4095C224.706 15.4095 223.527 15.6426 223.527 16.1088C223.527 16.5887 224.706 16.808 226.406 16.808C228.107 16.808 229.286 16.5887 229.286 16.1088ZM243.955 6.7168V10.6107H241.611V8.62262H233.535V6.7168H243.955ZM244.696 11.0495V12.9416H232.849V11.0495H244.696ZM244.01 13.6408V18.4259H233.535V13.6408H244.01ZM235.825 16.6161H241.72V15.4507H235.825V16.6161ZM250.453 6.67566V8.12902H253.058V10.2405H245.462V8.12902H248.081V6.67566H250.453ZM257.583 10.9946V13.2432H256.212V18.4259H253.895V6.7168H256.212V10.9946H257.583ZM249.26 10.7204C251.372 10.7204 252.661 12.2971 252.661 14.3675C252.661 16.4516 251.372 18.0146 249.26 18.0146C247.149 18.0146 245.86 16.4516 245.86 14.3675C245.86 12.2971 247.149 10.7204 249.26 10.7204ZM249.26 16.0265C250.014 16.0265 250.453 15.3684 250.453 14.3675C250.453 13.3666 250.014 12.7085 249.26 12.7085C248.506 12.7085 248.067 13.3666 248.067 14.3675C248.067 15.3684 248.506 16.0265 249.26 16.0265ZM269.949 10.9946V13.2432H268.578V18.4259H266.261V6.7168H268.578V10.9946H269.949ZM260.337 15.7797H262.682C263.793 15.7797 264.999 15.5878 265.712 15.2587V17.3291C264.999 17.6855 263.642 17.8775 262.518 17.8775H257.979V6.99102H264.794V9.08879H260.337V15.7797ZM272.923 7.05957L272.292 14.532H270.592L269.961 7.05957H272.923ZM271.442 15.5329C272.279 15.5329 272.896 16.1499 272.896 16.9863C272.896 17.8227 272.279 18.4259 271.442 18.4259C270.606 18.4259 269.989 17.8227 269.989 16.9863C269.989 16.1499 270.606 15.5329 271.442 15.5329Z" fill="#684D3C"/>
<defs>
<clipPath id="clip0_33_1196">
<rect width="260.508" height="142.594" fill="white" transform="translate(70 30.2227)"/>
</clipPath>
</defs>
</svg>
