<svg width="952" height="416" viewBox="0 0 952 416" fill="none" xmlns="http://www.w3.org/2000/svg">
<g clip-path="url(#clip0_28_30)">
<path d="M344.8 111.096L299.237 113.933V52.4243H338.14V65.8794H314.791V99.5629L344.782 97.5858V111.096H344.8ZM329.741 73.5131H346.575V50.3008H362.129V116.057H346.575V86.9682H329.741V73.5131Z" fill="#F6FFFF"/>
<path d="M377.078 66.154C377.078 55.756 385.569 50.3008 395.962 50.3008C406.356 50.3008 414.846 55.756 414.846 66.154V69.2661C414.846 79.664 406.356 84.9728 395.962 84.9728C385.569 84.9728 377.078 79.664 377.078 69.2661V66.154ZM380.042 87.6638H437.902V105.293H395.596V107.837H439.311V116.039H380.024V97.9153H422.33V95.5172H380.024V87.6638H380.042ZM391.296 70.6756C391.296 73.4399 393.345 75.1424 396.108 75.1424C398.872 75.1424 400.994 73.4399 400.994 70.6756V64.6529C400.994 61.8886 398.872 60.1312 396.108 60.1312C393.345 60.1312 391.296 61.9069 391.296 64.6529V70.6756ZM422.348 50.3008H437.92V60.772H445.276V72.8724H437.92V85.8881H422.348V50.3008Z" fill="#F6FFFF"/>
<path d="M446.411 102.254H466.009V76.2774H481.288V102.254H511.499V114.995H446.411V102.254ZM448.534 51.3625H509.376L506.412 100.478H491.132L493.328 63.7559H448.552V51.3625H448.534Z" fill="#F6FFFF"/>
<path d="M524.948 71.7557C534.646 68.9915 538.946 62.987 538.946 53.9254V50.6669H554.573V53.9254C554.573 62.987 558.891 68.9915 568.571 71.7557V84.5701C558.745 82.4466 551.462 78.4924 546.705 71.9022C541.965 78.4924 534.756 82.4466 524.911 84.5701V71.7557H524.948ZM580.264 106.226H589.669V116.057H527.564V106.226H536.768L535.927 98.373H551.133L551.974 106.226H565.058L565.973 98.373H581.179L580.264 106.226ZM528.278 87.1146H588.974V96.9451H528.278V87.1146ZM572.615 50.3008H588.535L588.608 85.3389H572.688L572.615 50.3008Z" fill="#F6FFFF"/>
<path d="M594.994 80.4513H660.082V91.8378H594.994V80.4513ZM608.645 49.9531H646.486C653 49.9531 658.435 55.9759 658.435 63.2618C658.435 70.5477 652.982 76.424 646.486 76.424H608.645C602.057 76.424 596.769 70.5477 596.769 63.2618C596.769 55.9759 602.076 49.9531 608.645 49.9531ZM658.654 116.057H597.464V94.7485H612.817V105.513H658.654V116.057ZM613.018 65.3121H642.021C643.082 65.3121 643.851 64.3235 643.851 63.1885C643.851 62.1268 643.082 61.065 642.021 61.065H613.018C611.957 61.065 611.17 62.1268 611.17 63.1885C611.17 64.3235 611.957 65.3121 613.018 65.3121Z" fill="#F6FFFF"/>
<path d="M367.875 273.857H382.587V277.115H391.151V274.498H404.728V277.115H413.146V273.857H428.004V297.985H405.369V301.518H430.474V311.787H365.387V301.518H390.437V297.985H367.875V273.857ZM367.875 313.636H382.935V317.243H412.853V313.636H427.986V340.034H412.853V338.203L367.857 340.034V313.636H367.875ZM382.587 289.216H391.151V285.884H382.587V289.216ZM382.935 330.185L412.853 329.197V326.359H382.935V330.185ZM404.728 285.884V289.216H413.146V285.884H404.728Z" fill="#F6FFFF"/>
<path d="M437.555 292.822C437.555 282.424 446.045 275.34 456.439 275.34C466.832 275.34 475.396 282.424 475.396 292.822V321.49C475.396 331.888 466.905 338.972 456.439 338.972C445.972 338.972 437.555 331.888 437.555 321.49V292.822ZM451.773 322.332C451.773 324.803 453.749 327 456.585 327C459.421 327 461.471 324.803 461.471 322.332V291.98C461.471 289.637 459.421 287.239 456.585 287.239C453.749 287.239 451.773 289.637 451.773 291.98V322.332ZM482.825 274.278H498.397V298.131H505.753V311.641H498.397V340.016H482.825V274.278Z" fill="#F6FFFF"/>
<path d="M508.315 276.401H546.156V311.787H523.869V323.888L551.737 321.545V334.286L508.297 337.892V299.742H530.786V288.776H508.297V276.401H508.315ZM553.585 274.278H569.157V298.131H576.513V311.641H569.157V340.016H553.585V274.278Z" fill="#F6FFFF"/>
<path d="M579.056 274.278H593.915V301.884L593.201 321.691H579.752L579.038 301.884V274.278H579.056ZM579.77 326.725H593.219V340.034H579.77V326.725Z" fill="#F6FFFF"/>
<path d="M219.475 250.919V207.496H237.042C223.318 203.908 214.699 193.767 214.699 180.037V167.204C214.699 149.795 228.35 138.116 248.661 138.116C260.756 138.116 270.583 142.125 276.584 149.466H290.747V138.116H323.044V222.196H290.747V199.368H275.011C269.613 204.879 261.616 208.155 252.101 208.796V224.979H324.728V250.919H219.475ZM248.899 162.921C247.947 162.921 244.837 163.177 244.837 166.527V180.605C244.837 183.753 247.673 184.101 248.899 184.101C249.869 184.101 253.071 183.845 253.071 180.605V166.527C253.071 163.873 250.912 162.921 248.899 162.921ZM290.747 175.46V173.355H282.623V175.46H290.747Z" fill="#FF8BBA"/>
<path d="M319.366 141.758V218.516H294.389V195.688H273.382C267.93 202.041 258.963 205.226 248.643 205.226C231.955 205.226 218.341 196.714 218.341 180.018V167.186C218.341 150.49 231.955 141.758 248.643 141.758C259.878 141.758 269.412 145.511 274.755 153.108H294.389V141.758H319.366ZM248.881 187.744C253.309 187.744 256.713 185.016 256.713 180.586V166.508C256.713 162.078 253.309 159.241 248.881 159.241C244.453 159.241 241.159 162.078 241.159 166.508V180.586C241.159 185.016 244.453 187.744 248.881 187.744ZM278.963 179.121H294.407V169.694H278.963V179.121ZM248.423 211.139V228.621H321.068V247.239H223.135V211.139H248.442M326.686 134.436H287.07V145.786H278.232C271.479 138.427 261.141 134.436 248.643 134.436C226.136 134.436 211.021 147.598 211.021 167.186V180.018C211.021 189.885 214.901 198.105 221.653 203.816H215.816V254.561H328.406V221.299H326.704V134.436H326.686ZM248.497 166.6C248.606 166.6 248.735 166.563 248.899 166.563C249.119 166.563 249.283 166.582 249.412 166.618V180.384C249.283 180.403 249.119 180.421 248.899 180.421C248.735 180.421 248.606 180.421 248.497 180.403V166.6ZM276.493 203.011H287.088V221.299H255.761V212.091C264.087 210.974 271.223 207.862 276.493 203.011Z" fill="white"/>
<path d="M329.905 250.919V202.883H325.935V177.163H398.305L400.299 162.902H329.338V138.097H434.719L430.181 177.163H437.683V202.883H433.712V250.919H329.924H329.905ZM361.287 225.986L390.418 225.034H361.287V225.986Z" fill="#0AC3FF"/>
<path d="M430.602 141.759L426.412 177.858H401.892L404.508 159.241H332.998V141.759H430.602ZM434.005 180.824V199.222H329.576V180.824H434.005ZM430.035 205.464V247.257H333.566V205.464H430.035ZM357.628 229.757L405.972 228.164V221.354H357.628V229.757ZM438.836 134.436H325.679V166.563H396.091L395.121 173.502H322.275V206.544H326.246V254.58H437.354V206.544H441.325V173.502H434.28L437.866 142.601L438.818 134.436H438.836Z" fill="white"/>
<path d="M499.239 250.919V248.685L495.799 247.221C484.911 242.608 476.64 235.871 470.675 226.7C464.71 235.908 456.457 242.644 445.661 247.221L440.574 249.381V218.846L442.203 217.766C453.127 210.444 456.805 198.49 456.805 170.39V168.028H441.709V141.521H499.257V138.116H551.188V250.919H499.257H499.239ZM488.553 203.908C490.858 210.169 494.317 214.434 499.239 217.748V203.908H488.553ZM499.239 177.163V168.028H484.655V170.39C484.655 172.769 484.673 175.021 484.728 177.181H499.239V177.163Z" fill="#FDD41A"/>
<path d="M547.511 141.759V247.239H527.199V141.759H547.511ZM522.771 141.759V247.239H502.917V200.229H487.034V180.806H502.917V141.74H522.771M495.982 145.145V164.33H480.996V170.353C480.996 198.178 484.509 212.256 497.227 220.768V243.816C485.424 238.818 476.568 231.093 470.676 219.285C464.765 231.093 456.037 238.818 444.234 243.816V220.768C456.952 212.256 460.465 198.178 460.465 170.353V164.33H445.369V145.145H495.982ZM554.83 134.418H495.58V137.823H438.031V171.653H453.127C453.018 197.355 449.687 208.283 440.154 214.672L436.915 216.851V254.855L447.089 250.553C456.86 246.415 464.655 240.612 470.694 232.942C476.732 240.576 484.564 246.397 494.39 250.553L495.598 251.065V254.543H503.814L504.564 254.855V254.543H554.848V134.436L554.83 134.418ZM488.315 171.653H495.58V173.465H488.334C488.334 172.861 488.334 172.257 488.334 171.653H488.315ZM494.372 207.533H495.58V209.309C495.159 208.741 494.756 208.155 494.372 207.533Z" fill="white"/>
<path d="M552.927 249.216V221.445H592.305V206.508H556.898V139.8H660.686V166.655H589.524V179.323H661.821V206.508H625.279V221.445H664.657V249.216H552.927Z" fill="#01D6A9"/>
<path d="M657.027 143.461V162.994H585.864V182.984H658.161V202.846H560.558V143.461H657.027ZM621.619 206.251V225.107H660.998V245.555H556.587V225.107H595.965V206.251H621.619ZM664.346 136.138H553.238V210.169H588.646V217.784H549.268V252.877H668.317V217.784H628.939V210.169H665.481V175.662H593.184V170.316H664.346V136.138Z" fill="white"/>
<path d="M222.219 248.173V210.242H249.356V227.725H321.982V248.173H222.219ZM293.492 219.45V196.622H273.821C268.35 202.773 259.438 206.16 248.66 206.16C229.703 206.16 217.443 195.908 217.443 180.037V167.204C217.443 151.205 229.703 140.862 248.66 140.862C260.463 140.862 269.868 144.889 275.23 152.211H293.473V140.862H320.28V219.45H293.473H293.492ZM248.898 160.175C244.836 160.175 242.091 162.719 242.091 166.527V180.604C242.091 184.339 244.818 186.847 248.898 186.847C252.979 186.847 255.815 184.339 255.815 180.604V166.527C255.815 162.792 252.979 160.175 248.898 160.175ZM293.492 178.206V170.609H279.878V178.206H293.492Z" fill="#FF8BBA"/>
<path d="M319.365 141.759V218.517H294.388V195.689H273.381C267.929 202.041 258.962 205.226 248.642 205.226C231.954 205.226 218.34 196.714 218.34 180.019V167.186C218.34 150.491 231.954 141.759 248.642 141.759C259.877 141.759 269.411 145.511 274.754 153.108H294.388V141.759H319.365ZM248.88 187.744C253.308 187.744 256.712 185.016 256.712 180.586V166.509C256.712 162.079 253.308 159.241 248.88 159.241C244.452 159.241 241.158 162.079 241.158 166.509V180.586C241.158 185.016 244.452 187.744 248.88 187.744ZM278.962 179.122H294.406V169.694H278.962V179.122ZM248.422 211.139V228.622H321.067V247.239H223.134V211.139H248.441M321.195 139.928H292.558V151.278H275.687C270.106 143.955 260.554 139.928 248.66 139.928C229.447 139.928 216.528 150.893 216.528 167.186V180.019C216.528 196.439 229.136 207.057 248.66 207.057C259.511 207.057 268.551 203.67 274.223 197.519H292.577V220.347H321.214V139.928H321.195ZM248.88 185.913C245.312 185.913 242.988 183.826 242.988 180.586V166.509C242.988 163.214 245.293 161.072 248.88 161.072C252.466 161.072 254.882 163.25 254.882 166.509V180.586C254.882 184.522 251.643 185.913 248.88 185.913ZM280.792 171.525H292.577V177.291H280.792V171.525ZM250.252 209.309H221.304V249.07H322.897V226.791H250.271V209.309H250.252Z" fill="#044583"/>
<path d="M332.65 248.173V204.549H430.949V248.173H332.65ZM358.543 228.823L405.057 227.285V222.269H358.543V228.805V228.823ZM328.68 200.137V179.909H434.939V200.137H328.68ZM400.849 178.792L403.465 160.175H332.101V140.862H431.645L427.235 178.792H400.849Z" fill="#0AC3FF"/>
<path d="M430.602 141.759L426.411 177.859H401.892L404.508 159.241H332.998V141.759H430.602ZM434.005 180.824V199.222H329.576V180.824H434.005ZM430.034 205.464V247.258H333.565V205.464H430.034ZM357.628 229.757L405.972 228.164V221.354H357.628V229.757ZM432.669 139.928H331.168V161.072H402.404L400.08 177.602L399.879 178.975H327.765V201.034H435.853V178.975H428.131L428.241 178.06L432.432 141.96L432.669 139.91V139.928ZM431.883 203.634H331.754V249.088H431.883V203.634ZM359.476 223.185H404.16V226.388L359.476 227.853V223.166V223.185Z" fill="#044583"/>
<path d="M526.265 248.173V140.844H548.406V248.155H526.265V248.173ZM501.983 248.173V201.163H486.1V179.909H501.983V140.844H523.666V248.155H501.983V248.173ZM496.859 244.695C485.02 239.679 476.438 232.027 470.656 221.318C464.874 232.064 456.31 239.734 444.562 244.695L443.3 245.226V220.311L443.702 220.036C455.541 212.11 459.53 199.588 459.53 170.39V165.282H444.434V144.267H496.878V165.282H481.891V170.39C481.891 199.588 485.88 212.11 497.719 220.036L498.122 220.311V245.226L496.841 244.695H496.859Z" fill="#FDD41A"/>
<path d="M547.51 141.759V247.239H527.198V141.759H547.51ZM522.77 141.759V247.239H502.916V200.229H487.033V180.806H502.916V141.74H522.77M495.981 145.145V164.33H480.995V170.353C480.995 198.178 484.508 212.256 497.226 220.768V243.816C485.423 238.818 476.567 231.093 470.675 219.286C464.764 231.093 456.036 238.818 444.233 243.816V220.768C456.951 212.256 460.464 198.178 460.464 170.353V164.33H445.368V145.145H495.981ZM549.339 139.91H525.369V249.052H549.339V139.928V139.91ZM524.6 139.91H501.087V178.975H485.204V198.929C483.538 191.753 482.843 182.527 482.843 170.371V166.179H497.829V143.333H443.556V166.179H458.653V170.371C458.653 199.204 454.755 211.542 443.227 219.267L442.422 219.816V246.598L444.965 245.518C456.384 240.686 464.837 233.363 470.693 223.166C476.548 233.308 485.039 240.649 496.53 245.518L499.074 246.598V219.816L498.269 219.267C492.34 215.295 488.424 210.096 486.027 202.059H501.087V249.07H524.6V139.928V139.91Z" fill="#044583"/>
<path d="M555.671 246.47V224.192H595.049V205.336H622.533V224.192H661.911V246.47H555.671ZM559.642 203.78V142.546H657.941V163.909H586.778V182.069H659.075V203.762H559.642V203.78Z" fill="#01D6A9"/>
<path d="M657.026 143.461V162.994H585.863V182.984H658.16V202.846H560.556V143.461H657.026ZM621.618 206.251V225.107H660.996V245.555H556.586V225.107H595.964V206.251H621.618ZM658.855 141.63H558.727V204.677H594.134V223.276H554.756V247.386H662.826V223.276H623.448V204.677H659.99V181.154H587.693V164.824H658.855V141.63Z" fill="#044583"/>
<path d="M675.874 188.44H740.961V197.995H675.874V188.44ZM678.344 160.907H738.473V176.412H693.624V178.756H738.821V185.84H678.344V170.261H723.121V167.992H678.344V160.907ZM678.344 200.815H738.473V216.887H693.624V219.231H739.534V226.663H678.344V210.169H723.121V207.899H678.344V200.815Z" fill="#F6FFFF"/>
</g>
<g clip-path="url(#clip1_28_30)">
<path d="M205.022 114.083C205.022 114.083 177.247 58.9207 133.918 94.381C133.918 94.381 114.154 114.329 136.656 126.469C136.656 126.469 156.011 128.268 149.716 109.812C143.421 91.3562 129.012 88.6583 97.5171 86.4101C66.0218 84.1619 52.0625 129.617 52.0625 129.617" stroke="#FDD41A" stroke-width="6.13147" stroke-linecap="round" stroke-linejoin="round"/>
<path d="M710.76 132.575C708.082 124.113 703.381 117.287 697.536 113.404C703.361 109.52 708.082 102.694 710.76 94.2327C713.437 102.694 718.138 109.52 723.983 113.404C718.158 117.287 713.437 124.113 710.76 132.575Z" fill="white"/>
<path d="M740.381 89.0689C738.419 82.8965 734.986 77.9096 730.734 75.0891C734.986 72.2482 738.419 67.2817 740.381 61.1094C742.343 67.2817 745.777 72.2686 750.028 75.0891C745.777 77.93 742.343 82.8965 740.381 89.0689Z" fill="white"/>
<path d="M697.536 31.6918C696.085 27.1136 693.53 23.4143 690.362 21.3091C693.53 19.204 696.085 15.5047 697.536 10.9265C698.987 15.5047 701.542 19.204 704.71 21.3091C701.542 23.4143 698.987 27.1136 697.536 31.6918Z" fill="white"/>
<path d="M225.821 60.4283C224.37 55.8502 221.815 52.1508 218.647 50.0457C221.815 47.9406 224.37 44.2412 225.821 39.6631C227.272 44.2412 229.827 47.9406 232.995 50.0457C229.827 52.1508 227.272 55.8502 225.821 60.4283Z" fill="white"/>
<path d="M176.709 31.6918C175.258 27.1136 172.703 23.4143 169.535 21.3091C172.703 19.204 175.258 15.5047 176.709 10.9265C178.16 15.5047 180.715 19.204 183.883 21.3091C180.715 23.4143 178.16 27.1136 176.709 31.6918Z" fill="white"/>
<path d="M128.332 170.508C126.165 163.641 122.323 158.082 117.602 154.935C122.343 151.787 126.165 146.228 128.332 139.361C130.498 146.228 134.34 151.787 139.062 154.935C134.32 158.082 130.498 163.641 128.332 170.508Z" fill="white"/>
<path d="M679.08 263.781C679.08 263.781 666.51 305.72 700.56 316.716C734.611 327.712 754.027 320.395 756.112 298.363C758.196 276.33 725.189 277.924 723.083 289.452C720.978 300.979 716.278 306.742 738.289 330.86C760.301 354.977 826.337 328.754 824.253 297.32" stroke="#FDD41A" stroke-width="6.13147" stroke-linecap="round" stroke-linejoin="round"/>
</g>
<path d="M347.769 9.76633V5.75008H331.369V1.76172H352.566V9.76633H347.769ZM354.072 14.6472H344.394V17.2968H352.678V25.8592H347.881V21.2294H331.258V17.2968H339.653V14.6472H329.975V10.6867H354.072V14.6472ZM378.167 1.76172V19.3886H373.454V1.76172H378.167ZM370.693 2.04062V15.5955H355.911V2.04062H370.693ZM360.569 11.6071H366.035V6.02898H360.569V11.6071ZM361.656 17.241V21.3409H378.502V25.5803H356.859V17.241H361.656ZM396.182 10.0173H398.804V7.7582H396.182L395.904 3.6025H398.804V1.76172H403.434V19.4165H398.804V14.173H395.904L396.182 10.0173ZM395.457 8.92961C395.457 13.2527 392.361 16.0696 387.787 16.0696C383.213 16.0696 380.117 13.2527 380.117 8.92961C380.117 4.63445 383.213 1.78961 387.787 1.78961C392.361 1.78961 395.457 4.63445 395.457 8.92961ZM384.775 8.92961C384.775 10.9935 386.002 12.137 387.787 12.137C389.572 12.137 390.8 10.9935 390.8 8.92961C390.8 6.8657 389.572 5.72219 387.787 5.72219C386.002 5.72219 384.775 6.8657 384.775 8.92961ZM387.202 21.3688H403.769V25.5803H382.404V17.241H387.202V21.3688ZM428.031 1.76172V9.68266H423.262V5.63852H406.834V1.76172H428.031ZM429.537 10.5752V14.4241H405.44V10.5752H429.537ZM428.143 15.8465V25.5803H406.834V15.8465H428.143ZM411.492 21.8987H423.485V19.528H411.492V21.8987ZM459.776 1.76172V25.5803H455.062V1.76172H459.776ZM444.938 2.04062C449.428 2.04062 452.413 5.55484 452.413 13.3921C452.413 21.2294 449.428 24.7436 444.938 24.7436C440.448 24.7436 437.436 21.2294 437.436 13.3921C437.436 5.55484 440.448 2.04062 444.938 2.04062ZM444.938 6.36367C443.348 6.36367 442.093 8.065 442.093 13.3921C442.093 18.7471 443.348 20.4205 444.938 20.4205C446.5 20.4205 447.755 18.7471 447.755 13.3921C447.755 8.065 446.5 6.36367 444.938 6.36367ZM475.141 11.1051C472.854 14.452 468.169 16.0696 462.451 16.0696V11.9139C468.001 11.8581 471.85 9.85 471.85 6.64258V6.11266H462.451V2.04062H476.647V5.86164C476.647 6.16844 476.647 6.47523 476.619 6.78203H480.329V1.76172H485.042V18.022H480.329V11.1051H475.141ZM486.102 21.6756L484.485 25.8592L474.109 22.094C471.376 24.4089 467.471 25.5803 463.511 25.5803V21.1736C467.973 21.1736 471.934 19.277 472.826 15.9302L477.54 16.7669C477.345 17.4641 477.094 18.1056 476.787 18.7192L486.102 21.6756ZM510.086 1.76172V25.5803H505.372V1.76172H510.086ZM495.248 2.04062C499.738 2.04062 502.723 5.55484 502.723 13.3921C502.723 21.2294 499.738 24.7436 495.248 24.7436C490.758 24.7436 487.745 21.2294 487.745 13.3921C487.745 5.55484 490.758 2.04062 495.248 2.04062ZM495.248 6.36367C493.658 6.36367 492.403 8.065 492.403 13.3921C492.403 18.7471 493.658 20.4205 495.248 20.4205C496.81 20.4205 498.065 18.7471 498.065 13.3921C498.065 8.065 496.81 6.36367 495.248 6.36367ZM536.225 9.37586V5.63852H519.657V1.76172H540.994V9.37586H536.225ZM542.444 14.0894H532.766V15.958C537.87 16.2648 541.273 17.743 541.273 20.8668C541.273 24.4647 536.81 25.8592 530.395 25.8592C523.981 25.8592 519.518 24.4647 519.518 20.8668C519.518 17.743 522.921 16.2648 528.025 15.958V14.0894H518.347V10.2684H542.444V14.0894ZM536.252 20.8668C536.252 19.9185 533.854 19.4444 530.395 19.4444C526.937 19.4444 524.538 19.9185 524.538 20.8668C524.538 21.843 526.937 22.2892 530.395 22.2892C533.854 22.2892 536.252 21.843 536.252 20.8668ZM566.093 1.76172V9.68266H561.324V5.63852H544.896V1.76172H566.093ZM567.599 10.5752V14.4241H543.502V10.5752H567.599ZM566.205 15.8465V25.5803H544.896V15.8465H566.205ZM549.554 21.8987H561.547V19.528H549.554V21.8987ZM579.311 1.67805V4.63445H584.61V8.92961H569.159V4.63445H574.486V1.67805H579.311ZM593.814 10.4636V15.0377H591.025V25.5803H586.311V1.76172H591.025V10.4636H593.814ZM576.884 9.90578C581.179 9.90578 583.801 13.1132 583.801 17.3247C583.801 21.5641 581.179 24.7436 576.884 24.7436C572.589 24.7436 569.967 21.5641 569.967 17.3247C569.967 13.1132 572.589 9.90578 576.884 9.90578ZM576.884 20.6995C578.418 20.6995 579.311 19.3607 579.311 17.3247C579.311 15.2887 578.418 13.9499 576.884 13.9499C575.35 13.9499 574.458 15.2887 574.458 17.3247C574.458 19.3607 575.35 20.6995 576.884 20.6995ZM618.969 10.4636V15.0377H616.18V25.5803H611.466V1.76172H616.18V10.4636H618.969ZM599.418 20.1974H604.187C606.446 20.1974 608.9 19.807 610.351 19.1376V23.3491C608.9 24.0742 606.139 24.4647 603.852 24.4647H594.62V2.31953H608.482V6.5868H599.418V20.1974ZM625.019 2.45898L623.736 17.6594H620.277L618.994 2.45898H625.019ZM622.007 19.6954C623.708 19.6954 624.963 20.9505 624.963 22.6518C624.963 24.3531 623.708 25.5803 622.007 25.5803C620.305 25.5803 619.05 24.3531 619.05 22.6518C619.05 20.9505 620.305 19.6954 622.007 19.6954Z" fill="#684D3C"/>
<defs>
<clipPath id="clip0_28_30">
<rect width="529.922" height="290.062" fill="white" transform="translate(211.039 49.9531)"/>
</clipPath>
<clipPath id="clip1_28_30">
<rect width="952" height="404.414" fill="white" transform="translate(0 10.9062)"/>
</clipPath>
</defs>
</svg>
