<svg width="36" height="36" viewBox="0 0 36 36" fill="none" xmlns="http://www.w3.org/2000/svg">
<g clip-path="url(#clip0_123_5365)">
<path d="M23.0813 11.4926C23.7604 9.68648 23.4901 7.54837 22.3824 5.9813C21.2747 4.4076 19.356 3.45142 17.4439 3.50455C16.8769 3.52447 16.2967 3.62407 15.8088 3.92287C14.9912 4.42088 14.5626 5.37042 14.2857 6.28675C13.6593 8.35182 13.7648 11.2403 14.1868 13.3585C13.6725 12.1035 12.2615 11.5125 10.9758 11.0875C9.62415 10.636 8.09448 10.2376 6.81536 10.8751C5.92525 11.32 5.32525 12.2031 4.96261 13.1261C4.20437 15.065 4.3758 17.3558 5.41756 19.1553C6.45272 20.9614 8.33844 22.2496 10.389 22.555C9.88789 24.8259 9.96042 27.5882 10.989 29.6666C12.0176 31.7449 14.6285 33.1659 16.7187 32.1898C17.6813 31.7449 18.3934 30.8883 18.9406 29.972C19.6923 28.717 20.2 27.3027 20.4044 25.8485C21.3736 27.1964 22.7384 28.3253 24.2681 28.9428C25.7978 29.5603 27.7231 29.4076 28.8901 28.2323C30.1428 26.9773 30.2154 24.8525 29.4242 23.2589C28.6329 21.6652 27.1428 20.5298 25.5868 19.6931C26.8593 19.713 28.3099 18.5909 29.0417 17.5417C29.8923 16.3266 30.6769 14.9122 30.4725 13.4381C30.2813 12.0703 29.2263 10.9282 27.9736 10.3505C25.9033 9.38768 24.6901 9.85913 23.0813 11.486V11.4926Z" fill="white" stroke="#212128" stroke-width="1.5" stroke-linecap="round" stroke-linejoin="round"/>
</g>
<defs>
<clipPath id="clip0_123_5365">
<rect width="27" height="30" fill="white" transform="translate(4 3)"/>
</clipPath>
</defs>
</svg>
