<?xml version="1.0" encoding="UTF-8"?>
<svg id="_레이어_1" data-name=" 레이어 1" xmlns="http://www.w3.org/2000/svg" xmlns:xlink="http://www.w3.org/1999/xlink" version="1.1" viewBox="0 0 980 928.5">
  <defs>
    <style>
      .cls-1 {
        fill: #294579;
      }

      .cls-1, .cls-2, .cls-3, .cls-4, .cls-5, .cls-6, .cls-7, .cls-8 {
        stroke-width: 0px;
      }

      .cls-9 {
        clip-path: url(#clippath);
      }

      .cls-2 {
        fill: #d0dacf;
      }

      .cls-3, .cls-10, .cls-11 {
        fill: none;
      }

      .cls-4 {
        fill: #658568;
      }

      .cls-5 {
        fill: #000;
      }

      .cls-6 {
        fill: #040000;
      }

      .cls-7 {
        fill: #b12925;
      }

      .cls-10 {
        stroke: #658568;
      }

      .cls-11 {
        stroke: #dddcdc;
      }

      .cls-8 {
        fill: #f8f8f6;
      }
    </style>
    <clipPath id="clippath">
      <rect class="cls-3" width="980" height="928.5" rx="20" ry="20"/>
    </clipPath>
  </defs>
  <rect class="cls-8" width="980" height="928.5" rx="20" ry="20"/>
  <g class="cls-9">
    <g>
      <line class="cls-11" x1="-53.7" y1="54.8" x2="1173.4" y2="54.8"/>
      <line class="cls-11" x1="-53.7" y1="105.1" x2="1173.4" y2="105.1"/>
      <line class="cls-11" x1="-53.7" y1="155.3" x2="1173.4" y2="155.3"/>
      <line class="cls-11" x1="-53.7" y1="205.5" x2="1173.4" y2="205.5"/>
      <line class="cls-11" x1="-53.7" y1="255.8" x2="1173.4" y2="255.8"/>
      <line class="cls-11" x1="-53.7" y1="306" x2="1173.4" y2="306"/>
      <line class="cls-11" x1="-53.7" y1="356.3" x2="1173.4" y2="356.3"/>
      <line class="cls-11" x1="-53.7" y1="406.5" x2="1173.4" y2="406.5"/>
      <line class="cls-11" x1="-53.7" y1="456.8" x2="1173.4" y2="456.8"/>
      <line class="cls-11" x1="-53.7" y1="507" x2="1173.4" y2="507"/>
      <line class="cls-11" x1="-53.7" y1="557.3" x2="1173.4" y2="557.3"/>
      <line class="cls-11" x1="-53.7" y1="607.5" x2="1173.4" y2="607.5"/>
      <line class="cls-11" x1="-53.7" y1="657.8" x2="1173.4" y2="657.8"/>
      <line class="cls-11" x1="-53.7" y1="708" x2="1173.4" y2="708"/>
      <line class="cls-11" x1="-53.7" y1="758.2" x2="1173.4" y2="758.2"/>
      <line class="cls-11" x1="-53.7" y1="808.5" x2="1173.4" y2="808.5"/>
      <line class="cls-11" x1="-53.7" y1="858.7" x2="1173.4" y2="858.7"/>
      <line class="cls-11" x1="-53.7" y1="909" x2="1173.4" y2="909"/>
      <line class="cls-11" x1="89.7" y1="-33" x2="89.7" y2="964.5"/>
    </g>
  </g>
  <path class="cls-4" d="M703.3,124.9l-9.4,3.9-6.3-1.9,7-14.8c0,.4.4.6.8.7.5,0,1-.4,1-.9s-.4-1-.9-1-.5,0-.6.2l-10-3.5-.3,1,6.9,2.4-15.1,10s-7.1-1.4-11.4,0c0,0-5.7-2.3-8.7-2.7-3-.4-6.7-.7-6.7,0s7.9,5.7,14.2,7.1c0,0,3.6,4.9,7.7,6l2.6,16.2-6.3-2.2-.3,1,10.1,3.5c0,.4.4.7.8.7s1-.4,1-.9-.4-1-.9-1-.5,0-.6.2l-.5-.2,6.8-14.4,5.5,1.8,4.9,10.4c.2.4.8.4,1,0l3.5-8.3-2.8-2.3,3.6.5.7-1.8-2.4-2,3.4-.3,2.8-6.8c.2-.4-.3-.9-.7-.7"/>
  <path class="cls-4" d="M758.6,105.2l-9.4,3.9-6.3-1.9,7-14.8c0,.4.4.6.8.7.5,0,1-.4,1-.9s-.4-1-.9-1-.5,0-.6.2l-10-3.5-.3,1,6.9,2.4-15.1,10s-7.1-1.4-11.4,0c0,0-5.7-2.3-8.7-2.7-3-.4-6.7-.7-6.7,0s7.9,5.7,14.2,7.1c0,0,3.6,4.9,7.7,6l2.6,16.2-6.3-2.2-.3,1,10.1,3.5c0,.4.4.7.8.7s1-.4,1-.9-.4-1-.9-1-.5,0-.6.2l-.5-.2,6.8-14.4,5.5,1.8,4.9,10.4c.2.4.8.4,1,0l3.5-8.3-2.8-2.3,3.6.5.7-1.8-2.4-2,3.4-.3,2.8-6.8c.2-.4-.3-.9-.7-.7"/>
  <path class="cls-4" d="M814.3,83.3l-9.4,3.9-6.3-1.9,7-14.8c0,.4.4.6.8.7.5,0,1-.4,1-.9s-.4-1-.9-1-.5,0-.6.2l-10-3.5-.3,1,6.9,2.4-15.1,10s-7.1-1.4-11.4,0c0,0-5.7-2.3-8.7-2.7-3-.4-6.7-.7-6.7,0s7.9,5.7,14.2,7.1c0,0,3.6,4.9,7.7,6l2.6,16.2-6.3-2.2-.3,1,10.1,3.5c0,.4.4.7.8.7s1-.4,1-.9-.4-1-.9-1-.5,0-.6.2l-.5-.2,6.8-14.4,5.5,1.8,4.9,10.4c.2.4.8.4,1,0l3.5-8.3-2.8-2.3,3.6.5.7-1.8-2.4-2,3.4-.3,2.8-6.8c.2-.4-.3-.9-.7-.7"/>
  <rect class="cls-3" x="554" y="30" width="426" height="246"/>
  <polygon class="cls-2" points="831.6 101.3 980 140.1 980 131.8 831.8 100.4 831.6 101.3"/>
  <polygon class="cls-2" points="770.3 122.1 980 184.9 980 173.4 770.6 121.2 770.3 122.1"/>
  <polygon class="cls-2" points="722.7 145.2 980 221.9 980 212.2 723 144.3 722.7 145.2"/>
  <path class="cls-4" d="M593.4,198h6.9c2.2,0,4.3-.1,6.2-.2,1.9-.1,3.7-.2,5.2-.3s2.9-.3,3.9-.4c1.1-.2,1.6-.7,1.6-1.7v-3.5c0-1.1-.6-1.6-1.7-1.5-1.1.1-2.2.3-3.6.4s-2.7.2-4.1.3-2.9.1-4.3.2h-4.2c-1.3,0-2.2-.6-2.2-2v-7.8c1.8,0,3.8-.2,6-.4s4.7-.4,7.4-.8c1.1-.1,1.6-.7,1.5-1.6l-.3-3.8c0-1.1-.6-1.6-1.6-1.5-2.8.3-5.7.6-8.6.8-2.9.2-5.6.3-8.1.3s-4.6-.2-6.3-.5-3-.9-4-1.6c-1-.7-1.7-1.6-2-2.7-.4-1.1-.6-2.4-.6-3.9s.2-2.8.7-3.9c.5-1.1,1.2-2,2.4-2.7,1.1-.7,2.6-1.2,4.4-1.5,1.8-.3,4.2-.5,7-.5s1.7,0,2.6,0h3.1c1.1,0,2.4,0,3.8.2,1.4,0,3.1.2,4.9.3,1.1,0,1.6-.4,1.6-1.5v-3.7c0-1.1-.5-1.6-1.6-1.6-2-.1-3.7-.2-5.1-.3-1.4,0-2.7-.1-3.7-.2-1.1,0-2-.1-2.9-.1h-2.6c-4.1,0-7.5.3-10.3,1s-5.1,1.7-6.8,3-3,2.9-3.7,4.9c-.8,1.9-1.1,4.1-1.1,6.6s.3,4.2.9,6c.6,1.8,1.5,3.3,2.9,4.7s3,2.4,5.1,3.2,4.6,1.4,7.7,1.6v7.4c0,.6,0,1.2.4,1.7.3.5.7.8,1.1,1-1.8,0-3.6-.1-5.4-.2-1.9,0-3.7-.2-5.5-.3s-3.5-.2-5-.3-2.9-.3-4.1-.4c-1.1-.1-1.7.4-1.7,1.5v3.5c0,1,.5,1.5,1.6,1.7,4.7.8,12.1,1.1,22.1,1.1M560.8,148.6c0-1.1-.5-1.6-1.6-1.6h-3.8c-1,0-1.6.5-1.6,1.6v52.7c0,1,.5,1.6,1.6,1.6h3.8c1,0,1.6-.5,1.6-1.6v-52.7ZM535.2,168.5c-1.1,0-1.6.5-1.6,1.6v3.8c0,1.1.5,1.6,1.6,1.6h5.5c.5,0,.9-.1,1.3-.3s.7-.5.9-.8v27c0,1,.5,1.6,1.6,1.6h3.8c1,0,1.6-.5,1.6-1.6v-52c0-1-.5-1.6-1.6-1.6h-3.8c-1.1,0-1.6.5-1.6,1.6v17.6c0,.6,0,1.1-.4,1.3-.3.3-.8.4-1.5.4h-5.7v-.2h0ZM520.2,158v16.8c0,3.8-.8,6.8-2.3,8.9-1.5,2.1-3.5,3.4-5.9,3.7-.5,0-.9.2-1.2.4-.3.2-.4.6-.4,1.1v3.8c0,1.2.5,1.7,1.6,1.6,2.8-.3,5.2-1.3,7.2-2.9,2.1-1.6,3.5-3.8,4.4-6.5.9,2.7,2.4,4.8,4.4,6.5,2.1,1.6,4.5,2.6,7.3,2.9,1,.1,1.6-.4,1.6-1.6v-3.8c0-.5,0-.9-.4-1.1-.3-.2-.7-.4-1.2-.4-2.4-.3-4.4-1.6-6-3.7-1.5-2.1-2.3-5.1-2.3-8.9v-16.8h7.9c1,0,1.6-.5,1.6-1.6v-3.8c0-1.1-.5-1.6-1.6-1.6h-22.7c-1.1,0-1.6.5-1.6,1.6v3.8c0,1,.5,1.6,1.6,1.6h8ZM452.8,202.9c1.9-.4,3.7-1,5.4-1.8,1.7-.8,3.2-1.8,4.6-3.1,1.4-1.2,2.4-2.6,3.2-4.1.8,1.5,1.8,2.9,3.2,4.1s2.9,2.2,4.6,3,3.5,1.4,5.4,1.8c1.9.4,3.8.6,5.6.5,1,0,1.6-.6,1.6-1.6v-3.6c0-1-.5-1.4-1.6-1.4-2.1,0-4-.3-5.9-.9-1.8-.6-3.5-1.4-4.8-2.4-1.4-1-2.4-2.2-3.2-3.5-.8-1.3-1.2-2.8-1.2-4.3v-2.4c0-1.1-.5-1.7-1.6-1.7h-4c-1.1,0-1.6.6-1.6,1.7v2.4c0,1.5-.4,2.9-1.2,4.3-.8,1.3-1.9,2.5-3.3,3.5s-3,1.8-4.9,2.4c-1.8.6-3.8.9-5.9.9s-1.6.5-1.6,1.4v3.6c0,1,.5,1.5,1.6,1.6,1.8.1,3.7,0,5.6-.4M478.2,179.8c0,1.1.5,1.7,1.6,1.7h4c1.1,0,1.6-.6,1.6-1.7v-31c0-1.1-.5-1.7-1.6-1.7h-4c-1.1,0-1.6.6-1.6,1.7v31ZM471.4,173.5l-.9-3.5c-.3-1.1-.9-1.4-1.8-1.1-1.5.5-3.1.9-4.9,1.2s-3.2.5-4.4.5c-3.6,0-6.2-.6-7.9-1.9-1.7-1.3-2.5-3.2-2.5-5.9,0-5.2,3.7-7.8,11.2-7.8s2.6,0,3.9.1,2.6.2,3.8.4c1,.1,1.6-.4,1.6-1.5v-3.4c0-1-.5-1.5-1.4-1.7-1.4-.2-2.9-.4-4.3-.4s-2.8-.1-4.1-.1c-11.9,0-17.8,4.8-17.8,14.4s1.4,8.5,4.3,10.8c2.9,2.4,7.2,3.5,13.1,3.5s3.4-.2,5.4-.5,3.9-.8,5.7-1.4c1-.3,1.4-.9,1.1-2M433.2,148.6c0-1.1-.5-1.6-1.6-1.6h-3.8c-1,0-1.6.5-1.6,1.6v52.7c0,1,.5,1.6,1.6,1.6h3.8c1,0,1.6-.5,1.6-1.6v-52.7ZM410.6,168.9c-1,0-1.6.5-1.6,1.6v3.8c0,1.1.5,1.6,1.6,1.6h2.5c.5,0,.9-.1,1.3-.3s.7-.5.9-.8v26.6c0,1,.5,1.6,1.6,1.6h3.8c1.1,0,1.6-.5,1.6-1.6v-52c0-1-.5-1.6-1.6-1.6h-3.8c-1,0-1.6.5-1.6,1.6v17.9c0,.6-.1,1.1-.4,1.3-.3.3-.8.4-1.5.4h-2.8ZM391.7,186.7c-1.2-1-1.7-2.6-1.7-4.7s.6-3.8,1.9-4.8,3.1-1.4,5.5-1.4h8.4c1.1,0,.8-.1,1-.3.1-.2.2-.6.2-1.1v-3.4c0-.5,0-.9-.2-1.1-.1-.2-.5-.3-1-.3h-2.6c1.3-1,2.4-2.3,3.3-3.9.9-1.6,1.3-3.4,1.3-5.4,0-6.1-4.1-9.2-12.3-9.2s-3,0-4.6.2c-1.6.1-3.1.3-4.5.6-1,.2-1.4.7-1.4,1.6v4c0,1.1.5,1.5,1.6,1.3.9-.2,1.7-.3,2.4-.4.7-.1,1.3-.2,1.9-.3s1.1-.1,1.6-.2h1.6c2.1,0,3.6.4,4.5,1.2s1.3,2.3,1.3,4.4-.4,3.3-1.2,4.2c-.8.9-2.2,1.4-4.1,1.4-4.1,0-7.1,1-8.9,3s-2.7,5.2-2.7,9.6,1.2,7.6,3.5,9.9c2.3,2.2,5.8,3.4,10.5,3.4s3.5-.2,5.3-.6c1.8-.4,3.6-.9,5.3-1.6,1-.4,1.4-1.1,1.1-2l-1.1-3.8c-.3-.7-.6-1.1-1.1-1.1s-.4,0-.7.2c-3,1.3-5.7,2-8.3,2s-4.7-.5-5.8-1.5M329.7,191.7v3.5c0,1,.5,1.5,1.6,1.7,4.7.8,12.1,1.1,22.1,1.1s4.7,0,6.9,0,4.3-.1,6.2-.2c1.9-.1,3.7-.2,5.2-.3,1.6-.1,2.9-.3,3.9-.4,1-.2,1.6-.7,1.6-1.7v-3.5c0-1.1-.6-1.6-1.7-1.5-2.5.3-5.7.6-9.5.8-3.9.2-8.1.3-12.6.3s-8.4,0-12-.3-6.9-.5-10-.8c-1.1-.1-1.7.4-1.7,1.5M346.1,157.5c3.2-.2,6.6-.3,10.3-.3s5.5.7,6.9,2.1c1.4,1.4,2.1,3.8,2.1,7.2h-7.8c-2.7,0-5.3.1-7.7.2-2.5.1-4.8.2-7,.3s-4.1.3-5.7.4c-1,.1-1.6.7-1.6,1.6v3.8c0,1.1.5,1.6,1.6,1.5,1.8-.2,3.8-.3,6-.5,2.2-.1,4.6-.3,7.1-.4,2.5-.1,5-.2,7.5-.2h7.4c0,1.1-.2,2.2-.3,3.2-.1,1-.3,2-.5,2.9s.2,1.4,1.1,1.6l4.3.6c1,.1,1.5-.2,1.7-1.1.5-2.2.8-4.5.9-6.9.2-2.4.3-5.1.3-8.2,0-5-1.3-8.7-3.8-11.3s-6.2-3.9-11.1-3.9h-6c-1.8,0-3.6.1-5.3.2-1.7,0-3.4.2-5,.3s-3.3.3-5.1.5c-1,.1-1.6.7-1.6,1.6v3.8c0,1.1.5,1.6,1.6,1.5,3.2-.4,6.4-.7,9.6-.9M294.4,168.3c1.8-1,3.3-2.5,4.3-4.5s1.5-4.3,1.5-7-.7-5-2.2-6.3c-1.4-1.3-3.8-2-7-2h-25.6c-1.9,0-2.9,1-2.9,3v17.9c0,1.8.6,3.1,1.7,4.1,1.2,1,2.7,1.4,4.8,1.4h30.6c1,0,1.6-.5,1.6-1.6v-3.5c0-1.1-.5-1.6-1.6-1.6h-5.2,0ZM291.1,187.4c1.5,0,2.9-.1,4.4-.2,1.4,0,2.8-.2,4.2-.3,1.3-.1,2.5-.3,3.6-.4,1-.2,1.6-.8,1.6-1.8v-3.5c0-1.1-.6-1.6-1.7-1.4-2.5.3-5.7.6-9.5.8-3.9.2-8.1.3-12.6.3s-8.4,0-12-.3c-3.6-.2-6.9-.5-10-.8-1.1-.1-1.7.4-1.7,1.4v3.5c0,1.1.5,1.6,1.6,1.8,1.1.1,2.5.3,4.1.4,1.6.1,3.3.2,5.1.3,1.8.1,3.7.2,5.5.3s3.7,0,5.5,0c-.5.2-.9.6-1.2,1-.3.5-.4,1-.4,1.7v8.7c0,1.1.5,1.7,1.6,1.7h4c1.1,0,1.6-.6,1.6-1.7v-9.5c0-1.3.7-2,2.2-2h4.2M272.2,168.3c-.8,0-1.4-.2-1.8-.5-.4-.4-.7-.8-.7-1.5v-9.6c0-1,.5-1.5,1.5-1.5h16.6c2,0,3.3.3,4.1,1,.7.7,1.1,2,1.1,3.8s-.6,4.5-1.7,6c-1.2,1.5-2.7,2.3-4.7,2.3h-14.4ZM214.7,158.9h23.1v2.3c-.3,1.6-1.2,2.4-3,2.4h-17c-1,0-1.7-.2-2.1-.6s-.7-1-.8-1.8l-.2-2.3h0ZM246.3,198.5v-4.2c0-1.7-.2-3.4-.6-4.7s-1.1-2.3-2-3.1-2.2-1.4-3.7-1.7-3.4-.5-5.6-.5h-7.3c-2.2,0-4.4.1-6.5.2-2.1.1-4.1.2-6,.3-2,.1-4,.3-6.2.5-1,.1-1.6.7-1.6,1.6v3.5c0,1,.5,1.6,1.6,1.5,8.7-.8,17.2-1.1,25.5-1.1s3.2.4,4.1,1.1c.8.7,1.2,2.1,1.2,4.1v2.6c0,.9-.1,1.8-.3,2.7,0,.5,0,.9.3,1.2s.7.5,1.3.5h3.7c1.1,0,1.7-.5,1.8-1.6.1-1,.2-2,.3-3M237.5,170.1c2.2,0,3.9-.5,5.1-1.6,1.2-1.1,1.9-2.5,2-4.4l.9-14c0-1.1-.5-1.6-1.6-1.6h-4c-1,0-1.6.5-1.6,1.6v2.3h-24l-.2-2.3c0-1.1-.6-1.6-1.6-1.6h-4c-1.2,0-1.7.5-1.6,1.6l.9,14c.1,1.9.8,3.4,2,4.4,1.2,1.1,2.9,1.6,5.1,1.6h7.7v3.3c0,.8.3,1.4.9,1.7h-5c-1.8,0-3.5,0-5.3-.2s-3.4-.1-4.9-.2c-1.6,0-3-.1-4.2-.2-1.1,0-1.7.4-1.7,1.5v3.4c0,1,.5,1.6,1.6,1.7,1.9.2,4.6.4,8.2.4s8.2.1,14,.2h12.8c2,0,3.7-.1,5.4-.2,1.6,0,3-.2,4.2-.3,1-.1,1.6-.7,1.6-1.7v-3.4c0-1.1-.6-1.6-1.7-1.5-1.1.1-2.4.2-3.9.3-1.4,0-2.9.1-4.4.2h-8.6c-1,0-1.6-.6-1.6-1.6v-3.3h7.6,0ZM152.1,189.1c0,1.3-.1,2.4-.1,3.3,0,3.7,1.2,6.5,3.5,8.4,2.3,2,5.6,3,10,3s10.1-.1,14.6-.3,8.3-.5,11.4-.8c1-.1,1.6-.7,1.5-1.6l-.3-3.5c0-1.1-.6-1.6-1.6-1.5-1.8.2-3.7.3-5.6.4-1.9.1-3.8.2-5.9.3-2.1.1-4.3.2-6.6.2h-7.7c-4,0-6-1.7-6-5.1s0-1.8.1-3c0-1.2.2-2.3.3-3.3,0-.5,0-.9-.3-1.2s-.7-.5-1.2-.5h-3.8c-1.1,0-1.8.5-1.9,1.6-.1,1-.2,2.1-.3,3.3M183,166.1c-.2,1.7-.6,3.3-1,4.9v.4h-10.6c-5.8,0-10.4-.1-13.8-.2-3.5-.1-6.2-.2-8.2-.4-1.1,0-1.7.4-1.7,1.5v3.4c0,1.1.5,1.7,1.6,1.7s2.6.2,4.3.3c1.6,0,3.3.2,5.1.2s3.7.1,5.6.1h5.6c-.5.3-.8.8-.8,1.6v8.9c0,1.1.5,1.7,1.6,1.7h4c1.1,0,1.6-.6,1.6-1.7v-8.9c0-1,.5-1.6,1.6-1.6h7.6c1.4,0,2.9,0,4.3-.2,1.4,0,2.7-.2,3.9-.3,1-.1,1.6-.7,1.6-1.7v-3.4c0-1.1-.6-1.6-1.7-1.5-.6,0-1.2.1-1.9.2s-1.4,0-2.2.1c.4-1.5.7-3.2.9-5.1.2-1.9.3-4,.3-6.2,0-7.5-4.5-11.3-13.5-11.3s-8,0-11.8.3c-3.8.2-7.4.5-10.8.8-1.1.1-1.6.7-1.6,1.6v3.5c0,1.1.5,1.6,1.6,1.5,2-.2,3.8-.4,5.6-.5s3.5-.3,5.2-.3,3.5-.1,5.3-.2h5.7c2,0,4.3.5,5.4,1.5,1.1,1,1.7,2.7,1.7,4.9s-.1,2.9-.3,4.6"/>
  <path class="cls-6" d="M317.8,106.8v2.4c0,.7.4,1.1,1.1,1.2,1.3.2,3.3.3,5.8.3h22.9c1.2,0,2.2,0,3-.2.8,0,1.1-.5,1.1-1.2v-2.4c0-.8-.4-1.2-1.2-1.1-1.7.2-3.8.3-6.4.3h-21.7c-1.3,0-2.4,0-3.5-.2-.8,0-1.2.3-1.2,1.1M321,116.2v1.9c0,2.6.8,4.6,2.5,6,1.6,1.4,4,2.1,7.1,2.1s7.2,0,10.4-.2c3.2-.2,5.9-.3,8.1-.6.8,0,1.1-.5,1.1-1.1l-.2-2.5c0-.8-.5-1.2-1.2-1.1-1.3,0-2.6.2-4,.3-1.3,0-2.7.2-4.2.2s-3,0-4.7.2h-5.5c-2.8,0-4.3-1.2-4.3-3.6s0-1.1,0-1.6.1-1,.2-1.5c0-.4,0-.7-.2-.9s-.5-.3-.9-.3h-2.7c-.8,0-1.2.4-1.3,1.2,0,.4-.2,1-.2,1.5M321.8,89.5c0,.6,0,1.3-.1,2v3.5c0,2.6.8,4.6,2.3,6,1.6,1.4,3.8,2.1,6.8,2.1s6.8,0,9.8-.2c3,0,5.6-.3,7.9-.6.7,0,1.1-.5,1.1-1.1l-.2-2.5c0-.8-.5-1.2-1.2-1.1-1.3,0-2.6.2-3.9.3-1.3,0-2.6.2-4,.2s-2.8,0-4.3.2h-4.9c-2.9,0-4.3-1.2-4.3-3.6s0-.9,0-1.5v-1.8c0-.6,0-1.3.1-1.9,0-.6,0-1.2.1-1.7,0-.4,0-.7-.2-.9-.2-.2-.5-.3-.9-.3h-2.7c-.8,0-1.3.4-1.3,1.2s0,1.1-.1,1.7M287.4,98.4h16.6l-.2,5c0,1.2-.8,1.8-2.1,1.8h-12.1c-1.3,0-2-.6-2-1.8l-.2-5h0ZM295.6,122h5c1.6,0,3.1,0,4.5-.2,1.4,0,2.6-.2,3.7-.2s2-.2,2.8-.3c.8,0,1.1-.5,1.1-1.2v-2.5c0-.8-.4-1.2-1.2-1.1-.8,0-1.6.2-2.5.3-.9,0-1.9.2-2.9.2h-6.1c-.9,0-1.6-.5-1.6-1.4v-5.7h5c1.7,0,3-.4,4-1.2,1-.8,1.5-2,1.6-3.5l.7-16.2c0-.8-.3-1.2-1.2-1.2h-2.8c-.7,0-1.1.4-1.2,1.2v4.4h-17.1l-.2-4.4c0-.8-.5-1.2-1.2-1.2h-2.8c-.8,0-1.2.4-1.2,1.2l.7,16.2c0,1.5.6,2.7,1.6,3.5s2.3,1.2,4,1.2h5v5.3c0,.4.1.8.3,1.2.2.3.5.6.8.7h-3.9c-1.3,0-2.6,0-3.9-.2-1.3,0-2.5-.2-3.6-.2s-2.1-.2-2.9-.3c-.8,0-1.2.3-1.2,1.1v2.5c0,.7.4,1.1,1.1,1.2,3.4.5,8.7.8,15.8.8M236,95.6c.6,1.7,1,4.6,1,8.5s-.3,6.8-1,8.6c-.6,1.8-1.7,2.6-3.1,2.6s-2.4-.9-3.1-2.6c-.6-1.8-.9-4.6-.9-8.6s.3-6.8,1-8.5c.6-1.8,1.7-2.6,3-2.6s2.4.9,3.1,2.6M259.7,86.8c0-.8-.4-1.1-1.1-1.1h-2.7c-.8,0-1.1.4-1.1,1.1v37.6c0,.8.4,1.1,1.1,1.1h2.7c.7,0,1.1-.4,1.1-1.1v-37.6ZM245.3,106.2c.3,0,.6,0,.9-.2.3,0,.5-.3.6-.6v19c0,.8.4,1.1,1.1,1.1h2.7c.7,0,1.1-.4,1.1-1.1v-37.2c0-.7-.4-1.1-1.1-1.1h-2.7c-.8,0-1.1.4-1.1,1.1v12.8c0,.4,0,.8-.3.9-.2.2-.5.3-1.1.3h-3.7c-.2-4.6-1.1-7.9-2.5-10-1.5-2.1-3.6-3.2-6.4-3.2s-5.2,1.3-6.7,3.9-2.2,6.7-2.2,12.2.7,9.7,2.2,12.3c1.5,2.6,3.7,3.9,6.7,3.9s5-1.1,6.5-3.4,2.3-5.8,2.5-10.7h3.5ZM188.9,116.2v1.9c0,2.6.8,4.6,2.5,6,1.6,1.4,4,2.1,7.1,2.1s7.2,0,10.4-.2,5.9-.3,8.1-.6c.7,0,1.1-.5,1.1-1.1l-.2-2.5c0-.8-.5-1.2-1.2-1.1-1.3,0-2.6.2-4,.3-1.3,0-2.7.2-4.2.2s-3,0-4.7.2h-5.5c-2.9,0-4.3-1.2-4.3-3.6s0-1.1,0-1.6.1-1,.2-1.5c0-.4,0-.7-.2-.9-.2-.2-.5-.3-.9-.3h-2.7c-.8,0-1.2.4-1.4,1.2,0,.4-.2,1-.2,1.5M189.7,89.5c0,.6,0,1.3-.1,2v3.5c0,2.6.8,4.6,2.3,6,1.6,1.4,3.8,2.1,6.8,2.1s6.8,0,9.8-.2c3,0,5.6-.3,7.9-.6.7,0,1.1-.5,1.1-1.1l-.2-2.5c0-.8-.5-1.2-1.2-1.1-1.3,0-2.6.2-3.9.3-1.3,0-2.6.2-4,.2s-2.8,0-4.3.2h-4.9c-2.9,0-4.3-1.2-4.3-3.6s0-.9,0-1.5v-1.8c0-.6,0-1.3.1-1.9,0-.6,0-1.2.1-1.7,0-.4,0-.7-.2-.9-.2-.2-.5-.3-.9-.3h-2.7c-.8,0-1.3.4-1.4,1.2,0,.5,0,1.1-.1,1.7M201.1,111.5v5c0,.8.4,1.2,1.2,1.2h2.8c.8,0,1.2-.4,1.2-1.2v-5c0-.8.4-1.1,1.1-1.1h8.5c1,0,2,0,2.8-.2.7,0,1.1-.5,1.1-1.2v-2.4c0-.8-.4-1.2-1.2-1.1-.8,0-1.8.2-2.9.2h-12.9c-4.1,0-7.4,0-9.9-.2-2.5,0-4.4-.2-5.8-.3-.8,0-1.2.3-1.2,1.1v2.4c0,.8.4,1.2,1.1,1.2s1.9,0,3,.2c1.2,0,2.4,0,3.7.2h8c-.4.2-.5.6-.5,1.1M149.9,117.8c0,2.6.9,4.7,2.6,6.2,1.7,1.5,4.2,2.2,7.3,2.2s6.6,0,9.4-.2c2.7-.2,5.2-.3,7.5-.6.8,0,1.1-.5,1.1-1.1l-.2-2.5c0-.8-.5-1.2-1.2-1.1-1.3,0-2.6.2-3.8.3-1.2,0-2.5.2-3.8.2s-2.7,0-4.2.2h-5.1c-1.9,0-2.5-.4-3.3-1.1s-1.2-1.7-1.2-3.1v-1.9c0-.5.1-1.1.2-1.6,0-.4,0-.7-.2-.9-.2-.2-.5-.3-.9-.3h-2.7c-.7,0-1.2.4-1.3,1.2-.2,1.1-.3,2.5-.3,4.1M160,87.1c-.6,0-.9-.3-.9-.8v-1.5c0-.8-.4-1.1-1.1-1.1h-2.9c-.8,0-1.1.4-1.1,1.1v1.1c0,.6.2,1,.7,1.2h-8.3c-.8,0-1.1.4-1.1,1.1v2.5c0,.8.4,1.1,1.1,1.1h20.1c.8,0,1.1-.4,1.1-1.1v-2.5c0-.7-.4-1.1-1.1-1.1,0,0-6.5,0-6.5,0ZM176.6,102.6c0-1,.5-1.4,1.6-1.4h2.9c.8,0,1.1-.4,1.1-1.1v-2.5c0-.8-.4-1.1-1.1-1.1h-2.7c-.9,0-1.5.3-1.8.9v-10.5c0-.8-.4-1.2-1.2-1.2h-2.8c-.8,0-1.2.4-1.2,1.2v25.3c0,.8.4,1.2,1.2,1.2h2.8c.8,0,1.2-.4,1.2-1.2v-9.5h0ZM156.3,109.1c6.5,0,9.8-2.5,9.8-7.4s-3.3-7.4-9.8-7.4-9.8,2.5-9.8,7.4,3.3,7.4,9.8,7.4M152.8,103.8c-.7-.5-1.1-1.2-1.1-2.1s.4-1.7,1.1-2.1c.7-.5,1.9-.7,3.6-.7s2.8.2,3.6.7c.7.5,1.1,1.2,1.1,2.1s-.4,1.7-1.1,2.1c-.7.5-1.9.7-3.6.7s-2.8-.2-3.6-.7"/>
  <line class="cls-10" x1="144" y1="323" x2="378" y2="323"/>
  <line class="cls-10" x1="144" y1="487.4" x2="432" y2="487.4"/>
  <line class="cls-10" x1="144" y1="622.3" x2="288" y2="622.3"/>
  <line class="cls-10" x1="144" y1="749.5" x2="300" y2="749.5"/>
  <path class="cls-6" d="M658.6,809.4h16.2v-1.3h-16.2v1.3ZM671.2,815.7h-9v-3.3h9v3.3ZM660.6,817h12.2v-5.9h-12.2v5.9ZM666.7,801c2.8,0,4.6.8,4.6,2.1s-1.8,2.1-4.6,2.1-4.6-.8-4.6-2.1,1.8-2.1,4.6-2.1M666.7,799.7c-3.9,0-6.3,1.3-6.3,3.4s2.4,3.4,6.3,3.4,6.3-1.3,6.3-3.4-2.4-3.4-6.3-3.4M655.1,803.3v-4h-1.6v8.9h1.6v-3.6h2.7v-1.4h-2.7ZM653.2,808.7h-1.6v1.6h-3.7v1.2h9v-1.2h-3.7v-1.6ZM652.4,812.2c-1.9,0-3.3,1-3.3,2.5s1.4,2.5,3.3,2.5,3.3-1,3.3-2.5-1.4-2.5-3.3-2.5M652.4,816.1c-1.1,0-1.9-.6-1.9-1.4s.8-1.4,1.9-1.4,1.9.5,1.9,1.4-.8,1.4-1.9,1.4M644.7,810.2h-1.6v6.6h.9c1.2,0,2.9,0,4.6-.7l-.3-1.3c-1.2.4-2.6.6-3.6.6v-5.2h0ZM650.8,804.5c0-2.4-2-4.1-4.6-4.1s-4.6,1.7-4.6,4.1,2,4.1,4.6,4.1,4.6-1.7,4.6-4.1M643.1,804.5c0-1.6,1.3-2.8,3-2.8s3,1.2,3,2.8-1.3,2.8-3,2.8-3-1.2-3-2.8M632.2,817.3h1.6v-17.9h-1.6v17.9ZM625.6,802.5h4.2v-1.4h-10v1.4h4.2v2.3c0,3.1-2.2,6.5-4.8,7.7l1,1.3c2-1,3.8-3.3,4.6-5.9.9,2.5,2.6,4.5,4.7,5.5l.9-1.3c-2.6-1.1-4.8-4.2-4.8-7.3v-2.3h0ZM618.5,806.7h-2.9v-7.4h-1.6v17.9h1.6v-9.2h2.9v-1.4h0ZM607.8,799.5h-1.6v2.7h-4.5v1.3h10.6v-1.3h-4.4v-2.7h0ZM607,805c-2.5,0-4.3,1.7-4.3,4.1s1.8,4.1,4.3,4.1,4.4-1.7,4.4-4.1-1.8-4.1-4.4-4.1M607,811.9c-1.6,0-2.8-1.2-2.8-2.8s1.2-2.8,2.8-2.8,2.8,1.2,2.8,2.8-1.2,2.8-2.8,2.8M593.2,810.6c-3.7,0-6,1.2-6,3.3s2.3,3.3,6,3.3,6-1.2,6-3.3-2.3-3.3-6-3.3M593.2,816c-2.7,0-4.3-.8-4.3-2.1s1.6-2.1,4.3-2.1,4.3.8,4.3,2.1-1.6,2.1-4.3,2.1M595,808.1c-2.6-.9-4.4-3.2-4.4-5.5v-.6h3.9v-1.3h-9.6v1.3h4v.6c0,2.6-1.8,5-4.5,6l.9,1.3c2.1-.8,3.8-2.5,4.5-4.6.8,1.8,2.3,3.3,4.3,4l.8-1.3h0ZM594,804v1.3h3.5v4.7h1.7v-10.7h-1.7v4.6h-3.5ZM571.8,815.5v-4.4h-1.6v5.8h12.1v-1.3h-10.5ZM576.8,805c0-2.6-2-4.4-4.7-4.4s-4.7,1.8-4.7,4.4,2,4.4,4.7,4.4,4.7-1.8,4.7-4.4M569,805c0-1.7,1.3-3,3.1-3s3.1,1.2,3.1,3-1.3,3-3.1,3-3.1-1.2-3.1-3M581.7,799.3h-1.6v13.1h1.6v-13.1ZM558.9,804.8v-5.4h-1.6v13.1h1.6v-6.3h2.7v-1.4h-2.7ZM549.4,811.1h-1.6v5.8h12v-1.3h-10.3v-4.4h-.1ZM545.7,800.7v1.3h6.6c-.3,3.2-3.1,5.7-7.3,7l.7,1.3c5.2-1.6,8.4-5,8.4-9.7h-8.4ZM540.7,817.3h1.6v-17.9h-1.6v17.9ZM528.6,801.3v1.3h6.7c-.3,4.3-2.7,7.7-7.6,10l.9,1.3c6-2.9,8.3-7.5,8.3-12.7h-8.4,0ZM515.3,801.5c1.8,0,3.1,1.1,3.1,2.8s-1.3,2.8-3.1,2.8-3.1-1.1-3.1-2.8,1.3-2.8,3.1-2.8M515.3,800.2c-2.7,0-4.7,1.7-4.7,4.1s2,4.1,4.7,4.1,4.7-1.7,4.7-4.1-2-4.1-4.7-4.1M515,813.3h8.3v2.4h-8.3v-2.4ZM513.3,809.8v7.2h11.6v-7.2h-1.6v2.2h-8.3v-2.2h-1.7ZM523.3,809h1.6v-9.6h-1.6v9.6ZM509.5,806.6h-2.9v-7.3h-1.6v17.9h1.6v-9.3h2.9v-1.4h0ZM493.7,801.2v1.4h6.6c-.4,4.2-2.8,7.7-7.4,10l.9,1.3c5.8-2.9,8.1-7.5,8.1-12.6h-8.2ZM487,809.6h-16.2v1.4h7.3v6.3h1.6v-6.3h7.3v-1.4h0ZM478.9,807.9c3.7,0,6.3-1.5,6.3-3.9s-2.5-3.9-6.3-3.9-6.3,1.5-6.3,3.9,2.5,3.9,6.3,3.9M478.9,801.4c2.7,0,4.6,1,4.6,2.6s-1.9,2.6-4.6,2.6-4.6-1-4.6-2.6,1.9-2.6,4.6-2.6M462.3,810.3c-3.6,0-5.9,1.3-5.9,3.5s2.3,3.5,5.9,3.5,5.9-1.3,5.9-3.5-2.3-3.5-5.9-3.5M462.3,815.9c-2.6,0-4.3-.8-4.3-2.2s1.7-2.2,4.3-2.2,4.3.8,4.3,2.2-1.7,2.2-4.3,2.2M466.5,804v2.4h-4.7v1.3h4.7v2.4h1.7v-10.7h-1.7v3.3h-4.1c.1-.6.2-1.3.2-1.9h-8.1v1.3h6.3c-.3,3.1-3,5.5-7.2,6.8l.7,1.3c3.9-1.1,6.6-3.2,7.7-6.1h4.5ZM431.4,809.8h16.3v-1.3h-16.3v1.3ZM435.1,811.6h-1.6v5.2h12.4v-1.3h-10.8v-3.9ZM445.8,804.7h-10.6v-4.7h-1.6v6.1h12.2v-1.3h0ZM427,817.3h1.6v-18h-1.6v18ZM420.7,808.4h3.9v-1.3h-7.5v-4.7h7.5v-1.4h-9.1v7.4h3.7v3.6h-5l.2,1.4c3.4,0,7.7,0,11.6-.7v-1.2c-1.7.2-3.5.3-5.2.4v-3.5h-.1ZM401.7,801.5c1.8,0,3.1,1.1,3.1,2.8s-1.3,2.8-3.1,2.8-3.1-1.1-3.1-2.8,1.3-2.8,3.1-2.8M401.7,800.2c-2.7,0-4.7,1.7-4.7,4.1s2,4.1,4.7,4.1,4.7-1.7,4.7-4.1-2-4.1-4.7-4.1M401.4,813.3h8.3v2.4h-8.3v-2.4ZM399.7,809.8v7.2h11.6v-7.2h-1.6v2.2h-8.3v-2.2h-1.7ZM409.7,809h1.6v-9.6h-1.6v9.6ZM393.1,804.8v-5.5h-1.6v13.3h1.6v-6.4h2.7v-1.4h-2.7ZM383.6,811.3h-1.6v5.6h11.9v-1.3h-10.3v-4.2h0ZM389.6,808.3c-2.6-.9-4.4-3.2-4.4-5.7v-2.3h-1.6v2.2c0,2.8-1.7,5.2-4.5,6.2l.9,1.3c2.1-.8,3.7-2.4,4.5-4.6.8,1.9,2.4,3.4,4.4,4.1l.8-1.3h0ZM370.9,817.3h1.6v-17.9h-1.6v17.9ZM367.3,806.3h-2.3c-.2-3.4-1.6-5.5-3.8-5.5s-3.8,2.4-3.8,6.2,1.5,6.3,3.8,6.3,3.7-2.2,3.8-5.7h2.3v8.7h1.6v-16.7h-1.6v6.6h0ZM361.2,811.8c-1.4,0-2.3-1.8-2.3-4.8s.9-4.7,2.3-4.7,2.3,1.8,2.3,4.7-.9,4.8-2.3,4.8M353.7,804.8v-5.4h-1.6v13.1h1.6v-6.3h2.7v-1.4h-2.7ZM344.2,811.1h-1.6v5.8h12v-1.3h-10.3v-4.4h-.1ZM340.5,800.7v1.3h6.6c-.3,3.2-3.1,5.7-7.3,7l.7,1.3c5.2-1.6,8.4-5,8.4-9.7h-8.4ZM335.5,817.3h1.6v-17.9h-1.6v17.9ZM323.4,801.3v1.3h6.7c-.3,4.3-2.7,7.7-7.6,10l.9,1.3c6-2.9,8.3-7.5,8.3-12.7h-8.4.1ZM312.9,818.3c1.9-3,3-6.2,3-10.2s-1.1-7.2-3-10.2l-1.1.5c1.7,2.8,2.6,6.2,2.6,9.6s-.9,6.8-2.6,9.6l1.1.5v.2h0ZM310.9,809.7h-16.3v1.3h7.3v6.2h1.6v-6.2h7.4v-1.3ZM308.8,800.3h-12.1v7h12.1v-7ZM307.2,806h-8.9v-4.4h8.9v4.4ZM286.2,808.6v-2.1h5.2v-6.7h-1.6v2h-8.7v-2h-1.6v6.7h5.2v2.1h-7.3v1.3h16.2v-1.3h-7.4ZM281,803.1h8.7v2.1h-8.7v-2.1ZM279,813h10.8v4.3h1.6v-5.6h-12.4v1.3ZM275.2,818.3l1.1-.5c-1.7-2.8-2.6-6.2-2.6-9.6s.9-6.8,2.6-9.6l-1.1-.5c-1.9,3-3,6.2-3,10.2s1.1,7.2,3,10.2M267.1,810.2h1.6v-10.9h-1.6v10.9ZM256.8,812.4h10.4v4.8h1.6v-6.1h-12v1.3ZM265,808.1c-2.6-.9-4.5-3.1-4.5-5.5v-.7h4.1v-1.3h-9.8v1.3h4.1v.7c0,2.5-1.8,4.9-4.5,5.8l.9,1.3c2.1-.8,3.8-2.4,4.5-4.4.8,1.9,2.5,3.4,4.5,4.1l.8-1.3h0ZM250.4,799.3v7.3h-2.4v-6.8h-1.5v16.7h1.5v-8.5h2.4v9.3h1.6v-18h-1.6ZM242,802.8h3.3v-1.3h-8.3v1.3h3.5v1.4c0,3.6-1.3,6.7-3.9,8.1l1,1.2c1.9-1.1,3.1-3,3.7-5.5.6,2.1,1.9,3.9,3.6,4.8l1-1.3c-2.5-1.3-3.8-4.2-3.8-7.5v-1.4.2h-.1ZM228.4,806.9c.5-2.2.5-3.9.5-5.3v-1.3h-12.1v1.3h10.5c0,1.4,0,3-.5,5.3h-12.1v1.3h16.3v-1.3h-2.6,0ZM216.7,817h12.2v-6.4h-12.2v6.4ZM218.3,812h9v3.7h-9v-3.7ZM202.2,815.5v-4.3h-1.7v5.6h12v-1.3h-10.3ZM210.4,807.8v4.8h1.7v-13.2h-1.7v2.8h-4.6c-.8-1-2.1-1.7-3.7-1.7-2.6,0-4.6,1.9-4.6,4.5s2,4.5,4.6,4.5,2.8-.6,3.7-1.7h4.6ZM210.4,803.5v3h-3.9c.2-.5.2-1,.2-1.5s0-1-.2-1.5h3.9ZM199.1,805c0-1.8,1.3-3.1,3.1-3.1s3,1.3,3,3.1-1.3,3.1-3,3.1-3.1-1.3-3.1-3.1M193,799.3v4.7h-3.5v1.3h3.5v4.7h1.6v-10.7h-1.6ZM182.6,812.4h10.3v4.9h1.6v-6.2h-12v1.3h0ZM190.4,808.1c-2.6-.9-4.4-3.2-4.4-5.5v-.7h3.9v-1.3h-9.6v1.3h4v.7c0,2.5-1.9,4.9-4.5,5.9l.9,1.3c2.1-.8,3.7-2.4,4.5-4.5.8,1.9,2.3,3.3,4.3,4.1l.8-1.3h.1ZM170.8,807.7v-3.4h-1.6v3.4h-6.6v1.3h16.1v-1.3h-7.9ZM170.5,810.7c-3.8,0-6.2,1.2-6.2,3.3s2.4,3.3,6.2,3.3,6.3-1.2,6.3-3.3-2.4-3.3-6.3-3.3M170.5,816c-2.8,0-4.6-.8-4.6-2s1.8-2,4.6-2,4.6.8,4.6,2-1.8,2-4.6,2M175,801.8c0,1.4,0,2.7-.5,4.6l1.6.2c.5-1.8.5-3.3.5-4.7v-1.5h-12.2v1.3h10.6v.2h0ZM161.8,806.5h-3v-7.2h-1.6v17.9h1.6v-9.3h3v-1.4ZM147.5,807.3h6.3v-1.3h-6.3v-3.7h6.7v-1.3h-8.4v12h1.4c3.4,0,5.7,0,8.5-.6l-.2-1.3c-2.6.4-4.9.6-8.1.6v-4.3h.1Z"/>
  <path class="cls-6" d="M673.7,778.2h16.2v-1.4h-16.2v1.4ZM681.8,779.8c-3.8,0-6.1,1.2-6.1,3.2s2.3,3.2,6.1,3.2,6.1-1.2,6.1-3.2-2.3-3.2-6.1-3.2M681.8,785c-2.8,0-4.5-.7-4.5-2s1.7-2,4.5-2,4.5.7,4.5,2-1.7,2-4.5,2M688,773.8h-10.7v-3.5h10.5v-1.3h-12.2v6.1h12.3v-1.3h.1ZM664.8,768.3v4.4h-4.1v-3.5h-1.6v2.7h-4.8v-2.7h-1.6v8.2h8.1v-3.4h4.1v4.1h1.7v-9.8h-1.8ZM659,776.1h-4.8v-2.8h4.8v2.8ZM664.8,781.2h-8.2v-2.2h-1.6v7h11.5v-7h-1.6v2.2h-.1ZM664.8,784.7h-8.2v-2.2h8.2v2.2ZM648,775.9c.5-2.2.5-3.9.5-5.3v-1.3h-12.1v1.3h10.5c0,1.4,0,3-.5,5.3h-12.1v1.3h16.3v-1.3h-2.6ZM636.3,786h12.2v-6.4h-12.2v6.4ZM637.9,781h9v3.7h-9v-3.7ZM621.8,784.5v-4.3h-1.7v5.6h12v-1.3h-10.3ZM630,776.8v4.8h1.7v-13.2h-1.7v2.8h-4.6c-.8-1-2.1-1.7-3.7-1.7-2.6,0-4.6,1.9-4.6,4.5s2,4.5,4.6,4.5,2.8-.6,3.7-1.7h4.6ZM630,772.5v3h-3.9c.2-.5.2-1,.2-1.5s0-1-.2-1.5h3.9ZM618.7,774c0-1.8,1.3-3.1,3.1-3.1s3,1.3,3,3.1-1.3,3.1-3,3.1-3.1-1.3-3.1-3.1M604.3,784.5v-4.4h-1.6v5.8h12.1v-1.3h-10.5ZM609.2,774c0-2.6-2-4.4-4.7-4.4s-4.7,1.8-4.7,4.4,2,4.4,4.7,4.4,4.7-1.8,4.7-4.4M601.5,774c0-1.7,1.3-3,3.1-3s3.1,1.2,3.1,3-1.3,3-3.1,3-3.1-1.2-3.1-3M614.2,768.3h-1.6v13.1h1.6v-13.1ZM595.8,776.2c.4-2.3.4-4,.4-5.5v-1.4h-12.1v1.3h10.5c0,1.6,0,3.3-.5,5.6h-12.1v1.3h7.4v4.3h1.6v-4.3h7.3v-1.3h-2.5ZM585.7,780.3h-1.6v5.6h12.5v-1.3h-10.9v-4.3ZM560,778.8h16.3v-1.3h-16.3v1.3ZM563.8,780.6h-1.6v5.2h12.4v-1.3h-10.8v-3.9h0ZM574.4,773.7h-10.6v-4.7h-1.6v6.1h12.2v-1.3h0ZM551.6,782.6v-3.8h-1.6v3.8h-7.3v1.3h16.3v-1.3h-7.4ZM550.3,776.1c-1.6.4-3.1.5-4.6.5v-5.2h4.4v-1.3h-6v7.9h1c1.8,0,3.4,0,5.4-.5l-.2-1.3h0ZM557.7,776.6h-4.8v-5.3h4.6v-1.3h-6.2v8h6.5v-1.3h0ZM533.8,768.3v4.4h-4.1v-3.5h-1.6v2.7h-4.8v-2.7h-1.6v8.2h8.1v-3.4h4.1v4.1h1.7v-9.8h-1.8ZM528,776.1h-4.8v-2.8h4.8v2.8ZM533.8,781.2h-8.2v-2.2h-1.6v7h11.5v-7h-1.6v2.2h-.1ZM533.8,784.7h-8.2v-2.2h8.2v2.2ZM517,775.9c.5-2.2.5-3.9.5-5.3v-1.3h-12.1v1.3h10.5c0,1.4,0,3-.5,5.3h-12.1v1.3h16.3v-1.3h-2.6ZM505.3,786h12.2v-6.4h-12.2v6.4ZM506.9,781h9v3.7h-9v-3.7h0ZM490.8,784.5v-4.3h-1.7v5.6h12v-1.3h-10.3ZM499,776.8v4.8h1.7v-13.2h-1.7v2.8h-4.6c-.8-1-2.1-1.7-3.7-1.7-2.6,0-4.6,1.9-4.6,4.5s2,4.5,4.6,4.5,2.8-.6,3.7-1.7h4.6ZM499,772.5v3h-3.9c.2-.5.2-1,.2-1.5s0-1-.2-1.5h3.9ZM487.7,774c0-1.8,1.3-3.1,3.1-3.1s3,1.3,3,3.1-1.3,3.1-3,3.1-3.1-1.3-3.1-3.1M472.6,784.5v-3.9h-1.6v5.2h12.7v-1.3h-11.1ZM473.6,781.3h1.6v-3.5c1.6,0,3.3-.3,4.9-.5v-1.2c-3.9.5-8.4.5-11.7.5l.2,1.4h5v3.5-.2ZM474.2,775.3c2.6,0,4.4-1.2,4.4-3.1s-1.8-3.1-4.4-3.1-4.4,1.2-4.4,3.1,1.8,3.1,4.4,3.1M474.2,770.3c1.7,0,2.9.8,2.9,1.9s-1.2,1.9-2.9,1.9-2.9-.8-2.9-1.9,1.2-1.9,2.9-1.9M477.9,778.9v1.2h3.6v1.8h1.6v-13.7h-1.6v10.6h-3.6ZM467.3,778.7h-16.3v1.3h7.3v6.2h1.6v-6.2h7.4v-1.3ZM465.2,769.3h-12.1v7h12.1v-7ZM463.6,775h-8.9v-4.4h8.9v4.4ZM442,776.7v-3.4h-1.6v3.4h-6.6v1.3h16.1v-1.3h-7.9ZM441.7,779.7c-3.8,0-6.2,1.2-6.2,3.3s2.4,3.3,6.2,3.3,6.3-1.2,6.3-3.3-2.4-3.3-6.3-3.3M441.7,785c-2.8,0-4.6-.8-4.6-2s1.8-2,4.6-2,4.6.8,4.6,2-1.8,2-4.6,2M446.2,770.8c0,1.4,0,2.7-.5,4.6l1.6.2c.5-1.8.5-3.3.5-4.7v-1.5h-12.2v1.3h10.6v.2h0ZM425.3,786.3h1.6v-17.9h-1.6v17.9ZM421.8,775.3h-2.3c-.2-3.4-1.6-5.5-3.8-5.5s-3.8,2.4-3.8,6.2,1.5,6.3,3.8,6.3,3.7-2.2,3.8-5.7h2.3v8.7h1.6v-16.7h-1.6v6.6h0ZM415.7,780.8c-1.4,0-2.3-1.8-2.3-4.8s.9-4.7,2.3-4.7,2.3,1.8,2.3,4.7-.9,4.8-2.3,4.8M408.2,773.8v-5.4h-1.6v13.1h1.6v-6.3h2.7v-1.4h-2.7ZM398.6,780.1h-1.6v5.8h12v-1.3h-10.3v-4.4h-.1ZM395,769.7v1.3h6.6c-.3,3.2-3.1,5.7-7.3,7l.7,1.3c5.2-1.6,8.4-5,8.4-9.7h-8.4ZM389.9,786.3h1.6v-17.9h-1.6v17.9ZM377.9,770.3v1.3h6.7c-.3,4.3-2.7,7.7-7.6,10l.9,1.3c6-2.9,8.3-7.5,8.3-12.7h-8.4.1ZM371.1,779h-16.3v1.3h7.3v6h1.6v-6h7.4v-1.3ZM369.1,769h-1.6v2.5h-8.9v-2.5h-1.6v7.8h12.2v-7.8h-.1ZM367.4,775.5h-8.9v-2.6h8.9v2.6ZM342.2,784.7v-2h10v-4.3h-11.6v1.3h10v1.8h-10v4.5h12.2v-1.3h-10.6ZM347.1,773c0-2.4-2-4-4.6-4s-4.6,1.6-4.6,4,1.9,4,4.6,4,4.6-1.6,4.6-4M339.5,773c0-1.6,1.3-2.7,3-2.7s3,1.1,3,2.7-1.3,2.6-3,2.6-3-1.1-3-2.6M352.2,768.3h-1.6v9.2h1.6v-9.2ZM315.4,778.8h16.3v-1.3h-16.3v1.3ZM319.2,780.6h-1.6v5.2h12.4v-1.3h-10.8v-3.9ZM329.8,773.7h-10.6v-4.7h-1.6v6.1h12.2v-1.3h0ZM307,782.6v-3.8h-1.6v3.8h-7.3v1.3h16.3v-1.3h-7.4ZM305.7,776.1c-1.6.4-3.1.5-4.6.5v-5.2h4.4v-1.3h-6v7.9h1c1.8,0,3.4,0,5.4-.5l-.2-1.3h0ZM313.1,776.6h-4.8v-5.3h4.6v-1.3h-6.2v8h6.5v-1.3h-.1ZM292.3,779h-16.3v1.3h7.3v6h1.6v-6h7.4v-1.3ZM290.3,769h-1.6v2.5h-8.9v-2.5h-1.6v7.8h12.2v-7.8h-.1ZM288.6,775.5h-8.9v-2.6h8.9v2.6ZM263.6,784.5v-4.2h-1.7v5.5h12v-1.3h-10.3ZM269.2,777.5c-2.6-.9-4.4-3.2-4.4-5.5v-.9h3.9v-1.3h-9.6v1.3h4v.9c0,2.5-1.9,4.9-4.5,5.9l.9,1.3c2.1-.8,3.7-2.4,4.5-4.5.8,1.8,2.3,3.3,4.3,4.1l.8-1.3h.1ZM268.2,773.3v1.3h3.6v6.9h1.7v-13.1h-1.7v4.9h-3.6ZM237,782.4c3.2,0,7.6,0,11.6-.8v-1.2c-4.1.6-8.6.6-11.8.6l.2,1.4ZM249.6,786.3h1.6v-18h-1.6v18ZM242.5,771c1.9,0,3.2,1.1,3.2,2.8s-1.3,2.8-3.2,2.8-3.2-1.2-3.2-2.8,1.3-2.8,3.2-2.8M242.5,769.6c-2.8,0-4.8,1.7-4.8,4.2s2,4.2,4.8,4.2,4.8-1.7,4.8-4.2-2-4.2-4.8-4.2M233.2,773.8v-5.4h-1.6v13.1h1.6v-6.3h2.7v-1.4h-2.7ZM223.6,780.1h-1.6v5.8h12v-1.3h-10.3v-4.4h0ZM220,769.7v1.3h6.6c-.3,3.2-3.1,5.7-7.3,7l.7,1.3c5.2-1.6,8.4-5,8.4-9.7h-8.4ZM214.9,786.3h1.6v-17.9h-1.6v17.9ZM202.9,770.3v1.3h6.7c-.3,4.3-2.7,7.7-7.6,10l.9,1.3c6-2.9,8.3-7.5,8.3-12.7h-8.4.1ZM196.1,778.7h-16.3v1.3h7.3v6.2h1.6v-6.2h7.4v-1.3ZM194,769.3h-12.1v7h12.1v-7ZM192.4,775h-8.9v-4.4h8.9v4.4ZM171.4,777.6v-2.1h5.2v-6.7h-1.6v2h-8.7v-2h-1.6v6.7h5.2v2.1h-7.3v1.3h16.2v-1.3h-7.4,0ZM166.2,772.1h8.7v2.1h-8.7v-2.1ZM164.3,782h10.8v4.3h1.6v-5.6h-12.4v1.3h0ZM158.8,776.2c.4-2.3.4-4,.4-5.5v-1.4h-12.1v1.3h10.5c0,1.6,0,3.3-.5,5.6h-12.1v1.3h7.4v4.3h1.6v-4.3h7.3v-1.3h-2.5,0ZM148.7,780.3h-1.6v5.6h12.5v-1.3h-10.9v-4.3Z"/>
  <path class="cls-4" d="M292.5,715.8c-1.3-.9-3.4-1.4-6.2-1.4s-4.8.5-6.2,1.4c-1.3.9-2,2.3-2,4.2s.7,3.3,2,4.2,3.4,1.4,6.2,1.4,4.8-.5,6.2-1.4c1.3-.9,2-2.3,2-4.2s-.7-3.3-2-4.2M292.2,731.7c0-.4,0-.6.3-.8.2-.2.5-.2.8-.3h1.9c.5,0,.8-.3.8-.8v-1.8c0-.3,0-.5-.2-.6s-.4-.2-.6,0c-.4,0-.9,0-1.5.2h-12.4c-1.6,0-2.9-.2-4-.3-.3,0-.5,0-.6.2-.1,0-.2.3-.2.6v1.8c0,.5.3.7.8.8.5,0,1,0,1.6.2h1.8c-.2,0-.4.3-.5.5s-.2.5-.2.8v2.8c0,.6.3.8.8.8h2c.5,0,.8-.3.8-.8v-2.9c0-.7.4-1.1,1.1-1.1h4.8c-.2,0-.4.3-.5.5s-.2.5-.2.8v2.7c0,.6.3.8.8.8h2c.5,0,.8-.3.8-.8v-3.2h-.2,0ZM289.8,718.4c.7.3,1,.9,1,1.7s-.3,1.4-1,1.7-1.9.5-3.5.5-2.8-.2-3.5-.5-1-.9-1-1.7.3-1.4,1-1.7,1.9-.5,3.5-.5,2.8.2,3.5.5M271.5,727.5c0-.4.1-.7.4-1s.6-.4,1-.4h.9c.5,0,.8-.3.8-.8v-1.9c0-.5-.3-.8-.8-.8h-.8c-.3,0-.7,0-.9.2-.3,0-.5.3-.6.5v-8.4c0-.5-.3-.8-.8-.8h-2c-.5,0-.8.3-.8.8v20.8c0,.6.3.8.8.8h2c.5,0,.8-.3.8-.8v-8.2h0ZM260.5,730.4c.3.5.7.9,1.2,1.3.5.4,1,.7,1.5.9.6.3,1.2.4,1.8.5.5,0,.8-.2.8-.7v-1.9c0-.5-.3-.7-.8-.8-.5,0-.9-.3-1.4-.6-.4-.3-.8-.7-1.1-1.2-.3-.5-.6-1-.7-1.6-.2-.6-.3-1.2-.3-1.9v-8c0-.6-.3-.9-.8-.9h-2c-.5,0-.8.3-.8.9v8c0,.7,0,1.3-.3,1.9-.2.6-.4,1.1-.7,1.6-.3.5-.7.9-1.1,1.2s-.9.5-1.4.6c-.5,0-.8.3-.8.8v1.9c0,.2,0,.4.2.6.1,0,.3.2.6,0,.6,0,1.2-.2,1.8-.5.6-.2,1.1-.6,1.5-.9.5-.4.9-.8,1.2-1.3.3-.5.6-1,.8-1.6.2.6.4,1.1.8,1.6M233.4,733.6c-.6,0-1.1-.2-1.5-.3s-.7-.3-.8-.5c-.2-.2-.2-.5-.2-.8s0-.6.2-.8.4-.4.8-.5c.4,0,.9-.2,1.5-.3h4.6c.6,0,1.1.2,1.5.3s.6.3.8.5.2.5.2.8,0,.6-.2.8-.4.4-.8.5-.9.2-1.5.3h-4.6M240.1,725.5c0,.6.3.8.8.8h2c.5,0,.8-.3.8-.8v-10.5c0-.5-.3-.8-.8-.8h-2c-.5,0-.8.3-.8.8v2.2c0,.8-.4,1.2-1.3,1.2h-1.2c-.5,0-.8.3-.8.8v1.8c0,.5.3.8.8.8h1.1c.7,0,1.2-.2,1.4-.7v4.4ZM226.3,714.7c-.5,0-.8.3-.8.8v1.7c0,.5.3.8.8.8h3.2v.4c0,1.2-.3,2.1-.9,2.8-.6.7-1.4,1-2.4,1s-.8.2-.8.7v1.9c0,.5.3.8.8.8,1.2,0,2.3-.3,3.2-.8,1-.5,1.6-1.4,2-2.4.2.5.4,1,.8,1.4.3.4.7.7,1.2,1s.9.5,1.5.6c.5,0,1.1.2,1.7.2s.8-.3.8-.8v-1.9c0-.5-.3-.7-.8-.7-1,0-1.8-.3-2.4-1-.6-.7-.9-1.6-.9-2.8v-.4h3.2c.5,0,.8-.3.8-.8v-1.7c0-.6-.3-.8-.8-.8h-10.2ZM229.3,735.7c1.4.8,3.5,1.2,6.5,1.2,5.7,0,8.5-1.6,8.5-4.9s-2.8-4.9-8.5-4.9-5,.4-6.5,1.2c-1.4.8-2.1,2-2.1,3.7s.7,2.9,2.1,3.7M218.1,736.8c1.6,0,3-.2,4.3-.3.5,0,.8-.3.8-.8v-1.8c-.1-.2-.2-.4-.3-.6-.1-.2-.3-.2-.6-.2-1.3,0-2.8.2-4.4.3h-5c-1.7,0-2.8-.7-2.8-2.1s0-.6,0-.9,0-.6.1-1c0-.3,0-.5-.2-.6s-.4-.2-.6-.2h-2c-.3,0-.5,0-.6.2-.1,0-.2.3-.2.6s0,.6-.1,1v1.5c0,1.6.5,2.8,1.6,3.7,1,.9,2.5,1.3,4.4,1.3h5.7M208.5,718.5c.4-.5,1-.8,1.7-.8s1.3.3,1.7.8.6,1.2.6,2.2-.2,1.7-.6,2.2c-.4.5-1,.8-1.7.8s-1.3-.2-1.7-.8c-.4-.5-.6-1.2-.6-2.2s.2-1.7.6-2.2M205.8,716.1c-1,1.1-1.5,2.6-1.5,4.6s.1,1.8.4,2.6c.3.8.7,1.4,1.2,2,.5.5,1.1.9,1.9,1.2.7.3,1.5.4,2.4.4,1.8,0,3.3-.5,4.3-1.6s1.6-2.6,1.6-4.6-.5-3.5-1.5-4.6-2.5-1.6-4.3-1.6-3.3.5-4.3,1.6M218.8,729c0,.6.3.8.8.8h2c.5,0,.8-.3.8-.8v-14c0-.5-.3-.8-.8-.8h-2c-.5,0-.8.3-.8.8v14ZM188,718.4h8.3v.5c0,.2-.1.4-.2.5h-7.8s-.2-.2-.2-.5v-.5h-.1ZM197.2,722.1c.9,0,1.5-.2,1.9-.5s.6-.9.7-1.7l.4-4.4c0-.5-.2-.8-.8-.8h-2.6c-.1,0-.2.3-.2.5v.4h-8.8v-.4c0-.2-.1-.4-.2-.5h-2.6c-.6,0-.8.3-.8.8l.4,4.4c0,.8.3,1.4.7,1.7s1.1.5,1.9.5h10.1,0ZM200.1,732.9c.1,0,.2-.3.2-.4v-1.3c0-.2,0-.3-.2-.4-.1,0-.3-.2-.5-.2h-.6c.5-.2.8-.4,1.1-.7s.4-.8.4-1.2-.2-1-.7-1.3c-.4-.3-1-.5-1.8-.5h-4.1v-.3c0-.4.3-.6.8-.6h6.4c.3,0,.5,0,.6-.2.1,0,.2-.3.2-.5v-1.3c0-.5-.3-.8-.8-.7h-14.1c-1.6,0-2.9,0-4-.2-.5,0-.8.2-.8.7v1.3c0,.2,0,.4.2.5.1,0,.3.2.6.2,1,0,2.2,0,3.5.2h4.2c-.3.2-.5.4-.5.8v.3h-2.7c-.9,0-1.7,0-2.5.2-.4,0-.6.2-.6.6v1.5c0,.4.2.6.6.6.7,0,1.6,0,2.6-.2h8.2c.6,0,.9.2.9.5s-.3.5-.9.5h-7.5c-1,0-1.8.3-2.5.5-.6.2-1.1.6-1.4,1-.3.4-.5,1-.5,1.6s.1,1.2.4,1.6c.3.4.8.8,1.5,1s1.7.4,2.9.5h4.5c1.8,0,1.1,0,1.7,0h3.8c.6,0,1.1,0,1.6-.2.4,0,.6-.3.6-.6v-1.5c-.2-.4-.4-.6-.8-.5-.4,0-.9.2-1.5.2h-10.1c-.4,0-.7,0-.8-.2-.1,0-.2-.2-.2-.3s0-.2.2-.3c.1,0,.3-.2.6-.2h11.2c.3,0,.4,0,.5-.2"/>
  <path class="cls-4" d="M263.8,610h4.7c.7,0,1.3,0,1.9-.2.5,0,.8-.3.8-.8v-1.8c-.1-.2-.2-.5-.3-.6-.1-.2-.3-.2-.6-.2-1.3,0-2.8.2-4.3.3h-4.6c-1.6,0-2.8-.7-2.8-2.1s0-.6,0-.9,0-.6.1-1c0-.3,0-.5-.2-.6s-.4-.2-.6-.2h-2c-.3,0-.5,0-.6.2-.1,0-.2.3-.2.6s0,.6-.1,1v1.5c0,1.6.5,2.8,1.6,3.7,1,.9,2.5,1.3,4.4,1.3h2.9M270.5,597.7c0-.4.1-.7.4-1s.6-.4,1-.4h.9c.5,0,.8-.3.8-.8v-1.8c0-.5-.3-.8-.8-.8h-.8c-.3,0-.7,0-.9.2-.3,0-.5.3-.6.5v-5.6c0-.6-.3-.8-.8-.8h-2c-.5,0-.8.3-.8.8v14c0,.6.3.8.8.8h2c.6,0,.8-.3.8-.8v-4.3h0ZM263.9,597.6c.1-.6.2-1.1.3-1.7,0-.6.2-1.2.2-1.8v-1.6c0-1.7-.4-2.9-1.1-3.6s-2-1.1-3.6-1.1h-2.8c-1,0-2.1.2-3.2.3-.5,0-.8.3-.8.8v1.8c0,.3,0,.5.2.6.1,0,.3.2.6.2.8,0,1.7-.2,2.6-.3h2.8c1,0,1.1,0,1.3.4.2.2.4.7.4,1.4v1.3c0,.5-.1,1-.2,1.6,0,.5-.2,1.1-.3,1.6-.1.5-.2,1-.4,1.5v.6c.1,0,.3.2.6.2h2c.5,0,.9-.2,1-.7.1-.4.2-.9.3-1.5M246.1,608.8c0,.6.3.8.8.8h2c.6,0,.8-.3.8-.8v-20.8c0-.6-.3-.8-.8-.8h-2c-.5,0-.8.3-.8.8v20.8ZM238.9,606c.1.2.3.2.6.2h2c.3,0,.5,0,.6-.2s.2-.3.3-.6c.2-.9.3-1.9.4-2.8.1-.9.2-1.8.3-2.7,0-.9.1-1.8.2-2.8v-2.9c0-1,0-1.8-.3-2.5-.2-.7-.5-1.3-.9-1.7s-.9-.8-1.6-1c-.6-.2-1.4-.3-2.3-.3h-4c-.5,0-1.1,0-1.7.2-.5,0-.8.3-.8.8v1.8c0,.6.3.8.8.8h5.2c.6,0,1.2.2,1.5.6.3.4.4,1,.4,2v2.5c0,.8,0,1.7-.2,2.6,0,.9-.2,1.8-.3,2.7s-.2,1.9-.4,2.9c0,.2,0,.5.2.6M208.8,604.4c.2-.2.4-.4.8-.5s.9-.2,1.5-.3h4.7c.6,0,1.1.2,1.5.3s.6.3.8.5.2.5.2.8,0,.6-.2.8-.4.4-.8.5-.9.2-1.5.3h-4.7c-.6,0-1.1,0-1.5-.3s-.7-.3-.8-.5c-.2-.2-.2-.5-.2-.8s0-.6.2-.8M217.8,598.6c0,.6.3.8.8.8h2c.6,0,.8-.3.8-.8v-10.5c0-.6-.3-.8-.8-.8h-2c-.5,0-.8.3-.8.8v2.6c0,.8-.4,1.2-1.3,1.2h-1.2c-.5,0-.8.3-.8.8v1.8c0,.5.3.8.8.8h1.1c.7,0,1.2-.2,1.4-.7v4h0ZM210.9,586.9c0-.5-.3-.8-.8-.8h-2.1c-.5,0-.8.3-.8.8v.8c0,.3.1.6.4.7h-3.6c-.5,0-.8.3-.8.8v1.7c0,.5.3.8.8.8h3.4c0,1.2-.4,2.1-1,2.7-.6.6-1.5,1-2.5,1s-.8.2-.8.7v1.9c0,.5.3.8.8.8,1.2,0,2.4-.3,3.3-.8,1-.5,1.6-1.3,2-2.4.2.5.4,1,.8,1.4.3.4.7.7,1.2,1s1,.5,1.5.6c.6,0,1.1.2,1.8.2s.8-.3.8-.8v-1.9c0-.5-.3-.7-.8-.7-1,0-1.8-.3-2.5-1-.6-.6-1-1.5-1-2.7h3c.5,0,.8-.3.8-.8v-1.7c0-.5-.3-.8-.8-.8h-2.5c-.5,0-.7-.2-.7-.6v-1h.1ZM207,601.5c-1.4.8-2.1,2-2.1,3.7s.7,2.9,2.1,3.7c1.4.8,3.5,1.2,6.5,1.2,5.7,0,8.5-1.6,8.5-4.9s-2.8-4.9-8.5-4.9-5,.4-6.5,1.2M195.9,609.9c1.6,0,3-.2,4.3-.3.5,0,.8-.3.8-.8v-1.8c-.1-.2-.2-.5-.3-.6-.1-.2-.3-.2-.6-.2-1.3,0-2.8.2-4.4.3h-5c-1.7,0-2.8-.7-2.8-2.1s0-.6,0-.9,0-.6.1-1c0-.3,0-.5-.2-.6s-.4-.2-.6-.2h-2c-.3,0-.5,0-.6.2-.1,0-.2.3-.2.6s0,.6-.1,1v1.5c0,1.6.5,2.8,1.6,3.7,1,.9,2.5,1.3,4.4,1.3h5.7M196.6,602.1c0,.6.3.8.8.8h2c.6,0,.8-.3.8-.8v-14c0-.6-.3-.8-.8-.8h-2c-.5,0-.8.3-.8.8v14ZM188.8,597.6c.3.4.7.8,1.2,1.1s1,.6,1.5.8c.6.2,1.1.3,1.8.3s.8-.3.8-.8v-1.9c0-.5-.3-.7-.8-.7s-1,0-1.4-.3-.8-.5-1.1-.9-.5-.8-.7-1.3-.3-1-.3-1.6v-3.5c0-.6-.3-.9-.8-.9h-2c-.5,0-.8.3-.8.9v3.5c0,.6,0,1.1-.3,1.6-.2.5-.4,1-.7,1.3-.3.4-.7.7-1.1.9-.4.2-.9.3-1.4.3s-.8.2-.8.7v1.9c0,.5.3.8.8.8s1.2,0,1.8-.3c.6-.2,1.1-.4,1.5-.8.5-.3.9-.7,1.2-1.1.4-.4.6-.9.8-1.4.2.5.4.9.8,1.4"/>
  <path class="cls-6" d="M852.8,522.9c-3.7,0-6,1.2-6,3.3s2.3,3.3,6,3.3,6-1.2,6-3.3-2.3-3.3-6-3.3M852.8,528.3c-2.7,0-4.3-.8-4.3-2.1s1.6-2.1,4.3-2.1,4.3.8,4.3,2.1-1.6,2.1-4.3,2.1M854.5,520.4c-2.6-.9-4.4-3.2-4.4-5.5v-.6h3.9v-1.3h-9.6v1.3h4v.6c0,2.6-1.8,5-4.5,6l.9,1.3c2.1-.8,3.8-2.5,4.5-4.6.8,1.8,2.3,3.3,4.3,4l.8-1.3h0ZM853.5,516.3v1.3h3.5v4.7h1.7v-10.7h-1.7v4.6h-3.5ZM831.4,527.8v-4.4h-1.6v5.8h12.1v-1.3h-10.5ZM836.3,517.3c0-2.6-2-4.4-4.7-4.4s-4.7,1.8-4.7,4.4,2,4.4,4.7,4.4,4.7-1.8,4.7-4.4M828.6,517.3c0-1.7,1.3-3,3.1-3s3.1,1.2,3.1,3-1.3,3-3.1,3-3.1-1.2-3.1-3M841.3,511.6h-1.6v13.1h1.6v-13.1ZM818.2,529.6h1.6v-17.9h-1.6v17.9ZM814.5,519h-3.1c.6-1.6.9-3.3.9-5.1h-6.9v1.3h5.3c-.3,3.8-2.2,7-6.1,9.3l1,1.2c2.5-1.5,4.2-3.3,5.3-5.4h3.7v8.4h1.6v-16.6h-1.6v6.9h-.1ZM800.8,529.6h1.6v-17.9h-1.6v17.9ZM797.3,518.6h-2.3c-.2-3.4-1.6-5.5-3.8-5.5s-3.8,2.4-3.8,6.2,1.5,6.3,3.8,6.3,3.7-2.2,3.8-5.7h2.3v8.7h1.6v-16.7h-1.6v6.6h0ZM791.2,524.1c-1.4,0-2.3-1.8-2.3-4.8s.9-4.7,2.3-4.7,2.3,1.8,2.3,4.7-.9,4.8-2.3,4.8M769.8,521.5h16.2v-1.4h-16.2v1.4ZM777.9,523.1c-3.8,0-6.1,1.2-6.1,3.2s2.3,3.2,6.1,3.2,6.1-1.2,6.1-3.2-2.3-3.2-6.1-3.2M777.9,528.3c-2.8,0-4.5-.7-4.5-2s1.7-2,4.5-2,4.5.7,4.5,2-1.7,2-4.5,2M784.1,517.1h-10.7v-3.5h10.5v-1.3h-12.2v6.1h12.3v-1.3h.1ZM751.9,527.8v-3.9h-1.6v5.2h12.7v-1.3h-11.1ZM752.9,524.6h1.6v-3.5c1.6,0,3.3-.3,4.9-.5v-1.2c-3.9.5-8.4.5-11.7.5l.2,1.4h5v3.5-.2ZM753.5,518.6c2.6,0,4.4-1.2,4.4-3.1s-1.8-3.1-4.4-3.1-4.4,1.2-4.4,3.1,1.8,3.1,4.4,3.1M753.5,513.6c1.7,0,2.9.8,2.9,1.9s-1.2,1.9-2.9,1.9-2.9-.8-2.9-1.9,1.2-1.9,2.9-1.9M757.2,522.2v1.2h3.6v1.8h1.6v-13.7h-1.6v10.6h-3.6ZM742.6,525.9v-4.9c1.5-.8,2.4-2.1,2.4-3.7,0-2.8-2.7-4.6-6.5-4.6s-6.5,1.8-6.5,4.6.9,2.9,2.4,3.7v4.8h-4v1.4h16.3v-1.4h-4.1ZM738.5,514c2.9,0,5,1.3,5,3.3s-2.1,3.3-5,3.3-4.9-1.3-4.9-3.3,2.1-3.3,4.9-3.3M736,521.7c.7.2,1.6.3,2.5.3s1.8,0,2.5-.3v4.2h-5v-4.2ZM729.2,522h-16.3v1.3h7.3v6.2h1.6v-6.2h7.4v-1.3ZM727.1,512.6h-12.1v7h12.1v-7ZM725.5,518.3h-8.9v-4.4h8.9v4.4ZM709.3,519.9c.5-2.4.5-4.3.5-5.8v-1.4h-12.1v1.3h10.5c0,1.6,0,3.4-.5,5.9h-12.1v1.3h16.3v-1.3h-2.6ZM699.3,523.2h-1.6v5.9h12.6v-1.3h-10.9v-4.6h0ZM683.3,514.1c1.8,0,3.1,1.2,3.1,2.9s-1.3,2.9-3.1,2.9-3.1-1.2-3.1-2.9,1.3-2.9,3.1-2.9M683.3,512.7c-2.7,0-4.7,1.7-4.7,4.2s2,4.2,4.7,4.2,4.7-1.7,4.7-4.2-2-4.2-4.7-4.2M691.2,522.3h1.6v-10.7h-1.6v10.7ZM680.9,523.3v1.3h10.3v5h1.6v-6.3h-12,.1ZM669.1,520v-3.4h-1.6v3.4h-6.6v1.3h16.1v-1.3h-7.9ZM668.8,523c-3.8,0-6.2,1.2-6.2,3.3s2.4,3.3,6.2,3.3,6.3-1.2,6.3-3.3-2.4-3.3-6.3-3.3M668.8,528.3c-2.8,0-4.6-.8-4.6-2s1.8-2,4.6-2,4.6.8,4.6,2-1.8,2-4.6,2M673.3,514.1c0,1.4,0,2.7-.5,4.6l1.6.2c.5-1.8.5-3.3.5-4.7v-1.5h-12.2v1.3h10.6v.2h0ZM652,531.4c1.8-.7,2.9-2.3,2.9-4.2s-.6-2.1-1.5-2.1-1.4.5-1.4,1.3.6,1.3,1.3,1.3,0,0,.2,0c0,1.2-.8,2.2-2,2.7l.4,1.1h0ZM638.3,527.8v-3.9h-1.6v5.2h12.7v-1.3h-11.1ZM639.3,524.6h1.6v-3.5c1.6,0,3.3-.3,4.9-.5v-1.2c-3.9.5-8.4.5-11.7.5l.2,1.4h5v3.5-.2ZM639.9,518.6c2.6,0,4.4-1.2,4.4-3.1s-1.8-3.1-4.4-3.1-4.4,1.2-4.4,3.1,1.8,3.1,4.4,3.1M639.9,513.6c1.7,0,2.9.8,2.9,1.9s-1.2,1.9-2.9,1.9-2.9-.8-2.9-1.9,1.2-1.9,2.9-1.9M643.6,522.2v1.2h3.6v1.8h1.6v-13.7h-1.6v10.6h-3.6ZM629,525.9v-4.9c1.5-.8,2.4-2.1,2.4-3.7,0-2.8-2.7-4.6-6.5-4.6s-6.5,1.8-6.5,4.6.9,2.9,2.4,3.7v4.8h-4v1.4h16.3v-1.4h-4.1ZM624.9,514c2.9,0,5,1.3,5,3.3s-2.1,3.3-5,3.3-4.9-1.3-4.9-3.3,2.1-3.3,4.9-3.3M622.4,521.7c.7.2,1.6.3,2.5.3s1.8,0,2.5-.3v4.2h-5v-4.2ZM616.1,518.9h-3v-7.3h-1.6v17.9h1.6v-9.3h3v-1.4h0ZM605.4,513.2h-1.6v3.2c0,3.3-2,6.7-4.6,8l1,1.3c2-1.1,3.7-3.3,4.5-5.9.8,2.5,2.4,4.6,4.3,5.6l1-1.3c-2.5-1.3-4.6-4.5-4.6-7.7v-3.2h0ZM590.9,520.6v-1.9h5.2v-6.6h-1.6v2h-8.7v-2h-1.6v6.6h5.2v1.9h-7.3v1.3h16.2v-1.3h-7.4ZM585.7,515.4h8.7v2h-8.7v-2ZM590.1,523.3c-3.8,0-6.2,1.1-6.2,3.1s2.3,3.1,6.2,3.1,6.1-1.1,6.1-3.1-2.3-3.1-6.1-3.1M590.1,528.3c-2.8,0-4.5-.7-4.5-1.9s1.7-1.9,4.5-1.9,4.5.7,4.5,1.9-1.7,1.9-4.5,1.9M577.7,511.6v2.6h-3.5v1.3h3.5v2.4h-3.5v1.3h3.5v3.3h1.6v-11h-1.6ZM567.3,525h10.4v4.6h1.6v-6h-12v1.3h0ZM574.1,520.1c-2.1.3-3.8.4-7.1.4v-2.7h6.1v-5.1h-7.7v1.3h6.1v2.5h-6.1v5.3h1.3c3.6,0,5.4,0,7.6-.4l-.2-1.3h0ZM560.3,511.6v4.2h-3v1.3h3v2.2h-3v1.3h3v1.6h1.7v-10.6h-1.7ZM560.3,524.9h-8.4v-1.8h-1.6v6.3h11.6v-6.3h-1.6v1.8ZM560.3,528h-8.4v-1.9h8.4v1.9ZM556.4,518.9c0-1.9-1.7-3.2-4.1-3.2s-4.1,1.3-4.1,3.2,1.7,3.2,4.1,3.2,4.1-1.3,4.1-3.2M549.8,518.9c0-1.2,1-2,2.5-2s2.5.8,2.5,2-1,2-2.5,2-2.5-.8-2.5-2M557.3,513.4h-4.1v-2h-1.6v2h-4.3v1.3h10v-1.3h0ZM543.4,529.5h1.6v-17.9h-1.6v17.9ZM539.8,518.1h-3v1.3h3v9.2h1.6v-16.6h-1.6v6h0ZM535,515.1h3.2v-1.3h-8.2v1.3h3.4v1.6c0,3.3-1.4,6.6-3.9,8.1l1,1.2c1.8-1.1,3.1-3.2,3.7-5.7.6,2.3,1.9,4.2,3.6,5.2l1-1.2c-2.5-1.4-3.8-4.5-3.8-7.6v-1.6ZM528.7,520.2v-1.3h-2.5c.4-2.1.4-3.8.4-5.1v-1.3h-12.1v1.3h10.5c0,1.3,0,2.9-.5,5.1h-12.1v1.3h7.3v3.3h-5.6v1.3h10.9v4.7h1.6v-6h-5.3v-3.3h7.4,0ZM503.6,531.4c1.8-.7,2.9-2.3,2.9-4.2s-.6-2.1-1.5-2.1-1.4.5-1.4,1.3.6,1.3,1.3,1.3.1,0,.2,0c0,1.2-.8,2.2-2,2.7l.4,1.1h.1ZM489.9,527.8v-3.9h-1.6v5.2h12.7v-1.3h-11.1ZM490.9,524.6h1.6v-3.5c1.6,0,3.3-.3,4.9-.5v-1.2c-3.9.5-8.4.5-11.7.5l.2,1.4h5v3.5-.2ZM491.5,518.6c2.6,0,4.4-1.2,4.4-3.1s-1.8-3.1-4.4-3.1-4.4,1.2-4.4,3.1,1.8,3.1,4.4,3.1M491.5,513.6c1.7,0,2.9.8,2.9,1.9s-1.2,1.9-2.9,1.9-2.9-.8-2.9-1.9,1.2-1.9,2.9-1.9M495.2,522.2v1.2h3.6v1.8h1.6v-13.7h-1.6v10.6h-3.6ZM480.7,525.9v-4.9c1.5-.8,2.4-2.1,2.4-3.7,0-2.8-2.7-4.6-6.5-4.6s-6.5,1.8-6.5,4.6.9,2.9,2.4,3.7v4.8h-4v1.4h16.3v-1.4h-4.1,0ZM476.5,514c2.9,0,5,1.3,5,3.3s-2.1,3.3-5,3.3-4.9-1.3-4.9-3.3,2.1-3.3,4.9-3.3M474,521.7c.7.2,1.6.3,2.5.3s1.8,0,2.5-.3v4.2h-5v-4.2ZM467.3,522h-16.3v1.3h7.3v6.2h1.6v-6.2h7.4v-1.3ZM465.2,512.6h-12.1v7h12.1v-7ZM463.6,518.3h-8.9v-4.4h8.9v4.4ZM442.5,520.9v-2.1h5.2v-6.7h-1.6v2h-8.7v-2h-1.6v6.7h5.2v2.1h-7.3v1.3h16.2v-1.3h-7.4ZM437.4,515.4h8.7v2.1h-8.7v-2.1ZM435.4,525.3h10.8v4.3h1.6v-5.6h-12.4v1.3ZM429.2,529.6h1.6v-17.9h-1.6v17.9ZM423,522.8c2.1-.3,3.5-1.5,3.5-3.3s-1.7-3.3-4.3-3.3-4.3,1.3-4.3,3.3,1.4,3,3.5,3.3v1.9h-5l.2,1.4c3.3,0,7.6,0,11.6-.7v-1.2c-1.8.2-3.5.3-5.2.4v-1.9h0ZM419.4,519.5c0-1.3,1.1-2.1,2.8-2.1s2.7.8,2.7,2.1-1.1,2-2.7,2-2.8-.8-2.8-2M427.6,513.8h-4.6v-2.2h-1.6v2.2h-4.6v1.3h10.9v-1.3h0ZM415.6,518.9h-3v-7.3h-1.6v17.9h1.6v-9.3h3v-1.4h0ZM404.8,513.2h-1.6v3.2c0,3.3-2,6.7-4.6,8l1,1.3c2-1.1,3.7-3.3,4.5-5.9.8,2.5,2.4,4.6,4.3,5.6l1-1.3c-2.5-1.3-4.6-4.5-4.6-7.7v-3.2h0ZM390.1,531.4c1.8-.7,2.9-2.3,2.9-4.2s-.6-2.1-1.5-2.1-1.4.5-1.4,1.3.6,1.3,1.3,1.3.1,0,.2,0c0,1.2-.8,2.2-2,2.7l.4,1.1h.1ZM385.3,511.6v2.6h-4.5c-.8-1-2.2-1.6-3.7-1.6-2.6,0-4.6,1.8-4.6,4.3s2,4.3,4.6,4.3,2.9-.6,3.7-1.6h4.5v2.6h1.7v-10.6h-1.7ZM377.1,519.9c-1.7,0-3-1.2-3-2.9s1.3-2.9,3-2.9,3.1,1.2,3.1,2.9-1.3,2.9-3.1,2.9M381.5,518.3c.1-.4.2-.9.2-1.4s0-.9-.2-1.3h3.8v2.7h-3.8ZM375,524.5h10.3v5.1h1.7v-6.4h-12v1.3h0ZM357.5,519.2h5.2v4.7h-5.2v-4.7ZM355.8,513.1v12.1h8.4v-12.1h-1.6v4.7h-5.2v-4.7h-1.6,0ZM367.9,529.6h1.6v-18h-1.6v18ZM351.1,529.6h1.6v-17.9h-1.6v17.9ZM347.6,516h-2.8c-.6-1.8-1.8-2.8-3.3-2.8-2.3,0-3.8,2.4-3.8,6.2s1.5,6.3,3.8,6.3,2.7-1,3.3-2.8h2.8v5.9h1.6v-16.7h-1.6v3.9h0ZM341.5,524.1c-1.4,0-2.3-1.8-2.3-4.7s.9-4.7,2.3-4.7,2.3,1.8,2.3,4.7-.9,4.7-2.3,4.7M345.1,521.4c0-.6.2-1.3.2-2.1s0-1.4-.2-2.1h2.4v4.1h-2.4ZM333.7,519.9c.5-2.4.5-4.3.5-5.8v-1.4h-12.1v1.3h10.5c0,1.6,0,3.4-.5,5.9h-12.1v1.3h16.3v-1.3h-2.6,0ZM323.8,523.2h-1.6v5.9h12.6v-1.3h-10.9v-4.6h-.1ZM316.5,516.3v-4.6h-1.6v10.9h1.6v-4.9h2.7v-1.4h-2.7ZM310.8,523c-3.7,0-5.9,1.2-5.9,3.3s2.3,3.3,5.9,3.3,5.9-1.2,5.9-3.3-2.3-3.3-5.9-3.3M310.8,528.3c-2.7,0-4.3-.7-4.3-2s1.6-2,4.3-2,4.3.7,4.3,2-1.6,2-4.3,2M313,520.1c-2.6-.9-4.3-3.1-4.3-5.5v-2h-1.6v1.8c0,2.7-1.7,5.2-4.5,6.2l.9,1.3c2.1-.8,3.7-2.4,4.4-4.5.8,1.8,2.3,3.3,4.3,4l.9-1.3h0ZM293.9,531.4c1.8-.7,2.9-2.3,2.9-4.2s-.6-2.1-1.5-2.1-1.4.5-1.4,1.3.6,1.3,1.3,1.3.1,0,.2,0c0,1.2-.8,2.2-2,2.7l.4,1.1h.1ZM292.8,518.9h-3v-7.2h-1.6v17.9h1.6v-9.3h3v-1.4ZM282.1,514.8h4v-1.4h-9.7v1.4h4.1v2.3c0,3-2.2,6.4-4.7,7.7l1,1.3c2-1,3.8-3.3,4.6-5.9.8,2.4,2.5,4.5,4.5,5.5l.9-1.3c-2.6-1.2-4.6-4.4-4.6-7.3v-2.3h0ZM274.9,522h-16.3v1.3h7.3v6.2h1.6v-6.2h7.4v-1.3ZM272.8,512.6h-12.1v7h12.1v-7ZM271.2,518.3h-8.9v-4.4h8.9v4.4ZM250.2,520.9v-2.1h5.2v-6.7h-1.6v2h-8.7v-2h-1.6v6.7h5.2v2.1h-7.3v1.3h16.2v-1.3h-7.4,0ZM245,515.4h8.7v2.1h-8.7v-2.1ZM243,525.3h10.8v4.3h1.6v-5.6h-12.4v1.3h0ZM237.7,517.9v-6.3h-1.6v14h1.6v-6.4h2.6v-1.4h-2.6ZM228,524.7h-1.6v4.4h12v-1.3h-10.3v-3.1h0ZM235,521.6c-1.5.3-3.2.4-4.9.5v-1.3c2.1-.2,3.4-1.2,3.4-2.7s-1.7-2.7-4.2-2.7-4.2,1-4.2,2.7,1.3,2.5,3.4,2.7v1.4h-4.8l.2,1.3c3.1,0,7.4,0,11.2-.8v-1.2h0ZM226.7,518.1c0-1,1-1.6,2.6-1.6s2.6.6,2.6,1.6-1,1.6-2.6,1.6-2.6-.6-2.6-1.6M234.5,513.4h-4.3v-1.8h-1.6v1.8h-4.3v1.2h10.3v-1.2h0ZM211.4,527.8v-4.2h-1.7v5.5h12v-1.3h-10.3ZM217,520.8c-2.6-.9-4.4-3.2-4.4-5.5v-.9h3.9v-1.3h-9.6v1.3h4v.9c0,2.5-1.9,4.9-4.5,5.9l.9,1.3c2.1-.8,3.7-2.4,4.5-4.5.8,1.8,2.3,3.3,4.3,4.1l.8-1.3h.1ZM216,516.6v1.3h3.6v6.9h1.7v-13.1h-1.7v4.9h-3.6ZM197.7,531.4c1.8-.7,2.9-2.3,2.9-4.2s-.6-2.1-1.5-2.1-1.4.5-1.4,1.3.6,1.3,1.3,1.3.1,0,.2,0c0,1.2-.8,2.2-2,2.7l.4,1.1h.1ZM188.7,522.9c-3.7,0-6,1.2-6,3.3s2.3,3.3,6,3.3,6-1.2,6-3.3-2.3-3.3-6-3.3M188.7,528.3c-2.7,0-4.3-.8-4.3-2.1s1.6-2.1,4.3-2.1,4.4.8,4.4,2.1-1.6,2.1-4.4,2.1M188.8,519.6h4.1v2.9h1.7v-10.9h-1.7v2.9h-4.1v-1.8h-1.6v2.9h-4.8v-2.9h-1.6v8.4h8.1v-1.6h0ZM187.2,519.8h-4.8v-2.9h4.8v2.9ZM193,518.2h-4.1v-2.3h4.1v2.3ZM175.6,511.6v2.6h-4.5c-.8-1-2.2-1.6-3.7-1.6-2.6,0-4.6,1.8-4.6,4.3s2,4.3,4.6,4.3,2.9-.6,3.7-1.6h4.5v2.6h1.7v-10.6h-1.7ZM167.3,519.9c-1.7,0-3-1.2-3-2.9s1.3-2.9,3-2.9,3.1,1.2,3.1,2.9-1.3,2.9-3.1,2.9M171.8,518.3c.1-.4.2-.9.2-1.4s0-.9-.2-1.3h3.8v2.7h-3.8ZM165.2,524.5h10.3v5.1h1.7v-6.4h-12v1.3h0ZM149.9,527.8v-3.7h-1.6v5h12v-1.3h-10.4ZM154.2,519.5c0-2-1.7-3.4-4.1-3.4s-4.1,1.4-4.1,3.4,1.7,3.4,4.1,3.4,4.1-1.4,4.1-3.4M147.7,519.5c0-1.3,1-2.1,2.5-2.1s2.5.9,2.5,2.1-1,2.2-2.5,2.2-2.5-.9-2.5-2.2M155.1,513.8h-4.1v-2.2h-1.6v2.2h-4.3v1.3h10v-1.3h0ZM155.1,516.4v1.3h3v2.4h-3v1.3h3v3.8h1.7v-13.7h-1.7v4.8h-3Z"/>
  <path class="cls-4" d="M420.2,462.2c0-.4.1-.7.4-1s.6-.4,1-.4h.9c.5,0,.8-.3.8-.8v-1.8c0-.5-.3-.8-.8-.8h-.8c-.4,0-.7,0-.9.2-.3.1-.5.3-.6.5v-3.9c0-.5-.3-.8-.8-.8h-2c-.5,0-.8.3-.8.8v10.5c0,.5.3.8.8.8h2c.5,0,.8-.3.8-.8v-2.6h0ZM409.3,462.8c.3.4.7.8,1.2,1.1.5.3,1,.6,1.5.8.6.2,1.1.3,1.8.3s.8-.3.8-.8v-1.9c0-.5-.3-.7-.8-.7s-1-.1-1.4-.3c-.4-.2-.8-.5-1.1-.9-.3-.4-.6-.8-.7-1.3-.2-.5-.3-1-.3-1.6v-2.5c0-.6-.3-.9-.8-.9h-2c-.5,0-.8.3-.8.9v2.5c0,.6,0,1.1-.3,1.6-.2.5-.4.9-.7,1.3-.3.4-.7.7-1.1.9-.4.2-.9.3-1.4.3s-.8.2-.8.7v1.9c0,.5.3.8.8.8s1.2,0,1.8-.3c.6-.2,1.1-.4,1.5-.8.5-.3.9-.7,1.2-1.1s.6-.9.8-1.4c.2.5.4.9.8,1.4M404.2,471.4c0,3.2,2.8,4.9,8.3,4.9s8.3-1.6,8.3-4.9-2.8-4.9-8.3-4.9-8.3,1.6-8.3,4.9M410.2,472.9c-.6,0-1.1-.2-1.4-.3-.4-.1-.6-.3-.8-.5-.2-.2-.2-.5-.2-.8s0-.6.2-.8c.2-.2.4-.4.8-.5s.8-.2,1.4-.3h4.4c.6,0,1.1.1,1.5.3.4.1.6.3.8.5.2.2.2.5.2.8s0,.6-.2.8c-.1.2-.4.4-.8.5s-.9.2-1.5.3h-4.4M386.9,469.2c-.5.1-1,.2-1.5.2-1,0-1.7-.4-2.2-1.3s-.7-2.3-.7-4.1.3-3.3.8-4.2c.5-.9,1.3-1.3,2.5-1.3h1.3c.4,0,.8,0,1.1.2.5.1.8-.1.8-.7v-1.8c0-.2,0-.4-.2-.6s-.3-.2-.6-.2c-.5,0-.9-.1-1.3-.2h-1.2c-2.2,0-3.8.7-4.9,2.2-1.1,1.4-1.6,3.7-1.6,6.7s.5,5.2,1.6,6.6c1.1,1.5,2.7,2.2,4.8,2.2s2.7-.2,3.7-.7c.3-.1.4-.3.5-.4v-.6l-.4-1.7c-.1-.4-.3-.6-.6-.6s-.2,0-.3,0c-.4.2-.9.3-1.4.4M396.1,461.9h-1c-.5,0-.8.2-1,.5v-7.9c0-.5-.3-.8-.8-.8h-1.8c-.5,0-.8.3-.8.8v20.6c0,.5.3.8.8.8h1.8c.5,0,.8-.3.8-.8v-8.7c0-.3,0-.5.3-.7.2-.2.4-.3.7-.3h1v9.6c0,.5.3.8.8.8h1.8c.5,0,.8-.3.8-.8v-20.8c0-.5-.3-.8-.8-.8h-1.8c-.5,0-.8.3-.8.8v7.7h0ZM358.8,472.9c-.6,0-1.1-.2-1.5-.3-.4-.1-.7-.3-.8-.5-.2-.2-.2-.5-.2-.8s0-.6.2-.8c.2-.2.4-.4.8-.5s.9-.2,1.5-.3h4.7c.6,0,1.1.1,1.5.3s.6.3.8.5c.2.2.2.5.2.8s0,.6-.2.8c-.2.2-.4.4-.8.5s-.9.2-1.5.3h-4.7M365.5,464.8c0,.5.3.8.8.8h2c.5,0,.8-.3.8-.8v-10.5c0-.5-.3-.8-.8-.8h-2c-.5,0-.8.3-.8.8v2.2c0,.8-.4,1.2-1.3,1.2h-1.2c-.5,0-.8.3-.8.8v1.8c0,.5.3.8.8.8h1.1c.7,0,1.2-.2,1.4-.7v4.4h0ZM351.7,454c-.6,0-.8.3-.8.8v1.7c0,.6.3.8.8.8h3.2v.4c0,1.2-.3,2.1-.9,2.8-.6.7-1.4,1-2.4,1s-.8.2-.8.7v1.9c0,.5.3.8.8.8,1.2,0,2.3-.3,3.2-.8.9-.6,1.6-1.4,1.9-2.4.2.5.4,1,.8,1.4.3.4.7.7,1.2,1,.4.3.9.5,1.5.6.5.1,1.1.2,1.7.2s.8-.3.8-.8v-1.9c0-.5-.3-.7-.8-.7-1,0-1.8-.3-2.4-1s-.9-1.6-.9-2.8v-.4h3.2c.5,0,.8-.3.8-.8v-1.7c0-.6-.3-.8-.8-.8h-10.1ZM354.7,475c1.4.8,3.6,1.2,6.5,1.2,5.7,0,8.5-1.6,8.5-4.9s-2.8-4.9-8.5-4.9-5.1.4-6.5,1.2c-1.4.8-2.1,2-2.1,3.7s.7,2.9,2.1,3.7M343.5,476.1c1.6,0,3-.2,4.3-.3.5,0,.8-.3.8-.8v-1.8c-.1-.2-.2-.4-.3-.6s-.3-.2-.6-.2c-1.3.1-2.8.2-4.4.3-1.6,0-3.3.1-5,.1s-2.8-.7-2.8-2.1,0-.6,0-.9,0-.6.1-1c0-.3,0-.5-.2-.6s-.4-.2-.6-.2h-2c-.3,0-.5,0-.6.2-.1.1-.2.3-.2.6v2.5c0,1.6.5,2.8,1.6,3.7,1,.9,2.5,1.3,4.4,1.3s4.1,0,5.7-.1M333.8,457.8c.4-.5,1-.8,1.7-.8s1.3.3,1.7.8c.4.5.6,1.2.6,2.2s-.2,1.7-.6,2.2-1,.8-1.7.8-1.3-.2-1.7-.8c-.4-.5-.6-1.2-.6-2.2s.2-1.7.6-2.2M331.2,455.4c-1,1.1-1.5,2.6-1.5,4.6s.1,1.8.4,2.6c.3.8.7,1.4,1.2,2,.5.5,1.1.9,1.9,1.2.7.3,1.5.4,2.4.4,1.8,0,3.3-.5,4.3-1.6s1.6-2.6,1.6-4.6-.5-3.5-1.6-4.6c-1-1.1-2.5-1.6-4.3-1.6s-3.3.5-4.3,1.6M344.2,468.3c0,.5.3.8.8.8h2c.5,0,.8-.3.8-.8v-14c0-.5-.3-.8-.8-.8h-2c-.5,0-.8.3-.8.8v14ZM312.6,473.5c.5.5,1,.9,1.6,1.3s1.3.7,2.1.9c.8.2,1.6.3,2.5.3s.3,0,.4,0h.4c.1,0,.2-.1.3-.2s.1-.2.1-.4v-1.9c0-.5-.3-.7-.8-.7-.8,0-1.5-.1-2.2-.3-.7-.2-1.3-.5-1.8-.9s-1-.8-1.3-1.3-.5-1-.5-1.6v-.4c0-.5-.3-.8-.8-.8h-2c-.5,0-.8.3-.8.8v.4c0,.6-.2,1.1-.5,1.6s-.7.9-1.3,1.3c-.5.4-1.2.7-1.9.9-.7.2-1.5.3-2.2.3s-.8.2-.8.7v1.9c0,.2,0,.3.1.4s.2.2.3.2h.8c.9,0,1.7-.1,2.5-.3.8-.2,1.5-.5,2.1-.9s1.2-.8,1.6-1.3c.5-.5.8-1,1.1-1.5.2.5.6,1,1.1,1.5M316,466.5c0,.5.3.8.8.8h2c.6,0,.8-.3.8-.8v-12.2c0-.5-.3-.8-.8-.8h-2c-.5,0-.8.3-.8.8v12.2ZM311,465.5c.8-.1,1.5-.3,2.2-.5.5-.2.7-.5.6-1l-.4-1.8c-.1-.4-.3-.6-.6-.6s-.2,0-.3,0c-.5.2-1.1.3-1.8.4-.7.1-1.3.2-1.9.2-1.3,0-2.3-.2-2.9-.6s-.9-1-.9-1.9.3-1.5,1-1.9c.6-.4,1.7-.6,3.1-.6h1.5c.5,0,1,0,1.5.2.5,0,.8-.2.8-.8v-1.8c0-.3,0-.5-.2-.6-.1-.1-.3-.2-.6-.2-.6,0-1.1-.1-1.7-.2h-1.6c-2.5,0-4.4.5-5.6,1.4-1.2,1-1.8,2.4-1.8,4.4s.6,3.4,1.8,4.4c1.2,1,3,1.4,5.5,1.4s1.3,0,2.2-.2M295,475.1c0,.5.3.8.8.8h1.8c.5,0,.8-.3.8-.8v-20.8c0-.5-.3-.8-.8-.8h-1.8c-.5,0-.8.3-.8.8v20.8ZM290.3,475.1c0,.5.3.8.8.8h1.8c.5,0,.8-.3.8-.8v-20.6c0-.5-.3-.8-.8-.8h-1.8c-.5,0-.8.3-.8.8v6.7c0,.5-.3.7-.8.7h-.7c-.5,0-.7.2-.7.7v2.1c0,.5.2.7.7.7h.7c.3,0,.6-.1.8-.4v10.1h0ZM281,455.1c-.6,0-1.2.1-1.8.2-.3,0-.5.1-.6.2s-.2.3-.2.5v2c0,.5.3.7.8.6.8-.1,1.4-.2,1.8-.3.5,0,.9-.1,1.3-.1.6,0,1.1.1,1.5.4.3.3.5.7.5,1.4,0,1.2-.6,1.7-1.8,1.7s-2.8.5-3.6,1.4c-.8.9-1.2,2.3-1.2,4s.5,3.1,1.5,4,2.4,1.4,4.2,1.4,1.4,0,2.2-.2,1.5-.3,2.2-.6c.3-.1.5-.2.6-.4.1-.1.1-.3,0-.6l-.5-1.8c-.1-.4-.3-.6-.6-.6s-.2,0-.3,0c-.6.2-1.2.4-1.8.5-.6.1-1.1.2-1.5.2-.8,0-1.5-.2-2-.5-.4-.3-.7-.8-.7-1.5s.2-1.3.7-1.6c.4-.3,1.2-.5,2.3-.5h2.7c.7,0,.7-.2.7-.7v-1.7c0-.5-.2-.7-.7-.7h-.3c.9-.8,1.3-1.9,1.3-3.4s-.4-2.2-1.3-2.8c-.8-.6-2.1-.9-3.7-.9h-1.8M260.9,470.6c-1.6,0-2.9-.2-4-.3-.3,0-.5,0-.6.2-.1.1-.2.3-.2.6v1.8c0,.5.3.7.8.8,1.1.2,2.4.3,4,.3h10.3c.8,0,1.5,0,2.1-.1.6,0,1.1-.1,1.5-.2.5,0,.8-.4.8-.8v-1.8c0-.3,0-.5-.2-.6s-.3-.2-.6-.1c-.4,0-.9.1-1.5.2-.6,0-1.3,0-2.1.1h-5.3c-1.8,0-3.4,0-5-.1M270.3,461.2h-6.2c-1,0-1.9,0-2.8.1-.9,0-1.6,0-2.2.2-.5,0-.8.3-.8.8v1.8c0,.2,0,.5.2.6.1.2.3.2.6.2.7,0,1.4,0,2.3-.1.9,0,1.8,0,2.8-.1,1,0,2,0,3-.1h2.9c0,.3,0,.7-.1,1,0,.3,0,.6-.2.9v.5c0,.1.3.2.5.2l2.1.3h.6c.1,0,.2-.2.3-.5.2-.9.3-2,.4-3.1,0-1.2.1-2.3.1-3.5,0-1.9-.5-3.3-1.5-4.2-1-1-2.4-1.4-4.2-1.4h-4.3c-1.5,0-3.2.2-5,.3-.2,0-.4.1-.6.2-.1.1-.2.3-.2.5v2c0,.2,0,.4.2.5.1.1.3.2.6.2,1.7,0,3.2-.2,4.6-.3,1.4,0,2.6-.1,3.8-.1s1.7.3,2.2.8.8,1.2.8,2.2h.1ZM244.2,464.7c.5,0,.8-.3.8-.8v-1.7c0-.5-.3-.8-.8-.8h-1.9c.7-.4,1.2-1,1.7-1.7.4-.8.6-1.6.6-2.5,0-2.2-1.2-3.3-3.8-3.3h-10.5c-1,0-1.4.5-1.4,1.4v6.6c0,1.8,1,2.7,3.1,2.7h12.2,0ZM243.1,470c1.1,0,1.9-.2,2.5-.3.5,0,.8-.4.8-.8v-1.8c0-.3,0-.5-.2-.6-.1-.1-.4-.2-.6-.1-.4,0-.9.1-1.5.2-.6,0-1.3,0-2.1.1h-5.3c-1.8,0-3.4,0-5-.1-1.6,0-2.9-.2-4-.3-.3,0-.5,0-.6.2-.1.1-.2.3-.2.6v1.8c0,.5.3.7.8.8,1,.1,2.2.2,3.5.3,1.4,0,2.8.1,4.4.1-.2.1-.4.3-.6.5-.1.2-.2.5-.2.7v2.8c0,.6.3.8.8.8h2c.5,0,.8-.3.8-.8v-3c0-.7.4-1,1.1-1,1.3,0,2.5,0,3.6-.1M232.5,458.1c0-.5.2-.7.7-.7h6.1c.5,0,.9.1,1.2.4.3.2.4.6.4,1.1,0,.8-.2,1.4-.7,1.9s-1,.6-1.7.6h-5c-.7,0-1.1-.3-1.1-.9v-2.3h.1ZM210.2,458.4h8.3v.8c0,.2-.1.4-.2.5-.1,0-.3.1-.6.1h-6.7c-.3,0-.5,0-.6-.1-.1,0-.2-.3-.2-.5v-.8ZM211.5,468.5c-1.7,0-3.2.2-4.4.3-.5,0-.8.3-.8.8v1.8c0,.2,0,.4.2.6.1.1.3.2.6.2,1.4,0,3-.2,4.6-.3,1.7,0,3.5-.1,5.5-.1s1.2.1,1.5.4.4.8.4,1.4v.8c0,.2,0,.5-.1.8,0,.3,0,.5.2.6.1.1.3.2.6.2h2c.5,0,.8-.3.8-.8s0-.5.1-.9v-1.5c0-1.5-.4-2.6-1.2-3.3-.8-.7-2.1-1.1-3.8-1.1-2.5,0-4.6,0-6.3.1M219.2,462.7c1.8,0,2.7-.8,2.8-2.5l.4-5.5c0-.5-.2-.8-.8-.8h-2c-.5,0-.8.2-.9.7v.8h-8.8v-.8c0-.5-.3-.7-.9-.7h-2c-.3,0-.5,0-.6.2s-.2.3-.2.6l.4,5.5c.1,1.6,1.1,2.5,2.8,2.5h3v.9c0,.4.2.7.5.9h-7.7c-.5,0-.8.2-.8.8v1.5c0,.5.3.8.8.8,1.1,0,2.4.1,4,.2h13.9c.5,0,.8-.3.8-.8v-1.5c0-.6-.3-.8-.9-.8h-6.2c-.6,0-.9-.3-.9-.8v-.9h3l.3-.3h0ZM201,474.9v-1.8c-.1-.3-.2-.5-.4-.6s-.4-.2-.6-.2c-.7,0-1.4.1-2.2.2-.8,0-1.7.1-2.6.1h-5.7c-1,0-1.9-.6-1.9-1.7v-2.1c0-.2,0-.5-.2-.6-.2-.2-.4-.2-.7-.2h-2c-.5,0-.8.3-.8.8v2.6c0,1.5.4,2.6,1.3,3.4.9.8,2.1,1.2,3.8,1.2s3.9,0,5.8-.1c1.9,0,3.7-.2,5.3-.3.5,0,.8-.3.8-.8M192.3,454h-2.7c-.9,0-1.7,0-2.4.1-.7,0-1.4.1-1.9.1s-.4.1-.6.2c-.2.1-.2.3-.2.5v1.9c0,.2,0,.4.2.5.1.1.3.2.6.2,1.7-.1,3.3-.2,4.7-.3,1.5,0,2.9-.1,4.2-.1s2.4.8,2.4,2.2,0,1.3-.2,1.9c-.1.6-.3,1.1-.4,1.4h-8.8c-1.6,0-2.9,0-4-.2-.5,0-.8.2-.8.8v1.5c0,.5.3.8.8.8s1.1,0,1.7.1h6.5c-.3.2-.5.5-.5.9v3.1c0,.6.3.8.8.8h2c.5,0,.8-.3.8-.8v-3.2c0-.5.3-.8.9-.8h5.8c.5,0,.8-.3.8-.8v-1.5c0-.6-.3-.8-.9-.8h-1.6c.2-.6.3-1.2.4-1.9.1-.7.2-1.4.2-2.2,0-1.6-.4-2.7-1.2-3.5s-2-1.1-3.8-1.1h-2.9"/>
  <path class="cls-6" d="M557.1,388.1v-4.6h5.5v-1.3h-10.7v-5.6h10.5v-1.3h-12.2v8.3h5.2v4.6h-7.3v1.4h16.3v-1.4h-7.3ZM544.4,391.7h1.6v-17.9h-1.6v17.9ZM540.8,380.3h-3v1.3h3v9.2h1.6v-16.6h-1.6v6h0ZM536,377.3h3.2v-1.3h-8.2v1.3h3.4v1.6c0,3.3-1.4,6.6-3.9,8.1l1,1.2c1.8-1.1,3.1-3.2,3.7-5.7.6,2.3,1.9,4.2,3.6,5.2l1-1.2c-2.5-1.4-3.8-4.5-3.8-7.6v-1.6ZM508.7,384.3h16.3v-1.3h-16.3v1.3ZM512.5,386.1h-1.6v5.2h12.4v-1.3h-10.8v-3.9h0ZM523.1,379.2h-10.6v-4.7h-1.6v6.1h12.2v-1.3h0ZM507.6,384h-16.2v1.3h7.2v6.4h1.6v-6.4h7.3v-1.3h.1ZM493,382.5c2.8-.5,5.4-2,6.5-4.1,1.1,2.1,3.7,3.6,6.5,4.1l.6-1.3c-3.2-.5-6.3-2.5-6.3-4.9h5.6v-1.3h-13.1v1.3h5.7c0,2.5-3.1,4.5-6.2,5l.6,1.3h0ZM483,373.8v7.6h-2.3v-7.2h-1.5v16.7h1.5v-8.2h2.3v9h1.6v-17.9h-1.6ZM474.6,374.3h-1.6v2.5h-3.6v1.3h8.9v-1.3h-3.6v-2.5h0ZM473.8,379.4c-2.2,0-3.8,1.7-3.8,4.1s1.6,4.1,3.8,4.1,3.8-1.7,3.8-4.1-1.6-4.1-3.8-4.1M473.8,386.2c-1.4,0-2.4-1.1-2.4-2.7s1-2.7,2.4-2.7,2.4,1.1,2.4,2.7-1,2.7-2.4,2.7M460.8,385.1c-3.7,0-6,1.2-6,3.3s2.3,3.3,6,3.3,6-1.2,6-3.3-2.3-3.3-6-3.3M460.8,390.5c-2.7,0-4.3-.8-4.3-2.1s1.6-2.1,4.3-2.1,4.3.8,4.3,2.1-1.6,2.1-4.3,2.1M462.5,382.6c-2.6-.9-4.4-3.2-4.4-5.5v-.6h3.9v-1.3h-9.6v1.3h4v.6c0,2.6-1.8,5-4.5,6l.9,1.3c2.1-.8,3.8-2.5,4.5-4.6.8,1.8,2.3,3.3,4.3,4l.8-1.3h.1ZM461.5,378.5v1.3h3.5v4.7h1.7v-10.7h-1.7v4.6h-3.5ZM439.4,390v-4.4h-1.6v5.8h12.1v-1.3h-10.5ZM444.3,379.5c0-2.6-2-4.4-4.7-4.4s-4.7,1.8-4.7,4.4,2,4.4,4.7,4.4,4.7-1.8,4.7-4.4M436.6,379.5c0-1.7,1.3-3,3.1-3s3.1,1.2,3.1,3-1.3,3-3.1,3-3.1-1.2-3.1-3M449.3,373.8h-1.6v13.1h1.6v-13.1ZM412.5,382.9h16.2v-1.3h-16.2v1.3ZM416.2,388.5h10.5v-4h-12.2v1.2h10.6v1.6h-10.5v4.3h12.7v-1.3h-11.1v-1.8h0ZM420.7,380.3c3.9,0,6.3-1.1,6.3-3.1s-2.4-3.1-6.3-3.1-6.3,1.1-6.3,3.1,2.4,3.1,6.3,3.1M420.7,375.4c2.9,0,4.6.7,4.6,1.9s-1.7,1.9-4.6,1.9-4.6-.7-4.6-1.9,1.7-1.9,4.6-1.9M399.5,390.4v-1.6h10.4v-3.7h-12v1.2h10.4v1.4h-10.4v3.9h12.6v-1.2h-11ZM400,384.4h1.6v-2.8c1.7,0,3.5-.2,5.3-.5v-1.1c-3.9.4-8.3.5-11.8.5l.2,1.2h4.7v2.7h0ZM400.9,379.5c2.7,0,4.4-1,4.4-2.7s-1.8-2.7-4.4-2.7-4.4,1-4.4,2.7,1.8,2.7,4.4,2.7M400.9,375.3c1.8,0,2.9.6,2.9,1.6s-1.1,1.5-2.9,1.5-2.9-.6-2.9-1.5,1.1-1.6,2.9-1.6M404.6,382.4v1.1h3.6v.9h1.6v-10.5h-1.6v8.5h-3.6ZM391.4,373.8v7.2h-2.4v-6.7h-1.5v16.6h1.5v-8.5h2.4v9.4h1.6v-17.9h-1.6ZM378.4,376.1v1.3h5.4c-.2,3.7-1.9,7-6.1,9.3l1,1.2c5.1-2.9,6.7-7.2,6.7-11.8h-7ZM376.6,376.8c-.8-.9-1.9-1.5-3.4-1.5-2.8,0-5.4,2.2-5.4,7.9s2.1,7.3,4.9,7.3,4.2-1.9,4.2-4.8-1.6-4.6-4.1-4.6-2.4.7-3.3,1.8c0-4.6,1.8-6.1,3.8-6.1s1.8.4,2.4,1.1l1-1.1h-.1ZM372.6,389.1c-1.8,0-2.9-1.7-3.2-4.7,1-1.4,2.1-1.9,3-1.9,1.8,0,2.6,1.3,2.6,3.2s-1.1,3.3-2.5,3.3M354.6,388.2v-3.4h5.7v-1.3h-11v-2.9h10.6v-5.5h-12.3v1.3h10.7v2.8h-10.6v5.5h5.3v3.4h-7.3v1.3h16.3v-1.3h-7.4ZM344.9,381.1h-2.9v-7.3h-1.6v17.9h1.6v-9.3h2.9v-1.4h0ZM329.2,375.7v1.4h6.6c-.4,4.2-2.8,7.7-7.4,10l.9,1.3c5.8-2.9,8.1-7.5,8.1-12.6h-8.2ZM327.1,384.7h-16.2v1.3h7.3v5.8h1.6v-5.8h7.3v-1.3h0ZM312.5,383.3c2.8-.4,5.4-1.8,6.5-3.7,1.1,1.9,3.7,3.3,6.5,3.7l.6-1.3c-3.2-.4-6.2-2.4-6.2-4.6h5.7v-1.3h-5.7v-2.2h-1.6v2.2h-5.7v1.3h5.7c0,2.2-3,4.2-6.3,4.6l.6,1.3h-.1ZM288.8,382.9h16.2v-1.3h-16.2v1.3ZM292.5,388.5h10.5v-4h-12.2v1.2h10.6v1.6h-10.5v4.3h12.7v-1.3h-11.1v-1.8h0ZM297,380.3c3.9,0,6.3-1.1,6.3-3.1s-2.4-3.1-6.3-3.1-6.3,1.1-6.3,3.1,2.4,3.1,6.3,3.1M297,375.4c2.9,0,4.6.7,4.6,1.9s-1.7,1.9-4.6,1.9-4.6-.7-4.6-1.9,1.7-1.9,4.6-1.9M285.4,379.3v-5.4h-1.6v13.1h1.6v-6.3h2.7v-1.4h-2.7ZM275.8,385.6h-1.6v5.8h12v-1.3h-10.3v-4.4h-.1ZM272.2,375.2v1.3h6.6c-.3,3.2-3.1,5.7-7.3,7l.7,1.3c5.2-1.6,8.4-5,8.4-9.7h-8.4ZM267.1,391.8h1.6v-17.9h-1.6v17.9ZM255.1,375.8v1.3h6.7c-.3,4.3-2.7,7.7-7.6,10l.9,1.3c6-2.9,8.3-7.5,8.3-12.7h-8.4.1ZM241.7,376c1.8,0,3.1,1.1,3.1,2.8s-1.3,2.8-3.1,2.8-3.1-1.1-3.1-2.8,1.3-2.8,3.1-2.8M241.7,374.7c-2.7,0-4.7,1.7-4.7,4.1s2,4.1,4.7,4.1,4.7-1.7,4.7-4.1-2-4.1-4.7-4.1M241.4,387.8h8.3v2.4h-8.3v-2.4ZM239.8,384.3v7.2h11.6v-7.2h-1.6v2.2h-8.3v-2.2h-1.7ZM249.7,383.5h1.6v-9.6h-1.6v9.6ZM235.9,381.1h-2.9v-7.3h-1.6v17.9h1.6v-9.3h2.9v-1.4h0ZM220.2,375.7v1.4h6.6c-.4,4.2-2.8,7.7-7.4,10l.9,1.3c5.8-2.9,8.1-7.5,8.1-12.6h-8.2ZM211,381.4c.5-2.2.5-3.9.5-5.3v-1.3h-12.1v1.3h10.5c0,1.4,0,3-.5,5.3h-12.1v1.3h16.3v-1.3h-2.6,0ZM199.3,391.5h12.2v-6.4h-12.2v6.4ZM200.9,386.5h9v3.7h-9v-3.7ZM184.8,390v-4.3h-1.7v5.6h12v-1.3h-10.3ZM193,382.3v4.8h1.7v-13.2h-1.7v2.8h-4.6c-.8-1-2.1-1.7-3.7-1.7-2.6,0-4.6,1.9-4.6,4.5s2,4.5,4.6,4.5,2.8-.6,3.7-1.7h4.6ZM193,378v3h-3.9c.2-.5.2-1,.2-1.5s0-1-.2-1.5h3.9ZM181.7,379.5c0-1.8,1.3-3.1,3.1-3.1s3,1.3,3,3.1-1.3,3.1-3,3.1-3.1-1.3-3.1-3.1M167.3,389.8v-4.3h-1.6v5.7h12.1v-1.3h-10.5ZM171.8,375.4h-8.4v8.3h8.4v-8.3ZM170.2,382.4h-5.2v-5.7h5.2v5.7ZM177.2,373.8h-1.6v12.9h1.6v-12.9ZM161.3,382.4v-1.3h-2.5c.4-2.1.4-3.8.4-5.1v-1.3h-12.1v1.3h10.5c0,1.3,0,2.9-.5,5.1h-12.1v1.3h7.3v3.3h-5.6v1.3h10.9v4.7h1.6v-6h-5.3v-3.3h7.4Z"/>
  <path class="cls-6" d="M688.7,342.8v7.3h-2.1v-6.9h-1.5v16.6h1.5v-8.4h2.1v9.3h1.6v-17.9h-1.6ZM681.4,346.4h2.5v-1.3h-4v11h.7c1,0,2.3,0,3.7-.4v-1.4c-1.2.3-2.2.4-3,.4v-8.3h0ZM676.8,346.4h2.3v-1.3h-3.8v11h.7c.7,0,1.9,0,3.4-.3l-.2-1.4c-.9.2-1.8.3-2.4.3v-8.3h0ZM652.7,351.9h16.2v-1.3h-16.2v1.3ZM656.4,357.5h10.5v-4h-12.2v1.2h10.6v1.6h-10.5v4.3h12.7v-1.3h-11.1v-1.8h0ZM660.9,349.3c3.9,0,6.3-1.1,6.3-3.1s-2.4-3.1-6.3-3.1-6.3,1.1-6.3,3.1,2.4,3.1,6.3,3.1M660.9,344.4c2.9,0,4.6.7,4.6,1.9s-1.7,1.9-4.6,1.9-4.6-.7-4.6-1.9,1.7-1.9,4.6-1.9M648.3,354.5h-1.6v.6c0,1.3-.8,3-2.5,4-1.7-.9-2.5-2.5-2.5-4v-.6h-1.6v.6c0,1.6-1.4,3.5-3.6,4.2l.8,1.2c1.7-.6,3-1.8,3.6-3.2.5,1.5,1.6,2.7,3.3,3.4,1.7-.7,2.7-2,3.3-3.4.6,1.5,1.9,2.6,3.7,3.3l.8-1.2c-2.3-.7-3.6-2.5-3.6-4.2v-.6h-.1ZM639.8,353.2c2.3,0,3.8-1.2,3.8-3.1s-1.6-3.1-3.8-3.1-3.8,1.2-3.8,3.1,1.6,3.1,3.8,3.1M639.8,348.3c1.4,0,2.4.7,2.4,1.9s-1,1.8-2.4,1.8-2.4-.7-2.4-1.8.9-1.9,2.4-1.9M644.4,344.9h-3.7v-2h-1.6v2h-3.8v1.3h9.1v-1.3ZM646.7,349.1h2.3v4.8h1.6v-11.1h-1.6v4.9h-2.3v-4.6h-1.5v10.5h1.5v-4.6h0ZM627.2,354.5c-3.7,0-6,1.1-6,3.1s2.3,3.1,6,3.1,6-1.1,6-3.1-2.3-3.1-6-3.1M627.2,359.5c-2.7,0-4.4-.7-4.4-1.9s1.6-1.9,4.4-1.9,4.4.7,4.4,1.9-1.6,1.9-4.4,1.9M626.3,350.3c0-1.8-1.6-3.1-3.8-3.1s-3.8,1.2-3.8,3.1,1.6,3.1,3.8,3.1,3.8-1.2,3.8-3.1M620.1,350.3c0-1.1.9-1.8,2.4-1.8s2.4.7,2.4,1.8-1,1.9-2.4,1.9-2.4-.7-2.4-1.9M627,345h-3.7v-2h-1.6v2h-3.8v1.3h9.1v-1.3ZM629.2,349h2.3v5.1h1.6v-11.4h-1.6v4.9h-2.3v-4.5h-1.6v10.4h1.6v-4.5ZM605.8,345.7c1.7,0,3,1.9,3,4.8s-1.2,4.8-3,4.8-3-1.9-3-4.8,1.2-4.8,3-4.8M605.8,344.2c-2.7,0-4.6,2.4-4.6,6.3s1.9,6.3,4.6,6.3,4.6-2.4,4.6-6.3-1.9-6.3-4.6-6.3M613.6,360.8h1.6v-18h-1.6v18ZM578.6,352.4h16.3v-1.2h-16.3v1.2ZM582.2,357.7h10.6v-3.8h-12.3v1.2h10.7v1.5h-10.6v4h12.8v-1.2h-11.2v-1.7ZM591.1,346h-10.5v3.8h12.4v-1.2h-10.8v-1.5h10.5v-3.7h-12.1v1.2h10.5v1.5h0ZM577.4,353.2h-16.3v1.3h7.3v6.2h1.6v-6.2h7.4v-1.3ZM575.3,343.8h-12.1v7h12.1v-7ZM573.7,349.5h-8.9v-4.4h8.9v4.4ZM544.1,356.9c3.2,0,7.6,0,11.6-.8v-1.2c-4.1.6-8.6.6-11.8.6l.2,1.4ZM556.7,360.8h1.6v-18h-1.6v18ZM549.6,345.5c1.9,0,3.2,1.1,3.2,2.8s-1.3,2.8-3.2,2.8-3.2-1.2-3.2-2.8,1.3-2.8,3.2-2.8M549.6,344.1c-2.8,0-4.8,1.7-4.8,4.2s2,4.2,4.8,4.2,4.8-1.7,4.8-4.2-2-4.2-4.8-4.2M539.5,342.8v2.6h-4.5c-.8-1-2.2-1.6-3.7-1.6-2.6,0-4.6,1.8-4.6,4.3s2,4.3,4.6,4.3,2.9-.6,3.7-1.6h4.5v2.6h1.7v-10.6h-1.7ZM531.2,351.1c-1.7,0-3-1.2-3-2.9s1.3-2.9,3-2.9,3.1,1.2,3.1,2.9-1.3,2.9-3.1,2.9M535.7,349.5c0-.4.2-.9.2-1.4s0-.9-.2-1.3h3.8v2.7h-3.8ZM529.1,355.7h10.3v5.1h1.7v-6.4h-12v1.3ZM517.8,354.1c-3.7,0-6,1.2-6,3.3s2.3,3.3,6,3.3,6-1.2,6-3.3-2.3-3.3-6-3.3M517.8,359.5c-2.7,0-4.3-.8-4.3-2.1s1.6-2.1,4.3-2.1,4.4.8,4.4,2.1-1.6,2.1-4.4,2.1M517.9,350.8h4.1v2.9h1.7v-10.9h-1.7v2.9h-4.1v-1.8h-1.6v2.9h-4.8v-2.9h-1.6v8.4h8.1v-1.6h-.1ZM516.3,351h-4.8v-2.9h4.8v2.9ZM522.1,349.4h-4.1v-2.3h4.1v2.3ZM487.3,356.9c3.2,0,7.6,0,11.6-.8v-1.2c-4.1.6-8.6.6-11.8.6l.2,1.4h0ZM499.9,360.8h1.6v-18h-1.6v18ZM492.8,345.5c1.9,0,3.2,1.1,3.2,2.8s-1.3,2.8-3.2,2.8-3.2-1.2-3.2-2.8,1.3-2.8,3.2-2.8M492.8,344.1c-2.8,0-4.8,1.7-4.8,4.2s2,4.2,4.8,4.2,4.8-1.7,4.8-4.2-2-4.2-4.8-4.2M483.5,347.5v-4.6h-1.6v10.9h1.6v-4.9h2.7v-1.4h-2.7ZM477.8,354.2c-3.7,0-5.9,1.2-5.9,3.3s2.3,3.3,5.9,3.3,5.9-1.2,5.9-3.3-2.3-3.3-5.9-3.3M477.8,359.5c-2.7,0-4.3-.7-4.3-2s1.6-2,4.3-2,4.3.7,4.3,2-1.6,2-4.3,2M479.9,351.3c-2.6-.9-4.3-3.1-4.3-5.5v-2h-1.6v1.8c0,2.7-1.7,5.2-4.5,6.2l.9,1.3c2.1-.8,3.7-2.4,4.4-4.5.8,1.8,2.3,3.3,4.3,4l.9-1.3h0ZM457.4,345.7c1.7,0,3,1.9,3,4.8s-1.2,4.8-3,4.8-3-1.9-3-4.8,1.2-4.8,3-4.8M457.4,344.2c-2.7,0-4.6,2.4-4.6,6.3s1.9,6.3,4.6,6.3,4.6-2.4,4.6-6.3-1.9-6.3-4.6-6.3M465.2,360.8h1.6v-18h-1.6v18ZM434.5,359.4v-1.6h10.4v-3.7h-12v1.2h10.4v1.4h-10.4v3.9h12.6v-1.2h-11ZM435,353.4h1.6v-2.8c1.7,0,3.5-.2,5.3-.5v-1.1c-3.9.4-8.3.5-11.8.5l.2,1.2h4.7v2.7h0ZM435.9,348.5c2.7,0,4.4-1,4.4-2.7s-1.8-2.7-4.4-2.7-4.4,1-4.4,2.7,1.8,2.7,4.4,2.7M435.9,344.3c1.8,0,2.9.6,2.9,1.6s-1.1,1.5-2.9,1.5-2.9-.6-2.9-1.5,1.1-1.6,2.9-1.6M439.6,351.4v1.1h3.6v.9h1.6v-10.5h-1.6v8.5h-3.6ZM426.4,342.8v7.2h-2.4v-6.7h-1.5v16.6h1.5v-8.5h2.4v9.4h1.6v-17.9h-1.6ZM413.4,345.1v1.3h5.4c-.2,3.7-1.9,7-6.1,9.3l1,1.2c5.1-2.9,6.7-7.2,6.7-11.8h-7ZM411.6,345.8c-.8-.9-1.9-1.5-3.4-1.5-2.8,0-5.4,2.2-5.4,7.9s2.1,7.3,4.9,7.3,4.2-1.9,4.2-4.8-1.6-4.6-4.1-4.6-2.4.7-3.3,1.8c0-4.6,1.8-6.1,3.8-6.1s1.8.4,2.4,1.1l1-1.1h-.1ZM407.6,358.1c-1.8,0-2.9-1.7-3.2-4.7,1-1.4,2.1-1.9,3-1.9,1.8,0,2.6,1.3,2.6,3.2s-1.1,3.3-2.5,3.3M393.8,342.8v4h-4.6c-.8-1.7-2.1-2.6-3.7-2.6-2.6,0-4.5,2.4-4.5,6.3s1.9,6.3,4.5,6.3,3.1-1.1,3.9-2.9h4.5v7h1.6v-18h-1.7,0ZM385.5,355.3c-1.7,0-2.9-1.9-2.9-4.8s1.2-4.8,2.9-4.8,2.9,1.9,2.9,4.8-1.2,4.8-2.9,4.8M389.7,352.5c.1-.6.2-1.3.2-2s-.1-1.6-.3-2.3h4.1v4.3h-4.1,0ZM380,350.2h-2.9v-7.4h-1.6v17.9h1.6v-9.2h2.9v-1.4h0ZM369.3,343h-1.6v2.7h-4.5v1.3h10.6v-1.3h-4.4v-2.7h-.1ZM368.5,348.5c-2.5,0-4.3,1.7-4.3,4.1s1.8,4.1,4.3,4.1,4.4-1.7,4.4-4.1-1.8-4.1-4.4-4.1M368.5,355.4c-1.6,0-2.8-1.2-2.8-2.8s1.2-2.8,2.8-2.8,2.8,1.2,2.8,2.8-1.2,2.8-2.8,2.8M359.5,342.8v7.2h-2.5v-6.8h-1.5v16.6h1.5v-8.5h2.5v9.4h1.6v-17.9h-1.6ZM348.1,346.3h5.1v-1.3h-6.7v11.3h1.2c2.7,0,4.5,0,6.6-.5v-1.4c-2.1.4-3.8.5-6.2.5v-8.6ZM333.5,345c1.8,0,3.1,1.1,3.1,2.8s-1.3,2.8-3.1,2.8-3.1-1.1-3.1-2.8,1.3-2.8,3.1-2.8M333.5,343.7c-2.7,0-4.7,1.7-4.7,4.1s2,4.1,4.7,4.1,4.7-1.7,4.7-4.1-2-4.1-4.7-4.1M333.2,356.8h8.3v2.4h-8.3v-2.4ZM331.6,353.3v7.2h11.6v-7.2h-1.6v2.2h-8.3v-2.2h-1.7ZM341.5,352.5h1.6v-9.6h-1.6v9.6ZM320.1,360.8h1.6v-17.9h-1.6v17.9ZM316.6,349.8h-2.3c-.2-3.4-1.6-5.5-3.8-5.5s-3.8,2.4-3.8,6.2,1.5,6.3,3.8,6.3,3.7-2.2,3.8-5.7h2.3v8.7h1.6v-16.7h-1.6v6.6h0ZM310.5,355.3c-1.4,0-2.3-1.8-2.3-4.8s.9-4.7,2.3-4.7,2.3,1.8,2.3,4.7-.9,4.8-2.3,4.8M305.3,354.5h-16.3v1.3h7.3v5h1.7v-5h7.3v-1.3ZM291.3,350.2c0,1.9,2.2,3,5.8,3s5.8-1.1,5.8-3-2.2-3-5.8-3-5.8,1.1-5.8,3M301.3,350.2c0,1.1-1.5,1.7-4.1,1.7s-4.1-.6-4.1-1.7,1.5-1.7,4.1-1.7,4.1.6,4.1,1.7M304.3,344.9h-6.3v-2.2h-1.7v2.2h-6.4v1.3h14.4v-1.3ZM276.9,345.7c1.7,0,3,1.9,3,4.8s-1.2,4.8-3,4.8-3-1.9-3-4.8,1.2-4.8,3-4.8M276.9,344.2c-2.7,0-4.6,2.4-4.6,6.3s1.9,6.3,4.6,6.3,4.6-2.4,4.6-6.3-1.9-6.3-4.6-6.3M284.7,360.8h1.6v-18h-1.6v18ZM254.4,359.2v-2h10v-4.3h-11.6v1.3h10v1.8h-10v4.5h12.2v-1.3h-10.6ZM259.3,347.5c0-2.4-2-4-4.6-4s-4.6,1.6-4.6,4,1.9,4,4.6,4,4.6-1.6,4.6-4M251.7,347.5c0-1.6,1.3-2.7,3-2.7s3,1.1,3,2.7-1.3,2.6-3,2.6-3-1.1-3-2.6M264.4,342.8h-1.6v9.2h1.6v-9.2ZM240.3,359.3h8v-1.5h-2.9v-13.1h-1.4c-.8.5-1.7.8-3,1v1.2h2.6v10.9h-3.3v1.5h0ZM221.9,359.4v-1.6h10.4v-3.7h-12v1.2h10.4v1.4h-10.4v3.9h12.6v-1.2h-11ZM222.4,353.4h1.6v-2.8c1.7,0,3.5-.2,5.3-.5v-1.1c-3.9.4-8.3.5-11.8.5l.2,1.2h4.7v2.7h0ZM223.3,348.5c2.7,0,4.4-1,4.4-2.7s-1.8-2.7-4.4-2.7-4.4,1-4.4,2.7,1.8,2.7,4.4,2.7M223.3,344.3c1.8,0,2.9.6,2.9,1.6s-1.1,1.5-2.9,1.5-2.9-.6-2.9-1.5,1.1-1.6,2.9-1.6M227,351.4v1.1h3.6v.9h1.6v-10.5h-1.6v8.5h-3.6ZM208.2,359.3h8v-1.5h-2.9v-13.1h-1.4c-.8.5-1.7.8-3,1v1.2h2.6v10.9h-3.3v1.5h0ZM190.4,359v-4h-1.6v5.4h12v-1.3h-10.4ZM195.6,351.4c-2.7.5-5,.6-7.5.6v-8h-1.6v9.3h1.4c2.6,0,5.1-.1,7.9-.7l-.2-1.4v.2h0ZM198.6,356.1h1.7v-13.3h-1.7v2.3h-5.1v1.3h5.1v2.1h-5.1v1.3h5.1v6.2h0ZM179.9,358.2c-1.8,0-3.1-1.1-3.1-2.7s.8-2.6,2-3.3c2.1.8,3.9,1.6,3.9,3.5s-1.1,2.5-2.8,2.5M180.9,351.3c-1.7-.7-3.3-1.4-3.3-3.2s1-2.4,2.3-2.4,2.5,1.2,2.5,2.6-.5,2.1-1.5,3M179.9,359.5c2.8,0,4.6-1.7,4.6-3.8s-1.2-3.1-2.5-3.8h0c.9-.8,2-2.1,2-3.6,0-2.3-1.5-3.9-4-3.9s-4,1.5-4,3.7.9,2.6,2,3.4h0c-1.3.8-2.7,2.2-2.7,4.1s2,3.9,4.7,3.9M169.8,358.1c-1.7,0-2.8-1.9-2.8-6.2s1.1-6.1,2.8-6.1,2.8,1.8,2.8,6.1-1.1,6.2-2.8,6.2M169.8,359.5c2.8,0,4.6-2.5,4.6-7.6s-1.8-7.6-4.6-7.6-4.6,2.5-4.6,7.6,1.8,7.6,4.6,7.6M159.7,358.1c-1.7,0-2.8-1.9-2.8-6.2s1.1-6.1,2.8-6.1,2.8,1.8,2.8,6.1-1.1,6.2-2.8,6.2M159.7,359.5c2.8,0,4.6-2.5,4.6-7.6s-1.8-7.6-4.6-7.6-4.6,2.5-4.6,7.6,1.8,7.6,4.6,7.6M144.9,359.3h9.2v-1.6h-4.1c-.7,0-1.6,0-2.4.1,3.4-3.3,5.7-6.2,5.7-9.2s-1.6-4.3-4.3-4.3-3.1.9-4.3,2.2l1.1,1c.8-1,1.8-1.7,3-1.7,1.8,0,2.7,1.2,2.7,2.9,0,2.5-2.1,5.4-6.7,9.5v1.1h.1Z"/>
  <path class="cls-4" d="M370,294.7c0-2,1.1-3.1,3.4-3.1s3.5.9,3.5,2.8-.1,1.1-.4,1.6-.6,1-1,1.5-.8,1-1.3,1.5-.9,1-1.3,1.6c-.4.5-.8,1.1-1,1.8s-.4,1.3-.4,2v1.3c0,.5.3.8.8.8h2c.6,0,.8-.3.8-.8v-.7c0-.7.1-1.3.4-1.8.3-.6.6-1.1,1-1.6s.8-1,1.3-1.5.9-1,1.3-1.6.8-1.2,1-1.8c.3-.6.4-1.4.4-2.2,0-2.1-.6-3.7-1.8-4.7-1.2-1.1-3-1.6-5.3-1.6s-4,.6-5.2,1.7-1.8,2.8-1.8,4.8v.5c0,.6.3.8.8.8h2c.6,0,.8-.3.8-.8v-.5h0ZM371.4,310.7c0,.5.3.8.8.8h2c.6,0,.8-.3.8-.8v-2.1c0-.5-.3-.8-.8-.8h-2c-.5,0-.8.3-.8.8v2.1ZM354.9,311.4h2.5c.8,0,1.5,0,2.2-.1.7,0,1.3-.1,1.9-.2.5,0,.8-.3.8-.8v-1.8c-.1-.2-.2-.5-.3-.6-.1-.1-.3-.2-.6-.2-1.3.1-2.8.2-4.3.3-1.5,0-3,.1-4.6.1s-1.7-.1-2.1-.4c-.5-.3-.7-.8-.7-1.4v-.8c0-.2,0-.5.1-.8,0-.3,0-.5-.2-.6s-.4-.2-.6-.2h-2c-.3,0-.5,0-.6.2-.1.1-.2.3-.2.6v2.2c0,1.5.5,2.7,1.6,3.5,1,.8,2.5,1.2,4.4,1.2h2.9M361.6,299.1c0-.4.1-.7.4-1s.6-.4,1-.4h.9c.5,0,.8-.3.8-.8v-1.8c0-.5-.3-.8-.8-.8h-.8c-.4,0-.7,0-.9.2-.3.1-.5.3-.6.5v-5.6c0-.6-.3-.8-.8-.8h-2c-.5,0-.8.3-.8.8v14c0,.5.3.8.8.8h2c.5,0,.8-.3.8-.8v-4.3h0ZM353,296.9h1.8c.6,0,.7-.2.7-.7v-1.5c0-.5-.2-.7-.7-.7h-.5c.9-.5,1.3-1.2,1.3-2.2s-.4-1.5-1.1-2c-.7-.4-1.9-.7-3.5-.7h-4.3c-.4,0-.8,0-1.3.2-.3,0-.4.1-.5.2s-.2.3-.2.5v1.7c0,.5.2.7.8.7.9-.1,1.6-.2,2.3-.3h2c.7,0,1.4,0,1.7.1.3.1.4.3.4.6s-.1.4-.4.5c-.3,0-.8.1-1.6.1-2.1,0-3.6.3-4.6,1-.9.7-1.4,1.7-1.4,3.1s.5,2.4,1.4,3.1,2.5,1,4.6,1,1.9,0,2.9-.2,1.9-.4,2.7-.7c.3,0,.5-.2.6-.4v-.6l-.4-1.5c0-.4-.3-.6-.6-.6s-.1,0-.2,0h-.2c-.6.3-1.3.5-2.1.6-.8.1-1.5.2-2.2.2h-1.5c-.4,0-.7,0-.9-.2-.2,0-.4-.2-.5-.3s-.1-.3-.1-.5,0-.4.1-.5c0-.1.3-.2.5-.3.3,0,.6-.1,1.1-.1h3.5M337.2,310.2c0,.5.3.8.8.8h2c.5,0,.8-.3.8-.8v-20.8c0-.6-.3-.8-.8-.8h-2c-.5,0-.8.3-.8.8v20.8ZM326.3,296.4c0-.7.2-1.3.4-1.8.2-.4.4-.8.7-1,.3-.2.6-.3,1-.3s.8.1,1.1.3c.3.2.5.5.7,1s.3,1,.4,1.8c0,.7.1,1.6.1,2.6s0,1.9-.1,2.6c0,.7-.2,1.3-.4,1.8-.2.5-.4.8-.7,1-.3.2-.6.3-1.1.3-.8,0-1.4-.4-1.8-1.3s-.5-2.3-.5-4.4,0-1.9.1-2.6M324.1,292.1c-.9,1.4-1.4,3.7-1.4,6.9s.5,5.5,1.4,6.9,2.4,2.2,4.4,2.2,3.5-.7,4.5-2.2c.9-1.5,1.4-3.8,1.4-6.9s-.5-5.5-1.4-6.9-2.4-2.2-4.5-2.2-3.5.7-4.4,2.2M312.6,308.7c.5.5,1,.9,1.6,1.3s1.3.7,2.1.9c.8.2,1.6.3,2.5.3s.3,0,.4,0h.4c.1,0,.2-.1.3-.2,0-.1.1-.2.1-.5v-1.9c0-.5-.3-.7-.8-.7-.8,0-1.5-.1-2.2-.3-.7-.2-1.3-.5-1.8-.9s-1-.8-1.3-1.3-.5-1-.5-1.6v-.4c0-.5-.3-.8-.8-.8h-2c-.5,0-.8.3-.8.8v.4c0,.6-.2,1.1-.5,1.6s-.7.9-1.3,1.3c-.5.4-1.2.7-1.9.9-.7.2-1.5.3-2.2.3s-.8.2-.8.7v1.9c0,.2,0,.4.1.5,0,0,.2.2.3.2h.8c.9,0,1.7-.1,2.5-.3.8-.2,1.5-.5,2.1-.9s1.2-.8,1.6-1.3c.5-.5.8-1,1.1-1.5.2.5.6,1,1.1,1.5M316,301.7c0,.5.3.8.8.8h2c.6,0,.8-.3.8-.8v-12.2c0-.6-.3-.8-.8-.8h-2c-.5,0-.8.3-.8.8v12.2ZM311,300.7c.8-.1,1.5-.3,2.2-.5.5-.2.7-.5.6-1l-.4-1.8c-.1-.4-.3-.6-.6-.6s-.2,0-.3,0c-.5.2-1.1.3-1.8.4-.7.1-1.3.2-1.9.2-1.3,0-2.3-.2-2.9-.6s-.9-1-.9-1.9.3-1.5,1-1.9c.6-.4,1.7-.6,3.1-.6h1.5c.5,0,1,0,1.5.2.5,0,.8-.2.8-.8v-1.8c0-.3,0-.5-.2-.6-.1-.1-.3-.2-.6-.2-.6,0-1.1-.1-1.7-.2h-1.6c-2.5,0-4.4.5-5.6,1.4-1.2,1-1.8,2.4-1.8,4.4s.6,3.4,1.8,4.4c1.2,1,3,1.4,5.5,1.4s1.3,0,2.2-.2M295,310.3c0,.5.3.8.8.8h1.8c.5,0,.8-.3.8-.8v-20.9c0-.5-.3-.8-.8-.8h-1.8c-.5,0-.8.3-.8.8v20.9ZM290.3,310.3c0,.5.3.8.8.8h1.8c.5,0,.8-.3.8-.8v-20.6c0-.5-.3-.8-.8-.8h-1.8c-.5,0-.8.3-.8.8v6.7c0,.5-.3.7-.8.7h-.7c-.5,0-.7.2-.7.7v2.1c0,.5.2.7.7.7h.7c.3,0,.6-.1.8-.4v10.1h0ZM281,290.3c-.6,0-1.2.1-1.8.2-.3,0-.5.1-.6.2s-.2.3-.2.5v2c0,.5.3.7.8.7.8-.1,1.4-.2,1.8-.3h1.3c.6,0,1.1.1,1.5.4.3.3.5.7.5,1.4,0,1.1-.6,1.7-1.8,1.7s-2.8.5-3.6,1.4c-.8.9-1.2,2.3-1.2,4s.5,3.1,1.5,4,2.4,1.4,4.2,1.4,1.4,0,2.2-.2,1.5-.3,2.2-.6c.3-.1.5-.2.6-.4.1-.1.1-.3,0-.6l-.5-1.8c-.1-.4-.3-.6-.6-.6s-.2,0-.3,0c-.6.2-1.2.4-1.8.5-.6.1-1.1.2-1.5.2-.8,0-1.5-.2-2-.5-.4-.3-.7-.8-.7-1.5s.2-1.3.7-1.6c.4-.3,1.2-.5,2.3-.5h2.7c.7,0,.7-.2.7-.7v-1.7c0-.5-.2-.7-.7-.7h-.3c.9-.8,1.3-1.9,1.3-3.4s-.4-2.2-1.3-2.8c-.8-.6-2.1-.9-3.7-.9h-1.8M260.9,305.8c-1.6,0-2.9-.2-4-.3-.3,0-.5,0-.6.1s-.2.3-.2.6v1.9c0,.5.3.7.8.8,1.1.2,2.4.3,4,.3h10.3c.8,0,1.5,0,2.1-.1.6,0,1.1-.1,1.5-.2.5,0,.8-.4.8-.8v-1.9c0-.3,0-.5-.2-.6s-.3-.2-.6-.1c-.4,0-.9.1-1.5.2s-1.3,0-2.1.1h-5.3c-1.8,0-3.4,0-5-.1M270.3,296.4h-6.2c-1,0-1.9,0-2.8.1-.9,0-1.6,0-2.2.1-.5,0-.8.3-.8.8v1.8c0,.2,0,.5.2.6.1.2.3.2.6.2.7,0,1.4,0,2.3-.1.9,0,1.8,0,2.8-.1,1,0,2,0,3-.1h2.9c0,.3,0,.7-.1,1,0,.3,0,.6-.2.9v.5c0,.1.3.2.5.2l2.1.3h.6c.1,0,.2-.2.3-.5.2-.9.3-2,.4-3.1,0-1.2.1-2.3.1-3.4,0-1.9-.5-3.3-1.5-4.2-1-1-2.4-1.4-4.2-1.4h-4.3c-1.5,0-3.2.2-5,.3-.2,0-.4.1-.6.2-.1.1-.2.3-.2.5v2c0,.2,0,.4.2.5.1.1.3.2.6.2,1.7,0,3.2-.2,4.6-.3,1.4,0,2.6-.1,3.8-.1s1.7.3,2.2.8.8,1.2.8,2.2h.1ZM244.2,299.9c.5,0,.8-.3.8-.8v-1.7c0-.5-.3-.8-.8-.8h-1.9c.7-.4,1.2-1,1.7-1.7.4-.8.6-1.6.6-2.5,0-2.2-1.2-3.3-3.8-3.3h-10.5c-1,0-1.4.5-1.4,1.4v6.6c0,1.8,1,2.7,3.1,2.7h12.2,0ZM243.1,305.2c1.1,0,1.9-.2,2.5-.3.5,0,.8-.4.8-.8v-1.8c0-.3,0-.5-.2-.6-.1-.1-.4-.2-.6-.1-.4,0-.9.1-1.5.2-.6,0-1.3,0-2.1.1h-5.3c-1.8,0-3.4,0-5-.1-1.6,0-2.9-.2-4-.3-.3,0-.5,0-.6.2-.1.1-.2.3-.2.6v1.8c0,.5.3.7.8.8,1,.1,2.2.2,3.5.3,1.4,0,2.8.1,4.4.1-.2,0-.4.3-.6.5-.1.2-.2.5-.2.7v2.8c0,.5.3.8.8.8h2c.5,0,.8-.3.8-.8v-3c0-.7.4-1.1,1.1-1.1,1.3,0,2.5,0,3.6-.1M232.5,293.3c0-.5.2-.7.7-.7h6.1c.5,0,.9.1,1.2.3.3.2.4.6.4,1.2s-.2,1.4-.7,1.8c-.4.4-1,.6-1.7.6h-5c-.7,0-1.1-.3-1.1-.9v-2.3h.1ZM210.2,293.6h8.3v.8c0,.2-.1.4-.2.5-.1,0-.3.1-.6.1h-6.7c-.3,0-.5,0-.6-.1-.1,0-.2-.3-.2-.5v-.8ZM211.5,303.7c-1.7,0-3.2.2-4.4.3-.5,0-.8.3-.8.8v1.8c0,.2,0,.4.2.6.1.1.3.2.6.2,1.4-.1,3-.2,4.6-.3,1.7,0,3.5-.2,5.5-.2s1.2.1,1.5.4.4.8.4,1.4v.8c0,.2,0,.5-.1.8,0,.3,0,.5.2.6.1.1.3.2.6.2h2c.5,0,.8-.3.8-.8s0-.5.1-.9v-1.5c0-1.5-.4-2.6-1.2-3.4-.8-.7-2.1-1.1-3.8-1.1-2.5,0-4.6,0-6.3.1M219.2,297.9c1.8,0,2.7-.8,2.8-2.4l.4-5.5c0-.5-.2-.8-.8-.8h-2c-.5,0-.8.2-.9.7v.8h-8.8v-.8c0-.5-.3-.7-.9-.7h-2c-.3,0-.5,0-.6.2s-.2.3-.2.6l.4,5.5c.1,1.6,1.1,2.4,2.8,2.4h3v.9c0,.4.2.7.5.9h-7.7c-.5,0-.8.2-.8.8v1.5c0,.5.3.8.8.8,1.1,0,2.4.1,4,.2h13.9c.5,0,.8-.3.8-.8v-1.5c0-.6-.3-.8-.9-.8h-6.2c-.6,0-.9-.3-.9-.8v-.9h3l.3-.3h0ZM201,310.1v-1.8c-.1-.3-.2-.5-.4-.6s-.4-.2-.6-.2c-.7,0-1.4.1-2.2.2-.8,0-1.7.1-2.6.1h-5.7c-1,0-1.9-.6-1.9-1.7v-2.1c0-.2,0-.4-.2-.6s-.4-.2-.7-.2h-2c-.5,0-.8.3-.8.8v2.5c0,1.5.4,2.6,1.3,3.4s2.1,1.2,3.8,1.2,3.9,0,5.8-.1c1.9,0,3.7-.2,5.3-.3.5,0,.8-.3.8-.8M192.3,289.2h-2.7c-.9,0-1.7,0-2.4.1-.7,0-1.4,0-1.9.1-.2,0-.4.1-.6.2-.2.1-.2.3-.2.5v1.9c0,.2,0,.4.2.5.1.1.3.2.6.2,1.7-.1,3.3-.2,4.7-.3,1.5,0,2.9-.1,4.2-.1s2.4.8,2.4,2.2,0,1.3-.2,1.9c-.1.6-.3,1.1-.4,1.4h-8.8c-1.6,0-2.9,0-4-.2-.5,0-.8.2-.8.8v1.5c0,.5.3.8.8.8h8.2c-.3.2-.5.5-.5.9v3.1c0,.6.3.8.8.8h2c.5,0,.8-.3.8-.8v-3.2c0-.5.3-.8.9-.8h5.8c.5,0,.8-.3.8-.8v-1.5c0-.6-.3-.8-.9-.8h-1.6c.2-.6.3-1.2.4-1.9.1-.7.2-1.4.2-2.2,0-1.6-.4-2.7-1.2-3.5s-2-1.1-3.8-1.1h-2.9"/>
  <path class="cls-7" d="M148.3,304.1c2.5,1.5,9.1,1,10.6-5,.4-1.8,0-3.3,2.1-5.7,3.6-4.5,13.2-2.9,13.1,5.5,1-19.8-28.5-21.6-29.9-1.9,0,2.1.5,5.1,4.2,7.1"/>
  <path class="cls-1" d="M173.9,299.1c.4-2.8-1.7-5.9-2.8-6.5-5.2-4-11.1,0-11.9,3.8-.3,1-.3,2.5-.4,2.7-.8,3.5-4,5.1-5.2,5.4-6.6,1.6-9.8-3.8-9.6-7.5-.9,19.6,28.1,21.5,29.9,2.1"/>
  <path class="cls-7" d="M148.3,468.9c2.5,1.5,9.1,1,10.6-5,.4-1.8,0-3.3,2.1-5.7,3.6-4.5,13.2-2.9,13.1,5.5,1-19.8-28.5-21.6-29.9-1.9,0,2.1.5,5.1,4.2,7.1"/>
  <path class="cls-1" d="M173.9,463.9c.4-2.8-1.7-5.9-2.8-6.5-5.2-4-11.1,0-11.9,3.8-.3,1-.3,2.5-.4,2.7-.8,3.5-4,5.1-5.2,5.4-6.6,1.6-9.8-3.8-9.6-7.5-.9,19.6,28.1,21.5,29.9,2.1"/>
  <path class="cls-7" d="M148.3,602.7c2.5,1.5,9.1,1,10.6-5,.4-1.8,0-3.3,2.1-5.7,3.6-4.5,13.2-2.9,13.1,5.5,1-19.8-28.5-21.6-29.9-1.9,0,2.1.5,5.1,4.2,7.1"/>
  <path class="cls-1" d="M173.9,597.7c.4-2.8-1.7-5.9-2.8-6.5-5.2-4-11.1,0-11.9,3.8-.3,1-.3,2.5-.4,2.7-.8,3.5-4,5.1-5.2,5.4-6.6,1.6-9.8-3.8-9.6-7.5-.9,19.6,28.1,21.5,29.9,2.1"/>
  <path class="cls-7" d="M148.3,729.6c2.5,1.5,9.1,1,10.6-5,.4-1.8,0-3.3,2.1-5.7,3.6-4.5,13.2-2.9,13.1,5.5,1-19.8-28.5-21.6-29.9-1.9,0,2.1.5,5.1,4.2,7.1"/>
  <path class="cls-1" d="M173.9,724.6c.4-2.8-1.7-5.9-2.8-6.5-5.2-4-11.1,0-11.9,3.8-.3,1-.3,2.5-.4,2.7-.8,3.5-4,5.1-5.2,5.4-6.6,1.6-9.8-3.8-9.6-7.5-.9,19.6,28.1,21.5,29.9,2.1"/>
  <g>
    <path class="cls-5" d="M155.1,651.1h-8.1v-7.8h1.6v2.6h4.8v-2.5h1.6v1.7h4.1v-2.5h1.6v9.4h-1.6v-2.3h-4.1v1.6-.2ZM153.5,647.1h-4.8v2.7h4.8v-2.7ZM161.6,658.8v1.3h-12.2v-4.4h9.9v-1.7h-9.9v-1.3h11.6v4.3h-9.9v1.9h10.6-.1ZM155.1,646.3v2h4.1v-2h-4.1Z"/>
    <path class="cls-5" d="M179.8,656.8v1.4h-16.3v-1.4h7.3v-4.6h-5.2v-8.3h12.2v1.3h-10.5v5.6h10.7v1.3h-5.5v4.6h7.3Z"/>
    <path class="cls-5" d="M181.1,655.1c3.3,0,7.8,0,11.7-.6v1.2c-3.9.8-8.2.8-11.5.8l-.2-1.4ZM191.6,648c0,2.5-2,4.2-4.8,4.2s-4.8-1.7-4.8-4.2,2-4.2,4.8-4.2,4.8,1.7,4.8,4.2ZM183.6,648c0,1.7,1.3,2.8,3.2,2.8s3.2-1.2,3.2-2.8-1.3-2.8-3.2-2.8-3.2,1.1-3.2,2.8ZM195.6,642.4v18h-1.6v-18h1.6Z"/>
    <path class="cls-5" d="M211.8,652.7c-2-.8-3.6-2.4-4.4-4.4-.8,2.2-2.4,3.9-4.5,4.8l-.9-1.3c2.7-1,4.5-3.6,4.5-6.4v-1.8h1.6v1.8c0,2.7,1.8,5.1,4.5,6.1l-.9,1.3h0ZM217.1,658.6v1.3h-12.1v-5.6h1.6v4.3h10.5ZM216.6,655.6h-1.6v-13.2h1.6v13.2Z"/>
    <path class="cls-5" d="M229.1,652.6c-2.1-.6-3.7-2-4.5-3.7-.8,2-2.4,3.5-4.5,4.2l-.8-1.3c2.6-.9,4.4-3.1,4.4-5.5v-.3h-4v-1.3h4v-2.2h1.6v2.2h4v1.3h-4v.3c0,2.2,1.9,4.2,4.5,5l-.8,1.3h.1ZM234.1,657.1c0,2.1-2.3,3.3-6,3.3s-6-1.2-6-3.3,2.3-3.3,6-3.3,6,1.2,6,3.3ZM232.4,657.1c0-1.2-1.6-2-4.4-2s-4.3.8-4.3,2,1.6,2,4.3,2,4.4-.8,4.4-2ZM232.4,647.5v-5.1h1.7v10.9h-1.7v-4.4h-3.6v-1.4h3.6Z"/>
    <path class="cls-5" d="M249.6,648c-.3,2.1-2.1,3.5-4.6,3.5s-4.6-1.7-4.6-4.1,1.9-4.1,4.6-4.1,4.2,1.4,4.6,3.4h3.7v-4.2h1.7v9.5h-1.7v-3.9h-3.7ZM248.1,647.4c0-1.6-1.3-2.8-3.1-2.8s-3.1,1.1-3.1,2.8,1.3,2.8,3.1,2.8,3.1-1.2,3.1-2.8ZM246.9,653h1.5v7.2h-6.2v-7.2h1.5v2.3h3.2v-2.3ZM246.9,656.4h-3.2v2.4h3.2v-2.4ZM253.5,654.4c0,1.9,1.1,3.9,3.3,4.7l-.8,1.2c-1.6-.7-2.7-1.9-3.2-3.4-.6,1.5-1.7,2.7-3.2,3.4l-.8-1.2c2.1-.9,3.3-2.9,3.3-4.7v-1.5h1.6v1.5h-.2Z"/>
    <path class="cls-5" d="M267.3,650.1c0,3.8-1.9,6.3-4.6,6.3s-4.6-2.4-4.6-6.3,1.9-6.3,4.6-6.3,4.6,2.4,4.6,6.3ZM259.7,650.1c0,2.9,1.2,4.8,3,4.8s3-1.9,3-4.8-1.2-4.8-3-4.8-3,1.9-3,4.8ZM272.2,642.4v18h-1.6v-18h1.6Z"/>
    <path class="cls-5" d="M294.7,656.7v1.3h-16.3v-1.3h7.3v-4.8h-5.3v-7.9h1.6v6.6h10.8v1.3h-5.5v4.8h7.4Z"/>
    <path class="cls-5" d="M305.4,652.1c-2.2.4-4,.4-7.6.4h-1.3v-5.3h6.1v-2.5h-6.1v-1.3h7.7v5h-6.1v2.7c3.3,0,5,0,7.1-.5l.2,1.4h0ZM310.6,657.2c0,2.1-2.3,3.3-6,3.3s-6-1.2-6-3.3,2.3-3.3,6-3.3,6,1.2,6,3.3ZM309,657.2c0-1.3-1.6-2-4.3-2s-4.4.8-4.4,2,1.6,2.1,4.4,2.1,4.3-.8,4.3-2.1ZM308.9,650.2h-3.5v-1.3h3.5v-2.3h-3.5v-1.3h3.5v-2.8h1.6v11.1h-1.6v-3.3h0Z"/>
    <path class="cls-5" d="M321.8,650.9c-.8,1.1-2.1,1.7-3.7,1.7-2.6,0-4.6-1.9-4.6-4.5s2-4.5,4.6-4.5,2.8.6,3.7,1.7h4.6v-2.8h1.7v13.2h-1.7v-4.8h-4.6ZM318.1,651.1c1.7,0,3-1.3,3-3.1s-1.3-3.1-3-3.1-3.1,1.3-3.1,3.1,1.3,3.1,3.1,3.1ZM328.5,658.6v1.3h-12v-5.6h1.7v4.3h10.3ZM322.5,646.6c.2.5.2,1,.2,1.5s0,1-.2,1.5h3.9v-3h-3.9Z"/>
    <path class="cls-5" d="M346.9,650v1.3h-16.3v-1.3h12.1c.5-2.2.5-3.9.5-5.3h-10.5v-1.3h12.1v1.3c0,1.4,0,3-.5,5.3h2.6,0ZM332.6,653.8h12.2v6.4h-12.2v-6.4ZM334.2,658.8h9v-3.7h-9v3.7Z"/>
    <path class="cls-5" d="M364.2,650.2v1.3h-16.2v-1.3h16.2ZM349.8,645.9c0-2,2.4-3.1,6.3-3.1s6.3,1.1,6.3,3.1-2.4,3.1-6.3,3.1-6.3-1.1-6.3-3.1ZM351.6,658.9h11.1v1.3h-12.7v-4.3h10.5v-1.6h-10.6v-1.2h12.2v4h-10.5v1.8ZM351.5,645.9c0,1.2,1.7,1.9,4.6,1.9s4.6-.7,4.6-1.9-1.7-1.9-4.6-1.9-4.6.7-4.6,1.9Z"/>
    <path class="cls-5" d="M378.7,652.6c-2.1-.6-3.7-2-4.5-3.7-.8,2-2.4,3.5-4.5,4.2l-.8-1.3c2.6-.9,4.4-3.1,4.4-5.5v-.3h-4v-1.3h4v-2.2h1.6v2.2h4v1.3h-4v.3c0,2.2,1.9,4.2,4.5,5l-.8,1.3h0ZM383.7,657.1c0,2.1-2.3,3.3-6,3.3s-6-1.2-6-3.3,2.3-3.3,6-3.3,6,1.2,6,3.3ZM382.1,657.1c0-1.2-1.6-2-4.4-2s-4.3.8-4.3,2,1.6,2,4.3,2,4.4-.8,4.4-2ZM382,647.5v-5.1h1.7v10.9h-1.7v-4.4h-3.6v-1.4h3.6Z"/>
    <path class="cls-5" d="M402.5,652.7h-7.3v7.7h-1.7v-7.7h-7.2v-1.3h11.9c.6-2.6.6-4.5.6-6.2v-.2h-10.4v-1.3h12v1.6c0,1.7,0,3.6-.5,6.2h2.7v1.3h-.1Z"/>
    <path class="cls-5" d="M414.3,645.3h-10.6v-1.3h4.5v-1.8h1.6v1.8h4.5v1.3ZM409,652c-2.6,0-4.3-1.1-4.3-2.9s1.7-2.9,4.3-2.9,4.3,1.1,4.3,2.9-1.7,2.9-4.3,2.9ZM407.9,658.9h10.4v1.3h-12v-4.2h9.7v-1.6h-9.8v-1.2h11.4v4h-9.7v1.7ZM409,650.8c1.7,0,2.7-.6,2.7-1.7s-1.1-1.7-2.7-1.7-2.7.6-2.7,1.7,1.1,1.7,2.7,1.7ZM420.3,646.7v1.4h-2.7v4.2h-1.6v-9.9h1.6v4.3h2.7Z"/>
    <path class="cls-5" d="M426.6,654.3c.7,0,1.5,0,2.4-.3l.2,1.4c-1.5.3-2.6.3-3.4.3h-.7v-11h3.8v1.3h-2.3v8.3ZM431.2,654.3c.8,0,1.8,0,2.8-.4v1.4c-1.3.4-2.6.4-3.6.4h-.7v-11h4v1.3h-2.5v8.3h0ZM440,642.4v17.9h-1.6v-9.3h-2.1v8.4h-1.5v-16.6h1.5v6.9h2.1v-7.3h1.6Z"/>
    <path class="cls-5" d="M454.4,651v3.3h5.3v6h-1.6v-4.7h-10.9v-1.3h5.6v-3.3h-7.3v-1.3h12.1c.5-2.2.5-3.7.5-5.1h-10.5v-1.3h12.1v1.3c0,1.3,0,3-.4,5.1h2.5v1.3h-7.4Z"/>
    <path class="cls-5" d="M472.2,652.3h-8.4v-8.3h8.4v8.3ZM470.6,645.3h-5.2v5.7h5.2v-5.7ZM478.1,658.5v1.3h-12.1v-5.7h1.6v4.3h10.5ZM477.6,655.3h-1.6v-12.9h1.6v12.9Z"/>
    <path class="cls-5" d="M488.8,650.9c-.8,1.1-2.1,1.7-3.7,1.7-2.6,0-4.6-1.9-4.6-4.5s2-4.5,4.6-4.5,2.8.6,3.7,1.7h4.6v-2.8h1.7v13.2h-1.7v-4.8h-4.6ZM485.1,651.1c1.7,0,3-1.3,3-3.1s-1.3-3.1-3-3.1-3.1,1.3-3.1,3.1,1.3,3.1,3.1,3.1ZM495.5,658.6v1.3h-12v-5.6h1.7v4.3h10.3ZM489.5,646.6c.2.5.2,1,.2,1.5s0,1-.2,1.5h3.9v-3h-3.9Z"/>
    <path class="cls-5" d="M513.9,650v1.3h-16.3v-1.3h12.1c.5-2.2.5-3.9.5-5.3h-10.5v-1.3h12.1v1.3c0,1.4,0,3-.5,5.3h2.6ZM499.6,653.8h12.2v6.4h-12.2v-6.4ZM501.2,658.8h9v-3.7h-9v3.7Z"/>
    <path class="cls-5" d="M531.2,650.8v1.3h-16.1v-1.3h6.6v-3.4h1.6v3.4h7.9ZM529.3,657.1c0,2-2.4,3.3-6.3,3.3s-6.2-1.2-6.2-3.3,2.4-3.3,6.2-3.3,6.3,1.2,6.3,3.3ZM527.6,644.7h-10.6v-1.3h12.2v1.5c0,1.4,0,2.9-.5,4.7l-1.6-.2c.5-1.8.5-3.2.5-4.6v-.2h0ZM527.7,657.1c0-1.3-1.8-2-4.6-2s-4.6.8-4.6,2,1.8,2,4.6,2,4.6-.8,4.6-2Z"/>
    <path class="cls-5" d="M543,651.6c-2.5.5-4.6.6-8.3.6h-1.4v-8.2h7.9v1.3h-6.3v5.6c3.5,0,5.6,0,7.9-.6l.2,1.3h0ZM536.8,658.6h10.3v1.3h-12v-5.9h1.6v4.5h.1ZM549,647.8v1.4h-2.7v6.3h-1.6v-13h1.6v5.3h2.7Z"/>
    <path class="cls-5" d="M560,642.8h1.6v16.7h-1.6v-8.7h-2.3c0,3.5-1.6,5.7-3.8,5.7s-3.8-2.4-3.8-6.3,1.5-6.2,3.8-6.2,3.6,2.1,3.8,5.5h2.3v-6.6h0ZM556.2,650.2c0-2.9-.9-4.7-2.3-4.7s-2.3,1.8-2.3,4.7.9,4.8,2.3,4.8,2.3-1.8,2.3-4.8ZM565.1,642.4v17.9h-1.6v-17.9h1.6Z"/>
    <path class="cls-5" d="M573.5,647.2c0,3.3,2,6.5,4.6,7.8l-1,1.3c-2-1-3.7-3.2-4.5-5.7-.8,2.7-2.4,4.9-4.5,6l-1-1.3c2.6-1.3,4.6-4.8,4.6-8.1v-3.2h1.6v3.2h.2ZM582,642.4v18h-1.6v-10.5h-4.2v-1.3h4.2v-6.1h1.6Z"/>
    <path class="cls-5" d="M604.4,650.4v1.3h-7.3v4.3h-1.6v-4.3h-7.4v-1.3h12.1c.5-2.3.5-4,.5-5.5h-10.5v-1.3h12.1v1.4c0,1.5,0,3.2-.4,5.5h2.5ZM591.8,658.6h10.9v1.3h-12.5v-5.6h1.6v4.3Z"/>
    <path class="cls-5" d="M621.7,651.7v1.3h-16.2v-1.3h7.3v-2.1h-5.2v-6.7h1.6v2h8.7v-2h1.6v6.7h-5.2v2.1h7.4ZM607.3,654.8h12.4v5.6h-1.6v-4.3h-10.8v-1.3h0ZM609.3,648.3h8.7v-2.1h-8.7v2.1Z"/>
    <path class="cls-5" d="M639.2,654.2h-7.4v6.2h-1.6v-6.2h-7.3v-1.3h16.3v1.3ZM637.1,650.4h-12.1v-7h12.1v7ZM635.5,644.8h-8.9v4.4h8.9v-4.4Z"/>
    <path class="cls-5" d="M653.6,650.1c0,3.8-1.9,6.3-4.6,6.3s-4.6-2.4-4.6-6.3,1.9-6.3,4.6-6.3,4.6,2.4,4.6,6.3ZM646,650.1c0,2.9,1.2,4.8,3,4.8s3-1.9,3-4.8-1.2-4.8-3-4.8-3,1.9-3,4.8ZM658.5,642.4v18h-1.6v-18h1.6Z"/>
    <path class="cls-5" d="M670.8,652.2c-2.2.4-4,.4-7.6.4h-1.3v-5.3h6.1v-2.5h-6.1v-1.3h7.7v5.1h-6.1v2.7c3.3,0,5,0,7.1-.4l.2,1.3h0ZM664,654.4h12v6h-1.6v-4.6h-10.4v-1.3h0ZM676,642.5v11h-1.6v-3.3h-3.5v-1.3h3.5v-2.4h-3.5v-1.3h3.5v-2.6h1.6Z"/>
    <path class="cls-5" d="M694.8,650.2v1.3h-16.2v-1.3h16.2ZM680.4,645.9c0-2,2.4-3.1,6.3-3.1s6.3,1.1,6.3,3.1-2.4,3.1-6.3,3.1-6.3-1.1-6.3-3.1ZM682.2,658.9h11.1v1.3h-12.7v-4.3h10.5v-1.6h-10.6v-1.2h12.2v4h-10.5v1.8ZM682.1,645.9c0,1.2,1.7,1.9,4.6,1.9s4.6-.7,4.6-1.9-1.7-1.9-4.6-1.9-4.6.7-4.6,1.9Z"/>
    <path class="cls-5" d="M710.8,653.3c-3.8.7-8.1.7-11.2.7l-.2-1.3h4.8v-1.3c-2.1-.2-3.4-1.2-3.4-2.6s1.7-2.7,4.2-2.7,4.2,1,4.2,2.7-1.3,2.4-3.4,2.6v1.2c1.6,0,3.3-.2,4.9-.4v1.2h.1ZM710.1,645.3h-10.3v-1.2h4.3v-1.8h1.6v1.8h4.3v1.2h.1ZM701.6,655.4h11.8v5h-1.6v-3.7h-10.2v-1.3ZM705,650.2c1.6,0,2.6-.6,2.6-1.5s-1-1.5-2.6-1.5-2.6.6-2.6,1.5,1,1.5,2.6,1.5ZM716,649.2h-2.6v5.2h-1.6v-12h1.6v5.4h2.6v1.4h0Z"/>
    <path class="cls-5" d="M722,652.5c-2.7,0-4.7-1.8-4.7-4.4s2-4.4,4.7-4.4,4.7,1.8,4.7,4.4-2,4.4-4.7,4.4ZM722,651.1c1.8,0,3.1-1.2,3.1-3s-1.3-3-3.1-3-3.1,1.2-3.1,3,1.3,3,3.1,3ZM732.1,658.6v1.3h-12.1v-5.8h1.6v4.4h10.5ZM731.6,655.6h-1.6v-13.1h1.6v13.1Z"/>
    <path class="cls-5" d="M739.5,645.5h3.6v1.3h-8.9v-1.3h3.6v-2.5h1.6v2.5h.1ZM742.6,652.1c0,2.4-1.6,4.1-3.8,4.1s-3.8-1.7-3.8-4.1,1.6-4.1,3.8-4.1,3.8,1.7,3.8,4.1ZM741.1,652.1c0-1.6-1-2.7-2.4-2.7s-2.4,1.1-2.4,2.7,1,2.7,2.4,2.7,2.4-1.1,2.4-2.7ZM749.5,642.4v17.9h-1.6v-9h-2.3v8.2h-1.5v-16.7h1.5v7.2h2.3v-7.6h1.6Z"/>
    <path class="cls-5" d="M764.3,644.4c0,5.1-2.3,9.7-8.1,12.6l-.9-1.3c4.6-2.3,7-5.7,7.4-10h-6.6v-1.4h8.2,0ZM771.8,651.1h-2.9v9.3h-1.6v-17.9h1.6v7.3h2.9v1.4h0Z"/>
    <path class="cls-5" d="M782.3,647.4c0,2.5-2,4.1-4.7,4.1s-4.7-1.7-4.7-4.1,2-4.1,4.7-4.1,4.7,1.7,4.7,4.1ZM774.6,647.4c0,1.6,1.3,2.8,3.1,2.8s3.1-1.1,3.1-2.8-1.3-2.8-3.1-2.8-3.1,1.1-3.1,2.8ZM777.3,653v2.2h8.3v-2.2h1.6v7.2h-11.6v-7.2h1.7ZM777.3,658.8h8.3v-2.4h-8.3v2.4ZM787.3,642.5v9.6h-1.6v-9.6h1.6Z"/>
    <path class="cls-5" d="M798.4,644.4c0,5.2-2.4,9.7-8.3,12.7l-.9-1.3c4.8-2.3,7.2-5.7,7.6-10h-6.7v-1.3h8.4,0ZM803.7,642.4v17.9h-1.6v-17.9h1.6Z"/>
    <path class="cls-5" d="M815.5,643.8c0,4.6-3.3,8-8.4,9.7l-.7-1.3c4.2-1.3,7-3.9,7.3-7h-6.6v-1.3h8.4ZM810.7,658.6h10.3v1.3h-12v-5.8h1.6v4.4h.1ZM822.9,647.9v1.4h-2.7v6.3h-1.6v-13.1h1.6v5.4h2.7Z"/>
    <path class="cls-5" d="M832.3,652.5c-2.7,0-4.7-1.8-4.7-4.4s2-4.4,4.7-4.4,4.7,1.8,4.7,4.4-2,4.4-4.7,4.4ZM832.3,651.1c1.8,0,3.1-1.2,3.1-3s-1.3-3-3.1-3-3.1,1.2-3.1,3,1.3,3,3.1,3ZM842.5,658.6v1.3h-12.1v-5.8h1.6v4.4h10.5ZM841.9,655.6h-1.6v-13.1h1.6v13.1Z"/>
    <path class="cls-5" d="M854.4,652.5c-2-.7-3.5-2.2-4.3-4-.8,2.1-2.4,3.8-4.5,4.6l-.9-1.3c2.7-1,4.5-3.4,4.5-6v-.6h-4v-1.3h9.6v1.3h-3.9v.6c0,2.3,1.8,4.6,4.4,5.5l-.8,1.3h0ZM859.4,657c0,2.1-2.3,3.3-6,3.3s-6-1.2-6-3.3,2.3-3.3,6-3.3,6,1.2,6,3.3ZM857.8,657c0-1.3-1.6-2.1-4.3-2.1s-4.3.8-4.3,2.1,1.6,2.1,4.3,2.1,4.3-.8,4.3-2.1ZM857.7,647.1v-4.6h1.7v10.7h-1.7v-4.7h-3.5v-1.3h3.5Z"/>
  </g>
</svg>