<svg width="360" height="331" viewBox="0 0 360 331" fill="none" xmlns="http://www.w3.org/2000/svg">
<g clip-path="url(#clip0_706_5775)">
<path d="M243.996 27.7202V45.2754C243.996 46.2357 245.486 46.2357 245.486 45.2754V27.7202C245.486 26.7599 243.996 26.7599 243.996 27.7202Z" fill="black"/>
<path d="M235.128 29.562V47.1172C235.128 48.0775 236.619 48.0775 236.619 47.1172V29.562C236.619 28.6017 235.128 28.6017 235.128 29.562Z" fill="black"/>
<path d="M226.089 33.3726V50.9227C226.089 51.883 227.58 51.883 227.58 50.9227V33.3726C227.58 32.4123 226.089 32.4123 226.089 33.3726Z" fill="black"/>
<path d="M252.855 29.562V47.1172C252.855 48.0775 254.346 48.0775 254.346 47.1172V29.562C254.346 28.6017 252.855 28.6017 252.855 29.562Z" fill="black"/>
<path d="M261.894 33.3726V50.9227C261.894 51.883 263.385 51.883 263.385 50.9227V33.3726C263.385 32.4123 261.894 32.4123 261.894 33.3726Z" fill="black"/>
<path d="M161.013 226.657L160.822 231.314L157.451 220.596C158.181 221.766 160.527 225.752 161.018 226.657H161.013Z" fill="white"/>
<path d="M312.466 185.31C312.506 191.212 313.022 197.339 312.141 203.195C311.471 207.757 310.515 212.278 309.199 216.709C308.254 219.915 307.509 223.306 305.728 226.192C303.897 229.153 300.805 230.668 297.338 231.479C293.061 232.499 288.208 232.439 284.471 232.754C279.473 233.174 274.455 233.444 269.438 233.539C266.881 233.599 264.23 233.779 261.678 233.574C259.902 233.434 257.096 233.964 256.19 232.299C256.105 232.139 256.03 231.974 255.985 231.804C255.53 230.393 256.075 228.613 256.19 227.328C256.671 221.891 253.479 211.488 251.398 211.488C248.951 212.183 244.954 212.838 242.153 213.178L242.128 212.988C242.418 206.396 243.013 185.42 242.673 180.299C242.398 176.222 242.458 165.629 242.773 161.558C242.933 159.618 243.759 157.497 243.178 155.566C242.143 152.11 243.518 150.185 243.959 146.839C244.409 143.418 245.159 140.537 245.525 137.081C246.32 135.09 247.331 133.31 248.726 131.684C249.317 131.004 250.052 129.904 250.867 129.109C251.023 128.959 251.208 128.834 251.398 128.754C251.953 128.488 252.623 128.503 253.164 128.864C254.55 129.759 256.04 131.699 256.681 132.53C258.372 134.715 259.622 137.511 261.638 139.387C262.029 138.236 261.979 137.006 262.204 135.821C262.774 132.87 263.665 129.979 264.74 127.173C265.28 125.773 265.866 124.377 266.506 123.022C267.071 121.801 267.992 120.661 268.462 119.426L268.512 119.451C279.563 123.432 292.45 129.359 301.55 136.866C305.097 139.802 308.364 143.283 309.885 147.714C311.666 152.936 311.831 158.862 312.006 164.319C312.231 171.316 312.421 178.318 312.471 185.325L312.466 185.31Z" fill="white"/>
<path d="M300.05 281.343C300.45 291.081 299.894 300.729 299.459 310.462C297.783 315.868 211.716 318.809 211.051 312.177C210.435 302.944 209.94 289.2 209.9 279.943L241.688 269.695V259.947C257.531 260.272 272.414 261.292 287.903 256.631C289.809 256.061 293.331 255.31 295.747 254.125L296.793 254.19C300 263.053 299.679 272.125 300.05 281.338V281.343Z" fill="#A4B8FF"/>
<path d="M297.942 244.843C298.032 247.314 299.433 250.87 297.687 252.791C297.232 253.296 296.551 253.736 295.746 254.136C293.334 255.321 289.807 256.066 287.901 256.642C272.413 261.298 257.53 260.283 241.686 259.958V238.506C242.872 235.876 243.512 233.125 245.698 231.119H245.758C245.743 231.484 245.718 231.849 245.693 232.214C245.603 232.49 245.868 232.96 246.148 233.02C246.429 233.07 246.714 232.96 246.979 232.855C249.705 231.759 253.007 232.114 255.984 231.809C256.034 231.984 256.109 232.149 256.189 232.304C257.094 233.97 259.901 233.44 261.677 233.58C264.228 233.785 266.885 233.605 269.436 233.545C274.454 233.445 279.467 233.18 284.47 232.76C288.207 232.445 293.059 232.505 297.337 231.484L297.427 231.884C297.867 236.196 297.767 240.522 297.942 244.848V244.843Z" fill="white"/>
<path d="M240.826 72.3333C239.65 71.328 237.759 71.413 236.389 72.2032C231.661 74.914 230.255 80.7307 226.678 84.6619L226.753 84.7269C226.363 85.8222 225.973 86.9175 225.593 88.0079C225.388 88.578 225.177 89.1532 224.927 89.7134C224.462 89.9284 224.197 90.4336 224.262 90.9487C224.112 91.2138 223.957 91.4389 223.762 91.6539C223.797 91.769 223.827 91.894 223.862 92.019L223.682 92.0591C223.432 92.1091 223.201 92.1741 222.991 92.2591L222.536 91.4139C219.269 84.4518 218.689 78.6001 221.02 71.1979C221.385 70.0876 222.166 67.8069 222.166 67.8069C218.559 68.8672 216.178 67.967 215.787 67.6169C215.787 67.6169 219.709 66.0814 222.991 63.5657C226.283 61.12 230.355 57.0938 237.069 55.4233C241.637 54.2379 245.499 54.1229 248.165 54.9832C250.211 55.4533 251.847 56.7587 251.947 56.8337C252.082 56.8187 252.222 56.7937 252.352 56.7687C254.814 56.3135 257.395 55.4933 258.986 53.5527C259.161 55.0132 258.861 56.3536 258.126 57.4589L258.756 57.5989C261.457 58.1691 264.089 59.7696 265.845 62.4904C266.85 63.9758 268.251 67.0567 269.682 68.7722C271.938 71.473 274.029 72.5683 274.029 72.5683C274.029 72.5683 271.278 73.0735 268.426 72.4283C268.426 72.4283 268.972 74.4989 269.487 75.5692C271.053 82.0411 269.562 86.6925 268.806 88.7631L266.685 88.8631C266.195 88.8631 265.66 88.9531 265.059 89.1432C264.904 89.0532 264.754 88.9531 264.609 88.8381C264.014 88.373 263.584 87.6878 263.198 87.0226C262.593 85.9723 262.023 84.8819 261.738 83.6966L261.773 83.6116C258.066 82.0361 255.754 78.35 252.282 76.1844C250.011 74.774 247.044 74.0388 244.423 73.6486C244.083 73.6586 243.743 73.6637 243.402 73.6637C243.242 73.6637 243.087 73.6637 242.937 73.6286C242.797 73.5936 242.662 73.5386 242.542 73.4786C241.912 73.1785 241.256 72.8734 240.826 72.3283V72.3333Z" fill="#C1BEC6"/>
<path d="M267.586 117.454C268.196 118.034 268.806 118.45 268.511 119.27C268.496 119.32 268.481 119.36 268.456 119.41C267.981 120.645 267.06 121.791 266.5 123.006C265.86 124.366 265.274 125.757 264.734 127.157C263.659 129.958 262.768 132.854 262.198 135.805C261.973 136.99 262.023 138.215 261.632 139.371C259.616 137.495 258.366 134.704 256.675 132.514C256.034 131.683 254.544 129.743 253.158 128.848C252.618 128.493 251.947 128.473 251.392 128.738C252.803 127.487 255.254 124.992 256.365 123.821C257.75 122.381 258.911 121.22 260.177 119.62C260.962 118.635 261.788 117.674 262.613 116.734C262.728 116.604 262.868 116.404 263.038 116.179C263.403 115.689 263.849 115.109 264.234 115.004C265.204 114.738 266.93 116.829 267.586 117.449V117.454Z" fill="white"/>
<path d="M248.254 94.5987C247.764 93.6034 247.408 92.6731 247.253 91.5878C247.193 91.1827 247.188 90.7325 247.433 90.4024C248.214 89.3521 250.45 88.817 252.716 88.5769C255.858 88.2618 257.949 88.3468 259.26 88.6169C259.665 88.7069 259.95 89.0621 259.95 89.4872C259.96 92.258 259.99 94.6687 259.08 95.4239C258.074 96.2542 252.481 97.3045 250.29 96.6493C249.214 96.3342 248.729 95.564 248.259 94.5937L248.254 94.5987Z" fill="white"/>
<path d="M226.198 91.7694C226.148 91.3642 226.373 90.9641 226.779 90.8241C228.039 90.3789 230.095 90.0138 233.247 89.9038C235.518 89.8288 237.815 90.0589 238.725 90.9891C239.025 91.2942 239.075 91.7343 239.065 92.1345C239.05 93.2348 238.825 94.2051 238.485 95.2504C238.145 96.2857 237.775 97.1059 236.754 97.5711C234.663 98.5163 228.975 98.2263 227.874 97.5461C226.869 96.9159 226.573 94.5202 226.198 91.7694Z" fill="white"/>
<path d="M270.078 96.3464C268.777 99.3723 267.267 99.9524 265.521 100.623C264.6 100.773 264.11 101.768 263.83 102.738C263.44 104.479 263.139 106.079 262.679 107.72C262.449 108.565 262.174 109.41 261.809 110.295C259.642 109.83 258.077 108.405 256.261 106.994C254.745 105.824 253.109 104.474 251.238 103.929C249.587 103.438 247.066 104.449 245.169 105.114C244.654 105.289 244.124 105.369 243.589 105.369C243.399 105.369 243.208 105.354 243.018 105.329C241.022 105.064 238.211 104.569 236.695 105.379C234.979 106.299 233.653 107.965 232.407 109.415C231.472 110.511 230.642 111.596 229.646 112.476C229.266 111.856 228.976 111.281 228.786 110.761C227.535 107.435 227.075 105.599 226.374 102.353C226.219 101.608 226.034 100.788 225.834 99.8524C225.154 96.6515 224.418 94.0007 223.888 92.0201C223.853 91.8951 223.823 91.77 223.788 91.655C223.978 91.4399 224.138 91.2149 224.288 90.9748C224.783 94.6559 225.414 98.0469 226.744 98.8971C228.185 99.8074 235.084 100.182 237.81 98.9221C240.522 97.6618 240.487 94.5358 240.847 93.5655C241.022 93.0754 241.187 92.4302 241.512 91.8851C241.838 91.3449 242.318 90.9048 243.123 90.8548C244.724 90.7447 245.245 92.3152 245.725 93.2354C246.205 94.1557 246.595 97.2466 249.462 98.1269C252.328 99.0122 259.122 97.7118 260.423 96.6114C261.619 95.5861 261.784 92.1451 261.774 88.414C261.784 87.8589 261.393 87.3687 260.863 87.2537C259.137 86.8736 256.411 86.7585 252.313 87.1887C247.381 87.6938 246.445 89.3093 243.018 89.4243C239.601 89.7794 238.461 88.299 233.508 88.464C229.381 88.5891 226.694 89.0842 225.043 89.6744C225.008 89.6844 224.978 89.6994 224.953 89.7144C225.204 89.1493 225.409 88.5791 225.619 88.0089C225.999 86.9136 226.389 85.8183 226.779 84.728L226.704 84.6629C230.276 80.7318 231.687 74.9151 236.415 72.2043C237.785 71.419 239.671 71.334 240.852 72.3343C241.282 72.8795 241.938 73.1896 242.568 73.4846C242.693 73.5447 242.823 73.5997 242.963 73.6347C243.113 73.6697 243.268 73.6697 243.429 73.6697C243.769 73.6697 244.109 73.6597 244.449 73.6547C247.071 74.0448 250.037 74.78 252.308 76.1904C255.78 78.3561 258.097 82.0422 261.799 83.6176L261.764 83.7027C262.044 84.888 262.619 85.9733 263.224 87.0286C263.605 87.6938 264.035 88.379 264.635 88.8442C264.775 88.9592 264.925 89.0592 265.085 89.1442C265.681 88.9642 266.221 88.8692 266.711 88.8692C270.308 88.8692 271.314 93.5605 270.103 96.3564L270.078 96.3464Z" fill="white"/>
<path d="M262.893 116.016L263.043 116.191C262.878 116.416 262.738 116.616 262.618 116.746C261.787 117.682 260.967 118.647 260.181 119.632C258.916 121.233 257.75 122.393 256.369 123.834C255.259 125.004 252.802 127.495 251.397 128.74C251.206 128.83 251.021 128.955 250.866 129.105C250.051 129.9 249.315 131.006 248.725 131.681C247.329 133.306 246.319 135.087 245.523 137.077C244.933 135.087 244.198 133.306 243.167 131.681C242.737 131.001 242.187 129.9 241.591 129.105C241.476 128.955 241.341 128.83 241.201 128.75C240.165 127.5 235.878 123.178 235.263 122.243C235.163 122.083 235.028 121.828 234.883 121.553L235.213 121.418C235.148 120.558 235.078 119.702 235.013 118.842L235.113 118.732C238.745 121.933 243.097 124.459 246.084 123.823C251.382 122.653 258.661 116.381 260.617 112.725C260.897 112.22 261.147 111.74 261.362 111.265C261.792 111.04 262.268 110.775 262.688 110.6C262.698 112.405 262.738 114.196 262.888 116.011L262.893 116.016Z" fill="white"/>
<path d="M234.042 114.25C233.512 114.48 232.956 114.645 232.391 114.73C232.041 114.78 231.696 114.82 231.345 114.845C230.605 114.895 229.87 114.895 229.139 114.83C228.354 114.765 226.883 114.1 226.173 114.25C227.608 113.959 228.694 113.304 229.629 112.474C230.625 111.594 231.456 110.508 232.391 109.413C233.637 107.963 234.962 106.297 236.678 105.377C238.194 104.567 241.006 105.062 243.002 105.327C243.192 105.352 243.382 105.367 243.572 105.367C244.112 105.367 244.643 105.282 245.153 105.112C247.054 104.447 249.57 103.436 251.221 103.927C253.092 104.472 254.728 105.827 256.244 106.992C258.06 108.403 259.626 109.828 261.792 110.293C262.072 110.358 262.372 110.403 262.688 110.428C262.878 110.443 263.088 110.453 263.293 110.453C263.118 110.463 262.913 110.518 262.688 110.604C262.262 110.779 261.792 111.044 261.362 111.259C261.057 111.424 260.772 111.559 260.541 111.634C259.496 111.949 258.42 112.139 257.335 112.204C256.764 112.239 256.184 112.189 255.609 112.074L255.544 112.439C252.477 113.954 247.144 112.689 245.568 110.954L243.662 111.209C242.351 113.394 237.504 115.45 234.192 114.6L234.037 114.25H234.042Z" fill="#F1F2F3"/>
<path d="M261.367 111.263C261.152 111.733 260.902 112.218 260.622 112.724C258.666 116.38 251.387 122.652 246.089 123.822C243.102 124.462 238.75 121.931 235.118 118.73C233.707 117.485 232.416 116.145 231.346 114.844C231.696 114.819 232.041 114.779 232.391 114.729C232.957 114.644 233.512 114.479 234.042 114.249L234.197 114.599C237.504 115.454 242.357 113.399 243.667 111.208L245.574 110.953C247.149 112.684 252.482 113.954 255.549 112.439L255.614 112.073C256.184 112.188 256.765 112.239 257.34 112.203C258.426 112.138 259.506 111.948 260.547 111.633C260.777 111.558 261.062 111.428 261.367 111.268V111.263Z" fill="white"/>
<path d="M251.397 211.487C253.478 211.487 256.67 221.89 256.19 227.327C256.075 228.612 255.524 230.393 255.985 231.803C253.008 232.108 249.706 231.753 246.98 232.849C246.715 232.959 246.434 233.064 246.149 233.014C245.869 232.954 245.604 232.484 245.694 232.209C245.719 231.843 245.744 231.478 245.759 231.113C245.874 227.832 245.494 224.421 244.658 221.28C244.333 220.095 242.827 213.663 240.901 213.313C241.282 213.273 241.697 213.228 242.152 213.173C244.954 212.833 248.951 212.178 251.397 211.482V211.487Z" fill="white"/>
<path d="M223.726 245.992C223.496 246.082 223.25 246.167 223.005 246.242C221.97 246.548 220.719 246.207 219.563 245.672C218.718 245.267 217.923 244.752 217.307 244.307V244.197C216.642 244.197 215.966 244.097 215.251 243.867C213.725 243.367 212.384 242.471 211.064 241.601L211.029 241.211C210.914 241.221 210.799 241.236 210.679 241.246C209.143 241.381 207.637 241.386 206.096 241.311C204.655 241.226 202.864 241.601 201.959 240.506L212.545 237.23L212.56 237.295C214.025 237.08 216.057 236.425 217.097 235.274C219.618 232.473 222.915 228.967 224.486 225.601C224.941 224.616 224.496 223.431 223.731 222.626C223.721 222.626 218.588 223.721 218.588 223.721L212.605 225.096L212.565 224.931C214.15 222.651 214.075 220.39 216.047 218.389C216.767 217.659 217.637 217.194 218.618 216.824C219.023 216.659 219.453 216.519 219.889 216.384C220.794 216.109 221.755 215.854 222.705 215.528C226.327 214.303 226.392 214.453 230.219 214.253C232.931 214.103 236.398 214.218 239.424 214.503L239.449 214.263C239.945 213.503 240.435 213.233 240.9 213.318C242.826 213.668 244.332 220.1 244.657 221.285C245.493 224.426 245.878 227.832 245.758 231.118H245.698C243.507 233.124 242.871 235.874 241.686 238.505C241.48 238.96 241.26 239.41 241.015 239.846C240.01 241.646 238.539 242.191 236.688 242.881C234.231 243.802 231.88 245.062 229.434 246.022C227.428 246.803 225.787 246.693 223.736 246.007L223.726 245.997V245.992Z" fill="white"/>
<path d="M210.488 179.663C208.357 179.363 205.971 179.043 203.459 178.708C202.994 172.856 202.804 166.979 202.879 161.113C202.929 157.442 202.729 153.675 203.634 150.089C204.885 145.173 210.638 142.002 214.34 139.016C219.513 134.84 225.706 129.648 230.879 125.472L231.104 125.412C231.62 127.568 232.885 133.194 233.251 135.805C233.416 136.991 233.381 138.216 233.671 139.371C235.147 137.496 236.077 134.705 237.318 132.514C237.793 131.684 238.884 129.743 239.904 128.848C240.304 128.493 240.79 128.473 241.205 128.738C241.345 128.823 241.48 128.943 241.595 129.093C242.191 129.888 242.741 130.994 243.171 131.669C244.202 133.294 244.937 135.075 245.527 137.066C245.162 140.522 244.407 143.397 243.961 146.823C243.521 150.174 242.145 152.095 243.181 155.551C243.761 157.482 242.931 159.602 242.776 161.543C242.461 165.614 242.401 176.207 242.676 180.283C243.016 185.405 242.421 206.386 242.13 212.973L242.155 213.163C241.7 213.223 241.285 213.263 240.905 213.303C240.44 213.218 239.949 213.488 239.454 214.248L239.429 214.488C236.402 214.208 232.935 214.088 230.224 214.238C226.402 214.438 226.337 214.288 222.71 215.514C221.754 215.839 220.794 216.094 219.893 216.369C219.878 211.918 224.801 189.821 227.197 183.944C224.901 183.594 221.184 183.064 216.832 182.479C217.172 181.329 217.387 180.648 217.387 180.648C215.731 180.398 213.335 180.053 210.488 179.653V179.663Z" fill="white"/>
<path d="M212.553 237.229L201.967 240.505L197.349 241.941V253.054L219.551 246.077L219.566 245.672C220.717 246.212 221.973 246.552 223.008 246.242C223.258 246.167 223.499 246.082 223.729 245.992C225.785 246.687 227.426 246.797 229.432 246.017C231.878 245.057 234.235 243.796 236.686 242.876C238.537 242.186 240.013 241.641 241.013 239.84C241.263 239.4 241.478 238.955 241.684 238.5V269.699L209.896 279.947L156.197 297.262V238.09L158.103 237.649L160.589 237.079L165.462 235.959L209.281 225.861L212.608 225.096L218.591 223.72L223.724 222.625C224.494 223.43 224.944 224.616 224.484 225.601C222.918 228.967 219.616 232.473 217.095 235.274C216.06 236.424 214.028 237.079 212.558 237.294L212.543 237.229H212.553Z" fill="#CAB79F"/>
<path d="M241.207 128.739C240.792 128.484 240.301 128.499 239.906 128.854C238.886 129.749 237.79 131.69 237.32 132.52C236.074 134.706 235.148 137.501 233.673 139.377C233.382 138.227 233.418 136.996 233.252 135.811C232.887 133.2 231.617 127.573 231.106 125.418C231.031 125.138 230.981 124.923 230.941 124.773C230.726 123.952 231.171 123.537 231.622 122.957C232.102 122.337 233.377 120.246 234.093 120.511C234.348 120.611 234.638 121.102 234.898 121.557C235.048 121.832 235.178 122.087 235.279 122.247C235.894 123.182 240.176 127.503 241.217 128.744L241.207 128.739Z" fill="white"/>
<path d="M226.359 102.356L226.194 102.391C223.963 101.986 221.732 99.6257 221.287 97.0949C220.971 95.2644 220.986 93.0587 223.003 92.2635C223.208 92.1835 223.443 92.1135 223.693 92.0635L223.873 92.0234C224.403 94.004 225.144 96.6548 225.819 99.8557C226.019 100.791 226.199 101.611 226.359 102.356Z" fill="white"/>
<path d="M216.828 182.495C221.18 183.085 224.897 183.615 227.193 183.96C224.797 189.837 219.874 211.933 219.889 216.385C219.459 216.52 219.029 216.66 218.619 216.825L218.404 216.02L219.549 195.464L217.458 194.633L214.681 193.533L213.946 193.663L180.383 199.54C181.608 193.338 183.93 184.825 184.975 181.079C185.305 179.884 185.515 179.174 185.515 179.174C189.628 179.279 196.512 179.969 203.63 180.814C205.942 181.089 208.288 181.379 210.564 181.67C212.735 181.945 214.852 182.225 216.833 182.49L216.828 182.495Z" fill="#ADB7BF"/>
<path d="M219.565 245.668L219.55 246.074L197.348 253.051V241.937L201.966 240.502C202.871 241.597 204.662 241.222 206.103 241.307C207.644 241.382 209.155 241.372 210.685 241.242C210.801 241.232 210.916 241.217 211.036 241.207L211.071 241.597C212.386 242.468 213.732 243.363 215.258 243.863C215.968 244.093 216.649 244.193 217.314 244.193V244.303C217.929 244.748 218.725 245.263 219.57 245.668H219.565Z" fill="#AD7668"/>
<path d="M219.551 195.465L218.405 216.021L218.62 216.826C217.64 217.201 216.774 217.661 216.049 218.392C214.078 220.387 214.148 222.653 212.567 224.934L212.607 225.099L209.28 225.864L165.461 235.962L166.862 205.178L213.322 196.615L217.134 195.91L219.541 195.47L219.551 195.465Z" fill="#AD7668"/>
<path d="M219.55 195.463L217.143 195.903L213.331 196.608L166.871 205.171L161.998 202.76L171.558 201.084L173.244 200.794L180.383 199.544C180.393 199.544 213.952 193.667 213.952 193.667L214.687 193.537L217.464 194.637L219.555 195.468L219.55 195.463Z" fill="#AD7668"/>
<path d="M217.385 180.659C217.385 180.659 217.17 181.339 216.829 182.489C214.848 182.224 212.732 181.944 210.561 181.669C208.29 181.379 205.943 181.089 203.627 180.814C196.503 179.968 189.625 179.278 185.512 179.173C185.512 179.173 185.307 179.883 184.972 181.079C182.376 180.854 180.099 180.704 178.323 180.659C178.323 180.659 174.876 192.617 173.231 200.785C173.231 200.795 171.545 201.085 171.545 201.085L170.384 197.138C171.92 188.981 175.692 175.867 175.692 175.867C181.685 176.032 193.532 177.418 203.452 178.708C205.963 179.038 208.355 179.363 210.481 179.663C213.323 180.063 215.719 180.409 217.38 180.659H217.385Z" fill="#919F93"/>
<path d="M184.977 181.084C183.931 184.83 181.61 193.343 180.384 199.545C180.374 199.545 173.235 200.79 173.235 200.79C174.876 192.623 178.328 180.664 178.328 180.664C180.104 180.714 182.38 180.864 184.977 181.084Z" fill="#CEAE97"/>
<path d="M170.392 197.139L171.553 201.085L161.992 202.761L161.012 226.658C160.522 225.752 158.175 221.766 157.445 220.596C157.435 220.586 154.974 212.774 154.974 212.774L151.011 211.063C140.326 195.954 124.432 175.663 124.432 175.663C128.629 176.138 133.982 175.838 140.06 174.657C147.62 173.192 154.058 170.711 157.62 168.14C159.741 166.615 160.852 165.059 160.582 163.664L170.392 197.129V197.139Z" fill="white"/>
<path d="M166.871 205.17L165.465 235.955L160.593 237.075L160.823 231.313L161.013 226.657L161.993 202.76L166.871 205.17Z" fill="#AD7668"/>
<path d="M157.45 220.596L160.822 231.314L160.592 237.076L158.106 237.646L147.62 211.998L121.436 201.08L119.685 197.584L135.323 204.316L144.673 208.337L151.017 211.063L154.979 212.773L157.44 220.591L157.45 220.601V220.596Z" fill="#919F93"/>
<path d="M160.584 163.668C160.859 165.059 159.748 166.619 157.622 168.145L156.121 164.524C156.031 164.219 155.841 163.908 155.506 163.603C154.886 163.033 154.02 162.833 153.185 162.698C150.838 162.323 148.467 162.358 146.096 162.598C144.29 162.763 142.479 163.063 140.688 163.383C140.072 163.493 139.462 163.608 138.847 163.723C133.709 164.694 128.491 165.679 123.758 167.92C123.063 168.245 121.372 169.28 122.002 170.3C122.453 171.031 124.664 170.996 125.394 171.056C126.225 171.121 127.05 171.121 127.881 171.091L127.996 173.301C127.506 173.336 127.01 173.356 126.52 173.386C124.374 173.476 119.756 174.181 118.04 172.166C118.015 172.131 117.785 171.811 117.785 171.811C116.585 169.815 118.691 167.89 120.197 166.854C122.848 165.029 126.225 164.144 129.276 163.213C137.396 160.753 146.681 158.802 155.161 160.402C156.987 160.753 160.158 161.458 160.584 163.668Z" fill="white"/>
<path d="M147.615 211.998L158.105 237.646L156.199 238.086L154.979 237.531L145.293 214.224L147.615 211.998Z" fill="#DDBF84"/>
<path d="M156.124 164.525L157.625 168.146C154.058 170.717 147.625 173.193 140.065 174.663C133.987 175.839 128.634 176.139 124.437 175.669C124.437 175.669 140.331 195.96 151.016 211.069L144.673 208.343L140.571 202.767L118.043 172.173C119.759 174.188 124.377 173.483 126.523 173.393C127.013 173.368 127.508 173.343 127.999 173.308C132.416 173.053 136.819 172.498 141.171 171.667C143.707 171.177 146.269 170.757 148.74 169.967C149.115 169.852 149.486 169.737 149.861 169.617C150.886 169.302 151.917 168.952 152.827 168.382C153.998 167.651 156.584 166.151 156.119 164.53L156.124 164.525Z" fill="white"/>
<path d="M156.199 238.085V297.252L101.659 262.547V213.303L105.927 215.243L148.085 234.399L152.257 236.3L154.979 237.535L156.199 238.09V238.085Z" fill="#CAB79F"/>
<path d="M156.126 164.526C156.592 166.151 154.005 167.652 152.834 168.377C151.924 168.947 150.893 169.297 149.868 169.612L147.912 165.341L147.872 165.241C147.762 165.061 147.582 164.911 147.381 164.826C147.041 164.696 146.661 164.711 146.306 164.741L146.106 162.595C148.477 162.355 150.848 162.32 153.195 162.695C154.03 162.83 154.896 163.026 155.516 163.601C155.846 163.906 156.036 164.216 156.131 164.521L156.126 164.526Z" fill="white"/>
<path d="M145.295 214.224L154.98 237.531L152.259 236.295L142.629 215.704L105.333 200.165L103.757 196.354L145.29 214.224H145.295Z" fill="#DDBF84"/>
<path d="M142.628 215.705L152.264 236.296L148.091 234.406L140.357 217.876L142.628 215.705Z" fill="#C7B4A9"/>
<path d="M147.905 165.344L149.861 169.615C149.486 169.73 149.116 169.845 148.741 169.965C146.269 170.75 143.708 171.175 141.172 171.666C136.819 172.496 132.417 173.051 127.999 173.306L127.884 171.095C128.89 171.055 129.88 170.935 130.886 170.795C132.262 170.595 133.632 170.325 134.988 170.06C139.15 169.23 143.373 168.385 147.16 166.479C147.51 166.304 147.9 166.054 147.945 165.664C147.96 165.554 147.945 165.449 147.905 165.349V165.344Z" fill="white"/>
<path d="M140.358 217.875L148.092 234.399L105.929 215.244L104.778 212.438L99.8203 200.439L140.358 217.875Z" fill="#C7B4A9"/>
<path d="M147.905 165.344C147.945 165.444 147.965 165.549 147.945 165.659C147.895 166.049 147.505 166.299 147.16 166.474C143.373 168.38 139.15 169.225 134.988 170.055C133.627 170.32 132.262 170.595 130.886 170.791C130.571 170.325 130.05 169.76 130.341 169.215C130.606 168.72 131.591 168.335 132.067 168.145C132.747 167.865 135.273 166.974 135.964 166.729C137.645 166.139 139.341 165.729 141.062 165.414C142.787 165.099 144.528 164.899 146.299 164.749C146.655 164.714 147.04 164.699 147.375 164.834C147.575 164.919 147.755 165.064 147.865 165.249L147.905 165.349V165.344Z" fill="white"/>
<path d="M147.617 211.993L145.296 214.224C145.286 214.224 103.758 196.353 103.758 196.353L105.639 194.508L121.433 201.09L147.617 211.998V211.993Z" fill="#DDBF84"/>
<path d="M146.101 162.598L146.301 164.743C144.525 164.893 142.784 165.093 141.063 165.408L140.698 163.388C142.489 163.063 144.295 162.768 146.106 162.603L146.101 162.598Z" fill="white"/>
<path d="M140.572 202.76L144.674 208.336L135.324 204.315L135.389 204.16L140.572 202.76Z" fill="#CAB79F"/>
<path d="M142.627 215.704L140.356 217.875L99.8185 200.439L101.659 198.629L105.331 200.164L142.627 215.704Z" fill="#C7B4A9"/>
<path d="M140.691 163.391L141.057 165.411C139.331 165.727 137.64 166.142 135.959 166.727C135.268 166.977 132.742 167.862 132.062 168.142C131.591 168.332 130.601 168.712 130.336 169.213C130.046 169.758 130.566 170.323 130.881 170.788C129.876 170.928 128.885 171.043 127.879 171.088C127.049 171.123 126.224 171.123 125.393 171.053C124.663 170.993 122.451 171.028 122.001 170.298C121.371 169.278 123.062 168.242 123.757 167.917C128.49 165.677 133.708 164.691 138.845 163.721C139.461 163.606 140.071 163.491 140.686 163.381L140.691 163.391Z" fill="white"/>
<path d="M104.777 212.438L105.928 215.243L101.66 213.303L104.702 212.473L104.777 212.438Z" fill="#CAB79F"/>
<path d="M219.714 223.322C220.445 223.062 221.39 222.447 222.196 222.557C223.051 222.677 223.796 223.767 223.872 224.577C223.952 225.438 223.206 226.398 222.771 227.093C222.201 228.003 221.565 228.879 220.9 229.719C219.639 231.309 218.273 232.81 216.918 234.31C215.682 235.676 214.116 236.291 212.32 236.581C211.375 236.731 211.775 238.171 212.715 238.021C213.756 237.851 214.772 237.556 215.727 237.106C216.748 236.626 217.468 235.926 218.213 235.1C219.934 233.195 221.66 231.279 223.156 229.189C224.422 227.423 226.073 225.282 224.922 223.072C224.442 222.147 223.546 221.271 222.486 221.101C221.355 220.916 220.34 221.511 219.314 221.881C218.419 222.202 218.804 223.642 219.709 223.322H219.714Z" fill="black"/>
<path d="M213.164 225.307C214.83 222.806 215.02 219.43 217.937 217.91C219.193 217.26 220.603 216.95 221.949 216.534C223.215 216.149 224.456 215.659 225.751 215.369C227.977 214.869 230.454 214.939 232.72 214.934C235.742 214.934 238.788 215.104 241.785 215.514C242.726 215.644 243.131 214.204 242.18 214.074C239.049 213.649 235.877 213.439 232.715 213.439C230.249 213.439 227.577 213.389 225.161 213.969C223.73 214.314 222.354 214.854 220.949 215.269C219.503 215.694 217.992 216.084 216.701 216.885C213.84 218.665 213.605 221.946 211.874 224.547C211.338 225.347 212.629 226.097 213.164 225.302V225.307Z" fill="black"/>
<path d="M201.391 241.031C202.136 241.821 203.132 242.016 204.183 242.051C205.508 242.091 206.849 242.111 208.175 242.101C211.271 242.076 214.388 241.651 217.47 241.371C218.701 241.261 219.911 241.231 221.042 240.676C222.072 240.166 222.938 239.35 223.728 238.525C225.749 236.425 227.725 234.279 229.942 232.373C230.672 231.748 229.611 230.693 228.886 231.318C226.88 233.044 225.039 234.949 223.233 236.875C222.533 237.62 221.832 238.405 220.977 238.98C219.886 239.716 218.741 239.761 217.47 239.876C214.733 240.126 211.977 240.476 209.23 240.586C207.995 240.636 206.769 240.556 205.533 240.551C204.528 240.546 203.212 240.786 202.447 239.981C201.786 239.28 200.731 240.336 201.391 241.036V241.031Z" fill="black"/>
<path d="M232.658 235.885C229.162 238.02 225.575 240.001 221.968 241.941C220.407 242.782 218.721 243.552 216.9 243.437C214.849 243.307 213.053 242.051 211.397 240.951C210.596 240.421 209.846 241.711 210.641 242.237C212.357 243.377 214.168 244.562 216.249 244.862C218.141 245.132 219.957 244.587 221.652 243.777C223.518 242.887 225.314 241.816 227.125 240.821C229.247 239.656 231.343 238.435 233.409 237.175C234.229 236.675 233.479 235.384 232.653 235.885H232.658Z" fill="black"/>
<path d="M235.187 239.515C232.045 241.141 228.783 242.541 225.667 244.202C224.341 244.907 222.885 245.857 221.324 245.517C219.974 245.222 218.748 244.457 217.637 243.656C216.862 243.091 216.112 244.387 216.882 244.942C218.058 245.797 219.373 246.577 220.794 246.927C222.42 247.327 223.821 246.807 225.272 246.087C228.824 244.322 232.41 242.626 235.932 240.801C236.788 240.36 236.032 239.07 235.177 239.51L235.187 239.515Z" fill="black"/>
<path d="M223.491 246.72C224.782 247.14 226.113 247.405 227.473 247.255C228.729 247.115 229.88 246.63 231.03 246.135C232.401 245.544 233.742 244.894 235.112 244.299C236.273 243.794 237.479 243.404 238.624 242.879C243.157 240.803 242.807 234.846 246.179 231.645C246.879 230.985 245.818 229.93 245.123 230.59C243.557 232.075 242.672 233.976 241.886 235.947C241.071 237.987 240.39 240.278 238.319 241.368C237.319 241.898 236.213 242.223 235.167 242.664C233.997 243.154 232.846 243.694 231.691 244.219C230.47 244.774 229.219 245.419 227.893 245.689C226.523 245.975 225.197 245.704 223.886 245.284C222.971 244.989 222.581 246.43 223.491 246.725V246.72Z" fill="black"/>
<path d="M288.578 141.992C283.605 148.304 281.079 156.011 281.019 164.009C280.989 168.155 281.409 172.286 281.614 176.427C281.834 180.878 281.879 185.35 282.054 189.806C282.249 194.803 282.555 199.754 283.33 204.7C283.48 205.646 284.916 205.246 284.771 204.305C284.095 199.989 283.75 195.648 283.6 191.282C283.45 186.92 283.23 182.564 283.17 178.198C283.065 170.41 281.494 162.543 283.685 154.896C284.911 150.62 286.872 146.553 289.628 143.052C290.219 142.307 289.168 141.242 288.573 141.997L288.578 141.992Z" fill="black"/>
<path d="M251.873 211.648C253.499 209.092 257.306 209.417 259.922 209.112C263.639 208.677 267.361 208.762 271.083 208.402C274.51 208.072 277.847 207.467 281.134 206.452C282.7 205.966 284.33 205.471 285.986 205.551C287.572 205.626 288.953 206.417 290.229 207.312C293.12 209.342 295.447 212.123 297.728 214.789C298.353 215.519 299.404 214.459 298.783 213.734C296.632 211.213 294.446 208.672 291.81 206.632C290.574 205.676 289.183 204.726 287.652 204.311C286.066 203.876 284.391 204.056 282.81 204.426C281.149 204.816 279.558 205.446 277.897 205.836C275.896 206.307 273.84 206.612 271.799 206.837C269.717 207.062 267.621 207.177 265.525 207.192C263.519 207.207 261.563 207.432 259.572 207.657C256.39 208.017 252.528 207.832 250.582 210.893C250.067 211.708 251.357 212.453 251.873 211.648Z" fill="black"/>
<path d="M268.266 120.156C274.795 122.512 281.204 125.242 287.337 128.508C293.345 131.709 299.429 135.42 304.201 140.332C306.618 142.817 308.484 145.668 309.464 149.009C310.53 152.62 310.87 156.396 311.055 160.143C311.445 168.15 311.595 176.182 311.67 184.2C311.705 188.156 311.9 192.112 311.86 196.068C311.82 200.064 311.31 203.97 310.545 207.892C309.809 211.658 308.774 215.329 307.723 219.015C306.843 222.101 305.872 225.507 303.426 227.742C299.569 231.279 293.54 231.489 288.603 231.754C285.496 231.924 282.399 232.189 279.298 232.384C275.235 232.639 271.173 232.729 267.106 232.864C265.205 232.924 263.329 232.914 261.428 232.814C260.202 232.749 258.851 232.989 257.666 232.584C256.03 232.029 256.505 229.868 256.71 228.558C256.9 227.357 256.965 226.182 256.895 224.972C256.74 222.371 256.21 219.77 255.459 217.279C254.884 215.364 254.209 213.193 252.893 211.638C252.488 211.158 251.993 210.777 251.347 210.737C250.387 210.682 250.392 212.178 251.347 212.228C251.282 212.228 251.347 212.228 251.412 212.268C251.517 212.333 251.597 212.423 251.682 212.508C251.943 212.773 252.138 213.108 252.318 213.428C252.868 214.389 253.273 215.429 253.633 216.474C254.519 219.065 255.149 221.796 255.369 224.527C255.469 225.797 255.454 227.042 255.249 228.303C255.014 229.758 254.734 231.424 255.545 232.759C256.205 233.849 257.481 234.164 258.671 234.259C260.107 234.374 261.588 234.349 263.029 234.394C267.086 234.524 271.208 234.274 275.265 234.089C278.957 233.924 282.639 233.579 286.331 233.364C291.579 233.059 297.317 233.089 302.06 230.508C304.591 229.128 306.302 227.002 307.453 224.381C308.944 220.98 309.854 217.229 310.775 213.643C311.77 209.752 312.581 205.766 313.031 201.775C313.486 197.729 313.361 193.642 313.256 189.581C313.036 181.279 312.981 172.971 312.716 164.669C312.486 157.472 312.516 149.384 308.409 143.148C304.661 137.456 298.568 133.34 292.82 129.884C286.672 126.188 280.128 123.152 273.459 120.521C271.873 119.896 270.273 119.291 268.667 118.715C267.761 118.39 267.371 119.831 268.271 120.156H268.266Z" fill="black"/>
<path d="M240.476 214.097C244.173 213.782 247.97 213.217 251.547 212.212C252.472 211.952 252.077 210.511 251.152 210.771C247.7 211.742 244.048 212.302 240.476 212.607C239.525 212.687 239.515 214.182 240.476 214.097Z" fill="black"/>
<path d="M240.04 214.638C240.285 214.278 240.525 213.953 240.871 214.123C241.341 214.353 241.671 215.084 241.891 215.514C242.612 216.904 243.062 218.445 243.477 219.95C244.027 221.946 244.508 223.956 244.753 226.017C244.943 227.617 245.013 229.238 244.963 230.853C244.933 231.828 244.593 233.384 245.898 233.734C246.614 233.924 247.359 233.454 248.02 233.269C248.885 233.019 249.781 232.899 250.676 232.824C252.422 232.684 254.178 232.719 255.924 232.554C256.874 232.464 256.879 230.968 255.924 231.063C254.288 231.218 252.642 231.198 251.001 231.313C250.286 231.363 249.57 231.433 248.865 231.553C248.5 231.613 248.135 231.693 247.774 231.788C247.634 231.828 246.569 232.294 246.454 232.239C246.259 232.134 246.459 230.473 246.464 230.173C246.474 229.248 246.439 228.327 246.374 227.407C246.254 225.792 246.023 224.171 245.678 222.586C245.338 221.02 244.918 219.455 244.433 217.929C243.947 216.419 243.402 214.733 242.361 213.503C241.181 212.108 239.71 212.478 238.744 213.893C238.204 214.688 239.495 215.434 240.035 214.643L240.04 214.638Z" fill="black"/>
<path d="M210.024 153.467C210.465 157.803 210.445 162.179 210.024 166.515C209.819 168.636 209.574 170.727 209.539 172.857C209.504 175.128 209.604 177.399 209.694 179.664C209.734 180.62 211.225 180.625 211.185 179.664C211.1 177.454 211.005 175.248 211.03 173.037C211.055 170.847 211.305 168.696 211.515 166.515C211.935 162.179 211.96 157.803 211.515 153.467C211.42 152.521 209.924 152.511 210.024 153.467Z" fill="black"/>
<path d="M204.157 178.714C203.777 173.837 203.572 168.946 203.562 164.049C203.557 161.744 203.567 159.438 203.597 157.132C203.627 154.847 203.717 152.511 204.302 150.29C205.213 146.834 208.285 144.434 211.021 142.393C214.023 140.157 216.929 137.837 219.821 135.461C223.663 132.305 227.49 129.124 231.357 125.998C232.103 125.393 231.042 124.343 230.302 124.943C223.628 130.334 217.15 135.981 210.271 141.108C207.569 143.118 204.703 145.364 203.337 148.545C202.491 150.51 202.286 152.771 202.176 154.882C202.051 157.202 202.101 159.528 202.081 161.849C202.031 167.475 202.231 173.102 202.672 178.714C202.747 179.664 204.237 179.674 204.162 178.714H204.157Z" fill="black"/>
<path d="M242.826 212.987C243.217 204.005 243.452 194.997 243.472 186.004C243.482 182.388 243.252 178.787 243.212 175.171C243.182 172.46 243.192 169.744 243.252 167.034C243.302 164.648 243.302 162.227 243.732 159.872C243.897 158.966 244.077 158.046 244.082 157.121C244.087 156.156 243.777 155.305 243.612 154.37C243.287 152.589 243.797 150.899 244.212 149.183C244.692 147.203 244.898 145.157 245.263 143.152C245.633 141.136 245.998 139.121 246.223 137.08C246.328 136.125 244.832 136.135 244.732 137.08C244.522 138.985 244.172 140.866 243.827 142.752C243.507 144.512 243.322 146.308 242.941 148.058C242.621 149.539 242.141 150.989 242.031 152.509C241.906 154.21 242.661 155.765 242.581 157.441C242.506 158.976 242.051 160.472 241.951 162.007C241.881 163.063 241.841 164.123 241.811 165.183C241.731 167.859 241.701 170.54 241.711 173.216C241.721 176.992 241.971 180.758 241.986 184.534C242.006 189.3 241.901 194.072 241.786 198.838C241.671 203.559 241.546 208.276 241.341 212.992C241.301 213.952 242.791 213.947 242.831 212.992L242.826 212.987Z" fill="black"/>
<path d="M251.877 129.269C256.01 125.588 259.832 121.397 263.268 117.065C263.514 116.755 263.999 115.78 264.414 115.72C264.719 115.68 265.345 116.325 265.545 116.505C265.925 116.85 266.275 117.22 266.63 117.585C266.971 117.941 267.736 118.421 267.761 118.906C267.796 119.571 267.031 120.506 266.7 121.056C266.265 121.772 265.875 122.497 265.53 123.262C264.834 124.793 264.194 126.353 263.614 127.938C262.938 129.784 262.353 131.665 261.888 133.575C261.673 134.46 261.468 135.356 261.342 136.256C261.207 137.236 261.167 138.217 260.877 139.172C261.292 139.062 261.708 138.952 262.123 138.842C260.292 137.086 259.181 134.786 257.725 132.74C256.585 131.134 255.224 129.224 253.498 128.209C251.327 126.928 249.816 129.059 248.625 130.574C247.06 132.57 245.729 134.51 244.763 136.876C244.403 137.766 245.844 138.151 246.204 137.271C247.05 135.201 248.225 133.475 249.601 131.73C250.166 131.009 250.722 130.054 251.482 129.539C252.453 128.879 253.403 129.959 254.043 130.614C256.795 133.4 258.246 137.201 261.062 139.902C261.473 140.297 262.143 140.117 262.308 139.572C262.553 138.767 262.638 137.946 262.728 137.111C262.843 136.046 263.063 135.011 263.319 133.97C263.784 132.06 264.369 130.179 265.044 128.334C265.71 126.513 266.415 124.668 267.321 122.952C267.966 121.722 269.602 119.976 269.242 118.476C268.997 117.455 267.751 116.575 267.026 115.855C266.305 115.14 265.26 114.084 264.139 114.274C262.968 114.475 262.093 116.165 261.382 116.99C260.157 118.406 259.026 119.891 257.76 121.267C255.549 123.662 253.268 126.048 250.837 128.219C250.116 128.859 251.177 129.909 251.892 129.274L251.877 129.269Z" fill="black"/>
<path d="M246.2 136.881C245.514 134.6 244.499 132.604 243.323 130.549C242.528 129.158 241.187 126.753 239.331 128.328C237.965 129.488 237.015 131.354 236.204 132.924C235.159 134.965 234.378 137.166 232.972 139.001C233.428 139.061 233.883 139.121 234.338 139.181C234.043 137.851 234.063 136.465 233.848 135.12C233.688 134.105 233.488 133.089 233.283 132.079C232.862 130.004 232.407 127.933 231.922 125.867C231.737 125.082 231.407 124.402 231.927 123.692C232.487 122.926 233.047 122.176 233.663 121.456C233.718 121.396 233.838 121.286 233.923 121.241C233.833 121.286 233.658 121.091 233.793 121.286C233.943 121.501 234.073 121.721 234.203 121.946C234.388 122.276 234.558 122.596 234.788 122.896C235.249 123.502 235.779 124.057 236.299 124.617C237.735 126.167 239.266 127.653 240.632 129.268C241.252 130.004 242.302 128.943 241.687 128.213C240.321 126.598 238.796 125.112 237.355 123.562C236.834 122.996 236.249 122.441 235.829 121.796C235.344 121.046 234.923 119.665 233.803 119.746C232.792 119.821 232.067 120.986 231.532 121.721C230.891 122.611 229.961 123.492 230.111 124.672C230.211 125.437 230.466 126.207 230.641 126.958C230.921 128.163 231.186 129.363 231.447 130.574C231.737 131.934 232.017 133.295 232.262 134.665C232.552 136.29 232.537 137.961 232.897 139.571C233.052 140.267 233.908 140.212 234.263 139.751C236.324 137.061 237.25 133.665 239.156 130.859C239.526 130.319 240.251 128.968 240.947 129.573C241.542 130.084 241.897 131.094 242.292 131.759C243.338 133.525 244.164 135.305 244.759 137.281C245.034 138.196 246.475 137.806 246.2 136.886V136.881Z" fill="black"/>
<path d="M296.631 231.878C297.146 237.144 296.676 242.501 297.527 247.727C297.847 249.688 298.112 251.788 296.226 252.989C294.585 254.034 292.614 254.564 290.758 255.074C286.06 256.37 281.393 257.66 276.56 258.385C271.157 259.196 265.684 259.476 260.221 259.526C254.023 259.581 247.829 259.341 241.636 259.211C240.675 259.191 240.675 260.681 241.636 260.701C253.067 260.936 264.553 261.546 275.92 259.971C281.113 259.251 286.11 257.9 291.153 256.515C293.009 256.005 294.93 255.455 296.616 254.499C298.337 253.524 299.243 252.089 299.258 250.088C299.268 248.848 299.007 247.617 298.812 246.397C298.577 244.931 298.587 243.446 298.552 241.961C298.482 238.595 298.452 235.234 298.122 231.883C298.032 230.937 296.536 230.927 296.631 231.883V231.878Z" fill="black"/>
<path d="M296.027 254.395C298.438 261.162 298.858 268.304 299.068 275.421C299.288 282.813 299.474 290.17 299.218 297.567C299.073 301.869 298.858 306.17 298.663 310.471C298.623 311.431 300.114 311.431 300.154 310.471C300.489 302.859 300.909 295.247 300.879 287.629C300.864 283.908 300.694 280.187 300.584 276.471C300.479 272.9 300.374 269.319 299.999 265.763C299.579 261.762 298.813 257.806 297.457 254.005C297.137 253.109 295.696 253.494 296.017 254.4L296.027 254.395Z" fill="black"/>
<path d="M209.103 279.949C209.158 290.692 209.544 301.46 210.259 312.178C210.324 313.133 211.815 313.138 211.75 312.178C211.034 301.455 210.649 290.692 210.594 279.949C210.589 278.988 209.098 278.988 209.103 279.949Z" fill="black"/>
<path d="M240.22 276.547C240.245 283.869 240.666 291.187 241.656 298.439C241.861 299.954 241.901 301.73 242.612 303.115C243.167 304.2 244.102 305.216 244.918 306.116C245.923 307.221 246.934 308.272 247.509 309.677C248.15 311.247 248.36 313.003 248.605 314.673C248.745 315.619 250.181 315.219 250.046 314.278C249.595 311.202 249.015 308.422 246.884 306.046C245.984 305.041 245.053 304.06 244.268 302.955C243.367 301.69 243.357 299.899 243.147 298.409C242.141 291.172 241.741 283.859 241.716 276.552C241.716 275.592 240.22 275.592 240.225 276.552L240.22 276.547Z" fill="black"/>
<path d="M156.523 296.609C154.717 295.458 152.906 294.308 151.1 293.158C146.758 290.397 142.42 287.631 138.078 284.87C132.825 281.529 127.572 278.183 122.324 274.842C117.782 271.952 113.244 269.061 108.702 266.175C107.211 265.225 105.72 264.274 104.23 263.329C103.574 262.914 102.819 262.229 102.083 261.964C102.053 261.954 102.018 261.924 101.988 261.904C102.113 262.119 102.233 262.334 102.359 262.549V213.304C101.983 213.519 101.608 213.734 101.238 213.949C107.376 216.74 113.515 219.531 119.658 222.322C129.448 226.768 139.234 231.22 149.024 235.666C151.275 236.686 153.527 237.711 155.778 238.737C155.653 238.522 155.533 238.307 155.408 238.092V297.259C155.408 298.219 156.898 298.219 156.898 297.259V238.092C156.898 237.851 156.763 237.551 156.528 237.446C150.39 234.656 144.251 231.865 138.108 229.079C128.318 224.633 118.532 220.181 108.742 215.735C106.491 214.71 104.24 213.689 101.988 212.664C101.488 212.439 100.868 212.699 100.868 213.309V261.348C100.868 261.974 100.708 262.774 101.248 263.204C101.658 263.529 102.158 263.784 102.599 264.064C105.325 265.8 108.057 267.535 110.783 269.271C119.683 274.932 128.578 280.599 137.478 286.261C143.476 290.077 149.404 294.043 155.488 297.724C155.583 297.784 155.678 297.844 155.773 297.904C156.583 298.419 157.334 297.129 156.528 296.614L156.523 296.609Z" fill="black"/>
<path d="M223.493 221.906C218.836 222.896 214.198 223.956 209.556 225.022C206.749 225.667 203.948 226.312 201.146 226.957C194.913 228.393 188.679 229.828 182.446 231.268C177.338 232.444 172.235 233.619 167.127 234.8C163.655 235.6 160.184 236.395 156.712 237.195C156.462 237.255 156.206 237.31 155.956 237.37C155.641 237.445 155.406 237.77 155.406 238.09V297.263C155.406 297.728 155.886 298.133 156.351 297.983C159.178 297.073 162.01 296.158 164.836 295.247C171.63 293.057 178.429 290.866 185.222 288.675C193.477 286.015 201.731 283.354 209.986 280.693C217.095 278.402 224.209 276.107 231.318 273.816C233.664 273.061 236.005 272.306 238.351 271.55C239.457 271.195 240.613 270.895 241.693 270.47C241.743 270.45 241.793 270.44 241.843 270.425C242.159 270.325 242.389 270.045 242.389 269.705V238.501C242.389 237.54 240.898 237.54 240.898 238.501V269.705C241.078 269.465 241.263 269.225 241.443 268.985C238.617 269.895 235.785 270.81 232.958 271.72C226.165 273.911 219.366 276.102 212.572 278.292C204.318 280.953 196.063 283.614 187.809 286.275C180.7 288.565 173.586 290.861 166.477 293.152C164.131 293.907 161.789 294.662 159.443 295.417C158.718 295.652 157.987 295.887 157.262 296.118C156.897 296.233 156.437 296.308 156.096 296.493C156.056 296.518 155.996 296.528 155.946 296.538C156.261 296.778 156.577 297.018 156.892 297.258V238.085C156.707 238.326 156.527 238.566 156.346 238.806C159.758 238.02 163.17 237.24 166.582 236.455C171.18 235.395 175.782 234.334 180.38 233.274C186.733 231.809 193.092 230.343 199.445 228.883C202.772 228.118 206.099 227.347 209.426 226.582C213.838 225.567 218.25 224.546 222.683 223.601C223.083 223.516 223.483 223.431 223.889 223.346C224.829 223.146 224.429 221.706 223.493 221.906Z" fill="black"/>
<path d="M212.44 236.471C207.978 237.856 203.511 239.237 199.048 240.622C198.398 240.822 197.747 241.027 197.097 241.227C196.782 241.322 196.547 241.612 196.547 241.947V253.061C196.547 253.531 197.027 253.926 197.492 253.781C203.971 251.745 210.449 249.71 216.928 247.669C217.853 247.379 218.774 247.089 219.699 246.799C220.61 246.514 220.225 245.073 219.304 245.358C212.826 247.394 206.347 249.43 199.869 251.47C198.943 251.76 198.023 252.05 197.102 252.34C197.417 252.58 197.732 252.821 198.048 253.061V241.947C197.862 242.187 197.682 242.427 197.497 242.668C201.96 241.282 206.427 239.902 210.89 238.516C211.54 238.316 212.19 238.116 212.841 237.911C213.756 237.626 213.366 236.186 212.445 236.471H212.44Z" fill="black"/>
<path d="M166.166 235.955C166.576 226.983 166.982 218.015 167.392 209.042C167.452 207.752 167.512 206.462 167.567 205.171C167.387 205.411 167.202 205.651 167.022 205.891C173.485 204.701 179.954 203.511 186.417 202.315C194.892 200.755 203.361 199.194 211.836 197.629C214.458 197.144 217.079 196.659 219.705 196.179C219.39 195.938 219.075 195.698 218.76 195.458C218.425 201.465 218.09 207.467 217.754 213.474C217.709 214.324 217.659 215.169 217.614 216.019C217.559 216.98 219.055 216.975 219.105 216.019C219.44 210.013 219.775 204.011 220.111 198.004C220.156 197.154 220.206 196.309 220.251 195.458C220.281 194.938 219.75 194.658 219.305 194.738C213.732 195.758 208.159 196.789 202.586 197.819C193.021 199.58 183.451 201.345 173.885 203.106C171.464 203.551 169.048 203.996 166.626 204.446C166.296 204.506 166.091 204.856 166.081 205.166C165.671 214.139 165.266 223.111 164.855 232.079C164.795 233.369 164.74 234.66 164.68 235.95C164.635 236.911 166.131 236.906 166.171 235.95L166.166 235.955Z" fill="black"/>
<path d="M161.293 237.076C161.449 233.275 161.599 229.479 161.754 225.683C161.989 219.926 162.224 214.169 162.459 208.417C162.534 206.532 162.614 204.646 162.689 202.766C162.509 203.006 162.324 203.246 162.144 203.486C165.891 202.831 169.638 202.171 173.385 201.52C173.705 201.465 173.93 201.105 173.93 200.8C173.75 201.03 173.565 201.27 173.385 201.51C174.816 201.26 176.247 201.01 177.677 200.765C178.478 200.625 179.278 200.485 180.079 200.345C180.224 200.32 180.374 200.295 180.519 200.27C180.214 200.32 180.439 200.285 180.589 200.26C182.53 199.925 184.471 199.58 186.412 199.24C193.916 197.924 201.42 196.614 208.92 195.299C210.891 194.953 212.862 194.613 214.833 194.258C215.778 194.088 215.378 192.653 214.438 192.818C209.275 193.743 204.102 194.633 198.934 195.534C192.766 196.614 186.587 197.649 180.429 198.775C180.344 198.79 180.264 198.805 180.179 198.82C180.549 198.755 180.199 198.82 180.094 198.835C179.418 198.95 178.738 199.07 178.063 199.19C176.372 199.485 174.681 199.78 172.995 200.075C172.675 200.13 172.45 200.49 172.45 200.795C172.63 200.565 172.815 200.325 172.995 200.085C169.248 200.73 165.501 201.395 161.754 202.051C161.424 202.111 161.218 202.466 161.208 202.771C161.013 207.492 160.823 212.214 160.628 216.935C160.453 221.256 160.273 225.573 160.098 229.894C159.998 232.289 159.903 234.69 159.808 237.086C159.768 238.046 161.263 238.046 161.298 237.086L161.293 237.076Z" fill="black"/>
<path d="M219.699 194.744C218.383 194.224 217.072 193.704 215.756 193.179C215.446 193.058 215.141 192.933 214.831 192.808C214.466 192.663 213.995 192.968 213.915 193.329C213.815 193.759 214.045 194.089 214.436 194.244C215.696 194.744 216.952 195.244 218.213 195.744C218.578 195.889 218.938 196.034 219.303 196.174C219.669 196.319 220.139 196.014 220.219 195.654C220.319 195.224 220.089 194.894 219.699 194.739V194.744Z" fill="black"/>
<path d="M167.201 204.525C165.775 203.82 164.355 203.115 162.929 202.415C162.729 202.315 162.524 202.215 162.324 202.115C161.963 201.935 161.513 202.02 161.303 202.385C161.108 202.715 161.208 203.225 161.568 203.405C162.989 204.11 164.415 204.815 165.841 205.516C166.041 205.616 166.246 205.716 166.446 205.816C166.806 205.996 167.251 205.911 167.466 205.551C167.662 205.22 167.561 204.71 167.201 204.53V204.525Z" fill="black"/>
<path d="M172.222 200.884C170.987 196.673 169.751 192.457 168.515 188.246C166.544 181.529 164.578 174.812 162.607 168.095C162.157 166.554 161.702 165.009 161.251 163.468C160.981 162.548 159.54 162.938 159.81 163.863C161.046 168.075 162.282 172.291 163.517 176.502C165.489 183.219 167.455 189.936 169.426 196.653C169.876 198.194 170.331 199.739 170.781 201.279C171.052 202.2 172.492 201.81 172.222 200.884Z" fill="black"/>
<path d="M131.481 170.411C131.291 170.141 130.871 169.751 131.126 169.401C131.286 169.181 131.796 169.036 132.037 168.931C132.522 168.726 133.017 168.551 133.507 168.371C134.638 167.961 135.774 167.536 136.919 167.171C138.7 166.605 140.526 166.205 142.372 165.925C143.318 165.78 144.268 165.67 145.219 165.575C145.614 165.535 146.124 165.405 146.515 165.465C147.37 165.59 146.505 165.935 146.129 166.11C142.747 167.701 139.035 168.461 135.393 169.191C131.721 169.926 128.169 170.482 124.412 170.251C123.957 170.221 123.112 170.266 122.736 169.971C122.271 169.611 123.282 169.006 123.612 168.806C125.153 167.891 126.974 167.326 128.675 166.795C132.337 165.655 136.124 164.965 139.886 164.27C143.893 163.524 147.98 162.844 152.063 163.289C153.043 163.399 156.115 163.78 155.199 165.44C154.659 166.425 153.458 167.065 152.533 167.636C150.997 168.576 149.196 169.046 147.475 169.531C145.604 170.056 143.693 170.401 141.787 170.762C137.785 171.517 133.768 172.112 129.705 172.427C128.164 172.547 126.619 172.607 125.078 172.717C123.802 172.807 122.511 172.892 121.241 172.747C120.235 172.637 118.934 172.367 118.379 171.417C117.519 169.941 119.15 168.486 120.235 167.686C123.092 165.585 126.704 164.725 130.05 163.73C133.602 162.669 137.214 161.769 140.876 161.189C144.649 160.594 148.501 160.354 152.308 160.734C153.809 160.884 155.329 161.114 156.78 161.544C157.836 161.854 159.242 162.349 159.697 163.454C160.302 164.93 158.611 166.385 157.611 167.171C155.474 168.846 152.898 170.006 150.382 170.967C143.608 173.557 136.154 175.038 128.895 175.113C127.384 175.128 125.878 175.063 124.377 174.903C123.652 174.823 123.502 175.733 123.847 176.178C130.241 184.336 136.519 192.588 142.687 200.92C145.264 204.401 147.815 207.897 150.312 211.429C150.862 212.209 152.158 211.464 151.602 210.673C143.703 199.51 135.393 188.627 127.009 177.824C126.308 176.923 125.608 176.023 124.903 175.123C124.728 175.548 124.552 175.973 124.377 176.398C128.345 176.828 132.362 176.568 136.304 176.018C140.746 175.403 145.154 174.403 149.391 172.917C152.493 171.832 155.655 170.517 158.286 168.521C159.742 167.421 161.508 165.78 161.293 163.76C160.962 160.729 157.08 159.958 154.649 159.553C150.287 158.823 145.854 158.983 141.487 159.598C137.044 160.223 132.712 161.369 128.425 162.659C124.798 163.75 120.475 164.84 117.869 167.806C116.798 169.026 116.173 170.662 117.083 172.172C117.153 172.282 117.228 172.382 117.308 172.487C117.664 172.972 117.053 172.237 117.459 172.677C117.659 172.892 117.869 173.082 118.109 173.252C118.704 173.667 119.415 173.923 120.125 174.073C121.646 174.388 123.217 174.333 124.753 174.228C126.644 174.103 128.535 174.018 130.421 173.857C135.133 173.457 139.796 172.697 144.433 171.767C148.17 171.017 152.108 170.086 155.134 167.656C156.125 166.86 157.165 165.675 156.78 164.3C156.29 162.564 154.319 162.094 152.773 161.884C148.025 161.239 143.258 162.114 138.595 162.994C134.183 163.825 129.735 164.665 125.538 166.31C124.122 166.865 122.171 167.476 121.341 168.881C120.54 170.236 121.601 171.297 122.902 171.562C126.849 172.377 131.071 171.552 134.953 170.787C139.155 169.961 143.818 169.211 147.58 167.04C149.061 166.185 148.846 164.245 147.05 163.995C146.024 163.85 144.869 164.1 143.848 164.22C142.772 164.35 141.697 164.5 140.626 164.7C137.44 165.295 134.218 166.335 131.241 167.636C130.586 167.921 129.835 168.291 129.55 168.996C129.225 169.801 129.725 170.512 130.171 171.147C130.721 171.927 132.017 171.182 131.461 170.391L131.481 170.411Z" fill="black"/>
<path d="M156.866 221.117C156.656 220.907 156.866 221.147 156.921 221.237C156.986 221.347 157.051 221.452 157.121 221.562C157.271 221.807 157.416 222.052 157.567 222.302C157.927 222.902 158.282 223.502 158.637 224.103C159.207 225.073 159.793 226.038 160.328 227.033C160.788 227.879 162.074 227.123 161.619 226.278C161.068 225.268 160.473 224.278 159.888 223.282C159.528 222.672 159.167 222.067 158.807 221.462C158.657 221.212 158.507 220.967 158.357 220.717C158.227 220.502 158.107 220.236 157.927 220.061C157.246 219.381 156.191 220.437 156.871 221.117H156.866Z" fill="black"/>
<path d="M145.27 207.961C142.209 203.805 139.147 199.644 136.085 195.488C131.268 188.941 126.45 182.399 121.632 175.852C120.547 174.377 119.451 172.916 118.38 171.431C117.825 170.655 116.529 171.401 117.09 172.186C120.016 176.257 123.033 180.268 126.005 184.304C130.872 190.916 135.74 197.533 140.613 204.145C141.733 205.671 142.854 207.191 143.979 208.717C144.545 209.482 145.841 208.737 145.27 207.961Z" fill="black"/>
<path d="M155.254 164.469C155.719 165.6 156.19 166.73 156.655 167.86C156.72 168.02 156.79 168.185 156.855 168.345C157.005 168.706 157.355 169.001 157.771 168.866C158.116 168.756 158.451 168.335 158.291 167.945C157.826 166.815 157.355 165.685 156.89 164.554C156.825 164.394 156.755 164.229 156.69 164.069C156.54 163.709 156.19 163.414 155.769 163.549C155.424 163.659 155.089 164.079 155.249 164.469H155.254Z" fill="black"/>
<path d="M147.17 165.626C147.756 166.902 148.336 168.172 148.921 169.448C149.006 169.628 149.086 169.813 149.171 169.993C149.336 170.348 149.877 170.463 150.192 170.263C150.557 170.028 150.632 169.623 150.462 169.242C149.877 167.967 149.296 166.697 148.711 165.421C148.626 165.236 148.546 165.056 148.461 164.876C148.296 164.521 147.756 164.406 147.44 164.611C147.075 164.846 147 165.251 147.17 165.631V165.626Z" fill="black"/>
<path d="M106.603 215.044C104.822 210.728 103.036 206.406 101.255 202.09C101 201.475 100.745 200.86 100.49 200.24C100.125 200.52 99.7594 200.8 99.3942 201.08C107.203 204.441 115.013 207.797 122.817 211.158C127.43 213.143 132.037 215.124 136.65 217.11C137.335 217.405 138.015 217.7 138.696 217.99C139.021 218.13 139.411 218.38 139.766 218.45C139.776 218.45 139.921 218.52 139.926 218.52C139.896 218.585 139.531 217.975 139.831 218.615C140.182 219.365 140.532 220.115 140.882 220.866C142.238 223.767 143.598 226.662 144.954 229.563C145.519 230.774 146.09 231.989 146.655 233.199C146.835 233.584 147.015 233.965 147.195 234.35C147.24 234.45 147.28 234.575 147.34 234.665C147.461 234.835 147.29 234.96 147.29 234.405C147.29 235.365 148.781 235.365 148.781 234.405C148.781 233.97 148.386 233.399 148.211 233.019C147.746 232.024 147.28 231.029 146.81 230.033C145.569 227.383 144.329 224.737 143.088 222.086C142.588 221.016 142.083 219.94 141.582 218.87C141.382 218.44 141.217 217.895 140.942 217.505C140.537 216.93 139.411 216.689 138.811 216.434C129.055 212.238 119.305 208.042 109.55 203.846C106.413 202.495 103.276 201.145 100.14 199.794C99.6293 199.574 98.7638 199.96 99.044 200.635C100.825 204.951 102.611 209.272 104.392 213.589C104.647 214.204 104.902 214.824 105.157 215.439C105.518 216.314 106.963 215.929 106.598 215.044H106.603Z" fill="black"/>
<path d="M101.415 199.349C106.042 201.28 110.665 203.205 115.293 205.131C122.632 208.192 129.971 211.248 137.31 214.308C139.001 215.014 140.692 215.719 142.382 216.424C142.232 216.309 142.087 216.194 141.937 216.084C144.749 222.086 147.555 228.092 150.367 234.094C150.767 234.955 151.172 235.815 151.572 236.675C151.978 237.545 153.263 236.785 152.863 235.92C150.877 231.679 148.896 227.437 146.91 223.196C145.834 220.895 144.759 218.595 143.683 216.299C143.468 215.844 143.323 215.284 142.873 215.024C142.658 214.899 142.392 214.824 142.162 214.729C138.15 213.053 134.138 211.383 130.121 209.712C124.227 207.256 118.329 204.796 112.436 202.34C110.125 201.375 107.808 200.414 105.497 199.449C104.342 198.969 103.171 198.354 101.975 197.979C101.92 197.964 101.87 197.934 101.815 197.914C100.93 197.544 100.544 198.989 101.42 199.354L101.415 199.349Z" fill="black"/>
<path d="M140.831 218.405C141.492 217.775 142.157 217.145 142.817 216.51C142.913 216.42 143.008 216.33 143.103 216.24C143.388 215.97 143.393 215.455 143.103 215.185C142.797 214.904 142.347 214.894 142.047 215.185C141.387 215.815 140.721 216.445 140.061 217.08C139.966 217.17 139.871 217.26 139.776 217.35C139.491 217.62 139.486 218.135 139.776 218.405C140.081 218.686 140.531 218.696 140.831 218.405Z" fill="black"/>
<path d="M100.3 200.965C100.835 200.44 101.375 199.91 101.915 199.385C101.99 199.31 102.066 199.235 102.146 199.16C102.426 198.885 102.441 198.375 102.146 198.105C101.845 197.829 101.39 197.814 101.09 198.105C100.55 198.635 100.014 199.16 99.4741 199.685C99.399 199.76 99.319 199.835 99.244 199.91C98.9638 200.185 98.9488 200.695 99.244 200.965C99.5441 201.24 99.9994 201.255 100.3 200.965Z" fill="black"/>
<path d="M106.006 199.965C105.481 198.694 104.955 197.424 104.43 196.154C104.065 196.434 103.7 196.714 103.335 196.994C108.012 199.005 112.69 201.02 117.367 203.031C124.821 206.237 132.28 209.448 139.735 212.654C141.445 213.389 143.161 214.129 144.872 214.864C144.757 214.714 144.642 214.569 144.527 214.419C147.349 221.211 150.17 228.003 152.992 234.8C153.397 235.775 153.802 236.751 154.207 237.726C154.573 238.601 156.013 238.216 155.648 237.331C153.807 232.904 151.966 228.473 150.13 224.047C149.01 221.351 147.889 218.655 146.773 215.965C146.453 215.189 146.183 213.864 145.378 213.474C141.641 211.668 137.718 210.178 133.906 208.537C127.743 205.887 121.58 203.236 115.416 200.585C111.699 198.985 107.982 197.379 104.265 195.789C104.205 195.764 104.145 195.739 104.085 195.709C103.575 195.488 102.709 195.874 102.989 196.549C103.515 197.819 104.04 199.09 104.565 200.36C104.925 201.235 106.371 200.85 106.006 199.965Z" fill="black"/>
<path d="M105.392 195.222C110.13 197.198 114.873 199.173 119.61 201.144C127.129 204.28 134.653 207.411 142.173 210.547C143.903 211.267 145.639 211.992 147.37 212.712C147.195 212.537 147.02 212.367 146.85 212.192C149.912 219.684 152.978 227.181 156.04 234.674C156.47 235.729 156.906 236.789 157.336 237.845C157.696 238.72 159.137 238.34 158.777 237.449C156.921 232.913 155.07 228.382 153.214 223.845C152.013 220.905 150.807 217.964 149.607 215.028C149.251 214.153 148.891 213.282 148.536 212.407C148.341 211.932 148.236 211.507 147.746 211.267C146.705 210.757 145.579 210.367 144.509 209.916C142.067 208.901 139.626 207.881 137.185 206.866C130.761 204.19 124.338 201.514 117.909 198.838C115.278 197.743 112.646 196.648 110.02 195.552C108.684 194.997 107.348 194.342 105.978 193.867C105.913 193.842 105.848 193.812 105.788 193.787C104.902 193.417 104.517 194.862 105.392 195.227V195.222Z" fill="black"/>
<path d="M145.774 214.743C146.455 214.097 147.13 213.447 147.81 212.802C147.906 212.712 148.006 212.617 148.101 212.527C148.386 212.257 148.391 211.742 148.101 211.472C147.795 211.192 147.35 211.187 147.045 211.472C146.365 212.117 145.689 212.767 145.009 213.412C144.914 213.502 144.814 213.597 144.719 213.687C144.434 213.957 144.429 214.473 144.719 214.743C145.024 215.023 145.474 215.033 145.774 214.743Z" fill="black"/>
<path d="M104.236 196.88C104.786 196.339 105.337 195.799 105.887 195.259C105.967 195.184 106.042 195.104 106.122 195.029C106.402 194.754 106.417 194.244 106.122 193.974C105.822 193.699 105.367 193.684 105.067 193.974C104.516 194.514 103.966 195.054 103.411 195.594C103.331 195.669 103.256 195.749 103.175 195.824C102.895 196.099 102.88 196.609 103.175 196.88C103.476 197.155 103.931 197.17 104.231 196.88H104.236Z" fill="black"/>
<path d="M122.031 200.709C121.446 199.544 120.866 198.378 120.28 197.213C119.94 197.553 119.6 197.893 119.26 198.233C123.232 199.944 127.204 201.649 131.176 203.36C137.51 206.085 143.843 208.811 150.177 211.537C151.637 212.162 153.093 212.792 154.554 213.418C154.439 213.268 154.324 213.122 154.209 212.972C155.91 218.369 157.611 223.766 159.312 229.162C159.557 229.947 159.807 230.733 160.052 231.513C160.342 232.428 161.783 232.038 161.493 231.118C160.272 227.237 159.047 223.361 157.826 219.479C157.18 217.429 156.53 215.378 155.885 213.328C155.645 212.567 155.48 212.207 154.749 211.892C146.219 208.221 137.69 204.555 129.16 200.884C126.108 199.574 123.062 198.258 120.01 196.948C119.335 196.658 118.634 197.258 118.99 197.968C119.575 199.133 120.155 200.299 120.741 201.464C121.171 202.324 122.456 201.569 122.031 200.709Z" fill="black"/>
<path d="M173.936 200.794C173.936 200.363 174.156 199.788 174.246 199.363C174.366 198.798 174.491 198.238 174.621 197.673C174.866 196.597 175.121 195.527 175.381 194.457C175.922 192.251 176.487 190.05 177.072 187.855C177.693 185.514 178.333 183.178 179.003 180.853C178.763 181.033 178.523 181.218 178.283 181.398C180.504 181.463 182.721 181.633 184.932 181.823C185.887 181.903 185.882 180.413 184.932 180.333C182.721 180.142 180.504 179.977 178.283 179.912C177.953 179.902 177.653 180.152 177.563 180.463C176.867 182.868 176.212 185.284 175.572 187.705C174.986 189.91 174.416 192.121 173.881 194.337C173.601 195.492 173.33 196.647 173.07 197.808C172.86 198.738 172.45 199.843 172.45 200.799C172.45 201.754 173.941 201.759 173.941 200.799L173.936 200.794Z" fill="black"/>
<path d="M220.596 216.385C220.596 214.945 220.856 213.499 221.091 212.084C221.466 209.778 221.916 207.487 222.392 205.202C223.452 200.1 224.628 195.009 226.019 189.987C226.559 188.027 227.114 186.051 227.875 184.161C228.015 183.815 227.72 183.3 227.354 183.245C216.138 181.55 204.862 180.054 193.571 178.994C190.879 178.739 188.183 178.514 185.481 178.434C185.151 178.424 184.851 178.674 184.761 178.984C182.815 185.696 180.994 192.493 179.628 199.35C179.868 199.165 180.108 198.985 180.349 198.8C179.378 198.8 179.378 200.29 180.339 200.29C180.654 200.29 181.004 200.06 181.069 199.745C182.435 192.888 184.256 186.091 186.202 179.379C185.962 179.559 185.722 179.744 185.481 179.924C190.679 180.069 195.872 180.68 201.035 181.27C207.053 181.955 213.062 182.725 219.06 183.55C221.696 183.916 224.333 184.286 226.964 184.681C226.789 184.376 226.619 184.071 226.444 183.76C224.843 187.727 223.897 192.018 222.897 196.169C221.701 201.136 220.596 206.137 219.745 211.179C219.46 212.884 219.12 214.65 219.115 216.385C219.115 217.345 220.606 217.345 220.606 216.385H220.596Z" fill="black"/>
<path d="M171.093 197.139C171.093 196.149 171.534 194.983 171.749 194.013C172.009 192.818 172.289 191.627 172.574 190.437C173.12 188.166 173.7 185.901 174.295 183.64C174.966 181.109 175.651 178.584 176.371 176.063C176.131 176.248 175.891 176.428 175.651 176.613C180.479 176.753 185.301 177.298 190.094 177.833C196.082 178.498 202.06 179.259 208.029 180.079C211.065 180.494 214.107 180.924 217.139 181.379C216.964 181.074 216.793 180.769 216.618 180.459C216.428 181.069 216.243 181.679 216.063 182.29C215.788 183.21 217.229 183.605 217.504 182.685C217.684 182.075 217.864 181.459 218.059 180.854C218.169 180.504 217.929 179.994 217.539 179.934C206.128 178.228 194.661 176.678 183.17 175.628C180.669 175.398 178.162 175.192 175.651 175.117C175.321 175.107 175.021 175.358 174.93 175.668C174.185 178.263 173.48 180.869 172.789 183.48C172.169 185.831 171.569 188.191 171.008 190.562C170.728 191.742 170.458 192.928 170.198 194.113C169.993 195.053 169.598 196.174 169.598 197.139C169.598 198.104 171.088 198.099 171.088 197.139H171.093Z" fill="black"/>
<path d="M135.539 204.882C137.05 204.471 138.561 204.061 140.072 203.656C140.287 203.596 140.502 203.541 140.717 203.481C141.642 203.231 141.247 201.791 140.322 202.041C138.811 202.451 137.3 202.861 135.789 203.266C135.574 203.326 135.359 203.381 135.139 203.441C134.213 203.691 134.609 205.132 135.534 204.882H135.539Z" fill="black"/>
<path d="M101.815 214.019C102.701 213.779 103.586 213.539 104.477 213.298C104.602 213.263 104.732 213.228 104.857 213.193C105.232 213.093 105.502 212.658 105.377 212.273C105.252 211.888 104.862 211.643 104.462 211.753C103.576 211.993 102.691 212.233 101.8 212.473C101.675 212.508 101.545 212.543 101.42 212.578C101.045 212.678 100.775 213.113 100.9 213.499C101.025 213.884 101.415 214.129 101.815 214.019Z" fill="black"/>
<path d="M266.471 92.8718C266.201 93.0718 265.966 93.3019 265.756 93.562C265.246 94.1972 264.87 94.8974 264.62 95.6776C264.5 96.0477 264.76 96.5078 265.14 96.5929C265.551 96.6879 265.931 96.4678 266.061 96.0727C266.116 95.8927 266.181 95.7176 266.256 95.5426C266.231 95.6026 266.206 95.6626 266.181 95.7226C266.361 95.3025 266.591 94.8974 266.871 94.5373C266.831 94.5873 266.791 94.6373 266.756 94.6873C266.936 94.4572 267.137 94.2272 267.367 94.0521C267.317 94.0921 267.267 94.1322 267.217 94.1672C267.387 94.0421 267.512 93.9121 267.567 93.712C267.617 93.532 267.592 93.2969 267.492 93.1369C267.387 92.9768 267.237 92.8368 267.046 92.7918C266.861 92.7517 266.631 92.7517 266.471 92.8668V92.8718Z" fill="black"/>
<path d="M222.568 90.0673C223.433 94.0184 224.589 97.8996 225.444 101.856C226.24 105.532 226.995 109.573 228.936 112.849C229.426 113.674 230.717 112.924 230.227 112.094C228.306 108.853 227.605 104.792 226.82 101.151C225.989 97.2944 224.849 93.5183 224.008 89.6671C223.803 88.7319 222.362 89.127 222.568 90.0622V90.0673Z" fill="black"/>
<path d="M263.058 102.542C262.482 105.093 262.022 107.664 261.037 110.1C260.887 110.475 261.202 110.92 261.557 111.015C261.982 111.13 262.322 110.87 262.477 110.495C263.463 108.059 263.923 105.488 264.499 102.937C264.709 102.002 263.273 101.602 263.058 102.542Z" fill="black"/>
<path d="M260.576 111.264C260.576 111.069 260.236 111.794 260.176 111.904C260.046 112.15 259.916 112.4 259.771 112.64C259.551 113.01 259.311 113.365 259.056 113.71C258.42 114.56 257.695 115.345 256.944 116.096C255.158 117.881 253.167 119.477 251.021 120.812C249.3 121.882 247.104 123.198 245.008 123.183C242.692 123.163 240.43 121.802 238.579 120.537C236.053 118.811 233.782 116.681 231.831 114.325C231.215 113.585 230.165 114.645 230.775 115.38C232.661 117.656 234.842 119.692 237.244 121.417C239.315 122.908 241.721 124.328 244.303 124.623C246.609 124.888 248.93 123.738 250.876 122.633C253.262 121.277 255.479 119.567 257.465 117.671C258.46 116.726 259.396 115.716 260.226 114.62C260.541 114.2 260.842 113.77 261.107 113.315C261.427 112.76 262.072 111.919 262.072 111.259C262.072 110.299 260.581 110.299 260.581 111.259L260.576 111.264Z" fill="black"/>
<path d="M223.442 91.3374C222.246 91.5975 221.22 92.2927 220.725 93.438C220.255 94.5284 220.285 95.7337 220.45 96.8891C220.85 99.6999 223.071 102.526 225.943 103.106C226.878 103.296 227.284 101.856 226.338 101.665C224.042 101.2 222.271 98.9697 221.921 96.719C221.796 95.9188 221.746 95.0485 221.996 94.2683C222.276 93.393 222.966 92.9629 223.837 92.7728C224.772 92.5678 224.377 91.1274 223.442 91.3324V91.3374Z" fill="black"/>
<path d="M241.678 92.3685C242.389 93.7439 243.039 95.3293 242.844 96.9148C242.739 97.7601 242.344 98.5103 241.833 99.1755C241.393 99.7506 240.743 100.371 240.723 101.226C240.693 102.727 242.013 104.007 243.034 104.942C243.739 105.592 244.795 104.537 244.09 103.887C243.444 103.292 241.763 101.916 242.349 100.911C242.459 100.726 242.639 100.546 242.854 100.276C243.114 99.9457 243.374 99.6106 243.584 99.2455C245.02 96.7898 244.195 93.9689 242.969 91.6082C242.529 90.758 241.238 91.5082 241.678 92.3635V92.3685Z" fill="black"/>
<path fill-rule="evenodd" clip-rule="evenodd" d="M254.186 93.3166C254.035 91.8812 253.135 90.7309 252.034 90.7809C250.934 90.8309 250.228 92.1363 250.293 93.6617C250.443 95.0971 251.344 96.2475 252.445 96.1975C253.54 96.0624 254.251 94.8421 254.181 93.3166H254.186Z" fill="#322F2C"/>
<path fill-rule="evenodd" clip-rule="evenodd" d="M236.31 94.2932C236.16 92.8578 235.259 91.7074 234.159 91.7574C233.058 91.8074 232.353 93.1128 232.418 94.6383C232.568 96.0737 233.468 97.224 234.569 97.174C235.665 97.039 236.46 95.8136 236.31 94.2932Z" fill="#322F2C"/>
<path d="M220.26 71.0018C219.194 74.4329 218.594 78.0239 218.904 81.62C219.214 85.186 220.35 88.562 221.846 91.793C222.251 92.6632 223.537 91.908 223.137 91.0427C221.716 87.9718 220.625 84.7159 220.375 81.3249C220.125 77.9439 220.7 74.6229 221.701 71.397C221.986 70.4767 220.545 70.0866 220.26 71.0018Z" fill="black"/>
<path d="M268.722 75.7684C269.738 80.0597 269.548 84.421 268.042 88.5622C267.712 89.4675 269.153 89.8576 269.483 88.9573C271.079 84.571 271.239 79.9046 270.163 75.3683C269.943 74.433 268.502 74.8281 268.722 75.7634V75.7684Z" fill="black"/>
<path d="M248.327 54.2672C245.961 53.532 243.409 53.577 240.973 53.8921C238.056 54.2772 235.165 55.0124 232.478 56.2278C228.211 58.1533 224.979 61.4043 221.127 63.945C219.386 65.0954 217.5 66.1307 215.554 66.8959C215.084 67.081 214.749 67.7462 215.224 68.1413C215.984 68.7765 217.11 68.9365 218.065 69.0165C220.127 69.1916 222.198 68.6764 224.084 67.8812C224.954 67.5161 224.574 66.0707 223.688 66.4408C222.038 67.136 220.287 67.6161 218.481 67.5461C217.955 67.5261 217.435 67.4611 216.93 67.316C216.785 67.276 216.635 67.231 216.495 67.176C216.42 67.146 216.134 66.9559 216.284 67.081C216.174 67.4961 216.064 67.9112 215.954 68.3263C219.591 66.8909 222.733 64.7003 225.78 62.2846C227.516 60.9091 229.297 59.5938 231.233 58.5134C233.719 57.128 236.39 56.2428 239.177 55.6826C242.024 55.1074 245.12 54.8174 247.937 55.6926C248.857 55.9777 249.248 54.5373 248.332 54.2522L248.327 54.2672Z" fill="black"/>
<path d="M258.512 58.317C260.563 58.7671 262.424 59.7574 263.89 61.2678C265.245 62.6683 266.081 64.4438 267.031 66.1243C268.597 68.8951 270.733 71.6859 273.605 73.2114C273.665 72.7562 273.725 72.3011 273.785 71.846C271.394 72.2711 268.237 72.016 265.981 70.6806C265.15 70.1905 264.4 71.4808 265.225 71.971C267.842 73.5114 271.224 73.8115 274.18 73.2864C274.816 73.1713 274.901 72.2111 274.36 71.921C271.309 70.3005 269.368 67.2696 267.752 64.3437C266.781 62.5932 265.781 60.8827 264.255 59.5523C262.724 58.2219 260.888 57.3067 258.912 56.8716C257.976 56.6665 257.576 58.1019 258.517 58.312L258.512 58.317Z" fill="black"/>
<path d="M244.053 74.3523C246.35 74.6924 248.696 75.1976 250.792 76.2329C252.533 77.0931 253.974 78.3735 255.375 79.6989C258.041 82.2197 260.663 84.6254 264.465 85.0705C265.28 85.1655 265.365 84.0602 264.84 83.6801C263.254 82.5397 262.514 80.7592 261.793 79.0137C261.093 77.3232 260.332 75.6877 259.002 74.3924C258.311 73.7222 257.256 74.7775 257.946 75.4477C259.382 76.8481 260.037 78.6986 260.808 80.5042C261.563 82.2747 262.504 83.8251 264.089 84.9655C264.215 84.5003 264.34 84.0402 264.465 83.5751C260.673 83.1349 258.181 80.2091 255.52 77.7934C254.149 76.553 252.683 75.4377 250.987 74.6824C248.911 73.7622 246.695 73.247 244.459 72.9119C243.518 72.7719 243.113 74.2123 244.063 74.3523H244.053Z" fill="black"/>
<path d="M225.292 79.9242C225.542 82.2099 224.957 84.5006 223.521 86.3111C223.036 86.9213 223.651 87.9766 224.426 87.4814C227.788 85.3508 229.589 81.8398 231.59 78.5338C232.571 76.9083 233.631 75.3179 235.057 74.0425C236.483 72.7721 238.904 71.4217 240.545 73.1322C241.21 73.8274 242.266 72.7721 241.601 72.0769C240.055 70.4664 237.578 70.5915 235.767 71.6768C233.962 72.7571 232.561 74.3576 231.38 76.0781C228.989 79.5741 227.388 83.8354 223.666 86.1961C223.966 86.5862 224.271 86.9763 224.571 87.3664C226.252 85.2508 227.083 82.625 226.783 79.9242C226.678 78.9789 225.187 78.9689 225.292 79.9242Z" fill="black"/>
<path d="M244.364 69.4066C244.614 68.4864 245.064 67.7261 245.964 67.336C246.835 66.9609 247.83 66.8959 248.751 66.7359C251.432 66.2807 253.894 64.7203 255.835 62.8647C256.53 62.1995 255.475 61.1442 254.779 61.8094C253.724 62.8147 252.543 63.67 251.242 64.3301C250.037 64.9403 248.791 65.2204 247.465 65.4355C246.52 65.5855 245.534 65.7806 244.724 66.3157C243.763 66.9509 243.218 67.9212 242.923 69.0115C242.673 69.9418 244.113 70.3369 244.364 69.4066Z" fill="black"/>
<path d="M241.864 64.4145C241.484 60.1232 246.356 58.5327 249.703 57.9576C253.175 57.3574 257.027 56.9373 259.474 54.0814C259.048 53.9064 258.623 53.7313 258.198 53.5563C258.413 55.6769 257.608 57.4724 255.767 58.5927C254.946 59.0929 255.697 60.3833 256.522 59.8831C258.778 58.5077 259.959 56.197 259.694 53.5563C259.634 52.9761 258.883 52.4909 258.418 53.0261C255.641 56.2621 250.944 55.982 247.157 56.9673C243.745 57.8525 240.018 60.4483 240.373 64.4195C240.458 65.3697 241.949 65.3797 241.864 64.4195V64.4145Z" fill="black"/>
<path d="M229.741 88.0015C231.597 87.6764 233.483 87.3714 235.279 86.7862C236.575 86.3611 238.261 85.6058 238.246 84.0054C238.236 83.0451 236.745 83.0451 236.755 84.0054C236.755 84.1504 236.725 84.2704 236.625 84.4005C236.475 84.5955 236.255 84.7356 236.045 84.8556C235.509 85.1657 234.914 85.3508 234.324 85.5208C232.693 85.991 231.012 86.276 229.341 86.5661C228.946 86.6361 228.721 87.1213 228.821 87.4814C228.936 87.9015 229.341 88.0716 229.741 88.0015Z" fill="black"/>
<path d="M255.126 84.8166C253.385 84.7965 251.634 84.7865 249.904 84.5815C249.043 84.4815 247.487 84.4114 247.172 83.4061C246.887 82.4909 245.446 82.881 245.731 83.8013C246.212 85.3467 247.772 85.7818 249.208 85.9819C251.169 86.252 253.145 86.287 255.121 86.307C256.082 86.317 256.082 84.8266 255.121 84.8166H255.126Z" fill="black"/>
<path d="M236.18 81.6445C237.111 81.5595 237.886 81.2644 238.692 80.7992C239.042 80.5942 239.367 80.4841 239.777 80.5592C240.167 80.6342 240.523 80.8192 240.918 80.8843C241.348 80.9543 241.763 80.9243 242.173 80.7742C242.564 80.6342 242.924 80.3941 243.349 80.3841C243.799 80.3741 244.245 80.5892 244.685 80.6792C245.18 80.7842 245.69 80.8342 246.196 80.8543C247.156 80.8943 247.156 79.4038 246.196 79.3638C245.695 79.3438 245.21 79.2838 244.72 79.1537C244.27 79.0337 243.824 78.8887 243.349 78.8887C242.874 78.8887 242.459 79.0437 242.028 79.2238C241.673 79.3738 241.393 79.4788 241.008 79.3738C240.147 79.1387 239.412 78.8787 238.531 79.2188C237.711 79.5339 237.101 80.064 236.19 80.144C235.24 80.2291 235.235 81.7195 236.19 81.6345L236.18 81.6445Z" fill="black"/>
<path d="M233.953 115.315C235.914 115.8 238.035 115.46 239.896 114.74C241.547 114.105 243.303 113.14 244.264 111.589C244.769 110.769 243.478 110.019 242.973 110.834C242.213 112.069 240.687 112.855 239.376 113.35C237.8 113.94 236.014 114.285 234.353 113.875C233.423 113.645 233.023 115.08 233.958 115.315H233.953Z" fill="black"/>
<path d="M251.157 110.593C252.803 112.044 254.919 113.024 257.15 112.954C258.326 112.919 259.586 112.729 260.697 112.354C261.547 112.069 262.388 111.284 263.283 111.204C264.224 111.114 264.264 109.728 263.283 109.713C260.307 109.663 258.161 107.573 255.934 105.852C254.739 104.932 253.518 104.037 252.107 103.466C250.857 102.961 249.636 103.006 248.335 103.301C246.864 103.641 245.399 104.497 243.893 104.612C242.487 104.722 241.021 104.272 239.61 104.207C238.42 104.152 237.194 104.227 236.129 104.807C234.858 105.502 233.812 106.582 232.867 107.658C230.851 109.953 229.1 112.809 225.928 113.524C225.122 113.704 225.283 115.085 226.128 114.99C227.059 114.885 227.984 115.425 228.9 115.55C230.135 115.72 231.461 115.645 232.687 115.425C234.883 115.03 236.729 113.624 238.04 111.864C238.615 111.094 237.319 110.348 236.749 111.109C235.453 112.844 233.592 113.904 231.441 114.079C230.425 114.164 229.395 114.185 228.404 113.914C227.669 113.714 226.893 113.409 226.118 113.494C226.183 113.984 226.248 114.47 226.318 114.96C228.945 114.365 230.656 112.564 232.326 110.573C234.067 108.498 235.933 105.702 238.905 105.677C240.271 105.662 241.602 105.927 242.952 106.067C244.448 106.222 245.724 105.652 247.115 105.197C248.425 104.767 249.906 104.267 251.272 104.732C252.823 105.262 254.153 106.342 255.434 107.332C257.835 109.193 260.077 111.139 263.273 111.194V109.703C262.503 109.773 261.843 110.143 261.167 110.498C260.222 110.994 259.216 111.234 258.161 111.369C255.939 111.654 253.888 111.019 252.202 109.533C251.487 108.898 250.426 109.953 251.147 110.588L251.157 110.593Z" fill="black"/>
<path d="M255.124 111.789C253.598 112.519 251.712 112.479 250.086 112.179C248.705 111.924 247.049 111.484 246.059 110.424C245.398 109.723 244.348 110.779 245.003 111.479C246.204 112.759 248.155 113.349 249.826 113.64C251.842 113.99 254.003 113.975 255.879 113.074C256.745 112.659 255.989 111.374 255.124 111.784V111.789Z" fill="black"/>
<path d="M263.596 116.014C263.45 114.214 263.405 112.408 263.395 110.603C263.395 110.198 263.055 109.857 262.65 109.857C262.245 109.857 261.9 110.198 261.905 110.603C261.915 112.408 261.96 114.214 262.105 116.014C262.135 116.414 262.425 116.759 262.85 116.759C263.23 116.759 263.631 116.419 263.596 116.014Z" fill="black"/>
<path d="M261.892 107.726C261.892 108.627 261.892 109.527 261.902 110.427C261.902 110.817 262.242 111.192 262.647 111.172C263.047 111.152 263.398 110.842 263.393 110.427C263.383 109.527 263.383 108.627 263.383 107.726C263.383 107.336 263.037 106.961 262.637 106.981C262.232 107.001 261.892 107.311 261.892 107.726Z" fill="black"/>
<path d="M234.228 118.84C234.293 119.701 234.363 120.561 234.428 121.416C234.443 121.616 234.503 121.796 234.648 121.941C234.778 122.071 234.988 122.166 235.178 122.161C235.558 122.146 235.959 121.831 235.924 121.416C235.859 120.556 235.789 119.696 235.724 118.84C235.709 118.64 235.648 118.46 235.503 118.31C235.373 118.18 235.163 118.085 234.973 118.09C234.593 118.105 234.193 118.42 234.228 118.835V118.84Z" fill="black"/>
<path d="M260.506 88.7169C261.482 88.8119 262.462 88.8519 263.438 88.8869C263.618 88.892 263.798 88.897 263.978 88.912C264.003 88.912 264.293 88.947 264.153 88.927C264.228 88.937 264.298 88.952 264.373 88.967C264.748 89.052 264.878 89.122 265.129 89.4221C265.389 89.7272 265.914 89.6922 266.184 89.4221C266.489 89.117 266.444 88.6769 266.184 88.3668C265.544 87.6116 264.603 87.4415 263.668 87.4015C262.612 87.3565 261.557 87.3265 260.501 87.2215C260.101 87.1814 259.756 87.5916 259.756 87.9667C259.756 88.4018 260.101 88.6719 260.501 88.7119L260.506 88.7169Z" fill="#3C332D"/>
<path d="M261.752 88.4106C261.762 92.1416 261.591 95.5827 260.401 96.608C259.1 97.7083 252.306 99.0137 249.44 98.1234C246.573 97.2432 246.183 94.1522 245.703 93.232C245.222 92.3117 244.697 90.7462 243.101 90.8513C242.296 90.9013 241.816 91.3414 241.49 91.8816C241.165 92.4267 241 93.0769 240.825 93.5621C240.47 94.5323 240.5 97.6583 237.788 98.9186C235.062 100.179 228.163 99.8039 226.722 98.8936C225.397 98.0384 224.766 94.6474 224.266 90.9463C224.201 90.4311 224.466 89.926 224.931 89.7109C224.956 89.6959 224.986 89.6759 225.021 89.6709C226.672 89.0807 229.359 88.5856 233.486 88.4606C238.439 88.2955 239.579 89.776 242.996 89.4208C246.418 89.3058 247.359 87.6903 252.291 87.1852C256.389 86.7551 259.115 86.8701 260.841 87.2502C261.371 87.3652 261.762 87.8554 261.752 88.4106ZM239.069 92.1316C239.079 91.7315 239.029 91.2964 238.729 90.9863C237.818 90.056 235.522 89.826 233.251 89.901C230.099 90.011 228.043 90.3711 226.782 90.8213C226.377 90.9613 226.152 91.3614 226.202 91.7665C226.572 94.5173 226.872 96.9131 227.878 97.5432C228.979 98.2234 234.667 98.5135 236.758 97.5682C237.778 97.1031 238.149 96.2829 238.489 95.2476C238.829 94.2023 239.054 93.232 239.069 92.1316ZM259.946 89.4859C259.946 89.0657 259.665 88.7056 259.255 88.6156C257.944 88.3405 255.858 88.2605 252.712 88.5756C250.45 88.8157 248.209 89.3458 247.429 90.4011C247.179 90.7312 247.189 91.1814 247.249 91.5865C247.404 92.6718 247.764 93.6021 248.249 94.5974C248.724 95.5677 249.205 96.3379 250.28 96.653C252.471 97.3082 258.065 96.2579 259.07 95.4276C259.981 94.6724 259.951 92.2617 259.941 89.4909L259.946 89.4859Z" fill="#3C332D"/>
<path d="M265.069 89.9078C266.019 89.5877 267.08 89.4276 267.99 89.9478C268.731 90.3679 269.211 91.1281 269.471 91.9234C270.166 94.034 269.596 96.3297 268.205 98.0352C267.43 98.9905 266.389 99.4806 265.269 99.9107C264.383 100.251 264.768 101.696 265.664 101.351C266.905 100.876 268.1 100.351 269.026 99.3606C270.031 98.2802 270.827 96.8148 271.112 95.3594C271.557 93.0687 271.037 90.2429 269.011 88.8325C267.73 87.9422 266.099 87.9972 264.673 88.4774C263.768 88.7825 264.158 90.2229 265.069 89.9178V89.9078Z" fill="black"/>
</g>
<defs>
<clipPath id="clip0_706_5775">
<rect width="214.358" height="289" fill="white" transform="matrix(-1 0 0 1 313.357 27)"/>
</clipPath>
</defs>
</svg>
