<svg width="360" height="331" viewBox="0 0 360 331" fill="none" xmlns="http://www.w3.org/2000/svg">
<g clip-path="url(#clip0_706_5775)">
<path d="M259.782 26.7291V44.5007C259.782 45.4728 261.291 45.4728 261.291 44.5007V26.7291C261.291 25.757 259.782 25.757 259.782 26.7291Z" fill="black"/>
<path d="M250.808 28.5924V46.3639C250.808 47.3361 252.317 47.3361 252.317 46.3639V28.5924C252.317 27.6203 250.808 27.6203 250.808 28.5924Z" fill="black"/>
<path d="M241.656 32.4517V50.2182C241.656 51.1904 243.166 51.1904 243.166 50.2182V32.4517C243.166 31.4796 241.656 31.4796 241.656 32.4517Z" fill="black"/>
<path d="M268.751 28.5924V46.3639C268.751 47.3361 270.26 47.3361 270.26 46.3639V28.5924C270.26 27.6203 268.751 27.6203 268.751 28.5924Z" fill="black"/>
<path d="M277.902 32.4517V50.2182C277.902 51.1904 279.412 51.1904 279.412 50.2182V32.4517C279.412 31.4796 277.902 31.4796 277.902 32.4517Z" fill="black"/>
<path d="M175.778 228.119L175.586 232.833L172.173 221.982C172.912 223.167 175.287 227.203 175.783 228.119H175.778Z" fill="white"/>
<path d="M329.098 186.263C329.139 192.237 329.661 198.44 328.769 204.369C328.091 208.986 327.123 213.563 325.791 218.049C324.834 221.295 324.08 224.727 322.277 227.649C320.423 230.646 317.293 232.18 313.784 233.001C309.454 234.034 304.541 233.973 300.758 234.292C295.699 234.717 290.619 234.99 285.539 235.087C282.951 235.147 280.267 235.33 277.684 235.122C275.887 234.98 273.045 235.517 272.129 233.831C272.043 233.669 271.967 233.502 271.921 233.33C271.46 231.902 272.012 230.099 272.129 228.798C272.615 223.295 269.384 212.763 267.277 212.763C264.801 213.467 260.754 214.13 257.918 214.475L257.893 214.282C258.186 207.609 258.789 186.374 258.445 181.19C258.166 177.063 258.227 166.34 258.546 162.218C258.708 160.254 259.544 158.107 258.956 156.153C257.908 152.654 259.301 150.705 259.746 147.317C260.202 143.854 260.962 140.938 261.331 137.439C262.137 135.424 263.16 133.622 264.573 131.976C265.17 131.288 265.915 130.174 266.74 129.369C266.897 129.217 267.085 129.09 267.277 129.009C267.839 128.741 268.518 128.756 269.065 129.121C270.468 130.027 271.977 131.991 272.625 132.832C274.337 135.044 275.603 137.875 277.644 139.773C278.039 138.609 277.988 137.363 278.216 136.163C278.794 133.176 279.695 130.25 280.784 127.409C281.331 125.992 281.923 124.579 282.572 123.207C283.144 121.971 284.076 120.817 284.552 119.566L284.602 119.592C295.79 123.622 308.836 129.622 318.048 137.222C321.639 140.194 324.946 143.718 326.485 148.203C328.288 153.489 328.455 159.489 328.632 165.013C328.86 172.096 329.053 179.185 329.103 186.278L329.098 186.263Z" fill="white"/>
<path d="M316.529 283.479C316.934 293.337 316.372 303.104 315.931 312.957C314.234 318.43 227.106 321.407 226.433 314.693C225.81 305.347 225.308 291.433 225.268 282.062L257.447 271.687V261.819C273.486 262.148 288.553 263.181 304.232 258.462C306.162 257.885 309.727 257.126 312.173 255.926L313.232 255.992C316.478 264.963 316.154 274.148 316.529 283.474V283.479Z" fill="#A4B8FF"/>
<path d="M314.396 246.528C314.488 249.029 315.906 252.629 314.138 254.573C313.677 255.085 312.989 255.53 312.173 255.935C309.732 257.135 306.162 257.89 304.232 258.472C288.553 263.186 273.486 262.158 257.447 261.829V240.113C258.647 237.45 259.296 234.665 261.509 232.635H261.57C261.554 233.004 261.529 233.374 261.504 233.744C261.413 234.022 261.681 234.498 261.965 234.559C262.248 234.609 262.537 234.498 262.805 234.392C265.565 233.283 268.908 233.642 271.921 233.333C271.972 233.511 272.048 233.678 272.129 233.835C273.046 235.521 275.887 234.984 277.685 235.126C280.267 235.333 282.957 235.151 285.539 235.09C290.619 234.989 295.694 234.721 300.758 234.295C304.541 233.976 309.454 234.037 313.784 233.004L313.875 233.409C314.321 237.774 314.219 242.153 314.396 246.533V246.528Z" fill="white"/>
<path d="M256.576 71.8909C255.386 70.8732 253.472 70.9593 252.084 71.7593C247.298 74.5035 245.875 80.3919 242.254 84.3715L242.33 84.4374C241.935 85.5462 241.54 86.655 241.155 87.7588C240.947 88.336 240.735 88.9182 240.481 89.4853C240.01 89.703 239.742 90.2144 239.808 90.7359C239.656 91.0042 239.499 91.2321 239.301 91.4498C239.337 91.5662 239.367 91.6928 239.403 91.8194L239.22 91.8599C238.967 91.9105 238.734 91.9763 238.521 92.0624L238.061 91.2068C234.754 84.1589 234.166 78.235 236.526 70.7416C236.896 69.6176 237.686 67.3088 237.686 67.3088C234.034 68.3822 231.624 67.4708 231.229 67.1164C231.229 67.1164 235.199 65.562 238.521 63.0153C241.854 60.5394 245.976 56.4636 252.773 54.7725C257.397 53.5726 261.306 53.4561 264.006 54.327C266.077 54.8029 267.733 56.1244 267.834 56.2003C267.971 56.1851 268.113 56.1598 268.244 56.1345C270.736 55.6738 273.349 54.8434 274.96 52.8789C275.137 54.3573 274.833 55.7143 274.089 56.8332L274.727 56.975C277.462 57.5522 280.126 59.1724 281.903 61.9267C282.921 63.4305 284.339 66.5493 285.788 68.286C288.072 71.0201 290.189 72.1289 290.189 72.1289C290.189 72.1289 287.403 72.6403 284.516 71.9871C284.516 71.9871 285.068 74.0833 285.59 75.1668C287.175 81.7185 285.666 86.4272 284.901 88.5233L282.754 88.6246C282.258 88.6246 281.716 88.7157 281.108 88.9081C280.951 88.817 280.799 88.7157 280.652 88.5992C280.05 88.1284 279.614 87.4347 279.224 86.7613C278.611 85.6981 278.034 84.5943 277.745 83.3944L277.781 83.3083C274.028 81.7134 271.688 77.9819 268.174 75.7895C265.874 74.3617 262.871 73.6175 260.217 73.2225C259.873 73.2327 259.529 73.2377 259.184 73.2377C259.022 73.2377 258.865 73.2377 258.713 73.2023C258.571 73.1668 258.435 73.1111 258.313 73.0504C257.675 72.7466 257.012 72.4378 256.576 71.8859V71.8909Z" fill="#6A686E"/>
<path d="M283.666 117.571C284.284 118.158 284.901 118.578 284.603 119.409C284.587 119.459 284.572 119.5 284.547 119.55C284.066 120.801 283.134 121.96 282.567 123.191C281.918 124.568 281.326 125.976 280.779 127.393C279.69 130.229 278.789 133.16 278.211 136.147C277.983 137.347 278.034 138.588 277.639 139.757C275.598 137.859 274.332 135.033 272.62 132.816C271.972 131.975 270.463 130.011 269.06 129.105C268.513 128.745 267.834 128.725 267.272 128.993C268.7 127.727 271.182 125.201 272.306 124.016C273.709 122.558 274.884 121.383 276.165 119.763C276.96 118.766 277.796 117.793 278.632 116.842C278.748 116.71 278.89 116.507 279.062 116.28C279.432 115.783 279.883 115.196 280.272 115.09C281.255 114.821 283.002 116.938 283.666 117.566V117.571Z" fill="white"/>
<path d="M264.097 94.4313C263.6 93.4237 263.241 92.482 263.084 91.3833C263.023 90.9731 263.018 90.5175 263.266 90.1833C264.056 89.12 266.32 88.5783 268.614 88.3353C271.795 88.0163 273.912 88.1023 275.238 88.3758C275.649 88.4669 275.937 88.8264 275.937 89.2567C275.947 92.0617 275.978 94.5021 275.056 95.2667C274.038 96.1071 268.376 97.1704 266.158 96.5071C265.069 96.1882 264.578 95.4084 264.102 94.4262L264.097 94.4313Z" fill="white"/>
<path d="M241.768 91.5679C241.717 91.1578 241.945 90.7527 242.355 90.611C243.631 90.1604 245.713 89.7907 248.903 89.6794C251.203 89.6034 253.527 89.8363 254.449 90.7781C254.753 91.0869 254.804 91.5325 254.793 91.9375C254.778 93.0514 254.55 94.0336 254.206 95.0918C253.862 96.1399 253.487 96.9703 252.454 97.4411C250.337 98.3981 244.578 98.1044 243.464 97.4158C242.446 96.7779 242.148 94.3526 241.768 91.5679Z" fill="white"/>
<path d="M286.188 96.2002C284.871 99.2634 283.341 99.8508 281.574 100.529C280.642 100.681 280.146 101.689 279.862 102.671C279.467 104.433 279.163 106.053 278.697 107.714C278.464 108.569 277.411 111.322 277.042 112.218C274.849 111.747 273.713 115.261 271.875 113.833C270.34 112.648 268.602 115.676 266.708 115.124C265.037 114.628 265.398 115.42 263.479 116.093C262.957 116.27 263.052 114.801 262.51 114.801C266.618 127.821 261.534 116.093 261.534 116.093C259.513 115.825 259.873 116.887 258.338 117.708C256.601 118.639 249.24 113.979 247.979 115.447C247.032 116.556 246.365 113.187 245.257 112.529C244.872 111.901 244.578 111.319 244.386 110.792C243.12 107.425 242.654 105.567 241.945 102.281C241.788 101.527 241.601 100.696 241.398 99.7495C240.709 96.5091 239.965 93.8256 239.428 91.8206C239.392 91.6941 239.362 91.5675 239.327 91.451C239.519 91.2333 239.681 91.0055 239.833 90.7625C240.334 94.4889 240.973 97.9217 242.32 98.7824C243.778 99.7039 250.762 100.084 253.522 98.8078C256.267 97.5319 256.232 94.3674 256.596 93.3852C256.774 92.889 256.941 92.2358 257.27 91.6839C257.599 91.1371 258.085 90.6916 258.901 90.6409C260.521 90.5296 261.048 92.1194 261.534 93.051C262.02 93.9826 262.415 97.1116 265.317 98.0027C268.219 98.8989 275.097 97.5825 276.413 96.4686C277.624 95.4306 277.791 91.9472 277.781 88.1701C277.791 87.6081 277.396 87.1119 276.859 86.9955C275.112 86.6107 272.352 86.4942 268.204 86.9297C263.21 87.441 262.263 89.0764 258.794 89.1929C255.335 89.5524 254.181 88.0537 249.167 88.2208C244.989 88.3473 242.269 88.8486 240.598 89.446C240.562 89.4562 240.532 89.4714 240.507 89.4865C240.76 88.9144 240.968 88.3372 241.18 87.76C241.565 86.6512 241.96 85.5424 242.355 84.4386L242.279 84.3728C245.895 80.3932 247.323 74.5048 252.109 71.7605C253.497 70.9656 255.406 70.8796 256.601 71.8922C257.037 72.4441 257.7 72.758 258.338 73.0567C258.465 73.1175 258.597 73.1732 258.739 73.2086C258.89 73.244 259.047 73.244 259.21 73.244C259.554 73.244 259.898 73.2339 260.243 73.2289C262.896 73.6238 265.9 74.3681 268.199 75.7959C271.714 77.9882 274.058 81.7197 277.806 83.3146L277.771 83.4007C278.054 84.6006 278.637 85.6993 279.249 86.7676C279.634 87.441 280.07 88.1347 280.678 88.6056C280.819 88.722 280.971 88.8233 281.133 88.9094C281.736 88.7271 282.283 88.6309 282.779 88.6309C286.421 88.6309 287.439 93.3801 286.213 96.2104L286.188 96.2002Z" fill="white"/>
<path d="M278.915 116.114L279.067 116.291C278.9 116.519 278.758 116.722 278.637 116.853C277.796 117.8 276.965 118.777 276.17 119.775C274.889 121.395 273.709 122.57 272.311 124.028C271.187 125.213 268.7 127.734 267.277 128.995C267.085 129.086 266.897 129.213 266.74 129.364C265.915 130.169 265.17 131.288 264.573 131.972C263.16 133.617 262.137 135.42 261.332 137.435C260.734 135.42 259.989 133.617 258.946 131.972C258.511 131.283 257.954 130.169 257.351 129.364C257.234 129.213 257.098 129.086 256.956 129.005C255.908 127.739 251.567 123.365 250.944 122.418C250.843 122.256 250.706 121.998 250.56 121.719L250.894 121.582C250.828 120.712 250.757 119.846 250.691 118.975L250.793 118.864C254.469 122.104 258.875 124.661 261.899 124.018C267.262 122.833 274.631 116.484 276.611 112.783C276.895 112.271 277.148 111.785 277.365 111.304C277.801 111.076 278.282 110.808 278.708 110.631C278.718 112.459 278.758 114.271 278.91 116.109L278.915 116.114Z" fill="white"/>
<path d="M277.37 111.304C277.153 111.78 276.899 112.271 276.616 112.783C274.636 116.484 267.267 122.833 261.904 124.018C258.88 124.666 254.474 122.104 250.798 118.863C249.369 117.603 248.063 116.246 246.979 114.929C247.333 114.904 247.683 114.864 248.037 114.813C248.61 114.727 249.172 114.56 249.709 114.327L249.866 114.681C253.213 115.547 258.126 113.466 259.453 111.248L261.382 110.99C262.977 112.742 268.376 114.028 271.481 112.494L271.546 112.124C272.124 112.241 272.711 112.291 273.294 112.256C274.393 112.19 275.487 111.998 276.54 111.679C276.773 111.603 277.062 111.471 277.37 111.309V111.304Z" fill="white"/>
<path d="M267.277 212.763C269.384 212.763 272.615 223.294 272.129 228.798C272.012 230.099 271.455 231.901 271.921 233.329C268.908 233.638 265.565 233.279 262.805 234.387C262.537 234.499 262.253 234.605 261.965 234.555C261.681 234.494 261.413 234.018 261.504 233.739C261.529 233.37 261.554 233 261.57 232.631C261.686 229.309 261.301 225.856 260.455 222.676C260.126 221.477 258.602 214.965 256.652 214.611C257.037 214.57 257.457 214.525 257.918 214.469C260.754 214.125 264.801 213.462 267.277 212.758V212.763Z" fill="white"/>
<path d="M239.266 247.692C239.033 247.783 238.785 247.869 238.537 247.945C237.488 248.254 236.222 247.91 235.052 247.368C234.196 246.958 233.391 246.437 232.768 245.986V245.875C232.095 245.875 231.411 245.773 230.687 245.54C229.142 245.034 227.785 244.128 226.448 243.247L226.412 242.852C226.296 242.862 226.179 242.877 226.058 242.887C224.503 243.024 222.979 243.029 221.419 242.953C219.96 242.867 218.147 243.247 217.231 242.138L227.947 238.822L227.962 238.887C229.446 238.67 231.502 238.006 232.556 236.842C235.108 234.007 238.445 230.457 240.036 227.05C240.497 226.052 240.046 224.852 239.271 224.037C239.261 224.037 234.065 225.146 234.065 225.146L228.008 226.538L227.967 226.371C229.573 224.063 229.497 221.774 231.492 219.749C232.221 219.01 233.102 218.539 234.095 218.164C234.505 217.997 234.941 217.855 235.381 217.719C236.298 217.44 237.27 217.182 238.233 216.853C241.899 215.612 241.965 215.764 245.839 215.562C248.584 215.41 252.094 215.526 255.158 215.815L255.183 215.572C255.685 214.802 256.181 214.529 256.652 214.615C258.602 214.969 260.126 221.48 260.455 222.68C261.301 225.86 261.691 229.308 261.57 232.634H261.509C259.291 234.665 258.647 237.45 257.447 240.113C257.239 240.573 257.017 241.029 256.768 241.47C255.751 243.292 254.262 243.844 252.388 244.543C249.901 245.475 247.521 246.75 245.044 247.723C243.014 248.512 241.352 248.401 239.276 247.707L239.266 247.697V247.692Z" fill="white"/>
<path d="M225.866 180.547C223.708 180.243 221.292 179.919 218.75 179.58C218.279 173.656 218.087 167.707 218.163 161.768C218.213 158.051 218.011 154.239 218.927 150.608C220.193 145.631 226.017 142.421 229.765 139.399C235.002 135.171 241.271 129.915 246.508 125.688L246.736 125.627C247.258 127.809 248.539 133.505 248.909 136.148C249.076 137.348 249.04 138.589 249.334 139.758C250.828 137.859 251.77 135.034 253.026 132.817C253.507 131.976 254.611 130.012 255.644 129.105C256.049 128.746 256.541 128.726 256.961 128.994C257.103 129.08 257.24 129.202 257.356 129.353C257.959 130.158 258.516 131.277 258.951 131.961C259.995 133.606 260.739 135.409 261.337 137.424C260.967 140.923 260.202 143.834 259.752 147.302C259.306 150.694 257.913 152.639 258.961 156.137C259.549 158.092 258.708 160.238 258.551 162.203C258.232 166.324 258.171 177.048 258.45 181.174C258.794 186.359 258.192 207.599 257.898 214.267L257.923 214.459C257.462 214.52 257.042 214.561 256.657 214.601C256.186 214.515 255.69 214.789 255.188 215.558L255.163 215.801C252.099 215.518 248.59 215.396 245.845 215.548C241.975 215.751 241.91 215.599 238.238 216.839C237.271 217.168 236.298 217.426 235.387 217.705C235.371 213.199 240.355 190.83 242.781 184.881C240.456 184.526 236.693 183.99 232.287 183.397C232.632 182.233 232.849 181.544 232.849 181.544C231.173 181.291 228.747 180.942 225.866 180.537V180.547Z" fill="white"/>
<path d="M227.952 238.821L217.236 242.138L212.561 243.591V254.841L235.037 247.778L235.052 247.368C236.217 247.915 237.488 248.259 238.537 247.945C238.79 247.869 239.033 247.783 239.266 247.692C241.347 248.396 243.008 248.507 245.039 247.717C247.516 246.745 249.901 245.469 252.383 244.538C254.257 243.839 255.751 243.287 256.763 241.464C257.017 241.019 257.234 240.568 257.442 240.107V271.691L225.263 282.066L170.901 299.594V239.692L172.831 239.247L175.348 238.67L180.281 237.535L224.64 227.313L228.008 226.538L234.065 225.146L239.261 224.037C240.041 224.852 240.496 226.052 240.031 227.05C238.445 230.457 235.103 234.006 232.55 236.842C231.502 238.006 229.446 238.67 227.957 238.887L227.942 238.821H227.952Z" fill="#CAB79F"/>
<path d="M256.961 128.993C256.541 128.735 256.044 128.75 255.644 129.109C254.611 130.016 253.502 131.98 253.026 132.821C251.765 135.033 250.828 137.863 249.334 139.762C249.04 138.598 249.076 137.352 248.909 136.152C248.539 133.509 247.252 127.813 246.736 125.631C246.66 125.347 246.609 125.13 246.569 124.978C246.351 124.147 246.802 123.727 247.258 123.14C247.744 122.512 249.035 120.396 249.759 120.664C250.018 120.765 250.311 121.261 250.575 121.722C250.727 122.001 250.858 122.259 250.96 122.421C251.583 123.368 255.918 127.742 256.971 128.998L256.961 128.993Z" fill="white"/>
<path d="M241.93 102.285L241.763 102.32C239.504 101.91 237.245 99.5202 236.794 96.9582C236.475 95.1051 236.491 92.8723 238.532 92.0673C238.739 91.9862 238.977 91.9154 239.23 91.8647L239.413 91.8242C239.95 93.8292 240.699 96.5127 241.383 99.7531C241.585 100.7 241.768 101.53 241.93 102.285Z" fill="white"/>
<path d="M232.282 183.411C236.688 184.008 240.451 184.545 242.776 184.894C240.35 190.843 235.366 213.212 235.381 217.718C234.946 217.855 234.51 217.997 234.095 218.164L233.877 217.349L235.037 196.539L232.92 195.699L230.109 194.585L229.365 194.717L195.388 200.666C196.629 194.388 198.978 185.77 200.037 181.978C200.371 180.768 200.584 180.049 200.584 180.049C204.747 180.155 211.715 180.854 218.922 181.71C221.262 181.988 223.637 182.282 225.941 182.575C228.139 182.854 230.282 183.137 232.287 183.406L232.282 183.411Z" fill="#ADB7BF"/>
<path d="M235.052 247.365L235.037 247.775L212.561 254.838V243.588L217.236 242.135C218.152 243.244 219.965 242.864 221.424 242.95C222.984 243.026 224.513 243.016 226.063 242.884C226.179 242.874 226.296 242.859 226.417 242.849L226.453 243.244C227.785 244.125 229.147 245.031 230.692 245.537C231.411 245.77 232.1 245.871 232.773 245.871V245.983C233.396 246.433 234.201 246.955 235.057 247.365H235.052Z" fill="#AD7668"/>
<path d="M235.037 196.541L233.877 217.35L234.095 218.166C233.103 218.545 232.226 219.011 231.492 219.75C229.497 221.771 229.568 224.064 227.967 226.373L228.008 226.54L224.64 227.315L180.281 237.537L181.699 206.374L228.732 197.706L232.591 196.992L235.027 196.546L235.037 196.541Z" fill="#AD7668"/>
<path d="M235.037 196.539L232.601 196.985L228.742 197.699L181.709 206.367L176.776 203.926L186.454 202.23L188.161 201.936L195.388 200.671C195.398 200.671 229.37 194.721 229.37 194.721L230.114 194.59L232.925 195.704L235.042 196.544L235.037 196.539Z" fill="#AD7668"/>
<path d="M232.844 181.554C232.844 181.554 232.626 182.242 232.282 183.407C230.277 183.138 228.134 182.855 225.936 182.576C223.637 182.283 221.262 181.989 218.917 181.711C211.705 180.855 204.742 180.156 200.579 180.05C200.579 180.05 200.371 180.769 200.032 181.979C197.403 181.751 195.099 181.599 193.301 181.554C193.301 181.554 189.812 193.66 188.146 201.928C188.146 201.938 186.439 202.231 186.439 202.231L185.264 198.237C186.819 189.979 190.637 176.703 190.637 176.703C196.705 176.87 208.697 178.273 218.74 179.579C221.282 179.913 223.703 180.242 225.855 180.546C228.732 180.951 231.158 181.3 232.839 181.554H232.844Z" fill="#919F93"/>
<path d="M200.037 181.984C198.979 185.776 196.629 194.394 195.388 200.672C195.378 200.672 188.151 201.933 188.151 201.933C189.812 193.665 193.306 181.559 193.306 181.559C195.104 181.609 197.409 181.761 200.037 181.984Z" fill="#CEAE97"/>
<path d="M185.274 198.237L186.449 202.232L176.771 203.928L175.778 228.12C175.282 227.203 172.907 223.168 172.167 221.983C172.157 221.973 169.666 214.064 169.666 214.064L165.655 212.333C154.837 197.037 138.747 176.496 138.747 176.496C142.996 176.977 148.415 176.673 154.569 175.478C162.221 173.995 168.739 171.484 172.345 168.881C174.492 167.337 175.616 165.762 175.343 164.35L185.274 198.227V198.237Z" fill="white"/>
<path d="M181.709 206.368L180.286 237.532L175.353 238.666L175.586 232.833L175.778 228.119L176.771 203.928L181.709 206.368Z" fill="#AD7668"/>
<path d="M172.173 221.983L175.586 232.833L175.353 238.666L172.836 239.243L162.221 213.279L135.714 202.227L133.941 198.688L149.773 205.502L159.238 209.573L165.66 212.333L169.671 214.064L172.162 221.978L172.173 221.988V221.983Z" fill="#919F93"/>
<path d="M175.343 164.354C175.621 165.762 174.497 167.342 172.345 168.886L170.825 165.22C170.734 164.911 170.542 164.598 170.203 164.289C169.575 163.711 168.698 163.509 167.853 163.372C165.477 162.993 163.077 163.028 160.676 163.271C158.848 163.438 157.015 163.742 155.202 164.066C154.579 164.177 153.961 164.294 153.338 164.41C148.137 165.392 142.855 166.39 138.064 168.658C137.36 168.987 135.648 170.035 136.286 171.068C136.742 171.807 138.98 171.772 139.72 171.833C140.561 171.899 141.396 171.899 142.237 171.868L142.353 174.106C141.857 174.141 141.356 174.162 140.859 174.192C138.687 174.283 134.012 174.997 132.275 172.957C132.25 172.921 132.017 172.597 132.017 172.597C130.801 170.577 132.934 168.628 134.458 167.58C137.142 165.732 140.561 164.835 143.65 163.894C151.869 161.403 161.269 159.428 169.853 161.048C171.702 161.403 174.912 162.117 175.343 164.354Z" fill="white"/>
<path d="M162.216 213.279L172.836 239.243L170.907 239.689L169.671 239.127L159.866 215.532L162.216 213.279Z" fill="#DDBF84"/>
<path d="M170.83 165.221L172.35 168.886C168.739 171.489 162.226 173.995 154.574 175.484C148.42 176.673 143.001 176.977 138.752 176.501C138.752 176.501 154.842 197.042 165.66 212.338L159.238 209.579L155.085 203.933L132.28 172.962C134.017 175.003 138.692 174.289 140.864 174.198C141.361 174.172 141.862 174.147 142.358 174.112C146.83 173.853 151.287 173.291 155.693 172.451C158.261 171.955 160.854 171.529 163.355 170.729C163.735 170.613 164.11 170.496 164.49 170.375C165.528 170.056 166.571 169.702 167.493 169.124C168.678 168.385 171.296 166.866 170.825 165.226L170.83 165.221Z" fill="white"/>
<path d="M170.906 239.687V299.584L115.694 264.451V214.6L120.014 216.564L162.692 235.956L166.916 237.88L169.671 239.13L170.906 239.692V239.687Z" fill="#CAB79F"/>
<path d="M170.83 165.22C171.301 166.865 168.683 168.384 167.498 169.119C166.576 169.696 165.533 170.05 164.495 170.369L162.515 166.045L162.474 165.944C162.363 165.762 162.18 165.61 161.978 165.524C161.633 165.392 161.249 165.407 160.889 165.438L160.686 163.266C163.087 163.023 165.487 162.987 167.863 163.367C168.708 163.504 169.585 163.701 170.213 164.283C170.547 164.592 170.739 164.906 170.835 165.215L170.83 165.22Z" fill="white"/>
<path d="M159.866 215.532L169.671 239.126L166.916 237.876L157.167 217.031L119.411 201.3L117.816 197.441L159.861 215.532H159.866Z" fill="#DDBF84"/>
<path d="M157.167 217.031L166.921 237.876L162.697 235.962L154.867 219.229L157.167 217.031Z" fill="#C7B4A9"/>
<path d="M162.51 166.051L164.49 170.375C164.11 170.491 163.735 170.608 163.355 170.729C160.854 171.524 158.261 171.954 155.693 172.451C151.287 173.291 146.83 173.853 142.358 174.111L142.242 171.873C143.26 171.833 144.263 171.711 145.281 171.57C146.673 171.367 148.061 171.094 149.433 170.825C153.647 169.985 157.921 169.129 161.755 167.2C162.11 167.023 162.505 166.77 162.55 166.375C162.565 166.263 162.55 166.157 162.51 166.056V166.051Z" fill="white"/>
<path d="M154.867 219.228L162.697 235.957L120.014 216.565L118.849 213.725L113.831 201.578L154.867 219.228Z" fill="#C7B4A9"/>
<path d="M162.51 166.051C162.55 166.152 162.57 166.258 162.55 166.37C162.5 166.765 162.105 167.018 161.755 167.195C157.921 169.124 153.647 169.98 149.433 170.82C148.056 171.089 146.673 171.367 145.281 171.564C144.961 171.094 144.435 170.521 144.729 169.97C144.997 169.468 145.995 169.078 146.476 168.886C147.164 168.603 149.722 167.701 150.421 167.453C152.123 166.856 153.839 166.441 155.582 166.122C157.329 165.803 159.091 165.6 160.884 165.448C161.244 165.413 161.634 165.398 161.973 165.534C162.175 165.62 162.358 165.767 162.469 165.955L162.51 166.056V166.051Z" fill="white"/>
<path d="M162.216 213.275L159.866 215.533C159.856 215.533 117.816 197.442 117.816 197.442L119.72 195.574L135.709 202.237L162.216 213.28V213.275Z" fill="#DDBF84"/>
<path d="M160.681 163.27L160.884 165.442C159.086 165.594 157.324 165.796 155.582 166.115L155.212 164.07C157.025 163.74 158.853 163.442 160.687 163.275L160.681 163.27Z" fill="white"/>
<path d="M155.085 203.928L159.238 209.573L149.773 205.502L149.838 205.345L155.085 203.928Z" fill="#CAB79F"/>
<path d="M157.167 217.032L154.867 219.229L113.83 201.579L115.694 199.746L119.411 201.3L157.167 217.032Z" fill="#C7B4A9"/>
<path d="M155.207 164.071L155.576 166.116C153.829 166.435 152.117 166.855 150.416 167.448C149.717 167.701 147.159 168.597 146.471 168.881C145.995 169.073 144.992 169.458 144.723 169.964C144.43 170.516 144.956 171.088 145.275 171.559C144.257 171.701 143.255 171.817 142.237 171.863C141.396 171.898 140.56 171.898 139.72 171.827C138.98 171.767 136.742 171.802 136.286 171.063C135.648 170.03 137.36 168.982 138.064 168.653C142.855 166.385 148.137 165.387 153.338 164.405C153.961 164.288 154.579 164.172 155.202 164.061L155.207 164.071Z" fill="white"/>
<path d="M118.849 213.725L120.014 216.565L115.694 214.601L118.773 213.76L118.849 213.725Z" fill="#CAB79F"/>
<path d="M235.204 224.742C235.944 224.479 236.901 223.856 237.716 223.968C238.582 224.089 239.337 225.193 239.413 226.013C239.494 226.884 238.739 227.856 238.299 228.56C237.721 229.481 237.078 230.367 236.404 231.218C235.128 232.828 233.746 234.347 232.373 235.866C231.122 237.248 229.537 237.871 227.719 238.165C226.762 238.317 227.167 239.775 228.119 239.623C229.173 239.451 230.201 239.152 231.168 238.696C232.201 238.21 232.93 237.501 233.685 236.666C235.427 234.737 237.174 232.798 238.689 230.681C239.97 228.894 241.641 226.727 240.476 224.489C239.99 223.552 239.084 222.666 238.01 222.494C236.865 222.307 235.837 222.909 234.799 223.284C233.893 223.608 234.282 225.066 235.199 224.742H235.204Z" fill="black"/>
<path d="M228.575 226.752C230.261 224.221 230.454 220.803 233.406 219.264C234.678 218.606 236.106 218.292 237.468 217.871C238.749 217.482 240.005 216.985 241.317 216.692C243.571 216.185 246.078 216.256 248.372 216.251C251.431 216.251 254.515 216.423 257.548 216.839C258.501 216.97 258.911 215.512 257.948 215.38C254.778 214.95 251.567 214.737 248.367 214.737C245.87 214.737 243.165 214.687 240.719 215.274C239.271 215.623 237.878 216.17 236.455 216.591C234.991 217.021 233.462 217.416 232.155 218.226C229.259 220.028 229.021 223.35 227.268 225.983C226.726 226.793 228.033 227.552 228.575 226.747V226.752Z" fill="black"/>
<path d="M216.653 242.671C217.408 243.471 218.416 243.668 219.479 243.704C220.821 243.744 222.179 243.764 223.521 243.754C226.656 243.729 229.811 243.298 232.93 243.015C234.176 242.904 235.402 242.873 236.546 242.311C237.59 241.795 238.466 240.969 239.266 240.134C241.312 238.008 243.312 235.835 245.556 233.906C246.295 233.274 245.222 232.205 244.487 232.838C242.457 234.585 240.593 236.514 238.765 238.463C238.056 239.218 237.347 240.013 236.481 240.595C235.376 241.339 234.217 241.385 232.93 241.501C230.16 241.754 227.37 242.109 224.589 242.22C223.338 242.271 222.098 242.19 220.847 242.185C219.829 242.18 218.497 242.423 217.722 241.607C217.053 240.899 215.985 241.967 216.653 242.676V242.671Z" fill="black"/>
<path d="M248.306 237.46C244.766 239.622 241.135 241.627 237.483 243.592C235.903 244.442 234.196 245.222 232.353 245.106C230.277 244.974 228.458 243.703 226.782 242.589C225.972 242.053 225.212 243.359 226.017 243.89C227.754 245.045 229.588 246.245 231.695 246.549C233.609 246.822 235.447 246.27 237.164 245.45C239.053 244.549 240.871 243.465 242.705 242.458C244.852 241.278 246.974 240.042 249.066 238.767C249.896 238.26 249.136 236.954 248.301 237.46H248.306Z" fill="black"/>
<path d="M250.868 241.137C247.688 242.783 244.386 244.201 241.231 245.882C239.889 246.595 238.415 247.557 236.835 247.213C235.468 246.914 234.227 246.14 233.103 245.33C232.318 244.758 231.558 246.069 232.338 246.631C233.528 247.497 234.86 248.287 236.298 248.641C237.944 249.046 239.362 248.519 240.831 247.79C244.427 246.003 248.058 244.287 251.623 242.439C252.489 241.993 251.724 240.687 250.858 241.132L250.868 241.137Z" fill="black"/>
<path d="M239.028 248.427C240.335 248.852 241.682 249.121 243.059 248.969C244.33 248.827 245.495 248.336 246.66 247.835C248.048 247.237 249.405 246.579 250.793 245.976C251.967 245.465 253.188 245.07 254.348 244.539C258.936 242.437 258.582 236.407 261.995 233.167C262.704 232.498 261.63 231.43 260.926 232.098C259.341 233.602 258.445 235.526 257.65 237.521C256.824 239.587 256.136 241.906 254.039 243.009C253.026 243.546 251.907 243.875 250.848 244.321C249.663 244.817 248.498 245.364 247.328 245.895C246.093 246.457 244.827 247.111 243.485 247.384C242.097 247.673 240.755 247.399 239.428 246.974C238.501 246.675 238.106 248.133 239.028 248.432V248.427Z" fill="black"/>
<path d="M304.916 142.411C299.882 148.801 297.324 156.603 297.264 164.699C297.233 168.896 297.659 173.079 297.866 177.271C298.089 181.777 298.135 186.303 298.312 190.815C298.509 195.873 298.818 200.885 299.603 205.893C299.755 206.85 301.209 206.445 301.062 205.493C300.378 201.123 300.029 196.728 299.877 192.308C299.725 187.893 299.502 183.483 299.441 179.063C299.335 171.18 297.745 163.216 299.963 155.474C301.204 151.145 303.189 147.029 305.979 143.485C306.577 142.73 305.513 141.652 304.911 142.416L304.916 142.411Z" fill="black"/>
<path d="M267.758 212.925C269.404 210.338 273.258 210.667 275.907 210.358C279.67 209.918 283.438 210.004 287.206 209.639C290.675 209.305 294.053 208.692 297.38 207.665C298.965 207.174 300.616 206.672 302.293 206.753C303.898 206.829 305.296 207.629 306.587 208.536C309.514 210.591 311.869 213.406 314.179 216.105C314.812 216.844 315.875 215.771 315.247 215.037C313.07 212.485 310.856 209.913 308.187 207.847C306.937 206.88 305.529 205.918 303.979 205.498C302.374 205.057 300.677 205.239 299.077 205.614C297.395 206.009 295.785 206.647 294.103 207.042C292.078 207.518 289.996 207.827 287.93 208.055C285.823 208.282 283.701 208.399 281.579 208.414C279.548 208.429 277.568 208.657 275.552 208.885C272.331 209.249 268.422 209.062 266.452 212.161C265.93 212.986 267.237 213.74 267.758 212.925Z" fill="black"/>
<path d="M284.354 120.305C290.963 122.69 297.451 125.454 303.66 128.76C309.742 132.001 315.901 135.758 320.732 140.73C323.178 143.246 325.067 146.132 326.06 149.514C327.139 153.17 327.483 156.992 327.67 160.785C328.065 168.891 328.217 177.022 328.293 185.138C328.329 189.143 328.526 193.148 328.486 197.153C328.445 201.199 327.929 205.153 327.154 209.122C326.409 212.935 325.361 216.651 324.297 220.383C323.406 223.507 322.424 226.955 319.947 229.218C316.042 232.798 309.94 233.01 304.941 233.279C301.796 233.451 298.661 233.719 295.521 233.916C291.409 234.175 287.297 234.266 283.179 234.403C281.255 234.463 279.356 234.453 277.431 234.352C276.191 234.286 274.823 234.529 273.623 234.119C271.967 233.557 272.448 231.37 272.656 230.043C272.848 228.828 272.914 227.638 272.843 226.413C272.686 223.78 272.149 221.147 271.389 218.626C270.807 216.687 270.123 214.489 268.791 212.915C268.381 212.429 267.88 212.044 267.227 212.003C266.254 211.948 266.259 213.461 267.227 213.512C267.161 213.512 267.227 213.512 267.292 213.553C267.399 213.618 267.48 213.71 267.566 213.796C267.829 214.064 268.027 214.403 268.209 214.727C268.766 215.699 269.176 216.752 269.541 217.811C270.437 220.433 271.075 223.198 271.298 225.962C271.4 227.248 271.384 228.509 271.177 229.785C270.939 231.258 270.655 232.944 271.476 234.296C272.144 235.4 273.435 235.719 274.641 235.815C276.094 235.932 277.593 235.906 279.052 235.952C283.159 236.083 287.332 235.83 291.439 235.643C295.177 235.476 298.904 235.127 302.642 234.909C307.955 234.6 313.763 234.63 318.564 232.018C321.127 230.62 322.859 228.469 324.024 225.815C325.533 222.373 326.455 218.575 327.387 214.945C328.395 211.006 329.215 206.971 329.671 202.93C330.132 198.834 330.005 194.698 329.899 190.586C329.676 182.181 329.62 173.772 329.352 165.367C329.119 158.081 329.149 149.894 324.991 143.58C321.198 137.818 315.03 133.651 309.211 130.153C302.986 126.411 296.362 123.338 289.611 120.675C288.006 120.042 286.385 119.429 284.76 118.847C283.843 118.518 283.448 119.976 284.359 120.305H284.354Z" fill="black"/>
<path d="M256.222 215.406C259.964 215.087 263.808 214.515 267.429 213.498C268.366 213.234 267.966 211.776 267.029 212.039C263.535 213.022 259.838 213.589 256.222 213.898C255.259 213.979 255.249 215.493 256.222 215.406Z" fill="black"/>
<path d="M255.781 215.952C256.029 215.588 256.272 215.259 256.622 215.431C257.098 215.664 257.432 216.403 257.655 216.838C258.384 218.246 258.84 219.805 259.26 221.329C259.817 223.35 260.303 225.385 260.552 227.471C260.744 229.091 260.815 230.732 260.764 232.367C260.734 233.354 260.39 234.929 261.711 235.283C262.436 235.476 263.19 235 263.859 234.812C264.735 234.559 265.641 234.438 266.548 234.362C268.315 234.22 270.093 234.255 271.86 234.088C272.823 233.997 272.828 232.483 271.86 232.58C270.204 232.737 268.538 232.716 266.877 232.833C266.153 232.883 265.429 232.954 264.715 233.076C264.345 233.137 263.975 233.218 263.61 233.314C263.469 233.354 262.39 233.825 262.273 233.769C262.076 233.663 262.279 231.982 262.284 231.678C262.294 230.742 262.258 229.81 262.192 228.878C262.071 227.243 261.838 225.603 261.488 223.998C261.144 222.413 260.719 220.828 260.227 219.284C259.736 217.755 259.184 216.048 258.131 214.803C256.936 213.39 255.447 213.765 254.469 215.198C253.922 216.003 255.229 216.757 255.776 215.957L255.781 215.952Z" fill="black"/>
<path d="M225.394 154.026C225.84 158.416 225.82 162.846 225.394 167.236C225.187 169.383 224.939 171.499 224.903 173.656C224.868 175.955 224.969 178.253 225.06 180.547C225.101 181.514 226.61 181.519 226.569 180.547C226.483 178.309 226.387 176.076 226.412 173.838C226.438 171.621 226.691 169.443 226.904 167.236C227.329 162.846 227.354 158.416 226.904 154.026C226.807 153.069 225.293 153.059 225.394 154.026Z" fill="black"/>
<path d="M219.454 179.584C219.069 174.647 218.861 169.695 218.851 164.739C218.846 162.405 218.856 160.07 218.887 157.736C218.917 155.423 219.008 153.058 219.601 150.81C220.522 147.311 223.632 144.881 226.402 142.815C229.441 140.552 232.383 138.203 235.311 135.798C239.2 132.603 243.074 129.383 246.989 126.218C247.744 125.606 246.67 124.543 245.92 125.15C239.165 130.608 232.606 136.324 225.643 141.514C222.908 143.55 220.006 145.823 218.623 149.043C217.767 151.033 217.56 153.321 217.448 155.458C217.322 157.807 217.372 160.162 217.352 162.511C217.301 168.207 217.504 173.903 217.95 179.584C218.026 180.546 219.535 180.556 219.459 179.584H219.454Z" fill="black"/>
<path d="M258.602 214.281C258.997 205.188 259.235 196.069 259.255 186.966C259.265 183.305 259.032 179.66 258.992 175.999C258.961 173.255 258.972 170.506 259.032 167.761C259.083 165.346 259.083 162.896 259.518 160.511C259.686 159.595 259.868 158.663 259.873 157.726C259.878 156.749 259.564 155.888 259.397 154.942C259.068 153.139 259.584 151.428 260.005 149.691C260.491 147.686 260.698 145.615 261.068 143.585C261.443 141.544 261.813 139.504 262.041 137.438C262.147 136.471 260.633 136.481 260.531 137.438C260.319 139.367 259.964 141.271 259.615 143.18C259.291 144.962 259.103 146.78 258.718 148.552C258.394 150.051 257.908 151.519 257.797 153.058C257.67 154.779 258.435 156.354 258.354 158.05C258.278 159.605 257.817 161.119 257.716 162.673C257.645 163.741 257.604 164.815 257.574 165.888C257.493 168.597 257.462 171.311 257.472 174.019C257.483 177.842 257.736 181.655 257.751 185.477C257.771 190.302 257.665 195.133 257.548 199.958C257.432 204.737 257.305 209.512 257.098 214.286C257.057 215.259 258.566 215.253 258.607 214.286L258.602 214.281Z" fill="black"/>
<path d="M267.763 129.53C271.947 125.804 275.816 121.561 279.295 117.176C279.543 116.862 280.034 115.875 280.455 115.814C280.764 115.774 281.397 116.427 281.599 116.609C281.984 116.958 282.339 117.333 282.698 117.703C283.043 118.062 283.818 118.548 283.843 119.039C283.878 119.713 283.103 120.66 282.769 121.217C282.329 121.941 281.934 122.675 281.584 123.449C280.88 124.999 280.232 126.578 279.645 128.183C278.961 130.052 278.368 131.955 277.897 133.89C277.68 134.786 277.472 135.692 277.345 136.603C277.209 137.596 277.168 138.588 276.874 139.555C277.295 139.444 277.715 139.332 278.135 139.221C276.282 137.444 275.157 135.115 273.684 133.044C272.529 131.419 271.151 129.485 269.404 128.457C267.206 127.161 265.677 129.318 264.472 130.852C262.886 132.872 261.539 134.836 260.562 137.231C260.197 138.132 261.656 138.522 262.02 137.631C262.876 135.535 264.066 133.788 265.459 132.021C266.031 131.292 266.594 130.325 267.363 129.804C268.346 129.135 269.308 130.229 269.956 130.892C272.742 133.712 274.21 137.56 277.062 140.294C277.477 140.694 278.156 140.512 278.323 139.96C278.571 139.145 278.657 138.315 278.748 137.469C278.865 136.391 279.087 135.343 279.346 134.29C279.817 132.355 280.409 130.452 281.093 128.583C281.766 126.74 282.481 124.872 283.397 123.135C284.051 121.89 285.707 120.123 285.342 118.604C285.094 117.571 283.833 116.68 283.098 115.951C282.369 115.227 281.311 114.159 280.176 114.351C278.991 114.553 278.105 116.265 277.386 117.1C276.145 118.533 275 120.037 273.719 121.429C271.481 123.854 269.171 126.27 266.71 128.467C265.981 129.115 267.054 130.178 267.779 129.535L267.763 129.53Z" fill="black"/>
<path d="M262.015 137.236C261.321 134.928 260.293 132.907 259.103 130.826C258.298 129.419 256.941 126.984 255.062 128.578C253.679 129.753 252.717 131.642 251.897 133.231C250.838 135.297 250.048 137.525 248.625 139.383C249.086 139.444 249.547 139.505 250.008 139.565C249.709 138.219 249.729 136.816 249.511 135.454C249.349 134.426 249.147 133.399 248.939 132.376C248.514 130.275 248.053 128.178 247.561 126.087C247.374 125.292 247.04 124.604 247.566 123.885C248.134 123.11 248.701 122.351 249.324 121.622C249.38 121.561 249.501 121.45 249.587 121.404C249.496 121.45 249.319 121.252 249.455 121.45C249.607 121.667 249.739 121.89 249.871 122.118C250.058 122.452 250.23 122.776 250.463 123.08C250.929 123.693 251.466 124.255 251.993 124.822C253.446 126.391 254.996 127.895 256.379 129.53C257.007 130.275 258.07 129.201 257.447 128.462C256.065 126.827 254.52 125.323 253.061 123.753C252.535 123.181 251.942 122.619 251.517 121.966C251.025 121.207 250.6 119.809 249.466 119.89C248.443 119.966 247.708 121.146 247.166 121.89C246.518 122.791 245.576 123.682 245.728 124.877C245.829 125.652 246.088 126.432 246.265 127.191C246.549 128.411 246.817 129.626 247.08 130.852C247.374 132.229 247.658 133.606 247.906 134.993C248.2 136.639 248.184 138.33 248.549 139.96C248.706 140.664 249.572 140.608 249.932 140.143C252.018 137.419 252.955 133.981 254.885 131.14C255.259 130.594 255.994 129.226 256.698 129.839C257.3 130.356 257.66 131.378 258.06 132.052C259.118 133.839 259.954 135.641 260.557 137.641C260.835 138.568 262.294 138.173 262.015 137.241V137.236Z" fill="black"/>
<path d="M313.07 233.406C313.591 238.737 313.115 244.16 313.976 249.451C314.3 251.436 314.569 253.562 312.659 254.777C310.998 255.836 309.003 256.372 307.124 256.889C302.368 258.2 297.643 259.506 292.751 260.24C287.282 261.061 281.741 261.344 276.211 261.395C269.936 261.451 263.666 261.208 257.396 261.076C256.424 261.056 256.424 262.564 257.396 262.585C268.969 262.823 280.597 263.44 292.103 261.845C297.36 261.116 302.419 259.749 307.524 258.347C309.403 257.83 311.348 257.273 313.054 256.306C314.797 255.319 315.713 253.866 315.728 251.841C315.738 250.585 315.475 249.34 315.278 248.104C315.04 246.621 315.05 245.117 315.014 243.613C314.943 240.206 314.913 236.803 314.579 233.411C314.488 232.454 312.973 232.444 313.07 233.411V233.406Z" fill="black"/>
<path d="M312.457 256.201C314.898 263.051 315.323 270.281 315.536 277.486C315.759 284.969 315.946 292.417 315.688 299.906C315.541 304.26 315.323 308.614 315.126 312.968C315.085 313.941 316.594 313.941 316.635 312.968C316.974 305.262 317.4 297.556 317.369 289.845C317.354 286.078 317.182 282.311 317.07 278.549C316.964 274.934 316.858 271.309 316.478 267.709C316.052 263.659 315.278 259.654 313.905 255.806C313.581 254.899 312.122 255.289 312.447 256.206L312.457 256.201Z" fill="black"/>
<path d="M224.463 282.067C224.518 292.943 224.908 303.843 225.633 314.694C225.698 315.661 227.208 315.666 227.142 314.694C226.417 303.838 226.028 292.943 225.972 282.067C225.967 281.095 224.458 281.095 224.463 282.067Z" fill="black"/>
<path d="M255.963 278.624C255.989 286.037 256.414 293.444 257.417 300.786C257.624 302.32 257.665 304.117 258.384 305.52C258.946 306.618 259.893 307.646 260.719 308.558C261.737 309.677 262.76 310.74 263.342 312.163C263.99 313.752 264.203 315.53 264.451 317.221C264.593 318.178 266.046 317.773 265.91 316.821C265.454 313.707 264.866 310.892 262.709 308.487C261.797 307.469 260.855 306.477 260.06 305.358C259.149 304.077 259.139 302.264 258.926 300.755C257.908 293.429 257.503 286.027 257.478 278.629C257.478 277.657 255.963 277.657 255.968 278.629L255.963 278.624Z" fill="black"/>
<path d="M171.236 298.932C169.407 297.767 167.574 296.603 165.746 295.438C161.35 292.643 156.959 289.843 152.563 287.049C147.246 283.666 141.928 280.279 136.615 276.897C132.017 273.97 127.423 271.044 122.825 268.123C121.316 267.161 119.807 266.199 118.297 265.242C117.634 264.821 116.869 264.128 116.125 263.859C116.094 263.849 116.059 263.819 116.028 263.799C116.155 264.016 116.277 264.234 116.403 264.452V214.6C116.023 214.818 115.644 215.036 115.269 215.253C121.483 218.079 127.697 220.904 133.916 223.729C143.827 228.23 153.733 232.736 163.644 237.237C165.923 238.27 168.202 239.308 170.481 240.346C170.354 240.129 170.233 239.911 170.106 239.693V299.59C170.106 300.562 171.615 300.562 171.615 299.59V239.693C171.615 239.45 171.479 239.146 171.241 239.04C165.027 236.215 158.813 233.389 152.594 230.569C142.682 226.068 132.776 221.562 122.865 217.061C120.586 216.023 118.307 214.99 116.028 213.952C115.522 213.724 114.894 213.988 114.894 214.605V263.237C114.894 263.87 114.732 264.68 115.279 265.115C115.694 265.444 116.201 265.702 116.646 265.986C119.406 267.743 122.172 269.5 124.932 271.257C133.941 276.988 142.946 282.725 151.955 288.456C158.028 292.319 164.029 296.334 170.187 300.061C170.284 300.121 170.38 300.182 170.476 300.243C171.296 300.765 172.056 299.458 171.241 298.937L171.236 298.932Z" fill="black"/>
<path d="M239.028 223.308C234.313 224.311 229.618 225.384 224.918 226.463C222.077 227.116 219.241 227.769 216.405 228.422C210.095 229.875 203.785 231.328 197.474 232.786C192.304 233.976 187.138 235.166 181.967 236.361C178.452 237.171 174.938 237.976 171.423 238.786C171.17 238.847 170.911 238.903 170.658 238.963C170.339 239.039 170.101 239.369 170.101 239.693V299.594C170.101 300.065 170.587 300.475 171.058 300.323C173.92 299.402 176.786 298.475 179.648 297.554C186.525 295.336 193.408 293.119 200.285 290.901C208.641 288.207 216.998 285.514 225.354 282.82C232.55 280.501 239.752 278.177 246.949 275.858C249.324 275.094 251.694 274.329 254.069 273.565C255.188 273.205 256.358 272.902 257.452 272.471C257.503 272.451 257.553 272.441 257.604 272.426C257.923 272.324 258.156 272.041 258.156 271.697V240.108C258.156 239.136 256.647 239.136 256.647 240.108V271.697C256.829 271.454 257.017 271.211 257.199 270.967C254.338 271.889 251.471 272.816 248.61 273.737C241.732 275.955 234.85 278.172 227.972 280.39C219.616 283.084 211.26 285.777 202.903 288.471C195.707 290.79 188.505 293.114 181.309 295.433C178.934 296.197 176.563 296.962 174.188 297.726C173.454 297.964 172.714 298.202 171.98 298.435C171.61 298.551 171.144 298.627 170.8 298.815C170.76 298.84 170.699 298.85 170.648 298.86C170.967 299.103 171.286 299.346 171.605 299.589V239.688C171.418 239.931 171.236 240.174 171.053 240.417C174.507 239.622 177.961 238.832 181.415 238.037C186.069 236.964 190.729 235.89 195.383 234.817C201.815 233.333 208.251 231.85 214.683 230.371C218.051 229.597 221.419 228.817 224.787 228.042C229.254 227.015 233.72 225.982 238.207 225.025C238.613 224.939 239.018 224.853 239.428 224.766C240.38 224.564 239.975 223.106 239.028 223.308Z" fill="black"/>
<path d="M227.841 238.053C223.323 239.456 218.801 240.853 214.283 242.256C213.625 242.458 212.966 242.666 212.308 242.868C211.989 242.964 211.751 243.258 211.751 243.597V254.848C211.751 255.324 212.237 255.724 212.708 255.577C219.267 253.516 225.825 251.455 232.383 249.39C233.32 249.096 234.252 248.802 235.189 248.509C236.111 248.22 235.721 246.762 234.789 247.05C228.231 249.111 221.672 251.172 215.114 253.238C214.177 253.531 213.245 253.825 212.313 254.119C212.632 254.362 212.951 254.605 213.27 254.848V243.597C213.083 243.84 212.901 244.083 212.713 244.326C217.231 242.924 221.753 241.527 226.271 240.124C226.929 239.922 227.587 239.719 228.246 239.511C229.173 239.223 228.778 237.765 227.846 238.053H227.841Z" fill="black"/>
<path d="M180.995 237.532C181.41 228.449 181.82 219.37 182.235 210.287C182.296 208.981 182.357 207.675 182.413 206.368C182.23 206.611 182.043 206.854 181.861 207.097C188.404 205.892 194.952 204.687 201.495 203.477C210.075 201.898 218.649 200.318 227.228 198.733C229.881 198.242 232.535 197.751 235.194 197.265C234.875 197.022 234.556 196.779 234.237 196.536C233.898 202.617 233.558 208.692 233.219 214.773C233.173 215.634 233.123 216.489 233.077 217.35C233.021 218.322 234.536 218.317 234.586 217.35C234.926 211.269 235.265 205.194 235.604 199.113C235.65 198.252 235.701 197.396 235.746 196.536C235.776 196.009 235.24 195.726 234.789 195.807C229.147 196.84 223.505 197.883 217.864 198.926C208.18 200.708 198.492 202.495 188.809 204.277C186.358 204.728 183.912 205.178 181.461 205.634C181.126 205.695 180.919 206.049 180.909 206.363C180.493 215.447 180.083 224.53 179.668 233.608C179.607 234.914 179.551 236.22 179.491 237.527C179.445 238.499 180.959 238.494 181 237.527L180.995 237.532Z" fill="black"/>
<path d="M176.062 238.667C176.219 234.819 176.371 230.976 176.528 227.133C176.766 221.305 177.004 215.477 177.242 209.655C177.318 207.746 177.399 205.837 177.475 203.934C177.293 204.177 177.105 204.42 176.923 204.663C180.716 203.999 184.509 203.331 188.303 202.673C188.627 202.617 188.855 202.253 188.855 201.944C188.672 202.177 188.485 202.42 188.303 202.663C189.751 202.41 191.2 202.156 192.648 201.908C193.458 201.766 194.269 201.625 195.079 201.483C195.226 201.458 195.378 201.432 195.525 201.407C195.216 201.458 195.443 201.422 195.595 201.397C197.56 201.058 199.525 200.708 201.49 200.364C209.087 199.032 216.684 197.706 224.275 196.374C226.271 196.025 228.266 195.681 230.261 195.321C231.219 195.149 230.813 193.696 229.861 193.863C224.635 194.8 219.398 195.701 214.167 196.612C207.922 197.706 201.668 198.754 195.433 199.893C195.347 199.908 195.266 199.924 195.18 199.939C195.555 199.873 195.2 199.939 195.094 199.954C194.41 200.07 193.722 200.192 193.038 200.313C191.326 200.612 189.614 200.911 187.908 201.21C187.584 201.265 187.356 201.63 187.356 201.939C187.538 201.706 187.725 201.463 187.908 201.22C184.114 201.873 180.321 202.546 176.528 203.209C176.194 203.27 175.986 203.63 175.976 203.939C175.778 208.718 175.586 213.498 175.388 218.277C175.211 222.652 175.029 227.021 174.852 231.396C174.75 233.821 174.654 236.251 174.558 238.677C174.517 239.649 176.032 239.649 176.067 238.677L176.062 238.667Z" fill="black"/>
<path d="M235.189 195.811C233.857 195.285 232.53 194.758 231.198 194.226C230.884 194.105 230.575 193.978 230.261 193.852C229.892 193.705 229.416 194.014 229.335 194.378C229.233 194.814 229.466 195.148 229.861 195.305C231.137 195.811 232.409 196.318 233.685 196.824C234.055 196.971 234.419 197.118 234.789 197.259C235.159 197.406 235.635 197.097 235.716 196.733C235.817 196.297 235.584 195.963 235.189 195.806V195.811Z" fill="black"/>
<path d="M182.043 205.714C180.6 205 179.161 204.287 177.718 203.578C177.515 203.476 177.308 203.375 177.105 203.274C176.741 203.092 176.285 203.178 176.072 203.547C175.875 203.881 175.976 204.398 176.34 204.58C177.779 205.294 179.222 206.008 180.665 206.717C180.868 206.818 181.076 206.919 181.278 207.021C181.643 207.203 182.094 207.117 182.311 206.752C182.509 206.418 182.408 205.902 182.043 205.719V205.714Z" fill="black"/>
<path d="M187.128 202.028C185.877 197.765 184.626 193.496 183.375 189.233C181.38 182.434 179.389 175.634 177.394 168.834C176.938 167.275 176.477 165.71 176.021 164.151C175.748 163.219 174.289 163.614 174.563 164.551C175.814 168.814 177.065 173.082 178.316 177.345C180.311 184.145 182.301 190.945 184.297 197.744C184.753 199.304 185.213 200.868 185.669 202.428C185.943 203.359 187.401 202.965 187.128 202.028Z" fill="black"/>
<path d="M145.883 171.18C145.691 170.907 145.265 170.512 145.524 170.157C145.686 169.935 146.202 169.788 146.445 169.682C146.937 169.474 147.438 169.297 147.934 169.114C149.079 168.699 150.229 168.269 151.388 167.899C153.191 167.327 155.04 166.922 156.908 166.639C157.866 166.492 158.828 166.38 159.79 166.284C160.19 166.244 160.707 166.112 161.102 166.173C161.968 166.299 161.092 166.649 160.712 166.826C157.288 168.436 153.53 169.206 149.844 169.945C146.126 170.689 142.531 171.251 138.727 171.018C138.266 170.988 137.41 171.033 137.031 170.735C136.56 170.37 137.583 169.757 137.917 169.555C139.477 168.628 141.32 168.056 143.042 167.52C146.749 166.365 150.583 165.666 154.391 164.963C158.448 164.208 162.586 163.52 166.718 163.97C167.711 164.082 170.82 164.467 169.894 166.147C169.347 167.145 168.131 167.793 167.194 168.37C165.64 169.322 163.816 169.798 162.074 170.289C160.18 170.821 158.245 171.17 156.316 171.535C152.264 172.299 148.198 172.902 144.085 173.221C142.526 173.342 140.961 173.403 139.401 173.514C138.109 173.605 136.803 173.692 135.516 173.545C134.498 173.433 133.182 173.16 132.62 172.198C131.748 170.704 133.399 169.231 134.498 168.421C137.39 166.294 141.047 165.423 144.435 164.416C148.031 163.342 151.687 162.431 155.394 161.844C159.213 161.241 163.112 160.998 166.966 161.383C168.486 161.535 170.025 161.768 171.494 162.203C172.563 162.517 173.986 163.018 174.447 164.137C175.059 165.631 173.348 167.104 172.335 167.899C170.172 169.595 167.564 170.77 165.017 171.742C158.159 174.365 150.613 175.864 143.265 175.94C141.735 175.955 140.211 175.889 138.692 175.727C137.957 175.646 137.805 176.567 138.155 177.018C144.627 185.276 150.983 193.63 157.228 202.065C159.836 205.589 162.419 209.128 164.946 212.703C165.503 213.493 166.814 212.738 166.252 211.938C158.256 200.637 149.844 189.62 141.356 178.684C140.647 177.772 139.938 176.861 139.224 175.95C139.046 176.38 138.869 176.81 138.692 177.241C142.708 177.676 146.775 177.413 150.765 176.856C155.263 176.233 159.724 175.221 164.014 173.717C167.154 172.618 170.354 171.287 173.018 169.266C174.492 168.152 176.28 166.492 176.062 164.446C175.728 161.378 171.798 160.598 169.337 160.188C164.92 159.449 160.433 159.611 156.012 160.234C151.515 160.867 147.129 162.026 142.789 163.332C139.117 164.436 134.742 165.54 132.103 168.542C131.019 169.778 130.386 171.433 131.308 172.962C131.379 173.074 131.455 173.175 131.536 173.281C131.895 173.773 131.277 173.028 131.688 173.474C131.89 173.692 132.103 173.884 132.346 174.056C132.949 174.476 133.668 174.735 134.387 174.886C135.927 175.205 137.517 175.15 139.072 175.043C140.986 174.917 142.9 174.831 144.81 174.669C149.58 174.264 154.3 173.494 158.995 172.552C162.778 171.793 166.764 170.851 169.828 168.39C170.831 167.585 171.884 166.385 171.494 164.993C170.998 163.236 169.002 162.76 167.437 162.548C162.631 161.894 157.805 162.78 153.085 163.672C148.618 164.512 144.116 165.363 139.867 167.028C138.433 167.59 136.458 168.208 135.618 169.631C134.807 171.003 135.881 172.076 137.198 172.345C141.194 173.17 145.468 172.335 149.398 171.56C153.652 170.725 158.372 169.965 162.181 167.768C163.68 166.902 163.462 164.937 161.644 164.684C160.605 164.537 159.436 164.791 158.402 164.912C157.314 165.044 156.225 165.196 155.141 165.398C151.915 166.001 148.653 167.054 145.64 168.37C144.977 168.659 144.217 169.033 143.928 169.747C143.599 170.563 144.106 171.281 144.556 171.924C145.113 172.714 146.425 171.96 145.863 171.16L145.883 171.18Z" fill="black"/>
<path d="M171.58 222.509C171.367 222.297 171.58 222.54 171.636 222.631C171.702 222.742 171.767 222.849 171.838 222.96C171.99 223.208 172.137 223.456 172.289 223.709C172.654 224.317 173.013 224.924 173.373 225.532C173.95 226.514 174.543 227.492 175.085 228.499C175.551 229.355 176.852 228.59 176.391 227.735C175.834 226.712 175.232 225.709 174.639 224.702C174.274 224.084 173.91 223.471 173.545 222.859C173.393 222.606 173.241 222.358 173.089 222.104C172.958 221.887 172.836 221.618 172.654 221.441C171.965 220.752 170.896 221.821 171.585 222.509H171.58Z" fill="black"/>
<path d="M159.841 209.193C156.741 204.986 153.642 200.773 150.542 196.566C145.665 189.938 140.788 183.315 135.911 176.688C134.812 175.194 133.703 173.716 132.62 172.212C132.057 171.427 130.746 172.182 131.313 172.977C134.276 177.098 137.329 181.159 140.338 185.245C145.265 191.938 150.193 198.637 155.126 205.33C156.26 206.874 157.395 208.413 158.534 209.958C159.106 210.732 160.418 209.978 159.841 209.193Z" fill="black"/>
<path d="M169.949 165.165C170.42 166.309 170.896 167.453 171.367 168.597C171.433 168.759 171.504 168.927 171.57 169.089C171.722 169.453 172.076 169.752 172.497 169.615C172.846 169.504 173.185 169.078 173.023 168.683C172.552 167.539 172.076 166.395 171.605 165.251C171.54 165.089 171.469 164.922 171.403 164.76C171.251 164.395 170.896 164.096 170.471 164.233C170.121 164.344 169.782 164.77 169.944 165.165H169.949Z" fill="black"/>
<path d="M161.765 166.334C162.358 167.625 162.945 168.911 163.538 170.202C163.624 170.384 163.705 170.571 163.791 170.754C163.958 171.113 164.505 171.23 164.824 171.027C165.194 170.789 165.27 170.379 165.098 169.994C164.505 168.703 163.918 167.417 163.325 166.126C163.239 165.939 163.158 165.756 163.072 165.574C162.905 165.215 162.358 165.098 162.039 165.306C161.669 165.544 161.593 165.954 161.765 166.339V166.334Z" fill="black"/>
<path d="M120.698 216.364C118.895 211.994 117.087 207.62 115.284 203.25C115.026 202.627 114.767 202.005 114.509 201.377C114.139 201.66 113.77 201.944 113.4 202.227C121.306 205.63 129.211 209.027 137.112 212.43C141.781 214.44 146.445 216.445 151.115 218.455C151.808 218.753 152.497 219.052 153.186 219.346C153.515 219.488 153.91 219.741 154.27 219.812C154.28 219.812 154.427 219.882 154.432 219.882C154.401 219.948 154.032 219.331 154.336 219.979C154.69 220.738 155.045 221.498 155.399 222.257C156.772 225.194 158.149 228.125 159.522 231.062C160.094 232.287 160.671 233.517 161.243 234.743C161.426 235.133 161.608 235.517 161.79 235.907C161.836 236.008 161.877 236.135 161.937 236.226C162.059 236.398 161.887 236.525 161.887 235.963C161.887 236.935 163.396 236.935 163.396 235.963C163.396 235.522 162.996 234.945 162.819 234.56C162.348 233.553 161.877 232.545 161.4 231.538C160.145 228.854 158.889 226.176 157.633 223.492C157.126 222.409 156.615 221.32 156.108 220.237C155.906 219.801 155.738 219.25 155.46 218.855C155.05 218.272 153.91 218.029 153.303 217.771C143.427 213.523 133.556 209.275 123.681 205.027C120.505 203.66 117.33 202.293 114.155 200.926C113.638 200.703 112.762 201.093 113.045 201.777C114.848 206.146 116.656 210.521 118.459 214.89C118.718 215.513 118.976 216.141 119.234 216.764C119.599 217.65 121.062 217.26 120.693 216.364H120.698Z" fill="black"/>
<path d="M115.446 200.475C120.131 202.429 124.81 204.379 129.495 206.328C136.924 209.426 144.354 212.52 151.783 215.619C153.495 216.333 155.207 217.046 156.919 217.76C156.767 217.644 156.62 217.527 156.468 217.416C159.314 223.492 162.155 229.573 165.001 235.648C165.407 236.519 165.817 237.39 166.222 238.261C166.632 239.142 167.934 238.372 167.529 237.496C165.518 233.203 163.512 228.909 161.502 224.616C160.413 222.287 159.324 219.958 158.235 217.634C158.018 217.173 157.871 216.606 157.415 216.343C157.197 216.216 156.929 216.14 156.696 216.044C152.634 214.348 148.572 212.657 144.506 210.966C138.54 208.48 132.569 205.989 126.603 203.503C124.263 202.525 121.918 201.553 119.579 200.576C118.409 200.09 117.224 199.467 116.013 199.088C115.958 199.072 115.907 199.042 115.851 199.022C114.955 198.647 114.565 200.11 115.451 200.48L115.446 200.475Z" fill="black"/>
<path d="M155.349 219.764C156.017 219.126 156.691 218.488 157.359 217.845C157.455 217.754 157.552 217.663 157.648 217.572C157.936 217.298 157.942 216.777 157.648 216.504C157.339 216.22 156.883 216.21 156.579 216.504C155.911 217.142 155.237 217.779 154.569 218.422C154.472 218.514 154.376 218.605 154.28 218.696C153.991 218.969 153.986 219.491 154.28 219.764C154.589 220.048 155.045 220.058 155.349 219.764Z" fill="black"/>
<path d="M114.317 202.111C114.859 201.579 115.406 201.042 115.953 200.511C116.028 200.435 116.104 200.359 116.185 200.283C116.469 200.004 116.484 199.488 116.185 199.215C115.882 198.936 115.421 198.921 115.117 199.215C114.57 199.751 114.028 200.283 113.481 200.815C113.405 200.89 113.324 200.966 113.248 201.042C112.965 201.321 112.949 201.837 113.248 202.111C113.552 202.389 114.013 202.404 114.317 202.111Z" fill="black"/>
<path d="M120.095 201.098C119.563 199.812 119.032 198.526 118.5 197.24C118.13 197.524 117.76 197.807 117.391 198.091C122.126 200.126 126.861 202.166 131.596 204.202C139.142 207.447 146.693 210.698 154.239 213.943C155.971 214.688 157.709 215.437 159.441 216.181C159.324 216.029 159.208 215.882 159.091 215.731C161.947 222.606 164.804 229.482 167.66 236.363C168.07 237.35 168.481 238.337 168.891 239.325C169.26 240.211 170.719 239.821 170.349 238.925C168.486 234.444 166.622 229.958 164.763 225.477C163.629 222.748 162.494 220.019 161.365 217.295C161.041 216.51 160.767 215.169 159.952 214.774C156.169 212.946 152.198 211.437 148.339 209.776C142.1 207.093 135.861 204.409 129.621 201.726C125.858 200.106 122.096 198.48 118.333 196.87C118.272 196.845 118.211 196.82 118.15 196.789C117.634 196.567 116.758 196.956 117.041 197.64C117.573 198.926 118.105 200.212 118.637 201.498C119.001 202.384 120.465 201.994 120.095 201.098Z" fill="black"/>
<path d="M119.472 196.297C124.268 198.297 129.069 200.297 133.865 202.292C141.477 205.466 149.094 208.636 156.706 211.811C158.458 212.54 160.215 213.274 161.968 214.003C161.79 213.826 161.613 213.654 161.441 213.476C164.54 221.061 167.645 228.651 170.744 236.235C171.18 237.303 171.621 238.377 172.056 239.445C172.421 240.331 173.879 239.946 173.515 239.045C171.636 234.453 169.762 229.866 167.883 225.273C166.668 222.296 165.447 219.319 164.232 216.347C163.872 215.461 163.507 214.58 163.148 213.694C162.95 213.213 162.844 212.783 162.348 212.54C161.294 212.023 160.155 211.628 159.071 211.173C156.599 210.145 154.128 209.112 151.657 208.084C145.154 205.375 138.651 202.667 132.143 199.958C129.48 198.849 126.816 197.74 124.157 196.631C122.805 196.069 121.452 195.406 120.065 194.925C119.999 194.9 119.933 194.869 119.872 194.844C118.976 194.469 118.586 195.933 119.472 196.302V196.297Z" fill="black"/>
<path d="M160.352 216.059C161.041 215.406 161.725 214.748 162.413 214.095C162.51 214.003 162.611 213.907 162.707 213.816C162.996 213.543 163.001 213.021 162.707 212.748C162.398 212.464 161.947 212.459 161.639 212.748C160.95 213.401 160.266 214.059 159.577 214.712C159.481 214.803 159.38 214.9 159.284 214.991C158.995 215.264 158.99 215.786 159.284 216.059C159.593 216.343 160.048 216.353 160.352 216.059Z" fill="black"/>
<path d="M118.302 197.975C118.859 197.428 119.417 196.881 119.974 196.334C120.055 196.258 120.131 196.177 120.212 196.101C120.495 195.823 120.51 195.306 120.212 195.033C119.908 194.754 119.447 194.739 119.143 195.033C118.586 195.58 118.029 196.127 117.467 196.673C117.386 196.749 117.31 196.83 117.229 196.906C116.945 197.185 116.93 197.701 117.229 197.975C117.533 198.253 117.993 198.268 118.297 197.975H118.302Z" fill="black"/>
<path d="M136.317 201.852C135.724 200.672 135.137 199.492 134.544 198.313C134.2 198.657 133.855 199.001 133.511 199.346C137.532 201.077 141.553 202.804 145.574 204.535C151.986 207.295 158.397 210.054 164.809 212.813C166.288 213.446 167.761 214.084 169.24 214.717C169.124 214.565 169.007 214.419 168.891 214.267C170.613 219.73 172.335 225.193 174.057 230.656C174.305 231.451 174.558 232.246 174.806 233.036C175.1 233.962 176.558 233.567 176.265 232.636C175.029 228.707 173.788 224.783 172.552 220.854C171.899 218.778 171.241 216.702 170.587 214.626C170.344 213.856 170.177 213.492 169.438 213.173C160.803 209.457 152.168 205.745 143.533 202.029C140.444 200.703 137.36 199.371 134.27 198.044C133.587 197.751 132.878 198.358 133.237 199.077C133.83 200.257 134.417 201.437 135.01 202.616C135.445 203.487 136.747 202.723 136.317 201.852Z" fill="black"/>
<path d="M188.86 201.938C188.86 201.502 189.083 200.92 189.174 200.49C189.295 199.917 189.422 199.35 189.554 198.778C189.802 197.69 190.06 196.606 190.323 195.523C190.87 193.29 191.443 191.062 192.035 188.839C192.663 186.47 193.311 184.105 193.99 181.751C193.747 181.933 193.504 182.121 193.261 182.303C195.509 182.369 197.753 182.541 199.991 182.733C200.959 182.814 200.954 181.305 199.991 181.224C197.753 181.032 195.509 180.865 193.261 180.799C192.927 180.789 192.623 181.042 192.531 181.356C191.828 183.791 191.164 186.237 190.516 188.687C189.923 190.92 189.346 193.158 188.804 195.401C188.52 196.571 188.247 197.74 187.984 198.915C187.771 199.857 187.356 200.976 187.356 201.943C187.356 202.91 188.865 202.915 188.865 201.943L188.86 201.938Z" fill="black"/>
<path d="M236.096 217.72C236.096 216.262 236.359 214.799 236.597 213.366C236.977 211.032 237.433 208.713 237.914 206.399C238.987 201.235 240.177 196.08 241.585 190.997C242.132 189.012 242.695 187.012 243.464 185.098C243.606 184.749 243.307 184.227 242.938 184.172C231.583 182.455 220.168 180.942 208.738 179.868C206.013 179.61 203.283 179.382 200.548 179.301C200.214 179.291 199.91 179.544 199.819 179.858C197.849 186.653 196.006 193.534 194.623 200.475C194.866 200.288 195.109 200.105 195.352 199.918C194.37 199.918 194.37 201.427 195.342 201.427C195.661 201.427 196.016 201.194 196.082 200.875C197.464 193.934 199.308 187.053 201.278 180.258C201.035 180.44 200.792 180.628 200.548 180.81C205.81 180.957 211.067 181.574 216.294 182.172C222.386 182.866 228.469 183.645 234.541 184.481C237.21 184.85 239.879 185.225 242.543 185.625C242.365 185.316 242.193 185.007 242.016 184.693C240.395 188.708 239.438 193.053 238.425 197.255C237.215 202.283 236.096 207.346 235.235 212.449C234.946 214.176 234.602 215.963 234.597 217.72C234.597 218.692 236.106 218.692 236.106 217.72H236.096Z" fill="black"/>
<path d="M185.983 198.237C185.983 197.234 186.429 196.054 186.647 195.072C186.91 193.862 187.194 192.657 187.482 191.452C188.034 189.153 188.622 186.86 189.224 184.571C189.903 182.009 190.597 179.452 191.326 176.901C191.083 177.088 190.84 177.27 190.597 177.458C195.484 177.599 200.366 178.151 205.218 178.693C211.28 179.366 217.332 180.136 223.374 180.966C226.448 181.387 229.527 181.822 232.596 182.283C232.419 181.974 232.247 181.665 232.069 181.351C231.877 181.969 231.689 182.586 231.507 183.204C231.229 184.136 232.687 184.536 232.966 183.604C233.148 182.986 233.33 182.364 233.528 181.751C233.639 181.397 233.396 180.88 233.001 180.819C221.449 179.093 209.842 177.523 198.209 176.46C195.676 176.227 193.139 176.02 190.597 175.944C190.263 175.934 189.959 176.187 189.868 176.501C189.113 179.128 188.399 181.766 187.7 184.409C187.072 186.789 186.464 189.179 185.897 191.579C185.613 192.773 185.34 193.973 185.077 195.173C184.869 196.125 184.469 197.259 184.469 198.237C184.469 199.214 185.978 199.209 185.978 198.237H185.983Z" fill="black"/>
<path d="M149.99 206.075C151.52 205.66 153.049 205.245 154.579 204.835C154.797 204.774 155.014 204.718 155.232 204.657C156.169 204.404 155.769 202.946 154.832 203.199C153.303 203.614 151.773 204.03 150.244 204.44C150.026 204.501 149.808 204.556 149.585 204.617C148.648 204.87 149.048 206.328 149.985 206.075H149.99Z" fill="black"/>
<path d="M115.851 215.324C116.748 215.081 117.644 214.838 118.545 214.595C118.672 214.56 118.804 214.524 118.93 214.489C119.31 214.388 119.584 213.947 119.457 213.557C119.33 213.167 118.935 212.919 118.53 213.031C117.634 213.274 116.737 213.517 115.836 213.76C115.709 213.795 115.578 213.831 115.451 213.866C115.071 213.967 114.798 214.408 114.924 214.798C115.051 215.188 115.446 215.436 115.851 215.324Z" fill="black"/>
<path d="M282.536 92.6856C282.263 92.8881 282.025 93.121 281.812 93.3843C281.295 94.0273 280.916 94.7361 280.662 95.526C280.541 95.9007 280.804 96.3665 281.189 96.4525C281.604 96.5487 281.989 96.326 282.121 95.926C282.177 95.7437 282.242 95.5665 282.318 95.3893C282.293 95.45 282.268 95.5108 282.242 95.5715C282.425 95.1462 282.658 94.7361 282.941 94.3716C282.901 94.4222 282.86 94.4728 282.825 94.5235C283.007 94.2906 283.21 94.0577 283.443 93.8805C283.392 93.921 283.341 93.9615 283.291 93.9969C283.463 93.8703 283.59 93.7387 283.645 93.5362C283.696 93.3539 283.671 93.1159 283.569 92.9539C283.463 92.7919 283.311 92.6501 283.119 92.6046C282.931 92.5641 282.698 92.564 282.536 92.6805V92.6856Z" fill="black"/>
<path d="M238.091 89.8444C238.967 93.8443 240.137 97.7732 241.003 101.778C241.808 105.5 243.458 112.217 246.364 115.446C246.861 116.281 248.152 115.64 247.656 114.8C244.75 111.571 243.191 104.75 242.396 101.064C241.555 97.1606 240.4 93.338 239.549 89.4393C239.342 88.4925 237.883 88.8925 238.091 89.8393V89.8444Z" fill="black"/>
<path d="M279.082 102.473C278.5 105.055 278.034 107.657 277.036 110.123C276.884 110.503 277.203 110.954 277.563 111.05C277.994 111.166 278.338 110.903 278.495 110.523C279.493 108.057 279.959 105.455 280.541 102.873C280.754 101.926 279.3 101.521 279.082 102.473Z" fill="black"/>
<path d="M276.57 111.303C276.57 111.105 276.226 111.839 276.165 111.951C276.034 112.199 275.902 112.452 275.755 112.695C275.532 113.07 275.289 113.429 275.031 113.778C274.388 114.639 273.653 115.434 272.894 116.193C271.086 118.001 269.07 119.616 266.897 120.968C265.155 122.052 262.932 123.383 260.81 123.368C258.465 123.348 256.176 121.971 254.302 120.69C251.745 118.943 249.445 116.786 247.47 114.401C247.47 114.401 245.784 114.725 246.402 115.469C248.311 117.773 250.519 119.834 252.95 121.581C255.047 123.089 257.483 124.527 260.096 124.826C262.43 125.094 264.78 123.93 266.75 122.811C269.166 121.439 271.41 119.707 273.42 117.788C274.428 116.831 275.375 115.809 276.216 114.7C276.535 114.275 276.839 113.839 277.107 113.378C277.431 112.816 278.085 111.966 278.085 111.297C278.085 110.325 276.575 110.325 276.575 111.297L276.57 111.303Z" fill="black"/>
<path d="M238.977 91.1307C237.767 91.394 236.729 92.0978 236.227 93.2572C235.751 94.361 235.782 95.5812 235.949 96.7508C236.354 99.5962 238.602 102.457 241.509 103.044C242.456 103.237 242.867 101.778 241.91 101.586C239.585 101.115 237.792 98.857 237.438 96.5786C237.311 95.7685 237.26 94.8875 237.514 94.0977C237.797 93.2116 238.496 92.7762 239.377 92.5838C240.324 92.3762 239.924 90.9181 238.977 91.1256V91.1307Z" fill="black"/>
<path d="M257.437 92.1735C258.156 93.5658 258.815 95.1708 258.617 96.7758C258.511 97.6315 258.111 98.391 257.594 99.0644C257.148 99.6466 256.49 100.274 256.47 101.14C256.439 102.659 257.776 103.955 258.809 104.902C259.524 105.56 260.592 104.492 259.878 103.834C259.225 103.231 257.523 101.839 258.116 100.821C258.227 100.634 258.409 100.452 258.627 100.178C258.891 99.8441 259.154 99.5049 259.367 99.1353C260.82 96.6493 259.984 93.7937 258.744 91.4039C258.298 90.5431 256.991 91.3026 257.437 92.1684V92.1735Z" fill="black"/>
<path fill-rule="evenodd" clip-rule="evenodd" d="M270.098 93.135C269.946 91.6819 269.035 90.5174 267.92 90.568C266.806 90.6186 266.092 91.9401 266.158 93.4844C266.31 94.9375 267.222 96.102 268.336 96.0514C269.445 95.9147 270.164 94.6793 270.093 93.135H270.098Z" fill="#322F2C"/>
<path fill-rule="evenodd" clip-rule="evenodd" d="M252.003 94.1233C251.851 92.6702 250.939 91.5056 249.825 91.5563C248.711 91.6069 247.997 92.9284 248.063 94.4726C248.215 95.9258 249.126 97.0903 250.241 97.0396C251.35 96.9029 252.155 95.6625 252.003 94.1233Z" fill="#322F2C"/>
<path d="M235.756 70.5434C234.678 74.0167 234.07 77.6521 234.384 81.2924C234.698 84.9024 235.848 88.3201 237.362 91.5908C237.772 92.4718 239.074 91.7073 238.668 90.8314C237.23 87.7226 236.126 84.4265 235.873 80.9937C235.62 77.571 236.202 74.2091 237.215 70.9434C237.504 70.0118 236.045 69.6169 235.756 70.5434Z" fill="black"/>
<path d="M284.815 75.3698C285.843 79.7139 285.651 84.129 284.126 88.3213C283.792 89.2377 285.251 89.6326 285.585 88.7212C287.201 84.2809 287.363 79.557 286.274 74.9647C286.051 74.0179 284.592 74.4179 284.815 75.3647V75.3698Z" fill="black"/>
<path d="M264.168 53.6026C261.772 52.8583 259.189 52.9039 256.723 53.2229C253.77 53.6127 250.843 54.357 248.124 55.5874C243.804 57.5367 240.532 60.8277 236.632 63.3998C234.87 64.5643 232.961 65.6123 230.991 66.387C230.515 66.5743 230.175 67.2477 230.656 67.6477C231.426 68.2907 232.566 68.4528 233.533 68.5338C235.619 68.711 237.716 68.1895 239.625 67.3844C240.507 67.0148 240.122 65.5516 239.225 65.9263C237.554 66.63 235.782 67.1161 233.953 67.0452C233.422 67.0249 232.895 66.9591 232.383 66.8123C232.236 66.7718 232.085 66.7262 231.943 66.6705C231.867 66.6402 231.578 66.4478 231.73 66.5743C231.619 66.9946 231.507 67.4148 231.396 67.835C235.078 66.3819 238.258 64.1643 241.342 61.7188C243.1 60.3264 244.903 58.9948 246.862 57.9012C249.379 56.4987 252.084 55.6025 254.905 55.0355C257.786 54.4532 260.921 54.1595 263.773 55.0456C264.704 55.3342 265.099 53.876 264.173 53.5874L264.168 53.6026Z" fill="black"/>
<path d="M274.479 57.7042C276.555 58.1599 278.439 59.1624 279.923 60.6914C281.296 62.1091 282.141 63.9065 283.103 65.6077C284.689 68.4127 286.851 71.2379 289.758 72.7822C289.819 72.3214 289.88 71.8607 289.94 71.3999C287.52 71.8303 284.324 71.5721 282.04 70.2202C281.199 69.724 280.44 71.0303 281.275 71.5265C283.924 73.086 287.347 73.3897 290.341 72.8581C290.984 72.7417 291.07 71.7695 290.523 71.4759C287.434 69.8354 285.469 66.7672 283.833 63.8052C282.85 62.0332 281.837 60.3016 280.293 58.9548C278.743 57.608 276.884 56.6814 274.884 56.2409C273.937 56.0333 273.532 57.4865 274.484 57.6991L274.479 57.7042Z" fill="black"/>
<path d="M259.843 73.9366C262.167 74.2809 264.542 74.7923 266.664 75.8404C268.427 76.7112 269.885 78.0074 271.303 79.3491C274.003 81.9009 276.657 84.3363 280.506 84.7869C281.331 84.8831 281.417 83.7641 280.885 83.3793C279.28 82.225 278.53 80.4225 277.801 78.6555C277.092 76.9441 276.322 75.2885 274.975 73.9771C274.276 73.2987 273.208 74.367 273.907 75.0454C275.36 76.4631 276.024 78.3365 276.803 80.1643C277.568 81.9566 278.52 83.5262 280.126 84.6806C280.252 84.2097 280.379 83.7439 280.506 83.273C276.667 82.8275 274.145 79.8655 271.45 77.42C270.063 76.1644 268.579 75.0353 266.862 74.2708C264.76 73.3392 262.517 72.8177 260.253 72.4784C259.301 72.3367 258.891 73.7949 259.853 73.9366H259.843Z" fill="black"/>
<path d="M240.851 79.5769C241.104 81.8908 240.512 84.2097 239.058 86.0425C238.567 86.6602 239.19 87.7286 239.975 87.2273C243.378 85.0704 245.201 81.5161 247.227 78.1694C248.22 76.5239 249.293 74.9138 250.737 73.6227C252.18 72.3367 254.631 70.9696 256.292 72.7012C256.966 73.405 258.035 72.3367 257.361 71.6329C255.796 70.0026 253.289 70.1291 251.456 71.2278C249.628 72.3215 248.21 73.9417 247.014 75.6834C244.594 79.2225 242.973 83.5363 239.205 85.9261C239.509 86.321 239.818 86.7159 240.122 87.1109C241.823 84.9692 242.664 82.311 242.36 79.5769C242.254 78.62 240.745 78.6099 240.851 79.5769Z" fill="black"/>
<path d="M260.157 68.9287C260.41 67.9971 260.866 67.2275 261.777 66.8326C262.658 66.4528 263.666 66.387 264.598 66.225C267.313 65.7642 269.804 64.1845 271.769 62.3061C272.473 61.6327 271.405 60.5644 270.701 61.2378C269.632 62.2555 268.437 63.1213 267.12 63.7896C265.9 64.4073 264.639 64.6908 263.297 64.9086C262.339 65.0605 261.342 65.2579 260.521 65.7997C259.549 66.4427 258.997 67.4249 258.698 68.5287C258.445 69.4704 259.903 69.8704 260.157 68.9287Z" fill="black"/>
<path d="M257.624 63.876C257.24 59.5319 262.172 57.9218 265.56 57.3396C269.075 56.732 272.975 56.3067 275.451 53.4156C275.021 53.2384 274.59 53.0612 274.16 52.884C274.377 55.0308 273.562 56.8484 271.698 57.9826C270.868 58.4889 271.628 59.7952 272.463 59.2889C274.747 57.8965 275.942 55.5573 275.674 52.884C275.613 52.2967 274.854 51.8056 274.383 52.3473C271.572 55.6232 266.816 55.3396 262.983 56.3371C259.529 57.2332 255.756 59.861 256.115 63.8811C256.201 64.8431 257.71 64.8532 257.624 63.8811V63.876Z" fill="black"/>
<path d="M245.353 87.755C247.232 87.4259 249.141 87.117 250.96 86.5247C252.271 86.0943 253.978 85.3298 253.963 83.7096C253.953 82.7374 252.443 82.7374 252.454 83.7096C252.454 83.8564 252.423 83.9779 252.322 84.1095C252.17 84.307 251.947 84.4488 251.734 84.5703C251.193 84.8842 250.59 85.0715 249.992 85.2437C248.341 85.7196 246.64 86.0082 244.948 86.3019C244.548 86.3728 244.32 86.8639 244.421 87.2284C244.538 87.6537 244.948 87.8259 245.353 87.755Z" fill="black"/>
<path d="M271.05 84.5298C269.288 84.5096 267.515 84.4994 265.763 84.2919C264.892 84.1906 263.317 84.1197 262.998 83.102C262.709 82.1755 261.251 82.5704 261.539 83.502C262.025 85.0665 263.606 85.507 265.059 85.7095C267.044 85.9829 269.045 86.0184 271.045 86.0386C272.018 86.0488 272.018 84.5399 271.045 84.5298H271.05Z" fill="black"/>
<path d="M251.871 81.3171C252.813 81.2311 253.598 80.9323 254.414 80.4615C254.768 80.2539 255.097 80.1425 255.513 80.2184C255.908 80.2944 256.267 80.4817 256.667 80.5475C257.103 80.6184 257.523 80.588 257.938 80.4361C258.333 80.2944 258.698 80.0513 259.129 80.0412C259.584 80.0311 260.035 80.2488 260.481 80.3399C260.982 80.4463 261.499 80.4969 262.01 80.5172C262.983 80.5577 262.983 79.0488 262.01 79.0083C261.504 78.9881 261.013 78.9273 260.516 78.7957C260.06 78.6742 259.61 78.5273 259.129 78.5273C258.647 78.5273 258.227 78.6843 257.792 78.8666C257.432 79.0185 257.148 79.1248 256.758 79.0185C255.887 78.7805 255.143 78.5172 254.252 78.8615C253.421 79.1805 252.803 79.7172 251.881 79.7982C250.919 79.8843 250.914 81.3931 251.881 81.307L251.871 81.3171Z" fill="black"/>
<path d="M279.624 116.114C279.477 114.291 279.432 112.463 279.422 110.635C279.422 110.225 279.077 109.881 278.667 109.881C278.257 109.881 277.907 110.225 277.912 110.635C277.923 112.463 277.968 114.291 278.115 116.114C278.145 116.519 278.439 116.868 278.87 116.868C279.254 116.868 279.66 116.524 279.624 116.114Z" fill="black"/>
<path d="M277.902 107.724C277.902 108.635 277.902 109.547 277.912 110.458C277.912 110.853 278.257 111.233 278.667 111.212C279.072 111.192 279.427 110.878 279.422 110.458C279.411 109.547 279.411 108.635 279.411 107.724C279.411 107.329 279.062 106.949 278.657 106.97C278.247 106.99 277.902 107.304 277.902 107.724Z" fill="black"/>
<path d="M249.896 118.973C249.962 119.843 250.033 120.714 250.099 121.58C250.114 121.783 250.175 121.965 250.322 122.112C250.453 122.243 250.666 122.34 250.858 122.334C251.243 122.319 251.648 122 251.613 121.58C251.547 120.709 251.476 119.838 251.41 118.973C251.395 118.77 251.334 118.588 251.188 118.436C251.056 118.304 250.843 118.208 250.651 118.213C250.266 118.228 249.861 118.547 249.896 118.967V118.973Z" fill="black"/>
<path d="M276.499 88.4776C277.487 88.5738 278.48 88.6143 279.467 88.6497C279.65 88.6548 279.832 88.6598 280.014 88.675C280.039 88.675 280.333 88.7105 280.191 88.6902C280.267 88.7003 280.338 88.7155 280.414 88.7307C280.794 88.8168 280.926 88.8877 281.179 89.1915C281.442 89.5003 281.974 89.4649 282.248 89.1915C282.557 88.8826 282.511 88.437 282.248 88.1231C281.599 87.3586 280.647 87.1865 279.7 87.146C278.632 87.1004 277.563 87.07 276.494 86.9637C276.089 86.9232 275.74 87.3384 275.74 87.7181C275.74 88.1586 276.089 88.432 276.494 88.4725L276.499 88.4776Z" fill="#3C332D"/>
<path d="M277.76 88.1693C277.771 91.9464 277.598 95.4298 276.393 96.4677C275.076 97.5816 268.199 98.9031 265.297 98.0019C262.395 97.1108 262 93.9817 261.514 93.0501C261.028 92.1185 260.496 90.5338 258.88 90.6401C258.065 90.6907 257.579 91.1363 257.25 91.6831C256.92 92.235 256.753 92.8932 256.576 93.3843C256.216 94.3665 256.247 97.531 253.502 98.8069C250.742 100.083 243.758 99.7031 242.299 98.7816C240.957 97.9158 240.319 94.483 239.813 90.7363C239.747 90.2148 240.015 89.7034 240.486 89.4857C240.512 89.4705 240.542 89.4503 240.578 89.4452C242.249 88.8477 244.968 88.3465 249.147 88.2199C254.16 88.0528 255.315 89.5515 258.774 89.192C262.238 89.0756 263.19 87.4402 268.184 86.9288C272.331 86.4934 275.092 86.6098 276.839 86.9946C277.376 87.1111 277.771 87.6073 277.76 88.1693ZM254.798 91.9362C254.809 91.5312 254.758 91.0907 254.454 90.7768C253.532 89.8351 251.208 89.6021 248.908 89.6781C245.718 89.7895 243.636 90.154 242.36 90.6097C241.95 90.7515 241.722 91.1565 241.773 91.5666C242.147 94.3514 242.451 96.7766 243.469 97.4145C244.583 98.1031 250.342 98.3968 252.459 97.4399C253.492 96.969 253.867 96.1386 254.211 95.0906C254.555 94.0324 254.783 93.0501 254.798 91.9362ZM275.932 89.2579C275.932 88.8326 275.649 88.468 275.233 88.3769C273.906 88.0984 271.795 88.0174 268.609 88.3364C266.32 88.5794 264.051 89.1161 263.261 90.1844C263.008 90.5186 263.018 90.9743 263.079 91.3844C263.236 92.4831 263.6 93.4248 264.092 94.4324C264.573 95.4146 265.059 96.1943 266.148 96.5133C268.366 97.1766 274.028 96.1133 275.046 95.2728C275.968 94.5083 275.937 92.0679 275.927 89.2629L275.932 89.2579Z" fill="#3C332D"/>
<path d="M281.118 89.6835C282.081 89.3595 283.154 89.1975 284.076 89.7241C284.825 90.1494 285.312 90.9189 285.575 91.724C286.279 93.8606 285.702 96.1846 284.294 97.9111C283.509 98.8782 282.455 99.3744 281.321 99.8098C280.424 100.154 280.814 101.617 281.721 101.268C282.977 100.787 284.187 100.255 285.124 99.2528C286.142 98.1592 286.947 96.6757 287.236 95.2023C287.687 92.8834 287.16 90.0228 285.109 88.595C283.813 87.6937 282.162 87.7494 280.718 88.2355C279.802 88.5443 280.197 90.0025 281.118 89.6937V89.6835Z" fill="black"/>
<path d="M264.98 104.373C266.633 106.492 267.855 109.051 268.315 111.697C268.512 112.817 266.747 112.948 266.551 111.832C266.143 109.5 264.985 107.256 263.536 105.392C262.836 104.496 264.281 103.478 264.98 104.373Z" fill="black"/>
<path d="M251.023 110.715C250.846 108.743 251.273 106.616 252.422 104.991C253.078 104.059 254.435 105.199 253.781 106.125C252.907 107.362 252.652 109.085 252.789 110.574C252.887 111.711 251.125 111.85 251.023 110.715Z" fill="black"/>
<path d="M255.66 109.913C257.778 109.637 259.919 109.602 262.042 109.817C262.512 109.867 262.979 110.183 262.966 110.711C262.953 111.154 262.579 111.683 262.072 111.634C259.949 111.419 257.805 111.45 255.69 111.73C255.219 111.792 254.755 111.288 254.767 110.836C254.78 110.297 255.152 109.976 255.66 109.913Z" fill="black"/>
</g>
<defs>
<clipPath id="clip0_706_5775">
<rect width="217" height="292.562" fill="white" transform="matrix(-1 0 0 1 330 26)"/>
</clipPath>
</defs>
</svg>
