<?xml version="1.0" encoding="UTF-8"?>
<svg id="_레이어_1" data-name="레이어 1" xmlns="http://www.w3.org/2000/svg" version="1.1" viewBox="0 0 1060 665">
  <defs>
    <style>
      .cls-1 {
        fill: #0040de;
      }

      .cls-1, .cls-2, .cls-3, .cls-4, .cls-5, .cls-6, .cls-7, .cls-8, .cls-9 {
        stroke-width: 0px;
      }

      .cls-2 {
        fill: #3dcdd4;
      }

      .cls-3 {
        fill: #006bde;
      }

      .cls-4 {
        fill: #deffe3;
      }

      .cls-5 {
        fill: #0080d4;
      }

      .cls-6 {
        fill: #fff;
      }

      .cls-7 {
        fill: #96dcff;
      }

      .cls-8 {
        fill: #0040c4;
      }

      .cls-9 {
        fill: #002eab;
      }
    </style>
  </defs>
  <polygon class="cls-6" points="388 379.6 176.2 456 240.9 335.3 117.8 307.3 227.3 272.5 28.9 109.7 290.6 196.8 296.6 108.3 414 179.7 413.4 26.9 559 167.3 634.6 70.6 711.9 171.8 879.1 64.1 832.7 211.9 1008.9 241.1 829.4 304.4 950.7 463 676.3 386.9 632.6 513.7 528.3 387.1 411.9 526.9 388 379.6"/>
  <rect class="cls-7" x="47.5" y="194.9" width="11.1" height="103.8"/>
  <rect class="cls-7" x="47.7" y="194.6" width="11.1" height="103.8" transform="translate(-186.9 169.3) rotate(-60)"/>
  <rect class="cls-7" x="1" y="240.7" width="103.8" height="11.1" transform="translate(-116 59.5) rotate(-30)"/>
  <path class="cls-2" d="M830.3,363.4c.3-3.8.3-15.3,0-19.5-3.1-.5-11.1-.5-14,0-.2,4.2-.2,15.7,0,19.5,3.1.5,11.1.5,14,0"/>
  <rect class="cls-7" x="995.2" y="320.9" width="11.1" height="103.8"/>
  <rect class="cls-7" x="995.3" y="320.6" width="11.1" height="103.8" transform="translate(177.8 1053) rotate(-60)"/>
  <rect class="cls-7" x="948.7" y="366.7" width="103.8" height="11.1" transform="translate(-52 550.2) rotate(-30)"/>
  <path class="cls-4" d="M70.4,496.7c.4-.7.3-1.2.3-1.8.1-.8.2-1.6.4-2.3.8-2.3,2.4-3.8,4.9-4.2,2.6-.3,4.5.7,6,2.8.7,1,1.1,2.2,1.2,3.5,0,.9,0,1.9,0,2.8-.2,1.1,0,2.1.6,3.1,1.2,2.4,2.8,4.5,4.7,6.3,2.8,2.8,6.1,3.5,9.9,2.7,2.8-.7,5.4-1.8,7.8-3.5,1-.7,2-1.5,2.8-2.5,2-2.4,2.9-5.1,2.4-8.2-.3-2.4-1.2-4.5-2.7-6.3-.9-1.1-1.8-2.1-2.8-3.1-.7-.8-1.5-1.6-2-2.5-2-3.8.2-8,4.5-8.5.8,0,1.5,0,2.3,0,4,0,7.6-1.4,10.8-3.8,2.5-1.9,3.7-4.6,3.5-7.7-.3-7.6-7.1-13.2-14.7-12-2.5.4-4.8,1.3-7,2.4-1.3.6-2.5,1.3-3.8,1.7-3.5,1-6.8-.5-8.2-3.9-.4-1-.7-2.1-.9-3.1-.5-2-.8-3.9-1.4-5.9-.9-3.3-2.5-6.4-4.6-9.1-1.8-2.3-4.1-4-6.9-4.9-2.6-.8-5-.4-7.2,1.3-1.3,1-2.4,2.2-3.1,3.7-2.3,4.5-2.5,9.1-.6,13.7.7,1.8,1.9,3.2,3.9,3.7,1.1.3,2.1.8,2.7,1.7,1.2,1.6,2.2,3.4,2.6,5.4.5,2.6-.9,4.8-3.4,5.6-1,.3-2.1.5-3.2.3-.7-.1-1.4-.2-2-.4-1.9-.6-3.8-.4-5.7.3-2.8,1.1-5.2,2.7-7.3,4.8-2.9,3-4.1,6.5-3.5,10.6,1.3,8.2,6.1,13.7,13.6,17,.8.3,1.6.6,2.4.7,1.4.3,2.8.3,4.1-.5M56.2,453c0-.8-.4-1.4-.7-2.1-2.5-7.1-2.3-14.2.8-21.1,1.8-4,4.5-7.2,8.2-9.6,4.7-3.1,9.7-3.9,15.1-2.5,5.4,1.4,9.8,4.3,13.3,8.6,3.4,4.2,5.6,8.9,7.1,14,.2.6.3,1.2.5,1.8,0,.1.2.2.3.3.9,0,1.6-.5,2.4-.7,4.6-1.5,9.2-2.1,14-1.1,3.8.7,7.3,2.3,10.2,4.9,5.1,4.5,8.3,10.1,8.8,16.9.5,7-2,12.9-7.4,17.5-2.1,1.8-4.5,3.1-7,4.1-.7.3-1.5.4-2.1,1.1,0,.8.5,1.4.8,2.1,1.7,3.8,2.5,7.8,2.1,12-.5,5.1-2.6,9.4-6.2,13-5.3,5.3-11.7,8.3-19.2,9.1-5.5.6-10.4-1-14.8-4.4-2.6-2-4.7-4.5-6.6-7.2-.4-.6-.9-1.3-1.2-1.8-.6-.3-1-.1-1.5,0-3.7,1.1-7.3,1-11,0-11.4-3.2-20.8-13.7-22.8-25.4-.5-2.9-.7-5.7-.3-8.6.7-4.7,2.7-8.7,5.8-12.2,2.8-3.1,6-5.6,9.7-7.6.5-.3,1.2-.4,1.5-1.1"/>
  <path class="cls-4" d="M950.6,99c-3,4.7-4.9,9.7-5.9,15-2.5,12.4-1.3,24.7,2.5,36.7.4,1.4,1,2.7,1.7,4,.4.8.9,1.5,1.5,2.1.5.5,1.1.7,1.8.4.6-.3,1.2-.6,1.7-.9,1-.7,2-1.4,3-2.2,9.6-7.4,18.8-15.2,27.5-23.7,4.1-4,8-8.1,11.4-12.6,1.5-2,2.8-4.1,3.7-6.4.6-1.4,1-2.9,1-4.4,0-1.6-.7-2.8-2.1-3.6-1.5-.9-3.2-1.3-5-1.4-5.2-.3-10,1-14.2,4-1,.7-2.1,1.5-1.9,2.8.4,2.3-1,7.3-1.9,8.4-1,2-2.7,3-5,3-2.9,0-9.2-3.2-6.6-11.9.6-1.7,1.4-3.2,2.6-4.6.6-.7.8-1.5.7-2.4-.4-3.2-1.2-6.3-2.8-9.1-.3-.5-.6-1-1-1.5-.7-.9-1.6-1.2-2.7-1-.8.2-1.5.5-2.2.9-1.1.6-2.1,1.4-3,2.2-2,1.9-3.7,4.1-5,6.3M977,94.6c.9,0,1.5-.5,2.1-.7,4.6-2,9.3-2.8,14.3-2.7,3.1.1,6.1.7,8.9,2,6.2,2.9,9.4,8.3,9,15.1-.3,3.9-1.7,7.5-3.7,10.9-2.2,3.8-4.9,7.3-7.8,10.5-7.1,7.9-14.9,15-22.9,21.9-4.6,3.9-9.2,7.7-13.9,11.3-1.2.9-2.5,1.8-3.8,2.6-1.2.8-2.4,1.4-3.7,1.8-4.4,1.5-8.3.6-11.8-2.4-1.4-1.2-2.5-2.7-3.4-4.2-.9-1.6-1.8-3.2-2.4-4.9-5.4-15.3-6.7-30.8-2.9-46.7,1.6-6.9,4.6-13.2,8.8-18.9,2.1-2.8,4.5-5.4,7.3-7.5,2.1-1.6,4.4-2.8,7-3.4,5.8-1.3,10.5.3,14.1,5.1,1.8,2.5,3.1,5.3,4.1,8.2.2.7.5,1.3.7,2"/>
  <path class="cls-6" d="M990.3,537.8c-14.7,0-31.6,6.3-39.7,21.1-4.2,7.7-4.7,18-1.3,26.7,2.9,7.6,8.3,13.1,15,15.4,12.3,4.2,28-2.9,34.4-15.7,5.9-11.9,4.7-27.3-3.2-40.4-1.5-2.5-3.2-4.9-5.2-7.2M902.2,511.7c-3.9,1.4-7.7,3.3-11.3,5.7-4.6,3.1-12.7,9.8-14.3,19.7-1.2,7.3,2.4,16.6,10.2,19,7.2,2.2,15.1-2.6,18.5-8.6,3.4-5.9,4.2-14,2.1-22.8-1-4.5-2.8-8.9-5.3-13M1002.6,661.1c-.5-.3-.9-.8-1-1.5-.3-1.3.5-2.6,1.8-2.9,27.6-6.5,48.4-34.7,46.4-63-2-27.7-25.6-52.2-53.1-55.5,1,1.4,2,2.8,2.9,4.3,8.8,14.5,10.1,31.7,3.4,45.1-7.5,15.1-25.6,23.2-40.3,18.1-8.1-2.8-14.5-9.3-17.9-18.2-4-10.2-3.4-21.7,1.5-30.8,7.3-13.4,22.5-22.2,39.5-23.5-6.1-5.9-13.9-11.2-23.1-15.6-15.6-7.5-36.8-12.3-55.8-7.3,2.3,4.2,4.1,8.7,5.2,13.3,2.3,10,1.4,19.3-2.7,26.3-5.1,8.8-15.5,13.4-24.1,10.8-9.2-2.8-15.3-13.8-13.6-24.4,1.4-8.6,7.3-16.8,16.4-22.9,3.5-2.3,7.2-4.3,11.3-5.8-5.3-7.2-12.6-13.3-21.2-17.4-14.9-7.2-31.8-7.8-45.2-1.4-1.2.6-2.7,0-3.2-1.2-.6-1.2,0-2.7,1.2-3.2,14.9-7,32.9-6.5,49.4,1.5,10,4.8,18.2,11.8,24,20.2,6.7-2,14.1-2.9,21.7-2.6,12.8.4,26.2,3.8,38.8,9.8,11.4,5.5,20.7,12.1,27.7,19.9.9,0,1.8,0,2.8.2,30.5,2.6,57.2,29.6,59.4,60.2,2.2,30.6-20.3,61.1-50.1,68.1-.7.2-1.3,0-1.9-.3"/>
  <path class="cls-6" d="M189.1,43.8c-5.8-1.4-11.8-1.7-17.7-.7-9,1.5-18.5,7.6-18.5,16.1,0,3.3,1.6,6.5,4.6,9,3.6,3,8.5,4.3,12.8,3.5,7.8-1.5,14.6-8.4,17.4-17.7,1-3.3,1.4-6.7,1.4-10.1M138,6.6l2.4-.8c14-4.9,30.6-1.4,41.3,8.8,7,6.6,11.2,15.9,12.2,25.4,4.6,1.5,9.1,3.7,13.1,6.4,10.5,7.3,18,18.7,20.4,31.2l.5,2.5-4.9,1-.5-2.5c-2.2-11.3-8.9-21.5-18.4-28.1-3.1-2.2-6.5-3.9-10-5.2,0,3.4-.6,6.8-1.6,10-3.3,11.1-11.7,19.4-21.3,21.3-5.7,1.1-12.2-.7-16.9-4.6-4.2-3.4-6.4-8-6.4-12.8,0-11.4,11.4-19.2,22.7-21,6-1,12.2-.8,18.1.4-1.2-7.7-4.8-15-10.5-20.4-9.4-8.9-23.9-12-36.1-7.7l-2.4.8-1.7-4.7Z"/>
  <path class="cls-9" d="M335.6,221.1h9.1v-13c-4.8.1-8.2.1-9.1.1-.5,1.7-.5,11.2,0,12.9"/>
  <path class="cls-9" d="M321.3,210.4c4.2.2,51.8.2,58.2,0,.7-3.6.5-10.7,0-14.5-6.5-.4-52.9-.6-58.2,0-.7,3.6-.7,10.8,0,14.5"/>
  <path class="cls-2" d="M326.2,253.2c6.3.8,92.2.7,97.5,0,.7-6.3.5-30.9,0-35.8-3.5-.3-14.2-.3-18.2,0-.2,6.1-.1,18.6,0,22-2.4.1-58.5.1-60.9,0,.1-3.4.2-15.9,0-22-3.7-.3-15.2-.3-18.4,0-.4,4.9-.7,27.9,0,35.8M348.8,217.9c4,.4,14.7.4,18.5,0,.3-5.9.3-11.9,0-16.4-4-.4-14.7-.4-18.5,0-.3,4.5-.3,10.4,0,16.4"/>
  <path class="cls-8" d="M335.6,235.3c4.8.1,73.7.1,78.8,0,.5-1.6.5-11.2,0-12.9-5-.3-74.1-.1-78.8,0-.5,1.6-.5,11.2,0,12.9M375.6,187.1c4.2.2,13.9.2,17.9,0,.5-2.1.5-13.2,0-15.4-4.1-.3-13.8-.3-17.9,0-.5,2.1-.5,13.2,0,15.4M406,213.8c4,.3,14.3.3,17.8,0,.7-5.2.7-51,0-56-3.7-.7-14.1-.7-17.8,0-.1,4.8-.1,50.7,0,56"/>
  <path class="cls-5" d="M348.5,210.5c6.6.1,13.4,0,18.9,0,0-3.3,0-6.4-.2-9-4-.4-14.7-.4-18.5,0-.2,2.6-.2,5.7-.2,9M384.1,213.4c4.3.6,14.1.6,17.3,0,.3-5.3.3-50.5,0-55.1-3.7-.5-13.5-.5-17.3,0-.4,4.6-.4,49.8,0,55.1"/>
  <path class="cls-9" d="M355.9,175.3c0,2.6-3.1,4.6-8.2,4.6s-8.2-2-8.2-4.6,3.1-4.6,8.2-4.6,8.2,2.2,8.2,4.6M373,175.3c0-11.1-10.2-18.3-25.3-18.3s-25.3,7.1-25.3,18.3,10.2,18.4,25.3,18.4,25.3-7,25.3-18.4"/>
  <path class="cls-9" d="M405.4,222.3v13h8.9c.5-1.7.5-11.2,0-12.9-1-.1-4.2-.1-8.9-.1M383.7,187.2c3.7.1,7.6,0,9.8-.1.6-2.1.6-13.2,0-15.4-2.2-.2-6-.2-9.8-.2v15.7Z"/>
  <path class="cls-8" d="M485.6,176.8c6.7-.1,11.8-.1,13.5-.2.5-2.9.5-14.7,0-16.8-5.6-.9-59.5-.9-65.9,0-.5,2.3-.5,14.4,0,16.8,1.5.1,6.9.2,14,.2-6.4,10.8-14.5,25-15.7,28.3,2.4,2.4,11.8,7.9,15.4,8.9,2.9-3.5,14.3-24,19.7-34.4,5.2,9.7,16.6,29.6,19.5,33.3,3.8-1.2,12.7-6.6,15.3-9.4-1.3-3.2-9.3-16.5-15.7-26.7"/>
  <path class="cls-5" d="M505.7,226.2c4.3.4,15.1.4,18.3,0,.7-5.5.7-62.8,0-68.3-3.7-.7-14.5-.7-18.3,0-.4,5.5-.4,62.9,0,68.3"/>
  <path class="cls-2" d="M436.4,250.9c7.9.4,81.2.4,88.7,0,.7-3.6.7-13.5,0-17.3-4.8-.2-64.9-.2-70,0,.2-3,.1-12.5,0-16.2-3.9-.7-15-.7-18.7,0-.5,6.6-.4,26,0,33.4"/>
  <path class="cls-9" d="M531.2,207.5c4.2.3,41.1.3,46.2,0,.3-2.8.4-8.8,0-11.4-5-.3-42-.3-46.2,0-.4,2.7-.4,8.7,0,11.4"/>
  <path class="cls-3" d="M561.1,180.9c0,1.5-1.5,2.9-6.9,2.9s-6.9-1.4-6.9-2.9,1.5-2.9,6.9-2.9,6.9,1.4,6.9,2.9M575.9,180.9c0-8.2-7-13.5-21.7-13.5s-21.7,5.3-21.7,13.5,7,13.5,21.7,13.5,21.7-5.3,21.7-13.5"/>
  <path class="cls-8" d="M533.3,243.4c7.3.4,36,.4,43.3,0,.5-2.7.5-8.2,0-10.8-8.3,0-22.8,0-28.8,0v-2.5c6.5,0,19.6.2,27.1,0,.6-2.9.7-15.6,0-20.1-5.2-.3-36.8-.3-42,0-.4,3.4-.4,6.4,0,9.8,8.5,0,20,0,27.8,0v2.3c-7.6,0-19,0-27.5,0-.5,4.8-.5,16.7,0,21.3"/>
  <path class="cls-9" d="M662.1,198.7c4.3.4,15,.4,18.2,0,.8-5.4.8-35.3,0-40.8-3.7-.7-14.4-.7-18.2,0-.6,5.5-.6,35.4,0,40.8"/>
  <path class="cls-8" d="M662.3,253.3c4.4.3,13.6.3,17.9,0,.5-4.5.5-46.4,0-51-5.4-.4-30.7-.4-36.2,0-.3,3.2-.3,14,0,16.6h18.3c0,4.2-.1,31.1,0,34.4"/>
  <path class="cls-5" d="M601.5,252.6c8.9.6,37.5.6,46.5,0,.5-3.6.5-11.7,0-15.3-10.2-.2-22.4-.2-29.2,0v-4c6.6.1,10.4.2,20.6,0,.7-4.9.6-25,0-31-6.4-.3-31.7-.3-37.9,0-.6,4.5-.6,10.1,0,14.7,10.3.2,13.2.2,21.2,0v3.7c-7.9-.1-11-.2-21.2,0-.7,6.3-.7,25.7,0,31.8"/>
  <path class="cls-2" d="M638.1,178c0,3.5-3.3,6.1-11.7,6.1s-11.7-2.5-11.7-6.1,3.3-6.1,11.7-6.1,11.7,2.5,11.7,6.1M656.2,178c0-12.9-10.6-21-29.7-21s-29.7,8.1-29.7,21,10.6,21,29.7,21,29.7-8.1,29.7-21"/>
  <path class="cls-9" d="M712.3,235.4c.3-3.9.3-33.2,0-37.4-2.9-.4-11.4-.4-14.4,0-.3,4.2-.3,33.5,0,37.4,2.9.4,11.4.4,14.4,0"/>
  <path class="cls-8" d="M687.5,241c3.5.3,43.3.3,47.5,0,.7-3.1.6-9.8,0-13.2-4.2-.3-44-.4-47.5,0-.6,3.2-.6,9.9,0,13.2"/>
  <path class="cls-3" d="M697.7,227.6c0,3.8,0,6.7.2,7.8,2.9.4,11.4.4,14.4,0,0-1.1,0-4,.2-7.8h-14.8ZM718.4,218.8c3.3.5,11.7.5,14.3,0,.3-4.2.3-43.5,0-47.7-5-.3-37.4-.3-42.8,0-.4,4.2-.4,8.8,0,13.1,4.1.2,25.7.3,28.6,0,0,8.1-.2,29.3,0,34.5"/>
  <path class="cls-5" d="M198.7,339.1c6.3.7,48.3.6,53.6,0,.7-7.2.7-47.3,0-53.9-3.5-.6-14.2-.6-18.2,0-.2,5.9-.1,34.2,0,38.3-2.4.2-14.7.2-17.2,0,.1-4.1.2-32.3,0-38.3-3.7-.6-15.1-.6-18.3,0-.7,6.7-.8,44.8,0,53.9"/>
  <path class="cls-2" d="M201.2,376.7c7.9.4,72.4.4,79.9,0,.7-3.6.7-13.5,0-17.3-4.8-.2-56.1-.2-61.2,0,.2-3,.1-10.6,0-14.2-3.8-.7-15-.7-18.7,0-.5,6.6-.4,24,0,31.5M207.9,312.3c4.3.1,33.8.1,38.1,0,.5-2.2.5-11.7,0-15.2-4.2-.4-33.9-.3-38.1,0-.5,2.2-.5,11.7,0,15.2"/>
  <path class="cls-8" d="M234,296.8v15.6c5.7,0,10.4-.1,12-.1.5-2.2.5-11.7,0-15.2-1.5-.1-6.3-.2-12-.3M261.7,352c4.3.4,15.1.4,18.3,0,.8-5.5.8-62.8,0-68.3-3.7-.7-14.5-.7-18.3,0-.4,5.5-.4,62.9,0,68.3"/>
  <path class="cls-9" d="M207.9,312.3c1.3,0,4.7.1,9.1.1v-15.5c-4.4,0-7.9.1-9.1.2-.5,2.2-.5,11.7,0,15.2"/>
  <path class="cls-9" d="M318.3,340.3c4.5.6,13.6.6,18,0,.7-5.5.7-49.7,0-55.2-5.5-.6-39.8-.7-45.3,0-.5,4.3-.5,12.2,0,16.5,5,.1,22.2.1,27.3,0-.2,7.4-.2,31.1,0,38.7"/>
  <path class="cls-3" d="M352.6,324.2c4.1.6,17,.6,21.2,0,.6-2.3.6-14,0-16.4-4.2-.5-17.2-.5-21.2,0-.7,2.4-.7,14.1,0,16.4"/>
  <path class="cls-2" d="M289.7,327.2c5.3.7,31.7.7,38.3,0,.5-3.5.5-12.1,0-15.6-6.6-.2-33-.2-38.3,0-.5,3.5-.5,12.1,0,15.6M345.5,352c4.3.4,15.1.4,18.3,0,.8-5.5.8-62.8,0-68.3-3.7-.7-14.5-.7-18.3,0-.4,5.5-.4,62.9,0,68.3"/>
  <path class="cls-5" d="M292.7,376.7c7.9.4,64.7.4,72.2,0,.7-3.6.7-13.5,0-17.3-4.8-.2-48.4-.2-53.5,0,.2-3,.1-12.5,0-16.2-3.8-.7-15-.7-18.7,0-.5,6.6-.4,26,0,33.4M318.1,327.7c4.3-.1,7.8-.2,9.8-.4.5-3.5.5-12.1,0-15.6-2-.1-5.5-.1-9.8-.1-.1,5-.1,10.9,0,16.2M352.6,324.2c2.2.3,7.2.4,11.8.4v-17.3c-4.6,0-9.6.1-11.8.4-.7,2.4-.7,14.1,0,16.4"/>
  <path class="cls-9" d="M376.5,333.4c4.2.3,41.1.3,46.2,0,.3-2.8.4-8.8,0-11.4-5-.3-42-.3-46.2,0-.4,2.7-.4,8.7,0,11.4"/>
  <path class="cls-3" d="M406.4,306.7c0,1.5-1.5,2.9-6.9,2.9s-6.9-1.4-6.9-2.9,1.5-2.9,6.9-2.9,6.9,1.4,6.9,2.9M421.2,306.7c0-8.2-7-13.5-21.7-13.5s-21.7,5.3-21.7,13.5,7,13.5,21.7,13.5,21.7-5.3,21.7-13.5"/>
  <path class="cls-8" d="M378.6,369.2c7.3.4,36,.4,43.3,0,.5-2.7.5-8.2,0-10.8-8.3,0-22.8,0-28.8,0v-2.5c6.5,0,19.6.2,27.1,0,.6-2.9.7-15.6,0-20.1-5.2-.3-36.8-.3-42,0-.4,3.4-.4,6.4,0,9.8,8.5,0,20,0,27.8,0v2.3c-7.6,0-19,0-27.5,0-.5,4.8-.5,16.7,0,21.3"/>
  <path class="cls-8" d="M521.1,350.8c.5-2.9.5-14.4,0-16.5-5.6-.6-68.1-.6-74.5,0-.6,2.3-.6,14.1,0,16.5,1.8.1,9.9.2,20.1.2-10,6.6-20.5,13.9-22.8,15.7,1.4,3.3,7.1,11,10.3,13.4,3.5-1.9,18.8-12.7,29.6-20.8,10.8,8.1,26,18.9,29.5,20.8,3.2-2.4,8.9-10.1,10.3-13.4-2.3-1.9-12.8-9.1-22.8-15.7,10,0,18-.1,20.1-.2M531.2,299.4c-4.2-.5-17.2-.5-21.2,0-.7,2.4-.7,14.1,0,16.4,4.1.5,17,.5,21.2,0,.5-2.3.5-14,0-16.4"/>
  <path class="cls-5" d="M462.3,313.4c-.3-3.5-.3-9.3,0-12.8,3.9-.2,10.9-.1,15,0,.3,3.4.3,9.2,0,12.8-4,.2-10.7.2-15,0M444.3,328.8c5.3.6,45.7.6,50.9,0,.8-5.3.8-38.3,0-43.7-5.8-.7-45.1-.7-50.9,0-.8,5.4-.8,38.4,0,43.7"/>
  <path class="cls-2" d="M503,330.4c4.3.4,15,.4,18.2,0,.8-5.5.8-41.2,0-46.7-3.7-.7-14.4-.7-18.2,0-.5,5.5-.5,41.4,0,46.7"/>
  <path class="cls-9" d="M510,315.8c2.2.3,7.2.4,11.8.4v-17.3c-4.6,0-9.6.1-11.8.4-.7,2.4-.7,14.1,0,16.4"/>
  <path class="cls-3" d="M663.6,367.5c3.3.5,11.6.5,14.2,0,.3-4.2.3-23.3,0-27.3-2.9-.6-11.2-.6-14.2,0-.3,4-.3,23,0,27.3"/>
  <path class="cls-8" d="M682.6,310.1c7.7,0,13.9,0,15.6-.2.4-2.2.4-11.4,0-13-4.3-.7-50.1-.7-55,0-.4,1.8-.4,11.1,0,13,1.4,0,7.7.2,15.5.2-7.5,4.7-16.4,10.3-18.1,11.6.8,2.6,5.4,9.4,7.7,11.4,2.5-1.3,14.9-9.2,22.4-14.4,7.7,5.2,20,13.1,22.5,14.4,2.2-2,6.8-8.8,7.7-11.4-1.7-1.4-10.7-7.1-18.3-11.6"/>
  <path class="cls-5" d="M641,348.4c3.7.3,55.2.3,59.4,0,.7-3.1.6-9.5,0-12.9-4.2-.3-55.9-.4-59.4,0-.6,3.2-.6,9.6,0,12.9"/>
  <path class="cls-2" d="M663.4,348.7h14.7c0-3.8-.2-7.1-.3-8.4-2.9-.6-11.2-.6-14.2,0,0,1.4-.2,4.6-.3,8.4"/>
  <path class="cls-3" d="M751,366c3.2.5,11.1.5,13.7,0,.3-4.2.3-66.3,0-70.5-2.9-.5-10.8-.5-13.7,0-.3,4.2-.3,66.3,0,70.5"/>
  <path class="cls-5" d="M742.8,332c4.2.3,11.4.3,16.5,0,.4-1.9.4-11.1,0-12.9-5.1-.2-12.3-.2-16.5,0-.4,1.9-.4,11.1,0,12.9M769.3,367.1c3.3.6,11.4.6,13.9,0,.5-4.2.5-67.7,0-72-2.9-.5-11-.5-13.9,0-.3,4.2-.3,67.8,0,72"/>
  <path class="cls-2" d="M716.5,364.5c.8-2.3,6.6-28.6,8.7-40.7,1.6,12.9,7.1,37.7,7.8,39.9,3.4,0,11.3-1.9,13.7-3-.5-3.8-11.5-51.7-14.8-63.6-2.6-.4-11.2-.4-13.9,0-3.3,11.9-14.8,60.3-15,64.1,2.5,1.3,10.5,3.2,13.6,3.2"/>
  <path class="cls-9" d="M750.8,332.2c3,0,5.9,0,8.5-.2.4-1.9.4-11.1,0-12.9-2.6,0-5.5,0-8.5-.2v13.3Z"/>
  <path class="cls-9" d="M821.6,318c0,6.5-3.7,10.4-8.9,10.4s-8.9-3.8-8.9-10.4,3.7-10.4,8.9-10.4,8.9,3.8,8.9,10.4M836,318c0-15.3-9.8-23.4-23.3-23.4s-23.3,8.1-23.3,23.4,9.8,23.4,23.3,23.4,23.3-8.1,23.3-23.4"/>
  <path class="cls-1" d="M789.3,366.9c3.6.4,42.3.4,46.7,0,.7-3.1.6-9.3,0-12.8-4.3-.3-43.1-.4-46.7,0-.6,3.2-.6,9.4,0,12.8"/>
  <path class="cls-9" d="M816.2,353.9c0,3.8,0,7.6,0,9.4,3.1.5,11.1.5,14,0,0-1.9.2-5.5.2-9.3-3.7,0-8.9,0-14.3,0M809.1,363.4c.3-3.8.3-15.3,0-19.5-3.1-.5-11.1-.5-14,0-.2,4.2-.2,15.7,0,19.5,3.1.5,11.1.5,14,0"/>
  <path class="cls-5" d="M795,354c0,3.8,0,7.5,0,9.3,3.1.5,11.1.5,14,0,0-1.9.2-5.6.2-9.4-5.4,0-10.5,0-14.3,0"/>
  <path class="cls-9" d="M850.3,367.5c4.8,0,8.6-3.7,8.6-8.5s-3.8-8.5-8.6-8.5-8.6,3.7-8.6,8.5,3.8,8.5,8.6,8.5"/>
  <path class="cls-2" d="M857.3,344.7c.7-12.4.5-38.2.4-47.6-2.2-.4-12.1-.4-15,0-.3,7.9-.2,36.1.4,47.6,3.1.3,10.9.3,14.1,0"/>
  <path class="cls-2" d="M600,325.8c4.1.4,17.1.4,21.3,0,.6-2.4.6-14.5,0-16.9-4.2-.6-17.2-.6-21.3,0-.7,2.4-.7,14.5,0,16.9"/>
  <path class="cls-8" d="M534.4,309.4c6.5.3,54.2.3,61.4,0,.7-3,.7-14.5,0-16.7-7.2-.4-54.9-.4-61.4,0-.8,2.5-.8,14,0,16.7M610.6,379.6c4.3.8,15.1.8,18.3,0,.8-5.4.8-88.1,0-93.6-3.8-.7-14.6-.7-18.3,0-.6,5.5-.6,88.2,0,93.6"/>
  <path class="cls-5" d="M600,361.1c4.1.4,17.1.4,21.3,0,.6-2.4.6-14.5,0-16.9-4.2-.6-17.2-.6-21.3,0-.7,2.4-.7,14.5,0,16.9M578.7,345.1c0,11.2-5,16.7-12.6,16.7s-12.6-5.5-12.6-16.7,5-16.7,12.6-16.7,12.6,5.5,12.6,16.7M596.6,345.1c0-21.5-11.7-32.5-30.5-32.5s-30.5,10.9-30.5,32.5,11.7,32.5,30.5,32.5,30.5-10.9,30.5-32.5M575.8,300.8c.3-4.3.4-12.3,0-17.2-4-.6-15.6-.6-19.6,0-.4,5-.3,12.9,0,17.2,4,.6,15.6.6,19.6,0"/>
  <path class="cls-9" d="M610.1,326.1c4.4,0,8.9-.1,11.2-.3.6-2.4.6-14.5,0-16.9-2.2-.3-6.6-.4-11-.4,0,5.4-.1,11.5-.1,17.7"/>
  <path class="cls-2" d="M610.1,343.8c0,6.4.1,12.4.1,17.7,4.4,0,8.8-.1,11-.3.6-2.4.6-14.5,0-16.9-2.2-.3-6.7-.4-11.2-.4M555.9,292.4c0,3.2.1,6.2.3,8.4,4,.6,15.6.6,19.6,0,.2-2.2.3-5.2.3-8.4h-20.2Z"/>
</svg>