<?xml version="1.0" encoding="UTF-8"?>
<svg id="_레이어_1" data-name=" 레이어 1" xmlns="http://www.w3.org/2000/svg" version="1.1" viewBox="0 0 815 550">
  <defs>
    <style>
      .cls-1 {
        fill: #3dcdd4;
      }

      .cls-1, .cls-2, .cls-3, .cls-4, .cls-5, .cls-6, .cls-7 {
        stroke-width: 0px;
      }

      .cls-8 {
        stroke: #fff;
        stroke-width: .3px;
      }

      .cls-8, .cls-9 {
        fill: none;
      }

      .cls-2 {
        fill: #cffca6;
      }

      .cls-9 {
        stroke: #0040c4;
        stroke-miterlimit: 10;
        stroke-width: 1.5px;
      }

      .cls-3 {
        fill: #0080d4;
      }

      .cls-4 {
        fill: #fff;
      }

      .cls-5 {
        fill: #96dcff;
      }

      .cls-6 {
        fill: #0040c4;
      }

      .cls-7 {
        fill: #002eab;
      }
    </style>
  </defs>
  <rect class="cls-4" x="2.9" y="50.8" width="810" height="498" rx="50" ry="50"/>
  <rect class="cls-9" x="2.9" y="50.8" width="810" height="498" rx="50" ry="50"/>
  <rect class="cls-2" x="2.9" y="34.9" width="810" height="498" rx="50" ry="50"/>
  <rect class="cls-9" x="2.9" y="34.9" width="810" height="498" rx="50" ry="50"/>
  <rect class="cls-5" x="2.1" y="17.9" width="810" height="498" rx="50" ry="50"/>
  <rect class="cls-9" x="2.1" y="17.9" width="810" height="498" rx="50" ry="50"/>
  <g>
    <path class="cls-6" d="M127.5,138.4c0-.9-.2-1.5-.6-1.9s-1.1-.6-2.1-.6h-4.2c-.7,0-1.3,0-2,.1-.7,0-1.4.1-2.1.2-.4,0-.6-.1-.6-.6v-1.3c0-.4.2-.6.6-.6,1.3-.1,2.7-.2,4.1-.3,1.4,0,2.9-.1,4.5-.1,3.4,0,5.2,1.4,5.2,4.3s0,1.6-.1,2.4c0,.7-.2,1.4-.3,2h1.5c.4,0,.6.1.6.6v1.3c0,.4-.2.6-.6.6s-.9,0-1.5.1h-4.6c-.4,0-.6.2-.6.6v3.4c0,.4-.2.6-.6.6h-1.5c-.4,0-.6-.2-.6-.6v-3.4c0-.3,0-.5.3-.6h-7.8c-.4,0-.6-.2-.6-.6v-1.3c0-.4.2-.6.6-.6.8,0,1.8.1,3.1.2h9.3c.2-.6.3-1.2.4-1.9,0-.6,0-1.2,0-1.7v-.3ZM115.7,147.6c0-.4.3-.6.7-.6h1.5c.2,0,.4,0,.5.2,0,.1,0,.3,0,.5,0,.4,0,.8,0,1.2v1.2c0,1.3.8,1.9,2.3,1.9h5.4c.8,0,1.5,0,2.2-.1.7,0,1.4-.1,2.1-.2.4,0,.6.1.6.6v1.3c.1.4,0,.6-.5.6-1.2.1-2.6.2-4.3.3-1.7,0-3.5.1-5.5.1s-2.9-.4-3.8-1.1c-.9-.8-1.3-1.8-1.3-3.2s0-.8,0-1.3,0-.9,0-1.3h0Z"/>
    <path class="cls-6" d="M145.2,141.7v1.3c0,.4.2.6.6.6h4.9c.6,0,1,0,1.5-.1.4,0,.6.1.6.6v1.3c0,.4-.2.6-.6.6s-1,0-1.6.1h-12.3c-1.4,0-2.4,0-3.1-.2-.4,0-.6-.3-.6-.6v-1.3c0-.4.2-.6.6-.6h7.4c-.2-.1-.4-.3-.4-.6v-1.2h-2.9c-.8,0-1.5-.2-2-.6-.5-.4-.7-1-.8-1.7l-.4-5.4c0-.4.2-.6.6-.6h1.5c.4,0,.6.2.6.6v.9h9.2v-.9c0-.4.3-.6.7-.6h1.5c.4,0,.7.2.6.6l-.4,5.4c0,.7-.3,1.3-.8,1.7s-1.1.6-2,.6h-2.9.5ZM151.4,153.7c0,.4-.3.6-.7.6h-1.4c-.2,0-.4,0-.5-.2-.1-.1-.2-.3-.1-.5v-2c0-.8-.2-1.3-.5-1.6s-.8-.4-1.5-.4c-3.2,0-6.4.1-9.7.4-.4,0-.6-.2-.6-.6v-1.3c0-.4.2-.6.6-.6.8,0,1.6-.1,2.4-.2.8,0,1.5,0,2.3-.1h5.3c1,0,1.6,0,2.1.2.6.1,1.1.3,1.4.6s.6.7.8,1.2.2,1.1.2,1.8v1.6c0,.4,0,.8-.1,1.2h0ZM139.5,138.3c0,.3.1.6.3.7.2.1.4.2.8.2h6.5c.7,0,1.1-.3,1.1-.9v-.9h-8.7v.9h0Z"/>
    <path class="cls-6" d="M167,148.3c-.6,0-.8.2-.8.7v3.6c0,.4-.2.6-.6.6h-1.5c-.4,0-.6-.2-.6-.6v-3.3c0-.2,0-.5.2-.6.1-.2.3-.3.5-.4h-4.2c-.7,0-1.3,0-1.9-.1s-1.1,0-1.6-.1c-.4,0-.6-.3-.6-.7v-1.3c0-.4.2-.6.6-.6,1.2.1,2.4.2,3.8.3,1.4,0,2.9.1,4.6.1h4.8c1.5,0,2.7-.2,3.6-.3.4,0,.6.1.6.6v1.3c0,.4-.2.6-.6.7-.4,0-.9,0-1.4.1-.5,0-1,0-1.6.1h-3.3,0ZM171.8,141c.4,0,.6.2.6.6v1.3c0,.4-.2.6-.6.6h-11.6c-.8,0-1.4-.2-1.8-.6s-.7-.9-.7-1.6v-6.8c0-.8.4-1.1,1.1-1.1h9.8c1.2,0,2.1.2,2.7.7.6.5.8,1.3.8,2.4s-.2,1.9-.6,2.7c-.4.8-.9,1.3-1.6,1.7h2,0ZM166.8,141c.8,0,1.3-.3,1.8-.9s.7-1.3.7-2.3-.1-1.2-.4-1.5c-.3-.3-.8-.4-1.5-.4h-6.3c-.4,0-.6.2-.6.6v3.7c0,.2,0,.4.3.6s.4.2.7.2h5.5-.2Z"/>
    <path class="cls-6" d="M185.6,143.8c0,2.6-.5,4.5-1.3,5.7s-1.9,1.8-3.5,1.8-2.8-.7-3.6-2.1c-.8-1.4-1.2-3.6-1.2-6.5s.4-5.2,1.2-6.5c.8-1.4,2-2.1,3.6-2.1s2.6.6,3.4,1.7c.8,1.1,1.2,2.9,1.4,5.3h2c.3,0,.5,0,.6-.1.1,0,.2-.3.2-.5v-6.8c0-.4.2-.6.6-.6h1.4c.4,0,.6.2.6.6v19.8c0,.4-.2.6-.6.6h-1.4c-.4,0-.6-.2-.6-.6v-10.2c0,.1-.2.2-.3.3-.1,0-.3.1-.5.1h-2ZM180.8,136.8c-.7,0-1.3.5-1.6,1.4s-.5,2.5-.5,4.5.2,3.6.5,4.6c.3.9.9,1.4,1.6,1.4s1.3-.5,1.6-1.4.5-2.5.5-4.6-.2-3.6-.5-4.6c-.3-.9-.9-1.4-1.6-1.4h0ZM195.1,153.6c0,.4-.2.6-.6.6h-1.4c-.4,0-.6-.2-.6-.6v-20.1c0-.4.2-.6.6-.6h1.4c.4,0,.6.2.6.6v20.1Z"/>
    <path class="cls-6" d="M211.5,148.1h0c-.5-1.4-.7-3.1-.7-5.3s0-2.8.2-3.9c.2-1.1.4-1.9.8-2.6.3-.7.8-1.1,1.4-1.5s1.2-.5,2-.5.5,0,.7,0h.6c.2,0,.4,0,.5.2,0,0,.1.2.1.5v1.4c0,.4-.2.6-.6.6h-1c-.4,0-.7,0-1,.2s-.5.5-.6.9c-.2.4-.3,1-.3,1.8v2.9c0,1.2,0,2,.1,2.7,0,.7.2,1.3.3,1.8.2.4.4.8.6.9.3.2.6.3,1,.3s.9,0,1.4-.3h.2c.2,0,.4.2.4.5l.2,1.4c0,.4-.1.6-.5.7-.4.1-.7.2-1,.3h-1.1c-1.2,0-2.2-.5-3-1.6v.4c.1.4,0,.6-.4.7-.5.2-.9.3-1.3.4s-.8.1-1.2.1c-1.5,0-2.6-.7-3.4-2.1-.8-1.4-1.2-3.5-1.2-6.2s0-2.8.2-3.9c.2-1.1.4-1.9.8-2.6.4-.7.8-1.1,1.4-1.5.6-.3,1.2-.5,2-.5s.4,0,.6,0h.6c.2,0,.4,0,.5.2,0,0,.1.2.1.5v1.4c0,.4-.2.6-.6.6h-.9c-.4,0-.7,0-1,.2s-.5.5-.6.9-.2,1-.3,1.8v2.9c0,1.2,0,1.9.1,2.7s.2,1.3.4,1.8.4.8.7,1,.7.3,1.1.3,1.1-.1,1.8-.4h-.1ZM221.7,153.5c0,.4-.2.6-.6.6h-1.5c-.4,0-.6-.2-.6-.6v-20c0-.4.2-.6.6-.6h1.5c.4,0,.6.2.6.6v8.2c.2-.3.5-.5,1-.5h.9c.4,0,.6.2.6.6v1.4c0,.4-.2.6-.6.6h-1.1c-.6,0-.8.3-.8.8v8.8h0Z"/>
    <path class="cls-6" d="M232.3,148.5c1.3,0,2.6-.3,4-.9h.3c.2,0,.3.1.4.4l.4,1.4c.1.4,0,.6-.4.7-1,.3-1.9.6-2.7.7-.8.2-1.7.2-2.5.2-3.8,0-5.7-1.7-5.7-5s.5-2.9,1.4-3.6,2.4-1.2,4.3-1.2,1.3-.2,1.6-.5.5-.9.5-1.6-.2-1.3-.5-1.7-.9-.5-1.8-.5-2.3.1-4.2.4c-.4,0-.6-.1-.6-.5v-1.5c0-.4.2-.6.6-.6s.8-.1,1.2-.2.8,0,1.2,0h2.6c2.9,0,4.4,1.2,4.4,3.5s-.1,1.4-.4,2c-.3.6-.6,1.1-1.1,1.5h.8c.4,0,.6.2.6.6v1.3c0,.4-.2.6-.6.6h-3.3c-1.4,0-2.4.2-3,.5-.6.4-.9,1-.9,1.8s.3,1.5.8,1.8c.5.4,1.4.5,2.7.5h0ZM242.1,153.5c0,.4-.2.6-.6.6h-1.5c-.4,0-.6-.2-.6-.6v-20c0-.4.2-.6.6-.6h1.5c.4,0,.6.2.6.6v8.2c.2-.3.5-.5,1-.5h1.4c.4,0,.6.2.6.6v1.4c0,.4-.2.6-.6.6h-1.6c-.6,0-.8.3-.8.8v8.8h0Z"/>
    <path class="cls-6" d="M256.5,143c-.8,0-1.5-.2-1.9-.6-.5-.4-.7-1-.7-1.7l-.4-6.6c0-.2,0-.3.1-.5.1-.1.3-.2.5-.2h1.5c.4,0,.7.2.7.6v1.5h5.1v-1.5c.1-.4.3-.6.7-.6h1.5c.2,0,.4,0,.5.2s.2.3.1.5l-.4,6.6c0,.7-.3,1.3-.7,1.7-.5.4-1.1.6-1.9.6h-4.7ZM269.9,154.1c-.5,0-1,.1-1.6.2-.6,0-1.1,0-1.6.1s-1.1,0-1.5,0h-1.3c-1.7,0-3.1,0-4.2-.1-1.1,0-2-.3-2.6-.5s-1.1-.6-1.3-1c-.3-.4-.4-.9-.4-1.6s.1-1.1.3-1.5.6-.7,1.2-1c.5-.2,1.3-.4,2.2-.5.9,0,2-.1,3.4-.1h3.6c.7,0,1.2-.3,1.2-.8s-.4-.8-1.2-.8h-4.7c-.9,0-1.8,0-2.6.1-.9,0-1.6,0-2.3.1-.4,0-.6-.2-.6-.6v-1.2c0-.4.2-.5.6-.6.9,0,1.8-.1,2.9-.2h8.5c.8,0,1.3.2,1.6.5.3.3.5.8.5,1.4s-.1.9-.4,1.3c-.3.4-.7.7-1.1.8h.8c.4,0,.5.2.5.5v1.1c0,.4-.2.5-.5.5h-9c-.6,0-1,0-1.3.1-.3,0-.5.1-.6.3s-.1.3-.1.5,0,.4.2.5c.1.1.4.2.8.3.4,0,1,.1,1.7.1h5.9c.5,0,1,0,1.6-.1.5,0,1-.1,1.5-.2.4,0,.6.1.6.5v1.2c0,.4,0,.6-.4.6h-.3ZM256.5,139.9c0,.5.3.7.8.7h3.1c.5,0,.8-.2.8-.7v-1.9h-4.7v1.9h0ZM269.7,142.5c0,.4-.2.6-.6.6h-1.5c-.4,0-.6-.2-.6-.6v-8.9c0-.4.2-.6.6-.6h1.5c.4,0,.6.2.6.6v3.3c.2-.3.5-.5,1-.5h1.4c.4,0,.6.2.6.6v1.3c0,.4-.2.6-.6.6h-1.6c-.6,0-.8.3-.8.8v2.8h0Z"/>
    <path class="cls-6" d="M279,140.7c-.2.4-.4.9-.7,1.2-.3.4-.7.7-1.1.9-.4.3-.8.5-1.3.6s-.9.2-1.4.2-.6-.2-.6-.6v-1.3c0-.4.2-.6.6-.6s.9,0,1.3-.3c.4-.2.7-.5,1-.8s.5-.7.6-1.2c.2-.5.2-1,.2-1.5v-3.3c0-.4.2-.6.6-.6h1.4c.4,0,.6.2.6.6v3.3c0,.5,0,1.1.2,1.5.2.5.4.9.6,1.2.3.3.6.6,1,.8s.8.3,1.2.3.6.2.6.6v1.3c0,.4-.2.6-.6.6s-.9,0-1.4-.2c-.5-.1-.9-.3-1.3-.6s-.7-.6-1-.9c-.3-.4-.5-.8-.7-1.2h.2ZM277,150c0-3,2.7-4.6,8.2-4.6s8.2,1.5,8.2,4.6-2.7,4.6-8.2,4.6-8.2-1.5-8.2-4.6ZM279.7,150c0,.3,0,.6.3.9s.5.5.9.6c.4.2,1,.3,1.7.4.7,0,1.5.1,2.5.1s1.8,0,2.5-.1c.7,0,1.3-.2,1.7-.4.4-.2.7-.4.9-.6.2-.2.3-.5.3-.9s0-.6-.3-.9c-.2-.2-.5-.5-.9-.6-.4-.2-1-.3-1.7-.4-.7,0-1.5-.1-2.5-.1s-1.8,0-2.5.1c-.7,0-1.3.2-1.7.4-.4.2-.7.4-.9.6-.2.2-.3.5-.3.9ZM292.9,143.7c0,.4-.2.6-.6.6h-1.4c-.4,0-.6-.2-.6-.6v-4.2h-1.3c-.3,0-.5,0-.6.1-.1,0-.2.3-.2.5v3c0,.4-.2.6-.6.6h-1.4c-.4,0-.6-.2-.6-.6v-9.5c0-.4.2-.6.6-.6h1.4c.4,0,.6.2.6.6v3.6c.2-.3.4-.4.8-.4h1.2v-3.4c0-.4.2-.6.6-.6h1.4c.4,0,.6.2.6.6v10.2h.1Z"/>
    <path class="cls-6" d="M306.9,133.7c.4,0,.6.2.6.6v1.2c0,.4-.2.6-.6.6h-10.7c-.4,0-.6-.2-.6-.6v-1.2c0-.4.2-.6.6-.6h4.4c-.2-.1-.4-.3-.4-.6v-.6c0-.4.2-.6.6-.6h1.6c.4,0,.6.2.6.6v.8c0,.3.2.4.5.4h3.4ZM296.3,140.4c0-2.2,1.7-3.3,5.2-3.3s5.2,1.1,5.2,3.3-1.7,3.3-5.2,3.3-5.2-1.1-5.2-3.3ZM312.5,154.1c-.5,0-1,.1-1.6.2-.6,0-1.1,0-1.6.1s-1.1,0-1.5,0h-1.3c-1.7,0-3.1,0-4.2-.1-1.1,0-2-.2-2.6-.5-.6-.2-1.1-.5-1.3-.9-.3-.4-.4-.9-.4-1.5s.1-1.1.3-1.5.6-.7,1.2-.9c.5-.2,1.3-.4,2.2-.5s2-.1,3.4-.1h3.6c.7,0,1.2-.2,1.2-.7s-.4-.7-1.2-.7h-4.7c-.9,0-1.8,0-2.6.1-.9,0-1.6,0-2.3.1-.4,0-.6-.2-.6-.6v-1.1c0-.4.2-.5.6-.6.9,0,1.8-.1,2.9-.2h8.5c.8,0,1.3.2,1.6.5.3.3.5.7.5,1.3s-.1.9-.4,1.2c-.3.4-.7.6-1.1.8h.8c.4,0,.5.2.5.5v1c0,.4-.2.5-.5.5h-9c-.6,0-1,0-1.3.1s-.5.1-.6.3-.1.3-.1.4,0,.3.2.5c.1.1.4.2.8.3.4,0,1,0,1.7.1h5.9c.5,0,1,0,1.6-.1.5,0,1-.1,1.5-.2.4,0,.6.1.6.5v1.1c0,.4,0,.6-.4.6h-.3ZM301.5,141.4c.9,0,1.5,0,1.9-.2s.6-.4.6-.8-.2-.6-.6-.8-1-.2-1.9-.2-1.5,0-1.9.2-.6.4-.6.8.2.6.6.8,1,.2,1.9.2ZM312.3,143c0,.4-.2.6-.6.6h-1.5c-.4,0-.6-.2-.6-.6v-9.4c0-.4.2-.6.6-.6h1.5c.4,0,.6.2.6.6v3.6c.2-.3.5-.5,1-.5h1.4c.4,0,.6.2.6.6v1.3c0,.4-.2.6-.6.6h-1.6c-.6,0-.8.3-.8.8v3h0Z"/>
    <path class="cls-6" d="M335.2,148.3c-.6,0-.8.2-.8.7v3.6c0,.4-.2.6-.6.6h-1.5c-.4,0-.6-.2-.6-.6v-3.3c0-.2,0-.5.2-.6.1-.2.3-.3.5-.4h-4.2c-.7,0-1.3,0-1.9-.1s-1.1,0-1.6-.1c-.4,0-.6-.3-.6-.7v-1.3c0-.4.2-.6.6-.6,1.2.1,2.4.2,3.8.3,1.4,0,2.9.1,4.6.1h4.8c1.5,0,2.7-.2,3.6-.3.4,0,.6.1.6.6v1.3c0,.4-.2.6-.6.7-.4,0-.9,0-1.4.1-.5,0-1,0-1.6.1h-3.3,0ZM333.1,139.6c-.3.6-.6,1.1-1.1,1.6-.4.5-1,.9-1.5,1.2-.6.3-1.2.6-1.9.8-.7.2-1.4.3-2.1.3s-.4,0-.6,0-.3-.2-.3-.5v-1.5c0-.4.2-.6.6-.6.8,0,1.5-.1,2.2-.4.7-.2,1.2-.6,1.7-1s.9-.9,1.1-1.5.4-1.2.4-1.9v-1.9c0-.4.2-.6.6-.6h1.5c.4,0,.6.2.6.6v1.9c0,.7.1,1.3.4,1.9.3.6.6,1.1,1.1,1.5s1.1.8,1.7,1,1.4.4,2.2.4.6.2.6.6v1.5c0,.3,0,.5-.3.5h-.6c-.7,0-1.4,0-2.1-.3-.7-.2-1.3-.4-1.9-.8-.6-.3-1.1-.8-1.5-1.2-.4-.5-.8-1-1.1-1.6h.3Z"/>
    <path class="cls-6" d="M362,138.7c0,.8-.1,1.6-.4,2.3s-.6,1.3-1.1,1.7c-.5.5-1,.8-1.7,1.1s-1.4.4-2.2.4-1.6-.1-2.2-.4-1.2-.6-1.7-1.1-.8-1.1-1.1-1.7c-.3-.7-.4-1.4-.4-2.3s.1-1.6.4-2.3c.2-.7.6-1.2,1.1-1.7s1-.8,1.7-1.1,1.4-.4,2.2-.4,1.6.1,2.2.4c.7.3,1.2.6,1.7,1.1s.8,1.1,1.1,1.7c.3.7.4,1.4.4,2.3ZM360.6,154.3c-.8,0-1.6-.2-2.2-.7s-1.1-1.1-1.4-1.8c-.2.4-.4.7-.7,1-.3.3-.6.6-.9.8s-.7.4-1.2.5c-.4.1-.8.2-1.3.2h-.6c-.2,0-.2-.2-.2-.5v-1.4c0-.4.2-.6.6-.6s.8,0,1.2-.2c.4-.2.7-.4.9-.7.3-.3.5-.6.6-1s.2-.8.2-1.2v-2.3c0-.4.2-.6.6-.6h1.5c.4,0,.6.2.6.6v2.8c0,.8.2,1.4.6,1.9s.9.7,1.6.7,1.3-.2,1.6-.7.6-1.1.6-1.9v-2.8c0-.4.2-.6.6-.6h1.5c.4,0,.6.2.6.6v2.3c0,.4,0,.8.2,1.2s.3.7.6,1c.3.3.6.5.9.7.4.2.8.2,1.2.2s.6.2.6.6v1.4c0,.3,0,.5-.2.5h-.6c-.4,0-.9,0-1.3-.2-.4-.1-.8-.3-1.2-.5s-.7-.5-.9-.8-.5-.6-.7-1c-.3.7-.8,1.3-1.4,1.8s-1.4.7-2.2.7h.2ZM359.3,138.7c0-.9-.2-1.6-.7-2.2-.5-.5-1.1-.8-1.9-.8s-1.5.3-1.9.8c-.5.5-.7,1.2-.7,2.2s.2,1.6.7,2.2c.5.5,1.1.8,1.9.8s1.5-.3,1.9-.8c.5-.5.7-1.3.7-2.2ZM365.2,133.5c0-.4.2-.6.6-.6h1.5c.4,0,.6.2.6.6v9.9c0,.4-.2.6-.6.6h-1.5c-.4,0-.6-.2-.6-.6v-9.9Z"/>
    <path class="cls-6" d="M372.1,143.6h13.3c1.4,0,2.5,0,3.4-.2.4,0,.6.1.6.6v1.3c0,.4-.2.6-.6.6s-1,0-1.6.1-1.3,0-2.1,0h-10.2c-1.4,0-2.4,0-3.1-.2-.4,0-.6-.3-.6-.6v-1.3c0-.4.2-.6.6-.6l.3.3ZM373.2,148.4c0-.4.3-.6.7-.6h1.5c.2,0,.4,0,.5.2.1.1.1.3.1.5,0,.3,0,.5-.1.8v.9c0,1.3.8,1.9,2.3,1.9h5.4c.8,0,1.5,0,2.2-.1.7,0,1.4-.1,2.1-.2.4,0,.6.1.6.6v1.3c.1.4,0,.6-.5.6-1.2.1-2.6.2-4.3.3-1.7,0-3.5.1-5.5.1s-2.9-.4-3.8-1.1c-.9-.8-1.3-1.8-1.3-3.2s0-.7,0-1,0-.6.1-.8v-.2ZM373.6,134c0-.4.3-.6.7-.6h1.5c.2,0,.4,0,.5.2,0,.1.1.3.1.5v3.7c0,1.3.8,1.9,2.3,1.9h4.9c.7,0,1.4,0,2.1-.1.7,0,1.4-.1,2.1-.2.4,0,.6.1.6.6v1.3c.1.4,0,.6-.5.6-1.2.1-2.6.2-4.2.3-1.6,0-3.3.1-5.2.1s-2.8-.4-3.6-1.1c-.8-.8-1.2-1.8-1.2-3.2s0-.5,0-.9v-3h0Z"/>
    <path class="cls-6" d="M412.7,138.4c0-.9-.2-1.5-.6-1.9s-1.1-.6-2.1-.6h-4.2c-.7,0-1.3,0-2,.1-.7,0-1.4.1-2.1.2-.4,0-.6-.1-.6-.6v-1.3c0-.4.2-.6.6-.6,1.3-.1,2.7-.2,4.1-.3s2.9-.1,4.5-.1c3.4,0,5.2,1.4,5.2,4.3s0,1.4-.1,2.1c0,.7-.2,1.3-.3,1.8h1.5c.4,0,.6.1.6.6v1.3c0,.4-.2.6-.6.6s-.9,0-1.5.1h-4.9c-.4,0-.6.2-.6.6v1.6h1.7c.8,0,1.6,0,2.1.2s1.1.3,1.4.6c.4.3.6.7.8,1.2.2.5.2,1.1.2,1.8,0,1.6,0,2.7-.1,3.5,0,.4-.3.6-.7.6h-1.4c-.2,0-.4,0-.5-.2-.1-.1-.2-.3-.1-.5v-2.8c0-.8-.2-1.3-.5-1.6s-.8-.4-1.5-.4c-3.2,0-6.4.1-9.7.4-.4,0-.6-.2-.6-.6v-1.3c0-.4.2-.6.6-.6,1,0,1.9-.2,2.7-.2s1.8-.1,2.7-.1v-1.7c0-.3,0-.5.3-.6h-7.4c-.4,0-.6-.2-.6-.6v-1.3c0-.4.2-.6.6-.6.8,0,1.8.1,3.1.2s3.1,0,5.3,0h4c.2-.5.3-1.1.4-1.7,0-.6.1-1,.1-1.5h.2Z"/>
    <path class="cls-6" d="M422.4,144.7c-.8,0-1.4-.2-1.8-.6s-.7-.9-.7-1.6v-8c0-.8.4-1.1,1.1-1.1h6c1.1,0,1.9.3,2.5,1s.9,1.7.9,2.9-.2,2-.6,2.9-1,1.5-1.7,1.9h1.6c.4,0,.6.2.6.6v1.3c0,.4-.2.6-.6.6h-7.3ZM421.8,147.4c0-.4.3-.6.7-.6h1.4c.2,0,.4,0,.5.2.1.1.2.3.1.5v2.4c0,.7.2,1.3.6,1.6.4.4,1,.6,1.8.6h5.3c.7,0,1.4,0,2.1-.1.7,0,1.4-.1,2.1-.2.4,0,.6.1.6.6v1.3c.1.4,0,.6-.5.6-1.2.1-2.6.2-4.1.3-1.6,0-3.3.1-5.3.1s-3-.4-3.9-1.2-1.4-1.9-1.4-3.3v-1.5c0-.5,0-.9.1-1.2h-.1ZM425.1,142.1c.8,0,1.4-.3,1.9-1,.5-.6.7-1.5.7-2.5s-.2-1.5-.5-2-.8-.7-1.5-.7h-2.4c-.4,0-.6.2-.6.6v4.8c0,.2,0,.4.3.6s.4.2.7.2h1.5-.1ZM433.6,133.5c0-.4.2-.6.6-.6h1.5c.4,0,.6.2.6.6v13.5c0,.4-.2.6-.6.6h-1.5c-.4,0-.6-.2-.6-.6v-13.5Z"/>
    <path class="cls-6" d="M450.1,139c0,.9-.1,1.7-.4,2.4-.2.7-.6,1.3-1.1,1.8s-1,.9-1.7,1.2c-.6.3-1.4.4-2.2.4s-1.5-.1-2.2-.4c-.6-.3-1.2-.7-1.7-1.2s-.8-1.1-1.1-1.8c-.2-.7-.4-1.5-.4-2.4s.1-1.7.4-2.4.6-1.3,1.1-1.8,1-.9,1.7-1.2c.6-.3,1.4-.4,2.2-.4s1.5.1,2.2.4c.6.3,1.2.7,1.7,1.2s.8,1.1,1.1,1.8.4,1.5.4,2.4ZM441.8,147.4c0-.4.3-.6.7-.6h1.4c.2,0,.4,0,.5.2.1.1.2.3.1.5v2.4c0,.7.2,1.3.6,1.6.4.4,1,.6,1.8.6h5.3c.7,0,1.4,0,2.1-.1.7,0,1.4-.1,2.1-.2.4,0,.6.1.6.6v1.3c.1.4,0,.6-.5.6-1.2.1-2.6.2-4.1.3-1.6,0-3.3.1-5.3.1s-3-.4-3.9-1.2-1.4-1.9-1.4-3.3v-1.5c0-.5,0-.9.1-1.2h-.1ZM447.3,139c0-1-.2-1.8-.7-2.4-.4-.6-1.1-.9-1.8-.9s-1.4.3-1.8.9c-.4.6-.7,1.4-.7,2.4s.2,1.8.7,2.4c.4.6,1.1.9,1.8.9s1.4-.3,1.8-.9c.4-.6.7-1.4.7-2.4ZM456.3,147c0,.4-.2.6-.6.6h-1.5c-.4,0-.6-.2-.6-.6v-4.5c-.2.3-.5.5-1,.5h-1.3c-.4,0-.6-.2-.6-.6v-1.3c0-.4.2-.6.6-.6h1.7c.2,0,.4,0,.5-.2,0-.1.1-.3.1-.5v-2.5c-.2.3-.5.5-1,.5h-1.3c-.4,0-.6-.2-.6-.6v-1.3c0-.4.2-.6.6-.6h1.7c.2,0,.4,0,.5-.2,0-.1.1-.3.1-.5v-1c0-.4.2-.6.6-.6h1.5c.4,0,.6.2.6.6v13.5h0Z"/>
    <path class="cls-6" d="M460.4,141h12.3c.2-.5.3-1,.4-1.5s.2-1,.2-1.4c0-.8-.2-1.4-.6-1.8-.4-.4-1.1-.6-2-.6h-4.3c-.7,0-1.4,0-2,.1-.7,0-1.4.1-2.1.2-.4,0-.6-.1-.6-.6v-1.3c0-.4.2-.6.6-.6,1.3-.1,2.7-.2,4.2-.3s3-.1,4.6-.1c3.4,0,5,1.4,5,4.2s0,1.2-.1,1.9c0,.6-.2,1.2-.3,1.7h1.5c.4,0,.6.1.6.6v1.3c0,.4-.2.6-.6.6s-1,0-1.6.1-1.3,0-2.1,0h-10.2c-1.4,0-2.4,0-3.1-.2-.4,0-.6-.3-.6-.6v-1.3c0-.4.2-.6.6-.6l.2.2ZM476.2,151.8c.4,0,.6.2.6.6v1.3c0,.4-.2.6-.6.6h-12.4c-.8,0-1.4-.2-1.8-.5s-.6-.9-.6-1.5v-5.5c0-.7.4-1.1,1.1-1.1h11.4c.8,0,1.5.2,2,.7s.7,1.1.7,2-.2,1.4-.5,2-.8,1.1-1.3,1.4h1.5-.1ZM471.9,151.8c.5,0,1-.2,1.3-.6.3-.4.5-.9.5-1.6s-.1-.8-.3-1.1c-.2-.3-.5-.4-1-.4h-7.7c-.4,0-.6.2-.6.6v2.4c0,.5.3.7.9.7h6.9Z"/>
    <path class="cls-6" d="M497.7,142.9c-.8.3-1.7.5-2.7.6s-1.8.2-2.6.2c-3.4,0-5.1-1.6-5.1-4.8s0-1.8.1-2.6.2-1.5.4-2.3c0-.4.3-.6.7-.6h1.5c.2,0,.4,0,.5.2.1.1.2.3.1.5,0,.6-.2,1.1-.3,1.5,0,.5-.1.9-.2,1.3v2.2c0,.7.2,1.2.6,1.6.4.3,1,.5,1.8.5h1c.4,0,.8,0,1.2-.2.4,0,.9-.2,1.3-.3s.9-.2,1.2-.3c.3-.1.6,0,.7.5l.4,1.3c0,.4,0,.6-.5.8h-.1ZM491.7,154.3c-.8,0-1.5-.2-2-.6-.5-.4-.7-1-.7-1.7l-.3-6.2c0-.4.2-.6.6-.6h1.5c.4,0,.6.2.6.6v1.1h9.1v-1.1c0-.4.3-.6.7-.6h1.5c.4,0,.7.2.6.6l-.3,6.2c0,.7-.3,1.3-.7,1.7-.5.4-1.1.6-2,.6h-8.6ZM491.7,150.9c0,.6.4.9,1.1.9h6.5c.7,0,1.1-.3,1.1-.9v-1.5h-8.7v1.5ZM503.4,143c0,.4-.2.6-.6.6h-1.5c-.4,0-.6-.2-.6-.6v-9.4c0-.4.2-.6.6-.6h1.5c.4,0,.6.2.6.6v3.6c.2-.3.5-.5,1-.5h1.4c.4,0,.6.2.6.6v1.3c0,.4-.2.6-.6.6h-1.6c-.6,0-.8.3-.8.8v3h0Z"/>
    <path class="cls-6" d="M518.7,138.4c0,.8,0,1.5-.4,2.1-.3.6-.6,1.2-1.1,1.7s-1,.8-1.7,1.1-1.4.4-2.2.4-1.6-.1-2.2-.4-1.2-.6-1.7-1.1-.8-1-1.1-1.7c-.3-.6-.4-1.4-.4-2.1s.1-1.5.4-2.2.6-1.2,1.1-1.6c.5-.5,1-.8,1.7-1.1s1.4-.4,2.2-.4,1.6.1,2.2.4,1.2.6,1.7,1.1.8,1,1.1,1.6.4,1.4.4,2.2ZM512.5,154.3c-.8,0-1.5-.2-2-.6-.5-.4-.7-1-.7-1.7l-.3-6.2c0-.4.2-.6.6-.6h1.5c.4,0,.6.2.6.6v1.1h9.6v-1.1c0-.4.3-.6.7-.6h1.5c.4,0,.7.2.6.6l-.3,6.2c0,.7-.3,1.3-.7,1.7-.5.4-1.1.6-2,.6h-9.1ZM516,138.4c0-.8-.2-1.5-.7-2s-1.1-.7-1.9-.7-1.5.2-1.9.7c-.5.5-.7,1.1-.7,2s.2,1.5.7,2,1.1.7,1.9.7,1.5-.2,1.9-.7c.5-.5.7-1.2.7-2ZM512.5,150.9c0,.6.4.9,1.1.9h6.9c.7,0,1.1-.3,1.1-.9v-1.5h-9.2v1.5h.1ZM522,133.5c0-.4.2-.6.6-.6h1.5c.4,0,.6.2.6.6v9.4c0,.4-.2.6-.6.6h-1.5c-.4,0-.6-.2-.6-.6v-9.4Z"/>
    <path class="cls-6" d="M544.5,150.3c0,.4-.3.6-.7.6h-1.5c-.2,0-.4,0-.5-.2,0-.1,0-.3,0-.5.3-1.7.6-3.5.7-5.2,0-1.7.2-3.5.2-5.2s-.2-1.7-.6-2.1c-.4-.4-1-.6-1.9-.6s-1.7,0-2.4.1c-.7,0-1.5.2-2.3.3-.2,0-.3,0-.5-.1s-.2-.3-.2-.5v-1.4c0-.4.2-.6.6-.6.9-.1,1.8-.2,2.7-.3.9,0,1.7-.1,2.6-.1s1.6,0,2.2.3c.6.2,1.1.5,1.5.9s.7.9.8,1.6c.2.6.3,1.4.3,2.4,0,1.9,0,3.7-.2,5.5,0,1.7-.4,3.5-.7,5.3v-.2ZM548.6,133.5c0-.4.2-.6.6-.6h1.5c.4,0,.6.2.6.6v20c0,.4-.2.6-.6.6h-1.5c-.4,0-.6-.2-.6-.6v-20Z"/>
    <path class="cls-6" d="M561.6,144c0-.5.2-1,.3-1.5s.2-1.1.3-1.6c0-.5.2-1,.2-1.5v-1.3c0-1.3-.7-2-2-2h-3c-.4,0-.7,0-1.1.1-.3,0-.7.1-1.1.2-.2,0-.3,0-.5-.1s-.2-.3-.2-.5v-1.4c0-.4.2-.6.6-.6.9-.1,1.8-.2,2.6-.3s1.7-.1,2.7-.1c1.6,0,2.8.4,3.5,1.1.7.7,1.1,1.9,1.1,3.6s0,.8,0,1.3,0,1-.2,1.5c0,.5-.2,1.1-.3,1.6s-.2,1.1-.3,1.5c0,.2,0,.4-.3.5s-.3.1-.5.1h-1.5c-.2,0-.4,0-.5-.2,0-.1,0-.3,0-.5h.2ZM556.7,147.4c0-.4.3-.6.7-.6h1.4c.2,0,.4,0,.5.2,0,.1.2.3,0,.5v2.4c0,.7.2,1.3.6,1.6.4.4,1,.6,1.8.6h4.9c.7,0,1.4,0,2-.1.6,0,1.3-.1,2-.2.4,0,.6.1.6.6v1.3c0,.4,0,.6-.5.6-1.2.1-2.5.2-4,.3s-3.1.1-5,.1-3-.4-3.9-1.2-1.4-1.9-1.4-3.3v-1.5c0-.5,0-.9,0-1.2h.1ZM570.8,147c0,.4-.2.6-.6.6h-1.5c-.4,0-.6-.2-.6-.6v-13.5c0-.4.2-.6.6-.6h1.5c.4,0,.6.2.6.6v5.6c.2-.3.5-.5,1-.5h1.4c.4,0,.6.2.6.6v1.3c0,.4-.2.6-.6.6h-1.6c-.6,0-.8.3-.8.8v5.1h0Z"/>
    <path class="cls-6" d="M593.1,144.2c-.7.2-1.4.4-2.2.5s-1.5.2-2.1.2c-2.2,0-3.9-.5-5-1.4s-1.6-2.4-1.6-4.3c0-3.8,2.3-5.7,6.8-5.7s1,0,1.6,0,1.1,0,1.6.2c.4,0,.5.3.5.6v1.3c0,.4-.2.6-.6.6s-.9-.1-1.5-.2-1,0-1.5,0c-2.8,0-4.2,1.1-4.2,3.2s.3,1.9,1,2.4c.6.5,1.6.8,3,.8s1,0,1.7-.2c.7-.1,1.3-.3,1.9-.4.4-.1.6,0,.7.4l.3,1.3c0,.4,0,.6-.4.7h0ZM584.3,147.4c0-.4.3-.6.7-.6h1.4c.2,0,.4,0,.5.2,0,.1.2.3,0,.5v2.4c0,.7.2,1.3.6,1.6.4.4,1,.6,1.8.6h4.9c.7,0,1.4,0,2-.1.6,0,1.3-.1,2-.2.4,0,.6.1.6.6v1.3c0,.4,0,.6-.5.6-1.2.1-2.5.2-4,.3s-3.1.1-5,.1-3-.4-3.9-1.2-1.4-1.9-1.4-3.3v-1.5c0-.5,0-.9,0-1.2h.1ZM598.4,147c0,.4-.2.6-.6.6h-1.5c-.4,0-.6-.2-.6-.6v-13.5c0-.4.2-.6.6-.6h1.5c.4,0,.6.2.6.6v5.6c.2-.3.5-.5,1-.5h1.4c.4,0,.6.2.6.6v1.3c0,.4-.2.6-.6.6h-1.6c-.6,0-.8.3-.8.8v5.1h0Z"/>
    <path class="cls-6" d="M619.9,153.7c0,.4-.3.6-.7.6h-1.4c-.2,0-.4,0-.5-.2,0-.1-.2-.3,0-.5v-2c0-.8-.2-1.3-.5-1.6s-.8-.4-1.5-.4c-3.2,0-6.4.1-9.7.4-.4,0-.6-.2-.6-.6v-1.3c0-.4.2-.6.6-.6,1,0,1.9-.2,2.7-.2s1.8-.1,2.7-.1v-1c0-.3,0-.5.3-.6h-7.4c-.4,0-.6-.2-.6-.6v-1.3c0-.4.2-.6.6-.6.8,0,1.8.1,3.1.2h12.1c.6,0,1.1,0,1.6-.1.4,0,.6.1.6.6v1.3c0,.4-.2.6-.6.6s-.9,0-1.5.1h-4.9c-.4,0-.6.2-.6.6v.9h1.7c.8,0,1.6,0,2.1.2.6.1,1.1.3,1.4.6.4.3.6.7.8,1.2s.2,1.1.2,1.8v1.6c0,.4,0,.8,0,1.2l.2-.2ZM618.9,133.9c.4,0,.6.2.6.6v1.3c0,.4-.2.6-.6.6h-5c.2.8.7,1.4,1.7,1.9s2.2.8,3.7.8.6.2.6.6v1.4c0,.4-.2.6-.6.6-.7,0-1.5,0-2.2-.2s-1.4-.4-2-.7-1.1-.7-1.6-1.1c-.5-.4-.8-.8-1.1-1.3-.3.4-.6.9-1.1,1.3-.5.4-1,.8-1.6,1.1s-1.3.5-2,.7-1.4.2-2.2.2-.6-.2-.6-.6v-1.4c0-.4.2-.6.6-.6,1.5,0,2.7-.3,3.7-.8s1.5-1.2,1.7-1.9h-5c-.4,0-.6-.2-.6-.6v-1.3c0-.4.2-.6.6-.6h5.5c-.3-.1-.4-.4-.4-.8v-.8c0-.4.2-.6.6-.6h1.6c.4,0,.6.2.6.6v1.2c0,.3.2.5.5.5h4.6Z"/>
    <path class="cls-6" d="M639.3,146.1h-7.8c-.4,0-.6-.2-.6-.6v-1.3c0-.4.2-.6.6-.6.8,0,1.8.1,3.1.2h12.1c.6,0,1.1,0,1.6-.1.4,0,.6.1.6.6v1.3c0,.4-.2.6-.6.6s-.9,0-1.5.1h-4.6c-.4,0-.6.2-.6.6v2.7c0,.4-.2.6-.6.6h-1.5c-.4,0-.6-.2-.6-.6v-2.7c0-.3,0-.5.3-.6v-.2ZM632.7,148.4c0-.4.3-.6.7-.6h1.5c.2,0,.4,0,.5.2,0,.1,0,.3,0,.5,0,.3,0,.5,0,.8v.9c0,1.3.8,1.9,2.3,1.9h5.4c.8,0,1.5,0,2.2-.1.7,0,1.4-.1,2.1-.2.4,0,.6.1.6.6v1.3c0,.4,0,.6-.5.6-1.2.1-2.6.2-4.3.3s-3.5.1-5.5.1-2.9-.4-3.8-1.1c-.9-.8-1.3-1.8-1.3-3.2s0-.7,0-1,0-.6,0-.8v-.2ZM647,139.6c.4,0,.6.2.6.6v1.3c0,.4-.2.6-.6.6h-11.7c-.8,0-1.4-.2-1.8-.5-.4-.4-.6-.9-.6-1.5v-5.6c0-.7.4-1.1,1.1-1.1h10.6c.8,0,1.5.3,2,.8s.7,1.2.7,2-.2,1.4-.5,2-.8,1.1-1.3,1.4h1.5ZM642.7,139.7c.3,0,.5,0,.7-.2.2-.1.4-.3.6-.5s.3-.4.4-.7c0-.3,0-.6,0-.9,0-.5,0-.8-.3-1.1s-.6-.4-1-.4h-7c-.4,0-.6.2-.6.6v2.5c0,.5.3.7.9.7h6.2Z"/>
    <path class="cls-6" d="M651.8,137c-.4,0-.6-.2-.6-.6v-1.4c0-.4.2-.6.6-.6h8.7c.4,0,.6.2.6.6v1.4c0,.4-.2.6-.6.6h-3v6.4c0,1.5.3,2.6.9,3.4.6.8,1.3,1.3,2.3,1.4.2,0,.4,0,.5.2,0,0,0,.2,0,.4v1.4c0,.4-.2.6-.6.6-1.1-.1-2-.5-2.8-1.1s-1.4-1.4-1.7-2.5c-.3,1-.9,1.8-1.7,2.5-.8.6-1.7,1-2.8,1.1-.4,0-.6-.2-.6-.6v-1.4c0-.2,0-.4,0-.4,0,0,.2-.1.5-.2.9-.1,1.7-.6,2.3-1.4.6-.8.9-2,.9-3.4v-6.4h-3.1ZM662.8,141.1c.3,0,.5,0,.6-.1,0,0,.2-.3.2-.5v-6.7c0-.4.2-.6.6-.6h1.4c.4,0,.6.2.6.6v19.8c0,.4-.2.6-.6.6h-1.4c-.4,0-.6-.2-.6-.6v-10.3c0,.1-.2.2-.3.3,0,0-.3.1-.5.1h-2.1c-.4,0-.6-.2-.6-.6v-1.4c0-.4.2-.6.6-.6h2.2-.1ZM670.3,153.6c0,.4-.2.6-.6.6h-1.4c-.4,0-.6-.2-.6-.6v-20.1c0-.4.2-.6.6-.6h1.4c.4,0,.6.2.6.6v20.1Z"/>
    <path class="cls-6" d="M691.3,142.4c.4,0,.6.1.6.5v1c0,.2,0,.3,0,.4,0,0-.2.1-.4.2-.4,0-1,0-1.6.1h-12.4c-1.4,0-2.4,0-3.1-.2-.3,0-.5-.2-.5-.6v-1.1c0-.4.2-.5.6-.5h13.6c1.4,0,2.6,0,3.5-.2l-.2.4ZM690.5,154.1c-.4,0-.9,0-1.4.2-.5,0-1.1,0-1.7.1h-3.4c-1.8,0-3.2,0-4.4-.1-1.1,0-2-.2-2.6-.4s-1.1-.5-1.3-.9-.3-.8-.3-1.4,0-1,.3-1.4.6-.6,1.1-.9c.5-.2,1.3-.4,2.2-.4s2.1-.1,3.6-.1h3.9c.4,0,.8,0,.9-.2.2,0,.3-.2.3-.5s0-.4-.3-.5-.5-.1-.9-.1h-8c-.9,0-1.7,0-2.3.1-.3,0-.5-.2-.5-.5v-1c0-.2,0-.3,0-.4,0,0,.2-.1.4-.1.9,0,1.9,0,2.9-.1,1.1,0,2.1,0,3.2-.1h5.8c.8,0,1.4.2,1.7.4s.5.6.5,1.2,0,.9-.4,1.2c-.3.3-.7.6-1.1.8h.9c.3,0,.5.1.5.3v1.1c0,.4-.2.6-.5.5h-10.9c-.3,0-.5.1-.6.2,0,0,0,.2,0,.4s0,.3.2.4.4.2.8.2,1,0,1.8.1h6.3c.6,0,1.1,0,1.7-.1.5,0,1-.1,1.5-.2.4,0,.5.1.6.5v1.4s-.2.1-.4.2h0ZM689.5,138.4h-10.4c-.3,0-.5.1-.6.2,0,0,0,.2,0,.3s0,.3.2.3.4.2.7.2h7.7c.6,0,1,0,1.6-.1.5,0,1,0,1.4-.1.3,0,.5,0,.5.4v1.4s-.2.1-.4.2c-.4,0-.9,0-1.4.1-.5,0-1,0-1.6.1s-1.1,0-1.6,0h-5.7c-1.1,0-1.9-.2-2.5-.4s-1-.5-1.2-.8-.3-.8-.3-1.3,0-.9.3-1.3c.2-.3.6-.6,1.1-.8s1.2-.3,2.1-.4c.9,0,2-.1,3.3-.1h3.6c.4,0,.8,0,.9-.1s.3-.2.3-.5,0-.3-.3-.4c-.2,0-.5-.1-.9-.1h-10.1v-1.8c0,0,.2-.1.4-.1.9,0,1.8,0,2.8-.1h8.4c.8,0,1.4.1,1.7.3s.5.5.5,1.1,0,.8-.4,1.1-.7.6-1.1.7h.9c.3,0,.4.1.4.4v1c0,.3,0,.4-.4.4l.2.2Z"/>
  </g>
  <g>
    <path class="cls-6" d="M138.2,173.9c.4,0,.6.2.6.6v1.4c0,.4-.2.6-.6.6h-9.3c-.4,0-.6-.2-.6-.6v-1.4c0-.4.2-.6.6-.6h3.7c-.2-.1-.4-.3-.4-.6v-1.3c0-.4.2-.6.6-.6h1.4c.4,0,.6.2.6.6v1.5c0,.3.2.4.5.4h2.9ZM138.1,184c0,1.9-.4,3.4-1.2,4.4s-1.9,1.5-3.4,1.5-2.6-.5-3.3-1.5c-.8-1-1.2-2.5-1.2-4.4s.4-3.4,1.2-4.4,1.9-1.5,3.3-1.5,2.6.5,3.4,1.5,1.2,2.5,1.2,4.4ZM133.6,180.7c-1.2,0-1.9,1.1-1.9,3.3s.6,3.3,1.9,3.3,1.9-1.1,1.9-3.3-.6-3.3-1.9-3.3ZM147.9,192.6c0,.4-.2.6-.6.6h-1.4c-.4,0-.6-.2-.6-.6v-9.6h-1.4c-.3,0-.5,0-.6.1s-.2.3-.2.5v9c0,.4-.2.6-.6.6h-1.4c-.4,0-.6-.2-.6-.6v-19.8c0-.4.2-.6.6-.6h1.4c.4,0,.6.2.6.6v8c.2-.3.4-.4.8-.4h1.3v-7.8c0-.4.2-.6.6-.6h1.4c.4,0,.6.2.6.6v20.1h0Z"/>
    <path class="cls-6" d="M157.6,181.3c.1-.4.2-.8.3-1.2s.2-.8.3-1.2c0-.4.2-.8.2-1.2v-1c0-.6-.1-1-.4-1.3-.3-.2-.7-.3-1.2-.3h-3c-.4,0-.8,0-1.1.1-.3,0-.7.1-1.1.2-.2,0-.3,0-.5-.1-.1-.1-.2-.3-.2-.5v-1.4c0-.4.2-.6.6-.6.9-.1,1.8-.2,2.7-.3.8,0,1.8-.1,2.8-.1s1.4,0,2,.2c.5.2,1,.4,1.3.7s.6.8.7,1.3.2,1.2.2,2v1.2c0,.4-.1.9-.2,1.3,0,.4-.2.8-.3,1.2s-.2.7-.3,1c0,.2-.1.4-.2.4,0,0-.2.1-.4.1h-1.5c-.2,0-.4,0-.5-.2s-.1-.3,0-.5l-.2.2ZM167.9,193.1c-.5,0-1,.1-1.6.2-.6,0-1.1,0-1.7.1s-1.1,0-1.6,0h-1.4c-1.7,0-3.1,0-4.2-.1-1.1,0-2-.3-2.7-.5s-1.1-.6-1.4-1-.4-.9-.4-1.6.1-1.1.4-1.5c.2-.4.6-.7,1.2-1,.6-.2,1.3-.4,2.3-.5.9,0,2.1-.1,3.5-.1h3.8c.7,0,1.2-.3,1.2-.8s-.4-.8-1.2-.8h-5c-1,0-1.9,0-2.8.1s-1.7,0-2.4.1c-.4,0-.6-.2-.6-.6v-1.2c0-.4.2-.5.6-.6.9,0,1.9-.1,2.9-.2h9c.8,0,1.3.2,1.6.5s.5.8.5,1.4-.1.9-.4,1.3c-.3.4-.7.7-1.1.8h.8c.4,0,.5.2.5.5v1.1c0,.4-.2.5-.5.5h-9.4c-.6,0-1.1,0-1.4.1-.3,0-.6.1-.7.3-.1.1-.2.3-.2.5s0,.4.2.5.4.2.9.3c.4,0,1,.1,1.8.1h6c.6,0,1.1,0,1.7-.1.6,0,1.1-.1,1.5-.2.4,0,.6.1.6.5v1.2c0,.4,0,.6-.4.6h0ZM165,180.2c-.1.3-.4.5-.9.5h-1.4c-.4,0-.6-.2-.6-.6v-1.3c0-.4.2-.6.6-.6h1.7c.4,0,.6-.2.6-.6v-1.8c-.1.3-.4.5-.9.5h-1.4c-.4,0-.6-.2-.6-.6v-1.3c0-.4.2-.6.6-.6h1.7c.4,0,.6-.2.6-.6v-.5c0-.4.2-.6.6-.6h1.5c.4,0,.6.2.6.6v8.9c0,.4-.2.6-.6.6h-1.5c-.4,0-.6-.2-.6-.6v-1.4Z"/>
    <path class="cls-6" d="M181.8,173.9c.4,0,.6.2.6.6v1.4c0,.4-.2.6-.6.6h-10.7c-.4,0-.6-.2-.6-.6v-1.4c0-.4.2-.6.6-.6h4.4c-.2-.1-.4-.3-.4-.6v-1.3c0-.4.2-.6.6-.6h1.6c.4,0,.6.2.6.6v1.5c0,.3.2.4.5.4h3.4,0ZM181.7,184c0,1.9-.5,3.3-1.4,4.4-.9,1-2.2,1.5-3.9,1.5s-2.9-.5-3.9-1.5c-.9-1-1.4-2.5-1.4-4.4s.5-3.3,1.4-4.4c.9-1,2.2-1.5,3.9-1.5s3,.5,3.9,1.5,1.4,2.5,1.4,4.4ZM176.4,180.7c-.8,0-1.4.3-1.8.8s-.6,1.4-.6,2.4.2,1.9.7,2.5c.4.6,1,.8,1.8.8s1.4-.3,1.8-.8c.4-.5.7-1.4.7-2.5s-.2-1.9-.7-2.4c-.4-.5-1.1-.8-1.8-.8h0ZM187.2,192.5c0,.4-.2.6-.6.6h-1.5c-.4,0-.6-.2-.6-.6v-20c0-.4.2-.6.6-.6h1.5c.4,0,.6.2.6.6v8.2c.2-.3.5-.5,1-.5h1.4c.4,0,.6.2.6.6v1.4c0,.4-.2.6-.6.6h-1.6c-.6,0-.8.3-.8.8v8.8h0Z"/>
    <path class="cls-6" d="M201.7,189.3c0,.4-.3.6-.7.6h-1.5c-.2,0-.4,0-.5-.2-.1-.1-.1-.3-.1-.5.3-1.7.6-3.5.7-5.2.1-1.7.2-3.5.2-5.2s-.2-1.7-.6-2.1-1-.6-1.9-.6-1.7,0-2.4.1-1.5.2-2.3.3c-.2,0-.3,0-.5-.1-.1-.1-.2-.3-.2-.5v-1.4c0-.4.2-.6.6-.6.9-.1,1.8-.2,2.7-.3.9,0,1.7-.1,2.6-.1s1.6,0,2.2.3,1.1.5,1.5.9.7.9.8,1.6c.2.6.3,1.4.3,2.4,0,1.9,0,3.7-.2,5.5-.1,1.7-.4,3.5-.7,5.3v-.2ZM205.8,172.5c0-.4.2-.6.6-.6h1.5c.4,0,.6.2.6.6v20c0,.4-.2.6-.6.6h-1.5c-.4,0-.6-.2-.6-.6v-20Z"/>
    <path class="cls-6" d="M223.4,187.4c-.9,0-1.8,0-2.8-.1-.9,0-1.7-.1-2.4-.2-.4,0-.6-.3-.6-.6v-1.4c0-.4.2-.6.6-.5,1.6.2,3.6.4,5.9.4h3.4c1.1,0,2.1-.1,2.9-.3.4,0,.6,0,.6.5v1.4c0,.4-.2.6-.6.6h-4.3c-.6,0-.8.2-.8.7v4.1c0,.4-.2.6-.6.6h-1.5c-.4,0-.6-.2-.6-.6v-3.7c0-.3,0-.5.2-.6.1-.2.3-.3.5-.4h.1ZM218.9,177.5c0-.8.1-1.5.4-2.1.3-.6.6-1.2,1.1-1.7s1-.8,1.7-1.1,1.4-.4,2.2-.4,1.6.1,2.2.4c.7.3,1.2.6,1.7,1.1s.8,1,1.1,1.7c.3.6.4,1.4.4,2.1s-.1,1.5-.4,2.1c-.3.6-.6,1.2-1.1,1.7s-1,.8-1.7,1.1-1.4.4-2.2.4-1.6-.1-2.2-.4c-.7-.3-1.2-.6-1.7-1.1s-.8-1-1.1-1.7c-.3-.6-.4-1.4-.4-2.1ZM224.3,180.2c.8,0,1.5-.3,1.9-.8.5-.5.7-1.2.7-2s-.2-1.5-.7-2-1.1-.8-1.9-.8-1.5.3-1.9.8c-.5.5-.7,1.2-.7,2s.2,1.5.7,2,1.1.8,1.9.8ZM235.2,192.5c0,.4-.2.6-.6.6h-1.5c-.4,0-.6-.2-.6-.6v-20c0-.4.2-.6.6-.6h1.5c.4,0,.6.2.6.6v20Z"/>
    <path class="cls-6" d="M247.5,173.9c.4,0,.6.2.6.6v1.4c0,.4-.2.6-.6.6h-9.3c-.4,0-.6-.2-.6-.6v-1.4c0-.4.2-.6.6-.6h3.7c-.2-.1-.4-.3-.4-.6v-1.3c0-.4.2-.6.6-.6h1.4c.4,0,.6.2.6.6v1.5c0,.3.2.4.5.4h2.9ZM247.4,184c0,1.9-.4,3.4-1.2,4.4s-1.9,1.5-3.4,1.5-2.6-.5-3.3-1.5c-.8-1-1.2-2.5-1.2-4.4s.4-3.4,1.2-4.4,1.9-1.5,3.3-1.5,2.6.5,3.4,1.5,1.2,2.5,1.2,4.4ZM242.9,180.7c-1.2,0-1.9,1.1-1.9,3.3s.6,3.3,1.9,3.3,1.9-1.1,1.9-3.3-.6-3.3-1.9-3.3ZM257.2,192.6c0,.4-.2.6-.6.6h-1.4c-.4,0-.6-.2-.6-.6v-9.6h-1.4c-.3,0-.5,0-.6.1s-.2.3-.2.5v9c0,.4-.2.6-.6.6h-1.4c-.4,0-.6-.2-.6-.6v-19.8c0-.4.2-.6.6-.6h1.4c.4,0,.6.2.6.6v8c.2-.3.4-.4.8-.4h1.3v-7.8c0-.4.2-.6.6-.6h1.4c.4,0,.6.2.6.6v20.1h0Z"/>
    <path class="cls-6" d="M267.9,190.9c-.4,0-.6-.3-.6-.6v-1.3c0-.4.2-.6.6-.6s.9,0,1.5.1,1.2,0,1.9.1c.7,0,1.4,0,2.1.1h2.1c-.2,0-.3-.2-.4-.4s-.2-.4-.2-.6v-2.8c-1.2,0-2.1-.3-2.9-.6s-1.4-.7-1.9-1.2-.9-1.1-1.1-1.8-.3-1.4-.3-2.3.1-1.8.4-2.5.8-1.3,1.4-1.8,1.5-.9,2.6-1.2,2.4-.4,3.9-.4.7,0,1,0h2.5c.5,0,1.2,0,1.9.1.4,0,.6.2.6.6v1.4c0,.4-.2.6-.6.6-.7,0-1.3,0-1.9-.1h-3.7c-1.1,0-2,0-2.7.2s-1.3.3-1.7.6c-.4.3-.7.6-.9,1-.2.4-.3.9-.3,1.5s0,1.1.2,1.5c.1.4.4.8.8,1,.4.3.9.5,1.5.6s1.4.2,2.4.2,2,0,3.1-.1,2.2-.2,3.3-.3c.4,0,.6.1.6.6v1.4c.1.4,0,.6-.5.6-1.1.1-2,.2-2.8.3-.8,0-1.6.1-2.3.1v3c0,.5.3.7.8.7h3.3c.6,0,1.1,0,1.6-.1.5,0,1,0,1.4-.1.4,0,.6.1.6.6v1.3c0,.4-.2.6-.6.6s-.9.1-1.5.2c-.6,0-1.3,0-2,.1h-5c-3.8,0-6.6-.1-8.4-.4h.2Z"/>
    <path class="cls-6" d="M298.7,177.4c0,.8-.1,1.5-.4,2.1s-.6,1.2-1.1,1.7-1,.8-1.7,1.1-1.4.4-2.2.4-1.6-.1-2.2-.4-1.2-.6-1.7-1.1-.8-1-1.1-1.7c-.3-.6-.4-1.4-.4-2.1s.1-1.5.4-2.2c.2-.6.6-1.2,1.1-1.6.5-.5,1-.8,1.7-1.1s1.4-.4,2.2-.4,1.6.1,2.2.4,1.2.6,1.7,1.1.8,1,1.1,1.6c.3.6.4,1.4.4,2.2ZM292.5,193.3c-.8,0-1.5-.2-2-.6-.5-.4-.7-1-.7-1.7l-.3-6.2c0-.4.2-.6.6-.6h1.5c.4,0,.6.2.6.6v1.1h9.6v-1.1c0-.4.3-.6.7-.6h1.5c.4,0,.7.2.6.6l-.3,6.2c0,.7-.3,1.3-.7,1.7-.5.4-1.1.6-2,.6h-9.1ZM295.9,177.4c0-.8-.2-1.5-.7-2s-1.1-.7-1.9-.7-1.5.2-1.9.7c-.5.5-.7,1.1-.7,2s.2,1.5.7,2,1.1.7,1.9.7,1.5-.2,1.9-.7c.5-.5.7-1.2.7-2ZM292.5,189.9c0,.6.4.9,1.1.9h6.9c.7,0,1.1-.3,1.1-.9v-1.5h-9.2v1.5h.1ZM301.9,172.5c0-.4.2-.6.6-.6h1.5c.4,0,.6.2.6.6v9.4c0,.4-.2.6-.6.6h-1.5c-.4,0-.6-.2-.6-.6v-9.4Z"/>
    <path class="cls-6" d="M319,180.7c-.7.2-1.4.4-2.1.5s-1.3.2-1.8.2v1.1c0,.4.2.6.7.6h4.2c.4,0,.6.1.6.5v1.4c0,.4-.2.6-.6.6h-9.6c-1,0-1.9,0-2.7-.1-.4,0-.6-.2-.6-.6v-1.4c0-.4.2-.5.6-.5h5c-.3-.2-.4-.4-.4-.7v-1.2c-1.4-.2-2.4-.7-3-1.4s-.9-1.7-.9-2.9.1-1.5.4-2.1c.2-.6.6-1,1.2-1.4.5-.4,1.2-.6,2.1-.8.8-.2,1.9-.2,3-.2h1.8c.5,0,.9,0,1.3.2.4,0,.5.3.5.6v1.3c0,.5-.2.7-.6.6-.4,0-.8-.1-1.3-.2h-3.5c-.5,0-1,.2-1.3.3s-.5.3-.7.6c-.1.2-.2.6-.2,1s0,.7.2,1c.1.2.3.4.6.6.3.1.7.2,1.2.3h1.9c.8,0,1,0,1.6-.1.6,0,1.2-.2,1.8-.5.4-.1.6,0,.7.4l.3,1.3c0,.4,0,.6-.4.7v.3ZM309.6,187.4c0-.4.3-.6.7-.6h1.5c.2,0,.4,0,.5.2s.1.3.1.5c0,.3,0,.5-.1.8v.9c0,1.3.8,1.9,2.3,1.9h5.7c.8,0,1.6,0,2.3-.1.7,0,1.4-.1,2.1-.2.4,0,.6.1.6.6v1.3c.1.4,0,.6-.5.6-1.2.1-2.7.2-4.4.3-1.7,0-3.6.1-5.7.1s-2.9-.4-3.8-1.1c-.9-.8-1.3-1.8-1.3-3.2s0-.7,0-1,0-.6.1-.8v-.2ZM324.6,186.5c0,.4-.2.6-.6.6h-1.5c-.4,0-.6-.2-.6-.6v-14c0-.4.2-.6.6-.6h1.5c.4,0,.6.2.6.6v14Z"/>
    <path class="cls-6" d="M341.1,182.5c.1-.4.2-.9.3-1.4.1-.5.2-1,.3-1.5s.2-1,.2-1.5v-1.2c0-.7-.2-1.1-.5-1.4-.3-.3-.8-.4-1.4-.4h-2.9c-.4,0-.7,0-1.1.1-.3,0-.7.1-1.1.2-.2,0-.3,0-.5-.1-.1-.1-.2-.3-.2-.5v-1.4c0-.4.2-.6.6-.6.9-.1,1.8-.2,2.6-.3.8,0,1.7-.1,2.6-.1,1.6,0,2.8.4,3.5,1.1.7.7,1,1.9,1,3.5s0,.7,0,1.2-.1,1-.2,1.5c0,.5-.2,1-.3,1.5-.1.5-.2,1-.3,1.4,0,.2-.1.4-.2.4,0,0-.2.1-.5.1h-1.5c-.2,0-.4,0-.5-.2s-.1-.3,0-.5h.1ZM336.7,193.3c-.4,0-.6-.2-.6-.6v-1.4c0-.4.2-.6.6-.6.8,0,1.6-.1,2.3-.3.7-.2,1.3-.5,1.8-.9s.9-.8,1.2-1.3c.3-.5.5-1.1.5-1.6v-.9c0-.4.2-.6.6-.6h1.5c.4,0,.6.2.6.6v.9c0,.6.2,1.1.5,1.6s.7,1,1.2,1.3c.5.4,1.1.7,1.8.9.7.2,1.4.3,2.2.3s.6.2.6.6v1.4c0,.4-.2.6-.6.6-.7,0-1.4,0-2.1-.2s-1.4-.4-2.1-.7c-.6-.3-1.2-.7-1.8-1.2s-.9-1-1.2-1.5c-.3.6-.7,1.1-1.2,1.6s-1.1.9-1.8,1.2c-.6.3-1.3.5-2.1.7-.7.2-1.4.2-2.1.2h.2ZM348.5,172.5c0-.4.2-.6.6-.6h1.5c.4,0,.6.2.6.6v11.8c0,.4-.2.6-.6.6h-1.5c-.4,0-.6-.2-.6-.6v-6.1c-.2.3-.5.5-1,.5h-1.1c-.4,0-.6-.2-.6-.6v-1.3c0-.4.2-.6.6-.6h1.2c.6,0,.8-.3.8-.8v-2.9h.1Z"/>
    <path class="cls-6" d="M355.3,188.3c1.2.1,2.4.2,3.8.3,1.4,0,2.9.1,4.6.1h4.8c1.5,0,2.7-.2,3.6-.3.4,0,.6.1.6.6v1.3c0,.4-.2.6-.6.6s-.9.1-1.5.2c-.6,0-1.3,0-2,.1h-5c-3.8,0-6.6-.1-8.4-.4-.4,0-.6-.3-.6-.6v-1.3c0-.4.2-.6.6-.6h.1ZM356.4,179c0-2,.7-3.5,2-4.5,1.3-1.1,3.1-1.6,5.5-1.6s4.2.5,5.5,1.6,2,2.6,2,4.5-.7,3.5-2,4.5c-1.3,1.1-3.1,1.6-5.5,1.6s-4.2-.5-5.5-1.6-1.9-2.6-1.9-4.5h-.1ZM363.9,182.6c1.6,0,2.7-.3,3.5-.9.8-.6,1.2-1.5,1.2-2.6s-.4-2-1.2-2.6c-.8-.6-2-.9-3.6-.9s-2.8.3-3.6.9c-.8.6-1.2,1.5-1.2,2.6s.4,2,1.2,2.6c.8.6,2,.9,3.5.9h.2Z"/>
    <path class="cls-6" d="M376.2,190.9c-.4,0-.6-.3-.6-.6v-1.3c0-.4.2-.6.6-.6s.9,0,1.5.1,1.2,0,1.9.1c.7,0,1.4,0,2.1.1h2.1c-.2,0-.3-.2-.4-.4s-.2-.4-.2-.6v-2.5c-1.1,0-2-.2-2.7-.3-.7-.2-1.3-.4-1.8-.7-.4-.3-.8-.7-.9-1.2-.2-.5-.3-1-.3-1.7s.1-1.3.3-1.8.6-.8,1.2-1.1c.5-.3,1.3-.5,2.2-.6s2-.2,3.4-.2h3c1,0,1.6-.4,1.6-1.2s-.1-.7-.3-.8-.6-.2-1.2-.2h-4.8c-.8,0-1.5,0-2.3.1-.7,0-1.4.1-2,.2-.4,0-.6-.1-.6-.5v-1.4c0-.3.2-.5.5-.6,1-.1,2.2-.3,3.6-.3s2.8-.1,4.2-.1h2.9c1.8,0,2.7.8,2.7,2.3s-.2,1.2-.5,1.7-.8.8-1.3,1h1.1c.4,0,.5.2.5.5v1.2c0,.4-.2.6-.5.6h-8.6c-.6,0-1,.1-1.3.2-.3,0-.6.2-.7.4s-.2.4-.2.6,0,.5.2.6c.2.2.4.3.9.4.4,0,1,.2,1.7.2h2.9c1.2,0,1.9,0,2.9-.1,1,0,1.9-.2,2.8-.3.3,0,.5.1.6.5l.2,1.4v.4c0,0-.2.2-.4.2-1,.1-2,.3-3.1.3s-2.1.1-2.9.1h0v2.7c0,.5.3.7.8.7h3.3c.6,0,1.1,0,1.6-.1.5,0,1,0,1.4-.1.4,0,.6.1.6.6v1.3c0,.4-.2.6-.6.6s-.9.1-1.5.2c-.6,0-1.3,0-2,.1h-5c-3.8,0-6.6-.1-8.4-.4l-.2.3Z"/>
    <path class="cls-6" d="M403,190.8c0-.8,0-1.5.3-2.1.2-.6.5-1.2,1-1.8.4-.6,1-1.1,1.8-1.7.7-.5,1.6-1.1,2.7-1.7.8-.5,1.6-.9,2.2-1.3.6-.4,1.1-.8,1.5-1.2s.6-.8.8-1.2.3-.8.3-1.3c0-.9-.3-1.6-1-2.1-.6-.5-1.5-.7-2.7-.7-2.4,0-3.6,1.1-3.6,3.2s-.2.6-.6.6h-1.5c-.4,0-.6-.2-.6-.6,0-1.9.6-3.3,1.7-4.3s2.7-1.5,4.8-1.5,3.6.5,4.7,1.5,1.7,2.4,1.7,4.2c0,2.6-1.8,4.8-5.3,6.7-2.7,1.5-4.3,2.7-4.6,3.9h10c.4,0,.6.2.6.6v1.4c0,.4-.2.6-.6.6h-12.2c-.7,0-1.1-.4-1.1-1.1h-.3Z"/>
    <path class="cls-6" d="M418.6,182.6c0-3.2.6-5.6,1.8-7.2,1.2-1.6,3-2.4,5.3-2.4s4.1.8,5.3,2.4c1.2,1.6,1.8,4,1.8,7.2s-.6,5.6-1.8,7.2c-1.2,1.6-3,2.4-5.3,2.4s-4.1-.8-5.3-2.4c-1.2-1.6-1.8-4-1.8-7.2ZM421.3,182.6c0,2.4.4,4.1,1.1,5.2.7,1.1,1.8,1.7,3.3,1.7s2.6-.6,3.3-1.7c.7-1.1,1.1-2.9,1.1-5.2s-.4-4.1-1.1-5.2c-.7-1.1-1.8-1.7-3.3-1.7s-2.6.6-3.3,1.7c-.7,1.1-1.1,2.9-1.1,5.2Z"/>
    <path class="cls-6" d="M434.9,182.6c0-3.2.6-5.6,1.8-7.2,1.2-1.6,3-2.4,5.3-2.4s4.1.8,5.3,2.4c1.2,1.6,1.8,4,1.8,7.2s-.6,5.6-1.8,7.2c-1.2,1.6-3,2.4-5.3,2.4s-4.1-.8-5.3-2.4c-1.2-1.6-1.8-4-1.8-7.2ZM437.6,182.6c0,2.4.4,4.1,1.1,5.2.7,1.1,1.8,1.7,3.3,1.7s2.6-.6,3.3-1.7c.7-1.1,1.1-2.9,1.1-5.2s-.4-4.1-1.1-5.2c-.7-1.1-1.8-1.7-3.3-1.7s-2.6.6-3.3,1.7c-.7,1.1-1.1,2.9-1.1,5.2Z"/>
    <path class="cls-6" d="M458.2,192.2c-2.4,0-4.3-.5-5.5-1.4-1.3-.9-1.9-2.3-1.9-4.1s0-1.1.2-1.6.4-.9.7-1.3c.3-.4.6-.7,1-1s.9-.5,1.4-.6c-.8-.3-1.4-.8-1.9-1.5s-.7-1.6-.7-2.6.2-1.4.5-2,.8-1.1,1.4-1.5,1.3-.8,2.1-1c.8-.2,1.7-.3,2.7-.3s1.9.1,2.7.3c.8.2,1.5.6,2.1,1s1,.9,1.4,1.5c.3.6.5,1.3.5,2s-.2,1.9-.7,2.6c-.5.7-1.1,1.2-1.9,1.5,1,.3,1.8.8,2.4,1.7.6.8.9,1.8.9,2.9,0,1.8-.6,3.2-1.9,4.1-1.3.9-3.1,1.4-5.5,1.4h0ZM458.2,183.7c-3.1,0-4.7,1-4.7,3s1.6,3,4.7,3,4.7-1,4.7-3-1.6-3-4.7-3ZM458.2,175.7c-1.3,0-2.3.2-3,.7s-1,1.2-1,2.1.3,1.5,1,2,1.7.7,3,.7,2.3-.2,3-.7,1-1.1,1-2-.3-1.6-1-2.1-1.7-.7-3-.7Z"/>
    <path class="cls-6" d="M484.6,186c0,.4-.2.6-.6.6h-1.5c-.4,0-.6-.2-.6-.6v-5.7c-.2.3-.5.5-1,.5h-2.6c0,.1.4,1.4.4,1.4,0,.4,0,.6-.5.8-.8.3-1.7.5-2.5.6-.9.1-1.7.2-2.4.2-1.7,0-3-.4-3.9-1.2s-1.3-2.1-1.3-3.7,0-2.1.1-3.1.2-1.9.4-2.9c0-.4.3-.6.7-.6h1.5c.2,0,.4,0,.5.2.1.1.2.3.1.5-.2,1.3-.4,2.4-.4,3.4s-.1,1.8-.1,2.7.2,1.3.6,1.6,1,.5,1.9.5,1.2,0,1.9-.2,1.4-.3,2.2-.5v-1.7c0-.4.2-.6.6-.6h3.3c.2,0,.4,0,.5-.2,0-.1.1-.3.1-.5v-1.6c-.2.3-.5.5-1,.5h-3c-.4,0-.6-.2-.6-.6v-1.3c0-.4.2-.6.6-.6h3.3c.2,0,.4,0,.5-.2,0-.1.1-.3.1-.5v-.9c0-.4.2-.6.6-.6h1.5c.4,0,.6.2.6.6v13.7ZM470,186.4c0-.4.3-.6.7-.6h1.4c.2,0,.4,0,.5.2.1.1.2.3.1.5v2.4c0,.7.2,1.3.6,1.6.4.4,1,.6,1.8.6h5.3c.7,0,1.4,0,2.1-.1.7,0,1.4-.1,2.1-.2.4,0,.6.1.6.6v1.3c.1.4,0,.6-.5.6-1.2.1-2.6.2-4.1.3-1.6,0-3.3.1-5.3.1s-3-.4-3.9-1.2-1.4-1.9-1.4-3.3v-1.5c0-.5,0-.9.1-1.2h-.1Z"/>
    <path class="cls-6" d="M495.1,178.7h-.3c-.3,0-.4-.2-.4-.5v-2.3c0-.1.2-.2.3-.3l3.5-2.2c.3-.2.6-.3,1-.3h1.1c.4,0,.6.2.6.6v17.4c0,.4-.2.6-.6.6h-1.5c-.4,0-.6-.2-.6-.6v-14.6l-3.1,2v.2Z"/>
    <path class="cls-6" d="M521.3,193.1c-.4,0-.9.1-1.5.2s-1.2,0-1.8.1h-3.5c-1.8,0-3.2,0-4.4-.1-1.2,0-2.1-.2-2.7-.5-.7-.2-1.1-.5-1.4-.9s-.4-.9-.4-1.5.1-1.1.4-1.4.7-.7,1.2-.9c.6-.2,1.4-.4,2.3-.5,1,0,2.2-.1,3.6-.1h4.3c.4,0,.8,0,.9-.2.2,0,.3-.3.3-.5s0-.5-.3-.6c-.2-.1-.5-.2-.9-.2h-5.5c-1,0-2,0-3,.1s-1.8,0-2.5.1c-.4,0-.5-.2-.5-.6v-1.1c0-.4.2-.5.5-.6h2.3v-.7c0-.3.1-.6.4-.6h-5.1c-.2,0-.4,0-.4-.2s-.1-.2-.1-.4v-1.2c0-.2,0-.3.1-.4,0,0,.2-.1.5,0,.8,0,1.7.1,2.7.1h9.7c.4,0,.6.2.6.5v1.2c0,.2,0,.4,0,.4,0,0-.2.1-.4.2h-4.3c-.8,0-.7.2-.7.6v.8h7.5c.8,0,1.4.2,1.7.4.3.3.5.7.5,1.3s0,.9-.4,1.3c-.3.4-.7.6-1.1.8h.9c.3,0,.5.2.5.5v1c0,.4-.2.6-.5.5h-10c-.6,0-1.1,0-1.5.1-.4,0-.6.1-.7.3-.1.1-.2.3-.2.4s0,.4.3.5c.2.1.5.2,1,.3h8.4c.6,0,1.2,0,1.8-.1s1.1-.1,1.5-.2c.4,0,.5.1.6.5v1.1c0,.4,0,.6-.4.6l-.2-.4ZM504.9,175.9c0-1.2.4-2.1,1.3-2.8s2.2-.9,3.9-.9,3.1.3,3.9.9c.9.6,1.3,1.5,1.3,2.8s-.4,2.1-1.3,2.8c-.9.6-2.2.9-3.9.9s-3.1-.3-3.9-.9-1.3-1.5-1.3-2.8h0ZM510.1,177.3c1.7,0,2.5-.5,2.5-1.5s-.8-1.5-2.5-1.5-2.5.5-2.5,1.5.8,1.5,2.5,1.5h0ZM518.4,172.5c0-.4.2-.6.6-.6h1.5c.4,0,.6.2.6.6v9.9c0,.4-.2.6-.6.6h-1.5c-.4,0-.6-.2-.6-.6v-5.4c-.2.3-.5.4-.9.4h-.7c-.4,0-.6-.2-.6-.6v-1.3c0-.4.2-.6.6-.6h1c.4,0,.6-.2.6-.6v-1.8h0Z"/>
    <path class="cls-6" d="M531.7,178.7h-.3c-.3,0-.4-.2-.4-.5v-2.3c0-.1.2-.2.3-.3l3.5-2.2c.3-.2.6-.3,1-.3h1.1c.4,0,.6.2.6.6v17.4c0,.4-.2.6-.6.6h-1.5c-.4,0-.6-.2-.6-.6v-14.6l-3.1,2v.2Z"/>
    <path class="cls-6" d="M551.7,177.2c0,.8,0,1.4-.4,2.1-.3.6-.6,1.1-1.1,1.6-.5.4-1,.8-1.7,1s-1.4.4-2.2.4-1.6-.1-2.2-.4-1.2-.6-1.7-1-.8-1-1.1-1.6-.4-1.3-.4-2.1,0-1.4.4-2.1.6-1.1,1.1-1.6,1-.8,1.7-1,1.4-.4,2.2-.4,1.6.1,2.2.4,1.2.6,1.7,1,.8,1,1.1,1.6.4,1.3.4,2.1ZM557.9,193.1c-.5,0-1,.1-1.6.2-.6,0-1.1,0-1.7.1s-1.1,0-1.6,0h-1.4c-1.7,0-3.1,0-4.2-.1-1.1,0-2-.3-2.7-.5s-1.1-.6-1.4-1c-.3-.4-.4-.9-.4-1.6s0-1.1.4-1.5.6-.7,1.2-1c.6-.2,1.3-.4,2.3-.5.9,0,2.1-.1,3.5-.1h3.8c.7,0,1.2-.3,1.2-.8s-.4-.8-1.2-.8h-5c-1,0-1.9,0-2.8.1s-1.7,0-2.4.1c-.4,0-.6-.2-.6-.6v-1.2c0-.4.2-.5.6-.6.9,0,1.9-.1,2.9-.2h9c.8,0,1.3.2,1.6.5s.5.8.5,1.4,0,.9-.4,1.3c-.3.4-.7.7-1.1.8h.8c.4,0,.5.2.5.5v1.1c0,.4-.2.5-.5.5h-9.4c-.6,0-1.1,0-1.4.1-.3,0-.6.1-.7.3,0,.1-.2.3-.2.5s0,.4.2.5.4.2.9.3c.4,0,1,.1,1.8.1h6c.6,0,1.1,0,1.7-.1s1.1-.1,1.5-.2c.4,0,.6.1.6.5v1.2c0,.4,0,.6-.4.6h.1ZM549,177.2c0-.8-.2-1.5-.7-1.9-.5-.5-1.1-.7-1.9-.7s-1.5.2-1.9.7-.7,1.1-.7,1.9.2,1.5.7,1.9c.5.5,1.1.7,1.9.7s1.5-.2,1.9-.7c.5-.5.7-1.1.7-1.9ZM554.9,172.5c0-.4.2-.6.6-.6h1.5c.4,0,.6.2.6.6v8.9c0,.4-.2.6-.6.6h-1.5c-.4,0-.6-.2-.6-.6v-8.9Z"/>
    <path class="cls-6" d="M578.4,181.8c0,3-.4,5.2-1.3,6.5s-2.2,2.1-4.1,2.1-3.2-.7-4.1-2.1c-.9-1.4-1.3-3.6-1.3-6.5s.4-5.2,1.3-6.5c.9-1.4,2.2-2.1,4.1-2.1s3.2.7,4.1,2.1,1.3,3.6,1.3,6.5ZM573,175.8c-.9,0-1.6.5-2,1.4s-.6,2.4-.6,4.6.2,3.6.6,4.6c.4.9,1.1,1.4,2,1.4s1.6-.5,2-1.4.6-2.5.6-4.6-.2-3.6-.6-4.6-1.1-1.4-2-1.4ZM581.6,172.5c0-.4.2-.6.6-.6h1.5c.4,0,.6.2.6.6v20c0,.4-.2.6-.6.6h-1.5c-.4,0-.6-.2-.6-.6v-20Z"/>
    <path class="cls-6" d="M599.1,187.8c-.6,0-.8.2-.8.7v3.1c0,.4-.2.6-.6.6h-1.5c-.4,0-.6-.2-.6-.6v-2.8c0-.2,0-.5.2-.6,0-.2.3-.3.5-.4h-4.2c-.7,0-1.3,0-1.9-.1s-1.1,0-1.6-.1c-.4,0-.6-.3-.6-.7v-1.3c0-.4.2-.6.6-.6,1.2.1,2.4.2,3.8.3s2.9.1,4.6.1h4.8c1.5,0,2.7-.2,3.6-.3.4,0,.6.1.6.6v1.3c0,.4-.2.6-.6.7-.4,0-.9,0-1.4.1s-1,0-1.6.1-1.1,0-1.7,0h-1.6ZM604.3,172.9c.4,0,.6.2.6.6v1.3c0,.4-.2.6-.6.6h-14.6c-.4,0-.6-.2-.6-.6v-1.3c0-.4.2-.6.6-.6h6.4c-.3-.1-.4-.4-.4-.8v-.4c0-.4.2-.6.6-.6h1.6c.4,0,.6.2.6.6v.8c0,.3.2.5.5.5h5.3ZM604.3,180.2c0,.6,0,1.1-.4,1.6-.3.4-.7.8-1.3,1.1s-1.3.5-2.3.6-2,.2-3.3.2c-2.6,0-4.4-.3-5.5-.8s-1.7-1.4-1.7-2.6,0-1.1.4-1.6c.3-.4.7-.8,1.3-1.1s1.3-.5,2.3-.6,2-.2,3.3-.2,2.4,0,3.3.2,1.7.3,2.3.6,1,.6,1.3,1.1c.3.4.4,1,.4,1.6h0ZM592.6,180.2c0,.2,0,.4.2.5,0,.1.4.2.7.3s.8.1,1.4.2h4.4c.6,0,1,0,1.4-.2s.6-.2.7-.3c0-.1.2-.3.2-.5s0-.4-.2-.5c0-.1-.4-.2-.7-.3s-.8-.1-1.4-.2h-4.4c-.6,0-1,0-1.4.2s-.6.2-.7.3c0,.1-.2.3-.2.5Z"/>
    <path class="cls-6" d="M625.9,177.4c0,.8,0,1.5-.4,2.1-.3.6-.6,1.2-1.1,1.7s-1,.8-1.7,1.1-1.4.4-2.2.4-1.6-.1-2.2-.4-1.2-.6-1.7-1.1-.8-1-1.1-1.7c-.3-.6-.4-1.4-.4-2.1s0-1.5.4-2.2.6-1.2,1.1-1.6c.5-.5,1-.8,1.7-1.1s1.4-.4,2.2-.4,1.6.1,2.2.4,1.2.6,1.7,1.1.8,1,1.1,1.6.4,1.4.4,2.2ZM619.7,193.3c-.8,0-1.5-.2-2-.6-.5-.4-.7-1-.7-1.7l-.3-6.2c0-.4.2-.6.6-.6h1.5c.4,0,.6.2.6.6v1.1h9.6v-1.1c0-.4.3-.6.7-.6h1.5c.4,0,.7.2.6.6l-.3,6.2c0,.7-.3,1.3-.7,1.7-.5.4-1.1.6-2,.6h-9.1,0ZM623.1,177.4c0-.8-.2-1.5-.7-2s-1.1-.7-1.9-.7-1.5.2-1.9.7c-.5.5-.7,1.1-.7,2s.2,1.5.7,2,1.1.7,1.9.7,1.5-.2,1.9-.7c.5-.5.7-1.2.7-2ZM619.7,189.9c0,.6.4.9,1.1.9h6.9c.7,0,1.1-.3,1.1-.9v-1.5h-9.2v1.5h.1ZM629.1,172.5c0-.4.2-.6.6-.6h1.5c.4,0,.6.2.6.6v9.4c0,.4-.2.6-.6.6h-1.5c-.4,0-.6-.2-.6-.6v-9.4Z"/>
    <path class="cls-6" d="M637.6,181.8c0,3.8,1.1,5.7,3.4,5.7s1.9-.2,2.9-.6h.3c.3,0,.4.1.5.4l.3,1.4v.5c0,.1-.2.2-.4.3-.6.2-1.1.4-1.7.5s-1.2.2-1.9.2c-2,0-3.4-.7-4.4-2.1-1-1.4-1.5-3.5-1.5-6.3s.5-5,1.5-6.3c1-1.4,2.5-2,4.6-2s1,0,1.4,0,.7,0,1.1.2c.3,0,.4.1.5.2s0,.2,0,.4v1.4c0,.5-.2.7-.6.6-.4,0-.8-.1-1.1-.2s-.7,0-1.2,0-1.2.1-1.7.3-.8.5-1.1,1-.5,1-.6,1.8c0,.7-.2,1.6-.2,2.7h-.2ZM653.9,192.6c0,.4-.2.6-.6.6h-1.4c-.4,0-.6-.2-.6-.6v-9.6h-1.4c-.3,0-.5,0-.6.1s-.2.3-.2.5v9c0,.4-.2.6-.6.6h-1.4c-.4,0-.6-.2-.6-.6v-19.8c0-.4.2-.6.6-.6h1.4c.4,0,.6.2.6.6v8c.2-.3.4-.4.8-.4h1.3v-7.8c0-.4.2-.6.6-.6h1.4c.4,0,.6.2.6.6v20.1h.1Z"/>
    <path class="cls-6" d="M666.2,173.9c.4,0,.6.2.6.6v1.4c0,.4-.2.6-.6.6h-9.3c-.4,0-.6-.2-.6-.6v-1.4c0-.4.2-.6.6-.6h3.7c-.2-.1-.4-.3-.4-.6v-1.3c0-.4.2-.6.6-.6h1.4c.4,0,.6.2.6.6v1.5c0,.3.2.4.5.4h2.9ZM666,184c0,1.9-.4,3.4-1.2,4.4s-1.9,1.5-3.4,1.5-2.6-.5-3.3-1.5c-.8-1-1.2-2.5-1.2-4.4s.4-3.4,1.2-4.4,1.9-1.5,3.3-1.5,2.6.5,3.4,1.5c.8,1,1.2,2.5,1.2,4.4ZM661.5,180.7c-1.2,0-1.9,1.1-1.9,3.3s.6,3.3,1.9,3.3,1.9-1.1,1.9-3.3-.6-3.3-1.9-3.3ZM675.8,192.6c0,.4-.2.6-.6.6h-1.4c-.4,0-.6-.2-.6-.6v-9.6h-1.4c-.3,0-.5,0-.6.1s-.2.3-.2.5v9c0,.4-.2.6-.6.6h-1.4c-.4,0-.6-.2-.6-.6v-19.8c0-.4.2-.6.6-.6h1.4c.4,0,.6.2.6.6v8c.2-.3.4-.4.8-.4h1.3v-7.8c0-.4.2-.6.6-.6h1.4c.4,0,.6.2.6.6v20.1h.1Z"/>
  </g>
  <g>
    <path class="cls-6" d="M162.8,220.7c.7-.6,1.5-1,2.5-1.3.9-.3,1.9-.4,2.8-.4s1.6.1,2.3.3c.8.2,1.4.6,2,1.1s1.1,1.1,1.4,1.8.5,1.6.5,2.6-.2,1.8-.5,2.6-.8,1.5-1.4,2c-.6.6-1.3,1-2.2,1.3s-1.8.5-2.9.5c-2.5,0-4.4-.7-5.6-2.2-1.2-1.5-1.8-3.8-1.8-7,0-6.6,2.5-9.8,7.6-9.8s1.6.1,2.3.3,1.3.5,1.9.9c.5.4,1,.9,1.3,1.4.3.6.5,1.2.6,1.8,0,.2,0,.3-.1.5-.1.1-.3.2-.5.2h-1.3c-.4,0-.6-.2-.8-.5-.3-.6-.7-1.1-1.3-1.5-.6-.3-1.3-.5-2.1-.5s-1.5.1-2,.3-1.1.6-1.5,1.1-.7,1.1-.9,1.9c-.2.8-.4,1.7-.4,2.7h0ZM171.7,224.8c0-.6-.1-1.1-.3-1.5s-.5-.8-.9-1.1-.8-.5-1.3-.6-1-.2-1.5-.2-.9,0-1.4.1c-.5,0-.9.2-1.4.4s-.8.4-1.2.6-.7.6-.9.9c0,.9.2,1.7.4,2.4s.5,1.2.9,1.6.8.7,1.4.9c.6.2,1.2.3,2,.3,1.3,0,2.3-.3,3.1-1s1.1-1.6,1.1-2.8h0Z"/>
    <path class="cls-6" d="M185,228.3c0,.2,0,.4-.2.5s-.2.1-.5.1h-1.4c-.4,0-.6-.2-.6-.6.3-1.7.5-3.6.7-5.5s.2-3.7.2-5.5,0-.8,0-1.1-.2-.5-.3-.7c-.2-.2-.4-.3-.6-.4-.3,0-.6-.1-1-.1-.8,0-1.5,0-2.2.1s-1.3.2-1.9.3c-.2,0-.3,0-.5-.1-.1-.1-.2-.3-.2-.5v-1.4c0-.4.2-.6.6-.6.7-.1,1.4-.2,2.2-.3s1.6-.1,2.3-.1,1.4,0,2,.2,1,.4,1.3.8.6.9.7,1.5.2,1.3.2,2.2c0,1.9,0,3.8-.2,5.7-.1,1.9-.4,3.7-.7,5.5h0ZM195.6,231.6c0,.4-.2.6-.6.6h-1.4c-.4,0-.6-.2-.6-.6v-9.6h-1.4c-.3,0-.5,0-.6.1s-.2.3-.2.5v9c0,.4-.2.6-.6.6h-1.4c-.4,0-.6-.2-.6-.6v-19.8c0-.4.2-.6.6-.6h1.4c.4,0,.6.2.6.6v8c.2-.3.4-.4.8-.4h1.3v-7.8c0-.4.2-.6.6-.6h1.4c.4,0,.6.2.6.6v20.1h0Z"/>
    <path class="cls-6" d="M215.6,232.1c-.4,0-.9.1-1.5.2-.6,0-1.2,0-1.8.1s-1.2,0-1.9,0h-1.6c-1.8,0-3.2,0-4.4-.1-1.2,0-2.1-.2-2.7-.5-.7-.2-1.1-.5-1.4-.9-.3-.4-.4-.9-.4-1.5s.1-1.1.4-1.4c.2-.4.7-.7,1.2-.9.6-.2,1.4-.4,2.3-.5,1,0,2.2-.1,3.6-.1h4.3c.4,0,.8,0,.9-.2.2,0,.3-.3.3-.5s0-.5-.3-.6c-.2-.1-.5-.2-.9-.2h-5.5c-1,0-2,0-3,.1s-1.8,0-2.5.1c-.4,0-.5-.2-.5-.6v-1.1c0-.4.2-.5.5-.6h2.3v-.7c0-.3.1-.6.4-.6h-5.1c-.2,0-.4,0-.4-.2,0,0-.1-.2-.1-.4v-1.2c0-.2,0-.3.1-.4,0,0,.2-.1.5,0,.8,0,1.7.1,2.7.1h9.7c.4,0,.6.2.6.5v1.2c0,.2,0,.4-.1.4,0,0-.2.1-.4.2h-4.3c-.8,0-.7.2-.7.6v.8h7.5c.8,0,1.4.2,1.7.4.3.3.5.7.5,1.3s-.1.9-.4,1.3c-.3.4-.7.6-1.1.8h.9c.3,0,.5.2.5.5v1c0,.4-.2.6-.5.5h-10c-.6,0-1.1,0-1.5.1-.4,0-.6.1-.7.3s-.2.3-.2.4,0,.4.3.5c.2.1.5.2,1,.3h8.4c.6,0,1.2,0,1.8-.1.6,0,1.1-.1,1.5-.2.4,0,.5.1.6.5v1.1c0,.4,0,.6-.4.6l-.2-.4ZM199.2,214.9c0-1.2.4-2.1,1.3-2.8s2.2-.9,3.9-.9,3.1.3,3.9.9,1.3,1.5,1.3,2.8-.4,2.1-1.3,2.8-2.2.9-3.9.9-3.1-.3-3.9-.9-1.3-1.5-1.3-2.8ZM204.5,216.3c1.7,0,2.5-.5,2.5-1.5s-.8-1.5-2.5-1.5-2.5.5-2.5,1.5.8,1.5,2.5,1.5ZM212.7,211.5c0-.4.2-.6.6-.6h1.5c.4,0,.6.2.6.6v9.9c0,.4-.2.6-.6.6h-1.5c-.4,0-.6-.2-.6-.6v-5.4c-.2.3-.5.4-.9.4h-.7c-.4,0-.6-.2-.6-.6v-1.3c0-.4.2-.6.6-.6h1c.4,0,.6-.2.6-.6v-1.8h0Z"/>
    <path class="cls-6" d="M236.1,220.8c0,3-.4,5.2-1.3,6.5-.9,1.4-2.2,2.1-4.1,2.1s-3.2-.7-4.1-2.1c-.9-1.4-1.3-3.6-1.3-6.5s.4-5.2,1.3-6.5c.9-1.4,2.2-2.1,4.1-2.1s3.2.7,4.1,2.1c.9,1.4,1.3,3.6,1.3,6.5ZM230.7,214.8c-.9,0-1.6.5-2,1.4s-.6,2.4-.6,4.6.2,3.6.6,4.6c.4.9,1.1,1.4,2,1.4s1.6-.5,2-1.4.6-2.5.6-4.6-.2-3.6-.6-4.6c-.4-.9-1.1-1.4-2-1.4ZM239.4,211.5c0-.4.2-.6.6-.6h1.5c.4,0,.6.2.6.6v20c0,.4-.2.6-.6.6h-1.5c-.4,0-.6-.2-.6-.6v-20Z"/>
    <path class="cls-6" d="M252.2,214.7c0,.6,0,1.2.3,1.8.2.6.4,1,.8,1.4.3.4.7.7,1.2.9.4.2.9.3,1.5.3s.6.2.6.6v1.3c0,.4-.2.6-.6.6-.6,0-1.2,0-1.8-.3-.5-.2-1-.4-1.5-.8-.4-.3-.8-.7-1.1-1.1s-.5-.9-.7-1.3c-.2.5-.4.9-.7,1.3s-.7.8-1.1,1.1c-.4.3-.9.6-1.5.8-.5.2-1.1.3-1.8.3s-.6-.2-.6-.6v-1.3c0-.4.2-.6.6-.6s1-.1,1.5-.3c.4-.2.8-.5,1.2-.9.3-.4.6-.9.8-1.4.2-.6.3-1.1.3-1.8v-2.6c0-.4.2-.6.6-.6h1.5c.4,0,.6.2.6.6v2.6h-.1ZM246.9,228c0-3,2.5-4.6,7.6-4.6s7.6,1.5,7.6,4.6-2.5,4.6-7.6,4.6-7.6-1.5-7.6-4.6ZM249.6,228c0,.3,0,.6.2.9.2.2.4.5.8.6.4.2.9.3,1.5.4.6,0,1.4.1,2.3.1s1.7,0,2.3-.1c.6,0,1.1-.2,1.5-.4s.6-.4.8-.6.2-.5.2-.9,0-.6-.2-.9c-.2-.2-.4-.5-.8-.6-.4-.2-.9-.3-1.5-.4-.6,0-1.4-.1-2.3-.1s-1.7,0-2.3.1c-.6,0-1.1.2-1.5.4s-.6.4-.8.6c-.2.2-.2.5-.2.9ZM261.6,221.7c0,.4-.2.6-.6.6h-1.5c-.4,0-.6-.2-.6-.6v-10.1c0-.4.2-.6.6-.6h1.5c.4,0,.6.2.6.6v3.9c.2-.3.5-.5,1-.5h1.4c.4,0,.6.2.6.6v1.3c0,.4-.2.6-.6.6h-1.6c-.6,0-.8.3-.8.8v3.4Z"/>
    <path class="cls-6" d="M278.1,227.8c.4,0,.6,0,.6.5v1.4c0,.4-.2.6-.6.6-.8.1-1.8.2-2.8.3h-6.4c-.9,0-1.8-.1-2.6-.3-.4,0-.6-.3-.6-.6v-1.4c0-.4.2-.6.6-.5.8.1,1.7.2,2.6.3h6.4c1.1,0,2-.1,2.8-.3ZM266.6,218.1c0-1,.1-1.9.4-2.7s.6-1.5,1.1-2c.5-.6,1-1,1.7-1.3s1.4-.5,2.2-.5,1.6.2,2.2.5c.7.3,1.2.7,1.7,1.3s.8,1.2,1.1,2c.2.8.4,1.7.4,2.7s-.1,1.9-.4,2.7-.6,1.5-1.1,2c-.5.6-1,1-1.7,1.3s-1.4.5-2.2.5-1.6-.2-2.2-.5c-.7-.3-1.2-.7-1.7-1.3s-.8-1.2-1.1-2c-.3-.8-.4-1.7-.4-2.7ZM272,222.1c.8,0,1.5-.4,1.9-1.1.5-.7.7-1.7.7-2.8s-.2-2.1-.7-2.8-1.1-1.1-1.9-1.1-1.5.4-1.9,1.1c-.5.7-.7,1.7-.7,2.8s.2,2.1.7,2.8,1.1,1.1,1.9,1.1ZM282.9,231.5c0,.4-.2.6-.6.6h-1.5c-.4,0-.6-.2-.6-.6v-20c0-.4.2-.6.6-.6h1.5c.4,0,.6.2.6.6v20Z"/>
    <path class="cls-6" d="M295.9,221.7c-.9,0-1.5-.2-2-.6-.5-.4-.7-1-.8-1.8l-.4-7.2c0-.2,0-.3.1-.5.1-.1.3-.2.5-.2h1.5c.4,0,.7.2.7.6v1.8h4.9v-1.8c.1-.4.3-.6.7-.6h1.5c.2,0,.4,0,.5.2.1.1.2.3.1.5l-.4,7.2c0,.8-.3,1.4-.8,1.8-.5.4-1.1.6-2,.6h-4.3.2ZM294.4,228c0-3,2.6-4.6,7.8-4.6s7.8,1.5,7.8,4.6-2.6,4.6-7.8,4.6-7.8-1.5-7.8-4.6ZM295.9,218.4c0,.5.3.7.8.7h2.8c.5,0,.8-.2.8-.7v-2.1h-4.5v2.1h.1ZM297.1,228c0,.3,0,.6.3.9.2.2.5.5.9.6.4.2.9.3,1.6.4.6,0,1.4.1,2.4.1s1.7,0,2.4-.1c.6,0,1.2-.2,1.6-.4s.7-.4.9-.6c.2-.2.3-.5.3-.9s0-.6-.3-.9c-.2-.2-.5-.5-.9-.6-.4-.2-.9-.3-1.6-.4-.6,0-1.4-.1-2.4-.1s-1.7,0-2.4.1c-.6,0-1.2.2-1.6.4s-.7.4-.9.6c-.2.2-.3.5-.3.9ZM306.8,219.8c-.2.3-.5.5-1,.5h-1.1c-.4,0-.6-.2-.6-.6v-1.3c0-.4.2-.6.6-.6h1.4c.2,0,.4,0,.5-.2,0-.1.1-.3.1-.5v-2.2c-.2.3-.5.5-1,.5h-1.1c-.4,0-.6-.2-.6-.6v-1.3c0-.4.2-.6.6-.6h1.4c.2,0,.4,0,.5-.2,0-.1.1-.3.1-.5v-.7c0-.4.2-.6.6-.6h1.5c.4,0,.6.2.6.6v10.1c0,.4-.2.6-.6.6h-1.5c-.4,0-.6-.2-.6-.6v-1.8h.2Z"/>
    <path class="cls-6" d="M323.3,216.8c0,.8-.1,1.6-.4,2.3-.2.7-.6,1.3-1.1,1.8s-1,.9-1.7,1.1c-.6.3-1.4.4-2.2.4s-1.5-.1-2.2-.4c-.6-.3-1.2-.6-1.7-1.1s-.8-1.1-1.1-1.8c-.2-.7-.4-1.5-.4-2.3s.1-1.6.4-2.3c.2-.7.6-1.3,1-1.8s1-.9,1.7-1.1c.6-.3,1.4-.4,2.2-.4s1.5.1,2.2.4c.6.3,1.2.6,1.7,1.1s.8,1.1,1.1,1.8c.2.7.4,1.5.4,2.3h.1ZM329.3,231.7c0,.4-.3.6-.7.6h-1.4c-.2,0-.4,0-.5-.2-.1-.1-.2-.3-.1-.5v-3.1c0-.8-.2-1.3-.5-1.6s-.9-.4-1.7-.4c-1.7,0-3.3,0-4.8.1-1.5,0-3,.2-4.5.3-.4,0-.6-.1-.6-.6v-1.3c0-.4.2-.6.6-.6,1.3-.1,2.7-.2,4.3-.3s3.3-.1,5.3-.1,2.9.3,3.6.9,1.1,1.6,1.1,2.9v3.8h0ZM320.5,216.8c0-.9-.2-1.7-.7-2.2-.4-.6-1.1-.8-1.8-.8s-1.4.3-1.8.8c-.4.6-.7,1.3-.7,2.2s.2,1.7.7,2.3c.4.6,1.1.8,1.8.8s1.4-.3,1.8-.8c.4-.6.7-1.3.7-2.3ZM329.5,221.7c0,.4-.2.6-.6.6h-1.5c-.4,0-.6-.2-.6-.6v-1.5c-.2.3-.5.5-1,.5h-1.3c-.4,0-.6-.2-.6-.6v-1.3c0-.4.2-.6.6-.6h1.7c.2,0,.4,0,.5-.2,0-.1.1-.3.1-.5v-2.3c-.2.3-.5.5-1,.5h-1.3c-.4,0-.6-.2-.6-.6v-1.3c0-.4.2-.6.6-.6h1.7c.2,0,.4,0,.5-.2,0-.1.1-.3.1-.5v-.9c0-.4.2-.6.6-.6h1.5c.4,0,.6.2.6.6v10.1h0Z"/>
    <path class="cls-6" d="M351.3,227.8c.4,0,.6,0,.6.5v1.4c0,.4-.2.6-.6.6-.8.1-1.8.2-2.8.3h-6.4c-.9,0-1.8-.1-2.6-.3-.4,0-.6-.3-.6-.6v-1.4c0-.4.2-.6.6-.5.8.1,1.7.2,2.6.3h6.4c1.1,0,2-.1,2.8-.3ZM339.8,218.1c0-1,.1-1.9.4-2.7s.6-1.5,1.1-2c.5-.6,1-1,1.7-1.3s1.4-.5,2.2-.5,1.6.2,2.2.5c.7.3,1.2.7,1.7,1.3s.8,1.2,1.1,2c.2.8.4,1.7.4,2.7s-.1,1.9-.4,2.7-.6,1.5-1.1,2c-.5.6-1,1-1.7,1.3s-1.4.5-2.2.5-1.6-.2-2.2-.5c-.7-.3-1.2-.7-1.7-1.3s-.8-1.2-1.1-2c-.3-.8-.4-1.7-.4-2.7ZM345.2,222.1c.8,0,1.5-.4,1.9-1.1.5-.7.7-1.7.7-2.8s-.2-2.1-.7-2.8-1.1-1.1-1.9-1.1-1.5.4-1.9,1.1c-.5.7-.7,1.7-.7,2.8s.2,2.1.7,2.8,1.1,1.1,1.9,1.1ZM356.1,231.5c0,.4-.2.6-.6.6h-1.5c-.4,0-.6-.2-.6-.6v-20c0-.4.2-.6.6-.6h1.5c.4,0,.6.2.6.6v20Z"/>
    <path class="cls-6" d="M370.8,226.3c-.6,0-.8.2-.8.7v3.6c0,.4-.2.6-.6.6h-1.5c-.4,0-.6-.2-.6-.6v-3.3c0-.2,0-.5.2-.6.1-.2.3-.3.5-.4h-4.2c-.7,0-1.3,0-1.9-.1s-1.1,0-1.6-.1c-.4,0-.6-.3-.6-.7v-1.3c0-.4.2-.6.6-.6,1.2.1,2.4.2,3.8.3,1.4,0,2.9.1,4.6.1h4.8c1.5,0,2.7-.2,3.6-.3.4,0,.6.1.6.6v1.3c0,.4-.2.6-.6.7-.4,0-.9,0-1.4.1-.5,0-1,0-1.6.1h-3.3,0ZM375.7,219c.4,0,.6.2.6.6v1.3c0,.4-.2.6-.6.6h-11.6c-.8,0-1.4-.2-1.8-.6-.4-.4-.7-.9-.7-1.6v-6.8c0-.8.4-1.1,1.1-1.1h9.8c1.2,0,2.1.2,2.7.7s.8,1.3.8,2.4-.2,1.9-.6,2.7-.9,1.3-1.6,1.7h2,0ZM370.7,219c.8,0,1.3-.3,1.8-.9s.7-1.3.7-2.3-.1-1.2-.4-1.5-.8-.4-1.5-.4h-6.3c-.4,0-.6.2-.6.6v3.7c0,.2,0,.4.3.6s.4.2.7.2h5.5-.2Z"/>
    <path class="cls-6" d="M398,220.4c.4,0,.6.1.6.5v1c0,.2,0,.3-.1.4l-.4.2c-.4,0-1,0-1.6.1h-12.4c-1.4,0-2.4,0-3.1-.2-.3,0-.5-.2-.5-.6v-1.1c0-.4.2-.5.6-.5h13.6c1.4,0,2.6,0,3.5-.2l-.2.4ZM397.2,232.1c-.4,0-.9,0-1.4.2-.5,0-1.1,0-1.7.1h-3.4c-1.8,0-3.2,0-4.4-.1-1.1,0-2-.2-2.6-.4s-1.1-.5-1.3-.9-.3-.8-.3-1.4.1-1,.3-1.4c.2-.4.6-.6,1.1-.9.5-.2,1.3-.4,2.2-.4s2.1-.1,3.6-.1h3.9c.4,0,.8,0,.9-.2.2,0,.3-.2.3-.5s0-.4-.3-.5-.5-.1-.9-.1h-8c-.9,0-1.7,0-2.3.1-.3,0-.5-.2-.5-.5v-1c0-.2,0-.3.1-.4,0,0,.2-.1.4-.1.9,0,1.9,0,2.9-.1,1.1,0,2.1,0,3.2-.1h5.8c.8,0,1.4.2,1.7.4.3.2.5.6.5,1.2s-.1.9-.4,1.2-.7.6-1.1.8h.9c.3,0,.5.1.5.3v1.1c0,.4-.2.6-.5.5h-10.9c-.4,0-.5.1-.6.2,0,0-.1.2-.1.4s0,.3.2.4c.1,0,.4.2.8.2s1,0,1.8.1h6.3c.6,0,1.1,0,1.7-.1.5,0,1-.1,1.5-.2.4,0,.5.1.6.5v1.4l-.4.2h-.1ZM396.2,216.4h-10.4c-.3,0-.5.1-.6.2s-.1.2-.1.3,0,.3.2.3.4.2.7.2h7.7c.6,0,1,0,1.6-.1.5,0,1,0,1.4-.1.3,0,.5,0,.5.4v1.4l-.4.2c-.4,0-.9,0-1.4.1-.5,0-1,0-1.6.1s-1.1,0-1.6,0h-5.7c-1.1,0-1.9-.2-2.5-.4s-1-.5-1.2-.8-.3-.8-.3-1.3.1-.9.3-1.3c.2-.3.6-.6,1.1-.8s1.2-.3,2.1-.4c.9,0,2-.1,3.3-.1h3.6c.4,0,.8,0,.9-.1.2,0,.3-.2.3-.5s0-.3-.3-.4-.5-.1-.9-.1h-10.1c-.1,0,0-.2,0-.4v-1.4s.2-.1.4-.1c.9,0,1.8,0,2.8-.1h8.4c.8,0,1.4.1,1.7.3.3.2.5.5.5,1.1s-.1.8-.4,1.1-.7.6-1.1.7h.9c.3,0,.4.1.4.4v1c0,.3-.1.4-.4.4l.2.2Z"/>
    <path class="cls-6" d="M418.5,220.8c0,3-.4,5.2-1.3,6.5s-2.2,2.1-4.1,2.1-3.2-.7-4.1-2.1c-.9-1.4-1.3-3.6-1.3-6.5s.4-5.2,1.3-6.5c.9-1.4,2.2-2.1,4.1-2.1s3.2.7,4.1,2.1,1.3,3.6,1.3,6.5ZM413.1,214.8c-.9,0-1.6.5-2,1.4s-.6,2.4-.6,4.6.2,3.6.6,4.6c.4.9,1.1,1.4,2,1.4s1.6-.5,2-1.4.6-2.5.6-4.6-.2-3.6-.6-4.6-1.1-1.4-2-1.4ZM421.8,211.5c0-.4.2-.6.6-.6h1.5c.4,0,.6.2.6.6v20c0,.4-.2.6-.6.6h-1.5c-.4,0-.6-.2-.6-.6v-20Z"/>
    <path class="cls-6" d="M433.5,211.3c0,.3.2.4.5.4h2.8c.4,0,.6.2.6.6v1.3c0,.4-.2.6-.6.6h-9.2c-.4,0-.6-.2-.6-.6v-1.3c0-.4.2-.6.6-.6h3.6c-.2-.1-.4-.3-.4-.6v-.6c0-.4.2-.6.6-.6h1.4c.4,0,.6.2.6.6v.8h.1ZM427.7,218.9c0-1.2.4-2,1.2-2.7.8-.6,1.9-.9,3.3-.9s2.5.3,3.3.9c.8.6,1.2,1.5,1.2,2.7s-.4,2-1.2,2.7c-.8.6-1.9.9-3.3.9s-2.5-.3-3.3-.9c-.8-.6-1.2-1.5-1.2-2.7ZM432.1,220c1.2,0,1.8-.4,1.8-1.2s-.6-1.2-1.8-1.2-1.8.4-1.8,1.2.6,1.2,1.8,1.2ZM430.3,228.2c0-2.9,2.7-4.3,8.2-4.3s8.2,1.4,8.2,4.3-2.7,4.3-8.2,4.3-8.2-1.4-8.2-4.3ZM433.1,228.2c0,.3,0,.5.3.8s.5.4.9.6c.4.2,1,.3,1.7.4s1.5.1,2.6.1,1.9,0,2.6-.1c.7,0,1.3-.2,1.7-.4.4-.2.7-.3.9-.6.2-.2.3-.5.3-.8s0-.5-.3-.8c-.2-.2-.5-.4-.9-.6-.4-.2-1-.3-1.7-.4-.7,0-1.5-.1-2.6-.1s-1.9,0-2.6.1-1.3.2-1.7.4c-.4.2-.7.3-.9.6-.2.2-.3.5-.3.8ZM446.3,222.2c0,.4-.2.6-.6.6h-1.4c-.4,0-.6-.2-.6-.6v-4.4h-1.3c-.3,0-.5,0-.6.1-.1,0-.2.3-.2.5v3.3c0,.4-.2.6-.6.6h-1.4c-.4,0-.6-.2-.6-.6v-10c0-.4.2-.6.6-.6h1.4c.4,0,.6.2.6.6v3.9c.2-.3.4-.4.8-.4h1.2v-3.7c0-.4.2-.6.6-.6h1.4c.4,0,.6.2.6.6v10.7h.1Z"/>
    <path class="cls-6" d="M460.2,211.7c.4,0,.6.2.6.6v1.3c0,.4-.2.6-.6.6h-10.7c-.4,0-.6-.2-.6-.6v-1.3c0-.4.2-.6.6-.6h4.4c-.2-.1-.4-.3-.4-.6v-.6c0-.4.2-.6.6-.6h1.6c.4,0,.6.2.6.6v.8c0,.3.2.4.5.4h3.4ZM449.6,219.4c0-2.6,1.7-4,5.2-4s5.2,1.3,5.2,4-1.7,4-5.2,4-5.2-1.3-5.2-4ZM451.6,225.9c0-.4.3-.6.7-.6h1.4c.2,0,.4,0,.5.2.1.1.2.3.1.5v1.9c0,.7.2,1.3.6,1.6.4.4,1,.6,1.8.6h4.9c.7,0,1.4,0,2-.1.6,0,1.3-.1,2-.2.4,0,.6.1.6.6v1.3c.1.4,0,.6-.5.6-1.2.1-2.5.2-4,.3s-3.1.1-5,.1-3-.4-3.9-1.2-1.4-1.9-1.4-3.3,0-1.6.1-2.2h0ZM454.9,221c.9,0,1.5-.1,1.9-.4.4-.2.6-.6.6-1.1s-.2-.9-.6-1.1c-.4-.2-1-.4-1.9-.4s-1.5.1-1.9.4c-.4.2-.6.6-.6,1.1s.2.9.6,1.1c.4.2,1,.4,1.9.4ZM465.7,225c0,.4-.2.6-.6.6h-1.5c-.4,0-.6-.2-.6-.6v-13.5c0-.4.2-.6.6-.6h1.5c.4,0,.6.2.6.6v5.6c.2-.3.5-.5,1-.5h1.4c.4,0,.6.2.6.6v1.3c0,.4-.2.6-.6.6h-1.6c-.6,0-.8.3-.8.8v5.1h0Z"/>
    <path class="cls-6" d="M482.5,224.6c-.2.6-.4,1.1-.7,1.6-.3.5-.7.9-1.2,1.3-.4.4-.9.7-1.5,1s-1.1.4-1.7.5c-.4,0-.6-.1-.6-.6v-1.4c0-.4.2-.6.6-.6s1-.3,1.4-.6.8-.7,1.2-1.2.6-1.1.8-1.7c.2-.6.3-1.3.3-2v-7.7c0-.4.2-.6.6-.6h1.5c.4,0,.6.2.6.6v7.7c0,.7,0,1.4.3,2,.2.6.5,1.2.8,1.7s.7.9,1.2,1.2c.4.3.9.5,1.4.6.4,0,.6.3.6.6v1.4c0,.4-.2.6-.6.6-.6,0-1.1-.2-1.7-.5s-1-.6-1.5-1c-.4-.4-.8-.8-1.2-1.3-.3-.5-.6-1-.7-1.6h.1ZM493.3,231.5c0,.4-.2.6-.6.6h-1.5c-.4,0-.6-.2-.6-.6v-20c0-.4.2-.6.6-.6h1.5c.4,0,.6.2.6.6v8.2c.2-.3.5-.5,1-.5h1.4c.4,0,.6.2.6.6v1.4c0,.4-.2.6-.6.6h-1.6c-.6,0-.8.3-.8.8v8.8h0Z"/>
    <path class="cls-6" d="M508.9,221.6c-.3.1-.6.2-1.1.3-.4.1-.9.2-1.3.3-.5,0-1,.1-1.5.2h-1.5c-1,0-1.9,0-2.6-.2s-1.3-.3-1.7-.6c-.4-.3-.8-.6-1-1.1-.2-.4-.3-1-.3-1.6s.1-1.2.3-1.6.6-.8,1-1.1c.5-.3,1.1-.5,1.9-.6s1.7-.2,2.8-.2,1.8-.3,1.8-.8-.1-.5-.4-.6-.8-.2-1.5-.2h-1.9c-.8,0-1.7.1-2.7.3-.4,0-.6-.1-.6-.5v-1.3c0-.2,0-.3.1-.4s.2-.2.5-.2c.8-.1,1.6-.2,2.4-.3s1.7,0,2.7,0c1.5,0,2.6.2,3.2.5s.9.9.9,1.6-.4,1.7-1.3,2.1h.6c.4,0,.5.2.5.5v1.2c0,.4-.2.5-.5.5h-5c-.5,0-.9,0-1.2.2-.3,0-.5.2-.7.3-.1.1-.2.3-.2.5s0,.3.2.5c.1.1.3.2.5.3s.6.1,1,.2h1.6c.6,0,1.3,0,2-.2.8-.1,1.5-.3,2.1-.6h.3c.2,0,.4.1.4.4l.3,1.3v.5c0,.1-.2.2-.4.3h.3ZM514.1,229.8c.4,0,.6.2.6.6v1.3c0,.4-.2.6-.6.6h-11.9c-.8,0-1.4-.2-1.8-.6-.4-.4-.7-.9-.7-1.6v-5c0-.8.4-1.1,1.1-1.1h10.6c.9,0,1.7.2,2.2.6.5.4.8,1,.8,1.9s-.2,1.3-.6,1.9c-.4.6-.8,1-1.4,1.3h1.7ZM509.4,229.8c.6,0,1.1-.2,1.5-.6s.6-.8.6-1.4-.1-.8-.4-1-.7-.3-1.2-.3h-6.9c-.4,0-.6.2-.6.6v1.9c0,.2,0,.4.3.6.2.1.4.2.7.2h6ZM514.1,221.7c0,.4-.2.6-.6.6h-1.5c-.4,0-.6-.2-.6-.6v-10.1c0-.4.2-.6.6-.6h1.5c.4,0,.6.2.6.6v3.9c.2-.3.5-.5,1-.5h1.4c.4,0,.6.2.6.6v1.3c0,.4-.2.6-.6.6h-1.6c-.6,0-.8.3-.8.8v3.4h0Z"/>
    <path class="cls-6" d="M528.1,221.8c0,2.6-.5,4.5-1.3,5.7s-1.9,1.8-3.5,1.8-2.8-.7-3.6-2.1-1.2-3.6-1.2-6.5.4-5.2,1.2-6.5,2-2.1,3.6-2.1,2.6.6,3.4,1.7c.8,1.1,1.2,2.9,1.4,5.3h2c.3,0,.5,0,.6-.1,0,0,.2-.3.2-.5v-6.8c0-.4.2-.6.6-.6h1.4c.4,0,.6.2.6.6v19.8c0,.4-.2.6-.6.6h-1.4c-.4,0-.6-.2-.6-.6v-10.2c0,.1-.2.2-.3.3,0,0-.3.1-.5.1h-2ZM523.3,214.8c-.7,0-1.3.5-1.6,1.4s-.5,2.5-.5,4.5.2,3.6.5,4.6c.3.9.9,1.4,1.6,1.4s1.3-.5,1.6-1.4.5-2.5.5-4.6-.2-3.6-.5-4.6c-.3-.9-.9-1.4-1.6-1.4h0ZM537.6,231.6c0,.4-.2.6-.6.6h-1.4c-.4,0-.6-.2-.6-.6v-20.1c0-.4.2-.6.6-.6h1.4c.4,0,.6.2.6.6v20.1Z"/>
    <path class="cls-6" d="M548.9,228.3c0,.2,0,.4-.2.5,0,0-.2.1-.5.1h-1.4c-.4,0-.6-.2-.6-.6.3-1.7.5-3.6.7-5.5s.2-3.7.2-5.5,0-.8,0-1.1-.2-.5-.3-.7c-.2-.2-.4-.3-.6-.4-.3,0-.6-.1-1-.1-.8,0-1.5,0-2.2.1-.7,0-1.3.2-1.9.3-.2,0-.3,0-.5-.1,0-.1-.2-.3-.2-.5v-1.4c0-.4.2-.6.6-.6.7-.1,1.4-.2,2.2-.3s1.6-.1,2.3-.1,1.4,0,2,.2c.5.2,1,.4,1.3.8s.6.9.7,1.5c0,.6.2,1.3.2,2.2v2.2h2.2c.3,0,.5,0,.6-.1,0,0,.2-.3.2-.5v-6.8c0-.4.2-.6.6-.6h1.4c.4,0,.6.2.6.6v19.8c0,.4-.2.6-.6.6h-1.4c-.4,0-.6-.2-.6-.6v-10.2c0,.1-.2.2-.3.3,0,0-.3.1-.5.1h-2.2c0,1.1-.2,2.2-.3,3.3s-.3,2.2-.4,3.2h0ZM559.6,231.6c0,.4-.2.6-.6.6h-1.4c-.4,0-.6-.2-.6-.6v-20.1c0-.4.2-.6.6-.6h1.4c.4,0,.6.2.6.6v20.1Z"/>
    <path class="cls-6" d="M572.3,220.7c.7-.6,1.5-1,2.5-1.3.9-.3,1.9-.4,2.8-.4s1.6.1,2.3.3c.8.2,1.4.6,2,1.1s1.1,1.1,1.4,1.8.5,1.6.5,2.6-.2,1.8-.5,2.6-.8,1.5-1.4,2c-.6.6-1.3,1-2.2,1.3s-1.8.5-2.9.5c-2.5,0-4.4-.7-5.6-2.2-1.2-1.5-1.8-3.8-1.8-7,0-6.6,2.5-9.8,7.6-9.8s1.6.1,2.3.3,1.3.5,1.9.9c.5.4,1,.9,1.3,1.4s.5,1.2.6,1.8c0,.2,0,.3,0,.5,0,.1-.3.2-.5.2h-1.3c-.4,0-.6-.2-.8-.5-.3-.6-.7-1.1-1.3-1.5-.6-.3-1.3-.5-2.1-.5s-1.5.1-2,.3-1.1.6-1.5,1.1-.7,1.1-.9,1.9-.4,1.7-.4,2.7h.1ZM581.2,224.8c0-.6,0-1.1-.3-1.5s-.5-.8-.9-1.1-.8-.5-1.3-.6-1-.2-1.5-.2-.9,0-1.4.1-.9.2-1.4.4c-.4.2-.8.4-1.2.6-.4.3-.7.6-.9.9,0,.9.2,1.7.4,2.4s.5,1.2.9,1.6.8.7,1.4.9c.6.2,1.2.3,2,.3,1.3,0,2.3-.3,3.1-1,.7-.7,1.1-1.6,1.1-2.8h0Z"/>
    <path class="cls-6" d="M594.5,228.3c0,.2,0,.4-.2.5,0,0-.2.1-.5.1h-1.4c-.4,0-.6-.2-.6-.6.3-1.7.5-3.6.7-5.5s.2-3.7.2-5.5,0-.8,0-1.1-.2-.5-.3-.7c-.2-.2-.4-.3-.6-.4-.3,0-.6-.1-1-.1-.8,0-1.5,0-2.2.1-.7,0-1.3.2-1.9.3-.2,0-.3,0-.5-.1,0-.1-.2-.3-.2-.5v-1.4c0-.4.2-.6.6-.6.7-.1,1.4-.2,2.2-.3s1.6-.1,2.3-.1,1.4,0,2,.2c.5.2,1,.4,1.3.8s.6.9.7,1.5c0,.6.2,1.3.2,2.2,0,1.9,0,3.8-.2,5.7,0,1.9-.4,3.7-.7,5.5h.1ZM605.1,231.6c0,.4-.2.6-.6.6h-1.4c-.4,0-.6-.2-.6-.6v-9.6h-1.4c-.3,0-.5,0-.6.1s-.2.3-.2.5v9c0,.4-.2.6-.6.6h-1.4c-.4,0-.6-.2-.6-.6v-19.8c0-.4.2-.6.6-.6h1.4c.4,0,.6.2.6.6v8c.2-.3.4-.4.8-.4h1.3v-7.8c0-.4.2-.6.6-.6h1.4c.4,0,.6.2.6.6v20.1h.1Z"/>
    <path class="cls-6" d="M625.1,232.1c-.4,0-.9.1-1.5.2s-1.2,0-1.8.1h-3.5c-1.8,0-3.2,0-4.4-.1-1.2,0-2.1-.2-2.7-.5-.7-.2-1.1-.5-1.4-.9-.3-.4-.4-.9-.4-1.5s0-1.1.4-1.4.7-.7,1.2-.9c.6-.2,1.4-.4,2.3-.5,1,0,2.2-.1,3.6-.1h4.3c.4,0,.8,0,.9-.2.2,0,.3-.3.3-.5s0-.5-.3-.6c-.2-.1-.5-.2-.9-.2h-5.5c-1,0-2,0-3,.1s-1.8,0-2.5.1c-.4,0-.5-.2-.5-.6v-1.1c0-.4.2-.5.5-.6h2.3v-.7c0-.3,0-.6.4-.6h-5.1c-.2,0-.4,0-.4-.2s0-.2,0-.4v-1.2c0-.2,0-.3,0-.4,0,0,.2-.1.5,0,.8,0,1.7.1,2.7.1h9.7c.4,0,.6.2.6.5v1.2c0,.2,0,.4,0,.4,0,0-.2.1-.4.2h-4.3c-.8,0-.7.2-.7.6v.8h7.5c.8,0,1.4.2,1.7.4.3.3.5.7.5,1.3s0,.9-.4,1.3c-.3.4-.7.6-1.1.8h.9c.3,0,.5.2.5.5v1c0,.4-.2.6-.5.5h-10c-.6,0-1.1,0-1.5.1-.4,0-.6.1-.7.3,0,.1-.2.3-.2.4s0,.4.3.5c.2.1.5.2,1,.3h8.4c.6,0,1.2,0,1.8-.1s1.1-.1,1.5-.2c.4,0,.5.1.6.5v1.1c0,.4,0,.6-.4.6l-.2-.4ZM608.7,214.9c0-1.2.4-2.1,1.3-2.8s2.2-.9,3.9-.9,3.1.3,3.9.9c.9.6,1.3,1.5,1.3,2.8s-.4,2.1-1.3,2.8c-.9.6-2.2.9-3.9.9s-3.1-.3-3.9-.9-1.3-1.5-1.3-2.8ZM614,216.3c1.7,0,2.5-.5,2.5-1.5s-.8-1.5-2.5-1.5-2.5.5-2.5,1.5.8,1.5,2.5,1.5ZM622.2,211.5c0-.4.2-.6.6-.6h1.5c.4,0,.6.2.6.6v9.9c0,.4-.2.6-.6.6h-1.5c-.4,0-.6-.2-.6-.6v-5.4c-.2.3-.5.4-.9.4h-.7c-.4,0-.6-.2-.6-.6v-1.3c0-.4.2-.6.6-.6h1c.4,0,.6-.2.6-.6v-1.8h0Z"/>
    <path class="cls-6" d="M640,227.8c.4,0,.6,0,.6.5v1.4c0,.4-.2.6-.6.6-.8.1-1.8.2-2.8.3h-6.4c-.9,0-1.8-.1-2.6-.3-.4,0-.6-.3-.6-.6v-1.4c0-.4.2-.6.6-.5.8.1,1.7.2,2.6.3h6.4c1.1,0,2-.1,2.8-.3ZM628.6,218.1c0-1,0-1.9.4-2.7s.6-1.5,1.1-2c.5-.6,1-1,1.7-1.3s1.4-.5,2.2-.5,1.6.2,2.2.5,1.2.7,1.7,1.3.8,1.2,1.1,2,.4,1.7.4,2.7,0,1.9-.4,2.7c-.3.8-.6,1.5-1.1,2-.5.6-1,1-1.7,1.3s-1.4.5-2.2.5-1.6-.2-2.2-.5c-.7-.3-1.2-.7-1.7-1.3s-.8-1.2-1.1-2-.4-1.7-.4-2.7ZM634,222.1c.8,0,1.5-.4,1.9-1.1.5-.7.7-1.7.7-2.8s-.2-2.1-.7-2.8-1.1-1.1-1.9-1.1-1.5.4-1.9,1.1-.7,1.7-.7,2.8.2,2.1.7,2.8,1.1,1.1,1.9,1.1ZM644.9,231.5c0,.4-.2.6-.6.6h-1.5c-.4,0-.6-.2-.6-.6v-20c0-.4.2-.6.6-.6h1.5c.4,0,.6.2.6.6v20Z"/>
  </g>
  <g>
    <path class="cls-6" d="M183.1,255.4c0-.9-.2-1.5-.6-1.9-.4-.4-1.1-.6-2.1-.6h-4.2c-.7,0-1.3,0-2,.1-.7,0-1.4.1-2.1.2-.4,0-.6-.1-.6-.6v-1.3c0-.4.2-.6.6-.6,1.3-.1,2.7-.2,4.1-.3,1.4,0,2.9-.1,4.5-.1,3.4,0,5.2,1.4,5.2,4.3s0,1.4-.1,2.1c0,.7-.2,1.3-.3,1.8h1.5c.4,0,.6.1.6.6v1.3c0,.4-.2.6-.6.6s-.9,0-1.5.1h-4.9c-.4,0-.6.2-.6.6v1.6h1.7c.8,0,1.6,0,2.1.2.6.1,1.1.3,1.4.6s.6.7.8,1.2.2,1.1.2,1.8c0,1.6,0,2.7-.1,3.5,0,.4-.3.6-.7.6h-1.4c-.2,0-.4,0-.5-.2-.1-.1-.2-.3-.1-.5v-2.8c0-.8-.2-1.3-.5-1.6-.3-.3-.8-.4-1.5-.4-3.2,0-6.4.1-9.7.4-.4,0-.6-.2-.6-.6v-1.3c0-.4.2-.6.6-.6,1,0,1.9-.2,2.7-.2s1.8-.1,2.7-.1v-1.7c0-.3,0-.5.3-.6h-7.4c-.4,0-.6-.2-.6-.6v-1.3c0-.4.2-.6.6-.6.8,0,1.8.1,3.1.2s3.1,0,5.3,0h4c.2-.5.3-1.1.4-1.7,0-.6.1-1,.1-1.5h.2Z"/>
    <path class="cls-6" d="M192.8,261.7c-.8,0-1.4-.2-1.8-.6s-.7-.9-.7-1.6v-8c0-.8.4-1.1,1.1-1.1h6c1.1,0,1.9.3,2.5,1s.9,1.7.9,2.9-.2,2-.6,2.9c-.4.9-1,1.5-1.7,1.9h1.6c.4,0,.6.2.6.6v1.3c0,.4-.2.6-.6.6h-7.3ZM192.3,264.4c0-.4.3-.6.7-.6h1.4c.2,0,.4,0,.5.2s.2.3.1.5v2.4c0,.7.2,1.3.6,1.6.4.4,1,.6,1.8.6h5.3c.7,0,1.4,0,2.1-.1.7,0,1.4-.1,2.1-.2.4,0,.6.1.6.6v1.3c.1.4,0,.6-.5.6-1.2.1-2.6.2-4.1.3s-3.3.1-5.3.1-3-.4-3.9-1.2c-.9-.8-1.4-1.9-1.4-3.3v-1.5c0-.5,0-.9.1-1.2h-.1ZM195.5,259.1c.8,0,1.4-.3,1.9-1,.5-.6.7-1.5.7-2.5s-.2-1.5-.5-2-.8-.7-1.5-.7h-2.4c-.4,0-.6.2-.6.6v4.8c0,.2,0,.4.3.6s.4.2.7.2h1.5,0ZM204,250.5c0-.4.2-.6.6-.6h1.5c.4,0,.6.2.6.6v13.5c0,.4-.2.6-.6.6h-1.5c-.4,0-.6-.2-.6-.6v-13.5Z"/>
    <path class="cls-6" d="M220.5,256c0,.9-.1,1.7-.4,2.4-.2.7-.6,1.3-1.1,1.8s-1,.9-1.7,1.2c-.6.3-1.4.4-2.2.4s-1.5-.1-2.2-.4c-.6-.3-1.2-.7-1.7-1.2s-.8-1.1-1.1-1.8c-.2-.7-.4-1.5-.4-2.4s.1-1.7.4-2.4c.2-.7.6-1.3,1.1-1.8s1-.9,1.7-1.2c.6-.3,1.4-.4,2.2-.4s1.5.1,2.2.4c.6.3,1.2.7,1.7,1.2s.8,1.1,1.1,1.8c.2.7.4,1.5.4,2.4ZM212.2,264.4c0-.4.3-.6.7-.6h1.4c.2,0,.4,0,.5.2s.2.3.1.5v2.4c0,.7.2,1.3.6,1.6.4.4,1,.6,1.8.6h5.3c.7,0,1.4,0,2.1-.1.7,0,1.4-.1,2.1-.2.4,0,.6.1.6.6v1.3c.1.4,0,.6-.5.6-1.2.1-2.6.2-4.1.3s-3.3.1-5.3.1-3-.4-3.9-1.2c-.9-.8-1.4-1.9-1.4-3.3v-1.5c0-.5,0-.9.1-1.2h-.1ZM217.8,256c0-1-.2-1.8-.7-2.4-.4-.6-1.1-.9-1.8-.9s-1.4.3-1.8.9c-.4.6-.7,1.4-.7,2.4s.2,1.8.7,2.4c.4.6,1.1.9,1.8.9s1.4-.3,1.8-.9c.4-.6.7-1.4.7-2.4ZM226.7,264c0,.4-.2.6-.6.6h-1.5c-.4,0-.6-.2-.6-.6v-4.5c-.2.3-.5.5-1,.5h-1.3c-.4,0-.6-.2-.6-.6v-1.3c0-.4.2-.6.6-.6h1.7c.2,0,.4,0,.5-.2,0-.1.1-.3.1-.5v-2.5c-.2.3-.5.5-1,.5h-1.3c-.4,0-.6-.2-.6-.6v-1.3c0-.4.2-.6.6-.6h1.7c.2,0,.4,0,.5-.2,0-.1.1-.3.1-.5v-1c0-.4.2-.6.6-.6h1.5c.4,0,.6.2.6.6v13.5h0Z"/>
    <path class="cls-6" d="M230.8,258h12.3c.2-.5.3-1,.4-1.5.1-.5.2-1,.2-1.4,0-.8-.2-1.4-.6-1.8s-1.1-.6-2-.6h-4.3c-.7,0-1.4,0-2,.1-.7,0-1.4.1-2.1.2-.4,0-.6-.1-.6-.6v-1.3c0-.4.2-.6.6-.6,1.3-.1,2.7-.2,4.2-.3,1.5,0,3-.1,4.6-.1,3.4,0,5,1.4,5,4.2s0,1.2-.1,1.9c0,.6-.2,1.2-.3,1.7h1.5c.4,0,.6.1.6.6v1.3c0,.4-.2.6-.6.6s-1,0-1.6.1-1.3,0-2.1,0h-10.2c-1.4,0-2.4,0-3.1-.2-.4,0-.6-.3-.6-.6v-1.3c0-.4.2-.6.6-.6l.2.2ZM246.6,268.8c.4,0,.6.2.6.6v1.3c0,.4-.2.6-.6.6h-12.4c-.8,0-1.4-.2-1.8-.5-.4-.4-.6-.9-.6-1.5v-5.5c0-.7.4-1.1,1.1-1.1h11.4c.8,0,1.5.2,2,.7s.7,1.1.7,2-.2,1.4-.5,2-.8,1.1-1.3,1.4h1.5,0ZM242.3,268.8c.5,0,1-.2,1.3-.6s.5-.9.5-1.6-.1-.8-.3-1.1-.5-.4-1-.4h-7.7c-.4,0-.6.2-.6.6v2.4c0,.5.3.7.9.7h6.9Z"/>
    <path class="cls-6" d="M267.4,267.3c0,.4-.3.6-.7.6h-1.5c-.2,0-.4,0-.5-.2-.1-.1-.1-.3-.1-.5.3-1.7.6-3.5.7-5.2s.2-3.5.2-5.2-.2-1.7-.6-2.1c-.4-.4-1-.6-1.9-.6s-1.7,0-2.4.1-1.5.2-2.3.3c-.2,0-.3,0-.5-.1-.1-.1-.2-.3-.2-.5v-1.4c0-.4.2-.6.6-.6.9-.1,1.8-.2,2.7-.3.9,0,1.7-.1,2.6-.1s1.6,0,2.2.3,1.1.5,1.5.9.7.9.8,1.6c.2.6.3,1.4.3,2.4,0,1.9,0,3.7-.2,5.5-.1,1.7-.4,3.5-.7,5.3v-.2ZM273.8,270.5c0,.4-.2.6-.6.6h-1.5c-.4,0-.6-.2-.6-.6v-20c0-.4.2-.6.6-.6h1.5c.4,0,.6.2.6.6v8.2c.2-.3.5-.5,1-.5h1.4c.4,0,.6.2.6.6v1.4c0,.4-.2.6-.6.6h-1.6c-.6,0-.8.3-.8.8v8.8h0Z"/>
    <path class="cls-6" d="M289.2,255.4c0,.8-.1,1.5-.4,2.1s-.6,1.2-1.1,1.7-1,.8-1.7,1.1-1.4.4-2.2.4-1.6-.1-2.2-.4-1.2-.6-1.7-1.1-.8-1-1.1-1.7c-.3-.6-.4-1.4-.4-2.1s.1-1.5.4-2.2c.2-.6.6-1.2,1.1-1.6.5-.5,1-.8,1.7-1.1s1.4-.4,2.2-.4,1.6.1,2.2.4,1.2.6,1.7,1.1.8,1,1.1,1.6c.3.6.4,1.4.4,2.2ZM283,271.3c-.8,0-1.5-.2-2-.6s-.7-1-.7-1.7l-.3-6.2c0-.4.2-.6.6-.6h1.5c.4,0,.6.2.6.6v1.1h9.6v-1.1c0-.4.3-.6.7-.6h1.5c.4,0,.7.2.6.6l-.3,6.2c0,.7-.3,1.3-.7,1.7-.5.4-1.1.6-2,.6h-9.1ZM286.4,255.4c0-.8-.2-1.5-.7-2s-1.1-.7-1.9-.7-1.5.2-1.9.7c-.5.5-.7,1.1-.7,2s.2,1.5.7,2,1.1.7,1.9.7,1.5-.2,1.9-.7c.5-.5.7-1.2.7-2ZM283,267.9c0,.6.4.9,1.1.9h6.9c.7,0,1.1-.3,1.1-.9v-1.5h-9.2v1.5h.1ZM292.4,250.5c0-.4.2-.6.6-.6h1.5c.4,0,.6.2.6.6v9.4c0,.4-.2.6-.6.6h-1.5c-.4,0-.6-.2-.6-.6v-9.4Z"/>
    <path class="cls-6" d="M314.9,267.3c0,.4-.3.6-.7.6h-1.5c-.2,0-.4,0-.5-.2-.1-.1-.1-.3-.1-.5.3-1.7.6-3.5.7-5.2s.2-3.5.2-5.2-.2-1.7-.6-2.1c-.4-.4-1-.6-1.9-.6s-1.7,0-2.4.1-1.5.2-2.3.3c-.2,0-.3,0-.5-.1-.1-.1-.2-.3-.2-.5v-1.4c0-.4.2-.6.6-.6.9-.1,1.8-.2,2.7-.3.9,0,1.7-.1,2.6-.1s1.6,0,2.2.3,1.1.5,1.5.9.7.9.8,1.6c.2.6.3,1.4.3,2.4,0,1.9,0,3.7-.2,5.5-.1,1.7-.4,3.5-.7,5.3v-.2ZM319,250.5c0-.4.2-.6.6-.6h1.5c.4,0,.6.2.6.6v20c0,.4-.2.6-.6.6h-1.5c-.4,0-.6-.2-.6-.6v-20Z"/>
    <path class="cls-6" d="M332,261c.1-.5.2-1,.3-1.5.1-.5.2-1.1.3-1.6,0-.5.2-1,.2-1.5v-1.3c0-1.3-.7-2-2-2h-3c-.4,0-.7,0-1.1.1-.3,0-.7.1-1.1.2-.2,0-.3,0-.5-.1-.1-.1-.2-.3-.2-.5v-1.4c0-.4.2-.6.6-.6.9-.1,1.8-.2,2.6-.3.8,0,1.7-.1,2.7-.1,1.6,0,2.8.4,3.5,1.1.7.7,1.1,1.9,1.1,3.6s0,.8,0,1.3-.1,1-.2,1.5c0,.5-.2,1.1-.3,1.6s-.2,1.1-.3,1.5c0,.2-.1.4-.3.5-.1,0-.3.1-.5.1h-1.5c-.2,0-.4,0-.5-.2,0-.1-.1-.3,0-.5h.2ZM327.1,264.4c0-.4.3-.6.7-.6h1.4c.2,0,.4,0,.5.2s.2.3.1.5v2.4c0,.7.2,1.3.6,1.6.4.4,1,.6,1.8.6h4.9c.7,0,1.4,0,2-.1.6,0,1.3-.1,2-.2.4,0,.6.1.6.6v1.3c.1.4,0,.6-.5.6-1.2.1-2.5.2-4,.3-1.5,0-3.1.1-5,.1s-3-.4-3.9-1.2c-.9-.8-1.4-1.9-1.4-3.3v-1.5c0-.5,0-.9.1-1.2h0ZM341.2,264c0,.4-.2.6-.6.6h-1.5c-.4,0-.6-.2-.6-.6v-13.5c0-.4.2-.6.6-.6h1.5c.4,0,.6.2.6.6v5.6c.2-.3.5-.5,1-.5h1.4c.4,0,.6.2.6.6v1.3c0,.4-.2.6-.6.6h-1.6c-.6,0-.8.3-.8.8v5.1Z"/>
    <path class="cls-6" d="M363.6,258.4c.4,0,.6.1.6.5v1.2c0,.4-.2.6-.6.6s-1,0-1.6.1h-12.4c-1.4,0-2.4,0-3.1-.2-.4,0-.6-.2-.6-.6v-1.2c0-.4.2-.6.6-.5h13.4c1.4,0,2.5,0,3.5-.2l.2.3ZM362.8,271.1c-.4,0-.9.1-1.5.2s-1.1,0-1.7.1-1.2,0-1.7,0h-1.5c-1.7,0-3.2,0-4.3-.1-1.1,0-2-.2-2.6-.5-.6-.2-1.1-.5-1.3-.9-.2-.4-.4-.9-.4-1.5s.1-1.1.3-1.4c.2-.4.6-.7,1.2-.9.6-.2,1.3-.4,2.2-.5.9,0,2.1-.1,3.5-.1h3.9c.4,0,.8,0,.9-.2.2,0,.3-.3.3-.5s0-.5-.3-.6c-.2-.1-.5-.2-.9-.2h-5c-1,0-1.9,0-2.8.1-.9,0-1.7,0-2.4.1-.4,0-.5-.2-.5-.6v-1.1c0-.4.2-.5.5-.6.9,0,1.9-.1,3-.2h9c.8,0,1.4.2,1.7.5.3.3.5.7.5,1.3s-.1.9-.4,1.3-.7.6-1.1.8h.9c.3,0,.5.2.5.5v1c0,.4-.2.6-.5.5h-9.5c-.6,0-1,0-1.4.1s-.5.1-.6.3c0,.1-.1.3-.1.4s0,.4.2.5.4.2.9.3h8c.6,0,1.1,0,1.7-.1.6,0,1.1-.1,1.5-.2.4,0,.5.1.6.5v1.1c0,.4,0,.6-.4.6h-.4ZM347.9,253.9c0-.7.1-1.2.4-1.7s.7-.9,1.3-1.2c.6-.3,1.4-.5,2.3-.6,1-.1,2.1-.2,3.4-.2s2.5,0,3.4.2c1,.1,1.7.4,2.3.6s1,.7,1.3,1.2.4,1,.4,1.7-.1,1.2-.4,1.7c-.3.5-.7.9-1.3,1.2s-1.4.5-2.3.6c-1,.1-2.1.2-3.4.2s-2.5,0-3.4-.2c-1-.1-1.7-.4-2.3-.6-.6-.3-1-.7-1.3-1.2-.3-.5-.4-1-.4-1.7ZM350.6,253.9c0,.3,0,.5.2.7s.4.3.8.5c.4.1.9.2,1.5.3h4.6c.6,0,1.1-.1,1.5-.3.4-.1.6-.3.8-.5s.2-.4.2-.7,0-.5-.2-.7-.4-.3-.8-.5c-.4-.1-.9-.2-1.5-.3h-4.6c-.6,0-1.1.1-1.5.3-.4.1-.6.3-.8.5s-.2.4-.2.7Z"/>
    <path class="cls-6" d="M385,265.3c-.6,0-.8.2-.8.7v3.6c0,.4-.2.6-.6.6h-1.5c-.4,0-.6-.2-.6-.6v-3.3c0-.2,0-.5.2-.6.1-.2.3-.3.5-.4h-4.2c-.7,0-1.3,0-1.9-.1s-1.1,0-1.6-.1c-.4,0-.6-.3-.6-.7v-1.3c0-.4.2-.6.6-.6,1.2.1,2.4.2,3.8.3,1.4,0,2.9.1,4.6.1h4.8c1.5,0,2.7-.2,3.6-.3.4,0,.6.1.6.6v1.3c0,.4-.2.6-.6.7-.4,0-.9,0-1.4.1-.5,0-1,0-1.6.1h-3.3,0ZM389.3,250.9c.4,0,.6.2.6.6v1.4c0,.4-.2.6-.6.6h-5c0,.6.2,1.2.5,1.7s.7,1,1.1,1.4c.5.4,1,.7,1.7.9.6.2,1.3.3,2.1.3s.6.2.6.6v1.5c0,.3,0,.5-.3.5h-.6c-.7,0-1.4,0-2.1-.3-.7-.2-1.3-.4-1.9-.8-.6-.3-1.1-.8-1.5-1.2-.4-.5-.8-1-1.1-1.6-.3.6-.6,1.1-1.1,1.6-.4.5-1,.9-1.5,1.2-.6.3-1.2.6-1.9.8-.7.2-1.4.3-2.1.3s-.4,0-.6,0-.3-.2-.3-.5v-1.5c0-.4.2-.6.6-.6.8,0,1.4-.1,2.1-.3.6-.2,1.2-.5,1.7-.9s.9-.8,1.1-1.4c.3-.5.5-1.1.5-1.7h-5c-.4,0-.6-.2-.6-.6v-1.4c0-.4.2-.6.6-.6h5.5c-.3-.1-.4-.4-.4-.8v-.8c0-.4.2-.6.6-.6h1.6c.4,0,.6.2.6.6v1.2c0,.3.2.5.5.5h4.6Z"/>
    <path class="cls-6" d="M404.2,267.3c0,.4-.3.6-.7.6h-1.5c-.2,0-.4,0-.5-.2-.1-.1-.1-.3-.1-.5.3-1.7.6-3.5.7-5.2s.2-3.5.2-5.2-.2-1.7-.6-2.1c-.4-.4-1-.6-1.9-.6s-1.7,0-2.4.1-1.5.2-2.3.3c-.2,0-.3,0-.5-.1-.1-.1-.2-.3-.2-.5v-1.4c0-.4.2-.6.6-.6.9-.1,1.8-.2,2.7-.3.9,0,1.7-.1,2.6-.1s1.6,0,2.2.3c.6.2,1.1.5,1.5.9s.7.9.8,1.6c.2.6.3,1.4.3,2.4,0,1.9,0,3.7-.2,5.5-.1,1.7-.4,3.5-.7,5.3v-.2ZM410.6,270.5c0,.4-.2.6-.6.6h-1.5c-.4,0-.6-.2-.6-.6v-20c0-.4.2-.6.6-.6h1.5c.4,0,.6.2.6.6v8.2c.2-.3.5-.5,1-.5h1.4c.4,0,.6.2.6.6v1.4c0,.4-.2.6-.6.6h-1.6c-.6,0-.8.3-.8.8v8.8h0Z"/>
    <path class="cls-6" d="M416.1,268.9c-.4,0-.6-.3-.6-.6v-1.3c0-.4.2-.6.6-.6s.9,0,1.5.1c.6,0,1.2,0,1.9.1.7,0,1.4,0,2.1.1s1.4,0,2.1,0c-.2,0-.3-.2-.4-.4-.1-.2-.2-.4-.2-.6v-2.5c-1.1,0-2-.2-2.7-.3-.7-.2-1.3-.4-1.8-.7s-.8-.7-.9-1.2c-.2-.5-.3-1-.3-1.7s.1-1.3.3-1.8c.2-.5.6-.8,1.2-1.1s1.3-.5,2.2-.6,2-.2,3.4-.2h3c1,0,1.6-.4,1.6-1.2s-.1-.7-.3-.8c-.2-.2-.6-.2-1.2-.2h-4.8c-.8,0-1.5,0-2.3.1-.7,0-1.4.1-2,.2-.4,0-.6-.1-.6-.5v-1.4c0-.3.2-.5.5-.6,1-.1,2.2-.3,3.6-.3s2.8-.1,4.2-.1h2.9c1.8,0,2.7.8,2.7,2.3s-.2,1.2-.5,1.7-.8.8-1.3,1h1.1c.4,0,.5.2.5.5v1.2c0,.4-.2.6-.5.6h-8.6c-.6,0-1,.1-1.3.2s-.6.2-.7.4c-.1.2-.2.4-.2.6s0,.5.2.6c.2.2.4.3.9.4.4,0,1,.2,1.7.2h2.9c1.2,0,1.9,0,2.9-.1,1,0,1.9-.2,2.8-.3.3,0,.5.1.6.5l.2,1.4v.4c0,.1-.2.2-.4.2-1,.1-2,.3-3.1.3s-2.1.1-2.9.1h0v2.7c0,.5.3.7.8.7h3.3c.6,0,1.1,0,1.6-.1s1,0,1.4-.1c.4,0,.6.1.6.6v1.3c0,.4-.2.6-.6.6s-.9.1-1.5.2c-.6,0-1.3,0-2,.1h-5c-3.8,0-6.6-.1-8.4-.4l-.2.3Z"/>
    <path class="cls-6" d="M453.6,256c0,.9-.1,1.7-.4,2.4-.3.7-.6,1.3-1.1,1.8s-1,.9-1.7,1.2c-.7.3-1.4.4-2.2.4s-1.6-.1-2.2-.4c-.7-.3-1.2-.7-1.7-1.2s-.8-1.1-1.1-1.8c-.3-.7-.4-1.5-.4-2.4s.1-1.7.4-2.4.6-1.3,1.1-1.8,1-.9,1.7-1.2,1.4-.4,2.2-.4,1.6.1,2.2.4c.7.3,1.2.7,1.7,1.2s.8,1.1,1.1,1.8.4,1.5.4,2.4ZM445,264.4c0-.4.3-.6.7-.6h1.4c.2,0,.4,0,.5.2.1.1.2.3.1.5v2.4c0,.7.2,1.3.6,1.6.4.4,1,.6,1.8.6h5.3c.7,0,1.4,0,2.1-.1.7,0,1.4-.1,2.1-.2.4,0,.6.1.6.6v1.3c.1.4,0,.6-.5.6-1.2.1-2.6.2-4.1.3-1.6,0-3.3.1-5.3.1s-3-.4-3.9-1.2c-.9-.8-1.4-1.9-1.4-3.3v-1.5c0-.5,0-.9.1-1.2h-.1ZM450.8,256c0-1-.2-1.8-.7-2.4-.5-.6-1.1-.9-1.9-.9s-1.5.3-1.9.9c-.5.6-.7,1.4-.7,2.4s.2,1.8.7,2.4,1.1.9,1.9.9,1.5-.3,1.9-.9c.5-.6.7-1.4.7-2.4ZM456.8,250.5c0-.4.2-.6.6-.6h1.5c.4,0,.6.2.6.6v13.5c0,.4-.2.6-.6.6h-1.5c-.4,0-.6-.2-.6-.6v-13.5Z"/>
    <path class="cls-6" d="M463.3,253c-.4,0-.6-.2-.6-.6v-1.3c0-.4.2-.6.6-.6h9.8c.4,0,.6.2.6.6v1.3c0,.4-.2.6-.6.6h-3.6v.7c0,.6,0,1.2.3,1.8.2.6.4,1,.8,1.4.3.4.7.7,1.2.9.4.2.9.3,1.5.3s.6.2.6.6v1.3c0,.4-.2.6-.6.6-.6,0-1.2,0-1.8-.3-.5-.2-1-.4-1.5-.8-.4-.3-.8-.7-1.1-1.1-.3-.4-.5-.9-.7-1.3-.2.5-.4.9-.7,1.3-.3.4-.7.8-1.1,1.1-.4.3-.9.6-1.5.8-.5.2-1.1.3-1.8.3s-.6-.2-.6-.6v-1.3c0-.4.2-.6.6-.6s1-.1,1.5-.3c.4-.2.8-.5,1.2-.9.3-.4.6-.9.8-1.4.2-.6.3-1.1.3-1.8v-.7h-3.6ZM464.3,267c0-3,2.6-4.6,7.8-4.6s7.8,1.5,7.8,4.6-2.6,4.6-7.8,4.6-7.8-1.5-7.8-4.6ZM467,267c0,.3,0,.6.3.9s.5.5.9.6c.4.2.9.3,1.6.4.6,0,1.4.1,2.4.1s1.7,0,2.4-.1c.6,0,1.2-.2,1.6-.4.4-.2.7-.4.9-.6.2-.2.3-.5.3-.9s0-.6-.3-.9-.5-.5-.9-.6c-.4-.2-.9-.3-1.6-.4-.6,0-1.4-.1-2.4-.1s-1.7,0-2.4.1c-.6,0-1.2.2-1.6.4-.4.2-.7.4-.9.6-.2.2-.3.5-.3.9ZM476.7,250.5c0-.4.2-.6.6-.6h1.5c.4,0,.6.2.6.6v10.1c0,.4-.2.6-.6.6h-1.5c-.4,0-.6-.2-.6-.6v-4.4c-.2.3-.5.5-1,.5h-1.7c-.4,0-.6-.2-.6-.6v-1.3c0-.4.2-.6.6-.6h1.8c.6,0,.8-.3.8-.8v-3h.1Z"/>
    <path class="cls-6" d="M491.8,251.9c.4,0,.6.2.6.6v1.4c0,.4-.2.6-.6.6h-9.3c-.4,0-.6-.2-.6-.6v-1.4c0-.4.2-.6.6-.6h3.7c-.2-.1-.4-.3-.4-.6v-1.3c0-.4.2-.6.6-.6h1.4c.4,0,.6.2.6.6v1.5c0,.3.2.4.5.4h2.9ZM491.7,262c0,1.9-.4,3.4-1.2,4.4-.8,1-1.9,1.5-3.4,1.5s-2.6-.5-3.3-1.5c-.8-1-1.2-2.5-1.2-4.4s.4-3.4,1.2-4.4c.8-1,1.9-1.5,3.3-1.5s2.6.5,3.4,1.5,1.2,2.5,1.2,4.4ZM487.1,258.7c-1.2,0-1.9,1.1-1.9,3.3s.6,3.3,1.9,3.3,1.9-1.1,1.9-3.3-.6-3.3-1.9-3.3ZM501.5,270.6c0,.4-.2.6-.6.6h-1.4c-.4,0-.6-.2-.6-.6v-9.6h-1.4c-.3,0-.5,0-.6.1s-.2.3-.2.5v9c0,.4-.2.6-.6.6h-1.4c-.4,0-.6-.2-.6-.6v-19.8c0-.4.2-.6.6-.6h1.4c.4,0,.6.2.6.6v8c.2-.3.4-.4.8-.4h1.3v-7.8c0-.4.2-.6.6-.6h1.4c.4,0,.6.2.6.6v20.1h.1Z"/>
    <path class="cls-6" d="M522.9,265.3c-.6,0-.8.2-.8.7v3.6c0,.4-.2.6-.6.6h-1.5c-.4,0-.6-.2-.6-.6v-3.3c0-.2,0-.5.2-.6,0-.2.3-.3.5-.4h-4.2c-.7,0-1.3,0-1.9-.1s-1.1,0-1.6-.1c-.4,0-.6-.3-.6-.7v-1.3c0-.4.2-.6.6-.6,1.2.1,2.4.2,3.8.3,1.4,0,2.9.1,4.6.1h4.8c1.5,0,2.7-.2,3.6-.3.4,0,.6.1.6.6v1.3c0,.4-.2.6-.6.7-.4,0-.9,0-1.4.1s-1,0-1.6.1h-3.3ZM527.2,250.4c.4,0,.6.2.6.6v1.4c0,.4-.2.6-.6.6h-5.1c0,.7.2,1.3.4,1.9.3.6.6,1.1,1.1,1.5s1,.7,1.7,1,1.4.4,2.2.4.6.2.6.6v1.5c0,.3,0,.5-.3.5h-.6c-.7,0-1.4,0-2.1-.3-.7-.2-1.3-.4-1.9-.8-.6-.3-1.1-.8-1.5-1.2-.4-.5-.8-1-1.1-1.6-.3.6-.6,1.1-1.1,1.6-.4.5-1,.9-1.5,1.2-.6.3-1.2.6-1.9.8-.7.2-1.4.3-2.1.3s-.4,0-.6,0-.3-.2-.3-.5v-1.5c0-.4.2-.6.6-.6.8,0,1.5-.1,2.2-.4s1.2-.6,1.7-1,.9-.9,1.1-1.5.4-1.2.4-1.9h-5.1c-.4,0-.6-.2-.6-.6v-1.4c0-.4.2-.6.6-.6h13.2Z"/>
    <path class="cls-6" d="M533.1,260.6h13.3c1.4,0,2.5,0,3.4-.2.4,0,.6.1.6.6v1.3c0,.4-.2.6-.6.6s-1,0-1.6.1-1.3,0-2.1,0h-10.2c-1.4,0-2.4,0-3.1-.2-.4,0-.6-.3-.6-.6v-1.3c0-.4.2-.6.6-.6l.3.3ZM534.3,265.4c0-.4.3-.6.7-.6h1.5c.2,0,.4,0,.5.2,0,.1,0,.3,0,.5,0,.3,0,.5,0,.8v.9c0,1.3.8,1.9,2.3,1.9h5.4c.8,0,1.5,0,2.2-.1.7,0,1.4-.1,2.1-.2.4,0,.6.1.6.6v1.3c0,.4,0,.6-.5.6-1.2.1-2.6.2-4.3.3s-3.5.1-5.5.1-2.9-.4-3.8-1.1c-.9-.8-1.3-1.8-1.3-3.2s0-.7,0-1,0-.6,0-.8v-.2ZM534.6,251c0-.4.3-.6.7-.6h1.5c.2,0,.4,0,.5.2,0,.1,0,.3,0,.5v3.7c0,1.3.8,1.9,2.3,1.9h4.9c.7,0,1.4,0,2.1-.1.7,0,1.4-.1,2.1-.2.4,0,.6.1.6.6v1.3c0,.4,0,.6-.5.6-1.2.1-2.6.2-4.2.3-1.6,0-3.3.1-5.2.1s-2.8-.4-3.6-1.1c-.8-.8-1.2-1.8-1.2-3.2s0-.5,0-.9v-3h0Z"/>
    <path class="cls-6" d="M560.1,254c-.4,0-.6-.2-.6-.6v-1.4c0-.4.2-.6.6-.6h8.7c.4,0,.6.2.6.6v1.4c0,.4-.2.6-.6.6h-3v6.4c0,1.5.3,2.6.9,3.4.6.8,1.3,1.3,2.3,1.4.2,0,.4,0,.5.2,0,0,0,.2,0,.4v1.4c0,.4-.2.6-.6.6-1.1-.1-2-.5-2.8-1.1s-1.4-1.4-1.7-2.5c-.3,1-.9,1.8-1.7,2.5-.8.6-1.7,1-2.8,1.1-.4,0-.6-.2-.6-.6v-1.4c0-.2,0-.4,0-.4,0,0,.2-.1.5-.2.9-.1,1.7-.6,2.3-1.4s.9-2,.9-3.4v-6.4h-3.1ZM571.1,258.1c.3,0,.5,0,.6-.1,0,0,.2-.3.2-.5v-6.7c0-.4.2-.6.6-.6h1.4c.4,0,.6.2.6.6v19.8c0,.4-.2.6-.6.6h-1.4c-.4,0-.6-.2-.6-.6v-10.3c0,.1-.2.2-.3.3,0,0-.3.1-.5.1h-2.1c-.4,0-.6-.2-.6-.6v-1.4c0-.4.2-.6.6-.6h2.2-.1ZM578.6,270.6c0,.4-.2.6-.6.6h-1.4c-.4,0-.6-.2-.6-.6v-20.1c0-.4.2-.6.6-.6h1.4c.4,0,.6.2.6.6v20.1Z"/>
    <path class="cls-6" d="M582.6,268.9c-.4,0-.6-.3-.6-.6v-1.3c0-.4.2-.6.6-.6s.9,0,1.5.1c.6,0,1.2,0,1.9.1.7,0,1.4,0,2.1.1s1.4,0,2.1,0c-.2,0-.3-.2-.4-.4,0-.2-.2-.4-.2-.6v-2.8c-1.2,0-2.1-.3-2.9-.6-.8-.3-1.4-.7-1.9-1.2s-.9-1.1-1.1-1.8c-.2-.7-.3-1.4-.3-2.3s0-1.8.4-2.5c.3-.7.8-1.3,1.4-1.8s1.5-.9,2.6-1.2,2.4-.4,3.9-.4.7,0,1,0h2.5c.5,0,1.2,0,1.9.1.4,0,.6.2.6.6v1.4c0,.4-.2.6-.6.6-.7,0-1.3,0-1.9-.1h-3.7c-1.1,0-2,0-2.7.2-.7.1-1.3.3-1.7.6s-.7.6-.9,1-.3.9-.3,1.5,0,1.1.2,1.5c0,.4.4.8.8,1s.9.5,1.5.6,1.4.2,2.4.2,2,0,3.1-.1c1.1,0,2.2-.2,3.3-.3.4,0,.6.1.6.6v1.4c0,.4,0,.6-.5.6-1.1.1-2,.2-2.8.3-.8,0-1.6.1-2.3.1v3c0,.5.3.7.8.7h3.3c.6,0,1.1,0,1.6-.1s1,0,1.4-.1c.4,0,.6.1.6.6v1.3c0,.4-.2.6-.6.6s-.9.1-1.5.2c-.6,0-1.3,0-2,.1h-5c-3.8,0-6.6-.1-8.4-.4h.2Z"/>
    <path class="cls-6" d="M603.5,260.6h13.3c1.4,0,2.5,0,3.4-.2.4,0,.6.1.6.6v1.3c0,.4-.2.6-.6.6s-1,0-1.6.1-1.3,0-2.1,0h-10.2c-1.4,0-2.4,0-3.1-.2-.4,0-.6-.3-.6-.6v-1.3c0-.4.2-.6.6-.6l.3.3ZM604.7,265.4c0-.4.3-.6.7-.6h1.5c.2,0,.4,0,.5.2,0,.1,0,.3,0,.5,0,.3,0,.5,0,.8v.9c0,1.3.8,1.9,2.3,1.9h5.4c.8,0,1.5,0,2.2-.1.7,0,1.4-.1,2.1-.2.4,0,.6.1.6.6v1.3c0,.4,0,.6-.5.6-1.2.1-2.6.2-4.3.3s-3.5.1-5.5.1-2.9-.4-3.8-1.1c-.9-.8-1.3-1.8-1.3-3.2s0-.7,0-1,0-.6,0-.8v-.2ZM605.1,251c0-.4.3-.6.7-.6h1.5c.2,0,.4,0,.5.2,0,.1,0,.3,0,.5v3.7c0,1.3.8,1.9,2.3,1.9h4.9c.7,0,1.4,0,2.1-.1.7,0,1.4-.1,2.1-.2.4,0,.6.1.6.6v1.3c0,.4,0,.6-.5.6-1.2.1-2.6.2-4.2.3-1.6,0-3.3.1-5.2.1s-2.8-.4-3.6-1.1c-.8-.8-1.2-1.8-1.2-3.2s0-.5,0-.9v-3h0Z"/>
    <path class="cls-6" d="M623.6,255.6c0-2,.5-3.5,1.6-4.6s2.7-1.6,4.8-1.6,3.7.5,4.8,1.5,1.6,2.4,1.6,4.3,0,1.5-.4,2.2-.6,1.2-1,1.8c-.4.5-.8,1-1.3,1.5s-.9,1-1.3,1.5c-.4.5-.7,1-1,1.6-.3.5-.4,1.2-.4,1.8v1c0,.4-.2.6-.6.6h-1.5c-.4,0-.6-.2-.6-.6v-1.5c0-.7,0-1.4.4-2,.3-.6.6-1.2,1-1.7s.8-1,1.3-1.5.9-.9,1.3-1.4c.4-.5.7-1,1-1.5s.4-1,.4-1.6c0-2.3-1.2-3.4-3.7-3.4s-3.7,1.2-3.7,3.6v.5c0,.4-.2.6-.6.6h-1.5c-.4,0-.6-.2-.6-.6v-.5h0ZM628.4,269c0-.4.2-.6.6-.6h1.5c.4,0,.6.2.6.6v2.2c0,.4-.2.6-.6.6h-1.5c-.4,0-.6-.2-.6-.6v-2.2Z"/>
  </g>
  <path class="cls-3" d="M367.7,96.1c-.3,1.6-.3,8.9,0,10.8,1.6.3,6.7.3,8.2,0,.3-1.9.3-9.1,0-10.8-1.6-.3-6.7-.3-8.2,0"/>
  <path class="cls-6" d="M381.6,81.4c0,6.7-3.3,11-9.9,11s-9.9-4.4-9.9-11,3.3-11,9.9-11,9.9,4.4,9.9,11M389.7,81.4c0-11.9-8-18.4-18-18.4s-18,6.6-18,18.4,8,18.4,18,18.4,18-6.6,18-18.4"/>
  <path class="cls-1" d="M367.5,99.4c1.4.3,2.8.4,4.3.4s2.9,0,4.3-.4c0-1.5,0-2.7-.2-3.3-1.6-.3-6.7-.3-8.2,0,0,.5-.2,1.8-.2,3.3"/>
  <path class="cls-3" d="M415.6,73.8c-1.9-.3-6.1-.3-7.5,0-.1,1.1-.2,8-.2,14.5-.2,2.8-1,4.5-3,4.5s-3-2.3-3-5.9v-13.1c-1.6-.4-6.4-.4-7.6,0-.1,3.1-.1,8.9-.1,13.5,0,8.4,3.4,12.1,9.4,12.1s3.2-.6,4.5-1.6v1.4c1.6.3,5.8.3,7.5,0,.3-2,.3-23.5,0-25.4"/>
  <path class="cls-3" d="M429.1,99.2c.3-2,.3-23.4,0-25.4-1.6-.3-6-.3-7.5,0-.3,2-.3,23.4,0,25.4,1.4.4,5.7.4,7.5,0"/>
  <path class="cls-1" d="M425.3,71c2.6,0,4.7-2,4.7-4.6s-2.1-4.6-4.7-4.6-4.7,2-4.7,4.6,2.1,4.6,4.7,4.6"/>
  <path class="cls-7" d="M433.6,92.7c0,2.8,0,4.9.2,6.5,3.4.2,15.5.2,18.1,0,.1-1.5.1-5.2,0-6.8h-9.3c1.6-1.8,7.7-9.8,9.2-12,0-2.8,0-5-.2-6.7-4-.3-14-.2-17.1,0-.1,1.5-.1,5.8,0,6.8h8.1c-1.9,2.2-7.8,10.1-9,12.1"/>
  <path class="cls-6" d="M101.9.5c-4.4,0-8,3.6-8,8v19c0,4.4,3.6,8,8,8s8-3.6,8-8V8.5c0-4.4-3.6-8-8-8"/>
  <path class="cls-6" d="M132.9.5c-4.4,0-8,3.6-8,8v19c0,4.4,3.6,8,8,8s8-3.6,8-8V8.5c0-4.4-3.6-8-8-8"/>
  <path class="cls-6" d="M729.9.5c-4.4,0-8,3.6-8,8v19c0,4.4,3.6,8,8,8s8-3.6,8-8V8.5c0-4.4-3.6-8-8-8"/>
  <path class="cls-6" d="M696.9.5c-4.4,0-8,3.6-8,8v19c0,4.4,3.6,8,8,8s8-3.6,8-8V8.5c0-4.4-3.6-8-8-8"/>
  <rect class="cls-4" x="113" y="384" width="89.7" height="89.7" rx="15" ry="15"/>
  <rect class="cls-8" x="113" y="384" width="89.7" height="89.7" rx="15" ry="15"/>
  <rect class="cls-4" x="413" y="384" width="89.7" height="89.7" rx="15" ry="15"/>
  <rect class="cls-8" x="413" y="384" width="89.7" height="89.7" rx="15" ry="15"/>
  <rect class="cls-4" x="213" y="384" width="89.7" height="89.7" rx="15" ry="15"/>
  <rect class="cls-8" x="213" y="384" width="89.7" height="89.7" rx="15" ry="15"/>
  <rect class="cls-4" x="513" y="384" width="89.7" height="89.7" rx="15" ry="15"/>
  <rect class="cls-8" x="513" y="384" width="89.7" height="89.7" rx="15" ry="15"/>
  <rect class="cls-4" x="313" y="384" width="89.7" height="89.7" rx="15" ry="15"/>
  <rect class="cls-8" x="313" y="384" width="89.7" height="89.7" rx="15" ry="15"/>
  <path class="cls-4" d="M628,384h59.7c8.3,0,15,6.7,15,15v59.7c0,8.3-6.7,15-15,15h-59.7c-8.3,0-15-6.7-15-15v-59.7c0-8.3,6.7-15,15-15Z"/>
  <path class="cls-8" d="M628,384h59.7c8.3,0,15,6.7,15,15v59.7c0,8.3-6.7,15-15,15h-59.7c-8.3,0-15-6.7-15-15v-59.7c0-8.3,6.7-15,15-15Z"/>
  <polygon class="cls-2" points="263.4 305 233.4 327.5 263.4 350 553.4 350 583.4 327.5 553.4 305 263.4 305"/>
  <rect class="cls-6" x="280.4" y="318" width="2" height="18.4"/>
  <rect class="cls-6" x="280.4" y="317.9" width="2" height="18.4" transform="translate(-142.5 407.2) rotate(-60)"/>
  <rect class="cls-6" x="272.1" y="326.1" width="18.4" height="2" transform="translate(-125.9 184.5) rotate(-30)"/>
  <rect class="cls-6" x="527.4" y="318" width="2" height="18.4"/>
  <rect class="cls-6" x="527.3" y="317.8" width="2" height="18.4" transform="translate(-19.1 621) rotate(-60)"/>
  <rect class="cls-6" x="519.1" y="326.2" width="18.4" height="2" transform="translate(-92.8 308) rotate(-30)"/>
  <g>
    <path class="cls-6" d="M315.1,319.3c.3,0,.5.2.5.5v1.1c0,.3-.2.5-.5.5h-8.9c-.3,0-.5-.2-.5-.5v-1.1c0-.3.2-.5.5-.5h3.7c-.2-.1-.3-.3-.3-.5v-.5c0-.3.2-.5.5-.5h1.3c.3,0,.5.2.5.5v.7c0,.2.1.4.4.4h2.8ZM306.3,325.7c0-2.2,1.5-3.3,4.4-3.3s4.4,1.1,4.4,3.3-1.5,3.3-4.4,3.3-4.4-1.1-4.4-3.3ZM307.9,331.1c0-.3.3-.5.6-.5h1.2c.2,0,.3,0,.4.2,0,0,.1.2.1.4,0,.2,0,.5,0,.7,0,.2,0,.5,0,.9,0,.6.2,1.1.5,1.4.4.3.8.5,1.5.5.9,0,1.7,0,2.4,0,.7,0,1.4,0,2,0s1.2,0,1.8-.1c.6,0,1.1,0,1.7-.1.3,0,.5.1.5.5v1.1c0,.3,0,.5-.4.5-1,.1-2.2.2-3.5.3s-2.8,0-4.5,0-2.5-.3-3.2-1-1.1-1.6-1.1-2.7,0-1.3.1-1.8ZM310.6,327c.7,0,1.3-.1,1.6-.3.3-.2.5-.5.5-1s-.2-.7-.5-1c-.3-.2-.8-.3-1.6-.3s-1.3.1-1.6.3-.5.5-.5,1,.2.7.5,1c.3.2.8.3,1.6.3ZM317.7,319.2c0-.4.2-.5.5-.5h1.3c.3,0,.5.2.5.5v11.2c0,.4-.2.5-.5.5h-1.3c-.3,0-.5-.2-.5-.5v-11.2Z"/>
    <path class="cls-6" d="M323.5,332.3c1,.1,2,.2,3.2.2,1.1,0,2.4,0,3.8,0s2.8,0,4,0c1.2,0,2.2-.1,3-.2.4,0,.5.1.5.5v1.1c0,.3-.2.5-.5.5-.3,0-.7,0-1.2.1-.5,0-1,0-1.7.1-.6,0-1.3,0-2,0-.7,0-1.4,0-2.2,0-3.2,0-5.5-.1-7-.4-.3,0-.5-.2-.5-.5v-1.1c0-.4.2-.5.5-.5ZM335.8,323.2c.3,0,.4.2.4.5v1.2c0,.3-.2.5-.5.5-1,0-1.9-.1-2.8-.1s-1.8,0-2.7,0-1.3,0-1.8,0c-.5,0-.9.1-1.1.2-.3,0-.5.2-.6.4-.1.2-.2.4-.2.6s0,.5.2.7c.1.2.3.3.6.4.3.1.7.2,1.2.2s1.1,0,1.9,0c1.2,0,2.2,0,3.1,0s1.7-.1,2.4-.2c.3,0,.5.1.5.4v1.2c.1.3,0,.5-.4.5-.4,0-.8,0-1.2.1-.4,0-.9,0-1.3,0-.5,0-1,0-1.5,0-.5,0-1.1,0-1.7,0-1.2,0-2.1,0-2.9-.2-.8-.1-1.4-.3-1.9-.6s-.8-.6-1-1.1-.3-1-.3-1.7.1-1.2.3-1.6c.2-.4.6-.8,1.1-1s1.1-.5,1.9-.6c.8-.1,1.7-.2,2.9-.2s2.2,0,3.1,0c.9,0,1.7,0,2.3.1ZM324.9,321.8c-.3,0-.5-.2-.5-.5v-1.1c0-.3.2-.5.5-.5h10.8c.3,0,.5.2.5.5v1.1c0,.3-.2.5-.5.5h-10.8Z"/>
    <path class="cls-6" d="M345.8,322.2c0-.4.1-.8.4-1.1.3-.3.6-.4,1.1-.4s.8.1,1.1.4c.3.3.4.6.4,1.1s-.1.8-.4,1c-.3.3-.6.4-1.1.4s-.8-.1-1.1-.4c-.3-.3-.4-.6-.4-1ZM345.8,332.5c0-.4.1-.8.4-1.1.3-.3.6-.4,1.1-.4s.8.1,1.1.4c.3.3.4.6.4,1.1s-.1.8-.4,1c-.3.3-.6.4-1.1.4s-.8-.1-1.1-.4c-.3-.3-.4-.6-.4-1Z"/>
    <path class="cls-6" d="M365.1,323.7c0,.7-.1,1.4-.3,2s-.5,1.1-.9,1.5-.9.7-1.4,1-1.1.3-1.8.3-1.3-.1-1.8-.3c-.5-.2-1-.6-1.4-1-.4-.4-.7-.9-.9-1.5s-.3-1.3-.3-2,.1-1.4.3-2c.2-.6.5-1.1.9-1.5.4-.4.8-.8,1.4-1,.5-.2,1.1-.3,1.8-.3s1.3.1,1.8.3c.5.2,1,.6,1.4,1s.7.9.9,1.5c.2.6.3,1.3.3,2ZM358.1,330.7c0-.3.3-.5.6-.5h1.2c.2,0,.3,0,.4.2,0,0,.1.2.1.4,0,.2,0,.5,0,.9,0,.3,0,.7,0,1.1,0,.6.2,1.1.5,1.4.4.3.8.5,1.5.5.9,0,1.7,0,2.4,0,.7,0,1.4,0,2,0s1.2,0,1.8-.1c.6,0,1.1,0,1.7-.1.3,0,.5.1.5.5v1.1c0,.3,0,.5-.4.5-1,.1-2.1.2-3.4.3-1.3,0-2.8,0-4.5,0s-2.5-.3-3.2-1c-.8-.7-1.2-1.6-1.2-2.7s0-.8,0-1.2c0-.4,0-.7,0-1ZM362.8,323.7c0-.8-.2-1.5-.6-2s-.9-.8-1.5-.8-1.2.2-1.5.8c-.4.5-.5,1.2-.5,2s.2,1.5.5,2c.4.5.9.8,1.5.8s1.2-.3,1.5-.8c.4-.5.6-1.2.6-2ZM370.2,330.4c0,.4-.2.5-.5.5h-1.3c-.3,0-.5-.2-.5-.5v-3.8c-.2.3-.4.4-.8.4h-1.1c-.3,0-.5-.2-.5-.5v-1.1c0-.3.2-.5.5-.5h1.4c.2,0,.3,0,.4-.1s.1-.2.1-.4v-2.1c-.2.3-.4.4-.8.4h-1.1c-.3,0-.5-.2-.5-.5v-1.1c0-.3.2-.5.5-.5h1.4c.2,0,.3,0,.4-.1s.1-.2.1-.4v-.9c0-.4.2-.5.5-.5h1.3c.3,0,.5.2.5.5v11.2Z"/>
    <path class="cls-6" d="M373.7,325.4c.5,0,1,0,1.5,0,.6,0,1.1,0,1.8,0,.6,0,1.2,0,1.9,0,.6,0,1.2,0,1.8,0h1.8c.5,0,1.1,0,1.6,0,.1-.4.3-.8.3-1.2,0-.4.1-.8.1-1.2,0-.7-.2-1.2-.5-1.5s-.9-.5-1.6-.5-1.2,0-1.8,0c-.6,0-1.2,0-1.7,0-.6,0-1.1,0-1.7.1-.6,0-1.2.1-1.8.2-.3,0-.5-.1-.5-.5v-1.1c0-.3.2-.5.5-.5,1.1-.1,2.2-.2,3.5-.2,1.2,0,2.5,0,3.8,0,2.8,0,4.2,1.2,4.2,3.5s0,1,0,1.5c0,.5-.2,1-.3,1.4.2,0,.5,0,.7,0,.2,0,.4,0,.6,0,.4,0,.5.1.5.5v1.1c0,.3-.2.5-.5.5-.4,0-.8,0-1.3,0-.5,0-1.1,0-1.7,0-.6,0-1.3,0-2,0h-2.1c-1.8,0-3.3,0-4.4,0-1.1,0-2,0-2.6-.1-.3,0-.5-.2-.5-.5v-1.1c0-.3.2-.5.5-.5ZM386.8,334.3c.3,0,.5.2.5.5v1.1c0,.3-.2.5-.5.5h-10.3c-.6,0-1.1-.1-1.5-.4-.4-.3-.5-.7-.5-1.3v-4.6c0-.6.3-.9.9-.9h9.5c.7,0,1.3.2,1.6.6.4.4.6,1,.6,1.7s-.1,1.2-.4,1.7c-.3.5-.6.9-1.1,1.1h1.3ZM383.2,334.4c.4,0,.8-.2,1.1-.5.3-.3.4-.8.4-1.3s0-.7-.3-.9c-.2-.2-.5-.3-.8-.3h-6.4c-.3,0-.5.2-.5.5v2c0,.4.2.6.7.6h5.7Z"/>
    <path class="cls-6" d="M394,318.9c1,0,1.9.3,2.6.9s1.1,1.5,1.3,2.6h1.7c.2,0,.4,0,.5-.1,0,0,.1-.2.1-.4v-2.5c0-.3.2-.5.5-.5h1.2c.3,0,.5.2.5.5v11.1c0,.3-.2.5-.5.5h-1.2c-.3,0-.5-.2-.5-.5v-6.2c0,.1-.2.2-.3.3-.1,0-.3,0-.4,0h-1.6c-.1,1.3-.5,2.3-1.2,3-.7.7-1.6,1.1-2.7,1.1s-2.2-.4-2.9-1.3-1-2.1-1-3.6.3-2.7,1-3.6,1.7-1.3,2.9-1.3ZM394,321c-.5,0-1,.2-1.3.7-.3.5-.5,1.2-.5,2s.2,1.5.5,2,.7.8,1.3.8,1-.2,1.3-.8c.3-.5.5-1.2.5-2s-.2-1.5-.5-2c-.3-.5-.7-.7-1.3-.7ZM392.8,330.7c0-.3.3-.5.6-.5h1.2c.2,0,.3,0,.4.2.1,0,.1.2.1.4,0,.2,0,.5,0,.9,0,.3,0,.7,0,1.1,0,.6.2,1.1.5,1.4.4.3.8.5,1.5.5,1.9,0,3.5,0,4.9,0,1.4,0,2.6-.1,3.8-.2.3,0,.5.1.5.5v1.1c0,.3,0,.5-.4.5-1,.1-2.3.2-3.8.3-1.5,0-3.2,0-4.9,0s-2.5-.3-3.2-1c-.8-.7-1.2-1.6-1.2-2.7s0-.8,0-1.2c0-.4,0-.7,0-1ZM405.8,330.4c0,.3-.2.5-.5.5h-1.2c-.3,0-.5-.2-.5-.5v-11.3c0-.3.2-.5.5-.5h1.2c.3,0,.5.2.5.5v11.3Z"/>
    <path class="cls-6" d="M413.4,333.6c-.6,0-1-.2-1.4-.6-.4-.4-.7-.9-.8-1.6-.2.6-.5,1.2-1,1.6-.5.4-1.1.6-1.8.6s-.4-.2-.4-.5v-1.2c0-.3.2-.5.5-.5.6,0,1-.3,1.3-.7.3-.4.4-1,.4-1.8v-8.5c0-.4.2-.5.5-.5h1.3c.3,0,.5.2.5.5v8.8c0,1.5.3,2.2,1,2.2s1-.7,1-2.2v-8.8c0-.4.2-.5.5-.5h1.3c.3,0,.5.2.5.5v8.5c0,.8.1,1.4.4,1.8s.7.7,1.3.7c.3,0,.5.2.5.5v1.2c0,.3-.1.5-.4.5-.7,0-1.3-.2-1.8-.6-.5-.4-.8-1-1-1.6-.2.7-.5,1.2-.8,1.6-.4.4-.9.6-1.4.6ZM420.2,319.2c0-.4.2-.5.5-.5h1.3c.3,0,.5.2.5.5v16.6c0,.4-.2.5-.5.5h-1.3c-.3,0-.5-.2-.5-.5v-16.6Z"/>
    <path class="cls-6" d="M432.8,333.1c-.6.2-1.1.4-1.6.5-.5.1-1,.2-1.4.2-3.1,0-4.6-1.7-4.6-5.1s0-1.6,0-2.3c0-.8,0-1.5,0-2.2s0-1.4.1-2.1c0-.7.1-1.3.2-1.8,0-.3.2-.4.6-.4h1.2c.4,0,.5.2.5.5-.1,1.1-.3,2.4-.3,3.8s-.1,3-.1,4.7.2,1.7.5,2c.4.4,1,.6,1.9.6s1.6-.2,2.5-.6c0,0,.1,0,.2,0,.2,0,.3.1.4.4l.3,1.1c0,.3,0,.5-.4.6ZM434.6,324.3c.2,0,.4,0,.5-.1s.1-.2.1-.4v-4.5c0-.3.2-.5.5-.5h1.2c.3,0,.5.2.5.5v16.5c0,.3-.2.5-.5.5h-1.2c-.3,0-.5-.2-.5-.5v-9.7c0,.1-.2.2-.3.3-.1,0-.3,0-.4,0h-2.7c-.3,0-.5-.2-.5-.5v-1.2c0-.3.2-.5.5-.5h2.8ZM440.9,335.8c0,.3-.2.5-.5.5h-1.2c-.3,0-.5-.2-.5-.5v-16.7c0-.3.2-.5.5-.5h1.2c.3,0,.5.2.5.5v16.7Z"/>
    <path class="cls-6" d="M448.7,319.9c.7,0,1.3,0,1.8.3.5.2.9.5,1.2.8.3.4.5.9.6,1.5.1.6.2,1.4.2,2.3,0,1.5-.2,2.7-.5,3.9-.3,1.1-.8,2-1.4,2.7h1.2c.3,0,.5.2.5.5v1.2c0,.3-.2.5-.5.5h-6.1c-.6,0-1.1-.2-1.5-.5-.4-.3-.5-.7-.5-1.3v-11c0-.6.3-.9.9-.9h4.1ZM447.9,331.4c.7,0,1.2-.4,1.6-1.3.4-.9.6-2.1.6-3.6s0-1.5,0-2.1c0-.6-.2-1-.3-1.4s-.4-.6-.6-.7c-.3-.1-.6-.2-1-.2h-1.7c-.3,0-.5.2-.5.5v8.2c0,.2,0,.4.2.5s.3.2.6.2h1.2ZM457,335.8c0,.4-.2.5-.5.5h-1.3c-.3,0-.5-.2-.5-.5v-16.6c0-.4.2-.5.5-.5h1.3c.3,0,.5.2.5.5v6.9c.1-.3.4-.4.8-.4h1.2c.3,0,.5.2.5.5v1.2c0,.3-.2.5-.5.5h-1.3c-.5,0-.7.2-.7.6v7.3Z"/>
    <path class="cls-6" d="M475.2,319.6c.3,0,.5.2.5.5v1.1c0,.3-.2.5-.5.5h-3v.2c0,.5,0,1,.2,1.5s.4.9.6,1.2c.3.3.6.6,1,.8.4.2.8.3,1.2.3s.5.2.5.5v1.1c0,.3-.2.5-.5.5-.5,0-1,0-1.5-.2-.5-.2-.9-.4-1.2-.6-.4-.3-.7-.6-.9-.9-.3-.3-.4-.7-.6-1.1-.1.4-.3.8-.6,1.1-.3.3-.6.7-.9.9s-.8.5-1.2.6c-.5.2-.9.2-1.5.2s-.5-.2-.5-.5v-1.1c0-.3.2-.5.5-.5s.8,0,1.2-.3c.4-.2.7-.4,1-.8.3-.3.5-.7.6-1.2s.2-1,.2-1.5v-.2h-2.9c-.3,0-.5-.2-.5-.5v-1.1c0-.3.2-.5.5-.5h3.3c-.2-.1-.3-.3-.3-.5v-.8c0-.3.2-.5.5-.5h1.3c.3,0,.5.2.5.5v1c0,.2.1.4.4.4h2.5ZM480,334.3c.3,0,.5.2.5.5v1.1c0,.3-.2.5-.5.5h-9.9c-.6,0-1.1-.2-1.5-.5-.4-.3-.5-.7-.5-1.3v-4.6c0-.6.3-.9.9-.9h8.8c.8,0,1.4.2,1.8.6s.6,1,.6,1.7-.2,1.2-.5,1.7c-.3.5-.7.9-1.2,1.2h1.5ZM476.1,334.3c.3,0,.5,0,.7-.1.2,0,.4-.2.6-.4.2-.2.3-.4.4-.6,0-.2.1-.5.1-.7,0-.4-.1-.8-.3-1-.2-.2-.6-.3-1-.3h-5.8c-.3,0-.5.2-.5.5v2c0,.2,0,.4.2.5.1.1.3.2.6.2h5ZM480,327.2c0,.4-.2.5-.5.5h-1.3c-.3,0-.5-.2-.5-.5v-8c0-.4.2-.5.5-.5h1.3c.3,0,.5.2.5.5v3.1c.1-.3.4-.4.8-.4h1.2c.3,0,.5.2.5.5v1.1c0,.3-.2.5-.5.5h-1.3c-.5,0-.7.2-.7.6v2.6Z"/>
    <path class="cls-6" d="M484.6,334.4c-.3,0-.5-.2-.5-.5v-1.1c0-.4.2-.5.5-.5.8.1,1.7.2,2.7.2.9,0,1.8.1,2.7.1-.1,0-.3-.2-.4-.3,0-.2-.1-.3-.1-.5v-4.4c0-.4.2-.5.5-.5h1.3c.3,0,.5.2.5.5v4.6c0,.4.2.6.7.6s1.1,0,1.7,0c.6,0,1.2,0,1.7,0,.6,0,1.1,0,1.5,0,.5,0,.9,0,1.2-.1.4,0,.5.1.5.5v1.1c0,.3-.2.5-.5.5-.7.1-1.6.2-2.9.2-1.2,0-2.6,0-4.2,0-3.2,0-5.5-.1-7-.4ZM486.3,322.2c-.3,0-.5-.1-.5-.5v-1.2c0-.3.2-.5.5-.5.6,0,1.1-.1,1.6-.2.5,0,1,0,1.6,0s1.1,0,1.7,0c.6,0,1.2,0,1.9,0,1.5,0,2.7.4,3.5,1.2.8.8,1.2,2,1.2,3.6s0,.9,0,1.3c0,.4,0,.8,0,1.2,0,.4,0,.7-.1,1.1,0,.3-.1.7-.2,1,0,.3-.2.4-.5.3l-1.4-.2c-.3,0-.4-.2-.4-.5.2-1.1.3-2.4.3-3.8s-.2-1.9-.7-2.4c-.4-.5-1.2-.7-2.2-.7s-2.2,0-3.3,0c-1,0-2,.1-3,.3Z"/>
  </g>
</svg>