<?xml version="1.0" encoding="UTF-8"?>
<svg id="_레이어_2" data-name="레이어 2" xmlns="http://www.w3.org/2000/svg" xmlns:xlink="http://www.w3.org/1999/xlink" viewBox="0 0 681.39 391.98">
  <defs>
    <style>
      .cls-1 {
        clip-path: url(#clippath);
      }

      .cls-2 {
        fill: none;
      }

      .cls-2, .cls-3, .cls-4, .cls-5, .cls-6, .cls-7, .cls-8 {
        stroke-width: 0px;
      }

      .cls-3 {
        fill: #6e9df9;
      }

      .cls-4 {
        fill: #288cf4;
      }

      .cls-5 {
        fill: #fff98d;
      }

      .cls-9 {
        clip-path: url(#clippath-1);
      }

      .cls-10 {
        clip-path: url(#clippath-2);
      }

      .cls-6 {
        fill: #b36ef9;
      }

      .cls-7 {
        fill: #deffe3;
      }

      .cls-8 {
        fill: #fff;
      }
    </style>
    <clipPath id="clippath">
      <rect class="cls-2" x="218.24" y="57" width="246" height="57"/>
    </clipPath>
    <clipPath id="clippath-1">
      <rect class="cls-2" x="197.24" y="136" width="289" height="121"/>
    </clipPath>
    <clipPath id="clippath-2">
      <rect class="cls-2" x="221.24" y="279" width="240" height="57"/>
    </clipPath>
  </defs>
  <g id="_레이어_1-2" data-name="레이어 1">
    <g>
      <g>
        <path class="cls-5" d="M522.25,87.39c19.99-19.99,19.99-52.41,0-72.4-19.99-19.99-52.41-19.99-72.4,0-19.99,19.99-52.41,19.99-72.4,0-19.99-19.99-52.41-19.99-72.4,0-19.99,19.99-52.4,19.99-72.4,0-20.02-19.99-52.43-19.99-72.42,0-19.99,19.99-19.99,52.41,0,72.4,19.99,19.99,19.99,52.41,0,72.4-19.99,19.99-19.99,52.4,0,72.4,19.99,19.99,19.99,52.41,0,72.4-19.99,19.99-19.99,52.41,0,72.4,19.99,19.99,52.41,19.99,72.4,0,19.99-19.99,52.41-19.99,72.4,0,19.99,19.99,52.4,19.99,72.4,0s52.41-19.99,72.4,0c19.99,19.99,52.41,19.99,72.4,0s19.99-52.41,0-72.4c-19.99-19.99-19.99-52.41,0-72.4s19.99-52.41,0-72.4c-19.99-19.99-19.99-52.41,0-72.4h.02Z"/>
        <g class="cls-1">
          <g>
            <path class="cls-3" d="M218.54,88.48c2.48.13,30.73.13,34.51,0,.39-2.14.33-6.28,0-8.55-3.85-.26-31.38-.32-34.51,0-.39,2.14-.39,6.35,0,8.55Z"/>
            <path class="cls-3" d="M221.47,113.68c3.72.45,54.67.39,57.8,0,.39-3.69.33-18.2,0-21.05-2.09-.19-8.42-.19-10.77,0-.13,3.56-.06,10.95,0,12.96-1.43.07-34.71.07-36.14,0,.07-2.01.13-9.39,0-12.96-2.22-.19-9-.19-10.9,0-.26,2.92-.39,16.45,0,21.05ZM234.85,92.88c2.35.26,8.74.26,10.96,0,.19-3.5.19-7,0-9.65-2.35-.26-8.74-.26-10.96,0-.2,2.66-.2,6.15,0,9.65Z"/>
            <path class="cls-4" d="M227.01,103.12c2.87.06,43.71.06,46.71,0,.33-.97.33-6.61,0-7.58-2.94-.19-43.97-.06-46.71,0-.33.97-.33,6.61,0,7.58ZM250.77,74.75c2.48.13,8.22.13,10.63,0,.33-1.23.33-7.77,0-9.07-2.41-.19-8.15-.19-10.63,0-.33,1.23-.33,7.77,0,9.07ZM268.77,90.49c2.35.19,8.48.19,10.57,0,.39-3.04.39-30.06,0-32.97-2.22-.39-8.35-.39-10.57,0-.07,2.85-.07,29.86,0,32.97Z"/>
            <path class="cls-6" d="M234.72,88.54c3.91.06,7.96,0,11.22,0,0-1.94,0-3.76-.13-5.31-2.35-.26-8.74-.26-10.96,0-.13,1.55-.13,3.37-.13,5.31ZM255.79,90.23c2.55.32,8.35.32,10.24,0,.2-3.11.2-29.73,0-32.45-2.22-.32-8.02-.32-10.24,0-.26,2.72-.26,29.35,0,32.45Z"/>
            <path class="cls-3" d="M239.09,67.82c0,1.55-1.83,2.72-4.89,2.72s-4.89-1.17-4.89-2.72c0-1.43,1.83-2.72,4.89-2.72s4.89,1.3,4.89,2.72ZM249.2,67.82c0-6.54-6.07-10.75-15-10.75s-15.01,4.21-15.01,10.75,6.07,10.82,15.01,10.82,15-4.15,15-10.82Z"/>
            <path class="cls-3" d="M268.45,95.48v7.64h5.28c.33-.97.33-6.61,0-7.58-.59-.06-2.48-.06-5.28-.06ZM255.59,74.81c2.22.06,4.5,0,5.81-.06.33-1.23.33-7.77,0-9.07-1.31-.13-3.59-.13-5.81-.13v9.26Z"/>
            <path class="cls-4" d="M316,68.66c3.98-.06,6.98-.06,8.03-.13.33-1.68.33-8.68,0-9.91-3.33-.52-35.29-.52-39.08,0-.33,1.36-.33,8.49,0,9.91.91.06,4.11.13,8.29.13-3.78,6.35-8.61,14.7-9.33,16.65,1.43,1.43,6.98,4.66,9.13,5.25,1.7-2.07,8.48-14.12,11.68-20.28,3.07,5.7,9.85,17.43,11.55,19.63,2.28-.71,7.5-3.89,9.07-5.51-.78-1.88-5.55-9.72-9.33-15.74Z"/>
            <path class="cls-6" d="M327.94,97.74c2.54.26,8.94.26,10.83,0,.39-3.24.39-36.99,0-40.23-2.22-.39-8.61-.39-10.83,0-.26,3.24-.26,37.05,0,40.23Z"/>
            <path class="cls-3" d="M286.84,112.32c4.7.26,48.15.26,52.58,0,.39-2.14.39-7.97,0-10.17-2.87-.13-38.49-.13-41.49,0,.13-1.75.07-7.38,0-9.52-2.28-.39-8.87-.39-11.09,0-.33,3.89-.26,15.29,0,19.69Z"/>
            <path class="cls-3" d="M343.03,86.77c2.47.15,24.4.15,27.37,0,.2-1.65.25-5.21,0-6.71-2.98-.15-24.9-.15-27.37,0-.26,1.6-.26,5.11,0,6.71Z"/>
            <path class="cls-4" d="M360.78,71.1c0,.9-.91,1.7-4.09,1.7s-4.09-.8-4.09-1.7.91-1.7,4.09-1.7,4.09.8,4.09,1.7ZM369.55,71.1c0-4.85-4.13-7.96-12.86-7.96s-12.85,3.1-12.85,7.96,4.13,7.96,12.85,7.96,12.86-3.1,12.86-7.96Z"/>
            <path class="cls-4" d="M344.29,107.89c4.34.25,21.37.25,25.71,0,.3-1.6.3-4.81,0-6.35-4.94-.05-13.51-.05-17.09,0v-1.45c3.83,0,11.65.1,16.09,0,.35-1.7.4-9.21,0-11.87-3.07-.15-21.83-.15-24.9,0-.25,2-.25,3.76,0,5.76,5.04.05,11.85.05,16.49,0v1.35c-4.49,0-11.29-.05-16.28,0-.3,2.8-.3,9.86,0,12.56"/>
            <path class="cls-3" d="M420.7,81.55c2.54.26,8.87.26,10.76,0,.46-3.17.46-20.79,0-24.03-2.22-.39-8.55-.39-10.76,0-.33,3.24-.33,20.86,0,24.03Z"/>
            <path class="cls-4" d="M420.83,113.74c2.61.19,8.09.19,10.63,0,.33-2.66.33-27.34,0-30.06-3.2-.26-18.2-.26-21.46,0-.2,1.88-.2,8.23,0,9.78h10.83c0,2.46-.07,18.33,0,20.28Z"/>
            <path class="cls-6" d="M384.75,113.29c5.28.32,22.25.32,27.6,0,.33-2.14.33-6.87,0-9-6.07-.13-13.31-.13-17.29,0v-2.33c3.91.06,6.2.13,12.2,0,.39-2.92.33-14.71,0-18.27-3.78-.19-18.79-.19-22.51,0-.33,2.66-.33,5.96,0,8.68,6.13.13,7.83.13,12.59,0v2.2c-4.7-.06-6.52-.13-12.59,0-.39,3.69-.39,15.16,0,18.72Z"/>
            <path class="cls-3" d="M406.47,69.37c0,2.07-1.96,3.56-6.92,3.56s-6.91-1.49-6.91-3.56,1.96-3.56,6.91-3.56,6.92,1.49,6.92,3.56ZM417.17,69.37c0-7.58-6.26-12.37-17.62-12.37s-17.61,4.79-17.61,12.37,6.26,12.37,17.61,12.37,17.62-4.79,17.62-12.37Z"/>
            <path class="cls-3" d="M450.45,103.19c.15-2.3.15-19.58,0-22.03-1.71-.25-6.75-.25-8.57,0-.15,2.45-.15,19.72,0,22.03,1.71.25,6.76.25,8.57,0Z"/>
            <path class="cls-4" d="M435.77,106.49c2.06.2,25.66.2,28.18,0,.4-1.8.35-5.75,0-7.76-2.52-.2-26.11-.25-28.18,0-.36,1.9-.36,5.81,0,7.76Z"/>
            <path class="cls-4" d="M441.77,98.58c.05,2.25.05,3.95.1,4.61,1.71.25,6.76.25,8.57,0,.05-.65.05-2.36.1-4.61h-8.77ZM454.07,93.42c1.96.3,6.96.3,8.47,0,.2-2.5.2-25.63,0-28.08-2.98-.15-22.18-.15-25.41,0-.25,2.5-.25,5.21,0,7.71,2.42.1,15.22.15,16.94.05-.05,4.75-.1,17.27,0,20.32"/>
          </g>
        </g>
        <g class="cls-9">
          <g>
            <path class="cls-6" d="M197.93,208.08c8.06.85,62.09.71,68.88,0,.85-9.22.85-60.96,0-69.47-4.53-.71-18.24-.71-23.34,0-.28,7.66-.14,44.09,0,49.34-3.11.28-18.95.28-22.06,0,.14-5.25.28-41.68,0-49.34-4.81-.7-19.38-.7-23.48,0-.85,8.66-.99,57.72,0,69.47Z"/>
            <path class="cls-3" d="M201.19,256.57c10.18.57,93.06.57,102.68,0,.85-4.68.85-17.44,0-22.26-6.22-.28-72.13-.28-78.64,0,.28-3.83.14-13.61,0-18.29-4.95-.85-19.23-.85-24.04,0-.71,8.51-.57,30.91,0,40.55ZM209.82,173.49c5.52.14,43.42.14,48.94,0,.71-2.84.71-15.03,0-19.57-5.38-.57-43.56-.43-48.94,0-.71,2.84-.71,15.03,0,19.57Z"/>
            <path class="cls-4" d="M243.33,153.5v20.13c7.35,0,13.44-.14,15.42-.14.71-2.84.71-15.03,0-19.57-1.98-.14-8.06-.28-15.42-.43ZM278.98,224.67c5.52.57,19.38.57,23.48,0,.99-7.09.99-80.96,0-88.04-4.81-.85-18.67-.85-23.48,0-.57,7.09-.57,81.1,0,88.04Z"/>
            <path class="cls-3" d="M209.82,173.49c1.7,0,6.08.14,11.74.14v-19.99c-5.66,0-10.18.14-11.74.28-.71,2.84-.71,15.03,0,19.57Z"/>
            <path class="cls-3" d="M351.67,209.64c5.8.71,17.54.71,23.2,0,.85-7.09.85-64.08,0-71.17-7.07-.71-51.2-.85-58.27,0-.71,5.53-.71,15.74,0,21.27,6.37.14,28.57.14,35.08,0-.28,9.5-.28,40.12,0,49.9Z"/>
            <path class="cls-4" d="M395.8,188.8c5.23.71,21.92.71,27.3,0,.71-2.98.71-18.01,0-21.12-5.37-.71-22.06-.71-27.3,0-.85,3.12-.85,18.15,0,21.12Z"/>
            <path class="cls-3" d="M314.9,192.77c6.79.85,40.73.85,49.22,0,.71-4.54.71-15.6,0-20.13-8.49-.28-42.43-.28-49.22,0-.71,4.54-.71,15.6,0,20.13ZM386.75,224.67c5.52.57,19.38.57,23.48,0,.99-7.09.99-80.96,0-88.04-4.81-.85-18.67-.85-23.48,0-.57,7.09-.57,81.1,0,88.04Z"/>
            <path class="cls-6" d="M318.86,256.57c10.18.57,83.16.57,92.78,0,.85-4.68.85-17.44,0-22.26-6.22-.28-62.23-.28-68.74,0,.28-3.83.14-16.16,0-20.84-4.95-.85-19.24-.85-24.04,0-.71,8.51-.57,33.46,0,43.1ZM351.53,193.34c5.52-.14,10.04-.28,12.59-.57.71-4.54.71-15.6,0-20.13-2.55-.14-7.07-.14-12.59-.14-.14,6.38-.14,14.04,0,20.84ZM395.8,188.8c2.83.43,9.19.57,15.13.57v-22.26c-5.94,0-12.3.14-15.13.57-.85,3.12-.85,18.15,0,21.12Z"/>
            <path class="cls-3" d="M426.53,200.66c5.35.33,52.9.33,59.34,0,.44-3.61.55-11.39,0-14.68-6.44-.34-53.99-.34-59.34,0-.55,3.51-.55,11.17,0,14.68Z"/>
            <path class="cls-4" d="M465,166.36c0,1.97-1.97,3.72-8.85,3.72s-8.86-1.75-8.86-3.72,1.97-3.73,8.86-3.73,8.85,1.75,8.85,3.73ZM484.02,166.36c0-10.62-8.96-17.41-27.88-17.41s-27.88,6.79-27.88,17.41,8.96,17.42,27.88,17.42,27.88-6.79,27.88-17.42Z"/>
            <path class="cls-4" d="M429.27,246.89c9.4.55,46.34.55,55.74,0,.65-3.51.65-10.52,0-13.92-10.71-.1-29.29-.1-37.06,0v-3.18c8.31,0,25.25.22,34.87,0,.77-3.73.87-20.16,0-25.96-6.66-.33-47.33-.33-53.99,0-.55,4.38-.55,8.21,0,12.59,10.93.1,25.69.1,35.73,0v2.96c-9.72,0-24.48-.12-35.29,0-.66,6.14-.66,21.58,0,27.49"/>
          </g>
        </g>
        <g class="cls-10">
          <g>
            <path class="cls-6" d="M444.74,326.13c.14-2.24.14-8.99,0-11.44-1.77-.3-6.44-.3-8.11,0-.1,2.45-.1,9.24,0,11.44,1.77.3,6.44.3,8.11,0Z"/>
            <path class="cls-4" d="M265.96,318.74c.32-1.68.32-8.47,0-9.7-3.24-.32-39.36-.32-43.05,0-.32,1.36-.32,8.27,0,9.7,1.02.07,5.72.13,11.64.13-5.79,3.88-11.83,8.14-13.16,9.24.83,1.94,4.13,6.46,5.98,7.89,2.03-1.1,10.87-7.43,17.11-12.22,6.23,4.78,15.01,11.12,17.04,12.22,1.84-1.42,5.15-5.95,5.98-7.89-1.33-1.1-7.38-5.36-13.16-9.24,5.79,0,10.43-.06,11.64-.13ZM271.81,288.55c-2.42-.32-9.92-.32-12.27,0-.38,1.42-.38,8.27,0,9.63,2.35.32,9.86.32,12.27,0,.32-1.36.32-8.21,0-9.63Z"/>
            <path class="cls-6" d="M232,296.76c-.19-2.07-.19-5.49,0-7.5,2.23-.13,6.3-.07,8.65,0,.19,2,.19,5.43,0,7.5-2.29.13-6.17.13-8.65,0ZM221.58,305.81c3.05.32,26.39.32,29.44,0,.45-3.1.45-22.49,0-25.66-3.37-.39-26.07-.39-29.44,0-.45,3.17-.45,22.56,0,25.66Z"/>
            <path class="cls-3" d="M255.53,306.78c2.48.26,8.65.26,10.49,0,.44-3.23.44-24.24,0-27.47-2.16-.39-8.33-.39-10.49,0-.32,3.23-.32,24.3,0,27.47Z"/>
            <path class="cls-3" d="M259.54,298.18c1.27.19,4.13.26,6.8.26v-10.15c-2.67,0-5.53.07-6.8.26-.38,1.42-.38,8.27,0,9.63Z"/>
            <path class="cls-4" d="M348.37,328.58c1.91.3,6.73.3,8.2,0,.2-2.5.2-13.69,0-16.03-1.67-.35-6.49-.35-8.2,0-.2,2.34-.2,13.53,0,16.03Z"/>
            <path class="cls-4" d="M359.33,294.86c4.47,0,8.06-.05,9.04-.1.24-1.3.24-6.69,0-7.64-2.5-.4-28.95-.4-31.79,0-.24,1.05-.24,6.55,0,7.64.84.05,4.42.1,8.94.1-4.32,2.75-9.48,6.04-10.47,6.85.49,1.55,3.15,5.55,4.42,6.69,1.47-.75,8.6-5.39,12.97-8.44,4.42,3.04,11.55,7.69,13.02,8.44,1.28-1.15,3.93-5.14,4.42-6.69-.98-.8-6.19-4.14-10.56-6.85"/>
            <path class="cls-6" d="M335.3,317.34c2.11.2,31.94.2,34.34,0,.39-1.8.35-5.6,0-7.59-2.46-.2-32.33-.25-34.34,0-.35,1.9-.35,5.64,0,7.59Z"/>
            <path class="cls-3" d="M348.22,317.49h8.5c-.05-2.24-.1-4.14-.15-4.94-1.67-.35-6.49-.35-8.21,0-.05.8-.1,2.7-.14,4.94"/>
            <path class="cls-4" d="M398.89,327.68c1.87.3,6.43.3,7.91,0,.2-2.5.2-38.96,0-41.46-1.67-.3-6.24-.3-7.91,0-.2,2.5-.2,38.96,0,41.46Z"/>
            <path class="cls-6" d="M394.12,307.7c2.4.15,6.58.15,9.53,0,.24-1.1.24-6.55,0-7.59-2.95-.1-7.13-.1-9.53,0-.24,1.1-.24,6.55,0,7.59ZM409.45,328.32c1.91.35,6.58.35,8.06,0,.3-2.45.3-39.81,0-42.3-1.67-.3-6.39-.3-8.06,0-.15,2.5-.15,39.86,0,42.3Z"/>
            <path class="cls-3" d="M378.94,326.78c.49-1.35,3.83-16.83,5.01-23.92.93,7.59,4.07,22.18,4.52,23.47,1.97,0,6.53-1.1,7.91-1.75-.29-2.25-6.64-30.37-8.55-37.36-1.52-.25-6.49-.25-8.06,0-1.92,6.99-8.55,35.46-8.69,37.66,1.42.75,6.09,1.9,7.86,1.9Z"/>
            <path class="cls-3" d="M398.74,307.8c1.72,0,3.44-.05,4.91-.1.24-1.1.24-6.55,0-7.59-1.47-.05-3.2-.05-4.91-.1v7.79Z"/>
            <path class="cls-3" d="M439.72,299.46c0,3.85-2.16,6.09-5.16,6.09s-5.16-2.25-5.16-6.09,2.16-6.09,5.16-6.09,5.16,2.24,5.16,6.09ZM448.03,299.46c0-8.99-5.65-13.74-13.46-13.74s-13.46,4.75-13.46,13.74,5.65,13.74,13.46,13.74,13.46-4.74,13.46-13.74Z"/>
            <path class="cls-4" d="M421,328.23c2.06.25,24.47.25,26.97,0,.39-1.8.34-5.49,0-7.49-2.51-.2-24.92-.25-26.97,0-.35,1.9-.35,5.55,0,7.49Z"/>
            <path class="cls-3" d="M436.57,320.58c0,2.25,0,4.45.05,5.54,1.77.3,6.44.3,8.11,0,.05-1.1.1-3.24.1-5.49-2.16-.05-5.16-.05-8.26-.05ZM432.5,326.13c.14-2.24.14-8.99,0-11.44-1.77-.3-6.44-.3-8.11,0-.1,2.45-.1,9.24,0,11.44,1.77.3,6.44.3,8.11,0Z"/>
            <path class="cls-6" d="M424.34,320.64c0,2.25,0,4.4.05,5.5,1.77.3,6.44.3,8.11,0,.05-1.1.1-3.3.1-5.54-3.09,0-6.09,0-8.25.05Z"/>
            <path class="cls-3" d="M456.27,328.58c2.75,0,4.96-2.2,4.96-5s-2.21-4.99-4.96-4.99-4.97,2.2-4.97,4.99,2.21,5,4.97,5Z"/>
            <path class="cls-3" d="M460.36,315.19c.39-7.29.29-22.48.24-27.97-1.28-.25-6.98-.25-8.65,0-.2,4.64-.1,21.23.24,27.97,1.77.15,6.29.15,8.16,0"/>
            <path class="cls-3" d="M311.58,304.04c2.37.26,9.9.26,12.32,0,.32-1.43.32-8.5,0-9.93-2.43-.32-9.96-.32-12.32,0-.38,1.43-.38,8.5,0,9.93Z"/>
            <path class="cls-4" d="M273.64,294.43c3.77.19,31.36.19,35.51,0,.38-1.75.38-8.5,0-9.8-4.15-.26-31.74-.26-35.51,0-.45,1.49-.45,8.25,0,9.8ZM317.71,335.66c2.49.45,8.75.45,10.6,0,.44-3.18.44-51.74,0-54.98-2.17-.39-8.43-.39-10.6,0-.32,3.24-.32,51.8,0,54.98Z"/>
            <path class="cls-6" d="M311.58,324.81c2.37.26,9.9.26,12.32,0,.32-1.43.32-8.5,0-9.93-2.43-.32-9.97-.32-12.32,0-.38,1.43-.38,8.5,0,9.93ZM299.25,315.4c0,6.56-2.87,9.8-7.28,9.8s-7.28-3.24-7.28-9.8,2.87-9.8,7.28-9.8,7.28,3.24,7.28,9.8ZM309.6,315.4c0-12.66-6.77-19.09-17.63-19.09s-17.63,6.43-17.63,19.09,6.77,19.09,17.63,19.09,17.63-6.43,17.63-19.09ZM297.59,289.37c.19-2.53.25-7.2,0-10.13-2.3-.32-9.01-.32-11.31,0-.25,2.92-.19,7.6,0,10.13,2.3.32,9.01.32,11.31,0Z"/>
            <path class="cls-6" d="M317.46,304.24c2.56,0,5.17-.07,6.45-.19.32-1.43.32-8.5,0-9.93-1.28-.19-3.83-.26-6.39-.26,0,3.18-.06,6.75-.06,10.39"/>
            <path class="cls-3" d="M317.46,314.62c0,3.77.06,7.27.06,10.39,2.55,0,5.11-.06,6.39-.19.32-1.43.32-8.5,0-9.93-1.28-.19-3.9-.26-6.45-.26M286.1,284.43c0,1.88.06,3.64.19,4.94,2.3.32,9.01.32,11.3,0,.13-1.3.19-3.05.19-4.94h-11.69,0Z"/>
          </g>
        </g>
      </g>
      <g>
        <path class="cls-7" d="M29.53,346.67c.36-.65.24-1.17.32-1.67.11-.71.18-1.46.42-2.14.76-2.16,2.24-3.58,4.55-3.89,2.4-.33,4.25.67,5.58,2.66.65.99,1.05,2.09,1.1,3.28.04.86.07,1.76-.07,2.61-.17,1.07.07,2.01.56,2.94,1.16,2.21,2.63,4.18,4.41,5.93,2.61,2.58,5.71,3.32,9.23,2.5,2.65-.62,5.08-1.73,7.31-3.29.95-.67,1.83-1.44,2.59-2.33,1.9-2.22,2.67-4.79,2.26-7.71-.31-2.22-1.17-4.2-2.55-5.94-.81-1.02-1.73-1.96-2.63-2.91-.7-.74-1.4-1.47-1.89-2.38-1.87-3.53.22-7.54,4.18-7.96.72-.08,1.45,0,2.17-.02,3.75-.07,7.12-1.31,10.09-3.57,2.36-1.79,3.42-4.3,3.29-7.26-.31-7.18-6.64-12.37-13.71-11.28-2.32.36-4.48,1.18-6.58,2.21-1.17.58-2.31,1.22-3.58,1.57-3.31.91-6.33-.47-7.69-3.64-.4-.93-.64-1.93-.88-2.92-.46-1.84-.8-3.71-1.31-5.52-.88-3.11-2.3-5.97-4.28-8.53-1.69-2.2-3.85-3.73-6.49-4.56-2.47-.78-4.73-.39-6.77,1.2-1.23.95-2.23,2.09-2.93,3.47-2.13,4.2-2.34,8.5-.6,12.88.67,1.7,1.75,3,3.63,3.46,1,.24,1.93.74,2.56,1.57,1.17,1.51,2.05,3.19,2.41,5.08.46,2.4-.86,4.53-3.16,5.29-.98.32-1.98.43-3.01.24-.65-.12-1.29-.22-1.92-.41-1.82-.57-3.58-.37-5.32.31-2.61,1.02-4.88,2.54-6.85,4.54-2.75,2.79-3.84,6.12-3.24,9.99,1.21,7.73,5.75,12.84,12.7,15.98.72.33,1.51.54,2.29.68,1.3.25,2.59.28,3.83-.45M16.17,305.68c.06-.73-.41-1.34-.65-2.01-2.36-6.69-2.17-13.31.7-19.81,1.67-3.75,4.21-6.79,7.65-9.05,4.34-2.89,9.07-3.73,14.14-2.39,5.02,1.32,9.15,4.01,12.4,8.05,3.14,3.91,5.26,8.36,6.62,13.18.16.56.33,1.12.51,1.67.04.12.19.22.29.33.83,0,1.53-.43,2.28-.69,4.29-1.42,8.63-1.93,13.1-1.07,3.57.69,6.79,2.17,9.51,4.59,4.74,4.23,7.73,9.48,8.22,15.89.51,6.61-1.84,12.14-6.9,16.45-1.96,1.67-4.19,2.87-6.54,3.88-.65.28-1.41.38-1.93.99,0,.76.5,1.34.79,1.99,1.61,3.6,2.38,7.34,1.98,11.27-.47,4.75-2.4,8.85-5.75,12.2-4.97,4.95-10.98,7.82-17.95,8.53-5.15.53-9.78-.92-13.84-4.14-2.41-1.91-4.4-4.22-6.15-6.76-.41-.59-.81-1.19-1.15-1.69-.56-.32-.96-.12-1.38,0-3.43,1.08-6.88.96-10.31-.02-10.66-3.03-19.46-12.86-21.36-23.8-.47-2.67-.62-5.36-.23-8.05.62-4.39,2.51-8.18,5.46-11.45,2.61-2.88,5.61-5.27,9.03-7.13.5-.27,1.1-.38,1.43-1"/>
        <path class="cls-7" d="M93.64,202.66c1.91,3.02,3.1,6.19,3.76,9.55,1.56,7.96.83,15.76-1.62,23.44-.29.89-.65,1.74-1.1,2.56-.27.49-.58.95-.97,1.36-.32.35-.71.44-1.14.26-.38-.17-.76-.36-1.1-.59-.66-.44-1.3-.9-1.92-1.39-6.1-4.74-11.98-9.72-17.5-15.13-2.59-2.54-5.11-5.14-7.28-8.07-.95-1.27-1.77-2.62-2.39-4.09-.38-.91-.64-1.85-.63-2.84,0-1.02.43-1.78,1.31-2.31.98-.6,2.05-.86,3.18-.93,3.32-.2,6.34.64,9.07,2.55.64.45,1.33.98,1.19,1.79-.26,1.48.65,4.67,1.24,5.36.65,1.3,1.74,1.9,3.16,1.9,1.86,0,5.83-2.03,4.21-7.59-.37-1.07-.92-2.05-1.63-2.91-.38-.47-.53-.95-.46-1.54.23-2.06.78-4.02,1.78-5.84.18-.33.39-.63.61-.93.43-.59,1.02-.77,1.72-.63.5.1.97.29,1.43.55.69.39,1.31.88,1.88,1.43,1.29,1.23,2.37,2.62,3.22,4.03M76.85,199.85c-.57,0-.95-.29-1.36-.47-2.9-1.26-5.94-1.81-9.1-1.7-1.97.07-3.86.46-5.66,1.3-3.96,1.83-6.02,5.29-5.7,9.66.18,2.52,1.11,4.79,2.32,6.97,1.38,2.45,3.11,4.63,4.97,6.72,4.51,5.04,9.47,9.59,14.6,13.97,2.9,2.48,5.84,4.9,8.88,7.2.78.59,1.59,1.14,2.39,1.68.74.49,1.53.88,2.37,1.16,2.81.95,5.31.39,7.51-1.55.88-.77,1.59-1.7,2.18-2.7.6-1,1.12-2.05,1.51-3.14,3.41-9.76,4.23-19.7,1.83-29.83-1.04-4.4-2.95-8.42-5.63-12.08-1.32-1.81-2.84-3.44-4.65-4.79-1.36-1-2.83-1.8-4.48-2.17-3.67-.82-6.69.21-8.96,3.27-1.18,1.59-1.98,3.37-2.6,5.23-.15.43-.3.86-.45,1.29"/>
        <path class="cls-7" d="M599.75,114.49c-2.48,3.92-4.03,8.04-4.89,12.4-2.03,10.33-1.09,20.46,2.1,30.43.37,1.15.84,2.26,1.42,3.33.35.64.75,1.24,1.26,1.77.42.45.93.57,1.48.33.5-.22.98-.46,1.43-.76.85-.57,1.69-1.17,2.5-1.8,7.93-6.15,15.58-12.62,22.75-19.64,3.37-3.29,6.64-6.68,9.47-10.47,1.23-1.65,2.3-3.4,3.1-5.31.5-1.18.84-2.4.82-3.69,0-1.32-.56-2.31-1.7-3-1.28-.77-2.67-1.11-4.13-1.2-4.31-.27-8.24.83-11.79,3.31-.84.58-1.73,1.27-1.55,2.32.34,1.92-.84,6.06-1.61,6.96-.84,1.68-2.26,2.47-4.11,2.46-2.42,0-7.58-2.64-5.47-9.86.48-1.39,1.19-2.65,2.12-3.78.5-.61.7-1.23.6-2-.3-2.67-1.01-5.22-2.32-7.58-.23-.42-.51-.82-.79-1.21-.56-.76-1.33-1-2.23-.82-.65.13-1.27.38-1.85.71-.89.51-1.71,1.14-2.45,1.85-1.67,1.59-3.08,3.4-4.18,5.23M621.58,110.85c.74,0,1.23-.37,1.77-.61,3.77-1.63,7.72-2.35,11.83-2.21,2.56.09,5.02.6,7.36,1.68,5.15,2.38,7.82,6.87,7.41,12.54-.24,3.27-1.44,6.22-3.02,9.04-1.79,3.18-4.04,6.02-6.47,8.72-5.86,6.54-12.32,12.44-18.98,18.14-3.77,3.22-7.6,6.36-11.55,9.34-1.01.76-2.06,1.49-3.11,2.18-.96.64-1.99,1.14-3.08,1.51-3.65,1.24-6.9.51-9.77-2.02-1.14-1-2.06-2.21-2.84-3.51-.78-1.3-1.46-2.65-1.96-4.08-4.44-12.67-5.5-25.57-2.38-38.72,1.36-5.72,3.84-10.94,7.32-15.68,1.72-2.35,3.69-4.47,6.04-6.21,1.76-1.3,3.67-2.33,5.83-2.82,4.78-1.07,8.7.27,11.65,4.24,1.53,2.06,2.57,4.37,3.38,6.8.19.56.39,1.11.59,1.68"/>
        <path class="cls-8" d="M82.68,47.81c0,1.57-.01,3.13-.01,4.7,0,.51.22,1.05.59,1.41.37.36.92.61,1.41.59,1.08-.05,2-.88,2-2,0-1.57.01-3.13.01-4.7,0-.51-.22-1.05-.59-1.41-.37-.36-.91-.61-1.41-.59-1.08.05-2,.88-2,2Z"/>
        <path class="cls-8" d="M71,61.03c.37-.02.74.05,1.11.03.34-.02.67-.08,1-.16l.16-.04c.23-.05.21-.05-.06-.01.15-.07.47,0,.63.02.16.02.32.01.48,0,.37,0,.74-.02,1.1-.05.28-.02.57-.06.85-.1.11-.02.21-.03.31-.05-.27.03-.29.04-.06.02h1.11c.74,0,1.47,0,2.21.01,1.05.03,2.05-.94,2-2-.05-1.06-.88-1.97-2-2-.74-.02-1.47-.02-2.21-.01-.37,0-.74-.02-1.11,0-.31.01-.62.06-.93.11-.08,0-.16.03-.24.04.27-.03.29-.03.06-.01-.37,0-.74.04-1.1.05-.36,0-.74-.05-1.11-.02-.28.02-.57.06-.84.12-.1.02-.21.05-.31.08-.23.05-.21.05.06.02-.12.05-.35,0-.48,0-.21-.01-.42-.03-.64-.02-1.03.03-2.04.85-1.99,1.97.05,1.04.88,2.06,2,2Z"/>
        <path class="cls-8" d="M87.11,59.55c.61-.07,1.2-.11,1.82-.11.44,0,.88-.07,1.31-.15.4-.07-.47,0,.05,0,.15,0,.3.02.46.03.31.03.6.04.91.02.13-.01.26-.03.39-.03.16,0,.71.08.12-.03.73.14,1.48.18,2.21.25.48.05,1.09-.26,1.41-.59.35-.35.61-.92.59-1.41-.05-1.17-.88-1.89-2-2-.3-.03-.6-.06-.91-.08-.09,0-.17-.01-.26-.02.32.04.36.05.14.02-.26-.04-.53-.08-.79-.11-.61-.06-1.21.05-1.82,0-.45-.04-.85,0-1.31.06-.12.02-.27.03-.39.06.32-.04.36-.04.14-.02h-.26c-.61,0-1.21.05-1.82.11-.55.06-1.01.18-1.41.59-.35.35-.61.92-.59,1.41.04.99.89,2.12,2,2h.01Z"/>
        <path class="cls-8" d="M82.91,62c-.03.84-.02,1.66,0,2.5,0,.84-.04,1.6-.04,2.41,0,.39-.01.77-.02,1.16v.36q.04-.24,0,0c-.04.29-.1.59-.13.89-.01.18-.01.35,0,.53.01.15.14.59.06.72.04-.25.04-.3,0-.15-.02.08-.04.15-.06.23-.08.32-.12.65-.15.99-.1,1.04.99,2.05,2,2,1.17-.05,1.89-.88,2-2-.05.56.06-.11.09-.23.06-.27.11-.56.11-.84,0-.21-.03-.42-.05-.63,0-.09-.03-.73-.06-.27.04-.53.17-1.06.18-1.6,0-.39.02-.77.02-1.16,0-.8.04-1.6.04-2.41s-.02-1.66.01-2.5c.04-1.05-.95-2.05-2-2-1.12.05-1.96.88-2,2h0Z"/>
        <path class="cls-8" d="M110.39,56.42c-.03.68-.05,1.36-.08,2.05-.03.69.01,1.37-.08,2.05l.07-.53c-.06.46-.14.92-.14,1.39,0,.32.02.65,0,.97-.03,1.05.94,2.05,2,2,1.06-.05,1.97-.88,2-2,.02-.58-.03-1.15.05-1.72l-.07.53c.21-1.56.18-3.16.24-4.73.04-1.05-.95-2.05-2-2-1.12.05-1.96.88-2,2h0Z"/>
        <path class="cls-8" d="M101.39,68.05c.31-.09.61-.16.92-.24-.4.02.42-.1,0,0,.18,0,.36-.02.54-.03.27-.02.54-.04.81-.04.04,0,.54-.01.54,0l-.26-.03c.09.02.18.03.27.05.71.13,1.43.16,2.14.25.16.02.31.03.47.05.53.06-.34-.07.07.01.31.06.62.13.93.18.54.1,1.05.08,1.54-.2.41-.24.81-.72.92-1.2.22-.98-.3-2.26-1.4-2.46-.8-.15-1.59-.28-2.4-.37-.31-.04-.63-.07-.94-.1-.02,0-.4-.02-.4-.03.31.05.35.05.13.01-.09-.02-.18-.03-.27-.05-1.53-.26-3.2-.08-4.68.35-1,.29-1.73,1.42-1.4,2.46.33,1.04,1.38,1.71,2.46,1.4h0Z"/>
        <path class="cls-8" d="M110.36,70.17c-.09,1.68-.13,3.36-.11,5.03,0,.52.22,1.05.59,1.41.35.35.92.61,1.41.59,1.07-.05,2.02-.88,2-2-.02-1.68.02-3.36.11-5.03.05-1.05-.96-2.05-2-2-1.13.05-1.94.88-2,2Z"/>
        <path class="cls-8" d="M116.85,68.62c.82-.04,1.64-.11,2.46-.15.41-.02.82-.07,1.23-.09.41-.02.82.02,1.23.01.52-.02,1.04-.21,1.41-.59.35-.35.61-.92.59-1.41-.05-1.05-.88-2.04-2-2-.41.01-.82-.03-1.23-.01-.41.02-.82.07-1.23.09-.82.04-1.64.11-2.46.15-.53.03-1.03.2-1.41.59-.35.35-.61.92-.59,1.41.02.49.19,1.05.59,1.41s.88.61,1.41.59Z"/>
        <path class="cls-8" d="M94.74,83.59c0,.4,0,.8,0,1.2s.04.8.04,1.2c0,.8-.04,1.6-.04,2.4,0,.51.22,1.05.59,1.41s.92.61,1.41.59c1.08-.05,2-.88,2-2,0-.8.04-1.6.04-2.4,0-.4-.03-.8-.04-1.2-.01-.4,0-.8,0-1.2,0-.51-.22-1.05-.59-1.41-.37-.36-.92-.61-1.41-.59-1.09.05-2,.88-2,2Z"/>
        <path class="cls-8" d="M86.44,94.19c.76,0,1.53-.03,2.29.04l-.53-.07c.66.09,1.31.21,1.97.29.52.06,1.04.12,1.56.19l-.53-.07c.5.07.99.12,1.49.18l-.53-.07c.08,0,.16.02.24.03.55.09,1.04.09,1.54-.2.41-.24.81-.72.92-1.2.12-.51.09-1.09-.2-1.54-.26-.41-.69-.84-1.2-.92-.54-.08-1.07-.13-1.61-.2l.53.07c-.93-.13-1.87-.23-2.81-.34l.53.07c-.68-.11-1.34-.24-2.03-.26-.54-.02-1.09,0-1.63,0-1.05,0-2.05.92-2,2,.05,1.08.88,1.99,2,2Z"/>
        <path class="cls-8" d="M94.13,96.22c0,.33-.01.65-.01.98,0,.47.09.93.15,1.39l-.07-.53c.03.25.03.48,0,.73l.07-.53c-.07.48-.17.96-.15,1.45.02.35.08.69.07,1.04,0,.33-.02.65-.02.98,0,.37.05.73.06,1.1.02,1.05.91,2.05,2,2,1.09-.05,2.02-.88,2-2,0-.61-.05-1.22-.04-1.83,0-.61-.12-1.22-.05-1.83l-.07.53c.06-.42.15-.84.15-1.26s-.09-.85-.15-1.26l.07.53c-.06-.48-.02-.98-.02-1.47,0-1.05-.92-2.05-2-2-1.08.05-2,.88-2,2v-.02Z"/>
        <path class="cls-8" d="M101.2,95.55c1-.13,2-.27,3-.4l-.53.07s.07,0,.1,0c.28,0,.53-.05.77-.17.25-.08.46-.22.64-.41.2-.18.33-.4.41-.64.13-.24.18-.5.17-.77-.02-.52-.19-1.05-.59-1.41l-.4-.31c-.31-.18-.65-.27-1.01-.27-.57.08-1.14.16-1.72.24l.53-.07c-.46.06-.92.12-1.39.18-.28,0-.53.05-.77.17-.25.08-.46.22-.64.41-.2.18-.33.4-.41.64-.13.24-.18.5-.17.77.02.52.19,1.05.59,1.41l.4.31c.31.18.65.27,1.01.27h.01Z"/>
        <path class="cls-8" d="M626.51,272.79c-1.52.7-2.9,1.62-4.4,2.35-.74.37-1.54.63-2.29.98-.75.35-1.48.94-2.31,1.18-1.56.46-3.17.81-4.62,1.6-.66.36-1.12.95-1.74,1.34-.71.44-1.69.48-2.46.82-.72.32-1.29.95-2,1.24-.65.26-1.41.11-2.1.29-.89.23-1.69.77-2.51,1.17-.97.48-1.99.84-2.94,1.35-1.29.69-2.45,1.56-3.72,2.28-.69.39-1.43.67-2.11,1.08-.81.5-1.5,1.16-2.29,1.68-.63.41-1.25.87-1.9,1.26-.72.44-1.48.75-2.13,1.31-1.31,1.16-2.7,3.01-1.57,4.71.91,1.36,2.62,1.45,4.1,1.29.88-.09,1.25-.04,2.05.31,1,.43,1.92.54,2.99.34.6-.11.93-.28,1.51-.14.81.2,1.46.57,2.31.66.85.09,1.7.07,2.55.14.98.08,1.97.29,2.96.28,1.55,0,3.03-.2,4.58.12.9.18,1.68.63,2.61.68.42.02.86-.05,1.27-.15.31-.07.85-.38,1.16-.34.7.09,1.38.73,2.12.87.97.19,2.08.27,3.07.29s1.98-.29,3.01-.21c.96.08,1.91.19,2.84.43,1.83.46,3.74.44,5.61.53s3.56.26,5.13-.97c.62-.49.8-1.78.31-2.42-.67-.88-1.56-1.23-2.31-1.97-.61-.6-.85-1.51-1.49-2.13-1.49-1.45-3.38-2.29-5.03-3.49-.8-.58-1.48-1.03-2.07-1.83-.59-.8-1.23-1.34-1.97-1.95-.94-.77-1.77-1.37-2.89-1.84-.89-.37-1.66-.98-2.41-1.58-.75-.6-1.29-1.33-1.95-1.98-.74-.74-1.24-1.67-2.1-2.3-.66-.48-1.57-.68-2.12-1.29-.69-.75-1.09-1.62-1.91-2.27-.87-.69-1.4-1.06-1.9-2.06-.43-.86-.96-1.51-1.71-2.13-.75-.62-1.42-1.38-2.14-2.07-.72-.69-1.01-1.63-1.5-2.51-.91-1.63-3.97-1.02-3.73,1.01.09.78.45,1.64.4,2.41-.04.59-.33,1.17-.38,1.77-.04.46.01.92.04,1.38.06,1.11.12,2.14.47,3.19s.02,1.66-.01,2.71c-.03,1.05.51,1.91.62,2.93.09.82-.07,1.89-.13,2.72-.07,1.01-.36,1.91-.09,2.92.22.84.76,1.34.58,2.21-.44,2.14.03,4.19.24,6.33.09.91-.14,1.81-.09,2.72.05.91.3,1.88.42,2.82.12.94.46,1.77.39,2.7-.08.99-.14,1.99-.24,2.98-.18,1.83.22,3.9,2.1,4.73,1.08.48,2.02.23,2.74-.72.55-.72.96-1.55,1.54-2.24s1.21-1.36,1.74-2.13c.57-.82,1.17-1.59,1.58-2.51.41-.92.8-1.74,1.36-2.58s.96-1.56,1.24-2.49c.28-.93.78-1.68,1.29-2.52.51-.84.96-1.85,1.6-2.57.56-.64,1.27-.92,1.72-1.69.45-.77.47-1.58.81-2.35.38-.85,1.13-1.65,1.62-2.44.56-.9,1.17-1.77,1.5-2.78.29-.85.49-1.37,1.07-2.09,1.21-1.49,2.35-3.1,3.33-4.75.45-.77.62-1.53.89-2.36.28-.88,1.05-1.55,1.56-2.32,1.41-2.16-2.05-4.17-3.45-2.02-.51.78-1.2,1.44-1.6,2.29-.37.78-.41,1.65-.84,2.4-.92,1.61-2.07,3.14-3.23,4.57-.64.8-1.07,1.56-1.37,2.53s-.78,1.68-1.3,2.51c-.52.83-1.15,1.59-1.62,2.44-.38.69-.39,1.72-.81,2.35-.39.59-1.19.91-1.63,1.51-.63.87-1.14,1.84-1.69,2.75-.55.91-1.16,1.77-1.5,2.78-.28.84-.54,1.47-1.04,2.23-.57.86-.97,1.73-1.4,2.66-.41.88-.98,1.64-1.54,2.42-.46.65-1.02,1.18-1.51,1.8-.65.81-1.14,1.74-1.77,2.57l2.74-.72c-.47-.21-.15.06-.19-.25-.07-.46.09-.97.13-1.43.06-.82.09-1.63.18-2.45.18-1.77-.53-3.61-.76-5.36-.11-.84.09-1.67.08-2.51s-.23-1.75-.33-2.62c-.1-.93-.26-2-.13-2.92.14-.98.42-1.85.15-2.84-.18-.66-.64-1.24-.67-1.92-.04-.88.18-1.96.24-2.86s.17-1.7-.03-2.56c-.11-.47-.36-.92-.44-1.39-.07-.42.03-.75.09-1.18.15-.92.14-1.78-.12-2.68-.31-1.05-.47-1.89-.49-3.01-.02-.88.31-1.66.38-2.54.07-.88-.31-1.66-.41-2.53l-3.73,1.01c.53.96.89,1.93,1.61,2.78.62.73,1.37,1.49,2.08,2.14.71.65,1.24.96,1.66,1.79.52,1.04,1.08,1.81,2.02,2.51.79.6,1.28,1.13,1.87,1.93.59.8,1.26,1.41,2.16,1.87.42.21.83.36,1.18.69.35.33.61.81.92,1.19.58.7,1.27,1.38,1.91,2.03.75.76,1.68,1.36,2.54,1.98.86.62,1.81.82,2.65,1.37.67.45,1.47,1.07,2.01,1.69.72.83,1.19,1.6,2.1,2.27,1.64,1.21,3.42,2.12,5.02,3.37.83.65,1.1,1.47,1.77,2.26.51.61,1.65,1.04,2.01,1.52l.31-2.42c.26-.2-.61-.1-.73-.11-.45-.02-.9-.06-1.36-.08-.99-.04-1.98-.11-2.98-.15-2.05-.07-4.04-.81-6.12-.86-1.87-.04-3.75.6-5.53-.26-.98-.47-1.86-.77-2.97-.57-.38.07-.75.23-1.12.29-.56.09-.73.03-1.3-.16-1.94-.63-4.02-.67-6.04-.56-1,.06-1.98-.12-2.97-.22-.91-.09-1.9,0-2.8-.17-.9-.17-1.69-.72-2.67-.77-.79-.04-1.68.46-2.42.37-.91-.12-1.68-.78-2.66-.85-.59-.04-1.14.09-1.72.14-.28.04-.57.05-.86.03.22.09.2.05-.07-.11l.72.72-.02-.02-.51,1.95c.59-.65.99-1.45,1.73-1.92.84-.54,1.72-1.03,2.56-1.57.84-.54,1.56-1.16,2.36-1.72.75-.53,1.64-.84,2.44-1.3,1.66-.94,3.18-2.06,4.93-2.85.98-.44,1.99-1.08,2.99-1.43.79-.28,1.68-.12,2.5-.41.95-.33,1.61-1.09,2.52-1.48.91-.39,1.92-.43,2.79-.98.72-.45,1.23-1.11,2.02-1.46.9-.39,1.8-.74,2.76-.95,1.93-.41,3.61-1.59,5.42-2.36,1.81-.77,3.39-1.87,5.16-2.69.98-.45,1.23-1.87.72-2.74-.59-1.01-1.75-1.17-2.74-.72v.03Z"/>
        <path class="cls-8" d="M665.22,309.96c-.69.17-1.32.49-2,.68-.57.16-1.17.15-1.75.21-1.27.13-2.55.23-3.82.36-.72.08-1.44.09-2.15.22-.67.13-1.24.43-1.88.66-1.11.41-2.5.86-3.68.81-1.4-.06-2.42.16-3.68.76-1.03.49-2.16-.03-3.28.23-1.12.26-1.87,1.11-3.06,1.17-1.42.07-2.78.39-4.17.69-1.39.3-1.97,2.37-.88,3.34,1.3,1.17,2.81,1.76,4.43,2.34,1.62.58,3.22,1.22,4.87,1.73,3.1.96,5.57,3.24,8.75,4.03.67.17,1.12.29,1.68.71.68.5,1.27.98,2.09,1.24.69.21,1.39.24,2.05.54.84.38,1.69.8,2.46,1.32,1.39.94,2.85,1.77,4.41,2.42.58.24,1.2.4,1.69.79.65.52,1.18,1.12,1.88,1.59,1.28.86,3.01-.28,3.01-1.73s-.74-2.58-1.31-3.88c-.27-.61-.46-1.25-.8-1.83-.44-.75-1.07-1.29-1.63-1.94-.85-.99-1.42-2.34-2.03-3.49-.37-.68-.73-1.33-1.27-1.89-.49-.52-1.03-.91-1.45-1.5-.44-.62-.82-1.27-1.27-1.88-.41-.55-.94-1.04-1.29-1.62-.31-.51-.44-1.12-.68-1.67-.35-.78-.87-1.37-1.43-2-.97-1.1-1.64-2.49-2.41-3.73-.88-1.4-1.94-2.69-2.63-4.2-1.18-2.59-2.31-5.6-5.03-6.89-1.55-.73-3.08-.22-3.89,1.33-.76,1.45-.28,2.93-.18,4.46.09,1.42.05,2.86.08,4.29.03,1.67.49,3.24.56,4.91.03.74.04,1.31-.12,2.03-.16.72-.25,1.36-.18,2.07.17,1.57.7,3.11.77,4.69.04.86-.2,1.72-.21,2.58-.01.86.28,1.79.08,2.66-.2.87-.55,1.6-.49,2.51.05.84.33,1.59.23,2.43-.24,1.92-.47,3.84-.63,5.77-.09,1.03.06,1.88.26,2.88.18.91,0,1.84,0,2.76,0,1.08.91,2.01,2,2,1.92,0,3.29-.74,4.1-2.5.31-.67.81-1.1,1.31-1.65.65-.72,1.3-1.47,1.92-2.22.56-.68.95-1.45,1.47-2.16.46-.64,1.14-1,1.69-1.56.62-.62.93-1.34,1.26-2.13.33-.79.84-1.25,1.38-1.86,1.1-1.25,2.57-1.92,3.22-3.54.6-1.49,1.69-2.55,2.75-3.76,2.29-2.64,4.71-5.16,6.9-7.89.63-.78,1.33-1.26,2.08-1.92.69-.61,1.11-1.38,1.61-2.14s1.08-1.48,1.68-2.12c.63-.67,1.5-1.07,2.17-1.71,1.87-1.77-.96-4.6-2.83-2.83-.73.69-1.63,1.09-2.31,1.86-.72.82-1.47,1.7-2.07,2.61-.54.81-.91,1.36-1.68,1.96-.77.6-1.36,1.34-1.99,2.11-2.71,3.38-5.79,6.45-8.58,9.76-.34.4-.67.8-.91,1.27-.21.42-.29,1.02-.55,1.42-.37.57-1.16.88-1.65,1.35-.78.75-1.6,1.67-2.22,2.56-.54.78-.64,1.76-1.35,2.41-.71.65-1.38,1.14-1.94,1.94-.63.92-1.19,1.78-1.93,2.63s-1.53,1.65-2.23,2.51c-.38.48-.56.91-.82,1.46-.12.18-.09.21.1.09-.19.04-.38.05-.58.03l2,2c0-.99.17-1.98.03-2.96s-.38-1.69-.29-2.69c.16-1.91.44-3.81.64-5.72.1-.94-.29-1.78-.25-2.69.04-.91.57-1.67.6-2.57.03-.95-.2-1.88-.15-2.83.05-.95.24-1.86.13-2.85-.11-.99-.24-1.9-.4-2.83-.13-.76-.42-1.41-.27-2.18.34-1.76.38-3.5.11-5.29-.14-.93-.39-1.77-.41-2.71-.02-.86-.02-1.72-.05-2.57-.03-.85,0-1.72-.11-2.57-.05-.43-.16-.86-.19-1.29-.05-.83-.04-.33.02-.36h-2.02c.79.4,1.22.57,1.72,1.31.54.79.9,1.58,1.28,2.45.69,1.53,1.45,2.96,2.42,4.32,1.12,1.57,1.97,3.32,3.05,4.91.47.69,1.15,1.23,1.6,1.91.42.64.53,1.48.91,2.15.43.77,1.1,1.4,1.61,2.11.49.67.89,1.39,1.37,2.06.48.67,1.06,1.09,1.6,1.67.54.58.85,1.41,1.28,2.11.47.76.8,1.63,1.31,2.36.51.73,1.2,1.25,1.71,1.94.42.57.6,1.29.88,1.92.28.63.83,1.32.83,1.99l3.01-1.73c-.54-.36-.97-.9-1.47-1.3-.7-.56-1.47-.84-2.29-1.18-1.35-.56-2.69-1.24-3.89-2.08-1.38-.97-3.08-1.94-4.74-2.28-.59-.12-1.04-.19-1.53-.55-.71-.52-1.26-.99-2.1-1.29-1.46-.53-2.96-.81-4.33-1.6-1.37-.79-2.7-1.65-4.21-2.28s-3.02-1.03-4.51-1.57c-1.49-.54-3.26-.9-4.44-1.96l-.88,3.34c1.26-.27,2.45-.47,3.74-.58.69-.06,1.34-.16,1.98-.46.43-.2.88-.65,1.32-.77.48-.13,1.18.11,1.68.11.61,0,1.19-.12,1.76-.34.48-.19.95-.53,1.45-.66.62-.16,1.39.04,2.04,0,1.23-.1,2.61-.49,3.78-.9.6-.21,1.16-.56,1.79-.68.68-.13,1.4-.12,2.09-.21,1.2-.15,2.44-.22,3.65-.32.73-.06,1.48-.1,2.19-.3.71-.2,1.31-.51,2-.68,2.5-.6,1.44-4.46-1.06-3.86v.09Z"/>
      </g>
    </g>
  </g>
</svg>