<svg width="300" height="285" viewBox="0 0 300 285" fill="none" xmlns="http://www.w3.org/2000/svg">
<g clip-path="url(#clip0_30_1981)">
<path d="M160.98 72.03L133.12 42.39L129.8 82.94L93.1098 65.36L104.66 104.37L64.0998 101.24L88.9598 133.44L50.0098 145.17L84.8198 166.21L52.7298 191.22L92.7898 198.27L71.9098 233.18L111.82 225.28L104.95 265.38L139.31 243.6L147.39 283.47L171.56 250.75L193.5 285L204.22 245.76L237.06 269.77L232.87 229.31L272.16 239.84L253.65 203.62L294.09 199.25L263.74 172.17L299.87 153.48L261.79 139.19L288.73 108.71L248.05 109.14L262.17 70.99L224.39 86.09L223.77 45.41L194 73.13L178.73 35.43L160.98 72.03Z" fill="#F5DC5E"/>
<path d="M156.98 91.9L163.02 66.73L88.2099 48.76L82.1699 73.93C44.4199 80.27 12.2399 108.46 2.73993 148.02C-9.95007 200.86 22.5999 253.99 75.4399 266.68C128.28 279.37 181.41 246.82 194.1 193.98C203.6 154.41 187.74 114.69 156.98 91.9Z" fill="#393939"/>
<path d="M121.979 74.31L130.769 37.27C134.779 20.39 151.539 9.99 168.229 14.05C184.909 18.1 195.189 35.07 191.179 51.95L190.839 53.37C187.499 67.46 196.069 81.62 209.989 85C223.909 88.38 237.899 79.71 241.239 65.62L246.519 43.35" stroke="#393939" stroke-width="1.11" stroke-miterlimit="10"/>
<path d="M278.83 20.51L264.58 35.04L284.45 39.46L264.83 44.92L279.83 58.69L260.12 53.61L266.22 73.03L251.69 58.77L247.26 78.64L241.8 59.03L228.04 74.03L233.12 54.31L213.7 60.42L227.95 45.88L208.08 41.46L227.69 36L212.7 22.24L232.41 27.32L226.31 7.89L240.84 22.15L245.27 2.28L250.72 21.89L264.49 6.9L259.41 26.61L278.83 20.51Z" fill="#FAEF7C"/>
<path d="M278.83 20.51L264.58 35.04L284.45 39.46L264.83 44.92L279.83 58.69L260.12 53.61L266.22 73.03L251.69 58.77L247.26 78.64L241.8 59.03L228.04 74.03L233.12 54.31L213.7 60.42L227.95 45.88L208.08 41.46L227.69 36L212.7 22.24L232.41 27.32L226.31 7.89L240.84 22.15L245.27 2.28L250.72 21.89L264.49 6.9L259.41 26.61L278.83 20.51Z" stroke="#393939" stroke-width="1.11" stroke-miterlimit="10"/>
<path d="M125.75 168.5L121.21 188.49L110.76 186.12L121.9 137.07L132.35 139.44L128.22 157.61L140.48 160.4L138 171.3L125.74 168.51L125.75 168.5ZM102.88 204C103.42 201.64 102.94 199.52 101.45 197.66C99.8504 195.86 97.5604 194.58 94.6604 193.92C91.6604 193.24 89.1304 193.43 87.0104 194.38C84.7704 195.4 83.4304 197.1 82.9004 199.46C82.3804 201.73 82.8804 203.75 84.4804 205.55C85.9704 207.42 88.1604 208.68 91.1604 209.36C94.0704 210.02 96.6804 209.85 98.9204 208.83C101.05 207.88 102.37 206.27 102.88 204ZM115.73 139C112.8 151.9 109.62 161.69 106.38 168.4L95.8004 164.94C98.6004 158.51 100.77 152.31 102.11 146.41L92.5704 144.24L94.8404 134.25L115.73 139ZM115.14 206.78C113.96 211.96 110.88 215.84 105.97 218.55C100.99 221.14 95.1204 221.72 88.5804 220.24C82.0404 218.75 77.1804 215.74 73.9004 211.27C70.5504 206.69 69.4504 201.85 70.6204 196.67C71.8204 191.4 74.9204 187.43 79.9204 184.74C84.8104 182.13 90.4904 181.5 97.0404 182.99C103.58 184.48 108.62 187.53 111.99 192.02C115.25 196.58 116.33 201.51 115.13 206.78M91.1904 133.43C88.2604 146.33 83.1704 155.68 75.9304 161.49L66.8704 155.52C72.1504 151.18 75.5504 146.32 77.2004 140.77L67.1204 138.48L69.3904 128.49L91.1904 133.44V133.43ZM56.1604 171.99L58.5304 161.54L80.3304 166.49L82.4804 157.04L93.8304 159.62L91.6804 169.07C96.9504 170.27 103.42 170.78 110.96 170.39L110.23 180.35C103.11 181.41 93.7604 180.52 82.0404 177.86L56.1504 171.98L56.1604 171.99Z" fill="#FAEF7C"/>
</g>
<defs>
<clipPath id="clip0_30_1981">
<rect width="299.87" height="285" fill="white"/>
</clipPath>
</defs>
</svg>
