<?xml version="1.0" encoding="UTF-8"?>
<svg id="_레이어_1" data-name="레이어 1" xmlns="http://www.w3.org/2000/svg" version="1.1" viewBox="0 0 142 142">
  <defs>
    <style>
      .cls-1 {
        fill: #231815;
      }

      .cls-1, .cls-2, .cls-3, .cls-4 {
        stroke-width: 0px;
      }

      .cls-2 {
        fill: #292929;
      }

      .cls-3 {
        fill: #fff7d6;
      }

      .cls-5 {
        stroke: #fff075;
        stroke-width: 1.5px;
      }

      .cls-5, .cls-6 {
        fill: none;
        stroke-miterlimit: 10;
      }

      .cls-6 {
        stroke: #fcf7e8;
        stroke-linecap: round;
        stroke-width: 2px;
      }

      .cls-4 {
        fill: #fff;
      }
    </style>
  </defs>
  <path class="cls-4" d="M70.9,72h0s0,0,0,0Z"/>
  <path class="cls-4" d="M70.9,72h0s0,0,0,0Z"/>
  <polygon class="cls-3" points="70.9 72 70.9 72 70.9 72 70.9 72"/>
  <path class="cls-2" d="M142.2,71.3c0,39.1-31.7,70.8-70.7,70.8S.7,110.4.7,71.3,32.4.5,71.5.5s70.7,31.7,70.7,70.8"/>
  <path class="cls-6" d="M28.2,49.8l13.8,4.9M44.6,33.9l9,9.8M68.6,26.8l1.7,12.1M93.7,30.4l-6,11.2M113.4,43.7l-12.1,7.2M122.2,63.1l-14.9,1.4M117.9,83.5l-13.8-4.9M101.5,99.4l-9-9.8M77.5,106.5l-1.7-12.1M52.3,102.9l6-11.2M32.7,89.6l12.1-7.2M23.9,70.2l14.9-1.4"/>
  <path class="cls-1" d="M48.4,52.3c-7,.8-14.2,5-15,12.7-.4,3.8,1.3,6.8,2.9,10.1.2.5.9,1.8.9,2.1,0,.2-1,.8-1.4.7-2.5-.3-5,.7-5.6,3.4-.6,2.2.9,5.3,3.4,5.7,3.9.5,7.7-.4,10.5-3.4,2.8-3,2.9-7.4,1.4-11-.9-2.1-3.3-5-2.6-7.2.7-2.3,3.8-3.5,5.9-3.7,2.5-.3,4.6-2.1,4.5-4.8,0-2.3-2.2-4.9-4.7-4.6"/>
  <path class="cls-5" d="M48.4,52.3c-7,.8-14.2,5-15,12.7-.4,3.8,1.3,6.8,2.9,10.1.2.5.9,1.8.9,2.1,0,.2-1,.8-1.4.7-2.5-.3-5,.7-5.6,3.4-.6,2.2.9,5.3,3.4,5.7,3.9.5,7.7-.4,10.5-3.4,2.8-3,2.9-7.4,1.4-11-.9-2.1-3.3-5-2.6-7.2.7-2.3,3.8-3.5,5.9-3.7,2.5-.3,4.6-2.1,4.5-4.8,0-2.3-2.2-4.9-4.7-4.6Z"/>
  <path class="cls-1" d="M61.1,61.8c-.6,1.7-2.8,3-2.8,3l1.1-4.6s2.2,0,1.6,1.6M66.2,53.2c-2.8-1.5-6-1.5-9-.6-2.3-.2-4.1,1.4-4.8,3.5-2.8,7.7-4.5,15.7-5.1,23.9-.2,2.5,2.4,4.6,4.7,4.6,2.7,0,4.3-2.2,4.5-4.8.1-1.7.3-3.4.6-5,5.9-1.8,12.6-6.3,13.4-12.8.4-3.5-1.3-7-4.4-8.8"/>
  <path class="cls-5" d="M61.1,61.8c-.6,1.7-2.8,3-2.8,3l1.1-4.6s2.2,0,1.6,1.6ZM66.2,53.2c-2.8-1.5-6-1.5-9-.6-2.3-.2-4.1,1.4-4.8,3.5-2.8,7.7-4.5,15.7-5.1,23.9-.2,2.5,2.4,4.6,4.7,4.6,2.7,0,4.3-2.2,4.5-4.8.1-1.7.3-3.4.6-5,5.9-1.8,12.6-6.3,13.4-12.8.4-3.5-1.3-7-4.4-8.8Z"/>
  <path class="cls-1" d="M69.8,56c-1.6,7.4-2.7,15-3.3,22.6-.2,2.5,2.4,4.6,4.6,4.6,2.7,0,4.3-2.2,4.5-4.8.5-6.8,1.6-13.5,3-20.1,1.3-5.8-7.5-8.1-8.8-2.3"/>
  <path class="cls-5" d="M69.8,56c-1.6,7.4-2.7,15-3.3,22.6-.2,2.5,2.4,4.6,4.6,4.6,2.7,0,4.3-2.2,4.5-4.8.5-6.8,1.6-13.5,3-20.1,1.3-5.8-7.5-8.1-8.8-2.3Z"/>
  <path class="cls-1" d="M101.6,50.6c-2.6-.7-4.9,1-5.7,3.4-.9,2.6-1.7,5.2-2.6,7.8-.2.6-.4,1.2-.6,1.9,0-.4-.2-.8-.2-1.1-.8-4.1-1.7-10.3-7.3-10-5.4.3-6.5,6.6-7.2,10.8-.9,4.9-1.4,9.9-1.6,14.9,0,2.5,2.3,4.6,4.8,4.6,2.6,0,4.5-2.2,4.6-4.8,0-1.6.1-3.2.3-4.8.8,2,1.7,4,2.7,5.9.9,1.7,3.5,2.7,5.3,2,3.7-1.3,4.4-4.4,5.5-7.7.8-2.5,1.6-5.1,2.4-7.6,1-3.2,2.1-6.4,3.1-9.5.8-2.4-1.1-5.1-3.4-5.7"/>
  <path class="cls-5" d="M101.6,50.6c-2.6-.7-4.9,1-5.7,3.4-.9,2.6-1.7,5.2-2.6,7.8-.2.6-.4,1.2-.6,1.9,0-.4-.2-.8-.2-1.1-.8-4.1-1.7-10.3-7.3-10-5.4.3-6.5,6.6-7.2,10.8-.9,4.9-1.4,9.9-1.6,14.9,0,2.5,2.3,4.6,4.8,4.6,2.6,0,4.5-2.2,4.6-4.8,0-1.6.1-3.2.3-4.8.8,2,1.7,4,2.7,5.9.9,1.7,3.5,2.7,5.3,2,3.7-1.3,4.4-4.4,5.5-7.7.8-2.5,1.6-5.1,2.4-7.6,1-3.2,2.1-6.4,3.1-9.5.8-2.4-1.1-5.1-3.4-5.7Z"/>
  <path class="cls-1" d="M108.8,52.9c-1.4,4.5-2.5,9.2-3.4,13.8-.4,2.1.3,4.2,2.4,5,1.8.6,4.5-.4,4.9-2.5.9-4.7,2-9.3,3.4-13.8,1.5-4.8-5.9-7.3-7.3-2.5"/>
  <path class="cls-5" d="M108.8,52.9c-1.4,4.5-2.5,9.2-3.4,13.8-.4,2.1.3,4.2,2.4,5,1.8.6,4.5-.4,4.9-2.5.9-4.7,2-9.3,3.4-13.8,1.5-4.8-5.9-7.3-7.3-2.5Z"/>
  <path class="cls-1" d="M112.2,74c-1.5-2.7-5.1-3.2-7.3-1.2-1,.9-1.6,2.3-1.7,3.6,0,1.2.3,2.3.8,3.4.3.8,1.4,1.6,2.2,1.9.3,0,.5.1.8.2,0,0,.1,0,.2,0,1.9.2,3.4-1.2,4.4-2.6,1.1-1.5,1.5-3.6.6-5.3"/>
  <path class="cls-5" d="M112.2,74c-1.5-2.7-5.1-3.2-7.3-1.2-1,.9-1.6,2.3-1.7,3.6,0,1.2.3,2.3.8,3.4.3.8,1.4,1.6,2.2,1.9.3,0,.5.1.8.2,0,0,.1,0,.2,0,1.9.2,3.4-1.2,4.4-2.6,1.1-1.5,1.5-3.6.6-5.3Z"/>
</svg>