<?xml version="1.0" encoding="UTF-8"?>
<svg id="_레이어_1" data-name="레이어 1" xmlns="http://www.w3.org/2000/svg" version="1.1" viewBox="0 0 173 50.1">
  <defs>
    <style>
      .cls-1 {
        fill: none;
        stroke: #040000;
        stroke-miterlimit: 10;
      }

      .cls-2 {
        fill: #8865a8;
      }

      .cls-2, .cls-3 {
        stroke-width: 0px;
      }

      .cls-3 {
        fill: #fff;
      }
    </style>
  </defs>
  <path class="cls-2" d="M25.1.5C11.5.5.5,11.5.5,25.1s11,24.6,24.6,24.6h122.9c13.6,0,24.6-11,24.6-24.6S161.5.5,147.9.5H25.1Z"/>
  <path class="cls-1" d="M25.1.5C11.5.5.5,11.5.5,25.1s11,24.6,24.6,24.6h122.9c13.6,0,24.6-11,24.6-24.6S161.5.5,147.9.5H25.1Z"/>
  <g>
    <path class="cls-3" d="M58.8,24.7v3.5c-3.5.4-6.9.6-10.3.8v9.1h-3.9v-9c-3.4,0-6.9,0-10.3,0v-3.5c8.3,0,16.3,0,24.6-1ZM35.4,12.5h22.2v2.3c0,3.3-.4,6.7-.8,8.9-.9,0-3,.3-3.9.3.4-2.5.8-5.9.8-8.1h-18.3v-3.5Z"/>
    <path class="cls-3" d="M60.6,24.3h10.3v-2.1h-9.1v-9.7h22.2v3.2h-18.4v3.2h18.5v3.2h-9.3v2.1h10.3v3.3h-24.6v-3.3ZM80.1,32.8h-18.3v-3.3h22.2v8.6h-3.9v-5.3Z"/>
    <path class="cls-3" d="M87,14h5.8v-2.7h3.9v2.7h5.8v3.5h-15.6v-3.5ZM87.6,26c0-4.1,3.2-7,7.2-7s7.2,2.9,7.2,7v4.5c0,4.1-3.2,7-7.2,7s-7.2-2.9-7.2-7v-4.5ZM94.8,34.2c2,0,3.4-1.6,3.4-3.7v-4.5c0-2.1-1.4-3.7-3.4-3.7s-3.4,1.6-3.4,3.7v4.5c0,2.1,1.4,3.7,3.4,3.7ZM105.9,11.9h3.9v10.2h3v3.7h-3v12.3h-3.9V11.9Z"/>
    <path class="cls-3" d="M113.8,33.5c5.7-.8,11.1-5.3,11.1-14.5v-3h-10.5v-3.5h14.4v6.5c0,10.2-6.1,17.1-15,18.2v-3.7ZM133,11.9h3.9v26.2h-3.9V11.9Z"/>
  </g>
</svg>