<?xml version="1.0" encoding="UTF-8"?>
<svg id="_레이어_1" data-name="레이어 1" xmlns="http://www.w3.org/2000/svg" version="1.1" viewBox="0 0 600 430">
  <defs>
    <style>
      .cls-1 {
        fill: #edad8f;
      }

      .cls-1, .cls-2, .cls-3, .cls-4, .cls-5, .cls-6, .cls-7, .cls-8, .cls-9 {
        stroke-width: 0px;
      }

      .cls-2 {
        fill: #00bf78;
      }

      .cls-3 {
        fill: #000;
      }

      .cls-4 {
        fill: #e3543d;
      }

      .cls-5 {
        fill: #fdf6b2;
      }

      .cls-6 {
        fill: #8f9699;
      }

      .cls-7 {
        fill: #ffc43b;
      }

      .cls-8 {
        fill: #fafaf5;
      }

      .cls-9 {
        fill: #fff;
      }
    </style>
  </defs>
  <path class="cls-5" d="M261.5,415.4c112.7,0,204-91.3,204-204S374.2,7.4,261.5,7.4,57.5,98.7,57.5,211.4s91.3,204,204,204"/>
  <path class="cls-9" d="M237,262.7c-3.8-1.5-7.7-2-11.7-2,3.7,2.8,6.4,6.8,8,11.1,2.1,5.6,1.8,11.7,3.5,17.4,2.8,9.2,12.6,14.5,21.5,12.4-4.4-6.2-5.6-14-7.7-21.2-2.2-7.7-5.8-14.7-13.7-17.7"/>
  <path class="cls-9" d="M145.5,156.8c.5-.9,1.4-1.3,2.4-1.2.9,0,1.8.3,2.2,1.2.7,1.3,1,2.7.9,4.1-.2,1.8-1.2,3.8-3.3,3.8s-3-2-3.2-3.8c0-1.4.3-2.8.9-4.1M154.2,175.4c1.8-1,3.5-2,5.3-3,.4-.2.9-.5,1.3-.8l.3-4.3c0,0,0-.1,0-.1,0,0-.2-.2-.2-.2-.3-.4-.7-.8-.9-1.2-.5-.9-.7-2.1-.4-3.1.3-1.1,1.2-2,2.2-2.4.5-.2,1-.3,1.5-.4h0c.4,0,.8-.1,1.1-.1h0c0,0,.1,0,.2,0,.4,0,.8,0,1.1.2.1,0,.3,0,.4.1,2.1.8,3.6,2.6,3,5-.4,1.6-1.6,2.5-2.9,3.2,0,1.4-.2,2.7-.3,4.1,0,.1.2.2.3.3,1.4,1.4,2.7,2.9,4,4.3,2.2,2.4-1.4,6-3.6,3.6-.9-1-1.8-1.9-2.7-2.9-.4-.4-.8-.8-1.1-1.2-1.8,1.3-4.1,2.2-6,3.3-2.8,1.6-5.4-2.8-2.6-4.4M178.5,160.9c.1-1.2.7-2.3,1.6-3.1,1.1-1,3.3-1.1,4,.5,1.1,2.4,1.6,6.6-1.5,7.7-1.7.6-3.5-.5-4-2.2-.3-.9-.3-2,0-2.9M137.9,209c3.2,6.5,10.7,8.6,16.6,5.4.6-.8,1.4-1.6,2.2-2.3.2-.3.5-.5.8-.8.5-.5,1.1-.7,1.7-.8,3-1.5,6.5-1.8,9.8-.7,3.4,1.2,6,3.6,7.3,6.6,2.9.9,6.2-.6,7.1-4.3.4-1.5,2.4-2.5,3.7-1.5,5.7,4.2,13.5,1.8,15.3-5.2.4-1.7,2.3-2.2,3.7-1.5,5.4,2.7,11.5-1.9,10.3-7.9-.4-1.9,1.1-3.1,2.6-3.2.6-.2,1.3-.2,2.1,0,2.1,1,4.5-.6,5.5-2.4,1.4-2.5,1.1-5.7.6-8.4-.5-2.7,3.1-4.6,4.6-2,.7,1.2,2.4-2.4,2.6-2.8.7-1.6,1.5-3,2.6-4.4,2.2-2.8,5.2-4.7,8.6-5.8,0,0,0,0,.1,0,.5-1,.9-2.1,1-3.2.4-2.4.2-4.9-.8-7.2-.5-1.2-1.2-2.4-2-3.4-.7-.9-2.3-1.8-2.7-3-.4-1.3.8-3.1,1.2-4.3.3-1.1.5-2.2.7-3.4.2-2.3,0-4.6-.5-6.9-1.1-4.2-3.4-7.8-6.8-10.5,1.9-6.2.3-13.2-4.1-18-3.9-4.1-9.5-6-15-5.6-1-8.8-10.6-14-19-10.3-1.7-2.9-4.3-5.2-7.5-6.3-2.4-.8-5.1-.9-7.6-.3-1.1.3-2.2.7-3.2,1.2-.7.3-2.3,1.8-2.9,1.7-.7-.1-1.8-1.7-2.3-2.1-1-.8-2-1.4-3.1-1.9-2.2-1-4.5-1.4-6.9-1.2-3.5.3-6.6,1.9-9,4.4-1-1-2.1-1.9-3.3-2.5-3.3-1.7-7.3-2.1-10.8-.9-3.1,1-6.1,2.9-8.3,5.2-1.1,1.1-2,2.4-2.8,3.7-.3.5-.7,1-1,1.6-.1.2-.3.4-.4.4-1,.3-2.5-.1-3.5-.1-1.5,0-3,.3-4.5.8-2.7,1-4.9,2.8-6.4,5.2-1.5,2.6-1.9,5.5-1.8,8.5,0,1.1.2,1.9-.8,2.6-1.3,1-3.3,1.2-4.8,1.8-7.4,3.2-6.2,10.7-4.1,17-7,3.2-10,12-5.6,18.8-5.2,5.2-4.3,13.7,1.4,18-4,6.1-1.8,14.7,4.7,18-2,3.4-2.3,7.8,0,11.3,2.1,3.1,5.9,4.6,9.6,4.3,0,2.8,1.1,5.7,3.3,7.5.7.6,1.4,1,2.2,1.3,1.6.7,3.4.9,5.2.6,1-.2,2-.5,3-1,.4.5.8,1,1.3,1.5,2.4-.2,4.7-1,6.8-2.6,1-.8,2.9-.2,3.5.9"/>
  <path class="cls-9" d="M298.4,175c.3-5.1-1.2-10.6-6-13.2-2.9-1.6-6.7-1.6-9.6,0-1.5-3.4-4.3-6.1-8-7.1-4.7-1.3-9.6.6-12.7,4.2-4.3-1.4-9.4-.2-12.2,3.6-1.2,1.7-1.8,3.7-1.9,5.7,0,.9,0,1.8.2,2.6,0,.3.1.6.2.9-.2,0-.4-.2-.7-.3-.3.3-.6.6-1.1.7-2.4.8-4.6,2.3-6.2,4.3-1.4,1.8-2,4.1-3.3,6-1.2,1.6-3,2.6-4.8,2.9.1,3.4-.5,6.8-2.8,9.4-2.1,2.5-5.2,3.8-8.2,3.5-.5,7.6-7.7,13-15.2,11.1-3.4,7.2-12.1,10.5-19.3,7.1-2.1,3.5-6,5.3-9.7,5.2-.1,1.8-.7,3.7-1.8,5.4-4.1,6.2-13.1,8.3-18.9,3.1,0,0,0,0,0,0-.2-.2-.5-.3-.7-.5-2.7-2.2-3.9-5.7-3.6-9.1-6.3,1.2-13.2-1.2-17.2-6.8-2.2,1.2-4.7,1.9-7.2,1.9-.8,14-1.6,28-1.8,42-.2,8.7-.2,17.5,0,26.2.2,6.1,1.1,13.1,6.3,17.1,6.2,4.9,13.9,3.1,20.7.4-.2-19.5.2-39,1.1-58.6.2-3.3,5.2-3.3,5.1,0-1,19.6-1.3,39.1-1.1,58.7,7.8,4.3,17.1,5.4,24.5-.9,8.6-7.3,9.6-19.4,13-29.4,1.9-5.5,5-10.9,10.6-13.4,2.6-1.1,5.4-1.6,8.2-1.4,7-1,14.1-1.5,21,.3,7.3,1.9,13.3,6.4,16.8,13.1,3.6,7,4.5,14.9,7.2,22.3,1.3,3.5,3.4,7.3,6.4,10,2.5,1.6,5.3,2.8,8.3,3.3.6,0,1.1.2,1.7.2.5,0,1.1,0,1.6,0,6.8,0,13.6-3.8,16.2-10.3,1.7-4.2,1.6-8.7,1.5-13.2-.1-5.2-.3-10.4-.4-15.5-.3-10.7-.6-21.4-.9-32.1l-.9-33.1c-3.2-.4-6.3-1.4-9.2-2.9-2.9-1.5-.3-5.9,2.6-4.4,3.2,1.7,6.8,2.5,10.4,2.5,3.9-2.3,7.3-5.7,7.9-10.4.6-4.8-1.8-9.6-6.1-11.4"/>
  <path class="cls-3" d="M259.3,292.2c-2.7-7.4-3.5-15.3-7.2-22.3-3.5-6.7-9.5-11.2-16.8-13.1-6.9-1.8-14-1.2-21-.3,2.8.1,5.6.9,8,2.2,1.1.6,2.1,1.2,3,2,4,0,7.9.5,11.7,2,7.9,3.1,11.5,10,13.7,17.7,2.1,7.2,3.3,14.9,7.7,21.2,1.5-.3,2.9-.9,4.3-1.7,1,.8,2,1.6,3.1,2.3-3-2.7-5.2-6.5-6.4-10"/>
  <path class="cls-3" d="M159,243c.2-3.3-4.9-3.3-5.1,0-.9,19.5-1.3,39-1.1,58.5,1-.4,1.9-.8,2.8-1.2.7.5,1.5.9,2.2,1.3-.2-19.6.2-39.2,1.1-58.7"/>
  <path class="cls-3" d="M147.8,164.7c2.1,0,3.1-1.9,3.3-3.8.1-1.4-.2-2.8-.9-4.1-.5-.9-1.4-1.2-2.2-1.2-.9,0-1.9.3-2.4,1.2-.6,1.3-1,2.6-.9,4.1.1,1.8,1.1,3.8,3.2,3.8"/>
  <path class="cls-3" d="M182.5,166c3.2-1.1,2.6-5.3,1.5-7.7-.7-1.6-2.9-1.5-4-.5-.9.8-1.4,1.9-1.6,3.1-.2,1-.2,2,0,2.9.5,1.7,2.3,2.8,4,2.2"/>
  <path class="cls-3" d="M156.8,179.8c1.9-1.1,4.1-2,6-3.3.4.4.8.8,1.1,1.2.9,1,1.8,1.9,2.7,2.9,2.2,2.4,5.8-1.2,3.6-3.6-1.3-1.4-2.6-2.9-4-4.3-.1-.1-.2-.2-.3-.3,0-1.4.2-2.7.3-4.1,1.4-.7,2.5-1.6,2.9-3.2.6-2.3-.9-4.2-3-5-.1,0-.3,0-.4-.1h0c-.3-.2-.7-.3-1.1-.2,0,0-.1,0-.2,0-.4,0-.8,0-1.1.1-.5,0-1,.2-1.5.4-1,.4-1.9,1.3-2.2,2.4-.3,1,0,2.2.4,3.1.3.4.6.8.9,1.2,0,0,.1.1.2.2,0,0,0,0,0,.1l-.3,4.3c-.5.3-.9.5-1.3.8-1.8,1-3.5,2-5.3,3-2.8,1.6-.3,6,2.6,4.4"/>
  <path class="cls-3" d="M152,220.6c0-.7.2-1.4.4-2.1.4-1.5,1.1-2.9,2-4.1-5.8,3.2-13.3,1.1-16.6-5.4-.6-1.1-2.4-1.7-3.5-.9-2,1.6-4.4,2.4-6.8,2.6.1.1.2.2.3.3,0,1.6-.2,3.2-.3,4.8,2.5,0,5-.7,7.2-1.9,4,5.6,10.8,8,17.2,6.8"/>
  <path class="cls-3" d="M236.8,173.2c-1.1,1.4-1.8,2.8-2.6,4.4-.2.4-2,3.9-2.6,2.8-1.5-2.7-5.1-.7-4.6,2,.5,2.7.8,5.9-.6,8.4-1,1.8-3.4,3.4-5.5,2.4-.7-.3-1.4-.3-2.1,0-1.5,0-3,1.3-2.6,3.2,1.2,5.9-4.9,10.6-10.3,7.9-1.4-.7-3.3-.1-3.7,1.5-1.9,7-9.6,9.4-15.3,5.2-1.3-1-3.4,0-3.7,1.5-.9,3.7-4.2,5.2-7.1,4.3.7,1.6,1.1,3.4,1,5.3,3.8.1,7.7-1.7,9.7-5.2,7.2,3.4,15.9,0,19.3-7.1,7.5,1.9,14.7-3.5,15.2-11.1,3.1.3,6.1-1,8.2-3.5,2.3-2.7,2.9-6,2.8-9.4,1.9-.2,3.7-1.3,4.8-2.9,1.4-1.9,1.9-4.1,3.3-6,1.6-2.1,3.8-3.5,6.2-4.3.5-.2.8-.4,1.1-.7-1.4-.6-2.8-1-4.3-1.3.8-.9,1.5-1.8,2-2.9,0,0,0,0-.1,0-3.4,1.1-6.3,3-8.6,5.8"/>
  <path class="cls-7" d="M167.9,224.1c-3.4,1.1-7,1.1-10.4,0-3.1-1-1.8-5.9,1.3-4.9,2.6.8,5.1.8,7.7,0,3.1-1,4.4,3.9,1.3,4.9M176.1,216.5c-1.3-3-3.9-5.5-7.3-6.6-3.3-1.1-6.8-.8-9.8.7-.6,0-1.1.3-1.7.8-.3.2-.5.5-.8.8-.8.7-1.5,1.4-2.2,2.3-.9,1.2-1.6,2.6-2,4.1-.2.7-.3,1.4-.4,2.1-.3,3.4.9,6.9,3.6,9.1.2.2.5.4.7.5,0,0,0,0,0,0,5.7,5.2,14.8,3.1,18.9-3.1,1.2-1.7,1.7-3.6,1.8-5.4.1-1.8-.2-3.6-1-5.3"/>
  <path class="cls-3" d="M166.6,219.2c-2.6.8-5.1.8-7.7,0-3.1-1-4.4,3.9-1.3,4.9,3.4,1.1,7,1.1,10.4,0,3.1-1,1.8-5.9-1.3-4.9"/>
  <path class="cls-3" d="M283.6,198.8c3,1.5,6.1,2.5,9.2,2.9,0-.9,0-1.9,0-2.9,1.3-.5,2.6-1.2,3.8-1.9-3.6,0-7.2-.8-10.4-2.5-2.9-1.5-5.5,2.9-2.6,4.4"/>
  <path class="cls-3" d="M439.8,74.5c-.2-5.5-3.7-10.8-8.8-12.9-1.7-.7-3.4-1-5.2-1.2-2.9-.3-5.9-.2-8.7-.8-.8-.2-1.5-.4-2.2-.7-4.3-3.6-9-7.1-14.8-7.5-5-.3-10.5,2.5-11.9,7.7-.8,3.2.4,6.3.5,9.5,0,2.4-.5,4.7-1.3,7-.3,1-.7,1.9-1,2.9-.5,1.3-1,2.7-1.4,4.1-1.2,4.3-1.7,8.9.7,13,2.6,4.5,7.8,7,12.8,7.4,6.5.6,12.8-2,18.6-4.6,5.6-2.6,11-5.7,15.6-9.9,3.9-3.6,7.3-8.4,7.1-14"/>
  <path class="cls-3" d="M420,33.2c-.3.2-.5.6-.5,1,0,0,0,0,0,0,0,.2-.1.4-.2.6-.3,1.3-.2,2.5,0,3.7,0,1.4,0,2.8.2,4.2.2,2.5.4,5,1.5,7.3,2,4,7.2,5.6,11,3.3,4.3-2.6,4.5-7.7,2.5-11.9-1.1-2.3-2.7-4.4-4.5-6.2-1.6-1.7-3.6-3.7-6-4-1.7-.2-3.2.6-4.1,1.9"/>
  <path class="cls-3" d="M392.8,20.6c-.2.7-.2,1.5,0,2.3,0,0,0,.2,0,.3,0,0,0,.2,0,.2,0,0,0,.2,0,.3.6,2.6,1.2,5.2,1.7,7.7.5,2.2.9,4.5,2.3,6.2,2.9,3.4,8.1,2.2,11.4,0,1.8-1.2,3.3-2.9,3.5-5.1.3-2.4-.8-4.6-2.2-6.4-2.8-3.5-6.8-6-11.1-7-1.9-.5-5-1.1-5.6,1.5"/>
  <path class="cls-3" d="M389.8,42.3c.8-4.9-3.8-9-7.1-11.9-1.6-1.4-3.5-3.1-5.8-2.7-2.1.4-3.1,2.3-3.4,4.2-.3,2.6,0,5.3.2,7.9.3,2.6.6,5.3,1.5,7.7.8,2.3,2.8,3.7,5.2,2.8.6-.2,1.2-.5,1.7-.9,3.5-1.2,6.9-3.2,7.6-7.2"/>
  <path class="cls-3" d="M378.9,62.5c-1.6-3.2-4.5-5.5-7.7-7-1.6-.7-3.6-1.6-5.3-1-.5.2-.9.5-1.3.8-.2.1-.3.3-.5.5-2,2.1-1.2,6.4-.9,8.9.4,3.3.7,7.5,2.7,10.3,1.7,2.4,5,3.1,7.8,2.2,1.8-.6,3.3-1.7,4.3-3,.1,0,.3-.1.4-.3,1.2-1.1,1.6-2.5,1.5-3.9.5-2.5.2-5.3-1-7.7"/>
  <path class="cls-3" d="M363.6,53.1c.7-.1,1.2-.7,1.2-1.4.1-1.1-.2-2.2-.8-3.1,0-.1-.2-.2-.3-.3-.3-.5-.9-.7-1.5-.5-.7.2-1.2,1-1,1.7.3.9.6,1.7.8,2.6.2.7.8,1.1,1.6,1"/>
  <path class="cls-3" d="M372.4,24.8c.2.7.8,1.1,1.6,1,.7-.1,1.2-.7,1.2-1.4.1-1.1-.2-2.2-.8-3.1,0-.1-.2-.2-.3-.3-.3-.5-.9-.7-1.5-.5-.7.2-1.2,1-1,1.7.3.9.6,1.7.8,2.6"/>
  <path class="cls-3" d="M419.2,29.8c.4.4,1,.5,1.6.3.5-.2.9-.7.9-1.3,0-1.3-.6-2.4-1.6-3.2-.2-.2-.4-.4-.7-.5-.1,0-.2,0-.3,0-.2,0-.4,0-.5,0-.2,0-.4.2-.6.3-.1,0-.2.2-.3.3-.2.4-.2.8,0,1.2.2,1.1.8,2.1,1.6,2.8"/>
  <path class="cls-3" d="M392.3,16.8c.4.4,1,.5,1.6.3.5-.2.9-.7.9-1.3,0-1.3-.6-2.4-1.6-3.2-.2-.2-.4-.4-.7-.5-.1,0-.2,0-.3,0-.2,0-.4,0-.5,0-.2,0-.4.2-.6.3-.1,0-.2.2-.3.3-.2.4-.2.8,0,1.2.2,1.1.8,2.1,1.6,2.8"/>
  <path class="cls-3" d="M527.5,121.1c-.2-5.5-3.7-10.8-8.8-12.9-1.7-.7-3.4-1-5.2-1.2-2.9-.3-5.9-.2-8.7-.8-.8-.2-1.5-.4-2.2-.7-4.3-3.6-9-7.1-14.8-7.5-5-.3-10.5,2.5-11.9,7.7-.8,3.2.4,6.3.5,9.5,0,2.4-.5,4.7-1.3,7-.3,1-.7,1.9-1,2.9-.5,1.3-1,2.7-1.4,4.1-1.2,4.3-1.7,8.9.7,13,2.6,4.5,7.8,7,12.8,7.4,6.5.6,12.8-2,18.6-4.6,5.6-2.6,11-5.7,15.6-9.9,3.9-3.6,7.3-8.4,7.1-14"/>
  <path class="cls-3" d="M507.7,79.8c-.3.2-.5.6-.5,1,0,0,0,0,0,0,0,.2-.1.4-.2.6-.3,1.3-.2,2.5,0,3.7,0,1.4,0,2.8.2,4.2.2,2.5.4,5,1.5,7.3,2,4,7.2,5.6,11,3.3,4.3-2.6,4.5-7.7,2.5-11.9-1.1-2.3-2.7-4.4-4.5-6.2-1.6-1.7-3.6-3.7-6-4-1.7-.2-3.2.6-4.1,1.9"/>
  <path class="cls-3" d="M480.5,67.1c-.2.7-.2,1.5,0,2.3,0,0,0,.2,0,.3,0,0,0,.2,0,.2,0,0,0,.2,0,.3.6,2.6,1.2,5.2,1.7,7.7.5,2.2.9,4.5,2.3,6.2,2.9,3.4,8.1,2.2,11.4,0,1.8-1.2,3.3-2.9,3.5-5.1.3-2.4-.8-4.6-2.2-6.4-2.8-3.5-6.8-6-11.1-7-1.9-.5-5-1.1-5.6,1.5"/>
  <path class="cls-3" d="M477.5,88.9c.8-4.9-3.8-9-7.1-11.9-1.6-1.4-3.5-3.1-5.8-2.7-2.1.4-3.1,2.3-3.4,4.2-.3,2.6,0,5.3.2,7.9.3,2.6.6,5.3,1.5,7.7.8,2.3,2.8,3.7,5.2,2.8.6-.2,1.2-.5,1.7-.9,3.5-1.2,6.9-3.2,7.6-7.2"/>
  <path class="cls-3" d="M466.6,109c-1.6-3.2-4.5-5.5-7.7-7-1.6-.7-3.6-1.6-5.3-1-.5.2-.9.5-1.3.8-.2.1-.3.3-.5.5-2,2.1-1.2,6.4-.9,8.9.4,3.3.7,7.5,2.7,10.3,1.7,2.4,5,3.1,7.8,2.2,1.8-.6,3.3-1.7,4.3-3,.1,0,.3-.1.4-.3,1.2-1.1,1.6-2.5,1.5-3.9.5-2.5.2-5.3-1-7.7"/>
  <path class="cls-3" d="M451.4,99.6c.7-.1,1.2-.7,1.2-1.4.1-1.1-.2-2.2-.8-3.1,0-.1-.2-.2-.3-.3-.3-.5-.9-.7-1.5-.5-.7.2-1.2,1-1,1.7.3.9.6,1.7.8,2.6.2.7.8,1.1,1.6,1"/>
  <path class="cls-3" d="M460.1,71.3c.2.7.8,1.1,1.6,1,.7-.1,1.2-.7,1.2-1.4.1-1.1-.2-2.2-.8-3.1,0-.1-.2-.2-.3-.3-.3-.5-.9-.7-1.5-.5-.7.2-1.2,1-1,1.7.3.9.6,1.7.8,2.6"/>
  <path class="cls-3" d="M506.9,76.4c.4.4,1,.5,1.6.3.5-.2.9-.7.9-1.3,0-1.3-.6-2.4-1.6-3.2-.2-.2-.4-.4-.7-.5-.1,0-.2,0-.3,0-.2,0-.4,0-.5,0-.2,0-.4.2-.6.3-.1,0-.2.2-.3.3-.2.4-.2.8,0,1.2.2,1.1.8,2.1,1.6,2.8"/>
  <path class="cls-3" d="M480,63.4c.4.4,1,.5,1.6.3.5-.2.9-.7.9-1.3,0-1.3-.6-2.4-1.6-3.2-.2-.2-.4-.4-.7-.5-.1,0-.2,0-.3,0-.2,0-.4,0-.5,0-.2,0-.4.2-.6.3-.1,0-.2.2-.3.3-.2.4-.2.8,0,1.2.2,1.1.8,2.1,1.6,2.8"/>
  <path class="cls-2" d="M177,405.8c-.4-2.2-1.2-4.9-3.3-6-2.1-1.1-4.8-.3-7,.5,0,.2.2.4.3.6,1.3,3.1,3.3,7.9-.5,10.2-1.5.9-3,.8-4.4.3-.5,2-2,3.6-4,4.4-1,.4-2.1.5-3.2.5,0,.1-.1.2-.3.3-3.3,2.9-7.8,2.5-11.3.3-.4.2-.7.4-1.1.5,8,5.4,18.5,6.8,27.6,3.4,1.6-.6,3.1-1.3,4.6-2.1,2.3-3.8,3.3-8.4,2.5-12.9"/>
  <path class="cls-2" d="M161.9,388.7c1.2,2.7,2.3,5.5,3.5,8.2,9-3.4,17.4-8.3,24.8-14.4,1.2-2,1.7-4.4,1.1-6.7-.7-2.4-2.5-4.4-4.8-5.4-7,7.5-15.4,13.7-24.6,18.2"/>
  <path class="cls-2" d="M134.9,407.2c-1.5,1-3.1,1.9-4.6,2.9.2,2.6,1.6,5.1,3.9,6.4,1.1.6,2.2.9,3.4.9,1.2-.8,2.4-1.6,3.6-2.2-2.5-2.2-4.5-5.1-6.3-8"/>
  <path class="cls-2" d="M129.6,397.3c-2.2,1.1-4.4,2.3-6.5,3.6-.2,1.6,0,3.3,1,4.8.9,1.4,2.3,2.4,3.9,2.9,1.9-1.2,3.7-2.3,5.6-3.5-1.5-2.5-2.8-5.1-4.1-7.8"/>
  <path class="cls-2" d="M123.9,378.9c.4-3.6,3.4-7.1,7.2-6.5,0-1,.3-2,.7-2.9.8-2,2.4-3.8,4.6-4.3,1.4-.4,3-.2,4.3.6.2-.8.5-1.6,1-2.4.9-1.5,2.5-2.6,4.3-2.6.5,0,.9,0,1.4.2,1.6-1.2,3.8-1.1,5.5,0,3.9-3.6,8.1-6.8,12.6-9.6-15.6-6.5-36.1,2.3-42.1,18.2-1.8,4.8-2,10.3-.2,15.2.5-.2.9-.3,1.4-.5-.5-1.8-.9-3.6-.7-5.4"/>
  <path class="cls-2" d="M160.9,386.4c8.6-4.3,16.5-10,23.1-17,.4-2,0-4.2-1.2-5.8-1-1.4-2.5-2.4-4.1-2.9-6.9,5.8-14.4,10.7-22.5,14.6,1.6,3.7,3.1,7.4,4.7,11.1"/>
  <path class="cls-2" d="M154.2,370.8c.1.1.2.2.3.4.3.6.5,1.2.8,1.8,7.7-3.7,14.9-8.4,21.5-13.8,0-2.1-.9-4.2-2.5-5.6-1.2-1.1-2.8-1.7-4.3-1.9-6.7,3.8-12.8,8.5-18.2,13.9,1,1.6,1.8,3.4,2.6,5.2"/>
  <path class="cls-2" d="M127.6,392.8c-.8-2-1.6-4.1-2.3-6.1-1.5.5-3,1-4.4,1.6-.8,1.6-1.1,3.3-.7,5.2.4,1.9,1.6,3.5,3.1,4.5,1.7-1,3.5-2,5.3-2.9-.3-.8-.7-1.5-1-2.3"/>
  <path class="cls-2" d="M145.3,409c-1.6-2.4-3-5-4.4-7.5-2.7-5-5.2-10.2-7-15.6-1-2.8-1.8-5.6-2.4-8.5-.2-.8-.3-1.6-.4-2.4,0,0,0,0,0,0-1.8-.5-3.5.8-4.3,2.4-1,2.1-.4,4.5.2,6.6,2.3,7.5,5.5,14.9,9.7,21.5,1.9,3.1,4.1,6.4,7,8.7,2.3,1.8,5.7,2.9,8.4,1.4-.6-.2-1.1-.5-1.6-.9-2.2-1.4-3.7-3.5-5.1-5.6"/>
  <path class="cls-2" d="M157.1,407.6c-5.5-5.6-9.2-12.7-12-20-1.5-4-3-8-3.9-12.2-.4-2-.9-4.4-.9-6.7-1.3-1.6-3.6-1.5-5.1-.1-1.7,1.6-2,4.2-1.8,6.4.5,4.5,2.2,9.1,3.8,13.3,1.7,4.3,3.7,8.4,6,12.5,1.1,2,2.2,4,3.4,5.9,1.1,1.9,2.4,3.7,4.1,5.2,1.5,1.3,3.7,2.2,5.7,1.8,1.8-.4,3.3-1.8,3.3-3.6-1-.8-1.9-1.6-2.7-2.4"/>
  <path class="cls-2" d="M163.9,399.6c-.7-1.7-1.4-3.4-2.2-5.1l-7.9-18.6c-.2-.1-.4-.3-.5-.6-.7-2-1.6-3.9-2.5-5.8-.9-1.7-1.8-3.6-3-5.1-1.4-1.6-3.3-1.2-4.2.6-.8,1.6-.7,3.6-.6,5.4.2,3.8,1.3,7.5,2.6,11.2,1,3.1,2.2,6.2,3.5,9.3,2.7,6,6.2,11.8,11.1,16.4,1.2,1.1,2.8,2.4,4.5,2.1,1.8-.4,1.9-2.4,1.5-3.9-.5-2-1.5-3.9-2.3-5.7"/>
  <path class="cls-2" d="M150.3,363.6c.3-.3.5-.5.8-.8-.5-.2-1-.2-1.4-.1.2.2.3.4.5.6,0,0,.1.2.2.3"/>
  <path class="cls-2" d="M182.8,390.9c-3.5,2.2-7.1,4.2-10.9,5.9.9,0,1.8.3,2.7.7,2.5,1.2,3.9,3.9,4.5,6.5,1,4,.7,8.2-.7,12,2.2-1.7,4.2-3.8,5.8-6,2.8-6.1,2.2-13.4-1.5-19.1"/>
  <path class="cls-2" d="M188.4,402c.2-.5.3-.9.4-1.4,1.3-4.7,1.6-9.6.7-14.4-1.5,1.2-3.1,2.3-4.7,3.4,2.4,3.7,3.6,8.1,3.6,12.4"/>
  <path class="cls-3" d="M164.6,409.2c-1.7.4-3.3-1-4.5-2.1-4.9-4.5-8.4-10.3-11.1-16.4-1.3-3-2.5-6.1-3.5-9.3-1.2-3.6-2.3-7.3-2.6-11.2-.1-1.7-.2-3.8.6-5.4.9-1.8,2.9-2.2,4.2-.6,1.3,1.5,2.1,3.4,3,5.1,1,1.9,1.8,3.8,2.5,5.8.1.3.3.5.5.6l7.9,18.6c.7,1.7,1.4,3.4,2.2,5.1.8,1.9,1.8,3.7,2.3,5.7.4,1.4.3,3.5-1.5,3.9M156.5,413.7c-2,.4-4.2-.5-5.7-1.8-1.7-1.4-2.9-3.3-4-5.2-1.2-1.9-2.3-3.9-3.4-5.9-2.2-4-4.3-8.2-6-12.5-1.7-4.2-3.3-8.8-3.8-13.3-.2-2.2,0-4.8,1.8-6.4,1.5-1.4,3.8-1.5,5.1.1,0,2.3.5,4.7.9,6.7.9,4.2,2.3,8.2,3.9,12.2,2.8,7.3,6.5,14.4,12,20,.8.8,1.7,1.7,2.7,2.4,0,1.8-1.6,3.3-3.3,3.6M143.7,414.1c-2.9-2.3-5.1-5.6-7-8.7-4.2-6.6-7.4-14-9.7-21.5-.6-2.1-1.2-4.6-.2-6.6.8-1.6,2.5-2.9,4.3-2.4,0,0,0,0,0,0,0,.8.2,1.6.4,2.4.6,2.9,1.4,5.7,2.4,8.5,1.9,5.4,4.3,10.6,7,15.6,1.4,2.5,2.8,5.1,4.4,7.5,1.4,2.1,3,4.2,5.1,5.6.5.3,1.1.6,1.6.9-2.6,1.5-6.1.4-8.4-1.4M151,362.8c-.3.2-.5.5-.8.8,0,0-.1-.2-.2-.3-.2-.2-.3-.4-.5-.6.5-.1,1,0,1.4.1M165.4,396.9c-1.2-2.7-2.3-5.5-3.5-8.2,9.2-4.5,17.6-10.7,24.6-18.2-.8-.3-1.6-.6-2.5-.7,0-.1,0-.2,0-.3-6.7,6.9-14.5,12.7-23.1,17-1.6-3.7-3.1-7.4-4.7-11.1,8.1-3.9,15.7-8.8,22.5-14.6-.7-.2-1.4-.3-2.1-.3,0-.4,0-.8,0-1.1-6.6,5.5-13.8,10.1-21.5,13.8-.3-.6-.5-1.2-.8-1.8,0-.2-.2-.3-.3-.4-.8-1.8-1.6-3.5-2.6-5.2,5.4-5.5,11.5-10.2,18.2-13.9-1.1-.1-2.2,0-3.3.3,0,0-.2-.2-.3-.2-.3-.1-.5-.2-.8-.3-4.5,2.8-8.7,6-12.6,9.6-1.7-1.1-3.9-1.2-5.5,0-.4-.2-.9-.2-1.4-.2-1.8,0-3.4,1.1-4.3,2.6-.4.7-.8,1.5-1,2.4-1.3-.7-2.9-.9-4.3-.6-2.2.5-3.8,2.3-4.6,4.3-.4.9-.6,1.9-.7,2.9-3.8-.6-6.8,2.9-7.2,6.5-.2,1.8.2,3.7.7,5.4-.5.1-.9.3-1.4.5,0,.1,0,.2.1.3,0,0,0,.1,0,.2-1,.8-1.9,1.8-2.5,3,1.4-.6,2.9-1.2,4.4-1.6.7,2.1,1.5,4.1,2.3,6.1.3.8.6,1.5,1,2.3-1.8.9-3.6,1.9-5.3,2.9.2.1.4.3.7.4-.4.8-.7,1.7-.8,2.6,2.1-1.3,4.3-2.5,6.5-3.6,1.2,2.7,2.6,5.3,4.1,7.8-1.9,1.2-3.7,2.3-5.6,3.5.7.2,1.5.3,2.2.3,0,.4,0,.8,0,1.2,1.5-1,3.1-1.9,4.6-2.9,1.8,2.9,3.8,5.8,6.3,8-1.3.7-2.5,1.4-3.6,2.2,1.3,0,2.6-.2,3.8-.7,0,0,.2.2.3.2.2.2.5.3.7.5.4-.2.7-.4,1.1-.5,3.5,2.1,8,2.6,11.3-.3.1-.1.2-.2.3-.3,1.1,0,2.2,0,3.2-.5,2-.8,3.5-2.4,4-4.4,1.4.5,2.9.6,4.4-.3,3.8-2.3,1.8-7.1.5-10.2,0-.2-.2-.4-.3-.6,2.2-.8,4.8-1.6,7-.5,2.1,1.1,2.9,3.8,3.3,6,.8,4.5-.2,9-2.5,12.9,1.4-.8,2.7-1.7,4-2.7,1.4-3.8,1.6-8,.7-12-.6-2.6-2-5.3-4.5-6.5-.9-.4-1.8-.6-2.7-.7,3.8-1.7,7.4-3.7,10.9-5.9,3.6,5.7,4.2,12.9,1.5,19.1,1.8-2.4,3.2-5.1,4.2-8,0-4.4-1.2-8.7-3.6-12.4,1.6-1.1,3.2-2.2,4.7-3.4-.1-.7-.3-1.4-.5-2.2.4-.5.8-1,1.2-1.5-7.4,6.1-15.8,11-24.8,14.4"/>
  <path class="cls-2" d="M415.5,333.6c-15.5,1.2-31.1-.8-45.8-5.8-3.1-1.1-1.8-6,1.4-4.9,14.3,4.9,29.3,6.8,44.4,5.6,3.3-.3,3.3,4.9,0,5.1M454.9,313.2c-1.3,1.2-2.8,2.3-4.3,3.3-3.4,2-7.2,3.3-11.1,3.5-10.2.6-20.3-6-24.2-15.3-.4.4-1,.7-1.8.6-28.6-2.3-59.9-4.6-85.2,11.3,5.7,2.3,11.4,4.8,17,7.5,11.7,5.6,22.7,12.6,34.5,18,12,5.5,24.5,7.7,37.5,4.3,21-5.6,37.4-20.9,56.6-30.4-3.1-2.6-6.7-4.4-10.6-5.2-1.1-.2-2.2-.4-3.3-.5-.7,0-1.4-.1-2.1-.1-.8,1.1-1.8,2.1-2.8,3"/>
  <path class="cls-4" d="M456.6,301.6c1.2.9,2.3,1.7,3.5,2.6.3.2.5.4.8.6.7-1.6,1.2-3.2,1.5-4.9.4-2,.5-4.1.3-6.1-.7-9.1-6.6-17.6-15.1-21.3-6.3-2.7-13.3-2.3-19.4.4-.5,0-1.1,0-1.7.3-1.6.9-3.1,1.9-4.5,3.1,1.5,1.1,3,2.2,4.6,3.4,10,7.3,19.9,14.6,29.9,21.9"/>
  <path class="cls-2" d="M272.6,298.6c-1.2-1.8-2.2-3.6-3.1-5.5-1,2.5-1.9,5.1-2.6,7.7.9-.6,1.8-1.1,2.8-1.5,1-.4,2-.6,3-.8"/>
  <path class="cls-4" d="M450.5,310.3c1.5,1,2.9,2,4.4,2.9,1-.9,1.9-2,2.8-3,.2-.3.5-.6.7-.9-1.1-.8-2.2-1.6-3.3-2.4-.3-.2-.6-.4-.8-.6-10.4-7.7-20.9-15.3-31.3-23-1.4-1-2.8-2.1-4.3-3.1-.9,1.2-1.8,2.6-2.5,4,0,0,0,0,0,0,0,0,0,0,0,0-.2.4-.3.7-.5,1.1,1.4,1.1,2.8,2.2,4.2,3.2,10,7.6,20.2,14.9,30.6,21.9"/>
  <path class="cls-2" d="M484.9,365.4c-4.6-1.4-7.6-5-8.5-9.1-.6-1.6-.8-3.3-.5-5,.6-4.2,3.9-7.4,7.8-8.9,8.2-3.1,17.4,2.2,17.4,11.3,0,8.1-8.5,14-16.1,11.7M384.5,401.6c-4.6-1.4-7.6-5-8.5-9.1-.6-1.6-.8-3.3-.5-5,.6-4.2,3.9-7.4,7.8-8.9,8.2-3.1,17.4,2.2,17.4,11.3,0,8.1-8.5,14-16.1,11.7M529.7,295.8c-.3,1.9-.7,3.7-1.3,5.6-4.5,13.1-17.7,18.5-29.7,22.9-6.1,2.2-12.2,4.6-17.5,8.4-4.8,3.4-8.8,7.8-12.6,12.2-6.4,7.3-12.6,14.4-20.4,19.9.5,1.4.9,2.9.9,4.5,0,8.1-8.5,14-16.1,11.7-3.4-1-5.9-3.3-7.4-6.1-5.2,1.3-10.5,1.9-15.9,2-12.9,0-25.5-3.9-37-9.4-8.8-4.2-17-9.4-25.1-14.8-1.7,6.6-9,10.8-15.8,8.8-4.6-1.4-7.6-5-8.5-9.1-.6-1.6-.8-3.3-.5-5,.5-3.2,2.5-5.8,5.2-7.6-7.7-4.7-15.6-9.2-23.4-13.9-5.8-3.5-12.1-7.6-17.8-12.4-1.8,6.5-9.1,10.6-15.7,8.7-2.8-.8-5-2.5-6.5-4.7,0,1,0,2.1,0,3.1.2,7.2,1.4,14.3,3.8,21.1.6,2.4,1.3,4.8,2.2,7.2.6-.3,1.2-.7,1.9-.9,8.2-3.1,17.4,2.2,17.4,11.3,0,5-3.2,9.1-7.4,11,.4.5.8,1.1,1.3,1.6,4.5,5.5,9.8,10.2,15.4,14.4,1.4-2.3,3.8-4.1,6.3-5.1,8.2-3.1,17.4,2.2,17.4,11.3,0,2.2-.6,4.3-1.7,6.1,7.2,3,14.7,5.4,22.3,7,26.7,5.9,55,5.5,82.1,3.4,11.4-.9,22.8-2.3,34.1-4.6,0-.3-.2-.6-.2-.9-.6-1.6-.8-3.3-.5-5,.6-4.2,3.9-7.4,7.8-8.9,7.2-2.7,15,1,16.9,8,5.2-2,10.1-4.5,14.8-7.5,9.9-6.4,17.4-15.4,22.3-26.1,2.8-6.1,4.8-12.5,6.4-19-3.9-1.6-6.5-4.9-7.3-8.7-.6-1.6-.8-3.3-.5-5,.6-4.2,3.9-7.4,7.8-8.9,1.4-.5,2.7-.8,4.1-.9.9-8.7,1-17.5-1.1-26"/>
  <path class="cls-3" d="M301.3,312.5c13.4,4.1,26.5,9.1,39.1,15,12.1,5.7,23.3,12.8,35.4,18.5,11.6,5.5,23.7,8.6,36.6,6.6,12.9-2,24.8-8.5,35.7-15.3,12.4-7.8,24.4-16.5,38.5-21.1,3.1-1,1.8-6-1.4-4.9-2.2.7-4.4,1.6-6.6,2.5-.1-.2-.3-.4-.5-.6-3.8-3.5-8.3-5.9-13.2-7.2,0,0,0,0,0-.1,1.4-9.4,5.1-18.3,11.1-25.7,2-2.5-1.6-6.2-3.6-3.6-4.2,5.2-7.5,11-9.7,17.3.2,2,0,4-.3,6.1-.3,1.7-.8,3.3-1.5,4.9-.7,1.6-1.5,3.1-2.5,4.5-.2.3-.5.6-.7.9.7,0,1.4,0,2.1.1,1.1.1,2.2.3,3.3.5,3.9.9,7.5,2.7,10.6,5.2-19.2,9.5-35.6,24.8-56.6,30.4-12.9,3.4-25.5,1.2-37.5-4.3-11.8-5.4-22.8-12.4-34.5-18-5.6-2.7-11.3-5.2-17-7.5,25.3-16,56.6-13.7,85.2-11.3.8,0,1.4-.2,1.8-.6-.4-1-.8-2.1-1.1-3.2,0-.4-.2-.8-.3-1.2-.1,0-.3,0-.5,0-21.4-1.7-44.2-3.3-65,2.2-2.5-11.9-7.4-23.3-14.3-33.3-1.9-2.7-6.3-.1-4.4,2.6,6.7,9.8,11.4,20.6,13.8,32.2-6.9,2.3-13.6,5.4-19.9,9.7-.4.3-.6.6-.8.9-6.6-2.5-13.2-4.8-20-6.9-3.2-1-4.5,4-1.4,4.9"/>
  <path class="cls-3" d="M404,285.4c-.2-6.5.6-12.8,2.4-19.1.9-3.2-4-4.5-4.9-1.4-1.9,6.6-2.8,13.5-2.6,20.4,0,3.3,5.2,3.3,5.1,0"/>
  <path class="cls-3" d="M415.5,328.5c-15.1,1.2-30.1-.7-44.4-5.6-3.1-1.1-4.5,3.9-1.4,4.9,14.7,5,30.3,7,45.8,5.8,3.3-.3,3.3-5.4,0-5.1"/>
  <path class="cls-4" d="M415.2,304.7c4,9.3,14.1,15.9,24.2,15.3,3.9-.2,7.8-1.5,11.1-3.5-1.6-1.1-3.2-2.1-4.8-3.2-9.2-6.2-18.3-12.7-27.1-19.5-1.5-1.2-3.1-2.3-4.6-3.5-.7,3.3-.8,6.7-.2,10,0,.4.2.8.3,1.2.3,1.1.7,2.2,1.1,3.2"/>
  <path class="cls-8" d="M445.7,313.3c1.6,1.1,3.2,2.2,4.8,3.2,1.6-.9,3-2,4.3-3.3-1.5-1-3-1.9-4.4-2.9-10.4-7-20.6-14.3-30.6-21.9-1.4-1.1-2.8-2.2-4.2-3.2-.7,1.6-1.3,3.4-1.7,5.1,1.5,1.2,3.1,2.4,4.6,3.5,8.9,6.7,17.9,13.2,27.1,19.5"/>
  <path class="cls-8" d="M454.2,306.2c.3.2.6.4.8.6,1.1.8,2.2,1.6,3.3,2.4,1-1.4,1.8-2.9,2.5-4.5-.3-.2-.5-.4-.8-.6-1.2-.9-2.3-1.7-3.5-2.6-10-7.3-19.9-14.6-29.9-21.9-1.5-1.1-3-2.2-4.6-3.4-1.3,1.1-2.5,2.4-3.5,3.8,1.4,1,2.8,2.1,4.3,3.1,10.4,7.7,20.9,15.3,31.3,23"/>
  <path class="cls-9" d="M383.3,378.7c-3.8,1.5-7.1,4.7-7.8,8.9-.3,1.7,0,3.4.5,5,.9,4.1,3.9,7.7,8.5,9.1,7.7,2.3,16.2-3.6,16.1-11.7,0-9.1-9.2-14.4-17.4-11.3"/>
  <path class="cls-9" d="M425.5,375.1c1.4,2.8,4,5,7.4,6.1,7.7,2.3,16.2-3.6,16.1-11.7,0-1.6-.3-3.2-.9-4.5-1.7,1.2-3.4,2.3-5.2,3.3-5.5,3.1-11.4,5.4-17.5,6.9"/>
  <path class="cls-9" d="M483.6,342.5c-3.8,1.5-7.1,4.7-7.8,8.9-.3,1.7,0,3.4.5,5,.9,4.1,3.9,7.7,8.5,9.1,7.7,2.3,16.2-3.6,16.1-11.7,0-9.1-9.2-14.4-17.4-11.3"/>
  <path class="cls-9" d="M466.3,389.8c-3.8,1.5-7.1,4.7-7.8,8.9-.3,1.7,0,3.4.5,5,0,.3.1.6.2.9,2.3-.5,4.7-1,7-1.5,5.7-1.4,11.4-3,17-5.2-1.9-7-9.8-10.7-16.9-8"/>
  <path class="cls-9" d="M518.9,331.5c-.3,1.7,0,3.4.5,5,.8,3.7,3.4,7.1,7.3,8.7,1.1-4.8,2-9.6,2.8-14.5.5-3,.9-6,1.2-9-1.4,0-2.7.4-4.1.9-3.8,1.5-7.1,4.7-7.8,8.9"/>
  <path class="cls-9" d="M327.9,340c-2.7,1.7-4.7,4.4-5.2,7.6-.3,1.7,0,3.4.5,5,.9,4.1,3.9,7.7,8.5,9.1,6.7,2,14.1-2.3,15.8-8.8-3.2-2.1-6.4-4.3-9.6-6.4-3.3-2.2-6.7-4.3-10-6.4"/>
  <path class="cls-9" d="M289.6,359.4c0-9.1-9.2-14.4-17.4-11.3-.7.2-1.3.6-1.9.9,2.7,7.7,6.7,14.9,11.8,21.4,4.3-1.9,7.5-6,7.4-11"/>
  <path class="cls-2" d="M302.7,307.6c6.7,2.1,13.4,4.4,20,6.9.2-.3.5-.6.8-.9,6.3-4.3,13-7.4,19.9-9.7-2.5-11.6-7.1-22.4-13.8-32.2-1.9-2.7,2.6-5.3,4.4-2.6,6.9,10,11.8,21.4,14.3,33.3,20.8-5.5,43.7-4,65-2.2.2,0,.3,0,.5,0-.7-3.3-.6-6.7.2-10,.4-1.8,1-3.5,1.7-5.1.2-.4.3-.7.5-1.1,0,0,0,0,0,0,0,0,0,0,0,0,.7-1.4,1.5-2.7,2.5-4,1-1.4,2.2-2.6,3.5-3.8,1.4-1.2,2.8-2.2,4.5-3.1.6-.3,1.2-.4,1.7-.3,6.1-2.7,13.1-3.1,19.4-.4,8.5,3.7,14.4,12.2,15.1,21.3,2.2-6.2,5.5-12.1,9.7-17.3,2.1-2.6,5.7,1.1,3.6,3.6-6,7.4-9.7,16.3-11.1,25.7,0,0,0,0,0,.1,4.9,1.3,9.4,3.7,13.2,7.2.2.2.3.4.5.6,2.1-.9,4.3-1.7,6.6-2.5,3.2-1,4.5,3.9,1.4,4.9-14,4.6-26.1,13.3-38.5,21.1-10.9,6.9-22.8,13.3-35.7,15.3-12.8,2-25-1.2-36.6-6.6-12-5.7-23.3-12.8-35.4-18.5-12.7-6-25.8-10.9-39.1-15-3.2-1-1.8-5.9,1.4-4.9M401.5,265c.9-3.2,5.9-1.8,4.9,1.4-1.8,6.2-2.6,12.6-2.4,19.1,0,3.3-5,3.3-5.1,0-.2-6.9.7-13.8,2.6-20.4M284.8,305.3c.6.6,1.1,1.1,1.7,1.6,9.2,8.6,20.5,14.7,31.3,20.9,5.5,3.2,10.9,6.5,16.3,10,4.5,2.9,8.9,5.8,13.3,8.8.6.4,1.2.8,1.9,1.2,10.5,7,21.2,13.8,32.9,18.4,11.1,4.4,22.9,6.7,34.9,5.2,2.3-.3,4.6-.7,6.9-1.2,7.6-1.8,15-5.1,21.4-9.5.8-.5,1.6-1.1,2.3-1.7,8.7-6.6,14.9-15.7,22.5-23.4,3.7-3.8,7.7-7.2,12.3-9.8,5.2-3,11-4.9,16.6-7,10.2-3.8,21.8-8.9,24.9-20.4,1.5-5.7,1-11.3-.5-16.7-3.8-5.6-8.8-10.5-14.6-14.3-10.4-6.9-22.7-10.3-34.9-12.4-13.9-2.3-28-3.6-42-4.7-28.3-2.2-56.9-2.9-85.3-1.3-9.8.5-19.9,1.8-29.4,4.4-11.6,2.6-22.5,8.3-31.3,16.3-5.5,4.9-10,10.7-13.4,17.1,1.6,4.6,4.1,8.9,7.1,12.7,1.6,2.1,3.4,4,5.2,5.8"/>
  <path class="cls-9" d="M270.9,322.3c6.7,2,14-2.2,15.7-8.7-5.4-4.5-10.3-9.5-14-15.1-1,.1-2,.4-3,.8-1,.4-1.9.9-2.8,1.5-1.5,5.5-2.4,11.1-2.5,16.8,1.5,2.1,3.7,3.8,6.5,4.7"/>
  <path class="cls-3" d="M286.6,313.7c5.7,4.8,12,8.9,17.8,12.4,7.8,4.7,15.7,9.2,23.4,13.9,3.4,2.1,6.7,4.2,10,6.4,3.2,2.1,6.4,4.3,9.6,6.4,8.1,5.4,16.3,10.6,25.1,14.8,11.5,5.5,24.1,9.5,37,9.4,5.3,0,10.7-.7,15.9-2,6.1-1.5,12-3.8,17.5-6.9,1.8-1,3.5-2.1,5.2-3.3,7.8-5.5,14-12.7,20.4-19.9,3.8-4.4,7.8-8.8,12.6-12.2,5.3-3.8,11.4-6.1,17.6-8.4,12-4.4,25.2-9.9,29.7-22.9.6-1.9,1.1-3.7,1.3-5.6-.2-.7-.4-1.4-.6-2.1-1.3-4.3-3.2-8.4-5.7-12,1.5,5.5,2,11.1.5,16.7-3.1,11.5-14.7,16.6-24.9,20.4-5.6,2.1-11.4,4-16.6,7-4.6,2.6-8.6,6.1-12.3,9.8-7.6,7.7-13.8,16.8-22.5,23.4-.8.6-1.6,1.1-2.3,1.7-6.5,4.4-13.8,7.7-21.4,9.5-2.3.5-4.5,1-6.9,1.2-11.9,1.5-23.8-.8-34.9-5.2-11.8-4.6-22.5-11.5-32.9-18.4-.6-.4-1.2-.8-1.9-1.2-4.4-3-8.9-5.9-13.3-8.8-5.3-3.4-10.7-6.8-16.3-10-10.8-6.2-22.1-12.4-31.3-20.9-.6-.5-1.1-1.1-1.7-1.6-1.8-1.8-3.6-3.8-5.2-5.8-3-3.9-5.5-8.2-7.1-12.7-1.1,2.1-2.1,4.2-3,6.4.9,1.9,2,3.7,3.1,5.5,3.7,5.6,8.6,10.6,14,15.1"/>
  <path class="cls-9" d="M305.2,381.4c-2.6,1-4.9,2.7-6.3,5.1,6.8,5,14.2,9.1,22,12.3,1.1-1.8,1.7-3.8,1.7-6.1,0-9.1-9.2-14.4-17.4-11.3"/>
  <path class="cls-9" d="M314.4,330.5c0,.6,0,1.1,0,1.3,1.1.9,2.3,1.8,3.4,2.8.8.7,1.6,1.4,2.4,2.1.2.2.4.4.6.7.3-1.8.6-3.5.9-5.3.9-5.9,1.5-11.8,1.8-17.7,0-1.3.1-2.6.2-4-1.8-1.7-4-3.1-6.4-4.4-2.1-1.1-3.8-2.6-3.4-5.2.4-2.1,1.8-3.9,2.9-5.7,1.5-2.4,3-5.3,2.4-8.3-1.4-6.3-9-6.1-13.9-5.4-.1,0-.2,0-.3,0,.8.6,1.2,1.7,1,2.8-.2,1.3-1.1,2.6-2.8,2.7-2.3.2-4.6,0-6.9-.4-1.5-.3-3-.7-4.4-1.2-.1,0-.2,0-.4-.1-1.3.5-2.6,1.1-3.9,1.8.2,1,.4,2,.6,3,.4,2,.9,3.9,1.5,5.9,1,3.1,2.1,6.2,3.5,9.2,0,0,.4,0,1,0,5.2,9.5,12.1,18.2,20.2,25.5"/>
  <path class="cls-6" d="M287,282.8c.2,1.3.4,2.7.6,4,1.3-.6,2.5-1.2,3.9-1.8-1.5-.6-3-1.3-4.4-2.2"/>
  <path class="cls-6" d="M297.8,221.1c-.6.9-1.4,1.5-2.5,1.5s-2-.6-2.5-1.5c-.6-1.1-.9-2.4-.8-3.7,0,0,0-.2,0-.3,0-1.6.6-3,1.7-4.1,1.2-1.3,3.8-1.1,4.6.6,1.2,2.4,1.2,5.3-.4,7.5M301.2,223.3c-.6-13.8,3.2-27.6,10.8-39.2-2.4.2-4.8.5-7.3.9-1.1.2-2.1.4-3.2.6,0,0-.1,0-.2,0,0,0,0,0,0,0l-2,.4c-.4-.8-.8-1.6-1.3-2.4-5.1-9.2-11.6-17.5-19.5-24.5-1.3-1.1-3.2-.7-3.7,1-4,12.7-3.3,26.4,1.6,38.6.4,1,.8,1.9,1.2,2.8-.7,1.7-1.2,3.4-1.6,5.2-.1.5-.2,1.1-.4,1.6,0,.5-.2,1-.2,1.4-.4,2.3-.6,4.5-.5,6.8.1,5.8,1.7,10.8,3.7,16.2.3.9.6,1.7.7,2.5,5.3-6.2,14-9.5,21.8-12"/>
  <path class="cls-9" d="M343,365.7c.9-.4,1.8-.8,2.8-1,3.5-1,7.2-1.5,10.9-1.5,1,0,2,0,3,0,1.7-8.8-2.1-17.6-9.7-22.3-.2,1-.5,2.1-.7,3.1-1.7,7.4-3.8,14.6-6.3,21.8"/>
  <path class="cls-9" d="M297.6,237.5c-1.8-1.3-2.9-3.3-2.3-5.6.8-2.8,3.9-3.5,6.4-3.2,2.5.4,6.2,1.4,6.9,4.2.6,2.3-1,3.6-2.9,4.6,1.5,4.5,1.6,9.2,3.1,13.8.9,2.9,2.7,4.9,5.4,6.3,2.9,1.5,6.6,3.1,9.9,3.3,3.7.3,5.9-2.3,9-3.7,0,0,.1,0,.2,0,.9-9.6-3.4-19.6-11.1-25.5-.4-.3-.7-.7-.9-1-.6-1.1-.4-2.4.2-3.3-1.6-.9-3.3-1.8-5-2.5-2-15,4.4-30.6,16.3-39.9-1.3-.2-2.6-.4-3.9-.5-4.4-.5-8.8-.7-13.3-.5-.2,0-.4,0-.6,0-1,0-2.1.1-3.1.2-7.6,11.6-11.4,25.3-10.8,39.2-7.8,2.5-16.5,5.8-21.8,12,.4,1.8.3,3.6-.1,5.6,0,.2-.1.4-.2.7-.8,2.6-1.7,5.1-1.6,7.9,0,2.9,1,5.5,2.5,7.7,1.8,0,3.5-.2,5.1-.7,7.8-2.3,13.3-10.1,12.6-18.8"/>
  <path class="cls-6" d="M332,221.1c-.6.9-1.4,1.5-2.5,1.5s-2.1-.6-2.5-1.5c-.6-1.1-.9-2.4-.8-3.7,0,0,0-.2,0-.3,0-1.6.6-3,1.7-4.1,1.2-1.3,3.8-1.1,4.6.6,1.2,2.4,1.2,5.3-.4,7.5M356.8,196.5c1.8-5.7,5.1-10.7,9.7-14.4,1.7-1.4,4.2-1,4.9,1.3,2.4,7.5-3.5,13.1-9,17.2-1.1.8-2.8.4-3.7-.5-1.4-.4-2.6-1.7-2-3.5M439.8,374.6c-.4-.6-.8-1.2-1.2-1.7-1.2-1.7-2.6-4-3.1-6.3.5-2,2.8-2.6,4.9-3.6,9.7-4.4,10.5-17.4,8.2-26.4-1.1-4.3-2.9-8.3-5.2-11.9-2.5,3.5-6,6.1-10.3,7.2-7.3,1.9-15.2-1.6-19.5-7.7-2.7-3.9-2.5-8.5-4.2-12.9-1.7-4.5-6.2-6.9-8.7-10.8-4.1-6.6-2.8-14.3-.1-21.2-2.8-4.1-5.3-8.4-7.5-12.9-2.1-4.3-4.3-10.2-8.4-12.9-.6,1.4-1.4,2.7-2.1,4-2.7,4.8-6,9.2-10,13.1-2.7,2.7-6.8-1.5-4.2-4.2,3.2-3.2,6-6.8,8.3-10.7,2-3.4,3.7-7,5-10.8-.6-6.6-4-12.9-9.4-16.9-.1-3.7-.5-7.3-1.3-10.9-1.6,0-3.1-.2-4.6-.5-3.8-.7-7.5-2.2-10.9-4.4-3.2-2-.2-7.1,3-5.1,1.6,1,3.3,1.9,5,2.5,2.4.9,4.8,1.5,7.3,1.6,6-3.5,10.2-9.5,12.5-16.1,3.8-11.3,1.2-23.5-1.6-34.7-.3-1.4-2-2-3.3-1.3-11.9,7.2-22.8,16-32.4,26.1,0,1.9.4,3.8.9,5.6.5,1.7,1.2,3.3,2.1,4.9,1.9,3.3-3.2,6.3-5.1,3-1.4-2.4-2.4-4.9-3-7.6-.4-1.6-.6-3.1-.7-4.8-2.4-.6-4.9-1.1-7.4-1.5-11.8,9.4-18.3,24.9-16.3,39.9,1.8.7,3.4,1.5,5,2.5.8-1.2,2.2-1.9,3.7-.7,9.2,7,14.4,17.8,14.1,29.2,1.3-.2,2.6-.4,3.8-.7,5.6-1.4,9.5-6.2,10.3-11.8.6-3.7,6.2-2.1,5.7,1.6-1,6.8-5.7,12.7-12.1,15.2-2.8,1.1-6,1.1-8.9,1.7-.5.5-1.2.6-1.9.6-.3.1-.6.3-.9.4-3.5,1.8-6,4.1-10.2,4.1-4,0-7.9-1.6-11.5-3.1-.6-.3-1.3-.6-1.9-.9-7.5,3.4-15.8,2.6-22.4-2.1-.5.2-1,.4-1.5.6-1.4.5-2.8.9-4.3,1.1.5,3.5,1.5,8.2,3.3,12-.2.2-.3.4-.4.6,3.7,3.5,8.5,5.5,13.6,5.8,1,0,1.9,0,2.9,0,.7,0,1.3.1,1.8.4.1,0,.2,0,.3,0,5-.7,12.5-.8,13.9,5.4.7,3-.8,5.8-2.4,8.3-1.1,1.8-2.6,3.6-2.9,5.7-.5,2.6,1.3,4.1,3.4,5.2,2.4,1.3,4.6,2.7,6.4,4.4.1-3.8.1-7.7,0-11.6-.1-3.8,5.8-3.8,5.9,0,.2,6.8.1,13.5-.4,20.3,0,.4,0,.8,0,1.2-.5,6.1-1.3,12.1-2.4,18.1-.9,5-2,9.9-3.3,14.8-.9,5.4-2.1,10.8-7.1,13.7-2,1.2-4.2,2.1-6.2,3.4,2.6-10.6,4-21.4,4.3-32.2-1.5-1.2-2.9-2.5-4.4-3.7-4.4-4-8.3-8.3-11.9-12.9-1.7-2.2-3.3-4.4-4.8-6.7.9,14.4,1.2,28.9-2.3,42.9-1,4.1-2.4,8-4,11.9-1.3,3.2-2.2,6.7-.6,9.9.7,1.3,1.5,2.3,2.5,3.1.8.7,1.7,1.1,2.6,1.5.9.3,1.9.6,2.8.7,1,.1,1.9.2,2.9.2,2.8,0,5.6-.6,8.1-1.3.2,0,.4-.1.6-.2.8,1.3,1.8,2.5,2.9,3.4.1,0,.2.2.3.3.7.5,1.4,1,2.2,1.4,1.2.6,2.4,1,3.6,1.3,1,.2,2,.4,3,.4,3,.1,6-.6,8.8-1.9,1.9-3.8,3.7-7.6,5.4-11.5.1-.3.2-.7.4-1,.2-.6.5-1.1.7-1.6,9.7-23.3,15-48.4,15.5-73.8,0-3.8,6-3.8,5.9,0-.3,13.6-1.9,27.1-4.7,40.3,7.6,4.7,11.4,13.5,9.7,22.3,7.1.4,14.2,2.3,20.5,5.2,3.5,1.6.5,6.6-3,5.1-8-3.6-17.3-5.2-26.1-3.9-4,.6-9.3,2.9-12,6.4-.4.9-.7,1.8-1.1,2.6-.2.4-.4.9-.6,1.3-.2,1.5.2,3.1,1.1,4.8,0,0,0,.1,0,.2,2.7,1.5,5.9,2.2,9,2.3,8.5.4,17.1,0,25.6-.1,6.5,0,14.4,0,19.2-5.1,1.7-1.8,2.9-4.1,3.3-6.4-1.4-1.5-2.9-2.9-4.6-4.2-6.2-5.1-13.3-9.4-18.1-15.5-.6-.7-1.1-1.5-1.6-2.3-1.6-2.5-2.7-5.3-3.3-8.6-1.3-7.9,1.8-16,7.5-21.6,6.1-6,14.4-8.8,22.7-9.8,3.8-.5,3.7,5.5,0,5.9-7.3.9-14.9,3.7-19.8,9.4-4.7,5.5-6.3,13.2-3,19.7,1.4,2.7,3.2,5,5.2,7.1,4.9,5,11.1,8.8,16.4,13.4-.8,1.2-1.5,2.2-1.6,2.3,2.6,1.8,5.1,3.5,7.7,5.3.5.3.9.6,1.4,1,1.3.9,2.6,1.8,3.9,2.7.2.1.4.3.6.4-5.1,2.9-9.7,6.9-12.5,12.1-3.2,6-2.6,15.6,5.3,17.5,4.4,1.1,8.6-1.4,12.5-3.2,4.5-2.2,9.1-4.4,13.6-6.6,6.4-3.1,16.2-6.3,16.2-14.7.8-3.7-1.2-7.5-3.7-10.3-.3-.3-.6-.6-.9-.9"/>
  <path class="cls-9" d="M305.2,257.3c-1.9-2.9-2.5-6.2-3.1-9.6-1.9,4.9-5.3,8.9-9.7,11.6-.9.6-1.9,1.1-3,1.5,6.6,4.8,15,5.6,22.4,2.1-1.1-.6-2.2-1.2-3.1-1.9-1.4-1-2.6-2.3-3.6-3.8"/>
  <path class="cls-3" d="M293.5,213c-1.1,1.1-1.7,2.5-1.7,4.1,0,0,0,.2,0,.3-.1,1.3.2,2.6.8,3.7.5.9,1.5,1.5,2.5,1.5s1.9-.6,2.5-1.5c1.6-2.2,1.6-5.1.4-7.5-.8-1.7-3.4-1.9-4.6-.6"/>
  <path class="cls-3" d="M327.8,213c-1.1,1.1-1.7,2.5-1.7,4.1,0,0,0,.2,0,.3-.1,1.3.2,2.6.8,3.7.5.9,1.5,1.5,2.5,1.5s1.9-.6,2.5-1.5c1.6-2.2,1.6-5.1.4-7.5-.8-1.7-3.4-1.9-4.6-.6"/>
  <path class="cls-3" d="M289.5,260.8c1-.4,2-1,3-1.5,4.4-2.7,7.8-6.7,9.7-11.6.5,3.4,1.2,6.7,3.1,9.6,1,1.5,2.2,2.7,3.6,3.8,1,.7,2,1.3,3.1,1.9.6.3,1.2.6,1.9.9,3.6,1.5,7.5,3.1,11.5,3.1,4.1,0,6.7-2.4,10.2-4.1.3-.2.6-.3.9-.4.7,0,1.4-.1,1.9-.6,2.9-.7,6.1-.6,8.9-1.7,6.3-2.5,11.1-8.4,12.1-15.2.6-3.7-5.1-5.3-5.7-1.6-.8,5.6-4.7,10.4-10.3,11.8-1.3.3-2.5.5-3.8.7.3-11.4-4.8-22.2-14.1-29.2-1.5-1.1-2.9-.5-3.7.7-.6.9-.8,2.2-.2,3.3.2.4.5.7.9,1,7.7,5.9,12,15.9,11.1,25.5,0,0-.1,0-.2,0-3.1,1.4-5.4,4-9,3.7-3.3-.3-7-1.8-9.9-3.3-2.7-1.4-4.5-3.4-5.4-6.3-1.4-4.5-1.6-9.3-3.1-13.8,1.8-1,3.5-2.4,2.9-4.6-.8-2.8-4.4-3.8-6.9-4.2-2.6-.4-5.6.3-6.4,3.2-.7,2.4.5,4.3,2.3,5.6.7,8.8-4.7,16.5-12.6,18.8-1.6.5-3.3.7-5.1.7.9,1.4,2.1,2.7,3.5,3.8,0,.5.1,1.1.2,1.7,1.5-.2,2.9-.6,4.3-1.1.5-.2,1-.4,1.5-.6"/>
  <path class="cls-3" d="M380.8,355.7c-2-2.1-3.8-4.4-5.2-7.1-3.4-6.6-1.7-14.3,3-19.7,4.9-5.8,12.5-8.5,19.8-9.4,3.7-.4,3.8-6.4,0-5.9-8.3,1-16.7,3.8-22.7,9.8-5.6,5.6-8.8,13.6-7.5,21.6.5,3.3,1.7,6.1,3.3,8.6.5.8,1,1.6,1.6,2.3,4.8,6.1,11.9,10.4,18.1,15.5,1.6,1.3,3.1,2.7,4.6,4.2.3-1.4.3-2.8,0-4.1,0,0,.7-1.1,1.6-2.3-5.3-4.6-11.6-8.4-16.4-13.4"/>
  <path class="cls-3" d="M337.4,379.9c.2-.4.4-.9.6-1.3.4-.9.7-1.7,1.1-2.6,2.7-3.5,8.1-5.8,12-6.4,8.8-1.3,18.1.3,26.1,3.9,3.4,1.5,6.4-3.5,3-5.1-6.3-2.8-13.4-4.8-20.5-5.2-1,0-2,0-3,0-3.7,0-7.4.5-10.9,1.5-.9.3-1.9.6-2.8,1,2.5-7.1,4.6-14.4,6.3-21.8.2-1,.5-2.1.7-3.1,2.9-13.2,4.5-26.7,4.7-40.3,0-3.8-5.8-3.8-5.9,0-.5,25.4-5.8,50.4-15.5,73.8-.3.5-.5,1.1-.7,1.6-.1.3-.3.7-.4,1-1.7,3.9-3.5,7.7-5.4,11.5,3.2-1.6,6-4,7.9-7,1.1,1.4,2.4,2.5,3.9,3.3,0,0,0-.1,0-.2-1-1.7-1.3-3.3-1.1-4.8"/>
  <path class="cls-3" d="M321.6,332.1c-.3,1.8-.6,3.5-.9,5.3,1,1.1,1.9,2.4,2.4,3.9,1.2,3.2.9,6.9.3,10.3,0,.6-.2,1.2-.3,1.7,1.3-4.9,2.4-9.8,3.3-14.8,1.1-6,1.9-12,2.4-18.1,0-.4,0-.8,0-1.2.5-6.7.6-13.5.4-20.3-.1-3.8-6-3.8-5.9,0,.1,3.9.1,7.7,0,11.6,0,1.3,0,2.6-.2,4-.3,5.9-.9,11.8-1.8,17.7"/>
  <path class="cls-3" d="M368.5,266.5c-2.7,2.7,1.5,6.9,4.2,4.2,3.9-3.9,7.2-8.4,10-13.1.7-1.3,1.5-2.7,2.1-4-1-.7-2.1-1.2-3.4-1.4.6-2.3.7-4.7.5-7.1-1.3,3.8-3,7.4-5,10.8-2.3,3.8-5.1,7.4-8.3,10.7"/>
  <path class="cls-9" d="M358.7,200c.9,1,2.6,1.3,3.7.5,5.5-4.1,11.3-9.6,9-17.2-.7-2.3-3.2-2.7-4.9-1.3-4.6,3.8-7.9,8.8-9.7,14.4-.6,1.8.6,3.1,2,3.5"/>
  <path class="cls-3" d="M343.9,198.8c1.9,3.3,7,.3,5.1-3-.9-1.6-1.6-3.2-2.1-4.9-.5-1.8-.8-3.7-.9-5.6-.7.7-1.3,1.4-2,2.2-1.3-.4-2.6-.7-3.9-1.1.1,1.6.3,3.2.7,4.8.6,2.6,1.6,5.2,3,7.6"/>
  <path class="cls-3" d="M358.5,207.3c-3.2-2-6.2,3.1-3,5.1,3.4,2.2,7.1,3.6,10.9,4.4,1.5.3,3.1.5,4.6.5-.3-1.6-.7-3.2-1.1-4.8,0-.2-.1-.3-.2-.5.4-.2.7-.4,1.1-.6-2.5-.2-5-.7-7.3-1.6-1.7-.7-3.4-1.5-5-2.5"/>
  <path class="cls-3" d="M309.9,334.4c1.4,1.3,2.9,2.5,4.4,3.7,0-2.1,0-4.2,0-6.4,0-.2,0-.7,0-1.3-8.1-7.3-14.9-16-20.2-25.5-.6,0-1,0-1,0-.3.4-.6.9-.5,1.5.2,2.8.4,5.6.5,8.4,1.5,2.3,3.1,4.5,4.8,6.7,3.6,4.6,7.6,9,11.9,12.9"/>
  <path class="cls-1" d="M301.4,185.6h0s0,0,0,0Z"/>
  <path class="cls-9" d="M400.7,300.5c2.5,4,7.1,6.3,8.7,10.8,1.6,4.3,1.5,8.9,4.2,12.9,4.2,6.2,12.1,9.6,19.5,7.7,4.3-1.1,7.9-3.8,10.3-7.2-.6-.9-1.1-1.8-1.8-2.6-3.7-5.2-8.2-9.8-13-14-6.7-5.9-13.9-11.3-20.1-17.7,0-.5-.1-1.1-.6-1.6-1.9-2.1-3.6-4.3-5.3-6.6-.7-.9-1.4-1.9-2.1-2.9-2.7,6.9-4,14.6.1,21.2"/>
  <path class="cls-3" d="M291.8,285.2c1.4.5,2.9.9,4.4,1.2,2.2.4,4.6.6,6.9.4,1.7-.1,2.6-1.4,2.8-2.7.1-1.1-.2-2.2-1-2.8-.4-.3-1-.5-1.8-.4-1,0-1.9,0-2.9,0-5.1-.3-9.9-2.3-13.6-5.8,0,.2-.1.5-.1.8,0,2.3.2,4.6.5,6.8,1.4.9,2.9,1.6,4.4,2.2.1,0,.2,0,.4.1"/>
</svg>