<?xml version="1.0" encoding="UTF-8"?>
<svg id="_레이어_2" data-name="레이어 2" xmlns="http://www.w3.org/2000/svg" xmlns:xlink="http://www.w3.org/1999/xlink" viewBox="0 0 360 576">
  <defs>
    <style>
      .cls-1 {
        fill: #ef9ae3;
      }

      .cls-1, .cls-2, .cls-3, .cls-4, .cls-5 {
        stroke-width: 0px;
      }

      .cls-6 {
        clip-path: url(#clippath);
      }

      .cls-2, .cls-7, .cls-8 {
        fill: none;
      }

      .cls-7, .cls-9 {
        stroke-width: 1.94px;
      }

      .cls-7, .cls-9, .cls-10, .cls-8 {
        stroke: #212128;
        stroke-linecap: round;
        stroke-linejoin: round;
      }

      .cls-3 {
        fill: #212128;
      }

      .cls-11 {
        clip-path: url(#clippath-1);
      }

      .cls-12 {
        clip-path: url(#clippath-2);
      }

      .cls-9, .cls-10, .cls-5 {
        fill: #fff;
      }

      .cls-4 {
        fill: #a3dee6;
      }

      .cls-10, .cls-8 {
        stroke-width: 1.86px;
      }
    </style>
    <clipPath id="clippath">
      <rect class="cls-2" width="360" height="576" rx="24" ry="24"/>
    </clipPath>
    <clipPath id="clippath-1">
      <rect class="cls-2" x="-16" y="340" width="201.62" height="249"/>
    </clipPath>
    <clipPath id="clippath-2">
      <rect class="cls-2" x="186" y="351.75" width="162" height="251.25"/>
    </clipPath>
  </defs>
  <g id="_레이어_1-2" data-name="레이어 1">
    <g class="cls-6">
      <g>
        <rect class="cls-5" width="360" height="576" rx="24" ry="24"/>
        <g class="cls-11">
          <g>
            <path class="cls-4" d="M131.43,473.27l7.59,106.43H28.53l-9.86-101.16"/>
            <path class="cls-3" d="M116.94,446.38l-101.59,9.05c-12.63-8.55-5.89-29.93,2.19-33.65,1.86-.86,3.87-1.27,5.47-2.78,5.24-4.92-1.9-14.99,8.09-22.67,4.03-3.1,9.94-1.67,12.16-6.95.8-1.9.78-4.2,1.01-6.37.75-7.14,4.4-13.21,8.81-17.27,12.13-11.19,30.02-14.42,42.92-2.62,5.43,4.96,9.56,12.94,10.07,21.67.22,3.76-.11,7.98,1.73,10.86.97,1.52,2.38,2.37,3.57,3.58,2.74,2.81,4.15,7.77,3.49,12.26-.69,4.71-3.44,8.77-3.25,13.59.15,3.87,2.15,7.1,3.72,10.38,1.57,3.28,3.11,7.65,1.6,10.91h0Z"/>
            <path class="cls-10" d="M94.47,469.64l-58.52,7.42c14.26-22.35,22.81-41.27,22.81-41.27l-2.02-20.31-2.4-11.07c-.12-7.02-.18-14.55-.1-21.73.27-24.22,21.96-23.46,21.96-23.46,17.85.19,25.78,6.53,27.06,22,0,0,1.54,16.66,1.02,22.59-1.35,15.42-7.8,19.84-15.96,20.1l.22,17.28,5.94,28.43h-.01Z"/>
            <path class="cls-8" d="M90.92,397.08c.72,1.18,1.16,2.56,1.29,3.93.13,1.47-.63,2.13-1.89,2.78"/>
            <path class="cls-3" d="M83.03,397.15c-.01-1.09-.91-1.97-2.01-1.95-1.09.01-1.97.91-1.96,2,.01,1.09.91,1.97,2.01,1.95,1.09-.01,1.97-.91,1.96-2Z"/>
            <path class="cls-3" d="M98.63,396.95c-.01-1.09-.91-1.97-2.01-1.95-1.09.01-1.97.91-1.96,2,.01,1.09.91,1.97,2.01,1.95,1.09-.01,1.97-.91,1.96-2Z"/>
            <path class="cls-8" d="M94.11,409.14c-2.9,1.61-6.98,1.36-9.47-.63"/>
            <path class="cls-8" d="M88.32,423.92s-9.82.43-18.26-5.85"/>
            <path class="cls-10" d="M94.83,408.17c-.76,6.81-9,6.13-10.88-.23l10.88.23Z"/>
            <path class="cls-3" d="M62.3,392.6c.55.47,1.37.38,2.08.25,12.74-2.36,24.75-6.67,33.43-16.25,3.83,5.43,5.62,11.2,6.39,17.79.29-4.95.2-11.62-.56-16.51-.41-2.65-.99-5.32-2.25-7.7-1.11-2.1-2.73-3.91-4.52-5.48-5.3-4.64-12.54-7.28-19.52-6.27-6.95,1.01-14.32,2.05-19.57,6.68-5.26,4.63-8.68,11.18-9.95,18.06-.67,3.68-.76,7.45-.68,11.19.09,4.72.45,9.47,1.7,14.03,1.61,5.86,5.7,23.02,9.93,27.4,2.56-9.35,3.38-33.49,3.54-43.19Z"/>
            <path class="cls-5" d="M64.02,394.27c-.47-3.38-3.45-6.02-6.53-5.78-5.79.45-7.04,7.57-4.48,11.79,1.92,3.16,5.7,5.64,9.25,6.57"/>
            <path class="cls-8" d="M64.02,394.27c-.47-3.38-3.45-6.02-6.53-5.78-5.79.45-7.04,7.57-4.48,11.79,1.92,3.16,5.7,5.64,9.25,6.57"/>
            <path class="cls-8" d="M61.19,397.76c-.7-1.94-2.44-3.6-4.58-4.39"/>
            <path class="cls-4" d="M139.19,477.23l-1.19-22.97c-14.91-19.81-49.55-20.25-49.55-20.25l-8.13,8.63-22.06-6.94s-25.06,1-43.2,13.89l21.92,53.85"/>
            <path class="cls-8" d="M80.31,442.63l7.09,137.07"/>
            <path class="cls-10" d="M111.82,408.37c-2.35-5.36-4.67-11.01-4.96-12.94-.28-1.89.32-3.42,2.46-3.57-.86-2.2.09-6.46,3.86-4.7-.67-3.07,1.65-5.67,5.9-3.37,3.49-3.92,8.64,4.07,9.42,5.53,1.56,2.92,7.86,12.94,11,19.46,3.14,5.79.93,24.12.93,24.12l16.16,25.84-23.35,9.63-12.03-27.27c-7.54-4.92-10.79-19.41-12.3-28.48-.21-1.24-.32-2.72.75-3.66.5-.44,1.31-.64,1.95-.61l.22.03h0Z"/>
            <path class="cls-8" d="M116.24,424.85c-.18-3.03.25-6.17-1-8.87-.96-2.08-2.19-4.8-3.42-7.62"/>
            <path class="cls-8" d="M119.08,383.8c-.64,1.53-.11,3.29.83,5.32,1.67,3.56,8.64,16.81,8.64,16.81-3.97,6.71-7.35,17.77-5.47,24.58"/>
            <path class="cls-8" d="M113.18,387.17c1.48,6.59,9.87,22.22,9.87,22.22"/>
            <path class="cls-8" d="M109.32,391.87c1.66,3.36,9.07,19.89,9.07,19.89"/>
            <path class="cls-8" d="M128.56,405.93c-4.45,2.72-8.57,5.27-12.49,8.65"/>
            <path class="cls-4" d="M137.04,494.1l-18.39-48.62,27.4-13.39s25.88,30.09,27.44,48.79c1.65,19.84-11.98,29.04-39.21,25.12l-6.08-.57-.7-32.15"/>
            <path class="cls-8" d="M124.14,458.02l27.4-13.38"/>
            <path class="cls-8" d="M137.05,494.1l-18.39-48.62"/>
            <path class="cls-8" d="M127.9,485.8l.42,19.62"/>
            <path class="cls-10" d="M91.51,520.79c1.5-1.97,2.39-3.01,2.38-5.48,0-2.47-2.9-4.33-5.2-3.39,2.46-1.11,1.79-5.24-.63-6.45s-5.36-.32-7.73.97c-2.94,1.61-16.36,11.29-16.36,11.29l1.16-7.64s-7.5,1.33-15.25,10c-3.98,4.46-6.91,8.9-8.81,12.17l16.02,20.42c7.36-2.15,22.06-6.98,30.57-13.53,5.76-4.44,3.88-8.29,1.19-8.73,0,0,3.85-2.54,4.9-4.83,1.05-2.29.28-4.82-2.24-4.8Z"/>
            <path class="cls-8" d="M88.69,511.68c-6.08,4.23-12.29,8.27-18.61,12.12"/>
            <path class="cls-8" d="M91.82,520.62c-5,2.78-13.9,8.47-18.89,11.26"/>
            <path class="cls-8" d="M89.29,530.46c-3.84,2.5-10.01,6.64-14.35,8.13"/>
            <path class="cls-8" d="M63.98,517.74s-6.9,5.56-11.86,5.58"/>
            <path class="cls-4" d="M-3.6,540.83l48.15-16.17,17.14,29.54c-18.2,13.46-43.13,30.05-65.79,17.27-8.22-4.63-14.63-12.37-17.65-21.29-8.97-26.56,5.69-64.13,23.05-87.87,4.28-6.19,11-11.4,18.1-15.46l16.9,36.99-20.21,50.37"/>
            <path class="cls-8" d="M31.8,531.64l17.15,29.55"/>
            <path class="cls-8" d="M61.7,554.21c-7.82,5.78-16.88,12.15-26.47,16.51-2.58,1.17-4.71,1.94-7.38,2.88"/>
            <path class="cls-8" d="M36.31,483.85l-13.46,33.55"/>
            <path class="cls-8" d="M-3.6,540.83l48.16-16.17"/>
            <path class="cls-8" d="M96.72,436.85l-2.04,11.97-14.37-6.18-13.9,10.17-18.74-15.65"/>
            <path class="cls-10" d="M156.56,345.6c-11.21-2.26-22.14,4.96-24.41,16.14-1.28,6.29.46,12.49,4.22,17.11l-2.97,7.08,6.97-3.33c2.31,1.66,5,2.87,7.98,3.47,11.22,2.26,22.14-4.96,24.41-16.14,2.27-11.18-4.97-22.07-16.19-24.34h0Z"/>
            <path class="cls-8" d="M164.25,360.36h-22.84"/>
            <path class="cls-8" d="M164.25,366.23h-22.84"/>
            <path class="cls-8" d="M164.25,372.1h-22.84"/>
          </g>
        </g>
        <g class="cls-12">
          <g>
            <path class="cls-3" d="M319.66,461.71c9.42-1.15,18.48-4.35,23.73-12.3,8.55-12.94,1.92-30.07-11.9-36.8-8.36-4.07-18.73-4.44-27.8-6.86-6.41-1.71-12.74-5.5-14.14-11.21l2.76,68.1c8.03-.36,18.07.21,27.35-.93Z"/>
            <path class="cls-9" d="M235.67,444.02l79.98-3.26c-13.93-9.59-24.13-13.09-24.13-13.09,0,0,1.32-26.72.71-51.58-.61-24.87-22.92-23.78-22.92-23.78-18.36.44-26.44,7.06-27.54,22.96,0,0-.65,7.4-.98,15.8-.1,2.54-.35,5.07-.67,7.6-1.95,15.17,6.72,19.93,17.63,20.22l-.03,9.34s-13.08,7-22.04,15.79h0Z"/>
            <path class="cls-7" d="M250.35,392.46c-.72,1.22-1.17,2.65-1.27,4.05-.12,1.51.68,2.18,1.98,2.83"/>
            <path class="cls-3" d="M257.49,392.45c0-1.12.91-2.03,2.04-2.03s2.04.91,2.04,2.03-.91,2.03-2.04,2.03-2.04-.91-2.04-2.03Z"/>
            <path class="cls-3" d="M241.44,392.47c0-1.12.91-2.03,2.04-2.03s2.04.91,2.04,2.03-.91,2.03-2.04,2.03-2.04-.91-2.04-2.03Z"/>
            <path class="cls-7" d="M256.96,405.06c-2.8-1.51-6.69-1.21-9.04.73"/>
            <path class="cls-3" d="M274.58,380.43s1.34,6.14,4.89,9.43l1.48,12.94s4.91,7,11.31,10.24c0,0,7.58-21.8,6.08-37.86-2.32-24.76-29-23.1-29-23.1-17.45.49-29.91,7.71-30.22,21.97-.07,3.25,2.26,6.45,6.52,6.89,4.78.49,9.3-2.42,12.17-6.03-.52,2.72.44,5.99,2.5,7.86,2.19,1.99,5.59,2.2,8.4,1.24,2.81-.96,3.73-1.54,5.88-3.57Z"/>
            <path class="cls-5" d="M277.23,389.22c.43-3.47,3.47-6.23,6.64-6.03,5.96.38,7.34,7.67,4.78,12.04-1.92,3.27-5.79,5.88-9.42,6.87"/>
            <path class="cls-7" d="M277.23,389.22c.43-3.47,3.47-6.23,6.64-6.03,5.96.38,7.34,7.67,4.78,12.04-1.92,3.27-5.79,5.88-9.42,6.87"/>
            <path class="cls-7" d="M280.2,392.77c.7-2,2.45-3.72,4.65-4.56"/>
            <path class="cls-7" d="M257.73,418.89s5.72.19,13.08-3.58"/>
            <path class="cls-9" d="M257.7,428.23s-.23,7.17,12.03,7.48c11.51.29,21.79-8.03,21.79-8.03l30.28,16.22,3.97,156.22-99.28,2.34-.59-147.21,31.79-27.02h0Z"/>
            <path class="cls-1" d="M220.56,473.72l-4.03,121.68h24.53c0-66.88-.79-134.38,15.89-167.73l-22.48,9.41c-13.73,5.23-24.6,15.98-29.95,29.6l-16.69,118.46-1.85,11.78,55.44,5.17-8.58-69.51"/>
            <path class="cls-7" d="M220.56,473.72l-2.41,72.77"/>
            <path class="cls-9" d="M277.43,516.89l-35.51,13.09c-12.19,2.35-24.15,5.43-30.66,8.9-18.39,9.8-15.42,18.57-15.42,18.57-.95,1.48-1.76,3.29-1.15,4.94.45,1.2,1.64,2.05,2.91,2.28,1.27.23,2.6-.12,3.72-.76-.47.86-.72,1.92-.5,2.88.22.95.81,1.82,1.64,2.34.87.54,1.93.68,2.96.59.97-.08,1.92-.37,2.78-.84-.22.84.49,1.82,1.27,2.22.77.4,1.7.39,2.56.24,1.55-.27,2.99-.96,4.38-1.69,6.03-3.17,9.27-5.71,9.27-5.71,3.64-.85,11.85-3.29,14.88-5.59,1.72-1.31,3.47-3.07,4.17-5.16l50.53-10.17-17.82-26.13h0Z"/>
            <path class="cls-7" d="M201.33,563.9s3.59-6.87,15.79-13.27"/>
            <path class="cls-7" d="M195.84,557.45s7.43-7.73,17.09-13.02"/>
            <path class="cls-7" d="M208.2,568.88s2.13-5.91,12.36-10.89"/>
            <path class="cls-1" d="M291.52,427.67c-9.08,61.28-4.52,167.73-4.52,167.73h56.66l-4.44-111.67c1.46-19.5-6.11-42.7-24.9-48.74l-22.79-7.32Z"/>
            <path class="cls-1" d="M302.81,471.43l-15.73,33.84-50.1,22.15,11.69,35.91,65.53-22.01c10.48-3.52,15.01-9.81,19.74-23.47l11.92-32.36c3.41-9.26,2.76-19.56-1.98-28.22-4.27-7.79-12.05-16.06-26.23-21.07"/>
            <path class="cls-7" d="M339.65,502.35l-5.71,15.5c-4.72,13.66-9.25,19.94-19.74,23.47l-27.64,10.11"/>
            <path class="cls-7" d="M302.81,471.43l-15.73,33.84"/>
          </g>
        </g>
      </g>
    </g>
  </g>
</svg>