<?xml version="1.0" encoding="UTF-8"?>
<svg xmlns="http://www.w3.org/2000/svg" xmlns:xlink="http://www.w3.org/1999/xlink" version="1.1" viewBox="0 0 132.2 130">
  <defs>
    <style>
      .cls-1 {
        fill: none;
      }

      .cls-2 {
        fill: #87c878;
      }

      .cls-3 {
        fill: #6a9e5e;
      }

      .cls-4 {
        clip-path: url(#clippath);
      }
    </style>
    <clipPath id="clippath">
      <rect class="cls-1" y="23.5" width="132.2" height="83"/>
    </clipPath>
  </defs>
  <!-- Generator: Adobe Illustrator 28.6.0, SVG Export Plug-In . SVG Version: 1.2.0 Build 709)  -->
  <g>
    <g id="_레이어_1" data-name="레이어_1">
      <g class="cls-4">
        <g>
          <path class="cls-2" d="M91.4,69.8H11.8c-3.3,0-6-3.3-6-7.3s2.7-7.3,6-7.3h79.5c3.3,0,6.1,3.3,6.1,7.3s-2.7,7.3-6.1,7.3Z"/>
          <path class="cls-2" d="M7.3,94.9c-4.1,0-7.3-3.3-7.3-7.3v-44.3c0-4,3.3-7.3,7.3-7.3s7.3,3.3,7.3,7.3v44.3c0,4-3.3,7.3-7.3,7.3Z"/>
          <path class="cls-2" d="M22,102.1c-4.1,0-7.3-3.3-7.3-7.3v-61.1c0-4,3.3-7.3,7.3-7.3s7.3,3.3,7.3,7.3v61.1c0,4-3.3,7.3-7.3,7.3Z"/>
          <path class="cls-2" d="M36.7,102.1c-4.1,0-7.3-3.3-7.3-7.3v-61.1c0-4,3.3-7.3,7.3-7.3s7.3,3.3,7.3,7.3v61.1c0,4-3.3,7.3-7.3,7.3Z"/>
          <path class="cls-2" d="M110.2,102.1c-4.1,0-7.3-3.3-7.3-7.3v-61.1c0-4,3.3-7.3,7.3-7.3s7.3,3.3,7.3,7.3v61.1c0,4-3.3,7.3-7.3,7.3Z"/>
          <path class="cls-2" d="M95.6,106.5c-4.1,0-7.3-3.3-7.3-7.3V30.8c0-4,3.3-7.3,7.3-7.3s7.3,3.3,7.3,7.3v68.4c0,4-3.3,7.3-7.3,7.3h0Z"/>
          <path class="cls-2" d="M124.9,92.5c-4.1,0-7.3-3.3-7.3-7.3v-44.3c0-4,3.3-7.3,7.3-7.3s7.3,3.3,7.3,7.3v44.3c0,4-3.3,7.3-7.3,7.3Z"/>
          <path class="cls-3" d="M117.5,87.8c-1,0-1.8-.8-1.8-1.8v-46.4c0-1,.8-1.8,1.8-1.8s1.8.8,1.8,1.8v46.4c0,1-.8,1.8-1.8,1.8Z"/>
          <path class="cls-3" d="M103.1,98.3c-1,0-1.8-.8-1.8-1.8V31.3c0-1,.8-1.8,1.8-1.8s1.8.8,1.8,1.8v65.3c0,1-.8,1.8-1.8,1.8h0Z"/>
          <path class="cls-3" d="M14.5,89.9c-1,0-1.8-.8-1.8-1.8v-46.4c0-1,.8-1.8,1.8-1.8s1.8.8,1.8,1.8v46.4c0,1-.8,1.8-1.8,1.8Z"/>
          <path class="cls-3" d="M29,98.3c-1,0-1.8-.8-1.8-1.8V31.3c0-1,.8-1.8,1.8-1.8s1.8.8,1.8,1.8v65.3c0,1-.8,1.8-1.8,1.8h0Z"/>
        </g>
      </g>
    </g>
  </g>
</svg>