<svg width="470" height="404" viewBox="0 0 470 404" fill="none" xmlns="http://www.w3.org/2000/svg">
<rect x="0.75" y="0.75" width="468.5" height="401.711" rx="23.25" fill="#DEF5E9"/>
<rect x="0.75" y="0.75" width="468.5" height="401.711" rx="23.25" stroke="black" stroke-width="1.5"/>
<path d="M427.706 357.09H42L71.272 316.213H389.359L427.706 357.09Z" fill="#FFB0A0"/>
<path d="M427.706 357.09H42L71.272 316.213H389.359L427.706 357.09Z" stroke="black" stroke-width="1.5" stroke-miterlimit="10" stroke-linecap="round" stroke-linejoin="round"/>
<path d="M333.716 121.556C314.654 106.66 299.348 100.077 294.457 92.6563C291.351 87.9512 279.114 73.0549 262.953 78.5225C243.091 85.2361 225.089 92.3402 221.072 92.4146C217.595 92.4704 215.698 90.0713 208.984 88.1744C206.976 87.2073 204.614 86.5564 201.88 86.3147C199.723 86.2217 197.844 86.1659 196.282 86.1101C194.181 85.9242 192.172 85.8126 190.406 85.7382C190.127 84.4178 188.174 74.896 186.351 69.1495C185.31 65.8763 182.985 65.2626 179.21 65.802C175.844 66.2855 172.868 67.3455 172.868 67.3455C172.868 67.3455 169.725 66.4157 167.977 67.4571C167.085 67.9778 166.583 67.0108 166.583 67.0108C165.504 65.5416 164.834 64.277 163.551 64.0352C161.264 63.6261 158.679 66.8434 153.992 70.4513C152.43 71.6601 150.273 73.5942 149.027 73.929C146.349 74.6356 144.675 73.2409 140.974 74.5427C131.378 77.9274 126.227 89.2902 126.227 89.2902C119.16 104.689 125.408 124.774 133.256 131.896C141.104 139.019 156.354 136.657 164.109 134.667C169.558 133.273 174.988 126.912 177.759 123.23C181.572 122.951 194.125 122.226 199.035 124.551C204.856 127.303 213.838 148.299 224.197 149.675C234.555 151.052 262.098 147.035 276.604 152C290.328 156.687 302.138 162.154 302.231 177.422C302.231 177.422 351.867 182.983 359.305 161.243C359.343 161.224 355.884 138.889 333.716 121.556Z" fill="#FFD6DC" stroke="black" stroke-width="1.5" stroke-miterlimit="10"/>
<path d="M145.81 141.753C130.504 140.971 122.061 122.318 120.462 114.935C117.747 102.438 122.768 92.3769 124.627 87.8764C126.487 83.3759 129.016 84.5475 129.016 84.5475C126.097 88.3785 126.989 91.2425 126.989 91.2425C129.463 99.9646 136.381 104.093 137.794 104.725C139.189 105.376 146.07 100.727 146.07 100.727C149.213 102.289 154.941 102.531 159.107 102.475C159.107 102.475 171.957 103.926 174.524 104.502C174.524 104.502 164.667 101.694 162.12 105.209L162.064 105.153L159.59 108.705C159.014 116.237 178.001 108.296 178.001 108.296C187.189 115.754 183.525 119.343 183.525 119.343C178.838 131.338 165.43 137.512 165.43 137.512C165.43 137.512 161.115 142.534 145.81 141.753Z" fill="#482409" stroke="black" stroke-width="1.5" stroke-miterlimit="10"/>
<path d="M162.101 105.209C162.101 105.209 158.344 110.323 157.228 112.034C156.113 113.745 157.024 119.25 162.715 118.264C168.405 117.278 179.471 111.048 174.208 104.502L162.101 105.209Z" fill="#FFD6DC" stroke="black" stroke-width="1.5" stroke-miterlimit="10"/>
<path d="M162.789 142.441C162.789 142.441 153.193 154.92 166.211 171.713C179.229 188.506 171.66 193.546 166.211 204.742C160.762 215.937 171.697 232.786 183.227 241.155C183.227 241.155 175.881 230.499 179.248 223.767C182.614 217.035 195.836 207.401 192.303 191.798C188.769 176.195 185.124 173.387 188.621 161.076C192.117 148.764 186.668 132.752 175.398 133.7" fill="#482409"/>
<path d="M162.789 142.441C162.789 142.441 153.193 154.92 166.211 171.713C179.229 188.506 171.66 193.546 166.211 204.742C160.762 215.937 171.697 232.786 183.227 241.155C183.227 241.155 175.881 230.499 179.248 223.767C182.614 217.035 195.836 207.401 192.303 191.798C188.769 176.195 185.124 173.387 188.621 161.076C192.117 148.764 186.668 132.752 175.398 133.7" stroke="black" stroke-width="1.5" stroke-miterlimit="10"/>
<path d="M160.594 139.837C160.594 139.837 169.279 136.006 174.542 131.078C174.542 131.078 176.495 133.459 177.016 134.426C177.016 134.426 167.792 142.367 162.938 143.557C162.938 143.557 161.376 142.274 160.594 139.837Z" fill="black"/>
<path d="M217.167 307.381C217.167 307.381 227.117 323.876 218.134 333.919C218.134 333.919 202.345 333.751 198.44 334.068C194.534 334.384 184.064 334.123 179.508 333.603C174.97 333.063 164.705 332.896 156.485 328.284C148.265 323.672 138.65 322.444 133.87 322.779C129.091 323.114 119.141 322.742 119.904 318.204C120.332 315.693 123.177 314.094 129.258 312.83C129.258 312.83 135.804 304.386 141.625 304.498C147.446 304.628 158.475 313.406 162.566 311.36C166.657 309.315 169.596 298.826 178.169 300.667C186.742 302.527 188.063 307.511 194.832 309.091C201.639 310.691 217.167 307.381 217.167 307.381Z" fill="#FFD6DC" stroke="black" stroke-width="1.5" stroke-miterlimit="10"/>
<path d="M335.52 339.164C322.39 343.441 318.764 340.745 311.79 339.926C304.797 339.108 218.376 332.934 201.769 334.942C201.769 334.942 192.359 324.286 203.257 307.642C203.257 307.642 225.592 306.172 239.019 304.443C252.446 302.713 271.732 296.074 280.844 295.944C289.957 295.814 312.143 298.548 321.963 303.643C331.782 308.757 335.52 339.164 335.52 339.164Z" fill="#FFD9B3" stroke="black" stroke-width="1.5" stroke-miterlimit="10"/>
<path d="M223.125 156.34C234.257 154.888 242.012 143.978 240.446 131.97C238.88 119.962 228.587 111.405 217.455 112.856C206.323 114.308 198.568 125.219 200.134 137.226C201.7 149.234 211.993 157.792 223.125 156.34Z" fill="#F1C9AE"/>
<path d="M239.596 134.426C239.596 134.426 223.249 194.793 222.189 213.111C221.78 220.196 199.519 221.796 201.471 203.217C201.471 203.217 202.81 197.08 203.759 185.661C205.953 159.197 194.907 135.932 201.36 127.08L239.596 134.426Z" fill="#F1C9AE"/>
<path d="M194.125 281.901C194.125 281.901 193.512 291.329 208.222 286.773C208.222 286.773 209.487 276.173 212.128 268.325C214.768 260.477 223.193 222.966 222.17 213.109C222.17 213.109 214.378 198.548 201.416 206.824C201.416 206.824 197.343 219.6 196.562 242.865C195.78 266.111 195.446 276.693 194.125 281.901Z" fill="#F1C9AE"/>
<path d="M194.72 278.664C194.72 278.664 193.381 281.1 189.867 282.253C186.352 283.406 176.495 286.289 174.58 287.182C172.664 288.074 172.143 293.598 169.54 296.424C166.918 299.251 163.682 302.041 162.008 304.589C160.353 307.118 156.15 310.205 154.197 312.083C152.244 313.962 155.015 315.691 158.828 314.538C162.64 313.385 166.155 311.897 168.126 309.703C168.126 309.703 174.375 311.246 177.648 307.806C180.921 304.365 180.047 302.376 182.279 301.483C184.511 300.59 190.108 299.66 193.623 298.173C197.138 296.685 202.55 298.34 205.488 295.197C208.427 292.054 208.892 285.88 209.524 279.259C209.524 279.259 204.93 274.852 194.72 278.664Z" fill="#FFD6DC" stroke="black" stroke-width="1.5" stroke-miterlimit="10"/>
<path d="M212.462 315.192C212.462 315.192 223.416 330.534 214.527 340.465C214.527 340.465 198.161 340.949 194.144 341.395C190.108 341.86 179.248 342.028 174.524 341.711C169.8 341.377 159.163 341.618 150.478 337.564C141.793 333.491 131.769 332.692 126.822 333.213C121.875 333.733 111.554 333.77 112.186 329.4C112.521 327.001 115.422 325.346 121.671 323.895C121.671 323.895 128.124 315.564 134.149 315.452C140.193 315.341 151.965 323.282 156.113 321.161C160.26 319.041 162.901 308.925 171.864 310.338C180.81 311.77 182.391 316.475 189.458 317.721C196.487 318.967 212.462 315.192 212.462 315.192Z" fill="#FFD6DC" stroke="black" stroke-width="1.5" stroke-miterlimit="10"/>
<path d="M364.941 174.187C360.366 141.345 339.797 126.467 339.797 126.467C339.797 126.467 333.474 135.189 319.898 144.841C303.812 156.26 294.42 160.779 294.42 160.779C301.562 164.944 302.38 175.88 302.38 175.88C294.42 199.703 301.376 221.127 311.213 232.675C311.864 233.438 312.497 234.126 313.11 234.758C314.914 237.883 315.1 245.489 315.1 245.489C313.464 256.536 312.497 279.28 314.635 292.893C315.361 297.468 314.914 301.504 314.133 305.316C302.566 302.452 285.679 301.374 277.943 301.764C268.514 302.248 248.801 309.37 234.946 311.546C221.11 313.722 198.012 316.028 198.012 316.028C187.375 332.357 197.547 342.139 197.547 342.139C214.657 339.554 304.444 341.971 311.716 342.473C318.039 342.901 321.777 344.798 331.466 342.25C332.861 342.176 334.218 341.99 335.446 341.674C340.783 340.298 345.525 334.272 356.405 292.986C363.044 267.75 366.057 225.72 366.801 214.022C367.879 205.04 367.47 192.338 364.941 174.187Z" fill="#FFD9B3" stroke="black" stroke-width="1.5" stroke-miterlimit="10"/>
<path d="M276.753 152.484C276.753 152.484 279.04 141.511 289.51 124.123C299.665 107.274 309.763 104.503 309.763 104.503C309.763 104.503 303.347 99.5931 296.782 93.5676C292.691 89.8109 292.374 87.3375 284.564 80.2334C278.724 74.9146 267.808 76.8115 259.885 79.0617C249.508 82.0001 229.85 92.024 224.457 94.9996C219.064 97.9751 209.673 107.237 207.738 110.826C205.804 114.415 199.314 128.437 210.826 139.744C222.319 151.033 233.031 144.319 237.401 146.756C241.771 149.192 241.92 149.88 241.92 149.88C241.92 149.88 258.286 148.764 267.77 150.122C267.752 150.122 272.029 150.066 276.753 152.484Z" fill="#FF8A7A" stroke="black" stroke-width="1.5" stroke-miterlimit="10"/>
<path d="M244.077 143.037C244.077 143.037 247.704 142.349 250.772 138.518C253.841 134.705 260.22 126.56 263.307 119.009C266.394 111.459 270.541 99.501 266.171 91.8203C266.171 91.8203 268.086 124.886 244.077 143.037Z" fill="#E7AE92"/>
<path d="M226.168 157.736C237.612 155.519 245.011 144.027 242.694 132.069C240.378 120.11 229.222 112.213 217.778 114.431C206.333 116.648 198.934 128.14 201.251 140.098C203.568 152.056 214.724 159.953 226.168 157.736Z" fill="#FFD6DC" stroke="black" stroke-width="1.5" stroke-miterlimit="10"/>
<path d="M264.125 89.7543C256.835 83.9334 243.501 89.9961 234.723 94.0131C225.945 98.0301 213.876 105.767 213.876 105.767C202.383 114.34 200.653 133.011 200.653 133.011V133.03C198.44 144.188 206.79 165.371 204.558 188.952C203.461 200.705 201.657 207.028 201.657 207.028C201.49 208.405 201.49 209.651 201.564 210.804C201.322 211.566 197.417 224.584 196.413 247.831C195.446 269.906 195.148 280.878 193.958 286.662C193.567 287.275 192.154 289.228 189.048 290.362C185.366 291.701 174.97 295.049 172.962 296.053C170.953 297.057 170.618 302.748 167.94 305.761C165.262 308.774 161.915 311.786 160.241 314.464C158.567 317.142 154.216 320.49 152.207 322.498C150.199 324.507 153.211 326.181 157.228 324.842C161.245 323.503 164.928 321.829 166.936 319.486C166.936 319.486 173.631 320.825 176.979 317.142C180.326 313.46 179.322 311.452 181.665 310.447C184.008 309.443 189.922 308.253 193.623 306.579C197.324 304.905 203.108 306.393 206.139 303.027C208.947 299.903 209.375 294.138 209.766 287.833C210.342 283.946 211.328 278.683 212.909 274.257C215.791 266.186 224.606 227.597 223.602 217.461C224.588 203.067 235.448 163.418 240.525 145.453C241.213 145.23 241.604 145.1 241.604 145.1C245.528 140.785 244.766 144.783 250.215 138.609C255.664 132.453 261.205 122.485 263.772 116.962C266.413 111.439 271.415 95.5566 264.125 89.7543Z" fill="#FFD6DC" stroke="black" stroke-width="1.5" stroke-miterlimit="10"/>
<path d="M175.807 78.8208C175.807 78.8208 176.421 77.8166 175.844 75.306C175.417 73.4276 173.706 72.1816 173.706 72.1816" stroke="black" stroke-width="1.5" stroke-miterlimit="10" stroke-linecap="round" stroke-linejoin="round"/>
<path d="M151.984 76.9062C151.984 76.9062 151.408 79.8446 154.104 81.165" stroke="black" stroke-width="1.5" stroke-miterlimit="10" stroke-linecap="round" stroke-linejoin="round"/>
<path d="M161.488 77.0912C161.488 76.2915 160.428 75.6406 159.126 75.6406C157.824 75.6406 156.745 76.2729 156.745 77.0726C156.745 77.8723 157.805 78.5232 159.107 78.5232C160.409 78.5418 161.488 77.8909 161.488 77.0912Z" fill="#232020"/>
<path d="M371.84 95.0371L357.223 95.7438L362.783 109.524L371.84 95.0371Z" fill="#FF8A7A"/>
<path d="M389.991 133.887C388.838 123.379 384.672 115.55 380.507 110.194C373.309 100.914 364.773 96.9154 364.401 96.748L361.686 102.625C361.761 102.662 369.33 106.251 375.56 114.378C380.06 120.255 382.72 126.913 383.557 134.259L389.991 133.887Z" fill="#FF8A7A"/>
</svg>
