<?xml version="1.0" encoding="UTF-8"?>
<svg xmlns="http://www.w3.org/2000/svg" version="1.1" viewBox="0 0 126.6 127.7">
  <defs>
    <style>
      .cls-1 {
        fill: #b5a7d2;
      }
    </style>
  </defs>
  <!-- Generator: Adobe Illustrator 28.6.0, SVG Export Plug-In . SVG Version: 1.2.0 Build 709)  -->
  <g>
    <g id="_레이어_1" data-name="레이어_1">
      <g id="_레이어_1-2" data-name="_레이어_1">
        <path class="cls-1" d="M70.1,5l4.2,11.4c1.6,4.4,6.8,6.3,10.8,4l10.4-6c6.1-3.5,13.2,2.5,10.8,9.2l-4,11.4c-1.6,4.4,1.2,9.3,5.8,10.1l11.8,2.2c6.9,1.3,8.5,10.5,2.5,14.1l-10.3,6.1c-4,2.4-5,7.9-2,11.5l7.6,9.3c4.5,5.5-.2,13.6-7.1,12.4l-11.8-2c-4.6-.8-8.8,2.8-8.8,7.5v12.1c0,7.1-8.8,10.3-13.4,4.9l-7.7-9.3c-3-3.6-8.5-3.6-11.5,0l-7.7,9.3c-4.5,5.4-13.3,2.2-13.3-4.9v-12.1c0-4.7-4.3-8.3-8.9-7.5l-11.8,2c-6.9,1.2-11.6-7-7.1-12.4l7.6-9.3c3-3.6,2-9.1-2-11.5l-10.3-6.1c-6-3.6-4.4-12.9,2.5-14.1l11.8-2.2c4.6-.8,7.3-5.7,5.8-10.1l-4-11.4c-2.4-6.7,4.8-12.7,10.8-9.2l10.4,6c4,2.3,9.2.4,10.8-4l4.2-11.4c2.4-6.7,11.7-6.7,14.2,0h-.3Z"/>
      </g>
    </g>
  </g>
</svg>