<?xml version="1.0" encoding="UTF-8"?>
<svg xmlns="http://www.w3.org/2000/svg" version="1.1" viewBox="0 0 126 126">
  <defs>
    <style>
      .cls-1 {
        fill: #f2b600;
      }
    </style>
  </defs>
  <!-- Generator: Adobe Illustrator 28.6.0, SVG Export Plug-In . SVG Version: 1.2.0 Build 709)  -->
  <g>
    <g id="_레이어_1" data-name="레이어_1">
      <path class="cls-1" d="M124.3,53.4c3.3-3.4,1.5-9.3-3.1-10l-29.1-4.3c-4.8-.7-9-3.8-11.1-8.4l-13.1-27.5c-2.1-4.4-8-4.3-10.1,0l-12.9,27.6c-2.1,4.6-6.3,7.7-11.1,8.5l-29.1,4.5c-4.6.7-6.4,6.6-3.1,10l21.1,21.4c3.5,3.5,5.1,8.6,4.3,13.6l-4.9,30.3c-.8,4.8,4.1,8.4,8.2,6.2l25.9-14.4c4.3-2.4,9.4-2.4,13.7,0l26,14.2c4.1,2.2,8.9-1.4,8.1-6.2l-5.1-30.2c-.8-5,.7-10.1,4.2-13.6l21-21.5h0Z"/>
    </g>
  </g>
</svg>