<svg width="300" height="301" viewBox="0 0 300 301" fill="none" xmlns="http://www.w3.org/2000/svg">
<g clip-path="url(#clip0_102_7296)">
<path d="M299.287 40.6893V268.18C299.287 285.364 284.693 299.287 266.687 299.287H34.3129C16.3159 299.287 1.71289 285.364 1.71289 268.18V32.8009C1.71289 15.6364 16.3064 1.71289 34.3129 1.71289H266.687C284.684 1.71289 299.287 15.6364 299.287 32.8009V40.6893Z" fill="#CAF1EB"/>
<path d="M299.287 40.6893V268.18C299.287 285.364 284.693 299.287 266.687 299.287H34.3129C16.3159 299.287 1.71289 285.364 1.71289 268.18V32.8009C1.71289 15.6364 16.3064 1.71289 34.3129 1.71289H266.687C284.684 1.71289 299.287 15.6364 299.287 32.8009V40.6893Z" stroke="black" stroke-width="1.5" stroke-linecap="round" stroke-linejoin="round"/>
<path d="M1.71289 241.54H299.287V269.083C299.287 285.763 285.739 299.297 269.064 299.297H31.9361C15.2511 299.297 1.71289 285.753 1.71289 269.083V241.54Z" fill="#B0B0B0" stroke="black" stroke-width="1.5" stroke-linecap="round" stroke-linejoin="round"/>
<path d="M299.287 259.503H1.71289V269.321H299.287V259.503Z" fill="white" stroke="black" stroke-width="1.5" stroke-linecap="round" stroke-linejoin="round"/>
<path d="M199.196 299.287H91.1943L98.2106 234.193H192.179L199.196 299.287Z" fill="#303030" stroke="black" stroke-width="1.5" stroke-linecap="round" stroke-linejoin="round"/>
<path d="M154.93 251.358V299.287" stroke="black" stroke-width="1.5" stroke-linecap="round" stroke-linejoin="round"/>
<path d="M186.798 116.39C191.818 128.945 192.093 170.677 192.093 170.677L193.843 232.435C193.843 233.414 193.073 234.184 192.103 234.184H108.991C108.763 234.165 108.554 234.165 108.345 234.146C106.101 234.06 103.962 233.3 102.175 232.026C101.176 231.323 100.368 230.392 99.6458 229.432L95.7003 223.967V223.948L95.6338 170.554C108.782 140.853 104.932 112.616 104.932 112.616C106.339 112.094 107.755 111.637 109.21 111.21C113.098 110.107 117.101 109.423 121.132 109.109C121.132 109.109 123.48 117.083 123.889 128.127C124.174 135.74 128.167 142.821 134.727 146.708C138.673 149.036 143.883 150.775 150.671 150.775C157.459 150.775 162.593 148.371 165.996 145.444C170.36 141.69 172.889 136.244 173.393 130.503C173.916 124.649 174.125 121.056 172.395 111.219C176.625 112.113 181.693 113.652 186.807 116.352V116.371L186.798 116.39Z" fill="#FF8561"/>
<path d="M135.668 108.881C149.254 119.098 161.69 110.06 161.69 110.06C161.69 110.06 166.11 109.917 172.385 111.238C174.125 121.075 173.906 124.668 173.383 130.522C172.88 136.253 170.351 141.709 165.987 145.463C162.583 148.39 157.659 150.795 150.661 150.795C143.664 150.795 138.663 149.055 134.718 146.727C128.158 142.84 124.165 135.75 123.88 128.146C123.48 117.102 121.123 109.128 121.123 109.128C123.138 108.957 125.173 108.881 127.207 108.881L135.659 108.9L135.668 108.881Z" fill="#F7CD7E"/>
<path d="M230.75 77.4703C230.75 79.8749 229.628 81.8137 228.24 81.8137V73.1174C229.628 73.1174 230.75 75.0658 230.75 77.4608V77.4703Z" fill="white"/>
<path d="M228.24 90.4434V90.4624H227.888C228.012 90.4624 228.116 90.4624 228.24 90.4434Z" fill="white"/>
<path d="M228.24 64.8676C228.116 64.8486 228.012 64.8486 227.888 64.8486H228.24V64.8676Z" fill="white"/>
<path d="M228.24 81.823C226.852 81.823 225.711 79.8747 225.711 77.4796C225.711 75.0846 226.852 73.1362 228.24 73.1362V81.8325V81.823Z" fill="white"/>
<path d="M224.465 191.178C224.941 191.216 225.416 191.235 225.901 191.235C225.426 191.235 224.941 191.216 224.465 191.178Z" fill="#FFD8CD"/>
<path d="M224.466 191.178C219.712 190.883 215.063 189.039 211.317 185.741L208.864 183.812C210.88 185.39 212.981 186.844 215.215 188.089C218.409 189.876 221.195 190.95 224.475 191.178H224.466Z" fill="#FFD8CD"/>
<path d="M214.968 64.8486H216.651C216.613 65.0767 216.565 65.3238 216.479 65.5519C215.985 65.2668 215.5 65.0482 214.968 64.8486Z" fill="#FFD8CD"/>
<path d="M210.547 64.2216L208.988 64.3451C208.921 62.853 209.72 61.3988 211.146 60.6955C213.076 59.7641 215.386 60.553 216.337 62.4823C216.708 63.2331 216.793 64.06 216.651 64.8488H214.968C213.599 64.3261 212.106 64.098 210.547 64.2216Z" fill="#FFD8CD"/>
<path d="M221.594 68.004L208.284 71.2449C209.14 68.7548 210.214 67.4433 210.214 67.4433L210.404 67.1771C211.526 68.0895 213.142 68.3366 214.521 67.6523C215.453 67.1962 216.118 66.4453 216.47 65.5519C216.555 65.3238 216.612 65.0767 216.641 64.8486H227.878C225.454 64.8486 223.248 66.0366 221.585 68.004H221.594Z" fill="white"/>
<path d="M209.035 64.8486H214.958C215.481 65.0387 215.975 65.2668 216.47 65.5519C216.118 66.4453 215.452 67.1962 214.521 67.6523C213.133 68.3366 211.526 68.0895 210.404 67.1771C209.986 66.8255 209.615 66.3883 209.368 65.8656C209.206 65.5519 209.083 65.2003 209.035 64.8486Z" fill="#FFD8CD"/>
<path d="M214.968 64.8486H209.045C209.007 64.6871 208.988 64.516 208.988 64.3449L210.547 64.2214C212.106 64.0978 213.599 64.3259 214.968 64.8486Z" fill="#FFD8CD"/>
<path d="M202.323 64.8487L208.722 64.3545C208.703 64.5161 208.665 64.6681 208.636 64.8487H202.323Z" fill="#FFD8CD"/>
<path d="M200.726 64.8486H202.323L200.726 64.9722V64.8486Z" fill="#FFD8CD"/>
<path d="M202.324 64.8487H200.726C200.793 64.3069 200.726 63.7462 200.555 63.2044C200.764 61.9404 201.572 60.7809 202.818 60.1726C204.871 59.1747 207.343 60.0301 208.342 62.064C208.693 62.7958 208.836 63.6036 208.731 64.3639L202.333 64.8582L202.324 64.8487Z" fill="#FFD8CD"/>
<path d="M200.726 64.9722L202.323 64.8486H208.636C208.351 66.0081 207.581 67.0251 206.431 67.5858C204.377 68.5838 201.905 67.7284 200.907 65.6945C200.821 65.5234 200.764 65.3428 200.698 65.1908C200.717 65.1338 200.736 65.0672 200.736 64.9817L200.726 64.9722Z" fill="#FFD8CD"/>
<path d="M200.726 64.9722C200.726 65.0577 200.707 65.1337 200.688 65.1813C200.669 65.1147 200.65 65.0577 200.631 64.9722H200.716H200.726Z" fill="#FFD8CD"/>
<path d="M200.546 63.2046C200.717 63.7463 200.793 64.3071 200.717 64.8488H200.593C200.451 64.3071 200.432 63.7273 200.536 63.2046H200.546Z" fill="#FFD8CD"/>
<path d="M200.726 64.8486V64.9722H200.641C200.641 64.9722 200.622 64.8866 200.603 64.8486H200.726Z" fill="#FFD8CD"/>
<path d="M196.638 68.9354L196.619 68.6408C197.237 68.6408 197.845 68.4982 198.425 68.2226C199.671 67.6048 200.479 66.4548 200.688 65.1908C200.754 65.3524 200.811 65.5234 200.897 65.6945C201.895 67.7284 204.367 68.5838 206.421 67.5858C207.581 67.0251 208.351 66.0081 208.626 64.8486H209.026C209.083 65.2003 209.197 65.5519 209.358 65.8656C209.606 66.3883 209.976 66.8255 210.395 67.1771L210.204 67.4433C210.204 67.4433 209.13 68.7548 208.275 71.2449L194.736 74.5619C195.278 70.9313 196.628 68.9354 196.628 68.9354H196.638Z" fill="white"/>
<path d="M192.502 64.1644C192.626 62.7578 193.453 61.4462 194.813 60.8C196.866 59.802 199.338 60.6384 200.336 62.6913C200.422 62.8624 200.498 63.0239 200.545 63.195C200.441 63.7177 200.46 64.2975 200.603 64.8392H192.626C192.607 64.6301 192.569 64.402 192.521 64.1739L192.502 64.1549V64.1644Z" fill="#FFD8CD"/>
<path d="M179.563 92.2872C181.636 94.3401 184.545 95.4996 187.663 95.2525L201.601 94.1785C199.728 92.0591 197.598 90.9661 195.621 90.4624H218.837V90.757C218.609 93.2091 217.906 94.7203 216.594 97.505C215.576 99.6054 215.434 102.01 215.947 104.291L246.227 162.162C250.525 172.207 246.845 182.13 237.566 187.899C233.973 190.123 229.923 191.225 225.901 191.225C225.407 191.225 224.941 191.206 224.466 191.168C221.186 190.94 218.4 189.876 215.206 188.079C212.981 186.834 210.87 185.38 208.855 183.802L192.094 170.668C192.094 170.668 195.564 152.79 206.259 146.233L200.897 128.774L200.279 126.968L196.277 115.154C195.117 111.647 193.643 107.513 190.649 104.795C190.335 104.51 190.031 104.234 189.736 103.987L183.917 99.1112C181.759 97.3244 180.267 94.9198 179.554 92.2777L179.563 92.2872Z" fill="#FFD8CD"/>
<path d="M195.621 90.4623H189.27C190.725 90.1296 193.073 89.816 195.621 90.4623Z" fill="#FFD8CD"/>
<path d="M196.619 68.6408C195.098 68.6408 193.624 67.7854 192.902 66.3123C192.797 66.0842 192.712 65.837 192.636 65.5899L200.631 64.9722C200.65 65.0577 200.669 65.1147 200.688 65.1813C200.479 66.4453 199.671 67.6048 198.426 68.2131C197.846 68.4982 197.237 68.6313 196.619 68.6313V68.6408Z" fill="#FFD8CD"/>
<path d="M192.626 64.8486H200.602C200.602 64.8486 200.622 64.9342 200.641 64.9722L192.645 65.59C192.645 65.59 192.626 65.5519 192.626 65.5234V65.5044C192.645 65.2953 192.645 65.0862 192.626 64.8581V64.8486Z" fill="#FFD8CD"/>
<path d="M192.626 65.5139C192.626 65.5139 192.626 65.5715 192.645 65.5811H192.607C192.607 65.5811 192.626 65.5427 192.626 65.5139Z" fill="white"/>
<path d="M192.626 65.4949C192.569 65.2858 192.54 65.0767 192.521 64.8486H192.626C192.645 65.0767 192.645 65.2858 192.626 65.4949Z" fill="#FFD8CD"/>
<path d="M192.522 64.1833C192.579 64.4114 192.607 64.6395 192.626 64.8486H192.522C192.503 64.6205 192.503 64.3924 192.522 64.1833Z" fill="#FFD8CD"/>
<path d="M192.093 170.677C192.093 170.677 191.808 128.935 186.798 116.39C191.466 118.823 196.143 122.244 200.279 126.977L200.897 128.783L206.259 146.242C195.563 152.8 192.093 170.677 192.093 170.677Z" fill="#F7CD7E"/>
<path d="M192.521 64.8486H184.402C184.507 63.442 185.353 62.1494 186.703 61.4842C188.757 60.4862 191.228 61.3416 192.227 63.3755C192.35 63.6416 192.436 63.8982 192.512 64.1643L192.531 64.1833C192.512 64.3924 192.512 64.6205 192.531 64.8486H192.521Z" fill="#FFD8CD"/>
<path d="M185.429 66.1508L192.597 65.5901C192.474 66.9587 191.637 68.2512 190.297 68.907C188.262 69.905 185.79 69.0496 184.792 66.9967C184.668 66.7686 184.583 66.5025 184.507 66.2649C184.802 66.2079 185.106 66.1793 185.42 66.1603L185.429 66.1508Z" fill="#FFD8CD"/>
<path d="M184.402 64.8486H192.522C192.541 65.0767 192.579 65.2858 192.626 65.4949V65.5139C192.626 65.5139 192.626 65.5709 192.607 65.5804L185.439 66.1412C185.125 66.1602 184.821 66.1982 184.526 66.2457C184.402 65.7705 184.355 65.2953 184.402 64.8391V64.8486Z" fill="#FFD8CD"/>
<path d="M187.663 95.2429C184.545 95.49 181.626 94.3305 179.563 92.2776C179.354 91.4317 179.212 90.5953 179.164 89.7209C180.429 90.1962 181.817 90.4528 183.252 90.4528H188.234C188.424 90.5763 188.633 90.6143 188.861 90.5573C188.985 90.5193 189.09 90.4908 189.232 90.4528H195.63C197.608 90.9565 199.738 92.0495 201.61 94.1689L187.673 95.2429H187.663Z" fill="#FFD8CD"/>
<path d="M181.455 76.4057C182.311 72.7276 182.558 68.8309 182.073 64.9247C182.463 64.8677 182.843 64.8582 183.252 64.8582H184.412C184.355 65.3144 184.412 65.7896 184.535 66.2648C184.602 66.5119 184.697 66.7685 184.821 66.9966C185.819 69.0495 188.291 69.9048 190.325 68.9069C191.656 68.2606 192.502 66.9586 192.626 65.59H192.664C192.73 65.8371 192.826 66.0842 192.93 66.3123C193.653 67.7854 195.126 68.6408 196.647 68.6408L196.666 68.9354C196.666 68.9354 195.316 70.9313 194.775 74.5619L182.919 77.4511L181.075 77.9073C181.236 77.4131 181.36 76.9094 181.474 76.3962L181.455 76.4057Z" fill="white"/>
<path d="M172.385 71.7963C174.106 68.0231 177.747 65.324 182.064 64.9248C182.558 68.831 182.311 72.7277 181.446 76.4058C181.322 76.9095 181.198 77.4227 181.046 77.917L179.154 78.3732V71.7963H172.385Z" fill="white"/>
<path d="M180.913 80.3596C181.084 80.217 181.284 80.1125 181.493 80.0269C181.512 80.0079 181.55 80.0079 181.56 79.9889C181.731 79.9224 181.912 79.8464 182.102 79.8179C182.102 79.8179 182.114 79.8115 182.14 79.7989C182.301 79.7608 182.472 79.7323 182.634 79.7133C182.796 79.6943 182.948 79.6753 183.109 79.6753H183.176C183.176 79.6753 183.233 79.6753 183.262 79.6943C183.423 79.6753 183.575 79.6943 183.737 79.7323C185.03 79.9224 186.161 80.7683 186.722 81.9088C186.884 82.2414 186.988 82.6121 187.055 82.9827C187.388 84.8265 187.72 87.2596 187.787 89.7497C187.806 90.0823 187.977 90.3484 188.224 90.472H183.243C181.807 90.472 180.419 90.2059 179.154 89.7402C179.097 89.284 179.088 88.8278 179.097 88.3526C179.135 86.9174 179.164 85.3683 179.135 83.8856V83.7621C179.135 83.591 179.154 83.4104 179.174 83.2393C179.335 82.2604 179.791 81.348 180.505 80.6827C180.524 80.6827 180.524 80.6637 180.524 80.6637C180.647 80.5782 180.771 80.4736 180.894 80.3786H180.913V80.3596Z" fill="#FFD8CD"/>
<path d="M180.504 80.6636C179.782 81.3289 179.325 82.2413 179.173 83.2202C179.192 82.9256 179.259 82.6404 179.344 82.3648C179.344 82.3458 179.363 82.3268 179.363 82.3078C179.43 82.1177 179.525 81.9371 179.611 81.7661C179.858 81.3289 180.153 80.9582 180.504 80.6636Z" fill="#FFD8CD"/>
<path d="M179.155 71.7961V78.373L171.406 80.2643C171.302 79.6846 171.245 79.0858 171.245 78.4775V76.8428C171.245 75.0371 171.644 73.3358 172.385 71.7961H179.155Z" fill="white"/>
<path d="M179.154 82.7166V83.1347H178.926C179.012 82.9922 179.088 82.8496 179.154 82.7166Z" fill="white"/>
<path d="M175.294 47.2471C179.297 47.4086 182.463 50.6971 182.415 54.7363C182.396 56.3805 181.835 57.8917 180.894 59.1177C180.39 57.3975 179.715 55.6772 178.917 53.995C178.232 52.5599 177.481 51.1913 176.654 49.9082L176.635 49.8892C176.578 49.7276 176.179 48.7297 175.304 47.2375L175.294 47.2471Z" fill="#FFD8CD"/>
<path d="M175.123 47.228C175.18 47.228 175.247 47.228 175.294 47.247C176.169 48.7392 176.578 49.7371 176.625 49.8987C176.521 49.7371 176.416 49.566 176.312 49.4045C175.808 48.6536 175.275 47.9313 174.676 47.247C174.838 47.228 174.971 47.228 175.114 47.228H175.123Z" fill="black"/>
<path d="M176.635 49.8987C175.741 48.9388 174.867 48.0739 174.04 47.3041C174.249 47.2661 174.477 47.2471 174.686 47.2471C175.285 47.9314 175.808 48.6537 176.321 49.4045C176.426 49.5661 176.53 49.7372 176.635 49.8987Z" fill="black"/>
<path d="M178.907 53.9951C179.715 55.6773 180.381 57.3976 180.885 59.1178C179.516 60.9046 177.358 62.0641 174.924 62.0261L167.632 54.5273C167.689 50.8302 170.455 47.7794 174.03 47.3042C174.857 48.074 175.732 48.9389 176.626 49.8988L176.645 49.9178C177.472 51.2009 178.223 52.5695 178.907 54.0046V53.9951Z" fill="#FFD8CD"/>
<path d="M228.24 64.8676C228.116 64.8486 228.012 64.8486 227.888 64.8486C225.464 64.8486 223.258 66.0366 221.595 68.004L208.284 71.2449L194.746 74.5619L182.891 77.4511L181.047 77.9073L179.155 78.3635L171.406 80.2548C171.53 81.2718 171.806 82.2317 172.195 83.1346C172.984 85.0069 174.23 86.6226 175.808 87.8676C176.806 88.6565 177.928 89.3028 179.155 89.7304C179.098 89.2743 179.088 88.8181 179.098 88.3428C179.136 86.9077 179.164 85.3585 179.136 83.8759V83.7523C179.136 83.5813 179.155 83.4007 179.174 83.2296C179.193 82.935 179.259 82.6499 179.345 82.3743C179.345 82.3552 179.364 82.3362 179.364 82.3172C179.43 82.1271 179.525 81.9466 179.611 81.7755C179.858 81.3383 180.153 80.9676 180.505 80.673C180.524 80.673 180.524 80.654 180.524 80.654C180.647 80.5685 180.771 80.4639 180.894 80.3689H180.913C181.085 80.2263 181.284 80.1218 181.493 80.0362C181.512 80.0172 181.55 80.0172 181.56 79.9982C181.731 79.9317 181.912 79.8557 182.102 79.8271C182.102 79.8271 182.114 79.8208 182.14 79.8081C182.301 79.7701 182.473 79.7416 182.634 79.7226C182.796 79.7036 182.948 79.6846 183.11 79.6846H183.176C183.176 79.6846 183.233 79.6846 183.262 79.7036C183.423 79.6846 183.575 79.7036 183.737 79.7416C185.03 79.9317 186.161 80.7776 186.722 81.9181C186.884 82.2507 186.988 82.6214 187.055 82.992C187.388 84.8358 187.721 87.2689 187.787 89.759C187.806 90.0916 187.977 90.3577 188.224 90.4813H189.28C190.734 90.1486 193.083 89.835 195.63 90.4813H227.898C228.021 90.4813 228.126 90.4813 228.25 90.4623C233.383 90.2152 237.49 84.5887 237.49 77.6697C237.49 70.7507 233.383 65.1338 228.25 64.8867L228.24 64.8676ZM179.155 83.1346H178.926C179.012 82.992 179.088 82.8495 179.155 82.7164V83.1346ZM228.24 81.823C226.852 81.823 225.711 79.8747 225.711 77.4796C225.711 75.0846 226.852 73.1362 228.24 73.1362C229.628 73.1362 230.75 75.0846 230.75 77.4796C230.75 79.8747 229.628 81.823 228.24 81.823Z" fill="#70C6F3"/>
<path d="M171.91 83.1346C166.301 77.299 171.91 71.7961 171.91 71.7961H172.385C171.653 73.3358 171.244 75.0371 171.244 76.8428V78.4775C171.244 79.0953 171.302 79.6846 171.406 80.2643C171.53 81.2813 171.805 82.2412 172.195 83.1346H171.91Z" fill="white"/>
<path d="M169.039 83.1346C163.43 77.299 169.039 71.7961 169.039 71.7961H171.91C171.91 71.7961 166.301 77.299 171.91 83.1346H169.039Z" fill="white"/>
<path d="M163.392 78.0499C163.373 77.8598 163.354 77.6602 163.354 77.4701C163.354 75.8924 163.981 74.4858 165.017 73.4594C166.035 72.4234 167.47 71.7961 169.029 71.7961C169.029 71.7961 163.42 77.299 169.029 83.1346C166.082 83.1346 163.667 80.9106 163.382 78.0499H163.392Z" fill="white"/>
<path d="M166.938 61.5222C165.958 61.9974 164.779 61.5792 164.323 60.5908C163.848 59.6119 164.266 58.4524 165.236 57.9772C166.215 57.521 167.394 57.9202 167.869 58.9086C168.326 59.8875 167.907 61.047 166.938 61.5222Z" fill="black"/>
<path d="M150.481 87.1168C147.011 87.1168 144.082 84.8358 143.094 81.6995C143.284 81.6329 143.484 81.4904 143.655 81.3003C144.615 80.2643 143.902 78.4775 143.902 78.4775L143.075 77.147C144.035 73.9536 146.982 71.6631 150.471 71.6631C154.474 71.6631 157.763 74.6949 158.172 78.6011C158.191 78.8672 158.21 79.1238 158.21 79.39C158.21 83.6478 154.74 87.1168 150.481 87.1168Z" fill="#FFB2A4"/>
<path d="M151.327 68.9546C150.347 69.4298 149.169 69.0116 148.712 68.0232C148.237 67.0443 148.655 65.8848 149.625 65.4095C150.604 64.9533 151.783 65.3525 152.258 66.341C152.715 67.3199 152.296 68.4794 151.327 68.9546Z" fill="black"/>
<path d="M164.323 60.591C164.78 61.5699 165.958 61.9976 166.938 61.5224C167.898 61.0471 168.326 59.8876 167.869 58.9087C167.394 57.9298 166.225 57.5211 165.236 57.9773C164.276 58.4525 163.848 59.612 164.323 60.591ZM148.712 68.0232C149.169 69.0021 150.348 69.4298 151.327 68.9546C152.287 68.4794 152.715 67.3199 152.259 66.341C151.783 65.362 150.614 64.9533 149.625 65.4095C148.665 65.8847 148.237 67.0443 148.712 68.0232ZM182.064 64.9248C177.747 65.324 174.106 68.0232 172.385 71.7963H169.039C167.48 71.7963 166.044 72.4236 165.027 73.4595C163.99 74.4955 163.363 75.8926 163.363 77.4703C163.363 77.6604 163.382 77.86 163.401 78.05L158.191 78.5918C157.792 74.6856 154.493 71.6538 150.49 71.6538C147.001 71.6538 144.054 73.9538 143.094 77.1376L141.886 75.1893L138.502 73.1744C139.253 73.1744 139.994 72.6327 140.204 71.2641L138.131 66.1604C138.131 66.1604 137.637 68.3843 136.743 70.7319C136.6 71.0835 136.6 71.4162 136.657 71.7108L131.904 72.7657C131.505 72.4331 131.058 72.167 130.611 71.9389C128.187 62.0736 133.52 55.0405 133.52 55.0405C133.52 55.0405 143.113 52.5695 144.463 44.5575C144.463 44.5575 152.877 45.9736 160.302 40.7558C160.302 40.7558 165.198 39.0071 174.049 47.2947C170.474 47.7699 167.698 50.8207 167.651 54.5178L174.943 62.0166C177.377 62.0546 179.535 60.8951 180.904 59.1083C181.198 60.1062 181.446 61.1042 181.636 62.1211C181.826 63.0525 181.988 63.9839 182.073 64.9058L182.064 64.9248Z" fill="#FFD8CD"/>
<path d="M143.664 81.291C143.493 81.4811 143.293 81.6236 143.103 81.6902C142.875 80.9584 142.751 80.179 142.751 79.3807C142.751 78.5823 142.875 77.841 143.084 77.1377L143.911 78.4683C143.911 78.4683 144.634 80.2551 143.664 81.291Z" fill="white"/>
<path d="M140.593 79.6086C141.192 77.5938 141.877 75.1892 141.877 75.1892L143.084 77.1376C142.875 77.8409 142.751 78.5917 142.751 79.3805C142.751 80.1694 142.875 80.9582 143.103 81.69C141.791 82.3363 140.156 81.0913 140.593 79.6086Z" fill="white"/>
<path d="M138.492 73.1745C137.684 73.1745 136.848 72.5567 136.648 71.7203C136.591 71.4257 136.591 71.0931 136.734 70.7414C137.627 68.3939 138.122 66.1699 138.122 66.1699L140.194 71.2736C139.985 72.6422 139.243 73.184 138.492 73.184V73.1745Z" fill="white"/>
<path d="M131.894 72.7752L136.648 71.7202C136.838 72.5661 137.684 73.1743 138.492 73.1743L141.877 75.1892C141.877 75.1892 141.192 77.5938 140.593 79.6086C140.156 81.1008 141.781 82.3458 143.103 81.69C144.082 84.8264 147.01 87.1074 150.49 87.1074C154.749 87.1074 158.219 83.6384 158.219 79.3805C158.219 79.1144 158.2 78.8578 158.181 78.5917L163.391 78.05C163.676 80.9107 166.091 83.1347 169.039 83.1347H172.195C172.984 85.007 174.229 86.6227 175.808 87.8677C173.279 91.0041 170.094 93.5797 166.443 95.4235C165.236 96.0413 163.905 96.583 162.498 97.0202C161.461 97.3529 160.396 97.619 159.275 97.8091L132.968 89.3029C132.474 88.0578 132.141 86.7082 132.037 85.2351V85.2161C132.541 84.8644 132.997 84.4082 133.406 83.9045L131.894 72.7752Z" fill="#FFD8CD"/>
<path d="M140.052 97.8092C140.052 97.8092 135.108 94.7393 132.969 89.303L159.275 97.8092C160.397 97.6191 161.471 97.353 162.498 97.0203L161.69 110.06C161.69 110.06 149.255 119.108 135.669 108.881L137.161 97.0108C138.112 97.3625 139.072 97.6286 140.052 97.7997V97.8092Z" fill="#FFD8CD"/>
<path d="M95.0731 168.225C95.3678 168.786 95.5484 169.404 95.577 170.031L80.0613 198.743C79.3768 200.073 79.5574 201.67 80.4986 202.849L95.7006 223.957V223.976L99.646 229.441C100.369 230.401 101.167 231.333 102.175 232.036C103.962 233.319 106.101 234.07 108.345 234.155C108.554 234.174 108.763 234.174 108.992 234.193C111.378 234.355 114.515 234.821 118.004 236.056C122.901 237.776 124.983 238.546 130.173 238.318C130.364 238.318 130.82 238.299 131.381 238.261C133.501 238.137 135.536 239.525 135.906 241.625C136.068 242.538 135.925 243.469 135.536 244.258C135.06 245.209 134.205 245.978 133.13 246.34C130.345 247.252 126.047 248.126 121.132 247.299L127.15 252.052L140.546 262.658C142.333 264.065 142.742 266.621 141.477 268.494C140.232 270.338 137.827 270.927 135.897 269.967C135.726 269.881 135.583 269.796 135.402 269.682L124.583 262.373L136.258 273.93C137.855 275.527 137.922 278.102 136.382 279.785C135.089 281.191 133.016 281.524 131.362 280.697C131.096 280.554 130.839 280.402 130.592 280.203L117.405 269.435L126.171 280.973C127.607 282.864 127.169 285.563 125.211 286.894C123.946 287.749 122.34 287.825 121.037 287.16C120.6 286.951 120.21 286.637 119.858 286.266L107.166 272.504L110.922 280.868C111.834 282.94 110.817 285.497 108.621 286.057C107.746 286.285 106.852 286.181 106.082 285.791C105.455 285.478 104.903 284.964 104.542 284.318L101.671 279.11C99.3418 274.899 96.4421 271.012 93.8847 266.945C92.4681 264.683 90.0818 260.843 89.3783 257.545C88.8554 255.055 87.4008 253.164 85.4328 251.063L53.9166 218.664C44.8373 208.798 43.0404 194.247 49.4578 182.462L66.1143 151.906C66.1143 151.906 67.0935 151.925 68.7097 152.097C68.7763 152.116 68.8714 152.135 68.9379 152.135C75.5644 153.114 86.0698 156.468 94.5977 167.455C94.7403 167.626 94.8639 167.845 94.9685 168.035C95.0065 168.092 95.035 168.159 95.0541 168.206L95.0731 168.225Z" fill="#FFD8CD"/>
<path d="M130.602 71.9482C131.058 72.1763 131.495 72.4425 131.895 72.7751L133.406 83.9044C133.007 84.4082 132.551 84.8644 132.037 85.216L132.227 83.7999L131.6 78.316L131.02 73.4214C130.858 72.9272 130.725 72.4234 130.602 71.9482Z" fill="#FFD8CD"/>
<path d="M130.601 71.9482C127.34 70.3135 123.233 71.3019 121.132 74.5428C117.13 59.9065 123.214 44.5288 136.334 38.2941C149.017 32.2589 165.531 35.9846 174.686 47.2565C174.477 47.2565 174.249 47.2755 174.039 47.3135C165.188 39.0259 160.292 40.7746 160.292 40.7746C152.877 46.0019 144.453 44.5763 144.453 44.5763C143.103 52.5883 133.51 55.0594 133.51 55.0594C133.51 55.0594 128.177 62.0924 130.601 71.9577V71.9482Z" fill="black"/>
<path d="M123.319 80.4735C122.549 78.8768 121.912 77.2516 121.427 75.6169C121.322 75.2652 121.218 74.8945 121.132 74.5429C123.233 71.302 127.341 70.3135 130.601 71.9483C130.725 72.4235 130.868 72.9272 131.02 73.4214L131.6 78.316L132.227 83.7999L132.037 85.216V85.235C130.62 86.309 128.862 86.8127 127.131 86.7082H127.112C126.361 85.7102 125.639 84.6553 124.973 83.5338C124.374 82.5549 123.813 81.5379 123.328 80.464L123.319 80.4735Z" fill="#FFD8CD"/>
<path d="M127.882 87.6587C127.616 87.345 127.379 87.0409 127.131 86.7083C128.871 86.8128 130.62 86.3091 132.037 85.2351C132.142 86.7082 132.474 88.0578 132.969 89.3029L127.882 87.6587Z" fill="black"/>
<path d="M121.778 83.8855C123.195 85.6533 125.125 86.5847 127.112 86.7082H127.131C127.378 87.0409 127.625 87.3355 127.882 87.6586L132.968 89.3029C135.107 94.7392 140.051 97.8091 140.051 97.8091C139.072 97.638 138.102 97.3719 137.161 97.0202C130.287 94.5111 124.64 87.9723 121.693 83.9615L121.778 83.895V83.8855Z" fill="black"/>
<path d="M120.809 82.4124C119.649 80.1694 119.544 77.3942 120.742 75.1512C120.866 74.9421 120.989 74.733 121.132 74.5334C121.218 74.8851 121.322 75.2558 121.427 75.6074C121.921 77.2421 122.549 78.8673 123.319 80.464C123.813 81.538 124.374 82.5454 124.963 83.5339C125.629 84.6553 126.351 85.7103 127.102 86.7082C125.125 86.5847 123.195 85.6533 121.769 83.8855C121.417 83.4483 121.084 82.9541 120.809 82.4124Z" fill="#FFD8CD"/>
<path d="M120.743 75.1607C119.554 77.4036 119.659 80.1788 120.809 82.4218C121.094 82.9636 121.427 83.4578 121.769 83.895L121.684 83.9615C120.229 81.9941 119.421 80.635 119.421 80.635C100.045 45.3842 133.891 33.1429 133.891 33.1429C145.889 21.4813 153.371 28.1627 157.877 27.0603C162.051 26.0433 163.667 23.1541 163.667 23.1541C165.179 26.0813 163.458 28.9611 163.458 28.9611C166.7 28.3813 167.156 25.8627 167.156 25.8627C170.731 32.0689 166.016 36.783 166.016 36.783C170.874 40.5371 173.783 44.6524 175.295 47.266C175.238 47.247 175.171 47.247 175.123 47.247C174.981 47.247 174.838 47.247 174.686 47.266C165.531 35.9941 149.017 32.278 136.334 38.3036C123.214 44.5479 117.13 59.916 121.132 74.5524C120.99 74.7425 120.866 74.9516 120.743 75.1702V75.1607Z" fill="black"/>
<path d="M94.9875 168.054C88.1614 155.851 74.7848 152.895 68.9664 152.154C68.8999 152.154 68.8048 152.135 68.7382 152.116C67.8826 152.011 67.0935 151.926 66.39 151.869C64.7452 151.745 63.8611 149.901 64.7928 148.542L75.051 133.535C82.7328 122.577 95.0921 116.247 104.932 112.626C104.932 112.626 108.792 140.863 95.634 170.563C95.634 170.392 95.615 170.212 95.5769 170.04L95.8051 169.641C95.5769 169.166 95.3297 168.691 95.0731 168.235C95.054 168.178 95.016 168.111 94.9875 168.064V168.054Z" fill="#F7CD7E"/>
<path d="M95.0732 168.225C95.3394 168.681 95.5771 169.156 95.8053 169.632L95.5771 170.031C95.5391 169.404 95.368 168.786 95.0732 168.225Z" fill="#FFD8CD"/>
<path d="M68.9568 152.154C74.7752 152.886 88.1612 155.851 94.9778 168.054C94.8733 167.864 94.7497 167.655 94.6071 167.474C86.0887 156.478 75.5833 153.133 68.9473 152.154H68.9568Z" fill="#FFD8CD"/>
<path d="M180.894 59.1177C181.845 57.8917 182.406 56.3805 182.415 54.7363C182.472 50.7066 179.297 47.4086 175.294 47.2471" stroke="black" stroke-width="1.5" stroke-linecap="round" stroke-linejoin="round"/>
<path d="M175.808 87.8677C173.279 91.004 170.094 93.5797 166.443 95.4235C165.236 96.0412 163.905 96.583 162.498 97.0202C161.462 97.3528 160.397 97.6189 159.275 97.809" stroke="black" stroke-width="1.5" stroke-linecap="round" stroke-linejoin="round"/>
<path d="M180.894 59.1177C181.189 60.1156 181.436 61.1135 181.626 62.1305C181.816 63.0619 181.978 63.9933 182.063 64.9152" stroke="black" stroke-width="1.5" stroke-linecap="round" stroke-linejoin="round"/>
<path d="M158.828 63.4135C158.828 63.4135 162.564 61.8739 164.124 65.1623C165.702 68.4792 162.089 70.247 162.089 70.247" stroke="black" stroke-width="1.5" stroke-linecap="round" stroke-linejoin="round"/>
<path d="M176.635 49.8986C176.578 49.7371 176.179 48.7391 175.304 47.247C173.792 44.6334 170.883 40.5181 166.025 36.7639C166.025 36.7639 170.74 32.0499 167.166 25.8437C167.166 25.8437 166.709 28.3718 163.467 28.942C163.467 28.942 165.188 26.0718 163.677 23.135C163.677 23.135 162.06 26.0243 157.887 27.0412C153.38 28.1437 145.889 21.4623 133.9 33.1239C133.9 33.1239 100.055 45.3557 119.43 80.616C119.43 80.616 120.238 81.9846 121.693 83.9424C124.64 87.9532 130.287 94.492 137.161 97.0011C138.112 97.3528 139.072 97.6189 140.051 97.79C140.051 97.79 135.108 94.7201 132.968 89.2838C132.474 88.0387 132.141 86.6891 132.037 85.216" stroke="black" stroke-width="1.5" stroke-linecap="round" stroke-linejoin="round"/>
<path d="M130.601 71.9482C128.177 62.0829 133.51 55.0498 133.51 55.0498C133.51 55.0498 143.103 52.5787 144.453 44.5668C144.453 44.5668 152.867 45.9829 160.292 40.7651C160.292 40.7651 165.188 39.0163 174.039 47.3039C174.866 48.0738 175.741 48.9387 176.635 49.8986L176.654 49.9176C177.481 51.2006 178.232 52.5692 178.916 54.0044C179.725 55.6866 180.39 57.4068 180.894 59.1271" stroke="black" stroke-width="1.5" stroke-linecap="round" stroke-linejoin="round"/>
<path d="M133.406 83.9044C133.007 84.4082 132.55 84.8644 132.037 85.216V85.235C130.62 86.309 128.862 86.8127 127.131 86.7082H127.112C125.135 86.5846 123.205 85.6532 121.779 83.8854C121.427 83.4482 121.094 82.954 120.819 82.4123C119.659 80.1693 119.554 77.3941 120.752 75.1511C120.876 74.942 120.999 74.733 121.142 74.5334C123.243 71.2925 127.35 70.304 130.611 71.9387C131.067 72.1668 131.505 72.433 131.904 72.7656" stroke="black" stroke-width="1.5" stroke-linecap="round" stroke-linejoin="round"/>
<path d="M125.667 79.2095C125.667 79.2095 128.434 77.1566 131.59 78.3161C131.904 78.4396 132.236 78.6012 132.569 78.7913" stroke="black" stroke-width="1.5" stroke-linecap="round" stroke-linejoin="round"/>
<path d="M143.502 62.6628C143.502 62.6628 145.699 57.4925 151.127 59.1747" stroke="black" stroke-width="1.5" stroke-linecap="round" stroke-linejoin="round"/>
<path d="M159.817 54.8884C159.817 54.8884 161.433 49.9937 166.881 51.6665" stroke="black" stroke-width="1.5" stroke-linecap="round" stroke-linejoin="round"/>
<path d="M162.498 97.0202L161.69 110.06C161.69 110.06 149.254 119.108 135.668 108.881L137.161 97.0107" stroke="black" stroke-width="1.5" stroke-linecap="round" stroke-linejoin="round"/>
<path d="M172.195 83.1346H169.039C166.092 83.1346 163.677 80.9106 163.392 78.0499C163.373 77.8598 163.354 77.6602 163.354 77.4701C163.354 75.8924 163.981 74.4858 165.017 73.4594C166.035 72.4234 167.47 71.7961 169.029 71.7961H172.376" stroke="black" stroke-width="1.5" stroke-linecap="round" stroke-linejoin="round"/>
<path d="M216.65 64.8486H227.888H228.24V64.8676" stroke="black" stroke-width="1.5" stroke-linecap="round" stroke-linejoin="round"/>
<path d="M208.636 64.8486H209.036" stroke="black" stroke-width="1.5" stroke-linecap="round" stroke-linejoin="round"/>
<path d="M179.155 89.7209C177.928 89.3028 176.806 88.647 175.808 87.8581C174.23 86.6131 172.984 84.9974 172.195 83.1251C171.806 82.2317 171.53 81.2623 171.406 80.2548C171.302 79.6751 171.245 79.0763 171.245 78.4681V76.8333C171.245 75.0276 171.644 73.3263 172.385 71.7867C174.106 68.0135 177.748 65.3143 182.064 64.9152C182.454 64.8581 182.834 64.8486 183.243 64.8486H184.403" stroke="black" stroke-width="1.5" stroke-linecap="round" stroke-linejoin="round"/>
<path d="M189.222 90.4624H188.224" stroke="black" stroke-width="1.5" stroke-linecap="round" stroke-linejoin="round"/>
<path d="M228.24 90.4434V90.4624H227.888H218.837H195.621" stroke="black" stroke-width="1.5" stroke-linecap="round" stroke-linejoin="round"/>
<path d="M228.24 64.8677C233.374 65.1148 237.481 70.7412 237.481 77.6507C237.481 84.5602 233.374 90.2057 228.24 90.4433C228.116 90.4623 228.012 90.4623 227.888 90.4623C222.593 90.4623 218.295 84.7313 218.295 77.6507C218.295 73.811 219.579 70.361 221.594 68.0135C223.258 66.0462 225.473 64.8582 227.888 64.8582C228.012 64.8582 228.116 64.8582 228.24 64.8772V64.8677Z" stroke="black" stroke-width="1.5" stroke-linecap="round" stroke-linejoin="round"/>
<path d="M210.214 67.4434C210.214 67.4434 209.14 68.7549 208.284 71.245C207.105 74.6475 206.335 80.2074 209.321 87.4781" stroke="black" stroke-width="1.5" stroke-linecap="round" stroke-linejoin="round"/>
<path d="M196.638 68.9355C196.638 68.9355 195.288 70.9314 194.746 74.562C194.29 77.7174 194.451 82.1178 196.638 87.4781" stroke="black" stroke-width="1.5" stroke-linecap="round" stroke-linejoin="round"/>
<path d="M185.429 68.3748C185.429 68.3748 182.339 70.8648 182.891 77.4512C182.948 78.1545 183.033 78.8863 183.176 79.6752" stroke="black" stroke-width="1.5" stroke-linecap="round" stroke-linejoin="round"/>
<path d="M228.24 73.1267C229.628 73.1267 230.75 75.0751 230.75 77.4701C230.75 79.8651 229.628 81.8135 228.24 81.8135C226.852 81.8135 225.711 79.8651 225.711 77.4701C225.711 75.0751 226.852 73.1267 228.24 73.1267Z" stroke="black" stroke-width="1.5" stroke-linecap="round" stroke-linejoin="round"/>
<path d="M169.039 71.7961C169.039 71.7961 163.43 77.299 169.039 83.1346" stroke="black" stroke-width="1.5" stroke-linecap="round" stroke-linejoin="round"/>
<path d="M171.91 71.7961C171.91 71.7961 166.301 77.299 171.91 83.1346" stroke="black" stroke-width="1.5" stroke-linecap="round" stroke-linejoin="round"/>
<path d="M192.645 65.5898H192.607" stroke="black" stroke-width="1.5" stroke-linecap="round" stroke-linejoin="round"/>
<path d="M208.988 64.345L208.722 64.3545" stroke="black" stroke-width="1.5" stroke-linecap="round" stroke-linejoin="round"/>
<path d="M218.837 90.7568C218.609 93.2089 217.906 94.7201 216.594 97.5048C215.576 99.6052 215.434 102.01 215.947 104.291L246.227 162.161C250.525 172.207 246.845 182.13 237.566 187.899C233.973 190.123 229.923 191.225 225.901 191.225C225.407 191.225 224.941 191.206 224.466 191.168C221.186 190.94 218.4 189.875 215.206 188.079C212.981 186.834 210.87 185.38 208.855 183.802L192.094 170.668C192.094 170.668 195.564 152.79 206.259 146.232" stroke="black" stroke-width="1.5" stroke-linecap="round" stroke-linejoin="round"/>
<path d="M213.228 168.862L206.269 146.252L200.907 128.792L200.289 126.987L196.286 115.173C195.126 111.666 193.653 107.532 190.658 104.814C190.344 104.528 190.04 104.253 189.745 104.006L183.927 99.13C181.769 97.3433 180.276 94.9387 179.563 92.2966C179.354 91.4507 179.211 90.6143 179.164 89.74C179.107 89.2838 179.097 88.8276 179.107 88.3524C179.145 86.9172 179.173 85.3681 179.145 83.8854V83.7619C179.145 83.5908 179.164 83.4102 179.183 83.2391C179.344 82.2602 179.801 81.3478 180.514 80.6825C180.533 80.6825 180.533 80.6635 180.533 80.6635C180.656 80.578 180.78 80.4734 180.904 80.3784H180.923C181.094 80.2358 181.293 80.1313 181.503 80.0457C181.522 80.0267 181.56 80.0267 181.569 80.0077C181.74 79.9412 181.921 79.8652 182.111 79.8366C182.111 79.8366 182.124 79.8303 182.149 79.8176C182.311 79.7796 182.482 79.7511 182.643 79.7321C182.805 79.7131 182.957 79.6941 183.119 79.6941H183.185C183.185 79.6941 183.242 79.6941 183.271 79.7131C183.432 79.6941 183.585 79.7131 183.746 79.7511C185.039 79.9412 186.171 80.7871 186.731 81.9276C186.893 82.2602 186.998 82.6309 187.064 83.0015C187.397 84.8453 187.73 87.2784 187.796 89.7685C187.815 90.1011 187.986 90.3672 188.234 90.4908C188.424 90.6143 188.633 90.6524 188.861 90.5953C188.985 90.5573 189.089 90.5288 189.232 90.4908H189.289C190.743 90.1581 193.092 89.8445 195.64 90.4908C197.617 90.9945 199.747 92.0875 201.62 94.2069C202.58 95.2904 203.493 96.64 204.282 98.3222" stroke="black" stroke-width="1.5" stroke-linecap="round" stroke-linejoin="round"/>
<path d="M192.502 64.1643C192.436 63.8982 192.341 63.6416 192.217 63.3755C191.219 61.3416 188.747 60.4862 186.694 61.4842C185.344 62.1494 184.497 63.4515 184.393 64.8486C184.336 65.3048 184.393 65.78 184.516 66.2552C184.583 66.5023 184.678 66.7589 184.802 66.987C185.8 69.0399 188.272 69.8953 190.306 68.8974C191.637 68.2511 192.483 66.949 192.607 65.5804C192.626 65.5614 192.626 65.5424 192.626 65.5139" stroke="black" stroke-width="1.5" stroke-linecap="round" stroke-linejoin="round"/>
<path d="M200.546 63.2045C200.488 63.0334 200.422 62.8719 200.336 62.7008C199.338 60.6479 196.866 59.8115 194.813 60.8095C193.444 61.4558 192.617 62.7768 192.502 64.1739L192.521 64.1929C192.502 64.402 192.502 64.6301 192.521 64.8582C192.54 65.0863 192.579 65.2954 192.626 65.5045V65.5235C192.626 65.5235 192.626 65.5806 192.645 65.5901C192.712 65.8372 192.807 66.0843 192.911 66.3124C193.634 67.7855 195.107 68.6409 196.629 68.6409C197.247 68.6409 197.855 68.4983 198.435 68.2227C199.68 67.6049 200.488 66.4549 200.698 65.1909" stroke="black" stroke-width="1.5" stroke-linecap="round" stroke-linejoin="round"/>
<path d="M200.688 65.1813C200.755 65.3428 200.812 65.5139 200.897 65.685C201.896 67.7189 204.367 68.5742 206.421 67.5763C207.581 67.0156 208.351 65.9986 208.627 64.8391C208.665 64.668 208.693 64.5065 208.712 64.3449C208.817 63.5941 208.674 62.7862 208.322 62.0449C207.324 60.011 204.852 59.1557 202.799 60.1536C201.553 60.7714 200.745 61.9214 200.536 63.1854C200.432 63.7081 200.451 64.2879 200.593 64.8296C200.612 64.8676 200.612 64.9152 200.631 64.9532C200.65 65.0387 200.669 65.0957 200.688 65.1623V65.1813Z" stroke="black" stroke-width="1.5" stroke-linecap="round" stroke-linejoin="round"/>
<path d="M208.988 64.3449C208.988 64.5159 209.007 64.6965 209.045 64.8486C209.102 65.2002 209.216 65.5519 209.377 65.8655C209.625 66.3883 209.995 66.8254 210.414 67.1771C211.536 68.0895 213.152 68.3366 214.53 67.6523C215.462 67.1961 216.128 66.4453 216.479 65.5519C216.565 65.3238 216.622 65.0767 216.65 64.8486C216.793 64.0597 216.708 63.2329 216.337 62.4821C215.386 60.5527 213.076 59.7639 211.146 60.6953C209.729 61.3986 208.921 62.8527 208.988 64.3449Z" stroke="black" stroke-width="1.5" stroke-linecap="round" stroke-linejoin="round"/>
<path d="M186.798 116.39C191.466 118.823 196.143 122.244 200.279 126.977" stroke="black" stroke-width="1.5" stroke-linecap="round" stroke-linejoin="round"/>
<path d="M161.69 110.06C161.69 110.06 166.111 109.917 172.385 111.238C176.616 112.132 181.683 113.671 186.798 116.371" stroke="black" stroke-width="1.5" stroke-linecap="round" stroke-linejoin="round"/>
<path d="M108.992 234.193H192.113C193.073 234.193 193.853 233.424 193.853 232.445L192.103 170.687C192.103 170.687 191.818 128.945 186.808 116.399V116.38" stroke="black" stroke-width="1.5" stroke-linecap="round" stroke-linejoin="round"/>
<path d="M95.5771 170.031C95.6152 170.202 95.6342 170.382 95.6342 170.553L95.7007 223.948" stroke="black" stroke-width="1.5" stroke-linecap="round" stroke-linejoin="round"/>
<path d="M135.669 108.881L127.217 108.862C125.182 108.862 123.148 108.929 121.132 109.109C117.101 109.423 113.099 110.107 109.21 111.21C107.756 111.628 106.339 112.084 104.932 112.616C95.0922 116.247 82.7329 122.577 75.0511 133.526L64.7929 148.533C63.8612 149.901 64.7359 151.745 66.3901 151.859C67.0936 151.916 67.8827 152.002 68.7384 152.106" stroke="black" stroke-width="1.5" stroke-linecap="round" stroke-linejoin="round"/>
<path d="M138.122 66.1602C138.122 66.1602 137.627 68.3841 136.734 70.7316C136.591 71.0833 136.591 71.4159 136.648 71.7106C136.838 72.5564 137.684 73.1647 138.492 73.1647C139.243 73.1647 139.985 72.623 140.194 71.2544" stroke="black" stroke-width="1.5" stroke-linecap="round" stroke-linejoin="round"/>
<path d="M141.877 75.1892C141.877 75.1892 141.192 77.5938 140.593 79.6086C140.156 81.1008 141.782 82.3458 143.103 81.69C143.293 81.6235 143.493 81.481 143.664 81.2909C144.624 80.2549 143.911 78.4681 143.911 78.4681" stroke="black" stroke-width="1.5" stroke-linecap="round" stroke-linejoin="round"/>
<path d="M104.923 112.616C104.923 112.616 108.782 140.853 95.6245 170.554" stroke="black" stroke-width="1.5" stroke-linecap="round" stroke-linejoin="round"/>
<path d="M121.132 109.109C121.132 109.109 123.481 117.083 123.889 128.127C124.175 135.74 128.168 142.821 134.728 146.708C138.673 149.036 143.883 150.775 150.671 150.775C157.459 150.775 162.593 148.371 165.997 145.444C170.36 141.69 172.889 136.244 173.393 130.503C173.916 124.649 174.125 121.056 172.395 111.219" stroke="black" stroke-width="1.5" stroke-linecap="round" stroke-linejoin="round"/>
<path d="M95.0731 168.225C95.3393 168.681 95.577 169.156 95.8051 169.632L95.577 170.031L80.0613 198.743C79.3768 200.073 79.5574 201.67 80.4986 202.849L95.7005 223.957V223.976L99.646 229.441C100.369 230.401 101.167 231.333 102.175 232.036C103.962 233.319 106.101 234.07 108.345 234.155C108.554 234.174 108.763 234.174 108.992 234.193C111.378 234.355 114.515 234.821 118.004 236.056C122.901 237.776 124.983 238.546 130.173 238.318C130.364 238.318 130.82 238.299 131.381 238.261C133.501 238.137 135.536 239.525 135.906 241.625C136.068 242.538 135.925 243.469 135.536 244.258C135.06 245.209 134.205 245.978 133.13 246.34C130.345 247.252 126.047 248.126 121.132 247.299L127.15 252.052L140.546 262.658C142.333 264.065 142.742 266.621 141.477 268.494C140.232 270.337 137.827 270.927 135.897 269.967C135.726 269.881 135.583 269.796 135.402 269.682L124.583 262.373L136.258 273.93C137.855 275.527 137.922 278.102 136.382 279.785C135.089 281.191 133.016 281.524 131.362 280.697C131.096 280.554 130.839 280.402 130.592 280.203L117.405 269.435L126.171 280.973C127.607 282.864 127.169 285.563 125.211 286.894C123.946 287.749 122.34 287.825 121.037 287.16C120.6 286.951 120.21 286.637 119.858 286.266L107.166 272.504L110.922 280.868C111.834 282.94 110.817 285.497 108.621 286.057C107.746 286.285 106.852 286.181 106.082 285.791C105.455 285.478 104.903 284.964 104.542 284.318L101.671 279.11C99.3418 274.899 96.4421 271.012 93.8847 266.945C92.4681 264.683 90.0818 260.843 89.3783 257.545C88.8554 255.055 87.4008 253.164 85.4328 251.063L53.9166 218.664C44.8373 208.798 43.0404 194.247 49.4578 182.462L66.1143 151.906C66.1143 151.906 67.0935 151.925 68.7097 152.097C68.7763 152.116 68.8714 152.135 68.9379 152.135C74.7563 152.866 88.1424 155.832 94.959 168.035C94.997 168.092 95.0255 168.159 95.0446 168.206L95.0731 168.225Z" stroke="black" stroke-width="1.5" stroke-linecap="round" stroke-linejoin="round"/>
<path d="M76.097 199.636C76.097 199.636 67.5596 190.151 54.1069 194.59" stroke="black" stroke-width="1.5" stroke-linecap="round" stroke-linejoin="round"/>
<path d="M123.936 201.301C123.436 201.301 122.986 201.202 122.585 201.003C122.184 200.804 121.863 200.531 121.622 200.184C121.38 199.838 121.248 199.443 121.226 199H122.248C122.288 199.395 122.467 199.721 122.785 199.98C123.106 200.236 123.49 200.363 123.936 200.363C124.294 200.363 124.612 200.28 124.89 200.112C125.172 199.944 125.392 199.714 125.551 199.422C125.713 199.126 125.794 198.792 125.794 198.42C125.794 198.04 125.71 197.7 125.542 197.402C125.378 197.101 125.15 196.863 124.861 196.69C124.571 196.517 124.24 196.429 123.868 196.426C123.601 196.423 123.326 196.464 123.045 196.55C122.764 196.632 122.532 196.738 122.351 196.869L121.362 196.75L121.89 192.454H126.424V193.392H122.777L122.47 195.966H122.521C122.7 195.824 122.924 195.706 123.194 195.612C123.464 195.518 123.746 195.471 124.038 195.471C124.572 195.471 125.048 195.599 125.466 195.855C125.886 196.108 126.216 196.454 126.454 196.895C126.696 197.335 126.817 197.838 126.817 198.403C126.817 198.96 126.692 199.457 126.442 199.895C126.194 200.329 125.853 200.673 125.419 200.926C124.984 201.176 124.49 201.301 123.936 201.301ZM124.106 216.301C123.748 216.295 123.39 216.227 123.032 216.096C122.674 215.966 122.348 215.746 122.052 215.436C121.757 215.123 121.52 214.702 121.341 214.17C121.162 213.636 121.072 212.966 121.072 212.159C121.072 211.386 121.145 210.702 121.29 210.105C121.434 209.506 121.645 209.001 121.92 208.592C122.196 208.18 122.528 207.868 122.917 207.655C123.309 207.442 123.751 207.335 124.243 207.335C124.731 207.335 125.166 207.433 125.547 207.629C125.93 207.822 126.243 208.092 126.484 208.439C126.726 208.785 126.882 209.184 126.953 209.636H125.913C125.817 209.244 125.629 208.919 125.351 208.66C125.072 208.402 124.703 208.273 124.243 208.273C123.567 208.273 123.034 208.567 122.645 209.155C122.258 209.743 122.064 210.568 122.061 211.631H122.129C122.288 211.389 122.477 211.183 122.696 211.013C122.917 210.839 123.162 210.706 123.429 210.612C123.696 210.518 123.978 210.471 124.277 210.471C124.777 210.471 125.234 210.596 125.649 210.846C126.064 211.094 126.396 211.436 126.646 211.873C126.896 212.308 127.021 212.807 127.021 213.369C127.021 213.909 126.9 214.403 126.659 214.852C126.417 215.298 126.078 215.653 125.64 215.917C125.206 216.179 124.694 216.307 124.106 216.301ZM124.106 215.363C124.464 215.363 124.785 215.274 125.069 215.095C125.356 214.916 125.582 214.676 125.747 214.375C125.915 214.074 125.998 213.738 125.998 213.369C125.998 213.008 125.917 212.68 125.755 212.385C125.596 212.086 125.376 211.849 125.095 211.673C124.817 211.497 124.498 211.409 124.14 211.409C123.871 211.409 123.619 211.463 123.386 211.571C123.153 211.676 122.949 211.821 122.773 212.006C122.599 212.19 122.463 212.402 122.363 212.64C122.264 212.876 122.214 213.125 122.214 213.386C122.214 213.733 122.295 214.057 122.457 214.358C122.622 214.659 122.846 214.902 123.13 215.086C123.417 215.271 123.743 215.363 124.106 215.363Z" fill="white"/>
<path d="M122.585 201.003L122.252 201.674H122.252L122.585 201.003ZM121.622 200.184L122.237 199.756L121.622 200.184ZM121.226 199V198.25C121.02 198.25 120.823 198.334 120.682 198.483C120.54 198.632 120.466 198.833 120.477 199.038L121.226 199ZM122.248 199L122.995 198.925C122.956 198.541 122.633 198.25 122.248 198.25V199ZM122.785 199.98L122.312 200.562L122.318 200.567L122.785 199.98ZM124.89 200.112L124.506 199.468L124.504 199.469L124.89 200.112ZM125.551 199.422L124.893 199.061L124.892 199.063L125.551 199.422ZM125.542 197.402L124.884 197.762L124.889 197.769L125.542 197.402ZM123.868 196.426L123.86 197.176L123.862 197.176L123.868 196.426ZM123.045 196.55L123.256 197.269L123.263 197.267L123.045 196.55ZM122.351 196.869L122.261 197.614C122.447 197.636 122.636 197.588 122.788 197.478L122.351 196.869ZM121.362 196.75L120.618 196.658C120.593 196.856 120.649 197.055 120.771 197.212C120.894 197.369 121.074 197.471 121.272 197.494L121.362 196.75ZM121.89 192.454V191.704C121.512 191.704 121.192 191.987 121.146 192.363L121.89 192.454ZM126.424 192.454H127.174C127.174 192.04 126.839 191.704 126.424 191.704V192.454ZM126.424 193.392V194.142C126.839 194.142 127.174 193.806 127.174 193.392H126.424ZM122.777 193.392V192.642C122.397 192.642 122.077 192.926 122.032 193.303L122.777 193.392ZM122.47 195.966L121.725 195.877C121.7 196.09 121.767 196.303 121.909 196.464C122.051 196.624 122.256 196.716 122.47 196.716V195.966ZM122.521 195.966V196.716C122.69 196.716 122.855 196.658 122.987 196.553L122.521 195.966ZM125.466 195.855L125.074 196.495L125.079 196.498L125.466 195.855ZM126.454 196.895L125.795 197.252L125.797 197.255L126.454 196.895ZM126.442 199.895L125.79 199.523L125.79 199.524L126.442 199.895ZM125.419 200.926L125.793 201.576L125.796 201.574L125.419 200.926ZM123.936 200.551C123.538 200.551 123.204 200.472 122.919 200.331L122.252 201.674C122.767 201.931 123.334 202.051 123.936 202.051V200.551ZM122.919 200.331C122.624 200.185 122.402 199.993 122.237 199.756L121.007 200.613C121.324 201.069 121.745 201.423 122.252 201.674L122.919 200.331ZM122.237 199.756C122.08 199.53 121.991 199.272 121.975 198.961L120.477 199.038C120.506 199.614 120.681 200.146 121.007 200.613L122.237 199.756ZM121.226 199.75H122.248V198.25H121.226V199.75ZM121.502 199.075C121.563 199.676 121.845 200.182 122.312 200.562L123.258 199.398C123.089 199.261 123.014 199.114 122.995 198.925L121.502 199.075ZM122.318 200.567C122.784 200.937 123.336 201.113 123.936 201.113V199.613C123.644 199.613 123.429 199.534 123.253 199.393L122.318 200.567ZM123.936 201.113C124.416 201.113 124.87 201 125.277 200.755L124.504 199.469C124.354 199.56 124.172 199.613 123.936 199.613V201.113ZM125.274 200.756C125.673 200.519 125.988 200.189 126.21 199.78L124.892 199.063C124.796 199.24 124.67 199.37 124.506 199.468L125.274 200.756ZM126.209 199.782C126.437 199.365 126.544 198.905 126.544 198.42H125.044C125.044 198.68 124.988 198.888 124.893 199.061L126.209 199.782ZM126.544 198.42C126.544 197.926 126.434 197.457 126.196 197.034L124.889 197.769C124.986 197.943 125.044 198.153 125.044 198.42H126.544ZM126.2 197.042C125.973 196.626 125.652 196.29 125.246 196.046L124.476 197.334C124.649 197.437 124.783 197.576 124.884 197.762L126.2 197.042ZM125.246 196.046C124.83 195.798 124.365 195.68 123.873 195.676L123.862 197.176C124.115 197.178 124.312 197.236 124.476 197.334L125.246 196.046ZM123.876 195.676C123.525 195.672 123.175 195.727 122.828 195.832L123.263 197.267C123.478 197.202 123.676 197.174 123.86 197.176L123.876 195.676ZM122.834 195.83C122.496 195.929 122.181 196.067 121.913 196.26L122.788 197.478C122.884 197.41 123.032 197.335 123.256 197.269L122.834 195.83ZM122.44 196.125L121.452 196.005L121.272 197.494L122.261 197.614L122.44 196.125ZM122.106 196.841L122.635 192.546L121.146 192.363L120.618 196.658L122.106 196.841ZM121.89 193.204H126.424V191.704H121.89V193.204ZM125.674 192.454V193.392H127.174V192.454H125.674ZM126.424 192.642H122.777V194.142H126.424V192.642ZM122.032 193.303L121.725 195.877L123.215 196.055L123.521 193.481L122.032 193.303ZM122.47 196.716H122.521V195.216H122.47V196.716ZM122.987 196.553C123.086 196.475 123.231 196.393 123.44 196.321L122.948 194.904C122.618 195.018 122.314 195.173 122.055 195.378L122.987 196.553ZM123.44 196.321C123.629 196.255 123.827 196.221 124.038 196.221V194.721C123.664 194.721 123.299 194.782 122.948 194.904L123.44 196.321ZM124.038 196.221C124.447 196.221 124.785 196.318 125.074 196.495L125.857 195.215C125.311 194.881 124.697 194.721 124.038 194.721V196.221ZM125.079 196.498C125.382 196.68 125.619 196.927 125.795 197.252L127.114 196.537C126.813 195.982 126.39 195.536 125.852 195.212L125.079 196.498ZM125.797 197.255C125.97 197.572 126.067 197.948 126.067 198.403H127.567C127.567 197.728 127.421 197.098 127.112 196.534L125.797 197.255ZM126.067 198.403C126.067 198.844 125.969 199.21 125.79 199.523L127.093 200.267C127.414 199.704 127.567 199.077 127.567 198.403H126.067ZM125.79 199.524C125.608 199.843 125.363 200.091 125.042 200.278L125.796 201.574C126.344 201.255 126.78 200.816 127.094 200.265L125.79 199.524ZM125.045 200.276C124.736 200.454 124.373 200.551 123.936 200.551V202.051C124.607 202.051 125.233 201.898 125.793 201.576L125.045 200.276ZM124.106 216.301L124.094 217.051L124.099 217.051L124.106 216.301ZM123.032 216.096L122.775 216.801H122.775L123.032 216.096ZM122.052 215.436L121.507 215.951L121.51 215.954L122.052 215.436ZM121.341 214.17L120.63 214.409L120.63 214.41L121.341 214.17ZM121.29 210.105L122.018 210.282L122.019 210.281L121.29 210.105ZM121.92 208.592L122.542 209.011L122.544 209.009L121.92 208.592ZM122.917 207.655L122.559 206.996L122.557 206.997L122.917 207.655ZM125.547 207.629L125.203 208.296L125.209 208.299L125.547 207.629ZM126.484 208.439L127.1 208.01L127.1 208.01L126.484 208.439ZM126.953 209.636V210.386C127.172 210.386 127.38 210.29 127.523 210.124C127.665 209.957 127.728 209.736 127.694 209.52L126.953 209.636ZM125.913 209.636L125.185 209.816C125.267 210.151 125.568 210.386 125.913 210.386V209.636ZM125.351 208.66L124.84 209.21H124.84L125.351 208.66ZM122.645 209.155L122.019 208.741L122.018 208.743L122.645 209.155ZM122.061 211.631L121.311 211.628C121.31 211.828 121.389 212.019 121.53 212.16C121.671 212.301 121.862 212.381 122.061 212.381L122.061 211.631ZM122.129 211.631V212.381C122.381 212.381 122.617 212.254 122.755 212.043L122.129 211.631ZM122.696 211.013L123.157 211.604L123.158 211.603L122.696 211.013ZM125.649 210.846L125.262 211.489L125.265 211.491L125.649 210.846ZM126.646 211.873L125.995 212.246L125.996 212.247L126.646 211.873ZM126.659 214.852L127.318 215.209L127.319 215.207L126.659 214.852ZM125.64 215.917L126.027 216.56L126.028 216.559L125.64 215.917ZM125.069 215.095L124.672 214.459L124.67 214.46L125.069 215.095ZM125.747 214.375L125.092 214.01L125.089 214.015L125.747 214.375ZM125.755 212.385L125.094 212.738L125.098 212.745L125.755 212.385ZM125.095 211.673L124.694 212.307L124.697 212.309L125.095 211.673ZM123.386 211.571L123.695 212.255L123.701 212.251L123.386 211.571ZM122.773 212.006L122.23 211.488L122.226 211.492L122.773 212.006ZM122.363 212.64L123.054 212.932L123.056 212.929L122.363 212.64ZM122.457 214.358L121.797 214.713L121.799 214.718L122.457 214.358ZM123.13 215.086L122.722 215.715L122.725 215.717L123.13 215.086ZM124.118 215.551C123.849 215.547 123.574 215.496 123.29 215.392L122.775 216.801C123.207 216.958 123.647 217.044 124.094 217.051L124.118 215.551ZM123.29 215.392C123.053 215.305 122.821 215.155 122.595 214.918L121.51 215.954C121.875 216.336 122.296 216.626 122.775 216.801L123.29 215.392ZM122.597 214.921C122.395 214.707 122.206 214.389 122.051 213.931L120.63 214.41C120.833 215.014 121.118 215.54 121.507 215.951L122.597 214.921ZM122.052 213.932C121.907 213.5 121.822 212.917 121.822 212.159H120.322C120.322 213.015 120.416 213.772 120.63 214.409L122.052 213.932ZM121.822 212.159C121.822 211.431 121.891 210.808 122.018 210.282L120.561 209.928C120.399 210.595 120.322 211.341 120.322 212.159H121.822ZM122.019 210.281C122.148 209.748 122.327 209.33 122.542 209.011L121.298 208.173C120.962 208.672 120.721 209.263 120.561 209.929L122.019 210.281ZM122.544 209.009C122.76 208.686 123.006 208.461 123.278 208.313L122.557 206.997C122.05 207.274 121.632 207.675 121.297 208.175L122.544 209.009ZM123.276 208.314C123.547 208.166 123.863 208.085 124.243 208.085V206.585C123.639 206.585 123.072 206.717 122.559 206.996L123.276 208.314ZM124.243 208.085C124.629 208.085 124.943 208.162 125.203 208.296L125.89 206.962C125.389 206.704 124.834 206.585 124.243 206.585V208.085ZM125.209 208.299C125.483 208.437 125.7 208.625 125.869 208.867L127.1 208.01C126.786 207.559 126.377 207.208 125.884 206.959L125.209 208.299ZM125.869 208.867C126.04 209.113 126.157 209.404 126.212 209.753L127.694 209.52C127.607 208.965 127.411 208.457 127.1 208.01L125.869 208.867ZM126.953 208.886H125.913V210.386H126.953V208.886ZM126.641 209.457C126.512 208.932 126.253 208.475 125.861 208.111L124.84 209.21C125.005 209.363 125.121 209.556 125.185 209.816L126.641 209.457ZM125.861 208.111C125.416 207.697 124.85 207.523 124.243 207.523V209.023C124.556 209.023 124.729 209.106 124.84 209.21L125.861 208.111ZM124.243 207.523C123.302 207.523 122.54 207.954 122.019 208.741L123.27 209.569C123.528 209.18 123.831 209.023 124.243 209.023V207.523ZM122.018 208.743C121.52 209.5 121.314 210.49 121.311 211.628L122.811 211.633C122.813 210.646 122.996 209.985 123.271 209.566L122.018 208.743ZM122.061 212.381H122.129V210.881H122.061V212.381ZM122.755 212.043C122.871 211.867 123.005 211.722 123.157 211.604L122.235 210.421C121.949 210.644 121.705 210.911 121.503 211.218L122.755 212.043ZM123.158 211.603C123.315 211.481 123.487 211.387 123.677 211.32L123.18 209.904C122.837 210.025 122.52 210.198 122.234 210.422L123.158 211.603ZM123.677 211.32C123.86 211.255 124.058 211.221 124.277 211.221V209.721C123.898 209.721 123.531 209.781 123.18 209.904L123.677 211.32ZM124.277 211.221C124.645 211.221 124.968 211.312 125.262 211.489L126.036 210.204C125.501 209.881 124.909 209.721 124.277 209.721V211.221ZM125.265 211.491C125.564 211.669 125.806 211.915 125.995 212.246L127.297 211.501C126.986 210.957 126.564 210.518 126.033 210.202L125.265 211.491ZM125.996 212.247C126.173 212.555 126.271 212.922 126.271 213.369H127.771C127.771 212.692 127.619 212.061 127.296 211.499L125.996 212.247ZM126.271 213.369C126.271 213.792 126.178 214.164 125.998 214.497L127.319 215.207C127.623 214.643 127.771 214.025 127.771 213.369H126.271ZM125.999 214.495C125.822 214.823 125.577 215.08 125.253 215.275L126.028 216.559C126.579 216.227 127.013 215.774 127.318 215.209L125.999 214.495ZM125.254 215.275C124.956 215.454 124.585 215.556 124.114 215.551L124.099 217.051C124.803 217.058 125.456 216.904 126.027 216.56L125.254 215.275ZM124.106 216.113C124.596 216.113 125.057 215.989 125.469 215.73L124.67 214.46C124.513 214.559 124.333 214.613 124.106 214.613V216.113ZM125.466 215.731C125.864 215.483 126.179 215.147 126.405 214.735L125.089 214.015C124.985 214.205 124.848 214.349 124.672 214.459L125.466 215.731ZM126.402 214.74C126.636 214.319 126.748 213.857 126.748 213.369H125.248C125.248 213.62 125.193 213.828 125.092 214.01L126.402 214.74ZM126.748 213.369C126.748 212.892 126.64 212.438 126.413 212.024L125.098 212.745C125.195 212.922 125.248 213.125 125.248 213.369H126.748ZM126.417 212.032C126.198 211.62 125.888 211.285 125.493 211.037L124.697 212.309C124.865 212.414 124.995 212.553 125.094 212.738L126.417 212.032ZM125.496 211.039C125.087 210.781 124.628 210.659 124.14 210.659V212.159C124.369 212.159 124.546 212.213 124.694 212.307L125.496 211.039ZM124.14 210.659C123.767 210.659 123.408 210.734 123.071 210.89L123.701 212.251C123.831 212.192 123.974 212.159 124.14 212.159V210.659ZM123.078 210.887C122.757 211.032 122.473 211.233 122.23 211.488L123.315 212.523C123.425 212.409 123.55 212.32 123.695 212.254L123.078 210.887ZM122.226 211.492C121.989 211.744 121.804 212.032 121.671 212.352L123.056 212.929C123.121 212.772 123.209 212.636 123.319 212.519L122.226 211.492ZM121.672 212.349C121.533 212.679 121.464 213.027 121.464 213.386H122.964C122.964 213.223 122.995 213.073 123.054 212.932L121.672 212.349ZM121.464 213.386C121.464 213.855 121.575 214.301 121.797 214.713L123.118 214.003C123.015 213.812 122.964 213.611 122.964 213.386H121.464ZM121.799 214.718C122.023 215.126 122.332 215.462 122.722 215.715L123.539 214.458C123.361 214.342 123.221 214.192 123.115 213.998L121.799 214.718ZM122.725 215.717C123.141 215.985 123.609 216.113 124.106 216.113V214.613C123.877 214.613 123.694 214.557 123.536 214.456L122.725 215.717Z" fill="black"/>
</g>
<defs>
<clipPath id="clip0_102_7296">
<rect width="299" height="299" fill="white" transform="translate(1 1)"/>
</clipPath>
</defs>
</svg>
