<svg width="300" height="301" viewBox="0 0 300 301" fill="none" xmlns="http://www.w3.org/2000/svg">
<g clip-path="url(#clip0_102_7116)">
<path d="M124.444 35.5918L27.2228 133.061C13.1113 147.207 13.1113 170.143 27.2228 184.289L124.444 281.75C138.556 295.896 161.436 295.896 175.547 281.75L272.769 184.289C286.88 170.143 286.88 147.207 272.769 133.061L175.556 35.5918C161.444 21.4456 138.564 21.4456 124.453 35.5918H124.444Z" fill="#BCE8FF" stroke="black" stroke-width="1.5" stroke-miterlimit="10"/>
<path d="M30.478 191.337H264.656" stroke="black" stroke-width="1.5" stroke-linecap="round" stroke-linejoin="round"/>
<path d="M82.7147 94.9786C81.854 91.331 86.5067 92.3476 89.3955 92.4415C91.2362 92.5013 94.0482 93.8425 95.8377 94.7993C97.0222 95.4314 98.3431 95.7645 99.6809 95.7987L120.456 96.2087L130.725 68.8304C133.068 62.5773 140.831 60.4759 146.004 64.6873C147.529 65.9345 148.594 67.5575 149.148 69.3258C149.932 71.8287 149.71 74.6221 148.364 77.0396L132.233 105.921C129.566 110.697 124.299 113.422 118.871 112.824L97.9085 110.517C96.7069 110.389 95.4884 110.509 94.338 110.885C91.7134 111.747 86.5408 113.174 83.1322 112.439C81.9818 112.192 81.0104 111.337 80.7207 110.193C80.6014 109.723 80.5843 109.193 80.7803 108.621C80.7803 108.621 78.8033 106.383 79.9708 104.529C79.9708 104.529 77.8319 102.077 80.1497 99.5403C80.1497 99.5403 78.9141 96.1148 81.7518 95.0555C81.7518 95.0555 82.1182 95.0043 82.7062 94.9701L82.7147 94.9786Z" fill="#FFD8CD"/>
<path d="M82.7147 94.9786C81.854 91.331 86.5067 92.3476 89.3955 92.4415C91.2362 92.5013 94.0482 93.8425 95.8377 94.7993C97.0222 95.4314 98.3431 95.7645 99.6809 95.7987L120.456 96.2087L130.725 68.8304C133.068 62.5773 140.831 60.4759 146.004 64.6873C147.529 65.9345 148.594 67.5575 149.148 69.3258C149.932 71.8287 149.71 74.6221 148.364 77.0396L132.233 105.921C129.566 110.697 124.299 113.422 118.871 112.824L97.9085 110.517C96.7069 110.389 95.4884 110.509 94.338 110.885C91.7134 111.747 86.5408 113.174 83.1322 112.439C81.9818 112.192 81.0104 111.337 80.7207 110.193C80.6014 109.723 80.5843 109.193 80.7803 108.621C80.7803 108.621 78.8033 106.383 79.9708 104.529C79.9708 104.529 77.8319 102.077 80.1497 99.5403C80.1497 99.5403 78.9141 96.1148 81.7518 95.0555C81.7518 95.0555 82.1182 95.0043 82.7062 94.9701L82.7147 94.9786Z" stroke="black" stroke-width="1.5" stroke-linecap="round" stroke-linejoin="round"/>
<path d="M82.7146 94.9788L83.1492 97.14C83.3537 98.148 84.2399 98.8741 85.2625 98.8741C86.5578 98.8741 87.5633 97.738 87.4014 96.4481L87.3332 95.8757" stroke="black" stroke-width="1.5" stroke-linecap="round" stroke-linejoin="round"/>
<path d="M93.7842 103.256C93.7842 103.256 89.0036 103.282 86.4216 98.5322" stroke="black" stroke-width="1.5" stroke-linecap="round" stroke-linejoin="round"/>
<path d="M80.1582 99.5488C80.1582 99.5488 81.1126 101.471 83.3964 101.565C85.6801 101.659 87.5463 102 88.228 100.89" stroke="black" stroke-width="1.5" stroke-linecap="round" stroke-linejoin="round"/>
<path d="M79.9792 104.538C79.9792 104.538 81.2149 105.682 84.6746 105.819C88.1343 105.956 89.4125 105.247 89.6511 103.564C89.8897 101.881 87.8105 101.326 87.8105 101.326" stroke="black" stroke-width="1.5" stroke-linecap="round" stroke-linejoin="round"/>
<path d="M80.7888 108.621C80.7888 108.621 82.3823 109.825 86.4215 109.689C90.4607 109.552 91.1083 106.682 88.6115 105.238" stroke="black" stroke-width="1.5" stroke-linecap="round" stroke-linejoin="round"/>
<path d="M88.7563 112.311C88.7563 112.311 90.4862 110.509 88.7563 109.176" stroke="black" stroke-width="1.5" stroke-linecap="round" stroke-linejoin="round"/>
<path d="M221.342 206.302C222.705 206.772 223.591 208.079 223.515 209.523L222.22 235.577C222.075 238.516 218.393 239.746 216.519 237.482L206.003 224.762L211.789 202.586C213.187 203.355 214.652 204.004 216.169 204.526L221.342 206.302Z" fill="black"/>
<path d="M117.883 243.633C118.215 245.606 116.698 247.408 114.704 247.408H82.7574C79.8686 247.408 78.437 243.889 80.5077 241.864L86.7369 235.765C88.0066 234.527 89.1399 233.177 90.137 231.733H115.863C115.872 231.819 115.889 231.904 115.906 231.989L117.883 243.624V243.633Z" fill="black"/>
<path d="M201.24 193.694L190.946 211.488L168.262 194.95C161.93 190.328 157.15 183.896 154.559 176.489L149.191 161.181H149.199C150.997 159.601 153.17 158.508 155.505 158.038C160.882 156.953 171.423 153.647 175.854 144.028L180.26 173.303L201.24 193.702V193.694Z" fill="white"/>
<path d="M173.605 122.118C177.456 127.619 178.837 134.564 176.971 141.013C176.664 142.081 176.289 143.072 175.854 144.012C171.415 153.631 160.882 156.936 155.505 158.021C153.17 158.491 150.997 159.585 149.199 161.156H149.191L120.951 185.818L116.579 217.733H95.0369C95.0539 217.468 95.071 217.203 95.0795 216.938L96.3236 183.939C96.6389 175.491 99.9367 167.427 105.629 161.182L137.406 126.312L135.957 120.349C135.957 120.349 159.255 122.331 169.208 112.969C170.333 116.796 172.071 119.888 173.613 122.101L173.605 122.118Z" fill="white"/>
<path d="M166.54 91.3909L167.35 100.591C167.137 100.719 166.932 100.847 166.719 100.967C154.849 107.861 137.465 108.074 132.957 107.997C132.241 107.989 131.849 107.972 131.849 107.972L128.535 97.6353C127.93 95.7475 126.677 94.1415 125.032 93.0481C121.828 90.9125 120.763 86.6498 121.419 81.55C121.709 79.3204 123.03 75.9718 124.598 72.5976C129.523 75.4422 139.962 74.9382 139.962 74.9382C139.962 74.9382 141.053 66.7802 144.887 62.4919C148.611 58.3232 153.554 59.9976 153.843 60.1001H153.852L158.803 63.2778L166.54 91.3909Z" fill="#00AD8D"/>
<path d="M167.341 16.2603C177.124 19.2929 180.856 38.0007 201.027 25.2555C201.027 25.2555 193.059 39.9655 178.232 38.4791C163.404 36.9927 166.532 25.153 155.437 25.6655C155.326 24.0852 154.695 22.0606 153.596 19.9592C153.724 19.7456 157.712 13.2705 167.341 16.2603Z" fill="black"/>
<path d="M153.596 19.9678C154.704 22.0607 155.335 24.0852 155.437 25.6741C155.837 31.5427 157.116 39.6409 146.362 47.1753C146.362 47.1753 141.232 48.1919 137.516 41.8619C139.919 41.1615 141.675 38.9319 141.675 36.3008C141.675 33.0974 139.084 30.5006 135.889 30.5006C133.349 30.5006 131.193 32.1407 130.418 34.4215L128.918 30.5774C119.689 27.4509 120.192 16.9779 120.192 16.9779C120.192 16.9779 116.528 20.3351 115.966 27.1007C115.966 27.1007 113.188 24.2048 114.9 19.404C116.613 14.6032 120.848 14.3469 120.848 14.3469C120.848 14.3469 122.868 9.4948 135.173 8.68328C144.155 8.09385 150.614 14.2956 153.605 19.9678H153.596Z" fill="black"/>
<path d="M137.516 41.8619C136.996 42.0156 136.451 42.0925 135.889 42.0925C132.693 42.0925 130.103 39.4956 130.103 36.2922C130.103 35.6345 130.213 35.0023 130.418 34.4129C131.193 32.1321 133.358 30.4919 135.889 30.4919C139.084 30.4919 141.675 33.0888 141.675 36.2922C141.675 38.9318 139.928 41.1529 137.516 41.8533V41.8619Z" fill="#FFD8CD"/>
<path d="M168.62 110.731C168.781 111.508 168.977 112.26 169.19 112.986C159.237 122.348 135.94 120.367 135.94 120.367L132.94 108.006C137.457 108.083 154.832 107.869 166.702 100.975L168.611 110.739L168.62 110.731Z" fill="#FFD8CD"/>
<path d="M150.443 57.9217L153.843 60.1001C153.554 59.9975 148.603 58.3232 144.887 62.4919C141.053 66.7887 139.962 74.9382 139.962 74.9382C139.962 74.9382 129.523 75.4422 124.598 72.5976C126.421 68.6852 128.577 64.73 129.864 62.4577C130.588 61.1678 130.869 59.6815 130.656 58.2122L129.728 51.7029C116.801 52.5229 115.539 42.0927 115.454 39.0345C115.437 38.4878 115.173 37.9752 114.755 37.6421L113.545 36.6597C113.017 36.2326 112.94 35.4552 113.366 34.9256L115.565 32.2433C115.872 31.8674 116.025 31.3891 115.991 30.9107C115.872 29.5354 115.872 28.2711 115.974 27.1008C116.536 20.3352 120.201 16.978 120.201 16.978C120.201 16.978 119.698 27.4425 128.927 30.5775L130.426 34.4216C130.222 35.011 130.111 35.6432 130.111 36.3009C130.111 39.5043 132.702 42.1012 135.897 42.1012C136.46 42.1012 137.013 42.0243 137.525 41.8706C141.249 48.2005 146.37 47.1839 146.37 47.1839L147.469 53.4541C147.793 55.2992 148.875 56.9223 150.443 57.9303V57.9217Z" fill="#FFD8CD"/>
<path d="M211.798 202.586L206.012 224.763L203.455 221.679C201.981 219.902 200.294 218.313 198.436 216.955L190.946 211.488L201.24 193.694L205.867 198.196C207.648 199.93 209.642 201.399 211.798 202.595V202.586Z" fill="#FFD8CD"/>
<path d="M116.571 217.741L115.77 223.558C115.395 226.275 115.429 229.034 115.863 231.733H90.137C92.9831 227.616 94.6874 222.789 95.0198 217.741H116.562H116.571Z" fill="#FFD8CD"/>
<path d="M153.852 60.1086L158.803 63.2864L166.54 91.3994L167.35 100.6C167.137 100.728 166.932 100.856 166.719 100.975C154.849 107.869 137.465 108.083 132.957 108.006C132.241 107.997 131.849 107.98 131.849 107.98L128.535 97.6439C127.93 95.756 126.677 94.1501 125.032 93.0566C121.828 90.921 120.763 86.6584 121.419 81.5586C121.709 79.329 123.03 75.9804 124.598 72.6061C126.421 68.6937 128.577 64.7386 129.864 62.4663C130.588 61.1764 130.869 59.69 130.656 58.2207L129.728 51.7114C116.801 52.5315 115.539 42.1012 115.454 39.043C115.437 38.4963 115.173 37.9838 114.755 37.6506L113.545 36.6683C113.017 36.2411 112.94 35.4638 113.366 34.9341L115.565 32.2518C115.872 31.876 116.025 31.3976 115.991 30.9192C115.872 29.5439 115.872 28.2796 115.974 27.1093C116.536 20.3437 120.201 16.9866 120.201 16.9866C120.201 16.9866 119.698 27.451 128.927 30.5861L130.426 34.4301" stroke="black" stroke-width="1.5" stroke-linecap="round" stroke-linejoin="round"/>
<path d="M137.516 41.8621C141.24 48.192 146.361 47.1754 146.361 47.1754L147.461 53.4456C147.784 55.2907 148.867 56.9138 150.435 57.9218L153.835 60.1001" stroke="black" stroke-width="1.5" stroke-linecap="round" stroke-linejoin="round"/>
<path d="M115.957 27.0921C115.957 27.0921 113.179 24.1963 114.892 19.3954C116.604 14.5946 120.84 14.3383 120.84 14.3383C120.84 14.3383 122.859 9.48626 135.164 8.67473C144.146 8.08531 150.605 14.2871 153.596 19.9592C154.704 22.0521 155.334 24.0767 155.437 25.6656C155.837 31.5342 157.115 39.6324 146.361 47.1668" stroke="black" stroke-width="1.5" stroke-linecap="round" stroke-linejoin="round"/>
<path d="M117.593 27.6388C117.593 27.6388 119.204 25.8876 121.223 27.5106" stroke="black" stroke-width="1.5" stroke-linecap="round" stroke-linejoin="round"/>
<path d="M116.835 40.7857C116.835 40.7857 119.681 40.7857 120.848 38.4878" stroke="black" stroke-width="1.5" stroke-linecap="round" stroke-linejoin="round"/>
<path d="M153.852 60.1086C153.852 60.1086 153.852 60.1086 153.843 60.1086C153.554 60.0061 148.603 58.3318 144.887 62.5005C141.053 66.7973 139.962 74.9468 139.962 74.9468C139.962 74.9468 129.523 75.4507 124.598 72.6061" stroke="black" stroke-width="1.5" stroke-linecap="round" stroke-linejoin="round"/>
<path d="M132.949 107.997L135.948 120.358L137.397 126.321L105.62 161.191C99.928 167.435 96.6387 175.499 96.3149 183.948L95.0708 216.947C95.0708 217.212 95.0452 217.477 95.0282 217.741C94.6958 222.79 92.9915 227.625 90.1454 231.734C89.1484 233.177 88.015 234.527 86.7453 235.766L80.5161 241.865C78.4539 243.89 79.877 247.409 82.7658 247.409H114.713C116.707 247.409 118.224 245.607 117.891 243.633L115.914 231.999C115.897 231.913 115.889 231.828 115.872 231.742C115.429 229.043 115.403 226.284 115.778 223.567L116.579 217.75L120.95 185.836L149.191 161.182H149.199C150.997 159.602 153.17 158.508 155.505 158.039C160.882 156.954 171.423 153.648 175.854 144.029C176.289 143.089 176.664 142.098 176.971 141.031C178.837 134.573 177.456 127.636 173.605 122.135C172.062 119.922 170.324 116.83 169.199 113.003C168.977 112.277 168.79 111.525 168.628 110.748L166.719 100.984" stroke="black" stroke-width="1.5" stroke-linecap="round" stroke-linejoin="round"/>
<path d="M149.182 161.174L154.551 176.482C157.141 183.879 161.922 190.32 168.253 194.942L190.937 211.48L198.428 216.947C200.294 218.305 201.981 219.894 203.447 221.671L206.003 224.755L216.519 237.474C218.393 239.747 222.075 238.516 222.22 235.569L223.515 209.515C223.592 208.071 222.697 206.764 221.342 206.295L216.169 204.518C214.653 203.997 213.187 203.347 211.789 202.579C209.633 201.391 207.639 199.913 205.858 198.179L201.231 193.677L180.251 173.278L175.846 144.003" stroke="black" stroke-width="1.5" stroke-linecap="round" stroke-linejoin="round"/>
<path d="M135.94 120.366C135.94 120.366 159.237 122.348 169.19 112.986" stroke="black" stroke-width="1.5" stroke-linecap="round" stroke-linejoin="round"/>
<path d="M130.409 34.4129C131.185 32.1321 133.349 30.4919 135.88 30.4919C139.076 30.4919 141.666 33.0888 141.666 36.2922C141.666 38.9318 139.919 41.1529 137.508 41.8533" stroke="black" stroke-width="1.5" stroke-linecap="round" stroke-linejoin="round"/>
<path d="M133.153 37.2917C133.153 37.2917 134.568 34.2592 138.343 35.0109" stroke="black" stroke-width="1.5" stroke-linecap="round" stroke-linejoin="round"/>
<path d="M153.596 19.9677C153.724 19.7541 157.712 13.279 167.341 16.2603C177.124 19.2929 180.856 38.0007 201.027 25.2554C201.027 25.2554 193.059 39.9655 178.232 38.4791C163.404 36.9927 166.532 25.1529 155.437 25.6655" stroke="black" stroke-width="1.5" stroke-linecap="round" stroke-linejoin="round"/>
<path d="M95.0281 217.741H116.57" stroke="black" stroke-width="1.5" stroke-linecap="round" stroke-linejoin="round"/>
<path d="M190.937 211.48L201.24 193.695" stroke="black" stroke-width="1.5" stroke-linecap="round" stroke-linejoin="round"/>
<path d="M90.1453 231.742H115.863" stroke="black" stroke-width="1.5" stroke-linecap="round" stroke-linejoin="round"/>
<path d="M206.003 224.763L211.798 202.587" stroke="black" stroke-width="1.5" stroke-linecap="round" stroke-linejoin="round"/>
<path d="M169.54 130.447C165.816 130.857 167.392 126.346 167.844 123.485C168.134 121.656 169.804 119.025 170.971 117.368C171.738 116.266 172.233 114.993 172.429 113.661L175.369 93.0394L149.514 79.4826C143.618 76.3903 142.476 68.4031 147.273 63.7817C148.688 62.4149 150.435 61.5521 152.25 61.219C154.823 60.7406 157.559 61.3044 159.791 62.9445L186.421 82.5152C190.826 85.7527 192.872 91.3224 191.619 96.6528L186.779 117.223C186.498 118.402 186.472 119.632 186.702 120.819C187.23 123.536 188.014 128.858 186.873 132.155C186.489 133.274 185.526 134.128 184.359 134.282C183.881 134.342 183.353 134.299 182.808 134.026C182.808 134.026 180.354 135.717 178.658 134.333C178.658 134.333 175.974 136.161 173.741 133.547C173.741 133.547 170.196 134.359 169.497 131.403C169.497 131.403 169.497 131.027 169.531 130.447H169.54Z" fill="#FFD8CD"/>
<path d="M169.54 130.447C169.608 129.259 169.838 127.201 170.571 125.757" stroke="black" stroke-width="1.5" stroke-linecap="round" stroke-linejoin="round"/>
<path d="M169.54 130.447C165.816 130.857 167.392 126.346 167.844 123.484C168.134 121.656 169.804 119.025 170.971 117.368C171.738 116.266 172.233 114.993 172.429 113.661L175.369 93.0394L149.514 79.4826C143.618 76.3903 142.476 68.4031 147.273 63.7817C148.688 62.4149 150.435 61.5521 152.25 61.219C154.823 60.7406 157.559 61.3044 159.791 62.9445L186.421 82.5152C190.826 85.7527 192.872 91.3224 191.619 96.6528L186.779 117.223C186.498 118.402 186.472 119.632 186.702 120.819C187.23 123.536 188.014 128.858 186.873 132.155C186.489 133.274 185.526 134.128 184.359 134.282C183.881 134.342 183.353 134.299 182.808 134.026C182.808 134.026 180.354 135.717 178.658 134.333C178.658 134.333 175.974 136.161 173.741 133.547C173.741 133.547 170.196 134.359 169.497 131.403C169.497 131.403 169.497 131.027 169.531 130.447H169.54Z" stroke="black" stroke-width="1.5" stroke-linecap="round" stroke-linejoin="round"/>
<path d="M119.016 32.7898C119.506 32.7898 119.902 32.0708 119.902 31.1839C119.902 30.2969 119.506 29.5779 119.016 29.5779C118.527 29.5779 118.13 30.2969 118.13 31.1839C118.13 32.0708 118.527 32.7898 119.016 32.7898Z" fill="black"/>
<path d="M123.294 38.1033C125.059 38.1033 126.489 36.6691 126.489 34.8999C126.489 33.1307 125.059 31.6965 123.294 31.6965C121.529 31.6965 120.098 33.1307 120.098 34.8999C120.098 36.6691 121.529 38.1033 123.294 38.1033Z" fill="#FFBEAF"/>
<path d="M198.692 56.5976C201.896 57.1529 205.355 58.1267 209.037 59.6814C229.267 68.2153 253.723 54.0691 253.723 54.0691" stroke="black" stroke-width="1.5" stroke-linecap="round" stroke-linejoin="round"/>
<path d="M175.207 60.1001C175.207 60.1001 181.248 56.1193 191.269 55.9998" stroke="black" stroke-width="1.5" stroke-linecap="round" stroke-linejoin="round"/>
<path d="M261.001 81.9515C271.593 79.5768 279.552 74.981 279.552 74.981" stroke="black" stroke-width="1.5" stroke-linecap="round" stroke-linejoin="round"/>
<path d="M201.035 81.0033C201.035 81.0033 214.635 72.0509 234.857 80.5847C240.668 83.0364 246.829 83.6173 252.658 83.1987" stroke="black" stroke-width="1.5" stroke-linecap="round" stroke-linejoin="round"/>
<path d="M90.7419 40.2902C91.5429 39.1968 92.0286 37.8556 92.0286 36.3949C92.0286 32.7302 89.0716 29.766 85.4159 29.766C84.4274 29.766 83.4986 29.9966 82.655 30.3896C81.5472 28.2796 79.3657 26.8274 76.8263 26.8274C73.1706 26.8274 70.2136 29.7916 70.2136 33.4563C70.2136 33.7638 70.2648 34.0628 70.3074 34.3618C69.8131 34.2422 69.3018 34.1653 68.765 34.1653C65.1093 34.1653 62.1523 37.1295 62.1523 40.7942C62.1523 43.3484 63.6095 45.5352 65.7228 46.6458C65.0837 47.6623 64.7003 48.8582 64.7003 50.1481C64.7003 53.8128 67.6572 56.777 71.3129 56.777C72.4974 56.777 73.5967 56.4353 74.5596 55.8886C75.6503 58.0499 77.8574 59.5362 80.4394 59.5362C84.0951 59.5362 87.0521 56.572 87.0521 52.9073C87.0521 52.8732 87.0435 52.8475 87.0435 52.8134C87.3503 52.8561 87.6571 52.9073 87.9724 52.9073C91.6281 52.9073 94.585 49.9431 94.585 46.2784C94.585 43.6217 93.0086 41.3409 90.7504 40.2817L90.7419 40.2902Z" fill="white" stroke="black" stroke-width="1.5" stroke-linecap="round" stroke-linejoin="round"/>
<path d="M78.3603 47.0643C80.5299 47.0643 82.2887 45.3012 82.2887 43.1263C82.2887 40.9514 80.5299 39.1882 78.3603 39.1882C76.1907 39.1882 74.4319 40.9514 74.4319 43.1263C74.4319 45.3012 76.1907 47.0643 78.3603 47.0643Z" fill="#FFCD78" stroke="black" stroke-width="1.5" stroke-linecap="round" stroke-linejoin="round"/>
<path d="M107.896 68.9329C108.432 68.1982 108.756 67.3013 108.756 66.3189C108.756 63.8587 106.771 61.8683 104.317 61.8683C103.652 61.8683 103.03 62.0221 102.459 62.2869C101.718 60.8689 100.252 59.895 98.539 59.895C96.0849 59.895 94.0994 61.8854 94.0994 64.3456C94.0994 64.5506 94.1334 64.7556 94.159 64.9521C93.8267 64.8752 93.4858 64.8154 93.1279 64.8154C90.6737 64.8154 88.6882 66.8058 88.6882 69.266C88.6882 70.9831 89.6682 72.4523 91.0828 73.1955C90.6567 73.8789 90.3925 74.6819 90.3925 75.5532C90.3925 78.0134 92.378 80.0038 94.8322 80.0038C95.6247 80.0038 96.3661 79.7732 97.0137 79.4059C97.7465 80.8581 99.2293 81.8575 100.959 81.8575C103.413 81.8575 105.399 79.8671 105.399 77.4069C105.399 77.3813 105.399 77.3642 105.399 77.3471C105.603 77.3728 105.808 77.4069 106.021 77.4069C108.475 77.4069 110.461 75.4166 110.461 72.9563C110.461 71.171 109.404 69.6419 107.887 68.9329H107.896Z" fill="white" stroke="black" stroke-width="1.5" stroke-linecap="round" stroke-linejoin="round"/>
<path d="M99.5787 73.486C101.033 73.486 102.212 72.3042 102.212 70.8464C102.212 69.3886 101.033 68.2068 99.5787 68.2068C98.1245 68.2068 96.9456 69.3886 96.9456 70.8464C96.9456 72.3042 98.1245 73.486 99.5787 73.486Z" fill="#FFCD78" stroke="black" stroke-width="1.5" stroke-linecap="round" stroke-linejoin="round"/>
<path d="M226.207 41.2725C227.351 41.2725 228.278 40.3431 228.278 39.1967C228.278 38.0502 227.351 37.1208 226.207 37.1208C225.064 37.1208 224.137 38.0502 224.137 39.1967C224.137 40.3431 225.064 41.2725 226.207 41.2725Z" fill="white" stroke="black" stroke-width="1.5" stroke-linecap="round" stroke-linejoin="round"/>
<path d="M267.835 97.0544C268.978 97.0544 269.906 96.1251 269.906 94.9786C269.906 93.8322 268.978 92.9028 267.835 92.9028C266.691 92.9028 265.764 93.8322 265.764 94.9786C265.764 96.1251 266.691 97.0544 267.835 97.0544Z" fill="white" stroke="black" stroke-width="1.5" stroke-linecap="round" stroke-linejoin="round"/>
<path d="M208.9 97.0544C210.044 97.0544 210.971 96.1251 210.971 94.9786C210.971 93.8322 210.044 92.9028 208.9 92.9028C207.757 92.9028 206.83 93.8322 206.83 94.9786C206.83 96.1251 207.757 97.0544 208.9 97.0544Z" fill="white" stroke="black" stroke-width="1.5" stroke-linecap="round" stroke-linejoin="round"/>
<path d="M242.645 109.706H201.367V191.337H242.645V109.706Z" fill="white" stroke="black" stroke-width="1.5" stroke-linecap="round" stroke-linejoin="round"/>
<path d="M258.035 124.689H242.646V191.337H258.035V124.689Z" fill="#E0E0E0" stroke="black" stroke-width="1.5" stroke-linecap="round" stroke-linejoin="round"/>
<path d="M213.246 116.761H207.384V125.757H213.246V116.761Z" fill="#B5E8EE" stroke="black" stroke-width="1.5" stroke-linecap="round" stroke-linejoin="round"/>
<path d="M224.938 116.761H219.075V125.757H224.938V116.761Z" fill="#B5E8EE" stroke="black" stroke-width="1.5" stroke-linecap="round" stroke-linejoin="round"/>
<path d="M236.629 116.761H230.767V125.757H236.629V116.761Z" fill="#B5E8EE" stroke="black" stroke-width="1.5" stroke-linecap="round" stroke-linejoin="round"/>
<path d="M213.246 132.915H207.384V141.91H213.246V132.915Z" fill="#B5E8EE" stroke="black" stroke-width="1.5" stroke-linecap="round" stroke-linejoin="round"/>
<path d="M224.938 132.915H219.075V141.91H224.938V132.915Z" fill="#B5E8EE" stroke="black" stroke-width="1.5" stroke-linecap="round" stroke-linejoin="round"/>
<path d="M236.629 132.915H230.767V141.91H236.629V132.915Z" fill="#B5E8EE" stroke="black" stroke-width="1.5" stroke-linecap="round" stroke-linejoin="round"/>
<path d="M213.246 149.077H207.384V158.073H213.246V149.077Z" fill="#B5E8EE" stroke="black" stroke-width="1.5" stroke-linecap="round" stroke-linejoin="round"/>
<path d="M224.938 149.077H219.075V158.073H224.938V149.077Z" fill="#B5E8EE" stroke="black" stroke-width="1.5" stroke-linecap="round" stroke-linejoin="round"/>
<path d="M236.629 149.077H230.767V158.073H236.629V149.077Z" fill="#B5E8EE" stroke="black" stroke-width="1.5" stroke-linecap="round" stroke-linejoin="round"/>
<path d="M213.246 165.231H207.384V174.226H213.246V165.231Z" fill="#B5E8EE" stroke="black" stroke-width="1.5" stroke-linecap="round" stroke-linejoin="round"/>
<path d="M224.938 165.231H219.075V174.226H224.938V165.231Z" fill="#B5E8EE" stroke="black" stroke-width="1.5" stroke-linecap="round" stroke-linejoin="round"/>
<path d="M236.629 165.231H230.767V174.226H236.629V165.231Z" fill="#B5E8EE" stroke="black" stroke-width="1.5" stroke-linecap="round" stroke-linejoin="round"/>
<path d="M66.8051 191.465C63.2346 174.038 63.7374 152.956 63.7374 152.956L60.7634 152.973L57.7894 152.99C57.7894 152.99 58.5819 174.064 55.25 191.525L66.8051 191.473V191.465Z" fill="#FF8561" stroke="black" stroke-width="1.5" stroke-linecap="round" stroke-linejoin="round"/>
<path d="M71.2959 88.7597L62.9193 90.5792L61.1042 98.9764L59.2807 90.5792L50.9041 88.7597L59.2807 86.9316L61.1042 78.5344L62.9193 86.9316L71.2959 88.7597Z" fill="#B5E8EE" stroke="black" stroke-width="1.5" stroke-linecap="round" stroke-linejoin="round"/>
<path d="M114.176 132.915L105.799 134.744L103.984 143.141L102.169 134.744L93.7839 132.915L102.169 131.096L103.984 122.699L105.799 131.096L114.176 132.915Z" fill="#B5E8EE" stroke="black" stroke-width="1.5" stroke-linecap="round" stroke-linejoin="round"/>
<path d="M83.2174 143.551C83.2174 139.459 79.9026 136.136 75.8208 136.136C75.4544 136.136 75.1135 136.196 74.7641 136.247C75.4203 135.136 75.8208 133.864 75.8208 132.48C75.8208 128.388 72.5059 125.065 68.4242 125.065C68.4242 120.973 65.1093 117.65 61.0275 117.65C56.9458 117.65 53.6309 120.973 53.6309 125.065C49.5491 125.065 46.2343 128.388 46.2343 132.48C46.2343 133.864 46.6348 135.145 47.2909 136.247C46.9416 136.196 46.5922 136.136 46.2343 136.136C42.1525 136.136 38.8376 139.459 38.8376 143.551C38.8376 145.891 39.9454 147.959 41.6412 149.317C40.6442 150.581 40.0221 152.153 40.0221 153.896C40.0221 157.987 43.337 161.31 47.4188 161.31C47.8874 161.31 48.3391 161.259 48.7822 161.174C48.7822 161.216 48.7652 161.268 48.7652 161.31C48.7652 165.402 52.08 168.725 56.1618 168.725C58.0365 168.725 59.7238 168.008 61.0275 166.854C62.3313 168.008 64.0186 168.725 65.8933 168.725C69.9751 168.725 73.2899 165.402 73.2899 161.31C73.2899 161.259 73.2729 161.216 73.2729 161.174C73.716 161.259 74.1676 161.31 74.6363 161.31C78.7181 161.31 82.0329 157.987 82.0329 153.896C82.0329 152.161 81.4109 150.581 80.4139 149.317C82.1096 147.959 83.2174 145.891 83.2174 143.551Z" fill="#00AD8D" stroke="black" stroke-width="1.5" stroke-linecap="round" stroke-linejoin="round"/>
</g>
<defs>
<clipPath id="clip0_102_7116">
<rect width="268" height="285" fill="white" transform="translate(16 8)"/>
</clipPath>
</defs>
</svg>
