<?xml version="1.0" encoding="UTF-8"?>
<svg xmlns="http://www.w3.org/2000/svg" version="1.1" viewBox="0 0 120 105">
  <defs>
    <style>
      .cls-1 {
        fill: #ff8a7a;
      }
    </style>
  </defs>
  <!-- Generator: Adobe Illustrator 28.6.0, SVG Export Plug-In . SVG Version: 1.2.0 Build 709)  -->
  <g>
    <g id="_레이어_1" data-name="레이어_1">
      <path class="cls-1" d="M29.8.2c2.1-.3,4.5-.2,6.6,0,9.8,1.2,17.8,6.7,23.8,14.7,2.8-3.6,5.9-6.7,9.6-9.2,7.2-4.9,15.9-6.7,24.3-4.8,8.4,1.9,15.8,7.5,20.4,15.1,5.2,8.6,6.7,19.1,4.6,29.1-4.1,19.3-20.5,27.9-35,37.7-9.4,6.6-17,12.5-23.6,22.2-2.1-3.1-4.2-6.1-6.7-8.8-10.4-11.3-24.4-17.2-36.1-26.6C8.4,62.1,1.8,52.6.3,40.3-.9,30.9,1.7,20.8,7.2,13.4,12.9,5.8,20.8,1.3,29.8.2Z"/>
    </g>
  </g>
</svg>