<?xml version="1.0" encoding="UTF-8"?>
<svg id="_레이어_1" data-name="레이어 1" xmlns="http://www.w3.org/2000/svg" xmlns:xlink="http://www.w3.org/1999/xlink" version="1.1" viewBox="0 0 465 465">
  <defs>
    <style>
      .cls-1 {
        stroke: #463d37;
        stroke-linecap: round;
        stroke-linejoin: round;
        stroke-width: 1.2px;
      }

      .cls-1, .cls-2, .cls-3 {
        fill: none;
      }

      .cls-4 {
        fill: #f5bb24;
      }

      .cls-4, .cls-2, .cls-5, .cls-6, .cls-7, .cls-8, .cls-9, .cls-10, .cls-11, .cls-12, .cls-13, .cls-14 {
        stroke-width: 0px;
      }

      .cls-15 {
        clip-path: url(#clippath);
      }

      .cls-5 {
        fill: #f8cbc6;
      }

      .cls-16 {
        clip-path: url(#clippath-1);
      }

      .cls-6 {
        fill: #b2b2b2;
      }

      .cls-7 {
        fill: #568499;
      }

      .cls-8 {
        fill: #463d37;
      }

      .cls-3 {
        stroke: #b4e0f2;
        stroke-miterlimit: 10;
        stroke-width: .2px;
      }

      .cls-9 {
        fill: #f6e571;
      }

      .cls-10 {
        fill: #a0a0a0;
      }

      .cls-17 {
        opacity: .6;
      }

      .cls-11 {
        fill: #4b7284;
      }

      .cls-12 {
        fill: #382d23;
      }

      .cls-13 {
        fill: #fff;
      }

      .cls-14 {
        fill: #46bfe3;
      }
    </style>
    <clipPath id="clippath">
      <rect class="cls-2" x="0" width="465" height="465"/>
    </clipPath>
    <clipPath id="clippath-1">
      <rect class="cls-2" x="-230.6" y="-302" width="923" height="1138.1"/>
    </clipPath>
  </defs>
  <rect class="cls-6" width="465" height="465"/>
  <rect class="cls-14" x="0" width="465" height="465"/>
  <g class="cls-15">
    <g class="cls-17">
      <g class="cls-16">
        <line class="cls-3" x1="10.9" y1="-301.9" x2="10.9" y2="835.7"/>
        <line class="cls-3" x1="25.1" y1="-301.9" x2="25.1" y2="835.7"/>
        <line class="cls-3" x1="39.3" y1="-301.9" x2="39.3" y2="835.7"/>
        <line class="cls-3" x1="53.5" y1="-301.9" x2="53.5" y2="835.7"/>
        <line class="cls-3" x1="67.7" y1="-301.9" x2="67.7" y2="835.7"/>
        <line class="cls-3" x1="81.9" y1="-301.9" x2="81.9" y2="835.7"/>
        <line class="cls-3" x1="96.1" y1="-301.9" x2="96.1" y2="835.7"/>
        <line class="cls-3" x1="110.3" y1="-301.9" x2="110.3" y2="835.7"/>
        <line class="cls-3" x1="124.5" y1="-301.9" x2="124.5" y2="835.7"/>
        <line class="cls-3" x1="138.7" y1="-301.9" x2="138.7" y2="835.7"/>
        <line class="cls-3" x1="152.9" y1="-301.9" x2="152.9" y2="835.7"/>
        <line class="cls-3" x1="167.1" y1="-301.9" x2="167.1" y2="835.7"/>
        <line class="cls-3" x1="181.3" y1="-301.9" x2="181.3" y2="835.7"/>
        <line class="cls-3" x1="195.5" y1="-301.9" x2="195.5" y2="835.7"/>
        <line class="cls-3" x1="209.6" y1="-301.9" x2="209.6" y2="835.7"/>
        <line class="cls-3" x1="223.8" y1="-301.9" x2="223.8" y2="835.7"/>
        <line class="cls-3" x1="238" y1="-301.9" x2="238" y2="835.7"/>
        <line class="cls-3" x1="252.2" y1="-301.9" x2="252.2" y2="835.7"/>
        <line class="cls-3" x1="266.4" y1="-301.9" x2="266.4" y2="835.7"/>
        <line class="cls-3" x1="280.6" y1="-301.9" x2="280.6" y2="835.7"/>
        <line class="cls-3" x1="294.8" y1="-301.9" x2="294.8" y2="835.7"/>
        <line class="cls-3" x1="309" y1="-301.9" x2="309" y2="835.7"/>
        <line class="cls-3" x1="323.2" y1="-301.9" x2="323.2" y2="835.7"/>
        <line class="cls-3" x1="337.4" y1="-301.9" x2="337.4" y2="835.7"/>
        <line class="cls-3" x1="351.6" y1="-301.9" x2="351.6" y2="835.7"/>
        <line class="cls-3" x1="365.8" y1="-301.9" x2="365.8" y2="835.7"/>
        <line class="cls-3" x1="380" y1="-301.9" x2="380" y2="835.7"/>
        <line class="cls-3" x1="394.2" y1="-301.9" x2="394.2" y2="835.7"/>
        <line class="cls-3" x1="408.4" y1="-301.9" x2="408.4" y2="835.7"/>
        <line class="cls-3" x1="422.6" y1="-301.9" x2="422.6" y2="835.7"/>
        <line class="cls-3" x1="436.8" y1="-301.9" x2="436.8" y2="835.7"/>
        <line class="cls-3" x1="451" y1="-301.9" x2="451" y2="835.7"/>
        <line class="cls-3" x1="-230.4" y1="11" x2="692.3" y2="11"/>
        <line class="cls-3" x1="-230.4" y1="25.3" x2="692.3" y2="25.3"/>
        <line class="cls-3" x1="-230.4" y1="39.5" x2="692.3" y2="39.5"/>
        <line class="cls-3" x1="-230.4" y1="53.7" x2="692.3" y2="53.7"/>
        <line class="cls-3" x1="-230.4" y1="67.9" x2="692.3" y2="67.9"/>
        <line class="cls-3" x1="-230.4" y1="82.2" x2="692.3" y2="82.2"/>
        <line class="cls-3" x1="-230.4" y1="96.4" x2="692.3" y2="96.4"/>
        <line class="cls-3" x1="-230.4" y1="110.6" x2="692.3" y2="110.6"/>
        <line class="cls-3" x1="-230.4" y1="124.8" x2="692.3" y2="124.8"/>
        <line class="cls-3" x1="-230.4" y1="139.1" x2="692.3" y2="139.1"/>
        <line class="cls-3" x1="-230.4" y1="153.3" x2="692.3" y2="153.3"/>
        <line class="cls-3" x1="-230.4" y1="167.5" x2="692.3" y2="167.5"/>
        <line class="cls-3" x1="-230.4" y1="181.7" x2="692.3" y2="181.7"/>
        <line class="cls-3" x1="-230.4" y1="195.9" x2="692.3" y2="195.9"/>
        <line class="cls-3" x1="-230.4" y1="210.2" x2="692.3" y2="210.2"/>
        <line class="cls-3" x1="-230.4" y1="224.4" x2="692.3" y2="224.4"/>
        <line class="cls-3" x1="-230.4" y1="238.6" x2="692.3" y2="238.6"/>
        <line class="cls-3" x1="-230.4" y1="252.8" x2="692.3" y2="252.8"/>
        <line class="cls-3" x1="-230.4" y1="267.1" x2="692.3" y2="267.1"/>
        <line class="cls-3" x1="-230.4" y1="281.3" x2="692.3" y2="281.3"/>
        <line class="cls-3" x1="-230.4" y1="295.5" x2="692.3" y2="295.5"/>
        <line class="cls-3" x1="-230.4" y1="309.7" x2="692.3" y2="309.7"/>
        <line class="cls-3" x1="-230.4" y1="324" x2="692.3" y2="324"/>
        <line class="cls-3" x1="-230.4" y1="338.2" x2="692.3" y2="338.2"/>
        <line class="cls-3" x1="-230.4" y1="352.4" x2="692.3" y2="352.4"/>
        <line class="cls-3" x1="-230.4" y1="366.6" x2="692.3" y2="366.6"/>
        <line class="cls-3" x1="-230.4" y1="380.8" x2="692.3" y2="380.8"/>
        <line class="cls-3" x1="-230.4" y1="395.1" x2="692.3" y2="395.1"/>
        <line class="cls-3" x1="-230.4" y1="409.3" x2="692.3" y2="409.3"/>
        <line class="cls-3" x1="-230.4" y1="423.5" x2="692.3" y2="423.5"/>
        <line class="cls-3" x1="-230.4" y1="437.7" x2="692.3" y2="437.7"/>
        <line class="cls-3" x1="-230.4" y1="452" x2="692.3" y2="452"/>
      </g>
    </g>
    <path class="cls-4" d="M371.7,41.5c7.1.4,15.7,2.5,24.5,6.4,8.8,3.9,16.2,8.9,21.2,13.9l11.4,5.1-4.9,10.9c-3.6,8.1-21.9,7.8-40.8-.6-18.9-8.4-31.3-21.8-27.7-29.9l4.9-10.9,11.4,5.1Z"/>
    <path class="cls-9" d="M416.6,82.7h0c.5.2,1,0,1.3-.5l5-11.3c.2-.5,0-1-.5-1.3-.5-.2-1,0-1.3.5l-5,11.3c-.2.5,0,1,.5,1.3"/>
    <path class="cls-9" d="M406.9,83.4h0c.5.2,1,0,1.3-.5l5-11.3c.2-.5,0-1-.5-1.3-.5-.2-1,0-1.3.5l-5,11.3c-.2.5,0,1,.5,1.3"/>
    <path class="cls-9" d="M398,82.2h0c.5.2,1,0,1.3-.5l5-11.3c.2-.5,0-1-.5-1.3-.5-.2-1,0-1.3.5l-5,11.3c-.2.5,0,1,.5,1.3"/>
    <path class="cls-9" d="M389.7,79.8h0c.5.2,1,0,1.3-.5l5-11.3c.2-.5,0-1-.5-1.3-.5-.2-1,0-1.3.5l-5,11.3c-.2.5,0,1,.5,1.3"/>
    <path class="cls-9" d="M355.8,52.9h0c-.5-.2-.7-.8-.5-1.3l5-11.3c.2-.5.8-.7,1.3-.5.5.2.7.8.5,1.3l-5,11.3c-.2.5-.8.7-1.3.5"/>
    <path class="cls-9" d="M360,60.7h0c-.5-.2-.7-.8-.5-1.3l5-11.3c.2-.5.8-.7,1.3-.5.5.2.7.8.5,1.3l-5,11.3c-.2.5-.8.7-1.3.5"/>
    <path class="cls-9" d="M366.6,67h0c-.5-.2-.7-.8-.5-1.3l5-11.3c.2-.5.8-.7,1.3-.5.5.2.7.8.5,1.3l-5,11.3c-.2.5-.8.7-1.3.5"/>
    <path class="cls-9" d="M373.7,72.1h0c-.5-.2-.7-.8-.5-1.3l5-11.3c.2-.5.8-.7,1.3-.5.5.2.7.8.5,1.3l-5,11.3c-.2.5-.8.7-1.3.5"/>
    <path class="cls-9" d="M381.7,76.6h0c.5.2,1,0,1.3-.5l5-11.3c.2-.5,0-1-.5-1.3-.5-.2-1,0-1.3.5l-5,11.3c-.2.5,0,1,.5,1.3"/>
    <path class="cls-9" d="M360.7,35.6c-3.6,8.1,8.8,21.5,27.7,29.9,18.9,8.4,37.2,8.7,40.8.6,3.6-8.1-8.8-21.5-27.7-29.9-18.9-8.4-37.2-8.7-40.8-.6"/>
    <path class="cls-4" d="M421.6,62.2c2.7-6-7.3-16.4-22.4-23.6.6.3,1.3.5,1.9.8,16.2,7.2,27.1,18.2,24.3,24.5-2.8,6.3-18.2,5.5-34.5-1.7-.6-.3-1.3-.6-1.9-.9,15.5,6.4,29.8,6.9,32.5.9"/>
    <path class="cls-4" d="M383.4,33.8s-19.3-3.5-16.7,11.2c0,0-8.7-16.8,16.7-11.2"/>
    <path class="cls-4" d="M382.3,44.8c-.4-.2-.9-.4-1.5-.6-.5-.2-1-.4-1.5-.6l1-2.2c.4.2.8.4,1.3.6.5.2,1,.5,1.4.6l.3-5.9,4.3,1.9-.4,5.9,3.9,1.7,3.7-4.4,5.1,2.3-.8,5.7,3.9,1.7,4.1-4.2,4.3,1.9-4.2,4.2c.4.2.9.4,1.4.6.5.2.9.4,1.3.5l-1,2.2c-.4-.2-.9-.4-1.4-.7-.6-.3-1-.5-1.5-.7l-.5-.2-6.8,6.7-4.9-2.2,1.2-9.2-1.7-.8-6.1,7-4.9-2.2.5-9.6-.5-.2ZM401.4,53.3l-2.6-1.2-.6,4.5,3.2-3.3ZM395.5,47.2l-.7.8.5.2v-1ZM389.5,48l-2.6-1.2-.3,4.6,2.9-3.4Z"/>
    <path class="cls-13" d="M283.6,343.9c-.2,2.1-1.1,5.2-2.2,9.2-2,7.1-4.7,16.8-5.3,26.9-1,18.7,2.6,76,6.3,114.8h22.3c-.8-17.7-1.5-35.7-2-53.4,0-.4.3-.7.6-.7.4,0,.7.3.7.6.5,17.7,1.2,35.7,2,53.4h24c.4-10.8.7-24.4.9-41.8,0-2.3,0-3.9,0-4.4.2-7.3,1.1-16.9,2-26.3.5-5.5,1-10.7,1.3-15.1.4-5.4.3-8.4.1-11.3-.1-3.2-.3-6.2.3-12.2,0-.3.3-.6.6-.6.4,0,.6.2.7.6,1.8,13.2,2.7,44.1,3.6,73.9.4,12.7.7,25.6,1.2,37.2h26.1c-.7-31.5-.7-63.3,0-94.8,0-.4.3-.6.6-.6h0c.4,0,.6.3.6.7-.7,31.4-.7,63.3,0,94.8h25.3c0-5.2-.1-10.7-.2-16.1-.3-24.8-.5-48.2-.2-51.5.3-3.5,0-8.1-.3-12.6-.3-4.5-.6-9.2-.3-12.8,1-10.2,1.9-24.9,2.1-34.3.4-15-.5-19.4-1.5-24.9-.5-2.5-1-5.3-1.5-9.4,0,0,0,0,0,0l-106.9-1.8s0,0,0,0l-1.3,12.5Z"/>
    <path class="cls-8" d="M395.4,367.6c-.2,9.8-1.2,24.5-2.1,34.3-.7,7,1.3,18.3.6,25.4-.4,4,0,39.3.4,67.6h.6c0-5.2-.1-10.6-.2-16.1-.3-23.7-.5-48.2-.2-51.4.3-3.6,0-8.3-.3-12.8-.3-4.5-.6-9.1-.3-12.6,1-10.2,1.9-25,2.1-34.4.4-15.1-.5-19.6-1.6-25.2-.5-2.5-1-5.2-1.5-9.3,0-.4-.4-.6-.7-.6-.3,0-.6.3-.6.6h.6c1.5,13,3.6,12.5,3,34.4"/>
    <path class="cls-8" d="M335.5,383.8c-1.1,11.4.3,11.9-.5,23.5-.8,11.6-3,29.7-3.3,41.3,0,2.6-.2,25-1,46.2h.6c.4-10.8.7-24.5.9-41.8,0-2.3,0-3.8,0-4.4.2-7.3,1.1-16.9,2-26.2.5-5.5,1-10.7,1.3-15.1.4-5.5.3-8.5.1-11.4,0-1.4-.1-2.7-.1-4.2,1.3,15.4,2,41,2.8,65.9.4,12.7.7,25.6,1.2,37.2h.6c-1.5-38.8-2.2-92.3-4.8-111.1"/>
    <path class="cls-8" d="M275.4,380c.9-15.6,6.9-30.2,7.5-36.1.4-4.2.9-8.3,1.3-12.5h.6c0-.3-.2-.6-.6-.6-.4,0-.7.2-.7.6l-1.3,12.5c-.2,2-1.1,5.1-2.2,9-2,7.1-4.8,16.9-5.3,27.2-1,18.7,2.6,76,6.3,114.9h.6c-3.8-39.1-7.3-96.4-6.3-114.9"/>
    <path class="cls-8" d="M339.7,457.6c-.9-29.8-1.8-60.7-3.6-73.9,0-.3-.3-.6-.7-.6-.3,0-.6.3-.6.6-.6,6-.5,9.1-.3,12.2.1,2.9.2,5.8-.1,11.3-.3,4.3-.8,9.5-1.3,15.1-.9,9.3-1.8,19-2,26.3,0,.6,0,2.1,0,4.4-.2,17.4-.5,31.1-.9,41.8h.7c.7-21.2.9-43.7,1-46.2.3-11.6,2.5-29.7,3.3-41.3s-.7-12.1.5-23.5c2.6,18.8,3.3,72.3,4.8,111.1h.6c-.5-11.6-.8-24.5-1.2-37.2"/>
    <path class="cls-8" d="M282.9,343.9c-.6,5.9-6.7,20.5-7.5,36.1-1,18.4,2.5,75.8,6.3,114.9h.7c-3.7-38.8-7.3-96.1-6.3-114.8.5-10.1,3.3-19.8,5.3-26.9,1.1-4,2-7.1,2.2-9.2l1.3-12.5s0,0,0,0h-.6c-.4,4.1-.9,8.3-1.3,12.5"/>
    <path class="cls-8" d="M393.2,342.7c1.1,5.6,1.9,9.9,1.5,24.9-.2,9.4-1.2,24.1-2.1,34.3-.3,3.6,0,8.3.3,12.8.3,4.5.6,9.1.3,12.6-.3,3.3,0,26.7.2,51.5,0,5.4.1,10.9.2,16.1h.6c-.3-28.2-.8-63.6-.4-67.6.7-7-1.3-18.3-.6-25.4.9-9.8,1.9-24.5,2.1-34.3.6-21.9-1.5-21.4-3-34.4h-.6s0,0,0,0c.5,4.1,1,6.9,1.5,9.4"/>
    <path class="cls-8" d="M304,441.4c0-.4-.3-.6-.7-.6-.4,0-.6.3-.6.7.5,17.7,1.2,35.7,2,53.4h1.3c-.8-17.7-1.5-35.7-2-53.4"/>
    <path class="cls-8" d="M368.3,400.1c0-.4-.3-.7-.6-.7h0c-.3,0-.6.3-.6.6-.7,31.5-.7,63.3,0,94.8h1.3c-.7-31.5-.7-63.3,0-94.8"/>
    <polyline class="cls-13" points="335.6 188 345.2 183.6 351.9 170.2 351.6 169.5 335.2 169.5"/>
    <path class="cls-8" d="M335.6,188.7c-.2,0-.5-.1-.6-.4-.1-.3,0-.7.3-.9l9.4-4.3,6.5-12.9h0s-16,0-16,0c-.4,0-.6-.3-.6-.6s.3-.6.6-.6h16.4c.3,0,.5.1.6.4l.3.7c0,.2,0,.4,0,.6l-6.7,13.4c0,.1-.2.2-.3.3l-9.6,4.4c0,0-.2,0-.3,0"/>
    <polyline class="cls-13" points="330.9 188 321.3 183.6 314.6 170.2 314.9 169.5 331.3 169.5"/>
    <path class="cls-8" d="M330.9,188.7c0,0-.2,0-.3,0l-9.6-4.4c-.1,0-.2-.2-.3-.3l-6.7-13.4c0-.2,0-.4,0-.6l.3-.7c.1-.2.3-.4.6-.4h16.4c.4,0,.6.3.6.6s-.3.6-.6.6h-16s6.5,12.9,6.5,12.9l9.4,4.3c.3.1.5.5.3.9-.1.2-.3.4-.6.4"/>
    <path class="cls-7" d="M310.2,174.4c-11.1,2.2-22.2,4.3-33.2,6.9-4.5,1.1-9,2.2-12.9,4.5-3.7,2.2-6.8,5.3-9.5,8.6-8.6,10.7-13.6,23.7-18.5,36.6-2.1,5.6-4.3,11.3-4.4,17.3,0,3.5.5,7.1-1,10.3-.4.9-1,1.7-1.1,2.7,0,1.6,1.2,2.9,2.7,3.4,1.5.4,1.7,2.2,3.2,1.9,11.8-2.4,24.2-10.1,35.9-13.1,15.6-4,32.3-3.3,47.4-9,1.9-.7,3.8-1.6,5.8-2,3.9-.9,7.9-.2,11.9.4,18.6,2.9,37.3,4.8,56,5.9,1.4,0,2.9.1,4.2-.5,1.4-.7,2.3-2.3,2.9-3.7,5.2-11.3,0-47.5-5-58.9"/>
    <path class="cls-8" d="M235.2,267.3c-.9,0-1.5-.6-1.9-1.1-.3-.4-.7-.7-1.1-.9-1.6-.5-3.3-2.1-3.2-4,0-.9.4-1.6.8-2.4.1-.2.2-.4.3-.6,1.1-2.2,1-4.8,1-7.5,0-.8,0-1.7,0-2.5.1-6.2,2.3-11.9,4.4-17.5,4.8-12.7,9.8-25.9,18.6-36.7,3.3-4,6.3-6.8,9.6-8.8,4-2.3,8.5-3.5,13.1-4.6,11-2.6,22.3-4.8,33.2-6.9l.3,1.3h0c-10.9,2.1-22.2,4.3-33.2,6.9-4.6,1.1-9,2.2-12.8,4.5-3.2,1.9-6.1,4.5-9.3,8.4-8.6,10.7-13.6,23.7-18.4,36.4-2.1,5.5-4.2,11.2-4.4,17.1,0,.8,0,1.7,0,2.5,0,2.7.1,5.5-1.1,8-.1.2-.2.4-.3.7-.3.6-.6,1.2-.7,1.8,0,1.3,1.1,2.3,2.3,2.7.8.2,1.3.8,1.7,1.3.5.6.7.7,1.2.7,6.2-1.3,12.8-4.1,19.1-6.8,5.5-2.4,11.3-4.9,16.8-6.3,6.6-1.7,13.5-2.5,20.1-3.4,9.1-1.1,18.5-2.3,27.2-5.6.4-.2.8-.3,1.2-.5,1.5-.6,3-1.2,4.7-1.6,4-.9,8-.3,12,.3h.2c18.5,2.9,37.3,4.9,55.9,5.9,1.2,0,2.7.1,3.8-.4,1.2-.7,2-2,2.6-3.4,5.2-11.3-.2-47.6-5-58.3l1.2-.5c5,11.2,10.4,47.6,4.9,59.4-.7,1.6-1.6,3.2-3.2,4-1.5.8-3.2.7-4.5.6-18.7-1-37.6-3-56.1-5.9h-.2c-3.8-.6-7.8-1.2-11.5-.4-1.5.3-3,.9-4.5,1.5-.4.2-.8.3-1.2.5-8.8,3.4-18.3,4.6-27.5,5.7-6.6.8-13.5,1.7-20,3.3-5.4,1.4-11.1,3.8-16.6,6.2-6.4,2.7-12.9,5.6-19.3,6.9-.2,0-.3,0-.5,0"/>
    <path class="cls-5" d="M417.9,344.9c1,2.6,4.9,8.5,5.3,10.9.4,2.4.7,4.9.1,7.3-.7,2.6-4,9-5.7,11-1,1.2-2.1,2.5-3.5,3.2-1.7.9-8.2,1.7-11.4,1.7-.7,0-1.5,0-2.1-.6-.9-.9-.6-2.4-.2-3.6,3.5-13,3.8-26.8,4.1-40.3"/>
    <path class="cls-8" d="M403,379.6c0,0-.2,0-.2,0-.7,0-1.8,0-2.5-.8-1.2-1.2-.6-3.3-.4-4.2,3.5-13,3.8-26.8,4-40.2,0-.4.3-.6.6-.6h0c.4,0,.6.3.6.7-.3,13.4-.5,27.3-4.1,40.5-.3,1.1-.5,2.4,0,3,.4.4.9.4,1.6.4,3.3,0,9.6-.9,11.1-1.6,1.3-.7,2.3-1.9,3.3-3,1.6-1.9,4.9-8.2,5.6-10.7.6-2.3.2-4.8-.2-7.1-.2-1.3-1.7-3.9-2.9-6.2-1-1.7-1.9-3.4-2.3-4.5-.1-.3,0-.7.4-.8.3-.1.7,0,.8.4.4,1,1.3,2.6,2.2,4.3,1.4,2.5,2.9,5.2,3.1,6.7.4,2.4.8,5,.1,7.6-.7,2.8-4.2,9.3-5.8,11.3-1,1.2-2.2,2.6-3.7,3.4-1.8.9-8.3,1.8-11.4,1.8"/>
    <path class="cls-5" d="M399.6,334c-.4,6.8-2.7,28.3-3,35.1,0,1.6-.1,3.3.7,4.6.9,1.5,2.8,2,4.4,2.1.4,0,.9,0,1.3-.3.4-.3.6-.8.7-1.3.4-1.2.9-2.5,1.3-3.7,1-2.8,2.1-5.9,1.5-8.8"/>
    <path class="cls-8" d="M401.9,376.5c0,0-.1,0-.2,0-2.3,0-4-.9-4.9-2.4-.9-1.4-.9-3.1-.8-4.9.2-3.8.9-12.1,1.7-20.1.6-6.2,1.1-12,1.3-15,0-.4.3-.6.7-.6.4,0,.6.3.6.7-.2,3-.7,8.9-1.3,15-.7,8-1.5,16.3-1.7,20.1,0,1.6,0,3.1.6,4.2.9,1.4,2.6,1.7,3.9,1.8.3,0,.7,0,.9-.2.2-.2.4-.6.5-1l1.3-3.7c.9-2.5,2-5.6,1.4-8.5,0-.3.2-.7.5-.8.3,0,.7.2.8.5.6,3.2-.5,6.5-1.5,9.2l-1.3,3.7c-.2.5-.4,1.2-1,1.6-.5.3-1,.4-1.5.4"/>
    <path class="cls-8" d="M410.9,366.1c-.1,0-.3,0-.4-.1-.6-.5-1.6-.9-2.3-1.1-.2,0-.4-.3-.4-.5,0-.2,0-.5.3-.6,2.1-1.4,4.5-1.9,6.9-1.5.4,0,.6.4.5.7,0,.4-.4.6-.7.5-1.6-.3-3.3,0-4.8.7.5.2,1,.5,1.4.8.3.2.3.6,0,.9-.1.2-.3.2-.5.2"/>
    <path class="cls-7" d="M381.3,247.3c6.6,30.7,8.6,43.3,14.7,74.1,1.3,6.5-.3,23.4,2.6,29.2.3.5.6,1.1,1.1,1.4.6.3,1.3.3,1.9.3,3.6-.2,15.5,0,19-.8.7-.2,1.4-.4,1.8-.9.4-.6.5-1.4.4-2.1-.1-5.4.6-27,1.3-32.4.8-6.3-.5-15,.2-21.3.5-3.9,1-7.7,1.3-11.6.9-11.3-3.9-19.6-4.6-30.9-1.7-27.4,1.8-31.5-10.4-56.1-.8-1.6-1.7-3.3-3-4.6-1.8-1.8-4.2-2.8-6.5-3.7-10.7-4.2-28.7-7.6-39.4-11.8l-13.2-2.6h-12"/>
    <path class="cls-8" d="M401.2,353c-.6,0-1.2,0-1.8-.4-.6-.4-1-1-1.3-1.6-1.9-3.7-2-11.6-2.1-18.5,0-4.3-.1-8.4-.6-10.9-2-10.1-3.6-18.4-4.9-25.7-2.9-15.5-5.3-27.7-9.7-48.4l1.3-.3c4.5,20.7,6.8,32.9,9.7,48.4,1.4,7.3,3,15.6,4.9,25.7.5,2.6.6,6.7.6,11.1,0,6.8.2,14.5,2,17.9.2.5.5.9.8,1.1.4.2,1,.2,1.6.2,1.1,0,2.8,0,4.9,0,4.9,0,11.6-.1,14-.7.6-.1,1.2-.3,1.5-.7.3-.4.3-1,.3-1.7-.1-5.6.6-27.2,1.3-32.5.4-3.1.2-6.9.1-10.5-.1-3.7-.3-7.6.1-10.8.5-3.8,1-7.7,1.3-11.6.5-6.4-.8-11.7-2.2-17.4-1-4.2-2.1-8.5-2.4-13.4-.4-6.4-.5-11.5-.6-16-.3-14.5-.5-21.1-9.8-39.8-.8-1.6-1.6-3.2-2.9-4.4-1.7-1.7-4.2-2.7-6.3-3.5-5.3-2.1-12.6-4-19.6-5.9-7-1.9-14.3-3.8-19.7-5.9l-13.1-2.6h-11.9v-1.3h12.1s13.3,2.7,13.3,2.7c5.3,2.1,12.6,4,19.6,5.9,7.1,1.9,14.4,3.8,19.8,5.9,2.3.9,4.9,1.9,6.8,3.8,1.4,1.4,2.2,3,3.1,4.8,9.4,19,9.6,25.7,9.9,40.4,0,4.5.2,9.6.6,16,.3,4.8,1.3,9.1,2.4,13.2,1.4,5.8,2.7,11.2,2.2,17.8-.3,3.9-.8,7.8-1.3,11.6-.4,3.1-.3,6.9-.1,10.6.1,3.7.3,7.6-.1,10.8-.7,5.2-1.4,26.8-1.3,32.3,0,.7,0,1.7-.6,2.5-.6.7-1.4,1-2.2,1.1-2.5.6-9.3.7-14.3.7-2,0-3.8,0-4.8,0-.2,0-.3,0-.5,0"/>
    <path class="cls-13" d="M396.4,339.2c7.5.3,18.1-.7,25.6-.4.3,0,.7,0,.9.2.4.3.5.7.5,1.2.6,4,.6,8.1,0,12,0,.6-.2,1.2-.7,1.6-.4.3-.8.3-1.3.4-8.3.8-16.6.7-24.9-.3-.2,0-.4,0-.5-.2-.1-.1-.2-.4-.2-.6-.2-2.5.8-8.8.6-11.3v-2.6Z"/>
    <path class="cls-8" d="M410.4,355.4c-4.7,0-9.3-.3-14-.8-.2,0-.6,0-.9-.4-.3-.3-.4-.8-.4-1-.1-1.3,0-3.5.3-5.8.2-2.1.4-4.3.3-5.5v-2.6c0-.2,0-.3.2-.5.1-.1.3-.2.5-.2,3.7.2,8.3,0,12.7-.2,4.5-.2,9.1-.4,12.8-.2.3,0,.8,0,1.3.3.6.4.7,1.2.8,1.6.6,4.1.6,8.2,0,12.2,0,.5-.2,1.5-1,2-.5.4-1.1.5-1.6.5-3.7.3-7.4.5-11,.5M396.4,353.2c0,0,.1,0,.1,0,8.2,1,16.5,1.1,24.7.3.4,0,.7,0,.9-.2.3-.2.4-.7.5-1.2.6-3.9.6-7.9,0-11.8,0-.2,0-.6-.3-.7-.1,0-.4,0-.6-.1-3.7-.2-8.3,0-12.7.2-4.2.2-8.5.4-12.2.2v1.9c.1,1.3,0,3.4-.3,5.7-.2,2.1-.4,4.4-.3,5.5,0,0,0,.1,0,.2M396.5,353.3h0,0Z"/>
    <path class="cls-7" d="M276.6,237.3c-3,10.7-1,22-.9,33.1.1,14.9-2,53-1.9,67.9,0,1.2-.9,5-.4,6.1.4.9,1,1.7,1.7,2.5,3.9,4.3.1,10.8,5.5,12.9,6.3,2.5,29.2-2.2,36-1.7,24.5,2,54.2,2.3,78.8,1.7,1.9-19.9-.9-36.4-2.5-52.3-.8-7.5,2.1-31.5,2.2-35.6.9-30.5-.5-28.4-2.7-40.9"/>
    <path class="cls-8" d="M286.6,361.1c-2.6,0-4.8-.2-6.2-.8-3.3-1.3-3.6-4.2-3.8-6.9-.2-2.2-.4-4.4-2-6.2-.7-.7-1.4-1.6-1.8-2.7-.3-.8-.1-2.3.2-4.4.1-.8.2-1.6.2-1.9,0-7.5.4-20.9.9-34,.5-13,1-26.5.9-33.9,0-3.1-.2-6.2-.4-9.3-.4-8-.9-16.2,1.3-24l1.2.3c-2.1,7.6-1.7,15.7-1.2,23.6.2,3.1.3,6.2.4,9.3,0,7.5-.4,20.9-.9,34-.5,13-1,26.5-.9,33.9,0,.5-.1,1.2-.2,2.1-.2,1.3-.5,3.2-.2,3.7.3.8.9,1.5,1.6,2.3,1.9,2.1,2.1,4.7,2.3,6.9.2,2.7.4,4.8,3,5.8,3.7,1.5,13.5.3,22.2-.7,5.8-.7,10.9-1.3,13.6-1,21.5,1.8,50,2.4,78.2,1.7,1.5-16-.1-29.7-1.6-43-.3-2.9-.7-5.7-.9-8.5-.5-5.3.7-18.9,1.5-27.8.3-3.7.6-6.7.7-7.9.8-24.4,0-27.8-1.5-34.7-.4-1.7-.8-3.6-1.2-6.1l1.3-.2c.4,2.5.8,4.4,1.2,6,1.5,6.9,2.2,10.4,1.5,35,0,1.3-.3,4.2-.7,8-.8,8.9-2.1,22.3-1.5,27.6.3,2.8.6,5.6.9,8.5,1.5,13.5,3.1,27.5,1.6,43.9v.6c0,0-.6,0-.6,0-28.4.8-57.2.2-78.9-1.7-2.6-.2-7.8.4-13.4,1-5.7.7-11.9,1.4-16.7,1.4"/>
    <path class="cls-5" d="M347,153.4c-.3,4.7-.2,9.6,1.2,14.2,1.4,4.6,4.2,9,8.6,12.2.3,0-1.2,11.1-21.5,11h-4.2c-11.6,0-19.6-3.4-19.7-11,2-1.4,5.6-4.8,6.9-10.1,1.6-6.5.6-15.2.4-17.8"/>
    <path class="cls-8" d="M335.4,191.5h-4.4c-13,0-20.1-4.1-20.3-11.7v-.3s.3-.2.3-.2c1.6-1.1,5.3-4.3,6.7-9.8,1.4-5.7.8-13,.5-16.5,0-.4,0-.8,0-1.1h1.3c0,.2,0,.6,0,1,.3,3.6.9,11.1-.5,16.9-1.4,5.6-5.1,8.9-6.9,10.3.4,8.7,12,10.1,19,10.1h4.4c10.5,0,15.7-3,18.2-5.6,1.9-1.9,2.4-3.8,2.6-4.4-4.1-3-7-7.2-8.6-12.3-1.6-5.3-1.5-10.7-1.2-14.4h1.3c-.4,5.8,0,10.1,1.2,14,1,3.4,3.3,8.3,8.3,11.8.2.1.3.3.3.7,0,.9-.8,3.8-4,6.4-4,3.4-10.1,5.1-18.1,5.1"/>
    <path class="cls-5" d="M306.4,129.1c-1.2-1.5-3-2.2-4.7-1.8-1.7.3-3.2,1.7-4,3.6-.8,1.9-.8,4.3-.2,6.3.6,2,1.8,3.7,3.1,5.1,1.2,1.3,2.6,2.4,4,3.3,1.1.6,2.3,1.2,3.3,2.1"/>
    <path class="cls-8" d="M307.5,148.2c-.7-.7-1.5-1.1-2.3-1.6-.3-.1-.5-.3-.8-.4-1.5-.9-2.9-2-4.2-3.4-1.6-1.7-2.6-3.5-3.2-5.4-.7-2.3-.6-4.8.2-6.7.9-2.1,2.6-3.6,4.5-4,1.9-.4,4,.4,5.3,2l-1,.8c-1-1.3-2.6-1.9-4-1.6-1.5.3-2.8,1.5-3.5,3.2-.7,1.7-.8,3.8-.1,5.9.5,1.7,1.5,3.3,2.9,4.9,1.2,1.3,2.5,2.3,3.9,3.1.2.1.5.3.8.4.9.5,1.9,1,2.7,1.8l-.9.9Z"/>
    <path class="cls-5" d="M359.4,129.5c1.2-1.5,3.1-2.2,4.7-1.8,1.7.4,3.1,1.8,3.8,3.7.7,2,.6,4.4-.1,6.4s-1.9,3.8-3.3,5.2c-1.3,1.3-2.7,2.4-4.2,3.3-1.2.6-2.4,1.2-3.4,2.2"/>
    <path class="cls-8" d="M357.5,148.8l-.9-.9c.8-.8,1.8-1.3,2.7-1.8.3-.1.5-.3.8-.4,1.5-.8,2.8-1.9,4-3.2,1.5-1.6,2.6-3.2,3.2-4.9.7-2.1.8-4.2.1-6-.6-1.7-1.9-3-3.4-3.3-1.4-.3-3,.3-4.1,1.6l-1-.8c1.4-1.7,3.5-2.4,5.4-2,1.9.4,3.5,2,4.3,4.1.7,2,.7,4.5-.1,6.8-.7,1.9-1.8,3.7-3.4,5.4-1.3,1.4-2.8,2.5-4.3,3.4-.3.1-.5.3-.8.4-.9.5-1.7.9-2.4,1.6"/>
    <path class="cls-5" d="M355.8,115.6c1,2.7,3.5,2.5,4.1,5.3.8,4,.7,6.7.2,10.7-.5,4.3-1.2,8.6-2.1,12.9-.6,3.1-1.8,8.3-3.5,11-2,3.3-5.2,5.9-8.6,7.9-3.5,2.1-4.5,3.5-8.6,4.3-2.4.5-5.4.7-7.8,0-2.2-.6-4.6-1.6-6.5-2.8-3.3-2.1-8.1-4.1-10.6-7-2.6-3-3.4-6.5-4.3-10.2-3-11.3-2.4-14.4-2.9-26,0,0,.1-3.1,1.6-5.7.9-1.7,3-2.8,3.7-4.2,2.5-5,4.5-12,18.1-11.8,23.9.3,25.7,11.4,27.2,15.6"/>
    <path class="cls-8" d="M332.9,168.8c-1.2,0-2.4-.1-3.6-.4-2.4-.7-4.8-1.7-6.7-2.9-1-.6-2.1-1.3-3.3-1.9-2.8-1.5-5.6-3.1-7.5-5.2-2.5-2.8-3.3-6.1-4.2-9.6l-.2-.9c-2.4-9.2-2.5-13.2-2.7-20.4,0-1.7,0-3.6-.2-5.7,0-.2.2-3.3,1.6-6.1.5-1,1.3-1.7,2.1-2.4.7-.6,1.3-1.2,1.6-1.8.2-.4.4-.9.7-1.4,2.3-4.9,5.2-10.9,18-10.7,22.7.3,26,10.3,27.5,15.1.1.3.2.7.3.9.4,1.1,1.1,1.6,1.9,2.2.9.7,1.9,1.4,2.3,3.1.8,4,.7,6.7.2,10.9-.5,4.3-1.2,8.6-2.1,12.9-.8,3.8-1.9,8.6-3.6,11.2-1.9,3-4.8,5.7-8.8,8.1-1,.6-1.8,1.1-2.5,1.6-1.8,1.2-3.3,2.2-6.3,2.8-1.3.3-2.9.5-4.5.5M328,100.6c-11.5,0-14.1,5.3-16.3,10-.2.5-.5.9-.7,1.4-.4.8-1.1,1.5-1.9,2.2-.7.7-1.4,1.3-1.9,2.1-1.3,2.5-1.5,5.4-1.5,5.5,0,2.1.1,4,.2,5.7.2,7.3.3,11,2.7,20.1l.2.9c.9,3.3,1.7,6.4,4,9,1.7,1.9,4.4,3.4,7.1,4.9,1.2.7,2.4,1.3,3.4,2,1.7,1.1,4,2.1,6.3,2.8,2.5.7,5.5.3,7.5,0,2.8-.6,4.1-1.4,5.9-2.6.7-.5,1.5-1,2.5-1.6,3.8-2.2,6.6-4.8,8.4-7.6,1.7-2.8,2.9-8.4,3.4-10.8.9-4.3,1.6-8.6,2.1-12.8.5-4.2.6-6.7-.2-10.5-.2-1.2-.9-1.7-1.8-2.4-.8-.6-1.8-1.3-2.3-2.8-.1-.3-.2-.6-.3-1-1.5-4.5-4.5-13.9-26.3-14.2-.2,0-.4,0-.5,0"/>
    <path class="cls-8" d="M345,131.8c-.1,1.4-1.2,2.4-2.4,2.3-1.2-.1-2.1-1.3-2-2.7.1-1.4,1.2-2.4,2.4-2.3s2.1,1.3,2,2.7"/>
    <path class="cls-8" d="M323.5,131.7c0,1.4-1,2.5-2.3,2.5-1.2,0-2.2-1.2-2.2-2.5,0-1.4,1-2.5,2.3-2.5,1.2,0,2.2,1.2,2.2,2.5"/>
    <path class="cls-8" d="M331.8,142.3c-.1,0-.3,0-.4-.1-1.2-.9-2.3-1.8-3.3-2.9-.2-.2-.5-.6-.5-1.1,0-.5.3-.9.5-1.2,2.4-2.9,3.6-6.7,3.1-10.4,0-.4.2-.7.6-.7.4,0,.7.2.7.6.5,4-.7,8.2-3.4,11.4,0,.1-.2.3-.2.4,0,0,0,.1.2.3.9,1,1.9,1.9,3,2.7.3.2.4.6.2.9-.1.2-.3.3-.5.3"/>
    <path class="cls-8" d="M339.6,123.4c-.2,0-.3,0-.4-.2-.3-.2-.3-.7,0-.9.7-.8,1.8-1.3,3.3-1.5,2.9-.5,6,0,8.6,1.3.3.2.4.6.3.9-.2.3-.6.4-.9.3-2.4-1.2-5.1-1.6-7.8-1.2-1.2.2-2.1.6-2.6,1.2-.1.1-.3.2-.5.2"/>
    <path class="cls-8" d="M313,123.2c-.2,0-.5-.1-.6-.4-.2-.3,0-.7.3-.9,2.8-1.4,6.2-1.6,9.1-.5.2,0,.7.3.8.8,0,.3-.1.7-.4.8-.3,0-.6,0-.8-.3,0,0,0,0,0,0-2.6-1-5.6-.8-8.1.5,0,0-.2,0-.3,0"/>
    <path class="cls-8" d="M332.6,153.4c-1.6,0-3.2-.1-4.8-.4-.4,0-.6-.4-.5-.7,0-.4.4-.6.7-.5,3,.5,6,.5,9,0,.4,0,.7.2.7.5,0,.4-.2.7-.5.7-1.5.2-3,.3-4.6.3"/>
    <path class="cls-8" d="M297.2,135.6c0,0-.1,0-.2,0-.3,0-.5-.4-.5-.8.3-1,1.4-2.4,2.3-2.9,1.5-.7,3.8-.6,5.3-.2.9.3,1.5.8,1.9,1.5.2.3,0,.7-.3.9-.3.2-.7,0-.9-.3-.2-.4-.6-.7-1.1-.8-1.2-.4-3.2-.5-4.3,0-.6.3-1.5,1.4-1.7,2.1,0,.3-.3.5-.6.5"/>
    <path class="cls-8" d="M368.4,133.7c-.3,0-.5-.2-.6-.4-.2-.7-1.1-1.7-1.8-2-1.2-.5-3.1-.3-4.3.2-.5.2-.9.5-1.1.9-.1.3-.5.5-.9.3-.3-.1-.5-.5-.3-.9.3-.7,1-1.3,1.8-1.6,1.5-.6,3.8-.8,5.3-.1,1,.4,2.1,1.7,2.5,2.8.1.3,0,.7-.4.8,0,0-.1,0-.2,0"/>
    <path class="cls-12" d="M310.8,109.7c-.4,2.8.9,5.8-.4,8.2-.5,1-1.4,1.8-2.2,2.7-2,2.2-3.3,4.9-3.7,7.8-.8-4.1-1.3-8.4-.5-12.5.8-4.1,3-8.1,6.7-10.3,2.7-1.6,5.9-2,9.1-2.3,7-.8,14-1.6,21-1.6,3.7,0,7.7.3,10.7,2.5.9.6,1.6,1.4,2.5,2,1.8,1.5,4,2.6,5.1,4.7.7,1.3,2.7,2.1,2.8,3.6.3,4.4-.4,9.2-1.2,13.5-.5-1.8-1.9-3.2-2.4-5-.2-.8-.5-1.6-.9-2.3-.4-.6-.9-1.1-1.5-1.6-1.3-1.2-2.6-2.4-3.9-3.6-1.8-1.7-3.8-3.5-6.1-4.3"/>
    <path class="cls-8" d="M402,209.5h0c-.4,0-.6-.3-.6-.6,0-4.9,0-11,3.2-15.7.8-1.1,2.1-2.2,3.4-1.5.3.2.4.5.3.9-.2.3-.5.4-.9.3-.6-.3-1.4.5-1.8,1.1-2.9,4.4-2.9,10.3-3,15,0,.4-.3.6-.6.6"/>
    <path class="cls-11" d="M308.2,102.2s4.8-18.4,9.3-22.4c.5-.4,1-2.5,13.8-2,1.8,0,11.6-2.2,15.8.4,5.5,3.3,10.9,25.2,10.9,25.2l-27.5,4.7-22.2-5.9Z"/>
    <path class="cls-8" d="M330.4,108.7l-23-6.1.2-.6c.2-.8,4.9-18.6,9.5-22.7,0,0,0,0,0,0,.6-.8,2.1-2.5,14.2-2.1.4,0,1.3-.1,2.3-.2,3.9-.5,10.3-1.4,13.7.7,5.7,3.4,10.9,24.7,11.2,25.6l.2.7-28.3,4.8ZM309,101.8l21.4,5.7,26.7-4.5c-.9-3.7-5.7-21.3-10.4-24.1-3-1.8-9.4-1-12.9-.5-1.2.2-2.1.3-2.6.3-7.6-.3-12,.2-13.2,1.6,0,0-.1.1-.2.2-3.8,3.4-8,18.2-8.9,21.5"/>
    <path class="cls-11" d="M306.9,100.6c-.8,2.6-3.6,12.1-3.1,14.1l28.3,3.6,30.3-2.7c.4,0-1.3-12.2-1.8-13.4-.5-1.3-1.8-2.3-3.2-2.6-1.5-.3-9.8-1.2-24.5-1.6-3.4-.1-17.1.3-25.1,2-.4,0-.8.2-.9.7"/>
    <path class="cls-8" d="M332,118.9h0s-28.8-3.6-28.8-3.6v-.4c-.6-2,1.7-9.9,3-14.4.2-.6.6-.9,1.4-1.1,8.1-1.7,22-2.1,25.3-2,14.1.4,22.8,1.3,24.6,1.6,1.6.3,3.1,1.5,3.7,3,.3.7,2.3,13,1.8,13.9v.3c-.1,0-.5,0-.5,0l-30.4,2.7ZM304.3,114.1l27.7,3.5,29.7-2.6c0-2.2-1.4-11.5-1.8-12.6-.4-1-1.5-1.9-2.7-2.2-1.1-.2-9.1-1.2-24.4-1.6-3.3,0-17,.3-25,2-.4,0-.4.2-.4.2-2,6.5-3.2,11.5-3.2,13.3"/>
    <path class="cls-8" d="M331.9,150c-1.6,0-3.4,0-5.1-.5-2.3-.5-4.3-1.5-5.7-2.9-.3-.3-.3-.7,0-.9.2-.3.7-.3.9,0,1.2,1.2,3,2.1,5,2.6,2,.5,4.1.5,5.9.4,3.3,0,7.6-.5,10.7-2.8.3-.2.7-.2.9.1.2.3.2.7-.1.9-3.4,2.5-7.9,3-11.4,3-.4,0-.7,0-1.1,0"/>
    <path class="cls-7" d="M314.7,169.6l-8.9,5.7s5.5,19.1,20.2,23.2l6.7-7.7s-17.1-15.7-17.9-21.2"/>
    <path class="cls-8" d="M326.2,199.3h-.4c-14.8-4.3-20.4-22.9-20.6-23.7v-.5c-.1,0,10-6.5,10-6.5v1c.8,4.3,13.2,16.5,17.9,20.8l.5.4-7.3,8.5ZM306.6,175.6c.9,2.9,6.6,18.3,19.2,22.2l6-6.9c-2.7-2.5-15.4-14.5-17.4-20.2l-7.7,5Z"/>
    <path class="cls-7" d="M351.8,169.6l8.9,5.7s-5.7,19.8-20.3,23.9l-7.3-8.5s17.9-15.7,18.7-21.2"/>
    <path class="cls-8" d="M340.1,200l-8-9.3.5-.4c4.9-4.3,17.9-16.5,18.5-20.8v-1c.1,0,10.3,6.5,10.3,6.5v.5c-.4.8-6.1,20.2-20.9,24.4h-.4ZM334,190.9l6.6,7.7c12.6-3.8,18.4-20,19.3-22.9l-7.7-5c-2.1,5.7-15.4,17.7-18.2,20.2"/>
    <path class="cls-5" d="M268.1,167c.2-.8,2.1-6,2.4-6.8,1.3-3.7,2.6-7.3,3.9-11,.3-.8.6-1.6,1-2.3.7-1.2,1.6-2.3,2.3-3.5.5-1.1.8-2.2,1-3.4l1.3-6.2c.4-1.9,1.2-3.7,1.9-5.6.4-1.1.8-2.1.9-3.3.1-1.1,0-2.3-.7-3.3-.5-.7-1.3-1.2-2.1-1.6-.5-.2-1-.4-1.5-.4-1,0-1.9.5-2.8,1.1-1.5,1.1-2.9,2.7-3.1,4.6"/>
    <path class="cls-8" d="M268.1,167.7c0,0-.1,0-.2,0-.3,0-.5-.4-.5-.8.2-.7,1.4-4,2.2-6.5l4-11.3c.3-.8.6-1.6,1-2.4.3-.6.7-1.2,1.1-1.7.4-.6.8-1.2,1.1-1.8.5-1,.7-2.1,1-3.2l1.3-6.2c.3-1.6.9-3.1,1.5-4.5.1-.4.3-.7.4-1.1.4-1,.8-2.1.9-3.1.1-1.1,0-2.1-.6-2.8-.4-.5-1-1-1.8-1.4-.5-.2-.9-.3-1.3-.4-.9,0-1.7.5-2.3,1-1.2.9-2.7,2.4-2.8,4.1,0,.4-.3.6-.7.6-.4,0-.6-.3-.6-.7.2-2.3,1.9-4,3.3-5.1.7-.6,1.9-1.3,3.2-1.2.7,0,1.3.3,1.8.5,1,.5,1.8,1.1,2.4,1.8.7,1,1,2.3.8,3.7-.1,1.2-.6,2.3-1,3.4-.1.4-.3.8-.4,1.1-.6,1.5-1.1,2.9-1.4,4.3l-1.3,6.2c-.3,1.2-.5,2.4-1.1,3.5-.4.7-.8,1.4-1.2,2-.4.5-.7,1-1,1.6-.4.7-.6,1.5-.9,2.2l-4,11.3c-.5,1.4-2,5.7-2.2,6.4,0,.3-.3.5-.6.5"/>
    <path class="cls-5" d="M275.3,126.3c.9-2.9.5-6.1-1-8.7-.6-1-1.4-2-2.6-2.4-.5-.2-1-.2-1.6-.2-4.6,0-9.2.8-13.4,2.5-1.5.6-3,1.4-3.7,2.9-.6,1.4-.3,3.2-1.3,4.4-.3.3-.6.5-.8.8-1.2,1.5,0,3.7-.2,5.6-.2,1.4-1.2,2.6-1,4,.1.9.8,1.7,1.1,2.6.6,1.6.2,3.4.4,5.1.4,2.5,2.2,4.6,2.8,7,.3,1.3.3,2.7.3,4.1,0,2.9-.1,5.7-.2,8.6,0,1.3,1.6,1.9,2.8,2.3,3.9,1.2,7.5,1.8,11.6,1.4"/>
    <path class="cls-8" d="M265.9,167.1c-2.9,0-5.8-.5-9.2-1.6-1-.3-3.3-1.1-3.3-3l.2-8.6c0-1.3,0-2.7-.3-4-.3-1-.8-2-1.3-3-.7-1.3-1.3-2.6-1.5-4-.1-.7,0-1.4,0-2.1,0-1,0-2-.3-2.8-.1-.3-.3-.6-.4-.9-.3-.6-.6-1.1-.7-1.8-.1-1,.2-1.8.5-2.7.2-.5.4-1,.5-1.5,0-.6,0-1.3-.1-2-.2-1.3-.4-2.7.5-3.8.2-.2.3-.4.5-.5.1-.1.2-.2.3-.3.5-.5.6-1.3.7-2.2.1-.7.2-1.4.5-2.1.8-1.7,2.6-2.6,4-3.2,4.3-1.8,9-2.6,13.7-2.6.6,0,1.1,0,1.7.2,1.1.4,2.1,1.3,3,2.7,1.6,2.8,2,6.2,1,9.2-.1.3-.5.5-.8.4-.3-.1-.5-.5-.4-.8.8-2.7.5-5.8-.9-8.2-.6-1.1-1.4-1.8-2.2-2.1-.4-.1-.9-.2-1.4-.2-4.5,0-9,.8-13.1,2.5-1.3.5-2.8,1.3-3.4,2.6-.2.5-.3,1.1-.4,1.7-.1,1-.3,2-1,2.8-.1.2-.3.3-.4.4-.1.1-.3.3-.4.4-.6.7-.4,1.7-.2,2.8.1.8.2,1.6.1,2.4,0,.6-.3,1.2-.5,1.8-.3.7-.5,1.4-.4,2,0,.5.3.9.6,1.4.2.3.4.7.5,1,.4,1.1.4,2.2.4,3.3,0,.7,0,1.3,0,1.9.2,1.3.8,2.4,1.4,3.6.5,1,1.1,2.1,1.4,3.3.4,1.4.3,2.9.3,4.3l-.2,8.6c0,.8,1.3,1.4,2.4,1.7,4.2,1.3,7.7,1.8,11.3,1.4.4,0,.7.2.7.6,0,.4-.2.7-.6.7-.9,0-1.8.1-2.7.1"/>
    <path class="cls-5" d="M261.4,123c3.3-.6,6.6-1.1,9.9-1.7.6-.1,1.3-.2,1.9,0,.3.2.5.5.8.8,1.9,2.5,2.9,5.5,3.1,8.6,0,.6,0,1.2-.2,1.8-.3.9-1,1.6-1.9,2"/>
    <path class="cls-8" d="M274.9,135.2c-.3,0-.5-.2-.6-.4-.1-.3,0-.7.4-.8.7-.3,1.3-.9,1.5-1.6.2-.5.2-1.1.1-1.6-.1-2.9-1.2-5.9-2.9-8.3-.2-.2-.3-.5-.6-.6-.4-.2-.9-.1-1.5,0l-9.9,1.7c-.4,0-.7-.2-.7-.5,0-.4.2-.7.5-.7l9.9-1.7c.6-.1,1.5-.3,2.3.2.4.2.7.6,1,.9,1.9,2.6,3.1,5.8,3.2,9,0,.6,0,1.3-.2,2-.3,1.1-1.2,2-2.3,2.4,0,0-.2,0-.2,0"/>
    <path class="cls-5" d="M260.8,129.8c3.2-.6,6.3-1.3,9.4-2,.5-.1,1.1-.2,1.6,0,.6.2,1,.8,1.3,1.4.5,1,.9,2.1,1.3,3.2.2.7.5,1.4.4,2.1,0,.6-.2,1.2-.4,1.7-.4,1.1-.9,2.1-1.5,3"/>
    <path class="cls-8" d="M273,139.8c-.1,0-.2,0-.3,0-.3-.2-.4-.6-.2-.9.6-.9,1-1.9,1.4-2.9.2-.5.3-1,.4-1.5,0-.6-.2-1.3-.4-1.9-.3-1-.7-2.1-1.2-3.1-.3-.6-.6-.9-1-1.1-.4-.1-.8,0-1.3,0-3.1.7-6.3,1.4-9.4,2-.4,0-.7-.2-.8-.5,0-.4.2-.7.5-.8,3.1-.6,6.3-1.3,9.4-2,.5-.1,1.3-.3,2,0,.9.3,1.4,1.1,1.7,1.7.6,1.1.9,2.2,1.3,3.3.2.7.5,1.5.5,2.3,0,.7-.2,1.3-.4,1.9-.4,1.1-.9,2.1-1.5,3.1-.1.2-.3.3-.6.3"/>
    <path class="cls-5" d="M258.2,136.3c2.3-.8,4.5-1.6,6.8-2.4.6-.2,1.1-.4,1.7-.4.4,0,.8,0,1.2.2,2,.6,3.7,1.9,4.8,3.7.2.4.5.8.5,1.3,0,.4,0,.8-.1,1.2-.5,1.9-1.6,3.7-3.2,4.9-.7.5-1.5.9-2.3,1-.9,0-1.8-.4-2.1-1.2"/>
    <path class="cls-8" d="M267.3,146.4c-1.1,0-2.2-.6-2.6-1.5-.1-.3,0-.7.3-.8.3-.1.7,0,.8.3.2.5.9.8,1.5.8.6,0,1.3-.3,2-.9,1.5-1.1,2.6-2.7,3-4.5,0-.3.1-.6,0-1,0-.3-.2-.6-.4-1.1-1-1.6-2.6-2.8-4.4-3.4-.4-.1-.7-.2-1-.2-.5,0-1,.2-1.5.4l-6.8,2.4c-.3.1-.7,0-.8-.4-.1-.3,0-.7.4-.8l6.8-2.4c.6-.2,1.2-.4,1.9-.4.4,0,.8,0,1.4.2,2.1.6,4,2.1,5.2,3.9.2.4.5.9.6,1.6,0,.5,0,1-.1,1.4-.5,2.1-1.7,3.9-3.5,5.3-.9.7-1.8,1.1-2.7,1.1,0,0-.1,0-.2,0"/>
    <path class="cls-13" d="M267.1,141c-1,3.5-3.3,6.5-6.4,8.4"/>
    <path class="cls-8" d="M260.7,150c-.2,0-.4-.1-.6-.3-.2-.3,0-.7.2-.9,3-1.8,5.2-4.7,6.1-8,0-.3.5-.5.8-.5.3,0,.5.4.5.8-1,3.6-3.4,6.8-6.7,8.8-.1,0-.2,0-.3,0"/>
    <path class="cls-5" d="M276.9,120.2c-1.9.9-3.4,2.5-3.7,4.4,0,.2,0,.4,0,.6,0,.1.2.2.3.4.6.5,1.4.9,2.3.9.9,0,1.8-.1,2.4-.7.4-.3.6-.8,1.1-1.1"/>
    <path class="cls-8" d="M276.1,127.1c-.1,0-.3,0-.4,0-.9,0-1.9-.5-2.6-1.1-.2-.1-.4-.3-.5-.6-.2-.4-.1-.7,0-1,.4-2,2-3.9,4.1-4.8.3-.1.7,0,.9.3.1.3,0,.7-.3.9-1.8.8-3,2.3-3.3,3.9,0,.1,0,.2,0,.2,0,0,0,0,.1.1.6.5,1.3.7,1.9.8.7,0,1.4-.1,1.9-.5.1-.1.3-.3.4-.4.2-.2.4-.5.7-.7.3-.2.7-.1.9.1.2.3.1.7-.1.9-.2.1-.3.3-.5.5-.2.2-.3.4-.5.6-.6.5-1.5.8-2.4.8"/>
    <path class="cls-7" d="M235.7,190.2c-6.7,13.1-13.4,26.5-16.5,40.9-.9,4.4-1.6,8.9-1,13.3.6,4.4,2.5,8.8,5.8,11.7,3.9,3.4,9.5,4.5,14.4,3.1,4.8-1.3,8.7-4.8,12.3-8.3,2.2-2.1,4.4-4.4,6-7,1.3-2.1,2.3-4.4,3.2-6.7,8.5-21.5,12.9-45.7,10.5-68.7-4.7-2.1-6.9-2.8-11.7-4.6-3.3-1.3-8.6-2.2-8.6-2.2-3,3.2-5.6,10.9-7.6,14.8-2.3,4.6-4.6,9.1-6.9,13.7"/>
    <path class="cls-8" d="M234.2,260.4c-3.9,0-7.7-1.3-10.5-3.8-3.2-2.8-5.4-7.1-6.1-12.1-.5-3.9-.2-8,1-13.5,3.2-14.6,10-28,16.6-41l6.9-13.7c.6-1.2,1.3-2.7,1.9-4.3,1.7-3.9,3.5-8.3,5.7-10.6l.2-.3h.3c.2,0,5.3,1,8.7,2.3,1.3.5,2.4.9,3.4,1.3,2.8,1,4.9,1.8,8.4,3.4l.3.2v.4c2.3,21.6-1.5,46.1-10.5,69-1,2.5-1.9,4.7-3.2,6.8-1.7,2.8-4,5.1-6.1,7.1-3.4,3.3-7.5,7-12.6,8.4-1.5.4-3,.6-4.5.6M250.5,162.4c-1.9,2.2-3.7,6.3-5.3,10-.7,1.7-1.4,3.2-2,4.4l-6.9,13.7c-6.6,12.9-13.3,26.3-16.5,40.7-1.2,5.3-1.5,9.4-1,13.1.6,4.7,2.6,8.7,5.6,11.3,3.6,3.1,9,4.3,13.8,2.9,4.8-1.4,8.8-4.9,12-8.1,2-1.9,4.2-4.2,5.9-6.9,1.3-2,2.2-4.2,3.1-6.6,8.9-22.5,12.7-46.7,10.5-68-3.2-1.4-5.3-2.2-8-3.2-1-.4-2.1-.8-3.4-1.3-2.7-1-6.9-1.9-8.1-2.1"/>
    <path class="cls-13" d="M243.7,170.9c0,.2-.2.4,0,.6,0,.2.3.3.5.4,1.8,1.1,4.1,1.4,6.3,1.7,6.4.9,13,1.7,19.5,1.4.2,0,.5,0,.7-.2.2-.1.2-.3.3-.5.8-3.4,1-6.8.6-10.2,0-.4-6.7-1.5-7.4-1.6l-7.5-1.7c-1.6-.4-4.6-1.6-6.2-.9-1.5.7-2.5,3-3.2,4.2-1.3,2.2-2.4,4.4-3.4,6.7"/>
    <path class="cls-8" d="M266.6,175.8c-5.6,0-11.1-.7-16.4-1.5-2.1-.3-4.5-.6-6.5-1.7-.3-.2-.6-.4-.8-.8-.2-.5,0-.9.1-1.1,1-2.3,2.1-4.6,3.4-6.8.1-.2.3-.5.5-.8.7-1.3,1.6-3,3-3.6,1.5-.6,3.6,0,5.3.5.5.1,1,.3,1.3.4l7.5,1.7c.2,0,.6.1,1.2.2,6.7,1.2,6.7,1.4,6.7,2,.4,3.5.1,6.9-.6,10.4,0,.2-.1.6-.5.9-.3.3-.8.3-1,.3-1.1,0-2.1,0-3.2,0M244.2,171.4s0,0,.2.1c1.8,1,4,1.3,6,1.6,6.3.9,12.9,1.7,19.4,1.4,0,0,.3,0,.3,0,0,0,0-.1,0-.2.7-3.2.9-6.4.6-9.6-1-.3-4.4-.9-5.7-1.2-.6-.1-1.1-.2-1.2-.2l-7.5-1.7c-.4,0-.9-.2-1.4-.4-1.4-.4-3.4-1-4.4-.5-1,.4-1.8,2-2.4,3.1-.2.3-.3.6-.5.9-1.3,2.1-2.4,4.4-3.3,6.6,0,0,0,.1,0,.2M243.7,170.9h0,0ZM270.7,164.2s0,0,0,0c0,0,0,0,0,0"/>
    <path class="cls-13" d="M326,198.5s1.7,5.8,3.4,6c1.8.2,8.6,0,8.6,0l2.4-5.3-7.3-8.5-7.1,7.7Z"/>
    <path class="cls-8" d="M332.9,205.3c-1.5,0-2.9,0-3.6-.1-2-.3-3.5-5-3.9-6.5,0-.2,0-.4.1-.6l7.1-7.7c.1-.1.3-.2.5-.2.2,0,.4,0,.5.2l7.3,8.5c.2.2.2.5.1.7l-2.4,5.3c-.1.2-.3.4-.6.4-.2,0-2.7,0-5.1,0M326.7,198.7c.8,2.5,2,5.1,2.8,5.2,1.4.2,6.6,0,8.1,0l2-4.6-6.6-7.6-6.3,6.9Z"/>
    <path class="cls-13" d="M329.4,204.5s-8.7,89.3-8.1,94.3c.6,5.1,13.9,21.7,13.9,21.7,0,0,11.5-21.7,11.7-24.4.1-2.8-8.9-91.5-8.9-91.5h-8.6Z"/>
    <path class="cls-8" d="M335.2,321.2c-.2,0-.4,0-.5-.2-.5-.7-13.4-16.8-14-22-.6-5.1,7.8-90.8,8.1-94.5,0-.3.3-.6.6-.6h8.6c.3,0,.6.3.6.6.4,3.6,9,88.8,8.9,91.6-.1,2.8-10.5,22.5-11.7,24.7-.1.2-.3.3-.5.3,0,0,0,0,0,0M330,205.2c-.8,7.7-8.6,88.9-8.1,93.6.4,3.7,8.5,14.7,13.2,20.6,4.6-8.7,11-21.5,11.1-23.3,0-2.1-5.7-60-8.8-90.9h-7.4Z"/>
    <path class="cls-13" d="M315.3,243.5s-.5,18.9-1.3,22.2c-.8,3.2-6.3,5.3-11.4,5.2h-1.2c-5.1.2-10.6-1.9-11.4-5.2-.8-3.2-1.3-22.2-1.3-22.2h26.6Z"/>
    <path class="cls-8" d="M300.8,271.5c-5,0-10.6-2.1-11.4-5.7-.8-3.3-1.3-21.5-1.3-22.3,0-.2,0-.3.2-.5.1-.1.3-.2.5-.2h26.6c.2,0,.3,0,.5.2.1.1.2.3.2.5,0,.8-.6,19-1.3,22.3-.9,3.7-6.9,5.8-12,5.7h-1.2c-.2,0-.4,0-.6,0M289.3,244.2c.1,3.4.6,18.6,1.3,21.4.6,2.7,5.5,4.8,10.7,4.7h1.3c5.2.2,10.1-2,10.7-4.7.7-2.8,1.2-18,1.3-21.4h-25.3Z"/>
    <rect class="cls-13" x="287.7" y="230.5" width="25.9" height="5.6"/>
    <path class="cls-8" d="M313.6,236.7h-25.9c-.4,0-.6-.3-.6-.6v-5.6c0-.4.3-.6.6-.6h25.9c.4,0,.6.3.6.6v5.6c0,.4-.3.6-.6.6M288.4,235.4h24.6v-4.3h-24.6v4.3Z"/>
    <rect class="cls-13" x="355.5" y="230.5" width="25.9" height="5.6"/>
    <path class="cls-8" d="M381.4,236.7h-25.9c-.4,0-.6-.3-.6-.6v-5.6c0-.4.3-.6.6-.6h25.9c.4,0,.6.3.6.6v5.6c0,.4-.3.6-.6.6M356.2,235.4h24.6v-4.3h-24.6v4.3Z"/>
    <path class="cls-8" d="M289,360.5c-.2,0-.4-.1-.6-.3-2.7-5-6.1-11.1-5.5-17.7.1-1.3.4-2.5.7-3.8.2-.8.4-1.6.5-2.5.5-3.2.3-6.6.2-9.9-.2-2.9-.3-5.9,0-8.9,0-.4.4-.6.7-.6.4,0,.6.4.6.7-.3,2.9-.2,5.8,0,8.7.2,3.3.4,6.8-.2,10.2-.1.9-.3,1.7-.5,2.5-.3,1.2-.5,2.4-.7,3.6-.6,5.7,2.1,11,5.3,16.9.2.3,0,.7-.3.9,0,0-.2,0-.3,0"/>
    <path class="cls-1" d="M223.2,251.1c.5-.8.8-1.7.6-2.7-.2-1-1-1.8-1.7-2.6-.9-1.2-1.4-2.5-2-3.9-.4-1-.8-2.1-.8-3.2,0-1.1.6-2.3,1.7-2.6"/>
    <path class="cls-13" d="M103.1,378.2c-.3,2.4-1.3,6-2.5,10.5-2.3,8.1-5.4,19.3-6.1,30.8-1.4,25.2-.1,50.5,3.7,75.3h26.3c-1.3-16.8-1.7-33.8-1.1-50.6,0-.3.3-.6.6-.6s0,0,0,0c.4,0,.6.3.6.7-.6,16.8-.2,33.8,1.1,50.6h26.2c.4-7.9,1.3-17.5,2.2-26.9.6-6.3,1.2-12.3,1.5-17.3.4-6.2.3-9.6.2-12.9-.2-3.7-.3-7.1.4-14,0-.3.3-.6.6-.6h0c.3,0,.6.2.6.6,2.1,15.1,3,29.4,3.9,43.2.6,9.1,1.2,18.3,2.1,27.9h32c-2-10.8-3.1-21.7-3.2-32.6,0-.4.3-.7.6-.7,0,0,0,0,0,0,.4,0,.6.3.6.6.2,10.9,1.3,21.9,3.3,32.7h26.4c0-1.2,0-2.4,0-3.6-.2-6.8-.4-13.8,0-17.6.4-4,0-9.3-.4-14.4-.4-5.2-.7-10.6-.3-14.6,1.1-11.6,2.2-28.5,2.4-39.3.4-17.2-.5-22.2-1.8-28.6-.5-2.8-1.2-6-1.7-10.7,0,0,0,0,0,0l-116.8-2.1s0,0,0,0l-1.5,14.3Z"/>
    <path class="cls-8" d="M93.9,419.5c1-17.9,7.9-34.6,8.6-41.4.5-4.8,1-9.5,1.5-14.3h.6c0-.3-.2-.6-.6-.6-.4,0-.7.2-.7.6l-1.5,14.3c-.2,2.3-1.2,5.8-2.5,10.3-2.3,8.2-5.5,19.4-6.1,31.1-1.4,25.2-.1,50.5,3.7,75.4h.7c-3.8-24.9-5.1-50.2-3.7-75.4"/>
    <path class="cls-8" d="M225.5,405.3c-.3,11.3-1.4,28.1-2.4,39.3-.8,8,1.5,21,.7,29.1-.4,4.4,0,13.2,0,21.2h.6c0-1.2,0-2.4,0-3.7-.2-6.8-.4-13.7,0-17.4.4-4.1,0-9.4-.3-14.6-.4-5.1-.7-10.4-.4-14.4,1.1-11.7,2.2-28.6,2.5-39.4.4-17.3-.5-22.4-1.8-28.9-.5-2.8-1.2-6-1.7-10.6,0-.4-.4-.6-.7-.6-.3,0-.6.3-.6.6h.6c1.7,14.9,4.1,14.3,3.5,39.4"/>
    <path class="cls-8" d="M156.9,423.9c-1.3,13,.4,13.6-.6,26.9-.9,12.2-3,30.8-3.7,44.1h.6c.4-7.8,1.3-17.4,2.2-26.7.6-6.3,1.2-12.3,1.5-17.3.4-6.3.3-9.7.2-13.1,0-2.3-.2-4.5,0-7.5,1.5,12.8,2.3,24.9,3.1,36.7.6,9,1.2,18.3,2.1,27.8h.6c-2.3-24-2.5-46-6-71"/>
    <path class="cls-8" d="M161.4,467c-.9-13.8-1.8-28-3.9-43.2,0-.3-.3-.6-.6-.6h0c-.3,0-.6.3-.6.6-.7,6.9-.6,10.4-.4,14,.1,3.3.3,6.7-.2,12.9-.3,5-.9,10.9-1.5,17.3-.9,9.4-1.8,19-2.2,26.9h.6c.6-13.3,2.8-31.8,3.7-44.1.9-13.3-.8-13.9.6-26.9,3.5,25,3.6,47,6,71h.7c-.9-9.6-1.5-18.8-2.1-27.9"/>
    <path class="cls-8" d="M223.1,376.7c1.2,6.4,2.2,11.4,1.8,28.6-.3,10.7-1.3,27.6-2.4,39.3-.4,4.1,0,9.4.3,14.6.4,5.1.7,10.4.4,14.4-.4,3.8-.2,10.8,0,17.6,0,1.2,0,2.4,0,3.6h.6c-.2-8-.5-16.8,0-21.2.8-8-1.5-21-.7-29.1,1.1-11.2,2.2-28,2.4-39.3.6-25.1-1.7-24.5-3.5-39.4h-.6s0,0,0,0c.5,4.7,1.2,7.9,1.7,10.7"/>
    <path class="cls-8" d="M102.5,378.1c-.7,6.8-7.6,23.4-8.6,41.4-1.4,25.2-.1,50.5,3.7,75.4h.7c-3.8-24.9-5.1-50.1-3.7-75.3.6-11.6,3.8-22.7,6.1-30.8,1.3-4.5,2.3-8.1,2.5-10.5l1.5-14.3s0,0,0,0h-.6c-.5,4.8-1,9.5-1.5,14.3"/>
    <path class="cls-8" d="M124.7,444.3c0-.4-.3-.7-.6-.7,0,0,0,0,0,0-.3,0-.6.3-.6.6-.6,16.8-.2,33.8,1.1,50.6h1.3c-1.3-16.8-1.7-33.8-1.1-50.6"/>
    <path class="cls-8" d="M193.6,462.2c0-.4-.3-.6-.6-.6h0c-.4,0-.6.3-.6.7.2,10.9,1.3,21.9,3.2,32.6h1.3c-2-10.8-3.1-21.7-3.3-32.7"/>
    <path class="cls-13" d="M128.8,205.9c-12.7,2.5-25.4,5-38,7.9-5.1,1.2-10.3,2.5-14.8,5.2-4.2,2.5-7.8,6-10.8,9.9-9.9,12.2-15.6,27.2-21.2,41.9-2.4,6.4-4.9,13-5,19.8,0,4,.6,8.2-1.2,11.8-.5,1-1.2,2-1.2,3.1-.1,1.8,1.4,3.3,3.1,3.8,1.7.5,1.9,2.6,3.7,2.2,13.5-2.8,27.7-11.5,41.1-15,17.9-4.6,37-3.7,54.3-10.3,2.2-.8,4.3-1.8,6.6-2.3,4.5-1,9.1-.3,13.6.4,21.3,3.3,42.7,5.5,64.1,6.7,1.6,0,3.3.2,4.8-.6,1.6-.9,2.6-2.6,3.4-4.3,5.9-12.9,0-54.4-5.7-67.4"/>
    <path class="cls-8" d="M42.9,312.2c-1,0-1.6-.7-2.1-1.2-.4-.4-.8-.9-1.3-1-1.8-.6-3.7-2.3-3.6-4.5,0-1,.5-1.8.9-2.7.1-.2.2-.5.4-.7,1.2-2.6,1.2-5.5,1.1-8.6,0-1,0-1.9,0-2.9.2-7,2.7-13.7,5.1-20,5.5-14.6,11.2-29.6,21.3-42,3.7-4.6,7.2-7.8,11-10,4.5-2.6,9.7-4,15-5.3,12.6-3,25.5-5.5,38-8,.3,0,.7.2.8.5,0,.4-.2.7-.5.8-12.5,2.4-25.4,5-38,7.9-5.2,1.2-10.3,2.6-14.6,5.1-3.7,2.1-7,5.2-10.7,9.7-9.9,12.3-15.6,27.2-21.1,41.7-2.4,6.3-4.9,12.8-5,19.6,0,.9,0,1.9,0,2.8,0,3.1.1,6.3-1.2,9.2-.1.2-.2.5-.4.7-.4.7-.7,1.4-.8,2.1,0,1.5,1.3,2.8,2.7,3.2.9.3,1.5.9,1.9,1.4.6.6.8.9,1.4.8,7.2-1.5,14.6-4.7,21.9-7.8,6.3-2.7,12.9-5.6,19.2-7.2,7.5-1.9,15.4-2.9,23-3.9,10.4-1.3,21.2-2.7,31.2-6.5.5-.2.9-.4,1.4-.5,1.7-.7,3.5-1.4,5.3-1.8,4.5-1,9.2-.3,13.7.4h.2c21.2,3.3,42.7,5.6,64.1,6.7,1.4,0,3.1.2,4.5-.5,1.5-.8,2.3-2.4,3.1-4,5.9-13-.2-54.6-5.7-66.9-.1-.3,0-.7.3-.9.3-.1.7,0,.9.3,2.9,6.5,5.8,20.1,7.3,33.9,1.7,15.8,1.1,28.2-1.6,34-.8,1.8-1.9,3.6-3.6,4.6-1.7.9-3.6.8-5.1.7-21.4-1.2-43-3.5-64.2-6.7h-.2c-4.4-.7-8.9-1.4-13.2-.4-1.7.4-3.5,1.1-5.1,1.7-.5.2-.9.4-1.4.5-10.1,3.9-21,5.2-31.5,6.5-7.6.9-15.4,1.9-22.9,3.8-6.2,1.6-12.7,4.4-19,7.1-7.3,3.1-14.8,6.4-22.1,7.9-.2,0-.4,0-.5,0"/>
    <path class="cls-13" d="M182.6,116.4c.2,8.1-12.1,14-27.5,14.4-15.4.4-28-4.7-28.2-12.9s12.1-15.1,27.5-15.5c15.4-.4,28,5.8,28.3,14"/>
    <path class="cls-8" d="M153.3,131.5c-15.6,0-26.8-5.6-27-13.5-.2-8.5,12.4-15.7,28.1-16.2,15.7-.4,28.7,6.1,28.9,14.6.2,8.3-11.6,14.6-28.1,15.1-.6,0-1.2,0-1.9,0M155.8,103.1c-.5,0-1,0-1.5,0-15,.4-27,7.1-26.8,14.9.2,7.4,12.1,12.7,27.6,12.2,15.5-.4,27.1-6.4,26.9-13.8-.2-7.5-11.8-13.4-26.1-13.4"/>
    <path class="cls-5" d="M252.2,401.1c1.2,3,5.6,9.8,6,12.5.4,2.8.8,5.7.2,8.4-.7,3-4.6,10.3-6.5,12.6-1.2,1.4-2.4,2.8-4,3.7-1.9,1-9.3,2-13,1.9-.8,0-1.7,0-2.4-.7-1-1-.6-2.7-.3-4.1,4-14.9,4.4-30.7,4.7-46.2"/>
    <path class="cls-8" d="M235.2,440.8c0,0-.2,0-.3,0-.8,0-2,0-2.8-.9-1.4-1.4-.7-3.7-.4-4.8,4-14.9,4.3-30.7,4.6-46,0-.4.3-.6.6-.6h0c.4,0,.6.3.6.7-.3,15.4-.6,31.3-4.7,46.3-.3,1.2-.6,2.8.1,3.5.4.4,1.2.5,1.9.5,0,0,.2,0,.3,0,3.7,0,10.7-.9,12.4-1.9,1.5-.8,2.7-2.2,3.8-3.5,1.8-2.1,5.7-9.4,6.4-12.3.7-2.6.2-5.5-.2-8.1-.2-1.5-1.9-4.5-3.4-7.2-1.1-2-2.1-3.9-2.6-5.1-.1-.3,0-.7.4-.8.3-.1.7,0,.8.4.5,1.2,1.5,3,2.6,5,1.6,2.9,3.3,5.9,3.5,7.6.4,2.7.9,5.7.1,8.6-.8,3.2-4.8,10.6-6.7,12.9-1.2,1.4-2.5,2.9-4.2,3.8-2.1,1.1-9.5,2-13.1,2"/>
    <path class="cls-5" d="M231.3,388.7c-.5,7.8-3.1,32.4-3.4,40.2,0,1.8-.1,3.8.8,5.2,1.1,1.7,3.2,2.3,5.1,2.4.5,0,1.1,0,1.5-.3.4-.3.7-.9.9-1.4.5-1.4,1-2.8,1.5-4.2,1.2-3.2,2.4-6.7,1.7-10.1"/>
    <path class="cls-8" d="M233.9,437.2c0,0-.1,0-.2,0-2.6,0-4.6-1-5.6-2.7-1-1.6-1-3.6-.9-5.6.2-4.4,1.1-13.9,1.9-23.1.7-7.1,1.3-13.8,1.5-17.2,0-.4.3-.6.7-.6.4,0,.6.3.6.7-.2,3.4-.8,10.1-1.5,17.2-.8,9.2-1.7,18.6-1.9,23,0,1.8,0,3.6.7,4.9,1,1.6,3,2,4.5,2,.5,0,.8,0,1.1-.2.3-.2.5-.7.6-1.1l1.5-4.2c1-2.9,2.3-6.4,1.7-9.8,0-.3.2-.7.5-.8.3,0,.7.2.8.5.7,3.7-.6,7.4-1.7,10.5l-1.5,4.2c-.2.5-.5,1.3-1.1,1.7-.5.4-1.1.5-1.7.5"/>
    <path class="cls-8" d="M244.2,425.3c-.1,0-.3,0-.4-.1-.7-.6-1.9-1-2.7-1.3-.2,0-.4-.3-.4-.5,0-.2,0-.5.3-.6,2.3-1.5,5.1-2.2,7.8-1.7.4,0,.6.4.5.7,0,.4-.4.6-.7.5-1.9-.3-3.9,0-5.7.9.6.3,1.3.6,1.8,1,.3.2.3.6,0,.9-.1.2-.3.2-.5.2"/>
    <path class="cls-13" d="M187.9,206.9c12.3,4.8,32.9,9.7,45.2,14.5,2.7,1.1,5.5,2.2,7.5,4.2,1.5,1.5,2.5,3.4,3.4,5.3,14,28.2,10,32.8,12,64.2.8,13,6.3,22.4,5.2,35.4-.4,4.5-.9,8.9-1.5,13.3-.9,7.2.6,17.2-.3,24.4-.8,6.1-1.6,30.9-1.4,37.1,0,.8,0,1.7-.5,2.4-.5.6-1.3.9-2.1,1-4,.9-17.6.7-21.7.9-.8,0-1.6,0-2.2-.4-.6-.4-.9-1-1.2-1.6-3.4-6.7-1.6-26.1-3-33.5-6.9-35.3-9.2-49.7-16.8-84.9"/>
    <path class="cls-8" d="M233.1,410.3c-.7,0-1.4,0-2-.5-.7-.4-1.1-1.2-1.5-1.9-2.1-4.2-2.3-13.2-2.4-21.1,0-5-.1-9.7-.7-12.5-2.3-11.6-4.1-21.1-5.7-29.5-3.4-17.8-6-31.8-11.1-55.4,0-.3.1-.7.5-.8.4,0,.7.1.8.5,5.1,23.7,7.8,37.7,11.1,55.5,1.6,8.4,3.4,17.9,5.7,29.5.6,2.9.6,7.7.7,12.7.1,7.8.2,16.6,2.3,20.6.3.6.6,1.1,1,1.3.5.3,1.1.3,1.8.3,1.2,0,3.2,0,5.6,0,5.6,0,13.3-.1,16-.8.7-.2,1.4-.4,1.7-.8.4-.5.4-1.2.4-2-.1-6.4.7-31.1,1.5-37.2.4-3.5.3-7.9.1-12.1-.2-4.3-.3-8.7.1-12.3.5-4.4,1.1-8.9,1.5-13.3.6-7.3-.9-13.4-2.5-19.9-1.2-4.8-2.4-9.8-2.7-15.4-.5-7.4-.6-13.2-.7-18.3-.4-16.6-.5-24.2-11.2-45.7-.9-1.9-1.9-3.7-3.3-5.1-2-2-4.8-3.1-7.3-4.1-6.1-2.4-14.5-4.9-22.5-7.2-8.1-2.4-16.5-4.8-22.6-7.3-.3-.1-.5-.5-.4-.8.1-.3.5-.5.8-.4,6.1,2.4,14.5,4.9,22.5,7.2,8.1,2.4,16.5,4.8,22.6,7.3,2.6,1,5.6,2.2,7.7,4.4,1.5,1.6,2.6,3.5,3.5,5.4,10.8,21.7,11,29.4,11.3,46.2.1,5.1.2,10.9.7,18.3.3,5.5,1.5,10.4,2.7,15.2,1.6,6.6,3.1,12.8,2.5,20.3-.4,4.5-.9,9-1.5,13.3-.4,3.6-.3,7.9-.1,12.1.2,4.3.3,8.7-.1,12.3-.7,6-1.6,30.7-1.4,37,0,.8,0,1.9-.6,2.8-.6.8-1.6,1.1-2.5,1.3-2.9.7-10.7.8-16.3.8-2.3,0-4.3,0-5.5,0-.2,0-.4,0-.6,0"/>
    <path class="cls-13" d="M227.6,394.6c8.6.4,20.7-.8,29.3-.5.4,0,.8,0,1.1.3.4.3.5.8.6,1.3.7,4.6.7,9.2,0,13.8-.1.7-.3,1.4-.8,1.8-.4.3-.9.4-1.4.4-9.5.9-19,.8-28.5-.4-.2,0-.5,0-.6-.2-.2-.2-.2-.4-.2-.7-.2-2.9.9-10.1.7-13v-2.9Z"/>
    <path class="cls-8" d="M243.6,413c-5.3,0-10.7-.3-16-1-.3,0-.7,0-1-.4-.3-.3-.4-.8-.4-1.1-.1-1.5.1-4,.4-6.6.2-2.5.5-5,.4-6.4v-3c0-.2,0-.3.2-.5.1-.1.3-.2.5-.2,4.3.2,9.5,0,14.6-.2,5.1-.2,10.4-.4,14.7-.2.4,0,.9,0,1.4.4.7.5.8,1.3.9,1.8.7,4.6.7,9.3,0,14,0,.6-.3,1.6-1.1,2.2-.6.4-1.3.5-1.8.5-4.2.4-8.4.6-12.6.6M227.6,410.7s.2,0,.2,0c9.4,1.1,18.9,1.2,28.4.4.5,0,.9,0,1.1-.3.4-.3.5-.9.6-1.4.7-4.5.7-9.1,0-13.6,0-.4-.1-.8-.3-.9-.2-.1-.5-.1-.7-.1-4.3-.2-9.5,0-14.6.2-4.8.2-9.8.4-14,.3v2.3c.1,1.4-.1,3.9-.4,6.5-.2,2.5-.5,5-.4,6.4,0,0,0,.2,0,.3,0,0,0,0,0,0"/>
    <path class="cls-13" d="M90.4,277.8c-3.4,12.2-1.1,25.2-1,37.9.1,17,1.3,23.9,1.5,40.9,0,1.4-1,5.7-.5,7,.4,1.1,1.2,2,2,2.9,4.4,5-3.3,44.6,2.9,47,7.3,2.8,33.3,2.1,41.1,2.7,28.1,2.3,60.8-1.5,88.9-2.3,2.2-22.7.3-37.5-1.5-55.7-.9-8.6,2.4-36,2.5-40.8,1.1-34.9-.5-32.5-3.1-46.8"/>
    <path class="cls-8" d="M156.1,417.6c-6.8,0-13.5-.2-19.9-.8-2.3-.2-6.4-.3-11.1-.3-11.1-.2-25-.4-30.2-2.4-3.5-1.4-3.3-10.6-2.4-25.6.5-9.1,1.1-19.5-.8-21.6-.7-.8-1.6-1.8-2.1-3.1-.4-.9-.1-2.6.2-5,.1-.9.3-1.8.3-2.2,0-8.5-.4-14.6-.7-20.4-.3-5.9-.7-11.9-.7-20.5,0-3.5-.2-7.1-.4-10.6-.5-9.1-1-18.5,1.5-27.5,0-.3.5-.5.8-.4.3,0,.5.5.4.8-2.5,8.7-1.9,18-1.4,27,.2,3.5.4,7.1.4,10.7,0,8.5.4,14.6.7,20.4.3,5.9.7,11.9.7,20.5,0,.5-.1,1.4-.3,2.4-.2,1.5-.5,3.6-.3,4.3.4,1,1.2,1.9,1.8,2.7,2.2,2.5,1.7,11.8,1.1,22.5-.6,10.3-1.3,23.2,1.6,24.3,5,1.9,19.3,2.2,29.7,2.4,4.7,0,8.8.1,11.2.3,18.9,1.6,40,.3,60.4-.9,9.7-.6,18.9-1.1,27.9-1.4,2-20.9.5-35.1-1.2-51.5l-.4-3.5c-.6-6.1.8-21.6,1.8-31.8.4-4.3.7-7.7.8-9.1.9-27.9,0-31.9-1.7-39.7-.4-1.9-.9-4.1-1.4-7,0-.4.2-.7.5-.7.4,0,.7.2.7.5.5,2.8,1,5,1.4,6.9,1.7,7.9,2.6,11.9,1.7,40,0,1.4-.4,4.8-.8,9.1-.9,10.2-2.4,25.6-1.8,31.6l.4,3.5c1.7,16.6,3.2,31,1.2,52.4,0,.3-.3.6-.6.6-9.1.2-18.5.8-28.4,1.4-13.5.8-27.4,1.6-40.7,1.6"/>
    <path class="cls-5" d="M171,181.8c-.4,5.4-.3,10.9,1.4,16.2,1.6,5.3,4.8,10.4,9.8,14,.3,0-1.4,12.7-24.6,12.6h-4.8c-13.3,0-22.4-3.8-22.5-12.6,2.3-1.6,6.4-5.5,7.9-11.6,1.8-7.4.7-17.4.5-20.4"/>
    <path class="cls-8" d="M157.8,225.3h-5s0,0,0,0c-14.8,0-23-4.7-23.1-13.3v-.3s.3-.2.3-.2c1.8-1.3,6.1-5,7.7-11.2,1.6-6.5.9-14.9.6-18.9,0-.5,0-.9,0-1.3h1.3c0,.2,0,.7,0,1.2.3,4.1,1,12.6-.6,19.4-1.6,6.4-5.8,10.2-7.9,11.8.4,10.1,13.8,11.7,21.8,11.7h5.1c12.1,0,18.1-3.5,21-6.5,2.2-2.2,2.8-4.4,2.9-5.1-4.7-3.4-8-8.3-9.8-14.1-1.8-6-1.7-12.3-1.4-16.5h1.3c-.4,6.7,0,11.6,1.3,16.1,1.2,3.9,3.8,9.5,9.5,13.6.2.1.4.3.3.8,0,1-1,4.3-4.5,7.3-4.5,3.8-11.5,5.8-20.6,5.8"/>
    <path class="cls-5" d="M124.5,153.9c-1.3-1.7-3.4-2.5-5.3-2.1-1.9.4-3.7,2-4.6,4.1-.9,2.2-.9,4.9-.2,7.2.7,2.3,2,4.3,3.5,5.9,1.4,1.5,2.9,2.8,4.6,3.7,1.3.7,2.7,1.3,3.8,2.5"/>
    <path class="cls-8" d="M125.9,175.7c-.8-.8-1.7-1.3-2.7-1.9-.3-.2-.6-.3-.9-.5-1.7-1-3.3-2.3-4.8-3.8-1.8-1.9-3-4-3.7-6.1-.8-2.6-.7-5.4.2-7.6,1-2.3,2.9-4.1,5-4.5,2.2-.4,4.5.4,6,2.3l-1,.8c-1.2-1.5-3-2.2-4.7-1.8-1.7.4-3.3,1.8-4.1,3.7-.8,2-.9,4.4-.2,6.8.6,2,1.7,3.9,3.4,5.6,1.3,1.5,2.8,2.7,4.5,3.6.3.2.6.3.9.5,1,.6,2.1,1.2,3,2.1l-.9.9Z"/>
    <path class="cls-5" d="M185.3,154.4c1.4-1.7,3.5-2.5,5.4-2.1s3.6,2,4.4,4.2c.8,2.3.7,5-.1,7.3-.8,2.3-2.2,4.3-3.8,5.9-1.4,1.5-3.1,2.8-4.8,3.7-1.3.7-2.7,1.3-3.9,2.5"/>
    <path class="cls-8" d="M183,176.5l-.9-.9c.9-.9,2-1.5,3.1-2.1.3-.2.6-.3.9-.5,1.7-.9,3.2-2.2,4.6-3.6,1.7-1.8,2.9-3.7,3.6-5.7.8-2.4.9-4.9.1-6.9-.7-2-2.2-3.4-3.9-3.8-1.7-.4-3.5.3-4.8,1.8l-1-.8c1.6-1.9,3.9-2.8,6.1-2.3,2.1.5,4,2.2,4.9,4.6.8,2.3.8,5.1-.1,7.7-.8,2.2-2.1,4.2-3.9,6.2-1.5,1.6-3.2,2.9-4.9,3.9-.3.2-.6.3-.9.5-1,.5-2,1.1-2.8,1.9"/>
    <path class="cls-5" d="M181.1,138.4c1.1,3.1,4,2.8,4.7,6,.9,4.6.8,7.7.2,12.3-.6,4.9-1.4,9.9-2.4,14.7-.7,3.6-2,9.5-4,12.6-2.3,3.8-5.9,6.7-9.8,9-4,2.4-7.3,4.6-12,5.6-2.8.6-6.2.8-9,0-2.5-.7-5.3-1.9-7.4-3.3-3.7-2.4-7.1-5.3-10-8.6-3-3.4-3.8-7.4-5-11.7-3.4-12.9-2.8-16.5-3.3-29.8,0,0,.2-3.5,1.8-6.6,1-1.9,3.4-3.2,4.3-4.9,2.9-5.7,5.1-13.7,20.7-13.5,27.4.4,29.5,13.1,31.2,17.9"/>
    <path class="cls-8" d="M152.7,199.9c-1.4,0-2.8-.1-4.1-.5-2.8-.8-5.5-2-7.6-3.3-3.8-2.4-7.2-5.4-10.1-8.7-2.8-3.2-3.8-7-4.8-10.9l-.3-1c-2.8-10.6-2.9-15.1-3.1-23.4,0-1.9-.1-4.1-.2-6.6,0-.2.2-3.8,1.9-6.9.6-1.1,1.5-1.9,2.4-2.8.8-.7,1.5-1.4,1.9-2.1.3-.5.5-1,.8-1.6,2.6-5.5,5.9-12.4,20.6-12.2,26,.4,29.7,11.8,31.4,17.2.1.4.2.7.4,1.1.5,1.3,1.3,1.9,2.2,2.6,1,.8,2.2,1.6,2.5,3.5.9,4.6.8,7.5.2,12.5-.6,4.9-1.4,9.9-2.4,14.8-.9,4.4-2.2,9.8-4.1,12.8-2.1,3.4-5.5,6.5-10,9.2-.5.3-.9.6-1.4.8-3.4,2-6.6,4-10.8,4.8-1.5.3-3.3.6-5.2.6M149.3,121.2c-13.3,0-16.2,6.1-18.8,11.5-.3.5-.5,1.1-.8,1.6-.5.9-1.3,1.7-2.1,2.4-.8.7-1.7,1.5-2.1,2.4-1.5,2.9-1.7,6.3-1.7,6.3,0,2.4.1,4.6.2,6.5.2,8.4.3,12.6,3.1,23.1l.3,1c1,3.8,1.9,7.4,4.6,10.4,2.8,3.3,6.2,6.1,9.9,8.5,2,1.3,4.7,2.4,7.3,3.2,2.9.8,6.3.4,8.6,0,4-.8,7-2.6,10.4-4.7.5-.3.9-.6,1.4-.8,4.3-2.6,7.6-5.5,9.6-8.8,1.8-2.9,3-8.1,3.9-12.4,1-4.9,1.8-9.8,2.4-14.7.6-4.8.7-7.7-.2-12.1-.3-1.4-1.1-2.1-2.1-2.8-.9-.7-2-1.5-2.6-3.2-.1-.3-.2-.7-.4-1.1-1.7-5.2-5.2-16-30.2-16.3-.2,0-.4,0-.6,0"/>
    <path class="cls-8" d="M169,157.7c-.1,1.6-1.4,2.7-2.8,2.6s-2.4-1.5-2.3-3.1c.1-1.6,1.4-2.7,2.8-2.6s2.4,1.5,2.3,3.1"/>
    <path class="cls-8" d="M144.4,157.5c0,1.6-1.2,2.8-2.6,2.8s-2.5-1.3-2.5-2.9,1.2-2.8,2.6-2.8c1.4,0,2.5,1.3,2.5,2.9"/>
    <path class="cls-8" d="M154.5,169.3c-.1,0-.3,0-.4-.1-1.4-1-2.6-2.1-3.7-3.4-.2-.2-.6-.7-.6-1.2,0-.6.3-1,.6-1.3,2.8-3.4,4.1-7.7,3.6-12,0-.4.2-.7.6-.7.4,0,.7.2.7.6.6,4.6-.8,9.3-3.8,13-.1.1-.3.4-.3.5,0,0,0,.2.3.4,1,1.2,2.2,2.2,3.5,3.1.3.2.4.6.2.9-.1.2-.3.3-.5.3"/>
    <path class="cls-8" d="M163,147.7c-.2,0-.3,0-.4-.2-.3-.2-.3-.7,0-.9.8-.9,2.1-1.4,3.7-1.7,3.3-.6,6.8,0,9.8,1.5.3.2.4.6.3.9-.2.3-.6.4-.9.3-2.7-1.4-5.9-1.9-9-1.4-1.4.2-2.4.7-3,1.4-.1.1-.3.2-.5.2"/>
    <path class="cls-8" d="M133.8,148.1c-.2,0-.5-.1-.6-.4-.2-.3,0-.7.3-.9,3.2-1.6,7.1-1.8,10.4-.6.2,0,.8.3.9.8,0,.3-.1.7-.5.8-.3,0-.6,0-.8-.4,0,0,0,0-.1,0-3-1.1-6.5-.9-9.4.6,0,0-.2,0-.3,0M143.6,147.5h0s0,0,0,0"/>
    <path class="cls-8" d="M154.3,182.5c-1.8,0-3.7-.1-5.5-.4-.4,0-.6-.4-.5-.7,0-.4.4-.6.7-.5,3.4.5,6.9.6,10.3,0,.4,0,.7.2.7.5s-.2.7-.5.7c-1.7.3-3.5.4-5.2.4"/>
    <path class="cls-8" d="M114,161.3c0,0-.1,0-.2,0-.3,0-.6-.4-.5-.8.3-1.2,1.6-2.7,2.6-3.3,1.6-.8,4.3-.7,6-.2,1,.3,1.7.9,2.1,1.6.2.3,0,.7-.3.9-.3.2-.7,0-.9-.3-.2-.4-.7-.8-1.4-1-1.4-.5-3.7-.6-5,0-.7.4-1.7,1.6-1.9,2.4,0,.3-.3.5-.6.5"/>
    <path class="cls-8" d="M195.5,159.1c-.3,0-.5-.2-.6-.4-.3-.8-1.3-2-2.1-2.3-1.4-.6-3.6-.4-5,.2-.6.2-1.1.6-1.3,1.1-.1.3-.5.5-.9.3-.3-.1-.5-.5-.3-.9.3-.8,1.1-1.4,2-1.8,1.7-.6,4.3-.9,6-.2,1.1.5,2.4,2,2.8,3.1.1.3,0,.7-.4.8,0,0-.1,0-.2,0"/>
    <path class="cls-8" d="M144.4,178c-.8,0-1.7-.2-2.2-.8-.2-.3-.2-.7,0-.9.3-.2.7-.2.9,0,.3.4,1.1.4,1.8.3.9,0,1.8-.1,2.7-.2,2.3-.2,4.6-.4,6.9-.3.8,0,1.6.1,2.3.2,1.1,0,2.2.2,3.3.2,2.1,0,3.8-.5,5-1.4.3-.2.7-.1.9.1.2.3.1.7-.1.9-1.5,1-3.4,1.6-5.8,1.6-1.2,0-2.3,0-3.5-.2-.7,0-1.5-.1-2.3-.2-2.2-.1-4.5.1-6.8.3-.9,0-1.8.2-2.7.2-.2,0-.4,0-.6,0"/>
    <rect class="cls-13" x="102.2" y="254" width="34" height="6.4"/>
    <path class="cls-8" d="M136.3,261h-34c-.4,0-.6-.3-.6-.6v-6.4c0-.4.3-.6.6-.6h34c.4,0,.6.3.6.6v6.4c0,.4-.3.6-.6.6M102.9,259.7h32.7v-5.1h-32.7v5.1Z"/>
    <path class="cls-5" d="M72.9,205.7c.8-1.8,1.7-3.5,2.6-5.3,2.1-4.2,4.1-14.9,4.2-18,.1-2.7-.6-7.2-.1-9.9.3-1.8,2.1-2.2,3.9-2.5,1.7-.3,3,1.3,3.9,2.7,3.4,5.7,5.5,17.6,6.5,18.6,1.1,1.2,3,1.1,4.6,1.1,2.1,0,4.3.3,6.1,1.4,1.8,1.1,3.2,3.1,3.1,5.2,0,1.2-.6,2.4-.2,3.5.4,1.5,2,2.5,2,4,0,1.1-.9,2-1.1,3.1-.3,1.5.9,2.9,1.3,4.4.7,2.9-1.4,5.7-3.9,7.3-2.8,1.8-10.4,2.3-12.9,4.7-2.6,2.5-9.3,16.7-14.5,15.8-4.2-.8-8.4-2.1-12.3-3.8-1.8-.8-3.7-1.9-4.5-3.7-.8-1.7,6-15.2,8.1-20.9,1-2.6,2.1-5.2,3.2-7.7"/>
    <path class="cls-8" d="M78.9,242.5c-.2,0-.4,0-.6,0-4.3-.8-8.5-2.1-12.5-3.9-1.9-.9-3.9-2-4.8-4-.6-1.3,1.1-5.3,4.8-13.7,1.3-3,2.6-5.8,3.3-7.7.9-2.4,2-4.9,3.3-7.7.7-1.6,1.6-3.3,2.6-5.3,2.1-4.2,4.1-14.9,4.2-17.8,0-1.1,0-2.4-.1-3.8-.1-2.2-.3-4.5,0-6.2.4-2.3,2.8-2.8,4.4-3.1,1.6-.3,3.2.7,4.6,3,2.2,3.6,3.8,9.6,5,13.9.5,2,1.1,4.3,1.4,4.6.9.9,2.4.9,3.8.9h.3c2.7,0,4.8.5,6.5,1.5,2.2,1.3,3.5,3.6,3.4,5.8,0,.5-.1.9-.2,1.3-.1.7-.2,1.4,0,2,.1.5.5,1,.9,1.5.5.7,1.2,1.6,1.2,2.6,0,.8-.3,1.4-.6,2-.2.4-.4.8-.5,1.2-.1.8.2,1.6.6,2.5.2.5.5,1.1.6,1.7.9,3.3-1.7,6.4-4.2,8-1.3.9-3.6,1.4-6,2-2.7.7-5.6,1.4-6.8,2.6-.7.7-1.9,2.5-3.2,4.5-3.3,5.2-7.4,11.5-11.3,11.5M83.9,170.5c0,0-.2,0-.3,0-2,.4-3.1.8-3.3,2-.3,1.6-.1,3.8,0,5.9,0,1.4.2,2.8.1,3.9-.1,3.1-2.1,13.9-4.3,18.3-1,2-1.8,3.7-2.6,5.2-1.3,2.8-2.3,5.3-3.2,7.6-.7,1.9-2,4.8-3.3,7.8-2,4.6-5.1,11.5-4.8,12.6.7,1.6,2.5,2.6,4.2,3.4,3.9,1.8,8,3,12.2,3.8,3.2.6,7.6-6.3,10.6-10.9,1.4-2.2,2.5-3.9,3.4-4.7,1.5-1.4,4.5-2.2,7.4-2.9,2.2-.5,4.4-1.1,5.6-1.9,2.3-1.5,4.3-4.1,3.6-6.6-.1-.5-.3-1-.6-1.5-.4-1-.9-2-.7-3.2,0-.6.3-1.1.6-1.5.2-.5.5-1,.5-1.4,0-.6-.4-1.2-.9-1.8-.4-.6-.9-1.2-1.1-2-.2-.9,0-1.7,0-2.5,0-.4.1-.8.2-1.2,0-1.8-1-3.6-2.8-4.7-1.5-.9-3.4-1.3-5.8-1.3h-.3c-1.6,0-3.5,0-4.7-1.3-.5-.5-.9-1.9-1.7-5.2-1.1-4.3-2.7-10.1-4.8-13.6-.7-1.1-1.7-2.4-2.9-2.4"/>
    <path class="cls-13" d="M50.2,308.3c-5.4,4.4-14.7,6.9-21.5,5.6-2.4-.5-4.8-1.7-6.3-3.6-3-3.6-2.8-8.8-2.4-13.5.6-6.8,1.2-13.8,3.4-20.3,2.4-7.3,6.7-13.9,11.2-20.2,9-12.3,16.9-19.3,27.5-30.3,7.1,3.5,13.4,6.3,20.3,10,.6.3,1.2.7,1.7,1.2,1.3,1.5-7,27-15.3,37.2"/>
    <path class="cls-8" d="M32.4,314.9c-1.3,0-2.7-.1-3.9-.3-2.7-.5-5.1-1.9-6.7-3.9-3.1-3.8-2.9-9-2.5-14,.6-7,1.3-13.9,3.4-20.4,2.7-8,7.4-15.1,11.3-20.3,6.9-9.3,13.1-15.7,20.3-23,2.3-2.3,4.7-4.7,7.2-7.4.2-.2.5-.3.8-.1,2,1,3.9,1.9,5.8,2.8,4.9,2.3,9.5,4.5,14.5,7.3.6.3,1.3.7,1.8,1.3,1.4,1.6-3.4,14.5-3.9,16-1.7,4.5-6.2,15.8-11.3,22.1-.2.3-.6.3-.9,0-.3-.2-.3-.6,0-.9,8.1-10.1,15.8-34.3,15.2-36.5-.4-.4-.9-.7-1.4-1-5-2.7-9.6-4.9-14.4-7.2-1.8-.8-3.6-1.7-5.4-2.6-2.4,2.5-4.7,4.8-6.9,7.1-7.2,7.3-13.4,13.6-20.2,22.8-3.8,5.2-8.5,12.2-11.1,20-2.1,6.4-2.8,13.2-3.4,20.1-.4,4.7-.5,9.6,2.2,13,1.4,1.7,3.6,3,5.9,3.4,6.6,1.2,15.6-1.1,21-5.5.3-.2.7-.2.9,0,.2.3.2.7,0,.9-4.7,3.8-11.9,6.1-18.2,6.1M83.4,237.6h0"/>
    <path class="cls-12" d="M129.5,131.7c-.4,3.2,1,6.6-.4,9.4-.6,1.2-1.6,2.1-2.5,3.1-2.3,2.5-3.8,5.6-4.3,9-.9-4.7-1.5-9.6-.6-14.3.9-4.7,3.5-9.3,7.6-11.7,3.1-1.8,6.8-2.3,10.4-2.7,8-.9,16-1.8,24-1.8,4.3,0,8.8.4,12.2,2.8,1,.7,1.9,1.6,2.8,2.3,2.1,1.7,4.6,3,5.8,5.4.8,1.5,3.1,2.4,3.2,4.2.4,5.1-.5,10.5-1.4,15.5-.6-2.1-2.2-3.6-2.8-5.7-.3-.9-.5-1.9-1.1-2.7-.5-.7-1.1-1.3-1.7-1.8-1.5-1.4-3-2.7-4.4-4.1-2.1-2-4.3-4-7-4.9"/>
    <path class="cls-13" d="M122.5,138.8s14.5-3.1,30.9-3.6c13.3-.4,28.2,1.7,34.6,2.7l5.8-23s-18.1-8.3-38.4-7.8c-20.3.6-39.7,8.2-39.7,8.2l6.9,23.5Z"/>
    <path class="cls-8" d="M122.5,139.5c-.3,0-.5-.2-.6-.5l-6.9-23.5c0-.3,0-.7.4-.8.2,0,19.8-7.7,40-8.2,20.2-.6,38.5,7.7,38.7,7.8.3.1.4.4.4.7l-5.8,23c0,.3-.4.5-.7.5-7.4-1.2-21.7-3.1-34.4-2.7-16.1.5-30.6,3.5-30.8,3.6,0,0,0,0-.1,0M116.3,115.7l6.6,22.3c2.9-.6,16-3,30.4-3.5,12.5-.4,26.5,1.4,34.1,2.6l5.5-21.9c-3-1.3-19.5-8-37.6-7.5-18.1.5-35.7,6.7-39,7.9"/>
    <path class="cls-8" d="M103,202.3c-.3,0-.5-.2-.6-.4-.1-.3,0-.7.4-.8,1.4-.5,2.9-.7,4.4-.6.4,0,.6.3.6.7,0,.4-.3.6-.7.6-1.4,0-2.7.1-4,.6,0,0-.1,0-.2,0"/>
    <path class="cls-8" d="M103.1,211.3c-.2,0-.5-.1-.6-.4-.1-.3,0-.7.3-.8,1.8-.8,3.8-1.1,5.7-.9.4,0,.6.4.6.7,0,.4-.3.6-.7.6-1.7-.2-3.5.1-5.1.8,0,0-.2,0-.3,0"/>
    <path class="cls-8" d="M102.5,381.6c-.2,0-.5-.1-.6-.4-.3-.6-.6-1.2-.9-1.8-1.1-2.4-2.3-4.8-3.9-6.9-1.4-1.9-3.1-3.5-5-4.8-.3-.2-.4-.6-.2-.9.2-.3.6-.4.9-.2,2,1.4,3.8,3.1,5.3,5.1,1.6,2.2,2.8,4.7,4,7.1.3.6.6,1.2.9,1.8.2.3,0,.7-.3.9,0,0-.2,0-.3,0"/>
    <path class="cls-8" d="M50,308.9c-.1,0-.3,0-.4-.1-.3-.2-.4-.6-.1-.9.5-.7.7-1.6.6-2.4-.2-.7-.7-1.3-1.2-2-.2-.2-.3-.4-.5-.7-1-1.3-1.6-2.9-2.2-4.4-.5-1.1-1-2.4-.9-3.7,0-1.3.8-2.9,2.3-3.4.3,0,.7,0,.8.4.1.3,0,.7-.4.8-.9.3-1.4,1.3-1.4,2.2,0,1.1.4,2.1.8,3.2.6,1.4,1.2,2.9,2.1,4.1.2.2.3.4.5.6.6.7,1.2,1.5,1.4,2.5.3,1.1,0,2.4-.8,3.4-.1.2-.3.3-.5.3"/>
    <path class="cls-8" d="M234,245.9h0c-.4,0-.6-.3-.6-.6,0-5.6,0-12.6,3.6-17.9.8-1.3,2.3-2.5,3.8-1.7.3.2.4.5.3.9-.2.3-.5.4-.9.3-.7-.3-1.6.4-2.2,1.3-3.4,5.1-3.4,11.8-3.4,17.2,0,.4-.3.6-.6.6"/>
    <path class="cls-10" d="M127.5,219.2s13.3,39.1,21.6,44.6c8.3,5.5,6.3,0,6.3,0,0,0-6.1-21.6-7.4-27.8-1.3-6.2-20.5-16.8-20.5-16.8"/>
    <path class="cls-8" d="M154.4,266.9c-1.3,0-3.1-.8-5.7-2.5-8.4-5.5-21.3-43.3-21.8-44.9,0-.3,0-.5.2-.7.2-.2.5-.2.7,0,.8.4,19.5,10.9,20.8,17.2,1.3,6.1,7.3,27.5,7.4,27.7,0,.2.7,2-.4,2.9-.3.2-.7.4-1.2.4M128.6,220.6c2.6,7.4,13.7,38,20.8,42.6,4.3,2.9,5.3,2.3,5.4,2.2.3-.2.1-1.1,0-1.5,0-.3-6.1-21.7-7.4-27.9-.9-4.4-12.7-12-18.7-15.5"/>
    <path class="cls-10" d="M182.9,222.3s-8.9,36-17.2,41.5c-8.3,5.5-6.3,0-6.3,0,0,0,6.1-21.6,7.4-27.8,1.3-6.2,16.1-13.7,16.1-13.7"/>
    <path class="cls-8" d="M160.3,266.9c-.5,0-.9-.1-1.2-.4-1.1-.9-.5-2.7-.4-2.9,0-.2,6.1-21.6,7.4-27.7,1.4-6.4,15.9-13.8,16.5-14.2.2-.1.5,0,.7,0,.2.2.3.4.2.7-.4,1.5-9.1,36.3-17.5,41.9-2.6,1.7-4.4,2.5-5.7,2.5M181.9,223.6c-3.6,2-13.5,7.8-14.5,12.6-1.3,6.1-7.3,27.6-7.4,27.8-.2.5-.3,1.3,0,1.5,0,0,1,.6,5.4-2.2,7.1-4.7,14.8-33,16.6-39.7"/>
    <polygon class="cls-13" points="143.6 220.9 172.5 220.9 157.6 243.6 143.6 220.9"/>
    <path class="cls-8" d="M157.6,244.2h0c-.2,0-.4-.1-.5-.3l-14-22.7c-.1-.2-.1-.4,0-.7.1-.2.3-.3.6-.3h28.9c.2,0,.5.1.6.3.1.2.1.5,0,.7l-14.9,22.7c-.1.2-.3.3-.5.3M144.8,221.5l12.9,20.9,13.7-20.9h-26.6Z"/>
    <path class="cls-13" d="M137.8,201.7l-28,8.1,47.5,33.8s-19.6-36.3-20-36.7c-.4-.3.5-5.2.5-5.2"/>
    <path class="cls-8" d="M157.3,244.2c-.1,0-.3,0-.4-.1l-47.5-33.8c-.2-.1-.3-.4-.3-.6,0-.2.2-.4.5-.5l28-8.1c.2,0,.4,0,.6.1.2.2.2.4.2.6-.4,2-.7,4.3-.6,4.8.6.9,3.5,5.9,20,36.7.1.3,0,.6-.1.8-.1.1-.3.2-.4.2M111.3,210l44.1,31.4c-7.5-13.9-17.8-32.8-18.6-34.1-.3-.2-.5-.8.2-4.8l-25.7,7.4ZM137.8,206.6h0,0ZM137.7,206.4s0,0,.1.2c0,0,0-.1-.1-.2M137.7,206.4s0,0,0,0c0,0,0,0,0,0"/>
    <line class="cls-13" x1="113.9" y1="208.8" x2="154.4" y2="238.1"/>
    <path class="cls-8" d="M154.4,238.8c-.1,0-.3,0-.4-.1l-40.5-29.3c-.3-.2-.4-.6-.1-.9.2-.3.6-.4.9-.1l40.5,29.3c.3.2.4.6.1.9-.1.2-.3.3-.5.3"/>
    <line class="cls-13" x1="117.9" y1="207.9" x2="151.7" y2="233.3"/>
    <path class="cls-8" d="M151.7,233.9c-.1,0-.3,0-.4-.1l-33.8-25.3c-.3-.2-.3-.6-.1-.9.2-.3.6-.3.9-.1l33.8,25.3c.3.2.3.6.1.9-.1.2-.3.3-.5.3"/>
    <line class="cls-13" x1="121.4" y1="206.9" x2="149" y2="228.3"/>
    <path class="cls-8" d="M149,228.9c-.1,0-.3,0-.4-.1l-27.6-21.4c-.3-.2-.3-.6-.1-.9s.6-.3.9-.1l27.6,21.4c.3.2.3.6.1.9-.1.2-.3.3-.5.3"/>
    <path class="cls-13" d="M174.4,201.7l30.7,8.1-47.5,33.8s16.8-36.3,17.2-36.7c.4-.3-.5-5.2-.5-5.2"/>
    <path class="cls-8" d="M157.6,244.2c-.1,0-.3,0-.4-.1-.2-.2-.3-.5-.2-.8,16.6-35.8,17.3-36.8,17.4-36.9-.1,0-.1.2-.1.2.1-.4-.2-2.8-.6-4.8,0-.2,0-.4.2-.6.2-.2.4-.2.6-.2l30.7,8.1c.2,0,.4.3.5.5,0,.2,0,.5-.3.6l-47.5,33.8c-.1,0-.2.1-.4.1M175.4,207.3c-.8,1.4-9.7,20.4-16.1,34.3l44.4-31.6-28.4-7.5c.7,3.9.4,4.5.2,4.8M174.5,206.4s0,0,0,0t0,0"/>
    <line class="cls-13" x1="201" y1="208.8" x2="160.6" y2="238.1"/>
    <path class="cls-8" d="M160.6,238.8c-.2,0-.4,0-.5-.3-.2-.3-.1-.7.1-.9l40.5-29.3c.3-.2.7-.1.9.1.2.3.1.7-.1.9l-40.5,29.3c-.1,0-.2.1-.4.1"/>
    <line class="cls-13" x1="197" y1="207.9" x2="162.5" y2="233.8"/>
    <path class="cls-8" d="M162.6,234.4c-.2,0-.4,0-.5-.3-.2-.3-.2-.7.1-.9l34.5-25.8c.3-.2.7-.2.9.1.2.3.2.7-.1.9l-34.5,25.8c-.1,0-.3.1-.4.1"/>
    <line class="cls-13" x1="193.5" y1="206.9" x2="164.4" y2="229.4"/>
    <path class="cls-8" d="M164.4,230.1c-.2,0-.4,0-.5-.3-.2-.3-.2-.7.1-.9l29.2-22.5c.3-.2.7-.2.9.1.2.3.2.7-.1.9l-29.2,22.5c-.1,0-.3.1-.4.1"/>
    <path class="cls-10" d="M151.5,271.7s-6.6,17.4-7.9,24.3c-1.3,6.8-1.4,28.7,5.4,40l6.8,11.3s1.1-46.9.4-56.5c-.7-9.7-1.9-19.1-1.9-19.1"/>
    <path class="cls-8" d="M155.8,348c-.2,0-.4-.1-.6-.3l-6.8-11.3c-7-11.7-6.8-33.7-5.5-40.5,1.3-6.8,7.6-23.7,7.9-24.4.1-.3.5-.5.8-.4.3.1.5.5.4.8,0,.2-6.6,17.5-7.8,24.2-1.2,6.4-1.4,28.3,5.3,39.6l5.7,9.4c.2-9.4,1-45.9.4-54.2-.7-9.5-1.9-19-1.9-19.1,0-.4.2-.7.6-.7.4,0,.7.2.7.6,0,0,1.1,9.6,1.9,19.1.7,9.6-.4,56.1-.4,56.6,0,.3-.2.5-.5.6,0,0-.1,0-.2,0"/>
    <path class="cls-10" d="M162.9,271.7s6.6,17.4,7.9,24.3c1.3,6.8,1.4,28.7-5.4,40l-6.8,11.3s-1.1-46.9-.4-56.5c.7-9.7,1.9-19.1,1.9-19.1"/>
    <path class="cls-8" d="M158.5,348c0,0-.1,0-.2,0-.3,0-.5-.3-.5-.6,0-.5-1.1-47-.4-56.6.7-9.6,1.9-19,1.9-19.1,0-.4.4-.6.7-.6.4,0,.6.4.6.7,0,0-1.1,9.5-1.9,19.1-.6,8.3.1,44.8.4,54.2l5.7-9.4c6.7-11.2,6.5-33.1,5.3-39.6-1.3-6.7-7.8-24-7.8-24.2-.1-.3,0-.7.4-.8.3-.1.7,0,.8.4.3.7,6.6,17.6,7.9,24.4,1.3,6.8,1.5,28.8-5.5,40.5l-6.8,11.3c-.1.2-.3.3-.6.3"/>
    <path class="cls-10" d="M163.8,271.7h-12.3c-.7,0-1.2-.5-1.2-1.2v-4.1c0-.7.5-1.2,1.2-1.2h12.3c.7,0,1.2.5,1.2,1.2v4.1c0,.7-.5,1.2-1.2,1.2"/>
    <path class="cls-8" d="M163.8,272.3h-12.3c-1,0-1.9-.8-1.9-1.9v-4.1c0-1,.8-1.9,1.9-1.9h12.3c1,0,1.9.8,1.9,1.9v4.1c0,1-.8,1.9-1.9,1.9M151.5,265.8c-.3,0-.6.3-.6.6v4.1c0,.3.3.6.6.6h12.3c.3,0,.6-.3.6-.6v-4.1c0-.3-.3-.6-.6-.6h-12.3Z"/>
    <line class="cls-13" x1="60.4" y1="228.3" x2="83.7" y2="240.3"/>
    <path class="cls-8" d="M83.7,241c0,0-.2,0-.3,0l-23.3-12.1c-.3-.2-.4-.6-.3-.9.2-.3.6-.4.9-.3l23.3,12.1c.3.2.4.6.3.9-.1.2-.3.4-.6.4"/>
    <line class="cls-13" x1="57.8" y1="231" x2="82.8" y2="243.8"/>
    <path class="cls-8" d="M82.8,244.5c0,0-.2,0-.3,0l-25-12.9c-.3-.2-.4-.6-.3-.9.2-.3.6-.4.9-.3l25,12.9c.3.2.4.6.3.9-.1.2-.3.4-.6.4"/>
    <line class="cls-13" x1="54.8" y1="233.8" x2="81.7" y2="247.6"/>
    <path class="cls-8" d="M81.7,248.2c0,0-.2,0-.3,0l-26.8-13.8c-.3-.2-.4-.6-.3-.9.2-.3.6-.4.9-.3l26.8,13.8c.3.2.4.6.3.9-.1.2-.3.4-.6.4"/>
    <path class="cls-4" d="M231.7,445.3c-12.7-4.5-29.4-7-47.6-6.5-18.2.5-34.7,3.9-47.1,9l-23.6.6.6,22.6c.5,16.8,32.6,29.5,71.8,28.5,39.2-1.1,70.6-15.5,70.2-32.3l-.6-22.7-23.6.6Z"/>
    <path class="cls-9" d="M123.4,485h-.2c-.9,0-1.7-.7-1.8-1.7l-.6-23.7c0-.9.7-1.7,1.7-1.8h.2c.9,0,1.7.7,1.8,1.7l.6,23.7c0,.9-.7,1.7-1.7,1.8"/>
    <path class="cls-9" d="M251.3,476.8h.2c.9,0,1.7-.8,1.7-1.8l-.6-23.7c0-.9-.8-1.7-1.8-1.7h-.2c-.9,0-1.7.8-1.7,1.8l.6,23.7c0,.9.8,1.7,1.8,1.7"/>
    <path class="cls-9" d="M238.3,487.4h.2c.9,0,1.7-.8,1.7-1.8l-.6-23.7c0-.9-.8-1.7-1.8-1.7h-.2c-.9,0-1.7.8-1.7,1.8l.6,23.7c0,.9.8,1.7,1.8,1.7"/>
    <path class="cls-9" d="M255.3,442.9c.5,16.8-31,31.3-70.2,32.3-39.2,1.1-71.4-11.7-71.8-28.5-.5-16.8,31-31.3,70.2-32.3,39.2-1.1,71.4,11.7,71.8,28.5"/>
    <path class="cls-4" d="M129.5,445.5c-.3-12.5,24.5-23.4,56.3-25.1-1.3,0-2.6,0-4,0-33.7.9-60.7,12.2-60.3,25.3.4,13,27.9,22.9,61.6,21.9,1.3,0,2.7,0,4-.2-31.8,0-57.3-9.5-57.6-22"/>
    <path class="cls-4" d="M216.8,423.5s36.2,7.9,21.1,31.7c0,0,27.4-23.2-21.1-31.7"/>
    <path class="cls-4" d="M209.8,443.6l-6.1,17.1-10.1.3-5.6-16.8h-3.6c0,0-4.5,17.1-4.5,17.1l-10.1.3-7-16.7h-1.1c-.9,0-1.9.1-3.1.2-1.2,0-2.2.2-3,.2v-4.5c.7,0,1.5,0,2.6,0,1,0,1.9,0,2.8,0l-4.3-10.3,9-.2,4,10.4,8.1-.2,2.8-10.5,10.6-.3,3.4,10.4,8.1-.2,3.5-10.6,8.9-.2-3.8,10.6c.9,0,1.8,0,2.9-.1,1,0,1.9,0,2.7-.2v4.5c-.8,0-1.8,0-2.9,0-1.2,0-2.2,0-3.1,0h-1.1ZM174.4,452.7l2.2-8.2h-5.4c0,.1,3.2,8.2,3.2,8.2ZM185.4,440.1h1.1s-.6-1.9-.6-1.9l-.5,1.9ZM198.5,452.1l2.7-8.3h-5.4c0,.1,2.7,8.3,2.7,8.3Z"/>
    <path class="cls-4" d="M227.1,413.3c-12.7-4.5-29.4-7-47.6-6.5-18.2.5-34.7,3.9-47.1,9l-23.6.6.6,22.6c.5,16.8,32.6,29.5,71.8,28.5,39.2-1.1,70.6-15.5,70.2-32.3l-.6-22.7-23.6.6Z"/>
    <path class="cls-9" d="M118.8,453.1h-.2c-.9,0-1.7-.7-1.8-1.7l-.6-23.7c0-.9.7-1.7,1.7-1.8h.2c.9,0,1.7.7,1.8,1.7l.6,23.7c0,.9-.7,1.7-1.7,1.8"/>
    <path class="cls-9" d="M135.4,461.4h-.2c-.9,0-1.7-.7-1.8-1.7l-.6-23.7c0-.9.7-1.7,1.7-1.8h.2c.9,0,1.7.7,1.8,1.7l.6,23.7c0,.9-.7,1.7-1.7,1.8"/>
    <path class="cls-9" d="M151.8,465.7h-.2c-.9,0-1.7-.7-1.8-1.7l-.6-23.7c0-.9.7-1.7,1.7-1.8h.2c.9,0,1.7.7,1.8,1.7l.6,23.7c0,.9-.7,1.7-1.7,1.8"/>
    <path class="cls-9" d="M168.1,467.4h-.2c-.9,0-1.7-.7-1.8-1.7l-.6-23.7c0-.9.7-1.7,1.7-1.8h.2c.9,0,1.7.7,1.8,1.7l.6,23.7c0,.9-.7,1.7-1.7,1.8"/>
    <path class="cls-9" d="M246.7,444.8h.2c.9,0,1.7-.8,1.7-1.8l-.6-23.7c0-.9-.8-1.7-1.8-1.7h-.2c-.9,0-1.7.8-1.7,1.8l.6,23.7c0,.9.8,1.7,1.8,1.7"/>
    <path class="cls-9" d="M233.7,455.4h.2c.9,0,1.7-.8,1.7-1.8l-.6-23.7c0-.9-.8-1.7-1.8-1.7h-.2c-.9,0-1.7.8-1.7,1.8l.6,23.7c0,.9.8,1.7,1.8,1.7"/>
    <path class="cls-9" d="M217.6,461.7h.2c.9,0,1.7-.8,1.7-1.8l-.6-23.7c0-.9-.8-1.7-1.8-1.7h-.2c-.9,0-1.7.8-1.7,1.8l.6,23.7c0,.9.8,1.7,1.8,1.7"/>
    <path class="cls-9" d="M201.4,465.5h.2c.9,0,1.7-.8,1.7-1.8l-.6-23.7c0-.9-.8-1.7-1.8-1.7h-.2c-.9,0-1.7.8-1.7,1.8l.6,23.7c0,.9.8,1.7,1.8,1.7"/>
    <path class="cls-9" d="M184.4,467.5h-.2c-.9,0-1.7-.7-1.8-1.7l-.6-23.7c0-.9.7-1.7,1.7-1.8h.2c.9,0,1.7.7,1.8,1.7l.6,23.7c0,.9-.7,1.7-1.7,1.8"/>
    <path class="cls-9" d="M250.7,410.9c.5,16.8-31,31.3-70.2,32.3-39.2,1.1-71.4-11.7-71.8-28.5-.5-16.8,31-31.3,70.2-32.3,39.2-1.1,71.4,11.7,71.8,28.5"/>
    <path class="cls-4" d="M124.9,413.5c-.3-12.5,24.5-23.4,56.3-25.1-1.3,0-2.6,0-4,0-33.7.9-60.7,12.2-60.3,25.3.4,13,27.9,22.9,61.6,21.9,1.3,0,2.7,0,4-.2-31.8,0-57.3-9.5-57.6-22"/>
    <path class="cls-4" d="M212.2,391.5s36.2,7.9,21.1,31.7c0,0,27.4-23.2-21.1-31.7"/>
    <path class="cls-4" d="M205.2,411.6l-6.1,17.1-10.1.3-5.6-16.8h-3.6c0,0-4.5,17.1-4.5,17.1l-10.1.3-7-16.7h-1.1c-.9,0-1.9.1-3.1.2-1.2,0-2.2.2-3,.2v-4.5c.7,0,1.5,0,2.6,0,1,0,1.9,0,2.8,0l-4.3-10.3,9-.2,4,10.4,8.1-.2,2.8-10.5,10.6-.3,3.4,10.4,8.1-.2,3.5-10.6,8.9-.2-3.8,10.6c.9,0,1.8,0,2.9-.1,1,0,1.9,0,2.7-.2v4.5c-.8,0-1.8,0-2.9,0-1.2,0-2.2,0-3.1,0h-1.1ZM169.8,420.7l2.2-8.2h-5.4c0,.1,3.2,8.2,3.2,8.2ZM180.8,408.1h1.1s-.6-1.9-.6-1.9l-.5,1.9ZM193.9,420.1l2.7-8.3h-5.4c0,.1,2.7,8.3,2.7,8.3Z"/>
    <path class="cls-4" d="M233.6,385.1c-12.7-4.5-29.4-7-47.6-6.5-18.2.5-34.7,3.9-47.1,9l-23.6.6.6,22.6c.5,16.8,32.6,29.5,71.8,28.5s70.6-15.5,70.2-32.3l-.6-22.7-23.6.6Z"/>
    <path class="cls-9" d="M125.4,424.8h-.2c-.9,0-1.7-.7-1.8-1.7l-.6-23.7c0-.9.7-1.7,1.7-1.8h.2c.9,0,1.7.7,1.8,1.7l.6,23.7c0,.9-.7,1.7-1.7,1.8"/>
    <path class="cls-9" d="M141.9,433.2h-.2c-.9,0-1.7-.7-1.8-1.7l-.6-23.7c0-.9.7-1.7,1.7-1.8h.2c.9,0,1.7.7,1.8,1.7l.6,23.7c0,.9-.7,1.7-1.7,1.8"/>
    <path class="cls-9" d="M158.3,437.5h-.2c-.9,0-1.7-.7-1.8-1.7l-.6-23.7c0-.9.7-1.7,1.7-1.8h.2c.9,0,1.7.7,1.8,1.7l.6,23.7c0,.9-.7,1.7-1.7,1.8"/>
    <path class="cls-9" d="M174.6,439.1h-.2c-.9,0-1.7-.7-1.8-1.7l-.6-23.7c0-.9.7-1.7,1.7-1.8h.2c.9,0,1.7.7,1.8,1.7l.6,23.7c0,.9-.7,1.7-1.7,1.8"/>
    <path class="cls-9" d="M253.2,416.6h.2c.9,0,1.7-.8,1.7-1.8l-.6-23.7c0-.9-.8-1.7-1.8-1.7h-.2c-.9,0-1.7.8-1.7,1.8l.6,23.7c0,.9.8,1.7,1.8,1.7"/>
    <path class="cls-9" d="M240.2,427.1h.2c.9,0,1.7-.8,1.7-1.8l-.6-23.7c0-.9-.8-1.7-1.8-1.7h-.2c-.9,0-1.7.8-1.7,1.8l.6,23.7c0,.9.8,1.7,1.8,1.7"/>
    <path class="cls-9" d="M224.1,433.5h.2c.9,0,1.7-.8,1.7-1.8l-.6-23.7c0-.9-.8-1.7-1.8-1.7h-.2c-.9,0-1.7.8-1.7,1.8l.6,23.7c0,.9.8,1.7,1.8,1.7"/>
    <path class="cls-9" d="M207.9,437.3h.2c.9,0,1.7-.8,1.7-1.8l-.6-23.7c0-.9-.8-1.7-1.8-1.7h-.2c-.9,0-1.7.8-1.7,1.8l.6,23.7c0,.9.8,1.7,1.8,1.7"/>
    <path class="cls-9" d="M190.9,439.3h-.2c-.9,0-1.7-.7-1.8-1.7l-.6-23.7c0-.9.7-1.7,1.7-1.8h.2c.9,0,1.7.7,1.8,1.7l.6,23.7c0,.9-.7,1.7-1.7,1.8"/>
    <path class="cls-9" d="M257.2,382.7c.5,16.8-31,31.3-70.2,32.3-39.2,1.1-71.4-11.7-71.8-28.5-.5-16.8,31-31.3,70.2-32.3,39.2-1.1,71.4,11.7,71.8,28.5"/>
    <path class="cls-4" d="M131.4,385.3c-.3-12.5,24.5-23.4,56.3-25.1-1.3,0-2.6,0-4,0-33.7.9-60.7,12.2-60.3,25.3.4,13,27.9,22.9,61.6,21.9,1.3,0,2.7,0,4-.2-31.8,0-57.3-9.5-57.6-22"/>
    <path class="cls-4" d="M218.7,363.3s36.2,7.9,21.1,31.7c0,0,27.4-23.2-21.1-31.7"/>
    <path class="cls-4" d="M211.7,383.4l-6.1,17.1-10.1.3-5.6-16.8h-3.6c0,0-4.5,17.1-4.5,17.1l-10.1.3-7-16.7h-1.1c-.9,0-1.9.1-3.1.2-1.2,0-2.2.2-3,.2v-4.5c.7,0,1.5,0,2.6,0,1,0,1.9,0,2.8,0l-4.3-10.3,9-.2,4,10.4,8.1-.2,2.8-10.5,10.6-.3,3.4,10.4,8.1-.2,3.5-10.6,8.9-.2-3.8,10.6c.9,0,1.8,0,2.9-.1,1,0,1.9,0,2.7-.2v4.5c-.8,0-1.8,0-2.9,0-1.2,0-2.2,0-3.1,0h-1.1ZM176.3,392.5l2.2-8.2h-5.4c0,.1,3.2,8.2,3.2,8.2ZM187.3,379.9h1.1s-.6-1.9-.6-1.9l-.5,1.9ZM200.4,391.9l2.7-8.3h-5.4c0,.1,2.7,8.3,2.7,8.3Z"/>
    <path class="cls-4" d="M238.5,362.9c-12.7-4.5-29.4-7-47.6-6.5-18.2.5-34.7,3.9-47.1,9l-23.6.6.6,22.6c.5,16.8,32.6,29.5,71.8,28.5s70.6-15.5,70.2-32.3l-.6-22.7-23.6.6Z"/>
    <path class="cls-9" d="M130.2,402.7h-.2c-.9,0-1.7-.7-1.8-1.7l-.6-23.7c0-.9.7-1.7,1.7-1.8h.2c.9,0,1.7.7,1.8,1.7l.6,23.7c0,.9-.7,1.7-1.7,1.8"/>
    <path class="cls-9" d="M146.7,411h-.2c-.9,0-1.7-.7-1.8-1.7l-.6-23.7c0-.9.7-1.7,1.7-1.8h.2c.9,0,1.7.7,1.8,1.7l.6,23.7c0,.9-.7,1.7-1.7,1.8"/>
    <path class="cls-9" d="M163.2,415.3h-.2c-.9,0-1.7-.7-1.8-1.7l-.6-23.7c0-.9.7-1.7,1.7-1.8h.2c.9,0,1.7.7,1.8,1.7l.6,23.7c0,.9-.7,1.7-1.7,1.8"/>
    <path class="cls-9" d="M179.5,417h-.2c-.9,0-1.7-.7-1.8-1.7l-.6-23.7c0-.9.7-1.7,1.7-1.8h.2c.9,0,1.7.7,1.8,1.7l.6,23.7c0,.9-.7,1.7-1.7,1.8"/>
    <path class="cls-9" d="M258.1,394.5h.2c.9,0,1.7-.8,1.7-1.8l-.6-23.7c0-.9-.8-1.7-1.8-1.7h-.2c-.9,0-1.7.8-1.7,1.8l.6,23.7c0,.9.8,1.7,1.8,1.7"/>
    <path class="cls-9" d="M245.1,405h.2c.9,0,1.7-.8,1.7-1.8l-.6-23.7c0-.9-.8-1.7-1.8-1.7h-.2c-.9,0-1.7.8-1.7,1.8l.6,23.7c0,.9.8,1.7,1.8,1.7"/>
    <path class="cls-9" d="M229,411.3h.2c.9,0,1.7-.8,1.7-1.8l-.6-23.7c0-.9-.8-1.7-1.8-1.7h-.2c-.9,0-1.7.8-1.7,1.8l.6,23.7c0,.9.8,1.7,1.8,1.7"/>
    <path class="cls-9" d="M212.8,415.2h.2c.9,0,1.7-.8,1.7-1.8l-.6-23.7c0-.9-.8-1.7-1.8-1.7h-.2c-.9,0-1.7.8-1.7,1.8l.6,23.7c0,.9.8,1.7,1.8,1.7"/>
    <path class="cls-9" d="M195.8,417.2h-.2c-.9,0-1.7-.7-1.8-1.7l-.6-23.7c0-.9.7-1.7,1.7-1.8h.2c.9,0,1.7.7,1.8,1.7l.6,23.7c0,.9-.7,1.7-1.7,1.8"/>
    <path class="cls-9" d="M262.1,360.6c.5,16.8-31,31.3-70.2,32.3-39.2,1.1-71.4-11.7-71.8-28.5-.5-16.8,31-31.3,70.2-32.3,39.2-1.1,71.4,11.7,71.8,28.5"/>
    <path class="cls-4" d="M136.3,363.1c-.3-12.5,24.5-23.4,56.3-25.1-1.3,0-2.6,0-4,0-33.7.9-60.7,12.2-60.3,25.3.4,13,27.9,22.9,61.6,21.9,1.3,0,2.7,0,4-.2-31.8,0-57.3-9.5-57.6-22"/>
    <path class="cls-4" d="M223.6,341.1s36.2,7.9,21.1,31.7c0,0,27.4-23.2-21.1-31.7"/>
    <path class="cls-4" d="M216.6,361.2l-6.1,17.1-10.1.3-5.6-16.8h-3.6c0,0-4.5,17.1-4.5,17.1l-10.1.3-7-16.7h-1.1c-.9,0-1.9.1-3.1.2-1.2,0-2.2.2-3,.2v-4.5c.7,0,1.5,0,2.6,0,1,0,1.9,0,2.8,0l-4.3-10.3,9-.2,4,10.4,8.1-.2,2.8-10.5,10.6-.3,3.4,10.4,8.1-.2,3.5-10.6,8.9-.2-3.8,10.6c.9,0,1.8,0,2.9-.1,1,0,1.9,0,2.7-.2v4.5c-.8,0-1.8,0-2.9,0-1.2,0-2.2,0-3.1,0h-1.1ZM181.2,370.3l2.2-8.2h-5.4c0,.1,3.2,8.2,3.2,8.2ZM192.2,357.7h1.1s-.6-1.9-.6-1.9l-.5,1.9ZM205.3,369.7l2.7-8.3h-5.4c0,.1,2.7,8.3,2.7,8.3Z"/>
    <path class="cls-9" d="M137.6,470.6c.5,16.8-31,31.3-70.2,32.3-39.2,1.1-71.4-11.7-71.8-28.5s31-31.3,70.2-32.3c39.2-1.1,71.4,11.7,71.8,28.5"/>
    <path class="cls-4" d="M11.8,473.1c-.3-12.5,24.5-23.4,56.3-25.1-1.3,0-2.6,0-4,0-33.7.9-60.7,12.2-60.3,25.3.4,13,27.9,22.9,61.6,21.9,1.3,0,2.7,0,4-.2-31.8,0-57.3-9.5-57.6-22"/>
    <path class="cls-4" d="M99.1,451.2s36.2,7.9,21.1,31.7c0,0,27.4-23.2-21.1-31.7"/>
    <path class="cls-4" d="M92.1,471.2l-6.1,17.1-10.1.3-5.6-16.8h-3.6c0,0-4.5,17.1-4.5,17.1l-10.1.3-7-16.7h-1.1c-.9,0-1.9.1-3.1.2-1.2,0-2.2.2-3,.2v-4.5c.7,0,1.5,0,2.6,0,1,0,1.9,0,2.8,0l-4.3-10.3,9-.2,4,10.4,8.1-.2,2.8-10.5,10.6-.3,3.4,10.4,8.1-.2,3.5-10.6,8.9-.2-3.8,10.6c.9,0,1.8,0,2.9-.1,1,0,1.9,0,2.7-.2v4.5c-.8,0-1.8,0-2.9,0-1.2,0-2.2,0-3.1,0h-1.1ZM56.7,480.4l2.2-8.2h-5.4c0,.1,3.2,8.2,3.2,8.2ZM67.7,467.7h1.1s-.6-1.9-.6-1.9l-.5,1.9ZM80.8,479.8l2.7-8.3h-5.4c0,.1,2.7,8.3,2.7,8.3Z"/>
    <path class="cls-4" d="M120.5,444.7c-12.7-4.5-29.4-7-47.6-6.5-18.2.5-34.7,3.9-47.1,9l-23.6.6.6,22.6c.5,16.8,32.6,29.5,71.8,28.5,39.2-1.1,70.6-15.5,70.2-32.3l-.6-22.7-23.6.6Z"/>
    <path class="cls-9" d="M12.3,484.5h-.2c-.9,0-1.7-.7-1.8-1.7l-.6-23.7c0-.9.7-1.7,1.7-1.8h.2c.9,0,1.7.7,1.8,1.7l.6,23.7c0,.9-.7,1.7-1.7,1.8"/>
    <path class="cls-9" d="M140.1,476.2h.2c.9,0,1.7-.8,1.7-1.8l-.6-23.7c0-.9-.8-1.7-1.8-1.7h-.2c-.9,0-1.7.8-1.7,1.8l.6,23.7c0,.9.8,1.7,1.8,1.7"/>
    <path class="cls-9" d="M127.1,486.8h.2c.9,0,1.7-.8,1.7-1.8l-.6-23.7c0-.9-.8-1.7-1.8-1.7h-.2c-.9,0-1.7.8-1.7,1.8l.6,23.7c0,.9.8,1.7,1.8,1.7"/>
    <path class="cls-9" d="M144.1,442.4c.5,16.8-31,31.3-70.2,32.3-39.2,1.1-71.4-11.7-71.8-28.5s31-31.3,70.2-32.3c39.2-1.1,71.4,11.7,71.8,28.5"/>
    <path class="cls-4" d="M18.4,444.9c-.3-12.5,24.5-23.4,56.3-25.1-1.3,0-2.6,0-4,0-33.7.9-60.7,12.2-60.3,25.3.4,13,27.9,22.9,61.6,21.9,1.3,0,2.7,0,4-.2-31.8,0-57.3-9.5-57.6-22"/>
    <path class="cls-4" d="M105.6,422.9s36.2,7.9,21.1,31.7c0,0,27.4-23.2-21.1-31.7"/>
    <path class="cls-4" d="M98.6,443l-6.1,17.1-10.1.3-5.6-16.8h-3.6c0,0-4.5,17.1-4.5,17.1l-10.1.3-7-16.7h-1.1c-.9,0-1.9.1-3.1.2-1.2,0-2.2.2-3,.2v-4.5c.7,0,1.5,0,2.6,0,1,0,1.9,0,2.8,0l-4.3-10.3,9-.2,4,10.4,8.1-.2,2.8-10.5,10.6-.3,3.4,10.4,8.1-.2,3.5-10.6,8.9-.2-3.8,10.6c.9,0,1.8,0,2.9-.1,1,0,1.9,0,2.7-.2v4.5c-.8,0-1.8,0-2.9,0-1.2,0-2.2,0-3.1,0h-1.1ZM63.2,452.1l2.2-8.2h-5.4c0,.1,3.2,8.2,3.2,8.2ZM74.3,439.5h1.1s-.6-1.9-.6-1.9l-.5,1.9ZM87.3,451.5l2.7-8.3h-5.4c0,.1,2.7,8.3,2.7,8.3Z"/>
    <path class="cls-4" d="M125.4,422.6c-12.7-4.5-29.4-7-47.6-6.5-18.2.5-34.7,3.9-47.1,9l-23.6.6.6,22.6c.5,16.8,32.6,29.5,71.8,28.5s70.6-15.5,70.2-32.3l-.6-22.7-23.6.6Z"/>
    <path class="cls-9" d="M17.1,462.3h-.2c-.9,0-1.7-.7-1.8-1.7l-.6-23.7c0-.9.7-1.7,1.7-1.8h.2c.9,0,1.7.7,1.8,1.7l.6,23.7c0,.9-.7,1.7-1.7,1.8"/>
    <path class="cls-9" d="M33.7,470.7h-.2c-.9,0-1.7-.7-1.8-1.7l-.6-23.7c0-.9.7-1.7,1.7-1.8h.2c.9,0,1.7.7,1.8,1.7l.6,23.7c0,.9-.7,1.7-1.7,1.8"/>
    <path class="cls-9" d="M50.1,475h-.2c-.9,0-1.7-.7-1.8-1.7l-.6-23.7c0-.9.7-1.7,1.7-1.8h.2c.9,0,1.7.7,1.8,1.7l.6,23.7c0,.9-.7,1.7-1.7,1.8"/>
    <path class="cls-9" d="M66.4,476.6h-.2c-.9,0-1.7-.7-1.8-1.7l-.6-23.7c0-.9.7-1.7,1.7-1.8h.2c.9,0,1.7.7,1.8,1.7l.6,23.7c0,.9-.7,1.7-1.7,1.8"/>
    <path class="cls-9" d="M145,454.1h.2c.9,0,1.7-.8,1.7-1.8l-.6-23.7c0-.9-.8-1.7-1.8-1.7h-.2c-.9,0-1.7.8-1.7,1.8l.6,23.7c0,.9.8,1.7,1.8,1.7"/>
    <path class="cls-9" d="M132,464.7h.2c.9,0,1.7-.8,1.7-1.8l-.6-23.7c0-.9-.8-1.7-1.8-1.7h-.2c-.9,0-1.7.8-1.7,1.8l.6,23.7c0,.9.8,1.7,1.8,1.7"/>
    <path class="cls-9" d="M115.9,471h.2c.9,0,1.7-.8,1.7-1.8l-.6-23.7c0-.9-.8-1.7-1.8-1.7h-.2c-.9,0-1.7.8-1.7,1.8l.6,23.7c0,.9.8,1.7,1.8,1.7"/>
    <path class="cls-9" d="M99.7,474.8h.2c.9,0,1.7-.8,1.7-1.8l-.6-23.7c0-.9-.8-1.7-1.8-1.7h-.2c-.9,0-1.7.8-1.7,1.8l.6,23.7c0,.9.8,1.7,1.8,1.7"/>
    <path class="cls-9" d="M82.7,476.8h-.2c-.9,0-1.7-.7-1.8-1.7l-.6-23.7c0-.9.7-1.7,1.7-1.8h.2c.9,0,1.7.7,1.8,1.7l.6,23.7c0,.9-.7,1.7-1.7,1.8"/>
    <path class="cls-9" d="M149,420.2c.5,16.8-31,31.3-70.2,32.3-39.2,1.1-71.4-11.7-71.8-28.5s31-31.3,70.2-32.3c39.2-1.1,71.4,11.7,71.8,28.5"/>
    <path class="cls-4" d="M23.2,422.8c-.3-12.5,24.5-23.4,56.3-25.1-1.3,0-2.6,0-4,0-33.7.9-60.7,12.2-60.3,25.3.4,13,27.9,22.9,61.6,21.9,1.3,0,2.7,0,4-.2-31.8,0-57.3-9.5-57.6-22"/>
    <path class="cls-4" d="M110.5,400.8s36.2,7.9,21.1,31.7c0,0,27.4-23.2-21.1-31.7"/>
    <path class="cls-4" d="M103.5,420.9l-6.1,17.1-10.1.3-5.6-16.8h-3.6c0,0-4.5,17.1-4.5,17.1l-10.1.3-7-16.7h-1.1c-.9,0-1.9.1-3.1.2-1.2,0-2.2.2-3,.2v-4.5c.7,0,1.5,0,2.6,0,1,0,1.9,0,2.8,0l-4.3-10.3,9-.2,4,10.4,8.1-.2,2.8-10.5,10.6-.3,3.4,10.4,8.1-.2,3.5-10.6,8.9-.2-3.8,10.6c.9,0,1.8,0,2.9-.1,1,0,1.9,0,2.7-.2v4.5c-.8,0-1.8,0-2.9,0-1.2,0-2.2,0-3.1,0h-1.1ZM68.1,430l2.2-8.2h-5.4c0,.1,3.2,8.2,3.2,8.2ZM79.1,417.4h1.1s-.6-1.9-.6-1.9l-.5,1.9ZM92.2,429.4l2.7-8.3h-5.4c0,.1,2.7,8.3,2.7,8.3Z"/>
    <path class="cls-9" d="M240.6,470.7c.5,16.8-31,31.3-70.2,32.3-39.2,1.1-71.4-11.7-71.8-28.5-.5-16.8,31-31.3,70.2-32.3,39.2-1.1,71.4,11.7,71.8,28.5"/>
    <path class="cls-4" d="M114.8,473.2c-.3-12.5,24.5-23.4,56.3-25.1-1.3,0-2.6,0-4,0-33.7.9-60.7,12.2-60.3,25.3.4,13,27.9,22.9,61.6,21.9,1.3,0,2.7,0,4-.2-31.8,0-57.3-9.5-57.6-22"/>
    <path class="cls-4" d="M202.1,451.3s36.2,7.9,21.1,31.7c0,0,27.4-23.2-21.1-31.7"/>
    <path class="cls-4" d="M195,471.3l-6.1,17.1-10.1.3-5.6-16.8h-3.6c0,0-4.5,17.1-4.5,17.1l-10.1.3-7-16.7h-1.1c-.9,0-1.9.1-3.1.2-1.2,0-2.2.2-3,.2v-4.5c.7,0,1.5,0,2.6,0,1,0,1.9,0,2.8,0l-4.3-10.3,9-.2,4,10.4,8.1-.2,2.8-10.5,10.6-.3,3.4,10.4,8.1-.2,3.5-10.6,8.9-.2-3.8,10.6c.9,0,1.8,0,2.9-.1,1,0,1.9,0,2.7-.2v4.5c-.8,0-1.8,0-2.9,0-1.2,0-2.2,0-3.1,0h-1.1ZM159.7,480.5l2.2-8.2h-5.4c0,.1,3.2,8.2,3.2,8.2ZM170.7,467.8h1.1s-.6-1.9-.6-1.9l-.5,1.9ZM183.8,479.8l2.7-8.3h-5.4c0,.1,2.7,8.3,2.7,8.3Z"/>
    <path class="cls-4" d="M223.5,444.8c-12.7-4.5-29.4-7-47.6-6.5-18.2.5-34.7,3.9-47.1,9l-23.6.6.6,22.6c.5,16.8,32.6,29.5,71.8,28.5s70.6-15.5,70.2-32.3l-.6-22.7-23.6.6Z"/>
    <path class="cls-9" d="M115.2,484.6h-.2c-.9,0-1.7-.7-1.8-1.7l-.6-23.7c0-.9.7-1.7,1.7-1.8h.2c.9,0,1.7.7,1.8,1.7l.6,23.7c0,.9-.7,1.7-1.7,1.8"/>
    <path class="cls-9" d="M243.1,476.3h.2c.9,0,1.7-.8,1.7-1.8l-.6-23.7c0-.9-.8-1.7-1.8-1.7h-.2c-.9,0-1.7.8-1.7,1.8l.6,23.7c0,.9.8,1.7,1.8,1.7"/>
    <path class="cls-9" d="M230.1,486.9h.2c.9,0,1.7-.8,1.7-1.8l-.6-23.7c0-.9-.8-1.7-1.8-1.7h-.2c-.9,0-1.7.8-1.7,1.8l.6,23.7c0,.9.8,1.7,1.8,1.7"/>
    <path class="cls-9" d="M247.1,442.5c.5,16.8-31,31.3-70.2,32.3-39.2,1.1-71.4-11.7-71.8-28.5-.5-16.8,31-31.3,70.2-32.3,39.2-1.1,71.4,11.7,71.8,28.5"/>
    <path class="cls-4" d="M121.3,445c-.3-12.5,24.5-23.4,56.3-25.1-1.3,0-2.6,0-4,0-33.7.9-60.7,12.2-60.3,25.3.4,13,27.9,22.9,61.6,21.9,1.3,0,2.7,0,4-.2-31.8,0-57.3-9.5-57.6-22"/>
    <path class="cls-4" d="M208.6,423s36.2,7.9,21.1,31.7c0,0,27.4-23.2-21.1-31.7"/>
    <path class="cls-4" d="M201.6,443.1l-6.1,17.1-10.1.3-5.6-16.8h-3.6c0,0-4.5,17.1-4.5,17.1l-10.1.3-7-16.7h-1.1c-.9,0-1.9.1-3.1.2-1.2,0-2.2.2-3,.2v-4.5c.7,0,1.5,0,2.6,0,1,0,1.9,0,2.8,0l-4.3-10.3,9-.2,4,10.4,8.1-.2,2.8-10.5,10.6-.3,3.4,10.4,8.1-.2,3.5-10.6,8.9-.2-3.8,10.6c.9,0,1.8,0,2.9-.1,1,0,1.9,0,2.7-.2v4.5c-.8,0-1.8,0-2.9,0-1.2,0-2.2,0-3.1,0h-1.1ZM166.2,452.2l2.2-8.2h-5.4c0,.1,3.2,8.2,3.2,8.2ZM177.2,439.6h1.1s-.6-1.9-.6-1.9l-.5,1.9ZM190.3,451.6l2.7-8.3h-5.4c0,.1,2.7,8.3,2.7,8.3Z"/>
    <path class="cls-4" d="M228.4,422.7c-12.7-4.5-29.4-7-47.6-6.5-18.2.5-34.7,3.9-47.1,9l-23.6.6.6,22.6c.5,16.8,32.6,29.5,71.8,28.5,39.2-1.1,70.6-15.5,70.2-32.3l-.6-22.7-23.6.6Z"/>
    <path class="cls-9" d="M120.1,462.4h-.2c-.9,0-1.7-.7-1.8-1.7l-.6-23.7c0-.9.7-1.7,1.7-1.8h.2c.9,0,1.7.7,1.8,1.7l.6,23.7c0,.9-.7,1.7-1.7,1.8"/>
    <path class="cls-9" d="M136.6,470.8h-.2c-.9,0-1.7-.7-1.8-1.7l-.6-23.7c0-.9.7-1.7,1.7-1.8h.2c.9,0,1.7.7,1.8,1.7l.6,23.7c0,.9-.7,1.7-1.7,1.8"/>
    <path class="cls-9" d="M153,475.1h-.2c-.9,0-1.7-.7-1.8-1.7l-.6-23.7c0-.9.7-1.7,1.7-1.8h.2c.9,0,1.7.7,1.8,1.7l.6,23.7c0,.9-.7,1.7-1.7,1.8"/>
    <path class="cls-9" d="M169.4,476.7h-.2c-.9,0-1.7-.7-1.8-1.7l-.6-23.7c0-.9.7-1.7,1.7-1.8h.2c.9,0,1.7.7,1.8,1.7l.6,23.7c0,.9-.7,1.7-1.7,1.8"/>
    <path class="cls-9" d="M248,454.2h.2c.9,0,1.7-.8,1.7-1.8l-.6-23.7c0-.9-.8-1.7-1.8-1.7h-.2c-.9,0-1.7.8-1.7,1.8l.6,23.7c0,.9.8,1.7,1.8,1.7"/>
    <path class="cls-9" d="M235,464.8h.2c.9,0,1.7-.8,1.7-1.8l-.6-23.7c0-.9-.8-1.7-1.8-1.7h-.2c-.9,0-1.7.8-1.7,1.8l.6,23.7c0,.9.8,1.7,1.8,1.7"/>
    <path class="cls-9" d="M218.8,471.1h.2c.9,0,1.7-.8,1.7-1.8l-.6-23.7c0-.9-.8-1.7-1.8-1.7h-.2c-.9,0-1.7.8-1.7,1.8l.6,23.7c0,.9.8,1.7,1.8,1.7"/>
    <path class="cls-9" d="M202.6,474.9h.2c.9,0,1.7-.8,1.7-1.8l-.6-23.7c0-.9-.8-1.7-1.8-1.7h-.2c-.9,0-1.7.8-1.7,1.8l.6,23.7c0,.9.8,1.7,1.8,1.7"/>
    <path class="cls-9" d="M185.7,476.9h-.2c-.9,0-1.7-.7-1.8-1.7l-.6-23.7c0-.9.7-1.7,1.7-1.8h.2c.9,0,1.7.7,1.8,1.7l.6,23.7c0,.9-.7,1.7-1.7,1.8"/>
    <path class="cls-9" d="M252,420.3c.5,16.8-31,31.3-70.2,32.3-39.2,1.1-71.4-11.7-71.8-28.5-.5-16.8,31-31.3,70.2-32.3,39.2-1.1,71.4,11.7,71.8,28.5"/>
    <path class="cls-4" d="M126.2,422.9c-.3-12.5,24.5-23.4,56.3-25.1-1.3,0-2.6,0-4,0-33.7.9-60.7,12.2-60.3,25.3.4,13,27.9,22.9,61.6,21.9,1.3,0,2.7,0,4-.2-31.8,0-57.3-9.5-57.6-22"/>
    <path class="cls-4" d="M213.5,400.9s36.2,7.9,21.1,31.7c0,0,27.4-23.2-21.1-31.7"/>
    <path class="cls-4" d="M206.4,421l-6.1,17.1-10.1.3-5.6-16.8h-3.6c0,0-4.5,17.1-4.5,17.1l-10.1.3-7-16.7h-1.1c-.9,0-1.9.1-3.1.2-1.2,0-2.2.2-3,.2v-4.5c.7,0,1.5,0,2.6,0,1,0,1.9,0,2.8,0l-4.3-10.3,9-.2,4,10.4,8.1-.2,2.8-10.5,10.6-.3,3.4,10.4,8.1-.2,3.5-10.6,8.9-.2-3.8,10.6c.9,0,1.8,0,2.9-.1,1,0,1.9,0,2.7-.2v4.5c-.8,0-1.8,0-2.9,0-1.2,0-2.2,0-3.1,0h-1.1ZM171.1,430.1l2.2-8.2h-5.4c0,.1,3.2,8.2,3.2,8.2ZM182.1,417.5h1.1s-.6-1.9-.6-1.9l-.5,1.9ZM195.2,429.5l2.7-8.3h-5.4c0,.1,2.7,8.3,2.7,8.3Z"/>
    <path class="cls-4" d="M348.5,450.9c-12.7-4.5-29.4-7-47.6-6.5-18.2.5-34.7,3.9-47.1,9l-23.6.6.6,22.6c.5,16.8,32.6,29.5,71.8,28.5,39.2-1.1,70.6-15.5,70.2-32.3l-.6-22.7-23.6.6Z"/>
    <path class="cls-9" d="M240.3,490.7h-.2c-.9,0-1.7-.7-1.8-1.7l-.6-23.7c0-.9.7-1.7,1.7-1.8h.2c.9,0,1.7.7,1.8,1.7l.6,23.7c0,.9-.7,1.7-1.7,1.8"/>
    <path class="cls-9" d="M368.1,482.4h.2c.9,0,1.7-.8,1.7-1.8l-.6-23.7c0-.9-.8-1.7-1.8-1.7h-.2c-.9,0-1.7.8-1.7,1.8l.6,23.7c0,.9.8,1.7,1.8,1.7"/>
    <path class="cls-9" d="M372.1,448.6c.5,16.8-31,31.3-70.2,32.3-39.2,1.1-71.4-11.7-71.8-28.5-.5-16.8,31-31.3,70.2-32.3,39.2-1.1,71.4,11.7,71.8,28.5"/>
    <path class="cls-4" d="M246.4,451.1c-.3-12.5,24.5-23.4,56.3-25.1-1.3,0-2.6,0-4,0-33.7.9-60.7,12.2-60.3,25.3.4,13,27.9,22.9,61.6,21.9,1.3,0,2.7,0,4-.2-31.8,0-57.3-9.5-57.6-22"/>
    <path class="cls-4" d="M333.6,429.1s36.2,7.9,21.1,31.7c0,0,27.4-23.2-21.1-31.7"/>
    <path class="cls-4" d="M326.6,449.2l-6.1,17.1-10.1.3-5.6-16.8h-3.6c0,0-4.5,17.1-4.5,17.1l-10.1.3-7-16.7h-1.1c-.9,0-1.9.1-3.1.2-1.2,0-2.2.2-3,.2v-4.5c.7,0,1.5,0,2.6,0,1,0,1.9,0,2.8,0l-4.3-10.3,9-.2,4,10.4,8.1-.2,2.8-10.5,10.6-.3,3.4,10.4,8.1-.2,3.5-10.6,8.9-.2-3.8,10.6c.9,0,1.8,0,2.9-.1,1,0,1.9,0,2.7-.2v4.5c-.8,0-1.8,0-2.9,0-1.2,0-2.2,0-3.1,0h-1.1ZM291.2,458.3l2.2-8.2h-5.4c0,.1,3.2,8.2,3.2,8.2ZM302.3,445.7h1.1s-.6-1.9-.6-1.9l-.5,1.9ZM315.3,457.7l2.7-8.3h-5.4c0,.1,2.7,8.3,2.7,8.3Z"/>
    <path class="cls-4" d="M343.9,418.9c-12.7-4.5-29.4-7-47.6-6.5-18.2.5-34.7,3.9-47.1,9l-23.6.6.6,22.6c.5,16.8,32.6,29.5,71.8,28.5,39.2-1.1,70.6-15.5,70.2-32.3l-.6-22.7-23.6.6Z"/>
    <path class="cls-9" d="M235.7,458.7h-.2c-.9,0-1.7-.7-1.8-1.7l-.6-23.7c0-.9.7-1.7,1.7-1.8h.2c.9,0,1.7.7,1.8,1.7l.6,23.7c0,.9-.7,1.7-1.7,1.8"/>
    <path class="cls-9" d="M252.2,467h-.2c-.9,0-1.7-.7-1.8-1.7l-.6-23.7c0-.9.7-1.7,1.7-1.8h.2c.9,0,1.7.7,1.8,1.7l.6,23.7c0,.9-.7,1.7-1.7,1.8"/>
    <path class="cls-9" d="M268.6,471.3h-.2c-.9,0-1.7-.7-1.8-1.7l-.6-23.7c0-.9.7-1.7,1.7-1.8h.2c.9,0,1.7.7,1.8,1.7l.6,23.7c0,.9-.7,1.7-1.7,1.8"/>
    <path class="cls-9" d="M285,473h-.2c-.9,0-1.7-.7-1.8-1.7l-.6-23.7c0-.9.7-1.7,1.7-1.8h.2c.9,0,1.7.7,1.8,1.7l.6,23.7c0,.9-.7,1.7-1.7,1.8"/>
    <path class="cls-9" d="M363.5,450.5h.2c.9,0,1.7-.8,1.7-1.8l-.6-23.7c0-.9-.8-1.7-1.8-1.7h-.2c-.9,0-1.7.8-1.7,1.8l.6,23.7c0,.9.8,1.7,1.8,1.7"/>
    <path class="cls-9" d="M350.5,461h.2c.9,0,1.7-.8,1.7-1.8l-.6-23.7c0-.9-.8-1.7-1.8-1.7h-.2c-.9,0-1.7.8-1.7,1.8l.6,23.7c0,.9.8,1.7,1.8,1.7"/>
    <path class="cls-9" d="M334.4,467.3h.2c.9,0,1.7-.8,1.7-1.8l-.6-23.7c0-.9-.8-1.7-1.8-1.7h-.2c-.9,0-1.7.8-1.7,1.8l.6,23.7c0,.9.8,1.7,1.8,1.7"/>
    <path class="cls-9" d="M318.2,471.2h.2c.9,0,1.7-.8,1.7-1.8l-.6-23.7c0-.9-.8-1.7-1.8-1.7h-.2c-.9,0-1.7.8-1.7,1.8l.6,23.7c0,.9.8,1.7,1.8,1.7"/>
    <path class="cls-9" d="M301.3,473.2h-.2c-.9,0-1.7-.7-1.8-1.7l-.6-23.7c0-.9.7-1.7,1.7-1.8h.2c.9,0,1.7.7,1.8,1.7l.6,23.7c0,.9-.7,1.7-1.7,1.8"/>
    <path class="cls-9" d="M367.5,416.6c.5,16.8-31,31.3-70.2,32.3-39.2,1.1-71.4-11.7-71.8-28.5-.5-16.8,31-31.3,70.2-32.3,39.2-1.1,71.4,11.7,71.8,28.5"/>
    <path class="cls-4" d="M241.8,419.1c-.3-12.5,24.5-23.4,56.3-25.1-1.3,0-2.6,0-4,0-33.7.9-60.7,12.2-60.3,25.3.4,13,27.9,22.9,61.6,21.9,1.3,0,2.7,0,4-.2-31.8,0-57.3-9.5-57.6-22"/>
    <path class="cls-4" d="M329,397.2s36.2,7.9,21.1,31.7c0,0,27.4-23.2-21.1-31.7"/>
    <path class="cls-4" d="M322,417.2l-6.1,17.1-10.1.3-5.6-16.8h-3.6c0,0-4.5,17.1-4.5,17.1l-10.1.3-7-16.7h-1.1c-.9,0-1.9.1-3.1.2-1.2,0-2.2.2-3,.2v-4.5c.7,0,1.5,0,2.6,0,1,0,1.9,0,2.8,0l-4.3-10.3,9-.2,4,10.4,8.1-.2,2.8-10.5,10.6-.3,3.4,10.4,8.1-.2,3.5-10.6,8.9-.2-3.8,10.6c.9,0,1.8,0,2.9-.1,1,0,1.9,0,2.7-.2v4.5c-.8,0-1.8,0-2.9,0-1.2,0-2.2,0-3.1,0h-1.1ZM286.6,426.3l2.2-8.2h-5.4c0,.1,3.2,8.2,3.2,8.2ZM297.7,413.7h1.1s-.6-1.9-.6-1.9l-.5,1.9ZM310.7,425.7l2.7-8.3h-5.4c0,.1,2.7,8.3,2.7,8.3Z"/>
    <path class="cls-4" d="M350.4,390.7c-12.7-4.5-29.4-7-47.6-6.5-18.2.5-34.7,3.9-47.1,9l-23.6.6.6,22.6c.5,16.8,32.6,29.5,71.8,28.5s70.6-15.5,70.2-32.3l-.6-22.7-23.6.6Z"/>
    <path class="cls-9" d="M242.2,430.5h-.2c-.9,0-1.7-.7-1.8-1.7l-.6-23.7c0-.9.7-1.7,1.7-1.8h.2c.9,0,1.7.7,1.8,1.7l.6,23.7c0,.9-.7,1.7-1.7,1.8"/>
    <path class="cls-9" d="M258.7,438.8h-.2c-.9,0-1.7-.7-1.8-1.7l-.6-23.7c0-.9.7-1.7,1.7-1.8h.2c.9,0,1.7.7,1.8,1.7l.6,23.7c0,.9-.7,1.7-1.7,1.8"/>
    <path class="cls-9" d="M275.1,443.1h-.2c-.9,0-1.7-.7-1.8-1.7l-.6-23.7c0-.9.7-1.7,1.7-1.8h.2c.9,0,1.7.7,1.8,1.7l.6,23.7c0,.9-.7,1.7-1.7,1.8"/>
    <path class="cls-9" d="M291.5,444.8h-.2c-.9,0-1.7-.7-1.8-1.7l-.6-23.7c0-.9.7-1.7,1.7-1.8h.2c.9,0,1.7.7,1.8,1.7l.6,23.7c0,.9-.7,1.7-1.7,1.8"/>
    <path class="cls-9" d="M370.1,422.2h.2c.9,0,1.7-.8,1.7-1.8l-.6-23.7c0-.9-.8-1.7-1.8-1.7h-.2c-.9,0-1.7.8-1.7,1.8l.6,23.7c0,.9.8,1.7,1.8,1.7"/>
    <path class="cls-9" d="M357,432.8h.2c.9,0,1.7-.8,1.7-1.8l-.6-23.7c0-.9-.8-1.7-1.8-1.7h-.2c-.9,0-1.7.8-1.7,1.8l.6,23.7c0,.9.8,1.7,1.8,1.7"/>
    <path class="cls-9" d="M340.9,439.1h.2c.9,0,1.7-.8,1.7-1.8l-.6-23.7c0-.9-.8-1.7-1.8-1.7h-.2c-.9,0-1.7.8-1.7,1.8l.6,23.7c0,.9.8,1.7,1.8,1.7"/>
    <path class="cls-9" d="M324.7,442.9h.2c.9,0,1.7-.8,1.7-1.8l-.6-23.7c0-.9-.8-1.7-1.8-1.7h-.2c-.9,0-1.7.8-1.7,1.8l.6,23.7c0,.9.8,1.7,1.8,1.7"/>
    <path class="cls-9" d="M307.8,444.9h-.2c-.9,0-1.7-.7-1.8-1.7l-.6-23.7c0-.9.7-1.7,1.7-1.8h.2c.9,0,1.7.7,1.8,1.7l.6,23.7c0,.9-.7,1.7-1.7,1.8"/>
    <path class="cls-9" d="M374,388.4c.5,16.8-31,31.3-70.2,32.3-39.2,1.1-71.4-11.7-71.8-28.5-.5-16.8,31-31.3,70.2-32.3,39.2-1.1,71.4,11.7,71.8,28.5"/>
    <path class="cls-4" d="M248.3,390.9c-.3-12.5,24.5-23.4,56.3-25.1-1.3,0-2.6,0-4,0-33.7.9-60.7,12.2-60.3,25.3.4,13,27.9,22.9,61.6,21.9,1.3,0,2.7,0,4-.2-31.8,0-57.3-9.5-57.6-22"/>
    <path class="cls-4" d="M335.6,368.9s36.2,7.9,21.1,31.7c0,0,27.4-23.2-21.1-31.7"/>
    <path class="cls-4" d="M328.5,389l-6.1,17.1-10.1.3-5.6-16.8h-3.6c0,0-4.5,17.1-4.5,17.1l-10.1.3-7-16.7h-1.1c-.9,0-1.9.1-3.1.2-1.2,0-2.2.2-3,.2v-4.5c.7,0,1.5,0,2.6,0,1,0,1.9,0,2.8,0l-4.3-10.3,9-.2,4,10.4,8.1-.2,2.8-10.5,10.6-.3,3.4,10.4,8.1-.2,3.5-10.6,8.9-.2-3.8,10.6c.9,0,1.8,0,2.9-.1,1,0,1.9,0,2.7-.2v4.5c-.8,0-1.8,0-2.9,0-1.2,0-2.2,0-3.1,0h-1.1ZM293.2,398.1l2.2-8.2h-5.4c0,.1,3.2,8.2,3.2,8.2ZM304.2,385.5h1.1s-.6-1.9-.6-1.9l-.5,1.9ZM317.3,397.5l2.7-8.3h-5.4c0,.1,2.7,8.3,2.7,8.3Z"/>
    <path class="cls-4" d="M355.3,368.6c-12.7-4.5-29.4-7-47.6-6.5-18.2.5-34.7,3.9-47.1,9l-23.6.6.6,22.6c.5,16.8,32.6,29.5,71.8,28.5s70.6-15.5,70.2-32.3l-.6-22.7-23.6.6Z"/>
    <path class="cls-9" d="M247.1,408.3h-.2c-.9,0-1.7-.7-1.8-1.7l-.6-23.7c0-.9.7-1.7,1.7-1.8h.2c.9,0,1.7.7,1.8,1.7l.6,23.7c0,.9-.7,1.7-1.7,1.8"/>
    <path class="cls-9" d="M263.6,416.6h-.2c-.9,0-1.7-.7-1.8-1.7l-.6-23.7c0-.9.7-1.7,1.7-1.8h.2c.9,0,1.7.7,1.8,1.7l.6,23.7c0,.9-.7,1.7-1.7,1.8"/>
    <path class="cls-9" d="M280,421h-.2c-.9,0-1.7-.7-1.8-1.7l-.6-23.7c0-.9.7-1.7,1.7-1.8h.2c.9,0,1.7.7,1.8,1.7l.6,23.7c0,.9-.7,1.7-1.7,1.8"/>
    <path class="cls-9" d="M296.3,422.6h-.2c-.9,0-1.7-.7-1.8-1.7l-.6-23.7c0-.9.7-1.7,1.7-1.8h.2c.9,0,1.7.7,1.8,1.7l.6,23.7c0,.9-.7,1.7-1.7,1.8"/>
    <path class="cls-9" d="M374.9,400.1h.2c.9,0,1.7-.8,1.7-1.8l-.6-23.7c0-.9-.8-1.7-1.8-1.7h-.2c-.9,0-1.7.8-1.7,1.8l.6,23.7c0,.9.8,1.7,1.8,1.7"/>
    <path class="cls-9" d="M361.9,410.6h.2c.9,0,1.7-.8,1.7-1.8l-.6-23.7c0-.9-.8-1.7-1.8-1.7h-.2c-.9,0-1.7.8-1.7,1.8l.6,23.7c0,.9.8,1.7,1.8,1.7"/>
    <path class="cls-9" d="M345.8,416.9h.2c.9,0,1.7-.8,1.7-1.8l-.6-23.7c0-.9-.8-1.7-1.8-1.7h-.2c-.9,0-1.7.8-1.7,1.8l.6,23.7c0,.9.8,1.7,1.8,1.7"/>
    <path class="cls-9" d="M329.6,420.8h.2c.9,0,1.7-.8,1.7-1.8l-.6-23.7c0-.9-.8-1.7-1.8-1.7h-.2c-.9,0-1.7.8-1.7,1.8l.6,23.7c0,.9.8,1.7,1.8,1.7"/>
    <path class="cls-9" d="M312.6,422.8h-.2c-.9,0-1.7-.7-1.8-1.7l-.6-23.7c0-.9.7-1.7,1.7-1.8h.2c.9,0,1.7.7,1.8,1.7l.6,23.7c0,.9-.7,1.7-1.7,1.8"/>
    <path class="cls-9" d="M378.9,366.2c.5,16.8-31,31.3-70.2,32.3-39.2,1.1-71.4-11.7-71.8-28.5-.5-16.8,31-31.3,70.2-32.3,39.2-1.1,71.4,11.7,71.8,28.5"/>
    <path class="cls-4" d="M253.1,368.8c-.3-12.5,24.5-23.4,56.3-25.1-1.3,0-2.6,0-4,0-33.7.9-60.7,12.2-60.3,25.3.4,13,27.9,22.9,61.6,21.9,1.3,0,2.7,0,4-.2-31.8,0-57.3-9.5-57.6-22"/>
    <path class="cls-4" d="M340.4,346.8s36.2,7.9,21.1,31.7c0,0,27.4-23.2-21.1-31.7"/>
    <path class="cls-4" d="M333.4,366.8l-6.1,17.1-10.1.3-5.6-16.8h-3.6c0,0-4.5,17.1-4.5,17.1l-10.1.3-7-16.7h-1.1c-.9,0-1.9.1-3.1.2-1.2,0-2.2.2-3,.2v-4.5c.7,0,1.5,0,2.6,0,1,0,1.9,0,2.8,0l-4.3-10.3,9-.2,4,10.4,8.1-.2,2.8-10.5,10.6-.3,3.4,10.4,8.1-.2,3.5-10.6,8.9-.2-3.8,10.6c.9,0,1.8,0,2.9-.1,1,0,1.9,0,2.7-.2v4.5c-.8,0-1.8,0-2.9,0-1.2,0-2.2,0-3.1,0h-1.1ZM298,376l2.2-8.2h-5.4c0,.1,3.2,8.2,3.2,8.2ZM309.1,363.3h1.1s-.6-1.9-.6-1.9l-.5,1.9ZM322.1,375.4l2.7-8.3h-5.4c0,.1,2.7,8.3,2.7,8.3Z"/>
    <path class="cls-9" d="M350.9,476.2c.5,16.8-31,31.3-70.2,32.3-39.2,1.1-71.4-11.7-71.8-28.5-.5-16.8,31-31.3,70.2-32.3,39.2-1.1,71.4,11.7,71.8,28.5"/>
    <path class="cls-4" d="M225.2,478.8c-.3-12.5,24.5-23.4,56.3-25.1-1.3,0-2.6,0-4,0-33.7.9-60.7,12.2-60.3,25.3.4,13,27.9,22.9,61.6,21.9,1.3,0,2.7,0,4-.2-31.8,0-57.3-9.5-57.6-22"/>
    <path class="cls-4" d="M312.4,456.8s36.2,7.9,21.1,31.7c0,0,27.4-23.2-21.1-31.7"/>
    <path class="cls-4" d="M305.4,476.9l-6.1,17.1-10.1.3-5.6-16.8h-3.6c0,0-4.5,17.1-4.5,17.1l-10.1.3-7-16.7h-1.1c-.9,0-1.9.1-3.1.2-1.2,0-2.2.2-3,.2v-4.5c.7,0,1.5,0,2.6,0,1,0,1.9,0,2.8,0l-4.3-10.3,9-.2,4,10.4,8.1-.2,2.8-10.5,10.6-.3,3.4,10.4,8.1-.2,3.5-10.6,8.9-.2-3.8,10.6c.9,0,1.8,0,2.9-.1,1,0,1.9,0,2.7-.2v4.5c-.8,0-1.8,0-2.9,0-1.2,0-2.2,0-3.1,0h-1.1ZM270,486l2.2-8.2h-5.4c0,.1,3.2,8.2,3.2,8.2ZM281.1,473.4h1.1s-.6-1.9-.6-1.9l-.5,1.9ZM294.1,485.4l2.7-8.3h-5.4c0,.1,2.7,8.3,2.7,8.3Z"/>
    <path class="cls-4" d="M333.9,450.3c-12.7-4.5-29.4-7-47.6-6.5-18.2.5-34.7,3.9-47.1,9l-23.6.6.6,22.6c.5,16.8,32.6,29.5,71.8,28.5s70.6-15.5,70.2-32.3l-.6-22.7-23.6.6Z"/>
    <path class="cls-9" d="M225.6,490.1h-.2c-.9,0-1.7-.7-1.8-1.7l-.6-23.7c0-.9.7-1.7,1.7-1.8h.2c.9,0,1.7.7,1.8,1.7l.6,23.7c0,.9-.7,1.7-1.7,1.8"/>
    <path class="cls-9" d="M353.5,481.9h.2c.9,0,1.7-.8,1.7-1.8l-.6-23.7c0-.9-.8-1.7-1.8-1.7h-.2c-.9,0-1.7.8-1.7,1.8l.6,23.7c0,.9.8,1.7,1.8,1.7"/>
    <path class="cls-9" d="M357.5,448c.5,16.8-31,31.3-70.2,32.3-39.2,1.1-71.4-11.7-71.8-28.5-.5-16.8,31-31.3,70.2-32.3,39.2-1.1,71.4,11.7,71.8,28.5"/>
    <path class="cls-4" d="M231.7,450.5c-.3-12.5,24.5-23.4,56.3-25.1-1.3,0-2.6,0-4,0-33.7.9-60.7,12.2-60.3,25.3.4,13,27.9,22.9,61.6,21.9,1.3,0,2.7,0,4-.2-31.8,0-57.3-9.5-57.6-22"/>
    <path class="cls-4" d="M319,428.6s36.2,7.9,21.1,31.7c0,0,27.4-23.2-21.1-31.7"/>
    <path class="cls-4" d="M311.9,448.6l-6.1,17.1-10.1.3-5.6-16.8h-3.6c0,0-4.5,17.1-4.5,17.1l-10.1.3-7-16.7h-1.1c-.9,0-1.9.1-3.1.2-1.2,0-2.2.2-3,.2v-4.5c.7,0,1.5,0,2.6,0,1,0,1.9,0,2.8,0l-4.3-10.3,9-.2,4,10.4,8.1-.2,2.8-10.5,10.6-.3,3.4,10.4,8.1-.2,3.5-10.6,8.9-.2-3.8,10.6c.9,0,1.8,0,2.9-.1,1,0,1.9,0,2.7-.2v4.5c-.8,0-1.8,0-2.9,0-1.2,0-2.2,0-3.1,0h-1.1ZM276.6,457.8l2.2-8.2h-5.4c0,.1,3.2,8.2,3.2,8.2ZM287.6,445.1h1.1s-.6-1.9-.6-1.9l-.5,1.9ZM300.7,457.2l2.7-8.3h-5.4c0,.1,2.7,8.3,2.7,8.3Z"/>
    <path class="cls-4" d="M338.7,428.2c-12.7-4.5-29.4-7-47.6-6.5-18.2.5-34.7,3.9-47.1,9l-23.6.6.6,22.6c.5,16.8,32.6,29.5,71.8,28.5,39.2-1.1,70.6-15.5,70.2-32.3l-.6-22.7-23.6.6Z"/>
    <path class="cls-9" d="M230.5,468h-.2c-.9,0-1.7-.7-1.8-1.7l-.6-23.7c0-.9.7-1.7,1.7-1.8h.2c.9,0,1.7.7,1.8,1.7l.6,23.7c0,.9-.7,1.7-1.7,1.8"/>
    <path class="cls-9" d="M247,476.3h-.2c-.9,0-1.7-.7-1.8-1.7l-.6-23.7c0-.9.7-1.7,1.7-1.8h.2c.9,0,1.7.7,1.8,1.7l.6,23.7c0,.9-.7,1.7-1.7,1.8"/>
    <path class="cls-9" d="M263.4,480.6h-.2c-.9,0-1.7-.7-1.8-1.7l-.6-23.7c0-.9.7-1.7,1.7-1.8h.2c.9,0,1.7.7,1.8,1.7l.6,23.7c0,.9-.7,1.7-1.7,1.8"/>
    <path class="cls-9" d="M279.7,482.3h-.2c-.9,0-1.7-.7-1.8-1.7l-.6-23.7c0-.9.7-1.7,1.7-1.8h.2c.9,0,1.7.7,1.8,1.7l.6,23.7c0,.9-.7,1.7-1.7,1.8"/>
    <path class="cls-9" d="M358.3,459.7h.2c.9,0,1.7-.8,1.7-1.8l-.6-23.7c0-.9-.8-1.7-1.8-1.7h-.2c-.9,0-1.7.8-1.7,1.8l.6,23.7c0,.9.8,1.7,1.8,1.7"/>
    <path class="cls-9" d="M345.3,470.3h.2c.9,0,1.7-.8,1.7-1.8l-.6-23.7c0-.9-.8-1.7-1.8-1.7h-.2c-.9,0-1.7.8-1.7,1.8l.6,23.7c0,.9.8,1.7,1.8,1.7"/>
    <path class="cls-9" d="M329.2,476.6h.2c.9,0,1.7-.8,1.7-1.8l-.6-23.7c0-.9-.8-1.7-1.8-1.7h-.2c-.9,0-1.7.8-1.7,1.8l.6,23.7c0,.9.8,1.7,1.8,1.7"/>
    <path class="cls-9" d="M313,480.5h.2c.9,0,1.7-.8,1.7-1.8l-.6-23.7c0-.9-.8-1.7-1.8-1.7h-.2c-.9,0-1.7.8-1.7,1.8l.6,23.7c0,.9.8,1.7,1.8,1.7"/>
    <path class="cls-9" d="M296,482.5h-.2c-.9,0-1.7-.7-1.8-1.7l-.6-23.7c0-.9.7-1.7,1.7-1.8h.2c.9,0,1.7.7,1.8,1.7l.6,23.7c0,.9-.7,1.7-1.7,1.8"/>
    <path class="cls-9" d="M362.3,425.9c.5,16.8-31,31.3-70.2,32.3-39.2,1.1-71.4-11.7-71.8-28.5-.5-16.8,31-31.3,70.2-32.3,39.2-1.1,71.4,11.7,71.8,28.5"/>
    <path class="cls-4" d="M236.5,428.4c-.3-12.5,24.5-23.4,56.3-25.1-1.3,0-2.6,0-4,0-33.7.9-60.7,12.2-60.3,25.3.4,13,27.9,22.9,61.6,21.9,1.3,0,2.7,0,4-.2-31.8,0-57.3-9.5-57.6-22"/>
    <path class="cls-4" d="M323.8,406.4s36.2,7.9,21.1,31.7c0,0,27.4-23.2-21.1-31.7"/>
    <path class="cls-4" d="M316.8,426.5l-6.1,17.1-10.1.3-5.6-16.8h-3.6c0,0-4.5,17.1-4.5,17.1l-10.1.3-7-16.7h-1.1c-.9,0-1.9.1-3.1.2-1.2,0-2.2.2-3,.2v-4.5c.7,0,1.5,0,2.6,0,1,0,1.9,0,2.8,0l-4.3-10.3,9-.2,4,10.4,8.1-.2,2.8-10.5,10.6-.3,3.4,10.4,8.1-.2,3.5-10.6,8.9-.2-3.8,10.6c.9,0,1.8,0,2.9-.1,1,0,1.9,0,2.7-.2v4.5c-.8,0-1.8,0-2.9,0-1.2,0-2.2,0-3.1,0h-1.1ZM281.4,435.6l2.2-8.2h-5.4c0,.1,3.2,8.2,3.2,8.2ZM292.5,423h1.1s-.6-1.9-.6-1.9l-.5,1.9ZM305.5,435l2.7-8.3h-5.4c0,.1,2.7,8.3,2.7,8.3Z"/>
    <path class="cls-9" d="M453.9,476.3c.5,16.8-31,31.3-70.2,32.3-39.2,1.1-71.4-11.7-71.8-28.5-.5-16.8,31-31.3,70.2-32.3,39.2-1.1,71.4,11.7,71.8,28.5"/>
    <path class="cls-4" d="M328.1,478.9c-.3-12.5,24.5-23.4,56.3-25.1-1.3,0-2.6,0-4,0-33.7.9-60.7,12.2-60.3,25.3.4,13,27.9,22.9,61.6,21.9,1.3,0,2.7,0,4-.2-31.8,0-57.3-9.5-57.6-22"/>
    <path class="cls-4" d="M415.4,456.9s36.2,7.9,21.1,31.7c0,0,27.4-23.2-21.1-31.7"/>
    <path class="cls-4" d="M408.4,477l-6.1,17.1-10.1.3-5.6-16.8h-3.6c0,0-4.5,17.1-4.5,17.1l-10.1.3-7-16.7h-1.1c-.9,0-1.9.1-3.1.2-1.2,0-2.2.2-3,.2v-4.5c.7,0,1.5,0,2.6,0,1,0,1.9,0,2.8,0l-4.3-10.3,9-.2,4,10.4,8.1-.2,2.8-10.5,10.6-.3,3.4,10.4,8.1-.2,3.5-10.6,8.9-.2-3.8,10.6c.9,0,1.8,0,2.9-.1,1,0,1.9,0,2.7-.2v4.5c-.8,0-1.8,0-2.9,0-1.2,0-2.2,0-3.1,0h-1.1ZM373,486.1l2.2-8.2h-5.4c0,.1,3.2,8.2,3.2,8.2ZM384,473.5h1.1s-.6-1.9-.6-1.9l-.5,1.9ZM397.1,485.5l2.7-8.3h-5.4c0,.1,2.7,8.3,2.7,8.3Z"/>
    <path class="cls-4" d="M436.8,450.4c-12.7-4.5-29.4-7-47.6-6.5-18.2.5-34.7,3.9-47.1,9l-23.6.6.6,22.6c.5,16.8,32.6,29.5,71.8,28.5s70.6-15.5,70.2-32.3l-.6-22.7-23.6.6Z"/>
    <path class="cls-9" d="M328.6,490.2h-.2c-.9,0-1.7-.7-1.8-1.7l-.6-23.7c0-.9.7-1.7,1.7-1.8h.2c.9,0,1.7.7,1.8,1.7l.6,23.7c0,.9-.7,1.7-1.7,1.8"/>
    <path class="cls-9" d="M456.4,482h.2c.9,0,1.7-.8,1.7-1.8l-.6-23.7c0-.9-.8-1.7-1.8-1.7h-.2c-.9,0-1.7.8-1.7,1.8l.6,23.7c0,.9.8,1.7,1.8,1.7"/>
    <path class="cls-9" d="M460.4,448.1c.5,16.8-31,31.3-70.2,32.3-39.2,1.1-71.4-11.7-71.8-28.5-.5-16.8,31-31.3,70.2-32.3,39.2-1.1,71.4,11.7,71.8,28.5"/>
    <path class="cls-4" d="M334.6,450.6c-.3-12.5,24.5-23.4,56.3-25.1-1.3,0-2.6,0-4,0-33.7.9-60.7,12.2-60.3,25.3.4,13,27.9,22.9,61.6,21.9,1.3,0,2.7,0,4-.2-31.8,0-57.3-9.5-57.6-22"/>
    <path class="cls-4" d="M421.9,428.7s36.2,7.9,21.1,31.7c0,0,27.4-23.2-21.1-31.7"/>
    <path class="cls-4" d="M414.9,448.7l-6.1,17.1-10.1.3-5.6-16.8h-3.6c0,0-4.5,17.1-4.5,17.1l-10.1.3-7-16.7h-1.1c-.9,0-1.9.1-3.1.2-1.2,0-2.2.2-3,.2v-4.5c.7,0,1.5,0,2.6,0,1,0,1.9,0,2.8,0l-4.3-10.3,9-.2,4,10.4,8.1-.2,2.8-10.5,10.6-.3,3.4,10.4,8.1-.2,3.5-10.6,8.9-.2-3.8,10.6c.9,0,1.8,0,2.9-.1,1,0,1.9,0,2.7-.2v4.5c-.8,0-1.8,0-2.9,0-1.2,0-2.2,0-3.1,0h-1.1ZM379.5,457.9l2.2-8.2h-5.4c0,.1,3.2,8.2,3.2,8.2ZM390.5,445.2h1.1s-.6-1.9-.6-1.9l-.5,1.9ZM403.6,457.3l2.7-8.3h-5.4c0,.1,2.7,8.3,2.7,8.3Z"/>
    <path class="cls-4" d="M441.7,428.3c-12.7-4.5-29.4-7-47.6-6.5-18.2.5-34.7,3.9-47.1,9l-23.6.6.6,22.6c.5,16.8,32.6,29.5,71.8,28.5s70.6-15.5,70.2-32.3l-.6-22.7-23.6.6Z"/>
    <path class="cls-9" d="M333.4,468.1h-.2c-.9,0-1.7-.7-1.8-1.7l-.6-23.7c0-.9.7-1.7,1.7-1.8h.2c.9,0,1.7.7,1.8,1.7l.6,23.7c0,.9-.7,1.7-1.7,1.8"/>
    <path class="cls-9" d="M349.9,476.4h-.2c-.9,0-1.7-.7-1.8-1.7l-.6-23.7c0-.9.7-1.7,1.7-1.8h.2c.9,0,1.7.7,1.8,1.7l.6,23.7c0,.9-.7,1.7-1.7,1.8"/>
    <path class="cls-9" d="M366.4,480.7h-.2c-.9,0-1.7-.7-1.8-1.7l-.6-23.7c0-.9.7-1.7,1.7-1.8h.2c.9,0,1.7.7,1.8,1.7l.6,23.7c0,.9-.7,1.7-1.7,1.8"/>
    <path class="cls-9" d="M382.7,482.4h-.2c-.9,0-1.7-.7-1.8-1.7l-.6-23.7c0-.9.7-1.7,1.7-1.8h.2c.9,0,1.7.7,1.8,1.7l.6,23.7c0,.9-.7,1.7-1.7,1.8"/>
    <path class="cls-9" d="M461.3,459.8h.2c.9,0,1.7-.8,1.7-1.8l-.6-23.7c0-.9-.8-1.7-1.8-1.7h-.2c-.9,0-1.7.8-1.7,1.8l.6,23.7c0,.9.8,1.7,1.8,1.7"/>
    <path class="cls-9" d="M448.3,470.4h.2c.9,0,1.7-.8,1.7-1.8l-.6-23.7c0-.9-.8-1.7-1.8-1.7h-.2c-.9,0-1.7.8-1.7,1.8l.6,23.7c0,.9.8,1.7,1.8,1.7"/>
    <path class="cls-9" d="M432.2,476.7h.2c.9,0,1.7-.8,1.7-1.8l-.6-23.7c0-.9-.8-1.7-1.8-1.7h-.2c-.9,0-1.7.8-1.7,1.8l.6,23.7c0,.9.8,1.7,1.8,1.7"/>
    <path class="cls-9" d="M416,480.6h.2c.9,0,1.7-.8,1.7-1.8l-.6-23.7c0-.9-.8-1.7-1.8-1.7h-.2c-.9,0-1.7.8-1.7,1.8l.6,23.7c0,.9.8,1.7,1.8,1.7"/>
    <path class="cls-9" d="M399,482.5h-.2c-.9,0-1.7-.7-1.8-1.7l-.6-23.7c0-.9.7-1.7,1.7-1.8h.2c.9,0,1.7.7,1.8,1.7l.6,23.7c0,.9-.7,1.7-1.7,1.8"/>
    <path class="cls-9" d="M465.3,426c.5,16.8-31,31.3-70.2,32.3-39.2,1.1-71.4-11.7-71.8-28.5-.5-16.8,31-31.3,70.2-32.3,39.2-1.1,71.4,11.7,71.8,28.5"/>
    <path class="cls-4" d="M339.5,428.5c-.3-12.5,24.5-23.4,56.3-25.1-1.3,0-2.6,0-4,0-33.7.9-60.7,12.2-60.3,25.3.4,13,27.9,22.9,61.6,21.9,1.3,0,2.7,0,4-.2-31.8,0-57.3-9.5-57.6-22"/>
    <path class="cls-4" d="M426.8,406.5s36.2,7.9,21.1,31.7c0,0,27.4-23.2-21.1-31.7"/>
    <path class="cls-4" d="M419.7,426.6l-6.1,17.1-10.1.3-5.6-16.8h-3.6c0,0-4.5,17.1-4.5,17.1l-10.1.3-7-16.7h-1.1c-.9,0-1.9.1-3.1.2-1.2,0-2.2.2-3,.2v-4.5c.7,0,1.5,0,2.6,0,1,0,1.9,0,2.8,0l-4.3-10.3,9-.2,4,10.4,8.1-.2,2.8-10.5,10.6-.3,3.4,10.4,8.1-.2,3.5-10.6,8.9-.2-3.8,10.6c.9,0,1.8,0,2.9-.1,1,0,1.9,0,2.7-.2v4.5c-.8,0-1.8,0-2.9,0-1.2,0-2.2,0-3.1,0h-1.1ZM384.4,435.7l2.2-8.2h-5.4c0,.1,3.2,8.2,3.2,8.2ZM395.4,423.1h1.1s-.6-1.9-.6-1.9l-.5,1.9ZM408.5,435.1l2.7-8.3h-5.4c0,.1,2.7,8.3,2.7,8.3Z"/>
    <path class="cls-4" d="M101.4,309.9c-5.9,1.1-13,3.8-20,8.1-7,4.2-12.7,9.2-16.3,14l-9.1,5.5,5.3,8.7c3.9,6.4,19.3,4.2,34.3-4.9,15-9.2,24.1-21.8,20.1-28.2l-5.3-8.7-9.1,5.5Z"/>
    <path class="cls-9" d="M68.1,349.5h0c-.4.2-.9.1-1.1-.3l-5.5-9c-.2-.4-.1-.9.3-1.1.4-.2.9-.1,1.1.3l5.5,9c.2.4.1.9-.3,1.1"/>
    <path class="cls-9" d="M76.3,349.1h0c-.4.2-.9.1-1.1-.3l-5.5-9c-.2-.4-.1-.9.3-1.1.4-.2.9-.1,1.1.3l5.5,9c.2.4.1.9-.3,1.1"/>
    <path class="cls-9" d="M83.7,347.1h0c-.4.2-.9.1-1.1-.3l-5.5-9c-.2-.4-.1-.9.3-1.1.4-.2.9-.1,1.1.3l5.5,9c.2.4.1.9-.3,1.1"/>
    <path class="cls-9" d="M90.4,344.1h0c-.4.2-.9.1-1.1-.3l-5.5-9c-.2-.4-.1-.9.3-1.1.4-.2.9-.1,1.1.3l5.5,9c.2.4.1.9-.3,1.1"/>
    <path class="cls-9" d="M116.1,317.8h0c.4-.2.5-.7.3-1.1l-5.5-9c-.2-.4-.7-.5-1.1-.3-.4.2-.5.7-.3,1.1l5.5,9c.2.4.7.5,1.1.3"/>
    <path class="cls-9" d="M113.4,324.8h0c.4-.2.5-.7.3-1.1l-5.5-9c-.2-.4-.7-.5-1.1-.3-.4.2-.5.7-.3,1.1l5.5,9c.2.4.7.5,1.1.3"/>
    <path class="cls-9" d="M108.5,330.8h0c.4-.2.5-.7.3-1.1l-5.5-9c-.2-.4-.7-.5-1.1-.3-.4.2-.5.7-.3,1.1l5.5,9c.2.4.7.5,1.1.3"/>
    <path class="cls-9" d="M103.1,336h0c.4-.2.5-.7.3-1.1l-5.5-9c-.2-.4-.7-.5-1.1-.3-.4.2-.5.7-.3,1.1l5.5,9c.2.4.7.5,1.1.3"/>
    <path class="cls-9" d="M96.8,340.6h0c-.4.2-.9.1-1.1-.3l-5.5-9c-.2-.4-.1-.9.3-1.1.4-.2.9-.1,1.1.3l5.5,9c.2.4.1.9-.3,1.1"/>
    <path class="cls-9" d="M110.1,303.7c3.9,6.4-5.1,19.1-20.1,28.2-15,9.2-30.4,11.3-34.3,4.9-3.9-6.4,5.1-19.1,20.1-28.2,15-9.2,30.4-11.3,34.3-4.9"/>
    <path class="cls-4" d="M61.6,332.7c-2.9-4.8,4.3-14.6,16.3-22.3-.5.3-1,.6-1.5.9-12.9,7.9-20.9,18.3-17.9,23.3,3,5,16,2.7,28.9-5.2.5-.3,1-.6,1.5-1-12.4,7.1-24.4,9.1-27.3,4.3"/>
    <path class="cls-4" d="M90.8,304.7s15.9-5,15.3,7.7c0,0,5.5-15.1-15.3-7.7"/>
    <path class="cls-4" d="M92.5,314.1l1.4,8-3.9,2.4-5.9-5.3-1.4.8,2,7.6-3.9,2.4-6.5-5-.4.2c-.4.2-.7.5-1.2.7-.4.3-.8.6-1.1.8l-1.1-1.7c.3-.1.7-.3,1.1-.6.4-.2.7-.4,1.1-.6l-4-3.1,3.5-2.1,3.9,3.1,3.1-1.9-1.3-4.7,4.1-2.5,3.6,3.3,3.1-1.9-1-4.9,3.4-2.1.9,5c.3-.2.7-.4,1.1-.7.4-.2.7-.5,1-.7l1.1,1.7c-.4.2-.8.4-1.2.6-.5.3-.9.5-1.2.7l-.4.2ZM80.7,325.5l-1-3.7-2.1,1.3,3,2.4ZM82.2,318.2l.4-.3-.6-.6.2.9ZM90,319.9l-.8-3.8-2.1,1.3,2.8,2.6Z"/>
    <path class="cls-4" d="M77.3,118.4c-3.2-3.1-7.9-6.2-13.5-8.6-5.6-2.4-11-3.7-15.5-3.9l-7.2-3.1-3,6.9c-2.2,5.1,5.7,13.5,17.7,18.7,12,5.2,23.5,5.2,25.8,0l3-6.9-7.2-3.1Z"/>
    <path class="cls-9" d="M38.9,115.2h0c-.3-.1-.4-.5-.3-.8l3.1-7.2c.1-.3.5-.4.8-.3.3.1.4.5.3.8l-3.1,7.2c-.1.3-.5.4-.8.3"/>
    <path class="cls-9" d="M42.8,120h0c-.3-.1-.4-.5-.3-.8l3.1-7.2c.1-.3.5-.4.8-.3.3.1.4.5.3.8l-3.1,7.2c-.1.3-.5.4-.8.3"/>
    <path class="cls-9" d="M47.1,123.7h0c-.3-.1-.4-.5-.3-.8l3.1-7.2c.1-.3.5-.4.8-.3.3.1.4.5.3.8l-3.1,7.2c-.1.3-.5.4-.8.3"/>
    <path class="cls-9" d="M51.8,126.4h0c-.3-.1-.4-.5-.3-.8l3.1-7.2c.1-.3.5-.4.8-.3h0c.3.1.4.5.3.8l-3.1,7.2c-.1.3-.5.4-.8.3"/>
    <path class="cls-9" d="M78.8,130.7h0c.3.1.7,0,.8-.3l3.1-7.2c.1-.3,0-.7-.3-.8-.3-.1-.7,0-.8.3l-3.1,7.2c-.1.3,0,.7.3.8"/>
    <path class="cls-9" d="M73.4,132h0c.3.1.7,0,.8-.3l3.1-7.2c.1-.3,0-.7-.3-.8-.3-.1-.7,0-.8.3l-3.1,7.2c-.1.3,0,.7.3.8"/>
    <path class="cls-9" d="M67.6,131.7h0c.3.1.7,0,.8-.3l3.1-7.2c.1-.3,0-.7-.3-.8-.3-.1-.7,0-.8.3l-3.1,7.2c-.1.3,0,.7.3.8"/>
    <path class="cls-9" d="M62.2,130.6h0c.3.1.7,0,.8-.3l3.1-7.2c.1-.3,0-.7-.3-.8-.3-.1-.7,0-.8.3l-3.1,7.2c-.1.3,0,.7.3.8"/>
    <path class="cls-9" d="M56.7,128.8h0c-.3-.1-.4-.5-.3-.8l3.1-7.2c.1-.3.5-.4.8-.3.3.1.4.5.3.8l-3.1,7.2c-.1.3-.5.4-.8.3"/>
    <path class="cls-9" d="M84.7,121c-2.2,5.1-13.7,5.1-25.8,0-12-5.2-19.9-13.5-17.7-18.7,2.2-5.1,13.7-5.1,25.8,0,12,5.2,19.9,13.5,17.7,18.7"/>
    <path class="cls-4" d="M46.3,104.1c1.7-3.8,10.7-3.6,20.5.3-.4-.2-.8-.4-1.2-.5-10.3-4.4-20.1-4.8-21.8-.8-1.7,4,5.2,10.8,15.5,15.3.4.2.8.3,1.2.5-9.6-4.4-16-10.9-14.3-14.7"/>
    <path class="cls-4" d="M75.8,109.7s9.9,7.5,1.9,12.6c0,0,11.5-3.2-1.9-12.6"/>
    <path class="cls-4" d="M70.9,114.8l-4.2,4.3-3.1-1.3.6-5.9-1.1-.5-3.8,4.5-3.1-1.3.2-6h-.3c-.3-.3-.6-.4-1-.5-.4-.1-.7-.3-.9-.4l.6-1.4c.2.1.5.3.8.4.3.1.6.3.9.4l.2-3.7,2.8,1.2-.2,3.7,2.5,1.1,2.3-2.8,3.2,1.4-.4,3.6,2.5,1.1,2.5-2.7,2.7,1.2-2.6,2.7c.3.1.6.2.9.4.3.1.6.2.8.3l-.6,1.4c-.3-.1-.6-.3-.9-.4-.4-.2-.7-.3-.9-.4h-.3ZM58.9,112.6l1.8-2.2-1.6-.7-.2,2.9ZM64,110.3h.3c0,.1,0-.5,0-.5l-.4.5ZM66.3,115.8l2-2.1-1.6-.7-.3,2.8Z"/>
  </g>
</svg>