<svg width="350" height="350" viewBox="0 0 350 350" fill="none" xmlns="http://www.w3.org/2000/svg">
<g clip-path="url(#clip0_644_1577)">
<rect width="350" height="350" rx="36" fill="#C19D76"/>
<path d="M193.917 139.388C209.262 139.388 221.701 126.948 221.701 111.603C221.701 96.258 209.262 83.8184 193.917 83.8184C178.572 83.8184 166.132 96.258 166.132 111.603C166.132 126.948 178.572 139.388 193.917 139.388Z" fill="#FFCB7C"/>
<path d="M177.38 108.975L211.293 109.552L210.681 113.89L177.912 113.653L177.38 108.975Z" fill="#FFE4BF"/>
<path d="M180.653 101.85L184.357 101.896L188.31 119.316L192.331 100.74L196.692 101.001L199.977 118.467L205.935 100.978L210.341 101.091L202.276 123.802L196.636 123.213L194.359 107.4L191.606 123.337L184.946 123.451L180.653 101.85Z" fill="#FFE4BF"/>
<path d="M149.481 313.425C187.872 313.425 218.994 302.264 218.994 288.495C218.994 274.726 187.872 263.564 149.481 263.564C111.09 263.564 79.9678 274.726 79.9678 288.495C79.9678 302.264 111.09 313.425 149.481 313.425Z" fill="#E8E8E8"/>
<path d="M217.25 226.038C217.25 246.29 207.055 265.942 178.138 278.368C174.604 280.407 175.997 289.717 172.35 294.86C166.165 297.272 158.78 297.068 151.792 298.077C147.351 298.722 136.761 283.08 132.083 283.08C125.536 283.08 118.989 292.606 109.169 294.429C104.559 295.29 93.6282 292.685 90.9211 291.858C84.3062 289.842 88.8822 282.412 95.2253 274.721C76.6153 263.643 64.5635 245.95 64.5635 226.026C64.5635 192.465 98.7366 165.258 140.907 165.258C183.076 165.258 217.25 192.476 217.25 226.038Z" fill="#FFD4CA"/>
<path d="M77.7702 195.637C77.7702 195.637 68.7993 172.745 81.1116 170.4C90.7168 168.577 102.961 187.968 102.961 187.968L77.7702 195.637Z" fill="#FFD4CA"/>
<path d="M113.246 187.118C113.246 187.118 122.602 165.484 134.45 169.55C143.693 172.722 136.704 195.081 136.704 195.081L113.246 187.118Z" fill="#FFB9AB"/>
<path d="M105.045 239.619C113.828 239.619 120.948 234.579 120.948 228.36C120.948 222.142 113.828 217.102 105.045 217.102C96.2626 217.102 89.1426 222.142 89.1426 228.36C89.1426 234.579 96.2626 239.619 105.045 239.619Z" fill="#FFB9AB"/>
<path d="M97.5246 230.999C98.6443 230.999 99.5521 230.132 99.5521 229.062C99.5521 227.992 98.6443 227.125 97.5246 227.125C96.4048 227.125 95.4971 227.992 95.4971 229.062C95.4971 230.132 96.4048 230.999 97.5246 230.999Z" fill="#FF775E"/>
<path d="M110.517 230.966C111.637 230.966 112.544 230.098 112.544 229.029C112.544 227.959 111.637 227.092 110.517 227.092C109.397 227.092 108.489 227.959 108.489 229.029C108.489 230.098 109.397 230.966 110.517 230.966Z" fill="#FF775E"/>
<path d="M96.8791 208.82C97.4115 207.891 98.6348 207.597 99.5975 208.163C100.56 208.718 100.923 209.93 100.39 210.848C99.8581 211.776 98.6348 212.071 97.672 211.505C96.6979 210.949 96.3467 209.749 96.8791 208.82Z" fill="black"/>
<path d="M112.646 208.888C113.178 207.96 114.401 207.665 115.364 208.231C116.327 208.786 116.689 209.998 116.157 210.916C115.625 211.833 114.401 212.139 113.439 211.573C112.464 211.018 112.113 209.806 112.646 208.888Z" fill="black"/>
<path d="M153.876 173.9L152.947 177.616C152.947 177.616 158.996 177.967 167.548 180.017C176.099 182.067 178.274 183.562 178.274 183.562L179.984 179.7C179.984 179.7 171.603 177.072 167.446 175.962C163.3 174.841 153.876 173.9 153.876 173.9Z" fill="#FFB9AB"/>
<path d="M92.8357 269.192C97.7402 274.505 104.899 276.645 111.74 278.197C113.156 278.526 113.768 276.34 112.341 276.011C105.884 274.539 99.0768 272.613 94.4441 267.584C93.4473 266.519 91.8502 268.128 92.8357 269.192Z" fill="#FFE2DC"/>
<path d="M98.1133 277.778C96.5615 280.406 94.9191 282.978 93.1974 285.503C92.8576 286.013 93.1068 286.761 93.6052 287.055C94.1602 287.384 94.8058 287.157 95.157 286.647C96.8787 284.133 98.5211 281.55 100.062 278.922C100.809 277.665 98.8495 276.533 98.1133 277.778Z" fill="#FFE2DC"/>
<path d="M128.221 281.244C144.316 282.819 160.208 278.933 175.703 275.048C177.119 274.697 176.519 272.511 175.103 272.862C159.789 276.691 144.124 280.531 128.221 278.979C126.771 278.843 126.782 281.108 128.221 281.244Z" fill="#FFE2DC"/>
<path d="M147.635 287.406C148.983 287.848 150.342 288.29 151.69 288.731C152.256 288.913 152.947 288.516 153.083 287.939C153.23 287.316 152.89 286.738 152.29 286.545C150.942 286.104 149.583 285.662 148.235 285.22C147.669 285.039 146.978 285.435 146.842 286.013C146.695 286.636 147.034 287.214 147.635 287.406Z" fill="#FFE2DC"/>
<path d="M80.2398 174.399C77.4307 179.032 76.9097 184.944 78.9485 189.985C79.1751 190.551 79.7074 190.959 80.3417 190.778C80.8741 190.63 81.3611 189.951 81.1346 189.384C79.2996 184.876 79.6621 179.723 82.188 175.554C82.9582 174.297 80.9987 173.153 80.2398 174.399Z" fill="#FFE2DC"/>
<path d="M72.7301 202.987C65.9566 217.61 66.489 235.054 74.2139 249.224C74.9161 250.503 76.8644 249.359 76.1734 248.08C68.8676 234.68 68.2786 217.995 74.6896 204.131C75.3012 202.806 73.3417 201.662 72.7301 202.987Z" fill="#FFE2DC"/>
<path d="M211.836 229.957C211.496 237.727 208.732 245.328 203.941 251.467C203.057 252.6 204.643 254.219 205.538 253.064C210.726 246.426 213.727 238.373 214.101 229.957C214.158 228.496 211.892 228.496 211.836 229.957Z" fill="#FFE2DC"/>
<path d="M93.492 179.744C94.9985 181.579 96.7654 183.165 98.7023 184.535C99.1894 184.875 99.9823 184.637 100.254 184.128C100.56 183.55 100.367 182.938 99.8463 182.576C99.6198 182.417 99.3933 182.247 99.1667 182.078C99.1101 182.032 99.0421 181.987 98.9855 181.942C99.0535 181.998 99.0988 182.032 99.0082 181.953C98.8949 181.862 98.7816 181.772 98.657 181.681C98.2266 181.33 97.7962 180.956 97.3884 180.582C96.5616 179.823 95.8027 178.997 95.0891 178.136C94.7153 177.683 93.8771 177.717 93.492 178.136C93.0389 178.634 93.0842 179.257 93.492 179.744Z" fill="#FFE2DC"/>
<path d="M117.709 171.045C115.342 172.133 112.963 173.209 110.596 174.296C110.052 174.545 109.882 175.372 110.188 175.848C110.551 176.403 111.162 176.516 111.74 176.256C114.107 175.168 116.486 174.092 118.853 173.005C119.397 172.756 119.567 171.929 119.261 171.453C118.898 170.887 118.287 170.774 117.709 171.045Z" fill="#FFE2DC"/>
<path d="M83.0378 186.79C79.8889 189.101 77.2838 192.068 75.4488 195.523C75.109 196.169 76.0831 196.735 76.4229 196.089C78.1673 192.827 80.6252 189.962 83.6155 187.764C84.1931 187.345 83.6268 186.36 83.0378 186.79Z" fill="black"/>
<path d="M134.778 174.229C135.209 177.31 135.265 180.447 134.937 183.551C134.688 185.873 134.167 188.637 132.06 190.007C131.448 190.404 132.015 191.378 132.626 190.981C134.892 189.52 135.651 186.825 135.979 184.299C136.421 180.855 136.353 177.367 135.877 173.935C135.764 173.21 134.676 173.515 134.778 174.229Z" fill="black"/>
<path d="M123.055 192.091C127.677 193.54 132.343 194.809 137.055 195.908C137.769 196.078 138.063 194.979 137.361 194.82C132.649 193.722 127.971 192.453 123.361 191.003C122.659 190.777 122.364 191.875 123.055 192.091Z" fill="black"/>
<path d="M78.6315 171.205C74.0781 175.861 74.4519 182.725 74.973 188.728C75.0409 189.453 76.1736 189.453 76.1057 188.728C75.6073 183.065 75.1089 176.427 79.4244 172.01C79.9455 171.477 79.1413 170.684 78.6315 171.205Z" fill="black"/>
<path d="M93.7301 276.714C98.6233 278.266 103.607 279.534 108.659 280.508C109.372 280.644 109.678 279.557 108.965 279.421C103.924 278.447 98.9404 277.178 94.0359 275.627C93.3336 275.4 93.0278 276.487 93.7301 276.714Z" fill="black"/>
<path d="M119.555 296.887L118.638 313.061L150.942 342.024C150.942 342.024 237.071 321.466 241.444 314.488C240.56 305.857 240.571 302.81 240.571 302.81L195.842 274.188C195.853 274.188 161.057 296.626 119.555 296.887Z" fill="#8BA084"/>
<path d="M120.597 295.957C126.159 300.737 131.041 306.095 135.549 311.871C138.754 315.983 142.503 319.721 146.196 323.391C148.11 325.294 150.047 327.185 152.052 328.986C152.596 329.473 153.4 328.669 152.856 328.182C148.96 324.693 145.279 320.956 141.699 317.15C140 315.349 138.324 313.525 136.761 311.588C134.665 308.994 132.638 306.355 130.384 303.886C127.563 300.794 124.562 297.883 121.39 295.164C120.846 294.689 120.042 295.481 120.597 295.957Z" fill="#D3E2CE"/>
<path d="M153.501 329.349C165.27 326.472 177.039 323.595 188.807 320.718C199.896 318.01 210.997 315.258 221.825 311.622C227.874 309.595 233.832 307.273 239.608 304.565C240.265 304.26 239.699 303.274 239.042 303.591C228.712 308.428 217.838 311.951 206.851 314.964C195.649 318.022 184.333 320.661 173.052 323.413C166.437 325.033 159.822 326.642 153.207 328.261C152.493 328.431 152.788 329.519 153.501 329.349Z" fill="#D3E2CE"/>
<path d="M154.114 331.853C165.882 328.976 177.651 326.099 189.42 323.222C200.509 320.514 211.609 317.762 222.437 314.126C228.486 312.099 234.444 309.777 240.221 307.069C240.878 306.764 240.311 305.778 239.654 306.095C229.324 310.932 218.45 314.455 207.463 317.467C196.261 320.526 184.946 323.165 173.664 325.917C167.049 327.537 160.434 329.145 153.819 330.765C153.106 330.935 153.4 332.034 154.114 331.853Z" fill="#D3E2CE"/>
<path d="M153.581 334.673C165.349 331.796 177.118 328.919 188.886 326.042C199.975 323.335 211.076 320.582 221.904 316.946C227.953 314.919 233.911 312.597 239.687 309.89C240.344 309.584 239.778 308.598 239.121 308.916C228.791 313.752 217.917 317.275 206.93 320.288C195.728 323.346 184.412 325.985 173.131 328.738C166.516 330.357 159.901 331.966 153.286 333.586C152.573 333.744 152.867 334.843 153.581 334.673Z" fill="#D3E2CE"/>
<path d="M152.947 336.96C164.715 334.083 176.484 331.206 188.253 328.329C199.342 325.622 210.442 322.869 221.27 319.233C227.319 317.206 233.277 314.884 239.054 312.177C239.711 311.871 239.144 310.886 238.487 311.203C228.157 316.039 217.283 319.562 206.296 322.575C195.094 325.633 183.779 328.272 172.497 331.025C165.882 332.644 159.267 334.253 152.652 335.873C151.939 336.043 152.233 337.13 152.947 336.96Z" fill="#D3E2CE"/>
<path d="M153.139 339.362C164.907 336.485 176.676 333.608 188.445 330.731C199.534 328.024 210.634 325.272 221.462 321.636C227.511 319.608 233.469 317.286 239.246 314.579C239.903 314.273 239.336 313.288 238.679 313.605C228.349 318.442 217.475 321.964 206.488 324.977C195.286 328.036 183.971 330.675 172.689 333.427C166.074 335.047 159.459 336.655 152.844 338.275C152.131 338.434 152.437 339.532 153.139 339.362Z" fill="#D3E2CE"/>
<path d="M152.302 328.556C151.837 330.64 151.373 332.735 151.101 334.854C150.829 336.972 150.886 339.135 150.433 341.242C150.285 341.956 151.373 342.261 151.52 341.548C151.95 339.509 151.928 337.413 152.166 335.352C152.415 333.166 152.902 331.014 153.389 328.873C153.559 328.148 152.46 327.842 152.302 328.556Z" fill="#D3E2CE"/>
<path d="M159.98 288.244L190.382 319.563L190.699 332.26L201.108 329.508L202.037 316.108L170.956 284.801L159.98 288.244Z" fill="white"/>
<path d="M192.137 319.97C195.501 319.358 198.979 318.679 201.822 316.663C202.411 316.244 201.844 315.258 201.255 315.689C198.48 317.637 195.105 318.282 191.843 318.871C191.129 319.007 191.424 320.106 192.137 319.97Z" fill="#E8E8E8"/>
<path d="M191.877 332.68C193.61 332.012 195.423 331.649 197.224 331.253C198.617 330.947 200.271 330.664 201.052 329.305C201.415 328.67 200.441 328.104 200.078 328.738C199.421 329.894 197.598 330.018 196.442 330.268C194.8 330.619 193.157 330.981 191.583 331.593C190.903 331.853 191.198 332.952 191.877 332.68Z" fill="#E8E8E8"/>
<path d="M162.891 288.391C164.817 287.791 166.754 287.247 168.713 286.772C169.416 286.602 169.121 285.503 168.407 285.684C166.448 286.16 164.511 286.704 162.585 287.304C161.895 287.519 162.189 288.618 162.891 288.391Z" fill="#E8E8E8"/>
<path d="M110.211 276.488L109.361 290.918L141.28 324.094C141.28 324.094 227.41 303.536 231.782 296.559C230.899 287.928 230.91 284.881 230.91 284.881L186.18 256.258C186.203 256.246 151.724 276.227 110.211 276.488Z" fill="#A3BF9C"/>
<path d="M110.947 278.028C116.508 282.808 121.39 288.166 125.898 293.942C129.104 298.054 132.853 301.792 136.546 305.462C138.46 307.365 140.397 309.256 142.402 311.057C142.945 311.544 143.749 310.74 143.206 310.253C139.309 306.764 135.628 303.026 132.049 299.221C130.35 297.42 128.673 295.596 127.11 293.659C125.015 291.065 122.987 288.426 120.733 285.957C117.913 282.865 114.911 279.954 111.74 277.235C111.196 276.748 110.392 277.552 110.947 278.028Z" fill="#D3E2CE"/>
<path d="M143.852 311.419C155.621 308.542 167.389 305.665 179.158 302.788C190.247 300.081 201.347 297.328 212.176 293.692C218.224 291.665 224.182 289.343 229.959 286.636C230.616 286.33 230.049 285.345 229.393 285.662C219.062 290.498 208.189 294.021 197.202 297.034C185.999 300.092 174.684 302.731 163.402 305.484C156.787 307.103 150.172 308.712 143.558 310.332C142.844 310.502 143.138 311.589 143.852 311.419Z" fill="#D3E2CE"/>
<path d="M144.463 313.923C156.232 311.046 168.001 308.169 179.769 305.292C190.858 302.585 201.959 299.832 212.787 296.196C218.836 294.169 224.794 291.847 230.57 289.14C231.227 288.834 230.661 287.848 230.004 288.166C219.674 293.002 208.8 296.525 197.813 299.538C186.611 302.596 175.295 305.235 164.014 307.988C157.399 309.607 150.784 311.216 144.169 312.836C143.455 313.005 143.75 314.093 144.463 313.923Z" fill="#D3E2CE"/>
<path d="M143.931 316.732C155.7 313.854 167.468 310.977 179.237 308.1C190.326 305.393 201.426 302.641 212.255 299.005C218.303 296.977 224.261 294.655 230.038 291.948C230.695 291.643 230.129 290.657 229.472 290.974C219.142 295.811 208.268 299.333 197.281 302.346C186.078 305.405 174.763 308.044 163.481 310.796C156.866 312.416 150.252 314.024 143.637 315.644C142.923 315.814 143.218 316.901 143.931 316.732Z" fill="#D3E2CE"/>
<path d="M143.296 319.021C155.065 316.144 166.834 313.267 178.602 310.39C189.691 307.682 200.792 304.93 211.62 301.294C217.669 299.267 223.627 296.945 229.403 294.237C230.06 293.932 229.494 292.946 228.837 293.263C218.507 298.1 207.633 301.623 196.646 304.635C185.444 307.694 174.128 310.333 162.847 313.085C156.232 314.705 149.617 316.313 143.002 317.933C142.288 318.103 142.583 319.202 143.296 319.021Z" fill="#D3E2CE"/>
<path d="M143.489 321.421C155.258 318.544 167.027 315.667 178.795 312.79C189.884 310.083 200.985 307.33 211.813 303.694C217.862 301.667 223.82 299.345 229.596 296.638C230.253 296.332 229.687 295.347 229.03 295.664C218.7 300.5 207.826 304.023 196.839 307.036C185.637 310.094 174.321 312.733 163.04 315.486C156.425 317.105 149.81 318.714 143.195 320.334C142.481 320.503 142.787 321.591 143.489 321.421Z" fill="#D3E2CE"/>
<path d="M142.651 310.626C142.187 312.71 141.722 314.806 141.451 316.924C141.179 319.042 141.235 321.205 140.782 323.312C140.635 324.026 141.722 324.332 141.87 323.618C142.3 321.579 142.277 319.484 142.515 317.422C142.764 315.236 143.251 313.084 143.727 310.943C143.908 310.218 142.81 309.913 142.651 310.626Z" fill="#D3E2CE"/>
<path d="M150.331 270.314L180.732 301.622L181.049 314.319L191.459 311.566L192.388 298.178L161.307 266.859L150.331 270.314Z" fill="white"/>
<path d="M182.499 302.04C185.863 301.429 189.34 300.749 192.183 298.733C192.772 298.314 192.206 297.328 191.617 297.759C188.842 299.707 185.467 300.353 182.204 300.942C181.48 301.078 181.774 302.165 182.499 302.04Z" fill="#E8E8E8"/>
<path d="M182.227 314.75C183.96 314.082 185.772 313.72 187.573 313.323C188.967 313.017 190.62 312.734 191.402 311.375C191.764 310.741 190.79 310.174 190.428 310.809C189.771 311.964 187.947 312.089 186.792 312.338C185.149 312.689 183.507 313.051 181.933 313.663C181.253 313.912 181.547 315.011 182.227 314.75Z" fill="#E8E8E8"/>
<path d="M153.242 270.462C155.167 269.861 157.104 269.318 159.064 268.842C159.766 268.672 159.472 267.573 158.758 267.754C156.799 268.23 154.862 268.774 152.936 269.374C152.245 269.578 152.54 270.677 153.242 270.462Z" fill="#E8E8E8"/>
<path d="M109.599 276.862C120.031 277.666 130.441 275.865 140.544 273.43C143.444 272.728 146.332 271.98 149.209 271.221C149.912 271.04 149.617 269.941 148.903 270.134C138.879 272.784 128.73 275.356 118.321 275.854C115.41 275.99 112.488 275.967 109.577 275.741C108.874 275.673 108.874 276.805 109.599 276.862Z" fill="black"/>
<path d="M162.915 267.153C170.923 264.797 178.762 261.864 186.351 258.386C187.007 258.08 186.441 257.106 185.784 257.412C178.286 260.856 170.538 263.744 162.621 266.066C161.907 266.27 162.213 267.357 162.915 267.153Z" fill="black"/>
<path d="M218.247 279.829C219.493 280.815 220.863 281.585 222.347 282.151C222.63 282.253 222.97 282.027 223.049 281.755C223.14 281.438 222.936 281.166 222.653 281.053C221.396 280.577 220.116 279.863 219.051 279.025C218.813 278.833 218.485 278.787 218.247 279.025C218.054 279.229 218.009 279.637 218.247 279.829Z" fill="black"/>
<path d="M214.667 282.615C216.683 283.669 218.688 284.711 220.705 285.764C221.35 286.104 221.928 285.119 221.271 284.79C219.255 283.737 217.25 282.695 215.234 281.641C214.599 281.301 214.022 282.275 214.667 282.615Z" fill="black"/>
<path d="M138.925 321.716C139.355 322.305 139.774 322.905 140.205 323.494C140.295 323.619 140.397 323.71 140.545 323.755C140.68 323.789 140.862 323.778 140.986 323.698C141.224 323.54 141.371 323.177 141.19 322.928C140.76 322.339 140.341 321.739 139.91 321.15C139.82 321.025 139.718 320.934 139.57 320.889C139.435 320.855 139.253 320.867 139.129 320.946C138.891 321.093 138.732 321.456 138.925 321.716Z" fill="black"/>
<path d="M183.858 337.291C185.625 336.758 187.403 336.226 189.17 335.694C189.861 335.478 189.567 334.391 188.865 334.606C187.098 335.139 185.319 335.671 183.552 336.203C182.861 336.407 183.156 337.506 183.858 337.291Z" fill="black"/>
<path d="M189.284 339.079C192.467 338.127 195.661 337.176 198.844 336.225C199.546 336.021 199.24 334.922 198.538 335.137C195.355 336.089 192.161 337.04 188.978 337.992C188.287 338.195 188.582 339.283 189.284 339.079Z" fill="black"/>
<path d="M246.597 107.105C266.532 93.6717 280.691 111.115 286.286 135.479C291.066 130.994 295.835 138.164 295.71 142.615C295.563 148.007 291.508 155.245 287.294 153.5C286.354 162.901 279.921 170.853 268.197 176.788C267.823 179.677 270.734 199.431 269.5 202.24C265.773 210.678 241.93 202.681 237.105 203.973C237.105 186.858 239.189 192.238 243.901 174.036C239.314 170.558 233.786 164.691 233.458 156.558C229.493 157.974 223.649 154.599 222.867 147.701C221.802 138.39 234.33 115.374 246.597 107.105Z" fill="#FFE4D6"/>
<path d="M293.603 98.8148C293.603 98.8148 301.521 120.687 287.974 124.742C287.26 124.957 288.2 136.42 285.912 136.397C283.273 136.375 277.734 122.714 276.59 122.692C255.704 122.148 245.521 122.692 243.199 119.079C230.479 123.972 236.992 127.585 236.72 139.784C235.938 141.506 234.251 143.386 233.186 140.033C228.757 126.101 222.663 144.451 222.663 144.451C223.026 144.451 211.801 133.792 213.103 119.464C214.972 98.8601 223.162 96.7646 230.694 100.412C239.744 84.3391 253.835 79.5931 265.649 91.1012C277.451 102.575 284.508 104.648 293.603 98.8148Z" fill="#ABABAB"/>
<path d="M252.816 136.534C252.476 137.191 251.661 137.451 251.015 137.112C250.358 136.772 250.109 135.956 250.449 135.299C250.788 134.642 251.593 134.382 252.25 134.733C252.906 135.073 253.156 135.877 252.816 136.534Z" fill="black"/>
<path d="M300.875 311.126C300.875 311.126 241.794 308.43 227.171 310.741C205.378 314.184 217.747 412.071 217.747 412.071L295.121 412.354C295.121 412.354 301.645 390.414 300.875 311.126Z" fill="black"/>
<path d="M267.257 136.794C266.917 137.451 266.102 137.711 265.456 137.371C264.799 137.031 264.55 136.216 264.89 135.559C265.23 134.902 266.034 134.641 266.691 134.981C267.348 135.321 267.597 136.137 267.257 136.794Z" fill="black"/>
<path d="M250.085 147.147C249.462 150.092 246.574 151.973 243.64 151.35C240.707 150.727 238.838 147.827 239.461 144.882C240.084 141.937 242.972 140.057 245.906 140.68C248.839 141.303 250.708 144.202 250.085 147.147Z" fill="#FFD3D0"/>
<path d="M280.068 146.376C279.445 149.321 276.556 151.201 273.623 150.578C270.689 149.955 268.82 147.056 269.443 144.111C270.066 141.166 272.954 139.285 275.888 139.908C278.822 140.531 280.702 143.431 280.068 146.376Z" fill="#FFD3D0"/>
<path d="M181.479 252.204C181.83 237.094 199.455 182.849 232.076 183.03C238.136 178.919 242.27 175.611 242.27 175.611L256.553 196.883L269.33 177.65C269.33 177.65 272.671 181.728 276.013 187.958C285.04 191.333 302.812 189.351 312.146 209.898C318.681 224.294 320.527 221.723 324.379 247.888C328.23 274.064 319.995 294.124 305.236 298.179C306.527 308.396 305.667 312.95 300.196 317.469C291.61 324.56 219.979 318.024 219.979 318.024C210.498 309.993 207.429 307.875 208.199 297.103C184.22 302.121 180.946 275.163 181.479 252.204Z" fill="white"/>
<path d="M260.439 213.07C260.439 213.84 259.816 214.451 259.057 214.451C258.298 214.451 257.675 213.828 257.675 213.07C257.675 212.299 258.298 211.688 259.057 211.688C259.816 211.676 260.439 212.299 260.439 213.07Z" fill="white"/>
<path d="M285.335 106.54C284.768 109.553 283.137 112.091 280.487 113.665C277.746 115.296 274.449 115.817 271.301 115.919C263.983 116.168 256.53 114.379 249.678 111.921C246.88 110.924 244.037 109.791 241.534 108.183C240.922 107.786 240.344 108.772 240.967 109.157C243.267 110.629 245.86 111.694 248.42 112.646C251.886 113.948 255.466 114.99 259.09 115.76C262.851 116.565 266.713 117.097 270.564 117.052C273.94 117.018 277.451 116.542 280.487 114.956C283.692 113.291 285.788 110.358 286.456 106.824C286.569 106.133 285.471 105.827 285.335 106.54Z" fill="black"/>
<path d="M276.568 105.169C269.817 110.334 259.725 107.989 252.929 104.081C252.295 103.719 251.728 104.693 252.362 105.056C258.06 108.329 265.434 110.311 271.947 108.635C273.827 108.148 275.605 107.321 277.146 106.143C277.712 105.713 277.157 104.727 276.568 105.169Z" fill="black"/>
<path d="M266.77 97.6711C263.825 95.1226 259.86 93.7067 256.1 92.9591C252.033 92.1549 247.525 92.0303 243.652 93.718C241.647 94.5902 239.948 96.0174 238.849 97.9203C238.487 98.5546 239.461 99.1209 239.823 98.4866C241.737 95.1565 245.532 93.8313 249.179 93.5821C253.166 93.3103 257.244 94.0805 260.948 95.5643C262.737 96.2779 264.516 97.1954 265.977 98.464C266.509 98.9397 267.313 98.1468 266.77 97.6711Z" fill="black"/>
<path d="M236.709 109.089C233.005 109.27 229.992 111.83 228.18 114.911C226.005 118.638 225.405 123.214 226.379 127.405C227.024 130.202 228.384 132.751 230.196 134.971C230.66 135.537 231.453 134.733 231 134.167C228.168 130.69 226.696 126.283 227.138 121.787C227.489 118.196 229.086 114.549 231.884 112.193C233.243 111.049 234.919 110.29 236.709 110.199C237.434 110.177 237.434 109.044 236.709 109.089Z" fill="black"/>
<path d="M224.793 105.554C221.214 107.31 219.821 111.433 219.424 115.137C218.948 119.554 219.662 124.232 221.304 128.344C222.109 130.349 223.151 132.309 224.669 133.872C225.178 134.393 225.982 133.588 225.473 133.067C222.811 130.338 221.531 126.294 220.874 122.624C220.183 118.75 220.081 114.367 221.656 110.686C222.414 108.919 223.615 107.378 225.371 106.517C226.016 106.211 225.45 105.226 224.793 105.554Z" fill="black"/>
<path d="M256.598 199.023L263.44 209.931L260.302 216.41L270.361 280.43L257.323 302.404L248.013 278.187L251.23 218.075L248.273 209.569L256.598 199.023Z" fill="black"/>
<path d="M313.72 123.576C311.047 128.22 307.116 132.116 302.903 135.367C302.54 135.65 302.348 136.092 302.597 136.534C302.801 136.896 303.401 137.123 303.764 136.84C308.215 133.408 312.361 129.341 315.192 124.437C315.725 123.485 314.264 122.624 313.72 123.576Z" fill="black"/>
<path d="M317.446 136.159C317.254 136.307 317.526 136.103 317.401 136.193C317.344 136.239 317.299 136.273 317.242 136.307C317.129 136.386 317.016 136.465 316.903 136.545C316.653 136.714 316.393 136.873 316.132 137.032C315.6 137.349 315.056 137.643 314.513 137.926C313.595 138.402 312.655 138.833 311.726 139.297C311.319 139.501 311.205 140.079 311.42 140.464C311.67 140.883 312.168 140.973 312.587 140.769C314.66 139.739 316.823 138.81 318.647 137.371C319.009 137.088 318.941 136.465 318.647 136.171C318.285 135.797 317.809 135.865 317.446 136.159Z" fill="black"/>
<path d="M256.496 137.711C256.542 140.962 256.281 144.201 255.16 147.271C255.012 147.69 255.33 148.211 255.749 148.313C257.787 148.8 259.883 149.106 261.99 148.845C262.443 148.788 262.839 148.494 262.839 147.996C262.839 147.576 262.443 147.089 261.99 147.146C260.03 147.395 258.116 147.135 256.202 146.682C256.394 147.033 256.598 147.384 256.791 147.724C257.946 144.518 258.229 141.097 258.184 137.711C258.184 136.612 256.485 136.612 256.496 137.711Z" fill="black"/>
<path d="M232.902 142.423C231.758 141.88 230.422 141.54 229.176 141.947C228.145 142.276 227.307 143.035 226.843 144.02C225.778 146.263 226.48 148.947 228.122 150.714C229.334 152.028 231.033 152.81 232.766 153.161C233.831 153.376 234.296 151.745 233.22 151.519C231.928 151.258 230.648 150.737 229.754 149.933C229.55 149.74 229.346 149.548 229.165 149.333C229.006 149.14 228.961 149.083 228.779 148.789C228.643 148.574 228.519 148.347 228.417 148.109C228.315 147.894 228.451 148.211 228.406 148.075C228.383 148.019 228.36 147.962 228.338 147.905C228.292 147.769 228.247 147.634 228.202 147.486C228.145 147.282 228.1 147.067 228.066 146.863C228.1 147.079 228.054 146.739 228.054 146.671C228.043 146.535 228.043 146.399 228.043 146.263C228.043 146.15 228.054 146.036 228.054 145.923C228.054 145.878 228.066 145.833 228.066 145.787C228.088 145.561 228.032 145.969 228.066 145.753C228.1 145.538 228.145 145.334 228.213 145.13C228.247 145.028 228.281 144.938 228.315 144.836C228.224 145.051 228.36 144.757 228.383 144.711C228.428 144.621 228.485 144.53 228.53 144.451C228.553 144.417 228.576 144.383 228.598 144.349C228.723 144.145 228.553 144.394 228.643 144.281C228.757 144.145 228.881 144.032 229.017 143.907C229.165 143.771 228.859 144.009 229.029 143.896C229.063 143.873 229.097 143.85 229.131 143.828C229.232 143.76 229.334 143.714 229.436 143.647C229.47 143.624 229.504 143.613 229.55 143.601C229.334 143.703 229.584 143.59 229.629 143.579C229.731 143.545 229.821 143.522 229.923 143.499C229.98 143.488 230.048 143.477 230.105 143.465C229.878 143.499 230.093 143.465 230.139 143.465C230.275 143.465 230.41 143.454 230.546 143.465C230.592 143.465 230.637 143.477 230.682 143.477C230.728 143.477 230.773 143.488 230.83 143.488C230.739 143.477 230.728 143.477 230.784 143.488C230.92 143.511 231.056 143.545 231.192 143.579C231.543 143.669 231.792 143.771 232.03 143.884C232.449 144.077 232.948 143.998 233.197 143.579C233.423 143.216 233.321 142.627 232.902 142.423Z" fill="black"/>
<path d="M235.236 184.944C239.393 191.683 242.293 199.069 246.246 205.921C246.79 206.873 248.262 206.012 247.719 205.06C243.777 198.208 240.866 190.823 236.709 184.083C236.131 183.154 234.67 184.004 235.236 184.944Z" fill="black"/>
<path d="M274.132 187.244C270.802 194.448 267.076 201.448 263.757 208.663C263.304 209.649 264.765 210.509 265.229 209.524C268.537 202.309 272.275 195.309 275.605 188.105C276.058 187.119 274.597 186.259 274.132 187.244Z" fill="black"/>
<path d="M218.552 264.799C215.652 272.819 218.122 281.608 221.055 289.243C221.44 290.251 223.083 289.82 222.698 288.79C219.877 281.427 217.397 272.989 220.195 265.241C220.557 264.222 218.926 263.78 218.552 264.799Z" fill="black"/>
<path d="M302.042 293.479C304.375 291.927 306.006 289.333 306.856 286.706C307.717 284.055 307.739 280.986 305.802 278.799C305.078 277.984 303.877 279.185 304.602 280C306.165 281.756 305.87 284.361 305.168 286.422C304.443 288.552 303.084 290.749 301.192 292.018C300.275 292.607 301.124 294.079 302.042 293.479Z" fill="black"/>
<path d="M252.136 156.016C253.892 158.213 256.508 159.595 259.34 159.651C262.183 159.708 264.573 158.077 266.034 155.721C266.612 154.792 265.139 153.931 264.562 154.86C263.361 156.786 261.469 158.032 259.159 157.941C256.814 157.839 254.775 156.616 253.337 154.804C253.053 154.441 252.442 154.509 252.136 154.804C251.785 155.166 251.853 155.664 252.136 156.016Z" fill="black"/>
<path d="M265.819 130.168C265.876 130.077 265.921 129.986 265.989 129.907C266.012 129.885 266.148 129.703 266.046 129.828C266.159 129.681 266.283 129.545 266.419 129.409C266.714 129.126 266.805 129.058 267.144 128.842C267.518 128.616 267.688 128.537 268.028 128.423C268.198 128.367 268.368 128.321 268.549 128.276C268.639 128.253 268.741 128.242 268.832 128.219C268.889 128.208 268.889 128.208 268.809 128.219C268.866 128.208 268.923 128.208 268.968 128.208C269.16 128.197 269.342 128.185 269.534 128.197C269.614 128.197 269.693 128.208 269.772 128.208C269.976 128.231 269.682 128.185 269.863 128.219C270.044 128.253 270.225 128.299 270.406 128.355C270.486 128.378 270.554 128.412 270.633 128.435C270.486 128.367 270.769 128.503 270.792 128.525C271.154 128.729 271.256 128.808 271.528 129.114C271.641 129.239 271.698 129.318 271.822 129.522C271.947 129.715 272.049 129.93 272.139 130.134C272.321 130.553 272.944 130.655 273.306 130.44C273.737 130.19 273.793 129.703 273.612 129.273C272.819 127.427 270.973 126.317 268.968 126.498C267.11 126.656 265.309 127.664 264.358 129.296C263.792 130.258 265.264 131.119 265.819 130.168Z" fill="black"/>
<path d="M245.6 131.006C245.929 130.372 246.654 129.964 247.277 129.658C247.956 129.307 248.727 129.08 249.486 129.001C250.731 128.854 252.464 128.978 253.212 130.156C253.79 131.074 255.262 130.224 254.685 129.295C253.597 127.574 251.4 127.098 249.486 127.302C248.432 127.415 247.435 127.698 246.484 128.163C245.589 128.605 244.604 129.25 244.139 130.156C243.641 131.119 245.102 131.98 245.6 131.006Z" fill="black"/>
<path d="M286.535 141.177C287.045 141.132 287.962 140.95 288.359 141.415C288.563 141.664 288.495 142.094 288.495 142.389C288.495 142.853 288.495 143.329 288.495 143.793C288.495 144.541 288.608 145.266 288.177 145.911C287.758 146.534 287.283 147.146 286.694 147.622C286.343 147.916 286.388 148.517 286.694 148.822C287.045 149.174 287.543 149.117 287.894 148.822C288.642 148.211 289.333 147.35 289.809 146.5C290.341 145.538 290.194 144.382 290.194 143.318C290.194 142.264 290.352 141.03 289.548 140.203C288.755 139.387 287.6 139.365 286.535 139.466C286.082 139.512 285.686 139.829 285.686 140.316C285.686 140.746 286.071 141.222 286.535 141.177Z" fill="black"/>
<path d="M210.045 232.46C207.598 238.146 205.673 244.025 204.336 250.074C204.098 251.138 205.741 251.591 205.978 250.527C207.281 244.637 209.127 238.871 211.517 233.321C211.948 232.324 210.486 231.464 210.045 232.46Z" fill="black"/>
<path d="M195.547 260.892C201.584 262.727 207.678 264.392 213.806 265.91C214.871 266.17 215.313 264.55 214.259 264.267C214.101 264.222 213.942 264.188 213.772 264.143C212.719 263.859 212.266 265.502 213.319 265.785C213.478 265.83 213.636 265.864 213.806 265.91C213.953 265.366 214.112 264.822 214.259 264.267C208.131 262.761 202.049 261.084 196 259.249C194.947 258.932 194.505 260.575 195.547 260.892Z" fill="black"/>
<path d="M303.266 236.719C303.186 240.83 302.722 244.919 301.85 248.94C301.623 250.005 303.254 250.458 303.492 249.393C304.387 245.225 304.885 240.977 304.965 236.719C304.976 235.62 303.277 235.62 303.266 236.719Z" fill="black"/>
<path d="M302.155 251.512C306.051 250.119 310.254 249.655 314.354 250.232C314.807 250.3 315.26 250.119 315.396 249.643C315.509 249.247 315.26 248.658 314.807 248.601C310.39 247.978 305.904 248.386 301.702 249.881C300.682 250.232 301.124 251.875 302.155 251.512Z" fill="black"/>
<path d="M303.695 251.591C305.496 251.908 307.082 252.769 308.69 253.596C310.355 254.445 312.043 255.193 313.923 255.397C314.377 255.442 314.773 254.966 314.773 254.547C314.773 254.049 314.377 253.743 313.923 253.698C312.213 253.516 310.639 252.689 309.121 251.908C307.535 251.092 305.915 250.266 304.137 249.948C303.684 249.869 303.22 250.073 303.095 250.537C302.993 250.956 303.242 251.511 303.695 251.591Z" fill="black"/>
<path d="M301.691 251.875C299.856 252.747 298.44 254.356 297.33 256.032C296.061 257.946 295.144 260.098 294.544 262.307C294.26 263.361 295.892 263.814 296.186 262.76C296.741 260.733 297.568 258.785 298.712 257.018C299.686 255.522 300.921 254.118 302.552 253.336C303.537 252.872 302.676 251.411 301.691 251.875Z" fill="black"/>
<path d="M191.877 293.105C198.436 296.515 206.025 297.489 213.217 295.824C214.282 295.575 213.829 293.943 212.764 294.181C206.025 295.733 198.866 294.827 192.727 291.633C191.775 291.134 190.915 292.607 191.877 293.105Z" fill="black"/>
<path d="M259.34 305.587C278.57 305.587 294.159 289.998 294.159 270.768C294.159 251.538 278.57 235.949 259.34 235.949C240.11 235.949 224.521 251.538 224.521 270.768C224.521 289.998 240.11 305.587 259.34 305.587Z" fill="#FFCB7C"/>
<path d="M238.623 267.482L281.121 268.207L280.363 273.633L239.291 273.35L238.623 267.482Z" fill="#FFE4BF"/>
<path d="M242.724 258.557L247.379 258.614L252.317 280.441L257.358 257.164L262.829 257.493L266.94 279.376L274.405 257.47L279.932 257.594L269.817 286.07L262.75 285.323L259.906 265.512L256.463 285.481L248.115 285.617L242.724 258.557Z" fill="#FFE4BF"/>
<path d="M171.353 177.729C181.619 177.729 189.94 169.408 189.94 159.142C189.94 148.877 181.619 140.555 171.353 140.555C161.087 140.555 152.766 148.877 152.766 159.142C152.766 169.408 161.087 177.729 171.353 177.729Z" fill="#FFCB7C"/>
<path d="M160.298 157.385L182.986 157.77L182.566 160.67L160.649 160.511L160.298 157.385Z" fill="#FFE4BF"/>
<path d="M162.484 152.617L164.965 152.651L167.604 164.306L170.289 151.881L173.211 152.051L175.408 163.729L179.395 152.039L182.34 152.107L176.949 167.308L173.177 166.912L171.648 156.332L169.813 166.991L165.361 167.07L162.484 152.617Z" fill="#FFE4BF"/>
<path d="M236.256 279.468C235.362 284.622 230.321 290.138 227.376 288.223C220.614 283.829 219.062 279.717 219.866 271.312C221.928 262.987 230.525 259.612 235.305 265.615C238.261 269.33 236.913 275.639 236.256 279.468Z" fill="#FFE4D6"/>
<path d="M226.47 268.911C230.072 267.574 234.207 267.971 237.027 270.746C237.809 271.516 239.009 270.316 238.228 269.545C234.999 266.374 230.186 265.728 226.017 267.269C224.998 267.642 225.44 269.285 226.47 268.911Z" fill="black"/>
<path d="M227.602 274.983C228.996 274.348 230.502 273.895 232.02 273.646C233.39 273.419 235.021 273.317 236.256 274.054C237.196 274.609 238.057 273.148 237.117 272.581C235.542 271.641 233.594 271.698 231.839 271.958C230.083 272.219 228.361 272.774 226.742 273.51C226.322 273.703 226.22 274.303 226.436 274.677C226.696 275.096 227.183 275.164 227.602 274.983Z" fill="black"/>
<path d="M229.279 280.204C230.333 279.535 231.409 278.867 232.564 278.38C233.606 277.95 234.795 277.621 235.894 277.859C236.347 277.961 236.812 277.723 236.936 277.27C237.049 276.851 236.789 276.319 236.347 276.228C233.493 275.605 230.729 277.27 228.418 278.743C227.512 279.32 228.362 280.793 229.279 280.204Z" fill="black"/>
<path d="M285.653 274.938C286.865 269.852 292.233 264.642 295.054 266.737C301.533 271.54 302.824 275.731 301.51 284.079C298.95 292.257 290.149 295.1 285.754 288.825C283.025 284.939 284.746 278.721 285.653 274.938Z" fill="#FFE4D6"/>
<path d="M294.669 271.437C292.981 271.086 291.237 270.984 289.549 271.414C288.054 271.8 286.729 272.626 285.63 273.702C284.848 274.473 286.049 275.673 286.831 274.903C287.725 274.02 288.779 273.363 290.002 273.046C291.384 272.694 292.834 272.785 294.216 273.068C294.669 273.159 295.133 272.932 295.258 272.479C295.371 272.06 295.122 271.528 294.669 271.437Z" fill="black"/>
<path d="M295.744 275.141C291.961 274.982 288.461 276.738 285.629 279.117C285.278 279.411 285.324 280.011 285.629 280.317C285.981 280.668 286.479 280.612 286.83 280.317C289.322 278.222 292.414 276.693 295.744 276.84C296.843 276.885 296.843 275.186 295.744 275.141Z" fill="black"/>
<path d="M293.513 280.545C290.625 280.342 287 281.236 285.505 283.955C284.972 284.918 286.445 285.767 286.977 284.816C287.566 283.762 288.631 283.083 289.775 282.709C291.032 282.29 292.176 282.165 293.513 282.256C293.966 282.29 294.362 281.837 294.362 281.406C294.362 280.908 293.966 280.579 293.513 280.545Z" fill="black"/>
<path d="M155.862 98.543C146.54 109.451 145.022 121.684 150.164 135.061C150.606 136.205 152.339 135.435 151.908 134.291C151.591 133.475 151.297 132.648 151.036 131.81C146.675 117.572 149.552 108.193 157.141 99.9362L155.862 98.543Z" fill="black"/>
<path d="M154.228 130.927L146.673 133.364L151.848 136.951L154.228 130.927Z" fill="black"/>
<path d="M127.519 126.361C129.761 135.751 129.999 139.138 143.75 146.002C144.849 146.546 145.426 144.552 144.271 144.167C143.444 143.895 142.572 143.669 141.802 143.261C130.724 137.45 130.18 131.458 129.07 126.078L127.519 126.361Z" fill="black"/>
<path d="M143.272 140.107L139.395 147.043L145.627 146.143L143.272 140.107Z" fill="black"/>
<path d="M265.253 150.284C265.581 151.485 266.25 152.606 267.201 153.422C268.243 154.316 269.523 154.6 270.701 155.268C272.661 156.389 273.284 158.881 273.306 160.988C273.318 162.075 275.017 162.087 275.005 160.988C274.983 158.643 274.314 156.049 272.479 154.464C271.46 153.58 270.18 153.32 269.036 152.663C267.971 152.04 267.213 151.02 266.884 149.842C266.601 148.777 264.958 149.231 265.253 150.284Z" fill="#FBC9C5"/>
<path d="M252.386 148.665C250.834 150.579 249.259 152.494 247.73 154.419C247.039 155.291 246.53 156.152 246.416 157.274C246.303 158.384 246.609 159.505 246.45 160.615C246.382 161.068 246.564 161.521 247.039 161.657C247.436 161.77 248.014 161.521 248.081 161.068C248.24 159.992 248.081 158.95 248.081 157.863C248.081 156.798 248.535 156.096 249.18 155.291C250.641 153.479 252.114 151.678 253.575 149.866C253.87 149.503 253.915 149.016 253.575 148.665C253.292 148.359 252.669 148.303 252.386 148.665Z" fill="#FBC9C5"/>
<path d="M34.272 43.824L34.4 49.648C34.432 50.448 34.784 50.768 35.584 50.768H38.112C38.912 50.768 39.264 50.448 39.296 49.648L39.424 43.824H34.272ZM33.92 55.088C31.392 55.088 29.888 53.712 29.824 51.44L29.344 33.808C29.312 33.168 29.728 32.784 30.4 32.784H32.928C33.664 32.784 33.984 33.04 34.016 33.712L34.144 39.504H39.552L39.68 33.712C39.68 33.072 40.032 32.784 40.768 32.784H43.296C44 32.784 44.384 33.168 44.352 33.808L43.872 51.44C43.808 53.712 42.304 55.088 39.776 55.088H33.92ZM47.968 31.824C47.968 31.152 48.352 30.768 49.024 30.768H51.552C52.224 30.768 52.608 31.152 52.608 31.824V58.384C52.608 59.056 52.224 59.44 51.552 59.44H49.024C48.352 59.44 47.968 59.056 47.968 58.384V31.824ZM69.5875 43.344C68.3395 46.224 65.1075 48.368 60.8195 48.368C60.0835 48.368 59.2195 48.368 59.2195 47.376V44.976C59.2195 44.368 59.5715 44.048 60.2755 44.048C64.8195 44.048 67.2835 41.488 67.2835 37.936V33.488C67.2835 32.816 67.6675 32.432 68.3395 32.432H70.8675C71.5395 32.432 71.9235 32.816 71.9235 33.488V37.936C71.9235 41.488 74.3555 44.048 78.8675 44.048C79.5715 44.048 79.9235 44.368 79.9235 44.976V47.376C79.9235 48.368 79.0595 48.368 78.3235 48.368C74.0355 48.368 70.8035 46.224 69.5875 43.344ZM57.9395 52.368C60.7235 52.72 64.9475 52.912 69.4275 52.912C74.4195 52.912 78.9635 52.688 80.9475 52.368C81.6195 52.24 82.0035 52.656 82.0035 53.328V55.696C82.0035 56.272 81.6835 56.592 80.9475 56.72C78.9635 57.072 74.4195 57.264 69.4275 57.264C64.9475 57.264 60.7235 57.104 57.9395 56.72C57.2035 56.624 56.8835 56.304 56.8835 55.696V53.328C56.8835 52.656 57.2675 52.272 57.9395 52.368ZM89.8643 49.584C89.8643 50.352 90.3763 50.768 91.3043 50.768H92.0403C94.1523 50.768 95.4323 48.144 95.4323 43.856C95.4323 38.992 94.5363 37.104 92.2003 37.104H90.8563C90.2163 37.104 89.8643 37.456 89.8643 38.096V49.584ZM89.4483 55.088C86.7603 55.088 85.2883 53.808 85.2883 51.504V34.64C85.2883 33.424 85.8963 32.784 87.1123 32.784H93.6083C98.1843 32.784 99.9763 35.056 99.9763 40.912C99.9763 45.584 98.6643 49.456 96.4883 51.088H98.7923C99.4323 51.088 99.7843 51.44 99.7843 52.08V54.096C99.7843 54.736 99.4323 55.088 98.7923 55.088H89.4483ZM107.624 58.384C107.624 59.056 107.24 59.44 106.568 59.44H104.04C103.368 59.44 102.984 59.056 102.984 58.384V31.824C102.984 31.152 103.368 30.768 104.04 30.768H106.568C107.24 30.768 107.624 31.152 107.624 31.824V42.544C107.976 42 108.712 41.648 109.608 41.648H110.632C111.272 41.648 111.624 42 111.624 42.64V45.136C111.624 45.776 111.272 46.128 110.632 46.128H109.48C108.392 46.128 107.624 46.864 107.624 47.888V58.384ZM126.173 42.448C121.469 42.448 121.117 42.736 121.117 43.6C121.117 44.464 121.629 44.624 127.933 44.624C130.557 44.624 133.917 44.4 136.029 43.984C136.541 43.888 136.893 44.144 136.989 44.784L137.405 47.152C137.501 47.696 137.149 48.08 136.669 48.176C134.461 48.56 130.589 48.912 127.965 48.912C118.717 48.912 116.477 47.76 116.477 43.504C116.477 39.312 119.133 38.192 126.109 38.192H130.813C131.645 38.192 131.997 37.872 131.997 37.296C131.997 36.688 131.677 36.464 130.877 36.464C127.837 36.464 121.725 36.624 117.949 37.008C117.437 37.072 117.117 36.688 117.117 36.048V33.68C117.117 33.104 117.373 32.784 117.949 32.72C121.661 32.4 125.853 32.176 129.853 32.176C131.069 32.176 132.253 32.208 133.405 32.24C135.453 32.336 136.605 33.424 136.605 35.344C136.605 36.912 135.901 38.064 134.717 38.576H135.517C135.997 38.576 136.349 38.928 136.349 39.472V41.584C136.349 42.16 136.029 42.544 135.517 42.544C133.181 42.544 132.029 42.448 126.173 42.448ZM126.365 52.912C131.357 52.912 135.901 52.688 137.885 52.368C138.557 52.24 138.941 52.656 138.941 53.328V55.696C138.941 56.272 138.621 56.592 137.885 56.72C135.901 57.072 131.357 57.264 126.365 57.264C121.885 57.264 117.661 57.104 114.877 56.72C114.141 56.624 113.821 56.304 113.821 55.696V53.328C113.821 52.656 114.205 52.272 114.877 52.368C117.661 52.72 121.885 52.912 126.365 52.912ZM160.466 40.592C160.466 38.128 159.154 36.784 156.722 36.784C153.714 36.784 150.258 37.104 145.97 37.328C145.362 37.36 144.946 37.008 144.946 36.432V33.936C144.946 33.424 145.33 33.04 145.97 32.976C150.45 32.528 154.45 32.432 157.778 32.432C162.514 32.432 165.074 34.96 165.074 39.664C165.074 42.576 164.882 45.712 164.402 48.08C164.274 48.72 163.954 48.88 163.314 48.784L160.658 48.4C160.018 48.304 159.794 48.08 159.922 47.44C160.082 46.704 160.178 45.872 160.274 45.008C155.602 45.04 149.586 45.264 146.258 45.52C145.618 45.584 145.266 45.168 145.266 44.528V42.192C145.266 41.552 145.618 41.264 146.258 41.2C149.266 40.912 155.25 40.688 160.466 40.688V40.592ZM154.834 52.912C159.826 52.912 164.37 52.688 166.354 52.368C167.026 52.24 167.41 52.656 167.41 53.328V55.696C167.41 56.272 167.09 56.592 166.354 56.72C164.37 57.072 159.826 57.264 154.834 57.264C150.354 57.264 146.13 57.104 143.346 56.72C142.61 56.624 142.29 56.304 142.29 55.696V53.328C142.29 52.656 142.674 52.272 143.346 52.368C146.13 52.72 150.354 52.912 154.834 52.912ZM175.271 41.648C175.271 42.512 176.039 42.832 177.831 42.832C179.623 42.832 180.391 42.512 180.391 41.648C180.391 40.816 179.623 40.496 177.831 40.496C176.039 40.496 175.271 40.816 175.271 41.648ZM188.007 40.56C188.775 40.56 189.031 40.272 189.031 39.472V38.16C188.743 38.608 188.263 38.8 187.591 38.8H187.111C186.471 38.8 186.119 38.448 186.119 37.808V35.632C186.119 34.992 186.471 34.64 187.111 34.64H188.007C188.775 34.64 189.031 34.352 189.031 33.552V31.824C189.031 31.152 189.415 30.768 190.087 30.768H192.615C193.287 30.768 193.671 31.152 193.671 31.824V45.904C193.671 46.576 193.287 46.96 192.615 46.96H190.087C189.415 46.96 189.031 46.576 189.031 45.904V44.08C188.743 44.528 188.263 44.72 187.591 44.72H187.111C186.471 44.72 186.119 44.368 186.119 43.728V41.552C186.119 40.912 186.471 40.56 187.111 40.56H188.007ZM183.431 55.952C188.135 55.952 189.735 55.504 189.735 54.032C189.735 52.56 188.135 52.112 183.431 52.112C178.727 52.112 177.127 52.56 177.127 54.032C177.127 55.504 178.727 55.952 183.431 55.952ZM177.831 36.88C182.663 36.88 184.967 38.32 184.967 41.648C184.967 45.008 182.663 46.448 177.831 46.448C172.999 46.448 170.695 45.008 170.695 41.648C170.695 38.32 172.999 36.88 177.831 36.88ZM180.199 30.352V31.12C180.199 31.536 180.487 31.824 181.063 31.824H184.807C185.479 31.824 185.799 32.144 185.799 32.816V34.736C185.799 35.408 185.479 35.728 184.807 35.728H170.727C170.055 35.728 169.735 35.408 169.735 34.736V32.816C169.735 32.144 170.055 31.824 170.727 31.824H176.039C175.719 31.632 175.559 31.344 175.559 30.896V30.352C175.559 29.68 175.879 29.36 176.551 29.36H179.207C179.879 29.36 180.199 29.68 180.199 30.352ZM172.487 54.032C172.487 49.936 176.135 48.112 183.431 48.112C190.727 48.112 194.375 49.936 194.375 54.032C194.375 58.128 190.727 59.952 183.431 59.952C176.135 59.952 172.487 58.128 172.487 54.032ZM42.496 96.112C47.552 96.112 48.8 95.696 48.8 94.224C48.8 92.752 47.552 92.336 42.496 92.336C37.44 92.336 36.192 92.752 36.192 94.224C36.192 95.696 37.44 96.112 42.496 96.112ZM38.88 83.28C38.432 83.088 38.176 82.672 38.176 82.16V79.44C38.176 78.768 38.56 78.384 39.232 78.384H41.792C42.464 78.384 42.816 78.768 42.816 79.44V82.256C42.816 82.864 43.2 83.216 43.968 83.248C46.496 83.312 51.232 83.184 53.728 82.992C54.4 82.928 54.816 83.28 54.816 83.952V85.84C54.816 86.416 54.496 86.8 53.76 86.864C51.776 87.056 47.232 87.12 42.24 87.12C37.76 87.12 33.536 87.088 30.752 86.864C30.016 86.8 29.696 86.448 29.696 85.84V83.952C29.696 83.28 30.08 82.928 30.752 82.992C33.088 83.152 36.32 83.248 38.88 83.28ZM46.144 71.472C50.496 71.472 52.48 73.232 52.48 77.072C52.48 78.416 52.352 79.76 51.968 81.36C51.808 82 51.52 82.16 50.88 82.064L48.224 81.68C47.584 81.584 47.328 81.36 47.488 80.72C47.712 79.856 47.872 78.96 47.872 78.256C47.872 76.528 46.88 75.696 44.768 75.696C41.44 75.696 37.664 75.952 33.376 76.24C32.768 76.272 32.352 75.92 32.352 75.344V72.976C32.352 72.432 32.768 72.08 33.376 72.016C36.16 71.792 41.216 71.472 46.144 71.472ZM31.552 94.224C31.552 90.16 34.72 88.496 42.496 88.496C50.272 88.496 53.44 90.16 53.44 94.224C53.44 98.288 50.272 99.952 42.496 99.952C34.72 99.952 31.552 98.288 31.552 94.224ZM71.6688 71.504C72.3408 71.504 72.7248 71.888 72.7248 72.56V74.768C72.7248 75.44 72.3408 75.824 71.6688 75.824H67.6048V76.976C67.6048 80.048 69.3968 81.808 71.8928 81.808C72.5648 81.808 72.8848 82.128 72.8848 82.736V85.136C72.8848 85.776 72.5648 86.128 71.8928 86.128C68.8528 86.128 66.1968 84.688 65.3328 82C64.4368 84.688 61.7808 86.128 58.6768 86.128C57.9728 86.128 57.6208 85.744 57.6208 85.136V82.736C57.6208 82.128 57.9728 81.808 58.6768 81.808C61.1727 81.808 62.9648 80.048 62.9648 76.976V75.824H58.8368C58.1648 75.824 57.7808 75.44 57.7808 74.768V72.56C57.7808 71.888 58.1648 71.504 58.8368 71.504H71.6688ZM61.2048 89.008C64.4048 88.656 68.2768 88.432 74.5808 88.432C78.9648 88.432 80.9808 90.256 80.9808 94.096C80.9808 96.08 80.8848 97.84 80.7888 98.608C80.6928 99.28 80.4048 99.6 79.7328 99.6H77.1408C76.4688 99.6 76.0528 99.216 76.1488 98.544C76.2768 97.552 76.3408 96.144 76.3408 95.088C76.3408 93.456 75.6368 92.752 73.8768 92.752C68.7888 92.752 64.7888 93.072 61.2048 93.328C60.5648 93.36 60.2128 92.976 60.2128 92.336V90C60.2128 89.36 60.5648 89.072 61.2048 89.008ZM76.4368 79.984C76.1168 80.528 75.4768 80.848 74.6128 80.848H73.2368C72.5968 80.848 72.2448 80.496 72.2448 79.856V77.52C72.2448 76.88 72.5968 76.528 73.2368 76.528H74.7408C75.8288 76.528 76.4368 75.952 76.4368 74.928V71.824C76.4368 71.152 76.8208 70.768 77.4928 70.768H80.0208C80.6928 70.768 81.0768 71.152 81.0768 71.824V85.264C81.0768 85.936 80.6928 86.32 80.0208 86.32H77.4928C76.8208 86.32 76.4368 85.936 76.4368 85.264V79.984ZM89.5443 79.12C89.5443 81.552 90.5363 82.928 92.2963 82.928C94.0563 82.928 95.0803 81.52 95.0803 79.12C95.0803 76.752 94.0563 75.344 92.2963 75.344C90.5363 75.344 89.5443 76.72 89.5443 79.12ZM103.624 72.464V71.824C103.624 71.152 104.008 70.768 104.68 70.768H107.208C107.88 70.768 108.264 71.152 108.264 71.824V89.744C108.264 90.416 107.88 90.8 107.208 90.8H104.68C104.008 90.8 103.624 90.416 103.624 89.744V84.144C103.304 84.624 102.728 84.848 101.928 84.848H101.064C100.424 84.848 100.072 84.496 100.072 83.856V81.68C100.072 81.04 100.424 80.688 101.064 80.688H102.376C103.368 80.688 103.624 80.24 103.624 79.408V77.2C103.304 77.68 102.728 77.904 101.928 77.904H101.064C100.424 77.904 100.072 77.552 100.072 76.912V74.736C100.072 74.096 100.424 73.744 101.064 73.744H102.376C103.368 73.744 103.624 73.456 103.624 72.464ZM92.2963 71.184C96.9043 71.184 99.6562 74.128 99.6562 79.12C99.6562 84.08 96.9043 87.088 92.2963 87.088C87.7203 87.088 84.9683 84.08 84.9683 79.12C84.9683 74.16 87.6883 71.184 92.2963 71.184ZM95.4003 99.92C90.5043 99.92 87.7203 97.616 87.7203 93.584C87.7203 91.984 87.8163 91.248 87.9123 90.48C88.0083 89.808 88.2963 89.424 88.9683 89.424H91.4963C92.1683 89.424 92.6483 89.808 92.5523 90.48C92.4243 91.472 92.3603 92.016 92.3603 92.88C92.3603 94.704 93.5443 95.6 95.9763 95.6C100.296 95.6 104.584 95.344 107.976 95.024C108.616 94.96 108.936 95.376 108.968 96.016L109.128 98.352C109.16 98.992 108.776 99.28 108.136 99.344C104.936 99.696 101.032 99.92 95.4003 99.92ZM133.18 95.92H135.26C135.932 95.92 136.252 96.272 136.252 96.912V98.608C136.252 99.28 135.932 99.6 135.26 99.6H118.716C116.124 99.6 114.716 98.384 114.716 96.112V89.744C114.716 88.56 115.292 87.952 116.476 87.952H131.708C134.364 87.952 135.804 89.36 135.804 91.696C135.804 93.616 134.812 95.152 133.18 95.92ZM128.988 71.472C133.34 71.472 135.324 73.232 135.324 77.072C135.324 78.448 135.004 80.208 134.588 81.68C135.388 81.648 136.06 81.616 136.572 81.552C137.244 81.488 137.66 81.84 137.66 82.512V84.4C137.66 84.976 137.34 85.36 136.604 85.424C134.62 85.616 130.076 85.68 125.084 85.68C120.604 85.68 116.38 85.648 113.596 85.424C112.86 85.36 112.54 85.008 112.54 84.4V82.512C112.54 81.84 112.924 81.488 113.596 81.552C116.348 81.776 120.572 81.808 125.052 81.808C126.748 81.808 128.412 81.808 129.916 81.776C130.3 80.912 130.716 79.28 130.716 78.256C130.716 76.528 129.724 75.696 127.612 75.696C124.284 75.696 120.508 75.952 116.22 76.24C115.612 76.272 115.196 75.92 115.196 75.344V72.976C115.196 72.432 115.612 72.08 116.22 72.016C119.004 71.792 124.06 71.472 128.988 71.472ZM129.148 95.76C130.268 95.76 131.164 94.704 131.164 93.488C131.164 92.432 130.716 91.792 129.788 91.792H120.22C119.612 91.792 119.356 92.048 119.356 92.656V94.576C119.356 95.312 119.868 95.76 120.764 95.76H129.148Z" fill="white"/>
</g>
<defs>
<clipPath id="clip0_644_1577">
<rect width="350" height="350" rx="36" fill="white"/>
</clipPath>
</defs>
</svg>
