<svg width="980" height="440" viewBox="0 0 980 440" fill="none" xmlns="http://www.w3.org/2000/svg">
<g clip-path="url(#clip0_643_6673)">
<rect width="980" height="440" fill="#FFE8E2"/>
<path d="M127.726 400.135C129.687 381.605 311.515 342.436 522.641 347.143C733.768 351.85 830.768 386.082 825.547 401.731C820.312 417.38 125.764 418.651 127.726 400.135Z" fill="#BCCA6C"/>
<path d="M163.382 397.877C173.554 398.229 183.726 398.58 193.899 398.932C196.509 399.027 196.509 394.969 193.899 394.875C183.726 394.523 173.554 394.171 163.382 393.82C160.758 393.738 160.771 397.796 163.382 397.877Z" fill="#E7EDAE"/>
<path d="M365.392 401.257C426.249 402.244 487.092 403.218 547.949 404.206C550.56 404.246 550.56 400.189 547.949 400.148C487.092 399.161 426.249 398.187 365.392 397.2C362.781 397.159 362.781 401.217 365.392 401.257Z" fill="#E7EDAE"/>
<path d="M500.065 389.111C507.6 389.463 515.148 389.814 522.682 390.166C525.293 390.288 525.293 386.23 522.682 386.108C515.148 385.757 507.6 385.405 500.065 385.053C497.455 384.932 497.468 388.989 500.065 389.111Z" fill="#E7EDAE"/>
<path d="M693.674 398.011C709.636 398.011 725.584 398.011 741.545 398.011C744.156 398.011 744.156 393.953 741.545 393.953C725.584 393.953 709.636 393.953 693.674 393.953C691.063 393.953 691.05 398.011 693.674 398.011Z" fill="#E7EDAE"/>
<path d="M171.837 280.437C201.211 280.437 225.024 244.104 225.024 199.286C225.024 154.467 201.211 118.135 171.837 118.135C142.462 118.135 118.649 154.467 118.649 199.286C118.649 244.104 142.462 280.437 171.837 280.437Z" fill="#BCCA6C"/>
<path d="M187.163 378.441L171.54 382.755L164.303 210.972L168.861 210.715L187.163 378.441Z" fill="#CCA581"/>
<path d="M136.654 158.887C133.854 163.269 131.635 167.949 129.917 172.859C128.767 176.159 133.989 177.565 135.139 174.292C136.694 169.815 138.777 165.609 141.32 161.606C143.201 158.671 138.52 155.952 136.654 158.887Z" fill="#D8E08C"/>
<path d="M136.762 194.349C136.6 197.311 136.438 200.273 136.262 203.249C136.072 206.725 141.483 206.711 141.672 203.249C141.835 200.287 141.997 197.325 142.173 194.349C142.362 190.873 136.952 190.873 136.762 194.349Z" fill="#D8E08C"/>
<path d="M232.978 309.922C252.125 309.922 267.647 280.62 267.647 244.474C267.647 208.328 252.125 179.025 232.978 179.025C213.831 179.025 198.309 208.328 198.309 244.474C198.309 280.62 213.831 309.922 232.978 309.922Z" fill="#8FB756"/>
<path d="M244.26 373.18L227.662 373.505L231.517 262.571L236.089 262.301L244.26 373.18Z" fill="#896037"/>
<path d="M211.322 213.218C209.834 219.804 208.346 226.391 206.858 232.978C205.898 237.211 212.417 239.024 213.378 234.777C214.866 228.19 216.354 221.603 217.842 215.016C218.802 210.77 212.282 208.957 211.322 213.218Z" fill="#BCCA6C"/>
<path d="M796.782 289.189C800.647 261.12 786.567 235.996 765.333 233.073C744.099 230.149 723.752 250.535 719.887 278.604C716.022 306.673 730.102 331.797 751.336 334.721C772.57 337.644 792.917 317.259 796.782 289.189Z" fill="#BCCA6C"/>
<path d="M757.629 380.998L741.031 381.322L751.785 319.985L756.344 319.715L757.629 380.998Z" fill="#896037"/>
<path d="M738.069 259.353C734.985 263.37 732.672 267.806 730.967 272.58C729.506 276.692 736.04 278.45 737.487 274.379C738.989 270.173 741.18 266.318 743.899 262.774C745.022 261.314 744.115 259.001 742.682 258.149C740.964 257.107 739.178 257.919 738.069 259.353Z" fill="#D8E08C"/>
<path d="M733.24 287.822C732.591 289.472 731.941 291.122 731.292 292.772C730.643 294.422 731.995 296.559 733.659 296.938C735.607 297.384 737.122 296.343 737.825 294.571C738.475 292.921 739.124 291.271 739.773 289.621C740.423 287.971 739.056 285.834 737.406 285.455C735.458 285.022 733.943 286.064 733.24 287.822Z" fill="#D8E08C"/>
<path d="M507.18 63.2224C520.166 55.5401 743.94 84.484 747.822 91.152C751.691 97.8199 733.754 232.558 720.038 244.933C706.335 257.309 601.164 323.447 586.434 323.082C571.716 322.717 346.928 277.326 344.128 270.212C341.341 263.098 478.747 191.211 478.747 191.211C478.747 191.211 494.181 70.9047 507.18 63.2224Z" fill="#EACA71"/>
<path d="M487.702 69.1875C499.998 62.0732 728.763 91.5717 732.442 97.7527C736.108 103.934 728.844 229.529 715.872 240.971C702.9 252.427 602.152 316.09 588.206 315.738C574.26 315.387 356.072 262.571 353.435 255.984C350.783 249.397 474.418 191.185 474.418 191.185C474.418 191.185 475.392 76.3017 487.702 69.1875Z" fill="white"/>
<path d="M476.163 193.131C554.794 209.443 633.426 225.876 712.503 239.942C715.06 240.402 716.156 236.493 713.586 236.033C634.508 221.967 555.876 205.534 477.245 189.223C474.689 188.695 473.606 192.604 476.163 193.131Z" fill="#E5E5E5"/>
<path d="M725.773 103.23C724.61 147.876 718.604 192.307 714.383 236.71C714.302 237.575 715.655 237.575 715.736 236.71C719.956 192.293 725.962 147.863 727.126 103.23C727.139 102.351 725.787 102.351 725.773 103.23Z" fill="#E5E5E5"/>
<path d="M511.968 94.5738C508.1 128.59 506.206 162.768 503.23 196.851C503.149 197.717 504.502 197.717 504.583 196.851C507.559 162.754 509.452 128.576 513.321 94.5738C513.416 93.7082 512.063 93.7217 511.968 94.5738Z" fill="#E5E5E5"/>
<path d="M547.381 98.9702C542.363 133.689 540.848 168.787 536.952 203.628C536.857 204.494 538.21 204.48 538.305 203.628C542.187 168.895 543.688 133.933 548.68 99.3218C548.802 98.4697 547.503 98.1046 547.381 98.9702Z" fill="#E5E5E5"/>
<path d="M583.891 103.948C579.805 139.722 577.303 175.645 574.178 211.514C574.097 212.379 575.45 212.379 575.531 211.514C578.669 175.645 581.172 139.722 585.243 103.948C585.338 103.096 583.985 103.096 583.891 103.948Z" fill="#E5E5E5"/>
<path d="M621.942 108.735C616.693 145.131 615.598 181.947 611.526 218.465C611.432 219.33 612.784 219.317 612.879 218.465C616.937 182.069 618.019 145.361 623.254 109.1C623.362 108.248 622.064 107.869 621.942 108.735Z" fill="#E5E5E5"/>
<path d="M661.318 114.199C657.084 151.353 654.852 188.696 651.592 225.93C651.511 226.796 652.864 226.796 652.945 225.93C656.191 188.682 658.437 151.353 662.671 114.199C662.766 113.333 661.413 113.347 661.318 114.199Z" fill="#E5E5E5"/>
<path d="M700.519 119.164C695.013 157.44 695.433 196.257 691.158 234.655C691.063 235.521 692.416 235.507 692.511 234.655C696.772 196.379 696.339 157.67 701.831 119.515C701.939 118.663 700.64 118.298 700.519 119.164Z" fill="#E5E5E5"/>
<path d="M690.915 233.761C673.533 241.578 656.746 250.721 640.095 259.946C621.739 270.117 603.572 280.626 585.5 291.297C577.398 296.085 569.322 300.9 561.274 305.769C560.53 306.215 561.206 307.392 561.95 306.932C595.781 286.509 629.909 266.397 664.916 248.07C673.695 243.472 682.555 238.995 691.591 234.924C692.389 234.572 691.699 233.409 690.915 233.761Z" fill="#E5E5E5"/>
<path d="M653.783 226.065C636.401 233.883 619.614 243.026 602.963 252.25C584.607 262.421 566.44 272.93 548.369 283.602C540.266 288.39 532.191 293.205 524.142 298.074C523.398 298.52 524.074 299.697 524.818 299.237C558.649 278.814 592.777 258.702 627.785 240.375C636.563 235.777 645.424 231.3 654.459 227.229C655.257 226.877 654.568 225.714 653.783 226.065Z" fill="#E5E5E5"/>
<path d="M611.215 217.775C575.68 233.761 541.971 254.198 508.533 274.08C500.552 278.827 492.598 283.602 484.658 288.39C483.914 288.836 484.59 290.013 485.334 289.553C518.312 269.644 551.453 249.856 585.568 231.922C594.225 227.377 602.963 222.955 611.891 218.938C612.689 218.586 612.013 217.409 611.215 217.775Z" fill="#E5E5E5"/>
<path d="M574.395 211.054C539.509 226.743 506.288 246.49 473.377 265.912C465.437 270.592 457.537 275.312 449.651 280.073C448.907 280.519 449.583 281.696 450.327 281.236C482.697 261.706 515.351 242.5 548.897 225.052C557.514 220.562 566.211 216.207 575.085 212.217C575.87 211.865 575.18 210.702 574.395 211.054Z" fill="#E5E5E5"/>
<path d="M536.966 203.505C503.487 218.558 471.699 237.588 440.182 256.307C432.404 260.933 424.653 265.586 416.916 270.265C416.172 270.712 416.848 271.888 417.592 271.428C448.622 252.696 479.775 234.072 511.914 217.287C520.382 212.864 528.931 208.59 537.642 204.668C538.44 204.316 537.751 203.153 536.966 203.505Z" fill="#E5E5E5"/>
<path d="M505.029 196.134C471.739 211.106 439.965 229.69 408.542 248.179C400.791 252.737 393.067 257.349 385.371 261.988C384.627 262.434 385.303 263.611 386.047 263.151C416.888 244.54 448.054 226.309 480.085 209.781C488.526 205.426 497.048 201.192 505.719 197.297C506.503 196.945 505.827 195.782 505.029 196.134Z" fill="#E5E5E5"/>
<path d="M712.477 238.211C671.152 263.611 628.259 286.415 585.69 309.638C584.919 310.057 585.609 311.22 586.366 310.801C628.935 287.578 671.829 264.788 713.153 239.374C713.911 238.914 713.221 237.751 712.477 238.211Z" fill="#E5E5E5"/>
<path d="M487.918 72.9871C549.911 76.1384 611.472 85.3356 672.748 94.8167C690.441 97.5488 708.121 100.349 725.8 103.094C726.653 103.229 727.018 101.917 726.166 101.796C663.618 92.0711 601.083 81.6702 538.048 75.4622C521.37 73.8121 504.651 72.5002 487.918 71.6481C487.052 71.594 487.052 72.9465 487.918 72.9871Z" fill="#E5E5E5"/>
<path d="M482.196 91.5444C545.353 98.6857 608.361 107.207 671.314 115.957C689.129 118.432 706.944 120.935 724.759 123.477C725.611 123.599 725.976 122.301 725.124 122.179C660.804 113.036 596.43 104.136 531.948 96.1294C515.377 94.0736 498.794 92.0854 482.196 90.2054C481.33 90.0972 481.33 91.4497 482.196 91.5444Z" fill="#E5E5E5"/>
<path d="M480.87 106.232C544.026 113.373 607.034 121.894 669.988 130.645C687.803 133.12 705.618 135.622 723.433 138.165C724.285 138.287 724.65 136.988 723.798 136.866C659.478 127.723 595.104 118.824 530.621 110.817C514.051 108.761 497.467 106.773 480.87 104.893C480.004 104.785 480.018 106.137 480.87 106.232Z" fill="#E5E5E5"/>
<path d="M385.723 235.413C445.904 250.818 506.531 264.411 566.82 279.383C584.202 283.697 601.571 288.12 618.871 292.732C619.71 292.962 620.075 291.65 619.237 291.434C557.649 275.055 495.507 260.894 433.568 245.895C417.714 242.053 401.874 238.158 386.075 234.114C385.236 233.898 384.871 235.196 385.723 235.413Z" fill="#E5E5E5"/>
<path d="M370.587 244.46C431.2 260.19 492.382 273.715 553.374 287.903C570.865 291.974 588.341 296.072 605.791 300.279C606.643 300.482 606.995 299.183 606.156 298.98C543.865 283.995 481.29 270.212 419.026 255.159C402.97 251.277 386.941 247.314 370.952 243.162C370.1 242.932 369.734 244.23 370.587 244.46Z" fill="#E5E5E5"/>
<path d="M358.317 255.173C415.4 271.173 472.28 287.89 530.229 300.536C548.396 304.499 566.657 308.083 585.026 310.951C585.879 311.086 586.244 309.774 585.392 309.652C521.153 299.617 458.145 282.156 395.692 264.397C383.355 260.894 371.032 257.323 358.682 253.861C357.83 253.631 357.478 254.943 358.317 255.173Z" fill="#E5E5E5"/>
<path d="M308.715 103.108C302.317 101.58 288.75 103.284 290.481 114.416C280.755 108.492 269.596 115.606 269.433 124.871C269.217 137.138 282.703 138.085 284.543 136.191C285.625 141.655 297.731 141.926 302.425 137.476C302.696 141.899 313.341 145.578 318.968 143.738C328.41 140.654 327.409 133.175 327.409 133.175C327.409 133.175 338.826 134.041 337.04 121.746C335.038 107.991 319.55 114.916 319.55 114.916C319.55 114.916 318.157 105.367 308.715 103.108Z" fill="white"/>
<path d="M274.276 122.842C276.602 128.726 284.678 134.582 290.386 129.186C289.629 128.753 288.885 128.306 288.127 127.874C286.964 133.392 289.101 136.584 294.918 136.489C296.663 136.462 296.663 133.757 294.918 133.784C291.387 133.838 290.048 131.918 290.738 128.59C291.008 127.278 289.493 126.318 288.479 127.278C284.299 131.228 278.415 125.994 276.886 122.125C276.251 120.516 273.64 121.219 274.276 122.842Z" fill="black"/>
<path d="M312.11 136.936C315.208 138.356 318.413 138.369 321.525 137.03C323.121 136.341 321.741 134.014 320.158 134.69C318.021 135.61 315.586 135.57 313.463 134.596C311.893 133.879 310.527 136.219 312.11 136.936Z" fill="black"/>
<path d="M323.243 122.328C322.999 122.653 322.756 122.977 322.512 123.302C322.08 123.883 322.418 124.817 322.999 125.155C323.689 125.561 324.406 125.249 324.853 124.668C325.096 124.343 325.34 124.019 325.583 123.694C326.016 123.112 325.678 122.179 325.096 121.841C324.406 121.435 323.676 121.733 323.243 122.328Z" fill="black"/>
<path d="M546.827 254.185C550.831 264.329 549.979 255.741 538.224 263.261C512.28 263.031 494.627 285.063 494.627 285.063L509.182 337.69L492.395 337.487C492.395 337.487 459.525 279.613 466.234 269.482C477.691 252.197 502.161 241.905 502.161 241.905C502.161 241.905 541.024 239.497 546.827 254.185Z" fill="black"/>
<path d="M494.032 335.256L508.533 333.998C508.533 333.998 510.508 343.56 507.884 345.697C505.26 347.848 475.974 346.604 477.854 343.398C479.735 340.206 494.032 335.256 494.032 335.256Z" fill="#563837"/>
<path d="M482.521 343.059C490.434 345.872 498.821 345.927 506.761 343.249C507.586 342.978 507.235 341.666 506.396 341.95C498.659 344.56 490.57 344.506 482.873 341.761C482.061 341.463 481.71 342.762 482.521 343.059Z" fill="#7A6868"/>
<path d="M430.131 249.775C434.135 259.919 386.263 292.799 386.263 292.799L400.818 345.425L384.032 345.223C384.032 345.223 352.758 288.227 357.871 277.218C367.664 256.146 395.543 244.027 395.543 244.027C395.543 244.027 424.314 235.1 430.131 249.775Z" fill="black"/>
<path d="M385.113 344.033L399.614 342.775C399.614 342.775 401.589 352.338 398.965 354.475C396.341 356.625 367.055 355.381 368.935 352.175C370.816 348.983 385.113 344.033 385.113 344.033Z" fill="#563837"/>
<path d="M373.616 351.837C381.529 354.65 389.916 354.704 397.856 352.026C398.681 351.755 398.329 350.443 397.491 350.727C389.753 353.338 381.664 353.284 373.968 350.538C373.156 350.241 372.791 351.539 373.616 351.837Z" fill="#7A6868"/>
<path d="M553.469 253.535C553.131 257.336 540.957 259.351 526.307 258.026C511.644 256.7 500.038 252.548 500.376 248.747C500.715 244.947 525.32 237.887 539.983 239.212C554.646 240.538 553.807 249.735 553.469 253.535Z" fill="#6F8DA8"/>
<path d="M506.043 231.029C506.043 231.029 468.844 237.657 460.755 221.143C456.102 211.634 476.609 193.294 494.315 191.996C498.779 191.671 493.761 199.827 493.761 199.827C493.761 199.827 460.552 209.416 470.901 216.355C481.249 223.307 503.662 218.032 506.909 222.333C510.169 226.647 506.043 231.029 506.043 231.029Z" fill="#515151"/>
<path d="M389.538 284.117C395.665 294.747 401.793 305.392 407.907 316.023C408.773 317.537 411.113 316.171 410.247 314.657C404.12 304.026 397.992 293.381 391.878 282.751C391.012 281.249 388.672 282.615 389.538 284.117Z" fill="#515151"/>
<path d="M290.318 262.098C252.389 262.098 221.629 292.84 221.629 330.779C221.629 368.703 252.375 399.46 290.318 399.46C328.247 399.46 359.007 368.717 359.007 330.779C359.007 292.84 328.247 262.098 290.318 262.098ZM290.318 385.231C260.234 385.231 235.846 360.845 235.846 330.765C235.846 300.685 260.234 276.299 290.318 276.299C320.402 276.299 344.791 300.685 344.791 330.765C344.791 360.845 320.402 385.231 290.318 385.231Z" fill="#515151"/>
<path d="M615.462 262.463C577.532 262.463 546.772 293.206 546.772 331.144C546.772 369.082 577.519 399.825 615.462 399.825C653.391 399.825 684.151 369.082 684.151 331.144C684.151 293.206 653.391 262.463 615.462 262.463ZM615.462 385.596C585.378 385.596 560.989 361.21 560.989 331.13C560.989 301.05 585.378 276.664 615.462 276.664C645.545 276.664 669.934 301.05 669.934 331.13C669.934 361.21 645.545 385.596 615.462 385.596Z" fill="#515151"/>
<path d="M267.336 261.814L264.698 272.701C264.698 272.701 304.467 258.852 326.529 279.667C359.413 310.694 350.58 343.452 350.58 343.452L363.917 348.645C363.917 348.645 372.29 306.758 340.259 274.73C311.041 245.516 267.336 261.814 267.336 261.814Z" fill="#CCCCCC"/>
<path d="M593.17 261.814L590.532 272.701C590.532 272.701 630.301 258.852 652.363 279.667C685.247 310.694 676.414 343.452 676.414 343.452L689.751 348.645C689.751 348.645 698.124 306.758 666.093 274.73C636.875 245.516 593.17 261.814 593.17 261.814Z" fill="#CCCCCC"/>
<path d="M301.586 392.453C313.571 393.251 324.852 388.99 333.36 380.523C334.591 379.293 332.684 377.386 331.453 378.616C323.378 386.637 312.921 390.492 301.586 389.748C299.841 389.626 299.854 392.331 301.586 392.453Z" fill="#878787"/>
<path d="M580.536 277.517C576.329 279.559 572.825 282.575 570.066 286.335C569.038 287.742 571.378 289.094 572.406 287.701C574.895 284.306 578.141 281.683 581.915 279.857C583.471 279.086 582.105 276.759 580.536 277.517Z" fill="#878787"/>
<path d="M563.384 370.34C577.912 385.989 598.256 394.564 619.615 394.05C621.347 394.009 621.36 391.304 619.615 391.345C598.946 391.831 579.373 383.581 565.305 368.419C564.101 367.148 562.194 369.069 563.384 370.34Z" fill="#878787"/>
<path d="M274.505 265.317C284.826 261.719 295.526 261.881 306.307 262.26C308.052 262.328 308.052 259.623 306.307 259.555C295.256 259.163 284.353 259.014 273.788 262.706C272.152 263.274 272.855 265.885 274.505 265.317Z" fill="#F4F4F4"/>
<path d="M352.366 312.182C353.921 320.838 354.165 329.453 353.164 338.177C352.961 339.908 355.68 339.895 355.869 338.177C356.897 329.196 356.572 320.351 354.976 311.465C354.665 309.761 352.054 310.478 352.366 312.182Z" fill="#F4F4F4"/>
<path d="M604.614 265.655C619.006 262.882 633.358 263.559 647.44 267.576C649.117 268.049 649.834 265.439 648.156 264.965C633.615 260.813 618.736 260.191 603.883 263.045C602.192 263.369 602.909 265.98 604.614 265.655Z" fill="#F4F4F4"/>
<path d="M388.55 308.232C376.051 308.232 365.92 318.363 365.92 330.86C365.92 343.357 376.051 353.488 388.55 353.488C401.049 353.488 411.181 343.357 411.181 330.86C411.181 318.363 401.049 308.232 388.55 308.232ZM388.55 348.808C378.635 348.808 370.6 340.774 370.6 330.86C370.6 320.946 378.635 312.912 388.55 312.912C398.465 312.912 406.5 320.946 406.5 330.86C406.5 340.774 398.465 348.808 388.55 348.808Z" fill="#515151"/>
<path d="M501.255 308.232C488.757 308.232 478.625 318.363 478.625 330.86C478.625 343.357 488.757 353.488 501.255 353.488C513.754 353.488 523.886 343.357 523.886 330.86C523.886 318.363 513.754 308.232 501.255 308.232ZM501.255 348.808C491.34 348.808 483.305 340.774 483.305 330.86C483.305 320.946 491.34 312.912 501.255 312.912C511.171 312.912 519.205 320.946 519.205 330.86C519.205 340.774 511.171 348.808 501.255 348.808Z" fill="#515151"/>
<path d="M333.564 223.01L287.951 331.022L293.294 334.052L340.083 223.132L333.564 223.01Z" fill="#C5E5FC"/>
<path d="M531.082 257.012L498.658 331.022L503.988 334.051L537.615 257.133L531.082 257.012Z" fill="#C5E5FC"/>
<path d="M448.108 257.012L415.685 331.022L422.502 331.062L454.628 257.133L448.108 257.012Z" fill="#C5E5FC"/>
<path d="M388.712 332.253C391.079 333.687 615.476 336.094 615.476 336.094L614.935 330.17L389.362 326.045C389.362 326.045 386.345 330.833 388.712 332.253Z" fill="#C5E5FC"/>
<path d="M326.827 243.838L520.463 331.413L534.707 329.939L331.129 238.955L326.827 243.838Z" fill="#C5E5FC"/>
<path d="M312.435 278.774L390.484 329.75L404.011 330.223L314.369 271.037L312.435 278.774Z" fill="#C5E5FC"/>
<path d="M443.117 254.685L612.608 332.374L626.852 330.913L447.419 249.803L443.117 254.685Z" fill="#C5E5FC"/>
<path d="M464.72 253.035C464.449 256.836 452.329 259.081 437.639 258.04C422.949 256.998 411.275 253.062 411.546 249.262C411.816 245.461 436.286 237.941 450.963 238.983C465.653 240.011 464.99 249.221 464.72 253.035Z" fill="#6F8DA8"/>
<path d="M290.318 345.25C298.319 345.25 304.806 338.765 304.806 330.765C304.806 322.765 298.319 316.279 290.318 316.279C282.317 316.279 275.831 322.765 275.831 330.765C275.831 338.765 282.317 345.25 290.318 345.25Z" fill="#C5E5FC"/>
<path d="M615.462 345.629C623.463 345.629 629.949 339.144 629.949 331.144C629.949 323.144 623.463 316.658 615.462 316.658C607.461 316.658 600.975 323.144 600.975 331.144C600.975 339.144 607.461 345.629 615.462 345.629Z" fill="#C5E5FC"/>
<path d="M426.926 340.761H407.691C404.742 340.761 402.334 338.353 402.334 335.405C402.334 332.456 404.742 330.049 407.691 330.049H426.926C429.875 330.049 432.282 332.456 432.282 335.405C432.269 338.353 429.861 340.761 426.926 340.761Z" fill="#515151"/>
<path d="M531.23 340.761H511.995C509.046 340.761 506.639 338.353 506.639 335.405C506.639 332.456 509.046 330.049 511.995 330.049H531.23C534.179 330.049 536.587 332.456 536.587 335.405C536.587 338.353 534.179 340.761 531.23 340.761Z" fill="#515151"/>
<path d="M330.818 230.11C324.988 246.692 318.427 263.004 311.028 278.95C307.998 285.483 304.698 291.907 302.263 298.697C299.422 306.582 297.758 314.738 293.646 322.136C292.808 323.664 295.134 325.03 295.986 323.502C299.449 317.267 301.289 310.558 303.413 303.796C306.24 294.815 310.528 286.497 314.437 277.949C321.484 262.53 327.788 246.801 333.415 230.814C334.01 229.177 331.4 228.474 330.818 230.11Z" fill="#EBF7FF"/>
<path d="M283.744 324.246C281.972 327.181 280.511 330.387 279.74 333.727C279.28 335.743 279.402 337.677 281.498 338.529C283.108 339.192 283.811 336.568 282.215 335.919C280.917 335.391 285.543 326.505 286.084 325.599C286.99 324.125 284.65 322.759 283.744 324.246Z" fill="#EBF7FF"/>
<path d="M383.464 324.313C387.752 327.951 392.135 331.468 396.612 334.876C398.005 335.931 399.345 333.578 397.978 332.536C393.677 329.277 389.484 325.895 385.371 322.406C384.059 321.283 382.125 323.177 383.464 324.313Z" fill="#EBF7FF"/>
<path d="M443.739 330.832C497.657 330.832 551.575 330.832 605.479 330.832C607.224 330.832 607.224 328.127 605.479 328.127C551.561 328.127 497.644 328.127 443.739 328.127C442.008 328.127 441.994 330.832 443.739 330.832Z" fill="#EBF7FF"/>
<path d="M610.376 325.098C609.537 327.222 608.861 329.399 608.442 331.644C608.117 333.416 607.63 335.499 608.049 337.271C608.144 337.704 608.55 338.123 608.996 338.218C609.077 338.231 609.172 338.258 609.253 338.272C609.686 338.366 610.268 338.312 610.565 337.92C610.606 337.866 610.66 337.798 610.701 337.744C611.756 336.392 609.862 334.458 608.793 335.837C608.753 335.891 608.699 335.959 608.658 336.013C609.091 335.891 609.537 335.783 609.97 335.661C609.889 335.648 609.794 335.621 609.713 335.607C610.024 335.918 610.349 336.243 610.66 336.554C610.268 334.877 610.998 332.415 611.39 330.792C611.796 329.088 612.337 327.452 612.987 325.815C613.622 324.205 611.012 323.502 610.376 325.098Z" fill="#EBF7FF"/>
<path d="M439.249 281.723C437.409 286.416 435.556 291.11 433.716 295.803C433.08 297.426 435.691 298.129 436.327 296.52C438.166 291.826 440.02 287.133 441.859 282.44C442.495 280.817 439.884 280.114 439.249 281.723Z" fill="#EBF7FF"/>
<path d="M362.267 224.808C362.267 224.808 321.876 229.501 313.787 212.973C309.134 203.465 330.695 188.087 348.388 186.775C352.852 186.45 347.834 194.606 347.834 194.606C347.834 194.606 314.625 204.196 324.973 211.134C335.321 218.086 359.873 211.797 363.133 216.111C366.393 220.426 362.267 224.808 362.267 224.808Z" fill="#515151"/>
<path d="M325.636 195.743C322.308 196.676 320.523 199.611 318.629 202.316C316.817 204.886 315.91 207.469 317.831 210.242C322.498 216.964 334.253 214.948 341.124 215.192C342.869 215.246 342.869 212.541 341.124 212.487C336.146 212.311 330.857 213.001 325.961 211.824C322.525 210.999 318.372 209.092 320.131 204.832C321.01 202.708 324.256 198.948 326.353 198.353C328.03 197.88 327.327 195.269 325.636 195.743Z" fill="#878787"/>
<path d="M415.495 320.973L429.346 316.51C429.346 316.51 433.404 325.382 431.335 328.06C429.265 330.738 400.44 336.081 401.549 332.551C402.658 329.021 415.495 320.973 415.495 320.973Z" fill="#563837"/>
<path d="M405.797 331.942C414.129 332.916 422.326 331.077 429.455 326.681C430.199 326.221 429.523 325.058 428.779 325.518C421.826 329.805 413.913 331.536 405.797 330.59C404.931 330.481 404.944 331.834 405.797 331.942Z" fill="#7A6868"/>
<path d="M399.29 83.3357C418.065 62.0335 442.224 82.5783 446.526 103.177C447.824 109.399 445.119 117.717 435.907 117.081C435.515 129.605 436.624 132.486 442.941 144.483C450.651 151.503 425.803 158.725 420.608 161.701C406.568 160.997 418.471 138.383 405.12 133.879C401.333 132.594 393.446 126.738 394.204 122.234C388.536 124.588 386.074 117.298 385.763 115.201C385.087 110.562 386.331 106.518 390.511 109.128C389.794 97.1585 394.488 88.7729 399.29 83.3357Z" fill="#FFE4D7"/>
<path d="M404.133 106.083C404.092 106.814 403.47 107.382 402.74 107.341C402.009 107.314 401.441 106.692 401.482 105.962C401.509 105.231 402.131 104.663 402.861 104.69C403.592 104.731 404.16 105.353 404.133 106.083Z" fill="black"/>
<path d="M418.498 105.259C418.457 105.989 417.835 106.557 417.105 106.53C416.374 106.503 415.806 105.881 415.847 105.151C415.874 104.42 416.496 103.852 417.227 103.893C417.957 103.906 418.525 104.528 418.498 105.259Z" fill="black"/>
<path d="M430.591 114.538C430.253 116.715 428.224 118.189 426.046 117.865C423.868 117.527 422.394 115.498 422.719 113.32C423.057 111.143 425.099 109.655 427.264 109.993C429.441 110.331 430.929 112.36 430.591 114.538Z" fill="#E7B4AD"/>
<path d="M405.336 116.052C405.052 117.878 403.348 119.109 401.535 118.838C399.722 118.554 398.478 116.85 398.762 115.038C399.046 113.225 400.737 111.981 402.563 112.265C404.362 112.536 405.607 114.226 405.336 116.052Z" fill="#E7B4AD"/>
<path d="M403.443 74.868C382.977 76.9374 378.919 89.9757 386.994 99.1187C391.201 103.88 381.989 115.268 393.825 114.51C388.117 103.379 396.801 100.079 394.935 93.7357C405.742 93.5463 408.367 84.6062 413.845 83.6459C415.482 85.6476 416.388 91.3417 421.501 90.8007C429.969 89.9081 434.879 94.0197 433.608 101.391C440.114 96.8465 443.78 102.054 443.793 107.329C443.807 111.724 441.034 116.012 437.666 116.363C440.209 121.746 448.487 115.876 450.692 109.79C454.398 110.074 456.739 94.182 447.527 89.7458C449.759 80.6568 437.476 71.365 434.081 77.4243C424.288 67.0099 407.149 57.8534 403.443 74.868Z" fill="#BCBCBC"/>
<path d="M411.045 139.276C400.751 135.637 385.777 159.252 377.701 180.311C372.439 194.026 355.03 184.45 343.708 182.191C336.62 180.771 327.192 190.766 332.359 195.365C341.395 203.398 346.995 208.754 367.191 215.747C375.578 218.655 382.03 223.226 396.003 218.695C397.762 225.904 391.593 240.295 391.593 240.295C391.593 240.295 457.929 234.209 462.853 229.894C471.226 216.978 473.687 168.084 461.419 145.889C454.588 133.541 446.688 133.703 440.06 135.867C438.437 132.297 436.556 129.078 437.138 128.482C431.227 134.758 418.038 153.545 418.038 153.545C418.038 153.545 412.83 147.012 411.045 139.276Z" fill="#CCE6FF"/>
<path d="M463.123 229.352C463.123 229.352 467.546 249.018 453.695 256.592C439.843 264.166 408.907 269.427 408.907 269.427L430.307 318.402L411.031 327.599L392.865 299.602C392.865 299.602 367.367 255.212 374.076 245.082C385.533 227.797 422.083 235.073 422.083 235.073C422.083 235.073 464.8 228.108 463.123 229.352Z" fill="black"/>
<path d="M410.044 103.162C409.57 107.233 408.948 111.44 407.514 115.308C407.365 115.686 407.609 116.282 407.974 116.457C410.936 117.85 413.723 116.606 416.374 115.064C417.51 114.415 416.482 112.657 415.346 113.306C413.439 114.402 411.193 115.727 408.989 114.699C409.137 115.078 409.3 115.457 409.448 115.849C410.95 111.818 411.572 107.423 412.059 103.162C412.221 101.864 410.192 101.877 410.044 103.162Z" fill="black"/>
<path d="M408.394 125.804C409.909 125.845 411.464 125.872 412.939 125.453C414.427 125.033 415.482 123.978 416.848 123.302C418.011 122.721 416.997 120.976 415.82 121.544C414.63 122.139 413.71 123.113 412.398 123.491C411.099 123.87 409.719 123.803 408.394 123.775C407.095 123.748 407.095 125.777 408.394 125.804Z" fill="black"/>
<path d="M416.591 120.177C417.646 120.609 418.431 121.691 418.539 122.814C418.66 124.099 420.69 124.112 420.568 122.814C420.378 120.69 419.093 119.013 417.132 118.215C416.618 118.012 416.023 118.445 415.887 118.919C415.712 119.514 416.09 119.974 416.591 120.177Z" fill="black"/>
<path d="M406.946 119.921C405.905 121.057 405.147 122.383 404.728 123.857C404.363 125.115 406.324 125.656 406.689 124.398C407.014 123.248 407.582 122.234 408.394 121.355C409.259 120.395 407.839 118.961 406.946 119.921Z" fill="black"/>
<path d="M435.664 104.501C436.665 106.557 436.34 108.816 435.001 110.628C434.23 111.683 435.988 112.697 436.759 111.656C438.545 109.248 438.721 106.138 437.422 103.473C436.854 102.296 435.096 103.324 435.664 104.501Z" fill="black"/>
<path d="M390.552 116.823C390.62 118 390.836 119.163 391.201 120.286C391.607 121.517 393.569 120.989 393.163 119.745C392.852 118.798 392.649 117.824 392.581 116.823C392.5 115.525 390.471 115.525 390.552 116.823Z" fill="black"/>
<path d="M419.161 156.344C420.743 158.156 422.339 159.955 423.922 161.767C424.355 162.268 425.207 162.092 425.518 161.564C430.266 153.49 435.136 145.483 440.127 137.544C440.831 136.435 439.072 135.42 438.369 136.516C433.377 144.441 428.508 152.448 423.76 160.536C424.287 160.469 424.828 160.401 425.356 160.334C423.773 158.521 422.177 156.722 420.594 154.91C419.729 153.936 418.295 155.37 419.161 156.344Z" fill="black"/>
<path d="M415.346 156.343C414.724 157.168 414.102 157.98 413.479 158.805C413.141 159.238 413.412 159.941 413.845 160.198C414.359 160.509 414.9 160.266 415.238 159.833C415.86 159.008 416.482 158.196 417.105 157.371C417.443 156.938 417.172 156.235 416.739 155.978C416.212 155.667 415.671 155.911 415.346 156.343Z" fill="black"/>
<path d="M416.415 167.449C417.727 167.449 417.727 165.42 416.415 165.42C415.103 165.42 415.103 167.449 416.415 167.449Z" fill="black"/>
<path d="M412.452 181.826C413.764 181.826 413.764 179.797 412.452 179.797C411.14 179.797 411.14 181.826 412.452 181.826Z" fill="black"/>
<path d="M397.666 221.17C397.815 224.984 397.409 228.69 396.408 232.383C396.07 233.641 398.018 234.182 398.37 232.924C399.425 229.069 399.871 225.174 399.709 221.17C399.641 219.872 397.612 219.858 397.666 221.17Z" fill="black"/>
<path d="M393.365 89.8278C399.236 89.165 405.255 87.1227 407.42 81.104C407.866 79.8732 405.905 79.3458 405.458 80.563C403.632 85.6485 398.235 87.2445 393.365 87.799C392.094 87.9478 392.067 89.9766 393.365 89.8278Z" fill="black"/>
<path d="M390.971 85.4042C393.771 84.2004 396.544 82.9155 398.628 80.6162C399.507 79.6559 398.073 78.2087 397.194 79.1826C395.232 81.3466 392.581 82.5098 389.957 83.6459C388.753 84.1734 389.781 85.9181 390.971 85.4042Z" fill="black"/>
<path d="M415.603 75.8558C416.713 79.9945 418.336 84.539 422.38 86.6625C424.342 87.6904 426.06 87.5822 428.224 87.6228C430.091 87.6633 431.727 87.6092 433.527 88.3261C435.488 89.124 441.697 92.7759 438.45 95.8867C437.503 96.7928 438.937 98.2265 439.884 97.3203C443.645 93.7361 439.627 89.5569 436.313 87.474C433.581 85.7563 431.349 85.7292 428.224 85.594C421.447 85.3235 419.175 81.3741 417.551 75.3148C417.227 74.057 415.265 74.5845 415.603 75.8558Z" fill="black"/>
<path d="M437.476 85.9594C438.396 86.7304 439.478 87.2173 440.425 87.9341C441.696 88.8809 441.94 90.3146 442.17 91.7753C442.373 93.0602 444.321 92.5192 444.131 91.2343C443.888 89.7194 443.563 88.1911 442.481 87.0279C441.466 85.9459 440.033 85.4455 438.91 84.5258C437.909 83.6872 436.462 85.1209 437.476 85.9594Z" fill="black"/>
<path d="M446.918 98.0511C447.256 100.053 447.513 102.109 447.445 104.137C447.351 106.91 446.255 108.398 444.361 110.197C443.414 111.089 444.848 112.523 445.795 111.63C447.459 110.061 448.947 108.425 449.326 106.099C449.785 103.299 449.339 100.283 448.866 97.5101C448.663 96.2252 446.701 96.7662 446.918 98.0511Z" fill="black"/>
<path d="M340.989 185.261C344.331 188.385 346.535 192.889 346.481 196.04C344.993 202.56 335.43 203.29 330.344 198.434C321.795 189.873 333.996 178.715 340.989 185.261Z" fill="#FFE4D7"/>
<path d="M332.603 186.654C329.383 187.75 328.125 191.888 328.463 194.999C328.612 196.284 330.641 196.298 330.492 194.999C330.263 192.903 330.831 189.386 333.144 188.615C334.361 188.196 333.834 186.235 332.603 186.654Z" fill="black"/>
<path d="M334.456 190.657C331.547 192.186 331.101 195.892 330.574 198.786C330.344 200.058 332.291 200.612 332.535 199.327C332.954 197.028 333.171 193.633 335.484 192.402C336.634 191.807 335.606 190.049 334.456 190.657Z" fill="black"/>
<path d="M336.349 194.119C335.457 195.377 332.792 201.166 335.646 201.707C336.917 201.95 337.472 199.989 336.187 199.745C336.417 199.786 336.43 200.111 336.458 199.908C336.485 199.718 336.471 199.529 336.498 199.34C336.579 198.785 336.755 198.244 336.917 197.717C337.215 196.838 337.553 195.918 338.108 195.147C338.852 194.078 337.093 193.064 336.349 194.119Z" fill="black"/>
<path d="M356.978 199.258C361.537 199.461 366.15 201.463 368.152 203.884C371.263 209.808 364.459 216.571 357.438 216.192C345.386 215.232 347.415 198.826 356.978 199.258Z" fill="#FFE4D7"/>
<path d="M351.473 205.832C349.755 208.794 351.568 212.716 353.84 214.867C354.787 215.759 356.221 214.326 355.274 213.433C353.705 211.945 351.987 208.983 353.218 206.86C353.881 205.724 352.122 204.696 351.473 205.832Z" fill="black"/>
<path d="M355.49 207.671C354.314 210.728 356.397 213.852 357.885 216.395C358.548 217.518 360.293 216.503 359.643 215.367C358.439 213.311 356.491 210.687 357.452 208.199C357.925 206.995 355.964 206.468 355.49 207.671Z" fill="black"/>
<path d="M359.183 208.835C359.318 210.458 361.036 216.761 363.674 215.192C364.797 214.529 363.768 212.771 362.646 213.433C363.363 213.001 363.052 213.663 362.984 213.271C362.97 213.19 362.754 212.947 362.713 212.879C362.429 212.446 362.213 211.959 362.01 211.472C361.672 210.647 361.293 209.714 361.225 208.821C361.104 207.536 359.075 207.536 359.183 208.835Z" fill="black"/>
<path d="M400.413 100.444C400.67 99.7141 402.252 99.6059 402.834 99.5653C403.875 99.4977 404.038 99.7817 404.673 100.553C405.499 101.567 406.932 100.12 406.107 99.119C404.93 97.6853 403.997 97.3472 402.117 97.6042C400.575 97.807 399.019 98.3075 398.465 99.9034C398.032 101.148 399.98 101.675 400.413 100.444Z" fill="#8C8C8C"/>
<path d="M415.928 98.104C417.01 98.0364 418.539 97.847 419.202 98.9291C419.891 100.038 421.65 99.0237 420.96 97.9011C419.851 96.1293 417.835 95.9535 415.928 96.0752C414.629 96.1699 414.629 98.1987 415.928 98.104Z" fill="#8C8C8C"/>
<path d="M405.283 146.457C405.405 150.988 405.526 155.519 405.648 160.05C405.689 161.349 407.718 161.362 407.677 160.05C407.555 155.519 407.434 150.988 407.312 146.457C407.271 145.159 405.242 145.145 405.283 146.457Z" fill="black"/>
<path d="M371.885 197.92C378.946 192.604 388.685 191.82 397.207 190.981C405.756 190.143 414.359 189.994 422.935 189.818C422.692 189.236 422.462 188.668 422.218 188.087C418.39 192.266 417.944 197.324 417.903 202.802C417.89 204.114 419.919 204.114 419.932 202.802C419.973 197.933 420.149 193.348 423.652 189.52C424.22 188.898 423.842 187.776 422.935 187.789C412.641 187.992 402.32 188.208 392.094 189.52C384.654 190.481 376.985 191.549 370.857 196.161C369.829 196.946 370.843 198.704 371.885 197.92Z" fill="black"/>
<path d="M422.745 191.537C422.975 193.606 423.354 195.648 423.908 197.65C424.26 198.908 426.208 198.367 425.87 197.109C425.369 195.27 424.991 193.417 424.774 191.523C424.625 190.252 422.596 190.238 422.745 191.537Z" fill="black"/>
<path d="M439.33 159.562C432.364 168.002 425.533 176.645 422.719 187.424C422.394 188.682 424.342 189.223 424.68 187.965C427.399 177.51 434.014 169.179 440.764 160.996C441.589 160.009 440.155 158.562 439.33 159.562Z" fill="black"/>
<path d="M393.825 173.439C393.811 178.186 393.487 182.92 392.837 187.627C392.662 188.898 394.609 189.453 394.799 188.168C395.475 183.272 395.84 178.389 395.854 173.439C395.854 172.127 393.825 172.127 393.825 173.439Z" fill="black"/>
<path d="M371.777 217.599C387.076 220.805 402.821 220.697 418.025 216.91C430.686 213.758 446.269 208.389 453.276 196.541C453.939 195.418 452.194 194.39 451.517 195.513C444.483 207.415 428.008 212.609 415.238 215.489C401.076 218.681 386.494 218.614 372.318 215.638C371.046 215.368 370.505 217.329 371.777 217.599Z" fill="black"/>
<path d="M374.36 203.006C384.64 199.151 395.178 196.541 406.08 195.256C408.637 194.959 408.677 190.888 406.08 191.199C394.799 192.524 383.923 195.107 373.278 199.097C370.856 200.003 371.911 203.926 374.36 203.006Z" fill="#EBF7FF"/>
<path d="M352.271 192.212C359.061 192.05 365.824 192.347 372.574 193.105C374.306 193.294 374.292 190.589 372.574 190.4C365.824 189.642 359.061 189.358 352.271 189.507C350.526 189.547 350.526 192.253 352.271 192.212Z" fill="#EBF7FF"/>
<path d="M400.169 169.625C399.939 173.006 399.845 176.387 399.885 179.768C399.899 181.513 402.604 181.513 402.59 179.768C402.55 176.387 402.645 173.006 402.875 169.625C402.996 167.893 400.277 167.893 400.169 169.625Z" fill="#EBF7FF"/>
<path d="M469.955 221.575C473.715 223.618 477.719 224.822 481.966 225.281C483.698 225.471 483.684 222.766 481.966 222.576C478.206 222.171 474.648 221.034 471.321 219.236C469.792 218.424 468.426 220.75 469.955 221.575Z" fill="#878787"/>
<path d="M543.512 232.844C549.004 232.465 554.32 231.938 559.487 229.923C562.869 228.597 567.225 227.312 569.903 224.77C570.85 223.863 569.416 222.43 568.469 223.336C565.845 225.838 560.421 227.542 557.188 228.624C552.751 230.112 548.152 230.504 543.512 230.829C542.213 230.91 542.213 232.939 543.512 232.844Z" fill="black"/>
<path d="M569.051 226.026C569.051 226.026 568.929 250.412 555.727 259.068C542.525 267.725 514.348 268.252 514.348 268.252L546.069 314.684L527.591 325.396L502.634 299.536C502.634 299.536 476.622 254.416 482.506 243.785C492.529 225.634 532.677 233.939 532.677 233.939C532.677 233.939 570.62 224.647 569.051 226.026Z" fill="black"/>
<path d="M503.216 290.095C510.182 300.212 517.135 310.315 524.101 320.432C525.088 321.852 527.429 320.5 526.441 319.066C519.475 308.949 512.522 298.846 505.556 288.729C504.568 287.309 502.228 288.662 503.216 290.095Z" fill="#515151"/>
<path d="M532.257 319.756L545.703 314.184C545.703 314.184 550.465 322.704 548.611 325.545C546.758 328.385 518.46 336.027 519.285 332.416C520.11 328.804 532.257 319.756 532.257 319.756Z" fill="#563837"/>
<path d="M523.613 330.671C531.987 330.969 540.021 328.521 546.785 323.557C547.475 323.043 546.812 321.88 546.109 322.394C539.521 327.222 531.784 329.616 523.627 329.319C522.748 329.292 522.748 330.644 523.613 330.671Z" fill="#7A6868"/>
<path d="M548.179 89.706C527.037 67.8763 510.872 92.1946 510.466 109.723C505.8 123.384 512.671 134.867 515.093 136.503C520.057 139.857 523.073 136.206 522.221 146.62C521.45 156.101 520.841 164.595 525.711 167.084C539.414 167.895 545.041 151.543 549.775 133.095C552.724 134.907 556.512 130.065 559.609 126.603C563.234 122.532 560.353 115.255 556.038 114.579C558.554 100.296 556.606 98.4162 548.179 89.706Z" fill="#FFE4D7"/>
<path d="M547.057 79.4405C535.302 76.2215 526.807 76.1809 516.635 83.3222C510.467 88.854 508.438 100.472 510.467 110.44C515.85 104.192 513.24 101.108 527.551 96.6851C527.997 110.846 553.306 105.179 554.199 114.917C554.185 128.334 548.098 134.299 551.236 138.302C562.288 152.382 582.443 136.206 575.842 122.681C590.437 99.0385 565.169 101.5 563.329 96.32C561.057 89.9902 556.742 82.0914 547.057 79.4405Z" fill="#BCBCBC"/>
<path d="M535.41 123.573C535.599 125.561 537.371 127.036 539.36 126.846C541.348 126.657 542.823 124.885 542.62 122.897C542.43 120.909 540.658 119.434 538.67 119.624C536.682 119.8 535.221 121.571 535.41 123.573Z" fill="#E7B4AD"/>
<path d="M546.935 142.4C546.935 142.4 530.189 160.362 530.189 159.686C530.189 159.009 522.519 144.253 522.519 144.253C522.519 144.253 505.367 143.171 495.438 178.702C492.801 188.156 468.033 190.564 466.964 199.125C466.505 202.79 469.994 207.754 480.342 208.539C486.605 209.012 499.496 204.67 504.677 203.737C505.354 212.501 491.786 234.101 492.205 239.403C492.611 244.394 566.319 245.909 567.428 242.825C569.579 236.86 569.971 232.018 569.349 224.471C579.805 216.397 582.483 205.522 579.413 184.951C574.719 153.491 546.935 142.4 546.935 142.4Z" fill="#DCB0E2"/>
<path d="M511.265 122.206C511.468 124.276 513.308 125.79 515.377 125.601C517.447 125.398 518.962 123.559 518.772 121.489C518.57 119.42 516.73 117.905 514.66 118.108C512.591 118.297 511.076 120.137 511.265 122.206Z" fill="#E7B4AD"/>
<path d="M530.879 114.796C530.96 115.486 530.473 116.094 529.797 116.189C529.107 116.27 528.485 115.783 528.403 115.093C528.322 114.404 528.809 113.781 529.499 113.7C530.175 113.619 530.798 114.106 530.879 114.796Z" fill="black"/>
<path d="M518.095 114.241C518.177 114.931 517.69 115.553 517 115.634C516.31 115.715 515.688 115.228 515.606 114.539C515.525 113.849 516.012 113.227 516.702 113.146C517.392 113.064 518.014 113.551 518.095 114.241Z" fill="black"/>
<path d="M535.654 111.942C535.505 109.278 531.352 106.519 528.931 108.155C527.849 108.872 528.863 110.63 529.959 109.913C531.028 109.197 533.557 110.738 533.625 111.956C533.692 113.241 535.721 113.241 535.654 111.942Z" fill="#8C8C8C"/>
<path d="M521.22 105.504C519.299 104.544 515.241 104.882 514.741 107.465C514.497 108.737 516.445 109.291 516.702 108.006C516.919 106.857 519.407 106.843 520.206 107.249C521.355 107.844 522.383 106.086 521.22 105.504Z" fill="#8C8C8C"/>
<path d="M521.206 115.16C521.193 117.662 521.058 120.286 519.948 122.572C519.718 123.045 519.786 123.694 520.314 123.965C521.761 124.695 525.143 125.561 526.644 124.627C527.753 123.938 526.739 122.193 525.616 122.869C525.007 123.248 522.167 122.626 521.328 122.206C521.45 122.666 521.572 123.126 521.693 123.599C522.965 120.962 523.208 118.041 523.222 115.16C523.249 113.848 521.22 113.848 521.206 115.16Z" fill="black"/>
<path d="M537.872 168.004C535.126 165.732 533.016 162.905 530.851 160.092C530.432 159.551 529.81 159.429 529.255 159.889C527.064 161.742 523.75 162.378 521.126 163.446C519.935 163.933 520.449 165.894 521.667 165.407C524.629 164.19 528.187 163.433 530.689 161.336C530.162 161.269 529.62 161.201 529.093 161.133C531.365 164.082 533.557 167.071 536.438 169.465C537.425 170.263 538.873 168.829 537.872 168.004Z" fill="black"/>
<path d="M510.209 127.982C510.209 127.982 512.036 132.595 513.943 134.975C515.864 137.369 519.124 138.235 519.124 138.235C519.124 138.235 509.925 147.54 504.285 141.359C498.644 135.178 507.896 134.461 510.209 127.982Z" fill="#BCBCBC"/>
<path d="M529.526 127.955C530.405 128.266 531.109 128.956 531.42 129.835C531.853 131.052 533.814 130.525 533.381 129.294C532.813 127.711 531.65 126.562 530.067 126.007C528.836 125.574 528.295 127.536 529.526 127.955Z" fill="black"/>
<path d="M549.005 203.683C548.937 205.333 549.167 206.969 549.668 208.552C550.06 209.796 552.021 209.269 551.629 208.011C551.183 206.591 550.993 205.171 551.047 203.683C551.074 202.384 549.045 202.384 549.005 203.683Z" fill="black"/>
<path d="M552.251 200.775C553.793 201.749 555.335 202.709 556.877 203.683C557.053 203.047 557.216 202.425 557.391 201.79C557.202 201.776 557.026 201.762 556.837 201.762C555.538 201.681 555.538 203.71 556.837 203.791C557.026 203.805 557.202 203.818 557.391 203.818C558.446 203.886 558.704 202.439 557.905 201.925C556.363 200.951 554.821 199.991 553.279 199.017C552.17 198.327 551.142 200.085 552.251 200.775Z" fill="black"/>
<path d="M548.26 179.689C547.895 184.666 547.719 189.643 547.746 194.634C547.746 195.946 549.775 195.946 549.775 194.634C549.761 189.643 549.937 184.666 550.289 179.689C550.384 178.39 548.355 178.39 548.26 179.689Z" fill="black"/>
<path d="M531.771 93.6276C533.016 96.6843 534.382 99.3894 537.358 101.08C541.051 103.176 545.474 103.866 549.6 104.57C550.871 104.786 551.426 102.838 550.141 102.608C547.246 102.108 544.324 101.621 541.551 100.674C537.52 99.2811 535.342 97.0224 533.746 93.0866C533.246 91.8964 531.284 92.4239 531.771 93.6276Z" fill="white"/>
<path d="M542.146 94.4669C558.96 95.0755 556.877 110.494 557.459 122.694C557.648 126.846 559.339 130.106 563.749 130.471C565.047 130.579 565.047 128.55 563.749 128.442C558.081 127.955 559.717 112.956 559.231 109.088C558.838 105.909 558.324 102.46 556.715 99.6335C553.657 94.264 547.976 92.6545 542.146 92.4381C540.834 92.3975 540.834 94.4263 542.146 94.4669Z" fill="white"/>
<path d="M557.621 98.9027C560.543 102.974 562.261 106.544 561.977 111.725C561.787 115.363 561.408 118.649 562.558 122.166C562.964 123.397 564.925 122.869 564.52 121.625C562.991 116.945 564.574 112.347 563.992 107.599C563.532 103.866 561.544 100.864 559.393 97.8748C558.608 96.8333 556.85 97.8342 557.621 98.9027Z" fill="white"/>
<path d="M566.576 102.921C568.145 105.477 568.875 108.114 568.686 111.117C568.578 112.97 567.793 115.107 568.402 116.946C569.416 120.017 572.906 120.355 575.639 120.355C576.951 120.355 576.951 118.326 575.639 118.326C572.176 118.339 570.566 118.177 570.472 113.2C570.445 111.766 570.823 110.373 570.715 108.899C570.526 106.356 569.633 104.043 568.321 101.893C567.644 100.784 565.9 101.812 566.576 102.921Z" fill="white"/>
<path d="M520.314 84.3495C518.109 86.473 515.391 88.096 513.537 90.5711C511.522 93.2626 511.414 96.4546 511.495 99.6871C511.535 100.986 513.564 100.999 513.524 99.6871C513.429 96.1976 513.659 93.1544 516.243 90.5441C517.947 88.8128 520.003 87.4603 521.748 85.7832C522.682 84.877 521.248 83.4433 520.314 84.3495Z" fill="white"/>
<path d="M525.657 90.7066C524.913 91.6128 524.155 92.5325 523.411 93.4387C523.06 93.8715 523.006 94.4531 523.411 94.8724C523.763 95.2376 524.494 95.2917 524.845 94.8724C525.589 93.9662 526.347 93.0465 527.091 92.1403C527.442 91.7075 527.496 91.1259 527.091 90.7066C526.739 90.3415 526.009 90.2874 525.657 90.7066Z" fill="white"/>
<path d="M509.303 133.366C508.518 135.516 507.22 137.369 505.529 138.911C504.555 139.79 505.989 141.224 506.963 140.345C508.924 138.573 510.358 136.395 511.264 133.907C511.711 132.676 509.749 132.148 509.303 133.366Z" fill="white"/>
<path d="M468.263 208.606C471.455 205.455 474.269 210.135 478.097 207.551C484.752 203.061 479.138 193.296 470.995 194.473C456.183 196.583 465.584 210.96 468.263 208.606Z" fill="#FFE4D7"/>
<path d="M465.855 201.167C464.827 204.319 466.572 207.808 469.845 208.593C471.117 208.904 471.658 206.943 470.386 206.631C468.141 206.09 467.113 203.818 467.816 201.695C468.209 200.464 466.247 199.937 465.855 201.167Z" fill="black"/>
<path d="M471.347 201.004C469.859 202.708 468.872 206.063 470.644 207.902C471.55 208.849 472.984 207.415 472.078 206.468C471.172 205.522 472.064 203.263 472.781 202.438C473.633 201.464 472.213 200.017 471.347 201.004Z" fill="black"/>
<path d="M475.188 201.627C473.362 203.156 472.699 205.793 473.349 208.052C473.714 209.31 475.675 208.769 475.31 207.511C474.837 205.888 475.324 204.143 476.622 203.061C477.623 202.222 476.189 200.789 475.188 201.627Z" fill="black"/>
<path d="M491.367 225.485C494.884 222.685 497.17 227.636 501.268 225.472C508.356 221.712 503.825 211.419 495.6 211.703C480.626 212.258 488.458 227.555 491.367 225.485Z" fill="#FFE4D7"/>
<path d="M489.824 217.709C488.404 220.86 489.702 224.499 493.043 225.689C494.274 226.135 494.802 224.174 493.584 223.728C491.569 223.011 490.73 220.63 491.583 218.723C492.11 217.547 490.352 216.519 489.824 217.709Z" fill="black"/>
<path d="M495.154 218.33C493.436 219.912 492.313 223.118 493.869 225.119C494.667 226.147 496.087 224.7 495.303 223.686C494.518 222.671 495.844 220.453 496.588 219.763C497.548 218.884 496.114 217.45 495.154 218.33Z" fill="black"/>
<path d="M499.117 219.209C497.021 220.616 496.06 223.132 496.507 225.593C496.737 226.878 498.698 226.337 498.468 225.052C498.198 223.537 498.86 221.82 500.145 220.954C501.228 220.237 500.213 218.479 499.117 219.209Z" fill="black"/>
<path d="M506.056 212.312C518.636 207.646 531.514 204.238 544.743 202.074C546.028 201.857 545.487 199.91 544.202 200.112C530.973 202.276 518.082 205.685 505.515 210.351C504.298 210.797 504.825 212.772 506.056 212.312Z" fill="black"/>
<path d="M510.967 225.958C526.698 227.703 542.241 226.094 557.282 221.184C558.513 220.778 557.986 218.817 556.741 219.223C541.862 224.078 526.509 225.661 510.953 223.93C509.668 223.794 509.682 225.823 510.967 225.958Z" fill="black"/>
<path d="M519.732 146.12C520.003 151.719 520.192 157.386 517.555 162.512C516.959 163.675 518.704 164.703 519.313 163.54C522.127 158.089 522.073 152.111 521.775 146.12C521.694 144.821 519.665 144.808 519.732 146.12Z" fill="black"/>
<path d="M510.048 176.903C507.261 185.559 505.557 194.377 504.894 203.453C504.799 204.751 506.828 204.751 506.923 203.453C507.572 194.567 509.263 185.924 511.995 177.444C512.415 176.2 510.453 175.658 510.048 176.903Z" fill="black"/>
<path d="M550.032 148.135C546.637 153.977 543.12 159.739 539.495 165.447C538.792 166.556 540.55 167.57 541.254 166.475C544.879 160.767 548.396 155.005 551.791 149.163C552.44 148.026 550.682 146.998 550.032 148.135Z" fill="black"/>
<path d="M525.941 177.119C527.253 177.119 527.253 175.09 525.941 175.09C524.629 175.09 524.629 177.119 525.941 177.119Z" fill="black"/>
<path d="M522.708 189.509C524.02 189.509 524.02 187.48 522.708 187.48C521.41 187.48 521.41 189.509 522.708 189.509Z" fill="black"/>
<path d="M542.268 294.492C541.971 294.397 541.687 294.302 541.389 294.194C539.739 293.639 539.022 296.25 540.672 296.804C540.97 296.899 541.254 296.994 541.552 297.102C543.215 297.656 543.919 295.046 542.268 294.492Z" fill="#EBF7FF"/>
<path d="M486.037 193.715C489.676 192.431 493.301 191.146 496.94 189.874C499.388 189.009 498.333 185.086 495.858 185.965C492.219 187.25 488.594 188.535 484.955 189.807C482.507 190.672 483.562 194.595 486.037 193.715Z" fill="#EDD1F2"/>
<path d="M517.73 214.732C525.224 212.866 532.718 211.013 540.212 209.146C542.742 208.524 541.673 204.602 539.13 205.237C531.636 207.104 524.142 208.957 516.648 210.823C514.119 211.445 515.187 215.354 517.73 214.732Z" fill="#EDD1F2"/>
<path d="M503.595 228.853C502.323 230.99 501.052 233.14 499.78 235.277C498.441 237.522 501.945 239.565 503.284 237.319C504.555 235.182 505.827 233.032 507.098 230.895C508.437 228.65 504.92 226.607 503.595 228.853Z" fill="#EDD1F2"/>
<path d="M539.198 152.842C537.25 155.114 535.613 157.576 534.369 160.281C533.273 162.634 536.777 164.703 537.872 162.323C538.981 159.929 540.361 157.711 542.079 155.709C543.756 153.735 540.902 150.854 539.198 152.842Z" fill="#EDD1F2"/>
<path d="M517.92 131.242C520.3 132.959 526.671 133.933 527.172 129.754C527.321 128.455 525.292 128.469 525.143 129.754C525.035 130.647 522.749 130.728 522.194 130.701C520.963 130.647 519.921 130.2 518.934 129.483C517.892 128.726 516.878 130.484 517.92 131.242Z" fill="black"/>
<path d="M249.981 279.41C237.753 289.081 230.381 302.985 229.015 318.498C228.866 320.229 231.571 320.216 231.72 318.498C233.032 303.675 240.242 290.542 251.889 281.331C253.255 280.249 251.334 278.342 249.981 279.41Z" fill="#878787"/>
</g>
<defs>
<clipPath id="clip0_643_6673">
<rect width="980" height="440" fill="white"/>
</clipPath>
</defs>
</svg>
