<?xml version="1.0" encoding="UTF-8"?>
<svg id="_레이어_1" data-name="레이어 1" xmlns="http://www.w3.org/2000/svg" version="1.1" viewBox="0 0 380 85">
  <defs>
    <style>
      .cls-1 {
        fill: #000;
      }

      .cls-1, .cls-2 {
        stroke-width: 0px;
      }

      .cls-2 {
        fill: #fff;
      }

      .cls-3 {
        fill: none;
        stroke: #708cd9;
        stroke-linecap: round;
        stroke-linejoin: round;
      }
    </style>
  </defs>
  <g>
    <path class="cls-1" d="M114.7,8.3c0,.5,0,.9-.2,1.4s-.4.8-.7,1.2c-.3.4-.7.8-1.2,1.1-.5.4-1,.7-1.7,1-1.4.7-2.2,1.4-2.6,1.9h6.4c.3,0,.5.2.5.5v1.2c0,.3-.2.5-.5.5h-8.3c-.6,0-.9-.3-.9-.9s0-1,.2-1.4c.1-.4.4-.8.7-1.2.3-.4.7-.8,1.2-1.2.5-.4,1.1-.8,1.9-1.2.5-.3,1-.5,1.3-.8.4-.2.7-.5.9-.7.2-.2.4-.5.5-.7.1-.2.2-.5.2-.7,0-.5-.2-1-.6-1.3-.4-.3-.9-.5-1.6-.5s-1.2.2-1.6.5c-.4.3-.6.7-.6,1.3s-.2.5-.5.5h-1.3c-.4,0-.5-.2-.5-.5,0-1.3.4-2.3,1.2-2.9.8-.7,1.9-1,3.3-1s2.5.3,3.3,1,1.2,1.6,1.2,2.8Z"/>
    <path class="cls-1" d="M116.3,10.9c0-2.2.4-3.8,1.3-4.9.8-1.1,2.1-1.6,3.8-1.6s2.9.5,3.8,1.6c.8,1.1,1.3,2.7,1.3,4.9s-.4,3.8-1.3,4.9c-.8,1.1-2.1,1.6-3.8,1.6s-2.9-.5-3.8-1.6c-.8-1.1-1.3-2.7-1.3-4.9ZM118.6,10.9c0,1.5.2,2.5.7,3.2.4.7,1.1,1,2.1,1s1.6-.3,2.1-1c.4-.7.7-1.8.7-3.2s-.2-2.5-.7-3.2c-.4-.7-1.1-1-2.1-1s-1.6.3-2.1,1c-.4.7-.7,1.8-.7,3.2Z"/>
    <path class="cls-1" d="M128,8.5c0-.7,0-1.4,0-2.1,0-.7.1-1.3.3-1.9,0-.3.3-.5.6-.5h1.2c.2,0,.3,0,.4.1,0,0,.1.2,0,.4-.1.7-.2,1.4-.3,2,0,.6,0,1.2,0,1.7s.1.8.3,1c.2.2.6.3,1.1.3s.7,0,1.2,0c.5,0,.9-.2,1.3-.3v-.8c0-.3.2-.5.5-.5h1.9c.2,0,.4,0,.5-.1s.1-.3.1-.5v-.6c-.2.2-.4.4-.8.4h-1.6c-.3,0-.5-.2-.5-.5v-1c0-.3.2-.5.5-.5h1.9c.2,0,.4,0,.5-.1,0,0,.1-.3.1-.5v-.2c0-.4.2-.5.5-.5h1.3c.4,0,.5.2.5.5v9c0,.4-.2.5-.5.5h-1.3c-.4,0-.5-.2-.5-.5v-3.5c-.2.2-.4.4-.8.4h-1.2l.2.7c0,.3,0,.5-.4.7-.4.2-1,.3-1.6.4-.6,0-1.2.1-1.7.1-1.3,0-2.2-.3-2.8-.8-.6-.5-.9-1.4-.9-2.5ZM133.1,18.2c-1.2,0-2.2-.3-2.8-.8-.7-.5-1-1.3-1-2.3s0-.7,0-.9c0-.2,0-.4,0-.6,0-.2,0-.3.2-.4,0,0,.2-.1.4-.1h1.3c.2,0,.3,0,.4.1.1,0,.1.2.1.4,0,.2,0,.5,0,.6,0,.2,0,.4,0,.6,0,.9.6,1.4,1.8,1.4s2.1,0,3.2,0c1,0,2-.1,2.8-.2.2,0,.3,0,.4.1s.1.2.1.4v1.2c0,.3,0,.5-.4.5-.8,0-1.7.2-2.7.2-1,0-2.2,0-3.6,0Z"/>
    <path class="cls-1" d="M149.7,4.5c1.3,0,2.3.5,2.9,1.4.6.9.9,2.4.9,4.4s-.3,3.5-.9,4.4c-.6.9-1.6,1.4-2.9,1.4s-2.2-.5-2.8-1.4c-.6-.9-.9-2.4-.9-4.4s.3-3.5.9-4.4c.6-.9,1.5-1.4,2.8-1.4ZM148.2,10.3c0,1.3.1,2.3.3,2.8.2.6.6.8,1.1.8s.5,0,.7-.2c.2-.1.3-.3.5-.6.1-.3.2-.7.3-1.1,0-.5,0-1,0-1.7s0-1.2,0-1.7c0-.5-.1-.8-.3-1.1-.1-.3-.3-.5-.5-.6-.2-.1-.4-.2-.7-.2s-.5,0-.7.2c-.2.1-.3.3-.5.6-.1.3-.2.7-.3,1.1s0,1,0,1.7ZM155.2,4.2c0-.4.2-.5.5-.5h1.3c.4,0,.5.2.5.5v13.3c0,.4-.2.5-.5.5h-1.3c-.4,0-.5-.2-.5-.5V4.2Z"/>
    <path class="cls-1" d="M163.4,8.8c-.1.3-.3.6-.5.9s-.5.5-.8.7c-.3.2-.6.4-1,.5-.4.1-.7.2-1.2.2s-.5-.2-.5-.5v-1.2c0-.3.2-.5.5-.5s.6,0,.9-.2.5-.3.7-.6c.2-.2.4-.5.5-.8.1-.3.2-.7.2-1v-1.6c0-.4.2-.6.5-.6h1.3c.3,0,.5.2.5.6v1.6c0,.4,0,.7.2,1,.1.3.3.6.5.8.2.2.4.4.7.6s.6.2.9.2.5.2.5.5v1.2c0,.3-.2.5-.5.5s-.8,0-1.1-.2c-.4-.1-.7-.3-1-.5-.3-.2-.5-.5-.8-.7-.2-.3-.4-.6-.5-.9ZM165.9,12c3.5,0,5.3,1,5.3,3.1s-1.8,3.1-5.3,3.1-5.3-1-5.3-3.1,1.8-3.1,5.3-3.1ZM165.9,16.2c.6,0,1,0,1.4,0,.4,0,.7,0,.9-.2.2,0,.4-.2.5-.3,0-.1.1-.3.1-.5s0-.4-.1-.5c0-.1-.3-.2-.5-.3-.2,0-.5-.1-.9-.2-.4,0-.9,0-1.4,0s-1,0-1.4,0c-.4,0-.7,0-.9.2-.2,0-.4.2-.5.3-.1.1-.2.3-.2.5s0,.4.2.5c.1.1.3.2.5.3.2,0,.5.1.9.2.4,0,.9,0,1.4,0ZM170.8,10.9c0,.4-.2.5-.5.5h-1.3c-.4,0-.5-.2-.5-.5v-6.7c0-.4.2-.5.5-.5h1.3c.4,0,.5.2.5.5v2.5c0-.1.2-.2.4-.3s.4-.1.6-.1h.5c.3,0,.5.2.5.5v1.2c0,.3-.2.5-.5.5h-.6c-.3,0-.5,0-.7.2-.2.2-.3.4-.3.6v1.6Z"/>
    <path class="cls-1" d="M182.8,15.3c0-.7.2-1.3.3-1.9,0-.6.1-1.2.2-1.7,0-.6,0-1.1.1-1.6,0-.5,0-1.1,0-1.6s0-1-.3-1.3c-.2-.2-.5-.4-1-.4s-.7,0-1,0c-.3,0-.6,0-.8,0-.3,0-.5,0-.8,0-.2,0-.5,0-.8,0-.3,0-.5-.1-.5-.5v-1.2c0-.3.2-.5.5-.5.4,0,.8,0,1.1-.1.3,0,.6,0,.9,0s.6,0,.8,0c.3,0,.5,0,.8,0,.6,0,1.1,0,1.5.2.4.1.7.3,1,.6.3.3.5.6.6,1.1.1.4.2,1,.2,1.6s0,1.3,0,1.9c0,.6,0,1.2-.1,1.8,0,.6-.1,1.2-.2,1.8,0,.6-.2,1.2-.3,1.8,0,.2,0,.3-.2.4,0,0-.2,0-.4,0h-1.3c-.2,0-.3,0-.4-.1,0,0-.1-.2,0-.4ZM189.6,17.5c0,.4-.2.5-.5.5h-1.3c-.4,0-.5-.2-.5-.5V4.2c0-.4.2-.5.5-.5h1.3c.4,0,.5.2.5.5v5.4c0-.1.2-.2.4-.3s.4-.1.6-.1h.5c.3,0,.5.2.5.5v1.2c0,.3-.2.5-.5.5h-.6c-.3,0-.5,0-.7.2-.2.2-.3.4-.3.6v5.2Z"/>
    <path class="cls-1" d="M200,7.4c0,.5,0,1-.3,1.5-.2.4-.4.8-.8,1.1-.3.3-.7.5-1.2.7-.5.2-1,.3-1.6.3s-1.1,0-1.5-.3c-.5-.2-.9-.4-1.2-.7-.3-.3-.6-.7-.8-1.1-.2-.4-.3-.9-.3-1.5s0-1,.3-1.5c.2-.4.4-.8.8-1.1s.7-.6,1.2-.7c.5-.2,1-.2,1.6-.2s1.1,0,1.6.2c.5.2.9.4,1.2.7.3.3.6.7.8,1.1.2.4.3.9.3,1.5ZM195.9,18.1c-.7,0-1.2-.1-1.6-.4-.4-.3-.6-.7-.6-1.3l-.2-3.9c0-.2,0-.3.1-.4,0,0,.2-.1.4-.1h1.3c.3,0,.5.2.5.5v.6h5.9v-.6c0-.4.2-.5.6-.5h1.3c.2,0,.3,0,.4.1s.1.2.1.4l-.2,3.9c0,.6-.2,1-.6,1.3-.4.3-.9.4-1.6.4h-5.9ZM196.2,6c-.4,0-.8.1-1.1.4s-.4.6-.4,1.1.1.8.4,1.1.6.4,1.1.4.8-.1,1.1-.4c.3-.3.4-.6.4-1.1s-.1-.8-.4-1.1c-.3-.3-.6-.4-1.1-.4ZM196,15.6c0,.3.2.5.5.5h4.6c.3,0,.5-.2.5-.5v-.7s-5.6,0-5.6,0v.7ZM201.8,4.2c0-.4.2-.5.5-.5h1.3c.4,0,.5.2.5.5v6.2c0,.4-.2.5-.5.5h-1.3c-.4,0-.5-.2-.5-.5v-6.2Z"/>
    <path class="cls-1" d="M213.2,4.7c.4,0,.5.2.5.5v1.1c0,.4-.2.5-.5.5h-2.1v3.7c0,.4,0,.8.2,1.2.1.4.3.7.5,1,.2.3.4.5.7.7.3.2.6.3.9.3.3,0,.5.2.5.5v1.2c0,.3-.2.5-.5.4-.4,0-.8-.2-1.1-.3-.4-.1-.7-.3-1-.6-.3-.2-.5-.5-.8-.8-.2-.3-.4-.6-.5-1-.1.4-.3.7-.5,1-.2.3-.5.6-.8.8-.3.2-.6.4-1,.6-.4.1-.7.3-1.2.3-.2,0-.3,0-.4,0s-.1-.2-.1-.4v-1.2c0-.3.2-.5.5-.5.3,0,.6-.2.9-.3.3-.2.5-.4.7-.7.2-.3.4-.6.5-1,.1-.4.2-.8.2-1.2v-3.7h-2.1c-.4,0-.5-.2-.5-.5v-1.1c0-.4.2-.5.5-.5h6.6ZM217.4,17.5c0,.4-.2.5-.5.5h-1.3c-.4,0-.5-.2-.5-.5V4.2c0-.4.2-.5.5-.5h1.3c.4,0,.5.2.5.5v5.4c0-.1.2-.2.4-.3s.4-.1.6-.1h.5c.3,0,.5.2.5.5v1.2c0,.3-.2.5-.5.5h-.6c-.3,0-.5,0-.7.2-.2.2-.3.4-.3.6v5.2Z"/>
    <path class="cls-1" d="M232.4,16.9c0,.4-.2.5-.5.5h-1.3c-.4,0-.5-.2-.5-.5v-1.8c0-.2,0-.3.1-.5,0-.1.2-.2.4-.3-1,0-1.9,0-2.8,0s-1.6-.1-2.3-.2c-.4,0-.5-.2-.5-.5v-1.2c0-.2,0-.3.1-.4s.2-.1.4,0c.7,0,1.5.2,2.5.2,1,0,2.1,0,3.2,0s1.2,0,1.8,0,1.1,0,1.6,0c.5,0,1,0,1.4,0,.4,0,.7,0,1-.1.2,0,.3,0,.4,0,0,0,.1.2.1.4v1.2c0,.3-.2.4-.5.5-.4,0-.9.1-1.6.2s-1.5,0-2.3,0-.7.2-.7.7v1.9ZM231.3,8.4c-.2.4-.4.7-.6,1-.3.3-.6.6-1,.8-.4.2-.8.4-1.3.5s-1,.2-1.5.2-.2,0-.3,0c0,0-.2,0-.3,0,0,0-.1,0-.2-.1,0,0,0-.2,0-.3v-1.2c0-.3.2-.5.5-.5.6,0,1.1,0,1.5-.2s.8-.4,1.1-.6.5-.6.7-1c.1-.4.2-.8.2-1.2v-1.1c0-.4.2-.5.5-.5h1.3c.4,0,.5.2.5.5v1.1c0,.4,0,.9.2,1.2s.4.7.7,1,.7.5,1.1.6c.4.1.9.2,1.5.2s.5.2.5.5v1.2c0,.1,0,.2,0,.3,0,0-.1.1-.2.1,0,0-.2,0-.3,0,0,0-.2,0-.3,0-.5,0-1,0-1.5-.2-.5-.1-.9-.3-1.3-.5-.4-.2-.7-.5-1-.8-.3-.3-.5-.6-.6-1Z"/>
  </g>
  <g>
    <path class="cls-1" d="M127,45c0,3.3-.9,5.8-2.7,7.7-1.8,1.9-4.3,2.8-7.6,2.8s-5.7-.9-7.5-2.8c-1.8-1.9-2.7-4.4-2.7-7.7s.9-5.8,2.7-7.7c1.8-1.8,4.3-2.8,7.6-2.8s5.8.9,7.6,2.8c1.8,1.8,2.7,4.4,2.7,7.7ZM128.6,58.2c3,0,5.2.6,6.6,1.9,1.4,1.3,2.1,3.2,2.1,5.9s0,2.6,0,3.7c0,1.1-.1,1.9-.2,2.5-.1.9-.6,1.4-1.4,1.4h-3.5c-.5,0-.8-.1-1.1-.4-.2-.2-.3-.6-.3-1.1,0-.7.2-1.4.2-2.3s0-1.7,0-2.4c0-1.1-.3-1.9-.8-2.4-.5-.5-1.4-.8-2.6-.8-3.3,0-6.2,0-8.9.3-2.6.2-5.2.4-7.6.5-.4,0-.8,0-1-.3-.2-.2-.4-.6-.4-1v-3.2c0-.8.5-1.3,1.4-1.4,1.1-.1,2.3-.2,3.4-.3,1.2-.1,2.5-.2,3.9-.2,1.4,0,2.9-.1,4.6-.2s3.5,0,5.6,0ZM116.7,40.3c-2.7,0-4,1.6-4,4.7s1.3,4.8,4,4.8,4-1.6,4-4.8-.3-2.7-1-3.5c-.7-.8-1.7-1.2-3-1.2ZM137.5,53.9c0,1-.5,1.4-1.4,1.4h-3.5c-1,0-1.4-.5-1.4-1.4v-18.4c0-1,.5-1.4,1.4-1.4h3.5c1,0,1.4.5,1.4,1.4v1.7c.5-.8,1.3-1.2,2.5-1.2h1.6c.9,0,1.4.5,1.4,1.4v3c0,.9-.5,1.4-1.4,1.4h-1.9c-.8,0-1.3.2-1.7.6-.4.4-.5,1-.5,1.7v2.4c.5-.8,1.3-1.2,2.5-1.2h1.6c.9,0,1.4.5,1.4,1.4v3c0,.9-.5,1.4-1.4,1.4h-1.9c-.8,0-1.3.2-1.7.6-.4.4-.5,1-.5,1.7v.7Z"/>
    <path class="cls-1" d="M154.7,48.1c0-1.8.3-3.4.9-4.8.6-1.4,1.5-2.7,2.7-3.7,1.2-1,2.6-1.8,4.2-2.4s3.5-.9,5.7-.9c4.7,0,8.3,1.3,10.6,4.1,2.4,2.8,3.5,7.1,3.5,13s-.3,5.7-.8,7.9c-.6,2.3-1.4,4.2-2.6,5.7-1.2,1.5-2.7,2.7-4.5,3.4-1.8.8-4,1.1-6.5,1.1s-3.2-.2-4.6-.6c-1.4-.4-2.6-1-3.7-1.7-1.1-.7-1.9-1.6-2.5-2.6-.6-1-1-2.2-1.1-3.4,0-.9.4-1.4,1.4-1.4h3.2c1,0,1.6.4,1.8,1.1.7,1.8,2.6,2.6,5.7,2.6s2.5-.2,3.5-.5c.9-.3,1.7-.9,2.3-1.6.6-.7,1.1-1.7,1.4-2.8.3-1.2.5-2.5.7-4.1-1.3.9-2.7,1.6-4.2,2.1-1.5.5-3.2.7-4.8.7s-3.5-.3-5-.8c-1.5-.5-2.8-1.3-3.8-2.3-1.1-1-1.9-2.2-2.5-3.5-.6-1.4-.9-2.9-.9-4.6ZM175.9,50.8c-.2-3.1-1-5.3-2.3-6.6-1.3-1.3-3.2-2-5.7-2s-3.9.5-5.1,1.5c-1.2,1-1.8,2.4-1.8,4.2s.7,3,2,4c1.3,1,3.1,1.5,5.3,1.5s2.8-.2,4.2-.7c1.4-.5,2.5-1.1,3.4-1.9Z"/>
    <path class="cls-1" d="M199,71.6c-4.6,0-8.1-.9-10.6-2.6-2.4-1.7-3.6-4.3-3.6-7.6s.6-3.8,1.7-5.3c1.1-1.5,2.6-2.6,4.4-3.1-1.5-.6-2.6-1.5-3.5-2.9s-1.3-3-1.3-4.9.3-2.6.9-3.7c.6-1.1,1.5-2,2.6-2.8,1.1-.8,2.5-1.4,4.1-1.8,1.6-.4,3.4-.6,5.3-.6s3.7.2,5.3.6c1.6.4,3,1,4.1,1.8,1.1.8,2,1.7,2.6,2.8.6,1.1.9,2.3.9,3.7s-.4,3.5-1.3,4.9-2,2.3-3.5,2.9c1.8.6,3.3,1.6,4.4,3.1,1.1,1.5,1.7,3.3,1.7,5.3,0,3.3-1.2,5.9-3.6,7.6-2.4,1.7-5.9,2.6-10.6,2.6ZM199,56.4c-5.3,0-7.9,1.5-7.9,4.6s2.6,4.7,7.9,4.7,7.9-1.6,7.9-4.7-2.6-4.6-7.9-4.6ZM199,42.2c-2.1,0-3.8.4-4.9,1.1-1.2.7-1.7,1.7-1.7,3.1s.6,2.3,1.7,3c1.2.7,2.8,1.1,4.9,1.1s3.8-.4,4.9-1.1c1.2-.7,1.7-1.7,1.7-3s-.6-2.4-1.7-3.1c-1.2-.7-2.8-1.1-4.9-1.1Z"/>
    <path class="cls-1" d="M221.5,55.9c-1.8,0-3.3-.5-4.3-1.4-1-.9-1.6-2.1-1.6-3.7v-13.3c0-1.7.8-2.5,2.5-2.5h11.1c2,0,3.6.6,4.8,1.8,1.2,1.2,1.8,2.9,1.8,5.1s-.4,3.6-1.2,5.1c-.8,1.6-1.9,2.7-3.3,3.4h2.8c.9,0,1.4.5,1.4,1.4v2.8c0,.9-.5,1.4-1.4,1.4h-12.6ZM229.5,73.9c-3.4,0-6-.8-7.8-2.3-1.8-1.5-2.7-3.6-2.7-6.4s0-2,0-2.6c0-.6.1-1.2.2-1.7,0-.5.2-.8.4-1.1.2-.2.6-.4,1-.4h3.5c.5,0,.8.1,1.1.4.3.2.4.6.3,1.1,0,.7-.2,1.2-.2,1.7,0,.5,0,1,0,1.6,0,2.5,1.6,3.7,5,3.7s5.4,0,8.1-.2c2.6-.1,5.1-.3,7.5-.6.4,0,.8,0,1,.3.2.3.3.6.4,1.1l.2,3.2c0,.8-.4,1.3-1.4,1.4-1.1.1-2.2.2-3.4.3-1.2.1-2.4.2-3.8.2-1.3,0-2.8.1-4.3.2-1.5,0-3.2,0-5,0ZM225.8,50.2c1.1,0,2-.5,2.7-1.5.7-1,1-2.3,1-3.8s-.3-2.3-.8-3.1c-.6-.7-1.4-1.1-2.5-1.1h-2.9c-.9,0-1.4.5-1.4,1.4v6.4c0,.5.2.9.5,1.2.4.3.9.5,1.5.5h1.8ZM246.2,60c0,1-.5,1.4-1.4,1.4h-3.5c-1,0-1.4-.5-1.4-1.4v-24.5c0-1,.5-1.4,1.4-1.4h3.5c1,0,1.4.5,1.4,1.4v9.9c.2-.4.6-.7,1.1-.9.5-.2,1-.3,1.6-.3h1.4c.9,0,1.4.5,1.4,1.4v3.2c0,.9-.5,1.4-1.4,1.4h-1.6c-.8,0-1.4.2-1.8.7-.5.5-.7,1-.7,1.7v7.6Z"/>
    <path class="cls-1" d="M269.1,54.2c-1.8,0-3.2-.4-4.2-1.3-1-.8-1.5-2.1-1.5-3.6v-11.7c0-1.7.8-2.5,2.5-2.5h10.6c2,0,3.6.5,4.8,1.5,1.2,1,1.8,2.5,1.8,4.5s-.4,3.2-1.2,4.6c-.8,1.4-1.8,2.4-3.2,3h2.8c.9,0,1.4.5,1.4,1.4v2.8c0,.9-.5,1.4-1.4,1.4h-12.4ZM280.9,56.9c10,0,14.9,2.8,14.9,8.5s-5,8.5-14.9,8.5-8.9-.7-11.3-2.1-3.7-3.5-3.7-6.4,1.2-5,3.7-6.4c2.5-1.4,6.2-2.1,11.3-2.1ZM273.1,48.5c1.1,0,2-.4,2.7-1.2.7-.8,1-1.9,1-3.2,0-2.2-1.1-3.3-3.3-3.3h-2.5c-.9,0-1.4.5-1.4,1.4v4.8c0,1.1.7,1.6,2,1.6h1.4ZM280.9,68.3c1.6,0,3,0,4.1-.2,1.1-.1,2-.3,2.6-.5s1.1-.5,1.4-.9.4-.8.4-1.3-.1-1-.4-1.3c-.3-.4-.8-.7-1.4-.9-.7-.2-1.5-.4-2.6-.5-1.1-.1-2.5-.2-4.1-.2s-3,0-4.1.2c-1.1.1-2,.3-2.7.5-.7.2-1.2.5-1.4.9-.3.4-.4.8-.4,1.3s.1,1,.4,1.3c.3.4.8.7,1.4.9.7.2,1.6.4,2.7.5,1.1.1,2.5.2,4.1.2ZM288.6,35.5c0-1,.5-1.4,1.4-1.4h3.5c1,0,1.4.5,1.4,1.4v18.4c0,1-.5,1.4-1.4,1.4h-3.5c-1,0-1.4-.5-1.4-1.4v-2.8c-.4.6-1.2,1-2.3,1h-1c-.9,0-1.4-.5-1.4-1.4v-3c0-.9.5-1.4,1.4-1.4h1.6c.7,0,1.1-.1,1.4-.4.2-.3.4-.7.4-1.3v-2.4c-.4.6-1.2,1-2.3,1h-1c-.9,0-1.4-.5-1.4-1.4v-3c0-.9.5-1.4,1.4-1.4h1.6c.8,0,1.2-.1,1.4-.4.2-.3.3-.7.3-1.3v-.3Z"/>
  </g>
  <path class="cls-2" d="M40.3,15.6l3.1,5.2c-.1,0-.3,0-.4,0-1.6.3-3.1.8-4.5,1.7l-.6-.3-4-8,6.3,1.3ZM73.2,51.5c-2.1-5-6.8-9.3-13-12.1l-3.3-1.5c.6-1.5.9-3,.9-4.7,0-3.8-1.7-7.4-4.7-9.8l-2.8-10s0,0,0-.1c0,0,0,0,0-.1L37.9,1.2c0,0-.2-.1-.4-.1H2.8c-.3,0-.5.2-.5.5v13.6c0,.3.2.5.5.5h5.9l8,6.9c1.7,1.4,3.8,2.2,6,2.2,3.7,0,7.3,1.3,10.1,3.5l.6.5c-.6,1.4-.8,2.9-.8,4.5s.2,2.7.6,3.9c-1,.4-3.1,1.1-4.1,1.5-3.1-4.3-8.5-6.2-13.6-4.7l-2.2.6c-.1,0-.2.1-.3.3,0,.1,0,.3,0,.4l4.4,11.3c-1.3,1.5-2.3,3.1-3,4.7h-7c-.3,0-.5.2-.5.5v15.1c0,.3.2.5.5.5h8.7c1.8,2.6,4.3,4.9,7.4,6.8v9.4c0,.3.2.5.5.5h12.1c.3,0,.5-.2.5-.5v-4.6c4.6.8,9.6.8,14.2,0v4.6c0,.3.2.5.5.5h12.1c.3,0,.5-.2.5-.5v-9.4c6.7-4.1,10.6-10.1,10.6-16.4s-.4-4.2-1.3-6.2"/>
  <path class="cls-3" d="M52.6,23.8l-2.9-10.1M2.8,1.6h34.8l12.1,12.1M2.8,15.1h6.1l8.2,7c1.6,1.3,3.6,2.1,5.6,2.1,3.8,0,7.5,1.3,10.5,3.7l.9.7.4.3.5.4c.8.6,1.7,1.1,2.7,1.4l6.1,2c.9.3,1.8,0,2.2-.9.6-1.2.7-2.6.2-3.8-.5-1.3-1.4-2.3-2.6-2.8l-4.2-1.8-.6-.3-1-.4-4.5-9.1,7.6,1.5,3.7,6.1M36.7,42c-1.3-1.3-2.3-2.8-2.9-4.5-.5-1.3-.8-2.7-.8-4.2s.3-3.2,1-4.7M53.6,42c1.1-1.1,2-2.3,2.6-3.8.7-1.5,1.1-3.2,1.1-4.9,0-3.9-1.8-7.3-4.7-9.5-.8-.6-1.6-1.1-2.5-1.5-1.5-.7-3.1-1-4.9-1s-.6,0-.9,0c-.4,0-.8,0-1.2.1-1.6.3-3.2.9-4.5,1.8,0,0,0,0,0,0M26.8,51.6c0-1.6-1.3-2.9-2.9-2.9s-2.9,1.3-2.9,2.9,1.3,2.9,2.9,2.9,2.9-1.3,2.9-2.9ZM73.1,51.5c3.6,0,10.2-2.6,10.2-5.9s-.8-4.4-3.9-4.4-3.5,2.1-3.5,4.4,4.5,8.9,11.9,5.9M60,39.9c6.1,2.7,10.7,6.9,12.8,11.8.8,1.9,1.3,3.9,1.3,6.1,0,6.4-4.1,12.2-10.6,16.1v9.6h-12.1v-5.2c-2.4.4-5,.7-7.6.7s-5.2-.2-7.6-.7v5.2h-12.1v-9.6c-3.2-1.9-5.8-4.3-7.7-7H7.3v-15.1h7.3c.8-1.8,1.9-3.5,3.3-5.1l-4.5-11.5,2.2-.6c5-1.4,10.4.5,13.3,4.8.6-.2,1.3-.5,2-.7M31.7,43.9c8.6-3.6,18.5-3.6,27.1,0"/>
</svg>