<svg width="350" height="350" viewBox="0 0 350 350" fill="none" xmlns="http://www.w3.org/2000/svg">
<g clip-path="url(#clip0_644_1868)">
<rect width="350" height="350" rx="36" fill="#FFD4CA"/>
<path d="M264.358 291.688C259.363 269.442 270.463 229.809 248.761 229.13C237.887 228.79 228.101 219.287 232.462 210.792C238.012 207.076 244.083 195.92 242.18 188.999C248.353 186.915 248.591 181.161 247.538 176.505C246.212 170.604 242.916 168.123 237.298 169.845C229.46 150.929 214.746 134.29 194.256 141.72C182.85 145.866 171.399 160.953 179.112 180.9C166.075 183.913 176.088 201.764 182.963 196.418C184.164 209.67 190.394 214.779 198.583 216.965C210.182 233.094 199.727 233.321 188.661 241.544C163.866 259.973 183.835 292.957 187.131 323.686C195.91 327.889 223.174 312.824 238.589 305.326C288.348 315.542 264.358 291.688 264.358 291.688Z" fill="#FFE4D6"/>
<path d="M276.84 312.293C277.044 311.738 205.153 334.663 203.805 334.969C190.632 309.235 177.787 251.751 192.116 231.023C195.548 226.061 200.396 225.937 201.981 222.097C204.666 225.427 212.085 236.142 216.57 241.658C220.671 236.403 229.766 226.548 234.297 216.32C237.287 219.277 244.117 221.893 246.405 223.343C253.405 227.794 244.763 254.22 248.263 255.93C263.679 262.602 264.052 279.309 271.188 294.17C273.352 298.112 276.84 312.293 276.84 312.293Z" fill="white"/>
<path d="M235.27 132.262C250.969 149.105 248.308 164.453 234.24 176.313C224.634 165.643 231.193 154.52 223.626 155.301C211.303 156.57 195.162 156.83 186.644 148.72C189.793 158.529 179.803 159.039 181.275 183.698C174.638 176.947 171.228 165.677 173.007 155.347C174.57 146.319 179.304 132.059 197.02 136.215C212.084 126.848 226.005 136.748 235.27 132.262Z" fill="#BFBFBF"/>
<path d="M303.492 277.893C297.217 251.411 278.63 226.39 244.377 221.021C241.863 243.459 214.848 322.804 214.848 322.804L197.597 225.552C197.597 225.552 143.398 215.584 123.803 220.874C107.707 225.212 70.4647 227.647 62.2867 247.968C51.9453 273.634 116.078 349.717 145.211 349.717C153.026 349.717 172.882 349.989 172.882 349.989C172.882 349.989 251.83 349.989 294.725 349.989C309.144 332.794 314.128 322.804 303.492 277.893Z" fill="#CEA97D"/>
<path d="M195.207 177.322C197.393 177.322 197.393 173.924 195.207 173.924C193.021 173.924 193.01 177.322 195.207 177.322Z" fill="black"/>
<path d="M210.782 173.56C212.968 173.56 212.968 170.162 210.782 170.162C208.596 170.162 208.596 173.56 210.782 173.56Z" fill="black"/>
<path d="M200.203 175.169C200.339 176.936 200.203 178.737 199.874 180.481C199.557 182.123 199.104 183.992 197.994 185.306C197.439 185.963 197.971 186.892 198.821 186.722C200.078 186.484 201.426 186.937 202.649 187.175C203.997 187.436 205.322 187.583 206.625 187.028C207.055 186.847 207.135 186.224 206.931 185.861C206.682 185.42 206.183 185.374 205.764 185.555C204.711 185.997 203.34 185.578 202.287 185.363C200.996 185.091 199.682 184.819 198.356 185.08C198.628 185.555 198.911 186.031 199.183 186.496C200.463 184.978 201.086 182.996 201.471 181.081C201.856 179.144 202.038 177.14 201.89 175.169C201.822 174.093 200.123 174.081 200.203 175.169Z" fill="black"/>
<path d="M196.272 166.549C195.57 165.903 194.721 165.258 193.747 165.11C192.931 164.986 192.115 165.122 191.413 165.575C190.813 165.96 190.326 166.481 189.884 167.036C189.624 167.364 189.374 167.693 189.125 168.021C189.069 168.101 189.001 168.18 188.944 168.259C188.797 168.452 189.08 168.089 188.944 168.259C188.819 168.406 188.706 168.565 188.582 168.712C188.196 169.165 188.106 169.879 188.582 170.309C189.001 170.695 189.771 170.796 190.179 170.309C190.428 170.015 190.666 169.709 190.904 169.403C190.994 169.29 191.085 169.165 191.175 169.052C191.232 168.984 191.277 168.916 191.334 168.848C191.357 168.814 191.526 168.61 191.402 168.758C191.277 168.905 191.47 168.667 191.493 168.644C191.538 168.588 191.583 168.531 191.628 168.474C191.719 168.361 191.81 168.259 191.912 168.146C192.104 167.931 192.353 167.75 192.546 167.546C192.365 167.738 192.433 167.636 192.523 167.568C192.58 167.534 192.625 167.5 192.682 167.466C192.738 167.432 192.795 167.41 192.84 167.376C193.022 167.274 192.569 167.455 192.818 167.387C192.886 167.364 192.954 167.353 193.022 167.33C193.135 167.296 193.271 167.342 192.954 167.33C193.078 167.342 193.203 167.319 193.327 167.319C193.554 167.319 193.078 167.262 193.282 167.319C193.361 167.342 193.441 167.353 193.52 167.376C193.554 167.387 193.588 167.398 193.622 167.41C193.735 167.455 193.713 167.444 193.565 167.387C193.622 167.387 193.735 167.466 193.781 167.5C193.939 167.591 194.086 167.693 194.245 167.795C194.449 167.931 194.154 167.716 194.336 167.863C194.449 167.965 194.562 168.055 194.675 168.157C195.117 168.554 195.853 168.622 196.272 168.157C196.669 167.716 196.737 166.979 196.272 166.549Z" fill="#BFBFBF"/>
<path d="M209.264 165.563C209.57 165.167 209.91 164.804 210.295 164.487C210.148 164.612 210.295 164.487 210.363 164.442C210.454 164.385 210.533 164.329 210.623 164.272C210.714 164.227 210.793 164.17 210.884 164.125C210.941 164.091 211.19 164.023 210.918 164.102C211.099 164.045 211.258 163.977 211.439 163.944C211.45 163.944 211.666 163.898 211.666 163.898C211.484 163.921 211.462 163.921 211.586 163.91C211.62 163.91 211.654 163.898 211.699 163.898C211.858 163.887 212.005 163.887 212.164 163.898C212.198 163.898 212.504 163.921 212.288 163.91C212.085 163.898 212.368 163.932 212.413 163.932C212.572 163.966 212.719 164.011 212.866 164.068C212.889 164.079 212.911 164.079 212.923 164.091C213.036 164.136 213.002 164.125 212.832 164.057C212.832 164.057 212.979 164.125 213.002 164.136C213.138 164.204 213.263 164.272 213.376 164.363C213.41 164.385 213.512 164.431 213.523 164.465C213.376 164.351 213.342 164.329 213.432 164.397C213.466 164.419 213.489 164.453 213.523 164.476C213.614 164.555 213.682 164.634 213.761 164.725C213.965 164.929 213.659 164.555 213.75 164.714C213.772 164.759 213.806 164.804 213.84 164.85C213.874 164.895 213.897 164.952 213.931 165.008C214.021 165.155 213.908 165.167 213.908 164.94C213.908 165.031 213.976 165.155 213.999 165.257C214.101 165.846 214.848 166.22 215.392 166.05C216.026 165.846 216.298 165.28 216.185 164.657C215.924 163.185 214.384 162.075 213.002 161.769C210.907 161.304 208.924 162.324 207.644 163.977C207.282 164.442 207.157 165.133 207.644 165.575C208.064 165.937 208.868 166.062 209.264 165.563Z" fill="#BFBFBF"/>
<path d="M214.984 182.554C215.561 185.193 218.053 186.903 220.534 186.348C223.014 185.805 224.555 183.211 223.966 180.572C223.388 177.932 220.908 176.233 218.416 176.777C215.946 177.321 214.406 179.903 214.984 182.554Z" fill="#FDCBC3"/>
<path d="M184.345 188.308C184.923 190.947 187.415 192.646 189.895 192.102C192.376 191.558 193.916 188.976 193.327 186.325C192.75 183.686 190.258 181.987 187.777 182.531C185.297 183.086 183.756 185.669 184.345 188.308Z" fill="#FDCBC3"/>
<path d="M193.587 148.268C197.688 147.01 201.89 145.923 206.217 146.24C210.555 146.569 214.293 148.585 218.438 149.627C221.757 150.454 225.303 150.601 228.576 149.502C232.167 148.302 234.987 145.81 237.252 142.831C237.909 141.959 236.437 141.109 235.78 141.97C233.481 144.994 230.456 147.418 226.684 148.256C223.128 149.049 219.435 148.336 216.071 147.101C212.379 145.742 208.754 144.507 204.778 144.473C200.803 144.428 196.917 145.47 193.146 146.614C192.092 146.942 192.545 148.585 193.587 148.268Z" fill="white"/>
<path d="M231.578 137.326C229.868 139.308 227.761 140.894 225.088 141.165C222.879 141.392 220.682 140.814 218.575 140.225C214.35 139.059 210.125 137.881 205.991 140.01C205.017 140.508 205.877 141.981 206.852 141.483C211.224 139.229 215.834 141.415 220.229 142.411C222.29 142.876 224.419 143.114 226.504 142.649C229.041 142.083 231.114 140.452 232.779 138.526C233.492 137.711 232.292 136.499 231.578 137.326Z" fill="white"/>
<path d="M210.669 190.846C211.224 191.933 212.107 192.862 213.16 193.462C214.406 194.176 215.777 194.153 217.102 194.606C219.209 195.331 220.285 197.664 220.727 199.692C220.965 200.757 222.596 200.304 222.369 199.239C221.871 196.951 220.67 194.584 218.552 193.406C217.329 192.726 215.947 192.76 214.656 192.296C213.546 191.888 212.662 191.027 212.13 189.985C211.631 189.011 210.17 189.872 210.669 190.846Z" fill="#FBC9C5"/>
<path d="M197.699 191.888C196.555 194.119 195.366 196.339 194.256 198.593C193.757 199.601 193.508 200.575 193.667 201.697C193.825 202.75 194.278 203.747 194.346 204.811C194.414 205.899 196.113 205.91 196.045 204.811C195.989 203.815 195.671 202.909 195.434 201.946C195.162 200.824 195.4 200.043 195.921 199.035C196.997 196.939 198.084 194.833 199.16 192.737C199.659 191.774 198.197 190.913 197.699 191.888Z" fill="#FBC9C5"/>
<path d="M200.474 198.615C202.389 200.224 204.903 201.107 207.406 200.824C209.842 200.552 212.107 199.34 213.636 197.414C213.919 197.052 213.987 196.565 213.636 196.214C213.342 195.919 212.719 195.851 212.435 196.214C209.819 199.521 204.948 200.178 201.675 197.414C200.848 196.712 199.636 197.902 200.474 198.615Z" fill="black"/>
<path d="M178.036 186.1C177.912 188.048 177.957 189.996 178.172 191.944C178.218 192.397 178.523 192.794 179.022 192.794C179.441 192.794 179.917 192.409 179.871 191.944C179.656 190.007 179.611 188.048 179.735 186.1C179.769 185.646 179.328 185.25 178.886 185.25C178.399 185.25 178.059 185.635 178.036 186.1Z" fill="black"/>
<path d="M241.308 174.67C241.569 176.653 242.271 178.748 241.897 180.764C241.625 182.203 240.493 183.947 238.794 183.596C237.729 183.381 237.264 185.012 238.341 185.238C240.629 185.703 242.611 184.106 243.324 182.022C244.151 179.598 243.324 177.106 243.007 174.682C242.951 174.229 242.656 173.832 242.158 173.832C241.75 173.821 241.252 174.217 241.308 174.67Z" fill="black"/>
<path d="M218.87 244.014C223.774 245.894 228.633 247.911 233.447 250.04C234.433 250.482 235.305 249.021 234.308 248.568C229.37 246.382 224.374 244.309 219.323 242.372C218.303 241.975 217.861 243.618 218.87 244.014Z" fill="black"/>
<path d="M214.146 239.89C211.394 241.113 209.026 243.084 207.237 245.508C206.965 245.882 207.18 246.46 207.543 246.675C207.973 246.924 208.426 246.743 208.709 246.369C210.318 244.183 212.526 242.472 215.007 241.362C215.426 241.181 215.528 240.57 215.313 240.196C215.064 239.754 214.565 239.697 214.146 239.89Z" fill="black"/>
<path d="M176.087 297.557C180.278 297.647 184.458 298.01 188.604 298.655C189.057 298.723 189.51 298.542 189.646 298.066C189.759 297.67 189.51 297.092 189.057 297.024C184.764 296.356 180.437 295.96 176.087 295.858C174.989 295.835 175 297.534 176.087 297.557Z" fill="black"/>
<path d="M171.262 152.504C174.921 157.737 195.671 157.069 221.01 158.156C246.348 159.244 246.099 155.879 246.099 155.879C246.178 155.868 247.945 148.075 245.77 142.367C242.134 132.852 230.592 123.054 204.484 120.336C173.527 117.108 176.212 143.748 176.212 143.748C176.212 143.748 167.603 147.282 171.262 152.504Z" fill="#C19D76"/>
<path d="M188.151 126.917C184.3 129.919 182.023 134.767 182.114 139.637C182.137 141.099 184.402 141.099 184.379 139.637C184.3 135.299 186.339 131.176 189.76 128.514C190.247 128.141 190.156 127.302 189.76 126.917C189.284 126.442 188.638 126.544 188.151 126.917Z" fill="#D8B390"/>
<path d="M194.879 127.846C192.285 131.505 189.714 135.379 189.397 139.989C189.352 140.6 189.952 141.121 190.53 141.121C191.175 141.121 191.617 140.6 191.662 139.989C191.945 135.843 194.505 132.275 196.827 128.99C197.178 128.492 196.918 127.733 196.42 127.439C195.865 127.11 195.242 127.348 194.879 127.846Z" fill="#D8B390"/>
<path d="M204.45 126.622C200.384 130.088 197.609 135.038 196.816 140.328C197.541 140.328 198.277 140.328 199.002 140.328C198.968 140.169 198.945 140.01 198.911 139.852C198.798 139.252 198.073 138.912 197.518 139.059C196.884 139.229 196.612 139.852 196.725 140.452C196.759 140.611 196.782 140.769 196.816 140.928C197.008 141.993 198.832 142.027 199.002 140.928C199.75 135.978 202.241 131.47 206.059 128.231C207.157 127.279 205.549 125.682 204.45 126.622Z" fill="#D8B390"/>
<path d="M208.301 130.7C206.568 133.169 205.255 135.933 204.394 138.821C204.224 139.41 204.598 140.056 205.187 140.214C205.787 140.384 206.41 140.01 206.58 139.421C207.384 136.703 208.607 134.177 210.25 131.832C210.601 131.334 210.34 130.575 209.842 130.28C209.287 129.963 208.653 130.201 208.301 130.7Z" fill="#D8B390"/>
<path d="M216.151 131.548C215.244 132.919 214.338 134.29 213.421 135.66C213.092 136.159 213.308 136.94 213.829 137.212C214.395 137.518 215.029 137.337 215.38 136.804C216.286 135.434 217.193 134.063 218.11 132.693C218.439 132.194 218.223 131.413 217.702 131.141C217.136 130.835 216.502 131.016 216.151 131.548Z" fill="#D8B390"/>
<path d="M177.436 145.402C176.009 146.422 174.434 147.758 174.559 149.684C174.661 151.338 175.997 152.357 177.458 152.844C179.577 153.558 182.034 153.637 184.243 153.886C186.769 154.181 189.306 154.419 191.855 154.611C202.287 155.381 212.798 155.245 223.208 154.203C229.018 153.626 234.784 152.765 240.515 151.644C241.942 151.36 241.342 149.174 239.915 149.457C228.667 151.666 217.227 152.799 205.764 152.833C200.123 152.855 194.483 152.606 188.865 152.097C185.976 151.836 183.088 151.519 180.222 151.1C179.316 150.964 177.877 150.896 177.187 150.194C176.122 149.118 177.764 147.928 178.58 147.351C179.758 146.512 178.625 144.553 177.436 145.402Z" fill="#D8B390"/>
<path d="M233.651 316.268C246.722 315.26 259.838 316.699 272.377 320.505C273.77 320.935 274.371 318.749 272.978 318.319C260.269 314.456 246.892 312.984 233.639 314.003C232.201 314.116 232.189 316.382 233.651 316.268Z" fill="white"/>
<path d="M279.151 275.016C269.648 287.294 260.79 301.758 263.328 317.967C263.554 319.406 265.74 318.794 265.514 317.367C263.124 302.087 271.823 288.166 280.76 276.624C281.632 275.48 280.035 273.872 279.151 275.016Z" fill="white"/>
<path d="M263.044 324.243C262.919 326.372 262.783 328.49 262.659 330.62C262.625 331.209 263.202 331.775 263.791 331.752C264.437 331.718 264.89 331.254 264.924 330.62C265.049 328.49 265.185 326.372 265.309 324.243C265.343 323.654 264.765 323.087 264.176 323.11C263.531 323.144 263.089 323.608 263.044 324.243Z" fill="white"/>
<path d="M179.191 145.221C187.992 148.981 197.665 149.706 207.123 150.227C217.623 150.805 228.146 150.782 238.657 150.691C239.745 150.68 239.756 148.981 238.657 148.992C228.52 149.083 218.371 149.106 208.245 148.585C198.764 148.098 188.887 147.531 180.041 143.748C179.055 143.329 178.183 144.801 179.191 145.221Z" fill="black"/>
<path d="M235.961 145.798C235.905 146.07 235.859 146.33 235.803 146.602C236.358 146.682 236.913 146.749 237.468 146.829C237.468 146.455 237.479 146.07 237.479 145.696C237.479 145.481 237.377 145.243 237.23 145.096C237.15 145.016 237.06 144.96 236.958 144.915C236.856 144.858 236.743 144.835 236.629 144.847C236.414 144.858 236.176 144.926 236.029 145.096C235.871 145.266 235.78 145.47 235.78 145.696C235.78 146.07 235.769 146.455 235.769 146.829C235.769 146.942 235.791 147.055 235.837 147.157C235.87 147.259 235.927 147.35 236.018 147.429C236.074 147.474 236.131 147.52 236.188 147.565C236.29 147.622 236.392 147.656 236.505 147.667C236.584 147.69 236.652 147.69 236.731 147.667C236.845 147.667 236.947 147.633 237.048 147.565C237.23 147.452 237.4 147.271 237.434 147.055C237.49 146.783 237.536 146.523 237.592 146.251C237.626 146.138 237.637 146.025 237.604 145.911C237.604 145.798 237.57 145.696 237.502 145.594C237.445 145.492 237.377 145.413 237.286 145.356C237.207 145.277 237.105 145.232 236.992 145.209C236.777 145.164 236.527 145.175 236.335 145.3C236.176 145.402 236.006 145.583 235.961 145.798Z" fill="black"/>
<path d="M175.363 159.719C174.786 165.213 174.853 171.114 178.048 175.872C178.648 176.778 180.12 175.928 179.52 175.011C176.485 170.491 176.519 164.93 177.062 159.719C177.175 158.632 175.476 158.643 175.363 159.719Z" fill="white"/>
<path d="M179.089 160.241C179.089 161.646 179.089 163.039 179.089 164.443C179.089 164.885 179.474 165.315 179.938 165.293C180.403 165.27 180.788 164.919 180.788 164.443C180.788 163.039 180.788 161.646 180.788 160.241C180.788 159.799 180.403 159.369 179.938 159.391C179.485 159.414 179.089 159.765 179.089 160.241Z" fill="white"/>
<path d="M231.929 161.917C232.416 163.797 233.152 165.609 234.001 167.365C234.409 168.214 234.851 169.041 235.293 169.868C235.768 170.74 236.199 171.646 236.765 172.462C237.388 173.357 238.861 172.507 238.238 171.601C237.705 170.842 237.298 169.993 236.856 169.177C236.403 168.35 235.961 167.523 235.553 166.674C234.738 164.998 234.035 163.276 233.571 161.464C233.299 160.41 231.657 160.852 231.929 161.917Z" fill="white"/>
<path d="M236.891 162.777C237.027 163.083 237.151 163.389 237.287 163.695C237.344 163.797 237.412 163.876 237.502 163.933C237.582 164.012 237.684 164.057 237.797 164.08C237.91 164.114 238.023 164.125 238.137 164.091C238.25 164.091 238.352 164.057 238.454 163.989C238.635 163.876 238.794 163.695 238.839 163.48C238.85 163.4 238.861 163.332 238.873 163.253C238.873 163.095 238.839 162.959 238.76 162.823C238.624 162.517 238.499 162.211 238.363 161.905C238.306 161.803 238.239 161.724 238.148 161.667C238.069 161.588 237.967 161.543 237.853 161.52C237.74 161.486 237.627 161.475 237.514 161.509C237.4 161.509 237.298 161.543 237.196 161.611C237.015 161.724 236.857 161.905 236.811 162.12C236.8 162.2 236.789 162.268 236.777 162.347C236.777 162.494 236.811 162.641 236.891 162.777Z" fill="white"/>
<path d="M124.641 156.083C102.282 144.621 87.9646 171.363 87.7154 191.865C87.5568 205.095 99.971 214.621 100.719 216.014C101.285 224.158 101.285 229.878 103.867 242.168C106.257 253.574 127.914 245.328 134.529 246.291C135.311 240.31 135.13 228.7 134.541 219.344C137.825 218.347 140.872 216.433 144.089 210.124C152.335 193.983 142.175 165.077 124.641 156.083Z" fill="#FFE4D6"/>
<path d="M101.308 223.5C66.1037 232.392 86.1523 298.484 89.1992 320.458C122.024 323.686 116.735 322.531 151.486 320.82C152.89 309.414 152.052 267.448 148.914 259.633C137.655 231.599 140.544 227.68 135.232 223.806C133.295 227.816 126.385 235.552 122.545 240.218C113.756 233.354 103.505 227.623 101.308 223.5Z" fill="white"/>
<path d="M125.162 182.746C125.502 183.493 126.374 183.822 127.122 183.493C127.869 183.165 128.209 182.281 127.869 181.534C127.541 180.786 126.657 180.447 125.91 180.786C125.162 181.126 124.822 181.998 125.162 182.746Z" fill="black"/>
<path d="M111.343 186.507C111.683 187.254 112.555 187.594 113.303 187.254C114.05 186.926 114.39 186.042 114.05 185.295C113.722 184.547 112.838 184.219 112.091 184.547C111.355 184.887 111.015 185.77 111.343 186.507Z" fill="black"/>
<path d="M103.935 198.853C105.181 200.971 107.9 201.685 110.018 200.45C112.136 199.204 112.85 196.486 111.615 194.368C110.369 192.25 107.651 191.525 105.533 192.771C103.414 194.005 102.701 196.735 103.935 198.853Z" fill="#FFCCB5"/>
<path d="M132.909 192.148C133.951 193.927 136.228 194.516 138.006 193.485C139.785 192.443 140.385 190.166 139.343 188.388C138.312 186.621 136.035 186.02 134.257 187.051C132.479 188.093 131.878 190.37 132.909 192.148Z" fill="#FFCCB5"/>
<path d="M116.723 149.796C120.71 140.565 129.296 147.746 136.183 155.041C156.888 151.303 146.977 170.943 153.15 172.008C167.626 174.5 159.142 201.447 146.162 191.717C139.921 182.236 143.171 181.987 136.183 170.762C124.459 170.513 113.722 168.803 112.725 165.518C96.9465 171.317 106.688 175.848 94.7604 202.693C100.254 222.651 67.1682 227.419 64.6989 205.026C57.1892 202.817 50.8461 173.254 80.7944 173.753C62.8073 136.023 105.906 133.61 116.723 149.796Z" fill="#BFBFBF"/>
<path d="M101.625 223.342C89.437 224.112 76.6829 233.649 64.6651 255.804C56.7929 270.325 53.225 292.277 53.4968 304.193C54.0292 327.152 75.0292 350.44 75.0292 350.44H163.809C163.809 350.44 165.803 326.767 172.633 324.162C182.091 340.767 204.518 322.78 207.531 312.178C212.367 295.154 199.795 273.587 174.298 256.382C168.623 252.553 154.204 219.06 134.778 223.183C135.05 240.808 120.71 296.558 120.71 296.558C120.71 296.558 102.689 232.154 101.625 223.342Z" fill="#AFD7FF"/>
<path d="M118.796 184.739C120.586 188.08 123.599 190.312 126.148 193.019C126.068 192.815 125.978 192.622 125.898 192.418C125.978 193.834 124.788 194.695 123.701 195.375C122.466 196.156 121.096 196.791 120.031 197.821C119.25 198.58 120.45 199.781 121.232 199.022C123.18 197.13 126.94 196.451 127.529 193.381C127.597 193.03 127.677 192.543 127.563 192.192C127.416 191.727 126.873 191.32 126.533 190.98C125.785 190.244 125.015 189.53 124.256 188.805C122.704 187.333 121.277 185.781 120.258 183.878C119.748 182.915 118.275 183.776 118.796 184.739Z" fill="black"/>
<path d="M100.741 160.172C97.0599 160.75 92.9709 161.6 90.7962 164.952C89.5842 166.81 89.1085 169.132 88.8366 171.295C88.5308 173.708 88.5761 176.143 88.6214 178.579C88.6441 179.666 90.3431 179.677 90.3204 178.579C90.2412 174.524 89.958 169.687 92.1101 166.062C93.9564 162.959 97.9207 162.325 101.194 161.815C102.27 161.645 101.817 160.003 100.741 160.172Z" fill="white"/>
<path d="M99.3934 149.717C96.5051 149.423 93.6847 148.199 90.751 148.652C87.9986 149.071 85.9711 151.156 84.6232 153.466C83.2074 155.913 82.5051 158.688 82.2106 161.486C82.0407 163.105 82.0067 164.736 82.0294 166.368C82.052 167.942 81.8934 169.777 82.3918 171.295C82.7316 172.325 84.374 171.884 84.0342 170.842C83.6038 169.55 83.7624 167.931 83.7397 166.571C83.7171 165.144 83.7284 163.717 83.8417 162.301C84.0455 159.662 84.6345 156.989 85.9258 154.644C87.1604 152.401 89.0294 150.374 91.7365 150.261C94.3303 150.159 96.8449 151.156 99.4048 151.427C100.469 151.529 100.469 149.83 99.3934 149.717Z" fill="white"/>
<path d="M81.1566 180.718C78.676 182.134 76.7731 184.422 75.8783 187.14C74.8136 190.369 75.1647 194.061 76.0708 197.278C76.3653 198.331 78.0077 197.878 77.7132 196.825C76.909 193.948 76.5579 190.708 77.4527 187.82C78.1889 185.43 79.8653 183.425 82.0288 182.191C82.9576 181.647 82.1081 180.174 81.1566 180.718Z" fill="white"/>
<path d="M72.0052 205.637C75.743 207.438 80.3417 209.318 84.1476 206.611C85.79 205.445 87.0359 203.734 88.1006 202.058C89.222 200.28 89.9696 198.343 89.6298 196.225C89.4599 195.149 87.8175 195.602 87.9874 196.678C88.2706 198.445 87.3417 200.132 86.4016 201.548C85.4955 202.919 84.4647 204.369 83.0715 205.286C79.8433 207.438 75.9469 205.649 72.8547 204.165C71.8806 203.689 71.0197 205.162 72.0052 205.637Z" fill="white"/>
<path d="M112.929 156.944C114.22 160.75 117.346 163.468 121.027 164.895C123.112 165.711 125.343 166.085 127.574 166.243C129.591 166.379 132.003 166.606 133.759 165.382C134.654 164.759 133.804 163.287 132.898 163.91C131.426 164.941 129.273 164.657 127.574 164.533C125.615 164.397 123.655 164.046 121.809 163.366C118.592 162.188 115.693 159.798 114.571 156.479C114.22 155.46 112.578 155.902 112.929 156.944Z" fill="white"/>
<path d="M128.763 160.002C133.464 160.433 138.731 160.931 142.254 164.454C145.799 167.988 145.301 173.572 145.471 178.182C145.516 179.269 147.215 179.281 147.17 178.182C146.977 173.073 147.373 167.161 143.454 163.253C139.581 159.391 133.928 158.779 128.763 158.303C127.676 158.201 127.687 159.9 128.763 160.002Z" fill="white"/>
<path d="M151.339 178.204C151.588 179.586 151.746 180.99 151.826 182.395C151.871 183.109 151.882 183.822 151.882 184.536C151.882 184.864 151.882 185.193 151.871 185.521C151.871 185.453 151.871 185.974 151.86 185.827C151.871 186.042 151.678 185.827 151.995 185.782C152.143 185.782 152.301 185.782 152.449 185.782C152.46 185.793 152.483 185.793 152.494 185.804C151.554 185.238 150.693 186.711 151.633 187.277C152.471 187.775 153.264 187.096 153.491 186.28C153.604 185.861 153.57 185.374 153.57 184.944C153.581 184.445 153.57 183.958 153.559 183.46C153.502 181.545 153.298 179.631 152.97 177.751C152.89 177.298 152.335 177.049 151.928 177.162C151.452 177.287 151.259 177.751 151.339 178.204Z" fill="white"/>
<path d="M115.851 200.676C114.594 202.601 113.291 204.493 111.943 206.351C111.671 206.724 111.875 207.302 112.249 207.517C112.679 207.766 113.144 207.585 113.416 207.211C114.764 205.354 116.066 203.462 117.323 201.537C117.573 201.151 117.403 200.596 117.018 200.37C116.599 200.132 116.1 200.291 115.851 200.676Z" fill="#FBC9C5"/>
<path d="M130.995 198.105C132.932 199.147 134.801 200.325 136.568 201.639C136.942 201.911 137.519 201.695 137.734 201.333C137.984 200.903 137.802 200.45 137.429 200.166C135.662 198.852 133.793 197.674 131.856 196.632C131.448 196.417 130.927 196.53 130.689 196.938C130.463 197.323 130.587 197.878 130.995 198.105Z" fill="#FBC9C5"/>
<path d="M110.89 177.264C109.576 177.128 108.126 177.23 106.982 177.966C105.872 178.68 104.989 179.994 105.136 181.364C105.17 181.67 105.238 181.942 105.465 182.169C105.657 182.361 105.986 182.509 106.269 182.497C106.824 182.475 107.47 181.999 107.402 181.364C107.39 181.251 107.379 181.138 107.39 181.025C107.39 180.991 107.413 180.764 107.39 180.979C107.368 181.183 107.39 180.979 107.402 180.934C107.424 180.855 107.515 180.696 107.504 180.617C107.515 180.685 107.39 180.855 107.492 180.674C107.515 180.628 107.549 180.572 107.571 180.526C107.605 180.481 107.628 180.424 107.662 180.379C107.673 180.356 107.685 180.345 107.696 180.322C107.741 180.254 107.719 180.288 107.628 180.413C107.685 180.39 107.809 180.209 107.866 180.153C107.911 180.107 107.945 180.073 107.991 180.039C108.013 180.028 108.025 180.005 108.047 179.994C108.115 179.937 108.081 179.96 107.957 180.062C108.025 180.062 108.183 179.915 108.251 179.869C108.353 179.813 108.489 179.767 108.591 179.699C108.534 179.733 108.398 179.779 108.534 179.722C108.614 179.699 108.682 179.665 108.761 179.643C108.885 179.609 109.01 179.575 109.146 179.552C109.203 179.541 109.248 179.53 109.304 179.518C109.565 179.473 109.123 179.53 109.282 179.518C109.826 179.473 110.369 179.473 110.913 179.53C111.502 179.598 112.068 178.963 112.046 178.397C111.989 177.729 111.525 177.332 110.89 177.264Z" fill="#BFBFBF"/>
<path d="M125.74 176.856C126.136 176.561 126.522 176.267 126.952 176.017C127.054 175.961 127.145 175.904 127.246 175.847C127.292 175.825 127.348 175.791 127.394 175.768C127.405 175.768 127.654 175.655 127.496 175.723C127.348 175.78 127.53 175.712 127.564 175.7C127.62 175.678 127.666 175.666 127.722 175.644C127.835 175.61 127.949 175.576 128.062 175.553C128.107 175.542 128.164 175.542 128.198 175.53C128.153 175.553 127.949 175.553 128.107 175.542C128.198 175.53 128.3 175.53 128.39 175.53C128.447 175.53 128.515 175.53 128.572 175.542C128.606 175.542 128.776 175.564 128.594 175.542C128.413 175.519 128.708 175.564 128.764 175.576C128.866 175.598 128.968 175.655 129.07 175.666C129.025 175.655 128.855 175.564 128.991 175.632C129.036 175.655 129.07 175.678 129.115 175.7C129.161 175.723 129.195 175.746 129.229 175.78C129.399 175.881 129.104 175.655 129.195 175.757C129.263 175.836 129.342 175.904 129.41 175.983C129.784 176.448 130.622 176.402 131.007 175.983C131.46 175.496 131.415 174.873 131.007 174.386C130.203 173.412 128.855 173.152 127.666 173.344C126.499 173.525 125.502 174.228 124.585 174.907C124.335 175.089 124.143 175.281 124.064 175.587C123.984 175.859 124.018 176.221 124.177 176.459C124.494 176.912 125.23 177.229 125.74 176.856Z" fill="#BFBFBF"/>
<path d="M119.669 207.144C121.583 208.379 123.871 208.753 126.114 208.832C128.198 208.9 130.995 208.481 131.46 205.989C131.664 204.924 130.021 204.46 129.818 205.536C129.466 207.382 126.963 207.19 125.57 207.11C123.792 207.008 122.025 206.657 120.518 205.683C119.612 205.083 118.762 206.555 119.669 207.144Z" fill="black"/>
<path d="M120.62 219.853C122.852 220.215 125.264 220.612 127.462 219.83C129.24 219.185 130.814 217.871 131.301 215.979C131.573 214.914 129.931 214.473 129.659 215.526C129.308 216.919 128.073 217.871 126.748 218.278C124.913 218.856 122.931 218.516 121.073 218.222C120.62 218.154 120.156 218.335 120.031 218.811C119.918 219.207 120.167 219.774 120.62 219.853Z" fill="#FBC9C5"/>
<path d="M145.63 291.528C147.25 286.68 147.012 281.085 145.29 278.015C140.363 272.397 130.565 276.769 128.153 284.245C124.324 297.203 142.243 301.688 145.63 291.528Z" fill="#FFE4D6"/>
<path d="M136.082 292.434C136.025 292.446 135.957 292.457 135.9 292.468C136.036 292.457 136.059 292.446 135.98 292.457C135.889 292.457 135.798 292.468 135.708 292.48C135.606 292.48 135.504 292.48 135.391 292.48C135.323 292.48 135.051 292.434 135.334 292.48C134.972 292.423 134.62 292.321 134.281 292.185C134.53 292.287 134.213 292.151 134.167 292.129C134.088 292.083 133.997 292.038 133.918 291.993C133.737 291.891 133.556 291.789 133.386 291.664C133.307 291.608 133.227 291.551 133.148 291.494C132.887 291.313 133.318 291.641 133.069 291.438C132.899 291.302 132.74 291.166 132.582 291.019C132.276 290.747 131.993 290.452 131.721 290.135C131.596 289.988 131.472 289.841 131.347 289.693C131.506 289.886 131.324 289.671 131.29 289.625C131.222 289.535 131.166 289.455 131.098 289.365C130.894 289.07 130.701 288.764 130.52 288.447C130.441 288.311 130.373 288.175 130.305 288.028C130.271 287.96 130.248 287.892 130.214 287.824C130.124 287.632 130.316 288.074 130.203 287.779C129.988 287.224 129.433 286.782 128.81 286.986C128.277 287.156 127.79 287.79 128.017 288.379C128.663 290.044 129.784 291.574 131.12 292.74C132.661 294.088 134.586 295.04 136.671 294.609C137.248 294.485 137.645 293.771 137.464 293.216C137.282 292.604 136.705 292.298 136.082 292.434Z" fill="black"/>
<path d="M136.376 287.44C136.183 287.451 135.979 287.417 135.787 287.428C135.696 287.417 135.73 287.428 135.866 287.44C135.821 287.428 135.775 287.428 135.73 287.417C135.628 287.394 135.526 287.372 135.424 287.349C135.243 287.304 135.073 287.236 134.903 287.179C135.152 287.27 134.869 287.168 134.835 287.145C134.744 287.1 134.665 287.066 134.586 287.021C134.416 286.93 134.257 286.828 134.087 286.726C134.008 286.669 133.929 286.624 133.85 286.567C133.816 286.545 133.555 286.352 133.646 286.42C133.748 286.5 133.51 286.318 133.487 286.296C133.397 286.216 133.306 286.148 133.215 286.069C133.068 285.933 132.921 285.797 132.774 285.661C131.675 284.608 130.769 283.385 129.817 282.207C129.432 281.731 128.617 281.81 128.22 282.207C127.744 282.682 127.835 283.328 128.22 283.804C129.24 285.061 130.202 286.364 131.392 287.462C132.751 288.708 134.461 289.807 136.387 289.716C136.976 289.682 137.542 289.218 137.52 288.584C137.486 287.983 137.01 287.406 136.376 287.44Z" fill="black"/>
<path d="M137.52 283.362C137.135 283.192 136.784 282.943 136.455 282.693C136.364 282.625 136.013 282.354 136.33 282.603C136.217 282.512 136.115 282.433 136.002 282.342C135.764 282.15 135.538 281.957 135.311 281.753C134.881 281.368 134.462 280.949 134.076 280.519C133.986 280.417 133.895 280.315 133.816 280.213C133.782 280.167 133.748 280.111 133.703 280.077C133.703 280.077 133.884 280.326 133.793 280.19C133.771 280.156 133.748 280.122 133.725 280.088C133.601 279.907 133.476 279.726 133.374 279.533C133.317 279.42 133.306 279.261 133.397 279.612C133.385 279.567 133.363 279.522 133.351 279.488C133.34 279.443 133.329 279.409 133.318 279.363C133.261 279.159 133.351 279.669 133.34 279.51C133.329 279.386 133.408 279.261 133.306 279.669C133.351 279.499 133.25 279.782 133.227 279.828C133.306 279.658 133.136 279.93 133.114 279.964C133.25 279.794 132.91 280.099 133 280.043C133.499 279.714 133.748 279.023 133.408 278.491C133.091 277.993 132.389 277.732 131.856 278.083C131.188 278.525 130.95 279.25 131.143 280.009C131.301 280.621 131.686 281.153 132.072 281.64C132.898 282.705 133.94 283.611 135.005 284.426C135.436 284.755 135.889 285.095 136.387 285.321C136.919 285.57 137.633 285.491 137.939 284.913C138.188 284.404 138.086 283.622 137.52 283.362Z" fill="black"/>
<path d="M96.5159 232.663C101.488 254.014 107.186 275.184 113.597 296.138C114.027 297.532 116.213 296.931 115.783 295.538C109.372 274.583 103.675 253.413 98.702 232.062C98.3735 230.635 96.1875 231.235 96.5159 232.663Z" fill="#C9FBFF"/>
<path d="M139.082 231.791C138.867 238.485 138.391 245.157 137.678 251.805C137.519 253.255 139.785 253.244 139.943 251.805C140.657 245.157 141.133 238.474 141.348 231.791C141.393 230.33 139.128 230.341 139.082 231.791Z" fill="#C9FBFF"/>
<path d="M83.4902 267.891C85.9142 276.646 87.7718 285.549 89.0404 294.554C89.2443 295.992 91.4303 295.381 91.2265 293.954C89.9578 284.949 88.1116 276.046 85.6763 267.29C85.2799 265.886 83.0938 266.486 83.4902 267.891Z" fill="#C9FBFF"/>
<path d="M88.2026 294.305C84.1476 295.415 80.2625 297.114 76.7058 299.346C75.4712 300.116 76.6039 302.075 77.8499 301.305C81.2592 299.176 84.9291 297.556 88.8142 296.491C90.2075 296.106 89.6072 293.92 88.2026 294.305Z" fill="#C9FBFF"/>
<path d="M89.6751 296.083C84.8839 300.92 80.6363 306.3 77.057 312.088C76.2867 313.334 78.2463 314.467 79.0165 313.232C79.1525 313.006 79.2997 312.779 79.4356 312.552C80.2059 311.307 78.2463 310.174 77.4761 311.408C77.3402 311.635 77.1929 311.862 77.057 312.088C77.7139 312.473 78.3596 312.847 79.0165 313.232C82.5052 307.603 86.6168 302.392 91.2835 297.68C92.3029 296.638 90.7059 295.041 89.6751 296.083Z" fill="#C9FBFF"/>
<path d="M94.2284 298.325C97.9323 298.688 101.602 299.209 105.261 299.9C105.861 300.013 106.484 299.73 106.654 299.107C106.801 298.552 106.461 297.827 105.861 297.714C102.01 296.989 98.1248 296.434 94.2284 296.049C93.6167 295.992 93.0957 296.615 93.0957 297.181C93.0957 297.861 93.6167 298.269 94.2284 298.325Z" fill="#C9FBFF"/>
<path d="M59.3418 317.095C60.6671 321.252 62.5586 325.329 65.5942 328.524C68.5505 331.627 72.5149 333.655 76.6719 334.583C85.9713 336.668 95.2479 333.417 103.29 328.875C104.559 328.161 103.415 326.202 102.146 326.915C94.7949 331.061 86.2544 334.244 77.714 332.488C73.9082 331.706 70.2836 330.019 67.5198 327.244C64.5635 324.276 62.7852 320.425 61.5279 316.483C61.0861 315.113 58.9001 315.702 59.3418 317.095Z" fill="#C9FBFF"/>
<path d="M227.64 302.993C233.707 277.302 217.797 251.557 192.106 245.491C166.415 239.424 140.67 255.333 134.603 281.025C128.537 306.716 144.446 332.461 170.137 338.527C195.829 344.594 221.574 328.685 227.64 302.993Z" fill="#FFC36E"/>
<path d="M152.663 287.453L211.008 288.439L209.954 295.892L153.581 295.495L152.663 287.453Z" fill="#FFE4BF"/>
<path d="M158.293 275.186L164.67 275.265L171.466 305.236L178.375 273.283L185.885 273.736L191.526 303.764L201.777 273.691L209.377 273.872L195.49 312.961L185.783 311.942L181.875 284.746L177.141 312.157L165.689 312.35L158.293 275.186Z" fill="#FFE4BF"/>
<path d="M90.1273 245.634C94.8959 241.443 96.6856 237.037 96.3458 229.448C95.7454 216.298 80.1823 217.351 74.8587 229.754C65.1742 252.34 85.3361 249.836 90.1273 245.634Z" fill="#FFE4D6"/>
<path d="M77.7128 241.522C79.9782 243.822 83.7613 244.966 86.8989 244.195C87.9636 243.935 87.5105 242.293 86.4458 242.553C83.8859 243.176 80.7371 242.179 78.9134 240.31C78.1432 239.54 76.9426 240.741 77.7128 241.522Z" fill="black"/>
<path d="M80.0809 235.927C82.6521 238.566 86.1294 239.721 89.7313 240.016C90.6715 240.095 90.9094 238.498 89.9579 238.351C89.6861 238.305 89.4595 238.181 89.199 238.135C88.7459 238.056 88.2815 238.249 88.1569 238.724C88.0437 239.132 88.2928 239.698 88.7459 239.766C89.0064 239.812 89.2443 239.948 89.5048 239.982C89.5841 239.427 89.6521 238.872 89.7313 238.317C86.5825 238.056 83.5356 237.025 81.2815 234.715C80.5226 233.944 79.322 235.145 80.0809 235.927Z" fill="black"/>
<path d="M84.022 227.782C84.3958 229.855 85.9702 231.735 87.5333 233.049C89.1077 234.374 91.2598 235.677 93.4119 235.382C93.865 235.326 94.2614 235.031 94.2614 234.533C94.2614 234.125 93.865 233.627 93.4119 233.683C91.7129 233.91 89.9686 232.902 88.6433 231.769C87.2841 230.603 85.9702 229.062 85.653 227.329C85.5738 226.876 85.0187 226.627 84.611 226.74C84.1352 226.876 83.9314 227.329 84.022 227.782Z" fill="black"/>
<path d="M219.163 307.931C212.888 308.906 209.014 311.647 205.219 318.239C198.661 329.656 212.344 337.132 223.501 329.52C243.821 315.679 225.461 306.957 219.163 307.931Z" fill="#FFE4D6"/>
<path d="M227.42 318.035C227.08 316.415 226.197 314.931 225.121 313.686C224.045 312.44 222.663 311.409 221.088 310.876C220.658 310.729 220.159 311.046 220.046 311.465C219.922 311.93 220.205 312.36 220.635 312.508C221.858 312.927 223.014 313.833 223.92 314.875C224.815 315.906 225.494 317.14 225.778 318.477C225.868 318.93 226.401 319.19 226.82 319.066C227.284 318.953 227.511 318.477 227.42 318.035Z" fill="black"/>
<path d="M222.414 321.467C221.667 317.865 219.333 315.034 216.456 312.859C215.697 312.281 214.701 313.561 215.425 314.195C215.629 314.365 215.754 314.615 215.946 314.785C216.286 315.09 216.807 315.124 217.147 314.785C217.453 314.479 217.498 313.89 217.147 313.584C216.943 313.414 216.83 313.165 216.626 312.995C216.286 313.437 215.935 313.89 215.595 314.331C218.121 316.257 220.115 318.772 220.772 321.932C220.862 322.385 221.395 322.645 221.814 322.521C222.289 322.385 222.505 321.92 222.414 321.467Z" fill="black"/>
<path d="M214.734 326.236C215.539 324.277 215.199 321.842 214.587 319.882C213.964 317.911 212.831 315.702 210.872 314.785C210.453 314.592 209.954 314.672 209.705 315.091C209.49 315.453 209.592 316.054 210.011 316.257C211.619 317.005 212.492 318.851 212.99 320.471C213.5 322.159 213.783 324.13 213.103 325.795C212.933 326.225 213.296 326.724 213.692 326.837C214.179 326.961 214.564 326.667 214.734 326.236Z" fill="black"/>
<path d="M136.828 330.484C132.932 328.048 132.819 323.155 133.306 320.029C135.084 308.623 145.901 303.514 142.877 312.95C147.147 311.772 157.262 314.762 158.293 319.293C161 331.197 144.111 335.037 136.828 330.484Z" fill="#FFE4D6"/>
<path d="M158.814 320.515C157.432 318.408 154.725 317.298 152.392 316.653C151.134 316.313 149.82 316.075 148.518 316.086C147.476 316.086 146.286 316.234 145.414 316.868C144.927 317.23 144.678 317.853 145.007 318.42C145.29 318.907 146.06 319.19 146.558 318.827C146.626 318.782 146.694 318.725 146.762 318.691C146.785 318.68 147.079 318.533 146.943 318.59C146.807 318.646 147.079 318.544 147.113 318.533C147.204 318.499 147.306 318.476 147.408 318.454C147.782 318.363 148.087 318.352 148.631 318.352C149.741 318.363 150.693 318.544 151.78 318.839C152.867 319.133 153.898 319.518 154.884 320.062C155.11 320.187 155.337 320.323 155.552 320.47C155.767 320.606 155.914 320.708 156.016 320.798C156.186 320.946 156.356 321.093 156.515 321.251C156.605 321.342 156.684 321.433 156.764 321.523C156.82 321.591 156.809 321.58 156.741 321.489C156.775 321.546 156.82 321.591 156.854 321.648C157.659 322.871 159.618 321.738 158.814 320.515Z" fill="black"/>
<path d="M157.103 322.941C155.982 321.649 154.283 320.902 152.64 320.539C150.953 320.154 149.14 320.086 147.464 320.539C146.06 320.925 146.66 323.111 148.064 322.726C148.223 322.68 148.393 322.646 148.563 322.612C148.653 322.601 148.733 322.578 148.823 322.567C149.016 322.533 148.551 322.59 148.891 322.556C149.242 322.522 149.594 322.499 149.956 322.499C150.33 322.499 150.692 322.522 151.066 322.556C151.338 322.578 151.644 322.635 152.051 322.726C152.788 322.895 153.433 323.111 153.977 323.382C154.305 323.552 154.611 323.734 154.906 323.949C154.815 323.881 154.872 323.915 154.928 323.971C154.996 324.028 155.064 324.085 155.121 324.141C155.257 324.266 155.393 324.402 155.506 324.549C155.914 325.014 156.695 324.957 157.103 324.549C157.556 324.085 157.5 323.405 157.103 322.941Z" fill="black"/>
<path d="M155.211 328.15C154.305 326.757 152.833 325.828 151.349 325.149C150.126 324.582 148.834 324.095 147.509 323.801C146.931 323.665 146.252 323.982 146.116 324.594C145.98 325.171 146.286 325.851 146.909 325.987C147.407 326.1 147.894 326.247 148.381 326.406C148.687 326.508 148.993 326.61 149.299 326.734C149.457 326.791 149.627 326.859 149.786 326.927C150.024 327.029 149.627 326.848 149.842 326.95C149.933 326.995 150.035 327.029 150.126 327.074C150.805 327.38 151.462 327.731 152.074 328.162C152.142 328.207 152.221 328.263 152.289 328.32C152.527 328.49 152.108 328.173 152.334 328.354C152.459 328.467 152.595 328.569 152.719 328.694C152.833 328.807 152.957 328.92 153.059 329.045C153.093 329.09 153.127 329.124 153.161 329.17C153.071 329.056 153.059 329.034 153.105 329.09C153.15 329.17 153.206 329.238 153.252 329.317C153.569 329.815 154.271 330.064 154.804 329.725C155.302 329.385 155.562 328.683 155.211 328.15Z" fill="black"/>
<path d="M325.228 209.84C325.228 209.84 320.516 229.356 309.552 234.136C318.67 237.07 321.909 244.953 325.795 256.484C328.592 235.257 340.916 233.207 340.916 233.207C340.916 233.207 327.788 225.335 325.228 209.84Z" fill="#FFD142"/>
<path d="M322.872 220.543C321.207 224.009 319.395 227.804 315.963 229.854C314.717 230.602 315.85 232.561 317.107 231.814C320.89 229.548 322.974 225.527 324.821 221.687C325.081 221.132 324.968 220.464 324.413 220.136C323.926 219.853 323.133 219.988 322.872 220.543Z" fill="#FFE89B"/>
<path d="M299.561 147.09C299.561 147.09 293.637 168.645 283.602 171.42C294.113 178.522 296.967 181.433 301.43 193.111C304.228 171.884 313.924 170.854 313.924 170.854C313.924 170.854 302.347 163.65 299.561 147.09Z" fill="#FFD142"/>
<path d="M296.832 157.669C296.05 160.92 294.181 163.921 291.531 165.971C291.044 166.345 290.783 166.946 291.123 167.523C291.406 167.999 292.188 168.305 292.675 167.931C295.812 165.507 298.078 162.132 299.018 158.269C299.165 157.68 298.825 157.046 298.225 156.876C297.647 156.717 296.979 157.068 296.832 157.669Z" fill="#FFE89B"/>
<path d="M25.1342 236.9C25.1342 236.9 22.8009 257.629 7.92871 259.158C18.44 266.26 23.8316 271.912 25.6893 283.556C28.487 262.329 41.3429 258.942 41.3429 258.942C41.3429 258.942 29.3818 251.252 25.1342 236.9Z" fill="#FFD142"/>
<path d="M23.2881 248.941C21.0793 252.86 18.089 256.314 14.4758 259.01C13.9887 259.373 13.7396 259.984 14.068 260.562C14.3512 261.049 15.1214 261.332 15.6198 260.97C19.5389 258.047 22.835 254.355 25.2363 250.085C25.9612 248.805 24.013 247.661 23.2881 248.941Z" fill="#FFE89B"/>
<path d="M39.8438 55.31C39.7798 57.55 38.6598 58.67 36.5158 58.67H31.3958C29.0918 58.67 27.6198 57.39 27.5558 55.31L27.0758 37.326C27.0438 36.686 27.3958 36.366 28.0678 36.366H30.4038C31.1718 36.366 31.4278 36.59 31.4278 37.23L31.5558 43.086H35.8438L35.9718 37.23C35.9718 36.59 36.2598 36.366 36.9958 36.366H39.3318C40.0358 36.366 40.3558 36.686 40.3238 37.326L40.1318 45.102H42.0518C42.6918 45.102 43.0438 44.782 43.0438 44.174V35.662C43.0438 34.99 43.3638 34.67 44.0358 34.67H46.3718C47.0438 34.67 47.3638 34.99 47.3638 35.662V62.03C47.3638 62.702 47.0438 63.022 46.3718 63.022H44.0358C43.3638 63.022 43.0438 62.702 43.0438 62.03V49.102C42.8198 49.39 42.4358 49.582 41.9878 49.582H40.0038L39.8438 55.31ZM49.1238 35.342C49.1238 34.67 49.4438 34.35 50.1158 34.35H52.4518C53.1238 34.35 53.4438 34.67 53.4438 35.342V62.03C53.4438 62.702 53.1238 63.022 52.4518 63.022H50.1158C49.4438 63.022 49.1238 62.702 49.1238 62.03V35.342ZM31.6838 47.406L31.8118 53.39C31.8118 53.966 32.1958 54.35 32.8358 54.35H34.5638C35.2038 54.35 35.5878 53.966 35.5878 53.39L35.7158 47.406H31.6838ZM62.23 47.406L62.358 53.23C62.39 54.03 62.742 54.35 63.542 54.35H65.75C66.55 54.35 66.902 54.03 66.934 53.23L67.062 47.406H62.23ZM67.414 58.67H61.878C59.35 58.67 57.846 57.294 57.782 55.022L57.302 37.39C57.27 36.75 57.686 36.366 58.358 36.366H60.886C61.622 36.366 61.942 36.622 61.974 37.294L62.102 43.086H67.19L67.318 37.294C67.318 36.654 67.67 36.366 68.406 36.366H70.934C71.638 36.366 72.022 36.75 71.99 37.39L71.51 55.022C71.446 57.294 69.942 58.67 67.414 58.67ZM75.926 35.406C75.926 34.734 76.31 34.35 76.982 34.35H79.51C80.182 34.35 80.566 34.734 80.566 35.406V61.966C80.566 62.638 80.182 63.022 79.51 63.022H76.982C76.31 63.022 75.926 62.638 75.926 61.966V48.686C75.574 49.262 74.87 49.582 74.006 49.582H73.526C72.886 49.582 72.534 49.23 72.534 48.59V46.094C72.534 45.454 72.886 45.102 73.526 45.102H74.134C75.222 45.102 75.926 44.43 75.926 43.406V35.406ZM93.6095 36.366C97.4495 36.366 99.4975 38.062 99.4975 41.198C99.4975 43.054 98.7935 44.558 97.5135 45.55H98.3135C98.9535 45.55 99.2415 45.838 99.2415 46.478V48.622C99.2415 49.262 98.9535 49.55 98.3135 49.55C96.6175 49.55 95.3055 49.518 94.1215 49.518C90.4735 49.518 89.3535 50.126 89.3535 52.11C89.3535 53.934 90.4415 54.67 93.1935 54.67C94.8575 54.67 96.8735 54.286 98.6655 53.582C98.7935 53.518 98.9215 53.486 99.0495 53.486C99.4015 53.486 99.6255 53.774 99.7855 54.318L100.426 56.558C100.618 57.198 100.362 57.55 99.6255 57.806C97.3535 58.606 94.8255 58.99 92.4575 58.99C87.3695 58.99 84.7135 56.622 84.7135 52.11C84.7135 47.598 87.3375 45.198 92.3295 45.198C94.0895 45.198 94.8575 44.526 94.8575 42.99C94.8575 41.39 94.0575 40.718 92.1375 40.718C90.4415 40.718 88.8735 40.846 86.6655 41.166C86.0255 41.262 85.6735 40.974 85.6735 40.334V37.774C85.6735 37.166 85.9295 36.878 86.6015 36.782C88.7775 36.462 90.4735 36.366 93.6095 36.366ZM103.114 35.406C103.114 34.734 103.498 34.35 104.17 34.35H106.698C107.37 34.35 107.754 34.734 107.754 35.406V61.966C107.754 62.638 107.37 63.022 106.698 63.022H104.17C103.498 63.022 103.114 62.638 103.114 61.966V35.406ZM125.853 36.366C126.525 36.366 126.909 36.75 126.909 37.422V39.63C126.909 40.302 126.525 40.686 125.853 40.686H121.629V48.046C121.629 51.342 123.581 53.998 126.077 54.35C126.749 54.446 127.069 54.766 127.069 55.374V57.774C127.069 58.414 126.749 58.766 126.077 58.67C122.877 58.222 120.189 56.238 119.357 53.454C118.493 56.238 115.773 58.222 112.541 58.67C111.869 58.766 111.485 58.414 111.485 57.774V55.374C111.485 54.766 111.837 54.446 112.541 54.35C115.037 53.998 116.989 51.342 116.989 48.046V40.686H112.701C112.029 40.686 111.645 40.302 111.645 39.63V37.422C111.645 36.75 112.029 36.366 112.701 36.366H125.853ZM130.301 35.406C130.301 34.734 130.685 34.35 131.357 34.35H133.885C134.557 34.35 134.941 34.734 134.941 35.406V61.966C134.941 62.638 134.557 63.022 133.885 63.022H131.357C130.685 63.022 130.301 62.638 130.301 61.966V35.406ZM143.729 45.23C143.729 46.094 144.497 46.414 146.289 46.414C148.081 46.414 148.849 46.094 148.849 45.23C148.849 44.398 148.081 44.078 146.289 44.078C144.497 44.078 143.729 44.398 143.729 45.23ZM156.465 44.142C157.233 44.142 157.489 43.854 157.489 43.054V41.742C157.201 42.19 156.721 42.382 156.049 42.382H155.569C154.929 42.382 154.577 42.03 154.577 41.39V39.214C154.577 38.574 154.929 38.222 155.569 38.222H156.465C157.233 38.222 157.489 37.934 157.489 37.134V35.406C157.489 34.734 157.873 34.35 158.545 34.35H161.073C161.745 34.35 162.129 34.734 162.129 35.406V49.486C162.129 50.158 161.745 50.542 161.073 50.542H158.545C157.873 50.542 157.489 50.158 157.489 49.486V47.662C157.201 48.11 156.721 48.302 156.049 48.302H155.569C154.929 48.302 154.577 47.95 154.577 47.31V45.134C154.577 44.494 154.929 44.142 155.569 44.142H156.465ZM151.889 59.534C156.593 59.534 158.193 59.086 158.193 57.614C158.193 56.142 156.593 55.694 151.889 55.694C147.185 55.694 145.585 56.142 145.585 57.614C145.585 59.086 147.185 59.534 151.889 59.534ZM146.289 40.462C151.121 40.462 153.425 41.902 153.425 45.23C153.425 48.59 151.121 50.03 146.289 50.03C141.457 50.03 139.153 48.59 139.153 45.23C139.153 41.902 141.457 40.462 146.289 40.462ZM148.657 33.934V34.702C148.657 35.118 148.945 35.406 149.521 35.406H153.265C153.937 35.406 154.257 35.726 154.257 36.398V38.318C154.257 38.99 153.937 39.31 153.265 39.31H139.185C138.513 39.31 138.193 38.99 138.193 38.318V36.398C138.193 35.726 138.513 35.406 139.185 35.406H144.497C144.177 35.214 144.017 34.926 144.017 34.478V33.934C144.017 33.262 144.337 32.942 145.009 32.942H147.665C148.337 32.942 148.657 33.262 148.657 33.934ZM140.945 57.614C140.945 53.518 144.593 51.694 151.889 51.694C159.185 51.694 162.833 53.518 162.833 57.614C162.833 61.71 159.185 63.534 151.889 63.534C144.593 63.534 140.945 61.71 140.945 57.614ZM40.5478 99.694C45.6038 99.694 46.8518 99.278 46.8518 97.806C46.8518 96.334 45.6038 95.918 40.5478 95.918C35.4918 95.918 34.2438 96.334 34.2438 97.806C34.2438 99.278 35.4918 99.694 40.5478 99.694ZM36.9318 86.862C36.4838 86.67 36.2278 86.254 36.2278 85.742V83.022C36.2278 82.35 36.6118 81.966 37.2838 81.966H39.8438C40.5158 81.966 40.8678 82.35 40.8678 83.022V85.838C40.8678 86.446 41.2518 86.798 42.0198 86.83C44.5478 86.894 49.2838 86.766 51.7798 86.574C52.4518 86.51 52.8678 86.862 52.8678 87.534V89.422C52.8678 89.998 52.5478 90.382 51.8118 90.446C49.8278 90.638 45.2838 90.702 40.2918 90.702C35.8118 90.702 31.5878 90.67 28.8038 90.446C28.0678 90.382 27.7478 90.03 27.7478 89.422V87.534C27.7478 86.862 28.1318 86.51 28.8038 86.574C31.1398 86.734 34.3718 86.83 36.9318 86.862ZM44.1958 75.054C48.5478 75.054 50.5318 76.814 50.5318 80.654C50.5318 81.998 50.4038 83.342 50.0198 84.942C49.8598 85.582 49.5718 85.742 48.9318 85.646L46.2758 85.262C45.6358 85.166 45.3798 84.942 45.5398 84.302C45.7638 83.438 45.9238 82.542 45.9238 81.838C45.9238 80.11 44.9318 79.278 42.8198 79.278C39.4918 79.278 35.7158 79.534 31.4278 79.822C30.8198 79.854 30.4038 79.502 30.4038 78.926V76.558C30.4038 76.014 30.8198 75.662 31.4278 75.598C34.2118 75.374 39.2678 75.054 44.1958 75.054ZM29.6038 97.806C29.6038 93.742 32.7718 92.078 40.5478 92.078C48.3238 92.078 51.4918 93.742 51.4918 97.806C51.4918 101.87 48.3238 103.534 40.5478 103.534C32.7718 103.534 29.6038 101.87 29.6038 97.806ZM69.7205 75.086C70.3925 75.086 70.7765 75.47 70.7765 76.142V78.35C70.7765 79.022 70.3925 79.406 69.7205 79.406H65.6565V80.558C65.6565 83.63 67.4485 85.39 69.9445 85.39C70.6165 85.39 70.9365 85.71 70.9365 86.318V88.718C70.9365 89.358 70.6165 89.71 69.9445 89.71C66.9045 89.71 64.2485 88.27 63.3845 85.582C62.4885 88.27 59.8325 89.71 56.7285 89.71C56.0245 89.71 55.6725 89.326 55.6725 88.718V86.318C55.6725 85.71 56.0245 85.39 56.7285 85.39C59.2245 85.39 61.0165 83.63 61.0165 80.558V79.406H56.8885C56.2165 79.406 55.8325 79.022 55.8325 78.35V76.142C55.8325 75.47 56.2165 75.086 56.8885 75.086H69.7205ZM59.2565 92.59C62.4565 92.238 66.3285 92.014 72.6325 92.014C77.0165 92.014 79.0325 93.838 79.0325 97.678C79.0325 99.662 78.9365 101.422 78.8405 102.19C78.7445 102.862 78.4565 103.182 77.7845 103.182H75.1925C74.5205 103.182 74.1045 102.798 74.2005 102.126C74.3285 101.134 74.3925 99.726 74.3925 98.67C74.3925 97.038 73.6885 96.334 71.9285 96.334C66.8405 96.334 62.8405 96.654 59.2565 96.91C58.6165 96.942 58.2645 96.558 58.2645 95.918V93.582C58.2645 92.942 58.6165 92.654 59.2565 92.59ZM74.4885 83.566C74.1685 84.11 73.5285 84.43 72.6645 84.43H71.2885C70.6485 84.43 70.2965 84.078 70.2965 83.438V81.102C70.2965 80.462 70.6485 80.11 71.2885 80.11H72.7925C73.8805 80.11 74.4885 79.534 74.4885 78.51V75.406C74.4885 74.734 74.8725 74.35 75.5445 74.35H78.0725C78.7445 74.35 79.1285 74.734 79.1285 75.406V88.846C79.1285 89.518 78.7445 89.902 78.0725 89.902H75.5445C74.8725 89.902 74.4885 89.518 74.4885 88.846V83.566ZM87.596 82.702C87.596 85.134 88.588 86.51 90.348 86.51C92.108 86.51 93.132 85.102 93.132 82.702C93.132 80.334 92.108 78.926 90.348 78.926C88.588 78.926 87.596 80.302 87.596 82.702ZM101.676 76.046V75.406C101.676 74.734 102.06 74.35 102.732 74.35H105.26C105.932 74.35 106.316 74.734 106.316 75.406V93.326C106.316 93.998 105.932 94.382 105.26 94.382H102.732C102.06 94.382 101.676 93.998 101.676 93.326V87.726C101.356 88.206 100.78 88.43 99.98 88.43H99.116C98.476 88.43 98.124 88.078 98.124 87.438V85.262C98.124 84.622 98.476 84.27 99.116 84.27H100.428C101.42 84.27 101.676 83.822 101.676 82.99V80.782C101.356 81.262 100.78 81.486 99.98 81.486H99.116C98.476 81.486 98.124 81.134 98.124 80.494V78.318C98.124 77.678 98.476 77.326 99.116 77.326H100.428C101.42 77.326 101.676 77.038 101.676 76.046ZM90.348 74.766C94.956 74.766 97.708 77.71 97.708 82.702C97.708 87.662 94.956 90.67 90.348 90.67C85.772 90.67 83.02 87.662 83.02 82.702C83.02 77.742 85.74 74.766 90.348 74.766ZM93.452 103.502C88.556 103.502 85.772 101.198 85.772 97.166C85.772 95.566 85.868 94.83 85.964 94.062C86.06 93.39 86.348 93.006 87.02 93.006H89.548C90.22 93.006 90.7 93.39 90.604 94.062C90.476 95.054 90.412 95.598 90.412 96.462C90.412 98.286 91.596 99.182 94.028 99.182C98.348 99.182 102.636 98.926 106.028 98.606C106.668 98.542 106.988 98.958 107.02 99.598L107.18 101.934C107.212 102.574 106.828 102.862 106.188 102.926C102.988 103.278 99.084 103.502 93.452 103.502ZM131.232 99.502H133.312C133.984 99.502 134.304 99.854 134.304 100.494V102.19C134.304 102.862 133.984 103.182 133.312 103.182H116.768C114.176 103.182 112.768 101.966 112.768 99.694V93.326C112.768 92.142 113.344 91.534 114.528 91.534H129.76C132.416 91.534 133.856 92.942 133.856 95.278C133.856 97.198 132.864 98.734 131.232 99.502ZM127.04 75.054C131.392 75.054 133.376 76.814 133.376 80.654C133.376 82.03 133.056 83.79 132.64 85.262C133.44 85.23 134.112 85.198 134.624 85.134C135.296 85.07 135.712 85.422 135.712 86.094V87.982C135.712 88.558 135.392 88.942 134.656 89.006C132.672 89.198 128.128 89.262 123.136 89.262C118.656 89.262 114.432 89.23 111.648 89.006C110.912 88.942 110.592 88.59 110.592 87.982V86.094C110.592 85.422 110.976 85.07 111.648 85.134C114.4 85.358 118.624 85.39 123.104 85.39C124.8 85.39 126.464 85.39 127.968 85.358C128.352 84.494 128.768 82.862 128.768 81.838C128.768 80.11 127.776 79.278 125.664 79.278C122.336 79.278 118.56 79.534 114.272 79.822C113.664 79.854 113.248 79.502 113.248 78.926V76.558C113.248 76.014 113.664 75.662 114.272 75.598C117.056 75.374 122.112 75.054 127.04 75.054ZM127.2 99.342C128.32 99.342 129.216 98.286 129.216 97.07C129.216 96.014 128.768 95.374 127.84 95.374H118.272C117.664 95.374 117.408 95.63 117.408 96.238V98.158C117.408 98.894 117.92 99.342 118.816 99.342H127.2Z" fill="black"/>
</g>
<defs>
<clipPath id="clip0_644_1868">
<rect width="350" height="350" rx="36" fill="white"/>
</clipPath>
</defs>
</svg>
