<?xml version="1.0" encoding="UTF-8"?>
<svg id="_레이어_1" data-name="레이어 1" xmlns="http://www.w3.org/2000/svg" version="1.1" viewBox="0 0 380 85">
  <defs>
    <style>
      .cls-1 {
        fill: #000;
      }

      .cls-1, .cls-2 {
        stroke-width: 0px;
      }

      .cls-2 {
        fill: #fff;
      }

      .cls-3 {
        fill: none;
        stroke: #708cd9;
        stroke-linecap: round;
        stroke-linejoin: round;
      }
    </style>
  </defs>
  <g>
    <path class="cls-1" d="M108.6,10.2c0,.5,0,.9-.2,1.4s-.4.8-.7,1.2c-.3.4-.7.8-1.2,1.1-.5.4-1,.7-1.7,1-1.4.7-2.2,1.4-2.6,1.9h6.4c.3,0,.5.2.5.5v1.2c0,.3-.2.5-.5.5h-8.3c-.6,0-.9-.3-.9-.9s0-1,.2-1.4c.1-.4.4-.8.7-1.2.3-.4.7-.8,1.2-1.2.5-.4,1.1-.8,1.9-1.2.5-.3,1-.5,1.3-.8.4-.2.7-.5.9-.7s.4-.5.5-.7c.1-.2.2-.5.2-.7,0-.5-.2-1-.6-1.3-.4-.3-.9-.5-1.6-.5s-1.2.2-1.6.5c-.4.3-.6.7-.6,1.3s-.2.5-.5.5h-1.3c-.4,0-.5-.2-.5-.5,0-1.3.4-2.3,1.2-2.9s1.9-1,3.3-1,2.5.3,3.3,1,1.2,1.6,1.2,2.8Z"/>
    <path class="cls-1" d="M110.2,12.8c0-2.2.4-3.8,1.3-4.9.8-1.1,2.1-1.6,3.8-1.6s2.9.5,3.8,1.6c.8,1.1,1.3,2.7,1.3,4.9s-.4,3.8-1.3,4.9c-.8,1.1-2.1,1.6-3.8,1.6s-2.9-.5-3.8-1.6c-.8-1.1-1.3-2.7-1.3-4.9ZM112.5,12.8c0,1.5.2,2.5.7,3.2s1.1,1,2.1,1,1.6-.3,2.1-1c.4-.7.7-1.8.7-3.2s-.2-2.5-.7-3.2c-.4-.7-1.1-1-2.1-1s-1.6.3-2.1,1-.7,1.8-.7,3.2Z"/>
    <path class="cls-1" d="M121.8,10.4c0-.7,0-1.4,0-2.1,0-.7.1-1.3.3-1.9,0-.3.3-.5.6-.5h1.2c.2,0,.3,0,.4.1,0,0,.1.2,0,.4-.1.7-.2,1.4-.3,2s0,1.2,0,1.7.1.8.3,1c.2.2.6.3,1.1.3s.7,0,1.2,0c.5,0,.9-.2,1.3-.3v-.8c0-.3.2-.5.5-.5h1.9c.2,0,.4,0,.5-.1,0,0,.1-.3.1-.5v-.6c-.2.2-.4.4-.8.4h-1.6c-.3,0-.5-.2-.5-.5v-1c0-.3.2-.5.5-.5h1.9c.2,0,.4,0,.5-.1,0,0,.1-.3.1-.5v-.2c0-.4.2-.5.5-.5h1.3c.4,0,.5.2.5.5v9c0,.4-.2.5-.5.5h-1.3c-.4,0-.5-.2-.5-.5v-3.5c-.2.2-.4.4-.8.4h-1.2l.2.7c0,.3,0,.5-.4.7-.4.2-1,.3-1.6.4-.6,0-1.2.1-1.7.1-1.3,0-2.2-.3-2.8-.8s-.9-1.4-.9-2.5ZM126.9,20.2c-1.2,0-2.2-.3-2.8-.8-.7-.5-1-1.3-1-2.3s0-.7,0-.9c0-.2,0-.4,0-.6,0-.2,0-.3.2-.4s.2-.1.4-.1h1.3c.2,0,.3,0,.4.1s.1.2.1.4c0,.2,0,.5,0,.6,0,.2,0,.4,0,.6,0,.9.6,1.4,1.8,1.4s2.1,0,3.2,0c1,0,2-.1,2.8-.2.2,0,.3,0,.4.1,0,0,.1.2.1.4v1.2c0,.3,0,.5-.4.5-.8,0-1.7.2-2.7.2s-2.2,0-3.6,0Z"/>
    <path class="cls-1" d="M143.5,6.4c1.3,0,2.3.5,2.9,1.4.6.9.9,2.4.9,4.4s-.3,3.5-.9,4.4c-.6.9-1.6,1.4-2.9,1.4s-2.2-.5-2.8-1.4c-.6-.9-.9-2.4-.9-4.4s.3-3.5.9-4.4c.6-.9,1.5-1.4,2.8-1.4ZM142.1,12.3c0,1.3.1,2.3.3,2.8.2.6.6.8,1.1.8s.5,0,.7-.2c.2-.1.3-.3.5-.6.1-.3.2-.7.3-1.1s0-1,0-1.7,0-1.2,0-1.7-.1-.8-.3-1.1-.3-.5-.5-.6c-.2-.1-.4-.2-.7-.2s-.5,0-.7.2c-.2.1-.3.3-.5.6-.1.3-.2.7-.3,1.1,0,.5,0,1,0,1.7ZM149.1,6.1c0-.4.2-.5.5-.5h1.3c.4,0,.5.2.5.5v13.3c0,.4-.2.5-.5.5h-1.3c-.4,0-.5-.2-.5-.5V6.1Z"/>
    <path class="cls-1" d="M157.2,10.7c-.1.3-.3.6-.5.9-.2.3-.5.5-.8.7-.3.2-.6.4-1,.5-.4.1-.7.2-1.2.2s-.5-.2-.5-.5v-1.2c0-.3.2-.5.5-.5s.6,0,.9-.2c.3-.1.5-.3.7-.6.2-.2.4-.5.5-.8.1-.3.2-.7.2-1v-1.6c0-.4.2-.6.5-.6h1.3c.3,0,.5.2.5.6v1.6c0,.4,0,.7.2,1,.1.3.3.6.5.8.2.2.4.4.7.6.3.1.6.2.9.2s.5.2.5.5v1.2c0,.3-.2.5-.5.5s-.8,0-1.1-.2c-.4-.1-.7-.3-1-.5-.3-.2-.5-.5-.8-.7s-.4-.6-.5-.9ZM159.7,13.9c3.5,0,5.3,1,5.3,3.1s-1.8,3.1-5.3,3.1-5.3-1-5.3-3.1,1.8-3.1,5.3-3.1ZM159.7,18.1c.6,0,1,0,1.4,0,.4,0,.7,0,.9-.2s.4-.2.5-.3c0-.1.1-.3.1-.5s0-.4-.1-.5-.3-.2-.5-.3-.5-.1-.9-.2c-.4,0-.9,0-1.4,0s-1,0-1.4,0c-.4,0-.7,0-.9.2s-.4.2-.5.3-.2.3-.2.5,0,.4.2.5c.1.1.3.2.5.3s.5.1.9.2c.4,0,.9,0,1.4,0ZM164.7,12.8c0,.4-.2.5-.5.5h-1.3c-.4,0-.5-.2-.5-.5v-6.7c0-.4.2-.5.5-.5h1.3c.4,0,.5.2.5.5v2.5c0-.1.2-.2.4-.3s.4-.1.6-.1h.5c.3,0,.5.2.5.5v1.2c0,.3-.2.5-.5.5h-.6c-.3,0-.5,0-.7.2-.2.2-.3.4-.3.6v1.6Z"/>
    <path class="cls-1" d="M176.7,17.2c0-.7.2-1.3.3-1.9,0-.6.1-1.2.2-1.7s0-1.1.1-1.6c0-.5,0-1.1,0-1.6s0-1-.3-1.3c-.2-.2-.5-.4-1-.4s-.7,0-1,0c-.3,0-.6,0-.8,0-.3,0-.5,0-.8,0-.2,0-.5,0-.8,0-.3,0-.5-.1-.5-.5v-1.2c0-.3.2-.5.5-.5.4,0,.8,0,1.1-.1.3,0,.6,0,.9,0,.3,0,.6,0,.8,0s.5,0,.8,0c.6,0,1.1,0,1.5.2.4.1.7.3,1,.6.3.3.5.6.6,1.1.1.4.2,1,.2,1.6s0,1.3,0,1.9c0,.6,0,1.2-.1,1.8,0,.6-.1,1.2-.2,1.8,0,.6-.2,1.2-.3,1.8,0,.2,0,.3-.2.4,0,0-.2,0-.4,0h-1.3c-.2,0-.3,0-.4-.1,0,0-.1-.2,0-.4ZM183.4,19.4c0,.4-.2.5-.5.5h-1.3c-.4,0-.5-.2-.5-.5V6.1c0-.4.2-.5.5-.5h1.3c.4,0,.5.2.5.5v5.4c0-.1.2-.2.4-.3s.4-.1.6-.1h.5c.3,0,.5.2.5.5v1.2c0,.3-.2.5-.5.5h-.6c-.3,0-.5,0-.7.2-.2.2-.3.4-.3.6v5.2Z"/>
    <path class="cls-1" d="M193.8,9.4c0,.5,0,1-.3,1.5-.2.4-.4.8-.8,1.1-.3.3-.7.5-1.2.7-.5.2-1,.3-1.6.3s-1.1,0-1.5-.3c-.5-.2-.9-.4-1.2-.7-.3-.3-.6-.7-.8-1.1-.2-.4-.3-.9-.3-1.5s0-1,.3-1.5c.2-.4.4-.8.8-1.1s.7-.6,1.2-.7c.5-.2,1-.2,1.6-.2s1.1,0,1.6.2c.5.2.9.4,1.2.7.3.3.6.7.8,1.1.2.4.3.9.3,1.5ZM189.7,20c-.7,0-1.2-.1-1.6-.4-.4-.3-.6-.7-.6-1.3l-.2-3.9c0-.2,0-.3.1-.4,0,0,.2-.1.4-.1h1.3c.3,0,.5.2.5.5v.6h5.9v-.6c0-.4.2-.5.6-.5h1.3c.2,0,.3,0,.4.1,0,0,.1.2.1.4l-.2,3.9c0,.6-.2,1-.6,1.3-.4.3-.9.4-1.6.4h-5.9ZM190.1,7.9c-.4,0-.8.1-1.1.4s-.4.6-.4,1.1.1.8.4,1.1.6.4,1.1.4.8-.1,1.1-.4.4-.6.4-1.1-.1-.8-.4-1.1-.6-.4-1.1-.4ZM189.9,17.5c0,.3.2.5.5.5h4.6c.3,0,.5-.2.5-.5v-.7s-5.6,0-5.6,0v.7ZM195.7,6.1c0-.4.2-.5.5-.5h1.3c.4,0,.5.2.5.5v6.2c0,.4-.2.5-.5.5h-1.3c-.4,0-.5-.2-.5-.5v-6.2Z"/>
    <path class="cls-1" d="M207,6.6c.4,0,.5.2.5.5v1.1c0,.4-.2.5-.5.5h-2.1v3.7c0,.4,0,.8.2,1.2.1.4.3.7.5,1,.2.3.4.5.7.7.3.2.6.3.9.3.3,0,.5.2.5.5v1.2c0,.3-.2.5-.5.4-.4,0-.8-.2-1.1-.3-.4-.1-.7-.3-1-.6-.3-.2-.5-.5-.8-.8-.2-.3-.4-.6-.5-1-.1.4-.3.7-.5,1-.2.3-.5.6-.8.8-.3.2-.6.4-1,.6-.4.1-.7.3-1.2.3-.2,0-.3,0-.4,0s-.1-.2-.1-.4v-1.2c0-.3.2-.5.5-.5.3,0,.6-.2.9-.3.3-.2.5-.4.7-.7.2-.3.4-.6.5-1,.1-.4.2-.8.2-1.2v-3.7h-2.1c-.4,0-.5-.2-.5-.5v-1.1c0-.4.2-.5.5-.5h6.6ZM211.3,19.4c0,.4-.2.5-.5.5h-1.3c-.4,0-.5-.2-.5-.5V6.1c0-.4.2-.5.5-.5h1.3c.4,0,.5.2.5.5v5.4c0-.1.2-.2.4-.3s.4-.1.6-.1h.5c.3,0,.5.2.5.5v1.2c0,.3-.2.5-.5.5h-.6c-.3,0-.5,0-.7.2-.2.2-.3.4-.3.6v5.2Z"/>
    <path class="cls-1" d="M226.3,18.8c0,.4-.2.5-.5.5h-1.3c-.4,0-.5-.2-.5-.5v-1.8c0-.2,0-.3.1-.5,0-.1.2-.2.4-.3-1,0-1.9,0-2.8,0s-1.6-.1-2.3-.2c-.4,0-.5-.2-.5-.5v-1.2c0-.2,0-.3.1-.4,0,0,.2-.1.4,0,.7,0,1.5.2,2.5.2,1,0,2.1,0,3.2,0s1.2,0,1.8,0,1.1,0,1.6,0c.5,0,1,0,1.4,0,.4,0,.7,0,1-.1.2,0,.3,0,.4,0,0,0,.1.2.1.4v1.2c0,.3-.2.4-.5.5-.4,0-.9.1-1.6.2s-1.5,0-2.3,0-.7.2-.7.7v1.9ZM225.2,10.3c-.2.4-.4.7-.6,1-.3.3-.6.6-1,.8-.4.2-.8.4-1.3.5-.5.1-1,.2-1.5.2s-.2,0-.3,0-.2,0-.3,0c0,0-.1,0-.2-.1s0-.2,0-.3v-1.2c0-.3.2-.5.5-.5.6,0,1.1,0,1.5-.2s.8-.4,1.1-.6c.3-.3.5-.6.7-1s.2-.8.2-1.2v-1.1c0-.4.2-.5.5-.5h1.3c.4,0,.5.2.5.5v1.1c0,.4,0,.9.2,1.2s.4.7.7,1,.7.5,1.1.6c.4.1.9.2,1.5.2s.5.2.5.5v1.2c0,.1,0,.2,0,.3s-.1.1-.2.1c0,0-.2,0-.3,0s-.2,0-.3,0c-.5,0-1,0-1.5-.2s-.9-.3-1.3-.5c-.4-.2-.7-.5-1-.8-.3-.3-.5-.6-.6-1Z"/>
    <path class="cls-1" d="M237.6,10.5c-.5,0-.9,0-1.2,0-.3,0-.5,0-.7,0-.2,0-.3,0-.3.2,0,0,0,.2,0,.3s0,.2,0,.3.1.1.3.2c.1,0,.3,0,.6,0,.2,0,.5,0,.9,0s.9,0,1.3-.1c.4,0,.8-.2,1.2-.3,0,0,.2,0,.2,0,.2,0,.3.1.4.4l.3.9c0,.3,0,.5-.4.6-.5.2-1.1.3-1.6.4-.5,0-1.1.1-1.7.1s-1.2,0-1.7-.1c-.5,0-.9-.2-1.2-.4s-.5-.4-.7-.7c-.1-.3-.2-.7-.2-1.1,0-.9.3-1.5.9-1.9s1.5-.6,2.8-.6.8,0,.9,0c.2,0,.2-.1.2-.3s0-.3-.3-.3c-.2,0-.5,0-1,0s-.8,0-1.2,0c-.4,0-.9,0-1.5.2-.3,0-.5,0-.5-.4v-1c0-.1,0-.3,0-.3,0,0,.2-.1.4-.2.3,0,.6,0,.8-.1.3,0,.5,0,.8,0,.3,0,.6,0,.8,0,.3,0,.6,0,1,0,1,0,1.7.1,2.2.3s.7.6.7,1.2-.3,1-.8,1.3h.3c.3,0,.4.1.4.4v.8c0,.3-.1.4-.4.4-.4,0-.8,0-1.1,0s-.6,0-.9,0ZM233.9,17.2c0-1,.5-1.8,1.4-2.3.9-.5,2.3-.7,4.1-.7s3.2.2,4.1.7c.9.5,1.4,1.2,1.4,2.3s-.5,1.8-1.4,2.3-2.3.7-4.1.7-3.2-.2-4.1-.7c-.9-.5-1.4-1.2-1.4-2.3ZM239.4,18.2c.6,0,1.1,0,1.5,0,.4,0,.7,0,1-.2.3,0,.4-.2.5-.3.1-.1.2-.3.2-.5s0-.3-.2-.5-.3-.2-.5-.3c-.2,0-.6-.1-1-.2s-.9,0-1.5,0-1.1,0-1.5,0c-.4,0-.7,0-1,.2-.2,0-.4.2-.5.3-.1.1-.2.3-.2.5s0,.3.2.5c.1.1.3.2.5.3.3,0,.6.1,1,.2.4,0,.9,0,1.5,0ZM242.2,6.1c0-.4.2-.5.5-.5h1.3c.4,0,.5.2.5.5v7c0,.4-.2.5-.5.5h-1.3c-.4,0-.5-.2-.5-.5v-1.4c-.1.2-.4.4-.8.4h-.3c-.3,0-.5-.2-.5-.5v-1.1c0-.3.2-.5.5-.5h.5c.4,0,.6-.2.6-.6v-.9c-.1.2-.4.4-.8.4h-.3c-.3,0-.5-.2-.5-.5v-1.1c0-.3.2-.5.5-.5h.5c.2,0,.4,0,.5-.1s.1-.2.1-.4h0Z"/>
    <path class="cls-1" d="M252.8,9.6c0,1.2-.3,2.2-.8,2.8-.5.7-1.3,1-2.4,1s-1.9-.3-2.4-1c-.6-.7-.8-1.6-.8-2.8s.3-2.2.8-2.8c.5-.7,1.4-1,2.4-1s1.9.3,2.4,1c.6.7.8,1.6.8,2.8ZM248.9,14.7c.8,0,1.8-.2,2.9-.2,1.2,0,2.6,0,4.2,0s1.9.2,2.4.7c.5.5.8,1.2.8,2.1s0,1,0,1.4c0,.4,0,.7,0,.9,0,.3-.2.5-.5.5h-1.3c-.2,0-.3,0-.4-.1,0,0-.1-.2-.1-.4,0-.2,0-.5,0-.8,0-.3,0-.6,0-.9,0-.4,0-.7-.3-.9-.2-.2-.5-.3-1-.3-1.4,0-2.6,0-3.8,0-1.1,0-2.2.1-3.1.2-.2,0-.3,0-.4-.1,0,0-.1-.2-.1-.4v-1.2c0-.3.2-.5.5-.5ZM248.5,9.6c0,.6,0,1,.3,1.3.2.3.5.4.8.4.7,0,1.1-.6,1.1-1.7s-.4-1.7-1.1-1.7-.7.1-.8.4c-.2.3-.3.7-.3,1.3ZM257.2,6.1c0-.3.2-.5.5-.5h1.2c.3,0,.5.2.5.5v6.8c0,.3-.2.5-.5.5h-1.2c-.3,0-.5-.2-.5-.5v-2.4h-.6c-.2,0-.3,0-.4.2-.1.1-.2.3-.2.4v1.8c0,.3-.2.5-.5.5h-1.2c-.3,0-.5-.2-.5-.5v-6.6c0-.3.2-.5.5-.5h1.2c.3,0,.5.2.5.5v2.4c.1-.2.3-.3.6-.3h.6v-2.2Z"/>
  </g>
  <g>
    <path class="cls-1" d="M131,69.2c-.8,0-1.6,0-2.4,0-.8,0-1.7,0-2.8,0-1,0-2.2,0-3.6,0-1.4,0-3.1,0-5.1,0s-3.1,0-4.2,0c-1.1,0-2,.1-2.6.2-.6,0-1.1.2-1.3.4-.2.1-.4.3-.4.6s.1.4.4.6c.3.1.8.3,1.6.3.8,0,1.9.1,3.3.1,1.4,0,3.3,0,5.5,0s1.9,0,3,0c1.1,0,2.3,0,3.4-.2,1.2,0,2.2-.2,3.3-.2,1,0,1.9-.2,2.7-.4.8-.1,1.2.2,1.2.9l.2,2.5c0,.7-.3,1.1-1,1.1-.8.1-1.7.2-2.8.3-1.1,0-2.2.2-3.4.2-1.2,0-2.3.1-3.5.2-1.1,0-2.2,0-3.1,0-3.3,0-6,0-8.2-.2-2.2-.2-4-.5-5.3-.9-1.3-.4-2.3-1-2.9-1.8-.6-.7-.9-1.7-.9-2.9s.3-2.1.9-2.8c.6-.7,1.5-1.3,2.7-1.8,1.2-.4,2.7-.7,4.6-.9,1.9-.2,4-.2,6.5-.2s2.5,0,3.8,0c1.3,0,2.5,0,3.7,0s1.6-.3,1.6-.9-.5-.9-1.5-.9-2.8,0-4.6,0c-1.8,0-3.6,0-5.5.2-1.9,0-3.8.2-5.6.2-1.8,0-3.4.2-4.6.3-.8,0-1.1-.3-1.1-1.1v-2.5c0-.7.4-1,1.1-1.1,1.3,0,2.6-.2,4.1-.3v-.6c0-.7.3-1.2.9-1.5-1.8,0-3.5,0-4.9,0-1.5,0-2.9-.1-4.2-.2-.5,0-.8-.2-1.1-.4-.2-.2-.3-.5-.3-.9v-2.3c0-.8.5-1.3,1.4-1.2,1.5.1,3.1.2,4.9.2,1.8,0,3.9,0,6.3,0s2.2,0,3.3,0c1.2,0,2.3,0,3.3,0,1.1,0,2,0,2.9-.1.9,0,1.5,0,2-.1.9,0,1.4.3,1.4,1.2v2.3c0,.4-.1.7-.3.9-.2.2-.6.3-1.1.4-.7,0-1.6.1-2.9.2-1.3,0-2.5,0-3.7.1-1,0-1.5.4-1.5,1.3v.7c2.3,0,4.5,0,6.8-.1,2.3,0,4.4,0,6.6,0,1.4,0,2.5.3,3.2.9.8.5,1.1,1.3,1.1,2.3s-.2,1.6-.7,2.2c-.5.6-1.1,1-1.9,1.3h1.1c.3,0,.6,0,.8.3.2.2.3.4.3.7v2.3c0,.3-.1.6-.3.8-.2.2-.5.3-.8.3ZM101.2,43.4c0-4.6,3.4-6.9,10.1-6.9s10.1,2.3,10.1,6.9-3.4,6.9-10.1,6.9-10.1-2.3-10.1-6.9ZM111.2,45.4c2.5,0,3.8-.7,3.8-2.1s-1.3-2.1-3.8-2.1-3.8.7-3.8,2.1,1.3,2.1,3.8,2.1ZM125.8,46.1c-.2.3-.5.5-.9.7-.3.1-.7.2-1.1.2h-.6c-.8,0-1.3-.4-1.3-1.3v-3.4c0-.8.4-1.3,1.3-1.3h.7c.6,0,1.1-.1,1.4-.4.3-.3.4-.7.4-1.3v-1.9c0-1,.5-1.4,1.4-1.4h3.5c1,0,1.4.5,1.4,1.4v18c0,1-.5,1.4-1.4,1.4h-3.5c-1,0-1.4-.5-1.4-1.4v-9.3Z"/>
    <path class="cls-1" d="M157.6,46.2l-6.3,3.4c-.2.1-.4.2-.7.2s-.5-.1-.7-.3c-.2-.2-.3-.5-.3-.8v-4c0-.4,0-.8.3-1,.2-.2.5-.5.9-.7l6.6-3.7c.4-.2.8-.4,1.2-.5.4,0,.9-.1,1.3-.1h2.5c1,0,1.4.5,1.4,1.4v31.6c0,1-.5,1.4-1.4,1.4h-3.5c-1,0-1.4-.5-1.4-1.4v-25.5Z"/>
    <path class="cls-1" d="M169.6,55.8c0-6,1.2-10.4,3.5-13.3,2.3-2.9,5.7-4.4,10.3-4.4s8,1.5,10.3,4.4c2.3,2.9,3.5,7.3,3.5,13.3s-1.2,10.4-3.5,13.3c-2.3,2.9-5.7,4.4-10.3,4.4s-8-1.5-10.3-4.4-3.5-7.3-3.5-13.3ZM175.9,55.8c0,4,.6,6.9,1.8,8.8,1.2,1.9,3.1,2.8,5.7,2.8s4.4-.9,5.7-2.8c1.2-1.9,1.8-4.8,1.8-8.8s-.6-6.9-1.8-8.8c-1.2-1.9-3.1-2.8-5.7-2.8s-4.4.9-5.7,2.8c-1.2,1.9-1.8,4.8-1.8,8.8Z"/>
    <path class="cls-1" d="M216.5,40.1c.7-1,1.7-1.5,2.9-1.5h3.2c1.7,0,2.5.8,2.5,2.5v18.9h3.3c.9,0,1.4.5,1.4,1.4v3.4c0,.9-.5,1.4-1.4,1.4h-3.3v5.4c0,1-.5,1.4-1.4,1.4h-3.5c-1,0-1.4-.5-1.4-1.4v-5.4h-15.1c-1.7,0-2.6-.8-2.6-2.5v-1.9c0-.3,0-.6.2-1,.1-.3.3-.7.5-1l14.7-19.6ZM218.8,60.1v-13.2l-9.9,13.2h9.9Z"/>
    <path class="cls-1" d="M238.7,57.9c-1.8,0-3.3-.5-4.3-1.4-1-.9-1.6-2.1-1.6-3.7v-13.3c0-1.7.8-2.5,2.5-2.5h11.1c2,0,3.6.6,4.8,1.8,1.2,1.2,1.8,2.9,1.8,5.1s-.4,3.6-1.2,5.1c-.8,1.6-1.9,2.7-3.3,3.4h2.8c.9,0,1.4.5,1.4,1.4v2.8c0,.9-.5,1.4-1.4,1.4h-12.6ZM246.7,75.9c-3.4,0-6-.8-7.8-2.3-1.8-1.5-2.7-3.6-2.7-6.4s0-2,0-2.6c0-.6.1-1.2.2-1.7,0-.5.2-.8.4-1.1.2-.2.6-.4,1-.4h3.5c.5,0,.8.1,1.1.4.3.2.4.6.3,1.1,0,.7-.2,1.2-.2,1.7,0,.5,0,1,0,1.6,0,2.5,1.6,3.7,5,3.7s5.4,0,8.1-.2c2.6-.1,5.1-.3,7.5-.6.4,0,.8,0,1,.3.2.3.3.6.4,1.1l.2,3.2c0,.8-.4,1.3-1.4,1.4-1.1.1-2.2.2-3.4.3-1.2.1-2.4.2-3.8.2-1.3,0-2.8.1-4.3.2-1.5,0-3.2,0-5,0ZM243,52.2c1.1,0,2-.5,2.7-1.5.7-1,1-2.3,1-3.8s-.3-2.3-.8-3.1c-.6-.7-1.4-1.1-2.5-1.1h-2.9c-.9,0-1.4.5-1.4,1.4v6.4c0,.5.2.9.5,1.2.4.3.9.5,1.5.5h1.8ZM263.5,61.9c0,1-.5,1.4-1.4,1.4h-3.5c-1,0-1.4-.5-1.4-1.4v-24.5c0-1,.5-1.4,1.4-1.4h3.5c1,0,1.4.5,1.4,1.4v9.9c.2-.4.6-.7,1.1-.9.5-.2,1-.3,1.6-.3h1.4c.9,0,1.4.5,1.4,1.4v3.2c0,.9-.5,1.4-1.4,1.4h-1.6c-.8,0-1.4.2-1.8.7-.5.5-.7,1-.7,1.7v7.6Z"/>
    <path class="cls-1" d="M299.5,60.7c-1.1,0-1.6.5-1.6,1.4v2.8c0,1-.5,1.4-1.4,1.4h-3.5c-.4,0-.6,0-.9-.2,0,.2,0,.4,0,.5,0,.2,0,.4,0,.5,0,1.9,1.1,2.9,3.4,2.9s3.5,0,5.3,0c1.8,0,3.6-.1,5.3-.2,1.7,0,3.3-.2,4.8-.2,1.5,0,2.9-.2,4-.3.5,0,.8,0,1.1.3.3.2.5.6.5,1.1l.2,3.1c0,.9-.4,1.4-1.3,1.4-1.4.1-2.9.3-4.6.4-1.7,0-3.4.2-5.2.2-1.8,0-3.6.1-5.5.2-1.9,0-3.7,0-5.6,0-2.9,0-5.1-.7-6.6-2.1-1.5-1.4-2.3-3.4-2.3-6s0-1.3,0-1.8.1-.9.2-1.3c.2-1,.7-1.4,1.4-1.4h3.5c.3,0,.5,0,.7.1v-1.1c0-.8.3-1.3,1-1.5-1.7,0-3.2,0-4.7,0-1.5,0-2.8-.1-4.2-.2-1,0-1.4-.6-1.4-1.4v-2.6c0-.9.5-1.4,1.4-1.3,1.5.1,3.1.2,4.8.2,1.8,0,3.8,0,6.3,0s2.1,0,3.3,0,2.2,0,3.3,0c1.1,0,2,0,2.8-.1.8,0,1.5,0,2-.1,1,0,1.5.4,1.5,1.3v2.6c0,.8-.5,1.3-1.4,1.4-.3,0-.7,0-1.2,0-.5,0-1.1,0-1.7,0-.6,0-1.2,0-1.9,0-.6,0-1.3,0-1.9,0ZM284.6,44.9c0-5.6,3.4-8.5,10.3-8.5s10.3,2.8,10.3,8.5-3.4,8.5-10.3,8.5-10.3-2.8-10.3-8.5ZM294.9,48.1c2.7,0,4-1.1,4-3.2s-1.3-3.2-4-3.2-4,1.1-4,3.2,1.3,3.2,4,3.2ZM309.2,66c-.2.4-.6.7-1.1,1-.5.2-1,.4-1.6.4h-4c-.9,0-1.4-.5-1.4-1.4v-2.5c0-.9.5-1.4,1.4-1.4h4.2c.8,0,1.4-.2,1.8-.7.5-.5.7-1,.7-1.7v-22.3c0-1,.5-1.4,1.4-1.4h3.5c1,0,1.4.5,1.4,1.4v28.9c0,1-.5,1.4-1.4,1.4h-3.5c-1,0-1.4-.5-1.4-1.4v-.3Z"/>
  </g>
  <path class="cls-2" d="M81.9,55.3c0,0-1.3-1.6-3.3-1.6s-1.4.2-2.1.5l1.1-5.7c0-.1,0-.3-.1-.4,0-.1-.2-.2-.4-.2-4,0-5.3,1-7.7,4.6l-4.1,7.6c-.7-.9-2-2.1-4.2-2.1s-7.7,1.2-8.7,1.4l-8.5-4.2c-.7-.7-5.9-5.9-13.4-5.9s-17.1,12.1-17.9,13.3l-10.1,7.2c-.1.1-.2.3-.2.5,0,.2.1.3.3.4l20.4,8.7c0,0,.1,0,.2,0,.2,0,.3,0,.4-.2,0,0,4.2-7,9.8-7s5.5.6,9.1,1.3c4.1.8,8.3,1.6,11.3,1.6s17.2-7,17.7-7.3c0,0,0,0,.1-.1l10.2-11.7c.2-.2.2-.5,0-.6"/>
  <path class="cls-2" d="M52.3,44.5h5.8c10.7,0,19.5-8.7,19.5-19.5s-8.7-19.5-19.5-19.5h-5.8c-10.7,0-19.5,8.7-19.5,19.5s8.7,19.5,19.5,19.5"/>
  <path class="cls-3" d="M43.1,13.4h-5.6M40.1,19.2h-5.6M39.2,24.9h-5.6M40.1,30.7h-5.6M43.1,36.5h-5.6M43.1,13.4h-5.6M40.1,19.2h-5.6M39.2,24.9h-5.6M40.1,30.7h-5.6M43.1,36.5h-5.6M2.8,70.2l10.2-7.3s8.7-13.1,17.5-13.1,13.1,5.8,13.1,5.8l8.8,4.4s5.6-1.5,8.8-1.5,4.4,2.9,4.4,2.9c0,0-9.1,5.8-13.1,5.8s-11.7-2.9-11.7-2.9M23.2,78.9s4.3-7.3,10.2-7.3,14.8,2.9,20.4,2.9,17.5-7.3,17.5-7.3l10.2-11.7s-1.2-1.5-2.9-1.5c-3.8,0-10.5,7.3-13.1,7.3M75.8,55l1.3-6.7c-3.7,0-4.9.8-7.3,4.4l-4.4,8.1M77.1,25c0-10.5-8.5-19-19-19s-19,8.5-19,19,8.5,19,19,19,19-8.5,19-19ZM45.1,25c0-3.4,1.3-6.4,3.3-8.7M71.3,25c0,3.1-1.1,6-2.9,8.2M58.2,6.1h-5.8c-10.5,0-19,8.5-19,19s8.5,19,19,19h5.8"/>
</svg>