<svg width="34" height="46" viewBox="0 0 34 46" fill="none" xmlns="http://www.w3.org/2000/svg">
<g clip-path="url(#clip0_123_3253)">
<path d="M18.7681 30.6725C18.7681 30.6725 20.1536 15.6629 28.7641 8.28711C28.7641 8.28711 27.6081 12.0782 27.5996 30.5865C27.5996 41.0399 18.7681 30.6725 18.7681 30.6725Z" fill="#8BB32F"/>
<path d="M25.3128 31.7984C25.3128 35.6067 22.1508 38.0137 19.1163 38.0137L16.8808 39.6213C13.8463 39.6213 11.1943 35.9506 11.1943 32.1423C11.1943 32.1423 11.1943 16.0582 11.3218 11.0378C11.4578 5.80255 13.6508 0.0170898 17.9688 0.0170898C23.0773 0.0170898 25.0578 7.4101 25.0578 11.2098C25.0578 16.2301 25.3043 31.807 25.3043 31.807L25.3128 31.7984Z" fill="#F5D419"/>
<path d="M15.5632 4.17795C15.5632 4.62497 15.1722 4.98602 14.6792 4.98602H14.3562C13.8632 4.98602 13.4722 4.62497 13.4722 4.17795C13.4722 3.73093 13.8717 3.36987 14.3562 3.36987H14.6792C15.1722 3.36987 15.5632 3.73093 15.5632 4.17795Z" fill="#FCE540"/>
<path d="M15.5464 7.8058C15.5464 8.28721 15.1129 8.68265 14.5859 8.68265H14.2374C13.7019 8.68265 13.2769 8.28721 13.2769 7.8058C13.2769 7.32439 13.7019 6.92896 14.2374 6.92896H14.5859C15.1129 6.92896 15.5464 7.32439 15.5464 7.8058Z" fill="#FCE540"/>
<path d="M15.5293 11.4249C15.5293 11.9493 15.0703 12.3705 14.5008 12.3705H14.1268C13.5573 12.3705 13.0898 11.9493 13.0898 11.4249C13.0898 10.9005 13.5573 10.4792 14.1268 10.4792H14.5008C15.0703 10.4792 15.5293 10.9005 15.5293 11.4249Z" fill="#FCE540"/>
<path d="M15.512 15.0525C15.512 15.6113 15.019 16.0669 14.407 16.0669H13.999C13.387 16.0669 12.894 15.6113 12.894 15.0525C12.894 14.4937 13.387 14.0381 13.999 14.0381H14.407C15.019 14.0381 15.512 14.4937 15.512 15.0525Z" fill="#FCE540"/>
<path d="M15.4952 18.6718C15.4952 19.2649 14.9682 19.7549 14.3137 19.7549H13.8802C13.2257 19.7549 12.6987 19.2735 12.6987 18.6718C12.6987 18.0786 13.2257 17.5886 13.8802 17.5886H14.3137C14.9682 17.5886 15.4952 18.07 15.4952 18.6718Z" fill="#FCE540"/>
<path d="M15.4784 22.2994C15.4784 22.9355 14.9174 23.4513 14.2204 23.4513H13.7614C13.0729 23.4513 12.5034 22.9355 12.5034 22.2994C12.5034 21.6633 13.0644 21.1475 13.7614 21.1475H14.2204C14.9174 21.1475 15.4784 21.6633 15.4784 22.2994Z" fill="#FCE540"/>
<path d="M15.4529 25.9187C15.4529 26.5892 14.8579 27.1308 14.1269 27.1308H13.6424C12.9029 27.1308 12.3164 26.5892 12.3164 25.9187C12.3164 25.2481 12.9114 24.7065 13.6424 24.7065H14.1269C14.8664 24.7065 15.4529 25.2481 15.4529 25.9187Z" fill="#FCE540"/>
<path d="M15.4444 29.5377C15.4444 30.2426 14.8154 30.8186 14.0419 30.8186H13.5319C12.7584 30.8186 12.1294 30.2426 12.1294 29.5377C12.1294 28.8328 12.7584 28.2568 13.5319 28.2568H14.0419C14.8154 28.2568 15.4444 28.8328 15.4444 29.5377Z" fill="#FCE540"/>
<path d="M15.4271 33.1653C15.4271 33.9132 14.7641 34.515 13.9481 34.515H13.4126C12.5966 34.515 11.9336 33.9132 11.9336 33.1653C11.9336 32.4174 12.5966 31.8157 13.4126 31.8157H13.9481C14.7641 31.8157 15.4271 32.4174 15.4271 33.1653Z" fill="#FCE540"/>
<path d="M15.4016 36.7846C15.4016 37.5669 14.7046 38.2031 13.8546 38.2031H13.2936C12.4351 38.2031 11.7466 37.5669 11.7466 36.7846C11.7466 36.0024 12.4436 35.3662 13.2936 35.3662H13.8546C14.7131 35.3662 15.4016 36.0024 15.4016 36.7846Z" fill="#FCE540"/>
<path d="M15.3848 40.4122C15.3848 41.2289 14.6538 41.8994 13.7613 41.8994H13.1748C12.2738 41.8994 11.5513 41.2375 11.5513 40.4122C11.5513 39.5956 12.2738 38.925 13.1748 38.925H13.7613C14.6623 38.925 15.3848 39.587 15.3848 40.4122Z" fill="#FCE540"/>
<path d="M20.7568 4.50455C20.7568 4.95157 21.1478 5.30403 21.6238 5.30403H21.9383C22.4228 5.30403 22.8138 4.94298 22.8138 4.50455C22.8138 4.06613 22.4228 3.70508 21.9383 3.70508H21.6238C21.1393 3.70508 20.7568 4.06613 20.7568 4.50455Z" fill="#FCE540"/>
<path d="M20.7739 8.0892C20.7739 8.5706 21.1989 8.95745 21.7174 8.95745H22.0574C22.5759 8.95745 23.0009 8.5706 23.0009 8.0892C23.0009 7.60779 22.5759 7.22095 22.0574 7.22095H21.7174C21.1989 7.22095 20.7739 7.60779 20.7739 8.0892Z" fill="#FCE540"/>
<path d="M20.791 11.6655C20.791 12.1813 21.2415 12.6026 21.8025 12.6026H22.168C22.729 12.6026 23.188 12.1813 23.188 11.6655C23.188 11.1497 22.729 10.7285 22.168 10.7285H21.8025C21.2415 10.7285 20.791 11.1497 20.791 11.6655Z" fill="#FCE540"/>
<path d="M20.8076 15.2501C20.8076 15.8003 21.2921 16.2473 21.8956 16.2473H22.2951C22.8986 16.2473 23.3831 15.8003 23.3831 15.2501C23.3831 14.6999 22.8986 14.2529 22.2951 14.2529H21.8956C21.2921 14.2529 20.8076 14.6999 20.8076 15.2501Z" fill="#FCE540"/>
<path d="M20.8247 18.8265C20.8247 19.411 21.3432 19.8924 21.9892 19.8924H22.4142C23.0602 19.8924 23.5787 19.411 23.5787 18.8265C23.5787 18.2333 23.0602 17.7605 22.4142 17.7605H21.9892C21.3517 17.7605 20.8247 18.2333 20.8247 18.8265Z" fill="#FCE540"/>
<path d="M20.8418 22.4111C20.8418 23.0387 21.3943 23.5458 22.0743 23.5458H22.5248C23.2048 23.5458 23.7658 23.0387 23.7658 22.4111C23.7658 21.7836 23.2133 21.2764 22.5248 21.2764H22.0743C21.3943 21.2764 20.8418 21.7836 20.8418 22.4111Z" fill="#FCE540"/>
<path d="M20.8589 25.9872C20.8589 26.6491 21.4454 27.1907 22.1679 27.1907H22.6439C23.3664 27.1907 23.9529 26.6577 23.9529 25.9872C23.9529 25.3253 23.3664 24.7837 22.6439 24.7837H22.1679C21.4454 24.7837 20.8589 25.3167 20.8589 25.9872Z" fill="#FCE540"/>
<path d="M20.876 29.572C20.876 30.2684 21.488 30.8357 22.253 30.8357H22.7545C23.5195 30.8357 24.1315 30.2684 24.1315 29.572C24.1315 28.8671 23.511 28.3083 22.7545 28.3083H22.253C21.488 28.3083 20.876 28.8757 20.876 29.572Z" fill="#FCE540"/>
<path d="M20.8931 33.1481C20.8931 33.8874 21.5476 34.4806 22.3466 34.4806H22.8736C23.6811 34.4806 24.3271 33.8788 24.3271 33.1481C24.3271 32.4088 23.6811 31.8157 22.8736 31.8157H22.3466C21.5391 31.8157 20.8931 32.4088 20.8931 33.1481Z" fill="#FCE540"/>
<path d="M20.9097 36.733C20.9097 37.5067 21.5897 38.1343 22.4312 38.1343H22.9837C23.8252 38.1343 24.5137 37.5067 24.5137 36.733C24.5137 35.9593 23.8337 35.3318 22.9837 35.3318H22.4312C21.5897 35.3318 20.9097 35.9593 20.9097 36.733Z" fill="#FCE540"/>
<path d="M20.9268 40.3091C20.9268 41.1172 21.6408 41.7791 22.5248 41.7791H23.1028C23.9868 41.7791 24.7008 41.1172 24.7008 40.3091C24.7008 39.501 23.9868 38.8391 23.1028 38.8391H22.5248C21.6408 38.8391 20.9268 39.501 20.9268 40.3091Z" fill="#FCE540"/>
<path d="M19.3292 2.67353C19.3292 3.16353 18.9212 3.55037 18.4197 3.55037H18.0882C17.5867 3.55037 17.1787 3.15493 17.1787 2.67353C17.1787 2.18353 17.5867 1.78809 18.0882 1.78809H18.4197C18.9212 1.78809 19.3292 2.18353 19.3292 2.67353Z" fill="#FCE540"/>
<path d="M19.4141 6.66222C19.4141 7.19521 18.9806 7.61644 18.4366 7.61644H18.0796C17.5356 7.61644 17.1021 7.18661 17.1021 6.66222C17.1021 6.13783 17.5441 5.70801 18.0796 5.70801H18.4366C18.9806 5.70801 19.4141 6.13783 19.4141 6.66222Z" fill="#FCE540"/>
<path d="M19.4993 10.6512C19.4993 11.2186 19.0318 11.6828 18.4453 11.6828H18.0628C17.4763 11.6828 17.0088 11.2186 17.0088 10.6512C17.0088 10.0838 17.4763 9.61963 18.0628 9.61963H18.4453C19.0318 9.61963 19.4993 10.0838 19.4993 10.6512Z" fill="#FCE540"/>
<path d="M19.5925 14.6485C19.5925 15.2588 19.0825 15.7488 18.462 15.7488H18.0455C17.425 15.7488 16.915 15.2502 16.915 14.6485C16.915 14.0381 17.425 13.5481 18.0455 13.5481H18.462C19.091 13.5481 19.5925 14.0381 19.5925 14.6485Z" fill="#FCE540"/>
<path d="M19.6861 18.6372C19.6861 19.2905 19.1421 19.8149 18.4791 19.8149H18.0371C17.3656 19.8149 16.8301 19.2905 16.8301 18.6372C16.8301 17.9925 17.3741 17.4595 18.0371 17.4595H18.4791C19.1421 17.4595 19.6861 17.9925 19.6861 18.6372Z" fill="#FCE540"/>
<path d="M19.7713 22.6347C19.7713 23.3224 19.1933 23.8812 18.4878 23.8812H18.0203C17.3063 23.8812 16.7368 23.3224 16.7368 22.6347C16.7368 21.947 17.3063 21.3882 18.0203 21.3882H18.4878C19.2018 21.3882 19.7713 21.947 19.7713 22.6347Z" fill="#FCE540"/>
<path d="M19.8562 26.632C19.8562 27.3627 19.2527 27.9558 18.5047 27.9558H18.0117C17.2637 27.9558 16.6602 27.3627 16.6602 26.632C16.6602 25.9013 17.2637 25.3081 18.0117 25.3081H18.5047C19.2527 25.3081 19.8562 25.9013 19.8562 26.632Z" fill="#FCE540"/>
<path d="M19.9496 30.6209C19.9496 31.3946 19.3121 32.0135 18.5131 32.0135H17.9946C17.2041 32.0135 16.5581 31.386 16.5581 30.6209C16.5581 29.8472 17.2041 29.2283 17.9946 29.2283H18.5131C19.3036 29.2283 19.9496 29.8558 19.9496 30.6209Z" fill="#FCE540"/>
<path d="M20.0348 34.6097C20.0348 35.4177 19.3633 36.0797 18.5303 36.0797H17.9778C17.1448 36.0797 16.4648 35.4177 16.4648 34.6097C16.4648 33.8016 17.1448 33.1396 17.9778 33.1396H18.5303C19.3633 33.1396 20.0348 33.8016 20.0348 34.6097Z" fill="#FCE540"/>
<path d="M20.1284 38.6069C20.1284 39.458 19.4144 40.1457 18.5389 40.1457H17.9609C17.0854 40.1457 16.3799 39.458 16.3799 38.6069C16.3799 37.7559 17.0939 37.0596 17.9609 37.0596H18.5389C19.4144 37.0596 20.1284 37.7473 20.1284 38.6069Z" fill="#FCE540"/>
<path d="M20.2217 42.6044C20.2217 43.4985 19.4737 44.2206 18.5642 44.2206H17.9607C17.0427 44.2206 16.3032 43.4985 16.3032 42.6044C16.3032 41.7104 17.0427 40.9883 17.9607 40.9883H18.5642C19.4822 40.9883 20.2217 41.7104 20.2217 42.6044Z" fill="#FCE540"/>
<path d="M7.922 34.0851C7.786 20.8207 0 17.7517 0 17.7517C0 17.7517 10.0215 17.683 12.053 24.9212C15.742 38.0309 21.4965 35.5465 22.9925 35.323L16.83 45.8538C16.83 45.8538 8.075 47.4441 7.9305 34.0765L7.922 34.0851Z" fill="#8BB32F"/>
<path d="M33.9999 23.5975C33.9999 23.5975 33.3454 23.5201 32.4019 23.6405C16.5154 24.7494 13.9824 45.6991 13.9824 45.6991C13.9824 45.6991 15.7504 46.2321 20.3149 45.8711C23.2389 45.639 27.3954 44.0314 27.5569 36.5352C27.7779 26.142 32.0874 24.0789 33.5494 23.6834C33.8299 23.6147 33.9999 23.5889 33.9999 23.5889V23.5975Z" fill="#A2C259"/>
</g>
<defs>
<clipPath id="clip0_123_3253">
<rect width="34" height="46" fill="white"/>
</clipPath>
</defs>
</svg>
