<?xml version="1.0" encoding="UTF-8"?>
<svg id="_레이어_1" data-name=" 레이어 1" xmlns="http://www.w3.org/2000/svg" version="1.1" viewBox="0 0 136.1 99.2">
  <defs>
    <style>
      .cls-1 {
        fill: #fac78a;
      }

      .cls-1, .cls-2, .cls-3, .cls-4, .cls-5 {
        stroke-width: 0px;
      }

      .cls-2 {
        fill: #d9d9d9;
      }

      .cls-3 {
        fill: #edad6e;
      }

      .cls-4 {
        fill: #52c76e;
      }

      .cls-5 {
        fill: #fff;
      }
    </style>
  </defs>
  <path class="cls-5" d="M66.3,97.7c-11.7-.3-21.8-6.1-31.5-12.7-.3-.2-.5-.4-.8-.6-10.8-9.6-16.2-32.2-10.8-45.6.8-2,1.7-4,2.5-6C35.3,9.4,64.7,0,85.9,10.5c12.5,6.2,21.9,14.9,26.3,28,11.4,33.7-14.1,61.3-45.9,59.2"/>
  <path class="cls-4" d="M67.2,83.1h.1c1.3.1,2.6.2,3.9.2,17.5,0,27.9-9.6,29.3-27.1,1.3-16-7.7-28.3-24.7-34-3-1-6.2-1.5-9.5-1.5-9.8,0-19.3,4.3-23.8,10.8-9.4,13.7-9.8,29.5-1.2,40.3,1,1.2,2.1,2.3,3.3,3,6.9,4.3,14.3,8.3,22,8.3h0c.2,0,.4,0,.6,0h.1ZM71.2,87.6c-1.3,0-2.7,0-4.1-.2-.2,0-.4,0-.6,0h0c-8.7,0-16.8-4.3-24.3-9-1.6-1-3.1-2.4-4.4-3.9-4.8-6.1-7.3-13.6-7.1-21.8.2-8.1,3-16.3,8.1-23.7,5.3-7.7,16-12.7,27.3-12.7s7.5.6,10.9,1.7c9.4,3.1,16.6,8.1,21.4,14.7,4.8,6.6,6.9,14.8,6.2,23.7-.8,9.8-4.1,17.5-10,22.9-5.9,5.5-13.8,8.2-23.6,8.2"/>
  <path class="cls-2" d="M132.1,26c-.3,2.4-1.3,5-3.2,7-3.3,3.4-8.1,3.1-11.1-.7-3.4-4.3-3.8-11.2-.3-16,3.5-4.9,9.4-4.7,12.7.4,1.6,2.4,2.4,5.8,2,9.4"/>
  <path class="cls-2" d="M125.8,72.7c-.7,4.5-1.9,6.4-2.9,4.1-.9-1.9-1.2-5.4-1.3-9.4-.2-5.4.2-6.5.3-11.8.2-7,.2-18.2.8-24.8,0-1.2.1-3,1.2-2.9,1.1.1,1.2,4.8,1.3,6.5.7,9.3.2,20,.4,31,0,2.2.6,4.3.2,7.3"/>
  <path class="cls-1" d="M127.1,88.6c-1.1,3.2-3.2,4.6-4.9,2.9-1.5-1.4-2-3.9-2.3-6.8-.3-3.9-.2-7.7.1-11.5.4-5,.5-10,1.5-14.7.2-.8.5-2.2,2.4-2.1,1.9,0,2.3,3.4,2.5,4.7,1.2,6.7,1.3,13.6,1.7,21.5.1,1.6-.2,3.9-.9,6"/>
  <path class="cls-3" d="M122.4,84.8c.3-.7,1.1-1.1,1.8-.9.7.2,1.1,1.1.9,1.8-.2.7-1.1,1.1-1.8.8-.7-.3-1.1-1.1-.9-1.8"/>
  <path class="cls-3" d="M122.4,63c.3-.7,1.1-1.1,1.8-.9.7.2,1.1,1.1.9,1.8-.2.7-1.1,1.1-1.8.8-.7-.3-1.1-1.1-.9-1.8"/>
  <path class="cls-2" d="M13.9,72.7c-.7,4.5-1.9,6.4-2.9,4.1-.9-1.9-1.2-5.4-1.3-9.4-.2-5.4.2-6.5.3-11.8.2-7,.2-18.2.8-24.8,0-1.2.1-3,1.2-2.9,1.1.1,1.2,4.8,1.3,6.5.7,9.3.2,20,.4,31,0,2.2.6,4.3.2,7.3"/>
  <path class="cls-1" d="M15.2,88.6c-1.1,3.2-3.2,4.6-4.9,2.9-1.5-1.4-2-3.9-2.3-6.8-.3-3.9-.2-7.7.1-11.5.4-5,.5-10,1.5-14.7.2-.8.5-2.2,2.4-2.1,1.9,0,2.3,3.4,2.5,4.7,1.2,6.7,1.3,13.6,1.7,21.5.1,1.6-.2,3.9-.9,6"/>
  <path class="cls-3" d="M10.5,84.8c.3-.7,1.1-1.1,1.8-.9.7.2,1.1,1.1.9,1.8-.2.7-1.1,1.1-1.8.8-.7-.3-1.1-1.1-.9-1.8"/>
  <path class="cls-3" d="M10.5,63c.3-.7,1.1-1.1,1.8-.9.7.2,1.1,1.1.9,1.8-.2.7-1.1,1.1-1.8.8-.7-.3-1.1-1.1-.9-1.8"/>
  <path class="cls-2" d="M18.9,25c0-.9-.1-1.9-.2-2.8-.3-1.8-.6-3.7-1.2-5.4-.1-.3-.2-.6-.4-.9-.2-.3-.5-.4-.8-.3-.4.1-.7.4-.9.8-.2.4-.3.9-.4,1.4-.5,2-.7,4.1-.8,6.5,0-.7-.1-1.4-.2-2.1-.3-1.8-.6-3.7-1.2-5.4-.1-.3-.2-.6-.4-.9-.2-.3-.5-.4-.8-.3-.4.1-.7.4-.9.8-.2.4-.3.9-.4,1.4-.5,2-.7,4.1-.8,6.5,0-.7-.1-1.4-.2-2.1-.3-1.8-.6-3.7-1.2-5.4-.1-.3-.2-.6-.4-.9-.2-.3-.5-.4-.8-.3-.4.1-.7.4-.9.8-.2.4-.3.9-.4,1.4-.6,2.5-.8,5-.9,7.9,0,.2,0,.3,0,.5,0,1.2.3,2.7.5,3.5.4,1.7,1.4,3.1,2.8,4.3.8.7,1.5,1.5,2.5,2.1,1.5.9,2.9.9,4.1-.3,1.3-1.2,2.4-2.5,3.2-4,.4-.7.7-1.4.9-2.2.2-.9.4-2.8.2-4.7"/>
  <path class="cls-4" d="M66.4,34.4c-.3,0-.6.2-1,.2-.9.2-1.6.5-2.2.9-.2,0-.3.2-.5.3-.4.2-.8.7-1.4,1.5-.7,1-.8,1.9-.4,3,.4,1,1.1,1.5,2.1,1.5s1,0,1.2-.1c.2,0,.6-.4,1-.9.5-.6.8-.9,1-.9s.3,0,.5-.2c.8-.4,1.5-.3,2.2.4.6.7.7,1.4.2,2.2-.4.6-1.1,1.1-2.3,1.8-1.1.6-2.2,1.1-3.1,1.2-.9.2-1.5.8-1.8,1.8-.3,1,0,1.9.6,2.6.3.4.7.6,1.1.7.4.1,1.1.2,2.1.2s1.8,0,2.2.2.9.6,1.6,1.3c.8.8,1.3,1.5,1.6,2.1.2.6.3,1.3,0,2-.2.5-.3.9-.4,1-.2.2-.3.4-.4.6-.7,1.2-2.2,1.7-4.4,1.7s-2.5-.3-2.7-1c-.1-.6-.4-1.1-1-1.6s-1.1-.7-1.7-.7-1.1.1-1.5.4c-.9.7-1.1,1.9-.7,3.4.5,1.7,1.5,3,3.2,3.8.9.4,1.5.7,2,.8.5,0,1.2.1,2.3.1,1.1,0,2-.1,2.7-.3.7-.2,1.5-.5,2.6-1,.6-.3,1.4-.8,2.2-1.5.8-.7,1.2-1.1,1.2-1.3s0-.2.2-.4c.2-.2.3-.4.3-.6,0-.2.2-.4.4-.6.2-.3.2-.6.3-1.1,0-.4.2-.8.3-1.1.2-.3.2-.8.3-1.6,0-.8,0-1.3-.2-1.5,0-.2-.2-.6-.3-1.1,0-.5-.2-.9-.3-1-.1-.2-.2-.4-.4-.6-.2-.6-1-1.5-2.2-2.7-.7-.7-1.1-1.2-1.1-1.4,0-.2,0-.5.5-.9.4-.4.6-.6.6-.7s.2-.4.5-.9c.4-.6.6-1.1.6-1.5,0-.4.2-.8.3-1,.1-.2.2-.6.2-.9s0-.7-.2-.9c-.1-.2-.2-.5-.2-.9,0-1-.6-2-1.5-3.1-.2-.2-.7-.5-1.3-.9-.7-.4-1.2-.7-1.7-.9-1.1-.4-2.2-.4-3.3-.1"/>
</svg>