<svg width="164" height="154" viewBox="0 0 164 154" fill="none" xmlns="http://www.w3.org/2000/svg">
<g clip-path="url(#clip0_123_3343)">
<path d="M153.38 44.1502C156.25 58.1802 168.96 86.8902 160.85 101.53C155.84 110.56 141.75 110.93 128.91 118C120.94 122.39 114.68 131.97 107.64 139.94C80.78 170.32 26.26 142.8 28.15 113.62C29.4 94.2902 7.78004 93.0402 1.35004 56.8602C-5.07996 20.6802 25.41 6.54017 51.26 11.9702C70.16 15.9402 73.25 0.200175 92.45 0.000174682C105.05 -0.129825 145.25 4.45018 153.38 44.1402" fill="white"/>
<path d="M115.16 82.2002C109.84 101.35 90.0098 112.56 70.8598 107.25C51.7098 101.93 40.4998 82.1002 45.8098 62.9502C51.1298 43.8002 70.9598 32.5902 90.1098 37.9002C109.26 43.2202 120.47 63.0502 115.16 82.2002Z" fill="#FFE366"/>
<path d="M81.9198 42.7598C75.1098 43.1198 67.9698 43.8498 61.9798 47.3898C56.6398 50.5598 52.7398 55.6698 51.9998 61.9098C51.8298 63.2998 53.2998 64.4898 54.5798 64.4898C56.1098 64.4898 56.9998 63.2998 57.1598 61.9098C57.7098 57.2898 61.3898 53.5698 65.2998 51.4498C70.3398 48.7198 76.2998 48.2298 81.9198 47.9298C85.2198 47.7498 85.2498 42.5898 81.9198 42.7698" fill="#FFED9E"/>
<path d="M72.1198 98.9198C77.2498 99.8598 82.4098 99.8398 87.5398 98.8598C88.8698 98.6098 89.7498 96.9398 89.3398 95.6898C88.8798 94.2698 87.5898 93.6098 86.1598 93.8898C85.5898 93.9998 85.0198 94.0898 84.4498 94.1798C84.2698 94.2098 84.2698 94.2098 84.4798 94.1798C84.2998 94.1998 84.1298 94.2198 83.9498 94.2398C83.6898 94.2698 83.4198 94.2998 83.1498 94.3198C82.0398 94.4198 80.9298 94.4798 79.8198 94.4798C77.4898 94.4798 75.4098 94.2898 73.4798 93.9398C72.1598 93.6998 70.6298 94.2998 70.2998 95.7398C70.0098 96.9998 70.6798 98.6598 72.0998 98.9098" fill="#FFED9E"/>
<path d="M84.0099 149.1C89.6799 149 95.2699 147.51 99.7499 143.91C103.97 140.51 106.78 135.71 109.58 131.16C111.28 128.4 112.98 125.65 114.69 122.89C116.22 120.41 117.63 117.72 119.95 115.87C124.47 112.27 130.54 110.8 135.82 108.71C141.52 106.45 146.89 103.56 150.69 98.62C151.35 97.76 150.82 96.38 149.97 95.88C148.94 95.28 147.89 95.74 147.23 96.6C140.51 105.34 128.02 105.89 119.22 111.51C114.3 114.65 111.72 120.08 108.75 124.9C105.89 129.53 103.26 134.58 99.5499 138.61C95.4499 143.07 89.9899 144.99 84.0099 145.1C81.4399 145.15 81.4299 149.15 84.0099 149.1Z" fill="#FFF7DE"/>
<path d="M17.47 32.9C14.29 38.65 9.13001 43.4 8.17001 50.17C7.65001 53.89 8.14001 57.79 8.93001 61.44C9.69001 64.94 11.01 68.35 13.12 71.26C13.75 72.13 14.86 72.56 15.86 71.98C16.72 71.48 17.21 70.12 16.58 69.24C14.65 66.57 13.49 63.57 12.8 60.37C12.1 57.16 11.59 53.58 12.18 50.32C13.26 44.4 18.11 40.01 20.93 34.91C22.18 32.66 18.73 30.64 17.48 32.89" fill="#FFF7DE"/>
<path d="M140.85 37.99C149.26 44.7 149.52 56.18 149.11 66.03C149 68.6 153 68.6 153.11 66.03C153.56 55.19 152.9 42.52 143.68 35.17C142.84 34.5 141.67 34.35 140.85 35.17C140.15 35.87 140 37.32 140.85 38" fill="#FFF7DE"/>
<path d="M100.35 73.24C100.43 73.2 100.79 73.19 101.45 73.21C102.1 73.23 102.46 73.27 102.52 73.32C102.58 73.37 102.6 74.03 102.59 75.3C102.58 76.57 102.55 77.24 102.49 77.3C102.41 77.38 102.02 77.41 101.34 77.4C100.65 77.4 100.28 77.36 100.24 77.3C100.2 77.22 100.19 76.54 100.21 75.26C100.21 74.3 100.21 73.73 100.22 73.57C100.22 73.4 100.27 73.29 100.35 73.25M101.46 60.59C101 60.63 100.32 60.67 99.4201 60.71C98.4201 60.75 97.7601 60.8 97.4401 60.86C97.1201 60.92 96.8501 61.05 96.6301 61.25C96.2101 61.61 96.0301 62.05 96.1101 62.57C96.1801 63.09 96.4601 63.47 96.9601 63.71C97.2801 63.83 98.0701 63.83 99.3301 63.71C100.21 63.61 101.03 63.55 101.79 63.54C102.55 63.53 102.96 63.56 103.02 63.64C103.12 63.78 103.15 64.05 103.11 64.45C103.07 64.85 102.99 65.08 102.87 65.14C102.79 65.2 101.74 65.28 99.7201 65.38C98.4001 65.46 97.5401 65.54 97.1501 65.62C96.7601 65.7 96.4401 65.88 96.2101 66.16C95.9501 66.44 95.7601 67.02 95.6501 67.91C95.5401 68.8 95.5501 69.73 95.6601 70.72C95.7201 71.26 95.8801 71.73 96.1601 72.15C96.4301 72.56 96.7201 72.76 97.0501 72.76C97.1501 72.76 97.2001 72.86 97.2201 73.06C97.2201 73.26 97.2401 73.94 97.2601 75.1V75.64C97.2601 76.58 97.2301 77.13 97.1801 77.28C97.1301 77.43 96.9701 77.49 96.7201 77.45C96.6401 77.43 96.5801 77.42 96.5401 77.42C96.0201 77.34 95.4901 77.32 94.9501 77.36C94.4101 77.4 94.0701 77.48 93.9301 77.6C93.4101 78.02 93.1701 78.49 93.2201 79C93.2701 79.51 93.5801 79.9 94.1601 80.18C94.3401 80.28 96.7101 80.33 101.27 80.33C105.83 80.33 108.24 80.28 108.5 80.18C109.24 79.96 109.65 79.54 109.73 78.92C109.81 78.3 109.53 77.8 108.89 77.42C108.77 77.34 108.64 77.3 108.49 77.28C108.34 77.26 107.88 77.28 107.13 77.29H105.6L105.57 75.37V74.98C105.57 74.12 105.58 73.62 105.61 73.48C105.64 73.34 105.76 73.25 105.99 73.21C106.05 73.19 106.09 73.18 106.11 73.18C106.35 73.14 106.5 73.1 106.56 73.06C106.6 73.04 106.66 73.01 106.74 72.97C107.24 72.75 107.52 72.37 107.6 71.83C107.67 71.29 107.48 70.86 107.04 70.54C106.78 70.34 106.51 70.22 106.23 70.19C105.95 70.16 104.93 70.15 103.17 70.15C100.35 70.15 98.8601 70.07 98.7001 69.91C98.6401 69.85 98.6001 69.6 98.5901 69.16C98.5801 68.72 98.6001 68.48 98.6601 68.44C98.7201 68.38 99.4401 68.34 100.82 68.32C101.7 68.32 102.38 68.31 102.86 68.28C103.34 68.25 103.77 68.21 104.15 68.16C104.53 68.11 104.81 68.01 104.99 67.86C105.17 67.71 105.32 67.54 105.44 67.36C105.56 67.18 105.68 66.91 105.8 66.55C105.9 66.25 105.95 65.4 105.95 64.01C105.95 62.62 105.9 61.82 105.8 61.59C105.56 61.11 105.2 60.8 104.72 60.66C104.52 60.6 104.05 60.56 103.32 60.54C102.59 60.52 101.96 60.53 101.44 60.57M71.2001 63.6C70.6401 63.78 70.3001 64.13 70.1801 64.65C70.0601 65.17 70.2101 65.63 70.6301 66.03C70.8701 66.25 71.1101 66.38 71.3501 66.42C71.5901 66.46 72.1801 66.48 73.1201 66.48C74.2401 66.48 74.8401 66.52 74.9201 66.6C74.9801 66.66 74.8801 66.91 74.6201 67.35C74.4801 67.61 74.3401 67.84 74.2001 68.04C74.1601 68.16 74.1201 68.23 74.0801 68.25C74.0601 68.27 73.9501 68.45 73.7501 68.79C73.4501 69.27 73.0801 69.86 72.6401 70.56C72.6001 70.62 72.5501 70.69 72.5101 70.77C72.4601 70.85 72.4101 70.92 72.3701 70.96C72.3301 71.01 72.3101 71.04 72.3101 71.07C72.0301 71.51 71.8801 71.74 71.8601 71.76C71.8001 71.8 71.7201 71.94 71.6201 72.18C71.5801 72.26 71.5501 72.31 71.5301 72.33C71.4501 72.39 71.2501 72.71 70.9301 73.29C70.7101 73.71 70.6601 74.1 70.7601 74.47C70.8701 74.84 71.1201 75.12 71.5301 75.32C71.9701 75.52 72.3701 75.51 72.7301 75.29C73.0901 75.07 73.5601 74.52 74.1401 73.64C74.4001 73.28 74.5801 73.03 74.6801 72.89C74.8801 72.65 74.9801 72.51 74.9801 72.48C74.9801 72.45 75.0101 72.38 75.0701 72.26C75.1501 72.18 75.2101 72.14 75.2501 72.14C75.3501 72.14 75.7701 72.6 76.5101 73.52C77.6501 74.98 78.6501 75.34 79.5101 74.6C79.7101 74.42 79.8501 74.16 79.9301 73.84C80.0101 73.51 79.9901 73.26 79.8701 73.08C79.8101 72.98 79.7801 72.91 79.7801 72.87C79.7801 72.77 79.5601 72.48 79.1201 72C78.8201 71.64 78.4201 71.19 77.9201 70.65C77.8201 70.53 77.6601 70.35 77.4401 70.11C77.1401 69.77 76.9801 69.53 76.9601 69.39C76.9401 69.25 77.0301 69 77.2301 68.64C77.4101 68.36 77.5201 68.16 77.5601 68.04C77.5801 68.04 77.6601 67.9 77.8001 67.62C77.9201 67.4 77.9901 67.28 78.0201 67.24C78.0501 67.21 78.1901 66.97 78.4201 66.51C78.4801 66.39 78.5201 66.32 78.5401 66.3C78.5601 66.28 78.6201 66.18 78.7201 66C78.9401 65.52 78.9501 65.04 78.7501 64.56C78.5501 64.08 78.2201 63.76 77.7601 63.6C77.6001 63.54 76.5001 63.51 74.4701 63.51C72.4401 63.51 71.3501 63.54 71.1901 63.6M89.1601 61.56C88.8601 61.38 88.5201 61.33 88.1401 61.41C87.7601 61.49 87.4901 61.64 87.3301 61.86C87.1701 62.08 87.0601 62.46 87.0001 63.01C86.9401 63.56 86.9001 64.51 86.8801 65.84C86.8801 67.58 86.8601 68.47 86.8301 68.51C86.8001 68.55 86.6801 68.57 86.4501 68.57C86.2201 68.57 86.0501 68.56 85.9101 68.54C85.7901 68.5 85.5001 68.46 85.0401 68.42C84.6001 68.4 84.3701 68.37 84.3501 68.33C84.3101 68.29 84.3001 67.43 84.3201 65.75C84.3201 64.47 84.3201 63.71 84.3101 63.47C84.3001 63.23 84.2401 63.02 84.1401 62.84C83.8601 62.28 83.4501 62 82.8901 62C82.3301 62 81.9201 62.28 81.6201 62.84C81.4801 63.12 81.3801 64.75 81.3201 67.73C81.3001 69.05 81.2701 70.95 81.2301 73.43C81.2101 75.03 81.2601 76.07 81.3801 76.55C81.5001 77.03 81.7901 77.38 82.2501 77.6C82.4301 77.66 82.6301 77.69 82.8301 77.7C83.0301 77.71 83.1601 77.69 83.2101 77.63C83.2301 77.59 83.2901 77.55 83.3901 77.51C83.5901 77.45 83.7801 77.25 83.9601 76.91C84.0401 76.75 84.0801 76.55 84.1001 76.3C84.1001 76.05 84.1301 75.29 84.1401 74.01C84.1601 72.27 84.2001 71.38 84.2601 71.34C84.4001 71.26 84.7601 71.26 85.3401 71.34C85.5801 71.38 85.8801 71.42 86.2401 71.46L86.8101 71.49V72.45C86.8101 73.05 86.7901 73.6 86.7501 74.1C86.6701 74.68 86.6401 75.49 86.6601 76.54C86.6801 77.59 86.7201 78.18 86.7801 78.32C86.8401 78.46 86.9501 78.61 87.1101 78.77C87.2701 78.93 87.3901 79.01 87.4701 79.01C87.5501 79.01 87.6101 79.03 87.6501 79.07C87.8501 79.29 88.1801 79.28 88.6201 79.03C89.0601 78.78 89.3601 78.46 89.4701 78.06C89.5701 77.8 89.6501 75.5 89.7101 71.16C89.7501 68.4 89.7901 66.43 89.8301 65.25C89.8501 63.95 89.8601 63.17 89.8601 62.92C89.8601 62.67 89.8301 62.49 89.7701 62.36C89.6901 62.18 89.6501 62.08 89.6501 62.06C89.6501 62.02 89.5801 61.93 89.4401 61.79C89.3001 61.65 89.2001 61.57 89.1401 61.55M55.2101 72.44C54.7501 72.54 54.4201 72.77 54.2201 73.13C54.0201 73.49 53.9801 73.87 54.1201 74.27C54.2601 74.67 54.5301 74.96 54.9501 75.14C55.1501 75.22 55.4601 75.27 55.8901 75.29C56.3201 75.31 57.5101 75.34 59.4501 75.38C61.8301 75.42 63.0601 75.46 63.1401 75.5C63.2001 75.54 63.2401 75.61 63.2401 75.71C63.2501 75.81 63.2401 76.11 63.2301 76.61C63.1501 78.91 63.0801 80.22 63.0201 80.54C62.9201 81.06 63.0501 81.48 63.4101 81.82C63.7701 82.16 64.1901 82.28 64.6801 82.2C65.1701 82.12 65.5301 81.83 65.7501 81.33C66.0301 80.71 66.1401 78.96 66.0801 76.08C66.0601 74.88 66.0301 74.15 66.0001 73.88C65.9701 73.61 65.8601 73.37 65.6801 73.14C65.6601 73.1 65.6301 73.06 65.5901 73.02C65.3901 72.76 65.1201 72.6 64.7801 72.56C64.4401 72.51 63.3401 72.48 61.4801 72.45H60.6701C58.0501 72.43 56.5101 72.41 56.0501 72.39C55.7701 72.37 55.4901 72.39 55.2101 72.45M57.0701 59.19C56.5901 59.37 56.1101 59.86 55.6301 60.66C55.5101 60.82 55.4501 60.92 55.4501 60.96C55.2101 61.24 54.9701 61.58 54.7301 61.98C54.6901 62.04 54.6401 62.12 54.5801 62.21C54.5201 62.3 54.4701 62.37 54.4301 62.43C54.3901 62.49 54.3601 62.54 54.3401 62.58C54.2601 62.68 54.2201 62.74 54.2201 62.76C54.2201 62.78 54.1601 62.87 54.0401 63.03C53.9201 63.19 53.8601 63.28 53.8601 63.32C53.8601 63.36 53.7801 63.49 53.6201 63.75C53.4001 64.05 53.1801 64.39 52.9601 64.77C52.9401 64.81 52.8301 64.98 52.6301 65.28C52.0901 66.1 51.7301 66.66 51.5501 66.96C51.4501 67.14 51.3601 67.29 51.2801 67.41C51.2001 67.53 51.1301 67.7 51.0701 67.92C50.9501 68.32 51.0301 68.7 51.3101 69.06C51.5901 69.42 51.9401 69.6 52.3601 69.6C52.9401 69.6 53.4701 69.26 53.9501 68.58C54.2101 68.22 54.3501 68.02 54.3701 67.98C54.4301 67.92 54.5001 67.82 54.5801 67.68C54.7801 67.34 55.0901 66.9 55.5101 66.36C55.5901 66.24 55.6901 66.21 55.8101 66.28C55.9301 66.35 56.2001 66.6 56.6201 67.02C57.5001 67.86 58.0401 68.37 58.2401 68.55C58.4401 68.73 58.6701 68.87 58.9301 68.97C59.1501 69.07 59.4001 69.12 59.6701 69.12C59.9401 69.12 60.1101 69.07 60.2001 68.97C60.2401 68.91 60.2901 68.88 60.3501 68.88C60.4901 68.88 60.6501 68.73 60.8301 68.43C61.0301 68.07 61.0801 67.73 60.9801 67.41C60.8801 67.09 60.6101 66.72 60.1701 66.3C58.3101 64.58 57.3801 63.65 57.3801 63.51C57.3801 63.45 57.4101 63.37 57.4701 63.27C57.8101 62.67 58.0201 62.34 58.1001 62.28C58.1401 62.24 58.2501 62.07 58.4401 61.75C58.6301 61.44 58.7601 61.22 58.8201 61.11C59.0801 60.59 58.9901 60.09 58.5601 59.61C58.1301 59.13 57.6401 58.99 57.0801 59.19M64.7601 58.62C64.4001 58.86 64.1801 59.13 64.1001 59.43C64.0201 59.73 63.9801 60.45 63.9801 61.59C63.9801 62.91 63.9601 63.74 63.9201 64.07C63.8801 64.4 63.8501 65.46 63.8301 67.26C63.8101 68.58 63.8101 69.36 63.8301 69.6C63.8501 69.84 63.8901 70.02 63.9501 70.14C64.2901 70.64 64.7201 70.89 65.2501 70.89C65.7801 70.89 66.2101 70.63 66.5301 70.11C66.6101 69.97 66.6601 69.51 66.6801 68.73C66.7001 68.09 66.7301 67.37 66.7701 66.57C66.8301 65.49 66.8501 64.04 66.8501 62.22C66.8401 60.4 66.8001 59.43 66.7401 59.31C66.5601 58.97 66.2501 58.73 65.8201 58.57C65.3901 58.41 65.0401 58.44 64.7601 58.61" fill="#231815"/>
</g>
<defs>
<clipPath id="clip0_123_3343">
<rect width="163.04" height="153.18" fill="white" transform="translate(0.47998)"/>
</clipPath>
</defs>
</svg>
