<?xml version="1.0" encoding="UTF-8"?>
<svg id="_레이어_2" data-name="레이어 2" xmlns="http://www.w3.org/2000/svg" xmlns:xlink="http://www.w3.org/1999/xlink" viewBox="0 0 360 864">
  <defs>
    <style>
      .cls-1 {
        clip-path: url(#clippath);
      }

      .cls-2 {
        fill: none;
      }

      .cls-2, .cls-3, .cls-4, .cls-5 {
        stroke-width: 0px;
      }

      .cls-3 {
        fill: #f2e9d8;
      }

      .cls-3, .cls-4, .cls-5 {
        fill-rule: evenodd;
      }

      .cls-4 {
        fill: #877254;
      }

      .cls-5 {
        fill: #d2c5b4;
      }
    </style>
    <clipPath id="clippath">
      <rect class="cls-2" width="360" height="864"/>
    </clipPath>
  </defs>
  <g id="_레이어_1-2" data-name="레이어 1">
    <g class="cls-1">
      <g>
        <path class="cls-3" d="M-2,75.43v732.14c0,31.04,22.35,56.43,49.66,56.43h260.69c27.31,0,49.65-25.39,49.65-56.43V75.43c0-31.04-22.35-56.43-49.65-56.43H47.66c-27.31,0-49.66,25.39-49.66,56.43Z"/>
        <path class="cls-4" d="M56,39.5c0,4.7,3.58,8.5,8,8.5s8-3.8,8-8.5-3.58-8.5-8-8.5-8,3.81-8,8.5Z"/>
        <path class="cls-4" d="M101,39.5c0,4.7,3.81,8.5,8.5,8.5s8.5-3.8,8.5-8.5-3.81-8.5-8.5-8.5-8.5,3.81-8.5,8.5Z"/>
        <path class="cls-4" d="M147,39.5c0,4.7,3.58,8.5,8,8.5s8-3.8,8-8.5-3.58-8.5-8-8.5-8,3.81-8,8.5Z"/>
        <path class="cls-4" d="M193,39.5c0,4.7,3.58,8.5,8,8.5s8-3.8,8-8.5-3.58-8.5-8-8.5-8,3.81-8,8.5Z"/>
        <path class="cls-4" d="M239,39.5c0,4.7,3.58,8.5,8,8.5s8-3.8,8-8.5-3.58-8.5-8-8.5-8,3.81-8,8.5Z"/>
        <path class="cls-4" d="M284,39.5c0,4.7,3.8,8.5,8.5,8.5s8.5-3.8,8.5-8.5-3.8-8.5-8.5-8.5-8.5,3.81-8.5,8.5Z"/>
        <path class="cls-5" d="M59,4.4v35.19c0,.77.9,1.4,2,1.4s2-.63,2-1.4V4.4c0-.77-.9-1.4-2-1.4s-2,.63-2,1.4Z"/>
        <path class="cls-5" d="M64,4.4v35.19c0,.77,1.12,1.4,2.5,1.4s2.5-.63,2.5-1.4V4.4c0-.77-1.12-1.4-2.5-1.4s-2.5.63-2.5,1.4Z"/>
        <path class="cls-5" d="M105,4.4v35.19c0,.77.9,1.4,2,1.4s2-.63,2-1.4V4.4c0-.77-.9-1.4-2-1.4s-2,.63-2,1.4Z"/>
        <path class="cls-5" d="M111,4.4v35.19c0,.77.67,1.4,1.5,1.4s1.5-.63,1.5-1.4V4.4c0-.77-.67-1.4-1.5-1.4s-1.5.63-1.5,1.4Z"/>
        <path class="cls-5" d="M151,4.4v35.19c0,.77.67,1.4,1.5,1.4s1.5-.63,1.5-1.4V4.4c0-.77-.67-1.4-1.5-1.4s-1.5.63-1.5,1.4Z"/>
        <path class="cls-5" d="M156,4.4v35.19c0,.77.9,1.4,2,1.4s2-.63,2-1.4V4.4c0-.77-.9-1.4-2-1.4s-2,.63-2,1.4Z"/>
        <path class="cls-5" d="M196,4.4v35.19c0,.77,1.12,1.4,2.5,1.4s2.5-.63,2.5-1.4V4.4c0-.77-1.12-1.4-2.5-1.4s-2.5.63-2.5,1.4Z"/>
        <path class="cls-5" d="M201,4.4v35.19c0,.77,1.12,1.4,2.5,1.4s2.5-.63,2.5-1.4V4.4c0-.77-1.12-1.4-2.5-1.4s-2.5.63-2.5,1.4Z"/>
        <path class="cls-5" d="M242,4.4v35.19c0,.77.9,1.4,2,1.4s2-.63,2-1.4V4.4c0-.77-.9-1.4-2-1.4s-2,.63-2,1.4Z"/>
        <path class="cls-5" d="M248,4.4v35.19c0,.77.67,1.4,1.5,1.4s1.5-.63,1.5-1.4V4.4c0-.77-.67-1.4-1.5-1.4s-1.5.63-1.5,1.4Z"/>
        <path class="cls-5" d="M288,4.4v35.19c0,.77.67,1.4,1.5,1.4s1.5-.63,1.5-1.4V4.4c0-.77-.67-1.4-1.5-1.4s-1.5.63-1.5,1.4Z"/>
        <path class="cls-5" d="M293,4.4v35.19c0,.77.9,1.4,2,1.4s2-.63,2-1.4V4.4c0-.77-.9-1.4-2-1.4s-2,.63-2,1.4Z"/>
      </g>
    </g>
  </g>
</svg>