<?xml version="1.0" encoding="UTF-8"?>
<svg id="_레이어_1" data-name=" 레이어 1" xmlns="http://www.w3.org/2000/svg" version="1.1" viewBox="0 0 71.4 70.9">
  <defs>
    <style>
      .cls-1 {
        fill: #282629;
      }

      .cls-1, .cls-2 {
        stroke-width: 0px;
      }

      .cls-3 {
        fill: none;
        stroke: #282629;
        stroke-linecap: round;
        stroke-linejoin: round;
        stroke-width: 1.5px;
      }

      .cls-2 {
        fill: #8db5e1;
      }
    </style>
  </defs>
  <path class="cls-1" d="M45.6,57.4c0,6.4-5.2,11.6-11.6,11.6s-11.6-5.2-11.6-11.6,5.2-11.6,11.6-11.6,11.6,5.2,11.6,11.6"/>
  <path class="cls-2" d="M64,28.8c-2-14.7-14.6-26.1-29.8-26.1S4.1,16.3,4.1,33s13.5,30.3,30.1,30.3,6.5-2.9,6.5-6.5-2.9-6.5-6.5-6.5c-9.4,0-17.1-7.8-17.1-17.3s7.7-17.3,17.1-17.3,14.7,5.6,16.5,13.1"/>
  <path class="cls-3" d="M64,28.8c-2-14.7-14.6-26.1-29.8-26.1S4.1,16.3,4.1,33s13.5,30.3,30.1,30.3,6.5-2.9,6.5-6.5-2.9-6.5-6.5-6.5c-9.4,0-17.1-7.8-17.1-17.3s7.7-17.3,17.1-17.3,14.7,5.6,16.5,13.1"/>
</svg>