<svg width="300" height="301" viewBox="0 0 300 301" fill="none" xmlns="http://www.w3.org/2000/svg">
<g clip-path="url(#clip0_102_7465)">
<g clip-path="url(#clip1_102_7465)">
<path d="M299.284 40.0781V268.299C299.284 285.533 284.637 299.506 266.574 299.506H33.4255C15.3625 299.506 0.715576 285.543 0.715576 268.299V32.1715C0.715576 14.9469 15.3625 0.984131 33.4255 0.984131H266.584C284.647 0.984131 299.294 14.9469 299.294 32.1715V40.0781H299.284Z" fill="#CAF1EB"/>
<path d="M299.284 40.0781V268.299C299.284 285.533 284.637 299.506 266.574 299.506H33.4255C15.3625 299.506 0.715576 285.543 0.715576 268.299V32.1715C0.715576 14.9469 15.3625 0.984131 33.4255 0.984131H266.584C284.647 0.984131 299.294 14.9469 299.294 32.1715V40.0781H299.284Z" stroke="black" stroke-width="1.5" stroke-linecap="round" stroke-linejoin="round"/>
<path d="M122.405 1.99512L96.1545 209.205H192.824L163.273 1.99512H122.405Z" fill="white"/>
<path d="M248.397 152.505L254.275 140.526C255.239 138.571 257.653 137.817 259.552 138.886C260.764 139.572 261.489 140.869 261.489 142.214C261.489 142.653 261.403 143.111 261.241 143.549L255.153 159.668L252.157 158.79C245.191 151.933 234.294 152.543 234.294 152.543L230.048 151.666L233.254 136.272C233.674 134.231 235.611 132.839 237.691 133.106C239.714 133.373 241.193 135.09 241.193 137.083C241.193 137.255 241.193 137.436 241.174 137.608L239.609 149.52L244.304 135.166C244.972 133.192 247.071 132.066 249.075 132.648C250.783 133.125 251.889 134.689 251.889 136.377C251.889 136.663 251.87 136.94 251.804 137.226L248.388 152.515L248.397 152.505Z" fill="#FFD8CD"/>
<path d="M177.624 208.337C175.668 203.34 170.2 200.583 164.952 202.128L156.889 204.484C154.351 205.218 152.347 206.821 151.031 208.881C148.588 210.13 146.546 212.104 145.22 214.584L141.651 221.308C140.573 223.33 138.855 224.932 136.813 225.915C136.832 225.876 136.832 225.848 136.832 225.81C133.559 225.123 131.097 222.224 131.097 218.743C131.097 217.474 131.45 216.31 132.013 215.28C131.279 215.614 130.487 215.786 129.618 215.786C126.307 215.786 123.616 213.096 123.616 209.787C123.616 206.706 125.935 204.188 128.931 203.855C128.826 203.435 128.76 202.996 128.76 202.538C128.76 199.639 131.097 197.293 134.008 197.293C134.733 197.293 135.42 197.436 136.05 197.712C135.782 197.131 135.63 196.501 135.63 195.834C135.63 193.316 137.672 191.275 140.191 191.275C140.277 191.275 140.363 191.313 140.458 191.313C141.183 188.852 143.435 187.04 146.126 187.04C148.817 187.04 150.916 188.709 151.727 191.036C152.643 188.137 155.334 186 158.54 186C162.328 186 165.391 188.919 165.668 192.619C167.004 191.351 168.798 190.559 170.792 190.559C174.895 190.559 178.206 193.869 178.206 197.951V197.97C179.065 197.55 180.019 197.302 181.021 197.302C182.29 197.302 183.435 197.674 184.437 198.285C184.752 195.013 187.462 192.457 190.83 192.457C194.389 192.457 197.271 195.338 197.271 198.914C197.271 201.146 196.126 203.139 194.389 204.284C196.136 205.552 197.271 207.574 197.271 209.892C197.271 211.074 196.956 212.181 196.422 213.163C200.449 213.163 203.721 216.434 203.721 220.459C203.721 224.484 200.449 227.774 196.403 227.774C195.945 227.774 195.506 227.717 195.067 227.631C194.714 227.565 194.361 227.469 194.027 227.345C194.008 228.843 193.426 230.111 192.5 231.027C191.412 232.104 189.838 232.715 188.101 232.715C187.137 231.885 185.83 231.628 184.637 231.942C186.059 231.217 188.492 229.863 188.073 226.773C187.901 225.485 187.071 224.312 185.887 223.778C185.305 223.511 184.657 223.387 184.017 223.425C184.16 223.32 184.303 223.235 184.456 223.111C186.25 221.699 186.584 219.095 185.162 217.283C184.227 216.091 182.786 215.538 181.374 215.719C181.584 215.614 181.775 215.509 181.975 215.366C183.454 214.289 184.103 212.286 183.435 210.578C182.471 208.099 179.752 207.25 177.662 208.328L177.624 208.337Z" fill="white"/>
<path d="M179.962 241.308C181.479 240.688 183.092 240.374 184.676 239.935C183.655 243.139 181.403 245.39 177.949 246.411L169.886 248.766C166.613 249.73 163.235 249.014 160.697 247.117C160.697 247.117 170.372 245.266 179.952 241.308H179.962Z" fill="#6DD6C9"/>
<path d="M164.952 202.128C170.2 200.583 175.668 203.34 177.624 208.337C177.395 208.461 177.166 208.604 176.956 208.757C176.956 208.757 162.08 214.632 154.008 214.842C152.157 214.899 150.63 213.421 150.63 211.571C150.63 210.741 150.716 209.797 151.031 208.881C152.347 206.821 154.361 205.219 156.889 204.484L164.952 202.128Z" fill="#6DD6C9"/>
<path d="M192.462 231.027V299.544H114.265V262.09C124.857 257.198 139.628 250.407 146.813 247.088C148.941 246.125 151.336 245.753 153.626 246.315C156.632 247.04 158.254 247.403 160.716 247.107C163.254 249.005 166.632 249.73 169.905 248.757L177.968 246.401C181.422 245.381 183.674 243.13 184.695 239.925C185.239 239.763 185.783 239.611 186.336 239.401C186.956 239.153 187.376 238.962 187.71 238.752C189.561 237.608 190.029 235.443 188.855 233.612C188.645 233.259 188.378 232.963 188.082 232.715C189.828 232.715 191.393 232.095 192.481 231.027H192.462Z" fill="#FFD8CD"/>
<path d="M228.626 158.59L230.048 151.656L234.294 152.534C234.294 152.534 245.191 151.914 252.157 158.781L255.153 159.658L260.63 152.953C261.88 151.427 264.199 151.303 265.573 152.724C266.202 153.373 266.536 154.222 266.536 155.08C266.536 155.71 266.346 156.368 265.954 156.95L262.853 161.47C260.353 165.133 258.33 169.11 256.04 172.887C254.771 174.994 252.586 178.533 250.162 180.469C248.33 181.928 247.157 184.036 246.603 186.325C244.456 195.471 239.599 216.215 237.033 227.155C235.973 231.714 233.426 235.805 229.781 238.781C225.821 242.014 221.012 243.635 216.231 243.635C210.582 243.635 205.229 241.136 200.811 237.035C198.349 234.746 196.374 230.636 195.019 227.622C195.458 227.708 195.897 227.765 196.355 227.765C200.401 227.765 203.674 224.494 203.674 220.45C203.674 216.406 200.401 213.154 196.374 213.154C196.899 212.171 197.223 211.065 197.223 209.882C197.223 207.565 196.078 205.533 194.342 204.274C196.088 203.13 197.223 201.146 197.223 198.905C197.223 195.338 194.342 192.448 190.783 192.448C187.424 192.448 184.714 194.994 184.389 198.275C183.388 197.655 182.242 197.293 180.973 197.293C179.971 197.293 179.017 197.541 178.159 197.961V197.941C178.159 193.859 174.847 190.55 170.744 190.55C168.76 190.55 166.956 191.342 165.62 192.61C165.334 188.919 162.281 185.991 158.492 185.991C155.286 185.991 152.596 188.118 151.679 191.027C150.868 188.709 148.683 187.031 146.078 187.031C143.473 187.031 141.136 188.843 140.41 191.303C140.325 191.303 140.239 191.265 140.143 191.265C137.624 191.265 135.582 193.306 135.582 195.824C135.582 196.492 135.744 197.121 136.002 197.703C135.372 197.417 134.685 197.283 133.96 197.283C131.059 197.283 128.712 199.62 128.712 202.529C128.712 202.987 128.779 203.425 128.884 203.845C125.888 204.179 123.569 206.697 123.569 209.777C123.569 213.087 126.26 215.776 129.571 215.776C130.429 215.776 131.221 215.605 131.966 215.271C131.403 216.311 131.05 217.474 131.05 218.733C131.05 222.214 133.512 225.123 136.784 225.8C136.784 225.838 136.784 225.867 136.765 225.905C138.807 224.923 140.534 223.321 141.603 221.299L145.172 214.575C146.489 212.095 148.531 210.121 150.983 208.871C150.668 209.787 150.582 210.741 150.582 211.561C150.582 213.411 152.109 214.889 153.96 214.832C162.042 214.622 176.908 208.747 176.908 208.747C177.118 208.585 177.347 208.452 177.576 208.328C179.666 207.25 182.386 208.099 183.349 210.579C184.017 212.286 183.368 214.289 181.889 215.366C181.699 215.509 181.498 215.614 181.288 215.719C182.7 215.548 184.141 216.091 185.076 217.283C186.498 219.095 186.164 221.699 184.37 223.111C184.208 223.235 184.075 223.321 183.931 223.425C184.561 223.387 185.22 223.511 185.802 223.778C186.985 224.303 187.805 225.486 187.987 226.773C188.407 229.873 185.983 231.227 184.552 231.942C185.744 231.628 187.052 231.885 188.015 232.715C188.311 232.963 188.578 233.259 188.788 233.611C189.971 235.443 189.494 237.608 187.643 238.752C187.309 238.962 186.889 239.153 186.269 239.401C185.725 239.61 185.181 239.773 184.628 239.925C183.044 240.364 181.422 240.679 179.914 241.299C170.344 245.257 160.658 247.107 160.658 247.107C158.197 247.403 156.575 247.04 153.569 246.315C151.279 245.753 148.884 246.125 146.756 247.088C139.571 250.416 124.809 257.207 114.208 262.09C112.166 263.025 110.286 263.883 108.645 264.637C104.389 266.611 99.5993 267.116 95.0096 266.077C90.0096 264.951 85.8016 262.157 82.8436 258.371C82.5573 257.999 82.2806 257.617 82.0134 257.226C78.1967 251.599 77.7196 244.351 80.2196 238.037L95.8302 198.504C99.5612 189.053 107.338 181.795 117.042 178.752L131.298 174.25C134.714 173.173 137.013 170.025 137.013 166.477V159.496C140.763 161.327 144.895 162.329 149.265 162.329C153.636 162.329 157.786 161.327 161.517 159.496V165.6C161.517 169.558 164.37 172.953 168.273 173.64L180.592 175.805C190.658 177.579 199.428 183.702 204.542 192.534L214.008 208.862L210.363 219.172L214.008 208.881V208.862L216.842 200.86L217.09 200.135L218.073 197.302L219.408 193.516L223.311 182.453C224.227 179.887 224.141 177.035 223.015 174.537C222.099 172.457 221.078 169.491 220.582 165.791C219.981 161.06 219.752 159.019 217.433 154.851C217.347 154.68 217.099 154.231 216.784 153.707C215.83 152 216.288 149.873 217.844 148.728C218.531 148.232 219.323 147.994 220.115 147.994C221.097 147.994 222.09 148.385 222.825 149.119C224.723 151.017 227.223 154.184 228.559 158.58L228.626 158.59ZM114.256 233.545V224.36L111.088 234.603L114.256 233.545Z" fill="#FFD8CD"/>
<path d="M216.889 200.86H216.908L214.074 208.862L216.889 200.86Z" fill="#FFD8CD"/>
<path d="M214.074 208.862V208.881L210.429 219.172L214.074 208.862Z" fill="#FFD8CD"/>
<path d="M180.334 124.341C184.275 124.341 187.462 127.546 187.462 131.466C187.462 135.385 184.275 138.59 180.334 138.59C179.628 138.59 178.96 138.485 178.311 138.294C178.979 135.567 179.351 132.715 179.351 129.749C179.351 129.043 179.332 128.356 179.294 127.67V127.631C179.332 127.403 179.437 126.191 179.456 124.408C179.742 124.351 180.038 124.341 180.334 124.341Z" fill="#FFD8CD"/>
<path d="M179.294 127.622C179.227 126.544 179.122 125.514 178.96 124.474C179.122 124.436 179.294 124.417 179.456 124.408C179.437 126.182 179.332 127.402 179.294 127.631V127.622Z" fill="black"/>
<path d="M178.96 124.475C176.641 108.976 164.265 97.1402 149.323 97.1402C134.38 97.1402 121.975 108.995 119.685 124.532C119.351 124.446 119.017 124.389 118.664 124.37C116.45 103.826 128.769 98.6662 128.769 98.6662H125.582C140.754 81.5179 157.471 92.5051 157.471 92.5051C176.183 89.7583 180.477 114.174 180.477 114.174L177.376 111.609C179.227 115.757 179.504 121.06 179.456 124.398C179.294 124.417 179.122 124.436 178.96 124.465V124.475Z" fill="black"/>
<path d="M158.807 133.507C159.898 133.507 160.782 132.623 160.782 131.532C160.782 130.442 159.898 129.558 158.807 129.558C157.716 129.558 156.832 130.442 156.832 131.532C156.832 132.623 157.716 133.507 158.807 133.507Z" fill="black"/>
<path d="M155.372 109.854C155.372 109.854 154.723 114.603 153.168 117.169C153.168 117.169 158.092 115.271 160 111.895C160 111.895 163.082 116.816 167.853 120.412C167.853 120.412 167.691 117.331 167.347 113.373C167.347 113.373 177.939 119.792 179.294 127.622V127.66C179.332 128.347 179.351 129.034 179.351 129.739C179.351 132.715 178.979 135.567 178.311 138.285C175.954 147.765 169.723 155.538 161.574 159.496C157.844 161.327 153.693 162.329 149.323 162.329C144.952 162.329 140.821 161.327 137.071 159.496C128.903 155.538 122.672 147.746 120.334 138.209C119.914 136.606 119.628 134.937 119.475 133.23C119.351 132.086 119.303 130.912 119.303 129.73C119.303 129.415 119.303 129.11 119.323 128.814C119.323 128.814 120.926 123.483 126.279 118.046C126.279 118.046 125.468 122.071 126.279 124.713C126.279 124.713 132.443 115.338 136.765 112.553C136.765 112.553 135.372 116.797 135.372 120.097C135.372 120.097 140.878 114.155 144.542 112.181L143.96 118.705C143.96 118.705 152.023 115.328 155.382 109.835L155.372 109.854ZM160.773 131.523C160.773 130.436 159.895 129.549 158.798 129.549C157.7 129.549 156.823 130.426 156.823 131.523C156.823 132.62 157.7 133.497 158.798 133.497C159.895 133.497 160.773 132.601 160.773 131.523ZM141.803 131.523C141.803 130.436 140.926 129.549 139.828 129.549C138.731 129.549 137.872 130.426 137.872 131.523C137.872 132.62 138.75 133.497 139.828 133.497C140.907 133.497 141.803 132.601 141.803 131.523Z" fill="#FFD8CD"/>
<path d="M139.838 129.558C140.926 129.558 141.813 130.436 141.813 131.532C141.813 132.629 140.935 133.507 139.838 133.507C138.741 133.507 137.882 132.61 137.882 131.532C137.882 130.455 138.76 129.558 139.838 129.558Z" fill="black"/>
<path d="M119.685 124.532C119.494 125.905 119.351 127.326 119.313 128.776C119.017 127.231 118.807 125.772 118.664 124.379C119.017 124.398 119.351 124.446 119.685 124.541V124.532Z" fill="black"/>
<path d="M149.323 97.1404C164.265 97.1404 176.641 108.976 178.96 124.475C179.122 125.514 179.227 126.554 179.294 127.622C177.939 119.792 167.347 113.373 167.347 113.373C167.7 117.331 167.853 120.412 167.853 120.412C163.082 116.826 160 111.895 160 111.895C158.101 115.271 153.168 117.169 153.168 117.169C154.714 114.603 155.372 109.854 155.372 109.854C152.013 115.338 143.95 118.724 143.95 118.724L144.532 112.2C140.868 114.174 135.363 120.116 135.363 120.116C135.363 116.807 136.756 112.572 136.756 112.572C132.424 115.347 126.269 124.732 126.269 124.732C125.458 122.09 126.269 118.066 126.269 118.066C120.916 123.502 119.313 128.833 119.313 128.833V128.776C119.351 127.336 119.485 125.905 119.685 124.532C121.975 108.995 134.38 97.1404 149.323 97.1404Z" fill="black"/>
<path d="M118.082 138.59C114.141 138.59 110.935 135.404 110.935 131.466C110.935 127.527 114.141 124.341 118.082 124.341C118.273 124.341 118.473 124.341 118.664 124.379C118.807 125.772 119.017 127.231 119.313 128.776V128.833C119.294 129.129 119.294 129.434 119.294 129.749C119.294 130.931 119.351 132.105 119.466 133.249C119.628 134.956 119.905 136.625 120.325 138.228C119.599 138.456 118.865 138.6 118.073 138.6L118.082 138.59Z" fill="#FFD8CD"/>
<path d="M188.063 232.724C189.809 232.724 191.374 232.104 192.462 231.036C193.397 230.121 193.979 228.852 193.988 227.355C194.322 227.479 194.675 227.565 195.029 227.641C195.467 227.727 195.906 227.784 196.364 227.784C200.41 227.784 203.683 224.513 203.683 220.469C203.683 216.425 200.41 213.173 196.383 213.173C196.908 212.19 197.233 211.084 197.233 209.901C197.233 207.584 196.088 205.552 194.351 204.293C196.097 203.149 197.233 201.165 197.233 198.924C197.233 195.357 194.351 192.467 190.792 192.467C187.433 192.467 184.723 195.013 184.399 198.294C183.397 197.674 182.252 197.312 180.983 197.312C179.981 197.312 179.027 197.56 178.168 197.979V197.96C178.168 193.878 174.857 190.569 170.754 190.569C168.769 190.569 166.966 191.361 165.63 192.629C165.343 188.938 162.29 186.01 158.502 186.01C155.296 186.01 152.605 188.137 151.689 191.046C150.878 188.728 148.693 187.05 146.088 187.05C143.483 187.05 141.145 188.862 140.42 191.322C140.334 191.322 140.248 191.284 140.153 191.284C137.633 191.284 135.591 193.325 135.591 195.843C135.591 196.511 135.754 197.14 136.011 197.722C135.382 197.436 134.695 197.302 133.969 197.302C131.069 197.302 128.721 199.639 128.721 202.548C128.721 203.006 128.788 203.444 128.893 203.864C125.897 204.198 123.578 206.716 123.578 209.796C123.578 213.106 126.269 215.795 129.58 215.795C130.439 215.795 131.231 215.624 131.975 215.29C131.412 216.33 131.059 217.493 131.059 218.752C131.059 222.233 133.521 225.142 136.794 225.819C136.794 225.857 136.794 225.886 136.775 225.924V225.981" stroke="black" stroke-width="1.5" stroke-linecap="round" stroke-linejoin="round"/>
<path d="M177.624 208.337C175.668 203.34 170.2 200.583 164.952 202.128L156.889 204.484C154.351 205.219 152.347 206.821 151.031 208.881" stroke="black" stroke-width="1.5" stroke-linecap="round" stroke-linejoin="round"/>
<path d="M160.706 247.107C163.244 249.005 166.622 249.73 169.895 248.757L177.958 246.401C181.412 245.381 183.664 243.13 184.685 239.925" stroke="black" stroke-width="1.5" stroke-linecap="round" stroke-linejoin="round"/>
<path d="M120.334 138.218C119.609 138.447 118.874 138.59 118.082 138.59C114.141 138.59 110.935 135.404 110.935 131.466C110.935 127.527 114.141 124.341 118.082 124.341C118.273 124.341 118.473 124.341 118.664 124.379" stroke="black" stroke-width="1.5" stroke-linecap="round" stroke-linejoin="round"/>
<path d="M179.456 124.408C179.742 124.351 180.038 124.341 180.334 124.341C184.275 124.341 187.462 127.546 187.462 131.466C187.462 135.385 184.275 138.59 180.334 138.59C179.628 138.59 178.96 138.485 178.311 138.294" stroke="black" stroke-width="1.5" stroke-linecap="round" stroke-linejoin="round"/>
<path d="M161.574 159.506V165.61C161.574 169.568 164.428 172.963 168.33 173.65L180.649 175.815C190.716 177.589 199.485 183.712 204.599 192.543L214.065 208.871V208.89" stroke="black" stroke-width="1.5" stroke-linecap="round" stroke-linejoin="round"/>
<path d="M137.071 159.506V166.487C137.071 170.044 134.761 173.192 131.355 174.26L117.099 178.762C107.405 181.804 99.6183 189.072 95.8874 198.514L80.2767 238.046C77.7767 244.36 78.2538 251.609 82.0706 257.236C82.3378 257.627 82.6145 258.008 82.9007 258.38C85.8587 262.167 90.0668 264.961 95.0668 266.086C99.6565 267.126 104.447 266.611 108.702 264.646C110.343 263.893 112.223 263.025 114.265 262.1C124.857 257.207 139.628 250.416 146.813 247.097C148.941 246.134 151.336 245.762 153.626 246.325C156.632 247.05 158.254 247.412 160.716 247.116C160.716 247.116 170.391 245.266 179.971 241.308C181.489 240.688 183.101 240.374 184.685 239.935C185.229 239.773 185.773 239.62 186.326 239.41C186.947 239.162 187.366 238.972 187.7 238.762C189.552 237.617 190.019 235.452 188.845 233.621C188.635 233.268 188.368 232.972 188.072 232.724C187.109 231.895 185.801 231.637 184.609 231.952" stroke="black" stroke-width="1.5" stroke-linecap="round" stroke-linejoin="round"/>
<path d="M178.311 138.285C175.954 147.765 169.723 155.538 161.574 159.496C157.844 161.327 153.693 162.329 149.323 162.329C144.952 162.329 140.821 161.327 137.071 159.496C128.903 155.538 122.672 147.746 120.334 138.209C119.914 136.606 119.628 134.937 119.475 133.23C119.351 132.086 119.303 130.912 119.303 129.73C119.303 129.415 119.303 129.11 119.323 128.814" stroke="black" stroke-width="1.5" stroke-linecap="round" stroke-linejoin="round"/>
<path d="M114.933 131.466C114.933 131.466 117.996 130.607 119.475 133.239" stroke="black" stroke-width="1.5" stroke-linecap="round" stroke-linejoin="round"/>
<path d="M183.769 131.466C183.769 131.466 180.744 130.607 179.246 133.239" stroke="black" stroke-width="1.5" stroke-linecap="round" stroke-linejoin="round"/>
<path d="M217.157 200.145L218.139 197.312L219.475 193.526L223.378 182.462C224.294 179.897 224.208 177.045 223.082 174.546C222.166 172.467 221.145 169.501 220.649 165.8C220.048 161.07 219.819 159.029 217.5 154.861C217.414 154.689 217.166 154.241 216.851 153.716C215.897 152.009 216.355 149.882 217.91 148.738C218.597 148.242 219.389 148.003 220.181 148.003C221.164 148.003 222.156 148.394 222.891 149.129C224.79 151.027 227.29 154.193 228.626 158.59L230.048 151.656L233.254 136.263C233.674 134.222 235.611 132.829 237.691 133.096C239.714 133.363 241.193 135.08 241.193 137.074C241.193 137.245 241.193 137.426 241.174 137.598L239.609 149.51L244.303 135.156C244.971 133.182 247.071 132.057 249.074 132.639C250.782 133.115 251.889 134.68 251.889 136.368C251.889 136.654 251.87 136.93 251.803 137.217L248.387 152.505L254.265 140.526C255.229 138.571 257.643 137.817 259.542 138.886C260.754 139.572 261.479 140.869 261.479 142.214C261.479 142.653 261.393 143.111 261.231 143.549L255.143 159.668L260.62 152.963C261.87 151.437 264.189 151.313 265.563 152.734C266.193 153.383 266.527 154.231 266.527 155.09C266.527 155.719 266.336 156.377 265.945 156.959L262.844 161.48C260.344 165.142 258.321 169.119 256.031 172.896C254.761 175.004 252.576 178.542 250.153 180.478C248.321 181.938 247.147 184.045 246.594 186.334C244.447 195.481 239.59 216.225 237.023 227.164C235.964 231.723 233.416 235.815 229.771 238.79C225.811 242.023 221.002 243.645 216.221 243.645C210.573 243.645 205.219 241.146 200.802 237.045C198.34 234.756 196.365 230.645 195.01 227.631L194.99 227.612" stroke="black" stroke-width="1.5" stroke-linecap="round" stroke-linejoin="round"/>
<path d="M210.429 219.172L214.074 208.862L216.889 200.86H216.908" stroke="black" stroke-width="1.5" stroke-linecap="round" stroke-linejoin="round"/>
<path d="M217.157 200.145L216.908 200.86" stroke="black" stroke-width="1.5" stroke-linecap="round" stroke-linejoin="round"/>
<path d="M231.498 159.944C231.498 159.944 238.235 163.511 236.393 173.087" stroke="black" stroke-width="1.5" stroke-linecap="round" stroke-linejoin="round"/>
<path d="M234.294 152.534C234.294 152.534 245.191 151.914 252.157 158.781" stroke="black" stroke-width="1.5" stroke-linecap="round" stroke-linejoin="round"/>
<path d="M181.336 215.729C181.546 215.624 181.737 215.519 181.937 215.376C183.416 214.298 184.065 212.295 183.397 210.588C182.433 208.108 179.714 207.26 177.624 208.337C177.395 208.461 177.166 208.604 176.956 208.757C176.956 208.757 162.08 214.632 154.008 214.842C152.156 214.899 150.63 213.421 150.63 211.57C150.63 210.741 150.716 209.796 151.031 208.881C148.588 210.13 146.546 212.105 145.219 214.584L141.651 221.308C140.573 223.33 138.855 224.932 136.813 225.915C136.412 226.106 136.002 226.287 135.582 226.42L122.08 230.922L120.639 231.399L117.786 232.362L116.145 232.906L114.265 233.535L111.097 234.594L98.6355 238.762" stroke="black" stroke-width="1.5" stroke-linecap="round" stroke-linejoin="round"/>
<path d="M183.979 223.435C184.122 223.33 184.265 223.244 184.418 223.12C186.212 221.709 186.546 219.105 185.124 217.293C184.189 216.101 182.748 215.548 181.336 215.729" stroke="black" stroke-width="1.5" stroke-linecap="round" stroke-linejoin="round"/>
<path d="M178.454 234.022L184.599 231.942C186.021 231.218 188.454 229.863 188.034 226.773C187.863 225.486 187.033 224.312 185.849 223.778C185.267 223.511 184.618 223.387 183.979 223.425L177.242 225.59" stroke="black" stroke-width="1.5" stroke-linecap="round" stroke-linejoin="round"/>
<path d="M135.735 123.549C135.735 123.549 139.904 120.593 143.95 123.549" stroke="black" stroke-width="1.5" stroke-linecap="round" stroke-linejoin="round"/>
<path d="M162.91 123.549C162.91 123.549 158.74 120.593 154.695 123.549" stroke="black" stroke-width="1.5" stroke-linecap="round" stroke-linejoin="round"/>
<path d="M145.592 137.531C145.592 137.531 145.801 133.507 149.466 133.507C153.13 133.507 153.177 137.531 153.177 137.531" stroke="black" stroke-width="1.5" stroke-linecap="round" stroke-linejoin="round"/>
<path d="M137.586 143.006C137.586 143.006 140.172 147.46 149.399 147.46C158.626 147.46 161.345 143.006 161.345 143.006" stroke="black" stroke-width="1.5" stroke-linecap="round" stroke-linejoin="round"/>
<path d="M181.336 215.729L181.317 215.748L175.706 217.817" stroke="black" stroke-width="1.5" stroke-linecap="round" stroke-linejoin="round"/>
<path d="M111.097 234.603L114.265 224.36L115.353 220.831" stroke="black" stroke-width="1.5" stroke-linecap="round" stroke-linejoin="round"/>
<path d="M114.265 262.1V299.553H192.462V231.027" stroke="black" stroke-width="1.5" stroke-linecap="round" stroke-linejoin="round"/>
<path d="M114.265 233.545V224.36V224.312" stroke="black" stroke-width="1.5" stroke-linecap="round" stroke-linejoin="round"/>
<path d="M178.311 138.285C178.979 135.557 179.351 132.705 179.351 129.739C179.351 129.033 179.332 128.347 179.294 127.66V127.622C179.332 127.393 179.437 126.182 179.456 124.398C179.513 121.06 179.227 115.757 177.376 111.609L180.477 114.174C180.477 114.174 176.183 89.7583 157.471 92.5051C157.471 92.5051 140.754 81.5084 125.582 98.6663H128.769C128.769 98.6663 116.45 103.816 118.664 124.37C118.807 125.762 119.017 127.221 119.313 128.766V128.824C119.313 128.824 120.916 123.492 126.269 118.056C126.269 118.056 125.458 122.081 126.269 124.723C126.269 124.723 132.433 115.347 136.756 112.562C136.756 112.562 135.363 116.806 135.363 120.106C135.363 120.106 140.868 114.165 144.533 112.19L143.95 118.714C143.95 118.714 152.013 115.338 155.372 109.844C155.372 109.844 154.723 114.594 153.168 117.159C153.168 117.159 158.092 115.261 160 111.885C160 111.885 163.082 116.806 167.853 120.402C167.853 120.402 167.691 117.322 167.347 113.363C167.347 113.363 177.939 119.782 179.294 127.612" stroke="black" stroke-width="1.5" stroke-linecap="round" stroke-linejoin="round"/>
<path d="M159.523 264.665C162.927 264.665 165.687 261.907 165.687 258.504C165.687 255.101 162.927 252.343 159.523 252.343C156.119 252.343 153.359 255.101 153.359 258.504C153.359 261.907 156.119 264.665 159.523 264.665Z" fill="white" stroke="black" stroke-width="1.5" stroke-linecap="round" stroke-linejoin="round"/>
<path d="M174.38 260.116C175.998 260.116 177.309 258.805 177.309 257.188C177.309 255.571 175.998 254.26 174.38 254.26C172.762 254.26 171.45 255.571 171.45 257.188C171.45 258.805 172.762 260.116 174.38 260.116Z" fill="white" stroke="black" stroke-width="1.5" stroke-linecap="round" stroke-linejoin="round"/>
<path d="M122.166 198.399C124.516 198.399 126.422 196.495 126.422 194.146C126.422 191.797 124.516 189.892 122.166 189.892C119.816 189.892 117.91 191.797 117.91 194.146C117.91 196.495 119.816 198.399 122.166 198.399Z" fill="white" stroke="black" stroke-width="1.5" stroke-linecap="round" stroke-linejoin="round"/>
<path d="M115.258 207.307C116.38 207.307 117.29 206.398 117.29 205.276C117.29 204.154 116.38 203.244 115.258 203.244C114.135 203.244 113.225 204.154 113.225 205.276C113.225 206.398 114.135 207.307 115.258 207.307Z" fill="white" stroke="black" stroke-width="1.5" stroke-linecap="round" stroke-linejoin="round"/>
<path d="M103.712 219.563C105.509 219.563 106.966 218.107 106.966 216.311C106.966 214.514 105.509 213.058 103.712 213.058C101.915 213.058 100.458 214.514 100.458 216.311C100.458 218.107 101.915 219.563 103.712 219.563Z" fill="white" stroke="black" stroke-width="1.5" stroke-linecap="round" stroke-linejoin="round"/>
<path d="M183.607 188.719C184.856 188.719 185.868 187.707 185.868 186.459C185.868 185.21 184.856 184.198 183.607 184.198C182.358 184.198 181.345 185.21 181.345 186.459C181.345 187.707 182.358 188.719 183.607 188.719Z" fill="white" stroke="black" stroke-width="1.5" stroke-linecap="round" stroke-linejoin="round"/>
<path d="M205.916 203.235C208.103 203.235 209.876 201.463 209.876 199.277C209.876 197.091 208.103 195.319 205.916 195.319C203.729 195.319 201.956 197.091 201.956 199.277C201.956 201.463 203.729 203.235 205.916 203.235Z" fill="white" stroke="black" stroke-width="1.5" stroke-linecap="round" stroke-linejoin="round"/>
<path d="M213.979 237.684C215.597 237.684 216.909 236.373 216.909 234.756C216.909 233.139 215.597 231.828 213.979 231.828C212.361 231.828 211.05 233.139 211.05 234.756C211.05 236.373 212.361 237.684 213.979 237.684Z" fill="white" stroke="black" stroke-width="1.5" stroke-linecap="round" stroke-linejoin="round"/>
<path d="M191.145 272.381C193.279 272.381 195.01 270.652 195.01 268.519C195.01 266.385 193.279 264.656 191.145 264.656C189.011 264.656 187.281 266.385 187.281 268.519C187.281 270.652 189.011 272.381 191.145 272.381Z" fill="white" stroke="black" stroke-width="1.5" stroke-linecap="round" stroke-linejoin="round"/>
<path d="M143.836 94.5368C146.044 94.5368 147.834 92.7477 147.834 90.5406C147.834 88.3336 146.044 86.5444 143.836 86.5444C141.628 86.5444 139.838 88.3336 139.838 90.5406C139.838 92.7477 141.628 94.5368 143.836 94.5368Z" fill="white" stroke="black" stroke-width="1.5" stroke-linecap="round" stroke-linejoin="round"/>
<path d="M139.962 102.672C141.49 102.672 142.729 101.434 142.729 99.9062C142.729 98.3787 141.49 97.1404 139.962 97.1404C138.434 97.1404 137.195 98.3787 137.195 99.9062C137.195 101.434 138.434 102.672 139.962 102.672Z" fill="white" stroke="black" stroke-width="1.5" stroke-linecap="round" stroke-linejoin="round"/>
<path d="M177.767 99.9825C178.311 99.0765 178.645 98.0178 178.645 96.8829C178.645 93.5161 175.916 90.7884 172.548 90.7884C171.775 90.7884 171.05 90.9506 170.363 91.2081C170.363 91.1795 170.363 91.1509 170.363 91.1127C170.363 88.6425 168.359 86.6492 165.897 86.6492C165.296 86.6492 164.723 86.7732 164.198 86.9925C163.302 85.066 161.355 83.7212 159.084 83.7212C155.964 83.7212 153.426 86.2486 153.426 89.3769C153.426 91.0459 154.17 92.5338 155.315 93.5734C155.057 93.5257 154.79 93.4971 154.523 93.4971C152.156 93.4971 150.239 95.4141 150.239 97.7794C150.239 100.145 152.156 102.062 154.523 102.062C155.992 102.062 157.29 101.318 158.053 100.192C158.55 100.736 159.141 101.184 159.809 101.499C159.781 101.699 159.752 101.9 159.752 102.1C159.752 104.694 161.851 106.792 164.447 106.792C167.042 106.792 169.141 104.694 169.141 102.1C169.141 102.052 169.132 102.004 169.122 101.947C169.99 102.529 171.031 102.872 172.147 102.949C172.128 103.101 172.099 103.254 172.099 103.416C172.099 105.552 173.836 107.288 175.973 107.288C178.111 107.288 179.847 105.552 179.847 103.416C179.847 101.919 178.989 100.641 177.748 99.9921L177.767 99.9825Z" fill="white" stroke="black" stroke-width="1.5" stroke-linecap="round" stroke-linejoin="round"/>
<path d="M177.452 87.3073C179.339 87.3073 180.868 85.7786 180.868 83.8929C180.868 82.0072 179.339 80.4785 177.452 80.4785C175.566 80.4785 174.036 82.0072 174.036 83.8929C174.036 85.7786 175.566 87.3073 177.452 87.3073Z" fill="white" stroke="black" stroke-width="1.5" stroke-linecap="round" stroke-linejoin="round"/>
<path d="M186.031 93.869C186.858 93.869 187.529 93.1986 187.529 92.3716C187.529 91.5447 186.858 90.8743 186.031 90.8743C185.203 90.8743 184.532 91.5447 184.532 92.3716C184.532 93.1986 185.203 93.869 186.031 93.869Z" fill="white" stroke="black" stroke-width="1.5" stroke-linecap="round" stroke-linejoin="round"/>
<path d="M185.935 107.603C186.715 107.603 187.347 106.971 187.347 106.191C187.347 105.412 186.715 104.78 185.935 104.78C185.155 104.78 184.523 105.412 184.523 106.191C184.523 106.971 185.155 107.603 185.935 107.603Z" fill="white" stroke="black" stroke-width="1.5" stroke-linecap="round" stroke-linejoin="round"/>
<path d="M120.219 92.6865C121.226 92.6865 122.042 91.8709 122.042 90.8649C122.042 89.8588 121.226 89.0432 120.219 89.0432C119.213 89.0432 118.397 89.8588 118.397 90.8649C118.397 91.8709 119.213 92.6865 120.219 92.6865Z" fill="white" stroke="black" stroke-width="1.5" stroke-linecap="round" stroke-linejoin="round"/>
<path d="M171.46 38.4186C171.46 21.7472 157.939 8.23267 141.26 8.23267C124.58 8.23267 111.059 21.7472 111.059 38.4186" fill="#D3D3D3"/>
<path d="M171.46 38.4186C171.46 21.7472 157.939 8.23267 141.26 8.23267C124.58 8.23267 111.059 21.7472 111.059 38.4186" stroke="black" stroke-width="1.5" stroke-linecap="round" stroke-linejoin="round"/>
<path d="M45.0288 1.66138V299.554H55.6204V1.66138" fill="#B0B0B0"/>
<path d="M45.0288 1.66138V299.554H55.6204V1.66138" stroke="black" stroke-width="1.5" stroke-linecap="round" stroke-linejoin="round"/>
<path d="M135.964 8.47119H146.555H135.964Z" fill="#B0B0B0"/>
<path d="M135.964 8.47119H146.555" stroke="black" stroke-width="1.5" stroke-linecap="round" stroke-linejoin="round"/>
<path d="M44.0458 178.667H56.4122C61.0919 178.667 64.8855 174.875 64.8855 170.197V149.72C64.8855 145.043 61.0919 141.251 56.4122 141.251H44.0458C39.3661 141.251 35.5725 145.043 35.5725 149.72V170.197C35.5725 174.875 39.3661 178.667 44.0458 178.667Z" fill="#D3D3D3" stroke="black" stroke-width="1.5" stroke-linecap="round" stroke-linejoin="round"/>
<path d="M108.512 46.1821L174.027 46.1821C176.172 46.1821 177.91 44.4442 177.91 42.3004C177.91 40.1566 176.172 38.4187 174.027 38.4187L108.512 38.4187C106.367 38.4187 104.628 40.1566 104.628 42.3004C104.628 44.4442 106.367 46.1821 108.512 46.1821Z" fill="#919191" stroke="black" stroke-width="1.5" stroke-linecap="round" stroke-linejoin="round"/>
<path d="M133.76 9.76831L148.769 9.76831C150.914 9.76831 152.653 8.0304 152.653 5.88657C152.653 3.74275 150.914 2.00484 148.769 2.00484L133.76 2.00484C131.615 2.00484 129.876 3.74275 129.876 5.88657C129.876 8.0304 131.615 9.76831 133.76 9.76831Z" fill="#919191" stroke="black" stroke-width="1.5" stroke-linecap="round" stroke-linejoin="round"/>
<path d="M33.2253 163.664H67.2425C69.2925 163.664 70.9543 162.005 70.9543 159.959C70.9543 157.913 69.2925 156.254 67.2425 156.254H33.2253C31.1753 156.254 29.5135 157.913 29.5135 159.959C29.5135 162.005 31.1753 163.664 33.2253 163.664Z" fill="#919191" stroke="black" stroke-width="1.5" stroke-linecap="round" stroke-linejoin="round"/>
<path d="M128.187 25.3237V33.812" stroke="black" stroke-width="1.5" stroke-linecap="round" stroke-linejoin="round"/>
<path d="M138.969 36.9211V45.4095" stroke="black" stroke-width="1.5" stroke-linecap="round" stroke-linejoin="round"/>
<path d="M148.931 25.3237V33.812" stroke="black" stroke-width="1.5" stroke-linecap="round" stroke-linejoin="round"/>
<path d="M159.714 36.9211V45.4095" stroke="black" stroke-width="1.5" stroke-linecap="round" stroke-linejoin="round"/>
<path d="M128.187 53.1826V61.6709" stroke="black" stroke-width="1.5" stroke-linecap="round" stroke-linejoin="round"/>
<path d="M138.969 64.7705V73.2588" stroke="black" stroke-width="1.5" stroke-linecap="round" stroke-linejoin="round"/>
<path d="M148.931 53.1826V61.6709" stroke="black" stroke-width="1.5" stroke-linecap="round" stroke-linejoin="round"/>
<path d="M159.714 64.7705V73.2588" stroke="black" stroke-width="1.5" stroke-linecap="round" stroke-linejoin="round"/>
</g>
</g>
<defs>
<clipPath id="clip0_102_7465">
<rect width="300" height="300" fill="white" transform="translate(0 0.268799)"/>
</clipPath>
<clipPath id="clip1_102_7465">
<rect width="300" height="300" fill="white" transform="translate(0 0.268799)"/>
</clipPath>
</defs>
</svg>
