<?xml version="1.0" encoding="UTF-8"?>
<svg id="_레이어_2" data-name="레이어 2" xmlns="http://www.w3.org/2000/svg" version="1.1" viewBox="0 0 340.2 952.4">
  <defs>
    <style>
      .cls-1 {
        fill: #fdfce8;
      }

      .cls-1, .cls-2 {
        stroke-width: 0px;
      }

      .cls-2 {
        fill: #fff;
      }
    </style>
  </defs>
  <polygon class="cls-1" points="337.9 814.8 247 814.8 326.4 770.7 317.6 754.7 234.4 800.9 279.1 717 263 708.4 221 787.4 221 697.9 202.7 697.9 202.7 788.7 158.6 709.4 142.7 718.2 188.9 801.3 104.9 756.7 96.4 772.8 175.3 814.8 85.9 814.8 85.9 833 176.7 833 97.3 877.2 106.2 893.1 189.3 846.9 144.6 930.9 160.7 939.4 202.7 860.5 202.7 949.9 221 949.9 221 859.1 265.1 938.5 281.1 929.6 234.9 846.5 318.8 891.2 327.4 875.1 248.4 833 337.9 833 337.9 814.8"/>
  <path class="cls-2" d="M36.1,94.9c-1.9-23.1-15.8-41.7-33.8-46.2,18-4.5,31.9-23.1,33.8-46.2,1.9,23.1,15.8,41.7,33.8,46.2-18,4.5-31.9,23.1-33.8,46.2"/>
</svg>