<?xml version="1.0" encoding="UTF-8"?>
<svg id="_레이어_2" data-name="레이어 2" xmlns="http://www.w3.org/2000/svg" version="1.1" viewBox="0 0 189.9 413.9">
  <defs>
    <style>
      .cls-1 {
        fill: #fdfce8;
      }

      .cls-1, .cls-2 {
        stroke-width: 0px;
      }

      .cls-2 {
        fill: #fff;
      }
    </style>
  </defs>
  <polygon class="cls-1" points="188 87.7 120.9 87.7 179.5 55.1 173 43.3 111.6 77.5 144.6 15.5 132.7 9.2 101.7 67.4 101.7 1.4 88.2 1.4 88.2 68.5 55.6 9.9 43.9 16.4 78 77.8 16 44.8 9.7 56.7 68 87.7 2 87.7 2 101.2 69 101.2 10.4 133.7 17 145.5 78.3 111.4 45.3 173.4 57.2 179.7 88.2 121.4 88.2 187.4 101.7 187.4 101.7 120.4 134.3 179 146 172.4 111.9 111.1 173.9 144.1 180.2 132.2 121.9 101.2 188 101.2 188 87.7"/>
  <path class="cls-2" d="M136.2,412.4c-1.9-23.1-15.8-41.7-33.8-46.2,18-4.5,31.9-23.1,33.8-46.2,1.9,23.1,15.8,41.7,33.8,46.2-18,4.5-31.9,23.1-33.8,46.2"/>
</svg>