<?xml version="1.0" encoding="UTF-8"?>
<svg id="_레이어_1" data-name=" 레이어 1" xmlns="http://www.w3.org/2000/svg" xmlns:xlink="http://www.w3.org/1999/xlink" version="1.1" viewBox="0 0 402.5 232.4">
  <defs>
    <style>
      .cls-1 {
        fill: #706ee0;
      }

      .cls-1, .cls-2, .cls-3 {
        stroke-width: 0px;
      }

      .cls-4 {
        clip-path: url(#clippath);
      }

      .cls-2 {
        fill: none;
      }

      .cls-5 {
        clip-path: url(#clippath-1);
      }

      .cls-6 {
        clip-path: url(#clippath-3);
      }

      .cls-7 {
        clip-path: url(#clippath-2);
      }

      .cls-3 {
        fill: #fff;
      }
    </style>
    <clipPath id="clippath">
      <rect class="cls-2" x="2.4" y="2.4" width="397.7" height="227.3"/>
    </clipPath>
    <clipPath id="clippath-1">
      <rect class="cls-2" x="2.4" y="2.4" width="397.7" height="227.3"/>
    </clipPath>
    <clipPath id="clippath-2">
      <rect class="cls-2" x="2.4" y="2.4" width="397.7" height="227.3"/>
    </clipPath>
    <clipPath id="clippath-3">
      <rect class="cls-2" x="2.4" y="2.4" width="397.7" height="227.3"/>
    </clipPath>
  </defs>
  <g class="cls-4">
    <path class="cls-1" d="M322.6,34.5v8.2c0,2.1,1.8,3.9,3.9,3.9h28.9c2.1,0,3.9-1.8,3.9-3.9s-1.7-3.9-3.9-3.9h-23.7v-4.3c0-2.5-2.1-4.6-4.6-4.6s-4.5,2.1-4.5,4.6M330.2,18c0-1.4,1-2.6,2.8-2.6h1.6c1.7,0,2.7,1.2,2.7,2.6s-1.2,2.6-2.7,2.6h-1.6c-1.7,0-2.8-1.2-2.8-2.6M349.2,8.3v19.6c0,2.6,2,4.6,4.6,4.6s4.6-2,4.6-4.6v-7.2h.4c2.3,0,4.2-1.8,4.2-4.1s-1.9-4.2-4.2-4.2h-.4v-4.1c0-2.5-2.1-4.6-4.6-4.6-2.6,0-4.6,2.1-4.6,4.6M321.7,18c0,5.8,4.9,10.3,10.7,10.3h2.7c5.9,0,10.8-4.4,10.8-10.3s-.3-2.7-.8-3.9c1.3-.5,2.2-1.8,2.2-3.3s-1.6-3.6-3.7-3.6h-5.3v-.2c0-2.5-2.1-4.6-4.6-4.6s-4.6,2.1-4.6,4.6v.2h-5.2c-2,0-3.6,1.6-3.6,3.6s.8,2.7,2.1,3.2c-.5,1.3-.7,2.6-.7,4M289.3,15.9c0-1.7,1.4-3.1,3.1-3.1h2.6c1.7,0,3.1,1.4,3.1,3.1s-1.4,3.1-3.1,3.1h-2.6c-1.7,0-3.1-1.4-3.1-3.1M280.6,16c0,6.2,5.1,11.3,11.3,11.3h3.8c6.2,0,11.3-5.1,11.3-11.3s-5.1-11.4-11.3-11.4h-3.8c-6.3,0-11.3,5.1-11.3,11.4M280.1,33.7c0,2.3,1.8,4.1,4.1,4.1h5.1v5.2c0,2.4,1.9,4.3,4.3,4.3s4.3-1.9,4.3-4.3v-5.2h11.1v5.2c0,2.4,1.9,4.3,4.3,4.3s4.3-1.9,4.3-4.3V8.1c0-2.4-2-4.3-4.3-4.3s-4.3,2-4.3,4.3v21.5h-24.9c-2.2-.1-4,1.8-4,4.1M225.8,37v7c0,1.6,1.3,2.8,2.9,2.8h30.7c1.6,0,2.9-1.2,2.9-2.8s-1.3-2.9-2.9-2.9h-24.5v-1.2h24.5c1.6,0,2.9-1.2,2.9-2.8v-6.9c0-1.6-1.3-2.9-2.9-2.9h-30.7c-1.6,0-2.9,1.3-2.9,2.9s1.3,2.8,2.9,2.8h24.5v1.1h-24.5c-1.5,0-2.9,1.3-2.9,2.9M224.5,22.9c0,1.7,1.4,3,3.1,3h32.9c1.7,0,3.1-1.3,3.1-3s-1.4-3.1-3.1-3.1h-32.9c-1.7,0-3.1,1.4-3.1,3.1M234.5,11.3c0-.6.5-1.1,1.1-1.1h16.9c.6,0,1.1.5,1.1,1.1s-.5,1.1-1.1,1.1h-16.9c-.6,0-1.1-.5-1.1-1.1M225.5,11.4c0,3.9,3.1,7.1,7.1,7.1h23.3c3.9,0,7.1-3.2,7.1-7.1s-3.1-7.1-7.1-7.1h-23.3c-4,0-7.1,3.2-7.1,7.1M219.2,43.2c0-1.8-1.5-3.3-3.3-3.3h-24.7v-2.7c0-2.6-2-4.6-4.6-4.6s-4.6,2-4.6,4.6v6c0,1.9,1.6,3.4,3.4,3.4h30.4c1.9,0,3.4-1.5,3.4-3.4M191.5,15.4c0-.7.5-1.4,1.3-1.4h4.7c.7,0,1.3.6,1.3,1.4s-.5,1.3-1.3,1.3h-4.7c-.8.1-1.3-.5-1.3-1.3M181.2,9.7c0,1.4.9,2.6,2.1,3.1-.3.9-.5,1.8-.5,2.7,0,4.5,3.6,8.1,8,8.2v1.6h-6.8c-1.8,0-3.4,1.5-3.4,3.4s1.5,3.3,3.3,3.3h25.6c.1,2.3,2,4.2,4.3,4.2s4.3-1.9,4.3-4.3v-9.8h.4c2.3,0,4.2-1.8,4.2-4.1s-1.9-4.2-4.2-4.2h-.4v-5.7c0-2.4-2-4.3-4.3-4.3s-4.3,2-4.3,4.3v17.2h-10.2v-1.6c4.4-.1,8-3.7,8-8.2s-.2-1.8-.5-2.7c1.2-.5,2.1-1.6,2.1-3.1s-1.6-3.4-3.4-3.4h-6.1c-.3-2.1-2.1-3.8-4.4-3.8s-4.1,1.7-4.4,3.8h-6.2c-1.7,0-3.2,1.5-3.2,3.4M177.7,42.8c0-2.1-1.7-3.7-3.8-3.7h-23.8v-3.2c0-2.6-2-4.6-4.6-4.6s-4.6,2-4.6,4.6v6.8c0,2.3,1.7,4,3.8,4h29.1c2.2,0,3.9-1.8,3.9-3.9M139.6,25.3c0,2.1,1.7,3.7,3.8,3.7h11.3v1.8c0,2.6,2,4.6,4.6,4.6s4.6-2,4.6-4.6v-1.8h11.2c2.1,0,3.8-1.6,3.8-3.7s-1.7-3.8-3.8-3.8h-31.6c-2.2,0-3.9,1.7-3.9,3.8M146.2,19.3l13-7.3,13,7.3c2,1,4.5.3,5.4-1.7,1-2,.1-4.5-1.9-5.5l-14.4-8.1c-1.3-.7-2.9-.6-4.2,0l-14.5,8.1c-2,1.1-2.9,3.5-1.9,5.5,1.1,2,3.6,2.8,5.5,1.7M82.2,33.1c0,2.1,1.7,3.9,3.9,3.9h25.5v5.7c0,2.6,2,4.6,4.6,4.6s4.6-2,4.6-4.6v-9.6c0-2.1-1.8-3.9-3.9-3.9h-30.8c-2.2,0-3.9,1.8-3.9,3.9M89.1,17.5v-3.5c0-1.1.9-2,2-2s2,.9,2,2v3.5c0,1.1-.9,2-2,2s-2-.9-2-2M81.5,12.9v5.7c0,5.3,4.3,9.1,9.6,9.1s9.6-3.8,9.6-9.1v-5.7c0-5.3-4.3-9.1-9.6-9.1s-9.6,3.8-9.6,9.1M102.9,7.6v17c0,2.2,1.7,3.9,3.9,3.9s3.9-1.7,3.9-3.9v-4.4h2.3v4.4c0,2.2,1.7,3.9,3.9,3.9s3.9-1.7,3.9-3.9V7.6c0-2.1-1.7-3.9-3.9-3.9s-3.9,1.7-3.9,3.9v4.2h-2.3v-4.2c0-2.1-1.7-3.9-3.9-3.9-2.1,0-3.9,1.8-3.9,3.9M77.8,36.9v-6.9c0-1.7-1.3-3-3-3h-30.2c-1.7,0-3,1.3-3,3s1.3,3,3,3h24.1v1h-24.1c-1.7,0-3.1,1.4-3.1,3v6.9c0,1.7,1.3,3,3.1,3h30.6c1.7,0,3-1.3,3-3s-1.3-2.9-3-2.9h-24.5v-1.1h24.1c1.7,0,3-1.4,3-3M49.2,16.7c0-1.3,1-2.3,2.6-2.3h2c1.6,0,2.6,1,2.6,2.3s-1.1,2.3-2.6,2.3h-2c-1.5.1-2.6-1-2.6-2.3M39.4,10.3c0,1.3.7,2.4,1.8,3-.4,1.1-.6,2.2-.6,3.4,0,5.5,4.5,8.9,9.9,8.9h4.6c5.4,0,9.9-3.5,9.9-8.9s-.2-2.3-.6-3.3c.2-.1.4-.2.6-.4.6,1,1.7,1.7,3,1.7h.7v1.8h-.7c-1.9,0-3.5,1.5-3.5,3.4s1.6,3.4,3.5,3.4h1c.6,1.7,2.3,2.9,4.3,2.9s4.6-2,4.6-4.6v-13.3c0-2.5-2.1-4.6-4.6-4.6s-4.4,1.9-4.6,4.2h-.7c-.8,0-1.5.3-2.1.7-.6-1-1.7-1.7-3-1.7h-5.7v-.2c0-2.3-2.1-4.3-4.5-4.3s-4.5,2-4.5,4.3v.2h-5.4c-1.8,0-3.4,1.5-3.4,3.4"/>
  </g>
  <g class="cls-5">
    <path class="cls-1" d="M400.1,127.4v-36.2c0-13.8-11.2-25-25-25H27.4c-13.8,0-25,11.2-25,25v36.2c0,13.8,11.2,25,25,25h307.8c6.6,15.7-5.5,28.9-7.3,31.3-2,2.6-1.3,3.9-1.3,3.9,13.8,1.3,38.2-13.8,38.2-13.8,18.4-11.1,27-23.1,30.9-32.3,2.8-4.1,4.4-8.9,4.4-14.1"/>
  </g>
  <g class="cls-7">
    <path class="cls-3" d="M262.3,89.8c0,2.6,2.1,4.7,4.7,4.7h.8l-5.1,34.5c-.4,3,1.7,5.8,4.6,6.3,3,.4,5.9-1.6,6.3-4.7l2.3-15.5h4.2l2.3,15.5c.4,3.1,3.3,5.1,6.3,4.7,3-.4,5.1-3.2,4.6-6.3l-2.8-18.9c-.4-2.7-2.3-5-5-5h-8.1l1.5-10.5h10.2c2.6,0,4.7-2.1,4.7-4.7s-2.1-4.8-4.7-4.8h-22.1c-2.6,0-4.7,2.1-4.7,4.7M297.5,88.9v41.8c0,3.1,2.4,5.5,5.5,5.5s5.5-2.4,5.5-5.5v-41.8c0-3-2.5-5.5-5.5-5.5s-5.5,2.5-5.5,5.5M215.5,89l-5.9,40c-.4,3,1.7,5.8,4.6,6.3,3,.4,5.9-1.6,6.3-4.7l2.7-18.2h3.4l2.7,18.2c.4,3.1,3.3,5.1,6.3,4.7,3-.4,5.1-3.2,4.6-6.3l-3.2-21.6c-.4-2.7-2.3-5-5-5h-7.4l1.8-11.8c.4-3-1.7-5.9-4.7-6.3-3-.4-5.7,1.7-6.2,4.7M243.8,88.9v41.8c0,3.1,2.4,5.5,5.5,5.5s5.5-2.4,5.5-5.5v-16.3h.1c3,0,5.5-2.5,5.5-5.5s-2.5-5.5-5.5-5.5h-.1v-14.5c0-3-2.5-5.5-5.5-5.5s-5.5,2.5-5.5,5.5M176.5,124h-7v-29.2h7v29.2ZM158.6,89.8v39.2c0,2.8,2.2,5,5,5h18.7c2.8,0,5-2.2,5-5v-39.2c0-2.8-2.3-5-5-5h-18.7c-2.8,0-5,2.2-5,5M192.4,88.9v41.8c0,3.1,2.4,5.5,5.5,5.5s5.5-2.4,5.5-5.5v-16.3h.1c3,0,5.5-2.5,5.5-5.5s-2.5-5.5-5.5-5.5h-.1v-14.5c0-3-2.5-5.5-5.5-5.5s-5.5,2.5-5.5,5.5M138.7,130.7c0-2.5-2-4.5-4.6-4.5h-28.9v-3.9c0-3.1-2.4-5.5-5.5-5.5s-5.5,2.4-5.5,5.5v8.5c0,2.5,2.1,4.6,4.6,4.6h35.4c2.5,0,4.5-2.1,4.5-4.7M92.5,109.8c0,2.5,2,4.5,4.6,4.5h38.3c2.5,0,4.6-2,4.6-4.5s-2.1-4.6-4.6-4.6h-13.6v-3.2c0-3-2.5-5.5-5.5-5.5s-5.5,2.5-5.5,5.5v3.2h-13.7c-2.6,0-4.6,2-4.6,4.6M100.5,101.7l15.8-8.2,15.8,8.2c2.4,1.2,5.4.3,6.6-2,1.2-2.4.2-5.5-2.3-6.6l-17.6-9.2c-1.6-.8-3.5-.8-5,0l-17.6,9.1c-2.4,1.2-3.5,4.2-2.3,6.6,1.2,2.4,4.2,3.3,6.6,2.1"/>
  </g>
  <g class="cls-6">
    <path class="cls-1" d="M258.6,228.9h30.4c3.6,0,6.3-3.3,6.3-6.8s-2.7-6.8-6.3-6.8h-21.6v-9h11c3.6,0,6.3-3.2,6.3-6.8s-2.7-6.8-6.3-6.8h-10.9v-6.9h21.5c3.6,0,6.3-3.3,6.3-6.8s-2.7-6.8-6.3-6.8h-30.4c-3.7,0-6.2,3.3-6.2,6.8s0,.7.1,1.1l-.2,41.6v.5c0,3.4,2.6,6.7,6.3,6.7M226.3,206.7l6.9-8v24.3c0,3.5,2.7,6.8,7.2,6.8s7.4-3.3,7.4-6.8v-44.7c0-3.4-2.7-6.6-7.2-6.7-2.7,0-5.1,1.1-6.5,2.8l-14.1,16.8-14-16.3c-1.7-2.1-3.8-3.3-6.5-3.3-4.6,0-7.3,3.2-7.3,6.7v44.7c0,3.5,2.7,6.8,7.2,6.8s7.4-3.3,7.4-6.8v-24.2l6.8,8c3.6,4.2,9.4,3.8,12.7-.1M159.2,228.9h22.6c3.9,0,6.6-3.3,6.6-7.1s-2.7-7.1-6.6-7.1h-3.9v-28.4h4c3.9,0,6.6-3.3,6.6-7.1s-2.7-7.1-6.6-7.1h-22.6c-3.8,0-6.5,3.4-6.5,7.1s2.7,7.1,6.5,7.1h3.7v28.4h-3.7c-3.8,0-6.5,3.4-6.5,7.1-.2,3.8,2.6,7.1,6.4,7.1M134.4,222.7v-35.8h9.2c3.9,0,6.8-3.4,6.8-7.3s-2.9-7.4-6.8-7.4h-34c-3.9,0-6.8,3.6-6.8,7.4s2.8,7.3,6.8,7.3h9.6v35.8c0,4.3,3.3,6.9,7.6,6.9,4.1,0,7.6-2.6,7.6-6.9"/>
  </g>
</svg>