<svg width="300" height="270" viewBox="0 0 300 270" fill="none" xmlns="http://www.w3.org/2000/svg">
<g clip-path="url(#clip0_102_6493)">
<path d="M260.158 232.563C293.882 198.883 293.882 144.277 260.158 110.598C226.433 76.9177 171.756 76.9177 138.031 110.598C104.307 144.277 104.307 198.883 138.031 232.563C171.756 266.243 226.434 266.243 260.158 232.563Z" fill="#70C6F3" stroke="black" stroke-width="1.5" stroke-miterlimit="10"/>
<path d="M183.311 207.568C222.512 168.418 222.512 104.944 183.311 65.795C144.11 26.6455 80.5523 26.6455 41.3512 65.795C2.1501 104.944 2.1501 168.418 41.3512 207.568C80.5523 246.717 144.11 246.717 183.311 207.568Z" fill="#CAF1EB" stroke="black" stroke-width="1.5" stroke-linecap="round" stroke-linejoin="round"/>
<path d="M158.305 82.4259C160.61 82.8216 161.923 83.0819 162.32 84.1337C162.716 85.1854 162.914 89.257 162.914 89.257L156.658 91.7562L126.774 89.1945L128.161 83.2798L132.373 81.5095L158.305 82.4259Z" fill="black"/>
<path d="M117.41 140.417C121.675 147.717 121.07 158.068 127.16 164.16C135.689 173.292 149.713 165.378 158.242 156.86C163.727 150.779 177.136 158.078 182.621 150.779C192.985 136.783 178.961 115.478 192.985 103.304C194.487 101.94 196.124 100.764 197.844 99.7431C190.41 95.7653 180.723 92.2248 167.356 89.1945C166.198 88.7676 163.925 87.8199 163.925 86.9452C163.925 85.7685 162.809 82.6654 161.443 82.4779C160.078 82.2905 158.649 82.228 158.649 82.228L158.68 82.8528C158.68 82.8528 161.871 83.1027 162.059 84.5918C162.163 85.4457 162.267 86.7161 162.121 88.0803C162.059 88.0699 162.007 88.0595 161.944 88.0386L131.32 87.1952C131.32 87.1952 130.152 87.2993 127.775 87.7783C127.681 85.5811 129.328 82.7279 131.508 82.3634L131.883 82.3217L131.925 80.968C131.925 80.968 128.525 81.6241 126.659 84.7793C124.793 87.9449 122.374 88.8717 122.374 88.8717L122.457 89.0175C117.598 90.2879 107.682 93.1619 97.0776 97.1086C97.2132 97.3481 97.2966 97.5876 97.2966 97.8375C98.5166 115.488 108.266 126.443 117.41 140.438V140.417Z" fill="#D8C5BF"/>
<path d="M101.572 198.242C106.452 187.287 105.836 174.5 111.321 162.941C116.201 152.59 109.496 139.813 97.3071 141.636C89.3826 143.458 82.678 147.113 79.0286 154.413C77.2039 159.286 80.2485 166.586 74.764 169.023C73.3459 169.731 71.9278 170.855 70.8643 172.271L86.9948 173.115L85.7853 205.552C92.4481 206.188 98.8607 204.428 101.572 198.232V198.242Z" fill="#D8C5BF"/>
<path d="M191.765 155.642C185.676 155.038 178.356 159.297 178.356 165.992C178.356 173.292 183.841 181.206 180.796 188.516C178.356 193.994 178.356 200.689 182.621 204.344C186.27 207.687 190.993 209.968 196.019 210.811L196.134 183.56C196.134 183.56 200.972 183.403 207.458 182.862C204.507 177.634 203.339 171.709 203.339 165.388C202.734 159.911 197.25 156.256 191.755 155.652L191.765 155.642Z" fill="#D8C5BF"/>
<path d="M216.634 115.082C211.942 109.459 206.384 104.304 197.844 99.7328C196.124 100.753 194.497 101.93 192.985 103.294C178.971 115.467 192.985 136.773 182.621 150.768C177.136 158.068 163.727 150.768 158.242 156.85C149.713 165.368 135.689 173.282 127.16 164.149C121.07 158.068 121.675 147.717 117.41 140.407C108.266 126.412 98.5167 115.457 97.2967 97.8063C97.2967 97.5668 97.2133 97.3169 97.0778 97.0774C93.397 98.4415 89.6329 99.941 85.973 101.545C58.7794 113.447 46.1836 170.97 46.1836 170.97L70.8539 172.261C71.9174 170.845 73.3251 169.72 74.7536 169.012C80.2382 166.576 77.1935 159.276 79.0182 154.402C82.6781 147.103 89.3826 143.448 97.2967 141.625C109.486 139.803 116.19 152.58 111.311 162.931C105.826 174.5 106.431 187.277 101.561 198.232C98.8503 204.428 92.4377 206.188 85.7749 205.552L83.4392 267.99C87.537 267.938 91.6661 268.303 95.7639 268.511C103.636 268.917 111.55 268.334 119.423 268.126C125.45 267.969 131.476 267.636 137.503 267.511C138.16 267.501 138.827 267.49 139.505 267.48L140.642 262.773L141.549 267.511C145.198 267.615 148.973 268.136 152.018 269.99C159.807 269.906 167.596 269.729 175.353 269.323C180.775 269.042 186.239 268.792 191.671 269.105C192.912 269.177 194.362 269.229 195.78 269.438L196.03 210.79C191.004 209.957 186.281 207.666 182.631 204.324C178.367 200.669 178.367 193.973 180.807 188.495C183.851 181.196 178.367 173.282 178.367 165.972C178.367 159.276 185.676 155.017 191.776 155.621C197.26 156.225 202.745 159.88 203.36 165.357C203.36 171.668 204.528 177.593 207.479 182.831C210.857 182.549 214.684 182.175 218.5 181.664C229.678 180.175 243.087 175.343 243.087 175.343C240.105 170.137 225.955 126.235 216.634 115.072V115.082Z" fill="white"/>
<path d="M140.652 262.169C140.36 262.169 140.11 262.357 140.047 262.638L138.879 267.501C139.296 267.501 139.714 267.501 140.131 267.501L140.569 265.668L140.923 267.511C141.34 267.511 141.757 267.532 142.174 267.542L141.236 262.669C141.184 262.388 140.934 262.18 140.652 262.18V262.169Z" fill="black"/>
<path d="M243.608 175.052C242.711 173.479 240.699 168.117 238.155 161.327C232.357 145.864 223.599 122.486 217.103 114.697C207.927 103.7 195.988 95.0572 167.522 88.601C165.208 87.7471 164.561 87.091 164.53 86.9348C164.53 85.5915 163.331 82.1135 161.516 81.8636C160.14 81.6761 158.722 81.6137 158.67 81.6137C158.503 81.6137 158.336 81.6761 158.211 81.7907C158.086 81.9156 158.023 82.0823 158.034 82.2489L158.065 82.8737C158.086 83.1757 158.326 83.4256 158.628 83.4464C159.765 83.5401 161.37 84.0087 161.454 84.6543C161.537 85.3416 161.621 86.3413 161.568 87.4034L131.341 86.5704C131.341 86.5704 131.289 86.5704 131.268 86.5704C131.226 86.5704 130.288 86.6641 128.421 87.0077C128.671 85.2271 129.996 83.2069 131.58 82.9466L131.956 82.9049C132.248 82.8633 132.477 82.6237 132.488 82.3218L132.529 80.968C132.529 80.7806 132.456 80.6036 132.321 80.489C132.185 80.3745 131.987 80.3224 131.81 80.3537C131.664 80.3849 128.119 81.093 126.138 84.4565C124.417 87.3722 122.175 88.2781 122.165 88.2886C122.04 88.3406 121.946 88.4239 121.873 88.5281C118.463 89.434 101.592 94.0679 85.733 101.003C74.305 106.002 64.0761 119.299 55.3174 140.501C48.8214 156.235 45.6203 170.71 45.589 170.845C45.5473 171.022 45.5891 171.199 45.7037 171.345C45.808 171.491 45.9748 171.574 46.1521 171.584L86.3586 173.688L82.8343 268.001C83.2409 268.001 83.6476 267.98 84.0542 267.98L87.5994 173.136C87.6098 172.803 87.3596 172.521 87.0259 172.501L46.9446 170.397C48.4982 163.816 61.2295 113.041 86.223 102.107C102.865 94.8177 120.643 90.0901 122.613 89.5798C122.801 89.5277 122.947 89.4028 123.02 89.2258C123.02 89.2258 123.02 89.2258 123.02 89.2153C123.844 88.7884 125.689 87.6013 127.18 85.0605C127.806 83.9983 128.619 83.2485 129.401 82.7175C127.973 83.9462 127.076 86.0393 127.149 87.7783C127.149 87.9553 127.243 88.122 127.378 88.2365C127.514 88.351 127.702 88.3927 127.879 88.351C129.975 87.9345 131.122 87.8096 131.33 87.7887L161.86 88.6322L161.986 88.6634C162.152 88.6947 162.33 88.6634 162.465 88.5593C162.601 88.4552 162.695 88.299 162.715 88.1324C162.851 86.8203 162.768 85.5603 162.663 84.6856C163.028 85.477 163.289 86.3829 163.289 86.9452C163.289 87.3305 163.289 88.3615 167.116 89.7673C167.137 89.7673 167.168 89.7881 167.189 89.7881C195.342 96.1714 207.114 104.679 216.133 115.488C222.504 123.121 231.221 146.374 236.987 161.765C239.364 168.127 241.158 172.907 242.19 175.031C239.364 176.01 227.978 179.821 218.385 181.092C207.374 182.56 196.207 182.945 196.092 182.945C195.769 182.956 195.508 183.226 195.498 183.549L195.133 269.375C195.54 269.427 195.946 269.479 196.353 269.552L196.718 184.132C199.168 184.028 208.907 183.57 218.542 182.289C229.657 180.81 243.118 175.979 243.254 175.937C243.42 175.875 243.556 175.739 243.619 175.573C243.681 175.406 243.66 175.218 243.577 175.062L243.608 175.052Z" fill="black"/>
<path d="M163.164 58.9647C163.164 58.9647 168.148 53.883 172.329 55.3825C176.51 56.882 177.073 65.8999 172.579 67.6493C168.085 69.3988 162.684 65.8791 162.684 65.8791L163.174 58.9543L163.164 58.9647Z" fill="#FFD8CD"/>
<path d="M169.827 68.7428C166 68.7428 162.497 66.4831 162.34 66.3894C162.152 66.2645 162.048 66.0562 162.069 65.8375L162.559 58.9127C162.559 58.7669 162.632 58.6315 162.726 58.5274C162.893 58.3608 166.73 54.4871 170.682 54.4871C171.328 54.4871 171.954 54.5912 172.527 54.7995C175.092 55.7158 176.281 58.9023 176.312 61.641C176.344 64.1402 175.436 67.1704 172.788 68.2013C171.881 68.5554 170.88 68.7324 169.816 68.7324L169.827 68.7428ZM163.31 65.5459C164.207 66.0666 166.97 67.5245 169.827 67.5245C170.744 67.5245 171.589 67.3787 172.35 67.0767C174.425 66.2749 175.124 63.7549 175.103 61.6618C175.061 58.9127 173.841 56.5697 172.121 55.9449C171.672 55.7887 171.193 55.7054 170.682 55.7054C167.647 55.7054 164.488 58.5274 163.748 59.2251L163.299 65.5459H163.31Z" fill="black"/>
<path d="M171.777 65.702C171.704 65.702 171.641 65.6604 171.62 65.5875C171.579 65.4938 171.62 65.3896 171.714 65.348C171.818 65.2959 174.373 64.1505 173.591 61.1202C173.268 59.8498 172.778 59.0792 172.069 58.6835C171.162 58.1837 169.837 58.2774 167.616 58.9959C167.523 59.0271 167.418 58.9751 167.387 58.8814C167.356 58.7876 167.408 58.6835 167.502 58.6523C169.858 57.8921 171.235 57.8088 172.246 58.3607C173.049 58.8085 173.591 59.6519 173.946 61.0265C174.811 64.3691 171.881 65.6708 171.85 65.6812C171.818 65.6916 171.798 65.702 171.766 65.6916L171.777 65.702Z" fill="black"/>
<path d="M167.304 55.4867C168.106 48.3641 168.367 43.2824 167.304 39.8043C167.304 39.8043 163.727 24.4864 142.988 27.1939C142.738 27.2251 142.487 27.2668 142.247 27.3084C131.643 29.0579 124.615 37.0761 126.732 47.5935L128.432 56.2677C126.753 54.9765 124.48 53.7789 122.259 54.3517C117.953 55.4555 116.555 64.3797 120.872 66.5456C124.574 68.3992 129.287 66.4623 130.548 65.8687C130.976 67.1288 131.487 68.3575 132.102 69.5342L131.852 83.2173C131.831 84.5397 131.268 85.7685 130.34 86.664C129.036 87.8616 127.796 87.9553 127.796 87.9553C127.796 87.9553 143.843 130.441 145.49 130.171C146.606 129.983 162.132 88.9758 162.132 88.9758L161.965 88.049C161.433 87.8616 160.954 87.6637 160.547 87.4346C159.452 86.8306 158.806 85.9976 158.774 84.5085L158.618 78.146C165.885 73.3142 166.438 63.4112 167.324 55.4971L167.304 55.4867Z" fill="#FFD8CD"/>
<path d="M145.459 130.764C144.792 130.764 143.958 130.764 135.397 109.271C131.237 98.837 127.243 88.2572 127.201 88.153C127.128 87.976 127.149 87.7677 127.254 87.6115C127.358 87.4449 127.535 87.3512 127.723 87.3304C127.764 87.3304 128.786 87.2263 129.902 86.1953C130.726 85.4039 131.195 84.3314 131.216 83.1859L131.466 69.6487C130.976 68.6906 130.538 67.691 130.163 66.6601C128.932 67.1703 126.753 67.9096 124.428 67.9096C122.989 67.9096 121.686 67.6285 120.57 67.0662C118.026 65.7958 117.4 62.6926 117.671 60.2038C117.963 57.4756 119.433 54.4245 122.082 53.7372C123.74 53.3103 125.585 53.706 127.525 54.8931L126.117 47.6871C125.147 42.8762 125.992 38.3776 128.567 34.6601C131.445 30.4948 136.273 27.6624 142.133 26.6939C142.383 26.6523 142.633 26.6106 142.894 26.5794C144.552 26.3607 146.168 26.2566 147.701 26.2566C164.561 26.2566 167.856 39.5231 167.888 39.6585C168.982 43.251 168.711 48.4056 167.908 55.5491C167.846 56.101 167.783 56.6737 167.721 57.2465C166.887 64.9835 165.948 73.7411 159.212 78.4375L159.358 84.4667C159.39 85.6122 159.807 86.3099 160.818 86.8722C161.183 87.07 161.61 87.2575 162.142 87.4449C162.351 87.5178 162.507 87.6948 162.538 87.9135L162.705 88.8403C162.726 88.9444 162.705 89.059 162.674 89.1631C162.632 89.2673 158.743 99.5347 154.77 109.698C146.606 130.577 146.095 130.66 145.563 130.743C145.532 130.743 145.48 130.743 145.449 130.743L145.459 130.764ZM128.599 88.3821C134.187 103.138 143.144 125.88 145.397 129.244C147.336 125.703 155.865 103.752 161.485 88.9028L161.412 88.4863C160.964 88.3196 160.578 88.1426 160.234 87.9552C158.847 87.1846 158.18 86.0912 158.138 84.5188L157.982 78.1563C157.982 77.948 158.076 77.7502 158.253 77.6356C164.77 73.3037 165.687 64.7128 166.511 57.1319C166.574 56.5592 166.636 55.9865 166.699 55.4241C167.46 48.6243 167.762 43.3968 166.72 39.9813C166.584 39.4294 163.581 27.4854 147.711 27.4854C146.231 27.4854 144.667 27.5895 143.061 27.7978C142.821 27.829 142.581 27.8706 142.341 27.9019C136.805 28.8183 132.269 31.4632 129.579 35.3682C127.201 38.8046 126.419 42.9907 127.327 47.4684L129.026 56.1427C129.078 56.3926 128.964 56.6425 128.745 56.7779C128.526 56.9132 128.255 56.8924 128.056 56.7466C125.961 55.1326 124.042 54.5078 122.405 54.9347C120.632 55.3929 119.193 57.6109 118.902 60.3496C118.683 62.4219 119.152 64.9939 121.133 65.9936C122.082 66.4726 123.197 66.7121 124.449 66.7121C126.993 66.7121 129.381 65.7333 130.288 65.3063C130.444 65.2334 130.621 65.2334 130.788 65.3063C130.945 65.3792 131.07 65.5042 131.122 65.6708C131.539 66.91 132.05 68.1179 132.634 69.253C132.676 69.3467 132.707 69.4404 132.707 69.5445L132.457 83.2276C132.425 84.6958 131.821 86.0704 130.757 87.1013C129.954 87.8406 129.162 88.2051 128.599 88.3821Z" fill="black"/>
<path d="M150.558 65.2335C150.474 65.2335 150.401 65.1918 150.359 65.1189C150.287 65.0044 150.328 64.8482 150.443 64.7857C151.454 64.1817 152.518 62.6198 152.601 60.7974C152.653 59.7873 152.184 59.1417 151.486 58.1733C151.006 57.5173 150.412 56.6946 149.817 55.5179C149.755 55.393 149.807 55.2472 149.922 55.1847C150.047 55.1222 150.193 55.1743 150.255 55.2888C150.829 56.4239 151.413 57.2361 151.882 57.8817C152.622 58.8918 153.154 59.6312 153.091 60.8079C152.998 62.8905 151.778 64.5358 150.693 65.1918C150.651 65.2127 150.599 65.2335 150.558 65.2231V65.2335Z" fill="black"/>
<path d="M142.518 55.6845C142.57 54.5183 142.237 53.5602 141.757 53.5394C141.288 53.5186 140.86 54.4454 140.798 55.6116C140.746 56.7779 141.079 57.736 141.559 57.7568C142.028 57.7776 142.456 56.8508 142.518 55.6845Z" fill="black"/>
<path d="M158.649 55.82C158.701 54.6538 158.368 53.6957 157.888 53.6749C157.419 53.6541 156.991 54.5809 156.929 55.7471C156.877 56.9134 157.21 57.8714 157.69 57.8923C158.159 57.9131 158.587 56.9863 158.649 55.82Z" fill="black"/>
<path d="M146.293 45.5941C146.397 46.0002 146.084 46.3751 145.792 46.6666C144.281 48.1557 142.477 49.3429 140.516 50.1447C140.172 50.2905 139.807 50.4154 139.432 50.405C138.786 50.3738 138.202 49.8427 138.108 49.2075C138.035 48.6868 138.254 48.1557 138.598 47.7496C138.942 47.3435 139.39 47.0519 139.828 46.7604C141.486 45.6878 143.363 44.6256 145.302 44.9276C145.719 44.9901 146.189 45.188 146.293 45.5941Z" fill="black"/>
<path d="M159.952 49.7908C158.753 49.52 157.387 48.4995 156.532 48.26C155.771 48.0518 154.124 47.9684 154.343 46.8126C154.645 46.1045 155.448 45.7296 156.188 45.6984C156.783 45.6671 157.366 45.8129 157.94 45.9587C159.233 46.2815 161.308 46.7501 161.84 48.1767C161.975 48.5204 161.954 48.9369 161.746 49.2389C161.297 49.8741 160.661 49.9574 159.963 49.8012L159.952 49.7908Z" fill="black"/>
<path d="M140.61 59.2563C140.495 59.2563 140.381 59.2459 140.256 59.2251C140.151 59.2146 140.078 59.1209 140.099 59.0168C140.11 58.9127 140.204 58.8502 140.308 58.8606C141.966 59.048 142.821 58.2983 142.831 58.2983C142.904 58.2254 143.019 58.2358 143.092 58.3087C143.165 58.3816 143.154 58.4961 143.081 58.569C143.04 58.6003 142.226 59.3292 140.631 59.2563H140.61Z" fill="black"/>
<path d="M158.441 58.7772C156.918 58.7043 156.24 58.1108 156.209 58.0795C156.136 58.017 156.126 57.8921 156.199 57.8192C156.261 57.7463 156.386 57.7359 156.459 57.8088C156.459 57.8088 157.095 58.3503 158.461 58.4127C158.566 58.4127 158.639 58.5065 158.639 58.6002C158.639 58.6939 158.545 58.7772 158.451 58.7772H158.441Z" fill="black"/>
<path d="M149.108 77.1462C149.056 77.1462 149.004 77.1254 148.962 77.0837C148.889 77.0108 148.9 76.8859 148.983 76.8234C149.077 76.7505 151.194 75.0531 149.943 73.4391C149.88 73.3558 149.901 73.2412 149.995 73.1787C150.088 73.1163 150.214 73.1475 150.276 73.2308C151.736 75.126 149.275 77.0837 149.254 77.1045C149.213 77.1358 149.16 77.1566 149.108 77.1462Z" fill="black"/>
<path d="M127.764 56.1116L129.944 57.5694C129.944 57.5694 129.85 39.9398 133.854 38.2945C137.858 36.6492 127.66 39.3879 127.66 39.3879L124.198 38.4819C124.198 38.4819 124.667 50.6863 126.398 54.8724L127.743 56.122L127.764 56.1116Z" fill="black"/>
<path d="M167.136 55.8408C167.136 55.8408 166.907 45.2089 164.624 40.0231C162.34 34.8373 164.988 40.0231 164.988 40.0231L169.535 39.846C169.535 39.846 168.669 52.519 167.397 55.9762L167.126 55.8408H167.136Z" fill="black"/>
<path d="M123.583 65.1086C123.583 65.1086 123.531 65.1086 123.5 65.0878C123.469 65.0774 120.685 63.505 121.852 60.256C122.332 58.9231 122.947 58.1317 123.792 57.7568C124.855 57.2987 126.211 57.5069 128.494 58.4858C128.588 58.5274 128.63 58.6316 128.588 58.7253C128.547 58.819 128.442 58.8606 128.348 58.819C126.2 57.9026 124.887 57.6839 123.938 58.0901C123.187 58.4129 122.634 59.1418 122.196 60.3706C121.133 63.3175 123.573 64.6921 123.677 64.7546C123.771 64.8066 123.802 64.9108 123.75 65.0045C123.719 65.067 123.646 65.0982 123.583 65.0982V65.1086Z" fill="black"/>
<path d="M140.391 258.837H140.381C140.162 258.837 139.995 258.65 139.995 258.431L143.968 131.691C143.968 131.472 144.166 131.285 144.374 131.306C144.593 131.306 144.76 131.493 144.76 131.712L140.788 258.452C140.788 258.67 140.61 258.837 140.391 258.837Z" fill="black"/>
<path d="M196.145 183.934C195.926 183.934 195.748 183.757 195.748 183.539L195.519 148.592C195.519 148.373 195.696 148.196 195.915 148.196C196.134 148.196 196.312 148.373 196.312 148.592L196.541 183.539C196.541 183.757 196.395 183.924 196.145 183.934Z" fill="black"/>
<path d="M196.28 161.91C196.103 161.91 195.947 161.785 195.894 161.608C195.853 161.431 195.926 161.265 196.072 161.171C196.551 160.598 198.439 155.392 199.992 150.726C200.065 150.518 200.284 150.414 200.493 150.477C200.701 150.549 200.816 150.768 200.743 150.976C197.167 161.702 196.603 161.837 196.364 161.889C196.332 161.889 196.301 161.9 196.27 161.9L196.28 161.91Z" fill="black"/>
<path d="M144.145 130.587C144.061 130.587 143.968 130.556 143.895 130.504L129.391 118.747C129.307 118.674 129.245 118.57 129.245 118.456L128.504 100.503L122.029 89.0487C121.925 88.8612 121.988 88.6217 122.175 88.5072C122.363 88.4031 122.603 88.4655 122.717 88.653L129.234 100.191C129.266 100.243 129.286 100.305 129.286 100.368L130.027 118.237L144.385 129.879C144.552 130.014 144.583 130.264 144.437 130.431C144.364 130.525 144.249 130.577 144.134 130.577L144.145 130.587Z" fill="black"/>
<path d="M148.973 128.39C148.858 128.39 148.754 128.348 148.681 128.255C148.535 128.088 148.555 127.838 148.712 127.703L160.901 116.967L159.619 101.357C159.619 101.263 159.639 101.17 159.692 101.097L167.084 90.5378C167.209 90.3608 167.46 90.3191 167.637 90.4441C167.814 90.5691 167.856 90.819 167.731 90.996L160.421 101.441L161.714 117.112C161.725 117.237 161.673 117.362 161.579 117.446L149.244 128.317C149.171 128.38 149.077 128.411 148.983 128.411L148.973 128.39Z" fill="black"/>
<path d="M87.0469 167.315C86.8279 167.315 86.6507 167.127 86.6611 166.919L86.953 149.685C86.953 149.466 87.1824 149.289 87.3597 149.3C87.5787 149.3 87.7559 149.487 87.7455 149.695L87.4535 166.929C87.4535 167.148 87.2763 167.315 87.0573 167.315H87.0469Z" fill="black"/>
<path d="M87.3389 157.381C87.2137 157.381 87.0886 157.318 87.0156 157.203L82.6259 150.779C82.5007 150.601 82.5529 150.352 82.7301 150.227C82.9074 150.102 83.1576 150.154 83.2828 150.331L87.6725 156.756C87.7977 156.933 87.7455 157.183 87.5683 157.308C87.4953 157.349 87.4223 157.381 87.3493 157.381H87.3389Z" fill="black"/>
<path d="M84.0441 129.275C83.8669 129.275 83.7105 129.161 83.6583 128.984C82.3654 124.266 77.3813 114.926 77.3292 114.832C77.2249 114.644 77.2979 114.405 77.496 114.301C77.6837 114.207 77.9235 114.27 78.0278 114.467C78.2363 114.853 83.1057 123.985 84.4195 128.786C84.4717 128.994 84.357 129.213 84.138 129.265C84.1067 129.265 84.065 129.275 84.0337 129.275H84.0441Z" fill="black"/>
<path d="M197.229 127.297C197.229 127.297 197.208 127.297 197.197 127.297C196.978 127.276 196.822 127.088 196.833 126.87C197.051 123.985 203.402 111.062 203.673 110.521C203.766 110.323 204.006 110.25 204.204 110.344C204.403 110.437 204.475 110.677 204.382 110.875C204.319 111.01 197.834 124.204 197.625 126.942C197.615 127.151 197.437 127.307 197.229 127.307V127.297Z" fill="black"/>
<path d="M141.59 136.471C141.59 135.627 140.902 134.94 140.058 134.94C139.213 134.94 138.525 135.627 138.525 136.471C138.525 137.314 139.213 138.001 140.058 138.001C140.902 138.001 141.59 137.314 141.59 136.471Z" fill="black"/>
<path d="M140.047 160.348C140.894 160.348 141.58 159.663 141.58 158.818C141.58 157.972 140.894 157.287 140.047 157.287C139.201 157.287 138.515 157.972 138.515 158.818C138.515 159.663 139.201 160.348 140.047 160.348Z" fill="black"/>
<path d="M136.836 249.798C136.836 248.955 136.147 248.268 135.303 248.268C134.458 248.268 133.77 248.955 133.77 249.798C133.77 250.642 134.458 251.329 135.303 251.329C136.147 251.329 136.836 250.642 136.836 249.798Z" fill="black"/>
<path d="M124.469 40.0959C120.611 39.2733 121.706 27.2147 126.576 26.0276C131.445 24.8405 133.948 27.475 138.692 24.3198C143.436 21.1646 142.508 15.5102 147.649 15.1145C152.789 14.7188 162.924 15.1145 161.6 20.5086C160.286 25.9026 163.706 29.4536 167.783 27.8707C171.86 26.2879 178.054 29.1828 176.604 34.4415C175.155 39.7002 169.493 44.0425 166.595 43.2511C163.696 42.4597 159.483 34.7018 148.952 34.4415C138.421 34.1812 139.213 43.2511 124.469 40.0959Z" fill="black"/>
<path d="M158.597 77.3338C155.375 80.4682 146.116 81.8531 137.628 75.6572C137.628 75.6572 145.688 84.4252 158.639 81.4366L158.597 77.3442V77.3338Z" fill="black"/>
<path d="M179.535 211.269C179.117 208.499 176.49 206.531 173.685 206.958L170.223 207.479C172.079 206.458 173.174 204.355 172.809 202.147C172.35 199.346 169.702 197.461 166.897 197.919L140.392 202.303C137.628 202.605 135.48 202.73 133.416 202.439C133.322 202.428 133.239 202.407 133.145 202.397C137.326 198.534 141.007 194.774 142.3 192.411C143.603 190.026 142.727 187.037 140.35 185.736C137.962 184.434 134.97 185.309 133.666 187.683C132.405 189.984 124.105 197.524 115.805 204.428C114.835 205.084 113.907 205.781 113.031 206.489C100.727 208.832 90.5819 209.686 85.2015 207.791C85.0139 205.896 85.2954 203.74 85.5456 200.939C86.5466 189.828 85.9731 183.466 87.0054 173.708C87.0263 173.469 47.6018 168.72 47.216 171.136C45.4538 182.237 43.9732 193.41 43.7647 204.657C43.5666 215.351 42.4092 228.951 50.1981 237.49C54.2438 241.915 58.3103 244.904 64.0347 246.799C73.2314 249.85 83.1474 250.35 92.7298 249.34C97.5575 248.83 102.354 247.934 107.046 246.695C109.121 246.143 111.248 245.591 113.261 244.852C114.856 244.269 116.556 243.04 118.307 243.061C125.241 243.144 139.37 243.019 147.607 240.957C147.628 240.957 147.638 240.947 147.659 240.936L163.049 238.604C165.854 238.177 167.783 235.563 167.356 232.752C167.064 230.836 165.771 229.357 164.103 228.722L172.778 227.285C175.583 226.816 177.47 224.182 177.011 221.38C176.698 219.454 175.332 217.944 173.591 217.361L175.197 217.121C178.002 216.705 179.941 214.081 179.514 211.279L179.535 211.269Z" fill="#FFD8CD"/>
<path d="M83.9814 250.402C76.7137 250.402 69.9362 249.382 63.8364 247.361C58.3622 245.55 54.1497 242.717 49.7391 237.885C42.5028 229.961 42.8052 218.111 43.0763 207.656C43.1075 206.625 43.1284 205.625 43.1492 204.636C43.3578 192.9 45.0157 181.06 46.611 171.032C46.7361 170.272 47.5807 169.835 51.5847 169.835C60.0097 169.835 86.8071 172.563 87.4535 173.292C87.5682 173.417 87.6308 173.594 87.6099 173.761C87.0886 178.717 86.9843 182.778 86.8696 187.079C86.7654 191.234 86.6507 195.524 86.1502 200.981C86.1085 201.439 86.0668 201.887 86.025 202.314C85.8374 204.303 85.681 205.906 85.7748 207.322C87.6308 207.906 90.1333 208.208 93.1988 208.208C98.1516 208.208 104.731 207.437 112.77 205.906C113.688 205.177 114.574 204.521 115.46 203.907C124.761 196.17 132.05 189.36 133.134 187.371C134.104 185.6 135.97 184.497 137.993 184.497C138.911 184.497 139.839 184.736 140.652 185.173C143.332 186.642 144.312 190.005 142.852 192.681C141.757 194.67 138.963 197.784 134.542 201.928C135.001 201.96 135.47 201.98 135.97 201.98C137.159 201.98 138.462 201.887 140.35 201.678L166.824 197.305C167.137 197.253 167.46 197.222 167.773 197.222C170.598 197.222 172.986 199.242 173.435 202.033C173.706 203.667 173.247 205.292 172.256 206.541L173.612 206.333C173.893 206.292 174.185 206.271 174.467 206.271C177.293 206.271 179.732 208.374 180.16 211.155C180.389 212.675 180.014 214.185 179.096 215.424C178.221 216.611 176.948 217.402 175.509 217.663C176.636 218.538 177.407 219.808 177.647 221.255C177.897 222.765 177.543 224.286 176.646 225.535C175.749 226.785 174.425 227.608 172.913 227.857L165.917 229.013C167.022 229.898 167.773 231.179 168.002 232.627C168.482 235.761 166.313 238.687 163.185 239.166L147.847 241.499L147.815 241.509C140.725 243.279 129.495 243.654 121.31 243.654C120.226 243.654 119.225 243.654 118.349 243.634C117.275 243.634 116.19 244.165 115.137 244.675C114.605 244.935 114.063 245.195 113.521 245.393C111.54 246.112 109.454 246.664 107.442 247.195L107.244 247.247C102.448 248.517 97.599 249.413 92.8339 249.913C89.8413 250.225 86.8696 250.381 84.0231 250.381L83.9814 250.402ZM47.7997 171.365C46.2252 181.321 44.5882 193.046 44.3796 204.646C44.3588 205.636 44.3379 206.646 44.3066 207.677C44.046 217.902 43.7436 229.492 50.6463 237.063C54.9005 241.728 58.967 244.467 64.2222 246.206C70.1864 248.184 76.8389 249.184 83.9814 249.184C86.7966 249.184 89.7162 249.028 92.667 248.715C97.3696 248.226 102.156 247.341 106.889 246.091L107.088 246.039C109.079 245.518 111.133 244.966 113.062 244.269C113.542 244.092 114.042 243.852 114.564 243.592C115.742 243.019 116.952 242.436 118.265 242.436C119.193 242.436 120.184 242.457 121.268 242.457C129.38 242.457 140.506 242.092 147.461 240.353C147.492 240.353 147.534 240.333 147.565 240.322L162.955 237.99C165.427 237.615 167.126 235.303 166.751 232.835C166.501 231.221 165.395 229.857 163.883 229.284C163.623 229.19 163.466 228.93 163.498 228.659C163.529 228.388 163.737 228.159 164.009 228.118L172.684 226.681C173.883 226.483 174.926 225.837 175.624 224.848C176.333 223.869 176.604 222.672 176.406 221.474C176.135 219.829 174.988 218.465 173.393 217.934C173.122 217.84 172.955 217.58 172.986 217.298C173.007 217.017 173.226 216.788 173.508 216.746L175.113 216.507C176.312 216.33 177.365 215.695 178.085 214.716C178.804 213.747 179.096 212.55 178.919 211.352C178.585 209.155 176.656 207.499 174.436 207.499C174.217 207.499 173.987 207.52 173.768 207.552L170.306 208.072C170.014 208.114 169.733 207.947 169.639 207.666C169.545 207.385 169.66 207.083 169.921 206.937C171.599 206.01 172.517 204.126 172.204 202.241C171.85 200.044 169.973 198.45 167.741 198.45C167.491 198.45 167.241 198.471 166.991 198.513L140.485 202.897C138.525 203.116 137.169 203.209 135.939 203.209C135.001 203.209 134.146 203.157 133.322 203.043C133.228 203.032 133.145 203.011 133.061 203.001C132.832 202.959 132.634 202.793 132.571 202.574C132.509 202.355 132.561 202.105 132.728 201.949C137.618 197.44 140.652 194.129 141.768 192.119C142.904 190.036 142.143 187.412 140.058 186.267C139.422 185.923 138.713 185.736 137.993 185.736C136.419 185.736 134.959 186.59 134.198 187.975C132.842 190.443 124.177 198.253 116.19 204.896C115.241 205.552 114.345 206.208 113.406 206.968C113.333 207.031 113.239 207.073 113.135 207.093C104.96 208.655 98.2559 209.447 93.1884 209.447C89.7683 209.447 87.0156 209.082 84.9928 208.374C84.7738 208.291 84.6174 208.093 84.5861 207.864C84.4193 206.229 84.5861 204.459 84.8051 202.22C84.8468 201.793 84.8885 201.356 84.9302 200.897C85.4203 195.472 85.535 191.203 85.6392 187.069C85.7435 182.903 85.8478 178.957 86.3274 174.208C82.8031 173.656 61.0211 171.074 51.5743 171.074C48.8215 171.074 48.0082 171.293 47.7788 171.397L47.7997 171.365Z" fill="black"/>
<path d="M148.577 211.8C148.608 211.936 148.733 212.029 148.879 212.019C152.893 211.727 165.072 209.374 170.15 208.114C170.296 208.072 170.39 207.926 170.359 207.781C170.317 207.624 170.161 207.531 170.015 207.572C164.957 208.822 152.831 211.165 148.848 211.457C148.691 211.467 148.577 211.602 148.587 211.759C148.587 211.769 148.587 211.79 148.587 211.8H148.577Z" fill="black"/>
<path d="M148.493 221.443C148.524 221.578 148.65 221.682 148.806 221.661C154.009 221.13 166.782 219.36 173.747 217.975C173.904 217.944 173.998 217.798 173.977 217.642C173.945 217.486 173.799 217.392 173.643 217.423C166.688 218.798 153.946 220.578 148.754 221.099C148.597 221.12 148.483 221.255 148.504 221.412C148.504 221.422 148.504 221.432 148.504 221.443H148.493Z" fill="black"/>
<path d="M145.522 231.294C145.553 231.44 145.688 231.533 145.834 231.513C149.932 231.054 164.03 229.138 164.176 229.117C164.332 229.097 164.436 228.951 164.415 228.795C164.415 228.638 164.249 228.534 164.092 228.555C163.946 228.576 149.849 230.482 145.761 230.94C145.605 230.961 145.49 231.096 145.511 231.252C145.511 231.252 145.511 231.273 145.511 231.283L145.522 231.294Z" fill="black"/>
<path d="M135.126 215.601C135.126 215.601 135.147 215.663 135.157 215.684C135.24 215.82 135.418 215.861 135.553 215.778L139.86 213.185C139.995 213.102 140.037 212.925 139.953 212.789C139.87 212.654 139.693 212.612 139.557 212.696L135.251 215.289C135.147 215.351 135.095 215.476 135.115 215.591L135.126 215.601Z" fill="black"/>
<path d="M135.053 213.477C135.074 213.571 135.136 213.643 135.23 213.685L139.682 215.341C139.828 215.393 139.995 215.32 140.047 215.174C140.099 215.028 140.026 214.862 139.88 214.81L135.428 213.154C135.282 213.102 135.115 213.175 135.063 213.321C135.042 213.373 135.042 213.425 135.053 213.477Z" fill="black"/>
<path d="M134.354 225.889C134.354 225.889 134.375 225.952 134.386 225.973C134.469 226.108 134.646 226.15 134.782 226.066L139.088 223.473C139.224 223.39 139.265 223.213 139.182 223.078C139.099 222.942 138.921 222.901 138.786 222.984L134.479 225.577C134.375 225.639 134.323 225.764 134.344 225.879L134.354 225.889Z" fill="black"/>
<path d="M134.281 223.765C134.302 223.859 134.365 223.932 134.459 223.973L138.911 225.629C139.057 225.681 139.224 225.608 139.276 225.462C139.328 225.317 139.255 225.15 139.109 225.098L134.657 223.442C134.511 223.39 134.344 223.463 134.292 223.609C134.271 223.661 134.271 223.713 134.281 223.765Z" fill="black"/>
<path d="M133.697 237.615C133.697 237.615 133.718 237.677 133.728 237.698C133.812 237.833 133.989 237.875 134.125 237.792L138.431 235.199C138.566 235.116 138.608 234.938 138.525 234.803C138.441 234.668 138.264 234.626 138.129 234.709L133.822 237.302C133.718 237.365 133.666 237.49 133.687 237.604L133.697 237.615Z" fill="black"/>
<path d="M133.624 235.49C133.645 235.584 133.707 235.657 133.801 235.698L138.254 237.354C138.4 237.406 138.566 237.333 138.619 237.188C138.671 237.042 138.598 236.875 138.452 236.823L133.999 235.167C133.853 235.115 133.687 235.188 133.634 235.334C133.614 235.386 133.614 235.438 133.624 235.49Z" fill="black"/>
<path d="M159.421 236.771C159.525 237.24 159.619 237.635 159.692 237.896C159.723 238.031 159.848 238.114 159.984 238.114L163.915 237.844C164.071 237.844 164.186 237.698 164.176 237.542C164.176 237.386 164.03 237.271 163.873 237.281L160.172 237.542C159.64 235.407 159.4 233.366 159.661 233.127C160.015 233.147 163.529 232.71 164.249 232.616C164.551 232.783 165.76 233.658 164.885 236.126C164.832 236.271 164.905 236.438 165.062 236.49C165.208 236.542 165.375 236.469 165.427 236.313C166.584 233.043 164.436 232.064 164.415 232.054C164.363 232.033 164.321 232.023 164.269 232.033C162.632 232.241 159.921 232.564 159.661 232.564C159.483 232.564 159.337 232.637 159.223 232.772C158.774 233.335 159.108 235.386 159.421 236.792V236.771Z" fill="black"/>
<path d="M169.462 225.004C169.608 225.691 169.858 226.347 170.254 226.847C170.317 226.931 170.411 226.972 170.515 226.951L174.414 226.493C174.467 226.493 174.529 226.462 174.571 226.431C174.654 226.358 176.656 224.598 176.104 222.047C176.072 221.891 175.916 221.797 175.76 221.828C175.603 221.859 175.509 222.016 175.541 222.172C175.979 224.15 174.571 225.639 174.258 225.952L170.619 226.379C169.514 224.765 169.868 221.589 169.973 220.766L173.716 220.131C173.872 220.099 173.977 219.954 173.945 219.797C173.904 219.652 173.768 219.537 173.612 219.568L169.66 220.235C169.545 220.256 169.451 220.349 169.43 220.464C169.41 220.599 169.013 222.974 169.451 225.004H169.462Z" fill="black"/>
<path d="M171.068 214.289C171.245 215.091 171.579 215.851 172.183 216.361C172.246 216.413 172.319 216.434 172.402 216.424L176.594 215.997C176.594 215.997 176.688 215.976 176.73 215.945C176.75 215.934 179.044 214.341 178.241 211.342C178.2 211.186 178.043 211.092 177.897 211.134C177.741 211.175 177.668 211.332 177.689 211.477C177.699 211.529 177.72 211.581 177.731 211.634C178.231 213.935 176.771 215.184 176.458 215.424L172.465 215.83C171.026 214.466 171.526 211.186 171.683 210.353L175.166 209.874C175.322 209.853 175.426 209.707 175.405 209.551C175.405 209.374 175.238 209.28 175.082 209.311L171.391 209.822C171.276 209.842 171.182 209.926 171.151 210.04C171.12 210.176 170.64 212.383 171.057 214.278L171.068 214.289Z" fill="black"/>
<path d="M164.238 205.209C164.436 206.115 164.874 207 165.708 207.666C165.771 207.718 165.854 207.739 165.938 207.718L169.681 207C169.681 207 169.733 206.989 169.764 206.968C169.796 206.958 172.298 205.563 171.61 202.376C171.599 202.324 171.579 202.262 171.568 202.199C171.526 202.043 171.37 201.949 171.224 201.991C171.078 202.033 170.984 202.178 171.016 202.324C171.026 202.376 171.036 202.428 171.047 202.48C171.62 205.084 169.816 206.26 169.524 206.427L165.958 207.114C163.946 205.386 164.843 201.949 165.072 201.179L168.086 200.616C168.242 200.585 168.346 200.439 168.315 200.283C168.284 200.137 168.138 200.033 167.981 200.064L164.801 200.658C164.697 200.679 164.613 200.752 164.582 200.845C164.54 200.981 163.79 203.157 164.238 205.198V205.209Z" fill="black"/>
<path d="M132.248 190.391C132.321 190.703 132.749 192.192 134.834 193.223C134.938 193.275 135.063 193.254 135.147 193.181L138.734 189.964C138.786 189.912 138.827 189.849 138.827 189.776C138.838 189.662 139.046 187.027 137.649 185.965C137.524 185.871 137.347 185.892 137.253 186.017C137.159 186.142 137.18 186.319 137.305 186.413C138.306 187.183 138.296 189.131 138.275 189.61L134.928 192.619C133.082 191.64 132.811 190.307 132.822 190.234C132.769 190.078 132.644 189.974 132.498 189.995C132.342 190.016 132.238 190.162 132.258 190.318C132.258 190.318 132.258 190.349 132.269 190.37L132.248 190.391Z" fill="black"/>
<path d="M54.5876 212.789C54.3165 212.789 54.0766 212.612 54.0037 212.342C53.9202 212.019 54.1079 211.686 54.4312 211.592C55.1402 211.404 71.8964 206.895 80.6759 207.291C81.0096 207.302 81.2703 207.593 81.2598 207.926C81.2494 208.26 80.9574 208.541 80.6238 208.51C72.0528 208.114 54.9212 212.716 54.7544 212.769C54.7023 212.779 54.6501 212.789 54.598 212.789H54.5876Z" fill="black"/>
<path d="M134.99 44.7403C134.99 42.8034 132.279 37.3989 131.476 37.3989C130.778 37.3989 127.962 42.793 127.962 44.7403C127.962 46.6876 129.537 48.2495 131.476 48.2495C133.416 48.2495 134.99 46.6771 134.99 44.7403Z" fill="#70C6F3"/>
<path d="M131.466 48.5619C129.36 48.5619 127.639 46.8542 127.639 44.7403C127.639 42.9284 130.371 37.0969 131.466 37.0969C132.561 37.0969 135.293 42.8763 135.293 44.7403C135.293 46.8437 133.583 48.5619 131.466 48.5619ZM131.466 37.7217C130.819 38.1174 128.244 42.8971 128.244 44.7403C128.244 46.5834 129.683 47.9475 131.455 47.9475C133.228 47.9475 134.667 46.5105 134.667 44.7403C134.667 42.97 132.185 38.0654 131.466 37.7217Z" fill="black"/>
<path d="M134.907 56.2365C134.907 55.3097 133.603 52.7168 133.217 52.7168C132.884 52.7168 131.528 55.3097 131.528 56.2365C131.528 57.1633 132.289 57.9234 133.217 57.9234C134.145 57.9234 134.907 57.1633 134.907 56.2365Z" fill="#70C6F3"/>
<path d="M133.218 58.2253C132.123 58.2253 131.226 57.3298 131.226 56.2364C131.226 55.4658 132.519 52.4043 133.218 52.4043C133.968 52.4043 135.209 55.4137 135.209 56.2364C135.209 57.3298 134.312 58.2253 133.218 58.2253ZM133.218 53.0812C132.821 53.5498 131.82 55.4866 131.82 56.2364C131.82 56.9861 132.446 57.6213 133.207 57.6213C133.968 57.6213 134.594 56.9965 134.594 56.2364C134.594 55.4762 133.635 53.5289 133.218 53.0812Z" fill="black"/>
<path d="M162.642 66.2751C162.642 65.3483 161.339 62.7554 160.953 62.7554C160.62 62.7554 159.264 65.3483 159.264 66.2751C159.264 67.2018 160.025 67.962 160.953 67.962C161.881 67.962 162.642 67.2018 162.642 66.2751Z" fill="#70C6F3"/>
<path d="M160.953 68.2639C159.859 68.2639 158.962 67.3683 158.962 66.275C158.962 65.5044 160.255 62.4429 160.953 62.4429C161.704 62.4429 162.945 65.4523 162.945 66.275C162.945 67.3683 162.048 68.2639 160.953 68.2639ZM160.953 63.1197C160.557 63.5883 159.556 65.5252 159.556 66.275C159.556 67.0247 160.182 67.6599 160.943 67.6599C161.704 67.6599 162.33 67.0351 162.33 66.275C162.33 65.5148 161.371 63.5675 160.953 63.1197Z" fill="black"/>
<path d="M153.498 99.816C153.498 99.1391 152.549 97.2439 152.268 97.2439C152.028 97.2439 151.037 99.1391 151.037 99.816C151.037 100.493 151.59 101.045 152.268 101.045C152.945 101.045 153.498 100.493 153.498 99.816Z" fill="#70C6F3"/>
<path d="M152.268 101.347C151.423 101.347 150.735 100.659 150.735 99.8159C150.735 99.2016 151.694 96.9419 152.268 96.9419C152.883 96.9419 153.8 99.2432 153.8 99.8159C153.8 100.659 153.112 101.347 152.268 101.347ZM152.268 97.6396C151.955 98.0665 151.329 99.3265 151.329 99.8055C151.329 100.285 151.746 100.732 152.257 100.732C152.768 100.732 153.185 100.316 153.185 99.8055C153.185 99.3265 152.58 98.0561 152.268 97.6396Z" fill="black"/>
<path d="M153.8 39.8563C153.8 39.1794 152.851 37.2842 152.57 37.2842C152.33 37.2842 151.339 39.1794 151.339 39.8563C151.339 40.5331 151.892 41.085 152.57 41.085C153.247 41.085 153.8 40.5331 153.8 39.8563Z" fill="#70C6F3"/>
<path d="M152.57 41.3975C151.725 41.3975 151.037 40.7102 151.037 39.8667C151.037 39.2524 151.996 36.9927 152.57 36.9927C153.185 36.9927 154.103 39.294 154.103 39.8667C154.103 40.7102 153.414 41.3975 152.57 41.3975ZM152.57 37.6904C152.257 38.1173 151.631 39.3773 151.631 39.8563C151.631 40.3353 152.049 40.7831 152.559 40.7831C153.07 40.7831 153.487 40.3666 153.487 39.8563C153.487 39.3773 152.883 38.1069 152.57 37.6904Z" fill="black"/>
<path d="M156.48 90.6523C156.48 89.1216 154.343 84.8625 153.707 84.8625C153.154 84.8625 150.933 89.1216 150.933 90.6523C150.933 92.1831 152.174 93.4223 153.707 93.4223C155.239 93.4223 156.48 92.1831 156.48 90.6523Z" fill="#70C6F3"/>
<path d="M153.707 93.7242C152.007 93.7242 150.631 92.3497 150.631 90.6523C150.631 89.2153 152.831 84.5605 153.707 84.5605C154.718 84.5605 156.783 89.2569 156.783 90.6523C156.783 92.3497 155.406 93.7242 153.707 93.7242ZM153.707 85.1853C153.154 85.6331 151.225 89.2361 151.225 90.6419C151.225 92.0477 152.33 93.1098 153.696 93.1098C155.062 93.1098 156.168 92.006 156.168 90.6419C156.168 89.2778 154.312 85.6019 153.707 85.1853Z" fill="black"/>
<path d="M196.249 182.518C196.249 182.518 207.082 182.216 219.397 181.091C220.804 162.535 220.564 134.575 219.032 109.302C215.841 106.168 211.399 100.566 211.159 93.443C206.54 85.4873 201.733 78.0522 199.856 76.5839C197.677 74.8762 197.573 72.0125 199.617 70.2006C201.66 68.3783 205.08 68.295 207.26 70.0028C209.418 71.7001 212.411 75.8029 215.372 80.3952C216.8 77.9481 218.312 75.7925 219.355 74.3555C219.699 68.3575 220.053 60.3913 219.876 55.445L219.563 46.4375C219.48 43.9488 221.805 41.8557 224.819 41.7932C227.801 41.7203 230.293 43.6884 230.376 46.1772L230.689 55.1847C230.845 59.7144 230.595 66.431 230.303 72.1271C241.491 71.8459 258.696 72.1271 260.239 76.4069C262.554 82.7902 260.281 107.772 260.281 107.772L259.978 107.803C260.479 116.685 261.313 134.013 261.313 152.257C261.334 205.833 254.296 216.267 247.091 222.37C243.358 225.535 238.76 227.545 233.796 228.253H228.468C223.703 227.701 218.531 226.285 213.537 223.369C213.568 223.338 213.599 223.307 213.63 223.276C207.291 219.527 201.233 213.331 196.614 203.355C196.447 203.001 196.29 202.636 196.124 202.272L196.228 182.508L196.249 182.518Z" fill="#FFD8CD"/>
<path d="M233.817 228.867H228.489C228.489 228.867 228.447 228.857 228.416 228.857C222.89 228.222 217.791 226.556 213.245 223.911C213.119 223.838 213.036 223.734 212.984 223.598C205.914 219.308 200.221 212.592 196.082 203.626C195.936 203.313 195.8 203.001 195.654 202.678L195.592 202.543C195.56 202.459 195.54 202.376 195.54 202.293L195.644 182.528C195.644 182.195 195.904 181.935 196.238 181.924C196.342 181.924 206.895 181.622 218.833 180.55C220.147 162.587 220.001 135.492 218.448 109.584C214.965 106.126 210.857 100.607 210.575 93.6304C205.456 84.8312 201.118 78.3333 199.502 77.0733C198.292 76.1257 197.604 74.8345 197.562 73.4391C197.521 72.0645 198.115 70.7525 199.231 69.7528C200.378 68.7323 201.921 68.17 203.579 68.17C205.091 68.17 206.54 68.649 207.656 69.5237C209.501 70.9711 212.098 74.2409 215.361 79.2393C216.612 77.1774 217.864 75.376 218.771 74.1368C219.105 68.2845 219.459 60.3704 219.282 55.4658L218.969 46.4583C218.927 45.2296 219.397 44.0216 220.304 43.074C221.409 41.9077 223.056 41.2204 224.819 41.1892H224.985C228.259 41.1892 230.897 43.376 231.002 46.1667L231.315 55.1742C231.44 58.8501 231.315 64.3483 230.96 71.5126C232.785 71.471 234.578 71.4501 236.278 71.4501C259.113 71.4501 260.406 75.0323 260.833 76.209C263.159 82.6444 261 106.814 260.906 107.834C260.886 108.022 260.781 108.188 260.635 108.282C261.136 117.185 261.939 134.284 261.949 152.267C261.97 206.104 254.827 216.653 247.518 222.849C243.723 226.056 239.02 228.139 233.921 228.867C233.89 228.867 233.859 228.867 233.838 228.867H233.817ZM228.531 227.639H233.775C238.634 226.951 243.107 224.962 246.715 221.911C253.806 215.903 260.74 205.583 260.719 152.267C260.719 133.971 259.874 116.581 259.384 107.845C259.374 107.595 259.509 107.365 259.728 107.261C260.02 103.846 261.751 82.332 259.676 76.6151C259.248 75.428 256.11 72.6581 236.267 72.6581C234.37 72.6581 232.368 72.6789 230.324 72.731C230.136 72.731 229.99 72.6685 229.876 72.5435C229.761 72.4186 229.698 72.252 229.698 72.0854C230.084 64.6295 230.209 58.9438 230.084 55.195L229.771 46.1876C229.698 44.0945 227.55 42.3867 224.975 42.3867H224.829C223.39 42.418 222.055 42.9699 221.169 43.8967C220.491 44.6048 220.137 45.5003 220.168 46.4063L220.481 55.4137C220.648 60.4121 220.293 68.4824 219.949 74.3763C219.949 74.4908 219.897 74.6054 219.834 74.6991C218.823 76.0841 217.311 78.2396 215.883 80.6867C215.778 80.8742 215.58 80.9783 215.372 80.9887C215.153 80.9887 214.965 80.8846 214.85 80.7075C211.399 75.3551 208.719 71.9083 206.884 70.4609C205.987 69.7528 204.799 69.3675 203.558 69.3675C202.213 69.3675 200.93 69.8257 200.013 70.6379C199.168 71.3877 198.72 72.3561 198.751 73.3766C198.782 74.4075 199.304 75.3759 200.221 76.0945C202.328 77.7398 207.51 85.9767 211.67 93.1306C211.722 93.2139 211.754 93.318 211.754 93.4117C211.972 100.17 216.06 105.533 219.438 108.855C219.542 108.959 219.615 109.105 219.615 109.25C221.2 135.523 221.346 163.066 219.98 181.123C219.96 181.414 219.72 181.654 219.428 181.685C208.855 182.653 199.262 183.007 196.833 183.091L196.739 202.137V202.157C196.885 202.47 197.031 202.782 197.177 203.095C201.285 211.977 206.926 218.59 213.943 222.744C214.058 222.817 214.152 222.921 214.193 223.036C218.489 225.483 223.307 227.024 228.51 227.618L228.531 227.639Z" fill="black"/>
<path d="M237.926 105.845C237.926 105.845 237.884 105.845 237.863 105.845C237.623 105.814 237.446 105.627 237.477 105.418C239.959 90.6836 224.35 87.4243 223.682 87.2889C223.443 87.2368 223.286 87.039 223.349 86.8307C223.411 86.6328 223.651 86.4975 223.891 86.5495C224.058 86.5808 240.97 90.09 238.374 105.512C238.343 105.7 238.155 105.835 237.936 105.835L237.926 105.845Z" fill="black"/>
<path d="M254.16 79.5621C254.16 79.5621 254.077 79.5621 254.025 79.5621C253.816 79.5412 232.681 77.2503 224.965 77.0212C224.715 77.0212 224.527 76.8442 224.527 76.6359C224.527 76.4277 224.735 76.2715 224.996 76.2715C232.743 76.4902 253.921 78.7915 254.14 78.8123C254.39 78.8436 254.557 79.031 254.525 79.2393C254.494 79.4059 254.348 79.5308 254.15 79.5621H254.16Z" fill="black"/>
<path d="M236.82 64.9316C239.156 65.0878 241.085 66.2125 242.003 67.712C243.16 66.4832 245.131 65.7439 247.331 65.8897C249.813 66.0563 251.877 67.3059 252.711 68.9407C252.826 69.1803 252.909 69.4198 252.972 69.6697C253.973 68.4409 255.839 67.6703 257.935 67.8161C260.167 67.9619 262.012 69.0865 262.752 70.5548C263.013 71.0755 263.138 71.6274 263.096 72.2105L262.231 84.6752C262.075 86.9036 259.51 88.5385 256.507 88.3302C254.39 88.1845 252.638 87.164 251.825 85.8102C251.012 87.695 248.551 88.9655 245.736 88.778C243.4 88.6218 241.46 87.5076 240.543 86.0081C239.386 87.2264 237.415 87.9658 235.225 87.82C232.681 87.6534 230.669 86.3205 229.876 84.6231C229.188 78.6876 229.803 74.2411 230.491 66.3999C231.607 65.7647 235.256 64.8379 236.81 64.9421L236.82 64.9316Z" fill="#FFD8CD"/>
<path d="M246.299 89.4027C246.1 89.4027 245.902 89.4027 245.704 89.3819C243.556 89.2361 241.617 88.3093 240.459 86.9139C239.125 87.9969 237.238 88.5488 235.194 88.4239C232.556 88.2468 230.251 86.8515 229.334 84.8729C229.303 84.8105 229.292 84.748 229.282 84.6855C228.677 79.5309 229.052 75.5427 229.605 69.4926C229.699 68.5033 229.793 67.4516 229.897 66.3373C229.918 66.1395 230.032 65.9625 230.199 65.8583C231.398 65.171 235.163 64.2026 236.862 64.3172C239 64.4629 240.939 65.3897 242.096 66.7955C243.431 65.7021 245.329 65.1398 247.383 65.2752C249.958 65.4522 252.242 66.7435 253.222 68.5762C254.421 67.5973 256.152 67.0871 257.998 67.2016C260.365 67.3578 262.46 68.5658 263.326 70.2735C263.649 70.9088 263.785 71.5648 263.743 72.2417L262.877 84.7063C262.7 87.268 259.895 89.1528 256.496 88.9341C254.651 88.8092 252.982 88.049 251.929 86.9035C250.813 88.4239 248.686 89.4027 246.33 89.4027H246.299ZM240.553 85.3936C240.553 85.3936 240.595 85.3936 240.616 85.3936C240.804 85.4144 240.97 85.5186 241.075 85.6852C241.93 87.0805 243.734 88.0282 245.788 88.1635C248.311 88.3301 250.553 87.2472 251.283 85.5602C251.377 85.352 251.575 85.2062 251.804 85.1958C252.023 85.1853 252.252 85.2999 252.367 85.4873C253.118 86.7369 254.724 87.5908 256.559 87.7158C259.238 87.9032 261.512 86.4766 261.637 84.623L262.502 72.1583C262.533 71.7002 262.44 71.2524 262.221 70.8254C261.543 69.4926 259.854 68.5449 257.904 68.42C256.048 68.295 254.359 68.9302 253.451 70.0549C253.305 70.2319 253.076 70.3152 252.847 70.2631C252.617 70.2111 252.44 70.0445 252.388 69.8258C252.336 69.6175 252.273 69.4092 252.169 69.2114C251.408 67.7015 249.489 66.6393 247.289 66.4935C245.35 66.3582 243.515 66.9934 242.441 68.1284C242.305 68.2638 242.117 68.3367 241.93 68.3159C241.742 68.295 241.575 68.1909 241.471 68.0243C240.616 66.6289 238.812 65.6709 236.768 65.5355C235.434 65.4418 232.337 66.2124 231.065 66.7747C230.981 67.764 230.887 68.7116 230.804 69.5967C230.251 75.5322 229.886 79.458 230.46 84.4356C231.221 85.9767 233.088 87.0493 235.256 87.1951C237.196 87.3305 239.021 86.6953 240.094 85.5706C240.209 85.4457 240.366 85.3832 240.532 85.3832L240.553 85.3936Z" fill="black"/>
<path d="M240.772 86.0704C240.741 86.1329 240.647 86.1849 240.553 86.1745C240.418 86.1745 240.324 86.0912 240.324 85.9871L240.522 76.0528C240.522 75.9591 240.626 75.8862 240.762 75.8862C240.897 75.8862 240.991 75.9695 240.991 76.0737L240.793 86.0079C240.793 86.0079 240.793 86.0496 240.783 86.06L240.772 86.0704Z" fill="black"/>
<path d="M252.471 81.9155C252.44 81.978 252.357 82.0301 252.253 82.0196C252.127 82.0196 252.013 81.9363 252.023 81.8426L252.086 70.565C252.086 70.4713 252.19 70.3984 252.326 70.3984C252.451 70.3984 252.565 70.4817 252.555 70.5755L252.492 81.853C252.492 81.853 252.492 81.8947 252.482 81.9155H252.471Z" fill="black"/>
<path d="M252.054 85.883C252.023 85.9455 251.939 85.9872 251.846 85.9872C251.72 85.9872 251.606 85.9143 251.595 85.8101L251.501 84.2273C251.501 84.1336 251.595 84.0503 251.72 84.0503C251.846 84.0503 251.96 84.1232 251.971 84.2273L252.065 85.8101C252.065 85.8101 252.065 85.8622 252.054 85.883Z" fill="black"/>
<path d="M238.791 81.8115C238.791 81.8115 238.791 81.8428 238.791 81.8636L238.77 85.5187C238.77 85.5707 238.739 85.6228 238.676 85.654C238.582 85.7061 236.445 86.8828 233.515 86.3621C233.379 86.3413 233.296 86.2372 233.327 86.1434C233.358 86.0497 233.484 85.9873 233.609 86.0081C235.986 86.4246 237.853 85.6124 238.28 85.4041L238.301 81.9157C235.684 80.135 232.253 80.9056 231.534 81.1034L231.461 84.1337C231.461 84.2378 231.346 84.3107 231.211 84.3003C231.075 84.3003 230.971 84.2066 230.971 84.1129L231.054 80.9681C231.054 80.8952 231.106 80.8431 231.19 80.8119C231.231 80.8014 235.527 79.479 238.708 81.7178C238.739 81.7386 238.76 81.7699 238.781 81.8011L238.791 81.8115Z" fill="black"/>
<path d="M250 82.2488C250 82.2488 250 82.28 250 82.3009L249.979 85.9559C249.979 86.008 249.948 86.06 249.885 86.0913C249.791 86.1433 247.654 87.32 244.724 86.7994C244.588 86.7786 244.505 86.6744 244.536 86.5807C244.567 86.487 244.693 86.4245 244.818 86.4453C247.195 86.8619 249.062 86.0496 249.489 85.8414L249.51 82.3529C246.893 80.5723 243.462 81.3428 242.743 81.5407L242.67 84.5709C242.67 84.6751 242.555 84.748 242.42 84.7376C242.284 84.7376 242.18 84.6438 242.18 84.5501L242.263 81.4053C242.263 81.3324 242.315 81.2804 242.399 81.2491C242.44 81.2387 246.736 79.9162 249.917 82.1551C249.948 82.1759 249.969 82.2071 249.99 82.2384L250 82.2488Z" fill="black"/>
<path d="M261.021 81.9363C261.021 81.9363 261.021 81.9675 261.021 81.9884L261 85.456C261 85.456 260.969 85.5601 260.917 85.5809C260.834 85.633 258.8 86.7472 256.027 86.2578C255.902 86.237 255.829 86.1433 255.85 86.0495C255.87 85.9558 255.996 85.9038 256.121 85.9246C258.373 86.3203 260.145 85.5497 260.542 85.3519L260.563 82.0509C258.081 80.3639 254.838 81.0928 254.15 81.2803L254.077 84.1543C254.077 84.2481 253.973 84.3209 253.848 84.3105C253.722 84.3105 253.618 84.2168 253.618 84.1335L253.691 81.1553C253.691 81.0928 253.743 81.0304 253.827 81.0095C253.868 80.9991 257.935 79.7495 260.948 81.8738C260.98 81.8947 261 81.9259 261.011 81.9571L261.021 81.9363Z" fill="black"/>
<path d="M217.03 196.076C217.03 196.076 216.988 196.076 216.967 196.076C216.686 196.045 216.488 195.837 216.519 195.608L218.573 180.477C218.604 180.238 218.855 180.081 219.136 180.102C219.418 180.133 219.616 180.342 219.584 180.571L217.53 195.701C217.499 195.92 217.28 196.076 217.019 196.076H217.03Z" fill="black"/>
<path d="M234.766 222.453C229.365 222.453 226.873 220.599 226.758 220.516C226.55 220.36 226.539 220.089 226.727 219.912C226.915 219.735 227.238 219.725 227.447 219.881C227.478 219.902 230.47 222.099 237.039 221.485C240.605 221.151 241.888 218.84 241.898 216.965C241.909 215.403 241.033 213.727 239.344 213.55C237.175 213.331 235.225 214.622 234.756 215.976C234.589 216.476 234.495 217.382 235.778 217.871C236.038 217.965 236.143 218.225 236.028 218.434C235.913 218.652 235.6 218.735 235.35 218.642C233.953 218.1 233.348 216.986 233.776 215.726C234.349 214.039 236.685 212.394 239.479 212.685C241.502 212.894 242.952 214.695 242.931 216.955C242.91 219.36 241.116 221.953 237.165 222.318C236.31 222.401 235.507 222.432 234.766 222.432V222.453Z" fill="black"/>
<path d="M153.978 68.8262C153.915 68.8262 153.863 68.8053 153.811 68.7741C153.78 68.7533 150.662 66.681 145.626 68.5034C145.469 68.5658 145.292 68.4825 145.24 68.3159C145.177 68.1597 145.261 67.9827 145.428 67.9306C150.766 65.9938 154.02 68.1805 154.166 68.2743C154.301 68.368 154.343 68.5554 154.239 68.7012C154.176 68.7845 154.082 68.8366 153.988 68.8366L153.978 68.8262Z" fill="black"/>
<path d="M145.803 69.2113C145.699 69.2113 145.595 69.1489 145.532 69.0551L144.823 67.7326C144.74 67.5869 144.802 67.3994 144.948 67.3161C145.094 67.2328 145.282 67.2953 145.365 67.4411L146.074 68.7636C146.158 68.9094 146.095 69.0968 145.949 69.1801C145.907 69.2009 145.855 69.2113 145.803 69.2113Z" fill="black"/>
<path d="M291.093 269.5H8.91758C8.41708 269.5 8 269.094 8 268.584C8 268.074 8.40665 267.667 8.91758 267.667H291.093C291.593 267.667 292.01 268.074 292.01 268.584C292.01 269.094 291.604 269.5 291.093 269.5Z" fill="black"/>
</g>
<defs>
<clipPath id="clip0_102_6493">
<rect width="284" height="255" fill="white" transform="translate(8 15)"/>
</clipPath>
</defs>
</svg>
