<?xml version="1.0" encoding="UTF-8"?>
<svg id="_레이어_1" data-name="레이어 1" xmlns="http://www.w3.org/2000/svg" xmlns:xlink="http://www.w3.org/1999/xlink" version="1.1" viewBox="0 0 265 490">
  <defs>
    <style>
      .cls-1 {
        fill: #fcd5ba;
      }

      .cls-1, .cls-2, .cls-3, .cls-4, .cls-5, .cls-6, .cls-7, .cls-8, .cls-9, .cls-10, .cls-11, .cls-12, .cls-13, .cls-14 {
        stroke-width: 0px;
      }

      .cls-15 {
        clip-path: url(#clippath);
      }

      .cls-2 {
        fill: none;
      }

      .cls-3 {
        fill: #fcd1b3;
      }

      .cls-4 {
        opacity: .8;
      }

      .cls-4, .cls-6 {
        fill: #fff;
      }

      .cls-16 {
        clip-path: url(#clippath-1);
      }

      .cls-5 {
        fill: #fcd6c7;
      }

      .cls-6, .cls-7 {
        opacity: .3;
      }

      .cls-7 {
        fill: #886245;
      }

      .cls-8 {
        fill: #f5d3bd;
      }

      .cls-9 {
        fill: #ebdad2;
      }

      .cls-10 {
        fill: #eec1a3;
      }

      .cls-11 {
        fill: #fce0d6;
      }

      .cls-12 {
        fill: #fbc6a8;
      }

      .cls-13 {
        fill: #fdefe7;
      }

      .cls-14 {
        fill: #f2c4a8;
      }
    </style>
    <clipPath id="clippath">
      <path class="cls-2" d="M132.5,267.9h0c-42.2,0-76.8-33-76.8-75.2v-121.1C55.7,29.3,90.3,2.6,132.5,2.6h0c42.2,0,76.8,26.7,76.8,68.9v121.1c0,42.2-34.6,75.2-76.8,75.2Z"/>
    </clipPath>
    <clipPath id="clippath-1">
      <path class="cls-2" d="M132.5,267.9h0c-42.2,0-76.8-33-76.8-75.2v-121.1C55.7,29.3,90.3,2.6,132.5,2.6h0c42.2,0,76.8,26.7,76.8,68.9v121.1c0,42.2-34.6,75.2-76.8,75.2Z"/>
    </clipPath>
  </defs>
  <path class="cls-12" d="M262.8,471.2c0,3.7-2.6,7-6.2,7.8-.9.2-1.9.4-3,.6-17,3.4-57.5,9.9-122.8,9.8-63.3,0-102.6-6.4-119.2-9.8-1.1-.2-2.2-.5-3.1-.7-3.6-.8-6.2-4-6.2-7.7.2-39.4,1.9-253.3,9.2-302.1,4.7-32,15.3-71.1,37.2-100.2,18.6-24.7,45.4-42.2,83.9-42.2s65.3,17.5,83.9,42.2c22,29.1,32.5,68.2,37.2,100.2,7.2,48.8,8.9,262.6,9.2,302Z"/>
  <path class="cls-3" d="M253.5,479.6c-17,3.4-57.5,9.9-122.8,9.8-63.3,0-102.6-6.4-119.2-9.8.4-64.6,2.2-265.5,8.4-310.5,2.4-17.8,6.5-35.5,13.2-51.5,15.5-37.3,44.9-65.7,99.4-65.7s83.8,28.4,99.3,65.7c6.7,16,10.8,33.8,13.2,51.5,6.2,45,8,245.8,8.4,310.4Z"/>
  <path class="cls-1" d="M231.8,117.7l-2,79.7c0,43.8-41.2,91.1-91.6,91.1h-11.5c-50.4,0-91.6-47.3-91.6-91.1l-2-79.7c15.5-37.3,44.9-65.7,99.3-65.7s83.8,28.4,99.3,65.7Z"/>
  <path class="cls-1" d="M175.9,481.5c-15.8,3.9-56.5,6.5-72.7,5.2-10-.8-35.6-15.6-36-19.1-6.5-51.8-15.1-143.7.3-154.4,15.7-11,76.7.3,125-9.8,22.2-4.7.7,84.9,1.7,155.5,0,6.4-11,20.9-18.2,22.7Z"/>
  <path class="cls-10" d="M216.7,75.8l-2.6,118c0,42.2-34.6,78.4-76.8,78.4h-9.6c-42.2,0-76.8-36.1-76.8-78.4l-2.6-118c0-2.3.1-4.6.3-6.8,18.6-24.7,45.4-42.2,83.9-42.2s65.3,17.5,83.9,42.2c.2,2.2.3,4.5.3,6.8Z"/>
  <path class="cls-9" d="M209.3,63.4v125.8c0,42.2-34.5,75.2-76.8,75.2s-76.8-33-76.8-75.2V63.4C55.7,23.5,86.6,2.9,125.6.7c2.3-.1,4.6-.2,6.9-.2s1.8,0,2.7,0c20,.4,38.2,5.6,51.5,15.6,13.9,10.4,22.5,26.1,22.5,47.3Z"/>
  <path class="cls-13" d="M132.5,267.9h0c-42.2,0-76.8-33-76.8-75.2v-125.8C55.7,24.6,90.3,2.6,132.5,2.6h0c42.2,0,76.8,22,76.8,64.2v125.8c0,42.2-34.6,75.2-76.8,75.2Z"/>
  <path class="cls-14" d="M216.5,435.2c-7-1.3-13-3.1-20.2-3.3-6.7-.2-13.4,0-20.1.1-13.9.2-27.8.5-41.7-.6-7.2-.6-14.3-2-21.6-1.8-6.7.2-13.4.8-20,1.4-5.9.5-11.7,1.1-17.5,2.2-7,1.3-15,.9-21.6,3.8-.7.3-.9,1.5,0,1.8,6,1.7,12.2.4,18.3.7,7,.3,13.9.8,20.9.8,6.7,0,13.4.2,20,0,6.8-.2,13.3-1.7,20.1-2.5,13.3-1.6,26.9-1.2,40.3-.8,6.7.2,13.4.7,20.1.8,8.1.2,15-1.2,23-2.3.2,0,.3-.4,0-.5Z"/>
  <path class="cls-14" d="M174.7,413.3c-9.5-1.6-20.2-1.6-29.9-2-10.7-.5-20.5,3.9-31,3.9-.7,0-.9,1.1-.2,1.2,4.9,1,8.4,1.8,13.4,1.3,5.9-.5,11.7-1.5,17.7-1.3,10,.4,20.8,4,30.3,0,1.3-.6,1-2.8-.4-3Z"/>
  <path class="cls-14" d="M134.2,459.7c-11.3-.4-22.6-3.7-34-2.4-6.2.7-11.9,1.8-18.1,2.2-5.2.3-10.1.6-15.2,1.8-.6.2-.4,1,.1,1,6,.5,12,0,18.1-.3,5.7-.2,11,.9,16.6,1.2,10.9.6,21.7-2.7,32.5-3.3.2,0,.2-.3,0-.3Z"/>
  <g class="cls-15">
    <rect class="cls-5" x="42" y="42.3" width="181" height="271.6" rx="84.2" ry="84.2"/>
  </g>
  <path class="cls-7" d="M132.2,207.2c-4.5-31.1-6.7-129.8-6.6-204.4,0-.7,0-1.4,0-2.1,2.3-.1,4.6-.2,6.9-.2s1.8,0,2.7,0c0,.7,0,1.4,0,2.1,2.4,71.1,1.1,161.5-3.2,204.6Z"/>
  <path class="cls-14" d="M146.5,460.6c-2.9-.6-5.8.2-8.7.2-.1,0-.1.2,0,.2,2.9,0,5.8.7,8.7.2.2,0,.2-.4,0-.5Z"/>
  <g class="cls-16">
    <path class="cls-11" d="M132.5,379.5h0c-49.8,0-90.5-37.9-90.5-84.2h0c0-46.3,40.7-77.9,90.5-77.9h0c49.8,0,90.5,31.6,90.5,77.9h0c0,46.3-40.7,84.2-90.5,84.2Z"/>
  </g>
  <path class="cls-8" d="M132.5,262.5h0c-26.5,0-50.1-11.5-65-29.6,13.6,21.2,37.7,35,65,35h0c27.3,0,51.4-13.8,65-35-14.9,18.1-38.5,29.6-65,29.6Z"/>
  <path class="cls-6" d="M103.6,18.3s8.3,202.4,4,214.4c-4,11.3-31.3-17.1-31.8-39.5-.2-10.3,1.2-83.4.4-97.1-2.4-40.6,6.9-80.5,27.4-77.7Z"/>
  <path class="cls-6" d="M161.8,53.4c-1.4,48.1-1,170.9,9.1,170.9,10.6,0,19.7-32.8,19.7-93.9,0-73.2-28.1-101.5-28.8-77Z"/>
  <path class="cls-4" d="M97.3,103.3c0,10.7,2.7,23.4-.6,33.5-1.6,4.9-7.7,6.4-10.3,1.5-5.6-10.4-3.7-25.5-2.5-37,1.1-10.4,4.7-44.8,7.9-43.7,3.4,1.1,5.4,35.4,5.4,45.7Z"/>
  <path class="cls-4" d="M96.7,171.6c-.3,2.8-.2,6.1-1.7,8.5-1.4,2.4-4.9,2.4-6.3,0-1.4-2.4-1.3-5.5-1.6-8.2-.4-3.3.7-7.5,4.8-7.5s5.1,3.9,4.8,7.1Z"/>
</svg>