<svg width="300" height="270" viewBox="0 0 300 270" fill="none" xmlns="http://www.w3.org/2000/svg">
<g clip-path="url(#clip0_102_6417)">
<path d="M153.9 250.63C217.932 250.63 269.84 198.722 269.84 134.69C269.84 70.6581 217.932 18.75 153.9 18.75C89.8681 18.75 37.96 70.6581 37.96 134.69C37.96 198.722 89.8681 250.63 153.9 250.63Z" fill="#70C6F3" stroke="black" stroke-width="1.5" stroke-miterlimit="10"/>
<path d="M152.21 71.66C152.21 66.37 147.92 62.09 142.64 62.09C137.36 62.09 133.07 66.38 133.07 71.66V116.77L129.88 116.74V52.31C129.88 46.14 124.88 41.14 118.71 41.14C112.54 41.14 107.54 46.14 107.54 52.31V116.55L104.75 116.53V39.15C104.75 32.98 99.75 27.98 93.58 27.98C87.41 27.98 82.41 32.98 82.41 39.15V116.34L80.02 116.32V52.31C80.02 46.14 75.02 41.14 68.85 41.14C62.68 41.14 57.68 46.14 57.68 52.31V118.72C57.63 127.19 57.12 153.58 52.43 154.68C44.52 156.54 44.45 137.93 36.21 123.04C27.97 108.15 18.6 111.74 14.94 116.66C13.44 118.67 25.84 165.32 34.35 186.32C42.05 205.32 59.54 211.49 62.8 212.49V268.75H139.91V205.93C150.68 203.14 152.32 170 151.99 144.96C152.13 144.3 152.21 143.62 152.21 142.93V71.66Z" fill="#FFD8CD"/>
<path d="M139.91 269.33H62.81C62.49 269.33 62.23 269.07 62.23 268.75V212.92C57.98 211.54 41.33 205.07 33.82 186.54C29.31 175.4 23.9 157.53 20.34 144.52C18.17 136.59 13.26 117.96 14.48 116.31C16.58 113.49 19.78 111.8 23.04 111.8C26.52 111.8 31.72 113.7 36.73 122.76C40.04 128.74 42.01 135.2 43.74 140.9C46.01 148.35 47.8 154.23 51.37 154.23C51.66 154.23 51.98 154.19 52.3 154.12C55.11 153.46 56.99 139.57 57.1 118.73V52.3099C57.1 45.8299 62.37 40.5599 68.85 40.5599C75.33 40.5599 80.6 45.8299 80.6 52.3099V115.73H81.82V39.1399C81.82 32.6599 87.09 27.3899 93.57 27.3899C100.05 27.3899 105.32 32.6599 105.32 39.1399V115.95H106.94V52.3099C106.94 45.8299 112.21 40.5599 118.69 40.5599C125.17 40.5599 130.44 45.8299 130.44 52.3099V116.16L132.46 116.18V71.6599C132.46 66.0599 137.02 61.4999 142.62 61.4999C148.22 61.4999 152.78 66.0599 152.78 71.6599V142.92C152.78 143.61 152.71 144.31 152.56 145.01C152.9 171.15 151.07 202.79 140.48 206.36V268.75C140.48 269.07 140.22 269.33 139.9 269.33H139.91ZM63.39 268.16H139.33V205.92C139.33 205.65 139.51 205.42 139.77 205.35C147.76 203.28 151.9 181.83 151.41 144.95C151.41 144.91 151.41 144.86 151.42 144.82C151.56 144.18 151.63 143.54 151.63 142.91V71.6599C151.63 66.6999 147.6 62.6699 142.64 62.6699C137.68 62.6699 133.65 66.6999 133.65 71.6599V116.77C133.65 116.93 133.59 117.08 133.48 117.18C133.37 117.29 133.24 117.36 133.06 117.35L129.87 117.32C129.55 117.32 129.29 117.06 129.29 116.74V52.3099C129.29 46.4699 124.54 41.7299 118.71 41.7299C112.88 41.7299 108.13 46.4799 108.13 52.3099V116.55C108.13 116.71 108.07 116.86 107.96 116.96C107.85 117.07 107.69 117.13 107.54 117.13L104.75 117.11C104.43 117.11 104.17 116.85 104.17 116.53V39.1499C104.17 33.3099 99.42 28.5699 93.59 28.5699C87.76 28.5699 83.01 33.3199 83.01 39.1499V116.34C83.01 116.5 82.95 116.65 82.84 116.76C82.73 116.87 82.55 116.93 82.42 116.93L80.03 116.91C79.71 116.91 79.45 116.65 79.45 116.33V52.3099C79.45 46.4699 74.7 41.7299 68.87 41.7299C63.04 41.7299 58.29 46.4799 58.29 52.3099V118.72C58.22 131.88 57.39 154.12 52.59 155.25C52.18 155.35 51.78 155.39 51.4 155.39C46.96 155.39 45.06 149.14 42.65 141.23C40.93 135.59 38.98 129.19 35.73 123.32C30.99 114.76 26.22 112.96 23.06 112.96C20.17 112.96 17.32 114.47 15.44 117C14.42 119.76 26.51 165.32 34.92 186.09C42.5 204.79 59.64 210.89 63 211.92C63.25 212 63.41 212.22 63.41 212.48V268.15L63.39 268.16Z" fill="black"/>
<path d="M100.83 203.47H100.81C100.59 203.46 100.42 203.27 100.43 203.05C101.22 188.03 97.8001 176.39 90.2801 168.47C80.2101 157.86 66.1401 157.74 66.0001 157.74C65.7801 157.74 65.6001 157.56 65.6001 157.34C65.6001 157.12 65.7801 156.94 66.0001 156.94C66.1401 156.94 80.5601 157.07 90.8601 167.92C98.5401 176.01 102.03 187.84 101.23 203.09C101.22 203.3 101.04 203.47 100.83 203.47Z" fill="black"/>
<path d="M139.91 132.48H65.4601C65.2401 132.48 65.0601 132.3 65.0601 132.08C65.0601 131.86 65.2401 131.68 65.4601 131.68H139.91C140.13 131.68 140.31 131.86 140.31 132.08C140.31 132.3 140.13 132.48 139.91 132.48Z" fill="black"/>
<path d="M120.1 144.31C120.03 144.31 119.97 144.29 119.9 144.26C109.98 138.65 85.8499 135.17 85.6099 135.13C85.3899 135.1 85.2399 134.9 85.2699 134.68C85.2999 134.46 85.5099 134.31 85.7199 134.34C85.9599 134.37 110.24 137.87 120.29 143.56C120.48 143.67 120.55 143.91 120.44 144.1C120.37 144.23 120.23 144.3 120.09 144.3L120.1 144.31Z" fill="black"/>
<path d="M18.6 133.28C18.44 133.28 18.28 133.18 18.22 133.02C18.15 132.81 18.25 132.59 18.46 132.51C18.49 132.51 20.99 131.59 21.96 129.85C20.76 125.36 18.4 118.12 17.04 117.35C17.01 117.33 16.95 117.3 16.91 117.31C16.7 117.38 16.48 117.25 16.41 117.04C16.35 116.83 16.47 116.61 16.68 116.54C16.85 116.49 17.11 116.47 17.42 116.64C19.54 117.83 22.44 128.56 22.76 129.78C22.78 129.88 22.77 129.97 22.73 130.06C21.67 132.17 18.84 133.21 18.72 133.25C18.68 133.27 18.63 133.27 18.59 133.27L18.6 133.28Z" fill="black"/>
<mask id="mask0_102_6417" style="mask-type:luminance" maskUnits="userSpaceOnUse" x="157" y="58" width="131" height="212">
<path d="M287.03 58.3401H157.03V269.3H287.03V58.3401Z" fill="white"/>
</mask>
<g mask="url(#mask0_102_6417)">
<path d="M282.12 117.56C276.38 109.75 269.94 117.1 269.94 124.22C269.94 127.43 268.26 129.61 266.42 131.04C266.1 130.8 265.77 130.57 265.44 130.33L265.86 130.51C265.86 130.51 265.65 121.29 268.34 113.43C271.03 105.57 271.05 94.6502 258.34 94.6002C247.86 94.5602 247.37 110.54 246.08 118.29C245.6 118.03 245.13 117.78 244.65 117.53C244.44 115.39 243.87 107.75 245.48 100.88C247.38 92.7902 246.3 81.9202 233.66 83.1402C223 84.1702 224.39 100.8 223.79 108.45C222.89 108.15 222 107.86 221.11 107.59C221.04 104.84 221.14 100.1 222.16 94.7002C223.77 86.2002 222.16 74.9402 209.07 76.7802C197.4 78.4202 200.5 97.5602 199.86 104.8C198.88 104.91 197.92 105.06 197 105.25C196.67 102.62 196.31 97.6202 196.9 90.2202C197.82 78.7302 190.24 70.0002 181.74 70.4602C173.24 70.9202 167.5 75.2802 165.43 87.2302C163.36 99.1802 172.55 113.65 171.4 122.38L171.62 122.26C161.21 138.48 167.64 160.13 172.68 172.81C179.81 190.73 185.92 207.96 176.41 231.74C166.9 255.52 164.19 292.04 197.12 299.97C230.05 307.9 250.09 278.26 251.11 264.13C252.13 250 268.43 201.76 271.82 189.7C274.88 178.84 285.08 157.65 280.15 144.98C282.3 136.34 287.09 124.3 282.13 117.56H282.12Z" fill="#FFD8CD"/>
<path d="M207.94 301.88C204.36 301.88 200.68 301.43 196.98 300.54C186.27 297.96 178.56 292.23 174.05 283.51C166.16 268.26 169.82 246.66 175.87 231.53C184.94 208.84 179.8 192.3 172.14 173.04C163.67 151.75 163.23 134.73 170.82 122.44C170.82 122.4 170.82 122.36 170.82 122.32C171.32 118.52 169.75 113.44 168.08 108.06C166.02 101.4 163.69 93.8602 164.85 87.1502C166.8 75.8902 172.15 70.4102 181.71 69.9002C185.69 69.6802 189.54 71.3702 192.51 74.5902C196.15 78.5402 197.97 84.2602 197.48 90.2902C196.95 96.9402 197.18 101.65 197.5 104.58C198.08 104.47 198.69 104.38 199.31 104.3C199.4 102.95 199.38 101.26 199.36 99.3202C199.27 90.6702 199.14 77.6102 208.99 76.2302C214.06 75.5202 217.91 76.6702 220.35 79.6202C224.22 84.2902 223.31 91.8202 222.74 94.8402C221.8 99.8202 221.64 104.24 221.69 107.19C222.19 107.34 222.71 107.51 223.26 107.69C223.32 106.69 223.36 105.56 223.39 104.38C223.66 96.0702 224.07 83.5102 233.61 82.5902C238.42 82.1302 242.02 83.3302 244.27 86.1602C247.95 90.8002 246.75 98.1102 246.06 101.04C244.54 107.51 244.99 114.69 245.22 117.19C245.36 117.27 245.51 117.34 245.65 117.42C245.78 116.58 245.9 115.66 246.03 114.7C247.13 106.47 248.79 94.0402 258.33 94.0402C263.01 94.0602 266.37 95.4902 268.37 98.2902C271.91 103.26 269.93 110.68 268.92 113.64C266.53 120.63 266.46 128.82 266.47 130.29C268.4 128.65 269.38 126.62 269.38 124.25C269.38 119.25 272.6 113.65 276.9 113.65C278.3 113.65 280.43 114.27 282.61 117.24C286.89 123.07 284.28 132.33 281.98 140.51C281.54 142.08 281.12 143.56 280.77 144.96C284.55 155 279.18 170.18 275.26 181.28C274.14 184.46 273.07 187.46 272.4 189.87C271.54 192.92 269.89 198.17 267.81 204.82C261.7 224.28 252.47 253.7 251.71 264.19C251.19 271.34 246.42 280.62 239.55 287.82C233.43 294.24 222.98 301.89 207.96 301.89L207.94 301.88ZM172.03 121.86C172.21 122.05 172.24 122.35 172.1 122.58C164.4 134.57 164.78 151.4 173.21 172.6C180.97 192.11 186.18 208.87 176.94 231.96C170.99 246.85 167.37 268.07 175.08 282.97C179.43 291.38 186.89 296.91 197.25 299.4C200.86 300.27 204.45 300.71 207.94 300.71C233.78 300.71 249.62 276.52 250.52 264.09C251.29 253.46 260.54 223.97 266.67 204.46C268.75 197.82 270.4 192.58 271.25 189.55C271.94 187.1 273.01 184.08 274.14 180.88C278.03 169.89 283.35 154.83 279.6 145.2C279.56 145.09 279.55 144.96 279.58 144.85C279.95 143.38 280.38 141.82 280.85 140.18C283.08 132.26 285.61 123.28 281.66 117.92C280.16 115.88 278.51 114.81 276.89 114.81C273.63 114.81 270.54 119.39 270.54 124.24C270.54 127.14 269.28 129.59 266.79 131.52C266.58 131.68 266.3 131.68 266.09 131.52C265.77 131.28 265.45 131.05 265.12 130.81C264.88 130.64 264.81 130.31 264.95 130.05C265.03 129.91 265.16 129.81 265.3 129.77C265.32 127.39 265.56 119.81 267.81 113.24C269.8 107.43 269.65 102.08 267.41 98.9402C265.65 96.4602 262.6 95.2002 258.36 95.1802C249.81 95.1802 248.29 106.53 247.18 114.82C247.01 116.11 246.85 117.32 246.67 118.38C246.64 118.57 246.52 118.73 246.35 118.81C246.18 118.89 245.98 118.89 245.82 118.81C245.35 118.55 244.87 118.3 244.39 118.05C244.22 117.96 244.1 117.79 244.08 117.59C243.87 115.39 243.29 107.69 244.92 100.75C246.27 94.9902 245.68 89.8002 243.35 86.8602C241.37 84.3602 238.11 83.3002 233.72 83.7302C225.21 84.5502 224.83 96.0202 224.56 104.39C224.51 105.89 224.46 107.31 224.37 108.5C224.36 108.68 224.26 108.84 224.11 108.94C223.96 109.04 223.77 109.06 223.6 109.01C222.63 108.68 221.76 108.41 220.94 108.16C220.7 108.09 220.53 107.87 220.53 107.61C220.46 104.61 220.58 99.9202 221.59 94.5902C222.13 91.7302 223 84.6302 219.45 80.3302C217.28 77.7102 213.79 76.7002 209.15 77.3502C200.31 78.5902 200.44 90.5402 200.53 99.2702C200.55 101.47 200.57 103.37 200.44 104.84C200.41 105.12 200.2 105.34 199.92 105.37C198.94 105.48 197.99 105.63 197.12 105.81C196.96 105.85 196.79 105.81 196.66 105.72C196.53 105.63 196.44 105.48 196.42 105.32C196.05 102.41 195.74 97.4102 196.32 90.1702C196.78 84.4602 195.08 79.0602 191.65 75.3602C188.92 72.4002 185.39 70.8502 181.77 71.0502C172.73 71.5402 167.87 76.5602 166 87.3402C164.89 93.7802 167.18 101.18 169.2 107.71C170.82 112.95 172.36 117.91 172.04 121.87L172.03 121.86Z" fill="black"/>
<path d="M171.61 122.85C171.49 122.85 171.38 122.82 171.27 122.74C171.01 122.55 170.94 122.19 171.13 121.93C177.88 112.37 189.06 108.12 195.13 106.44C195.44 106.35 195.76 106.54 195.85 106.85C195.94 107.16 195.75 107.48 195.44 107.57C185.38 110.37 176.87 115.85 172.09 122.61C171.98 122.77 171.8 122.86 171.61 122.86V122.85Z" fill="black"/>
<path d="M273.4 137.22C273.24 137.22 273.08 137.16 272.97 137.03C265.92 129.3 232.62 112.17 223.61 109.01C223.31 108.9 223.15 108.57 223.25 108.27C223.36 107.97 223.69 107.8 223.99 107.91C233.08 111.1 266.69 128.41 273.83 136.25C274.05 136.49 274.03 136.86 273.79 137.08C273.68 137.18 273.54 137.23 273.4 137.23V137.22Z" fill="black"/>
<path d="M214.12 107.75C214.12 107.75 214.06 107.75 214.03 107.75C213.98 107.75 208.5 106.9 203.61 106.9C203.29 106.9 203.03 106.64 203.03 106.32C203.03 106 203.29 105.74 203.61 105.74C208.59 105.74 214.15 106.6 214.21 106.61C214.53 106.66 214.75 106.96 214.7 107.28C214.65 107.57 214.41 107.77 214.12 107.77V107.75Z" fill="black"/>
<path d="M211.24 97.3902C206.77 97.3902 204.09 95.3402 203.94 95.2202C203.69 95.0202 203.64 94.6502 203.84 94.4002C204.04 94.1502 204.41 94.1002 204.66 94.3002C204.85 94.4502 209.35 97.8502 216.51 95.2402C216.81 95.1302 217.15 95.2902 217.26 95.5902C217.37 95.8902 217.21 96.2302 216.91 96.3402C214.8 97.1102 212.9 97.3902 211.25 97.3902H211.24Z" fill="black"/>
<path d="M236.66 100.88C231.95 100.88 229.2 98.4303 229.06 98.3003C228.82 98.0803 228.81 97.7103 229.02 97.4703C229.24 97.2303 229.61 97.2203 229.85 97.4303C230.02 97.5803 233.86 100.97 240.33 99.1903C240.64 99.1003 240.96 99.2903 241.05 99.6003C241.14 99.9103 240.95 100.23 240.64 100.32C239.19 100.72 237.86 100.88 236.66 100.88Z" fill="black"/>
<path d="M261.97 113.99C255.46 113.99 251.47 110.36 251.29 110.19C251.05 109.97 251.04 109.6 251.26 109.36C251.48 109.12 251.85 109.11 252.09 109.33C252.14 109.37 256.99 113.77 264.53 112.63C264.85 112.58 265.15 112.8 265.2 113.12C265.25 113.44 265.03 113.74 264.71 113.79C263.76 113.93 262.85 114 261.98 114L261.97 113.99Z" fill="black"/>
<path d="M278.74 133.77C278.66 133.77 278.58 133.75 278.5 133.72C273.73 131.52 271.97 129.4 269.62 125.2C269.46 124.92 269.56 124.56 269.84 124.4C270.12 124.24 270.48 124.34 270.64 124.62C272.96 128.77 274.58 130.61 278.99 132.65C279.28 132.79 279.41 133.13 279.28 133.43C279.18 133.64 278.97 133.77 278.75 133.77H278.74Z" fill="black"/>
<path d="M177.65 98.1201C177.1 98.1201 176.76 98.1001 176.7 98.1001C176.38 98.0801 176.13 97.8101 176.14 97.4901C176.16 97.1701 176.43 96.9201 176.75 96.9301C176.82 96.9301 183.74 97.2401 189.23 94.7401C189.53 94.6101 189.87 94.7401 190 95.0301C190.13 95.3201 190 95.6701 189.71 95.8001C185.13 97.8801 179.78 98.1101 177.64 98.1101L177.65 98.1201Z" fill="black"/>
<path d="M184.49 245.76C184.36 245.76 184.22 245.71 184.11 245.62C183.86 245.41 183.84 245.04 184.05 244.8C184.39 244.4 192.7 234.95 213.69 231.51C233.28 228.3 233.87 224.54 233.88 224.5C233.85 224.18 234.09 223.92 234.41 223.89C234.73 223.86 235.02 224.13 235.04 224.45C235.11 225.23 234.39 229.29 213.88 232.66C193.31 236.03 185.02 245.46 184.94 245.56C184.82 245.7 184.66 245.76 184.5 245.76H184.49Z" fill="black"/>
</g>
<path d="M283.5 270.26H12.88C12.4 270.26 12 269.87 12 269.38C12 268.89 12.39 268.5 12.88 268.5H283.5C283.98 268.5 284.38 268.89 284.38 269.38C284.38 269.87 283.99 270.26 283.5 270.26Z" fill="black"/>
<path d="M98.5598 112.19C98.5598 109.64 94.9998 102.56 93.9498 102.56C93.0398 102.56 89.3398 109.64 89.3398 112.19C89.3398 114.74 91.3998 116.8 93.9498 116.8C96.4998 116.8 98.5598 114.74 98.5598 112.19Z" fill="#70C6F3"/>
<path d="M93.9499 117.2C91.1899 117.2 88.9399 114.95 88.9399 112.19C88.9399 109.82 92.5199 102.16 93.9499 102.16C95.3799 102.16 98.9599 109.74 98.9599 112.19C98.9599 114.95 96.7099 117.2 93.9499 117.2ZM93.9599 102.98C93.1099 103.5 89.7399 109.77 89.7399 112.2C89.7399 114.63 91.6299 116.41 93.9499 116.41C96.2699 116.41 98.1599 114.52 98.1599 112.2C98.1599 109.88 94.9099 103.45 93.9599 102.98Z" fill="black"/>
<path d="M98.4598 127.26C98.4598 126.04 96.7498 122.64 96.2498 122.64C95.8098 122.64 94.0398 126.04 94.0398 127.26C94.0398 128.48 95.0298 129.47 96.2498 129.47C97.4698 129.47 98.4598 128.48 98.4598 127.26Z" fill="#70C6F3"/>
<path d="M96.2399 129.87C94.7999 129.87 93.6299 128.7 93.6299 127.26C93.6299 126.24 95.3299 122.24 96.2399 122.24C97.2199 122.24 98.8499 126.19 98.8499 127.26C98.8499 128.7 97.6799 129.87 96.2399 129.87ZM96.2499 123.11C95.7299 123.72 94.4199 126.27 94.4199 127.25C94.4199 128.23 95.2299 129.06 96.2299 129.06C97.2299 129.06 98.0399 128.25 98.0399 127.25C98.0399 126.25 96.7799 123.7 96.2399 123.11H96.2499Z" fill="black"/>
<path d="M134.8 140.44C134.8 139.22 133.09 135.82 132.59 135.82C132.15 135.82 130.38 139.22 130.38 140.44C130.38 141.66 131.37 142.65 132.59 142.65C133.81 142.65 134.8 141.66 134.8 140.44Z" fill="#70C6F3"/>
<path d="M132.58 143.05C131.14 143.05 129.97 141.88 129.97 140.44C129.97 139.42 131.67 135.42 132.58 135.42C133.56 135.42 135.19 139.37 135.19 140.44C135.19 141.88 134.02 143.05 132.58 143.05ZM132.59 136.29C132.07 136.9 130.76 139.45 130.76 140.43C130.76 141.41 131.57 142.24 132.57 142.24C133.57 142.24 134.38 141.43 134.38 140.43C134.38 139.43 133.12 136.88 132.58 136.29H132.59Z" fill="black"/>
<path d="M122.82 184.45C122.82 183.56 121.57 181.08 121.21 181.08C120.89 181.08 119.6 183.56 119.6 184.45C119.6 185.34 120.32 186.06 121.21 186.06C122.1 186.06 122.82 185.34 122.82 184.45Z" fill="#70C6F3"/>
<path d="M121.2 186.46C120.09 186.46 119.19 185.56 119.19 184.45C119.19 183.65 120.45 180.68 121.2 180.68C122.01 180.68 123.21 183.7 123.21 184.45C123.21 185.56 122.31 186.46 121.2 186.46ZM121.21 181.6C120.81 182.16 119.98 183.81 119.98 184.45C119.98 185.09 120.52 185.66 121.19 185.66C121.86 185.66 122.41 185.12 122.41 184.45C122.41 183.82 121.62 182.16 121.21 181.6Z" fill="black"/>
<path d="M123.21 105.78C123.21 104.89 121.96 102.41 121.6 102.41C121.28 102.41 119.99 104.89 119.99 105.78C119.99 106.67 120.71 107.39 121.6 107.39C122.49 107.39 123.21 106.67 123.21 105.78Z" fill="#70C6F3"/>
<path d="M121.6 107.79C120.49 107.79 119.59 106.89 119.59 105.78C119.59 104.98 120.85 102.01 121.6 102.01C122.41 102.01 123.61 105.03 123.61 105.78C123.61 106.89 122.71 107.79 121.6 107.79ZM121.61 102.93C121.21 103.49 120.38 105.14 120.38 105.78C120.38 106.42 120.92 106.99 121.59 106.99C122.26 106.99 122.81 106.45 122.81 105.78C122.81 105.15 122.02 103.49 121.61 102.93Z" fill="black"/>
<path d="M126.72 172.43C126.72 170.42 123.91 164.84 123.08 164.84C122.36 164.84 119.45 170.43 119.45 172.43C119.45 174.43 121.08 176.07 123.08 176.07C125.08 176.07 126.72 174.44 126.72 172.43Z" fill="#70C6F3"/>
<path d="M123.09 176.46C120.87 176.46 119.06 174.65 119.06 172.43C119.06 170.54 121.94 164.44 123.09 164.44C124.41 164.44 127.12 170.6 127.12 172.43C127.12 174.65 125.31 176.46 123.09 176.46ZM123.1 165.26C122.38 165.84 119.85 170.58 119.85 172.42C119.85 174.26 121.3 175.66 123.09 175.66C124.88 175.66 126.33 174.21 126.33 172.42C126.33 170.63 123.9 165.8 123.11 165.26H123.1Z" fill="black"/>
<path d="M201.82 141.46C201.82 138.91 198.26 131.83 197.21 131.83C196.3 131.83 192.6 138.91 192.6 141.46C192.6 144.01 194.66 146.07 197.21 146.07C199.76 146.07 201.82 144.01 201.82 141.46Z" fill="#70C6F3"/>
<path d="M197.22 146.46C194.46 146.46 192.21 144.21 192.21 141.45C192.21 139.08 195.79 131.42 197.22 131.42C198.65 131.42 202.23 139 202.23 141.45C202.23 144.21 199.98 146.46 197.22 146.46ZM197.23 132.24C196.38 132.76 193.01 139.03 193.01 141.46C193.01 143.89 194.9 145.67 197.22 145.67C199.54 145.67 201.43 143.78 201.43 141.46C201.43 139.14 198.18 132.71 197.23 132.24Z" fill="black"/>
<path d="M201.73 156.53C201.73 155.31 200.02 151.91 199.52 151.91C199.08 151.91 197.31 155.31 197.31 156.53C197.31 157.75 198.3 158.74 199.52 158.74C200.74 158.74 201.73 157.75 201.73 156.53Z" fill="#70C6F3"/>
<path d="M199.51 159.14C198.07 159.14 196.9 157.97 196.9 156.53C196.9 155.51 198.6 151.51 199.51 151.51C200.49 151.51 202.12 155.46 202.12 156.53C202.12 157.97 200.95 159.14 199.51 159.14ZM199.52 152.38C199 152.99 197.69 155.54 197.69 156.52C197.69 157.5 198.5 158.33 199.5 158.33C200.5 158.33 201.31 157.52 201.31 156.52C201.31 155.52 200.05 152.97 199.51 152.38H199.52Z" fill="black"/>
<path d="M238.07 169.71C238.07 168.49 236.36 165.09 235.86 165.09C235.42 165.09 233.65 168.49 233.65 169.71C233.65 170.93 234.64 171.92 235.86 171.92C237.08 171.92 238.07 170.93 238.07 169.71Z" fill="#70C6F3"/>
<path d="M235.85 172.32C234.41 172.32 233.24 171.15 233.24 169.71C233.24 168.69 234.94 164.69 235.85 164.69C236.83 164.69 238.46 168.64 238.46 169.71C238.46 171.15 237.29 172.32 235.85 172.32ZM235.86 165.56C235.34 166.17 234.03 168.72 234.03 169.7C234.03 170.68 234.84 171.51 235.84 171.51C236.84 171.51 237.65 170.7 237.65 169.7C237.65 168.7 236.39 166.15 235.85 165.56H235.86Z" fill="black"/>
<path d="M226.09 213.72C226.09 212.83 224.84 210.35 224.48 210.35C224.16 210.35 222.87 212.83 222.87 213.72C222.87 214.61 223.59 215.33 224.48 215.33C225.37 215.33 226.09 214.61 226.09 213.72Z" fill="#70C6F3"/>
<path d="M224.47 215.73C223.36 215.73 222.46 214.83 222.46 213.72C222.46 212.92 223.72 209.95 224.47 209.95C225.28 209.95 226.48 212.97 226.48 213.72C226.48 214.83 225.58 215.73 224.47 215.73ZM224.48 210.87C224.08 211.43 223.25 213.08 223.25 213.72C223.25 214.36 223.79 214.93 224.46 214.93C225.13 214.93 225.68 214.39 225.68 213.72C225.68 213.09 224.89 211.43 224.48 210.87Z" fill="black"/>
<path d="M226.48 135.05C226.48 134.16 225.23 131.68 224.87 131.68C224.55 131.68 223.26 134.16 223.26 135.05C223.26 135.94 223.98 136.66 224.87 136.66C225.76 136.66 226.48 135.94 226.48 135.05Z" fill="#70C6F3"/>
<path d="M224.87 137.06C223.76 137.06 222.86 136.16 222.86 135.05C222.86 134.25 224.12 131.28 224.87 131.28C225.68 131.28 226.88 134.3 226.88 135.05C226.88 136.16 225.98 137.06 224.87 137.06ZM224.88 132.2C224.48 132.76 223.65 134.41 223.65 135.05C223.65 135.69 224.19 136.26 224.86 136.26C225.53 136.26 226.08 135.72 226.08 135.05C226.08 134.42 225.29 132.76 224.88 132.2Z" fill="black"/>
<path d="M229.99 201.7C229.99 199.69 227.18 194.11 226.35 194.11C225.63 194.11 222.72 199.7 222.72 201.7C222.72 203.7 224.35 205.34 226.35 205.34C228.35 205.34 229.99 203.71 229.99 201.7Z" fill="#70C6F3"/>
<path d="M226.36 205.73C224.14 205.73 222.33 203.92 222.33 201.7C222.33 199.81 225.21 193.71 226.36 193.71C227.68 193.71 230.39 199.87 230.39 201.7C230.39 203.92 228.58 205.73 226.36 205.73ZM226.37 194.53C225.65 195.11 223.12 199.85 223.12 201.69C223.12 203.53 224.57 204.93 226.36 204.93C228.15 204.93 229.6 203.48 229.6 201.69C229.6 199.9 227.17 195.07 226.38 194.53H226.37Z" fill="black"/>
</g>
<defs>
<clipPath id="clip0_102_6417">
<rect width="300" height="270" fill="white"/>
</clipPath>
</defs>
</svg>
