<?xml version="1.0" encoding="utf-8"?>
<!-- Generator: Adobe Illustrator 26.5.2, SVG Export Plug-In . SVG Version: 6.00 Build 0)  -->
<svg version="1.1" id="_레이어_1" xmlns="http://www.w3.org/2000/svg" xmlns:xlink="http://www.w3.org/1999/xlink" x="0px"
	 y="0px" viewBox="0 0 371.3 388.3" style="enable-background:new 0 0 371.3 388.3;" xml:space="preserve">
<style type="text/css">
	.st0{fill:#706EE0;}
	.st1{fill:#A3C9C7;}
	.st2{fill:none;stroke:#FFFFFF;stroke-width:15;stroke-linecap:round;stroke-linejoin:round;stroke-miterlimit:10;}
	.st3{fill:#FFFFFF;}
</style>
<g>
	<g>
		<path class="st0" d="M185.7,197.7c101.1,0,183-28.2,183-63s-81.9-63-183-63s-183,28.2-183,63S84.6,197.7,185.7,197.7"/>
		<path class="st0" d="M185.7,292.2c101.1,0,183-28.2,183-63s-81.9-63-183-63s-183,28.2-183,63S84.6,292.2,185.7,292.2"/>
		<path class="st0" d="M185.7,386.7c101.1,0,183-28.2,183-63s-81.9-63-183-63s-183,28.2-183,63S84.6,386.7,185.7,386.7"/>
		<path class="st1" d="M247.7,61.6c0,33.1-26.8,59.9-59.9,59.9s-59.9-26.8-59.9-59.9s26.8-59.9,59.9-59.9S247.7,28.5,247.7,61.6"/>
	</g>
	<polyline class="st2" points="211.7,44.7 180.6,86.7 163.7,67 	"/>
	<g>
		<path class="st3" d="M274.5,317.5c0,2.6,2.2,4.8,4.8,4.8c2.6,0,4.8-2.2,4.8-4.8s-2.2-4.8-4.8-4.8
			C276.7,312.8,274.5,314.9,274.5,317.5 M274.5,281.5v24.2c0,2.7,2.1,4.8,4.8,4.8c2.6,0,4.8-2.1,4.8-4.8v-24.2
			c0-2.6-2.2-4.8-4.8-4.8C276.6,276.7,274.5,278.8,274.5,281.5 M249.4,311.9h-8.8v-7.3h8.8V311.9z M235.3,291.7
			c0-2.4,1.9-4.4,4.3-4.4h10.8c2.4,0,4.4,2,4.4,4.4c0,2.4-2,4.3-4.4,4.3h-10.8C237.2,296,235.3,294.1,235.3,291.7 M225.3,291.6
			c0,4.8,2.5,9,6.4,11.2c-0.1,0.4-0.1,0.7-0.1,1.1v8h-3c-2.4,0-4.3,2-4.3,4.4c0,2.4,1.9,4.3,4.3,4.3h32.5c2.4,0,4.4-1.9,4.4-4.3
			c0-2.4-2-4.4-4.4-4.4h-2.8v-8c0-0.4,0-0.8-0.1-1.1c3.8-2.3,6.4-6.4,6.4-11.2c0-7.2-5.8-13-13-13.1h-13.3
			C231.2,278.6,225.3,284.4,225.3,291.6 M186.2,311.1v-8.7c0-1.2,0.8-2.1,1.9-2.1c1.2,0,1.9,0.9,1.9,2.1v8.7c0,1.2-0.8,2.1-1.9,2.1
			C187,313.1,186.2,312.2,186.2,311.1 M178.2,301.6v10.1c0,5.6,4.4,10.1,9.9,10.1c5.6,0,9.9-4.5,9.9-10.1v-10.1
			c0-5.6-4.4-10.1-9.9-10.1C182.6,291.5,178.2,296.1,178.2,301.6 M200.1,281.2v37.7c0,2.3,1.8,4.1,4.1,4.1c2.3,0,4.1-1.8,4.1-4.1
			v-15.6h2.9v15.6c0,2.3,1.8,4.1,4.1,4.1s4.1-1.8,4.1-4.1v-37.7c0-2.3-1.8-4.1-4.1-4.1s-4.1,1.8-4.1,4.1V294h-2.9v-12.8
			c0-2.3-1.8-4.1-4.1-4.1C201.9,277.1,200.1,279,200.1,281.2 M176.7,286.4c0,2.3,1.8,4.1,4.1,4.1h14.5c2.3,0,4.1-1.8,4.1-4.1
			c0-2.3-1.9-4.1-4.1-4.1h-3v-1c0-2.3-1.8-4.1-4.1-4.1s-4.1,1.8-4.1,4.1v1h-3.3C178.5,282.2,176.7,284.1,176.7,286.4 M133.1,316.3
			c0,2.4,1.9,4.3,4.3,4.3H170c2.4,0,4.4-1.9,4.4-4.3c0-2.4-2-4.4-4.4-4.4h-32.5C135.1,311.9,133.1,313.9,133.1,316.3 M134.8,294.9
			c0,2.4,1.9,4.3,4.3,4.3H162l0,1c-0.2,2.7,1.7,4.9,4.4,5.1c2.6,0.2,4.9-1.7,5.1-4.4l1.4-17.2c0-0.2,0.1-0.5,0.1-0.8
			c0-2.4-2-4.4-4.4-4.4h-30c-2.4,0-4.3,2-4.3,4.4s1.9,4.3,4.3,4.3H163l-0.3,3.3h-23.6C136.7,290.6,134.8,292.5,134.8,294.9
			 M119.9,281.2v37.7c0,2.3,1.8,4.1,4.1,4.1c2.3,0,4.1-1.8,4.1-4.1v-37.7c0-2.3-1.8-4.1-4.1-4.1C121.8,277.1,119.9,279,119.9,281.2
			 M85.9,286.4c0,2.2,1.6,3.9,3.7,4.1l-3.4,27c-0.3,2.3,1.3,4.3,3.6,4.6c2.3,0.3,4.4-1.2,4.7-3.5l2-16.2h1.2l2,16.2
			c0.2,2.3,2.4,3.8,4.7,3.5c2.3-0.3,3.9-2.3,3.6-4.6l-1.9-15.2c0.9,1,2.2,1.6,3.6,1.6h0.2v15c0,2.3,1.8,4.1,4.1,4.1
			c2.3,0,4.1-1.8,4.1-4.1v-37.7c0-2.3-1.8-4.1-4.1-4.1c-2.3,0-4.1,1.8-4.1,4.1v13.2h-0.2c-1.9,0-3.5,1.1-4.3,2.7
			c-0.6-1.9-2.1-3.4-4.2-3.4h-3.6l0.4-3.2h6c2.3,0,4.1-1.8,4.1-4.1c0-2.3-1.8-4.1-4.1-4.1h-5l0.2-1.3c0.3-2.3-1.3-4.3-3.6-4.6
			c-2.3-0.3-4.4,1.2-4.7,3.5l-0.3,2.4H90C87.7,282.2,85.9,284.1,85.9,286.4"/>
		<path class="st3" d="M212.1,246.6v7.3c0,1.7,1.4,3,3,3h32.4c1.7,0,3.1-1.3,3.1-3s-1.4-3.1-3.1-3.1h-25.8v-1.2h25.8
			c1.7,0,3.1-1.3,3.1-3v-7.2c0-1.7-1.4-3.1-3.1-3.1h-32.3c-1.7,0-3.1,1.4-3.1,3.1c0,1.7,1.4,3,3,3h25.8v1.2h-25.8
			C213.5,243.5,212.1,244.9,212.1,246.6 M210.7,231.7c0,1.8,1.5,3.2,3.3,3.2h34.7c1.8,0,3.3-1.3,3.3-3.2c0-1.8-1.5-3.3-3.3-3.3H214
			C212.1,228.5,210.7,229.9,210.7,231.7 M221.2,219.6c0-0.7,0.5-1.2,1.2-1.2h17.8c0.7,0,1.2,0.5,1.2,1.2c0,0.6-0.5,1.2-1.2,1.2
			h-17.8C221.7,220.7,221.2,220.2,221.2,219.6 M211.6,219.6c0,4.1,3.3,7.4,7.4,7.4h24.5c4.1,0,7.4-3.4,7.4-7.4
			c0-4.1-3.3-7.4-7.4-7.4h-24.5C214.9,212.2,211.6,215.5,211.6,219.6 M174.6,246.8c0-1.2,1-2.2,2.2-2.2h15.7c1.2,0,2.2,1,2.2,2.2
			s-1,2.2-2.2,2.2h-15.7C175.6,248.9,174.6,248,174.6,246.8 M165.1,246.8c0,5.4,4.4,9.8,9.8,9.8v0h19.4c5.5,0,9.9-4.4,9.9-9.9
			s-4.4-9.9-9.9-9.9h-19.4C169.5,236.9,165.1,241.3,165.1,246.8 M167.7,220.5h6.3l-4.8,7.4c-1.5,2.2-0.9,5.2,1.3,6.6
			c2.2,1.4,5.2,1,6.7-1.3l9.5-14.8c1.6-2.5-0.3-6-3.2-6h-15.7c-2.1,0-3.8,1.9-3.8,4C163.9,218.7,165.6,220.5,167.7,220.5
			 M193.6,216.3v14.7c0,2.7,2.1,4.8,4.8,4.8c2.6,0,4.8-2.1,4.8-4.8V228h0.7c2.3,0,4.1-1.8,4.1-4.1s-1.9-4.1-4.1-4.1h-0.7v-3.4
			c0-2.6-2.2-4.8-4.8-4.8C195.7,211.5,193.6,213.7,193.6,216.3 M121.4,242.6v9.9c0,2.3,1.9,4.1,4.1,4.1h30.4c2.3,0,4.1-1.9,4.1-4.1
			c0-2.3-1.8-4.1-4.1-4.1H131v-5.8c0-2.6-2.2-4.8-4.8-4.8C123.5,237.8,121.4,240,121.4,242.6 M123.7,220.8h6.5l-5.3,8.9
			c-1.4,2.3-0.7,5.2,1.7,6.6c2.2,1.3,5.1,0.6,6.5-1.6l9.2-15.3c1.8-2.9,0.3-6.8-3.2-6.8h-15.5c-2.3,0-4.1,1.9-4.1,4.1
			S121.4,220.8,123.7,220.8 M147,228.9h3v8c0,2.7,2.1,4.8,4.8,4.8c2.6,0,4.8-2.1,4.8-4.8v-20.5c0-2.6-2.2-4.8-4.8-4.8
			c-2.7,0-4.8,2.2-4.8,4.8v3.9h-3c-2.4,0-4.4,2-4.4,4.4S144.6,228.9,147,228.9"/>
		<path class="st3" d="M234.9,151.3c0,2.1,1.7,3.8,3.8,3.8h25v2.2h-25c-2.2,0-3.8,1.7-3.8,3.9v9.9c0,2.1,1.7,3.8,3.8,3.8h10.6v5.9
			h-11.5c-2.4,0-4.3,2-4.3,4.4c0,2.4,1.9,4.3,4.3,4.3h32.6c2.4,0,4.4-1.9,4.4-4.3c0-2.4-2-4.4-4.4-4.4h-11.5v-5.9h11
			c2.2,0,3.9-1.7,3.9-3.8c0-2.2-1.7-3.9-3.9-3.9h-25.4v-2.2h24.9c2.2,0,3.9-1.7,3.9-3.8v-9.9c0-2.2-1.7-3.9-3.9-3.9h-30.7
			C236.6,147.4,234.9,149.1,234.9,151.3 M187.9,185.1c0,2.4,1.9,4.3,4.3,4.3h32.5c2.4,0,4.4-1.9,4.4-4.3c0-2.4-2-4.4-4.4-4.4h-32.5
			C189.8,180.7,187.9,182.7,187.9,185.1 M198.8,160.5c0-2.4,1.9-4.4,4.3-4.4h10.8c2.4,0,4.4,2,4.4,4.4c0,2.4-2,4.3-4.4,4.3h-10.8
			C200.7,164.8,198.8,162.9,198.8,160.5 M188.9,160.4c0,7.2,5.8,13,13,13h13.2c7.2,0,13.1-5.8,13.1-13c0-7.2-5.8-13-13-13.1h-13.3
			C194.7,147.4,188.9,153.2,188.9,160.4 M172.5,185.1h-19.2v-2.2h19.2V185.1z M143.7,177.5v10.7c0,1.7,1.4,3,3.1,3H179
			c1.7,0,3.1-1.3,3.1-3v-10.7c0-2.6-2.2-4.8-4.8-4.8c-2.4,0-4.3,1.7-4.8,3.9h-19.3c-0.4-2.2-2.4-3.9-4.7-3.9
			C145.8,172.7,143.7,174.9,143.7,177.5 M143.5,149.2v12.7c0,1.5,1.2,2.7,2.7,2.7H158v1.2h-12.6c-1.7,0-3.1,1.4-3.1,3.2
			c0,1.7,1.4,3,3.1,3h35.1c1.7,0,3.1-1.3,3.1-3c0-1.8-1.4-3.2-3.1-3.2h-12.7v-1.2h11.8c1.6,0,2.8-1.2,2.8-2.7c0-1.5-1.2-2.7-2.8-2.7
			h-26.3v-1h26c1.5,0,2.8-1.1,2.8-2.6c0-1.6-1.2-2.7-2.8-2.7h-26v-1h26c1.5,0,2.8-1.2,2.8-2.7c0-1.5-1.2-2.7-2.8-2.7h-33
			C144.7,146.4,143.5,147.6,143.5,149.2 M136.7,187c0-2.2-1.8-3.9-4-3.9h-25.1v-3.4c0-2.7-2.1-4.8-4.8-4.8c-2.6,0-4.8,2.1-4.8,4.8
			v7.3c0,2.2,1.8,4,4,4h30.7C135,191.1,136.7,189.2,136.7,187 M96.7,168.8c0,2.2,1.8,3.9,4,3.9h33.3c2.2,0,4-1.7,4-3.9
			c0-2.2-1.8-4-4-4h-11.8v-2.7c0-2.6-2.2-4.8-4.8-4.8c-2.7,0-4.8,2.2-4.8,4.8v2.7h-11.9C98.4,164.8,96.7,166.6,96.7,168.8
			 M103.6,161.8l13.7-7.2l13.7,7.2c2.1,1.1,4.7,0.3,5.7-1.8c1.1-2.1,0.1-4.8-2-5.8l-15.3-8c-1.4-0.7-3.1-0.7-4.4,0l-15.3,8
			c-2.1,1-3,3.6-2,5.8C98.9,162.1,101.5,162.9,103.6,161.8"/>
	</g>
</g>
</svg>
