<svg width="300" height="270" viewBox="0 0 300 270" fill="none" xmlns="http://www.w3.org/2000/svg">
<g clip-path="url(#clip0_102_6566)">
<g clip-path="url(#clip1_102_6566)">
<path d="M173.8 263.11C240.174 263.11 293.98 209.304 293.98 142.93C293.98 76.5564 240.174 22.75 173.8 22.75C107.427 22.75 53.6201 76.5564 53.6201 142.93C53.6201 209.304 107.427 263.11 173.8 263.11Z" fill="#70C6F3" stroke="black" stroke-width="1.5" stroke-miterlimit="10"/>
<path d="M79.89 262.4C120.836 262.4 154.03 229.206 154.03 188.26C154.03 147.314 120.836 114.12 79.89 114.12C38.9436 114.12 5.75 147.314 5.75 188.26C5.75 229.206 38.9436 262.4 79.89 262.4Z" fill="#70C6F3" stroke="black" stroke-width="1.5" stroke-miterlimit="10"/>
<path d="M100.28 124.68L106.07 146.97L119.95 128.59L116.76 151.4L136.62 139.73L124.95 159.58L147.75 156.4L129.38 170.28L151.66 176.06L129.38 181.85L147.75 195.73L124.95 192.54L136.62 212.4L116.76 200.73L119.95 223.53L106.07 205.16L100.28 227.44L94.4999 205.16L80.6199 223.53L83.7999 200.73L63.9499 212.4L75.6199 192.54L52.8099 195.73L71.1899 181.85L48.8999 176.06L71.1899 170.28L52.8099 156.4L75.6199 159.58L63.9499 139.73L83.7999 151.4L80.6199 128.59L94.4999 146.97L100.28 124.68Z" fill="white"/>
<path d="M292.07 269.58H11.5599C11.0599 269.58 10.6499 269.17 10.6499 268.67C10.6499 268.17 11.0599 267.76 11.5599 267.76H292.07C292.57 267.76 292.98 268.17 292.98 268.67C292.98 269.17 292.57 269.58 292.07 269.58Z" fill="black"/>
<path d="M129.13 33.98C127.73 32.32 125.25 32.11 123.59 33.51C122.23 34.65 120.39 37.2 118.46 40.23C117.87 38.68 117.21 37.19 116.58 35.88C117.23 31.77 117.98 27.45 118.66 24.47L120.4 16.83C120.88 14.72 119.57 12.6 117.44 12.13C115.33 11.65 113.22 12.97 112.74 15.09L111 22.73C110.45 25.15 109.87 28.34 109.32 31.59C108.65 31.63 107.94 31.67 107.19 31.72C107.94 23.98 108.89 16.27 109.73 13.82C110.44 11.77 109.34 9.53001 107.3 8.83001C105.25 8.12001 103.01 9.21001 102.31 11.26C101.42 13.84 100.6 19.55 99.9399 25.46C99.9999 21.12 100.18 16.76 100.59 14.17C100.93 12.03 99.4599 10.02 97.3199 9.68001C95.1799 9.34001 93.1599 10.8 92.8299 12.95C92.1599 17.19 92.0399 25.07 92.0599 31.09C91.4199 27.09 90.8099 22.87 90.6299 20.42C90.4699 18.26 88.5799 16.63 86.4199 16.8C84.2599 16.96 82.6399 18.85 82.7999 21.01C83.2599 27.05 85.9399 42.01 86.0499 42.65C86.0699 42.78 86.1099 42.91 86.1399 43.03C86.1199 43.72 86.1199 44.44 86.1199 45.19C86.1099 45.19 86.0999 45.18 86.0899 45.17C84.0999 47.97 82.1999 50.6 81.3499 51.63C80.8099 52.29 45.1699 99.74 46.4899 113.75C48.4499 134.58 90.1099 154.13 90.1099 154.13L125.18 124.66C125.18 124.66 88.9299 107.27 88.1399 104.52C87.6399 102.77 108.45 72.07 108.45 72.07C108.45 72.07 115.99 63.85 119.01 54.94C122.93 47.77 127.13 40.82 128.64 39.54C130.3 38.14 130.51 35.66 129.11 34L129.13 33.98Z" fill="#FFD8CD"/>
<path d="M90.1098 154.71C90.0198 154.71 89.9298 154.69 89.8498 154.65C88.1398 153.85 47.8598 134.71 45.8798 113.78C44.5298 99.46 80.5098 51.66 80.8698 51.22C81.5798 50.35 83.1398 48.23 85.4998 44.9C85.4998 44.27 85.4998 43.66 85.5198 43.08C85.4898 42.97 85.4598 42.85 85.4398 42.73C85.4098 42.58 82.6498 27.22 82.1798 21.03C82.0898 19.82 82.4698 18.65 83.2598 17.73C84.0498 16.81 85.1498 16.26 86.3598 16.17C88.8498 15.98 91.0298 17.88 91.2198 20.35C91.2798 21.1 91.3798 22.05 91.5198 23.19C91.6198 19.23 91.8198 15.38 92.2298 12.83C92.5798 10.61 94.4598 8.99999 96.6998 8.99999C96.9398 8.99999 97.1798 9.01999 97.4098 9.05999C99.4398 9.38999 100.95 11.02 101.2 12.97C101.38 12.2 101.56 11.56 101.73 11.05C102.36 9.21999 104.08 7.98999 106.02 7.98999C106.52 7.98999 107.02 8.06999 107.5 8.23999C108.64 8.62999 109.56 9.44999 110.09 10.54C110.62 11.63 110.7 12.86 110.3 14.01C109.61 16.02 108.74 22.06 107.85 31.06C108.17 31.04 108.49 31.02 108.79 31C109.38 27.49 109.92 24.66 110.39 22.58L112.13 14.94C112.6 12.86 114.42 11.41 116.55 11.41C116.89 11.41 117.23 11.45 117.56 11.52C118.74 11.78 119.74 12.49 120.39 13.51C121.04 14.54 121.25 15.76 120.98 16.95L119.24 24.59C118.67 27.11 117.98 30.88 117.2 35.78C117.71 36.84 118.17 37.89 118.58 38.9C120.5 35.97 122.05 34 123.19 33.03C124.01 32.34 125.04 31.96 126.11 31.96C127.45 31.96 128.72 32.55 129.58 33.57C131.19 35.48 130.94 38.35 129.03 39.96C127.73 41.05 123.93 47.15 119.56 55.14C116.59 63.85 109.52 71.74 108.92 72.4C101.25 83.71 89.0998 102.23 88.7398 104.35C89.9098 106.45 111.8 117.53 125.44 124.07C125.63 124.16 125.75 124.34 125.78 124.54C125.81 124.74 125.73 124.95 125.57 125.08L90.4998 154.55C90.3898 154.64 90.2498 154.69 90.1098 154.69V154.71ZM86.4598 45.66C84.1098 48.98 82.5398 51.1 81.8198 51.99C81.4598 52.44 45.7898 99.81 47.0998 113.67C48.9198 132.92 86.0198 151.44 90.0298 153.39L124.08 124.77C114.66 120.24 88.3398 107.37 87.5698 104.66C87.4198 104.15 87.1798 103.3 97.6098 87.28C102.69 79.47 107.91 71.78 107.96 71.7C107.98 71.68 107.99 71.65 108.02 71.63C108.09 71.55 115.51 63.4 118.46 54.71C118.47 54.68 118.49 54.64 118.5 54.61C121.93 48.34 126.55 40.5 128.28 39.04C129.68 37.86 129.86 35.76 128.68 34.36C128.05 33.61 127.12 33.18 126.14 33.18C125.36 33.18 124.6 33.46 124 33.96C122.83 34.95 121.14 37.16 118.99 40.55C118.87 40.74 118.65 40.85 118.42 40.83C118.19 40.81 118 40.66 117.92 40.44C117.4 39.08 116.78 37.63 116.06 36.14C116.01 36.03 115.99 35.9 116.01 35.78C116.81 30.76 117.51 26.91 118.09 24.33L119.83 16.69C120.03 15.82 119.88 14.92 119.4 14.17C118.93 13.43 118.19 12.91 117.33 12.72C117.08 12.66 116.83 12.64 116.59 12.64C115.03 12.64 113.7 13.7 113.35 15.23L111.61 22.87C111.12 25.02 110.56 27.99 109.94 31.69C109.89 31.97 109.66 32.18 109.38 32.2C108.72 32.24 108.01 32.28 107.26 32.33C107.08 32.33 106.91 32.27 106.78 32.15C106.66 32.02 106.59 31.85 106.61 31.67C107.14 26.18 108.19 16.52 109.18 13.63C109.47 12.79 109.41 11.89 109.02 11.09C108.63 10.29 107.96 9.68999 107.12 9.40999C106.77 9.28999 106.4 9.22999 106.04 9.22999C104.62 9.22999 103.36 10.13 102.9 11.47C102.15 13.65 101.36 18.38 100.56 25.54C100.52 25.86 100.24 26.08 99.9198 26.08C99.5998 26.06 99.3498 25.79 99.3498 25.47C99.4298 20.19 99.6498 16.36 99.9998 14.1C100.28 12.3 99.0398 10.59 97.2398 10.3C97.0698 10.27 96.8898 10.26 96.7198 10.26C95.0798 10.26 93.6998 11.44 93.4398 13.06C92.7698 17.27 92.6598 25.2 92.6798 31.1C92.6798 31.42 92.4398 31.68 92.1198 31.71C91.7998 31.74 91.5198 31.51 91.4698 31.2C90.6698 26.19 90.1898 22.58 90.0298 20.48C89.8898 18.67 88.3098 17.28 86.4698 17.42C85.5798 17.49 84.7798 17.89 84.1998 18.57C83.6198 19.24 83.3398 20.1 83.4098 20.99C83.8698 27.12 86.6298 42.41 86.6598 42.56C86.6798 42.67 86.7098 42.78 86.7398 42.88C86.7598 42.94 86.7598 43 86.7598 43.06C86.7398 43.74 86.7398 44.46 86.7398 45.2C86.7398 45.4 86.6398 45.59 86.4698 45.7L86.4598 45.66Z" fill="black"/>
<path d="M121.62 191.59C124.65 184.93 128.28 178.87 130.1 172.2C133.13 160.69 118.59 163.72 113.74 158.26C111.32 155.84 110.1 151.6 106.47 150.38C99.8097 149.17 95.5596 154.62 93.7496 160.07C93.7196 160.1 93.6796 160.14 93.6396 160.18L107.16 168.69C112.43 172.01 115.59 177.82 115.5 184.04C115.45 187.51 115.4 191.46 115.34 195.69C118.31 195.28 120.75 194.2 121.63 191.57L121.62 191.59Z" fill="#D8C5BF"/>
<path d="M251.09 193.2C249.2 188.77 245.51 180.11 243.87 176.3C241.63 171.07 239.02 155.62 234.54 146.15C230.06 136.69 195.01 124.71 195.01 124.71C195.01 124.71 194.26 120.48 193.27 118.73C192.27 116.99 188.54 117.48 188.54 117.48C188.54 117.48 171.86 119.47 166.38 117.48C160.9 115.49 158.16 120.47 158.16 120.47C158.16 120.47 153.78 114.7 134.52 116.27C119.99 117.46 116.44 117.06 103.08 112.34C97.5998 110.41 83.8198 153.99 83.8198 153.99L93.6298 160.17C93.6298 160.17 93.7098 160.1 93.7398 160.06C95.5598 154.61 99.7998 149.15 106.46 150.37C110.1 151.58 111.31 155.82 113.73 158.25C118.58 163.7 133.12 160.67 130.09 172.19C128.27 178.85 124.64 184.91 121.61 191.58C120.73 194.22 118.29 195.29 115.32 195.7C114.94 224.87 114.46 267.96 114.46 267.96L215.45 269.53L213.83 200.46C213.83 200.46 207.35 203.46 214.07 200.22C219.53 197.59 241.32 196.39 249.29 196.03C250.71 195.97 251.63 194.5 251.07 193.19L251.09 193.2Z" fill="white"/>
<path d="M215.47 270.15L114.48 268.58C114.15 268.58 113.88 268.3 113.88 267.97C113.88 267.4 114.51 211.15 114.9 184.06C114.99 178.09 111.9 172.41 106.85 169.23L83.5096 154.54C83.2796 154.39 83.1696 154.11 83.2496 153.84C85.4696 146.8 96.8696 111.7 102.72 111.7C102.92 111.7 103.11 111.73 103.29 111.8C112.62 115.09 117.14 116.26 123.92 116.26C126.51 116.26 129.57 116.1 134.48 115.7C136.7 115.52 138.84 115.43 140.83 115.43C152.04 115.43 156.6 118.29 158.07 119.56C158.87 118.48 160.79 116.45 163.87 116.45C164.75 116.45 165.66 116.62 166.59 116.96C168.14 117.52 170.82 117.81 174.56 117.81C181.02 117.81 188.4 116.94 188.47 116.93C188.48 116.93 189 116.86 189.71 116.86C191.15 116.86 193.03 117.14 193.8 118.48C194.67 120.01 195.34 123.22 195.55 124.3C199.38 125.63 230.75 136.74 235.1 145.93C237.82 151.68 239.87 159.67 241.52 166.1C242.62 170.37 243.56 174.06 244.44 176.1C246.07 179.91 249.77 188.57 251.66 193C252 193.8 251.93 194.71 251.47 195.45C251.01 196.18 250.22 196.64 249.35 196.68C242.56 196.98 220.1 198.17 214.48 200.76L216.09 269.56C216.09 269.72 216.03 269.88 215.91 270C215.8 270.11 215.64 270.18 215.48 270.18L215.47 270.15ZM115.09 267.38L214.85 268.93L213.27 201.41C211.24 202.34 211.19 202.34 211.04 202.34C210.76 202.34 210.51 202.14 210.45 201.87C210.39 201.6 210.36 201.48 210.87 201.17C210.87 201.17 210.91 201.14 210.94 201.13C211.41 200.85 212.27 200.44 213.83 199.69C219.32 197.05 240.45 195.84 249.29 195.44C249.77 195.42 250.19 195.18 250.44 194.77C250.69 194.37 250.73 193.88 250.54 193.44C248.65 189.01 244.96 180.35 243.32 176.54C242.41 174.42 241.45 170.69 240.34 166.37C238.7 159.99 236.67 152.06 233.99 146.42C229.67 137.3 195.16 125.42 194.81 125.3C194.6 125.23 194.45 125.05 194.41 124.83C194.41 124.79 193.67 120.68 192.74 119.05C192.37 118.41 191.27 118.04 189.71 118.04C189.09 118.04 188.62 118.1 188.62 118.1C188.54 118.11 181.09 118.99 174.56 118.99C170.68 118.99 167.85 118.68 166.17 118.07C165.38 117.78 164.6 117.64 163.87 117.64C160.48 117.64 158.77 120.66 158.69 120.79C158.59 120.97 158.41 121.09 158.2 121.1C157.99 121.12 157.8 121.03 157.67 120.86C157.64 120.82 154.18 116.63 140.81 116.63C138.85 116.63 136.75 116.72 134.56 116.9C129.62 117.3 126.53 117.47 123.91 117.47C116.95 117.47 112.35 116.28 102.88 112.94C102.83 112.92 102.77 112.91 102.71 112.91C98.9196 112.91 89.6196 137.77 84.5396 153.76L107.48 168.2C112.89 171.61 116.19 177.69 116.1 184.08C115.73 209.66 115.16 261.22 115.09 267.39V267.38Z" fill="black"/>
<path d="M194.05 104.23L190.13 121.64C190.13 121.64 182.77 130.12 170.29 129.79C170.29 129.79 162.67 125.64 162.15 119.83C162.15 119.83 164.5 112.06 164.85 106.75C165.2 101.44 194.05 104.24 194.05 104.24V104.23Z" fill="#FFD8CD"/>
<path d="M171.01 130.4C170.77 130.4 170.53 130.4 170.28 130.4C170.18 130.4 170.09 130.37 170.01 130.33C169.69 130.15 162.1 125.95 161.55 119.89C161.55 119.81 161.55 119.73 161.57 119.66C161.59 119.58 163.91 111.89 164.25 106.71C164.36 105.07 166 102.89 179.01 102.89C186.4 102.89 194.04 103.62 194.11 103.63C194.28 103.65 194.44 103.74 194.54 103.88C194.64 104.02 194.68 104.2 194.64 104.37L190.72 121.78C190.7 121.88 190.65 121.97 190.59 122.04C190.29 122.38 183.18 130.41 171.01 130.41V130.4ZM170.46 129.18C181.62 129.44 188.67 122.31 189.58 121.34L193.31 104.76C191.28 104.58 185.06 104.09 179.01 104.09C166.6 104.09 165.5 106.14 165.46 106.77C165.13 111.8 163.07 118.85 162.77 119.87C163.3 124.85 169.51 128.61 170.46 129.17V129.18Z" fill="black"/>
<path d="M179.07 144.13C179.07 144.13 178.99 144.13 178.95 144.12C178.78 144.09 178.63 143.98 178.54 143.83L171.02 130.58L156.17 137.72C155.98 137.81 155.76 137.8 155.58 137.68C155.4 137.57 155.3 137.37 155.3 137.16C155.3 137.07 155.45 128.28 157.56 120.33C157.65 120.01 157.98 119.82 158.3 119.9C158.62 119.99 158.82 120.32 158.73 120.64C157.07 126.9 156.64 133.7 156.54 136.19L171 129.24C171.29 129.1 171.63 129.21 171.79 129.49L179.25 142.62C181.84 140.56 192.83 131.49 194.42 124.59C194.5 124.26 194.82 124.06 195.15 124.14C195.48 124.22 195.68 124.54 195.6 124.87C193.7 133.08 180.02 143.57 179.44 144.02C179.33 144.1 179.2 144.14 179.07 144.14V144.13Z" fill="black"/>
<path d="M200.99 157.45C200.82 157.45 200.64 157.38 200.52 157.23C200.31 156.97 200.34 156.59 200.6 156.38C210.61 148.04 221.11 147.62 221.55 147.61C221.89 147.59 222.16 147.86 222.17 148.2C222.18 148.53 221.92 148.81 221.58 148.82C221.48 148.82 211.03 149.25 201.36 157.31C201.25 157.4 201.11 157.45 200.97 157.45H200.99Z" fill="black"/>
<path d="M199.74 191.32C199.45 191.32 199.19 191.11 199.14 190.81L196.9 176.37C196.85 176.04 197.08 175.73 197.41 175.68C197.74 175.63 198.05 175.86 198.1 176.19L200.34 190.63C200.39 190.96 200.16 191.27 199.83 191.32C199.8 191.32 199.77 191.32 199.74 191.32Z" fill="black"/>
<path d="M163.81 113.36L162.89 116.96C162.89 116.96 170.91 120.1 181.8 113.46L163.82 113.37L163.81 113.36Z" fill="black"/>
<path d="M161.009 85.1502C161.009 85.1502 155.709 77.6102 151.479 82.8402C147.249 88.0702 151.419 94.8002 157.199 95.6902" fill="#FFD8CD"/>
<path d="M157.2 96.3001C157.2 96.3001 157.14 96.3001 157.11 96.3001C153.8 95.7901 150.89 93.4701 149.7 90.3901C148.65 87.6801 149.13 84.7901 151.01 82.4701C152.16 81.0501 153.5 80.3601 155 80.4001C158.45 80.5201 161.38 84.6301 161.5 84.8101C161.69 85.0801 161.63 85.4601 161.35 85.6501C161.08 85.8401 160.7 85.7801 160.51 85.5001C160.48 85.4601 157.8 81.7001 154.96 81.6001C153.85 81.5601 152.86 82.0901 151.95 83.2201C150.33 85.2301 149.93 87.6101 150.83 89.9401C151.87 92.6301 154.41 94.6501 157.3 95.0901C157.63 95.1401 157.86 95.4501 157.81 95.7801C157.76 96.0801 157.51 96.2901 157.21 96.2901L157.2 96.3001Z" fill="black"/>
<path d="M154.55 90.9301C154.48 90.9301 154.42 90.9101 154.36 90.8601C153.22 89.9301 152.57 88.7601 152.53 87.5601C152.5 86.5001 152.96 85.4701 153.83 84.6601C154.2 84.3201 154.65 84.1601 155.17 84.2001C157.06 84.3501 159.27 87.1201 159.36 87.2301C159.46 87.3601 159.44 87.5501 159.31 87.6601C159.18 87.7701 158.99 87.7401 158.88 87.6101C158.86 87.5801 156.74 84.9301 155.12 84.8001C154.77 84.7701 154.48 84.8701 154.24 85.1001C153.49 85.7901 153.11 86.6301 153.14 87.5301C153.17 88.5501 153.74 89.5601 154.75 90.3801C154.88 90.4901 154.9 90.6801 154.79 90.8101C154.73 90.8801 154.64 90.9201 154.55 90.9201V90.9301Z" fill="black"/>
<path d="M159.3 67.25C156.69 71.23 157.56 83.31 157.56 83.31L164.33 72.12L159.3 67.25Z" fill="black"/>
<path d="M202.44 90.6499C202.44 90.6499 212.42 79.6599 202.92 63.7099C193.42 47.7599 174.65 50.5499 165.62 59.6999C156.59 68.8499 161.42 73.8199 157.38 84.8099C153.34 95.7999 154.04 103.15 157.98 108.53C161.65 113.53 175.03 119.19 185.17 112.57C193.71 106.99 202.44 90.6499 202.44 90.6499Z" fill="#FFD8CD"/>
<path d="M179.149 92.1599C179.519 90.8999 180.229 89.9999 180.739 90.1499C181.249 90.2999 181.369 91.4399 180.999 92.6999C180.629 93.9599 179.919 94.8599 179.409 94.7099C178.899 94.5599 178.779 93.4199 179.149 92.1599Z" fill="black"/>
<path d="M163.059 87.3C163.429 86.04 164.139 85.14 164.649 85.29C165.159 85.44 165.28 86.58 164.91 87.84C164.54 89.1 163.83 90 163.32 89.85C162.81 89.7 162.689 88.56 163.059 87.3Z" fill="black"/>
<path d="M167.269 105.13C171.479 105.71 175.529 103.44 175.739 103.32C175.879 103.24 175.919 103.07 175.849 102.93C175.769 102.79 175.599 102.75 175.459 102.82C175.399 102.86 169.009 106.43 164.189 103.44C164.059 103.36 163.879 103.4 163.799 103.53C163.719 103.66 163.759 103.84 163.889 103.92C164.979 104.59 166.129 104.96 167.269 105.12V105.13Z" fill="black"/>
<path d="M184.72 90.0499C184.97 90.0799 185.24 90.0199 185.46 89.8599C185.91 89.5299 186 88.8999 185.67 88.4499C185.58 88.3299 183.39 85.4199 180.58 84.7699C180.04 84.6499 179.5 84.9799 179.37 85.5299C179.25 86.0699 179.58 86.6099 180.13 86.7399C182.21 87.2199 184.04 89.6299 184.05 89.6599C184.22 89.8799 184.46 90.0199 184.72 90.0599V90.0499Z" fill="black"/>
<path d="M162.1 82.7699C162.27 82.7899 162.45 82.7699 162.61 82.7099C162.66 82.6899 164.87 81.8399 167.44 82.6799C167.97 82.8499 168.54 82.5599 168.71 82.0399C168.88 81.5099 168.59 80.9399 168.07 80.7699C164.76 79.6899 161.97 80.7999 161.85 80.8499C161.34 81.0599 161.09 81.6499 161.3 82.1599C161.44 82.4999 161.75 82.7299 162.09 82.7799L162.1 82.7699Z" fill="black"/>
<path d="M176.069 104.26C176.069 104.26 176.159 104.26 176.209 104.24C176.359 104.18 176.429 104.02 176.369 103.87L175.739 102.22C175.679 102.07 175.519 102 175.369 102.06C175.219 102.12 175.149 102.28 175.209 102.43L175.839 104.08C175.879 104.18 175.969 104.25 176.069 104.26Z" fill="black"/>
<path d="M168.539 98.93C168.449 98.93 168.36 98.89 168.3 98.81C168.22 98.71 166.38 96.24 166.47 94.22C166.53 92.73 167.72 91.79 169.22 90.61C169.85 90.12 170.56 89.56 171.28 88.89C171.4 88.78 171.59 88.78 171.71 88.91C171.82 89.03 171.82 89.22 171.69 89.34C170.95 90.03 170.229 90.59 169.589 91.09C168.159 92.22 167.12 93.03 167.07 94.25C166.99 96.06 168.76 98.43 168.78 98.45C168.88 98.58 168.85 98.77 168.72 98.87C168.67 98.91 168.599 98.93 168.539 98.93Z" fill="black"/>
<path d="M201.78 99.95C206.76 95.18 216.47 85.09 208.63 69.97C208.63 69.97 212.74 66.7 210.75 65.06C208.76 63.42 207.64 67.24 207.64 67.24C207.64 67.24 210.13 60.15 208.51 59.47C206.89 58.79 205.9 63.97 205.9 63.97C205.9 63.97 205.15 56.88 196.31 53.2C187.47 49.52 170.29 52.38 161.95 58.38C153.61 64.38 152.61 74.08 158.71 73.67C164.81 73.26 170.79 67.78 170.79 67.78C170.79 67.78 164.06 74.89 169.29 77.48C174.52 80.07 186.23 73.37 186.23 73.37C186.23 73.37 176.89 79.64 178.26 82.23C179.63 84.82 195.82 81.14 195.82 81.14L193.17 95.43L201.8 99.95H201.78Z" fill="black"/>
<path d="M192.79 95.2502C192.79 95.2502 204.27 89.5102 204.95 98.8102C205.44 105.52 196.83 107.6 192 104.31" fill="#FFD8CD"/>
<path d="M197.27 106.45C195.27 106.45 193.26 105.9 191.67 104.81C191.39 104.62 191.32 104.24 191.51 103.97C191.7 103.69 192.08 103.62 192.35 103.81C194.95 105.58 198.82 105.73 201.54 104.16C203.52 103.02 204.52 101.13 204.35 98.8501C204.2 96.8201 203.49 95.4301 202.23 94.7101C198.99 92.8601 193.12 95.7601 193.06 95.7901C192.76 95.9401 192.4 95.8201 192.25 95.5201C192.1 95.2201 192.22 94.8601 192.52 94.7101C192.78 94.5801 199.03 91.5001 202.83 93.6601C204.46 94.5901 205.38 96.3001 205.56 98.7601C205.76 101.53 204.55 103.82 202.14 105.21C200.7 106.04 198.99 106.45 197.27 106.45Z" fill="black"/>
<path d="M197.8 102.73C197.66 102.73 197.52 102.73 197.38 102.72C197.21 102.71 197.09 102.56 197.1 102.4C197.11 102.23 197.26 102.1 197.42 102.12C198.72 102.21 199.82 101.85 200.54 101.13C201.17 100.49 201.47 99.62 201.39 98.6C201.37 98.27 201.22 98 200.95 97.78C199.68 96.76 196.32 97.26 196.28 97.27C196.11 97.29 195.96 97.18 195.94 97.02C195.92 96.86 196.03 96.7 196.19 96.68C196.34 96.66 199.85 96.14 201.32 97.32C201.73 97.64 201.95 98.06 201.99 98.57C202.08 99.75 201.71 100.82 200.97 101.57C200.21 102.34 199.09 102.75 197.8 102.75V102.73Z" fill="black"/>
<path d="M174.699 116.4C174.619 116.4 174.549 116.4 174.479 116.4C172.339 116.32 161.399 115.51 156.199 106.87C152.309 100.42 155.009 90.46 156.629 84.51C157.089 82.8 157.459 81.45 157.489 80.79C157.509 80.46 157.799 80.21 158.129 80.21C158.459 80.23 158.719 80.51 158.699 80.85C158.659 81.64 158.299 82.98 157.799 84.83C156.239 90.59 153.619 100.24 157.239 106.25C162.119 114.35 172.489 115.12 174.519 115.19C177.069 115.25 183.449 113.39 185.329 111.97C185.599 111.77 185.979 111.82 186.179 112.09C186.379 112.36 186.329 112.74 186.059 112.94C183.989 114.49 177.659 116.4 174.699 116.41V116.4Z" fill="black"/>
<path d="M167.05 154.3C167.05 154.3 166.98 154.3 166.95 154.3L159.16 153C158.99 152.97 158.84 152.87 158.75 152.72C158.66 152.57 158.63 152.39 158.68 152.23L164.37 132.65C164.46 132.33 164.8 132.14 165.12 132.24C165.44 132.33 165.63 132.67 165.53 132.99L160.03 151.92L166.61 153.02L172.16 132.37C172.25 132.05 172.58 131.86 172.9 131.94C173.22 132.03 173.41 132.36 173.33 132.68L167.64 153.86C167.57 154.13 167.32 154.31 167.06 154.31L167.05 154.3Z" fill="black"/>
<path d="M167.6 137.41C168.456 137.41 169.15 136.716 169.15 135.86C169.15 135.004 168.456 134.31 167.6 134.31C166.744 134.31 166.05 135.004 166.05 135.86C166.05 136.716 166.744 137.41 167.6 137.41Z" fill="black"/>
<path d="M166.205 144.123C167.05 143.985 167.624 143.189 167.487 142.344C167.35 141.499 166.554 140.926 165.709 141.063C164.864 141.2 164.29 141.996 164.427 142.841C164.564 143.686 165.36 144.26 166.205 144.123Z" fill="black"/>
<path d="M164.15 150.75C165.006 150.75 165.7 150.056 165.7 149.2C165.7 148.344 165.006 147.65 164.15 147.65C163.294 147.65 162.6 148.344 162.6 149.2C162.6 150.056 163.294 150.75 164.15 150.75Z" fill="black"/>
<path d="M124.07 157.92C123.77 157.92 123.51 157.7 123.47 157.4C122.76 152.27 117.98 145.85 117.93 145.78C117.73 145.51 117.78 145.13 118.05 144.93C118.32 144.73 118.7 144.78 118.9 145.05C119.1 145.32 123.91 151.79 124.67 157.23C124.72 157.56 124.48 157.87 124.15 157.91C124.12 157.91 124.09 157.91 124.07 157.91V157.92Z" fill="black"/>
<path d="M242.92 195.4C247.85 194.6 249.3 195.38 249.43 194.05C249.56 192.72 241.55 192.62 241.55 192.62L242.92 195.4Z" fill="black"/>
<path d="M242.41 192.89C242.41 192.89 260.13 235.33 234.61 250.3C209.09 265.27 175.72 210.06 175.72 210.06C175.72 210.06 161.49 207.61 159.77 200.25C159.77 200.25 157.4 203.36 153.88 201.31C150.36 199.26 146.11 187.57 149.55 183.23C149.55 183.23 149.06 178.4 153.31 176.2C153.31 176.2 152.08 172.6 155.6 170.23C155.6 170.23 144.8 168.51 147.18 162.21C147.18 162.21 146.44 160.82 158.14 160.33C169.84 159.84 174.42 161.8 177.85 164.09C181.29 166.38 191.1 179.06 193.55 181.84C196 184.62 211.05 197.3 211.05 197.3C211.05 197.3 221.37 191.02 242.41 192.89Z" fill="#FFD8CD"/>
<path d="M225.2 253.48C202.18 253.48 177.65 214.38 175.34 210.61C173.37 210.23 162.01 207.81 159.49 201.38C158.81 201.94 157.7 202.61 156.26 202.61C155.37 202.61 154.46 202.35 153.57 201.83C151.34 200.53 148.89 195.83 148 191.13C147.34 187.65 147.67 184.8 148.92 183.05C148.88 182.02 148.96 178.06 152.61 175.89C152.42 174.87 152.26 172.51 154.23 170.56C152.21 170.07 148.35 168.82 146.85 166.24C146.13 165 146.03 163.62 146.56 162.13C146.56 162 146.6 161.87 146.68 161.75C146.9 161.36 147.59 160.17 158.11 159.73C159.32 159.68 160.49 159.65 161.58 159.65C170.98 159.65 175.11 161.54 178.18 163.59C180.82 165.35 186.9 172.8 190.93 177.74C192.3 179.42 193.38 180.74 194 181.44C196.2 183.93 208.92 194.71 211.12 196.56C212.89 195.61 220.63 191.93 234.76 191.93C237.25 191.93 239.85 192.05 242.46 192.28C242.68 192.3 242.88 192.44 242.97 192.65C243.01 192.76 247.45 203.49 248.68 215.91C250.33 232.49 245.57 244.56 234.91 250.81C231.91 252.57 228.64 253.47 225.2 253.47V253.48ZM159.77 199.64C159.77 199.64 159.85 199.64 159.9 199.65C160.13 199.7 160.31 199.88 160.36 200.1C161.97 206.98 175.68 209.43 175.82 209.46C175.99 209.49 176.14 209.59 176.24 209.74C176.5 210.17 202.21 252.26 225.2 252.26C228.42 252.26 231.48 251.42 234.3 249.77C257.89 235.94 243.56 197.48 241.98 193.46C239.52 193.25 237.1 193.15 234.76 193.15C219.25 193.15 211.44 197.77 211.37 197.82C211.15 197.96 210.86 197.93 210.67 197.77C210.05 197.25 195.56 185.03 193.1 182.25C192.47 181.53 191.38 180.2 190 178.51C186.26 173.93 180 166.26 177.51 164.6C174.15 162.36 170.15 160.86 161.58 160.86C160.5 160.86 159.35 160.89 158.16 160.94C149.8 161.29 148.09 162.1 147.77 162.33C147.77 162.37 147.75 162.4 147.74 162.43C147.29 163.63 147.34 164.67 147.9 165.63C149.64 168.63 155.64 169.62 155.7 169.63C155.95 169.67 156.14 169.85 156.2 170.1C156.25 170.34 156.15 170.59 155.95 170.73C152.85 172.82 153.88 175.97 153.89 176C153.99 176.28 153.86 176.59 153.6 176.73C149.78 178.72 150.14 182.99 150.16 183.17C150.18 183.33 150.13 183.48 150.03 183.61C148.88 185.06 148.59 187.65 149.21 190.91C150.01 195.16 152.3 199.68 154.2 200.79C154.9 201.2 155.6 201.4 156.28 201.4C158.12 201.4 159.29 199.89 159.3 199.88C159.42 199.73 159.6 199.64 159.78 199.64H159.77Z" fill="black"/>
<path d="M155.6 170.53C155.46 170.53 155.34 170.44 155.31 170.3C155.27 170.14 155.37 169.97 155.53 169.93C160.03 168.8 164.51 168.64 169.64 169.45C169.81 169.48 169.92 169.63 169.89 169.8C169.86 169.97 169.71 170.08 169.54 170.05C164.5 169.25 160.09 169.4 155.68 170.51C155.66 170.51 155.63 170.51 155.61 170.51L155.6 170.53Z" fill="black"/>
<path d="M165.11 176.68C165.11 176.68 165.05 176.68 165.03 176.67C161.03 175.53 153.43 176.49 153.35 176.49C153.18 176.52 153.03 176.39 153.01 176.23C152.99 176.06 153.11 175.91 153.27 175.89C153.59 175.85 161.07 174.91 165.19 176.08C165.35 176.13 165.44 176.29 165.4 176.45C165.36 176.58 165.24 176.67 165.11 176.67V176.68Z" fill="black"/>
<path d="M149.55 183.53C149.43 183.53 149.32 183.46 149.27 183.34C149.21 183.18 149.28 183.01 149.44 182.95C152.16 181.85 158.2 182.49 158.46 182.52C158.63 182.54 158.75 182.69 158.73 182.85C158.71 183.02 158.56 183.13 158.4 183.12C158.34 183.12 152.25 182.47 149.67 183.51C149.63 183.52 149.59 183.53 149.56 183.53H149.55Z" fill="black"/>
<path d="M159.77 200.55C159.65 200.55 159.53 200.47 159.49 200.35C157.95 196.17 158.06 190.07 158.06 189.81C158.06 189.64 158.18 189.53 158.37 189.51C158.54 189.51 158.67 189.65 158.67 189.82C158.67 189.88 158.57 196.07 160.06 200.14C160.12 200.3 160.04 200.47 159.88 200.53C159.85 200.54 159.81 200.55 159.78 200.55H159.77Z" fill="black"/>
<path d="M158.36 192.45C158.27 192.45 158.19 192.41 158.13 192.34L156.72 190.68C156.61 190.55 156.63 190.36 156.75 190.25C156.88 190.14 157.07 190.16 157.18 190.28L158.59 191.94C158.7 192.07 158.68 192.26 158.56 192.37C158.5 192.42 158.43 192.44 158.36 192.44V192.45Z" fill="black"/>
<path d="M153.94 164.66L149.28 164.54C149.14 164.54 149.02 164.44 148.99 164.3L148.81 163.38C148.78 163.22 148.88 163.06 149.05 163.02C149.22 162.99 149.37 163.09 149.41 163.26L149.55 163.94L153.76 164.05C154.5 162.21 154.05 160.85 154.04 160.84C153.98 160.68 154.07 160.51 154.22 160.45C154.38 160.39 154.55 160.47 154.61 160.63C154.63 160.7 155.19 162.3 154.23 164.47C154.18 164.58 154.07 164.65 153.95 164.65L153.94 164.66Z" fill="black"/>
<path d="M183.33 174.66C183.33 174.66 183.24 174.66 183.2 174.63L178.23 172.24C178.08 172.17 178.02 171.99 178.09 171.84C178.16 171.69 178.34 171.63 178.49 171.7L183.46 174.09C183.61 174.16 183.67 174.34 183.6 174.49C183.55 174.6 183.44 174.66 183.33 174.66Z" fill="black"/>
<path d="M181.67 175.64C181.54 175.64 181.41 175.55 181.38 175.42L180.15 170.94C180.11 170.78 180.2 170.61 180.36 170.57C180.52 170.53 180.69 170.62 180.73 170.78L181.96 175.26C182 175.42 181.91 175.59 181.75 175.63C181.72 175.63 181.7 175.64 181.67 175.64Z" fill="black"/>
<path d="M178.79 181.53C178.79 181.53 178.7 181.53 178.66 181.5L173.69 179.11C173.54 179.04 173.48 178.86 173.55 178.71C173.62 178.56 173.8 178.5 173.95 178.57L178.92 180.96C179.07 181.03 179.13 181.21 179.06 181.36C179.01 181.47 178.9 181.53 178.79 181.53Z" fill="black"/>
<path d="M177.13 182.51C177 182.51 176.87 182.42 176.84 182.29L175.61 177.81C175.57 177.65 175.66 177.48 175.82 177.44C175.98 177.4 176.15 177.49 176.19 177.65L177.42 182.13C177.46 182.29 177.37 182.46 177.21 182.5C177.18 182.5 177.16 182.51 177.13 182.51Z" fill="black"/>
<path d="M174.74 187.6C174.74 187.6 174.65 187.6 174.61 187.57L169.64 185.18C169.49 185.11 169.43 184.93 169.5 184.78C169.57 184.63 169.75 184.57 169.9 184.64L174.87 187.03C175.02 187.1 175.08 187.28 175.01 187.43C174.96 187.54 174.85 187.6 174.74 187.6Z" fill="black"/>
<path d="M173.08 188.58C172.95 188.58 172.82 188.49 172.79 188.36L171.56 183.88C171.52 183.72 171.61 183.55 171.77 183.51C171.93 183.47 172.1 183.56 172.14 183.72L173.37 188.2C173.41 188.36 173.32 188.53 173.16 188.57C173.13 188.57 173.11 188.58 173.08 188.58Z" fill="black"/>
<path d="M176.46 210.49C176 210.49 175.57 210.45 175.22 210.34C175.06 210.29 174.97 210.12 175.02 209.96C175.07 209.8 175.24 209.71 175.4 209.76C176.62 210.14 179.39 209.52 179.41 209.51C179.57 209.47 179.74 209.57 179.77 209.74C179.81 209.9 179.71 210.07 179.54 210.1C179.45 210.12 177.83 210.49 176.45 210.49H176.46Z" fill="black"/>
<path d="M231.91 214.69C231.84 214.69 231.77 214.67 231.72 214.62L210.86 197.53C210.73 197.42 210.71 197.23 210.82 197.1C210.93 196.97 211.12 196.95 211.25 197.06L232.11 214.15C232.24 214.26 232.26 214.45 232.15 214.58C232.09 214.65 232 214.69 231.92 214.69H231.91Z" fill="black"/>
<path d="M100.2 59.6601C100.2 59.6601 100.23 59.6601 100.25 59.6601C100.43 59.6501 100.56 59.4901 100.55 59.3101C99.44 46.4201 110.91 44.1901 111.4 44.1101C111.58 44.0801 111.7 43.9101 111.66 43.7301C111.63 43.5501 111.45 43.4301 111.28 43.4701C111.15 43.4901 98.73 45.8801 99.9 59.3801C99.91 59.5401 100.05 59.6701 100.21 59.6801L100.2 59.6601Z" fill="black"/>
<path d="M89.6499 36.21C89.6499 36.21 89.7099 36.21 89.7499 36.21C89.9099 36.2 105.34 35.03 110.94 35.14C111.12 35.14 111.27 35 111.27 34.82C111.27 34.64 111.13 34.49 110.95 34.49C105.32 34.38 89.8599 35.55 89.6999 35.56C89.5199 35.57 89.3799 35.73 89.3999 35.91C89.4099 36.06 89.5199 36.17 89.6499 36.2V36.21Z" fill="black"/>
</g>
</g>
<defs>
<clipPath id="clip0_102_6566">
<rect width="300" height="270" fill="white"/>
</clipPath>
<clipPath id="clip1_102_6566">
<rect width="289.73" height="262.15" fill="white" transform="translate(5 8)"/>
</clipPath>
</defs>
</svg>
