<?xml version="1.0" encoding="UTF-8"?>
<svg id="_레이어_2" data-name="레이어 2" xmlns="http://www.w3.org/2000/svg" xmlns:xlink="http://www.w3.org/1999/xlink" viewBox="0 0 347.91 298.16">
  <defs>
    <style>
      .cls-1 {
        mask: url(#mask);
      }

      .cls-2 {
        fill: #fbf471;
      }

      .cls-2, .cls-3, .cls-4, .cls-5, .cls-6 {
        stroke: #000;
      }

      .cls-2, .cls-3, .cls-4, .cls-5, .cls-6, .cls-7 {
        stroke-width: .49px;
      }

      .cls-8 {
        fill: #000;
      }

      .cls-8, .cls-9, .cls-10, .cls-11, .cls-12 {
        stroke-width: 0px;
      }

      .cls-9 {
        fill: #ffeb17;
      }

      .cls-3, .cls-10 {
        fill: #00d7ff;
      }

      .cls-4, .cls-12 {
        fill: #fff;
      }

      .cls-11 {
        fill: #004fff;
      }

      .cls-5 {
        fill: #ff90c8;
      }

      .cls-13 {
        mask: url(#mask-1);
      }

      .cls-6, .cls-7 {
        fill: none;
      }

      .cls-7 {
        stroke: #231815;
      }
    </style>
    <mask id="mask" x="74.96" y="9.38" width="95.01" height="65.49" maskUnits="userSpaceOnUse">
      <g id="mask0_16_506" data-name="mask0 16 506">
        <path class="cls-12" d="M82.94,62.48V26.82h79.47v13.73h-61.9v8.21h62.95v13.73h-80.52Z"/>
      </g>
    </mask>
    <mask id="mask-1" x="34.97" y="127.38" width="87.78" height="59.3" maskUnits="userSpaceOnUse">
      <g id="mask1_16_506" data-name="mask1 16 506">
        <path class="cls-12" d="M121.17,133.68c2.12-1.44,2.12-3.77,0-5.22-2.12-1.44-5.57-1.44-7.69,0-2.12,1.45-5.57,1.45-7.69,0-2.12-1.44-5.57-1.44-7.69,0-2.12,1.45-5.57,1.45-7.69,0-2.12-1.44-5.57-1.44-7.69,0-2.12,1.45-5.57,1.45-7.69,0-2.12-1.44-5.57-1.44-7.69,0-2.12,1.45-5.57,1.45-7.69,0-2.12-1.44-5.57-1.44-7.69,0-2.12,1.45-5.57,1.45-7.69,0-2.12-1.44-5.57-1.44-7.69,0-2.12,1.45-2.12,3.77,0,5.22,2.12,1.44,2.12,3.77,0,5.22s-2.12,3.77,0,5.22c2.12,1.44,2.12,3.77,0,5.22-2.12,1.44-2.12,3.77,0,5.22s2.12,3.77,0,5.22c-2.12,1.44-2.12,3.77,0,5.22,2.12,1.44,5.57,1.44,7.69,0,2.12-1.44,5.57-1.44,7.69,0,2.12,1.44,5.57,1.44,7.69,0,2.12-1.44,5.57-1.44,7.69,0,2.12,1.44,5.57,1.44,7.69,0,2.12-1.44,5.57-1.44,7.69,0,2.12,1.44,5.57,1.44,7.69,0,2.12-1.44,5.57-1.44,7.69,0,2.12,1.44,5.57,1.44,7.69,0,2.12-1.44,5.57-1.44,7.69,0,2.12,1.44,5.57,1.44,7.69,0,2.12-1.44,2.12-3.77,0-5.22-2.12-1.44-2.12-3.77,0-5.22s2.12-3.77,0-5.22c-2.12-1.44-2.12-3.77,0-5.22,2.12-1.44,2.12-3.77,0-5.22s-2.12-3.77,0-5.22Z"/>
      </g>
    </mask>
  </defs>
  <g id="_레이어_1-2" data-name="레이어 1">
    <g>
      <g>
        <path class="cls-4" d="M82.31,86.51h80.31v30.16h-17.88v-16.22h-62.43v-13.93Z"/>
        <path class="cls-4" d="M131.45,62.48v5.3h36.39v14.04h-90.34v-14.04h36.39v-5.3h17.57Z"/>
        <g class="cls-1">
          <g>
            <path class="cls-11" d="M76.9,9.7c3.69-.73,4.17,4.15,7.93,4.15s3.76-4.19,7.52-4.19,3.76,4.19,7.52,4.19,3.76-4.19,7.52-4.19,3.76,4.19,7.52,4.19,3.76-4.19,7.52-4.19,3.76,4.19,7.52,4.19,3.76-4.19,7.52-4.19,3.76,4.19,7.52,4.19,3.76-4.19,7.52-4.19,3.76,4.19,7.54,4.19,4.24-4.87,7.94-4.15c.73.15-2.51,2.8-2.51,3.53s4.21.74,4.21,1.49-4.21.74-4.21,1.48,4.21.74,4.21,1.48-4.21.74-4.21,1.49,4.21.74,4.21,1.49-4.21.74-4.21,1.49,4.21.74,4.21,1.49-4.21.74-4.21,1.49,4.21.75,4.21,1.49-4.21.75-4.21,1.49,3.25,3.4,2.52,3.54c-3.69.73-4.17-4.15-7.93-4.15s-3.76,4.19-7.52,4.19-3.76-4.19-7.52-4.19-3.76,4.19-7.52,4.19-3.76-4.19-7.52-4.19-3.76,4.19-7.52,4.19-3.76-4.19-7.52-4.19-3.76,4.19-7.52,4.19-3.76-4.19-7.52-4.19-3.76,4.19-7.52,4.19-3.76-4.19-7.53-4.19-4.24,4.87-7.94,4.15c-.73-.15,2.51-2.8,2.51-3.53s-4.21-.74-4.21-1.49,4.21-.74,4.21-1.48-4.21-.74-4.21-1.48,4.21-.74,4.21-1.49-4.21-.74-4.21-1.49,4.21-.74,4.21-1.49-4.21-.74-4.21-1.49,4.21-.74,4.21-1.49-4.21-.75-4.21-1.49,4.33-1.24,4.15-1.96c-.43-1.81-3.2-2.92-2.46-3.07Z"/>
            <path class="cls-6" d="M76.9,9.7c3.69-.73,4.17,4.15,7.93,4.15s3.76-4.19,7.52-4.19,3.76,4.19,7.52,4.19,3.76-4.19,7.52-4.19,3.76,4.19,7.52,4.19,3.76-4.19,7.52-4.19,3.76,4.19,7.52,4.19,3.76-4.19,7.52-4.19,3.76,4.19,7.52,4.19,3.76-4.19,7.52-4.19,3.76,4.19,7.54,4.19,4.24-4.87,7.94-4.15c.73.15-2.51,2.8-2.51,3.53s4.21.74,4.21,1.49-4.21.74-4.21,1.48,4.21.74,4.21,1.48-4.21.74-4.21,1.49,4.21.74,4.21,1.49-4.21.74-4.21,1.49,4.21.74,4.21,1.49-4.21.74-4.21,1.49,4.21.75,4.21,1.49-4.21.75-4.21,1.49,3.25,3.4,2.52,3.54c-3.69.73-4.17-4.15-7.93-4.15s-3.76,4.19-7.52,4.19-3.76-4.19-7.52-4.19-3.76,4.19-7.52,4.19-3.76-4.19-7.52-4.19-3.76,4.19-7.52,4.19-3.76-4.19-7.52-4.19-3.76,4.19-7.52,4.19-3.76-4.19-7.52-4.19-3.76,4.19-7.52,4.19-3.76-4.19-7.53-4.19-4.24,4.87-7.94,4.15c-.73-.15,2.51-2.8,2.51-3.53s-4.21-.74-4.21-1.49,4.21-.74,4.21-1.48-4.21-.74-4.21-1.48,4.21-.74,4.21-1.49-4.21-.74-4.21-1.49,4.21-.74,4.21-1.49-4.21-.74-4.21-1.49,4.21-.74,4.21-1.49-4.21-.75-4.21-1.49,4.33-1.24,4.15-1.96c-.43-1.81-3.2-2.92-2.46-3.07Z"/>
            <path class="cls-10" d="M76.9,20.43c3.69-.73,4.17,4.15,7.93,4.15s3.76-4.19,7.52-4.19,3.76,4.19,7.52,4.19,3.76-4.19,7.52-4.19,3.76,4.19,7.52,4.19,3.76-4.19,7.52-4.19,3.76,4.19,7.52,4.19,3.76-4.19,7.52-4.19,3.76,4.19,7.52,4.19,3.76-4.19,7.52-4.19,3.76,4.19,7.54,4.19,4.24-4.87,7.94-4.15c.73.15-2.51,2.8-2.51,3.53s4.21.74,4.21,1.49-4.21.74-4.21,1.48,4.21.74,4.21,1.48-4.21.74-4.21,1.49,4.21.74,4.21,1.49-4.21.74-4.21,1.49,4.21.74,4.21,1.49-4.21.74-4.21,1.49,4.21.75,4.21,1.49-4.21.75-4.21,1.49,3.25,3.4,2.52,3.54c-3.69.73-4.17-4.15-7.93-4.15s-3.76,4.19-7.52,4.19-3.76-4.19-7.52-4.19-3.76,4.19-7.52,4.19-3.76-4.19-7.52-4.19-3.76,4.19-7.52,4.19-3.76-4.19-7.52-4.19-3.76,4.19-7.52,4.19-3.76-4.19-7.52-4.19-3.76,4.19-7.52,4.19-3.76-4.19-7.53-4.19-4.24,4.87-7.94,4.15c-.73-.15,2.51-2.8,2.51-3.53s-4.21-.74-4.21-1.49,4.21-.74,4.21-1.48-4.21-.74-4.21-1.48,4.21-.74,4.21-1.49-4.21-.74-4.21-1.49,4.21-.74,4.21-1.49-4.21-.74-4.21-1.49,4.21-.74,4.21-1.49-4.21-.75-4.21-1.49,4.33-1.24,4.15-1.96c-.43-1.81-3.2-2.92-2.46-3.07Z"/>
            <path class="cls-6" d="M76.9,20.43c3.69-.73,4.17,4.15,7.93,4.15s3.76-4.19,7.52-4.19,3.76,4.19,7.52,4.19,3.76-4.19,7.52-4.19,3.76,4.19,7.52,4.19,3.76-4.19,7.52-4.19,3.76,4.19,7.52,4.19,3.76-4.19,7.52-4.19,3.76,4.19,7.52,4.19,3.76-4.19,7.52-4.19,3.76,4.19,7.54,4.19,4.24-4.87,7.94-4.15c.73.15-2.51,2.8-2.51,3.53s4.21.74,4.21,1.49-4.21.74-4.21,1.48,4.21.74,4.21,1.48-4.21.74-4.21,1.49,4.21.74,4.21,1.49-4.21.74-4.21,1.49,4.21.74,4.21,1.49-4.21.74-4.21,1.49,4.21.75,4.21,1.49-4.21.75-4.21,1.49,3.25,3.4,2.52,3.54c-3.69.73-4.17-4.15-7.93-4.15s-3.76,4.19-7.52,4.19-3.76-4.19-7.52-4.19-3.76,4.19-7.52,4.19-3.76-4.19-7.52-4.19-3.76,4.19-7.52,4.19-3.76-4.19-7.52-4.19-3.76,4.19-7.52,4.19-3.76-4.19-7.52-4.19-3.76,4.19-7.52,4.19-3.76-4.19-7.53-4.19-4.24,4.87-7.94,4.15c-.73-.15,2.51-2.8,2.51-3.53s-4.21-.74-4.21-1.49,4.21-.74,4.21-1.48-4.21-.74-4.21-1.48,4.21-.74,4.21-1.49-4.21-.74-4.21-1.49,4.21-.74,4.21-1.49-4.21-.74-4.21-1.49,4.21-.74,4.21-1.49-4.21-.75-4.21-1.49,4.33-1.24,4.15-1.96c-.43-1.81-3.2-2.92-2.46-3.07Z"/>
            <path class="cls-11" d="M76.9,31.17c3.69-.73,4.17,4.15,7.93,4.15s3.76-4.19,7.52-4.19,3.76,4.19,7.52,4.19,3.76-4.19,7.52-4.19,3.76,4.19,7.52,4.19,3.76-4.19,7.52-4.19,3.76,4.19,7.52,4.19,3.76-4.19,7.52-4.19,3.76,4.19,7.52,4.19,3.76-4.19,7.52-4.19,3.76,4.19,7.54,4.19,4.24-4.87,7.94-4.15c.73.15-2.51,2.8-2.51,3.53s4.21.74,4.21,1.49-4.21.74-4.21,1.48,4.21.74,4.21,1.48-4.21.74-4.21,1.49,4.21.74,4.21,1.49-4.21.74-4.21,1.49,4.21.74,4.21,1.49-4.21.74-4.21,1.49,4.21.75,4.21,1.49-4.21.75-4.21,1.49,3.25,3.4,2.52,3.54c-3.69.73-4.17-4.15-7.93-4.15s-3.76,4.19-7.52,4.19-3.76-4.19-7.52-4.19-3.76,4.19-7.52,4.19-3.76-4.19-7.52-4.19-3.76,4.19-7.52,4.19-3.76-4.19-7.52-4.19-3.76,4.19-7.52,4.19-3.76-4.19-7.52-4.19-3.76,4.19-7.52,4.19-3.76-4.19-7.53-4.19-4.24,4.87-7.94,4.15c-.73-.15,2.51-2.8,2.51-3.53s-4.21-.74-4.21-1.49,4.21-.74,4.21-1.48-4.21-.74-4.21-1.48,4.21-.74,4.21-1.49-4.21-.74-4.21-1.49,4.21-.74,4.21-1.49-4.21-.74-4.21-1.49,4.21-.74,4.21-1.49-4.21-.75-4.21-1.49,4.33-1.24,4.15-1.96c-.43-1.81-3.2-2.92-2.46-3.07Z"/>
            <path class="cls-6" d="M76.9,31.17c3.69-.73,4.17,4.15,7.93,4.15s3.76-4.19,7.52-4.19,3.76,4.19,7.52,4.19,3.76-4.19,7.52-4.19,3.76,4.19,7.52,4.19,3.76-4.19,7.52-4.19,3.76,4.19,7.52,4.19,3.76-4.19,7.52-4.19,3.76,4.19,7.52,4.19,3.76-4.19,7.52-4.19,3.76,4.19,7.54,4.19,4.24-4.87,7.94-4.15c.73.15-2.51,2.8-2.51,3.53s4.21.74,4.21,1.49-4.21.74-4.21,1.48,4.21.74,4.21,1.48-4.21.74-4.21,1.49,4.21.74,4.21,1.49-4.21.74-4.21,1.49,4.21.74,4.21,1.49-4.21.74-4.21,1.49,4.21.75,4.21,1.49-4.21.75-4.21,1.49,3.25,3.4,2.52,3.54c-3.69.73-4.17-4.15-7.93-4.15s-3.76,4.19-7.52,4.19-3.76-4.19-7.52-4.19-3.76,4.19-7.52,4.19-3.76-4.19-7.52-4.19-3.76,4.19-7.52,4.19-3.76-4.19-7.52-4.19-3.76,4.19-7.52,4.19-3.76-4.19-7.52-4.19-3.76,4.19-7.52,4.19-3.76-4.19-7.53-4.19-4.24,4.87-7.94,4.15c-.73-.15,2.51-2.8,2.51-3.53s-4.21-.74-4.21-1.49,4.21-.74,4.21-1.48-4.21-.74-4.21-1.48,4.21-.74,4.21-1.49-4.21-.74-4.21-1.49,4.21-.74,4.21-1.49-4.21-.74-4.21-1.49,4.21-.74,4.21-1.49-4.21-.75-4.21-1.49,4.33-1.24,4.15-1.96c-.43-1.81-3.2-2.92-2.46-3.07Z"/>
            <path class="cls-10" d="M76.9,41.9c3.69-.73,4.17,4.15,7.93,4.15s3.76-4.19,7.52-4.19,3.76,4.19,7.52,4.19,3.76-4.19,7.52-4.19,3.76,4.19,7.52,4.19,3.76-4.19,7.52-4.19,3.76,4.19,7.52,4.19,3.76-4.19,7.52-4.19,3.76,4.19,7.52,4.19,3.76-4.19,7.52-4.19,3.76,4.19,7.54,4.19,4.24-4.87,7.94-4.15c.73.15-2.51,2.8-2.51,3.53s4.21.74,4.21,1.49-4.21.74-4.21,1.48,4.21.74,4.21,1.48-4.21.74-4.21,1.49,4.21.74,4.21,1.49-4.21.74-4.21,1.49,4.21.74,4.21,1.49-4.21.74-4.21,1.49,4.21.75,4.21,1.49-4.21.75-4.21,1.49,3.25,3.4,2.52,3.54c-3.69.73-4.17-4.15-7.93-4.15s-3.76,4.19-7.52,4.19-3.76-4.19-7.52-4.19-3.76,4.19-7.52,4.19-3.76-4.19-7.52-4.19-3.76,4.19-7.52,4.19-3.76-4.19-7.52-4.19-3.76,4.19-7.52,4.19-3.76-4.19-7.52-4.19-3.76,4.19-7.52,4.19-3.76-4.19-7.53-4.19-4.24,4.87-7.94,4.15c-.73-.15,2.51-2.8,2.51-3.53s-4.21-.74-4.21-1.49,4.21-.74,4.21-1.48-4.21-.74-4.21-1.48,4.21-.74,4.21-1.49-4.21-.74-4.21-1.49,4.21-.74,4.21-1.49-4.21-.74-4.21-1.49,4.21-.74,4.21-1.49-4.21-.75-4.21-1.49,4.33-1.24,4.15-1.96c-.43-1.81-3.2-2.92-2.46-3.07Z"/>
            <path class="cls-6" d="M76.9,41.9c3.69-.73,4.17,4.15,7.93,4.15s3.76-4.19,7.52-4.19,3.76,4.19,7.52,4.19,3.76-4.19,7.52-4.19,3.76,4.19,7.52,4.19,3.76-4.19,7.52-4.19,3.76,4.19,7.52,4.19,3.76-4.19,7.52-4.19,3.76,4.19,7.52,4.19,3.76-4.19,7.52-4.19,3.76,4.19,7.54,4.19,4.24-4.87,7.94-4.15c.73.15-2.51,2.8-2.51,3.53s4.21.74,4.21,1.49-4.21.74-4.21,1.48,4.21.74,4.21,1.48-4.21.74-4.21,1.49,4.21.74,4.21,1.49-4.21.74-4.21,1.49,4.21.74,4.21,1.49-4.21.74-4.21,1.49,4.21.75,4.21,1.49-4.21.75-4.21,1.49,3.25,3.4,2.52,3.54c-3.69.73-4.17-4.15-7.93-4.15s-3.76,4.19-7.52,4.19-3.76-4.19-7.52-4.19-3.76,4.19-7.52,4.19-3.76-4.19-7.52-4.19-3.76,4.19-7.52,4.19-3.76-4.19-7.52-4.19-3.76,4.19-7.52,4.19-3.76-4.19-7.52-4.19-3.76,4.19-7.52,4.19-3.76-4.19-7.53-4.19-4.24,4.87-7.94,4.15c-.73-.15,2.51-2.8,2.51-3.53s-4.21-.74-4.21-1.49,4.21-.74,4.21-1.48-4.21-.74-4.21-1.48,4.21-.74,4.21-1.49-4.21-.74-4.21-1.49,4.21-.74,4.21-1.49-4.21-.74-4.21-1.49,4.21-.74,4.21-1.49-4.21-.75-4.21-1.49,4.33-1.24,4.15-1.96c-.43-1.81-3.2-2.92-2.46-3.07Z"/>
            <path class="cls-11" d="M76.9,52.63c3.69-.73,4.17,4.15,7.93,4.15s3.76-4.19,7.52-4.19,3.76,4.19,7.52,4.19,3.76-4.19,7.52-4.19,3.76,4.19,7.52,4.19,3.76-4.19,7.52-4.19,3.76,4.19,7.52,4.19,3.76-4.19,7.52-4.19,3.76,4.19,7.52,4.19,3.76-4.19,7.52-4.19,3.76,4.19,7.54,4.19,4.24-4.87,7.94-4.15c.73.15-2.51,2.8-2.51,3.53s4.21.74,4.21,1.49-4.21.74-4.21,1.48,4.21.74,4.21,1.48-4.21.74-4.21,1.49,4.21.74,4.21,1.49-4.21.74-4.21,1.49,4.21.74,4.21,1.49-4.21.74-4.21,1.49,4.21.75,4.21,1.49-4.21.75-4.21,1.49,3.25,3.4,2.52,3.54c-3.69.73-4.17-4.15-7.93-4.15s-3.76,4.19-7.52,4.19-3.76-4.19-7.52-4.19-3.76,4.19-7.52,4.19-3.76-4.19-7.52-4.19-3.76,4.19-7.52,4.19-3.76-4.19-7.52-4.19-3.76,4.19-7.52,4.19-3.76-4.19-7.52-4.19-3.76,4.19-7.52,4.19-3.76-4.19-7.53-4.19-4.24,4.87-7.94,4.15c-.73-.15,2.51-2.8,2.51-3.53s-4.21-.74-4.21-1.49,4.21-.74,4.21-1.48-4.21-.74-4.21-1.48,4.21-.74,4.21-1.49-4.21-.74-4.21-1.49,4.21-.74,4.21-1.49-4.21-.74-4.21-1.49,4.21-.74,4.21-1.49-4.21-.75-4.21-1.49,4.33-1.24,4.15-1.96c-.43-1.81-3.2-2.92-2.46-3.07Z"/>
            <path class="cls-6" d="M76.9,52.63c3.69-.73,4.17,4.15,7.93,4.15s3.76-4.19,7.52-4.19,3.76,4.19,7.52,4.19,3.76-4.19,7.52-4.19,3.76,4.19,7.52,4.19,3.76-4.19,7.52-4.19,3.76,4.19,7.52,4.19,3.76-4.19,7.52-4.19,3.76,4.19,7.52,4.19,3.76-4.19,7.52-4.19,3.76,4.19,7.54,4.19,4.24-4.87,7.94-4.15c.73.15-2.51,2.8-2.51,3.53s4.21.74,4.21,1.49-4.21.74-4.21,1.48,4.21.74,4.21,1.48-4.21.74-4.21,1.49,4.21.74,4.21,1.49-4.21.74-4.21,1.49,4.21.74,4.21,1.49-4.21.74-4.21,1.49,4.21.75,4.21,1.49-4.21.75-4.21,1.49,3.25,3.4,2.52,3.54c-3.69.73-4.17-4.15-7.93-4.15s-3.76,4.19-7.52,4.19-3.76-4.19-7.52-4.19-3.76,4.19-7.52,4.19-3.76-4.19-7.52-4.19-3.76,4.19-7.52,4.19-3.76-4.19-7.52-4.19-3.76,4.19-7.52,4.19-3.76-4.19-7.52-4.19-3.76,4.19-7.52,4.19-3.76-4.19-7.53-4.19-4.24,4.87-7.94,4.15c-.73-.15,2.51-2.8,2.51-3.53s-4.21-.74-4.21-1.49,4.21-.74,4.21-1.48-4.21-.74-4.21-1.48,4.21-.74,4.21-1.49-4.21-.74-4.21-1.49,4.21-.74,4.21-1.49-4.21-.74-4.21-1.49,4.21-.74,4.21-1.49-4.21-.75-4.21-1.49,4.33-1.24,4.15-1.96c-.43-1.81-3.2-2.92-2.46-3.07Z"/>
          </g>
        </g>
        <path class="cls-7" d="M82.94,62.48V26.82h79.47v13.73h-61.9v8.21h62.95v13.73h-80.52Z"/>
        <path class="cls-4" d="M110.93,22.97c-.49,1.54-.46,3.21.09,5.01.55,1.8,1.46,3.19,2.73,4.19,1.29,1.01,2.55,1.31,3.81.94,1.21-.37,2.08-1.33,2.57-2.87.5-1.53.48-3.2-.07-5-.55-1.8-1.47-3.2-2.75-4.2-1.27-1-2.53-1.32-3.75-.96-1.22.36-2.14,1.35-2.64,2.89h.01Z"/>
        <path class="cls-8" d="M113.37,22.7c-.38,1.33-.32,2.77.16,4.35.48,1.58,1.25,2.8,2.31,3.68,1.08.9,2.09,1.21,3.06.91.22-.06.42-.16.62-.27.23-.38.42-.82.57-1.3.5-1.53.48-3.19-.07-4.99-.55-1.8-1.47-3.2-2.75-4.2-.41-.31-.8-.56-1.2-.74-.22.01-.44.05-.66.11-.96.29-1.64,1.1-2.03,2.44h-.01Z"/>
        <path class="cls-4" d="M122.44,17.39c-1.26.38-2.14,1.35-2.64,2.89-.5,1.55-.47,3.21.07,5.01.55,1.8,1.46,3.19,2.75,4.19,1.29,1.01,2.55,1.31,3.81.94,1.2-.36,2.06-1.32,2.56-2.87.5-1.53.48-3.2-.07-5-.55-1.8-1.47-3.2-2.75-4.2-1.28-1.01-2.53-1.32-3.73-.96Z"/>
        <path class="cls-8" d="M122.24,19.98c-.38,1.33-.32,2.77.16,4.35.48,1.58,1.25,2.81,2.31,3.7,1.06.89,2.07,1.19,3.04.9.22-.06.42-.16.62-.27.23-.38.42-.82.57-1.3.5-1.53.48-3.19-.07-4.99-.55-1.8-1.47-3.2-2.75-4.2-.41-.31-.81-.55-1.2-.72-.22.01-.44.05-.66.11-.96.29-1.64,1.1-2.02,2.41h0Z"/>
        <path class="cls-4" d="M269.25,76.31h-10.46v39.3h-17.67V26.82h17.67v32.44h10.46v17.05Z"/>
        <path class="cls-4" d="M221.06,110.82l1.12-6.26,4.33,6.54.8-5.6,4.79,5.33-.2-5.3,6.79,5.3-26.55-65.55-16.2,2.09,25.12,63.46Z"/>
        <path class="cls-3" d="M187.88,110.82l-1.12-6.26-4.33,6.54-.82-5.6-4.79,5.33.21-5.3-6.8,5.3,28.68-72.36,2.48,4.88,4.46-4.88.42,5.25,4.2-5.25.07,5.4,6.01-5.4-28.68,72.36Z"/>
        <path class="cls-4" d="M232.6,28.9h-56.25v16.12h56.25v-16.12Z"/>
        <path class="cls-4" d="M195.53,40.24c-1,1.37-1.47,3-1.4,4.87.07,1.87.67,3.45,1.79,4.73,1.13,1.29,2.46,1.9,3.98,1.84,1.47-.06,2.72-.78,3.73-2.15,1.02-1.36,1.49-2.98,1.42-4.86-.07-1.88-.68-3.46-1.81-4.75-1.13-1.29-2.43-1.9-3.9-1.84-1.46.06-2.79.78-3.81,2.15h0Z"/>
        <path class="cls-8" d="M198.32,40.57c-.82,1.19-1.19,2.62-1.13,4.26.06,1.64.55,3.02,1.47,4.14.93,1.14,1.98,1.68,3.15,1.63.26-.01.51-.05.76-.11.37-.31.71-.69,1.03-1.12,1.02-1.36,1.49-2.98,1.42-4.85-.07-1.88-.68-3.46-1.81-4.75-.35-.41-.73-.74-1.13-1.01-.25-.04-.51-.06-.77-.05-1.17.05-2.16.67-3,1.86h0Z"/>
        <path class="cls-4" d="M210.05,37.65c-1.53.06-2.79.78-3.81,2.15-1.02,1.37-1.49,3-1.42,4.87.07,1.88.68,3.45,1.81,4.73,1.13,1.29,2.46,1.9,3.98,1.84,1.45-.06,2.7-.78,3.72-2.15,1.02-1.36,1.49-2.98,1.42-4.86-.07-1.88-.68-3.46-1.81-4.75-1.13-1.29-2.43-1.9-3.88-1.84h-.01Z"/>
        <path class="cls-8" d="M209.04,40.11c-.82,1.19-1.19,2.62-1.13,4.26.06,1.64.55,3.02,1.47,4.16.91,1.12,1.95,1.66,3.12,1.62.26-.01.51-.05.76-.11.37-.31.71-.69,1.04-1.12,1.02-1.36,1.49-2.98,1.42-4.85-.07-1.88-.68-3.46-1.81-4.75-.35-.41-.73-.74-1.13-1-.25-.04-.51-.06-.77-.05-1.17.05-2.16.66-2.98,1.85Z"/>
        <path class="cls-4" d="M237.67,13.17c-2.76-1.38-5.01-3.62-6.4-6.37-1.39,2.75-3.64,4.99-6.4,6.37,2.76,1.38,5.01,3.62,6.4,6.37,1.39-2.75,3.64-4.99,6.4-6.37Z"/>
        <path class="cls-2" d="M245.15.25h0s0,0,0,0c.15-.02.3.01.45.1h0s3.54,2.23,3.54,2.23l.09.05.1-.02,4.08-.9h0c.16-.04.31-.02.46.06h0s0,0,0,0c.14.07.24.17.31.33.07.15.08.3.04.46l-1.05,4.03-.02.1.05.09,2.12,3.59c.08.14.11.29.09.45-.03.16-.1.3-.21.41-.13.11-.27.17-.43.18h0l-4.17.25h-.1s-.07.08-.07.08l-2.78,3.12h0c-.11.12-.24.2-.4.22-.17.02-.32,0-.45-.09h0s0,0,0,0c-.15-.08-.24-.19-.29-.33h0s-1.54-3.88-1.54-3.88l-.04-.09-.09-.04-3.83-1.66h0s0,0,0,0c-.16-.07-.27-.17-.34-.31-.08-.14-.1-.29-.06-.44h0s0-.01,0-.01c.03-.16.1-.29.23-.39h0s0,0,0,0l3.23-2.65.08-.06v-.1s.41-4.14.41-4.14h0s0,0,0,0c.01-.16.08-.29.19-.41h0s0,0,0,0c.11-.12.25-.18.41-.2Z"/>
        <path class="cls-12" d="M88.39,166.03v5.3h36.39v14.04H34.43v-14.04h36.39v-5.3M39.24,189.94h80.3v29.84h-17.88v-15.91h-62.43v-13.93h.01Z"/>
        <path class="cls-6" d="M88.39,166.03v5.3h36.39v14.04H34.43v-14.04h36.39v-5.3M39.24,189.94h80.3v29.84h-17.88v-15.91h-62.43v-13.93h.01Z"/>
        <path class="cls-9" d="M117.32,166.4c-1.53,0-2.96-.4-4.05-1.14-.96-.65-2.26-1.02-3.64-1.02s-2.68.36-3.64,1.02c-1.09.74-2.53,1.14-4.05,1.14s-2.96-.4-4.05-1.14c-.96-.65-2.26-1.02-3.64-1.02s-2.68.36-3.64,1.02c-1.09.74-2.53,1.14-4.05,1.14s-2.97-.4-4.05-1.14c-.96-.65-2.26-1.02-3.64-1.02s-2.68.36-3.64,1.02c-1.09.74-2.53,1.14-4.05,1.14s-2.97-.4-4.05-1.14c-.96-.65-2.26-1.02-3.64-1.02s-2.68.36-3.64,1.02c-1.09.74-2.53,1.14-4.05,1.14s-2.97-.4-4.05-1.14c-.96-.65-2.26-1.02-3.64-1.02s-2.68.36-3.64,1.02c-1.09.74-2.53,1.14-4.05,1.14s-2.97-.4-4.05-1.14c-1.13-.77-1.76-1.8-1.76-2.91s.63-2.14,1.76-2.91c.92-.62,1.43-1.44,1.43-2.31s-.51-1.68-1.43-2.31c-1.13-.77-1.76-1.8-1.76-2.91s.63-2.14,1.76-2.91c.92-.62,1.43-1.44,1.43-2.31s-.51-1.68-1.43-2.31c-1.13-.77-1.76-1.8-1.76-2.91s.63-2.14,1.76-2.91c.92-.62,1.43-1.45,1.43-2.31s-.51-1.68-1.43-2.31c-1.13-.77-1.76-1.8-1.76-2.91s.63-2.14,1.76-2.91c1.09-.74,2.53-1.14,4.05-1.14s2.97.4,4.05,1.14c.96.66,2.26,1.02,3.64,1.02s2.68-.36,3.64-1.02c1.09-.74,2.53-1.14,4.05-1.14s2.97.4,4.05,1.14c.96.66,2.26,1.02,3.64,1.02s2.68-.36,3.64-1.02c1.09-.74,2.53-1.14,4.05-1.14s2.97.4,4.05,1.14c.96.66,2.26,1.02,3.64,1.02s2.68-.36,3.64-1.02c1.09-.74,2.53-1.14,4.05-1.14s2.96.4,4.05,1.14c.96.66,2.26,1.02,3.64,1.02s2.68-.36,3.64-1.02c1.09-.74,2.53-1.14,4.05-1.14s2.96.4,4.05,1.14c.96.66,2.26,1.02,3.64,1.02s2.68-.36,3.64-1.02c1.09-.74,2.53-1.14,4.05-1.14s2.96.4,4.05,1.14c1.13.77,1.76,1.8,1.76,2.91s-.63,2.14-1.76,2.91c-.92.62-1.43,1.44-1.43,2.31s.51,1.68,1.43,2.31c1.13.77,1.76,1.8,1.76,2.91s-.63,2.14-1.76,2.91c-.92.62-1.43,1.44-1.43,2.31s.51,1.68,1.43,2.31c1.13.77,1.76,1.8,1.76,2.91s-.63,2.14-1.76,2.91c-.92.62-1.43,1.45-1.43,2.31s.51,1.68,1.43,2.31c1.13.77,1.76,1.8,1.76,2.91s-.63,2.14-1.76,2.91c-1.09.74-2.53,1.14-4.05,1.14Z"/>
        <path class="cls-8" d="M71.2,127.39c1.39,0,2.78.36,3.85,1.08,1.07.72,2.46,1.08,3.85,1.08s2.78-.36,3.85-1.08c1.07-.72,2.46-1.08,3.85-1.08s2.78.36,3.85,1.08c1.07.72,2.46,1.08,3.85,1.08s2.78-.36,3.85-1.08c1.07-.72,2.46-1.08,3.85-1.08s2.78.36,3.85,1.08c1.07.72,2.46,1.08,3.85,1.08s2.78-.36,3.85-1.08c1.07-.72,2.46-1.08,3.85-1.08s2.78.36,3.85,1.08c2.12,1.44,2.12,3.77,0,5.22-2.12,1.44-2.12,3.77,0,5.22,2.12,1.45,2.12,3.77,0,5.22-2.12,1.44-2.12,3.77,0,5.22,2.12,1.44,2.12,3.77,0,5.22-2.12,1.44-2.12,3.77,0,5.22,2.12,1.45,2.12,3.77,0,5.22-1.07.72-2.46,1.08-3.85,1.08s-2.78-.36-3.85-1.08c-1.07-.72-2.46-1.08-3.85-1.08s-2.78.36-3.85,1.08c-1.07.72-2.46,1.08-3.85,1.08s-2.78-.36-3.85-1.08c-1.07-.72-2.46-1.08-3.85-1.08s-2.78.36-3.85,1.08c-1.07.72-2.46,1.08-3.85,1.08s-2.78-.36-3.85-1.08c-1.07-.72-2.46-1.08-3.85-1.08s-2.78.36-3.85,1.08c-1.07.72-2.46,1.08-3.85,1.08s-2.78-.36-3.85-1.08c-1.07-.72-2.46-1.08-3.85-1.08s-2.78.36-3.85,1.08c-1.07.72-2.46,1.08-3.85,1.08s-2.78-.36-3.85-1.08c-1.07-.72-2.46-1.08-3.85-1.08s-2.78.36-3.85,1.08c-1.07.72-2.46,1.08-3.85,1.08s-2.78-.36-3.85-1.08c-2.12-1.44-2.12-3.77,0-5.22,2.12-1.44,2.12-3.77,0-5.22s-2.12-3.77,0-5.22c2.12-1.45,2.12-3.77,0-5.22-2.12-1.45-2.12-3.77,0-5.22,2.12-1.44,2.12-3.77,0-5.22s-2.12-3.77,0-5.22c1.07-.72,2.46-1.08,3.85-1.08s2.78.36,3.85,1.08c1.07.72,2.46,1.08,3.85,1.08s2.78-.36,3.85-1.08c1.07-.72,2.46-1.08,3.85-1.08s2.78.36,3.85,1.08c1.07.72,2.46,1.08,3.85,1.08s2.78-.36,3.85-1.08c1.07-.72,2.46-1.08,3.85-1.08ZM71.2,126.66c-1.6,0-3.11.43-4.25,1.2-.91.61-2.12.96-3.43.96s-2.53-.34-3.43-.96c-1.15-.78-2.65-1.2-4.25-1.2s-3.11.43-4.25,1.2c-.91.61-2.12.96-3.43.96s-2.53-.34-3.43-.96c-1.15-.78-2.65-1.2-4.25-1.2s-3.11.43-4.25,1.2c-1.23.83-1.91,1.97-1.91,3.21s.68,2.37,1.91,3.21c.83.56,1.27,1.27,1.27,2.01s-.45,1.44-1.27,2.01c-1.23.83-1.91,1.97-1.91,3.21s.68,2.37,1.91,3.21c.83.56,1.27,1.27,1.27,2.01s-.45,1.44-1.27,2c-1.23.83-1.91,1.97-1.91,3.21s.68,2.37,1.91,3.21c.83.56,1.27,1.27,1.27,2s-.45,1.45-1.27,2.01c-1.23.83-1.91,1.97-1.91,3.21s.68,2.37,1.91,3.21c1.15.78,2.65,1.21,4.25,1.21s3.11-.43,4.25-1.21c.91-.61,2.12-.96,3.43-.96s2.53.34,3.43.96c1.15.78,2.65,1.21,4.25,1.21s3.11-.43,4.25-1.21c.91-.61,2.12-.96,3.43-.96s2.53.34,3.43.96c1.15.78,2.65,1.21,4.25,1.21s3.11-.43,4.25-1.21c.91-.61,2.12-.96,3.43-.96s2.53.34,3.43.96c1.15.78,2.65,1.21,4.25,1.21s3.11-.43,4.25-1.21c.91-.61,2.12-.96,3.43-.96s2.53.34,3.43.96c1.15.78,2.65,1.21,4.25,1.21s3.11-.43,4.25-1.21c.91-.61,2.12-.96,3.43-.96s2.53.34,3.43.96c1.15.78,2.65,1.21,4.25,1.21s3.11-.43,4.25-1.21c1.23-.83,1.91-1.97,1.91-3.21s-.68-2.37-1.91-3.21c-.83-.56-1.27-1.27-1.27-2.01s.45-1.44,1.27-2c1.23-.83,1.91-1.98,1.91-3.21s-.68-2.37-1.91-3.21c-.83-.56-1.27-1.27-1.27-2s.45-1.45,1.27-2.01c1.23-.83,1.91-1.97,1.91-3.21s-.68-2.37-1.91-3.21c-.83-.56-1.27-1.27-1.27-2.01s.45-1.44,1.27-2.01c1.23-.83,1.91-1.98,1.91-3.21s-.68-2.37-1.91-3.21c-1.15-.78-2.65-1.2-4.25-1.2s-3.11.43-4.25,1.2c-.91.61-2.12.96-3.43.96s-2.53-.34-3.43-.96c-1.15-.78-2.65-1.2-4.25-1.2s-3.11.43-4.25,1.2c-.91.61-2.12.96-3.43.96s-2.53-.34-3.43-.96c-1.15-.78-2.65-1.2-4.25-1.2s-3.11.43-4.25,1.2c-.91.61-2.12.96-3.43.96s-2.53-.34-3.43-.96c-1.15-.78-2.65-1.2-4.25-1.2Z"/>
        <g class="cls-13">
          <g>
            <path class="cls-5" d="M86.09,137.73c.85,1.64,1.08,3.4.7,5.27,1.76-.75,3.53-.88,5.32-.4,3.25.76,5.61,3.04,7.08,6.88,1.47,3.83,1.24,7.11-.68,9.83-1,1.55-2.4,2.62-4.21,3.23,1.53,1.13,2.52,2.6,2.98,4.38.98,3.17.17,6.34-2.42,9.53-2.61,3.19-5.58,4.63-8.91,4.34h.01c-1.86-.09-3.5-.76-4.94-2.01-.23,1.88-1,3.47-2.33,4.77h.01c-2.28,2.42-5.45,3.31-9.53,2.67h-.01c-4.06-.67-6.8-2.49-8.2-5.5-.84-1.64-1.08-3.4-.71-5.25-1.75.74-3.52.86-5.31.38-3.25-.75-5.61-3.03-7.08-6.86-1.48-3.84-1.26-7.13.66-9.84h-.01c1-1.56,2.41-2.64,4.22-3.24-1.53-1.14-2.53-2.61-2.99-4.38-.97-3.16-.15-6.33,2.48-9.52,2.59-3.19,5.55-4.65,8.86-4.35,1.86.08,3.5.75,4.94,2.01.23-1.89,1-3.48,2.33-4.77,2.28-2.42,5.47-3.3,9.55-2.64,4.06.65,6.79,2.48,8.2,5.49v-.03Z"/>
            <path class="cls-4" d="M65.2,153.47c-.34,1.09-.29,2.22.16,3.41.45,1.18,1.17,2.06,2.16,2.64,1,.58,1.97.69,2.94.32.92-.35,1.57-1.07,1.92-2.17.36-1.09.31-2.22-.15-3.4-.46-1.17-1.18-2.07-2.18-2.64-1-.57-1.96-.7-2.88-.34-.92.35-1.61,1.09-1.96,2.19h0Z"/>
            <path class="cls-8" d="M67.15,152.86c-.26.93-.2,1.92.2,2.96s1,1.81,1.83,2.33c.84.53,1.62.65,2.36.37.17-.06.32-.13.46-.23.17-.28.3-.59.42-.94.36-1.09.31-2.22-.15-3.4-.45-1.18-1.18-2.06-2.17-2.64-.31-.18-.63-.31-.94-.41-.17.03-.33.07-.5.14-.73.28-1.23.89-1.52,1.83v-.02Z"/>
            <path class="cls-4" d="M73.9,148.72c-.96.36-1.61,1.09-1.96,2.19-.36,1.09-.3,2.23.15,3.42.45,1.18,1.18,2.06,2.17,2.63,1,.58,1.97.69,2.94.32.92-.34,1.56-1.07,1.91-2.16.36-1.09.31-2.22-.15-3.4-.45-1.19-1.18-2.07-2.18-2.64-1-.58-1.95-.7-2.87-.35h0Z"/>
            <path class="cls-8" d="M73.9,150.28c-.26.93-.2,1.92.2,2.96s1,1.81,1.83,2.34c.83.52,1.61.64,2.34.36.17-.06.32-.13.46-.23.17-.28.3-.59.42-.93.36-1.08.31-2.22-.15-3.4-.45-1.18-1.18-2.06-2.17-2.64-.31-.18-.63-.31-.93-.39-.17.03-.33.07-.5.13-.73.28-1.23.88-1.5,1.81h.01Z"/>
            <path class="cls-5" d="M70.02,163.24c.51,1.03,1.31,1.76,2.42,2.21,1.23.53,2.45.53,3.7.02,1.24-.51,2.12-1.35,2.65-2.59.46-1.09.52-2.16.19-3.26l-8.98,3.61h.01Z"/>
          </g>
        </g>
        <path class="cls-4" d="M201.22,189.41l1.6-5.15,6.14,5.38,1.15-4.61,6.8,4.38-.29-4.35,6.77,4.35-37.72-53.85-18.64,3.9,34.19,49.95Z"/>
        <path class="cls-3" d="M152.75,189.41l-1.59-5.15-6.14,5.38-1.16-4.61-6.79,4.38.29-4.35-6.78,4.35,40.75-59.46.64,4.02,6.34-4.02.6,4.31,5.97-4.31.1,4.45,8.53-4.45-40.75,59.46Z"/>
        <path class="cls-4" d="M185.98,199.2h36.18v16.43h-90.34v-16.43h36.18v-19.65h17.98v19.65Z"/>
        <path class="cls-4" d="M315.7,218.75h-17.67v-88.79h17.67v88.79Z"/>
        <path class="cls-10" d="M285.91,181.49c-3.25,4.65-6.55-1.62-12.25-1.62s-5.69,2.06-11.4,2.06-6.83-4.58-11.88-1.94c-2.65,1.38,1.51,3.9,1.51,6.87s-2.07,2.98-2.07,5.96-.45,3.18,1.75,5.21c2.36,2.18,2.52,1.79,5.74,1.79s3.23-2.06,6.45-2.06,3.23,2.06,6.45,2.06c2.59,0,5.14-2.22,7.74-2.52,2.6-.3,5.7,1.26,8.13.68,2.86-.68,6.13-2.95,8.17-3.89,1.13,2.38-1.98,3.07-1.98,5.71s2.07,2.64,2.07,5.27-1.2,2.44-2.03,4.95c-2.06,1.03-3.5,3.21-6.48,3.89-2.5.56-5.56-1.04-8.36-.75-2.8.29-5.32,2.47-8.01,2.47-6.03,0-6.03-2.06-12.05-2.06s-6.03,2.06-12.06,2.06-7.67,3.2-11.22-1.64c-4.87-6.63-1.87-7.61-1.87-15.82s2.07-8.21,2.07-16.43-6.58-10.26-1.89-17.01c3.23-4.66,6.55,1.62,12.25,1.62s5.69-2.06,11.4-2.06,6.8,4.54,11.87,1.94c2.6-1.33-1.51-3.82-1.51-6.73s2.07-2.91,2.07-5.82,1.1-3.59-1.51-4.9c-5.1-2.6-5.26-1.95-10.99-1.95s-5.74,2.06-11.47,2.06-5.83.43-11.04-1.96c-2.4-1.1-1.47-1.69-1.47-4.33s2.07-2.64,2.07-5.27-3.88-5.49-1.34-6.26c8.28-2.51,8.96,2.01,17.62,2.01s8.66-2.06,17.32-2.06,10.31-4.14,16.62,1.78c5.95,5.59,1.74,7.4,1.74,15.53s-3.72,8.52-2.05,16.5c1.81,8.67,6.54,9.99,1.87,16.67h.02Z"/>
        <path class="cls-6" d="M285.91,181.49c-3.25,4.65-6.55-1.62-12.25-1.62s-5.69,2.06-11.4,2.06-6.83-4.58-11.88-1.94c-2.65,1.38,1.51,3.9,1.51,6.87s-2.07,2.98-2.07,5.96-.45,3.18,1.75,5.21c2.36,2.18,2.52,1.79,5.74,1.79s3.23-2.06,6.45-2.06,3.23,2.06,6.45,2.06c2.59,0,5.14-2.22,7.74-2.52,2.6-.3,5.7,1.26,8.13.68,2.86-.68,6.13-2.95,8.17-3.89,1.13,2.38-1.98,3.07-1.98,5.71s2.07,2.64,2.07,5.27-1.2,2.44-2.03,4.95c-2.06,1.03-3.5,3.21-6.48,3.89-2.5.56-5.56-1.04-8.36-.75-2.8.29-5.32,2.47-8.01,2.47-6.03,0-6.03-2.06-12.05-2.06s-6.03,2.06-12.06,2.06-7.67,3.2-11.22-1.64c-4.87-6.63-1.87-7.61-1.87-15.82s2.07-8.21,2.07-16.43-6.58-10.26-1.89-17.01c3.23-4.66,6.55,1.62,12.25,1.62s5.69-2.06,11.4-2.06,6.8,4.54,11.87,1.94c2.6-1.33-1.51-3.82-1.51-6.73s2.07-2.91,2.07-5.82,1.1-3.59-1.51-4.9c-5.1-2.6-5.26-1.95-10.99-1.95s-5.74,2.06-11.47,2.06-5.83.43-11.04-1.96c-2.4-1.1-1.47-1.69-1.47-4.33s2.07-2.64,2.07-5.27-3.88-5.49-1.34-6.26c8.28-2.51,8.96,2.01,17.62,2.01s8.66-2.06,17.32-2.06,10.31-4.14,16.62,1.78c5.95,5.59,1.74,7.4,1.74,15.53s-3.72,8.52-2.05,16.5c1.81,8.67,6.54,9.99,1.87,16.67h.02Z"/>
        <path class="cls-4" d="M243.85,143.02c-1.33,1.07-2.19,2.53-2.61,4.35-.42,1.83-.24,3.51.51,5.03.76,1.53,1.88,2.46,3.36,2.8,1.43.32,2.82-.05,4.17-1.12,1.34-1.05,2.21-2.49,2.62-4.33.41-1.84.24-3.52-.52-5.05-.76-1.53-1.86-2.45-3.29-2.78-1.43-.32-2.9.04-4.24,1.11h0Z"/>
        <path class="cls-8" d="M246.47,144.06c-1.1.95-1.83,2.22-2.18,3.82-.35,1.6-.24,3.07.35,4.38.61,1.34,1.47,2.13,2.61,2.38.26.05.51.08.76.09.44-.21.87-.48,1.29-.82,1.34-1.05,2.22-2.49,2.62-4.33.41-1.84.24-3.51-.52-5.05-.24-.48-.51-.9-.83-1.27-.23-.1-.48-.19-.73-.24-1.14-.25-2.27.09-3.38,1.04h-.01Z"/>
        <path class="cls-4" d="M258.55,144.22c-1.48-.33-2.9.04-4.24,1.11-1.34,1.07-2.21,2.51-2.63,4.35-.41,1.84-.23,3.51.52,5.03.76,1.53,1.88,2.46,3.36,2.8,1.42.31,2.8-.06,4.15-1.13,1.34-1.05,2.21-2.49,2.62-4.33.41-1.84.24-3.52-.52-5.05-.76-1.53-1.85-2.45-3.27-2.77h.01Z"/>
        <path class="cls-8" d="M256.94,146.35c-1.1.95-1.83,2.22-2.18,3.82-.36,1.6-.24,3.07.35,4.39.6,1.32,1.45,2.11,2.6,2.36.26.05.51.08.76.09.44-.21.87-.48,1.3-.82,1.34-1.05,2.21-2.49,2.62-4.33.41-1.84.24-3.51-.52-5.05-.24-.48-.52-.89-.83-1.25-.23-.1-.48-.19-.73-.24-1.14-.25-2.26.08-3.35,1.02h-.01Z"/>
        <path class="cls-4" d="M44.34,126.02c-4.3-2.09-7.78-5.56-9.88-9.83-2.1,4.27-5.59,7.74-9.88,9.83,4.3,2.09,7.78,5.55,9.88,9.83,2.1-4.27,5.59-7.74,9.88-9.83Z"/>
        <path class="cls-2" d="M313.07,207.92h0c.15-.02.3.01.45.1h0l3.53,2.23.09.05.1-.02,4.08-.9h0c.16-.04.31-.02.46.06h0c.14.07.24.18.31.33.07.15.08.3.04.46l-1.05,4.03-.03.1.05.09,2.12,3.59c.08.14.11.29.09.45-.02.16-.09.3-.21.41-.13.11-.27.17-.43.18h0l-4.17.25h-.1s-.07.08-.07.08l-2.78,3.12h0c-.11.12-.24.2-.4.22-.17.02-.32,0-.45-.09h0s0,0,0,0c-.15-.08-.24-.19-.29-.33h0,0s-1.54-3.88-1.54-3.88l-.04-.09-.09-.04-3.83-1.66h0c-.16-.07-.27-.17-.34-.32-.08-.14-.1-.29-.06-.44h0c.03-.18.1-.3.23-.4h0s3.23-2.65,3.23-2.65l.08-.06v-.1s.41-4.14.41-4.14h0c.01-.16.08-.29.19-.41h0c.11-.12.25-.19.41-.2Z"/>
      </g>
      <path class="cls-12" d="M62.81,271.98v-3.2h-10.98v-1.98h13.32v5.18h-2.34ZM51.11,265.68v-1.98h6.21v-1.26h-5.49v-5.83h13.32v1.94h-11.02v1.94h11.09v1.94h-5.56v1.26h6.21v1.98h-14.76ZM78.65,271.98v-15.73h2.34v6.12h1.8v2.23h-1.8v7.38h-2.34ZM67.49,271.44v-2.52c1.76-1.13,3.69-3.76,3.69-7.74v-2.45h-3.51v-2.12h9.36v2.12h-3.51v2.45c0,3.44,1.93,5.96,3.69,6.91v2.45c-1.76-.76-3.67-2.45-4.77-4.64-1.06,2.63-3.1,4.63-4.95,5.54ZM99.35,271.98v-3.85h-2.59c-.38,2.05-2.11,3.49-4.25,3.49-2.41,0-4.32-1.84-4.32-4.32v-6.55c0-2.48,1.91-4.32,4.32-4.32,1.87,0,3.44,1.12,4.05,2.77h2.79v-2.95h2.34v15.73h-2.34ZM90.46,267.3c0,1.26.9,2.23,2.05,2.23s2.05-.97,2.05-2.23v-6.55c0-1.26-.9-2.23-2.05-2.23s-2.05.97-2.05,2.23v6.55ZM96.83,266.04h2.52v-4.75h-2.52v4.75ZM104.39,262.65h6.01v-3.96h-6.01v-2.09h8.28v8.06h-6.01v4.61c2.63-.13,5.54-.41,7.81-.88v2.09c-2.95.61-6.98.92-10.08.95v-8.78ZM113.39,263.95v-2.16h2.16v-5.54h2.34v15.73h-2.34v-8.03h-2.16ZM120.77,267.22h2.34v2.92c3.69-.09,7.58-.32,11.16-.95v1.98c-4.36.77-9.14.94-13.5.99v-4.93ZM120.05,266.18v-1.98h14.76v1.98h-6.03v2.41h-2.34v-2.41h-6.39ZM120.77,262.9v-6.37h2.27v1.26h8.78v-1.26h2.27v6.37h-13.32ZM123.04,261h8.78v-1.33h-8.78v1.33ZM136.25,269.19c3.64-.04,7.9-.29,11.7-1.19v-11.75h2.34v15.73h-2.34v-1.89c-3.8.9-8.06,1.15-11.7,1.19v-2.09ZM136.79,261.25c0-2.88,2.16-4.82,4.77-4.82s4.77,1.94,4.77,4.82-2.16,4.82-4.77,4.82-4.77-1.94-4.77-4.82ZM139.06,261.25c0,1.73,1.12,2.81,2.5,2.81s2.5-1.08,2.5-2.81-1.12-2.81-2.5-2.81-2.5,1.08-2.5,2.81ZM157.31,262.44v-5.83h13.32v5.83h-5.49v1.26h6.21v1.98h-14.76v-1.98h6.21v-1.26h-5.49ZM157.31,268.77v-1.98h13.32v5.18h-2.34v-3.2h-10.98ZM159.57,260.53h8.78v-2.02h-8.78v2.02ZM172.78,269.28c2.05-.02,4.14-.05,6.21-.16v-3.82h2.34v3.67c2.14-.16,4.25-.4,6.21-.77v2.16c-4.55.86-9.79,1.04-14.76,1.08v-2.16ZM173.32,266.14v-2.2c2.41-.29,5.67-2.92,5.67-5.26v-2.18h2.34v2.18c0,2.16,3.19,4.28,5.67,4.28v2.2c-2.27-.04-5.42-1.49-6.79-3.51-1.35,2.34-4.63,4.23-6.89,4.48ZM189.52,262.65h6.37v-3.96h-6.37v-2.09h8.64v8.06h-6.37v4.61c2.63-.13,5.54-.41,7.81-.88v2.09c-2.95.61-6.98.92-10.08.95v-8.78ZM200.68,271.98v-15.73h2.34v15.73h-2.34ZM209.02,271.62c-1.89,0-3.29-1.33-3.29-3.29v-8.6c0-1.96,1.4-3.29,3.29-3.29s3.29,1.33,3.29,3.29v2.9h1.37v-6.3h2.23v15.52h-2.23v-7.13h-1.37v3.62c0,1.96-1.4,3.29-3.29,3.29ZM207.92,268.32c0,.77.43,1.28,1.1,1.28s1.1-.5,1.1-1.28v-8.6c0-.77-.43-1.28-1.1-1.28s-1.1.5-1.1,1.28v8.6ZM216.95,271.98v-15.73h2.27v15.73h-2.27ZM229.48,266.49c-1.37.07-2.7.11-3.96.13v-2.02c3.64-.04,7.9-.29,11.7-1.19v-7.16h2.34v15.73h-2.34v-6.55c-1.73.41-3.56.68-5.4.86v5.69h-2.34v-5.49ZM226.24,258.62v-2.02h9v1.37c0,1.96-.23,3.87-.49,5.2-.56.11-1.84.27-2.36.32.25-1.48.5-3.56.5-4.88h-6.66ZM257.56,271.98v-15.73h2.34v15.73h-2.34ZM246.04,271.44v-2.23c3.42-.5,6.66-3.19,6.66-8.68v-1.8h-6.3v-2.12h8.64v3.92c0,6.12-3.64,10.26-9,10.91ZM262.78,267.82h11.05v-.77h-11.05v-1.73h5.49v-.94h-6.21v-1.84h14.76v1.84h-6.21v.94h5.49v4.16h-11.05v.95c3.67-.02,7.52-.13,11.23-.54v1.73c-4.48.5-9.18.54-13.5.54v-4.34ZM262.6,259.14c0-1.42,1.15-2.54,2.59-2.54h8.5c1.44,0,2.59,1.12,2.59,2.54s-1.15,2.54-2.59,2.54h-8.5c-1.44,0-2.59-1.12-2.59-2.54ZM264.87,259.14c0,.45.34.77.79.77h7.56c.45,0,.79-.32.79-.77s-.34-.77-.79-.77h-7.56c-.45,0-.79.32-.79.77ZM289.96,271.98v-3.85h-2.59c-.38,2.05-2.11,3.49-4.25,3.49-2.41,0-4.32-1.84-4.32-4.32v-6.55c0-2.48,1.91-4.32,4.32-4.32,1.87,0,3.44,1.12,4.05,2.77h2.79v-2.95h2.34v15.73h-2.34ZM281.06,267.3c0,1.26.9,2.23,2.05,2.23s2.05-.97,2.05-2.23v-6.55c0-1.26-.9-2.23-2.05-2.23s-2.05.97-2.05,2.23v6.55ZM287.44,266.04h2.52v-4.75h-2.52v4.75ZM.72,293.75h11.05v-.85H.72v-1.73h13.32v4.23H2.99v1.03c3.67-.02,7.52-.13,11.23-.54v1.73c-4.48.5-9.18.54-13.5.54v-4.41ZM0,290.13v-1.84h14.76v1.84H0ZM.72,287.25v-4.64h2.34v2.81h11.05v1.84H.72ZM28.73,291.46v-9.14h2.23v3.46h1.15v-3.53h2.27v9.43h-2.27v-3.89h-1.15v3.67h-2.23ZM20.52,284.94v-1.94h2.7v-1.12h2.27v1.12h2.7v1.94h-7.67ZM20.66,288.35c0-1.53,1.26-2.79,2.79-2.79h1.8c1.53,0,2.79,1.26,2.79,2.79s-1.26,2.79-2.79,2.79h-1.8c-1.53,0-2.79-1.26-2.79-2.79ZM21.06,295.1c0-1.6,1.3-2.88,2.92-2.88h7.67c1.62,0,2.92,1.28,2.92,2.88s-1.3,2.88-2.92,2.88h-7.67c-1.62,0-2.92-1.28-2.92-2.88ZM22.86,288.35c0,.54.38.92.92.92h1.15c.54,0,.92-.38.92-.92s-.38-.92-.92-.92h-1.15c-.54,0-.92.38-.92.92ZM23.33,295.1c0,.49.36.86.86.86h7.24c.5,0,.86-.38.86-.86s-.36-.86-.86-.86h-7.24c-.5,0-.86.38-.86.86ZM48.24,297.98v-3.06h-10.98v-1.98h13.32v5.04h-2.34ZM36.54,291.82v-1.98h6.21v-1.26h-5.49v-6.05h2.27v1.1h8.78v-1.1h2.27v6.05h-5.49v1.26h6.21v1.98h-14.76ZM39.53,286.67h8.78v-1.17h-8.78v1.17ZM53.46,292.79h2.34v3.22c3.74-.09,7.36-.32,10.8-.94v2.09c-4.16.74-8.57.92-13.14.99v-5.36ZM52.74,285.09v-1.98h3.87v-1.22h2.34v1.22h3.87v1.98h-10.08ZM52.92,288.85c0-1.57,1.3-2.86,2.83-2.86h4.07c1.53,0,2.83,1.3,2.83,2.86s-1.3,2.86-2.83,2.86h-4.07c-1.53,0-2.83-1.3-2.83-2.86ZM55.18,288.85c0,.56.4.95.92.95h3.35c.52,0,.92-.4.92-.95s-.4-.95-.92-.95h-3.35c-.52,0-.92.4-.92.95ZM64.08,293.66v-11.41h2.34v4.27h1.8v2.16h-1.8v4.99h-2.34ZM73.61,297.44v-14.83h2.27v12.67c1.6-.07,3.28-.2,4.68-.4v2.09c-2.09.29-4.82.45-6.95.47ZM81.28,297.83v-15.52h2.23v6.3h1.33v-6.37h2.27v15.73h-2.27v-7.27h-1.33v7.13h-2.23ZM90.17,290.88h13.14v1.8h-10.87v.88h10.69v1.73h-10.69v1.06c3.69-.04,7.74-.14,11.05-.54v1.8c-4.01.47-9.07.54-13.32.54v-7.27ZM89.45,289.8v-1.98c3.71,0,6.66-1.48,6.66-3.13v-.11h-6.3v-1.98h8.64v1.15h2.52v-1.51h2.34v7.92h-2.34v-1.15h-3.06v-1.94h3.06v-1.37h-2.79c-.99,2.7-4.59,4.1-8.73,4.1ZM109.31,297.62c-1.89,0-3.29-1.33-3.29-3.29v-8.6c0-1.96,1.4-3.29,3.29-3.29s3.29,1.33,3.29,3.29v2.9h1.37v-6.3h2.23v15.52h-2.23v-7.13h-1.37v3.62c0,1.96-1.4,3.29-3.29,3.29ZM108.21,294.32c0,.77.43,1.28,1.1,1.28s1.1-.5,1.1-1.28v-8.6c0-.77-.43-1.28-1.1-1.28s-1.1.5-1.1,1.28v8.6ZM117.24,297.98v-15.73h2.27v15.73h-2.27ZM137.51,297.98v-3.56h-10.98v-1.98h5.49v-1.98h-6.21v-1.98h11.36c.22-1.26.34-2.86.34-3.89h-10.98v-1.98h13.32v1.26c0,1.66-.14,3.33-.38,4.61h1.1v1.98h-6.21v1.98h5.49v5.54h-2.34ZM142.55,290.92v-8.32h8.64v8.32h-8.64ZM142.91,298.16v-5.8h2.34v3.65c3.8-.09,7.51-.32,10.98-.94v2.09c-4.19.74-8.71.92-13.32.99ZM144.82,288.9h4.1v-4.28h-4.1v4.28ZM153.71,293.44v-11.2h2.34v11.2h-2.34ZM159.11,292.36h2.34v3.65c3.8-.09,7.51-.32,10.98-.94v2.09c-4.19.74-8.71.92-13.32.99v-5.8ZM158.57,286.85c0-2.59,2.05-4.43,4.59-4.43,1.4,0,2.66.56,3.51,1.51h3.24v-1.69h2.34v11.2h-2.34v-3.67h-3.24c-.85.95-2.11,1.51-3.51,1.51-2.54,0-4.59-1.84-4.59-4.43ZM160.84,286.85c0,1.48,1.01,2.41,2.32,2.41s2.32-.94,2.32-2.41-1.01-2.41-2.32-2.41-2.32.94-2.32,2.41ZM167.66,287.75h2.25v-1.8h-2.25c.05.29.09.59.09.9s-.04.61-.09.9ZM175.13,298.16v-6.16h13.32v5.2c-4.32.74-9,.9-13.32.95ZM174.41,290.2v-1.98h11.34c.23-1.19.36-2.66.36-3.64h-10.98v-1.98h13.32v1.26c0,1.6-.16,3.15-.38,4.36h1.1v1.98h-14.76ZM177.39,296.21c2.9-.07,5.89-.22,8.78-.58v-1.73h-8.78v2.3ZM191.32,293.82h11.05v-.77h-11.05v-1.73h13.32v4.16h-11.05v.95c3.67-.02,7.52-.13,11.23-.54v1.73c-4.48.5-9.18.54-13.5.54v-4.34ZM190.6,290.42v-1.84h14.76v1.84h-14.76ZM191.14,285.14c0-1.42,1.15-2.54,2.59-2.54h8.5c1.44,0,2.59,1.12,2.59,2.54s-1.15,2.54-2.59,2.54h-8.5c-1.44,0-2.59-1.12-2.59-2.54ZM193.41,285.14c0,.45.34.77.79.77h7.56c.45,0,.79-.32.79-.77s-.34-.77-.79-.77h-7.56c-.45,0-.79.32-.79.77ZM211.3,290.92v-8.32h8.64v8.32h-8.64ZM211.66,298.16v-5.8h2.34v3.65c3.74-.09,7.36-.32,10.8-.94v2.09c-4.16.74-8.57.92-13.14.99ZM213.57,288.9h4.1v-4.28h-4.1v4.28ZM222.28,293.44v-11.2h2.34v4.05h1.8v2.16h-1.8v4.99h-2.34ZM227.86,293.82h11.05v-.77h-11.05v-1.73h13.32v4.16h-11.05v.95c3.67-.02,7.52-.13,11.23-.54v1.73c-4.48.5-9.18.54-13.5.54v-4.34ZM227.14,290.42v-1.84h14.76v1.84h-14.76ZM227.86,287.68v-5.08h13.32v1.8h-11.02v1.48h11.09v1.8h-13.39ZM255.04,297.98v-7.24h-2.52v2.56c0,2.48-1.91,4.32-4.32,4.32s-4.32-1.84-4.32-4.32v-6.55c0-2.48,1.91-4.32,4.32-4.32s4.32,1.84,4.32,4.32v1.84h2.52v-6.34h2.34v15.73h-2.34ZM246.15,293.3c0,1.26.9,2.23,2.05,2.23s2.05-.97,2.05-2.23v-6.55c0-1.26-.9-2.23-2.05-2.23s-2.05.97-2.05,2.23v6.55ZM263.68,295.2c3.42-.5,6.66-3.19,6.66-8.68v-1.8h-6.3v-2.12h8.64v3.92c0,6.12-3.64,10.26-9,10.91v-2.23ZM275.02,297.98v-15.73h2.34v6.12h1.8v2.23h-1.8v7.38h-2.34ZM280.6,295.82c1.12-.25,2.7-1.51,2.7-3.13v-.9h2.27v.9c0,1.62,1.19,2.84,1.87,3.13.68-.29,1.87-1.51,1.87-3.13v-.9h2.27v.9c0,1.62,1.58,2.88,2.7,3.13v2.16c-1.15-.18-2.84-1.12-3.8-2.56-.81,1.42-2.25,2.36-3.04,2.56-.79-.2-2.23-1.13-3.04-2.56-.95,1.44-2.65,2.38-3.8,2.56v-2.16ZM280.06,290.52v-1.98c2.66,0,4.68-1.62,4.68-3.6v-.36h-4.32v-1.98h6.59v1.73c0,.54-.05,1.03-.16,1.49h1.53v-3.51h2.23v8.71h-2.23v-3.19h-2.39c-1.22,1.76-3.42,2.68-5.92,2.68ZM291.65,291.06v-8.82h2.27v8.82h-2.27ZM296.8,292h2.27v1.04h8.78v-1.04h2.27v5.2c-4.32.74-9,.9-13.32.95v-6.16ZM296.08,291.03v-1.98h14.76v1.98h-14.76ZM296.62,288.08v-2.02c2.52,0,5.67-1.04,5.67-2.77v-.77h2.34v.77c0,1.73,3.15,2.77,5.67,2.77v2.02c-2.32,0-5.49-.86-6.84-2.54-1.35,1.67-4.52,2.54-6.84,2.54ZM299.06,296.21c2.9-.07,5.89-.22,8.78-.58v-.72h-8.78v1.3ZM323.98,297.98v-15.73h2.34v15.73h-2.34ZM312.82,297.44v-14.83h2.34v12.6c2.61-.13,5.49-.41,7.74-.88v2.16c-2.95.61-6.98.92-10.08.95ZM328.83,282.6h8.64v2.12h-6.34v10.51c2.63-.13,5.51-.41,7.78-.88v2.12c-2.95.61-6.98.92-10.08.95v-14.83ZM339.81,297.98v-15.73h2.34v6.12h1.8v2.23h-1.8v7.38h-2.34ZM347.91,297c-.9.13-1.98.18-2.88.18v-2.88h2.88v2.7Z"/>
    </g>
  </g>
</svg>