<?xml version="1.0" encoding="UTF-8"?>
<svg id="_레이어_2" data-name="레이어 2" xmlns="http://www.w3.org/2000/svg" xmlns:xlink="http://www.w3.org/1999/xlink" viewBox="0 0 299.57 223">
  <defs>
    <style>
      .cls-1 {
        mask: url(#mask);
      }

      .cls-2 {
        fill: #fbf471;
      }

      .cls-2, .cls-3, .cls-4, .cls-5, .cls-6 {
        stroke: #000;
      }

      .cls-2, .cls-3, .cls-4, .cls-5, .cls-6, .cls-7 {
        stroke-width: .49px;
      }

      .cls-8 {
        fill: #000;
      }

      .cls-8, .cls-9, .cls-10, .cls-11, .cls-12 {
        stroke-width: 0px;
      }

      .cls-9 {
        fill: #ffeb17;
      }

      .cls-3, .cls-10 {
        fill: #00d7ff;
      }

      .cls-4, .cls-12 {
        fill: #fff;
      }

      .cls-11 {
        fill: #004fff;
      }

      .cls-5 {
        fill: #ff90c8;
      }

      .cls-13 {
        mask: url(#mask-1);
      }

      .cls-6, .cls-7 {
        fill: none;
      }

      .cls-7 {
        stroke: #231815;
      }
    </style>
    <mask id="mask" x="50.95" y="9.38" width="95.01" height="65.49" maskUnits="userSpaceOnUse">
      <g id="mask0_16_506" data-name="mask0 16 506">
        <path class="cls-12" d="M58.92,62.48V26.82h79.47v13.73h-61.9v8.21h62.95v13.73H58.92Z"/>
      </g>
    </mask>
    <mask id="mask-1" x="10.96" y="127.38" width="87.78" height="59.3" maskUnits="userSpaceOnUse">
      <g id="mask1_16_506" data-name="mask1 16 506">
        <path class="cls-12" d="M97.15,133.68c2.12-1.44,2.12-3.77,0-5.22-2.12-1.44-5.57-1.44-7.69,0-2.12,1.45-5.57,1.45-7.69,0-2.12-1.44-5.57-1.44-7.69,0-2.12,1.45-5.57,1.45-7.69,0-2.12-1.44-5.57-1.44-7.69,0-2.12,1.45-5.57,1.45-7.69,0-2.12-1.44-5.57-1.44-7.69,0-2.12,1.45-5.57,1.45-7.69,0-2.12-1.44-5.57-1.44-7.69,0-2.12,1.45-5.57,1.45-7.69,0-2.12-1.44-5.57-1.44-7.69,0-2.12,1.45-2.12,3.77,0,5.22,2.12,1.44,2.12,3.77,0,5.22s-2.12,3.77,0,5.22c2.12,1.44,2.12,3.77,0,5.22-2.12,1.44-2.12,3.77,0,5.22s2.12,3.77,0,5.22c-2.12,1.44-2.12,3.77,0,5.22,2.12,1.44,5.57,1.44,7.69,0,2.12-1.44,5.57-1.44,7.69,0,2.12,1.44,5.57,1.44,7.69,0,2.12-1.44,5.57-1.44,7.69,0,2.12,1.44,5.57,1.44,7.69,0,2.12-1.44,5.57-1.44,7.69,0,2.12,1.44,5.57,1.44,7.69,0,2.12-1.44,5.57-1.44,7.69,0,2.12,1.44,5.57,1.44,7.69,0,2.12-1.44,5.57-1.44,7.69,0,2.12,1.44,5.57,1.44,7.69,0,2.12-1.44,2.12-3.77,0-5.22-2.12-1.44-2.12-3.77,0-5.22s2.12-3.77,0-5.22c-2.12-1.44-2.12-3.77,0-5.22,2.12-1.44,2.12-3.77,0-5.22s-2.12-3.77,0-5.22Z"/>
      </g>
    </mask>
  </defs>
  <g id="_레이어_1-2" data-name="레이어 1">
    <path class="cls-4" d="M58.3,86.51h80.31v30.16h-17.88v-16.22h-62.43v-13.93Z"/>
    <path class="cls-4" d="M107.44,62.48v5.3h36.39v14.04H53.49v-14.04h36.39v-5.3h17.57Z"/>
    <g class="cls-1">
      <g>
        <path class="cls-11" d="M52.88,9.7c3.69-.73,4.17,4.15,7.93,4.15s3.76-4.19,7.52-4.19,3.76,4.19,7.52,4.19,3.76-4.19,7.52-4.19,3.76,4.19,7.52,4.19,3.76-4.19,7.52-4.19,3.76,4.19,7.52,4.19,3.76-4.19,7.52-4.19,3.76,4.19,7.52,4.19,3.76-4.19,7.52-4.19,3.76,4.19,7.54,4.19,4.24-4.87,7.94-4.15c.73.15-2.51,2.8-2.51,3.53s4.21.74,4.21,1.49-4.21.74-4.21,1.48,4.21.74,4.21,1.48-4.21.74-4.21,1.49,4.21.74,4.21,1.49-4.21.74-4.21,1.49,4.21.74,4.21,1.49-4.21.74-4.21,1.49,4.21.75,4.21,1.49-4.21.75-4.21,1.49,3.25,3.4,2.52,3.54c-3.69.73-4.17-4.15-7.93-4.15s-3.76,4.19-7.52,4.19-3.76-4.19-7.52-4.19-3.76,4.19-7.52,4.19-3.76-4.19-7.52-4.19-3.76,4.19-7.52,4.19-3.76-4.19-7.52-4.19-3.76,4.19-7.52,4.19-3.76-4.19-7.52-4.19-3.76,4.19-7.52,4.19-3.76-4.19-7.53-4.19-4.24,4.87-7.94,4.15c-.73-.15,2.51-2.8,2.51-3.53s-4.21-.74-4.21-1.49,4.21-.74,4.21-1.48-4.21-.74-4.21-1.48,4.21-.74,4.21-1.49-4.21-.74-4.21-1.49,4.21-.74,4.21-1.49-4.21-.74-4.21-1.49,4.21-.74,4.21-1.49-4.21-.75-4.21-1.49,4.33-1.24,4.15-1.96c-.43-1.81-3.2-2.92-2.46-3.07Z"/>
        <path class="cls-6" d="M52.88,9.7c3.69-.73,4.17,4.15,7.93,4.15s3.76-4.19,7.52-4.19,3.76,4.19,7.52,4.19,3.76-4.19,7.52-4.19,3.76,4.19,7.52,4.19,3.76-4.19,7.52-4.19,3.76,4.19,7.52,4.19,3.76-4.19,7.52-4.19,3.76,4.19,7.52,4.19,3.76-4.19,7.52-4.19,3.76,4.19,7.54,4.19,4.24-4.87,7.94-4.15c.73.15-2.51,2.8-2.51,3.53s4.21.74,4.21,1.49-4.21.74-4.21,1.48,4.21.74,4.21,1.48-4.21.74-4.21,1.49,4.21.74,4.21,1.49-4.21.74-4.21,1.49,4.21.74,4.21,1.49-4.21.74-4.21,1.49,4.21.75,4.21,1.49-4.21.75-4.21,1.49,3.25,3.4,2.52,3.54c-3.69.73-4.17-4.15-7.93-4.15s-3.76,4.19-7.52,4.19-3.76-4.19-7.52-4.19-3.76,4.19-7.52,4.19-3.76-4.19-7.52-4.19-3.76,4.19-7.52,4.19-3.76-4.19-7.52-4.19-3.76,4.19-7.52,4.19-3.76-4.19-7.52-4.19-3.76,4.19-7.52,4.19-3.76-4.19-7.53-4.19-4.24,4.87-7.94,4.15c-.73-.15,2.51-2.8,2.51-3.53s-4.21-.74-4.21-1.49,4.21-.74,4.21-1.48-4.21-.74-4.21-1.48,4.21-.74,4.21-1.49-4.21-.74-4.21-1.49,4.21-.74,4.21-1.49-4.21-.74-4.21-1.49,4.21-.74,4.21-1.49-4.21-.75-4.21-1.49,4.33-1.24,4.15-1.96c-.43-1.81-3.2-2.92-2.46-3.07Z"/>
        <path class="cls-10" d="M52.88,20.43c3.69-.73,4.17,4.15,7.93,4.15s3.76-4.19,7.52-4.19,3.76,4.19,7.52,4.19,3.76-4.19,7.52-4.19,3.76,4.19,7.52,4.19,3.76-4.19,7.52-4.19,3.76,4.19,7.52,4.19,3.76-4.19,7.52-4.19,3.76,4.19,7.52,4.19,3.76-4.19,7.52-4.19,3.76,4.19,7.54,4.19,4.24-4.87,7.94-4.15c.73.15-2.51,2.8-2.51,3.53s4.21.74,4.21,1.49-4.21.74-4.21,1.48,4.21.74,4.21,1.48-4.21.74-4.21,1.49,4.21.74,4.21,1.49-4.21.74-4.21,1.49,4.21.74,4.21,1.49-4.21.74-4.21,1.49,4.21.75,4.21,1.49-4.21.75-4.21,1.49,3.25,3.4,2.52,3.54c-3.69.73-4.17-4.15-7.93-4.15s-3.76,4.19-7.52,4.19-3.76-4.19-7.52-4.19-3.76,4.19-7.52,4.19-3.76-4.19-7.52-4.19-3.76,4.19-7.52,4.19-3.76-4.19-7.52-4.19-3.76,4.19-7.52,4.19-3.76-4.19-7.52-4.19-3.76,4.19-7.52,4.19-3.76-4.19-7.53-4.19-4.24,4.87-7.94,4.15c-.73-.15,2.51-2.8,2.51-3.53s-4.21-.74-4.21-1.49,4.21-.74,4.21-1.48-4.21-.74-4.21-1.48,4.21-.74,4.21-1.49-4.21-.74-4.21-1.49,4.21-.74,4.21-1.49-4.21-.74-4.21-1.49,4.21-.74,4.21-1.49-4.21-.75-4.21-1.49,4.33-1.24,4.15-1.96c-.43-1.81-3.2-2.92-2.46-3.07Z"/>
        <path class="cls-6" d="M52.88,20.43c3.69-.73,4.17,4.15,7.93,4.15s3.76-4.19,7.52-4.19,3.76,4.19,7.52,4.19,3.76-4.19,7.52-4.19,3.76,4.19,7.52,4.19,3.76-4.19,7.52-4.19,3.76,4.19,7.52,4.19,3.76-4.19,7.52-4.19,3.76,4.19,7.52,4.19,3.76-4.19,7.52-4.19,3.76,4.19,7.54,4.19,4.24-4.87,7.94-4.15c.73.15-2.51,2.8-2.51,3.53s4.21.74,4.21,1.49-4.21.74-4.21,1.48,4.21.74,4.21,1.48-4.21.74-4.21,1.49,4.21.74,4.21,1.49-4.21.74-4.21,1.49,4.21.74,4.21,1.49-4.21.74-4.21,1.49,4.21.75,4.21,1.49-4.21.75-4.21,1.49,3.25,3.4,2.52,3.54c-3.69.73-4.17-4.15-7.93-4.15s-3.76,4.19-7.52,4.19-3.76-4.19-7.52-4.19-3.76,4.19-7.52,4.19-3.76-4.19-7.52-4.19-3.76,4.19-7.52,4.19-3.76-4.19-7.52-4.19-3.76,4.19-7.52,4.19-3.76-4.19-7.52-4.19-3.76,4.19-7.52,4.19-3.76-4.19-7.53-4.19-4.24,4.87-7.94,4.15c-.73-.15,2.51-2.8,2.51-3.53s-4.21-.74-4.21-1.49,4.21-.74,4.21-1.48-4.21-.74-4.21-1.48,4.21-.74,4.21-1.49-4.21-.74-4.21-1.49,4.21-.74,4.21-1.49-4.21-.74-4.21-1.49,4.21-.74,4.21-1.49-4.21-.75-4.21-1.49,4.33-1.24,4.15-1.96c-.43-1.81-3.2-2.92-2.46-3.07Z"/>
        <path class="cls-11" d="M52.88,31.17c3.69-.73,4.17,4.15,7.93,4.15s3.76-4.19,7.52-4.19,3.76,4.19,7.52,4.19,3.76-4.19,7.52-4.19,3.76,4.19,7.52,4.19,3.76-4.19,7.52-4.19,3.76,4.19,7.52,4.19,3.76-4.19,7.52-4.19,3.76,4.19,7.52,4.19,3.76-4.19,7.52-4.19,3.76,4.19,7.54,4.19,4.24-4.87,7.94-4.15c.73.15-2.51,2.8-2.51,3.53s4.21.74,4.21,1.49-4.21.74-4.21,1.48,4.21.74,4.21,1.48-4.21.74-4.21,1.49,4.21.74,4.21,1.49-4.21.74-4.21,1.49,4.21.74,4.21,1.49-4.21.74-4.21,1.49,4.21.75,4.21,1.49-4.21.75-4.21,1.49,3.25,3.4,2.52,3.54c-3.69.73-4.17-4.15-7.93-4.15s-3.76,4.19-7.52,4.19-3.76-4.19-7.52-4.19-3.76,4.19-7.52,4.19-3.76-4.19-7.52-4.19-3.76,4.19-7.52,4.19-3.76-4.19-7.52-4.19-3.76,4.19-7.52,4.19-3.76-4.19-7.52-4.19-3.76,4.19-7.52,4.19-3.76-4.19-7.53-4.19-4.24,4.87-7.94,4.15c-.73-.15,2.51-2.8,2.51-3.53s-4.21-.74-4.21-1.49,4.21-.74,4.21-1.48-4.21-.74-4.21-1.48,4.21-.74,4.21-1.49-4.21-.74-4.21-1.49,4.21-.74,4.21-1.49-4.21-.74-4.21-1.49,4.21-.74,4.21-1.49-4.21-.75-4.21-1.49,4.33-1.24,4.15-1.96c-.43-1.81-3.2-2.92-2.46-3.07Z"/>
        <path class="cls-6" d="M52.88,31.17c3.69-.73,4.17,4.15,7.93,4.15s3.76-4.19,7.52-4.19,3.76,4.19,7.52,4.19,3.76-4.19,7.52-4.19,3.76,4.19,7.52,4.19,3.76-4.19,7.52-4.19,3.76,4.19,7.52,4.19,3.76-4.19,7.52-4.19,3.76,4.19,7.52,4.19,3.76-4.19,7.52-4.19,3.76,4.19,7.54,4.19,4.24-4.87,7.94-4.15c.73.15-2.51,2.8-2.51,3.53s4.21.74,4.21,1.49-4.21.74-4.21,1.48,4.21.74,4.21,1.48-4.21.74-4.21,1.49,4.21.74,4.21,1.49-4.21.74-4.21,1.49,4.21.74,4.21,1.49-4.21.74-4.21,1.49,4.21.75,4.21,1.49-4.21.75-4.21,1.49,3.25,3.4,2.52,3.54c-3.69.73-4.17-4.15-7.93-4.15s-3.76,4.19-7.52,4.19-3.76-4.19-7.52-4.19-3.76,4.19-7.52,4.19-3.76-4.19-7.52-4.19-3.76,4.19-7.52,4.19-3.76-4.19-7.52-4.19-3.76,4.19-7.52,4.19-3.76-4.19-7.52-4.19-3.76,4.19-7.52,4.19-3.76-4.19-7.53-4.19-4.24,4.87-7.94,4.15c-.73-.15,2.51-2.8,2.51-3.53s-4.21-.74-4.21-1.49,4.21-.74,4.21-1.48-4.21-.74-4.21-1.48,4.21-.74,4.21-1.49-4.21-.74-4.21-1.49,4.21-.74,4.21-1.49-4.21-.74-4.21-1.49,4.21-.74,4.21-1.49-4.21-.75-4.21-1.49,4.33-1.24,4.15-1.96c-.43-1.81-3.2-2.92-2.46-3.07Z"/>
        <path class="cls-10" d="M52.88,41.9c3.69-.73,4.17,4.15,7.93,4.15s3.76-4.19,7.52-4.19,3.76,4.19,7.52,4.19,3.76-4.19,7.52-4.19,3.76,4.19,7.52,4.19,3.76-4.19,7.52-4.19,3.76,4.19,7.52,4.19,3.76-4.19,7.52-4.19,3.76,4.19,7.52,4.19,3.76-4.19,7.52-4.19,3.76,4.19,7.54,4.19,4.24-4.87,7.94-4.15c.73.15-2.51,2.8-2.51,3.53s4.21.74,4.21,1.49-4.21.74-4.21,1.48,4.21.74,4.21,1.48-4.21.74-4.21,1.49,4.21.74,4.21,1.49-4.21.74-4.21,1.49,4.21.74,4.21,1.49-4.21.74-4.21,1.49,4.21.75,4.21,1.49-4.21.75-4.21,1.49,3.25,3.4,2.52,3.54c-3.69.73-4.17-4.15-7.93-4.15s-3.76,4.19-7.52,4.19-3.76-4.19-7.52-4.19-3.76,4.19-7.52,4.19-3.76-4.19-7.52-4.19-3.76,4.19-7.52,4.19-3.76-4.19-7.52-4.19-3.76,4.19-7.52,4.19-3.76-4.19-7.52-4.19-3.76,4.19-7.52,4.19-3.76-4.19-7.53-4.19-4.24,4.87-7.94,4.15c-.73-.15,2.51-2.8,2.51-3.53s-4.21-.74-4.21-1.49,4.21-.74,4.21-1.48-4.21-.74-4.21-1.48,4.21-.74,4.21-1.49-4.21-.74-4.21-1.49,4.21-.74,4.21-1.49-4.21-.74-4.21-1.49,4.21-.74,4.21-1.49-4.21-.75-4.21-1.49,4.33-1.24,4.15-1.96c-.43-1.81-3.2-2.92-2.46-3.07Z"/>
        <path class="cls-6" d="M52.88,41.9c3.69-.73,4.17,4.15,7.93,4.15s3.76-4.19,7.52-4.19,3.76,4.19,7.52,4.19,3.76-4.19,7.52-4.19,3.76,4.19,7.52,4.19,3.76-4.19,7.52-4.19,3.76,4.19,7.52,4.19,3.76-4.19,7.52-4.19,3.76,4.19,7.52,4.19,3.76-4.19,7.52-4.19,3.76,4.19,7.54,4.19,4.24-4.87,7.94-4.15c.73.15-2.51,2.8-2.51,3.53s4.21.74,4.21,1.49-4.21.74-4.21,1.48,4.21.74,4.21,1.48-4.21.74-4.21,1.49,4.21.74,4.21,1.49-4.21.74-4.21,1.49,4.21.74,4.21,1.49-4.21.74-4.21,1.49,4.21.75,4.21,1.49-4.21.75-4.21,1.49,3.25,3.4,2.52,3.54c-3.69.73-4.17-4.15-7.93-4.15s-3.76,4.19-7.52,4.19-3.76-4.19-7.52-4.19-3.76,4.19-7.52,4.19-3.76-4.19-7.52-4.19-3.76,4.19-7.52,4.19-3.76-4.19-7.52-4.19-3.76,4.19-7.52,4.19-3.76-4.19-7.52-4.19-3.76,4.19-7.52,4.19-3.76-4.19-7.53-4.19-4.24,4.87-7.94,4.15c-.73-.15,2.51-2.8,2.51-3.53s-4.21-.74-4.21-1.49,4.21-.74,4.21-1.48-4.21-.74-4.21-1.48,4.21-.74,4.21-1.49-4.21-.74-4.21-1.49,4.21-.74,4.21-1.49-4.21-.74-4.21-1.49,4.21-.74,4.21-1.49-4.21-.75-4.21-1.49,4.33-1.24,4.15-1.96c-.43-1.81-3.2-2.92-2.46-3.07Z"/>
        <path class="cls-11" d="M52.88,52.63c3.69-.73,4.17,4.15,7.93,4.15s3.76-4.19,7.52-4.19,3.76,4.19,7.52,4.19,3.76-4.19,7.52-4.19,3.76,4.19,7.52,4.19,3.76-4.19,7.52-4.19,3.76,4.19,7.52,4.19,3.76-4.19,7.52-4.19,3.76,4.19,7.52,4.19,3.76-4.19,7.52-4.19,3.76,4.19,7.54,4.19,4.24-4.87,7.94-4.15c.73.15-2.51,2.8-2.51,3.53s4.21.74,4.21,1.49-4.21.74-4.21,1.48,4.21.74,4.21,1.48-4.21.74-4.21,1.49,4.21.74,4.21,1.49-4.21.74-4.21,1.49,4.21.74,4.21,1.49-4.21.74-4.21,1.49,4.21.75,4.21,1.49-4.21.75-4.21,1.49,3.25,3.4,2.52,3.54c-3.69.73-4.17-4.15-7.93-4.15s-3.76,4.19-7.52,4.19-3.76-4.19-7.52-4.19-3.76,4.19-7.52,4.19-3.76-4.19-7.52-4.19-3.76,4.19-7.52,4.19-3.76-4.19-7.52-4.19-3.76,4.19-7.52,4.19-3.76-4.19-7.52-4.19-3.76,4.19-7.52,4.19-3.76-4.19-7.53-4.19-4.24,4.87-7.94,4.15c-.73-.15,2.51-2.8,2.51-3.53s-4.21-.74-4.21-1.49,4.21-.74,4.21-1.48-4.21-.74-4.21-1.48,4.21-.74,4.21-1.49-4.21-.74-4.21-1.49,4.21-.74,4.21-1.49-4.21-.74-4.21-1.49,4.21-.74,4.21-1.49-4.21-.75-4.21-1.49,4.33-1.24,4.15-1.96c-.43-1.81-3.2-2.92-2.46-3.07Z"/>
        <path class="cls-6" d="M52.88,52.63c3.69-.73,4.17,4.15,7.93,4.15s3.76-4.19,7.52-4.19,3.76,4.19,7.52,4.19,3.76-4.19,7.52-4.19,3.76,4.19,7.52,4.19,3.76-4.19,7.52-4.19,3.76,4.19,7.52,4.19,3.76-4.19,7.52-4.19,3.76,4.19,7.52,4.19,3.76-4.19,7.52-4.19,3.76,4.19,7.54,4.19,4.24-4.87,7.94-4.15c.73.15-2.51,2.8-2.51,3.53s4.21.74,4.21,1.49-4.21.74-4.21,1.48,4.21.74,4.21,1.48-4.21.74-4.21,1.49,4.21.74,4.21,1.49-4.21.74-4.21,1.49,4.21.74,4.21,1.49-4.21.74-4.21,1.49,4.21.75,4.21,1.49-4.21.75-4.21,1.49,3.25,3.4,2.52,3.54c-3.69.73-4.17-4.15-7.93-4.15s-3.76,4.19-7.52,4.19-3.76-4.19-7.52-4.19-3.76,4.19-7.52,4.19-3.76-4.19-7.52-4.19-3.76,4.19-7.52,4.19-3.76-4.19-7.52-4.19-3.76,4.19-7.52,4.19-3.76-4.19-7.52-4.19-3.76,4.19-7.52,4.19-3.76-4.19-7.53-4.19-4.24,4.87-7.94,4.15c-.73-.15,2.51-2.8,2.51-3.53s-4.21-.74-4.21-1.49,4.21-.74,4.21-1.48-4.21-.74-4.21-1.48,4.21-.74,4.21-1.49-4.21-.74-4.21-1.49,4.21-.74,4.21-1.49-4.21-.74-4.21-1.49,4.21-.74,4.21-1.49-4.21-.75-4.21-1.49,4.33-1.24,4.15-1.96c-.43-1.81-3.2-2.92-2.46-3.07Z"/>
      </g>
    </g>
    <path class="cls-7" d="M58.92,62.48V26.82h79.47v13.73h-61.9v8.21h62.95v13.73H58.92Z"/>
    <path class="cls-4" d="M86.92,22.97c-.49,1.54-.46,3.21.09,5.01.55,1.8,1.46,3.19,2.73,4.19,1.29,1.01,2.55,1.31,3.81.94,1.21-.37,2.08-1.33,2.57-2.87.5-1.53.48-3.2-.07-5-.55-1.8-1.47-3.2-2.75-4.2-1.27-1-2.53-1.32-3.75-.96-1.22.36-2.14,1.35-2.64,2.89h.01Z"/>
    <path class="cls-8" d="M89.35,22.7c-.38,1.33-.32,2.77.16,4.35.48,1.58,1.25,2.8,2.31,3.68,1.08.9,2.09,1.21,3.06.91.22-.06.42-.16.62-.27.23-.38.42-.82.57-1.3.5-1.53.48-3.19-.07-4.99-.55-1.8-1.47-3.2-2.75-4.2-.41-.31-.8-.56-1.2-.74-.22.01-.44.05-.66.11-.96.29-1.64,1.1-2.03,2.44h-.01Z"/>
    <path class="cls-4" d="M98.42,17.39c-1.26.38-2.14,1.35-2.64,2.89-.5,1.55-.47,3.21.07,5.01.55,1.8,1.46,3.19,2.75,4.19,1.29,1.01,2.55,1.31,3.81.94,1.2-.36,2.06-1.32,2.56-2.87.5-1.53.48-3.2-.07-5-.55-1.8-1.47-3.2-2.75-4.2-1.28-1.01-2.53-1.32-3.73-.96Z"/>
    <path class="cls-8" d="M98.22,19.98c-.38,1.33-.32,2.77.16,4.35.48,1.58,1.25,2.81,2.31,3.7,1.06.89,2.07,1.19,3.04.9.22-.06.42-.16.62-.27.23-.38.42-.82.57-1.3.5-1.53.48-3.19-.07-4.99-.55-1.8-1.47-3.2-2.75-4.2-.41-.31-.81-.55-1.2-.72-.22.01-.44.05-.66.11-.96.29-1.64,1.1-2.02,2.41h0Z"/>
    <path class="cls-4" d="M245.24,76.31h-10.46v39.3h-17.67V26.82h17.67v32.44h10.46v17.05Z"/>
    <path class="cls-4" d="M197.05,110.82l1.12-6.26,4.33,6.54.8-5.6,4.79,5.33-.2-5.3,6.79,5.3-26.55-65.55-16.2,2.09,25.12,63.46Z"/>
    <path class="cls-3" d="M163.87,110.82l-1.12-6.26-4.33,6.54-.82-5.6-4.79,5.33.21-5.3-6.8,5.3,28.68-72.36,2.48,4.88,4.46-4.88.42,5.25,4.2-5.25.07,5.4,6.01-5.4-28.68,72.36Z"/>
    <path class="cls-4" d="M208.58,28.9h-56.25v16.12h56.25v-16.12Z"/>
    <path class="cls-4" d="M171.52,40.24c-1,1.37-1.47,3-1.4,4.87.07,1.87.67,3.45,1.79,4.73,1.13,1.29,2.46,1.9,3.98,1.84,1.47-.06,2.72-.78,3.73-2.15,1.02-1.36,1.49-2.98,1.42-4.86-.07-1.88-.68-3.46-1.81-4.75-1.13-1.29-2.43-1.9-3.9-1.84-1.46.06-2.79.78-3.81,2.15h0Z"/>
    <path class="cls-8" d="M174.31,40.57c-.82,1.19-1.19,2.62-1.13,4.26.06,1.64.55,3.02,1.47,4.14.93,1.14,1.98,1.68,3.15,1.63.26-.01.51-.05.76-.11.37-.31.71-.69,1.03-1.12,1.02-1.36,1.49-2.98,1.42-4.85-.07-1.88-.68-3.46-1.81-4.75-.35-.41-.73-.74-1.13-1.01-.25-.04-.51-.06-.77-.05-1.17.05-2.16.67-3,1.86h0Z"/>
    <path class="cls-4" d="M186.03,37.65c-1.53.06-2.79.78-3.81,2.15-1.02,1.37-1.49,3-1.42,4.87.07,1.88.68,3.45,1.81,4.73,1.13,1.29,2.46,1.9,3.98,1.84,1.45-.06,2.7-.78,3.72-2.15,1.02-1.36,1.49-2.98,1.42-4.86-.07-1.88-.68-3.46-1.81-4.75-1.13-1.29-2.43-1.9-3.88-1.84h-.01Z"/>
    <path class="cls-8" d="M185.03,40.11c-.82,1.19-1.19,2.62-1.13,4.26.06,1.64.55,3.02,1.47,4.16.91,1.12,1.95,1.66,3.12,1.62.26-.01.51-.05.76-.11.37-.31.71-.69,1.04-1.12,1.02-1.36,1.49-2.98,1.42-4.85-.07-1.88-.68-3.46-1.81-4.75-.35-.41-.73-.74-1.13-1-.25-.04-.51-.06-.77-.05-1.17.05-2.16.66-2.98,1.85Z"/>
    <path class="cls-4" d="M213.66,13.17c-2.76-1.38-5.01-3.62-6.4-6.37-1.39,2.75-3.64,4.99-6.4,6.37,2.76,1.38,5.01,3.62,6.4,6.37,1.39-2.75,3.64-4.99,6.4-6.37Z"/>
    <path class="cls-2" d="M221.14.25h0s0,0,0,0c.15-.02.3.01.45.1h0s3.54,2.23,3.54,2.23l.09.05.1-.02,4.08-.9h0c.16-.04.31-.02.46.06h0s0,0,0,0c.14.07.24.17.31.33.07.15.08.3.04.46l-1.05,4.03-.02.1.05.09,2.12,3.59c.08.14.11.29.09.45-.03.16-.1.3-.21.41-.13.11-.27.17-.43.18h0l-4.17.25h-.1s-.07.08-.07.08l-2.78,3.12h0c-.11.12-.24.2-.4.22-.17.02-.32,0-.45-.09h0s0,0,0,0c-.15-.08-.24-.19-.29-.33h0s-1.54-3.88-1.54-3.88l-.04-.09-.09-.04-3.83-1.66h0s0,0,0,0c-.16-.07-.27-.17-.34-.31-.08-.14-.1-.29-.06-.44h0s0-.01,0-.01c.03-.16.1-.29.23-.39h0s0,0,0,0l3.23-2.65.08-.06v-.1s.41-4.14.41-4.14h0s0,0,0,0c.01-.16.08-.29.19-.41h0s0,0,0,0c.11-.12.25-.18.41-.2Z"/>
    <path class="cls-12" d="M64.37,166.03v5.3h36.39v14.04H10.42v-14.04h36.39v-5.3M15.23,189.94h80.3v29.84h-17.88v-15.91H15.22v-13.93h.01Z"/>
    <path class="cls-6" d="M64.37,166.03v5.3h36.39v14.04H10.42v-14.04h36.39v-5.3M15.23,189.94h80.3v29.84h-17.88v-15.91H15.22v-13.93h.01Z"/>
    <path class="cls-9" d="M93.31,166.4c-1.53,0-2.96-.4-4.05-1.14-.96-.65-2.26-1.02-3.64-1.02s-2.68.36-3.64,1.02c-1.09.74-2.53,1.14-4.05,1.14s-2.96-.4-4.05-1.14c-.96-.65-2.26-1.02-3.64-1.02s-2.68.36-3.64,1.02c-1.09.74-2.53,1.14-4.05,1.14s-2.97-.4-4.05-1.14c-.96-.65-2.26-1.02-3.64-1.02s-2.68.36-3.64,1.02c-1.09.74-2.53,1.14-4.05,1.14s-2.97-.4-4.05-1.14c-.96-.65-2.26-1.02-3.64-1.02s-2.68.36-3.64,1.02c-1.09.74-2.53,1.14-4.05,1.14s-2.97-.4-4.05-1.14c-.96-.65-2.26-1.02-3.64-1.02s-2.68.36-3.64,1.02c-1.09.74-2.53,1.14-4.05,1.14s-2.97-.4-4.05-1.14c-1.13-.77-1.76-1.8-1.76-2.91s.63-2.14,1.76-2.91c.92-.62,1.43-1.44,1.43-2.31s-.51-1.68-1.43-2.31c-1.13-.77-1.76-1.8-1.76-2.91s.63-2.14,1.76-2.91c.92-.62,1.43-1.44,1.43-2.31s-.51-1.68-1.43-2.31c-1.13-.77-1.76-1.8-1.76-2.91s.63-2.14,1.76-2.91c.92-.62,1.43-1.45,1.43-2.31s-.51-1.68-1.43-2.31c-1.13-.77-1.76-1.8-1.76-2.91s.63-2.14,1.76-2.91c1.09-.74,2.53-1.14,4.05-1.14s2.97.4,4.05,1.14c.96.66,2.26,1.02,3.64,1.02s2.68-.36,3.64-1.02c1.09-.74,2.53-1.14,4.05-1.14s2.97.4,4.05,1.14c.96.66,2.26,1.02,3.64,1.02s2.68-.36,3.64-1.02c1.09-.74,2.53-1.14,4.05-1.14s2.97.4,4.05,1.14c.96.66,2.26,1.02,3.64,1.02s2.68-.36,3.64-1.02c1.09-.74,2.53-1.14,4.05-1.14s2.96.4,4.05,1.14c.96.66,2.26,1.02,3.64,1.02s2.68-.36,3.64-1.02c1.09-.74,2.53-1.14,4.05-1.14s2.96.4,4.05,1.14c.96.66,2.26,1.02,3.64,1.02s2.68-.36,3.64-1.02c1.09-.74,2.53-1.14,4.05-1.14s2.96.4,4.05,1.14c1.13.77,1.76,1.8,1.76,2.91s-.63,2.14-1.76,2.91c-.92.62-1.43,1.44-1.43,2.31s.51,1.68,1.43,2.31c1.13.77,1.76,1.8,1.76,2.91s-.63,2.14-1.76,2.91c-.92.62-1.43,1.44-1.43,2.31s.51,1.68,1.43,2.31c1.13.77,1.76,1.8,1.76,2.91s-.63,2.14-1.76,2.91c-.92.62-1.43,1.45-1.43,2.31s.51,1.68,1.43,2.31c1.13.77,1.76,1.8,1.76,2.91s-.63,2.14-1.76,2.91c-1.09.74-2.53,1.14-4.05,1.14Z"/>
    <path class="cls-8" d="M47.18,127.39c1.39,0,2.78.36,3.85,1.08,1.07.72,2.46,1.08,3.85,1.08s2.78-.36,3.85-1.08c1.07-.72,2.46-1.08,3.85-1.08s2.78.36,3.85,1.08c1.07.72,2.46,1.08,3.85,1.08s2.78-.36,3.85-1.08c1.07-.72,2.46-1.08,3.85-1.08s2.78.36,3.85,1.08c1.07.72,2.46,1.08,3.85,1.08s2.78-.36,3.85-1.08c1.07-.72,2.46-1.08,3.85-1.08s2.78.36,3.85,1.08c2.12,1.44,2.12,3.77,0,5.22-2.12,1.44-2.12,3.77,0,5.22,2.12,1.45,2.12,3.77,0,5.22-2.12,1.44-2.12,3.77,0,5.22,2.12,1.44,2.12,3.77,0,5.22-2.12,1.44-2.12,3.77,0,5.22,2.12,1.45,2.12,3.77,0,5.22-1.07.72-2.46,1.08-3.85,1.08s-2.78-.36-3.85-1.08c-1.07-.72-2.46-1.08-3.85-1.08s-2.78.36-3.85,1.08c-1.07.72-2.46,1.08-3.85,1.08s-2.78-.36-3.85-1.08c-1.07-.72-2.46-1.08-3.85-1.08s-2.78.36-3.85,1.08c-1.07.72-2.46,1.08-3.85,1.08s-2.78-.36-3.85-1.08c-1.07-.72-2.46-1.08-3.85-1.08s-2.78.36-3.85,1.08c-1.07.72-2.46,1.08-3.85,1.08s-2.78-.36-3.85-1.08c-1.07-.72-2.46-1.08-3.85-1.08s-2.78.36-3.85,1.08c-1.07.72-2.46,1.08-3.85,1.08s-2.78-.36-3.85-1.08c-1.07-.72-2.46-1.08-3.85-1.08s-2.78.36-3.85,1.08c-1.07.72-2.46,1.08-3.85,1.08s-2.78-.36-3.85-1.08c-2.12-1.44-2.12-3.77,0-5.22,2.12-1.44,2.12-3.77,0-5.22s-2.12-3.77,0-5.22c2.12-1.45,2.12-3.77,0-5.22-2.12-1.45-2.12-3.77,0-5.22,2.12-1.44,2.12-3.77,0-5.22s-2.12-3.77,0-5.22c1.07-.72,2.46-1.08,3.85-1.08s2.78.36,3.85,1.08c1.07.72,2.46,1.08,3.85,1.08s2.78-.36,3.85-1.08c1.07-.72,2.46-1.08,3.85-1.08s2.78.36,3.85,1.08c1.07.72,2.46,1.08,3.85,1.08s2.78-.36,3.85-1.08c1.07-.72,2.46-1.08,3.85-1.08ZM47.18,126.66c-1.6,0-3.11.43-4.25,1.2-.91.61-2.12.96-3.43.96s-2.53-.34-3.43-.96c-1.15-.78-2.65-1.2-4.25-1.2s-3.11.43-4.25,1.2c-.91.61-2.12.96-3.43.96s-2.53-.34-3.43-.96c-1.15-.78-2.65-1.2-4.25-1.2s-3.11.43-4.25,1.2c-1.23.83-1.91,1.97-1.91,3.21s.68,2.37,1.91,3.21c.83.56,1.27,1.27,1.27,2.01s-.45,1.44-1.27,2.01c-1.23.83-1.91,1.97-1.91,3.21s.68,2.37,1.91,3.21c.83.56,1.27,1.27,1.27,2.01s-.45,1.44-1.27,2c-1.23.83-1.91,1.97-1.91,3.21s.68,2.37,1.91,3.21c.83.56,1.27,1.27,1.27,2s-.45,1.45-1.27,2.01c-1.23.83-1.91,1.97-1.91,3.21s.68,2.37,1.91,3.21c1.15.78,2.65,1.21,4.25,1.21s3.11-.43,4.25-1.21c.91-.61,2.12-.96,3.43-.96s2.53.34,3.43.96c1.15.78,2.65,1.21,4.25,1.21s3.11-.43,4.25-1.21c.91-.61,2.12-.96,3.43-.96s2.53.34,3.43.96c1.15.78,2.65,1.21,4.25,1.21s3.11-.43,4.25-1.21c.91-.61,2.12-.96,3.43-.96s2.53.34,3.43.96c1.15.78,2.65,1.21,4.25,1.21s3.11-.43,4.25-1.21c.91-.61,2.12-.96,3.43-.96s2.53.34,3.43.96c1.15.78,2.65,1.21,4.25,1.21s3.11-.43,4.25-1.21c.91-.61,2.12-.96,3.43-.96s2.53.34,3.43.96c1.15.78,2.65,1.21,4.25,1.21s3.11-.43,4.25-1.21c1.23-.83,1.91-1.97,1.91-3.21s-.68-2.37-1.91-3.21c-.83-.56-1.27-1.27-1.27-2.01s.45-1.44,1.27-2c1.23-.83,1.91-1.98,1.91-3.21s-.68-2.37-1.91-3.21c-.83-.56-1.27-1.27-1.27-2s.45-1.45,1.27-2.01c1.23-.83,1.91-1.97,1.91-3.21s-.68-2.37-1.91-3.21c-.83-.56-1.27-1.27-1.27-2.01s.45-1.44,1.27-2.01c1.23-.83,1.91-1.98,1.91-3.21s-.68-2.37-1.91-3.21c-1.15-.78-2.65-1.2-4.25-1.2s-3.11.43-4.25,1.2c-.91.61-2.12.96-3.43.96s-2.53-.34-3.43-.96c-1.15-.78-2.65-1.2-4.25-1.2s-3.11.43-4.25,1.2c-.91.61-2.12.96-3.43.96s-2.53-.34-3.43-.96c-1.15-.78-2.65-1.2-4.25-1.2s-3.11.43-4.25,1.2c-.91.61-2.12.96-3.43.96s-2.53-.34-3.43-.96c-1.15-.78-2.65-1.2-4.25-1.2Z"/>
    <g class="cls-13">
      <g>
        <path class="cls-5" d="M62.07,137.73c.85,1.64,1.08,3.4.7,5.27,1.76-.75,3.53-.88,5.32-.4,3.25.76,5.61,3.04,7.08,6.88,1.47,3.83,1.24,7.11-.68,9.83-1,1.55-2.4,2.62-4.21,3.23,1.53,1.13,2.52,2.6,2.98,4.38.98,3.17.17,6.34-2.42,9.53-2.61,3.19-5.58,4.63-8.91,4.34h.01c-1.86-.09-3.5-.76-4.94-2.01-.23,1.88-1,3.47-2.33,4.77h.01c-2.28,2.42-5.45,3.31-9.53,2.67h-.01c-4.06-.67-6.8-2.49-8.2-5.5-.84-1.64-1.08-3.4-.71-5.25-1.75.74-3.52.86-5.31.38-3.25-.75-5.61-3.03-7.08-6.86-1.48-3.84-1.26-7.13.66-9.84h-.01c1-1.56,2.41-2.64,4.22-3.24-1.53-1.14-2.53-2.61-2.99-4.38-.97-3.16-.15-6.33,2.48-9.52,2.59-3.19,5.55-4.65,8.86-4.35,1.86.08,3.5.75,4.94,2.01.23-1.89,1-3.48,2.33-4.77,2.28-2.42,5.47-3.3,9.55-2.64,4.06.65,6.79,2.48,8.2,5.49v-.03Z"/>
        <path class="cls-4" d="M41.18,153.47c-.34,1.09-.29,2.22.16,3.41.45,1.18,1.17,2.06,2.16,2.64,1,.58,1.97.69,2.94.32.92-.35,1.57-1.07,1.92-2.17.36-1.09.31-2.22-.15-3.4-.46-1.17-1.18-2.07-2.18-2.64-1-.57-1.96-.7-2.88-.34-.92.35-1.61,1.09-1.96,2.19h0Z"/>
        <path class="cls-8" d="M43.14,152.86c-.26.93-.2,1.92.2,2.96s1,1.81,1.83,2.33c.84.53,1.62.65,2.36.37.17-.06.32-.13.46-.23.17-.28.3-.59.42-.94.36-1.09.31-2.22-.15-3.4-.45-1.18-1.18-2.06-2.17-2.64-.31-.18-.63-.31-.94-.41-.17.03-.33.07-.5.14-.73.28-1.23.89-1.52,1.83v-.02Z"/>
        <path class="cls-4" d="M49.89,148.72c-.96.36-1.61,1.09-1.96,2.19-.36,1.09-.3,2.23.15,3.42.45,1.18,1.18,2.06,2.17,2.63,1,.58,1.97.69,2.94.32.92-.34,1.56-1.07,1.91-2.16.36-1.09.31-2.22-.15-3.4-.45-1.19-1.18-2.07-2.18-2.64-1-.58-1.95-.7-2.87-.35h0Z"/>
        <path class="cls-8" d="M49.89,150.28c-.26.93-.2,1.92.2,2.96s1,1.81,1.83,2.34c.83.52,1.61.64,2.34.36.17-.06.32-.13.46-.23.17-.28.3-.59.42-.93.36-1.08.31-2.22-.15-3.4-.45-1.18-1.18-2.06-2.17-2.64-.31-.18-.63-.31-.93-.39-.17.03-.33.07-.5.13-.73.28-1.23.88-1.5,1.81h.01Z"/>
        <path class="cls-5" d="M46,163.24c.51,1.03,1.31,1.76,2.42,2.21,1.23.53,2.45.53,3.7.02,1.24-.51,2.12-1.35,2.65-2.59.46-1.09.52-2.16.19-3.26l-8.98,3.61h.01Z"/>
      </g>
    </g>
    <path class="cls-4" d="M177.21,189.41l1.6-5.15,6.14,5.38,1.15-4.61,6.8,4.38-.29-4.35,6.77,4.35-37.72-53.85-18.64,3.9,34.19,49.95Z"/>
    <path class="cls-3" d="M128.73,189.41l-1.59-5.15-6.14,5.38-1.16-4.61-6.79,4.38.29-4.35-6.78,4.35,40.75-59.46.64,4.02,6.34-4.02.6,4.31,5.97-4.31.1,4.45,8.53-4.45-40.75,59.46Z"/>
    <path class="cls-4" d="M161.96,199.2h36.18v16.43h-90.34v-16.43h36.18v-19.65h17.98v19.65Z"/>
    <path class="cls-4" d="M291.69,218.75h-17.67v-88.79h17.67v88.79Z"/>
    <path class="cls-10" d="M261.89,181.49c-3.25,4.65-6.55-1.62-12.25-1.62s-5.69,2.06-11.4,2.06-6.83-4.58-11.88-1.94c-2.65,1.38,1.51,3.9,1.51,6.87s-2.07,2.98-2.07,5.96-.45,3.18,1.75,5.21c2.36,2.18,2.52,1.79,5.74,1.79s3.23-2.06,6.45-2.06,3.23,2.06,6.45,2.06c2.59,0,5.14-2.22,7.74-2.52,2.6-.3,5.7,1.26,8.13.68,2.86-.68,6.13-2.95,8.17-3.89,1.13,2.38-1.98,3.07-1.98,5.71s2.07,2.64,2.07,5.27-1.2,2.44-2.03,4.95c-2.06,1.03-3.5,3.21-6.48,3.89-2.5.56-5.56-1.04-8.36-.75-2.8.29-5.32,2.47-8.01,2.47-6.03,0-6.03-2.06-12.05-2.06s-6.03,2.06-12.06,2.06-7.67,3.2-11.22-1.64c-4.87-6.63-1.87-7.61-1.87-15.82s2.07-8.21,2.07-16.43-6.58-10.26-1.89-17.01c3.23-4.66,6.55,1.62,12.25,1.62s5.69-2.06,11.4-2.06,6.8,4.54,11.87,1.94c2.6-1.33-1.51-3.82-1.51-6.73s2.07-2.91,2.07-5.82,1.1-3.59-1.51-4.9c-5.1-2.6-5.26-1.95-10.99-1.95s-5.74,2.06-11.47,2.06-5.83.43-11.04-1.96c-2.4-1.1-1.47-1.69-1.47-4.33s2.07-2.64,2.07-5.27-3.88-5.49-1.34-6.26c8.28-2.51,8.96,2.01,17.62,2.01s8.66-2.06,17.32-2.06,10.31-4.14,16.62,1.78c5.95,5.59,1.74,7.4,1.74,15.53s-3.72,8.52-2.05,16.5c1.81,8.67,6.54,9.99,1.87,16.67h.02Z"/>
    <path class="cls-6" d="M261.89,181.49c-3.25,4.65-6.55-1.62-12.25-1.62s-5.69,2.06-11.4,2.06-6.83-4.58-11.88-1.94c-2.65,1.38,1.51,3.9,1.51,6.87s-2.07,2.98-2.07,5.96-.45,3.18,1.75,5.21c2.36,2.18,2.52,1.79,5.74,1.79s3.23-2.06,6.45-2.06,3.23,2.06,6.45,2.06c2.59,0,5.14-2.22,7.74-2.52,2.6-.3,5.7,1.26,8.13.68,2.86-.68,6.13-2.95,8.17-3.89,1.13,2.38-1.98,3.07-1.98,5.71s2.07,2.64,2.07,5.27-1.2,2.44-2.03,4.95c-2.06,1.03-3.5,3.21-6.48,3.89-2.5.56-5.56-1.04-8.36-.75-2.8.29-5.32,2.47-8.01,2.47-6.03,0-6.03-2.06-12.05-2.06s-6.03,2.06-12.06,2.06-7.67,3.2-11.22-1.64c-4.87-6.63-1.87-7.61-1.87-15.82s2.07-8.21,2.07-16.43-6.58-10.26-1.89-17.01c3.23-4.66,6.55,1.62,12.25,1.62s5.69-2.06,11.4-2.06,6.8,4.54,11.87,1.94c2.6-1.33-1.51-3.82-1.51-6.73s2.07-2.91,2.07-5.82,1.1-3.59-1.51-4.9c-5.1-2.6-5.26-1.95-10.99-1.95s-5.74,2.06-11.47,2.06-5.83.43-11.04-1.96c-2.4-1.1-1.47-1.69-1.47-4.33s2.07-2.64,2.07-5.27-3.88-5.49-1.34-6.26c8.28-2.51,8.96,2.01,17.62,2.01s8.66-2.06,17.32-2.06,10.31-4.14,16.62,1.78c5.95,5.59,1.74,7.4,1.74,15.53s-3.72,8.52-2.05,16.5c1.81,8.67,6.54,9.99,1.87,16.67h.02Z"/>
    <path class="cls-4" d="M219.83,143.02c-1.33,1.07-2.19,2.53-2.61,4.35-.42,1.83-.24,3.51.51,5.03.76,1.53,1.88,2.46,3.36,2.8,1.43.32,2.82-.05,4.17-1.12,1.34-1.05,2.21-2.49,2.62-4.33.41-1.84.24-3.52-.52-5.05-.76-1.53-1.86-2.45-3.29-2.78-1.43-.32-2.9.04-4.24,1.11h0Z"/>
    <path class="cls-8" d="M222.46,144.06c-1.1.95-1.83,2.22-2.18,3.82-.35,1.6-.24,3.07.35,4.38.61,1.34,1.47,2.13,2.61,2.38.26.05.51.08.76.09.44-.21.87-.48,1.29-.82,1.34-1.05,2.22-2.49,2.62-4.33.41-1.84.24-3.51-.52-5.05-.24-.48-.51-.9-.83-1.27-.23-.1-.48-.19-.73-.24-1.14-.25-2.27.09-3.38,1.04h-.01Z"/>
    <path class="cls-4" d="M234.54,144.22c-1.48-.33-2.9.04-4.24,1.11-1.34,1.07-2.21,2.51-2.63,4.35-.41,1.84-.23,3.51.52,5.03.76,1.53,1.88,2.46,3.36,2.8,1.42.31,2.8-.06,4.15-1.13,1.34-1.05,2.21-2.49,2.62-4.33.41-1.84.24-3.52-.52-5.05-.76-1.53-1.85-2.45-3.27-2.77h.01Z"/>
    <path class="cls-8" d="M232.93,146.35c-1.1.95-1.83,2.22-2.18,3.82-.36,1.6-.24,3.07.35,4.39.6,1.32,1.45,2.11,2.6,2.36.26.05.51.08.76.09.44-.21.87-.48,1.3-.82,1.34-1.05,2.21-2.49,2.62-4.33.41-1.84.24-3.51-.52-5.05-.24-.48-.52-.89-.83-1.25-.23-.1-.48-.19-.73-.24-1.14-.25-2.26.08-3.35,1.02h-.01Z"/>
    <path class="cls-4" d="M20.32,126.02c-4.3-2.09-7.78-5.56-9.88-9.83-2.1,4.27-5.59,7.74-9.88,9.83,4.3,2.09,7.78,5.55,9.88,9.83,2.1-4.27,5.59-7.74,9.88-9.83Z"/>
    <path class="cls-2" d="M289.06,207.92h0c.15-.02.3.01.45.1h0l3.53,2.23.09.05.1-.02,4.08-.9h0c.16-.04.31-.02.46.06h0c.14.07.24.18.31.33.07.15.08.3.04.46l-1.05,4.03-.03.1.05.09,2.12,3.59c.08.14.11.29.09.45-.02.16-.09.3-.21.41-.13.11-.27.17-.43.18h0l-4.17.25h-.1s-.07.08-.07.08l-2.78,3.12h0c-.11.12-.24.2-.4.22-.17.02-.32,0-.45-.09h0s0,0,0,0c-.15-.08-.24-.19-.29-.33h0,0s-1.54-3.88-1.54-3.88l-.04-.09-.09-.04-3.83-1.66h0c-.16-.07-.27-.17-.34-.32-.08-.14-.1-.29-.06-.44h0c.03-.18.1-.3.23-.4h0s3.23-2.65,3.23-2.65l.08-.06v-.1s.41-4.14.41-4.14h0c.01-.16.08-.29.19-.41h0c.11-.12.25-.19.41-.2Z"/>
  </g>
</svg>