<?xml version="1.0" encoding="UTF-8"?>
<svg id="_레이어_2" data-name="레이어 2" xmlns="http://www.w3.org/2000/svg" xmlns:xlink="http://www.w3.org/1999/xlink" viewBox="0 0 617.98 172.67">
  <defs>
    <style>
      .cls-1, .cls-2, .cls-3, .cls-4, .cls-5 {
        stroke-width: .61px;
      }

      .cls-1, .cls-2, .cls-6, .cls-4, .cls-5 {
        stroke: #000;
      }

      .cls-1, .cls-7 {
        fill: #fff;
      }

      .cls-8 {
        clip-path: url(#clippath);
      }

      .cls-9, .cls-3, .cls-4 {
        fill: none;
      }

      .cls-9, .cls-10, .cls-11, .cls-12, .cls-13, .cls-7 {
        stroke-width: 0px;
      }

      .cls-2 {
        fill: #ff90c8;
      }

      .cls-14 {
        mask: url(#mask);
      }

      .cls-3 {
        stroke: #231815;
      }

      .cls-6 {
        fill: #fbf471;
        stroke-width: .49px;
      }

      .cls-10 {
        fill: #000;
      }

      .cls-11 {
        fill: #ffeb17;
      }

      .cls-12, .cls-5 {
        fill: #00d7ff;
      }

      .cls-13 {
        fill: #004fff;
      }

      .cls-15 {
        mask: url(#mask-1);
      }
    </style>
    <clipPath id="clippath">
      <rect class="cls-9" x="18.26" y="23.12" width="599.72" height="125.34"/>
    </clipPath>
    <mask id="mask" x="15.8" y="14.04" width="118.65" height="81.78" maskUnits="userSpaceOnUse">
      <g id="mask0_15_254" data-name="mask0 15 254">
        <path class="cls-7" d="M25.76,80.36v-44.54h99.24v17.14H47.7v10.25h78.61v17.14H25.76Z"/>
      </g>
    </mask>
    <mask id="mask-1" x="266.95" y="32.6" width="109.63" height="74.06" maskUnits="userSpaceOnUse">
      <g id="mask1_15_254" data-name="mask1 15 254">
        <path class="cls-7" d="M374.59,40.47c2.65-1.8,2.65-4.71,0-6.51-2.65-1.8-6.96-1.8-9.6,0-2.65,1.8-6.96,1.8-9.61,0-2.65-1.8-6.95-1.8-9.61,0-2.65,1.8-6.95,1.8-9.6,0-2.65-1.8-6.96-1.8-9.61,0-2.65,1.8-6.96,1.8-9.61,0-2.65-1.8-6.95-1.8-9.6,0-2.65,1.8-6.96,1.8-9.6,0-2.65-1.8-6.96-1.8-9.61,0-2.65,1.8-6.96,1.8-9.6,0-2.65-1.8-6.96-1.8-9.6,0-2.65,1.8-2.65,4.71,0,6.51,2.65,1.8,2.65,4.71,0,6.51-2.65,1.8-2.65,4.71,0,6.51,2.65,1.8,2.65,4.71,0,6.51-2.65,1.8-2.65,4.71,0,6.51,2.65,1.8,2.65,4.71,0,6.51-2.65,1.8-2.65,4.71,0,6.51,2.65,1.8,6.95,1.8,9.6,0,2.65-1.8,6.96-1.8,9.6,0,2.65,1.8,6.96,1.8,9.61,0,2.65-1.8,6.95-1.8,9.6,0,2.65,1.8,6.96,1.8,9.6,0,2.65-1.8,6.96-1.8,9.61,0,2.65,1.8,6.96,1.8,9.61,0,2.65-1.8,6.95-1.8,9.6,0,2.65,1.8,6.96,1.8,9.61,0,2.65-1.8,6.96-1.8,9.61,0,2.65,1.8,6.96,1.8,9.6,0,2.65-1.8,2.65-4.71,0-6.51-2.65-1.8-2.65-4.71,0-6.51,2.65-1.8,2.65-4.71,0-6.51-2.65-1.8-2.65-4.71,0-6.51,2.65-1.8,2.65-4.71,0-6.51-2.65-1.8-2.65-4.71,0-6.51Z"/>
      </g>
    </mask>
  </defs>
  <g id="_레이어_1-2" data-name="레이어 1">
    <g>
      <g class="cls-8">
        <g>
          <path class="cls-1" d="M24.98,110.36h100.29v37.66h-22.33v-20.26H24.98v-17.4Z"/>
          <path class="cls-1" d="M86.35,80.36v6.62h45.44v17.53H18.98v-17.53h45.44v-6.62h21.94Z"/>
          <g class="cls-14">
            <g>
              <path class="cls-13" d="M18.22,14.44c4.61-.91,5.21,5.18,9.9,5.18s4.7-5.23,9.4-5.23,4.7,5.23,9.4,5.23,4.7-5.23,9.4-5.23,4.7,5.23,9.4,5.23,4.7-5.23,9.4-5.23,4.7,5.23,9.4,5.23,4.7-5.23,9.4-5.23,4.7,5.23,9.4,5.23,4.7-5.23,9.4-5.23,4.7,5.23,9.41,5.23,5.3-6.09,9.92-5.18c.91.18-3.13,3.49-3.13,4.41s5.26.92,5.26,1.86-5.26.92-5.26,1.84,5.26.92,5.26,1.84-5.26.92-5.26,1.86,5.26.92,5.26,1.86-5.26.92-5.26,1.86,5.26.92,5.26,1.86-5.26.92-5.26,1.86,5.26.93,5.26,1.86-5.26.93-5.26,1.86,4.06,4.24,3.15,4.43c-4.61.91-5.21-5.18-9.9-5.18s-4.7,5.23-9.4,5.23-4.7-5.23-9.4-5.23-4.7,5.23-9.4,5.23-4.7-5.23-9.4-5.23-4.7,5.23-9.4,5.23-4.7-5.23-9.4-5.23-4.7,5.23-9.4,5.23-4.7-5.23-9.4-5.23-4.7,5.23-9.4,5.23-4.7-5.23-9.41-5.23-5.3,6.09-9.92,5.18c-.91-.18,3.13-3.49,3.13-4.41s-5.26-.92-5.26-1.86,5.26-.92,5.26-1.84-5.26-.92-5.26-1.84,5.26-.92,5.26-1.86-5.26-.92-5.26-1.86,5.26-.92,5.26-1.86-5.26-.92-5.26-1.86,5.26-.92,5.26-1.86-5.26-.93-5.26-1.86,5.4-1.54,5.18-2.45c-.54-2.26-3.99-3.65-3.07-3.83Z"/>
              <path class="cls-4" d="M18.22,14.44c4.61-.91,5.21,5.18,9.9,5.18s4.7-5.23,9.4-5.23,4.7,5.23,9.4,5.23,4.7-5.23,9.4-5.23,4.7,5.23,9.4,5.23,4.7-5.23,9.4-5.23,4.7,5.23,9.4,5.23,4.7-5.23,9.4-5.23,4.7,5.23,9.4,5.23,4.7-5.23,9.4-5.23,4.7,5.23,9.41,5.23,5.3-6.09,9.92-5.18c.91.18-3.13,3.49-3.13,4.41s5.26.92,5.26,1.86-5.26.92-5.26,1.84,5.26.92,5.26,1.84-5.26.92-5.26,1.86,5.26.92,5.26,1.86-5.26.92-5.26,1.86,5.26.92,5.26,1.86-5.26.92-5.26,1.86,5.26.93,5.26,1.86-5.26.93-5.26,1.86,4.06,4.24,3.15,4.43c-4.61.91-5.21-5.18-9.9-5.18s-4.7,5.23-9.4,5.23-4.7-5.23-9.4-5.23-4.7,5.23-9.4,5.23-4.7-5.23-9.4-5.23-4.7,5.23-9.4,5.23-4.7-5.23-9.4-5.23-4.7,5.23-9.4,5.23-4.7-5.23-9.4-5.23-4.7,5.23-9.4,5.23-4.7-5.23-9.41-5.23-5.3,6.09-9.92,5.18c-.91-.18,3.13-3.49,3.13-4.41s-5.26-.92-5.26-1.86,5.26-.92,5.26-1.84-5.26-.92-5.26-1.84,5.26-.92,5.26-1.86-5.26-.92-5.26-1.86,5.26-.92,5.26-1.86-5.26-.92-5.26-1.86,5.26-.92,5.26-1.86-5.26-.93-5.26-1.86,5.4-1.54,5.18-2.45c-.53-2.26-3.99-3.65-3.07-3.83Z"/>
              <path class="cls-12" d="M18.22,27.84c4.61-.91,5.21,5.18,9.9,5.18s4.7-5.23,9.4-5.23,4.7,5.23,9.4,5.23,4.7-5.23,9.4-5.23,4.7,5.23,9.4,5.23,4.7-5.23,9.4-5.23,4.7,5.23,9.4,5.23,4.7-5.23,9.4-5.23,4.7,5.23,9.4,5.23,4.7-5.23,9.4-5.23,4.7,5.23,9.41,5.23,5.3-6.09,9.92-5.18c.91.18-3.13,3.49-3.13,4.41s5.26.92,5.26,1.86-5.26.92-5.26,1.84,5.26.92,5.26,1.84-5.26.92-5.26,1.86,5.26.92,5.26,1.86-5.26.92-5.26,1.86,5.26.92,5.26,1.86-5.26.92-5.26,1.86,5.26.93,5.26,1.86-5.26.93-5.26,1.86,4.06,4.24,3.15,4.42c-4.61.91-5.21-5.18-9.9-5.18s-4.7,5.23-9.4,5.23-4.7-5.23-9.4-5.23-4.7,5.23-9.4,5.23-4.7-5.23-9.4-5.23-4.7,5.23-9.4,5.23-4.7-5.23-9.4-5.23-4.7,5.23-9.4,5.23-4.7-5.23-9.4-5.23-4.7,5.23-9.4,5.23-4.7-5.23-9.41-5.23-5.3,6.09-9.92,5.18c-.91-.18,3.13-3.49,3.13-4.41s-5.26-.92-5.26-1.86,5.26-.92,5.26-1.84-5.26-.92-5.26-1.84,5.26-.92,5.26-1.86-5.26-.92-5.26-1.86,5.26-.92,5.26-1.86-5.26-.92-5.26-1.86,5.26-.92,5.26-1.86-5.26-.93-5.26-1.86,5.4-1.54,5.18-2.45c-.54-2.26-3.99-3.65-3.07-3.83Z"/>
              <path class="cls-4" d="M18.22,27.84c4.61-.91,5.21,5.18,9.9,5.18s4.7-5.23,9.4-5.23,4.7,5.23,9.4,5.23,4.7-5.23,9.4-5.23,4.7,5.23,9.4,5.23,4.7-5.23,9.4-5.23,4.7,5.23,9.4,5.23,4.7-5.23,9.4-5.23,4.7,5.23,9.4,5.23,4.7-5.23,9.4-5.23,4.7,5.23,9.41,5.23,5.3-6.09,9.92-5.18c.91.18-3.13,3.49-3.13,4.41s5.26.92,5.26,1.86-5.26.92-5.26,1.84,5.26.92,5.26,1.84-5.26.92-5.26,1.86,5.26.92,5.26,1.86-5.26.92-5.26,1.86,5.26.92,5.26,1.86-5.26.92-5.26,1.86,5.26.93,5.26,1.86-5.26.93-5.26,1.86,4.06,4.24,3.15,4.42c-4.61.91-5.21-5.18-9.9-5.18s-4.7,5.23-9.4,5.23-4.7-5.23-9.4-5.23-4.7,5.23-9.4,5.23-4.7-5.23-9.4-5.23-4.7,5.23-9.4,5.23-4.7-5.23-9.4-5.23-4.7,5.23-9.4,5.23-4.7-5.23-9.4-5.23-4.7,5.23-9.4,5.23-4.7-5.23-9.41-5.23-5.3,6.09-9.92,5.18c-.91-.18,3.13-3.49,3.13-4.41s-5.26-.92-5.26-1.86,5.26-.92,5.26-1.84-5.26-.92-5.26-1.84,5.26-.92,5.26-1.86-5.26-.92-5.26-1.86,5.26-.92,5.26-1.86-5.26-.92-5.26-1.86,5.26-.92,5.26-1.86-5.26-.93-5.26-1.86,5.4-1.54,5.18-2.45c-.53-2.26-3.99-3.65-3.07-3.83Z"/>
              <path class="cls-13" d="M18.22,41.25c4.61-.91,5.21,5.18,9.9,5.18s4.7-5.23,9.4-5.23,4.7,5.23,9.4,5.23,4.7-5.23,9.4-5.23,4.7,5.23,9.4,5.23,4.7-5.23,9.4-5.23,4.7,5.23,9.4,5.23,4.7-5.23,9.4-5.23,4.7,5.23,9.4,5.23,4.7-5.23,9.4-5.23,4.7,5.23,9.41,5.23,5.3-6.09,9.92-5.18c.91.18-3.13,3.49-3.13,4.41s5.26.92,5.26,1.86-5.26.92-5.26,1.84,5.26.92,5.26,1.84-5.26.92-5.26,1.86,5.26.92,5.26,1.86-5.26.92-5.26,1.86,5.26.92,5.26,1.86-5.26.92-5.26,1.86,5.26.93,5.26,1.86-5.26.93-5.26,1.86,4.06,4.24,3.15,4.42c-4.61.91-5.21-5.18-9.9-5.18s-4.7,5.23-9.4,5.23-4.7-5.23-9.4-5.23-4.7,5.23-9.4,5.23-4.7-5.23-9.4-5.23-4.7,5.23-9.4,5.23-4.7-5.23-9.4-5.23-4.7,5.23-9.4,5.23-4.7-5.23-9.4-5.23-4.7,5.23-9.4,5.23-4.7-5.23-9.41-5.23-5.3,6.09-9.92,5.18c-.91-.18,3.13-3.49,3.13-4.41s-5.26-.92-5.26-1.86,5.26-.92,5.26-1.84-5.26-.92-5.26-1.84,5.26-.92,5.26-1.86-5.26-.92-5.26-1.86,5.26-.92,5.26-1.86-5.26-.92-5.26-1.86,5.26-.92,5.26-1.86-5.26-.93-5.26-1.86,5.4-1.54,5.18-2.45c-.54-2.26-3.99-3.65-3.07-3.83Z"/>
              <path class="cls-4" d="M18.22,41.25c4.61-.91,5.21,5.18,9.9,5.18s4.7-5.23,9.4-5.23,4.7,5.23,9.4,5.23,4.7-5.23,9.4-5.23,4.7,5.23,9.4,5.23,4.7-5.23,9.4-5.23,4.7,5.23,9.4,5.23,4.7-5.23,9.4-5.23,4.7,5.23,9.4,5.23,4.7-5.23,9.4-5.23,4.7,5.23,9.41,5.23,5.3-6.09,9.92-5.18c.91.18-3.13,3.49-3.13,4.41s5.26.92,5.26,1.86-5.26.92-5.26,1.84,5.26.92,5.26,1.84-5.26.92-5.26,1.86,5.26.92,5.26,1.86-5.26.92-5.26,1.86,5.26.92,5.26,1.86-5.26.92-5.26,1.86,5.26.93,5.26,1.86-5.26.93-5.26,1.86,4.06,4.24,3.15,4.42c-4.61.91-5.21-5.18-9.9-5.18s-4.7,5.23-9.4,5.23-4.7-5.23-9.4-5.23-4.7,5.23-9.4,5.23-4.7-5.23-9.4-5.23-4.7,5.23-9.4,5.23-4.7-5.23-9.4-5.23-4.7,5.23-9.4,5.23-4.7-5.23-9.4-5.23-4.7,5.23-9.4,5.23-4.7-5.23-9.41-5.23-5.3,6.09-9.92,5.18c-.91-.18,3.13-3.49,3.13-4.41s-5.26-.92-5.26-1.86,5.26-.92,5.26-1.84-5.26-.92-5.26-1.84,5.26-.92,5.26-1.86-5.26-.92-5.26-1.86,5.26-.92,5.26-1.86-5.26-.92-5.26-1.86,5.26-.92,5.26-1.86-5.26-.93-5.26-1.86,5.4-1.54,5.18-2.45c-.53-2.26-3.99-3.65-3.07-3.83Z"/>
              <path class="cls-12" d="M18.22,54.65c4.61-.91,5.21,5.18,9.9,5.18s4.7-5.23,9.4-5.23,4.7,5.23,9.4,5.23,4.7-5.23,9.4-5.23,4.7,5.23,9.4,5.23,4.7-5.23,9.4-5.23,4.7,5.23,9.4,5.23,4.7-5.23,9.4-5.23,4.7,5.23,9.4,5.23,4.7-5.23,9.4-5.23,4.7,5.23,9.41,5.23,5.3-6.09,9.92-5.18c.91.18-3.13,3.49-3.13,4.41s5.26.92,5.26,1.86-5.26.92-5.26,1.84,5.26.92,5.26,1.84-5.26.92-5.26,1.86,5.26.92,5.26,1.86-5.26.92-5.26,1.86,5.26.92,5.26,1.86-5.26.92-5.26,1.86,5.26.93,5.26,1.86-5.26.93-5.26,1.86,4.06,4.24,3.15,4.43c-4.61.91-5.21-5.18-9.9-5.18s-4.7,5.23-9.4,5.23-4.7-5.23-9.4-5.23-4.7,5.23-9.4,5.23-4.7-5.23-9.4-5.23-4.7,5.23-9.4,5.23-4.7-5.23-9.4-5.23-4.7,5.23-9.4,5.23-4.7-5.23-9.4-5.23-4.7,5.23-9.4,5.23-4.7-5.23-9.41-5.23-5.3,6.09-9.92,5.18c-.91-.18,3.13-3.49,3.13-4.41s-5.26-.92-5.26-1.86,5.26-.92,5.26-1.84-5.26-.92-5.26-1.84,5.26-.92,5.26-1.86-5.26-.92-5.26-1.86,5.26-.92,5.26-1.86-5.26-.92-5.26-1.86,5.26-.92,5.26-1.86-5.26-.93-5.26-1.86,5.4-1.54,5.18-2.45c-.54-2.26-3.99-3.65-3.07-3.83Z"/>
              <path class="cls-4" d="M18.22,54.65c4.61-.91,5.21,5.18,9.9,5.18s4.7-5.23,9.4-5.23,4.7,5.23,9.4,5.23,4.7-5.23,9.4-5.23,4.7,5.23,9.4,5.23,4.7-5.23,9.4-5.23,4.7,5.23,9.4,5.23,4.7-5.23,9.4-5.23,4.7,5.23,9.4,5.23,4.7-5.23,9.4-5.23,4.7,5.23,9.41,5.23,5.3-6.09,9.92-5.18c.91.18-3.13,3.49-3.13,4.41s5.26.92,5.26,1.86-5.26.92-5.26,1.84,5.26.92,5.26,1.84-5.26.92-5.26,1.86,5.26.92,5.26,1.86-5.26.92-5.26,1.86,5.26.92,5.26,1.86-5.26.92-5.26,1.86,5.26.93,5.26,1.86-5.26.93-5.26,1.86,4.06,4.24,3.15,4.43c-4.61.91-5.21-5.18-9.9-5.18s-4.7,5.23-9.4,5.23-4.7-5.23-9.4-5.23-4.7,5.23-9.4,5.23-4.7-5.23-9.4-5.23-4.7,5.23-9.4,5.23-4.7-5.23-9.4-5.23-4.7,5.23-9.4,5.23-4.7-5.23-9.4-5.23-4.7,5.23-9.4,5.23-4.7-5.23-9.41-5.23-5.3,6.09-9.92,5.18c-.91-.18,3.13-3.49,3.13-4.41s-5.26-.92-5.26-1.86,5.26-.92,5.26-1.84-5.26-.92-5.26-1.84,5.26-.92,5.26-1.86-5.26-.92-5.26-1.86,5.26-.92,5.26-1.86-5.26-.92-5.26-1.86,5.26-.92,5.26-1.86-5.26-.93-5.26-1.86,5.4-1.54,5.18-2.45c-.53-2.26-3.99-3.65-3.07-3.83Z"/>
              <path class="cls-13" d="M18.22,68.06c4.61-.91,5.21,5.18,9.9,5.18s4.7-5.23,9.4-5.23,4.7,5.23,9.4,5.23,4.7-5.23,9.4-5.23,4.7,5.23,9.4,5.23,4.7-5.23,9.4-5.23,4.7,5.23,9.4,5.23,4.7-5.23,9.4-5.23,4.7,5.23,9.4,5.23,4.7-5.23,9.4-5.23,4.7,5.23,9.41,5.23,5.3-6.09,9.92-5.18c.91.18-3.13,3.49-3.13,4.41s5.26.92,5.26,1.86-5.26.92-5.26,1.84,5.26.92,5.26,1.84-5.26.92-5.26,1.86,5.26.92,5.26,1.86-5.26.92-5.26,1.86,5.26.92,5.26,1.86-5.26.92-5.26,1.86,5.26.93,5.26,1.86-5.26.93-5.26,1.86,4.06,4.24,3.15,4.43c-4.61.91-5.21-5.18-9.9-5.18s-4.7,5.23-9.4,5.23-4.7-5.23-9.4-5.23-4.7,5.23-9.4,5.23-4.7-5.23-9.4-5.23-4.7,5.23-9.4,5.23-4.7-5.23-9.4-5.23-4.7,5.23-9.4,5.23-4.7-5.23-9.4-5.23-4.7,5.23-9.4,5.23-4.7-5.23-9.41-5.23-5.3,6.09-9.92,5.18c-.91-.18,3.13-3.49,3.13-4.41s-5.26-.92-5.26-1.86,5.26-.92,5.26-1.84-5.26-.92-5.26-1.84,5.26-.92,5.26-1.86-5.26-.92-5.26-1.86,5.26-.92,5.26-1.86-5.26-.92-5.26-1.86,5.26-.92,5.26-1.86-5.26-.93-5.26-1.86,5.4-1.54,5.18-2.45c-.54-2.26-3.99-3.65-3.07-3.83Z"/>
              <path class="cls-4" d="M18.22,68.06c4.61-.91,5.21,5.18,9.9,5.18s4.7-5.23,9.4-5.23,4.7,5.23,9.4,5.23,4.7-5.23,9.4-5.23,4.7,5.23,9.4,5.23,4.7-5.23,9.4-5.23,4.7,5.23,9.4,5.23,4.7-5.23,9.4-5.23,4.7,5.23,9.4,5.23,4.7-5.23,9.4-5.23,4.7,5.23,9.41,5.23,5.3-6.09,9.92-5.18c.91.18-3.13,3.49-3.13,4.41s5.26.92,5.26,1.86-5.26.92-5.26,1.84,5.26.92,5.26,1.84-5.26.92-5.26,1.86,5.26.92,5.26,1.86-5.26.92-5.26,1.86,5.26.92,5.26,1.86-5.26.92-5.26,1.86,5.26.93,5.26,1.86-5.26.93-5.26,1.86,4.06,4.24,3.15,4.43c-4.61.91-5.21-5.18-9.9-5.18s-4.7,5.23-9.4,5.23-4.7-5.23-9.4-5.23-4.7,5.23-9.4,5.23-4.7-5.23-9.4-5.23-4.7,5.23-9.4,5.23-4.7-5.23-9.4-5.23-4.7,5.23-9.4,5.23-4.7-5.23-9.4-5.23-4.7,5.23-9.4,5.23-4.7-5.23-9.41-5.23-5.3,6.09-9.92,5.18c-.91-.18,3.13-3.49,3.13-4.41s-5.26-.92-5.26-1.86,5.26-.92,5.26-1.84-5.26-.92-5.26-1.84,5.26-.92,5.26-1.86-5.26-.92-5.26-1.86,5.26-.92,5.26-1.86-5.26-.92-5.26-1.86,5.26-.92,5.26-1.86-5.26-.93-5.26-1.86,5.4-1.54,5.18-2.45c-.53-2.26-3.99-3.65-3.07-3.83Z"/>
            </g>
          </g>
          <path class="cls-3" d="M25.76,80.36v-44.54h99.24v17.14H47.7v10.25h78.61v17.14H25.76Z"/>
          <path class="cls-1" d="M60.72,31.01c-.61,1.92-.57,4.01.12,6.25.69,2.24,1.83,3.98,3.41,5.23,1.61,1.26,3.18,1.63,4.76,1.17,1.51-.47,2.6-1.66,3.21-3.58.63-1.91.6-4-.09-6.24-.69-2.25-1.84-4-3.43-5.24-1.59-1.25-3.16-1.65-4.68-1.19-1.53.45-2.68,1.69-3.3,3.61h.01Z"/>
          <path class="cls-10" d="M63.76,30.67c-.47,1.66-.4,3.46.2,5.44.6,1.97,1.57,3.49,2.88,4.59,1.34,1.13,2.61,1.51,3.82,1.14.27-.08.52-.19.77-.34.29-.48.52-1.03.72-1.62.63-1.91.6-3.98-.09-6.23-.69-2.25-1.84-4-3.43-5.24-.51-.39-1-.7-1.5-.92-.27.01-.55.06-.82.14-1.2.36-2.05,1.38-2.53,3.05h-.01Z"/>
          <path class="cls-1" d="M75.09,24.04c-1.58.48-2.68,1.69-3.3,3.61-.63,1.93-.59,4.01.09,6.25.69,2.24,1.83,3.98,3.43,5.23,1.61,1.26,3.18,1.64,4.76,1.17,1.5-.45,2.57-1.65,3.2-3.58.63-1.91.6-4-.09-6.24-.69-2.24-1.84-4-3.43-5.24-1.61-1.26-3.16-1.65-4.66-1.19Z"/>
          <path class="cls-10" d="M74.84,27.28c-.47,1.66-.4,3.46.2,5.44.6,1.97,1.57,3.5,2.88,4.62,1.32,1.12,2.58,1.49,3.8,1.13.27-.08.52-.19.77-.34.29-.48.52-1.03.72-1.62.63-1.91.6-3.98-.09-6.23-.69-2.25-1.84-4-3.43-5.24-.51-.39-1-.69-1.5-.9-.27.01-.55.06-.82.14-1.2.36-2.05,1.38-2.52,3.01h0Z"/>
          <path class="cls-1" d="M258.44,97.63h-13.06v49.08h-22.07V35.82h22.07v40.51h13.06v21.29Z"/>
          <path class="cls-1" d="M198.26,140.73l1.4-7.83,5.4,8.16,1-6.99,5.98,6.66-.25-6.62,8.48,6.62-33.16-81.86-20.23,2.61,31.37,79.25Z"/>
          <path class="cls-5" d="M156.82,140.73l-1.4-7.83-5.4,8.16-1.02-6.99-5.98,6.66.26-6.62-8.5,6.62,35.82-90.37,3.09,6.1,5.57-6.1.52,6.55,5.25-6.55.09,6.75,7.5-6.75-35.82,90.37Z"/>
          <path class="cls-1" d="M212.66,38.42h-70.25v20.13h70.25v-20.13Z"/>
          <path class="cls-1" d="M166.38,52.58c-1.25,1.71-1.84,3.75-1.75,6.09.09,2.34.84,4.31,2.23,5.9,1.41,1.61,3.07,2.37,4.97,2.3,1.84-.08,3.39-.97,4.66-2.69,1.28-1.7,1.87-3.72,1.78-6.07-.09-2.35-.85-4.32-2.26-5.93-1.41-1.61-3.04-2.37-4.87-2.3-1.83.08-3.48.97-4.76,2.69h0Z"/>
          <path class="cls-10" d="M169.86,52.99c-1.02,1.49-1.49,3.27-1.41,5.32.08,2.05.69,3.78,1.84,5.16,1.16,1.43,2.47,2.1,3.93,2.04.33-.01.64-.06.95-.14.46-.39.89-.86,1.29-1.4,1.28-1.7,1.87-3.72,1.78-6.06-.09-2.35-.85-4.32-2.26-5.93-.44-.51-.91-.92-1.41-1.26-.31-.05-.64-.08-.97-.06-1.46.06-2.7.83-3.74,2.32h0Z"/>
          <path class="cls-1" d="M184.5,49.34c-1.91.08-3.49.97-4.76,2.69-1.28,1.71-1.87,3.75-1.77,6.09.09,2.35.85,4.31,2.26,5.9,1.41,1.61,3.07,2.37,4.97,2.3,1.81-.08,3.37-.97,4.65-2.69,1.28-1.7,1.87-3.72,1.77-6.07-.09-2.35-.85-4.32-2.26-5.93-1.41-1.61-3.03-2.37-4.84-2.3h-.01Z"/>
          <path class="cls-10" d="M183.25,52.42c-1.02,1.49-1.49,3.27-1.41,5.32.08,2.05.69,3.78,1.84,5.19,1.14,1.4,2.44,2.08,3.9,2.02.33-.01.64-.06.95-.14.46-.39.89-.86,1.29-1.4,1.28-1.7,1.87-3.72,1.77-6.06-.09-2.35-.85-4.32-2.26-5.93-.44-.51-.91-.92-1.41-1.25-.31-.05-.64-.08-.97-.06-1.46.06-2.7.83-3.72,2.31Z"/>
          <path class="cls-7" d="M333.65,80.88v6.62h45.44v17.53h-112.82v-17.53h45.44v-6.62M272.28,110.74h100.28v37.27h-22.33v-19.87h-77.96v-17.4h.01Z"/>
          <path class="cls-4" d="M333.65,80.88v6.62h45.44v17.53h-112.82v-17.53h45.44v-6.62M272.28,110.74h100.28v37.27h-22.33v-19.87h-77.96v-17.4h.01Z"/>
          <path class="cls-11" d="M369.79,81.33c-1.9,0-3.69-.51-5.06-1.43-1.2-.82-2.82-1.27-4.54-1.27s-3.34.45-4.54,1.27c-1.36.92-3.16,1.43-5.06,1.43s-3.69-.51-5.06-1.43c-1.2-.82-2.82-1.27-4.54-1.27s-3.34.45-4.54,1.27c-1.36.92-3.16,1.43-5.06,1.43s-3.71-.51-5.06-1.43c-1.2-.82-2.82-1.27-4.54-1.27s-3.34.45-4.54,1.27c-1.36.92-3.16,1.43-5.06,1.43s-3.71-.51-5.06-1.43c-1.2-.82-2.82-1.27-4.54-1.27s-3.34.45-4.54,1.27c-1.36.92-3.16,1.43-5.06,1.43s-3.71-.51-5.06-1.43c-1.2-.82-2.82-1.27-4.54-1.27s-3.34.45-4.54,1.27c-1.36.92-3.16,1.43-5.06,1.43s-3.71-.51-5.06-1.43c-1.41-.96-2.19-2.24-2.19-3.63s.78-2.67,2.19-3.63c1.15-.78,1.79-1.8,1.79-2.88s-.64-2.1-1.79-2.88c-1.41-.96-2.19-2.24-2.19-3.63s.78-2.67,2.19-3.63c1.15-.78,1.79-1.8,1.79-2.88s-.64-2.1-1.79-2.88c-1.41-.96-2.19-2.24-2.19-3.63s.78-2.67,2.19-3.63c1.15-.78,1.79-1.8,1.79-2.88s-.64-2.1-1.79-2.88c-1.41-.96-2.19-2.24-2.19-3.63s.78-2.67,2.19-3.63c1.36-.92,3.16-1.43,5.06-1.43s3.71.51,5.06,1.43c1.2.82,2.82,1.27,4.54,1.27s3.34-.45,4.54-1.27c1.36-.92,3.16-1.43,5.06-1.43s3.71.51,5.06,1.43c1.2.82,2.82,1.27,4.54,1.27s3.34-.45,4.54-1.27c1.36-.92,3.16-1.43,5.06-1.43s3.71.51,5.06,1.43c1.2.82,2.82,1.27,4.54,1.27s3.34-.45,4.54-1.27c1.36-.92,3.16-1.43,5.06-1.43s3.69.51,5.06,1.43c1.2.82,2.82,1.27,4.54,1.27s3.34-.45,4.54-1.27c1.36-.92,3.16-1.43,5.06-1.43s3.69.51,5.06,1.43c1.2.82,2.82,1.27,4.54,1.27s3.34-.45,4.54-1.27c1.36-.92,3.16-1.43,5.06-1.43s3.69.51,5.06,1.43c1.41.96,2.19,2.24,2.19,3.63s-.78,2.67-2.19,3.63c-1.15.78-1.79,1.8-1.79,2.88s.64,2.1,1.79,2.88c1.41.96,2.19,2.24,2.19,3.63s-.78,2.67-2.19,3.63c-1.15.78-1.79,1.8-1.79,2.88s.64,2.1,1.79,2.88c1.41.96,2.19,2.24,2.19,3.63s-.78,2.67-2.19,3.63c-1.15.78-1.79,1.8-1.79,2.88s.64,2.1,1.79,2.88c1.41.96,2.19,2.24,2.19,3.63s-.78,2.67-2.19,3.63c-1.36.92-3.16,1.43-5.06,1.43Z"/>
          <path class="cls-10" d="M312.18,32.62c1.74,0,3.47.45,4.8,1.35,1.33.9,3.07,1.35,4.8,1.35s3.47-.45,4.8-1.35c1.33-.9,3.07-1.35,4.8-1.35s3.47.45,4.8,1.35c1.33.9,3.07,1.35,4.8,1.35s3.47-.45,4.8-1.35c1.33-.9,3.07-1.35,4.8-1.35s3.47.45,4.8,1.35c1.33.9,3.07,1.35,4.8,1.35s3.47-.45,4.8-1.35c1.33-.9,3.07-1.35,4.8-1.35s3.47.45,4.8,1.35c2.65,1.8,2.65,4.71,0,6.51-2.65,1.8-2.65,4.71,0,6.51,2.65,1.8,2.65,4.71,0,6.51-2.65,1.8-2.65,4.71,0,6.51,2.65,1.8,2.65,4.71,0,6.51-2.65,1.8-2.65,4.71,0,6.51,2.65,1.8,2.65,4.71,0,6.51-1.33.9-3.07,1.35-4.8,1.35s-3.47-.45-4.8-1.35-3.07-1.35-4.8-1.35-3.47.45-4.8,1.35-3.07,1.35-4.8,1.35-3.47-.45-4.8-1.35-3.07-1.35-4.8-1.35-3.47.45-4.8,1.35c-1.33.9-3.07,1.35-4.8,1.35s-3.47-.45-4.8-1.35-3.07-1.35-4.8-1.35-3.47.45-4.8,1.35c-1.33.9-3.07,1.35-4.8,1.35s-3.47-.45-4.8-1.35c-1.33-.9-3.07-1.35-4.8-1.35s-3.47.45-4.8,1.35-3.07,1.35-4.8,1.35-3.47-.45-4.8-1.35-3.07-1.35-4.8-1.35-3.47.45-4.8,1.35c-1.33.9-3.07,1.35-4.8,1.35s-3.47-.45-4.8-1.35c-2.65-1.8-2.65-4.71,0-6.51,2.65-1.8,2.65-4.71,0-6.51-2.65-1.8-2.65-4.71,0-6.51,2.65-1.8,2.65-4.71,0-6.51-2.65-1.8-2.65-4.71,0-6.51,2.65-1.8,2.65-4.71,0-6.51-2.65-1.8-2.65-4.71,0-6.51,1.33-.9,3.07-1.35,4.8-1.35s3.47.45,4.8,1.35c1.33.9,3.07,1.35,4.8,1.35s3.47-.45,4.8-1.35c1.33-.9,3.07-1.35,4.8-1.35s3.47.45,4.8,1.35c1.33.9,3.07,1.35,4.8,1.35s3.47-.45,4.8-1.35c1.33-.9,3.07-1.35,4.8-1.35ZM312.18,31.71c-2,0-3.89.53-5.31,1.51-1.14.77-2.65,1.19-4.28,1.19s-3.16-.43-4.28-1.19c-1.44-.97-3.32-1.51-5.31-1.51s-3.89.53-5.31,1.51c-1.13.77-2.65,1.19-4.28,1.19s-3.16-.43-4.28-1.19c-1.44-.97-3.32-1.51-5.31-1.51s-3.89.53-5.31,1.51c-1.54,1.04-2.39,2.47-2.39,4.01s.85,2.96,2.39,4.01c1.03.7,1.59,1.58,1.59,2.5s-.56,1.8-1.59,2.5c-1.54,1.04-2.39,2.47-2.39,4.01s.85,2.96,2.39,4.01c1.03.7,1.59,1.58,1.59,2.5s-.56,1.8-1.59,2.5c-1.54,1.04-2.39,2.47-2.39,4.01s.85,2.96,2.39,4.01c1.03.7,1.59,1.58,1.59,2.5s-.56,1.8-1.59,2.5c-1.54,1.04-2.39,2.47-2.39,4.01s.85,2.96,2.39,4.01c1.43.97,3.32,1.51,5.31,1.51s3.89-.53,5.31-1.51c1.14-.77,2.65-1.19,4.28-1.19s3.16.43,4.28,1.19c1.44.97,3.32,1.51,5.31,1.51s3.89-.53,5.31-1.51c1.13-.77,2.65-1.19,4.28-1.19s3.16.43,4.28,1.19c1.43.97,3.31,1.51,5.31,1.51s3.89-.53,5.31-1.51c1.14-.77,2.65-1.19,4.28-1.19s3.16.43,4.28,1.19c1.44.97,3.32,1.51,5.31,1.51s3.89-.53,5.31-1.51c1.13-.77,2.65-1.19,4.28-1.19s3.16.43,4.28,1.19c1.44.97,3.32,1.51,5.31,1.51s3.89-.53,5.31-1.51c1.14-.77,2.65-1.19,4.28-1.19s3.16.43,4.28,1.19c1.43.97,3.32,1.51,5.31,1.51s3.89-.53,5.31-1.51c1.54-1.04,2.39-2.47,2.39-4.01s-.85-2.96-2.39-4.01c-1.03-.7-1.59-1.58-1.59-2.5s.56-1.8,1.59-2.5c1.54-1.04,2.39-2.47,2.39-4.01s-.85-2.96-2.39-4.01c-1.03-.7-1.59-1.58-1.59-2.5s.56-1.8,1.59-2.5c1.54-1.04,2.39-2.47,2.39-4.01s-.85-2.96-2.39-4.01c-1.03-.7-1.59-1.58-1.59-2.5s.56-1.8,1.59-2.5c1.54-1.04,2.39-2.47,2.39-4.01s-.85-2.96-2.39-4.01c-1.44-.97-3.32-1.51-5.31-1.51s-3.89.53-5.31,1.51c-1.14.77-2.65,1.19-4.28,1.19s-3.16-.43-4.28-1.19c-1.43-.97-3.32-1.51-5.31-1.51s-3.89.53-5.31,1.51c-1.14.77-2.65,1.19-4.28,1.19s-3.16-.43-4.28-1.19c-1.44-.97-3.32-1.51-5.31-1.51s-3.89.53-5.31,1.51c-1.14.77-2.65,1.19-4.28,1.19s-3.16-.43-4.28-1.19c-1.43-.97-3.31-1.51-5.31-1.51Z"/>
          <g class="cls-15">
            <g>
              <path class="cls-2" d="M330.78,45.53c1.06,2.05,1.34,4.24.87,6.58,2.19-.93,4.41-1.1,6.64-.49,4.06.95,7.01,3.8,8.85,8.59,1.84,4.79,1.55,8.88-.85,12.28-1.25,1.93-3,3.27-5.26,4.04,1.91,1.41,3.15,3.24,3.72,5.48,1.23,3.96.21,7.92-3.03,11.9-3.26,3.98-6.97,5.79-11.13,5.42h.01c-2.32-.12-4.37-.95-6.17-2.5-.29,2.35-1.25,4.33-2.91,5.96h.01c-2.85,3.02-6.81,4.14-11.9,3.33h-.01c-5.08-.83-8.49-3.11-10.24-6.86-1.04-2.05-1.34-4.24-.89-6.55-2.18.92-4.4,1.08-6.63.48-4.06-.93-7.01-3.79-8.85-8.56-1.85-4.8-1.58-8.9.82-12.29h-.01c1.25-1.95,3.02-3.3,5.27-4.05-1.91-1.43-3.16-3.26-3.73-5.48-1.21-3.94-.18-7.9,3.09-11.89,3.24-3.98,6.93-5.8,11.07-5.44,2.32.1,4.37.93,6.17,2.5.29-2.36,1.25-4.35,2.91-5.96,2.85-3.02,6.83-4.13,11.93-3.3,5.08.82,8.48,3.1,10.24,6.85v-.04Z"/>
              <path class="cls-1" d="M304.69,65.19c-.43,1.36-.36,2.78.2,4.26.56,1.48,1.46,2.57,2.7,3.3,1.25.73,2.47.86,3.67.4,1.15-.44,1.96-1.34,2.4-2.71.44-1.36.39-2.78-.18-4.24-.57-1.47-1.48-2.58-2.73-3.3-1.25-.71-2.45-.87-3.6-.43-1.15.44-2.01,1.36-2.45,2.74h0Z"/>
              <path class="cls-10" d="M307.13,64.42c-.33,1.17-.25,2.4.25,3.7.5,1.3,1.25,2.26,2.28,2.91,1.04.66,2.02.82,2.95.47.21-.08.4-.17.57-.29.21-.35.38-.74.52-1.17.44-1.36.39-2.78-.18-4.24-.56-1.48-1.48-2.57-2.71-3.3-.39-.22-.78-.39-1.17-.51-.21.04-.42.09-.63.17-.91.35-1.54,1.12-1.89,2.28v-.03Z"/>
              <path class="cls-1" d="M315.56,59.26c-1.2.45-2.01,1.36-2.45,2.74-.44,1.36-.38,2.79.18,4.27.56,1.48,1.48,2.57,2.71,3.28,1.25.73,2.47.86,3.67.4,1.15-.43,1.94-1.34,2.39-2.7.44-1.36.39-2.78-.18-4.24-.56-1.48-1.48-2.58-2.73-3.3-1.25-.73-2.44-.87-3.59-.44h0Z"/>
              <path class="cls-10" d="M315.56,61.2c-.33,1.17-.25,2.4.25,3.7.5,1.3,1.25,2.26,2.28,2.92,1.03.65,2.01.8,2.92.45.21-.08.4-.17.57-.29.21-.35.38-.74.52-1.17.44-1.35.39-2.78-.18-4.24-.56-1.48-1.47-2.57-2.71-3.3-.39-.22-.78-.39-1.16-.49-.21.04-.42.09-.63.17-.91.35-1.54,1.1-1.88,2.26h.01Z"/>
              <path class="cls-2" d="M310.71,77.39c.64,1.28,1.63,2.19,3.03,2.76,1.54.66,3.05.66,4.62.03,1.55-.64,2.65-1.69,3.31-3.23.57-1.36.65-2.7.24-4.07l-11.21,4.5h.01Z"/>
            </g>
          </g>
          <path class="cls-1" d="M474.56,110.07l2-6.44,7.67,6.72,1.44-5.76,8.49,5.48-.37-5.44,8.46,5.44-47.11-67.24-23.28,4.87,42.7,62.38Z"/>
          <path class="cls-5" d="M414.03,110.07l-1.98-6.44-7.67,6.72-1.45-5.76-8.48,5.48.37-5.44-8.47,5.44,50.89-74.25.8,5.02,7.92-5.02.74,5.39,7.45-5.39.13,5.55,10.65-5.55-50.89,74.25Z"/>
          <path class="cls-1" d="M455.52,122.3h45.18v20.52h-112.82v-20.52h45.18v-24.54h22.46v24.54Z"/>
          <path class="cls-1" d="M617.53,146.71h-22.07V35.82h22.07v110.88Z"/>
          <path class="cls-12" d="M580.32,100.19c-4.06,5.81-8.18-2.02-15.29-2.02s-7.11,2.57-14.24,2.57-8.54-5.72-14.84-2.43c-3.31,1.73,1.89,4.87,1.89,8.58s-2.58,3.72-2.58,7.45-.56,3.97,2.18,6.5c2.95,2.72,3.15,2.23,7.16,2.23s4.03-2.57,8.05-2.57,4.03,2.57,8.05,2.57c3.24,0,6.42-2.78,9.67-3.15,3.25-.38,7.11,1.57,10.15.84,3.58-.84,7.66-3.69,10.21-4.85,1.41,2.97-2.47,3.83-2.47,7.12s2.58,3.3,2.58,6.58-1.5,3.05-2.53,6.18c-2.57,1.28-4.37,4.01-8.09,4.85-3.12.7-6.94-1.3-10.44-.93-3.5.36-6.64,3.09-10.01,3.09-7.53,0-7.53-2.57-15.05-2.57s-7.53,2.57-15.06,2.57-9.58,4-14.01-2.05c-6.08-8.28-2.34-9.5-2.34-19.75s2.58-10.25,2.58-20.52-8.22-12.81-2.36-21.24c4.03-5.83,8.18,2.02,15.29,2.02s7.11-2.57,14.24-2.57,8.5,5.67,14.83,2.43c3.25-1.66-1.89-4.78-1.89-8.41s2.58-3.63,2.58-7.27,1.37-4.48-1.88-6.12c-6.37-3.24-6.56-2.44-13.73-2.44s-7.16,2.57-14.33,2.57-7.28.53-13.78-2.45c-3-1.38-1.84-2.12-1.84-5.41s2.58-3.3,2.58-6.58-4.84-6.85-1.67-7.81c10.34-3.14,11.2,2.52,22,2.52s10.82-2.57,21.64-2.57,12.88-5.16,20.75,2.22c7.43,6.98,2.18,9.24,2.18,19.4s-4.65,10.64-2.56,20.61c2.26,10.82,8.17,12.47,2.34,20.81h.03Z"/>
          <path class="cls-4" d="M580.32,100.19c-4.06,5.81-8.18-2.02-15.29-2.02s-7.11,2.57-14.24,2.57-8.54-5.72-14.84-2.43c-3.31,1.73,1.89,4.87,1.89,8.58s-2.58,3.72-2.58,7.45-.56,3.97,2.18,6.5c2.95,2.72,3.15,2.23,7.16,2.23s4.03-2.57,8.05-2.57,4.03,2.57,8.05,2.57c3.24,0,6.42-2.78,9.67-3.15,3.25-.38,7.11,1.57,10.15.84,3.58-.84,7.66-3.69,10.21-4.85,1.41,2.97-2.47,3.83-2.47,7.12s2.58,3.3,2.58,6.58-1.5,3.05-2.53,6.18c-2.57,1.28-4.37,4.01-8.09,4.85-3.12.7-6.94-1.3-10.44-.93-3.5.36-6.64,3.09-10.01,3.09-7.53,0-7.53-2.57-15.05-2.57s-7.53,2.57-15.06,2.57-9.58,4-14.01-2.05c-6.08-8.28-2.34-9.5-2.34-19.75s2.58-10.25,2.58-20.52-8.22-12.81-2.36-21.24c4.03-5.83,8.18,2.02,15.29,2.02s7.11-2.57,14.24-2.57,8.5,5.67,14.83,2.43c3.25-1.66-1.89-4.78-1.89-8.41s2.58-3.63,2.58-7.27,1.37-4.48-1.88-6.12c-6.37-3.24-6.56-2.44-13.73-2.44s-7.16,2.57-14.33,2.57-7.28.53-13.78-2.45c-3-1.38-1.84-2.12-1.84-5.41s2.58-3.3,2.58-6.58-4.84-6.85-1.67-7.81c10.34-3.14,11.2,2.52,22,2.52s10.82-2.57,21.64-2.57,12.88-5.16,20.75,2.22c7.43,6.98,2.18,9.24,2.18,19.4s-4.65,10.64-2.56,20.61c2.26,10.82,8.17,12.47,2.34,20.81h.03Z"/>
          <path class="cls-1" d="M527.79,52.13c-1.66,1.34-2.74,3.15-3.26,5.44-.52,2.28-.3,4.39.64,6.28.95,1.91,2.35,3.08,4.2,3.49,1.79.4,3.52-.06,5.21-1.4,1.67-1.31,2.77-3.11,3.27-5.41.51-2.3.3-4.4-.65-6.31s-2.32-3.06-4.11-3.46c-1.79-.4-3.63.05-5.3,1.39h0Z"/>
          <path class="cls-10" d="M531.07,53.43c-1.37,1.18-2.28,2.78-2.73,4.78-.44,2-.3,3.83.44,5.46.76,1.67,1.84,2.66,3.26,2.97.33.06.64.1.95.12.55-.26,1.08-.6,1.62-1.03,1.67-1.31,2.77-3.11,3.28-5.41.51-2.3.3-4.39-.65-6.31-.3-.6-.64-1.13-1.03-1.58-.29-.13-.6-.23-.91-.3-1.42-.31-2.83.12-4.21,1.3h-.01Z"/>
          <path class="cls-1" d="M546.16,53.64c-1.85-.42-3.63.05-5.3,1.39-1.67,1.34-2.77,3.14-3.29,5.44-.51,2.3-.29,4.39.65,6.28.95,1.91,2.35,3.08,4.2,3.49,1.78.39,3.5-.08,5.18-1.41,1.67-1.31,2.77-3.11,3.27-5.41.51-2.3.3-4.4-.65-6.31-.95-1.91-2.31-3.06-4.09-3.46h.01Z"/>
          <path class="cls-10" d="M544.15,56.3c-1.37,1.18-2.28,2.78-2.73,4.78-.44,2-.3,3.83.43,5.48.74,1.65,1.81,2.63,3.25,2.95.33.06.64.1.95.12.55-.26,1.08-.6,1.62-1.03,1.67-1.31,2.77-3.11,3.28-5.41.51-2.3.3-4.39-.65-6.31-.3-.6-.65-1.12-1.03-1.56-.29-.13-.6-.23-.91-.3-1.42-.31-2.82.1-4.19,1.27h-.01Z"/>
        </g>
      </g>
      <path class="cls-1" d="M575.5,16.93c-3.45-1.73-6.26-4.52-8-7.95-1.73,3.43-4.55,6.23-8,7.95,3.45,1.73,6.26,4.52,8,7.95,1.73-3.43,4.55-6.23,8-7.95Z"/>
      <path class="cls-1" d="M25.38,159.71c-5.36-2.61-9.72-6.94-12.34-12.27-2.62,5.33-6.98,9.67-12.34,12.27,5.36,2.61,9.72,6.94,12.34,12.27,2.62-5.33,6.98-9.67,12.34-12.27Z"/>
      <path class="cls-6" d="M584.7.84h0c.19-.02.38,0,.57.12h0l4.47,2.78.11.06.13-.02,5.15-1.12h0c.2-.05.39-.02.58.07h0c.18.09.3.21.39.41.09.19.1.37.05.57l-1.32,5.03-.03.12.06.11,2.67,4.48c.1.17.14.36.11.56-.04.2-.13.37-.26.51-.16.14-.34.21-.54.22h0l-5.26.31h-.13l-.09.1-3.51,3.89h0c-.14.15-.3.25-.5.27-.21.02-.4,0-.57-.11h0c-.19-.1-.3-.24-.37-.41h0l-1.94-4.84-.05-.11-.11-.05-4.83-2.07h0c-.2-.09-.34-.21-.43-.39-.1-.17-.13-.36-.08-.55h0c.04-.21.13-.37.29-.5h0l4.08-3.31.1-.07v-.12l.52-5.17h0c.01-.2.1-.36.24-.51h0c.14-.15.32-.22.52-.25v-.04l-.02.03Z"/>
      <path class="cls-6" d="M262.63,25.21h0c.19-.02.38.01.57.12h0l4.47,2.78.11.06.13-.02,5.15-1.12h0c.2-.05.39-.02.58.07h0c.18.09.3.21.39.41.09.19.1.37.05.57l-1.32,5.03-.03.12.06.11,2.67,4.48c.1.17.14.36.11.56-.04.2-.13.37-.26.51-.16.14-.34.21-.54.22h0l-5.26.31h-.13l-.09.1-3.51,3.89h0c-.14.15-.3.25-.5.27-.21.02-.4,0-.57-.11h0c-.19-.1-.3-.24-.37-.41h0l-1.94-4.84-.05-.11-.11-.05-4.83-2.07h0c-.2-.09-.34-.21-.43-.39-.1-.17-.13-.36-.08-.55h0c.04-.21.13-.37.29-.5h0l4.08-3.31.1-.07v-.12l.52-5.17h0c.01-.2.1-.36.24-.51h0c.14-.15.32-.22.52-.25v-.04l-.02.03Z"/>
    </g>
  </g>
</svg>