<?xml version="1.0" encoding="UTF-8"?>
<svg id="_레이어_1" data-name="레이어 1" xmlns="http://www.w3.org/2000/svg" version="1.1" viewBox="0 0 170.1 158.7">
  <defs>
    <style>
      .cls-1 {
        fill: #fdf5dd;
      }

      .cls-1, .cls-2, .cls-3, .cls-4, .cls-5 {
        stroke-width: 0px;
      }

      .cls-2 {
        fill: #040000;
      }

      .cls-3 {
        fill: #f9e79d;
      }

      .cls-4 {
        fill: #f6dd69;
      }

      .cls-5 {
        fill: #fff;
      }
    </style>
  </defs>
  <path class="cls-5" d="M156.4,46.9c2.9,14,15.6,42.7,7.5,57.4-5,9-19.1,9.4-31.9,16.5-8,4.4-14.2,14-21.3,21.9-26.9,30.4-81.4,2.9-79.5-26.3,1.3-19.3-20.4-20.6-26.8-56.8C-2,23.5,28.5,9.3,54.3,14.7c18.9,4,22-11.8,41.2-12,12.6-.1,52.8,4.4,60.9,44.1"/>
  <path class="cls-4" d="M118.2,85c-5.3,19.1-25.1,30.4-44.3,25-19.1-5.3-30.4-25.1-25-44.3,5.3-19.1,25.1-30.4,44.3-25,19.1,5.3,30.4,25.1,25,44.3"/>
  <path class="cls-3" d="M85,45.5c-6.8.4-14,1.1-19.9,4.6-5.3,3.2-9.2,8.3-10,14.5-.2,1.4,1.3,2.6,2.6,2.6s2.4-1.2,2.6-2.6c.5-4.6,4.2-8.3,8.1-10.5,5-2.7,11-3.2,16.6-3.5,3.3-.2,3.3-5.3,0-5.2"/>
  <path class="cls-3" d="M75.2,101.7c5.1.9,10.3.9,15.4,0,1.3-.3,2.2-1.9,1.8-3.2-.5-1.4-1.8-2.1-3.2-1.8-.6.1-1.1.2-1.7.3-.2,0-.2,0,0,0-.2,0-.4,0-.5,0-.3,0-.5,0-.8,0-1.1.1-2.2.2-3.3.2-2.3,0-4.4-.2-6.3-.5-1.3-.2-2.8.4-3.2,1.8-.3,1.3.4,2.9,1.8,3.2"/>
  <path class="cls-1" d="M87,151.9c5.7-.1,11.3-1.6,15.7-5.2,4.2-3.4,7-8.2,9.8-12.8,1.7-2.8,3.4-5.5,5.1-8.3,1.5-2.5,2.9-5.2,5.3-7,4.5-3.6,10.6-5.1,15.9-7.2,5.7-2.3,11.1-5.1,14.9-10.1.7-.9.1-2.2-.7-2.7-1-.6-2.1-.1-2.7.7-6.7,8.7-19.2,9.3-28,14.9-4.9,3.1-7.5,8.6-10.5,13.4-2.9,4.6-5.5,9.7-9.2,13.7-4.1,4.5-9.6,6.4-15.5,6.5-2.6,0-2.6,4,0,4"/>
  <path class="cls-1" d="M20.5,35.7c-3.2,5.7-8.3,10.5-9.3,17.3-.5,3.7,0,7.6.8,11.3.8,3.5,2.1,6.9,4.2,9.8.6.9,1.7,1.3,2.7.7.9-.5,1.4-1.9.7-2.7-1.9-2.7-3.1-5.7-3.8-8.9-.7-3.2-1.2-6.8-.6-10,1.1-5.9,5.9-10.3,8.8-15.4,1.2-2.3-2.2-4.3-3.5-2"/>
  <path class="cls-1" d="M143.9,40.8c8.4,6.7,8.7,18.2,8.3,28-.1,2.6,3.9,2.6,4,0,.5-10.8-.2-23.5-9.4-30.9-.8-.7-2-.8-2.8,0-.7.7-.8,2.2,0,2.8"/>
  <path class="cls-2" d="M103.4,76c0,0,.4,0,1.1,0,.6,0,1,0,1.1.1,0,0,0,.7,0,2,0,1.3,0,1.9-.1,2,0,0-.5.1-1.2.1-.7,0-1.1,0-1.1-.1,0,0,0-.8,0-2,0-1,0-1.5,0-1.7,0-.2,0-.3.1-.3M104.5,63.4c-.5,0-1.1,0-2,.1-1,0-1.7,0-2,.2-.3,0-.6.2-.8.4-.4.4-.6.8-.5,1.3,0,.5.4.9.9,1.1.3.1,1.1.1,2.4,0,.9,0,1.7-.2,2.5-.2.8,0,1.2,0,1.2.1.1.1.1.4,0,.8,0,.4-.1.6-.2.7,0,0-1.1.1-3.2.2-1.3,0-2.2.2-2.6.2-.4,0-.7.3-.9.5-.3.3-.4.9-.6,1.8-.1.9-.1,1.8,0,2.8,0,.5.2,1,.5,1.4.3.4.6.6.9.6s.2.1.2.3c0,.2,0,.9,0,2v.5c0,.9,0,1.5,0,1.6,0,.1-.2.2-.5.2,0,0-.1,0-.2,0-.5,0-1,0-1.6,0-.5,0-.9.1-1,.2-.5.4-.8.9-.7,1.4,0,.5.4.9.9,1.2.2.1,2.5.1,7.1.1s7,0,7.2-.1c.7-.2,1.2-.6,1.2-1.3,0-.6-.2-1.1-.8-1.5-.1,0-.3-.1-.4-.1-.2,0-.6,0-1.4,0h-1.5v-1.9s0-.4,0-.4c0-.9,0-1.4,0-1.5,0-.1.2-.2.4-.3,0,0,0,0,.1,0,.2,0,.4,0,.5-.1,0,0,0,0,.2,0,.5-.2.8-.6.9-1.1s-.1-1-.6-1.3c-.3-.2-.5-.3-.8-.3-.3,0-1.3,0-3.1,0-2.8,0-4.3,0-4.5-.2,0,0,0-.3-.1-.8,0-.4,0-.7,0-.7,0,0,.8-.1,2.2-.1.9,0,1.6,0,2,0,.5,0,.9,0,1.3-.1.4,0,.7-.1.8-.3.2-.1.3-.3.5-.5.1-.2.2-.5.4-.8,0-.3.1-1.1.1-2.5s0-2.2-.1-2.4c-.2-.5-.6-.8-1.1-.9-.2,0-.7-.1-1.4-.1s-1.4,0-1.9,0M74.3,66.4c-.6.2-.9.5-1,1s0,1,.4,1.4c.2.2.5.3.7.4s.8,0,1.8,0,1.7,0,1.8.1c0,0,0,.3-.3.8-.1.3-.3.5-.4.7,0,.1,0,.2-.1.2,0,0-.1.2-.3.5-.3.5-.7,1.1-1.1,1.8,0,0,0,.1-.1.2,0,0,0,.1-.1.2,0,0,0,0,0,.1-.3.4-.4.7-.5.7,0,0-.1.2-.2.4,0,0,0,.1,0,.1,0,0-.3.4-.6,1-.2.4-.3.8-.2,1.2.1.4.4.7.8.9.4.2.8.2,1.2,0,.4-.2.8-.8,1.4-1.7.3-.4.4-.6.5-.8.2-.2.3-.4.3-.4s0-.1,0-.2c0,0,.1-.1.2-.1.1,0,.5.5,1.3,1.4,1.1,1.5,2.1,1.8,3,1.1.2-.2.3-.4.4-.8,0-.3,0-.6,0-.8,0-.1,0-.2,0-.2,0-.1-.2-.4-.7-.9-.3-.4-.7-.8-1.2-1.4-.1-.1-.3-.3-.5-.5-.3-.3-.5-.6-.5-.7,0-.1,0-.4.3-.8.2-.3.3-.5.3-.6,0,0,0-.1.2-.4.1-.2.2-.3.2-.4,0,0,.2-.3.4-.7,0-.1,0-.2.1-.2,0,0,0-.1.2-.3.2-.5.2-1,0-1.4-.2-.5-.5-.8-1-1-.2,0-1.3,0-3.3,0s-3.1,0-3.3,0M92.2,64.3c-.3-.2-.6-.2-1-.1s-.7.2-.8.5c-.2.2-.3.6-.3,1.2s-.1,1.5-.1,2.8c0,1.7,0,2.6,0,2.7,0,0-.2,0-.4,0s-.4,0-.5,0c-.1,0-.4,0-.9-.1-.4,0-.7,0-.7,0,0,0,0-.9,0-2.6,0-1.3,0-2,0-2.3,0-.2,0-.4-.2-.6-.3-.6-.7-.8-1.2-.8s-1,.3-1.3.8c-.1.3-.2,1.9-.3,4.9,0,1.3,0,3.2,0,5.7,0,1.6,0,2.6.2,3.1s.4.8.9,1.1c.2,0,.4,0,.6.1.2,0,.3,0,.4,0,0,0,0,0,.2-.1.2,0,.4-.3.6-.6,0-.2.1-.4.1-.6,0-.2,0-1,0-2.3,0-1.7,0-2.6.1-2.7.1,0,.5,0,1.1,0,.2,0,.5,0,.9.1h.6v1c0,.6,0,1.1,0,1.6,0,.6-.1,1.4,0,2.4,0,1.1,0,1.6.1,1.8s.2.3.3.5c.2.2.3.2.4.2s.1,0,.2,0c.2.2.5.2,1,0,.5-.2.7-.6.9-1,.1-.3.2-2.6.2-6.9,0-2.8,0-4.7.1-5.9,0-1.3,0-2.1,0-2.3s0-.4,0-.6c0-.2-.1-.3-.1-.3,0,0,0-.1-.2-.3-.1-.1-.2-.2-.3-.2M58.3,75.2c-.5.1-.8.3-1,.7-.2.4-.2.7-.1,1.1.1.4.4.7.8.9.2,0,.5.1.9.2.4,0,1.6,0,3.6,0,2.4,0,3.6,0,3.7.1,0,0,0,.1.1.2,0,.1,0,.4,0,.9,0,2.3-.1,3.6-.2,3.9-.1.5,0,.9.4,1.3.4.3.8.5,1.3.4s.8-.4,1.1-.9c.3-.6.4-2.4.3-5.2,0-1.2,0-1.9,0-2.2,0-.3-.1-.5-.3-.7,0,0,0,0,0-.1-.2-.3-.5-.4-.8-.5-.3,0-1.4,0-3.3-.1h-.8c-2.6,0-4.2,0-4.6,0-.3,0-.6,0-.8,0M60.2,62c-.5.2-1,.7-1.4,1.5-.1.2-.2.3-.2.3-.2.3-.5.6-.7,1,0,0,0,.1-.1.2s-.1.2-.2.2,0,.1,0,.1c0,.1-.1.2-.1.2s0,.1-.2.3c-.1.2-.2.3-.2.3s0,.2-.2.4c-.2.3-.4.6-.7,1,0,0-.1.2-.3.5-.5.8-.9,1.4-1.1,1.7,0,.2-.2.3-.3.5,0,.1-.2.3-.2.5-.1.4,0,.8.2,1.1.3.4.6.5,1,.5s1.1-.3,1.6-1c.3-.4.4-.6.4-.6,0,0,.1-.2.2-.3.2-.3.5-.8.9-1.3,0-.1.2-.1.3,0s.4.3.8.7c.9.8,1.4,1.4,1.6,1.5.2.2.4.3.7.4.2.1.5.1.7.1s.4,0,.5-.1c0,0,0,0,.2,0,.1,0,.3-.1.5-.4.2-.4.2-.7.1-1,0-.3-.4-.7-.8-1.1-1.9-1.7-2.8-2.7-2.8-2.8s0-.1,0-.2c.3-.6.5-.9.6-1,0,0,.2-.2.3-.5.2-.3.3-.5.4-.6.3-.5.2-1-.3-1.5-.4-.5-.9-.6-1.5-.4M67.8,61.4c-.4.2-.6.5-.7.8,0,.3-.1,1-.1,2.2s0,2.1,0,2.5c0,.3,0,1.4,0,3.2,0,1.3,0,2.1,0,2.3,0,.2,0,.4.1.5.3.5.8.8,1.3.8s1-.3,1.3-.8c0-.1.1-.6.1-1.4,0-.6,0-1.4,0-2.2,0-1.1,0-2.5,0-4.4,0-1.8,0-2.8-.1-2.9-.2-.3-.5-.6-.9-.7s-.8-.1-1.1,0"/>
</svg>