<svg width="26" height="25" viewBox="0 0 26 25" fill="none" xmlns="http://www.w3.org/2000/svg">
<g clip-path="url(#clip0_426_2494)">
<path d="M15.46 24.1H25.36V14.3H19.8V13.09C19.8 10.26 20.32 8.17005 21.37 6.82005C22.41 5.47005 23.95 4.63005 25.97 4.29005V0.0500488C22.06 0.790049 19.33 2.39005 17.78 4.85005C16.23 7.31005 15.46 10.46 15.46 14.3V24.1ZM0 24.1H9.9V14.3H4.35V13.09C4.35 10.26 4.87 8.17005 5.92 6.82005C6.96 5.47005 8.5 4.63005 10.52 4.29005V0.0500488C6.6 0.790049 3.87 2.39005 2.33 4.85005C0.77 7.31005 0 10.46 0 14.3V24.1Z" fill="#251E1C"/>
</g>
<defs>
<clipPath id="clip0_426_2494">
<rect width="25.97" height="24.05" fill="white" transform="translate(0 0.0500488)"/>
</clipPath>
</defs>
</svg>
