<svg width="980" height="441" viewBox="0 0 980 441" fill="none" xmlns="http://www.w3.org/2000/svg">
<g clip-path="url(#clip0_434_2841)">
<path d="M397.231 259.42L395.348 262.023L395.952 262.458C394.841 268.295 399.541 276.619 407.901 282.723C416.261 288.826 425.607 290.745 430.795 287.893L431.399 288.328L433.283 285.725C437.352 280.12 432.572 269.69 422.622 262.422C412.663 255.164 401.3 253.814 397.231 259.42Z" fill="#F7AC58"/>
<path d="M431.392 288.339C435.48 282.752 430.732 272.322 420.785 265.043C410.839 257.764 399.461 256.392 395.372 261.979C391.283 267.566 396.032 277.996 405.978 285.275C415.925 292.554 427.303 293.926 431.392 288.339Z" fill="#FBBC6F"/>
<path d="M426.309 284.62C429.244 280.609 425.837 273.122 418.698 267.897C411.558 262.672 403.391 261.688 400.456 265.699C397.52 269.71 400.928 277.197 408.067 282.422C415.206 287.647 423.373 288.631 426.309 284.62Z" stroke="#F7AC58" stroke-width="5" stroke-miterlimit="10"/>
<path d="M411.685 268.401L418.979 276.539L409.055 272.026L416.394 280.111L406.426 275.651" stroke="#F7AC58" stroke-width="5" stroke-miterlimit="10" stroke-linecap="round" stroke-linejoin="round"/>
<path d="M409.59 279.738L416.537 270.161" stroke="#F7AC58" stroke-width="5" stroke-miterlimit="10" stroke-linecap="round" stroke-linejoin="round"/>
<path d="M262.798 354.178C279.092 352.552 295.341 350.313 311.572 347.932C327.803 345.551 344.008 342.904 360.204 340.061L372.348 337.893C376.293 337.094 380.149 336.232 384.031 335.414L389.823 334.171L395.554 332.616C399.365 331.568 403.167 330.573 406.943 329.498L418.128 325.793L420.909 324.869C421.833 324.567 422.766 324.274 423.672 323.892L429.135 321.751L434.581 319.618C436.385 318.89 438.224 318.259 439.983 317.397L450.591 312.573L453.229 311.374C454.1 310.957 454.953 310.486 455.814 310.041L460.958 307.35L466.084 304.667C466.928 304.205 467.799 303.805 468.625 303.298L471.113 301.815L481.019 295.925L482.253 295.196L483.453 294.397L485.843 292.797L490.613 289.608L495.366 286.436C496.93 285.353 498.431 284.162 499.96 283.025L509.066 276.193L517.781 268.908L519.949 267.096C520.677 266.492 521.397 265.905 522.081 265.239L526.212 261.374L530.325 257.528C531.694 256.239 533.088 255.004 534.359 253.61L542.132 245.516L544.069 243.508L545.899 241.385L549.542 237.156C551.949 234.322 554.463 231.621 556.658 228.61L563.436 219.85L564.28 218.757L565.062 217.611L566.626 215.328L569.744 210.779L572.854 206.257C573.857 204.729 574.772 203.13 575.732 201.575L581.427 192.238L582.031 191.252C593.26 172.844 617.283 167.025 635.691 178.255C654.099 189.484 659.918 213.507 648.688 231.915C647.293 234.207 645.552 236.446 643.793 238.338L634.367 248.359C632.786 250.012 631.258 251.7 629.632 253.308L624.675 258.043L619.726 262.751L617.256 265.106L616.021 266.278L614.733 267.398L604.419 276.282C601.052 279.294 597.374 281.968 593.82 284.748L588.463 288.871L585.789 290.923L583.008 292.851L571.921 300.5C570.108 301.806 568.163 302.943 566.262 304.125L560.549 307.643L554.846 311.143C553.913 311.747 552.927 312.271 551.949 312.813L549.018 314.421L537.326 320.809L525.35 326.584C523.351 327.525 521.388 328.52 519.362 329.409L513.25 331.967C497.108 339.039 480.317 344.316 463.561 348.865L450.91 351.939C448.823 352.499 446.673 352.827 444.54 353.245L438.162 354.444L431.801 355.626C430.752 355.848 429.677 355.972 428.602 356.114L425.395 356.541L412.62 358.22C408.338 358.611 404.056 358.904 399.8 359.25L393.412 359.73L387.007 359.89C382.752 359.988 378.469 360.103 374.276 360.166L361.945 360.139C345.509 360.148 329.083 360.352 312.683 360.823C296.283 361.294 279.9 361.907 263.562 363.133C261.084 363.319 258.934 361.463 258.747 358.984C258.578 356.55 260.382 354.418 262.798 354.178Z" fill="#FF8AA9"/>
<path d="M469.273 148.866L731.612 315.639L683.798 101.15L469.273 148.866Z" fill="#FF8AA9"/>
<path d="M286.268 440.141H263.188V419.645C263.188 416.962 265.364 414.786 268.047 414.786H281.418C284.101 414.786 286.277 416.962 286.277 419.645V440.141H286.268Z" fill="#E8DDDA"/>
<path d="M323.102 440.141H300.021V403.53C300.021 400.847 302.198 398.67 304.881 398.67H318.252C320.935 398.67 323.111 400.847 323.111 403.53V440.141H323.102Z" fill="#FFB2B7"/>
<path d="M398.306 440.141H375.225V394.654C375.225 391.971 377.401 389.794 380.084 389.794H393.455C396.138 389.794 398.314 391.971 398.314 394.654V440.141H398.306Z" fill="#E8DDDA"/>
<path d="M435.13 440.141H412.049V375.216C412.049 372.533 414.225 370.356 416.908 370.356H430.279C432.962 370.356 435.139 372.533 435.139 375.216V440.141H435.13Z" fill="#FFB2B7"/>
<path d="M510.335 440.14H487.254V379.204C487.254 376.521 489.431 374.345 492.114 374.345H505.484C508.167 374.345 510.344 376.521 510.344 379.204V440.14H510.335Z" fill="#E8DDDA"/>
<path d="M547.169 440.141H524.088V352.623C524.088 349.94 526.264 347.764 528.947 347.764H542.318C545.001 347.764 547.178 349.94 547.178 352.623V440.141H547.169Z" fill="#FFB2B7"/>
<path d="M621.991 440.15H599V303.025C599 300.333 601.168 298.15 603.841 298.15H617.159C619.832 298.15 622 300.333 622 303.025V440.15H621.991Z" fill="#D1BEBA"/>
<path d="M658.991 440.15H636V256.019C636 253.331 638.168 251.15 640.841 251.15H654.159C656.832 251.15 659 253.331 659 256.019V440.15H658.991Z" fill="#FF8AA9"/>
<path d="M231 260.15V440.15H713" stroke="#D5C6C3" stroke-width="2" stroke-miterlimit="10" stroke-linecap="round" stroke-linejoin="round"/>
<path d="M231 260.15H236" stroke="#D5C6C3" stroke-width="2" stroke-miterlimit="10" stroke-linecap="round" stroke-linejoin="round"/>
<path d="M231 279.15H236" stroke="#D5C6C3" stroke-width="2" stroke-miterlimit="10" stroke-linecap="round" stroke-linejoin="round"/>
<path d="M231 298.15H236" stroke="#D5C6C3" stroke-width="2" stroke-miterlimit="10" stroke-linecap="round" stroke-linejoin="round"/>
<path d="M231 316.15H236" stroke="#D5C6C3" stroke-width="2" stroke-miterlimit="10" stroke-linecap="round" stroke-linejoin="round"/>
<path d="M231 335.15H236" stroke="#D5C6C3" stroke-width="2" stroke-miterlimit="10" stroke-linecap="round" stroke-linejoin="round"/>
<path d="M231 353.15H236" stroke="#D5C6C3" stroke-width="2" stroke-miterlimit="10" stroke-linecap="round" stroke-linejoin="round"/>
<path d="M231 372.15H236" stroke="#D5C6C3" stroke-width="2" stroke-miterlimit="10" stroke-linecap="round" stroke-linejoin="round"/>
<path d="M231 391.15H236" stroke="#D5C6C3" stroke-width="2" stroke-miterlimit="10" stroke-linecap="round" stroke-linejoin="round"/>
<path d="M231 409.15H236" stroke="#D5C6C3" stroke-width="2" stroke-miterlimit="10" stroke-linecap="round" stroke-linejoin="round"/>
<path d="M231 428.15H236" stroke="#D5C6C3" stroke-width="2" stroke-miterlimit="10" stroke-linecap="round" stroke-linejoin="round"/>
<path d="M733.796 194.717L734.711 191.634L734 191.421C733.12 185.549 725.915 179.25 716.019 176.256C706.113 173.271 696.651 174.55 692.698 178.957L691.987 178.743L691.072 181.826C689.091 188.463 697.051 196.725 708.849 200.279C720.647 203.85 731.814 201.353 733.796 194.717Z" fill="#F7AC58"/>
<path d="M734.716 191.67C736.725 185.045 728.791 176.775 716.996 173.2C705.2 169.624 694.01 172.096 692.002 178.722C689.993 185.347 697.927 193.617 709.722 197.192C721.518 200.768 732.708 198.296 734.716 191.67Z" fill="#FBBC6F"/>
<path d="M728.685 189.842C730.127 185.085 724.433 179.149 715.967 176.582C707.501 174.016 699.469 175.791 698.027 180.548C696.585 185.305 702.279 191.241 710.745 193.807C719.211 196.374 727.243 194.598 728.685 189.842Z" stroke="#F7AC58" stroke-width="5" stroke-miterlimit="10"/>
<path d="M717.183 191.03L707.615 185.762L718.472 186.739L708.868 181.542L719.751 182.448" stroke="#F7AC58" stroke-width="5" stroke-miterlimit="10" stroke-linecap="round" stroke-linejoin="round"/>
<path d="M715.416 179.641L712.031 190.977" stroke="#F7AC58" stroke-width="5" stroke-miterlimit="10" stroke-linecap="round" stroke-linejoin="round"/>
<path d="M709.224 260.193L707.18 257.714L706.603 258.185C701.228 255.653 691.989 258.132 684.002 264.697C676.015 271.262 671.813 279.836 673.279 285.575L672.701 286.046L674.745 288.524C679.16 293.864 690.452 291.838 699.966 284.02C709.49 276.202 713.63 265.532 709.224 260.193Z" fill="#F7AC58"/>
<path d="M697.911 281.563C707.443 273.749 711.612 263.074 707.223 257.719C702.834 252.365 691.548 254.359 682.016 262.173C672.483 269.988 668.314 280.663 672.703 286.017C677.093 291.372 688.378 289.377 697.911 281.563Z" fill="#FBBC6F"/>
<path d="M695.669 278.825C702.511 273.216 705.503 265.554 702.352 261.709C699.2 257.865 691.099 259.296 684.258 264.905C677.416 270.513 674.424 278.176 677.575 282.02C680.726 285.864 688.827 284.434 695.669 278.825Z" stroke="#F7AC58" stroke-width="5" stroke-miterlimit="10"/>
<path d="M696.918 271.946L687.208 276.975L694.057 268.499L684.4 273.581L691.206 265.043" stroke="#F7AC58" stroke-width="5" stroke-miterlimit="10" stroke-linecap="round" stroke-linejoin="round"/>
<path d="M686.461 267.086L693.995 276.202" stroke="#F7AC58" stroke-width="5" stroke-miterlimit="10" stroke-linecap="round" stroke-linejoin="round"/>
<path d="M683.228 433.921H728.813C730.225 433.921 731.371 435.067 731.371 436.48V440.931C731.371 442.344 730.225 443.49 728.813 443.49H683.228C681.816 443.49 680.67 442.344 680.67 440.931V436.48C680.67 435.067 681.816 433.921 683.228 433.921Z" fill="#FBBC6F"/>
<path d="M726.987 443.489H728.506V433.921H726.987V443.489Z" fill="#F7AC58"/>
<path d="M722.164 443.489H723.684V433.921H722.164V443.489Z" fill="#F7AC58"/>
<path d="M717.332 443.489H718.852V433.921H717.332V443.489Z" fill="#F7AC58"/>
<path d="M712.51 443.489H714.029V433.921H712.51V443.489Z" fill="#F7AC58"/>
<path d="M707.676 443.489H709.195V433.921H707.676V443.489Z" fill="#F7AC58"/>
<path d="M702.854 443.489H704.373V433.921H702.854V443.489Z" fill="#F7AC58"/>
<path d="M698.022 443.489H699.541V433.921H698.022V443.489Z" fill="#F7AC58"/>
<path d="M693.19 443.489H694.709V433.921H693.19V443.489Z" fill="#F7AC58"/>
<path d="M688.368 443.489H689.887V433.921H688.368V443.489Z" fill="#F7AC58"/>
<path d="M683.535 443.489H685.055V433.921H683.535V443.489Z" fill="#F7AC58"/>
<path opacity="0.4" d="M680.67 438.878V440.931C680.67 442.343 681.816 443.489 683.228 443.489H728.813C730.225 443.489 731.371 442.343 731.371 440.931V438.878C731.371 440.291 730.225 441.437 728.813 441.437H683.228C681.816 441.437 680.67 440.291 680.67 438.878Z" fill="#FBBC6F"/>
<path d="M679.213 424.371H724.797C726.21 424.371 727.356 425.517 727.356 426.93V431.381C727.356 432.793 726.21 433.939 724.797 433.939H679.213C677.8 433.939 676.654 432.793 676.654 431.381V426.93C676.654 425.517 677.8 424.371 679.213 424.371Z" fill="#FBBC6F"/>
<path d="M722.975 433.94H724.494V424.372H722.975V433.94Z" fill="#F7AC58"/>
<path d="M718.143 433.94H719.662V424.372H718.143V433.94Z" fill="#F7AC58"/>
<path d="M713.313 433.94H714.832V424.372H713.313V433.94Z" fill="#F7AC58"/>
<path d="M708.489 433.94H710.008V424.372H708.489V433.94Z" fill="#F7AC58"/>
<path d="M703.659 433.94H705.178V424.372H703.659V433.94Z" fill="#F7AC58"/>
<path d="M698.834 433.94H700.354V424.372H698.834V433.94Z" fill="#F7AC58"/>
<path d="M694.002 433.94H695.521V424.372H694.002V433.94Z" fill="#F7AC58"/>
<path d="M689.18 433.94H690.699V424.372H689.18V433.94Z" fill="#F7AC58"/>
<path d="M684.348 433.94H685.867V424.372H684.348V433.94Z" fill="#F7AC58"/>
<path d="M679.516 433.94H681.035V424.372H679.516V433.94Z" fill="#F7AC58"/>
<path opacity="0.4" d="M676.654 429.329V431.381C676.654 432.793 677.8 433.939 679.213 433.939H724.797C726.21 433.939 727.356 432.793 727.356 431.381V429.329C727.356 430.741 726.21 431.887 724.797 431.887H679.213C677.8 431.887 676.654 430.741 676.654 429.329Z" fill="#FBBC6F"/>
<path d="M684.836 414.82H730.42C731.833 414.82 732.979 415.966 732.979 417.379V421.83C732.979 423.242 731.833 424.388 730.42 424.388H684.836C683.423 424.388 682.277 423.242 682.277 421.83V417.379C682.277 415.966 683.423 414.82 684.836 414.82Z" fill="#FBBC6F"/>
<path d="M728.594 424.39H730.113V414.822H728.594V424.39Z" fill="#F7AC58"/>
<path d="M723.762 424.39H725.281V414.822H723.762V424.39Z" fill="#F7AC58"/>
<path d="M718.94 424.39H720.459V414.822H718.94V424.39Z" fill="#F7AC58"/>
<path d="M714.108 424.39H715.627V414.822H714.108V424.39Z" fill="#F7AC58"/>
<path d="M709.284 424.39H710.803V414.822H709.284V424.39Z" fill="#F7AC58"/>
<path d="M704.453 424.39H705.973V414.822H704.453V424.39Z" fill="#F7AC58"/>
<path d="M699.621 424.39H701.141V414.822H699.621V424.39Z" fill="#F7AC58"/>
<path d="M694.797 424.39H696.316V414.822H694.797V424.39Z" fill="#F7AC58"/>
<path d="M689.967 424.39H691.486V414.822H689.967V424.39Z" fill="#F7AC58"/>
<path d="M685.143 424.39H686.662V414.822H685.143V424.39Z" fill="#F7AC58"/>
<path opacity="0.4" d="M682.277 419.778V421.83C682.277 423.243 683.423 424.389 684.836 424.389H730.42C731.833 424.389 732.979 423.243 732.979 421.83V419.778C732.979 421.19 731.833 422.336 730.42 422.336H684.836C683.415 422.336 682.277 421.19 682.277 419.778Z" fill="#FBBC6F"/>
<path d="M679.195 405.27H724.78C726.192 405.27 727.338 406.416 727.338 407.829V412.28C727.338 413.692 726.192 414.838 724.78 414.838H679.195C677.783 414.838 676.637 413.692 676.637 412.28V407.829C676.637 406.416 677.783 405.27 679.195 405.27Z" fill="#FBBC6F"/>
<path d="M722.955 414.841H724.475V405.273H722.955V414.841Z" fill="#F7AC58"/>
<path d="M718.131 414.841H719.65V405.273H718.131V414.841Z" fill="#F7AC58"/>
<path d="M713.299 414.841H714.818V405.273H713.299V414.841Z" fill="#F7AC58"/>
<path d="M708.477 414.841H709.996V405.273H708.477V414.841Z" fill="#F7AC58"/>
<path d="M703.645 414.841H705.164V405.273H703.645V414.841Z" fill="#F7AC58"/>
<path d="M698.813 414.841H700.332V405.273H698.813V414.841Z" fill="#F7AC58"/>
<path d="M693.991 414.841H695.51V405.273H693.991V414.841Z" fill="#F7AC58"/>
<path d="M689.159 414.841H690.678V405.273H689.159V414.841Z" fill="#F7AC58"/>
<path d="M684.336 414.841H685.855V405.273H684.336V414.841Z" fill="#F7AC58"/>
<path d="M679.504 414.841H681.023V405.273H679.504V414.841Z" fill="#F7AC58"/>
<path opacity="0.4" d="M676.637 410.228V412.28C676.637 413.692 677.783 414.838 679.195 414.838H724.78C726.192 414.838 727.338 413.692 727.338 412.28V410.228C727.338 411.64 726.192 412.786 724.78 412.786H679.195C677.783 412.786 676.637 411.64 676.637 410.228Z" fill="#FBBC6F"/>
<path d="M683.228 395.72H728.813C730.225 395.72 731.371 396.866 731.371 398.278V402.729C731.371 404.142 730.225 405.288 728.813 405.288H683.228C681.816 405.288 680.67 404.142 680.67 402.729V398.278C680.67 396.866 681.816 395.72 683.228 395.72Z" fill="#FBBC6F"/>
<path d="M726.989 405.292H728.508V395.724H726.989V405.292Z" fill="#F7AC58"/>
<path d="M722.166 405.292H723.686V395.724H722.166V405.292Z" fill="#F7AC58"/>
<path d="M717.332 405.292H718.852V395.724H717.332V405.292Z" fill="#F7AC58"/>
<path d="M712.512 405.292H714.031V395.724H712.512V405.292Z" fill="#F7AC58"/>
<path d="M707.678 405.292H709.197V395.724H707.678V405.292Z" fill="#F7AC58"/>
<path d="M702.846 405.292H704.365V395.724H702.846V405.292Z" fill="#F7AC58"/>
<path d="M698.024 405.292H699.543V395.724H698.024V405.292Z" fill="#F7AC58"/>
<path d="M693.192 405.292H694.711V395.724H693.192V405.292Z" fill="#F7AC58"/>
<path d="M688.369 405.292H689.889V395.724H688.369V405.292Z" fill="#F7AC58"/>
<path d="M683.537 405.292H685.057V395.724H683.537V405.292Z" fill="#F7AC58"/>
<path opacity="0.4" d="M680.67 400.677V402.729C680.67 404.142 681.816 405.288 683.228 405.288H728.813C730.225 405.288 731.371 404.142 731.371 402.729V400.677C731.371 402.09 730.225 403.236 728.813 403.236H683.228C681.816 403.236 680.67 402.09 680.67 400.677Z" fill="#FBBC6F"/>
<path d="M679.098 386.169H724.682C726.095 386.169 727.241 387.315 727.241 388.728V393.179C727.241 394.592 726.095 395.738 724.682 395.738H679.098C677.685 395.738 676.539 394.592 676.539 393.179V388.728C676.539 387.315 677.685 386.169 679.098 386.169Z" fill="#FBBC6F"/>
<path d="M722.858 395.743H724.377V386.175H722.858V395.743Z" fill="#F7AC58"/>
<path d="M718.034 395.743H719.553V386.175H718.034V395.743Z" fill="#F7AC58"/>
<path d="M713.202 395.743H714.721V386.175H713.202V395.743Z" fill="#F7AC58"/>
<path d="M708.379 395.743H709.898V386.175H708.379V395.743Z" fill="#F7AC58"/>
<path d="M703.545 395.743H705.064V386.175H703.545V395.743Z" fill="#F7AC58"/>
<path d="M698.715 395.743H700.234V386.175H698.715V395.743Z" fill="#F7AC58"/>
<path d="M693.891 395.743H695.41V386.175H693.891V395.743Z" fill="#F7AC58"/>
<path d="M689.061 395.743H690.58V386.175H689.061V395.743Z" fill="#F7AC58"/>
<path d="M684.237 395.743H685.756V386.175H684.237V395.743Z" fill="#F7AC58"/>
<path d="M679.407 395.743H680.926V386.175H679.407V395.743Z" fill="#F7AC58"/>
<path opacity="0.4" d="M676.539 391.127V393.179C676.539 394.592 677.685 395.738 679.098 395.738H724.682C726.095 395.738 727.241 394.592 727.241 393.179V391.127C727.241 392.54 726.095 393.686 724.682 393.686H679.098C677.685 393.686 676.539 392.54 676.539 391.127Z" fill="#FBBC6F"/>
<path d="M676.805 376.619H722.389C723.802 376.619 724.948 377.765 724.948 379.177V383.628C724.948 385.041 723.802 386.187 722.389 386.187H676.805C675.392 386.187 674.246 385.041 674.246 383.628V379.177C674.246 377.765 675.392 376.619 676.805 376.619Z" fill="#FBBC6F"/>
<path d="M720.561 386.193H722.08V376.625H720.561V386.193Z" fill="#F7AC58"/>
<path d="M715.739 386.193H717.258V376.625H715.739V386.193Z" fill="#F7AC58"/>
<path d="M710.907 386.193H712.426V376.625H710.907V386.193Z" fill="#F7AC58"/>
<path d="M706.084 386.193H707.604V376.625H706.084V386.193Z" fill="#F7AC58"/>
<path d="M701.252 386.193H702.771V376.625H701.252V386.193Z" fill="#F7AC58"/>
<path d="M696.43 386.193H697.949V376.625H696.43V386.193Z" fill="#F7AC58"/>
<path d="M691.596 386.193H693.115V376.625H691.596V386.193Z" fill="#F7AC58"/>
<path d="M686.764 386.193H688.283V376.625H686.764V386.193Z" fill="#F7AC58"/>
<path d="M681.942 386.193H683.461V376.625H681.942V386.193Z" fill="#F7AC58"/>
<path d="M677.11 386.193H678.629V376.625H677.11V386.193Z" fill="#F7AC58"/>
<path opacity="0.4" d="M674.246 381.576V383.628C674.246 385.041 675.392 386.187 676.805 386.187H722.389C723.802 386.187 724.948 385.041 724.948 383.628V381.576C724.948 382.989 723.802 384.135 722.389 384.135H676.805C675.392 384.135 674.246 382.989 674.246 381.576Z" fill="#FBBC6F"/>
<path d="M684.836 367.068H730.42C731.833 367.068 732.979 368.214 732.979 369.627V374.078C732.979 375.49 731.833 376.637 730.42 376.637H684.836C683.423 376.637 682.277 375.49 682.277 374.078V369.627C682.277 368.214 683.423 367.068 684.836 367.068Z" fill="#FBBC6F"/>
<path d="M728.592 376.645H730.111V367.076H728.592V376.645Z" fill="#F7AC58"/>
<path d="M723.76 376.645H725.279V367.076H723.76V376.645Z" fill="#F7AC58"/>
<path d="M718.938 376.645H720.457V367.076H718.938V376.645Z" fill="#F7AC58"/>
<path d="M714.106 376.645H715.625V367.076H714.106V376.645Z" fill="#F7AC58"/>
<path d="M709.284 376.645H710.803V367.076H709.284V376.645Z" fill="#F7AC58"/>
<path d="M704.452 376.645H705.971V367.076H704.452V376.645Z" fill="#F7AC58"/>
<path d="M699.627 376.645H701.146V367.076H699.627V376.645Z" fill="#F7AC58"/>
<path d="M694.795 376.645H696.314V367.076H694.795V376.645Z" fill="#F7AC58"/>
<path d="M689.965 376.645H691.484V367.076H689.965V376.645Z" fill="#F7AC58"/>
<path d="M685.141 376.645H686.66V367.076H685.141V376.645Z" fill="#F7AC58"/>
<path opacity="0.4" d="M682.277 372.026V374.078C682.277 375.491 683.423 376.637 684.836 376.637H730.42C731.833 376.637 732.979 375.491 732.979 374.078V372.026C732.979 373.438 731.833 374.585 730.42 374.585H684.836C683.415 374.585 682.277 373.438 682.277 372.026Z" fill="#FBBC6F"/>
<path d="M695.594 336.018L697.016 342.134L703.132 343.556C704.289 343.83 704.289 345.47 703.132 345.744L697.016 347.166L695.594 353.282C695.32 354.439 693.68 354.439 693.406 353.282L691.984 347.166L685.868 345.744C684.711 345.47 684.711 343.83 685.868 343.556L691.984 342.134L693.406 336.018C693.671 334.861 695.32 334.861 695.594 336.018Z" fill="#FDD9B4"/>
<path d="M744.247 384.702L745.222 388.565L749.408 389.464C750.197 389.635 750.197 390.68 749.408 390.843L745.222 391.742L744.247 395.604C744.062 396.332 742.929 396.332 742.753 395.604L741.778 391.742L737.592 390.843C736.803 390.671 736.803 389.626 737.592 389.464L741.778 388.565L742.753 384.702C742.938 383.966 744.062 383.966 744.247 384.702Z" fill="#FDD9B4"/>
<path d="M422.382 167.869C417.93 147.512 397.156 134.926 376.799 140.862C359.464 145.918 348.418 163.395 351.253 181.224C352.858 191.292 358.398 199.635 365.983 205.043C369.588 207.615 372.512 211.034 374.248 215.112L376.04 219.311C377.48 222.696 381.129 224.587 384.735 223.795L409.192 218.453C412.786 217.662 415.325 214.43 415.226 210.748L415.105 206.395C414.984 201.866 416.215 197.437 418.458 193.502C422.745 186.016 424.371 176.97 422.382 167.869Z" fill="#FBBC6F"/>
<path d="M403.705 181.246L402.539 221.256L391.943 223.564L374.191 187.687" stroke="#F9EFEC" stroke-width="3" stroke-miterlimit="10" stroke-linecap="round" stroke-linejoin="round"/>
<path d="M379.301 173.881C379.828 176.321 377.575 179.575 377.575 179.575C377.575 179.575 374.167 177.552 373.629 175.112C373.101 172.672 373.937 170.418 375.497 170.078C377.058 169.748 378.762 171.441 379.301 173.881Z" stroke="#F9EFEC" stroke-width="3" stroke-miterlimit="10" stroke-linecap="round" stroke-linejoin="round"/>
<path d="M383.314 182.246C381.171 181.641 379.797 181.608 377.576 179.575" stroke="#F9EFEC" stroke-width="3" stroke-miterlimit="10" stroke-linecap="round" stroke-linejoin="round"/>
<path d="M374.189 187.687C375.882 186.236 376.399 182.345 377.575 179.575" stroke="#F9EFEC" stroke-width="3" stroke-miterlimit="10" stroke-linecap="round" stroke-linejoin="round"/>
<path d="M389.137 171.727C389.664 174.167 387.411 177.421 387.411 177.421C387.411 177.421 384.003 175.398 383.465 172.958C382.937 170.518 383.773 168.264 385.333 167.924C386.894 167.594 388.598 169.298 389.137 171.727Z" stroke="#F9EFEC" stroke-width="3" stroke-miterlimit="10" stroke-linecap="round" stroke-linejoin="round"/>
<path d="M393.15 180.102C391.006 179.498 389.632 179.465 387.412 177.431" stroke="#F9EFEC" stroke-width="3" stroke-miterlimit="10" stroke-linecap="round" stroke-linejoin="round"/>
<path d="M383.312 182.246C385.005 180.795 386.236 180.19 387.412 177.42" stroke="#F9EFEC" stroke-width="3" stroke-miterlimit="10" stroke-linecap="round" stroke-linejoin="round"/>
<path d="M398.965 169.583C399.492 172.023 397.239 175.277 397.239 175.277C397.239 175.277 393.832 173.254 393.293 170.814C392.765 168.374 393.601 166.121 395.162 165.78C396.733 165.45 398.437 167.143 398.965 169.583Z" stroke="#F9EFEC" stroke-width="3" stroke-miterlimit="10" stroke-linecap="round" stroke-linejoin="round"/>
<path d="M403.704 181.245C401.561 180.64 399.472 177.31 397.252 175.276" stroke="#F9EFEC" stroke-width="3" stroke-miterlimit="10" stroke-linecap="round" stroke-linejoin="round"/>
<path d="M393.15 180.102C394.843 178.651 396.074 178.057 397.25 175.276" stroke="#F9EFEC" stroke-width="3" stroke-miterlimit="10" stroke-linecap="round" stroke-linejoin="round"/>
<path d="M414.215 237.513C415.05 241.349 409.884 245.735 402.684 247.307C395.473 248.879 388.955 247.054 388.12 243.218C387.284 239.382 392.451 234.996 399.65 233.424C406.861 231.852 413.379 233.677 414.215 237.513Z" fill="#F9EFEC"/>
<path d="M419.447 226.994C419.128 225.554 418.205 224.422 417.007 223.773C417.82 222.685 418.194 221.267 417.886 219.827C417.315 217.2 414.721 215.54 412.094 216.112L381.14 222.872C378.513 223.443 376.854 226.037 377.425 228.664C377.744 230.104 378.667 231.236 379.865 231.885C379.052 232.973 378.678 234.391 378.986 235.831C379.305 237.271 380.228 238.403 381.426 239.052C380.613 240.14 380.239 241.558 380.547 242.998C381.118 245.625 383.712 247.285 386.34 246.713L417.293 239.953C419.92 239.381 421.579 236.787 421.008 234.16C420.689 232.72 419.766 231.588 418.568 230.94C419.392 229.851 419.766 228.434 419.447 226.994Z" fill="#D1BEBA"/>
<path d="M382.205 231.38L414.642 224.29" stroke="#E3D7D5" stroke-width="2" stroke-miterlimit="10" stroke-linecap="round" stroke-linejoin="round"/>
<path d="M383.801 238.656L416.238 231.577" stroke="#E3D7D5" stroke-width="2" stroke-miterlimit="10" stroke-linecap="round" stroke-linejoin="round"/>
<path d="M376.763 128.693L373.334 113.019" stroke="#FBBC6F" stroke-width="8" stroke-miterlimit="10" stroke-linecap="round" stroke-linejoin="round"/>
<path d="M353.827 140.543L343.021 128.683" stroke="#FBBC6F" stroke-width="8" stroke-miterlimit="10" stroke-linecap="round" stroke-linejoin="round"/>
<path d="M339.876 162.284L324.598 157.415" stroke="#FBBC6F" stroke-width="8" stroke-miterlimit="10" stroke-linecap="round" stroke-linejoin="round"/>
<path d="M338.678 188.083L323.004 191.501" stroke="#FBBC6F" stroke-width="8" stroke-miterlimit="10" stroke-linecap="round" stroke-linejoin="round"/>
<path d="M350.528 211.022L338.668 221.827" stroke="#FBBC6F" stroke-width="8" stroke-miterlimit="10" stroke-linecap="round" stroke-linejoin="round"/>
<path d="M434.945 192.578L450.235 197.448" stroke="#FBBC6F" stroke-width="8" stroke-miterlimit="10" stroke-linecap="round" stroke-linejoin="round"/>
<path d="M436.152 166.781L451.827 163.351" stroke="#FBBC6F" stroke-width="8" stroke-miterlimit="10" stroke-linecap="round" stroke-linejoin="round"/>
<path d="M424.295 143.84L436.155 133.035" stroke="#FBBC6F" stroke-width="8" stroke-miterlimit="10" stroke-linecap="round" stroke-linejoin="round"/>
<path d="M402.562 129.892L407.432 114.613" stroke="#FBBC6F" stroke-width="8" stroke-miterlimit="10" stroke-linecap="round" stroke-linejoin="round"/>
</g>
<defs>
<clipPath id="clip0_434_2841">
<rect width="980" height="440" fill="white" transform="translate(0 0.149902)"/>
</clipPath>
</defs>
</svg>
