<?xml version="1.0" encoding="UTF-8"?>
<svg id="_레이어_1" data-name=" 레이어 1" xmlns="http://www.w3.org/2000/svg" xmlns:xlink="http://www.w3.org/1999/xlink" version="1.1" viewBox="0 0 750 230">
  <defs>
    <style>
      .cls-1 {
        clip-path: url(#clippath);
      }

      .cls-2 {
        fill: none;
      }

      .cls-2, .cls-3, .cls-4, .cls-5, .cls-6, .cls-7, .cls-8, .cls-9, .cls-10, .cls-11, .cls-12, .cls-13, .cls-14 {
        stroke-width: 0px;
      }

      .cls-3 {
        fill: #f02b2e;
      }

      .cls-4 {
        fill: #cd2e3a;
      }

      .cls-15 {
        clip-path: url(#clippath-1);
      }

      .cls-5 {
        fill: #000;
      }

      .cls-6 {
        fill: #cf0f19;
      }

      .cls-7 {
        fill: #6b53cd;
      }

      .cls-8 {
        fill: #0047a0;
      }

      .cls-9 {
        fill: #e80012;
      }

      .cls-10 {
        fill: #788b99;
      }

      .cls-11 {
        fill: #002969;
      }

      .cls-12 {
        fill: red;
      }

      .cls-13 {
        fill: #fff;
      }

      .cls-14 {
        fill: #003e87;
      }
    </style>
    <clipPath id="clippath">
      <path class="cls-2" d="M621.9,109.2c0,20,16.2,36.2,36.2,36.2s36.1-16.2,36.1-36.2-16.2-36.2-36.1-36.2-36.2,16.2-36.2,36.2"/>
    </clipPath>
    <clipPath id="clippath-1">
      <path class="cls-2" d="M480.4,109.2c0,20,16.2,36.2,36.2,36.2s36.2-16.2,36.2-36.2-16.2-36.2-36.2-36.2-36.2,16.2-36.2,36.2"/>
    </clipPath>
  </defs>
  <path class="cls-13" d="M269.9,109.2h0c0,.9,0,1.9-.1,2.8-.1,1.3-.3,2.6-.5,3.9-.1.6-.2,1.1-.4,1.7-.2.7-.3,1.3-.5,1.9s-.4,1.2-.6,1.8h0c0,.3-.2.5-.3.8-.1.4-.3.7-.4,1.1-.2.6-.5,1.1-.7,1.6,0,0,0,.2-.1.3-.5,1.1-1.1,2.1-1.7,3.1-.1.2-.2.3-.3.5-1.2,1.9-2.5,3.6-4,5.2-.1.1-.2.2-.3.4-1.9,2-4.1,3.8-6.4,5.3-.1,0-.2.2-.4.2-.6.4-1.1.7-1.7,1-1.3.7-2.6,1.3-3.9,1.9-1.2.5-2.4.9-3.7,1.3-1.2.3-2.4.6-3.6.8-2.1.4-4.2.6-6.4.6s-4.7-.2-7-.7c-1.2-.2-2.4-.5-3.6-.9-1.1-.3-2.1-.7-3.1-1.1-1.3-.5-2.6-1.2-3.9-1.9-.6-.3-1.1-.7-1.7-1-.1,0-.2-.2-.4-.2-2.4-1.5-4.5-3.3-6.4-5.3l-.3-.3c-.7-.7-1.3-1.5-1.9-2.2-.8-1-1.5-2-2.2-3v-.2h0c-.7-1.1-1.4-2.3-1.9-3.5-.3-.6-.6-1.3-.9-1.9-.1-.3-.3-.7-.4-1-.1-.3-.2-.6-.3-.9h0c-.2-.6-.4-1.2-.6-1.8-.2-.6-.4-1.3-.5-1.9s-.2-1.1-.4-1.7c-.2-1.3-.4-2.6-.5-3.9,0-.9-.1-1.8-.1-2.8h0c0-2.3.2-4.5.6-6.7.2-.8.3-1.6.5-2.4h0c0-.4.2-.8.3-1.1.2-.6.4-1.2.6-1.7h0c.3-.9.7-1.8,1.1-2.7h0c0-.2.2-.4.3-.6,0,0,.1-.3.2-.4h0s.1-.3.2-.4c.1-.2.3-.5.4-.7v-.2c.3-.4.5-.7.7-1.1.5-.9,1.1-1.8,1.7-2.7h0c.7-1.1,1.5-2.1,2.3-3,2.2-2.4,4.6-4.6,7.4-6.3.7-.4,1.4-.9,2.1-1.2,1.3-.7,2.6-1.3,3.9-1.9.8-.3,1.5-.6,2.3-.9h0c.2,0,.5,0,.7-.2,1.2-.4,2.4-.7,3.6-.9,2.1-.4,4.3-.6,6.5-.7h.9c1.1,0,2.1,0,3.1.2.9,0,1.9.2,2.8.4,1.2.2,2.4.5,3.6.8,1.3.4,2.5.8,3.7,1.3,1.3.5,2.6,1.2,3.9,1.9.6.3,1.1.7,1.7,1,.1,0,.2.2.4.2,2.3,1.5,4.5,3.3,6.4,5.3.2.2.4.4.6.6.7.7,1.3,1.5,1.9,2.3.7.9,1.3,1.8,1.9,2.7.1.2.2.3.3.5.6,1,1.2,2.1,1.7,3.1.3.6.6,1.3.9,1.9.2.5.4.9.5,1.4,0,.2.1.3.2.5h0c.2.6.4,1.2.6,1.8.2.6.4,1.3.5,1.9s.2,1.1.4,1.7c.2,1.3.4,2.6.5,3.9,0,.9.1,1.8.1,2.8"/>
  <path class="cls-9" d="M246.3,109.2c0,7-5.7,12.6-12.6,12.6s-12.6-5.7-12.6-12.6,5.7-12.6,12.6-12.6,12.6,5.7,12.6,12.6"/>
  <path class="cls-13" d="M411.3,109.2c0,.9,0,1.9-.1,2.8-.1,1.3-.3,2.6-.5,3.9-.1.6-.2,1.1-.4,1.7-.2.7-.3,1.3-.5,1.9s-.4,1.2-.6,1.8c0,.3-.2.5-.3.8-.1.4-.3.7-.4,1.1-.2.6-.5,1.1-.7,1.6-.6,1.2-1.2,2.3-1.9,3.4-.1.2-.2.3-.3.5-1.2,1.9-2.5,3.6-4,5.2-.1.1-.2.2-.3.4-2,2.1-4.3,4-6.8,5.6-.6.4-1.1.7-1.7,1-2.4,1.3-4.9,2.4-7.6,3.2-1.2.3-2.4.6-3.6.8-2.1.4-4.2.6-6.4.6s-4.7-.2-7-.7c-1.2-.2-2.4-.5-3.6-.9-2.5-.7-4.8-1.8-7-3-.6-.3-1.1-.7-1.7-1-2.5-1.6-4.8-3.4-6.8-5.6,0,0-.2-.2-.3-.3-.7-.7-1.3-1.5-1.9-2.2-.8-1-1.5-2-2.2-3v-.2h0c-1.1-1.7-2-3.5-2.8-5.4-.1-.3-.3-.7-.4-1s-.2-.6-.3-.9c-.2-.6-.4-1.2-.6-1.8-.2-.6-.4-1.3-.5-1.9s-.2-1.1-.4-1.7c-.2-1.3-.4-2.6-.5-3.9,0-.9-.1-1.8-.1-2.8,0-2.3.2-4.5.6-6.7.2-.8.3-1.6.5-2.4h0c0-.4.2-.8.3-1.1.2-.6.4-1.2.6-1.7h0c.3-.9.7-1.8,1.1-2.7h0c0-.2.2-.4.3-.6,0,0,.1-.3.2-.4,0,0,.1-.3.2-.4.1-.2.3-.5.4-.7v-.2c.3-.4.5-.7.7-1.1.5-.9,1.1-1.8,1.7-2.7h0c.7-1.1,1.5-2.1,2.3-3,2.7-3,5.9-5.6,9.5-7.6,2-1.1,4-2,6.2-2.7h0c.2,0,.5,0,.7-.2,1.2-.4,2.4-.7,3.6-.9,2.1-.4,4.3-.6,6.5-.7h.9c1.1,0,2.1,0,3.1.2.9,0,1.9.2,2.8.4,1.2.2,2.4.5,3.6.8,2.7.8,5.2,1.8,7.6,3.2.6.3,1.1.7,1.7,1,2.5,1.6,4.8,3.4,6.8,5.6.2.2.4.4.6.6.7.7,1.3,1.5,1.9,2.3.7.9,1.3,1.8,1.9,2.7.1.2.2.3.3.5,1,1.6,1.9,3.3,2.6,5.1.2.5.4.9.5,1.4,0,.2.1.3.2.5.2.6.4,1.2.6,1.8.2.6.4,1.3.5,1.9s.2,1.1.4,1.7c.2,1.3.4,2.6.5,3.9,0,.9.1,1.8.1,2.8"/>
  <path class="cls-12" d="M411.2,106.4c0,.9.1,1.8.1,2.8s0,1.9-.1,2.8c-.1,1.3-.3,2.6-.5,3.9-.1.6-.2,1.1-.4,1.7-.2.7-.3,1.3-.5,1.9s-.4,1.2-.6,1.8c0,.3-.2.5-.3.8-.1.4-.3.7-.4,1.1-.2.6-.5,1.1-.7,1.6-.6,1.2-1.2,2.3-1.9,3.4-.1.2-.2.3-.3.5-1.2,1.9-2.5,3.6-4,5.2-.1.1-.2.2-.3.4-2,2.1-4.3,4-6.8,5.6-.6.4-1.1.7-1.7,1v-63.2c.6.3,1.1.7,1.7,1,2.5,1.6,4.8,3.4,6.8,5.6.2.2.4.4.6.6.7.7,1.3,1.5,1.9,2.3.7.9,1.3,1.8,1.9,2.7.1.2.2.3.3.5,1,1.6,1.9,3.3,2.6,5.1.2.5.4.9.5,1.4,0,.2.1.3.2.5.2.6.4,1.2.6,1.8.2.6.4,1.3.5,1.9s.2,1.1.4,1.7c.2,1.3.4,2.6.5,3.9"/>
  <path class="cls-12" d="M357.6,77.6v63.2c-.6-.3-1.1-.7-1.7-1-2.5-1.6-4.8-3.4-6.8-5.6,0,0-.2-.2-.3-.3-.7-.7-1.3-1.5-1.9-2.2-.8-1-1.5-2-2.2-3v-.2h0c-1.1-1.7-2-3.5-2.8-5.4-.1-.3-.3-.7-.4-1s-.2-.6-.3-.9c-.2-.6-.4-1.2-.6-1.8-.2-.6-.4-1.3-.5-1.9s-.2-1.1-.4-1.7c-.2-1.3-.4-2.6-.5-3.9,0-.9-.1-1.8-.1-2.8,0-2.3.2-4.5.6-6.7.2-.8.3-1.6.5-2.4h0c0-.4.2-.8.3-1.1.2-.6.4-1.2.6-1.7h0c.3-.9.7-1.8,1.1-2.7h0c0-.2.2-.4.3-.6,0,0,.1-.3.2-.4,0,0,.1-.3.2-.4.1-.2.3-.5.4-.7v-.2c.3-.4.5-.7.7-1.1.5-.9,1.1-1.8,1.7-2.7h0c.7-1.1,1.5-2.1,2.3-3,2.7-3,5.9-5.6,9.5-7.6"/>
  <path class="cls-12" d="M380.5,116c-.2-.3-.2-.8.1-1.1l7-6.2-1.8-.7c-.1,0-.2-.2-.1-.4l1.7-3.3-3.5.4c-.2,0-.3,0-.3-.3v-2l-2.6,2.5c-.2.2-.6,0-.5-.3l.6-6.5-3.3,1.5h-.5l-2-4.4-2,4.4c0,.2-.3.3-.5,0l-3.3-1.5.6,6.5c0,.3-.3.5-.5.3l-2.6-2.5v2c0,.2-.2.3-.3.3l-3.5-.4,1.7,3.3s0,.3-.1.4l-1.8.7,7,6.2c.3.3.4.7.1,1.1l-.4.6h0l4.9-.2c.3,0,.5.2.5.4l-.2,6.2h.9l-.2-6.2c0-.3.2-.5.5-.4l4.9.3s.1,0,0,0l-.4-.6h-.1Z"/>
  <g class="cls-1">
    <g>
      <rect class="cls-6" x="601.8" y="71.7" width="112.5" height="75"/>
      <rect class="cls-13" x="601.8" y="96.7" width="112.5" height="50"/>
      <rect class="cls-14" x="601.8" y="121.7" width="112.5" height="25"/>
    </g>
  </g>
  <g class="cls-15">
    <g>
      <rect class="cls-3" x="462.4" y="73" width="108.5" height="72.3"/>
      <polygon class="cls-13" points="570.8 100.1 516.4 100.1 516.4 73 497.4 73 497.4 100.1 462.4 100.1 462.4 118.3 497.4 118.3 497.4 145.3 516.4 145.3 516.4 118.3 570.8 118.3 570.8 100.1"/>
      <polygon class="cls-11" points="570.8 105.5 510.6 105.5 510.6 73 503.2 73 503.2 105.5 462.4 105.5 462.4 112.9 503.2 112.9 503.2 145.3 510.6 145.3 510.6 112.9 570.8 112.9 570.8 105.5"/>
    </g>
  </g>
  <path class="cls-5" d="M735.6,38.8c1.4-2.2,2.2-4.7,2.2-7.6s-.8-5.4-2.2-7.6l-.9.4c1.3,2.1,1.9,4.7,1.9,7.2s-.6,5.1-1.9,7.2l.9.4ZM721.6,31.5v1h5.6v2.7h1.2v-2.7h5.4v-1h-12.2ZM724.4,33.9h-1.2v3.8h9.3v-1h-8.1v-2.8ZM722.9,30.5c2.2-.3,4.2-1.4,4.9-3,.7,1.6,2.7,2.6,4.9,3l.5-1c-2.4-.3-4.5-1.7-4.5-3.3h4.2v-1h-10v1h4.2c0,1.7-2.2,3-4.6,3.3l.5,1h-.1ZM718.3,38h1.2v-13.5h-1.2v13.5ZM709.3,26v1h5.1c-.3,3.2-2.1,5.8-5.7,7.5l.7,1c4.5-2.2,6.3-5.6,6.3-9.5h-6.4,0ZM702.1,27.4v-2.9h-1.2v6.8h1.2v-2.9h2v-1h-2ZM694.8,35.3h7.3v-3.3h-8.6v1h7.3v1.4h-7.3v3.4h9v-1h-7.8v-1.5h0ZM698.4,25.3h-6.2v5.4h6.2v-5.4ZM697.2,29.7h-3.8v-3.4h3.8v3.4ZM678.1,36.9v-1.2h7.8v-2.8h-9v.9h7.8v1.1h-7.8v2.9h9.5v-.9h-8.3ZM678.5,32.5h1.2v-2.1c1.3,0,2.6-.2,3.9-.4v-.8c-3,.3-6.2.3-8.8.3l.2.9h3.5v2h0ZM679.2,28.8c2,0,3.3-.8,3.3-2s-1.3-2-3.3-2-3.3.8-3.3,2,1.3,2,3.3,2M679.2,25.7c1.3,0,2.2.5,2.2,1.2s-.8,1.2-2.2,1.2-2.2-.5-2.2-1.2.9-1.2,2.2-1.2M682,30.9v.8h2.7v.7h1.2v-7.9h-1.2v6.4s-2.7,0-2.7,0ZM667,36.9h6.9v-1.2h-4.8c2.6-2.4,4.3-4.7,4.3-6.9s-1.2-3.3-3.2-3.3-2.3.6-3.2,1.6l.8.8c.6-.7,1.4-1.3,2.3-1.3,1.4,0,2,.9,2,2.2,0,1.9-1.6,4.1-5,7.1v.8h0v.2ZM660,36.9h6v-1.1h-2.2v-9.9h-1c-.6.3-1.3.6-2.3.8v.9h2v8.2h-2.4v1.1h0ZM646.3,36.7v-3h-1.2v4h9v-1h-7.8ZM650.2,31c-2,.4-3.8.5-5.6.5v-6h-1.2v7h1c2,0,3.8,0,6-.5v-1h-.2ZM652.5,34.5h1.2v-10h-1.2v1.7h-3.8v1h3.8v1.6h-3.8v1h3.8v4.7ZM638.1,37.1c2,0,3.5-1.2,3.5-3.1s-1-2.5-2.3-2.8h0c1.2-.5,2-1.4,2-2.7s-1.3-2.8-3.2-2.8-2.2.6-3.1,1.3l.7.9c.6-.6,1.4-1.1,2.3-1.1s1.9.7,1.9,1.8-.8,2.1-3,2.1v1c2.5,0,3.4.9,3.4,2.2s-.9,2-2.2,2-2.1-.6-2.7-1.3l-.7.9c.7.8,1.8,1.5,3.5,1.5M627,36.9h6.9v-1.2h-4.8c2.6-2.4,4.3-4.7,4.3-6.9s-1.2-3.3-3.2-3.3-2.3.6-3.2,1.6l.8.8c.6-.7,1.4-1.3,2.3-1.3,1.4,0,2,.9,2,2.2,0,1.9-1.6,4.1-5,7.1v.8h0v.2ZM622.8,36c-1.3,0-2.1-1.4-2.1-4.6s.8-4.6,2.1-4.6,2.1,1.3,2.1,4.6-.8,4.6-2.1,4.6M622.8,37.1c2.1,0,3.4-1.9,3.4-5.7s-1.3-5.7-3.4-5.7-3.4,1.8-3.4,5.7,1.3,5.7,3.4,5.7M611.6,36.9h6.9v-1.2h-4.8c2.6-2.4,4.3-4.7,4.3-6.9s-1.2-3.3-3.2-3.3-2.3.6-3.2,1.6l.8.8c.6-.7,1.4-1.3,2.3-1.3,1.4,0,2,.9,2,2.2,0,1.9-1.6,4.1-5,7.1v.8h0v.2ZM610.1,38.8l.8-.4c-1.3-2.1-1.9-4.7-1.9-7.2s.6-5.1,1.9-7.2l-.8-.4c-1.4,2.2-2.2,4.7-2.2,7.6s.8,5.4,2.2,7.6"/>
  <path class="cls-5" d="M245.3,26.5c.3,0,.4-.1.4-.4v-.9c0-.3-.1-.4-.4-.4h-.6c.7-.2,1.1-.7,1.1-1.3s-.6-1.2-1.8-1.2h-3.3c-2.1,0-4.4,0-6.7.2-.3,0-.4.2-.4.4v1.1c0,.3.1.4.4.4,2.1-.1,5.8-.2,8.2-.2s.7,0,.7.3-.2.3-.7.3h-2.9c-4.4,0-6,.4-6,2.2s1.5,2.3,7.2,2.3,4-.1,5.4-.4c.3,0,.4-.2.4-.5l-.2-1c0-.3-.2-.4-.5-.4-2,.3-4.1.4-6.1.4s-3.3,0-3.3-.4.5-.4,3.2-.4h6M239.3,37.1h6.2c1.5,0,.5-.2.5-.4v-1c0-.3-.2-.4-.5-.4h-.6c.7-.2,1.2-.7,1.2-1.5,0-1.2-1.1-1.3-2-1.3v-.6c0-.2.1-.3.4-.3h2.2c.5,0,.6-.2.6-.6v-.9c0-.4-.2-.6-.6-.6-1.2.1-4.1.2-7.2.2s-5.5,0-7.2-.2c-.4,0-.6.1-.6.6v.9c0,.4.2.6.6.6.9,0,1.6,0,2.7.1-.2,0-.3.3-.3.5v.5h-.8c-.4,0-.5.2-.5.4v1.1c0,.3.2.5.5.4,2.4-.2,6.8-.3,8.7-.3s.7,0,.7.4-.2.4-.7.4h-3.2c-4.6,0-6.3.5-6.3,2.4s1.5,2.4,7.5,2.4,4.2,0,5.6-.3c.3,0,.5-.2.5-.5v-1.1c-.1-.3-.3-.4-.7-.4-1.3.2-3.8.3-5.5.3-4.1,0-4.6,0-4.6-.4s.3-.5,3.5-.5M237.5,32.5v-.5c0-.2,0-.3.4-.3h3.6c-.2,0-.3.3-.3.5v.3h-3.7M226,22.4v8.4c0,.4.2.7.7.7h1.6c.4,0,.7-.2.7-.7v-8.4c0-.4-.2-.7-.7-.7h-1.6c-.4,0-.7.2-.7.7M216.5,33.2c-.4,0-.6.2-.6.6v1.5c0,.4.2.6.6.6,2.2-.2,4.7-.4,7.9-.4s1.5.4,1.5,1.5,0,1.5-.1,2.2c0,.4.2.7.6.7h1.6c.4,0,.6-.2.7-.6,0-.5.1-1.6.1-2.8,0-2.4-1.3-3.5-4-3.5-3.9,0-6.4,0-8.4.4M217.2,26.8c0-1.4.6-2.2,1.8-2.2s1.8.8,1.8,2.2-.6,2.2-1.8,2.2-1.8-.7-1.8-2.2M223.7,26.8c0-3-1.7-4.8-4.7-4.8s-4.7,1.8-4.7,4.8,1.8,4.8,4.7,4.8,4.7-1.8,4.7-4.8M204.7,27.6c.8,1.8,2.8,3.1,5.5,3.1s1,0,1-.6v-1.5c0-.4-.2-.6-.7-.6-2.8,0-4.3-1.6-4.3-3.8v-1.4c0-.4-.2-.7-.7-.7h-1.6c-.4,0-.7.2-.7.7v1.4c0,2.2-1.5,3.8-4.4,3.8s-.7.2-.7.6v1.5c0,.6.5.6,1,.6,2.7,0,4.7-1.3,5.5-3.1M206.1,35.9c0-.5.3-.8.9-.8,2,0,3.9-.2,4.9-.3.5,0,.7-.3.7-.6v-1.5c0-.4-.3-.7-.7-.6-1.2.2-4.1.3-7.2.3s-5.4,0-7.2-.3c-.4,0-.7.2-.7.6v1.5c0,.4.2.6.7.6,1.6.2,3.9.3,6.3.3-.4.2-.6.5-.6,1v2.2c0,.4.2.7.7.7h1.6c.4,0,.6-.2.6-.7v-2.4ZM187.7,39.6c.4,0,.6-.3.6-.7v-1.4c-.1-.4-.4-.7-.8-.6-2.1.2-5.4.4-8.4.4s-1.5-.4-1.5-1.3,0-1.2.1-1.7c0-.4-.2-.7-.7-.7h-1.6c-.4,0-.6.2-.7.7,0,.6-.1,1.2-.1,2,0,2.4,1.5,3.7,4.1,3.7s6.4,0,8.9-.4M183.7,22.2c-3.1,0-6.2.2-8,.3-.4,0-.6.3-.6.6v1.5c0,.4.3.6.6.6,2.7-.2,5-.3,7.1-.3s1.9.6,1.9,1.8-.3,2.1-.5,2.6h-3c-2.8,0-5.4,0-7.2-.2-.4,0-.7.2-.7.6v1.2c0,.4.2.6.7.6.9,0,3.1.1,4.8.1-.2,0-.3.3-.3.6v2.7c0,.4.2.7.7.7h1.5c.4,0,.6-.2.6-.7v-2.7c0-.4.1-.6.6-.6h1.4c-.2.1-.3.3-.3.6v2.7c0,.4.2.7.7.7h1.5c.4,0,.6-.2.6-.7v-2.7c0-.3.1-.6.6-.6h2.1c.5,0,.7-.3.7-.6v-1.2c0-.4-.3-.6-.7-.6h-1.2c.3-.9.5-2.1.5-3.3,0-2.5-1.2-3.7-4-3.7M160,28.4l-.2-3.5h1.8l-.2,3.5h-1.4ZM164.3,37.4c-3,0-4-.3-4-1.3s1-1.3,4-1.3,3.9.3,3.9,1.3-1,1.3-3.9,1.3M167.8,22.7c0,.5-.2.7-.7.7h-.5c-.4,0-.6.2-.6.6v1.4c0,.4.2.6.6.6h.2c.5,0,.8-.1,1-.4v1c0,.5-.2.7-.8.7h-.4c-.4,0-.6.2-.6.6v1.4c0,.4.2.6.6.6h.2c.5,0,.8-.1,1-.4v1.4c0,.4.2.7.7.7h1.6c.4,0,.7-.2.7-.7v-8.4c0-.4-.2-.7-.7-.7h-1.6c-.4,0-.7.2-.7.7,0,0,0,.2,0,.2ZM156.5,22.2c-.4,0-.7.2-.7.7v1.4c0,.4.2.7.7.7h.4l.2,3.4h-.9c-.4,0-.7.2-.7.6v1.4c0,.4.2.7.6.7.9.1,2.4.2,4.5.2s3.4-.1,4.3-.2c.4,0,.6-.3.6-.7v-1.4c0-.4-.2-.7-.7-.6h-.7l.2-3.3h.4c.4,0,.7-.2.7-.7v-1.4c0-.4-.2-.7-.7-.7h-8.4.2,0ZM164.3,32.2c-4.6,0-6.8,1.3-6.8,3.9s2.2,3.9,6.8,3.9,6.8-1.3,6.8-3.9-2.2-3.9-6.8-3.9M141.6,31.9c3.2,0,4.2.5,4.2,2.1s-1.1,2.1-3.3,2.1-3.3-.5-3.3-1.5-.2-.7-.7-.7h-1.6c-.4,0-.7.2-.7.7,0,2.7,2.4,4.3,6.2,4.3s6.2-1.8,6.2-4.7-1.2-3.6-3-4c1.3-.6,2.2-1.9,2.2-3.5,0-2.4-2.1-3.9-5.6-3.9s-5.6,1.6-5.6,4.3.2.7.7.7h1.6c.4,0,.7-.2.7-.7,0-1,.9-1.5,2.7-1.5s2.7.6,2.7,1.6-.9,1.9-3.4,1.9-.6.2-.6.6v1.6c0,.4.2.6.6.6M134,27.6c0-3.1-2.1-4.8-5.6-4.8s-5.6,1.8-5.6,4.9.2.7.7.7h1.6c.4,0,.7-.2.7-.7,0-1.3,1.1-2.1,2.7-2.1s2.7.8,2.7,2.1-1,2.2-3.6,3.6c-3.7,2-5.1,3.7-5.1,6.2s.4,1.2,1.1,1.2h10.4c.4,0,.6-.2.6-.6v-1.6c0-.4-.2-.6-.6-.6h-7.9c.5-.7,1.5-1.5,3.2-2.4,3.2-1.7,4.7-3.5,4.7-5.9M120.4,21.7c0-.4-.2-.6-.7-.6h-2.4c-.4,0-.6.3-.4.7l1.6,3.2c0,.3.3.4.7.4h.6c.3,0,.5-.1.5-.5v-3.1h.1ZM105.1,29c-.3.2-.4.4-.4.8v1.8c0,.3,0,.5.3.5s.2,0,.3-.1c.8-.6,1.5-1,2.3-1,1.5,0,2.8,1.3,4.5,1.3s1.8-.3,2.4-.8c.3-.3.4-.5.4-.8v-1.8c0-.3,0-.5-.3-.5s-.2,0-.3.1c-.9.7-1.6,1-2.4,1-1.4,0-2.6-1.3-4.4-1.3s-1.6.2-2.4.8M93,30.8c0-3.6,1.1-5.3,3.4-5.3s3.4,1.7,3.4,5.3-1.1,5.3-3.4,5.3-3.4-1.7-3.4-5.3M90.1,30.8c0,5.4,2.2,8.1,6.3,8.1s6.3-2.6,6.3-8.1-2.2-8.1-6.3-8.1-6.3,2.6-6.3,8.1M78.8,30.8c0-3.6,1.1-5.3,3.4-5.3s3.4,1.7,3.4,5.3-1.1,5.3-3.4,5.3-3.4-1.7-3.4-5.3M75.9,30.8c0,5.4,2.2,8.1,6.3,8.1s6.3-2.6,6.3-8.1-2.2-8.1-6.3-8.1-6.3,2.6-6.3,8.1M73.9,21.7c0-.4-.2-.6-.7-.6h-2.4c-.4,0-.6.3-.4.7l1.6,3.2c0,.3.3.4.7.4h.6c.3,0,.5-.1.5-.5v-3.1h.1ZM59.2,22.5c0,.5,0,.7-.7.7h-.9c-.4,0-.6.2-.6.6v1.2c0,.4.2.6.6.6h.5c.5,0,.9-.1,1.1-.4v1.2c0,.5-.2.7-.7.7h-.9c-.4,0-.6.2-.6.6v1.2c0,.4.2.6.6.6h.5c.5,0,.9-.1,1.1-.4v.9c0,.4.2.7.7.7h1.6c.4,0,.7-.2.7-.7v-7.4c0-.4-.2-.7-.7-.7h-1.6c-.4,0-.7.2-.7.7h0ZM50.1,30.4h4.2c1.4,0,2.1-.7,2.2-1.9l.3-5.6c0-.4-.2-.6-.7-.6h-1.6c-.5,0-.7.2-.7.6v1h-3.3v-1c0-.4-.3-.6-.7-.6h-1.6c-.4,0-.7.2-.7.6l.3,5.6c0,1.2.8,1.9,2.2,1.9M55.5,36.7h6.1c1.4,0,.5-.2.5-.5v-1.2c0-.3-.2-.5-.5-.5h-.5c.7-.3,1.2-.9,1.2-1.7s-.7-1.5-2-1.6c-3.1-.1-7.2,0-10.3.2-.4,0-.5.2-.5.5v1.3c0,.3.2.5.5.5,2.4-.2,6.8-.3,8.7-.3s.7,0,.7.4-.2.4-.7.4h-3.2c-4.4,0-6.3.6-6.3,2.7s1.7,2.8,7.5,2.8,4.2-.2,5.6-.4c.3,0,.5-.2.5-.5v-1.3c0-.3-.3-.5-.7-.4-1.3.2-3.8.4-5.5.4-3.9,0-4.6,0-4.6-.5s.5-.5,3.5-.5M50.7,26.3h3v1c0,.4-.2.5-.6.5h-1.7c-.4,0-.5-.1-.6-.5v-1h-.1ZM43.9,39v-6.6c0-.6.5-1.1,1.2-1.1h.7c.4,0,.6-.2.6-.6v-1.6c0-.4-.2-.6-.6-.6h-.6c-.6,0-1,.2-1.2.6v-6.7c0-.4-.2-.7-.7-.7h-1.6c-.4,0-.7.2-.7.7v16.6c0,.4.2.7.7.7h1.6c.4,0,.7-.2.7-.7M35.5,36.3c0,.4.2.7.6.7h1.6c.4,0,.6,0,.7-.6.5-3,.7-5.8.7-9s-1.2-4.4-4-4.4-2.5,0-4.6.4c-.4,0-.6.2-.6.6v1.5c0,.4.2.7.6.6,1.3-.1,2.4-.4,4.1-.4s1.5.5,1.5,2c0,2.7-.2,5.3-.7,8.5M22.8,33.1h-1.2v-1.2c0-.4.2-.6.7-.6,1.8,0,4,0,5-.2.5,0,.7-.3.7-.6v-1.2c0-.4-.3-.6-.7-.6h-1.2c.2-.9.4-1.8.4-3,0-2.5-1.2-3.6-4-3.6s-6.2.2-8,.3c-.4,0-.6.3-.6.6v1.5c0,.4.3.6.6.6,2.7-.2,5-.3,7.1-.3s1.9.5,1.9,1.7-.2,1.8-.5,2.3h-3.1c-2.8,0-5.4,0-7.2-.2-.4,0-.7.2-.7.6v1.2c0,.4.2.6.7.6,1.6.1,4.1.2,6.2.1-.3.1-.4.4-.4.7v1.2c-1.8,0-3.2.2-4.4.3-.4,0-.6.2-.6.6v1.5c0,.4.2.6.6.6,2.2-.2,4.9-.4,8.1-.4s1.5.4,1.5,1.5,0,1.3-.1,1.9c0,.4.2.7.6.7h1.6c.4,0,.6-.2.7-.6,0-.4.1-1.3.1-2.5,0-2.4-1.3-3.5-4-3.5"/>
  <path class="cls-7" d="M102.6,194.5c0-1.4.4-2.1,1.3-2.1s1.3.6,1.3,2.1-.4,2.1-1.3,2.1-1.3-.6-1.3-2.1M118.1,203.8c0,1.4-.4,2.1-1.3,2.1s-1.3-.6-1.3-2.1.4-2.1,1.3-2.1,1.3.6,1.3,2.1M121.2,203.8c0-3.6-1.6-5.5-4.5-5.5s-4.5,1.9-4.5,5.5,1.5,5.4,4.5,5.4,4.5-1.9,4.5-5.4M113.9,189.4l-11.1,19.3c-.2.4,0,.8.5.8h2.4c.5,0,.9-.2,1.1-.6l11.1-19.3c.2-.4,0-.8-.5-.8h-2.4c-.5,0-.9.2-1.1.6M99.5,194.5c0,3.6,1.5,5.5,4.4,5.5s4.5-1.9,4.5-5.5-1.5-5.4-4.5-5.4-4.4,1.9-4.4,5.4M92.6,208.2c0,.5.3.8.8.8h2c.5,0,.8-.3.8-.8v-18c0-.5-.3-.8-.8-.8h-1.4c-.5,0-1,0-1.5.4l-3.8,2.1c-.5.2-.6.5-.6,1v2.3c0,.4.2.6.5.6h.4l3.6-1.9v14.5-.2h0ZM81.6,208.8c0,1.3.8,2.1,2.1,2.1s2.2-.8,2.2-2.1-.9-2.1-2.2-2.1-2.1.8-2.1,2.1M67,200.9c1-.9,2.7-1.5,4.3-1.5,2.5,0,4.2,1.2,4.2,3.1s-1.5,3.2-3.9,3.2-4.3-1.4-4.5-4.9M71.6,192.5c1.7,0,2.7.5,3.1,1.5.2.4.5.6,1.1.6h1.8c.5,0,.8-.3.8-.8-.3-2.9-2.9-4.8-6.7-4.8-5.5,0-8.3,3.5-8.3,10.4s2.6,9.8,8.1,9.8,7.7-2.7,7.7-6.8-2.8-6.4-6.9-6.4-3.7.6-5.1,1.6c.3-3.7,1.7-5.2,4.6-5.2"/>
  <path class="cls-5" d="M113.6,175.8h-3.9c-.4,0-.7-.2-.7-.6v-.9c0-.3,0-.4.4-.4h4.5c.4,0,.6.3.6.8s-.4,1.1-.9,1.1M113.5,164.4c-2.3,0-4.7.2-6,.3-.3,0-.5.2-.5.5v1.1c0,.3.2.4.5.4,2-.1,3.8-.3,5.3-.3s1.5.4,1.5,1.2-.2,1.2-.4,1.7h-2.3c-2.1,0-4.1,0-5.4-.1-.3,0-.5.1-.5.4v.9c0,.3,0,.4.5.5,1.3.1,3.3.1,5.4.1s4.5,0,5.4-.1c.3,0,.5-.2.5-.5v-.9c0-.3-.2-.5-.5-.4h-.9c.2-.7.3-1.5.3-2.2,0-1.8-.9-2.6-3-2.6M115.5,175.8c.8-.4,1.2-1.1,1.2-2s-.7-1.8-1.9-1.8h-7.1c-.6,0-.8.3-.8.8v3c0,1.1.7,1.6,1.9,1.6h7.8c.3,0,.5-.2.5-.5v-.8c0-.3-.2-.5-.5-.5h-1v.2h0ZM97.8,177.7c2.6,0,4.5-.1,6-.3.3,0,.5-.2.5-.5v-1.1c0-.3-.2-.5-.5-.5-1.6.2-3.6.3-5.6.3s-1.7-.4-1.7-1.3v-1.1c0-.3-.2-.5-.5-.5h-1.2c-.3,0-.5.2-.5.5v1.5c0,1.9,1.3,3,3.6,3M96.3,164.2c-2.2,0-3.4,1.4-3.4,3.7s1.3,3.7,3.4,3.7,3.5-1.4,3.5-3.7-1.3-3.7-3.5-3.7M101.6,164.8c0,.5,0,.6-.6.6h-.6c-.3,0-.5.2-.5.5v1c0,.3.2.5.5.5h.4c.4,0,.6-.1.8-.3v1c0,.4,0,.6-.6.6h-.6c-.3,0-.5.2-.5.5v1c0,.3.2.5.5.5h.4c.4,0,.6-.1.8-.3v2.6c0,.3.2.5.5.5h1.2c.3,0,.5-.2.5-.5v-8.4c0-.3-.2-.5-.5-.5h-1.2c-.3,0-.5.2-.5.5v.3h0ZM95,168c0-1.1.5-1.8,1.3-1.8s1.3.7,1.3,1.8-.5,1.8-1.3,1.8-1.3-.6-1.3-1.8M85,177.7c2.6,0,4.5-.1,6-.3.3,0,.5-.2.5-.5v-1.1c0-.3-.2-.5-.5-.5-1.6.2-3.6.3-5.6.3s-1.7-.4-1.7-1.3v-1.1c0-.3-.2-.5-.5-.5h-1.2c-.3,0-.5.2-.5.5v1.5c0,1.9,1.3,3,3.6,3M88.9,164.5v8.4c0,.3.2.5.5.5h1.2c.3,0,.5-.2.5-.5v-8.4c0-.3-.2-.5-.5-.5h-1.2c-.3,0-.5.2-.5.5M82.3,171.5h4.3c.3,0,.5-.2.5-.5v-.9c0-.3-.2-.5-.5-.5h-1c.9-.4,1.5-1.6,1.5-2.9s-.9-2.4-2.2-2.4h-3.8c-.6,0-.9.3-.9.9v4.5c0,1.1.8,1.7,2,1.7M83.1,169.6c-.4,0-.7-.2-.7-.6v-2.2c0-.3.2-.5.5-.5h1c.7,0,1.1.5,1.1,1.4s-.5,1.8-1.3,1.8h-.6ZM74.9,172.6h-.9v-.9c0-.3.2-.5.5-.5,1.4,0,3,0,3.8-.1.3,0,.5-.2.5-.5v-.9c0-.3-.2-.5-.5-.5h-.9c.2-.6.3-1.4.3-2.2,0-1.9-.9-2.7-3-2.7s-4.7.2-6,.3c-.3,0-.5.2-.5.5v1.1c0,.3.2.4.5.4,2-.1,3.8-.3,5.3-.3s1.5.4,1.5,1.3-.2,1.3-.3,1.7h-2.3c-2.1,0-4.1,0-5.4-.1-.3,0-.5.1-.5.5v.9c0,.3.2.4.5.5,1.2,0,3.1.1,4.6.1-.2.1-.3.3-.3.5v.9c-1.4,0-2.4.1-3.3.2-.3,0-.5.2-.5.5v1.1c0,.3.2.5.5.5,1.7-.1,3.7-.3,6.1-.3s1.2.3,1.2,1.1v1.4c0,.3.2.5.5.5h1.2c.3,0,.5-.2.5-.5v-1.9c0-1.8-.9-2.7-3-2.7"/>
  <path class="cls-10" d="M247.5,194.5c0-1.4.4-2.1,1.3-2.1s1.3.6,1.3,2.1-.4,2.1-1.3,2.1-1.3-.6-1.3-2.1M263,203.8c0,1.4-.4,2.1-1.3,2.1s-1.3-.6-1.3-2.1.4-2.1,1.3-2.1,1.3.6,1.3,2.1M266.2,203.8c0-3.6-1.5-5.5-4.5-5.5s-4.4,1.9-4.4,5.5,1.5,5.5,4.4,5.5,4.5-1.9,4.5-5.5M258.9,189.4l-11.1,19.3c-.2.4,0,.8.5.8h2.3c.5,0,.9-.2,1.1-.6l11.1-19.3c.2-.4,0-.8-.5-.8h-2.3c-.5,0-.9.2-1.1.6M244.4,194.5c0,3.6,1.5,5.5,4.5,5.5s4.5-1.9,4.5-5.5-1.5-5.5-4.5-5.5-4.5,1.9-4.5,5.5M229.8,200.9c1-.9,2.7-1.5,4.3-1.5,2.6,0,4.2,1.2,4.2,3.1s-1.5,3.2-3.9,3.2-4.3-1.4-4.5-4.9M234.4,192.5c1.7,0,2.7.5,3.1,1.5.1.4.5.6,1,.6h1.8c.5,0,.8-.3.8-.8-.3-2.9-2.9-4.8-6.7-4.8-5.5,0-8.3,3.5-8.3,10.4s2.6,9.8,8.1,9.8,7.7-2.7,7.7-6.8-2.8-6.4-7-6.4-3.7.6-5.1,1.6c.3-3.7,1.7-5.2,4.6-5.2M219.3,208.8c0,1.3.9,2.1,2.1,2.1s2.2-.8,2.2-2.1-.8-2.2-2.2-2.2-2.1.8-2.1,2.2M208,200.4c4,0,5.2.6,5.2,2.6s-1.4,2.7-4.2,2.7-4.2-.7-4.2-1.9-.3-.8-.8-.8h-2c-.5,0-.8.3-.8.8,0,3.4,3,5.4,7.8,5.4s7.8-2.2,7.8-5.9-1.5-4.4-3.8-5.1c1.7-.7,2.8-2.4,2.8-4.3,0-3.1-2.6-4.9-7-4.9s-7,2-7,5.4.3.8.8.8h2c.5,0,.8-.3.8-.8,0-1.3,1.1-1.9,3.4-1.9s3.4.7,3.4,2-1.2,2.4-4.2,2.4-.8.3-.8.8v1.9c0,.5.3.8.8.8"/>
  <path class="cls-5" d="M270.4,170.9c0,2.5-.6,4.5-2.2,6.9-.2.3,0,.5.3.5h1.2c.3,0,.5,0,.7-.3,1.5-2.1,2.2-4.4,2.2-7.1s-.7-5-2.2-7.1c-.2-.3-.3-.3-.7-.3h-1.2c-.3,0-.5.2-.3.5,1.5,2.4,2.2,4.5,2.2,6.9M258.2,167.2h5v.7c0,.3-.2.4-.5.4h-4c-.3,0-.5-.1-.5-.4v-.7ZM265.6,177.4c.3,0,.5-.2.5-.5v-1.1c0-.3-.3-.5-.6-.5-1.6.2-4,.3-6.3.3s-1.1-.3-1.1-1v-.8c0-.3-.2-.5-.5-.5h-1.2c-.3,0-.4.2-.5.5v1.1c0,1.8,1.1,2.8,3.1,2.8s4.8,0,6.7-.3M263.6,169.9c1.1,0,1.6-.5,1.7-1.5l.2-3.6c0-.3-.2-.5-.5-.5h-1.2c-.3,0-.5.1-.5.4v.6h-5.2v-.6c0-.3-.2-.4-.5-.4h-1.2c-.3,0-.5.2-.5.5l.2,3.6c0,1,.6,1.5,1.7,1.5h1.8v.5c0,.2.1.4.3.5-1.6,0-3.5,0-4.6-.1-.3,0-.5.1-.5.4v.9c0,.3.2.4.5.5,1.3.1,3.3.1,5.4.1s4.5,0,5.4-.1c.3,0,.5-.2.5-.5v-.9c0-.3-.2-.5-.5-.4-1.2,0-3,.1-3.8.1s-.5-.2-.5-.5v-.6h1.8ZM250.7,164.5v5.6c0,.3.2.5.5.5h1.2c.3,0,.5-.2.5-.5v-5.6c0-.3-.2-.5-.5-.5h-1.2c-.3,0-.5.2-.5.5M245.5,164.2c-2.1,0-3.5,1.2-3.5,3.2s1.4,3.2,3.5,3.2,3.5-1.2,3.5-3.2-1.4-3.2-3.5-3.2M247.9,175.2h4.6c1.1,0,.4-.2.4-.4v-.9c0-.2-.2-.3-.4-.3h-.4c.5-.2.9-.7.9-1.2s-.5-1.1-1.5-1.2c-2.3,0-5.4,0-7.7.2-.3,0-.4.1-.4.4v1c0,.2.2.4.4.4,1.8-.2,5.1-.3,6.5-.3s.5.1.5.3-.2.3-.6.3h-2.4c-3.3,0-4.7.5-4.7,2.1s1.3,2.1,5.6,2.1,3.2-.1,4.2-.3c.2,0,.4-.2.3-.4v-1c0-.2-.3-.4-.5-.3-1,.2-2.9.3-4.1.3-3,0-3.4,0-3.4-.4s.4-.4,2.6-.4M244.1,167.4c0-.8.5-1.3,1.4-1.3s1.4.5,1.4,1.3-.6,1.3-1.4,1.3-1.4-.5-1.4-1.3M238.3,170.9c0-2.5.7-4.5,2.2-6.9.2-.3,0-.5-.3-.5h-1.2c-.3,0-.5,0-.7.3-1.5,2.1-2.2,4.4-2.2,7.1s.7,5,2.2,7.1c.2.3.3.3.7.3h1.2c.3,0,.5-.2.3-.5-1.6-2.6-2.2-4.6-2.2-6.9M226.6,164.9c-.6,0-.9.3-.9.9v10.4c0,.3.2.5.5.5h1.2c.3,0,.5-.2.5-.5v-3.9h5.4c.3,0,.5-.2.5-.5v-1.1c0-.3-.2-.5-.5-.5h-5.4v-3.2h5.7c.3,0,.5-.2.5-.5v-1.1c0-.3-.2-.5-.5-.5h-7.1.1ZM223.1,164.9h-5.5c-.3,0-.5.2-.5.5v1.1c0,.3.2.5.5.5h1.7v7.6h-1.9c-.3,0-.5.2-.5.5v1.1c0,.3.2.5.5.5h6c.3,0,.5-.2.5-.5v-1.1c0-.3-.2-.5-.5-.5h-1.9v-7.6h1.7c.3,0,.5-.2.5-.5v-1.1c0-.3-.2-.5-.5-.5M211.7,164.9h-4.6c-.6,0-.9.3-.9.9v10.4c0,.3.2.5.5.5h1.2c.3,0,.5-.2.5-.5v-3.3h3.3c2.5,0,3.8-1.4,3.8-4s-1.3-4-3.8-4M211.6,170.9h-3.2v-3.8h3.2c1.2,0,1.8.7,1.8,1.9s-.6,1.9-1.8,1.9M202.5,174.2v1.8c0,.3.2.5.5.5h1.1c.3,0,.5-.2.5-.5v-4.6c0-.8-.4-1.2-1.2-1.2h-3.6c-.3,0-.5.2-.5.5v1.2c0,.3.2.5.5.5h2.2c-.2,1.6-1.2,2.6-2.9,2.6s-2.8-1.3-2.8-3.9.9-3.9,2.9-3.9,2.2.5,2.6,1.7c0,.3.3.4.6.3l1.2-.3c.3,0,.4-.2.3-.5-.5-2.1-2.1-3.3-4.7-3.3s-5.1,2.1-5.1,6.1,1.6,6.1,4.6,6.1,3.3-1.2,3.7-2.8"/>
  <path class="cls-10" d="M387.6,194.5c0-1.4.4-2.1,1.3-2.1s1.3.6,1.3,2.1-.4,2.1-1.3,2.1-1.3-.6-1.3-2.1M403.1,203.8c0,1.4-.4,2.1-1.3,2.1s-1.3-.6-1.3-2.1.4-2.1,1.3-2.1,1.3.6,1.3,2.1M406.2,203.8c0-3.6-1.6-5.5-4.5-5.5s-4.4,1.9-4.4,5.5,1.5,5.5,4.4,5.5,4.5-1.9,4.5-5.5M398.9,189.4l-11.1,19.3c-.2.4,0,.8.5.8h2.3c.5,0,.9-.2,1.1-.6l11.1-19.3c.2-.4,0-.8-.5-.8h-2.3c-.5,0-.9.2-1.1.6M384.5,194.5c0,3.6,1.5,5.5,4.4,5.5s4.5-1.9,4.5-5.5-1.5-5.5-4.5-5.5-4.4,1.9-4.4,5.5M369.8,199.1c0-4.5,1.4-6.6,4.3-6.6s4.3,2.1,4.3,6.6-1.4,6.6-4.3,6.6-4.3-2.1-4.3-6.6M366.3,199.1c0,6.8,2.7,10.1,7.9,10.1s7.8-3.3,7.8-10.1-2.7-10.1-7.8-10.1-7.9,3.3-7.9,10.1M359.5,208.8c0,1.3.9,2.1,2.1,2.1s2.1-.8,2.1-2.1-.8-2.2-2.1-2.2-2.1.8-2.1,2.2M350.9,208.3l6.3-15.1c.2-.4.3-.9.3-1.4v-1.1c0-1-.5-1.4-1.5-1.4h-11.6c-.5,0-.8.3-.8.8v1.9c0,.5.3.8.8.8h9.1l-6.4,15.3c-.2.5,0,.8.6.8h2.1c.6,0,.8-.2,1-.6"/>
  <path class="cls-5" d="M419.3,170.9c0,2.5-.6,4.5-2.2,6.9-.2.3,0,.5.3.5h1.2c.3,0,.5,0,.7-.3,1.5-2.1,2.2-4.4,2.2-7.1s-.7-5-2.2-7.1c-.2-.3-.3-.3-.7-.3h-1.2c-.3,0-.5.2-.3.5,1.5,2.4,2.2,4.5,2.2,6.9M414.1,177v-4.9c0-.5.4-.8.9-.8h.5c.3,0,.5-.2.5-.5v-1.2c0-.3-.2-.5-.5-.5h-.5c-.4,0-.8.2-.9.4v-5c0-.3-.2-.5-.5-.5h-1.2c-.3,0-.5.2-.5.5v12.4c0,.3.2.5.5.5h1.2c.3,0,.5-.2.5-.5M410,165.1c-.5,0-1.1-.1-2.1-.1-3,0-4.4,1.5-4.4,5.3s1.3,5.3,4.4,5.3,1.8-.2,2.7-.6c.4-.1.4-.3.4-.6l-.3-1.1c0-.3-.2-.4-.3-.4h-.2c-.8.3-1.7.5-2.2.5-1.6,0-2.2-.8-2.2-3.3s.6-3.3,2.2-3.3,1.5,0,2,.1c.3,0,.5-.1.5-.4v-1.1c0-.3-.1-.4-.5-.5M398.6,177c0,.3.2.5.5.5h1.2c.3,0,.5-.2.5-.5v-4.9c0-.5.4-.8.9-.8h.5c.3,0,.5-.2.5-.5v-1.2c0-.3-.2-.5-.5-.5h-.5c-.4,0-.8.2-.9.4v-5c0-.3-.2-.5-.5-.5h-1.2c-.3,0-.5.2-.5.5v12.4h0ZM390.6,165.4c-.2,2.3-.3,3.7-.3,6s1.3,4.2,4,4.2,1.8-.2,2.7-.6c.3-.1.5-.3.4-.6l-.3-1.1c0-.3-.2-.4-.3-.4h-.2c-.8.3-1.6.5-2.2.5-1.3,0-1.9-.6-1.9-2.2s.1-3.7.3-5.9c0-.3-.2-.5-.5-.5h-1.2c-.3,0-.5.1-.5.4M380.1,168.2v1.5c-1.3,0-2.5.1-3.3.2-.3,0-.5.2-.5.5v1.1c0,.3.2.5.5.5.9,0,2-.1,3.2-.2,0,1-.2,2.1-.4,3.2,0,.3.1.5.4.5h1.1c.3,0,.4-.1.5-.4.4-2.3.6-4.6.6-7s-.9-3-2.9-3-1.8,0-2.7.3c-.3,0-.5.2-.5.5v1.1c0,.3.2.5.5.5.8-.1,1.8-.3,2.5-.3s1,.3,1,1.2M386.3,164.5v4.6h-.6c-.3,0-.5.1-.6.3v-4.8c0-.3-.2-.5-.5-.5h-1.1c-.3,0-.5.2-.5.5v12.4c0,.3.2.5.5.5h1.1c.3,0,.5-.1.5-.5v-5.2c0-.3.3-.6.6-.6h.6v5.8c0,.3.2.5.5.5h1.1c.3,0,.5-.1.5-.5v-12.5c0-.3-.2-.5-.5-.5h-1.1c-.3,0-.5.2-.5.5M372.5,170.9c0-2.5.7-4.5,2.2-6.9.2-.3,0-.5-.3-.5h-1.2c-.3,0-.5,0-.7.3-1.5,2.1-2.2,4.4-2.2,7.1s.7,5,2.2,7.1c.2.3.3.3.7.3h1.2c.3,0,.5-.2.3-.5-1.6-2.6-2.2-4.6-2.2-6.9M367.2,164.9h-5.5c-.3,0-.5.2-.5.5v1.1c0,.3.2.5.5.5h1.7v7.6h-1.9c-.3,0-.5.2-.5.5v1.1c0,.3.2.5.5.5h6c.3,0,.5-.2.5-.5v-1.1c0-.3-.2-.5-.5-.5h-1.9v-7.6h1.7c.3,0,.5-.2.5-.5v-1.1c0-.3-.2-.5-.5-.5M355.8,164.9h-4.6c-.6,0-.9.3-.9.9v10.4c0,.3.2.5.5.5h1.2c.3,0,.5-.2.5-.5v-3.3h3.3c2.5,0,3.8-1.4,3.8-4s-1.3-4-3.8-4M355.7,170.9h-3.2v-3.8h3.2c1.2,0,1.8.7,1.8,1.9s-.6,1.9-1.8,1.9M345,164.9h-4.6c-.6,0-.9.3-.9.9v10.4c0,.3.2.5.5.5h1.2c.3,0,.5-.2.5-.5v-3.3h3.3c2.5,0,3.8-1.4,3.8-4s-1.3-4-3.8-4M344.9,170.9h-3.2v-3.8h3.2c1.2,0,1.8.7,1.8,1.9s-.6,1.9-1.8,1.9M333.5,174.8c-2,0-3-1.1-3-3.9s1-3.9,2.9-3.9,2.2.5,2.6,1.7c0,.3.3.4.6.3l1.2-.3c.3,0,.4-.2.3-.5-.4-2.1-2-3.3-4.7-3.3s-5.1,2-5.1,6.1,1.8,6.1,5.1,6.1,4.5-1.3,4.9-3.6c0-.3,0-.4-.3-.5l-1.2-.3c-.3,0-.5,0-.6.3-.4,1.3-1.3,1.9-2.7,1.9"/>
  <path class="cls-10" d="M530.1,194.5c0-1.4.4-2.1,1.3-2.1s1.3.6,1.3,2.1-.4,2.1-1.3,2.1-1.3-.6-1.3-2.1M545.6,203.8c0,1.4-.4,2.1-1.3,2.1s-1.3-.6-1.3-2.1.4-2.1,1.3-2.1,1.3.6,1.3,2.1M548.7,203.8c0-3.6-1.5-5.5-4.4-5.5s-4.4,1.9-4.4,5.5,1.5,5.4,4.4,5.4,4.4-1.9,4.4-5.4M541.4,189.4l-11.1,19.3c-.2.4,0,.8.5.8h2.3c.5,0,.9-.2,1.1-.6l11.1-19.3c.2-.4,0-.8-.5-.8h-2.3c-.5,0-.9.2-1.1.6M527,194.5c0,3.6,1.6,5.5,4.5,5.5s4.4-1.9,4.4-5.5-1.5-5.4-4.4-5.4-4.5,1.9-4.5,5.4M512.4,200.9c1-.9,2.7-1.5,4.3-1.5,2.6,0,4.2,1.2,4.2,3.1s-1.5,3.2-3.9,3.2-4.3-1.4-4.6-4.9M517,192.5c1.7,0,2.7.5,3.1,1.5,0,.4.5.6,1,.6h1.8c.5,0,.8-.3.8-.8-.3-2.9-2.9-4.8-6.7-4.8-5.5,0-8.3,3.5-8.3,10.4s2.6,9.8,8.1,9.8,7.7-2.7,7.7-6.8-2.8-6.4-7-6.4-3.7.6-5.1,1.6c.3-3.7,1.7-5.2,4.6-5.2M501.9,208.8c0,1.3.8,2.1,2.1,2.1s2.2-.8,2.2-2.1-.8-2.2-2.2-2.2-2.1.9-2.1,2.2M485.4,190.7l-.7,9.3c0,.4.2.7.8.7h2.1c.4,0,.6,0,.9-.3.8-.7,2.1-1.1,3.6-1.1,2.2,0,3.7,1.2,3.7,3.2s-1.2,3.2-3.9,3.2-3.5-.5-3.8-1.8c-.1-.5-.3-.7-.9-.7h-1.9c-.6,0-.9.3-.9.8,0,3.3,2.7,5.2,7.5,5.2s7.5-2.4,7.5-6.8-2.5-6.5-6.5-6.5-3.4.5-4.4,1.5l.3-4.6h8.2c.5,0,.8-.3.8-.8v-2c0-.5-.3-.8-.8-.8h-10c-1,0-1.7.5-1.7,1.4"/>
  <path class="cls-5" d="M568.4,170.9c0,2.5-.6,4.5-2.2,6.9-.2.3,0,.5.3.5h1.2c.3,0,.5,0,.7-.3,1.5-2.1,2.2-4.4,2.2-7.1s-.7-5-2.2-7.1c-.2-.3-.3-.3-.7-.3h-1.2c-.3,0-.5.2-.3.5,1.5,2.4,2.2,4.5,2.2,6.9M562,164.5v12.4c0,.3.2.5.5.5h1.2c.3,0,.5-.2.5-.5v-12.4c0-.3-.2-.5-.5-.5h-1.2c-.3,0-.5.2-.5.5M555.4,170.3c0-2.5.4-3.4,1.4-3.4s1.4.9,1.4,3.4-.4,3.4-1.4,3.4-1.4-1-1.4-3.4M556.8,164.8c-2.4,0-3.5,1.6-3.5,5.4s1.1,5.5,3.5,5.5,3.5-1.7,3.5-5.5-1.1-5.4-3.5-5.4M539.5,167.6c0,2.2,1.1,3.4,3.1,3.4s3.1-1.1,3.1-3.4-1.1-3.4-3.1-3.4-3.1,1.1-3.1,3.4M549.4,164.5v12.5c0,.3.2.5.5.5h1.1c.3,0,.5-.1.5-.5v-12.5c0-.3-.2-.5-.5-.5h-1.1c-.3,0-.5.2-.5.5M546.7,164.7v9.2c0,.5-.3.8-.8.8h-1.1c-.3,0-.5.2-.5.5v1.2c0,.3.2.5.5.5h1c.4,0,.7-.1.9-.4v.7c0,.3,0,.5.5.5h1.1c.3,0,.5-.1.5-.5v-12.4c0-.3,0-.5-.5-.5h-1.1c-.3,0-.5.1-.5.5M543.5,174.6c0-.4.2-.6.6-.6s1.2-.1,1.5-.2c.3,0,.5-.2.5-.5v-1.1c0-.3-.2-.5-.5-.4-.6.1-1.9.2-3.1.2s-2.2-.1-3-.2c-.3,0-.5.1-.5.4v1.1c0,.3.2.4.5.5.7.1,1.5.2,2.3.2-.3.1-.5.4-.5.8v1.9c0,.3.2.5.5.5h1.2c.3,0,.5-.2.5-.5v-2.1h0ZM541.5,167.6c0-.9.4-1.3,1.1-1.3s1.1.5,1.1,1.3-.4,1.3-1.1,1.3-1.1-.5-1.1-1.3M532.2,174.4c-2.1,0-4.1,0-5.4-.3-.3,0-.5.1-.5.4v1.1c0,.3,0,.4.5.5,1.3.2,3.3.3,5.4.3s4.5,0,5.4-.3c.3,0,.5-.2.5-.5v-1.1c0-.3-.2-.5-.5-.4-.9.2-3.1.3-5.4.3M532.2,169.5h4.4c1.1,0,.4-.2.4-.5v-1c0-.3-.2-.4-.4-.4h-.4c.6-.2.9-.8.9-1.5s-.5-1.4-1.5-1.5h-1.7c-1.9,0-3.8.1-5.6.3-.3,0-.4.2-.4.4v1.1c0,.3.2.5.4.4,1.8-.2,4.6-.3,6.1-.3s.5.1.5.4-.2.4-.6.4h-2.2c-3.3,0-4.5.5-4.5,2.5s1,2.5,5.4,2.5,3-.2,4.1-.3c.2,0,.4-.2.3-.5l-.2-1.1c0-.3-.2-.4-.5-.4-1,.2-2.6.3-3.8.3-3,0-3.2,0-3.2-.5s.2-.5,2.4-.5M513.5,176.1c1.3.2,3.3.3,5.4.3s4.5,0,5.4-.3c.3,0,.5-.2.5-.5v-1.1c0-.3-.2-.5-.5-.4-1,.1-2.5.2-3.3.2s-.9,0-.9-.6v-1.3c1.3,0,2.5-.2,3.6-.3.3,0,.5-.2.5-.5v-1.1c-.2-.3-.3-.5-.6-.4-1.5.2-3.4.3-5.1.3s-1.8-.5-1.8-1.6v-3.4c0-.3,0-.5-.4-.5h-1.2c-.3,0-.6.2-.6.5v3.7c0,2.3,1.2,3.3,3.6,3.4v1.1c0,.4.2.7.5.8-1.7,0-3.6-.2-4.8-.3-.3,0-.5.1-.5.4v1.1c0,.3.2.4.5.5M509.2,170.9c0-2.5.7-4.5,2.2-6.9.2-.3,0-.5-.3-.5h-1.2c-.3,0-.5,0-.7.3-1.5,2.1-2.2,4.4-2.2,7.1s.7,5,2.2,7.1c.2.3.3.3.7.3h1.2c.3,0,.5-.2.3-.5-1.6-2.6-2.2-4.6-2.2-6.9M502.9,174.2v1.8c0,.3.2.5.5.5h1.1c.3,0,.5-.2.5-.5v-4.6c0-.8-.4-1.2-1.2-1.2h-3.6c-.3,0-.5.2-.5.5v1.2c0,.3.2.5.5.5h2.2c-.2,1.6-1.2,2.6-2.9,2.6s-2.8-1.3-2.8-3.9.9-3.9,2.9-3.9,2.2.5,2.6,1.7c0,.3.3.4.6.3l1.2-.3c.3,0,.4-.2.3-.5-.5-2.1-2.1-3.3-4.7-3.3s-5.1,2.1-5.1,6.1,1.6,6.1,4.6,6.1,3.3-1.2,3.7-2.8M485.7,164.9c-.6,0-.9.3-.9.9v10.4c0,.3.2.5.5.5h1.2c.3,0,.5-.2.5-.5v-3.9h5.4c.3,0,.5-.2.5-.5v-1.1c0-.3-.2-.5-.5-.5h-5.4v-3.2h5.7c.3,0,.5-.2.5-.5v-1.1c0-.3-.2-.5-.5-.5h-7.1,0ZM479.5,164.9h-4.6c-.6,0-.9.3-.9.9v10.4c0,.3.2.5.5.5h1.2c.3,0,.5-.2.5-.5v-3.3h3.3c2.5,0,3.8-1.4,3.8-4s-1.3-4-3.8-4M479.4,170.9h-3.2v-3.8h3.2c1.2,0,1.8.7,1.8,1.9s-.6,1.9-1.8,1.9M470.3,174.2v1.8c0,.3.2.5.5.5h1.1c.3,0,.5-.2.5-.5v-4.6c0-.8-.4-1.2-1.2-1.2h-3.6c-.3,0-.5.2-.5.5v1.2c0,.3.2.5.5.5h2.2c-.2,1.6-1.2,2.6-2.9,2.6s-2.8-1.3-2.8-3.9.9-3.9,2.9-3.9,2.2.5,2.6,1.7c0,.3.3.4.6.3l1.2-.3c.3,0,.4-.2.3-.5-.4-2.1-2.1-3.3-4.7-3.3s-5.1,2.1-5.1,6.1,1.6,6.1,4.6,6.1,3.3-1.2,3.7-2.8"/>
  <path class="cls-10" d="M671.5,194.5c0-1.4.4-2.1,1.3-2.1s1.3.6,1.3,2.1-.4,2.1-1.3,2.1-1.3-.6-1.3-2.1M687,203.8c0,1.4-.4,2.1-1.3,2.1s-1.3-.6-1.3-2.1.4-2.1,1.3-2.1,1.3.6,1.3,2.1M690.1,203.8c0-3.6-1.6-5.5-4.4-5.5s-4.5,1.9-4.5,5.5,1.5,5.4,4.5,5.4,4.4-1.9,4.4-5.4M682.8,189.4l-11.1,19.3c-.2.4,0,.8.5.8h2.4c.5,0,.9-.2,1.1-.6l11.1-19.3c.2-.4,0-.8-.5-.8h-2.4c-.5,0-.9.2-1.1.6M668.3,194.5c0,3.6,1.6,5.5,4.4,5.5s4.5-1.9,4.5-5.5-1.5-5.4-4.5-5.4-4.4,1.9-4.4,5.4M657,200.4c4,0,5.2.6,5.2,2.6s-1.4,2.7-4.2,2.7-4.2-.7-4.2-1.9-.3-.8-.8-.8h-2c-.5,0-.8.3-.8.8,0,3.4,2.9,5.4,7.8,5.4s7.8-2.2,7.8-5.9-1.5-4.4-3.8-5c1.7-.7,2.8-2.4,2.8-4.3,0-3-2.6-4.9-7.1-4.9s-7,2-7,5.4.3.8.8.8h2c.5,0,.8-.3.8-.8,0-1.3,1.1-1.9,3.4-1.9s3.4.7,3.4,2-1.2,2.4-4.2,2.4-.8.3-.8.8v2c0,.5.3.8.8.8M643.5,208.8c0,1.3.8,2.1,2.1,2.1s2.2-.8,2.2-2.1-.8-2.2-2.2-2.2-2.1.9-2.1,2.2M627,190.7l-.7,9.3c0,.4.2.7.8.7h2.1c.4,0,.6,0,.9-.3.8-.7,2.1-1.1,3.6-1.1,2.2,0,3.7,1.2,3.7,3.2s-1.2,3.2-3.9,3.2-3.5-.5-3.8-1.8c0-.5-.3-.7-.9-.7h-1.9c-.6,0-.9.3-.9.8,0,3.3,2.7,5.2,7.5,5.2s7.5-2.4,7.5-6.8-2.5-6.5-6.5-6.5-3.4.5-4.4,1.5l.3-4.6h8.2c.5,0,.8-.3.8-.8v-2c0-.5-.3-.8-.8-.8h-10c-1,0-1.7.5-1.7,1.4"/>
  <path class="cls-5" d="M704.4,170.9c0,2.5-.6,4.5-2.2,6.9-.2.3,0,.5.3.5h1.2c.3,0,.5,0,.7-.3,1.5-2.1,2.2-4.4,2.2-7.1s-.7-5-2.2-7.1c-.2-.3-.3-.3-.7-.3h-1.2c-.3,0-.5.2-.3.5,1.5,2.4,2.2,4.5,2.2,6.9M694.7,174.4c-2.1,0-4.1,0-5.4-.3-.3,0-.5.1-.5.4v1.1c0,.3.2.4.5.5,1.3.2,3.3.3,5.4.3s4.5,0,5.4-.3c.3,0,.5-.2.5-.5v-1.1c0-.3-.2-.5-.5-.4-.9.2-3.1.3-5.4.3M698.6,165c-1.3-.1-2.4-.2-3.9-.2-3.6,0-5.1,1.2-5.1,3.8s1.5,3.8,4.9,3.8,2.2,0,4.3-.3c.3,0,.5-.2.5-.5v-1.1c0-.3-.3-.5-.5-.5-1.5.2-3.3.3-4.4.3-1.8,0-2.5-.5-2.5-1.8s.9-1.8,2.9-1.8,2.5,0,3.9.2c.3,0,.5-.2.5-.5v-1.1c0-.3,0-.4-.5-.5M680.2,177.7c2.5,0,4.2-.1,5.7-.3.3,0,.5-.2.5-.5v-1.1c0-.3-.2-.5-.5-.5-1.6.2-3.5.3-5.3.3s-1.7-.3-1.7-1.1v-1c0-.3-.2-.5-.5-.5h-1.2c-.3,0-.5.2-.5.5v1.3c0,1.8,1.3,2.8,3.6,2.8M685.9,172.9v-2.6c0-.5.4-.8.9-.8h.5c.3,0,.5-.2.5-.5v-1.1c0-.3-.2-.5-.5-.5h-.5c-.4,0-.8.2-.9.4v-3.4c0-.3-.2-.5-.5-.5h-1.2c-.3,0-.5.2-.5.5v8.4c0,.3.2.5.5.5h1.2c.3,0,.5-.2.5-.5M679.8,169h2c.8,0,.4-.1.4-.4v-.9c0-.3,0-.4-.4-.4h-.3c.5-.3.8-.8.8-1.3,0-1-.8-1.6-2.8-1.6s-2.2,0-3.3.2c-.3,0-.4.2-.4.5v1c0,.3.2.4.4.4,1-.1,1.8-.2,2.6-.2s1.3.1,1.3.4-.2.4-1.2.4c-2.5,0-3.6.8-3.6,2.5s1,2.4,3.6,2.4,2.4-.2,3.4-.6c.3-.1.4-.3.3-.6l-.2-.9c0-.2-.2-.3-.3-.3h-.2c-.8.3-1.7.5-2.6.5-1.5,0-1.8-.1-1.8-.6s.3-.6,2.2-.6M671.3,168v2.1c0,.3.2.5.5.5h1.2c.3,0,.5-.2.5-.5v-5.5c0-.3-.2-.5-.5-.5h-1.2c-.3,0-.5.2-.5.5v1.1c0,.5-.3.7-.8.7h-.6c-.3,0-.5.2-.5.5v1.1c0,.3.2.5.5.5h.5c.4,0,.7-.2.8-.4M662.6,167.5c0,2.2,1.3,3.1,4.2,3.1s1.8-.1,2.6-.4c.3-.1.4-.3.3-.6l-.2-1c0-.2-.2-.3-.3-.3h-.2c-.6.2-1.5.3-2.2.3-1.5,0-2.1-.3-2.1-1.2s.6-1.2,2.3-1.2,1.2,0,1.8.1c.3,0,.5-.1.5-.5v-1c0-.3,0-.4-.5-.5-.7,0-1.4-.1-2-.1-2.9,0-4.3.9-4.3,3.1M668.5,175.2h4.6c1.1,0,.4-.2.4-.4v-.9c0-.2-.2-.3-.4-.3h-.4c.5-.2.9-.7.9-1.2s-.5-1.1-1.5-1.2c-2.3,0-5.4,0-7.7.2-.3,0-.4.1-.4.4v1c0,.2.2.4.4.4,1.8-.2,5.1-.3,6.5-.3s.5.1.5.3-.2.3-.6.3h-2.4c-3.3,0-4.7.5-4.7,2.1s1.3,2.1,5.6,2.1,3.1-.1,4.2-.3c.2,0,.4-.2.3-.4v-1c0-.2-.3-.4-.5-.3-1,.2-2.9.3-4.1.3-3,0-3.4,0-3.4-.4s.4-.4,2.6-.4M658.7,164.5v12.5c0,.3.2.5.5.5h1.1c.3,0,.5-.1.5-.5v-12.5c0-.3-.2-.5-.5-.5h-1.1c-.3,0-.5.2-.5.5M655.9,170.1v7c0,.3.2.5.5.5h1.1c.3,0,.5-.1.5-.5v-12.4c0-.3-.2-.5-.5-.5h-1.1c-.3,0-.5.1-.5.5v3.1c0,.3-.2.4-.5.4h-1.8c-.3,0-.5.2-.5.5v1.2c0,.3.2.5.5.5h1.8c.2,0,.4,0,.5-.2M650.6,171.6c0-2.2,0-4,.3-6.2,0-.3,0-.5-.5-.5h-1.1c-.3,0-.4.1-.5.5-.2,2.3-.3,4-.3,6.3s1.1,3.9,3.5,3.9,1.6-.2,2.3-.6.4-.3.3-.6l-.3-1.1c0-.2-.2-.3-.3-.3h-.2c-.7.3-1.2.5-1.7.5-1.1,0-1.6-.5-1.6-1.9M644.9,170.9c0-2.5.7-4.5,2.2-6.9.2-.3,0-.5-.3-.5h-1.2c-.3,0-.5,0-.7.3-1.5,2.1-2.2,4.4-2.2,7.1s.7,5,2.2,7.1c.2.3.3.3.7.3h1.2c.3,0,.5-.2.3-.5-1.6-2.6-2.2-4.6-2.2-6.9M636.9,164.9h-4.6c-.6,0-.9.3-.9.9v10.4c0,.3.2.5.5.5h1.2c.3,0,.5-.2.5-.5v-3.3h3.3c2.5,0,3.8-1.4,3.8-4s-1.3-4-3.8-4M636.8,170.9h-3.2v-3.8h3.2c1.2,0,1.8.7,1.8,1.9s-.6,1.9-1.8,1.9M621,176.7h5c2.5,0,3.8-1.1,3.8-3.3s-.8-2.7-2-3c.8-.6,1.2-1.5,1.2-2.5,0-2-1.2-3-3.6-3h-4.5c-.6,0-.9.3-.9.9v10c0,.6.3.9.9.9M625.3,167c1,0,1.6.4,1.6,1.3s-.5,1.3-1.6,1.3h-2.9v-2.6h2.9ZM625.9,171.7c1.1,0,1.7.6,1.7,1.5s-.6,1.5-1.7,1.5h-3.5v-3h3.5ZM611.3,174.5h4.8l.6,1.8c0,.3.2.4.5.4h1.4c.3,0,.5-.2.4-.4l-3.6-10.8c0-.3-.3-.5-.6-.5h-2c-.3,0-.5.2-.6.5l-3.6,10.8c0,.3,0,.4.4.4h1.4c.3,0,.4-.2.5-.4l.6-1.8h-.2ZM612,172.4l1.7-5.2,1.7,5.2h-3.4Z"/>
  <g>
    <path class="cls-13" d="M128.1,109.2h0c0,.9,0,1.9-.1,2.8,0,1.3-.3,2.6-.5,3.9,0,.6-.2,1.1-.4,1.7-.2.7-.3,1.3-.5,1.9s-.4,1.2-.6,1.8h0c0,.3-.2.5-.3.8,0,.4-.3.7-.4,1.1-.2.6-.5,1.1-.7,1.6,0,0,0,.2,0,.3-.5,1.1-1.1,2.1-1.7,3.1,0,.2-.2.3-.3.5-1.2,1.9-2.5,3.6-4,5.2,0,.1-.2.2-.3.4-1.9,2-4.1,3.8-6.4,5.3,0,0-.2.2-.4.2-.6.4-1.1.7-1.7,1-1.3.7-2.6,1.3-3.9,1.9-1.2.5-2.4.9-3.7,1.3-1.2.3-2.4.6-3.6.8-2.1.4-4.2.6-6.4.6s-4.7-.2-7-.7c-1.2-.2-2.4-.5-3.6-.9-1.1-.3-2.1-.7-3.1-1.1-1.3-.5-2.6-1.2-3.9-1.9-.6-.3-1.1-.7-1.7-1,0,0-.2-.2-.4-.2-2.4-1.5-4.5-3.3-6.4-5.3l-.3-.3c-.7-.7-1.3-1.5-1.9-2.2-.8-1-1.5-2-2.2-3v-.2h0c-.7-1.1-1.4-2.3-1.9-3.5-.3-.6-.6-1.3-.9-1.9,0-.3-.3-.7-.4-1,0-.3-.2-.6-.3-.9h0c-.2-.6-.4-1.2-.6-1.8-.2-.6-.4-1.3-.5-1.9s-.2-1.1-.4-1.7c-.2-1.3-.4-2.6-.5-3.9,0-.9,0-1.8,0-2.8h0c0-2.3.2-4.5.6-6.7.2-.8.3-1.6.5-2.4h0c0-.4.2-.8.3-1.1.2-.6.4-1.2.6-1.7h0c.3-.9.7-1.8,1.1-2.7h0c0-.2.2-.4.3-.6,0,0,0-.3.2-.4h0c0,0,0-.3.2-.4,0-.2.3-.5.4-.7,0,0,0,0,0-.2.2-.4.4-.7.6-1.1.5-.9,1.1-1.8,1.7-2.7h0c.7-1.1,1.5-2.1,2.3-3,2.2-2.4,4.6-4.6,7.4-6.3.7-.4,1.4-.9,2.1-1.2,1.3-.7,2.6-1.3,3.9-1.9.8-.3,1.5-.6,2.3-.9h0c.2,0,.5,0,.7-.2,1.2-.4,2.4-.7,3.6-.9,2.1-.4,4.3-.6,6.5-.7h.9c1.1,0,2.1,0,3.1.2.9,0,1.9.2,2.8.4,1.2.2,2.4.5,3.6.8,1.3.4,2.5.8,3.7,1.3,1.3.5,2.6,1.2,3.9,1.9.6.3,1.1.7,1.7,1,0,0,.2.2.4.2,2.3,1.5,4.5,3.3,6.4,5.3l.6.6c.7.7,1.3,1.5,1.9,2.3.7.9,1.3,1.8,1.9,2.7,0,.2.2.3.3.5.6,1,1.2,2.1,1.7,3.1.3.6.6,1.3.9,1.9.2.5.4.9.5,1.4,0,.2,0,.3.2.5h0c.2.6.4,1.2.6,1.8.2.6.4,1.3.5,1.9s.2,1.1.4,1.7c.2,1.3.4,2.6.5,3.9,0,.9,0,1.8,0,2.8"/>
    <rect class="cls-5" x="64.4" y="96.8" width="12.6" height="1.8" transform="translate(-49.2 110) rotate(-60)"/>
    <rect class="cls-5" x="67" y="98.2" width="12.6" height="1.8" transform="translate(-49.1 113) rotate(-60)"/>
    <rect class="cls-5" x="69.7" y="99.7" width="12.6" height="1.8" transform="translate(-49.1 116.1) rotate(-60)"/>
    <rect class="cls-5" x="110.5" y="91.8" width="1.8" height="5.6" transform="translate(-32.4 68.4) rotate(-30)"/>
    <rect class="cls-5" x="114" y="97.8" width="1.8" height="5.6" transform="translate(-34.9 70.9) rotate(-30)"/>
    <rect class="cls-5" x="109.6" y="93" width="1.8" height="12.6" transform="translate(-34.8 68.5) rotate(-30)"/>
    <rect class="cls-5" x="105.3" y="94.8" width="1.8" height="5.6" transform="translate(-34.6 66.2) rotate(-30)"/>
    <rect class="cls-5" x="108.7" y="100.9" width="1.8" height="5.6" transform="translate(-37.2 68.7) rotate(-30)"/>
    <rect class="cls-5" x="103.3" y="120" width="5.6" height="1.8" transform="translate(-51.7 152.3) rotate(-60)"/>
    <rect class="cls-5" x="106.8" y="113.9" width="5.6" height="1.8" transform="translate(-44.6 152.3) rotate(-60)"/>
    <rect class="cls-5" x="106" y="121.5" width="5.6" height="1.8" transform="translate(-51.6 155.4) rotate(-60)"/>
    <rect class="cls-5" x="109.5" y="115.4" width="5.6" height="1.8" transform="translate(-44.6 155.4) rotate(-60)"/>
    <rect class="cls-5" x="108.6" y="123" width="5.6" height="1.8" transform="translate(-51.6 158.4) rotate(-60)"/>
    <rect class="cls-5" x="112.2" y="116.9" width="5.6" height="1.8" transform="translate(-44.6 158.5) rotate(-60)"/>
    <polygon class="cls-5" points="76.4 116.8 75.9 115.9 73.6 111.9 72.1 112.8 74.4 116.8 74.9 117.7 78.4 123.7 79.9 122.8 76.4 116.8"/>
    <rect class="cls-5" x="70.7" y="113.5" width="1.8" height="5.6" transform="translate(-48.6 51.4) rotate(-30)"/>
    <rect class="cls-5" x="74.2" y="119.7" width="1.8" height="5.6" transform="translate(-51.2 54) rotate(-30)"/>
    <polygon class="cls-5" points="71.2 119.8 70.6 118.9 68.4 115 66.8 115.9 69.1 119.8 69.6 120.7 73.1 126.8 74.7 125.9 71.2 119.8"/>
    <g>
      <path class="cls-4" d="M83.3,104.1c3.1-4.7,9.4-5.9,14.1-2.8s5.9,9.4,2.8,14.1l-16.9-11.3Z"/>
      <path class="cls-8" d="M83.3,104.1c-3.1,4.7-1.9,11,2.8,14.1s11,1.9,14.1-2.8.9-5.5-1.4-7.1-5.5-.9-7.1,1.4l-8.5-5.6Z"/>
      <circle class="cls-4" cx="87.5" cy="106.9" r="5.1"/>
    </g>
  </g>
</svg>