<svg width="120" height="59" viewBox="0 0 120 59" fill="none" xmlns="http://www.w3.org/2000/svg">
<g clip-path="url(#clip0_423_2668)">
<path d="M120 23.74H0V58.03H120V23.74Z" fill="#4CAFEA"/>
<path d="M120 0H0V23.74H120V0Z" fill="#251E1C"/>
<mask id="mask0_423_2668" style="mask-type:luminance" maskUnits="userSpaceOnUse" x="0" y="0" width="120" height="59">
<path d="M120 0H0V58.02H120V0Z" fill="white"/>
</mask>
<g mask="url(#mask0_423_2668)">
<path d="M43.4668 16.158L39.6508 9.23403V16.146C39.6508 16.35 39.5308 16.47 39.3388 16.47H38.5828C38.3908 16.47 38.2708 16.35 38.2708 16.146V7.72203C38.2708 7.36203 38.4628 7.15803 38.8228 7.15803H39.5908C39.8548 7.15803 40.0468 7.26603 40.1548 7.47003L43.9708 14.406V7.48203C43.9708 7.27803 44.0908 7.15803 44.2828 7.15803H45.0388C45.2308 7.15803 45.3508 7.27803 45.3508 7.48203V15.906C45.3508 16.266 45.1588 16.47 44.7988 16.47H44.0308C43.7668 16.47 43.5748 16.362 43.4668 16.158ZM50.7743 8.47803H48.1703V12.186H50.7743C51.9023 12.186 52.4903 11.538 52.4903 10.338C52.4903 9.12603 51.9023 8.47803 50.7743 8.47803ZM50.8463 13.506H48.1703V16.146C48.1703 16.35 48.0503 16.47 47.8583 16.47H47.1023C46.9103 16.47 46.7903 16.35 46.7903 16.146V7.72203C46.7903 7.36203 46.9823 7.15803 47.3423 7.15803H50.8463C52.7423 7.15803 53.8703 8.23803 53.8703 10.326C53.8703 12.414 52.7423 13.506 50.8463 13.506ZM58.5675 16.59C56.2155 16.59 54.9435 15.654 54.9435 13.914C54.9435 13.71 55.0635 13.59 55.2555 13.59H56.0115C56.2035 13.59 56.3235 13.71 56.3235 13.914C56.3235 14.826 57.0675 15.27 58.6155 15.27C60.0675 15.27 60.7995 14.898 60.7995 14.154C60.7995 13.494 60.2595 13.11 58.3275 12.402C55.8435 11.49 55.0755 10.818 55.0755 9.54603C55.0755 7.89003 56.2275 7.03803 58.4475 7.03803C60.6675 7.03803 61.8195 7.95003 61.8195 9.70203C61.8195 9.90603 61.6995 10.026 61.5075 10.026H60.7515C60.5595 10.026 60.4395 9.90603 60.4395 9.70203C60.4395 8.80203 59.7675 8.35803 58.3995 8.35803C57.1395 8.35803 56.4555 8.71803 56.4555 9.37803C56.4555 9.99003 56.9475 10.434 58.8315 11.106C61.3035 11.982 62.1795 12.69 62.1795 14.082C62.1795 15.774 61.0035 16.59 58.5675 16.59Z" fill="#251E1C"/>
<path d="M69.6607 16.9701C70.2807 17.3701 70.8807 17.5701 71.5307 17.5701C73.4107 17.5701 75.0007 15.9501 75.0007 13.9801C75.0007 12.7101 74.3407 11.7401 73.0007 11.0301C72.3207 10.6601 71.5307 10.5201 70.8407 10.1701C70.5507 10.0101 70.3607 9.71005 70.3607 9.31005C70.3607 8.83005 70.7607 8.43005 71.3007 8.43005C71.8407 8.43005 72.2407 8.83005 72.3707 9.59005H74.6507V6.46005H72.6307V6.77005C72.1107 6.37005 71.5607 6.18005 70.9207 6.18005C68.9907 6.18005 67.5307 7.65005 67.5307 9.54005C67.5307 10.9101 68.3207 11.9301 69.9107 12.6101C70.5907 12.9001 71.2407 13.0601 71.7507 13.3701C72.0407 13.5601 72.2307 13.8801 72.2307 14.2301C72.2307 14.8001 71.7707 15.2501 71.1507 15.2501C70.4807 15.2501 70.1607 14.7701 70.0507 13.7401H67.5507V17.3301H69.6807V16.9801L69.6607 16.9701ZM61.0507 11.4501V8.86005H61.7607C62.9507 8.86005 63.5207 9.20005 63.5207 10.1301C63.5207 11.1201 62.8707 11.4601 61.5407 11.4601H61.0507V11.4501ZM61.0307 15.0901V13.8201H61.8007C63.2007 13.8201 64.2207 13.6801 65.0207 12.9401C65.8407 12.1901 66.2407 11.2301 66.2407 10.0701C66.2407 8.70005 65.7307 7.66005 64.7607 6.98005C64.0207 6.46005 63.1407 6.38005 61.9807 6.38005H57.2607V8.63005H58.3207V15.0801H57.2607V17.3501H62.0307V15.0801H61.0307V15.0901ZM48.7307 15.0901V11.2501L52.8207 17.3601H55.1807V8.64005H56.1707V6.39005H51.4207V8.64005H52.5007V12.4801L48.4507 6.39005H44.9707V8.64005H46.0307V15.0901H44.9707V17.3601H49.7407V15.0901H48.7407H48.7307Z" fill="white"/>
<path d="M84.6902 48C85.5902 48.59 86.4702 48.88 87.4202 48.88C90.1702 48.88 92.4902 46.51 92.4902 43.63C92.4902 41.78 91.5202 40.36 89.5602 39.32C88.5702 38.78 87.4202 38.57 86.4002 38.06C85.9702 37.83 85.7002 37.38 85.7002 36.8C85.7002 36.1 86.2902 35.52 87.0802 35.52C87.8702 35.52 88.4602 36.11 88.6402 37.21H91.9802V32.63H89.0302V33.08C88.2602 32.49 87.4702 32.22 86.5302 32.22C83.7102 32.22 81.5702 34.36 81.5702 37.14C81.5702 39.15 82.7202 40.64 85.0402 41.63C86.0302 42.06 86.9802 42.28 87.7202 42.73C88.1502 43 88.4202 43.48 88.4202 43.99C88.4202 44.83 87.7402 45.48 86.8402 45.48C85.8702 45.48 85.4002 44.78 85.2402 43.27H81.5902V48.52H84.7002V48H84.6902ZM66.8802 48.56L69.3602 38.59L71.8202 48.56H75.4302L78.8602 35.82H80.1002V32.53H73.6302V35.82H74.9802L73.3802 42.61L71.1002 32.53H67.6302L65.3302 42.36L63.7502 35.82H65.0802V32.53H58.6102V35.82H59.8502L63.2802 48.56H66.8902H66.8802ZM53.6402 45.27H50.9602V42.22H54.5002V38.66H50.9602V35.82H53.6402V37.67H57.1602V32.53H45.4602V35.82H47.0202V45.27H45.4602V48.56H57.1602V43.4H53.6402V45.27ZM32.9902 45.25V39.64L38.9702 48.57H42.4202V35.83H43.8602V32.54H36.9202V35.83H38.5002V41.44L32.5902 32.53H27.4902V35.82H29.0502V45.25H27.4902V48.57H34.4602V45.25H32.9902Z" fill="white"/>
</g>
</g>
<defs>
<clipPath id="clip0_423_2668">
<rect width="120" height="58.02" fill="white"/>
</clipPath>
</defs>
</svg>
