<svg width="742" height="271" viewBox="0 0 742 271" fill="none" xmlns="http://www.w3.org/2000/svg">
<path d="M36.1573 17.85V6.21005L33.2973 7.77005C33.1973 7.83005 33.0773 7.85005 32.9973 7.85005C32.7573 7.85005 32.5773 7.65005 32.5773 7.35005V5.51005C32.5773 5.11005 32.7373 4.93005 33.0973 4.73005L36.0973 3.03005C36.4773 2.81005 36.8573 2.75005 37.2573 2.75005H38.3973C38.8173 2.75005 39.0573 2.99005 39.0573 3.41005V17.85C39.0573 18.27 38.8173 18.51 38.3973 18.51H36.8173C36.3973 18.51 36.1573 18.27 36.1573 17.85ZM47.0641 11.63C46.6641 11.63 46.4441 11.41 46.4441 11.01V9.45005C46.4441 9.05005 46.6641 8.83005 47.0641 8.83005C49.5041 8.83005 50.4441 8.31005 50.4441 6.93005C50.4441 5.91005 49.4441 5.33005 47.7041 5.33005C45.8441 5.33005 44.9641 5.83005 44.9641 6.87005C44.9641 7.29005 44.7241 7.53005 44.3041 7.53005H42.7241C42.3041 7.53005 42.0641 7.29005 42.0641 6.87005C42.0641 4.11005 44.1041 2.53005 47.7041 2.53005C51.2441 2.53005 53.3441 3.99005 53.3441 6.43005C53.3441 7.99005 52.4641 9.31005 51.1241 9.89005C52.9241 10.37 54.1441 11.91 54.1441 13.93C54.1441 16.85 51.7641 18.65 47.9041 18.65C44.0241 18.65 41.6641 17.01 41.6641 14.31C41.6641 13.89 41.9041 13.65 42.3241 13.65H43.9041C44.3241 13.65 44.5641 13.89 44.5641 14.31C44.5641 15.31 45.7441 15.85 47.9041 15.85C50.1241 15.85 51.2441 15.13 51.2441 13.73C51.2441 12.13 50.2641 11.63 47.0641 11.63ZM56.1367 18.35C56.1367 17.31 56.8167 16.63 57.8367 16.63C58.8767 16.63 59.5567 17.31 59.5567 18.35C59.5567 19.37 58.8767 20.05 57.8367 20.05C56.8167 20.05 56.1367 19.37 56.1367 18.35ZM61.6864 12.37L68.3864 3.43005C68.7064 2.99005 69.1664 2.73005 69.7064 2.73005H71.1864C71.9464 2.73005 72.3264 3.13005 72.3264 3.89005V12.51H73.8264C74.2264 12.51 74.4464 12.73 74.4464 13.13V14.69C74.4464 15.09 74.2264 15.31 73.8264 15.31H72.3264V17.79C72.3264 18.21 72.0864 18.45 71.6664 18.45H70.0864C69.6664 18.45 69.4264 18.21 69.4264 17.79V15.31H62.5464C61.7664 15.31 61.3664 14.93 61.3664 14.17V13.29C61.3664 12.99 61.4464 12.69 61.6864 12.37ZM64.9064 12.57H69.4264V6.55005L64.9064 12.57ZM76.6238 3.87005C76.6638 3.15005 77.1838 2.73005 78.0038 2.73005H85.9838C86.3838 2.73005 86.6037 2.95005 86.6037 3.35005V4.91005C86.6037 5.31005 86.3838 5.53005 85.9838 5.53005H79.3838L79.1038 9.19005C79.9038 8.45005 81.1838 8.01005 82.6038 8.01005C85.8438 8.01005 87.8238 9.99005 87.8238 13.21C87.8238 16.71 85.6838 18.65 81.8238 18.65C78.0238 18.65 75.8438 17.13 75.8438 14.49C75.8438 14.09 76.1038 13.85 76.5438 13.85H78.0438C78.4638 13.85 78.6438 14.01 78.7438 14.43C79.0038 15.49 79.8438 15.89 81.8238 15.89C83.9238 15.89 84.9238 15.05 84.9238 13.29C84.9238 11.73 83.7838 10.75 82.0038 10.75C80.7838 10.75 79.8038 11.05 79.1238 11.61C78.8838 11.81 78.7238 11.87 78.4038 11.87H76.7038C76.3038 11.87 76.0838 11.69 76.1038 11.35L76.6238 3.87005ZM89.8281 6.87005C89.8281 4.01005 91.0481 2.51005 93.3881 2.51005C95.7281 2.51005 96.9481 4.01005 96.9481 6.87005C96.9481 9.75005 95.7281 11.27 93.3881 11.27C91.0681 11.27 89.8281 9.75005 89.8281 6.87005ZM101.388 2.81005C101.568 2.49005 101.868 2.33005 102.288 2.33005H104.168C104.568 2.33005 104.768 2.61005 104.568 2.95005L95.6681 18.37C95.4881 18.69 95.1881 18.85 94.7681 18.85H92.8881C92.4881 18.85 92.2881 18.57 92.4881 18.23L101.388 2.81005ZM107.228 14.31C107.228 17.17 106.008 18.67 103.668 18.67C101.328 18.67 100.108 17.17 100.108 14.31C100.108 11.43 101.328 9.91005 103.668 9.91005C105.988 9.91005 107.228 11.43 107.228 14.31ZM104.728 14.31C104.728 13.13 104.408 12.63 103.668 12.63C102.928 12.63 102.608 13.13 102.608 14.31C102.608 15.47 102.928 15.97 103.668 15.97C104.388 15.97 104.728 15.45 104.728 14.31ZM92.3281 6.87005C92.3281 8.05005 92.6481 8.55005 93.3881 8.55005C94.1281 8.55005 94.4481 8.05005 94.4481 6.87005C94.4481 5.71005 94.1281 5.21005 93.3881 5.21005C92.6681 5.21005 92.3281 5.73005 92.3281 6.87005Z" fill="#D38799"/>
<path d="M52.5 51.5501C52.5 41.8851 60.335 34.05 70 34.05C79.665 34.05 87.5 41.8851 87.5 51.55V237.05H52.5V51.5501Z" fill="#D38799"/>
<path d="M55.7335 253.914V267.29C55.7335 267.562 55.6055 267.69 55.3335 267.69H54.3735C54.1015 267.69 53.9735 267.562 53.9735 267.29V260.874H53.0135C52.6455 260.874 52.5335 260.986 52.5335 261.306V267.29C52.5335 267.562 52.4055 267.69 52.1335 267.69H51.1735C50.9015 267.69 50.7735 267.562 50.7735 267.29V254.074C50.7735 253.802 50.9015 253.674 51.1735 253.674H52.1335C52.4055 253.674 52.5335 253.802 52.5335 254.074V259.402C52.6455 259.226 52.8535 259.114 53.0775 259.114H53.9735V253.914C53.9735 253.642 54.1015 253.514 54.3735 253.514H55.3335C55.6055 253.514 55.7335 253.642 55.7335 253.914ZM49.2055 261.562C49.2055 264.106 48.1335 265.514 46.1815 265.514C44.2455 265.514 43.1735 264.106 43.1735 261.562C43.1735 259.034 44.2455 257.626 46.1815 257.626C48.1335 257.626 49.2055 259.018 49.2055 261.562ZM47.4135 254.842H49.2855C49.5575 254.842 49.6855 254.97 49.6855 255.242V256.202C49.6855 256.474 49.5575 256.602 49.2855 256.602H43.0935C42.8215 256.602 42.6935 256.474 42.6935 256.202V255.242C42.6935 254.97 42.8215 254.842 43.0935 254.842H45.5575C45.4135 254.762 45.3175 254.618 45.3175 254.41V253.53C45.3175 253.258 45.4455 253.13 45.7175 253.13H46.6775C46.9495 253.13 47.0775 253.258 47.0775 253.53V254.554C47.0775 254.762 47.1735 254.842 47.4135 254.842ZM46.1815 259.386C45.3335 259.386 44.9335 260.09 44.9335 261.562C44.9335 263.018 45.3495 263.754 46.1815 263.754C47.0295 263.754 47.4455 263.034 47.4455 261.562C47.4455 260.106 47.0295 259.386 46.1815 259.386ZM58.1341 258.346C58.1341 255.706 59.5261 254.042 61.7341 254.042C63.9421 254.042 65.3341 255.706 65.3341 258.346C65.3341 260.618 64.2941 262.17 62.6141 262.57V264.506C62.6141 264.858 62.7901 265.002 63.1741 265.002C64.2301 265.002 65.1421 264.922 65.7501 264.81C66.0221 264.762 66.1661 264.89 66.1661 265.162V266.074C66.1661 266.346 66.0541 266.458 65.7661 266.506C64.6941 266.666 63.1741 266.73 61.6701 266.73C60.1181 266.73 58.9181 266.65 57.8461 266.49C57.5581 266.442 57.4461 266.33 57.4461 266.074V265.13C57.4461 264.858 57.6061 264.746 57.8781 264.794C58.7101 264.922 60.0061 265.018 61.1741 265.05C60.9341 264.938 60.7741 264.682 60.7741 264.362V262.554C59.1421 262.122 58.1341 260.57 58.1341 258.346ZM68.9821 267.258C68.9821 267.53 68.8221 267.69 68.5661 267.69H67.5581C67.3021 267.69 67.1421 267.53 67.1421 267.258V253.946C67.1421 253.674 67.3021 253.514 67.5581 253.514H68.5661C68.8221 253.514 68.9821 253.674 68.9821 253.946V267.258ZM61.7341 260.954C62.8221 260.954 63.4941 259.898 63.4941 258.346C63.4941 256.794 62.8221 255.754 61.7341 255.754C60.6461 255.754 59.9741 256.794 59.9741 258.346C59.9741 259.898 60.6461 260.954 61.7341 260.954ZM81.6874 253.882C81.9594 253.882 82.0874 254.01 82.0874 254.282V255.242C82.0874 255.514 81.9594 255.642 81.6874 255.642H78.3114C78.3434 257.466 79.7994 258.794 81.9274 258.794C82.2154 258.794 82.3274 258.906 82.3274 259.162V260.154C82.3274 260.554 82.0714 260.554 81.7514 260.554C79.8634 260.554 78.0714 259.514 77.3994 257.978C76.7114 259.514 74.9194 260.554 73.0314 260.554C72.7114 260.554 72.4554 260.554 72.4554 260.154V259.162C72.4554 258.906 72.5674 258.794 72.8554 258.794C74.9834 258.794 76.4394 257.466 76.4714 255.642H73.0954C72.8234 255.642 72.6954 255.514 72.6954 255.242V254.282C72.6954 254.01 72.8234 253.882 73.0954 253.882H81.6874ZM78.8074 263.786C78.4234 263.786 78.2474 263.93 78.2474 264.282V266.698C78.2474 266.97 78.0874 267.13 77.8314 267.13H76.8234C76.5674 267.13 76.4074 266.97 76.4074 266.698V264.49C76.4074 264.17 76.5674 263.898 76.8234 263.802C75.0474 263.786 72.8554 263.674 71.6874 263.53C71.3994 263.498 71.2874 263.338 71.2874 263.082V262.202C71.2874 261.93 71.4474 261.802 71.7194 261.834C73.2394 262.01 75.0794 262.106 77.3034 262.106C79.5914 262.106 81.6874 262.01 82.9354 261.85C83.2074 261.818 83.3674 261.946 83.3674 262.218V263.098C83.3674 263.37 83.2554 263.498 82.9674 263.546C81.8794 263.69 80.1834 263.786 78.8074 263.786ZM96.0573 267.354C96.0253 267.626 95.8653 267.77 95.5933 267.77H94.6333C94.3613 267.77 94.1853 267.594 94.2173 267.338C94.2812 266.794 94.2973 265.914 94.2973 265.29C94.2973 264.266 93.9613 263.962 92.8253 263.962C90.5373 263.962 88.6013 264.058 86.6332 264.234C86.3613 264.266 86.2333 264.122 86.2333 263.85V262.97C86.2333 262.714 86.3453 262.586 86.6332 262.554C88.3293 262.378 90.4573 262.282 93.0173 262.282C95.2253 262.282 96.1373 263.018 96.1373 264.826C96.1373 265.898 96.1213 266.794 96.0573 267.354ZM89.6093 254.314V256.218C89.6093 257.994 90.6333 259.354 92.0413 259.354C92.3133 259.354 92.4413 259.482 92.4413 259.754V260.634C92.4413 260.906 92.3133 261.034 92.0413 261.034C90.3773 261.034 89.1293 259.93 88.6973 258.666C88.2493 259.93 87.0173 261.034 85.3372 261.034C85.0653 261.034 84.9373 260.906 84.9373 260.634V259.754C84.9373 259.482 85.0653 259.354 85.3372 259.354C86.7453 259.354 87.7693 257.994 87.7693 256.218V254.314C87.7693 254.042 87.9293 253.882 88.1853 253.882H89.1933C89.4493 253.882 89.6093 254.042 89.6093 254.314ZM94.3453 253.946C94.3453 253.674 94.5053 253.514 94.7613 253.514H95.7693C96.0253 253.514 96.1853 253.674 96.1853 253.946V260.698C96.1853 260.97 96.0253 261.13 95.7693 261.13H94.7613C94.5053 261.13 94.3453 260.97 94.3453 260.698V253.946Z" fill="black"/>
<path d="M185.147 123.87C185.187 123.15 185.707 122.73 186.527 122.73H194.507C194.907 122.73 195.127 122.95 195.127 123.35V124.91C195.127 125.31 194.907 125.53 194.507 125.53H187.907L187.627 129.19C188.427 128.45 189.707 128.01 191.127 128.01C194.367 128.01 196.347 129.99 196.347 133.21C196.347 136.71 194.207 138.65 190.347 138.65C186.547 138.65 184.367 137.13 184.367 134.49C184.367 134.09 184.627 133.85 185.067 133.85H186.567C186.987 133.85 187.167 134.01 187.267 134.43C187.527 135.49 188.367 135.89 190.347 135.89C192.447 135.89 193.447 135.05 193.447 133.29C193.447 131.73 192.307 130.75 190.527 130.75C189.307 130.75 188.327 131.05 187.647 131.61C187.407 131.81 187.247 131.87 186.927 131.87H185.227C184.827 131.87 184.607 131.69 184.627 131.35L185.147 123.87ZM198.352 138.35C198.352 137.31 199.032 136.63 200.052 136.63C201.092 136.63 201.772 137.31 201.772 138.35C201.772 139.37 201.092 140.05 200.052 140.05C199.032 140.05 198.352 139.37 198.352 138.35ZM204.561 123.87C204.601 123.15 205.121 122.73 205.941 122.73H213.921C214.321 122.73 214.541 122.95 214.541 123.35V124.91C214.541 125.31 214.321 125.53 213.921 125.53H207.321L207.041 129.19C207.841 128.45 209.121 128.01 210.541 128.01C213.781 128.01 215.761 129.99 215.761 133.21C215.761 136.71 213.621 138.65 209.761 138.65C205.961 138.65 203.781 137.13 203.781 134.49C203.781 134.09 204.041 133.85 204.481 133.85H205.981C206.401 133.85 206.581 134.01 206.681 134.43C206.941 135.49 207.781 135.89 209.761 135.89C211.861 135.89 212.861 135.05 212.861 133.29C212.861 131.73 211.721 130.75 209.941 130.75C208.721 130.75 207.741 131.05 207.061 131.61C206.821 131.81 206.661 131.87 206.341 131.87H204.641C204.241 131.87 204.021 131.69 204.041 131.35L204.561 123.87ZM223.166 131.63C222.766 131.63 222.546 131.41 222.546 131.01V129.45C222.546 129.05 222.766 128.83 223.166 128.83C225.606 128.83 226.546 128.31 226.546 126.93C226.546 125.91 225.546 125.33 223.806 125.33C221.946 125.33 221.066 125.83 221.066 126.87C221.066 127.29 220.826 127.53 220.406 127.53H218.826C218.406 127.53 218.166 127.29 218.166 126.87C218.166 124.11 220.206 122.53 223.806 122.53C227.346 122.53 229.446 123.99 229.446 126.43C229.446 127.99 228.566 129.31 227.226 129.89C229.026 130.37 230.246 131.91 230.246 133.93C230.246 136.85 227.866 138.65 224.006 138.65C220.126 138.65 217.766 137.01 217.766 134.31C217.766 133.89 218.006 133.65 218.426 133.65H220.006C220.426 133.65 220.666 133.89 220.666 134.31C220.666 135.31 221.846 135.85 224.006 135.85C226.226 135.85 227.346 135.13 227.346 133.73C227.346 132.13 226.366 131.63 223.166 131.63ZM232.238 126.87C232.238 124.01 233.458 122.51 235.798 122.51C238.138 122.51 239.358 124.01 239.358 126.87C239.358 129.75 238.138 131.27 235.798 131.27C233.478 131.27 232.238 129.75 232.238 126.87ZM243.798 122.81C243.978 122.49 244.278 122.33 244.698 122.33H246.578C246.978 122.33 247.178 122.61 246.978 122.95L238.078 138.37C237.898 138.69 237.598 138.85 237.178 138.85H235.298C234.898 138.85 234.698 138.57 234.898 138.23L243.798 122.81ZM249.638 134.31C249.638 137.17 248.418 138.67 246.078 138.67C243.738 138.67 242.518 137.17 242.518 134.31C242.518 131.43 243.738 129.91 246.078 129.91C248.398 129.91 249.638 131.43 249.638 134.31ZM247.138 134.31C247.138 133.13 246.818 132.63 246.078 132.63C245.338 132.63 245.018 133.13 245.018 134.31C245.018 135.47 245.338 135.97 246.078 135.97C246.798 135.97 247.138 135.45 247.138 134.31ZM234.738 126.87C234.738 128.05 235.058 128.55 235.798 128.55C236.538 128.55 236.858 128.05 236.858 126.87C236.858 125.71 236.538 125.21 235.798 125.21C235.078 125.21 234.738 125.73 234.738 126.87Z" fill="#9DAEF0"/>
<path d="M199.5 171.55C199.5 161.885 207.335 154.05 217 154.05C226.665 154.05 234.5 161.885 234.5 171.55V237.05H199.5V171.55Z" fill="#9DAEF0"/>
<path d="M199.117 257.194C199.117 256.042 198.573 255.546 197.325 255.546C195.277 255.546 193.757 255.626 191.773 255.834C191.517 255.866 191.373 255.738 191.373 255.45V254.554C191.373 254.298 191.485 254.17 191.773 254.138C193.501 253.962 195.469 253.866 197.517 253.866C199.821 253.866 200.957 254.81 200.957 256.73C200.957 257.69 200.845 258.602 200.669 259.29C201.069 259.274 201.405 259.242 201.693 259.21C201.965 259.178 202.125 259.322 202.125 259.594V260.458C202.125 260.73 202.013 260.858 201.725 260.89C200.557 261.002 198.653 261.034 197.405 261.034C197.133 261.034 197.005 261.178 197.005 261.434V262.506C197.373 262.506 197.741 262.506 198.141 262.506C200.397 262.506 201.197 263.162 201.197 265.034C201.197 266.09 201.165 266.858 201.101 267.354C201.069 267.626 200.909 267.77 200.637 267.77H199.693C199.421 267.77 199.245 267.594 199.277 267.338C199.341 266.874 199.357 266.09 199.357 265.498C199.357 264.474 198.973 264.186 198.013 264.186C195.917 264.186 193.741 264.282 191.533 264.474C191.261 264.49 191.133 264.362 191.133 264.09V263.21C191.133 262.954 191.245 262.826 191.533 262.794C192.797 262.682 193.917 262.602 195.165 262.554V261.434C195.165 261.258 195.229 261.114 195.357 261.034C193.757 261.018 191.661 260.97 190.445 260.874C190.173 260.858 190.045 260.714 190.045 260.442V259.578C190.045 259.306 190.205 259.178 190.477 259.194C191.485 259.274 193.133 259.338 196.061 259.354C196.989 259.354 197.901 259.354 198.749 259.354C198.749 259.322 198.765 259.306 198.765 259.274C198.989 258.554 199.117 257.738 199.117 257.194ZM216.335 253.914V267.29C216.335 267.562 216.207 267.69 215.935 267.69H214.975C214.703 267.69 214.575 267.562 214.575 267.29V260.874H213.615C213.247 260.874 213.135 260.986 213.135 261.306V267.29C213.135 267.562 213.007 267.69 212.735 267.69H211.775C211.503 267.69 211.375 267.562 211.375 267.29V254.074C211.375 253.802 211.503 253.674 211.775 253.674H212.735C213.007 253.674 213.135 253.802 213.135 254.074V259.402C213.247 259.226 213.455 259.114 213.679 259.114H214.575V253.914C214.575 253.642 214.703 253.514 214.975 253.514H215.935C216.207 253.514 216.335 253.642 216.335 253.914ZM209.855 265.13C208.927 265.514 208.191 265.69 207.439 265.69C204.991 265.69 203.775 264.362 203.775 261.642C203.775 259.13 203.903 256.602 204.127 254.874C204.159 254.618 204.319 254.522 204.591 254.522H205.519C205.823 254.522 205.935 254.682 205.903 254.954C205.663 256.762 205.535 259.034 205.535 261.802C205.535 263.354 206.047 263.914 207.471 263.914C208.127 263.914 208.783 263.738 209.471 263.402C209.519 263.386 209.567 263.37 209.615 263.37C209.743 263.37 209.839 263.482 209.919 263.706L210.191 264.618C210.255 264.842 210.159 265.002 209.855 265.13ZM229.008 253.882C229.28 253.882 229.408 254.01 229.408 254.282V255.242C229.408 255.514 229.28 255.642 229.008 255.642H225.632C225.664 257.466 227.12 258.794 229.248 258.794C229.536 258.794 229.648 258.906 229.648 259.162V260.154C229.648 260.554 229.392 260.554 229.072 260.554C227.184 260.554 225.392 259.514 224.72 257.978C224.032 259.514 222.24 260.554 220.352 260.554C220.032 260.554 219.776 260.554 219.776 260.154V259.162C219.776 258.906 219.888 258.794 220.176 258.794C222.304 258.794 223.76 257.466 223.792 255.642H220.416C220.144 255.642 220.016 255.514 220.016 255.242V254.282C220.016 254.01 220.144 253.882 220.416 253.882H229.008ZM226.128 263.786C225.744 263.786 225.568 263.93 225.568 264.282V266.698C225.568 266.97 225.408 267.13 225.152 267.13H224.144C223.888 267.13 223.728 266.97 223.728 266.698V264.49C223.728 264.17 223.888 263.898 224.144 263.802C222.368 263.786 220.176 263.674 219.008 263.53C218.72 263.498 218.608 263.338 218.608 263.082V262.202C218.608 261.93 218.768 261.802 219.04 261.834C220.56 262.01 222.4 262.106 224.624 262.106C226.912 262.106 229.008 262.01 230.256 261.85C230.528 261.818 230.688 261.946 230.688 262.218V263.098C230.688 263.37 230.576 263.498 230.288 263.546C229.2 263.69 227.504 263.786 226.128 263.786ZM243.378 267.354C243.346 267.626 243.186 267.77 242.914 267.77H241.954C241.682 267.77 241.506 267.594 241.538 267.338C241.602 266.794 241.618 265.914 241.618 265.29C241.618 264.266 241.282 263.962 240.146 263.962C237.858 263.962 235.922 264.058 233.954 264.234C233.682 264.266 233.554 264.122 233.554 263.85V262.97C233.554 262.714 233.666 262.586 233.954 262.554C235.65 262.378 237.778 262.282 240.338 262.282C242.546 262.282 243.458 263.018 243.458 264.826C243.458 265.898 243.442 266.794 243.378 267.354ZM236.93 254.314V256.218C236.93 257.994 237.954 259.354 239.362 259.354C239.634 259.354 239.762 259.482 239.762 259.754V260.634C239.762 260.906 239.634 261.034 239.362 261.034C237.698 261.034 236.45 259.93 236.018 258.666C235.57 259.93 234.338 261.034 232.658 261.034C232.386 261.034 232.258 260.906 232.258 260.634V259.754C232.258 259.482 232.386 259.354 232.658 259.354C234.066 259.354 235.09 257.994 235.09 256.218V254.314C235.09 254.042 235.25 253.882 235.506 253.882H236.514C236.77 253.882 236.93 254.042 236.93 254.314ZM241.666 253.946C241.666 253.674 241.826 253.514 242.082 253.514H243.09C243.346 253.514 243.506 253.674 243.506 253.946V260.698C243.506 260.97 243.346 261.13 243.09 261.13H242.082C241.826 261.13 241.666 260.97 241.666 260.698V253.946Z" fill="black"/>
<path d="M331.048 147.37L337.748 138.43C338.068 137.99 338.528 137.73 339.068 137.73H340.548C341.308 137.73 341.688 138.13 341.688 138.89V147.51H343.188C343.588 147.51 343.808 147.73 343.808 148.13V149.69C343.808 150.09 343.588 150.31 343.188 150.31H341.688V152.79C341.688 153.21 341.448 153.45 341.028 153.45H339.448C339.028 153.45 338.788 153.21 338.788 152.79V150.31H331.908C331.128 150.31 330.728 149.93 330.728 149.17V148.29C330.728 147.99 330.808 147.69 331.048 147.37ZM334.268 147.57H338.788V141.55L334.268 147.57ZM345.205 153.35C345.205 152.31 345.885 151.63 346.905 151.63C347.945 151.63 348.625 152.31 348.625 153.35C348.625 154.37 347.945 155.05 346.905 155.05C345.885 155.05 345.205 154.37 345.205 153.35ZM350.755 147.37L357.455 138.43C357.775 137.99 358.235 137.73 358.775 137.73H360.255C361.015 137.73 361.395 138.13 361.395 138.89V147.51H362.895C363.295 147.51 363.515 147.73 363.515 148.13V149.69C363.515 150.09 363.295 150.31 362.895 150.31H361.395V152.79C361.395 153.21 361.155 153.45 360.735 153.45H359.155C358.735 153.45 358.495 153.21 358.495 152.79V150.31H351.615C350.835 150.31 350.435 149.93 350.435 149.17V148.29C350.435 147.99 350.515 147.69 350.755 147.37ZM353.975 147.57H358.495V141.55L353.975 147.57ZM371.292 146.73C368.852 146.73 367.672 147.41 367.672 148.81C367.672 150.23 368.892 150.95 371.292 150.95C373.692 150.95 374.912 150.23 374.912 148.81C374.912 147.41 373.732 146.73 371.292 146.73ZM371.292 140.27C369.352 140.27 368.252 140.95 368.252 142.17C368.252 143.35 369.352 144.03 371.292 144.03C373.232 144.03 374.332 143.35 374.332 142.17C374.332 140.95 373.232 140.27 371.292 140.27ZM371.292 153.67C367.092 153.67 364.812 152.03 364.812 149.01C364.812 147.17 365.932 145.67 367.592 145.17C366.272 144.67 365.392 143.33 365.392 141.63C365.392 139.17 367.732 137.55 371.292 137.55C374.852 137.55 377.192 139.17 377.192 141.63C377.192 143.33 376.312 144.67 374.992 145.17C376.652 145.67 377.772 147.17 377.772 149.01C377.772 152.03 375.492 153.67 371.292 153.67ZM379.678 141.87C379.678 139.01 380.898 137.51 383.238 137.51C385.578 137.51 386.798 139.01 386.798 141.87C386.798 144.75 385.578 146.27 383.238 146.27C380.918 146.27 379.678 144.75 379.678 141.87ZM391.238 137.81C391.418 137.49 391.718 137.33 392.138 137.33H394.018C394.418 137.33 394.618 137.61 394.418 137.95L385.518 153.37C385.338 153.69 385.038 153.85 384.618 153.85H382.738C382.338 153.85 382.138 153.57 382.338 153.23L391.238 137.81ZM397.078 149.31C397.078 152.17 395.858 153.67 393.518 153.67C391.178 153.67 389.958 152.17 389.958 149.31C389.958 146.43 391.178 144.91 393.518 144.91C395.838 144.91 397.078 146.43 397.078 149.31ZM394.578 149.31C394.578 148.13 394.258 147.63 393.518 147.63C392.778 147.63 392.458 148.13 392.458 149.31C392.458 150.47 392.778 150.97 393.518 150.97C394.238 150.97 394.578 150.45 394.578 149.31ZM382.178 141.87C382.178 143.05 382.498 143.55 383.238 143.55C383.978 143.55 384.298 143.05 384.298 141.87C384.298 140.71 383.978 140.21 383.238 140.21C382.518 140.21 382.178 140.73 382.178 141.87Z" fill="#6CC3F7"/>
<path d="M346.5 186.55C346.5 176.885 354.335 169.05 364 169.05C373.665 169.05 381.5 176.885 381.5 186.55V237.05H346.5V186.55Z" fill="#6CC3F7"/>
<path d="M349.374 253.914V267.29C349.374 267.562 349.246 267.69 348.974 267.69H348.014C347.742 267.69 347.614 267.562 347.614 267.29V260.874H346.654C346.286 260.874 346.174 260.986 346.174 261.306V267.29C346.174 267.562 346.046 267.69 345.774 267.69H344.814C344.542 267.69 344.414 267.562 344.414 267.29V254.074C344.414 253.802 344.542 253.674 344.814 253.674H345.774C346.046 253.674 346.174 253.802 346.174 254.074V259.402C346.286 259.226 346.494 259.114 346.718 259.114H347.614V253.914C347.614 253.642 347.742 253.514 348.014 253.514H348.974C349.246 253.514 349.374 253.642 349.374 253.914ZM342.846 261.562C342.846 264.106 341.774 265.514 339.822 265.514C337.886 265.514 336.814 264.106 336.814 261.562C336.814 259.034 337.886 257.626 339.822 257.626C341.774 257.626 342.846 259.018 342.846 261.562ZM341.054 254.842H342.926C343.198 254.842 343.326 254.97 343.326 255.242V256.202C343.326 256.474 343.198 256.602 342.926 256.602H336.734C336.462 256.602 336.334 256.474 336.334 256.202V255.242C336.334 254.97 336.462 254.842 336.734 254.842H339.198C339.054 254.762 338.958 254.618 338.958 254.41V253.53C338.958 253.258 339.086 253.13 339.358 253.13H340.318C340.59 253.13 340.718 253.258 340.718 253.53V254.554C340.718 254.762 340.814 254.842 341.054 254.842ZM339.822 259.386C338.974 259.386 338.574 260.09 338.574 261.562C338.574 263.018 338.99 263.754 339.822 263.754C340.67 263.754 341.086 263.034 341.086 261.562C341.086 260.106 340.67 259.386 339.822 259.386ZM351.775 258.346C351.775 255.706 353.167 254.042 355.375 254.042C357.583 254.042 358.975 255.706 358.975 258.346C358.975 260.618 357.935 262.17 356.255 262.57V264.506C356.255 264.858 356.431 265.002 356.815 265.002C357.871 265.002 358.783 264.922 359.391 264.81C359.663 264.762 359.807 264.89 359.807 265.162V266.074C359.807 266.346 359.695 266.458 359.407 266.506C358.335 266.666 356.815 266.73 355.311 266.73C353.759 266.73 352.559 266.65 351.487 266.49C351.199 266.442 351.087 266.33 351.087 266.074V265.13C351.087 264.858 351.247 264.746 351.519 264.794C352.351 264.922 353.647 265.018 354.815 265.05C354.575 264.938 354.415 264.682 354.415 264.362V262.554C352.783 262.122 351.775 260.57 351.775 258.346ZM362.623 267.258C362.623 267.53 362.463 267.69 362.207 267.69H361.199C360.943 267.69 360.783 267.53 360.783 267.258V253.946C360.783 253.674 360.943 253.514 361.199 253.514H362.207C362.463 253.514 362.623 253.674 362.623 253.946V267.258ZM355.375 260.954C356.463 260.954 357.135 259.898 357.135 258.346C357.135 256.794 356.463 255.754 355.375 255.754C354.287 255.754 353.615 256.794 353.615 258.346C353.615 259.898 354.287 260.954 355.375 260.954ZM377.296 253.914V267.29C377.296 267.562 377.168 267.69 376.896 267.69H375.936C375.664 267.69 375.536 267.562 375.536 267.29V260.874H374.576C374.208 260.874 374.096 260.986 374.096 261.306V267.29C374.096 267.562 373.968 267.69 373.696 267.69H372.736C372.464 267.69 372.336 267.562 372.336 267.29V254.074C372.336 253.802 372.464 253.674 372.736 253.674H373.696C373.968 253.674 374.096 253.802 374.096 254.074V259.402C374.208 259.226 374.416 259.114 374.64 259.114H375.536V253.914C375.536 253.642 375.664 253.514 375.936 253.514H376.896C377.168 253.514 377.296 253.642 377.296 253.914ZM368.752 253.53V254.554C368.752 254.762 368.848 254.842 369.088 254.842H370.752C371.024 254.842 371.152 254.97 371.152 255.242V256.202C371.152 256.474 371.024 256.602 370.752 256.602H368.736V260.538C368.736 262.474 369.6 263.594 370.832 263.754C371.104 263.786 371.232 263.882 371.232 264.154V265.114C371.232 265.402 371.104 265.546 370.832 265.514C369.44 265.338 368.304 264.49 367.856 263.13C367.408 264.49 366.288 265.338 364.896 265.514C364.624 265.546 364.496 265.402 364.496 265.114V264.154C364.496 263.882 364.624 263.786 364.896 263.754C366.128 263.594 366.976 262.474 366.976 260.538V256.602H364.976C364.704 256.602 364.576 256.474 364.576 256.202V255.242C364.576 254.97 364.704 254.842 364.976 254.842H367.232C367.088 254.762 366.992 254.618 366.992 254.41V253.53C366.992 253.258 367.12 253.13 367.392 253.13H368.352C368.624 253.13 368.752 253.258 368.752 253.53ZM383.649 255.626C382.353 255.626 381.281 255.722 380.257 255.914C380.001 255.962 379.857 255.818 379.857 255.53V254.554C379.857 254.314 379.953 254.202 380.257 254.138C381.073 253.962 382.353 253.866 383.841 253.866C385.905 253.866 386.881 254.842 386.881 256.666C386.881 257.386 386.769 258.602 386.561 259.482C386.897 259.466 387.217 259.45 387.473 259.434C387.745 259.418 387.889 259.514 387.889 259.786V260.698C387.889 260.97 387.777 261.114 387.489 261.13C386.881 261.178 385.889 261.21 384.785 261.21C384.497 261.21 384.337 261.338 384.337 261.594V263.578C384.337 263.85 384.177 264.01 383.921 264.01H382.913C382.657 264.01 382.497 263.85 382.497 263.578V261.674C382.497 261.45 382.593 261.306 382.753 261.242C381.537 261.21 379.969 261.178 379.249 261.114C378.961 261.098 378.849 260.954 378.849 260.698V259.754C378.849 259.482 379.009 259.402 379.281 259.418C380.321 259.498 381.681 259.546 383.233 259.546C383.697 259.546 384.193 259.546 384.673 259.53C384.673 259.498 384.673 259.466 384.689 259.418C384.913 258.65 385.041 257.53 385.041 256.97C385.041 256.17 384.561 255.626 383.649 255.626ZM388.705 253.946C388.705 253.674 388.865 253.514 389.121 253.514H390.129C390.385 253.514 390.545 253.674 390.545 253.946V264.538C390.545 264.81 390.385 264.97 390.129 264.97H389.121C388.865 264.97 388.705 264.81 388.705 264.538V263.994C388.593 264.202 388.369 264.314 388.049 264.314H386.065C385.793 264.314 385.665 264.186 385.665 263.914V263.066C385.665 262.794 385.793 262.666 386.065 262.666H388.145C388.529 262.666 388.705 262.506 388.705 262.154V253.946ZM380.225 263.338C380.273 263.066 380.433 262.922 380.705 262.922H381.681C381.953 262.922 382.113 263.098 382.065 263.354C382.001 263.69 381.953 264.394 381.953 264.954C381.953 265.834 382.433 266.25 383.473 266.25C386.465 266.25 388.609 266.154 390.497 265.978C390.753 265.946 390.897 266.074 390.913 266.362L390.977 267.242C390.993 267.482 390.865 267.61 390.593 267.642C389.009 267.802 386.321 267.93 383.521 267.93C381.345 267.93 380.113 266.874 380.113 265.034C380.113 264.394 380.161 263.658 380.225 263.338Z" fill="black"/>
<path d="M484.235 213.53H474.955C474.535 213.53 474.295 213.29 474.295 212.87V211.39C474.295 210.97 474.535 210.73 474.955 210.73H484.235C484.655 210.73 484.895 210.97 484.895 211.39V212.87C484.895 213.29 484.655 213.53 484.235 213.53ZM486.893 212.59C486.893 207.17 489.053 204.53 493.173 204.53C497.293 204.53 499.453 207.17 499.453 212.59C499.453 218.01 497.293 220.65 493.173 220.65C489.053 220.65 486.893 218.01 486.893 212.59ZM489.753 212.59C489.753 216.19 490.873 217.89 493.173 217.89C495.473 217.89 496.593 216.19 496.593 212.59C496.593 208.99 495.473 207.29 493.173 207.29C490.873 207.29 489.753 208.99 489.753 212.59ZM501.443 220.35C501.443 219.31 502.123 218.63 503.143 218.63C504.183 218.63 504.863 219.31 504.863 220.35C504.863 221.37 504.183 222.05 503.143 222.05C502.123 222.05 501.443 221.37 501.443 220.35ZM506.873 212.59C506.873 207.17 509.033 204.53 513.153 204.53C517.273 204.53 519.433 207.17 519.433 212.59C519.433 218.01 517.273 220.65 513.153 220.65C509.033 220.65 506.873 218.01 506.873 212.59ZM509.733 212.59C509.733 216.19 510.853 217.89 513.153 217.89C515.453 217.89 516.573 216.19 516.573 212.59C516.573 208.99 515.453 207.29 513.153 207.29C510.853 207.29 509.733 208.99 509.733 212.59ZM524.804 219.85V208.21L521.944 209.77C521.844 209.83 521.724 209.85 521.644 209.85C521.404 209.85 521.224 209.65 521.224 209.35V207.51C521.224 207.11 521.384 206.93 521.744 206.73L524.744 205.03C525.124 204.81 525.504 204.75 525.904 204.75H527.044C527.464 204.75 527.704 204.99 527.704 205.41V219.85C527.704 220.27 527.464 220.51 527.044 220.51H525.464C525.044 220.51 524.804 220.27 524.804 219.85ZM530.311 208.87C530.311 206.01 531.531 204.51 533.871 204.51C536.211 204.51 537.431 206.01 537.431 208.87C537.431 211.75 536.211 213.27 533.871 213.27C531.551 213.27 530.311 211.75 530.311 208.87ZM541.871 204.81C542.051 204.49 542.351 204.33 542.771 204.33H544.651C545.051 204.33 545.251 204.61 545.051 204.95L536.151 220.37C535.971 220.69 535.671 220.85 535.251 220.85H533.371C532.971 220.85 532.771 220.57 532.971 220.23L541.871 204.81ZM547.711 216.31C547.711 219.17 546.491 220.67 544.151 220.67C541.811 220.67 540.591 219.17 540.591 216.31C540.591 213.43 541.811 211.91 544.151 211.91C546.471 211.91 547.711 213.43 547.711 216.31ZM545.211 216.31C545.211 215.13 544.891 214.63 544.151 214.63C543.411 214.63 543.091 215.13 543.091 216.31C543.091 217.47 543.411 217.97 544.151 217.97C544.871 217.97 545.211 217.45 545.211 216.31ZM532.811 208.87C532.811 210.05 533.131 210.55 533.871 210.55C534.611 210.55 534.931 210.05 534.931 208.87C534.931 207.71 534.611 207.21 533.871 207.21C533.151 207.21 532.811 207.73 532.811 208.87Z" fill="#694439"/>
<path d="M493.5 236.05H528.5V237.05H493.5V236.05Z" fill="#D38799"/>
<path d="M492.758 257.194C492.758 256.042 492.214 255.546 490.966 255.546C488.918 255.546 487.398 255.626 485.414 255.834C485.158 255.866 485.014 255.738 485.014 255.45V254.554C485.014 254.298 485.126 254.17 485.414 254.138C487.142 253.962 489.11 253.866 491.158 253.866C493.462 253.866 494.598 254.81 494.598 256.73C494.598 257.69 494.486 258.602 494.31 259.29C494.71 259.274 495.046 259.242 495.334 259.21C495.606 259.178 495.766 259.322 495.766 259.594V260.458C495.766 260.73 495.654 260.858 495.366 260.89C494.198 261.002 492.294 261.034 491.046 261.034C490.774 261.034 490.646 261.178 490.646 261.434V262.506C491.014 262.506 491.382 262.506 491.782 262.506C494.038 262.506 494.838 263.162 494.838 265.034C494.838 266.09 494.806 266.858 494.742 267.354C494.71 267.626 494.55 267.77 494.278 267.77H493.334C493.062 267.77 492.886 267.594 492.918 267.338C492.982 266.874 492.998 266.09 492.998 265.498C492.998 264.474 492.614 264.186 491.654 264.186C489.558 264.186 487.382 264.282 485.174 264.474C484.902 264.49 484.774 264.362 484.774 264.09V263.21C484.774 262.954 484.886 262.826 485.174 262.794C486.438 262.682 487.558 262.602 488.806 262.554V261.434C488.806 261.258 488.87 261.114 488.998 261.034C487.398 261.018 485.302 260.97 484.086 260.874C483.814 260.858 483.686 260.714 483.686 260.442V259.578C483.686 259.306 483.846 259.178 484.118 259.194C485.126 259.274 486.774 259.338 489.702 259.354C490.63 259.354 491.542 259.354 492.39 259.354C492.39 259.322 492.406 259.306 492.406 259.274C492.63 258.554 492.758 257.738 492.758 257.194ZM509.976 253.914V267.29C509.976 267.562 509.848 267.69 509.576 267.69H508.616C508.344 267.69 508.216 267.562 508.216 267.29V260.874H507.256C506.888 260.874 506.776 260.986 506.776 261.306V267.29C506.776 267.562 506.648 267.69 506.376 267.69H505.416C505.144 267.69 505.016 267.562 505.016 267.29V254.074C505.016 253.802 505.144 253.674 505.416 253.674H506.376C506.648 253.674 506.776 253.802 506.776 254.074V259.402C506.888 259.226 507.096 259.114 507.32 259.114H508.216V253.914C508.216 253.642 508.344 253.514 508.616 253.514H509.576C509.848 253.514 509.976 253.642 509.976 253.914ZM503.496 265.13C502.568 265.514 501.832 265.69 501.08 265.69C498.632 265.69 497.416 264.362 497.416 261.642C497.416 259.13 497.544 256.602 497.768 254.874C497.8 254.618 497.96 254.522 498.232 254.522H499.16C499.464 254.522 499.576 254.682 499.544 254.954C499.304 256.762 499.176 259.034 499.176 261.802C499.176 263.354 499.688 263.914 501.112 263.914C501.768 263.914 502.424 263.738 503.112 263.402C503.16 263.386 503.208 263.37 503.256 263.37C503.384 263.37 503.48 263.482 503.56 263.706L503.832 264.618C503.896 264.842 503.8 265.002 503.496 265.13ZM524.616 253.914V267.29C524.616 267.562 524.488 267.69 524.216 267.69H523.256C522.984 267.69 522.856 267.562 522.856 267.29V260.874H521.896C521.528 260.874 521.416 260.986 521.416 261.306V267.29C521.416 267.562 521.288 267.69 521.016 267.69H520.056C519.784 267.69 519.656 267.562 519.656 267.29V254.074C519.656 253.802 519.784 253.674 520.056 253.674H521.016C521.288 253.674 521.416 253.802 521.416 254.074V259.402C521.528 259.226 521.736 259.114 521.96 259.114H522.856V253.914C522.856 253.642 522.984 253.514 523.256 253.514H524.216C524.488 253.514 524.616 253.642 524.616 253.914ZM516.072 253.53V254.554C516.072 254.762 516.168 254.842 516.408 254.842H518.072C518.344 254.842 518.472 254.97 518.472 255.242V256.202C518.472 256.474 518.344 256.602 518.072 256.602H516.056V260.538C516.056 262.474 516.92 263.594 518.152 263.754C518.424 263.786 518.552 263.882 518.552 264.154V265.114C518.552 265.402 518.424 265.546 518.152 265.514C516.76 265.338 515.624 264.49 515.176 263.13C514.728 264.49 513.608 265.338 512.216 265.514C511.944 265.546 511.816 265.402 511.816 265.114V264.154C511.816 263.882 511.944 263.786 512.216 263.754C513.448 263.594 514.296 262.474 514.296 260.538V256.602H512.296C512.024 256.602 511.896 256.474 511.896 256.202V255.242C511.896 254.97 512.024 254.842 512.296 254.842H514.552C514.408 254.762 514.312 254.618 514.312 254.41V253.53C514.312 253.258 514.44 253.13 514.712 253.13H515.672C515.944 253.13 516.072 253.258 516.072 253.53ZM530.969 255.626C529.673 255.626 528.601 255.722 527.577 255.914C527.321 255.962 527.177 255.818 527.177 255.53V254.554C527.177 254.314 527.273 254.202 527.577 254.138C528.393 253.962 529.673 253.866 531.161 253.866C533.225 253.866 534.201 254.842 534.201 256.666C534.201 257.386 534.089 258.602 533.881 259.482C534.217 259.466 534.537 259.45 534.793 259.434C535.065 259.418 535.209 259.514 535.209 259.786V260.698C535.209 260.97 535.097 261.114 534.809 261.13C534.201 261.178 533.209 261.21 532.105 261.21C531.817 261.21 531.657 261.338 531.657 261.594V263.578C531.657 263.85 531.497 264.01 531.241 264.01H530.233C529.977 264.01 529.817 263.85 529.817 263.578V261.674C529.817 261.45 529.913 261.306 530.073 261.242C528.857 261.21 527.289 261.178 526.569 261.114C526.281 261.098 526.169 260.954 526.169 260.698V259.754C526.169 259.482 526.329 259.402 526.601 259.418C527.641 259.498 529.001 259.546 530.553 259.546C531.017 259.546 531.513 259.546 531.993 259.53C531.993 259.498 531.993 259.466 532.009 259.418C532.233 258.65 532.361 257.53 532.361 256.97C532.361 256.17 531.881 255.626 530.969 255.626ZM536.025 253.946C536.025 253.674 536.185 253.514 536.441 253.514H537.449C537.705 253.514 537.865 253.674 537.865 253.946V264.538C537.865 264.81 537.705 264.97 537.449 264.97H536.441C536.185 264.97 536.025 264.81 536.025 264.538V263.994C535.913 264.202 535.689 264.314 535.369 264.314H533.385C533.113 264.314 532.985 264.186 532.985 263.914V263.066C532.985 262.794 533.113 262.666 533.385 262.666H535.465C535.849 262.666 536.025 262.506 536.025 262.154V253.946ZM527.545 263.338C527.593 263.066 527.753 262.922 528.025 262.922H529.001C529.273 262.922 529.433 263.098 529.385 263.354C529.321 263.69 529.273 264.394 529.273 264.954C529.273 265.834 529.753 266.25 530.793 266.25C533.785 266.25 535.929 266.154 537.817 265.978C538.073 265.946 538.217 266.074 538.233 266.362L538.297 267.242C538.313 267.482 538.185 267.61 537.913 267.642C536.329 267.802 533.641 267.93 530.841 267.93C528.665 267.93 527.433 266.874 527.433 265.034C527.433 264.394 527.481 263.658 527.545 263.338Z" fill="black"/>
<path d="M630.683 153.37L637.383 144.43C637.703 143.99 638.163 143.73 638.703 143.73H640.183C640.943 143.73 641.322 144.13 641.322 144.89V153.51H642.823C643.223 153.51 643.443 153.73 643.443 154.13V155.69C643.443 156.09 643.223 156.31 642.823 156.31H641.322V158.79C641.322 159.21 641.083 159.45 640.663 159.45H639.083C638.663 159.45 638.423 159.21 638.423 158.79V156.31H631.543C630.763 156.31 630.363 155.93 630.363 155.17V154.29C630.363 153.99 630.443 153.69 630.683 153.37ZM633.903 153.57H638.423V147.55L633.903 153.57ZM644.84 159.35C644.84 158.31 645.52 157.63 646.54 157.63C647.58 157.63 648.26 158.31 648.26 159.35C648.26 160.37 647.58 161.05 646.54 161.05C645.52 161.05 644.84 160.37 644.84 159.35ZM653.65 158.85V147.21L650.79 148.77C650.69 148.83 650.57 148.85 650.49 148.85C650.25 148.85 650.07 148.65 650.07 148.35V146.51C650.07 146.11 650.23 145.93 650.59 145.73L653.59 144.03C653.97 143.81 654.35 143.75 654.75 143.75H655.89C656.31 143.75 656.55 143.99 656.55 144.41V158.85C656.55 159.27 656.31 159.51 655.89 159.51H654.31C653.89 159.51 653.65 159.27 653.65 158.85ZM662.536 158.85V147.21L659.676 148.77C659.576 148.83 659.456 148.85 659.376 148.85C659.136 148.85 658.956 148.65 658.956 148.35V146.51C658.956 146.11 659.116 145.93 659.476 145.73L662.476 144.03C662.856 143.81 663.236 143.75 663.636 143.75H664.776C665.196 143.75 665.436 143.99 665.436 144.41V158.85C665.436 159.27 665.196 159.51 664.776 159.51H663.196C662.776 159.51 662.536 159.27 662.536 158.85ZM668.043 147.87C668.043 145.01 669.263 143.51 671.603 143.51C673.943 143.51 675.163 145.01 675.163 147.87C675.163 150.75 673.943 152.27 671.603 152.27C669.283 152.27 668.043 150.75 668.043 147.87ZM679.603 143.81C679.783 143.49 680.083 143.33 680.503 143.33H682.383C682.783 143.33 682.983 143.61 682.783 143.95L673.883 159.37C673.703 159.69 673.403 159.85 672.983 159.85H671.103C670.703 159.85 670.503 159.57 670.703 159.23L679.603 143.81ZM685.443 155.31C685.443 158.17 684.223 159.67 681.883 159.67C679.543 159.67 678.323 158.17 678.323 155.31C678.323 152.43 679.543 150.91 681.883 150.91C684.203 150.91 685.443 152.43 685.443 155.31ZM682.943 155.31C682.943 154.13 682.623 153.63 681.883 153.63C681.143 153.63 680.823 154.13 680.823 155.31C680.823 156.47 681.143 156.97 681.883 156.97C682.603 156.97 682.943 156.45 682.943 155.31ZM670.543 147.87C670.543 149.05 670.863 149.55 671.603 149.55C672.343 149.55 672.663 149.05 672.663 147.87C672.663 146.71 672.343 146.21 671.603 146.21C670.883 146.21 670.543 146.73 670.543 147.87Z" fill="#9F9F9F"/>
<path d="M640.5 192.55C640.5 182.885 648.335 175.05 658 175.05C667.665 175.05 675.5 182.885 675.5 192.55V237.05H640.5V192.55Z" fill="#9F9F9F"/>
<path d="M642.734 253.914V267.29C642.734 267.562 642.606 267.69 642.334 267.69H641.374C641.102 267.69 640.974 267.562 640.974 267.29V260.874H640.014C639.646 260.874 639.534 260.986 639.534 261.306V267.29C639.534 267.562 639.406 267.69 639.134 267.69H638.174C637.902 267.69 637.774 267.562 637.774 267.29V254.074C637.774 253.802 637.902 253.674 638.174 253.674H639.134C639.406 253.674 639.534 253.802 639.534 254.074V259.402C639.646 259.226 639.854 259.114 640.078 259.114H640.974V253.914C640.974 253.642 641.102 253.514 641.374 253.514H642.334C642.606 253.514 642.734 253.642 642.734 253.914ZM631.854 260.106C631.854 262.65 632.622 263.914 634.141 263.914C634.75 263.914 635.358 263.786 636.046 263.498C636.11 263.466 636.174 263.466 636.222 263.466C636.382 263.466 636.494 263.562 636.526 263.738L636.734 264.698C636.782 264.954 636.702 265.082 636.43 265.194C635.678 265.498 634.878 265.674 634.03 265.674C631.438 265.674 630.094 263.786 630.094 260.106C630.094 256.298 631.39 254.522 634.174 254.522C634.894 254.522 635.342 254.554 635.822 254.65C636.158 254.714 636.238 254.794 636.238 255.066V256.026C636.238 256.33 636.078 256.474 635.822 256.426C635.294 256.33 634.894 256.282 634.302 256.282C632.51 256.282 631.854 257.306 631.854 260.106ZM648.83 253.53V254.554C648.83 254.762 648.926 254.842 649.166 254.842H650.83C651.102 254.842 651.23 254.97 651.23 255.242V256.202C651.23 256.474 651.102 256.602 650.83 256.602H648.814V260.538C648.814 262.474 649.678 263.594 650.91 263.754C651.182 263.786 651.31 263.882 651.31 264.154V265.114C651.31 265.402 651.182 265.546 650.91 265.514C649.518 265.338 648.382 264.49 647.934 263.13C647.486 264.49 646.366 265.338 644.974 265.514C644.702 265.546 644.574 265.402 644.574 265.114V264.154C644.574 263.882 644.702 263.786 644.974 263.754C646.206 263.594 647.054 262.474 647.054 260.538V256.602H645.054C644.782 256.602 644.654 256.474 644.654 256.202V255.242C644.654 254.97 644.782 254.842 645.054 254.842H647.31C647.166 254.762 647.07 254.618 647.07 254.41V253.53C647.07 253.258 647.198 253.13 647.47 253.13H648.43C648.702 253.13 648.83 253.258 648.83 253.53ZM650.878 259.21H652.334C652.702 259.21 652.814 259.098 652.814 258.778V254.074C652.814 253.802 652.942 253.674 653.214 253.674H654.174C654.446 253.674 654.574 253.802 654.574 254.074V267.29C654.574 267.562 654.446 267.69 654.174 267.69H653.214C652.942 267.69 652.814 267.562 652.814 267.29V260.682C652.718 260.858 652.494 260.97 652.27 260.97H650.878C650.606 260.97 650.478 260.842 650.478 260.57V259.61C650.478 259.338 650.606 259.21 650.878 259.21ZM657.374 253.914V267.29C657.374 267.562 657.246 267.69 656.974 267.69H656.014C655.742 267.69 655.614 267.562 655.614 267.29V253.914C655.614 253.642 655.742 253.514 656.014 253.514H656.974C657.246 253.514 657.374 253.642 657.374 253.914ZM667.167 263.946C666.783 263.946 666.607 264.09 666.607 264.442V266.858C666.607 267.13 666.447 267.29 666.191 267.29H665.183C664.927 267.29 664.767 267.13 664.767 266.858V264.65C664.767 264.33 664.927 264.058 665.183 263.962C663.407 263.946 661.215 263.834 660.047 263.69C659.759 263.658 659.647 263.498 659.647 263.242V262.362C659.647 262.09 659.807 261.962 660.079 261.994C661.599 262.17 663.439 262.266 665.663 262.266C667.951 262.266 670.047 262.17 671.295 262.01C671.567 261.978 671.727 262.106 671.727 262.378V263.258C671.727 263.53 671.615 263.658 671.327 263.706C670.239 263.85 668.543 263.946 667.167 263.946ZM669.967 256.41C670.207 256.426 670.319 256.554 670.319 256.794V257.658C670.319 257.898 670.175 258.042 669.935 258.026C668.415 257.93 666.911 257.93 665.535 257.93C663.023 257.93 662.575 258.026 662.575 258.602C662.575 259.21 663.231 259.37 665.663 259.37C667.439 259.37 668.863 259.306 670.063 259.146C670.303 259.114 670.479 259.242 670.495 259.482L670.575 260.346C670.591 260.586 670.463 260.73 670.207 260.762C668.911 260.922 667.567 260.986 665.615 260.986C661.903 260.986 660.735 260.41 660.735 258.602C660.735 256.858 661.887 256.314 665.663 256.314C667.871 256.314 669.135 256.362 669.967 256.41ZM661.263 255.482C660.991 255.482 660.863 255.354 660.863 255.082V254.282C660.863 254.01 660.991 253.882 661.263 253.882H669.919C670.191 253.882 670.319 254.01 670.319 254.282V255.082C670.319 255.354 670.191 255.482 669.919 255.482H661.263ZM673.777 256.282C673.505 256.282 673.377 256.154 673.377 255.882V254.922C673.377 254.65 673.505 254.522 673.777 254.522H680.337C680.609 254.522 680.737 254.65 680.737 254.922V255.882C680.737 256.154 680.609 256.282 680.337 256.282H677.969V260.09C677.969 261.93 679.089 263.594 680.433 263.754C680.705 263.786 680.801 263.914 680.801 264.186V265.146C680.801 265.418 680.673 265.546 680.401 265.514C678.865 265.322 677.457 264.106 677.057 262.618C676.641 264.106 675.233 265.322 673.697 265.514C673.425 265.546 673.297 265.418 673.297 265.146V264.186C673.297 263.914 673.393 263.786 673.665 263.754C675.009 263.594 676.129 261.93 676.129 260.09V256.282H673.777ZM684.225 267.258C684.225 267.53 684.065 267.69 683.809 267.69H682.801C682.545 267.69 682.385 267.53 682.385 267.258V253.946C682.385 253.674 682.545 253.514 682.801 253.514H683.809C684.065 253.514 684.225 253.674 684.225 253.946V259.434C684.337 259.226 684.561 259.114 684.881 259.114H685.825C686.097 259.114 686.225 259.242 686.225 259.514V260.474C686.225 260.746 686.097 260.874 685.825 260.874H684.785C684.401 260.874 684.225 261.034 684.225 261.386V267.258Z" fill="black"/>
<rect y="236.05" width="742" height="1" fill="black"/>
</svg>
