<?xml version="1.0" encoding="UTF-8"?>
<svg id="_레이어_1" data-name="레이어 1" xmlns="http://www.w3.org/2000/svg" version="1.1" viewBox="0 0 600 450">
  <defs>
    <style>
      .cls-1 {
        fill: #ff755e;
      }

      .cls-1, .cls-2, .cls-3, .cls-4, .cls-5, .cls-6, .cls-7, .cls-8, .cls-9, .cls-10, .cls-11, .cls-12, .cls-13, .cls-14, .cls-15, .cls-16, .cls-17 {
        stroke-width: 0px;
      }

      .cls-2 {
        fill: #c28a3b;
      }

      .cls-3 {
        fill: #91a185;
      }

      .cls-4 {
        fill: #ffe3db;
      }

      .cls-5 {
        fill: #d6e3cf;
      }

      .cls-6 {
        fill: #ff4f17;
      }

      .cls-7 {
        fill: #ffd4c9;
      }

      .cls-8 {
        fill: #e3992b;
      }

      .cls-9 {
        fill: #8f5c1c;
      }

      .cls-10 {
        fill: #000;
      }

      .cls-11 {
        fill: #ffbaab;
      }

      .cls-12 {
        fill: #ffba40;
      }

      .cls-13 {
        fill: #ffcc80;
      }

      .cls-14 {
        fill: #e8e8e8;
      }

      .cls-15 {
        fill: #abbf9e;
      }

      .cls-16 {
        fill: #fff0f0;
      }

      .cls-17 {
        fill: #fff;
      }
    </style>
  </defs>
  <polygon class="cls-6" points="46 200.9 72.4 241.5 256.4 141.9 311.5 178.8 481.3 102 509.7 145.6 555.5 47.6 553.7 38.2 435.6 28.1 436.4 36.6 457.9 69.7 316.3 134.1 255.2 93.7 44.5 191.7 46 200.9"/>
  <polygon class="cls-17" points="44.4 191.3 70.8 231.9 254.8 132.3 309.9 169.2 479.6 92.4 508.1 136 553.9 38 435.5 27.9 456.3 60.1 314.7 124.5 253.6 84.2 44.4 191.3"/>
  <path class="cls-10" d="M46,192.4c12.4-6.4,24.7-12.8,37-19.2,14.1-7.3,28.2-14.7,42.2-22,14.7-7.7,29.4-15.3,44.1-23,14.2-7.4,28.4-14.8,42.6-22.2,12.6-6.5,25.1-13.1,37.7-19.6,1.4-.7,2.8-1.5,4.3-2.2,1-.5.1-2-.9-1.5-12.4,6.4-24.7,12.8-37,19.2-14.1,7.3-28.2,14.7-42.2,22-14.7,7.7-29.4,15.3-44.1,23-14.2,7.4-28.4,14.8-42.6,22.2-12.6,6.5-25.1,13.1-37.7,19.6-1.4.7-2.8,1.5-4.3,2.2-1,.5-.1,2,.9,1.5"/>
  <path class="cls-10" d="M316.4,124.8c18.4-9.5,37.1-18.1,56.1-26.1,16.5-6.9,33.2-13.6,49.5-21,11.3-5.1,22.6-10.6,33.6-16.3,1-.5.1-2-.9-1.5-18.4,9.5-37.1,18.1-56.1,26.1-16.5,6.9-33.2,13.6-49.5,21-11.3,5.1-22.6,10.6-33.6,16.3-1,.5-.1,2,.9,1.5"/>
  <path class="cls-10" d="M253.1,84.7c16.7,10.6,33.2,21.6,49.6,32.7,4,2.7,8.1,5.4,12.1,8.1.9.6,1.8-.9.9-1.5-15.4-10.3-30.7-20.7-46.2-30.8-5.2-3.4-10.4-6.7-15.6-10-1-.6-1.8.9-.9,1.5"/>
  <path class="cls-10" d="M437.2,28.7c15.2.8,30.3,2.3,45.4,3.8,16.6,1.6,33.2,3.3,49.8,5,6.5.6,13,1.3,19.5,1.8,1.1,0,1.1-1.7,0-1.8-13.3-1.1-26.7-2.5-40-3.9-17.1-1.7-34.2-3.4-51.3-4.9-7.8-.7-15.6-1.3-23.5-1.8-1.1,0-1.1,1.7,0,1.8"/>
  <path class="cls-10" d="M443.5,83.2c-1,1.1-1.9,2.1-2.9,3.2-.3.3-.4.9,0,1.2.3.3.9.4,1.2,0,1-1.1,1.9-2.1,2.9-3.2.3-.3.4-.9,0-1.2-.3-.3-.9-.4-1.2,0"/>
  <path class="cls-10" d="M461,80c-2.1,1.8-4.1,3.6-6.2,5.4-.4.3-.3.9,0,1.2.4.4.9.3,1.2,0,2.1-1.8,4.1-3.6,6.2-5.4.4-.3.3-.9,0-1.2-.4-.4-.9-.3-1.2,0"/>
  <path class="cls-10" d="M217.3,126.1c-3.7,3.9-7.4,7.8-11,11.7-.8.8.5,2.1,1.2,1.2,3.7-3.9,7.4-7.8,11-11.7.8-.8-.5-2.1-1.2-1.2"/>
  <path class="cls-14" d="M301,341.9c0,26.3-59.5,47.7-133,47.7s-133-21.4-133-47.7,59.5-47.7,133-47.7,133,21.4,133,47.7"/>
  <path class="cls-7" d="M297.7,222.4c0,38.7-19.5,76.3-74.8,100.1-6.8,3.9-4.1,21.7-11.1,31.6-11.8,4.6-26,4.2-39.3,6.1-8.5,1.2-28.8-28.7-37.7-28.7s-25,18.2-43.8,21.7c-8.8,1.6-29.7-3.3-34.9-4.9-12.7-3.9-3.9-18.1,8.2-32.8-35.6-21.2-58.7-55-58.7-93.2,0-64.2,65.4-116.3,146.1-116.3s146.1,52,146.1,116.3"/>
  <path class="cls-7" d="M30.8,164.3s-17.2-43.8,6.4-48.3c18.4-3.5,41.8,33.6,41.8,33.6l-48.2,14.7Z"/>
  <path class="cls-11" d="M98.7,147.9s17.9-41.4,40.6-33.6c17.7,6.1,4.3,48.8,4.3,48.8l-44.9-15.2Z"/>
  <path class="cls-11" d="M113.4,226.8c0,11.9-13.6,21.5-30.4,21.5s-30.4-9.6-30.4-21.5,13.6-21.5,30.4-21.5,30.4,9.6,30.4,21.5"/>
  <path class="cls-1" d="M72.5,228.2c0,2-1.7,3.7-3.9,3.7s-3.9-1.7-3.9-3.7,1.7-3.7,3.9-3.7,3.9,1.7,3.9,3.7"/>
  <path class="cls-1" d="M97.4,228.1c0,2-1.7,3.7-3.9,3.7s-3.9-1.7-3.9-3.7,1.7-3.7,3.9-3.7,3.9,1.7,3.9,3.7"/>
  <path class="cls-10" d="M67.4,189.5c1-1.8,3.3-2.3,5.2-1.3,1.9,1.1,2.5,3.4,1.5,5.1-1,1.8-3.4,2.3-5.2,1.3-1.9-1.1-2.5-3.4-1.5-5.1"/>
  <path class="cls-10" d="M97.6,189.6c1-1.8,3.3-2.3,5.2-1.3,1.9,1.1,2.5,3.4,1.5,5.1-1,1.8-3.4,2.3-5.2,1.3-1.9-1.1-2.5-3.4-1.5-5.1"/>
  <path class="cls-11" d="M176.5,122.7l-1.8,7.1s11.6.7,27.9,4.6c16.4,3.9,20.5,6.8,20.5,6.8l3.3-7.4s-16-5-24-7.2c-7.9-2.1-26-3.9-26-3.9"/>
  <path class="cls-4" d="M59.7,305c9.4,10.2,23.1,14.3,36.2,17.2,2.7.6,3.9-3.6,1.2-4.2-12.4-2.8-25.4-6.5-34.2-16.1-1.9-2.1-5,1-3.1,3.1"/>
  <path class="cls-4" d="M69.8,321.4c-3,5-6.1,10-9.4,14.8-.7,1-.2,2.4.8,3,1.1.6,2.3.2,3-.8,3.3-4.8,6.4-9.7,9.4-14.8,1.4-2.4-2.3-4.6-3.7-2.2"/>
  <path class="cls-4" d="M127.4,328c30.8,3,61.2-4.4,90.9-11.8,2.7-.7,1.6-4.9-1.2-4.2-29.3,7.3-59.3,14.7-89.7,11.7-2.8-.3-2.8,4.1,0,4.3"/>
  <path class="cls-4" d="M164.5,339.8c2.6.8,5.2,1.7,7.8,2.5,1.1.4,2.4-.4,2.7-1.5.3-1.2-.4-2.3-1.5-2.7-2.6-.8-5.2-1.7-7.8-2.5-1.1-.4-2.4.4-2.7,1.5-.3,1.2.4,2.3,1.5,2.7"/>
  <path class="cls-4" d="M35.6,123.6c-5.4,8.9-6.4,20.2-2.5,29.8.4,1.1,1.4,1.9,2.7,1.5,1-.3,2-1.6,1.5-2.7-3.5-8.6-2.8-18.5,2-26.5,1.5-2.4-2.3-4.6-3.7-2.2"/>
  <path class="cls-4" d="M21.2,178.3c-12.9,28-11.9,61.4,2.8,88.4,1.3,2.4,5.1.3,3.7-2.2-14-25.6-15.1-57.5-2.8-84.1,1.2-2.5-2.6-4.7-3.7-2.2"/>
  <path class="cls-4" d="M287.3,229.9c-.7,14.9-5.9,29.4-15.1,41.1-1.7,2.2,1.3,5.3,3.1,3.1,9.9-12.7,15.7-28.1,16.4-44.2.1-2.8-4.2-2.8-4.3,0"/>
  <path class="cls-4" d="M60.9,133.8c2.9,3.5,6.3,6.6,10,9.2.9.7,2.5.2,3-.8.6-1.1.2-2.3-.8-3-.4-.3-.9-.6-1.3-.9-.1,0-.2-.2-.3-.3.1.1.2.2,0,0-.2-.2-.4-.4-.7-.5-.8-.7-1.6-1.4-2.4-2.1-1.6-1.5-3-3-4.4-4.7-.7-.9-2.3-.8-3.1,0-.9.9-.8,2.1,0,3.1"/>
  <path class="cls-4" d="M107.3,117.2c-4.5,2.1-9.1,4.1-13.6,6.2-1,.5-1.4,2-.8,3,.7,1.1,1.9,1.3,3,.8,4.5-2.1,9.1-4.1,13.6-6.2,1-.5,1.4-2,.8-3-.7-1.1-1.9-1.3-3-.8"/>
  <path class="cls-10" d="M40.9,147.3c-6,4.4-11,10.1-14.5,16.7-.7,1.2,1.2,2.3,1.9,1.1,3.3-6.3,8-11.7,13.8-15.9,1.1-.8,0-2.7-1.1-1.9"/>
  <path class="cls-10" d="M139.9,123.3c.8,5.9.9,11.9.3,17.8-.5,4.5-1.5,9.7-5.5,12.3-1.2.8,0,2.6,1.1,1.9,4.3-2.8,5.8-7.9,6.4-12.8.8-6.6.7-13.3-.2-19.8-.2-1.4-2.3-.8-2.1.6"/>
  <path class="cls-10" d="M117.5,157.5c8.8,2.8,17.8,5.2,26.8,7.3,1.4.3,1.9-1.8.6-2.1-9-2.1-18-4.5-26.8-7.3-1.3-.4-1.9,1.7-.6,2.1"/>
  <path class="cls-10" d="M32.5,117.5c-8.7,8.9-8,22-7,33.5.1,1.4,2.3,1.4,2.2,0-1-10.8-1.9-23.5,6.4-32,1-1-.6-2.5-1.5-1.5"/>
  <path class="cls-10" d="M61.4,319.4c9.4,3,18.9,5.4,28.6,7.3,1.4.3,1.9-1.8.6-2.1-9.7-1.9-19.2-4.3-28.6-7.3-1.3-.4-1.9,1.7-.6,2.1"/>
  <path class="cls-14" d="M594.4,345.9c0,31-59.5,56.2-133,56.2s-133-25.2-133-56.2,59.5-56.2,133-56.2,133,25.2,133,56.2"/>
  <path class="cls-8" d="M470.5,175.7v151.1c0,0,21.4,9.4,42.4,9.2,21.1-.2,41.8-9.9,41.8-9.2,0,1.2,0-150.7,0-150.7,0,0-17.4-14.9-42.1-14.9s-42,14.5-42,14.5"/>
  <path class="cls-8" d="M554.8,325.7c0,8.5-18.9,15.5-42.2,15.5s-42.2-6.9-42.2-15.5,18.9-15.5,42.2-15.5,42.2,6.9,42.2,15.5"/>
  <path class="cls-16" d="M480,193.2v139.1c0,1.4,2.2,1.4,2.2,0v-1.7c0-1.4-2.2-1.4-2.2,0v1.7c0,1.4,2.2,1.4,2.2,0v-139.1c0-1.4-2.2-1.4-2.2,0"/>
  <path class="cls-13" d="M554.8,176.2c0,8.5-18.9,15.5-42.2,15.5s-42.2-6.9-42.2-15.5,18.9-15.5,42.2-15.5,42.2,6.9,42.2,15.5"/>
  <path class="cls-9" d="M470.5,193.2c3.1,2,6.5,3.5,10,4.6,3.5,1.2,7,2.1,10.6,2.8,7.2,1.4,14.5,2,21.8,2.1,7.3.2,14.7-.3,21.9-1.6,3.6-.7,7.1-1.6,10.5-3,3.4-1.3,6.7-3.1,9.2-5.8-2.2,3-5.6,4.9-8.9,6.5-3.4,1.5-7,2.6-10.6,3.5-7.3,1.6-14.7,2-22.1,2-7.4-.2-14.8-.8-22.1-2.4-7.2-1.7-14.4-4.1-20.3-8.6"/>
  <path class="cls-9" d="M470.5,204.8c3.1,2,6.5,3.5,10,4.6,3.5,1.2,7,2.1,10.6,2.8,7.2,1.4,14.5,2,21.8,2.1,7.3.2,14.7-.3,21.9-1.6,3.6-.7,7.1-1.6,10.5-3,3.4-1.3,6.7-3.1,9.2-5.8-2.2,3-5.6,4.9-8.9,6.5-3.4,1.5-7,2.6-10.6,3.5-7.3,1.6-14.7,2-22.1,2-7.4-.2-14.8-.8-22.1-2.4-7.2-1.7-14.4-4.1-20.3-8.6"/>
  <path class="cls-9" d="M470.5,216.1c3.1,2,6.5,3.5,10,4.6,3.5,1.2,7,2.1,10.6,2.8,7.2,1.4,14.5,2,21.8,2.1,7.3.2,14.7-.3,21.9-1.6,3.6-.7,7.1-1.6,10.5-3,3.4-1.3,6.7-3.1,9.2-5.8-2.2,3-5.6,4.9-8.9,6.5-3.4,1.5-7,2.6-10.6,3.5-7.3,1.6-14.7,2-22.1,2-7.4-.2-14.8-.8-22.1-2.4-7.2-1.7-14.4-4.1-20.3-8.6"/>
  <path class="cls-9" d="M470.5,227.7c3.1,2,6.5,3.5,10,4.6,3.5,1.2,7,2.1,10.6,2.8,7.2,1.4,14.5,2,21.8,2.1,7.3.2,14.7-.3,21.9-1.6,3.6-.7,7.1-1.6,10.5-3,3.4-1.3,6.7-3.1,9.2-5.8-2.2,3-5.6,4.9-8.9,6.5-3.4,1.5-7,2.6-10.6,3.5-7.3,1.6-14.7,2-22.1,2-7.4-.2-14.8-.8-22.1-2.4-7.2-1.7-14.4-4.1-20.3-8.6"/>
  <path class="cls-9" d="M470.5,238.1c3.1,2,6.5,3.5,10,4.6,3.5,1.2,7,2.1,10.6,2.8,7.2,1.4,14.5,2,21.8,2.1,7.3.2,14.7-.3,21.9-1.6,3.6-.7,7.1-1.6,10.5-3,3.4-1.3,6.7-3.1,9.2-5.8-2.2,3-5.6,4.9-8.9,6.5-3.4,1.5-7,2.6-10.6,3.5-7.3,1.6-14.7,2-22.1,2-7.4-.2-14.8-.8-22.1-2.4-7.2-1.7-14.4-4.1-20.3-8.6"/>
  <path class="cls-9" d="M470.5,249.6c3.1,2,6.5,3.5,10,4.6,3.5,1.2,7,2.1,10.6,2.8,7.2,1.4,14.5,2,21.8,2.1,7.3.2,14.7-.3,21.9-1.6,3.6-.7,7.1-1.6,10.5-3,3.4-1.3,6.7-3.1,9.2-5.8-2.2,3-5.6,4.9-8.9,6.5-3.4,1.5-7,2.6-10.6,3.5-7.3,1.6-14.7,2-22.1,2-7.4-.2-14.8-.8-22.1-2.4-7.2-1.7-14.4-4.1-20.3-8.6"/>
  <path class="cls-9" d="M470.5,261c3.1,2,6.5,3.5,10,4.6,3.5,1.2,7,2.1,10.6,2.8,7.2,1.4,14.5,2,21.8,2.1,7.3.2,14.7-.3,21.9-1.6,3.6-.7,7.1-1.6,10.5-3,3.4-1.3,6.7-3.1,9.2-5.8-2.2,3-5.6,4.9-8.9,6.5-3.4,1.5-7,2.6-10.6,3.5-7.3,1.6-14.7,2-22.1,2-7.4-.2-14.8-.8-22.1-2.4-7.2-1.7-14.4-4.1-20.3-8.6"/>
  <path class="cls-9" d="M470.5,272.5c3.1,2,6.5,3.5,10,4.6,3.5,1.2,7,2.1,10.6,2.8,7.2,1.4,14.5,2,21.8,2.1,7.3.2,14.7-.3,21.9-1.6,3.6-.7,7.1-1.6,10.5-3,3.4-1.3,6.7-3.1,9.2-5.8-2.2,3-5.6,4.9-8.9,6.5-3.4,1.5-7,2.6-10.6,3.5-7.3,1.6-14.7,2-22.1,2-7.4-.2-14.8-.8-22.1-2.4-7.2-1.7-14.4-4.1-20.3-8.6"/>
  <path class="cls-9" d="M470.5,283.7c3.1,2,6.5,3.5,10,4.6,3.5,1.2,7,2.1,10.6,2.8,7.2,1.4,14.5,2,21.8,2.1,7.3.2,14.7-.3,21.9-1.6,3.6-.7,7.1-1.6,10.5-3,3.4-1.4,6.7-3.1,9.2-5.8-2.2,3-5.6,4.9-8.9,6.5-3.4,1.5-7,2.6-10.6,3.5-7.3,1.6-14.7,2-22.1,2-7.4-.2-14.8-.8-22.1-2.4-7.2-1.7-14.4-4.1-20.3-8.6"/>
  <path class="cls-9" d="M470.5,294.1c3.1,2,6.5,3.5,10,4.6,3.5,1.2,7,2.1,10.6,2.8,7.2,1.4,14.5,2,21.8,2.1,7.3.2,14.7-.3,21.9-1.6,3.6-.7,7.1-1.6,10.5-3,3.4-1.3,6.7-3.1,9.2-5.8-2.2,3-5.6,4.9-8.9,6.5-3.4,1.5-7,2.6-10.6,3.5-7.3,1.6-14.7,2-22.1,2-7.4-.2-14.8-.8-22.1-2.4-7.2-1.7-14.4-4.1-20.3-8.6"/>
  <path class="cls-9" d="M470.5,305.7c3.1,2,6.5,3.5,10,4.6,3.5,1.2,7,2.1,10.6,2.8,7.2,1.4,14.5,2,21.8,2.1,7.3.2,14.7-.3,21.9-1.6,3.6-.7,7.1-1.6,10.5-3,3.4-1.3,6.7-3.1,9.2-5.8-2.2,3-5.6,4.9-8.9,6.5-3.4,1.5-7,2.6-10.6,3.5-7.3,1.6-14.7,2-22.1,2-7.4-.2-14.8-.8-22.1-2.4-7.2-1.7-14.4-4.1-20.3-8.6"/>
  <path class="cls-9" d="M470.5,317c3.1,2,6.5,3.5,10,4.6,3.5,1.2,7,2.1,10.6,2.8,7.2,1.4,14.5,2,21.8,2.1,7.3.2,14.7-.3,21.9-1.6,3.6-.7,7.1-1.6,10.5-3,3.4-1.3,6.7-3.1,9.2-5.8-2.2,3-5.6,4.9-8.9,6.5-3.4,1.5-7,2.6-10.6,3.5-7.3,1.6-14.7,2-22.1,2-7.4-.2-14.8-.8-22.1-2.4-7.2-1.7-14.4-4.1-20.3-8.6"/>
  <path class="cls-9" d="M470.5,328.6c3.1,2,6.5,3.5,10,4.6,3.5,1.2,7,2.1,10.6,2.8,7.2,1.4,14.5,2,21.8,2.1,7.3.2,14.7-.3,21.9-1.6,3.6-.7,7.1-1.6,10.5-3,3.4-1.3,6.7-3.1,9.2-5.8-2.2,3-5.6,4.9-8.9,6.5-3.4,1.5-7,2.6-10.6,3.5-7.3,1.6-14.7,2-22.1,2-7.4-.2-14.8-.8-22.1-2.4-7.2-1.7-14.4-4.1-20.3-8.6"/>
  <path class="cls-16" d="M472,176c.2,1.5.6,2.9,1.5,4,.9,1.2,2,2,3.1,3,.4.4,1.1.4,1.5,0,.4-.4.5-1.1,0-1.5-1-.8-2-1.6-2.8-2.6,0,0,0,0,0,0,0,0,0-.1-.1-.2,0-.1-.2-.3-.3-.4,0-.1-.2-.3-.2-.4,0,0,0-.1,0-.2,0,0,0-.1,0,0-.1-.3-.2-.6-.3-.9,0-.1,0-.3,0-.4,0,0,0-.2,0-.3,0-.2,0,.3,0,0,0-.6-.5-1.1-1.1-1.1-.5,0-1.1.5-1.1,1.1"/>
  <path class="cls-16" d="M489.6,187.2c4,1.6,8.2,2.1,12.5,2.4,4.6.2,9.1.3,13.7.3,1.4,0,1.4-2.1,0-2.2-4.4,0-8.8,0-13.2-.3-4.2-.2-8.4-.7-12.4-2.3-1.3-.5-1.9,1.6-.6,2.1"/>
  <path class="cls-10" d="M470.5,181.5v70.6c0,1.4,2.2,1.4,2.2,0v-70.6c0-1.4-2.2-1.4-2.2,0"/>
  <path class="cls-12" d="M342,188.6v151.1c0,0,21.4,9.4,42.4,9.2,21.1-.2,41.8-9.9,41.8-9.2,0,1.2,0-150.7,0-150.7,0,0-17.4-14.9-42.1-14.9s-42,14.5-42,14.5"/>
  <path class="cls-12" d="M426.3,338.6c0,8.5-18.9,15.5-42.2,15.5s-42.2-6.9-42.2-15.5,18.9-15.5,42.2-15.5,42.2,6.9,42.2,15.5"/>
  <path class="cls-16" d="M351.5,206.2v139.1c0,1.4,2.2,1.4,2.2,0v-1.7c0-1.4-2.2-1.4-2.2,0v1.7c0,1.4,2.2,1.4,2.2,0v-139.1c0-1.4-2.2-1.4-2.2,0"/>
  <path class="cls-13" d="M426.3,189.2c0,8.5-18.9,15.5-42.2,15.5s-42.2-6.9-42.2-15.5,18.9-15.5,42.2-15.5,42.2,6.9,42.2,15.5"/>
  <path class="cls-2" d="M342,206.2c3.1,2,6.5,3.5,10,4.6,3.5,1.2,7,2.1,10.6,2.8,7.2,1.4,14.5,2,21.8,2.1,7.3.2,14.7-.3,21.9-1.6,3.6-.7,7.1-1.6,10.5-3,3.4-1.3,6.7-3.1,9.2-5.8-2.2,3-5.6,4.9-8.9,6.5-3.4,1.5-7,2.6-10.6,3.5-7.3,1.6-14.7,2-22.1,2-7.4-.2-14.8-.8-22.1-2.4-7.2-1.7-14.4-4.1-20.3-8.6"/>
  <path class="cls-2" d="M342,217.7c3.1,2,6.5,3.5,10,4.6,3.5,1.2,7,2.1,10.6,2.8,7.2,1.4,14.5,2,21.8,2.1,7.3.2,14.7-.3,21.9-1.6,3.6-.7,7.1-1.6,10.5-3,3.4-1.3,6.7-3.1,9.2-5.8-2.2,3-5.6,4.9-8.9,6.5-3.4,1.5-7,2.6-10.6,3.5-7.3,1.6-14.7,2-22.1,2-7.4-.2-14.8-.8-22.1-2.4-7.2-1.7-14.4-4.1-20.3-8.6"/>
  <path class="cls-2" d="M342,229.1c3.1,2,6.5,3.5,10,4.6,3.5,1.2,7,2.1,10.6,2.8,7.2,1.4,14.5,2,21.8,2.1,7.3.2,14.7-.3,21.9-1.6,3.6-.7,7.1-1.6,10.5-3,3.4-1.3,6.7-3.1,9.2-5.8-2.2,3-5.6,4.9-8.9,6.5-3.4,1.5-7,2.6-10.6,3.5-7.3,1.6-14.7,2-22.1,2-7.4-.2-14.8-.8-22.1-2.4-7.2-1.7-14.4-4.1-20.3-8.6"/>
  <path class="cls-2" d="M342,240.6c3.1,2,6.5,3.5,10,4.6,3.5,1.2,7,2.1,10.6,2.8,7.2,1.4,14.5,2,21.8,2.1,7.3.2,14.7-.3,21.9-1.6,3.6-.7,7.1-1.6,10.5-3,3.4-1.3,6.7-3.1,9.2-5.8-2.2,3-5.6,4.9-8.9,6.5-3.4,1.5-7,2.6-10.6,3.5-7.3,1.6-14.7,2-22.1,2-7.4-.2-14.8-.8-22.1-2.4-7.2-1.7-14.4-4.1-20.3-8.6"/>
  <path class="cls-2" d="M342,251c3.1,2,6.5,3.5,10,4.6,3.5,1.2,7,2.1,10.6,2.8,7.2,1.4,14.5,2,21.8,2.1,7.3.2,14.7-.3,21.9-1.6,3.6-.7,7.1-1.6,10.5-3,3.4-1.3,6.7-3.1,9.2-5.8-2.2,3-5.6,4.9-8.9,6.5-3.4,1.5-7,2.6-10.6,3.5-7.3,1.6-14.7,2-22.1,2-7.4-.2-14.8-.8-22.1-2.4-7.2-1.7-14.4-4.1-20.3-8.6"/>
  <path class="cls-2" d="M342,262.6c3.1,2,6.5,3.5,10,4.6,3.5,1.2,7,2.1,10.6,2.8,7.2,1.4,14.5,2,21.8,2.1,7.3.2,14.7-.3,21.9-1.6,3.6-.7,7.1-1.6,10.5-3,3.4-1.3,6.7-3.1,9.2-5.8-2.2,3-5.6,4.9-8.9,6.5-3.4,1.5-7,2.6-10.6,3.5-7.3,1.6-14.7,2-22.1,2-7.4-.2-14.8-.8-22.1-2.4-7.2-1.7-14.4-4.1-20.3-8.6"/>
  <path class="cls-2" d="M342,273.9c3.1,2,6.5,3.5,10,4.6,3.5,1.2,7,2.1,10.6,2.8,7.2,1.4,14.5,2,21.8,2.1,7.3.2,14.7-.3,21.9-1.6,3.6-.7,7.1-1.6,10.5-3,3.4-1.3,6.7-3.1,9.2-5.8-2.2,3-5.6,4.9-8.9,6.5-3.4,1.5-7,2.6-10.6,3.5-7.3,1.6-14.7,2-22.1,2-7.4-.2-14.8-.8-22.1-2.5-7.2-1.7-14.4-4.1-20.3-8.6"/>
  <path class="cls-2" d="M342,285.5c3.1,2,6.5,3.5,10,4.6,3.5,1.2,7,2.1,10.6,2.8,7.2,1.4,14.5,2,21.8,2.1,7.3.2,14.7-.3,21.9-1.6,3.6-.7,7.1-1.6,10.5-3,3.4-1.3,6.7-3.1,9.2-5.8-2.2,3-5.6,4.9-8.9,6.5-3.4,1.5-7,2.6-10.6,3.5-7.3,1.6-14.7,2-22.1,2-7.4-.2-14.8-.8-22.1-2.4-7.2-1.7-14.4-4.1-20.3-8.6"/>
  <path class="cls-2" d="M342,296.7c3.1,2,6.5,3.5,10,4.6,3.5,1.2,7,2.1,10.6,2.8,7.2,1.4,14.5,2,21.8,2.1,7.3.2,14.7-.3,21.9-1.6,3.6-.7,7.1-1.6,10.5-3,3.4-1.3,6.7-3.1,9.2-5.8-2.2,3-5.6,4.9-8.9,6.5-3.4,1.5-7,2.6-10.6,3.5-7.3,1.6-14.7,2-22.1,2-7.4-.2-14.8-.8-22.1-2.4-7.2-1.7-14.4-4.1-20.3-8.6"/>
  <path class="cls-2" d="M342,307.1c3.1,2,6.5,3.5,10,4.6,3.5,1.2,7,2.1,10.6,2.8,7.2,1.4,14.5,2,21.8,2.1,7.3.2,14.7-.3,21.9-1.6,3.6-.7,7.1-1.6,10.5-3,3.4-1.3,6.7-3.1,9.2-5.8-2.2,3-5.6,4.9-8.9,6.5-3.4,1.5-7,2.6-10.6,3.5-7.3,1.6-14.7,2-22.1,2-7.4-.2-14.8-.8-22.1-2.4-7.2-1.7-14.4-4.1-20.3-8.6"/>
  <path class="cls-2" d="M342,318.7c3.1,2,6.5,3.5,10,4.6,3.5,1.2,7,2.1,10.6,2.8,7.2,1.4,14.5,2,21.8,2.1,7.3.2,14.7-.3,21.9-1.6,3.6-.7,7.1-1.6,10.5-3,3.4-1.3,6.7-3.1,9.2-5.8-2.2,3-5.6,4.9-8.9,6.5-3.4,1.5-7,2.6-10.6,3.5-7.3,1.6-14.7,2-22.1,2-7.4-.2-14.8-.8-22.1-2.4-7.2-1.7-14.4-4.1-20.3-8.6"/>
  <path class="cls-2" d="M342,330c3.1,2,6.5,3.5,10,4.6,3.5,1.2,7,2.1,10.6,2.8,7.2,1.4,14.5,2,21.8,2.1,7.3.2,14.7-.3,21.9-1.6,3.6-.7,7.1-1.6,10.5-3,3.4-1.3,6.7-3.1,9.2-5.8-2.2,3-5.6,4.9-8.9,6.5-3.4,1.5-7,2.6-10.6,3.5-7.3,1.6-14.7,2-22.1,2-7.4-.2-14.8-.8-22.1-2.4-7.2-1.7-14.4-4.1-20.3-8.6"/>
  <path class="cls-2" d="M342,341.6c3.1,2,6.5,3.5,10,4.6,3.5,1.2,7,2.1,10.6,2.8,7.2,1.4,14.5,2,21.8,2.1,7.3.2,14.7-.3,21.9-1.6,3.6-.7,7.1-1.6,10.5-3,3.4-1.3,6.7-3.1,9.2-5.8-2.2,3-5.6,4.9-8.9,6.5-3.4,1.5-7,2.6-10.6,3.5-7.3,1.6-14.7,2-22.1,2-7.4-.2-14.8-.8-22.1-2.4-7.2-1.7-14.4-4.1-20.3-8.6"/>
  <path class="cls-16" d="M343.5,188.9c.2,1.5.6,2.9,1.5,4,.9,1.2,2,2,3.1,3,.4.4,1.1.4,1.5,0,.4-.4.5-1.1,0-1.5-1-.8-2-1.6-2.8-2.6,0,0,0,0,0,0,0,0,0-.1-.1-.2,0-.1-.2-.3-.3-.4,0-.1-.2-.3-.2-.4,0,0,0-.1,0-.2,0,0,0-.1,0,0-.1-.3-.2-.6-.3-.9,0-.1,0-.3,0-.4,0,0,0-.2,0-.3,0-.2,0,.3,0,0,0-.6-.5-1.1-1.1-1.1-.5,0-1.1.5-1.1,1.1"/>
  <path class="cls-16" d="M361.1,200.1c4,1.6,8.2,2.1,12.5,2.4,4.6.2,9.1.3,13.7.3,1.4,0,1.4-2.1,0-2.2-4.4,0-8.8,0-13.2-.3-4.2-.2-8.4-.7-12.4-2.3-1.3-.5-1.9,1.6-.6,2.1"/>
  <path class="cls-10" d="M341.5,191.9v151.3c0,1.4,2.2,1.4,2.2,0v-151.3c0-1.4-2.2-1.4-2.2,0"/>
  <path class="cls-12" d="M403.2,268.2v103.8c0,0,21.4,6.5,42.4,6.4,21.1-.1,41.8-6.8,41.8-6.4,0,.8,0-103.5,0-103.5,0,0-17.4-10.3-42.1-10.3s-42,10-42,10"/>
  <path class="cls-12" d="M487.5,371.4c0,8.5-18.9,15.5-42.2,15.5s-42.2-6.9-42.2-15.5,18.9-15.5,42.2-15.5,42.2,6.9,42.2,15.5"/>
  <path class="cls-16" d="M412.6,284v92.5c0,1.4,2.2,1.4,2.2,0v-1.1c0-1.4-2.2-1.4-2.2,0v1.1c0,1.4,2.2,1.4,2.2,0v-92.5c0-1.4-2.2-1.4-2.2,0"/>
  <path class="cls-13" d="M487.5,269.1c0,8.5-18.9,15.5-42.2,15.5s-42.2-6.9-42.2-15.5,18.9-15.5,42.2-15.5,42.2,6.9,42.2,15.5"/>
  <path class="cls-2" d="M403.2,288.2c3.1,2,6.5,3.5,10,4.6,3.5,1.2,7,2.1,10.6,2.8,7.2,1.4,14.5,2,21.8,2.1,7.3.2,14.7-.3,21.9-1.6,3.6-.7,7.1-1.6,10.5-3,3.4-1.3,6.7-3.1,9.2-5.8-2.2,3-5.6,4.9-8.9,6.5-3.4,1.5-7,2.6-10.6,3.5-7.3,1.6-14.7,2-22.1,2-7.4-.2-14.8-.8-22.1-2.4-7.2-1.7-14.4-4.1-20.3-8.6"/>
  <path class="cls-2" d="M403.2,299.8c3.1,2,6.5,3.5,10,4.6,3.5,1.2,7,2.1,10.6,2.8,7.2,1.4,14.5,2,21.8,2.1,7.3.2,14.7-.3,21.9-1.6,3.6-.7,7.1-1.6,10.5-3,3.4-1.3,6.7-3.1,9.2-5.8-2.2,3-5.6,4.9-8.9,6.5-3.4,1.5-7,2.6-10.6,3.5-7.3,1.6-14.7,2-22.1,2-7.4-.2-14.8-.8-22.1-2.4-7.2-1.7-14.4-4.1-20.3-8.6"/>
  <path class="cls-2" d="M403.2,311.1c3.1,2,6.5,3.5,10,4.6,3.5,1.2,7,2.1,10.6,2.8,7.2,1.4,14.5,2,21.8,2.1,7.3.2,14.7-.3,21.9-1.6,3.6-.7,7.1-1.6,10.5-3,3.4-1.3,6.7-3.1,9.2-5.8-2.2,3-5.6,4.9-8.9,6.5-3.4,1.5-7,2.6-10.6,3.5-7.3,1.6-14.7,2-22.1,2-7.4-.2-14.8-.8-22.1-2.4-7.2-1.7-14.4-4.1-20.3-8.6"/>
  <path class="cls-2" d="M403.2,322.7c3.1,2,6.5,3.5,10,4.6,3.5,1.2,7,2.1,10.6,2.8,7.2,1.4,14.5,2,21.8,2.1,7.3.2,14.7-.3,21.9-1.6,3.6-.7,7.1-1.6,10.5-3,3.4-1.3,6.7-3.1,9.2-5.8-2.2,3-5.6,4.9-8.9,6.5-3.4,1.5-7,2.6-10.6,3.5-7.3,1.6-14.7,2-22.1,2-7.4-.2-14.8-.8-22.1-2.4-7.2-1.7-14.4-4.1-20.3-8.6"/>
  <path class="cls-2" d="M403.2,333.1c3.1,2,6.5,3.5,10,4.6,3.5,1.2,7,2.1,10.6,2.8,7.2,1.4,14.5,2,21.8,2.1,7.3.2,14.7-.3,21.9-1.6,3.6-.7,7.1-1.6,10.5-3,3.4-1.3,6.7-3.1,9.2-5.8-2.2,3-5.6,4.9-8.9,6.5-3.4,1.5-7,2.6-10.6,3.5-7.3,1.6-14.7,2-22.1,2-7.4-.2-14.8-.8-22.1-2.4-7.2-1.7-14.4-4.1-20.3-8.6"/>
  <path class="cls-2" d="M403.2,344.7c3.1,2,6.5,3.5,10,4.6,3.5,1.2,7,2.1,10.6,2.8,7.2,1.4,14.5,2,21.8,2.1,7.3.2,14.7-.3,21.9-1.6,3.6-.7,7.1-1.6,10.5-3,3.4-1.3,6.7-3.1,9.2-5.8-2.2,3-5.6,4.9-8.9,6.5-3.4,1.5-7,2.6-10.6,3.5-7.3,1.6-14.7,2-22.1,2-7.4-.2-14.8-.8-22.1-2.4-7.2-1.7-14.4-4.1-20.3-8.6"/>
  <path class="cls-2" d="M403.2,356c3.1,2,6.5,3.5,10,4.6,3.5,1.2,7,2.1,10.6,2.8,7.2,1.4,14.5,2,21.8,2.1,7.3.2,14.7-.3,21.9-1.6,3.6-.7,7.1-1.6,10.5-3,3.4-1.3,6.7-3.1,9.2-5.8-2.2,3-5.6,4.9-8.9,6.5-3.4,1.5-7,2.6-10.6,3.5-7.3,1.6-14.7,2-22.1,2-7.4-.2-14.8-.8-22.1-2.4-7.2-1.7-14.4-4.1-20.3-8.6"/>
  <path class="cls-2" d="M403.2,367.7c3.1,2,6.5,3.5,10,4.6,3.5,1.2,7,2.1,10.6,2.8,7.2,1.4,14.5,2,21.8,2.1,7.3.2,14.7-.3,21.9-1.6,3.6-.7,7.1-1.6,10.5-3,3.4-1.3,6.7-3.1,9.2-5.8-2.2,3-5.6,4.9-8.9,6.5-3.4,1.5-7,2.6-10.6,3.5-7.3,1.6-14.7,2-22.1,2-7.4-.2-14.8-.8-22.1-2.4-7.2-1.7-14.4-4.1-20.3-8.6"/>
  <path class="cls-16" d="M404.7,268.9c.2,1.5.6,2.9,1.5,4,.9,1.2,2,2,3.1,3,.4.4,1.1.5,1.5,0,.4-.4.5-1.1,0-1.5-1-.8-2-1.6-2.8-2.6,0,0,0,0,0,0,0,0,0-.1-.1-.2,0-.1-.2-.3-.3-.4,0-.1-.2-.3-.2-.4,0,0,0-.1,0-.2,0,0,0-.1,0,0-.1-.3-.2-.6-.3-.9,0-.1,0-.3,0-.4,0,0,0-.2,0-.3,0-.2,0,.3,0,0,0-.6-.5-1.1-1.1-1.1-.5,0-1.1.5-1.1,1.1"/>
  <path class="cls-16" d="M422.3,280.1c4,1.6,8.2,2.1,12.5,2.4,4.6.2,9.1.3,13.7.3,1.4,0,1.4-2.1,0-2.2-4.4,0-8.8,0-13.2-.3-4.2-.2-8.4-.7-12.4-2.3-1.3-.5-1.9,1.6-.6,2.1"/>
  <path class="cls-10" d="M401.6,273.1v100.9c0,1.4,2.2,1.4,2.2,0v-100.9c0-1.4-2.2-1.4-2.2,0"/>
  <path class="cls-12" d="M373.3,45.6c0,17.3-16.2,31.3-36.1,31.3s-29.2-8-34.2-20.1c-1.4-3.3-2.8-13.3-2.8-17,0-15.1,56.3-25.5,70.1-14.1,2,1.6,3,17.8,3,20"/>
  <path class="cls-13" d="M372.3,35.8c0,17.3-16.2,31.3-36.1,31.3s-36.1-14-36.1-31.3,16.2-31.3,36.1-31.3,36.1,14,36.1,31.3"/>
  <path class="cls-2" d="M304.9,54v6.3c0,.6.5,1.1,1.1,1.1.6,0,1.1-.5,1.1-1.1v-6.3c0-.6-.5-1.1-1.1-1.1-.6,0-1.1.5-1.1,1.1"/>
  <path class="cls-2" d="M309.3,59v7.4c0,.6.5,1.1,1.1,1.1s1.1-.5,1.1-1.1v-7.4c0-.6-.5-1.1-1.1-1.1s-1.1.5-1.1,1.1"/>
  <path class="cls-2" d="M314.6,62.8v7.4c0,.6.5,1.1,1.1,1.1s1.1-.5,1.1-1.1v-7.4c0-.6-.5-1.1-1.1-1.1s-1.1.5-1.1,1.1"/>
  <path class="cls-2" d="M320.1,65.5v7.4c0,.6.5,1.1,1.1,1.1s1.1-.5,1.1-1.1v-7.4c0-.6-.5-1.1-1.1-1.1s-1.1.5-1.1,1.1"/>
  <path class="cls-2" d="M325.5,67.2v7.4c0,.6.5,1.1,1.1,1.1s1.1-.5,1.1-1.1v-7.4c0-.6-.5-1.1-1.1-1.1s-1.1.5-1.1,1.1"/>
  <path class="cls-2" d="M331.4,67.8v7.4c0,.6.5,1.1,1.1,1.1s1.1-.5,1.1-1.1v-7.4c0-.6-.5-1.1-1.1-1.1s-1.1.5-1.1,1.1"/>
  <path class="cls-2" d="M337.2,68.2v7.4c0,.6.5,1.1,1.1,1.1s1.1-.5,1.1-1.1v-7.4c0-.6-.5-1.1-1.1-1.1s-1.1.5-1.1,1.1"/>
  <path class="cls-2" d="M342.8,67.4v7.4c0,.6.5,1.1,1.1,1.1s1.1-.5,1.1-1.1v-7.4c0-.6-.5-1.1-1.1-1.1s-1.1.5-1.1,1.1"/>
  <path class="cls-2" d="M348.4,66.6v7.4c0,.6.5,1.1,1.1,1.1s1.1-.5,1.1-1.1v-7.4c0-.6-.5-1.1-1.1-1.1s-1.1.5-1.1,1.1"/>
  <path class="cls-2" d="M354.7,63.5v7.4c0,.6.5,1.1,1.1,1.1s1.1-.5,1.1-1.1v-7.4c0-.6-.5-1.1-1.1-1.1s-1.1.5-1.1,1.1"/>
  <path class="cls-2" d="M359.6,60.2v7.4c0,.6.5,1.1,1.1,1.1s1.1-.5,1.1-1.1v-7.4c0-.6-.5-1.1-1.1-1.1s-1.1.5-1.1,1.1"/>
  <path class="cls-2" d="M364,56.7v7.4c0,.6.5,1.1,1.1,1.1s1.1-.5,1.1-1.1v-7.4c0-.6-.5-1.1-1.1-1.1s-1.1.5-1.1,1.1"/>
  <path class="cls-2" d="M367.7,52.4v7.4c0,.6.5,1.1,1.1,1.1s1.1-.5,1.1-1.1v-7.4c0-.6-.5-1.1-1.1-1.1s-1.1.5-1.1,1.1"/>
  <path class="cls-2" d="M370.5,45.7v6.5c0,.6.5,1.1,1.1,1.1.6,0,1.1-.5,1.1-1.1v-6.5c0-.6-.5-1.1-1.1-1.1-.6,0-1.1.5-1.1,1.1"/>
  <path class="cls-10" d="M299.8,36.7c.6,14.6,11,26.8,25,30.6,13.1,3.5,28.5.7,38.3-9,5.5-5.4,9-12.5,10.1-20.1.2-1.4-1.9-2-2.1-.6-1.8,12.1-9.9,22.6-21.6,26.6-13.2,4.5-29.4,2.5-39.2-7.9-5-5.3-8-12.4-8.3-19.7,0-1.4-2.2-1.4-2.2,0"/>
  <path class="cls-10" d="M329.9,28.4c0,.3,0,.7,0,1,0,0,0,0,0,.1,0,.1,0,0,0,0,0,0,0,.1,0,.2,0,.2,0,.3-.1.5,0,.3-.2.6-.3.9-.1.3,0-.2,0,0,0,0,0,.1-.1.2,0,.2-.2.3-.2.5-.3.5-.1,1.2.4,1.5.5.3,1.2.1,1.5-.4.8-1.4,1.2-2.9,1.1-4.5,0-.6-.5-1.1-1.1-1.1-.6,0-1.1.5-1.1,1.1"/>
  <path class="cls-10" d="M334.2,36.3c-1.2,1.9-2.2,3.9-3.2,5.9-.2.5-.2,1.2.4,1.5.5.3,1.2.2,1.5-.4,1-2,2-4,3.2-5.9.3-.5.1-1.2-.4-1.5-.5-.3-1.2-.1-1.5.4"/>
  <path class="cls-3" d="M153.4,359.1l-1.8,30.9,61.8,55.4s164.8-39.3,173.2-52.7c-1.7-16.5-1.7-22.3-1.7-22.3l-85.6-54.8s-66.6,42.9-146,43.4"/>
  <path class="cls-5" d="M155.4,357.4c10.6,9.1,20,19.4,28.6,30.4,6.1,7.9,13.3,15,20.4,22,3.7,3.6,7.4,7.3,11.2,10.7,1,.9,2.6-.6,1.5-1.5-7.4-6.7-14.5-13.8-21.3-21.1-3.2-3.4-6.5-6.9-9.4-10.6-4-5-7.9-10-12.2-14.7-5.4-5.9-11.1-11.5-17.2-16.7-1.1-.9-2.6.6-1.5,1.5"/>
  <path class="cls-5" d="M218.3,421.3c22.5-5.5,45-11,67.5-16.5,21.2-5.2,42.4-10.4,63.2-17.4,11.6-3.9,23-8.3,34-13.5,1.3-.6.2-2.5-1.1-1.9-19.8,9.3-40.6,16-61.6,21.8-21.4,5.9-43.1,10.9-64.7,16.2-12.7,3.1-25.3,6.2-38,9.3-1.4.3-.8,2.4.6,2.1"/>
  <path class="cls-5" d="M219.5,426c22.5-5.5,45-11,67.5-16.5,21.2-5.2,42.4-10.4,63.2-17.4,11.6-3.9,23-8.3,34-13.5,1.3-.6.2-2.5-1.1-1.9-19.8,9.3-40.6,16-61.6,21.8-21.4,5.9-43.1,10.9-64.7,16.2-12.7,3.1-25.3,6.2-38,9.3-1.4.3-.8,2.4.6,2.1"/>
  <path class="cls-5" d="M218.5,431.4c22.5-5.5,45-11,67.5-16.5,21.2-5.2,42.4-10.4,63.2-17.4,11.6-3.9,23-8.3,34-13.5,1.3-.6.2-2.5-1.1-1.9-19.8,9.3-40.6,16-61.6,21.8-21.4,5.9-43.1,10.9-64.7,16.2-12.7,3.1-25.3,6.2-38,9.3-1.4.3-.8,2.4.6,2.1"/>
  <path class="cls-5" d="M217.3,435.8c22.5-5.5,45-11,67.5-16.5,21.2-5.2,42.4-10.4,63.2-17.4,11.6-3.9,23-8.3,34-13.5,1.3-.6.2-2.5-1.1-1.9-19.8,9.3-40.6,16-61.6,21.8-21.4,5.9-43.1,10.9-64.7,16.2-12.7,3.1-25.3,6.2-38,9.3-1.4.3-.8,2.4.6,2.1"/>
  <path class="cls-5" d="M217.7,440.4c22.5-5.5,45-11,67.5-16.5,21.2-5.2,42.4-10.4,63.2-17.4,11.6-3.9,23-8.3,34-13.5,1.3-.6.2-2.5-1.1-1.9-19.8,9.3-40.6,16-61.6,21.8-21.4,5.9-43.1,10.9-64.7,16.2-12.7,3.1-25.3,6.2-38,9.3-1.4.3-.8,2.4.6,2.1"/>
  <path class="cls-5" d="M216,419.7c-.9,4-1.8,8-2.3,12-.5,4.1-.4,8.2-1.3,12.2-.3,1.4,1.8,1.9,2.1.6.8-3.9.8-7.9,1.2-11.9.5-4.2,1.4-8.3,2.3-12.4.3-1.4-1.8-1.9-2.1-.6"/>
  <polygon class="cls-17" points="230.7 342.6 288.9 402.5 289.5 426.8 309.4 421.5 311.2 395.9 251.7 336 230.7 342.6"/>
  <path class="cls-14" d="M292.3,403.3c6.4-1.2,13.1-2.5,18.5-6.3,1.1-.8,0-2.7-1.1-1.9-5.3,3.7-11.8,5-18,6.1-1.4.2-.8,2.3.6,2.1"/>
  <path class="cls-14" d="M291.8,427.6c3.3-1.3,6.8-2,10.2-2.7,2.7-.6,5.8-1.1,7.3-3.7.7-1.2-1.2-2.3-1.9-1.1-1.3,2.2-4.7,2.4-7,2.9-3.1.7-6.3,1.4-9.3,2.5-1.3.5-.7,2.6.6,2.1"/>
  <path class="cls-14" d="M236.3,342.9c3.7-1.2,7.4-2.2,11.1-3.1,1.4-.3.8-2.4-.6-2.1-3.7.9-7.5,1.9-11.1,3.1-1.3.4-.8,2.5.6,2.1"/>
  <path class="cls-15" d="M135.5,320.1l-1.6,27.6,61.1,63.5s164.8-39.3,173.2-52.7c-1.7-16.5-1.7-22.3-1.7-22.3l-85.6-54.8s-66,38.2-145.4,38.7"/>
  <path class="cls-5" d="M136.9,323.1c10.6,9.1,20,19.4,28.6,30.4,6.1,7.9,13.3,15,20.4,22,3.7,3.6,7.4,7.3,11.2,10.7,1,.9,2.6-.6,1.5-1.5-7.4-6.7-14.5-13.8-21.3-21.1-3.2-3.5-6.5-6.9-9.4-10.6-4-5-7.9-10-12.2-14.7-5.4-5.9-11.1-11.5-17.2-16.7-1.1-.9-2.6.6-1.5,1.5"/>
  <path class="cls-5" d="M199.9,386.9c22.5-5.5,45-11,67.5-16.5,21.2-5.2,42.4-10.4,63.2-17.4,11.6-3.9,23-8.3,34-13.5,1.3-.6.2-2.5-1.1-1.9-19.8,9.3-40.6,16-61.6,21.8-21.4,5.9-43.1,10.9-64.7,16.2-12.7,3.1-25.3,6.2-38,9.3-1.4.3-.8,2.4.6,2.1"/>
  <path class="cls-5" d="M201,391.7c22.5-5.5,45-11,67.5-16.5,21.2-5.2,42.4-10.4,63.2-17.4,11.6-3.9,23-8.3,34-13.5,1.3-.6.2-2.5-1.1-1.9-19.8,9.3-40.6,16-61.6,21.8-21.4,5.9-43.1,10.9-64.7,16.2-12.7,3.1-25.3,6.2-38,9.3-1.4.3-.8,2.4.6,2.1"/>
  <path class="cls-5" d="M200,397.1c22.5-5.5,45-11,67.5-16.5,21.2-5.2,42.4-10.4,63.2-17.4,11.6-3.9,23-8.3,34-13.5,1.3-.6.2-2.5-1.1-1.9-19.8,9.3-40.6,16-61.6,21.8-21.4,5.9-43.1,10.9-64.7,16.2-12.7,3.1-25.3,6.2-38,9.3-1.4.3-.8,2.4.6,2.1"/>
  <path class="cls-5" d="M198.8,401.5c22.5-5.5,45-11,67.5-16.5,21.2-5.2,42.4-10.4,63.2-17.4,11.6-3.9,23-8.3,34-13.5,1.3-.6.2-2.5-1.1-1.9-19.8,9.3-40.6,16-61.6,21.8-21.4,5.9-43.1,10.9-64.7,16.2-12.7,3.1-25.3,6.2-38,9.3-1.4.3-.8,2.4.6,2.1"/>
  <path class="cls-5" d="M199.2,406.1c22.5-5.5,45-11,67.5-16.5,21.2-5.2,42.4-10.4,63.2-17.4,11.6-3.9,23-8.3,34-13.5,1.3-.6.2-2.5-1.1-1.9-19.8,9.3-40.6,16-61.6,21.8-21.4,5.9-43.1,10.9-64.7,16.2-12.7,3.1-25.3,6.2-38,9.3-1.4.3-.8,2.4.6,2.1"/>
  <path class="cls-5" d="M197.6,385.4c-.9,4-1.8,8-2.3,12-.5,4.1-.4,8.2-1.3,12.2-.3,1.4,1.8,1.9,2.1.6.8-3.9.8-7.9,1.2-11.9.5-4.2,1.4-8.3,2.3-12.4.3-1.4-1.8-1.9-2.1-.6"/>
  <polygon class="cls-17" points="212.3 308.3 270.4 368.2 271 392.5 290.9 387.2 292.7 361.6 233.3 301.7 212.3 308.3"/>
  <path class="cls-14" d="M273.8,369c6.4-1.2,13.1-2.5,18.5-6.3,1.1-.8,0-2.7-1.1-1.9-5.3,3.7-11.8,5-18,6.1-1.4.3-.8,2.3.6,2.1"/>
  <path class="cls-14" d="M273.3,393.3c3.3-1.3,6.8-2,10.2-2.7,2.7-.6,5.8-1.1,7.3-3.7.7-1.2-1.2-2.3-1.9-1.1-1.3,2.2-4.7,2.4-7,2.9-3.1.7-6.3,1.4-9.3,2.5-1.3.5-.7,2.6.6,2.1"/>
  <path class="cls-14" d="M217.8,308.6c3.7-1.2,7.4-2.2,11.1-3.1,1.4-.3.8-2.4-.6-2.1-3.7.9-7.5,1.9-11.1,3.1-1.3.4-.8,2.5.6,2.1"/>
  <path class="cls-10" d="M134.3,320.8c20,1.5,39.9-1.9,59.2-6.6,5.5-1.3,11.1-2.8,16.6-4.2,1.3-.4.8-2.4-.6-2.1-19.2,5.1-38.6,10-58.5,10.9-5.6.3-11.2.2-16.7-.2-1.4-.1-1.4,2.1,0,2.2"/>
  <path class="cls-10" d="M236.3,302.3c15.3-4.5,30.3-10.1,44.8-16.8,1.3-.6.2-2.4-1.1-1.9-14.4,6.6-29.2,12.1-44.3,16.6-1.3.4-.8,2.5.6,2.1"/>
  <path class="cls-10" d="M342.2,326.5c2.4,1.9,5,3.4,7.8,4.4.5.2,1.2-.2,1.3-.8.2-.6-.2-1.1-.8-1.3-2.4-.9-4.9-2.3-6.9-3.9-.5-.4-1.1-.4-1.5,0-.4.4-.5,1.2,0,1.5"/>
  <path class="cls-10" d="M335.4,331.8c3.8,2,7.7,4,11.6,6,1.2.6,2.3-1.2,1.1-1.9-3.8-2-7.7-4-11.5-6-1.2-.6-2.3,1.2-1.1,1.9"/>
  <path class="cls-10" d="M190.4,406.6c.8,1.1,1.6,2.3,2.4,3.4.2.2.4.4.6.5.3,0,.6,0,.8-.1.5-.3.7-1,.4-1.5-.8-1.1-1.6-2.3-2.4-3.4-.2-.2-.4-.4-.6-.5-.3,0-.6,0-.8.1-.5.3-.7,1-.4,1.5"/>
  <path class="cls-10" d="M276.4,436.4c3.4-1,6.8-2,10.2-3.1,1.3-.4.8-2.5-.6-2.1-3.4,1-6.8,2-10.2,3.1-1.3.4-.8,2.5.6,2.1"/>
  <path class="cls-10" d="M286.8,439.9c6.1-1.8,12.2-3.6,18.3-5.5,1.3-.4.8-2.5-.6-2.1-6.1,1.8-12.2,3.6-18.3,5.5-1.3.4-.8,2.5.6,2.1"/>
</svg>